<svg xmlns="http://www.w3.org/2000/svg" width="250" height="250" viewBox="0 0 250 250">
  <g fill="none" fill-rule="evenodd">
    <path fill="#434A4F" d="M80.007,179.351 C75.596,179.351 72.007,175.762 72.007,171.351 L72.007,43.874 L181.999,43.874 L181.999,157.354 L179.999,157.354 L179.999,45.874 L74.007,45.874 L74.007,171.351 C74.007,174.66 76.699,177.351 80.007,177.351 C83.316,177.351 86.007,174.66 86.007,171.351 L86.007,164.354 C86.007,159.943 89.596,156.354 94.007,156.354 C98.08,156.354 101.451,159.414 101.945,163.354 L207.915,163.354 C207.438,160.521 204.967,158.354 201.999,158.354 L201.999,156.354 C206.41,156.354 209.999,159.943 209.999,164.354 L209.999,165.354 L100.007,165.354 L100.007,164.354 C100.007,161.046 97.316,158.354 94.007,158.354 C90.699,158.354 88.007,161.046 88.007,164.354 L88.007,171.351 C88.007,175.762 84.418,179.351 80.007,179.351"/>
    <path fill="#DBDBD5" d="M110.001,36.864 L140.019,36.864 C142.228,36.864 144.019,38.655 144.019,40.864 L144.019,53.863 L114.001,53.863 L114.001,40.864 C114.001,38.655 112.21,36.864 110.001,36.864"/>
    <polyline fill="#75C7D0" points="65.004 43.873 58.005 43.873 58.005 210.864 172.997 210.864 172.997 203.854 65.004 203.854 65.004 43.873"/>
    <polyline fill="#434A4F" points="178.997 204.864 68.005 204.864 68.005 43.874 90.945 43.874 90.945 45.874 70.005 45.874 70.005 202.864 176.998 202.864 177.007 181.866 179.007 181.867 178.997 204.864"/>
    <path fill="#434A4F" d="M187.999,179.351 L187.999,177.351 C191.308,177.351 193.999,174.66 193.999,171.351 L193.999,164.354 L195.999,164.354 L195.999,171.351 C195.999,175.762 192.41,179.351 187.999,179.351"/>
    <polygon fill="#434A4F" points="94.007 158.354 201.999 158.354 201.999 156.354 94.007 156.354"/>
    <polygon fill="#434A4F" points="80.007 179.351 187.999 179.351 187.999 177.351 80.007 177.351"/>
    <path fill="#DBDBD5" d="M72.005,181.353 L72.005,187.355 C72.005,189.564 73.796,191.355 76.005,191.355 L175.004,191.355 L175.004,181.353 L72.005,181.353"/>
    <polyline fill="#434A4F" points="173.998 204.864 64.005 204.864 64.005 43.874 86.945 43.874 86.945 45.874 66.005 45.874 66.005 202.864 173.998 202.864 173.998 204.864"/>
    <path fill="#FACD60" d="M191.999,171.351 L191.999,167.355 L98.007,167.355 L98.007,164.355 C98.007,162.149 96.213,160.355 94.007,160.355 C91.802,160.355 90.007,162.149 90.007,164.355 L90.007,171.351 C90.007,172.772 89.709,174.125 89.172,175.351 L187.999,175.351 C190.205,175.351 191.999,173.556 191.999,171.351"/>
    <path fill="#434A4F" d="M115.001,52.863 L143.019,52.863 L143.019,40.864 C143.019,39.21 141.673,37.864 140.019,37.864 L113.998,37.864 C114.627,38.701 115.001,39.74 115.001,40.864 L115.001,52.863 Z M145.019,54.863 L113.001,54.863 L113.001,40.864 C113.001,39.21 111.655,37.864 110.001,37.864 C108.347,37.864 107.001,39.21 107.001,40.864 L107.001,44.864 L105.001,44.864 L105.001,40.864 C105.001,38.107 107.244,35.864 110.001,35.864 L140.019,35.864 C142.776,35.864 145.019,38.107 145.019,40.864 L145.019,54.863 Z"/>
    <polygon fill="#434A4F" points="48.369 210.053 50.369 210.053 50.369 206.053 48.369 206.053"/>
    <polygon fill="#434A4F" points="48.369 220.053 50.369 220.053 50.369 216.053 48.369 216.053"/>
    <polygon fill="#434A4F" points="52.369 214.053 56.369 214.053 56.369 212.053 52.369 212.053"/>
    <polygon fill="#434A4F" points="42.369 214.053 46.369 214.053 46.369 212.053 42.369 212.053"/>
    <polygon fill="#434A4F" points="185.451 33.947 187.451 33.947 187.451 29.947 185.451 29.947"/>
    <polygon fill="#434A4F" points="185.451 43.947 187.451 43.947 187.451 39.947 185.451 39.947"/>
    <polygon fill="#434A4F" points="189.451 37.947 193.451 37.947 193.451 35.947 189.451 35.947"/>
    <polygon fill="#434A4F" points="179.451 37.947 183.451 37.947 183.451 35.947 179.451 35.947"/>
    <polygon fill="#434A4F" points="197.458 134.007 199.458 134.007 199.458 130.007 197.458 130.007"/>
    <polygon fill="#434A4F" points="197.458 144.007 199.458 144.007 199.458 140.007 197.458 140.007"/>
    <polygon fill="#434A4F" points="201.458 138.007 205.458 138.007 205.458 136.007 201.458 136.007"/>
    <polygon fill="#434A4F" points="191.458 138.007 195.458 138.007 195.458 136.007 191.458 136.007"/>
    <path fill="#FACD60" d="M46.001 135.861C46.001 137.518 44.658 138.861 43.001 138.861 41.344 138.861 40.001 137.518 40.001 135.861 40.001 134.204 41.344 132.861 43.001 132.861 44.658 132.861 46.001 134.204 46.001 135.861M190.001 118.861C190.001 119.965 189.106 120.861 188.001 120.861 186.896 120.861 186.001 119.965 186.001 118.861 186.001 117.756 186.896 116.861 188.001 116.861 189.106 116.861 190.001 117.756 190.001 118.861M184.001 212.861C184.001 213.965 183.106 214.861 182.001 214.861 180.896 214.861 180.001 213.965 180.001 212.861 180.001 211.756 180.896 210.861 182.001 210.861 183.106 210.861 184.001 211.756 184.001 212.861"/>
    <path fill="#42494E" d="M136.001,189.861 C134.347,189.861 133.001,191.207 133.001,192.861 C133.001,194.515 134.347,195.861 136.001,195.861 L191.166,195.861 L197.672,192.861 L191.166,189.861 L136.001,189.861 Z M191.605,197.861 L136.001,197.861 C133.244,197.861 131.001,195.618 131.001,192.861 C131.001,190.104 133.244,187.861 136.001,187.861 L191.604,187.861 L202.448,192.861 L191.605,197.861 Z"/>
    <polygon fill="#42494E" points="141.611 196.861 143.611 196.861 143.611 189.263 141.611 189.263"/>
    <polygon fill="#42494E" points="142.611 193.832 190.617 193.832 190.617 191.832 142.611 191.832"/>
    <polyline fill="#E9886C" points="151.072 79.242 142.415 87.899 133.758 79.242 142.415 70.585 151.072 79.242"/>
    <path fill="#E9886C" d="M135.172,79.242 L142.415,86.484 L149.658,79.242 L142.415,71.999 L135.172,79.242 Z M142.415,89.312 L132.344,79.242 L142.415,69.171 L152.486,79.242 L142.415,89.312 Z"/>
    <polyline fill="#E9886C" points="151.239 107.156 142.582 115.813 133.925 107.156 142.582 98.499 151.239 107.156"/>
    <path fill="#E9886C" d="M135.339,107.156 L142.582,114.399 L149.825,107.156 L142.581,99.913 L135.339,107.156 Z M142.582,117.227 L132.511,107.156 L142.581,97.085 L152.653,107.156 L142.582,117.227 Z"/>
    <polyline fill="#E9886C" points="151.239 135.07 142.582 143.727 133.925 135.07 142.582 126.413 151.239 135.07"/>
    <path fill="#E9886C" d="M135.339,135.07 L142.582,142.313 L149.825,135.07 L142.581,127.828 L135.339,135.07 Z M142.582,145.141 L132.511,135.07 L142.581,125 L152.653,135.07 L142.582,145.141 Z"/>
    <polygon fill="#E9886C" points="80.582 114.064 94.744 114.064 94.744 99.901 80.582 99.901"/>
    <path fill="#E9886C" d="M81.582,113.064 L93.745,113.064 L93.744,100.901 L81.582,100.901 L81.582,113.064 Z M95.745,115.064 L79.582,115.064 L79.582,98.901 L95.744,98.901 L95.745,115.064 Z"/>
    <path fill="#434A4F" d="M109.419,113.064 L121.582,113.064 L121.582,100.901 L109.419,100.901 L109.419,113.064 Z M107.419,115.064 L123.582,115.064 L123.582,98.901 L107.419,98.901 L107.419,115.064 Z"/>
    <path fill="#75C7D0" d="M174.582,107.063 C174.582,110.377 171.896,113.063 168.582,113.063 C165.268,113.063 162.582,110.377 162.582,107.063 C162.582,103.75 165.268,101.063 168.582,101.063 C171.896,101.063 174.582,103.75 174.582,107.063"/>
    <path fill="#434A4F" d="M168.582,102.063 C165.825,102.063 163.582,104.307 163.582,107.063 C163.582,109.82 165.825,112.063 168.582,112.063 C171.339,112.063 173.582,109.82 173.582,107.063 C173.582,104.307 171.339,102.063 168.582,102.063 Z M168.582,114.063 C164.722,114.063 161.582,110.923 161.582,107.063 C161.582,103.204 164.722,100.063 168.582,100.063 C172.442,100.063 175.582,103.204 175.582,107.063 C175.582,110.923 172.442,114.063 168.582,114.063 Z"/>
    <polygon fill="#434A4F" points="98.582 108.063 104.582 108.063 104.582 106.063 98.582 106.063"/>
    <polyline fill="#434A4F" points="143.582 152.059 115.582 152.059 115.582 119.063 117.582 119.063 117.582 150.059 141.582 150.059 141.582 147.061 143.582 147.061 143.582 152.059"/>
    <polyline fill="#434A4F" points="169.582 95.063 167.582 95.063 167.582 64.068 143.582 64.068 143.582 67.066 141.582 67.066 141.582 62.068 169.582 62.068 169.582 95.063"/>
    <polygon fill="#434A4F" points="141.582 123.061 143.582 123.061 143.582 119.063 141.582 119.063"/>
    <polygon fill="#434A4F" points="141.582 95.064 143.582 95.064 143.582 91.066 141.582 91.066"/>
    <polygon fill="#434A4F" points="154.582 108.063 159.582 108.063 159.582 106.063 154.582 106.063"/>
  </g>
</svg>
