<svg xmlns="http://www.w3.org/2000/svg" width="250" height="250" viewBox="0 0 250 250">
  <g fill="none" fill-rule="evenodd">
    <polyline fill="#FACD60" points="173.91 58.908 166.339 58.902 166.341 56.902 173.912 56.908 173.91 58.908"/>
    <polyline fill="#FACD60" points="168.971 171.879 168.897 57.905 170.897 57.904 170.971 171.878 168.971 171.879"/>
    <path fill="#42494E" d="M167.015,172.42 L170.006,178.899 L172.986,172.429 L172.905,51.323 C172.904,49.676 171.563,48.335 169.916,48.333 C169.915,48.333 169.915,48.333 169.914,48.333 C169.117,48.333 168.369,48.643 167.806,49.206 C167.243,49.769 166.933,50.518 166.934,51.314 L167.015,172.42 Z M170.008,183.676 L165.015,172.861 L165.015,172.641 L164.934,51.316 C164.933,49.984 165.451,48.733 166.391,47.791 C167.332,46.851 168.583,46.333 169.914,46.333 C169.915,46.333 169.917,46.333 169.917,46.333 C172.667,46.335 174.904,48.573 174.905,51.322 L174.986,172.866 L170.008,183.676 Z"/>
    <polyline fill="#434A4F" points="158.423 133.707 88.93 133.539 88.934 131.539 158.427 131.707 158.423 133.707"/>
    <polygon fill="#434A4F" points="70.207 133.707 80.831 133.707 80.831 131.707 70.207 131.707"/>
    <polygon fill="#434A4F" points="69.207 138.158 71.207 138.158 71.207 127.255 69.207 127.255"/>
    <polyline fill="#434A4F" points="187.398 185.121 151.349 121.505 146.866 121.505 146.581 120.992 128.292 88.185 130.039 87.211 148.042 119.505 152.515 119.505 184.466 175.89 183.918 170.411 184.855 167.218 136.256 80.078 138.002 79.103 187.009 166.976 185.948 170.6 187.398 185.121"/>
    <polyline fill="#434A4F" points="60.466 185.121 61.917 170.6 60.855 166.977 61.059 166.61 109.765 79.279 111.511 80.253 63.009 167.218 63.947 170.411 63.398 175.89 95.349 119.505 99.824 119.505 117.827 87.211 119.573 88.185 101 121.505 96.515 121.505 60.466 185.121"/>
    <path fill="#434A4F" d="M123.932,61.505 C116.764,61.505 110.932,67.337 110.932,74.505 C110.932,81.674 116.764,87.505 123.932,87.505 C131.1,87.505 136.932,81.674 136.932,74.505 C136.932,67.337 131.1,61.505 123.932,61.505 Z M123.932,89.505 C115.661,89.505 108.932,82.776 108.932,74.505 C108.932,66.234 115.661,59.505 123.932,59.505 C132.204,59.505 138.932,66.234 138.932,74.505 C138.932,82.776 132.204,89.505 123.932,89.505 Z"/>
    <path fill="#E9886C" d="M113.933,74.505 C113.933,80.028 118.41,84.505 123.933,84.505 C129.456,84.505 133.933,80.028 133.933,74.505 C133.932,68.982 129.455,64.505 123.932,64.505 C118.41,64.505 113.933,68.982 113.933,74.505"/>
    <path fill="#434A4F" d="M123.932,79.505 C123.379,79.505 122.932,79.058 122.932,78.505 L122.932,70.505 C122.932,69.953 123.379,69.505 123.932,69.505 C124.485,69.505 124.932,69.953 124.932,70.505 L124.932,78.505 C124.932,79.058 124.485,79.505 123.932,79.505"/>
    <path fill="#434A4F" d="M127.932 75.505L119.932 75.505C119.379 75.505 118.932 75.058 118.932 74.505 118.932 73.953 119.379 73.505 119.932 73.505L127.932 73.505C128.485 73.505 128.932 73.953 128.932 74.505 128.932 75.058 128.485 75.505 127.932 75.505M127.933 60.505L125.933 60.505 125.933 40.503C125.933 39.4 125.036 38.503 123.933 38.503 122.831 38.503 121.933 39.4 121.933 40.503L121.933 60.505 119.933 60.505 119.933 40.503C119.933 38.298 121.727 36.503 123.933 36.503 126.139 36.503 127.933 38.298 127.933 40.503L127.933 60.505"/>
    <polygon fill="#FACD60" points="33 209.496 217.001 209.496 217.001 192.496 33 192.496"/>
    <path fill="#434A4F" d="M30.999,211.497 L219,211.497 L219,190.496 L30.999,190.496 L30.999,211.497 Z M28.999,213.497 L221,213.497 L221,188.496 L28.999,188.496 L28.999,213.497 Z"/>
    <polygon fill="#434A4F" points="64.001 195.496 66.001 195.496 66.001 189.496 64.001 189.496"/>
    <polygon fill="#434A4F" points="76.001 197.497 78.001 197.497 78.001 189.496 76.001 189.496"/>
    <polygon fill="#434A4F" points="88.001 195.496 90.001 195.496 90.001 189.496 88.001 189.496"/>
    <polygon fill="#434A4F" points="100 197.497 102 197.497 102 189.496 100 189.496"/>
    <polygon fill="#434A4F" points="112 195.496 114 195.496 114 189.496 112 189.496"/>
    <polygon fill="#434A4F" points="124 197.497 126 197.497 126 189.496 124 189.496"/>
    <polygon fill="#434A4F" points="136 195.496 138 195.496 138 189.496 136 189.496"/>
    <polygon fill="#434A4F" points="148 197.497 150 197.497 150 189.496 148 189.496"/>
    <polygon fill="#434A4F" points="160 195.496 162 195.496 162 189.496 160 189.496"/>
    <polygon fill="#434A4F" points="172 197.497 174 197.497 174 189.496 172 189.496"/>
    <polygon fill="#434A4F" points="184 195.496 186 195.496 186 189.496 184 189.496"/>
    <polygon fill="#434A4F" points="196 197.497 198 197.497 198 189.496 196 189.496"/>
    <polygon fill="#434A4F" points="208 195.496 210 195.496 210 189.496 208 189.496"/>
    <polygon fill="#434A4F" points="52.001 197.497 54.001 197.497 54.001 189.496 52.001 189.496"/>
    <polygon fill="#434A4F" points="40.001 195.496 42.001 195.496 42.001 189.496 40.001 189.496"/>
    <path fill="#434A4F" d="M209 200.496C207.898 200.496 207 201.393 207 202.496 207 203.599 207.898 204.496 209 204.496 210.103 204.496 211 203.599 211 202.496 211 201.393 210.103 200.496 209 200.496zM209 206.496C206.794 206.496 205 204.701 205 202.496 205 200.29 206.794 198.496 209 198.496 211.207 198.496 213 200.29 213 202.496 213 204.701 211.207 206.496 209 206.496zM91.621 155.128L111.419 174.927 124.148 162.199 104.349 142.4 91.621 155.128zM111.419 177.755L88.793 155.128 104.349 139.572 126.976 162.199 111.419 177.755z"/>
    <polyline fill="#434A4F" points="120.538 180.002 115.082 180.002 111.42 176.341 112.834 174.927 115.91 178.002 119.706 178.002 129.1 168.564 124.148 163.613 125.562 162.199 131.924 168.562 120.538 180.002"/>
    <path fill="#434A4F" d="M124.12,179 C124.12,178.45 124.57,178 125.129,178 C125.68,178 126.129,178.45 126.129,179 C126.129,179.55 125.68,180 125.129,180 C124.57,180 124.12,179.55 124.12,179 Z M128.12,179 C128.12,178.45 128.57,178 129.12,178 C129.68,178 130.12,178.45 130.12,179 C130.12,179.55 129.68,180 129.12,180 C128.57,180 128.12,179.55 128.12,179 Z M132.12,179 C132.12,178.45 132.57,178 133.12,178 C133.669,178 134.12,178.45 134.12,179 C134.12,179.55 133.669,180 133.12,180 C132.57,180 132.12,179.55 132.12,179 Z M136.12,179 C136.12,178.45 136.57,178 137.12,178 C137.669,178 138.12,178.45 138.12,179 C138.12,179.55 137.669,180 137.12,180 C136.57,180 136.12,179.55 136.12,179 Z M140.12,179 C140.12,178.45 140.57,178 141.12,178 C141.68,178 142.12,178.45 142.12,179 C142.12,179.55 141.68,180 141.12,180 C140.57,180 140.12,179.55 140.12,179 Z M144.12,179 C144.12,178.45 144.57,178 145.12,178 C145.669,178 146.12,178.45 146.12,179 C146.12,179.55 145.669,180 145.12,180 C144.57,180 144.12,179.55 144.12,179 Z M148.12,179 C148.12,178.45 148.57,178 149.12,178 C149.669,178 150.12,178.45 150.12,179 C150.12,179.55 149.669,180 149.12,180 C148.57,180 148.12,179.55 148.12,179 Z M152.12,179 C152.12,178.45 152.57,178 153.12,178 C153.68,178 154.12,178.45 154.12,179 C154.12,179.55 153.68,180 153.12,180 C152.57,180 152.12,179.55 152.12,179 Z"/>
    <polyline fill="#75C7D0" points="94.449 155.128 111.42 172.099 121.32 162.199 104.349 145.229 94.449 155.128"/>
    <polyline fill="#DBDBD5" points="92.946 83.867 78.651 77.741 82.94 82.03 80.112 84.858 72.001 76.748 69.248 82.284 77.174 101.477 82.007 91.757 90.118 99.867 92.946 97.039 84.714 88.807 92.946 83.867"/>
    <path fill="#434A4F" d="M56.8,58.744 L67.252,84.053 L71.724,75.057 L80.112,83.444 L81.526,82.03 L73.095,73.599 L80.748,69.007 L56.8,58.744 Z M67.084,88.884 L53.08,54.973 L85.131,68.71 L76.32,73.997 L84.354,82.03 L80.112,86.272 L72.277,78.438 L67.084,88.884 Z"/>
    <polygon fill="#434A4F" points="49.262 114.488 51.262 114.488 51.262 110.488 49.262 110.488"/>
    <polygon fill="#434A4F" points="49.262 124.488 51.262 124.488 51.262 120.488 49.262 120.488"/>
    <polygon fill="#434A4F" points="53.262 118.488 57.262 118.488 57.262 116.488 53.262 116.488"/>
    <polygon fill="#434A4F" points="43.262 118.488 47.262 118.488 47.262 116.488 43.262 116.488"/>
    <polygon fill="#434A4F" points="199.352 134.5 201.352 134.5 201.352 130.5 199.352 130.5"/>
    <polygon fill="#434A4F" points="199.352 144.5 201.352 144.5 201.352 140.5 199.352 140.5"/>
    <polygon fill="#434A4F" points="203.352 138.5 207.352 138.5 207.352 136.5 203.352 136.5"/>
    <polygon fill="#434A4F" points="193.352 138.5 197.352 138.5 197.352 136.5 193.352 136.5"/>
    <polygon fill="#434A4F" points="146.32 52.451 148.32 52.451 148.32 48.451 146.32 48.451"/>
    <polygon fill="#434A4F" points="146.32 62.451 148.32 62.451 148.32 58.451 146.32 58.451"/>
    <polygon fill="#434A4F" points="150.32 56.451 154.32 56.451 154.32 54.451 150.32 54.451"/>
    <polygon fill="#434A4F" points="140.32 56.451 144.32 56.451 144.32 54.451 140.32 54.451"/>
    <path fill="#FACD60" d="M61.428 149.643C61.428 151.3 60.085 152.643 58.428 152.643 56.771 152.643 55.428 151.3 55.428 149.643 55.428 147.986 56.771 146.643 58.428 146.643 60.085 146.643 61.428 147.986 61.428 149.643M131.47 109.619C131.47 111.276 130.127 112.619 128.47 112.619 126.813 112.619 125.47 111.276 125.47 109.619 125.47 107.962 126.813 106.619 128.47 106.619 130.127 106.619 131.47 107.962 131.47 109.619M191.506 119.625C191.506 121.282 190.163 122.625 188.506 122.625 186.849 122.625 185.506 121.282 185.506 119.625 185.506 117.968 186.849 116.625 188.506 116.625 190.163 116.625 191.506 117.968 191.506 119.625"/>
  </g>
</svg>
