<svg xmlns="http://www.w3.org/2000/svg" width="250" height="250" viewBox="0 0 250 250">
  <g fill="none" fill-rule="evenodd">
    <path fill="#434A4F" d="M124.321,55.427 C86.274,55.427 55.321,86.38 55.321,124.427 C55.321,162.474 86.274,193.427 124.321,193.427 C162.368,193.427 193.321,162.474 193.321,124.427 C193.321,86.38 162.368,55.427 124.321,55.427 Z M124.321,195.427 C85.172,195.427 53.321,163.577 53.321,124.427 C53.321,85.278 85.172,53.427 124.321,53.427 C163.471,53.427 195.321,85.278 195.321,124.427 C195.321,163.577 163.471,195.427 124.321,195.427 Z"/>
    <path fill="#434A4F" d="M94.773,195.014 C100.291,195.014 105.673,197.197 109.63,201.145 L111.114,202.626 C118.514,210.008 130.552,210.009 137.953,202.626 L139.438,201.145 C144.167,196.425 150.929,194.231 157.531,195.266 L159.603,195.591 C169.934,197.222 179.669,190.138 181.316,179.816 L181.646,177.746 C182.699,171.147 186.879,165.394 192.828,162.354 L194.695,161.4 C204.003,156.644 207.724,145.194 202.989,135.875 L202.04,134.006 C199.014,128.049 199.014,120.937 202.04,114.98 L202.989,113.111 C207.724,103.793 204.003,92.342 194.695,87.586 L192.828,86.632 C186.879,83.591 182.698,77.838 181.646,71.24 L181.316,69.17 C179.669,58.848 169.922,51.772 159.603,53.394 L157.531,53.72 C150.93,54.755 144.167,52.56 139.438,47.841 L137.953,46.36 C130.554,38.978 118.516,38.976 111.114,46.36 L109.63,47.841 C104.9,52.558 98.137,54.755 91.536,53.72 L89.465,53.394 C79.139,51.77 69.398,58.848 67.751,69.17 L67.421,71.24 C66.369,77.838 62.188,83.591 56.239,86.632 L54.372,87.586 C45.064,92.342 41.344,103.793 46.078,113.111 L47.027,114.98 C50.054,120.937 50.054,128.049 47.027,134.006 L46.078,135.875 C41.344,145.194 45.064,156.644 54.372,161.4 L56.239,162.354 C62.188,165.394 66.368,171.147 67.421,177.746 L67.751,179.816 C69.399,190.139 79.143,197.215 89.465,195.591 L91.536,195.266 C92.614,195.097 93.696,195.014 94.773,195.014 Z M124.534,210.162 C119.162,210.162 113.792,208.122 109.702,204.042 L108.218,202.561 C103.937,198.291 97.813,196.299 91.847,197.243 L89.775,197.568 C78.371,199.348 67.597,191.54 65.776,180.131 L65.446,178.06 C64.494,172.091 60.712,166.885 55.329,164.135 L53.462,163.181 C43.175,157.924 39.062,145.269 44.295,134.968 L45.244,133.099 C47.982,127.711 47.982,121.275 45.244,115.886 L44.295,114.017 C39.062,103.718 43.175,91.062 53.462,85.804 L55.329,84.85 C60.712,82.1 64.494,76.894 65.446,70.925 L65.776,68.855 C67.597,57.447 78.36,49.63 89.775,51.418 L91.847,51.744 C97.817,52.681 103.938,50.694 108.218,46.426 L109.702,44.944 C117.88,36.785 131.188,36.784 139.365,44.944 L140.85,46.426 C145.13,50.694 151.251,52.682 157.221,51.744 L159.292,51.418 C170.694,49.629 181.47,57.447 183.291,68.855 L183.621,70.925 C184.573,76.894 188.355,82.1 193.738,84.85 L195.605,85.804 C205.893,91.062 210.005,103.718 204.772,114.017 L203.823,115.886 C201.085,121.275 201.085,127.711 203.823,133.099 L204.772,134.968 C210.005,145.269 205.893,157.924 195.605,163.181 L193.738,164.135 C188.355,166.885 184.573,172.091 183.621,178.06 L183.291,180.131 C181.47,191.54 170.707,199.348 159.292,197.568 L157.221,197.243 C151.246,196.304 145.13,198.292 140.85,202.561 L139.365,204.042 C135.276,208.121 129.904,210.161 124.534,210.162 Z"/>
    <path fill="#434A4F" d="M125.163,59.433 C124.613,59.423 124.173,58.973 124.183,58.423 C124.183,57.863 124.643,57.423 125.193,57.433 C125.743,57.443 126.183,57.893 126.183,58.443 C126.173,58.993 125.723,59.433 125.183,59.433 C125.173,59.433 125.173,59.433 125.163,59.433 Z M120.183,58.544 C120.153,57.993 120.583,57.523 121.133,57.504 C121.683,57.473 122.153,57.903 122.183,58.453 C122.203,59.004 121.783,59.473 121.223,59.493 L121.223,59.504 C121.213,59.504 121.193,59.504 121.183,59.504 C120.653,59.504 120.203,59.084 120.183,58.544 Z M129.103,59.603 C128.553,59.563 128.133,59.084 128.173,58.533 C128.213,57.973 128.693,57.563 129.243,57.603 C129.793,57.643 130.213,58.123 130.173,58.673 C130.133,59.203 129.693,59.603 129.173,59.603 C129.153,59.603 129.123,59.603 129.103,59.603 Z M116.203,58.913 C116.143,58.363 116.543,57.873 117.093,57.813 C117.643,57.754 118.133,58.153 118.193,58.703 C118.253,59.254 117.853,59.743 117.303,59.803 C117.272,59.803 117.233,59.803 117.203,59.803 C116.693,59.803 116.253,59.423 116.203,58.913 Z M133.022,60.004 L133.013,60.004 C132.473,59.933 132.083,59.423 132.163,58.883 C132.233,58.334 132.733,57.943 133.283,58.023 C133.833,58.093 134.213,58.593 134.143,59.143 C134.073,59.643 133.643,60.013 133.153,60.013 C133.103,60.013 133.063,60.013 133.022,60.004 Z M112.253,59.523 C112.153,58.973 112.522,58.464 113.073,58.363 C113.073,58.363 113.073,58.363 113.063,58.373 C113.613,58.273 114.123,58.643 114.223,59.183 C114.313,59.733 113.943,60.243 113.403,60.343 C113.343,60.353 113.293,60.353 113.233,60.353 C112.753,60.353 112.333,60.004 112.253,59.523 Z M136.903,60.643 C136.363,60.533 136.013,60.013 136.113,59.464 C136.223,58.923 136.743,58.573 137.293,58.683 C137.833,58.783 138.183,59.313 138.073,59.853 C137.983,60.334 137.563,60.663 137.093,60.663 C137.033,60.663 136.973,60.653 136.903,60.643 Z M108.343,60.363 C108.213,59.823 108.553,59.294 109.093,59.163 C109.633,59.044 110.163,59.373 110.293,59.913 C110.413,60.453 110.083,60.993 109.543,61.113 C109.463,61.133 109.393,61.143 109.313,61.143 C108.863,61.143 108.453,60.834 108.343,60.363 Z M140.743,61.523 C140.203,61.383 139.883,60.834 140.022,60.303 C140.163,59.763 140.713,59.443 141.243,59.584 C141.783,59.723 142.103,60.263 141.963,60.803 C141.843,61.254 141.433,61.553 140.993,61.553 C140.913,61.553 140.823,61.544 140.743,61.523 Z M104.493,61.453 C104.333,60.923 104.633,60.363 105.163,60.203 C105.693,60.044 106.253,60.353 106.403,60.873 C106.563,61.403 106.263,61.964 105.733,62.123 C105.643,62.153 105.543,62.163 105.453,62.163 C105.022,62.163 104.623,61.883 104.493,61.453 Z M144.522,62.623 C143.993,62.453 143.703,61.893 143.883,61.363 C144.053,60.843 144.613,60.553 145.143,60.723 C145.663,60.893 145.953,61.464 145.783,61.983 C145.643,62.403 145.253,62.673 144.833,62.673 C144.723,62.673 144.623,62.663 144.522,62.623 Z M100.713,62.763 C100.522,62.243 100.793,61.673 101.313,61.483 C101.833,61.294 102.403,61.563 102.593,62.073 C102.783,62.593 102.522,63.173 102.003,63.363 C101.883,63.403 101.772,63.423 101.653,63.423 C101.253,63.423 100.863,63.173 100.713,62.763 Z M148.233,63.964 C147.713,63.763 147.463,63.183 147.673,62.663 C147.873,62.153 148.453,61.903 148.963,62.103 C149.483,62.313 149.733,62.883 149.522,63.403 C149.373,63.794 148.993,64.033 148.593,64.033 C148.473,64.033 148.353,64.013 148.233,63.964 Z M97.033,64.303 C96.813,63.803 97.043,63.214 97.553,62.993 C98.053,62.773 98.643,62.993 98.863,63.504 C99.083,64.013 98.863,64.603 98.352,64.823 C98.223,64.883 98.083,64.903 97.953,64.903 C97.562,64.903 97.203,64.683 97.033,64.303 Z M151.853,65.523 C151.353,65.294 151.133,64.703 151.363,64.193 C151.603,63.693 152.203,63.483 152.693,63.714 C152.693,63.714 152.693,63.714 152.703,63.714 C153.203,63.953 153.413,64.544 153.183,65.044 C153.013,65.413 152.653,65.623 152.272,65.623 C152.133,65.623 151.983,65.593 151.853,65.523 Z M93.453,66.063 C93.203,65.573 93.393,64.973 93.883,64.723 C94.383,64.473 94.983,64.663 95.233,65.153 C95.483,65.653 95.283,66.254 94.793,66.504 C94.653,66.573 94.493,66.613 94.343,66.613 C93.983,66.613 93.633,66.413 93.453,66.063 Z M155.373,67.303 L155.363,67.303 C154.883,67.044 154.703,66.433 154.973,65.953 C155.233,65.464 155.843,65.283 156.323,65.553 C156.813,65.813 156.983,66.423 156.723,66.903 C156.543,67.243 156.193,67.423 155.843,67.423 C155.683,67.423 155.522,67.393 155.373,67.303 Z M89.983,68.044 C89.703,67.563 89.853,66.953 90.333,66.673 C90.813,66.393 91.423,66.553 91.703,67.033 C91.983,67.504 91.823,68.113 91.353,68.403 C91.193,68.493 91.013,68.533 90.843,68.533 C90.503,68.533 90.163,68.363 89.983,68.044 Z M158.772,69.294 C158.303,69.004 158.163,68.383 158.453,67.913 C158.743,67.453 159.363,67.313 159.833,67.603 C160.293,67.893 160.443,68.513 160.153,68.983 C159.963,69.283 159.633,69.453 159.303,69.453 C159.123,69.453 158.933,69.403 158.772,69.294 Z M86.633,70.233 C86.323,69.773 86.443,69.153 86.903,68.843 C87.363,68.533 87.983,68.653 88.293,69.113 C88.602,69.573 88.483,70.193 88.022,70.493 L88.022,70.504 C87.852,70.613 87.663,70.673 87.463,70.673 C87.143,70.673 86.823,70.513 86.633,70.233 Z M162.043,71.493 L162.043,71.483 C161.593,71.163 161.493,70.544 161.813,70.093 C162.133,69.643 162.753,69.533 163.203,69.863 C163.653,70.183 163.763,70.803 163.443,71.254 C163.243,71.533 162.933,71.673 162.623,71.673 C162.423,71.673 162.223,71.613 162.043,71.493 Z M83.423,72.613 C83.093,72.173 83.173,71.544 83.613,71.214 C84.053,70.873 84.673,70.953 85.013,71.393 C85.353,71.834 85.263,72.464 84.833,72.794 C84.643,72.933 84.433,73.004 84.223,73.004 C83.923,73.004 83.623,72.863 83.423,72.613 Z M165.183,73.873 C164.753,73.523 164.683,72.893 165.033,72.464 C165.383,72.033 166.013,71.973 166.443,72.313 C166.873,72.663 166.933,73.294 166.593,73.723 C166.393,73.973 166.103,74.093 165.813,74.093 C165.593,74.093 165.363,74.023 165.183,73.873 Z M80.363,75.183 C80.003,74.763 80.053,74.133 80.463,73.773 C80.883,73.413 81.513,73.453 81.873,73.873 C82.243,74.294 82.193,74.923 81.772,75.283 C81.583,75.453 81.353,75.533 81.123,75.533 C80.843,75.533 80.563,75.413 80.363,75.183 Z M168.163,76.443 C167.753,76.073 167.733,75.433 168.103,75.033 C168.473,74.623 169.103,74.593 169.513,74.964 C169.923,75.334 169.953,75.973 169.583,76.373 C169.383,76.593 169.113,76.703 168.843,76.703 C168.603,76.703 168.363,76.613 168.163,76.443 Z M77.463,77.933 C77.073,77.544 77.083,76.903 77.483,76.523 C77.873,76.133 78.503,76.143 78.893,76.533 C79.283,76.933 79.272,77.563 78.883,77.953 C78.683,78.143 78.433,78.233 78.183,78.233 C77.923,78.233 77.663,78.133 77.463,77.933 Z M170.993,79.183 C170.603,78.794 170.623,78.153 171.013,77.773 C171.413,77.383 172.043,77.393 172.423,77.794 C172.423,77.794 172.423,77.794 172.433,77.794 C172.813,78.193 172.803,78.823 172.403,79.203 C172.213,79.393 171.963,79.493 171.713,79.493 C171.453,79.493 171.193,79.383 170.993,79.183 Z M74.733,80.863 C74.323,80.483 74.293,79.853 74.663,79.443 C75.033,79.033 75.663,79.004 76.073,79.373 C76.483,79.743 76.513,80.373 76.143,80.783 L76.143,80.794 C75.953,81.004 75.683,81.113 75.403,81.113 C75.163,81.113 74.923,81.033 74.733,80.863 Z M173.643,82.093 C173.293,81.673 173.333,81.044 173.753,80.683 C174.173,80.323 174.803,80.373 175.163,80.794 C175.522,81.203 175.473,81.843 175.053,82.203 C174.873,82.363 174.633,82.443 174.403,82.443 C174.123,82.443 173.843,82.323 173.643,82.093 Z M72.183,83.943 C71.753,83.593 71.683,82.964 72.033,82.533 C72.373,82.103 73.003,82.033 73.433,82.383 C73.863,82.723 73.933,83.353 73.593,83.783 C73.393,84.033 73.103,84.163 72.812,84.163 C72.593,84.163 72.373,84.084 72.183,83.943 Z M176.123,85.153 C175.793,84.714 175.873,84.084 176.313,83.754 C176.753,83.423 177.383,83.504 177.713,83.943 C178.043,84.383 177.963,85.013 177.522,85.343 C177.343,85.483 177.133,85.553 176.923,85.553 C176.613,85.553 176.313,85.413 176.123,85.153 Z M69.823,87.173 C69.373,86.853 69.263,86.223 69.583,85.773 C69.903,85.323 70.523,85.223 70.983,85.533 C71.433,85.853 71.533,86.483 71.223,86.933 C71.022,87.203 70.713,87.353 70.403,87.353 C70.203,87.353 70.003,87.294 69.823,87.173 Z M178.403,88.363 C178.103,87.903 178.223,87.283 178.683,86.973 C179.143,86.663 179.763,86.794 180.073,87.254 C180.373,87.703 180.253,88.323 179.793,88.633 C179.623,88.754 179.433,88.803 179.233,88.803 C178.913,88.803 178.603,88.653 178.403,88.363 Z M67.663,90.544 C67.193,90.243 67.053,89.633 67.343,89.163 C67.633,88.693 68.243,88.544 68.713,88.834 C69.193,89.133 69.333,89.743 69.043,90.214 C68.852,90.523 68.522,90.693 68.193,90.693 C68.013,90.693 67.823,90.643 67.663,90.544 Z M180.493,91.693 C180.213,91.223 180.373,90.603 180.853,90.334 C181.323,90.053 181.943,90.214 182.223,90.693 C182.493,91.163 182.333,91.773 181.863,92.053 C181.703,92.153 181.522,92.193 181.353,92.193 C181.013,92.193 180.673,92.013 180.493,91.693 Z M65.713,94.033 C65.223,93.773 65.043,93.163 65.303,92.673 C65.573,92.193 66.173,92.013 66.663,92.273 C67.143,92.533 67.323,93.143 67.062,93.623 C66.883,93.964 66.543,94.153 66.183,94.153 C66.023,94.153 65.863,94.113 65.713,94.033 Z M182.373,95.153 C182.123,94.653 182.323,94.053 182.813,93.803 C183.303,93.563 183.903,93.754 184.153,94.254 C184.403,94.743 184.203,95.343 183.713,95.593 C183.573,95.663 183.413,95.703 183.263,95.703 C182.903,95.703 182.553,95.504 182.373,95.153 Z M63.973,97.643 C63.473,97.413 63.253,96.813 63.483,96.313 C63.483,96.313 63.483,96.313 63.493,96.313 C63.723,95.813 64.313,95.593 64.813,95.823 C65.312,96.053 65.533,96.653 65.303,97.153 C65.133,97.513 64.772,97.733 64.393,97.733 C64.253,97.733 64.113,97.703 63.973,97.643 Z M184.043,98.714 L184.033,98.714 C183.813,98.203 184.053,97.613 184.553,97.403 C185.063,97.183 185.653,97.413 185.873,97.923 C186.093,98.433 185.853,99.013 185.353,99.233 C185.223,99.294 185.083,99.313 184.953,99.313 C184.563,99.313 184.203,99.093 184.043,98.714 Z M62.463,101.343 C61.943,101.143 61.693,100.563 61.893,100.053 C62.093,99.533 62.673,99.283 63.183,99.483 C63.703,99.683 63.953,100.263 63.753,100.783 C63.602,101.174 63.223,101.413 62.823,101.413 C62.703,101.413 62.583,101.393 62.463,101.343 Z M185.483,102.373 L185.483,102.363 C185.293,101.843 185.563,101.273 186.083,101.084 C186.603,100.903 187.173,101.174 187.363,101.693 C187.553,102.203 187.283,102.783 186.763,102.973 C186.653,103.013 186.533,103.033 186.423,103.033 C186.013,103.033 185.633,102.773 185.483,102.373 Z M61.173,105.143 C60.643,104.973 60.363,104.403 60.533,103.883 C60.693,103.353 61.263,103.063 61.783,103.233 C62.313,103.403 62.603,103.973 62.433,104.493 C62.293,104.924 61.903,105.193 61.483,105.193 C61.383,105.193 61.272,105.174 61.173,105.143 Z M186.703,106.113 C186.543,105.584 186.853,105.023 187.383,104.873 C187.913,104.714 188.463,105.013 188.623,105.553 C188.783,106.073 188.473,106.633 187.943,106.794 C187.853,106.813 187.763,106.834 187.663,106.834 C187.233,106.834 186.833,106.544 186.703,106.113 Z M60.123,109.004 C59.593,108.863 59.263,108.313 59.403,107.783 C59.543,107.243 60.083,106.924 60.623,107.063 C61.153,107.193 61.483,107.743 61.343,108.273 L61.343,108.283 C61.223,108.733 60.823,109.033 60.373,109.033 C60.293,109.033 60.213,109.023 60.123,109.004 Z M187.693,109.924 C187.573,109.383 187.913,108.843 188.453,108.723 C188.983,108.603 189.522,108.933 189.643,109.473 C189.772,110.013 189.433,110.553 188.893,110.674 C188.823,110.693 188.743,110.703 188.673,110.703 C188.213,110.703 187.803,110.383 187.693,109.924 Z M59.313,112.913 C58.772,112.813 58.413,112.283 58.522,111.743 C58.623,111.203 59.143,110.843 59.693,110.953 C60.233,111.053 60.593,111.584 60.483,112.123 C60.393,112.603 59.973,112.933 59.503,112.933 C59.443,112.933 59.373,112.924 59.313,112.913 Z M188.453,113.783 C188.363,113.243 188.733,112.723 189.272,112.633 C189.823,112.544 190.343,112.913 190.423,113.464 C190.513,114.004 190.143,114.513 189.603,114.603 C189.553,114.613 189.493,114.623 189.443,114.623 C188.963,114.623 188.533,114.273 188.453,113.783 Z M58.743,116.873 C58.193,116.803 57.803,116.303 57.873,115.754 C57.943,115.203 58.453,114.813 58.993,114.883 C59.543,114.953 59.933,115.464 59.863,116.004 C59.793,116.513 59.363,116.883 58.873,116.883 C58.823,116.883 58.783,116.873 58.743,116.873 Z M188.973,117.683 C188.923,117.133 189.323,116.643 189.873,116.593 C190.413,116.533 190.903,116.933 190.963,117.483 C191.022,118.033 190.623,118.523 190.073,118.584 C190.033,118.584 190.003,118.584 189.973,118.584 C189.463,118.584 189.022,118.203 188.973,117.683 Z M58.413,120.853 C57.852,120.813 57.443,120.343 57.483,119.794 C57.513,119.243 57.993,118.823 58.543,118.863 C59.093,118.893 59.513,119.373 59.473,119.924 C59.433,120.453 58.993,120.863 58.473,120.863 C58.453,120.863 58.433,120.863 58.413,120.853 Z M189.263,121.613 C189.233,121.063 189.663,120.593 190.213,120.573 C190.763,120.544 191.233,120.973 191.263,121.533 C191.263,121.533 191.263,121.533 191.263,121.523 C191.283,122.084 190.853,122.544 190.303,122.573 C190.293,122.573 190.272,122.573 190.253,122.573 C189.723,122.573 189.283,122.153 189.263,121.613 Z M58.312,124.853 C57.763,124.853 57.323,124.393 57.323,123.843 C57.323,123.294 57.783,122.853 58.333,122.853 C58.883,122.853 59.323,123.313 59.323,123.863 C59.313,124.413 58.873,124.853 58.323,124.853 C58.312,124.853 58.312,124.853 58.312,124.853 Z M189.323,124.424 C189.323,123.873 189.772,123.424 190.323,123.424 C190.873,123.424 191.323,123.873 191.323,124.424 C191.323,124.983 190.873,125.424 190.323,125.424 C189.763,125.424 189.323,124.983 189.323,124.424 Z M57.413,127.903 C57.383,127.353 57.803,126.883 58.363,126.853 C58.903,126.823 59.383,127.243 59.403,127.803 C59.433,128.353 59.013,128.823 58.463,128.853 C58.443,128.853 58.423,128.853 58.413,128.853 C57.883,128.853 57.433,128.433 57.413,127.903 Z M190.143,129.424 C189.593,129.393 189.173,128.913 189.203,128.363 C189.233,127.813 189.713,127.393 190.263,127.424 C190.813,127.453 191.233,127.933 191.203,128.483 C191.173,129.013 190.733,129.424 190.203,129.424 C190.183,129.424 190.163,129.424 190.143,129.424 Z M57.733,131.943 C57.683,131.403 58.073,130.903 58.623,130.843 C59.173,130.783 59.663,131.174 59.723,131.723 C59.783,132.273 59.393,132.763 58.843,132.834 C58.803,132.834 58.763,132.834 58.733,132.834 C58.223,132.834 57.793,132.453 57.733,131.943 Z M189.723,133.393 C189.173,133.334 188.783,132.834 188.853,132.283 C188.913,131.733 189.413,131.343 189.963,131.413 C190.513,131.473 190.903,131.973 190.833,132.523 C190.772,133.033 190.343,133.403 189.843,133.403 C189.803,133.403 189.763,133.403 189.723,133.393 Z M58.312,135.964 C58.213,135.424 58.583,134.903 59.123,134.813 C59.663,134.714 60.183,135.073 60.283,135.623 C60.373,136.163 60.013,136.683 59.463,136.773 C59.413,136.783 59.352,136.794 59.293,136.794 C58.812,136.794 58.393,136.453 58.312,135.964 Z M189.063,137.343 C188.522,137.243 188.163,136.723 188.263,136.174 C188.363,135.633 188.883,135.273 189.423,135.373 C189.963,135.473 190.333,135.993 190.233,136.533 C190.233,136.533 190.233,136.533 190.223,136.533 C190.143,137.023 189.723,137.353 189.243,137.353 C189.183,137.353 189.123,137.353 189.063,137.343 Z M59.123,139.943 C59.003,139.403 59.333,138.863 59.873,138.733 C60.403,138.613 60.943,138.943 61.073,139.483 C61.203,140.013 60.863,140.553 60.333,140.683 C60.253,140.703 60.173,140.714 60.102,140.714 C59.643,140.714 59.233,140.403 59.123,139.943 Z M188.163,141.233 C187.633,141.103 187.303,140.563 187.433,140.023 C187.573,139.493 188.113,139.163 188.643,139.294 C189.183,139.424 189.513,139.973 189.383,140.504 C189.263,140.964 188.863,141.263 188.413,141.263 C188.333,141.263 188.253,141.254 188.163,141.233 Z M60.183,143.863 C60.022,143.334 60.323,142.773 60.852,142.613 C61.383,142.453 61.933,142.754 62.093,143.283 C62.253,143.813 61.953,144.363 61.433,144.523 C61.333,144.553 61.233,144.573 61.143,144.573 C60.713,144.573 60.312,144.294 60.183,143.863 Z M187.033,145.073 C186.513,144.903 186.213,144.343 186.373,143.823 C186.543,143.294 187.103,142.993 187.633,143.163 C188.163,143.323 188.453,143.883 188.293,144.413 C188.153,144.843 187.763,145.113 187.333,145.113 C187.233,145.113 187.133,145.103 187.033,145.073 Z M61.473,147.703 C61.283,147.193 61.543,146.613 62.062,146.424 C62.583,146.233 63.163,146.493 63.353,147.013 C63.543,147.523 63.283,148.103 62.763,148.294 C62.643,148.343 62.533,148.363 62.413,148.363 C62.013,148.363 61.623,148.113 61.473,147.703 Z M185.673,148.834 C185.153,148.643 184.893,148.063 185.093,147.544 C185.283,147.033 185.863,146.773 186.373,146.973 C186.893,147.163 187.153,147.743 186.953,148.254 C186.803,148.653 186.423,148.903 186.022,148.903 C185.903,148.903 185.783,148.883 185.673,148.834 Z M63.003,151.464 C62.772,150.953 63.003,150.363 63.513,150.143 C64.013,149.924 64.602,150.153 64.833,150.653 C65.053,151.163 64.823,151.754 64.313,151.973 C64.183,152.033 64.053,152.053 63.913,152.053 C63.533,152.053 63.163,151.834 63.003,151.464 Z M184.073,152.513 C183.573,152.283 183.343,151.693 183.573,151.193 C183.803,150.683 184.393,150.464 184.893,150.693 C185.403,150.913 185.623,151.513 185.393,152.013 C185.233,152.383 184.863,152.603 184.483,152.603 C184.343,152.603 184.203,152.573 184.073,152.513 Z M64.753,155.113 C64.753,155.113 64.753,155.113 64.743,155.113 C64.493,154.623 64.683,154.023 65.183,153.773 C65.663,153.513 66.272,153.703 66.522,154.203 C66.773,154.693 66.583,155.294 66.093,155.544 C65.953,155.623 65.793,155.663 65.633,155.663 C65.272,155.663 64.923,155.464 64.753,155.113 Z M182.253,156.073 C181.772,155.823 181.583,155.214 181.843,154.723 C182.093,154.233 182.703,154.053 183.193,154.313 C183.683,154.563 183.863,155.174 183.613,155.663 C183.613,155.663 183.613,155.663 183.603,155.663 C183.433,156.004 183.083,156.193 182.723,156.193 C182.563,156.193 182.403,156.153 182.253,156.073 Z M66.713,158.663 C66.433,158.193 66.593,157.573 67.062,157.294 C67.543,157.013 68.153,157.163 68.433,157.643 C68.713,158.113 68.563,158.733 68.083,159.013 C67.923,159.103 67.753,159.153 67.573,159.153 C67.233,159.153 66.903,158.973 66.713,158.663 Z M180.233,159.533 C179.753,159.243 179.613,158.623 179.893,158.153 C180.183,157.683 180.793,157.533 181.272,157.823 C181.743,158.113 181.893,158.723 181.603,159.193 C181.413,159.504 181.083,159.674 180.753,159.674 C180.573,159.674 180.393,159.623 180.233,159.533 Z M68.893,162.084 C68.583,161.623 68.703,161.004 69.163,160.693 C69.613,160.383 70.243,160.504 70.553,160.953 C70.863,161.413 70.743,162.033 70.283,162.343 C70.113,162.464 69.913,162.523 69.723,162.523 C69.403,162.523 69.093,162.363 68.893,162.084 Z M177.993,162.853 C177.543,162.533 177.433,161.913 177.743,161.464 C178.063,161.004 178.683,160.893 179.143,161.203 C179.593,161.523 179.703,162.143 179.393,162.603 C179.193,162.883 178.883,163.033 178.563,163.033 C178.373,163.033 178.173,162.973 177.993,162.853 Z M71.283,165.363 C70.943,164.924 71.022,164.303 71.463,163.964 C71.893,163.623 72.522,163.703 72.863,164.143 C73.203,164.584 73.123,165.203 72.683,165.544 C72.503,165.683 72.283,165.754 72.073,165.754 C71.772,165.754 71.473,165.623 71.283,165.363 Z M175.563,166.033 C175.133,165.683 175.063,165.063 175.403,164.623 C175.743,164.193 176.373,164.113 176.803,164.453 C177.243,164.803 177.313,165.433 176.973,165.863 C176.772,166.113 176.483,166.243 176.183,166.243 C175.973,166.243 175.753,166.174 175.563,166.033 Z M73.853,168.504 C73.493,168.084 73.533,167.453 73.953,167.093 C74.363,166.723 75.003,166.773 75.363,167.183 C75.723,167.603 75.683,168.233 75.272,168.593 C75.083,168.763 74.843,168.843 74.613,168.843 C74.333,168.843 74.053,168.723 73.853,168.504 Z M172.953,169.053 C172.543,168.693 172.503,168.053 172.873,167.643 C173.233,167.233 173.873,167.193 174.283,167.563 C174.693,167.933 174.733,168.563 174.363,168.973 C174.163,169.193 173.893,169.313 173.613,169.313 C173.383,169.313 173.143,169.223 172.953,169.053 Z M76.623,171.473 C76.233,171.084 76.233,170.443 76.633,170.063 C77.022,169.674 77.653,169.674 78.043,170.073 C78.433,170.464 78.423,171.093 78.033,171.483 C77.833,171.674 77.583,171.773 77.333,171.773 C77.073,171.773 76.813,171.674 76.623,171.473 Z M170.163,171.924 C169.772,171.533 169.772,170.893 170.163,170.504 C170.553,170.113 171.193,170.123 171.583,170.513 C171.963,170.903 171.963,171.533 171.573,171.924 C171.383,172.113 171.123,172.214 170.873,172.214 C170.613,172.214 170.353,172.113 170.163,171.924 Z M79.553,174.273 C79.143,173.903 79.113,173.273 79.473,172.863 C79.853,172.453 80.483,172.424 80.893,172.794 C81.303,173.153 81.333,173.794 80.963,174.203 C80.772,174.424 80.493,174.533 80.223,174.533 C79.983,174.533 79.743,174.453 79.553,174.273 Z M167.203,174.613 C166.833,174.193 166.873,173.563 167.293,173.203 C167.703,172.834 168.333,172.873 168.703,173.283 C169.063,173.703 169.022,174.334 168.613,174.703 C168.423,174.863 168.183,174.953 167.953,174.953 C167.673,174.953 167.393,174.834 167.203,174.613 Z M82.653,176.893 C82.653,176.893 82.653,176.893 82.653,176.903 C82.223,176.553 82.153,175.924 82.493,175.493 C82.833,175.063 83.463,174.993 83.903,175.334 C84.333,175.674 84.403,176.303 84.062,176.743 C83.863,176.983 83.573,177.113 83.272,177.113 C83.053,177.113 82.843,177.044 82.653,176.893 Z M164.083,177.113 C163.743,176.683 163.823,176.053 164.263,175.714 C164.693,175.373 165.323,175.453 165.663,175.883 C166.003,176.323 165.923,176.953 165.493,177.294 C165.303,177.433 165.093,177.504 164.873,177.504 C164.573,177.504 164.283,177.363 164.083,177.113 Z M85.913,179.334 C85.453,179.013 85.353,178.383 85.663,177.933 C85.983,177.483 86.603,177.373 87.053,177.693 C87.513,178.004 87.623,178.633 87.303,179.084 C87.102,179.363 86.793,179.513 86.483,179.513 C86.283,179.513 86.083,179.453 85.913,179.334 Z M160.823,179.433 C160.513,178.973 160.633,178.353 161.083,178.033 C161.543,177.723 162.163,177.843 162.473,178.294 C162.783,178.754 162.673,179.373 162.223,179.693 C162.043,179.803 161.843,179.863 161.653,179.863 C161.333,179.863 161.022,179.714 160.823,179.433 Z M89.303,181.563 C89.303,181.563 89.303,181.563 89.303,181.553 C88.833,181.263 88.683,180.653 88.973,180.183 C89.263,179.714 89.883,179.563 90.353,179.853 C90.823,180.143 90.963,180.754 90.683,181.233 C90.493,181.533 90.163,181.703 89.823,181.703 C89.643,181.703 89.463,181.663 89.303,181.563 Z M157.433,181.544 C157.153,181.063 157.303,180.453 157.772,180.163 C158.253,179.883 158.863,180.033 159.153,180.504 C159.433,180.983 159.283,181.593 158.803,181.883 C158.643,181.973 158.473,182.023 158.293,182.023 C157.953,182.023 157.623,181.853 157.433,181.544 Z M92.833,183.584 C92.833,183.584 92.833,183.584 92.833,183.573 C92.343,183.313 92.153,182.714 92.413,182.223 C92.673,181.733 93.283,181.553 93.772,181.813 C94.253,182.073 94.443,182.674 94.183,183.163 C94.003,183.504 93.653,183.693 93.293,183.693 C93.143,183.693 92.973,183.663 92.833,183.584 Z M153.923,183.443 C153.663,182.953 153.853,182.353 154.343,182.093 L154.353,182.093 C154.833,181.834 155.443,182.023 155.693,182.513 C155.953,183.004 155.763,183.613 155.272,183.863 C155.123,183.943 154.963,183.973 154.813,183.973 C154.453,183.973 154.103,183.783 153.923,183.443 Z M96.473,185.383 C95.963,185.153 95.743,184.553 95.983,184.053 C96.203,183.553 96.803,183.334 97.303,183.563 C97.803,183.794 98.022,184.383 97.793,184.893 C97.623,185.254 97.263,185.473 96.883,185.473 C96.743,185.473 96.603,185.443 96.473,185.383 Z M150.303,185.123 C150.073,184.623 150.303,184.033 150.803,183.803 C151.313,183.584 151.903,183.803 152.123,184.313 C152.353,184.813 152.123,185.403 151.623,185.633 C151.493,185.693 151.353,185.714 151.213,185.714 C150.833,185.714 150.463,185.493 150.303,185.123 Z M100.213,186.964 C99.703,186.763 99.443,186.183 99.643,185.663 C99.843,185.153 100.423,184.893 100.933,185.093 C101.453,185.294 101.703,185.873 101.513,186.383 C101.353,186.783 100.973,187.023 100.573,187.023 C100.453,187.023 100.333,187.004 100.213,186.964 Z M146.583,186.584 C146.393,186.073 146.653,185.493 147.173,185.294 L147.173,185.303 C147.683,185.103 148.263,185.363 148.453,185.883 C148.653,186.403 148.393,186.973 147.873,187.174 C147.763,187.214 147.643,187.233 147.522,187.233 C147.113,187.233 146.733,186.983 146.583,186.584 Z M104.053,188.303 C103.522,188.133 103.233,187.573 103.403,187.053 C103.573,186.523 104.133,186.233 104.663,186.403 L104.653,186.403 C105.183,186.563 105.473,187.123 105.313,187.653 C105.173,188.084 104.783,188.353 104.353,188.353 C104.253,188.353 104.153,188.334 104.053,188.303 Z M142.783,187.813 C142.623,187.283 142.913,186.733 143.443,186.573 L143.443,186.563 C143.973,186.403 144.533,186.703 144.693,187.233 C144.853,187.754 144.563,188.313 144.033,188.483 C143.933,188.513 143.833,188.523 143.733,188.523 C143.303,188.523 142.913,188.243 142.783,187.813 Z M107.953,189.413 C107.423,189.283 107.093,188.733 107.233,188.203 C107.363,187.663 107.913,187.343 108.443,187.473 C108.983,187.613 109.303,188.153 109.173,188.683 C109.053,189.143 108.643,189.443 108.203,189.443 C108.123,189.443 108.043,189.433 107.953,189.413 Z M138.913,188.813 C138.783,188.283 139.113,187.743 139.643,187.613 C140.183,187.483 140.723,187.803 140.853,188.343 C140.983,188.883 140.653,189.424 140.113,189.553 C140.033,189.573 139.953,189.584 139.883,189.584 C139.433,189.584 139.022,189.273 138.913,188.813 Z M111.923,190.283 C111.373,190.183 111.022,189.653 111.123,189.113 C111.223,188.573 111.753,188.214 112.293,188.313 C112.833,188.413 113.193,188.943 113.093,189.483 C113.003,189.964 112.583,190.303 112.103,190.303 C112.043,190.303 111.983,190.294 111.923,190.283 Z M134.983,189.573 C134.883,189.033 135.253,188.513 135.793,188.413 C136.343,188.323 136.863,188.683 136.953,189.223 C137.053,189.773 136.683,190.294 136.143,190.383 C136.083,190.393 136.022,190.403 135.973,190.403 C135.493,190.403 135.073,190.063 134.983,189.573 Z M115.933,190.903 C115.383,190.834 114.993,190.334 115.063,189.794 C115.133,189.243 115.633,188.853 116.183,188.924 C116.723,188.993 117.113,189.493 117.053,190.033 C116.983,190.544 116.553,190.913 116.053,190.913 C116.013,190.913 115.973,190.913 115.933,190.903 Z M131.022,190.103 C130.953,189.553 131.353,189.053 131.893,188.993 C132.443,188.924 132.943,189.323 133.003,189.863 C133.073,190.413 132.673,190.913 132.133,190.973 C132.093,190.983 132.053,190.983 132.013,190.983 C131.513,190.983 131.083,190.603 131.022,190.103 Z M119.973,191.283 C119.423,191.254 119.003,190.773 119.043,190.223 C119.073,189.674 119.553,189.254 120.103,189.294 C120.653,189.323 121.073,189.803 121.033,190.353 C121.003,190.883 120.563,191.294 120.033,191.294 C120.013,191.294 119.993,191.294 119.973,191.283 Z M127.033,190.383 C127.003,189.823 127.423,189.353 127.973,189.323 C128.522,189.294 129.003,189.723 129.033,190.273 C129.063,190.823 128.633,191.294 128.083,191.323 C128.063,191.323 128.053,191.323 128.033,191.323 C127.503,191.323 127.063,190.913 127.033,190.383 Z M124.033,191.424 C124.033,191.424 124.033,191.424 124.022,191.424 C123.473,191.424 123.033,190.973 123.033,190.424 C123.033,189.863 123.483,189.424 124.033,189.424 C124.593,189.433 125.033,189.873 125.033,190.433 C125.033,190.983 124.583,191.424 124.033,191.424 Z"/>
    <path fill="#E9886C" d="M124.322,197.427 C84.069,197.427 51.322,164.679 51.322,124.427 C51.322,84.175 84.069,51.427 124.322,51.427 C164.574,51.427 197.322,84.175 197.322,124.427 C197.322,164.679 164.574,197.427 124.322,197.427 Z M200.257,134.911 C196.942,128.388 196.942,120.598 200.257,114.075 L201.206,112.205 C205.443,103.867 202.114,93.622 193.786,89.367 L191.919,88.413 C185.403,85.083 180.824,78.781 179.671,71.555 L179.341,69.486 C177.867,60.249 169.152,53.916 159.913,55.37 L157.842,55.695 C150.614,56.831 143.205,54.425 138.025,49.257 L136.541,47.776 C129.92,41.17 119.147,41.17 112.527,47.776 L111.042,49.257 C105.862,54.425 98.454,56.837 91.226,55.695 L89.154,55.37 C79.916,53.92 71.2,60.25 69.727,69.485 L69.396,71.555 C68.243,78.781 63.665,85.083 57.149,88.413 L55.282,89.367 C46.953,93.622 43.625,103.867 47.861,112.205 L48.811,114.075 C52.125,120.598 52.125,128.388 48.811,134.911 L47.861,136.781 C43.624,145.118 46.953,155.364 55.282,159.619 L57.149,160.573 C63.665,163.903 68.243,170.205 69.396,177.43 L69.727,179.501 C71.2,188.736 79.916,195.067 89.154,193.616 L91.225,193.291 C92.406,193.105 93.591,193.014 94.77,193.014 C100.814,193.014 106.708,195.405 111.042,199.73 L112.527,201.211 C119.147,207.816 129.92,207.815 136.541,201.211 L138.025,199.73 C143.205,194.562 150.613,192.151 157.842,193.291 L159.913,193.616 C169.153,195.062 177.867,188.737 179.341,179.501 L179.671,177.43 C180.824,170.205 185.403,163.903 191.919,160.573 L193.786,159.619 C202.114,155.364 205.443,145.118 201.207,136.781 L200.257,134.911 Z"/>
    <path fill="#434A4F" d="M119.069,71.057 L118.144,62.104 C118.855,62.031 119.571,61.97 120.29,61.921 L120.907,70.899 C120.292,70.942 119.68,70.994 119.069,71.057 Z M131.964,71.26 C131.357,71.178 130.747,71.106 130.134,71.045 L131.026,62.089 C131.745,62.161 132.459,62.245 133.169,62.34 L131.964,71.26 Z M108.249,73.31 L105.515,64.736 C106.197,64.518 106.886,64.311 107.579,64.117 L110.015,72.781 C109.423,72.948 108.834,73.124 108.249,73.31 Z M142.705,73.857 C142.126,73.653 141.542,73.457 140.954,73.271 L143.665,64.689 C144.351,64.906 145.03,65.133 145.705,65.373 L142.705,73.857 Z M98.118,77.735 L93.683,69.903 C94.31,69.548 94.943,69.205 95.583,68.872 L99.739,76.854 C99.193,77.138 98.653,77.431 98.118,77.735 Z M152.676,78.594 C152.152,78.276 151.624,77.966 151.088,77.666 L155.494,69.818 C156.12,70.17 156.74,70.532 157.354,70.905 L152.676,78.594 Z M89.105,84.132 L83.162,77.373 C83.704,76.896 84.255,76.43 84.813,75.974 L90.507,82.945 C90.032,83.333 89.565,83.728 89.105,84.132 Z M161.49,85.275 C161.039,84.855 160.58,84.442 160.115,84.036 L166.029,77.253 C166.57,77.723 167.102,78.203 167.625,78.691 L161.49,85.275 Z M81.567,92.231 L74.386,86.805 C74.818,86.233 75.262,85.669 75.713,85.112 L82.703,90.78 C82.316,91.257 81.937,91.741 81.567,92.231 Z M168.768,93.602 C168.412,93.101 168.05,92.606 167.678,92.118 L174.834,86.661 C175.271,87.233 175.697,87.814 176.113,88.403 L168.768,93.602 Z M75.837,101.678 L67.702,97.829 C68.01,97.178 68.327,96.537 68.656,95.9 L76.652,100.031 C76.372,100.574 76.1,101.124 75.837,101.678 Z M174.201,103.234 C173.955,102.669 173.699,102.108 173.435,101.552 L181.56,97.681 C181.869,98.331 182.168,98.985 182.455,99.646 L174.201,103.234 Z M72.16,112.097 L63.408,109.996 C63.577,109.294 63.757,108.598 63.949,107.907 L72.621,110.313 C72.458,110.903 72.304,111.499 72.16,112.097 Z M177.545,113.772 C177.42,113.168 177.284,112.567 177.14,111.97 L185.884,109.843 C186.054,110.54 186.211,111.24 186.357,111.944 L177.545,113.772 Z M70.692,123.051 L61.696,122.776 C61.719,122.056 61.753,121.34 61.8,120.626 L70.78,121.208 C70.741,121.82 70.711,122.435 70.692,123.051 Z M187.665,124.771 L178.665,124.771 C178.665,124.153 178.655,123.538 178.635,122.924 L187.629,122.62 C187.653,123.335 187.665,124.051 187.665,124.771 Z M187.124,133.05 L178.202,131.875 C178.282,131.266 178.352,130.656 178.41,130.042 L187.369,130.909 C187.299,131.627 187.218,132.34 187.124,133.05 Z M62.598,135.634 C62.475,134.927 62.364,134.217 62.266,133.504 L71.18,132.267 C71.265,132.878 71.359,133.484 71.465,134.088 L62.598,135.634 Z M184.14,145.597 L175.646,142.625 C175.848,142.045 176.041,141.46 176.226,140.871 L184.815,143.554 C184.602,144.241 184.377,144.922 184.14,145.597 Z M66.107,148.053 C65.842,147.384 65.587,146.711 65.344,146.032 L73.816,142.997 C74.024,143.578 74.242,144.154 74.471,144.727 L66.107,148.053 Z M178.648,157.266 L170.943,152.614 C171.261,152.09 171.568,151.56 171.866,151.024 L179.729,155.403 C179.379,156.031 179.019,156.652 178.648,157.266 Z M72.088,159.491 C71.691,158.892 71.306,158.287 70.93,157.674 L78.6,152.965 C78.923,153.492 79.254,154.011 79.594,154.526 L72.088,159.491 Z M170.902,167.562 L164.293,161.455 C164.711,161.002 165.123,160.543 165.526,160.075 L172.335,165.962 C171.865,166.504 171.389,167.037 170.902,167.562 Z M80.259,169.46 C79.752,168.955 79.254,168.443 78.764,167.923 L85.316,161.753 C85.74,162.203 86.172,162.646 86.61,163.083 L80.259,169.46 Z M161.222,176.086 L155.991,168.761 C156.493,168.403 156.989,168.037 157.479,167.661 L162.952,174.805 C162.382,175.242 161.806,175.669 161.222,176.086 Z M90.282,177.569 C89.684,177.177 89.092,176.777 88.507,176.368 L93.671,168.997 C94.176,169.351 94.687,169.697 95.204,170.034 L90.282,177.569 Z M150.004,182.466 L146.378,174.23 C146.945,173.98 147.506,173.722 148.063,173.455 L151.961,181.566 C151.314,181.878 150.662,182.177 150.004,182.466 Z M101.745,183.471 C101.076,183.211 100.414,182.938 99.757,182.655 L103.319,174.389 C103.881,174.632 104.447,174.865 105.019,175.089 L101.745,183.471 Z M137.713,186.418 L135.857,177.611 C136.459,177.484 137.057,177.347 137.652,177.2 L139.816,185.936 C139.119,186.109 138.418,186.269 137.713,186.418 Z M114.176,186.902 C113.468,186.782 112.766,186.652 112.066,186.51 L113.852,177.69 C114.455,177.812 115.063,177.924 115.674,178.027 L114.176,186.902 Z M124.89,187.771 L124.864,178.771 C125.481,178.769 126.097,178.757 126.711,178.734 L127.041,187.728 C126.327,187.755 125.61,187.769 124.89,187.771 Z"/>
    <path fill="#E9886C" d="M129.809,175.927 C129.809,175.927 127.309,142.671 126.56,139.673 C127.181,139.673 127.684,139.17 127.684,138.549 L127.684,135.738 L124.827,132.364 L122.064,135.738 L122.064,138.549 C122.064,139.17 122.567,139.673 123.188,139.673 C122.439,142.671 119.939,175.927 119.939,175.927 L129.809,175.927"/>
    <path fill="#DDDED9" d="M116.229,123.938 L116.229,126.394 L124.733,131.171 L133.165,126.534 L133.24,122.039 L133.24,118.25 C133.563,117.932 133.893,117.591 134.189,117.247 C134.088,117.335 133.991,117.424 133.908,117.513 C132.726,118.784 130.933,120.118 129.72,121.154 C128.76,121.974 127.546,122.427 126.283,122.442 L122.634,122.442 C121.372,122.427 120.158,121.974 119.198,121.154 C118.039,120.165 116.354,118.905 115.175,117.687 C115.139,117.65 115.098,117.614 115.059,117.577 C115.413,117.954 115.818,118.335 116.249,118.715 C116.24,118.72 116.229,118.724 116.229,118.735 L116.229,123.938"/>
    <path fill="#434A4F" d="M116.229,127.323 C115.676,127.323 115.229,126.876 115.229,126.323 L115.229,118.735 C115.229,118.182 115.676,117.735 116.229,117.735 C116.781,117.735 117.229,118.182 117.229,118.735 L117.229,126.323 C117.229,126.876 116.781,127.323 116.229,127.323"/>
    <path fill="#434A4F" d="M133.185 127.183C132.632 127.183 132.185 126.736 132.185 126.183L132.185 117.82 132.482 117.526C132.852 117.162 133.832 116.194 134.073 115.55L137.635 108.279 141.453 106.369 142.286 102.236C142.275 102.036 142.193 101.849 142.053 101.704 141.895 101.542 141.684 101.453 141.458 101.453L139.49 101.453 139.694 100.281C139.997 98.543 140.15 96.983 140.15 95.644L140.151 94.878C140.166 92.748 139.699 90.6 138.801 88.667 138.713 88.471 138.628 88.291 138.539 88.111 137.521 86.059 136.027 84.219 134.221 82.795 131.486 80.639 128.197 79.488 124.71 79.464 120.653 79.414 116.795 81.042 113.831 83.988 110.794 87.004 109.052 91.154 109.052 95.375L109.052 95.644C109.052 97.011 109.184 98.579 109.444 100.303L109.618 101.453 107.773 101.453C107.32 101.453 106.945 101.793 106.889 102.23L108.075 106.381 111.42 108.312 114.817 115.496C115.246 116.637 117.226 118.248 118.672 119.423 119.093 119.765 119.494 120.091 119.848 120.393 120.625 121.058 121.618 121.43 122.646 121.442L126.292 121.442C126.845 121.442 127.292 121.889 127.292 122.442 127.292 122.995 126.845 123.442 126.292 123.442L122.634 123.442C121.128 123.424 119.682 122.882 118.549 121.914 118.207 121.623 117.818 121.306 117.41 120.975 115.606 119.508 113.562 117.846 112.976 116.272L109.879 109.732 106.374 107.709 104.882 102.344C104.882 100.907 105.937 99.711 107.313 99.489 107.14 98.096 107.052 96.807 107.052 95.644L107.052 95.375C107.052 90.626 109.009 85.958 112.421 82.569 115.738 79.274 120.063 77.464 124.606 77.464 124.646 77.464 124.685 77.464 124.724 77.464 128.66 77.491 132.372 78.791 135.459 81.224 137.497 82.832 139.183 84.907 140.332 87.225 140.433 87.429 140.529 87.632 140.621 87.838 141.637 90.024 142.168 92.467 142.151 94.892L142.15 95.644C142.15 96.792 142.049 98.078 141.847 99.479 142.469 99.564 143.041 99.851 143.486 100.31 144.023 100.863 144.308 101.591 144.286 102.362L144.267 102.531 143.221 107.72 139.133 109.765 135.907 116.342C135.634 117.084 134.939 117.886 134.185 118.652L134.185 126.183C134.185 126.736 133.737 127.183 133.185 127.183M88.338 159.344C88.337 159.344 88.337 159.344 88.336 159.344 87.783 159.343 87.337 158.894 87.338 158.342L87.374 140.61C87.374 136.71 90.241 135.616 92.771 134.65L110.129 128.735 113.259 122.935 115.975 122.935C116.527 122.935 116.975 123.382 116.975 123.935 116.975 124.488 116.527 124.935 115.975 124.935L114.452 124.935 111.516 130.376 93.45 136.531C90.627 137.609 89.374 138.326 89.374 140.612L89.338 158.346C89.337 158.898 88.89 159.344 88.338 159.344"/>
    <path fill="#434A4F" d="M124.874,132.388 L115.746,127.276 C115.264,127.007 115.092,126.397 115.362,125.916 C115.63,125.433 116.24,125.259 116.723,125.532 L124.874,130.095 L132.697,125.716 C133.179,125.445 133.789,125.618 134.058,126.099 C134.328,126.581 134.156,127.19 133.674,127.46 L124.874,132.388"/>
    <path fill="#434A4F" d="M161.409 159.344C161.408 159.344 161.408 159.344 161.407 159.344 160.855 159.343 160.408 158.895 160.409 158.342L160.44 140.678C160.44 138.34 159.166 137.627 156.258 136.557L138.214 130.432 134.858 124.935 133.306 124.935C132.753 124.935 132.306 124.488 132.306 123.935 132.306 123.382 132.753 122.935 133.306 122.935L135.981 122.935 139.544 128.772 156.924 134.672C159.395 135.581 162.44 136.701 162.44 140.68L162.409 158.346C162.408 158.898 161.961 159.344 161.409 159.344M129.933 138.987C129.659 138.987 129.387 138.876 129.189 138.656L124.874 133.861 120.559 138.656C120.19 139.067 119.559 139.1 119.146 138.73 118.736 138.361 118.703 137.728 119.072 137.318L124.874 130.871 130.676 137.318C131.045 137.728 131.012 138.361 130.602 138.73 130.41 138.902 130.171 138.987 129.933 138.987"/>
    <polygon fill="#434A4F" points="159.021 106.159 161.021 106.159 161.021 102.159 159.021 102.159"/>
    <polygon fill="#434A4F" points="159.021 116.159 161.021 116.159 161.021 112.159 159.021 112.159"/>
    <polygon fill="#434A4F" points="163.021 110.159 167.021 110.159 167.021 108.159 163.021 108.159"/>
    <polygon fill="#434A4F" points="153.021 110.159 157.021 110.159 157.021 108.159 153.021 108.159"/>
    <polygon fill="#434A4F" points="34.946 71.138 36.946 71.138 36.946 67.138 34.946 67.138"/>
    <polygon fill="#434A4F" points="34.946 81.138 36.946 81.138 36.946 77.138 34.946 77.138"/>
    <polygon fill="#434A4F" points="38.946 75.138 42.946 75.138 42.946 73.138 38.946 73.138"/>
    <polygon fill="#434A4F" points="28.946 75.138 32.946 75.138 32.946 73.138 28.946 73.138"/>
    <polygon fill="#434A4F" points="213.054 187.208 215.054 187.208 215.054 183.208 213.054 183.208"/>
    <polygon fill="#434A4F" points="213.054 197.208 215.054 197.208 215.054 193.208 213.054 193.208"/>
    <polygon fill="#434A4F" points="217.054 191.208 221.054 191.208 221.054 189.208 217.054 189.208"/>
    <polygon fill="#434A4F" points="207.054 191.208 211.054 191.208 211.054 189.208 207.054 189.208"/>
    <path fill="#E9886C" d="M53.013 177.176C53.013 178.28 52.117 179.176 51.013 179.176 49.908 179.176 49.013 178.28 49.013 177.176 49.013 176.071 49.908 175.176 51.013 175.176 52.117 175.176 53.013 176.071 53.013 177.176M149.013 209.176C149.013 210.28 148.117 211.176 147.013 211.176 145.908 211.176 145.013 210.28 145.013 209.176 145.013 208.071 145.908 207.176 147.013 207.176 148.117 207.176 149.013 208.071 149.013 209.176M189.013 60.176C189.013 60.728 188.565 61.176 188.013 61.176 187.46 61.176 187.013 60.728 187.013 60.176 187.013 59.623 187.46 59.176 188.013 59.176 188.565 59.176 189.013 59.623 189.013 60.176"/>
  </g>
</svg>
