<svg xmlns="http://www.w3.org/2000/svg" width="250" height="250" viewBox="0 0 250 250">
  <g fill="none" fill-rule="evenodd">
    <path fill="#42494E" d="M122.003 156.974C122.411 156.635 122.76 156.239 122.968 155.718 123.181 155.184 123.543 154.741 124.003 154.485L124.003 154 82.003 154 82.003 154.169C83.044 154.179 83.652 154.848 83.84 155.634 83.975 155.739 84.085 155.865 84.183 156L122.003 156 122.003 156.974M120.487 158L87.1 158C87.908 158.583 88.657 159.269 89.426 160L117.669 160C118.619 159.35 119.521 158.626 120.487 158M55.063 106.833C54.614 106.833 54.248 106.707 53.955 106.506L54.003 127.002 56.003 126.998 55.956 106.633C55.703 106.757 55.408 106.833 55.063 106.833M57.797 38.493L57.942 100.771C58.19 100.653 58.478 100.583 58.813 100.583 59.273 100.583 59.647 100.715 59.942 100.924L59.793 36.479 53.793 36.519 53.943 100.987C54.208 100.842 54.522 100.75 54.896 100.75 55.316 100.75 55.66 100.864 55.943 101.041L55.797 38.506 57.797 38.493M58.813 107.083C58.485 107.083 58.2 107.018 57.956 106.905L58.003 127.002 60.003 126.998 59.956 106.734C59.659 106.949 59.279 107.083 58.813 107.083M151.563 107C151.185 107 150.87 106.907 150.603 106.76L150.734 127.006 152.734 126.994 152.602 106.712C152.321 106.888 151.979 107 151.563 107M152.141 35.816L146.141 35.856 146.561 100.35C147.016 100.382 147.381 100.548 147.659 100.79 147.914 100.662 148.213 100.583 148.563 100.583L148.154 37.842 150.154 37.829 150.564 100.813C150.853 100.622 151.21 100.5 151.646 100.5 152.003 100.5 152.305 100.582 152.563 100.714L152.141 35.816M147.48 107C147.142 107 146.852 106.929 146.603 106.81L146.734 127.006 148.734 126.994 148.602 106.663C148.307 106.87 147.936 107 147.48 107"/>
    <polyline fill="#42494E" points="104.645 170.037 60.529 136.001 57.255 136.001 103.031 171.318 104.645 170.037"/>
    <path fill="#42494E" d="M156.165,209.786 L107.83,172.494 L106.219,173.778 L154.943,211.369 C155.379,211.707 155.46,212.336 155.123,212.773 C154.785,213.21 154.155,213.29 153.719,212.954 L104.555,175.102 L102.943,176.386 L152.498,214.538 C153.042,214.958 153.687,215.161 154.326,215.161 C155.225,215.161 156.115,214.76 156.706,213.996 C157.716,212.687 157.474,210.799 156.165,209.786"/>
    <polyline fill="#42494E" points="101.362 172.644 53.767 136.001 50.488 136.001 99.748 173.926 101.362 172.644"/>
    <path fill="#42494E" d="M53.922,215.876 C53.808,215.876 53.692,215.87 53.577,215.856 C52.78,215.766 52.066,215.37 51.567,214.742 C50.539,213.448 50.756,211.558 52.051,210.529 L145.336,136.443 L146.58,138.009 L53.295,212.095 C53.086,212.261 52.954,212.499 52.924,212.764 C52.894,213.028 52.968,213.29 53.134,213.498 C53.3,213.707 53.537,213.839 53.803,213.869 C54.071,213.898 54.329,213.824 54.538,213.658 L151.813,136.25 L153.984,137.016 L55.784,215.223 C55.248,215.65 54.597,215.876 53.922,215.876"/>
    <path fill="#FACD60" d="M49.176,74.165 C87.442,80.645 119.218,80.42 157.599,73.396 L157.421,46.323 C119.118,53.235 87.191,53.461 48.998,47.092 L49.176,74.165"/>
    <path fill="#42494E" d="M47.187,75.853 C86.992,82.76 119.689,82.529 159.609,75.057 L159.405,43.926 C119.513,51.355 86.757,51.588 46.983,44.721 L47.187,75.853 Z M101.412,82.856 C83.558,82.856 65.655,81.126 46.02,77.679 L45.198,77.535 L44.967,42.338 L46.148,42.546 C86.595,49.647 119.64,49.414 160.212,41.74 L161.39,41.517 L161.621,76.713 L160.801,76.868 C139.672,80.865 120.568,82.856 101.412,82.856 Z"/>
    <path fill="#FACD60" d="M63.003,130.336 L63.003,134.128 C90.644,137.751 115.518,137.63 143.003,133.769 L143.003,129.958 C115.513,133.825 90.64,133.952 63.003,130.336"/>
    <path fill="#42494E" d="M63.003,129.328 L63.003,131.345 C76.359,133.091 89.065,133.979 101.741,133.979 C115.261,133.979 128.77,132.965 143.003,130.966 L143.003,128.948 C115.416,132.845 90.619,132.957 63.003,129.328"/>
    <path fill="#42494E" d="M63.003 133.121L63.003 135.138C76.388 136.891 89.118 137.782 101.813 137.782 115.311 137.782 128.794 136.771 143.003 134.778L143.003 132.76C115.419 136.65 90.633 136.757 63.003 133.121M48.003 106L66.003 106 66.003 102 48.003 102 48.003 106zM46.003 108L68.003 108 68.003 100 46.003 100 46.003 108zM140.003 106L158.003 106 158.003 102 140.003 102 140.003 106zM138.003 108L160.003 108 160.003 100 138.003 100 138.003 108z"/>
    <path fill="#42494E" d="M46.003 135L62.003 135 62.003 129 46.003 129 46.003 135zM44.003 137L64.003 137 64.003 127 44.003 127 44.003 137zM144.003 136L162.003 136 162.003 128 144.003 128 144.003 136zM142.003 138L164.003 138 164.003 126 142.003 126 142.003 138z"/>
    <polyline fill="#E9886C" points="169.592 210.999 208.403 210.999 193.494 128.999 184.501 128.999 169.592 210.999"/>
    <path fill="#42494E" d="M167.195,213 L210.799,213 L195.162,127 L182.832,127 L167.195,213 Z M213.195,215 L164.799,215 L181.162,125 L196.832,125 L213.195,215 Z"/>
    <path fill="#42494E" d="M170.679,189.302 L162.078,187.451 C159.382,186.967 156.993,185.421 155.385,183.106 C153.778,180.792 153.169,177.991 153.668,175.217 L156.428,159.922 C157.46,154.199 162.95,150.381 168.682,151.414 L177.38,153.285 L176.96,155.24 L168.294,153.376 C163.691,152.548 159.234,155.639 158.397,160.277 L155.637,175.572 C155.232,177.82 155.726,180.09 157.027,181.965 C158.331,183.841 160.262,185.093 162.465,185.489 L171.099,187.347 L170.679,189.302"/>
    <path fill="#42494E" d="M171.521,185.392 L162.855,183.527 C161.165,183.223 159.668,182.261 158.671,180.824 C157.673,179.388 157.295,177.649 157.605,175.928 L160.364,160.632 C161.005,157.08 164.397,154.708 167.904,155.337 L176.538,157.195 L176.118,159.15 L167.518,157.299 C165.115,156.869 162.777,158.52 162.333,160.987 L159.573,176.283 C159.358,177.478 159.62,178.686 160.314,179.683 C161.006,180.682 162.046,181.35 163.242,181.566 L171.941,183.437 L171.521,185.392"/>
    <polygon fill="#42494E" points="179.997 135 197.997 135 197.997 133 179.997 133"/>
    <path fill="#42494E" d="M169.999,208 C169.999,207.45 170.449,207 170.999,207 C171.549,207 171.999,207.45 171.999,208 C171.999,208.55 171.549,209 170.999,209 C170.449,209 169.999,208.55 169.999,208 Z M173.999,208 C173.999,207.45 174.44,207 174.999,207 C175.549,207 175.999,207.45 175.999,208 C175.999,208.55 175.549,209 174.999,209 C174.44,209 173.999,208.55 173.999,208 Z M177.999,208 C177.999,207.45 178.449,207 178.999,207 C179.549,207 179.999,207.45 179.999,208 C179.999,208.55 179.549,209 178.999,209 C178.449,209 177.999,208.55 177.999,208 Z M181.999,208 C181.999,207.45 182.449,207 182.999,207 C183.549,207 183.999,207.45 183.999,208 C183.999,208.55 183.549,209 182.999,209 C182.449,209 181.999,208.55 181.999,208 Z M185.999,208 C185.999,207.45 186.449,207 186.999,207 C187.549,207 187.999,207.45 187.999,208 C187.999,208.55 187.549,209 186.999,209 C186.449,209 185.999,208.55 185.999,208 Z M189.999,208 C189.999,207.45 190.44,207 190.999,207 C191.549,207 191.999,207.45 191.999,208 C191.999,208.55 191.549,209 190.999,209 C190.44,209 189.999,208.55 189.999,208 Z M193.999,208 C193.999,207.45 194.44,207 194.999,207 C195.549,207 195.999,207.45 195.999,208 C195.999,208.55 195.549,209 194.999,209 C194.44,209 193.999,208.55 193.999,208 Z M197.999,208 C197.999,207.45 198.44,207 198.999,207 C199.549,207 199.999,207.45 199.999,208 C199.999,208.55 199.549,209 198.999,209 C198.44,209 197.999,208.55 197.999,208 Z M201.999,208 C201.999,207.45 202.449,207 202.999,207 C203.549,207 203.999,207.45 203.999,208 C203.999,208.55 203.549,209 202.999,209 C202.449,209 201.999,208.55 201.999,208 Z M205.999,208 C205.999,207.45 206.449,207 206.999,207 C207.549,207 207.999,207.45 207.999,208 C207.999,208.55 207.549,209 206.999,209 C206.449,209 205.999,208.55 205.999,208 Z"/>
    <path fill="#E9886C" d="M184 91C184 92.105 183.104 93 182 93 180.895 93 180 92.105 180 91 180 89.895 180.895 89 182 89 183.104 89 184 89.895 184 91M166 64C166 64.552 165.552 65 165 65 164.448 65 164 64.552 164 64 164 63.448 164.448 63 165 63 165.552 63 166 63.448 166 64M216 166C216 165.448 216.448 165 217 165 217.552 165 218 165.448 218 166 218 166.552 217.552 167 217 167 216.448 167 216 166.552 216 166M58 161C58 162.105 57.104 163 56 163 54.895 163 54 162.105 54 161 54 159.895 54.895 159 56 159 57.104 159 58 159.895 58 161M98 198C98 197.448 98.448 197 99 197 99.552 197 100 197.448 100 198 100 198.552 99.552 199 99 199 98.448 199 98 198.552 98 198"/>
    <polygon fill="#434A4F" points="170 33 172 33 172 29 170 29"/>
    <polygon fill="#434A4F" points="170 43 172 43 172 39 170 39"/>
    <polygon fill="#434A4F" points="174 37 178 37 178 35 174 35"/>
    <polygon fill="#434A4F" points="164 37 168 37 168 35 164 35"/>
    <polygon fill="#434A4F" points="126 211 128 211 128 207 126 207"/>
    <polygon fill="#434A4F" points="126 221 128 221 128 217 126 217"/>
    <polygon fill="#434A4F" points="130 215 134 215 134 213 130 213"/>
    <polygon fill="#434A4F" points="120 215 124 215 124 213 120 213"/>
    <polygon fill="#434A4F" points="38 163 40 163 40 159 38 159"/>
    <polygon fill="#434A4F" points="38 173 40 173 40 169 38 169"/>
    <polygon fill="#434A4F" points="42 167 46 167 46 165 42 165"/>
    <polygon fill="#434A4F" points="32 167 36 167 36 165 32 165"/>
  </g>
</svg>
