<svg xmlns="http://www.w3.org/2000/svg" width="250" height="250" viewBox="0 0 250 250">
  <g fill="none" fill-rule="evenodd">
    <path fill="#DBDBD5" d="M114.823 61.922C114.49 62.882 114.171 63.83 113.874 64.772 112.482 69.183 111.355 73.712 110.509 78.276 108.358 89.869 106.677 105.197 105.504 123.864L112.999 123.864C113.473 112.638 114.071 102.629 114.786 93.904 114.975 91.596 115.172 89.374 115.377 87.249 115.687 84.049 116.014 81.052 116.36 78.276 116.928 73.712 117.685 69.183 118.62 64.772 118.819 63.83 119.034 62.882 119.258 61.922L114.823 61.922M135.031 88.811C135.253 89.658 135.384 90.542 135.384 91.457 135.384 97.221 130.697 101.909 124.936 101.909 122.195 101.909 119.705 100.84 117.839 99.109 119.016 103.591 123.09 106.912 127.938 106.912 133.699 106.912 138.386 102.224 138.386 96.46 138.386 93.439 137.089 90.721 135.031 88.811"/>
    <path fill="#E9886C" d="M89.176 171.088C91.065 167.519 94.081 163.217 98.38 160.985L99.1 134.68C96.884 137.594 94.502 141.563 93.058 146.472 90.803 154.143 89.712 164.366 89.176 171.088M117.673 54.555L117.476 55.014C117.351 55.308 117.226 55.622 117.101 55.922L132.624 55.922C132.51 55.649 132.397 55.364 132.283 55.096L132.008 54.455C131.754 53.866 131.5 53.291 131.246 52.732L131.091 52.385C130.794 51.737 130.495 51.107 130.199 50.494L129.962 50.009C129.707 49.487 129.456 48.986 129.208 48.501L129.054 48.2C128.761 47.632 128.473 47.088 128.189 46.563L127.998 46.214C127.755 45.771 127.518 45.345 127.286 44.936L127.137 44.674C126.869 44.206 126.606 43.757 126.351 43.33L126.207 43.093C125.988 42.729 125.779 42.387 125.576 42.062L125.439 41.842C125.238 41.522 125.046 41.221 124.862 40.937 124.673 41.228 124.478 41.534 124.275 41.856L124.169 42.026C123.949 42.38 123.725 42.746 123.492 43.132L123.385 43.309C123.122 43.749 122.851 44.212 122.572 44.699L122.468 44.883C122.214 45.329 121.957 45.79 121.695 46.27L121.552 46.531C121.257 47.076 120.956 47.644 120.651 48.237L120.568 48.399C120.291 48.94 120.01 49.503 119.726 50.083L119.551 50.441C119.24 51.084 118.925 51.748 118.608 52.441L115.825 51.316 118.554 52.56C118.261 53.205 117.967 53.872 117.673 54.555"/>
    <path fill="#DBDBD5" d="M98.587 90.417C98.31 92.384 98.818 94.344 100.016 95.937 100.496 96.574 101.066 97.117 101.7 97.562 102.218 92.87 102.78 88.496 103.389 84.469 102.717 84.719 102.076 85.067 101.486 85.511 99.894 86.709 98.864 88.452 98.587 90.417M124.85 160.999C124.846 160.999 124.843 160.999 124.839 160.999 121.832 161.002 119.161 162.446 117.512 164.961L116.971 165.786C117.394 169.08 118.035 172.14 118.879 174.761L130.761 174.761C131.612 172.12 132.257 169.034 132.68 165.71L132.176 164.945C130.523 162.437 127.853 160.999 124.85 160.999"/>
    <path fill="#E9886C" d="M156.643,146.472 C155.2,141.563 152.812,137.589 150.594,134.672 L151.376,161.009 C155.651,163.25 158.65,167.537 160.53,171.095 C159.994,164.367 158.903,154.154 156.643,146.472"/>
    <path fill="#DBDBD5" d="M151.089,90.237 C150.637,87.515 148.75,85.387 146.332,84.484 C146.939,88.503 147.502,92.858 148.019,97.548 C148.696,97.07 149.3,96.484 149.796,95.789 C150.956,94.168 151.415,92.196 151.089,90.237"/>
    <path fill="#E9886C" d="M105.234,129.864 L104.326,163.018 L104.326,174.761 L104.704,174.761 C105.996,171.42 108.189,166.828 111.444,163.271 L112.494,161.67 C115.231,157.498 119.843,155.004 124.833,154.999 C129.791,154.991 134.44,157.477 137.186,161.643 L138.201,163.183 C141.652,166.918 143.88,171.682 145.066,174.761 L145.433,174.761 L145.433,163.046 L144.448,129.864 L105.234,129.864"/>
    <path fill="#42494E" d="M124.168,36.645 L124.476,36.87 L124.405,36.776 L124.168,36.645 Z M124.746,37.067 L124.853,37.145 L124.933,37.065 L124.828,37.007 L124.746,37.067 Z M160.853,176.761 L162.927,176.761 C162.92,176.65 162.913,176.533 162.905,176.409 C162.597,171.468 161.658,156.432 158.562,145.908 C155.457,135.348 148.191,128.843 146.767,127.646 L146.437,127.37 L146.188,123.317 C146.149,122.671 146.107,122.02 146.064,121.361 L146.007,120.547 C144.835,103.212 143.211,88.867 141.182,77.911 C140.322,73.269 139.175,68.66 137.772,64.214 L138.693,63.811 L137.719,64.05 C137.218,62.468 136.682,60.904 136.08,59.268 L135.894,58.761 C135.653,58.116 135.41,57.48 135.166,56.859 L135.025,56.499 C134.726,55.748 134.426,55.025 134.125,54.315 L133.845,53.663 C133.585,53.061 133.326,52.476 133.067,51.905 L132.91,51.555 C132.606,50.891 132.302,50.249 132,49.624 L131.756,49.124 C131.498,48.597 131.241,48.085 130.988,47.59 L130.832,47.284 C130.532,46.702 130.238,46.147 129.948,45.612 L129.753,45.257 C129.505,44.801 129.262,44.367 129.024,43.948 L128.874,43.681 C128.598,43.2 128.329,42.741 128.068,42.304 L127.917,42.056 C127.696,41.688 127.48,41.336 127.272,41.003 L127.132,40.778 C126.892,40.395 126.664,40.039 126.446,39.706 L127.189,39.015 L126.353,39.564 C126.164,39.277 125.985,39.009 125.816,38.76 L125.696,38.582 C125.513,38.314 125.34,38.064 125.183,37.843 L124.861,37.395 L124.584,37.779 C124.383,38.063 124.208,38.316 124.021,38.59 L123.919,38.741 C123.736,39.011 123.55,39.29 123.352,39.591 L122.445,39.149 L123.283,39.696 C123.061,40.036 122.827,40.402 122.582,40.792 L122.468,40.975 C122.247,41.329 122.017,41.705 121.779,42.101 L121.672,42.277 C121.399,42.733 121.122,43.207 120.836,43.706 L120.772,43.818 C120.471,44.349 120.208,44.821 119.94,45.311 L119.793,45.58 C119.492,46.135 119.186,46.714 118.873,47.32 L118.819,47.426 C118.505,48.04 118.218,48.613 117.929,49.204 L117.751,49.567 C117.433,50.226 117.112,50.903 116.79,51.609 L115.825,51.315 L116.735,51.729 C116.436,52.387 116.136,53.067 115.836,53.763 L115.636,54.229 C115.314,54.987 114.993,55.761 114.674,56.563 C114.364,57.344 114.057,58.149 113.754,58.969 L113.644,59.267 C113.024,60.953 112.476,62.557 111.966,64.17 C110.55,68.661 109.403,73.269 108.542,77.911 C106.256,90.237 104.497,106.726 103.313,126.922 L103.289,127.354 L102.957,127.631 C101.53,128.824 94.255,135.315 91.139,145.908 C88.055,156.402 87.112,171.43 86.803,176.368 C86.794,176.507 86.786,176.638 86.778,176.761 L88.849,176.761 C89.809,174.045 93.661,164.47 101.012,162.032 L102.327,161.596 L102.327,176.761 L106.095,176.761 C107.255,173.492 109.521,168.21 113.122,164.388 L114.604,162.816 L114.843,164.963 C115.338,169.394 116.237,173.454 117.453,176.761 L132.187,176.761 C133.41,173.434 134.313,169.345 134.806,164.883 L135.042,162.746 L136.525,164.304 C140.469,168.45 142.804,174.292 143.668,176.761 L147.433,176.761 L147.433,161.604 L148.753,162.051 C156.064,164.521 159.896,174.051 160.853,176.761 Z M142.263,178.834 L142.004,178.082 C141.464,176.436 139.664,171.433 136.507,167.355 C135.921,171.397 134.999,175.085 133.808,178.126 L133.559,178.761 L116.081,178.761 L115.832,178.126 C114.65,175.11 113.733,171.454 113.147,167.45 C110.383,171.066 108.637,175.473 107.786,177.99 C107.576,178.611 107.117,178.824 106.719,178.802 L106.04,178.761 L100.327,178.761 L100.327,164.476 C93.77,167.76 90.558,177.947 90.524,178.056 L90.306,178.761 L84.612,178.761 L84.71,177.671 C84.733,177.423 84.764,176.933 84.807,176.243 C85.12,171.25 86.072,156.054 89.22,145.344 C92.304,134.86 99.273,128.184 101.342,126.38 C102.53,106.295 104.291,89.866 106.575,77.547 C107.451,72.825 108.618,68.137 110.044,63.613 C110.437,62.371 110.843,61.159 111.281,59.922 L111.276,59.922 L111.879,58.272 C112.187,57.44 112.5,56.62 112.813,55.828 C113.14,55.007 113.468,54.219 113.795,53.448 L113.999,52.972 C114.305,52.263 114.61,51.57 114.915,50.901 L114.97,50.778 C115.299,50.058 115.626,49.367 115.952,48.695 L116.132,48.326 C116.427,47.723 116.719,47.139 117.008,46.575 L117.094,46.405 C117.414,45.785 117.728,45.193 118.036,44.624 L118.182,44.357 C118.458,43.853 118.727,43.37 118.989,42.908 L119.101,42.711 C119.393,42.202 119.676,41.717 119.952,41.256 L120.047,41.1 C120.309,40.664 120.545,40.279 120.772,39.914 L120.888,39.728 C121.141,39.327 121.38,38.951 121.608,38.603 L121.681,38.491 C121.885,38.181 122.077,37.894 122.259,37.625 L122.375,37.456 C122.564,37.178 122.745,36.916 122.908,36.685 L124.755,34.234 L125.702,35.181 L126.336,36.021 C126.485,36.225 126.616,36.406 126.76,36.609 L126.823,36.697 C126.979,36.917 127.158,37.176 127.349,37.456 L127.475,37.642 C127.646,37.894 127.83,38.169 128.024,38.466 L128.122,38.614 C128.344,38.955 128.58,39.321 128.825,39.712 L128.969,39.944 C129.183,40.286 129.403,40.646 129.631,41.024 L129.783,41.275 C130.052,41.726 130.326,42.194 130.61,42.689 L130.764,42.962 C131.007,43.389 131.255,43.833 131.507,44.295 L131.706,44.658 C132.002,45.206 132.303,45.773 132.608,46.365 L132.768,46.676 C133.027,47.186 133.289,47.707 133.551,48.244 L133.801,48.755 C134.108,49.391 134.419,50.045 134.73,50.726 L134.89,51.081 C135.152,51.66 135.417,52.258 135.68,52.869 L135.965,53.533 C136.272,54.258 136.579,54.994 136.882,55.757 L137.025,56.123 C137.286,56.787 137.544,57.462 137.801,58.151 L138.458,59.922 L138.443,59.922 C138.864,61.11 139.254,62.273 139.625,63.444 L139.681,63.614 C141.107,68.139 142.274,72.827 143.149,77.547 C145.156,88.381 146.767,102.484 147.938,119.48 L148.004,120.412 C148.069,121.352 148.129,122.279 148.186,123.191 L148.382,126.398 C150.447,128.204 157.407,134.891 160.481,145.343 C163.641,156.083 164.589,171.288 164.901,176.284 C164.943,176.954 164.973,177.429 164.994,177.673 L165.091,178.761 L159.396,178.761 L159.178,178.056 C159.144,177.948 155.941,167.813 149.433,164.503 L149.433,178.761 L143.04,178.772 L142.263,178.834 Z"/>
    <polyline fill="#42494E" points="147.434 163.028 146.39 127.864 103.289 127.864 102.326 163.008 100.327 162.954 101.342 125.864 148.332 125.864 149.433 162.968 147.434 163.028"/>
    <polygon fill="#42494E" points="112.706 59.922 137.025 59.922 137.025 57.922 112.706 57.922"/>
    <path fill="#42494E" d="M124.936 82.009C119.725 82.009 115.484 86.248 115.484 91.457 115.484 96.669 119.725 100.909 124.936 100.909 130.146 100.909 134.384 96.669 134.384 91.457 134.384 86.248 130.146 82.009 124.936 82.009zM124.936 102.909C118.622 102.909 113.484 97.772 113.484 91.457 113.484 85.145 118.622 80.009 124.936 80.009 131.249 80.009 136.384 85.145 136.384 91.457 136.384 97.772 131.249 102.909 124.936 102.909zM114.686 165.623L113.014 164.526 114.167 162.768C116.533 159.16 120.521 157.003 124.835 156.999 124.84 156.999 124.845 156.999 124.849 156.999 129.158 156.999 133.145 159.146 135.516 162.744L136.635 164.443 134.965 165.543 133.846 163.844C131.846 160.81 128.483 158.999 124.849 158.999 124.845 158.999 124.841 158.999 124.837 158.999 121.199 159.003 117.834 160.822 115.839 163.864L114.686 165.623M104.366 102.797C101.342 102.371 98.662 100.789 96.821 98.343 94.979 95.896 94.2 92.884 94.626 89.859 95.053 86.835 96.635 84.156 99.081 82.315 101.526 80.474 104.537 79.694 107.563 80.121L107.284 82.102C104.792 81.75 102.303 82.393 100.283 83.913 98.264 85.433 96.958 87.644 96.607 90.138 96.255 92.634 96.898 95.121 98.419 97.14 99.938 99.159 102.15 100.465 104.646 100.816L104.366 102.797M145.616 102.754L145.288 100.782C147.774 100.369 149.953 99.009 151.423 96.953 152.894 94.897 153.476 92.395 153.063 89.909 152.208 84.77 147.326 81.284 142.188 82.138L141.86 80.165C148.091 79.129 154 83.354 155.035 89.581 155.536 92.594 154.831 95.626 153.05 98.116 151.269 100.607 148.629 102.254 145.616 102.754"/>
    <path fill="#DBDBD5" d="M124.936,95.767 C121.366,95.767 118.378,93.243 117.655,89.887 C117.545,90.394 117.484,90.918 117.484,91.457 C117.484,95.566 120.827,98.909 124.936,98.909 C129.043,98.909 132.384,95.566 132.384,91.457 C132.384,90.918 132.323,90.394 132.214,89.887 C131.49,93.243 128.504,95.767 124.936,95.767"/>
    <path fill="#42494E" d="M97.999 184.767C96.896 184.767 95.999 185.664 95.999 186.767 95.999 187.87 96.896 188.767 97.999 188.767 99.102 188.767 99.999 187.87 99.999 186.767 99.999 185.664 99.102 184.767 97.999 184.767zM97.999 190.767C95.794 190.767 93.999 188.972 93.999 186.767 93.999 184.561 95.794 182.767 97.999 182.767 100.205 182.767 101.999 184.561 101.999 186.767 101.999 188.972 100.205 190.767 97.999 190.767zM106.666 208.683L104.848 207.85 105.264 206.94C107.54 201.975 112.538 198.767 117.998 198.767L119.998 198.767 119.998 200.767 117.998 200.767C113.317 200.767 109.033 203.517 107.083 207.773L106.666 208.683"/>
    <path fill="#42494E" d="M72.999,215.766 C67.907,215.766 63.125,213.511 59.881,209.58 C59.799,209.48 59.736,209.365 59.698,209.242 L59.528,208.698 C59.423,208.364 59.502,207.999 59.734,207.736 C61.195,206.09 61.999,203.97 61.999,201.767 C61.999,196.804 57.961,192.767 52.999,192.767 C48.037,192.767 43.999,196.804 43.999,201.767 C43.999,202.319 43.551,202.767 42.999,202.767 C42.447,202.767 41.999,202.319 41.999,201.767 C41.999,195.701 46.934,190.767 52.999,190.767 C59.064,190.767 63.999,195.701 63.999,201.767 C63.999,204.243 63.167,206.634 61.645,208.568 C64.501,211.876 68.62,213.766 72.999,213.766 C77.843,213.766 83.023,210.917 85.889,206.675 L86.202,206.287 C89.452,202.762 94.006,200.767 98.738,200.767 C102.061,200.767 105.28,201.726 108.047,203.54 C108.509,203.843 108.638,204.463 108.335,204.925 C108.034,205.388 107.413,205.517 106.951,205.213 C104.51,203.612 101.67,202.767 98.738,202.767 C94.563,202.767 90.544,204.527 87.711,207.597 L87.492,207.868 C84.275,212.637 78.564,215.766 72.999,215.766"/>
    <path fill="#42494E" d="M49.999 215.267C49.447 215.267 48.999 214.819 48.999 214.267 48.999 206.547 42.719 200.267 34.999 200.267 34.447 200.267 33.999 199.819 33.999 199.267 33.999 198.714 34.447 198.267 34.999 198.267 43.821 198.267 50.999 205.444 50.999 214.267 50.999 214.819 50.551 215.267 49.999 215.267M48.519 192.484C48.518 192.481 48.464 192.237 48.434 192.116 47.552 188.687 44.459 186.292 40.912 186.292 39.27 186.292 37.701 186.797 36.375 187.754 35.927 188.077 35.303 187.977 34.979 187.529 34.656 187.081 34.757 186.456 35.205 186.132 36.874 184.928 38.847 184.292 40.912 184.292 45.372 184.292 49.261 187.304 50.37 191.618 50.407 191.762 50.472 192.055 50.472 192.055L48.519 192.484"/>
    <path fill="#42494E" d="M42.525 186.292C41.973 186.292 41.525 185.844 41.525 185.292 41.525 178.937 36.354 173.766 30 173.766 29.447 173.766 28.999 173.318 28.999 172.766 28.999 172.214 29.447 171.766 30 171.766 37.457 171.766 43.525 177.833 43.525 185.292 43.525 185.844 43.077 186.292 42.525 186.292M39.332 195.6C38.78 195.6 38.332 195.152 38.332 194.6 38.332 190.603 35.08 187.35 31.082 187.35 30.53 187.35 30.082 186.902 30.082 186.35 30.082 185.798 30.53 185.35 31.082 185.35 36.183 185.35 40.332 189.5 40.332 194.6 40.332 195.152 39.884 195.6 39.332 195.6M168.002 190.766C167.946 190.766 167.89 190.769 167.833 190.773 167.3 190.818 166.817 191.066 166.472 191.475 166.127 191.882 165.961 192.4 166.006 192.933 166.098 194.031 167.058 194.854 168.165 194.759 168.697 194.715 169.181 194.466 169.525 194.058 169.871 193.65 170.037 193.133 169.992 192.601 169.948 192.068 169.699 191.585 169.291 191.24 168.927 190.931 168.475 190.766 168.002 190.766zM167.996 196.767C165.939 196.767 164.187 195.184 164.013 193.099 163.924 192.034 164.255 190.998 164.945 190.183 165.636 189.367 166.602 188.869 167.667 188.78 168.737 188.691 169.767 189.022 170.583 189.713 171.398 190.403 171.896 191.37 171.985 192.435 172.168 194.633 170.529 196.57 168.331 196.752 168.218 196.762 168.106 196.767 167.996 196.767zM78.999 198.767C78.448 198.767 77.999 199.215 77.999 199.767 77.999 200.318 78.448 200.767 78.999 200.767 79.55 200.767 79.999 200.318 79.999 199.767 79.999 199.215 79.55 198.767 78.999 198.767zM78.999 202.767C77.345 202.767 75.999 201.421 75.999 199.767 75.999 198.112 77.345 196.767 78.999 196.767 80.653 196.767 81.999 198.112 81.999 199.767 81.999 201.421 80.653 202.767 78.999 202.767zM143.334 208.683L142.917 207.773C140.967 203.517 136.683 200.767 132.002 200.767L130.002 200.767 130.002 198.767 132.002 198.767C137.462 198.767 142.46 201.975 144.736 206.94L145.152 207.85 143.334 208.683"/>
    <path fill="#42494E" d="M177.001,215.766 C171.436,215.766 165.725,212.637 162.454,207.795 L162.25,207.551 C159.456,204.527 155.438,202.767 151.263,202.767 C148.33,202.767 145.49,203.612 143.049,205.213 C142.587,205.516 141.968,205.387 141.665,204.925 C141.362,204.463 141.491,203.843 141.953,203.54 C144.72,201.726 147.939,200.767 151.263,200.767 C155.994,200.767 160.548,202.762 163.759,206.241 L164.057,206.603 C166.977,210.917 172.157,213.766 177.001,213.766 C181.651,213.766 185.962,211.662 188.83,207.992 C189.17,207.556 189.799,207.48 190.233,207.819 C190.668,208.16 190.746,208.788 190.406,209.223 C187.157,213.381 182.271,215.766 177.001,215.766"/>
    <path fill="#42494E" d="M189.518,209.4 C189.242,209.4 188.967,209.286 188.77,209.063 C186.984,207.05 186.001,204.459 186.001,201.767 C186.001,195.701 190.936,190.767 197.001,190.767 C203.066,190.767 208.001,195.701 208.001,201.767 C208.001,202.319 207.553,202.767 207.001,202.767 C206.449,202.767 206.001,202.319 206.001,201.767 C206.001,196.804 201.963,192.767 197.001,192.767 C192.039,192.767 188.001,196.804 188.001,201.767 C188.001,203.97 188.805,206.09 190.266,207.736 C190.632,208.149 190.594,208.782 190.181,209.148 C189.991,209.317 189.754,209.4 189.518,209.4"/>
    <path fill="#42494E" d="M200.001 215.267C199.449 215.267 199.001 214.819 199.001 214.267 199.001 205.444 206.179 198.267 215.001 198.267 215.553 198.267 216.001 198.714 216.001 199.267 216.001 199.819 215.553 200.267 215.001 200.267 207.281 200.267 201.001 206.547 201.001 214.267 201.001 214.819 200.553 215.267 200.001 215.267M201.481 192.484L199.528 192.055C199.528 192.055 199.593 191.762 199.63 191.618 200.739 187.304 204.628 184.292 209.088 184.292 211.153 184.292 213.126 184.928 214.795 186.132 215.243 186.456 215.344 187.081 215.021 187.529 214.698 187.977 214.074 188.077 213.625 187.754 212.299 186.797 210.73 186.292 209.088 186.292 205.541 186.292 202.448 188.687 201.567 192.116 201.536 192.237 201.482 192.481 201.481 192.484"/>
    <path fill="#42494E" d="M207.475 186.292C206.923 186.292 206.475 185.844 206.475 185.292 206.475 177.833 212.542 171.766 220 171.766 220.553 171.766 221 172.214 221 172.766 221 173.318 220.553 173.766 220 173.766 213.646 173.766 208.475 178.937 208.475 185.292 208.475 185.844 208.027 186.292 207.475 186.292M210.668 195.6C210.116 195.6 209.668 195.152 209.668 194.6 209.668 189.5 213.817 185.35 218.918 185.35 219.47 185.35 219.918 185.798 219.918 186.35 219.918 186.902 219.47 187.35 218.918 187.35 214.92 187.35 211.668 190.603 211.668 194.6 211.668 195.152 211.22 195.6 210.668 195.6M118.001 182.767C117.871 182.767 117.741 182.736 117.621 182.687 117.491 182.636 117.381 182.566 117.291 182.477 117.201 182.386 117.131 182.276 117.081 182.146 117.021 182.026 117.001 181.896 117.001 181.767 117.001 181.506 117.111 181.247 117.291 181.057 117.671 180.687 118.331 180.687 118.711 181.057 118.891 181.247 119.001 181.506 119.001 181.767 119.001 182.026 118.891 182.287 118.711 182.477 118.521 182.656 118.261 182.767 118.001 182.767M117.001 185.366C117.001 184.816 117.451 184.366 118.001 184.366 118.551 184.366 119.001 184.816 119.001 185.366 119.001 185.917 118.551 186.366 118.001 186.366 117.451 186.366 117.001 185.917 117.001 185.366zM117.001 188.966C117.001 188.417 117.451 187.966 118.001 187.966 118.551 187.966 119.001 188.417 119.001 188.966 119.001 189.517 118.551 189.966 118.001 189.966 117.451 189.966 117.001 189.517 117.001 188.966zM117.001 192.566C117.001 192.017 117.451 191.566 118.001 191.566 118.551 191.566 119.001 192.017 119.001 192.566 119.001 193.116 118.551 193.566 118.001 193.566 117.451 193.566 117.001 193.116 117.001 192.566zM117.001 196.167C117.001 195.616 117.451 195.167 118.001 195.167 118.551 195.167 119.001 195.616 119.001 196.167 119.001 196.716 118.551 197.167 118.001 197.167 117.451 197.167 117.001 196.716 117.001 196.167zM118.001 200.767C117.741 200.767 117.481 200.656 117.291 200.477 117.201 200.376 117.131 200.276 117.081 200.146 117.021 200.026 117.001 199.896 117.001 199.767 117.001 199.636 117.021 199.506 117.081 199.386 117.131 199.267 117.201 199.156 117.291 199.057 117.661 198.687 118.341 198.687 118.711 199.057 118.801 199.156 118.871 199.267 118.921 199.386 118.971 199.506 119.001 199.636 119.001 199.767 119.001 200.026 118.891 200.287 118.711 200.477 118.521 200.656 118.261 200.767 118.001 200.767M131.001 182.767C130.741 182.767 130.481 182.656 130.291 182.477 130.111 182.287 130.001 182.026 130.001 181.767 130.001 181.506 130.111 181.247 130.291 181.057 130.661 180.687 131.331 180.687 131.711 181.057 131.891 181.247 132.001 181.506 132.001 181.767 132.001 182.026 131.891 182.287 131.711 182.477 131.521 182.656 131.261 182.767 131.001 182.767M130.001 185.366C130.001 184.816 130.451 184.366 131.001 184.366 131.551 184.366 132.001 184.816 132.001 185.366 132.001 185.917 131.551 186.366 131.001 186.366 130.451 186.366 130.001 185.917 130.001 185.366zM130.001 188.966C130.001 188.417 130.451 187.966 131.001 187.966 131.551 187.966 132.001 188.417 132.001 188.966 132.001 189.517 131.551 189.966 131.001 189.966 130.451 189.966 130.001 189.517 130.001 188.966zM130.001 192.566C130.001 192.017 130.451 191.566 131.001 191.566 131.551 191.566 132.001 192.017 132.001 192.566 132.001 193.116 131.551 193.566 131.001 193.566 130.451 193.566 130.001 193.116 130.001 192.566zM130.001 196.167C130.001 195.616 130.451 195.167 131.001 195.167 131.551 195.167 132.001 195.616 132.001 196.167 132.001 196.716 131.551 197.167 131.001 197.167 130.451 197.167 130.001 196.716 130.001 196.167zM131.001 200.767C130.741 200.767 130.481 200.656 130.291 200.477 130.201 200.376 130.131 200.276 130.081 200.146 130.031 200.026 130.001 199.896 130.001 199.767 130.001 199.636 130.031 199.506 130.081 199.386 130.131 199.267 130.201 199.156 130.291 199.057 130.661 198.687 131.331 198.687 131.711 199.057 131.801 199.156 131.871 199.267 131.921 199.386 131.981 199.506 132.001 199.636 132.001 199.767 132.001 199.896 131.981 200.026 131.921 200.146 131.871 200.276 131.801 200.376 131.711 200.477 131.521 200.656 131.271 200.767 131.001 200.767"/>
    <path fill="#DBDBD5" d="M193.749 183.767C193.749 184.595 193.077 185.267 192.249 185.267 191.42 185.267 190.749 184.595 190.749 183.767 190.749 182.938 191.42 182.267 192.249 182.267 193.077 182.267 193.749 182.938 193.749 183.767M44.999 160.767C44.999 161.319 44.551 161.767 43.999 161.767 43.446 161.767 42.999 161.319 42.999 160.767 42.999 160.214 43.446 159.767 43.999 159.767 44.551 159.767 44.999 160.214 44.999 160.767M70.999 179.767C70.999 180.871 70.103 181.767 68.999 181.767 67.894 181.767 66.999 180.871 66.999 179.767 66.999 178.662 67.894 177.767 68.999 177.767 70.103 177.767 70.999 178.662 70.999 179.767M194.999 159.767C194.999 160.871 194.103 161.767 192.999 161.767 191.894 161.767 190.999 160.871 190.999 159.767 190.999 158.662 191.894 157.767 192.999 157.767 194.103 157.767 194.999 158.662 194.999 159.767M174.999 164.767C174.999 165.319 174.551 165.767 173.999 165.767 173.447 165.767 172.999 165.319 172.999 164.767 172.999 164.214 173.447 163.767 173.999 163.767 174.551 163.767 174.999 164.214 174.999 164.767M204.999 171.767C204.999 172.871 204.103 173.767 202.999 173.767 201.894 173.767 200.999 172.871 200.999 171.767 200.999 170.662 201.894 169.767 202.999 169.767 204.103 169.767 204.999 170.662 204.999 171.767M52.999 176.767C52.999 176.214 53.446 175.767 53.999 175.767 54.551 175.767 54.999 176.214 54.999 176.767 54.999 177.319 54.551 177.767 53.999 177.767 53.446 177.767 52.999 177.319 52.999 176.767M68.999 155.767C68.999 156.871 68.103 157.767 66.999 157.767 65.894 157.767 64.999 156.871 64.999 155.767 64.999 154.662 65.894 153.767 66.999 153.767 68.103 153.767 68.999 154.662 68.999 155.767"/>
    <polygon fill="#434A4F" points="64.999 109.767 66.999 109.767 66.999 105.767 64.999 105.767"/>
    <polygon fill="#434A4F" points="64.999 119.767 66.999 119.767 66.999 115.767 64.999 115.767"/>
    <polygon fill="#434A4F" points="68.999 113.767 72.999 113.767 72.999 111.767 68.999 111.767"/>
    <polygon fill="#434A4F" points="58.999 113.767 62.999 113.767 62.999 111.767 58.999 111.767"/>
    <polygon fill="#434A4F" points="184.999 133.767 186.999 133.767 186.999 129.767 184.999 129.767"/>
    <polygon fill="#434A4F" points="184.999 143.767 186.999 143.767 186.999 139.767 184.999 139.767"/>
    <polygon fill="#434A4F" points="188.999 137.767 192.999 137.767 192.999 135.767 188.999 135.767"/>
    <polygon fill="#434A4F" points="178.999 137.767 182.999 137.767 182.999 135.767 178.999 135.767"/>
    <polygon fill="#434A4F" points="172.999 73.767 174.999 73.767 174.999 69.767 172.999 69.767"/>
    <polygon fill="#434A4F" points="172.999 83.767 174.999 83.767 174.999 79.767 172.999 79.767"/>
    <polygon fill="#434A4F" points="176.999 77.767 180.999 77.767 180.999 75.767 176.999 75.767"/>
    <polygon fill="#434A4F" points="166.999 77.767 170.999 77.767 170.999 75.767 166.999 75.767"/>
    <path fill="#75C7D0" d="M74.999 42.767C74.999 44.423 73.656 45.767 71.999 45.767 70.342 45.767 68.999 44.423 68.999 42.767 68.999 41.11 70.342 39.767 71.999 39.767 73.656 39.767 74.999 41.11 74.999 42.767M186.999 47.767C186.999 48.871 186.103 49.767 184.999 49.767 183.894 49.767 182.999 48.871 182.999 47.767 182.999 46.662 183.894 45.767 184.999 45.767 186.103 45.767 186.999 46.662 186.999 47.767M154.999 39.767C154.999 38.662 155.894 37.767 156.999 37.767 158.103 37.767 158.999 38.662 158.999 39.767 158.999 40.871 158.103 41.767 156.999 41.767 155.894 41.767 154.999 40.871 154.999 39.767M50.999 80.767C50.999 82.423 49.656 83.767 47.999 83.767 46.342 83.767 44.999 82.423 44.999 80.767 44.999 79.11 46.342 77.767 47.999 77.767 49.656 77.767 50.999 79.11 50.999 80.767M82.413 75.181C81.632 75.962 80.366 75.962 79.585 75.181 78.803 74.4 78.803 73.133 79.585 72.352 80.366 71.571 81.632 71.571 82.413 72.352 83.194 73.133 83.194 74.4 82.413 75.181M200.999 91.767C200.999 90.662 201.894 89.767 202.999 89.767 204.103 89.767 204.999 90.662 204.999 91.767 204.999 92.871 204.103 93.767 202.999 93.767 201.894 93.767 200.999 92.871 200.999 91.767"/>
  </g>
</svg>
