<svg xmlns="http://www.w3.org/2000/svg" width="250" height="250" viewBox="0 0 250 250">
  <g fill="none" fill-rule="evenodd">
    <path fill="#434A4F" d="M101.352 41.463L156.217 41.463 179.474 64.719 179.474 154.536 181.474 154.536 181.474 63.891 157.045 39.463 101.352 39.463C100.8 39.463 100.352 39.911 100.352 40.463 100.352 41.015 100.8 41.463 101.352 41.463M160.903 182.518L76.143 182.518 76.143 41.463 91.832 41.463C92.385 41.463 92.832 41.015 92.832 40.463 92.832 39.911 92.385 39.463 91.832 39.463L74.143 39.463 74.143 184.518 160.903 184.518 160.903 182.518"/>
    <polyline fill="#FACD60" points="156.631 40.463 156.631 64.305 180.474 64.305"/>
    <path fill="#434A4F" d="M96.582,41.457 C96.322,41.457 96.062,41.357 95.872,41.167 C95.692,40.987 95.582,40.727 95.582,40.467 C95.582,40.197 95.692,39.937 95.872,39.757 C96.252,39.387 96.912,39.387 97.292,39.757 C97.482,39.937 97.582,40.197 97.582,40.467 C97.582,40.727 97.482,40.987 97.292,41.167 C97.102,41.357 96.842,41.457 96.582,41.457"/>
    <polygon fill="#434A4F" points="92.143 68.518 110.143 68.518 110.143 66.518 92.143 66.518"/>
    <polygon fill="#434A4F" points="92.143 72.518 110.143 72.518 110.143 70.518 92.143 70.518"/>
    <path fill="#434A4F" d="M77.824,184.518 L70.141,184.518 L70.141,39.463 L77.824,39.463 C78.376,39.463 78.824,39.911 78.824,40.463 C78.824,41.015 78.376,41.463 77.824,41.463 L72.141,41.463 L72.141,182.518 L77.824,182.518 C78.376,182.518 78.824,182.965 78.824,183.518 C78.824,184.07 78.376,184.518 77.824,184.518"/>
    <path fill="#434A4F" d="M73.822,184.518 L66.138,184.518 L66.138,39.463 L73.822,39.463 C74.374,39.463 74.822,39.911 74.822,40.463 C74.822,41.015 74.374,41.463 73.822,41.463 L68.138,41.463 L68.138,182.518 L73.822,182.518 C74.374,182.518 74.822,182.965 74.822,183.518 C74.822,184.07 74.374,184.518 73.822,184.518"/>
    <polygon fill="#434A4F" points="209.135 177.505 211.135 177.505 211.135 173.505 209.135 173.505"/>
    <polygon fill="#434A4F" points="209.135 187.505 211.135 187.505 211.135 183.505 209.135 183.505"/>
    <polygon fill="#434A4F" points="213.135 181.505 217.135 181.505 217.135 179.505 213.135 179.505"/>
    <polygon fill="#434A4F" points="203.135 181.505 207.135 181.505 207.135 179.505 203.135 179.505"/>
    <polygon fill="#434A4F" points="176.143 39.517 178.143 39.517 178.143 35.517 176.143 35.517"/>
    <polygon fill="#434A4F" points="176.143 49.518 178.143 49.518 178.143 45.518 176.143 45.518"/>
    <polygon fill="#434A4F" points="180.143 43.517 184.143 43.517 184.143 41.517 180.143 41.517"/>
    <polygon fill="#434A4F" points="170.143 43.517 174.143 43.517 174.143 41.517 170.143 41.517"/>
    <path fill="#FACD60" d="M193.155 76.543C193.155 74.334 194.946 72.543 197.155 72.543 199.365 72.543 201.155 74.334 201.155 76.543 201.155 78.752 199.365 80.543 197.155 80.543 194.946 80.543 193.155 78.752 193.155 76.543M44.143 137.089C44.143 135.747 45.231 134.66 46.572 134.66 47.914 134.66 49.001 135.747 49.001 137.089 49.001 138.43 47.914 139.518 46.572 139.518 45.231 139.518 44.143 138.43 44.143 137.089M56.143 147.946C56.143 146.605 57.231 145.518 58.572 145.518 59.914 145.518 61.001 146.605 61.001 147.946 61.001 149.288 59.914 150.375 58.572 150.375 57.231 150.375 56.143 149.288 56.143 147.946M166.143 231.97C166.143 230.629 167.231 229.542 168.572 229.542 169.914 229.542 171.001 230.629 171.001 231.97 171.001 233.312 169.914 234.399 168.572 234.399 167.231 234.399 166.143 233.312 166.143 231.97"/>
    <path fill="#75C7D0" d="M160.903,154.536 L177.436,154.536 C177.409,129.547 177.396,95.536 177.522,95.536 L133.245,139.829 C133.327,140.198 133.377,140.579 133.377,140.972 C133.377,143.894 131.008,146.263 128.086,146.263 C125.164,146.263 122.796,143.894 122.796,140.972 C122.796,140.581 122.845,140.202 122.926,139.834 L108.022,124.984 C107.668,125.059 107.302,125.101 106.925,125.101 C106.526,125.101 106.142,125.049 105.768,124.966 L91.714,138.997 C91.8,139.376 91.855,139.766 91.855,140.172 C91.855,143.093 89.486,145.462 86.564,145.462 C83.643,145.462 81.274,143.093 81.274,140.172 C81.274,139.772 81.327,139.386 81.411,139.011 L78.454,136.051 L78.454,180.517 L160.903,180.517 L160.903,154.536"/>
    <path fill="#434A4F" d="M132.164 137.894C131.909 137.894 131.653 137.797 131.457 137.602 131.067 137.211 131.067 136.578 131.457 136.187L170.833 96.812 158.529 96.812C157.977 96.812 157.529 96.364 157.529 95.812 157.529 95.26 157.977 94.812 158.529 94.812L173.247 94.812C173.651 94.812 174.016 95.056 174.171 95.429 174.326 95.803 174.24 96.233 173.954 96.519L132.871 137.602C132.676 137.797 132.42 137.894 132.164 137.894M124.009 137.895C123.753 137.895 123.497 137.797 123.302 137.602L109.965 124.265C109.574 123.874 109.574 123.241 109.965 122.851 110.355 122.46 110.988 122.46 111.379 122.851L124.716 136.188C125.106 136.579 125.106 137.211 124.716 137.602 124.52 137.797 124.264 137.895 124.009 137.895M90.312 137.424C90.056 137.424 89.8 137.327 89.605 137.131 89.214 136.741 89.214 136.108 89.605 135.717L102.14 123.182C102.531 122.791 103.163 122.791 103.554 123.182 103.945 123.573 103.945 124.206 103.554 124.596L91.019 137.131C90.824 137.327 90.568 137.424 90.312 137.424M82.927 137.534C82.671 137.534 82.415 137.436 82.22 137.241L77.6 132.622C77.21 132.231 77.21 131.598 77.6 131.207 77.991 130.817 78.624 130.817 79.014 131.207L83.634 135.827C84.025 136.218 84.025 136.851 83.634 137.241 83.439 137.436 83.183 137.534 82.927 137.534"/>
    <path fill="#434A4F" d="M86.564 135.881C84.199 135.881 82.274 137.806 82.274 140.171 82.274 142.537 84.199 144.462 86.564 144.462 88.93 144.462 90.855 142.537 90.855 140.171 90.855 137.806 88.93 135.881 86.564 135.881zM86.564 146.462C83.096 146.462 80.274 143.64 80.274 140.171 80.274 136.703 83.096 133.881 86.564 133.881 90.033 133.881 92.855 136.703 92.855 140.171 92.855 143.64 90.033 146.462 86.564 146.462zM106.925 115.521C104.559 115.521 102.635 117.445 102.635 119.811 102.635 122.177 104.559 124.102 106.925 124.102 109.29 124.102 111.215 122.177 111.215 119.811 111.215 117.445 109.29 115.521 106.925 115.521zM106.925 126.102C103.456 126.102 100.635 123.28 100.635 119.811 100.635 116.343 103.456 113.521 106.925 113.521 110.393 113.521 113.215 116.343 113.215 119.811 113.215 123.28 110.393 126.102 106.925 126.102zM128.086 136.682C125.721 136.682 123.796 138.607 123.796 140.973 123.796 143.338 125.721 145.263 128.086 145.263 130.452 145.263 132.377 143.338 132.377 140.973 132.377 138.607 130.452 136.682 128.086 136.682zM128.086 147.263C124.618 147.263 121.796 144.441 121.796 140.973 121.796 137.504 124.618 134.682 128.086 134.682 131.555 134.682 134.377 137.504 134.377 140.973 134.377 144.441 131.555 147.263 128.086 147.263z"/>
    <path fill="#42494E" d="M85.005,190.974 L83.104,190.354 L83.657,188.656 L81.601,187.985 C79.668,187.355 78.42,185.634 78.422,183.601 C78.424,181.567 79.675,179.849 81.61,179.223 L83.667,178.556 L82.505,174.969 L80.448,175.635 C78.513,176.261 76.492,175.602 75.299,173.956 C74.105,172.31 74.107,170.185 75.304,168.541 L76.577,166.792 L73.528,164.573 L72.256,166.321 C71.058,167.965 69.036,168.619 67.103,167.99 C65.17,167.359 63.922,165.639 63.924,163.605 L63.926,161.442 L60.155,161.439 L60.153,163.602 C60.151,165.635 58.9,167.353 56.966,167.98 C55.029,168.605 53.01,167.947 51.817,166.301 L50.547,164.55 L47.494,166.764 L48.763,168.515 C49.957,170.161 49.955,172.286 48.759,173.93 C47.561,175.573 45.538,176.227 43.606,175.599 L41.55,174.929 L40.996,176.627 L39.095,176.007 L40.268,172.407 L44.226,173.697 C45.554,174.128 46.603,173.493 47.141,172.753 C47.681,172.013 47.964,170.819 47.144,169.688 L44.701,166.318 L50.993,161.757 L53.436,165.127 C54.256,166.258 55.479,166.359 56.349,166.077 C57.221,165.795 58.152,164.996 58.153,163.6 L58.157,159.437 L65.928,159.444 L65.924,163.607 C65.923,165.004 66.852,165.805 67.723,166.088 C68.594,166.371 69.817,166.272 70.638,165.144 L73.089,161.779 L79.371,166.353 L76.921,169.718 C76.099,170.847 76.381,172.041 76.918,172.783 C77.456,173.524 78.506,174.162 79.831,173.732 L83.792,172.45 L86.186,179.843 L82.226,181.125 C80.897,181.556 80.423,182.687 80.422,183.603 C80.421,184.518 80.893,185.651 82.221,186.084 L86.179,187.373 L85.005,190.974"/>
    <path fill="#E9886C" d="M72.572,187.025 L70.67,186.405 C71.424,184.094 71.232,181.628 70.131,179.461 C69.03,177.295 67.15,175.687 64.839,174.934 C62.53,174.18 60.063,174.371 57.896,175.473 C55.729,176.574 54.121,178.454 53.368,180.765 L51.467,180.144 C52.385,177.326 54.347,175.034 56.99,173.69 C59.633,172.346 62.641,172.113 65.459,173.032 C68.278,173.951 70.57,175.913 71.913,178.556 C73.257,181.198 73.491,184.206 72.572,187.025"/>
    <path fill="#E9886C" d="M62.061,194.597 C60.904,194.597 59.741,194.414 58.608,194.044 C52.79,192.147 49.599,185.87 51.497,180.051 L53.398,180.671 C51.843,185.441 54.458,190.587 59.228,192.143 C61.539,192.896 64.005,192.706 66.172,191.603 C68.339,190.502 69.947,188.623 70.701,186.312 L72.602,186.933 C71.683,189.751 69.721,192.043 67.078,193.387 C65.497,194.19 63.785,194.597 62.061,194.597"/>
    <path fill="#42494E" d="M65.91,207.64 L58.138,207.632 L58.143,203.469 C58.144,202.073 57.215,201.272 56.345,200.988 C55.474,200.704 54.251,200.803 53.429,201.932 L50.978,205.297 L44.696,200.723 L47.146,197.357 C47.969,196.228 47.687,195.034 47.15,194.293 C46.613,193.551 45.566,192.913 44.236,193.342 L40.276,194.625 L37.882,187.231 L41.843,185.95 C43.171,185.519 43.646,184.388 43.646,183.472 C43.647,182.557 43.176,181.424 41.847,180.991 L37.89,179.701 L39.222,175.616 L41.123,176.236 L40.412,178.419 L42.468,179.09 C44.401,179.72 45.649,181.441 45.646,183.474 C45.644,185.507 44.393,187.226 42.459,187.852 L40.401,188.518 L41.562,192.106 L43.62,191.44 C45.554,190.813 47.575,191.472 48.769,193.119 C49.962,194.765 49.96,196.891 48.763,198.535 L47.49,200.283 L50.539,202.503 L51.812,200.754 C53.009,199.11 55.035,198.458 56.964,199.086 C58.898,199.717 60.145,201.438 60.143,203.471 L60.14,205.634 L63.911,205.638 L63.914,203.475 C63.916,201.442 65.167,199.723 67.102,199.097 C69.037,198.47 71.057,199.13 72.251,200.776 L73.52,202.527 L76.574,200.314 L75.304,198.563 C74.111,196.916 74.113,194.791 75.309,193.147 C76.506,191.504 78.529,190.848 80.462,191.479 L82.518,192.149 L83.295,189.768 L85.196,190.388 L83.8,194.671 L79.842,193.38 C78.514,192.947 77.465,193.584 76.927,194.325 C76.387,195.064 76.104,196.258 76.923,197.389 L79.367,200.759 L73.075,205.32 L70.632,201.95 C69.812,200.82 68.59,200.718 67.718,201 C66.847,201.282 65.915,202.081 65.914,203.477 L65.91,207.64"/>
    <path fill="#FACD60" d="M67.365,183.673 C67.365,186.657 64.945,189.077 61.961,189.077 C58.977,189.077 56.558,186.657 56.558,183.673 C56.558,180.689 58.977,178.27 61.961,178.27 C64.945,178.27 67.365,180.689 67.365,183.673"/>
    <path fill="#FACD60" d="M61.961,178.769 C59.257,178.769 57.057,180.969 57.057,183.673 C57.057,186.377 59.257,188.577 61.961,188.577 C64.665,188.577 66.865,186.377 66.865,183.673 C66.865,180.969 64.665,178.769 61.961,178.769 Z M61.961,189.577 C58.706,189.577 56.057,186.928 56.057,183.673 C56.057,180.418 58.706,177.769 61.961,177.769 C65.216,177.769 67.865,180.418 67.865,183.673 C67.865,186.928 65.216,189.577 61.961,189.577 Z"/>
    <path fill="#42494E" d="M201.129,114.533 C196.167,114.533 192.129,118.57 192.129,123.533 C192.129,128.495 196.167,132.533 201.129,132.533 C206.092,132.533 210.129,128.495 210.129,123.533 C210.129,118.57 206.092,114.533 201.129,114.533 Z M201.129,134.533 C195.064,134.533 190.129,129.598 190.129,123.533 C190.129,117.467 195.064,112.533 201.129,112.533 C207.195,112.533 212.129,117.467 212.129,123.533 C212.129,129.598 207.195,134.533 201.129,134.533 Z M201.129,108.533 C192.858,108.533 186.129,115.262 186.129,123.533 C186.129,131.804 192.858,138.533 201.129,138.533 C209.4,138.533 216.129,131.804 216.129,123.533 C216.129,115.262 209.4,108.533 201.129,108.533 Z M201.129,140.533 C191.755,140.533 184.129,132.907 184.129,123.533 C184.129,114.159 191.755,106.533 201.129,106.533 C210.503,106.533 218.129,114.159 218.129,123.533 C218.129,132.907 210.503,140.533 201.129,140.533 Z"/>
    <path fill="#42494E" d="M201.129,120.533 C199.475,120.533 198.129,121.878 198.129,123.533 C198.129,125.187 199.475,126.533 201.129,126.533 C202.784,126.533 204.129,125.187 204.129,123.533 C204.129,121.878 202.784,120.533 201.129,120.533 Z M201.129,128.533 C198.372,128.533 196.129,126.289 196.129,123.533 C196.129,120.776 198.372,118.533 201.129,118.533 C203.886,118.533 206.129,120.776 206.129,123.533 C206.129,126.289 203.886,128.533 201.129,128.533 Z"/>
    <path fill="#E9886C" d="M201.129,119.533 C198.92,119.533 197.129,121.323 197.129,123.533 C197.129,125.742 198.92,127.533 201.129,127.533 C203.338,127.533 205.129,125.742 205.129,123.533 C205.129,121.323 203.338,119.533 201.129,119.533"/>
    <path fill="#E9886C" d="M201.129,120.533 C199.475,120.533 198.129,121.878 198.129,123.533 C198.129,125.187 199.475,126.533 201.129,126.533 C202.784,126.533 204.129,125.187 204.129,123.533 C204.129,121.878 202.784,120.533 201.129,120.533 Z M201.129,128.533 C198.372,128.533 196.129,126.289 196.129,123.533 C196.129,120.776 198.372,118.533 201.129,118.533 C203.886,118.533 206.129,120.776 206.129,123.533 C206.129,126.289 203.886,128.533 201.129,128.533 Z"/>
    <polygon fill="#42494E" points="174.131 124.533 201.129 124.533 201.129 122.533 174.131 122.533"/>
    <path fill="#42494E" d="M167.544,126.533 L170.716,126.533 L173.716,123.533 L170.716,120.533 L167.544,120.533 L170.544,123.533 L167.544,126.533 Z M171.544,128.533 L162.716,128.533 L167.716,123.533 L162.716,118.533 L171.544,118.533 L176.544,123.533 L171.544,128.533 Z"/>
    <path fill="#E9886C" d="M63.204 46.934L47.539 74.066C42.785 71.315 38.823 67.354 36.072 62.599L63.204 46.934M63.204 46.934L63.204 78.268C57.496 78.268 52.149 76.733 47.539 74.066L63.204 46.934"/>
    <path fill="#75C7D0" d="M36.072 62.599C33.405 57.99 31.871 52.643 31.871 46.934L63.204 46.934 36.072 62.599M63.204 46.934L31.871 46.934C31.871 41.226 33.405 35.879 36.072 31.269L63.204 46.934"/>
    <path fill="#FACD60" d="M94.537,46.934 C94.537,52.643 93.003,57.99 90.336,62.599 L63.204,46.934 L94.537,46.934"/>
    <path fill="#75C7D0" d="M36.072,31.269 C38.823,26.515 42.785,22.553 47.539,19.802 L63.204,46.934 L36.072,31.269"/>
    <path fill="#E9886C" d="M63.204,46.934 L90.336,31.269 C93.003,35.879 94.537,41.226 94.537,46.934 L63.204,46.934"/>
    <path fill="#FACD60" d="M63.204,46.934 L78.869,74.066 C74.259,76.733 68.912,78.268 63.204,78.268 L63.204,46.934"/>
    <path fill="#FACD60" d="M63.204,46.934 L90.336,62.599 C87.585,67.354 83.623,71.315 78.869,74.066 L63.204,46.934"/>
    <path fill="#E9886C" d="M78.869,19.802 C83.623,22.553 87.585,26.515 90.336,31.269 L63.204,46.934 L78.869,19.802"/>
    <path fill="#434A4F" d="M63.204,15.601 C57.496,15.601 52.149,17.135 47.539,19.802 L63.204,46.934 L78.869,19.802 C74.259,17.135 68.912,15.601 63.204,15.601 Z M63.204,17.601 C67.682,17.601 72.102,18.63 76.103,20.592 L63.204,42.934 L50.305,20.592 C54.306,18.63 58.726,17.601 63.204,17.601 Z"/>
    <path fill="#42494E" d="M161.903,205.536 L195.903,205.536 L195.903,155.536 L161.903,155.536 L161.903,205.536 Z M159.903,207.536 L197.903,207.536 L197.903,153.536 L159.903,153.536 L159.903,207.536 Z"/>
    <path fill="#42494E" d="M165.903 177.536L167.903 177.536 167.903 175.536 165.903 175.536 165.903 177.536zM163.903 179.536L169.903 179.536 169.903 173.536 163.903 173.536 163.903 179.536zM165.903 185.536L167.903 185.536 167.903 183.536 165.903 183.536 165.903 185.536zM163.903 187.536L169.903 187.536 169.903 181.536 163.903 181.536 163.903 187.536zM165.903 193.536L167.903 193.536 167.903 191.536 165.903 191.536 165.903 193.536zM163.903 195.536L169.903 195.536 169.903 189.536 163.903 189.536 163.903 195.536zM165.903 201.536L167.903 201.536 167.903 199.536 165.903 199.536 165.903 201.536zM163.903 203.536L169.903 203.536 169.903 197.536 163.903 197.536 163.903 203.536zM173.903 177.536L175.903 177.536 175.903 175.536 173.903 175.536 173.903 177.536zM171.903 179.536L177.903 179.536 177.903 173.536 171.903 173.536 171.903 179.536zM173.903 185.536L175.903 185.536 175.903 183.536 173.903 183.536 173.903 185.536zM171.903 187.536L177.903 187.536 177.903 181.536 171.903 181.536 171.903 187.536zM173.903 193.536L175.903 193.536 175.903 191.536 173.903 191.536 173.903 193.536zM171.903 195.536L177.903 195.536 177.903 189.536 171.903 189.536 171.903 195.536zM173.903 201.536L175.903 201.536 175.903 199.536 173.903 199.536 173.903 201.536zM171.903 203.536L177.903 203.536 177.903 197.536 171.903 197.536 171.903 203.536zM181.903 177.536L183.903 177.536 183.903 175.536 181.903 175.536 181.903 177.536zM179.903 179.536L185.903 179.536 185.903 173.536 179.903 173.536 179.903 179.536zM181.903 185.536L183.903 185.536 183.903 183.536 181.903 183.536 181.903 185.536zM179.903 187.536L185.903 187.536 185.903 181.536 179.903 181.536 179.903 187.536zM181.903 193.536L183.903 193.536 183.903 191.536 181.903 191.536 181.903 193.536zM179.903 195.536L185.903 195.536 185.903 189.536 179.903 189.536 179.903 195.536zM181.903 201.536L183.903 201.536 183.903 199.536 181.903 199.536 181.903 201.536zM179.903 203.536L185.903 203.536 185.903 197.536 179.903 197.536 179.903 203.536zM189.903 177.536L191.903 177.536 191.903 175.536 189.903 175.536 189.903 177.536zM187.903 179.536L193.903 179.536 193.903 173.536 187.903 173.536 187.903 179.536zM189.903 185.536L191.903 185.536 191.903 183.536 189.903 183.536 189.903 185.536zM187.903 187.536L193.903 187.536 193.903 181.536 187.903 181.536 187.903 187.536zM189.903 201.536L191.903 201.536 191.903 191.536 189.903 191.536 189.903 201.536zM187.903 203.536L193.903 203.536 193.903 189.536 187.903 189.536 187.903 203.536z"/>
    <polygon fill="#42494E" points="160.903 171.536 196.903 171.536 196.903 169.536 160.903 169.536"/>
    <path fill="#42494E" d="M165.903,165.536 L191.903,165.536 L191.903,159.536 L165.903,159.536 L165.903,165.536 Z M163.903,167.536 L193.903,167.536 L193.903,157.536 L163.903,157.536 L163.903,167.536 Z"/>
    <path fill="#42494E" d="M167.903,163.536 L169.903,163.536 L169.903,161.536 L167.903,161.536 L167.903,163.536 Z M171.903,163.536 L173.903,163.536 L173.903,161.536 L171.903,161.536 L171.903,163.536 Z M175.903,163.536 L177.903,163.536 L177.903,161.536 L175.903,161.536 L175.903,163.536 Z M179.903,163.536 L181.903,163.536 L181.903,161.536 L179.903,161.536 L179.903,163.536 Z M183.903,163.536 L185.903,163.536 L185.903,161.536 L183.903,161.536 L183.903,163.536 Z M187.903,163.536 L189.903,163.536 L189.903,161.536 L187.903,161.536 L187.903,163.536 Z"/>
  </g>
</svg>
