<svg xmlns="http://www.w3.org/2000/svg" width="250" height="250" viewBox="0 0 250 250">
  <g fill="none" fill-rule="evenodd">
    <path fill="#DBDBD5" d="M178.583 119.748C178.583 120.853 177.688 121.748 176.583 121.748 175.479 121.748 174.583 120.853 174.583 119.748 174.583 118.644 175.479 117.748 176.583 117.748 177.688 117.748 178.583 118.644 178.583 119.748M182.514 97.372C182.455 97.436 182.402 97.503 182.34 97.564L178.953 100.952C176.151 103.754 174.608 107.478 174.608 111.44L174.608 114.745 178.608 114.745 178.608 111.44C178.608 108.547 179.735 105.826 181.781 103.78L185.169 100.393C186.068 99.494 186.798 98.473 187.36 97.372L182.514 97.372"/>
    <polyline fill="#E9886C" points="68.743 83.902 101.515 83.902 109.582 89.857 116.418 97.391 152.375 97.391 127.691 68.658 121.031 61.999 54.215 61.999 47.555 68.658 65.802 89.892 68.743 83.902"/>
    <path fill="#E9886C" d="M116.861,96.391 L150.197,96.391 L126.932,69.31 L120.617,62.999 L54.629,62.999 L48.917,68.71 L65.573,88.091 L68.12,82.902 L101.844,82.902 L110.323,89.185 L116.861,96.391 Z M154.552,98.391 L115.974,98.391 L108.909,90.602 L101.186,84.902 L69.366,84.902 L66.032,91.694 L46.193,68.607 L53.801,60.999 L121.445,60.999 L128.398,67.951 L154.552,98.391 Z"/>
    <polyline fill="#E9886C" points="152.375 97.391 187.221 97.391 192.592 87.857 188.592 83.857 167.008 83.902 160.231 87.229 152.375 97.391"/>
    <path fill="#E9886C" d="M154.413,96.391 L186.637,96.391 L191.348,88.027 L188.179,84.858 L167.242,84.902 L160.88,88.025 L154.413,96.391 Z M187.805,98.391 L150.338,98.391 L159.582,86.434 L166.775,82.903 L189.005,82.856 L193.836,87.687 L187.805,98.391 Z"/>
    <polyline fill="#434A4F" points="116.825 211.012 71.277 211.012 71.279 97.763 64.613 90.046 68.12 82.902 101.843 82.902 110.326 89.188 117.57 97.233 116.083 98.571 108.907 90.602 101.185 84.902 69.366 84.902 66.992 89.739 73.279 97.019 73.277 209.012 116.825 209.012 116.825 211.012"/>
    <path fill="#434A4F" d="M50.573 69.658C50.313 69.658 50.053 69.548 49.872 69.368 49.773 69.268 49.703 69.168 49.653 69.038 49.603 68.918 49.573 68.788 49.573 68.658 49.573 68.398 49.683 68.138 49.872 67.948 50.103 67.718 50.443 67.618 50.773 67.678 50.832 67.688 50.893 67.708 50.962 67.738 51.023 67.758 51.073 67.788 51.132 67.828 51.183 67.868 51.233 67.908 51.283 67.948 51.473 68.138 51.573 68.398 51.573 68.658 51.573 68.918 51.473 69.178 51.283 69.368 51.233 69.408 51.183 69.458 51.132 69.488 51.073 69.528 51.023 69.558 50.962 69.578 50.893 69.608 50.832 69.628 50.773 69.638 50.703 69.648 50.643 69.658 50.573 69.658M53.513 68.658C53.513 68.108 53.953 67.658 54.513 67.658 55.063 67.658 55.513 68.108 55.513 68.658 55.513 69.208 55.063 69.658 54.513 69.658 53.953 69.658 53.513 69.208 53.513 68.658zM57.443 68.658C57.443 68.108 57.893 67.658 58.443 67.658 58.993 67.658 59.443 68.108 59.443 68.658 59.443 69.208 58.993 69.658 58.443 69.658 57.893 69.658 57.443 69.208 57.443 68.658zM61.382 68.658C61.382 68.108 61.823 67.658 62.382 67.658 62.933 67.658 63.373 68.108 63.373 68.658 63.373 69.208 62.933 69.658 62.382 69.658 61.823 69.658 61.382 69.208 61.382 68.658zM65.313 68.658C65.313 68.108 65.763 67.658 66.313 67.658 66.863 67.658 67.313 68.108 67.313 68.658 67.313 69.208 66.863 69.658 66.313 69.658 65.763 69.658 65.313 69.208 65.313 68.658zM69.252 68.658C69.252 68.108 69.693 67.658 70.252 67.658 70.803 67.658 71.252 68.108 71.252 68.658 71.252 69.208 70.803 69.658 70.252 69.658 69.693 69.658 69.252 69.208 69.252 68.658zM73.183 68.658C73.183 68.108 73.632 67.658 74.183 67.658 74.733 67.658 75.183 68.108 75.183 68.658 75.183 69.208 74.733 69.658 74.183 69.658 73.632 69.658 73.183 69.208 73.183 68.658zM77.113 68.658C77.113 68.108 77.563 67.658 78.122 67.658 78.672 67.658 79.122 68.108 79.122 68.658 79.122 69.208 78.672 69.658 78.122 69.658 77.563 69.658 77.113 69.208 77.113 68.658zM81.053 68.658C81.053 68.108 81.502 67.658 82.053 67.658 82.603 67.658 83.053 68.108 83.053 68.658 83.053 69.208 82.603 69.658 82.053 69.658 81.502 69.658 81.053 69.208 81.053 68.658zM84.983 68.658C84.983 68.108 85.433 67.658 85.983 67.658 86.542 67.658 86.983 68.108 86.983 68.658 86.983 69.208 86.542 69.658 85.983 69.658 85.433 69.658 84.983 69.208 84.983 68.658zM96.792 68.658C96.792 68.108 97.243 67.658 97.792 67.658 98.343 67.658 98.792 68.108 98.792 68.658 98.792 69.208 98.343 69.658 97.792 69.658 97.243 69.658 96.792 69.208 96.792 68.658zM100.723 68.658C100.723 68.108 101.172 67.658 101.723 67.658 102.273 67.658 102.723 68.108 102.723 68.658 102.723 69.208 102.273 69.658 101.723 69.658 101.172 69.658 100.723 69.208 100.723 68.658zM104.663 68.658C104.663 68.108 105.103 67.658 105.663 67.658 106.212 67.658 106.663 68.108 106.663 68.658 106.663 69.208 106.212 69.658 105.663 69.658 105.103 69.658 104.663 69.208 104.663 68.658zM108.593 68.658C108.593 68.108 109.042 67.658 109.593 67.658 110.143 67.658 110.593 68.108 110.593 68.658 110.593 69.208 110.143 69.658 109.593 69.658 109.042 69.658 108.593 69.208 108.593 68.658zM112.533 68.658C112.533 68.108 112.973 67.658 113.533 67.658 114.082 67.658 114.533 68.108 114.533 68.658 114.533 69.208 114.082 69.658 113.533 69.658 112.973 69.658 112.533 69.208 112.533 68.658zM116.462 68.658C116.462 68.108 116.913 67.658 117.462 67.658 118.013 67.658 118.462 68.108 118.462 68.658 118.462 69.208 118.013 69.658 117.462 69.658 116.913 69.658 116.462 69.208 116.462 68.658zM120.393 68.658C120.393 68.108 120.843 67.658 121.393 67.658 121.953 67.658 122.403 68.108 122.403 68.658 122.403 69.208 121.953 69.658 121.393 69.658 120.843 69.658 120.393 69.208 120.393 68.658zM125.332 69.658C125.073 69.658 124.813 69.548 124.623 69.368 124.443 69.178 124.332 68.918 124.332 68.658 124.332 68.398 124.443 68.138 124.623 67.948 124.853 67.718 125.203 67.608 125.533 67.678 125.593 67.688 125.653 67.708 125.712 67.738 125.773 67.758 125.832 67.788 125.893 67.828 125.943 67.858 125.993 67.908 126.042 67.948 126.223 68.138 126.332 68.398 126.332 68.658 126.332 68.918 126.223 69.178 126.042 69.368 125.993 69.408 125.943 69.458 125.893 69.488 125.832 69.528 125.773 69.558 125.712 69.578 125.653 69.608 125.593 69.628 125.533 69.638 125.462 69.648 125.403 69.658 125.332 69.658"/>
    <polyline fill="#434A4F" points="188.593 211.012 114.562 211.012 114.562 209.012 186.593 209.012 186.593 98.391 116.249 98.391 116.249 96.391 188.593 96.391 188.593 211.012"/>
    <path fill="#434A4F" d="M74.582 97.858C74.582 97.308 75.033 96.858 75.582 96.858 76.132 96.858 76.582 97.308 76.582 97.858 76.582 98.408 76.132 98.858 75.582 98.858 75.033 98.858 74.582 98.408 74.582 97.858zM78.582 97.858C78.582 97.308 79.033 96.858 79.582 96.858 80.132 96.858 80.582 97.308 80.582 97.858 80.582 98.408 80.132 98.858 79.582 98.858 79.033 98.858 78.582 98.408 78.582 97.858zM82.582 97.858C82.582 97.308 83.033 96.858 83.582 96.858 84.132 96.858 84.582 97.308 84.582 97.858 84.582 98.408 84.132 98.858 83.582 98.858 83.033 98.858 82.582 98.408 82.582 97.858zM86.582 97.858C86.582 97.308 87.033 96.858 87.582 96.858 88.132 96.858 88.582 97.308 88.582 97.858 88.582 98.408 88.132 98.858 87.582 98.858 87.033 98.858 86.582 98.408 86.582 97.858zM90.582 97.858C90.582 97.308 91.033 96.858 91.582 96.858 92.132 96.858 92.582 97.308 92.582 97.858 92.582 98.408 92.132 98.858 91.582 98.858 91.033 98.858 90.582 98.408 90.582 97.858zM94.582 97.858C94.582 97.308 95.033 96.858 95.582 96.858 96.132 96.858 96.582 97.308 96.582 97.858 96.582 98.408 96.132 98.858 95.582 98.858 95.033 98.858 94.582 98.408 94.582 97.858zM98.582 97.858C98.582 97.308 99.033 96.858 99.582 96.858 100.132 96.858 100.582 97.308 100.582 97.858 100.582 98.408 100.132 98.858 99.582 98.858 99.033 98.858 98.582 98.408 98.582 97.858zM102.582 97.858C102.582 97.308 103.033 96.858 103.582 96.858 104.132 96.858 104.582 97.308 104.582 97.858 104.582 98.408 104.132 98.858 103.582 98.858 103.033 98.858 102.582 98.408 102.582 97.858zM106.582 97.858C106.582 97.308 107.033 96.858 107.582 96.858 108.132 96.858 108.582 97.308 108.582 97.858 108.582 98.408 108.132 98.858 107.582 98.858 107.033 98.858 106.582 98.408 106.582 97.858zM110.582 97.858C110.582 97.308 111.033 96.858 111.582 96.858 112.132 96.858 112.582 97.308 112.582 97.858 112.582 98.408 112.132 98.858 111.582 98.858 111.033 98.858 110.582 98.408 110.582 97.858zM116.563 102.858C116.493 102.858 116.433 102.848 116.363 102.838 116.303 102.828 116.243 102.808 116.183 102.778 116.123 102.758 116.063 102.728 116.002 102.688 115.953 102.648 115.903 102.608 115.853 102.568 115.763 102.468 115.693 102.358 115.632 102.238 115.582 102.118 115.563 101.988 115.563 101.858 115.563 101.588 115.663 101.338 115.853 101.148 116.223 100.778 116.893 100.778 117.273 101.148 117.453 101.338 117.563 101.588 117.563 101.858 117.563 101.988 117.533 102.118 117.483 102.238 117.433 102.358 117.363 102.468 117.273 102.568 117.082 102.748 116.823 102.858 116.563 102.858M115.563 105.858C115.563 105.308 116.013 104.868 116.563 104.868 117.113 104.868 117.563 105.308 117.563 105.858 117.563 106.418 117.113 106.868 116.563 106.868 116.013 106.868 115.563 106.418 115.563 105.858zM115.563 109.868C115.563 109.318 116.013 108.868 116.563 108.868 117.113 108.868 117.563 109.318 117.563 109.868 117.563 110.418 117.113 110.868 116.563 110.868 116.013 110.868 115.563 110.418 115.563 109.868zM115.563 113.878C115.563 113.318 116.013 112.878 116.563 112.878 117.113 112.878 117.563 113.318 117.563 113.878 117.563 114.428 117.113 114.878 116.563 114.878 116.013 114.878 115.563 114.428 115.563 113.878zM115.563 117.878C115.563 117.328 116.013 116.878 116.563 116.878 117.113 116.878 117.563 117.328 117.563 117.878 117.563 118.428 117.113 118.878 116.563 118.878 116.013 118.878 115.563 118.428 115.563 117.878zM115.563 121.888C115.563 121.338 116.013 120.888 116.563 120.888 117.113 120.888 117.563 121.338 117.563 121.888 117.563 122.438 117.113 122.888 116.563 122.888 116.013 122.888 115.563 122.438 115.563 121.888zM115.563 125.898C115.563 125.338 116.013 124.888 116.563 124.888 117.113 124.888 117.563 125.338 117.563 125.898 117.563 126.448 117.113 126.888 116.563 126.888 116.013 126.888 115.563 126.448 115.563 125.898zM115.563 129.898C115.563 129.348 116.013 128.898 116.563 128.898 117.113 128.898 117.563 129.348 117.563 129.898 117.563 130.448 117.113 130.898 116.563 130.898 116.013 130.898 115.563 130.448 115.563 129.898zM115.563 133.908C115.563 133.348 116.013 132.908 116.563 132.908 117.113 132.908 117.563 133.348 117.563 133.908 117.563 134.458 117.113 134.908 116.563 134.908 116.013 134.908 115.563 134.458 115.563 133.908zM115.563 137.908C115.563 137.358 116.013 136.908 116.563 136.908 117.113 136.908 117.563 137.358 117.563 137.908 117.563 138.468 117.113 138.908 116.563 138.908 116.013 138.908 115.563 138.468 115.563 137.908zM115.563 141.918C115.563 141.358 116.013 140.918 116.563 140.918 117.113 140.918 117.563 141.358 117.563 141.918 117.563 142.468 117.113 142.918 116.563 142.918 116.013 142.918 115.563 142.468 115.563 141.918zM115.563 145.918C115.563 145.368 116.013 144.918 116.563 144.918 117.113 144.918 117.563 145.368 117.563 145.918 117.563 146.478 117.113 146.918 116.563 146.918 116.013 146.918 115.563 146.478 115.563 145.918zM115.563 149.928C115.563 149.378 116.013 148.928 116.563 148.928 117.113 148.928 117.563 149.378 117.563 149.928 117.563 150.478 117.113 150.928 116.563 150.928 116.013 150.928 115.563 150.478 115.563 149.928zM115.563 153.938C115.563 153.378 116.013 152.938 116.563 152.938 117.113 152.938 117.563 153.378 117.563 153.938 117.563 154.488 117.113 154.938 116.563 154.938 116.013 154.938 115.563 154.488 115.563 153.938zM115.563 157.938C115.563 157.388 116.013 156.938 116.563 156.938 117.113 156.938 117.563 157.388 117.563 157.938 117.563 158.488 117.113 158.938 116.563 158.938 116.013 158.938 115.563 158.488 115.563 157.938zM115.563 161.948C115.563 161.398 116.013 160.948 116.563 160.948 117.113 160.948 117.563 161.398 117.563 161.948 117.563 162.498 117.113 162.948 116.563 162.948 116.013 162.948 115.563 162.498 115.563 161.948zM115.563 165.948C115.563 165.398 116.013 164.948 116.563 164.948 117.113 164.948 117.563 165.398 117.563 165.948 117.563 166.508 117.113 166.948 116.563 166.948 116.013 166.948 115.563 166.508 115.563 165.948zM115.563 169.958C115.563 169.408 116.013 168.958 116.563 168.958 117.113 168.958 117.563 169.408 117.563 169.958 117.563 170.508 117.113 170.958 116.563 170.958 116.013 170.958 115.563 170.508 115.563 169.958zM115.563 173.968C115.563 173.408 116.013 172.968 116.563 172.968 117.113 172.968 117.563 173.408 117.563 173.968 117.563 174.518 117.113 174.968 116.563 174.968 116.013 174.968 115.563 174.518 115.563 173.968zM115.563 177.968C115.563 177.418 116.013 176.968 116.563 176.968 117.113 176.968 117.563 177.418 117.563 177.968 117.563 178.518 117.113 178.968 116.563 178.968 116.013 178.968 115.563 178.518 115.563 177.968zM115.563 181.978C115.563 181.428 116.013 180.978 116.563 180.978 117.113 180.978 117.563 181.428 117.563 181.978 117.563 182.528 117.113 182.978 116.563 182.978 116.013 182.978 115.563 182.528 115.563 181.978zM115.563 185.978C115.563 185.428 116.013 184.978 116.563 184.978 117.113 184.978 117.563 185.428 117.563 185.978 117.563 186.538 117.113 186.978 116.563 186.978 116.013 186.978 115.563 186.538 115.563 185.978zM115.563 189.988C115.563 189.438 116.013 188.988 116.563 188.988 117.113 188.988 117.563 189.438 117.563 189.988 117.563 190.538 117.113 190.988 116.563 190.988 116.013 190.988 115.563 190.538 115.563 189.988zM115.563 193.998C115.563 193.438 116.013 192.998 116.563 192.998 117.113 192.998 117.563 193.438 117.563 193.998 117.563 194.548 117.113 194.998 116.563 194.998 116.013 194.998 115.563 194.548 115.563 193.998zM115.563 197.998C115.563 197.448 116.013 196.998 116.563 196.998 117.113 196.998 117.563 197.448 117.563 197.998 117.563 198.548 117.113 198.998 116.563 198.998 116.013 198.998 115.563 198.548 115.563 197.998zM115.563 202.008C115.563 201.448 116.013 201.008 116.563 201.008 117.113 201.008 117.563 201.448 117.563 202.008 117.563 202.558 117.113 203.008 116.563 203.008 116.013 203.008 115.563 202.558 115.563 202.008zM116.563 207.008C116.493 207.008 116.433 207.008 116.363 206.988 116.303 206.978 116.243 206.958 116.183 206.938 116.123 206.908 116.063 206.878 116.002 206.838 115.953 206.808 115.903 206.768 115.853 206.718 115.763 206.628 115.693 206.518 115.632 206.398 115.582 206.268 115.563 206.138 115.563 206.008 115.563 205.748 115.663 205.488 115.853 205.308 115.903 205.258 115.953 205.218 116.002 205.178 116.063 205.148 116.123 205.108 116.183 205.088 116.243 205.058 116.303 205.048 116.363 205.028 116.693 204.968 117.033 205.068 117.273 205.308 117.453 205.488 117.563 205.748 117.563 206.008 117.563 206.138 117.533 206.268 117.483 206.398 117.433 206.518 117.363 206.628 117.273 206.718 117.082 206.908 116.823 207.008 116.563 207.008"/>
    <path fill="#42494E" d="M49.631,188.999 C47.978,188.999 46.632,190.344 46.632,191.999 C46.632,193.653 47.978,194.999 49.632,194.999 L93.347,194.999 L99.854,191.999 L93.347,188.999 L49.631,188.999 Z M93.787,196.999 L49.632,196.999 C46.875,196.999 44.632,194.755 44.632,191.999 C44.632,189.242 46.875,186.999 49.631,186.999 L93.787,186.999 L104.629,191.999 L93.787,196.999 Z"/>
    <polygon fill="#42494E" points="55.242 195.999 57.242 195.999 57.242 188.4 55.242 188.4"/>
    <polygon fill="#42494E" points="56.242 192.97 92.799 192.97 92.799 190.97 56.242 190.97"/>
    <polygon fill="#434A4F" points="201.333 189.999 203.333 189.999 203.333 185.999 201.333 185.999"/>
    <polygon fill="#434A4F" points="201.333 199.999 203.333 199.999 203.333 195.999 201.333 195.999"/>
    <polygon fill="#434A4F" points="205.333 193.999 209.333 193.999 209.333 191.999 205.333 191.999"/>
    <polygon fill="#434A4F" points="195.333 193.999 199.333 193.999 199.333 191.999 195.333 191.999"/>
    <path fill="#42494E" d="M87.979,151.639 L86.077,151.019 L86.376,150.1 L85.205,149.718 C83.717,149.233 82.757,147.909 82.759,146.344 C82.76,144.78 83.723,143.457 85.211,142.975 L86.383,142.596 L85.745,140.624 L84.573,141.003 C83.088,141.486 81.531,140.979 80.611,139.712 C79.692,138.445 79.694,136.809 80.615,135.544 L81.34,134.547 L79.664,133.328 L78.94,134.324 C78.019,135.589 76.463,136.094 74.973,135.607 C73.486,135.122 72.526,133.798 72.528,132.233 L72.529,131.002 L70.456,131 L70.455,132.232 C70.454,133.796 69.491,135.119 68.001,135.601 C66.515,136.08 64.956,135.576 64.039,134.309 L63.316,133.312 L61.638,134.528 L62.362,135.526 C63.28,136.793 63.279,138.428 62.358,139.693 C61.438,140.959 59.879,141.464 58.393,140.978 L57.221,140.596 L56.922,141.515 L55.02,140.895 L55.94,138.074 L59.012,139.076 C59.803,139.332 60.42,138.955 60.741,138.516 C61.06,138.078 61.228,137.37 60.743,136.7 L58.845,134.083 L63.761,130.519 L65.659,133.135 C66.145,133.805 66.87,133.867 67.386,133.698 C67.902,133.531 68.455,133.057 68.455,132.23 L68.458,128.998 L74.531,129.003 L74.528,132.235 C74.527,133.063 75.078,133.538 75.593,133.706 C76.112,133.875 76.836,133.816 77.323,133.147 L79.225,130.534 L84.133,134.108 L82.232,136.721 C81.745,137.39 81.912,138.098 82.23,138.538 C82.548,138.976 83.171,139.356 83.956,139.101 L87.032,138.105 L88.903,143.882 L85.828,144.878 C85.04,145.133 84.759,145.804 84.759,146.346 C84.758,146.889 85.038,147.56 85.825,147.817 L88.898,148.819 L87.979,151.639"/>
    <path fill="#42494E" d="M79.205,148.852 L77.302,148.232 C77.81,146.676 77.681,145.016 76.94,143.557 C76.199,142.098 74.933,141.015 73.377,140.508 C70.165,139.46 66.7,141.223 65.653,144.434 L63.75,143.814 C65.14,139.554 69.741,137.216 73.997,138.607 C76.061,139.279 77.739,140.716 78.723,142.651 C79.706,144.586 79.877,146.788 79.205,148.852"/>
    <path fill="#42494E" d="M71.507,154.399 C70.66,154.399 69.809,154.265 68.98,153.994 C64.719,152.605 62.383,148.009 63.772,143.748 L65.674,144.368 C64.626,147.58 66.388,151.045 69.599,152.093 C71.156,152.6 72.816,152.471 74.275,151.73 C75.734,150.988 76.817,149.723 77.324,148.167 L79.226,148.787 C78.553,150.851 77.117,152.529 75.181,153.513 C74.023,154.101 72.77,154.399 71.507,154.399"/>
    <path fill="#42494E" d="M74.517,163.603 L68.445,163.597 L68.448,160.365 C68.449,159.537 67.898,159.063 67.381,158.894 C66.867,158.727 66.141,158.785 65.654,159.454 L63.75,162.066 L58.841,158.492 L60.745,155.879 C61.232,155.21 61.065,154.502 60.746,154.063 C60.428,153.624 59.808,153.246 59.019,153.499 L55.944,154.495 L54.075,148.717 L57.149,147.722 C57.936,147.467 58.217,146.796 58.218,146.253 C58.218,145.711 57.939,145.04 57.152,144.783 L54.08,143.781 L55.11,140.619 L57.012,141.239 L56.601,142.5 L57.772,142.881 C59.259,143.366 60.219,144.691 60.218,146.255 C60.216,147.82 59.253,149.143 57.764,149.625 L56.592,150.004 L57.231,151.976 L58.404,151.597 C59.894,151.114 61.449,151.622 62.366,152.889 C63.285,154.156 63.283,155.792 62.362,157.056 L61.636,158.052 L63.311,159.273 L64.037,158.276 C64.959,157.012 66.513,156.509 68.001,156.993 C69.49,157.478 70.45,158.802 70.448,160.367 L70.447,161.599 L72.519,161.601 L72.521,160.369 C72.522,158.805 73.485,157.482 74.973,157.001 C76.461,156.517 78.017,157.025 78.936,158.292 L79.66,159.29 L81.337,158.073 L80.615,157.076 C79.696,155.809 79.698,154.173 80.62,152.908 C81.538,151.643 83.094,151.138 84.584,151.625 L85.755,152.006 L86.211,150.606 L88.114,151.226 L87.037,154.528 L83.964,153.526 C83.178,153.272 82.556,153.647 82.236,154.086 C81.916,154.524 81.748,155.232 82.234,155.902 L84.13,158.519 L79.214,162.083 L77.317,159.466 C76.83,158.795 76.104,158.736 75.589,158.903 C75.074,159.07 74.522,159.544 74.521,160.371 L74.517,163.603"/>
    <path fill="#FACD60" d="M162.26,218 C162.26,219.104 161.364,220 160.26,220 C159.155,220 158.26,219.104 158.26,218 C158.26,216.895 159.155,216 160.26,216 C161.364,216 162.26,216.895 162.26,218"/>
    <path fill="#E9886C" d="M207.242,112.315 C207.242,113.696 206.122,114.815 204.742,114.815 C203.361,114.815 202.242,113.696 202.242,112.315 C202.242,110.935 203.361,109.815 204.742,109.815 C206.122,109.815 207.242,110.935 207.242,112.315"/>
    <polygon fill="#FACD60" points="125.333 163.999 179.333 163.999 179.333 129.999 125.333 129.999"/>
    <polygon fill="#434A4F" points="135.333 142.999 169.333 142.999 169.333 140.999 135.333 140.999"/>
    <polygon fill="#434A4F" points="135.333 146.999 169.333 146.999 169.333 144.999 135.333 144.999"/>
    <polygon fill="#434A4F" points="141.333 150.999 163.333 150.999 163.333 148.999 141.333 148.999"/>
    <polygon fill="#434A4F" points="135.333 176.999 169.333 176.999 169.333 174.999 135.333 174.999"/>
    <polygon fill="#434A4F" points="135.333 180.999 169.333 180.999 169.333 178.999 135.333 178.999"/>
    <polygon fill="#434A4F" points="45.334 105.999 47.334 105.999 47.334 101.999 45.334 101.999"/>
    <polygon fill="#434A4F" points="45.334 115.999 47.334 115.999 47.334 111.999 45.334 111.999"/>
    <polygon fill="#434A4F" points="49.333 109.999 53.333 109.999 53.333 107.999 49.333 107.999"/>
    <polygon fill="#434A4F" points="39.334 109.999 43.334 109.999 43.334 107.999 39.334 107.999"/>
    <polygon fill="#434A4F" points="141.326 55.993 143.326 55.993 143.326 51.993 141.326 51.993"/>
    <polygon fill="#434A4F" points="141.326 65.993 143.326 65.993 143.326 61.993 141.326 61.993"/>
    <polygon fill="#434A4F" points="145.326 59.993 149.326 59.993 149.326 57.993 145.326 57.993"/>
    <polygon fill="#434A4F" points="135.326 59.993 139.326 59.993 139.326 57.993 135.326 57.993"/>
    <path fill="#FACD60" d="M210.667 169.332C210.667 170.253 209.92 170.999 209 170.999 208.079 170.999 207.333 170.253 207.333 169.332 207.333 168.412 208.079 167.665 209 167.665 209.92 167.665 210.667 168.412 210.667 169.332M53 177.165C53 177.994 53.671 178.665 54.5 178.665 55.328 178.665 56 177.994 56 177.165 56 176.337 55.328 175.665 54.5 175.665 53.671 175.665 53 176.337 53 177.165"/>
    <path fill="#434A4F" d="M136.172 95.998L144.223 95.998C144.877 90.9 147.145 86.291 150.815 82.622L157.994 75.443C162.727 70.71 165.333 64.417 165.333 57.724L165.333 57.059C165.333 43.241 154.092 32 140.274 32 126.749 32 115.671 42.797 115.229 56.225L123.227 56.413C123.557 47.314 131.078 40 140.274 40 149.68 40 157.333 47.652 157.333 57.059L157.333 57.724C157.333 62.28 155.559 66.564 152.336 69.786L145.158 76.965C140.029 82.095 136.862 88.818 136.172 95.998zM146.034 97.998L134.027 97.998 134.092 96.937C134.589 88.873 138.017 81.277 143.744 75.551L150.922 68.372C153.767 65.527 155.333 61.746 155.333 57.724L155.333 57.059C155.333 48.755 148.578 42 140.274 42 131.97 42 125.215 48.755 125.215 57.059L125.187 58.46 113.187 58.177 113.215 56.973C113.25 42.109 125.389 30 140.274 30 155.195 30 167.333 42.139 167.333 57.059L167.333 57.724C167.333 64.951 164.519 71.746 159.408 76.857L152.229 84.036C148.677 87.587 146.564 92.1 146.116 97.087L146.034 97.998zM196.188 52.929C196.188 56.117 194.947 59.115 192.692 61.369L189.304 64.757C187.258 66.803 186.132 69.523 186.132 72.417L186.132 75.721 182.132 75.721 182.132 72.417C182.132 68.455 183.675 64.73 186.476 61.929L189.863 58.541C191.363 57.042 192.188 55.049 192.188 52.929L192.188 52.615C192.188 48.238 188.628 44.678 184.251 44.678 179.875 44.678 176.314 48.238 176.314 52.615L176.311 52.785C176.279 54.161 176.608 55.523 177.265 56.721L173.757 58.643C172.763 56.828 172.263 54.77 172.312 52.69L172.315 52.567C172.314 46.033 177.669 40.678 184.251 40.678 190.833 40.678 196.188 46.033 196.188 52.615L196.188 52.929zM184.251 39.678C180.804 39.678 177.557 41.022 175.109 43.464 172.662 45.904 171.314 49.137 171.315 52.543L171.312 52.667C171.259 54.922 171.801 57.155 172.88 59.124L173.361 60.001 178.623 57.117 178.142 56.24C177.57 55.197 177.283 54.011 177.311 52.802L177.314 52.615C177.314 48.79 180.426 45.678 184.251 45.678 188.077 45.678 191.188 48.79 191.188 52.615L191.188 52.929C191.188 54.782 190.466 56.524 189.157 57.834L185.769 61.222C182.779 64.212 181.131 68.188 181.131 72.417L181.131 76.721 187.131 76.721 187.131 72.417C187.131 69.791 188.154 67.321 190.011 65.464L193.399 62.076C195.842 59.633 197.188 56.385 197.188 52.929L197.188 52.615C197.188 45.481 191.384 39.678 184.251 39.678z"/>
    <path fill="#434A4F" d="M195.188 52.929C195.188 55.851 194.05 58.597 191.985 60.662L188.597 64.05C186.362 66.285 185.131 69.257 185.131 72.417L185.131 74.721 183.131 74.721 183.131 72.417C183.131 68.722 184.57 65.248 187.183 62.636L190.571 59.248C192.258 57.561 193.188 55.316 193.188 52.929L193.188 52.615C193.188 47.687 189.179 43.678 184.251 43.678 179.324 43.678 175.314 47.687 175.314 52.598L175.311 52.762C175.283 53.978 175.504 55.183 175.958 56.297L174.195 57.263C173.579 55.836 173.275 54.282 173.312 52.714L173.315 52.567C173.315 49.672 174.453 46.942 176.521 44.88 178.591 42.815 181.337 41.678 184.251 41.678 190.282 41.678 195.188 46.584 195.188 52.615L195.188 52.929zM184.251 40.678C177.669 40.678 172.314 46.033 172.315 52.567L172.312 52.69C172.263 54.77 172.763 56.828 173.757 58.643L177.265 56.721C176.608 55.523 176.279 54.161 176.311 52.785L176.314 52.615C176.314 48.238 179.875 44.678 184.251 44.678 188.628 44.678 192.188 48.238 192.188 52.615L192.188 52.929C192.188 55.049 191.363 57.042 189.863 58.541L186.476 61.929C183.675 64.73 182.132 68.455 182.132 72.417L182.132 75.721 186.132 75.721 186.132 72.417C186.132 69.523 187.258 66.803 189.304 64.757L192.692 61.369C194.947 59.115 196.188 56.117 196.188 52.929L196.188 52.615C196.188 46.033 190.833 40.678 184.251 40.678zM184.335 81.005C183.233 81.005 182.335 81.902 182.335 83.005 182.335 84.108 183.233 85.005 184.335 85.005 185.438 85.005 186.335 84.108 186.335 83.005 186.335 81.902 185.438 81.005 184.335 81.005zM184.335 87.005C182.129 87.005 180.335 85.211 180.335 83.005 180.335 80.8 182.129 79.005 184.335 79.005 186.541 79.005 188.335 80.8 188.335 83.005 188.335 85.211 186.541 87.005 184.335 87.005zM104.133 47.926C104.133 51.114 102.891 54.112 100.637 56.366L97.249 59.754C95.203 61.8 94.076 64.52 94.076 67.414L94.076 70.718 90.076 70.718 90.076 67.414C90.076 63.452 91.619 59.727 94.421 56.926L97.808 53.538C99.307 52.039 100.133 50.046 100.133 47.926L100.133 47.612C100.133 43.236 96.573 39.675 92.196 39.675 87.82 39.675 84.259 43.236 84.259 47.612L84.256 47.782C84.223 49.159 84.553 50.52 85.21 51.717L81.702 53.64C80.708 51.826 80.208 49.767 80.257 47.687L80.26 47.564C80.259 41.03 85.614 35.675 92.196 35.675 98.778 35.675 104.133 41.03 104.133 47.612L104.133 47.926zM92.196 34.675C85.063 34.675 79.259 40.457 79.259 47.54L79.256 47.664C79.204 49.918 79.746 52.151 80.825 54.121L81.305 54.998 86.567 52.114 86.086 51.237C85.514 50.193 85.227 49.006 85.255 47.805L85.259 47.612C85.259 43.787 88.371 40.675 92.196 40.675 96.021 40.675 99.133 43.787 99.133 47.612L99.133 47.926C99.133 49.778 98.412 51.521 97.101 52.831L93.713 56.219C90.723 59.209 89.077 63.185 89.077 67.414L89.077 71.718 95.077 71.718 95.077 67.414C95.077 64.787 96.099 62.318 97.956 60.461L101.344 57.073C103.788 54.63 105.133 51.381 105.133 47.926L105.133 47.612C105.133 40.479 99.33 34.675 92.196 34.675z"/>
    <path fill="#434A4F" d="M103.133 47.926C103.133 50.847 101.996 53.593 99.93 55.659L96.542 59.047C94.307 61.281 93.077 64.252 93.077 67.414L93.077 69.718 91.077 69.718 91.077 67.414C91.077 63.719 92.515 60.246 95.127 57.633L98.515 54.245C100.204 52.557 101.133 50.313 101.133 47.926L101.133 47.612C101.133 42.684 97.123 38.675 92.196 38.675 87.268 38.675 83.259 42.684 83.259 47.589L83.255 47.759C83.227 48.974 83.45 50.179 83.903 51.293L82.139 52.26C81.523 50.833 81.219 49.278 81.256 47.711L81.259 47.564C81.259 41.56 86.165 36.675 92.196 36.675 98.227 36.675 103.133 41.581 103.133 47.612L103.133 47.926zM92.196 35.675C85.614 35.675 80.259 41.03 80.26 47.564L80.257 47.687C80.208 49.767 80.708 51.826 81.702 53.64L85.21 51.717C84.553 50.52 84.223 49.159 84.256 47.782L84.259 47.612C84.259 43.236 87.82 39.675 92.196 39.675 96.573 39.675 100.133 43.236 100.133 47.612L100.133 47.926C100.133 50.046 99.307 52.039 97.808 53.538L94.421 56.926C91.619 59.727 90.076 63.452 90.076 67.414L90.076 70.718 94.076 70.718 94.076 67.414C94.076 64.52 95.203 61.8 97.249 59.754L100.637 56.366C102.891 54.112 104.133 51.114 104.133 47.926L104.133 47.612C104.133 41.03 98.778 35.675 92.196 35.675zM92.28 76.003C91.177 76.003 90.28 76.899 90.28 78.003 90.28 79.105 91.177 80.003 92.28 80.003 93.382 80.003 94.28 79.105 94.28 78.003 94.28 76.899 93.382 76.003 92.28 76.003zM92.28 82.003C90.074 82.003 88.28 80.208 88.28 78.003 88.28 75.797 90.074 74.003 92.28 74.003 94.486 74.003 96.28 75.797 96.28 78.003 96.28 80.208 94.486 82.003 92.28 82.003z"/>
  </g>
</svg>
