<svg xmlns="http://www.w3.org/2000/svg" width="250" height="250" viewBox="0 0 250 250">
  <g fill="none" fill-rule="evenodd">
    <polyline fill="#DBDBD5" points="196.632 131.797 181.067 125.126 178.393 126.73 186.626 134.963 183.797 137.791 175.686 129.68 174.062 132.947 180.859 149.407 185.692 139.686 192.773 146.767 195.696 144.033 188.399 136.736 196.632 131.797"/>
    <path fill="#DBDBD5" d="M89.843,39.952 C89.29,39.952 88.843,39.505 88.843,38.952 C88.843,38.4 89.29,37.952 89.843,37.952 C90.395,37.952 90.843,38.4 90.843,38.952 C90.843,39.505 90.395,39.952 89.843,39.952 Z M85.84,39.952 C85.288,39.952 84.84,39.505 84.84,38.952 C84.84,38.4 85.288,37.952 85.84,37.952 C86.393,37.952 86.84,38.4 86.84,38.952 C86.84,39.505 86.393,39.952 85.84,39.952 Z M81.838,39.952 C81.286,39.952 80.838,39.505 80.838,38.952 C80.838,38.4 81.286,37.952 81.838,37.952 C82.39,37.952 82.838,38.4 82.838,38.952 C82.838,39.505 82.39,39.952 81.838,39.952 Z M78.841,41.452 L170.842,41.452 L170.842,35.452 L78.841,35.452 L78.841,41.452 Z"/>
    <polygon fill="#434A4F" points="119.51 191.461 130.325 191.461 130.325 189.461 119.51 189.461"/>
    <polygon fill="#DBDBD5" points="110.855 179.666 138.99 179.666 138.99 167.763 110.855 167.763"/>
    <path fill="#DBDBD5" d="M111.855,178.666 L137.99,178.666 L137.99,168.763 L111.855,168.763 L111.855,178.666 Z M109.855,180.666 L139.99,180.666 L139.99,166.763 L109.855,166.763 L109.855,180.666 Z"/>
    <polygon fill="#DBDBD5" points="148.734 146.115 155.224 146.115 155.224 141.789 148.734 141.789"/>
    <path fill="#DBDBD5" d="M149.734,145.115 L154.224,145.115 L154.224,142.789 L149.734,142.789 L149.734,145.115 Z M147.734,147.115 L156.224,147.115 L156.224,140.789 L147.734,140.789 L147.734,147.115 Z"/>
    <polygon fill="#DBDBD5" points="94.62 146.115 101.11 146.115 101.11 141.789 94.62 141.789"/>
    <path fill="#DBDBD5" d="M95.62,145.115 L100.11,145.115 L100.11,142.789 L95.62,142.789 L95.62,145.115 Z M93.62,147.115 L102.11,147.115 L102.11,140.789 L93.62,140.789 L93.62,147.115 Z"/>
    <polygon fill="#DBDBD5" points="164.969 154.774 171.458 154.774 171.458 150.447 164.969 150.447"/>
    <path fill="#DBDBD5" d="M165.968,153.774 L170.459,153.774 L170.459,151.447 L165.968,151.447 L165.968,153.774 Z M163.968,155.774 L172.459,155.774 L172.459,149.447 L163.968,149.447 L163.968,155.774 Z"/>
    <polygon fill="#DBDBD5" points="154.146 154.774 160.636 154.774 160.636 150.447 154.146 150.447"/>
    <path fill="#DBDBD5" d="M155.146,153.774 L159.635,153.774 L159.635,151.447 L155.146,151.447 L155.146,153.774 Z M153.146,155.774 L161.635,155.774 L161.635,149.447 L153.146,149.447 L153.146,155.774 Z"/>
    <polygon fill="#DBDBD5" points="143.323 154.774 149.813 154.774 149.813 150.447 143.323 150.447"/>
    <path fill="#DBDBD5" d="M144.323,153.774 L148.813,153.774 L148.813,151.447 L144.323,151.447 L144.323,153.774 Z M142.323,155.774 L150.813,155.774 L150.813,149.447 L142.323,149.447 L142.323,155.774 Z"/>
    <polygon fill="#DBDBD5" points="132.5 154.774 138.99 154.774 138.99 150.447 132.5 150.447"/>
    <path fill="#DBDBD5" d="M133.501,153.774 L137.99,153.774 L137.99,151.447 L133.501,151.447 L133.501,153.774 Z M131.501,155.774 L139.99,155.774 L139.99,149.447 L131.501,149.447 L131.501,155.774 Z"/>
    <polygon fill="#DBDBD5" points="110.855 154.774 117.344 154.774 117.344 150.447 110.855 150.447"/>
    <path fill="#DBDBD5" d="M111.855,153.774 L116.344,153.774 L116.344,151.447 L111.855,151.447 L111.855,153.774 Z M109.855,155.774 L118.344,155.774 L118.344,149.447 L109.855,149.447 L109.855,155.774 Z"/>
    <polygon fill="#DBDBD5" points="100.032 154.774 106.522 154.774 106.522 150.447 100.032 150.447"/>
    <path fill="#DBDBD5" d="M101.032,153.774 L105.522,153.774 L105.522,151.447 L101.032,151.447 L101.032,153.774 Z M99.032,155.774 L107.522,155.774 L107.522,149.447 L99.032,149.447 L99.032,155.774 Z"/>
    <polygon fill="#DBDBD5" points="89.209 154.774 95.699 154.774 95.699 150.447 89.209 150.447"/>
    <path fill="#DBDBD5" d="M90.209,153.774 L94.699,153.774 L94.699,151.447 L90.209,151.447 L90.209,153.774 Z M88.209,155.774 L96.699,155.774 L96.699,149.447 L88.209,149.447 L88.209,155.774 Z"/>
    <polygon fill="#DBDBD5" points="78.386 154.774 84.876 154.774 84.876 150.447 78.386 150.447"/>
    <path fill="#DBDBD5" d="M79.386,153.774 L83.876,153.774 L83.876,151.447 L79.386,151.447 L79.386,153.774 Z M77.386,155.774 L85.876,155.774 L85.876,149.447 L77.386,149.447 L77.386,155.774 Z"/>
    <polygon fill="#DBDBD5" points="159.557 163.432 166.047 163.432 166.047 159.105 159.557 159.105"/>
    <path fill="#DBDBD5" d="M160.557,162.432 L165.047,162.432 L165.047,160.105 L160.557,160.105 L160.557,162.432 Z M158.557,164.432 L167.047,164.432 L167.047,158.105 L158.557,158.105 L158.557,164.432 Z"/>
    <polygon fill="#DBDBD5" points="148.734 163.432 155.224 163.432 155.224 159.105 148.734 159.105"/>
    <path fill="#DBDBD5" d="M149.734,162.432 L154.224,162.432 L154.224,160.105 L149.734,160.105 L149.734,162.432 Z M147.734,164.432 L156.224,164.432 L156.224,158.105 L147.734,158.105 L147.734,164.432 Z"/>
    <polygon fill="#DBDBD5" points="137.912 163.432 144.401 163.432 144.401 159.105 137.912 159.105"/>
    <path fill="#DBDBD5" d="M138.912,162.432 L143.401,162.432 L143.401,160.105 L138.912,160.105 L138.912,162.432 Z M136.912,164.432 L145.401,164.432 L145.401,158.105 L136.912,158.105 L136.912,164.432 Z"/>
    <polygon fill="#DBDBD5" points="105.443 163.432 111.933 163.432 111.933 159.105 105.443 159.105"/>
    <path fill="#DBDBD5" d="M106.443,162.432 L110.933,162.432 L110.933,160.105 L106.443,160.105 L106.443,162.432 Z M104.443,164.432 L112.933,164.432 L112.933,158.105 L104.443,158.105 L104.443,164.432 Z"/>
    <polygon fill="#DBDBD5" points="94.62 163.432 101.11 163.432 101.11 159.105 94.62 159.105"/>
    <path fill="#DBDBD5" d="M95.62,162.432 L100.11,162.432 L100.11,160.105 L95.62,160.105 L95.62,162.432 Z M93.62,164.432 L102.11,164.432 L102.11,158.105 L93.62,158.105 L93.62,164.432 Z"/>
    <polygon fill="#DBDBD5" points="83.798 163.432 90.288 163.432 90.288 159.105 83.798 159.105"/>
    <path fill="#DBDBD5" d="M84.798,162.432 L89.288,162.432 L89.288,160.105 L84.798,160.105 L84.798,162.432 Z M82.798,164.432 L91.288,164.432 L91.288,158.105 L82.798,158.105 L82.798,164.432 Z"/>
    <path fill="#434A4F" d="M72.746 117.129L70.746 117.129 70.746 69.319C70.746 67.575 72.165 66.156 73.909 66.156L78.841 66.156 78.841 68.156 73.909 68.156C73.268 68.156 72.746 68.678 72.746 69.319L72.746 117.129M178.541 97.121L176.541 97.121 176.541 69.319C176.541 68.678 176.019 68.156 175.378 68.156L170.842 68.156 170.842 66.156 175.378 66.156C177.122 66.156 178.541 67.575 178.541 69.319L178.541 97.121"/>
    <polygon fill="#DBDBD5" points="83.798 146.115 90.288 146.115 90.288 141.789 83.798 141.789"/>
    <path fill="#DBDBD5" d="M84.798,145.115 L89.288,145.115 L89.288,142.789 L84.798,142.789 L84.798,145.115 Z M82.798,147.115 L91.288,147.115 L91.288,140.789 L82.798,140.789 L82.798,147.115 Z"/>
    <polygon fill="#DBDBD5" points="105.443 146.115 111.933 146.115 111.933 141.789 105.443 141.789"/>
    <path fill="#DBDBD5" d="M106.443,145.115 L110.933,145.115 L110.933,142.789 L106.443,142.789 L106.443,145.115 Z M104.443,147.115 L112.933,147.115 L112.933,140.789 L104.443,140.789 L104.443,147.115 Z"/>
    <polygon fill="#DBDBD5" points="116.266 146.115 122.756 146.115 122.756 141.789 116.266 141.789"/>
    <path fill="#DBDBD5" d="M117.266,145.115 L121.756,145.115 L121.756,142.789 L117.266,142.789 L117.266,145.115 Z M115.266,147.115 L123.756,147.115 L123.756,140.789 L115.266,140.789 L115.266,147.115 Z"/>
    <polygon fill="#DBDBD5" points="127.089 146.115 133.579 146.115 133.579 141.789 127.089 141.789"/>
    <path fill="#DBDBD5" d="M128.089,145.115 L132.579,145.115 L132.579,142.789 L128.089,142.789 L128.089,145.115 Z M126.089,147.115 L134.579,147.115 L134.579,140.789 L126.089,140.789 L126.089,147.115 Z"/>
    <polygon fill="#DBDBD5" points="137.912 146.115 144.401 146.115 144.401 141.789 137.912 141.789"/>
    <path fill="#DBDBD5" d="M138.912,145.115 L143.401,145.115 L143.401,142.789 L138.912,142.789 L138.912,145.115 Z M136.912,147.115 L145.401,147.115 L145.401,140.789 L136.912,140.789 L136.912,147.115 Z"/>
    <polygon fill="#DBDBD5" points="159.557 146.115 166.047 146.115 166.047 141.789 159.557 141.789"/>
    <path fill="#DBDBD5" d="M160.557,145.115 L165.047,145.115 L165.047,142.789 L160.557,142.789 L160.557,145.115 Z M158.557,147.115 L167.047,147.115 L167.047,140.789 L158.557,140.789 L158.557,147.115 Z"/>
    <polygon fill="#DBDBD5" points="121.677 154.774 128.167 154.774 128.167 150.447 121.677 150.447"/>
    <path fill="#DBDBD5" d="M122.677,153.774 L127.168,153.774 L127.168,151.447 L122.677,151.447 L122.677,153.774 Z M120.677,155.774 L129.168,155.774 L129.168,149.447 L120.677,149.447 L120.677,155.774 Z"/>
    <polygon fill="#DBDBD5" points="116.266 163.432 122.756 163.432 122.756 159.105 116.266 159.105"/>
    <path fill="#DBDBD5" d="M117.266,162.432 L121.756,162.432 L121.756,160.105 L117.266,160.105 L117.266,162.432 Z M115.266,164.432 L123.756,164.432 L123.756,158.105 L115.266,158.105 L115.266,164.432 Z"/>
    <polygon fill="#DBDBD5" points="127.089 163.432 133.579 163.432 133.579 159.105 127.089 159.105"/>
    <path fill="#DBDBD5" d="M128.089,162.432 L132.579,162.432 L132.579,160.105 L128.089,160.105 L128.089,162.432 Z M126.089,164.432 L134.579,164.432 L134.579,158.105 L126.089,158.105 L126.089,164.432 Z"/>
    <polygon fill="#434A4F" points="68.673 182.808 79.842 182.808 79.842 180.808 68.673 180.808"/>
    <polygon fill="#434A4F" points="171.671 182.808 181.163 182.808 181.163 180.808 171.671 180.808"/>
    <polygon fill="#434A4F" points="122.755 184.971 127.081 184.971 127.081 182.971 122.755 182.971"/>
    <polyline fill="#75C7D0" points="168.841 215.369 168.756 200.794 138.282 200.973 138.367 215.548 168.841 215.369"/>
    <polygon fill="#75C7D0" points="82.591 215.458 113.066 215.458 113.066 200.884 82.591 200.884"/>
    <path fill="#434A4F" d="M165.385,196.355 C165.385,196.355 165.385,196.355 165.385,196.356 C165.385,196.355 165.385,196.355 165.385,196.355 Z M165.352,196.682 C165.351,196.684 165.351,196.685 165.35,196.686 C165.351,196.685 165.351,196.684 165.352,196.682 Z M164.418,201.884 C163.865,201.884 163.418,201.436 163.418,200.884 L163.418,196.715 C163.389,196.561 163.36,196.284 163.486,195.962 C165.967,189.545 167.224,183.028 167.224,176.597 L167.224,161.704 C167.224,160.295 166.058,159.001 164.73,158.936 C163.991,158.896 163.308,159.155 162.785,159.654 C162.376,160.043 162.107,160.54 162.005,161.087 L161.957,172.466 C161.955,173.016 161.508,173.461 160.957,173.461 C160.956,173.461 160.956,173.461 160.955,173.461 C160.403,173.46 159.957,173.012 159.957,172.461 L159.957,161.599 C159.957,161.374 159.973,161.151 160.005,160.93 L160.017,157.933 C160.017,156.495 158.946,154.652 157.617,154.525 C156.844,154.449 156.12,154.694 155.557,155.205 C155.003,155.709 154.684,156.429 154.684,157.178 L154.684,172.461 C154.684,173.013 154.237,173.461 153.684,173.461 C153.132,173.461 152.684,173.013 152.684,172.461 L152.684,153.954 C152.684,152.573 151.55,151.266 150.255,151.156 C149.47,151.088 148.676,151.362 148.085,151.905 C147.526,152.417 147.218,153.095 147.218,153.812 L147.218,156.846 C147.218,156.86 147.218,156.873 147.218,156.886 L147.217,172.461 C147.217,173.013 146.769,173.461 146.217,173.461 C145.665,173.461 145.217,173.013 145.217,172.461 L145.218,156.855 C145.204,155.445 144.214,154.231 142.903,154.024 C142.102,153.898 141.334,154.113 140.731,154.628 C140.137,155.136 139.797,155.875 139.797,156.656 L139.796,180.572 C139.796,181.124 139.347,181.572 138.796,181.572 C138.243,181.572 137.796,181.124 137.796,180.572 L137.796,174.43 C137.796,172.971 136.609,171.784 135.15,171.784 C134.441,171.784 133.775,172.061 133.275,172.564 C132.774,173.066 132.501,173.734 132.504,174.443 L132.526,179.332 C132.457,183.601 133.407,186.234 135.914,188.741 L140.79,194.445 C141.41,195.062 141.918,196.288 141.918,197.24 L141.918,200.884 C141.918,201.436 141.47,201.884 140.918,201.884 C140.365,201.884 139.918,201.436 139.918,200.884 L139.918,197.24 C139.918,196.815 139.623,196.102 139.322,195.801 L134.446,190.097 C131.599,187.255 130.449,184.115 130.526,179.321 L130.504,174.452 C130.498,173.206 130.979,172.035 131.857,171.153 C132.736,170.27 133.905,169.784 135.15,169.784 C136.133,169.784 137.045,170.091 137.796,170.614 L137.797,156.656 C137.797,155.29 138.392,153.996 139.431,153.108 C140.47,152.219 141.854,151.834 143.214,152.049 C143.99,152.171 144.702,152.492 145.302,152.957 C145.491,152.004 145.989,151.114 146.732,150.431 C147.734,149.51 149.082,149.053 150.425,149.163 C152.547,149.343 154.366,151.211 154.647,153.376 C155.556,152.73 156.681,152.424 157.806,152.533 C160.212,152.763 161.91,155.401 162.012,157.717 C162.835,157.161 163.816,156.892 164.828,156.938 C167.212,157.055 169.224,159.238 169.224,161.704 L169.224,176.597 C169.224,183.223 167.941,189.929 165.411,196.531 C165.415,196.571 165.418,196.608 165.418,196.632 L165.418,200.884 C165.418,201.436 164.97,201.884 164.418,201.884 Z"/>
    <path fill="#434A4F" d="M142.87 176.448C142.61 176.448 142.349 176.348 142.16 176.158 142.07 176.068 142 175.958 141.95 175.838 141.9 175.718 141.87 175.588 141.87 175.448 141.87 175.188 141.979 174.928 142.16 174.748 142.4 174.518 142.74 174.408 143.07 174.468 143.13 174.488 143.189 174.508 143.25 174.528 143.309 174.558 143.37 174.588 143.429 174.618 143.479 174.658 143.53 174.698 143.58 174.748 143.759 174.928 143.87 175.188 143.87 175.448 143.87 175.718 143.759 175.978 143.58 176.158 143.53 176.208 143.479 176.248 143.429 176.288 143.37 176.318 143.309 176.348 143.25 176.378 143.189 176.398 143.13 176.418 143.07 176.428 143 176.448 142.939 176.448 142.87 176.448M150.21 176.448C149.939 176.448 149.679 176.348 149.5 176.158 149.46 176.118 149.41 176.058 149.38 176.008 149.34 175.948 149.309 175.898 149.28 175.838 149.259 175.778 149.24 175.708 149.229 175.648 149.21 175.588 149.21 175.518 149.21 175.448 149.21 175.188 149.309 174.928 149.5 174.748 149.87 174.378 150.54 174.368 150.91 174.748 151.099 174.928 151.21 175.188 151.21 175.448 151.21 175.718 151.099 175.978 150.91 176.158 150.729 176.348 150.469 176.448 150.21 176.448M157.55 176.458C157.479 176.458 157.42 176.448 157.349 176.438 157.29 176.418 157.219 176.398 157.16 176.378 157.099 176.348 157.04 176.318 156.99 176.288 156.929 176.248 156.88 176.208 156.84 176.158 156.65 175.978 156.54 175.718 156.54 175.448 156.54 175.388 156.55 175.318 156.559 175.258 156.58 175.198 156.599 175.128 156.62 175.068 156.65 175.008 156.679 174.948 156.71 174.898 156.75 174.838 156.79 174.788 156.84 174.748 156.88 174.698 156.929 174.658 156.99 174.618 157.04 174.588 157.099 174.558 157.16 174.528 157.219 174.508 157.29 174.488 157.349 174.468 157.679 174.408 158.019 174.508 158.25 174.748 158.3 174.788 158.34 174.838 158.38 174.898 158.41 174.948 158.439 175.008 158.469 175.068 158.49 175.128 158.509 175.198 158.53 175.258 158.54 175.318 158.55 175.388 158.55 175.448 158.55 175.718 158.439 175.978 158.25 176.158 158.07 176.348 157.809 176.458 157.55 176.458M164.88 176.448C164.62 176.448 164.36 176.348 164.179 176.158 164.13 176.118 164.09 176.068 164.05 176.008 164.019 175.958 163.979 175.898 163.96 175.838 163.929 175.778 163.92 175.708 163.9 175.648 163.889 175.588 163.88 175.518 163.88 175.458 163.88 175.188 163.99 174.928 164.179 174.748 164.55 174.378 165.219 174.378 165.59 174.748 165.78 174.928 165.88 175.188 165.88 175.458 165.88 175.518 165.88 175.588 165.86 175.648 165.849 175.708 165.83 175.778 165.809 175.838 165.78 175.898 165.75 175.958 165.71 176.008 165.679 176.068 165.639 176.118 165.59 176.158 165.4 176.348 165.15 176.448 164.88 176.448"/>
    <polygon fill="#434A4F" points="138.221 201.884 168.696 201.884 168.696 199.884 138.221 199.884"/>
    <path fill="#434A4F" d="M160.96 209.128C160.689 209.128 160.429 209.018 160.25 208.838 160.059 208.648 159.96 208.398 159.96 208.128 159.96 207.998 159.979 207.868 160.03 207.748 160.08 207.628 160.16 207.518 160.25 207.418 160.34 207.328 160.45 207.258 160.57 207.208 160.939 207.058 161.389 207.138 161.66 207.418 161.849 207.608 161.96 207.868 161.96 208.128 161.96 208.198 161.95 208.258 161.939 208.328 161.92 208.388 161.9 208.448 161.88 208.508 161.849 208.568 161.82 208.628 161.79 208.688 161.75 208.738 161.71 208.788 161.66 208.838 161.62 208.878 161.57 208.928 161.509 208.958 161.46 208.998 161.4 209.028 161.34 209.048 161.28 209.078 161.219 209.098 161.15 209.108 161.09 209.118 161.019 209.128 160.96 209.128M110.37 201.884C109.818 201.884 109.37 201.436 109.37 200.884L109.37 197.24C109.37 196.287 109.878 195.061 110.552 194.387L115.321 188.799C117.881 186.234 118.83 183.602 118.762 179.353L118.784 174.443C118.788 173.734 118.514 173.067 118.014 172.564 117.513 172.061 116.847 171.784 116.138 171.784 114.679 171.784 113.492 172.971 113.492 174.43L113.492 180.572C113.492 181.124 113.044 181.572 112.492 181.572 111.94 181.572 111.492 181.124 111.492 180.572L111.492 156.656C111.492 155.875 111.151 155.136 110.557 154.628 109.954 154.113 109.181 153.897 108.385 154.024 107.072 154.231 106.08 155.45 106.07 156.865L106.07 172.461C106.07 173.013 105.622 173.461 105.07 173.461 104.518 173.461 104.07 173.013 104.07 172.461L104.07 156.886C104.07 156.877 104.07 156.867 104.07 156.858L104.07 153.812C104.07 153.095 103.762 152.418 103.203 151.905 102.613 151.362 101.82 151.09 101.033 151.156 99.739 151.266 98.603 152.573 98.603 153.954L98.604 172.461C98.604 173.013 98.156 173.461 97.604 173.461 97.051 173.461 96.604 173.013 96.604 172.461L96.603 157.178C96.603 156.429 96.285 155.709 95.73 155.205 95.168 154.694 94.444 154.448 93.671 154.525 92.341 154.652 91.27 156.495 91.27 157.937L91.283 160.93C91.315 161.151 91.331 161.374 91.331 161.599L91.331 172.461C91.331 173.012 90.884 173.46 90.333 173.461 90.332 173.461 90.331 173.461 90.331 173.461 89.78 173.461 89.333 173.016 89.331 172.466L89.283 161.087C89.18 160.54 88.912 160.043 88.503 159.654 87.979 159.155 87.293 158.898 86.558 158.936 85.229 159.001 84.063 160.295 84.063 161.704L84.063 176.597C84.063 183.027 85.322 189.544 87.803 195.966 87.928 196.29 87.897 196.569 87.87 196.715L87.87 200.884C87.87 201.436 87.423 201.884 86.87 201.884 86.318 201.884 85.87 201.436 85.87 200.884L85.87 196.632C85.87 196.605 85.873 196.568 85.877 196.529 83.346 189.927 82.063 183.221 82.063 176.597L82.063 161.704C82.063 159.238 84.076 157.055 86.46 156.938 87.488 156.891 88.454 157.161 89.275 157.717 89.38 155.398 91.078 152.763 93.481 152.533 94.606 152.424 95.732 152.73 96.641 153.375 96.922 151.211 98.741 149.343 100.864 149.163 102.21 149.053 103.554 149.511 104.556 150.431 105.299 151.114 105.797 152.004 105.986 152.957 106.586 152.492 107.298 152.171 108.074 152.049 109.436 151.831 110.818 152.22 111.857 153.108 112.896 153.997 113.492 155.29 113.492 156.656L113.492 170.614C114.243 170.091 115.155 169.784 116.138 169.784 117.383 169.784 118.553 170.27 119.431 171.153 120.309 172.035 120.79 173.207 120.784 174.452L120.762 179.341C120.839 184.116 119.688 187.255 116.788 190.155L112.019 195.744C111.665 196.102 111.37 196.815 111.37 197.24L111.37 200.884C111.37 201.436 110.923 201.884 110.37 201.884"/>
    <path fill="#434A4F" d="M86.84 176.458C86.58 176.458 86.32 176.348 86.13 176.158 85.94 175.978 85.84 175.718 85.84 175.448 85.84 175.188 85.94 174.928 86.13 174.748 86.219 174.648 86.33 174.578 86.449 174.528 86.699 174.428 86.98 174.428 87.219 174.528 87.34 174.578 87.449 174.648 87.54 174.748 87.59 174.788 87.63 174.838 87.67 174.898 87.699 174.948 87.74 175.008 87.759 175.068 87.79 175.128 87.81 175.198 87.82 175.258 87.83 175.318 87.84 175.388 87.84 175.448 87.84 175.718 87.73 175.968 87.54 176.158 87.36 176.348 87.1 176.458 86.84 176.458M94.18 176.448C93.91 176.448 93.65 176.348 93.469 176.158 93.38 176.068 93.299 175.958 93.25 175.838 93.199 175.708 93.18 175.588 93.18 175.448 93.18 175.318 93.199 175.188 93.25 175.068 93.299 174.948 93.38 174.838 93.469 174.748 93.84 174.378 94.509 174.368 94.88 174.748 94.969 174.838 95.049 174.948 95.1 175.068 95.15 175.188 95.18 175.318 95.18 175.448 95.18 175.718 95.07 175.968 94.88 176.158 94.699 176.348 94.44 176.448 94.18 176.448M101.509 176.448C101.25 176.448 100.989 176.348 100.8 176.158 100.62 175.968 100.509 175.718 100.509 175.458 100.509 175.188 100.62 174.928 100.8 174.748 100.85 174.698 100.9 174.658 100.96 174.618 101.009 174.588 101.07 174.558 101.13 174.528 101.19 174.508 101.25 174.488 101.32 174.468 101.64 174.408 101.989 174.518 102.219 174.748 102.27 174.788 102.31 174.838 102.34 174.898 102.38 174.948 102.41 175.008 102.44 175.068 102.46 175.128 102.48 175.198 102.489 175.258 102.509 175.318 102.509 175.388 102.509 175.458 102.509 175.718 102.41 175.968 102.219 176.158 102.03 176.348 101.78 176.448 101.509 176.448M108.85 176.448C108.79 176.448 108.719 176.448 108.65 176.438 108.59 176.418 108.53 176.398 108.469 176.378 108.41 176.348 108.35 176.318 108.3 176.288 108.239 176.248 108.19 176.208 108.14 176.158 107.96 175.978 107.85 175.718 107.85 175.448 107.85 175.318 107.88 175.188 107.93 175.068 107.98 174.948 108.05 174.838 108.14 174.748 108.19 174.698 108.239 174.658 108.3 174.618 108.35 174.588 108.41 174.558 108.469 174.528 108.53 174.508 108.59 174.488 108.65 174.468 108.85 174.438 109.05 174.458 109.23 174.528 109.36 174.578 109.469 174.648 109.56 174.748 109.65 174.838 109.719 174.948 109.77 175.068 109.82 175.188 109.85 175.318 109.85 175.448 109.85 175.518 109.84 175.588 109.83 175.648 109.82 175.708 109.8 175.778 109.77 175.838 109.75 175.898 109.719 175.958 109.68 176.008 109.65 176.058 109.6 176.118 109.56 176.158 109.469 176.248 109.36 176.328 109.23 176.378 109.11 176.428 108.98 176.448 108.85 176.448"/>
    <polygon fill="#434A4F" points="82.591 201.884 113.066 201.884 113.066 199.884 82.591 199.884"/>
    <path fill="#434A4F" d="M90.33,209.128 C90.199,209.128 90.07,209.108 89.949,209.048 C89.83,208.998 89.719,208.928 89.62,208.838 C89.44,208.648 89.33,208.388 89.33,208.128 C89.33,207.868 89.44,207.608 89.62,207.418 C89.719,207.328 89.83,207.258 89.949,207.208 C90.19,207.098 90.469,207.098 90.71,207.208 C90.84,207.258 90.94,207.328 91.04,207.418 C91.219,207.608 91.33,207.868 91.33,208.128 C91.33,208.388 91.219,208.648 91.04,208.838 C90.94,208.928 90.84,208.998 90.71,209.048 C90.59,209.108 90.46,209.128 90.33,209.128"/>
    <polygon fill="#42494E" points="171.024 102.027 186.01 102.027 186.01 100.027 171.024 100.027"/>
    <polygon fill="#42494E" points="60.958 102.027 78.946 102.027 78.946 100.027 60.958 100.027"/>
    <path fill="#42494E" d="M192.62,106.055 L171.024,106.055 L171.024,104.055 L192.62,104.055 C194.274,104.055 195.62,102.71 195.62,101.055 C195.62,99.401 194.274,98.055 192.62,98.055 L171.024,98.055 L171.024,96.055 L192.62,96.055 C195.377,96.055 197.62,98.299 197.62,101.055 C197.62,103.812 195.377,106.055 192.62,106.055"/>
    <polygon fill="#42494E" points="185.01 105.055 187.01 105.055 187.01 97.457 185.01 97.457"/>
    <polyline fill="#42494E" points="78.946 106.055 59.97 106.055 49.127 101.055 59.97 96.055 78.946 96.055 78.946 98.055 60.408 98.055 53.903 101.055 60.408 104.055 78.946 104.055 78.946 106.055"/>
    <polyline fill="#434A4F" points="167.158 130.452 79.841 130.452 79.841 36.452 169.872 36.452 169.842 73.576 169.842 114.598 171.847 115.457 171.874 34.452 77.841 34.452 77.841 132.452 167.984 132.452 167.158 130.452"/>
    <polygon fill="#434A4F" points="209.103 123.405 211.103 123.405 211.103 119.405 209.103 119.405"/>
    <polygon fill="#434A4F" points="209.103 133.405 211.103 133.405 211.103 129.405 209.103 129.405"/>
    <polygon fill="#434A4F" points="213.103 127.405 217.103 127.405 217.103 125.405 213.103 125.405"/>
    <polygon fill="#434A4F" points="203.103 127.405 207.103 127.405 207.103 125.405 203.103 125.405"/>
    <polygon fill="#434A4F" points="46.005 182.44 48.005 182.44 48.005 178.44 46.005 178.44"/>
    <polygon fill="#434A4F" points="46.005 192.44 48.005 192.44 48.005 188.44 46.005 188.44"/>
    <polygon fill="#434A4F" points="50.005 186.44 54.005 186.44 54.005 184.44 50.005 184.44"/>
    <polygon fill="#434A4F" points="40.005 186.44 44.005 186.44 44.005 184.44 40.005 184.44"/>
    <path fill="#75C7D0" d="M196.697 115.951C196.697 117.516 195.429 118.785 193.864 118.785 192.299 118.785 191.03 117.516 191.03 115.951 191.03 114.386 192.299 113.118 193.864 113.118 195.429 113.118 196.697 114.386 196.697 115.951M68.62 58.917C68.62 60.482 67.352 61.75 65.787 61.75 64.222 61.75 62.954 60.482 62.954 58.917 62.954 57.352 64.222 56.084 65.787 56.084 67.352 56.084 68.62 57.352 68.62 58.917M34.706 154.129C34.706 155.694 33.437 156.963 31.873 156.963 30.308 156.963 29.039 155.694 29.039 154.129 29.039 152.564 30.308 151.296 31.873 151.296 33.437 151.296 34.706 152.564 34.706 154.129"/>
    <path fill="#FACD60" d="M190.572,199.944 C190.572,200.803 189.918,201.5 189.112,201.5 C188.306,201.5 187.653,200.803 187.653,199.944 C187.653,199.085 188.306,198.388 189.112,198.388 C189.918,198.388 190.572,199.085 190.572,199.944"/>
    <path fill="#434A4F" d="M64.91 186.041L64.91 180.248 70.883 147.557C70.141 148.351 69.327 149.078 68.452 149.729L62.926 179.978 62.91 186.041C62.91 188.753 65.116 190.959 67.828 190.959L82.006 190.959 82.006 188.959 67.828 188.959C66.219 188.959 64.91 187.65 64.91 186.041M178.375 136.265L75.734 136.265C75.694 136.943 75.614 137.609 75.501 138.265L176.707 138.265 184.378 180.248 184.378 186.041C184.378 187.65 183.068 188.959 181.459 188.959L169.508 188.959 169.508 190.959 181.459 190.959C184.171 190.959 186.378 188.753 186.378 186.041L186.378 180.157 178.375 136.265"/>
    <path fill="#42494E" d="M57.654,118.044 C57.425,118.044 57.196,118.049 56.966,118.057 C47.525,118.425 40.143,126.406 40.509,135.846 C40.688,140.42 42.636,144.651 45.996,147.759 C49.356,150.867 53.727,152.485 58.298,152.303 C62.872,152.125 67.103,150.177 70.211,146.817 C73.319,143.457 74.933,139.088 74.755,134.514 C74.652,131.878 73.969,129.37 72.723,127.06 L72.561,126.759 L74.061,117.717 L64.85,119.634 L64.556,119.504 C62.364,118.534 60.046,118.044 57.654,118.044 Z M57.614,154.317 C52.785,154.317 48.202,152.525 44.637,149.227 C40.886,145.756 38.71,141.032 38.511,135.925 C38.101,125.381 46.345,116.469 56.888,116.059 C59.729,115.943 62.472,116.449 65.067,117.546 L76.511,115.164 L74.645,126.416 C75.935,128.913 76.644,131.609 76.753,134.437 C76.952,139.544 75.15,144.423 71.679,148.175 C68.208,151.927 63.484,154.103 58.376,154.302 C58.122,154.312 57.867,154.317 57.614,154.317 Z"/>
    <polygon fill="#434A4F" points="49.873 132.463 65.623 132.463 65.623 130.463 49.873 130.463"/>
    <polygon fill="#434A4F" points="49.873 136.465 65.623 136.465 65.623 134.465 49.873 134.465"/>
    <polygon fill="#434A4F" points="49.873 140.468 65.623 140.468 65.623 138.468 49.873 138.468"/>
    <path fill="#434A4F" d="M84.89 62.468L164.89 62.468 164.89 46.468 84.89 46.468 84.89 62.468zM82.89 64.468L166.89 64.468 166.89 44.468 82.89 44.468 82.89 64.468zM84.89 78.468L106.89 78.468 106.89 68.468 84.89 68.468 84.89 78.468zM82.89 80.468L108.89 80.468 108.89 66.468 82.89 66.468 82.89 80.468zM113.89 78.468L135.89 78.468 135.89 68.468 113.89 68.468 113.89 78.468zM111.89 80.468L137.89 80.468 137.89 66.468 111.89 66.468 111.89 80.468zM142.89 78.468L164.89 78.468 164.89 68.468 142.89 68.468 142.89 78.468zM140.89 80.468L166.89 80.468 166.89 66.468 140.89 66.468 140.89 80.468z"/>
    <polygon fill="#434A4F" points="82.89 84.468 108.89 84.468 108.89 82.468 82.89 82.468"/>
    <polygon fill="#434A4F" points="111.89 84.468 137.89 84.468 137.89 82.468 111.89 82.468"/>
    <polygon fill="#434A4F" points="140.89 84.468 166.89 84.468 166.89 82.468 140.89 82.468"/>
    <polygon fill="#434A4F" points="82.89 88.468 108.89 88.468 108.89 86.468 82.89 86.468"/>
    <polygon fill="#434A4F" points="111.89 88.468 137.89 88.468 137.89 86.468 111.89 86.468"/>
    <polygon fill="#434A4F" points="140.89 88.468 166.89 88.468 166.89 86.468 140.89 86.468"/>
    <polygon fill="#434A4F" points="82.89 92.468 108.89 92.468 108.89 90.468 82.89 90.468"/>
    <polygon fill="#434A4F" points="111.89 92.468 137.89 92.468 137.89 90.468 111.89 90.468"/>
    <polygon fill="#434A4F" points="140.89 92.468 166.89 92.468 166.89 90.468 140.89 90.468"/>
    <polygon fill="#434A4F" points="82.89 96.468 108.89 96.468 108.89 94.468 82.89 94.468"/>
    <polygon fill="#434A4F" points="111.89 96.468 137.89 96.468 137.89 94.468 111.89 94.468"/>
    <polygon fill="#434A4F" points="140.89 96.468 166.89 96.468 166.89 94.468 140.89 94.468"/>
    <path fill="#434A4F" d="M84.89 110.468L106.89 110.468 106.89 100.468 84.89 100.468 84.89 110.468zM82.89 112.468L108.89 112.468 108.89 98.468 82.89 98.468 82.89 112.468zM113.89 110.468L135.89 110.468 135.89 100.468 113.89 100.468 113.89 110.468zM111.89 112.468L137.89 112.468 137.89 98.468 111.89 98.468 111.89 112.468zM142.89 110.468L164.89 110.468 164.89 100.468 142.89 100.468 142.89 110.468zM140.89 112.468L166.89 112.468 166.89 98.468 140.89 98.468 140.89 112.468z"/>
    <polygon fill="#434A4F" points="82.89 116.468 108.89 116.468 108.89 114.468 82.89 114.468"/>
    <polygon fill="#434A4F" points="111.89 116.468 137.89 116.468 137.89 114.468 111.89 114.468"/>
    <polyline fill="#434A4F" points="160.557 114.468 140.89 114.468 140.89 116.468 161.383 116.468 160.557 114.468"/>
    <polygon fill="#434A4F" points="82.89 120.468 108.89 120.468 108.89 118.468 82.89 118.468"/>
    <polygon fill="#434A4F" points="111.89 120.468 137.89 120.468 137.89 118.468 111.89 118.468"/>
    <polygon fill="#434A4F" points="140.89 120.468 163.12 120.468 163.12 118.468 140.89 118.468"/>
    <polygon fill="#434A4F" points="82.89 124.468 108.89 124.468 108.89 122.468 82.89 122.468"/>
    <polygon fill="#434A4F" points="111.89 124.468 137.89 124.468 137.89 122.468 111.89 122.468"/>
    <polygon fill="#434A4F" points="140.89 124.468 164.62 124.468 164.62 122.468 140.89 122.468"/>
    <polygon fill="#434A4F" points="82.89 128.468 108.89 128.468 108.89 126.468 82.89 126.468"/>
    <polygon fill="#434A4F" points="111.89 128.468 137.89 128.468 137.89 126.468 111.89 126.468"/>
    <polyline fill="#434A4F" points="166.89 128.468 140.89 128.468 140.89 126.468 165.995 126.468 166.89 128.468"/>
    <path fill="#434A4F" d="M160.486,111.676 L170.937,136.985 L175.41,127.989 L183.798,136.377 L185.212,134.963 L176.781,126.531 L184.434,121.94 L160.486,111.676 Z M170.769,141.816 L156.765,107.906 L188.817,121.642 L180.006,126.929 L188.04,134.963 L183.798,139.205 L175.963,131.37 L170.769,141.816 Z"/>
    <polygon fill="#434A4F" points="176.541 117.796 178.541 117.796 178.541 105.463 176.541 105.463"/>
    <path fill="#FACD60" d="M220.961,151.48 C220.961,153.136 219.618,154.48 217.961,154.48 C216.304,154.48 214.961,153.136 214.961,151.48 C214.961,149.823 216.304,148.48 217.961,148.48 C219.618,148.48 220.961,149.823 220.961,151.48"/>
  </g>
</svg>
