<svg xmlns="http://www.w3.org/2000/svg" width="250" height="250" viewBox="0 0 250 250">
  <g fill="none" fill-rule="evenodd">
    <path fill="#FACD60" d="M130.081,168.995 L120.081,168.995 L120.081,215 C120.081,217.761 122.319,220 125.081,220 C127.842,220 130.081,217.761 130.081,215 L130.081,168.995"/>
    <path fill="#75C7D0" d="M124,53.001 C102.496,53.001 85,70.496 85,92.001 C85,113.505 102.496,131.001 124,131.001 C145.505,131.001 163,113.505 163,92.001 C163,70.496 145.505,53.001 124,53.001"/>
    <path fill="#434A4F" d="M124.08,36 C93.202,36 68.08,61.122 68.08,92 C68.08,122.878 93.202,148 124.08,148 C154.958,148 180.08,122.878 180.08,92 C180.08,61.122 154.958,36 124.08,36 Z M124.08,150 C92.099,150 66.08,123.981 66.08,92 C66.08,60.019 92.099,34 124.08,34 C156.062,34 182.08,60.019 182.08,92 C182.08,123.981 156.062,150 124.08,150 Z"/>
    <polygon fill="#434A4F" points="122.08 161.968 124.08 161.968 124.08 149.007 122.08 149.007"/>
    <polygon fill="#434A4F" points="126.08 161.968 128.08 161.968 128.08 149.007 126.08 149.007"/>
    <path fill="#434A4F" d="M121.081 162.996L121.081 215C121.081 217.206 122.875 219 125.081 219 127.286 219 129.081 217.206 129.081 215L129.081 162.996 121.081 162.996zM125.081 221C121.772 221 119.081 218.309 119.081 215L119.081 160.996 131.081 160.996 131.081 215C131.081 218.309 128.389 221 125.081 221zM124.08 42C96.51 42 74.08 64.43 74.08 92 74.08 105.355 79.281 117.912 88.725 127.355 98.169 136.799 110.725 142 124.08 142 151.65 142 174.08 119.57 174.08 92 174.08 64.43 151.65 42 124.08 42zM124.08 144C110.191 144 97.132 138.591 87.311 128.77 77.489 118.948 72.08 105.89 72.08 92 72.08 63.327 95.407 40 124.08 40 152.753 40 176.08 63.327 176.08 92 176.08 120.673 152.753 144 124.08 144z"/>
    <path fill="#434A4F" d="M172.08 92L170.08 92C170.08 66.636 149.444 46 124.08 46L124.08 44C150.547 44 172.08 65.533 172.08 92M171.08 96C170.82 96 170.56 95.89 170.37 95.71 170.19 95.52 170.08 95.26 170.08 95 170.08 94.74 170.19 94.48 170.37 94.29 170.75 93.92 171.41 93.92 171.79 94.29 171.97 94.48 172.08 94.74 172.08 95 172.08 95.26 171.97 95.52 171.79 95.71 171.6 95.89 171.34 96 171.08 96M121.05 45.97C120.79 45.97 120.53 45.86 120.34 45.68 120.16 45.49 120.05 45.24 120.05 44.97 120.05 44.71 120.16 44.45 120.34 44.26 120.72 43.89 121.38 43.89 121.76 44.26 121.94 44.45 122.05 44.71 122.05 44.97 122.05 45.24 121.94 45.49 121.76 45.68 121.57 45.86 121.32 45.97 121.05 45.97"/>
    <polygon fill="#434A4F" points="120.081 170 130.081 170 130.081 168 120.081 168"/>
    <path fill="#434A4F" d="M124,51 C101.393,51 83,69.393 83,92.001 C83,114.608 101.393,133 124,133 C146.607,133 165,114.608 165,92.001 C165,69.393 146.607,51 124,51 Z M124,135 C100.29,135 81,115.711 81,92.001 C81,68.29 100.29,49.001 124,49.001 C147.71,49.001 167,68.29 167,92.001 C167,115.711 147.71,135 124,135 Z"/>
    <path fill="#434A4F" d="M124,51 C105.804,51 91,69.393 91,92.001 C91,114.608 105.804,133 124,133 C142.196,133 157,114.608 157,92.001 C157,69.393 142.196,51 124,51 Z M124,135 C104.701,135 89,115.711 89,92.001 C89,68.29 104.701,49.001 124,49.001 C143.299,49.001 159,68.29 159,92.001 C159,115.711 143.299,135 124,135 Z"/>
    <path fill="#434A4F" d="M123,51 C115.411,51 109,69.776 109,92.001 C109,114.225 115.411,133 123,133 C130.589,133 137,114.225 137,92.001 C137,69.776 130.589,51 123,51 Z M123,135 C114.028,135 107,116.113 107,92.001 C107,67.888 114.028,49.001 123,49.001 C131.972,49.001 139,67.888 139,92.001 C139,116.113 131.972,135 123,135 Z"/>
    <polygon fill="#434A4F" points="82 93.001 166 93.001 166 91.001 82 91.001"/>
    <polygon fill="#434A4F" points="88 71 160 71 160 69 88 69"/>
    <polygon fill="#434A4F" points="88 115 160 115 160 113 88 113"/>
    <polygon fill="#434A4F" points="64 155 66 155 66 151 64 151"/>
    <polygon fill="#434A4F" points="64 165 66 165 66 161 64 161"/>
    <polygon fill="#434A4F" points="68 159 72 159 72 157 68 157"/>
    <polygon fill="#434A4F" points="58 159 62 159 62 157 58 157"/>
    <polygon fill="#434A4F" points="184 191 186 191 186 187 184 187"/>
    <polygon fill="#434A4F" points="184 201 186 201 186 197 184 197"/>
    <polygon fill="#434A4F" points="188 195 192 195 192 193 188 193"/>
    <polygon fill="#434A4F" points="178 195 182 195 182 193 178 193"/>
    <polygon fill="#434A4F" points="172 33 174 33 174 29 172 29"/>
    <polygon fill="#434A4F" points="172 43 174 43 174 39 172 39"/>
    <polygon fill="#434A4F" points="176 37 180 37 180 35 176 35"/>
    <polygon fill="#434A4F" points="166 37 170 37 170 35 166 35"/>
    <path fill="#434A4F" d="M84.887,205.527 C85.147,205.527 85.412,205.547 85.677,205.59 C87.761,205.922 89.32,207.484 89.647,209.569 L90.008,211.857 L94.009,211.227 L93.649,208.939 C93.321,206.855 94.325,204.89 96.206,203.934 C98.086,202.979 100.267,203.325 101.758,204.819 L103.394,206.458 L106.261,203.597 L104.625,201.958 C103.134,200.464 102.791,198.284 103.751,196.404 C104.712,194.526 106.679,193.525 108.763,193.858 L111.05,194.223 L111.688,190.223 L109.401,189.858 C107.316,189.525 105.758,187.963 105.43,185.879 C105.102,183.794 106.106,181.829 107.987,180.873 L110.052,179.824 L108.262,176.303 L106.198,177.353 C104.316,178.309 102.138,177.961 100.646,176.467 C99.156,174.974 98.813,172.794 99.773,170.915 L100.827,168.852 L97.219,167.01 L96.165,169.073 C95.206,170.952 93.241,171.955 91.154,171.62 C89.07,171.287 87.512,169.726 87.184,167.641 L86.823,165.353 L82.822,165.983 L83.182,168.271 C83.51,170.355 82.506,172.32 80.625,173.277 C78.745,174.231 76.565,173.885 75.074,172.392 L73.438,170.752 L70.571,173.614 L72.207,175.253 C73.698,176.747 74.041,178.927 73.081,180.806 C72.122,182.686 70.158,183.689 68.07,183.353 L65.783,182.989 L65.145,186.989 L67.432,187.354 C69.516,187.686 71.075,189.247 71.403,191.332 C71.731,193.417 70.727,195.381 68.846,196.338 L66.782,197.387 L68.57,200.905 L70.634,199.856 C72.517,198.901 74.695,199.248 76.185,200.741 C77.676,202.235 78.019,204.415 77.059,206.294 L76.005,208.356 L79.612,210.199 L80.666,208.136 C81.504,206.497 83.108,205.527 84.887,205.527 Z M88.343,214.143 L87.672,209.879 C87.44,208.408 86.327,207.719 85.362,207.565 C84.397,207.413 83.125,207.72 82.447,209.046 L80.483,212.89 L73.314,209.228 L75.278,205.384 C75.956,204.057 75.46,202.846 74.77,202.154 C74.079,201.461 72.867,200.963 71.54,201.639 L67.693,203.595 L64.092,196.51 L67.94,194.555 C69.268,193.879 69.579,192.608 69.427,191.643 C69.275,190.678 68.589,189.563 67.118,189.328 L62.855,188.649 L64.123,180.699 L68.385,181.378 C69.861,181.612 70.855,180.766 71.3,179.896 C71.745,179.026 71.844,177.721 70.791,176.666 L67.742,173.611 L73.441,167.924 L76.49,170.979 C77.544,172.035 78.85,171.938 79.719,171.494 C80.59,171.051 81.438,170.054 81.206,168.582 L80.535,164.318 L88.488,163.067 L89.159,167.33 C89.391,168.802 90.504,169.491 91.469,169.645 C92.435,169.799 93.706,169.49 94.384,168.163 L96.348,164.319 L103.517,167.981 L101.554,171.825 C100.876,173.151 101.372,174.363 102.063,175.055 C102.752,175.746 103.964,176.245 105.292,175.569 L109.139,173.614 L112.741,180.701 L108.894,182.656 C107.565,183.331 107.254,184.603 107.406,185.568 C107.558,186.533 108.244,187.648 109.716,187.883 L113.978,188.563 L112.71,196.513 L108.448,195.833 C106.978,195.599 105.977,196.444 105.533,197.314 C105.088,198.185 104.988,199.49 106.041,200.545 L109.089,203.6 L103.391,209.287 L100.342,206.232 C99.29,205.178 97.984,205.273 97.112,205.717 C96.242,206.159 95.394,207.157 95.625,208.629 L96.295,212.892 L88.343,214.143 Z"/>
    <path fill="#42494E" d="M78.109,193.901 C75.213,188.206 77.492,181.216 83.188,178.32 C88.887,175.424 95.876,177.704 98.771,183.399 L96.987,184.306 C94.591,179.593 88.808,177.706 84.095,180.103 C79.381,182.499 77.496,188.282 79.892,192.995 L78.109,193.901"/>
    <path fill="#E9886C" d="M88.416,185.105 C87.481,185.105 86.603,185.469 85.941,186.13 C85.28,186.791 84.916,187.67 84.916,188.605 C84.916,189.54 85.28,190.419 85.941,191.08 C87.264,192.402 89.569,192.402 90.892,191.08 C92.256,189.715 92.256,187.495 90.892,186.13 C90.23,185.469 89.352,185.105 88.416,185.105 Z M88.416,195.105 C86.68,195.105 85.048,194.429 83.82,193.201 C82.592,191.974 81.916,190.341 81.916,188.605 C81.916,186.869 82.592,185.236 83.82,184.009 C85.048,182.781 86.68,182.105 88.416,182.105 C90.153,182.105 91.785,182.781 93.013,184.009 C95.547,186.543 95.547,190.667 93.013,193.201 C91.785,194.429 90.153,195.105 88.416,195.105 Z"/>
    <path fill="#434A4F" d="M86.44,174.71 C86.4,174.16 86.81,173.68 87.36,173.64 C87.91,173.6 88.39,174.02 88.43,174.57 C88.47,175.12 88.05,175.6 87.5,175.64 C87.48,175.64 87.46,175.64 87.44,175.64 C86.91,175.64 86.47,175.24 86.44,174.71 Z M91.2,175.9 C90.66,175.79 90.31,175.25 90.43,174.71 C90.55,174.17 91.08,173.83 91.62,173.95 C92.16,174.07 92.5,174.6 92.39,175.14 C92.28,175.61 91.87,175.93 91.41,175.93 C91.34,175.93 91.27,175.92 91.2,175.9 Z M82.6,175.83 C82.41,175.31 82.67,174.73 83.19,174.54 C83.71,174.35 84.28,174.61 84.47,175.13 C84.67,175.65 84.4,176.22 83.88,176.42 C83.77,176.46 83.65,176.48 83.54,176.48 C83.13,176.48 82.75,176.23 82.6,175.83 Z M94.66,177.2 C94.18,176.93 94,176.33 94.27,175.84 C94.53,175.36 95.14,175.18 95.62,175.45 C96.11,175.71 96.28,176.32 96.02,176.8 C95.84,177.14 95.5,177.32 95.14,177.32 C94.98,177.32 94.81,177.28 94.66,177.2 Z M79.24,177.99 C78.91,177.54 79,176.92 79.44,176.59 C79.88,176.26 80.5,176.35 80.84,176.79 C81.17,177.23 81.08,177.86 80.64,178.19 C80.46,178.32 80.25,178.39 80.04,178.39 C79.73,178.39 79.43,178.25 79.24,177.99 Z M97.61,179.41 C97.22,179.02 97.22,178.39 97.61,178 C98,177.61 98.63,177.61 99.02,178 C99.41,178.39 99.41,179.02 99.02,179.41 C98.83,179.61 98.57,179.71 98.32,179.71 C98.06,179.71 97.8,179.61 97.61,179.41 Z M76.61,181 C76.17,180.67 76.08,180.04 76.42,179.6 C76.75,179.16 77.37,179.07 77.82,179.4 C78.26,179.74 78.34,180.36 78.01,180.8 C77.82,181.06 77.52,181.2 77.21,181.2 C77,181.2 76.79,181.14 76.61,181 Z M99.83,182.37 C99.56,181.89 99.74,181.28 100.23,181.02 C100.71,180.75 101.32,180.93 101.59,181.42 C101.85,181.9 101.67,182.51 101.19,182.77 C101.04,182.86 100.87,182.9 100.71,182.9 C100.35,182.9 100.01,182.71 99.83,182.37 Z M74.95,184.63 C74.43,184.44 74.17,183.87 74.36,183.35 C74.55,182.83 75.13,182.57 75.65,182.76 C76.17,182.95 76.43,183.53 76.24,184.05 C76.08,184.45 75.7,184.7 75.3,184.7 C75.18,184.7 75.06,184.68 74.95,184.63 Z M101.12,185.84 C101,185.3 101.35,184.77 101.89,184.65 C102.43,184.54 102.96,184.88 103.08,185.42 C103.19,185.96 102.85,186.49 102.31,186.61 C102.24,186.62 102.17,186.63 102.1,186.63 C101.64,186.63 101.22,186.31 101.12,185.84 Z M74.38,188.59 C73.83,188.55 73.41,188.07 73.45,187.52 C73.49,186.97 73.97,186.56 74.52,186.59 C75.07,186.63 75.49,187.11 75.45,187.66 C75.41,188.19 74.97,188.59 74.45,188.59 C74.43,188.59 74.4,188.59 74.38,188.59 Z M102.31,190.6 C101.76,190.56 101.34,190.09 101.38,189.54 C101.42,188.99 101.9,188.57 102.45,188.61 C103,188.65 103.42,189.13 103.38,189.68 C103.34,190.21 102.9,190.61 102.38,190.61 C102.36,190.61 102.33,190.61 102.31,190.6 Z M73.76,191.78 C73.64,191.24 73.98,190.71 74.52,190.59 C75.06,190.47 75.59,190.82 75.71,191.36 C75.83,191.9 75.48,192.43 74.94,192.55 C74.87,192.56 74.8,192.57 74.73,192.57 C74.27,192.57 73.86,192.25 73.76,191.78 Z M101.19,194.44 C100.67,194.25 100.4,193.67 100.6,193.15 C100.79,192.63 101.37,192.37 101.88,192.57 C102.4,192.76 102.67,193.33 102.47,193.85 C102.32,194.25 101.94,194.5 101.53,194.5 C101.42,194.5 101.3,194.48 101.19,194.44 Z M75.24,195.78 C74.98,195.3 75.16,194.69 75.64,194.43 C76.13,194.16 76.73,194.34 77,194.83 C77.26,195.31 77.08,195.92 76.6,196.18 C76.45,196.27 76.28,196.31 76.12,196.31 C75.77,196.31 75.42,196.12 75.24,195.78 Z M99.02,197.8 C98.58,197.47 98.49,196.84 98.82,196.4 C99.15,195.96 99.78,195.87 100.22,196.2 C100.66,196.53 100.75,197.16 100.42,197.6 C100.23,197.86 99.93,198 99.62,198 C99.41,198 99.2,197.93 99.02,197.8 Z M77.8,199.2 C77.41,198.81 77.41,198.18 77.8,197.79 C78.19,197.4 78.83,197.4 79.22,197.79 C79.61,198.18 79.61,198.81 79.22,199.2 C79.02,199.4 78.77,199.5 78.51,199.5 C78.25,199.5 78,199.4 77.8,199.2 Z M96,200.42 C95.67,199.98 95.76,199.35 96.2,199.02 C96.64,198.69 97.27,198.78 97.6,199.22 C97.93,199.66 97.84,200.29 97.4,200.62 C97.22,200.75 97.01,200.82 96.8,200.82 C96.5,200.82 96.2,200.68 96,200.42 Z M81.22,201.77 C80.73,201.5 80.56,200.9 80.82,200.41 C81.08,199.93 81.69,199.75 82.18,200.01 C82.66,200.28 82.84,200.89 82.57,201.37 C82.39,201.7 82.05,201.89 81.69,201.89 C81.53,201.89 81.37,201.85 81.22,201.77 Z M92.37,202.07 C92.17,201.56 92.44,200.98 92.96,200.79 C93.47,200.6 94.05,200.86 94.24,201.38 C94.43,201.9 94.17,202.47 93.65,202.66 C93.54,202.71 93.42,202.73 93.3,202.73 C92.9,202.73 92.52,202.48 92.37,202.07 Z M85.22,203.26 C84.68,203.14 84.34,202.61 84.45,202.07 C84.57,201.53 85.1,201.19 85.64,201.31 C86.18,201.42 86.53,201.96 86.41,202.5 C86.31,202.96 85.89,203.28 85.43,203.28 C85.36,203.28 85.29,203.28 85.22,203.26 Z M88.41,202.64 C88.37,202.09 88.79,201.61 89.34,201.57 C89.89,201.53 90.37,201.95 90.41,202.5 C90.44,203.05 90.03,203.53 89.48,203.57 C89.45,203.57 89.43,203.57 89.41,203.57 C88.89,203.57 88.45,203.17 88.41,202.64 Z"/>
    <path fill="#42494E" d="M127.936,184 C126.282,184 124.936,185.345 124.936,187 C124.936,188.654 126.282,190 127.936,190 L171.106,190 L177.612,187 L171.106,184 L127.936,184 Z M171.545,192 L127.936,192 C125.179,192 122.936,189.756 122.936,187 C122.936,184.243 125.179,182 127.936,182 L171.545,182 L182.388,187 L171.545,192 Z"/>
    <polygon fill="#42494E" points="133.546 190.598 135.546 190.598 135.546 183 133.546 183"/>
    <polyline fill="#42494E" points="170.557 188.029 134.546 188.028 134.546 186.028 170.557 186.029 170.557 188.029"/>
    <polygon fill="#434A4F" points="148 155 150 155 150 151 148 151"/>
    <polygon fill="#434A4F" points="148 165 150 165 150 161 148 161"/>
    <polygon fill="#434A4F" points="152 159 156 159 156 157 152 157"/>
    <polygon fill="#434A4F" points="142 159 146 159 146 157 142 157"/>
    <path fill="#434A4F" d="M179,144 C177.897,144 177,144.897 177,146 C177,147.103 177.897,148 179,148 C180.103,148 181,147.103 181,146 C181,144.897 180.103,144 179,144 Z M179,150 C176.794,150 175,148.206 175,146 C175,143.794 176.794,142 179,142 C181.206,142 183,143.794 183,146 C183,148.206 181.206,150 179,150 Z"/>
    <path fill="#FACD60" d="M62 125C62 126.105 61.105 127 60 127 58.896 127 58 126.105 58 125 58 123.895 58.896 123 60 123 61.105 123 62 123.895 62 125M190 61C190 63.209 188.209 65 186 65 183.791 65 182 63.209 182 61 182 58.791 183.791 57 186 57 188.209 57 190 58.791 190 61"/>
    <path fill="#75C7D0" d="M168,151 C168,152.105 167.105,153 166,153 C164.896,153 164,152.105 164,151 C164,149.895 164.896,149 166,149 C167.105,149 168,149.895 168,151"/>
  </g>
</svg>
