<svg xmlns="http://www.w3.org/2000/svg" width="250" height="250" viewBox="0 0 250 250">
  <g fill="none" fill-rule="evenodd">
    <path fill="#DBDBD5" d="M81.752,113.53 L134.3,166.079 C141.021,172.799 149.468,177.165 158.641,178.763 L93.377,113.53 L81.752,113.53"/>
    <path fill="#DBDBD5" d="M62.149,182.739 L62.317,182.877 C66.002,186.677 65.936,192.798 62.142,196.592 C60.294,198.44 57.836,199.458 55.223,199.458 C52.609,199.458 50.152,198.44 48.304,196.592 C46.456,194.744 45.438,192.286 45.438,189.672 C45.438,187.059 46.456,184.602 48.304,182.753 C50.148,180.908 52.606,179.892 55.223,179.892 C57.854,179.892 60.313,180.903 62.149,182.739 Z M48.304,89.26 C46.456,87.412 45.438,84.955 45.438,82.341 C45.438,79.727 46.456,77.27 48.304,75.422 C50.149,73.577 52.606,72.561 55.223,72.561 C57.84,72.561 60.297,73.577 62.142,75.422 C65.957,79.237 65.957,85.445 62.142,89.26 C60.294,91.108 57.836,92.126 55.223,92.126 C52.609,92.126 50.152,91.108 48.304,89.26 Z M132.34,168.039 L93.549,129.248 L91.253,131.544 L90.939,131.544 L57.361,97.966 C60.765,97.507 63.914,95.973 66.385,93.503 C72.539,87.348 72.539,77.334 66.385,71.179 C63.403,68.198 59.439,66.556 55.223,66.556 C51.007,66.556 47.042,68.198 44.061,71.179 C37.907,77.334 37.907,87.348 44.061,93.503 L86.677,136.119 L45.732,177.064 L45.742,177.074 C45.159,177.513 44.591,177.98 44.061,178.511 C41.08,181.492 39.437,185.456 39.438,189.672 C39.438,193.889 41.08,197.853 44.061,200.834 C47.043,203.816 51.007,205.458 55.223,205.458 C59.439,205.458 63.403,203.816 66.385,200.834 C72.539,194.68 72.539,184.665 66.385,178.511 C63.9,176.026 60.784,174.562 57.549,174.084 L86.848,144.786 L95.344,144.786 L141.478,190.92 C150.853,200.295 163.317,205.458 176.575,205.458 L178.99,205.458 L147.821,178.224 C142.09,175.959 136.829,172.528 132.34,168.039 Z"/>
    <path fill="#DBDBD5" d="M114.853,130.885 L178.99,66.781 L176.575,66.781 C163.317,66.781 150.853,71.943 141.478,81.318 L103.299,119.498 L114.853,130.885"/>
    <polyline fill="#75C7D0" points="122.772 90.58 99.196 114.144 135.651 150.581 220.569 150.581 220.569 90.58 122.772 90.58"/>
    <polyline fill="#5CBEBC" points="155.179 90.58 132.217 90.58 103.925 118.871 115.4 130.34 155.179 90.58"/>
    <path fill="#434A4F" d="M164.393,133.745 L153.346,133.745 C150.394,133.745 147.993,131.328 147.993,128.358 L149.993,128.358 C149.993,130.225 151.497,131.745 153.346,131.745 L164.393,131.745 C166.59,131.745 168.379,129.944 168.379,127.729 L168.379,125.841 C168.379,123.644 166.59,121.856 164.393,121.856 L153.501,121.856 C150.201,121.856 147.516,119.172 147.516,115.872 L147.516,113.981 C147.516,110.681 150.201,107.996 153.501,107.996 L165.21,107.996 C167.697,107.996 169.721,110.021 169.721,112.509 L167.721,112.509 C167.721,111.123 166.594,109.996 165.21,109.996 L153.501,109.996 C151.303,109.996 149.516,111.784 149.516,113.981 L149.516,115.872 C149.516,118.069 151.303,119.856 153.501,119.856 L164.393,119.856 C167.694,119.856 170.379,122.541 170.379,125.841 L170.379,127.729 C170.379,131.046 167.694,133.745 164.393,133.745"/>
    <polygon fill="#434A4F" points="159 139 161 139 161 103 159 103"/>
    <polygon fill="#434A4F" points="178.569 117.581 192.569 117.581 192.569 115.581 178.569 115.581"/>
    <polygon fill="#434A4F" points="178.569 121.581 192.569 121.581 192.569 119.581 178.569 119.581"/>
    <polygon fill="#434A4F" points="178.569 125.581 192.569 125.581 192.569 123.581 178.569 123.581"/>
    <polygon fill="#434A4F" points="128.569 117.581 142.569 117.581 142.569 115.581 128.569 115.581"/>
    <polygon fill="#434A4F" points="128.569 121.581 142.569 121.581 142.569 119.581 128.569 119.581"/>
    <polygon fill="#434A4F" points="128.569 125.581 142.569 125.581 142.569 123.581 128.569 123.581"/>
    <path fill="#434A4F" d="M200.568,146.6 L198.568,146.6 C198.568,136.675 206.643,128.6 216.568,128.6 L216.568,130.6 C207.746,130.6 200.568,137.778 200.568,146.6"/>
    <polyline fill="#434A4F" points="217.569 147.581 131.648 147.581 131.648 145.581 215.569 145.581 215.569 95.58 118.77 95.58 118.77 93.58 217.569 93.58 217.569 147.581"/>
    <path fill="#434A4F" d="M216.568,113.581 C206.643,113.581 198.568,105.506 198.568,95.581 L200.568,95.581 C200.568,104.403 207.746,111.581 216.568,111.581 L216.568,113.581"/>
    <path fill="#42494E" d="M45.216 153.874C41.535 153.874 38.073 155.308 35.469 157.911 32.866 160.515 31.431 163.977 31.431 167.659 31.431 171.342 32.866 174.803 35.469 177.407 38.073 180.01 41.535 181.445 45.217 181.445 48.899 181.445 52.361 180.01 54.965 177.407 57.568 174.803 59.003 171.342 59.003 167.659 59.003 163.977 57.568 160.516 54.965 157.912 52.361 155.308 48.899 153.874 45.216 153.874zM45.217 183.445C41.001 183.445 37.037 181.802 34.055 178.821 31.074 175.84 29.431 171.876 29.431 167.659 29.431 163.443 31.074 159.479 34.055 156.497 37.036 153.516 41.001 151.874 45.216 151.874 49.433 151.874 53.397 153.516 56.378 156.498 59.36 159.479 61.003 163.443 61.003 167.659 61.003 171.876 59.36 175.84 56.378 178.821 53.397 181.802 49.433 183.445 45.217 183.445zM45.217 46.542C41.535 46.542 38.073 47.976 35.469 50.58 32.866 53.184 31.431 56.646 31.431 60.328 31.431 64.01 32.866 67.472 35.469 70.075 38.073 72.679 41.535 74.113 45.216 74.113 48.899 74.113 52.361 72.679 54.965 70.075 57.568 67.472 59.003 64.01 59.003 60.328 59.003 56.645 57.568 53.183 54.965 50.58 52.361 47.976 48.899 46.542 45.217 46.542zM45.216 76.113C41.001 76.113 37.037 74.471 34.055 71.49 31.074 68.508 29.431 64.544 29.431 60.328 29.431 56.112 31.074 52.147 34.055 49.166 37.037 46.184 41.001 44.542 45.217 44.542 49.433 44.542 53.397 46.184 56.378 49.166 59.36 52.147 61.003 56.111 61.003 60.328 61.003 64.544 59.36 68.508 56.378 71.49 53.397 74.471 49.433 76.113 45.216 76.113z"/>
    <polygon fill="#42494E" points="148.59 94.121 150.59 94.121 150.59 83.218 148.59 83.218"/>
    <path fill="#42494E" d="M168.984,183.445 L166.569,183.445 C153.31,183.445 140.846,178.281 131.472,168.907 L34.055,71.49 L35.469,70.075 L132.886,167.493 C141.297,175.903 152.297,180.781 164.091,181.382 L94.205,111.531 L80.104,111.531 L43.862,75.288 L45.276,73.874 L80.932,109.531 L95.033,109.531 L95.326,109.823 L168.984,183.445"/>
    <polyline fill="#42494E" points="46.239 153.376 44.825 151.962 76.013 120.773 85.902 120.773 85.902 122.773 76.841 122.773 46.239 153.376"/>
    <path fill="#42494E" d="M98.915,114.802 L97.501,113.387 L164.091,46.83 C152.297,47.43 141.297,52.309 132.886,60.719 L82.485,111.121 L81.071,109.707 L131.472,59.305 C140.846,49.93 153.31,44.767 166.569,44.767 L168.984,44.767 L98.915,114.802"/>
    <polyline fill="#42494E" points="37.14 156.465 35.726 155.051 77.32 113.457 78.734 114.871 37.14 156.465"/>
    <path fill="#42494E" d="M89.569 115.581C89.017 115.581 88.569 116.03 88.569 116.581 88.569 117.132 89.017 117.581 89.569 117.581 90.121 117.581 90.569 117.132 90.569 116.581 90.569 116.03 90.121 115.581 89.569 115.581zM89.569 119.581C87.915 119.581 86.569 118.235 86.569 116.581 86.569 114.927 87.915 113.581 89.569 113.581 91.223 113.581 92.569 114.927 92.569 116.581 92.569 118.235 91.223 119.581 89.569 119.581zM45.217 50.548C42.599 50.548 40.142 51.564 38.298 53.408 36.449 55.257 35.431 57.714 35.431 60.328 35.431 62.941 36.449 65.398 38.298 67.247 40.146 69.095 42.603 70.113 45.216 70.113 47.831 70.113 50.288 69.095 52.136 67.247 55.952 63.431 55.952 57.224 52.136 53.408 50.291 51.564 47.834 50.548 45.217 50.548zM45.216 72.113C42.069 72.113 39.109 70.887 36.883 68.661 34.657 66.435 33.431 63.475 33.431 60.328 33.431 57.18 34.657 54.221 36.883 51.994 39.105 49.772 42.065 48.548 45.217 48.548 48.368 48.548 51.328 49.772 53.55 51.994 55.773 54.217 56.997 57.176 56.997 60.327 56.997 63.479 55.773 66.438 53.55 68.661 51.325 70.887 48.365 72.113 45.216 72.113zM45.216 157.879C42.599 157.879 40.142 158.895 38.298 160.74 36.449 162.589 35.431 165.046 35.431 167.659 35.431 170.273 36.449 172.73 38.298 174.578 40.146 176.427 42.603 177.445 45.216 177.445 47.831 177.445 50.288 176.427 52.136 174.579 55.93 170.784 55.997 164.664 52.311 160.864L52.143 160.725C50.307 158.89 47.847 157.879 45.216 157.879zM45.216 179.445C42.069 179.445 39.109 178.219 36.883 175.992 34.657 173.767 33.431 170.807 33.431 167.659 33.431 164.511 34.657 161.552 36.883 159.326 39.106 157.103 42.065 155.879 45.216 155.879 48.326 155.879 51.239 157.055 53.439 159.195L53.443 159.197 53.62 159.343C58.191 163.914 58.16 171.383 53.55 175.993 51.324 178.219 48.365 179.445 45.216 179.445z"/>
    <path fill="#FACD60" d="M143.569,88.581 C143.569,78.64 151.628,70.581 161.569,70.581 C171.51,70.581 179.569,78.64 179.569,88.581 C179.569,98.522 171.51,106.581 161.569,106.581 C151.628,106.581 143.569,98.522 143.569,88.581"/>
    <path fill="#42494E" d="M161.567,103.581 C157.567,103.581 153.806,102.026 150.973,99.2 C148.137,96.37 146.573,92.605 146.568,88.598 C146.564,85.122 147.777,81.732 149.982,79.052 C150.335,78.627 150.964,78.565 151.39,78.916 C151.816,79.267 151.878,79.897 151.527,80.324 C149.615,82.646 148.564,85.583 148.568,88.596 C148.572,92.069 149.928,95.332 152.386,97.784 C154.84,100.233 158.101,101.581 161.567,101.581 C161.573,101.581 161.578,101.581 161.584,101.581 C168.752,101.573 174.576,95.734 174.568,88.566 C174.56,81.403 168.729,75.581 161.568,75.581 C161.562,75.581 161.558,75.581 161.552,75.581 C160.245,75.583 158.957,75.777 157.724,76.158 L156.897,76.509 C156.389,76.723 155.803,76.483 155.589,75.973 C155.376,75.464 155.616,74.878 156.126,74.665 L157.043,74.281 C158.556,73.807 160.043,73.583 161.55,73.581 C161.555,73.581 161.562,73.581 161.567,73.581 C169.832,73.581 176.558,80.298 176.568,88.564 C176.578,96.835 169.856,103.572 161.586,103.581 C161.58,103.581 161.573,103.581 161.567,103.581"/>
    <path fill="#42494E" d="M164.556,95.555 L158.998,95.555 C157.239,95.555 155.807,94.116 155.807,92.347 C155.807,91.795 156.255,91.347 156.807,91.347 C157.36,91.347 157.807,91.795 157.807,92.347 C157.807,93.013 158.341,93.555 158.998,93.555 L164.556,93.555 C165.387,93.555 166.064,92.871 166.064,92.031 L166.064,91.081 C166.064,90.249 165.387,89.573 164.556,89.573 L159.075,89.573 C157.14,89.573 155.567,87.999 155.567,86.065 L155.567,85.113 C155.567,83.179 157.14,81.605 159.075,81.605 L164.966,81.605 C166.493,81.605 167.734,82.846 167.734,84.372 C167.734,84.925 167.287,85.372 166.734,85.372 C166.181,85.372 165.734,84.925 165.734,84.372 C165.734,83.949 165.389,83.605 164.966,83.605 L159.075,83.605 C158.244,83.605 157.567,84.282 157.567,85.113 L157.567,86.065 C157.567,86.896 158.244,87.573 159.075,87.573 L164.556,87.573 C166.491,87.573 168.064,89.147 168.064,91.081 L168.064,92.031 C168.064,93.974 166.491,95.555 164.556,95.555"/>
    <path fill="#42494E" d="M162 99C161.447 99 161 98.552 161 98L161 80C161 79.448 161.447 79 162 79 162.553 79 163 79.448 163 80L163 98C163 98.552 162.553 99 162 99M153.558 78.591C153.428 78.591 153.298 78.561 153.169 78.51 153.048 78.461 152.938 78.391 152.848 78.301 152.758 78.2 152.678 78.101 152.629 77.97 152.579 77.851 152.558 77.72 152.558 77.591 152.558 77.321 152.658 77.071 152.848 76.881 152.938 76.791 153.048 76.72 153.169 76.671 153.539 76.51 153.988 76.601 154.258 76.881 154.448 77.071 154.558 77.321 154.558 77.591 154.558 77.72 154.528 77.851 154.478 77.97 154.428 78.101 154.358 78.2 154.258 78.301 154.079 78.481 153.818 78.591 153.558 78.591"/>
    <path fill="#DBDBD5" d="M98.711,109.39 L158.641,49.492 C149.468,51.09 141.021,55.456 134.3,62.176 L89.17,107.307 L96.652,107.307 L98.711,109.39"/>
    <path fill="#42494E" d="M45.216 153.874C41.535 153.874 38.073 155.308 35.469 157.911 32.866 160.515 31.431 163.977 31.431 167.659 31.431 171.342 32.866 174.803 35.469 177.407 38.073 180.01 41.535 181.445 45.217 181.445 48.899 181.445 52.361 180.01 54.965 177.407 57.568 174.803 59.003 171.342 59.003 167.659 59.003 163.977 57.568 160.516 54.965 157.912 52.361 155.308 48.899 153.874 45.216 153.874zM45.217 183.445C41.001 183.445 37.037 181.802 34.055 178.821 31.074 175.84 29.431 171.876 29.431 167.659 29.431 163.443 31.074 159.479 34.055 156.497 37.036 153.516 41.001 151.874 45.216 151.874 49.433 151.874 53.397 153.516 56.378 156.498 59.36 159.479 61.003 163.443 61.003 167.659 61.003 171.876 59.36 175.84 56.378 178.821 53.397 181.802 49.433 183.445 45.217 183.445zM45.217 46.542C41.535 46.542 38.073 47.976 35.469 50.58 32.866 53.184 31.431 56.646 31.431 60.328 31.431 64.01 32.866 67.472 35.469 70.075 38.073 72.679 41.535 74.113 45.216 74.113 48.899 74.113 52.361 72.679 54.965 70.075 57.568 67.472 59.003 64.01 59.003 60.328 59.003 56.645 57.568 53.183 54.965 50.58 52.361 47.976 48.899 46.542 45.217 46.542zM45.216 76.113C41.001 76.113 37.037 74.471 34.055 71.49 31.074 68.508 29.431 64.544 29.431 60.328 29.431 56.112 31.074 52.147 34.055 49.166 37.037 46.184 41.001 44.542 45.217 44.542 49.433 44.542 53.397 46.184 56.378 49.166 59.36 52.147 61.003 56.111 61.003 60.328 61.003 64.544 59.36 68.508 56.378 71.49 53.397 74.471 49.433 76.113 45.216 76.113z"/>
    <path fill="#42494E" d="M168.984,183.445 L166.569,183.445 C153.31,183.445 140.846,178.281 131.472,168.907 L34.055,71.49 L35.469,70.075 L132.886,167.493 C141.297,175.903 152.297,180.781 164.091,181.382 L94.205,111.531 L80.104,111.531 L43.862,75.288 L45.276,73.874 L80.932,109.531 L95.033,109.531 L95.326,109.823 L168.984,183.445"/>
    <polyline fill="#42494E" points="46.239 153.376 44.825 151.962 76.013 120.773 85.902 120.773 85.902 122.773 76.841 122.773 46.239 153.376"/>
    <path fill="#42494E" d="M98.915,114.802 L97.501,113.387 L164.091,46.83 C152.297,47.43 141.297,52.309 132.886,60.719 L82.485,111.121 L81.071,109.707 L131.472,59.305 C140.846,49.93 153.31,44.767 166.569,44.767 L168.984,44.767 L98.915,114.802"/>
    <polyline fill="#42494E" points="37.14 156.465 35.726 155.051 77.32 113.457 78.734 114.871 37.14 156.465"/>
    <path fill="#42494E" d="M89.569 115.581C89.017 115.581 88.569 116.03 88.569 116.581 88.569 117.132 89.017 117.581 89.569 117.581 90.121 117.581 90.569 117.132 90.569 116.581 90.569 116.03 90.121 115.581 89.569 115.581zM89.569 119.581C87.915 119.581 86.569 118.235 86.569 116.581 86.569 114.927 87.915 113.581 89.569 113.581 91.223 113.581 92.569 114.927 92.569 116.581 92.569 118.235 91.223 119.581 89.569 119.581zM45.217 50.548C42.599 50.548 40.142 51.564 38.298 53.408 36.449 55.257 35.431 57.714 35.431 60.328 35.431 62.941 36.449 65.398 38.298 67.247 40.146 69.095 42.603 70.113 45.216 70.113 47.831 70.113 50.288 69.095 52.136 67.247 55.952 63.431 55.952 57.224 52.136 53.408 50.291 51.564 47.834 50.548 45.217 50.548zM45.216 72.113C42.069 72.113 39.109 70.887 36.883 68.661 34.657 66.435 33.431 63.475 33.431 60.328 33.431 57.18 34.657 54.221 36.883 51.994 39.105 49.772 42.065 48.548 45.217 48.548 48.368 48.548 51.328 49.772 53.55 51.994 55.773 54.217 56.997 57.176 56.997 60.327 56.997 63.479 55.773 66.438 53.55 68.661 51.325 70.887 48.365 72.113 45.216 72.113zM45.216 157.879C42.599 157.879 40.142 158.895 38.298 160.74 36.449 162.589 35.431 165.046 35.431 167.659 35.431 170.273 36.449 172.73 38.298 174.578 40.146 176.427 42.603 177.445 45.216 177.445 47.831 177.445 50.288 176.427 52.136 174.579 55.93 170.784 55.997 164.664 52.311 160.864L52.143 160.725C50.307 158.89 47.847 157.879 45.216 157.879zM45.216 179.445C42.069 179.445 39.109 178.219 36.883 175.992 34.657 173.767 33.431 170.807 33.431 167.659 33.431 164.511 34.657 161.552 36.883 159.326 39.106 157.103 42.065 155.879 45.216 155.879 48.326 155.879 51.239 157.055 53.439 159.195L53.443 159.197 53.62 159.343C58.191 163.914 58.16 171.383 53.55 175.993 51.324 178.219 48.365 179.445 45.216 179.445z"/>
    <path fill="#DBDBD5" d="M98.711,109.39 L158.641,49.492 C149.468,51.09 141.021,55.456 134.3,62.176 L89.17,107.307 L96.652,107.307 L98.711,109.39"/>
    <path fill="#FACD60" d="M179.569,142.581 C179.569,135.402 185.389,129.581 192.569,129.581 C199.748,129.581 205.569,135.402 205.569,142.581 C205.569,149.761 199.748,155.581 192.569,155.581 C185.389,155.581 179.569,149.761 179.569,142.581"/>
    <path fill="#42494E" d="M194.726,147.895 L190.712,147.895 C189.288,147.895 188.13,146.732 188.13,145.301 C188.13,144.749 188.577,144.301 189.13,144.301 C189.682,144.301 190.13,144.749 190.13,145.301 C190.13,145.629 190.39,145.895 190.712,145.895 L194.726,145.895 C195.173,145.895 195.538,145.526 195.538,145.073 L195.538,144.386 C195.538,143.939 195.173,143.575 194.726,143.575 L190.767,143.575 C189.217,143.575 187.957,142.314 187.957,140.764 L187.957,140.077 C187.957,138.527 189.217,137.265 190.767,137.265 L195.023,137.265 C196.278,137.265 197.299,138.286 197.299,139.542 C197.299,140.094 196.852,140.542 196.299,140.542 C195.747,140.542 195.299,140.094 195.299,139.542 C195.299,139.389 195.175,139.265 195.023,139.265 L190.767,139.265 C190.32,139.265 189.957,139.63 189.957,140.077 L189.957,140.764 C189.957,141.211 190.32,141.575 190.767,141.575 L194.726,141.575 C196.276,141.575 197.538,142.836 197.538,144.386 L197.538,145.073 C197.538,146.629 196.276,147.895 194.726,147.895"/>
    <path fill="#42494E" d="M193,151 C192.447,151 192,150.552 192,150 L192,136 C192,135.448 192.447,135 193,135 C193.553,135 194,135.448 194,136 L194,150 C194,150.552 193.553,151 193,151"/>
    <polygon fill="#434A4F" points="94.569 63.517 96.569 63.517 96.569 59.517 94.569 59.517"/>
    <polygon fill="#434A4F" points="94.569 73.517 96.569 73.517 96.569 69.517 94.569 69.517"/>
    <polygon fill="#434A4F" points="98.569 67.517 102.569 67.517 102.569 65.517 98.569 65.517"/>
    <polygon fill="#434A4F" points="88.569 67.517 92.569 67.517 92.569 65.517 88.569 65.517"/>
    <polygon fill="#434A4F" points="190.569 172.581 192.569 172.581 192.569 168.581 190.569 168.581"/>
    <polygon fill="#434A4F" points="190.569 182.581 192.569 182.581 192.569 178.581 190.569 178.581"/>
    <polygon fill="#434A4F" points="194.569 176.581 198.569 176.581 198.569 174.581 194.569 174.581"/>
    <polygon fill="#434A4F" points="184.569 176.581 188.569 176.581 188.569 174.581 184.569 174.581"/>
    <polygon fill="#434A4F" points="72.569 168.581 74.569 168.581 74.569 164.581 72.569 164.581"/>
    <polygon fill="#434A4F" points="72.569 178.581 74.569 178.581 74.569 174.581 72.569 174.581"/>
    <polygon fill="#434A4F" points="76.569 172.581 80.569 172.581 80.569 170.581 76.569 170.581"/>
    <polygon fill="#434A4F" points="66.569 172.581 70.569 172.581 70.569 170.581 66.569 170.581"/>
    <path fill="#FACD60" d="M190.569 80.581C190.569 81.685 189.673 82.581 188.569 82.581 187.464 82.581 186.569 81.685 186.569 80.581 186.569 79.476 187.464 78.581 188.569 78.581 189.673 78.581 190.569 79.476 190.569 80.581M168.569 136.581C168.569 137.685 169.464 138.581 170.569 138.581 171.673 138.581 172.569 137.685 172.569 136.581 172.569 135.476 171.673 134.581 170.569 134.581 169.464 134.581 168.569 135.476 168.569 136.581M210.569 118.581C210.569 120.79 208.778 122.581 206.569 122.581 204.36 122.581 202.569 120.79 202.569 118.581 202.569 116.372 204.36 114.581 206.569 114.581 208.778 114.581 210.569 116.372 210.569 118.581M156.569 158.581C156.569 159.685 157.464 160.581 158.569 160.581 159.673 160.581 160.569 159.685 160.569 158.581 160.569 157.476 159.673 156.581 158.569 156.581 157.464 156.581 156.569 157.476 156.569 158.581M182.569 166.581C182.569 168.79 180.778 170.581 178.569 170.581 176.36 170.581 174.569 168.79 174.569 166.581 174.569 164.372 176.36 162.581 178.569 162.581 180.778 162.581 182.569 164.372 182.569 166.581"/>
  </g>
</svg>
