<svg xmlns="http://www.w3.org/2000/svg" width="250" height="250" viewBox="0 0 250 250">
  <g fill="none" fill-rule="evenodd">
    <path fill="#434A4F" d="M80.007,178.351 C75.596,178.351 72.007,174.762 72.007,170.351 L72.007,42.874 L181.999,42.874 L181.999,156.354 L179.999,156.354 L179.999,44.874 L74.007,44.874 L74.007,170.351 C74.007,173.66 76.699,176.351 80.007,176.351 C83.316,176.351 86.007,173.66 86.007,170.351 L86.007,163.354 C86.007,158.943 89.596,155.354 94.007,155.354 C98.08,155.354 101.451,158.414 101.945,162.354 L207.916,162.354 C207.439,159.521 204.967,157.354 201.999,157.354 L201.999,155.354 C206.41,155.354 209.999,158.943 209.999,163.354 L209.999,164.354 L100.007,164.354 L100.007,163.354 C100.007,160.046 97.316,157.354 94.007,157.354 C90.699,157.354 88.007,160.046 88.007,163.354 L88.007,170.351 C88.007,174.762 84.419,178.351 80.007,178.351"/>
    <path fill="#DBDBD5" d="M110.001,35.865 L140.019,35.865 C142.228,35.865 144.019,37.655 144.019,39.864 L144.019,52.863 L114.001,52.863 L114.001,39.864 C114.001,37.655 112.21,35.865 110.001,35.865"/>
    <polyline fill="#75C7D0" points="65.004 42.874 58.004 42.874 58.005 209.864 172.997 209.864 172.997 202.854 65.004 202.854 65.004 42.874"/>
    <polyline fill="#434A4F" points="178.997 203.864 68.005 203.864 68.005 42.874 90.945 42.874 90.945 44.874 70.005 44.874 70.005 201.864 176.997 201.864 177.007 180.866 179.007 180.867 178.997 203.864"/>
    <path fill="#434A4F" d="M187.999,178.351 L187.999,176.351 C191.308,176.351 193.999,173.66 193.999,170.351 L193.999,163.354 L195.999,163.354 L195.999,170.351 C195.999,174.762 192.41,178.351 187.999,178.351"/>
    <polygon fill="#434A4F" points="94.007 157.354 201.998 157.354 201.998 155.354 94.007 155.354"/>
    <polygon fill="#434A4F" points="80.007 178.351 187.999 178.351 187.999 176.351 80.007 176.351"/>
    <path fill="#DBDBD5" d="M72.004,180.353 L72.004,186.355 C72.004,188.564 73.795,190.355 76.004,190.355 L175.004,190.355 L175.004,180.353 L72.004,180.353"/>
    <polyline fill="#434A4F" points="173.997 203.864 64.005 203.864 64.005 42.874 86.945 42.874 86.945 44.874 66.005 44.874 66.005 201.864 173.997 201.864 173.997 203.864"/>
    <path fill="#FACD60" d="M191.999,170.351 L191.999,166.355 L98.007,166.355 L98.007,163.355 C98.007,161.149 96.213,159.355 94.007,159.355 C91.802,159.355 90.007,161.149 90.007,163.355 L90.007,170.351 C90.007,171.772 89.709,173.125 89.172,174.351 L187.999,174.351 C190.204,174.351 191.999,172.556 191.999,170.351"/>
    <path fill="#434A4F" d="M115.001,51.863 L143.019,51.863 L143.019,39.864 C143.019,38.21 141.673,36.864 140.019,36.864 L113.998,36.864 C114.627,37.701 115.001,38.74 115.001,39.864 L115.001,51.863 Z M145.019,53.863 L113.001,53.863 L113.001,39.864 C113.001,38.21 111.655,36.864 110.001,36.864 C108.346,36.864 107.001,38.21 107.001,39.864 L107.001,43.864 L105.001,43.864 L105.001,39.864 C105.001,37.107 107.244,34.864 110.001,34.864 L140.019,34.864 C142.776,34.864 145.019,37.107 145.019,39.864 L145.019,53.863 Z"/>
    <polygon fill="#434A4F" points="48.369 211.053 50.369 211.053 50.369 207.053 48.369 207.053"/>
    <polygon fill="#434A4F" points="48.369 221.053 50.369 221.053 50.369 217.053 48.369 217.053"/>
    <polygon fill="#434A4F" points="52.369 215.053 56.369 215.053 56.369 213.053 52.369 213.053"/>
    <polygon fill="#434A4F" points="42.369 215.053 46.369 215.053 46.369 213.053 42.369 213.053"/>
    <polygon fill="#434A4F" points="185.451 32.947 187.451 32.947 187.451 28.947 185.451 28.947"/>
    <polygon fill="#434A4F" points="185.451 42.947 187.451 42.947 187.451 38.947 185.451 38.947"/>
    <polygon fill="#434A4F" points="189.451 36.947 193.451 36.947 193.451 34.947 189.451 34.947"/>
    <polygon fill="#434A4F" points="179.451 36.947 183.451 36.947 183.451 34.947 179.451 34.947"/>
    <polygon fill="#434A4F" points="197.458 133.007 199.458 133.007 199.458 129.007 197.458 129.007"/>
    <polygon fill="#434A4F" points="197.458 143.007 199.458 143.007 199.458 139.007 197.458 139.007"/>
    <polygon fill="#434A4F" points="201.458 137.007 205.458 137.007 205.458 135.007 201.458 135.007"/>
    <polygon fill="#434A4F" points="191.458 137.007 195.458 137.007 195.458 135.007 191.458 135.007"/>
    <path fill="#FACD60" d="M46.001 134.861C46.001 136.518 44.658 137.861 43.001 137.861 41.344 137.861 40.001 136.518 40.001 134.861 40.001 133.204 41.344 131.861 43.001 131.861 44.658 131.861 46.001 133.204 46.001 134.861M190.001 117.861C190.001 118.965 189.105 119.861 188.001 119.861 186.896 119.861 186.001 118.965 186.001 117.861 186.001 116.756 186.896 115.861 188.001 115.861 189.105 115.861 190.001 116.756 190.001 117.861M184.001 211.861C184.001 212.965 183.105 213.861 182.001 213.861 180.896 213.861 180.001 212.965 180.001 211.861 180.001 210.756 180.896 209.861 182.001 209.861 183.105 209.861 184.001 210.756 184.001 211.861"/>
    <path fill="#42494E" d="M136.001,188.861 C134.347,188.861 133.001,190.207 133.001,191.861 C133.001,193.515 134.347,194.861 136.001,194.861 L191.165,194.861 L197.672,191.861 L191.165,188.861 L136.001,188.861 Z M191.605,196.861 L136.001,196.861 C133.244,196.861 131.001,194.618 131.001,191.861 C131.001,189.104 133.244,186.861 136.001,186.861 L191.605,186.861 L202.447,191.861 L191.605,196.861 Z"/>
    <polygon fill="#42494E" points="141.61 195.861 143.61 195.861 143.61 188.263 141.61 188.263"/>
    <polygon fill="#42494E" points="142.61 192.832 190.616 192.832 190.616 190.832 142.61 190.832"/>
    <path fill="#DDDED9" d="M156.055 86.127L160.744 84.608 161.467 86.841 163.166 84.508 155.895 79.214 152.994 83.199C152.351 84.082 151.553 84.686 150.693 85.06 152.06 86.24 153.982 86.798 156.055 86.127M106.357 116.505L102.649 117.706 104.696 124.029 105.898 122.379C107.296 120.459 107.265 118.249 106.357 116.505M169.312 105.704L174.001 104.186 171.23 95.63 166.541 97.148C163.62 98.094 160.979 96.62 159.806 94.365L158.826 94.683C153.645 96.36 153.638 103.687 158.815 105.374L163.501 106.902 160.76 115.31 156.074 113.782C150.897 112.094 146.584 118.017 149.78 122.425L152.673 126.416 145.392 131.694 142.499 127.704C139.303 123.295 132.332 125.552 132.327 130.997L132.321 135.926 123.328 135.916 123.333 130.987C123.338 126.636 118.893 124.323 115.47 125.811 117.519 127.58 118.306 130.76 116.384 133.4L113.483 137.385 120.753 142.679 123.654 138.694C126.859 134.292 133.825 136.564 133.819 142.009L133.814 146.938 142.807 146.947 142.813 142.018C142.818 136.573 149.789 134.317 152.985 138.725L155.878 142.716 163.159 137.437 160.266 133.447C157.07 129.038 161.383 123.116 166.56 124.804L171.246 126.332 173.987 117.923 169.301 116.396C164.124 114.708 164.131 107.382 169.312 105.704"/>
    <path fill="#42494E" d="M143.731,105.186 L141.828,104.566 C143.049,100.823 142.738,96.829 140.954,93.319 C139.171,89.81 136.127,87.205 132.384,85.985 C124.655,83.466 116.321,87.703 113.802,95.43 L111.901,94.81 C114.762,86.035 124.229,81.224 133.003,84.083 C137.255,85.469 140.711,88.428 142.737,92.413 C144.764,96.399 145.116,100.935 143.731,105.186"/>
    <path fill="#E9886C" d="M127.839,91.426 C123.152,91.426 119.339,95.239 119.339,99.926 C119.339,104.613 123.152,108.426 127.839,108.426 C132.526,108.426 136.339,104.613 136.339,99.926 C136.339,95.239 132.526,91.426 127.839,91.426 Z M127.839,111.426 C121.498,111.426 116.339,106.267 116.339,99.926 C116.339,93.585 121.498,88.426 127.839,88.426 C134.18,88.426 139.339,93.585 139.339,99.926 C139.339,106.267 134.18,111.426 127.839,111.426 Z"/>
    <path fill="#434A4F" d="M128.791,79.947 C128.24,79.917 127.81,79.457 127.84,78.907 C127.86,78.347 128.33,77.927 128.88,77.947 C129.441,77.977 129.86,78.447 129.84,78.997 C129.81,79.527 129.37,79.947 128.84,79.947 C128.82,79.947 128.81,79.947 128.791,79.947 Z M123.86,79.277 C123.78,78.727 124.16,78.227 124.711,78.147 C125.26,78.067 125.76,78.447 125.84,78.997 C125.921,79.537 125.541,80.047 124.99,80.127 C124.941,80.137 124.901,80.137 124.85,80.137 C124.36,80.137 123.93,79.777 123.86,79.277 Z M132.55,80.487 C132.021,80.357 131.691,79.817 131.82,79.277 C131.95,78.737 132.49,78.407 133.021,78.537 C133.561,78.667 133.891,79.207 133.761,79.747 C133.651,80.207 133.24,80.517 132.79,80.517 C132.71,80.517 132.63,80.507 132.55,80.487 Z M120.021,80.397 C119.84,79.877 120.12,79.307 120.64,79.127 C121.16,78.947 121.731,79.227 121.91,79.747 C122.09,80.267 121.82,80.837 121.291,81.017 C121.191,81.057 121.08,81.077 120.97,81.077 C120.55,81.077 120.171,80.817 120.021,80.397 Z M136.151,81.727 C135.651,81.497 135.42,80.907 135.651,80.407 C135.88,79.897 136.481,79.677 136.981,79.907 C137.481,80.137 137.7,80.737 137.471,81.237 C137.3,81.597 136.941,81.817 136.561,81.817 C136.42,81.817 136.28,81.787 136.151,81.727 Z M116.47,82.237 C116.191,81.757 116.36,81.147 116.84,80.867 C117.32,80.597 117.93,80.757 118.2,81.237 C118.481,81.707 118.32,82.327 117.84,82.597 C117.68,82.687 117.51,82.737 117.34,82.737 C116.99,82.737 116.66,82.557 116.47,82.237 Z M139.441,83.637 C138.99,83.307 138.88,82.687 139.21,82.237 C139.53,81.787 140.151,81.687 140.601,82.007 C141.05,82.327 141.151,82.947 140.83,83.397 C140.641,83.677 140.33,83.817 140.021,83.817 C139.82,83.817 139.62,83.757 139.441,83.637 Z M113.33,84.707 C112.97,84.287 113.01,83.657 113.43,83.297 C113.85,82.937 114.481,82.977 114.84,83.397 C115.2,83.817 115.16,84.447 114.74,84.807 C114.55,84.977 114.32,85.057 114.09,85.057 C113.81,85.057 113.53,84.937 113.33,84.707 Z M142.311,86.127 C141.931,85.727 141.95,85.087 142.351,84.707 C142.75,84.327 143.38,84.347 143.761,84.747 C144.141,85.147 144.13,85.777 143.731,86.157 C143.53,86.347 143.29,86.437 143.04,86.437 C142.771,86.437 142.511,86.327 142.311,86.127 Z M110.711,87.727 C110.28,87.387 110.2,86.757 110.541,86.327 C110.89,85.887 111.521,85.817 111.95,86.157 C112.381,86.497 112.461,87.127 112.12,87.557 C111.921,87.817 111.631,87.947 111.33,87.947 C111.11,87.947 110.901,87.877 110.711,87.727 Z M144.67,89.117 C144.37,88.647 144.5,88.027 144.971,87.727 C145.431,87.427 146.05,87.567 146.351,88.027 C146.651,88.497 146.511,89.117 146.05,89.417 C145.88,89.517 145.691,89.577 145.511,89.577 C145.181,89.577 144.86,89.407 144.67,89.117 Z M108.711,91.187 C108.22,90.937 108.03,90.337 108.28,89.847 C108.53,89.357 109.14,89.157 109.631,89.417 C110.12,89.667 110.31,90.267 110.06,90.757 C109.881,91.107 109.53,91.297 109.171,91.297 C109.01,91.297 108.86,91.267 108.711,91.187 Z M146.41,92.497 C146.2,91.977 146.45,91.397 146.971,91.187 C147.481,90.987 148.061,91.237 148.271,91.747 C148.471,92.257 148.221,92.847 147.71,93.047 C147.59,93.097 147.46,93.117 147.34,93.117 C146.941,93.117 146.57,92.887 146.41,92.497 Z M107.401,94.967 C106.87,94.807 106.57,94.257 106.72,93.727 C106.881,93.197 107.441,92.897 107.961,93.047 C108.49,93.207 108.8,93.757 108.64,94.287 L108.651,94.287 C108.521,94.727 108.12,95.007 107.68,95.007 C107.59,95.007 107.501,94.997 107.401,94.967 Z M147.481,96.137 C147.38,95.597 147.731,95.077 148.271,94.967 C148.82,94.867 149.34,95.217 149.45,95.767 C149.55,96.307 149.191,96.827 148.651,96.937 C148.59,96.947 148.521,96.947 148.46,96.947 C147.99,96.947 147.57,96.617 147.481,96.137 Z M106.84,98.927 C106.291,98.877 105.881,98.387 105.941,97.837 C105.99,97.287 106.481,96.877 107.021,96.937 C107.58,96.987 107.981,97.477 107.93,98.027 L107.93,98.017 C107.881,98.537 107.441,98.927 106.93,98.927 C106.901,98.927 106.87,98.927 106.84,98.927 Z M147.84,99.927 C147.84,99.377 148.29,98.927 148.84,98.927 C149.391,98.927 149.84,99.377 149.84,99.927 C149.84,100.477 149.391,100.927 148.84,100.927 C148.29,100.927 147.84,100.477 147.84,99.927 Z M105.941,102.017 C105.881,101.467 106.291,100.977 106.84,100.927 C107.39,100.877 107.881,101.277 107.93,101.827 C107.981,102.377 107.58,102.867 107.021,102.917 C106.99,102.917 106.961,102.927 106.93,102.927 C106.421,102.927 105.99,102.537 105.941,102.017 Z M148.271,104.887 C147.731,104.777 147.38,104.257 147.481,103.707 L147.481,103.717 C147.58,103.167 148.11,102.817 148.651,102.917 C149.191,103.017 149.55,103.547 149.45,104.087 C149.351,104.567 148.931,104.897 148.46,104.897 C148.401,104.897 148.34,104.897 148.271,104.887 Z M106.72,106.127 C106.57,105.597 106.87,105.037 107.401,104.877 C107.93,104.727 108.49,105.027 108.64,105.557 C108.8,106.087 108.49,106.647 107.961,106.797 C107.87,106.827 107.78,106.847 107.68,106.847 C107.251,106.847 106.85,106.557 106.72,106.127 Z M146.971,108.657 C146.46,108.457 146.2,107.877 146.41,107.357 C146.62,106.847 147.2,106.597 147.71,106.807 C148.221,107.007 148.471,107.587 148.271,108.107 C148.11,108.497 147.731,108.727 147.34,108.727 C147.21,108.727 147.09,108.707 146.971,108.657 Z M108.28,110.007 C108.03,109.517 108.22,108.917 108.711,108.657 C109.2,108.407 109.8,108.597 110.06,109.087 C110.31,109.577 110.12,110.187 109.631,110.437 C109.481,110.517 109.32,110.547 109.171,110.547 C108.81,110.547 108.461,110.347 108.28,110.007 Z M144.96,112.117 C144.5,111.827 144.37,111.207 144.67,110.737 C144.96,110.277 145.58,110.137 146.05,110.437 C146.511,110.737 146.651,111.357 146.351,111.827 C146.16,112.117 145.83,112.277 145.5,112.277 C145.32,112.277 145.13,112.227 144.96,112.117 Z M110.541,113.527 C110.2,113.087 110.28,112.467 110.711,112.117 C111.14,111.777 111.771,111.857 112.11,112.287 C112.461,112.717 112.381,113.347 111.95,113.697 C111.771,113.837 111.55,113.907 111.33,113.907 C111.03,113.907 110.74,113.777 110.541,113.527 Z M142.351,115.137 C141.95,114.757 141.931,114.127 142.311,113.727 C142.691,113.327 143.33,113.317 143.731,113.697 C144.13,114.077 144.141,114.707 143.761,115.107 C143.561,115.317 143.3,115.417 143.04,115.417 C142.79,115.417 142.54,115.327 142.351,115.137 Z M113.43,116.547 C113.01,116.187 112.97,115.557 113.33,115.137 C113.691,114.727 114.32,114.677 114.74,115.037 C115.16,115.407 115.2,116.037 114.84,116.447 C114.64,116.677 114.37,116.797 114.09,116.797 C113.85,116.797 113.62,116.717 113.43,116.547 Z M139.2,117.617 C138.88,117.167 138.99,116.537 139.441,116.217 C139.891,115.897 140.511,116.007 140.83,116.447 C141.151,116.897 141.05,117.527 140.601,117.847 C140.42,117.977 140.221,118.037 140.021,118.037 C139.71,118.037 139.401,117.887 139.2,117.617 Z M116.84,118.977 C116.36,118.707 116.191,118.097 116.47,117.617 C116.751,117.137 117.36,116.977 117.84,117.247 C118.32,117.527 118.481,118.137 118.2,118.617 C118.021,118.937 117.68,119.117 117.34,119.117 C117.171,119.117 116.99,119.067 116.84,118.977 Z M135.651,119.447 C135.42,118.947 135.641,118.357 136.151,118.127 C136.651,117.897 137.24,118.117 137.471,118.617 C137.7,119.117 137.481,119.717 136.981,119.947 C136.84,120.007 136.7,120.037 136.561,120.037 C136.181,120.037 135.82,119.817 135.651,119.447 Z M120.64,120.717 C120.12,120.537 119.84,119.967 120.021,119.447 C120.211,118.927 120.771,118.647 121.291,118.827 C121.82,119.007 122.09,119.577 121.91,120.107 C121.771,120.517 121.381,120.777 120.97,120.777 C120.86,120.777 120.751,120.757 120.64,120.717 Z M131.82,120.577 C131.691,120.037 132.021,119.497 132.55,119.367 C133.09,119.237 133.63,119.567 133.761,120.107 C133.891,120.637 133.561,121.177 133.021,121.307 C132.95,121.327 132.87,121.337 132.79,121.337 C132.34,121.337 131.931,121.027 131.82,120.577 Z M124.711,121.707 C124.16,121.627 123.78,121.117 123.86,120.577 C123.941,120.027 124.441,119.647 124.99,119.727 C125.541,119.807 125.921,120.307 125.84,120.857 C125.771,121.357 125.34,121.717 124.85,121.717 C124.8,121.717 124.76,121.707 124.711,121.707 Z M127.84,120.947 C127.81,120.397 128.24,119.927 128.791,119.907 C129.34,119.877 129.81,120.307 129.84,120.857 C129.86,121.407 129.441,121.877 128.88,121.897 C128.87,121.897 128.85,121.897 128.84,121.897 C128.3,121.897 127.86,121.487 127.84,120.947 Z"/>
    <path fill="#434A4F" d="M133.32 136.927L122.327 136.915 122.333 130.986C122.336 128.511 120.688 127.091 119.145 126.588 117.601 126.085 115.434 126.261 113.977 128.261L110.486 133.054 102.407 127.172 103.585 125.555 110.047 130.26 112.36 127.084C114.079 124.722 116.988 123.78 119.765 124.687 122.543 125.593 124.336 128.066 124.333 130.988L124.329 134.917 131.322 134.925 131.326 130.996C131.329 128.073 133.128 125.604 135.908 124.704 138.689 123.806 141.593 124.751 143.308 127.117L145.614 130.298 151.276 126.193 148.971 123.012C147.256 120.646 147.259 117.591 148.979 115.229 150.698 112.866 153.609 111.925 156.384 112.832L160.119 114.049 162.24 107.542 158.506 106.325C155.728 105.419 153.934 102.946 153.937 100.024 153.939 97.102 155.737 94.632 158.517 93.731L162.255 92.521 160.101 85.867 156.362 87.078C153.583 87.979 150.678 87.031 148.962 84.665 147.247 82.299 147.25 79.244 148.97 76.882L151.282 73.706 144.82 69.001 145.998 67.384 154.077 73.266 150.587 78.059C149.13 80.06 149.629 82.177 150.581 83.491 151.533 84.805 153.387 85.936 155.747 85.175L161.388 83.349 164.775 93.807 159.133 95.634C156.778 96.397 155.938 98.403 155.937 100.026 155.935 101.649 156.772 103.656 159.125 104.423L164.762 106.261 161.401 116.571 155.765 114.733C153.411 113.964 151.55 115.094 150.595 116.406 149.64 117.718 149.137 119.834 150.59 121.838L154.069 126.638 145.169 133.091 141.689 128.291C140.237 126.288 138.071 126.106 136.525 126.606 134.981 127.106 133.329 128.522 133.326 130.998L133.32 136.927M92.18 93.947C92.05 93.947 91.921 93.917 91.791 93.867 91.671 93.817 91.56 93.747 91.47 93.657 91.28 93.467 91.18 93.207 91.18 92.947 91.18 92.687 91.28 92.427 91.47 92.237 91.56 92.147 91.671 92.077 91.791 92.027 92.041 91.917 92.31 91.917 92.56 92.027 92.68 92.077 92.791 92.147 92.881 92.237 92.93 92.287 92.97 92.337 93.01 92.387 93.041 92.447 93.08 92.507 93.1 92.567 93.13 92.627 93.15 92.687 93.16 92.747 93.171 92.817 93.18 92.877 93.18 92.947 93.18 93.207 93.07 93.467 92.881 93.657 92.791 93.747 92.68 93.817 92.56 93.867 92.441 93.917 92.31 93.947 92.18 93.947M95.671 95.137C95.14 94.967 94.86 94.397 95.03 93.877 95.2 93.347 95.771 93.067 96.291 93.237 96.82 93.407 97.1 93.967 96.93 94.497 96.791 94.917 96.4 95.187 95.981 95.187 95.881 95.187 95.771 95.167 95.671 95.137zM98.64 96.787C98.28 96.367 98.33 95.737 98.751 95.377 99.171 95.017 99.8 95.067 100.16 95.487 100.521 95.897 100.47 96.527 100.05 96.897 99.86 97.057 99.631 97.137 99.4 97.137 99.12 97.137 98.84 97.017 98.64 96.787zM99.74 99.817C99.74 99.267 100.191 98.817 100.74 98.817 101.291 98.817 101.74 99.267 101.74 99.817 101.74 100.367 101.291 100.817 100.74 100.817 100.191 100.817 99.74 100.367 99.74 99.817zM98.751 104.257C98.33 103.897 98.28 103.267 98.64 102.847 99.001 102.427 99.631 102.377 100.05 102.737 100.47 103.097 100.521 103.727 100.16 104.147 99.961 104.377 99.68 104.497 99.4 104.497 99.171 104.497 98.941 104.417 98.751 104.257zM95.03 105.757C94.86 105.227 95.15 104.667 95.671 104.497 96.2 104.327 96.76 104.617 96.941 105.137 97.11 105.667 96.82 106.227 96.291 106.397 96.191 106.427 96.09 106.447 95.981 106.447 95.56 106.447 95.171 106.177 95.03 105.757zM92.16 107.687C91.9 107.687 91.64 107.577 91.45 107.387 91.271 107.207 91.16 106.947 91.16 106.687 91.16 106.547 91.191 106.427 91.24 106.297 91.291 106.177 91.36 106.067 91.45 105.977 91.731 105.697 92.18 105.607 92.541 105.757 92.671 105.807 92.78 105.887 92.87 105.977 92.961 106.067 93.03 106.177 93.08 106.297 93.14 106.427 93.16 106.547 93.16 106.687 93.16 106.947 93.06 107.207 92.87 107.387 92.68 107.577 92.421 107.687 92.16 107.687M92.6 111.267C92.43 110.747 92.711 110.177 93.24 110.007 93.771 109.837 94.33 110.127 94.501 110.657 94.671 111.177 94.381 111.747 93.86 111.917 93.751 111.947 93.65 111.957 93.55 111.957 93.12 111.957 92.731 111.697 92.6 111.267M94.93 116.237C94.87 116.237 94.8 116.237 94.74 116.217 94.671 116.207 94.61 116.187 94.55 116.167 94.49 116.137 94.43 116.107 94.381 116.067 94.32 116.037 94.271 115.997 94.231 115.947 94.041 115.757 93.93 115.507 93.93 115.237 93.93 114.977 94.041 114.717 94.231 114.537 94.6 114.157 95.271 114.157 95.64 114.537 95.691 114.577 95.731 114.627 95.76 114.687 95.8 114.737 95.83 114.797 95.86 114.857 95.881 114.917 95.9 114.977 95.91 115.047 95.93 115.107 95.93 115.177 95.93 115.237 95.93 115.497 95.83 115.757 95.64 115.947 95.45 116.137 95.191 116.237 94.93 116.237"/>
    <path fill="#434A4F" d="M102.421 114.547C101.881 114.417 101.55 113.877 101.68 113.347 101.8 112.807 102.34 112.477 102.881 112.597 103.421 112.727 103.751 113.267 103.631 113.807 103.521 114.267 103.11 114.577 102.651 114.577 102.58 114.577 102.501 114.567 102.421 114.547zM97.791 114.317C97.62 113.787 97.91 113.227 98.43 113.057 98.961 112.887 99.521 113.177 99.691 113.697 99.86 114.227 99.57 114.787 99.05 114.957 98.941 114.987 98.84 115.007 98.74 115.007 98.32 115.007 97.921 114.737 97.791 114.317zM105.09 116.347L105.09 116.357C104.771 115.907 104.86 115.277 105.31 114.957 105.76 114.627 106.381 114.727 106.711 115.177 107.03 115.627 106.93 116.247 106.49 116.577 106.31 116.697 106.1 116.767 105.901 116.767 105.59 116.767 105.28 116.617 105.09 116.347zM106.901 120.527C106.35 120.477 105.941 119.997 105.981 119.447 106.03 118.897 106.51 118.487 107.06 118.527 107.61 118.577 108.021 119.057 107.981 119.607 107.941 120.137 107.501 120.527 106.981 120.527 106.95 120.527 106.93 120.527 106.901 120.527zM104.771 123.927C104.32 123.597 104.231 122.977 104.55 122.527 104.881 122.077 105.501 121.987 105.95 122.307 106.401 122.637 106.49 123.257 106.171 123.707 105.97 123.977 105.671 124.117 105.36 124.117 105.151 124.117 104.95 124.057 104.771 123.927zM103.001 127.367C102.731 127.367 102.47 127.257 102.291 127.067 102.2 126.977 102.12 126.867 102.07 126.747 102.021 126.627 102.001 126.497 102.001 126.367 102.001 126.097 102.1 125.847 102.291 125.657 102.521 125.427 102.87 125.317 103.191 125.387 103.26 125.397 103.32 125.417 103.381 125.437 103.441 125.467 103.501 125.497 103.55 125.527 103.61 125.567 103.66 125.607 103.7 125.657 103.89 125.847 104.001 126.097 104.001 126.367 104.001 126.497 103.97 126.627 103.921 126.747 103.87 126.867 103.791 126.977 103.7 127.067 103.66 127.117 103.61 127.157 103.55 127.197 103.501 127.227 103.441 127.257 103.381 127.287 103.32 127.307 103.26 127.327 103.191 127.347 103.131 127.357 103.06 127.367 103.001 127.367M106.041 129.817C105.6 129.497 105.501 128.867 105.82 128.427 106.151 127.977 106.771 127.877 107.22 128.197 107.671 128.527 107.76 129.157 107.441 129.597 107.24 129.867 106.941 130.007 106.631 130.007 106.421 130.007 106.22 129.947 106.041 129.817M110.271 132.657C110.001 132.657 109.74 132.547 109.56 132.367 109.47 132.267 109.39 132.157 109.34 132.037 109.291 131.917 109.271 131.787 109.271 131.657 109.271 131.587 109.271 131.527 109.291 131.457 109.3 131.397 109.32 131.337 109.34 131.277 109.37 131.217 109.401 131.157 109.43 131.097 109.47 131.047 109.51 130.997 109.56 130.947 109.84 130.667 110.28 130.577 110.651 130.737 110.771 130.787 110.881 130.857 110.97 130.947 111.021 130.997 111.06 131.047 111.1 131.097 111.131 131.157 111.16 131.217 111.191 131.277 111.211 131.337 111.231 131.397 111.251 131.457 111.26 131.527 111.271 131.587 111.271 131.657 111.271 131.787 111.24 131.917 111.191 132.037 111.14 132.157 111.07 132.267 110.97 132.367 110.881 132.457 110.771 132.527 110.651 132.577 110.53 132.637 110.401 132.657 110.271 132.657M119.14 126.587C118.61 126.417 118.32 125.847 118.49 125.327 118.671 124.797 119.231 124.507 119.751 124.677 119.751 124.677 119.751 124.677 119.76 124.677 120.28 124.857 120.57 125.417 120.401 125.947 120.26 126.367 119.87 126.637 119.45 126.637 119.34 126.637 119.24 126.617 119.14 126.587zM114.61 126.157C114.401 125.647 114.631 125.057 115.14 124.847 115.651 124.637 116.24 124.877 116.45 125.387 116.671 125.897 116.43 126.477 115.921 126.697 115.791 126.747 115.66 126.767 115.53 126.767 115.14 126.767 114.771 126.537 114.61 126.157zM121.68 128.567C121.39 128.087 121.541 127.477 122.01 127.187 122.49 126.907 123.1 127.047 123.39 127.527 123.68 127.997 123.53 128.607 123.05 128.897 122.89 128.997 122.711 129.047 122.53 129.047 122.2 129.047 121.87 128.867 121.68 128.567zM112.03 129.227C111.59 128.907 111.49 128.277 111.81 127.837 112.14 127.387 112.76 127.287 113.211 127.617 113.66 127.937 113.76 128.567 113.43 129.007 113.231 129.277 112.93 129.427 112.62 129.427 112.421 129.427 112.211 129.357 112.03 129.227zM122.33 131.897C122.33 131.347 122.78 130.897 123.33 130.897 123.881 130.897 124.33 131.347 124.33 131.897 124.33 132.447 123.881 132.897 123.33 132.897 122.78 132.897 122.33 132.447 122.33 131.897zM123.33 136.917C123.26 136.917 123.2 136.907 123.131 136.897 123.07 136.887 123.001 136.867 122.941 136.837 122.881 136.817 122.83 136.787 122.771 136.747 122.72 136.707 122.671 136.667 122.62 136.627 122.43 136.437 122.33 136.177 122.33 135.917 122.33 135.847 122.33 135.787 122.35 135.717 122.36 135.657 122.381 135.597 122.401 135.537 122.43 135.477 122.461 135.417 122.501 135.357 122.53 135.307 122.57 135.257 122.62 135.207 122.89 134.937 123.34 134.837 123.711 134.997 123.83 135.047 123.941 135.117 124.03 135.207 124.08 135.257 124.12 135.307 124.16 135.357 124.191 135.417 124.231 135.477 124.251 135.537 124.271 135.597 124.291 135.657 124.31 135.717 124.32 135.787 124.33 135.847 124.33 135.917 124.33 136.177 124.22 136.437 124.03 136.627 123.85 136.807 123.59 136.917 123.33 136.917M126.82 135.917C126.82 135.367 127.271 134.917 127.83 134.917 128.38 134.917 128.82 135.367 128.82 135.927 128.82 136.477 128.38 136.917 127.82 136.917 127.271 136.917 126.82 136.467 126.82 135.917M132.32 136.927C132.261 136.927 132.191 136.917 132.13 136.907 132.061 136.897 132 136.877 131.941 136.847 131.88 136.827 131.82 136.797 131.771 136.757 131.71 136.717 131.66 136.677 131.61 136.637 131.431 136.447 131.32 136.187 131.32 135.927 131.32 135.797 131.34 135.667 131.401 135.547 131.45 135.417 131.521 135.307 131.61 135.217 131.66 135.177 131.71 135.127 131.771 135.097 131.82 135.057 131.88 135.027 131.941 135.007 132 134.977 132.061 134.957 132.13 134.947 132.32 134.907 132.521 134.927 132.7 135.007 132.761 135.027 132.82 135.057 132.88 135.097 132.931 135.127 132.981 135.177 133.03 135.217 133.12 135.307 133.191 135.417 133.24 135.547 133.3 135.667 133.32 135.797 133.32 135.927 133.32 136.187 133.21 136.447 133.03 136.637 132.981 136.677 132.931 136.717 132.88 136.757 132.82 136.797 132.761 136.827 132.7 136.847 132.58 136.897 132.45 136.927 132.32 136.927M135.25 125.967C135.08 125.437 135.37 124.877 135.891 124.707 136.42 124.537 136.981 124.817 137.16 125.347 137.33 125.867 137.04 126.437 136.511 126.607 136.41 126.637 136.311 126.657 136.2 126.657 135.78 126.657 135.391 126.387 135.25 125.967zM139.731 126.707C139.221 126.497 138.981 125.917 139.2 125.407 139.41 124.897 139.99 124.657 140.5 124.867 141.011 125.077 141.25 125.667 141.04 126.177 140.88 126.557 140.511 126.787 140.12 126.787 139.99 126.787 139.86 126.767 139.731 126.707zM132.601 128.927C132.13 128.637 131.981 128.027 132.261 127.547 132.261 127.547 132.261 127.547 132.271 127.547 132.55 127.077 133.17 126.927 133.641 127.217 134.11 127.497 134.261 128.117 133.981 128.587 133.79 128.897 133.46 129.067 133.12 129.067 132.941 129.067 132.761 129.027 132.601 128.927zM142.221 129.027C141.901 128.577 142 127.957 142.441 127.627 142.891 127.307 143.521 127.407 143.84 127.847 144.16 128.297 144.07 128.927 143.62 129.247 143.441 129.377 143.231 129.437 143.03 129.437 142.721 129.437 142.42 129.297 142.221 129.027zM131.33 131.927C131.33 131.367 131.771 130.927 132.33 130.927 132.88 130.927 133.32 131.377 133.32 131.927 133.32 132.477 132.88 132.927 132.32 132.927 131.771 132.927 131.32 132.477 131.33 131.927zM145.391 132.697C145.33 132.697 145.261 132.687 145.2 132.677 145.13 132.667 145.07 132.647 145.011 132.617 144.95 132.597 144.891 132.557 144.83 132.527 144.78 132.487 144.731 132.447 144.681 132.397 144.5 132.217 144.391 131.957 144.391 131.697 144.391 131.427 144.5 131.177 144.681 130.987 144.731 130.937 144.78 130.897 144.83 130.867 144.891 130.827 144.95 130.797 145.011 130.767 145.07 130.747 145.13 130.727 145.2 130.717 145.33 130.687 145.46 130.687 145.59 130.717 145.651 130.727 145.71 130.747 145.771 130.767 145.83 130.797 145.891 130.827 145.95 130.867 146 130.897 146.05 130.937 146.101 130.987 146.28 131.167 146.391 131.427 146.391 131.697 146.391 131.957 146.28 132.217 146.101 132.397 145.91 132.587 145.651 132.697 145.391 132.697M148.221 129.647C147.901 129.197 148 128.567 148.441 128.247 148.891 127.927 149.521 128.017 149.84 128.467 150.17 128.917 150.061 129.537 149.62 129.867 149.441 129.997 149.24 130.057 149.03 130.057 148.721 130.057 148.42 129.907 148.221 129.647M152.67 127.417C152.41 127.417 152.151 127.307 151.96 127.127 151.78 126.937 151.67 126.677 151.67 126.417 151.67 126.147 151.78 125.897 151.96 125.707 152.2 125.477 152.54 125.367 152.87 125.437 152.931 125.447 152.99 125.467 153.05 125.487 153.12 125.517 153.17 125.547 153.231 125.587 153.28 125.617 153.33 125.657 153.38 125.707 153.57 125.897 153.67 126.147 153.67 126.417 153.67 126.677 153.57 126.937 153.38 127.127 153.33 127.167 153.28 127.207 153.231 127.247 153.17 127.287 153.12 127.317 153.05 127.337 152.99 127.367 152.931 127.387 152.87 127.397 152.8 127.407 152.74 127.417 152.67 127.417M152.05 113.857C151.92 113.327 152.25 112.787 152.79 112.657 153.33 112.527 153.87 112.867 154 113.397 154.12 113.937 153.79 114.477 153.25 114.607L153.261 114.607C153.181 114.627 153.101 114.627 153.021 114.627 152.57 114.627 152.16 114.317 152.05 113.857zM156.63 115.017C156.101 114.847 155.811 114.277 155.99 113.747 156.16 113.227 156.721 112.937 157.25 113.117 157.771 113.287 158.061 113.847 157.891 114.377 157.75 114.797 157.36 115.067 156.941 115.067 156.83 115.067 156.731 115.047 156.63 115.017zM149.191 116.637C148.75 116.307 148.641 115.687 148.971 115.237 149.29 114.787 149.92 114.687 150.37 115.017 150.811 115.337 150.91 115.967 150.59 116.407 150.391 116.677 150.09 116.827 149.78 116.827 149.57 116.827 149.37 116.757 149.191 116.637zM147.71 119.677C147.71 119.677 147.71 119.677 147.7 119.677 147.66 119.117 148.07 118.637 148.62 118.597 149.17 118.547 149.651 118.957 149.7 119.507 149.74 120.057 149.33 120.537 148.78 120.587 148.761 120.587 148.731 120.587 148.7 120.587 148.191 120.587 147.75 120.197 147.71 119.677zM149.511 123.767C149.191 123.317 149.29 122.687 149.74 122.367 150.181 122.047 150.811 122.147 151.13 122.587 151.46 123.037 151.36 123.657 150.91 123.987 150.731 124.117 150.53 124.177 150.32 124.177 150.011 124.177 149.71 124.037 149.511 123.767zM160.761 116.307C160.5 116.307 160.24 116.207 160.05 116.017 159.96 115.927 159.891 115.817 159.84 115.697 159.79 115.567 159.761 115.437 159.761 115.307 159.761 115.177 159.79 115.047 159.84 114.927 159.891 114.807 159.96 114.697 160.05 114.607 160.42 114.227 161.101 114.227 161.471 114.607 161.561 114.697 161.63 114.807 161.681 114.927 161.731 115.047 161.761 115.177 161.761 115.307 161.761 115.437 161.731 115.567 161.681 115.697 161.63 115.817 161.561 115.927 161.471 116.017 161.28 116.207 161.021 116.307 160.761 116.307M161.82 112.057C161.29 111.887 161.011 111.327 161.181 110.797 161.351 110.267 161.91 109.987 162.441 110.157 162.96 110.327 163.25 110.887 163.08 111.417 162.941 111.837 162.55 112.107 162.13 112.107 162.03 112.107 161.92 112.087 161.82 112.057M163.5 107.907C163.24 107.907 162.981 107.797 162.79 107.607 162.75 107.567 162.71 107.507 162.67 107.457 162.63 107.407 162.601 107.347 162.58 107.287 162.55 107.227 162.53 107.157 162.521 107.097 162.511 107.037 162.5 106.967 162.5 106.907 162.5 106.637 162.61 106.377 162.79 106.197 162.891 106.097 163 106.027 163.12 105.977 163.49 105.827 163.931 105.917 164.21 106.197 164.391 106.377 164.5 106.637 164.5 106.907 164.5 107.167 164.391 107.427 164.21 107.607 164.16 107.657 164.11 107.697 164.061 107.737 164 107.767 163.941 107.797 163.88 107.827 163.82 107.847 163.761 107.867 163.7 107.887 163.63 107.897 163.57 107.907 163.5 107.907M158.74 94.707C158.57 94.187 158.86 93.617 159.38 93.447 159.91 93.277 160.471 93.567 160.641 94.097 160.811 94.617 160.521 95.177 160 95.357 159.901 95.387 159.79 95.407 159.691 95.407 159.271 95.407 158.88 95.137 158.74 94.707zM155.62 97.107C155.2 96.747 155.151 96.117 155.511 95.697 155.87 95.277 156.5 95.227 156.92 95.597 157.34 95.947 157.391 96.587 157.03 97.007 156.83 97.237 156.55 97.347 156.271 97.347 156.04 97.347 155.811 97.267 155.62 97.107zM153.941 100.037C153.931 99.477 154.38 99.037 154.931 99.037 155.49 99.037 155.931 99.477 155.931 100.037 155.931 100.587 155.49 101.027 154.931 101.037 154.38 101.037 153.941 100.587 153.941 100.037zM155.521 104.367C155.16 103.947 155.2 103.317 155.62 102.957 156.04 102.597 156.67 102.637 157.03 103.057 157.391 103.477 157.351 104.107 156.931 104.467 156.74 104.637 156.511 104.717 156.28 104.717 156 104.717 155.721 104.597 155.521 104.367zM159.391 106.607C158.86 106.437 158.57 105.877 158.75 105.347 158.92 104.827 159.481 104.537 160.011 104.707 160.53 104.887 160.82 105.447 160.651 105.967 160.511 106.397 160.12 106.657 159.7 106.657 159.59 106.657 159.49 106.647 159.391 106.607zM163.511 94.167C163.25 94.167 162.99 94.057 162.811 93.867 162.761 93.827 162.721 93.777 162.681 93.717 162.651 93.667 162.62 93.607 162.59 93.547 162.57 93.487 162.55 93.427 162.53 93.357 162.521 93.297 162.511 93.227 162.511 93.167 162.511 92.897 162.62 92.647 162.811 92.457 163.181 92.087 163.851 92.087 164.221 92.457 164.41 92.647 164.511 92.897 164.511 93.167 164.511 93.427 164.41 93.687 164.221 93.867 164.04 94.057 163.78 94.167 163.511 94.167M161.181 89.197C161.011 88.667 161.29 88.107 161.82 87.937 162.34 87.767 162.91 88.057 163.08 88.577 163.25 89.107 162.96 89.667 162.441 89.837 162.33 89.867 162.231 89.887 162.13 89.887 161.71 89.887 161.311 89.617 161.181 89.197M160.74 85.607C160.481 85.607 160.221 85.497 160.04 85.317 159.851 85.127 159.74 84.877 159.74 84.607 159.74 84.347 159.851 84.087 160.04 83.897 160.41 83.527 161.08 83.527 161.45 83.897 161.641 84.087 161.74 84.347 161.74 84.607 161.74 84.877 161.641 85.127 161.45 85.317 161.261 85.497 161.011 85.607 160.74 85.607M149.721 77.547C149.28 77.217 149.181 76.597 149.5 76.147 149.83 75.697 150.45 75.607 150.901 75.927 151.351 76.257 151.45 76.877 151.12 77.327 150.92 77.597 150.62 77.737 150.311 77.737 150.11 77.737 149.901 77.677 149.721 77.547zM148.61 81.317C148.061 81.277 147.651 80.797 147.691 80.237 147.74 79.687 148.221 79.287 148.771 79.327 149.32 79.367 149.731 79.857 149.691 80.407 149.651 80.927 149.21 81.327 148.691 81.327 148.66 81.327 148.641 81.327 148.61 81.317zM148.971 84.677C148.641 84.227 148.74 83.607 149.181 83.277 149.63 82.947 150.261 83.047 150.58 83.497 150.91 83.947 150.811 84.567 150.36 84.897 150.191 85.027 149.981 85.087 149.78 85.087 149.471 85.087 149.16 84.947 148.971 84.677zM155.99 86.147C155.811 85.627 156.101 85.057 156.63 84.887 157.151 84.717 157.721 85.007 157.891 85.537 158.061 86.057 157.771 86.617 157.24 86.787 157.141 86.827 157.04 86.837 156.941 86.837 156.511 86.837 156.12 86.567 155.99 86.147zM152.79 87.247C152.261 87.117 151.92 86.587 152.05 86.047 152.181 85.507 152.71 85.177 153.25 85.297 153.79 85.427 154.12 85.967 154 86.507 153.891 86.967 153.481 87.277 153.021 87.277 152.95 87.277 152.87 87.267 152.79 87.247zM152.681 74.487C152.42 74.487 152.16 74.377 151.971 74.197 151.79 74.007 151.681 73.747 151.681 73.487 151.681 73.227 151.79 72.967 151.971 72.777 152.34 72.407 153.011 72.407 153.391 72.777 153.57 72.967 153.681 73.227 153.681 73.487 153.681 73.747 153.57 74.007 153.391 74.197 153.2 74.377 152.941 74.487 152.681 74.487M148.45 71.647C148.011 71.317 147.91 70.697 148.231 70.247 148.561 69.807 149.181 69.707 149.63 70.027 150.08 70.357 150.17 70.977 149.851 71.427 149.66 71.697 149.351 71.837 149.04 71.837 148.84 71.837 148.63 71.777 148.45 71.647M145.41 69.197C145.28 69.197 145.151 69.167 145.03 69.117 144.901 69.067 144.79 68.997 144.7 68.897 144.511 68.707 144.41 68.457 144.41 68.197 144.41 67.927 144.511 67.677 144.7 67.487 144.79 67.387 144.901 67.317 145.03 67.267 145.21 67.197 145.41 67.177 145.601 67.207 145.67 67.227 145.731 67.247 145.79 67.267 145.851 67.297 145.91 67.327 145.96 67.357 146.021 67.397 146.07 67.437 146.11 67.487 146.3 67.677 146.41 67.927 146.41 68.197 146.41 68.457 146.3 68.717 146.11 68.897 146.07 68.947 146.021 68.987 145.96 69.027 145.91 69.057 145.851 69.087 145.79 69.117 145.731 69.137 145.67 69.157 145.601 69.177 145.54 69.187 145.471 69.197 145.41 69.197M131.34 67.947C131.34 67.397 131.79 66.947 132.34 66.947 132.891 66.947 133.34 67.397 133.34 67.947 133.34 68.507 132.891 68.947 132.34 68.947 131.79 68.947 131.34 68.497 131.34 67.947zM142.471 72.237C142.021 71.907 141.92 71.287 142.24 70.837 142.57 70.387 143.191 70.297 143.641 70.617 144.09 70.947 144.191 71.567 143.86 72.017 143.67 72.287 143.36 72.427 143.05 72.427 142.851 72.427 142.641 72.367 142.471 72.237zM132.29 72.327C132 71.847 132.151 71.237 132.62 70.947 133.09 70.667 133.71 70.817 133.99 71.287 134.28 71.757 134.13 72.377 133.66 72.657 133.5 72.757 133.32 72.807 133.141 72.807 132.8 72.807 132.471 72.637 132.29 72.327zM139.221 74.467C139.011 73.957 139.25 73.367 139.761 73.157 140.271 72.937 140.851 73.177 141.061 73.697 141.28 74.197 141.04 74.787 140.53 74.997 140.401 75.057 140.271 75.077 140.141 75.077 139.75 75.077 139.38 74.847 139.221 74.467zM135.92 75.167C135.391 74.997 135.101 74.427 135.28 73.907 135.45 73.377 136.011 73.087 136.54 73.257 137.061 73.437 137.351 73.997 137.181 74.527 137.04 74.947 136.651 75.217 136.231 75.217 136.13 75.217 136.021 75.197 135.92 75.167zM132.351 64.937C132.08 64.937 131.83 64.827 131.641 64.637 131.45 64.457 131.351 64.197 131.351 63.937 131.351 63.807 131.37 63.677 131.42 63.557 131.471 63.427 131.55 63.317 131.641 63.227 131.691 63.177 131.74 63.137 131.79 63.107 131.851 63.067 131.901 63.037 131.96 63.007 132.021 62.987 132.09 62.967 132.151 62.957 132.28 62.927 132.41 62.927 132.54 62.957 132.61 62.967 132.67 62.987 132.731 63.007 132.79 63.037 132.851 63.067 132.901 63.107 132.96 63.137 133.011 63.177 133.05 63.227 133.24 63.417 133.351 63.667 133.351 63.937 133.351 64.197 133.24 64.457 133.05 64.637 132.87 64.827 132.61 64.937 132.351 64.937M127.85 64.927C127.3 64.927 126.85 64.477 126.85 63.927 126.85 63.377 127.3 62.927 127.85 62.927 128.401 62.927 128.85 63.377 128.85 63.927 128.85 64.477 128.401 64.927 127.85 64.927M123.35 64.927C123.291 64.927 123.22 64.917 123.16 64.907 123.09 64.897 123.03 64.877 122.97 64.847 122.91 64.827 122.85 64.797 122.8 64.757 122.74 64.717 122.691 64.677 122.651 64.637 122.6 64.587 122.56 64.537 122.521 64.477 122.49 64.427 122.45 64.367 122.43 64.307 122.401 64.247 122.39 64.187 122.37 64.117 122.36 64.057 122.35 63.987 122.35 63.927 122.35 63.797 122.381 63.667 122.43 63.547 122.481 63.417 122.55 63.307 122.651 63.217 122.921 62.937 123.37 62.847 123.74 63.007 123.86 63.057 123.97 63.127 124.06 63.217 124.251 63.407 124.35 63.667 124.35 63.927 124.35 63.987 124.35 64.057 124.33 64.117 124.32 64.187 124.3 64.247 124.28 64.307 124.251 64.367 124.22 64.427 124.18 64.477 124.151 64.537 124.11 64.587 124.06 64.637 123.87 64.817 123.62 64.927 123.35 64.927M123.35 68.927C122.8 68.927 122.35 68.477 122.35 67.927 122.35 67.377 122.8 66.927 123.35 66.927 123.901 66.927 124.35 67.377 124.35 67.927 124.35 68.477 123.901 68.927 123.35 68.927zM111.83 71.997C111.51 71.547 111.61 70.927 112.05 70.597 112.501 70.277 113.131 70.377 113.45 70.827 113.78 71.267 113.68 71.897 113.231 72.217 113.05 72.347 112.85 72.407 112.64 72.407 112.33 72.407 112.03 72.267 111.83 71.997zM122.03 72.637C121.56 72.347 121.41 71.737 121.7 71.267 121.99 70.787 122.6 70.637 123.07 70.927 123.541 71.207 123.691 71.827 123.41 72.297 123.22 72.607 122.89 72.777 122.55 72.777 122.381 72.777 122.2 72.737 122.03 72.637zM115.171 74.987C114.66 74.767 114.421 74.187 114.631 73.677 114.84 73.167 115.43 72.927 115.941 73.137 116.45 73.347 116.691 73.937 116.481 74.447 116.32 74.827 115.941 75.057 115.55 75.057 115.421 75.057 115.291 75.037 115.171 74.987zM118.521 74.507C118.35 73.977 118.631 73.407 119.16 73.237L119.16 73.247C119.68 73.067 120.251 73.357 120.421 73.887 120.59 74.407 120.3 74.977 119.78 75.147 119.671 75.177 119.57 75.197 119.47 75.197 119.05 75.197 118.651 74.927 118.521 74.507zM110.28 69.157C110.22 69.157 110.151 69.147 110.09 69.137 110.021 69.127 109.961 69.107 109.901 69.077 109.84 69.057 109.78 69.027 109.731 68.987 109.671 68.957 109.62 68.907 109.58 68.867 109.481 68.767 109.41 68.667 109.36 68.537 109.31 68.417 109.28 68.287 109.28 68.157 109.28 68.097 109.291 68.027 109.3 67.957 109.32 67.897 109.34 67.837 109.36 67.777 109.39 67.717 109.421 67.657 109.45 67.607 109.49 67.547 109.53 67.497 109.58 67.447 109.62 67.407 109.671 67.367 109.731 67.327 109.78 67.287 109.84 67.257 109.901 67.237 109.961 67.207 110.021 67.187 110.09 67.177 110.28 67.137 110.481 67.157 110.671 67.237 110.791 67.287 110.901 67.357 110.99 67.447 111.041 67.497 111.08 67.547 111.12 67.607 111.151 67.657 111.18 67.717 111.211 67.777 111.231 67.837 111.251 67.897 111.271 67.957 111.28 68.027 111.28 68.097 111.28 68.157 111.28 68.287 111.26 68.417 111.211 68.537 111.16 68.667 111.08 68.767 110.99 68.867 110.901 68.957 110.791 69.027 110.671 69.077 110.541 69.137 110.41 69.157 110.28 69.157M105.83 71.387C105.51 70.937 105.61 70.307 106.06 69.987 106.501 69.667 107.131 69.767 107.45 70.207 107.78 70.657 107.68 71.287 107.231 71.607 107.05 71.737 106.85 71.797 106.64 71.797 106.33 71.797 106.03 71.657 105.83 71.387M103.001 74.437C102.74 74.437 102.481 74.327 102.291 74.147 102.2 74.047 102.131 73.937 102.08 73.817 102.03 73.697 102.001 73.567 102.001 73.437 102.001 73.177 102.11 72.917 102.291 72.727 102.53 72.497 102.87 72.387 103.2 72.457 103.26 72.467 103.33 72.487 103.39 72.517 103.45 72.537 103.501 72.567 103.56 72.607 103.61 72.637 103.66 72.687 103.711 72.727 103.901 72.917 104.001 73.177 104.001 73.437 104.001 73.567 103.981 73.697 103.93 73.817 103.87 73.937 103.8 74.047 103.711 74.147 103.66 74.187 103.61 74.227 103.56 74.267 103.501 74.307 103.45 74.337 103.39 74.357 103.33 74.387 103.26 74.407 103.2 74.417 103.131 74.427 103.07 74.437 103.001 74.437M104.541 77.267C104.22 76.817 104.32 76.187 104.76 75.867 105.211 75.547 105.84 75.637 106.16 76.087 106.481 76.537 106.381 77.157 105.941 77.487 105.76 77.617 105.56 77.677 105.35 77.677 105.041 77.677 104.74 77.527 104.541 77.267zM105.981 80.347C105.93 79.797 106.34 79.317 106.89 79.267 107.441 79.217 107.921 79.627 107.97 80.177 108.01 80.727 107.61 81.217 107.06 81.257 107.03 81.267 107.001 81.267 106.97 81.267 106.461 81.267 106.021 80.867 105.981 80.347zM105.3 84.837C104.86 84.507 104.76 83.887 105.08 83.437 105.41 82.997 106.03 82.897 106.481 83.217 106.93 83.547 107.021 84.167 106.7 84.617 106.501 84.887 106.2 85.027 105.89 85.027 105.691 85.027 105.481 84.967 105.3 84.837zM98.421 86.737C97.9 86.567 97.61 86.007 97.78 85.477 97.95 84.947 98.521 84.667 99.041 84.837 99.57 85.007 99.86 85.577 99.691 86.097 99.55 86.517 99.15 86.787 98.731 86.787 98.631 86.787 98.53 86.767 98.421 86.737zM101.671 86.447C101.55 85.917 101.881 85.377 102.421 85.247 102.95 85.117 103.49 85.447 103.62 85.987 103.751 86.527 103.41 87.067 102.881 87.197 102.8 87.207 102.72 87.217 102.651 87.217 102.191 87.217 101.78 86.907 101.671 86.447zM94.921 85.547C94.791 85.547 94.66 85.517 94.53 85.467 94.41 85.417 94.3 85.347 94.211 85.247 94.021 85.067 93.921 84.807 93.921 84.547 93.921 84.277 94.021 84.017 94.211 83.837 94.3 83.747 94.41 83.667 94.53 83.617 94.78 83.517 95.05 83.517 95.3 83.617 95.421 83.667 95.53 83.747 95.62 83.837 95.81 84.017 95.921 84.277 95.921 84.547 95.921 84.607 95.91 84.677 95.9 84.737 95.881 84.807 95.86 84.867 95.84 84.927 95.81 84.987 95.78 85.047 95.751 85.097 95.711 85.157 95.671 85.207 95.62 85.247 95.53 85.347 95.421 85.417 95.3 85.467 95.18 85.517 95.05 85.547 94.921 85.547M93.24 89.697C92.711 89.527 92.421 88.957 92.6 88.437 92.771 87.907 93.33 87.627 93.86 87.797 94.381 87.967 94.671 88.527 94.501 89.057 94.36 89.477 93.97 89.747 93.55 89.747 93.441 89.747 93.34 89.727 93.24 89.697"/>
  </g>
</svg>
