<svg xmlns="http://www.w3.org/2000/svg" width="250" height="250" viewBox="0 0 250 250">
  <g fill="none" fill-rule="evenodd">
    <path fill="#FACD60" d="M88.338,55.094 C88.338,56.215 89.246,57.123 90.367,57.123 C91.488,57.123 92.396,56.215 92.396,55.094 C92.396,53.973 91.488,53.065 90.367,53.065 C89.246,53.065 88.338,53.973 88.338,55.094"/>
    <path fill="#E9886C" d="M139.155,135.235 C139.155,140.125 135.176,144.104 130.285,144.104 L126.871,144.124 L126.871,150.348 L120.871,150.348 L120.871,144.158 L117.293,144.178 C112.795,144.178 109.15,140.498 109.15,135.975 L115.15,135.975 C115.15,137.169 116.124,138.178 117.276,138.178 L120.871,138.158 L120.871,128.825 L117.458,128.825 C112.567,128.825 108.588,124.846 108.588,119.956 L108.588,116.416 C108.588,111.525 112.567,107.546 117.458,107.546 L120.871,107.546 L120.871,101.806 L126.871,101.806 L126.871,107.546 L131.246,107.546 C135.18,107.546 138.381,110.747 138.381,114.682 L132.381,114.682 C132.381,114.056 131.872,113.546 131.246,113.546 L126.871,113.546 L126.871,122.825 L130.285,122.825 C135.176,122.825 139.155,126.804 139.155,131.695 L139.155,135.235 Z M113.628,94.313 L133.628,94.313 L133.628,90.313 L113.628,90.313 L113.628,94.313 Z M185.724,115.133 C185.589,115.132 185.38,115.127 185.071,115.103 C184.975,115.097 184.859,115.098 184.728,115.099 C184.722,115.099 184.717,115.099 184.711,115.099 C182.798,115.096 177.716,115.089 174.766,108.501 C172.757,103.925 169.918,99.728 166.436,96.151 C166.123,97.337 165.884,98.155 165.863,98.226 L160.106,96.535 C160.114,96.507 160.792,94.188 161.359,91.666 L161.344,91.654 L161.709,89.989 C161.713,89.968 161.718,89.947 161.722,89.926 L161.723,89.926 L163.146,83.435 C163.357,82.732 163.418,81.717 163.278,81.348 C162.412,80.94 159.641,81.932 158.132,82.473 C157.777,82.6 157.428,82.724 157.088,82.842 C156.458,83.061 154.843,83.665 150.747,85.293 L149.771,85.681 L148.767,85.375 C146.816,84.782 144.805,84.33 142.79,84.031 C142.311,83.96 141.829,83.898 141.345,83.843 C141.195,83.828 122.683,82.005 109.526,84.364 L109.367,84.395 C108.89,84.488 108.412,84.579 107.942,84.69 C89.755,88.984 76.581,104.972 75.888,123.579 L75.888,123.643 L76.021,127.754 C76.665,138.643 81.605,148.778 89.927,156.211 L90.928,157.106 L90.928,161.569 C91.769,161.462 92.617,161.387 93.478,161.387 L146.148,161.387 L146.148,164.387 C146.148,169.206 144.357,173.537 141.379,176.784 L154.991,176.784 L157.555,175.525 L157.511,161.71 L159.078,160.854 C159.19,160.792 170.976,154.149 175.308,140.588 C176.737,135.236 177.777,133.585 178.98,131.676 C181.093,128.322 184.473,126.611 186.787,125.787 L186.787,115.133 L185.724,115.133 Z"/>
    <path fill="#E9886C" d="M130.285 128.825L126.871 128.825 126.871 138.124 130.268 138.104C131.867 138.104 133.155 136.817 133.155 135.235L133.155 131.695C133.155 130.112 131.867 128.825 130.285 128.825M114.588 116.416L114.588 119.956C114.588 121.538 115.875 122.825 117.458 122.825L120.871 122.825 120.871 113.546 117.458 113.546C115.875 113.546 114.588 114.833 114.588 116.416"/>
    <path fill="#DBDBD5" d="M179.414 156.736C182.429 156.245 185.437 156.897 187.667 158.525 187.85 158.659 188.028 158.798 188.201 158.942L181.137 163.942 163.545 172.583 163.522 165.159C165.175 164.072 167.93 162.058 170.854 159.067L173.402 158.218C175.357 157.566 177.38 157.067 179.414 156.736M57.781 214.297L57.781 214.299C57.78 215.491 56.81 216.459 55.619 216.459 55.618 216.459 55.618 216.459 55.617 216.459L48.628 216.452 48.628 202.277 55.677 202.285C56.248 202.285 56.79 202.512 57.2 202.924 57.611 203.335 57.837 203.877 57.836 204.446L57.781 214.297"/>
    <path fill="#42494E" d="M81.667,213.338 L60.836,213.338 L60.836,211.338 L81.475,211.338 L158.602,196.428 L202.131,169.768 C196.417,164.662 189.415,163.758 183.178,167.392 L155.92,180.784 L109.142,180.784 L109.142,178.784 L127.458,178.784 C135.352,178.784 141.607,172.977 142.115,165.387 L93.478,165.387 C89.262,165.387 85.299,167.029 82.32,170.009 L61.543,190.785 L60.129,189.371 L80.906,168.595 C84.263,165.237 88.728,163.387 93.478,163.387 L144.148,163.387 L144.148,164.387 C144.148,170.671 140.723,176.025 135.568,178.784 L155.456,178.784 L182.234,165.631 C189.471,161.409 198.017,162.776 204.474,169.232 L205.372,170.129 L159.338,198.323 L159.16,198.358 L81.667,213.338"/>
    <path fill="#42494E" d="M182.675 167.529C182.362 167.529 182.053 167.382 181.858 167.106 181.539 166.656 181.646 166.031 182.096 165.712L191.261 159.227C190.573 158.356 189.763 157.579 188.846 156.91 186.187 154.968 182.631 154.185 179.093 154.761L175.79 155.3C175.237 155.396 174.73 155.018 174.641 154.474 174.552 153.929 174.922 153.415 175.467 153.326L178.771 152.788C182.836 152.125 186.937 153.039 190.026 155.295 191.401 156.299 192.569 157.512 193.497 158.903 193.797 159.354 193.684 159.962 193.243 160.275L183.252 167.345C183.077 167.469 182.875 167.529 182.675 167.529M46.628 218.485L55.615 218.494C55.616 218.494 55.618 218.494 55.62 218.494 57.912 218.494 59.779 216.631 59.781 214.338L59.781 214.337 59.836 183.359C59.837 182.254 59.404 181.21 58.616 180.421 57.828 179.631 56.785 179.195 55.679 179.194L46.628 179.185 46.628 218.485zM55.62 220.494C55.617 220.494 55.615 220.494 55.613 220.494L44.628 220.483 44.628 177.183 55.681 177.194C57.321 177.196 58.867 177.84 60.032 179.008 61.197 180.176 61.838 181.722 61.836 183.362L61.781 214.341C61.777 217.735 59.013 220.494 55.62 220.494z"/>
    <path fill="#42494E" d="M160.561,178.612 C160.01,178.612 159.563,178.166 159.561,177.615 L159.514,162.895 L160.036,162.609 C160.162,162.54 172.662,155.547 177.235,141.128 C178.583,136.057 179.551,134.52 180.673,132.74 C182.963,129.105 187.032,127.707 188.787,127.255 L188.787,113.134 L185.724,113.134 C185.636,113.132 185.471,113.129 185.228,113.109 C185.089,113.097 184.917,113.099 184.714,113.098 C183.008,113.096 179.012,113.091 176.59,107.684 C173.796,101.318 169.458,95.642 164.041,91.262 L163.561,90.874 L165.032,84.12 C165.065,84.003 166.021,80.738 164.439,79.709 C162.832,78.664 159.977,79.687 157.459,80.589 C157.111,80.714 156.768,80.836 156.434,80.952 C155.493,81.279 153.271,82.137 150.008,83.434 L149.683,83.564 L149.348,83.462 C147.306,82.841 145.199,82.366 143.083,82.052 C142.583,81.978 142.077,81.913 141.569,81.856 C141.393,81.838 122.615,79.985 109.173,82.396 L108.987,82.432 C108.483,82.529 107.979,82.626 107.482,82.744 C88.403,87.248 74.588,104.032 73.887,123.56 L73.888,123.643 L74.021,127.818 C74.7,139.293 79.876,149.916 88.594,157.703 L88.928,158.001 L88.928,164.313 C88.928,164.865 88.481,165.313 87.928,165.313 C87.376,165.313 86.928,164.865 86.928,164.313 L86.928,158.894 C78.014,150.78 72.726,139.794 72.024,127.908 L71.888,123.524 C72.623,103.063 87.07,85.508 107.022,80.798 C107.545,80.674 108.077,80.571 108.607,80.468 L108.806,80.429 C122.542,77.967 141.59,79.847 141.782,79.867 C142.325,79.928 142.852,79.996 143.377,80.074 C145.473,80.385 147.562,80.847 149.593,81.448 C152.748,80.195 154.828,79.392 155.779,79.062 C156.108,78.949 156.444,78.828 156.785,78.706 C159.742,77.648 163.089,76.449 165.529,78.032 C168.408,79.905 167.024,84.441 166.963,84.633 L165.777,90.099 C171.218,94.623 175.583,100.411 178.419,106.873 C180.309,111.093 183.069,111.096 184.717,111.098 C184.981,111.099 185.208,111.101 185.39,111.115 C185.567,111.13 185.687,111.133 185.74,111.134 L190.787,111.134 L190.787,128.903 L189.952,129.044 C189.9,129.052 184.792,129.953 182.401,133.749 C181.288,135.516 180.437,136.866 179.155,141.687 C174.809,155.391 164.05,162.537 161.518,164.061 L161.561,177.608 C161.563,178.161 161.117,178.61 160.564,178.612 C160.563,178.612 160.562,178.612 160.561,178.612"/>
    <path fill="#42494E" d="M133.628 94.314L113.628 94.314C113.076 94.314 112.628 93.866 112.628 93.314 112.628 92.761 113.076 92.314 113.628 92.314L133.628 92.314C134.181 92.314 134.628 92.761 134.628 93.314 134.628 93.866 134.181 94.314 133.628 94.314M61.208 129.826C60.54 129.826 59.863 129.775 59.18 129.67 53.273 128.762 49.206 123.217 50.113 117.309 50.856 112.473 55.385 109.145 60.23 109.888 62.156 110.184 63.852 111.213 65.005 112.784 66.158 114.356 66.629 116.283 66.334 118.209 66.089 119.803 65.238 121.207 63.938 122.161 62.637 123.115 61.045 123.505 59.449 123.26L59.753 121.283C60.812 121.447 61.884 121.187 62.754 120.548 63.625 119.91 64.193 118.972 64.357 117.906 64.572 116.507 64.229 115.108 63.392 113.968 62.555 112.826 61.324 112.079 59.925 111.865 56.185 111.289 52.665 113.868 52.089 117.613 51.349 122.431 54.666 126.953 59.485 127.694 65.639 128.638 71.423 124.399 72.37 118.241L74.346 118.545C73.336 125.112 67.657 129.826 61.208 129.826M163.944 97.662L162.025 97.098C162.036 97.062 163.084 93.479 163.687 90.298L165.652 90.67C165.031 93.95 163.989 97.512 163.944 97.662M169.22 112.44C168.807 112.44 168.421 112.182 168.277 111.771 167.297 108.977 166.314 106.838 165.508 105.747 165.18 105.303 165.275 104.677 165.719 104.348 166.164 104.021 166.79 104.115 167.118 104.559 168.297 106.157 169.425 109.003 170.164 111.109 170.346 111.63 170.073 112.2 169.551 112.384 169.442 112.422 169.33 112.44 169.22 112.44M117.282 142.178C113.898 142.178 111.15 139.395 111.15 135.975L113.15 135.975C113.15 138.292 115 140.178 117.276 140.178L130.279 140.104C132.97 140.104 135.155 137.92 135.155 135.235L135.155 131.695C135.155 129.01 132.97 126.825 130.285 126.825L117.458 126.825C113.669 126.825 110.588 123.743 110.588 119.956L110.588 116.416C110.588 112.628 113.669 109.546 117.458 109.546L131.246 109.546C134.078 109.546 136.381 111.85 136.381 114.682L134.381 114.682C134.381 112.953 132.975 111.546 131.246 111.546L117.458 111.546C114.773 111.546 112.588 113.731 112.588 116.416L112.588 119.956C112.588 122.641 114.773 124.825 117.458 124.825L130.285 124.825C134.073 124.825 137.155 127.906 137.155 131.695L137.155 135.235C137.155 139.023 134.073 142.104 130.285 142.104L117.282 142.178"/>
    <polygon fill="#42494E" points="122.872 150.348 124.872 150.348 124.872 101.806 122.872 101.806"/>
    <path fill="#DBDBD5" d="M109.142 175.76L132.585 175.76C136.173 174.25 138.855 171.189 139.788 167.387L134.996 167.387C132.901 168.879 130.306 169.76 127.458 169.76L115.142 169.76C111.829 169.76 109.142 172.446 109.142 175.76M190.996 167.219L157.867 187.509 81.283 202.313 63.803 202.313 63.79 209.338 81.283 209.338 157.867 194.533 198.608 169.581C196.189 168.01 193.595 167.218 190.996 167.219"/>
    <path fill="#FACD60" d="M119.628,56.271 C119.628,46.33 127.687,38.271 137.628,38.271 C147.569,38.271 155.628,46.33 155.628,56.271 C155.628,66.212 147.569,74.271 137.628,74.271 C127.687,74.271 119.628,66.212 119.628,56.271"/>
    <path fill="#42494E" d="M137.626,71.27 C133.626,71.27 129.866,69.715 127.033,66.889 C124.197,64.06 122.632,60.295 122.627,56.288 C122.624,52.812 123.836,49.422 126.042,46.742 C126.393,46.316 127.022,46.254 127.45,46.606 C127.875,46.957 127.937,47.587 127.586,48.013 C125.674,50.335 124.624,53.273 124.627,56.286 C124.631,59.758 125.988,63.021 128.446,65.473 C130.9,67.922 134.161,69.27 137.626,69.27 C137.632,69.27 137.637,69.27 137.643,69.27 C144.811,69.262 150.635,63.424 150.627,56.255 C150.62,49.092 144.789,43.27 137.627,43.27 C137.622,43.27 137.618,43.27 137.612,43.27 C136.304,43.272 135.016,43.467 133.784,43.848 L132.957,44.199 C132.45,44.413 131.862,44.173 131.648,43.663 C131.435,43.153 131.675,42.567 132.185,42.354 L133.102,41.97 C134.616,41.497 136.102,41.272 137.61,41.27 C137.615,41.27 137.622,41.27 137.626,41.27 C145.891,41.27 152.618,47.987 152.627,56.253 C152.637,64.524 145.916,71.261 137.645,71.27 C137.639,71.27 137.632,71.27 137.626,71.27"/>
    <path fill="#42494E" d="M140.616,63.244 L135.057,63.244 C133.298,63.244 131.867,61.805 131.867,60.037 C131.867,59.485 132.314,59.037 132.867,59.037 C133.419,59.037 133.867,59.485 133.867,60.037 C133.867,60.703 134.401,61.244 135.057,61.244 L140.616,61.244 C141.447,61.244 142.124,60.561 142.124,59.72 L142.124,58.77 C142.124,57.939 141.447,57.262 140.616,57.262 L135.134,57.262 C133.2,57.262 131.626,55.689 131.626,53.754 L131.626,52.803 C131.626,50.868 133.2,49.295 135.134,49.295 L141.026,49.295 C142.552,49.295 143.793,50.536 143.793,52.062 C143.793,52.614 143.346,53.062 142.793,53.062 C142.241,53.062 141.793,52.614 141.793,52.062 C141.793,51.639 141.449,51.295 141.026,51.295 L135.134,51.295 C134.303,51.295 133.626,51.971 133.626,52.803 L133.626,53.754 C133.626,54.586 134.303,55.262 135.134,55.262 L140.616,55.262 C142.55,55.262 144.124,56.836 144.124,58.77 L144.124,59.72 C144.124,61.663 142.55,63.244 140.616,63.244"/>
    <path fill="#42494E" d="M138 66C137.447 66 137 65.552 137 65L137 47C137 46.448 137.447 46 138 46 138.553 46 139 46.448 139 47L139 65C139 65.552 138.553 66 138 66M129.618 46.28C129.348 46.28 129.087 46.17 128.908 45.99 128.717 45.8 128.618 45.54 128.618 45.28 128.618 45.02 128.717 44.76 128.908 44.57 129.138 44.34 129.478 44.24 129.808 44.3 129.877 44.31 129.938 44.33 129.998 44.36 130.058 44.38 130.118 44.41 130.167 44.45 130.217 44.48 130.278 44.53 130.318 44.57 130.507 44.76 130.618 45.02 130.618 45.28 130.618 45.54 130.507 45.8 130.318 45.99 130.138 46.17 129.877 46.28 129.618 46.28"/>
    <path fill="#FACD60" d="M90.628,75.271 C90.628,68.091 96.449,62.271 103.628,62.271 C110.808,62.271 116.628,68.091 116.628,75.271 C116.628,82.451 110.808,88.271 103.628,88.271 C96.449,88.271 90.628,82.451 90.628,75.271"/>
    <path fill="#42494E" d="M105.786,80.585 L101.771,80.585 C100.347,80.585 99.189,79.421 99.189,77.991 C99.189,77.438 99.636,76.99 100.189,76.99 C100.742,76.99 101.189,77.438 101.189,77.991 C101.189,78.318 101.45,78.585 101.771,78.585 L105.786,78.585 C106.233,78.585 106.597,78.216 106.597,77.762 L106.597,77.076 C106.597,76.629 106.233,76.264 105.786,76.264 L101.827,76.264 C100.277,76.264 99.016,75.003 99.016,73.453 L99.016,72.766 C99.016,71.216 100.277,69.955 101.827,69.955 L106.083,69.955 C107.337,69.955 108.359,70.976 108.359,72.231 C108.359,72.783 107.912,73.231 107.359,73.231 C106.806,73.231 106.359,72.783 106.359,72.231 C106.359,72.079 106.235,71.955 106.083,71.955 L101.827,71.955 C101.379,71.955 101.016,72.319 101.016,72.766 L101.016,73.453 C101.016,73.901 101.379,74.264 101.827,74.264 L105.786,74.264 C107.335,74.264 108.597,75.526 108.597,77.076 L108.597,77.762 C108.597,79.319 107.335,80.585 105.786,80.585"/>
    <path fill="#42494E" d="M104,83 C103.447,83 103,82.552 103,82 L103,68 C103,67.448 103.447,67 104,67 C104.553,67 105,67.448 105,68 L105,82 C105,82.552 104.553,83 104,83"/>
    <polygon fill="#434A4F" points="170.792 33.506 172.792 33.506 172.792 29.506 170.792 29.506"/>
    <polygon fill="#434A4F" points="170.792 43.506 172.792 43.506 172.792 39.506 170.792 39.506"/>
    <polygon fill="#434A4F" points="164.792 37.506 168.792 37.506 168.792 35.506 164.792 35.506"/>
    <polygon fill="#434A4F" points="174.792 37.506 178.792 37.506 178.792 35.506 174.792 35.506"/>
    <polygon fill="#434A4F" points="190.803 73.529 192.803 73.529 192.803 69.529 190.803 69.529"/>
    <polygon fill="#434A4F" points="190.803 83.53 192.803 83.53 192.803 79.53 190.803 79.53"/>
    <polygon fill="#434A4F" points="184.803 77.529 188.803 77.529 188.803 75.529 184.803 75.529"/>
    <polygon fill="#434A4F" points="194.803 77.529 198.803 77.529 198.803 75.529 194.803 75.529"/>
    <path fill="#FACD60" d="M158.38,65.1 C158.38,66.221 159.288,67.129 160.409,67.129 C161.53,67.129 162.438,66.221 162.438,65.1 C162.438,63.979 161.53,63.071 160.409,63.071 C159.288,63.071 158.38,63.979 158.38,65.1"/>
    <path fill="#434A4F" d="M107.538 40.25C107.268 40.25 107.007 40.14 106.828 39.96 106.638 39.77 106.538 39.51 106.538 39.25 106.538 38.98 106.638 38.73 106.828 38.54 106.868 38.5 106.917 38.46 106.978 38.42 107.028 38.38 107.087 38.35 107.148 38.33 107.208 38.3 107.278 38.28 107.337 38.27 107.467 38.24 107.598 38.24 107.728 38.27 107.788 38.28 107.858 38.3 107.917 38.33 107.978 38.35 108.038 38.38 108.087 38.42 108.138 38.46 108.198 38.5 108.238 38.54 108.427 38.73 108.528 38.99 108.528 39.25 108.528 39.51 108.427 39.77 108.238 39.96 108.198 40 108.138 40.04 108.087 40.08 108.038 40.12 107.978 40.15 107.917 40.17 107.858 40.2 107.788 40.22 107.728 40.23 107.667 40.24 107.598 40.25 107.538 40.25M107.533 56.721C106.98 56.721 106.533 56.273 106.533 55.721L106.533 47.12C106.533 46.568 106.98 46.12 107.533 46.12 108.085 46.12 108.533 46.568 108.533 47.12L108.533 55.721C108.533 56.273 108.085 56.721 107.533 56.721M103.528 37.18C103.268 37.18 103.007 37.07 102.828 36.88 102.638 36.7 102.528 36.44 102.528 36.18 102.528 35.92 102.638 35.66 102.828 35.47 103.047 35.24 103.398 35.13 103.728 35.2 103.788 35.21 103.848 35.23 103.908 35.25 103.967 35.28 104.028 35.31 104.087 35.35 104.138 35.38 104.188 35.42 104.238 35.47 104.417 35.66 104.528 35.92 104.528 36.18 104.528 36.44 104.417 36.7 104.238 36.88 104.188 36.93 104.138 36.97 104.087 37.01 104.028 37.04 103.967 37.08 103.908 37.1 103.848 37.13 103.788 37.14 103.728 37.16 103.658 37.17 103.598 37.18 103.528 37.18M103.53 53.648C102.977 53.648 102.53 53.2 102.53 52.648L102.53 44.047C102.53 43.495 102.977 43.047 103.53 43.047 104.083 43.047 104.53 43.495 104.53 44.047L104.53 52.648C104.53 53.2 104.083 53.648 103.53 53.648M99.528 44.18C99.268 44.18 99.007 44.07 98.818 43.89 98.728 43.8 98.658 43.69 98.608 43.56 98.558 43.44 98.528 43.31 98.528 43.18 98.528 43.05 98.558 42.92 98.608 42.8 98.658 42.68 98.728 42.57 98.818 42.47 98.918 42.38 99.018 42.31 99.148 42.26 99.328 42.18 99.528 42.16 99.717 42.2 99.788 42.21 99.848 42.23 99.908 42.26 99.967 42.28 100.028 42.31 100.078 42.35 100.138 42.39 100.188 42.43 100.238 42.47 100.417 42.66 100.528 42.92 100.528 43.18 100.528 43.44 100.417 43.7 100.238 43.89 100.188 43.93 100.138 43.98 100.078 44.01 100.028 44.05 99.967 44.08 99.908 44.1 99.848 44.13 99.788 44.15 99.717 44.16 99.658 44.18 99.587 44.18 99.528 44.18M99.528 60.652C98.975 60.652 98.528 60.204 98.528 59.652L98.528 51.051C98.528 50.499 98.975 50.051 99.528 50.051 100.081 50.051 100.528 50.499 100.528 51.051L100.528 59.652C100.528 60.204 100.081 60.652 99.528 60.652"/>
    <path fill="#FACD60" d="M75.128 79.77C75.128 80.875 74.233 81.77 73.128 81.77 72.024 81.77 71.128 80.875 71.128 79.77 71.128 78.666 72.024 77.77 73.128 77.77 74.233 77.77 75.128 78.666 75.128 79.77M184.2 89.55C184.2 90.517 183.417 91.3 182.45 91.3 181.484 91.3 180.7 90.517 180.7 89.55 180.7 88.584 181.484 87.8 182.45 87.8 183.417 87.8 184.2 88.584 184.2 89.55"/>
  </g>
</svg>
