<svg xmlns="http://www.w3.org/2000/svg" width="250" height="250" viewBox="0 0 250 250">
  <g fill="none" fill-rule="evenodd">
    <path fill="#E9886C" d="M130.5,170.999 C130.5,170.999 127.294,135.361 126.721,133.068 C127.196,133.069 127.581,132.684 127.581,132.209 L127.581,130.06 L125.396,127.48 L123.283,130.06 L123.283,132.209 C123.283,132.684 123.668,133.069 124.143,133.068 C123.57,135.361 120.5,170.999 120.5,170.999 L125.501,176.999 L130.5,170.999"/>
    <polyline fill="#434A4F" points="107.189 220.973 107.124 182.83 105.122 182.83 105.122 143.997 107.122 143.997 107.122 180.83 109.12 180.83 109.189 220.969 107.189 220.973"/>
    <polyline fill="#434A4F" points="150.915 188.997 142.5 188.997 142.5 186.997 150.086 186.997 151.5 185.582 151.5 132.635 135.444 125.147 132.934 121.035 131.878 121.035 131.878 119.035 134.056 119.035 136.836 123.589 153.5 131.36 153.5 186.41 150.915 188.997"/>
    <path fill="#DDDED9" d="M119.439,120.454 L119.439,122.19 L125.451,125.568 L131.411,122.29 L131.465,119.112 L131.465,116.434 C131.693,116.209 131.926,115.968 132.135,115.725 C132.064,115.787 131.995,115.85 131.937,115.913 C131.101,116.811 129.834,117.754 128.976,118.487 C128.297,119.066 127.439,119.387 126.547,119.397 L123.967,119.397 C123.075,119.387 122.217,119.066 121.538,118.487 C120.719,117.787 119.528,116.897 118.694,116.036 C118.669,116.01 118.64,115.984 118.613,115.958 C118.863,116.224 119.149,116.494 119.454,116.762 C119.447,116.766 119.439,116.769 119.439,116.777 L119.439,120.454"/>
    <path fill="#434A4F" d="M119.439,123.141 C118.887,123.141 118.439,122.693 118.439,122.141 L118.439,116.777 C118.439,116.225 118.887,115.777 119.439,115.777 C119.992,115.777 120.439,116.225 120.439,116.777 L120.439,122.141 C120.439,122.693 119.992,123.141 119.439,123.141"/>
    <path fill="#434A4F" d="M131.425 123.042C130.873 123.042 130.425 122.594 130.425 122.042L130.425 116.007 130.723 115.713C130.947 115.492 131.631 114.818 131.78 114.422L134.352 109.168 137.011 107.837 137.563 105.098C137.551 105.026 137.515 104.975 137.483 104.942 137.444 104.902 137.376 104.854 137.274 104.854L135.535 104.854 135.738 103.682C135.95 102.468 136.057 101.382 136.057 100.454L136.057 100.008C136.067 98.449 135.746 96.973 135.13 95.645 135.068 95.507 135.009 95.383 134.948 95.26 134.248 93.848 133.22 92.582 131.976 91.601 130.096 90.119 127.833 89.326 125.433 89.31 122.683 89.304 119.991 90.396 117.951 92.422 115.859 94.5 114.66 97.358 114.66 100.264L114.66 100.454C114.66 101.405 114.752 102.499 114.934 103.705L115.107 104.854 113.463 104.854C113.31 104.854 113.18 104.957 113.139 105.097L113.925 107.85 116.266 109.201 118.707 114.362C118.992 115.117 120.413 116.272 121.353 117.037 121.652 117.28 121.937 117.512 122.188 117.727 122.686 118.151 123.321 118.39 123.979 118.397L126.553 118.397C127.105 118.397 127.553 118.845 127.553 119.397 127.553 119.949 127.105 120.397 126.553 120.397L123.967 120.397C122.831 120.384 121.742 119.976 120.889 119.247 120.649 119.042 120.377 118.821 120.091 118.589 118.787 117.528 117.308 116.326 116.866 115.139L114.726 110.621 112.224 109.177 111.125 105.19C111.125 104.126 111.84 103.227 112.815 102.945 112.712 102.048 112.66 101.213 112.66 100.454L112.66 100.264C112.66 96.829 114.075 93.454 116.542 91.003 118.962 88.599 122.098 87.33 125.446 87.31 128.295 87.329 130.981 88.27 133.214 90.031 134.689 91.194 135.908 92.695 136.741 94.373 136.813 94.519 136.883 94.666 136.95 94.815 137.684 96.397 138.069 98.169 138.057 99.925L138.057 100.454C138.057 101.203 137.996 102.033 137.877 102.933 138.269 103.039 138.626 103.249 138.917 103.548 139.353 103.996 139.583 104.586 139.565 105.211L139.546 105.38 138.778 109.189 135.85 110.654 133.614 115.214C133.421 115.738 132.948 116.3 132.425 116.838L132.425 122.042C132.425 122.594 131.977 123.042 131.425 123.042M121.563 131.779C121.325 131.779 121.086 131.694 120.895 131.522 120.484 131.153 120.451 130.521 120.821 130.11L125.432 124.986 130.043 130.11C130.413 130.521 130.379 131.153 129.969 131.522 129.558 131.893 128.925 131.857 128.557 131.448L125.432 127.976 122.307 131.448C122.11 131.667 121.837 131.779 121.563 131.779M113.498 181.833C113.498 181.272 113.947 180.833 114.498 180.833 115.058 180.833 115.498 181.272 115.498 181.833 115.498 182.382 115.058 182.833 114.498 182.833 113.947 182.833 113.498 182.382 113.498 181.833zM117.498 181.833C117.498 181.272 117.947 180.833 118.498 180.833 119.058 180.833 119.498 181.272 119.498 181.833 119.498 182.382 119.058 182.833 118.498 182.833 117.947 182.833 117.498 182.382 117.498 181.833zM121.498 181.833C121.498 181.272 121.947 180.833 122.498 180.833 123.058 180.833 123.498 181.272 123.498 181.833 123.498 182.382 123.058 182.833 122.498 182.833 121.947 182.833 121.498 182.382 121.498 181.833zM125.498 181.833C125.498 181.272 125.947 180.833 126.498 180.833 127.047 180.833 127.498 181.272 127.498 181.833 127.498 182.382 127.047 182.833 126.498 182.833 125.947 182.833 125.498 182.382 125.498 181.833zM129.498 181.833C129.498 181.272 129.947 180.833 130.498 180.833 131.047 180.833 131.498 181.272 131.498 181.833 131.498 182.382 131.047 182.833 130.498 182.833 129.947 182.833 129.498 182.382 129.498 181.833zM133.498 181.833C133.498 181.272 133.947 180.833 134.498 180.833 135.047 180.833 135.498 181.272 135.498 181.833 135.498 182.382 135.047 182.833 134.498 182.833 133.947 182.833 133.498 182.382 133.498 181.833zM137.498 181.833C137.498 181.272 137.947 180.833 138.498 180.833 139.058 180.833 139.498 181.272 139.498 181.833 139.498 182.382 139.058 182.833 138.498 182.833 137.947 182.833 137.498 182.382 137.498 181.833z"/>
    <polygon fill="#434A4F" points="123.499 220.971 125.499 220.971 125.499 191.997 123.499 191.997"/>
    <polyline fill="#434A4F" points="143.5 220.971 141.5 220.971 141.5 180.83 143.5 180.83 143.5 143.997 145.5 143.997 145.5 182.83 143.5 182.83 143.5 220.971"/>
    <polyline fill="#434A4F" points="146.915 200.997 142.5 200.997 142.5 198.997 146.086 198.997 147.5 197.583 147.5 187.997 149.5 187.997 149.5 198.411 146.915 200.997"/>
    <polyline fill="#434A4F" points="112.444 190.997 108.122 190.997 108.122 188.997 111.299 188.997 113.184 185.788 113.184 183.934 115.184 183.934 115.184 186.332 112.444 190.997"/>
    <polyline fill="#434A4F" points="142.25 190.997 137.887 190.997 135.5 186.299 135.5 183.872 137.5 183.872 137.5 185.821 139.114 188.997 142.25 188.997 142.25 190.997"/>
    <polyline fill="#434A4F" points="107.5 188.997 99.086 188.997 96.5 186.41 96.5 131.36 113.164 123.589 115.944 119.035 118.505 119.035 118.505 121.035 117.066 121.035 114.556 125.147 98.5 132.635 98.5 185.582 99.914 186.997 107.5 186.997 107.5 188.997"/>
    <polyline fill="#434A4F" points="107.5 200.997 103.086 200.997 100.5 198.411 100.5 187.997 102.5 187.997 102.5 197.583 103.914 198.997 107.5 198.997 107.5 200.997"/>
    <path fill="#E9886C" d="M71.465,170.999 C71.465,170.999 68.259,135.361 67.686,133.068 C68.16,133.069 68.545,132.684 68.545,132.209 L68.545,130.06 L66.361,127.48 L64.248,130.06 L64.248,132.209 C64.248,132.684 64.633,133.069 65.107,133.068 C64.534,135.361 61.465,170.999 61.465,170.999 L66.466,176.999 L71.465,170.999"/>
    <polyline fill="#434A4F" points="48.153 220.972 48.088 182.83 46.086 182.83 46.086 143.997 48.086 143.997 48.086 180.83 50.085 180.83 50.153 220.969 48.153 220.972"/>
    <polyline fill="#434A4F" points="91.879 188.997 83.465 188.997 83.465 186.997 91.051 186.997 92.465 185.582 92.465 132.635 76.409 125.147 73.898 121.035 72.843 121.035 72.843 119.035 75.021 119.035 77.801 123.589 94.465 131.36 94.465 186.41 91.879 188.997"/>
    <path fill="#DDDED9" d="M60.404,120.454 L60.404,122.19 L66.416,125.568 L72.376,122.29 L72.429,119.112 L72.429,116.434 C72.657,116.209 72.891,115.968 73.1,115.725 C73.028,115.787 72.96,115.85 72.901,115.913 C72.066,116.811 70.799,117.754 69.941,118.487 C69.262,119.066 68.404,119.387 67.512,119.397 L64.932,119.397 C64.04,119.387 63.182,119.066 62.503,118.487 C61.684,117.787 60.492,116.897 59.659,116.036 C59.634,116.01 59.605,115.984 59.577,115.958 C59.828,116.224 60.114,116.494 60.418,116.762 C60.412,116.766 60.404,116.769 60.404,116.777 L60.404,120.454"/>
    <path fill="#434A4F" d="M60.404,123.141 C59.852,123.141 59.404,122.693 59.404,122.141 L59.404,116.777 C59.404,116.225 59.852,115.777 60.404,115.777 C60.956,115.777 61.404,116.225 61.404,116.777 L61.404,122.141 C61.404,122.693 60.956,123.141 60.404,123.141"/>
    <path fill="#434A4F" d="M72.39 123.042C71.837 123.042 71.39 122.594 71.39 122.042L71.39 116.007 71.688 115.713C71.912 115.492 72.596 114.817 72.745 114.421L75.316 109.168 77.976 107.837 78.527 105.098C78.516 105.026 78.48 104.975 78.448 104.942 78.409 104.902 78.341 104.854 78.239 104.854L76.498 104.854 76.703 103.682C76.914 102.471 77.021 101.385 77.021 100.454L77.022 99.907C77.031 98.447 76.71 96.972 76.094 95.645 76.033 95.508 75.974 95.383 75.913 95.26 75.212 93.847 74.184 92.581 72.94 91.601 71.06 90.119 68.797 89.326 66.397 89.31 63.608 89.304 60.956 90.396 58.915 92.422 56.824 94.5 55.624 97.358 55.624 100.264L55.624 100.454C55.624 101.406 55.716 102.5 55.898 103.704L56.072 104.854 54.427 104.854C54.274 104.854 54.144 104.957 54.103 105.097L54.89 107.85 57.23 109.201 59.671 114.362C59.956 115.117 61.376 116.271 62.316 117.036 62.616 117.279 62.901 117.512 63.152 117.727 63.65 118.151 64.286 118.39 64.944 118.397L67.518 118.397C68.07 118.397 68.518 118.845 68.518 119.397 68.518 119.949 68.07 120.397 67.518 120.397L64.932 120.397C63.796 120.384 62.706 119.976 61.853 119.247 61.613 119.042 61.34 118.82 61.054 118.587 59.75 117.527 58.272 116.325 57.83 115.139L55.69 110.621 53.189 109.177 52.09 105.19C52.09 104.126 52.805 103.226 53.779 102.945 53.676 102.048 53.624 101.214 53.624 100.454L53.624 100.264C53.624 96.829 55.039 93.454 57.506 91.003 59.927 88.599 63.066 87.33 66.411 87.31 69.26 87.329 71.946 88.27 74.179 90.031 75.653 91.193 76.873 92.695 77.706 94.373 77.778 94.519 77.847 94.666 77.914 94.815 78.648 96.396 79.033 98.167 79.022 99.924L79.021 100.454C79.021 101.204 78.961 102.035 78.841 102.933 79.233 103.039 79.591 103.249 79.883 103.548 80.318 103.997 80.548 104.587 80.53 105.211L80.511 105.38 79.743 109.189 76.814 110.654 74.579 115.214C74.385 115.738 73.913 116.3 73.39 116.838L73.39 122.042C73.39 122.594 72.942 123.042 72.39 123.042M62.528 131.779C62.29 131.779 62.051 131.694 61.86 131.522 61.449 131.153 61.416 130.521 61.786 130.11L66.397 124.986 71.008 130.11C71.377 130.521 71.344 131.153 70.934 131.522 70.523 131.893 69.891 131.857 69.521 131.448L66.397 127.976 63.272 131.448C63.075 131.667 62.802 131.779 62.528 131.779M54.467 181.833C54.467 181.272 54.907 180.833 55.467 180.833 56.018 180.833 56.467 181.272 56.467 181.833 56.467 182.382 56.018 182.833 55.467 182.833 54.907 182.833 54.467 182.382 54.467 181.833zM58.467 181.833C58.467 181.272 58.907 180.833 59.467 180.833 60.018 180.833 60.467 181.272 60.467 181.833 60.467 182.382 60.018 182.833 59.467 182.833 58.907 182.833 58.467 182.382 58.467 181.833zM62.467 181.833C62.467 181.272 62.907 180.833 63.467 180.833 64.018 180.833 64.467 181.272 64.467 181.833 64.467 182.382 64.018 182.833 63.467 182.833 62.907 182.833 62.467 182.382 62.467 181.833zM66.467 181.833C66.467 181.272 66.907 180.833 67.467 180.833 68.018 180.833 68.467 181.272 68.467 181.833 68.467 182.382 68.018 182.833 67.467 182.833 66.907 182.833 66.467 182.382 66.467 181.833zM70.467 181.833C70.467 181.272 70.918 180.833 71.467 180.833 72.018 180.833 72.467 181.272 72.467 181.833 72.467 182.382 72.018 182.833 71.467 182.833 70.918 182.833 70.467 182.382 70.467 181.833zM74.467 181.833C74.467 181.272 74.917 180.833 75.467 180.833 76.018 180.833 76.467 181.272 76.467 181.833 76.467 182.382 76.018 182.833 75.467 182.833 74.917 182.833 74.467 182.382 74.467 181.833zM78.467 181.833C78.467 181.272 78.917 180.833 79.467 180.833 80.018 180.833 80.467 181.272 80.467 181.833 80.467 182.382 80.018 182.833 79.467 182.833 78.917 182.833 78.467 182.382 78.467 181.833z"/>
    <polygon fill="#434A4F" points="64.464 220.971 66.464 220.971 66.464 191.997 64.464 191.997"/>
    <polyline fill="#434A4F" points="84.465 220.971 82.465 220.971 82.465 180.83 84.465 180.83 84.465 143.997 86.465 143.997 86.465 182.83 84.465 182.83 84.465 220.971"/>
    <polyline fill="#434A4F" points="87.879 200.997 83.465 200.997 83.465 198.997 87.051 198.997 88.465 197.583 88.465 187.997 90.465 187.997 90.465 198.411 87.879 200.997"/>
    <polyline fill="#434A4F" points="53.409 190.997 49.086 190.997 49.086 188.997 52.264 188.997 54.149 185.788 54.149 183.934 56.149 183.934 56.149 186.332 53.409 190.997"/>
    <polyline fill="#434A4F" points="83.215 190.997 78.851 190.997 76.465 186.299 76.465 183.872 78.465 183.872 78.465 185.821 80.079 188.997 83.215 188.997 83.215 190.997"/>
    <polyline fill="#434A4F" points="48.464 188.997 40.05 188.997 37.464 186.41 37.464 131.36 54.128 123.589 56.909 119.035 59.47 119.035 59.47 121.035 58.031 121.035 55.52 125.147 39.464 132.635 39.464 185.582 40.878 186.997 48.464 186.997 48.464 188.997"/>
    <polyline fill="#434A4F" points="48.464 200.997 44.05 200.997 41.464 198.411 41.464 187.997 43.464 187.997 43.464 197.583 44.878 198.997 48.464 198.997 48.464 200.997"/>
    <path fill="#E9886C" d="M189.536,170.999 C189.536,170.999 186.329,135.361 185.757,133.068 C186.231,133.069 186.616,132.684 186.616,132.209 L186.616,130.06 L184.432,127.48 L182.318,130.06 L182.318,132.209 C182.318,132.684 182.703,133.069 183.178,133.068 C182.605,135.361 179.536,170.999 179.536,170.999 L184.536,176.999 L189.536,170.999"/>
    <polyline fill="#434A4F" points="166.224 220.972 166.159 182.83 164.157 182.83 164.157 143.997 166.157 143.997 166.157 180.83 168.156 180.83 168.224 220.969 166.224 220.972"/>
    <polyline fill="#434A4F" points="209.95 188.997 201.536 188.997 201.536 186.997 209.122 186.997 210.536 185.582 210.536 132.635 194.479 125.147 191.969 121.035 190.914 121.035 190.914 119.035 193.091 119.035 195.872 123.589 212.536 131.36 212.536 186.41 209.95 188.997"/>
    <path fill="#DDDED9" d="M178.475,120.454 L178.475,122.19 L184.487,125.568 L190.447,122.29 L190.5,119.112 L190.5,116.434 C190.728,116.209 190.961,115.968 191.171,115.725 C191.099,115.787 191.031,115.85 190.972,115.913 C190.137,116.811 188.869,117.754 188.011,118.487 C187.333,119.066 186.475,119.387 185.582,119.397 L183.003,119.397 C182.111,119.387 181.252,119.066 180.574,118.487 C179.755,117.787 178.563,116.897 177.73,116.036 C177.705,116.01 177.675,115.984 177.648,115.958 C177.899,116.224 178.185,116.494 178.489,116.762 C178.483,116.766 178.475,116.769 178.475,116.777 L178.475,120.454"/>
    <path fill="#434A4F" d="M178.475,123.141 C177.922,123.141 177.475,122.693 177.475,122.141 L177.475,116.777 C177.475,116.225 177.922,115.777 178.475,115.777 C179.027,115.777 179.475,116.225 179.475,116.777 L179.475,122.141 C179.475,122.693 179.027,123.141 178.475,123.141"/>
    <path fill="#434A4F" d="M190.46 123.042C189.908 123.042 189.46 122.594 189.46 122.042L189.46 116.007 189.758 115.713C189.983 115.492 190.667 114.817 190.816 114.421L193.387 109.168 196.046 107.837 196.598 105.098C196.587 105.026 196.551 104.975 196.519 104.942 196.48 104.902 196.412 104.854 196.31 104.854L194.569 104.854 194.773 103.682C194.985 102.471 195.092 101.385 195.092 100.454L195.093 99.907C195.102 98.447 194.781 96.972 194.165 95.645 194.104 95.508 194.045 95.383 193.984 95.26 193.283 93.847 192.255 92.581 191.011 91.601 189.131 90.119 186.868 89.326 184.468 89.31 181.7 89.304 179.026 90.396 176.986 92.422 174.895 94.5 173.695 97.358 173.695 100.264L173.695 100.454C173.695 101.406 173.787 102.5 173.969 103.704L174.143 104.854 172.498 104.854C172.345 104.854 172.215 104.957 172.174 105.097L172.961 107.85 175.301 109.201 177.742 114.362C178.027 115.117 179.447 116.271 180.387 117.036 180.687 117.279 180.972 117.512 181.223 117.727 181.721 118.151 182.357 118.39 183.015 118.397L185.588 118.397C186.141 118.397 186.588 118.845 186.588 119.397 186.588 119.949 186.141 120.397 185.588 120.397L183.003 120.397C181.867 120.384 180.777 119.976 179.924 119.247 179.684 119.042 179.411 118.82 179.125 118.587 177.821 117.527 176.343 116.325 175.901 115.139L173.761 110.621 171.26 109.177 170.161 105.19C170.161 104.126 170.875 103.226 171.85 102.945 171.747 102.048 171.695 101.214 171.695 100.454L171.695 100.264C171.695 96.829 173.11 93.454 175.577 91.003 177.977 88.619 181.107 87.309 184.397 87.309 184.425 87.309 184.453 87.31 184.481 87.31 187.331 87.329 190.017 88.27 192.25 90.031 193.724 91.193 194.944 92.695 195.776 94.373 195.849 94.519 195.918 94.666 195.985 94.815 196.719 96.396 197.104 98.167 197.093 99.924L197.092 100.454C197.092 101.204 197.032 102.035 196.912 102.933 197.304 103.039 197.662 103.249 197.954 103.548 198.389 103.997 198.619 104.587 198.601 105.211L198.582 105.38 197.814 109.189 194.885 110.654 192.649 115.214C192.456 115.738 191.983 116.3 191.46 116.838L191.46 122.042C191.46 122.594 191.013 123.042 190.46 123.042M180.599 131.779C180.361 131.779 180.122 131.694 179.931 131.522 179.52 131.153 179.487 130.521 179.856 130.11L184.468 124.986 189.079 130.11C189.448 130.521 189.415 131.153 189.004 131.522 188.594 131.893 187.961 131.857 187.592 131.448L184.468 127.976 181.343 131.448C181.146 131.667 180.873 131.779 180.599 131.779M172.538 181.833C172.538 181.272 172.987 180.833 173.538 180.833 174.087 180.833 174.538 181.272 174.538 181.833 174.538 182.382 174.087 182.833 173.538 182.833 172.987 182.833 172.538 182.382 172.538 181.833zM176.538 181.833C176.538 181.272 176.978 180.833 177.538 180.833 178.087 180.833 178.538 181.272 178.538 181.833 178.538 182.382 178.087 182.833 177.538 182.833 176.978 182.833 176.538 182.382 176.538 181.833zM180.538 181.833C180.538 181.272 180.978 180.833 181.538 180.833 182.087 180.833 182.538 181.272 182.538 181.833 182.538 182.382 182.087 182.833 181.538 182.833 180.978 182.833 180.538 182.382 180.538 181.833zM184.538 181.833C184.538 181.272 184.987 180.833 185.538 180.833 186.087 180.833 186.538 181.272 186.538 181.833 186.538 182.382 186.087 182.833 185.538 182.833 184.987 182.833 184.538 182.382 184.538 181.833zM188.538 181.833C188.538 181.272 188.987 180.833 189.538 180.833 190.087 180.833 190.538 181.272 190.538 181.833 190.538 182.382 190.087 182.833 189.538 182.833 188.987 182.833 188.538 182.382 188.538 181.833zM192.538 181.833C192.538 181.272 192.987 180.833 193.538 180.833 194.087 180.833 194.538 181.272 194.538 181.833 194.538 182.382 194.087 182.833 193.538 182.833 192.987 182.833 192.538 182.382 192.538 181.833zM196.538 181.833C196.538 181.272 196.987 180.833 197.538 180.833 198.087 180.833 198.538 181.272 198.538 181.833 198.538 182.382 198.087 182.833 197.538 182.833 196.987 182.833 196.538 182.382 196.538 181.833z"/>
    <polygon fill="#434A4F" points="182.535 220.971 184.535 220.971 184.535 191.997 182.535 191.997"/>
    <polyline fill="#434A4F" points="202.536 220.971 200.536 220.971 200.536 180.83 202.536 180.83 202.536 143.997 204.536 143.997 204.536 182.83 202.536 182.83 202.536 220.971"/>
    <polyline fill="#434A4F" points="205.95 200.997 201.536 200.997 201.536 198.997 205.122 198.997 206.536 197.583 206.536 187.997 208.536 187.997 208.536 198.411 205.95 200.997"/>
    <polyline fill="#434A4F" points="171.479 190.997 167.157 190.997 167.157 188.997 170.335 188.997 172.22 185.788 172.22 183.934 174.22 183.934 174.22 186.332 171.479 190.997"/>
    <polyline fill="#434A4F" points="201.286 190.997 196.922 190.997 194.536 186.299 194.536 183.872 196.536 183.872 196.536 185.821 198.149 188.997 201.286 188.997 201.286 190.997"/>
    <polyline fill="#434A4F" points="166.535 188.997 158.121 188.997 155.535 186.41 155.535 131.36 172.199 123.589 174.979 119.035 177.541 119.035 177.541 121.035 176.102 121.035 173.591 125.147 157.535 132.635 157.535 185.582 158.949 186.997 166.535 186.997 166.535 188.997"/>
    <polyline fill="#434A4F" points="166.535 200.997 162.121 200.997 159.535 198.411 159.535 187.997 161.535 187.997 161.535 197.583 162.949 198.997 166.535 198.997 166.535 200.997"/>
    <path fill="#42494E" d="M61.442,67.28 L79.525,67.28 L79.525,41.28 L61.442,41.28 L61.442,67.28 Z M59.442,69.28 L81.526,69.28 L81.526,39.28 L59.442,39.28 L59.442,69.28 Z"/>
    <path fill="#42494E" d="M65.442 47.28L75.526 47.28 75.526 45.28 65.442 45.28 65.442 47.28zM63.442 49.28L77.525 49.28 77.525 43.28 63.442 43.28 63.442 49.28zM63.526 53.238L65.526 53.238 65.526 51.238 63.526 51.238 63.526 53.238zM63.526 57.238L65.526 57.238 65.526 55.238 63.526 55.238 63.526 57.238zM63.526 61.238L65.526 61.238 65.526 59.238 63.526 59.238 63.526 61.238zM63.526 65.238L65.526 65.238 65.526 63.238 63.526 63.238 63.526 65.238zM67.526 53.238L69.526 53.238 69.526 51.238 67.526 51.238 67.526 53.238zM67.526 57.238L69.526 57.238 69.526 55.238 67.526 55.238 67.526 57.238zM67.526 61.238L69.526 61.238 69.526 59.238 67.526 59.238 67.526 61.238zM67.526 65.238L69.526 65.238 69.526 63.238 67.526 63.238 67.526 65.238zM71.526 53.238L73.526 53.238 73.526 51.238 71.526 51.238 71.526 53.238zM71.526 57.238L73.526 57.238 73.526 55.238 71.526 55.238 71.526 57.238zM71.526 61.238L73.526 61.238 73.526 59.238 71.526 59.238 71.526 61.238zM71.526 65.238L73.526 65.238 73.526 63.238 71.526 63.238 71.526 65.238zM75.526 53.238L77.526 53.238 77.526 51.238 75.526 51.238 75.526 53.238zM75.526 57.238L77.526 57.238 77.526 55.238 75.526 55.238 75.526 57.238z"/>
    <path fill="#FFFFFE" d="M76.526,59.238 L76.526,65.28"/>
    <polygon fill="#42494E" points="75.526 65.279 77.526 65.279 77.526 59.238 75.526 59.238"/>
    <path fill="#434A4F" d="M70.959,32.028 C65.116,32.028 59.623,34.303 55.491,38.435 C51.359,42.567 49.084,48.06 49.084,53.903 C49.084,64.424 56.58,73.464 66.908,75.398 L67.29,75.47 L70.959,80.362 L74.628,75.47 L75.011,75.398 C85.339,73.464 92.835,64.424 92.835,53.904 C92.835,41.842 83.021,32.028 70.959,32.028 Z M70.959,83.695 L66.154,77.289 C55.08,75.027 47.083,65.255 47.083,53.903 C47.083,47.526 49.567,41.53 54.077,37.021 C58.586,32.512 64.581,30.028 70.958,30.028 C70.959,30.028 70.959,30.028 70.959,30.028 C84.124,30.028 94.835,40.739 94.835,53.904 C94.835,65.255 86.839,75.027 75.764,77.289 L70.959,83.695 Z"/>
    <path fill="#42494E" d="M142.572,58.87 L140.67,58.249 L141.011,57.204 L139.696,56.775 C138.135,56.266 137.128,54.877 137.13,53.235 C137.131,51.594 138.142,50.207 139.703,49.702 L141.019,49.276 L140.295,47.04 L138.979,47.466 C137.417,47.973 135.786,47.44 134.822,46.112 C133.859,44.783 133.861,43.067 134.827,41.74 L135.641,40.622 L133.742,39.239 L132.927,40.358 C131.961,41.684 130.331,42.213 128.769,41.705 C127.208,41.196 126.201,39.807 126.203,38.165 L126.204,36.781 L123.854,36.779 L123.853,38.163 C123.852,39.804 122.842,41.191 121.28,41.697 C119.719,42.204 118.088,41.672 117.124,40.342 L116.312,39.222 L114.409,40.601 L115.222,41.721 C116.185,43.05 116.184,44.766 115.217,46.092 C114.251,47.419 112.619,47.948 111.059,47.439 L109.743,47.01 L109.402,48.056 L107.5,47.436 L108.462,44.489 L111.679,45.538 C112.555,45.823 113.245,45.403 113.601,44.915 C113.956,44.427 114.143,43.64 113.603,42.895 L111.616,40.156 L116.757,36.429 L118.743,39.168 C119.284,39.914 120.09,39.981 120.664,39.794 C121.238,39.608 121.852,39.082 121.853,38.161 L121.856,34.777 L128.206,34.783 L128.203,38.167 C128.202,39.088 128.815,39.616 129.389,39.803 C129.961,39.991 130.769,39.925 131.31,39.181 L133.302,36.445 L138.435,40.182 L136.444,42.917 C135.902,43.662 136.087,44.449 136.441,44.938 C136.796,45.426 137.487,45.848 138.362,45.564 L141.582,44.521 L143.538,50.562 L140.319,51.604 C139.443,51.888 139.13,52.634 139.13,53.237 C139.129,53.841 139.44,54.588 140.316,54.874 L143.533,55.922 L142.572,58.87"/>
    <path fill="#E9886C" d="M133.201,55.893 L131.299,55.273 C131.847,53.594 131.708,51.802 130.907,50.228 C130.107,48.654 128.741,47.485 127.062,46.938 C123.598,45.807 119.857,47.709 118.727,51.175 L116.825,50.555 C118.298,46.04 123.167,43.565 127.682,45.036 C129.869,45.749 131.648,47.271 132.69,49.322 C133.732,51.373 133.914,53.706 133.201,55.893"/>
    <path fill="#E9886C" d="M125.03,61.767 C124.147,61.767 123.25,61.629 122.366,61.341 C120.179,60.628 118.401,59.106 117.358,57.056 C116.316,55.005 116.135,52.671 116.848,50.484 L118.75,51.104 C118.202,52.783 118.341,54.575 119.142,56.149 C119.941,57.724 121.307,58.893 122.986,59.44 C126.451,60.568 130.191,58.67 131.322,55.204 L133.223,55.824 C132.039,59.455 128.657,61.766 125.03,61.767"/>
    <path fill="#42494E" d="M128.191,71.601 L121.842,71.594 L121.845,68.21 C121.846,67.29 121.233,66.762 120.659,66.575 C120.086,66.389 119.28,66.453 118.738,67.197 L116.746,69.933 L111.613,66.195 L113.604,63.459 C114.146,62.715 113.961,61.928 113.606,61.439 C113.252,60.95 112.561,60.53 111.686,60.812 L108.466,61.855 L106.511,55.814 L109.73,54.772 C110.606,54.489 110.918,53.742 110.919,53.139 C110.92,52.535 110.608,51.789 109.733,51.503 L106.517,50.454 L107.597,47.142 L109.498,47.762 L109.038,49.173 L110.354,49.602 C111.914,50.111 112.921,51.499 112.919,53.141 C112.917,54.782 111.908,56.169 110.346,56.675 L109.029,57.101 L109.753,59.336 L111.07,58.91 C112.633,58.404 114.264,58.937 115.226,60.265 C116.189,61.594 116.188,63.31 115.222,64.636 L114.407,65.755 L116.306,67.139 L117.121,66.02 C118.087,64.694 119.719,64.165 121.279,64.673 C122.84,65.182 123.847,66.571 123.845,68.212 L123.844,69.596 L126.193,69.599 L126.195,68.215 C126.197,66.574 127.207,65.186 128.768,64.681 C130.333,64.175 131.962,64.708 132.924,66.037 L133.736,67.157 L135.639,65.778 L134.827,64.658 C133.863,63.329 133.865,61.613 134.831,60.286 C135.797,58.96 137.429,58.431 138.99,58.94 L140.305,59.369 L140.814,57.808 L142.716,58.428 L141.586,61.89 L138.37,60.841 C137.496,60.555 136.804,60.976 136.448,61.463 C136.093,61.952 135.905,62.738 136.446,63.484 L138.432,66.223 L133.291,69.95 L131.305,67.21 C130.765,66.466 129.958,66.397 129.384,66.584 C128.81,66.77 128.196,67.296 128.195,68.217 L128.191,71.601"/>
    <path fill="#FACD60" d="M129.042,53.291 C129.042,55.54 127.219,57.363 124.969,57.363 C122.72,57.363 120.897,55.54 120.897,53.291 C120.897,51.041 122.72,49.218 124.969,49.218 C127.219,49.218 129.042,51.041 129.042,53.291"/>
    <path fill="#FACD60" d="M124.969,49.718 C122.999,49.718 121.396,51.321 121.396,53.29 C121.396,55.261 122.999,56.863 124.969,56.863 C126.939,56.863 128.542,55.261 128.542,53.29 C128.542,51.321 126.939,49.718 124.969,49.718 Z M124.969,57.863 C122.448,57.863 120.396,55.812 120.396,53.29 C120.396,50.77 122.448,48.718 124.969,48.718 C127.491,48.718 129.542,50.77 129.542,53.29 C129.542,55.812 127.491,57.863 124.969,57.863 Z"/>
    <path fill="#434A4F" d="M125.396,31.027 C113.333,31.027 103.52,40.841 103.52,52.903 C103.52,63.423 111.016,72.463 121.344,74.397 L121.727,74.469 L125.396,79.362 L129.065,74.47 L129.447,74.398 C139.775,72.463 147.271,63.423 147.271,52.903 C147.271,40.841 137.458,31.027 125.396,31.027 Z M125.396,82.695 L120.591,76.288 C109.516,74.026 101.52,64.254 101.52,52.903 C101.52,39.738 112.231,29.027 125.396,29.027 C138.561,29.027 149.271,39.738 149.271,52.903 C149.271,64.254 141.275,74.026 130.201,76.289 L125.396,82.695 Z"/>
    <path fill="#FACD60" d="M189.997,48.483 C189.997,53.178 186.191,56.984 181.496,56.984 C176.801,56.984 172.995,53.178 172.995,48.483 C172.995,43.788 176.801,39.982 181.496,39.982 C186.191,39.982 189.997,43.788 189.997,48.483"/>
    <path fill="#434A4F" d="M187.798,65.841 C187.246,65.841 186.798,65.394 186.798,64.841 L186.798,61.809 C186.798,59.804 187.626,57.906 189.13,56.464 C191.318,54.368 192.522,51.548 192.522,48.526 C192.522,45.471 191.301,42.629 189.082,40.526 C186.865,38.424 183.951,37.362 180.894,37.521 C175.239,37.822 170.667,42.497 170.484,48.163 C170.383,51.307 171.637,54.352 173.924,56.515 C175.394,57.906 176.203,59.73 176.203,61.652 L176.203,64.841 C176.203,65.394 175.755,65.841 175.203,65.841 C174.651,65.841 174.203,65.394 174.203,64.841 L174.203,61.652 C174.203,60.285 173.616,58.977 172.55,57.968 C169.847,55.412 168.365,51.814 168.485,48.098 C168.701,41.403 174.104,35.88 180.788,35.523 C184.406,35.332 187.839,36.592 190.458,39.075 C193.079,41.56 194.522,44.916 194.522,48.526 C194.522,52.099 193.099,55.431 190.514,57.908 C189.407,58.969 188.798,60.354 188.798,61.809 L188.798,64.841 C188.798,65.394 188.35,65.841 187.798,65.841"/>
    <path fill="#434A4F" d="M181.59,72.998 C181.042,72.998 180.595,72.557 180.59,72.007 C180.585,71.455 181.028,71.003 181.581,70.998 L184.27,70.973 C184.901,70.89 185.495,70.597 185.946,70.146 C186.495,69.597 186.798,68.866 186.798,68.089 L186.798,64.95 C186.798,64.398 187.246,63.95 187.798,63.95 C188.35,63.95 188.798,64.398 188.798,64.95 L188.798,68.089 C188.798,69.4 188.287,70.633 187.36,71.56 C186.579,72.341 185.546,72.84 184.451,72.966 L184.345,72.973 L181.599,72.998 C181.596,72.998 181.593,72.998 181.59,72.998"/>
    <path fill="#434A4F" d="M190.091,65.84 L173.09,65.839 C172.538,65.839 172.09,65.392 172.09,64.839 C172.09,64.287 172.538,63.839 173.09,63.839 L190.091,63.84 C190.643,63.84 191.091,64.288 191.091,64.84 C191.091,65.392 190.643,65.84 190.091,65.84"/>
    <path fill="#434A4F" d="M181.59,72.998 L179.112,72.998 C177.801,72.998 176.568,72.488 175.641,71.561 C174.713,70.632 174.203,69.399 174.203,68.088 L174.203,65.265 C174.203,64.712 174.651,64.265 175.203,64.265 C175.755,64.265 176.203,64.712 176.203,65.265 L176.203,68.089 C176.203,68.866 176.505,69.597 177.055,70.146 C177.604,70.695 178.335,70.998 179.112,70.998 L181.59,70.998 C182.142,70.998 182.59,71.446 182.59,71.998 C182.59,72.55 182.142,72.998 181.59,72.998"/>
    <polyline fill="#434A4F" points="184.605 64.841 182.605 64.841 182.605 57.509 187.816 47.592 187.816 46.422 189.816 46.422 189.816 48.085 184.605 58.002 184.605 64.841"/>
    <polyline fill="#434A4F" points="180.355 64.841 178.355 64.841 178.355 58.002 173.144 48.085 173.144 46.421 175.144 46.421 175.144 47.592 180.355 57.509 180.355 64.841"/>
    <path fill="#434A4F" d="M176.688,47.132 C176.688,46.582 177.137,46.132 177.688,46.132 C178.237,46.132 178.688,46.582 178.688,47.132 C178.688,47.683 178.237,48.132 177.688,48.132 C177.137,48.132 176.688,47.683 176.688,47.132 Z M180.688,47.132 C180.688,46.582 181.137,46.132 181.688,46.132 C182.237,46.132 182.688,46.582 182.688,47.132 C182.688,47.683 182.237,48.132 181.688,48.132 C181.137,48.132 180.688,47.683 180.688,47.132 Z M184.688,47.132 C184.688,46.582 185.137,46.132 185.688,46.132 C186.237,46.132 186.688,46.582 186.688,47.132 C186.688,47.683 186.237,48.132 185.688,48.132 C185.137,48.132 184.688,47.683 184.688,47.132 Z"/>
    <path fill="#434A4F" d="M181.646,32.028 C175.803,32.028 170.309,34.303 166.177,38.435 C162.045,42.567 159.77,48.06 159.77,53.903 C159.77,64.424 167.266,73.464 177.594,75.398 L177.977,75.47 L181.646,80.362 L185.315,75.47 L185.697,75.398 C196.025,73.464 203.521,64.424 203.521,53.904 C203.521,41.842 193.708,32.028 181.646,32.028 Z M181.646,83.695 L176.841,77.289 C165.766,75.027 157.77,65.255 157.77,53.903 C157.77,47.526 160.253,41.53 164.763,37.021 C169.272,32.512 175.268,30.028 181.645,30.028 C181.646,30.028 181.646,30.028 181.646,30.028 C194.811,30.028 205.521,40.739 205.521,53.904 C205.521,65.255 197.525,75.027 186.451,77.289 L181.646,83.695 Z"/>
    <polygon fill="#434A4F" points="153.449 103.303 155.449 103.303 155.449 99.303 153.449 99.303"/>
    <polygon fill="#434A4F" points="153.449 113.303 155.449 113.303 155.449 109.303 153.449 109.303"/>
    <polygon fill="#434A4F" points="157.449 107.303 161.449 107.303 161.449 105.303 157.449 105.303"/>
    <polygon fill="#434A4F" points="147.449 107.303 151.449 107.303 151.449 105.303 147.449 105.303"/>
    <polygon fill="#434A4F" points="93.414 83.29 95.414 83.29 95.414 79.29 93.414 79.29"/>
    <polygon fill="#434A4F" points="93.414 93.29 95.414 93.29 95.414 89.29 93.414 89.29"/>
    <polygon fill="#434A4F" points="97.414 87.29 101.414 87.29 101.414 85.29 97.414 85.29"/>
    <polygon fill="#434A4F" points="87.414 87.29 91.414 87.29 91.414 85.29 87.414 85.29"/>
    <path fill="#FACD60" d="M87.518 114.303C87.518 114.855 87.07 115.303 86.518 115.303 85.965 115.303 85.518 114.855 85.518 114.303 85.518 113.75 85.965 113.303 86.518 113.303 87.07 113.303 87.518 113.75 87.518 114.303M103.518 99.303C103.518 100.407 102.622 101.303 101.518 101.303 100.413 101.303 99.518 100.407 99.518 99.303 99.518 98.198 100.413 97.303 101.518 97.303 102.622 97.303 103.518 98.198 103.518 99.303M149.518 89.303C149.518 88.198 150.413 87.303 151.518 87.303 152.622 87.303 153.518 88.198 153.518 89.303 153.518 90.407 152.622 91.303 151.518 91.303 150.413 91.303 149.518 90.407 149.518 89.303M207.518 118.303C207.518 117.75 207.966 117.303 208.518 117.303 209.07 117.303 209.518 117.75 209.518 118.303 209.518 118.855 209.07 119.303 208.518 119.303 207.966 119.303 207.518 118.855 207.518 118.303M157.518 92.303C157.518 91.751 157.966 91.303 158.518 91.303 159.07 91.303 159.518 91.751 159.518 92.303 159.518 92.855 159.07 93.303 158.518 93.303 157.966 93.303 157.518 92.855 157.518 92.303M161.518 115.303C161.518 114.198 162.413 113.303 163.518 113.303 164.622 113.303 165.518 114.198 165.518 115.303 165.518 116.407 164.622 117.303 163.518 117.303 162.413 117.303 161.518 116.407 161.518 115.303"/>
  </g>
</svg>
