<svg xmlns="http://www.w3.org/2000/svg" width="250" height="250" viewBox="0 0 250 250">
  <g fill="none" fill-rule="evenodd">
    <polyline fill="#FFD15D" points="136.983 173.22 136.983 114.08 130.483 108.998 123.99 114.074 123.983 114.069 123.983 173.22 136.983 173.22"/>
    <polyline fill="#FFD15D" points="108.483 173.22 108.483 112.647 108.375 112.718 103.983 108.998 103.983 173.22 108.483 173.22"/>
    <polyline fill="#F58E70" points="132.483 88.112 123.983 71.112 114.983 88.08 132.483 88.112"/>
    <polyline fill="#475059" points="143.983 173.22 141.983 173.22 141.983 109.235 123.96 73.297 104.983 109.246 104.983 173.22 102.983 173.22 102.983 108.75 103.098 108.531 124.005 68.927 143.983 108.761 143.983 173.22"/>
    <polyline fill="#475059" points="132.482 89.112 114.981 89.08 114.984 87.08 132.485 87.112 132.482 89.112"/>
    <polyline fill="#475059" points="137.008 115.369 130.483 110.268 123.987 115.346 117.442 110.31 109.91 115.33 103.336 109.761 104.629 108.235 110.055 112.831 117.525 107.851 123.978 112.815 130.483 107.728 136.957 112.791 142.336 108.235 143.629 109.761 137.008 115.369"/>
    <path fill="#5FE0ED" d="M58.744 50.936C58.744 53.145 56.953 54.936 54.744 54.936 52.535 54.936 50.744 53.145 50.744 50.936 50.744 48.726 52.535 46.936 54.744 46.936 56.953 46.936 58.744 48.726 58.744 50.936M178.957 158.573C178.957 160.782 177.166 162.573 174.957 162.573 172.748 162.573 170.957 160.782 170.957 158.573 170.957 156.364 172.748 154.573 174.957 154.573 177.166 154.573 178.957 156.364 178.957 158.573"/>
    <path fill="#48515A" d="M151.983,174.019 L93.982,174.019 L93.982,158.298 C93.982,151.401 90.783,144.419 85.206,139.143 C73.611,128.174 67.249,112.928 67.752,97.312 C68.666,68.938 91.559,45.528 119.868,44.016 C132.912,43.319 145.796,47.249 156.142,55.081 L154.935,56.676 C144.965,49.129 132.548,45.341 119.976,46.014 C92.693,47.47 70.632,70.032 69.75,97.376 C69.267,112.42 75.4,127.114 86.581,137.69 C92.556,143.342 95.982,150.853 95.982,158.298 L95.982,172.019 L149.983,172.019 L149.983,159.003 C149.983,151.154 153.484,143.296 159.587,137.444 C170.201,127.27 176.046,113.663 176.046,99.129 L178.046,99.129 C178.046,114.213 171.983,128.333 160.972,138.888 C155.259,144.365 151.983,151.696 151.983,159.003 L151.983,174.019"/>
    <path fill="#FFD15D" d="M132.745,201.519 L114.745,201.519 C106.46,201.519 99.483,195.22 99.483,186.936 L99.483,183.519 L147.483,183.519 L147.483,186.936 C147.483,195.22 141.029,201.519 132.745,201.519"/>
    <path fill="#FFD15D" d="M99.982,184.019 L99.982,186.936 C99.982,194.702 106.605,201.019 114.744,201.019 L132.744,201.019 C140.861,201.019 146.983,194.965 146.983,186.936 L146.983,184.019 L99.982,184.019 Z M132.744,202.019 L114.744,202.019 C106.053,202.019 98.982,195.253 98.982,186.936 L98.982,183.019 L147.983,183.019 L147.983,186.936 C147.983,195.393 141.289,202.019 132.744,202.019 Z"/>
    <polygon fill="#DEDEDD" points="94.983 181.019 150.983 181.019 150.983 173.019 94.983 173.019"/>
    <path fill="#DEDEDD" d="M95.982,180.019 L149.983,180.019 L149.983,174.019 L95.982,174.019 L95.982,180.019 Z M93.982,182.019 L151.983,182.019 L151.983,172.019 L93.982,172.019 L93.982,182.019 Z"/>
    <polygon fill="#48515A" points="90.982 174.019 154.983 174.019 154.983 172.019 90.982 172.019"/>
    <path fill="#48515A" d="M135.256,206.019 L113.962,206.019 C109.09,206.019 104.316,204.064 100.833,200.65 L100.831,200.649 L100.615,200.481 C97.035,196.902 94.982,192.102 94.982,187.314 L94.982,181.019 L96.982,181.019 L96.982,187.314 C96.982,191.522 98.776,195.752 101.908,198.945 L102.119,199.109 C105.239,202.229 109.557,204.019 113.962,204.019 L135.005,204.019 C138.319,203.169 142.063,201.913 144.867,199.109 L145.092,198.884 L145.21,198.864 C148.247,195.714 149.983,191.523 149.983,187.314 L149.983,181.019 L151.983,181.019 L151.983,187.314 C151.983,192.15 149.949,196.957 146.404,200.502 L146.18,200.727 L146.051,200.749 C142.902,203.769 138.898,205.093 135.377,205.988 L135.256,206.019"/>
    <polygon fill="#48515A" points="90.982 178.019 154.983 178.019 154.983 176.019 90.982 176.019"/>
    <polygon fill="#48515A" points="90.982 182.019 154.983 182.019 154.983 180.019 90.982 180.019"/>
    <path fill="#48515A" d="M189.822,185.93 C187.616,185.93 185.822,187.724 185.822,189.93 C185.822,192.135 187.616,193.93 189.822,193.93 C192.028,193.93 193.822,192.135 193.822,189.93 C193.822,187.724 192.028,185.93 189.822,185.93 Z M189.822,195.93 C186.514,195.93 183.822,193.238 183.822,189.93 C183.822,186.621 186.514,183.93 189.822,183.93 C193.131,183.93 195.822,186.621 195.822,189.93 C195.822,193.238 193.131,195.93 189.822,195.93 Z"/>
    <polygon fill="#48515A" points="205.984 142.054 207.984 142.054 207.984 138.054 205.984 138.054"/>
    <polygon fill="#48515A" points="205.984 152.054 207.984 152.054 207.984 148.054 205.984 148.054"/>
    <polygon fill="#48515A" points="209.984 146.054 213.984 146.054 213.984 144.054 209.984 144.054"/>
    <polygon fill="#48515A" points="199.984 146.054 203.984 146.054 203.984 144.054 199.984 144.054"/>
    <polygon fill="#48515A" points="46.982 121.019 48.982 121.019 48.982 117.019 46.982 117.019"/>
    <polygon fill="#48515A" points="46.982 131.019 48.982 131.019 48.982 127.019 46.982 127.019"/>
    <polygon fill="#48515A" points="50.982 125.019 54.982 125.019 54.982 123.019 50.982 123.019"/>
    <polygon fill="#48515A" points="40.982 125.019 44.982 125.019 44.982 123.019 40.982 123.019"/>
    <path fill="#48515A" d="M47.75,79.93 C46.648,79.93 45.75,80.827 45.75,81.93 C45.75,83.033 46.648,83.93 47.75,83.93 C48.853,83.93 49.75,83.033 49.75,81.93 C49.75,80.827 48.853,79.93 47.75,79.93 Z M47.75,85.93 C45.544,85.93 43.75,84.135 43.75,81.93 C43.75,79.724 45.544,77.93 47.75,77.93 C49.956,77.93 51.75,79.724 51.75,81.93 C51.75,84.135 49.956,85.93 47.75,85.93 Z"/>
    <polygon fill="#48515A" points="152.983 211.019 154.983 211.019 154.983 207.019 152.983 207.019"/>
    <polygon fill="#48515A" points="152.983 221.019 154.983 221.019 154.983 217.019 152.983 217.019"/>
    <polygon fill="#48515A" points="156.983 215.019 160.983 215.019 160.983 213.019 156.983 213.019"/>
    <polygon fill="#48515A" points="146.983 215.019 150.983 215.019 150.983 213.019 146.983 213.019"/>
    <polygon fill="#48515A" points="119.983 213.019 121.983 213.019 121.983 205.019 119.983 205.019"/>
    <polygon fill="#48515A" points="125.983 213.019 127.983 213.019 127.983 205.019 125.983 205.019"/>
    <path fill="#48515A" d="M120.984 217.017C120.915 217.017 120.855 217.017 120.784 216.997 120.725 216.987 120.654 216.967 120.595 216.947 120.475 216.887 120.364 216.817 120.275 216.727 120.085 216.537 119.984 216.287 119.984 216.017 119.984 215.757 120.085 215.497 120.275 215.307 120.315 215.267 120.375 215.227 120.425 215.187 120.484 215.147 120.534 215.117 120.595 215.097 120.654 215.067 120.725 215.047 120.784 215.037 121.114 214.977 121.455 215.077 121.685 215.307 121.875 215.497 121.984 215.757 121.984 216.017 121.984 216.287 121.875 216.537 121.685 216.727 121.645 216.777 121.595 216.817 121.534 216.847 121.484 216.887 121.425 216.917 121.364 216.947 121.305 216.967 121.245 216.987 121.175 216.997 121.114 217.017 121.045 217.017 120.984 217.017M126.984 217.017C126.725 217.017 126.465 216.917 126.275 216.727 126.085 216.537 125.984 216.287 125.984 216.017 125.984 215.757 126.085 215.497 126.275 215.317 126.645 214.937 127.315 214.937 127.685 215.317 127.875 215.497 127.984 215.757 127.984 216.017 127.984 216.287 127.875 216.537 127.685 216.727 127.505 216.917 127.245 217.017 126.984 217.017M120.984 221.017C120.915 221.017 120.855 221.007 120.784 220.997 120.725 220.987 120.654 220.967 120.595 220.947 120.534 220.917 120.484 220.887 120.425 220.847 120.375 220.817 120.315 220.777 120.275 220.727 120.185 220.637 120.114 220.527 120.055 220.397 120.005 220.277 119.984 220.147 119.984 220.017 119.984 219.757 120.085 219.497 120.275 219.307 120.315 219.267 120.375 219.227 120.425 219.187 120.484 219.147 120.534 219.117 120.595 219.097 120.654 219.067 120.725 219.047 120.784 219.037 121.114 218.967 121.455 219.077 121.685 219.307 121.875 219.497 121.984 219.757 121.984 220.017 121.984 220.147 121.955 220.277 121.904 220.397 121.855 220.527 121.784 220.637 121.685 220.727 121.505 220.907 121.245 221.017 120.984 221.017M126.984 221.017C126.715 221.017 126.465 220.917 126.275 220.727 126.185 220.637 126.105 220.527 126.055 220.397 126.005 220.277 125.984 220.147 125.984 220.017 125.984 219.757 126.085 219.497 126.275 219.307 126.645 218.937 127.315 218.937 127.685 219.307 127.875 219.497 127.984 219.757 127.984 220.017 127.984 220.147 127.955 220.277 127.904 220.397 127.855 220.527 127.784 220.637 127.685 220.727 127.505 220.917 127.245 221.017 126.984 221.017M155.725 49.877C155.665 49.877 155.595 49.867 155.534 49.857 155.465 49.847 155.404 49.827 155.345 49.797 155.284 49.777 155.225 49.747 155.175 49.707 155.114 49.677 155.065 49.627 155.025 49.587 154.835 49.397 154.725 49.137 154.725 48.877 154.725 48.617 154.835 48.357 155.025 48.167 155.065 48.127 155.114 48.087 155.175 48.047 155.225 48.007 155.284 47.977 155.345 47.957 155.404 47.927 155.465 47.907 155.534 47.897 155.855 47.837 156.205 47.937 156.435 48.167 156.625 48.357 156.725 48.617 156.725 48.877 156.725 49.137 156.625 49.397 156.435 49.587 156.245 49.767 155.995 49.877 155.725 49.877M120.795 38.957C120.795 38.407 121.234 37.947 121.784 37.947 122.335 37.937 122.795 38.377 122.795 38.927 122.805 39.477 122.364 39.937 121.815 39.937 121.815 39.937 121.805 39.937 121.795 39.937 121.255 39.937 120.805 39.507 120.795 38.957zM124.784 38.957C124.815 38.407 125.284 37.987 125.835 38.017 126.385 38.037 126.815 38.507 126.784 39.057 126.755 39.617 126.284 40.037 125.734 40.007 125.185 39.987 124.755 39.507 124.784 38.957zM116.815 39.217C116.775 38.667 117.185 38.177 117.734 38.137 118.284 38.087 118.765 38.497 118.815 39.057 118.855 39.597 118.444 40.087 117.895 40.127 117.875 40.127 117.845 40.137 117.815 40.137 117.305 40.137 116.864 39.737 116.815 39.217zM129.645 40.337C129.095 40.277 128.705 39.777 128.765 39.227 128.835 38.677 129.324 38.287 129.875 38.347 130.425 38.417 130.815 38.907 130.755 39.457 130.694 39.967 130.265 40.347 129.765 40.347 129.725 40.347 129.685 40.337 129.645 40.337zM112.864 39.737C112.784 39.187 113.165 38.677 113.705 38.597L113.715 38.597C114.255 38.517 114.765 38.897 114.845 39.437 114.925 39.987 114.545 40.497 114.005 40.577 113.955 40.587 113.904 40.587 113.855 40.587 113.364 40.587 112.944 40.227 112.864 39.737zM133.525 40.927C133.525 40.927 133.525 40.927 133.515 40.927 132.975 40.827 132.614 40.297 132.715 39.757 132.824 39.217 133.345 38.857 133.885 38.957 134.425 39.057 134.784 39.587 134.685 40.127 134.595 40.607 134.175 40.937 133.705 40.937 133.645 40.937 133.585 40.937 133.525 40.927zM108.955 40.517C108.835 39.977 109.185 39.447 109.725 39.327 110.265 39.207 110.795 39.547 110.915 40.087 111.025 40.627 110.685 41.167 110.145 41.277 110.074 41.297 110.005 41.307 109.935 41.307 109.475 41.307 109.065 40.987 108.955 40.517zM137.345 41.767C137.345 41.767 137.345 41.767 137.345 41.777 136.815 41.637 136.484 41.087 136.625 40.557 136.765 40.017 137.315 39.697 137.845 39.837 138.375 39.977 138.705 40.517 138.565 41.057 138.444 41.507 138.045 41.807 137.595 41.807 137.515 41.807 137.435 41.797 137.345 41.767zM105.105 41.557C104.955 41.027 105.265 40.467 105.795 40.317 106.324 40.167 106.875 40.467 107.025 41.007 107.185 41.537 106.875 42.087 106.345 42.237 106.255 42.267 106.165 42.277 106.074 42.277 105.635 42.277 105.234 41.997 105.105 41.557zM141.105 42.877C140.585 42.697 140.295 42.137 140.475 41.617 140.645 41.087 141.215 40.807 141.734 40.977 142.255 41.147 142.545 41.717 142.375 42.237 142.234 42.657 141.845 42.927 141.425 42.927 141.315 42.927 141.215 42.907 141.105 42.877zM101.345 42.857C101.154 42.337 101.415 41.767 101.935 41.577 102.455 41.387 103.034 41.657 103.225 42.177 103.404 42.697 103.135 43.267 102.614 43.457 102.614 43.457 102.614 43.457 102.625 43.457 102.505 43.497 102.395 43.517 102.275 43.517 101.864 43.517 101.484 43.267 101.345 42.857zM144.784 44.227C144.275 44.017 144.025 43.437 144.234 42.927 144.444 42.417 145.025 42.167 145.545 42.377L145.534 42.377C146.055 42.587 146.295 43.167 146.095 43.677 145.935 44.067 145.555 44.307 145.165 44.307 145.034 44.307 144.915 44.277 144.784 44.227zM97.654 44.407C97.435 43.897 97.665 43.307 98.175 43.087L98.165 43.087C98.675 42.867 99.265 43.087 99.484 43.597 99.715 44.097 99.484 44.697 98.975 44.917 98.845 44.977 98.705 44.997 98.574 44.997 98.185 44.997 97.824 44.777 97.654 44.407zM148.364 45.827C147.875 45.587 147.665 44.987 147.904 44.487 148.145 43.987 148.745 43.787 149.245 44.027 149.734 44.267 149.944 44.867 149.705 45.367 149.534 45.717 149.175 45.927 148.805 45.927 148.654 45.927 148.515 45.897 148.364 45.827zM94.095 46.197C93.835 45.707 94.024 45.097 94.515 44.847 95.005 44.587 95.605 44.777 95.864 45.267 96.114 45.757 95.935 46.357 95.444 46.617 95.295 46.697 95.135 46.727 94.984 46.727 94.614 46.727 94.274 46.537 94.095 46.197zM151.835 47.657C151.355 47.387 151.194 46.767 151.465 46.287 151.734 45.817 152.345 45.647 152.824 45.917 153.305 46.197 153.475 46.807 153.205 47.287 153.015 47.607 152.685 47.787 152.335 47.787 152.165 47.787 151.995 47.747 151.835 47.657zM90.654 48.217C90.364 47.747 90.515 47.127 90.984 46.847 91.455 46.557 92.065 46.707 92.355 47.177 92.645 47.647 92.495 48.257 92.024 48.547 91.864 48.647 91.685 48.697 91.505 48.697 91.165 48.697 90.845 48.527 90.654 48.217zM87.355 50.467C87.034 50.017 87.145 49.387 87.595 49.067 88.045 48.757 88.665 48.857 88.984 49.317 89.305 49.767 89.194 50.387 88.745 50.707 88.574 50.827 88.375 50.887 88.175 50.887 87.855 50.887 87.545 50.737 87.355 50.467zM84.215 52.927C83.864 52.497 83.935 51.867 84.364 51.517 84.795 51.167 85.425 51.237 85.765 51.667 86.114 52.097 86.045 52.727 85.614 53.077 85.614 53.077 85.614 53.077 85.625 53.077 85.435 53.227 85.215 53.297 84.984 53.297 84.694 53.297 84.415 53.167 84.215 52.927zM81.245 55.587C80.864 55.187 80.895 54.547 81.295 54.177 81.705 53.797 82.335 53.827 82.715 54.227 83.085 54.637 83.065 55.267 82.654 55.637 82.654 55.637 82.654 55.637 82.654 55.647 82.465 55.817 82.225 55.907 81.975 55.907 81.705 55.907 81.444 55.797 81.245 55.587zM78.455 58.437C78.055 58.057 78.034 57.427 78.415 57.027 78.795 56.627 79.435 56.607 79.835 56.987 80.234 57.367 80.245 57.997 79.864 58.397 79.675 58.607 79.404 58.717 79.145 58.717 78.895 58.717 78.654 58.627 78.455 58.437zM75.864 61.467C75.435 61.117 75.375 60.487 75.734 60.057 76.085 59.637 76.715 59.577 77.135 59.927 77.565 60.277 77.625 60.907 77.274 61.337 77.074 61.577 76.784 61.697 76.505 61.697 76.274 61.697 76.045 61.627 75.864 61.467zM73.475 64.667C73.024 64.337 72.925 63.717 73.255 63.267 73.574 62.817 74.194 62.717 74.645 63.037 75.095 63.367 75.194 63.987 74.875 64.437 74.675 64.707 74.375 64.857 74.055 64.857 73.855 64.857 73.654 64.787 73.475 64.667zM71.305 68.007C70.835 67.717 70.694 67.097 70.995 66.627 71.284 66.157 71.904 66.017 72.364 66.307 72.835 66.597 72.975 67.217 72.685 67.687 72.495 67.987 72.175 68.157 71.835 68.157 71.654 68.157 71.475 68.107 71.305 68.007zM69.364 71.487C68.875 71.227 68.694 70.617 68.955 70.127 69.215 69.647 69.824 69.457 70.315 69.717 70.795 69.987 70.984 70.587 70.715 71.077 70.534 71.417 70.194 71.607 69.835 71.607 69.675 71.607 69.515 71.567 69.364 71.487zM67.654 75.087C67.154 74.857 66.935 74.267 67.165 73.757 67.395 73.257 67.984 73.037 68.484 73.267 68.984 73.487 69.215 74.087 68.984 74.587 68.815 74.957 68.455 75.177 68.074 75.177 67.935 75.177 67.795 75.147 67.654 75.087zM66.194 78.787C65.685 78.597 65.425 78.017 65.614 77.497 65.805 76.987 66.385 76.717 66.904 76.917 67.415 77.107 67.685 77.687 67.484 78.207 67.335 78.607 66.955 78.847 66.545 78.847 66.435 78.847 66.315 78.827 66.194 78.787zM64.984 82.587C64.455 82.427 64.154 81.867 64.315 81.337 64.475 80.817 65.034 80.507 65.565 80.667 66.095 80.827 66.395 81.387 66.234 81.917 66.105 82.347 65.705 82.627 65.274 82.627 65.175 82.627 65.085 82.617 64.984 82.587zM64.034 86.457C63.495 86.337 63.154 85.797 63.284 85.257L63.274 85.257C63.404 84.717 63.935 84.387 64.475 84.507 65.015 84.627 65.355 85.167 65.234 85.707 65.125 86.167 64.715 86.487 64.255 86.487 64.185 86.487 64.105 86.477 64.034 86.457zM63.335 90.387C62.795 90.297 62.415 89.787 62.505 89.237 62.595 88.697 63.105 88.317 63.654 88.407 64.194 88.497 64.565 89.007 64.484 89.557 64.404 90.047 63.975 90.397 63.495 90.397 63.444 90.397 63.395 90.387 63.335 90.387zM62.904 94.347C62.355 94.297 61.955 93.807 62.005 93.257 62.055 92.707 62.534 92.307 63.095 92.357 63.635 92.407 64.045 92.897 63.995 93.447 63.944 93.967 63.515 94.357 63.005 94.357 62.965 94.357 62.935 94.347 62.904 94.347zM62.734 98.327C62.185 98.317 61.745 97.857 61.765 97.307 61.774 96.757 62.235 96.317 62.784 96.327 63.345 96.347 63.775 96.807 63.765 97.357 63.745 97.897 63.305 98.327 62.765 98.327 62.755 98.327 62.745 98.327 62.734 98.327zM61.795 101.357C61.765 100.807 62.194 100.337 62.755 100.317 63.305 100.297 63.765 100.727 63.784 101.277 63.815 101.837 63.375 102.297 62.824 102.317 62.815 102.317 62.805 102.317 62.784 102.317 62.255 102.317 61.815 101.897 61.795 101.357zM62.085 105.407L62.085 105.397C62.025 104.847 62.425 104.357 62.975 104.297 63.525 104.247 64.015 104.637 64.074 105.187 64.135 105.737 63.735 106.227 63.185 106.287 63.145 106.297 63.114 106.297 63.074 106.297 62.574 106.297 62.135 105.917 62.085 105.407zM62.645 109.417C62.555 108.867 62.915 108.357 63.455 108.257 64.005 108.167 64.524 108.527 64.614 109.067 64.715 109.617 64.345 110.137 63.805 110.227 63.745 110.237 63.685 110.247 63.635 110.247 63.154 110.247 62.734 109.907 62.645 109.417zM63.484 113.387C63.345 112.847 63.675 112.307 64.215 112.177 64.745 112.047 65.284 112.367 65.425 112.907 65.555 113.447 65.225 113.987 64.694 114.117 64.614 114.137 64.524 114.147 64.455 114.147 64.005 114.147 63.595 113.837 63.484 113.387zM180.775 114.387C180.234 114.257 179.895 113.727 180.025 113.187 180.145 112.647 180.685 112.307 181.215 112.437 181.755 112.557 182.095 113.097 181.965 113.637 181.864 114.097 181.444 114.407 180.995 114.407 180.925 114.407 180.845 114.397 180.775 114.387zM64.574 117.287C64.415 116.767 64.705 116.197 65.225 116.037 65.755 115.867 66.315 116.157 66.484 116.687 66.654 117.207 66.364 117.777 65.835 117.947 65.734 117.977 65.635 117.987 65.534 117.987 65.105 117.987 64.715 117.717 64.574 117.287zM179.675 118.217C179.145 118.057 178.845 117.497 179.005 116.967 179.165 116.437 179.725 116.137 180.255 116.307 180.784 116.467 181.085 117.027 180.925 117.557 180.784 117.987 180.395 118.257 179.965 118.257 179.864 118.257 179.765 118.247 179.675 118.217zM65.935 121.117C65.734 120.597 65.984 120.017 66.505 119.817 67.015 119.617 67.595 119.867 67.805 120.387 68.005 120.897 67.745 121.477 67.234 121.677 67.114 121.727 66.984 121.747 66.864 121.747 66.465 121.747 66.095 121.507 65.935 121.117zM178.295 121.957C177.784 121.757 177.525 121.177 177.725 120.667 177.925 120.147 178.505 119.897 179.015 120.097 179.534 120.297 179.784 120.877 179.585 121.387 179.435 121.787 179.055 122.027 178.654 122.027 178.534 122.027 178.415 122.007 178.295 121.957zM67.555 124.837C67.315 124.337 67.524 123.747 68.024 123.507 68.524 123.267 69.125 123.487 69.364 123.987 69.595 124.487 69.385 125.077 68.885 125.317 68.745 125.377 68.595 125.417 68.455 125.417 68.074 125.417 67.725 125.197 67.555 124.837zM176.654 125.597C176.154 125.357 175.944 124.767 176.185 124.267 176.415 123.767 177.015 123.547 177.515 123.787 178.005 124.027 178.225 124.617 177.984 125.117 177.815 125.477 177.455 125.697 177.085 125.697 176.935 125.697 176.795 125.667 176.654 125.597zM69.404 128.447C69.135 127.967 69.315 127.357 69.795 127.087 70.274 126.817 70.885 126.987 71.154 127.477 71.425 127.957 71.245 128.567 70.765 128.837 70.614 128.917 70.444 128.957 70.274 128.957 69.925 128.957 69.585 128.777 69.404 128.447zM174.765 129.107C174.275 128.837 174.105 128.227 174.375 127.747 174.375 127.747 174.375 127.747 174.385 127.747 174.654 127.257 175.265 127.087 175.745 127.367 176.225 127.637 176.395 128.247 176.125 128.727 175.935 129.047 175.595 129.237 175.245 129.237 175.085 129.237 174.915 129.197 174.765 129.107zM71.495 131.927C71.194 131.457 71.324 130.837 71.795 130.537 72.255 130.237 72.875 130.367 73.175 130.837 73.475 131.297 73.345 131.917 72.875 132.217 72.715 132.327 72.524 132.377 72.335 132.377 72.005 132.377 71.685 132.217 71.495 131.927zM172.614 132.467C172.154 132.167 172.025 131.547 172.335 131.077 172.635 130.617 173.255 130.497 173.725 130.797 174.175 131.107 174.305 131.727 174.005 132.187L173.995 132.187C173.805 132.477 173.484 132.637 173.165 132.637 172.975 132.637 172.784 132.577 172.614 132.467zM73.805 135.247C73.475 134.807 73.565 134.177 74.015 133.847 74.455 133.517 75.085 133.617 75.415 134.057 75.745 134.497 75.654 135.127 75.205 135.457 75.024 135.587 74.815 135.657 74.614 135.657 74.305 135.657 74.005 135.517 73.805 135.247zM170.234 135.667C169.795 135.327 169.715 134.707 170.055 134.267 170.395 133.827 171.015 133.747 171.455 134.087 171.895 134.427 171.975 135.047 171.635 135.487 171.435 135.747 171.145 135.877 170.845 135.877 170.635 135.877 170.415 135.807 170.234 135.667zM76.335 138.427C75.975 138.007 76.024 137.367 76.444 137.007 76.864 136.657 77.495 136.707 77.855 137.127 78.215 137.547 78.165 138.177 77.745 138.537 77.555 138.697 77.324 138.777 77.095 138.777 76.815 138.777 76.534 138.657 76.335 138.427zM167.665 138.717C167.245 138.357 167.194 137.727 167.555 137.307 167.555 137.307 167.555 137.307 167.555 137.317 167.915 136.887 168.545 136.847 168.965 137.207 169.385 137.567 169.435 138.197 169.074 138.617 168.875 138.847 168.595 138.967 168.315 138.967 168.085 138.967 167.855 138.887 167.665 138.717zM79.065 141.417C78.675 141.027 78.685 140.387 79.085 140.007 79.475 139.617 80.114 139.627 80.495 140.027 80.885 140.417 80.875 141.057 80.475 141.437 80.284 141.627 80.034 141.717 79.784 141.717 79.524 141.717 79.265 141.617 79.065 141.417zM164.925 141.617C164.525 141.227 164.525 140.597 164.904 140.207 165.295 139.807 165.925 139.797 166.324 140.187 166.715 140.577 166.725 141.207 166.335 141.607 166.145 141.807 165.885 141.907 165.625 141.907 165.375 141.907 165.114 141.807 164.925 141.617zM81.984 144.227C81.574 143.857 81.534 143.227 81.915 142.817 82.274 142.407 82.915 142.377 83.324 142.747 83.734 143.117 83.765 143.747 83.395 144.157 83.194 144.377 82.925 144.487 82.654 144.487 82.415 144.487 82.175 144.407 81.984 144.227zM161.995 144.327C161.625 143.917 161.665 143.277 162.074 142.917 162.484 142.547 163.114 142.577 163.484 142.987 163.855 143.407 163.815 144.037 163.404 144.407 163.215 144.577 162.975 144.657 162.745 144.657 162.465 144.657 162.194 144.547 161.995 144.327zM85.074 146.847C84.645 146.497 84.574 145.877 84.915 145.437 85.255 145.007 85.885 144.927 86.315 145.277 86.755 145.617 86.824 146.247 86.484 146.677 86.284 146.927 85.995 147.057 85.694 147.057 85.484 147.057 85.265 146.987 85.074 146.847zM158.895 146.837C158.555 146.397 158.635 145.767 159.065 145.427 159.505 145.087 160.125 145.167 160.475 145.597 160.805 146.037 160.734 146.667 160.295 147.007 160.114 147.147 159.895 147.217 159.685 147.217 159.385 147.217 159.095 147.087 158.895 146.837zM88.345 149.247C87.885 148.937 87.774 148.317 88.085 147.857 88.395 147.407 89.024 147.287 89.475 147.607 89.475 147.607 89.475 147.607 89.475 147.597 89.925 147.917 90.045 148.537 89.734 148.997 89.534 149.277 89.225 149.427 88.904 149.427 88.715 149.427 88.515 149.367 88.345 149.247zM155.635 149.127C155.324 148.677 155.444 148.057 155.895 147.747 156.355 147.427 156.975 147.547 157.284 148.007 157.605 148.467 157.484 149.087 157.025 149.397 156.855 149.517 156.654 149.567 156.465 149.567 156.145 149.567 155.824 149.417 155.635 149.127zM91.755 151.437C91.274 151.147 91.125 150.537 91.404 150.067 91.685 149.587 92.305 149.437 92.774 149.717 93.255 149.997 93.404 150.607 93.125 151.087 92.935 151.397 92.605 151.577 92.265 151.577 92.095 151.577 91.915 151.527 91.755 151.437zM152.225 151.207C151.944 150.737 152.105 150.117 152.585 149.837 153.065 149.557 153.675 149.717 153.955 150.197 154.234 150.677 154.074 151.287 153.595 151.567 153.444 151.657 153.265 151.707 153.095 151.707 152.755 151.707 152.415 151.527 152.225 151.207zM95.305 153.387C94.805 153.137 94.614 152.537 94.864 152.047 95.114 151.547 95.715 151.357 96.205 151.607 96.705 151.857 96.895 152.457 96.645 152.947 96.475 153.297 96.114 153.497 95.755 153.497 95.605 153.497 95.444 153.467 95.305 153.387zM148.694 153.057C148.444 152.557 148.645 151.957 149.135 151.717 149.635 151.467 150.234 151.667 150.484 152.157 150.725 152.657 150.525 153.257 150.034 153.497 149.895 153.577 149.734 153.607 149.585 153.607 149.225 153.607 148.864 153.407 148.694 153.057zM98.975 155.097C98.465 154.887 98.225 154.297 98.444 153.787 98.665 153.277 99.245 153.047 99.755 153.257 100.265 153.477 100.505 154.067 100.284 154.577 100.125 154.957 99.755 155.177 99.364 155.177 99.234 155.177 99.105 155.157 98.975 155.097zM145.045 154.657C144.824 154.157 145.065 153.567 145.574 153.357 146.085 153.137 146.675 153.377 146.885 153.887 147.095 154.397 146.864 154.987 146.355 155.197 146.225 155.247 146.095 155.277 145.965 155.277 145.574 155.277 145.205 155.047 145.045 154.657zM102.745 156.567C102.225 156.377 101.955 155.807 102.135 155.287 102.315 154.767 102.885 154.497 103.404 154.677 103.925 154.857 104.205 155.427 104.025 155.947 103.875 156.357 103.495 156.617 103.074 156.617 102.965 156.617 102.855 156.597 102.745 156.567zM141.284 156.017C141.114 155.497 141.385 154.927 141.915 154.747 142.435 154.567 143.005 154.847 143.185 155.367 143.364 155.897 143.085 156.467 142.565 156.647 142.455 156.677 142.345 156.697 142.234 156.697 141.824 156.697 141.435 156.437 141.284 156.017zM106.614 157.777C106.085 157.627 105.775 157.077 105.915 156.547 106.065 156.007 106.614 155.697 107.154 155.847 107.685 155.987 107.995 156.547 107.845 157.077 107.725 157.517 107.324 157.807 106.885 157.807 106.795 157.807 106.705 157.797 106.614 157.777zM137.455 157.127C137.315 156.587 137.625 156.047 138.165 155.897 138.694 155.757 139.245 156.067 139.385 156.607 139.525 157.137 139.215 157.687 138.685 157.827 138.595 157.857 138.505 157.867 138.425 157.867 137.984 157.867 137.574 157.567 137.455 157.127zM110.565 158.717C110.015 158.607 109.665 158.077 109.784 157.537 109.895 156.997 110.425 156.647 110.965 156.757 111.505 156.867 111.855 157.397 111.745 157.937 111.645 158.407 111.225 158.737 110.765 158.737 110.694 158.737 110.625 158.727 110.565 158.717zM133.555 157.967C133.444 157.427 133.805 156.897 134.345 156.797 134.885 156.687 135.415 157.037 135.515 157.577 135.625 158.117 135.275 158.647 134.734 158.757 134.665 158.767 134.605 158.777 134.534 158.777 134.065 158.777 133.654 158.447 133.555 157.967zM114.555 159.387L114.565 159.387C114.015 159.317 113.625 158.817 113.705 158.267 113.775 157.717 114.275 157.337 114.824 157.407 115.375 157.487 115.755 157.987 115.685 158.537 115.614 159.037 115.185 159.397 114.694 159.397 114.654 159.397 114.605 159.397 114.555 159.387zM129.614 158.557C129.534 158.007 129.925 157.507 130.475 157.437 130.475 157.437 130.475 157.437 130.475 157.427 131.015 157.357 131.525 157.747 131.595 158.297 131.665 158.847 131.275 159.347 130.734 159.417 130.685 159.417 130.645 159.427 130.605 159.427 130.105 159.427 129.675 159.057 129.614 158.557zM118.595 159.797C118.045 159.757 117.625 159.287 117.665 158.737 117.694 158.187 118.175 157.767 118.725 157.807 119.275 157.837 119.694 158.317 119.654 158.867 119.625 159.397 119.185 159.797 118.654 159.797 118.635 159.797 118.614 159.797 118.595 159.797zM125.635 158.877C125.595 158.327 126.015 157.847 126.565 157.817 127.114 157.777 127.595 158.197 127.625 158.747 127.665 159.297 127.245 159.777 126.694 159.807 126.675 159.807 126.654 159.807 126.625 159.807 126.105 159.807 125.665 159.407 125.635 158.877zM122.645 159.937C122.095 159.937 121.645 159.487 121.645 158.937 121.645 158.377 122.095 157.937 122.645 157.937 123.194 157.937 123.645 158.387 123.645 158.937 123.645 159.487 123.194 159.937 122.645 159.937zM181.835 110.397C181.574 110.397 181.315 110.287 181.125 110.097 180.944 109.917 180.835 109.657 180.835 109.397 180.835 109.127 180.944 108.877 181.125 108.687 181.495 108.317 182.175 108.317 182.545 108.687 182.635 108.777 182.705 108.887 182.755 109.007 182.805 109.137 182.835 109.267 182.835 109.397 182.835 109.657 182.725 109.917 182.545 110.097 182.355 110.287 182.095 110.397 181.835 110.397M210.095 70.122L210.105 70.122 210.095 70.122zM186.025 31.074C181.631 31.074 177.22 32.16 173.256 34.441 166.878 38.111 162.42 44.051 160.702 51.165 159.013 58.163 160.224 65.324 164.112 71.329 167.569 76.669 172.503 80.412 178.38 82.155 178.805 82.281 179.096 82.671 179.096 83.114L179.096 84.263C179.096 85.492 178.995 87.084 178.207 88.504 177.642 89.525 177.038 90.306 176.33 90.926 180.85 90.386 184.922 87.721 187.222 83.702 187.389 83.411 187.69 83.223 188.024 83.201 192.445 82.907 196.75 81.477 200.472 79.066L201.978 77.999C204.829 75.847 207.196 73.163 208.989 70.04L209.222 69.635C213.872 61.084 213.415 50.741 208.028 42.639 203.083 35.202 194.591 31.074 186.025 31.074zM174.63 93.027L170.752 93.027C170.199 93.027 169.752 92.579 169.752 92.027 169.752 91.475 170.199 91.027 170.752 91.027 172.207 91.027 173.558 90.555 174.767 89.623 175.411 89.127 175.933 88.483 176.458 87.534 176.905 86.729 177.096 85.75 177.096 84.263L177.096 83.85C171.07 81.885 166.013 77.944 162.433 72.416 158.243 65.946 156.939 58.232 158.758 50.696 160.607 43.043 165.4 36.655 172.258 32.707 185.058 25.34 201.503 29.214 209.694 41.531 215.495 50.256 215.984 61.395 210.973 70.6 210.97 70.606 210.966 70.612 210.963 70.619L210.725 71.035C208.795 74.395 206.25 77.28 203.158 79.613L201.594 80.722C197.701 83.244 193.26 84.764 188.684 85.156 185.684 90.024 180.348 93.027 174.63 93.027z"/>
    <path fill="#48515A" d="M202.096 54.027L170.096 54.027C169.543 54.027 169.096 53.579 169.096 53.027 169.096 52.474 169.543 52.027 170.096 52.027L202.096 52.027C202.649 52.027 203.096 52.474 203.096 53.027 203.096 53.579 202.649 54.027 202.096 54.027M202.096 58.027L170.096 58.027C169.543 58.027 169.096 57.579 169.096 57.027 169.096 56.475 169.543 56.027 170.096 56.027L202.096 56.027C202.649 56.027 203.096 56.475 203.096 57.027 203.096 57.579 202.649 58.027 202.096 58.027M197.096 62.027L170.096 62.027C169.543 62.027 169.096 61.579 169.096 61.027 169.096 60.474 169.543 60.027 170.096 60.027L197.096 60.027C197.649 60.027 198.096 60.474 198.096 61.027 198.096 61.579 197.649 62.027 197.096 62.027"/>
    <path fill="#FFD15D" d="M80.534,170.676 C80.534,159.369 71.369,150.203 60.062,150.203 C48.756,150.203 39.59,159.369 39.59,170.676 C39.59,181.982 48.756,191.148 60.062,191.148 C71.369,191.148 80.534,181.982 80.534,170.676"/>
    <path fill="#48515A" d="M40.315,181.478 L40.516,181.826 C42.049,184.497 44.074,186.793 46.534,188.65 L47.835,189.57 C50.983,191.607 54.665,192.83 58.449,193.082 C58.783,193.104 59.084,193.292 59.251,193.583 C61.11,196.83 64.328,199.038 67.941,199.645 C67.39,199.112 66.919,198.505 66.56,197.857 C65.912,196.689 65.57,195.404 65.57,194.139 L65.57,193.149 C65.57,192.71 65.857,192.322 66.277,192.193 C71.442,190.611 75.854,187.322 78.696,182.931 C82.071,177.719 83.128,171.527 81.671,165.496 C80.22,159.485 76.459,154.471 71.082,151.375 C61.082,145.619 47.736,148.762 41.338,158.388 C36.73,165.317 36.339,174.164 40.315,181.478 Z M73.307,201.814 L69.969,201.814 C65.021,201.814 60.403,199.23 57.79,195.037 C53.852,194.688 50.033,193.375 46.714,191.226 L45.355,190.265 C42.653,188.227 40.45,185.728 38.781,182.823 L38.575,182.465 C38.571,182.458 38.568,182.451 38.565,182.444 C34.226,174.475 34.65,164.833 39.672,157.28 C46.762,146.618 60.997,143.264 72.08,149.642 C77.938,153.014 82.034,158.477 83.615,165.026 C85.202,171.596 84.052,178.341 80.376,184.018 C77.407,188.602 72.88,192.081 67.57,193.878 L67.57,194.139 C67.57,195.065 67.826,196.016 68.31,196.887 C68.675,197.547 69.202,198.153 69.832,198.639 C70.816,199.397 72.051,199.814 73.307,199.814 C73.859,199.814 74.307,200.262 74.307,200.814 C74.307,201.367 73.859,201.814 73.307,201.814 Z"/>
  </g>
</svg>
