<svg xmlns="http://www.w3.org/2000/svg" width="250" height="250" viewBox="0 0 250 250">
  <g fill="none" fill-rule="evenodd">
    <path fill="#FFF" d="M153.741,146.195 C159.445,139.546 162.891,130.937 162.891,121.49 C162.891,100.494 145.87,83.439 124.874,83.439 C103.877,83.439 86.856,100.494 86.856,121.49 C86.856,142.396 103.877,159.507 124.874,159.507 C133.457,159.507 141.376,156.629 147.739,151.831"/>
    <path fill="#475059" d="M124.874,160.507 C103.359,160.507 85.856,143.004 85.856,121.49 C85.856,99.957 103.359,82.439 124.874,82.439 C146.388,82.439 163.891,99.957 163.891,121.49 C163.891,130.781 160.556,139.786 154.5,146.846 L152.982,145.544 C158.727,138.846 161.891,130.304 161.891,121.49 C161.891,101.06 145.285,84.439 124.874,84.439 C104.463,84.439 87.856,101.06 87.856,121.49 C87.856,141.901 104.463,158.507 124.874,158.507 C132.953,158.507 140.651,155.922 147.138,151.032 L148.341,152.629 C141.506,157.783 133.391,160.507 124.874,160.507"/>
    <path fill="#FFF" d="M133.034,92.566 C130.439,91.835 127.702,91.443 124.874,91.443 C108.298,91.443 94.861,104.914 94.861,121.49 C94.861,138.066 108.298,151.469 124.874,151.469 C141.449,151.469 154.886,138.032 154.886,121.456 C154.886,110.07 148.546,100.165 139.203,95.079"/>
    <path fill="#475059" d="M124.874,152.469 C107.773,152.469 93.86,138.572 93.86,121.49 C93.86,104.371 107.773,90.443 124.874,90.443 C127.738,90.443 130.575,90.833 133.305,91.604 L132.762,93.528 C130.209,92.809 127.555,92.443 124.874,92.443 C108.876,92.443 95.86,105.474 95.86,121.49 C95.86,137.469 108.876,150.469 124.874,150.469 C140.872,150.469 153.887,137.454 153.887,121.456 C153.887,110.819 148.077,101.048 138.725,95.957 L139.682,94.2 C149.677,99.642 155.887,110.086 155.887,121.456 C155.887,138.557 141.975,152.469 124.874,152.469"/>
    <path fill="#FFF" d="M133.38,141.761 C141.311,138.434 146.882,130.596 146.882,121.456 C146.882,109.301 137.029,99.448 124.874,99.448 C112.719,99.448 102.865,109.301 102.865,121.456 C102.865,133.611 112.719,143.465 124.874,143.465"/>
    <path fill="#475059" d="M124.874,144.465 C112.187,144.465 101.865,134.143 101.865,121.456 C101.865,108.769 112.187,98.448 124.874,98.448 C137.561,98.448 147.882,108.769 147.882,121.456 C147.882,130.754 142.342,139.086 133.767,142.683 L132.993,140.838 C140.822,137.554 145.882,129.946 145.882,121.456 C145.882,109.872 136.458,100.448 124.874,100.448 C113.29,100.448 103.865,109.872 103.865,121.456 C103.865,133.041 113.29,142.465 124.874,142.465 L124.874,144.465"/>
    <path fill="#FFF" d="M111.455,125.475 C113.182,131.251 118.536,135.46 124.874,135.46 C132.608,135.46 138.878,129.19 138.878,121.456 C138.878,113.722 132.608,107.452 124.874,107.452 C118.477,107.452 113.082,111.74 111.407,117.599"/>
    <path fill="#475059" d="M124.874,136.46 C118.293,136.46 112.38,132.061 110.496,125.762 L112.412,125.188 C114.045,130.647 119.17,134.46 124.874,134.46 C132.044,134.46 137.878,128.626 137.878,121.456 C137.878,114.286 132.044,108.452 124.874,108.452 C119.097,108.452 113.955,112.326 112.369,117.874 L110.445,117.324 C112.275,110.922 118.209,106.452 124.874,106.452 C133.147,106.452 139.878,113.183 139.878,121.456 C139.878,129.729 133.147,136.46 124.874,136.46"/>
    <path fill="#FFF" d="M129.116,117.214 C126.773,114.87 122.974,114.87 120.631,117.213 C118.288,119.557 118.288,123.356 120.631,125.699 C122.974,128.042 126.773,128.042 129.116,125.699"/>
    <path fill="#475059" d="M124.874,128.456 C123.004,128.456 121.246,127.728 119.924,126.406 C117.195,123.676 117.195,119.236 119.924,116.506 C122.652,113.777 127.095,113.776 129.823,116.506 L128.409,117.92 C126.46,115.97 123.287,115.972 121.338,117.92 C119.389,119.87 119.389,123.042 121.338,124.992 C122.282,125.936 123.538,126.456 124.874,126.456 C126.209,126.456 127.465,125.936 128.409,124.992 L129.823,126.406 C128.501,127.728 126.744,128.456 124.874,128.456"/>
    <path fill="#FFF" d="M119.637,108.469 L122.89,115.802"/>
    <polyline fill="#475059" points="121.976 116.207 118.723 108.874 120.551 108.063 123.804 115.396 121.976 116.207"/>
    <path fill="#FFF" d="M140.935,106.413 L134.675,112.166"/>
    <polyline fill="#475059" points="135.353 112.902 133.999 111.429 140.259 105.676 141.612 107.149 135.353 112.902"/>
    <path fill="#FFF" d="M147.739,121.456 L154.886,121.456"/>
    <polygon fill="#475059" points="147.739 122.456 154.887 122.456 154.887 120.456 147.739 120.456"/>
    <path fill="#FFF" d="M89.521,143.499 L96.884,140.35"/>
    <polyline fill="#475059" points="89.914 144.418 89.127 142.58 96.49 139.431 97.277 141.27 89.914 144.418"/>
    <path fill="#48515A" d="M191.075,60.435 L189.075,60.435 L189.075,56.44 C189.075,53.132 186.384,50.44 183.075,50.44 L183.075,48.44 C187.486,48.44 191.075,52.029 191.075,56.44 L191.075,60.435"/>
    <polygon fill="#48515A" points="92.457 68.435 197.075 68.435 197.075 66.435 92.457 66.435"/>
    <polygon fill="#48515A" points="78.457 50.44 183.075 50.44 183.075 48.44 78.457 48.44"/>
    <path fill="#FFD15D" d="M187.075,56.44 L187.075,57.435 L96.457,57.435 L96.457,60.435 C96.457,62.64 94.663,64.435 92.457,64.435 C90.252,64.435 88.457,62.64 88.457,60.435 L88.457,56.44 C88.457,55.019 88.159,53.666 87.622,52.44 L183.075,52.44 C185.281,52.44 187.075,54.235 187.075,56.44"/>
    <path fill="#48515A" d="M177.457,190.436 C176.904,190.436 176.457,189.988 176.457,189.436 L176.457,182.443 L176.576,66.435 L197.075,66.435 C200.043,66.435 202.515,64.269 202.992,61.435 L100.395,61.435 C99.901,65.376 96.529,68.435 92.457,68.435 C88.046,68.435 84.457,64.846 84.457,60.435 L84.457,56.44 C84.457,53.132 81.766,50.44 78.457,50.44 C75.148,50.44 72.457,53.132 72.457,56.44 L72.457,59.436 L72.508,189.436 C72.508,189.988 72.061,190.436 71.508,190.436 C70.955,190.436 70.508,189.988 70.508,189.436 L70.508,175.438 L70.457,56.44 C70.457,52.029 74.046,48.44 78.457,48.44 C82.868,48.44 86.457,52.029 86.457,56.44 L86.457,60.435 C86.457,63.743 89.148,66.435 92.457,66.435 C95.766,66.435 98.457,63.743 98.457,60.435 L98.457,59.435 L205.075,59.435 L205.075,60.435 C205.075,64.846 201.486,68.435 197.075,68.435 L178.574,68.435 L178.457,189.436 C178.457,189.988 178.01,190.436 177.457,190.436"/>
    <polygon fill="#48515A" points="35.447 141.428 37.447 141.428 37.447 137.428 35.447 137.428"/>
    <polygon fill="#48515A" points="35.447 151.428 37.447 151.428 37.447 147.428 35.447 147.428"/>
    <polygon fill="#48515A" points="39.447 145.428 43.447 145.428 43.447 143.428 39.447 143.428"/>
    <polygon fill="#48515A" points="29.447 145.428 33.447 145.428 33.447 143.428 29.447 143.428"/>
    <polygon fill="#48515A" points="212.553 101.404 214.553 101.404 214.553 97.404 212.553 97.404"/>
    <polygon fill="#48515A" points="212.553 111.404 214.553 111.404 214.553 107.404 212.553 107.404"/>
    <polygon fill="#48515A" points="216.553 105.404 220.553 105.404 220.553 103.404 216.553 103.404"/>
    <polygon fill="#48515A" points="206.553 105.404 210.553 105.404 210.553 103.404 206.553 103.404"/>
    <path fill="#DEDEDD" d="M201.963,129.946 C201.963,131.603 200.62,132.946 198.963,132.946 C197.306,132.946 195.963,131.603 195.963,129.946 C195.963,128.289 197.306,126.946 198.963,126.946 C200.62,126.946 201.963,128.289 201.963,129.946"/>
    <path fill="#F58E70" d="M55.957,129.94 C55.957,131.045 55.062,131.94 53.957,131.94 C52.853,131.94 51.957,131.045 51.957,129.94 C51.957,128.836 52.853,127.94 53.957,127.94 C55.062,127.94 55.957,128.836 55.957,129.94"/>
    <polyline fill="#DEDEDD" points="61.963 195.583 61.963 200.278 191.679 200.278 189.179 198.083 191.679 195.583 61.963 195.583"/>
    <polyline fill="#F58E70" points="195.762 198.626 201.398 195.799 195.77 192.828 195.762 198.626"/>
    <path fill="#48515A" d="M52.63,191.787 C50.486,191.787 48.743,193.53 48.743,195.673 C48.743,197.816 50.486,199.56 52.63,199.56 L191.668,199.56 L199.212,195.776 L191.656,191.787 L52.63,191.787 Z M192.141,201.56 L52.63,201.56 C49.384,201.56 46.743,198.919 46.743,195.673 C46.743,192.428 49.384,189.787 52.63,189.787 L192.152,189.787 L203.583,195.822 L192.141,201.56 Z"/>
    <polygon fill="#48515A" points="56.228 200.56 58.228 200.56 58.228 190.787 56.228 190.787"/>
    <polygon fill="#48515A" points="61.574 200.56 63.574 200.56 63.574 190.787 61.574 190.787"/>
    <polyline fill="#48515A" points="190.972 201.291 187.765 198.083 190.265 195.583 187.765 193.083 190.972 189.876 192.386 191.291 190.593 193.083 193.093 195.583 190.593 198.083 192.386 199.876 190.972 201.291"/>
    <path fill="#F58E70" d="M154.309,153.35 L146.956,145.998 L147.695,145.292 C154.271,139.003 157.892,130.533 157.892,121.438 C157.892,108.486 150.377,96.819 138.662,91.439 L135.542,98.791 L134.622,98.402 C131.541,97.099 128.267,96.438 124.892,96.438 C111.106,96.438 99.892,107.653 99.892,121.438 C99.892,135.224 111.106,146.438 124.892,146.438 C126.606,146.438 128.313,146.265 129.979,145.92 L127.915,140.198 C126.902,140.359 125.896,140.438 124.892,140.438 C114.415,140.438 105.892,131.915 105.892,121.438 L105.892,120.438 L115.892,120.438 L115.892,121.438 C115.892,126.401 119.929,130.438 124.892,130.438 C129.517,130.438 133.337,126.932 133.836,122.438 L124.892,122.438 L124.892,120.438 L135.892,120.438 L135.892,121.438 C135.892,127.504 130.957,132.438 124.892,132.438 C119.163,132.438 114.443,128.037 113.937,122.438 L107.921,122.438 C108.44,131.349 115.854,138.438 124.892,138.438 C126.045,138.438 127.197,138.322 128.318,138.093 L129.166,137.919 L129.509,138.723 L132.616,147.34 L131.548,147.611 C129.383,148.16 127.144,148.438 124.892,148.438 C110.004,148.438 97.892,136.326 97.892,121.438 C97.892,106.551 110.004,94.439 124.892,94.439 C128.199,94.439 131.418,95.027 134.475,96.188 L137.607,88.805 L138.527,89.194 C151.506,94.69 159.892,107.347 159.892,121.438 C159.892,130.742 156.318,139.431 149.807,146.02 L155.723,151.936 L154.309,153.35"/>
    <path fill="#475059" d="M199.869,159.066 C194.906,159.066 190.869,163.104 190.869,168.066 C190.869,173.029 194.906,177.066 199.869,177.066 C204.832,177.066 208.869,173.029 208.869,168.066 C208.869,163.104 204.832,159.066 199.869,159.066 Z M199.869,179.066 C193.804,179.066 188.869,174.132 188.869,168.066 C188.869,162.001 193.804,157.066 199.869,157.066 C205.935,157.066 210.869,162.001 210.869,168.066 C210.869,174.132 205.935,179.066 199.869,179.066 Z M199.869,153.066 C191.598,153.066 184.869,159.795 184.869,168.066 C184.869,176.337 191.598,183.066 199.869,183.066 C208.141,183.066 214.869,176.337 214.869,168.066 C214.869,159.795 208.141,153.066 199.869,153.066 Z M199.869,185.066 C190.495,185.066 182.869,177.44 182.869,168.066 C182.869,158.692 190.495,151.066 199.869,151.066 C209.243,151.066 216.869,158.692 216.869,168.066 C216.869,177.44 209.243,185.066 199.869,185.066 Z"/>
    <path fill="#475059" d="M199.869,165.066 C198.215,165.066 196.869,166.412 196.869,168.066 C196.869,169.721 198.215,171.066 199.869,171.066 C201.523,171.066 202.869,169.721 202.869,168.066 C202.869,166.412 201.523,165.066 199.869,165.066 Z M199.869,173.066 C197.112,173.066 194.869,170.823 194.869,168.066 C194.869,165.31 197.112,163.066 199.869,163.066 C202.626,163.066 204.869,165.31 204.869,168.066 C204.869,170.823 202.626,173.066 199.869,173.066 Z"/>
    <path fill="#F58E70" d="M199.869,164.066 C197.66,164.066 195.869,165.857 195.869,168.066 C195.869,170.276 197.66,172.066 199.869,172.066 C202.078,172.066 203.869,170.276 203.869,168.066 C203.869,165.857 202.078,164.066 199.869,164.066"/>
    <path fill="#F58E70" d="M199.869,165.066 C198.215,165.066 196.869,166.412 196.869,168.066 C196.869,169.721 198.215,171.066 199.869,171.066 C201.523,171.066 202.869,169.721 202.869,168.066 C202.869,166.412 201.523,165.066 199.869,165.066 Z M199.869,173.066 C197.112,173.066 194.869,170.823 194.869,168.066 C194.869,165.31 197.112,163.066 199.869,163.066 C202.626,163.066 204.869,165.31 204.869,168.066 C204.869,170.823 202.626,173.066 199.869,173.066 Z"/>
    <polygon fill="#475059" points="172.91 169.485 199.91 169.485 199.91 167.485 172.91 167.485"/>
    <path fill="#475059" d="M166.284,171.485 L169.456,171.485 L172.456,168.485 L169.456,165.485 L166.284,165.485 L169.284,168.485 L166.284,171.485 Z M170.284,173.485 L161.456,173.485 L166.456,168.485 L161.456,163.485 L170.284,163.485 L175.284,168.485 L170.284,173.485 Z"/>
    <polygon fill="#48515A" points="113.391 175.193 135.391 175.193 135.391 173.193 113.391 173.193"/>
    <polygon fill="#48515A" points="113.391 179.474 135.391 179.474 135.391 177.474 113.391 177.474"/>
    <path fill="#F58E70" d="M56.806,67.421 C44.123,67.421 33.806,77.739 33.806,90.421 C33.806,103.103 44.123,113.421 56.806,113.421 C69.488,113.421 79.806,103.103 79.806,90.421 C79.806,77.739 69.488,67.421 56.806,67.421 Z M56.806,115.421 C43.021,115.421 31.806,104.206 31.806,90.421 C31.806,76.636 43.021,65.421 56.806,65.421 C70.591,65.421 81.806,76.636 81.806,90.421 C81.806,104.206 70.591,115.421 56.806,115.421 Z"/>
    <path fill="#48515A" d="M76.837,91.432 L72.837,91.432 C72.284,91.432 71.837,90.984 71.837,90.432 C71.837,89.879 72.284,89.432 72.837,89.432 L76.837,89.432 C77.39,89.432 77.837,89.879 77.837,90.432 C77.837,90.984 77.39,91.432 76.837,91.432"/>
    <path fill="#48515A" d="M76.837 91.432L72.837 91.432C72.284 91.432 71.837 90.984 71.837 90.432 71.837 89.879 72.284 89.432 72.837 89.432L76.837 89.432C77.39 89.432 77.837 89.879 77.837 90.432 77.837 90.984 77.39 91.432 76.837 91.432M66.923 108.905C66.577 108.905 66.241 108.726 66.056 108.405L64.277 105.326C64.001 104.848 64.165 104.236 64.644 103.96 65.12 103.683 65.732 103.847 66.01 104.326L67.788 107.405C68.064 107.883 67.9 108.495 67.422 108.771 67.265 108.862 67.093 108.905 66.923 108.905M70.942 82.977C70.597 82.977 70.261 82.797 70.075 82.477 69.799 81.999 69.963 81.387 70.441 81.11L73.521 79.332C73.997 79.057 74.609 79.22 74.887 79.699 75.163 80.177 74.999 80.789 74.521 81.065L71.441 82.843C71.284 82.934 71.112 82.977 70.942 82.977M74.352 101.23C74.183 101.23 74.011 101.187 73.854 101.096L70.774 99.318C70.296 99.042 70.132 98.43 70.408 97.952 70.685 97.474 71.296 97.31 71.774 97.586L74.854 99.364C75.332 99.64 75.496 100.252 75.22 100.73 75.034 101.051 74.698 101.23 74.352 101.23M64.87 76.765C64.7 76.765 64.528 76.722 64.371 76.631 63.893 76.355 63.728 75.744 64.005 75.265L65.782 72.186C66.059 71.707 66.67 71.544 67.148 71.82 67.627 72.096 67.791 72.707 67.515 73.186L65.737 76.265C65.552 76.586 65.216 76.765 64.87 76.765"/>
    <polyline fill="#48515A" points="57.837 102.432 55.837 102.432 55.837 88.432 65.837 88.432 65.837 90.432 57.837 90.432 57.837 102.432"/>
    <path fill="#48515A" d="M56.837 74.432C56.284 74.432 55.837 73.984 55.837 73.432L55.837 70.432C55.837 69.879 56.284 69.432 56.837 69.432 57.39 69.432 57.837 69.879 57.837 70.432L57.837 73.432C57.837 73.984 57.39 74.432 56.837 74.432M56.837 111.432C56.284 111.432 55.837 110.984 55.837 110.432L55.837 107.432C55.837 106.879 56.284 106.432 56.837 106.432 57.39 106.432 57.837 106.879 57.837 107.432L57.837 110.432C57.837 110.984 57.39 111.432 56.837 111.432M40.837 91.432L36.837 91.432C36.284 91.432 35.837 90.984 35.837 90.432 35.837 89.879 36.284 89.432 36.837 89.432L40.837 89.432C41.39 89.432 41.837 89.879 41.837 90.432 41.837 90.984 41.39 91.432 40.837 91.432"/>
    <path fill="#48515A" d="M56.837 74.432C56.284 74.432 55.837 73.984 55.837 73.432L55.837 70.432C55.837 69.879 56.284 69.432 56.837 69.432 57.39 69.432 57.837 69.879 57.837 70.432L57.837 73.432C57.837 73.984 57.39 74.432 56.837 74.432M56.837 111.432C56.284 111.432 55.837 110.984 55.837 110.432L55.837 107.432C55.837 106.879 56.284 106.432 56.837 106.432 57.39 106.432 57.837 106.879 57.837 107.432L57.837 110.432C57.837 110.984 57.39 111.432 56.837 111.432M40.837 91.432L36.837 91.432C36.284 91.432 35.837 90.984 35.837 90.432 35.837 89.879 36.284 89.432 36.837 89.432L40.837 89.432C41.39 89.432 41.837 89.879 41.837 90.432 41.837 90.984 41.39 91.432 40.837 91.432M46.641 108.905C46.471 108.905 46.299 108.862 46.142 108.771 45.663 108.495 45.499 107.883 45.775 107.405L47.553 104.326C47.829 103.847 48.441 103.683 48.919 103.959 49.397 104.236 49.561 104.847 49.285 105.326L47.508 108.405C47.322 108.726 46.986 108.905 46.641 108.905M42.62 82.977C42.45 82.977 42.278 82.934 42.121 82.843L39.042 81.065C38.563 80.789 38.399 80.177 38.676 79.699 38.952 79.22 39.564 79.057 40.042 79.332L43.121 81.11C43.6 81.387 43.764 81.999 43.487 82.477 43.302 82.797 42.966 82.977 42.62 82.977M39.211 101.23C38.865 101.23 38.529 101.051 38.344 100.73 38.067 100.252 38.231 99.64 38.71 99.364L41.789 97.586C42.266 97.31 42.879 97.474 43.155 97.952 43.432 98.43 43.268 99.042 42.789 99.318L39.71 101.096C39.553 101.187 39.381 101.23 39.211 101.23M48.693 76.765C48.348 76.765 48.012 76.586 47.826 76.265L46.048 73.186C45.771 72.708 45.936 72.096 46.414 71.82 46.89 71.542 47.503 71.707 47.78 72.186L49.559 75.265C49.835 75.743 49.671 76.355 49.192 76.631 49.035 76.722 48.863 76.765 48.693 76.765"/>
    <polygon fill="#48515A" points="113.391 171.19 135.391 171.19 135.391 169.19 113.391 169.19"/>
  </g>
</svg>
