<svg xmlns="http://www.w3.org/2000/svg" width="250" height="250" viewBox="0 0 250 250">
  <g fill="none" fill-rule="evenodd">
    <polygon fill="#5FE0ED" points="63.014 183.996 187.014 183.996 187.014 125.995 63.014 125.995"/>
    <polygon fill="#5FE0ED" points="63.034 128.996 187.034 128.996 187.034 66.994 63.034 66.994"/>
    <path fill="#48515A" d="M68.034,121.995 L182.034,121.995 L182.034,71.994 L68.034,71.994 L68.034,121.995 Z M66.034,123.995 L184.034,123.995 L184.034,69.994 L66.034,69.994 L66.034,123.995 Z"/>
    <path fill="#48515A" d="M130.859,110.159 L119.812,110.159 C116.86,110.159 114.459,107.743 114.459,104.772 L116.459,104.772 C116.459,106.64 117.963,108.159 119.812,108.159 L130.859,108.159 C133.056,108.159 134.844,106.358 134.844,104.144 L134.844,102.255 C134.844,100.058 133.056,98.27 130.859,98.27 L119.966,98.27 C116.666,98.27 113.981,95.586 113.981,92.286 L113.981,90.395 C113.981,87.095 116.666,84.411 119.966,84.411 L131.675,84.411 C134.163,84.411 136.187,86.435 136.187,88.923 L134.187,88.923 C134.187,87.538 133.06,86.411 131.675,86.411 L119.966,86.411 C117.769,86.411 115.981,88.198 115.981,90.395 L115.981,92.286 C115.981,94.483 117.769,96.27 119.966,96.27 L130.859,96.27 C134.159,96.27 136.844,98.955 136.844,102.255 L136.844,104.144 C136.844,107.46 134.159,110.159 130.859,110.159"/>
    <polygon fill="#48515A" points="125.014 114.995 127.014 114.995 127.014 78.995 125.014 78.995"/>
    <polygon fill="#48515A" points="145.034 93.995 159.034 93.995 159.034 91.995 145.034 91.995"/>
    <polygon fill="#48515A" points="145.034 97.995 159.034 97.995 159.034 95.995 145.034 95.995"/>
    <polygon fill="#48515A" points="145.034 101.995 159.034 101.995 159.034 99.995 145.034 99.995"/>
    <polygon fill="#48515A" points="95.034 93.995 109.034 93.995 109.034 91.995 95.034 91.995"/>
    <polygon fill="#48515A" points="95.034 97.995 109.034 97.995 109.034 95.995 95.034 95.995"/>
    <polygon fill="#48515A" points="95.034 101.995 109.034 101.995 109.034 99.995 95.034 99.995"/>
    <path fill="#48515A" d="M167.034 123.014L165.034 123.014C165.034 113.089 173.108 105.014 183.034 105.014L183.034 107.014C174.211 107.014 167.034 114.192 167.034 123.014M66.975 88.993L66.975 86.993C75.797 86.993 82.975 79.815 82.975 70.993L84.975 70.993C84.975 80.918 76.9 88.993 66.975 88.993M84.975 123.014L82.975 123.014C82.975 114.192 75.797 107.014 66.975 107.014L66.975 105.014C76.9 105.014 84.975 113.089 84.975 123.014"/>
    <polygon fill="#48515A" points="63.014 130.996 187.014 130.996 187.014 128.996 63.014 128.996"/>
    <polygon fill="#48515A" points="63.014 136.996 187.014 136.996 187.014 134.996 63.014 134.996"/>
    <polygon fill="#48515A" points="63.014 142.996 187.014 142.996 187.014 140.996 63.014 140.996"/>
    <polygon fill="#48515A" points="63.014 148.996 187.014 148.996 187.014 146.996 63.014 146.996"/>
    <polygon fill="#48515A" points="63.014 154.996 187.014 154.996 187.014 152.996 63.014 152.996"/>
    <polygon fill="#48515A" points="63.014 160.996 187.014 160.996 187.014 158.996 63.014 158.996"/>
    <polygon fill="#48515A" points="63.014 166.996 187.014 166.996 187.014 164.996 63.014 164.996"/>
    <polygon fill="#48515A" points="63.014 172.996 187.014 172.996 187.014 170.996 63.014 170.996"/>
    <polygon fill="#48515A" points="63.014 178.996 187.014 178.996 187.014 176.996 63.014 176.996"/>
    <polygon fill="#48515A" points="63.014 184.996 187.014 184.996 187.014 182.996 63.014 182.996"/>
    <path fill="#475059" d="M124.934 30.995C124.934 30.445 125.374 29.995 125.934 29.995 126.484 29.995 126.934 30.445 126.934 30.995 126.934 31.545 126.484 31.995 125.934 31.995 125.374 31.995 124.934 31.545 124.934 30.995zM129.884 32.075C129.334 32.045 128.904 31.585 128.934 31.035 128.954 30.485 129.414 30.055 129.974 30.075 130.524 30.095 130.954 30.565 130.934 31.115 130.904 31.655 130.464 32.075 129.934 32.075 129.914 32.075 129.904 32.075 129.884 32.075zM120.934 31.125C120.914 30.575 121.334 30.105 121.894 30.085 122.444 30.055 122.904 30.485 122.934 31.035 122.954 31.595 122.524 32.055 121.974 32.085 121.964 32.085 121.944 32.085 121.934 32.085 121.404 32.085 120.954 31.665 120.934 31.125zM133.844 32.315C133.294 32.275 132.884 31.785 132.924 31.235 132.974 30.685 133.454 30.275 134.004 30.325 134.554 30.375 134.964 30.855 134.924 31.405 134.874 31.925 134.434 32.325 133.924 32.325 133.894 32.325 133.864 32.325 133.844 32.315zM116.944 31.425C116.894 30.875 117.304 30.385 117.854 30.335 118.404 30.295 118.894 30.705 118.944 31.255 118.984 31.805 118.574 32.285 118.024 32.335 117.994 32.335 117.964 32.335 117.944 32.335 117.424 32.335 116.994 31.945 116.944 31.425zM137.774 32.735C137.224 32.665 136.844 32.165 136.914 31.615 136.974 31.065 137.474 30.675 138.024 30.745 138.574 30.815 138.964 31.315 138.894 31.865 138.834 32.365 138.394 32.735 137.904 32.735 137.864 32.735 137.814 32.735 137.774 32.735zM112.974 31.885C112.904 31.335 113.294 30.835 113.844 30.765 114.384 30.695 114.884 31.085 114.954 31.635 115.024 32.185 114.644 32.685 114.094 32.755 114.054 32.755 114.014 32.765 113.964 32.765 113.474 32.765 113.034 32.395 112.974 31.885zM141.694 33.305L141.694 33.315C141.144 33.215 140.784 32.705 140.874 32.155 140.964 31.615 141.484 31.245 142.024 31.335 142.574 31.435 142.934 31.945 142.844 32.495 142.764 32.975 142.334 33.325 141.864 33.325 141.804 33.325 141.744 33.315 141.694 33.305zM109.024 32.515C108.934 31.975 109.304 31.455 109.844 31.365 110.394 31.275 110.904 31.635 111.004 32.185 111.094 32.725 110.724 33.245 110.184 33.335 110.124 33.345 110.064 33.355 110.014 33.355 109.534 33.355 109.114 33.005 109.024 32.515zM145.574 34.055C145.034 33.945 144.694 33.415 144.814 32.865 144.924 32.325 145.454 31.985 145.994 32.095 146.534 32.215 146.884 32.745 146.764 33.285 146.664 33.755 146.254 34.075 145.794 34.075 145.724 34.075 145.654 34.075 145.574 34.055zM105.114 33.325C104.994 32.785 105.334 32.245 105.874 32.135 106.414 32.015 106.954 32.355 107.064 32.895 107.184 33.445 106.844 33.975 106.304 34.085 106.224 34.105 106.154 34.115 106.084 34.115 105.624 34.115 105.214 33.795 105.114 33.325zM149.434 34.965C148.894 34.825 148.574 34.285 148.714 33.745 148.854 33.215 149.394 32.895 149.934 33.035 150.464 33.175 150.784 33.715 150.654 34.255 150.534 34.705 150.124 35.005 149.684 35.005 149.594 35.005 149.514 34.995 149.434 34.965zM101.234 34.295C101.094 33.755 101.414 33.205 101.944 33.075 102.484 32.935 103.024 33.245 103.164 33.785 103.304 34.325 102.984 34.865 102.454 35.005 102.364 35.025 102.284 35.035 102.204 35.035 101.754 35.035 101.354 34.745 101.234 34.295zM153.234 36.045C152.714 35.885 152.414 35.325 152.574 34.795 152.734 34.265 153.294 33.965 153.824 34.135 154.354 34.295 154.644 34.855 154.484 35.375 154.354 35.805 153.954 36.085 153.534 36.085 153.434 36.085 153.334 36.075 153.234 36.045zM97.394 35.425C97.234 34.895 97.534 34.335 98.064 34.175 98.584 34.015 99.144 34.315 99.304 34.835 99.474 35.365 99.174 35.925 98.644 36.085 98.554 36.115 98.454 36.135 98.354 36.135 97.924 36.135 97.534 35.855 97.394 35.425zM156.994 37.285C156.474 37.095 156.204 36.525 156.384 36.005 156.574 35.485 157.144 35.215 157.664 35.395 158.184 35.575 158.454 36.155 158.274 36.675 158.124 37.085 157.744 37.335 157.324 37.335 157.214 37.335 157.104 37.315 156.994 37.285zM93.614 36.725C93.434 36.205 93.704 35.635 94.224 35.445 94.744 35.265 95.314 35.535 95.504 36.055 95.684 36.575 95.414 37.145 94.894 37.335 94.784 37.365 94.674 37.385 94.554 37.385 94.144 37.385 93.764 37.135 93.614 36.725zM160.694 38.675C160.184 38.475 159.934 37.885 160.144 37.375 160.354 36.865 160.934 36.615 161.444 36.825 161.954 37.025 162.204 37.615 162.004 38.125 161.844 38.515 161.464 38.755 161.074 38.755 160.944 38.755 160.824 38.725 160.694 38.675zM89.894 38.185C89.684 37.665 89.934 37.085 90.444 36.875 90.954 36.675 91.544 36.915 91.744 37.435 91.954 37.945 91.704 38.525 91.194 38.735 91.074 38.785 90.944 38.805 90.824 38.805 90.424 38.805 90.054 38.575 89.894 38.185zM164.334 40.235C163.834 40.005 163.614 39.415 163.844 38.905 164.064 38.405 164.664 38.185 165.164 38.415 165.664 38.635 165.884 39.235 165.664 39.735 165.494 40.105 165.134 40.325 164.754 40.325 164.614 40.325 164.474 40.295 164.334 40.235zM86.234 39.795C86.004 39.295 86.224 38.705 86.734 38.475 87.234 38.245 87.824 38.465 88.054 38.965 88.284 39.475 88.064 40.065 87.554 40.295 87.424 40.355 87.284 40.385 87.144 40.385 86.764 40.385 86.404 40.165 86.234 39.795zM167.904 41.945C167.414 41.695 167.214 41.095 167.464 40.595 167.714 40.105 168.314 39.905 168.814 40.155 169.304 40.405 169.504 41.005 169.254 41.505 169.074 41.845 168.724 42.045 168.354 42.045 168.204 42.045 168.054 42.015 167.904 41.945zM82.654 41.565C82.404 41.075 82.594 40.475 83.084 40.225 83.584 39.975 84.184 40.175 84.434 40.665 84.684 41.155 84.484 41.755 83.994 42.005 83.844 42.085 83.694 42.115 83.544 42.115 83.174 42.115 82.824 41.915 82.654 41.565zM171.404 43.805C170.914 43.535 170.744 42.925 171.014 42.445 171.284 41.955 171.894 41.785 172.374 42.055 172.854 42.325 173.034 42.935 172.764 43.415 172.574 43.745 172.234 43.925 171.884 43.925 171.724 43.925 171.554 43.885 171.404 43.805zM79.144 43.495C78.874 43.005 79.044 42.395 79.524 42.125 80.004 41.855 80.614 42.025 80.884 42.515 81.154 42.995 80.984 43.605 80.504 43.875 80.354 43.965 80.184 44.005 80.014 44.005 79.664 44.005 79.324 43.815 79.144 43.495zM174.814 45.805C174.344 45.515 174.194 44.905 174.484 44.435 174.774 43.965 175.394 43.815 175.864 44.105 176.334 44.395 176.474 45.015 176.184 45.485 175.994 45.785 175.674 45.955 175.334 45.955 175.154 45.955 174.974 45.905 174.814 45.805zM178.134 47.955C177.674 47.645 177.554 47.025 177.864 46.565 178.174 46.115 178.794 45.995 179.254 46.305 179.714 46.615 179.834 47.235 179.524 47.695 179.324 47.975 179.014 48.135 178.694 48.135 178.494 48.135 178.304 48.075 178.134 47.955zM181.364 50.245C180.914 49.925 180.824 49.295 181.154 48.845 181.484 48.405 182.104 48.315 182.554 48.645 182.994 48.975 183.084 49.595 182.764 50.045 182.564 50.305 182.264 50.445 181.954 50.445 181.744 50.445 181.534 50.385 181.364 50.245zM184.484 52.675C184.054 52.325 183.994 51.695 184.344 51.265 184.684 50.835 185.314 50.775 185.744 51.115 186.174 51.465 186.244 52.095 185.894 52.525 185.694 52.765 185.404 52.895 185.114 52.895 184.894 52.895 184.674 52.825 184.484 52.675zM187.514 55.225C187.094 54.865 187.054 54.225 187.424 53.815 187.784 53.405 188.414 53.365 188.834 53.725 189.244 54.095 189.284 54.725 188.924 55.135 188.724 55.365 188.444 55.475 188.174 55.475 187.934 55.475 187.704 55.395 187.514 55.225zM190.454 57.905C190.044 57.535 190.024 56.905 190.394 56.495 190.764 56.085 191.394 56.055 191.804 56.425 192.214 56.805 192.244 57.435 191.864 57.845 191.674 58.055 191.404 58.165 191.134 58.165 190.894 58.165 190.644 58.085 190.454 57.905zM182.612 201.303L181.419 199.698C204.96 182.209 219.015 154.283 219.015 124.995 219.015 100.48 209.559 77.346 192.389 59.854L193.817 58.452C211.356 76.321 221.015 99.953 221.015 124.995 221.015 154.913 206.659 183.439 182.612 201.303"/>
    <polyline fill="#475059" points="192.015 201.995 181.015 201.995 181.015 190.995 183.015 190.995 183.015 199.995 192.015 199.995 192.015 201.995"/>
    <path fill="#475059" d="M58.194 193.575C57.784 193.205 57.754 192.565 58.124 192.155 58.504 191.755 59.134 191.725 59.544 192.095 59.954 192.465 59.974 193.095 59.604 193.505 59.414 193.725 59.144 193.835 58.864 193.835 58.624 193.835 58.384 193.745 58.194 193.575zM61.164 196.275C60.754 195.905 60.714 195.275 61.074 194.865 61.444 194.445 62.074 194.405 62.494 194.775 62.904 195.135 62.944 195.775 62.574 196.185 62.384 196.405 62.104 196.525 61.824 196.525 61.594 196.525 61.354 196.445 61.164 196.275zM64.254 198.885C63.824 198.535 63.754 197.905 64.104 197.475 64.454 197.045 65.084 196.985 65.514 197.325 65.944 197.675 66.004 198.305 65.664 198.735 65.464 198.975 65.174 199.105 64.884 199.105 64.664 199.105 64.434 199.035 64.254 198.885zM67.444 201.355C67.004 201.035 66.914 200.405 67.244 199.965 67.574 199.515 68.194 199.425 68.644 199.755 69.084 200.085 69.174 200.705 68.844 201.155 68.654 201.415 68.354 201.555 68.044 201.555 67.834 201.555 67.624 201.495 67.444 201.355zM70.744 203.695C70.284 203.385 70.164 202.765 70.484 202.305 70.784 201.855 71.414 201.735 71.864 202.045 72.324 202.355 72.444 202.975 72.134 203.435 71.944 203.715 71.624 203.865 71.304 203.865 71.114 203.865 70.914 203.815 70.744 203.695zM74.134 205.895C73.664 205.605 73.524 204.985 73.814 204.515 74.104 204.045 74.724 203.905 75.194 204.195 75.654 204.485 75.804 205.095 75.514 205.565 75.324 205.875 74.994 206.045 74.664 206.045 74.484 206.045 74.304 205.995 74.134 205.895zM169.114 207.495C168.844 207.005 169.014 206.395 169.494 206.125 169.974 205.855 170.584 206.025 170.854 206.515 171.124 206.995 170.954 207.605 170.474 207.875 170.324 207.955 170.154 208.005 169.984 208.005 169.634 208.005 169.294 207.815 169.114 207.495zM77.624 207.945C77.144 207.675 76.974 207.065 77.234 206.585 77.504 206.105 78.114 205.925 78.604 206.195 79.084 206.465 79.254 207.075 78.984 207.565 78.804 207.885 78.464 208.075 78.114 208.075 77.944 208.075 77.774 208.035 77.624 207.945zM165.564 209.335C165.314 208.845 165.514 208.245 166.004 207.995 166.504 207.745 167.104 207.945 167.354 208.435 167.604 208.925 167.404 209.525 166.914 209.775 166.764 209.845 166.614 209.885 166.454 209.885 166.094 209.885 165.744 209.685 165.564 209.335zM81.194 209.845C80.694 209.595 80.504 208.995 80.754 208.505 80.994 208.005 81.604 207.805 82.094 208.055 82.584 208.305 82.784 208.915 82.534 209.405 82.354 209.755 82.004 209.955 81.644 209.955 81.494 209.955 81.334 209.915 81.194 209.845zM161.944 211.035C161.714 210.525 161.934 209.935 162.444 209.705 162.944 209.475 163.534 209.705 163.764 210.205 163.994 210.705 163.774 211.305 163.274 211.525 163.134 211.595 162.994 211.615 162.854 211.615 162.474 211.615 162.114 211.405 161.944 211.035zM84.834 211.585C84.334 211.365 84.114 210.765 84.334 210.265 84.564 209.765 85.154 209.545 85.664 209.765 86.164 209.995 86.384 210.585 86.164 211.095 85.994 211.465 85.634 211.675 85.254 211.675 85.114 211.675 84.974 211.655 84.834 211.585zM158.254 212.565C158.044 212.055 158.294 211.475 158.804 211.265 159.314 211.065 159.904 211.305 160.104 211.825 160.314 212.335 160.064 212.915 159.554 213.125 159.434 213.175 159.304 213.195 159.184 213.195 158.784 213.195 158.414 212.955 158.254 212.565zM88.554 213.175C88.044 212.975 87.794 212.385 88.004 211.875 88.204 211.365 88.784 211.115 89.304 211.325 89.814 211.525 90.064 212.115 89.854 212.625 89.694 213.015 89.324 213.255 88.924 213.255 88.804 213.255 88.674 213.225 88.554 213.175zM154.504 213.945C154.314 213.425 154.584 212.855 155.104 212.675 155.624 212.485 156.204 212.755 156.384 213.275 156.564 213.795 156.294 214.375 155.774 214.555 155.664 214.595 155.554 214.615 155.444 214.615 155.034 214.615 154.644 214.355 154.504 213.945zM92.334 214.605C91.814 214.425 91.544 213.855 91.724 213.335 91.914 212.815 92.484 212.535 93.004 212.725 93.524 212.905 93.794 213.475 93.614 213.995 93.464 214.405 93.084 214.665 92.674 214.665 92.564 214.665 92.444 214.645 92.334 214.605zM150.694 215.165C150.524 214.635 150.824 214.075 151.354 213.915 151.884 213.755 152.434 214.045 152.604 214.575 152.764 215.105 152.464 215.665 151.944 215.825 151.944 215.825 151.944 215.825 151.934 215.825 151.844 215.855 151.744 215.865 151.644 215.865 151.214 215.865 150.824 215.595 150.694 215.165zM96.174 215.875C95.644 215.705 95.354 215.155 95.514 214.625 95.674 214.095 96.234 213.795 96.764 213.955 97.294 214.115 97.584 214.675 97.424 215.205 97.294 215.635 96.894 215.915 96.474 215.915 96.374 215.915 96.274 215.905 96.174 215.875zM146.834 216.215C146.694 215.685 147.014 215.135 147.544 214.995 148.084 214.855 148.624 215.175 148.764 215.705 148.904 216.245 148.584 216.795 148.054 216.935 147.964 216.955 147.884 216.965 147.794 216.965 147.354 216.965 146.954 216.665 146.834 216.215zM100.064 216.975C99.534 216.835 99.214 216.285 99.354 215.755 99.484 215.215 100.034 214.895 100.574 215.035 101.104 215.175 101.424 215.715 101.284 216.255 101.174 216.705 100.764 217.005 100.314 217.005 100.234 217.005 100.154 216.995 100.064 216.975zM142.934 217.105C142.814 216.565 143.164 216.025 143.704 215.915 144.244 215.795 144.774 216.135 144.884 216.675 145.004 217.215 144.664 217.745 144.124 217.865 144.054 217.885 143.984 217.895 143.914 217.895 143.454 217.895 143.034 217.565 142.934 217.105zM104.004 217.895C103.464 217.785 103.114 217.255 103.234 216.715 103.344 216.175 103.884 215.825 104.424 215.945 104.964 216.065 105.304 216.595 105.194 217.135 105.094 217.605 104.674 217.925 104.214 217.925 104.144 217.925 104.074 217.915 104.004 217.895zM139.004 217.815C138.904 217.275 139.274 216.755 139.814 216.665 140.364 216.575 140.874 216.935 140.974 217.485 141.064 218.025 140.694 218.545 140.154 218.635 140.094 218.645 140.044 218.655 139.984 218.655 139.504 218.655 139.084 218.305 139.004 217.815zM107.974 218.665C107.424 218.565 107.064 218.055 107.154 217.505 107.244 216.965 107.764 216.595 108.304 216.695L108.304 216.685C108.854 216.785 109.224 217.295 109.124 217.845 109.044 218.335 108.624 218.675 108.144 218.675 108.084 218.675 108.034 218.675 107.974 218.665zM135.044 218.365C134.974 217.815 135.354 217.315 135.904 217.245 136.454 217.175 136.954 217.565 137.024 218.115 137.094 218.665 136.704 219.165 136.164 219.235 136.114 219.235 136.074 219.245 136.034 219.245 135.534 219.245 135.104 218.875 135.044 218.365zM111.974 219.255C111.424 219.185 111.034 218.685 111.104 218.135 111.174 217.585 111.674 217.195 112.224 217.265 112.774 217.335 113.164 217.835 113.094 218.385 113.024 218.895 112.594 219.265 112.094 219.265 112.054 219.265 112.014 219.255 111.974 219.255zM131.064 218.745C131.014 218.195 131.424 217.715 131.974 217.665 132.524 217.625 133.004 218.025 133.054 218.575 133.104 219.125 132.694 219.615 132.144 219.665 132.114 219.665 132.084 219.665 132.054 219.665 131.544 219.665 131.104 219.275 131.064 218.745zM115.994 219.675C115.444 219.625 115.034 219.145 115.084 218.595 115.124 218.045 115.614 217.635 116.164 217.685 116.714 217.725 117.124 218.215 117.074 218.765 117.034 219.285 116.594 219.675 116.074 219.675 116.054 219.675 116.024 219.675 115.994 219.675zM127.074 218.965C127.044 218.415 127.474 217.945 128.024 217.915 128.574 217.895 129.044 218.325 129.064 218.875 129.094 219.425 128.664 219.895 128.114 219.915 128.094 219.915 128.084 219.915 128.074 219.915 127.534 219.915 127.094 219.495 127.074 218.965zM120.034 219.925C119.474 219.905 119.054 219.435 119.074 218.885 119.094 218.335 119.564 217.905 120.114 217.925 120.664 217.945 121.094 218.415 121.074 218.965 121.044 219.505 120.604 219.925 120.074 219.925 120.054 219.925 120.044 219.925 120.034 219.925zM123.074 219.005C123.074 218.455 123.514 218.005 124.064 218.005 124.624 218.005 125.064 218.455 125.074 219.005 125.074 219.555 124.624 220.005 124.074 220.005 123.514 220.005 123.074 219.555 123.074 219.005zM56.183 191.549C38.644 173.68 28.985 150.047 28.985 125.006 28.985 95.088 43.341 66.562 67.388 48.698L68.581 50.303C45.04 67.792 30.985 95.718 30.985 125.006 30.985 149.52 40.44 172.655 57.61 190.147L56.183 191.549"/>
    <polyline fill="#475059" points="68.985 59.006 66.985 59.006 66.985 50.006 57.985 50.006 57.985 48.006 68.985 48.006 68.985 59.006"/>
    <polygon fill="#48515A" points="49.033 94.972 51.033 94.972 51.033 90.972 49.033 90.972"/>
    <polygon fill="#48515A" points="49.033 104.972 51.033 104.972 51.033 100.972 49.033 100.972"/>
    <polygon fill="#48515A" points="53.033 98.972 57.033 98.972 57.033 96.972 53.033 96.972"/>
    <polygon fill="#48515A" points="43.033 98.972 47.033 98.972 47.033 96.972 43.033 96.972"/>
    <polygon fill="#48515A" points="201.124 145.002 203.124 145.002 203.124 141.002 201.124 141.002"/>
    <polygon fill="#48515A" points="201.124 155.002 203.124 155.002 203.124 151.002 201.124 151.002"/>
    <polygon fill="#48515A" points="205.124 149.002 209.124 149.002 209.124 147.002 205.124 147.002"/>
    <polygon fill="#48515A" points="195.124 149.002 199.124 149.002 199.124 147.002 195.124 147.002"/>
    <path fill="#FFD15D" d="M170.981,58.996 C170.981,49.055 162.922,40.996 152.981,40.996 C143.039,40.996 134.981,49.055 134.981,58.996 C134.981,68.937 143.039,76.996 152.981,76.996 C162.922,76.996 170.981,68.937 170.981,58.996"/>
    <path fill="#475059" d="M155.474,65.969 L149.916,65.969 C148.157,65.969 146.726,64.53 146.726,62.762 C146.726,62.21 147.173,61.762 147.726,61.762 C148.278,61.762 148.726,62.21 148.726,62.762 C148.726,63.428 149.259,63.969 149.916,63.969 L155.474,63.969 C156.306,63.969 156.982,63.286 156.982,62.445 L156.982,61.495 C156.982,60.664 156.306,59.987 155.474,59.987 L149.993,59.987 C148.059,59.987 146.485,58.414 146.485,56.479 L146.485,55.528 C146.485,53.593 148.059,52.02 149.993,52.02 L155.885,52.02 C157.411,52.02 158.652,53.261 158.652,54.787 C158.652,55.339 158.204,55.787 157.652,55.787 C157.1,55.787 156.652,55.339 156.652,54.787 C156.652,54.364 156.308,54.02 155.885,54.02 L149.993,54.02 C149.162,54.02 148.485,54.696 148.485,55.528 L148.485,56.479 C148.485,57.311 149.162,57.987 149.993,57.987 L155.474,57.987 C157.409,57.987 158.982,59.561 158.982,61.495 L158.982,62.445 C158.982,64.388 157.409,65.969 155.474,65.969"/>
    <path fill="#475059" d="M153.014,68.995 C152.462,68.995 152.014,68.547 152.014,67.995 L152.014,49.995 C152.014,49.443 152.462,48.995 153.014,48.995 C153.566,48.995 154.014,49.443 154.014,49.995 L154.014,67.995 C154.014,68.547 153.566,68.995 153.014,68.995"/>
    <path fill="#FFD15D" d="M120.076 47.734C120.076 50.783 117.604 53.255 114.555 53.255 111.506 53.255 109.034 50.783 109.034 47.734 109.034 44.685 111.506 42.213 114.555 42.213 117.604 42.213 120.076 44.685 120.076 47.734M128.036 57.68C128.036 59.049 126.926 60.16 125.557 60.16 124.188 60.16 123.078 59.049 123.078 57.68 123.078 56.311 124.188 55.201 125.557 55.201 126.926 55.201 128.036 56.311 128.036 57.68"/>
  </g>
</svg>
