<svg xmlns="http://www.w3.org/2000/svg" width="250" height="250" viewBox="0 0 250 250">
  <g fill="none" fill-rule="evenodd">
    <path fill="#FFD15D" d="M167.994 185.011C167.994 187.773 165.756 190.011 162.994 190.011 160.233 190.011 157.994 187.773 157.994 185.011 157.994 182.25 160.233 180.011 162.994 180.011 165.756 180.011 167.994 182.25 167.994 185.011M207.961 189.012C207.961 179.071 199.903 171.012 189.961 171.012 180.02 171.012 171.961 179.071 171.961 189.012 171.961 198.953 180.02 207.012 189.961 207.012 199.903 207.012 207.961 198.953 207.961 189.012"/>
    <path fill="#475059" d="M192.455,195.986 L186.896,195.986 C185.138,195.986 183.706,194.547 183.706,192.778 C183.706,192.226 184.154,191.778 184.706,191.778 C185.259,191.778 185.706,192.226 185.706,192.778 C185.706,193.444 186.24,193.986 186.896,193.986 L192.455,193.986 C193.287,193.986 193.963,193.302 193.963,192.462 L193.963,191.511 C193.963,190.68 193.287,190.004 192.455,190.004 L186.974,190.004 C185.04,190.004 183.466,188.43 183.466,186.495 L183.466,185.544 C183.466,183.61 185.04,182.036 186.974,182.036 L192.866,182.036 C194.392,182.036 195.633,183.277 195.633,184.803 C195.633,185.355 195.185,185.803 194.633,185.803 C194.081,185.803 193.633,185.355 193.633,184.803 C193.633,184.38 193.289,184.036 192.866,184.036 L186.974,184.036 C186.143,184.036 185.466,184.713 185.466,185.544 L185.466,186.495 C185.466,187.327 186.143,188.004 186.974,188.004 L192.455,188.004 C194.39,188.004 195.963,189.577 195.963,191.511 L195.963,192.462 C195.963,194.404 194.39,195.986 192.455,195.986"/>
    <path fill="#475059" d="M189.995,199.011 C189.443,199.011 188.995,198.564 188.995,198.011 L188.995,180.011 C188.995,179.459 189.443,179.011 189.995,179.011 C190.547,179.011 190.995,179.459 190.995,180.011 L190.995,198.011 C190.995,198.564 190.547,199.011 189.995,199.011"/>
    <path fill="#FFD15D" d="M64.962,71.012 C64.962,61.071 56.903,53.012 46.962,53.012 C37.02,53.012 28.962,61.071 28.962,71.012 C28.962,80.953 37.02,89.012 46.962,89.012 C56.903,89.012 64.962,80.953 64.962,71.012"/>
    <path fill="#475059" d="M49.455,77.985 L43.896,77.985 C42.138,77.985 40.706,76.547 40.706,74.778 C40.706,74.226 41.154,73.778 41.707,73.778 C42.259,73.778 42.706,74.226 42.706,74.778 C42.706,75.444 43.24,75.986 43.896,75.986 L49.455,75.986 C50.287,75.986 50.963,75.302 50.963,74.462 L50.963,73.511 C50.963,72.68 50.287,72.004 49.455,72.004 L43.974,72.004 C42.04,72.004 40.466,70.43 40.466,68.495 L40.466,67.544 C40.466,65.61 42.04,64.036 43.974,64.036 L49.866,64.036 C51.392,64.036 52.633,65.277 52.633,66.803 C52.633,67.355 52.185,67.803 51.633,67.803 C51.08,67.803 50.633,67.355 50.633,66.803 C50.633,66.38 50.288,66.036 49.866,66.036 L43.974,66.036 C43.143,66.036 42.466,66.713 42.466,67.544 L42.466,68.495 C42.466,69.327 43.143,70.004 43.974,70.004 L49.455,70.004 C51.39,70.004 52.963,71.577 52.963,73.511 L52.963,74.462 C52.963,76.404 51.39,77.985 49.455,77.985"/>
    <path fill="#475059" d="M46.995,81.011 C46.443,81.011 45.995,80.564 45.995,80.011 L45.995,62.011 C45.995,61.459 46.443,61.011 46.995,61.011 C47.547,61.011 47.995,61.459 47.995,62.011 L47.995,80.011 C47.995,80.564 47.547,81.011 46.995,81.011"/>
    <path fill="#DEDEDD" d="M76.357,95.009 C88.671,85.328 106.056,79.281 125.33,79.281 C145.749,79.281 164.019,86.067 176.363,96.773 L217.516,127.904 L176.173,86.1 C163.804,71.765 145.519,62.678 125.1,62.678 C105.826,62.678 88.454,70.775 76.163,83.737 L76.163,83.726 L31.775,128.609 L76.357,95 L76.357,95.009"/>
    <path fill="#475059" d="M75.54,172.767 L77.266,174.565 C89.861,187.847 106.86,195.163 125.131,195.163 C144.308,195.163 162.51,186.819 175.071,172.271 L217.59,129.111 L175.132,86.178 C162.524,71.57 144.316,63.219 125.131,63.219 C106.86,63.219 89.861,70.535 77.266,83.818 L75.54,85.637 L75.54,85.551 L32.462,129.111 L75.54,172.835 L75.54,172.767 Z M125.131,197.163 C106.571,197.163 89.287,189.838 76.367,176.517 L75.828,175.976 L29.652,129.108 L76.13,82.111 C89.075,68.634 106.457,61.219 125.131,61.219 C144.898,61.219 163.658,69.823 176.6,84.822 L220.4,129.108 L176.54,173.626 C163.644,188.566 144.889,197.163 125.131,197.163 Z"/>
    <path fill="#5FE0ED" d="M124.995,129.011 L180.995,129.011 C180.995,118.809 178.253,109.253 173.487,101.015 L124.995,129.011"/>
    <path fill="#5FE0ED" d="M124.995,129.011 L173.487,101.015 C168.57,92.517 161.489,85.437 152.992,80.52 L124.995,129.011"/>
    <path fill="#5FE0ED" d="M152.992,80.52 C144.754,75.753 135.197,73.011 124.995,73.011 L124.995,129.011 L152.992,80.52"/>
    <path fill="#FFD15D" d="M124.995,129.011 L124.995,185.011 C135.197,185.011 144.754,182.27 152.992,177.503 L124.995,129.011"/>
    <path fill="#FFD15D" d="M152.992 177.503C161.489 172.586 168.57 165.506 173.487 157.008L124.995 129.011 152.992 177.503M124.995 129.011L96.998 177.503C105.237 182.27 114.793 185.011 124.995 185.011L124.995 129.011"/>
    <path fill="#5FE0ED" d="M124.995,129.011 L173.487,157.008 C178.253,148.77 180.995,139.214 180.995,129.011 L124.995,129.011"/>
    <path fill="#FFD15D" d="M76.504,157.008 C81.42,165.506 88.501,172.586 96.998,177.503 L124.995,129.011 L76.504,157.008"/>
    <path fill="#F58E70" d="M124.995,129.011 L68.995,129.011 C68.995,139.214 71.737,148.77 76.504,157.008 L124.995,129.011"/>
    <path fill="#475059" d="M124.995,73.011 C114.793,73.011 105.237,75.753 96.998,80.52 C88.501,85.437 81.42,92.517 76.504,101.015 L124.995,129.011 L124.995,73.011 Z M122.995,75.049 L122.995,125.547 L79.269,100.302 C83.946,92.871 90.387,86.656 98,82.251 C105.609,77.848 114.21,75.375 122.995,75.049 Z"/>
    <path fill="#F58E70" d="M124.995,129.011 L76.504,101.015 C71.737,109.253 68.995,118.809 68.995,129.011 L124.995,129.011"/>
    <path fill="#48515A" d="M123.855,95.931 C123.855,95.381 124.305,94.931 124.855,94.931 C125.405,94.931 125.855,95.371 125.855,95.921 C125.855,96.481 125.415,96.931 124.855,96.931 C124.305,96.931 123.855,96.481 123.855,95.931 Z M128.725,97.151 C128.175,97.081 127.785,96.581 127.845,96.041 C127.905,95.491 128.405,95.091 128.955,95.161 C129.505,95.221 129.895,95.721 129.835,96.271 C129.775,96.781 129.335,97.151 128.835,97.151 C128.805,97.151 128.765,97.151 128.725,97.151 Z M119.885,96.301 C119.815,95.751 120.205,95.251 120.755,95.181 C121.305,95.111 121.805,95.511 121.875,96.051 C121.935,96.601 121.545,97.101 121.005,97.171 C120.955,97.171 120.915,97.181 120.875,97.181 C120.375,97.181 119.945,96.801 119.885,96.301 Z M132.525,97.831 C131.995,97.701 131.665,97.161 131.795,96.621 C131.925,96.081 132.465,95.751 132.995,95.881 C133.535,96.011 133.865,96.551 133.735,97.091 C133.625,97.551 133.215,97.861 132.765,97.861 C132.685,97.861 132.605,97.851 132.525,97.831 Z M115.985,97.141 C115.855,96.611 116.175,96.061 116.715,95.931 C117.255,95.801 117.795,96.121 117.925,96.661 C118.065,97.201 117.735,97.741 117.195,97.871 C117.115,97.891 117.035,97.901 116.955,97.901 C116.505,97.901 116.095,97.601 115.985,97.141 Z M136.225,98.971 C135.705,98.771 135.445,98.201 135.645,97.681 C135.835,97.161 136.415,96.901 136.925,97.091 C136.925,97.091 136.925,97.091 136.935,97.091 C137.445,97.291 137.705,97.861 137.515,98.381 C137.365,98.781 136.985,99.031 136.575,99.031 C136.465,99.031 136.345,99.011 136.225,98.971 Z M112.215,98.451 C112.025,97.941 112.275,97.361 112.795,97.161 C113.315,96.971 113.885,97.221 114.085,97.741 C114.285,98.251 114.025,98.831 113.515,99.031 L113.505,99.031 C113.395,99.081 113.275,99.101 113.155,99.101 C112.745,99.101 112.375,98.851 112.215,98.451 Z M139.755,100.541 C139.265,100.291 139.075,99.681 139.335,99.201 C139.585,98.711 140.195,98.521 140.685,98.771 C141.175,99.031 141.365,99.631 141.105,100.121 C140.925,100.461 140.575,100.661 140.215,100.661 C140.065,100.661 139.905,100.621 139.755,100.541 Z M108.635,100.211 C108.375,99.721 108.565,99.121 109.055,98.861 C109.545,98.601 110.145,98.791 110.405,99.281 C110.665,99.761 110.475,100.371 109.985,100.631 C109.835,100.711 109.675,100.741 109.525,100.741 C109.165,100.741 108.815,100.551 108.635,100.211 Z M143.075,102.541 C142.615,102.221 142.505,101.601 142.815,101.151 C143.125,100.691 143.745,100.581 144.205,100.891 C144.655,101.201 144.775,101.821 144.465,102.281 C144.265,102.561 143.955,102.711 143.635,102.711 C143.445,102.711 143.245,102.661 143.075,102.541 Z M105.295,102.391 C104.985,101.941 105.095,101.311 105.545,101.001 C105.995,100.681 106.625,100.791 106.935,101.251 C107.255,101.701 107.145,102.321 106.685,102.641 C106.515,102.761 106.315,102.821 106.115,102.821 C105.805,102.821 105.485,102.671 105.295,102.391 Z M146.125,104.921 C145.705,104.551 145.665,103.921 146.035,103.501 C146.395,103.091 147.035,103.051 147.445,103.421 C147.855,103.781 147.895,104.411 147.535,104.831 C147.335,105.051 147.055,105.171 146.785,105.171 C146.545,105.171 146.315,105.081 146.125,104.921 Z M102.235,104.951 C101.875,104.541 101.905,103.911 102.325,103.541 C102.735,103.171 103.365,103.211 103.735,103.621 C104.095,104.031 104.065,104.671 103.655,105.031 C103.455,105.201 103.225,105.291 102.985,105.291 C102.715,105.291 102.435,105.171 102.235,104.951 Z M148.865,107.641 C148.505,107.231 148.535,106.601 148.945,106.231 C149.355,105.861 149.995,105.901 150.355,106.311 C150.725,106.721 150.695,107.361 150.275,107.721 C150.085,107.891 149.855,107.981 149.615,107.981 C149.335,107.981 149.065,107.861 148.865,107.641 Z M99.505,107.861 C99.095,107.501 99.055,106.871 99.425,106.451 C99.785,106.041 100.415,106.001 100.835,106.361 C101.245,106.731 101.285,107.361 100.925,107.771 C100.725,108.001 100.445,108.111 100.175,108.111 C99.935,108.111 99.695,108.031 99.505,107.861 Z M151.265,110.681 C150.945,110.221 151.055,109.601 151.515,109.281 C151.965,108.971 152.585,109.081 152.905,109.531 C153.225,109.991 153.105,110.611 152.655,110.931 C152.485,111.051 152.285,111.111 152.085,111.111 C151.765,111.111 151.455,110.961 151.265,110.681 Z M97.155,111.081 C96.695,110.771 96.575,110.141 96.895,109.691 C97.205,109.241 97.825,109.121 98.285,109.431 C98.735,109.751 98.855,110.371 98.545,110.821 C98.345,111.111 98.035,111.261 97.715,111.261 C97.525,111.261 97.325,111.201 97.155,111.081 Z M153.275,113.981 C153.015,113.491 153.205,112.881 153.695,112.621 C154.185,112.361 154.785,112.551 155.045,113.041 C155.305,113.531 155.115,114.131 154.635,114.391 C154.485,114.471 154.325,114.511 154.165,114.511 C153.805,114.511 153.455,114.311 153.275,113.981 Z M95.195,114.561 C94.705,114.301 94.515,113.701 94.775,113.211 C95.025,112.721 95.635,112.531 96.125,112.791 C96.615,113.041 96.795,113.651 96.545,114.141 C96.365,114.481 96.015,114.671 95.655,114.671 C95.505,114.671 95.345,114.641 95.195,114.561 Z M154.875,117.501 C154.685,116.981 154.935,116.401 155.455,116.201 C155.975,116.011 156.545,116.261 156.745,116.781 C156.945,117.291 156.685,117.871 156.175,118.071 C156.055,118.121 155.935,118.141 155.815,118.141 C155.415,118.141 155.035,117.891 154.875,117.501 Z M93.675,118.251 C93.155,118.051 92.895,117.481 93.085,116.961 C93.285,116.441 93.865,116.181 94.375,116.381 C94.895,116.571 95.155,117.151 94.965,117.671 C94.815,118.071 94.425,118.311 94.025,118.311 C93.905,118.311 93.785,118.291 93.675,118.251 Z M156.045,121.181 C155.905,120.651 156.235,120.101 156.775,119.971 C157.305,119.841 157.845,120.161 157.985,120.701 C158.115,121.231 157.795,121.781 157.255,121.911 C157.175,121.931 157.095,121.941 157.015,121.941 C156.565,121.941 156.155,121.641 156.045,121.181 Z M92.615,122.101 C92.075,121.971 91.745,121.431 91.875,120.891 C92.005,120.351 92.545,120.021 93.085,120.151 C93.625,120.281 93.955,120.821 93.815,121.361 C93.705,121.821 93.295,122.131 92.845,122.131 C92.775,122.131 92.695,122.121 92.615,122.101 Z M156.745,124.991 C156.685,124.441 157.065,123.941 157.615,123.871 C158.165,123.801 158.665,124.191 158.735,124.741 C158.805,125.291 158.415,125.791 157.865,125.851 C157.825,125.861 157.785,125.861 157.735,125.861 C157.245,125.861 156.815,125.491 156.745,124.991 Z M92.025,126.051 C91.475,125.981 91.085,125.481 91.145,124.931 C91.215,124.381 91.715,123.991 92.255,124.061 C92.805,124.121 93.195,124.621 93.135,125.171 C93.075,125.681 92.645,126.051 92.145,126.051 C92.105,126.051 92.065,126.051 92.025,126.051 Z M156.995,128.971 C156.995,128.951 156.995,128.941 156.995,128.921 C156.995,128.901 156.995,128.871 156.995,128.841 C156.995,128.291 157.435,127.841 157.995,127.841 C158.545,127.841 158.995,128.281 158.995,128.841 C158.995,128.861 158.995,128.881 158.995,128.901 C158.995,128.931 158.995,128.951 158.995,128.971 C158.995,129.521 158.545,129.971 157.995,129.971 C157.445,129.971 156.995,129.521 156.995,128.971 Z M90.915,129.031 C90.915,128.481 91.355,128.031 91.915,128.031 C92.465,128.031 92.915,128.481 92.915,129.031 C92.915,129.581 92.465,130.031 91.915,130.031 C91.365,130.031 90.915,129.591 90.915,129.031 Z M157.635,133.941 C157.085,133.881 156.695,133.381 156.765,132.831 C156.825,132.281 157.325,131.891 157.875,131.961 C158.425,132.021 158.815,132.521 158.745,133.071 C158.695,133.581 158.255,133.951 157.755,133.951 C157.715,133.951 157.675,133.951 157.635,133.941 Z M91.165,133.131 C91.095,132.581 91.485,132.091 92.035,132.021 C92.585,131.951 93.085,132.341 93.155,132.891 C93.215,133.441 92.825,133.941 92.275,134.001 C92.235,134.011 92.195,134.011 92.155,134.011 C91.655,134.011 91.225,133.641 91.165,133.131 Z M156.805,137.841 C156.265,137.711 155.935,137.171 156.075,136.631 C156.205,136.101 156.745,135.771 157.285,135.901 C157.815,136.031 158.145,136.571 158.015,137.111 C157.905,137.571 157.495,137.871 157.045,137.871 C156.965,137.871 156.885,137.861 156.805,137.841 Z M91.905,137.171 C91.775,136.641 92.105,136.101 92.635,135.961 C93.175,135.831 93.715,136.161 93.845,136.691 C93.985,137.231 93.655,137.771 93.115,137.911 C93.035,137.921 92.955,137.931 92.885,137.931 C92.435,137.931 92.015,137.631 91.905,137.171 Z M155.505,141.621 C154.985,141.421 154.725,140.841 154.925,140.331 C155.115,139.811 155.695,139.551 156.215,139.751 C156.725,139.941 156.985,140.521 156.795,141.041 C156.645,141.441 156.265,141.681 155.855,141.681 C155.735,141.681 155.615,141.661 155.505,141.621 Z M93.135,141.091 C92.935,140.581 93.195,140.001 93.715,139.811 C94.235,139.611 94.805,139.871 95.005,140.381 C95.205,140.901 94.945,141.481 94.425,141.671 C94.315,141.721 94.185,141.741 94.075,141.741 C93.665,141.741 93.285,141.491 93.135,141.091 Z M153.755,145.201 C153.265,144.951 153.075,144.341 153.335,143.851 C153.595,143.361 154.195,143.181 154.685,143.431 C155.175,143.691 155.365,144.301 155.105,144.781 C154.925,145.121 154.575,145.321 154.215,145.321 C154.065,145.321 153.905,145.281 153.755,145.201 Z M94.835,144.841 C94.575,144.351 94.765,143.751 95.245,143.491 C95.735,143.231 96.345,143.421 96.595,143.911 L96.595,143.901 C96.855,144.391 96.675,145.001 96.185,145.261 C96.035,145.331 95.875,145.371 95.715,145.371 C95.355,145.371 95.015,145.181 94.835,144.841 Z M151.585,148.561 C151.125,148.241 151.015,147.621 151.335,147.161 C151.645,146.711 152.265,146.601 152.725,146.911 C153.175,147.221 153.285,147.851 152.975,148.301 C152.785,148.581 152.465,148.731 152.155,148.731 C151.955,148.731 151.755,148.681 151.585,148.561 Z M96.965,148.351 C96.645,147.891 96.765,147.271 97.215,146.961 C97.665,146.641 98.295,146.751 98.605,147.211 C98.925,147.661 98.805,148.291 98.355,148.601 C98.185,148.721 97.985,148.781 97.785,148.781 C97.465,148.781 97.155,148.631 96.965,148.351 Z M149.025,151.621 C148.615,151.251 148.575,150.621 148.945,150.211 C149.315,149.791 149.945,149.751 150.355,150.121 C150.765,150.491 150.805,151.121 150.445,151.531 C150.245,151.761 149.965,151.871 149.695,151.871 C149.455,151.871 149.215,151.791 149.025,151.621 Z M99.505,151.581 C99.135,151.161 99.175,150.531 99.585,150.171 C99.995,149.801 100.635,149.831 100.995,150.251 C101.365,150.661 101.325,151.291 100.915,151.661 C100.725,151.831 100.485,151.911 100.255,151.911 C99.975,151.911 99.705,151.801 99.505,151.581 Z M146.125,154.361 C145.755,153.941 145.795,153.311 146.205,152.941 C146.625,152.581 147.255,152.611 147.625,153.031 C147.985,153.441 147.955,154.071 147.535,154.441 C147.345,154.611 147.115,154.691 146.875,154.691 C146.595,154.691 146.325,154.581 146.125,154.361 Z M102.415,154.481 C101.995,154.111 101.955,153.481 102.325,153.071 C102.695,152.651 103.325,152.611 103.735,152.981 C104.145,153.341 104.185,153.981 103.825,154.391 C103.625,154.611 103.345,154.731 103.075,154.731 C102.835,154.731 102.605,154.651 102.415,154.481 Z M142.915,156.721 C142.605,156.271 142.715,155.651 143.165,155.331 C143.625,155.021 144.245,155.131 144.555,155.581 C144.875,156.041 144.765,156.661 144.305,156.981 C144.135,157.101 143.935,157.151 143.735,157.151 C143.425,157.151 143.105,157.001 142.915,156.721 Z M105.645,157.011 C105.195,156.701 105.075,156.071 105.395,155.621 C105.705,155.161 106.325,155.051 106.785,155.361 C107.235,155.681 107.355,156.301 107.035,156.761 C106.845,157.041 106.535,157.191 106.215,157.191 C106.015,157.191 105.825,157.131 105.645,157.011 Z M139.445,158.691 C139.185,158.201 139.375,157.591 139.865,157.341 C140.355,157.081 140.955,157.271 141.215,157.751 C141.475,158.241 141.285,158.851 140.795,159.111 C140.645,159.181 140.485,159.221 140.335,159.221 C139.975,159.221 139.625,159.031 139.445,158.691 Z M109.165,159.141 C109.165,159.141 109.165,159.141 109.165,159.131 C108.675,158.881 108.485,158.271 108.745,157.781 C109.005,157.301 109.605,157.111 110.095,157.361 C110.585,157.621 110.775,158.221 110.515,158.711 C110.335,159.051 109.985,159.251 109.625,159.251 C109.475,159.251 109.315,159.211 109.165,159.141 Z M135.765,160.221 C135.565,159.701 135.825,159.121 136.335,158.931 C136.855,158.731 137.435,158.991 137.625,159.511 C137.825,160.021 137.565,160.601 137.045,160.801 C136.935,160.841 136.815,160.861 136.695,160.861 C136.295,160.861 135.915,160.621 135.765,160.221 Z M112.915,160.821 C112.395,160.621 112.135,160.051 112.335,159.531 C112.525,159.011 113.105,158.751 113.625,158.951 C114.135,159.141 114.395,159.721 114.205,160.241 C114.055,160.641 113.675,160.881 113.265,160.881 C113.155,160.881 113.035,160.861 112.915,160.821 Z M131.915,161.291 C131.785,160.751 132.115,160.211 132.645,160.081 C133.185,159.951 133.725,160.281 133.855,160.811 C133.995,161.351 133.665,161.891 133.125,162.021 C133.045,162.041 132.965,162.051 132.885,162.051 C132.435,162.051 132.025,161.751 131.915,161.291 Z M116.845,162.041 C116.305,161.911 115.975,161.371 116.105,160.831 C116.235,160.291 116.785,159.961 117.315,160.091 C117.855,160.231 118.185,160.771 118.055,161.301 C117.935,161.761 117.535,162.071 117.085,162.071 C117.005,162.071 116.925,162.061 116.845,162.041 Z M127.975,161.891 C127.905,161.341 128.295,160.841 128.845,160.771 L128.845,160.781 C129.395,160.711 129.895,161.101 129.955,161.651 C130.025,162.201 129.635,162.701 129.085,162.761 C129.045,162.771 129.005,162.771 128.965,162.771 C128.465,162.771 128.035,162.401 127.975,161.891 Z M120.885,162.771 C120.335,162.701 119.945,162.201 120.015,161.661 C120.075,161.111 120.575,160.721 121.125,160.781 C121.675,160.851 122.065,161.351 121.995,161.891 C121.935,162.401 121.505,162.781 121.005,162.781 C120.965,162.781 120.925,162.771 120.885,162.771 Z M123.985,162.011 C123.985,161.461 124.435,161.011 124.985,161.011 C125.535,161.011 125.985,161.461 125.985,162.011 C125.985,162.561 125.535,163.011 124.985,163.011 C124.435,163.011 123.985,162.561 123.985,162.011 Z"/>
    <path fill="#FFF" d="M124.995,136.011 C121.135,136.011 117.995,132.871 117.995,129.011 C117.995,125.152 121.135,122.011 124.995,122.011 C128.855,122.011 131.995,125.152 131.995,129.011 C131.995,132.871 128.855,136.011 124.995,136.011"/>
    <path fill="#475059" d="M124.995,121.011 C120.577,121.011 116.995,124.593 116.995,129.011 C116.995,133.43 120.577,137.011 124.995,137.011 C129.413,137.011 132.995,133.43 132.995,129.011 C132.995,124.593 129.413,121.011 124.995,121.011 Z M124.995,123.011 C128.303,123.011 130.995,125.703 130.995,129.011 C130.995,132.32 128.303,135.011 124.995,135.011 C121.687,135.011 118.995,132.32 118.995,129.011 C118.995,125.703 121.687,123.011 124.995,123.011 Z"/>
    <path fill="#FFD15D" d="M200.963 162.011C200.963 163.668 199.62 165.011 197.963 165.011 196.306 165.011 194.963 163.668 194.963 162.011 194.963 160.354 196.306 159.011 197.963 159.011 199.62 159.011 200.963 160.354 200.963 162.011M205.995 172.011C205.995 170.907 206.891 170.011 207.995 170.011 209.1 170.011 209.995 170.907 209.995 172.011 209.995 173.116 209.1 174.011 207.995 174.011 206.891 174.011 205.995 173.116 205.995 172.011"/>
    <polygon fill="#48515A" points="213.039 147.006 215.039 147.006 215.039 143.006 213.039 143.006"/>
    <polygon fill="#48515A" points="213.039 157.006 215.039 157.006 215.039 153.006 213.039 153.006"/>
    <polygon fill="#48515A" points="217.039 151.006 221.039 151.006 221.039 149.006 217.039 149.006"/>
    <polygon fill="#48515A" points="207.039 151.006 211.039 151.006 211.039 149.006 207.039 149.006"/>
    <polygon fill="#48515A" points="52.943 177.024 54.943 177.024 54.943 173.024 52.943 173.024"/>
    <polygon fill="#48515A" points="52.943 187.024 54.943 187.024 54.943 183.024 52.943 183.024"/>
    <polygon fill="#48515A" points="56.943 181.024 60.943 181.024 60.943 179.024 56.943 179.024"/>
    <polygon fill="#48515A" points="46.943 181.024 50.943 181.024 50.943 179.024 46.943 179.024"/>
    <polygon fill="#48515A" points="172.051 46.988 174.051 46.988 174.051 42.988 172.051 42.988"/>
    <polygon fill="#48515A" points="172.051 56.988 174.051 56.988 174.051 52.988 172.051 52.988"/>
    <polygon fill="#48515A" points="176.051 50.988 180.051 50.988 180.051 48.988 176.051 48.988"/>
    <polygon fill="#48515A" points="166.051 50.988 170.051 50.988 170.051 48.988 166.051 48.988"/>
    <path fill="#475059" d="M217.161,81.622 L215.259,81.002 L215.559,80.084 L214.388,79.702 C212.9,79.217 211.939,77.893 211.941,76.328 C211.942,74.763 212.905,73.44 214.394,72.958 L215.566,72.578 L214.928,70.607 L213.755,70.987 C212.266,71.469 210.711,70.962 209.793,69.695 C208.874,68.428 208.876,66.792 209.797,65.527 L210.522,64.531 L208.847,63.311 L208.121,64.307 C207.201,65.572 205.645,66.075 204.157,65.591 C202.669,65.106 201.708,63.782 201.71,62.217 L201.711,60.985 L199.639,60.983 L199.638,62.215 C199.636,63.78 198.673,65.102 197.185,65.584 C195.697,66.068 194.14,65.559 193.222,64.292 L192.498,63.295 L190.821,64.512 L191.544,65.509 C192.462,66.776 192.461,68.411 191.54,69.676 C190.619,70.942 189.064,71.447 187.575,70.961 L186.403,70.579 L186.104,71.498 L184.203,70.878 L185.122,68.057 L188.195,69.059 C188.982,69.316 189.603,68.938 189.923,68.499 C190.242,68.061 190.411,67.353 189.925,66.683 L188.028,64.067 L192.944,60.502 L194.841,63.118 C195.327,63.789 196.052,63.85 196.569,63.682 C197.085,63.514 197.637,63.041 197.638,62.213 L197.641,58.981 L203.713,58.987 L203.71,62.219 C203.709,63.047 204.26,63.522 204.776,63.69 C205.293,63.859 206.018,63.799 206.504,63.13 L208.407,60.517 L213.316,64.091 L211.414,66.704 C210.927,67.373 211.094,68.081 211.412,68.521 C211.731,68.961 212.351,69.338 213.139,69.084 L216.214,68.088 L218.085,73.865 L215.01,74.861 C214.223,75.116 213.941,75.787 213.941,76.33 C213.94,76.872 214.221,77.544 215.008,77.8 L218.08,78.801 L217.161,81.622"/>
    <path fill="#475059" d="M208.387,78.836 L206.485,78.215 C206.992,76.66 206.863,74.999 206.122,73.54 C205.38,72.081 204.115,70.999 202.559,70.491 C199.348,69.446 195.882,71.205 194.834,74.418 L192.933,73.798 C194.322,69.536 198.917,67.199 203.179,68.59 C207.439,69.979 209.775,74.575 208.387,78.836"/>
    <path fill="#475059" d="M200.676,84.379 C199.842,84.379 198.996,84.249 198.162,83.977 C196.098,83.304 194.419,81.868 193.436,79.933 C192.453,77.997 192.282,75.795 192.955,73.732 L194.856,74.352 C194.349,75.907 194.477,77.568 195.219,79.027 C195.96,80.486 197.226,81.569 198.782,82.076 C200.337,82.583 201.998,82.455 203.457,81.713 C204.916,80.972 205.999,79.707 206.506,78.151 L208.408,78.771 C207.29,82.197 204.099,84.379 200.676,84.379"/>
    <path fill="#475059" d="M203.699,93.587 L197.627,93.58 L197.63,90.348 C197.631,89.52 197.08,89.046 196.564,88.878 C196.048,88.707 195.323,88.768 194.836,89.437 L192.933,92.049 L188.024,88.475 L189.926,85.863 C190.414,85.193 190.247,84.485 189.928,84.046 C189.609,83.607 188.987,83.228 188.202,83.483 L185.126,84.478 L183.256,78.701 L186.331,77.706 C187.118,77.45 187.4,76.779 187.4,76.237 C187.401,75.694 187.121,75.023 186.334,74.766 L183.261,73.764 L184.292,70.602 L186.194,71.222 L185.783,72.483 L186.954,72.864 C188.442,73.35 189.402,74.674 189.4,76.239 C189.398,77.803 188.436,79.126 186.947,79.608 L185.775,79.988 L186.414,81.96 L187.585,81.58 C189.072,81.098 190.629,81.605 191.548,82.872 C192.466,84.138 192.464,85.775 191.543,87.04 L190.818,88.036 L192.494,89.256 L193.219,88.259 C194.14,86.994 195.698,86.491 197.184,86.976 C198.671,87.461 199.632,88.785 199.63,90.35 L199.629,91.582 L201.701,91.585 L201.703,90.353 C201.705,88.788 202.667,87.465 204.157,86.983 C205.643,86.502 207.201,87.009 208.119,88.276 L208.842,89.273 L210.519,88.056 L209.797,87.059 C208.878,85.792 208.88,84.156 209.801,82.891 C210.722,81.627 212.277,81.124 213.766,81.608 L214.937,81.989 L215.394,80.589 L217.295,81.209 L216.219,84.511 L213.146,83.509 C212.357,83.251 211.737,83.63 211.418,84.069 C211.099,84.507 210.93,85.215 211.416,85.885 L213.312,88.502 L208.396,92.066 L206.499,89.449 C206.013,88.779 205.288,88.717 204.772,88.886 C204.256,89.053 203.704,89.527 203.703,90.355 L203.699,93.587"/>
  </g>
</svg>
