<svg xmlns="http://www.w3.org/2000/svg" width="250" height="250" viewBox="0 0 250 250">
  <g fill="none" fill-rule="evenodd">
    <path fill="#DEDEDD" d="M77.077,80.812 C91.713,57.396 122.561,50.279 145.977,64.915 C152.664,69.095 158.015,74.599 161.916,80.872 C157.684,71.464 150.718,63.161 141.313,57.283 C116.024,41.476 82.708,49.163 66.901,74.452 C51.094,99.741 58.78,133.057 84.07,148.864 C93.474,154.743 103.989,157.367 114.3,157.05 C106.953,156.291 99.66,153.892 92.974,149.713 C69.557,135.076 62.44,104.228 77.077,80.812"/>
    <path fill="#5FE0ED" d="M182.793,151.25 L158.081,94.259 L137.401,141.95 C132.167,154.021 123.68,154.021 118.446,141.95 L111.169,125.169 L103.893,141.95 C98.658,154.021 90.172,154.021 84.937,141.95 L77.87,125.652 L66.771,151.25 L182.793,151.25"/>
    <path fill="#FFD15D" d="M77.87 125.652L70.594 108.871C65.359 96.8 56.873 96.8 51.638 108.871L33.262 151.25 66.771 151.25 77.87 125.652M137.401 141.95L158.081 94.259 150.804 77.478C145.57 65.407 137.084 65.407 131.849 77.478L111.169 125.169 118.446 141.95C123.68 154.021 132.167 154.021 137.401 141.95"/>
    <path fill="#F58E70" d="M103.893 141.95L111.169 125.169 104.102 108.871C98.868 96.8 90.381 96.8 85.147 108.871L77.87 125.652 84.937 141.95C90.172 154.021 98.658 154.021 103.893 141.95M216.302 151.25L184.313 77.478C179.078 65.407 170.592 65.407 165.357 77.478L158.081 94.259 182.793 151.25 216.302 151.25"/>
    <path fill="#475059" d="M112.692,42.102 C97.071,42.102 81.45,48.048 69.558,59.94 C45.774,83.724 45.774,122.423 69.558,146.207 C81.08,157.728 96.398,164.074 112.691,164.074 C128.985,164.074 144.304,157.728 155.825,146.207 C179.609,122.423 179.609,83.724 155.825,59.94 C143.933,48.048 128.313,42.102 112.692,42.102 Z M112.691,166.074 C95.864,166.074 80.043,159.52 68.144,147.621 C43.581,123.058 43.581,83.09 68.144,58.526 C92.707,33.963 132.675,33.962 157.239,58.526 C181.803,83.089 181.803,123.058 157.239,147.621 C145.34,159.52 129.52,166.074 112.691,166.074 Z"/>
    <path fill="#475059" d="M112.801,46.053 C108.5,46.053 104.171,46.542 99.877,47.533 C85.042,50.956 72.427,59.951 64.357,72.862 C56.287,85.772 53.728,101.053 57.151,115.888 C60.574,130.724 69.569,143.338 82.479,151.408 C109.13,168.068 144.368,159.937 161.026,133.285 C169.096,120.375 171.655,105.095 168.232,90.259 C164.81,75.424 155.814,62.809 142.903,54.739 C133.729,49.005 123.358,46.053 112.801,46.053 Z M112.595,162.059 C101.918,162.059 91.121,159.168 81.419,153.104 C68.056,144.751 58.745,131.694 55.202,116.338 C51.659,100.982 54.308,85.165 62.661,71.802 C71.014,58.438 84.071,49.127 99.427,45.584 C114.783,42.039 130.599,44.69 143.964,53.043 C157.327,61.396 166.638,74.454 170.181,89.809 C173.724,105.165 171.075,120.982 162.722,134.346 C151.543,152.23 132.278,162.059 112.595,162.059 Z"/>
    <polyline fill="#DEDEDD" points="166.412 151.137 162.17 155.381 155.118 148.328 159.36 144.085 166.412 151.137"/>
    <path fill="#475059" d="M156.532,148.329 L167.962,159.758 L170.791,156.93 L159.36,145.5 L156.532,148.329 Z M167.962,162.586 L153.704,148.329 L159.36,142.672 L173.619,156.93 L167.962,162.586 Z"/>
    <path fill="#5FE0ED" d="M219.464,208.432 C217.512,210.385 214.346,210.385 212.393,208.432 L164.214,160.253 L171.286,153.182 L219.464,201.361 C221.417,203.314 221.417,206.48 219.464,208.432"/>
    <polygon fill="#48515A" points="35 59.074 37 59.074 37 55.074 35 55.074"/>
    <polygon fill="#48515A" points="35 69.074 37 69.074 37 65.074 35 65.074"/>
    <polygon fill="#48515A" points="39 63.074 43 63.074 43 61.074 39 61.074"/>
    <polygon fill="#48515A" points="29 63.074 33 63.074 33 61.074 29 61.074"/>
    <polygon fill="#48515A" points="213 169.074 215 169.074 215 165.074 213 165.074"/>
    <polygon fill="#48515A" points="213 179.074 215 179.074 215 175.074 213 175.074"/>
    <polygon fill="#48515A" points="217 173.074 221 173.074 221 171.074 217 171.074"/>
    <polygon fill="#48515A" points="207 173.074 211 173.074 211 171.074 207 171.074"/>
    <path fill="#FFD15D" d="M209 132.968C209 134.625 207.657 135.968 206 135.968 204.343 135.968 203 134.625 203 132.968 203 131.311 204.343 129.968 206 129.968 207.657 129.968 209 131.311 209 132.968M147 180.074C147 182.835 144.761 185.074 142 185.074 139.239 185.074 137 182.835 137 180.074 137 177.312 139.239 175.074 142 175.074 144.761 175.074 147 177.312 147 180.074M183 57.968C183 59.072 183.895 59.968 185 59.968 186.105 59.968 187 59.072 187 57.968 187 56.863 186.105 55.968 185 55.968 183.895 55.968 183 56.863 183 57.968"/>
    <polygon fill="#48515A" points="159 196.18 161 196.18 161 192.18 159 192.18"/>
    <polygon fill="#48515A" points="159 206.18 161 206.18 161 202.18 159 202.18"/>
    <polygon fill="#48515A" points="163 200.18 167 200.18 167 198.18 163 198.18"/>
    <polygon fill="#48515A" points="153 200.18 157 200.18 157 198.18 153 198.18"/>
    <path fill="#DEDEDD" d="M112,82.074 C112,86.492 108.418,90.074 104,90.074 C99.582,90.074 96,86.492 96,82.074 C96,77.655 99.582,74.074 104,74.074 C108.418,74.074 112,77.655 112,82.074"/>
    <path fill="#475059" d="M100.697,92.056 C100.899,92.056 101.104,92.082 101.304,92.136 C102.063,92.34 102.666,92.907 102.914,93.653 L103.645,95.846 C103.69,95.982 103.817,96.074 103.961,96.074 C104.183,96.074 104.31,95.982 104.355,95.845 L105.086,93.653 C105.334,92.907 105.937,92.34 106.696,92.136 C107.455,91.932 108.26,92.121 108.849,92.644 L110.578,94.178 C110.686,94.273 110.842,94.29 110.967,94.217 C111.158,94.107 111.223,93.964 111.194,93.823 L110.73,91.559 C110.573,90.788 110.811,89.996 111.366,89.44 C111.923,88.884 112.714,88.646 113.485,88.804 L115.749,89.268 C115.889,89.296 116.033,89.232 116.105,89.107 C116.216,88.916 116.2,88.759 116.104,88.651 L114.571,86.923 C114.049,86.334 113.859,85.529 114.063,84.77 C114.266,84.01 114.833,83.408 115.579,83.16 L117.772,82.429 C117.908,82.384 118,82.256 118,82.112 C118,81.891 117.908,81.764 117.772,81.718 L115.58,80.988 C114.833,80.739 114.266,80.137 114.063,79.378 C113.859,78.618 114.049,77.813 114.57,77.225 L116.104,75.496 C116.2,75.388 116.216,75.231 116.144,75.107 C116.033,74.915 115.891,74.85 115.749,74.88 L113.485,75.343 C112.714,75.501 111.923,75.263 111.366,74.707 C110.811,74.151 110.573,73.359 110.73,72.589 L111.194,70.325 C111.223,70.184 111.158,70.04 111.033,69.969 C110.842,69.858 110.686,69.874 110.578,69.97 L108.849,71.502 C108.261,72.024 107.458,72.216 106.696,72.011 C105.937,71.808 105.334,71.241 105.086,70.495 L104.355,68.302 C104.31,68.165 104.183,68.074 104.039,68.074 C103.817,68.074 103.69,68.165 103.645,68.302 L102.914,70.494 C102.666,71.241 102.063,71.808 101.304,72.011 C100.543,72.216 99.739,72.024 99.151,71.502 L97.422,69.969 C97.314,69.874 97.157,69.857 97.033,69.93 C96.842,70.04 96.777,70.184 96.806,70.325 L97.27,72.589 C97.427,73.359 97.189,74.151 96.634,74.707 C96.077,75.263 95.287,75.501 94.515,75.343 L92.251,74.88 C92.112,74.851 91.967,74.915 91.895,75.04 C91.784,75.231 91.8,75.388 91.896,75.496 L93.429,77.225 C93.951,77.813 94.141,78.618 93.938,79.378 C93.734,80.137 93.166,80.739 92.421,80.988 L90.228,81.718 C90.092,81.764 90,81.891 90,82.035 C90,82.256 90.092,82.384 90.229,82.429 L92.42,83.16 C93.167,83.408 93.734,84.01 93.938,84.77 C94.141,85.529 93.951,86.334 93.429,86.923 L91.895,88.652 C91.8,88.759 91.784,88.916 91.856,89.04 C91.967,89.232 92.109,89.296 92.251,89.268 L94.515,88.804 C95.287,88.646 96.077,88.884 96.634,89.44 C97.189,89.996 97.427,90.788 97.27,91.559 L96.806,93.823 C96.777,93.964 96.842,94.107 96.967,94.179 C97.159,94.29 97.315,94.273 97.422,94.178 L99.151,92.645 C99.584,92.261 100.134,92.056 100.697,92.056 Z M104.039,98.074 C102.955,98.074 102.065,97.433 101.747,96.478 L101.017,94.285 C100.967,94.137 100.851,94.085 100.786,94.068 C100.722,94.051 100.595,94.037 100.478,94.141 L98.749,95.674 C97.996,96.342 96.904,96.451 96.033,95.95 C95.095,95.408 94.645,94.407 94.847,93.421 L95.311,91.157 C95.342,91.004 95.267,90.902 95.219,90.854 C95.171,90.807 95.066,90.732 94.916,90.763 L92.652,91.227 C91.667,91.429 90.665,90.978 90.163,90.107 C89.621,89.169 89.732,88.078 90.399,87.325 L91.933,85.596 C92.037,85.479 92.023,85.352 92.005,85.287 C91.988,85.223 91.937,85.106 91.788,85.057 L89.596,84.327 C88.641,84.008 88,83.119 88,82.112 C88,81.029 88.641,80.139 89.596,79.821 L91.789,79.09 C91.937,79.041 91.988,78.925 92.005,78.86 C92.023,78.795 92.037,78.668 91.933,78.551 L90.399,76.823 C89.732,76.07 89.621,74.979 90.124,74.107 C90.665,73.169 91.669,72.718 92.652,72.921 L94.916,73.384 C95.066,73.414 95.172,73.34 95.219,73.293 C95.267,73.246 95.342,73.143 95.311,72.99 L94.847,70.726 C94.645,69.74 95.095,68.74 95.967,68.236 C96.904,67.695 97.995,67.806 98.748,68.473 L100.478,70.006 C100.596,70.11 100.723,70.096 100.786,70.079 C100.851,70.062 100.967,70.011 101.017,69.862 L101.747,67.67 C102.065,66.715 102.955,66.074 103.961,66.074 C105.045,66.074 105.935,66.715 106.253,67.669 L106.983,69.862 C107.033,70.011 107.149,70.062 107.214,70.079 C107.278,70.096 107.405,70.11 107.522,70.006 L109.251,68.473 C110.003,67.805 111.094,67.695 111.967,68.198 C112.905,68.74 113.355,69.74 113.153,70.726 L112.689,72.99 C112.658,73.143 112.733,73.246 112.781,73.293 C112.828,73.34 112.933,73.413 113.083,73.384 L115.348,72.921 C116.335,72.718 117.334,73.169 117.837,74.04 C118.379,74.979 118.268,76.07 117.601,76.822 L116.067,78.552 C115.963,78.668 115.977,78.795 115.995,78.86 C116.012,78.925 116.063,79.041 116.212,79.09 L118.404,79.821 C119.359,80.139 120,81.029 120,82.035 C120,83.119 119.359,84.008 118.404,84.327 L116.211,85.057 C116.063,85.106 116.012,85.223 115.995,85.287 C115.977,85.352 115.963,85.479 116.067,85.596 L117.601,87.325 C118.268,88.078 118.379,89.169 117.876,90.04 C117.334,90.978 116.333,91.43 115.348,91.227 L113.083,90.763 C112.934,90.733 112.828,90.807 112.781,90.854 C112.733,90.902 112.658,91.004 112.689,91.157 L113.153,93.421 C113.355,94.407 112.905,95.408 112.033,95.911 C111.096,96.452 110.004,96.341 109.251,95.675 L107.522,94.141 C107.405,94.037 107.279,94.051 107.214,94.068 C107.149,94.085 107.033,94.137 106.983,94.286 L106.253,96.477 C105.935,97.433 105.045,98.074 104.039,98.074 Z"/>
    <path fill="#475059" d="M104,80.074 C102.897,80.074 102,80.971 102,82.074 C102,83.177 102.897,84.074 104,84.074 C105.103,84.074 106,83.177 106,82.074 C106,80.971 105.103,80.074 104,80.074 Z M104,86.074 C101.794,86.074 100,84.279 100,82.074 C100,79.868 101.794,78.074 104,78.074 C106.206,78.074 108,79.868 108,82.074 C108,84.279 106.206,86.074 104,86.074 Z"/>
    <path fill="#F58E70" d="M79,172.074 C69.626,172.074 62,179.7 62,189.074 C62,198.448 69.626,206.074 79,206.074 C88.374,206.074 96,198.448 96,189.074 C96,179.7 88.374,172.074 79,172.074 Z M79,208.074 C68.523,208.074 60,199.55 60,189.074 C60,178.597 68.523,170.074 79,170.074 C89.477,170.074 98,178.597 98,189.074 C98,199.55 89.477,208.074 79,208.074 Z"/>
    <path fill="#48515A" d="M79 199.074C78.448 199.074 78 198.626 78 198.074L78 188.073C78 187.521 78.448 187.073 79 187.073L86.001 187.073C86.553 187.073 87.001 187.521 87.001 188.073 87.001 188.625 86.553 189.073 86.001 189.073L80 189.073 80 198.074C80 198.626 79.552 199.074 79 199.074M79 176.074C78.87 176.074 78.74 176.043 78.62 175.994 78.5 175.943 78.39 175.873 78.29 175.784 78.25 175.733 78.21 175.684 78.17 175.634 78.13 175.574 78.1 175.514 78.08 175.454 78.05 175.393 78.03 175.333 78.02 175.273 78.01 175.204 78 175.143 78 175.074 78 174.943 78.03 174.813 78.08 174.693 78.13 174.574 78.2 174.463 78.29 174.364 78.39 174.273 78.5 174.204 78.62 174.153 78.8 174.074 79 174.054 79.2 174.094 79.26 174.103 79.32 174.123 79.38 174.153 79.44 174.173 79.5 174.204 79.56 174.244 79.61 174.273 79.66 174.324 79.71 174.364 79.8 174.463 79.87 174.574 79.92 174.693 79.97 174.813 80 174.943 80 175.074 80 175.143 79.99 175.204 79.98 175.273 79.97 175.333 79.95 175.393 79.92 175.454 79.9 175.514 79.87 175.574 79.83 175.634 79.79 175.684 79.75 175.733 79.71 175.784 79.52 175.963 79.27 176.074 79 176.074M79 204.074C78.74 204.074 78.48 203.963 78.29 203.784 78.25 203.733 78.2 203.684 78.17 203.634 78.13 203.574 78.1 203.514 78.08 203.454 78.05 203.393 78.03 203.333 78.02 203.273 78.01 203.204 78 203.143 78 203.074 78 202.943 78.03 202.813 78.08 202.693 78.13 202.563 78.2 202.454 78.29 202.364 78.39 202.273 78.5 202.204 78.62 202.153 78.99 201.994 79.43 202.083 79.71 202.364 79.89 202.554 80 202.813 80 203.074 80 203.143 79.99 203.204 79.98 203.273 79.97 203.333 79.95 203.393 79.92 203.454 79.9 203.514 79.87 203.574 79.83 203.634 79.79 203.684 79.75 203.733 79.71 203.784 79.52 203.963 79.26 204.074 79 204.074M72 177.954C71.87 177.954 71.74 177.923 71.62 177.873 71.5 177.824 71.39 177.753 71.29 177.653 71.2 177.563 71.13 177.454 71.08 177.333 71.03 177.204 71 177.083 71 176.954 71 176.884 71.01 176.813 71.02 176.753 71.03 176.693 71.05 176.623 71.08 176.563 71.1 176.503 71.13 176.443 71.17 176.393 71.21 176.344 71.25 176.284 71.29 176.244 71.39 176.153 71.5 176.074 71.62 176.023 71.99 175.873 72.43 175.963 72.71 176.244 72.75 176.284 72.79 176.344 72.83 176.393 72.87 176.443 72.9 176.503 72.92 176.563 72.95 176.623 72.97 176.693 72.98 176.753 72.99 176.813 73 176.884 73 176.954 73 177.083 72.97 177.204 72.92 177.333 72.87 177.454 72.8 177.563 72.71 177.653 72.66 177.704 72.61 177.744 72.56 177.784 72.5 177.813 72.44 177.844 72.38 177.873 72.32 177.893 72.26 177.914 72.2 177.934 72.13 177.943 72.07 177.954 72 177.954M86 202.204C85.94 202.204 85.87 202.193 85.81 202.184 85.74 202.164 85.68 202.143 85.62 202.123 85.56 202.094 85.5 202.063 85.44 202.034 85.39 201.994 85.34 201.954 85.29 201.903 85.11 201.724 85 201.463 85 201.204 85 201.063 85.03 200.934 85.08 200.813 85.13 200.693 85.2 200.583 85.29 200.494 85.66 200.123 86.33 200.114 86.71 200.494 86.89 200.673 87 200.934 87 201.204 87 201.463 86.89 201.724 86.71 201.903 86.52 202.094 86.26 202.204 86 202.204M66.87 183.074C66.74 183.074 66.62 183.054 66.49 182.994 66.37 182.943 66.26 182.873 66.17 182.784 65.98 182.594 65.87 182.333 65.87 182.074 65.87 181.943 65.9 181.813 65.95 181.693 66 181.574 66.08 181.463 66.17 181.364 66.26 181.273 66.37 181.204 66.49 181.153 66.74 181.054 67.01 181.054 67.26 181.153 67.38 181.204 67.49 181.273 67.58 181.364 67.67 181.463 67.75 181.574 67.8 181.693 67.85 181.813 67.87 181.943 67.87 182.074 67.87 182.204 67.85 182.333 67.8 182.454 67.75 182.583 67.67 182.684 67.58 182.784 67.49 182.873 67.38 182.943 67.26 182.994 67.14 183.054 67.01 183.074 66.87 183.074M91.12 197.074C91.06 197.074 90.99 197.063 90.93 197.054 90.87 197.043 90.8 197.023 90.74 196.994 90.68 196.974 90.62 196.943 90.57 196.903 90.51 196.864 90.46 196.824 90.42 196.784 90.23 196.594 90.12 196.344 90.12 196.074 90.12 195.943 90.15 195.813 90.2 195.693 90.25 195.563 90.32 195.463 90.42 195.364 90.46 195.324 90.51 195.284 90.57 195.244 90.62 195.204 90.68 195.173 90.74 195.153 90.8 195.123 90.87 195.103 90.93 195.094 91.26 195.034 91.6 195.134 91.83 195.364 91.92 195.463 92 195.563 92.05 195.693 92.1 195.813 92.12 195.943 92.12 196.074 92.12 196.344 92.02 196.594 91.83 196.784 91.64 196.963 91.39 197.074 91.12 197.074M65 190.074C64.87 190.074 64.74 190.043 64.62 189.994 64.49 189.943 64.39 189.873 64.29 189.784 64.2 189.684 64.13 189.583 64.08 189.454 64.03 189.333 64 189.204 64 189.074 64 188.943 64.03 188.813 64.08 188.693 64.13 188.563 64.2 188.463 64.29 188.364 64.38 188.273 64.49 188.204 64.62 188.153 64.86 188.043 65.14 188.043 65.38 188.153 65.51 188.204 65.61 188.273 65.71 188.364 65.8 188.463 65.87 188.563 65.92 188.693 65.97 188.813 66 188.943 66 189.074 66 189.204 65.97 189.333 65.92 189.454 65.87 189.583 65.8 189.684 65.71 189.784 65.61 189.873 65.51 189.943 65.38 189.994 65.26 190.043 65.13 190.074 65 190.074M93 190.074C92.94 190.074 92.87 190.063 92.8 190.054 92.74 190.043 92.68 190.023 92.62 189.994 92.56 189.974 92.5 189.943 92.44 189.903 92.39 189.873 92.34 189.824 92.29 189.784 92.2 189.684 92.13 189.583 92.08 189.454 92.03 189.333 92 189.204 92 189.074 92 188.943 92.03 188.813 92.08 188.693 92.13 188.563 92.2 188.463 92.29 188.364 92.66 187.994 93.34 187.994 93.71 188.364 93.89 188.554 94 188.813 94 189.074 94 189.333 93.89 189.594 93.71 189.784 93.66 189.824 93.61 189.873 93.56 189.903 93.5 189.943 93.44 189.974 93.38 189.994 93.32 190.023 93.26 190.043 93.2 190.054 93.13 190.063 93.06 190.074 93 190.074M66.87 197.074C66.61 197.074 66.36 196.963 66.17 196.784 65.98 196.594 65.87 196.344 65.87 196.074 65.87 195.943 65.9 195.813 65.95 195.693 66 195.563 66.08 195.463 66.17 195.364 66.4 195.134 66.74 195.034 67.07 195.094 67.13 195.103 67.2 195.123 67.26 195.153 67.32 195.173 67.38 195.204 67.43 195.244 67.49 195.284 67.54 195.324 67.58 195.364 67.77 195.554 67.88 195.813 67.88 196.074 67.88 196.333 67.77 196.594 67.58 196.784 67.54 196.824 67.49 196.864 67.43 196.903 67.38 196.943 67.32 196.974 67.26 196.994 67.2 197.023 67.13 197.043 67.07 197.054 67.01 197.063 66.94 197.074 66.87 197.074M91.12 183.074C90.86 183.074 90.6 182.963 90.42 182.784 90.32 182.684 90.25 182.583 90.2 182.454 90.15 182.333 90.13 182.204 90.13 182.074 90.13 181.943 90.15 181.813 90.2 181.693 90.25 181.574 90.32 181.463 90.42 181.364 90.7 181.083 91.14 180.994 91.51 181.153 91.63 181.204 91.74 181.273 91.83 181.364 91.93 181.463 92 181.574 92.05 181.693 92.1 181.813 92.12 181.943 92.12 182.074 92.12 182.333 92.02 182.594 91.83 182.784 91.74 182.873 91.63 182.943 91.51 182.994 91.38 183.054 91.26 183.074 91.12 183.074M72 202.204C71.74 202.204 71.48 202.094 71.29 201.903 71.11 201.713 71 201.463 71 201.204 71 200.934 71.11 200.673 71.29 200.494 71.66 200.123 72.34 200.123 72.71 200.494 72.8 200.583 72.87 200.693 72.92 200.813 72.97 200.934 73 201.063 73 201.204 73 201.463 72.89 201.724 72.71 201.903 72.52 202.094 72.26 202.204 72 202.204M86 177.954C85.87 177.954 85.74 177.923 85.62 177.873 85.5 177.824 85.39 177.753 85.29 177.653 85.2 177.563 85.13 177.454 85.08 177.333 85.03 177.213 85 177.083 85 176.954 85 176.884 85.01 176.813 85.02 176.753 85.03 176.693 85.05 176.623 85.08 176.563 85.1 176.503 85.13 176.443 85.17 176.393 85.2 176.344 85.25 176.284 85.29 176.244 85.39 176.153 85.49 176.074 85.62 176.023 85.99 175.873 86.43 175.963 86.71 176.244 86.89 176.423 87 176.684 87 176.954 87 177.083 86.97 177.213 86.92 177.333 86.87 177.454 86.8 177.563 86.71 177.653 86.66 177.704 86.61 177.744 86.56 177.784 86.5 177.813 86.44 177.844 86.38 177.873 86.32 177.893 86.26 177.914 86.2 177.934 86.13 177.943 86.07 177.954 86 177.954"/>
  </g>
</svg>
