<svg xmlns="http://www.w3.org/2000/svg" width="250" height="250" viewBox="0 0 250 250">
  <g fill="none" fill-rule="evenodd">
    <polyline fill="#5FE0ED" points="65.527 115.985 65.527 86.017 127.527 85.978 127.527 115.985 65.527 115.985"/>
    <path fill="#48515A" d="M99.18,107.865 L93.565,107.865 C91.794,107.865 90.353,106.416 90.353,104.635 L92.353,104.635 C92.353,105.313 92.897,105.865 93.565,105.865 L99.18,105.865 C100.026,105.865 100.714,105.17 100.714,104.315 L100.714,103.355 C100.714,102.51 100.026,101.822 99.18,101.822 L93.644,101.822 C91.695,101.822 90.11,100.237 90.11,98.288 L90.11,97.327 C90.11,95.379 91.695,93.794 93.644,93.794 L99.595,93.794 C101.131,93.794 102.38,95.043 102.38,96.579 L100.38,96.579 C100.38,96.146 100.028,95.794 99.595,95.794 L93.644,95.794 C92.798,95.794 92.11,96.482 92.11,97.327 L92.11,98.288 C92.11,99.134 92.798,99.822 93.644,99.822 L99.18,99.822 C101.129,99.822 102.714,101.407 102.714,103.355 L102.714,104.315 C102.714,106.272 101.129,107.865 99.18,107.865"/>
    <polygon fill="#48515A" points="95.543 109.986 97.543 109.986 97.543 91.986 95.543 91.986"/>
    <polygon fill="#48515A" points="106.541 101.955 112.51 101.955 112.51 99.955 106.541 99.955"/>
    <polygon fill="#48515A" points="106.478 105.987 112.447 105.987 112.447 103.987 106.478 103.987"/>
    <polygon fill="#48515A" points="106.51 97.961 112.479 97.961 112.479 95.961 106.51 95.961"/>
    <polygon fill="#48515A" points="80.545 102.093 86.514 102.093 86.514 100.093 80.545 100.093"/>
    <polygon fill="#48515A" points="80.608 98.062 86.577 98.062 86.577 96.062 80.608 96.062"/>
    <polyline fill="#48515A" points="86.545 106.088 80.576 106.087 80.576 104.087 86.545 104.088 86.545 106.088"/>
    <path fill="#48515A" d="M69.509,111.986 L123.509,111.986 L123.509,89.986 L69.509,89.986 L69.509,111.986 Z M67.509,113.986 L125.509,113.986 L125.509,87.986 L67.509,87.986 L67.509,113.986 Z"/>
    <path fill="#FFD15D" d="M86.51,50.986 C86.51,41.045 78.451,32.986 68.51,32.986 C58.568,32.986 50.51,41.045 50.51,50.986 C50.51,60.928 58.568,68.986 68.51,68.986 C78.451,68.986 86.51,60.928 86.51,50.986"/>
    <path fill="#475059" d="M68.51,65.986 C68.504,65.986 68.499,65.986 68.493,65.986 C64.486,65.981 60.721,64.417 57.891,61.58 C55.061,58.743 53.506,54.975 53.51,50.969 C53.515,46.962 55.08,43.197 57.916,40.367 C60.748,37.542 64.51,35.986 68.509,35.986 C68.516,35.986 68.521,35.986 68.527,35.986 C70.033,35.988 71.519,36.212 72.945,36.653 L73.954,37.07 C74.463,37.283 74.703,37.87 74.489,38.379 C74.276,38.888 73.692,39.129 73.18,38.915 L72.263,38.531 C71.119,38.182 69.831,37.988 68.526,37.986 C68.52,37.986 68.515,37.986 68.509,37.986 C65.043,37.986 61.783,39.334 59.329,41.783 C56.87,44.235 55.514,47.498 55.51,50.97 C55.506,54.443 56.855,57.709 59.307,60.168 C61.759,62.626 65.023,63.982 68.495,63.986 C68.5,63.986 68.505,63.986 68.51,63.986 C75.672,63.987 81.502,58.164 81.51,51.001 C81.514,47.988 80.463,45.051 78.552,42.729 C78.201,42.302 78.262,41.672 78.688,41.321 C79.116,40.97 79.745,41.031 80.096,41.457 C82.302,44.137 83.514,47.527 83.51,51.003 C83.501,59.268 76.773,65.986 68.51,65.986"/>
    <path fill="#475059" d="M71.004,57.96 L65.445,57.96 C63.686,57.96 62.255,56.521 62.255,54.752 C62.255,54.2 62.702,53.752 63.255,53.752 C63.807,53.752 64.255,54.2 64.255,54.752 C64.255,55.418 64.788,55.96 65.445,55.96 L71.004,55.96 C71.835,55.96 72.511,55.276 72.511,54.436 L72.511,53.486 C72.511,52.654 71.835,51.978 71.004,51.978 L65.522,51.978 C63.588,51.978 62.014,50.404 62.014,48.47 L62.014,47.518 C62.014,45.584 63.588,44.011 65.522,44.011 L71.414,44.011 C72.94,44.011 74.181,45.252 74.181,46.778 C74.181,47.33 73.733,47.778 73.181,47.778 C72.629,47.778 72.181,47.33 72.181,46.778 C72.181,46.355 71.837,46.011 71.414,46.011 L65.522,46.011 C64.691,46.011 64.014,46.687 64.014,47.518 L64.014,48.47 C64.014,49.302 64.691,49.978 65.522,49.978 L71.004,49.978 C72.938,49.978 74.511,51.552 74.511,53.486 L74.511,54.436 C74.511,56.379 72.938,57.96 71.004,57.96"/>
    <path fill="#475059" d="M68.543 60.986C67.991 60.986 67.543 60.538 67.543 59.986L67.543 41.986C67.543 41.433 67.991 40.986 68.543 40.986 69.095 40.986 69.543 41.433 69.543 41.986L69.543 59.986C69.543 60.538 69.095 60.986 68.543 60.986M76.52 40.993C76.26 40.993 76 40.893 75.81 40.703 75.63 40.513 75.52 40.263 75.52 39.993 75.52 39.733 75.63 39.473 75.81 39.293 76.19 38.913 76.86 38.913 77.23 39.293 77.42 39.473 77.52 39.733 77.52 39.993 77.52 40.263 77.42 40.513 77.23 40.703 77.04 40.893 76.79 40.993 76.52 40.993"/>
    <path fill="#FFD15D" d="M220.51,82.987 C220.51,69.732 209.764,58.986 196.51,58.986 C183.255,58.986 172.51,69.732 172.51,82.987 C172.51,96.241 183.255,106.987 196.51,106.987 C209.764,106.987 220.51,96.241 220.51,82.987"/>
    <path fill="#475059" d="M196.51,102.653 C196.502,102.653 196.495,102.653 196.487,102.653 C185.644,102.64 176.831,93.807 176.844,82.963 C176.85,77.71 178.902,72.773 182.62,69.063 C186.333,65.359 191.265,63.319 196.51,63.319 C196.518,63.319 196.526,63.319 196.533,63.319 C198.508,63.322 200.456,63.616 202.325,64.193 L203.64,64.739 C204.149,64.952 204.389,65.538 204.175,66.047 C203.962,66.557 203.378,66.797 202.866,66.583 L201.644,66.071 C200.057,65.586 198.306,65.322 196.531,65.319 C196.525,65.319 196.517,65.319 196.51,65.319 C191.798,65.319 187.368,67.151 184.032,70.479 C180.692,73.812 178.849,78.246 178.844,82.965 C178.833,92.707 186.748,100.641 196.489,100.653 C196.496,100.653 196.503,100.653 196.51,100.653 C206.242,100.653 214.166,92.741 214.177,83.007 C214.182,78.912 212.754,74.92 210.156,71.764 C209.806,71.338 209.867,70.708 210.293,70.357 C210.721,70.006 211.35,70.066 211.701,70.493 C214.593,74.006 216.183,78.451 216.177,83.009 C216.164,93.845 207.344,102.652 196.51,102.653"/>
    <path fill="#475059" d="M199.834,91.951 L192.423,91.951 C190.262,91.951 188.503,90.182 188.503,88.008 C188.503,87.455 188.95,87.008 189.503,87.008 C190.056,87.008 190.503,87.455 190.503,88.008 C190.503,89.079 191.364,89.951 192.423,89.951 L199.834,89.951 C201.127,89.951 202.179,88.89 202.179,87.586 L202.179,86.319 C202.179,85.027 201.127,83.975 199.834,83.975 L192.527,83.975 C190.131,83.975 188.183,82.026 188.183,79.631 L188.183,78.362 C188.183,75.967 190.131,74.018 192.527,74.018 L200.382,74.018 C202.233,74.018 203.738,75.524 203.738,77.375 C203.738,77.927 203.291,78.375 202.738,78.375 C202.186,78.375 201.738,77.927 201.738,77.375 C201.738,76.627 201.13,76.018 200.382,76.018 L192.527,76.018 C191.235,76.018 190.183,77.07 190.183,78.362 L190.183,79.631 C190.183,80.924 191.235,81.975 192.527,81.975 L199.834,81.975 C202.23,81.975 204.179,83.924 204.179,86.319 L204.179,87.586 C204.179,89.993 202.23,91.951 199.834,91.951"/>
    <path fill="#475059" d="M196.543 95.986C195.99 95.986 195.543 95.538 195.543 94.986L195.543 70.986C195.543 70.433 195.99 69.986 196.543 69.986 197.096 69.986 197.543 70.433 197.543 70.986L197.543 94.986C197.543 95.538 197.096 95.986 196.543 95.986M207.191 69.333C206.93 69.333 206.67 69.223 206.49 69.043 206.39 68.943 206.32 68.833 206.271 68.713 206.22 68.593 206.191 68.463 206.191 68.333 206.191 68.203 206.22 68.074 206.271 67.953 206.32 67.824 206.39 67.713 206.49 67.623 206.53 67.583 206.58 67.534 206.64 67.503 206.691 67.463 206.75 67.433 206.81 67.413 206.87 67.383 206.93 67.363 207 67.353 207.13 67.324 207.26 67.324 207.39 67.353 207.45 67.363 207.521 67.383 207.58 67.413 207.64 67.433 207.691 67.463 207.75 67.503 207.8 67.534 207.85 67.583 207.901 67.623 208.09 67.813 208.191 68.074 208.191 68.333 208.191 68.463 208.17 68.593 208.12 68.713 208.07 68.833 207.99 68.943 207.901 69.043 207.72 69.223 207.46 69.333 207.191 69.333M98.369 39.54L99.733 40.821 111.034 52.121C113.019 54.106 114.111 56.744 114.111 59.55 114.111 62.356 113.019 64.994 111.034 66.979L97.573 80.44C87.844 90.169 82.487 103.104 82.487 116.863 82.487 125.134 89.215 131.863 97.487 131.863L153.49 131.86C161.759 131.859 168.486 125.131 168.486 116.863 168.486 103.106 163.129 90.172 153.403 80.444L139.933 66.973C137.952 64.992 136.861 62.356 136.861 59.55 136.861 56.743 137.954 54.105 139.939 52.121L150.904 41.156 152.722 39.555 151.895 39.738C148.815 40.421 145.646 40.152 142.727 38.964L141.453 38.445C138.182 37.113 134.581 37.113 131.312 38.445 127.556 39.974 123.417 39.974 119.661 38.445 116.391 37.113 112.79 37.113 109.52 38.445L108.301 38.941C105.343 40.147 102.133 40.405 99.019 39.69L98.369 39.54zM128.986 133.863L97.487 133.863C88.113 133.863 80.486 126.237 80.486 116.863 80.486 102.57 86.052 89.133 96.159 79.026L109.62 65.565C111.227 63.958 112.111 61.822 112.111 59.55 112.111 57.278 111.227 55.142 109.62 53.535L98.342 42.257 94.302 38.467C93.973 38.158 93.891 37.666 94.104 37.267 94.317 36.869 94.77 36.662 95.21 36.763L99.467 37.741C102.178 38.364 104.972 38.138 107.547 37.089L108.766 36.593C112.522 35.063 116.659 35.063 120.415 36.593 123.685 37.925 127.286 37.925 130.558 36.593 134.314 35.063 138.451 35.063 142.207 36.593L143.481 37.111C146.023 38.146 148.784 38.38 151.461 37.786L156.082 36.762C156.531 36.662 156.985 36.879 157.191 37.285 157.398 37.692 157.302 38.187 156.959 38.488L152.272 42.613 141.353 53.535C139.746 55.142 138.861 57.278 138.861 59.55 138.861 61.822 139.744 63.956 141.347 65.559L154.817 79.03C164.921 89.136 170.486 102.572 170.486 116.863 170.486 126.234 162.862 133.859 153.49 133.86L128.986 133.863z"/>
    <path fill="#FFF" d="M103.611,59.49 L147.486,59.49"/>
    <polygon fill="#475059" points="103.611 60.49 147.486 60.49 147.486 58.49 103.611 58.49"/>
    <path fill="#FFF" d="M103.611,63.488 L147.486,63.488"/>
    <polygon fill="#475059" points="103.611 64.488 147.486 64.488 147.486 62.488 103.611 62.488"/>
    <polyline fill="#475059" points="136.904 77.319 125.491 65.906 114.232 77.315 112.808 75.91 125.482 63.068 138.319 75.905 136.904 77.319"/>
    <path fill="#48515A" d="M81.447,196.014 C80.894,196.014 80.447,195.566 80.447,195.014 L80.447,187.746 L54.72,168.675 C53.454,167.736 52.698,166.234 52.698,164.659 L52.698,135.84 L53.698,135.84 C61.54,135.84 62.446,142.1 62.446,146.809 L62.446,159.073 L65.624,161.9 C66.036,162.267 66.073,162.9 65.706,163.312 C65.338,163.724 64.706,163.761 64.294,163.394 L60.447,159.97 L60.447,146.809 C60.447,140.901 58.765,138.237 54.698,137.881 L54.698,164.659 C54.698,165.604 55.152,166.505 55.912,167.069 L82.447,186.739 L82.447,195.014 C82.447,195.566 81.999,196.014 81.447,196.014"/>
    <path fill="#48515A" d="M69.102,161.647 C68.868,161.647 68.633,161.566 68.444,161.4 L64.338,157.809 L64.338,135.083 C64.338,129.099 62.738,126.501 58.696,126.154 L58.696,137.027 C58.696,137.579 58.248,138.027 57.696,138.027 C57.144,138.027 56.696,137.579 56.696,137.027 L56.696,124.113 L57.696,124.113 C65.356,124.113 66.338,129.975 66.338,135.083 L66.338,156.901 L69.76,159.894 C70.176,160.258 70.218,160.89 69.855,161.305 C69.657,161.532 69.38,161.647 69.102,161.647"/>
    <path fill="#48515A" d="M73.104,159.646 C72.871,159.646 72.636,159.565 72.447,159.399 L68.34,155.807 L68.34,132.081 C68.34,126.097 66.74,123.499 62.698,123.152 L62.698,125.196 C62.698,125.748 62.251,126.196 61.698,126.196 C61.146,126.196 60.698,125.748 60.698,125.196 L60.698,121.111 L61.698,121.111 C69.358,121.111 70.34,126.973 70.34,132.081 L70.34,154.9 L73.763,157.894 C74.179,158.257 74.221,158.889 73.857,159.305 C73.66,159.531 73.382,159.646 73.104,159.646"/>
    <polyline fill="#48515A" points="117.29 207.014 115.29 207.014 115.29 196.014 78.292 196.014 78.292 207.014 76.292 207.014 76.292 194.014 117.29 194.014 117.29 207.014"/>
    <path fill="#48515A" d="M113.151 196.014C113.149 196.014 113.147 196.014 113.145 196.014 112.593 196.011 112.148 195.56 112.151 195.008L112.44 140.491C109.134 140.494 106.446 143.184 106.446 146.491L106.446 158.192C106.446 160.766 105.169 163.159 103.029 164.591 100.888 166.023 98.189 166.291 95.81 165.309L78.715 158.116 72.343 152.821 72.343 132.081C72.343 125.626 70.481 123.111 65.701 123.111 65.149 123.111 64.701 122.663 64.701 122.111 64.701 121.559 65.149 121.111 65.701 121.111 73.36 121.111 74.343 126.973 74.343 132.081L74.343 151.882 79.878 156.482 96.577 163.462C98.36 164.198 100.309 164.004 101.917 162.929 103.525 161.852 104.446 160.126 104.446 158.192L104.446 146.491C104.446 142.079 108.035 138.491 112.446 138.491L114.451 138.491 114.151 195.019C114.148 195.569 113.7 196.014 113.151 196.014M168.709 196.014C168.156 196.014 167.709 195.566 167.709 195.014L167.709 186.739 194.244 167.069C195.004 166.505 195.457 165.604 195.457 164.659L195.457 137.881C191.391 138.237 189.709 140.901 189.709 146.809L189.709 159.97 185.862 163.394C185.451 163.76 184.818 163.724 184.45 163.312 184.083 162.9 184.12 162.267 184.532 161.9L187.709 159.073 187.709 146.809C187.709 142.1 188.616 135.84 196.457 135.84L197.457 135.84 197.457 164.659C197.457 166.235 196.701 167.736 195.436 168.675L169.709 187.746 169.709 195.014C169.709 195.566 169.262 196.014 168.709 196.014"/>
    <path fill="#48515A" d="M181.054,161.647 C180.776,161.647 180.499,161.532 180.301,161.305 C179.938,160.89 179.98,160.258 180.396,159.895 L183.818,156.901 L183.818,135.083 C183.818,129.975 184.8,124.113 192.46,124.113 L193.46,124.113 L193.46,137.027 C193.46,137.579 193.013,138.027 192.46,138.027 C191.907,138.027 191.46,137.579 191.46,137.027 L191.46,126.154 C187.418,126.501 185.818,129.099 185.818,135.083 L185.818,157.808 L181.712,161.4 C181.523,161.566 181.288,161.647 181.054,161.647"/>
    <path fill="#48515A" d="M177.051,159.646 C176.773,159.646 176.496,159.531 176.298,159.305 C175.935,158.889 175.977,158.257 176.393,157.893 L179.816,154.899 L179.816,132.081 C179.816,126.973 180.798,121.111 188.457,121.111 L189.457,121.111 L189.457,125.196 C189.457,125.748 189.01,126.196 188.457,126.196 C187.904,126.196 187.457,125.748 187.457,125.196 L187.457,123.152 C183.415,123.499 181.816,126.097 181.816,132.081 L181.816,155.807 L177.709,159.399 C177.52,159.565 177.285,159.646 177.051,159.646"/>
    <polyline fill="#48515A" points="173.863 207.014 171.863 207.014 171.863 196.014 134.865 196.014 134.865 207.014 132.865 207.014 132.865 194.014 173.863 194.014 173.863 207.014"/>
    <path fill="#48515A" d="M137.005,196.014 C136.455,196.014 136.008,195.569 136.005,195.019 L135.705,138.491 L137.709,138.491 C142.12,138.491 145.709,142.079 145.709,146.491 L145.709,158.192 C145.709,160.126 146.631,161.852 148.238,162.929 C149.849,164.005 151.798,164.197 153.582,163.461 L170.278,156.482 L175.813,151.882 L175.813,132.081 C175.813,126.973 176.795,121.111 184.455,121.111 C185.008,121.111 185.455,121.559 185.455,122.111 C185.455,122.663 185.008,123.111 184.455,123.111 C179.675,123.111 177.813,125.626 177.813,132.081 L177.813,152.821 L171.188,158.27 L154.35,165.308 C151.963,166.291 149.266,166.023 147.126,164.591 C144.986,163.159 143.709,160.766 143.709,158.192 L143.709,146.491 C143.709,143.184 141.021,140.494 137.715,140.491 L138.005,195.008 C138.008,195.56 137.563,196.011 137.01,196.014 C137.009,196.014 137.007,196.014 137.005,196.014"/>
    <polygon fill="#5FE0ED" points="71.292 217.014 119.411 217.014 119.411 204.019 71.292 204.019"/>
    <path fill="#48515A" d="M85.291,212.014 L81.292,212.014 C80.74,212.014 80.292,211.566 80.292,211.014 C80.292,210.461 80.74,210.014 81.292,210.014 L85.291,210.014 C85.843,210.014 86.291,210.461 86.291,211.014 C86.291,211.566 85.843,212.014 85.291,212.014"/>
    <path fill="#48515A" d="M79.292,210.014 C78.741,210.014 78.292,210.462 78.292,211.014 C78.292,211.565 78.741,212.014 79.292,212.014 C79.843,212.014 80.292,211.565 80.292,211.014 C80.292,210.462 79.843,210.014 79.292,210.014 Z M79.292,214.014 C77.638,214.014 76.292,212.668 76.292,211.014 C76.292,209.359 77.638,208.014 79.292,208.014 C80.947,208.014 82.292,209.359 82.292,211.014 C82.292,212.668 80.947,214.014 79.292,214.014 Z"/>
    <polygon fill="#5FE0ED" points="130.745 217.014 178.864 217.014 178.864 204.019 130.745 204.019"/>
    <path fill="#48515A" d="M168.863,212.014 L164.865,212.014 C164.313,212.014 163.865,211.566 163.865,211.014 C163.865,210.461 164.313,210.014 164.865,210.014 L168.863,210.014 C169.416,210.014 169.863,210.461 169.863,211.014 C169.863,211.566 169.416,212.014 168.863,212.014"/>
    <path fill="#48515A" d="M170.863,210.014 C170.312,210.014 169.863,210.462 169.863,211.014 C169.863,211.565 170.312,212.014 170.863,212.014 C171.415,212.014 171.863,211.565 171.863,211.014 C171.863,210.462 171.415,210.014 170.863,210.014 Z M170.863,214.014 C169.209,214.014 167.863,212.668 167.863,211.014 C167.863,209.359 169.209,208.014 170.863,208.014 C172.518,208.014 173.863,209.359 173.863,211.014 C173.863,212.668 172.518,214.014 170.863,214.014 Z"/>
    <path fill="#FFD15D" d="M170.864 42.84C170.864 45.152 168.989 47.027 166.677 47.027 164.364 47.027 162.489 45.152 162.489 42.84 162.489 40.527 164.364 38.653 166.677 38.653 168.989 38.653 170.864 40.527 170.864 42.84M147.486 120.049C147.486 118.425 148.802 117.109 150.426 117.109 152.049 117.109 153.365 118.425 153.365 120.049 153.365 121.672 152.049 122.988 150.426 122.988 148.802 122.988 147.486 121.672 147.486 120.049M162.489 139.018C162.489 139.938 161.743 140.684 160.823 140.684 159.902 140.684 159.156 139.938 159.156 139.018 159.156 138.097 159.902 137.351 160.823 137.351 161.743 137.351 162.489 138.097 162.489 139.018M55.985 84.472C55.985 85.657 55.024 86.618 53.839 86.618 52.653 86.618 51.692 85.657 51.692 84.472 51.692 83.286 52.653 82.325 53.839 82.325 55.024 82.325 55.985 83.286 55.985 84.472"/>
    <polygon fill="#48515A" points="35.49 78.009 37.49 78.009 37.49 74.009 35.49 74.009"/>
    <polygon fill="#48515A" points="35.49 88.009 37.49 88.009 37.49 84.009 35.49 84.009"/>
    <polygon fill="#48515A" points="39.49 82.009 43.49 82.009 43.49 80.009 39.49 80.009"/>
    <polygon fill="#48515A" points="29.49 82.009 33.49 82.009 33.49 80.009 29.49 80.009"/>
    <polygon fill="#48515A" points="188.582 42.988 190.582 42.988 190.582 38.988 188.582 38.988"/>
    <polygon fill="#48515A" points="188.582 52.988 190.582 52.988 190.582 48.988 188.582 48.988"/>
    <polygon fill="#48515A" points="192.582 46.988 196.582 46.988 196.582 44.988 192.582 44.988"/>
    <polygon fill="#48515A" points="182.582 46.988 186.582 46.988 186.582 44.988 182.582 44.988"/>
  </g>
</svg>
