<svg xmlns="http://www.w3.org/2000/svg" xmlns:xlink="http://www.w3.org/1999/xlink" width="250" height="250" viewBox="0 0 250 250">
  <defs>
    <path id="cc191-a"/>
    <path id="cc191-b"/>
  </defs>
  <g fill="none" fill-rule="evenodd">
    <path fill="#5FE0ED" d="M169.003 74.866C169.003 76.523 167.66 77.866 166.003 77.866 164.346 77.866 163.003 76.523 163.003 74.866 163.003 73.21 164.346 71.866 166.003 71.866 167.66 71.866 169.003 73.21 169.003 74.866M50.003 142.616C50.003 144.273 48.66 145.616 47.003 145.616 45.346 145.616 44.003 144.273 44.003 142.616 44.003 140.96 45.346 139.616 47.003 139.616 48.66 139.616 50.003 140.96 50.003 142.616"/>
    <path fill="#DFE0E0" d="M150.17,124.95 L136.637,124.95 C130.081,124.95 124.766,121.95 124.766,115.95 L109.044,115.95 L109.044,116.024 C109.044,121.344 105.605,126.016 100.485,127.46 C98.692,127.92 97.044,126.565 97.044,124.714 L97.044,129.717 C97.044,131.568 98.692,132.923 100.485,132.463 C105.605,131.019 109.044,126.347 109.044,121.027 L109.044,120.95 L124.766,120.95 C124.766,126.95 130.081,129.95 136.637,129.95 L157.67,129.95 L150.17,124.95"/>
    <polyline fill="#DFE0E0" points="55.003 131.866 61.754 134.617 85.753 96.617 79.003 91.866 55.003 131.866"/>
    <polyline fill="#DFE0E0" points="193.003 131.033 186.835 135.117 162.837 97.117 169.586 92.366 193.003 131.033"/>
    <path fill="#48515A" d="M99.325 128.548C98.624 128.548 97.973 128.333 97.433 127.915 96.551 127.23 96.044 126.064 96.044 124.714L96.044 112.614C96.044 111.858 96.327 111.305 96.887 110.97L111.933 101.95 155.044 101.95C155.597 101.95 156.044 102.397 156.044 102.95 156.044 103.502 155.597 103.95 155.044 103.95L112.486 103.95 98.044 112.608C98.044 112.61 98.044 112.612 98.044 112.614L98.044 124.714C98.044 125.43 98.274 126.036 98.659 126.334 98.94 126.553 99.309 126.604 99.754 126.491L100.003 126.459 100.291 126.459C104.863 125.108 108.044 120.836 108.044 116.024L108.044 115.024 109.044 114.95 125.766 114.95 125.766 115.95C125.766 121.848 131.382 123.95 136.637 123.95L150.044 123.95C150.597 123.95 151.044 124.397 151.044 124.95 151.044 125.502 150.597 125.95 150.044 125.95L136.637 125.95C129.256 125.95 124.34 122.452 123.813 116.95L110.006 116.95C109.596 122.35 105.886 126.961 100.704 128.422L100.433 128.459 100.12 128.459C99.85 128.519 99.584 128.548 99.325 128.548M80.799 139.617C80.42 139.617 80.058 139.401 79.89 139.034L77.642 134.139 73.986 132.071C73.506 131.799 73.337 131.189 73.609 130.708 73.88 130.228 74.491 130.059 74.972 130.331L79.19 132.717 81.707 138.2C81.937 138.702 81.717 139.295 81.216 139.526 81.08 139.587 80.938 139.617 80.799 139.617M126.682 170.838C125.302 170.838 123.948 170.449 122.754 169.692L119.756 167.926C119.281 167.646 119.122 167.033 119.402 166.557 119.684 166.082 120.295 165.924 120.772 166.204L123.797 167.986C125.035 168.77 126.471 169.019 127.87 168.706 129.268 168.392 130.461 167.553 131.228 166.342 131.996 165.131 132.246 163.695 131.932 162.296 131.619 160.898 130.779 159.705 129.569 158.938L125.745 156.515C125.278 156.219 125.14 155.602 125.435 155.135 125.731 154.668 126.35 154.529 126.815 154.826L130.639 157.249C132.301 158.301 133.454 159.939 133.884 161.859 134.314 163.779 133.971 165.751 132.918 167.413 131.865 169.075 130.227 170.227 128.308 170.658 127.767 170.779 127.223 170.838 126.682 170.838"/>
    <path fill="#48515A" d="M139.769,164.06 C138.389,164.06 137.035,163.67 135.841,162.914 L125.745,156.515 C125.278,156.219 125.14,155.602 125.435,155.135 C125.731,154.668 126.35,154.529 126.815,154.826 L136.912,161.224 C138.123,161.992 139.561,162.244 140.957,161.927 C142.356,161.614 143.549,160.775 144.316,159.564 C145.083,158.353 145.333,156.917 145.019,155.518 C144.706,154.12 143.867,152.927 142.656,152.16 L132.56,145.761 C132.094,145.465 131.955,144.848 132.251,144.381 C132.547,143.914 133.164,143.776 133.631,144.072 L143.726,150.47 C145.389,151.523 146.541,153.161 146.971,155.081 C147.402,157 147.059,158.972 146.005,160.634 C144.952,162.296 143.315,163.449 141.395,163.879 C140.854,164 140.31,164.06 139.769,164.06"/>
    <path fill="#48515A" d="M152.857,157.282 C151.477,157.282 150.122,156.891 148.928,156.134 L132.56,145.761 C132.094,145.465 131.955,144.848 132.251,144.381 C132.547,143.914 133.164,143.776 133.631,144.072 L149.999,154.445 C151.21,155.212 152.645,155.46 154.045,155.149 C155.443,154.835 156.636,153.997 157.403,152.786 C158.171,151.575 158.421,150.138 158.107,148.74 C157.793,147.341 156.954,146.149 155.744,145.381 L139.375,135.007 C138.909,134.711 138.77,134.094 139.066,133.627 C139.362,133.161 139.98,133.022 140.446,133.318 L156.814,143.692 C158.476,144.745 159.628,146.382 160.059,148.302 C160.489,150.222 160.146,152.194 159.093,153.856 C158.039,155.518 156.402,156.67 154.482,157.101 C153.942,157.222 153.398,157.282 152.857,157.282"/>
    <path fill="#48515A" d="M171.291 146.61L171.301 146.61 171.291 146.61zM165.91 150.508C164.553 150.508 163.184 150.138 161.963 149.362L139.374 135.006C138.908 134.71 138.77 134.092 139.067 133.626 139.363 133.161 139.981 133.023 140.447 133.319L163.036 147.674C165.512 149.249 168.823 148.537 170.435 146.091L170.454 146.062C171.252 144.836 171.517 143.375 171.199 141.946 170.881 140.518 170.022 139.306 168.779 138.535L149.336 126.456C148.867 126.164 148.723 125.547 149.014 125.079 149.305 124.608 149.92 124.465 150.392 124.756L169.834 136.835C171.538 137.893 172.716 139.554 173.151 141.512 173.582 143.451 173.231 145.434 172.162 147.104L172.129 147.156C170.717 149.324 168.335 150.508 165.91 150.508zM50.486 126.635L68.189 138.174 92.359 102.204 74.656 90.665 50.486 126.635zM68.749 140.926L47.695 127.204 74.095 87.914 95.15 101.635 68.749 140.926z"/>
    <path fill="#48515A" d="M169 138.327C168.855 138.327 168.708 138.295 168.569 138.229 168.071 137.99 167.86 137.393 168.099 136.895L170.102 132.712 173.773 130.636C174.252 130.366 174.863 130.533 175.136 131.014 175.407 131.495 175.238 132.105 174.757 132.376L171.634 134.144 169.903 137.758C169.731 138.118 169.373 138.327 169 138.327M83.173 139.197C81.507 139.197 79.873 140.02 78.912 141.526 77.415 143.871 78.105 146.997 80.45 148.494L80.733 148.674C83.077 150.17 86.203 149.481 87.701 147.136 89.197 144.792 88.507 141.666 86.162 140.168L85.879 139.988C85.04 139.453 84.102 139.197 83.173 139.197zM83.436 151.464C82.14 151.464 80.829 151.108 79.657 150.36L79.658 150.36 79.374 150.179C76.1 148.088 75.137 143.724 77.227 140.45 79.317 137.175 83.68 136.211 86.956 138.302L87.239 138.483C90.513 140.574 91.477 144.938 89.386 148.212 88.044 150.315 85.763 151.464 83.436 151.464zM114.502 159.191C114.138 159.191 113.77 159.231 113.405 159.312 112.089 159.602 110.965 160.388 110.24 161.524 109.515 162.66 109.276 164.01 109.566 165.326 109.857 166.642 110.642 167.766 111.778 168.491L112.061 168.671C113.197 169.397 114.547 169.635 115.864 169.345 117.18 169.055 118.304 168.269 119.029 167.133 119.754 165.998 119.993 164.647 119.703 163.332 119.412 162.015 118.626 160.891 117.49 160.167L117.207 159.986C116.386 159.461 115.454 159.191 114.502 159.191zM114.762 171.466C113.434 171.466 112.132 171.089 110.986 170.357L110.703 170.176C109.116 169.165 108.019 167.594 107.613 165.757 107.208 163.919 107.542 162.034 108.555 160.448 109.567 158.862 111.137 157.764 112.974 157.359 114.812 156.954 116.698 157.287 118.284 158.3L118.567 158.481C120.153 159.493 121.25 161.062 121.655 162.9 122.061 164.738 121.727 166.623 120.714 168.209 119.702 169.795 118.132 170.893 116.294 171.298 115.785 171.411 115.272 171.466 114.762 171.466z"/>
    <path fill="#48515A" d="M96.696,141.042 C94.975,141.042 93.287,141.893 92.294,143.449 L89.382,148.01 C88.633,149.184 88.386,150.58 88.686,151.939 C88.986,153.299 89.798,154.46 90.972,155.209 C93.394,156.756 96.622,156.042 98.171,153.621 L101.082,149.059 C101.831,147.885 102.079,146.49 101.779,145.13 C101.478,143.77 100.667,142.609 99.493,141.86 C98.626,141.306 97.656,141.042 96.696,141.042 Z M93.765,158.027 C92.437,158.027 91.095,157.661 89.895,156.895 C88.271,155.859 87.148,154.251 86.733,152.371 C86.318,150.489 86.66,148.558 87.697,146.934 L90.608,142.373 C92.748,139.021 97.217,138.035 100.569,140.174 C102.193,141.21 103.316,142.818 103.731,144.699 C104.147,146.581 103.805,148.511 102.768,150.135 L99.856,154.697 C98.482,156.849 96.147,158.027 93.765,158.027 Z"/>
    <path fill="#48515A" d="M108.993 144.872C108.616 144.872 108.236 144.913 107.859 144.997 106.5 145.296 105.338 146.108 104.589 147.282L99.856 154.697C99.107 155.871 98.86 157.265 99.16 158.625 99.46 159.985 100.272 161.146 101.446 161.895 102.62 162.645 104.015 162.894 105.374 162.591 106.734 162.292 107.895 161.48 108.645 160.306L113.377 152.892C114.126 151.718 114.374 150.323 114.074 148.963 113.773 147.603 112.962 146.442 111.788 145.693 110.94 145.151 109.975 144.872 108.993 144.872zM104.237 164.716C102.877 164.716 101.543 164.331 100.37 163.581 98.745 162.544 97.622 160.937 97.207 159.056 96.792 157.174 97.134 155.245 98.171 153.621L102.903 146.206C103.94 144.582 105.547 143.458 107.429 143.043 109.311 142.628 111.241 142.97 112.864 144.007 114.488 145.043 115.611 146.651 116.027 148.532 116.442 150.414 116.1 152.344 115.063 153.968L110.33 161.382C109.294 163.006 107.687 164.129 105.806 164.544 105.284 164.66 104.759 164.716 104.237 164.716zM112.044 103.95L94.044 103.95C93.492 103.95 93.044 103.502 93.044 102.95 93.044 102.397 93.492 101.95 94.044 101.95L112.044 101.95C112.597 101.95 113.044 102.397 113.044 102.95 113.044 103.502 112.597 103.95 112.044 103.95M156.216 102.212L180.386 138.183 197.263 127.44 173.094 91.47 156.216 102.212zM179.813 140.917L153.412 101.626 173.666 88.736 200.067 128.026 179.813 140.917z"/>
    <g transform="translate(131 136)"/>
    <path fill="#48515A" d="M131.953,137.83 C131.693,137.83 131.443,137.719 131.253,137.53 C131.153,137.44 131.083,137.33 131.033,137.209 C130.983,137.089 130.953,136.959 130.953,136.83 C130.953,136.7 130.983,136.57 131.033,136.45 C131.083,136.32 131.153,136.219 131.253,136.12 C131.343,136.03 131.453,135.959 131.573,135.9 C131.813,135.809 132.093,135.799 132.343,135.9 C132.463,135.959 132.573,136.03 132.663,136.12 C132.753,136.219 132.833,136.32 132.883,136.45 C132.933,136.57 132.953,136.7 132.953,136.83 C132.953,136.959 132.933,137.089 132.883,137.209 C132.833,137.33 132.753,137.44 132.663,137.53 C132.573,137.629 132.463,137.7 132.343,137.75 C132.213,137.799 132.093,137.83 131.953,137.83"/>
    <g transform="translate(125 147)"/>
    <path fill="#48515A" d="M125.343,148.219 C125.073,148.219 124.823,148.12 124.633,147.929 C124.543,147.83 124.473,147.719 124.423,147.599 C124.373,147.48 124.343,147.349 124.343,147.219 C124.343,147.089 124.373,146.959 124.423,146.839 C124.473,146.719 124.543,146.61 124.633,146.509 C124.733,146.419 124.833,146.349 124.963,146.299 C125.333,146.139 125.773,146.23 126.053,146.509 C126.143,146.61 126.213,146.719 126.263,146.839 C126.313,146.959 126.343,147.089 126.343,147.219 C126.343,147.349 126.313,147.48 126.263,147.599 C126.213,147.719 126.143,147.83 126.053,147.929 C125.863,148.12 125.613,148.219 125.343,148.219"/>
    <path fill="#475059" d="M71.426,154.698 C65.503,154.698 60.685,159.516 60.685,165.439 C60.685,171.362 65.503,176.18 71.426,176.18 C77.349,176.18 82.167,171.362 82.167,165.439 C82.167,159.516 77.349,154.698 71.426,154.698 Z M71.426,178.18 C64.4,178.18 58.684,172.464 58.684,165.439 C58.684,158.414 64.4,152.698 71.426,152.698 C78.451,152.698 84.167,158.414 84.167,165.439 C84.167,172.464 78.451,178.18 71.426,178.18 Z"/>
    <path fill="#475059" d="M71.425,154.698 C68.54,154.698 66.102,159.617 66.102,165.439 C66.102,171.261 68.54,176.18 71.425,176.18 C74.31,176.18 76.747,171.261 76.747,165.439 C76.747,159.617 74.31,154.698 71.425,154.698 Z M71.425,178.18 C67.319,178.18 64.102,172.583 64.102,165.439 C64.102,158.294 67.319,152.698 71.425,152.698 C75.531,152.698 78.747,158.294 78.747,165.439 C78.747,172.583 75.531,178.18 71.425,178.18 Z"/>
    <polygon fill="#475059" points="60.044 165.95 83.044 165.95 83.044 163.95 60.044 163.95"/>
    <path fill="#FFD15D" d="M163.003,159.866 C163.003,160.971 162.108,161.866 161.003,161.866 C159.899,161.866 159.003,160.971 159.003,159.866 C159.003,158.762 159.899,157.866 161.003,157.866 C162.108,157.866 163.003,158.762 163.003,159.866"/>
    <polyline fill="#5FE0ED" points="193.624 137.149 220.997 117.726 190.362 72.15 162.99 91.573 193.624 137.149"/>
    <polyline fill="#5FE0ED" points="55.562 136.335 29.003 117.726 59.638 72.15 86.197 90.759 55.562 136.335"/>
    <polygon fill="#48515A" points="147.044 175.95 149.044 175.95 149.044 171.95 147.044 171.95"/>
    <polygon fill="#48515A" points="147.044 185.95 149.044 185.95 149.044 181.95 147.044 181.95"/>
    <polygon fill="#48515A" points="151.044 179.95 155.044 179.95 155.044 177.95 151.044 177.95"/>
    <polygon fill="#48515A" points="141.044 179.95 145.044 179.95 145.044 177.95 141.044 177.95"/>
    <path fill="#475059" d="M168.915,188.965 L186.998,188.965 L186.998,162.965 L168.915,162.965 L168.915,188.965 Z M166.915,190.965 L188.998,190.965 L188.998,160.965 L166.915,160.965 L166.915,190.965 Z"/>
    <path fill="#475059" d="M172.915 168.965L182.998 168.965 182.998 166.965 172.915 166.965 172.915 168.965zM170.915 170.965L184.998 170.965 184.998 164.965 170.915 164.965 170.915 170.965zM170.998 174.923L172.998 174.923 172.998 172.923 170.998 172.923 170.998 174.923zM170.998 178.923L172.998 178.923 172.998 176.923 170.998 176.923 170.998 178.923zM170.998 182.923L172.998 182.923 172.998 180.923 170.998 180.923 170.998 182.923zM170.998 186.923L172.998 186.923 172.998 184.923 170.998 184.923 170.998 186.923zM174.998 174.923L176.998 174.923 176.998 172.923 174.998 172.923 174.998 174.923zM174.998 178.923L176.998 178.923 176.998 176.923 174.998 176.923 174.998 178.923zM174.998 182.923L176.998 182.923 176.998 180.923 174.998 180.923 174.998 182.923zM174.998 186.923L176.998 186.923 176.998 184.923 174.998 184.923 174.998 186.923zM178.998 174.923L180.998 174.923 180.998 172.923 178.998 172.923 178.998 174.923zM178.998 178.923L180.998 178.923 180.998 176.923 178.998 176.923 178.998 178.923zM178.998 182.923L180.998 182.923 180.998 180.923 178.998 180.923 178.998 182.923zM178.998 186.923L180.998 186.923 180.998 184.923 178.998 184.923 178.998 186.923zM182.998 174.923L184.998 174.923 184.998 172.923 182.998 172.923 182.998 174.923zM182.998 178.923L184.998 178.923 184.998 176.923 182.998 176.923 182.998 178.923z"/>
    <path fill="#FFF" d="M183.998,180.924 L183.998,186.965"/>
    <polygon fill="#475059" points="182.998 186.965 184.998 186.965 184.998 180.923 182.998 180.923"/>
    <polygon fill="#48515A" points="127.03 61.035 149.03 61.035 149.03 59.035 127.03 59.035"/>
    <path fill="#48515A" d="M110.13,91.035 C110.595,93.314 112.615,95.035 115.03,95.035 L132.135,95.035 C131.062,93.984 130.325,92.591 130.101,91.035 L110.13,91.035 Z M137.03,97.035 L115.03,97.035 C111.17,97.035 108.03,93.894 108.03,90.035 L108.03,89.035 L132.03,89.035 L132.03,90.035 C132.03,92.791 134.273,95.035 137.03,95.035 C139.787,95.035 142.03,92.791 142.03,90.035 L142.03,66.035 L144.03,66.035 L144.03,90.035 C144.03,93.894 140.89,97.035 137.03,97.035 Z"/>
    <path fill="#48515A" d="M122.03,90.035 L120.03,90.035 L120.03,66.035 C120.03,62.175 123.17,59.035 127.03,59.035 C130.55,59.035 133.472,61.647 133.958,65.035 L153.929,65.035 C153.465,62.755 151.444,61.035 149.03,61.035 L149.03,59.035 C152.89,59.035 156.03,62.175 156.03,66.035 L156.03,67.035 L132.03,67.035 L132.03,66.035 C132.03,63.278 129.787,61.035 127.03,61.035 C124.273,61.035 122.03,63.278 122.03,66.035 L122.03,90.035"/>
  </g>
</svg>
