<svg xmlns="http://www.w3.org/2000/svg" width="250" height="250" viewBox="0 0 250 250">
  <g fill="none" fill-rule="evenodd">
    <polyline fill="#DEDEDD" points="195.022 163.514 86.952 163.508 81.895 162.291 91.208 173.514 195.022 173.514 195.022 163.514"/>
    <polygon fill="#F58E70" points="84.018 90.501 195.016 90.501 195.016 68.5 84.018 68.5"/>
    <path fill="#475059" d="M93.012 75.5L93.012 73.5C97.423 73.5 101.012 69.911 101.012 65.5 101.012 61.089 97.423 57.5 93.012 57.5 88.601 57.5 85.012 61.089 85.012 65.5L83.012 65.5C83.012 59.986 87.498 55.5 93.012 55.5 98.525 55.5 103.012 59.986 103.012 65.5 103.012 71.014 98.525 75.5 93.012 75.5M116.015 75.5L116.015 73.5C120.426 73.5 124.015 69.911 124.015 65.5 124.015 61.089 120.426 57.5 116.015 57.5 111.604 57.5 108.015 61.089 108.015 65.5L106.015 65.5C106.015 59.986 110.501 55.5 116.015 55.5 121.528 55.5 126.015 59.986 126.015 65.5 126.015 71.014 121.528 75.5 116.015 75.5M139.018 75.5L139.018 73.5C143.429 73.5 147.018 69.911 147.018 65.5 147.018 61.089 143.429 57.5 139.018 57.5 134.606 57.5 131.018 61.089 131.018 65.5L129.018 65.5C129.018 59.986 133.504 55.5 139.018 55.5 144.531 55.5 149.018 59.986 149.018 65.5 149.018 71.014 144.531 75.5 139.018 75.5"/>
    <path fill="#475059" d="M82.017 66.5L81.952 157.509C81.952 160.265 84.195 162.508 86.952 162.508 89.709 162.508 91.952 160.265 91.952 157.508L91.952 156.508 197.017 156.508 197.017 66.5 82.017 66.5zM91.847 162.508L204.022 162.508C206.438 162.508 208.457 160.787 208.922 158.508L93.881 158.508C93.657 160.064 92.92 161.457 91.847 162.508zM204.022 164.508L86.952 164.508C83.093 164.508 79.952 161.367 79.952 157.508L80.019 64.5 199.017 64.5 199.017 156.508 211.022 156.508 211.022 157.508C211.022 161.367 207.882 164.508 204.022 164.508zM39.013 155.507L68.02 155.507 68.02 66.499 67.745 66.499 39.012 154.665 39.013 155.507zM70.02 157.507L37.015 157.507 37.012 154.349 37.061 154.197 66.294 64.499 70.02 64.499 70.02 157.507z"/>
    <polygon fill="#475059" points="72.016 174.51 74.016 174.51 74.016 64.5 72.016 64.5"/>
    <path fill="#475059" d="M162.021 75.5L162.021 73.5C166.433 73.5 170.021 69.911 170.021 65.5 170.021 61.089 166.433 57.5 162.021 57.5 157.61 57.5 154.021 61.089 154.021 65.5L152.021 65.5C152.021 59.986 156.508 55.5 162.021 55.5 167.535 55.5 172.021 59.986 172.021 65.5 172.021 71.014 167.535 75.5 162.021 75.5M185.024 75.5L185.024 73.5C189.436 73.5 193.024 69.911 193.024 65.5 193.024 61.089 189.436 57.5 185.024 57.5 180.613 57.5 177.024 61.089 177.024 65.5L175.024 65.5C175.024 59.986 179.511 55.5 185.024 55.5 190.538 55.5 195.024 59.986 195.024 65.5 195.024 71.014 190.538 75.5 185.024 75.5M93.998 120.493L101.998 120.493 101.998 112.493 93.998 112.493 93.998 120.493zM91.998 122.493L103.998 122.493 103.998 110.493 91.998 110.493 91.998 122.493zM93.998 106.501L101.998 106.501 101.998 98.501 93.998 98.501 93.998 106.501zM91.998 108.501L103.998 108.501 103.998 96.501 91.998 96.501 91.998 108.501zM93.998 134.501L101.998 134.501 101.998 126.501 93.998 126.501 93.998 134.501zM91.998 136.501L103.998 136.501 103.998 124.501 91.998 124.501 91.998 136.501zM93.998 148.493L101.998 148.493 101.998 140.493 93.998 140.493 93.998 148.493zM91.998 150.493L103.998 150.493 103.998 138.493 91.998 138.493 91.998 150.493zM107.99 120.493L115.99 120.493 115.99 112.493 107.99 112.493 107.99 120.493zM105.99 122.493L117.99 122.493 117.99 110.493 105.99 110.493 105.99 122.493zM107.99 106.501L115.99 106.501 115.99 98.501 107.99 98.501 107.99 106.501zM105.99 108.501L117.99 108.501 117.99 96.501 105.99 96.501 105.99 108.501zM107.99 134.501L115.99 134.501 115.99 126.501 107.99 126.501 107.99 134.501zM105.99 136.501L117.99 136.501 117.99 124.501 105.99 124.501 105.99 136.501zM107.99 148.493L115.99 148.493 115.99 140.493 107.99 140.493 107.99 148.493zM105.99 150.493L117.99 150.493 117.99 138.493 105.99 138.493 105.99 150.493zM121.99 120.493L129.99 120.493 129.99 112.493 121.99 112.493 121.99 120.493zM119.99 122.493L131.99 122.493 131.99 110.493 119.99 110.493 119.99 122.493zM121.99 106.501L129.99 106.501 129.99 98.501 121.99 98.501 121.99 106.501zM119.99 108.501L131.99 108.501 131.99 96.501 119.99 96.501 119.99 108.501zM121.99 134.501L129.99 134.501 129.99 126.501 121.99 126.501 121.99 134.501zM119.99 136.501L131.99 136.501 131.99 124.501 119.99 124.501 119.99 136.501zM121.99 148.493L129.99 148.493 129.99 140.493 121.99 140.493 121.99 148.493zM119.99 150.493L131.99 150.493 131.99 138.493 119.99 138.493 119.99 150.493zM135.99 120.493L143.99 120.493 143.99 112.493 135.99 112.493 135.99 120.493zM133.99 122.493L145.99 122.493 145.99 110.493 133.99 110.493 133.99 122.493zM135.99 106.501L143.99 106.501 143.99 98.501 135.99 98.501 135.99 106.501zM133.99 108.501L145.99 108.501 145.99 96.501 133.99 96.501 133.99 108.501zM135.99 134.501L143.99 134.501 143.99 126.501 135.99 126.501 135.99 134.501zM133.99 136.501L145.99 136.501 145.99 124.501 133.99 124.501 133.99 136.501zM135.99 148.493L143.99 148.493 143.99 140.493 135.99 140.493 135.99 148.493zM133.99 150.493L145.99 150.493 145.99 138.493 133.99 138.493 133.99 150.493zM149.99 120.493L157.99 120.493 157.99 112.493 149.99 112.493 149.99 120.493zM147.99 122.493L159.99 122.493 159.99 110.493 147.99 110.493 147.99 122.493zM149.99 106.501L157.99 106.501 157.99 98.501 149.99 98.501 149.99 106.501zM147.99 108.501L159.99 108.501 159.99 96.501 147.99 96.501 147.99 108.501zM149.99 134.501L157.99 134.501 157.99 126.501 149.99 126.501 149.99 134.501zM147.99 136.501L159.99 136.501 159.99 124.501 147.99 124.501 147.99 136.501zM149.99 148.493L157.99 148.493 157.99 140.493 149.99 140.493 149.99 148.493zM147.99 150.493L159.99 150.493 159.99 138.493 147.99 138.493 147.99 150.493zM163.99 120.493L171.99 120.493 171.99 112.493 163.99 112.493 163.99 120.493zM161.99 122.493L173.99 122.493 173.99 110.493 161.99 110.493 161.99 122.493zM163.99 106.501L171.99 106.501 171.99 98.501 163.99 98.501 163.99 106.501zM161.99 108.501L173.99 108.501 173.99 96.501 161.99 96.501 161.99 108.501zM163.99 134.501L171.99 134.501 171.99 126.501 163.99 126.501 163.99 134.501zM161.99 136.501L173.99 136.501 173.99 124.501 161.99 124.501 161.99 136.501zM163.99 148.493L171.99 148.493 171.99 140.493 163.99 140.493 163.99 148.493zM161.99 150.493L173.99 150.493 173.99 138.493 161.99 138.493 161.99 150.493zM177.99 120.493L185.99 120.493 185.99 112.493 177.99 112.493 177.99 120.493zM175.99 122.493L187.99 122.493 187.99 110.493 175.99 110.493 175.99 122.493zM177.99 106.501L185.99 106.501 185.99 98.501 177.99 98.501 177.99 106.501zM175.99 108.501L187.99 108.501 187.99 96.501 175.99 96.501 175.99 108.501zM177.99 134.501L185.99 134.501 185.99 126.501 177.99 126.501 177.99 134.501zM175.99 136.501L187.99 136.501 187.99 124.501 175.99 124.501 175.99 136.501zM177.99 148.493L185.99 148.493 185.99 140.493 177.99 140.493 177.99 148.493zM175.99 150.493L187.99 150.493 187.99 138.493 175.99 138.493 175.99 150.493z"/>
    <polyline fill="#F58E70" points="66.019 153.507 66.019 78.25 41.496 153.507 66.019 153.507"/>
    <polyline fill="#475059" points="196.167 174.499 76.018 174.499 76.018 64.5 78.018 64.5 78.018 172.499 194.167 172.499 194.167 163.835 196.167 163.835 196.167 174.499"/>
    <path fill="#475059" d="M53.964,180.522 C52.31,180.522 50.964,181.868 50.964,183.522 C50.964,185.177 52.31,186.522 53.964,186.522 L131.142,186.522 L137.648,183.522 L131.142,180.522 L53.964,180.522 Z M131.581,188.522 L53.964,188.522 C51.207,188.522 48.964,186.279 48.964,183.522 C48.964,180.766 51.207,178.522 53.964,178.522 L131.581,178.522 L142.424,183.522 L131.581,188.522 Z"/>
    <polygon fill="#475059" points="59.574 187.522 61.574 187.522 61.574 179.925 59.574 179.925"/>
    <polygon fill="#475059" points="60.574 184.494 130.593 184.494 130.593 182.494 60.574 182.494"/>
    <path fill="#F58E70" d="M169,181.5 C162.935,181.5 158,186.435 158,192.5 C158,198.565 162.935,203.5 169,203.5 C175.065,203.5 180,198.565 180,192.5 C180,186.435 175.065,181.5 169,181.5 Z M169,205.5 C161.832,205.5 156,199.668 156,192.5 C156,185.332 161.832,179.5 169,179.5 C176.168,179.5 182,185.332 182,192.5 C182,199.668 176.168,205.5 169,205.5 Z"/>
    <polyline fill="#48515A" points="170.016 197.505 168.016 197.505 168.016 192.071 171.399 188.776 172.794 190.21 170.016 192.915 170.016 197.505"/>
    <polygon fill="#F58E70" points="168.097 185.493 170.097 185.493 170.097 183.493 168.097 183.493"/>
    <polygon fill="#F58E70" points="168.097 201.493 170.097 201.493 170.097 199.493 168.097 199.493"/>
    <polygon fill="#F58E70" points="176.097 193.493 178.097 193.493 178.097 191.493 176.097 191.493"/>
    <polygon fill="#F58E70" points="160.097 193.493 162.097 193.493 162.097 191.493 160.097 191.493"/>
    <polygon fill="#48515A" points="35 94.5 37 94.5 37 90.5 35 90.5"/>
    <polygon fill="#48515A" points="35 104.5 37 104.5 37 100.5 35 100.5"/>
    <polygon fill="#48515A" points="39 98.5 43 98.5 43 96.5 39 96.5"/>
    <polygon fill="#48515A" points="29 98.5 33 98.5 33 96.5 29 96.5"/>
    <polygon fill="#48515A" points="213 130.5 215 130.5 215 126.5 213 126.5"/>
    <polygon fill="#48515A" points="213 140.5 215 140.5 215 136.5 213 136.5"/>
    <polygon fill="#48515A" points="217 134.5 221 134.5 221 132.5 217 132.5"/>
    <polygon fill="#48515A" points="207 134.5 211 134.5 211 132.5 207 132.5"/>
    <polygon fill="#48515A" points="203 50.5 205 50.5 205 46.5 203 46.5"/>
    <polygon fill="#48515A" points="203 60.5 205 60.5 205 56.5 203 56.5"/>
    <polygon fill="#48515A" points="207 54.5 211 54.5 211 52.5 207 52.5"/>
    <polygon fill="#48515A" points="197 54.5 201 54.5 201 52.5 197 52.5"/>
    <path fill="#FFD15D" d="M213 93.5C213 95.157 211.657 96.5 210 96.5 208.343 96.5 207 95.157 207 93.5 207 91.843 208.343 90.5 210 90.5 211.657 90.5 213 91.843 213 93.5M47 167.5C47 169.157 45.657 170.5 44 170.5 42.343 170.5 41 169.157 41 167.5 41 165.843 42.343 164.5 44 164.5 45.657 164.5 47 165.843 47 167.5M53 66.5C53 67.605 52.105 68.5 51 68.5 49.895 68.5 49 67.605 49 66.5 49 65.395 49.895 64.5 51 64.5 52.105 64.5 53 65.395 53 66.5M51 84.5C51 86.709 49.209 88.5 47 88.5 44.791 88.5 43 86.709 43 84.5 43 82.291 44.791 80.5 47 80.5 49.209 80.5 51 82.291 51 84.5M155 46.5C155 47.605 154.105 48.5 153 48.5 151.895 48.5 151 47.605 151 46.5 151 45.395 151.895 44.5 153 44.5 154.105 44.5 155 45.395 155 46.5M187 181.5C187 179.843 188.343 178.5 190 178.5 191.657 178.5 193 179.843 193 181.5 193 183.157 191.657 184.5 190 184.5 188.343 184.5 187 183.157 187 181.5"/>
  </g>
</svg>
