<svg xmlns="http://www.w3.org/2000/svg" width="250" height="250" viewBox="0 0 250 250">
  <g fill="none" fill-rule="evenodd">
    <path fill="#FFD15D" d="M158.883,172.502 L158.883,106.502 L191.886,106.502 L191.886,92.321 C191.886,89.564 189.643,87.321 186.886,87.321 L62.886,87.321 C60.129,87.321 57.886,89.564 57.886,92.321 L57.886,176.345 L61.886,176.345 L187.886,176.333 L191.886,176.333 L191.886,172.502 L158.883,172.502"/>
    <polygon fill="#FFD15D" points="162.884 84.275 170.884 84.275 170.884 73.278 162.884 73.278"/>
    <polygon fill="#FFD15D" points="78.883 84.275 86.883 84.275 86.883 73.278 78.883 73.278"/>
    <path fill="#48515A" d="M55.886 176.169L53.886 176.169 53.886 92.321C53.886 87.358 57.924 83.321 62.886 83.321L186.886 83.321C191.849 83.321 195.886 87.358 195.886 92.321L195.886 106.502 193.886 106.502 193.886 92.321C193.886 88.462 190.745 85.321 186.886 85.321L62.886 85.321C59.026 85.321 55.886 88.462 55.886 92.321L55.886 176.169M143.886 79.497L149.886 79.497 149.886 70.27C149.886 64.205 144.951 59.27 138.886 59.27L110.886 59.27C104.821 59.27 99.886 64.205 99.886 70.27L99.886 79.497 105.886 79.497 105.886 70.27C105.886 67.514 108.129 65.271 110.886 65.271L138.886 65.271C141.643 65.271 143.886 67.514 143.886 70.27L143.886 79.497zM151.886 81.497L141.886 81.497 141.886 70.27C141.886 68.616 140.54 67.27 138.886 67.27L110.886 67.27C109.232 67.27 107.886 68.616 107.886 70.27L107.886 81.497 97.886 81.497 97.886 70.27C97.886 63.102 103.718 57.271 110.886 57.271L138.886 57.271C146.054 57.271 151.886 63.102 151.886 70.27L151.886 81.497z"/>
    <path fill="#FFD15D" d="M103.886,81.271 L103.886,70.271 C103.886,66.411 107.026,63.271 110.886,63.271 L138.886,63.271 C142.746,63.271 145.886,66.411 145.886,70.271 L145.886,81.271 L147.886,81.271 L147.886,70.271 C147.886,65.308 143.849,61.271 138.886,61.271 L110.886,61.271 C105.923,61.271 101.886,65.308 101.886,70.271 L101.886,81.271 L103.886,81.271"/>
    <polygon fill="#FFF" points="85.89 177.502 139.89 177.502 139.89 105.502 85.89 105.502"/>
    <path fill="#FFF" d="M130.879,105.502 L130.879,176.502"/>
    <polygon fill="#475059" points="129.879 176.502 131.879 176.502 131.879 105.502 129.879 105.502"/>
    <polygon fill="#FFF" points="74.883 176.502 126.883 176.502 126.883 106.502 74.883 106.502"/>
    <path fill="#475059" d="M75.883,175.502 L125.883,175.502 L125.883,107.502 L75.883,107.502 L75.883,175.502 Z M73.883,177.502 L127.883,177.502 L127.883,105.502 L73.883,105.502 L73.883,177.502 Z"/>
    <path fill="#FFF" d="M82.883,134.502 L118.883,134.502"/>
    <polygon fill="#475059" points="82.883 135.502 118.883 135.502 118.883 133.502 82.883 133.502"/>
    <path fill="#FFF" d="M82.883,138.502 L118.883,138.502"/>
    <polygon fill="#475059" points="82.883 139.502 118.883 139.502 118.883 137.502 82.883 137.502"/>
    <path fill="#FFF" d="M82.883,142.502 L118.883,142.502"/>
    <polygon fill="#475059" points="82.883 143.502 118.883 143.502 118.883 141.502 82.883 141.502"/>
    <path fill="#FFF" d="M134.882,105.502 L134.882,176.502"/>
    <polygon fill="#475059" points="133.882 176.502 135.882 176.502 135.882 105.502 133.882 105.502"/>
    <path fill="#FFF" d="M138.884,105.502 L138.884,176.502"/>
    <polygon fill="#475059" points="137.884 176.502 139.884 176.502 139.884 105.502 137.884 105.502"/>
    <polygon fill="#48515A" points="212.883 79.497 214.883 79.497 214.883 75.497 212.883 75.497"/>
    <polygon fill="#48515A" points="212.883 89.497 214.883 89.497 214.883 85.497 212.883 85.497"/>
    <polygon fill="#48515A" points="216.883 83.497 220.883 83.497 220.883 81.497 216.883 81.497"/>
    <polygon fill="#48515A" points="206.883 83.497 210.883 83.497 210.883 81.497 206.883 81.497"/>
    <polygon fill="#48515A" points="35.116 130.497 37.116 130.497 37.116 126.497 35.116 126.497"/>
    <polygon fill="#48515A" points="35.116 140.497 37.116 140.497 37.116 136.497 35.116 136.497"/>
    <polygon fill="#48515A" points="39.116 134.497 43.116 134.497 43.116 132.497 39.116 132.497"/>
    <polygon fill="#48515A" points="29.116 134.497 33.116 134.497 33.116 132.497 29.116 132.497"/>
    <path fill="#5FE0ED" d="M194.873,136.561 L200.873,136.561 L200.873,130.561 L194.873,130.561 L194.873,136.561 Z M194.873,146.559 L200.873,146.559 L200.873,140.559 L194.873,140.559 L194.873,146.559 Z M200.873,156.556 L200.873,166.554 L194.873,166.554 L194.873,150.556 L200.873,150.556 L200.873,156.556 Z M184.876,136.561 L190.876,136.561 L190.876,130.561 L184.876,130.561 L184.876,136.561 Z M184.876,146.559 L190.876,146.559 L190.876,140.559 L184.876,140.559 L184.876,146.559 Z M184.876,156.556 L190.876,156.556 L190.876,150.556 L184.876,150.556 L184.876,156.556 Z M184.876,166.554 L190.876,166.554 L190.876,160.554 L184.876,160.554 L184.876,166.554 Z M174.878,136.561 L180.878,136.561 L180.878,130.561 L174.878,130.561 L174.878,136.561 Z M174.878,146.559 L180.878,146.559 L180.878,140.559 L174.878,140.559 L174.878,146.559 Z M174.878,156.556 L180.878,156.556 L180.878,150.556 L174.878,150.556 L174.878,156.556 Z M174.878,166.554 L180.878,166.554 L180.878,160.554 L174.878,160.554 L174.878,166.554 Z M164.881,136.561 L170.881,136.561 L170.881,130.561 L164.881,130.561 L164.881,136.561 Z M164.881,146.559 L170.881,146.559 L170.881,140.559 L164.881,140.559 L164.881,146.559 Z M164.881,156.556 L170.881,156.556 L170.881,150.556 L164.881,150.556 L164.881,156.556 Z M164.881,166.554 L170.881,166.554 L170.881,160.554 L164.881,160.554 L164.881,166.554 Z M160.883,170.552 L204.871,170.552 L204.871,126.564 L160.883,126.564 L160.883,170.552 Z"/>
    <path fill="#475059" d="M165.881 135.562L169.881 135.562 169.881 131.562 165.881 131.562 165.881 135.562zM163.881 137.562L171.881 137.562 171.881 129.562 163.881 129.562 163.881 137.562zM165.881 145.559L169.881 145.559 169.881 141.559 165.881 141.559 165.881 145.559zM163.881 147.559L171.881 147.559 171.881 139.559 163.881 139.559 163.881 147.559zM165.881 155.557L169.881 155.557 169.881 151.557 165.881 151.557 165.881 155.557zM163.881 157.557L171.881 157.557 171.881 149.557 163.881 149.557 163.881 157.557zM165.881 165.554L169.881 165.554 169.881 161.554 165.881 161.554 165.881 165.554zM163.881 167.554L171.881 167.554 171.881 159.554 163.881 159.554 163.881 167.554zM175.878 135.562L179.878 135.562 179.878 131.562 175.878 131.562 175.878 135.562zM173.878 137.562L181.878 137.562 181.878 129.562 173.878 129.562 173.878 137.562zM175.878 145.559L179.878 145.559 179.878 141.559 175.878 141.559 175.878 145.559zM173.878 147.559L181.878 147.559 181.878 139.559 173.878 139.559 173.878 147.559zM175.878 155.557L179.878 155.557 179.878 151.557 175.878 151.557 175.878 155.557zM173.878 157.557L181.878 157.557 181.878 149.557 173.878 149.557 173.878 157.557zM175.878 165.554L179.878 165.554 179.878 161.554 175.878 161.554 175.878 165.554zM173.878 167.554L181.878 167.554 181.878 159.554 173.878 159.554 173.878 167.554zM185.876 135.562L189.876 135.562 189.876 131.562 185.876 131.562 185.876 135.562zM183.876 137.562L191.876 137.562 191.876 129.562 183.876 129.562 183.876 137.562zM185.876 145.559L189.876 145.559 189.876 141.559 185.876 141.559 185.876 145.559zM183.876 147.559L191.876 147.559 191.876 139.559 183.876 139.559 183.876 147.559zM185.876 155.557L189.876 155.557 189.876 151.557 185.876 151.557 185.876 155.557zM183.876 157.557L191.876 157.557 191.876 149.557 183.876 149.557 183.876 157.557zM185.876 165.554L189.876 165.554 189.876 161.554 185.876 161.554 185.876 165.554zM183.876 167.554L191.876 167.554 191.876 159.554 183.876 159.554 183.876 167.554zM195.873 135.562L199.873 135.562 199.873 131.562 195.873 131.562 195.873 135.562zM193.873 137.562L201.873 137.562 201.873 129.562 193.873 129.562 193.873 137.562zM195.873 145.559L199.873 145.559 199.873 141.559 195.873 141.559 195.873 145.559zM193.873 147.559L201.873 147.559 201.873 139.559 193.873 139.559 193.873 147.559zM195.873 165.554L199.873 165.554 199.873 151.557 195.873 151.557 195.873 165.554zM193.873 167.554L201.873 167.554 201.873 149.557 193.873 149.557 193.873 167.554z"/>
    <path fill="#FFF" d="M160.883,126.564 L204.871,126.564"/>
    <polygon fill="#475059" points="160.883 127.563 204.871 127.563 204.871 125.563 160.883 125.563"/>
    <polygon fill="#FFD15D" points="164.881 123.567 200.873 123.567 200.873 112.582 164.881 112.582"/>
    <path fill="#FFF" d="M195.872,118.567 L167.879,118.567"/>
    <path fill="#475059" d="M169.871,119.567 L171.871,119.567 L171.871,117.567 L169.871,117.567 L169.871,119.567 Z M173.871,119.567 L175.871,119.567 L175.871,117.567 L173.871,117.567 L173.871,119.567 Z M177.871,119.567 L179.871,119.567 L179.871,117.567 L177.871,117.567 L177.871,119.567 Z M181.871,119.567 L183.871,119.567 L183.871,117.567 L181.871,117.567 L181.871,119.567 Z M185.871,119.567 L187.871,119.567 L187.871,117.567 L185.871,117.567 L185.871,119.567 Z M189.871,119.567 L191.871,119.567 L191.871,117.567 L189.871,117.567 L189.871,119.567 Z M193.871,119.567 L195.871,119.567 L195.871,117.567 L193.871,117.567 L193.871,119.567 Z"/>
    <polyline fill="#475059" points="204.87 126.517 202.87 126.517 202.87 110.524 162.882 110.524 162.882 126.517 160.882 126.517 160.882 108.524 204.87 108.524 204.87 126.517"/>
    <polygon fill="#48515A" points="154.883 204.5 156.883 204.5 156.883 200.5 154.883 200.5"/>
    <polygon fill="#48515A" points="154.883 214.5 156.883 214.5 156.883 210.5 154.883 210.5"/>
    <polygon fill="#48515A" points="158.883 208.5 162.883 208.5 162.883 206.5 158.883 206.5"/>
    <polygon fill="#48515A" points="148.883 208.5 152.883 208.5 152.883 206.5 148.883 206.5"/>
    <polygon fill="#48515A" points="94.883 81.497 110.883 81.497 110.883 79.497 94.883 79.497"/>
    <polygon fill="#48515A" points="139.133 81.497 155.133 81.497 155.133 79.497 139.133 79.497"/>
    <path fill="#475059" d="M195.862,49.497 C190.899,49.497 186.862,53.534 186.862,58.497 C186.862,63.46 190.899,67.497 195.862,67.497 C200.824,67.497 204.862,63.46 204.862,58.497 C204.862,53.534 200.824,49.497 195.862,49.497 Z M195.862,69.497 C189.796,69.497 184.862,64.562 184.862,58.497 C184.862,52.432 189.796,47.497 195.862,47.497 C201.927,47.497 206.862,52.432 206.862,58.497 C206.862,64.562 201.927,69.497 195.862,69.497 Z M195.862,43.497 C187.59,43.497 180.862,50.226 180.862,58.497 C180.862,66.769 187.59,73.497 195.862,73.497 C204.133,73.497 210.862,66.769 210.862,58.497 C210.862,50.226 204.133,43.497 195.862,43.497 Z M195.862,75.497 C186.488,75.497 178.862,67.871 178.862,58.497 C178.862,49.123 186.488,41.497 195.862,41.497 C205.236,41.497 212.862,49.123 212.862,58.497 C212.862,67.871 205.236,75.497 195.862,75.497 Z"/>
    <path fill="#475059" d="M195.862,55.497 C194.207,55.497 192.862,56.843 192.862,58.497 C192.862,60.151 194.207,61.497 195.862,61.497 C197.516,61.497 198.862,60.151 198.862,58.497 C198.862,56.843 197.516,55.497 195.862,55.497 Z M195.862,63.497 C193.105,63.497 190.862,61.254 190.862,58.497 C190.862,55.74 193.105,53.497 195.862,53.497 C198.618,53.497 200.862,55.74 200.862,58.497 C200.862,61.254 198.618,63.497 195.862,63.497 Z"/>
    <path fill="#F58E70" d="M195.861,54.497 C193.652,54.497 191.861,56.288 191.861,58.497 C191.861,60.707 193.652,62.497 195.861,62.497 C198.071,62.497 199.861,60.707 199.861,58.497 C199.861,56.288 198.071,54.497 195.861,54.497"/>
    <path fill="#F58E70" d="M195.862,55.497 C194.207,55.497 192.862,56.843 192.862,58.497 C192.862,60.151 194.207,61.497 195.862,61.497 C197.516,61.497 198.862,60.151 198.862,58.497 C198.862,56.843 197.516,55.497 195.862,55.497 Z M195.862,63.497 C193.105,63.497 190.862,61.254 190.862,58.497 C190.862,55.74 193.105,53.497 195.862,53.497 C198.618,53.497 200.862,55.74 200.862,58.497 C200.862,61.254 198.618,63.497 195.862,63.497 Z"/>
    <polygon fill="#475059" points="168.903 59.916 195.903 59.916 195.903 57.916 168.903 57.916"/>
    <path fill="#475059" d="M162.277,61.916 L165.448,61.916 L168.448,58.916 L165.448,55.916 L162.277,55.916 L165.277,58.916 L162.277,61.916 Z M166.277,63.916 L157.448,63.916 L162.448,58.916 L157.448,53.916 L166.277,53.916 L171.277,58.916 L166.277,63.916 Z"/>
    <path fill="#F58E70" d="M54.883,33.497 C42.201,33.497 31.883,43.814 31.883,56.497 C31.883,69.18 42.201,79.497 54.883,79.497 C67.565,79.497 77.883,69.18 77.883,56.497 C77.883,43.814 67.565,33.497 54.883,33.497 Z M54.883,81.497 C41.098,81.497 29.883,70.282 29.883,56.497 C29.883,42.712 41.098,31.497 54.883,31.497 C68.668,31.497 79.883,42.712 79.883,56.497 C79.883,70.282 68.668,81.497 54.883,81.497 Z"/>
    <path fill="#48515A" d="M74.914,57.508 L70.914,57.508 C70.362,57.508 69.914,57.06 69.914,56.508 C69.914,55.955 70.362,55.508 70.914,55.508 L74.914,55.508 C75.466,55.508 75.914,55.955 75.914,56.508 C75.914,57.06 75.466,57.508 74.914,57.508"/>
    <path fill="#48515A" d="M74.914 57.508L70.914 57.508C70.362 57.508 69.914 57.06 69.914 56.508 69.914 55.955 70.362 55.508 70.914 55.508L74.914 55.508C75.466 55.508 75.914 55.955 75.914 56.508 75.914 57.06 75.466 57.508 74.914 57.508M64.999 74.981C64.654 74.981 64.318 74.803 64.132 74.481L62.354 71.402C62.078 70.924 62.242 70.313 62.721 70.036 63.197 69.76 63.81 69.923 64.087 70.402L65.865 73.481C66.14 73.96 65.977 74.571 65.498 74.848 65.341 74.939 65.169 74.981 64.999 74.981M69.02 49.053C68.674 49.053 68.338 48.873 68.153 48.553 67.877 48.074 68.041 47.463 68.519 47.186L71.598 45.409C72.076 45.133 72.687 45.298 72.964 45.775 73.24 46.254 73.076 46.865 72.598 47.142L69.519 48.919C69.361 49.01 69.189 49.053 69.02 49.053M72.429 67.307C72.259 67.307 72.088 67.264 71.93 67.173L68.851 65.395C68.373 65.118 68.209 64.507 68.486 64.028 68.761 63.549 69.374 63.386 69.851 63.662L72.93 65.44C73.409 65.717 73.573 66.328 73.296 66.807 73.111 67.128 72.775 67.307 72.429 67.307M62.947 42.842C62.778 42.842 62.605 42.799 62.448 42.708 61.969 42.432 61.806 41.82 62.082 41.342L63.86 38.263C64.136 37.783 64.747 37.619 65.226 37.896 65.704 38.173 65.868 38.784 65.592 39.263L63.814 42.342C63.629 42.663 63.293 42.842 62.947 42.842"/>
    <polyline fill="#48515A" points="55.914 68.508 53.914 68.508 53.914 54.508 63.914 54.508 63.914 56.508 55.914 56.508 55.914 68.508"/>
    <path fill="#48515A" d="M54.914 40.508C54.362 40.508 53.914 40.061 53.914 39.508L53.914 36.508C53.914 35.955 54.362 35.508 54.914 35.508 55.466 35.508 55.914 35.955 55.914 36.508L55.914 39.508C55.914 40.061 55.466 40.508 54.914 40.508M54.914 77.508C54.362 77.508 53.914 77.061 53.914 76.508L53.914 73.508C53.914 72.955 54.362 72.508 54.914 72.508 55.466 72.508 55.914 72.955 55.914 73.508L55.914 76.508C55.914 77.061 55.466 77.508 54.914 77.508M38.914 57.508L34.914 57.508C34.362 57.508 33.914 57.06 33.914 56.508 33.914 55.955 34.362 55.508 34.914 55.508L38.914 55.508C39.466 55.508 39.914 55.955 39.914 56.508 39.914 57.06 39.466 57.508 38.914 57.508"/>
    <path fill="#48515A" d="M54.914 40.508C54.362 40.508 53.914 40.061 53.914 39.508L53.914 36.508C53.914 35.955 54.362 35.508 54.914 35.508 55.466 35.508 55.914 35.955 55.914 36.508L55.914 39.508C55.914 40.061 55.466 40.508 54.914 40.508M54.914 77.508C54.362 77.508 53.914 77.061 53.914 76.508L53.914 73.508C53.914 72.955 54.362 72.508 54.914 72.508 55.466 72.508 55.914 72.955 55.914 73.508L55.914 76.508C55.914 77.061 55.466 77.508 54.914 77.508M38.914 57.508L34.914 57.508C34.362 57.508 33.914 57.06 33.914 56.508 33.914 55.955 34.362 55.508 34.914 55.508L38.914 55.508C39.466 55.508 39.914 55.955 39.914 56.508 39.914 57.06 39.466 57.508 38.914 57.508M44.717 74.981C44.548 74.981 44.376 74.939 44.218 74.848 43.74 74.571 43.576 73.96 43.852 73.481L45.63 70.402C45.907 69.923 46.517 69.76 46.996 70.036 47.475 70.313 47.638 70.924 47.363 71.402L45.585 74.481C45.399 74.803 45.063 74.981 44.717 74.981M40.697 49.053C40.528 49.053 40.356 49.01 40.199 48.919L37.119 47.142C36.641 46.865 36.477 46.254 36.753 45.775 37.029 45.298 37.639 45.133 38.119 45.409L41.198 47.186C41.676 47.463 41.841 48.074 41.565 48.553 41.379 48.873 41.043 49.053 40.697 49.053M37.288 67.307C36.942 67.307 36.606 67.128 36.421 66.807 36.145 66.328 36.308 65.717 36.787 65.44L39.866 63.662C40.343 63.385 40.956 63.55 41.232 64.028 41.508 64.507 41.344 65.118 40.866 65.395L37.787 67.173C37.63 67.264 37.457 67.307 37.288 67.307M46.77 42.842C46.425 42.842 46.089 42.663 45.903 42.342L44.125 39.263C43.849 38.784 44.013 38.173 44.491 37.896 44.968 37.619 45.581 37.783 45.858 38.263L47.636 41.342C47.911 41.82 47.748 42.432 47.269 42.708 47.112 42.799 46.94 42.842 46.77 42.842M202.884 216.503L204.884 216.503 204.884 212.478 205.718 212.337C207.368 212.059 208.893 211.428 210.249 210.462L210.938 209.971 213.783 212.816 215.198 211.402 212.352 208.558 212.843 207.868C213.81 206.51 214.441 204.985 214.717 203.338L214.858 202.503 218.884 202.503 218.884 200.503 214.858 200.503 214.717 199.668C214.441 198.021 213.81 196.496 212.843 195.138L212.352 194.448 215.198 191.604 213.783 190.189 210.939 193.033 210.249 192.543C208.893 191.577 207.368 190.946 205.718 190.669L204.884 190.528 204.884 186.503 202.884 186.503 202.884 190.528 202.05 190.669C200.401 190.946 198.875 191.577 197.518 192.543L196.828 193.033 193.985 190.189 192.57 191.604 195.415 194.448 194.924 195.138C193.957 196.496 193.326 198.021 193.05 199.668L192.909 200.503 188.884 200.503 188.884 202.503 192.909 202.503 193.05 203.338C193.326 204.985 193.957 206.51 194.924 207.868L195.415 208.558 192.57 211.402 193.985 212.816 196.828 209.971 197.518 210.462C198.875 211.429 200.4 212.06 202.05 212.337L202.884 212.478 202.884 216.503zM206.884 218.503L200.884 218.503 200.884 214.142C199.527 213.822 198.248 213.294 197.067 212.563L193.985 215.645 189.741 211.402 192.824 208.319C192.092 207.137 191.564 205.858 191.245 204.503L186.884 204.503 186.884 198.503 191.245 198.503C191.564 197.147 192.092 195.869 192.824 194.687L189.741 191.604 193.985 187.361 197.067 190.443C198.249 189.712 199.528 189.184 200.884 188.864L200.884 184.503 206.884 184.503 206.884 188.864C208.24 189.184 209.519 189.712 210.7 190.443L213.783 187.361 218.026 191.604 214.943 194.687C215.675 195.869 216.203 197.147 216.522 198.503L220.884 198.503 220.884 204.503 216.522 204.503C216.203 205.858 215.675 207.137 214.943 208.319L218.026 211.402 213.783 215.645 210.7 212.563C209.52 213.293 208.241 213.822 206.884 214.142L206.884 218.503z"/>
    <path fill="#48515A" d="M203.884,198.503 C202.23,198.503 200.884,199.849 200.884,201.503 C200.884,203.157 202.23,204.503 203.884,204.503 C205.538,204.503 206.884,203.157 206.884,201.503 C206.884,199.849 205.538,198.503 203.884,198.503 Z M203.884,206.503 C201.127,206.503 198.884,204.26 198.884,201.503 C198.884,198.746 201.127,196.503 203.884,196.503 C206.641,196.503 208.884,198.746 208.884,201.503 C208.884,204.26 206.641,206.503 203.884,206.503 Z"/>
    <path fill="#FFF" d="M82.883,116.502 L92.883,116.502"/>
    <polygon fill="#475059" points="82.883 117.502 92.883 117.502 92.883 115.502 82.883 115.502"/>
    <path fill="#FFF" d="M82.883,120.502 L98.883,120.502"/>
    <polygon fill="#475059" points="82.883 121.502 98.883 121.502 98.883 119.502 82.883 119.502"/>
    <path fill="#FFF" d="M112.883,116.502 L118.889,116.502"/>
    <polygon fill="#475059" points="112.883 117.502 118.889 117.502 118.889 115.502 112.883 115.502"/>
    <path fill="#FFF" d="M118.889,120.502 L114.883,120.502"/>
    <polygon fill="#475059" points="114.883 121.502 118.889 121.502 118.889 119.502 114.883 119.502"/>
    <path fill="#FFF" d="M88.883,126.502 L118.889,126.502"/>
    <polygon fill="#475059" points="88.883 127.502 118.889 127.502 118.889 125.502 88.883 125.502"/>
    <path fill="#FFF" d="M82.883,130.836 L118.883,130.836"/>
    <polygon fill="#475059" points="82.883 131.836 118.883 131.836 118.883 129.836 82.883 129.836"/>
    <path fill="#FFF" d="M88.883,150.502 L118.883,150.502"/>
    <polygon fill="#475059" points="88.883 151.502 118.883 151.502 118.883 149.502 88.883 149.502"/>
    <path fill="#FFF" d="M82.883,154.169 L118.883,154.169"/>
    <polygon fill="#475059" points="82.883 155.169 118.883 155.169 118.883 153.169 82.883 153.169"/>
    <path fill="#FFF" d="M82.883,158.169 L118.883,158.169"/>
    <polygon fill="#475059" points="82.883 159.169 118.883 159.169 118.883 157.169 82.883 157.169"/>
    <path fill="#FFF" d="M82.883,162.169 L118.883,162.169"/>
    <polygon fill="#475059" points="82.883 163.169 118.883 163.169 118.883 161.169 82.883 161.169"/>
    <path fill="#475059" d="M184.876,193.5 L43.883,193.5 C42.229,193.5 40.883,192.154 40.883,190.5 L40.883,178.501 C40.883,176.847 42.229,175.501 43.883,175.501 L205.889,175.501 C207.543,175.501 208.889,176.847 208.889,178.501 L208.889,182.674 L206.889,182.674 L206.889,178.501 C206.889,177.949 206.441,177.501 205.889,177.501 L43.883,177.501 C43.332,177.501 42.883,177.949 42.883,178.501 L42.883,190.5 C42.883,191.052 43.332,191.5 43.883,191.5 L184.876,191.5 L184.876,193.5"/>
    <polygon fill="#FFD15D" points="72.883 187.501 88.883 187.501 88.883 181.501 72.883 181.501"/>
    <polygon fill="#FFD15D" points="160.889 187.501 176.889 187.501 176.889 181.501 160.889 181.501"/>
  </g>
</svg>
