<svg xmlns="http://www.w3.org/2000/svg" width="250" height="250" viewBox="0 0 250 250">
  <g fill="none" fill-rule="evenodd">
    <path fill="#FFD15D" d="M93.99 132.382C93.99 135.417 91.53 137.877 88.495 137.877 85.46 137.877 83 135.417 83 132.382 83 129.347 85.46 126.887 88.495 126.887 91.53 126.887 93.99 129.347 93.99 132.382M193.99 170.382C193.99 173.417 191.53 175.877 188.495 175.877 185.46 175.877 183 173.417 183 170.382 183 167.347 185.46 164.887 188.495 164.887 191.53 164.887 193.99 167.347 193.99 170.382"/>
    <path fill="#475059" d="M88.602,120.245 C94.404,120.245 100.204,121.915 105.271,125.258 L105.35,125.311 L109.493,122.95 C118.891,117.596 130.518,117.681 139.837,123.173 L143.462,125.309 L143.976,124.979 C154.118,118.449 167.149,118.561 177.177,125.266 L177.206,125.284 L177.27,125.242 C187.059,118.824 199.546,118.629 209.488,124.633 C208.952,105.791 200.22,88.49 184.764,75.742 C168.983,62.727 147.676,55.56 124.768,55.56 C77.98,55.56 41.174,85.76 40.048,124.648 C49.936,118.786 62.201,119.006 71.897,125.283 C76.97,121.925 82.787,120.245 88.602,120.245 Z M211.515,128.358 L209.631,127.095 C200.17,120.736 187.899,120.666 178.366,126.915 L177.194,127.683 L176.066,126.928 C166.7,120.668 154.529,120.563 145.059,126.66 L143.509,127.658 L138.822,124.896 C130.118,119.767 119.259,119.688 110.483,124.688 L105.273,127.656 L104.169,126.928 C94.684,120.668 82.439,120.688 72.972,126.971 L71.89,127.688 L71.335,127.311 C61.78,120.824 49.396,120.772 39.784,127.177 L38.022,128.354 L38.022,126.483 C38.022,85.592 76.126,53.56 124.768,53.56 C148.139,53.56 169.898,60.89 186.036,74.199 C202.466,87.75 211.515,106.318 211.515,126.483 L211.515,128.358 Z"/>
    <path fill="#475059" d="M178.201,126.483 L176.201,126.483 C176.201,106.836 170.794,88.754 160.978,75.568 C151.371,62.665 138.434,55.56 124.549,55.56 C110.664,55.56 97.727,62.665 88.12,75.568 C78.303,88.754 72.896,106.836 72.896,126.483 L70.896,126.483 C70.896,106.408 76.443,87.902 86.516,74.374 C96.509,60.951 110.016,53.56 124.549,53.56 C139.082,53.56 152.588,60.951 162.582,74.374 C172.654,87.902 178.201,106.408 178.201,126.483"/>
    <path fill="#475059" d="M144.486,126.483 L142.486,126.483 C142.486,106.708 140.513,88.506 136.93,75.231 C133.556,62.729 128.988,55.56 124.399,55.56 C119.81,55.56 115.243,62.729 111.868,75.231 C108.286,88.506 106.313,106.708 106.313,126.483 L104.313,126.483 C104.313,84.91 112.948,53.56 124.399,53.56 C135.851,53.56 144.486,84.91 144.486,126.483"/>
    <polygon fill="#475059" points="124.166 53.844 126.166 53.844 126.166 43.877 124.166 43.877"/>
    <polygon fill="#475059" points="124.166 181.877 126.166 181.877 126.166 119.844 124.166 119.844"/>
    <path fill="#F58E70" d="M183.491,77.655 C174.775,70.466 164.272,65.072 152.649,61.758 C156.874,64.987 160.764,68.954 164.186,73.549 C173.616,86.215 179.204,103.235 180.067,121.772 C188.696,117.671 198.638,117.604 207.292,121.58 C205.854,104.691 197.491,89.201 183.491,77.655"/>
    <path fill="#FFF" d="M134.59,59.264 C141.474,70.395 145.947,93.589 146.435,121.702 C155.186,117.493 165.275,117.456 174.052,121.599 C173.178,104.428 168.019,88.746 159.374,77.132 C152.503,67.906 144.015,61.806 134.59,59.264"/>
    <path fill="#F58E70" d="M96.097 62.034C65.789 71.081 44.631 94.127 42.247 121.625 46.438 119.74 50.937 118.796 55.435 118.796 60.076 118.796 64.718 119.799 69.029 121.807 69.887 103.258 75.476 86.223 84.912 73.549 88.235 69.086 92.006 65.212 96.097 62.034M124.433 57.935L124.302 57.939C121.729 57.996 117.397 62.792 113.799 76.122 110.589 88.016 108.679 104.079 108.364 121.66L108.503 121.581C118.382 115.954 130.57 115.964 140.432 121.576 140.113 104.027 138.204 87.996 134.999 76.122 131.393 62.759 127.053 57.973 124.433 57.935"/>
    <path fill="#FFF" d="M89.724,77.132 C81.073,88.752 75.914,104.446 75.044,121.629 C79.297,119.649 83.923,118.614 88.602,118.614 C93.357,118.614 98.054,119.682 102.363,121.724 C102.848,93.707 107.297,70.546 114.145,59.372 C104.86,61.973 96.498,68.035 89.724,77.132"/>
    <polygon fill="#5FE0ED" points="54.899 205.655 118.9 205.655 118.9 176.655 54.899 176.655"/>
    <polygon fill="#5FE0ED" points="54.899 178.155 118.9 178.155 118.9 146.153 54.899 146.153"/>
    <path fill="#48515A" d="M58.91,174.154 L114.91,174.154 L114.91,150.154 L58.91,150.154 L58.91,174.154 Z M56.91,176.154 L116.91,176.154 L116.91,148.154 L56.91,148.154 L56.91,176.154 Z"/>
    <path fill="#48515A" d="M89.822,169.236 L84.298,169.236 C82.547,169.236 81.122,167.804 81.122,166.043 L83.122,166.043 C83.122,166.701 83.649,167.236 84.298,167.236 L89.822,167.236 C90.645,167.236 91.314,166.56 91.314,165.729 L91.314,164.784 C91.314,163.961 90.645,163.292 89.822,163.292 L84.376,163.292 C82.45,163.292 80.883,161.726 80.883,159.8 L80.883,158.854 C80.883,156.929 82.45,155.362 84.376,155.362 L90.23,155.362 C91.749,155.362 92.986,156.599 92.986,158.118 L90.986,158.118 C90.986,157.701 90.647,157.362 90.23,157.362 L84.376,157.362 C83.553,157.362 82.883,158.031 82.883,158.854 L82.883,159.8 C82.883,160.623 83.553,161.292 84.376,161.292 L89.822,161.292 C91.748,161.292 93.314,162.858 93.314,164.784 L93.314,165.729 C93.314,167.663 91.748,169.236 89.822,169.236"/>
    <polygon fill="#48515A" points="86.399 171.154 88.399 171.154 88.399 153.154 86.399 153.154"/>
    <polygon fill="#48515A" points="96.91 161.154 103.91 161.154 103.91 159.154 96.91 159.154"/>
    <polygon fill="#48515A" points="96.91 165.154 103.91 165.154 103.91 163.154 96.91 163.154"/>
    <polygon fill="#48515A" points="71.91 161.154 78.91 161.154 78.91 159.154 71.91 159.154"/>
    <polygon fill="#48515A" points="71.91 165.154 78.91 165.154 78.91 163.154 71.91 163.154"/>
    <path fill="#48515A" d="M57.879 158.653L57.879 156.653C62.015 156.653 65.379 153.289 65.379 149.153L67.379 149.153C67.379 154.392 63.118 158.653 57.879 158.653M67.379 175.164L65.379 175.164C65.379 171.028 62.015 167.664 57.879 167.664L57.879 165.664C63.118 165.664 67.379 169.926 67.379 175.164M116.41 158.653C111.171 158.653 106.91 154.392 106.91 149.153L108.91 149.153C108.91 153.289 112.274 156.653 116.41 156.653L116.41 158.653M108.91 175.164L106.91 175.164C106.91 169.926 111.171 165.664 116.41 165.664L116.41 167.664C112.274 167.664 108.91 171.028 108.91 175.164"/>
    <polygon fill="#48515A" points="54.899 179.874 118.9 179.874 118.9 177.874 54.899 177.874"/>
    <polygon fill="#48515A" points="54.899 183.876 118.9 183.876 118.9 181.876 54.899 181.876"/>
    <polygon fill="#48515A" points="54.899 187.879 118.9 187.879 118.9 185.879 54.899 185.879"/>
    <polygon fill="#48515A" points="54.899 191.881 118.9 191.881 118.9 189.881 54.899 189.881"/>
    <polygon fill="#48515A" points="54.899 195.884 118.9 195.884 118.9 193.884 54.899 193.884"/>
    <polygon fill="#48515A" points="54.899 199.886 118.9 199.886 118.9 197.886 54.899 197.886"/>
    <polygon fill="#48515A" points="54.899 203.889 118.9 203.889 118.9 201.889 54.899 201.889"/>
    <path fill="#475059" d="M149.684,141.172 L149.819,141.299 L157.635,149.114 C159.065,150.544 159.852,152.444 159.852,154.466 C159.852,156.488 159.065,158.389 157.635,159.817 L148.334,169.118 C141.67,175.783 138,184.643 138,194.066 C138,199.611 142.511,204.122 148.056,204.122 L186.753,204.121 C192.296,204.121 196.806,199.611 196.806,194.068 C196.806,184.646 193.136,175.786 186.474,169.122 L177.167,159.814 C175.74,158.389 174.954,156.489 174.954,154.467 C174.954,152.444 175.741,150.544 177.17,149.115 L185.142,141.191 C183.136,141.527 181.094,141.301 179.199,140.528 L178.319,140.17 C176.134,139.281 173.729,139.281 171.544,140.17 C168.872,141.258 165.931,141.259 163.261,140.169 C161.078,139.28 158.671,139.28 156.487,140.169 L155.645,140.512 C153.744,141.286 151.696,141.512 149.684,141.172 Z M169.821,206.123 L148.056,206.122 C141.408,206.122 136,200.714 136,194.066 C136,184.108 139.878,174.746 146.92,167.704 L156.221,158.403 C157.273,157.352 157.852,155.953 157.852,154.466 C157.852,152.979 157.273,151.58 156.221,150.528 L148.428,142.735 L145.644,140.124 C145.314,139.814 145.233,139.323 145.446,138.924 C145.658,138.525 146.111,138.318 146.552,138.42 L149.494,139.096 C151.304,139.512 153.17,139.359 154.891,138.66 L155.733,138.317 C158.403,137.229 161.345,137.229 164.016,138.317 C166.2,139.206 168.605,139.207 170.79,138.318 C173.46,137.229 176.402,137.229 179.073,138.318 L179.953,138.677 C181.652,139.367 183.496,139.524 185.284,139.127 L188.477,138.419 C188.921,138.324 189.378,138.535 189.585,138.942 C189.792,139.35 189.697,139.845 189.354,140.146 L186.115,142.997 L178.584,150.529 C177.533,151.581 176.954,152.979 176.954,154.467 C176.954,155.954 177.531,157.352 178.581,158.4 L187.888,167.708 C194.928,174.75 198.806,184.111 198.806,194.068 C198.806,200.714 193.399,206.121 186.753,206.121 L169.821,206.123 Z"/>
    <path fill="#FFF" d="M152.288,153.876 L182.604,153.877"/>
    <polyline fill="#475059" points="182.604 154.877 152.288 154.876 152.288 152.876 182.604 152.877 182.604 154.877"/>
    <path fill="#FFF" d="M152.288,157.877 L182.604,157.878"/>
    <polyline fill="#475059" points="182.604 158.878 152.288 158.877 152.288 156.877 182.604 156.878 182.604 158.878"/>
    <polyline fill="#475059" points="175.074 168.584 167.408 160.918 159.846 168.579 158.422 167.175 167.398 158.08 176.488 167.17 175.074 168.584"/>
    <path fill="#475059" d="M124,182.877 L124,192.99 C124,198.547 128.171,203.291 133.497,203.791 L133.497,203.792 C138.843,204.284 143.708,200.723 144.803,195.481 C144.88,195.113 144.714,194.84 144.608,194.709 C144.411,194.467 144.12,194.327 143.809,194.327 C143.341,194.327 142.935,194.646 142.842,195.085 C141.934,199.396 137.785,202.324 133.397,201.769 C129.18,201.227 126,197.485 126,193.066 L126,182.877 L124,182.877 Z M134.503,205.839 C134.108,205.839 133.71,205.82 133.309,205.782 L133.309,205.783 C126.968,205.187 122,199.567 122,192.99 L122,180.877 L128,180.877 L128,193.066 C128,196.482 130.43,199.371 133.651,199.784 C137.066,200.227 140.178,198.024 140.885,194.673 C141.172,193.313 142.401,192.327 143.809,192.327 C144.725,192.327 145.582,192.735 146.16,193.448 C146.722,194.139 146.941,195.029 146.761,195.891 C145.539,201.736 140.384,205.839 134.503,205.839 Z"/>
    <polygon fill="#48515A" points="213 163.877 215 163.877 215 159.877 213 159.877"/>
    <polygon fill="#48515A" points="213 173.877 215 173.877 215 169.877 213 169.877"/>
    <polygon fill="#48515A" points="217 167.877 221 167.877 221 165.877 217 165.877"/>
    <polygon fill="#48515A" points="207 167.877 211 167.877 211 165.877 207 165.877"/>
    <polygon fill="#48515A" points="35 139.877 37 139.877 37 135.877 35 135.877"/>
    <polygon fill="#48515A" points="35 149.877 37 149.877 37 145.877 35 145.877"/>
    <polygon fill="#48515A" points="39 143.877 43 143.877 43 141.877 39 141.877"/>
    <polygon fill="#48515A" points="29 143.877 33 143.877 33 141.877 29 141.877"/>
    <polygon fill="#48515A" points="189 59.877 191 59.877 191 55.877 189 55.877"/>
    <polygon fill="#48515A" points="189 69.877 191 69.877 191 65.877 189 65.877"/>
    <polygon fill="#48515A" points="193 63.877 197 63.877 197 61.877 193 61.877"/>
    <polygon fill="#48515A" points="183 63.877 187 63.877 187 61.877 183 61.877"/>
    <path fill="#FFD15D" d="M200.995 132.382C200.995 133.763 199.876 134.882 198.495 134.882 197.114 134.882 195.995 133.763 195.995 132.382 195.995 131.001 197.114 129.882 198.495 129.882 199.876 129.882 200.995 131.001 200.995 132.382M140 165.377C140 166.758 138.881 167.877 137.5 167.877 136.119 167.877 135 166.758 135 165.377 135 163.996 136.119 162.877 137.5 162.877 138.881 162.877 140 163.996 140 165.377M151 132.377C151 133.758 149.881 134.877 148.5 134.877 147.119 134.877 146 133.758 146 132.377 146 130.996 147.119 129.877 148.5 129.877 149.881 129.877 151 130.996 151 132.377M166 145.357C166.011 146.738 164.901 147.866 163.52 147.877 162.139 147.888 161.011 146.778 161 145.397 160.989 144.016 162.099 142.888 163.48 142.877 164.861 142.866 165.989 143.976 166 145.357M211 151.877C211 146.354 206.523 141.877 201 141.877 195.477 141.877 191 146.354 191 151.877 191 157.4 195.477 161.877 201 161.877 206.523 161.877 211 157.4 211 151.877"/>
    <path fill="#475059" d="M202.663,156.877 L198.957,156.877 C197.6,156.877 196.497,155.765 196.497,154.396 C196.497,153.844 196.944,153.396 197.497,153.396 C198.049,153.396 198.497,153.844 198.497,154.396 C198.497,154.657 198.707,154.877 198.957,154.877 L202.663,154.877 C203.019,154.877 203.32,154.557 203.32,154.177 L203.32,153.543 C203.32,153.17 203.031,152.877 202.663,152.877 L199.008,152.877 C197.6,152.877 196.653,151.801 196.653,150.199 L196.653,149.564 C196.653,147.982 197.622,146.877 199.008,146.877 L202.936,146.877 C204.137,146.877 205.114,147.859 205.114,149.067 C205.114,149.62 204.667,150.067 204.114,150.067 C203.562,150.067 203.114,149.62 203.114,149.067 C203.114,148.966 203.031,148.877 202.936,148.877 L199.008,148.877 C198.773,148.877 198.653,149.108 198.653,149.564 L198.653,150.199 C198.653,150.877 198.92,150.877 199.008,150.877 L202.663,150.877 C204.128,150.877 205.32,152.073 205.32,153.543 L205.32,154.177 C205.32,155.666 204.128,156.877 202.663,156.877"/>
    <path fill="#475059" d="M200.986,158.877 C200.434,158.877 199.986,158.43 199.986,157.877 L199.986,145.877 C199.986,145.324 200.434,144.877 200.986,144.877 C201.539,144.877 201.986,145.324 201.986,145.877 L201.986,157.877 C201.986,158.43 201.539,158.877 200.986,158.877"/>
  </g>
</svg>
