<svg xmlns="http://www.w3.org/2000/svg" width="250" height="250" viewBox="0 0 250 250">
  <g fill="none" fill-rule="evenodd">
    <path fill="#DEDEDD" d="M180.814 147.491C183.829 147 186.837 147.652 189.066 149.28 189.25 149.414 189.428 149.553 189.601 149.697L182.536 154.697 175.008 157.25C175.008 157.25 170.272 151.803 170.491 151.742 171.881 151.352 179.394 147.723 180.814 147.491M59.008 205.053L59.008 205.055C59.008 206.246 58.21 207.044 57.019 207.044 57.018 207.044 57.017 207.044 57.017 207.044L50.008 207.207 50.008 193.033 57.066 193.04C57.638 193.041 58.184 193.268 58.595 193.679 59.005 194.091 59.147 194.632 59.147 195.201L59.008 205.053"/>
    <path fill="#475059" d="M83.067,204.043 L62.008,204.043 L62.008,202.043 L82.874,202.043 L160.002,187.097 L203.532,160.4 C197.775,155.239 190.768,154.288 184.577,157.9 L157.317,171.043 L110.542,171.043 L110.542,169.043 L128.857,169.043 C136.745,169.043 142.997,163.326 143.513,155.849 L94.881,156.043 C90.711,156.043 86.623,157.742 83.662,160.703 L62.828,181.516 L61.415,180.102 L82.249,159.289 C85.581,155.956 90.185,154.043 94.877,154.043 L145.548,153.841 L145.548,154.845 C145.548,161.035 142.143,166.31 137.013,169.043 L156.86,169.043 L183.64,156.135 C190.934,151.877 199.271,153.26 205.873,159.864 L206.77,160.76 L160.738,188.992 L160.56,189.026 L83.067,204.043"/>
    <path fill="#475059" d="M183.009 158.25C182.678 158.25 182.355 158.086 182.164 157.788 181.867 157.322 182.005 156.704 182.47 156.407L192.629 149.942C191.948 149.088 191.149 148.325 190.246 147.666 187.587 145.723 184.031 144.94 180.492 145.517 178.39 145.86 176.346 146.49 174.417 147.39L168.93 149.95C168.43 150.182 167.835 149.966 167.601 149.466 167.368 148.965 167.584 148.371 168.085 148.137L173.572 145.578C175.666 144.6 177.886 143.916 180.17 143.542 184.24 142.883 188.338 143.794 191.426 146.05 192.801 147.055 193.969 148.269 194.896 149.658 195.046 149.882 195.099 150.157 195.043 150.419 194.988 150.683 194.828 150.913 194.602 151.057L183.545 158.094C183.378 158.2 183.192 158.25 183.009 158.25M48.008 209.241L57.004 209.25C57.006 209.25 57.007 209.25 57.008 209.25 59.307 209.25 61.178 207.386 61.18 205.093L61.18 205.092 61.236 174.114C61.238 171.821 59.368 169.952 57.068 169.95L48.008 169.94 48.008 209.241zM57.008 211.25C57.006 211.25 57.005 211.25 57.002 211.25L46.008 211.239 46.008 167.938 57.07 167.95C60.473 167.954 63.239 170.719 63.236 174.117L63.18 205.096C63.176 208.491 60.408 211.25 57.008 211.25z"/>
    <path fill="#DEDEDD" d="M110.542 166.044L133.985 166.044C137.572 165.044 140.255 162.044 141.188 158.044L136.396 158.044C134.3 160.044 131.706 160.044 128.857 160.044L116.542 160.044C113.228 160.044 110.542 162.73 110.542 166.044M192.395 157.974L159.267 178.252 82.683 193.044 65.202 193.044 65.189 200.044 82.683 200.044 159.267 185.264 200.008 160.324C197.589 158.753 194.995 157.974 192.395 157.974"/>
    <polygon fill="#48515A" points="55.005 145.742 57.005 145.742 57.005 141.742 55.005 141.742"/>
    <polygon fill="#48515A" points="55.005 155.742 57.005 155.742 57.005 151.742 55.005 151.742"/>
    <polygon fill="#48515A" points="59.005 149.742 63.005 149.742 63.005 147.742 59.005 147.742"/>
    <polygon fill="#48515A" points="49.005 149.742 53.005 149.742 53.005 147.742 49.005 147.742"/>
    <polygon fill="#48515A" points="213.008 139.043 215.008 139.043 215.008 135.043 213.008 135.043"/>
    <polygon fill="#48515A" points="213.008 149.043 215.008 149.043 215.008 145.043 213.008 145.043"/>
    <polygon fill="#48515A" points="217.008 143.043 221.008 143.043 221.008 141.043 217.008 141.043"/>
    <polygon fill="#48515A" points="207.008 143.043 211.008 143.043 211.008 141.043 207.008 141.043"/>
    <path fill="#475059" d="M172.785 162.48L171.95 160.76C164.299 149.476 151.61 142.742 137.991 142.742 127.806 142.742 118.041 146.501 110.495 153.328L107.846 155.735 106.502 154.254 109.152 151.846C117.068 144.685 127.309 140.742 137.991 140.742 152.298 140.742 165.627 147.829 173.647 159.7L173.718 159.823 174.584 161.607 172.785 162.48M104.291 118.458C106.509 122.909 111.079 125.759 116.062 125.759 121.045 125.759 125.616 122.908 127.834 118.457 125.616 114.005 121.046 111.155 116.063 111.155 111.08 111.155 106.509 114.006 104.291 118.458zM116.062 127.759C110.145 127.759 104.732 124.271 102.274 118.872L102.085 118.458 102.274 118.043C104.733 112.644 110.145 109.155 116.063 109.155 121.981 109.155 127.393 112.643 129.852 118.042L130.04 118.457 129.852 118.871C127.393 124.27 121.98 127.759 116.062 127.759z"/>
    <polygon fill="#475059" points="128.942 119.457 134.126 119.457 134.126 117.457 128.942 117.457"/>
    <path fill="#475059" d="M147.829,130.457 C150.047,134.908 154.617,137.759 159.601,137.759 C164.584,137.759 169.154,134.909 171.372,130.458 C169.155,126.006 164.583,123.155 159.6,123.155 C154.617,123.155 150.047,126.005 147.829,130.457 Z M159.601,139.759 C153.683,139.759 148.27,136.27 145.812,130.871 L145.623,130.457 L145.812,130.042 C148.27,124.643 153.683,121.155 159.6,121.155 C165.518,121.155 170.931,124.644 173.39,130.043 L173.578,130.458 L173.39,130.872 C170.93,136.271 165.518,139.759 159.601,139.759 Z"/>
    <polygon fill="#475059" points="141.322 131.457 146.722 131.457 146.722 129.457 141.322 129.457"/>
    <path fill="#475059" d="M138.918,142.118 L137.065,141.366 L139.737,134.77 C141.164,131.249 140.052,127.176 137.032,124.87 C132.551,121.444 131.608,114.95 134.931,110.393 L141.7,101.63 L143.283,102.853 L136.531,111.593 C133.86,115.257 134.622,120.509 138.247,123.28 C141.98,126.133 143.355,131.167 141.591,135.522 L138.918,142.118"/>
    <path fill="#FFD15D" d="M214.008,68.389 C214.008,58.448 205.949,50.389 196.008,50.389 C186.066,50.389 178.008,58.448 178.008,68.389 C178.008,78.33 186.066,86.389 196.008,86.389 C205.949,86.389 214.008,78.33 214.008,68.389"/>
    <path fill="#475059" d="M196.008,83.388 C196.002,83.388 195.997,83.388 195.991,83.388 C191.984,83.383 188.219,81.819 185.389,78.983 C182.559,76.146 181.004,72.377 181.008,68.372 C181.018,60.106 187.746,53.388 196.009,53.388 C196.014,53.388 196.02,53.388 196.026,53.388 C197.531,53.39 199.017,53.615 200.443,54.055 L201.452,54.473 C201.961,54.687 202.201,55.273 201.988,55.782 C201.773,56.29 201.188,56.533 200.678,56.317 L199.761,55.932 C198.617,55.584 197.329,55.39 196.023,55.388 C196.018,55.388 196.013,55.388 196.008,55.388 C188.847,55.388 183.017,61.21 183.008,68.373 C183.004,71.846 184.353,75.112 186.805,77.57 C189.258,80.028 192.521,81.384 195.993,81.388 C195.998,81.388 196.003,81.388 196.008,81.388 C203.17,81.388 209,75.567 209.008,68.404 C209.011,65.391 207.961,62.453 206.05,60.131 C205.698,59.705 205.76,59.075 206.186,58.723 C206.613,58.372 207.242,58.434 207.594,58.86 C209.8,61.54 211.012,64.929 211.008,68.406 C210.999,76.67 204.271,83.388 196.008,83.388"/>
    <path fill="#475059" d="M198.501,75.388 L192.943,75.388 C191.183,75.388 189.752,73.944 189.752,72.167 C189.752,71.615 190.2,71.167 190.752,71.167 C191.304,71.167 191.752,71.615 191.752,72.167 C191.752,72.83 192.297,73.388 192.943,73.388 L198.501,73.388 C199.321,73.388 199.988,72.693 199.988,71.838 L199.988,70.888 C199.988,70.047 199.335,69.388 198.501,69.388 L193.02,69.388 C191.206,69.388 189.988,67.975 189.988,65.873 L189.988,64.92 C189.988,62.808 191.206,61.388 193.02,61.388 L198.912,61.388 C200.438,61.388 201.679,62.638 201.679,64.174 C201.679,64.727 201.231,65.174 200.679,65.174 C200.127,65.174 199.679,64.727 199.679,64.174 C199.679,63.749 199.328,63.388 198.912,63.388 L193.02,63.388 C192.122,63.388 191.988,64.348 191.988,64.92 L191.988,65.873 C191.988,66.564 192.167,67.388 193.02,67.388 L198.501,67.388 C200.424,67.388 201.988,68.958 201.988,70.888 L201.988,71.838 C201.988,73.795 200.424,75.388 198.501,75.388"/>
    <path fill="#475059" d="M195.988 78.388C195.435 78.388 194.988 77.941 194.988 77.388L194.988 59.388C194.988 58.835 195.435 58.388 195.988 58.388 196.54 58.388 196.988 58.835 196.988 59.388L196.988 77.388C196.988 77.941 196.54 78.388 195.988 78.388M204.017 58.4C203.758 58.4 203.497 58.29 203.318 58.1 203.218 58.01 203.147 57.9 203.097 57.781 203.048 57.661 203.017 57.531 203.017 57.4 203.017 57.27 203.048 57.14 203.097 57.02 203.147 56.89 203.218 56.781 203.318 56.69 203.407 56.6 203.517 56.52 203.637 56.47 203.887 56.371 204.157 56.371 204.407 56.47 204.528 56.52 204.637 56.6 204.727 56.69 204.818 56.781 204.897 56.89 204.948 57.02 204.997 57.14 205.017 57.27 205.017 57.4 205.017 57.531 204.997 57.661 204.948 57.781 204.897 57.9 204.827 58.01 204.727 58.1 204.537 58.29 204.287 58.4 204.017 58.4"/>
    <polyline fill="#5FE0ED" points="111.491 102.255 111.491 72.286 173.491 72.247 173.491 102.255 111.491 102.255"/>
    <path fill="#48515A" d="M145.182,94.254 L139.567,94.254 C137.826,94.254 136.355,92.748 136.355,90.964 L138.355,90.964 C138.355,91.652 138.921,92.254 139.567,92.254 L145.182,92.254 C146.032,92.254 146.491,91.393 146.491,90.583 L146.491,89.623 C146.491,88.753 146.014,88.254 145.182,88.254 L139.646,88.254 C137.818,88.254 136.491,86.7 136.491,84.557 L136.491,83.596 C136.491,81.597 137.759,80.254 139.646,80.254 L145.597,80.254 C147.159,80.254 148.382,81.449 148.382,82.974 L146.382,82.974 C146.382,82.501 145.987,82.254 145.597,82.254 L139.646,82.254 C139.33,82.254 138.491,82.254 138.491,83.596 L138.491,84.557 C138.491,85.188 138.735,86.254 139.646,86.254 L145.182,86.254 C147.131,86.254 148.491,87.64 148.491,89.623 L148.491,90.583 C148.491,92.642 147.038,94.254 145.182,94.254"/>
    <polygon fill="#48515A" points="141.491 96.254 143.491 96.254 143.491 78.254 141.491 78.254"/>
    <polygon fill="#48515A" points="152.491 88.254 158.491 88.254 158.491 86.254 152.491 86.254"/>
    <polygon fill="#48515A" points="152.491 92.254 158.491 92.254 158.491 90.254 152.491 90.254"/>
    <polygon fill="#48515A" points="152.491 84.254 158.491 84.254 158.491 82.254 152.491 82.254"/>
    <polygon fill="#48515A" points="126.491 88.254 132.491 88.254 132.491 86.254 126.491 86.254"/>
    <polygon fill="#48515A" points="126.491 84.254 132.491 84.254 132.491 82.254 126.491 82.254"/>
    <polygon fill="#48515A" points="126.491 92.254 132.491 92.254 132.491 90.254 126.491 90.254"/>
    <path fill="#48515A" d="M115.491,98.254 L169.491,98.254 L169.491,76.254 L115.491,76.254 L115.491,98.254 Z M113.491,100.254 L171.491,100.254 L171.491,74.254 L113.491,74.254 L113.491,100.254 Z"/>
    <polygon fill="#48515A" points="34.992 95.711 36.992 95.711 36.992 91.711 34.992 91.711"/>
    <polygon fill="#48515A" points="34.992 105.711 36.992 105.711 36.992 101.711 34.992 101.711"/>
    <polygon fill="#48515A" points="38.992 99.711 42.992 99.711 42.992 97.711 38.992 97.711"/>
    <polygon fill="#48515A" points="28.992 99.711 32.992 99.711 32.992 97.711 28.992 97.711"/>
    <path fill="#FFD15D" d="M93.888,108.413 C93.888,98.472 85.829,90.413 75.888,90.413 C65.946,90.413 57.888,98.472 57.888,108.413 C57.888,118.354 65.946,126.413 75.888,126.413 C85.829,126.413 93.888,118.354 93.888,108.413"/>
    <path fill="#475059" d="M75.888,123.413 C75.882,123.413 75.877,123.413 75.871,123.413 C71.864,123.408 68.099,121.843 65.269,119.007 C62.439,116.17 60.883,112.402 60.888,108.395 C60.898,100.125 67.611,93.438 75.906,93.413 C77.414,93.415 78.901,93.639 80.324,94.08 L81.331,94.496 C81.841,94.71 82.081,95.295 81.867,95.804 C81.655,96.315 81.072,96.555 80.559,96.341 L79.642,95.957 C78.5,95.609 77.212,95.415 75.903,95.413 C75.898,95.413 75.893,95.413 75.888,95.413 C68.727,95.413 62.897,101.234 62.888,108.397 C62.884,111.87 64.233,115.136 66.685,117.594 C69.137,120.052 72.401,121.409 75.873,121.413 C75.878,121.413 75.883,121.413 75.888,121.413 C83.05,121.413 88.88,115.59 88.888,108.427 C88.892,105.415 87.841,102.477 85.93,100.156 C85.579,99.729 85.64,99.099 86.066,98.748 C86.494,98.399 87.122,98.457 87.474,98.884 C89.68,101.563 90.892,104.954 90.888,108.429 C90.879,116.695 84.151,123.413 75.888,123.413"/>
    <path fill="#475059" d="M78.381,115.413 L72.823,115.413 C71.064,115.413 69.633,113.968 69.633,112.192 C69.633,111.639 70.08,111.192 70.633,111.192 C71.185,111.192 71.633,111.639 71.633,112.192 C71.633,112.854 72.177,113.413 72.823,113.413 L78.381,113.413 C79.2,113.413 79.867,112.717 79.867,111.863 L79.867,110.913 C79.867,110.072 79.215,109.413 78.381,109.413 L72.9,109.413 C71.086,109.413 69.867,108 69.867,105.896 L69.867,104.945 C69.867,102.833 71.086,101.413 72.9,101.413 L78.792,101.413 C80.318,101.413 81.559,102.663 81.559,104.199 C81.559,104.751 81.111,105.199 80.559,105.199 C80.007,105.199 79.559,104.751 79.559,104.199 C79.559,103.773 79.208,103.413 78.792,103.413 L72.9,103.413 C72.002,103.413 71.867,104.373 71.867,104.945 L71.867,105.896 C71.867,106.587 72.047,107.413 72.9,107.413 L78.381,107.413 C80.303,107.413 81.867,108.983 81.867,110.913 L81.867,111.863 C81.867,113.82 80.303,115.413 78.381,115.413"/>
    <path fill="#475059" d="M75.867 118.413C75.315 118.413 74.867 117.965 74.867 117.413L74.867 99.413C74.867 98.86 75.315 98.413 75.867 98.413 76.42 98.413 76.867 98.86 76.867 99.413L76.867 117.413C76.867 117.965 76.42 118.413 75.867 118.413M83.897 98.42C83.637 98.42 83.387 98.32 83.198 98.13 83.008 97.94 82.897 97.69 82.897 97.42 82.897 97.161 83.008 96.9 83.198 96.72 83.568 96.34 84.238 96.34 84.607 96.72 84.698 96.81 84.778 96.92 84.827 97.04 84.877 97.161 84.897 97.29 84.897 97.42 84.897 97.69 84.798 97.94 84.607 98.13 84.417 98.32 84.167 98.42 83.897 98.42"/>
    <path fill="#FFD15D" d="M125.498 43.242C125.498 45.723 123.487 47.734 121.006 47.734 118.525 47.734 116.514 45.723 116.514 43.242 116.514 40.762 118.525 38.75 121.006 38.75 123.487 38.75 125.498 40.762 125.498 43.242M149.021 56.888C149.021 58.269 147.902 59.388 146.521 59.388 145.141 59.388 144.021 58.269 144.021 56.888 144.021 55.508 145.141 54.388 146.521 54.388 147.902 54.388 149.021 55.508 149.021 56.888M184.007 114.751C184.007 116.131 182.888 117.25 181.508 117.25 180.127 117.25 179.008 116.131 179.008 114.751 179.008 113.37 180.127 112.251 181.508 112.251 182.888 112.251 184.007 113.37 184.007 114.751M101.156 80.321C101.156 81.463 100.23 82.388 99.089 82.388 97.947 82.388 97.022 81.463 97.022 80.321 97.022 79.18 97.947 78.255 99.089 78.255 100.23 78.255 101.156 79.18 101.156 80.321M106.89 62.893C106.89 65.928 104.43 68.388 101.395 68.388 98.36 68.388 95.9 65.928 95.9 62.893 95.9 59.858 98.36 57.398 101.395 57.398 104.43 57.398 106.89 59.858 106.89 62.893M61.998 68.745C61.998 71.78 59.537 74.241 56.503 74.241 53.468 74.241 51.008 71.78 51.008 68.745 51.008 65.711 53.468 63.25 56.503 63.25 59.537 63.25 61.998 65.711 61.998 68.745M211.008 110.745C211.008 113.78 208.547 116.24 205.513 116.24 202.478 116.24 200.018 113.78 200.018 110.745 200.018 107.711 202.478 105.25 205.513 105.25 208.547 105.25 211.008 107.711 211.008 110.745M47.008 130.745C47.008 133.78 44.547 136.24 41.513 136.24 38.478 136.24 36.018 133.78 36.018 130.745 36.018 127.711 38.478 125.25 41.513 125.25 44.547 125.25 47.008 127.711 47.008 130.745"/>
  </g>
</svg>
