<svg xmlns="http://www.w3.org/2000/svg" width="250" height="250" viewBox="0 0 250 250">
  <g fill="none" fill-rule="evenodd">
    <path fill="#FFD15D" d="M215,68.5 C215,58.559 206.941,50.5 197,50.5 C187.059,50.5 179,58.559 179,68.5 C179,78.441 187.059,86.5 197,86.5 C206.941,86.5 215,78.441 215,68.5"/>
    <path fill="#475059" d="M199.494,75.474 L193.935,75.474 C192.176,75.474 190.745,74.034 190.745,72.266 C190.745,71.713 191.192,71.266 191.745,71.266 C192.298,71.266 192.745,71.713 192.745,72.266 C192.745,72.932 193.278,73.474 193.935,73.474 L199.494,73.474 C200.325,73.474 201.002,72.79 201.002,71.949 L201.002,70.999 C201.002,70.168 200.325,69.491 199.494,69.491 L194.013,69.491 C192.078,69.491 190.505,67.918 190.505,65.983 L190.505,65.032 C190.505,63.098 192.078,61.523 194.013,61.523 L199.904,61.523 C201.431,61.523 202.672,62.765 202.672,64.291 C202.672,64.844 202.225,65.291 201.672,65.291 C201.119,65.291 200.672,64.844 200.672,64.291 C200.672,63.868 200.327,63.523 199.904,63.523 L194.013,63.523 C193.182,63.523 192.505,64.2 192.505,65.032 L192.505,65.983 C192.505,66.814 193.182,67.491 194.013,67.491 L199.494,67.491 C201.429,67.491 203.002,69.064 203.002,70.999 L203.002,71.949 C203.002,73.893 201.429,75.474 199.494,75.474"/>
    <path fill="#475059" d="M197.033 78.499C196.48 78.499 196.033 78.052 196.033 77.499L196.033 59.499C196.033 58.946 196.48 58.499 197.033 58.499 197.586 58.499 198.033 58.946 198.033 59.499L198.033 77.499C198.033 78.052 197.586 78.499 197.033 78.499M172.979 203.448L161.86 203.448C158.894 203.448 156.48 201.02 156.48 198.033L158.48 198.033C158.48 199.916 159.997 201.448 161.86 201.448L172.979 201.448C175.192 201.448 176.994 199.633 176.994 197.4L176.994 195.5C176.994 193.286 175.192 191.484 172.979 191.484L162.016 191.484C158.698 191.484 156 188.785 156 185.468L156 183.565C156 180.248 158.698 177.549 162.016 177.549L173.799 177.549C176.3 177.549 178.334 179.583 178.334 182.083L176.334 182.083C176.334 180.686 175.196 179.549 173.799 179.549L162.016 179.549C159.802 179.549 158 181.351 158 183.565L158 185.468C158 187.683 159.802 189.484 162.016 189.484L172.979 189.484C176.296 189.484 178.994 192.183 178.994 195.5L178.994 197.4C178.994 200.735 176.296 203.448 172.979 203.448"/>
    <polygon fill="#475059" points="167.058 208.5 169.058 208.5 169.058 172.5 167.058 172.5"/>
    <polygon fill="#475059" points="171 131.5 181 131.5 181 129.5 171 129.5"/>
    <polygon fill="#475059" points="171 137.5 181 137.5 181 135.5 171 135.5"/>
    <polygon fill="#475059" points="171 143.5 181 143.5 181 141.5 171 141.5"/>
    <polygon fill="#475059" points="171 149.5 181 149.5 181 147.5 171 147.5"/>
    <polygon fill="#475059" points="171 155.5 181 155.5 181 153.5 171 153.5"/>
    <polygon fill="#48515A" points="67 65.5 91 65.5 91 63.5 67 63.5"/>
    <polygon fill="#48515A" points="51 193.5 107 193.5 107 191.5 51 191.5"/>
    <path fill="#475059" d="M179 219.5L115 219.5 115 217.5 179 217.5C182.859 217.5 186 214.359 186 210.5L186 112.5 188 112.5 188 210.5C188 215.463 183.963 219.5 179 219.5M172 106.5L170 106.5 170 42.5C170 38.641 166.859 35.5 163 35.5L99 35.5 99 33.5 163 33.5C167.963 33.5 172 37.537 172 42.5L172 106.5"/>
    <polygon fill="#475059" points="131 107.5 195 107.5 195 105.5 131 105.5"/>
    <polygon fill="#475059" points="83 173.5 107 173.5 107 171.5 83 171.5"/>
    <path fill="#475059" d="M115,219.5 C110.038,219.5 106,215.463 106,210.5 L106,42.5 C106,38.641 102.86,35.5 99,35.5 C95.14,35.5 92,38.641 92,42.5 L92,164.5 C92,169.463 87.962,173.5 83,173.5 C78.038,173.5 74,169.463 74,164.5 L74,72.5 C74,68.641 70.86,65.5 67,65.5 C63.14,65.5 60,68.641 60,72.5 L60,184.5 C60,189.463 55.962,193.5 51,193.5 L51,191.5 C54.86,191.5 58,188.359 58,184.5 L58,72.5 C58,67.537 62.038,63.5 67,63.5 C71.962,63.5 76,67.537 76,72.5 L76,164.5 C76,168.359 79.14,171.5 83,171.5 C86.86,171.5 90,168.359 90,164.5 L90,42.5 C90,37.537 94.038,33.5 99,33.5 C103.962,33.5 108,37.537 108,42.5 L108,210.5 C108,214.359 111.14,217.5 115,217.5 C118.86,217.5 122,214.359 122,210.5 L122,114.5 C122,109.537 126.037,105.5 131,105.5 C135.625,105.5 139.445,109.006 139.944,113.5 L142.745,113.5 L146.646,111.372 L150.903,113.5 L152.431,113.5 L156.667,111.382 L160.902,113.5 L162.447,113.5 L167.018,111.391 L171.236,113.5 L172.764,113.5 L177,111.382 L181.236,113.5 L182.764,113.5 L187,111.382 L191.236,113.5 L192.764,113.5 L197,111.382 L201.236,113.5 L201.929,113.5 C201.442,110.112 198.521,107.5 195,107.5 L195,105.5 C199.963,105.5 204,109.537 204,114.5 L204,115.5 L200.764,115.5 L197,113.618 L193.236,115.5 L190.764,115.5 L187,113.618 L183.236,115.5 L180.764,115.5 L177,113.618 L173.236,115.5 L170.764,115.5 L166.982,113.609 L162.887,115.5 L160.43,115.5 L156.667,113.618 L152.903,115.5 L150.431,115.5 L146.687,113.628 L143.255,115.5 L138,115.5 L138,114.5 C138,110.641 134.859,107.5 131,107.5 C127.141,107.5 124,110.641 124,114.5 L124,210.5 C124,215.463 119.962,219.5 115,219.5"/>
    <path fill="#FFD15D" d="M78.006 164.5C78.006 167.257 80.249 169.5 83.006 169.5 85.763 169.5 88.006 167.257 88.006 164.5L88.006 67.5 76.804 67.5C77.586 69.027 78.006 70.733 78.006 72.5L78.006 164.5M168.006 103.5L168.006 42.5C168.006 39.743 165.763 37.5 163.006 37.5L108.804 37.5C109.586 39.027 110.006 40.733 110.006 42.5L110.006 210.5C110.006 213.257 112.249 215.5 115.006 215.5 117.763 215.5 120.006 213.257 120.006 210.5L120.006 114.5C120.006 108.435 124.94 103.5 131.006 103.5L168.006 103.5"/>
    <path fill="#475059" d="M51,193.5 C46.038,193.5 42,189.463 42,184.5 L42,183.5 L45.236,183.5 L49,185.382 L52.765,183.5 L55.236,183.5 L59.447,185.605 L58.552,187.395 L54.764,185.5 L53.236,185.5 L49,187.618 L44.764,185.5 L44.071,185.5 C44.558,188.888 47.479,191.5 51,191.5 L51,193.5"/>
    <polygon fill="#475059" points="131 131.5 161 131.5 161 129.5 131 129.5"/>
    <polygon fill="#475059" points="131 137.5 161 137.5 161 135.5 131 135.5"/>
    <polygon fill="#475059" points="131 143.5 161 143.5 161 141.5 131 141.5"/>
    <polygon fill="#475059" points="131 149.5 161 149.5 161 147.5 131 147.5"/>
    <polygon fill="#475059" points="131 155.5 161 155.5 161 153.5 131 153.5"/>
    <polygon fill="#475059" points="131 161.5 161 161.5 161 159.5 131 159.5"/>
    <polygon fill="#475059" points="171 161.5 181 161.5 181 159.5 171 159.5"/>
    <path fill="#FFD15D" d="M53.99 59.005C53.99 62.04 51.53 64.5 48.495 64.5 45.46 64.5 43 62.04 43 59.005 43 55.97 45.46 53.51 48.495 53.51 51.53 53.51 53.99 55.97 53.99 59.005M73 37.5C73 39.157 71.657 40.5 70 40.5 68.343 40.5 67 39.157 67 37.5 67 35.843 68.343 34.5 70 34.5 71.657 34.5 73 35.843 73 37.5M35 100.5C35 101.605 35.895 102.5 37 102.5 38.105 102.5 39 101.605 39 100.5 39 99.395 38.105 98.5 37 98.5 35.895 98.5 35 99.395 35 100.5M181 94.5C181 95.605 180.105 96.5 179 96.5 177.895 96.5 177 95.605 177 94.5 177 93.395 177.895 92.5 179 92.5 180.105 92.5 181 93.395 181 94.5M85 181.5C85 179.843 86.343 178.5 88 178.5 89.657 178.5 91 179.843 91 181.5 91 183.157 89.657 184.5 88 184.5 86.343 184.5 85 183.157 85 181.5M75 202.5C75 203.605 74.105 204.5 73 204.5 71.895 204.5 71 203.605 71 202.5 71 201.395 71.895 200.5 73 200.5 74.105 200.5 75 201.395 75 202.5"/>
    <polygon fill="#48515A" points="35 158.5 37 158.5 37 154.5 35 154.5"/>
    <polygon fill="#48515A" points="35 168.5 37 168.5 37 164.5 35 164.5"/>
    <polygon fill="#48515A" points="39 162.5 43 162.5 43 160.5 39 160.5"/>
    <polygon fill="#48515A" points="29 162.5 33 162.5 33 160.5 29 160.5"/>
    <polygon fill="#48515A" points="213 190.5 215 190.5 215 186.5 213 186.5"/>
    <polygon fill="#48515A" points="213 200.5 215 200.5 215 196.5 213 196.5"/>
    <polygon fill="#48515A" points="217 194.5 221 194.5 221 192.5 217 192.5"/>
    <polygon fill="#48515A" points="207 194.5 211 194.5 211 192.5 207 192.5"/>
    <polygon fill="#48515A" points="183 34.5 185 34.5 185 30.5 183 30.5"/>
    <polygon fill="#48515A" points="183 44.5 185 44.5 185 40.5 183 40.5"/>
    <polygon fill="#48515A" points="187 38.5 191 38.5 191 36.5 187 36.5"/>
    <polygon fill="#48515A" points="177 38.5 181 38.5 181 36.5 177 36.5"/>
    <polyline fill="#5FE0ED" points="97 96.5 97 66.531 159 66.492 159 96.5 97 96.5"/>
    <path fill="#48515A" d="M130.69,88.5 L125.076,88.5 C123.334,88.5 121.863,86.993 121.863,85.209 L123.863,85.209 C123.863,85.896 124.43,86.5 125.076,86.5 L130.69,86.5 C131.541,86.5 132,85.639 132,84.829 L132,83.869 C132,82.999 131.522,82.5 130.69,82.5 L125.154,82.5 C123.327,82.5 122,80.945 122,78.803 L122,77.842 C122,75.843 123.268,74.5 125.154,74.5 L131.105,74.5 C132.667,74.5 133.891,75.694 133.891,77.22 L131.891,77.22 C131.891,76.747 131.496,76.5 131.105,76.5 L125.154,76.5 C124.838,76.5 124,76.5 124,77.842 L124,78.803 C124,79.434 124.243,80.5 125.154,80.5 L130.69,80.5 C132.639,80.5 134,81.886 134,83.869 L134,84.829 C134,86.888 132.546,88.5 130.69,88.5"/>
    <polygon fill="#48515A" points="127 90.5 129 90.5 129 72.5 127 72.5"/>
    <polygon fill="#48515A" points="138 82.5 144 82.5 144 80.5 138 80.5"/>
    <polygon fill="#48515A" points="138 86.5 144 86.5 144 84.5 138 84.5"/>
    <polygon fill="#48515A" points="138 78.5 144 78.5 144 76.5 138 76.5"/>
    <polygon fill="#48515A" points="112 82.5 118 82.5 118 80.5 112 80.5"/>
    <polygon fill="#48515A" points="112 78.5 118 78.5 118 76.5 112 76.5"/>
    <polygon fill="#48515A" points="112 86.5 118 86.5 118 84.5 112 84.5"/>
    <path fill="#48515A" d="M101,92.5 L155,92.5 L155,70.5 L101,70.5 L101,92.5 Z M99,94.5 L157,94.5 L157,68.5 L99,68.5 L99,94.5 Z"/>
  </g>
</svg>
