<svg xmlns="http://www.w3.org/2000/svg" width="250" height="250" viewBox="0 0 250 250">
  <g fill="none" fill-rule="evenodd">
    <polyline fill="#F58E70" points="91.306 120.036 91.306 148.036 156.987 148.036 140.743 120.036 91.306 120.036"/>
    <polygon fill="#F58E70" points="51.194 148.036 85.307 148.036 85.307 120.036 51.194 120.036"/>
    <polyline fill="#F58E70" points="57.194 160.036 28.806 134.036 57.194 108.036 57.194 160.036"/>
    <path fill="#5FE0ED" d="M128.685 93.354L130.409 92.323C130.574 92.224 130.748 92.141 130.929 92.076 130.968 92.061 131.01 92.049 131.05 92.035L91.446 92.035C91.363 93.196 91.306 94.363 91.306 95.538L91.306 120.036 140.743 120.036 127.631 97.434C126.807 96.014 127.277 94.197 128.685 93.354M171.306 92.035L171.306 95.303C171.306 96.173 170.928 97 170.271 97.57L160.674 105.888C159.652 106.775 158.164 106.869 157.041 106.115 156.916 106.032 156.26 105.579 155.614 104.871 147.231 95.701 138.842 96.143 134.588 97.223 134.546 97.233 134.505 97.243 134.464 97.255L147.679 120.036 198.806 120.036 198.806 92.035 171.306 92.035"/>
    <polyline fill="#5FE0ED" points="192.806 132.036 221.194 106.036 192.806 80.035 192.806 132.036"/>
    <polygon fill="#DEDEDD" points="78.306 197.241 171.306 197.241 171.306 193.241 78.306 193.241"/>
    <path fill="#DEDEDD" d="M99.092 164.241L150.123 164.241C150.113 163.71 150.236 163.174 150.515 162.69L157.7 150.241 91.603 150.241 98.708 162.703C98.981 163.183 99.101 163.714 99.092 164.241M128.348 65.241L138.931 65.241 144.889 71.199C144.889 71.199 133.848 73.241 128.348 65.241"/>
    <path fill="#48515A" d="M76.307,199.241 L173.306,199.241 L173.306,190.991 C167.277,190.636 162.306,185.588 162.306,179.653 L162.306,174.886 L152.404,164.893 C152.086,164.573 152.022,164.08 152.247,163.689 L160.292,149.748 L129.36,96.43 C129.085,95.957 129.243,95.351 129.711,95.07 L131.435,94.039 C131.491,94.006 131.548,93.978 131.609,93.956 C132.246,93.726 132.917,93.52 133.604,93.346 C138.727,92.048 148.78,91.465 158.567,102.174 C158.61,102.221 158.653,102.266 158.696,102.308 L167.306,94.847 L167.306,86.81 L139.192,52.241 L131.306,52.241 C130.753,52.241 130.306,51.793 130.306,51.241 L130.306,41.716 L106.812,57.636 C95.715,66.858 89.307,80.694 89.307,95.538 L89.307,150.25 L96.97,163.694 C97.184,164.069 97.134,164.539 96.845,164.859 L87.307,175.431 L87.307,179.653 C87.307,185.995 82.384,191.164 76.307,191.24 L76.307,199.241 Z M174.306,201.241 L75.307,201.241 C74.754,201.241 74.307,200.793 74.307,200.241 L74.307,190.241 C74.307,189.688 74.754,189.241 75.307,189.241 L76.172,189.241 C81.209,189.241 85.307,184.94 85.307,179.653 L85.307,175.047 C85.307,174.799 85.398,174.56 85.564,174.377 L94.875,164.057 L87.438,151.01 C87.352,150.859 87.307,150.689 87.307,150.515 L87.307,95.538 C87.307,80.097 93.978,65.7 105.612,56.039 L130.745,39.003 C131.05,38.796 131.447,38.773 131.775,38.947 C132.102,39.12 132.306,39.46 132.306,39.831 L132.306,50.241 L139.667,50.241 C139.968,50.241 140.253,50.376 140.443,50.61 L169.081,85.824 C169.227,86.002 169.306,86.224 169.306,86.454 L169.306,95.304 C169.306,95.594 169.18,95.869 168.961,96.059 L159.364,104.377 C159.022,104.672 158.527,104.702 158.153,104.453 C158.097,104.415 157.592,104.072 157.09,103.523 C148.004,93.583 138.783,94.093 134.096,95.285 C133.505,95.434 132.928,95.61 132.378,95.805 L131.585,96.28 L162.313,149.245 C162.493,149.555 162.493,149.937 162.314,150.247 L154.362,164.028 L164.016,173.77 C164.201,173.958 164.306,174.211 164.306,174.475 L164.306,179.653 C164.306,184.725 168.739,189.011 173.985,189.011 L174.306,189.011 C174.859,189.011 175.306,189.458 175.306,190.011 L175.306,200.241 C175.306,200.793 174.859,201.241 174.306,201.241 Z"/>
    <path fill="#48515A" d="M153.306 191.241L137.306 191.241C136.753 191.241 136.306 190.793 136.306 190.241 136.306 189.688 136.753 189.241 137.306 189.241L153.306 189.241C153.859 189.241 154.306 189.688 154.306 190.241 154.306 190.793 153.859 191.241 153.306 191.241M163.286 191.016C163.017 191.016 162.767 190.905 162.576 190.715 162.487 190.625 162.407 190.516 162.357 190.395 162.307 190.275 162.286 190.145 162.286 190.016 162.286 189.875 162.307 189.745 162.357 189.625 162.407 189.505 162.487 189.395 162.576 189.306 162.807 189.076 163.157 188.965 163.477 189.025 163.547 189.045 163.607 189.065 163.666 189.085 163.727 189.115 163.786 189.145 163.837 189.175 163.897 189.215 163.947 189.255 163.987 189.306 164.177 189.495 164.286 189.745 164.286 190.016 164.286 190.145 164.257 190.275 164.206 190.395 164.157 190.516 164.087 190.625 163.987 190.715 163.947 190.766 163.897 190.806 163.837 190.846 163.786 190.875 163.727 190.905 163.666 190.935 163.607 190.955 163.547 190.975 163.477 190.995 163.416 191.005 163.347 191.016 163.286 191.016"/>
    <polygon fill="#48515A" points="130.306 165.241 153.306 165.241 153.306 163.241 130.306 163.241"/>
    <path fill="#48515A" d="M126.337 165.115C126.207 165.115 126.077 165.096 125.947 165.045 125.827 164.995 125.717 164.915 125.627 164.826 125.577 164.775 125.537 164.725 125.497 164.675 125.467 164.615 125.437 164.556 125.407 164.495 125.387 164.435 125.367 164.375 125.357 164.315 125.337 164.245 125.337 164.185 125.337 164.115 125.337 163.855 125.437 163.596 125.627 163.415 125.717 163.315 125.827 163.245 125.947 163.195 126.317 163.036 126.757 163.135 127.036 163.415 127.227 163.596 127.326 163.855 127.326 164.115 127.326 164.185 127.326 164.245 127.317 164.315 127.297 164.375 127.277 164.435 127.257 164.495 127.227 164.556 127.197 164.615 127.166 164.675 127.126 164.725 127.087 164.775 127.036 164.826 126.857 165.016 126.597 165.115 126.337 165.115M143.871 71.491C143.621 71.491 143.37 71.397 143.177 71.21L138.03 66.241 129.306 66.241C128.753 66.241 128.306 65.793 128.306 65.241 128.306 64.688 128.753 64.241 129.306 64.241L138.434 64.241C138.693 64.241 138.942 64.341 139.128 64.521L144.566 69.771C144.963 70.155 144.974 70.788 144.591 71.185 144.395 71.389 144.133 71.491 143.871 71.491M152.928 191.241L137.04 191.241C136.488 191.241 136.04 190.793 136.04 190.241 136.04 189.688 136.488 189.241 137.04 189.241L152.928 189.241C153.481 189.241 153.928 189.688 153.928 190.241 153.928 190.793 153.481 191.241 152.928 191.241"/>
    <path fill="#5FE0ED" d="M129.363 92.035C128.911 92.591 128.493 93.178 128.122 93.802 128.29 93.635 128.473 93.481 128.685 93.354L130.409 92.323C130.574 92.224 130.748 92.141 130.929 92.076 130.968 92.061 131.01 92.049 131.05 92.035L129.363 92.035M163.995 92.035L147.311 92.035C150.977 93.313 154.913 95.618 158.827 99.549L165.306 93.933 165.306 92.035 163.995 92.035"/>
    <polygon fill="#48515A" points="52.806 82.035 54.806 82.035 54.806 78.035 52.806 78.035"/>
    <polygon fill="#48515A" points="52.806 92.035 54.806 92.035 54.806 88.035 52.806 88.035"/>
    <polygon fill="#48515A" points="56.806 86.035 60.806 86.035 60.806 84.035 56.806 84.035"/>
    <polygon fill="#48515A" points="46.806 86.035 50.806 86.035 50.806 84.035 46.806 84.035"/>
    <polygon fill="#48515A" points="184.806 154.036 186.806 154.036 186.806 150.036 184.806 150.036"/>
    <polygon fill="#48515A" points="184.806 164.036 186.806 164.036 186.806 160.036 184.806 160.036"/>
    <polygon fill="#48515A" points="188.806 158.036 192.806 158.036 192.806 156.036 188.806 156.036"/>
    <polygon fill="#48515A" points="178.806 158.036 182.806 158.036 182.806 156.036 178.806 156.036"/>
    <path fill="#5FE0ED" d="M170.806,142.036 C170.806,140.931 171.702,140.036 172.806,140.036 C173.911,140.036 174.806,140.931 174.806,142.036 C174.806,143.14 173.911,144.036 172.806,144.036 C171.702,144.036 170.806,143.14 170.806,142.036"/>
    <path fill="#FFD15D" d="M182.806 82.035C182.806 80.931 183.702 80.035 184.806 80.035 185.911 80.035 186.806 80.931 186.806 82.035 186.806 83.14 185.911 84.035 184.806 84.035 183.702 84.035 182.806 83.14 182.806 82.035M74.806 106.036C74.806 104.931 75.702 104.036 76.806 104.036 77.911 104.036 78.806 104.931 78.806 106.036 78.806 107.14 77.911 108.036 76.806 108.036 75.702 108.036 74.806 107.14 74.806 106.036M74.806 164.036C74.806 162.931 75.702 162.036 76.806 162.036 77.911 162.036 78.806 162.931 78.806 164.036 78.806 165.14 77.911 166.036 76.806 166.036 75.702 166.036 74.806 165.14 74.806 164.036"/>
    <path fill="#F58E70" d="M50.806,176.036 C50.806,174.931 51.702,174.036 52.806,174.036 C53.911,174.036 54.806,174.931 54.806,176.036 C54.806,177.14 53.911,178.036 52.806,178.036 C51.702,178.036 50.806,177.14 50.806,176.036"/>
    <polyline fill="#DEDEDD" points="63.199 205.193 63.199 209.887 192.915 209.887 190.415 207.693 192.915 205.193 63.199 205.193"/>
    <polyline fill="#F58E70" points="196.998 208.236 202.634 205.408 197.006 202.438 196.998 208.236"/>
    <path fill="#48515A" d="M53.866,201.397 C51.723,201.397 49.98,203.14 49.98,205.283 C49.98,207.426 51.723,209.169 53.866,209.169 L192.905,209.169 L200.449,205.386 L192.893,201.397 L53.866,201.397 Z M193.377,211.169 L53.866,211.169 C50.62,211.169 47.98,208.529 47.98,205.283 C47.98,202.037 50.62,199.397 53.866,199.397 L193.389,199.397 L204.82,205.432 L193.377,211.169 Z"/>
    <polygon fill="#48515A" points="57.464 210.169 59.464 210.169 59.464 200.397 57.464 200.397"/>
    <polygon fill="#48515A" points="62.81 210.169 64.81 210.169 64.81 200.397 62.81 200.397"/>
    <polyline fill="#48515A" points="192.208 210.9 189.001 207.693 191.501 205.193 189.001 202.693 192.208 199.486 193.622 200.9 191.829 202.693 194.329 205.193 191.829 207.693 193.622 209.486 192.208 210.9"/>
  </g>
</svg>
