<svg xmlns="http://www.w3.org/2000/svg" width="250" height="250" viewBox="0 0 250 250">
  <g fill="none" fill-rule="evenodd">
    <path fill="#48515A" d="M66.5,160.5 C66.244,160.5 65.988,160.402 65.793,160.207 C65.402,159.816 65.402,159.184 65.793,158.793 L94.293,130.293 C94.683,129.902 95.316,129.902 95.707,130.293 C96.097,130.684 96.097,131.316 95.707,131.707 L67.207,160.207 C67.011,160.402 66.756,160.5 66.5,160.5"/>
    <path fill="#DFE0E0" d="M125,65 C91.916,65 65,91.916 65,125 C65,158.084 91.916,185 125,185 C158.083,185 185,158.084 185,125 C185,91.916 158.084,65 125,65 Z M125,197 C85.298,197 53,164.701 53,125 C53,85.299 85.298,53 125,53 C164.702,53 197,85.299 197,125 C197,164.701 164.702,197 125,197 Z"/>
    <path fill="#5FE0ED" d="M125,185 C91.916,185 65,158.084 65,125 L53,125 C53,164.701 85.298,197 125,197 C164.702,197 197,164.701 197,125 L185,125 C185,158.084 158.083,185 125,185"/>
    <path fill="#F58E70" d="M125,209 C78.682,209 41,171.318 41,125 C41,78.682 78.682,41 125,41 L125,29 C72.065,29 29,72.066 29,125 C29,177.934 72.065,221 125,221 C177.935,221 221,177.934 221,125 L209,125 C209,171.318 171.318,209 125,209"/>
    <path fill="#FFD15D" d="M125,197 C85.298,197 53,164.701 53,125 C53,105.15 61.075,87.149 74.112,74.112 L65.631,65.631 C50.421,80.841 41,101.841 41,125 C41,171.318 78.682,209 125,209 C171.318,209 209,171.318 209,125 L197,125 C197,164.701 164.702,197 125,197"/>
    <path fill="#48515A" d="M105.5,142.5 C105.244,142.5 104.988,142.402 104.793,142.207 L95,132.414 L85.207,142.207 C84.816,142.598 84.183,142.598 83.793,142.207 C83.402,141.816 83.402,141.184 83.793,140.793 L94.293,130.293 C94.683,129.902 95.316,129.902 95.707,130.293 L105.5,140.086 L145.293,100.293 C145.683,99.902 146.316,99.902 146.707,100.293 L158,111.586 L214.293,55.293 C214.683,54.902 215.316,54.902 215.707,55.293 C216.097,55.684 216.097,56.316 215.707,56.707 L158.707,113.707 C158.316,114.098 157.683,114.098 157.293,113.707 L146,102.414 L106.207,142.207 C106.011,142.402 105.755,142.5 105.5,142.5"/>
    <path fill="#48515A" d="M215 69C214.447 69 214 68.552 214 68L214 57 203 57C202.447 57 202 56.552 202 56 202 55.448 202.447 55 203 55L215 55C215.552 55 216 55.448 216 56L216 68C216 68.552 215.552 69 215 69M125.017 196.991C93.236 196.992 64.078 175.754 55.47 143.63 50.494 125.058 53.048 105.66 62.661 89.009 72.275 72.357 87.798 60.447 106.37 55.47 134.973 47.806 165.879 58.753 183.273 82.71 183.597 83.157 183.498 83.782 183.051 84.106 182.602 84.432 181.979 84.331 181.654 83.885 164.745 60.594 134.697 49.952 106.887 57.402 88.831 62.24 73.74 73.82 64.393 90.009 55.047 106.197 52.564 125.057 57.402 143.113 67.39 180.386 105.839 202.586 143.113 192.598 180.385 182.61 202.585 144.161 192.598 106.887 190.981 100.854 188.583 95.083 185.468 89.736 185.191 89.258 185.352 88.646 185.83 88.368 186.305 88.09 186.919 88.251 187.197 88.729 190.4 94.229 192.867 100.165 194.53 106.37 204.802 144.708 181.968 184.257 143.63 194.53 137.416 196.195 131.166 196.99 125.017 196.991"/>
    <path fill="#48515A" d="M132.087 196.183C110.399 196.183 88.283 179.258 76.702 152.453 76.483 151.946 76.716 151.358 77.223 151.139 77.727 150.92 78.318 151.152 78.538 151.66 91.606 181.905 118.327 199.24 142.074 192.876 142.608 192.733 143.156 193.05 143.298 193.583 143.441 194.117 143.125 194.665 142.591 194.808 139.134 195.734 135.614 196.183 132.087 196.183M75.199 146.858C74.786 146.858 74.399 146.6 74.256 146.188 73.451 143.893 72.723 141.534 72.092 139.177 67.13 120.657 67.824 101.797 74.046 86.073 80.31 70.246 91.421 59.476 105.331 55.749 105.864 55.605 106.413 55.922 106.555 56.456 106.698 56.989 106.381 57.538 105.848 57.681 92.565 61.24 81.931 71.585 75.906 86.809 69.84 102.137 69.173 120.551 74.024 138.659 74.642 140.968 75.355 143.279 76.142 145.527 76.325 146.049 76.05 146.619 75.529 146.802 75.42 146.84 75.308 146.858 75.199 146.858M59.03 112.501C58.589 112.501 58.185 112.206 58.065 111.759 57.923 111.226 58.239 110.678 58.772 110.535L65.005 108.864C65.541 108.72 66.087 109.038 66.23 109.571 66.373 110.104 66.056 110.653 65.523 110.796L59.29 112.466C59.203 112.49 59.116 112.501 59.03 112.501"/>
    <path fill="#48515A" d="M75.651 108.047C75.21 108.047 74.805 107.752 74.686 107.306 74.544 106.772 74.86 106.224 75.393 106.081L92.015 101.627C92.549 101.484 93.097 101.8 93.24 102.334 93.382 102.867 93.066 103.416 92.533 103.559L75.911 108.013C75.824 108.036 75.737 108.047 75.651 108.047M167.07 83.552C166.629 83.552 166.224 83.257 166.105 82.81 165.963 82.277 166.279 81.729 166.812 81.585L175.123 79.358C175.657 79.216 176.205 79.531 176.347 80.065 176.49 80.599 176.173 81.147 175.64 81.29L167.33 83.517C167.243 83.54 167.156 83.552 167.07 83.552M74.618 170.676C74.176 170.676 73.773 170.381 73.653 169.935 73.51 169.401 73.827 168.853 74.36 168.71L80.593 167.04C81.127 166.896 81.675 167.213 81.818 167.747 81.961 168.28 81.644 168.828 81.111 168.971L74.878 170.642C74.791 170.665 74.704 170.676 74.618 170.676M89.162 166.779C88.72 166.779 88.316 166.484 88.197 166.038 88.054 165.504 88.371 164.956 88.904 164.813L107.603 159.802C108.138 159.66 108.685 159.976 108.828 160.509 108.97 161.042 108.654 161.591 108.121 161.734L89.421 166.745C89.335 166.768 89.248 166.779 89.162 166.779M100.584 101.367C100.142 101.367 99.738 101.072 99.619 100.625 99.476 100.092 99.793 99.544 100.326 99.4L133.569 90.493C134.104 90.35 134.651 90.666 134.794 91.2 134.936 91.733 134.62 92.281 134.087 92.424L100.843 101.332C100.756 101.355 100.67 101.367 100.584 101.367M116.172 159.542C115.73 159.542 115.326 159.247 115.207 158.8 115.064 158.267 115.38 157.719 115.914 157.576L149.157 148.668C149.691 148.526 150.239 148.841 150.381 149.375 150.524 149.908 150.208 150.457 149.674 150.6L116.431 159.507C116.344 159.531 116.257 159.542 116.172 159.542M186.815 140.613C186.374 140.613 185.969 140.318 185.85 139.871 185.708 139.337 186.024 138.789 186.557 138.646L190.711 137.534C191.246 137.392 191.793 137.708 191.935 138.241 192.078 138.774 191.761 139.323 191.228 139.465L187.075 140.578C186.988 140.602 186.901 140.613 186.815 140.613"/>
    <path fill="#48515A" d="M102.933 134.989C102.498 134.989 102.096 134.702 101.972 134.261 101.702 133.309 101.438 132.349 101.179 131.383 90.732 92.395 93.012 59.049 106.37 55.47 117.092 52.594 131.652 70.17 142.597 99.195 142.793 99.712 142.531 100.289 142.014 100.483 141.497 100.678 140.921 100.417 140.726 99.901 130.327 72.327 116.417 54.852 106.887 57.402 95.022 60.581 93.293 94.224 103.111 130.865 103.368 131.822 103.63 132.772 103.896 133.716 104.047 134.248 103.738 134.8 103.207 134.951 103.116 134.977 103.024 134.989 102.933 134.989M141.284 194.835C130.215 194.835 115.97 175.568 105.728 146.19 105.547 145.669 105.822 145.099 106.343 144.917 106.863 144.735 107.435 145.011 107.617 145.532 118.068 175.512 132.978 195.307 143.113 192.598 154.977 189.418 156.707 155.777 146.888 119.135 145.968 115.7 144.956 112.264 143.877 108.921 143.708 108.395 143.996 107.832 144.522 107.662 145.047 107.49 145.612 107.782 145.781 108.307 146.869 111.681 147.891 115.15 148.82 118.617 159.267 157.606 156.988 190.951 143.63 194.53 142.868 194.734 142.083 194.835 141.284 194.835M157.725 148.408C157.284 148.408 156.88 148.113 156.76 147.666 156.618 147.133 156.934 146.584 157.467 146.441L169.931 143.102C170.466 142.959 171.013 143.275 171.156 143.809 171.298 144.342 170.982 144.89 170.449 145.033L157.985 148.373C157.898 148.396 157.811 148.408 157.725 148.408M142.137 90.232C141.696 90.232 141.293 89.938 141.172 89.491 141.03 88.957 141.346 88.409 141.88 88.266L158.501 83.812C159.036 83.669 159.582 83.985 159.725 84.519 159.868 85.052 159.551 85.601 159.018 85.744L142.397 90.198C142.31 90.221 142.223 90.232 142.137 90.232"/>
    <path fill="#48515A" d="M142.137 90.232C141.696 90.232 141.293 89.938 141.172 89.491 141.03 88.957 141.346 88.409 141.88 88.266L158.501 83.812C159.036 83.669 159.582 83.985 159.725 84.519 159.868 85.052 159.551 85.601 159.018 85.744L142.397 90.198C142.31 90.221 142.223 90.232 142.137 90.232M142.332 194.843C141.89 194.843 141.486 194.548 141.367 194.101 141.224 193.568 141.541 193.02 142.074 192.876 169.61 185.498 183.886 149.171 173.899 111.897 173.132 109.041 172.232 106.208 171.22 103.478 171.028 102.96 171.293 102.385 171.81 102.193 172.331 102 172.904 102.265 173.095 102.783 174.129 105.57 175.048 108.463 175.831 111.38 186.104 149.718 171.193 187.144 142.591 194.808 142.505 194.832 142.418 194.843 142.332 194.843"/>
    <path fill="#48515A" d="M169.493,97.677 C169.113,97.678 168.751,97.461 168.583,97.094 C162.15,83.048 152.383,71.363 141.082,64.189 C129.523,56.852 117.338,54.601 105.848,57.681 C105.316,57.826 104.766,57.508 104.624,56.974 C104.481,56.44 104.797,55.892 105.331,55.749 C129.726,49.208 156.484,65.872 170.401,96.261 C170.63,96.763 170.411,97.356 169.908,97.586 C169.773,97.648 169.631,97.677 169.493,97.677"/>
    <polyline fill="#FFF" points="177.947 149.571 177.682 149.496 177.941 149.249 177.947 149.571"/>
    <polyline fill="#FFF" points="150.492 81.676 150.417 81.941 150.171 81.682 150.492 81.676"/>
    <polygon fill="#48515A" points="38.826 190.024 40.826 190.024 40.826 186.024 38.826 186.024"/>
    <polygon fill="#48515A" points="38.826 200.024 40.826 200.024 40.826 196.024 38.826 196.024"/>
    <polygon fill="#48515A" points="42.826 194.024 46.826 194.024 46.826 192.024 42.826 192.024"/>
    <polygon fill="#48515A" points="32.826 194.024 36.826 194.024 36.826 192.024 32.826 192.024"/>
    <polygon fill="#48515A" points="208.928 200.03 210.928 200.03 210.928 196.03 208.928 196.03"/>
    <polygon fill="#48515A" points="208.928 210.03 210.928 210.03 210.928 206.03 208.928 206.03"/>
    <polygon fill="#48515A" points="212.928 204.03 216.928 204.03 216.928 202.03 212.928 202.03"/>
    <polygon fill="#48515A" points="202.928 204.03 206.928 204.03 206.928 202.03 202.928 202.03"/>
    <polygon fill="#48515A" points="168.904 49.94 170.904 49.94 170.904 45.94 168.904 45.94"/>
    <polygon fill="#48515A" points="168.904 59.94 170.904 59.94 170.904 55.94 168.904 55.94"/>
    <polygon fill="#48515A" points="172.904 53.94 176.904 53.94 176.904 51.94 172.904 51.94"/>
    <polygon fill="#48515A" points="162.904 53.94 166.904 53.94 166.904 51.94 162.904 51.94"/>
    <path fill="#FFD15D" d="M206.928 91.232C206.928 92.336 206.033 93.232 204.928 93.232 203.823 93.232 202.928 92.336 202.928 91.232 202.928 90.127 203.823 89.232 204.928 89.232 206.033 89.232 206.928 90.127 206.928 91.232M210.018 110.802C210.018 111.655 209.326 112.347 208.473 112.347 207.62 112.347 206.928 111.655 206.928 110.802 206.928 109.948 207.62 109.257 208.473 109.257 209.326 109.257 210.018 109.948 210.018 110.802M147.596 47.975C147.596 49.06 146.716 49.94 145.631 49.94 144.546 49.94 143.667 49.06 143.667 47.975 143.667 46.89 144.546 46.011 145.631 46.011 146.716 46.011 147.596 46.89 147.596 47.975"/>
    <path fill="#5FE0ED" d="M191.423 53.637C191.423 54.909 190.392 55.94 189.12 55.94 187.848 55.94 186.816 54.909 186.816 53.637 186.816 52.365 187.848 51.333 189.12 51.333 190.392 51.333 191.423 52.365 191.423 53.637M178.877 41.859C178.877 42.189 178.609 42.457 178.279 42.457 177.949 42.457 177.682 42.189 177.682 41.859 177.682 41.529 177.949 41.262 178.279 41.262 178.609 41.262 178.877 41.529 178.877 41.859"/>
  </g>
</svg>
