<svg xmlns="http://www.w3.org/2000/svg" width="250" height="250" viewBox="0 0 250 250">
  <g fill="none" fill-rule="evenodd">
    <path fill="#5FE0ED" d="M85.5,35.92 C85.5,38.129 83.709,39.92 81.5,39.92 C79.291,39.92 77.5,38.129 77.5,35.92 C77.5,33.711 79.291,31.92 81.5,31.92 C83.709,31.92 85.5,33.711 85.5,35.92"/>
    <path fill="#48515A" d="M156.439,158.003 L154.439,158.003 L154.439,143.282 C154.439,135.839 157.866,128.328 163.841,122.675 C175.022,112.097 181.156,97.404 180.671,82.361 C179.79,55.016 157.728,32.455 130.447,30.998 L123.439,30.999 C96.21,32.455 74.149,55.016 73.267,82.361 C72.783,97.404 78.917,112.097 90.097,122.675 C96.073,128.328 99.5,135.839 99.5,143.282 L99.5,158.003 L97.5,158.003 L97.5,143.282 C97.5,136.386 94.301,129.405 88.723,124.128 C77.127,113.157 70.765,97.91 71.268,82.296 C72.183,53.923 95.076,30.512 123.386,29.001 L130.5,28.999 C158.863,30.512 181.755,53.923 182.67,82.296 C183.173,97.91 176.811,113.157 165.215,124.128 C159.638,129.405 156.439,136.386 156.439,143.282 L156.439,158.003"/>
    <path fill="#FFD15D" d="M137.261,186.503 L119.261,186.503 C110.977,186.503 104,180.205 104,171.92 L104,168.503 L152,168.503 L152,171.92 C152,180.205 145.546,186.503 137.261,186.503"/>
    <path fill="#FFD15D" d="M104.5,169.003 L104.5,171.921 C104.5,179.686 111.122,186.003 119.261,186.003 L137.261,186.003 C145.378,186.003 151.5,179.949 151.5,171.921 L151.5,169.003 L104.5,169.003 Z M137.261,187.003 L119.261,187.003 C110.57,187.003 103.5,180.237 103.5,171.921 L103.5,168.003 L152.5,168.003 L152.5,171.921 C152.5,180.378 145.806,187.003 137.261,187.003 Z"/>
    <path fill="#DEDEDD" d="M96.167,157.836 L97.5,160.67 C97.999,161.048 99.874,164.09 100.618,164.72 C101.085,165.115 101.471,165.577 101.77,166.077 C102.195,166.26 102.531,166.594 102.746,167.003 L152.5,167.003 C152.928,166.341 159.282,160.4 159.834,159.836 L160.834,158.003 L96.167,157.836"/>
    <polygon fill="#48515A" points="94.5 159.003 162 159.003 162 157.003 94.5 157.003"/>
    <polygon fill="#48515A" points="98.25 163.003 157.875 163.003 157.875 161.003 98.25 161.003"/>
    <polygon fill="#48515A" points="102.25 167.003 153.5 167.003 153.5 165.003 102.25 165.003"/>
    <path fill="#48515A" d="M138.536,191.003 L117.478,191.003 C114.169,191.003 110.89,190.109 107.998,188.418 L109.008,186.691 C111.594,188.204 114.523,189.003 117.478,189.003 L138.536,189.003 C141.492,189.003 144.421,188.204 147.007,186.691 L148.017,188.418 C145.124,190.109 141.846,191.003 138.536,191.003"/>
    <polygon fill="#48515A" points="50.5 106.003 52.5 106.003 52.5 102.003 50.5 102.003"/>
    <polygon fill="#48515A" points="50.5 116.003 52.5 116.003 52.5 112.003 50.5 112.003"/>
    <polygon fill="#48515A" points="54.5 110.003 58.5 110.003 58.5 108.003 54.5 108.003"/>
    <polygon fill="#48515A" points="44.5 110.003 48.5 110.003 48.5 108.003 44.5 108.003"/>
    <path fill="#48515A" d="M51.266,64.914 C50.163,64.914 49.266,65.811 49.266,66.914 C49.266,68.017 50.163,68.914 51.266,68.914 C52.369,68.914 53.266,68.017 53.266,66.914 C53.266,65.811 52.369,64.914 51.266,64.914 Z M51.266,70.914 C49.061,70.914 47.266,69.119 47.266,66.914 C47.266,64.708 49.061,62.914 51.266,62.914 C53.472,62.914 55.266,64.708 55.266,66.914 C55.266,69.119 53.472,70.914 51.266,70.914 Z"/>
    <polygon fill="#48515A" points="123.5 198.003 125.5 198.003 125.5 190.003 123.5 190.003"/>
    <polygon fill="#48515A" points="129.5 198.003 131.5 198.003 131.5 190.003 129.5 190.003"/>
    <path fill="#48515A" d="M124.501 202.003C124.241 202.003 123.981 201.893 123.791 201.713 123.701 201.613 123.631 201.513 123.58 201.383 123.521 201.263 123.501 201.133 123.501 201.003 123.501 200.743 123.611 200.483 123.791 200.293 124.071 200.013 124.511 199.923 124.881 200.083 125.001 200.133 125.111 200.203 125.211 200.293 125.39 200.483 125.501 200.743 125.501 201.003 125.501 201.263 125.39 201.523 125.211 201.713 125.021 201.893 124.761 202.003 124.501 202.003M130.501 202.003C130.241 202.003 129.981 201.893 129.791 201.713 129.701 201.613 129.631 201.513 129.58 201.383 129.521 201.263 129.501 201.133 129.501 201.003 129.501 200.743 129.611 200.483 129.791 200.293 130.071 200.013 130.511 199.923 130.881 200.083 131.001 200.133 131.111 200.203 131.211 200.293 131.39 200.483 131.501 200.743 131.501 201.003 131.501 201.263 131.39 201.523 131.211 201.713 131.021 201.893 130.761 202.003 130.501 202.003M124.501 206.003C124.241 206.003 123.981 205.893 123.791 205.713 123.611 205.523 123.501 205.263 123.501 205.003 123.501 204.873 123.531 204.743 123.58 204.623 123.631 204.503 123.701 204.393 123.791 204.293 124.171 203.923 124.83 203.923 125.211 204.293 125.301 204.393 125.37 204.503 125.421 204.623 125.471 204.743 125.501 204.873 125.501 205.003 125.501 205.263 125.39 205.523 125.211 205.713 125.021 205.893 124.761 206.003 124.501 206.003M130.501 206.003C130.241 206.003 129.981 205.893 129.791 205.713 129.611 205.523 129.501 205.263 129.501 205.003 129.501 204.873 129.521 204.743 129.58 204.623 129.631 204.503 129.701 204.393 129.791 204.293 130.171 203.923 130.83 203.923 131.211 204.293 131.301 204.393 131.37 204.503 131.421 204.623 131.471 204.743 131.501 204.873 131.501 205.003 131.501 205.263 131.39 205.523 131.211 205.713 131.021 205.893 130.761 206.003 130.501 206.003"/>
    <polyline fill="#48515A" points="115.379 211.001 113.379 211.001 113.379 200.001 76.381 200.001 76.381 211.001 74.381 211.001 74.381 198.001 115.379 198.001 115.379 211.001"/>
    <polygon fill="#5FE0ED" points="69.381 221.001 117.5 221.001 117.5 208.006 69.381 208.006"/>
    <path fill="#48515A" d="M83.38,216.001 L79.381,216.001 C78.828,216.001 78.381,215.553 78.381,215.001 C78.381,214.448 78.828,214.001 79.381,214.001 L83.38,214.001 C83.932,214.001 84.38,214.448 84.38,215.001 C84.38,215.553 83.932,216.001 83.38,216.001"/>
    <path fill="#48515A" d="M77.381,214.001 C76.829,214.001 76.381,214.449 76.381,215.001 C76.381,215.552 76.829,216.001 77.381,216.001 C77.932,216.001 78.381,215.552 78.381,215.001 C78.381,214.449 77.932,214.001 77.381,214.001 Z M77.381,218.001 C75.726,218.001 74.381,216.655 74.381,215.001 C74.381,213.346 75.726,212.001 77.381,212.001 C79.035,212.001 80.381,213.346 80.381,215.001 C80.381,216.655 79.035,218.001 77.381,218.001 Z"/>
    <path fill="#DEDEDD" d="M60.602,137.475 L60.602,153.267 L71.63,162.792 C73.998,165.16 77.223,166.472 80.573,166.43 L83.895,166.388 L71.609,155.843 L71.609,145.479 C71.609,142.496 70.538,139.861 68.607,138.233 L68.607,137.475 C68.607,132.529 65.681,128.519 60.735,128.519 L60.735,129.592 C59.614,128.908 58.272,128.519 56.733,128.519 L56.733,129.592 C59.213,131.106 60.602,134.068 60.602,137.475"/>
    <path fill="#475059" d="M83.894,167.388 C83.664,167.388 83.432,167.309 83.243,167.147 L70.609,156.302 L70.609,145.479 C70.609,142.778 69.644,140.415 67.962,138.998 L67.607,138.698 L67.607,137.475 C67.607,133.515 65.482,129.519 60.735,129.519 L57.733,129.519 L57.733,129.593 C57.733,130.145 57.285,130.593 56.733,130.593 C56.18,130.593 55.733,130.145 55.733,129.593 L55.733,127.519 L60.735,127.519 C65.959,127.519 69.607,131.613 69.607,137.475 L69.607,137.786 C71.52,139.601 72.609,142.374 72.609,145.479 L72.609,155.384 L84.546,165.63 C84.965,165.989 85.013,166.621 84.654,167.04 C84.456,167.27 84.176,167.388 83.894,167.388"/>
    <path fill="#475059" d="M108.685,199.402 C108.133,199.402 107.685,198.954 107.685,198.402 L107.685,176.545 C107.685,174.093 106.73,171.787 104.996,170.053 L81.482,146.54 C78.918,149.87 79.283,154.975 82.478,158.17 L92.107,167.284 L80.585,167.43 C77.028,167.45 73.467,166.043 70.923,163.499 L59.602,153.724 L59.602,137.475 C59.602,133.805 57.777,130.104 53.73,129.582 L53.73,158.978 L81.707,185.644 L81.707,198.318 C81.707,198.87 81.26,199.318 80.707,199.318 C80.155,199.318 79.707,198.87 79.707,198.318 L79.707,186.5 L51.73,159.834 L51.73,127.519 L52.73,127.519 C57.954,127.519 61.602,131.613 61.602,137.475 L61.602,152.809 L72.284,162.035 C74.501,164.249 77.492,165.448 80.56,165.43 L87.151,165.347 L81.083,159.603 C76.851,155.371 76.698,148.405 80.73,144.373 L81.437,143.665 L106.41,168.639 C108.522,170.751 109.685,173.559 109.685,176.545 L109.685,198.402 C109.685,198.954 109.237,199.402 108.685,199.402"/>
    <polyline fill="#48515A" points="181.849 211.001 179.849 211.001 179.849 200.001 142.851 200.001 142.851 211.001 140.851 211.001 140.851 198.001 181.849 198.001 181.849 211.001"/>
    <polygon fill="#5FE0ED" points="138.73 221.001 186.85 221.001 186.85 208.006 138.73 208.006"/>
    <path fill="#48515A" d="M176.849,216.001 L172.851,216.001 C172.299,216.001 171.851,215.553 171.851,215.001 C171.851,214.448 172.299,214.001 172.851,214.001 L176.849,214.001 C177.402,214.001 177.849,214.448 177.849,215.001 C177.849,215.553 177.402,216.001 176.849,216.001"/>
    <path fill="#48515A" d="M178.849,214.001 C178.298,214.001 177.849,214.449 177.849,215.001 C177.849,215.552 178.298,216.001 178.849,216.001 C179.401,216.001 179.849,215.552 179.849,215.001 C179.849,214.449 179.401,214.001 178.849,214.001 Z M178.849,218.001 C177.195,218.001 175.849,216.655 175.849,215.001 C175.849,213.346 177.195,212.001 178.849,212.001 C180.504,212.001 181.849,213.346 181.849,215.001 C181.849,216.655 180.504,218.001 178.849,218.001 Z"/>
    <path fill="#DEDEDD" d="M195.628,137.475 L195.628,153.267 L184.601,162.792 C182.232,165.16 179.007,166.472 175.658,166.43 L172.336,166.388 L184.622,155.843 L184.622,145.479 C184.622,142.496 185.693,139.861 187.624,138.233 L187.624,137.475 C187.624,132.529 190.55,128.519 195.495,128.519 L195.495,129.592 C196.616,128.908 197.959,128.519 199.498,128.519 L199.498,129.592 C197.017,131.106 195.628,134.068 195.628,137.475"/>
    <path fill="#475059" d="M172.336,167.388 C172.055,167.388 171.775,167.27 171.577,167.04 C171.217,166.621 171.265,165.989 171.684,165.63 L183.622,155.384 L183.622,145.479 C183.622,142.374 184.71,139.6 186.623,137.786 L186.623,137.475 C186.623,131.613 190.272,127.519 195.495,127.519 L200.498,127.519 L200.498,129.593 C200.498,130.145 200.05,130.593 199.498,130.593 C198.946,130.593 198.498,130.145 198.498,129.593 L198.498,129.519 L195.495,129.519 C190.748,129.519 188.623,133.515 188.623,137.475 L188.623,138.698 L188.268,138.998 C186.586,140.415 185.622,142.778 185.622,145.479 L185.622,156.302 L172.987,167.147 C172.799,167.309 172.567,167.388 172.336,167.388"/>
    <path fill="#475059" d="M147.546,199.402 C146.993,199.402 146.546,198.954 146.546,198.402 L146.546,176.545 C146.546,173.558 147.709,170.751 149.821,168.639 L174.794,143.666 L175.501,144.373 C177.477,146.349 178.512,149.062 178.414,152.011 C178.32,154.854 177.136,157.614 175.166,159.584 L169.079,165.347 L175.67,165.43 C178.756,165.471 181.729,164.249 183.894,162.085 L194.628,152.809 L194.628,137.475 C194.628,131.613 198.277,127.519 203.5,127.519 L204.5,127.519 L204.5,159.834 L176.523,186.5 L176.523,198.318 C176.523,198.87 176.075,199.318 175.523,199.318 C174.971,199.318 174.523,198.87 174.523,198.318 L174.523,185.644 L202.5,158.978 L202.5,129.582 C198.454,130.104 196.628,133.805 196.628,137.475 L196.628,153.724 L185.255,163.549 C182.764,166.042 179.238,167.468 175.645,167.43 L164.124,167.284 L173.772,158.151 C176.949,154.974 177.312,149.869 174.748,146.54 L151.235,170.053 C149.501,171.787 148.546,174.093 148.546,176.545 L148.546,198.402 C148.546,198.954 148.098,199.402 147.546,199.402"/>
    <path fill="#5FE0ED" d="M205.5,107.003 C205.5,109.212 203.709,111.003 201.5,111.003 C199.291,111.003 197.5,109.212 197.5,107.003 C197.5,104.794 199.291,103.003 201.5,103.003 C203.709,103.003 205.5,104.794 205.5,107.003"/>
    <polygon fill="#48515A" points="193.5 59.003 195.5 59.003 195.5 55.003 193.5 55.003"/>
    <polygon fill="#48515A" points="193.5 69.003 195.5 69.003 195.5 65.003 193.5 65.003"/>
    <polygon fill="#48515A" points="197.5 63.003 201.5 63.003 201.5 61.003 197.5 61.003"/>
    <polygon fill="#48515A" points="187.5 63.003 191.5 63.003 191.5 61.003 187.5 61.003"/>
    <path fill="#DEDEDD" d="M169.5,86.189 L169.5,85.003 L158.786,85.003 C158.786,102.254 144.751,116.288 127.5,116.288 C110.249,116.288 96.215,102.254 96.215,85.003 L85.5,85.003 L85.5,86.189 L95.05,88.579 L97.61,98.131 L90.534,104.976 L91.72,107.03 L101.186,104.324 L108.178,111.318 L105.473,120.783 L107.528,121.969 L114.372,114.895 L123.924,117.452 L126.314,127.003 L128.686,127.003 L131.077,117.452 L140.628,114.895 L147.473,121.969 L149.528,120.783 L146.822,111.318 L153.815,104.324 L163.28,107.03 L164.466,104.976 L157.391,98.131 L159.95,88.579 L169.5,86.189"/>
    <path fill="#DEDEDD" d="M136.827,85.574 C136.827,85.62 136.834,85.664 136.834,85.71 C136.834,90.857 132.647,95.044 127.5,95.044 C122.354,95.044 118.167,90.857 118.167,85.71 C118.167,85.664 118.173,85.62 118.174,85.574 L113.504,85.574 C113.503,85.619 113.5,85.665 113.5,85.71 C113.5,93.43 119.781,99.71 127.5,99.71 C135.22,99.71 141.5,93.43 141.5,85.71 C141.5,85.665 141.497,85.619 141.497,85.574 L136.827,85.574"/>
    <path fill="#475059" d="M124.753,129.003 L130.247,129.003 L132.731,119.081 L140.009,117.131 L147.121,124.482 L151.88,121.735 L149.069,111.9 L154.397,106.572 L164.232,109.383 L166.979,104.624 L159.628,97.512 L161.578,90.234 L171.5,87.75 L171.5,82.256 L161.578,79.773 L159.628,72.494 L166.979,65.382 L164.232,60.624 L154.397,63.434 L149.069,58.107 L151.88,48.272 L147.121,45.525 L140.009,52.876 L132.731,50.926 L130.247,41.003 L124.753,41.003 L122.269,50.926 L114.991,52.876 L107.88,45.525 L103.121,48.272 L105.931,58.107 L100.603,63.434 L90.768,60.624 L88.021,65.382 L95.373,72.494 L93.423,79.773 L83.5,82.256 L83.5,87.75 L93.423,90.234 L95.373,97.512 L88.021,104.624 L90.768,109.383 L100.603,106.572 L105.931,111.9 L103.121,121.735 L107.88,124.482 L114.991,117.131 L122.269,119.081 L124.753,129.003 Z M131.809,131.003 L123.192,131.003 L120.615,120.708 L115.61,119.367 L108.231,126.995 L100.769,122.686 L103.685,112.482 L100.021,108.818 L89.817,111.734 L85.509,104.272 L93.136,96.893 L91.796,91.888 L81.5,89.312 L81.5,80.695 L91.796,78.118 L93.136,73.113 L85.509,65.734 L89.817,58.272 L100.021,61.188 L103.685,57.525 L100.769,47.32 L108.232,43.012 L115.61,50.639 L120.615,49.299 L123.192,39.003 L131.809,39.003 L134.385,49.299 L139.39,50.639 L146.769,43.012 L154.231,47.32 L151.315,57.525 L154.979,61.188 L165.183,58.272 L169.492,65.734 L161.864,73.113 L163.205,78.118 L173.5,80.695 L173.5,89.312 L163.205,91.888 L161.864,96.893 L169.492,104.272 L165.183,111.734 L154.979,108.818 L151.315,112.482 L154.231,122.686 L146.769,126.995 L139.39,119.367 L134.385,120.708 L131.809,131.003 Z"/>
    <path fill="#F58E70" d="M127.5,106.86 C115.448,106.86 105.643,97.055 105.643,85.003 C105.643,72.951 115.448,63.146 127.5,63.146 C139.553,63.146 149.357,72.951 149.357,85.003 C149.357,97.055 139.553,106.86 127.5,106.86 Z M127.5,56.717 C111.878,56.717 99.215,69.381 99.215,85.003 C99.215,100.625 111.878,113.289 127.5,113.289 C143.122,113.289 155.786,100.625 155.786,85.003 C155.786,69.381 143.122,56.717 127.5,56.717 Z"/>
    <path fill="#475059" d="M124.753,129.003 L130.247,129.003 L132.731,119.081 L140.009,117.131 L147.121,124.482 L151.88,121.735 L149.069,111.9 L154.397,106.572 L164.232,109.383 L166.979,104.624 L159.628,97.512 L161.578,90.234 L171.5,87.75 L171.5,82.256 L161.578,79.772 L159.628,72.494 L166.979,65.382 L164.232,60.624 L154.397,63.434 L149.069,58.106 L151.88,48.272 L147.121,45.525 L140.009,52.876 L132.731,50.926 L130.247,41.003 L124.753,41.003 L122.269,50.926 L114.992,52.876 L107.88,45.525 L103.121,48.272 L105.931,58.106 L100.603,63.434 L90.768,60.624 L88.021,65.382 L95.373,72.494 L93.422,79.772 L83.5,82.256 L83.5,87.75 L93.422,90.234 L95.373,97.512 L88.021,104.624 L90.768,109.383 L100.603,106.572 L105.931,111.9 L103.121,121.735 L107.88,124.482 L114.992,117.131 L122.269,119.081 L124.753,129.003 Z M131.809,131.003 L123.192,131.003 L120.615,120.708 L115.611,119.367 L108.231,126.994 L100.769,122.686 L103.685,112.482 L100.021,108.818 L89.817,111.734 L85.509,104.272 L93.136,96.893 L91.795,91.888 L81.5,89.312 L81.5,80.695 L91.795,78.118 L93.136,73.113 L85.509,65.734 L89.817,58.272 L100.021,61.188 L103.685,57.524 L100.769,47.32 L108.231,43.012 L115.611,50.639 L120.615,49.299 L123.192,39.003 L131.809,39.003 L134.385,49.299 L139.39,50.639 L146.769,43.012 L154.231,47.32 L151.315,57.524 L154.979,61.188 L165.183,58.272 L169.492,65.734 L161.864,73.113 L163.205,78.118 L173.5,80.695 L173.5,89.312 L163.205,91.888 L161.864,96.893 L169.492,104.272 L165.183,111.734 L154.979,108.818 L151.315,112.482 L154.231,122.686 L146.769,126.994 L139.39,119.367 L134.385,120.708 L131.809,131.003 Z"/>
    <path fill="#475059" d="M127.5,57.717 C112.455,57.717 100.215,69.958 100.215,85.003 C100.215,100.049 112.455,112.289 127.5,112.289 C142.546,112.289 154.786,100.049 154.786,85.003 C154.786,69.958 142.546,57.717 127.5,57.717 Z M127.5,114.289 C111.352,114.289 98.215,101.151 98.215,85.003 C98.215,68.855 111.352,55.717 127.5,55.717 C143.648,55.717 156.786,68.855 156.786,85.003 C156.786,101.151 143.648,114.289 127.5,114.289 Z"/>
    <path fill="#475059" d="M127.5,80.003 C124.743,80.003 122.5,82.246 122.5,85.003 C122.5,87.76 124.743,90.003 127.5,90.003 C130.257,90.003 132.5,87.76 132.5,85.003 C132.5,82.246 130.257,80.003 127.5,80.003 Z M127.5,92.003 C123.64,92.003 120.5,88.863 120.5,85.003 C120.5,81.143 123.64,78.003 127.5,78.003 C131.36,78.003 134.5,81.143 134.5,85.003 C134.5,88.863 131.36,92.003 127.5,92.003 Z"/>
    <path fill="#475059" d="M127.5,75.717 C122.38,75.717 118.215,79.883 118.215,85.003 C118.215,90.123 122.38,94.289 127.5,94.289 C132.62,94.289 136.786,90.123 136.786,85.003 C136.786,79.883 132.62,75.717 127.5,75.717 Z M127.5,96.289 C121.277,96.289 116.215,91.226 116.215,85.003 C116.215,78.78 121.277,73.717 127.5,73.717 C133.723,73.717 138.786,78.78 138.786,85.003 C138.786,91.226 133.723,96.289 127.5,96.289 Z"/>
    <path fill="#475059" d="M127.501,68.646 C118.481,68.646 111.143,75.984 111.143,85.003 C111.143,94.022 118.481,101.36 127.501,101.36 C136.52,101.36 143.858,94.022 143.858,85.003 C143.858,75.984 136.52,68.646 127.501,68.646 Z M127.501,103.36 C117.378,103.36 109.143,95.125 109.143,85.003 C109.143,74.881 117.378,66.646 127.501,66.646 C137.623,66.646 145.858,74.881 145.858,85.003 C145.858,95.125 137.623,103.36 127.501,103.36 Z"/>
  </g>
</svg>
