<svg xmlns="http://www.w3.org/2000/svg" width="250" height="250" viewBox="0 0 250 250">
  <g fill="none" fill-rule="evenodd">
    <path fill="#475059" d="M125,65.949 C92.467,65.949 66,92.416 66,124.949 C66,157.482 92.467,183.949 125,183.949 C157.533,183.949 184,157.482 184,124.949 C184,92.416 157.533,65.949 125,65.949 Z M125,185.949 C91.364,185.949 64,158.585 64,124.949 C64,91.313 91.364,63.949 125,63.949 C158.636,63.949 186,91.313 186,124.949 C186,158.585 158.636,185.949 125,185.949 Z"/>
    <polygon fill="#FFF" points="94.858 124.949 97.872 124.949 97.872 121.935 94.858 121.935"/>
    <path fill="#FFF" d="M170.445,155.092 L170.445,151.723 C169.765,152.875 169.042,153.998 168.278,155.092 L170.445,155.092"/>
    <path fill="#5FE0ED" d="M152.811 144.957L152.811 131.965 144.292 131.965 131.514 119.187 131.514 102.149 160.829 102.149 160.829 82.606 157.571 82.606 151.057 89.121 154.314 92.378 151.057 95.635 147.8 92.378 141.286 92.378 134.771 98.892 131.514 98.892 131.514 79.349 147.8 79.349 147.8 76.092 134.771 76.092 140.705 70.158C135.714 68.73 130.45 67.949 125 67.949 119.339 67.949 113.876 68.787 108.714 70.323L108.714 98.892 95.686 108.664 95.686 121.692 118.486 121.692 118.486 167.292 115.228 167.292 92.428 144.492 92.428 124.949 82.657 124.949 69.121 113.669C68.389 117.316 68 121.087 68 124.949 68 156.429 93.52 181.949 125 181.949 144.366 181.949 161.465 172.283 171.766 157.521L165.375 157.521 152.811 144.957M174.108 131.965L174.108 153.88C176.851 149.233 178.957 144.167 180.298 138.795L174.108 131.965"/>
    <path fill="#FFF" d="M92.428,124.949 L92.428,121.692 L95.686,121.692 L95.686,108.664 L108.714,98.892 L108.714,70.323 C88.694,76.284 73.283,92.938 69.121,113.669 L82.657,124.949 L92.428,124.949"/>
    <polyline fill="#FFF" points="92.428 124.949 92.428 144.492 115.228 167.292 118.486 167.292 118.486 121.692 95.686 121.692 95.686 124.949 92.428 124.949"/>
    <path fill="#FFF" d="M180.298,138.795 C181.404,134.361 182,129.726 182,124.949 C182,98.919 164.544,76.98 140.705,70.158 L134.771,76.092 L147.8,76.092 L147.8,79.349 L131.514,79.349 L131.514,98.892 L134.771,98.892 L141.286,92.378 L147.8,92.378 L151.057,95.635 L154.314,92.378 L151.057,89.121 L157.571,82.606 L160.829,82.606 L160.829,102.149 L131.514,102.149 L131.514,119.187 L144.292,131.965 L152.811,131.965 L152.811,144.957 L165.375,157.521 L171.766,157.521 C172.591,156.339 173.372,155.125 174.108,153.88 L174.108,131.965 L180.298,138.795"/>
    <path fill="#FFD15D" d="M125,59.264 C88.781,59.264 59.314,88.73 59.314,124.949 C59.314,161.169 88.781,190.635 125,190.635 C161.219,190.635 190.685,161.169 190.685,124.949 C190.685,88.73 161.219,59.264 125,59.264 Z M125,202.692 C82.132,202.692 47.257,167.817 47.257,124.949 C47.257,82.082 82.132,47.207 125,47.207 C167.867,47.207 202.742,82.082 202.742,124.949 C202.742,167.817 167.867,202.692 125,202.692 Z"/>
    <path fill="#FFD15D" d="M125,59.764 C89.057,59.764 59.814,89.006 59.814,124.949 C59.814,160.893 89.057,190.135 125,190.135 C160.943,190.135 190.186,160.893 190.186,124.949 C190.186,89.006 160.943,59.764 125,59.764 Z M125,191.135 C88.505,191.135 58.814,161.444 58.814,124.949 C58.814,88.455 88.505,58.764 125,58.764 C161.495,58.764 191.186,88.455 191.186,124.949 C191.186,161.444 161.495,191.135 125,191.135 Z M125,47.707 C82.408,47.707 47.757,82.358 47.757,124.949 C47.757,167.541 82.408,202.192 125,202.192 C167.591,202.192 202.242,167.541 202.242,124.949 C202.242,82.358 167.591,47.707 125,47.707 Z M125,203.192 C81.857,203.192 46.757,168.092 46.757,124.949 C46.757,81.806 81.857,46.707 125,46.707 C168.143,46.707 203.242,81.806 203.242,124.949 C203.242,168.092 168.143,203.192 125,203.192 Z"/>
    <path fill="#475059" d="M88.829 31C84.394 31 80.786 34.608 80.786 39.042 80.786 43.478 84.394 47.085 88.829 47.085 93.264 47.085 96.872 43.478 96.872 39.042 96.872 34.608 93.264 31 88.829 31zM88.829 49.085C83.291 49.085 78.786 44.58 78.786 39.042 78.786 33.505 83.291 29 88.829 29 94.367 29 98.872 33.505 98.872 39.042 98.872 44.58 94.367 49.085 88.829 49.085zM88.829 202.915C84.394 202.915 80.786 206.522 80.786 210.958 80.786 215.392 84.394 219 88.829 219 93.264 219 96.872 215.392 96.872 210.958 96.872 206.522 93.264 202.915 88.829 202.915zM88.829 221C83.291 221 78.786 216.495 78.786 210.958 78.786 205.42 83.291 200.915 88.829 200.915 94.367 200.915 98.872 205.42 98.872 210.958 98.872 216.495 94.367 221 88.829 221zM210.957 80.736C206.522 80.736 202.915 84.344 202.915 88.778 202.915 93.213 206.522 96.821 210.957 96.821 215.392 96.821 219 93.213 219 88.778 219 84.344 215.392 80.736 210.957 80.736zM210.957 98.821C205.419 98.821 200.915 94.316 200.915 88.778 200.915 83.241 205.419 78.736 210.957 78.736 216.495 78.736 221 83.241 221 88.778 221 94.316 216.495 98.821 210.957 98.821zM39.042 80.736C34.608 80.736 31 84.344 31 88.778 31 93.213 34.608 96.821 39.042 96.821 43.478 96.821 47.085 93.213 47.085 88.778 47.085 84.344 43.478 80.736 39.042 80.736zM39.042 98.821C33.505 98.821 29 94.316 29 88.778 29 83.241 33.505 78.736 39.042 78.736 44.58 78.736 49.085 83.241 49.085 88.778 49.085 94.316 44.58 98.821 39.042 98.821z"/>
    <polyline fill="#475059" points="46.449 83.426 45.035 82.012 82.036 45.01 83.45 46.424 46.449 83.426"/>
    <polygon fill="#475059" points="38.094 152.08 40.094 152.08 40.094 97.821 38.094 97.821"/>
    <polyline fill="#475059" points="82.087 204.94 45.031 167.883 46.445 166.469 83.501 203.526 82.087 204.94"/>
    <polygon fill="#475059" points="97.869 211.855 152.127 211.855 152.127 209.855 97.869 209.855"/>
    <polyline fill="#475059" points="167.912 204.94 166.498 203.526 203.551 166.473 204.965 167.887 167.912 204.94"/>
    <polygon fill="#475059" points="209.906 152.079 211.906 152.079 211.906 98.323 209.906 98.323"/>
    <polyline fill="#475059" points="203.555 83.43 166.552 46.426 167.966 45.012 204.969 82.016 203.555 83.43"/>
    <polygon fill="#475059" points="97.872 40.043 152.128 40.043 152.128 38.043 97.872 38.043"/>
    <path fill="#475059" d="M210.957 153.078C206.522 153.078 202.915 156.686 202.915 161.12 202.915 165.555 206.522 169.163 210.957 169.163 215.392 169.163 219 165.555 219 161.12 219 156.686 215.392 153.078 210.957 153.078zM210.957 171.163C205.419 171.163 200.915 166.658 200.915 161.12 200.915 155.583 205.419 151.078 210.957 151.078 216.495 151.078 221 155.583 221 161.12 221 166.658 216.495 171.163 210.957 171.163zM39.042 153.078C34.608 153.078 31 156.686 31 161.12 31 165.555 34.608 169.163 39.042 169.163 43.478 169.163 47.085 165.555 47.085 161.12 47.085 156.686 43.478 153.078 39.042 153.078zM39.042 171.163C33.505 171.163 29 166.658 29 161.12 29 155.583 33.505 151.078 39.042 151.078 44.58 151.078 49.085 155.583 49.085 161.12 49.085 166.658 44.58 171.163 39.042 171.163zM161.171 202.915C156.736 202.915 153.128 206.522 153.128 210.958 153.128 215.392 156.736 219 161.171 219 165.605 219 169.213 215.392 169.213 210.958 169.213 206.522 165.605 202.915 161.171 202.915zM161.171 221C155.633 221 151.128 216.495 151.128 210.958 151.128 205.42 155.633 200.915 161.171 200.915 166.708 200.915 171.213 205.42 171.213 210.958 171.213 216.495 166.708 221 161.171 221zM161.171 31C156.736 31 153.128 34.608 153.128 39.042 153.128 43.478 156.736 47.085 161.171 47.085 165.605 47.085 169.213 43.478 169.213 39.042 169.213 34.608 165.605 31 161.171 31zM161.171 49.085C155.633 49.085 151.128 44.58 151.128 39.042 151.128 33.505 155.633 29 161.171 29 166.708 29 171.213 33.505 171.213 39.042 171.213 44.58 166.708 49.085 161.171 49.085z"/>
    <polygon fill="#48515A" points="44.91 185 46.91 185 46.91 181 44.91 181"/>
    <polygon fill="#48515A" points="44.91 195 46.91 195 46.91 191 44.91 191"/>
    <polygon fill="#48515A" points="48.91 189 52.91 189 52.91 187 48.91 187"/>
    <polygon fill="#48515A" points="38.91 189 42.91 189 42.91 187 38.91 187"/>
    <polygon fill="#48515A" points="195 195.006 197 195.006 197 191.006 195 191.006"/>
    <polygon fill="#48515A" points="195 205.006 197 205.006 197 201.006 195 201.006"/>
    <polygon fill="#48515A" points="199 199.006 203 199.006 203 197.006 199 197.006"/>
    <polygon fill="#48515A" points="189 199.006 193 199.006 193 197.006 189 197.006"/>
    <polygon fill="#48515A" points="197.988 50.97 199.988 50.97 199.988 46.97 197.988 46.97"/>
    <polygon fill="#48515A" points="197.988 60.97 199.988 60.97 199.988 56.97 197.988 56.97"/>
    <polygon fill="#48515A" points="201.988 54.97 205.988 54.97 205.988 52.97 201.988 52.97"/>
    <polygon fill="#48515A" points="191.988 54.97 195.988 54.97 195.988 52.97 191.988 52.97"/>
    <path fill="#FFD15D" d="M55.91,49.502 C55.91,50.33 55.238,51.001 54.41,51.001 C53.581,51.001 52.91,50.33 52.91,49.502 C52.91,48.673 53.581,48.002 54.41,48.002 C55.238,48.002 55.91,48.673 55.91,49.502"/>
    <path fill="#FFD15D" d="M54.41 48.502C53.858 48.502 53.41 48.95 53.41 49.501 53.41 50.053 53.858 50.501 54.41 50.501 54.961 50.501 55.41 50.053 55.41 49.501 55.41 48.95 54.961 48.502 54.41 48.502zM54.41 51.501C53.307 51.501 52.41 50.604 52.41 49.501 52.41 48.399 53.307 47.502 54.41 47.502 55.513 47.502 56.41 48.399 56.41 49.501 56.41 50.604 55.513 51.501 54.41 51.501zM59.922 203.006C59.922 204.114 59.023 205.012 57.916 205.012 56.808 205.012 55.91 204.114 55.91 203.006 55.91 201.898 56.808 201 57.916 201 59.023 201 59.922 201.898 59.922 203.006"/>
    <path fill="#FFD15D" d="M57.915 201.5C57.085 201.5 56.41 202.175 56.41 203.006 56.41 203.836 57.085 204.512 57.915 204.512 58.746 204.512 59.421 203.836 59.421 203.006 59.421 202.175 58.746 201.5 57.915 201.5zM57.915 205.512C56.534 205.512 55.41 204.388 55.41 203.006 55.41 201.624 56.534 200.5 57.915 200.5 59.297 200.5 60.421 201.624 60.421 203.006 60.421 204.388 59.297 205.512 57.915 205.512zM49.906 65.325C49.906 67.714 47.969 69.651 45.58 69.651 43.191 69.651 41.254 67.714 41.254 65.325 41.254 62.936 43.191 60.999 45.58 60.999 47.969 60.999 49.906 62.936 49.906 65.325"/>
    <path fill="#FFD15D" d="M45.58 61.499C43.47 61.499 41.754 63.215 41.754 65.325 41.754 67.435 43.47 69.151 45.58 69.151 47.689 69.151 49.406 67.435 49.406 65.325 49.406 63.215 47.689 61.499 45.58 61.499zM45.58 70.151C42.919 70.151 40.754 67.986 40.754 65.325 40.754 62.664 42.919 60.499 45.58 60.499 48.241 60.499 50.406 62.664 50.406 65.325 50.406 67.986 48.241 70.151 45.58 70.151zM208.635 187.817C208.635 189.373 207.373 190.635 205.817 190.635 204.261 190.635 203 189.373 203 187.817 203 186.261 204.261 185 205.817 185 207.373 185 208.635 186.261 208.635 187.817"/>
    <path fill="#FFD15D" d="M205.817,185.5 C204.54,185.5 203.5,186.54 203.5,187.817 C203.5,189.095 204.54,190.135 205.817,190.135 C207.095,190.135 208.135,189.095 208.135,187.817 C208.135,186.54 207.095,185.5 205.817,185.5 Z M205.817,191.135 C203.988,191.135 202.5,189.646 202.5,187.817 C202.5,185.988 203.988,184.5 205.817,184.5 C207.646,184.5 209.135,185.988 209.135,187.817 C209.135,189.646 207.646,191.135 205.817,191.135 Z"/>
  </g>
</svg>
