<svg xmlns="http://www.w3.org/2000/svg" width="250" height="250" viewBox="0 0 250 250">
  <g fill="none" fill-rule="evenodd">
    <path fill="#48515A" d="M60.024,145.26 C59.619,145.26 59.238,145.012 59.087,144.611 C58.277,142.447 57.561,140.216 56.962,137.979 C46.832,100.173 69.349,61.174 107.155,51.044 C144.96,40.915 183.959,63.429 194.09,101.236 C196.911,111.764 197.294,122.487 195.229,133.108 C195.123,133.651 194.603,134.003 194.056,133.899 C193.514,133.793 193.16,133.268 193.266,132.726 C195.273,122.406 194.901,111.986 192.159,101.754 C182.313,65.013 144.41,43.132 107.672,52.975 C70.932,62.82 49.05,100.72 58.894,137.462 C59.477,139.636 60.171,141.805 60.96,143.908 C61.154,144.426 60.892,145.002 60.375,145.196 C60.259,145.239 60.141,145.26 60.024,145.26"/>
    <path fill="#48515A" d="M77.824 144.901C77.427 144.901 77.051 144.663 76.895 144.272 75.519 140.826 74.326 137.232 73.35 133.588 68.456 115.326 69.141 96.73 75.278 81.224 81.454 65.615 92.411 54.994 106.13 51.318 106.665 51.174 107.213 51.492 107.355 52.025 107.497 52.558 107.181 53.107 106.648 53.25 93.556 56.758 83.076 66.954 77.137 81.96 71.158 97.069 70.498 115.22 75.282 133.071 76.238 136.638 77.406 140.157 78.752 143.53 78.957 144.043 78.707 144.624 78.195 144.829 78.073 144.878 77.948 144.901 77.824 144.901M60.485 107.299C60.043 107.299 59.639 107.004 59.52 106.557 59.377 106.023 59.694 105.475 60.227 105.332L66.372 103.686C66.908 103.543 67.454 103.859 67.597 104.393 67.74 104.927 67.423 105.475 66.89 105.617L60.744 107.264C60.657 107.287 60.571 107.299 60.485 107.299"/>
    <path fill="#48515A" d="M76.872 102.908C76.431 102.908 76.027 102.613 75.908 102.166 75.765 101.633 76.081 101.085 76.615 100.942L93.002 96.55C93.535 96.408 94.084 96.723 94.227 97.258 94.369 97.791 94.053 98.339 93.52 98.482L77.132 102.873C77.045 102.897 76.958 102.908 76.872 102.908M167.003 78.757C166.562 78.757 166.158 78.462 166.038 78.015 165.896 77.482 166.212 76.934 166.745 76.791L174.939 74.595C175.471 74.452 176.021 74.769 176.163 75.302 176.306 75.836 175.99 76.384 175.456 76.527L167.263 78.722C167.176 78.746 167.089 78.757 167.003 78.757M101.453 96.321C101.012 96.321 100.608 96.026 100.489 95.579 100.346 95.046 100.662 94.498 101.196 94.355L133.971 85.573C134.506 85.43 135.053 85.746 135.196 86.28 135.338 86.813 135.022 87.362 134.489 87.505L101.713 96.286C101.626 96.31 101.539 96.321 101.453 96.321M146.849 145.632C146.408 145.632 146.003 145.337 145.884 144.89 145.742 144.357 146.058 143.808 146.591 143.665L149.339 142.929C149.874 142.785 150.421 143.102 150.564 143.636 150.706 144.169 150.39 144.718 149.857 144.861L147.109 145.597C147.022 145.62 146.935 145.632 146.849 145.632M186.471 135.015C186.03 135.015 185.625 134.72 185.506 134.273 185.364 133.74 185.68 133.192 186.213 133.049L190.308 131.951C190.842 131.809 191.391 132.124 191.533 132.658 191.675 133.192 191.359 133.74 190.826 133.883L186.731 134.98C186.644 135.004 186.557 135.015 186.471 135.015"/>
    <path fill="#48515A" d="M108.797 144.895C108.391 144.895 108.01 144.646 107.86 144.243 105.68 138.383 103.718 132.213 102.028 125.904 91.726 87.457 93.978 54.574 107.155 51.044 120.34 47.514 138.723 74.865 149.025 113.311 151.811 123.711 153.722 133.893 154.705 143.575 154.761 144.125 154.361 144.615 153.811 144.672 153.257 144.729 152.772 144.327 152.715 143.778 151.743 134.201 149.852 124.125 147.093 113.829 137.414 77.711 119.363 49.844 107.672 52.975 95.983 56.108 94.281 89.268 103.959 125.386 105.634 131.635 107.576 137.745 109.735 143.546 109.927 144.064 109.663 144.639 109.146 144.832 109.031 144.875 108.913 144.895 108.797 144.895M157.79 142.699C157.349 142.699 156.945 142.405 156.826 141.958 156.683 141.424 156.999 140.876 157.533 140.733L167.036 138.187C167.571 138.045 168.118 138.361 168.261 138.894 168.404 139.427 168.087 139.976 167.554 140.118L158.05 142.665C157.963 142.688 157.876 142.699 157.79 142.699M142.422 85.344C141.981 85.344 141.576 85.049 141.457 84.602 141.315 84.069 141.631 83.521 142.164 83.378L158.552 78.987C159.085 78.844 159.634 79.16 159.777 79.694 159.919 80.227 159.603 80.775 159.07 80.918L142.682 85.309C142.595 85.333 142.508 85.344 142.422 85.344"/>
    <path fill="#48515A" d="M142.422,85.344 C141.981,85.344 141.576,85.049 141.457,84.602 C141.315,84.069 141.631,83.521 142.164,83.378 L158.552,78.987 C159.085,78.844 159.634,79.16 159.777,79.694 C159.919,80.227 159.603,80.775 159.07,80.918 L142.682,85.309 C142.595,85.333 142.508,85.344 142.422,85.344"/>
    <path fill="#48515A" d="M177.828,133.916 C177.817,133.916 177.806,133.916 177.795,133.915 C177.243,133.898 176.81,133.436 176.828,132.884 C177.105,124.232 176.061,115.42 173.723,106.694 C163.878,69.954 133.792,45.978 106.648,53.25 C106.114,53.394 105.566,53.076 105.423,52.543 C105.281,52.009 105.597,51.461 106.13,51.318 C134.336,43.76 165.524,68.369 175.655,106.176 C178.043,115.092 179.111,124.099 178.826,132.948 C178.81,133.489 178.366,133.916 177.828,133.916"/>
    <polyline fill="#FFF" points="177.728 143.833 177.466 143.759 177.721 143.516 177.728 143.833"/>
    <polyline fill="#FFF" points="150.659 76.894 150.586 77.155 150.342 76.9 150.659 76.894"/>
    <polygon fill="#5FE0ED" points="33.05 216.889 144.849 216.889 144.849 205.89 33.05 205.89"/>
    <polyline fill="#5FE0ED" points="144.849 158.889 157.071 158.889 157.071 146.889 33.071 146.889 33.071 208.892 144.849 208.892 144.849 158.889"/>
    <polyline fill="#48515A" points="144.85 203.89 36.071 203.89 36.071 149.889 154.071 149.889 154.071 158.889 152.071 158.889 152.071 151.889 38.071 151.889 38.071 201.89 144.85 201.89 144.85 203.89"/>
    <path fill="#48515A" d="M100.896,190.055 L89.848,190.055 C86.897,190.055 84.495,187.638 84.495,184.668 L86.495,184.668 C86.495,186.535 87.999,188.055 89.848,188.055 L100.896,188.055 C103.093,188.055 104.88,186.253 104.88,184.039 L104.88,182.151 C104.88,179.954 103.093,178.166 100.896,178.166 L90.002,178.166 C86.702,178.166 84.018,175.482 84.018,172.181 L84.018,170.291 C84.018,166.99 86.702,164.306 90.002,164.306 L101.711,164.306 C104.2,164.306 106.224,166.33 106.224,168.818 L104.224,168.818 C104.224,167.433 103.097,166.306 101.711,166.306 L90.002,166.306 C87.805,166.306 86.018,168.094 86.018,170.291 L86.018,172.181 C86.018,174.379 87.805,176.166 90.002,176.166 L100.896,176.166 C104.196,176.166 106.88,178.851 106.88,182.151 L106.88,184.039 C106.88,187.356 104.196,190.055 100.896,190.055"/>
    <polygon fill="#48515A" points="95.05 194.89 97.05 194.89 97.05 158.89 95.05 158.89"/>
    <polygon fill="#48515A" points="115.071 173.89 129.071 173.89 129.071 171.89 115.071 171.89"/>
    <polygon fill="#48515A" points="115.071 177.89 129.071 177.89 129.071 175.89 115.071 175.89"/>
    <polygon fill="#48515A" points="115.071 181.89 129.071 181.89 129.071 179.89 115.071 179.89"/>
    <polygon fill="#48515A" points="65.071 173.89 79.071 173.89 79.071 171.89 65.071 171.89"/>
    <polygon fill="#48515A" points="65.071 177.89 79.071 177.89 79.071 175.89 65.071 175.89"/>
    <polygon fill="#48515A" points="65.071 181.89 79.071 181.89 79.071 179.89 65.071 179.89"/>
    <path fill="#48515A" d="M137.07 202.91L135.07 202.91C135.07 197.244 137.788 191.841 142.341 188.455L143.534 190.061C139.426 193.115 137.07 197.799 137.07 202.91M37.011 168.889L37.011 166.889C45.833 166.889 53.011 159.711 53.011 150.889L55.011 150.889C55.011 160.814 46.936 168.889 37.011 168.889M55.011 202.91L53.011 202.91C53.011 194.088 45.833 186.91 37.011 186.91L37.011 184.91C46.936 184.91 55.011 192.985 55.011 202.91"/>
    <polygon fill="#48515A" points="33.05 210.892 144.85 210.892 144.85 208.892 33.05 208.892"/>
    <polygon fill="#48515A" points="33.05 216.892 144.85 216.892 144.85 214.892 33.05 214.892"/>
    <path fill="#48515A" d="M142.927,165.761 C138.007,162.399 135.07,156.839 135.07,150.889 L137.07,150.889 C137.07,156.178 139.681,161.12 144.056,164.11 L142.927,165.761"/>
    <polygon fill="#FFD15D" points="146.849 216.889 168.849 216.889 168.849 160.889 146.849 160.889"/>
    <polygon fill="#FFD15D" points="170.849 216.889 192.849 216.889 192.849 136.889 170.849 136.889"/>
    <polygon fill="#FFD15D" points="194.849 216.889 216.849 216.889 216.849 182.889 194.849 182.889"/>
    <path fill="#5FE0ED" d="M52.027,119.608 C52.027,79.217 84.777,46.341 125.117,46.118 L125.117,33.113 C77.609,33.336 39.027,72.049 39.027,119.608 C39.027,119.702 39.03,119.796 39.031,119.89 L52.034,119.89 C52.034,119.796 52.027,119.703 52.027,119.608"/>
    <path fill="#DFE0E0" d="M56.517,144.89 C53.649,137.087 52.067,128.668 52.034,119.89 L39.031,119.89 C39.059,128.584 40.387,136.974 42.811,144.89 L56.517,144.89"/>
    <polygon fill="#48515A" points="203.031 45.621 205.031 45.621 205.031 41.621 203.031 41.621"/>
    <polygon fill="#48515A" points="203.031 55.621 205.031 55.621 205.031 51.621 203.031 51.621"/>
    <polygon fill="#48515A" points="207.031 49.621 211.031 49.621 211.031 47.621 207.031 47.621"/>
    <polygon fill="#48515A" points="197.031 49.621 201.031 49.621 201.031 47.621 197.031 47.621"/>
    <polygon fill="#48515A" points="42.934 65.633 44.934 65.633 44.934 61.633 42.934 61.633"/>
    <polygon fill="#48515A" points="42.934 75.633 44.934 75.633 44.934 71.633 42.934 71.633"/>
    <polygon fill="#48515A" points="46.934 69.633 50.934 69.633 50.934 67.633 46.934 67.633"/>
    <polygon fill="#48515A" points="36.934 69.633 40.934 69.633 40.934 67.633 36.934 67.633"/>
    <path fill="#5FE0ED" d="M188.992,120.663 C188.992,122.32 187.649,123.663 185.992,123.663 C184.335,123.663 182.992,122.32 182.992,120.663 C182.992,119.007 184.335,117.663 185.992,117.663 C187.649,117.663 188.992,119.007 188.992,120.663"/>
    <path fill="#FFD15D" d="M125.527,33.108 C125.39,33.108 125.254,33.112 125.117,33.113 L125.117,46.118 C125.254,46.118 125.39,46.108 125.527,46.108 C166.055,46.108 199.027,79.08 199.027,119.608 C199.027,119.703 199.02,119.796 199.02,119.89 L211.768,119.89 L211.768,112.898 C208.332,68.325 170.965,33.108 125.527,33.108"/>
    <path fill="#F58E70" d="M194.849,171.248 C204.427,158.413 210.539,142.844 211.768,125.94 L211.768,119.89 L199.02,119.89 C198.988,128.329 197.509,136.429 194.849,143.977 L194.849,171.248"/>
    <path fill="#FFD15D" d="M216.95 169.639C216.95 170.744 216.054 171.639 214.95 171.639 213.845 171.639 212.95 170.744 212.95 169.639 212.95 168.535 213.845 167.639 214.95 167.639 216.054 167.639 216.95 168.535 216.95 169.639M186.95 45.639C186.95 46.744 186.054 47.639 184.95 47.639 183.845 47.639 182.95 46.744 182.95 45.639 182.95 44.535 183.845 43.639 184.95 43.639 186.054 43.639 186.95 44.535 186.95 45.639M202.95 62.639C202.95 63.192 202.502 63.639 201.95 63.639 201.398 63.639 200.95 63.192 200.95 62.639 200.95 62.087 201.398 61.639 201.95 61.639 202.502 61.639 202.95 62.087 202.95 62.639M160.95 65.639C160.95 66.744 160.054 67.639 158.95 67.639 157.845 67.639 156.95 66.744 156.95 65.639 156.95 64.535 157.845 63.639 158.95 63.639 160.054 63.639 160.95 64.535 160.95 65.639"/>
    <path fill="#5FE0ED" d="M58.95 51.639C58.95 52.744 58.054 53.639 56.95 53.639 55.845 53.639 54.95 52.744 54.95 51.639 54.95 50.535 55.845 49.639 56.95 49.639 58.054 49.639 58.95 50.535 58.95 51.639M66.95 42.639C66.95 43.192 66.502 43.639 65.95 43.639 65.398 43.639 64.95 43.192 64.95 42.639 64.95 42.087 65.398 41.639 65.95 41.639 66.502 41.639 66.95 42.087 66.95 42.639M88.95 77.639C88.95 78.744 88.054 79.639 86.95 79.639 85.845 79.639 84.95 78.744 84.95 77.639 84.95 76.535 85.845 75.639 86.95 75.639 88.054 75.639 88.95 76.535 88.95 77.639"/>
  </g>
</svg>
