<svg xmlns="http://www.w3.org/2000/svg" width="250" height="250" viewBox="0 0 250 250">
  <g fill="none" fill-rule="evenodd">
    <polyline fill="#FEDE31" points="90.747 87.35 90.747 31.487 99.019 42.454 107.292 31.453 115.565 42.419 123.838 31.418 132.11 42.385 140.383 31.384 148.656 42.35 156.928 31.35 156.928 87.35 90.747 87.35"/>
    <path fill="#F58E70" d="M131.326,218.65 C131.326,218.65 128.659,172.964 127.326,167.63 L127.358,167.63 C128.462,167.631 129.389,166.736 129.389,165.632 L129.389,160.631 L124.306,154.627 L119.389,160.631 L119.389,165.632 C119.389,166.736 120.253,167.631 121.358,167.63 L121.334,167.63 C120.001,172.964 117.33,218.65 117.33,218.65"/>
    <path fill="#DFE0E0" d="M109.389,139.637 L109.389,144.006 L124.298,152.506 L139.276,144.256 L139.389,136.258 L139.389,129.517 C139.389,128.951 140.461,128.346 140.987,127.733 C140.807,127.891 140.591,128.048 140.443,128.207 C138.34,130.468 135.128,133.044 132.969,134.887 C131.261,136.346 129.079,137.381 126.833,137.381 L120.341,137.381 C118.096,137.381 115.936,136.346 114.228,134.887 C112.167,133.127 109.167,130.784 107.07,128.617 C107.007,128.552 106.933,128.436 106.865,128.371 C107.495,129.041 108.437,129.695 109.203,130.37 C109.187,130.378 109.389,130.361 109.389,130.381 L109.389,139.637"/>
    <path fill="#48515A" d="M60.274,218.512 L58.274,218.507 L58.39,169.268 C58.39,163.294 62.162,161.394 67.492,159.361 L98.629,148.688 L104.122,138.381 L108.389,138.381 L108.389,140.381 L105.323,140.381 L100.023,150.325 L68.172,161.241 C62.892,163.256 60.39,164.709 60.39,169.271 L60.274,218.512"/>
    <path fill="#48515A" d="M110.389,142.824 L124.329,151.456 L138.389,142.821 L138.389,129.183 L138.568,128.926 C138.977,128.336 139.47,127.758 139.948,127.199 C140.627,126.404 141.328,125.583 141.563,124.958 L147.605,112.304 L154.508,108.793 L156.084,100.859 C156.081,100.211 155.803,99.544 155.333,99.06 C154.907,98.622 154.374,98.381 153.831,98.381 L151.258,98.381 L151.461,97.21 C151.959,94.343 152.389,91.868 152.389,89.3 L152.338,87.944 C152.363,84.112 151.489,80.174 149.81,76.558 C149.655,76.214 149.499,75.883 149.337,75.556 C147.474,71.8 144.741,68.436 141.434,65.828 C136.433,61.885 130.417,59.779 124.034,59.735 C123.972,59.734 123.908,59.734 123.846,59.734 C116.497,59.734 109.5,62.669 104.121,68.011 C98.572,73.523 95.389,81.108 95.389,88.821 L95.389,89.3 C95.389,91.938 95.675,94.379 96.105,97.232 L96.279,98.381 L93.903,98.381 C92.703,98.381 91.606,99.552 91.54,100.871 L93.782,108.949 L99.791,112.444 L105.73,125.054 C106.562,127.277 110.285,130.335 113.003,132.568 C113.673,133.119 114.31,133.643 114.877,134.127 C116.579,135.581 118.52,136.381 120.342,136.381 L126.389,136.381 C126.941,136.381 127.389,136.829 127.389,137.381 C127.389,137.933 126.941,138.381 126.389,138.381 L120.342,138.381 C118.044,138.381 115.642,137.41 113.578,135.648 C113.02,135.171 112.393,134.656 111.733,134.114 C111.291,133.75 110.84,133.38 110.389,133.005 L110.389,142.824 Z M124.325,153.806 L108.389,143.938 L108.389,131.381 C108.389,131.352 108.39,131.323 108.393,131.295 C106.329,129.456 104.536,127.569 103.888,125.83 L98.247,113.86 L92.072,110.268 L89.537,100.996 C89.537,98.494 91.536,96.381 93.903,96.381 L93.96,96.381 C93.611,93.915 93.389,91.696 93.389,89.3 L93.389,88.821 C93.389,80.579 96.787,72.477 102.711,66.592 C108.516,60.826 116.077,57.685 124.048,57.735 C130.879,57.782 137.319,60.037 142.673,64.258 C146.211,67.047 149.135,70.648 151.129,74.669 C151.302,75.019 151.469,75.371 151.63,75.727 C153.41,79.562 154.347,83.751 154.339,87.84 L154.389,88.177 L154.389,89.3 C154.389,91.673 154.056,93.905 153.634,96.381 L153.831,96.381 C154.919,96.381 155.962,96.837 156.766,97.666 C157.637,98.561 158.117,99.773 158.083,100.992 L158.063,101.158 L156.279,110.136 L149.117,113.779 L143.401,125.741 C143.076,126.615 142.296,127.529 141.469,128.497 C141.095,128.935 140.712,129.385 140.389,129.818 L140.389,143.941 L124.325,153.806 Z"/>
    <polyline fill="#48515A" points="172.327 158.479 148.575 150.419 142.523 140.381 139.389 140.381 139.389 138.381 143.652 138.381 149.911 148.759 172.969 156.586 172.327 158.479"/>
    <path fill="#48515A" d="M133.326 165.631C133.052 165.631 132.78 165.519 132.583 165.3L124.327 156.126 116.069 165.3C115.699 165.709 115.068 165.745 114.657 165.374 114.246 165.005 114.213 164.373 114.583 163.962L124.327 153.136 134.069 163.962C134.438 164.373 134.405 165.005 133.995 165.374 133.803 165.547 133.564 165.631 133.326 165.631M36.389 134.381L78.389 134.381 78.389 108.381 36.389 108.381 36.389 134.381zM34.389 136.381L80.389 136.381 80.389 106.381 34.389 106.381 34.389 136.381z"/>
    <path fill="#48515A" d="M57.483 122.558C57.296 122.558 57.109 122.506 56.945 122.401L40.822 112.126C40.356 111.829 40.219 111.211 40.516 110.745 40.813 110.28 41.431 110.144 41.897 110.44L57.481 120.371 72.43 110.78C72.895 110.483 73.513 110.616 73.812 111.082 74.11 111.547 73.975 112.166 73.51 112.464L58.023 122.4C57.858 122.505 57.67 122.558 57.483 122.558M76.222 132.453C75.936 132.453 75.652 132.33 75.454 132.093L66.531 121.387C66.177 120.963 66.234 120.332 66.658 119.979 67.083 119.624 67.713 119.682 68.067 120.107L76.99 130.813C77.343 131.237 77.286 131.867 76.862 132.221 76.675 132.377 76.448 132.453 76.222 132.453M38.743 132.453C38.518 132.453 38.291 132.377 38.104 132.221 37.679 131.867 37.622 131.237 37.976 130.813L46.899 120.107C47.253 119.682 47.883 119.625 48.307 119.979 48.732 120.332 48.789 120.963 48.435 121.387L39.512 132.093C39.314 132.33 39.03 132.453 38.743 132.453"/>
    <polygon fill="#48515A" points="58.389 152.381 60.389 152.381 60.389 138.381 58.389 138.381"/>
    <path fill="#48515A" d="M59.333,155.301 C59.073,155.301 58.813,155.191 58.623,155.001 C58.443,154.821 58.333,154.561 58.333,154.301 C58.333,154.171 58.363,154.041 58.413,153.911 C58.463,153.791 58.533,153.681 58.623,153.591 C58.723,153.501 58.823,153.421 58.953,153.371 C59.313,153.221 59.763,153.311 60.043,153.591 C60.133,153.681 60.203,153.791 60.253,153.911 C60.303,154.041 60.333,154.171 60.333,154.301 C60.333,154.561 60.223,154.821 60.043,155.001 C59.853,155.191 59.593,155.301 59.333,155.301"/>
    <polygon fill="#48515A" points="67.389 143.381 69.389 143.381 69.389 138.381 67.389 138.381"/>
    <path fill="#48515A" d="M68.023,146.601 C67.763,146.601 67.503,146.501 67.323,146.311 C67.133,146.121 67.023,145.871 67.023,145.601 C67.023,145.471 67.053,145.341 67.103,145.221 C67.153,145.101 67.223,144.991 67.323,144.891 C67.593,144.621 68.043,144.531 68.403,144.681 C68.533,144.731 68.643,144.801 68.733,144.891 C68.823,144.991 68.903,145.101 68.953,145.221 C69.003,145.341 69.023,145.471 69.023,145.601 C69.023,145.871 68.923,146.121 68.733,146.311 C68.543,146.501 68.283,146.601 68.023,146.601"/>
    <polygon fill="#48515A" points="49.389 146.381 51.389 146.381 51.389 138.381 49.389 138.381"/>
    <path fill="#48515A" d="M50.633,149.501 C50.503,149.501 50.373,149.471 50.253,149.421 C50.133,149.371 50.023,149.301 49.923,149.211 C49.883,149.161 49.843,149.111 49.803,149.051 C49.773,149.001 49.733,148.941 49.713,148.881 C49.683,148.821 49.673,148.761 49.653,148.691 C49.643,148.631 49.633,148.561 49.633,148.501 C49.633,148.371 49.663,148.241 49.713,148.121 C49.763,147.991 49.833,147.881 49.923,147.791 C50.023,147.701 50.133,147.631 50.253,147.581 C50.503,147.471 50.773,147.471 51.023,147.581 C51.143,147.631 51.253,147.701 51.343,147.791 C51.433,147.881 51.513,147.991 51.563,148.121 C51.613,148.241 51.633,148.371 51.633,148.501 C51.633,148.561 51.633,148.631 51.613,148.691 C51.603,148.761 51.583,148.821 51.563,148.881 C51.533,148.941 51.503,149.001 51.463,149.051 C51.433,149.111 51.393,149.161 51.343,149.211 C51.153,149.391 50.893,149.501 50.633,149.501"/>
    <polygon fill="#48515A" points="68.389 76.381 70.389 76.381 70.389 72.381 68.389 72.381"/>
    <polygon fill="#48515A" points="68.389 86.381 70.389 86.381 70.389 82.381 68.389 82.381"/>
    <polygon fill="#48515A" points="72.389 80.381 76.389 80.381 76.389 78.381 72.389 78.381"/>
    <polygon fill="#48515A" points="62.389 80.381 66.389 80.381 66.389 78.381 62.389 78.381"/>
    <path fill="#475059" d="M46.277,199.381 C44.595,199.381 43.277,200.68 43.277,202.339 C43.277,204.026 44.623,205.381 46.277,205.381 L101.443,205.381 L107.948,202.381 L101.442,199.381 L46.277,199.381 Z M101.881,207.381 L46.277,207.381 C43.52,207.381 41.277,205.129 41.277,202.36 C41.277,199.606 43.52,197.381 46.277,197.381 L101.881,197.381 L112.724,202.381 L101.881,207.381 Z"/>
    <polygon fill="#475059" points="51.389 206.381 53.389 206.381 53.389 198.381 51.389 198.381"/>
    <polygon fill="#475059" points="52.389 203.381 101.389 203.381 101.389 201.381 52.389 201.381"/>
    <path fill="#48515A" d="M193.14,121.93 C190.621,121.929 188.571,119.88 188.571,117.36 L188.571,111.574 L190.571,111.574 L190.571,117.36 C190.571,118.777 191.723,119.929 193.14,119.93 C194.565,119.93 195.768,118.754 195.768,117.361 L195.768,111.574 L197.768,111.574 L197.768,117.361 C197.768,119.88 195.692,121.93 193.14,121.93"/>
    <path fill="#48515A" d="M200.273,121.93 C197.747,121.93 195.768,119.923 195.768,117.361 L195.768,111.574 L197.768,111.574 L197.768,117.361 C197.768,118.801 198.869,119.93 200.273,119.93 C201.689,119.93 202.842,118.777 202.842,117.361 L202.842,109.392 L204.842,109.392 L204.842,117.361 C204.842,119.88 202.792,121.93 200.273,121.93"/>
    <path fill="#48515A" d="M199.378,144.582 L199.377,144.455 C199.328,140.198 199.355,140.128 199.444,139.896 C201.699,134.064 202.842,127.712 202.842,121.012 L202.842,109.398 C202.842,108.03 201.915,106.86 200.686,106.675 C199.944,106.567 199.219,106.763 198.666,107.239 C198.095,107.731 197.768,108.461 197.768,109.243 L197.768,113.802 L195.768,113.802 L195.768,109.282 C195.768,107.87 194.741,106.667 193.428,106.542 C192.66,106.466 191.891,106.72 191.323,107.235 C190.841,107.673 190.574,108.244 190.572,108.842 C190.571,109.021 190.571,113.228 190.571,113.75 L190.571,113.802 L188.571,113.802 L188.571,109.169 C188.571,107.979 187.879,106.911 186.886,106.571 C186.048,106.284 185.17,106.405 184.475,106.9 C183.79,107.39 183.38,108.18 183.38,109.014 L183.38,117.333 L181.38,117.333 L181.38,91.281 C181.38,90.076 180.405,88.702 179.334,88.4 C178.542,88.175 177.771,88.299 177.173,88.752 C176.542,89.229 176.166,90.027 176.166,90.888 L176.166,117.333 L174.166,117.333 L174.166,90.888 C174.166,89.404 174.839,88.01 175.966,87.157 C177.077,86.318 178.469,86.077 179.878,86.475 C181.809,87.021 183.38,89.177 183.38,91.281 L183.38,105.225 C184.594,104.389 186.103,104.188 187.535,104.679 C188.357,104.961 189.057,105.485 189.578,106.167 C189.701,106.022 189.836,105.884 189.98,105.754 C190.963,104.862 192.292,104.423 193.618,104.55 C194.892,104.672 196.015,105.35 196.77,106.338 C196.946,106.116 197.143,105.911 197.36,105.724 C198.361,104.862 199.646,104.497 200.983,104.698 C203.182,105.027 204.842,107.048 204.842,109.398 L204.842,121.012 C204.842,127.907 203.672,134.456 201.363,140.479 C201.354,140.737 201.344,141.595 201.376,144.433 L201.378,144.577 L199.378,144.577 L200.378,144.577 L199.378,144.582"/>
    <path fill="#48515A" d="M178.042,144.714 L176.042,144.714 L176.042,141.271 C176.042,140.858 175.755,140.165 175.463,139.873 L175.375,139.773 L170.252,133.084 C169.687,132.347 169.184,131.544 168.759,130.696 C167.015,127.223 166.817,122.903 168.215,118.846 L169.08,116.333 L186.975,116.334 L186.975,117.334 C186.975,119.522 186.123,121.579 184.576,123.126 C184.367,123.335 184.149,123.531 183.923,123.714 C186.705,124.406 188.773,126.926 188.773,129.92 L186.773,129.92 C186.773,127.497 184.802,125.526 182.38,125.526 L173.464,125.525 L173.464,123.525 L178.784,123.525 C180.438,123.525 181.992,122.881 183.162,121.712 C184.093,120.781 184.69,119.608 184.895,118.334 L170.506,118.333 L170.105,119.497 C168.882,123.049 169.043,126.804 170.546,129.798 C170.915,130.533 171.35,131.23 171.84,131.867 L176.927,138.51 C177.566,139.184 178.042,140.355 178.042,141.271 L178.042,144.714"/>
    <path fill="#48515A" d="M205.286,218.65 L203.286,218.65 L203.286,147.098 C203.286,146.308 202.642,145.665 201.852,145.665 L174.827,145.664 C174.036,145.664 173.392,146.307 173.392,147.098 L173.392,208.503 L171.392,208.503 L171.392,147.098 C171.392,145.204 172.933,143.664 174.827,143.664 L201.852,143.665 C203.746,143.665 205.286,145.205 205.286,147.098 L205.286,218.65"/>
    <polygon fill="#48515A" points="196.677 152.963 199.111 152.963 199.111 150.963 196.677 150.963"/>
    <polygon fill="#48515A" points="171.392 212.381 173.392 212.381 173.392 210.381 171.392 210.381"/>
    <path fill="#475059" d="M202.87,66.171 C196.947,66.171 192.129,70.989 192.129,76.912 C192.129,82.835 196.947,87.654 202.87,87.654 C208.793,87.654 213.611,82.835 213.611,76.912 C213.611,70.989 208.793,66.171 202.87,66.171 Z M202.87,89.654 C195.844,89.654 190.129,83.938 190.129,76.912 C190.129,69.887 195.844,64.171 202.87,64.171 C209.895,64.171 215.611,69.887 215.611,76.912 C215.611,83.938 209.895,89.654 202.87,89.654 Z"/>
    <path fill="#475059" d="M202.869,66.171 C199.984,66.171 197.547,71.09 197.547,76.912 C197.547,82.734 199.984,87.654 202.869,87.654 C205.754,87.654 208.191,82.734 208.191,76.912 C208.191,71.09 205.754,66.171 202.869,66.171 Z M202.869,89.654 C198.763,89.654 195.547,84.057 195.547,76.912 C195.547,69.768 198.763,64.171 202.869,64.171 C206.974,64.171 210.191,69.768 210.191,76.912 C210.191,84.057 206.974,89.654 202.869,89.654 Z"/>
    <polygon fill="#475059" points="191.422 78.363 214.422 78.363 214.422 76.363 191.422 76.363"/>
    <polygon fill="#48515A" points="178.455 46.363 180.455 46.363 180.455 42.363 178.455 42.363"/>
    <polygon fill="#48515A" points="178.455 56.363 180.455 56.363 180.455 52.363 178.455 52.363"/>
    <polygon fill="#48515A" points="182.455 50.363 186.455 50.363 186.455 48.363 182.455 48.363"/>
    <polygon fill="#48515A" points="172.455 50.363 176.455 50.363 176.455 48.363 172.455 48.363"/>
  </g>
</svg>
