<svg xmlns="http://www.w3.org/2000/svg" width="250" height="250" viewBox="0 0 250 250">
  <g fill="none" fill-rule="evenodd">
    <path fill="#DEDEDD" d="M68.257,203.247 C65.643,203.247 63.186,202.229 61.338,200.381 C59.49,198.533 58.472,196.075 58.472,193.461 C58.472,190.848 59.49,188.391 61.338,186.542 C63.182,184.697 65.64,183.681 68.257,183.681 C70.888,183.681 73.348,184.692 75.183,186.528 L75.351,186.666 C79.036,190.466 78.97,196.587 75.176,200.381 C73.328,202.229 70.87,203.247 68.257,203.247 Z M68.257,76.35 C70.874,76.35 73.331,77.366 75.176,79.211 C78.991,83.026 78.991,89.234 75.176,93.049 C73.328,94.897 70.87,95.915 68.257,95.915 C65.643,95.915 63.186,94.897 61.338,93.049 C59.49,91.201 58.472,88.744 58.472,86.13 C58.472,83.516 59.49,81.059 61.338,79.211 C63.183,77.366 65.64,76.35 68.257,76.35 Z M192.024,70.57 L189.609,70.57 C176.351,70.57 163.887,75.732 154.512,85.107 L104.287,135.333 L103.973,135.333 L70.395,101.755 C73.799,101.296 76.948,99.762 79.419,97.292 C85.573,91.137 85.573,81.123 79.419,74.968 C76.437,71.987 72.474,70.345 68.257,70.345 C64.041,70.345 60.077,71.987 57.095,74.968 C50.941,81.123 50.941,91.137 57.095,97.292 L99.711,139.908 L58.767,180.853 L58.776,180.863 C58.193,181.302 57.625,181.769 57.095,182.3 C54.114,185.281 52.472,189.245 52.472,193.462 C52.472,197.678 54.114,201.642 57.095,204.623 C60.077,207.605 64.041,209.247 68.257,209.247 C72.473,209.247 76.437,207.605 79.419,204.623 C85.573,198.469 85.573,188.454 79.419,182.3 C76.934,179.815 73.818,178.351 70.583,177.873 L99.882,148.575 L108.378,148.575 L154.512,194.709 C163.887,204.084 176.351,209.247 189.609,209.247 L192.024,209.247 L122.651,139.908 L192.024,70.57 Z"/>
    <polyline fill="#F58E70" points="149.576 134.906 143.583 134.906 143.583 221 152.583 213 161.583 221 161.583 112.314 149.576 134.906"/>
    <path fill="#DEDEDD" d="M94.786,117.319 L147.335,169.868 C154.055,176.588 162.502,180.954 171.676,182.552 L106.411,117.319 L94.786,117.319"/>
    <path fill="#475059" d="M58.25 157.67C54.72 157.67 51.191 159.013 48.503 161.7 43.129 167.075 43.129 175.821 48.503 181.196 53.878 186.57 62.623 186.57 67.999 181.196 70.602 178.593 72.036 175.131 72.036 171.448 72.036 167.767 70.602 164.305 67.999 161.701 65.311 159.014 61.78 157.67 58.25 157.67zM58.251 187.227C54.209 187.227 50.166 185.688 47.089 182.61 40.935 176.455 40.935 166.441 47.089 160.286 53.244 154.132 63.259 154.133 69.413 160.287 72.394 163.269 74.036 167.232 74.036 171.448 74.036 175.665 72.394 179.629 69.413 182.61 66.336 185.688 62.293 187.227 58.251 187.227zM58.251 50.331C54.569 50.331 51.107 51.766 48.503 54.369 45.9 56.973 44.466 60.435 44.466 64.117 44.466 67.799 45.9 71.261 48.503 73.864 51.107 76.468 54.569 77.902 58.251 77.902 61.933 77.902 65.395 76.468 67.999 73.864 70.602 71.261 72.036 67.799 72.036 64.116 72.036 60.435 70.602 56.973 67.999 54.369 65.395 51.766 61.933 50.331 58.251 50.331zM58.251 79.902C54.034 79.902 50.071 78.26 47.089 75.278 44.108 72.297 42.466 68.333 42.466 64.117 42.466 59.9 44.108 55.936 47.089 52.955 50.071 49.974 54.035 48.331 58.251 48.331 62.468 48.331 66.431 49.974 69.413 52.955 72.394 55.936 74.036 59.9 74.036 64.116 74.036 68.333 72.394 72.297 69.413 75.278 66.431 78.26 62.467 79.902 58.251 79.902z"/>
    <path fill="#475059" d="M182.018,187.233 L179.603,187.233 C166.345,187.233 153.881,182.07 144.506,172.696 L47.089,75.278 L48.503,73.864 L145.92,171.282 C154.331,179.692 165.332,184.57 177.125,185.171 L107.239,115.319 L93.138,115.319 L56.896,79.077 L58.31,77.663 L93.967,113.319 L108.067,113.319 L182.018,187.233"/>
    <polyline fill="#475059" points="59.273 157.165 57.859 155.751 89.047 124.562 98.936 124.562 98.936 126.562 89.875 126.562 59.273 157.165"/>
    <path fill="#475059" d="M111.949,118.591 L110.535,117.177 L177.125,50.619 C165.332,51.22 154.331,56.098 145.92,64.508 L95.519,114.91 L94.105,113.496 L144.506,63.094 C153.881,53.72 166.345,48.557 179.603,48.557 L182.018,48.557 L111.949,118.591"/>
    <polyline fill="#475059" points="50.175 160.254 48.761 158.84 90.355 117.246 91.769 118.66 50.175 160.254"/>
    <path fill="#475059" d="M102.603 119.37C102.052 119.37 101.603 119.818 101.603 120.37 101.603 120.922 102.052 121.37 102.603 121.37 103.155 121.37 103.603 120.922 103.603 120.37 103.603 119.818 103.155 119.37 102.603 119.37zM102.603 123.37C100.949 123.37 99.603 122.024 99.603 120.37 99.603 118.716 100.949 117.37 102.603 117.37 104.258 117.37 105.603 118.716 105.603 120.37 105.603 122.024 104.258 123.37 102.603 123.37zM58.251 54.337C55.634 54.337 53.177 55.352 51.332 57.197 49.484 59.045 48.466 61.503 48.466 64.117 48.466 66.73 49.484 69.188 51.332 71.036 53.18 72.885 55.637 73.902 58.251 73.902 60.864 73.902 63.321 72.885 65.17 71.036 68.986 67.221 68.986 61.013 65.171 57.197 63.326 55.352 60.869 54.337 58.251 54.337zM58.251 75.902C55.103 75.902 52.144 74.677 49.918 72.45 47.692 70.225 46.466 67.265 46.466 64.117 46.466 60.969 47.692 58.009 49.918 55.783 52.14 53.561 55.1 52.337 58.251 52.337 61.403 52.337 64.363 53.561 66.585 55.783 68.807 58.006 70.032 60.966 70.031 64.117 70.031 67.268 68.807 70.227 66.584 72.45 64.358 74.677 61.399 75.902 58.251 75.902zM58.251 161.668C55.634 161.668 53.177 162.685 51.332 164.529 49.484 166.377 48.466 168.835 48.466 171.448 48.466 174.062 49.484 176.52 51.332 178.367 53.18 180.216 55.637 181.233 58.251 181.233 60.864 181.233 63.321 180.216 65.17 178.367 68.964 174.573 69.03 168.453 65.345 164.653L65.177 164.515C63.341 162.679 60.882 161.668 58.251 161.668zM58.251 183.233C55.103 183.233 52.144 182.008 49.918 179.781 47.692 177.556 46.466 174.596 46.466 171.448 46.466 168.301 47.692 165.341 49.918 163.115 52.14 160.893 55.1 159.668 58.251 159.668 61.36 159.668 64.273 160.844 66.473 162.984L66.476 162.985 66.654 163.132C68.874 165.352 70.086 168.311 70.066 171.463 70.046 174.602 68.809 177.556 66.584 179.781 64.358 182.008 61.399 183.233 58.251 183.233z"/>
    <path fill="#DEDEDD" d="M111.745 113.179L171.676 53.281C162.502 54.879 154.055 59.245 147.335 65.965L102.204 111.096 109.686 111.096 111.745 113.179M94.786 117.319L147.335 169.868C154.055 176.588 162.502 180.954 171.676 182.552L106.411 117.319 94.786 117.319"/>
    <path fill="#475059" d="M58.25 157.67C54.72 157.67 51.191 159.013 48.503 161.7 43.129 167.075 43.129 175.821 48.503 181.196 53.878 186.57 62.623 186.57 67.999 181.196 70.602 178.593 72.036 175.131 72.036 171.448 72.036 167.767 70.602 164.305 67.999 161.701 65.311 159.014 61.78 157.67 58.25 157.67zM58.251 187.227C54.209 187.227 50.166 185.688 47.089 182.61 40.935 176.455 40.935 166.441 47.089 160.286 53.244 154.132 63.259 154.133 69.413 160.287 72.394 163.269 74.036 167.232 74.036 171.448 74.036 175.665 72.394 179.629 69.413 182.61 66.336 185.688 62.293 187.227 58.251 187.227zM58.251 50.331C54.569 50.331 51.107 51.766 48.503 54.369 45.9 56.973 44.466 60.435 44.466 64.117 44.466 67.799 45.9 71.261 48.503 73.864 51.107 76.468 54.569 77.902 58.251 77.902 61.933 77.902 65.395 76.468 67.999 73.864 70.602 71.261 72.036 67.799 72.036 64.116 72.036 60.435 70.602 56.973 67.999 54.369 65.395 51.766 61.933 50.331 58.251 50.331zM58.251 79.902C54.034 79.902 50.071 78.26 47.089 75.278 44.108 72.297 42.466 68.333 42.466 64.117 42.466 59.9 44.108 55.936 47.089 52.955 50.071 49.974 54.035 48.331 58.251 48.331 62.468 48.331 66.431 49.974 69.413 52.955 72.394 55.936 74.036 59.9 74.036 64.116 74.036 68.333 72.394 72.297 69.413 75.278 66.431 78.26 62.467 79.902 58.251 79.902z"/>
    <path fill="#475059" d="M182.018,187.233 L179.603,187.233 C166.345,187.233 153.881,182.07 144.506,172.696 L47.089,75.278 L48.503,73.864 L145.92,171.282 C154.331,179.692 165.332,184.57 177.125,185.171 L107.239,115.319 L93.138,115.319 L56.896,79.077 L58.31,77.663 L93.967,113.319 L108.067,113.319 L182.018,187.233"/>
    <polyline fill="#475059" points="59.273 157.165 57.859 155.751 89.047 124.562 98.936 124.562 98.936 126.562 89.875 126.562 59.273 157.165"/>
    <path fill="#475059" d="M111.949,118.591 L110.535,117.177 L177.125,50.619 C165.332,51.22 154.331,56.098 145.92,64.508 L95.519,114.91 L94.105,113.496 L144.506,63.094 C153.881,53.72 166.345,48.557 179.603,48.557 L182.018,48.557 L111.949,118.591"/>
    <polyline fill="#475059" points="50.175 160.254 48.761 158.84 90.355 117.246 91.769 118.66 50.175 160.254"/>
    <path fill="#475059" d="M102.603 119.37C102.052 119.37 101.603 119.818 101.603 120.37 101.603 120.922 102.052 121.37 102.603 121.37 103.155 121.37 103.603 120.922 103.603 120.37 103.603 119.818 103.155 119.37 102.603 119.37zM102.603 123.37C100.949 123.37 99.603 122.024 99.603 120.37 99.603 118.716 100.949 117.37 102.603 117.37 104.258 117.37 105.603 118.716 105.603 120.37 105.603 122.024 104.258 123.37 102.603 123.37zM58.251 54.337C55.634 54.337 53.177 55.352 51.332 57.197 49.484 59.045 48.466 61.503 48.466 64.117 48.466 66.73 49.484 69.188 51.332 71.036 53.18 72.885 55.637 73.902 58.251 73.902 60.864 73.902 63.321 72.885 65.17 71.036 68.986 67.221 68.986 61.013 65.171 57.197 63.326 55.352 60.869 54.337 58.251 54.337zM58.251 75.902C55.103 75.902 52.144 74.677 49.918 72.45 47.692 70.225 46.466 67.265 46.466 64.117 46.466 60.969 47.692 58.009 49.918 55.783 52.14 53.561 55.1 52.337 58.251 52.337 61.403 52.337 64.363 53.561 66.585 55.783 68.807 58.006 70.032 60.966 70.031 64.117 70.031 67.268 68.807 70.227 66.584 72.45 64.358 74.677 61.399 75.902 58.251 75.902zM58.251 161.668C55.634 161.668 53.177 162.685 51.332 164.529 49.484 166.377 48.466 168.835 48.466 171.448 48.466 174.062 49.484 176.52 51.332 178.367 53.18 180.216 55.637 181.233 58.251 181.233 60.864 181.233 63.321 180.216 65.17 178.367 68.964 174.573 69.03 168.453 65.345 164.653L65.177 164.515C63.341 162.679 60.882 161.668 58.251 161.668zM58.251 183.233C55.103 183.233 52.144 182.008 49.918 179.781 47.692 177.556 46.466 174.596 46.466 171.448 46.466 168.301 47.692 165.341 49.918 163.115 52.14 160.893 55.1 159.668 58.251 159.668 61.36 159.668 64.273 160.844 66.473 162.984L66.476 162.985 66.654 163.132C68.874 165.352 70.086 168.311 70.066 171.463 70.046 174.602 68.809 177.556 66.584 179.781 64.358 182.008 61.399 183.233 58.251 183.233z"/>
    <path fill="#DEDEDD" d="M111.745,113.179 L171.676,53.281 C162.502,54.879 154.055,59.245 147.335,65.965 L102.204,111.096 L109.686,111.096 L111.745,113.179"/>
    <polygon fill="#48515A" points="107.603 67.307 109.603 67.307 109.603 63.307 107.603 63.307"/>
    <polygon fill="#48515A" points="107.603 77.307 109.603 77.307 109.603 73.307 107.603 73.307"/>
    <polygon fill="#48515A" points="111.603 71.307 115.603 71.307 115.603 69.307 111.603 69.307"/>
    <polygon fill="#48515A" points="101.603 71.307 105.603 71.307 105.603 69.307 101.603 69.307"/>
    <polygon fill="#48515A" points="193.534 153 195.534 153 195.534 149 193.534 149"/>
    <polygon fill="#48515A" points="193.534 163 195.534 163 195.534 159 193.534 159"/>
    <polygon fill="#48515A" points="197.534 157 201.534 157 201.534 155 197.534 155"/>
    <polygon fill="#48515A" points="187.534 157 191.534 157 191.534 155 187.534 155"/>
    <polyline fill="#FEDE31" points="150.576 111.796 149.577 111.796 143.583 133.944 143.583 134.906 150.577 134.906 161.583 112.314 161.583 111.797 150.576 111.796"/>
    <polyline fill="#F58E70" points="140.577 37.001 131.577 29 131.577 134.945 149.577 134.945 149.577 29 140.577 37.001"/>
    <polygon fill="#48515A" points="85.534 195 87.534 195 87.534 191 85.534 191"/>
    <polygon fill="#48515A" points="85.534 205 87.534 205 87.534 201 85.534 201"/>
    <polygon fill="#48515A" points="89.534 199 93.534 199 93.534 197 89.534 197"/>
    <polygon fill="#48515A" points="79.534 199 83.534 199 83.534 197 79.534 197"/>
    <path fill="#F58E70" d="M189.034,96 C179.936,96 172.534,103.402 172.534,112.5 C172.534,121.598 179.936,129 189.034,129 C198.133,129 205.534,121.598 205.534,112.5 C205.534,103.402 198.133,96 189.034,96 Z M189.034,131 C178.833,131 170.534,122.701 170.534,112.5 C170.534,102.299 178.833,94 189.034,94 C199.236,94 207.534,102.299 207.534,112.5 C207.534,122.701 199.236,131 189.034,131 Z"/>
    <path fill="#4F4F4F" d="M184.68 107.56C184.294 106.896 183.615 106.5 182.864 106.5 182.112 106.5 181.433 106.896 181.047 107.56L179.318 106.554C180.055 105.287 181.414 104.5 182.864 104.5 184.313 104.5 185.672 105.287 186.409 106.554L184.68 107.56M197.021 107.56C196.635 106.896 195.956 106.5 195.204 106.5 194.453 106.5 193.774 106.896 193.388 107.56L191.659 106.554C192.396 105.287 193.755 104.5 195.204 104.5 196.654 104.5 198.012 105.287 198.75 106.554L197.021 107.56M180.103 115C180.642 118.96 184.284 123 189.034 123 193.783 123 197.426 118.96 197.965 115L180.103 115zM189.034 125C183.174 125 178.034 119.859 178.034 114L178.034 113 200.034 113 200.034 114C200.034 119.859 194.894 125 189.034 125z"/>
  </g>
</svg>
