<svg xmlns="http://www.w3.org/2000/svg" width="250" height="250" viewBox="0 0 250 250">
  <g fill="none" fill-rule="evenodd">
    <polyline fill="#DEDEDD" points="169.742 108.799 125 96.016 125 204.827 169.742 217.61"/>
    <polyline fill="#DEDEDD" points="80.258 108.799 38.516 96.873 38.516 205.684 80.258 217.61 80.258 108.799"/>
    <path fill="#FFD15D" d="M124.999,73.717 C120.586,73.717 117.009,70.14 117.009,65.727 C117.009,61.315 120.586,57.738 124.999,57.738 C129.411,57.738 132.989,61.315 132.989,65.727 C132.989,70.14 129.411,73.717 124.999,73.717 Z M125,28.73 C104.893,28.73 88.535,45.088 88.535,65.194 C88.535,71.591 90.225,77.893 93.422,83.421 L96.596,89.246 L96.635,89.315 C107.648,107.979 116.442,127.739 122.774,148.049 L124.994,155.171 L127.215,148.049 C133.76,127.057 142.458,107.296 153.064,89.323 L156.573,83.428 C159.773,77.9 161.464,71.594 161.464,65.194 C161.464,45.088 145.107,28.73 125,28.73 Z"/>
    <path fill="#FFD15D" d="M124.999,58.238 C120.869,58.238 117.509,61.597 117.509,65.727 C117.509,69.857 120.869,73.217 124.999,73.217 C129.129,73.217 132.489,69.857 132.489,65.727 C132.489,61.597 129.129,58.238 124.999,58.238 Z M124.999,74.217 C120.318,74.217 116.509,70.409 116.509,65.727 C116.509,61.046 120.318,57.238 124.999,57.238 C129.68,57.238 133.489,61.046 133.489,65.727 C133.489,70.409 129.68,74.217 124.999,74.217 Z M125,29.23 C105.169,29.23 89.036,45.364 89.036,65.194 C89.036,71.502 90.702,77.718 93.855,83.17 L97.035,89.007 C108.099,107.758 116.909,127.554 123.251,147.9 L124.995,153.492 L126.738,147.9 C133.294,126.872 142.006,107.078 152.633,89.069 L156.143,83.172 C159.296,77.725 160.964,71.507 160.964,65.195 C160.964,45.364 144.831,29.23 125,29.23 Z M124.995,156.851 L122.296,148.197 C115.977,127.925 107.198,108.2 96.205,89.569 L92.983,83.66 C89.748,78.067 88.036,71.678 88.036,65.194 C88.036,44.812 104.618,28.23 125,28.23 C145.382,28.23 161.964,44.812 161.964,65.195 C161.964,71.683 160.25,78.075 157.005,83.679 L153.494,89.579 C142.907,107.52 134.226,127.243 127.693,148.197 L124.995,156.851 Z"/>
    <path fill="#48515A" d="M36.516,207.193 L80.258,219.69 L125,206.907 L125.275,206.985 L169.742,219.69 L213.484,207.193 L213.484,94.222 L169.742,106.719 L169.467,106.641 L125,93.936 L80.258,106.719 L79.983,106.641 L36.516,94.222 L36.516,207.193 Z M169.742,221.77 L169.467,221.692 L125,208.987 L80.258,221.77 L79.983,221.692 L34.516,208.701 L34.516,91.57 L80.258,104.639 L125,91.856 L125.275,91.934 L169.742,104.639 L215.484,91.57 L215.484,208.701 L169.742,221.77 Z"/>
    <path fill="#475059" d="M124.98,146.737 C120.245,146.737 116.392,150.589 116.392,155.325 C116.392,160.059 120.245,163.912 124.98,163.912 C129.715,163.912 133.567,160.059 133.567,155.325 C133.567,150.589 129.715,146.737 124.98,146.737 Z M124.98,165.912 C119.142,165.912 114.392,161.163 114.392,155.325 C114.392,149.487 119.142,144.737 124.98,144.737 C130.818,144.737 135.567,149.487 135.567,155.325 C135.567,161.163 130.818,165.912 124.98,165.912 Z"/>
    <polygon fill="#48515A" points="190.069 182.763 192.069 182.763 192.069 178.763 190.069 178.763"/>
    <polygon fill="#48515A" points="190.069 192.763 192.069 192.763 192.069 188.763 190.069 188.763"/>
    <polygon fill="#48515A" points="194.069 186.763 198.069 186.763 198.069 184.763 194.069 184.763"/>
    <polygon fill="#48515A" points="184.069 186.763 188.069 186.763 188.069 184.763 184.069 184.763"/>
    <polygon fill="#48515A" points="57.946 66.751 59.946 66.751 59.946 62.751 57.946 62.751"/>
    <polygon fill="#48515A" points="57.946 76.75 59.946 76.75 59.946 72.75 57.946 72.75"/>
    <polygon fill="#48515A" points="61.946 70.751 65.946 70.751 65.946 68.751 61.946 68.751"/>
    <polygon fill="#48515A" points="51.946 70.751 55.946 70.751 55.946 68.751 51.946 68.751"/>
    <polygon fill="#48515A" points="196.995 73.726 198.995 73.726 198.995 69.726 196.995 69.726"/>
    <polygon fill="#48515A" points="196.995 83.726 198.995 83.726 198.995 79.726 196.995 79.726"/>
    <polygon fill="#48515A" points="200.995 77.726 204.995 77.726 204.995 75.726 200.995 75.726"/>
    <polygon fill="#48515A" points="190.995 77.726 194.995 77.726 194.995 75.726 190.995 75.726"/>
    <polyline fill="#DEDEDD" points="191.211 152.938 175.646 146.267 172.973 147.871 181.205 156.104 178.377 158.932 170.266 150.821 168.642 154.088 175.439 170.547 180.272 160.827 188.383 168.938 191.211 166.109 182.979 157.877 191.211 152.938"/>
    <path fill="#48515A" d="M155.065,132.818 L165.517,158.125 L169.99,149.13 L178.377,157.518 L179.791,156.103 L171.36,147.673 L179.014,143.081 L155.065,132.818 Z M165.348,162.958 L151.345,129.046 L183.396,142.784 L174.586,148.07 L182.619,156.103 L178.377,160.346 L170.542,152.511 L165.348,162.958 Z"/>
    <path fill="#475059" d="M98.697,181.6 L96.795,180.981 L97.124,179.969 L95.85,179.554 C94.31,179.051 93.315,177.681 93.317,176.061 C93.318,174.442 94.315,173.073 95.856,172.574 L97.132,172.16 L96.433,169.999 L95.156,170.412 C93.617,170.911 92.005,170.387 91.054,169.075 C90.104,167.763 90.105,166.07 91.059,164.76 L91.848,163.675 L90.011,162.338 L89.221,163.423 C88.269,164.733 86.658,165.252 85.118,164.752 C83.577,164.25 82.583,162.879 82.585,161.259 L82.586,159.917 L80.314,159.916 L80.312,161.257 C80.311,162.876 79.314,164.246 77.773,164.745 C76.232,165.242 74.622,164.719 73.671,163.408 L72.884,162.322 L71.045,163.656 L71.832,164.741 C72.783,166.052 72.781,167.747 71.827,169.056 C70.873,170.366 69.26,170.883 67.723,170.385 L66.448,169.969 L66.119,170.979 L64.217,170.36 L65.166,167.448 L68.343,168.483 C69.193,168.761 69.866,168.352 70.21,167.878 C70.556,167.405 70.738,166.639 70.213,165.915 L68.251,163.21 L73.329,159.529 L75.29,162.234 C75.815,162.958 76.599,163.019 77.157,162.842 C77.715,162.662 78.312,162.15 78.312,161.255 L78.316,157.914 L84.588,157.919 L84.585,161.261 C84.583,162.156 85.179,162.668 85.737,162.85 C86.294,163.033 87.078,162.968 87.604,162.246 L89.572,159.545 L94.642,163.236 L92.676,165.938 C92.149,166.661 92.33,167.425 92.674,167.901 C93.018,168.375 93.69,168.784 94.54,168.509 L97.719,167.479 L99.651,173.447 L96.473,174.476 C95.622,174.751 95.317,175.477 95.317,176.063 C95.316,176.65 95.619,177.375 96.47,177.652 L99.646,178.688 L98.697,181.6"/>
    <path fill="#475059" d="M89.493,178.676 L87.591,178.057 C88.127,176.412 87.991,174.657 87.207,173.115 C86.424,171.573 85.086,170.428 83.441,169.893 C81.797,169.355 80.041,169.493 78.499,170.276 C76.957,171.06 75.813,172.397 75.277,174.042 L73.376,173.422 C74.077,171.269 75.575,169.519 77.594,168.493 C79.612,167.468 81.911,167.292 84.061,167.991 C86.214,168.693 87.964,170.191 88.99,172.208 C90.016,174.227 90.194,176.524 89.493,178.676"/>
    <path fill="#475059" d="M81.466,184.461 C80.581,184.461 79.693,184.321 78.829,184.04 C74.386,182.59 71.949,177.796 73.398,173.353 L75.299,173.972 C74.192,177.368 76.054,181.031 79.449,182.137 C82.844,183.244 86.506,181.384 87.614,177.989 L89.515,178.608 C88.813,180.761 87.315,182.511 85.297,183.538 C84.089,184.151 82.782,184.461 81.466,184.461"/>
    <path fill="#475059" d="M84.574,194.117 L78.302,194.11 L78.305,190.769 C78.306,189.875 77.71,189.361 77.152,189.179 C76.594,188.997 75.811,189.06 75.285,189.784 L73.318,192.486 L68.248,188.792 L70.214,186.091 C70.741,185.369 70.561,184.603 70.217,184.128 C69.873,183.654 69.201,183.246 68.35,183.52 L65.171,184.548 L63.239,178.582 L66.419,177.553 C67.269,177.278 67.573,176.552 67.574,175.966 C67.574,175.379 67.272,174.654 66.421,174.375 L63.245,173.34 L64.311,170.071 L66.213,170.69 L65.767,172.059 L67.041,172.474 C68.582,172.977 69.576,174.349 69.574,175.968 C69.572,177.588 68.575,178.957 67.034,179.456 L65.758,179.869 L66.458,182.031 L67.734,181.618 C69.274,181.12 70.885,181.644 71.836,182.955 C72.787,184.266 72.785,185.959 71.831,187.269 L71.042,188.353 L72.878,189.691 L73.668,188.606 C74.622,187.296 76.231,186.776 77.772,187.278 C79.313,187.78 80.307,189.151 80.305,190.771 L80.304,192.112 L82.576,192.115 L82.577,190.773 C82.579,189.154 83.575,187.785 85.117,187.286 C86.657,186.787 88.268,187.313 89.218,188.624 L90.006,189.709 L91.846,188.375 L91.058,187.29 C90.107,185.978 90.109,184.286 91.062,182.976 C92.017,181.667 93.628,181.149 95.168,181.646 L96.442,182.062 L96.937,180.545 L98.838,181.167 L97.724,184.583 L94.547,183.548 C93.698,183.27 93.024,183.678 92.679,184.153 C92.334,184.627 92.152,185.392 92.677,186.116 L94.639,188.821 L89.561,192.502 L87.599,189.797 C87.073,189.073 86.29,189.008 85.732,189.188 C85.174,189.369 84.578,189.88 84.577,190.775 L84.574,194.117"/>
    <path fill="#475059" d="M81.391,173.115 C79.737,173.115 78.391,174.46 78.391,176.115 C78.391,177.769 79.737,179.115 81.391,179.115 C83.045,179.115 84.391,177.769 84.391,176.115 C84.391,174.46 83.045,173.115 81.391,173.115 Z M81.391,181.115 C78.634,181.115 76.391,178.872 76.391,176.115 C76.391,173.358 78.634,171.115 81.391,171.115 C84.148,171.115 86.391,173.358 86.391,176.115 C86.391,178.872 84.148,181.115 81.391,181.115 Z"/>
    <path fill="#FEDE31" d="M173.621 62.169C173.621 63.241 172.753 64.109 171.682 64.109 170.61 64.109 169.742 63.241 169.742 62.169 169.742 61.098 170.61 60.23 171.682 60.23 172.753 60.23 173.621 61.098 173.621 62.169M179.926 89.193C179.926 90.554 178.824 91.656 177.463 91.656 176.103 91.656 175 90.554 175 89.193 175 87.833 176.103 86.73 177.463 86.73 178.824 86.73 179.926 87.833 179.926 89.193M67.75 91.095C67.75 92.146 66.898 92.997 65.848 92.997 64.797 92.997 63.946 92.146 63.946 91.095 63.946 90.045 64.797 89.193 65.848 89.193 66.898 89.193 67.75 90.045 67.75 91.095"/>
  </g>
</svg>
