<svg xmlns="http://www.w3.org/2000/svg" width="250" height="250" viewBox="0 0 250 250">
  <g fill="none" fill-rule="evenodd">
    <polyline fill="#5FE0ED" points="187.917 156.249 187.917 138.258 160.931 138.258 160.931 156.249 157.933 156.249 157.932 216.217 190.915 216.217 190.915 156.249 187.917 156.249"/>
    <polyline fill="#5FE0ED" points="151.936 96.28 151.936 84.286 115.955 84.286 115.955 96.28 112.956 96.28 112.956 216.217 154.934 216.217 154.934 96.28 151.936 96.28"/>
    <polyline fill="#5FE0ED" points="109.958 147.253 109.958 138.258 106.959 138.258 106.959 129.263 103.961 129.263 103.961 120.268 88.969 120.268 88.969 129.263 85.97 129.263 85.97 138.258 82.972 138.258 82.972 147.253 79.973 147.253 79.973 216.217 112.956 216.217 112.956 147.253 109.958 147.253"/>
    <polyline fill="#5FE0ED" points="76.975 129.263 76.975 114.271 61.983 114.271 61.983 129.263 58.984 129.263 58.984 216.217 79.973 216.217 79.973 129.263 76.975 129.263"/>
    <path fill="#5FE0ED" d="M220.899,216.217 L193.914,216.217 L193.914,129.263 C200.822,129.263 220.899,141.345 220.899,156.249 L220.899,216.217"/>
    <polyline fill="#5FE0ED" points="46.991 138.258 46.991 171.241 37.995 171.241 37.995 156.249 29 156.249 29 216.217 55.986 216.217 55.986 138.258 46.991 138.258"/>
    <path fill="#48515A" d="M136.452,213.719 L194.421,213.719 L194.421,165.245 C194.421,116.376 173.32,70.169 136.452,38.117 L136.452,213.719 Z M196.421,215.719 L134.452,215.719 L134.452,33.783 L136.098,35.178 C174.434,67.657 196.421,115.064 196.421,165.245 L196.421,215.719 Z"/>
    <polygon fill="#48515A" points="135.452 64.297 160.94 64.297 160.94 62.297 135.452 62.297"/>
    <path fill="#48515A" d="M83.982,213.719 L177.911,213.719 C177.378,188.276 156.515,167.744 130.947,167.744 C105.379,167.744 84.515,188.276 83.982,213.719 Z M179.922,215.719 L81.972,215.719 L81.972,214.719 C81.972,187.714 103.942,165.744 130.947,165.744 C157.952,165.744 179.922,187.714 179.922,214.719 L179.922,215.719 Z"/>
    <path fill="#48515A" d="M95.966,213.717 L126.948,213.717 L126.948,110.772 L123.95,110.772 L123.95,91.284 L120.951,91.284 L120.951,76.291 L101.962,76.291 L101.962,91.284 L98.964,91.284 L98.964,110.772 L95.966,110.772 L95.966,213.717 Z M128.948,215.717 L93.966,215.717 L93.966,108.772 L96.964,108.772 L96.964,89.284 L99.962,89.284 L99.962,74.291 L122.951,74.291 L122.951,89.284 L125.95,89.284 L125.95,108.772 L128.948,108.772 L128.948,215.717 Z"/>
    <path fill="#48515A" d="M104.961,74.291 L117.953,74.291 L117.953,60.792 C114.064,57.937 108.848,57.937 104.961,60.792 L104.961,74.291 Z M119.953,76.291 L102.961,76.291 L102.961,59.819 L103.336,59.519 C108.116,55.691 114.794,55.689 119.577,59.518 L119.952,59.818 L119.953,76.291 Z"/>
    <polygon fill="#48515A" points="110.207 57.3 112.207 57.3 112.207 47.556 110.207 47.556"/>
    <polygon fill="#48515A" points="100.962 91.284 121.951 91.284 121.951 89.284 100.962 89.284"/>
    <polygon fill="#48515A" points="97.964 110.772 124.95 110.772 124.95 108.772 97.964 108.772"/>
    <path fill="#48515A" d="M53.988,213.719 L87.971,213.719 L87.971,148.247 L53.988,148.247 L53.988,213.719 Z M51.988,215.719 L89.971,215.719 L89.971,146.247 L51.988,146.247 L51.988,215.719 Z"/>
    <polygon fill="#48515A" points="29 215.719 52.987 215.719 52.987 213.719 29 213.719"/>
    <polygon fill="#48515A" points="195.513 215.719 221 215.719 221 213.719 195.513 213.719"/>
    <polygon fill="#48515A" points="73 90.217 75 90.217 75 86.217 73 86.217"/>
    <polygon fill="#48515A" points="73 100.217 75 100.217 75 96.217 73 96.217"/>
    <polygon fill="#48515A" points="77 94.217 81 94.217 81 92.217 77 92.217"/>
    <polygon fill="#48515A" points="67 94.217 71 94.217 71 92.217 67 92.217"/>
    <polygon fill="#48515A" points="205 114.217 207 114.217 207 110.217 205 110.217"/>
    <polygon fill="#48515A" points="205 124.217 207 124.217 207 120.217 205 120.217"/>
    <polygon fill="#48515A" points="209 118.217 213 118.217 213 116.217 209 116.217"/>
    <polygon fill="#48515A" points="199 118.217 203 118.217 203 116.217 199 116.217"/>
    <polygon fill="#48515A" points="41 122.217 43 122.217 43 118.217 41 118.217"/>
    <polygon fill="#48515A" points="41 132.217 43 132.217 43 128.217 41 128.217"/>
    <polygon fill="#48515A" points="45 126.217 49 126.217 49 124.217 45 124.217"/>
    <polygon fill="#48515A" points="35 126.217 39 126.217 39 124.217 35 124.217"/>
    <path fill="#5FE0ED" d="M193 95.217C193 96.874 191.657 98.217 190 98.217 188.343 98.217 187 96.874 187 95.217 187 93.56 188.343 92.217 190 92.217 191.657 92.217 193 93.56 193 95.217M203 84.217C203 84.217 202.552 84.217 202 84.217 201.448 84.217 201 84.217 201 84.217 201 84.217 201.448 84.217 202 84.217 202.552 84.217 203 84.217 203 84.217M59 106.217C59 107.322 58.105 108.217 57 108.217 55.896 108.217 55 107.322 55 106.217 55 105.113 55.896 104.217 57 104.217 58.105 104.217 59 105.113 59 106.217M127 52.217C127 53.322 126.105 54.217 125 54.217 123.896 54.217 123 53.322 123 52.217 123 51.113 123.896 50.217 125 50.217 126.105 50.217 127 51.113 127 52.217"/>
    <path fill="#F58E70" d="M187.447,37.217 C178.073,37.217 170.447,44.843 170.447,54.217 C170.447,63.591 178.073,71.217 187.447,71.217 C196.821,71.217 204.447,63.591 204.447,54.217 C204.447,44.843 196.821,37.217 187.447,37.217 Z M187.447,73.217 C176.971,73.217 168.447,64.694 168.447,54.217 C168.447,43.741 176.971,35.217 187.447,35.217 C197.924,35.217 206.447,43.741 206.447,54.217 C206.447,64.694 197.924,73.217 187.447,73.217 Z"/>
    <path fill="#48515A" d="M187.447 64.218C186.894 64.218 186.447 63.771 186.447 63.218L186.447 53.216C186.447 52.664 186.894 52.216 187.447 52.216L194.447 52.216C195 52.216 195.447 52.664 195.447 53.216 195.447 53.769 195 54.216 194.447 54.216L188.447 54.216 188.447 63.218C188.447 63.771 188 64.218 187.447 64.218M187.451 41.217C187.18 41.217 186.93 41.117 186.741 40.927 186.551 40.737 186.451 40.487 186.451 40.217 186.451 39.957 186.551 39.697 186.741 39.507 186.781 39.467 186.841 39.417 186.89 39.387 186.94 39.347 187.001 39.317 187.06 39.297 187.121 39.267 187.19 39.248 187.251 39.237 187.57 39.167 187.921 39.277 188.15 39.507 188.241 39.607 188.32 39.717 188.371 39.837 188.421 39.957 188.44 40.087 188.44 40.217 188.44 40.487 188.341 40.737 188.15 40.927 187.961 41.117 187.711 41.217 187.451 41.217M187.451 69.217C187.18 69.217 186.93 69.117 186.741 68.927 186.65 68.827 186.57 68.717 186.52 68.597 186.471 68.477 186.44 68.347 186.44 68.217 186.44 67.957 186.551 67.697 186.741 67.507 187.11 67.137 187.781 67.137 188.15 67.507 188.341 67.697 188.44 67.947 188.44 68.217 188.44 68.347 188.421 68.477 188.371 68.597 188.32 68.717 188.251 68.827 188.15 68.927 188.06 69.017 187.951 69.087 187.831 69.137 187.711 69.187 187.581 69.217 187.451 69.217M180.451 43.087C180.18 43.087 179.93 42.987 179.741 42.797 179.551 42.607 179.451 42.357 179.451 42.097 179.451 41.957 179.471 41.837 179.52 41.707 179.57 41.587 179.65 41.477 179.741 41.387 179.971 41.157 180.32 41.047 180.64 41.117 180.701 41.127 180.77 41.147 180.831 41.167 180.89 41.197 180.951 41.227 181.001 41.257 181.06 41.297 181.11 41.337 181.15 41.387 181.341 41.577 181.451 41.827 181.451 42.097 181.451 42.357 181.341 42.607 181.15 42.797 180.961 42.987 180.711 43.087 180.451 43.087M194.451 67.337C194.31 67.337 194.18 67.317 194.06 67.267 193.94 67.217 193.831 67.147 193.741 67.047 193.64 66.957 193.57 66.847 193.52 66.727 193.471 66.607 193.44 66.477 193.44 66.337 193.44 66.077 193.551 65.817 193.741 65.637 193.971 65.397 194.32 65.287 194.64 65.357 194.701 65.377 194.77 65.397 194.831 65.417 194.89 65.447 194.951 65.477 195.001 65.507 195.06 65.547 195.11 65.587 195.15 65.637 195.341 65.817 195.451 66.077 195.451 66.337 195.451 66.477 195.421 66.607 195.371 66.727 195.32 66.847 195.251 66.957 195.15 67.047 195.06 67.147 194.951 67.217 194.831 67.267 194.711 67.317 194.581 67.337 194.451 67.337M175.32 48.217C175.051 48.217 174.801 48.117 174.61 47.927 174.52 47.827 174.451 47.717 174.4 47.597 174.35 47.477 174.32 47.347 174.32 47.217 174.32 46.957 174.43 46.697 174.61 46.507 174.711 46.417 174.82 46.347 174.94 46.297 175.121 46.217 175.32 46.197 175.52 46.237 175.581 46.248 175.64 46.267 175.701 46.297 175.761 46.317 175.82 46.347 175.881 46.387 175.93 46.417 175.98 46.467 176.031 46.507 176.211 46.697 176.32 46.957 176.32 47.217 176.32 47.347 176.301 47.477 176.241 47.597 176.19 47.717 176.121 47.827 176.031 47.927 175.841 48.117 175.591 48.217 175.32 48.217M199.57 62.217C199.301 62.217 199.051 62.117 198.86 61.927 198.77 61.827 198.701 61.717 198.65 61.597 198.6 61.477 198.57 61.347 198.57 61.217 198.57 60.957 198.68 60.697 198.86 60.507 198.961 60.417 199.06 60.347 199.19 60.297 199.56 60.137 200.001 60.237 200.281 60.507 200.461 60.697 200.57 60.957 200.57 61.217 200.57 61.487 200.471 61.737 200.281 61.927 200.18 62.017 200.07 62.087 199.951 62.137 199.831 62.187 199.701 62.217 199.57 62.217M173.451 55.217C173.18 55.217 172.93 55.117 172.741 54.927 172.551 54.737 172.451 54.487 172.451 54.217 172.451 53.957 172.551 53.697 172.741 53.507 173.11 53.137 173.781 53.137 174.15 53.507 174.341 53.697 174.451 53.957 174.451 54.217 174.451 54.487 174.341 54.737 174.15 54.927 173.961 55.117 173.711 55.217 173.451 55.217M201.451 55.217C201.18 55.217 200.93 55.117 200.741 54.927 200.551 54.737 200.44 54.487 200.44 54.217 200.44 53.957 200.551 53.697 200.741 53.507 201.11 53.137 201.781 53.137 202.15 53.507 202.341 53.697 202.451 53.957 202.451 54.217 202.451 54.347 202.421 54.477 202.371 54.597 202.32 54.717 202.251 54.827 202.15 54.927 201.971 55.117 201.711 55.217 201.451 55.217M175.32 62.217C175.051 62.217 174.801 62.117 174.61 61.927 174.52 61.827 174.451 61.717 174.4 61.597 174.35 61.477 174.32 61.347 174.32 61.217 174.32 60.957 174.43 60.697 174.61 60.507 174.841 60.277 175.19 60.177 175.52 60.237 175.581 60.248 175.64 60.267 175.701 60.297 175.761 60.317 175.82 60.347 175.881 60.387 175.93 60.417 175.98 60.467 176.031 60.507 176.211 60.697 176.32 60.957 176.32 61.217 176.32 61.487 176.221 61.737 176.031 61.927 175.841 62.117 175.591 62.217 175.32 62.217M199.57 48.217C199.301 48.217 199.051 48.117 198.86 47.927 198.671 47.737 198.57 47.487 198.57 47.217 198.57 47.087 198.6 46.957 198.65 46.837 198.701 46.717 198.77 46.607 198.86 46.507 199.23 46.137 199.911 46.137 200.281 46.507 200.461 46.697 200.57 46.957 200.57 47.217 200.57 47.347 200.541 47.477 200.491 47.597 200.44 47.717 200.371 47.827 200.281 47.927 200.18 48.017 200.07 48.087 199.951 48.137 199.831 48.187 199.701 48.217 199.57 48.217M180.451 67.337C180.18 67.337 179.93 67.237 179.741 67.047 179.65 66.957 179.57 66.847 179.52 66.727 179.471 66.607 179.451 66.477 179.451 66.337 179.451 66.077 179.551 65.817 179.741 65.637 179.781 65.587 179.841 65.547 179.89 65.507 179.94 65.477 180.001 65.447 180.06 65.417 180.121 65.397 180.19 65.377 180.251 65.357 180.57 65.287 180.921 65.397 181.15 65.637 181.341 65.817 181.451 66.077 181.451 66.337 181.451 66.477 181.421 66.607 181.371 66.727 181.32 66.847 181.251 66.957 181.15 67.047 180.961 67.237 180.711 67.337 180.451 67.337M194.451 43.087C194.18 43.087 193.93 42.987 193.741 42.797 193.551 42.607 193.44 42.357 193.44 42.097 193.44 41.827 193.551 41.567 193.741 41.387 193.781 41.337 193.841 41.297 193.89 41.257 193.94 41.227 194.001 41.197 194.06 41.167 194.121 41.147 194.19 41.127 194.251 41.117 194.581 41.047 194.921 41.157 195.15 41.387 195.341 41.567 195.451 41.827 195.451 42.097 195.451 42.357 195.341 42.607 195.15 42.797 194.961 42.987 194.711 43.087 194.451 43.087"/>
    <path fill="#475059" d="M75.305,68.702 L73.404,68.082 L73.733,67.071 L72.458,66.656 C70.918,66.153 69.924,64.783 69.926,63.163 C69.927,61.544 70.924,60.174 72.465,59.675 L73.741,59.261 L73.041,57.1 L71.765,57.513 C70.226,58.012 68.614,57.488 67.662,56.176 C66.712,54.865 66.714,53.171 67.667,51.862 L68.456,50.778 L66.619,49.441 L65.83,50.525 C64.876,51.834 63.268,52.359 61.725,51.854 C60.186,51.352 59.192,49.981 59.193,48.361 L59.194,47.02 L56.922,47.017 L56.921,48.359 C56.919,49.979 55.923,51.347 54.382,51.846 C52.842,52.343 51.231,51.822 50.28,50.509 L49.493,49.423 L47.653,50.757 L48.44,51.843 C49.391,53.155 49.39,54.848 48.436,56.158 C47.483,57.468 45.871,57.986 44.331,57.487 L43.056,57.071 L42.727,58.081 L40.826,57.461 L41.775,54.549 L44.951,55.584 C45.802,55.862 46.474,55.454 46.819,54.98 C47.164,54.506 47.346,53.742 46.821,53.017 L44.86,50.312 L49.938,46.63 L51.899,49.335 C52.424,50.059 53.207,50.124 53.765,49.944 C54.324,49.763 54.92,49.251 54.921,48.357 L54.924,45.015 L61.196,45.022 L61.193,48.363 C61.192,49.257 61.788,49.77 62.346,49.953 C62.901,50.132 63.686,50.07 64.213,49.347 L66.18,46.646 L71.25,50.338 L69.284,53.04 C68.757,53.762 68.938,54.527 69.282,55.002 C69.626,55.477 70.299,55.885 71.148,55.611 L74.327,54.581 L76.26,60.548 L73.081,61.578 C72.23,61.853 71.926,62.579 71.926,63.165 C71.925,63.751 72.227,64.476 73.078,64.753 L76.255,65.79 L75.305,68.702"/>
    <path fill="#475059" d="M66.101,65.778 L64.2,65.159 C64.736,63.513 64.6,61.758 63.816,60.216 C63.032,58.674 61.695,57.53 60.05,56.995 C58.407,56.457 56.651,56.593 55.108,57.378 C53.566,58.162 52.422,59.499 51.886,61.143 L49.984,60.524 C50.686,58.372 52.183,56.621 54.202,55.595 C56.22,54.568 58.516,54.392 60.67,55.092 C62.822,55.794 64.573,57.292 65.599,59.31 C66.625,61.329 66.803,63.625 66.101,65.778"/>
    <path fill="#475059" d="M58.074,71.563 C57.19,71.563 56.302,71.422 55.437,71.141 C53.285,70.439 51.535,68.941 50.509,66.922 C49.483,64.904 49.305,62.607 50.007,60.455 L51.908,61.074 C51.372,62.719 51.508,64.474 52.292,66.016 C53.075,67.558 54.413,68.703 56.057,69.239 C57.701,69.776 59.457,69.639 60.999,68.856 C62.541,68.072 63.686,66.735 64.222,65.09 L66.123,65.71 C65.422,67.863 63.924,69.613 61.905,70.639 C60.698,71.252 59.39,71.563 58.074,71.563"/>
    <path fill="#475059" d="M61.182,81.218 L54.91,81.211 L54.913,77.871 C54.914,76.976 54.319,76.463 53.761,76.281 C53.204,76.099 52.421,76.163 51.893,76.886 L49.927,79.587 L44.856,75.895 L46.824,73.194 C47.35,72.47 47.169,71.706 46.825,71.23 C46.48,70.755 45.808,70.347 44.959,70.622 L41.78,71.65 L39.848,65.684 L43.027,64.655 C43.878,64.379 44.181,63.654 44.182,63.068 C44.183,62.481 43.88,61.756 43.03,61.479 L39.853,60.442 L40.92,57.172 L42.821,57.792 L42.375,59.161 L43.65,59.578 C45.19,60.08 46.184,61.45 46.182,63.07 C46.181,64.689 45.184,66.058 43.643,66.557 L42.367,66.971 L43.067,69.132 L44.343,68.719 C45.883,68.22 47.493,68.745 48.444,70.056 C49.395,71.368 49.393,73.061 48.44,74.372 L47.65,75.456 L49.487,76.792 L50.276,75.708 C51.231,74.4 52.844,73.878 54.382,74.379 C55.922,74.882 56.915,76.253 56.913,77.873 L56.912,79.213 L59.184,79.216 L59.185,77.876 C59.187,76.255 60.184,74.886 61.726,74.387 C63.267,73.888 64.877,74.414 65.827,75.725 L66.614,76.811 L68.454,75.477 L67.667,74.391 C66.716,73.081 66.718,71.387 67.671,70.078 C68.625,68.767 70.236,68.248 71.776,68.748 L73.051,69.164 L73.545,67.648 L75.447,68.269 L74.332,71.685 L71.156,70.65 C70.305,70.373 69.633,70.781 69.288,71.254 C68.943,71.729 68.761,72.493 69.286,73.217 L71.247,75.922 L66.169,79.604 L64.208,76.899 C63.683,76.175 62.898,76.11 62.342,76.29 C61.784,76.47 61.186,76.983 61.185,77.877 L61.182,81.218"/>
    <path fill="#475059" d="M58,60.216 C56.346,60.216 55,61.562 55,63.216 C55,64.871 56.346,66.216 58,66.216 C59.654,66.216 61,64.871 61,63.216 C61,61.562 59.654,60.216 58,60.216 Z M58,68.216 C55.243,68.216 53,65.973 53,63.216 C53,60.459 55.243,58.216 58,58.216 C60.757,58.216 63,60.459 63,63.216 C63,65.973 60.757,68.216 58,68.216 Z"/>
  </g>
</svg>
