<svg xmlns="http://www.w3.org/2000/svg" width="250" height="250" viewBox="0 0 250 250">
  <g fill="none" fill-rule="evenodd">
    <path fill="#DEDEDD" d="M186.887 80.94L170.742 80.94C181.353 92.22 187.875 107.389 187.875 124.061 187.875 141.518 180.679 158.054 168.019 169.954L187.887 169.952 191.887 169.952 191.887 85.94C191.887 83.183 189.644 80.94 186.887 80.94M61.875 124.061C61.875 107.389 68.397 92.22 79.008 80.94L62.887 80.94C60.13 80.94 57.887 83.183 57.887 85.94L57.887 169.963 61.887 169.963 81.739 169.961C69.075 158.063 61.875 141.522 61.875 124.061"/>
    <path fill="#5FE0ED" d="M173.982,131.077 L173.982,152.992 C176.726,148.345 178.832,143.279 180.173,137.907 L173.982,131.077"/>
    <path fill="#FFF" d="M92.303,124.061 L92.303,120.804 L95.561,120.804 L95.561,107.776 L108.589,98.004 L108.589,69.435 C88.569,75.396 73.158,92.05 68.996,112.781 L82.532,124.061 L92.303,124.061"/>
    <polyline fill="#FFF" points="92.303 124.061 92.303 143.604 115.103 166.404 118.361 166.404 118.361 120.804 95.561 120.804 88.05 115.122 92.303 124.061"/>
    <path fill="#FFF" d="M180.173,137.907 C181.279,133.473 181.875,128.838 181.875,124.061 C181.875,98.031 164.419,76.092 140.58,69.27 L134.646,75.204 L147.675,75.204 L147.675,78.461 L131.389,78.461 L131.389,98.004 L134.646,98.004 L141.161,91.49 L147.675,91.49 L150.932,94.747 L154.189,91.49 L150.932,88.233 L157.446,81.719 L160.703,81.719 L160.703,101.261 L131.389,101.261 L131.389,118.299 L144.167,131.077 L152.686,131.077 L152.686,144.069 L165.25,156.633 L171.641,156.633 C172.466,155.451 173.247,154.237 173.982,152.992 L173.982,131.077 L180.173,137.907"/>
    <path fill="#5FE0ED" d="M91.073,169.953 L158.631,169.953 C163.656,166.248 168.065,161.757 171.641,156.633 L165.25,156.633 L152.686,144.069 L152.686,131.077 L144.167,131.077 L131.389,118.299 L131.389,101.261 L160.703,101.261 L160.703,81.718 L157.446,81.718 L150.932,88.233 L154.189,91.49 L150.932,94.747 L147.675,91.49 L141.161,91.49 L134.646,98.004 L131.389,98.004 L131.389,78.461 L147.675,78.461 L147.675,75.204 L134.646,75.204 L140.58,69.27 C135.589,67.842 130.325,67.061 124.875,67.061 C119.214,67.061 113.751,67.898 108.589,69.435 L108.589,98.004 L95.561,107.776 L95.561,120.804 L118.361,120.804 L118.361,166.404 L115.103,166.404 L92.303,143.604 L92.303,124.062 L82.532,124.062 L68.996,112.781 C68.264,116.428 67.875,120.199 67.875,124.062 C67.875,142.886 77.005,159.573 91.073,169.953"/>
    <polygon fill="#FFD15D" points="162.885 77.894 170.885 77.894 170.885 66.897 162.885 66.897"/>
    <polygon fill="#FFD15D" points="78.884 77.894 86.884 77.894 86.884 66.897 78.884 66.897"/>
    <path fill="#48515A" d="M195.887 170.121L193.887 170.121 193.887 85.94C193.887 82.081 190.746 78.94 186.887 78.94L162.885 78.94 162.885 76.94 186.887 76.94C191.85 76.94 195.887 80.977 195.887 85.94L195.887 170.121M55.887 169.788L53.887 169.788 53.887 85.94C53.887 80.977 57.924 76.94 62.887 76.94L86.884 76.94 86.884 78.94 62.887 78.94C59.027 78.94 55.887 82.081 55.887 85.94L55.887 169.788M143.887 66.813L141.887 66.813 141.887 63.889C141.887 62.235 140.541 60.889 138.887 60.889L110.887 60.889C109.232 60.889 107.887 62.235 107.887 63.889L107.887 66.806 105.887 66.806 105.887 63.889C105.887 61.132 108.13 58.889 110.887 58.889L138.887 58.889C141.644 58.889 143.887 61.132 143.887 63.889L143.887 66.813"/>
    <path fill="#48515A" d="M151.887,69.986 L149.887,69.986 L149.887,63.889 C149.887,57.824 144.952,52.889 138.887,52.889 L110.887,52.889 C104.821,52.889 99.887,57.824 99.887,63.889 L99.887,69.964 L97.887,69.964 L97.887,63.889 C97.887,56.721 103.719,50.889 110.887,50.889 L138.887,50.889 C146.055,50.889 151.887,56.721 151.887,63.889 L151.887,69.986"/>
    <path fill="#FFD15D" d="M103.887,67.885 L103.887,63.889 C103.887,60.03 107.027,56.889 110.887,56.889 L138.887,56.889 C142.747,56.889 145.887,60.03 145.887,63.889 L145.887,67.885 L147.887,67.885 L147.887,63.889 C147.887,58.927 143.849,54.889 138.887,54.889 L110.887,54.889 C105.924,54.889 101.887,58.927 101.887,63.889 L101.887,67.885 L103.887,67.885"/>
    <polygon fill="#48515A" points="212.884 143.158 214.884 143.158 214.884 139.158 212.884 139.158"/>
    <polygon fill="#48515A" points="212.884 153.158 214.884 153.158 214.884 149.158 212.884 149.158"/>
    <polygon fill="#48515A" points="216.884 147.158 220.884 147.158 220.884 145.158 216.884 145.158"/>
    <polygon fill="#48515A" points="206.884 147.158 210.884 147.158 210.884 145.158 206.884 145.158"/>
    <polygon fill="#48515A" points="35.116 104.104 37.116 104.104 37.116 100.104 35.116 100.104"/>
    <polygon fill="#48515A" points="35.116 114.104 37.116 114.104 37.116 110.104 35.116 110.104"/>
    <polygon fill="#48515A" points="39.116 108.104 43.116 108.104 43.116 106.104 39.116 106.104"/>
    <polygon fill="#48515A" points="29.116 108.104 33.116 108.104 33.116 106.104 29.116 106.104"/>
    <polygon fill="#48515A" points="154.884 198.119 156.884 198.119 156.884 194.119 154.884 194.119"/>
    <polygon fill="#48515A" points="154.884 208.119 156.884 208.119 156.884 204.119 154.884 204.119"/>
    <polygon fill="#48515A" points="158.884 202.119 162.884 202.119 162.884 200.119 158.884 200.119"/>
    <polygon fill="#48515A" points="148.884 202.119 152.884 202.119 152.884 200.119 148.884 200.119"/>
    <path fill="#475059" d="M203.867,49.12 C198.904,49.12 194.867,53.157 194.867,58.12 C194.867,63.083 198.904,67.12 203.867,67.12 C208.83,67.12 212.867,63.083 212.867,58.12 C212.867,53.157 208.83,49.12 203.867,49.12 Z M203.867,69.12 C197.802,69.12 192.867,64.185 192.867,58.12 C192.867,52.054 197.802,47.12 203.867,47.12 C209.933,47.12 214.867,52.054 214.867,58.12 C214.867,64.185 209.933,69.12 203.867,69.12 Z M203.867,43.12 C195.596,43.12 188.867,49.848 188.867,58.12 C188.867,66.391 195.596,73.12 203.867,73.12 C212.139,73.12 218.867,66.391 218.867,58.12 C218.867,49.848 212.139,43.12 203.867,43.12 Z M203.867,75.12 C194.493,75.12 186.867,67.494 186.867,58.12 C186.867,48.746 194.493,41.12 203.867,41.12 C213.241,41.12 220.867,48.746 220.867,58.12 C220.867,67.494 213.241,75.12 203.867,75.12 Z"/>
    <path fill="#475059" d="M203.867,55.12 C202.213,55.12 200.867,56.465 200.867,58.12 C200.867,59.774 202.213,61.12 203.867,61.12 C205.521,61.12 206.867,59.774 206.867,58.12 C206.867,56.465 205.521,55.12 203.867,55.12 Z M203.867,63.12 C201.11,63.12 198.867,60.876 198.867,58.12 C198.867,55.363 201.11,53.12 203.867,53.12 C206.624,53.12 208.867,55.363 208.867,58.12 C208.867,60.876 206.624,63.12 203.867,63.12 Z"/>
    <path fill="#F58E70" d="M203.867,54.12 C201.658,54.12 199.867,55.911 199.867,58.12 C199.867,60.329 201.658,62.12 203.867,62.12 C206.076,62.12 207.867,60.329 207.867,58.12 C207.867,55.911 206.076,54.12 203.867,54.12"/>
    <path fill="#F58E70" d="M203.867,55.12 C202.213,55.12 200.867,56.465 200.867,58.12 C200.867,59.774 202.213,61.12 203.867,61.12 C205.521,61.12 206.867,59.774 206.867,58.12 C206.867,56.465 205.521,55.12 203.867,55.12 Z M203.867,63.12 C201.11,63.12 198.867,60.876 198.867,58.12 C198.867,55.363 201.11,53.12 203.867,53.12 C206.624,53.12 208.867,55.363 208.867,58.12 C208.867,60.876 206.624,63.12 203.867,63.12 Z"/>
    <polygon fill="#475059" points="176.908 59.539 203.908 59.539 203.908 57.539 176.908 57.539"/>
    <path fill="#475059" d="M170.282 61.539L173.454 61.539 176.454 58.539 173.454 55.539 170.282 55.539 173.282 58.539 170.282 61.539zM174.282 63.539L165.454 63.539 170.454 58.539 165.454 53.539 174.282 53.539 179.282 58.539 174.282 63.539zM178.886 187.119L43.885 187.119C42.23 187.119 40.885 185.773 40.885 184.119L40.885 172.12C40.885 170.465 42.23 169.12 43.885 169.12L205.89 169.12C207.544 169.12 208.89 170.465 208.89 172.12L208.885 175.122 206.885 175.118 206.89 172.118C206.89 171.568 206.441 171.12 205.89 171.12L43.885 171.12C43.333 171.12 42.885 171.568 42.885 172.12L42.885 184.119C42.885 184.67 43.333 185.119 43.885 185.119L178.886 185.119 178.886 187.119"/>
    <polygon fill="#FFD15D" points="72.884 181.119 88.884 181.119 88.884 175.119 72.884 175.119"/>
    <polygon fill="#FFD15D" points="160.89 181.119 176.89 181.119 176.89 175.119 160.89 175.119"/>
    <path fill="#48515A" d="M164.155,170.717 L162.866,169.188 C176.218,157.935 183.875,141.487 183.875,124.061 C183.875,91.529 157.407,65.061 124.875,65.061 C92.343,65.061 65.875,91.529 65.875,124.061 C65.875,141.488 73.532,157.936 86.883,169.188 L85.594,170.717 C71.791,159.084 63.875,142.079 63.875,124.061 C63.875,90.425 91.239,63.061 124.875,63.061 C158.511,63.061 185.875,90.425 185.875,124.061 C185.875,142.078 177.958,159.083 164.155,170.717"/>
    <path fill="#F58E70" d="M52.758,40.474 C43.384,40.474 35.758,48.1 35.758,57.474 C35.758,66.848 43.384,74.474 52.758,74.474 C62.132,74.474 69.758,66.848 69.758,57.474 C69.758,48.1 62.132,40.474 52.758,40.474 Z M52.758,76.474 C42.281,76.474 33.758,67.951 33.758,57.474 C33.758,46.998 42.281,38.474 52.758,38.474 C63.234,38.474 71.758,46.998 71.758,57.474 C71.758,67.951 63.234,76.474 52.758,76.474 Z"/>
    <path fill="#48515A" d="M52.758 67.475C52.205 67.475 51.758 67.028 51.758 66.475L51.758 56.473C51.758 55.92 52.205 55.473 52.758 55.473L59.759 55.473C60.312 55.473 60.759 55.92 60.759 56.473 60.759 57.026 60.312 57.473 59.759 57.473L53.758 57.473 53.758 66.475C53.758 67.028 53.311 67.475 52.758 67.475M52.754 44.471C52.493 44.471 52.243 44.372 52.054 44.181 51.953 44.081 51.884 43.981 51.834 43.851 51.783 43.731 51.754 43.601 51.754 43.471 51.754 43.341 51.783 43.211 51.834 43.091 51.884 42.971 51.953 42.862 52.054 42.771 52.144 42.671 52.254 42.601 52.374 42.551 52.743 42.402 53.184 42.492 53.464 42.771 53.554 42.862 53.634 42.971 53.684 43.091 53.733 43.211 53.754 43.341 53.754 43.471 53.754 43.742 53.653 43.992 53.464 44.181 53.273 44.372 53.023 44.471 52.754 44.471M52.754 72.471C52.624 72.471 52.493 72.452 52.374 72.402 52.254 72.351 52.144 72.271 52.054 72.181 51.863 71.992 51.754 71.742 51.754 71.471 51.754 71.211 51.863 70.952 52.054 70.771 52.283 70.532 52.624 70.431 52.953 70.492 53.014 70.501 53.084 70.521 53.144 70.551 53.203 70.572 53.254 70.601 53.313 70.641 53.363 70.681 53.414 70.721 53.464 70.771 53.554 70.862 53.634 70.971 53.684 71.091 53.733 71.211 53.754 71.341 53.754 71.471 53.754 71.742 53.653 71.992 53.464 72.181 53.273 72.372 53.023 72.471 52.754 72.471M45.754 46.351C45.493 46.351 45.233 46.242 45.054 46.051 44.863 45.872 44.754 45.622 44.754 45.351 44.754 45.221 44.783 45.091 44.834 44.971 44.884 44.841 44.953 44.731 45.054 44.641 45.424 44.271 46.094 44.271 46.464 44.641 46.554 44.731 46.634 44.841 46.684 44.971 46.733 45.091 46.754 45.221 46.754 45.351 46.754 45.622 46.653 45.872 46.464 46.051 46.273 46.242 46.023 46.351 45.754 46.351M59.754 70.601C59.483 70.601 59.233 70.492 59.054 70.301 58.953 70.211 58.884 70.101 58.834 69.981 58.783 69.862 58.754 69.731 58.754 69.601 58.754 69.331 58.863 69.072 59.054 68.891 59.094 68.841 59.144 68.801 59.203 68.771 59.254 68.731 59.313 68.702 59.374 68.671 59.434 68.652 59.493 68.631 59.563 68.612 59.693 68.591 59.823 68.591 59.953 68.612 60.014 68.631 60.073 68.652 60.144 68.671 60.203 68.702 60.254 68.731 60.313 68.771 60.363 68.801 60.414 68.841 60.464 68.891 60.653 69.081 60.754 69.331 60.754 69.601 60.754 69.731 60.733 69.862 60.684 69.981 60.634 70.101 60.554 70.211 60.464 70.301 60.374 70.402 60.264 70.471 60.144 70.521 60.023 70.572 59.894 70.601 59.754 70.601M40.634 51.471C40.363 51.471 40.113 51.372 39.924 51.181 39.834 51.082 39.764 50.981 39.714 50.851 39.664 50.731 39.634 50.601 39.634 50.471 39.634 50.211 39.743 49.952 39.924 49.771 40.294 49.391 40.964 49.391 41.344 49.771 41.523 49.952 41.634 50.211 41.634 50.471 41.634 50.601 41.603 50.731 41.554 50.851 41.504 50.981 41.434 51.082 41.344 51.181 41.153 51.372 40.903 51.471 40.634 51.471M64.884 65.471C64.743 65.471 64.624 65.452 64.493 65.402 64.374 65.351 64.264 65.271 64.174 65.181 64.084 65.091 64.004 64.981 63.953 64.851 63.903 64.731 63.884 64.601 63.884 64.471 63.884 64.412 63.884 64.341 63.903 64.282 63.914 64.211 63.934 64.152 63.953 64.091 63.983 64.032 64.014 63.971 64.054 63.921 64.084 63.862 64.124 63.811 64.174 63.771 64.264 63.671 64.374 63.601 64.493 63.551 64.863 63.402 65.313 63.481 65.584 63.771 65.634 63.811 65.674 63.862 65.714 63.921 65.743 63.971 65.783 64.032 65.804 64.091 65.834 64.152 65.854 64.211 65.863 64.282 65.874 64.341 65.884 64.412 65.884 64.471 65.884 64.601 65.854 64.731 65.804 64.851 65.754 64.981 65.684 65.091 65.584 65.181 65.403 65.372 65.153 65.471 64.884 65.471M38.764 58.471C38.493 58.471 38.233 58.372 38.054 58.181 37.953 58.081 37.884 57.981 37.834 57.851 37.783 57.731 37.754 57.612 37.754 57.471 37.754 57.341 37.783 57.211 37.834 57.091 37.884 56.971 37.953 56.862 38.054 56.771 38.144 56.671 38.254 56.601 38.374 56.551 38.743 56.402 39.193 56.492 39.464 56.771 39.554 56.862 39.634 56.971 39.684 57.091 39.733 57.211 39.754 57.341 39.754 57.471 39.754 57.742 39.653 57.992 39.464 58.181 39.273 58.372 39.023 58.471 38.764 58.471M66.754 58.471C66.483 58.471 66.233 58.372 66.054 58.181 65.953 58.081 65.884 57.981 65.834 57.851 65.783 57.731 65.754 57.612 65.754 57.471 65.754 57.341 65.783 57.211 65.834 57.091 65.884 56.971 65.953 56.862 66.054 56.771 66.414 56.391 67.094 56.391 67.464 56.771 67.554 56.862 67.634 56.971 67.684 57.091 67.733 57.211 67.764 57.341 67.764 57.471 67.764 57.612 67.733 57.731 67.684 57.851 67.634 57.981 67.554 58.081 67.464 58.181 67.374 58.271 67.264 58.351 67.144 58.402 67.023 58.452 66.894 58.471 66.754 58.471M40.634 65.471C40.363 65.471 40.113 65.372 39.924 65.181 39.834 65.091 39.764 64.981 39.714 64.851 39.653 64.731 39.634 64.601 39.634 64.471 39.634 64.412 39.644 64.341 39.653 64.282 39.664 64.211 39.684 64.152 39.714 64.091 39.733 64.032 39.764 63.971 39.804 63.921 39.834 63.862 39.884 63.811 39.924 63.771 40.164 63.532 40.504 63.421 40.823 63.492 40.894 63.501 40.953 63.521 41.014 63.551 41.073 63.572 41.134 63.601 41.184 63.641 41.243 63.681 41.294 63.721 41.334 63.771 41.384 63.811 41.424 63.862 41.464 63.921 41.504 63.971 41.533 64.032 41.554 64.091 41.584 64.152 41.603 64.211 41.613 64.282 41.624 64.341 41.634 64.412 41.634 64.471 41.634 64.601 41.603 64.731 41.554 64.851 41.504 64.981 41.434 65.091 41.334 65.181 41.153 65.372 40.903 65.471 40.634 65.471M64.884 51.471C64.743 51.471 64.624 51.452 64.493 51.402 64.374 51.351 64.273 51.271 64.174 51.181 64.084 51.082 64.004 50.981 63.953 50.851 63.903 50.731 63.884 50.601 63.884 50.471 63.884 50.211 63.983 49.952 64.174 49.771 64.453 49.492 64.894 49.402 65.264 49.551 65.384 49.601 65.493 49.671 65.584 49.771 65.773 49.952 65.884 50.211 65.884 50.471 65.884 50.612 65.854 50.731 65.804 50.851 65.754 50.981 65.684 51.082 65.584 51.181 65.403 51.372 65.144 51.471 64.884 51.471M45.764 70.601C45.624 70.601 45.493 70.572 45.374 70.521 45.254 70.471 45.144 70.402 45.054 70.301 44.953 70.211 44.884 70.101 44.834 69.981 44.783 69.862 44.754 69.731 44.754 69.601 44.754 69.331 44.863 69.072 45.054 68.891 45.094 68.841 45.144 68.801 45.203 68.771 45.254 68.731 45.313 68.702 45.374 68.671 45.434 68.652 45.493 68.631 45.563 68.612 45.884 68.551 46.233 68.652 46.464 68.891 46.653 69.081 46.754 69.331 46.754 69.601 46.754 69.731 46.733 69.862 46.684 69.981 46.634 70.101 46.554 70.211 46.464 70.301 46.273 70.492 46.023 70.601 45.764 70.601M59.754 46.351C59.483 46.351 59.233 46.242 59.054 46.051 58.863 45.872 58.754 45.612 58.754 45.351 58.754 45.221 58.783 45.091 58.834 44.971 58.884 44.841 58.953 44.731 59.054 44.641 59.283 44.412 59.624 44.301 59.953 44.372 60.014 44.381 60.084 44.402 60.144 44.421 60.203 44.452 60.254 44.481 60.313 44.521 60.363 44.551 60.414 44.601 60.464 44.641 60.554 44.731 60.634 44.841 60.684 44.971 60.733 45.091 60.754 45.221 60.754 45.351 60.754 45.612 60.653 45.872 60.464 46.051 60.273 46.242 60.023 46.351 59.754 46.351"/>
    <path fill="#475059" d="M215.497,199.009 L213.595,198.388 L213.925,197.378 L212.649,196.963 C211.109,196.46 210.115,195.09 210.117,193.47 C210.118,191.85 211.115,190.481 212.657,189.982 L213.932,189.569 L213.232,187.408 L211.957,187.821 C210.416,188.319 208.805,187.795 207.854,186.484 C206.903,185.172 206.905,183.479 207.858,182.168 L208.647,181.084 L206.811,179.748 L206.021,180.833 C205.066,182.142 203.452,182.661 201.917,182.161 C200.377,181.659 199.383,180.288 199.385,178.668 L199.386,177.327 L197.114,177.325 L197.112,178.666 C197.111,180.286 196.114,181.655 194.573,182.154 C193.033,182.653 191.423,182.128 190.472,180.817 L189.684,179.731 L187.845,181.064 L188.632,182.15 C189.583,183.461 189.581,185.156 188.628,186.465 C187.674,187.774 186.064,188.294 184.523,187.794 L183.248,187.378 L182.919,188.389 L181.017,187.768 L181.967,184.857 L185.143,185.892 C186,186.17 186.666,185.761 187.011,185.288 C187.356,184.813 187.538,184.048 187.013,183.324 L185.052,180.619 L190.129,176.938 L192.091,179.643 C192.616,180.368 193.397,180.429 193.957,180.251 C194.515,180.071 195.111,179.558 195.112,178.664 L195.116,175.323 L201.388,175.329 L201.385,178.67 C201.384,179.565 201.979,180.078 202.537,180.259 C203.095,180.445 203.879,180.378 204.404,179.655 L206.371,176.953 L211.442,180.645 L209.476,183.346 C208.949,184.07 209.129,184.834 209.474,185.31 C209.818,185.785 210.486,186.192 211.341,185.918 L214.52,184.888 L216.451,190.856 L213.272,191.884 C212.422,192.161 212.117,192.885 212.117,193.472 C212.116,194.059 212.419,194.785 213.269,195.061 L216.446,196.097 L215.497,199.009"/>
    <path fill="#475059" d="M206.293,196.085 L204.391,195.466 C205.498,192.071 203.637,188.409 200.241,187.301 C196.854,186.193 193.185,188.055 192.077,191.451 L190.175,190.832 C191.625,186.387 196.423,183.955 200.861,185.399 C205.306,186.849 207.741,191.643 206.293,196.085"/>
    <path fill="#475059" d="M198.266,201.871 C197.381,201.871 196.493,201.73 195.629,201.449 C191.186,200 188.75,195.206 190.197,190.762 L192.1,191.381 C190.993,194.777 192.854,198.44 196.249,199.546 C199.641,200.653 203.307,198.793 204.413,195.398 L206.315,196.017 C205.613,198.17 204.115,199.92 202.097,200.947 C200.889,201.56 199.582,201.871 198.266,201.871"/>
    <path fill="#475059" d="M201.374,211.526 L195.102,211.519 L195.104,208.178 C195.105,207.283 194.51,206.77 193.952,206.588 C193.396,206.409 192.611,206.47 192.085,207.193 L190.118,209.894 L185.047,206.202 L187.015,203.5 C187.541,202.778 187.361,202.013 187.017,201.538 C186.673,201.063 186.004,200.655 185.149,200.929 L181.971,201.958 L180.039,195.991 L183.219,194.962 C184.069,194.687 184.373,193.961 184.374,193.375 C184.374,192.789 184.072,192.063 183.222,191.786 L180.045,190.75 L181.111,187.478 L183.014,188.099 L182.566,189.468 L183.841,189.883 C185.381,190.386 186.375,191.757 186.374,193.377 C186.372,194.997 185.375,196.366 183.834,196.865 L182.559,197.278 L183.258,199.44 L184.534,199.027 C186.075,198.528 187.686,199.052 188.636,200.364 C189.587,201.675 189.585,203.369 188.632,204.678 L187.842,205.762 L189.679,207.099 L190.468,206.015 C191.422,204.705 193.035,204.183 194.572,204.687 C196.112,205.189 197.106,206.56 197.104,208.18 L197.104,209.521 L199.376,209.524 L199.377,208.182 C199.379,206.562 200.376,205.194 201.916,204.695 C203.458,204.196 205.068,204.72 206.019,206.032 L206.806,207.118 L208.646,205.785 L207.858,204.699 C206.907,203.387 206.909,201.694 207.862,200.384 C208.816,199.074 210.429,198.556 211.967,199.055 L213.242,199.471 L213.736,197.955 L215.639,198.576 L214.523,201.993 L211.348,200.958 C210.493,200.681 209.825,201.088 209.479,201.562 C209.134,202.036 208.952,202.8 209.478,203.525 L211.438,206.23 L206.36,209.911 L204.399,207.206 C203.875,206.481 203.092,206.418 202.532,206.597 C201.975,206.778 201.378,207.29 201.377,208.184 L201.374,211.526"/>
    <path fill="#475059" d="M198.191,190.524 C196.537,190.524 195.191,191.87 195.191,193.524 C195.191,195.178 196.537,196.524 198.191,196.524 C199.846,196.524 201.191,195.178 201.191,193.524 C201.191,191.87 199.846,190.524 198.191,190.524 Z M198.191,198.524 C195.435,198.524 193.191,196.281 193.191,193.524 C193.191,190.767 195.435,188.524 198.191,188.524 C200.948,188.524 203.191,190.767 203.191,193.524 C203.191,196.281 200.948,198.524 198.191,198.524 Z"/>
  </g>
</svg>
