<svg xmlns="http://www.w3.org/2000/svg" width="250" height="250" viewBox="0 0 250 250">
  <g fill="none" fill-rule="evenodd">
    <polyline fill="#48515A" points="201.097 218.041 40.081 218.041 40.081 131.028 42.082 131.028 42.082 216.041 199.097 216.041 199.097 132.028 201.097 132.028 201.097 218.041"/>
    <polyline fill="#FFD15D" points="77.56 220.041 65.56 220.041 66.06 131.055 78.06 131.055 77.56 220.041"/>
    <path fill="#FFD15D" d="M66.063,219.541 L77.063,219.541 L77.557,131.556 L66.557,131.556 L66.063,219.541 Z M78.057,220.541 L65.057,220.541 L65.563,130.556 L78.563,130.556 L78.057,220.541 Z"/>
    <polyline fill="#48515A" points="82.56 181.54 60.56 181.54 60.56 167.54 65.56 167.54 65.56 169.54 62.56 169.54 62.56 179.54 80.56 179.54 80.56 169.54 77.56 169.54 77.56 167.54 82.56 167.54 82.56 181.54"/>
    <polygon fill="#48515A" points="70.56 180.54 72.56 180.54 72.56 174.54 70.56 174.54"/>
    <polyline fill="#48515A" points="78.56 221.041 64.56 221.041 64.56 130.504 66.56 130.504 66.56 219.041 76.56 219.041 76.56 130.504 78.56 130.504 78.56 221.041"/>
    <polygon fill="#48515A" points="61.56 190.535 81.56 190.535 81.56 188.535 61.56 188.535"/>
    <polygon fill="#FFD15D" points="164.119 220.543 176.119 220.543 176.119 131.055 164.119 131.055"/>
    <path fill="#FFD15D" d="M164.619,220.043 L175.619,220.043 L175.619,131.556 L164.619,131.556 L164.619,220.043 Z M163.619,221.043 L176.619,221.043 L176.619,130.556 L163.619,130.556 L163.619,221.043 Z"/>
    <polyline fill="#48515A" points="180.619 181.54 158.619 181.54 158.619 167.54 163.619 167.54 163.619 169.54 160.619 169.54 160.619 179.54 178.619 179.54 178.619 169.54 175.619 169.54 175.619 167.54 180.619 167.54 180.619 181.54"/>
    <polygon fill="#48515A" points="168.619 180.54 170.619 180.54 170.619 174.54 168.619 174.54"/>
    <polyline fill="#48515A" points="176.619 221.043 162.619 221.043 162.619 130.504 164.619 130.504 164.619 219.043 174.619 219.043 174.619 130.504 176.619 130.504 176.619 221.043"/>
    <polygon fill="#48515A" points="159.619 190.535 179.619 190.535 179.619 188.535 159.619 188.535"/>
    <polygon fill="#DEDEDD" points="190.58 111.023 197.596 111.023 197.596 109.023 190.58 109.023"/>
    <path fill="#48515A" d="M87.58,213.042 C87.58,212.481 88.029,212.042 88.58,212.042 C89.129,212.042 89.58,212.481 89.58,213.042 C89.58,213.592 89.129,214.042 88.58,214.042 C88.029,214.042 87.58,213.592 87.58,213.042 Z M91.58,213.042 C91.58,212.481 92.029,212.042 92.58,212.042 C93.129,212.042 93.58,212.481 93.58,213.042 C93.58,213.592 93.129,214.042 92.58,214.042 C92.029,214.042 91.58,213.592 91.58,213.042 Z M95.58,213.042 C95.58,212.481 96.029,212.042 96.58,212.042 C97.129,212.042 97.58,212.481 97.58,213.042 C97.58,213.592 97.129,214.042 96.58,214.042 C96.029,214.042 95.58,213.592 95.58,213.042 Z M99.58,213.042 C99.58,212.481 100.029,212.042 100.58,212.042 C101.129,212.042 101.58,212.481 101.58,213.042 C101.58,213.592 101.129,214.042 100.58,214.042 C100.029,214.042 99.58,213.592 99.58,213.042 Z M103.58,213.042 C103.58,212.481 104.029,212.042 104.58,212.042 C105.129,212.042 105.58,212.481 105.58,213.042 C105.58,213.592 105.129,214.042 104.58,214.042 C104.029,214.042 103.58,213.592 103.58,213.042 Z M107.58,213.042 C107.58,212.481 108.029,212.042 108.58,212.042 C109.129,212.042 109.58,212.481 109.58,213.042 C109.58,213.592 109.129,214.042 108.58,214.042 C108.029,214.042 107.58,213.592 107.58,213.042 Z M111.58,213.042 C111.58,212.481 112.029,212.042 112.58,212.042 C113.129,212.042 113.58,212.481 113.58,213.042 C113.58,213.592 113.129,214.042 112.58,214.042 C112.029,214.042 111.58,213.592 111.58,213.042 Z M115.58,213.042 C115.58,212.481 116.029,212.042 116.58,212.042 C117.129,212.042 117.58,212.481 117.58,213.042 C117.58,213.592 117.129,214.042 116.58,214.042 C116.029,214.042 115.58,213.592 115.58,213.042 Z M119.58,213.042 C119.58,212.481 120.029,212.042 120.58,212.042 C121.129,212.042 121.58,212.481 121.58,213.042 C121.58,213.592 121.129,214.042 120.58,214.042 C120.029,214.042 119.58,213.592 119.58,213.042 Z M123.58,213.042 C123.58,212.481 124.029,212.042 124.58,212.042 C125.129,212.042 125.58,212.481 125.58,213.042 C125.58,213.592 125.129,214.042 124.58,214.042 C124.029,214.042 123.58,213.592 123.58,213.042 Z M127.58,213.042 C127.58,212.481 128.029,212.042 128.58,212.042 C129.129,212.042 129.58,212.481 129.58,213.042 C129.58,213.592 129.129,214.042 128.58,214.042 C128.029,214.042 127.58,213.592 127.58,213.042 Z M131.58,213.042 C131.58,212.481 132.029,212.042 132.58,212.042 C133.129,212.042 133.58,212.481 133.58,213.042 C133.58,213.592 133.129,214.042 132.58,214.042 C132.029,214.042 131.58,213.592 131.58,213.042 Z M135.58,213.042 C135.58,212.481 136.029,212.042 136.58,212.042 C137.129,212.042 137.58,212.481 137.58,213.042 C137.58,213.592 137.129,214.042 136.58,214.042 C136.029,214.042 135.58,213.592 135.58,213.042 Z M139.58,213.042 C139.58,212.481 140.029,212.042 140.58,212.042 C141.129,212.042 141.58,212.481 141.58,213.042 C141.58,213.592 141.129,214.042 140.58,214.042 C140.029,214.042 139.58,213.592 139.58,213.042 Z M143.58,213.042 C143.58,212.481 144.029,212.042 144.58,212.042 C145.129,212.042 145.58,212.481 145.58,213.042 C145.58,213.592 145.129,214.042 144.58,214.042 C144.029,214.042 143.58,213.592 143.58,213.042 Z M147.58,213.042 C147.58,212.481 148.029,212.042 148.58,212.042 C149.129,212.042 149.58,212.481 149.58,213.042 C149.58,213.592 149.129,214.042 148.58,214.042 C148.029,214.042 147.58,213.592 147.58,213.042 Z"/>
    <polygon fill="#DEDEDD" points="44.092 111.023 51.076 111.023 51.076 109.023 44.092 109.023"/>
    <polyline fill="#48515A" points="201.095 106.025 199.095 106.025 199.095 49.945 172.916 31.043 67.078 30.957 42.083 49.93 42.083 106.025 40.084 106.025 40.084 48.938 66.406 28.957 66.743 28.957 173.562 29.043 201.095 48.922 201.095 106.025"/>
    <polyline fill="#48515A" points="201.097 132.028 40.084 132.028 40.084 105.025 47.591 105.025 47.591 107.025 42.083 107.025 42.083 130.028 199.097 130.028 199.097 107.025 193.095 107.025 193.095 105.025 201.097 105.025 201.097 132.028"/>
    <polygon fill="#DEDEDD" points="43.591 119.028 197.095 119.028 197.095 117.028 43.591 117.028"/>
    <polygon fill="#DEDEDD" points="43.591 123.03 197.095 123.03 197.095 121.03 43.591 121.03"/>
    <polygon fill="#DEDEDD" points="43.591 127.033 197.095 127.033 197.095 125.033 43.591 125.033"/>
    <polygon fill="#DEDEDD" points="43.591 115.025 197.095 115.025 197.095 113.025 43.591 113.025"/>
    <polygon fill="#5FE0ED" points="58.575 113.016 174.078 113.016 174.078 87.028 58.575 87.028"/>
    <polyline fill="#475059" points="183.079 113.017 181.079 113.017 181.079 80.028 51.575 80.028 51.575 113.017 49.575 113.017 49.575 78.028 183.079 78.028 183.079 113.017"/>
    <polyline fill="#475059" points="187.079 113.017 185.079 113.017 185.079 76.028 55.575 76.028 55.575 79.028 53.575 79.028 53.575 74.028 187.079 74.028 187.079 113.017"/>
    <polyline fill="#475059" points="191.079 113.017 189.079 113.017 189.079 72.028 59.575 72.028 59.575 75.028 57.575 75.028 57.575 70.028 191.079 70.028 191.079 113.017"/>
    <path fill="#475059" d="M174.086,101.069 L149.642,101.063 C145.224,101.063 141.63,97.467 141.631,93.049 C141.631,90.908 142.464,88.896 143.978,87.383 C145.491,85.87 147.501,85.037 149.641,85.037 C149.642,85.037 149.642,85.037 149.643,85.037 L173.085,85.043 C176.398,85.044 179.093,87.74 179.093,91.054 C179.093,92.659 178.468,94.168 177.333,95.303 C176.199,96.436 174.691,97.061 173.086,97.061 C173.085,97.061 173.084,97.061 173.084,97.061 L149.642,97.056 C147.434,97.056 145.637,95.259 145.637,93.05 C145.637,91.979 146.054,90.974 146.81,90.217 C147.567,89.461 148.572,89.045 149.641,89.045 C149.642,89.045 149.643,89.045 149.644,89.045 L174.086,89.051 L174.086,91.051 L149.643,91.045 C149.642,91.045 149.642,91.045 149.641,91.045 C149.106,91.045 148.603,91.253 148.224,91.632 C147.846,92.011 147.637,92.514 147.637,93.05 C147.637,94.156 148.537,95.056 149.642,95.056 L173.084,95.061 C173.085,95.061 173.085,95.061 173.086,95.061 C174.157,95.061 175.163,94.645 175.919,93.889 C176.676,93.132 177.093,92.125 177.093,91.054 C177.093,88.843 175.295,87.044 173.085,87.043 L149.643,87.037 C149.642,87.037 149.642,87.037 149.641,87.037 C148.036,87.037 146.527,87.662 145.392,88.797 C144.256,89.933 143.631,91.442 143.631,93.049 C143.63,96.364 146.327,99.063 149.642,99.063 L174.086,99.069 L174.086,101.069"/>
    <polygon fill="#48515A" points="74.554 48.002 76.554 48.002 76.554 44.002 74.554 44.002"/>
    <polygon fill="#48515A" points="74.554 58.002 76.554 58.002 76.554 54.002 74.554 54.002"/>
    <polygon fill="#48515A" points="78.554 52.002 82.554 52.002 82.554 50.002 78.554 50.002"/>
    <polygon fill="#48515A" points="68.471 52.002 72.471 52.002 72.471 50.002 68.471 50.002"/>
    <path fill="#FFD15D" d="M209.634,140.039 C209.634,140.867 208.963,141.538 208.135,141.538 C207.307,141.538 206.636,140.867 206.636,140.039 C206.636,139.211 207.307,138.54 208.135,138.54 C208.963,138.54 209.634,139.211 209.634,140.039"/>
    <path fill="#FFD15D" d="M208.135 139.04C207.583 139.04 207.135 139.488 207.135 140.039 207.135 140.59 207.583 141.038 208.135 141.038 208.686 141.038 209.134 140.59 209.134 140.039 209.134 139.488 208.686 139.04 208.135 139.04zM208.135 142.038C207.033 142.038 206.135 141.142 206.135 140.039 206.135 138.937 207.033 138.04 208.135 138.04 209.238 138.04 210.134 138.937 210.134 140.039 210.134 141.142 209.238 142.038 208.135 142.038zM33.519 120.543C33.519 121.37 32.848 122.04 32.021 122.04 31.194 122.04 30.524 121.37 30.524 120.543 30.524 119.716 31.194 119.046 32.021 119.046 32.848 119.046 33.519 119.716 33.519 120.543"/>
    <path fill="#FFD15D" d="M32.021 119.546C31.471 119.546 31.024 119.993 31.024 120.543 31.024 121.093 31.471 121.54 32.021 121.54 32.572 121.54 33.019 121.093 33.019 120.543 33.019 119.993 32.572 119.546 32.021 119.546zM32.021 122.54C30.919 122.54 30.024 121.645 30.024 120.543 30.024 119.441 30.919 118.546 32.021 118.546 33.123 118.546 34.019 119.441 34.019 120.543 34.019 121.645 33.123 122.54 32.021 122.54zM51.076 180.834C51.076 181.798 50.295 182.58 49.33 182.58 48.366 182.58 47.584 181.798 47.584 180.834 47.584 179.87 48.366 179.088 49.33 179.088 50.295 179.088 51.076 179.87 51.076 180.834"/>
    <path fill="#FFD15D" d="M49.331,179.588 C48.643,179.588 48.084,180.146 48.084,180.834 C48.084,181.521 48.643,182.08 49.331,182.08 C50.018,182.08 50.577,181.521 50.577,180.834 C50.577,180.146 50.018,179.588 49.331,179.588 Z M49.331,183.08 C48.092,183.08 47.085,182.072 47.085,180.834 C47.085,179.596 48.092,178.588 49.331,178.588 C50.569,178.588 51.577,179.596 51.577,180.834 C51.577,182.072 50.569,183.08 49.331,183.08 Z"/>
    <path fill="#475059" d="M90.588,58.022 C88.934,58.022 87.588,59.352 87.588,60.986 C87.588,62.669 88.934,64.022 90.588,64.022 L208.695,64.022 L215.201,61.022 L208.694,58.022 L90.588,58.022 Z M209.134,66.022 L90.588,66.022 C87.831,66.022 85.588,63.771 85.588,61.005 C85.588,58.249 87.831,56.022 90.588,56.022 L209.133,56.022 L219.976,61.022 L209.134,66.022 Z"/>
    <polygon fill="#475059" points="96.636 65.022 98.636 65.022 98.636 57.022 96.636 57.022"/>
    <polygon fill="#475059" points="97.636 62.022 205.588 62.022 205.588 60.022 97.636 60.022"/>
    <polygon fill="#48515A" points="187.622 197.091 189.622 197.091 189.622 193.091 187.622 193.091"/>
    <polygon fill="#48515A" points="187.622 207.091 189.622 207.091 189.622 203.091 187.622 203.091"/>
    <polygon fill="#48515A" points="191.622 201.091 195.622 201.091 195.622 199.091 191.622 199.091"/>
    <polygon fill="#48515A" points="181.622 201.091 185.622 201.091 185.622 199.091 181.622 199.091"/>
    <path fill="#FFD15D" d="M212.636,120.027 C212.636,120.855 211.965,121.526 211.137,121.526 C210.309,121.526 209.637,120.855 209.637,120.027 C209.637,119.199 210.309,118.528 211.137,118.528 C211.965,118.528 212.636,119.199 212.636,120.027"/>
    <path fill="#FFD15D" d="M211.137,119.027 C210.585,119.027 210.137,119.476 210.137,120.027 C210.137,120.578 210.585,121.026 211.137,121.026 C211.688,121.026 212.136,120.578 212.136,120.027 C212.136,119.476 211.688,119.027 211.137,119.027 Z M211.137,122.026 C210.035,122.026 209.137,121.13 209.137,120.027 C209.137,118.925 210.035,118.027 211.137,118.027 C212.24,118.027 213.136,118.925 213.136,120.027 C213.136,121.13 212.24,122.026 211.137,122.026 Z"/>
  </g>
</svg>
