<svg xmlns="http://www.w3.org/2000/svg" width="250" height="250" viewBox="0 0 250 250">
  <g fill="none" fill-rule="evenodd">
    <path fill="#DFE0E0" d="M125.003,53.002 C91.919,53.002 65.003,79.918 65.003,113.002 C65.003,146.086 91.919,173.002 125.003,173.002 C158.086,173.002 185.003,146.086 185.003,113.002 C185.003,79.918 158.086,53.002 125.003,53.002 Z M125.003,185.002 C85.301,185.002 53.003,152.703 53.003,113.002 C53.003,73.301 85.301,41.002 125.003,41.002 C164.704,41.002 197.003,73.301 197.003,113.002 C197.003,152.703 164.704,185.002 125.003,185.002 Z"/>
    <path fill="#DFE0E0" d="M125.003,173.002 C91.919,173.002 65.003,146.086 65.003,113.002 L53.003,113.002 C53.003,152.703 85.301,185.002 125.003,185.002 C164.704,185.002 197.003,152.703 197.003,113.002 L185.003,113.002 C185.003,146.086 158.086,173.002 125.003,173.002"/>
    <path fill="#48515A" d="M105.503,130.502 C105.247,130.502 104.991,130.405 104.796,130.209 L95.003,120.416 L85.21,130.209 C84.819,130.6 84.186,130.6 83.796,130.209 C83.405,129.819 83.405,129.186 83.796,128.795 L94.296,118.295 C94.686,117.905 95.319,117.905 95.71,118.295 L105.503,128.088 L145.296,88.295 C145.686,87.904 146.319,87.904 146.71,88.295 L158.003,99.588 L214.296,43.295 C214.686,42.904 215.319,42.904 215.71,43.295 C216.1,43.686 216.1,44.319 215.71,44.709 L158.71,101.709 C158.319,102.1 157.686,102.1 157.296,101.709 L146.003,90.416 L106.21,130.209 C106.014,130.405 105.759,130.502 105.503,130.502"/>
    <path fill="#48515A" d="M215.003 57.002C214.45 57.002 214.003 56.555 214.003 56.002L214.003 45.002 203.003 45.002C202.45 45.002 202.003 44.555 202.003 44.002 202.003 43.449 202.45 43.002 203.003 43.002L215.003 43.002C215.555 43.002 216.003 43.449 216.003 44.002L216.003 56.002C216.003 56.555 215.555 57.002 215.003 57.002M195.892 118.005C195.873 118.005 195.854 118.004 195.835 118.003 195.284 117.973 194.862 117.5 194.893 116.948 195.31 109.544 194.538 102.121 192.6 94.889 190.984 88.855 188.585 83.084 185.471 77.738 185.193 77.261 185.355 76.649 185.832 76.37 186.309 76.094 186.921 76.253 187.199 76.732 190.403 82.231 192.87 88.166 194.532 94.371 196.526 101.81 197.319 109.444 196.89 117.062 196.86 117.594 196.419 118.005 195.892 118.005M124.942 184.989C119.32 184.989 113.708 184.333 108.241 183.02L108.709 181.074C119.963 183.781 131.861 183.614 143.115 180.6L143.633 182.531C137.523 184.169 131.226 184.989 124.942 184.989M53.12 117.061C51.175 83.21 73.57 52.261 106.372 43.472 134.978 35.804 165.881 46.754 183.276 70.711L181.657 71.887C164.746 48.594 134.7 37.955 106.89 45.404 74.999 53.949 53.225 84.037 55.117 116.946L53.12 117.061"/>
    <path fill="#48515A" d="M131.961 184.207C124.225 184.207 116.34 182.054 108.707 177.807 108.225 177.538 108.051 176.929 108.32 176.447 108.589 175.965 109.197 175.79 109.68 176.059 120.391 182.02 131.594 183.686 142.076 180.878 142.613 180.734 143.158 181.051 143.301 181.585 143.444 182.118 143.128 182.667 142.594 182.81 139.11 183.743 135.551 184.207 131.961 184.207M75.201 134.86C74.788 134.86 74.402 134.602 74.258 134.19 73.454 131.896 72.726 129.536 72.094 127.178 61.821 88.84 76.732 51.414 105.333 43.75 105.865 43.606 106.415 43.923 106.558 44.457 106.701 44.991 106.385 45.539 105.851 45.682 78.315 53.061 64.039 89.387 74.026 126.66 74.645 128.971 75.358 131.281 76.145 133.53 76.328 134.05 76.053 134.621 75.532 134.803 75.423 134.842 75.311 134.86 75.201 134.86M59.033 100.502C58.591 100.502 58.187 100.208 58.068 99.761 57.925 99.228 58.241 98.679 58.775 98.536L65.008 96.866C65.542 96.72 66.089 97.039 66.232 97.574 66.375 98.107 66.059 98.656 65.525 98.798L59.292 100.468C59.205 100.491 59.118 100.502 59.033 100.502"/>
    <path fill="#48515A" d="M75.654 96.048C75.213 96.048 74.809 95.754 74.689 95.307 74.546 94.774 74.863 94.225 75.396 94.082L92.017 89.629C92.551 89.485 93.099 89.803 93.242 90.336 93.385 90.869 93.069 91.418 92.535 91.561L75.914 96.014C75.827 96.037 75.74 96.048 75.654 96.048M167.073 71.553C166.631 71.553 166.227 71.259 166.107 70.812 165.964 70.279 166.281 69.73 166.814 69.587L175.125 67.361C175.661 67.216 176.207 67.533 176.35 68.068 176.493 68.601 176.177 69.15 175.643 69.292L167.332 71.519C167.245 71.542 167.158 71.553 167.073 71.553M89.165 154.781C88.723 154.781 88.319 154.487 88.199 154.039 88.056 153.506 88.373 152.957 88.907 152.815L107.606 147.804C108.139 147.658 108.688 147.977 108.83 148.511 108.973 149.044 108.657 149.593 108.123 149.736L89.424 154.746C89.338 154.77 89.25 154.781 89.165 154.781M100.587 89.367C100.145 89.367 99.741 89.074 99.621 88.626 99.478 88.093 99.795 87.544 100.328 87.402L133.572 78.494C134.103 78.35 134.653 78.667 134.796 79.201 134.939 79.735 134.623 80.283 134.089 80.426L100.846 89.333C100.76 89.357 100.672 89.367 100.587 89.367M116.175 147.543C115.733 147.543 115.329 147.249 115.209 146.802 115.066 146.269 115.383 145.72 115.916 145.577L149.159 136.67C149.691 136.524 150.241 136.843 150.384 137.377 150.527 137.91 150.211 138.459 149.677 138.602L116.434 147.509C116.347 147.532 116.26 147.543 116.175 147.543"/>
    <path fill="#48515A" d="M102.936 122.99C102.5 122.99 102.099 122.703 101.974 122.263 101.705 121.31 101.441 120.35 101.182 119.384 90.735 80.396 93.015 47.052 106.372 43.472 117.101 40.601 131.653 58.171 142.6 87.197 142.795 87.714 142.534 88.291 142.018 88.486 141.501 88.679 140.924 88.42 140.729 87.903 130.33 60.328 116.414 42.856 106.89 45.404 95.025 48.583 93.296 82.225 103.114 118.866 103.37 119.824 103.632 120.775 103.899 121.718 104.049 122.25 103.74 122.803 103.209 122.952 103.118 122.979 103.026 122.99 102.936 122.99M154.319 150.84C153.772 150.84 153.325 150.4 153.319 149.852 153.174 137.058 150.951 122.287 146.891 107.137 145.969 103.697 144.956 100.261 143.88 96.922 143.71 96.397 143.999 95.833 144.524 95.663 145.051 95.497 145.613 95.783 145.783 96.309 146.87 99.679 147.893 103.148 148.823 106.619 152.925 121.929 155.172 136.87 155.319 149.828 155.325 150.381 154.883 150.833 154.33 150.84 154.326 150.84 154.323 150.84 154.319 150.84M141.286 182.837C130.218 182.837 115.972 163.569 105.731 134.193 105.55 133.671 105.825 133.101 106.346 132.919 106.866 132.738 107.437 133.012 107.62 133.534 118.072 163.516 132.998 183.305 143.115 180.6 143.649 180.453 144.198 180.774 144.34 181.307 144.483 181.84 144.167 182.389 143.633 182.531 142.869 182.737 142.086 182.837 141.286 182.837M157.728 136.408C157.286 136.408 156.883 136.114 156.763 135.667 156.62 135.134 156.936 134.585 157.47 134.443L169.934 131.104C170.469 130.958 171.015 131.277 171.158 131.811 171.302 132.344 170.985 132.893 170.451 133.035L157.988 136.374C157.901 136.398 157.814 136.408 157.728 136.408M142.14 78.234C141.698 78.234 141.295 77.94 141.175 77.492 141.032 76.959 141.348 76.41 141.882 76.268L158.504 71.814C159.036 71.669 159.585 71.987 159.728 72.521 159.871 73.054 159.555 73.603 159.021 73.745L142.4 78.199C142.313 78.223 142.226 78.234 142.14 78.234"/>
    <path fill="#48515A" d="M142.14,78.234 C141.698,78.234 141.295,77.94 141.175,77.492 C141.032,76.959 141.348,76.41 141.882,76.268 L158.504,71.814 C159.036,71.669 159.585,71.987 159.728,72.521 C159.871,73.054 159.555,73.603 159.021,73.745 L142.4,78.199 C142.313,78.223 142.226,78.234 142.14,78.234"/>
    <path fill="#48515A" d="M169.495,85.679 C169.116,85.679 168.753,85.462 168.585,85.095 C162.153,71.05 152.386,59.365 141.085,52.191 C129.527,44.854 117.344,42.604 105.851,45.682 C105.316,45.826 104.769,45.509 104.626,44.975 C104.483,44.442 104.8,43.893 105.333,43.75 C129.727,37.21 156.486,53.873 170.404,84.263 C170.634,84.765 170.413,85.359 169.911,85.588 C169.776,85.65 169.635,85.679 169.495,85.679"/>
  </g>
</svg>
