<svg xmlns="http://www.w3.org/2000/svg" width="250" height="250" viewBox="0 0 250 250">
  <g fill="none" fill-rule="evenodd">
    <polygon fill="#FFD15D" points="49.976 208 197.002 208 197.002 177.668 49.976 177.668"/>
    <polygon fill="#DEDEDD" points="180.035 151.012 196.919 151.012 196.919 149.012 180.035 149.012"/>
    <polygon fill="#48515A" points="198.922 207.999 200.922 207.999 200.922 176.02 198.922 176.02"/>
    <polygon fill="#48515A" points="45.91 207.999 47.91 207.999 47.91 175.02 45.91 175.02"/>
    <polyline fill="#48515A" points="200.922 176.02 45.911 176.02 45.911 140.011 67.795 140.011 67.795 142.011 47.911 142.011 47.911 174.02 198.922 174.02 198.922 142.011 180.035 142.011 180.035 140.011 200.922 140.011 200.922 176.02"/>
    <polygon fill="#DEDEDD" points="49.42 163.019 196.919 163.019 196.919 161.019 49.42 161.019"/>
    <polygon fill="#DEDEDD" points="49.42 167.021 196.919 167.021 196.919 165.021 49.42 165.021"/>
    <polygon fill="#DEDEDD" points="49.42 171.024 196.919 171.024 196.919 169.024 49.42 169.024"/>
    <polygon fill="#DEDEDD" points="49.42 159.016 196.919 159.016 196.919 157.016 49.42 157.016"/>
    <polygon fill="#DEDEDD" points="49.42 151.012 67.795 151.012 67.795 149.012 49.42 149.012"/>
    <path fill="#48515A" d="M190.043,53.994 L188.043,53.994 L188.043,50 C188.043,46.692 185.352,44 182.043,44 L182.043,42 C186.454,42 190.043,45.589 190.043,50 L190.043,53.994"/>
    <polygon fill="#48515A" points="91.426 61.994 196.043 61.994 196.043 59.994 91.426 59.994"/>
    <polygon fill="#48515A" points="77.425 44 182.043 44 182.043 42 77.425 42"/>
    <path fill="#FFD15D" d="M186.043,50 L186.043,50.995 L95.425,50.995 L95.425,53.995 C95.425,56.2 93.631,57.995 91.425,57.995 C89.22,57.995 87.425,56.2 87.425,53.995 L87.425,50 C87.425,48.579 87.127,47.226 86.59,46 L182.043,46.001 C184.249,46.001 186.043,47.795 186.043,50"/>
    <path fill="#48515A" d="M177.425,156.993 L175.425,156.991 L175.544,59.994 L196.043,59.994 C199.011,59.994 201.482,57.828 201.96,54.995 L99.362,54.995 C98.869,58.935 95.498,61.994 91.426,61.994 C87.015,61.994 83.426,58.406 83.425,53.994 L83.425,50 C83.425,46.692 80.733,44 77.425,44 C74.116,44 71.425,46.692 71.425,50 L71.425,52.996 L71.477,156.991 L69.477,156.993 L69.425,50 C69.425,45.589 73.014,42 77.425,42 C81.836,42 85.425,45.589 85.425,50 L85.425,53.994 C85.426,57.303 88.117,59.994 91.426,59.994 C94.733,59.994 97.425,57.303 97.425,53.994 L97.425,52.995 L204.043,52.995 L204.043,53.994 C204.043,58.406 200.454,61.994 196.043,61.994 L177.542,61.994 L177.425,156.993"/>
    <polygon fill="#DEDEDD" points="180.035 155.014 196.919 155.014 196.919 153.014 180.035 153.014"/>
    <polygon fill="#DEDEDD" points="49.42 155.014 67.795 155.014 67.795 153.014 49.42 153.014"/>
    <polygon fill="#DEDEDD" points="180.035 147.009 196.919 147.009 196.919 145.009 180.035 145.009"/>
    <polygon fill="#DEDEDD" points="49.42 147.009 67.795 147.009 67.795 145.009 49.42 145.009"/>
    <path fill="#475059" d="M58.44,92.024 C55.128,92.024 52.433,89.328 52.433,86.015 C52.432,84.41 53.057,82.901 54.191,81.766 C55.326,80.63 56.835,80.005 58.44,80.005 L69.875,79.999 L69.877,81.999 L58.441,82.005 C57.369,82.005 56.363,82.422 55.605,83.18 C54.849,83.937 54.433,84.944 54.433,86.015 C54.433,88.226 56.23,90.024 58.44,90.024 L81.883,90.018 C82.988,90.018 83.888,89.118 83.888,88.011 C83.888,86.906 82.988,86.006 81.883,86.006 L57.438,86.012 L57.438,84.012 L81.883,84.006 C84.091,84.006 85.888,85.803 85.888,88.011 C85.888,90.22 84.091,92.018 81.883,92.018 L58.44,92.024"/>
    <polyline fill="#475059" points="101.913 104.004 70.913 104.004 70.913 102.004 99.913 102.004 99.913 74.004 70.913 74.004 70.913 72.004 101.913 72.004 101.913 104.004"/>
    <path fill="#48515A" d="M92.973,200.542 L156.98,200.542 L156.98,187.539 L154.98,187.539 L154.98,198.542 L94.973,198.542 L94.973,187.539 L92.973,187.539 L92.973,200.542 Z M158.98,202.542 L90.973,202.542 L90.973,185.539 L96.973,185.539 L96.973,196.542 L152.98,196.542 L152.98,185.539 L158.98,185.539 L158.98,202.542 Z"/>
    <path fill="#DFE0E0" d="M119.927,99.057 L119.927,101.298 L129.722,101.298 L129.766,97.959 L129.766,95.768 C129.952,95.583 130.143,95.387 130.314,95.188 C130.256,95.239 130.2,95.29 130.152,95.342 C129.468,96.077 128.431,96.848 127.729,97.447 C127.174,97.922 126.472,98.184 125.742,98.192 L123.631,98.192 C122.901,98.184 122.199,97.922 121.644,97.447 C120.974,96.875 119.999,96.146 119.317,95.442 C119.296,95.421 119.273,95.4 119.25,95.378 C119.455,95.596 119.689,95.817 119.938,96.037 C119.933,96.039 119.927,96.042 119.927,96.048 L119.927,99.057"/>
    <polygon fill="#48515A" points="109.031 123.572 111.031 123.572 111.031 118.319 109.031 118.319"/>
    <path fill="#48515A" d="M147.977,123.572 L145.977,123.572 L145.977,111.037 C145.977,109.882 145.302,108.817 144.258,108.324 L128.733,100.99 L128.733,95.343 L129.03,95.049 C129.505,94.58 129.782,94.247 129.853,94.058 L131.991,89.688 L134.143,88.612 L134.562,86.531 L134.068,86.475 L132.879,86.475 L133.083,85.303 C133.254,84.323 133.341,83.445 133.341,82.694 L133.341,82.328 C133.349,81.077 133.093,79.897 132.6,78.835 C132.549,78.724 132.501,78.622 132.452,78.522 C131.893,77.393 131.068,76.379 130.071,75.593 C128.43,74.298 126.373,73.664 124.264,73.771 C119.74,74.03 116.197,77.91 116.197,82.605 C116.197,83.458 116.272,84.344 116.42,85.326 L116.592,86.475 L115.036,86.475 C115.008,86.475 114.982,86.488 114.965,86.508 L115.569,88.623 L117.47,89.721 L119.491,93.994 C119.713,94.58 120.898,95.544 121.606,96.12 C121.853,96.321 122.087,96.511 122.293,96.687 C122.668,97.007 123.147,97.187 123.643,97.192 L125.747,97.192 L125.747,99.192 L123.632,99.192 C122.659,99.181 121.727,98.832 120.995,98.208 C120.799,98.041 120.577,97.861 120.345,97.671 C119.26,96.789 118.029,95.788 117.65,94.772 L115.929,91.141 L113.868,89.952 L112.942,86.569 C112.942,85.669 113.512,84.901 114.31,84.605 C114.235,83.917 114.197,83.278 114.197,82.694 C114.197,76.851 118.568,72.093 124.149,71.775 C126.73,71.629 129.282,72.423 131.31,74.023 C132.538,74.991 133.553,76.241 134.245,77.637 C134.306,77.759 134.363,77.88 134.418,78.002 C135.03,79.322 135.351,80.797 135.341,82.261 L135.341,82.694 C135.341,83.273 135.298,83.909 135.212,84.594 C135.505,84.698 135.771,84.869 135.995,85.099 C136.386,85.501 136.591,86.032 136.575,86.591 L136.556,86.759 L135.91,89.963 L133.489,91.174 L131.687,94.85 C131.531,95.275 131.155,95.733 130.733,96.172 L130.733,99.722 L145.112,106.515 C146.853,107.337 147.977,109.113 147.977,111.037 L147.977,123.572"/>
    <polygon fill="#48515A" points="139.431 123.572 141.431 123.572 141.431 118.319 139.431 118.319"/>
    <path fill="#48515A" d="M103.977 123.572L101.977 123.572 101.977 111.029C101.977 109.11 103.096 107.337 104.828 106.513L118.927 99.805 118.927 96.048 120.927 96.048 120.927 101.069 105.688 108.32C104.648 108.814 103.977 109.877 103.977 111.029L103.977 123.572M96.472 149.007L112.472 149.007 112.472 133.007 96.472 133.007 96.472 149.007zM94.472 151.007L114.472 151.007 114.472 131.007 94.472 131.007 94.472 151.007z"/>
    <polyline fill="#48515A" points="102.485 145.408 98.804 141.726 100.218 140.312 102.485 142.579 108.764 136.301 110.178 137.715 102.485 145.408"/>
    <polygon fill="#48515A" points="118.482 139.028 154.481 139.028 154.481 137.028 118.482 137.028"/>
    <polygon fill="#48515A" points="118.482 143.013 154.481 143.013 154.481 141.013 118.482 141.013"/>
    <polygon fill="#48515A" points="118.482 147.033 154.481 147.033 154.481 145.033 118.482 145.033"/>
    <polygon fill="#48515A" points="34.985 111.031 36.985 111.031 36.985 107.031 34.985 107.031"/>
    <polygon fill="#48515A" points="34.985 121.031 36.985 121.031 36.985 117.031 34.985 117.031"/>
    <polygon fill="#48515A" points="38.985 115.031 42.985 115.031 42.985 113.031 38.985 113.031"/>
    <polygon fill="#48515A" points="28.985 115.031 32.985 115.031 32.985 113.031 28.985 113.031"/>
    <polygon fill="#48515A" points="213.015 146.06 215.015 146.06 215.015 142.06 213.015 142.06"/>
    <polygon fill="#48515A" points="213.015 156.06 215.015 156.06 215.015 152.06 213.015 152.06"/>
    <polygon fill="#48515A" points="217.015 150.06 221.015 150.06 221.015 148.06 217.015 148.06"/>
    <polygon fill="#48515A" points="207.015 150.06 211.015 150.06 211.015 148.06 207.015 148.06"/>
    <polygon fill="#48515A" points="193.002 76.018 195.002 76.018 195.002 72.018 193.002 72.018"/>
    <polygon fill="#48515A" points="193.002 86.018 195.002 86.018 195.002 82.018 193.002 82.018"/>
    <polygon fill="#48515A" points="197.002 80.018 201.002 80.018 201.002 78.018 197.002 78.018"/>
    <polygon fill="#48515A" points="187.002 80.018 191.002 80.018 191.002 78.018 187.002 78.018"/>
    <path fill="#FFD15D" d="M204.136 99.731C204.136 100.596 203.435 101.298 202.569 101.298 201.704 101.298 201.002 100.596 201.002 99.731 201.002 98.866 201.704 98.164 202.569 98.164 203.435 98.164 204.136 98.866 204.136 99.731M35.985 151.56C35.985 152.941 34.866 154.06 33.485 154.06 32.104 154.06 30.985 152.941 30.985 151.56 30.985 150.18 32.104 149.06 33.485 149.06 34.866 149.06 35.985 150.18 35.985 151.56M51.11 57.435C51.11 58.595 50.17 59.535 49.01 59.535 47.85 59.535 46.91 58.595 46.91 57.435 46.91 56.275 47.85 55.335 49.01 55.335 50.17 55.335 51.11 56.275 51.11 57.435"/>
  </g>
</svg>
