<svg xmlns="http://www.w3.org/2000/svg" xmlns:xlink="http://www.w3.org/1999/xlink" width="250" height="250" viewBox="0 0 250 250">
  <defs>
    <path id="cc61-a"/>
    <path id="cc61-b"/>
  </defs>
  <g fill="none" fill-rule="evenodd">
    <path fill="#DDDED9" d="M150.17,136.49 L136.637,136.49 C130.081,136.49 124.766,133.244 124.766,126.688 L109.03,126.688 L109.03,127.08 C109.03,132.4 105.494,137.072 100.373,138.516 C98.58,138.976 96.835,137.621 96.835,135.77 L96.835,140.773 C96.835,142.624 98.58,143.979 100.373,143.519 C105.494,142.075 109.03,137.403 109.03,132.083 L109.03,131.691 L124.766,131.691 C124.766,138.247 130.081,141.493 136.637,141.493 L157.67,141.493 L150.17,136.49"/>
    <polyline fill="#DDDED9" points="55.003 142.923 61.754 145.673 85.753 107.673 79.003 102.923 55.003 142.923"/>
    <polyline fill="#DDDED9" points="193.003 142.089 186.835 146.173 162.837 108.173 169.586 103.423 193.003 142.089"/>
    <path fill="#FACD60" d="M156.582,77.404 C156.582,66.188 147.489,57.095 136.273,57.095 C125.057,57.095 115.964,66.187 115.964,77.403 C115.964,88.619 125.057,97.711 136.273,97.712 C147.489,97.712 156.582,88.62 156.582,77.404"/>
    <path fill="#434A4F" d="M99.658 139.604C98.814 139.604 97.998 139.327 97.318 138.8 96.376 138.068 95.835 136.964 95.835 135.77L95.835 123.67C95.835 122.989 96.198 122.349 96.783 121.999L111.933 112.953 154.814 112.953C155.366 112.953 155.814 113.4 155.814 113.953 155.814 114.505 155.366 114.953 154.814 114.953L112.485 114.953 97.808 123.717 97.835 135.77C97.835 136.342 98.093 136.869 98.544 137.22 98.996 137.569 99.571 137.687 100.125 137.547 104.77 136.237 108.03 131.931 108.03 127.08L108.03 125.688 125.766 125.688 125.766 126.688C125.766 133.178 131.382 135.491 136.637 135.491L149.864 135.491C150.416 135.491 150.864 135.938 150.864 136.491 150.864 137.043 150.416 137.491 149.864 137.491L136.637 137.491C129.223 137.491 124.296 133.678 123.806 127.688L110.016 127.688C109.754 133.179 105.975 137.975 100.645 139.478 100.315 139.563 99.984 139.604 99.658 139.604M80.799 150.673C80.42 150.673 80.058 150.457 79.89 150.09L77.642 145.196 73.986 143.127C73.506 142.855 73.337 142.245 73.609 141.764 73.881 141.284 74.49 141.114 74.972 141.387L79.19 143.774 81.707 149.255C81.937 149.757 81.718 150.351 81.216 150.581 81.081 150.643 80.938 150.673 80.799 150.673M126.682 181.895C125.302 181.895 123.948 181.505 122.754 180.748L119.756 178.983C119.28 178.702 119.122 178.089 119.402 177.614 119.682 177.137 120.296 176.979 120.771 177.259L123.796 179.041C125.036 179.826 126.472 180.075 127.87 179.762 129.269 179.449 130.461 178.609 131.229 177.399 132.812 174.899 132.068 171.578 129.569 169.994L125.745 167.571C125.278 167.275 125.14 166.657 125.436 166.191 125.731 165.723 126.35 165.587 126.815 165.881L130.639 168.305C134.07 170.479 135.092 175.038 132.918 178.469 131.865 180.131 130.228 181.284 128.308 181.714 127.768 181.835 127.223 181.895 126.682 181.895"/>
    <path fill="#434A4F" d="M139.772,175.112 C138.424,175.112 137.062,174.743 135.841,173.97 L125.745,167.571 C125.278,167.275 125.14,166.657 125.436,166.191 C125.731,165.723 126.35,165.587 126.815,165.881 L136.912,172.28 C139.409,173.864 142.731,173.119 144.316,170.62 C145.9,168.121 145.155,164.799 142.656,163.216 L132.56,156.817 C132.093,156.521 131.955,155.904 132.25,155.437 C132.546,154.97 133.164,154.833 133.63,155.128 L143.727,161.526 C145.389,162.579 146.541,164.217 146.971,166.137 C147.401,168.057 147.059,170.029 146.005,171.691 C144.604,173.901 142.213,175.112 139.772,175.112"/>
    <path fill="#434A4F" d="M152.857,168.338 C151.477,168.338 150.123,167.948 148.929,167.191 L132.56,156.817 C132.093,156.521 131.955,155.904 132.25,155.437 C132.546,154.97 133.164,154.833 133.63,155.128 L149.999,165.501 C151.21,166.268 152.648,166.518 154.045,166.205 C155.443,165.891 156.636,165.052 157.403,163.842 C158.17,162.631 158.42,161.194 158.107,159.796 C157.793,158.397 156.954,157.204 155.744,156.437 L139.375,146.064 C138.909,145.768 138.771,145.15 139.066,144.684 C139.362,144.217 139.979,144.08 140.446,144.374 L156.814,154.748 C158.476,155.801 159.628,157.438 160.059,159.358 C160.489,161.278 160.146,163.25 159.093,164.912 C158.04,166.574 156.402,167.726 154.482,168.157 C153.942,168.278 153.397,168.338 152.857,168.338"/>
    <path fill="#434A4F" d="M165.909 161.565C164.553 161.565 163.184 161.195 161.962 160.418L139.375 146.063C138.908 145.767 138.771 145.149 139.067 144.683 139.363 144.217 139.981 144.078 140.447 144.375L163.035 158.731C165.52 160.309 168.847 159.586 170.453 157.12 171.252 155.893 171.517 154.431 171.199 153.002 170.881 151.574 170.021 150.362 168.779 149.59L149.336 137.512C148.867 137.221 148.723 136.604 149.014 136.135 149.305 135.665 149.921 135.521 150.392 135.813L169.834 147.891C171.538 148.949 172.716 150.61 173.151 152.568 173.587 154.526 173.224 156.529 172.13 158.21 170.718 160.379 168.334 161.565 165.909 161.565M50.485 137.692L68.189 149.23 92.359 113.26 74.656 101.722 50.485 137.692zM68.749 151.982L47.694 138.26 74.095 98.97 95.15 112.691 68.749 151.982z"/>
    <path fill="#434A4F" d="M169 149.382C168.855 149.382 168.708 149.351 168.569 149.284 168.071 149.045 167.86 148.448 168.099 147.95L170.102 143.769 173.773 141.692C174.253 141.421 174.864 141.589 175.136 142.071 175.407 142.551 175.238 143.161 174.757 143.433L171.634 145.2 169.903 148.814C169.731 149.173 169.373 149.382 169 149.382M83.174 150.25C82.81 150.25 82.442 150.29 82.077 150.37 80.761 150.661 79.637 151.447 78.912 152.582 77.415 154.927 78.105 158.053 80.45 159.55L80.733 159.73C83.077 161.227 86.204 160.537 87.701 158.192 89.197 155.847 88.507 152.722 86.162 151.225L85.879 151.045C85.058 150.52 84.126 150.25 83.174 150.25zM83.436 162.521C82.14 162.521 80.829 162.164 79.657 161.416L79.658 161.416 79.374 161.236C76.1 159.145 75.136 154.781 77.227 151.506 78.239 149.92 79.808 148.823 81.646 148.417 83.482 148.012 85.368 148.346 86.955 149.359L87.238 149.539C90.512 151.629 91.476 155.994 89.386 159.268 88.044 161.371 85.764 162.521 83.436 162.521zM114.501 170.25C112.834 170.25 111.202 171.074 110.24 172.58 108.744 174.925 109.434 178.05 111.778 179.547L112.062 179.728C113.197 180.453 114.549 180.691 115.863 180.402 117.18 180.111 118.304 179.326 119.029 178.189 119.753 177.054 119.993 175.703 119.702 174.388 119.412 173.072 118.626 171.948 117.49 171.223L117.206 171.041C116.368 170.506 115.429 170.25 114.501 170.25zM114.762 182.523C113.434 182.523 112.131 182.145 110.985 181.413L110.703 181.233C107.428 179.142 106.464 174.778 108.555 171.504 110.644 168.23 115.007 167.265 118.283 169.356L118.567 169.537C120.152 170.549 121.25 172.119 121.655 173.956 122.061 175.794 121.727 177.679 120.714 179.265 119.702 180.852 118.132 181.949 116.295 182.354 115.785 182.467 115.271 182.523 114.762 182.523z"/>
    <path fill="#434A4F" d="M90.972,166.266 C93.395,167.813 96.623,167.098 98.171,164.676 L101.083,160.115 C102.629,157.692 101.916,154.463 99.493,152.916 C98.32,152.167 96.924,151.922 95.564,152.22 C94.205,152.52 93.044,153.331 92.294,154.505 L89.382,159.067 C87.836,161.489 88.549,164.719 90.972,166.266 Z M93.762,169.087 C92.403,169.087 91.069,168.701 89.896,167.952 C86.544,165.811 85.557,161.343 87.697,157.991 L90.608,153.429 C91.645,151.805 93.252,150.682 95.133,150.266 C97.013,149.85 98.945,150.193 100.569,151.23 C102.193,152.267 103.316,153.874 103.731,155.755 C104.147,157.637 103.805,159.567 102.768,161.191 L99.856,165.752 C98.82,167.376 97.213,168.499 95.331,168.915 C94.81,169.03 94.284,169.087 93.762,169.087 Z"/>
    <path fill="#434A4F" d="M108.993 155.928C108.616 155.928 108.236 155.969 107.859 156.053 106.5 156.352 105.338 157.164 104.589 158.338L99.856 165.752C98.31 168.176 99.023 171.405 101.446 172.952 102.62 173.701 104.016 173.948 105.375 173.648 106.734 173.348 107.896 172.536 108.645 171.362L113.377 163.948C114.126 162.774 114.374 161.379 114.074 160.019 113.773 158.66 112.962 157.498 111.788 156.749 110.94 156.207 109.976 155.928 108.993 155.928zM104.236 175.773C102.877 175.773 101.543 175.387 100.37 174.637 98.746 173.6 97.623 171.994 97.207 170.112 96.792 168.231 97.134 166.3 98.171 164.676L102.903 157.262C105.043 153.91 109.512 152.923 112.864 155.063 116.217 157.203 117.203 161.671 115.063 165.024L110.331 172.438C109.294 174.062 107.687 175.185 105.806 175.601 105.284 175.716 104.758 175.773 104.236 175.773zM112.209 114.953L93.754 114.953C93.202 114.953 92.754 114.505 92.754 113.953 92.754 113.4 93.202 112.953 93.754 112.953L112.209 112.953C112.761 112.953 113.209 113.4 113.209 113.953 113.209 114.505 112.761 114.953 112.209 114.953M156.216 113.268L180.385 149.239 197.263 138.496 173.094 102.526 156.216 113.268zM179.813 151.973L153.412 112.682 173.666 99.791 200.067 139.082 179.813 151.973z"/>
    <g transform="translate(131 147)"/>
    <path fill="#434A4F" d="M131.954,148.88 C131.824,148.88 131.694,148.86 131.574,148.81 C131.454,148.76 131.344,148.68 131.254,148.59 C131.204,148.55 131.164,148.49 131.124,148.44 C131.094,148.39 131.063,148.33 131.034,148.27 C131.004,148.21 130.994,148.14 130.974,148.08 C130.964,148.02 130.954,147.95 130.954,147.88 C130.954,147.82 130.964,147.75 130.974,147.69 C130.994,147.63 131.004,147.56 131.034,147.5 C131.063,147.44 131.094,147.38 131.124,147.33 C131.164,147.28 131.204,147.22 131.254,147.18 C131.344,147.09 131.454,147.01 131.574,146.96 C131.824,146.86 132.094,146.86 132.344,146.96 C132.464,147.01 132.574,147.09 132.664,147.18 C132.714,147.22 132.754,147.28 132.784,147.33 C132.824,147.38 132.854,147.44 132.884,147.5 C132.904,147.56 132.924,147.63 132.934,147.69 C132.954,147.75 132.954,147.82 132.954,147.88 C132.954,147.95 132.954,148.02 132.934,148.08 C132.924,148.14 132.904,148.21 132.884,148.27 C132.854,148.33 132.824,148.39 132.784,148.44 C132.754,148.49 132.714,148.55 132.664,148.59 C132.574,148.68 132.464,148.76 132.344,148.81 C132.214,148.86 132.083,148.88 131.954,148.88"/>
    <g transform="translate(125 158)"/>
    <path fill="#434A4F" d="M125.344,159.28 C125.214,159.28 125.083,159.25 124.964,159.2 C124.844,159.15 124.734,159.07 124.634,158.98 C124.454,158.8 124.344,158.54 124.344,158.28 C124.344,158.14 124.374,158.02 124.424,157.89 C124.474,157.77 124.543,157.66 124.634,157.57 C124.734,157.48 124.844,157.4 124.964,157.35 C125.333,157.2 125.773,157.29 126.054,157.57 C126.144,157.66 126.214,157.77 126.264,157.89 C126.313,158.01 126.344,158.14 126.344,158.28 C126.344,158.41 126.313,158.54 126.264,158.66 C126.214,158.78 126.144,158.89 126.054,158.98 C125.864,159.17 125.604,159.28 125.344,159.28"/>
    <polyline fill="#75C7D0" points="55.562 147.392 29.003 128.782 59.638 83.206 86.197 101.815 55.562 147.392"/>
    <polyline fill="#75C7D0" points="193.624 148.205 220.997 128.782 190.362 83.206 162.99 102.629 193.624 148.205"/>
    <path fill="#434A4F" d="M195.421 134.59C194.239 134.59 193.278 135.551 193.278 136.732 193.278 137.914 194.239 138.875 195.421 138.875 196.603 138.875 197.564 137.914 197.564 136.732 197.564 135.551 196.603 134.59 195.421 134.59zM195.421 140.875C193.137 140.875 191.278 139.017 191.278 136.732 191.278 134.448 193.137 132.59 195.421 132.59 197.706 132.59 199.564 134.448 199.564 136.732 199.564 139.017 197.706 140.875 195.421 140.875zM53.501 134.59C52.319 134.59 51.358 135.551 51.358 136.732 51.358 137.914 52.319 138.875 53.501 138.875 54.683 138.875 55.644 137.914 55.644 136.732 55.644 135.551 54.683 134.59 53.501 134.59zM53.501 140.875C51.217 140.875 49.358 139.017 49.358 136.732 49.358 134.448 51.217 132.59 53.501 132.59 55.786 132.59 57.644 134.448 57.644 136.732 57.644 139.017 55.786 140.875 53.501 140.875z"/>
    <path fill="#42494E" d="M133.906,74.633 L78.741,74.633 C77.086,74.633 75.741,75.979 75.741,77.633 C75.741,79.287 77.086,80.633 78.741,80.633 L133.906,80.633 L140.412,77.633 L133.906,74.633 Z M134.344,82.633 L78.741,82.633 C75.984,82.633 73.741,80.39 73.741,77.633 C73.741,74.876 75.984,72.633 78.741,72.633 L134.344,72.633 L145.188,77.633 L134.344,82.633 Z"/>
    <polygon fill="#42494E" points="84.351 81.633 86.351 81.633 86.351 74.035 84.351 74.035"/>
    <polygon fill="#42494E" points="85.351 78.604 133.356 78.604 133.356 76.604 85.351 76.604"/>
    <path fill="#42494E" d="M209.592,180.563 L207.69,179.943 L208.104,178.673 L206.535,178.162 C204.847,177.612 203.757,176.109 203.759,174.333 C203.761,172.557 204.854,171.057 206.542,170.511 L208.113,170.002 L207.239,167.304 L205.668,167.812 C203.977,168.36 202.214,167.784 201.172,166.347 C200.13,164.91 200.132,163.053 201.177,161.618 L202.149,160.283 L199.855,158.614 L198.884,159.948 C197.838,161.383 196.072,161.954 194.386,161.405 C192.698,160.855 191.608,159.352 191.61,157.577 L191.611,155.926 L188.775,155.924 L188.773,157.574 C188.771,159.349 187.679,160.85 185.99,161.397 C184.299,161.944 182.537,161.369 181.494,159.931 L180.525,158.595 L178.229,160.26 L179.198,161.596 C180.24,163.034 180.238,164.89 179.193,166.325 C178.148,167.761 176.381,168.332 174.694,167.782 L173.125,167.27 L172.711,168.54 L170.81,167.92 L171.843,164.749 L175.314,165.88 C176.343,166.215 177.158,165.722 177.576,165.148 C177.994,164.574 178.215,163.647 177.579,162.77 L175.436,159.814 L180.971,155.802 L183.113,158.757 C183.75,159.635 184.699,159.712 185.374,159.494 C186.05,159.275 186.772,158.656 186.773,157.572 L186.777,153.922 L193.613,153.928 L193.61,157.578 C193.609,158.662 194.33,159.284 195.006,159.504 C195.68,159.723 196.63,159.647 197.267,158.771 L199.416,155.82 L204.943,159.843 L202.794,162.795 C202.156,163.671 202.375,164.598 202.792,165.173 C203.209,165.748 204.022,166.243 205.052,165.91 L208.526,164.785 L210.631,171.289 L207.159,172.413 C206.128,172.747 205.76,173.625 205.759,174.335 C205.758,175.046 206.125,175.925 207.155,176.261 L210.625,177.392 L209.592,180.563"/>
    <path fill="#42494E" d="M199.172,177.253 L197.271,176.633 C197.889,174.738 197.731,172.715 196.828,170.938 C195.925,169.161 194.384,167.842 192.488,167.224 C188.578,165.949 184.355,168.094 183.079,172.007 L181.178,171.387 C181.961,168.983 183.634,167.029 185.887,165.884 C188.14,164.74 190.705,164.539 193.108,165.323 C198.069,166.94 200.79,172.292 199.172,177.253"/>
    <path fill="#42494E" d="M190.194,183.706 C189.224,183.706 188.238,183.556 187.267,183.239 C182.306,181.621 179.586,176.269 181.204,171.308 L183.105,171.929 C181.829,175.841 183.974,180.062 187.887,181.338 C191.798,182.614 196.021,180.469 197.296,176.556 L199.198,177.176 C197.896,181.166 194.18,183.706 190.194,183.706"/>
    <path fill="#42494E" d="M193.597,194.641 L186.761,194.634 L186.765,190.983 C186.766,189.9 186.045,189.278 185.37,189.058 C184.694,188.838 183.746,188.914 183.107,189.791 L180.958,192.742 L175.432,188.717 L177.581,185.766 C178.219,184.89 178,183.964 177.583,183.389 C177.167,182.814 176.352,182.318 175.323,182.651 L171.85,183.776 L169.744,177.272 L173.217,176.148 C174.248,175.814 174.616,174.936 174.617,174.225 C174.617,173.515 174.251,172.637 173.221,172.301 L169.75,171.169 L170.917,167.592 L172.818,168.212 L172.272,169.888 L173.841,170.399 C175.529,170.95 176.618,172.452 176.617,174.227 C176.615,176.003 175.522,177.503 173.833,178.05 L172.263,178.559 L173.137,181.257 L174.707,180.749 C176.396,180.203 178.161,180.777 179.203,182.215 C180.245,183.653 180.243,185.509 179.197,186.944 L178.226,188.278 L180.519,189.948 L181.49,188.614 C182.535,187.178 184.301,186.606 185.99,187.157 C187.677,187.707 188.767,189.21 188.765,190.985 L188.763,192.636 L191.599,192.639 L191.601,190.988 C191.603,189.213 192.695,187.712 194.385,187.166 C196.074,186.619 197.839,187.195 198.88,188.632 L199.849,189.968 L202.146,188.303 L201.177,186.967 C200.135,185.53 200.137,183.674 201.182,182.238 C202.227,180.803 203.991,180.229 205.681,180.782 L207.25,181.293 L207.851,179.452 L209.752,180.072 L208.531,183.815 L205.061,182.683 C204.032,182.347 203.217,182.841 202.799,183.415 C202.381,183.99 202.161,184.916 202.796,185.793 L204.938,188.748 L199.404,192.761 L197.261,189.806 C196.624,188.928 195.675,188.849 195,189.068 C194.325,189.287 193.602,189.907 193.601,190.99 L193.597,194.641"/>
    <path fill="#434A4F" d="M116.662,88.14 L116.862,88.489 C118.395,91.16 120.42,93.455 122.88,95.311 L124.181,96.231 C127.329,98.268 131.011,99.491 134.795,99.743 C135.13,99.766 135.431,99.953 135.597,100.244 C137.458,103.497 140.686,105.707 144.308,106.31 C143.766,105.785 143.306,105.185 142.936,104.518 C142.309,103.386 141.977,102.101 141.977,100.801 L141.977,99.811 C141.977,99.368 142.268,98.979 142.692,98.852 C147.793,97.333 152.19,94.045 155.073,89.593 C158.441,84.392 159.494,78.209 158.039,72.184 C156.585,66.163 152.817,61.139 147.428,58.037 C137.426,52.279 124.082,55.425 117.683,65.049 C113.076,71.979 112.685,80.826 116.662,88.14 Z M149.652,108.476 L146.315,108.476 C141.367,108.476 136.749,105.892 134.136,101.698 C130.198,101.349 126.379,100.036 123.06,97.887 L121.7,96.926 C118.999,94.888 116.796,92.391 115.127,89.484 L114.921,89.125 C114.917,89.119 114.914,89.113 114.91,89.106 C110.572,81.136 110.996,71.494 116.018,63.942 C123.107,53.279 137.342,49.925 148.426,56.304 C154.295,59.682 158.399,65.155 159.983,71.715 C161.568,78.279 160.421,85.013 156.752,90.68 C153.746,95.322 149.229,98.803 143.977,100.544 L143.977,100.801 C143.977,101.763 144.222,102.713 144.685,103.548 C145.064,104.232 145.572,104.822 146.193,105.3 C147.192,106.069 148.388,106.476 149.652,106.476 C150.205,106.476 150.652,106.924 150.652,107.476 C150.652,108.028 150.205,108.476 149.652,108.476 Z"/>
    <path fill="#75C7D0" d="M169.003 85.923C169.003 87.579 167.66 88.923 166.003 88.923 164.346 88.923 163.003 87.579 163.003 85.923 163.003 84.266 164.346 82.923 166.003 82.923 167.66 82.923 169.003 84.266 169.003 85.923M50.003 153.673C50.003 155.329 48.66 156.673 47.003 156.673 45.346 156.673 44.003 155.329 44.003 153.673 44.003 152.016 45.346 150.673 47.003 150.673 48.66 150.673 50.003 152.016 50.003 153.673"/>
    <path fill="#42494E" d="M71.425,165.754 C68.556,165.754 65.859,166.871 63.831,168.9 C61.802,170.929 60.685,173.626 60.685,176.495 C60.685,182.418 65.503,187.236 71.426,187.236 C77.349,187.236 82.167,182.418 82.167,176.495 C82.167,170.573 77.349,165.754 71.426,165.754 L71.425,165.754 Z M71.426,189.236 C64.4,189.236 58.685,183.52 58.685,176.495 C58.685,173.092 60.01,169.892 62.416,167.486 C64.823,165.079 68.022,163.754 71.425,163.754 C71.425,163.754 71.425,163.754 71.426,163.754 C78.451,163.754 84.167,169.47 84.167,176.495 C84.167,183.52 78.451,189.236 71.426,189.236 Z"/>
    <path fill="#42494E" d="M71.425,165.754 C68.54,165.754 66.102,170.673 66.102,176.495 C66.102,182.317 68.54,187.236 71.425,187.236 C74.31,187.236 76.747,182.317 76.747,176.495 C76.747,170.673 74.31,165.754 71.425,165.754 Z M71.425,189.236 C67.319,189.236 64.103,183.64 64.103,176.495 C64.103,169.35 67.319,163.754 71.425,163.754 C75.531,163.754 78.747,169.35 78.747,176.495 C78.747,183.64 75.531,189.236 71.425,189.236 Z"/>
    <polygon fill="#42494E" points="59.685 177.495 83.167 177.495 83.167 175.495 59.685 175.495"/>
    <path fill="#FACD60" d="M163.003,170.923 C163.003,172.027 162.108,172.923 161.003,172.923 C159.899,172.923 159.003,172.027 159.003,170.923 C159.003,169.818 159.899,168.923 161.003,168.923 C162.108,168.923 163.003,169.818 163.003,170.923"/>
    <path fill="#42494E" d="M112.253,100.458 C111.584,100.458 111.039,101.003 111.039,101.673 C111.039,102.342 111.584,102.887 112.253,102.887 C112.923,102.887 113.468,102.342 113.468,101.673 C113.468,101.003 112.923,100.458 112.253,100.458 Z M112.253,104.887 C110.481,104.887 109.039,103.445 109.039,101.673 C109.039,99.9 110.481,98.458 112.253,98.458 C114.026,98.458 115.468,99.9 115.468,101.673 C115.468,103.445 114.026,104.887 112.253,104.887 Z"/>
    <polygon fill="#434A4F" points="147.003 186.923 149.003 186.923 149.003 182.923 147.003 182.923"/>
    <polygon fill="#434A4F" points="147.003 196.923 149.003 196.923 149.003 192.923 147.003 192.923"/>
    <polygon fill="#434A4F" points="151.003 190.923 155.003 190.923 155.003 188.923 151.003 188.923"/>
    <polygon fill="#434A4F" points="141.003 190.923 145.003 190.923 145.003 188.923 141.003 188.923"/>
    <polygon fill="#434A4F" points="185.003 66.923 187.003 66.923 187.003 62.923 185.003 62.923"/>
    <polygon fill="#434A4F" points="185.003 76.923 187.003 76.923 187.003 72.923 185.003 72.923"/>
    <polygon fill="#434A4F" points="189.003 70.923 193.003 70.923 193.003 68.923 189.003 68.923"/>
    <polygon fill="#434A4F" points="179.003 70.923 183.003 70.923 183.003 68.923 179.003 68.923"/>
  </g>
</svg>
