<svg xmlns="http://www.w3.org/2000/svg" width="250" height="250" viewBox="0 0 250 250">
  <g fill="none" fill-rule="evenodd">
    <path fill="#DBDBD5" d="M124.704 61.785C113.989 61.785 103.41 64.544 94.104 69.764 89.85 72.427 89.731 72.48 89.495 72.585 82.496 75.682 76.268 79.932 70.982 85.218L63.073 93.126C62.598 93.601 62.515 94.528 62.909 94.963 63.21 95.296 63.562 95.372 63.804 95.378 63.968 95.388 64.251 95.356 64.536 95.172L69.262 90.488 73.495 94.74 69.004 99.231C68.843 99.392 68.675 99.545 68.501 99.689L62.413 105.722C61.892 106.243 61.792 107.077 62.2 107.571 62.525 107.964 62.931 108.04 63.145 108.05 63.359 108.056 63.77 108.025 64.122 107.672L75.275 96.52 79.518 100.762 65.695 114.585C65.229 115.051 65.126 116.005 65.495 116.442 65.763 116.76 66.163 116.953 66.592 116.971 66.806 116.983 67.211 116.95 67.518 116.643L70.016 114.145C70.031 114.129 70.047 114.113 70.063 114.097L81.458 102.703 85.7 106.946 74.283 118.363C73.763 118.904 73.654 119.73 74.039 120.257 74.343 120.675 74.73 120.788 75.001 120.809 75.223 120.827 75.652 120.801 76.019 120.434L94.401 102.052 98.643 106.295 93.557 111.381C93.234 111.704 93.186 112.082 93.186 112.278 93.186 112.475 93.234 112.852 93.558 113.176 93.882 113.501 94.277 113.547 94.459 113.549 94.656 113.548 95.035 113.499 95.358 113.173L99.388 109.105C103.106 105.505 103.844 102.879 103.844 99.796L103.853 99.561 104.524 91.045 104.522 90.987C104.197 81.5 109.33 79.309 111.727 78.805 112.046 78.714 120.52 76.837 122.534 76.384 122.421 75.768 122.377 75.137 122.427 74.499 122.594 72.37 123.688 70.422 125.429 69.155 125.768 68.908 126.124 68.695 126.493 68.515 126.304 67.803 126.22 67.058 126.252 66.304 126.328 64.513 127.046 62.817 128.242 61.519L124.704 61.785M170.963 123.117C170.986 123.106 171.009 123.092 171.033 123.08 171 122.842 170.952 122.535 170.888 122.189 170.913 122.58 170.938 122.899 170.963 123.117"/>
    <path fill="#DBDBD5" d="M171.002 123.384C171.096 123.792 171.102 123.594 171.033 123.08 171.009 123.092 170.986 123.106 170.963 123.117 170.976 123.236 170.989 123.328 171.002 123.384M176.632 89.46C173.536 82.463 169.286 76.234 164 70.948L156.092 63.04C155.617 62.565 154.689 62.482 154.255 62.875 153.922 63.176 153.845 63.528 153.839 63.77 153.835 63.934 153.862 64.218 154.046 64.503L158.729 69.228 154.477 73.461 149.987 68.97C149.826 68.81 149.673 68.642 149.529 68.468L143.496 62.38C142.975 61.859 142.141 61.759 141.647 62.167 141.254 62.492 141.178 62.898 141.168 63.111 141.158 63.322 141.192 63.728 141.534 64.077L152.697 75.242 150.485 77.454 150.576 77.545 150.485 77.454 148.455 79.484 137.303 68.331C137.293 68.322 137.284 68.313 137.275 68.303L134.633 65.661C134.167 65.196 133.212 65.093 132.775 65.461 132.457 65.729 132.265 66.129 132.247 66.558 132.237 66.772 132.268 67.177 132.575 67.484L135.091 70.001C135.101 70.01 135.111 70.02 135.121 70.03L146.515 81.425 144.302 83.637 144.393 83.728 144.302 83.637 142.272 85.667 130.864 74.259C130.324 73.73 129.491 73.618 128.96 74.005 128.543 74.309 128.43 74.696 128.409 74.967 128.391 75.19 128.417 75.618 128.784 75.986L147.165 94.367 144.953 96.58 145.044 96.671 144.953 96.58 142.923 98.61 137.837 93.524C137.513 93.2 137.135 93.152 136.939 93.152 136.743 93.152 136.365 93.2 136.041 93.524 135.716 93.848 135.669 94.228 135.669 94.425 135.67 94.622 135.719 95.001 136.045 95.324L140.112 99.354C143.713 103.072 146.339 103.81 149.422 103.81L149.657 103.82 158.173 104.49 158.231 104.488C167.719 104.163 169.909 109.297 170.413 111.694 170.495 111.98 170.697 119.214 170.888 122.189 170.952 122.535 171 122.842 171.033 123.08 172.167 122.54 173.434 122.295 174.718 122.393 176.847 122.56 178.796 123.654 180.063 125.395 180.31 125.734 180.523 126.091 180.702 126.459 181.414 126.27 182.16 126.183 182.914 126.219 184.577 126.289 186.157 126.916 187.415 127.963 187.225 117.345 184.488 103.046 179.453 94.07 176.79 89.817 176.737 89.697 176.632 89.46M126.568 172.8C126.599 172.793 126.663 172.779 126.711 172.768 126.7 172.709 126.693 172.65 126.681 172.591 126.311 172.794 126.197 172.886 126.568 172.8M180.748 149.496L186.838 143.462C187.359 142.941 187.459 142.107 187.051 141.613 186.742 141.24 186.367 141.146 186.107 141.134 185.893 141.121 185.481 141.159 185.129 141.512L173.976 152.664 171.946 150.634 171.855 150.725 171.946 150.634 169.734 148.422 183.556 134.599C184.022 134.133 184.125 133.178 183.756 132.741 183.489 132.424 183.089 132.231 182.659 132.213 182.446 132.203 182.04 132.234 181.733 132.541L167.793 146.481 163.551 142.239 174.945 130.844C175.485 130.304 175.602 129.462 175.212 128.927 174.909 128.51 174.522 128.396 174.25 128.375 174.028 128.358 173.599 128.384 173.232 128.75L154.85 147.132 152.82 145.102 152.729 145.193 152.82 145.102 150.608 142.889 155.694 137.803C156.189 137.308 156.189 136.503 155.693 136.007 155.369 135.683 154.993 135.659 154.793 135.636 154.596 135.636 154.217 135.685 153.893 136.011L149.863 140.079C146.145 143.679 145.407 146.305 145.407 149.388L145.398 149.623 144.727 158.139 144.729 158.198C145.054 167.684 139.921 169.875 137.524 170.379 137.191 170.475 128.154 172.443 126.711 172.768 126.83 173.393 126.875 174.036 126.824 174.685 126.658 176.814 125.563 178.762 123.822 180.03 123.483 180.277 123.127 180.49 122.758 180.669 122.948 181.381 123.031 182.126 122.999 182.88 122.928 184.548 122.298 186.132 121.246 187.39 122.408 187.407 125.12 187.452 125.319 187.45 135.699 187.324 145.995 184.554 155.147 179.42 159.401 176.757 159.52 176.704 159.757 176.599 166.755 173.502 172.984 169.252 178.269 163.967L186.178 156.058C186.653 155.583 186.736 154.656 186.342 154.221 186.041 153.888 185.689 153.811 185.447 153.805 185.283 153.804 185 153.828 184.715 154.013L179.989 158.696 175.756 154.443 180.247 149.953C180.407 149.793 180.575 149.64 180.748 149.496M120.467 173.199L102.085 154.816 106.328 150.574 106.33 150.576 111.414 155.66C111.909 156.156 112.715 156.156 113.21 155.66 113.535 155.335 113.582 154.956 113.582 154.759 113.582 154.562 113.532 154.183 113.206 153.86L109.139 149.83C105.538 146.112 102.913 145.374 99.83 145.374L99.594 145.365 91.078 144.694 91.02 144.696C81.533 145.009 79.342 139.887 78.838 137.49 78.753 137.192 77.211 129.337 76.66 126.637 76.153 126.749 75.633 126.813 75.105 126.813 74.915 126.813 74.724 126.805 74.533 126.791 72.404 126.624 70.456 125.53 69.188 123.789 68.941 123.45 68.728 123.094 68.549 122.725 67.837 122.914 67.091 122.998 66.337 122.966 64.666 122.895 63.078 122.261 61.819 121.205 61.819 122.377 61.822 125.204 61.825 125.466 61.984 135.853 64.732 146.083 69.798 155.114 72.462 159.367 72.514 159.487 72.619 159.724 75.715 166.722 79.965 172.95 85.251 178.236L93.159 186.144C93.634 186.619 94.562 186.702 94.997 186.309 95.329 186.008 95.406 185.656 95.412 185.413 95.416 185.25 95.389 184.967 95.205 184.681L90.522 179.956 94.774 175.723 99.265 180.214C99.425 180.374 99.578 180.542 99.722 180.716L105.755 186.804C106.277 187.325 107.11 187.426 107.604 187.017 107.998 186.693 108.073 186.286 108.083 186.073 108.094 185.861 108.059 185.456 107.717 185.107L96.554 173.943 100.796 169.7 111.949 180.853C111.958 180.862 111.967 180.871 111.976 180.881L114.618 183.523C115.084 183.988 116.039 184.091 116.476 183.723 116.794 183.455 116.986 183.055 117.005 182.626 117.014 182.411 116.983 182.007 116.676 181.7L102.736 167.76 106.979 163.517 118.373 174.911C118.913 175.451 119.755 175.568 120.291 175.179 120.708 174.875 120.821 174.488 120.842 174.217 120.86 173.994 120.834 173.566 120.467 173.199"/>
    <path fill="#434A4F" d="M116.399,177.362 L116.408,177.346 C116.357,177.3 116.3,177.264 116.252,177.215 L116.399,177.362"/>
    <polyline fill="#434A4F" points="116.252 177.215 116.252 177.215 104.858 165.821 116.252 177.215"/>
    <path fill="#434A4F" d="M72.185,116.401 L72.171,116.415 L72.173,116.415 C72.177,116.411 72.18,116.406 72.185,116.401"/>
    <path fill="#434A4F" d="M72.185,116.401 C72.18,116.406 72.177,116.411 72.173,116.415 L72.171,116.415 L72.185,116.401"/>
    <polyline fill="#434A4F" points="77.396 98.824 66.244 109.976 77.396 98.824"/>
    <path fill="#434A4F" d="M177.067 133.148L177.227 132.988 177.209 132.979C177.159 133.033 177.119 133.095 177.067 133.148M152.82 145.102L154.033 143.889C153.456 144.466 153.025 144.897 152.82 145.102"/>
    <path fill="#434A4F" d="M177.067 133.148C177.119 133.095 177.159 133.033 177.209 132.979L177.227 132.988 177.067 133.148M190.433 125.853C189.881 125.853 189.433 125.405 189.433 124.853 189.433 113.772 186.573 102.831 181.162 93.211 178.562 89.061 178.497 88.913 178.461 88.834 175.265 81.609 170.875 75.177 165.415 69.716L157.506 61.808C156.279 60.58 154.131 60.471 152.912 61.576 152.243 62.182 151.862 63.009 151.84 63.903 151.821 64.66 152.057 65.381 152.511 65.977L157.309 70.818 155.892 72.229 151.401 67.739C151.265 67.602 151.136 67.46 151.017 67.311L144.916 61.155C143.658 59.896 141.661 59.742 140.373 60.807 139.642 61.411 139.215 62.26 139.17 63.198 139.126 64.124 139.476 65.031 140.131 65.686L151.283 76.838 149.869 78.252 136.047 64.43C134.845 63.228 132.713 63.079 131.486 64.115 130.741 64.743 130.29 65.669 130.248 66.656 130.208 67.591 130.533 68.453 131.161 69.081L133.68 71.6C133.689 71.609 133.698 71.618 133.707 71.626L145.1 83.021 143.686 84.435 132.271 73.02C131.032 71.8 129.108 71.606 127.783 72.571 126.977 73.157 126.491 74.018 126.415 74.994 126.339 75.956 126.688 76.9 127.37 77.582L145.751 95.963 144.337 97.377 139.251 92.292C138.016 91.057 135.863 91.057 134.627 92.292 134.007 92.912 133.667 93.735 133.669 94.611 133.671 95.488 134.015 96.311 134.638 96.927L138.705 100.957C142.217 104.585 145.218 105.993 149.421 105.993L158.169 106.678 158.299 106.669C166.131 106.395 168.049 110.146 168.479 112.404 168.479 112.403 168.479 112.402 168.479 112.402 168.483 112.402 168.806 113.51 169.053 114.581 169.178 115.119 168.842 115.656 168.304 115.78 167.766 115.903 167.229 115.569 167.105 115.031 166.862 113.982 166.537 112.872 166.537 112.872 165.828 109.174 161.703 108.555 158.368 108.668L158.09 108.675 149.343 107.99C149.338 107.99 149.334 107.99 149.33 107.99 144.664 107.99 141.15 106.358 137.282 102.363L133.23 98.348C132.227 97.354 131.672 96.028 131.669 94.616 131.666 93.204 132.214 91.876 133.213 90.878 134.063 90.028 135.152 89.504 136.328 89.369L125.956 78.996C124.859 77.9 124.3 76.384 124.421 74.837 124.542 73.292 125.338 71.876 126.606 70.954 127.407 70.371 128.341 70.049 129.297 69.979 128.574 69.023 128.197 67.814 128.25 66.571 128.315 65.026 129.025 63.573 130.197 62.585 132.118 60.966 135.242 61.074 137.199 62.771 137.351 61.41 138.032 60.146 139.1 59.265 141.174 57.552 144.353 57.761 146.333 59.744L149.88 63.322C150.035 62.081 150.624 60.95 151.569 60.093 153.574 58.276 156.94 58.415 158.92 60.394L166.829 68.302C172.464 73.937 176.993 80.573 180.291 88.024 180.399 88.215 181.941 90.689 182.881 92.19 188.484 102.149 191.433 113.43 191.433 124.853 191.433 125.405 190.985 125.853 190.433 125.853M106.863 191.442C105.441 191.442 104 190.888 102.917 189.805L99.371 186.227C99.216 187.467 98.627 188.599 97.682 189.455 95.677 191.271 92.311 191.135 90.331 189.155L82.422 181.247C76.787 175.611 72.258 168.975 68.96 161.524 68.851 161.332 67.31 158.859 66.37 157.358 60.767 147.399 57.818 136.119 57.818 124.696 57.818 124.144 58.266 123.696 58.818 123.696 59.371 123.696 59.818 124.144 59.818 124.696 59.818 135.776 62.678 146.718 68.089 156.337 70.69 160.49 70.755 160.638 70.79 160.717 73.986 167.939 78.376 174.372 83.836 179.833L91.745 187.741C92.973 188.97 95.12 189.077 96.339 187.973 97.009 187.366 97.39 186.54 97.412 185.645 97.43 184.889 97.194 184.167 96.739 183.571L91.942 178.73 93.36 177.319 97.85 181.81C97.986 181.946 98.114 182.089 98.234 182.238L104.335 188.394C105.592 189.652 107.588 189.806 108.878 188.742 109.609 188.138 110.037 187.289 110.081 186.351 110.125 185.427 109.776 184.522 109.125 183.868L97.968 172.711 99.382 171.297 113.204 185.119C114.407 186.322 116.538 186.469 117.766 185.434 118.51 184.807 118.961 183.88 119.003 182.893 119.042 181.957 118.719 181.096 118.091 180.468L104.151 166.528 105.565 165.114 116.959 176.508C118.197 177.746 120.136 177.948 121.468 176.978 122.274 176.392 122.76 175.531 122.836 174.555 122.912 173.592 122.563 172.649 121.882 171.967L103.5 153.585 104.914 152.171 110 157.257C111.276 158.532 113.35 158.531 114.625 157.257 115.244 156.637 115.584 155.813 115.582 154.937 115.58 154.061 115.236 153.238 114.613 152.622L110.546 148.592C107.034 144.964 104.034 143.556 99.83 143.556L91.082 142.871 90.952 142.879C83.122 143.15 81.202 139.402 80.772 137.145 80.773 137.146 80.773 137.146 80.772 137.146 80.768 137.146 80.446 136.039 80.198 134.968 80.073 134.43 80.408 133.893 80.946 133.769 81.482 133.644 82.021 133.979 82.146 134.517 82.389 135.563 82.712 136.668 82.714 136.677 83.423 140.375 87.546 140.994 90.883 140.881L91.161 140.874 99.908 141.559C99.913 141.559 99.917 141.559 99.921 141.559 104.588 141.559 108.102 143.191 111.969 147.186L116.021 151.201C117.024 152.195 117.579 153.52 117.582 154.932 117.585 156.344 117.037 157.672 116.039 158.671 115.166 159.543 114.061 160.046 112.92 160.177L123.296 170.553C124.392 171.649 124.951 173.165 124.83 174.711 124.709 176.257 123.913 177.672 122.645 178.595 121.844 179.178 120.91 179.5 119.955 179.57 120.677 180.526 121.054 181.734 121.001 182.978 120.936 184.523 120.226 185.976 119.055 186.963 117.134 188.583 114.008 188.476 112.053 186.778 111.9 188.139 111.219 189.402 110.151 190.284 109.21 191.061 108.043 191.442 106.863 191.442M75.104 124.995C74.966 124.995 74.828 124.99 74.689 124.979 73.144 124.858 71.728 124.062 70.805 122.794 70.222 121.993 69.9 121.06 69.83 120.104 68.873 120.827 67.66 121.203 66.422 121.15 64.877 121.084 63.424 120.375 62.436 119.203 60.816 117.282 60.925 114.157 62.622 112.201 61.261 112.049 59.998 111.368 59.116 110.3 57.402 108.226 57.613 105.048 59.595 103.066L63.173 99.52C61.933 99.365 60.802 98.776 59.945 97.831 58.128 95.826 58.265 92.46 60.245 90.479L68.153 82.571C73.788 76.936 80.424 72.407 87.876 69.109 88.066 69.001 90.54 67.459 92.041 66.519 102 60.916 113.281 57.967 124.704 57.967 125.256 57.967 125.704 58.415 125.704 58.967 125.704 59.52 125.256 59.967 124.704 59.967 113.624 59.967 102.682 62.827 93.063 68.238 88.912 70.838 88.764 70.903 88.685 70.938 81.46 74.136 75.027 78.525 69.567 83.985L61.659 91.894C60.431 93.122 60.322 95.269 61.427 96.488 62.034 97.157 62.86 97.538 63.755 97.56 64.527 97.591 65.231 97.343 65.827 96.89L70.669 92.091 72.081 93.508 67.59 97.999C67.453 98.136 67.31 98.265 67.159 98.385L61.006 104.484C59.748 105.741 59.594 107.738 60.658 109.027 61.262 109.758 62.111 110.186 63.05 110.23 63.972 110.269 64.881 109.923 65.537 109.269L76.689 98.117 78.103 99.531 64.281 113.353C63.078 114.556 62.931 116.687 63.966 117.914 64.593 118.659 65.52 119.11 66.507 119.152 67.428 119.183 68.304 118.868 68.932 118.24L71.434 115.738C71.448 115.723 71.463 115.708 71.478 115.693L82.872 104.3 84.286 105.714 72.857 117.144C71.65 118.383 71.461 120.297 72.422 121.617 73.009 122.423 73.869 122.909 74.845 122.985 75.808 123.059 76.751 122.712 77.433 122.03L95.815 103.648 97.229 105.063 92.143 110.149C91.525 110.767 91.186 111.588 91.186 112.461 91.186 113.334 91.526 114.155 92.144 114.773 92.761 115.391 93.582 115.731 94.456 115.731 94.458 115.731 94.46 115.731 94.463 115.731 95.339 115.729 96.162 115.385 96.778 114.763L100.808 110.695C104.436 107.183 105.844 104.182 105.844 99.979L106.529 91.231 106.521 91.099C106.253 83.245 109.999 81.351 112.255 80.921 112.254 80.921 112.254 80.921 112.253 80.921 112.238 80.921 113.354 80.596 114.432 80.347 114.967 80.22 115.506 80.557 115.631 81.096 115.756 81.633 115.42 82.17 114.882 82.295 113.833 82.538 112.723 82.863 112.723 82.863 109.026 83.572 108.406 87.694 108.52 91.031L108.526 91.31 107.841 100.057C107.844 104.729 106.213 108.247 102.214 112.118L98.199 116.17C97.205 117.173 95.88 117.728 94.468 117.731 94.464 117.731 94.46 117.731 94.456 117.731 93.048 117.731 91.725 117.183 90.729 116.187 89.879 115.337 89.355 114.248 89.22 113.072L78.847 123.444C77.85 124.442 76.504 124.995 75.104 124.995"/>
    <path fill="#434A4F" d="M124.579 191.637C124.027 191.637 123.579 191.189 123.579 190.637 123.579 190.084 124.027 189.637 124.579 189.637 135.574 189.637 146.505 186.758 156.188 181.311 160.339 178.71 160.487 178.646 160.566 178.61 167.79 175.414 174.222 171.024 179.684 165.563L187.592 157.655C188.82 156.427 188.929 154.28 187.824 153.061 187.218 152.391 186.391 152.01 185.497 151.988 184.724 151.979 184.018 152.206 183.422 152.661L178.582 157.458 177.17 156.04 181.661 151.55C181.797 151.414 181.94 151.286 182.089 151.166L188.245 145.065C189.503 143.808 189.657 141.811 188.593 140.522 187.989 139.791 187.14 139.363 186.202 139.319 185.275 139.269 184.369 139.625 183.714 140.28L172.562 151.432 171.148 150.018 184.97 136.196C186.173 134.993 186.32 132.862 185.285 131.634 184.658 130.89 183.731 130.439 182.744 130.397 181.804 130.356 180.947 130.681 180.319 131.309L166.379 145.249 164.965 143.835 176.359 132.441C177.598 131.203 177.799 129.264 176.829 127.932 176.243 127.126 175.382 126.64 174.406 126.563 173.439 126.491 172.5 126.836 171.818 127.518L158.545 140.792C158.538 140.799 158.53 140.807 158.522 140.814L153.437 145.9 152.022 144.486 157.125 139.383C158.383 138.107 158.377 136.045 157.108 134.775 156.49 134.158 155.669 133.818 154.796 133.818 154.793 133.818 154.791 133.818 154.789 133.818 153.912 133.82 153.089 134.164 152.473 134.787L148.443 138.854C144.815 142.366 143.407 145.367 143.407 149.57L142.722 158.318 142.73 158.448C143 166.303 139.253 168.197 136.996 168.627 136.997 168.627 136.997 168.627 136.998 168.627 137.013 168.627 135.897 168.953 134.819 169.202 134.284 169.328 133.744 168.992 133.62 168.454 133.495 167.916 133.83 167.378 134.368 167.254 135.414 167.011 136.52 166.688 136.528 166.686 140.226 165.976 140.846 161.854 140.732 158.517L140.725 158.239 141.41 149.492C141.407 144.82 143.038 141.303 147.037 137.431L151.052 133.379C152.046 132.375 153.372 131.821 154.784 131.818 154.788 131.818 154.792 131.818 154.796 131.818 156.204 131.818 157.526 132.366 158.522 133.361 159.395 134.234 159.897 135.339 160.028 136.48L170.404 126.104C171.5 125.008 173.019 124.45 174.563 124.57 176.108 124.691 177.523 125.487 178.446 126.755 179.029 127.556 179.351 128.489 179.421 129.445 180.377 128.722 181.59 128.343 182.829 128.399 184.374 128.464 185.827 129.174 186.814 130.345 188.435 132.267 188.326 135.392 186.629 137.347 187.99 137.5 189.253 138.181 190.135 139.249 191.849 141.324 191.638 144.501 189.656 146.482L186.078 150.029C187.318 150.184 188.45 150.772 189.307 151.718 191.123 153.723 190.986 157.09 189.006 159.069L181.098 166.978C175.461 172.613 168.826 177.143 161.375 180.439 161.185 180.548 158.711 182.09 157.209 183.03 147.187 188.669 135.917 191.637 124.579 191.637M76.819 93.964C76.559 93.964 76.299 93.865 76.108 93.675 76.069 93.624 76.019 93.575 75.989 93.524 75.949 93.464 75.919 93.415 75.898 93.345 75.869 93.285 75.849 93.225 75.838 93.165 75.829 93.095 75.819 93.035 75.819 92.964 75.819 92.705 75.929 92.444 76.108 92.265 76.489 91.885 77.159 91.885 77.529 92.265 77.709 92.444 77.819 92.705 77.819 92.964 77.819 93.035 77.809 93.095 77.799 93.165 77.789 93.225 77.769 93.285 77.739 93.345 77.719 93.415 77.688 93.464 77.648 93.524 77.608 93.575 77.569 93.624 77.529 93.675 77.338 93.865 77.079 93.964 76.819 93.964M82.819 99.964C82.559 99.964 82.299 99.865 82.108 99.675 81.929 99.484 81.819 99.234 81.819 98.964 81.819 98.705 81.929 98.444 82.108 98.265 82.479 97.885 83.148 97.885 83.529 98.265 83.709 98.444 83.819 98.705 83.819 98.964 83.819 99.234 83.709 99.484 83.529 99.675 83.338 99.865 83.079 99.964 82.819 99.964M88.819 105.964C88.559 105.964 88.299 105.865 88.108 105.675 87.929 105.484 87.819 105.234 87.819 104.964 87.819 104.834 87.838 104.705 87.898 104.584 87.949 104.464 88.019 104.354 88.108 104.265 88.489 103.885 89.159 103.885 89.529 104.265 89.619 104.354 89.688 104.464 89.739 104.584 89.789 104.705 89.819 104.834 89.819 104.964 89.819 105.234 89.709 105.484 89.529 105.675 89.338 105.865 89.079 105.964 88.819 105.964M104.819 161.964C104.688 161.964 104.559 161.944 104.438 161.895 104.309 161.834 104.208 161.765 104.108 161.675 104.069 161.625 104.019 161.575 103.989 161.524 103.949 161.464 103.918 161.415 103.898 161.345 103.869 161.285 103.849 161.225 103.838 161.165 103.829 161.095 103.819 161.035 103.819 160.964 103.819 160.705 103.929 160.444 104.108 160.265 104.208 160.165 104.309 160.095 104.438 160.044 104.679 159.944 104.958 159.944 105.199 160.044 105.319 160.095 105.429 160.165 105.529 160.265 105.708 160.444 105.819 160.705 105.819 160.964 105.819 161.035 105.809 161.095 105.799 161.165 105.789 161.225 105.769 161.285 105.739 161.345 105.719 161.415 105.688 161.464 105.648 161.524 105.608 161.575 105.569 161.625 105.529 161.675 105.429 161.765 105.319 161.834 105.199 161.895 105.079 161.944 104.949 161.964 104.819 161.964M98.819 167.964C98.559 167.964 98.299 167.865 98.108 167.675 98.019 167.584 97.949 167.475 97.898 167.354 97.849 167.225 97.819 167.095 97.819 166.964 97.819 166.705 97.929 166.444 98.108 166.265 98.479 165.885 99.159 165.885 99.529 166.265 99.709 166.444 99.819 166.705 99.819 166.964 99.819 167.095 99.789 167.225 99.739 167.354 99.688 167.475 99.619 167.584 99.529 167.675 99.479 167.725 99.429 167.765 99.369 167.794 99.319 167.834 99.259 167.865 99.199 167.895 99.139 167.915 99.079 167.935 99.019 167.944 98.949 167.964 98.889 167.964 98.819 167.964M94.819 173.964C94.559 173.964 94.299 173.865 94.108 173.675 93.929 173.484 93.819 173.234 93.819 172.964 93.819 172.705 93.929 172.444 94.108 172.265 94.489 171.885 95.148 171.885 95.529 172.265 95.709 172.444 95.819 172.705 95.819 172.964 95.819 173.234 95.709 173.484 95.529 173.675 95.338 173.865 95.079 173.964 94.819 173.964M88.819 179.964C88.559 179.964 88.299 179.865 88.108 179.675 87.929 179.484 87.819 179.225 87.819 178.964 87.819 178.705 87.929 178.444 88.108 178.265 88.209 178.165 88.309 178.095 88.438 178.044 88.809 177.895 89.248 177.984 89.529 178.265 89.709 178.444 89.819 178.705 89.819 178.964 89.819 179.225 89.709 179.484 89.529 179.675 89.338 179.865 89.079 179.964 88.819 179.964M70.819 87.964C70.559 87.964 70.299 87.865 70.108 87.675 70.069 87.624 70.029 87.575 69.989 87.524 69.949 87.464 69.919 87.415 69.898 87.354 69.869 87.285 69.849 87.225 69.838 87.165 69.829 87.095 69.819 87.035 69.819 86.964 69.819 86.905 69.829 86.835 69.838 86.774 69.849 86.705 69.869 86.645 69.898 86.585 69.919 86.524 69.949 86.464 69.989 86.415 70.029 86.354 70.069 86.305 70.108 86.265 70.209 86.165 70.309 86.095 70.438 86.044 70.679 85.944 70.959 85.944 71.199 86.044 71.319 86.095 71.429 86.165 71.529 86.265 71.569 86.305 71.608 86.354 71.648 86.415 71.688 86.464 71.719 86.524 71.739 86.585 71.769 86.645 71.789 86.705 71.799 86.774 71.809 86.835 71.819 86.905 71.819 86.964 71.819 87.035 71.809 87.095 71.799 87.165 71.789 87.225 71.769 87.285 71.739 87.354 71.719 87.415 71.688 87.464 71.648 87.524 71.608 87.575 71.569 87.624 71.529 87.675 71.338 87.865 71.079 87.964 70.819 87.964M144.819 89.964C144.559 89.964 144.299 89.865 144.108 89.675 143.929 89.495 143.819 89.234 143.819 88.964 143.819 88.705 143.929 88.444 144.108 88.265 144.479 87.885 145.159 87.885 145.529 88.265 145.708 88.444 145.819 88.705 145.819 88.964 145.819 89.234 145.708 89.484 145.529 89.675 145.338 89.865 145.079 89.964 144.819 89.964M150.819 83.964C150.559 83.964 150.299 83.865 150.108 83.675 149.929 83.484 149.819 83.234 149.819 82.964 149.819 82.705 149.929 82.444 150.108 82.265 150.479 81.885 151.148 81.885 151.529 82.265 151.708 82.444 151.819 82.705 151.819 82.964 151.819 83.225 151.708 83.484 151.529 83.675 151.338 83.865 151.079 83.964 150.819 83.964M156.819 77.964C156.549 77.964 156.299 77.865 156.108 77.675 156.019 77.585 155.949 77.475 155.898 77.354 155.838 77.225 155.819 77.095 155.819 76.964 155.819 76.705 155.929 76.444 156.108 76.265 156.479 75.885 157.159 75.885 157.529 76.265 157.708 76.444 157.819 76.705 157.819 76.964 157.819 77.095 157.789 77.225 157.739 77.354 157.688 77.475 157.619 77.585 157.529 77.675 157.338 77.865 157.079 77.964 156.819 77.964M162.819 73.964C162.549 73.964 162.299 73.865 162.108 73.675 161.929 73.484 161.819 73.234 161.819 72.964 161.819 72.835 161.838 72.705 161.898 72.585 161.949 72.464 162.019 72.354 162.108 72.254 162.389 71.984 162.829 71.895 163.199 72.044 163.319 72.095 163.429 72.165 163.529 72.254 163.708 72.444 163.819 72.705 163.819 72.964 163.819 73.035 163.809 73.095 163.799 73.165 163.789 73.225 163.769 73.285 163.739 73.354 163.719 73.415 163.688 73.464 163.648 73.524 163.608 73.575 163.569 73.624 163.529 73.675 163.429 73.765 163.319 73.845 163.199 73.895 163.079 73.944 162.949 73.964 162.819 73.964"/>
    <path fill="#434A4F" d="M158.819 145.964C158.549 145.964 158.299 145.865 158.108 145.675 157.929 145.484 157.819 145.234 157.819 144.964 157.819 144.705 157.929 144.444 158.108 144.265 158.389 143.984 158.829 143.885 159.199 144.044 159.319 144.095 159.429 144.165 159.529 144.265 159.569 144.305 159.608 144.354 159.648 144.415 159.688 144.464 159.719 144.524 159.739 144.584 159.769 144.645 159.789 144.705 159.799 144.774 159.809 144.834 159.819 144.905 159.819 144.964 159.819 145.035 159.809 145.095 159.799 145.165 159.789 145.225 159.769 145.285 159.739 145.354 159.719 145.415 159.688 145.464 159.648 145.524 159.608 145.575 159.569 145.625 159.529 145.675 159.429 145.765 159.319 145.845 159.199 145.895 159.079 145.944 158.949 145.964 158.819 145.964M164.819 151.964C164.559 151.964 164.299 151.865 164.108 151.675 164.019 151.584 163.949 151.475 163.898 151.345 163.849 151.225 163.819 151.095 163.819 150.964 163.819 150.834 163.849 150.705 163.898 150.584 163.949 150.464 164.019 150.354 164.108 150.265 164.208 150.165 164.309 150.095 164.438 150.044 164.679 149.944 164.958 149.944 165.199 150.044 165.319 150.095 165.429 150.165 165.529 150.265 165.619 150.354 165.688 150.464 165.739 150.584 165.789 150.705 165.819 150.834 165.819 150.964 165.819 151.095 165.789 151.225 165.739 151.345 165.688 151.475 165.619 151.584 165.529 151.675 165.429 151.765 165.319 151.845 165.199 151.895 165.079 151.944 164.949 151.964 164.819 151.964M170.819 157.964C170.749 157.964 170.688 157.964 170.619 157.944 170.559 157.935 170.499 157.915 170.438 157.895 170.378 157.865 170.319 157.834 170.259 157.794 170.208 157.765 170.159 157.725 170.108 157.675 170.069 157.625 170.029 157.575 169.989 157.524 169.949 157.464 169.918 157.415 169.898 157.354 169.869 157.294 169.849 157.225 169.838 157.165 169.829 157.095 169.819 157.035 169.819 156.964 169.819 156.705 169.929 156.444 170.108 156.265 170.159 156.214 170.208 156.175 170.259 156.135 170.319 156.104 170.378 156.075 170.438 156.044 170.499 156.024 170.559 156.004 170.619 155.984 170.819 155.944 171.019 155.964 171.199 156.044 171.319 156.095 171.429 156.165 171.529 156.265 171.708 156.444 171.819 156.705 171.819 156.964 171.819 157.035 171.809 157.095 171.799 157.165 171.789 157.225 171.769 157.294 171.739 157.354 171.719 157.415 171.688 157.464 171.648 157.524 171.608 157.575 171.569 157.625 171.529 157.675 171.429 157.765 171.319 157.845 171.199 157.895 171.079 157.944 170.949 157.964 170.819 157.964M176.819 163.964C176.688 163.964 176.559 163.944 176.438 163.895 176.309 163.845 176.208 163.765 176.108 163.675 176.069 163.625 176.019 163.575 175.989 163.524 175.949 163.464 175.918 163.415 175.898 163.345 175.869 163.285 175.849 163.225 175.838 163.165 175.829 163.095 175.819 163.035 175.819 162.964 175.819 162.834 175.849 162.705 175.898 162.584 175.949 162.464 176.019 162.354 176.108 162.265 176.199 162.165 176.309 162.095 176.438 162.044 176.619 161.964 176.819 161.944 177.009 161.984 177.079 161.995 177.139 162.015 177.199 162.044 177.259 162.064 177.319 162.104 177.369 162.135 177.429 162.175 177.479 162.214 177.529 162.265 177.708 162.444 177.819 162.705 177.819 162.964 177.819 163.035 177.809 163.095 177.799 163.165 177.789 163.225 177.769 163.285 177.739 163.345 177.719 163.415 177.688 163.464 177.648 163.524 177.608 163.575 177.569 163.625 177.529 163.675 177.479 163.725 177.429 163.765 177.369 163.794 177.319 163.834 177.259 163.865 177.199 163.895 177.139 163.915 177.079 163.935 177.009 163.944 176.949 163.964 176.878 163.964 176.819 163.964M168.819 119.964C168.688 119.964 168.559 119.944 168.438 119.895 168.309 119.845 168.199 119.765 168.108 119.675 168.069 119.625 168.019 119.575 167.989 119.524 167.949 119.464 167.918 119.415 167.898 119.354 167.869 119.294 167.849 119.225 167.838 119.165 167.829 119.095 167.819 119.035 167.819 118.964 167.819 118.705 167.929 118.444 168.108 118.265 168.199 118.165 168.309 118.095 168.438 118.044 168.679 117.944 168.958 117.944 169.199 118.044 169.319 118.095 169.429 118.165 169.529 118.265 169.569 118.305 169.608 118.354 169.648 118.415 169.688 118.464 169.719 118.524 169.739 118.584 169.769 118.645 169.789 118.705 169.799 118.774 169.809 118.834 169.819 118.905 169.819 118.964 169.819 119.035 169.809 119.095 169.799 119.165 169.789 119.225 169.769 119.285 169.739 119.354 169.719 119.415 169.688 119.464 169.648 119.524 169.608 119.575 169.569 119.625 169.529 119.675 169.429 119.765 169.319 119.845 169.199 119.895 169.079 119.944 168.949 119.964 168.819 119.964M189.819 129.964C189.688 129.964 189.559 129.944 189.438 129.895 189.309 129.845 189.199 129.765 189.108 129.675 189.069 129.635 189.019 129.575 188.989 129.524 188.949 129.464 188.918 129.415 188.898 129.354 188.869 129.294 188.849 129.225 188.838 129.165 188.829 129.095 188.819 129.035 188.819 128.964 188.819 128.905 188.829 128.834 188.838 128.774 188.849 128.705 188.869 128.645 188.898 128.584 188.918 128.524 188.949 128.464 188.989 128.415 189.019 128.354 189.069 128.305 189.108 128.265 189.199 128.165 189.309 128.095 189.438 128.044 189.799 127.895 190.249 127.984 190.529 128.265 190.569 128.305 190.608 128.354 190.648 128.415 190.688 128.464 190.719 128.524 190.739 128.584 190.769 128.645 190.789 128.705 190.799 128.774 190.809 128.834 190.819 128.905 190.819 128.964 190.819 129.035 190.809 129.095 190.799 129.165 190.789 129.225 190.769 129.294 190.739 129.354 190.719 129.415 190.688 129.464 190.648 129.524 190.608 129.575 190.569 129.635 190.529 129.675 190.338 129.865 190.079 129.964 189.819 129.964M130.779 169.995C130.648 169.995 130.519 169.964 130.398 169.915 130.279 169.865 130.168 169.794 130.079 169.694 130.029 169.655 129.989 169.604 129.949 169.544 129.918 169.495 129.878 169.435 129.858 169.375 129.838 169.314 129.819 169.254 129.799 169.185 129.789 169.125 129.779 169.055 129.779 168.995 129.779 168.725 129.889 168.475 130.079 168.285 130.168 168.194 130.279 168.125 130.398 168.064 130.769 167.915 131.208 168.004 131.489 168.285 131.679 168.475 131.779 168.725 131.779 168.995 131.779 169.055 131.779 169.125 131.759 169.185 131.749 169.254 131.729 169.314 131.708 169.375 131.679 169.435 131.648 169.495 131.608 169.544 131.579 169.604 131.539 169.655 131.489 169.694 131.299 169.885 131.049 169.995 130.779 169.995M120.779 191.004C120.509 191.004 120.259 190.895 120.069 190.714 119.878 190.524 119.779 190.265 119.779 190.004 119.779 189.875 119.799 189.745 119.849 189.625 119.909 189.504 119.979 189.395 120.069 189.294 120.119 189.254 120.168 189.214 120.219 189.175 120.279 189.135 120.329 189.104 120.398 189.084 120.458 189.055 120.519 189.035 120.579 189.024 120.909 188.955 121.249 189.064 121.489 189.294 121.579 189.395 121.648 189.504 121.699 189.625 121.749 189.745 121.779 189.875 121.779 190.004 121.779 190.265 121.668 190.524 121.489 190.714 121.299 190.895 121.039 191.004 120.779 191.004M80.748 131.964C80.619 131.964 80.489 131.944 80.369 131.895 80.248 131.845 80.139 131.765 80.049 131.675 79.998 131.635 79.959 131.575 79.919 131.524 79.889 131.475 79.858 131.415 79.829 131.354 79.809 131.294 79.789 131.225 79.769 131.165 79.759 131.095 79.748 131.035 79.748 130.964 79.748 130.705 79.858 130.444 80.049 130.265 80.419 129.895 81.088 129.885 81.459 130.265 81.648 130.444 81.748 130.705 81.748 130.964 81.748 131.035 81.748 131.095 81.729 131.165 81.719 131.225 81.699 131.294 81.679 131.354 81.648 131.415 81.619 131.475 81.579 131.524 81.549 131.575 81.509 131.635 81.459 131.675 81.369 131.765 81.259 131.845 81.139 131.895 81.009 131.944 80.878 131.964 80.748 131.964M58.739 121.964C58.479 121.964 58.219 121.854 58.029 121.675 57.938 121.575 57.869 121.464 57.819 121.345 57.769 121.225 57.739 121.095 57.739 120.964 57.739 120.705 57.849 120.444 58.029 120.254 58.079 120.214 58.128 120.165 58.179 120.135 58.239 120.095 58.299 120.064 58.358 120.044 58.418 120.015 58.479 119.995 58.549 119.984 58.739 119.944 58.938 119.964 59.119 120.044 59.248 120.095 59.349 120.165 59.449 120.254 59.628 120.444 59.739 120.705 59.739 120.964 59.739 121.095 59.719 121.225 59.659 121.345 59.608 121.464 59.539 121.575 59.449 121.675 59.349 121.765 59.248 121.834 59.119 121.885 58.999 121.935 58.869 121.964 58.739 121.964M118.779 81.944C118.639 81.944 118.519 81.915 118.389 81.865 118.269 81.814 118.159 81.734 118.069 81.645 117.979 81.555 117.898 81.444 117.849 81.325 117.799 81.194 117.779 81.075 117.779 80.935 117.779 80.675 117.878 80.415 118.069 80.234 118.159 80.135 118.269 80.064 118.389 80.015 118.759 79.865 119.199 79.955 119.479 80.234 119.529 80.274 119.569 80.325 119.608 80.385 119.639 80.435 119.679 80.495 119.699 80.555 119.729 80.615 119.739 80.685 119.759 80.745 119.769 80.805 119.779 80.874 119.779 80.935 119.779 81.075 119.749 81.194 119.699 81.325 119.648 81.444 119.579 81.555 119.479 81.645 119.299 81.835 119.039 81.944 118.779 81.944M127.779 59.925C127.519 59.925 127.259 59.825 127.069 59.635 126.889 59.444 126.779 59.194 126.779 58.925 126.779 58.794 126.809 58.665 126.858 58.544 126.909 58.425 126.979 58.314 127.069 58.214 127.168 58.125 127.279 58.055 127.398 58.004 127.769 57.854 128.208 57.944 128.489 58.214 128.579 58.314 128.648 58.425 128.699 58.544 128.759 58.665 128.779 58.794 128.779 58.925 128.779 59.185 128.668 59.444 128.489 59.635 128.299 59.825 128.039 59.925 127.779 59.925M45.28 105.989C45.199 105.989 45.117 105.979 45.036 105.959 44.5 105.825 44.175 105.281 44.31 104.746 53.229 69.248 84.985 43.46 121.537 42.031 122.094 42.018 122.553 42.439 122.575 42.991 122.597 43.543 122.167 44.008 121.615 44.029 85.945 45.423 54.953 70.591 46.249 105.233 46.135 105.687 45.728 105.989 45.28 105.989zM49.002 107.606C48.924 107.606 48.845 107.598 48.766 107.578 48.229 107.448 47.899 106.908 48.029 106.371 56.227 72.52 86.237 47.718 121.007 46.058L121.818 46.057C122.371 46.057 122.818 46.504 122.818 47.057 122.818 47.609 122.371 48.057 121.818 48.057L121.055 48.057C87.213 49.673 57.963 73.847 49.973 106.842 49.862 107.299 49.453 107.606 49.002 107.606zM48.819 111.964C48.688 111.964 48.559 111.944 48.438 111.895 48.319 111.834 48.208 111.765 48.108 111.675 47.929 111.484 47.819 111.234 47.819 110.964 47.819 110.834 47.849 110.705 47.898 110.584 47.949 110.464 48.019 110.354 48.108 110.265 48.208 110.165 48.309 110.095 48.438 110.044 48.679 109.944 48.958 109.944 49.199 110.044 49.319 110.095 49.429 110.165 49.529 110.265 49.619 110.354 49.688 110.464 49.739 110.584 49.789 110.705 49.819 110.834 49.819 110.964 49.819 111.234 49.708 111.484 49.529 111.675 49.429 111.765 49.319 111.834 49.199 111.895 49.079 111.944 48.949 111.964 48.819 111.964M44.819 109.964C44.559 109.964 44.299 109.865 44.108 109.675 43.929 109.484 43.819 109.234 43.819 108.964 43.819 108.834 43.849 108.705 43.898 108.584 43.949 108.464 44.019 108.354 44.108 108.265 44.389 107.984 44.838 107.895 45.199 108.044 45.319 108.095 45.429 108.165 45.529 108.265 45.619 108.354 45.688 108.464 45.739 108.584 45.789 108.705 45.819 108.834 45.819 108.964 45.819 109.234 45.709 109.484 45.529 109.675 45.429 109.765 45.319 109.845 45.199 109.895 45.079 109.944 44.949 109.964 44.819 109.964"/>
    <path fill="#434A4F" d="M116.819 52.968C116.541 52.968 116.264 52.852 116.066 52.626 115.702 52.21 115.744 51.579 116.16 51.215L123.231 45.027 116.218 39.767C115.776 39.436 115.687 38.809 116.019 38.367 116.35 37.926 116.976 37.836 117.418 38.167L126.405 44.907 117.477 52.72C117.287 52.886 117.052 52.968 116.819 52.968M207.754 122.73C207.219 122.73 206.776 122.308 206.755 121.77 205.361 86.1 180.193 55.108 145.552 46.404 145.017 46.27 144.691 45.726 144.826 45.19 144.96 44.653 145.507 44.33 146.04 44.464 181.536 53.383 207.325 85.14 208.753 121.691 208.775 122.243 208.345 122.708 207.793 122.729 207.78 122.73 207.767 122.73 207.754 122.73zM203.728 122.973C203.176 122.973 202.728 122.525 202.728 121.973L202.728 121.209C201.111 87.368 176.938 58.118 143.943 50.127 143.407 49.998 143.077 49.457 143.207 48.92 143.337 48.384 143.88 48.052 144.414 48.184 178.265 56.382 203.067 86.392 204.727 121.162L204.728 121.973C204.728 122.525 204.28 122.973 203.728 122.973zM139.819 49.975C139.688 49.975 139.559 49.944 139.438 49.895 139.309 49.845 139.199 49.774 139.108 49.685 138.929 49.495 138.819 49.234 138.819 48.975 138.819 48.714 138.929 48.455 139.108 48.265 139.199 48.175 139.309 48.104 139.438 48.055 139.809 47.895 140.249 47.984 140.529 48.265 140.708 48.455 140.819 48.714 140.819 48.975 140.819 49.234 140.708 49.495 140.529 49.685 140.338 49.865 140.079 49.975 139.819 49.975M141.819 45.975C141.559 45.975 141.299 45.865 141.108 45.675 140.929 45.495 140.819 45.234 140.819 44.975 140.819 44.705 140.929 44.455 141.108 44.265 141.199 44.175 141.309 44.104 141.438 44.055 141.809 43.905 142.249 43.984 142.529 44.265 142.708 44.455 142.819 44.705 142.819 44.975 142.819 45.234 142.708 45.495 142.529 45.675 142.338 45.865 142.079 45.975 141.819 45.975"/>
    <path fill="#434A4F" d="M205.878 126.56L198.064 117.632C197.701 117.216 197.743 116.584 198.158 116.221 198.574 115.856 199.205 115.899 199.569 116.314L205.758 123.386 211.018 116.373C211.349 115.932 211.975 115.841 212.418 116.173 212.86 116.504 212.949 117.131 212.618 117.573L205.878 126.56M128.818 204.878C128.266 204.878 127.818 204.43 127.818 203.878 127.818 203.326 128.266 202.878 128.818 202.878L129.582 202.878C163.423 201.261 192.672 177.087 200.664 144.093 200.794 143.557 201.338 143.225 201.871 143.357 202.407 143.487 202.737 144.027 202.607 144.564 194.409 178.415 164.399 203.217 129.629 204.877L128.818 204.878zM129.06 208.904C128.525 208.904 128.082 208.482 128.061 207.943 128.039 207.392 128.469 206.927 129.021 206.905 164.691 205.512 195.682 180.344 204.387 145.702 204.521 145.166 205.068 144.841 205.6 144.976 206.136 145.11 206.461 145.654 206.326 146.189 197.407 181.687 165.65 207.476 129.099 208.903 129.086 208.904 129.073 208.904 129.06 208.904zM201.819 140.964C201.559 140.964 201.299 140.865 201.108 140.675 200.929 140.484 200.819 140.234 200.819 139.964 200.819 139.834 200.838 139.705 200.898 139.584 200.949 139.464 201.019 139.354 201.108 139.265 201.479 138.885 202.159 138.895 202.529 139.265 202.619 139.354 202.688 139.464 202.739 139.584 202.789 139.705 202.819 139.834 202.819 139.964 202.819 140.234 202.708 140.484 202.529 140.675 202.479 140.725 202.429 140.765 202.369 140.805 202.319 140.834 202.259 140.865 202.199 140.895 202.139 140.915 202.079 140.935 202.009 140.944 201.949 140.964 201.878 140.964 201.819 140.964M205.819 142.964C205.559 142.964 205.299 142.865 205.108 142.675 204.929 142.484 204.819 142.234 204.819 141.964 204.819 141.705 204.929 141.444 205.108 141.265 205.479 140.885 206.159 140.895 206.529 141.265 206.708 141.444 206.819 141.705 206.819 141.964 206.819 142.234 206.708 142.484 206.529 142.675 206.338 142.865 206.079 142.964 205.819 142.964"/>
    <path fill="#434A4F" d="M133.817 212.968C133.608 212.968 133.398 212.903 133.218 212.768L124.231 206.028 133.159 198.215C133.575 197.851 134.206 197.894 134.57 198.309 134.934 198.725 134.892 199.356 134.477 199.72L127.405 205.908 134.418 211.168C134.86 211.499 134.949 212.126 134.618 212.568 134.421 212.83 134.121 212.968 133.817 212.968M106.455 202.837C106.376 202.837 106.297 202.828 106.218 202.809 72.367 194.61 47.565 164.601 45.905 129.831L45.904 129.019C45.904 128.467 46.352 128.019 46.904 128.019 47.456 128.019 47.904 128.467 47.904 129.019L47.904 129.783C49.521 163.625 73.695 192.874 106.689 200.865 107.226 200.995 107.556 201.536 107.425 202.072 107.314 202.53 106.905 202.837 106.455 202.837zM104.837 206.558C104.756 206.558 104.674 206.548 104.593 206.528 69.096 197.609 43.307 165.852 41.879 129.301 41.857 128.749 42.287 128.284 42.839 128.263 43.386 128.233 43.855 128.671 43.877 129.223 45.271 164.893 70.439 195.884 105.08 204.588 105.616 204.723 105.941 205.266 105.806 205.802 105.692 206.256 105.285 206.558 104.837 206.558zM110.819 203.015C110.549 203.015 110.289 202.915 110.108 202.725 109.918 202.544 109.819 202.285 109.819 202.015 109.819 201.955 109.819 201.885 109.829 201.825 109.849 201.765 109.869 201.694 109.889 201.635 109.918 201.575 109.949 201.515 109.979 201.464 110.019 201.405 110.059 201.354 110.108 201.314 110.148 201.265 110.208 201.225 110.259 201.185 110.309 201.155 110.369 201.125 110.429 201.095 110.489 201.075 110.559 201.055 110.619 201.035 110.949 200.975 111.289 201.084 111.519 201.314 111.708 201.495 111.819 201.754 111.819 202.015 111.819 202.285 111.708 202.544 111.519 202.725 111.338 202.915 111.079 203.015 110.819 203.015M108.819 207.015C108.549 207.015 108.289 206.915 108.108 206.725 107.918 206.544 107.819 206.285 107.819 206.015 107.819 205.754 107.918 205.495 108.108 205.314 108.479 204.944 109.148 204.944 109.519 205.314 109.708 205.495 109.819 205.754 109.819 206.015 109.819 206.285 109.708 206.544 109.519 206.725 109.338 206.915 109.079 207.015 108.819 207.015"/>
    <path fill="#434A4F" d="M38.813 135.019C38.605 135.019 38.395 134.954 38.214 134.819 37.772 134.488 37.683 133.861 38.015 133.419L44.754 124.432 52.568 133.36C52.932 133.776 52.89 134.408 52.474 134.771 52.058 135.135 51.426 135.092 51.063 134.678L44.874 127.606 39.614 134.619C39.418 134.881 39.118 135.019 38.813 135.019M117.521 142.78L120.377 143.708 120.916 142.05C121.478 140.317 123.018 139.198 124.839 139.197 124.84 139.197 124.841 139.197 124.841 139.197 126.662 139.197 128.202 140.316 128.766 142.048L129.305 143.704 132.161 142.775 131.622 141.118C131.059 139.386 131.646 137.575 133.119 136.504 134.593 135.433 136.497 135.432 137.971 136.502L139.381 137.525 141.146 135.095 139.736 134.072C138.262 133.001 137.673 131.19 138.235 129.458 138.797 127.726 140.338 126.605 142.159 126.605L143.901 126.604 143.9 123.602 142.159 123.602C142.158 123.602 142.158 123.602 142.157 123.602 140.336 123.602 138.796 122.483 138.232 120.752 137.669 119.02 138.257 117.208 139.73 116.137L141.139 115.112 139.422 112.75 138.013 113.775C136.539 114.847 134.635 114.846 133.161 113.777 131.687 112.707 131.098 110.896 131.66 109.164L132.198 107.506 129.341 106.58 128.803 108.237C128.241 109.969 126.701 111.089 124.88 111.09 124.879 111.09 124.878 111.09 124.878 111.09 123.057 111.09 121.517 109.971 120.953 108.239L120.414 106.583 117.558 107.513 118.097 109.169C118.661 110.901 118.073 112.712 116.6 113.784 115.127 114.855 113.223 114.856 111.748 113.786L110.338 112.763 108.574 115.193 109.984 116.216C111.458 117.287 112.047 119.098 111.485 120.831 110.922 122.563 109.382 123.683 107.561 123.683L105.819 123.684 105.82 126.687 107.562 126.687C107.563 126.687 107.563 126.687 107.564 126.687 109.384 126.687 110.924 127.805 111.488 129.537 112.052 131.269 111.464 133.08 109.99 134.151L108.582 135.176 110.297 137.535 111.707 136.511C113.18 135.439 115.084 135.439 116.559 136.51 118.032 137.58 118.621 139.391 118.059 141.123L117.521 142.78zM121.663 146.227L115.001 144.065 116.156 140.506C116.508 139.422 115.988 138.567 115.383 138.128 114.778 137.689 113.804 137.458 112.882 138.129L109.856 140.329 105.788 134.734 108.814 132.534C109.736 131.864 109.817 130.866 109.586 130.155 109.355 129.445 108.702 128.687 107.564 128.687 107.563 128.687 107.563 128.687 107.563 128.687L103.821 128.688 103.818 121.685 107.56 121.683C108.7 121.683 109.352 120.923 109.583 120.213 109.813 119.502 109.731 118.504 108.809 117.834L105.78 115.636 109.895 109.969 112.923 112.167C113.845 112.836 114.818 112.605 115.424 112.166 116.028 111.727 116.548 110.871 116.195 109.788L115.038 106.229 121.697 104.063 122.855 107.621C123.208 108.704 124.131 109.09 124.878 109.09 124.878 109.09 124.878 109.09 124.879 109.09 125.626 109.09 126.549 108.703 126.901 107.62L128.056 104.06 134.717 106.221 133.563 109.781C133.211 110.864 133.731 111.719 134.336 112.158 134.94 112.598 135.915 112.828 136.837 112.158L139.863 109.957 143.933 115.554 140.906 117.754C139.985 118.424 139.903 119.422 140.134 120.133 140.366 120.843 141.018 121.602 142.157 121.602L142.158 121.602 145.899 121.601 145.902 128.604 142.16 128.605C141.021 128.605 140.368 129.365 140.137 130.076 139.907 130.786 139.989 131.784 140.911 132.454L143.938 134.652 139.824 140.319 136.796 138.121C135.873 137.45 134.9 137.683 134.295 138.122 133.691 138.561 133.171 139.417 133.524 140.5L134.681 144.059 128.021 146.225 126.864 142.667C126.511 141.583 125.588 141.197 124.841 141.197L124.84 141.197C124.093 141.197 123.169 141.584 122.818 142.667L121.663 146.227z"/>
    <path fill="#E9886C" d="M124.863,123.145 C124.243,123.145 123.631,123.431 123.24,123.971 C122.594,124.864 122.794,126.117 123.687,126.764 C124.58,127.411 125.833,127.21 126.48,126.317 C127.126,125.424 126.926,124.171 126.034,123.524 C125.68,123.268 125.27,123.145 124.863,123.145 Z M124.854,129.142 C124.041,129.142 123.221,128.896 122.514,128.383 C120.728,127.089 120.327,124.583 121.621,122.797 C122.915,121.011 125.42,120.61 127.207,121.904 L127.207,121.905 C128.992,123.199 129.393,125.705 128.1,127.49 C127.318,128.569 126.094,129.142 124.854,129.142 Z"/>
    <path fill="#434A4F" d="M123.009 113.675C122.969 113.125 123.378 112.645 123.929 112.604 124.479 112.564 124.958 112.975 125.009 113.524 125.039 114.075 124.628 114.555 124.079 114.595 124.059 114.595 124.029 114.595 124.009 114.595 123.489 114.595 123.049 114.194 123.009 113.675zM127.739 114.964C127.199 114.814 126.889 114.254 127.039 113.725 127.188 113.194 127.749 112.885 128.279 113.035 128.809 113.185 129.119 113.734 128.969 114.274 128.838 114.714 128.438 114.995 128.009 114.995 127.918 114.995 127.829 114.984 127.739 114.964zM119.199 114.995C118.969 114.484 119.199 113.895 119.699 113.675 120.208 113.444 120.799 113.675 121.019 114.175 121.249 114.675 121.019 115.274 120.519 115.495 120.389 115.555 120.249 115.584 120.108 115.584 119.729 115.584 119.358 115.365 119.199 114.995zM131.069 116.575C131.049 116.575 131.039 116.564 131.029 116.555 130.588 116.225 130.489 115.604 130.809 115.165 131.139 114.714 131.759 114.615 132.208 114.935 132.219 114.944 132.219 114.944 132.229 114.955L132.239 114.955C132.239 114.955 132.239 114.955 132.239 114.964 132.688 115.285 132.789 115.905 132.458 116.354 132.269 116.625 131.958 116.765 131.648 116.765 131.449 116.765 131.239 116.705 131.069 116.575zM116.069 117.544C115.688 117.145 115.688 116.515 116.088 116.125 116.479 115.745 117.119 115.745 117.509 116.145 117.889 116.544 117.878 117.175 117.489 117.564 117.289 117.745 117.039 117.845 116.789 117.845 116.529 117.845 116.269 117.745 116.069 117.544zM133.619 119.214C133.309 118.754 133.429 118.135 133.889 117.825 134.349 117.515 134.969 117.635 135.279 118.095 135.588 118.555 135.469 119.175 135.009 119.484 134.838 119.595 134.639 119.655 134.449 119.655 134.128 119.655 133.819 119.504 133.619 119.214zM113.999 121.004C113.499 120.765 113.299 120.165 113.539 119.665 113.779 119.165 114.369 118.964 114.869 119.205 115.369 119.444 115.579 120.044 115.338 120.535L115.329 120.535C115.159 120.895 114.809 121.104 114.438 121.104 114.289 121.104 114.139 121.075 113.999 121.004zM135.119 122.564C134.979 122.035 135.309 121.484 135.849 121.354 136.378 121.225 136.929 121.544 137.059 122.084 137.188 122.615 136.869 123.155 136.329 123.294 136.249 123.314 136.168 123.325 136.088 123.325 135.639 123.325 135.229 123.024 135.119 122.564zM113.239 124.964C112.688 124.905 112.289 124.415 112.349 123.875 112.398 123.325 112.889 122.915 113.438 122.975 113.989 123.035 114.389 123.524 114.338 124.075 114.279 124.584 113.849 124.975 113.338 124.975 113.309 124.975 113.269 124.964 113.239 124.964zM136.279 127.325C135.729 127.274 135.329 126.785 135.378 126.234 135.438 125.685 135.929 125.285 136.479 125.334 137.029 125.395 137.429 125.885 137.369 126.435 137.319 126.944 136.889 127.334 136.378 127.334 136.338 127.334 136.309 127.334 136.279 127.325zM112.668 128.225C112.529 127.685 112.858 127.145 113.389 127.004 113.929 126.875 114.469 127.194 114.608 127.734 114.739 128.274 114.418 128.814 113.878 128.944 113.799 128.964 113.719 128.975 113.628 128.975 113.188 128.975 112.779 128.675 112.668 128.225zM134.838 131.095C134.338 130.854 134.139 130.254 134.378 129.765 134.619 129.265 135.219 129.055 135.708 129.294 136.208 129.544 136.418 130.135 136.179 130.635 135.999 130.995 135.648 131.194 135.279 131.194 135.128 131.194 134.979 131.165 134.838 131.095zM114.449 132.205C114.139 131.754 114.259 131.135 114.719 130.825 115.168 130.515 115.799 130.625 116.108 131.084 116.418 131.544 116.299 132.165 115.838 132.475 115.668 132.595 115.469 132.645 115.279 132.645 114.958 132.645 114.639 132.495 114.449 132.205zM132.208 134.155C131.819 133.754 131.829 133.125 132.219 132.734 132.619 132.354 133.249 132.365 133.639 132.754 134.019 133.155 134.009 133.785 133.619 134.175 133.418 134.365 133.168 134.455 132.918 134.455 132.659 134.455 132.398 134.354 132.208 134.155zM117.499 135.334C117.049 135.015 116.949 134.385 117.269 133.944 117.599 133.495 118.219 133.395 118.668 133.714 119.108 134.044 119.219 134.665 118.889 135.115 118.699 135.385 118.389 135.524 118.079 135.524 117.878 135.524 117.668 135.464 117.499 135.334zM128.679 136.115C128.458 135.615 128.679 135.024 129.188 134.794 129.688 134.575 130.279 134.794 130.509 135.305 130.729 135.805 130.509 136.395 129.999 136.625 129.869 136.685 129.729 136.714 129.599 136.714 129.208 136.714 128.849 136.495 128.679 136.115zM121.429 137.245C120.889 137.095 120.588 136.544 120.739 136.015 120.889 135.475 121.438 135.175 121.969 135.325 122.499 135.475 122.809 136.024 122.659 136.555 122.529 136.995 122.128 137.285 121.699 137.285 121.608 137.285 121.519 137.274 121.429 137.245zM124.699 136.765C124.659 136.214 125.069 135.734 125.619 135.694 126.179 135.655 126.648 136.064 126.699 136.615 126.729 137.165 126.319 137.645 125.769 137.685 125.739 137.685 125.719 137.685 125.699 137.685 125.179 137.685 124.739 137.285 124.699 136.765zM120.167 131.622C116.595 129.034 115.794 124.022 118.382 120.451 120.97 116.878 125.981 116.078 129.553 118.665L128.38 120.285C125.7 118.343 121.942 118.945 120.002 121.624 118.061 124.303 118.662 128.062 121.34 130.002L120.167 131.622"/>
    <polygon fill="#434A4F" points="34.901 66.967 36.901 66.967 36.901 62.967 34.901 62.967"/>
    <polygon fill="#434A4F" points="34.901 76.967 36.901 76.967 36.901 72.967 34.901 72.967"/>
    <polygon fill="#434A4F" points="38.901 70.967 42.901 70.967 42.901 68.967 38.901 68.967"/>
    <polygon fill="#434A4F" points="28.901 70.967 32.901 70.967 32.901 68.967 28.901 68.967"/>
    <polygon fill="#434A4F" points="213.008 163.025 215.008 163.025 215.008 159.025 213.008 159.025"/>
    <polygon fill="#434A4F" points="213.008 173.025 215.008 173.025 215.008 169.025 213.008 169.025"/>
    <polygon fill="#434A4F" points="217.008 167.025 221.008 167.025 221.008 165.025 217.008 165.025"/>
    <polygon fill="#434A4F" points="207.008 167.025 211.008 167.025 211.008 165.025 207.008 165.025"/>
    <polygon fill="#434A4F" points="91.935 211.053 93.935 211.053 93.935 207.053 91.935 207.053"/>
    <polygon fill="#434A4F" points="91.935 221.053 93.935 221.053 93.935 217.053 91.935 217.053"/>
    <polygon fill="#434A4F" points="95.935 215.053 99.935 215.053 99.935 213.053 95.935 213.053"/>
    <polygon fill="#434A4F" points="85.935 215.053 89.935 215.053 89.935 213.053 85.935 213.053"/>
    <polygon fill="#434A4F" points="160.977 32.947 162.977 32.947 162.977 28.947 160.977 28.947"/>
    <polygon fill="#434A4F" points="160.977 42.947 162.977 42.947 162.977 38.947 160.977 38.947"/>
    <polygon fill="#434A4F" points="164.977 36.947 168.977 36.947 168.977 34.947 164.977 34.947"/>
    <polygon fill="#434A4F" points="154.977 36.947 158.977 36.947 158.977 34.947 154.977 34.947"/>
    <path fill="#42494E" d="M192.361,188.792 C186.438,188.792 181.62,193.611 181.62,199.534 C181.62,205.457 186.438,210.275 192.361,210.275 C198.284,210.275 203.102,205.457 203.102,199.534 C203.102,193.611 198.284,188.792 192.361,188.792 Z M192.361,212.275 C185.335,212.275 179.62,206.559 179.62,199.534 C179.62,192.508 185.335,186.792 192.361,186.792 C199.386,186.792 205.102,192.508 205.102,199.534 C205.102,206.559 199.386,212.275 192.361,212.275 Z"/>
    <path fill="#42494E" d="M192.36,188.792 C189.475,188.792 187.038,193.711 187.038,199.534 C187.038,205.356 189.475,210.275 192.36,210.275 C195.245,210.275 197.682,205.356 197.682,199.534 C197.682,193.711 195.245,188.792 192.36,188.792 Z M192.36,212.275 C188.254,212.275 185.038,206.678 185.038,199.534 C185.038,192.389 188.254,186.792 192.36,186.792 C196.465,186.792 199.682,192.389 199.682,199.534 C199.682,206.678 196.465,212.275 192.36,212.275 Z"/>
    <polygon fill="#42494E" points="180.62 200.534 204.102 200.534 204.102 198.534 180.62 198.534"/>
    <path fill="#42494E" d="M154.651,87.647 C152.998,87.647 151.652,88.993 151.652,90.647 C151.652,92.302 152.998,93.647 154.652,93.647 L209.817,93.647 L216.323,90.647 L209.817,87.647 L154.651,87.647 Z M210.255,95.647 L154.652,95.647 C151.895,95.647 149.652,93.404 149.652,90.647 C149.652,87.891 151.895,85.647 154.651,85.647 L210.255,85.647 L221.099,90.647 L210.255,95.647 Z"/>
    <polygon fill="#42494E" points="160.262 94.647 162.262 94.647 162.262 87.049 160.262 87.049"/>
    <polygon fill="#42494E" points="161.262 91.619 209.268 91.619 209.268 89.619 161.262 89.619"/>
    <path fill="#FACD60" d="M48.705 196.895C48.705 199.104 46.914 200.895 44.705 200.895 42.496 200.895 40.705 199.104 40.705 196.895 40.705 194.686 42.496 192.895 44.705 192.895 46.914 192.895 48.705 194.686 48.705 196.895M192.818 54.3C192.818 55.405 191.923 56.3 190.818 56.3 189.714 56.3 188.818 55.405 188.818 54.3 188.818 53.196 189.714 52.3 190.818 52.3 191.923 52.3 192.818 53.196 192.818 54.3M208.152 189.967C208.152 187.942 209.793 186.3 211.818 186.3 213.843 186.3 215.485 187.942 215.485 189.967 215.485 191.992 213.843 193.634 211.818 193.634 209.793 193.634 208.152 191.992 208.152 189.967"/>
  </g>
</svg>
