<svg xmlns="http://www.w3.org/2000/svg" width="250" height="250" viewBox="0 0 250 250">
  <g fill="none" fill-rule="evenodd">
    <polyline fill="#E9886C" points="212.084 121.024 198.084 121.024 204.089 127.029 218.089 127.029 212.084 121.024"/>
    <polyline fill="#E9886C" points="212.089 117.024 218.089 111.024 204.089 111.024 198.089 117.024 212.089 117.024"/>
    <path fill="#E9886C" d="M125.088,121.024 L125.088,117.024 L132.312,117.024 C131.435,113.855 128.538,111.524 125.09,111.524 C120.947,111.524 117.59,114.882 117.59,119.024 C117.59,123.166 120.947,126.524 125.09,126.524 C128.538,126.524 131.435,124.194 132.312,121.024 L125.088,121.024"/>
    <path fill="#E9886C" d="M142.551,121.024 C141.557,129.792 134.123,136.607 125.09,136.607 C115.379,136.607 107.506,128.735 107.506,119.024 C107.506,109.313 115.379,101.441 125.09,101.441 C134.123,101.441 141.557,108.256 142.551,117.024 L152.677,117.024 C151.651,102.679 139.696,91.357 125.09,91.357 C109.81,91.357 97.423,103.744 97.423,119.024 C97.423,134.304 109.81,146.691 125.09,146.691 C139.696,146.691 151.65,135.369 152.676,121.024 L142.551,121.024"/>
    <path fill="#E9886C" d="M162.786,121.024 C161.746,140.943 145.267,156.774 125.09,156.774 C104.241,156.774 87.34,139.873 87.34,119.024 C87.34,98.176 104.241,81.274 125.09,81.274 C145.267,81.274 161.746,97.106 162.786,117.024 L172.872,117.024 C171.823,91.535 150.836,71.191 125.09,71.191 C98.672,71.191 77.256,92.606 77.256,119.024 C77.256,145.442 98.672,166.857 125.09,166.857 C150.836,166.857 171.823,146.513 172.872,121.024 L162.786,121.024"/>
    <path fill="#E9886C" d="M182.956,121.024 C181.899,152.083 156.405,176.941 125.09,176.941 C93.103,176.941 67.173,151.011 67.173,119.024 C67.173,87.038 93.103,61.107 125.09,61.107 C156.405,61.107 181.9,85.966 182.956,117.024 L193.039,117.024 C191.978,80.396 161.974,51.024 125.09,51.024 C87.534,51.024 57.09,81.469 57.09,119.024 C57.09,156.58 87.534,187.024 125.09,187.024 C161.974,187.024 191.978,157.652 193.039,121.024 L182.956,121.024"/>
    <path fill="#D3665D" d="M67.332 138.615C67.332 132.809 63.114 128 57.577 127.054 58.425 134.256 60.397 141.11 63.315 147.443 65.772 145.291 67.332 142.138 67.332 138.615M174.555 165.658L167.425 158.528C166.514 159.503 165.571 160.446 164.596 161.356L171.726 168.486C172.697 167.571 173.64 166.628 174.555 165.658M160.295 151.398L153.158 144.262C152.266 145.253 151.322 146.198 150.33 147.09L157.466 154.226C158.448 153.323 159.391 152.38 160.295 151.398M146.012 137.115L138.849 129.952C138.016 131 137.068 131.948 136.021 132.782L143.184 139.944C144.193 139.07 145.138 138.125 146.012 137.115"/>
    <path fill="#DBDBD5" d="M157.466 154.226L164.596 161.356C165.571 160.446 166.514 159.503 167.425 158.528L160.295 151.398C159.391 152.38 158.448 153.323 157.466 154.226M143.184 139.944L150.33 147.09C151.322 146.198 152.266 145.253 153.158 144.262L146.012 137.115C145.138 138.125 144.193 139.07 143.184 139.944M128.785 125.546L136.021 132.782C137.068 131.948 138.016 131 138.849 129.952L131.613 122.716C130.944 123.897 129.965 124.876 128.785 125.546"/>
    <path fill="#434A4F" d="M125.09,127.524 C120.403,127.524 116.59,123.711 116.59,119.024 C116.59,114.337 120.403,110.524 125.09,110.524 C125.642,110.524 126.09,110.972 126.09,111.524 C126.09,112.077 125.642,112.524 125.09,112.524 C121.506,112.524 118.59,115.44 118.59,119.024 C118.59,122.608 121.506,125.524 125.09,125.524 C125.642,125.524 126.09,125.972 126.09,126.524 C126.09,127.077 125.642,127.524 125.09,127.524"/>
    <polyline fill="#434A4F" points="220.504 128.024 203.677 128.024 197.384 121.731 198.798 120.317 204.505 126.024 215.676 126.024 211.383 121.731 212.797 120.317 220.504 128.024"/>
    <path fill="#434A4F" d="M192.728,201.499 L195.585,202.426 L196.123,200.769 C196.686,199.036 198.226,197.917 200.047,197.916 C200.048,197.916 200.049,197.916 200.049,197.916 C201.87,197.916 203.41,199.035 203.973,200.767 L204.512,202.423 L207.368,201.494 L206.829,199.837 C206.266,198.105 206.854,196.294 208.327,195.223 C209.801,194.152 211.705,194.15 213.179,195.221 L214.589,196.245 L216.353,193.814 L214.944,192.791 C213.469,191.721 212.88,189.91 213.443,188.177 C214.005,186.445 215.545,185.325 217.366,185.324 L219.109,185.324 L219.108,182.32 L217.366,182.321 L217.365,182.321 C215.544,182.321 214.003,181.202 213.44,179.47 C212.877,177.738 213.465,175.927 214.938,174.855 L216.346,173.831 L214.63,171.47 L213.22,172.494 C211.749,173.565 209.844,173.567 208.369,172.496 C206.895,171.426 206.305,169.615 206.868,167.882 L207.406,166.226 L204.549,165.298 L204.011,166.956 C203.449,168.688 201.908,169.808 200.087,169.809 C200.087,169.809 200.086,169.809 200.085,169.809 C198.264,169.809 196.724,168.69 196.161,166.959 L195.622,165.302 L192.766,166.231 L193.305,167.888 C193.868,169.62 193.281,171.431 191.807,172.502 C190.334,173.574 188.429,173.576 186.956,172.504 L185.546,171.481 L183.781,173.912 L185.191,174.935 C186.665,176.005 187.255,177.816 186.693,179.549 C186.13,181.281 184.59,182.401 182.769,182.402 L181.027,182.403 L181.028,185.406 L182.769,185.405 C182.77,185.405 182.77,185.405 182.771,185.405 C184.592,185.405 186.133,186.524 186.696,188.256 C187.259,189.988 186.672,191.799 185.198,192.87 L183.789,193.895 L185.505,196.254 L186.914,195.23 C188.388,194.158 190.292,194.158 191.765,195.228 C193.24,196.298 193.829,198.109 193.266,199.842 L192.728,201.499 Z M196.87,204.946 L190.209,202.784 L191.364,199.225 C191.716,198.141 191.195,197.286 190.591,196.847 C189.986,196.407 189.012,196.176 188.09,196.848 L185.064,199.048 L180.995,193.454 L184.022,191.253 C184.944,190.583 185.025,189.585 184.794,188.875 C184.563,188.164 183.91,187.405 182.771,187.405 L182.77,187.405 L179.029,187.407 L179.026,180.404 L182.768,180.402 C183.907,180.401 184.559,179.642 184.79,178.932 C185.021,178.221 184.939,177.223 184.016,176.553 L180.989,174.355 L185.102,168.688 L188.131,170.886 C189.051,171.555 190.026,171.324 190.631,170.885 C191.236,170.446 191.756,169.59 191.403,168.507 L190.245,164.948 L196.905,162.782 L198.063,166.34 C198.415,167.423 199.339,167.809 200.085,167.809 C200.086,167.809 200.086,167.809 200.086,167.809 C200.833,167.809 201.757,167.422 202.109,166.338 L203.264,162.779 L209.925,164.94 L208.77,168.5 C208.419,169.584 208.939,170.438 209.544,170.877 C210.147,171.316 211.122,171.545 212.045,170.876 L215.071,168.676 L219.14,174.272 L216.114,176.473 C215.192,177.143 215.111,178.141 215.342,178.852 C215.573,179.562 216.226,180.321 217.365,180.321 L221.107,180.319 L221.11,187.323 L217.367,187.324 C216.228,187.325 215.575,188.084 215.345,188.794 C215.114,189.505 215.197,190.503 216.118,191.172 L219.146,193.371 L215.032,199.038 L212.004,196.839 C211.08,196.169 210.106,196.401 209.504,196.84 C208.899,197.28 208.379,198.135 208.732,199.219 L209.889,202.777 L203.229,204.943 L202.071,201.385 C201.719,200.302 200.796,199.916 200.049,199.916 L200.048,199.916 C199.301,199.916 198.377,200.303 198.026,201.386 L196.87,204.946 Z"/>
    <path fill="#E9886C" d="M200.07,181.863 C199.45,181.863 198.839,182.15 198.448,182.689 C198.135,183.122 198.009,183.65 198.093,184.178 C198.177,184.706 198.462,185.169 198.895,185.482 C199.787,186.128 201.04,185.929 201.687,185.036 C202,184.603 202.127,184.075 202.042,183.547 C201.958,183.02 201.674,182.557 201.241,182.243 C200.887,181.987 200.477,181.863 200.07,181.863 Z M200.062,187.861 C199.249,187.861 198.429,187.614 197.721,187.102 C196.856,186.475 196.286,185.549 196.118,184.494 C195.949,183.438 196.202,182.381 196.829,181.516 C198.122,179.73 200.628,179.33 202.414,180.623 L202.414,180.624 C203.28,181.25 203.849,182.176 204.017,183.231 C204.186,184.287 203.933,185.344 203.306,186.209 C202.526,187.288 201.302,187.861 200.062,187.861 Z"/>
    <path fill="#434A4F" d="M198.22,172.392 C198.18,171.842 198.59,171.362 199.14,171.322 C199.69,171.282 200.17,171.692 200.21,172.242 C200.25,172.792 199.84,173.271 199.29,173.312 C199.26,173.312 199.24,173.312 199.21,173.312 C198.69,173.312 198.26,172.912 198.22,172.392 Z M202.94,173.682 C202.41,173.532 202.1,172.972 202.25,172.442 C202.4,171.912 202.95,171.602 203.49,171.751 C204.02,171.902 204.33,172.452 204.18,172.992 C204.05,173.432 203.65,173.722 203.21,173.722 C203.12,173.722 203.03,173.702 202.94,173.682 Z M194.41,173.712 C194.18,173.212 194.4,172.612 194.91,172.392 C195.41,172.162 196,172.392 196.23,172.892 C196.46,173.402 196.23,173.992 195.73,174.212 C195.59,174.271 195.45,174.302 195.32,174.302 C194.94,174.302 194.57,174.082 194.41,173.712 Z M206.27,175.292 C206.26,175.292 206.26,175.282 206.25,175.282 C205.8,174.952 205.7,174.332 206.02,173.882 C206.34,173.432 206.97,173.332 207.42,173.652 C207.42,173.662 207.43,173.672 207.44,173.672 C207.44,173.672 207.44,173.672 207.45,173.682 C207.89,174.001 207.99,174.632 207.67,175.072 C207.47,175.342 207.17,175.482 206.86,175.482 C206.66,175.482 206.45,175.422 206.27,175.292 Z M191.28,176.262 C190.89,175.862 190.9,175.232 191.3,174.842 C191.69,174.462 192.32,174.472 192.71,174.862 C193.1,175.262 193.09,175.892 192.69,176.282 C192.5,176.472 192.25,176.562 192,176.562 C191.74,176.562 191.47,176.462 191.28,176.262 Z M208.83,177.932 C208.52,177.472 208.64,176.852 209.1,176.542 C209.56,176.232 210.18,176.352 210.49,176.812 C210.8,177.271 210.68,177.892 210.22,178.202 C210.05,178.322 209.85,178.372 209.66,178.372 C209.34,178.372 209.02,178.222 208.83,177.932 Z M189.21,179.722 C188.71,179.482 188.5,178.882 188.74,178.382 C188.98,177.892 189.58,177.682 190.08,177.922 C190.58,178.162 190.78,178.762 190.54,179.262 C190.37,179.612 190.01,179.822 189.64,179.822 C189.49,179.822 189.35,179.792 189.21,179.722 Z M210.33,181.282 C210.19,180.751 210.52,180.202 211.05,180.072 C211.59,179.942 212.13,180.262 212.27,180.802 C212.4,181.332 212.08,181.882 211.54,182.012 C211.46,182.032 211.38,182.042 211.3,182.042 C210.85,182.042 210.44,181.742 210.33,181.282 Z M188.45,183.682 C187.9,183.632 187.5,183.142 187.55,182.592 C187.61,182.042 188.1,181.642 188.65,181.692 C189.2,181.751 189.6,182.242 189.54,182.792 C189.49,183.302 189.05,183.692 188.55,183.692 C188.51,183.692 188.48,183.692 188.45,183.682 Z M211.48,186.052 C210.93,185.992 210.53,185.501 210.59,184.952 C210.65,184.402 211.14,184.001 211.69,184.052 C212.24,184.112 212.63,184.602 212.58,185.152 C212.53,185.672 212.09,186.052 211.58,186.052 C211.55,186.052 211.52,186.052 211.48,186.052 Z M187.87,186.942 C187.74,186.402 188.06,185.862 188.6,185.732 C189.13,185.592 189.68,185.922 189.81,186.452 C189.95,186.992 189.62,187.532 189.09,187.672 C189,187.692 188.92,187.702 188.84,187.702 C188.39,187.702 187.99,187.392 187.87,186.942 Z M210.05,189.822 C209.55,189.572 209.34,188.972 209.58,188.482 C209.82,187.982 210.42,187.771 210.92,188.021 C211.42,188.262 211.62,188.862 211.38,189.352 C211.21,189.712 210.85,189.922 210.48,189.922 C210.34,189.922 210.19,189.882 210.05,189.822 Z M189.66,190.932 C189.35,190.472 189.47,189.852 189.92,189.542 C190.38,189.232 191,189.342 191.31,189.802 C191.62,190.262 191.51,190.882 191.05,191.192 C190.88,191.312 190.68,191.362 190.49,191.362 C190.17,191.362 189.85,191.212 189.66,190.932 Z M207.41,192.872 C207.03,192.472 207.04,191.842 207.43,191.462 C207.83,191.072 208.46,191.082 208.85,191.482 C209.23,191.872 209.22,192.501 208.82,192.892 C208.63,193.082 208.38,193.172 208.13,193.172 C207.87,193.172 207.61,193.072 207.41,192.872 Z M192.7,194.062 C192.26,193.732 192.15,193.112 192.48,192.662 C192.8,192.212 193.43,192.112 193.88,192.442 L193.87,192.442 C194.32,192.762 194.42,193.382 194.1,193.832 C193.9,194.102 193.6,194.242 193.29,194.242 C193.08,194.242 192.88,194.182 192.7,194.062 Z M203.89,194.842 C203.66,194.332 203.89,193.742 204.39,193.512 C204.9,193.292 205.49,193.521 205.72,194.021 C205.94,194.521 205.71,195.122 205.21,195.342 C205.08,195.402 204.94,195.432 204.8,195.432 C204.42,195.432 204.05,195.212 203.89,194.842 Z M196.63,195.962 C196.1,195.812 195.79,195.262 195.94,194.732 C196.09,194.192 196.65,193.892 197.18,194.042 C197.71,194.192 198.02,194.742 197.87,195.271 C197.74,195.712 197.34,196.001 196.91,196.001 C196.81,196.001 196.72,195.992 196.63,195.962 Z M199.91,195.482 C199.87,194.932 200.28,194.452 200.83,194.412 C201.38,194.372 201.86,194.782 201.9,195.342 C201.94,195.892 201.53,196.362 200.98,196.402 C200.95,196.402 200.93,196.412 200.9,196.412 C200.38,196.412 199.94,196.001 199.91,195.482 Z"/>
    <path fill="#42494E" d="M50.588,117.868 C44.665,117.868 39.846,122.686 39.846,128.609 C39.846,134.532 44.665,139.35 50.588,139.35 C56.51,139.35 61.329,134.532 61.329,128.609 C61.329,122.686 56.51,117.868 50.588,117.868 Z M50.588,141.35 C43.562,141.35 37.846,135.634 37.846,128.609 C37.846,121.584 43.562,115.868 50.588,115.868 C57.613,115.868 63.329,121.584 63.329,128.609 C63.329,135.634 57.613,141.35 50.588,141.35 Z"/>
    <path fill="#42494E" d="M50.587,117.868 C47.702,117.868 45.264,122.787 45.264,128.609 C45.264,134.431 47.702,139.35 50.587,139.35 C53.471,139.35 55.908,134.431 55.908,128.609 C55.908,122.787 53.471,117.868 50.587,117.868 Z M50.587,141.35 C46.481,141.35 43.264,135.753 43.264,128.609 C43.264,121.464 46.481,115.868 50.587,115.868 C54.692,115.868 57.908,121.464 57.908,128.609 C57.908,135.753 54.692,141.35 50.587,141.35 Z"/>
    <polygon fill="#42494E" points="38.846 129.609 62.328 129.609 62.328 127.609 38.846 127.609"/>
    <path fill="#42494E" d="M33.89,97.701 C32.236,97.701 30.89,99.047 30.89,100.701 C30.89,102.355 32.236,103.701 33.89,103.701 L89.056,103.701 L95.561,100.701 L89.055,97.701 L33.89,97.701 Z M33.89,105.701 C31.133,105.701 28.89,103.458 28.89,100.701 C28.89,97.944 31.133,95.701 33.89,95.701 L89.494,95.701 L100.338,100.701 L89.494,105.701 L33.89,105.701 Z"/>
    <polygon fill="#42494E" points="39.5 104.701 41.5 104.701 41.5 97.103 39.5 97.103"/>
    <polygon fill="#42494E" points="40.5 101.672 88.506 101.672 88.506 99.672 40.5 99.672"/>
    <polygon fill="#434A4F" points="184.266 62.998 186.266 62.998 186.266 58.998 184.266 58.998"/>
    <polygon fill="#434A4F" points="184.266 72.998 186.266 72.998 186.266 68.998 184.266 68.998"/>
    <polygon fill="#434A4F" points="188.266 66.998 192.266 66.998 192.266 64.998 188.266 64.998"/>
    <polygon fill="#434A4F" points="178.266 66.998 182.266 66.998 182.266 64.998 178.266 64.998"/>
    <polygon fill="#434A4F" points="74.2 183.07 76.2 183.07 76.2 179.07 74.2 179.07"/>
    <polygon fill="#434A4F" points="74.2 193.07 76.2 193.07 76.2 189.07 74.2 189.07"/>
    <polygon fill="#434A4F" points="78.2 187.07 82.2 187.07 82.2 185.07 78.2 185.07"/>
    <polygon fill="#434A4F" points="68.2 187.07 72.2 187.07 72.2 185.07 68.2 185.07"/>
    <polygon fill="#434A4F" points="206.279 143.046 208.279 143.046 208.279 139.046 206.279 139.046"/>
    <polygon fill="#434A4F" points="206.279 153.046 208.279 153.046 208.279 149.046 206.279 149.046"/>
    <polygon fill="#434A4F" points="210.279 147.046 214.279 147.046 214.279 145.046 210.279 145.046"/>
    <polygon fill="#434A4F" points="200.279 147.046 204.279 147.046 204.279 145.046 200.279 145.046"/>
    <path fill="#FACD60" d="M50.501 164.012C50.501 161.987 52.143 160.346 54.167 160.346 56.193 160.346 57.834 161.987 57.834 164.012 57.834 166.037 56.193 167.679 54.167 167.679 52.143 167.679 50.501 166.037 50.501 164.012M161.843 47.607C161.138 47.607 160.567 47.036 160.567 46.331 160.567 45.626 161.138 45.054 161.843 45.054 162.548 45.054 163.119 45.626 163.119 46.331 163.119 47.036 162.548 47.607 161.843 47.607M199.09 107.024C199.09 108.129 198.194 109.024 197.09 109.024 195.985 109.024 195.09 108.129 195.09 107.024 195.09 105.92 195.985 105.024 197.09 105.024 198.194 105.024 199.09 105.92 199.09 107.024M161.09 189.024C161.09 190.129 160.194 191.024 159.09 191.024 157.985 191.024 157.09 190.129 157.09 189.024 157.09 187.92 157.985 187.024 159.09 187.024 160.194 187.024 161.09 187.92 161.09 189.024"/>
    <path fill="#434A4F" d="M125.09 102.441C133.555 102.441 140.547 108.822 141.54 117.024L143.561 117.024C142.559 107.715 134.66 100.441 125.09 100.441 124.537 100.441 124.09 100.889 124.09 101.441 124.09 101.993 124.537 102.441 125.09 102.441M141.54 121.024C140.547 129.227 133.555 135.607 125.09 135.607 115.946 135.607 108.506 128.168 108.506 119.024 108.506 118.472 108.058 118.024 107.506 118.024 106.954 118.024 106.506 118.472 106.506 119.024 106.506 129.271 114.843 137.607 125.09 137.607 134.66 137.607 142.559 130.333 143.561 121.024L141.54 121.024"/>
    <path fill="#434A4F" d="M151.673 117.024L153.678 117.024C152.647 102.148 140.223 90.357 125.09 90.357 109.282 90.357 96.423 103.217 96.423 119.024 96.423 119.577 96.87 120.024 97.423 120.024 97.975 120.024 98.423 119.577 98.423 119.024 98.423 104.32 110.385 92.357 125.09 92.357 139.12 92.357 150.646 103.252 151.673 117.024M151.673 121.024C150.646 134.797 139.12 145.691 125.09 145.691 124.537 145.691 124.09 146.139 124.09 146.691 124.09 147.243 124.537 147.691 125.09 147.691 140.223 147.691 152.647 135.901 153.678 121.024L151.673 121.024"/>
    <path fill="#434A4F" d="M125.09 82.274C144.683 82.274 160.741 97.687 161.783 117.024L163.788 117.024C162.744 96.583 145.786 80.274 125.09 80.274 124.537 80.274 124.09 80.722 124.09 81.274 124.09 81.827 124.537 82.274 125.09 82.274M161.783 121.024C160.741 140.362 144.683 155.774 125.09 155.774 104.825 155.774 88.34 139.289 88.34 119.024 88.34 118.472 87.892 118.024 87.34 118.024 86.787 118.024 86.34 118.472 86.34 119.024 86.34 140.391 103.723 157.774 125.09 157.774 145.786 157.774 162.744 141.465 163.788 121.024L161.783 121.024"/>
    <path fill="#434A4F" d="M171.872 121.024C170.82 145.923 150.243 165.857 125.09 165.857 99.265 165.857 78.256 144.848 78.256 119.024 78.256 118.472 77.808 118.024 77.256 118.024 76.704 118.024 76.256 118.472 76.256 119.024 76.256 145.951 98.163 167.857 125.09 167.857 151.346 167.857 172.818 147.026 173.872 121.024L171.872 121.024M125.09 72.191C150.243 72.191 170.82 92.125 171.872 117.024L173.872 117.024C172.818 91.022 151.346 70.191 125.09 70.191 124.537 70.191 124.09 70.639 124.09 71.191 124.09 71.743 124.537 72.191 125.09 72.191"/>
    <path fill="#434A4F" d="M181.955 117.024L183.955 117.024C182.895 85.462 156.906 60.107 125.09 60.107 92.603 60.107 66.173 86.538 66.173 119.024 66.173 119.577 66.62 120.024 67.173 120.024 67.725 120.024 68.173 119.577 68.173 119.024 68.173 87.64 93.705 62.107 125.09 62.107 155.803 62.107 180.896 86.564 181.955 117.024M181.955 121.024C180.896 151.484 155.803 175.941 125.09 175.941 124.537 175.941 124.09 176.389 124.09 176.941 124.09 177.493 124.537 177.941 125.09 177.941 156.906 177.941 182.895 152.587 183.955 121.024L181.955 121.024"/>
    <path fill="#434A4F" d="M192.039,121.024 C190.975,157.045 161.363,186.024 125.09,186.024 C88.146,186.024 58.09,155.968 58.09,119.024 C58.09,82.081 88.146,52.024 125.09,52.024 C125.642,52.024 126.09,51.577 126.09,51.024 C126.09,50.472 125.642,50.024 125.09,50.024 C87.043,50.024 56.09,80.978 56.09,119.024 C56.09,157.071 87.043,188.024 125.09,188.024 C162.466,188.024 192.974,158.148 194.039,121.024 L192.039,121.024"/>
    <polyline fill="#434A4F" points="203.677 110.024 196.677 117.024 199.505 117.024 204.505 112.024 218.09 112.024 218.09 110.024 203.677 110.024"/>
    <path fill="#D3665D" d="M125.969,121.024 L125.116,121.877 L128.785,125.546 C129.965,124.875 130.944,123.896 131.613,122.716 L129.921,121.024 L125.969,121.024"/>
    <polyline fill="#434A4F" points="213.09 122.024 125.088 122.024 125.088 120.024 211.09 120.024 211.09 116.61 215.676 112.024 204.091 112.024 204.091 110.024 220.504 110.024 213.09 117.438 213.09 122.024"/>
  </g>
</svg>
