<svg xmlns="http://www.w3.org/2000/svg" width="250" height="250" viewBox="0 0 250 250">
  <g fill="none" fill-rule="evenodd">
    <path fill="#434A4F" d="M125.006,155.605 C121.041,155.605 117.815,152.379 117.815,148.414 L117.815,143.223 L104.396,143.223 C103.844,143.223 103.396,142.775 103.396,142.223 L103.396,128.762 L98.163,128.762 C94.197,128.762 90.972,125.536 90.972,121.571 C90.972,117.607 94.197,114.381 98.162,114.38 L104.396,114.38 C104.948,114.38 105.396,114.828 105.396,115.38 C105.396,115.933 104.948,116.38 104.396,116.38 L98.162,116.38 C95.3,116.381 92.972,118.709 92.972,121.571 C92.972,124.434 95.3,126.762 98.163,126.762 L104.396,126.762 C104.661,126.762 104.915,126.867 105.103,127.055 C105.29,127.242 105.396,127.497 105.396,127.762 L105.396,141.223 L118.815,141.223 C119.367,141.223 119.815,141.671 119.815,142.223 L119.815,148.414 C119.815,151.276 122.144,153.605 125.006,153.605 C127.868,153.605 130.197,151.276 130.197,148.414 L130.197,142.223 C130.197,141.671 130.645,141.223 131.197,141.223 L144.668,141.223 L144.668,127.776 C144.668,127.511 144.774,127.257 144.961,127.069 C145.149,126.882 145.403,126.776 145.668,126.776 L151.859,126.777 C154.721,126.777 157.05,124.448 157.05,121.586 C157.05,118.724 154.721,116.395 151.859,116.395 L145.668,116.395 C145.116,116.395 144.668,115.947 144.668,115.395 L144.668,101.951 L131.224,101.951 C130.672,101.951 130.224,101.503 130.224,100.951 L130.224,94.76 C130.224,93.373 129.684,92.07 128.704,91.09 C127.723,90.109 126.42,89.569 125.033,89.569 C122.171,89.569 119.843,91.898 119.843,94.76 L119.843,100.951 C119.843,101.503 119.395,101.951 118.843,101.951 L104.396,101.951 C103.844,101.951 103.396,101.503 103.396,100.951 C103.396,100.399 103.844,99.951 104.396,99.951 L117.843,99.951 L117.843,94.76 C117.843,90.795 121.068,87.569 125.033,87.569 C126.954,87.569 128.76,88.317 130.118,89.675 C131.476,91.034 132.224,92.839 132.224,94.76 L132.224,99.951 L145.668,99.951 C146.22,99.951 146.668,100.399 146.668,100.951 L146.668,114.395 L151.859,114.395 C155.824,114.395 159.05,117.621 159.05,121.585 C159.05,125.551 155.824,128.777 151.859,128.777 L146.668,128.776 L146.668,142.223 C146.668,142.775 146.22,143.223 145.668,143.223 L132.197,143.223 L132.197,148.414 C132.197,152.379 128.971,155.605 125.006,155.605"/>
    <path fill="#434A4F" d="M132.224,99.951 L144.668,99.951 L144.668,84.442 C144.668,83.89 145.116,83.442 145.668,83.442 L151.859,83.442 C154.721,83.442 157.05,81.113 157.05,78.251 C157.05,75.389 154.721,73.06 151.859,73.06 L145.668,73.06 C145.116,73.06 144.668,72.613 144.668,72.061 L144.668,58.448 L131.27,58.448 C131.005,58.448 130.751,58.342 130.563,58.155 C130.376,57.967 130.27,57.713 130.27,57.448 L130.271,51.528 C130.271,48.665 127.942,46.337 125.08,46.337 C122.218,46.337 119.889,48.665 119.889,51.528 L119.889,57.448 C119.889,58 119.441,58.448 118.889,58.448 L105.382,58.448 L105.382,72.058 C105.382,72.61 104.934,73.058 104.382,73.058 L98.191,73.058 C95.329,73.058 93,75.386 93,78.249 C93,81.111 95.329,83.439 98.191,83.439 L104.396,83.439 C104.948,83.439 105.396,83.887 105.396,84.439 L105.396,99.951 L117.843,99.951 L117.843,94.76 C117.843,90.795 121.068,87.569 125.033,87.569 C128.998,87.569 132.224,90.795 132.224,94.76 L132.224,99.951 Z M145.668,101.951 L131.224,101.951 C130.672,101.951 130.224,101.503 130.224,100.951 L130.224,94.76 C130.224,91.898 127.896,89.569 125.033,89.569 C122.171,89.569 119.843,91.898 119.843,94.76 L119.843,100.951 C119.843,101.503 119.395,101.951 118.843,101.951 L104.396,101.951 C103.844,101.951 103.396,101.503 103.396,100.951 L103.396,85.439 L98.191,85.439 C94.226,85.439 91,82.213 91,78.249 C91,74.284 94.226,71.058 98.191,71.058 L103.382,71.058 L103.382,57.448 C103.382,56.896 103.83,56.448 104.382,56.448 L117.889,56.448 L117.889,51.528 C117.889,47.563 121.115,44.337 125.08,44.337 C129.045,44.337 132.271,47.563 132.271,51.528 L132.27,56.448 L145.668,56.448 C146.22,56.448 146.668,56.896 146.668,57.448 L146.668,71.061 L151.859,71.061 C155.824,71.061 159.05,74.286 159.05,78.251 C159.05,82.216 155.824,85.442 151.859,85.442 L146.668,85.442 L146.668,100.951 C146.668,101.503 146.22,101.951 145.668,101.951 Z"/>
    <path fill="#434A4F" d="M146.668 141.223L162.177 141.223C162.729 141.223 163.177 141.671 163.177 142.223L163.177 148.414C163.177 151.276 165.506 153.605 168.368 153.605 171.23 153.605 173.559 151.276 173.559 148.414L173.559 142.223C173.559 141.671 174.007 141.223 174.559 141.223L188.046 141.223 188.046 127.989C188.046 127.437 188.494 126.989 189.046 126.989L195.237 126.989C198.099 126.989 200.427 124.661 200.427 121.798 200.427 120.412 199.888 119.108 198.907 118.128 197.927 117.148 196.624 116.608 195.237 116.608L189.046 116.608C188.494 116.608 188.046 116.16 188.046 115.608L188.046 101.729 175.559 101.729 175.559 107.142C175.559 111.106 172.333 114.333 168.368 114.333 164.403 114.333 161.177 111.106 161.177 107.142L161.177 101.729 146.668 101.729 146.668 114.397 151.859 114.397C155.824 114.397 159.05 117.624 159.05 121.588 159.05 125.553 155.824 128.779 151.859 128.779L146.668 128.779 146.668 141.223zM168.368 155.605C164.403 155.605 161.177 152.379 161.177 148.414L161.177 143.223 145.668 143.223C145.116 143.223 144.668 142.775 144.668 142.223L144.668 127.779C144.668 127.227 145.116 126.779 145.668 126.779L151.859 126.779C154.721 126.779 157.05 124.451 157.05 121.588 157.05 118.726 154.721 116.397 151.859 116.397L145.668 116.397C145.116 116.397 144.668 115.95 144.668 115.397L144.668 101.322C144.546 101.156 144.473 100.951 144.473 100.729 144.473 100.176 144.921 99.729 145.473 99.729L162.177 99.729C162.443 99.729 162.697 99.834 162.885 100.021 163.072 100.209 163.177 100.463 163.177 100.729L163.177 107.142C163.177 110.004 165.506 112.333 168.368 112.333 171.23 112.333 173.559 110.004 173.559 107.142L173.559 100.729C173.559 100.176 174.007 99.729 174.559 99.729L189.046 99.729C189.598 99.729 190.046 100.176 190.046 100.729L190.046 114.608 195.237 114.608C197.158 114.608 198.964 115.356 200.322 116.714 201.68 118.072 202.428 119.878 202.427 121.798 202.427 125.763 199.202 128.989 195.237 128.989L190.046 128.989 190.046 142.223C190.046 142.775 189.598 143.223 189.046 143.223L175.559 143.223 175.559 148.414C175.559 152.379 172.333 155.605 168.368 155.605zM62 141.223L75.488 141.223C76.04 141.223 76.488 141.671 76.488 142.223L76.488 148.454C76.488 151.316 78.816 153.645 81.678 153.645 84.541 153.645 86.869 151.316 86.869 148.454L86.869 142.223C86.869 141.671 87.317 141.223 87.869 141.223L103.396 141.223 103.396 128.762 98.163 128.762C94.197 128.762 90.972 125.536 90.972 121.571 90.972 117.607 94.197 114.381 98.162 114.38L103.396 114.38 103.396 101.951 88.868 101.951 88.868 107.18C88.869 111.13 85.645 114.356 81.681 114.372 79.773 114.348 77.945 113.636 76.584 112.281 75.231 110.933 74.485 109.138 74.485 107.227L74.484 101.951 62.054 101.951 62 115.719C61.998 116.27 61.55 116.715 61 116.715L54.809 116.715C51.946 116.715 49.618 119.044 49.618 121.906 49.618 124.768 51.946 127.097 54.809 127.097L61 127.097C61.552 127.097 62 127.544 62 128.097L62 141.223zM81.678 155.645C77.713 155.645 74.488 152.419 74.488 148.454L74.488 143.223 61 143.223C60.447 143.223 60 142.775 60 142.223L60 129.097 54.809 129.097C50.844 129.097 47.618 125.871 47.618 121.906 47.618 117.941 50.844 114.715 54.809 114.715L60.004 114.715 60.058 100.947C60.06 100.396 60.508 99.951 61.058 99.951L75.484 99.951C76.036 99.951 76.484 100.399 76.484 100.951L76.485 107.227C76.485 108.602 77.022 109.894 77.996 110.864 78.976 111.841 80.272 112.392 81.674 112.372 84.538 112.36 86.869 110.032 86.868 107.18L86.868 100.951C86.868 100.686 86.973 100.432 87.161 100.244 87.348 100.057 87.603 99.951 87.868 99.951L104.396 99.951C104.948 99.951 105.396 100.399 105.396 100.951L105.396 115.38C105.396 115.933 104.948 116.38 104.396 116.38L98.162 116.38C95.3 116.381 92.972 118.709 92.972 121.571 92.972 124.434 95.3 126.762 98.163 126.762L104.396 126.762C104.661 126.762 104.915 126.867 105.103 127.055 105.29 127.242 105.396 127.497 105.396 127.762L105.396 142.223C105.396 142.775 104.948 143.223 104.396 143.223L88.869 143.223 88.869 148.454C88.869 152.419 85.643 155.645 81.678 155.645z"/>
    <path fill="#434A4F" d="M145.668 185.561L145.678 185.561 145.668 185.561zM105.395 184.563L120.177 184.608C120.728 184.609 121.174 185.057 121.174 185.608L121.174 191.799C121.174 194.661 123.503 196.99 126.365 196.99 129.227 196.99 131.555 194.661 131.555 191.799L131.555 185.608C131.555 185.057 132.001 184.61 132.552 184.608L144.668 184.564 144.668 172.114 139.477 172.114C135.512 172.114 132.286 168.888 132.286 164.923 132.286 160.958 135.512 157.732 139.477 157.732L144.668 157.732 144.668 143.223 132.197 143.223 132.197 148.414C132.197 152.379 128.971 155.605 125.006 155.605 121.041 155.605 117.815 152.379 117.815 148.414L117.815 143.223 105.396 143.223 105.396 158.781C105.396 159.333 104.948 159.781 104.396 159.781L98.197 159.781C95.335 159.781 93.006 162.11 93.006 164.972 93.006 167.834 95.335 170.163 98.197 170.163L104.395 170.163C104.948 170.163 105.395 170.611 105.395 171.163L105.395 184.563zM126.365 198.99C122.4 198.99 119.174 195.764 119.174 191.799L119.174 186.605 104.392 186.561C103.841 186.559 103.395 186.112 103.395 185.561L103.395 172.163 98.197 172.163C94.232 172.163 91.006 168.937 91.006 164.972 91.006 161.007 94.232 157.781 98.197 157.781L103.396 157.781 103.396 142.223C103.396 141.671 103.844 141.223 104.396 141.223L118.815 141.223C119.367 141.223 119.815 141.671 119.815 142.223L119.815 148.414C119.815 151.276 122.144 153.605 125.006 153.605 127.868 153.605 130.197 151.276 130.197 148.414L130.197 142.223C130.197 141.671 130.645 141.223 131.197 141.223L145.668 141.223C146.22 141.223 146.668 141.671 146.668 142.223L146.668 158.732C146.668 159.285 146.22 159.732 145.668 159.732L139.477 159.732C136.615 159.732 134.286 162.061 134.286 164.923 134.286 167.786 136.615 170.114 139.477 170.114L145.668 170.114C146.22 170.114 146.668 170.562 146.668 171.114L146.668 185.561C146.668 186.111 146.223 186.559 145.672 186.561L133.555 186.604 133.555 191.799C133.555 195.764 130.33 198.99 126.365 198.99zM60.973 102.108C60.421 102.108 59.973 101.66 59.973 101.108L59.973 85.501 54.782 85.501C50.817 85.501 47.591 82.275 47.591 78.31 47.591 77.758 48.039 77.311 48.591 77.311 49.143 77.311 49.591 77.758 49.591 78.31 49.591 81.172 51.92 83.501 54.782 83.501L60.973 83.501C61.525 83.501 61.973 83.949 61.973 84.501L61.973 101.108C61.973 101.66 61.525 102.108 60.973 102.108M81.333 70.759C77.368 70.759 74.142 67.533 74.142 63.568L74.142 57.377C74.142 56.825 74.59 56.377 75.142 56.377 75.694 56.377 76.142 56.825 76.142 57.377L76.142 63.568C76.142 66.43 78.47 68.759 81.333 68.759 84.195 68.759 86.524 66.43 86.524 63.568L86.523 57.377C86.523 57.112 86.629 56.857 86.816 56.67 87.004 56.482 87.258 56.377 87.523 56.377L104.333 56.377C104.885 56.377 105.333 56.825 105.333 57.377 105.333 57.93 104.885 58.377 104.333 58.377L88.523 58.377 88.524 63.568C88.524 67.533 85.298 70.759 81.333 70.759M188.993 101.926C188.441 101.926 187.993 101.479 187.993 100.926L187.993 85.481 182.802 85.481C178.837 85.481 175.612 82.255 175.612 78.29 175.612 74.326 178.837 71.1 182.802 71.1L187.993 71.099 187.993 58.444 172.954 58.444C172.402 58.444 171.954 57.996 171.954 57.444L171.954 51.253C171.953 48.391 169.625 46.062 166.762 46.062 163.901 46.062 161.572 48.391 161.572 51.253L161.572 57.444C161.572 57.709 161.467 57.963 161.279 58.151 161.092 58.338 160.837 58.444 160.572 58.444L146.128 58.443C145.576 58.443 145.128 57.996 145.128 57.443 145.128 56.891 145.576 56.443 146.128 56.443L159.572 56.444 159.572 51.253C159.572 47.288 162.798 44.062 166.762 44.062 170.727 44.062 173.953 47.288 173.954 51.253L173.954 56.444 188.993 56.444C189.546 56.444 189.993 56.892 189.993 57.444L189.993 72.099C189.993 72.651 189.546 73.099 188.993 73.099L182.802 73.1C179.94 73.1 177.612 75.428 177.612 78.29 177.612 81.153 179.94 83.481 182.802 83.481L188.993 83.481C189.259 83.481 189.513 83.586 189.7 83.774 189.888 83.961 189.993 84.216 189.993 84.481L189.993 100.926C189.993 101.479 189.546 101.926 188.993 101.926"/>
    <path fill="#434A4F" d="M81.812 198.989C77.847 198.989 74.621 195.764 74.62 191.799L74.62 186.608 60.95 186.608C60.398 186.608 59.95 186.16 59.95 185.608L59.95 172.5 54.759 172.5C50.795 172.5 47.569 169.275 47.569 165.31 47.569 161.345 50.795 158.119 54.759 158.119L59.95 158.119 59.95 142.607C59.95 142.055 60.398 141.607 60.95 141.607 61.503 141.607 61.95 142.055 61.95 142.607L61.95 159.119C61.95 159.671 61.503 160.119 60.95 160.119L54.759 160.119C51.897 160.119 49.569 162.448 49.569 165.31 49.569 168.172 51.897 170.5 54.759 170.5L60.95 170.5C61.502 170.5 61.95 170.948 61.95 171.5L61.95 184.608 75.62 184.608C76.173 184.608 76.62 185.056 76.62 185.608L76.62 191.799C76.621 194.661 78.949 196.989 81.812 196.989 84.674 196.989 87.002 194.661 87.002 191.798L87.002 185.608C87.002 185.056 87.45 184.608 88.002 184.608L104.448 184.608C105 184.608 105.448 185.056 105.448 185.608 105.448 186.16 105 186.608 104.448 186.608L89.002 186.608 89.002 191.798C89.002 195.763 85.777 198.989 81.812 198.989M179.086 205.002C179.342 205.002 179.597 205.1 179.793 205.295L189.327 214.829 200.24 203.917C200.63 203.526 201.263 203.526 201.654 203.917L206.031 208.294C208.055 210.317 211.348 210.318 213.373 208.294 215.396 206.27 215.396 202.977 213.373 200.953L208.995 196.576C208.807 196.388 208.702 196.134 208.702 195.869 208.702 195.604 208.807 195.349 208.995 195.162L218.586 185.571 209.32 176.304C208.929 175.914 208.929 175.281 209.32 174.89L213.368 170.841C214.349 169.861 214.889 168.558 214.889 167.171 214.889 165.784 214.349 164.481 213.369 163.5 211.345 161.477 208.052 161.477 206.028 163.5L201.978 167.549C201.588 167.94 200.955 167.94 200.564 167.549L189.33 156.315 180.5 165.145 184.171 168.815C186.974 171.619 186.974 176.181 184.17 178.985 181.366 181.789 176.805 181.789 174.001 178.985L170.331 175.314 160.071 185.574 171.037 196.54C171.428 196.931 171.428 197.563 171.037 197.954L166.66 202.332C165.679 203.312 165.139 204.616 165.139 206.002 165.139 207.389 165.679 208.692 166.66 209.673 167.64 210.653 168.944 211.193 170.33 211.193 171.717 211.193 173.02 210.653 174.001 209.672L178.379 205.295C178.574 205.1 178.83 205.002 179.086 205.002zM189.271 217.299C189.087 217.299 188.902 217.249 188.737 217.145 188.555 217.03 188.421 216.864 188.344 216.675L179.086 207.416 175.415 211.086C174.057 212.445 172.251 213.193 170.33 213.193 168.409 213.193 166.604 212.445 165.246 211.087 162.442 208.283 162.442 203.721 165.246 200.917L168.916 197.247 157.95 186.281C157.762 186.093 157.657 185.839 157.657 185.574 157.657 185.309 157.762 185.054 157.95 184.867L169.624 173.193C170.014 172.803 170.647 172.803 171.038 173.193L175.415 177.571C177.44 179.594 180.732 179.594 182.756 177.571 184.78 175.547 184.78 172.253 182.757 170.229L178.379 165.852C178.191 165.665 178.086 165.41 178.086 165.145 178.086 164.88 178.191 164.625 178.379 164.438L188.623 154.194C189.013 153.804 189.646 153.804 190.037 154.194L201.271 165.428 204.614 162.086C207.417 159.283 211.979 159.283 214.783 162.086 216.141 163.444 216.889 165.25 216.889 167.171 216.889 169.092 216.141 170.897 214.782 172.255L211.441 175.597 220.707 184.864C220.895 185.051 221 185.306 221 185.571 221 185.836 220.895 186.09 220.707 186.278L211.116 195.869 214.787 199.539C217.59 202.342 217.59 206.904 214.787 209.708 211.984 212.512 207.422 212.513 204.617 209.708L200.947 206.038 189.978 217.006C189.785 217.199 189.529 217.299 189.271 217.299z"/>
    <path fill="#FACD60" d="M64,128.097 L64,139.223 L75.487,139.223 C77.144,139.223 78.487,140.567 78.487,142.223 L78.487,148.453 C78.487,150.213 79.919,151.644 81.678,151.644 L81.679,151.644 C82.531,151.644 83.332,151.312 83.935,150.71 C84.537,150.107 84.869,149.306 84.869,148.454 L84.869,142.223 C84.869,140.567 86.212,139.223 87.869,139.223 L101.396,139.223 L101.396,130.762 L98.162,130.762 C95.8,130.762 93.58,129.869 91.869,128.256 C91.801,128.192 91.729,128.136 91.664,128.07 C90.796,127.202 90.123,126.191 89.667,125.09 C89.211,123.99 88.972,122.799 88.972,121.571 C88.972,116.504 93.095,112.381 98.163,112.381 L101.396,112.38 L101.396,103.951 L90.868,103.951 L90.868,107.179 C90.869,112.228 86.751,116.352 81.689,116.371 C79.231,116.342 76.913,115.432 75.173,113.699 C73.44,111.972 72.485,109.674 72.484,107.227 L72.484,103.951 L64.046,103.951 L64,115.727 C63.993,117.379 62.652,118.715 61,118.715 L54.809,118.715 C53.956,118.715 53.155,119.047 52.552,119.65 C51.95,120.252 51.618,121.053 51.618,121.906 C51.618,123.665 53.049,125.097 54.809,125.097 L61,125.097 C62.657,125.097 64,126.44 64,128.097"/>
    <path fill="#75C7D0" d="M91.698,171.471 C89.962,169.736 89.006,167.428 89.006,164.972 C89.006,159.905 93.129,155.782 98.197,155.782 L101.396,155.782 L101.396,145.223 L90.869,145.223 L90.869,148.454 C90.869,150.909 89.913,153.217 88.177,154.953 C86.441,156.688 84.133,157.644 81.679,157.644 L81.678,157.644 C76.61,157.644 72.487,153.521 72.487,148.453 L72.487,145.223 L63.95,145.223 L63.95,159.118 C63.95,160.775 62.607,162.118 60.951,162.118 L54.76,162.119 C53,162.119 51.568,163.551 51.568,165.31 C51.568,166.162 51.9,166.963 52.503,167.566 C53.106,168.169 53.907,168.5 54.759,168.5 L60.95,168.5 C61.746,168.5 62.509,168.816 63.071,169.379 C63.634,169.942 63.95,170.705 63.95,171.5 L63.95,182.608 L75.62,182.608 C77.277,182.608 78.62,183.951 78.62,185.608 L78.62,191.799 C78.621,193.558 80.052,194.99 81.812,194.99 C82.664,194.99 83.465,194.657 84.068,194.055 C84.67,193.452 85.002,192.651 85.002,191.799 L85.002,185.608 C85.002,184.812 85.318,184.049 85.881,183.487 C86.443,182.924 87.206,182.608 88.002,182.608 L101.395,182.608 L101.396,174.163 L98.197,174.163 C95.742,174.163 93.434,173.207 91.698,171.471"/>
    <path fill="#E9886C" d="M161.05,78.251 C161.05,83.319 156.927,87.442 151.859,87.442 L148.668,87.442 L148.668,97.728 L162.177,97.728 C163.834,97.728 165.177,99.072 165.177,100.728 L165.177,107.142 C165.177,108.901 166.609,110.333 168.368,110.333 C170.128,110.333 171.559,108.901 171.559,107.142 L171.559,100.728 C171.559,99.072 172.902,97.728 174.559,97.728 L185.993,97.728 L185.993,87.481 L182.802,87.481 C177.735,87.481 173.612,83.358 173.612,78.291 C173.612,73.223 177.735,69.1 182.802,69.099 L185.993,69.099 L185.993,60.444 L172.954,60.444 C171.297,60.444 169.954,59.1 169.954,57.444 L169.954,51.253 C169.954,49.493 168.522,48.062 166.763,48.062 C165.91,48.062 165.109,48.394 164.506,48.997 C163.904,49.599 163.572,50.401 163.572,51.253 L163.572,57.444 C163.572,58.239 163.256,59.002 162.694,59.565 C162.131,60.128 161.368,60.444 160.572,60.444 L148.668,60.444 L148.668,69.06 L151.859,69.06 C156.927,69.06 161.05,73.183 161.05,78.251"/>
    <path fill="#FACD60" d="M95 78.249C95 80.008 96.432 81.44 98.191 81.44L104.396 81.44C105.191 81.44 105.954 81.756 106.517 82.319 107.08 82.881 107.396 83.644 107.396 84.44L107.396 97.951 115.842 97.951 115.842 94.76C115.842 94.126 115.907 93.508 116.029 92.91 116.765 89.324 119.597 86.492 123.183 85.756 123.781 85.634 124.4 85.569 125.033 85.569 130.101 85.569 134.224 89.692 134.224 94.76L134.224 97.951 142.668 97.951 142.668 84.442C142.668 82.785 144.011 81.442 145.668 81.442L151.859 81.442C153.619 81.442 155.05 80.01 155.05 78.251 155.05 76.492 153.619 75.06 151.859 75.06L145.668 75.06C144.873 75.06 144.11 74.744 143.547 74.181 142.984 73.619 142.668 72.856 142.668 72.06L142.668 60.447 131.27 60.447C130.475 60.447 129.712 60.132 129.149 59.569 128.586 59.006 128.27 58.243 128.27 57.447L128.271 51.528C128.271 50.675 127.939 49.874 127.336 49.271 126.733 48.669 125.932 48.337 125.08 48.337 123.32 48.337 121.889 49.768 121.889 51.528L121.889 57.447C121.889 59.104 120.546 60.447 118.889 60.447L107.382 60.447 107.382 72.058C107.382 72.853 107.066 73.617 106.503 74.179 105.941 74.742 105.178 75.058 104.382 75.058L98.191 75.058C96.432 75.058 95 76.49 95 78.249M134.197 148.414C134.197 153.482 130.074 157.605 125.006 157.605 119.938 157.605 115.815 153.482 115.815 148.414L115.815 145.223 107.396 145.223 107.396 158.782C107.396 160.438 106.052 161.782 104.396 161.782L98.197 161.782C96.438 161.782 95.006 163.213 95.006 164.972 95.006 165.825 95.338 166.626 95.941 167.229 96.543 167.831 97.344 168.163 98.197 168.163L104.396 168.163C105.191 168.163 105.954 168.479 106.517 169.042 107.079 169.605 107.396 170.368 107.396 171.163L107.395 182.57 120.183 182.608C121.836 182.613 123.174 183.955 123.174 185.608L123.174 191.799C123.174 193.558 124.605 194.99 126.365 194.99 128.124 194.99 129.556 193.558 129.556 191.799L129.556 185.608C129.556 183.955 130.892 182.614 132.545 182.608L142.668 182.572 142.668 174.114 139.477 174.114C134.409 174.114 130.286 169.991 130.286 164.923 130.286 159.855 134.409 155.732 139.477 155.732L142.668 155.732 142.668 145.223 134.197 145.223 134.197 148.414"/>
    <path fill="#FACD60" d="M63.094 82.379C63.657 82.942 63.973 83.705 63.973 84.501L63.973 97.951 75.484 97.951C77.141 97.951 78.484 99.294 78.484 100.95L78.484 107.226C78.485 108.066 78.812 108.855 79.407 109.448 80.006 110.044 80.803 110.371 81.653 110.371 81.658 110.371 81.662 110.371 81.666 110.371 83.432 110.365 84.869 108.933 84.868 107.18L84.868 100.951C84.868 100.156 85.184 99.392 85.746 98.83 86.309 98.267 87.072 97.951 87.868 97.951L101.396 97.951 101.396 87.44 98.191 87.44C93.123 87.44 89 83.317 89 78.249 89 73.181 93.123 69.058 98.191 69.058L101.382 69.058 101.382 60.377 90.523 60.377 90.524 63.568C90.524 66.023 89.568 68.331 87.832 70.067 86.096 71.802 83.788 72.759 81.333 72.759 76.265 72.759 72.142 68.635 72.142 63.568L72.142 60.377 63.973 60.377 63.973 72.119C63.973 73.776 62.63 75.119 60.973 75.119L54.783 75.119C53.023 75.119 51.591 76.551 51.591 78.31 51.591 80.07 53.023 81.501 54.782 81.501L60.973 81.501C61.768 81.501 62.532 81.817 63.094 82.379M151.859 124.777C152.221 124.777 152.57 124.705 152.902 124.59 152.963 124.568 153.028 124.557 153.087 124.532 153.212 124.48 153.328 124.408 153.445 124.341 153.507 124.305 153.575 124.278 153.634 124.238 153.805 124.123 153.966 123.991 154.115 123.842 154.263 123.694 154.394 123.534 154.508 123.365 154.576 123.264 154.626 123.152 154.683 123.043 154.721 122.969 154.769 122.899 154.801 122.821 154.853 122.698 154.885 122.566 154.922 122.435 154.941 122.364 154.971 122.296 154.986 122.222 155.022 122.044 155.037 121.859 155.042 121.671 155.042 121.643 155.05 121.616 155.05 121.587 155.049 119.828 153.618 118.398 151.859 118.398L145.668 118.398C144.873 118.398 144.109 118.082 143.547 117.519 143.312 117.283 143.131 117.008 142.987 116.715 142.96 116.661 142.925 116.612 142.902 116.556 142.852 116.437 142.822 116.312 142.788 116.188 142.77 116.122 142.742 116.06 142.729 115.993 142.689 115.798 142.668 115.599 142.668 115.398L142.668 103.951 131.224 103.951C129.567 103.951 128.224 102.608 128.224 100.951L128.224 94.76C128.224 93.001 126.793 91.569 125.033 91.569 123.714 91.569 122.579 92.374 122.094 93.519 121.932 93.901 121.842 94.32 121.842 94.76L121.842 100.951C121.842 102.608 120.499 103.951 118.842 103.951L107.396 103.951 107.396 115.38C107.396 115.587 107.375 115.789 107.335 115.985 107.055 117.352 105.846 118.38 104.396 118.38L98.163 118.381C96.403 118.381 94.972 119.812 94.972 121.571 94.972 122.424 95.304 123.225 95.907 123.828 96.208 124.129 96.559 124.363 96.941 124.521 97.323 124.679 97.737 124.762 98.162 124.762L104.396 124.762C105.191 124.762 105.954 125.078 106.517 125.641 107.08 126.203 107.396 126.967 107.396 127.762L107.396 139.223 118.815 139.223C120.472 139.223 121.815 140.567 121.815 142.223L121.815 148.414C121.815 150.174 123.246 151.605 125.006 151.605 126.765 151.605 128.197 150.174 128.197 148.414L128.197 142.223C128.197 140.567 129.54 139.223 131.197 139.223L142.668 139.223 142.668 127.777C142.668 126.12 144.011 124.777 145.668 124.777L151.859 124.777"/>
    <path fill="#E9886C" d="M207.026,175.597 C207.026,174.801 207.343,174.039 207.905,173.476 L211.954,169.427 C212.557,168.824 212.889,168.023 212.889,167.171 C212.889,166.319 212.557,165.518 211.955,164.915 C210.71,163.671 208.686,163.671 207.442,164.915 L203.393,168.964 C202.221,170.135 200.322,170.135 199.15,168.964 L189.33,159.144 L183.329,165.145 L185.585,167.401 C187.321,169.137 188.277,171.445 188.277,173.9 C188.277,176.355 187.321,178.663 185.585,180.399 C183.849,182.135 181.541,183.091 179.086,183.091 C176.631,183.091 174.323,182.135 172.587,180.399 L170.331,178.143 L162.9,185.574 L172.452,195.126 C173.014,195.689 173.33,196.452 173.33,197.247 C173.33,198.043 173.014,198.806 172.452,199.369 L168.074,203.746 C167.471,204.349 167.14,205.15 167.14,206.002 C167.14,206.854 167.471,207.656 168.074,208.258 C169.318,209.503 171.343,209.502 172.587,208.258 L176.964,203.881 C177.55,203.295 178.318,203.002 179.086,203.002 C179.853,203.002 180.621,203.295 181.207,203.881 L189.327,212.001 L198.825,202.503 C199.997,201.331 201.896,201.331 203.068,202.502 L207.446,206.88 C208.651,208.086 210.753,208.085 211.958,206.88 C212.561,206.277 212.893,205.475 212.893,204.623 C212.893,203.771 212.561,202.97 211.959,202.367 L207.581,197.99 C207.018,197.428 206.702,196.665 206.702,195.869 C206.702,195.073 207.018,194.31 207.581,193.747 L215.758,185.571 L207.905,177.719 C207.342,177.156 207.026,176.393 207.026,175.597"/>
    <path fill="#75C7D0" d="M165.177,142.223 L165.177,148.414 C165.177,150.174 166.609,151.605 168.368,151.605 C170.127,151.605 171.559,150.174 171.559,148.414 L171.559,142.223 C171.559,140.567 172.902,139.223 174.559,139.223 L186.046,139.223 L186.046,127.99 C186.046,126.333 187.389,124.99 189.046,124.99 L195.237,124.99 C196.996,124.99 198.428,123.558 198.428,121.799 C198.428,120.039 196.996,118.608 195.237,118.608 L189.046,118.608 C188.25,118.608 187.487,118.292 186.925,117.729 C186.362,117.166 186.046,116.403 186.046,115.608 L186.046,103.728 L177.559,103.728 L177.559,107.142 C177.559,112.21 173.436,116.333 168.368,116.333 C163.3,116.333 159.177,112.21 159.177,107.142 L159.177,103.728 L148.668,103.728 L148.668,112.394 L151.859,112.395 C156.927,112.395 161.05,116.518 161.05,121.586 L161.05,121.587 C161.05,121.588 161.05,121.588 161.05,121.589 C161.05,121.614 161.046,121.637 161.046,121.662 C161.044,121.949 161.031,122.234 161.003,122.515 C160.996,122.59 160.98,122.662 160.971,122.736 C160.942,122.969 160.911,123.201 160.864,123.429 C160.856,123.47 160.843,123.51 160.834,123.55 C160.465,125.255 159.621,126.822 158.358,128.085 C157.505,128.938 156.512,129.6 155.433,130.056 C155.204,130.152 154.97,130.235 154.734,130.312 C154.681,130.33 154.63,130.352 154.576,130.368 C154.399,130.423 154.217,130.464 154.036,130.508 C153.918,130.537 153.803,130.572 153.683,130.596 C153.581,130.616 153.477,130.626 153.374,130.643 C152.88,130.726 152.376,130.779 151.859,130.779 L148.668,130.779 L148.668,139.223 L162.177,139.223 C163.834,139.223 165.177,140.567 165.177,142.223"/>
    <path fill="#434A4F" d="M42.703,71.42 L45.559,72.348 L46.097,70.691 C46.66,68.958 48.2,67.838 50.022,67.838 L50.023,67.838 C51.844,67.838 53.385,68.956 53.948,70.688 L54.487,72.345 L57.342,71.416 L56.803,69.759 C56.241,68.027 56.828,66.216 58.301,65.145 C59.775,64.074 61.68,64.072 63.153,65.143 L64.563,66.166 L66.327,63.736 L64.918,62.712 C63.444,61.642 62.855,59.831 63.417,58.099 C63.979,56.366 65.52,55.246 67.341,55.246 L69.083,55.245 L69.083,52.242 L67.341,52.243 C67.34,52.243 67.34,52.243 67.339,52.243 C65.518,52.243 63.978,51.124 63.414,49.393 C62.851,47.66 63.439,45.849 64.912,44.777 L66.321,43.753 L64.604,41.391 L63.195,42.415 C61.722,43.487 59.818,43.488 58.343,42.417 C56.869,41.348 56.28,39.537 56.842,37.804 L57.38,36.147 L54.523,35.22 L53.986,36.877 C53.423,38.61 51.883,39.73 50.061,39.73 L50.06,39.73 C48.239,39.731 46.699,38.612 46.135,36.88 L45.596,35.224 L42.74,36.153 L43.279,37.81 C43.842,39.541 43.255,41.353 41.782,42.424 C40.309,43.496 38.405,43.497 36.93,42.426 L35.52,41.403 L33.756,43.833 L35.166,44.857 C36.64,45.927 37.229,47.738 36.667,49.471 C36.104,51.203 34.564,52.323 32.743,52.324 L31.001,52.324 L31.002,55.328 L32.744,55.327 C32.745,55.327 32.745,55.327 32.746,55.327 C34.567,55.327 36.107,56.445 36.67,58.177 C37.234,59.909 36.646,61.721 35.173,62.792 L33.764,63.816 L35.479,66.176 L36.888,65.151 C38.362,64.081 40.266,64.08 41.741,65.15 C43.214,66.221 43.803,68.031 43.241,69.764 L42.703,71.42 Z M46.845,74.868 L40.183,72.706 L41.338,69.146 C41.69,68.063 41.17,67.207 40.565,66.769 C39.961,66.329 38.986,66.098 38.064,66.77 L35.038,68.97 L30.97,63.375 L33.997,61.174 C34.918,60.504 34.999,59.506 34.768,58.795 C34.537,58.085 33.884,57.327 32.746,57.327 L32.745,57.327 L29.003,57.329 L29,50.325 L32.742,50.324 C33.882,50.323 34.534,49.564 34.764,48.854 C34.995,48.143 34.913,47.145 33.991,46.475 L30.962,44.277 L35.077,38.61 L38.105,40.808 C39.026,41.476 40.001,41.246 40.606,40.807 C41.21,40.367 41.73,39.512 41.377,38.429 L40.219,34.87 L46.879,32.703 L48.037,36.261 C48.389,37.345 49.313,37.73 50.06,37.73 C50.06,37.73 50.06,37.73 50.061,37.73 C50.808,37.73 51.732,37.344 52.083,36.26 L53.238,32.701 L59.9,34.862 L58.744,38.421 C58.393,39.505 58.914,40.36 59.518,40.799 C60.122,41.238 61.097,41.468 62.019,40.798 L65.045,38.597 L69.115,44.194 L66.088,46.395 C65.167,47.065 65.085,48.063 65.316,48.773 C65.548,49.484 66.2,50.243 67.339,50.243 L67.34,50.243 L71.082,50.241 L71.084,57.244 L67.342,57.246 C66.202,57.246 65.55,58.005 65.319,58.716 C65.089,59.427 65.171,60.425 66.092,61.094 L69.121,63.292 L65.006,68.96 L61.978,66.761 C61.055,66.091 60.081,66.322 59.478,66.762 C58.873,67.202 58.353,68.057 58.706,69.14 L59.863,72.699 L53.203,74.865 L52.046,71.307 C51.694,70.224 50.77,69.838 50.023,69.838 C50.023,69.838 50.023,69.838 50.022,69.838 C49.275,69.838 48.351,70.225 48,71.308 L46.845,74.868 Z"/>
    <path fill="#E9886C" d="M50.045,51.785 C49.425,51.785 48.813,52.072 48.422,52.611 C47.776,53.504 47.976,54.757 48.869,55.404 C49.762,56.05 51.015,55.851 51.662,54.957 C52.308,54.065 52.108,52.812 51.216,52.165 C50.862,51.909 50.451,51.785 50.045,51.785 Z M50.036,57.783 C49.223,57.783 48.403,57.536 47.696,57.024 C45.91,55.729 45.509,53.224 46.803,51.438 C48.097,49.652 50.601,49.251 52.388,50.545 L52.389,50.545 C54.175,51.839 54.575,54.345 53.282,56.131 C52.5,57.21 51.276,57.783 50.036,57.783 Z"/>
    <path fill="#434A4F" d="M48.19,42.315 C48.15,41.765 48.56,41.285 49.11,41.245 C49.66,41.195 50.15,41.615 50.18,42.165 C50.23,42.715 49.81,43.195 49.26,43.235 C49.24,43.235 49.21,43.235 49.19,43.235 C48.67,43.235 48.23,42.835 48.19,42.315 Z M52.92,43.605 L52.91,43.605 C52.38,43.455 52.07,42.895 52.22,42.365 C52.38,41.835 52.93,41.525 53.46,41.675 C53.99,41.825 54.3,42.375 54.15,42.915 C54.03,43.355 53.63,43.635 53.19,43.635 C53.1,43.635 53.01,43.625 52.92,43.605 Z M44.38,43.635 C44.15,43.125 44.38,42.535 44.88,42.315 C45.39,42.085 45.98,42.315 46.2,42.815 C46.43,43.315 46.2,43.905 45.7,44.135 C45.57,44.195 45.43,44.225 45.29,44.225 C44.91,44.225 44.55,44.005 44.38,43.635 Z M56.25,45.215 C56.24,45.215 56.24,45.215 56.24,45.215 C56.23,45.205 56.23,45.205 56.22,45.205 L56.22,45.195 C56.22,45.195 56.21,45.195 56.2,45.185 C55.77,44.865 55.68,44.245 55.99,43.805 C56.32,43.355 56.94,43.255 57.39,43.575 C57.4,43.585 57.41,43.595 57.42,43.595 C57.87,43.925 57.97,44.545 57.64,44.995 C57.45,45.265 57.14,45.405 56.83,45.405 C56.63,45.405 56.42,45.345 56.25,45.215 Z M41.25,46.185 C40.87,45.785 40.87,45.155 41.27,44.765 C41.67,44.385 42.3,44.395 42.68,44.785 C43.07,45.185 43.06,45.815 42.67,46.195 C42.47,46.385 42.22,46.485 41.97,46.485 C41.71,46.485 41.45,46.385 41.25,46.185 Z M58.8,47.855 C58.5,47.395 58.61,46.775 59.07,46.465 C59.53,46.155 60.15,46.275 60.46,46.735 C60.77,47.195 60.65,47.815 60.19,48.125 C60.02,48.235 59.82,48.295 59.63,48.295 C59.31,48.295 59,48.145 58.8,47.855 Z M39.18,49.645 C38.68,49.405 38.48,48.805 38.72,48.305 C38.96,47.805 39.56,47.605 40.05,47.845 C40.55,48.085 40.76,48.685 40.52,49.185 C40.34,49.535 39.99,49.745 39.62,49.745 C39.47,49.745 39.32,49.715 39.18,49.645 Z M60.3,51.205 C60.17,50.675 60.49,50.125 61.03,49.995 C61.56,49.855 62.11,50.185 62.24,50.725 C62.37,51.255 62.05,51.795 61.51,51.935 C61.43,51.955 61.35,51.965 61.27,51.965 C60.82,51.965 60.41,51.665 60.3,51.205 Z M38.42,53.605 C37.87,53.555 37.47,53.065 37.53,52.505 C37.58,51.965 38.07,51.555 38.62,51.615 C39.17,51.675 39.57,52.165 39.52,52.715 C39.46,53.225 39.03,53.615 38.52,53.615 C38.49,53.615 38.45,53.605 38.42,53.605 Z M61.46,55.965 C60.91,55.915 60.51,55.425 60.56,54.875 C60.62,54.325 61.11,53.925 61.66,53.975 C62.21,54.035 62.61,54.525 62.55,55.075 C62.5,55.595 62.07,55.975 61.56,55.975 C61.53,55.975 61.49,55.975 61.46,55.965 Z M37.85,56.865 C37.71,56.325 38.04,55.785 38.57,55.655 C39.11,55.515 39.65,55.835 39.79,56.375 C39.92,56.915 39.6,57.455 39.06,57.585 C38.98,57.605 38.9,57.615 38.82,57.615 C38.37,57.615 37.96,57.315 37.85,56.865 Z M60.02,59.735 C59.52,59.495 59.32,58.895 59.56,58.405 C59.8,57.905 60.4,57.695 60.9,57.935 C61.39,58.185 61.6,58.775 61.36,59.275 C61.18,59.635 60.83,59.835 60.46,59.835 C60.31,59.835 60.16,59.805 60.02,59.735 Z M39.63,60.845 C39.32,60.395 39.44,59.775 39.9,59.465 C40.35,59.145 40.98,59.265 41.29,59.725 C41.6,60.185 41.48,60.805 41.02,61.115 C40.85,61.235 40.65,61.285 40.46,61.285 C40.14,61.285 39.83,61.135 39.63,60.845 Z M57.39,62.795 C57,62.395 57.01,61.765 57.41,61.375 L57.41,61.385 C57.8,60.995 58.43,61.005 58.82,61.395 C59.2,61.795 59.19,62.425 58.8,62.815 C58.61,63.005 58.35,63.095 58.1,63.095 C57.84,63.095 57.58,62.995 57.39,62.795 Z M42.68,63.975 C42.23,63.655 42.13,63.035 42.45,62.585 C42.78,62.135 43.4,62.035 43.85,62.355 C44.3,62.685 44.4,63.305 44.07,63.755 C43.88,64.025 43.57,64.165 43.26,64.165 C43.06,64.165 42.85,64.105 42.68,63.975 Z M53.86,64.755 C53.64,64.255 53.86,63.665 54.37,63.435 C54.87,63.215 55.46,63.435 55.69,63.945 C55.91,64.445 55.69,65.035 55.18,65.265 C55.05,65.325 54.91,65.355 54.78,65.355 C54.39,65.355 54.03,65.135 53.86,64.755 Z M46.61,65.885 C46.07,65.735 45.77,65.185 45.92,64.655 C46.07,64.115 46.62,63.815 47.15,63.965 C47.68,64.115 47.99,64.665 47.84,65.195 C47.72,65.635 47.32,65.925 46.88,65.925 C46.79,65.925 46.7,65.915 46.61,65.885 Z M49.88,65.405 C49.84,64.855 50.25,64.375 50.8,64.335 C51.36,64.295 51.84,64.705 51.87,65.255 C51.92,65.805 51.5,66.285 50.95,66.325 C50.93,66.325 50.9,66.335 50.88,66.335 C50.36,66.335 49.92,65.925 49.88,65.405 Z"/>
    <path fill="#42494E" d="M144.116,203.725 L78.341,203.726 C76.687,203.726 75.341,205.071 75.341,206.725 C75.341,208.379 76.687,209.725 78.341,209.725 L144.116,209.725 L150.622,206.725 L144.116,203.725 Z M144.555,211.725 L78.341,211.725 C75.584,211.725 73.341,209.482 73.341,206.725 C73.341,203.968 75.584,201.726 78.341,201.726 L144.554,201.725 L155.398,206.725 L144.555,211.725 Z"/>
    <polygon fill="#42494E" points="83.951 210.725 85.951 210.725 85.951 203.127 83.951 203.127"/>
    <polygon fill="#42494E" points="84.951 207.696 143.567 207.696 143.567 205.696 84.951 205.696"/>
    <polygon fill="#434A4F" points="213 136.608 215 136.608 215 132.608 213 132.608"/>
    <polygon fill="#434A4F" points="213 146.608 215 146.608 215 142.608 213 142.608"/>
    <polygon fill="#434A4F" points="217 140.608 221 140.608 221 138.608 217 138.608"/>
    <polygon fill="#434A4F" points="207 140.608 211 140.608 211 138.608 207 138.608"/>
    <polygon fill="#434A4F" points="203 39.608 205 39.608 205 35.608 203 35.608"/>
    <polygon fill="#434A4F" points="203 49.608 205 49.608 205 45.608 203 45.608"/>
    <polygon fill="#434A4F" points="207 43.608 211 43.608 211 41.608 207 41.608"/>
    <polygon fill="#434A4F" points="197 43.608 201 43.608 201 41.608 197 41.608"/>
    <polygon fill="#434A4F" points="35 195.608 37 195.608 37 191.608 35 191.608"/>
    <polygon fill="#434A4F" points="35 205.608 37 205.608 37 201.608 35 201.608"/>
    <polygon fill="#434A4F" points="39 199.608 43 199.608 43 197.608 39 197.608"/>
    <polygon fill="#434A4F" points="29 199.608 33 199.608 33 197.608 29 197.608"/>
    <path fill="#FACD60" d="M207 95.608C207 96.712 206.104 97.608 205 97.608 203.895 97.608 203 96.712 203 95.608 203 94.503 203.895 93.608 205 93.608 206.104 93.608 207 94.503 207 95.608M215 118.608C215 119.16 214.552 119.608 214 119.608 213.447 119.608 213 119.16 213 118.608 213 118.055 213.447 117.608 214 117.608 214.552 117.608 215 118.055 215 118.608M156.001 164.608C156.001 166.265 157.345 167.608 159.001 167.608 160.658 167.608 162.001 166.265 162.001 164.608 162.001 162.951 160.658 161.608 159.001 161.608 157.345 161.608 156.001 162.951 156.001 164.608M39 151.608C39 152.712 39.895 153.608 41 153.608 42.104 153.608 43 152.712 43 151.608 43 150.503 42.104 149.608 41 149.608 39.895 149.608 39 150.503 39 151.608"/>
  </g>
</svg>
