<svg xmlns="http://www.w3.org/2000/svg" width="250" height="250" viewBox="0 0 250 250">
  <g fill="none" fill-rule="evenodd">
    <path fill="#FACF5F" d="M161.371 120.584C160.885 122.74 158.744 124.093 156.589 123.607L149.71 121.969C148.521 125.689 146.954 129.2 144.973 132.359 142.932 135.614 140.501 138.476 138.225 140.827L138.011 155.755 147.011 159.254 163.196 165.465 163.196 112.489 161.371 120.584M152.652 101.958C152.652 102.1 152.647 102.242 152.646 102.383 152.972 102.289 153.323 102.267 153.676 102.353L160.988 104.094C161.897 104.299 162.65 104.809 163.196 105.48L163.196 95.869C163.196 74.559 145.921 57.284 124.611 57.284 103.3 57.284 86.025 74.559 86.025 95.869L86.025 105.823C86.564 104.888 87.466 104.167 88.601 103.911L95.373 102.353C95.789 102.251 96.205 102.29 96.575 102.435 96.574 102.276 96.569 102.117 96.569 101.958L96.569 100.889 102.486 100.889C109.86 100.889 115.838 94.91 115.838 87.536 115.838 94.91 121.816 100.889 129.191 100.889L152.652 100.889 152.652 101.958M99.472 121.934L93 123.424C90.845 123.91 88.704 122.556 88.218 120.401L86.025 110.674 86.025 165.385 100.678 159.754 111.011 155.921 111.282 141.281C108.909 138.86 106.311 135.828 104.162 132.359 102.2 129.19 100.648 125.666 99.472 121.934"/>
    <path fill="#434A4F" d="M31.001,151.732 L73.261,151.732 L73.261,126.25 L31.001,126.25 L31.001,151.732 Z M29.001,153.732 L75.261,153.732 L75.261,124.25 L29.001,124.25 L29.001,153.732 Z"/>
    <path fill="#434A4F" d="M52.131 140.269C51.945 140.269 51.758 140.216 51.593 140.112L35.47 129.836C35.004 129.54 34.867 128.921 35.164 128.456 35.462 127.991 36.08 127.853 36.545 128.15L52.129 138.082 67.078 128.491C67.542 128.192 68.161 128.327 68.46 128.792 68.758 129.257 68.623 129.876 68.158 130.174L52.671 140.11C52.507 140.216 52.319 140.269 52.131 140.269M70.87 150.163C70.584 150.163 70.3 150.041 70.102 149.803L61.178 139.098C60.825 138.673 60.882 138.043 61.306 137.689 61.731 137.335 62.36 137.393 62.715 137.817L71.638 148.523C71.992 148.947 71.934 149.578 71.51 149.931 71.323 150.087 71.096 150.163 70.87 150.163M33.391 150.163C33.166 150.163 32.939 150.087 32.752 149.931 32.327 149.578 32.27 148.947 32.624 148.523L41.547 137.817C41.901 137.394 42.53 137.335 42.955 137.689 43.38 138.043 43.437 138.673 43.083 139.098L34.16 149.803C33.962 150.041 33.678 150.163 33.391 150.163"/>
    <polygon fill="#434A4F" points="52.982 169.664 54.982 169.664 54.982 155.628 52.982 155.628"/>
    <path fill="#434A4F" d="M53.982,173.004 C53.852,173.004 53.722,172.984 53.602,172.934 C53.472,172.884 53.372,172.804 53.272,172.714 C53.182,172.624 53.112,172.514 53.062,172.394 C53.012,172.264 52.982,172.144 52.982,172.004 C52.982,171.874 53.012,171.744 53.062,171.624 C53.112,171.504 53.182,171.394 53.272,171.304 C53.372,171.204 53.472,171.134 53.602,171.084 C53.842,170.984 54.122,170.984 54.362,171.084 C54.492,171.134 54.592,171.204 54.692,171.304 C54.782,171.394 54.852,171.504 54.902,171.624 C54.952,171.744 54.982,171.874 54.982,172.004 C54.982,172.144 54.952,172.264 54.902,172.394 C54.852,172.514 54.782,172.624 54.692,172.714 C54.592,172.804 54.492,172.884 54.362,172.934 C54.242,172.984 54.112,173.004 53.982,173.004"/>
    <polygon fill="#434A4F" points="61.674 160.967 63.674 160.967 63.674 155.628 61.674 155.628"/>
    <path fill="#434A4F" d="M62.672,164.314 C62.542,164.314 62.412,164.284 62.292,164.234 C62.172,164.184 62.062,164.114 61.962,164.014 C61.922,163.974 61.882,163.924 61.842,163.864 C61.801,163.814 61.772,163.754 61.752,163.694 C61.722,163.634 61.702,163.574 61.692,163.504 C61.682,163.444 61.672,163.374 61.672,163.314 C61.672,163.054 61.782,162.794 61.962,162.604 C62.062,162.514 62.172,162.444 62.292,162.394 C62.532,162.284 62.812,162.284 63.051,162.394 C63.182,162.444 63.292,162.514 63.382,162.604 C63.562,162.794 63.672,163.054 63.672,163.314 C63.672,163.374 63.662,163.444 63.652,163.504 C63.642,163.574 63.622,163.634 63.592,163.694 C63.571,163.754 63.542,163.814 63.502,163.864 C63.472,163.924 63.432,163.974 63.382,164.014 C63.292,164.114 63.182,164.184 63.051,164.234 C62.932,164.284 62.801,164.314 62.672,164.314"/>
    <polygon fill="#434A4F" points="44.284 163.866 46.284 163.866 46.284 155.628 44.284 155.628"/>
    <path fill="#434A4F" d="M45.282,167.214 C45.152,167.214 45.022,167.184 44.902,167.134 C44.782,167.084 44.672,167.014 44.582,166.914 C44.392,166.734 44.282,166.474 44.282,166.214 C44.282,165.944 44.392,165.684 44.582,165.504 C44.672,165.414 44.782,165.334 44.902,165.284 C45.272,165.134 45.712,165.224 45.992,165.504 C46.182,165.694 46.282,165.944 46.282,166.214 C46.282,166.274 46.282,166.344 46.262,166.404 C46.252,166.464 46.232,166.534 46.212,166.594 C46.182,166.654 46.152,166.714 46.112,166.764 C46.082,166.824 46.042,166.874 45.992,166.914 C45.801,167.104 45.551,167.214 45.282,167.214"/>
    <polyline fill="#EAEAE4" points="137.91 156.553 137.91 142.151 130.785 146.997 118.202 146.997 111.345 141.088 111.311 146.755 137.91 156.553"/>
    <path fill="#434A4F" d="M182.672 189.989L172.136 189.989 172.136 187.989 182.672 187.989C183.522 187.989 184.323 187.617 184.872 186.968 185.404 186.34 185.64 185.52 185.526 184.708 183.05 177.677 177.648 172.104 170.693 169.412L146.653 160.188 147.37 158.321 171.412 167.546C178.947 170.462 184.789 176.509 187.444 184.135L187.486 184.297C187.725 185.717 187.329 187.161 186.399 188.26 185.47 189.358 184.112 189.989 182.672 189.989M58.012 222.037L56.011 222.037 56.021 220.901 60.297 189.515C61.63 179.583 68.263 171.165 77.61 167.547L100.319 158.821 101.037 160.688 78.33 169.413C69.666 172.767 63.515 180.572 62.279 189.783L58.012 221.104 58.012 222.037"/>
    <path fill="#434A4F" d="M128.745 201.688C126.925 203.981 125.45 205.772 124.611 206.78 120.283 201.577 99.009 175.465 99.009 164.997L99.009 164.887C99.009 162.767 100.346 160.851 102.337 160.119L112.178 156.5 112.178 141.315C111.345 141.034 110.679 140.545 110.178 139.932L110.178 155.105 101.646 158.242C98.873 159.262 97.009 161.932 97.009 164.887L97.009 164.997C97.009 177.321 122.753 207.697 123.849 208.984L124.611 209.878 125.372 208.984C125.392 208.96 127.423 206.572 130.311 202.931L128.745 201.688M147.644 158.377L139.043 155.113 139.043 140.725C138.476 141.317 137.82 141.791 137.043 142.09L137.043 156.493 146.934 160.247C148.894 160.991 150.212 162.9 150.212 164.997 150.212 168.847 147.136 175.579 141.317 184.466L142.99 185.562C149.109 176.217 152.212 169.298 152.212 164.997 152.212 162.075 150.376 159.415 147.644 158.377M151.652 101.958C151.652 102.228 151.64 102.494 151.637 102.764 152.065 102.649 152.528 102.581 153.035 102.581 153.244 102.581 153.445 102.592 153.64 102.612 153.642 102.393 153.652 102.177 153.652 101.958L153.652 99.889 129.191 99.889C122.38 99.889 116.838 94.347 116.838 87.536L116.838 83.86 114.838 83.86 114.838 87.536C114.838 94.347 109.297 99.889 102.486 99.889L95.569 99.889 95.569 101.958C95.569 102.116 95.575 102.271 95.576 102.428 95.674 102.424 95.768 102.414 95.869 102.414 96.502 102.414 97.071 102.514 97.58 102.688 97.577 102.444 97.569 102.203 97.569 101.958L97.569 101.889 102.486 101.889C108.542 101.889 113.734 98.118 115.838 92.8 117.942 98.118 123.135 101.889 129.191 101.889L151.652 101.889 151.652 101.958"/>
    <path fill="#434A4F" d="M148.702 121.814C147.512 125.497 145.979 128.872 144.126 131.827 140.482 137.639 135.48 142.275 132.823 144.522L132.822 144.522C131.39 145.733 129.504 146.397 127.474 146.364L121.288 146.364C119.386 146.343 117.545 145.653 116.104 144.423 112.914 141.698 108.4 137.302 105.012 131.832 103.188 128.888 101.689 125.519 100.517 121.855 99.986 122.193 99.358 122.427 98.633 122.524 99.854 126.323 101.414 129.821 103.312 132.885 106.835 138.574 111.507 143.126 114.805 145.943 116.601 147.478 118.896 148.337 121.277 148.364L127.463 148.364C127.505 148.365 127.547 148.365 127.59 148.365 130.032 148.365 132.345 147.545 134.114 146.049 137.468 143.213 142.221 138.628 145.821 132.89 147.768 129.783 149.375 126.238 150.618 122.376 149.933 122.322 149.292 122.126 148.702 121.814M190.128 29.963C174.208 29.963 161.256 42.915 161.256 58.835 161.256 70.558 168.257 81.032 179.092 85.518L179.772 85.799 179.706 86.533C179.511 88.662 178.535 90.529 177.072 91.864 180.088 91.431 182.84 89.99 184.967 87.698L185.325 87.312 185.847 87.389C187.268 87.6 188.708 87.707 190.128 87.707 206.048 87.707 218.999 74.755 218.999 58.835 218.999 42.915 206.048 29.963 190.128 29.963zM175.132 94.001L171.521 94.001 171.521 92.001C174.517 92.001 177.02 89.921 177.61 87.058 166.433 82.103 159.256 71.109 159.256 58.835 159.256 41.813 173.105 27.963 190.128 27.963 207.15 27.963 220.999 41.813 220.999 58.835 220.999 75.858 207.15 89.707 190.128 89.707 188.781 89.707 187.418 89.617 186.067 89.439 183.178 92.345 179.223 94.001 175.132 94.001z"/>
    <polygon fill="#434A4F" points="173.05 47.017 207.05 47.017 207.05 45.017 173.05 45.017"/>
    <polygon fill="#434A4F" points="173.05 51.167 207.05 51.167 207.05 49.167 173.05 49.167"/>
    <polygon fill="#434A4F" points="173.05 55.169 207.05 55.169 207.05 53.169 173.05 53.169"/>
    <polyline fill="#434A4F" points="198.25 70.494 194.45 66.694 195.865 65.28 198.25 67.666 207.344 58.573 208.758 59.987 198.25 70.494"/>
    <polyline fill="#434A4F" points="184.343 70.802 176.343 62.802 177.757 61.388 185.757 69.388 184.343 70.802"/>
    <polyline fill="#434A4F" points="177.757 70.802 176.343 69.388 184.343 61.388 185.757 62.802 177.757 70.802"/>
    <path fill="#434A4F" d="M175.049,72.096 L187.049,72.096 L187.049,60.096 L175.049,60.096 L175.049,72.096 Z M173.049,74.096 L189.049,74.096 L189.049,58.096 L173.049,58.096 L173.049,74.096 Z"/>
    <polyline fill="#434A4F" points="207.049 74.096 191.049 74.096 191.049 58.096 203.882 58.096 203.882 60.096 193.049 60.096 193.049 72.096 205.049 72.096 205.049 65.179 207.049 65.179 207.049 74.096"/>
    <path fill="#434A4F" d="M90.35,103.055 C90.161,101.144 90.066,99.329 90.066,97.661 L90.066,97.183 C90.066,87.881 93.894,78.744 100.57,72.114 C107.145,65.583 115.733,62.07 124.749,62.097 C132.474,62.149 139.76,64.701 145.819,69.478 C149.818,72.631 153.125,76.703 155.382,81.253 C155.577,81.648 155.766,82.048 155.948,82.452 C157.943,86.751 158.985,91.559 158.953,96.345 L158.952,97.661 C158.952,99.312 158.842,101.12 158.625,103.035 L156.637,102.81 C156.846,100.969 156.952,99.237 156.952,97.661 L156.953,96.332 C156.983,91.839 156.006,87.327 154.128,83.282 C153.952,82.89 153.775,82.514 153.59,82.142 C151.464,77.855 148.349,74.019 144.581,71.048 C138.875,66.55 132.012,64.146 124.734,64.097 C116.274,64.066 108.172,67.381 101.979,73.533 C95.679,79.79 92.066,88.41 92.066,97.183 L92.066,97.661 C92.066,99.264 92.158,101.012 92.34,102.858 L90.35,103.055"/>
    <path fill="#434A4F" d="M95.85,103.296 C95.771,103.296 95.69,103.305 95.611,103.325 L88.825,104.885 C87.207,105.25 86.19,106.859 86.554,108.473 L89.193,120.181 C89.556,121.794 91.166,122.814 92.778,122.449 L99.618,120.874 C100.131,120.749 100.462,120.214 100.343,119.686 L96.824,104.076 C96.764,103.812 96.605,103.588 96.375,103.446 C96.215,103.347 96.034,103.296 95.85,103.296 Z M92.119,124.522 C89.834,124.522 87.765,122.942 87.242,120.621 L84.603,108.913 C83.997,106.224 85.691,103.542 88.381,102.935 L95.149,101.379 C95.924,101.188 96.738,101.318 97.427,101.746 C98.117,102.173 98.596,102.844 98.775,103.636 L102.294,119.247 C102.651,120.832 101.658,122.435 100.08,122.82 L93.219,124.399 C92.851,124.482 92.482,124.522 92.119,124.522 Z"/>
    <path fill="#434A4F" d="M93.188 110.194C92.085 110.194 91.188 111.091 91.188 112.194 91.188 113.297 92.085 114.194 93.188 114.194 94.291 114.194 95.188 113.297 95.188 112.194 95.188 111.091 94.291 110.194 93.188 110.194zM93.188 116.194C90.983 116.194 89.188 114.4 89.188 112.194 89.188 109.989 90.983 108.194 93.188 108.194 95.394 108.194 97.188 109.989 97.188 112.194 97.188 114.4 95.394 116.194 93.188 116.194zM156.815 122.633C157.594 122.807 158.396 122.668 159.072 122.241 159.749 121.813 160.219 121.146 160.396 120.365L163.035 108.656C163.211 107.875 163.073 107.071 162.644 106.394 162.216 105.716 161.55 105.246 160.768 105.07L153.445 103.326C153.174 103.26 152.903 103.304 152.674 103.446 152.444 103.588 152.284 103.812 152.225 104.076L148.706 119.686C148.587 120.214 148.917 120.749 149.443 120.877L156.815 122.633zM157.479 124.707C157.11 124.707 156.738 124.666 156.369 124.583L156.358 124.58 148.974 122.821C147.39 122.435 146.397 120.832 146.755 119.247L150.274 103.636C150.452 102.844 150.931 102.173 151.621 101.746 152.311 101.319 153.126 101.189 153.914 101.382L161.219 103.122C162.511 103.413 163.621 104.196 164.335 105.325 165.049 106.454 165.28 107.793 164.986 109.096L162.347 120.804C162.053 122.107 161.27 123.218 160.14 123.932 159.331 124.443 158.414 124.707 157.479 124.707z"/>
    <path fill="#434A4F" d="M155.861 110.194C154.758 110.194 153.861 111.091 153.861 112.194 153.861 113.297 154.758 114.194 155.861 114.194 156.964 114.194 157.861 113.297 157.861 112.194 157.861 111.091 156.964 110.194 155.861 110.194zM155.861 116.194C153.655 116.194 151.861 114.4 151.861 112.194 151.861 109.989 153.655 108.194 155.861 108.194 158.066 108.194 159.861 109.989 159.861 112.194 159.861 114.4 158.066 116.194 155.861 116.194zM121.998 131.009C121.447 131.009 120.998 131.458 120.998 132.009 120.998 132.561 121.447 133.009 121.998 133.009L127.998 133.009C128.55 133.009 128.998 132.561 128.998 132.009 128.998 131.458 128.55 131.009 127.998 131.009L121.998 131.009zM127.998 135.009L121.998 135.009C120.344 135.009 118.998 133.664 118.998 132.009 118.998 130.355 120.344 129.009 121.998 129.009L127.998 129.009C129.653 129.009 130.998 130.355 130.998 132.009 130.998 133.664 129.653 135.009 127.998 135.009z"/>
    <polyline fill="#434A4F" points="134.811 133.009 129.998 133.009 129.998 131.009 134.688 131.009 150.351 129.081 153.527 122.884 155.307 123.796 151.648 130.936 134.811 133.009"/>
    <polyline fill="#434A4F" points="91.53 109.113 90.364 103.148 92.326 102.765 93.493 108.729 91.53 109.113"/>
    <polyline fill="#434A4F" points="157.496 109.429 155.527 109.08 156.646 102.748 158.616 103.097 157.496 109.429"/>
    <path fill="#434A4F" d="M165 222.003L143.161 222.003C139.76 222.003 136.994 219.237 136.994 215.836L136.994 214.838C136.994 211.438 139.76 208.671 143.161 208.671L151.16 208.671C153.458 208.671 155.327 206.801 155.327 204.503 155.327 202.206 153.458 200.336 151.16 200.336L127.489 200.336C124.089 200.336 121.322 197.569 121.322 194.169 121.322 190.755 124.089 187.989 127.489 187.989L142.333 187.989 142.333 189.989 127.489 189.989C125.191 189.989 123.322 191.858 123.322 194.156 123.322 196.467 125.191 198.336 127.489 198.336L151.16 198.336C154.561 198.336 157.327 201.103 157.327 204.503 157.327 207.904 154.561 210.671 151.16 210.671L143.161 210.671C140.864 210.671 138.994 212.54 138.994 214.838L138.994 215.836C138.994 218.134 140.864 220.003 143.161 220.003L165 220.003C167.757 220.003 170 217.76 170 215.003L170 211.589 174.293 207.296 175.707 208.71 172 212.417 172 215.003C172 218.863 168.86 222.003 165 222.003M168.832 189.994C168.772 189.994 168.702 189.984 168.642 189.974 168.572 189.954 168.512 189.934 168.452 189.914 168.392 189.884 168.332 189.854 168.281 189.824 168.222 189.784 168.172 189.744 168.122 189.694 167.942 189.514 167.832 189.254 167.832 188.994 167.832 188.854 167.862 188.734 167.912 188.604 167.962 188.484 168.031 188.374 168.122 188.284 168.172 188.234 168.222 188.194 168.281 188.154 168.332 188.124 168.392 188.094 168.452 188.064 168.512 188.044 168.572 188.024 168.642 188.014 168.962 187.944 169.312 188.054 169.542 188.284 169.632 188.374 169.702 188.484 169.762 188.604 169.812 188.734 169.832 188.854 169.832 188.994 169.832 189.054 169.832 189.124 169.812 189.184 169.802 189.244 169.781 189.314 169.762 189.374 169.732 189.434 169.702 189.494 169.662 189.544 169.632 189.594 169.582 189.654 169.542 189.694 169.352 189.884 169.102 189.994 168.832 189.994M148.112 188.984C148.112 188.434 148.562 187.994 149.112 187.994 149.662 187.994 150.112 188.434 150.112 188.984 150.112 189.544 149.662 189.994 149.112 189.994 148.562 189.994 148.112 189.544 148.112 188.984zM152.052 188.984C152.052 188.434 152.502 187.994 153.052 187.994 153.612 187.994 154.052 188.434 154.052 188.984 154.052 189.544 153.612 189.994 153.052 189.994 152.502 189.994 152.052 189.544 152.052 188.984zM156.002 188.984C156.002 188.434 156.442 187.994 157.002 187.994 157.552 187.994 158.002 188.434 158.002 188.984 158.002 189.544 157.552 189.994 157.002 189.994 156.442 189.994 156.002 189.544 156.002 188.984zM159.942 188.984C159.942 188.434 160.392 187.994 160.942 187.994 161.492 187.994 161.942 188.434 161.942 188.984 161.942 189.544 161.492 189.994 160.942 189.994 160.392 189.994 159.942 189.544 159.942 188.984zM163.892 188.984C163.892 188.434 164.332 187.994 164.892 187.994 165.442 187.994 165.892 188.434 165.892 188.984 165.892 189.544 165.442 189.994 164.892 189.994 164.332 189.994 163.892 189.544 163.892 188.984z"/>
    <path fill="#434A4F" d="M145.172,189.984 C144.902,189.984 144.642,189.884 144.462,189.694 C144.272,189.514 144.162,189.254 144.162,188.994 C144.162,188.724 144.272,188.464 144.462,188.284 C144.832,187.914 145.502,187.914 145.872,188.284 C146.062,188.474 146.172,188.724 146.172,188.994 C146.172,189.254 146.062,189.504 145.872,189.694 C145.692,189.884 145.432,189.984 145.172,189.984"/>
    <path fill="#42494E" d="M182.327,195.157 C181.972,195.157 181.639,195.294 181.387,195.545 L173.374,203.538 C173.123,203.789 172.984,204.123 172.983,204.478 C172.983,204.833 173.121,205.167 173.372,205.419 L177.558,209.46 C177.692,209.58 178.179,209.762 178.61,209.863 C181.7,209.809 184.583,209.377 187.178,208.578 C202.284,203.928 213.828,192.059 218.058,176.829 C218.581,174.946 218.848,172.848 218.851,170.594 C218.852,169.616 218.472,168.697 217.782,168.005 L214.281,164.649 C214.013,164.381 213.679,164.243 213.324,164.242 C213.323,164.242 213.323,164.242 213.323,164.242 C212.968,164.242 212.635,164.38 212.383,164.63 L204.37,172.623 C204.118,172.874 203.979,173.208 203.979,173.563 C203.978,173.918 204.116,174.252 204.367,174.504 L208.778,178.756 L208.682,179.283 C206.904,189.102 199.49,196.971 189.794,199.332 L187.718,199.838 L183.282,195.561 C183.018,195.296 182.684,195.157 182.329,195.157 C182.328,195.157 182.327,195.157 182.327,195.157 Z M178.416,211.866 L178.309,211.845 C177.956,211.772 176.757,211.49 176.155,210.886 L171.969,206.844 C171.328,206.201 170.982,205.365 170.983,204.475 C170.985,203.585 171.332,202.75 171.962,202.122 L179.975,194.129 C181.276,192.832 183.388,192.835 184.685,194.135 L188.314,197.634 L189.321,197.389 C198.077,195.257 204.812,188.246 206.614,179.448 L202.965,175.93 C202.323,175.287 201.978,174.45 201.979,173.561 C201.98,172.671 202.328,171.835 202.958,171.207 L210.971,163.214 C211.599,162.587 212.434,162.242 213.323,162.242 C213.324,162.242 213.325,162.242 213.327,162.242 C214.217,162.243 215.052,162.591 215.68,163.221 L219.182,166.576 C220.265,167.662 220.853,169.084 220.851,170.596 C220.847,173.031 220.556,175.308 219.985,177.364 C215.572,193.254 203.528,205.638 187.767,210.489 C184.958,211.354 181.848,211.817 178.524,211.865 L178.416,211.866 Z"/>
    <polyline fill="#42494E" points="209.63 176.823 208.218 175.407 212.467 171.169 213.879 172.585 209.63 176.823"/>
    <polyline fill="#42494E" points="215.298 171.17 213.885 169.754 215.301 168.343 216.713 169.759 215.298 171.17"/>
    <polyline fill="#42494E" points="178.458 207.913 177.046 206.497 184.128 199.433 185.54 200.849 178.458 207.913"/>
    <path fill="#434A4F" d="M194,169.003 L192,169.003 C192,160.181 199.177,153.003 208,153.003 L208,155.003 C200.28,155.003 194,161.284 194,169.003"/>
    <path fill="#434A4F" d="M190,169.003 L188,169.003 C188,157.976 196.972,149.003 208,149.003 L208,151.003 C198.074,151.003 190,159.078 190,169.003"/>
    <path fill="#434A4F" d="M186 169.003L184 169.003C184 155.77 194.766 145.003 208 145.003L208 147.003C195.869 147.003 186 156.873 186 169.003M198 169.003L196 169.003C196 162.387 201.383 157.003 208 157.003L208 159.003C202.486 159.003 198 163.489 198 169.003"/>
    <polygon fill="#434A4F" points="189 115.996 191 115.996 191 111.996 189 111.996"/>
    <polygon fill="#434A4F" points="189 125.996 191 125.996 191 121.996 189 121.996"/>
    <polygon fill="#434A4F" points="193 119.996 197 119.996 197 117.996 193 117.996"/>
    <polygon fill="#434A4F" points="183 119.996 187 119.996 187 117.996 183 117.996"/>
    <path fill="#75C7D0" d="M185.058,140.056 C185.058,141.713 183.715,143.056 182.058,143.056 C180.401,143.056 179.058,141.713 179.058,140.056 C179.058,138.399 180.401,137.056 182.058,137.056 C183.715,137.056 185.058,138.399 185.058,140.056"/>
  </g>
</svg>
