<svg xmlns="http://www.w3.org/2000/svg" width="250" height="250" viewBox="0 0 250 250">
  <g fill="none" fill-rule="evenodd">
    <path fill="#434A4F" d="M38.08 126.638C38.03 126.088 38.43 125.598 38.98 125.538 39.53 125.488 40.02 125.888 40.07 126.438 40.13 126.988 39.72 127.478 39.18 127.528 39.14 127.528 39.11 127.538 39.08 127.538 38.57 127.538 38.13 127.148 38.08 126.638zM39.02 130.758C38.84 130.238 39.11 129.658 39.63 129.478 40.15 129.288 40.72 129.558 40.91 130.078 41.09 130.598 40.82 131.168 40.3 131.358 40.19 131.398 40.08 131.418 39.97 131.418 39.56 131.418 39.17 131.158 39.02 130.758zM40.86 134.528C40.57 134.058 40.72 133.438 41.19 133.148 41.66 132.858 42.27 133.008 42.56 133.478 42.85 133.948 42.71 134.568 42.23 134.858 42.07 134.958 41.89 134.998 41.71 134.998 41.37 134.998 41.05 134.838 40.86 134.528zM43.32 137.868C42.96 137.448 43.01 136.818 43.43 136.458 43.84 136.098 44.47 136.148 44.83 136.568L44.84 136.568C45.2 136.988 45.15 137.618 44.73 137.978 44.54 138.138 44.31 138.218 44.08 138.218 43.8 138.218 43.52 138.098 43.32 137.868zM46.2 140.808C45.79 140.438 45.76 139.808 46.13 139.398 46.5 138.988 47.14 138.958 47.55 139.328 47.96 139.698 47.99 140.338 47.62 140.738 47.42 140.958 47.15 141.068 46.88 141.068 46.64 141.068 46.4 140.988 46.2 140.808zM49.37 143.408C48.93 143.078 48.83 142.448 49.16 142.008 49.49 141.568 50.12 141.468 50.56 141.808 51.01 142.138 51.1 142.758 50.77 143.208 50.57 143.468 50.27 143.608 49.96 143.608 49.76 143.608 49.55 143.538 49.37 143.408zM78.83 156.408C78.83 156.408 78.83 156.408 78.82 156.408 78.29 156.268 77.97 155.718 78.11 155.188 78.26 154.658 78.8 154.338 79.34 154.478 79.87 154.618 80.19 155.168 80.05 155.698 79.93 156.148 79.52 156.448 79.08 156.448 79.001 156.448 78.91 156.438 78.83 156.408zM82.73 157.388C82.2 157.258 81.86 156.718 81.99 156.188 82.12 155.648 82.65 155.318 83.19 155.438 83.73 155.568 84.06 156.108 83.94 156.648 83.83 157.108 83.42 157.418 82.96 157.418 82.89 157.418 82.81 157.408 82.73 157.388zM86.67 158.258C86.13 158.148 85.78 157.618 85.89 157.078 86.001 156.538 86.53 156.188 87.07 156.298 87.61 156.408 87.96 156.938 87.85 157.478 87.751 157.948 87.33 158.278 86.87 158.278 86.8 158.278 86.73 158.268 86.67 158.258zM210 124.998C210 124.448 210.45 123.998 211 123.998 211.55 123.998 212 124.448 212 124.998 212 125.558 211.55 125.998 211 125.998 210.45 125.998 210 125.558 210 124.998zM210.24 129.908C209.7 129.768 209.38 129.218 209.52 128.688 209.66 128.158 210.21 127.838 210.74 127.978 211.28 128.108 211.6 128.658 211.46 129.188 211.46 129.188 211.46 129.188 211.46 129.198 211.34 129.648 210.93 129.938 210.49 129.938 210.41 129.938 210.32 129.928 210.24 129.908zM208.59 133.538C208.1 133.288 207.91 132.678 208.17 132.188 208.42 131.698 209.02 131.508 209.51 131.768 210 132.018 210.19 132.618 209.94 133.108 209.76 133.458 209.41 133.648 209.05 133.648 208.9 133.648 208.74 133.618 208.59 133.538zM206.29 136.808C205.86 136.468 205.77 135.838 206.11 135.398 206.45 134.968 207.07 134.878 207.51 135.218 207.95 135.558 208.03 136.178 207.7 136.618 207.5 136.878 207.2 137.008 206.9 137.008 206.69 137.008 206.48 136.948 206.29 136.808zM203.55 139.708C203.16 139.308 203.16 138.678 203.55 138.288 203.94 137.898 204.58 137.898 204.97 138.298 205.35 138.688 205.35 139.318 204.96 139.708 204.77 139.898 204.51 139.998 204.26 139.998 204 139.998 203.74 139.898 203.55 139.708zM200.49 142.278C200.14 141.848 200.21 141.218 200.64 140.868 201.07 140.528 201.7 140.598 202.05 141.028 202.39 141.458 202.32 142.088 201.89 142.428 201.71 142.578 201.49 142.648 201.27 142.648 200.97 142.648 200.68 142.528 200.49 142.278zM197.21 144.568C196.9 144.108 197.03 143.488 197.48 143.178 197.94 142.878 198.56 142.998 198.87 143.458 199.18 143.908 199.06 144.538 198.6 144.838 198.43 144.958 198.23 145.008 198.04 145.008 197.72 145.008 197.4 144.858 197.21 144.568zM193.78 146.628C193.5 146.148 193.67 145.538 194.15 145.258 194.62 144.978 195.24 145.148 195.51 145.628 195.79 146.108 195.62 146.718 195.15 146.988 194.99 147.078 194.82 147.128 194.65 147.128 194.3 147.128 193.96 146.948 193.78 146.628zM190.23 148.468C189.98 147.978 190.18 147.378 190.67 147.128 191.17 146.878 191.77 147.078 192.02 147.568 192.26 148.068 192.07 148.668 191.57 148.908 191.43 148.988 191.28 149.018 191.12 149.018 190.76 149.018 190.41 148.818 190.23 148.468zM186.59 150.128C186.37 149.628 186.6 149.038 187.1 148.808 187.6 148.588 188.19 148.818 188.42 149.318 188.64 149.828 188.41 150.418 187.91 150.638 187.78 150.698 187.64 150.728 187.5 150.728 187.12 150.728 186.75 150.508 186.59 150.128zM182.88 151.628C182.68 151.118 182.93 150.538 183.45 150.338 183.96 150.138 184.54 150.388 184.74 150.898 184.94 151.418 184.69 151.998 184.18 152.198 184.06 152.248 183.93 152.268 183.81 152.268 183.41 152.268 183.04 152.028 182.88 151.628zM179.12 152.988C178.93 152.458 179.21 151.898 179.73 151.708 180.25 151.528 180.82 151.808 181.01 152.328 181.19 152.848 180.91 153.418 180.39 153.598 180.28 153.638 180.17 153.658 180.06 153.658 179.65 153.658 179.26 153.398 179.12 152.988zM175.31 154.208C175.14 153.678 175.44 153.118 175.96 152.958 176.49 152.788 177.05 153.088 177.22 153.608 177.38 154.138 177.09 154.698 176.56 154.868 176.46 154.898 176.36 154.908 176.26 154.908 175.83 154.908 175.44 154.638 175.31 154.208zM171.46 155.308C171.31 154.768 171.62 154.218 172.16 154.068 172.69 153.928 173.24 154.238 173.39 154.768 173.53 155.298 173.22 155.858 172.69 155.998 172.6 156.028 172.51 156.038 172.42 156.038 171.98 156.038 171.58 155.748 171.46 155.308zM96.87 160.038C96.32 159.958 95.94 159.458 96.02 158.908 96.1 158.358 96.61 157.978 97.15 158.058 97.7 158.138 98.08 158.648 98.001 159.198 97.93 159.688 97.501 160.048 97.01 160.048 96.96 160.048 96.92 160.048 96.87 160.038zM151.85 159.218C151.77 158.668 152.15 158.158 152.7 158.088 153.25 157.998 153.75 158.378 153.83 158.928 153.91 159.478 153.53 159.978 152.98 160.058 152.94 160.068 152.89 160.068 152.84 160.068 152.35 160.068 151.92 159.708 151.85 159.218zM100.86 160.568C100.31 160.498 99.92 160.008 99.98 159.458 100.05 158.908 100.55 158.518 101.1 158.588 101.65 158.648 102.04 159.148 101.97 159.698 101.91 160.208 101.47 160.578 100.98 160.578 100.94 160.578 100.9 160.578 100.86 160.568zM147.88 159.718C147.82 159.168 148.21 158.668 148.76 158.598 149.3 158.538 149.8 158.928 149.87 159.478 149.93 160.028 149.54 160.518 148.99 160.588 148.95 160.588 148.91 160.598 148.87 160.598 148.38 160.598 147.94 160.218 147.88 159.718zM104.86 161.018C104.3 160.958 103.9 160.468 103.96 159.918 104.01 159.368 104.5 158.968 105.05 159.018 105.6 159.078 106 159.568 105.95 160.118 105.9 160.638 105.46 161.018 104.95 161.018 104.92 161.018 104.89 161.018 104.86 161.018zM143.9 160.128C143.85 159.578 144.25 159.088 144.8 159.038 145.35 158.978 145.84 159.378 145.89 159.938 145.95 160.488 145.55 160.968 145 161.028 144.96 161.028 144.93 161.028 144.9 161.028 144.39 161.028 143.95 160.648 143.9 160.128zM108.86 161.368C108.31 161.328 107.9 160.848 107.94 160.298 107.98 159.748 108.47 159.338 109.02 159.378 109.57 159.418 109.98 159.898 109.93 160.448 109.89 160.978 109.45 161.378 108.94 161.378 108.91 161.378 108.89 161.368 108.86 161.368zM139.92 160.458C139.87 159.908 140.28 159.428 140.83 159.388 141.38 159.348 141.87 159.758 141.91 160.308 141.95 160.858 141.54 161.338 140.99 161.378 140.97 161.388 140.94 161.388 140.91 161.388 140.39 161.388 139.96 160.988 139.92 160.458zM112.87 161.648C112.32 161.618 111.9 161.138 111.93 160.588 111.97 160.038 112.44 159.618 112.99 159.648 113.54 159.678 113.96 160.158 113.93 160.708 113.9 161.238 113.46 161.648 112.93 161.648 112.91 161.648 112.89 161.648 112.87 161.648zM135.92 160.718C135.89 160.168 136.31 159.688 136.86 159.658 137.42 159.628 137.89 160.048 137.92 160.598 137.95 161.148 137.53 161.628 136.98 161.658 136.96 161.658 136.94 161.658 136.92 161.658 136.39 161.658 135.95 161.248 135.92 160.718zM116.89 161.838C116.34 161.818 115.91 161.358 115.93 160.808 115.95 160.258 116.41 159.818 116.97 159.848 117.52 159.868 117.95 160.328 117.93 160.888 117.9 161.418 117.46 161.848 116.93 161.848 116.92 161.848 116.9 161.848 116.89 161.838zM131.93 160.888C131.9 160.338 132.34 159.868 132.89 159.848 133.44 159.828 133.9 160.258 133.92 160.808 133.94 161.358 133.52 161.828 132.96 161.848 132.95 161.848 132.94 161.848 132.92 161.848 132.39 161.848 131.95 161.428 131.93 160.888zM120.91 161.958C120.35 161.948 119.91 161.498 119.93 160.938 119.94 160.388 120.39 159.948 120.94 159.958 121.5 159.968 121.94 160.428 121.93 160.978 121.91 161.528 121.47 161.958 120.92 161.958L120.91 161.958zM127.93 160.978C127.92 160.428 128.36 159.978 128.91 159.968 129.46 159.958 129.92 160.388 129.93 160.948 129.94 161.498 129.5 161.958 128.94 161.968L128.93 161.968C128.38 161.968 127.94 161.528 127.93 160.978zM123.93 160.998C123.93 160.448 124.37 159.998 124.93 159.998 125.48 159.998 125.93 160.448 125.93 160.998 125.93 161.558 125.48 161.998 124.93 161.998 124.37 161.998 123.93 161.548 123.93 160.998zM156.52 162.382C156.43 162.499 156.359 162.63 156.327 162.784 150.407 191.467 138.11 210 125 210 124.448 210 124 210.448 124 211 124 211.553 124.448 212 125 212 138.951 212 151.416 194.235 157.794 165.468L156.52 162.382"/>
    <path fill="#75C7D0" d="M125.216,151.162 C111.46,151.162 100.308,140.01 100.308,126.253 C100.308,112.497 111.46,101.345 125.216,101.345 C138.973,101.345 150.125,112.497 150.125,126.253 C150.125,140.01 138.973,151.162 125.216,151.162 Z M169,127 C169,102.7 149.3,83 125,83 C100.699,83 81,102.7 81,127 C81,151.301 100.699,171 125,171 C136.667,171 147.265,166.451 155.14,159.04 L150.994,149 L160.452,153.054 C165.822,145.76 169,136.752 169,127 Z"/>
    <path fill="#434A4F" d="M125.216,102.345 C112.033,102.345 101.308,113.07 101.308,126.253 C101.308,139.437 112.033,150.162 125.216,150.162 C138.399,150.162 149.125,139.437 149.125,126.253 C149.125,113.07 138.399,102.345 125.216,102.345 Z M125.216,152.162 C110.93,152.162 99.308,140.539 99.308,126.253 C99.308,111.968 110.93,100.345 125.216,100.345 C139.502,100.345 151.125,111.968 151.125,126.253 C151.125,140.539 139.502,152.162 125.216,152.162 Z"/>
    <path fill="#434A4F" d="M125.216,102.345 C122.502,102.345 118.716,111.441 118.716,126.253 C118.716,132.812 119.481,138.964 120.871,143.578 C122.332,148.432 124.074,150.162 125.216,150.162 C127.931,150.162 131.716,141.066 131.716,126.253 C131.716,119.695 130.951,113.542 129.562,108.929 C128.101,104.075 126.359,102.345 125.216,102.345 Z M125.216,152.162 C119.695,152.162 116.716,138.813 116.716,126.253 C116.716,113.694 119.695,100.345 125.216,100.345 C130.737,100.345 133.716,113.694 133.716,126.253 C133.716,138.813 130.737,152.162 125.216,152.162 Z"/>
    <polygon fill="#434A4F" points="100.308 127.253 150.125 127.253 150.125 125.253 100.308 125.253"/>
    <path fill="#434A4F" d="M125.216 102.345C116.118 102.345 108.716 113.07 108.716 126.253 108.716 139.437 116.118 150.162 125.216 150.162 134.314 150.162 141.716 139.437 141.716 126.253 141.716 113.07 134.314 102.345 125.216 102.345zM125.216 152.162C115.015 152.162 106.716 140.539 106.716 126.253 106.716 111.968 115.015 100.345 125.216 100.345 135.417 100.345 143.716 111.968 143.716 126.253 143.716 140.539 135.417 152.162 125.216 152.162zM78 74.683C75.794 74.683 74 76.478 74 78.683 74 80.889 75.794 82.683 78 82.683 80.206 82.683 82 80.889 82 78.683 82 76.478 80.206 74.683 78 74.683zM78 84.683C74.691 84.683 72 81.992 72 78.683 72 75.374 74.691 72.683 78 72.683 81.309 72.683 84 75.374 84 78.683 84 81.992 81.309 84.683 78 84.683zM196 176.001C194.897 176.001 194 176.898 194 178 194 179.104 194.897 180 196 180 197.103 180 198 179.104 198 178 198 176.898 197.103 176.001 196 176.001zM196 182C193.794 182 192 180.206 192 178 192 175.795 193.794 174.001 196 174.001 198.206 174.001 200 175.795 200 178 200 180.206 198.206 182 196 182z"/>
    <path fill="#434A4F" d="M39 126C38.448 126 38 125.553 38 125 38 114.956 47.164 105.587 63.803 98.622 80.165 91.772 101.899 88.001 125 88.001 134.652 88.001 144.129 88.662 153.167 89.965 153.714 90.044 154.094 90.551 154.015 91.098 153.936 91.645 153.428 92.022 152.882 91.945 143.938 90.655 134.557 90.001 125 90.001 78.131 90.001 40 105.702 40 125 40 125.553 39.552 126 39 126M211 126C210.448 126 210 125.553 210 125 210 111.9 191.486 99.607 162.833 93.683 162.292 93.571 161.944 93.042 162.056 92.501 162.168 91.96 162.694 91.614 163.238 91.724 193.315 97.943 212 110.694 212 125 212 125.553 211.552 126 211 126"/>
    <path fill="#434A4F" d="M90.3 101.968C89.751 101.898 89.36 101.408 89.43 100.858 89.501 100.308 90.001 99.918 90.54 99.977 91.09 100.048 91.48 100.548 91.42 101.098 91.35 101.598 90.92 101.978 90.42 101.978 90.38 101.978 90.34 101.978 90.3 101.968zM89.88 105.948C89.33 105.898 88.93 105.398 88.99 104.858 89.04 104.298 89.53 103.898 90.08 103.958 90.63 104.008 91.03 104.498 90.98 105.048 90.93 105.568 90.49 105.958 89.98 105.958 89.95 105.958 89.92 105.948 89.88 105.948zM89.55 109.938C89.001 109.888 88.59 109.408 88.63 108.858 88.67 108.308 89.15 107.898 89.71 107.938 90.26 107.988 90.67 108.468 90.62 109.018 90.58 109.538 90.14 109.938 89.63 109.938 89.6 109.938 89.57 109.938 89.55 109.938zM89.29 113.928C88.74 113.898 88.32 113.428 88.35 112.868 88.39 112.318 88.86 111.898 89.41 111.928 89.96 111.968 90.38 112.438 90.35 112.988 90.32 113.518 89.88 113.928 89.35 113.928 89.33 113.928 89.31 113.928 89.29 113.928zM89.12 117.928C88.57 117.908 88.13 117.438 88.16 116.888 88.18 116.338 88.64 115.908 89.19 115.928 89.751 115.948 90.18 116.408 90.16 116.968 90.13 117.498 89.69 117.928 89.16 117.928 89.14 117.928 89.13 117.928 89.12 117.928zM89.02 121.928C88.47 121.918 88.03 121.458 88.04 120.908 88.05 120.358 88.51 119.918 89.06 119.928 89.61 119.938 90.05 120.388 90.04 120.948 90.03 121.488 89.59 121.928 89.04 121.928 89.04 121.928 89.03 121.928 89.02 121.928zM88.001 124.928C88.001 124.368 88.45 123.928 89.001 123.928 89.55 123.928 90.001 124.368 90.001 124.928 90.001 125.478 89.55 125.928 89.001 125.928 88.45 125.928 88.001 125.478 88.001 124.928zM88.04 128.948C88.03 128.388 88.47 127.938 89.02 127.928 89.57 127.918 90.03 128.358 90.04 128.908 90.05 129.458 89.61 129.918 89.05 129.928L89.04 129.928C88.49 129.928 88.05 129.488 88.04 128.948zM88.15 132.958C88.13 132.408 88.56 131.948 89.11 131.928 89.66 131.908 90.13 132.338 90.15 132.888 90.17 133.438 89.74 133.898 89.19 133.928 89.18 133.928 89.16 133.928 89.15 133.928 88.62 133.928 88.17 133.498 88.15 132.958zM88.34 136.978C88.31 136.428 88.73 135.958 89.28 135.918 89.84 135.888 90.31 136.308 90.34 136.868 90.37 137.418 89.95 137.888 89.4 137.918 89.38 137.918 89.36 137.918 89.34 137.918 88.82 137.918 88.38 137.508 88.34 136.978zM88.62 140.988C88.57 140.438 88.99 139.958 89.54 139.918 90.09 139.878 90.57 140.288 90.61 140.838 90.65 141.388 90.24 141.868 89.69 141.908 89.67 141.908 89.64 141.918 89.61 141.918 89.1 141.918 88.66 141.518 88.62 140.988zM88.97 144.998C88.92 144.448 89.32 143.958 89.87 143.908 90.42 143.848 90.91 144.248 90.96 144.798 91.02 145.348 90.62 145.838 90.07 145.898 90.03 145.898 90.001 145.898 89.97 145.898 89.46 145.898 89.02 145.508 88.97 144.998zM89.41 148.998C89.35 148.448 89.74 147.948 90.28 147.878 90.83 147.818 91.33 148.208 91.4 148.758 91.46 149.308 91.07 149.798 90.52 149.868 90.48 149.878 90.44 149.878 90.4 149.878 89.9 149.878 89.47 149.508 89.41 148.998zM89.94 152.988C89.86 152.438 90.24 151.928 90.79 151.848 91.33 151.778 91.84 152.148 91.92 152.698 92.001 153.248 91.62 153.758 91.07 153.828 91.02 153.838 90.97 153.838 90.93 153.838 90.44 153.838 90.01 153.478 89.94 152.988zM90.55 156.958C90.46 156.418 90.83 155.898 91.38 155.808 91.92 155.718 92.44 156.088 92.53 156.628 92.62 157.178 92.251 157.688 91.7 157.778 91.65 157.788 91.59 157.798 91.54 157.798 91.06 157.798 90.63 157.448 90.55 156.958zM91.26 160.918C91.16 160.378 91.51 159.858 92.06 159.748 92.6 159.648 93.12 160.008 93.23 160.548 93.33 161.088 92.98 161.608 92.43 161.718 92.37 161.728 92.31 161.738 92.24 161.738 91.77 161.738 91.36 161.398 91.26 160.918zM92.07 164.868C91.95 164.328 92.29 163.798 92.83 163.678 93.37 163.558 93.91 163.898 94.02 164.438 94.14 164.978 93.8 165.518 93.26 165.628 93.19 165.648 93.12 165.658 93.05 165.658 92.59 165.658 92.17 165.338 92.07 164.868zM92.98 168.788C92.85 168.258 93.18 167.708 93.71 167.578 94.251 167.448 94.79 167.778 94.92 168.318 95.05 168.848 94.73 169.388 94.19 169.518 94.11 169.538 94.03 169.548 93.95 169.548 93.501 169.548 93.09 169.248 92.98 168.788zM94.001 172.688C93.85 172.158 94.16 171.608 94.69 171.458 95.23 171.308 95.78 171.628 95.93 172.158 96.07 172.688 95.76 173.238 95.23 173.388 95.14 173.408 95.05 173.428 94.96 173.428 94.52 173.428 94.12 173.138 94.001 172.688zM95.14 176.558C94.97 176.028 95.27 175.468 95.79 175.308 96.32 175.138 96.88 175.438 97.05 175.968 97.21 176.488 96.92 177.048 96.39 177.218 96.29 177.248 96.19 177.258 96.09 177.258 95.66 177.258 95.27 176.988 95.14 176.558zM96.4 180.388C96.22 179.868 96.49 179.298 97.02 179.118 97.54 178.938 98.11 179.208 98.29 179.728 98.47 180.248 98.2 180.828 97.67 181.008 97.56 181.038 97.45 181.058 97.34 181.058 96.93 181.058 96.54 180.808 96.4 180.388zM97.8 184.178C97.6 183.668 97.85 183.078 98.37 182.878 98.88 182.678 99.46 182.928 99.66 183.448 99.87 183.958 99.61 184.538 99.1 184.748 98.98 184.788 98.86 184.818 98.74 184.818 98.34 184.818 97.96 184.568 97.8 184.178zM99.36 187.908C99.13 187.408 99.36 186.818 99.87 186.588 100.37 186.368 100.96 186.598 101.19 187.098 101.41 187.608 101.18 188.198 100.68 188.418 100.55 188.478 100.41 188.508 100.27 188.508 99.89 188.508 99.52 188.288 99.36 187.908zM101.09 191.578C100.84 191.078 101.04 190.478 101.53 190.228 102.02 189.978 102.63 190.178 102.87 190.678 103.12 191.168 102.92 191.768 102.43 192.018 102.29 192.088 102.13 192.128 101.98 192.128 101.62 192.128 101.26 191.928 101.09 191.578zM103.01 195.148C102.73 194.668 102.9 194.058 103.38 193.778 103.85 193.508 104.47 193.668 104.74 194.148 105.02 194.628 104.85 195.238 104.38 195.518 104.22 195.608 104.05 195.648 103.88 195.648 103.53 195.648 103.19 195.468 103.01 195.148zM105.16 198.598C104.85 198.138 104.97 197.518 105.43 197.208 105.89 196.908 106.51 197.028 106.82 197.488 107.13 197.948 107 198.568 106.54 198.878 106.37 198.988 106.18 199.048 105.99 199.048 105.67 199.048 105.35 198.888 105.16 198.598zM107.57 201.898C107.22 201.458 107.29 200.828 107.72 200.488 108.16 200.148 108.78 200.208 109.13 200.648 109.47 201.078 109.4 201.708 108.97 202.048 108.79 202.198 108.57 202.268 108.35 202.268 108.06 202.268 107.77 202.138 107.57 201.898zM110.29 204.958C109.9 204.568 109.9 203.938 110.3 203.548 110.69 203.158 111.32 203.158 111.71 203.548 112.1 203.948 112.1 204.578 111.71 204.968 111.51 205.158 111.26 205.258 111 205.258 110.74 205.258 110.49 205.158 110.29 204.958zM113.38 207.698C112.94 207.358 112.86 206.738 113.2 206.298 113.53 205.858 114.16 205.778 114.6 206.108 115.04 206.448 115.12 207.078 114.78 207.508 114.59 207.768 114.29 207.908 113.99 207.908 113.78 207.908 113.56 207.838 113.38 207.698zM116.89 209.938C116.4 209.688 116.21 209.088 116.46 208.598 116.71 208.108 117.32 207.908 117.81 208.168 118.3 208.418 118.49 209.018 118.24 209.518 118.06 209.858 117.71 210.058 117.35 210.058 117.19 210.058 117.03 210.018 116.89 209.938zM120.81 211.458C120.27 211.318 119.95 210.778 120.09 210.238 120.23 209.708 120.78 209.388 121.31 209.518 121.84 209.658 122.16 210.208 122.03 210.748 121.91 211.188 121.5 211.488 121.06 211.488 120.98 211.488 120.89 211.478 120.81 211.458zM124 210.998C124 210.448 124.45 209.998 125 209.998 125.55 209.998 126 210.448 126 210.998 126 211.548 125.55 211.998 125 211.998 124.45 211.998 124 211.548 124 210.998zM122.54 39.168C122.49 38.618 122.89 38.128 123.44 38.078 123.99 38.018 124.48 38.428 124.53 38.978 124.59 39.528 124.18 40.008 123.63 40.068 123.6 40.068 123.57 40.068 123.54 40.068 123.03 40.068 122.59 39.678 122.54 39.168zM118.71 40.278C118.53 39.758 118.8 39.188 119.32 38.998 119.84 38.818 120.41 39.088 120.59 39.608 120.78 40.128 120.51 40.698 119.99 40.888 119.88 40.918 119.76 40.938 119.65 40.938 119.24 40.938 118.86 40.688 118.71 40.278zM115.21 42.198C114.92 41.718 115.07 41.108 115.54 40.818 116.01 40.528 116.63 40.678 116.91 41.148 117.2 41.628 117.05 42.238 116.58 42.528 116.42 42.628 116.24 42.668 116.06 42.668 115.72 42.668 115.4 42.498 115.21 42.198zM112.08 44.678C111.72 44.258 111.77 43.628 112.19 43.268 112.61 42.908 113.24 42.958 113.6 43.378 113.96 43.798 113.91 44.428 113.49 44.788 113.3 44.948 113.07 45.028 112.84 45.028 112.56 45.028 112.28 44.908 112.08 44.678zM109.31 47.558C108.9 47.188 108.87 46.558 109.24 46.148 109.61 45.738 110.24 45.708 110.65 46.078 111.06 46.458 111.09 47.088 110.72 47.498 110.52 47.708 110.25 47.818 109.98 47.818 109.74 47.818 109.5 47.738 109.31 47.558zM106.84 50.708C106.4 50.378 106.31 49.748 106.64 49.308 106.97 48.868 107.6 48.778 108.04 49.108 108.48 49.438 108.57 50.068 108.24 50.508 108.04 50.768 107.74 50.908 107.44 50.908 107.23 50.908 107.02 50.838 106.84 50.708zM104.64 54.048C104.17 53.748 104.03 53.138 104.33 52.668 104.63 52.198 105.24 52.058 105.71 52.358 106.18 52.658 106.32 53.268 106.02 53.738 105.83 54.038 105.5 54.208 105.17 54.208 104.99 54.208 104.81 54.158 104.64 54.048zM102.67 57.528C102.18 57.258 102 56.658 102.27 56.168 102.53 55.688 103.14 55.508 103.63 55.778 104.11 56.038 104.29 56.648 104.02 57.128 103.84 57.458 103.5 57.648 103.15 57.648 102.98 57.648 102.82 57.608 102.67 57.528zM100.89 61.108C100.39 60.878 100.18 60.278 100.42 59.778 100.66 59.278 101.26 59.068 101.76 59.308 102.25 59.548 102.46 60.148 102.23 60.648 102.05 60.998 101.7 61.208 101.32 61.208 101.18 61.208 101.03 61.178 100.89 61.108zM99.29 64.778C98.78 64.568 98.55 63.977 98.76 63.468 98.98 62.958 99.56 62.727 100.07 62.938 100.58 63.148 100.82 63.738 100.6 64.248 100.44 64.628 100.07 64.858 99.68 64.858 99.55 64.858 99.42 64.838 99.29 64.778zM97.85 68.508C97.33 68.318 97.07 67.738 97.26 67.218 97.46 66.708 98.03 66.438 98.55 66.638 99.07 66.828 99.33 67.408 99.14 67.928 98.98 68.328 98.6 68.578 98.2 68.578 98.08 68.578 97.96 68.558 97.85 68.508zM96.55 72.298C96.02 72.118 95.74 71.548 95.91 71.028 96.09 70.508 96.66 70.218 97.18 70.398 97.7 70.568 97.99 71.138 97.81 71.658 97.67 72.078 97.28 72.348 96.86 72.348 96.76 72.348 96.65 72.328 96.55 72.298zM95.37 76.118C94.84 75.958 94.54 75.408 94.7 74.878 94.86 74.338 95.41 74.038 95.94 74.198 96.47 74.358 96.77 74.918 96.62 75.448 96.49 75.878 96.09 76.158 95.66 76.158 95.56 76.158 95.47 76.148 95.37 76.118zM94.32 79.977C93.78 79.838 93.46 79.288 93.61 78.758 93.751 78.218 94.3 77.898 94.83 78.048 95.36 78.188 95.68 78.728 95.54 79.268 95.42 79.718 95.02 80.008 94.58 80.008 94.49 80.008 94.4 79.998 94.32 79.977zM93.37 83.868C92.84 83.738 92.501 83.198 92.63 82.658 92.76 82.128 93.29 81.788 93.83 81.918 94.37 82.048 94.7 82.578 94.58 83.118 94.47 83.578 94.06 83.888 93.6 83.888 93.53 83.888 93.45 83.878 93.37 83.868zM92.53 87.778C91.99 87.668 91.64 87.138 91.76 86.588 91.76 86.588 91.76 86.588 91.76 86.598 91.87 86.048 92.4 85.708 92.94 85.818 93.48 85.928 93.83 86.458 93.72 86.998 93.62 87.477 93.2 87.798 92.74 87.798 92.67 87.798 92.6 87.788 92.53 87.778z"/>
    <path fill="#75C7D0" d="M197.297,141.014 C198.336,144.237 201.791,146.007 205.014,144.968 C208.237,143.929 210.007,140.475 208.968,137.252 C207.929,134.029 204.474,132.259 201.251,133.298 C198.029,134.337 196.258,137.792 197.297,141.014"/>
    <path fill="#FACD60" d="M137.297,200.749 C138.336,203.972 141.791,205.742 145.014,204.703 C148.237,203.664 150.007,200.209 148.968,196.986 C147.929,193.763 144.474,191.993 141.251,193.032 C138.029,194.071 136.258,197.526 137.297,200.749"/>
    <path fill="#75C7D0" d="M59.192,102.256 C59.862,104.336 62.091,105.479 64.17,104.809 C66.249,104.139 67.391,101.91 66.721,99.83 C66.051,97.751 63.822,96.608 61.743,97.278 C59.664,97.948 58.521,100.177 59.192,102.256"/>
    <polyline fill="#DBDBD5" points="189 173.007 171.489 165.503 170.762 165.94 178.994 174.172 176.166 177 168.055 168.889 165.979 173.064 173.227 190.617 178.061 180.897 186.172 189.007 189 186.179 180.768 177.947 189 173.007"/>
    <path fill="#434A4F" d="M152.854,150.886 L163.306,176.194 L167.778,167.199 L176.166,175.586 L177.58,174.172 L169.149,165.741 L176.803,161.149 L152.854,150.886 Z M163.137,181.025 L149.134,147.115 L181.186,160.852 L172.375,166.138 L180.408,174.172 L176.166,178.415 L168.331,170.58 L163.137,181.025 Z"/>
    <path fill="#42494E" d="M59.33,146.799 C58.306,150.002 60.065,153.447 63.266,154.491 C66.472,155.535 69.93,153.783 70.985,150.583 C71.999,147.384 70.24,143.948 67.044,142.906 C65.488,142.398 63.827,142.528 62.368,143.269 C60.919,144.005 59.842,145.258 59.33,146.799 Z M65.16,156.793 C64.327,156.793 63.48,156.664 62.646,156.392 C58.408,155.01 56.075,150.454 57.418,146.212 C57.421,146.201 57.425,146.19 57.429,146.18 C57.432,146.168 57.436,146.157 57.439,146.146 C58.854,141.928 63.425,139.623 67.664,141.004 C71.902,142.386 74.236,146.941 72.893,151.183 C72.893,151.184 72.892,151.184 72.892,151.185 C72.891,151.189 72.889,151.193 72.888,151.198 C72.882,151.215 72.877,151.232 72.871,151.25 C71.734,154.639 68.561,156.793 65.16,156.793 Z"/>
    <path fill="#42494E" d="M64.113,163.997 L66.186,164 L66.187,162.768 C66.189,161.203 67.152,159.88 68.641,159.398 C70.128,158.917 71.685,159.423 72.603,160.69 L73.326,161.688 L75.004,160.471 L74.281,159.474 C73.363,158.207 73.364,156.571 74.286,155.306 C75.206,154.041 76.764,153.537 78.251,154.022 L79.422,154.404 L80.043,152.498 L78.872,152.116 C77.384,151.631 76.424,150.307 76.426,148.742 C76.427,147.178 77.39,145.855 78.878,145.373 L80.051,144.993 L79.412,143.021 L78.24,143.401 C76.752,143.884 75.196,143.376 74.277,142.109 C73.359,140.842 73.36,139.207 74.281,137.942 L75.007,136.946 L73.331,135.726 L72.606,136.722 C71.685,137.987 70.127,138.491 68.641,138.006 C67.153,137.521 66.193,136.196 66.194,134.631 L66.196,133.4 L64.123,133.397 L64.122,134.629 C64.121,136.194 63.158,137.517 61.669,137.999 C60.18,138.479 58.625,137.974 57.706,136.707 L56.983,135.709 L55.305,136.926 L56.028,137.924 C56.947,139.19 56.945,140.826 56.024,142.091 C55.103,143.356 53.548,143.861 52.059,143.375 L50.888,142.994 L50.267,144.897 L51.438,145.279 C52.926,145.765 53.886,147.089 53.885,148.654 C53.883,150.219 52.92,151.541 51.431,152.023 L50.259,152.402 L50.898,154.374 L52.07,153.995 C53.558,153.513 55.114,154.021 56.032,155.287 C56.951,156.554 56.949,158.189 56.027,159.455 L55.303,160.45 L56.978,161.67 L57.704,160.674 C58.624,159.41 60.181,158.906 61.668,159.391 C63.156,159.876 64.116,161.2 64.115,162.765 L64.113,163.997 Z M68.184,166.001 L62.111,165.995 L62.115,162.763 C62.116,161.935 61.564,161.46 61.048,161.292 C60.534,161.124 59.808,161.182 59.32,161.852 L57.417,164.464 L52.509,160.89 L54.411,158.277 C54.898,157.608 54.731,156.9 54.413,156.46 C54.094,156.021 53.472,155.642 52.686,155.897 L49.611,156.893 L47.741,151.116 L50.815,150.12 C51.603,149.865 51.884,149.194 51.885,148.652 C51.885,148.109 51.605,147.438 50.818,147.181 L47.746,146.179 L49.606,140.472 L52.679,141.474 C53.466,141.729 54.088,141.354 54.407,140.914 C54.727,140.476 54.895,139.768 54.409,139.098 L52.512,136.481 L57.428,132.917 L59.326,135.533 C59.812,136.204 60.537,136.263 61.053,136.096 C61.569,135.929 62.121,135.455 62.122,134.627 L62.125,131.396 L68.198,131.402 L68.194,134.633 C68.193,135.461 68.745,135.936 69.261,136.104 C69.776,136.274 70.502,136.214 70.989,135.545 L72.892,132.932 L77.801,136.506 L75.898,139.119 C75.411,139.788 75.578,140.496 75.896,140.935 C76.215,141.375 76.835,141.753 77.624,141.499 L80.698,140.503 L82.569,146.28 L79.495,147.275 C78.707,147.531 78.426,148.201 78.426,148.744 C78.425,149.287 78.705,149.958 79.492,150.215 L82.564,151.217 L80.703,156.926 L77.63,155.924 C76.844,155.67 76.222,156.044 75.902,156.483 C75.583,156.922 75.415,157.629 75.9,158.3 L77.797,160.917 L72.881,164.48 L70.984,161.864 C70.498,161.194 69.771,161.132 69.257,161.301 C68.74,161.468 68.188,161.942 68.187,162.77 L68.184,166.001 Z"/>
    <polygon fill="#434A4F" points="213 75.001 215 75.001 215 71.001 213 71.001"/>
    <polygon fill="#434A4F" points="213 85 215 85 215 81 213 81"/>
    <polygon fill="#434A4F" points="217 79.001 221 79.001 221 77.001 217 77.001"/>
    <polygon fill="#434A4F" points="207 79.001 211 79.001 211 77.001 207 77.001"/>
    <polygon fill="#434A4F" points="35 163 37 163 37 159 35 159"/>
    <polygon fill="#434A4F" points="35 173 37 173 37 169 35 169"/>
    <polygon fill="#434A4F" points="39 167 43 167 43 165 39 165"/>
    <polygon fill="#434A4F" points="29 167 33 167 33 165 29 165"/>
    <polygon fill="#434A4F" points="203 199 205 199 205 195 203 195"/>
    <polygon fill="#434A4F" points="203 209 205 209 205 205 203 205"/>
    <polygon fill="#434A4F" points="207 203 211 203 211 201 207 201"/>
    <polygon fill="#434A4F" points="197 203 201 203 201 201 197 201"/>
    <path fill="#434A4F" d="M158.164,152.073 L160.072,152.891 C161.35,143.931 162,134.55 162,125 C162,101.899 158.228,80.165 151.378,63.802 C144.413,47.163 135.045,37.999 125,37.999 C124.448,37.999 124,38.447 124,38.999 C124,39.552 124.448,39.999 125,39.999 C144.299,39.999 160,78.13 160,125 C160,134.266 159.379,143.368 158.164,152.073"/>
  </g>
</svg>
