<svg xmlns="http://www.w3.org/2000/svg" width="250" height="250" viewBox="0 0 250 250">
  <g fill="none" fill-rule="evenodd">
    <path fill="#FACD60" d="M125.132,40 C78.263,40 40.132,78.131 40.132,125 C40.132,171.869 78.263,210 125.132,210 C172.001,210 210.132,171.869 210.132,125 C210.132,78.131 172.001,40 125.132,40 Z M125.132,216 C74.954,216 34.132,175.178 34.132,125 C34.132,74.822 74.954,34 125.132,34 C175.31,34 216.132,74.822 216.132,125 C216.132,175.178 175.31,216 125.132,216 Z"/>
    <path fill="#DBDBD5" d="M125.132 77C149.952 77 170.37 95.839 172.872 119.997 173.043 118.352 173.132 116.684 173.132 114.994 173.132 88.484 151.642 66.994 125.132 66.994 98.622 66.994 77.132 88.484 77.132 114.994 77.132 116.684 77.222 118.352 77.392 119.997 79.894 95.839 100.312 77 125.132 77M125.132 192.994C83.736 192.994 49.891 160.741 47.309 119.997 47.204 121.653 47.132 123.318 47.132 125 47.132 168.078 82.054 203 125.132 203 168.21 203 203.132 168.078 203.132 125 203.132 123.318 203.06 121.653 202.955 119.997 200.374 160.741 166.528 192.994 125.132 192.994"/>
    <path fill="#E9886C" d="M64.678 80.621L81.941 97.884C86.115 91.229 91.718 85.677 98.412 81.564L81.117 64.269C74.814 68.842 69.3 74.327 64.678 80.621M168.137 97.583L185.376 80.345C180.724 74.071 175.184 68.611 168.862 64.068L151.551 81.378C158.275 85.444 163.918 90.958 168.137 97.583M152.248 168.191L169.511 185.455C175.806 180.832 181.291 175.317 185.863 169.016L168.568 151.72C164.455 158.414 158.903 164.018 152.248 168.191M81.51 151.419L64.2 168.729C68.743 175.052 74.203 180.592 80.477 185.244L97.715 168.005C91.089 163.785 85.577 158.143 81.51 151.419"/>
    <path fill="#434A4F" d="M168.048 102.916C167.792 102.916 167.536 102.818 167.341 102.623 166.951 102.232 166.951 101.599 167.341 101.209L188.341 80.209C188.732 79.818 189.365 79.818 189.755 80.209 190.146 80.599 190.146 81.232 189.755 81.623L168.755 102.623C168.56 102.818 168.304 102.916 168.048 102.916M147.097 82.59C146.841 82.59 146.585 82.492 146.39 82.297 145.999 81.906 145.999 81.274 146.39 80.883L167.703 59.57C168.093 59.18 168.726 59.18 169.117 59.57 169.507 59.961 169.507 60.594 169.117 60.985L147.804 82.297C147.609 82.492 147.353 82.59 147.097 82.59M81.048 189.916C80.791 189.916 80.534 189.817 80.338 189.62 79.95 189.228 79.951 188.595 80.344 188.206L101.616 167.103C102.005 166.715 102.64 166.716 103.03 167.109 103.418 167.501 103.416 168.134 103.024 168.523L81.752 189.626C81.558 189.819 81.303 189.916 81.048 189.916M60.785 168.903C60.529 168.903 60.273 168.805 60.077 168.61 59.687 168.219 59.687 167.586 60.077 167.196L81.077 146.196C81.468 145.805 82.101 145.805 82.492 146.196 82.882 146.586 82.882 147.219 82.492 147.61L61.492 168.61C61.296 168.805 61.04 168.903 60.785 168.903M168.973 190.159C168.717 190.159 168.461 190.061 168.266 189.866L147.266 168.866C146.875 168.475 146.875 167.843 147.266 167.452 147.657 167.061 148.289 167.061 148.68 167.452L169.68 188.452C170.071 188.843 170.071 189.475 169.68 189.866 169.485 190.061 169.229 190.159 168.973 190.159M189.612 169.521C189.356 169.521 189.1 169.423 188.905 169.228L167.905 148.228C167.514 147.837 167.514 147.204 167.905 146.814 168.295 146.423 168.928 146.423 169.319 146.814L190.319 167.814C190.709 168.204 190.709 168.837 190.319 169.228 190.123 169.423 189.868 169.521 189.612 169.521M81.973 103.159C81.717 103.159 81.461 103.061 81.266 102.866L60.266 81.866C59.875 81.475 59.875 80.842 60.266 80.452 60.657 80.061 61.289 80.061 61.68 80.452L82.68 101.452C83.071 101.843 83.071 102.475 82.68 102.866 82.485 103.061 82.229 103.159 81.973 103.159M102.612 82.521C102.356 82.521 102.1 82.423 101.905 82.228L80.905 61.228C80.514 60.837 80.514 60.204 80.905 59.814 81.295 59.423 81.928 59.423 82.319 59.814L103.319 80.814C103.709 81.204 103.709 81.837 103.319 82.228 103.123 82.423 102.868 82.521 102.612 82.521"/>
    <path fill="#434A4F" d="M125.132,48 C82.674,48 48.132,82.542 48.132,125 C48.132,167.458 82.674,202 125.132,202 C167.59,202 202.132,167.458 202.132,125 C202.132,82.542 167.59,48 125.132,48 Z M125.132,204 C81.572,204 46.132,168.561 46.132,125 C46.132,81.44 81.572,46 125.132,46 C168.693,46 204.132,81.44 204.132,125 C204.132,168.561 168.693,204 125.132,204 Z"/>
    <path fill="#434A4F" d="M125.132 78C99.216 78 78.132 99.084 78.132 125 78.132 150.916 99.216 172 125.132 172 151.048 172 172.132 150.916 172.132 125 172.132 99.084 151.048 78 125.132 78zM125.132 174C98.114 174 76.132 152.019 76.132 125 76.132 97.982 98.114 76 125.132 76 152.151 76 174.132 97.982 174.132 125 174.132 152.019 152.151 174 125.132 174zM35.132 125.997C35.063 125.997 35.002 125.997 34.932 125.977 34.872 125.968 34.813 125.947 34.752 125.927 34.693 125.898 34.632 125.867 34.573 125.827 34.523 125.798 34.472 125.758 34.422 125.708 34.332 125.617 34.262 125.508 34.212 125.378 34.153 125.258 34.132 125.128 34.132 124.997 34.132 124.738 34.243 124.477 34.422 124.298 34.792 123.918 35.472 123.918 35.842 124.298 35.882 124.338 35.922 124.387 35.962 124.447 36.002 124.497 36.033 124.557 36.052 124.617 36.082 124.677 36.103 124.738 36.113 124.807 36.122 124.867 36.132 124.938 36.132 124.997 36.132 125.128 36.103 125.258 36.052 125.378 36.002 125.508 35.932 125.617 35.842 125.708 35.653 125.898 35.392 125.997 35.132 125.997M126.082 34.997C126.092 34.447 126.552 34.007 127.103 34.017 127.653 34.037 128.092 34.487 128.082 35.048 128.073 35.597 127.613 36.028 127.063 36.017 126.512 36.008 126.073 35.548 126.082 34.997zM122.103 35.048C122.092 34.497 122.523 34.037 123.082 34.028 123.632 34.007 124.092 34.447 124.103 34.997 124.113 35.548 123.672 36.008 123.122 36.017 123.113 36.017 123.113 36.017 123.103 36.017 122.552 36.017 122.113 35.588 122.103 35.048zM130.993 36.188C130.443 36.157 130.023 35.677 130.063 35.128 130.092 34.577 130.573 34.157 131.122 34.197 131.672 34.227 132.092 34.708 132.052 35.258 132.023 35.787 131.582 36.188 131.063 36.188 131.042 36.188 131.012 36.188 130.993 36.188zM118.122 35.258C118.092 34.708 118.502 34.237 119.052 34.197 119.613 34.168 120.082 34.577 120.122 35.137 120.153 35.688 119.743 36.157 119.193 36.197 119.162 36.197 119.142 36.197 119.122 36.197 118.603 36.197 118.162 35.787 118.122 35.258zM134.912 36.528L134.922 36.528C134.372 36.467 133.972 35.977 134.033 35.427 134.092 34.878 134.582 34.487 135.132 34.548 135.682 34.608 136.082 35.097 136.023 35.648 135.962 36.157 135.533 36.537 135.023 36.537 134.993 36.537 134.953 36.537 134.912 36.528zM114.162 35.657C114.103 35.108 114.502 34.617 115.052 34.548 115.592 34.497 116.092 34.887 116.153 35.438 116.212 35.987 115.813 36.477 115.273 36.537 115.233 36.548 115.193 36.548 115.162 36.548 114.653 36.548 114.222 36.168 114.162 35.657zM138.823 37.048C138.273 36.958 137.903 36.447 137.983 35.907 138.063 35.358 138.582 34.987 139.122 35.068 139.672 35.157 140.042 35.668 139.962 36.208 139.882 36.708 139.453 37.057 138.972 37.057 138.922 37.057 138.872 37.057 138.823 37.048zM110.222 36.227C110.142 35.677 110.512 35.168 111.063 35.077 111.603 34.997 112.113 35.367 112.203 35.918 112.283 36.458 111.912 36.967 111.363 37.057 111.313 37.068 111.262 37.068 111.212 37.068 110.722 37.068 110.302 36.717 110.222 36.227zM142.693 37.737C142.153 37.628 141.802 37.097 141.912 36.557 142.023 36.017 142.542 35.657 143.092 35.767 143.092 35.767 143.092 35.767 143.092 35.778 143.632 35.878 143.983 36.407 143.872 36.947 143.773 37.428 143.363 37.757 142.892 37.757 142.823 37.757 142.762 37.747 142.693 37.737zM106.313 36.967C106.203 36.427 106.552 35.898 107.092 35.787 107.632 35.677 108.162 36.028 108.273 36.568 108.382 37.108 108.033 37.637 107.493 37.747 107.422 37.757 107.363 37.767 107.292 37.767 106.823 37.767 106.412 37.438 106.313 36.967zM146.542 38.588C146.002 38.458 145.672 37.918 145.802 37.378 145.943 36.847 146.483 36.517 147.012 36.648 147.012 36.648 147.012 36.648 147.023 36.648 147.552 36.778 147.882 37.327 147.752 37.858 147.632 38.318 147.222 38.617 146.783 38.617 146.703 38.617 146.622 38.608 146.542 38.588zM102.443 37.878C102.302 37.338 102.632 36.798 103.172 36.668 103.703 36.537 104.243 36.858 104.382 37.398 104.512 37.938 104.182 38.477 103.653 38.608 103.573 38.628 103.483 38.637 103.412 38.637 102.962 38.637 102.552 38.338 102.443 37.878zM150.342 39.617C149.813 39.458 149.502 38.907 149.662 38.378 149.813 37.847 150.372 37.548 150.903 37.697 151.432 37.858 151.733 38.407 151.582 38.947 151.453 39.378 151.052 39.657 150.622 39.657 150.523 39.657 150.432 39.648 150.342 39.617zM98.613 38.967C98.452 38.438 98.752 37.878 99.283 37.727 99.813 37.568 100.372 37.867 100.523 38.398 100.682 38.928 100.382 39.487 99.853 39.637 99.752 39.668 99.662 39.678 99.563 39.678 99.132 39.678 98.733 39.398 98.613 38.967zM154.092 40.818C153.563 40.637 153.292 40.068 153.462 39.548 153.642 39.017 154.212 38.747 154.743 38.928 155.262 39.108 155.542 39.678 155.353 40.197 155.212 40.608 154.823 40.867 154.412 40.867 154.302 40.867 154.193 40.858 154.092 40.818zM94.832 40.217C94.653 39.697 94.922 39.128 95.452 38.947 95.972 38.767 96.542 39.048 96.722 39.568 96.903 40.088 96.622 40.657 96.103 40.847 95.993 40.878 95.882 40.898 95.773 40.898 95.363 40.898 94.972 40.637 94.832 40.217zM157.792 42.177C157.273 41.977 157.023 41.398 157.222 40.887 157.432 40.367 158.012 40.117 158.523 40.318 159.042 40.528 159.292 41.108 159.082 41.617 158.932 42.017 158.552 42.247 158.153 42.247 158.033 42.247 157.912 42.227 157.792 42.177zM91.113 41.648C90.912 41.128 91.162 40.548 91.672 40.347 92.193 40.148 92.773 40.398 92.972 40.907 93.172 41.427 92.922 42.008 92.412 42.208 92.292 42.257 92.162 42.278 92.042 42.278 91.642 42.278 91.273 42.037 91.113 41.648zM161.422 43.708C160.922 43.487 160.693 42.898 160.922 42.387 161.153 41.887 161.733 41.657 162.243 41.887 162.743 42.108 162.972 42.708 162.743 43.208 162.582 43.577 162.212 43.798 161.832 43.798 161.693 43.798 161.552 43.767 161.422 43.708zM87.472 43.227C87.243 42.727 87.472 42.137 87.972 41.907 88.483 41.688 89.073 41.907 89.292 42.407 89.523 42.918 89.292 43.508 88.792 43.737 88.662 43.787 88.523 43.818 88.382 43.818 88.002 43.818 87.632 43.597 87.472 43.227zM164.993 45.398C164.493 45.157 164.292 44.557 164.542 44.057 164.792 43.568 165.392 43.367 165.882 43.617 166.382 43.858 166.582 44.467 166.332 44.958 166.153 45.307 165.802 45.507 165.432 45.507 165.283 45.507 165.132 45.477 164.993 45.398zM83.903 44.977C83.653 44.477 83.853 43.878 84.342 43.628 84.832 43.378 85.432 43.577 85.682 44.077 85.932 44.568 85.733 45.168 85.243 45.418 85.092 45.487 84.943 45.528 84.792 45.528 84.422 45.528 84.073 45.318 83.903 44.977zM168.472 47.247C167.993 46.977 167.813 46.367 168.082 45.887 168.353 45.407 168.962 45.227 169.453 45.497 169.932 45.767 170.103 46.378 169.832 46.867 169.653 47.188 169.313 47.378 168.962 47.378 168.792 47.378 168.622 47.338 168.472 47.247zM80.412 46.878C80.142 46.398 80.313 45.787 80.792 45.517 81.273 45.247 81.882 45.418 82.153 45.898 82.422 46.378 82.252 46.987 81.773 47.258 81.613 47.347 81.443 47.387 81.283 47.387 80.932 47.387 80.592 47.197 80.412 46.878zM171.872 49.247C171.403 48.958 171.252 48.338 171.542 47.867 171.832 47.398 172.453 47.258 172.922 47.548 173.392 47.838 173.542 48.447 173.252 48.918 173.063 49.227 172.733 49.398 172.392 49.398 172.212 49.398 172.033 49.347 171.872 49.247zM77.002 48.927C76.712 48.458 76.863 47.847 77.332 47.548 77.802 47.258 78.412 47.407 78.702 47.878 78.993 48.347 78.853 48.958 78.382 49.257 78.222 49.358 78.033 49.398 77.853 49.398 77.523 49.398 77.193 49.237 77.002 48.927zM175.172 51.398C174.722 51.077 174.603 50.458 174.912 49.997 175.222 49.548 175.842 49.428 176.302 49.737 176.762 50.048 176.872 50.668 176.563 51.128 176.372 51.418 176.052 51.568 175.733 51.568 175.542 51.568 175.342 51.507 175.172 51.398zM73.693 51.137C73.382 50.677 73.502 50.057 73.952 49.747 73.952 49.747 73.952 49.747 73.962 49.747 74.412 49.428 75.033 49.548 75.342 50.007 75.653 50.467 75.542 51.088 75.082 51.398 74.912 51.517 74.712 51.568 74.523 51.568 74.202 51.568 73.882 51.418 73.693 51.137zM178.382 53.677C177.943 53.347 177.853 52.717 178.182 52.278 178.512 51.838 179.132 51.747 179.582 52.077 180.023 52.407 180.113 53.037 179.783 53.477 179.582 53.737 179.283 53.878 178.983 53.878 178.773 53.878 178.563 53.818 178.382 53.677zM70.483 53.477C70.153 53.037 70.243 52.407 70.682 52.077 71.122 51.747 71.752 51.838 72.082 52.278 72.412 52.727 72.323 53.347 71.882 53.677 71.702 53.818 71.493 53.878 71.283 53.878 70.983 53.878 70.672 53.737 70.483 53.477zM67.372 55.967C67.023 55.537 67.082 54.907 67.512 54.557 67.943 54.208 68.573 54.278 68.922 54.698 69.273 55.128 69.212 55.758 68.783 56.108 68.592 56.258 68.372 56.338 68.153 56.338 67.863 56.338 67.573 56.208 67.372 55.967zM181.483 56.108C181.052 55.758 180.993 55.128 181.342 54.698 181.693 54.278 182.323 54.217 182.752 54.568 183.172 54.918 183.243 55.537 182.892 55.967 182.693 56.208 182.403 56.338 182.122 56.338 181.892 56.338 181.672 56.258 181.483 56.108zM64.382 58.588C64.012 58.177 64.052 57.548 64.462 57.177 64.872 56.807 65.502 56.847 65.872 57.258 66.243 57.668 66.202 58.298 65.792 58.668 65.603 58.838 65.363 58.918 65.122 58.918 64.853 58.918 64.582 58.807 64.382 58.588zM184.472 58.668C184.063 58.307 184.033 57.668 184.403 57.258 184.762 56.847 185.403 56.818 185.813 57.177 186.222 57.548 186.252 58.188 185.882 58.597 185.693 58.818 185.412 58.927 185.142 58.927 184.903 58.927 184.662 58.847 184.472 58.668zM61.502 61.338C61.122 60.947 61.122 60.307 61.523 59.928 61.912 59.537 62.552 59.548 62.932 59.938 63.323 60.338 63.313 60.967 62.922 61.358 62.722 61.548 62.472 61.637 62.222 61.637 61.962 61.637 61.702 61.537 61.502 61.338zM187.353 61.358C186.953 60.977 186.953 60.338 187.332 59.948 187.722 59.557 188.353 59.548 188.752 59.938 188.752 59.938 188.752 59.938 188.752 59.928 189.142 60.318 189.153 60.947 188.762 61.347 188.573 61.548 188.313 61.648 188.052 61.648 187.802 61.648 187.542 61.548 187.353 61.358zM58.752 64.217C58.342 63.838 58.323 63.208 58.702 62.798 59.082 62.398 59.712 62.378 60.122 62.757 60.523 63.137 60.542 63.767 60.162 64.168 59.962 64.378 59.702 64.487 59.432 64.487 59.193 64.487 58.943 64.398 58.752 64.217zM190.103 64.177C189.722 63.767 189.743 63.137 190.153 62.757 190.552 62.387 191.182 62.407 191.563 62.807 191.943 63.208 191.922 63.847 191.523 64.227 191.323 64.407 191.082 64.487 190.832 64.487 190.573 64.487 190.302 64.387 190.103 64.177zM56.122 67.208C55.712 66.847 55.662 66.217 56.023 65.798 56.382 65.378 57.012 65.338 57.422 65.688 57.842 66.048 57.892 66.688 57.533 67.097 57.342 67.338 57.052 67.447 56.773 67.447 56.542 67.447 56.313 67.367 56.122 67.208zM192.733 67.108C192.372 66.688 192.422 66.057 192.842 65.698 193.262 65.338 193.892 65.387 194.252 65.807 194.613 66.227 194.563 66.858 194.142 67.217 193.953 67.378 193.722 67.458 193.493 67.458 193.212 67.458 192.932 67.338 192.733 67.108zM53.632 70.318C53.202 69.977 53.122 69.347 53.462 68.918 53.802 68.477 54.432 68.407 54.863 68.747 55.302 69.088 55.382 69.717 55.042 70.148 54.842 70.398 54.542 70.528 54.252 70.528 54.033 70.528 53.813 70.467 53.632 70.318zM195.222 70.148C194.882 69.717 194.962 69.088 195.392 68.747 195.832 68.407 196.462 68.477 196.802 68.918 197.142 69.347 197.063 69.977 196.632 70.318 196.443 70.467 196.233 70.537 196.012 70.537 195.712 70.537 195.422 70.398 195.222 70.148zM197.582 73.298C197.262 72.847 197.363 72.227 197.813 71.907 198.262 71.588 198.892 71.688 199.212 72.137 199.533 72.588 199.422 73.208 198.983 73.528 198.802 73.657 198.603 73.717 198.392 73.717 198.082 73.717 197.783 73.577 197.582 73.298zM51.283 73.537C50.832 73.217 50.733 72.588 51.052 72.137 51.372 71.688 51.993 71.588 52.443 71.907 52.892 72.227 53.002 72.858 52.672 73.307 52.483 73.577 52.172 73.717 51.863 73.717 51.662 73.717 51.462 73.657 51.283 73.537zM199.802 76.548C199.502 76.088 199.632 75.467 200.092 75.168 200.552 74.867 201.172 74.997 201.472 75.458 201.783 75.918 201.642 76.548 201.182 76.838 201.012 76.948 200.823 77.007 200.642 77.007 200.313 77.007 199.993 76.847 199.802 76.548zM49.073 76.847C48.613 76.548 48.483 75.927 48.783 75.467 49.082 75.008 49.702 74.878 50.162 75.177 50.622 75.477 50.762 76.097 50.452 76.557 50.262 76.847 49.943 77.017 49.613 77.017 49.432 77.017 49.243 76.958 49.073 76.847zM201.872 79.887L201.872 79.898C201.592 79.418 201.743 78.807 202.222 78.517 202.703 78.238 203.313 78.398 203.592 78.878 203.872 79.358 203.712 79.967 203.243 80.247 203.082 80.338 202.903 80.387 202.733 80.387 202.392 80.387 202.052 80.208 201.872 79.887zM47.012 80.267C46.533 79.988 46.382 79.367 46.662 78.898 46.932 78.418 47.552 78.257 48.033 78.537 48.502 78.818 48.662 79.438 48.382 79.907 48.193 80.227 47.863 80.398 47.523 80.398 47.342 80.398 47.172 80.358 47.012 80.267zM203.792 83.318C203.533 82.838 203.712 82.227 204.203 81.967 204.693 81.708 205.292 81.898 205.552 82.387 205.813 82.878 205.632 83.477 205.142 83.738 204.993 83.818 204.832 83.858 204.672 83.858 204.313 83.858 203.972 83.657 203.792 83.318zM45.103 83.767C44.622 83.507 44.432 82.898 44.693 82.407 44.952 81.927 45.552 81.737 46.042 81.997 46.533 82.257 46.712 82.858 46.462 83.347 46.283 83.688 45.932 83.878 45.573 83.878 45.412 83.878 45.252 83.847 45.103 83.767zM205.552 86.838C205.323 86.338 205.533 85.738 206.033 85.497 206.533 85.267 207.122 85.477 207.363 85.977 207.592 86.467 207.382 87.068 206.882 87.307 206.752 87.367 206.603 87.407 206.462 87.407 206.082 87.407 205.733 87.188 205.552 86.838zM43.353 87.347C42.853 87.108 42.642 86.517 42.882 86.017 43.122 85.517 43.712 85.307 44.212 85.537 44.712 85.778 44.922 86.378 44.693 86.878 44.512 87.238 44.162 87.448 43.783 87.448 43.642 87.448 43.493 87.418 43.353 87.347zM207.162 90.418C206.953 89.907 207.182 89.318 207.693 89.108 208.203 88.887 208.792 89.128 209.002 89.637 209.222 90.148 208.983 90.738 208.472 90.947 208.342 90.997 208.212 91.028 208.082 91.028 207.693 91.028 207.323 90.798 207.162 90.418zM41.762 91.007C41.262 90.787 41.023 90.208 41.233 89.697 41.452 89.188 42.033 88.947 42.542 89.168 43.052 89.378 43.292 89.967 43.073 90.467 42.912 90.858 42.542 91.088 42.153 91.088 42.023 91.088 41.892 91.057 41.762 91.007zM208.613 94.068C208.412 93.548 208.682 92.977 209.203 92.787 209.722 92.588 210.292 92.858 210.483 93.378 210.672 93.887 210.412 94.467 209.892 94.657 209.783 94.697 209.662 94.717 209.542 94.717 209.142 94.717 208.762 94.467 208.613 94.068zM40.342 94.738C39.823 94.537 39.552 93.967 39.752 93.447 39.943 92.927 40.512 92.668 41.033 92.858 41.552 93.048 41.823 93.628 41.622 94.137 41.472 94.548 41.092 94.798 40.693 94.798 40.573 94.798 40.452 94.778 40.342 94.738zM209.892 97.787C209.722 97.257 210.012 96.697 210.542 96.528 211.063 96.358 211.632 96.648 211.802 97.177 211.972 97.697 211.672 98.267 211.153 98.438 211.052 98.467 210.943 98.477 210.842 98.477 210.422 98.477 210.033 98.208 209.892 97.787zM39.082 98.517C38.552 98.358 38.262 97.787 38.432 97.267 38.603 96.738 39.162 96.447 39.693 96.617 40.222 96.787 40.512 97.347 40.342 97.878 40.202 98.298 39.813 98.568 39.392 98.568 39.292 98.568 39.182 98.557 39.082 98.517zM211.012 101.557C210.872 101.028 211.182 100.477 211.712 100.338 212.243 100.188 212.802 100.508 212.943 101.037 213.082 101.568 212.773 102.117 212.243 102.267 212.153 102.287 212.063 102.298 211.972 102.298 211.533 102.298 211.132 102.008 211.012 101.557zM38.002 102.347C37.462 102.208 37.153 101.657 37.292 101.128 37.443 100.588 37.993 100.278 38.523 100.418 39.052 100.568 39.372 101.117 39.222 101.648 39.103 102.097 38.702 102.387 38.262 102.387 38.172 102.387 38.082 102.378 38.002 102.347zM211.962 105.378C211.842 104.847 212.182 104.307 212.722 104.188 213.252 104.068 213.792 104.407 213.912 104.947 214.033 105.477 213.693 106.017 213.153 106.137 213.082 106.157 213.012 106.168 212.932 106.168 212.472 106.168 212.063 105.847 211.962 105.378zM37.082 106.227C36.542 106.108 36.212 105.568 36.332 105.037 36.332 105.037 36.332 105.037 36.323 105.037 36.452 104.497 36.983 104.157 37.523 104.278 38.063 104.398 38.403 104.927 38.283 105.468 38.172 105.938 37.762 106.247 37.302 106.247 37.233 106.247 37.162 106.247 37.082 106.227zM212.743 109.238C212.642 108.697 213.002 108.177 213.552 108.077 214.092 107.977 214.613 108.347 214.712 108.887 214.802 109.438 214.443 109.947 213.903 110.048 213.842 110.057 213.783 110.068 213.722 110.068 213.252 110.068 212.823 109.727 212.743 109.238zM36.342 110.137C35.802 110.037 35.443 109.517 35.542 108.977 35.542 108.977 35.542 108.977 35.533 108.977 35.632 108.438 36.153 108.068 36.693 108.168 37.243 108.267 37.603 108.787 37.512 109.327L37.502 109.327C37.422 109.818 37.002 110.157 36.523 110.157 36.462 110.157 36.403 110.148 36.342 110.137zM213.342 113.128C213.273 112.588 213.662 112.077 214.203 112.008 214.752 111.938 215.252 112.318 215.332 112.867 215.403 113.418 215.012 113.918 214.472 113.988 214.422 113.997 214.382 113.997 214.332 113.997 213.842 113.997 213.412 113.628 213.342 113.128zM35.783 114.077C35.233 114.008 34.853 113.508 34.922 112.958 34.993 112.407 35.493 112.028 36.042 112.097 36.592 112.168 36.972 112.668 36.903 113.218 36.842 113.718 36.412 114.088 35.912 114.088 35.872 114.088 35.823 114.088 35.783 114.077zM213.783 117.037C213.733 116.497 214.132 116.008 214.693 115.958 215.243 115.907 215.722 116.318 215.773 116.867 215.823 117.418 215.412 117.898 214.863 117.947 214.832 117.958 214.802 117.958 214.773 117.958 214.262 117.958 213.823 117.568 213.783 117.037zM35.392 118.037C34.842 117.997 34.432 117.508 34.483 116.958 34.533 116.407 35.012 115.997 35.563 116.048 36.113 116.097 36.523 116.588 36.472 117.137L36.472 117.128C36.422 117.657 35.993 118.048 35.483 118.048 35.452 118.048 35.422 118.048 35.392 118.037zM214.042 120.968C214.012 120.418 214.443 119.958 214.993 119.927 215.552 119.898 216.012 120.327 216.042 120.878 216.063 121.438 215.632 121.898 215.082 121.927 215.073 121.927 215.052 121.927 215.042 121.927 214.512 121.927 214.063 121.508 214.042 120.968zM35.172 122.017C34.622 121.997 34.193 121.528 34.222 120.977 34.243 120.427 34.712 119.997 35.262 120.017 35.813 120.048 36.243 120.508 36.222 121.057 36.193 121.597 35.752 122.017 35.222 122.017 35.202 122.017 35.193 122.017 35.172 122.017zM215.132 125.997C214.872 125.997 214.613 125.898 214.422 125.708 214.243 125.517 214.132 125.267 214.132 124.997 214.132 124.738 214.243 124.477 214.422 124.298 214.792 123.918 215.462 123.918 215.842 124.298 216.023 124.477 216.132 124.738 216.132 124.997 216.132 125.267 216.023 125.517 215.842 125.708 215.653 125.898 215.392 125.997 215.132 125.997M210.132 124.997C210.132 124.447 210.582 123.997 211.132 123.997 211.682 123.997 212.132 124.447 212.132 124.997 212.132 125.557 211.682 125.997 211.132 125.997 210.582 125.997 210.132 125.557 210.132 124.997zM38.162 127.318C38.142 126.767 38.582 126.307 39.132 126.287 39.682 126.278 40.142 126.708 40.162 127.267 40.172 127.818 39.743 128.278 39.182 128.287 39.182 128.287 39.172 128.287 39.162 128.287 38.622 128.287 38.172 127.858 38.162 127.318zM210.993 129.997C210.443 129.968 210.012 129.497 210.042 128.947 210.063 128.398 210.533 127.968 211.082 127.997 211.632 128.028 212.063 128.488 212.042 129.048 212.012 129.577 211.573 129.997 211.042 129.997 211.023 129.997 211.012 129.997 210.993 129.997zM38.363 131.358C38.323 130.807 38.733 130.327 39.283 130.287 39.832 130.247 40.313 130.657 40.353 131.208 40.392 131.758 39.983 132.238 39.432 132.278 39.403 132.278 39.382 132.287 39.353 132.287 38.832 132.287 38.403 131.878 38.363 131.358zM210.672 133.977C210.122 133.927 209.722 133.447 209.773 132.898 209.823 132.347 210.302 131.938 210.853 131.988 211.412 132.037 211.813 132.528 211.762 133.077 211.712 133.597 211.273 133.988 210.773 133.988 210.733 133.988 210.703 133.988 210.672 133.977zM38.743 135.378C38.682 134.838 39.073 134.338 39.622 134.267 40.162 134.208 40.662 134.597 40.733 135.148 40.792 135.697 40.403 136.188 39.853 136.258 39.813 136.258 39.773 136.267 39.743 136.267 39.243 136.267 38.802 135.887 38.743 135.378zM210.172 137.947C209.622 137.867 209.243 137.367 209.313 136.818 209.392 136.267 209.892 135.887 210.443 135.968 210.993 136.048 211.372 136.548 211.302 137.097 211.222 137.597 210.802 137.958 210.313 137.958 210.262 137.958 210.212 137.958 210.172 137.947zM39.313 139.387C39.222 138.838 39.592 138.327 40.142 138.238 40.682 138.148 41.193 138.517 41.292 139.057 41.382 139.597 41.012 140.117 40.462 140.208 40.412 140.218 40.353 140.218 40.302 140.218 39.823 140.218 39.403 139.878 39.313 139.387zM209.483 141.887C208.932 141.787 208.582 141.267 208.682 140.718 208.783 140.177 209.302 139.818 209.842 139.918 210.392 140.017 210.752 140.548 210.642 141.088 210.563 141.568 210.142 141.907 209.662 141.907 209.603 141.907 209.542 141.898 209.483 141.887zM40.073 143.358C39.952 142.818 40.302 142.287 40.842 142.168 41.382 142.057 41.912 142.398 42.033 142.938 42.142 143.477 41.802 144.008 41.262 144.128 41.193 144.137 41.122 144.148 41.052 144.148 40.592 144.148 40.172 143.827 40.073 143.358zM208.613 145.787C208.073 145.657 207.733 145.128 207.863 144.588 207.993 144.048 208.533 143.718 209.073 143.838 209.603 143.968 209.932 144.508 209.813 145.048 209.703 145.508 209.292 145.818 208.832 145.818 208.762 145.818 208.682 145.807 208.613 145.787zM41.012 147.298C40.872 146.758 41.193 146.208 41.722 146.068 42.262 145.927 42.802 146.247 42.952 146.778 43.092 147.318 42.773 147.867 42.233 148.008 42.153 148.028 42.063 148.037 41.983 148.037 41.533 148.037 41.132 147.738 41.012 147.298zM207.552 149.648C207.023 149.497 206.712 148.938 206.872 148.407L206.863 148.407C207.023 147.878 207.573 147.568 208.103 147.727 208.632 147.878 208.943 148.427 208.792 148.958 208.662 149.398 208.262 149.688 207.823 149.688 207.733 149.688 207.642 149.677 207.552 149.648zM42.142 151.177C41.972 150.648 42.262 150.088 42.792 149.927 43.323 149.758 43.882 150.048 44.052 150.577L44.042 150.577C44.212 151.108 43.922 151.668 43.392 151.827 43.292 151.867 43.193 151.878 43.092 151.878 42.672 151.878 42.273 151.608 42.142 151.177zM206.323 153.447C205.792 153.278 205.512 152.708 205.693 152.188 205.872 151.657 206.432 151.378 206.962 151.557 207.483 151.727 207.762 152.298 207.582 152.818 207.443 153.238 207.052 153.497 206.642 153.497 206.533 153.497 206.422 153.488 206.323 153.447zM43.443 155.008C43.252 154.488 43.523 153.918 44.042 153.727 44.552 153.528 45.132 153.798 45.323 154.318 45.512 154.838 45.243 155.407 44.733 155.597 44.613 155.648 44.493 155.668 44.382 155.668 43.972 155.668 43.592 155.407 43.443 155.008zM204.903 157.197C204.392 156.997 204.132 156.418 204.342 155.907 204.542 155.398 205.122 155.137 205.632 155.338 206.142 155.537 206.403 156.117 206.203 156.637 206.052 157.028 205.672 157.267 205.273 157.267 205.153 157.267 205.023 157.247 204.903 157.197zM44.922 158.758C44.712 158.247 44.952 157.668 45.462 157.447 45.972 157.238 46.552 157.477 46.773 157.988 46.983 158.497 46.743 159.077 46.233 159.298 46.113 159.347 45.972 159.378 45.842 159.378 45.452 159.378 45.082 159.148 44.922 158.758zM203.323 160.878C202.813 160.657 202.582 160.068 202.813 159.557 203.033 159.057 203.632 158.827 204.132 159.057 204.632 159.278 204.863 159.867 204.642 160.378 204.472 160.747 204.113 160.968 203.722 160.968 203.592 160.968 203.453 160.938 203.323 160.878zM46.582 162.447C46.342 161.947 46.552 161.347 47.052 161.108 47.552 160.867 48.142 161.088 48.382 161.577 48.622 162.077 48.412 162.677 47.912 162.918 47.773 162.977 47.622 163.017 47.483 163.017 47.113 163.017 46.752 162.807 46.582 162.447zM201.563 164.477C201.063 164.227 200.863 163.628 201.113 163.137 201.363 162.648 201.962 162.447 202.462 162.688 202.953 162.938 203.153 163.537 202.903 164.037 202.722 164.387 202.372 164.588 202.012 164.588 201.853 164.588 201.703 164.548 201.563 164.477zM48.403 166.048C48.142 165.557 48.323 164.958 48.813 164.688 49.302 164.427 49.903 164.617 50.162 165.097L50.172 165.097C50.432 165.588 50.243 166.197 49.762 166.458 49.603 166.537 49.443 166.577 49.283 166.577 48.932 166.577 48.582 166.387 48.403 166.048zM199.632 167.997C199.153 167.718 198.983 167.108 199.252 166.628L199.262 166.628C199.533 166.148 200.132 165.977 200.622 166.247 201.103 166.517 201.273 167.128 201.002 167.608 200.813 167.938 200.472 168.117 200.122 168.117 199.962 168.117 199.792 168.077 199.632 167.997zM50.392 169.557C50.113 169.088 50.262 168.468 50.743 168.188 51.212 167.907 51.832 168.057 52.113 168.537 52.392 169.008 52.243 169.628 51.762 169.907 51.603 169.997 51.432 170.048 51.252 170.048 50.912 170.048 50.582 169.878 50.392 169.557zM197.552 171.407C197.082 171.117 196.943 170.497 197.233 170.028 197.523 169.568 198.142 169.418 198.613 169.718 199.082 170.008 199.222 170.628 198.932 171.097 198.932 171.097 198.932 171.097 198.932 171.088 198.743 171.398 198.412 171.568 198.082 171.557 197.903 171.557 197.722 171.517 197.552 171.407zM52.552 172.977C52.552 172.977 52.552 172.977 52.542 172.977 52.243 172.517 52.363 171.898 52.823 171.597 53.292 171.287 53.912 171.418 54.212 171.878 54.523 172.338 54.392 172.958 53.932 173.258 53.762 173.378 53.573 173.427 53.382 173.427 53.052 173.427 52.743 173.267 52.552 172.977zM195.313 174.727C194.863 174.418 194.743 173.787 195.063 173.338 195.372 172.878 195.993 172.767 196.453 173.077 196.903 173.398 197.012 174.017 196.703 174.477 196.512 174.758 196.203 174.907 195.882 174.907 195.682 174.907 195.483 174.847 195.313 174.727zM54.853 176.298C54.533 175.847 54.622 175.227 55.073 174.898 55.512 174.577 56.142 174.668 56.472 175.117 56.792 175.568 56.702 176.188 56.252 176.517 56.073 176.648 55.872 176.708 55.662 176.708 55.353 176.708 55.052 176.568 54.853 176.298zM192.922 177.938C192.483 177.597 192.392 176.977 192.733 176.537 193.063 176.097 193.693 176.008 194.132 176.347 194.573 176.677 194.653 177.307 194.323 177.747 194.122 178.008 193.823 178.137 193.523 178.137 193.313 178.137 193.103 178.077 192.922 177.938zM57.313 179.508C56.972 179.068 57.042 178.447 57.472 178.097 57.903 177.747 58.523 177.818 58.872 178.247 59.222 178.677 59.153 179.307 58.722 179.657 58.542 179.807 58.313 179.878 58.092 179.878 57.802 179.878 57.512 179.747 57.313 179.508zM190.382 181.028C189.962 180.677 189.903 180.048 190.262 179.617 190.613 179.197 191.243 179.137 191.672 179.497 192.092 179.847 192.142 180.488 191.792 180.907 191.592 181.137 191.313 181.267 191.023 181.267 190.802 181.267 190.573 181.188 190.382 181.028zM59.922 182.597C59.563 182.177 59.592 181.548 60.012 181.188 60.422 180.818 61.052 180.858 61.422 181.267 61.792 181.677 61.752 182.318 61.332 182.677 61.142 182.847 60.912 182.927 60.672 182.927 60.392 182.927 60.122 182.818 59.922 182.597zM187.703 183.997C187.302 183.628 187.273 182.997 187.653 182.588 188.023 182.177 188.653 182.157 189.063 182.537 189.472 182.907 189.493 183.537 189.122 183.947 188.922 184.157 188.653 184.267 188.382 184.267 188.142 184.267 187.903 184.177 187.703 183.997zM62.672 185.557C62.283 185.168 62.292 184.537 62.693 184.148 63.092 183.767 63.722 183.767 64.103 184.168 64.493 184.568 64.483 185.197 64.082 185.588 63.892 185.767 63.642 185.867 63.392 185.867 63.132 185.867 62.863 185.767 62.672 185.557zM184.892 186.847C184.512 186.458 184.512 185.818 184.903 185.438 185.292 185.048 185.932 185.048 186.323 185.438 186.703 185.838 186.703 186.468 186.313 186.858 186.113 187.048 185.863 187.148 185.603 187.148 185.353 187.148 185.092 187.048 184.892 186.847zM65.552 188.398C65.153 188.017 65.132 187.387 65.512 186.988 65.892 186.588 66.523 186.568 66.922 186.938 67.323 187.318 67.342 187.958 66.962 188.358 66.773 188.568 66.502 188.668 66.243 188.668 65.993 188.668 65.752 188.577 65.552 188.398zM181.953 189.557C181.592 189.148 181.622 188.517 182.033 188.148 182.443 187.778 183.073 187.807 183.443 188.218 183.813 188.628 183.783 189.258 183.372 189.628 183.182 189.807 182.943 189.887 182.703 189.887 182.422 189.887 182.153 189.778 181.953 189.557zM68.563 191.097C68.142 190.738 68.092 190.108 68.452 189.688 68.813 189.278 69.443 189.227 69.863 189.588 70.283 189.938 70.332 190.568 69.972 190.997 69.773 191.227 69.493 191.338 69.212 191.338 68.983 191.338 68.752 191.267 68.563 191.097zM178.903 192.128C178.552 191.708 178.613 191.077 179.033 190.727 179.462 190.378 180.092 190.438 180.443 190.867 180.792 191.287 180.733 191.918 180.302 192.267 180.122 192.427 179.892 192.497 179.672 192.497 179.382 192.497 179.092 192.378 178.903 192.128zM71.702 193.668C71.262 193.318 71.182 192.697 71.523 192.258 71.863 191.818 72.493 191.747 72.932 192.088L72.922 192.088C73.363 192.427 73.443 193.048 73.103 193.488 72.903 193.738 72.613 193.878 72.313 193.878 72.092 193.878 71.882 193.807 71.702 193.668zM175.722 194.557C175.392 194.117 175.483 193.488 175.922 193.157 176.372 192.827 176.993 192.918 177.323 193.367 177.653 193.807 177.563 194.427 177.122 194.758 176.943 194.898 176.733 194.958 176.523 194.958 176.222 194.958 175.922 194.818 175.722 194.557zM74.952 196.077C74.502 195.758 74.392 195.137 74.712 194.688 75.023 194.227 75.653 194.128 76.103 194.438 76.552 194.758 76.662 195.387 76.342 195.838 76.153 196.108 75.842 196.258 75.523 196.258 75.323 196.258 75.122 196.197 74.952 196.077zM172.443 196.838C172.132 196.378 172.252 195.758 172.712 195.447 173.162 195.137 173.792 195.258 174.092 195.718 174.403 196.177 174.283 196.798 173.832 197.108 173.653 197.218 173.462 197.278 173.273 197.278 172.953 197.278 172.632 197.117 172.443 196.838zM78.302 198.338C77.842 198.037 77.702 197.418 78.002 196.958 78.302 196.488 78.922 196.358 79.382 196.648 79.842 196.947 79.983 197.568 79.682 198.037 79.493 198.327 79.172 198.497 78.842 198.497 78.662 198.497 78.472 198.447 78.302 198.338zM169.052 198.958C168.773 198.488 168.912 197.867 169.392 197.588 169.863 197.298 170.472 197.447 170.762 197.918 171.052 198.387 170.903 198.997 170.432 199.287 170.273 199.387 170.092 199.438 169.912 199.438 169.573 199.438 169.243 199.267 169.052 198.958zM81.762 200.438C81.292 200.168 81.122 199.557 81.403 199.077 81.672 198.597 82.292 198.427 82.762 198.708 83.243 198.977 83.412 199.597 83.132 200.068 82.952 200.398 82.613 200.577 82.262 200.577 82.092 200.577 81.922 200.528 81.762 200.438zM165.582 200.918C165.313 200.438 165.493 199.827 165.972 199.568 166.453 199.298 167.063 199.477 167.332 199.958 167.592 200.438 167.422 201.048 166.932 201.318 166.783 201.398 166.622 201.438 166.453 201.438 166.103 201.438 165.762 201.247 165.582 200.918zM85.323 202.378C84.832 202.128 84.642 201.528 84.892 201.028 85.142 200.537 85.752 200.347 86.243 200.597 86.733 200.858 86.922 201.458 86.672 201.947 86.493 202.298 86.142 202.488 85.783 202.488 85.622 202.488 85.472 202.458 85.323 202.378zM162.012 202.718C161.773 202.218 161.972 201.628 162.472 201.378 162.962 201.137 163.563 201.338 163.813 201.838 164.052 202.338 163.853 202.927 163.353 203.177 163.212 203.247 163.063 203.278 162.912 203.278 162.542 203.278 162.193 203.068 162.012 202.718zM88.972 204.148C88.462 203.918 88.243 203.327 88.472 202.827 88.702 202.318 89.292 202.097 89.802 202.327L89.802 202.338C90.302 202.568 90.523 203.157 90.292 203.657 90.122 204.028 89.762 204.238 89.382 204.238 89.243 204.238 89.103 204.208 88.972 204.148zM158.372 204.347C158.153 203.838 158.382 203.247 158.892 203.028 159.403 202.818 159.983 203.048 160.203 203.557 160.422 204.057 160.193 204.648 159.682 204.867 159.552 204.927 159.422 204.947 159.292 204.947 158.903 204.947 158.533 204.727 158.372 204.347zM92.693 205.747C92.182 205.548 91.932 204.958 92.142 204.447 92.342 203.938 92.922 203.688 93.443 203.898 93.952 204.097 94.202 204.688 93.993 205.197 93.832 205.588 93.462 205.827 93.063 205.827 92.943 205.827 92.813 205.798 92.693 205.747zM154.662 205.807C154.462 205.287 154.722 204.708 155.243 204.517 155.752 204.318 156.332 204.577 156.533 205.097 156.722 205.608 156.462 206.188 155.953 206.387 155.832 206.427 155.712 206.447 155.592 206.447 155.193 206.447 154.813 206.208 154.662 205.807zM96.493 207.177C95.962 206.988 95.693 206.427 95.872 205.898 96.052 205.378 96.622 205.108 97.142 205.287 97.672 205.468 97.943 206.037 97.762 206.557 97.622 206.977 97.233 207.227 96.813 207.227 96.712 207.227 96.603 207.218 96.493 207.177zM150.872 207.088C150.703 206.568 150.983 205.997 151.512 205.827 152.033 205.657 152.603 205.938 152.773 206.468 152.943 206.988 152.653 207.557 152.132 207.727 152.023 207.758 151.922 207.778 151.823 207.778 151.403 207.778 151.012 207.508 150.872 207.088zM100.342 208.418C99.802 208.258 99.512 207.697 99.662 207.177 99.823 206.637 100.372 206.338 100.912 206.497L100.903 206.497C101.432 206.657 101.743 207.208 101.582 207.738 101.453 208.177 101.052 208.458 100.622 208.458 100.533 208.458 100.432 208.447 100.342 208.418zM147.023 208.197C146.882 207.657 147.193 207.108 147.722 206.968 148.262 206.818 148.802 207.128 148.953 207.657 149.103 208.197 148.792 208.747 148.262 208.898 148.172 208.918 148.082 208.927 147.993 208.927 147.552 208.927 147.153 208.637 147.023 208.197zM104.243 209.477C103.703 209.347 103.382 208.798 103.512 208.267 103.642 207.727 104.182 207.398 104.722 207.537 105.262 207.668 105.582 208.208 105.453 208.747 105.342 209.197 104.932 209.508 104.483 209.508 104.403 209.508 104.323 209.497 104.243 209.477zM143.142 209.117C143.012 208.577 143.353 208.048 143.892 207.927 144.432 207.798 144.962 208.137 145.092 208.677 145.212 209.218 144.872 209.747 144.332 209.878 144.262 209.887 144.182 209.898 144.113 209.898 143.653 209.898 143.243 209.577 143.142 209.117zM108.193 210.347C108.193 210.347 108.193 210.347 108.193 210.358 107.653 210.247 107.292 209.718 107.403 209.177 107.512 208.637 108.033 208.287 108.582 208.387 109.122 208.497 109.472 209.028 109.363 209.568 109.273 210.037 108.853 210.367 108.392 210.367 108.323 210.367 108.262 210.367 108.193 210.347zM139.212 209.858C139.113 209.318 139.472 208.798 140.023 208.697 140.563 208.608 141.082 208.968 141.182 209.508 141.273 210.057 140.912 210.577 140.363 210.668 140.313 210.677 140.252 210.688 140.193 210.688 139.712 210.688 139.292 210.347 139.212 209.858zM112.182 211.037C112.182 211.037 112.182 211.037 112.172 211.037 111.632 210.958 111.252 210.447 111.332 209.907 111.422 209.358 111.922 208.977 112.472 209.068 113.023 209.148 113.392 209.657 113.313 210.197 113.243 210.697 112.813 211.057 112.323 211.057 112.273 211.057 112.233 211.048 112.182 211.037zM135.252 210.418C135.182 209.867 135.563 209.367 136.113 209.298 136.662 209.227 137.162 209.617 137.233 210.157 137.302 210.708 136.912 211.208 136.372 211.278 136.323 211.287 136.283 211.287 136.243 211.287 135.743 211.287 135.313 210.918 135.252 210.418zM116.193 211.548C115.642 211.488 115.243 210.997 115.292 210.447 115.353 209.898 115.842 209.497 116.392 209.557 116.943 209.617 117.342 210.108 117.283 210.657 117.233 211.168 116.802 211.548 116.292 211.548 116.262 211.548 116.222 211.548 116.193 211.548zM131.262 210.787C131.222 210.238 131.632 209.758 132.182 209.708 132.733 209.668 133.212 210.077 133.262 210.628 133.302 211.177 132.892 211.657 132.342 211.708 132.323 211.708 132.292 211.708 132.262 211.708 131.752 211.708 131.313 211.307 131.262 210.787zM120.222 211.867C119.672 211.838 119.252 211.358 119.283 210.807 119.313 210.258 119.783 209.838 120.332 209.867 120.882 209.898 121.302 210.367 121.273 210.918 121.252 211.458 120.802 211.867 120.273 211.867 120.262 211.867 120.243 211.867 120.222 211.867zM127.273 210.977C127.252 210.427 127.682 209.968 128.243 209.947 128.792 209.927 129.252 210.358 129.273 210.907 129.292 211.458 128.863 211.927 128.313 211.947 128.302 211.947 128.283 211.947 128.273 211.947 127.743 211.947 127.292 211.517 127.273 210.977zM124.262 211.997C123.712 211.988 123.273 211.537 123.273 210.988 123.283 210.438 123.733 209.988 124.283 209.997 124.832 209.997 125.283 210.458 125.273 211.008 125.273 211.557 124.823 211.997 124.273 211.997L124.262 211.997z"/>
    <path fill="#434A4F" d="M63.132 72C62.579 72 62.132 71.552 62.132 71 62.132 70.448 62.579 70 63.132 70 68.095 70 72.132 65.963 72.132 61 72.132 56.038 68.095 52 63.132 52 58.169 52 54.132 56.038 54.132 61 54.132 61.552 53.685 62 53.132 62 52.579 62 52.132 61.552 52.132 61 52.132 54.935 57.067 50 63.132 50 69.198 50 74.132 54.935 74.132 61 74.132 67.066 69.198 72 63.132 72M187.838 71.967C184.911 71.967 182.163 70.833 180.096 68.771 178.027 66.706 176.888 63.958 176.891 61.032 176.892 60.48 177.339 60.033 177.891 60.033L177.892 60.033C178.444 60.033 178.892 60.482 178.891 61.034 178.889 63.424 179.819 65.669 181.509 67.355 183.199 69.041 185.445 69.967 187.839 69.967 187.849 69.967 187.859 69.967 187.87 69.967 192.829 69.951 196.869 65.913 196.872 60.966 196.874 58.576 195.945 56.331 194.254 54.645 192.565 52.96 190.318 52.032 187.923 52.032 187.912 52.032 187.898 52.03 187.89 52.032 187.339 52.032 186.892 51.587 186.89 51.036 186.888 50.484 187.334 50.034 187.887 50.032 187.899 50.032 187.911 50.032 187.924 50.032 190.852 50.032 193.6 51.167 195.667 53.229 197.737 55.294 198.875 58.042 198.872 60.968 198.868 67.013 193.934 71.947 187.875 71.967 187.864 71.967 187.851 71.967 187.838 71.967M60.131 198.075C54.066 198.075 49.131 193.14 49.131 187.075 49.131 186.523 49.578 186.075 50.131 186.075 50.684 186.075 51.131 186.523 51.131 187.075 51.131 192.037 55.168 196.075 60.131 196.075 65.094 196.075 69.131 192.038 69.131 187.075 69.131 182.113 65.094 178.075 60.131 178.075 59.578 178.075 59.131 177.628 59.131 177.075 59.131 176.523 59.578 176.075 60.131 176.075 66.197 176.075 71.131 181.01 71.131 187.075 71.131 193.14 66.197 198.075 60.131 198.075M187.587 200.733C187.583 200.733 187.58 200.733 187.577 200.733 181.532 200.728 176.597 195.795 176.577 189.737 176.567 186.796 177.703 184.032 179.774 181.957 181.835 179.89 184.579 178.753 187.501 178.753 187.505 178.753 187.508 178.753 187.512 178.753 188.065 178.753 188.512 179.201 188.511 179.754 188.51 180.305 188.063 180.753 187.511 180.753L187.51 180.753C187.507 180.753 187.504 180.753 187.501 180.753 185.115 180.753 182.873 181.682 181.19 183.369 179.496 185.066 178.569 187.325 178.577 189.73 178.593 194.69 182.631 198.729 187.578 198.733 187.581 198.733 187.584 198.733 187.587 198.733 189.974 198.733 192.215 197.804 193.899 196.116 195.592 194.42 196.52 192.161 196.512 189.756 196.51 189.203 196.956 188.754 197.509 188.752 197.51 188.752 197.511 188.752 197.512 188.752 198.063 188.752 198.51 189.198 198.512 189.749 198.522 192.69 197.386 195.453 195.315 197.529 193.253 199.595 190.509 200.733 187.587 200.733"/>
    <path fill="#42494E" d="M188.095,121.671 L132.931,121.671 C131.277,121.671 129.931,123.017 129.931,124.671 C129.931,126.325 131.277,127.671 132.931,127.671 L188.095,127.671 L194.602,124.671 L188.095,121.671 Z M188.535,129.671 L132.931,129.671 C130.174,129.671 127.931,127.427 127.931,124.671 C127.931,121.914 130.174,119.671 132.931,119.671 L188.535,119.671 L199.377,124.671 L188.535,129.671 Z"/>
    <polygon fill="#42494E" points="138.54 128.671 140.54 128.671 140.54 121.072 138.54 121.072"/>
    <polygon fill="#42494E" points="139.54 125.642 187.546 125.642 187.546 123.642 139.54 123.642"/>
    <path fill="#42494E" d="M100.444,124.773 C99.42,127.975 101.18,131.42 104.38,132.464 C105.937,132.97 107.597,132.842 109.056,132.1 C110.515,131.359 111.598,130.094 112.105,128.538 L112.106,128.538 C113.108,125.344 111.349,121.919 108.159,120.879 C104.954,119.835 101.504,121.581 100.444,124.773 Z M106.288,134.769 C105.441,134.77 104.59,134.635 103.761,134.365 C99.523,132.983 97.189,128.427 98.533,124.185 L98.532,124.185 C98.535,124.174 98.539,124.163 98.542,124.153 C98.546,124.142 98.55,124.13 98.553,124.119 L98.554,124.119 C99.968,119.901 104.54,117.593 108.778,118.977 C113.038,120.366 115.374,124.963 113.987,129.223 L113.986,129.222 C113.304,131.257 111.877,132.91 109.962,133.884 C108.804,134.472 107.551,134.769 106.288,134.769 Z"/>
    <path fill="#42494E" d="M105.228,141.969 L107.3,141.972 L107.302,140.739 C107.304,139.175 108.267,137.853 109.755,137.371 C111.25,136.888 112.801,137.397 113.718,138.663 L114.441,139.66 L116.119,138.444 L115.396,137.447 C114.477,136.18 114.479,134.544 115.401,133.279 C116.32,132.014 117.877,131.509 119.366,131.995 L120.537,132.377 L121.158,130.471 L119.987,130.089 C118.499,129.604 117.538,128.28 117.54,126.715 C117.541,125.151 118.504,123.828 119.993,123.346 L121.165,122.966 L120.527,120.994 L119.354,121.374 C117.868,121.857 116.311,121.349 115.392,120.082 C114.473,118.816 114.475,117.179 115.396,115.915 L116.121,114.918 L114.446,113.698 L113.721,114.694 C112.8,115.96 111.247,116.464 109.756,115.979 C108.268,115.494 107.308,114.169 107.309,112.604 L107.311,111.372 L105.238,111.37 L105.237,112.602 C105.236,114.167 104.273,115.489 102.785,115.971 C101.293,116.454 99.74,115.947 98.821,114.68 L98.098,113.683 L96.42,114.899 L97.143,115.896 C98.062,117.163 98.06,118.8 97.139,120.065 C96.218,121.33 94.66,121.834 93.174,121.348 L92.002,120.967 L91.382,122.87 L92.553,123.252 C94.041,123.737 95.001,125.062 94.999,126.627 C94.997,128.192 94.035,129.514 92.545,129.996 L91.374,130.375 L92.013,132.347 L93.185,131.968 C94.675,131.485 96.23,131.993 97.147,133.26 C98.066,134.527 98.064,136.162 97.143,137.427 L96.417,138.423 L98.093,139.643 L98.818,138.648 C99.739,137.383 101.295,136.878 102.783,137.364 C104.27,137.848 105.231,139.173 105.23,140.738 L105.228,141.969 Z M109.298,143.974 L103.226,143.968 L103.23,140.736 C103.231,139.908 102.679,139.433 102.162,139.265 C101.65,139.097 100.922,139.156 100.435,139.824 L98.533,142.437 L93.624,138.863 L95.526,136.25 C96.013,135.581 95.846,134.873 95.528,134.433 C95.209,133.994 94.588,133.616 93.8,133.87 L90.726,134.865 L88.855,129.089 L91.93,128.093 C92.717,127.838 92.998,127.167 92.999,126.624 C93,126.082 92.72,125.41 91.934,125.154 L88.861,124.152 L90.721,118.445 L93.793,119.447 C94.581,119.701 95.202,119.326 95.522,118.887 C95.841,118.448 96.01,117.74 95.524,117.07 L93.627,114.454 L98.543,110.889 L100.44,113.506 C100.926,114.176 101.652,114.238 102.168,114.069 C102.684,113.902 103.236,113.428 103.237,112.6 L103.24,109.368 L109.313,109.374 L109.309,112.607 C109.308,113.434 109.86,113.909 110.376,114.077 C110.888,114.245 111.616,114.188 112.104,113.517 L114.006,110.905 L118.914,114.479 L117.013,117.092 C116.526,117.761 116.693,118.469 117.011,118.908 C117.329,119.347 117.953,119.726 118.738,119.471 L121.814,118.476 L123.685,124.253 L120.609,125.248 C119.822,125.504 119.54,126.174 119.54,126.717 C119.539,127.259 119.82,127.931 120.607,128.188 L123.679,129.19 L121.818,134.899 L118.745,133.897 C117.958,133.642 117.337,134.017 117.017,134.456 C116.698,134.895 116.53,135.603 117.015,136.273 L118.912,138.889 L113.995,142.453 L112.099,139.837 C111.612,139.166 110.887,139.107 110.371,139.274 C109.855,139.441 109.303,139.914 109.302,140.742 L109.298,143.974 Z"/>
    <polygon fill="#434A4F" points="212.535 186.135 214.535 186.135 214.535 182.135 212.535 182.135"/>
    <polygon fill="#434A4F" points="212.535 196.135 214.535 196.135 214.535 192.135 212.535 192.135"/>
    <polygon fill="#434A4F" points="216.535 190.135 220.535 190.135 220.535 188.135 216.535 188.135"/>
    <polygon fill="#434A4F" points="206.535 190.135 210.535 190.135 210.535 188.135 206.535 188.135"/>
    <polygon fill="#434A4F" points="37.132 51 39.132 51 39.132 47 37.132 47"/>
    <polygon fill="#434A4F" points="37.132 61 39.132 61 39.132 57 37.132 57"/>
    <polygon fill="#434A4F" points="41.132 55 45.132 55 45.132 53 41.132 53"/>
    <polygon fill="#434A4F" points="31.132 55 35.132 55 35.132 53 31.132 53"/>
    <polygon fill="#434A4F" points="139.132 65 141.132 65 141.132 61 139.132 61"/>
    <polygon fill="#434A4F" points="139.132 75 141.132 75 141.132 71 139.132 71"/>
    <polygon fill="#434A4F" points="143.132 69 147.132 69 147.132 67 143.132 67"/>
    <polygon fill="#434A4F" points="133.132 69 137.132 69 137.132 67 133.132 67"/>
    <path fill="#E9886C" d="M35.465 180.333C35.465 181.99 34.122 183.333 32.465 183.333 30.809 183.333 29.465 181.99 29.465 180.333 29.465 178.676 30.809 177.333 32.465 177.333 34.122 177.333 35.465 178.676 35.465 180.333M207.132 72C207.132 72.552 206.684 73 206.132 73 205.58 73 205.132 72.552 205.132 72 205.132 71.448 205.58 71 206.132 71 206.684 71 207.132 71.448 207.132 72M197.132 205C197.132 203.895 198.028 203 199.132 203 200.237 203 201.132 203.895 201.132 205 201.132 206.105 200.237 207 199.132 207 198.028 207 197.132 206.105 197.132 205M143.132 98C143.132 99.657 141.789 101 140.132 101 138.475 101 137.132 99.657 137.132 98 137.132 96.343 138.475 95 140.132 95 141.789 95 143.132 96.343 143.132 98"/>
  </g>
</svg>
