<svg xmlns="http://www.w3.org/2000/svg" width="250" height="250" viewBox="0 0 250 250">
  <g fill="none" fill-rule="evenodd">
    <path fill="#434A4F" d="M75.635,179.351 C71.224,179.351 67.635,175.762 67.635,171.351 L67.635,43.874 L177.627,43.874 L177.627,50.861 L175.627,50.861 L175.627,45.874 L69.635,45.874 L69.635,171.351 C69.635,174.659 72.327,177.351 75.635,177.351 C78.944,177.351 81.635,174.659 81.635,171.351 L81.635,164.354 C81.635,159.943 85.224,156.354 89.635,156.354 C93.708,156.354 97.08,159.413 97.573,163.354 L203.544,163.354 C203.066,160.52 200.594,158.354 197.627,158.354 L197.627,156.354 C202.038,156.354 205.627,159.943 205.627,164.354 L205.627,165.354 L95.635,165.354 L95.635,164.354 C95.635,161.046 92.944,158.354 89.635,158.354 C86.327,158.354 83.635,161.046 83.635,164.354 L83.635,171.351 C83.635,175.762 80.046,179.351 75.635,179.351"/>
    <polygon fill="#434A4F" points="175.627 157.354 177.627 157.354 177.627 118.861 175.627 118.861"/>
    <path fill="#DBDBD5" d="M105.628,36.864 L135.646,36.864 C137.856,36.864 139.646,38.655 139.646,40.865 L139.646,53.863 L109.628,53.863 L109.628,40.865 C109.628,38.655 107.838,36.864 105.628,36.864"/>
    <polyline fill="#75C7D0" points="60.631 43.874 53.632 43.874 53.632 210.864 168.624 210.864 168.624 203.854 60.631 203.854 60.631 43.874"/>
    <polyline fill="#434A4F" points="174.625 204.864 63.632 204.864 63.632 43.874 86.573 43.874 86.573 45.874 65.632 45.874 65.632 202.864 172.625 202.864 172.634 181.866 174.634 181.867 174.625 204.864"/>
    <path fill="#434A4F" d="M183.627,179.351 L183.627,177.351 C186.935,177.351 189.627,174.659 189.627,171.351 L189.627,164.354 L191.627,164.354 L191.627,171.351 C191.627,175.762 188.038,179.351 183.627,179.351"/>
    <polygon fill="#434A4F" points="89.635 158.354 197.627 158.354 197.627 156.354 89.635 156.354"/>
    <polygon fill="#434A4F" points="75.635 179.351 183.627 179.351 183.627 177.351 75.635 177.351"/>
    <path fill="#DBDBD5" d="M67.632,181.353 L67.632,187.355 C67.632,189.564 69.423,191.355 71.632,191.355 L170.631,191.355 L170.631,181.353 L67.632,181.353"/>
    <polyline fill="#434A4F" points="169.625 204.864 59.632 204.864 59.632 43.874 82.573 43.874 82.573 45.874 61.632 45.874 61.632 202.864 169.625 202.864 169.625 204.864"/>
    <polygon fill="#434A4F" points="93.388 68.111 107.634 68.111 107.634 66.111 93.388 66.111"/>
    <polygon fill="#434A4F" points="93.38 78.862 149.628 78.862 149.628 76.862 93.38 76.862"/>
    <path fill="#434A4F" d="M86.632,75.862 C85.53,75.862 84.632,76.759 84.632,77.862 C84.632,78.965 85.53,79.862 86.632,79.862 C87.735,79.862 88.632,78.965 88.632,77.862 C88.632,76.759 87.735,75.862 86.632,75.862 Z M86.632,81.862 C84.426,81.862 82.632,80.068 82.632,77.862 C82.632,75.656 84.426,73.862 86.632,73.862 C88.838,73.862 90.632,75.656 90.632,77.862 C90.632,80.068 88.838,81.862 86.632,81.862 Z"/>
    <polygon fill="#434A4F" points="93.38 88.867 149.628 88.867 149.628 86.867 93.38 86.867"/>
    <path fill="#434A4F" d="M86.632,85.868 C85.53,85.868 84.632,86.765 84.632,87.868 C84.632,88.971 85.53,89.868 86.632,89.868 C87.735,89.868 88.632,88.971 88.632,87.868 C88.632,86.765 87.735,85.868 86.632,85.868 Z M86.632,91.868 C84.426,91.868 82.632,90.074 82.632,87.868 C82.632,85.662 84.426,83.868 86.632,83.868 C88.838,83.868 90.632,85.662 90.632,87.868 C90.632,90.074 88.838,91.868 86.632,91.868 Z"/>
    <polygon fill="#434A4F" points="93.38 98.873 153.628 98.873 153.628 96.873 93.38 96.873"/>
    <path fill="#434A4F" d="M86.632,95.874 C85.53,95.874 84.632,96.771 84.632,97.874 C84.632,98.977 85.53,99.874 86.632,99.874 C87.735,99.874 88.632,98.977 88.632,97.874 C88.632,96.771 87.735,95.874 86.632,95.874 Z M86.632,101.874 C84.426,101.874 82.632,100.08 82.632,97.874 C82.632,95.669 84.426,93.874 86.632,93.874 C88.838,93.874 90.632,95.669 90.632,97.874 C90.632,100.08 88.838,101.874 86.632,101.874 Z"/>
    <polygon fill="#434A4F" points="93.38 108.88 162.625 108.88 162.625 106.88 93.38 106.88"/>
    <path fill="#434A4F" d="M86.632,105.88 C85.53,105.88 84.632,106.777 84.632,107.88 C84.632,108.983 85.53,109.88 86.632,109.88 C87.735,109.88 88.632,108.983 88.632,107.88 C88.632,106.777 87.735,105.88 86.632,105.88 Z M86.632,111.88 C84.426,111.88 82.632,110.086 82.632,107.88 C82.632,105.675 84.426,103.88 86.632,103.88 C88.838,103.88 90.632,105.675 90.632,107.88 C90.632,110.086 88.838,111.88 86.632,111.88 Z"/>
    <polygon fill="#434A4F" points="93.38 118.885 162.625 118.885 162.625 116.885 93.38 116.885"/>
    <path fill="#434A4F" d="M86.632,115.886 C85.53,115.886 84.632,116.783 84.632,117.886 C84.632,118.989 85.53,119.886 86.632,119.886 C87.735,119.886 88.632,118.989 88.632,117.886 C88.632,116.783 87.735,115.886 86.632,115.886 Z M86.632,121.886 C84.426,121.886 82.632,120.092 82.632,117.886 C82.632,115.68 84.426,113.886 86.632,113.886 C88.838,113.886 90.632,115.68 90.632,117.886 C90.632,120.092 88.838,121.886 86.632,121.886 Z"/>
    <polygon fill="#434A4F" points="93.38 128.891 162.625 128.891 162.625 126.891 93.38 126.891"/>
    <path fill="#434A4F" d="M86.632,125.892 C85.53,125.892 84.632,126.789 84.632,127.892 C84.632,128.995 85.53,129.892 86.632,129.892 C87.735,129.892 88.632,128.995 88.632,127.892 C88.632,126.789 87.735,125.892 86.632,125.892 Z M86.632,131.892 C84.426,131.892 82.632,130.097 82.632,127.892 C82.632,125.686 84.426,123.892 86.632,123.892 C88.838,123.892 90.632,125.686 90.632,127.892 C90.632,130.097 88.838,131.892 86.632,131.892 Z"/>
    <polygon fill="#434A4F" points="93.38 138.898 162.625 138.898 162.625 136.898 93.38 136.898"/>
    <path fill="#434A4F" d="M86.632,135.898 C85.53,135.898 84.632,136.795 84.632,137.898 C84.632,139.001 85.53,139.898 86.632,139.898 C87.735,139.898 88.632,139.001 88.632,137.898 C88.632,136.795 87.735,135.898 86.632,135.898 Z M86.632,141.898 C84.426,141.898 82.632,140.104 82.632,137.898 C82.632,135.693 84.426,133.898 86.632,133.898 C88.838,133.898 90.632,135.693 90.632,137.898 C90.632,140.104 88.838,141.898 86.632,141.898 Z"/>
    <polygon fill="#434A4F" points="93.38 148.904 162.625 148.904 162.625 146.904 93.38 146.904"/>
    <path fill="#434A4F" d="M86.632,145.904 C85.53,145.904 84.632,146.801 84.632,147.904 C84.632,149.007 85.53,149.904 86.632,149.904 C87.735,149.904 88.632,149.007 88.632,147.904 C88.632,146.801 87.735,145.904 86.632,145.904 Z M86.632,151.904 C84.426,151.904 82.632,150.11 82.632,147.904 C82.632,145.698 84.426,143.904 86.632,143.904 C88.838,143.904 90.632,145.698 90.632,147.904 C90.632,150.11 88.838,151.904 86.632,151.904 Z"/>
    <path fill="#FACD60" d="M187.626,171.351 L187.626,167.355 L93.635,167.355 L93.635,164.355 C93.635,162.149 91.84,160.355 89.635,160.355 C87.429,160.355 85.635,162.149 85.635,164.355 L85.635,171.351 C85.635,172.772 85.337,174.125 84.8,175.351 L183.626,175.351 C185.832,175.351 187.626,173.556 187.626,171.351"/>
    <path fill="#434A4F" d="M110.628,52.862 L138.646,52.862 L138.646,40.865 C138.646,39.21 137.3,37.865 135.646,37.865 L109.627,37.865 C110.255,38.701 110.628,39.74 110.628,40.865 L110.628,52.862 Z M140.646,54.862 L108.628,54.862 L108.628,40.865 C108.628,39.21 107.283,37.865 105.628,37.865 C103.974,37.865 102.628,39.21 102.628,40.865 L102.628,44.865 L100.628,44.865 L100.628,40.865 C100.628,38.108 102.872,35.865 105.628,35.865 L135.646,35.865 C138.403,35.865 140.646,38.108 140.646,40.865 L140.646,54.862 Z"/>
    <polygon fill="#434A4F" points="43.997 210.053 45.997 210.053 45.997 206.053 43.997 206.053"/>
    <polygon fill="#434A4F" points="43.997 220.053 45.997 220.053 45.997 216.053 43.997 216.053"/>
    <polygon fill="#434A4F" points="47.997 214.053 51.997 214.053 51.997 212.053 47.997 212.053"/>
    <polygon fill="#434A4F" points="37.997 214.053 41.997 214.053 41.997 212.053 37.997 212.053"/>
    <polygon fill="#434A4F" points="181.079 33.947 183.079 33.947 183.079 29.947 181.079 29.947"/>
    <polygon fill="#434A4F" points="181.079 43.947 183.079 43.947 183.079 39.947 181.079 39.947"/>
    <polygon fill="#434A4F" points="185.079 37.947 189.079 37.947 189.079 35.947 185.079 35.947"/>
    <polygon fill="#434A4F" points="175.079 37.947 179.079 37.947 179.079 35.947 175.079 35.947"/>
    <polygon fill="#434A4F" points="193.085 134.007 195.085 134.007 195.085 130.007 193.085 130.007"/>
    <polygon fill="#434A4F" points="193.085 144.007 195.085 144.007 195.085 140.007 193.085 140.007"/>
    <polygon fill="#434A4F" points="197.085 138.007 201.085 138.007 201.085 136.007 197.085 136.007"/>
    <polygon fill="#434A4F" points="187.085 138.007 191.085 138.007 191.085 136.007 187.085 136.007"/>
    <path fill="#FACD60" d="M41.628 135.861C41.628 137.518 40.285 138.861 38.628 138.861 36.971 138.861 35.628 137.518 35.628 135.861 35.628 134.204 36.971 132.861 38.628 132.861 40.285 132.861 41.628 134.204 41.628 135.861M185.628 118.861C185.628 119.965 184.733 120.861 183.628 120.861 182.524 120.861 181.628 119.965 181.628 118.861 181.628 117.756 182.524 116.861 183.628 116.861 184.733 116.861 185.628 117.756 185.628 118.861M179.628 212.861C179.628 213.965 178.733 214.861 177.628 214.861 176.524 214.861 175.628 213.965 175.628 212.861 175.628 211.756 176.524 210.861 177.628 210.861 178.733 210.861 179.628 211.756 179.628 212.861"/>
    <path fill="#42494E" d="M131.628,189.861 C129.974,189.861 128.628,191.207 128.628,192.861 C128.628,194.515 129.974,195.861 131.628,195.861 L186.794,195.861 L193.299,192.861 L186.794,189.861 L131.628,189.861 Z M131.628,197.861 C128.872,197.861 126.628,195.618 126.628,192.861 C126.628,190.104 128.872,187.861 131.628,187.861 L187.233,187.861 L198.075,192.861 L187.233,197.861 L131.628,197.861 Z"/>
    <polygon fill="#42494E" points="137.238 196.861 139.238 196.861 139.238 189.262 137.238 189.262"/>
    <polygon fill="#42494E" points="138.238 193.832 186.245 193.832 186.245 191.832 138.238 191.832"/>
    <path fill="#434A4F" d="M183.501,53.861 C167.581,53.861 154.628,66.813 154.628,82.733 C154.628,94.456 161.629,104.929 172.465,109.416 L173.145,109.697 L173.079,110.43 C172.884,112.559 171.908,114.427 170.445,115.761 C173.46,115.329 176.213,113.887 178.339,111.595 L178.699,111.209 L179.22,111.286 C180.639,111.498 182.08,111.605 183.501,111.605 C199.42,111.605 212.372,98.653 212.372,82.733 C212.372,66.813 199.42,53.861 183.501,53.861 Z M168.504,117.899 L164.894,117.899 L164.894,115.899 C167.889,115.899 170.393,113.819 170.982,110.956 C159.806,106 152.628,95.007 152.628,82.733 C152.628,65.71 166.478,51.861 183.501,51.861 C200.523,51.861 214.372,65.71 214.372,82.733 C214.372,99.756 200.523,113.605 183.501,113.605 C182.153,113.605 180.79,113.515 179.44,113.337 C176.551,116.243 172.596,117.899 168.504,117.899 Z"/>
    <polygon fill="#434A4F" points="166.422 70.914 200.422 70.914 200.422 68.914 166.422 68.914"/>
    <polygon fill="#434A4F" points="166.422 75.065 200.422 75.065 200.422 73.065 166.422 73.065"/>
    <polygon fill="#434A4F" points="166.422 79.067 200.422 79.067 200.422 77.067 166.422 77.067"/>
    <polyline fill="#434A4F" points="191.623 94.392 187.823 90.592 189.237 89.178 191.623 91.564 200.716 82.47 202.13 83.884 191.623 94.392"/>
    <polyline fill="#434A4F" points="177.715 94.7 169.715 86.7 171.129 85.286 179.129 93.286 177.715 94.7"/>
    <polyline fill="#434A4F" points="171.129 94.7 169.715 93.286 177.715 85.286 179.129 86.7 171.129 94.7"/>
    <path fill="#434A4F" d="M168.421,95.993 L180.421,95.993 L180.421,83.993 L168.421,83.993 L168.421,95.993 Z M166.421,97.993 L182.421,97.993 L182.421,81.993 L166.421,81.993 L166.421,97.993 Z"/>
    <polyline fill="#434A4F" points="200.421 97.993 184.421 97.993 184.421 81.993 197.254 81.993 197.254 83.993 186.421 83.993 186.421 95.993 198.421 95.993 198.421 89.076 200.421 89.076 200.421 97.993"/>
  </g>
</svg>
