<svg xmlns="http://www.w3.org/2000/svg" width="250" height="250" viewBox="0 0 250 250">
  <g fill="none" fill-rule="evenodd">
    <path fill="#75C7D0" d="M96.959 118.555C96.959 97.822 107.662 79.6 123.834 69.078 114.978 63.682 104.588 60.555 93.459 60.555 61.151 60.555 34.959 86.746 34.959 119.055 34.959 151.363 61.151 177.555 93.459 177.555 104.923 177.555 115.603 174.24 124.629 168.541 108.013 158.105 96.959 139.626 96.959 118.555M156.459 60.555C145.33 60.555 134.94 63.682 126.084 69.078 142.257 79.6 152.959 97.822 152.959 118.555 152.959 139.626 141.906 158.105 125.289 168.541 134.315 174.24 144.996 177.555 156.459 177.555 188.768 177.555 214.959 151.363 214.959 119.055 214.959 86.746 188.768 60.555 156.459 60.555"/>
    <path fill="#434A4F" d="M192.547,202.537 L183.415,202.537 C170.187,202.537 157.862,195.475 151.117,184.071 C143.575,183.508 136.275,181.66 129.409,178.573 L130.23,176.749 C137.038,179.81 144.289,181.615 151.782,182.113 L152.317,182.148 L152.583,182.614 C158.91,193.669 170.724,200.537 183.415,200.537 L183.981,200.537 C182.871,199.983 181.807,199.318 180.804,198.545 C178.696,196.922 176.975,194.923 175.689,192.603 C174.115,189.765 173.283,186.539 173.283,183.273 L173.283,179.82 L173.997,179.607 C183.436,176.796 192.173,171.768 199.263,165.066 L200.37,163.994 C208.888,155.741 214.754,145.26 217.335,133.683 C223.611,106.555 211.658,78.924 187.593,64.92 C159.748,48.717 123.346,56.622 104.717,82.916 C97.056,93.729 93.035,106.397 93.089,119.551 L93.089,120.429 L91.089,120.429 L91.089,119.555 C91.034,105.986 95.181,92.915 103.085,81.76 C122.305,54.628 159.867,46.474 188.598,63.192 C213.427,77.64 225.759,106.146 219.285,134.126 C216.621,146.077 210.561,156.904 201.762,165.43 L200.646,166.511 C193.5,173.266 184.746,178.369 175.283,181.307 L175.283,183.273 C175.283,186.201 176.028,189.091 177.438,191.633 C178.591,193.713 180.134,195.505 182.023,196.96 C185.063,199.3 188.701,200.537 192.547,200.537 L192.547,202.537"/>
    <polygon fill="#434A4F" points="47.933 178.551 49.933 178.551 49.933 174.551 47.933 174.551"/>
    <polygon fill="#434A4F" points="47.933 188.551 49.933 188.551 49.933 184.551 47.933 184.551"/>
    <polygon fill="#434A4F" points="51.933 182.551 55.933 182.551 55.933 180.551 51.933 180.551"/>
    <polygon fill="#434A4F" points="41.933 182.551 45.933 182.551 45.933 180.551 41.933 180.551"/>
    <path fill="#434A4F" d="M66.587,202.537 L57.455,202.537 L57.455,200.537 C61.3,200.537 64.939,199.3 67.977,196.96 C69.867,195.505 71.41,193.713 72.563,191.633 C73.973,189.091 74.718,186.2 74.718,183.273 L74.718,181.307 C65.255,178.369 56.501,173.266 49.364,166.519 L48.24,165.43 C39.44,156.904 33.38,146.077 30.714,134.119 C24.243,106.146 36.574,77.64 61.403,63.192 C78.778,53.08 99.551,51.643 118.392,59.249 L121.869,60.81 L121.05,62.634 L117.608,61.088 C99.378,53.731 79.245,55.122 62.408,64.92 C38.343,78.924 26.39,106.555 32.664,133.675 C35.247,145.259 41.114,155.74 49.632,163.994 L50.747,165.075 C57.828,171.768 66.565,176.796 76.004,179.607 L76.718,179.82 L76.718,183.273 C76.718,186.539 75.886,189.765 74.312,192.603 C73.026,194.923 71.304,196.922 69.198,198.545 C68.194,199.318 67.131,199.983 66.02,200.537 L66.587,200.537 C79.277,200.537 91.091,193.669 97.418,182.614 L97.684,182.148 L98.219,182.113 C108.867,181.405 119.228,177.965 128.182,172.167 L131.775,169.623 C138.668,164.423 144.363,157.967 148.678,150.452 L149.241,149.472 C154.212,140.339 156.868,129.985 156.912,119.551 L156.961,118.508 L158.959,118.603 L158.911,119.602 C158.867,130.324 156.127,141.005 150.987,150.448 L150.412,151.448 C145.963,159.198 140.089,165.856 132.955,171.238 L129.303,173.823 C120.179,179.732 109.684,183.263 98.884,184.071 C92.139,195.475 79.814,202.537 66.587,202.537"/>
    <polygon fill="#434A4F" points="201.996 55.52 203.996 55.52 203.996 51.52 201.996 51.52"/>
    <polygon fill="#434A4F" points="201.996 65.52 203.996 65.52 203.996 61.52 201.996 61.52"/>
    <polygon fill="#434A4F" points="205.996 59.52 209.996 59.52 209.996 57.52 205.996 57.52"/>
    <polygon fill="#434A4F" points="195.996 59.52 199.996 59.52 199.996 57.52 195.996 57.52"/>
    <path fill="#434A4F" d="M153.65 59.592C153.639 59.042 154.079 58.582 154.63 58.572 155.18 58.552 155.639 58.993 155.65 59.552 155.659 60.102 155.22 60.552 154.67 60.572 154.659 60.572 154.659 60.572 154.65 60.572 154.11 60.572 153.659 60.132 153.65 59.592zM149.659 59.872C149.61 59.322 150.019 58.842 150.57 58.792 151.119 58.743 151.599 59.152 151.65 59.703 151.7 60.252 151.3 60.732 150.74 60.782 150.71 60.782 150.68 60.782 150.65 60.782 150.139 60.782 149.71 60.393 149.659 59.872zM145.7 60.422C145.619 59.872 145.99 59.362 146.539 59.282 147.079 59.192 147.59 59.572 147.68 60.112 147.76 60.663 147.389 61.172 146.84 61.252 146.789 61.262 146.74 61.262 146.69 61.262 146.2 61.262 145.78 60.912 145.7 60.422zM141.78 61.232C141.659 60.692 141.999 60.152 142.539 60.032 143.079 59.913 143.61 60.252 143.74 60.792 143.86 61.332 143.519 61.862 142.979 61.993 142.909 62.002 142.829 62.012 142.76 62.012 142.3 62.012 141.889 61.692 141.78 61.232zM137.93 62.302C137.769 61.772 138.079 61.212 138.61 61.062 139.139 60.902 139.69 61.203 139.849 61.732 140.01 62.262 139.7 62.822 139.17 62.973 139.079 63.002 138.979 63.022 138.889 63.022 138.46 63.022 138.059 62.732 137.93 62.302zM134.159 63.632C133.97 63.112 134.229 62.532 134.749 62.342 135.269 62.152 135.84 62.412 136.039 62.933 136.229 63.453 135.96 64.022 135.45 64.223 135.329 64.262 135.21 64.282 135.099 64.282 134.69 64.282 134.309 64.032 134.159 63.632zM130.49 65.203C130.26 64.703 130.49 64.112 130.99 63.882 131.499 63.652 132.09 63.882 132.32 64.382 132.539 64.893 132.32 65.482 131.809 65.703 131.68 65.762 131.539 65.792 131.4 65.792 131.019 65.792 130.659 65.572 130.49 65.203zM126.929 67.022C126.67 66.532 126.86 65.933 127.349 65.672 127.829 65.412 128.44 65.592 128.7 66.082 128.96 66.572 128.769 67.172 128.289 67.433 128.139 67.512 127.979 67.552 127.82 67.552 127.46 67.552 127.11 67.362 126.929 67.022zM123.499 69.072C123.21 68.602 123.36 67.982 123.82 67.692 124.289 67.402 124.909 67.552 125.2 68.022 125.49 68.482 125.349 69.102 124.88 69.393 124.71 69.493 124.53 69.542 124.349 69.542 124.019 69.542 123.69 69.382 123.499 69.072zM120.22 71.352C119.889 70.902 119.999 70.272 120.45 69.953 120.889 69.632 121.519 69.732 121.84 70.183 122.159 70.632 122.059 71.252 121.61 71.582 121.44 71.703 121.229 71.762 121.03 71.762 120.72 71.762 120.409 71.622 120.22 71.352zM117.09 73.832C116.74 73.413 116.8 72.782 117.229 72.433 117.65 72.082 118.28 72.143 118.63 72.562 118.979 72.993 118.92 73.622 118.499 73.973 118.309 74.122 118.09 74.203 117.86 74.203 117.57 74.203 117.289 74.072 117.09 73.832zM114.13 76.522C113.749 76.122 113.769 75.493 114.17 75.112 114.57 74.732 115.21 74.752 115.59 75.162 115.96 75.562 115.95 76.192 115.539 76.572 115.349 76.752 115.099 76.842 114.86 76.842 114.59 76.842 114.329 76.732 114.13 76.522zM111.36 79.413C110.95 79.032 110.929 78.402 111.309 77.993 111.679 77.592 112.32 77.572 112.72 77.942 113.119 78.322 113.15 78.953 112.769 79.362 112.57 79.572 112.309 79.672 112.039 79.672 111.789 79.672 111.55 79.592 111.36 79.413zM108.78 82.473C108.349 82.122 108.289 81.493 108.639 81.062 108.99 80.632 109.619 80.572 110.039 80.913 110.47 81.262 110.539 81.893 110.19 82.322 109.99 82.572 109.7 82.692 109.409 82.692 109.19 82.692 108.96 82.622 108.78 82.473zM106.409 85.692C105.96 85.372 105.849 84.743 106.179 84.292 106.49 83.842 107.119 83.743 107.57 84.062 108.019 84.382 108.119 85.002 107.809 85.453 107.61 85.732 107.3 85.872 106.99 85.872 106.789 85.872 106.59 85.812 106.409 85.692zM104.26 89.062C103.789 88.772 103.639 88.162 103.929 87.692 104.22 87.223 104.84 87.072 105.309 87.362 105.78 87.652 105.929 88.262 105.639 88.743L105.639 88.732C105.45 89.042 105.119 89.212 104.78 89.212 104.61 89.212 104.429 89.163 104.26 89.062zM102.34 92.582C101.849 92.322 101.67 91.712 101.92 91.223 102.179 90.732 102.78 90.552 103.269 90.802 103.76 91.062 103.95 91.672 103.69 92.152 103.51 92.502 103.17 92.692 102.809 92.692 102.65 92.692 102.49 92.652 102.34 92.582zM100.659 96.212C100.159 95.982 99.929 95.393 100.15 94.893 100.369 94.382 100.96 94.152 101.47 94.382 101.979 94.602 102.2 95.192 101.979 95.703 101.82 96.072 101.45 96.292 101.059 96.292 100.929 96.292 100.789 96.272 100.659 96.212zM99.229 99.953C98.71 99.762 98.44 99.183 98.63 98.662 98.82 98.143 99.39 97.882 99.91 98.062 100.429 98.252 100.7 98.832 100.51 99.353 100.36 99.752 99.979 100.012 99.57 100.012 99.46 100.012 99.34 99.993 99.229 99.953zM98.05 103.772C97.519 103.623 97.21 103.062 97.369 102.532 97.519 102.002 98.07 101.703 98.599 101.852 99.139 102.002 99.44 102.562 99.289 103.092 99.16 103.532 98.76 103.812 98.329 103.812 98.229 103.812 98.14 103.802 98.05 103.772zM97.13 107.663C96.59 107.552 96.249 107.012 96.369 106.473 96.479 105.933 97.019 105.592 97.559 105.712 98.09 105.832 98.44 106.362 98.32 106.902 98.219 107.373 97.8 107.692 97.34 107.692 97.269 107.692 97.199 107.683 97.13 107.663zM96.469 111.612C95.929 111.522 95.55 111.022 95.63 110.473 95.71 109.922 96.219 109.552 96.769 109.632 97.309 109.712 97.69 110.223 97.61 110.772 97.53 111.262 97.11 111.623 96.619 111.623 96.57 111.623 96.519 111.612 96.469 111.612zM96.079 115.592C95.53 115.542 95.119 115.062 95.16 114.512 95.16 114.512 95.16 114.512 95.17 114.512 95.21 113.962 95.69 113.552 96.24 113.592 96.789 113.643 97.199 114.123 97.16 114.672 97.119 115.192 96.679 115.592 96.16 115.592 96.139 115.592 96.11 115.592 96.079 115.592zM153.76 124.562C153.21 124.522 152.789 124.042 152.829 123.493L152.829 123.502C152.869 122.942 153.34 122.532 153.889 122.562 154.44 122.602 154.86 123.072 154.82 123.632 154.82 123.632 154.82 123.632 154.829 123.632 154.789 124.152 154.349 124.562 153.829 124.562 153.809 124.562 153.789 124.562 153.76 124.562zM153.3 128.532C152.749 128.462 152.369 127.953 152.44 127.413 152.51 126.862 153.019 126.473 153.559 126.552 154.11 126.623 154.499 127.123 154.42 127.672 154.36 128.172 153.93 128.542 153.43 128.542 153.389 128.542 153.34 128.532 153.3 128.532zM152.579 132.462C152.03 132.352 151.68 131.832 151.789 131.282 151.9 130.743 152.43 130.393 152.97 130.502 153.51 130.612 153.86 131.143 153.749 131.683 153.659 132.152 153.24 132.482 152.769 132.482 152.71 132.482 152.639 132.482 152.579 132.462zM151.59 136.342C151.059 136.192 150.74 135.643 150.889 135.112 151.03 134.582 151.579 134.262 152.11 134.413 152.65 134.552 152.96 135.102 152.82 135.632 152.69 136.082 152.289 136.372 151.849 136.372 151.769 136.372 151.68 136.362 151.59 136.342zM150.34 140.143C149.82 139.962 149.55 139.393 149.729 138.862 149.909 138.342 150.479 138.072 150.999 138.252 151.519 138.433 151.8 139.002 151.619 139.522 151.47 139.933 151.09 140.192 150.67 140.192 150.559 140.192 150.45 140.172 150.34 140.143zM148.849 143.852C148.34 143.632 148.099 143.052 148.309 142.542 148.53 142.032 149.119 141.792 149.63 142.012 150.13 142.223 150.369 142.812 150.159 143.322 149.99 143.703 149.619 143.933 149.229 143.933 149.099 143.933 148.97 143.902 148.849 143.852zM147.099 147.453C146.61 147.203 146.409 146.602 146.659 146.112 146.909 145.622 147.51 145.422 147.999 145.672 148.499 145.913 148.69 146.522 148.44 147.012 148.269 147.362 147.92 147.562 147.55 147.562 147.4 147.562 147.249 147.532 147.099 147.453zM145.119 150.933C144.639 150.652 144.49 150.032 144.769 149.562 145.05 149.082 145.659 148.933 146.139 149.212 146.619 149.493 146.769 150.102 146.49 150.582 146.3 150.893 145.97 151.072 145.63 151.072 145.46 151.072 145.28 151.022 145.119 150.933zM142.909 154.272C142.46 153.953 142.34 153.332 142.65 152.882 142.97 152.422 143.59 152.302 144.039 152.622 144.499 152.933 144.61 153.552 144.3 154.012 144.11 154.292 143.8 154.442 143.479 154.442 143.28 154.442 143.09 154.382 142.909 154.272zM140.49 157.453C140.059 157.112 139.979 156.482 140.32 156.052 140.67 155.612 141.289 155.542 141.729 155.882 142.159 156.223 142.229 156.852 141.889 157.282 141.889 157.282 141.889 157.282 141.9 157.282 141.7 157.532 141.4 157.663 141.11 157.663 140.889 157.663 140.67 157.592 140.49 157.453zM137.86 160.462C137.45 160.092 137.42 159.462 137.789 159.052 138.159 158.643 138.789 158.612 139.2 158.982 139.61 159.352 139.639 159.982 139.269 160.393 139.079 160.612 138.8 160.723 138.53 160.723 138.289 160.723 138.05 160.643 137.86 160.462zM135.039 163.302C134.65 162.902 134.659 162.272 135.059 161.882 135.45 161.502 136.09 161.512 136.47 161.902 136.86 162.302 136.849 162.933 136.45 163.322 136.26 163.512 136.01 163.602 135.749 163.602 135.49 163.602 135.229 163.502 135.039 163.302zM132.03 165.942C131.68 165.522 131.729 164.882 132.15 164.532 132.57 164.172 133.2 164.223 133.559 164.643 133.92 165.062 133.86 165.692 133.44 166.052 133.26 166.212 133.03 166.292 132.8 166.292 132.51 166.292 132.229 166.172 132.03 165.942zM128.86 168.372C128.53 167.933 128.63 167.302 129.07 166.973 129.51 166.643 130.139 166.743 130.47 167.183 130.8 167.622 130.71 168.252 130.26 168.582 130.079 168.712 129.88 168.782 129.67 168.782 129.36 168.782 129.059 168.643 128.86 168.372zM125.539 170.592C125.24 170.132 125.369 169.512 125.84 169.212 126.3 168.913 126.92 169.042 127.22 169.512 127.519 169.973 127.38 170.592 126.92 170.893 126.749 171.002 126.57 171.052 126.38 171.052 126.05 171.052 125.729 170.893 125.539 170.592zM122.07 172.582C121.809 172.102 121.979 171.493 122.47 171.223 122.95 170.953 123.559 171.132 123.82 171.612 124.09 172.102 123.92 172.712 123.429 172.973 123.28 173.062 123.11 173.102 122.95 173.102 122.599 173.102 122.26 172.913 122.07 172.582zM118.479 174.342C118.249 173.842 118.46 173.243 118.97 173.012 119.47 172.772 120.059 172.993 120.3 173.493 120.53 173.993 120.309 174.582 119.809 174.822 119.679 174.882 119.53 174.913 119.389 174.913 119.01 174.913 118.65 174.703 118.479 174.342zM114.789 175.852C114.59 175.332 114.84 174.752 115.36 174.552 115.869 174.352 116.45 174.612 116.65 175.122 116.849 175.643 116.599 176.223 116.079 176.422 115.96 176.462 115.84 176.493 115.72 176.493 115.32 176.493 114.94 176.243 114.789 175.852zM110.99 177.112C110.829 176.582 111.119 176.022 111.65 175.862 112.179 175.692 112.74 175.982 112.9 176.512 113.07 177.042 112.769 177.602 112.249 177.762 112.15 177.802 112.05 177.812 111.95 177.812 111.519 177.812 111.13 177.542 110.99 177.112zM107.119 178.112C106.99 177.582 107.32 177.042 107.86 176.913 108.4 176.782 108.94 177.112 109.07 177.643 109.2 178.183 108.869 178.723 108.329 178.852 108.249 178.872 108.17 178.882 108.09 178.882 107.639 178.882 107.229 178.572 107.119 178.112zM103.19 178.862C103.099 178.312 103.46 177.792 104.01 177.703 104.55 177.612 105.07 177.973 105.159 178.522 105.26 179.062 104.889 179.582 104.349 179.672 104.289 179.683 104.229 179.692 104.179 179.692 103.7 179.692 103.28 179.342 103.19 178.862zM99.219 179.332C99.17 178.782 99.57 178.292 100.119 178.243 100.659 178.183 101.159 178.582 101.21 179.132 101.269 179.683 100.869 180.172 100.32 180.223 100.289 180.232 100.249 180.232 100.22 180.232 99.71 180.232 99.28 179.852 99.219 179.332zM95.229 179.552C95.21 179.002 95.64 178.532 96.19 178.512 96.749 178.493 97.21 178.922 97.229 179.473 97.249 180.032 96.82 180.493 96.269 180.512 96.249 180.512 96.24 180.512 96.229 180.512 95.699 180.512 95.249 180.092 95.229 179.552z"/>
    <polyline fill="#434A4F" points="91.959 128.969 81.545 118.555 87.959 118.555 87.959 120.555 86.373 120.555 91.959 126.141 97.545 120.555 95.959 120.555 95.959 118.555 102.373 118.555 91.959 128.969"/>
    <polyline fill="#434A4F" points="168.748 120.55 162.334 120.55 162.334 118.55 163.92 118.55 158.334 112.964 152.748 118.55 154.334 118.55 154.334 120.55 147.92 120.55 158.334 110.136 168.748 120.55"/>
    <path fill="#434A4F" d="M201.959,180.555 C199.754,180.555 197.959,182.35 197.959,184.555 C197.959,186.761 199.754,188.555 201.959,188.555 C204.165,188.555 205.959,186.761 205.959,184.555 C205.959,182.35 204.165,180.555 201.959,180.555 Z M201.959,190.555 C198.651,190.555 195.959,187.864 195.959,184.555 C195.959,181.247 198.651,178.555 201.959,178.555 C205.268,178.555 207.959,181.247 207.959,184.555 C207.959,187.864 205.268,190.555 201.959,190.555 Z"/>
    <path fill="#75C7D0" d="M124.648,200.961 C124.648,203.17 122.857,204.961 120.648,204.961 C118.439,204.961 116.648,203.17 116.648,200.961 C116.648,198.752 118.439,196.961 120.648,196.961 C122.857,196.961 124.648,198.752 124.648,200.961"/>
    <path fill="#FACD60" d="M115.75,49.039 C115.75,46.83 113.959,45.039 111.75,45.039 C109.541,45.039 107.75,46.83 107.75,49.039 C107.75,51.248 109.541,53.039 111.75,53.039 C113.959,53.039 115.75,51.248 115.75,49.039"/>
    <path fill="#434A4F" d="M117.999,135.498 L120.454,136.295 L120.92,134.859 C121.447,133.237 122.888,132.189 124.593,132.188 C124.593,132.188 124.594,132.188 124.595,132.188 C126.299,132.188 127.741,133.235 128.268,134.856 L128.735,136.292 L131.189,135.494 L130.721,134.058 C130.194,132.437 130.744,130.742 132.123,129.739 C133.502,128.736 135.284,128.736 136.664,129.737 L137.887,130.624 L139.403,128.537 L138.18,127.649 C136.801,126.648 136.249,124.953 136.776,123.331 C137.302,121.709 138.743,120.661 140.449,120.661 L141.959,120.66 L141.958,118.08 L140.448,118.081 C140.448,118.081 140.448,118.081 140.447,118.081 C138.742,118.081 137.3,117.033 136.773,115.412 C136.246,113.791 136.796,112.096 138.175,111.093 L139.396,110.206 L137.924,108.18 L136.702,109.068 C135.324,110.071 133.542,110.072 132.161,109.07 C130.782,108.068 130.23,106.373 130.757,104.752 L131.223,103.315 L128.768,102.519 L128.302,103.956 C127.776,105.577 126.334,106.625 124.63,106.626 C124.629,106.626 124.628,106.626 124.628,106.626 C122.924,106.626 121.482,105.58 120.955,103.959 L120.488,102.522 L118.034,103.321 L118.501,104.757 C119.029,106.378 118.478,108.074 117.099,109.076 C115.722,110.079 113.939,110.081 112.558,109.078 L111.336,108.191 L109.821,110.279 L111.043,111.166 C112.422,112.167 112.974,113.863 112.448,115.484 C111.922,117.106 110.48,118.154 108.775,118.155 L107.265,118.155 L107.265,120.736 L108.776,120.735 C108.777,120.735 108.777,120.735 108.778,120.735 C110.482,120.735 111.923,121.782 112.45,123.402 C112.978,125.024 112.428,126.719 111.049,127.722 L109.828,128.61 L111.299,130.633 L112.52,129.746 C113.899,128.743 115.682,128.742 117.061,129.744 C118.441,130.746 118.992,132.441 118.466,134.062 L117.999,135.498 Z M121.739,138.815 L115.48,136.784 L116.563,133.445 C116.871,132.496 116.416,131.747 115.886,131.362 C115.357,130.977 114.503,130.776 113.696,131.363 L110.857,133.427 L107.034,128.169 L109.872,126.104 C110.68,125.518 110.751,124.644 110.549,124.021 C110.346,123.399 109.775,122.735 108.778,122.735 L108.777,122.735 L105.266,122.737 L105.264,116.156 L108.774,116.155 C109.772,116.154 110.344,115.489 110.545,114.867 C110.747,114.245 110.675,113.371 109.868,112.785 L107.027,110.723 L110.893,105.397 L113.733,107.459 C114.541,108.045 115.394,107.843 115.923,107.458 C116.452,107.074 116.908,106.325 116.599,105.376 L115.513,102.038 L121.771,100.002 L122.857,103.34 C123.165,104.288 123.974,104.626 124.628,104.626 L124.629,104.626 C125.283,104.626 126.092,104.287 126.4,103.338 L127.483,99.999 L133.742,102.03 L132.659,105.369 C132.351,106.318 132.807,107.067 133.336,107.451 C133.867,107.835 134.719,108.037 135.527,107.451 L138.366,105.386 L142.19,110.647 L139.351,112.711 C138.544,113.298 138.473,114.171 138.675,114.793 C138.878,115.416 139.45,116.081 140.448,116.081 L143.957,116.079 L143.96,122.659 L140.45,122.661 C139.451,122.661 138.88,123.326 138.678,123.949 C138.476,124.571 138.548,125.444 139.355,126.031 L142.196,128.093 L138.33,133.418 L135.49,131.355 C134.681,130.77 133.828,130.972 133.3,131.356 C132.77,131.741 132.315,132.49 132.624,133.439 L133.709,136.777 L127.451,138.813 L126.366,135.475 C126.057,134.526 125.248,134.188 124.594,134.188 C123.939,134.188 123.131,134.527 122.823,135.476 L121.739,138.815 Z"/>
    <path fill="#E9886C" d="M124.616,117.661 C124.523,117.661 124.429,117.668 124.336,117.683 C123.876,117.756 123.471,118.005 123.198,118.383 C122.924,118.761 122.814,119.223 122.888,119.683 C122.961,120.144 123.21,120.548 123.587,120.821 C124.367,121.387 125.462,121.212 126.026,120.432 C126.591,119.652 126.416,118.558 125.636,117.994 L125.636,117.993 C125.335,117.775 124.98,117.661 124.616,117.661 Z M124.607,123.152 C123.845,123.152 123.077,122.921 122.414,122.441 C121.604,121.854 121.07,120.987 120.912,119.998 C120.755,119.01 120.991,118.02 121.578,117.209 C122.165,116.399 123.033,115.866 124.021,115.708 C125.007,115.552 125.999,115.786 126.81,116.374 L126.81,116.373 C128.482,117.585 128.857,119.932 127.646,121.605 C126.914,122.615 125.768,123.152 124.607,123.152 Z"/>
    <path fill="#434A4F" d="M122.4,108.993 C122.34,108.442 122.729,107.953 123.28,107.882 C123.829,107.822 124.329,108.212 124.389,108.762 C124.45,109.312 124.059,109.802 123.51,109.873 C123.47,109.873 123.44,109.882 123.4,109.882 C122.9,109.882 122.46,109.502 122.4,108.993 Z M127.03,110.112 C126.49,109.973 126.17,109.433 126.309,108.893 C126.45,108.362 126.999,108.042 127.53,108.183 C128.07,108.322 128.389,108.862 128.249,109.402 C128.13,109.852 127.729,110.152 127.28,110.152 C127.2,110.152 127.11,110.143 127.03,110.112 Z M118.789,110.493 C118.53,110.002 118.72,109.393 119.21,109.143 C119.7,108.882 120.3,109.072 120.559,109.562 C120.82,110.052 120.63,110.652 120.139,110.913 C119.99,110.993 119.829,111.022 119.679,111.022 C119.32,111.022 118.97,110.832 118.789,110.493 Z M130.26,111.643 C130.24,111.632 130.229,111.632 130.22,111.623 C129.769,111.292 129.67,110.672 129.99,110.223 C130.32,109.772 130.94,109.672 131.389,109.993 C131.4,110.002 131.409,110.012 131.42,110.012 C131.86,110.342 131.96,110.962 131.639,111.413 C131.44,111.683 131.139,111.822 130.829,111.822 C130.63,111.822 130.43,111.762 130.26,111.643 Z M115.97,113.192 C115.55,112.832 115.51,112.203 115.869,111.782 C116.229,111.373 116.86,111.322 117.28,111.683 C117.7,112.052 117.74,112.683 117.38,113.102 C117.179,113.322 116.9,113.442 116.619,113.442 C116.389,113.442 116.159,113.362 115.97,113.192 Z M132.67,114.192 C132.369,113.723 132.499,113.112 132.97,112.802 C133.43,112.502 134.05,112.643 134.349,113.102 C134.65,113.562 134.519,114.183 134.05,114.482 C133.889,114.592 133.7,114.643 133.51,114.643 C133.18,114.643 132.86,114.482 132.67,114.192 Z M114.3,116.732 C113.78,116.542 113.519,115.973 113.7,115.453 C113.889,114.933 114.47,114.663 114.99,114.852 C115.499,115.042 115.769,115.612 115.579,116.132 C115.44,116.542 115.05,116.792 114.65,116.792 C114.53,116.792 114.42,116.772 114.3,116.732 Z M134.01,117.453 C133.9,116.913 134.24,116.382 134.78,116.272 C135.329,116.163 135.849,116.502 135.97,117.042 C136.079,117.582 135.729,118.112 135.19,118.232 C135.119,118.243 135.05,118.252 134.99,118.252 C134.519,118.252 134.11,117.922 134.01,117.453 Z M113.019,119.663 C112.999,119.112 113.44,118.652 113.99,118.632 C114.539,118.623 114.999,119.062 115.01,119.612 C115.03,120.163 114.59,120.623 114.039,120.632 C114.03,120.632 114.019,120.632 114.019,120.632 C113.47,120.632 113.03,120.203 113.019,119.663 Z M134.909,122.132 C134.36,122.042 133.99,121.522 134.079,120.982 C134.17,120.433 134.69,120.062 135.229,120.152 C135.78,120.243 136.139,120.762 136.059,121.302 C135.97,121.792 135.55,122.143 135.07,122.143 C135.019,122.143 134.96,122.143 134.909,122.132 Z M113.889,123.832 C113.679,123.322 113.92,122.732 114.429,122.522 C114.94,122.312 115.53,122.552 115.74,123.062 C115.95,123.582 115.7,124.163 115.19,124.373 C115.07,124.422 114.94,124.453 114.809,124.453 C114.42,124.453 114.05,124.212 113.889,123.832 Z M133.229,125.663 C132.749,125.382 132.59,124.762 132.88,124.292 C133.159,123.812 133.769,123.663 134.24,123.942 C134.72,124.223 134.88,124.832 134.599,125.312 C134.409,125.623 134.079,125.802 133.729,125.802 C133.559,125.802 133.389,125.752 133.229,125.663 Z M116.21,127.402 C115.829,127.002 115.84,126.373 116.24,125.993 C116.639,125.612 117.269,125.623 117.659,126.022 C118.039,126.422 118.019,127.052 117.619,127.442 C117.429,127.623 117.179,127.712 116.929,127.712 C116.67,127.712 116.409,127.612 116.21,127.402 Z M130.389,128.352 C130.05,127.913 130.119,127.292 130.55,126.953 C130.99,126.602 131.619,126.683 131.96,127.112 C132.3,127.552 132.229,128.172 131.789,128.512 C131.61,128.663 131.389,128.732 131.17,128.732 C130.88,128.732 130.59,128.602 130.389,128.352 Z M119.659,129.893 C119.159,129.663 118.95,129.062 119.179,128.562 C119.42,128.062 120.019,127.852 120.519,128.092 C121.01,128.322 121.229,128.922 120.99,129.422 C120.82,129.782 120.46,129.993 120.09,129.993 C119.95,129.993 119.8,129.962 119.659,129.893 Z M126.769,129.832 C126.61,129.302 126.9,128.743 127.429,128.582 C127.96,128.422 128.519,128.723 128.68,129.243 C128.84,129.772 128.55,130.332 128.019,130.493 C127.92,130.522 127.82,130.542 127.72,130.542 C127.3,130.542 126.9,130.262 126.769,129.832 Z M123.789,130.982 C123.229,130.942 122.82,130.462 122.86,129.913 C122.9,129.352 123.38,128.942 123.929,128.982 C124.479,129.022 124.889,129.502 124.849,130.052 C124.82,130.582 124.38,130.982 123.849,130.982 C123.829,130.982 123.809,130.982 123.789,130.982 Z"/>
    <path fill="#FFFFFE" d="M73.478,90.04 C73.478,94.734 69.672,98.54 64.977,98.54 C60.282,98.54 56.476,94.734 56.476,90.04 C56.476,85.345 60.282,81.539 64.977,81.539 C69.672,81.539 73.478,85.345 73.478,90.04"/>
    <path fill="#434A4F" d="M71.279,107.398 C70.726,107.398 70.279,106.95 70.279,106.398 L70.279,103.365 C70.279,101.361 71.107,99.463 72.612,98.021 C74.799,95.924 76.004,93.104 76.004,90.083 C76.004,87.027 74.782,84.186 72.563,82.083 C70.346,79.981 67.434,78.918 64.375,79.077 C58.721,79.379 54.148,84.054 53.965,89.719 C53.864,92.864 55.118,95.908 57.405,98.072 C58.875,99.463 59.684,101.287 59.684,103.209 L59.684,106.398 C59.684,106.95 59.236,107.398 58.684,107.398 C58.132,107.398 57.684,106.95 57.684,106.398 L57.684,103.209 C57.684,101.842 57.097,100.534 56.031,99.524 C53.328,96.968 51.847,93.371 51.966,89.655 C52.182,82.96 57.586,77.437 64.269,77.08 C67.884,76.888 71.32,78.148 73.939,80.631 C76.56,83.116 78.004,86.473 78.004,90.083 C78.004,93.655 76.58,96.987 73.995,99.465 C72.888,100.526 72.279,101.911 72.279,103.365 L72.279,106.398 C72.279,106.95 71.831,107.398 71.279,107.398"/>
    <path fill="#434A4F" d="M65.071,114.555 C64.523,114.555 64.076,114.114 64.071,113.564 C64.066,113.012 64.51,112.56 65.062,112.555 L67.751,112.53 C68.383,112.446 68.976,112.154 69.427,111.703 C69.976,111.153 70.279,110.423 70.279,109.646 L70.279,106.507 C70.279,105.955 70.726,105.507 71.279,105.507 C71.831,105.507 72.279,105.955 72.279,106.507 L72.279,109.646 C72.279,110.957 71.768,112.19 70.841,113.117 C70.061,113.897 69.028,114.396 67.932,114.523 L67.826,114.529 L65.08,114.555 C65.077,114.555 65.074,114.555 65.071,114.555"/>
    <path fill="#434A4F" d="M73.572,107.396 L56.571,107.396 C56.019,107.396 55.571,106.949 55.571,106.396 C55.571,105.844 56.019,105.396 56.571,105.396 L73.572,105.396 C74.124,105.396 74.572,105.844 74.572,106.396 C74.572,106.949 74.124,107.396 73.572,107.396"/>
    <path fill="#434A4F" d="M65.071,114.555 L62.593,114.555 C61.283,114.555 60.05,114.044 59.122,113.118 C58.195,112.189 57.684,110.956 57.684,109.646 L57.684,106.821 C57.684,106.269 58.132,105.821 58.684,105.821 C59.236,105.821 59.684,106.269 59.684,106.821 L59.684,109.646 C59.684,110.423 59.987,111.153 60.536,111.703 C61.086,112.252 61.816,112.555 62.593,112.555 L65.071,112.555 C65.623,112.555 66.071,113.003 66.071,113.555 C66.071,114.107 65.623,114.555 65.071,114.555"/>
    <polyline fill="#434A4F" points="68.086 106.398 66.086 106.398 66.086 99.066 71.297 89.148 71.297 87.978 73.297 87.978 73.297 89.642 68.086 99.559 68.086 106.398"/>
    <polyline fill="#434A4F" points="63.836 106.398 61.836 106.398 61.836 99.559 56.625 89.642 56.625 87.978 58.625 87.978 58.625 89.148 63.836 99.066 63.836 106.398"/>
    <path fill="#434A4F" d="M60.17,88.683 C60.17,88.132 60.619,87.683 61.17,87.683 C61.72,87.683 62.17,88.132 62.17,88.683 C62.17,89.243 61.72,89.683 61.17,89.683 C60.619,89.683 60.17,89.243 60.17,88.683 Z M64.17,88.683 C64.17,88.132 64.619,87.683 65.17,87.683 C65.719,87.683 66.17,88.132 66.17,88.683 C66.17,89.243 65.719,89.683 65.17,89.683 C64.619,89.683 64.17,89.243 64.17,88.683 Z M68.17,88.683 C68.17,88.132 68.619,87.683 69.17,87.683 C69.719,87.683 70.17,88.132 70.17,88.683 C70.17,89.243 69.719,89.683 69.17,89.683 C68.619,89.683 68.17,89.243 68.17,88.683 Z"/>
  </g>
</svg>
