<svg xmlns="http://www.w3.org/2000/svg" width="250" height="250" viewBox="0 0 250 250">
  <g fill="none" fill-rule="evenodd">
    <path fill="#434A4F" d="M59.405 221.058C58.991 221.058 58.604 220.799 58.46 220.386L39.386 165.433C37.832 160.701 40.08 155.614 44.61 153.584L84.972 134.652C85.47 134.418 86.067 134.631 86.302 135.132 86.536 135.632 86.321 136.228 85.821 136.462L45.444 155.402C41.835 157.019 40.053 161.053 41.281 164.793L60.35 219.729C60.531 220.251 60.254 220.821 59.733 221.002 59.624 221.04 59.514 221.058 59.405 221.058M169.075 221.058C168.966 221.058 168.856 221.04 168.747 221.002 168.225 220.821 167.949 220.251 168.13 219.73L187.149 164.924C188.396 161.127 186.555 157.068 182.863 155.499L144.269 136.58C143.773 136.337 143.568 135.738 143.811 135.242 144.055 134.747 144.652 134.542 145.149 134.784L183.694 153.68C188.302 155.637 190.623 160.756 189.044 165.563L170.02 220.385C169.876 220.799 169.489 221.058 169.075 221.058M91.46 123.156C89.42 123.156 87.616 122.618 86.128 121.537 82.82 119.133 81.581 114.417 82.637 108.256L84.883 95.162C85.139 93.667 84.412 91.429 83.327 90.372L73.812 81.095C69.336 76.732 67.567 72.188 68.83 68.3 70.094 64.412 74.196 61.775 80.381 60.876L93.53 58.966C95.03 58.748 96.935 57.364 97.606 56.004 97.85 55.508 98.45 55.307 98.945 55.55 99.441 55.794 99.644 56.394 99.399 56.889 98.433 58.849 95.98 60.63 93.817 60.945L80.669 62.855C75.277 63.639 71.748 65.792 70.732 68.918 69.717 72.044 71.306 75.86 75.208 79.664L84.723 88.939C86.288 90.464 87.224 93.346 86.854 95.499L84.609 108.594C83.688 113.965 84.645 117.986 87.303 119.918 89.961 121.849 94.082 121.518 98.906 118.982L110.669 112.798C111.604 112.307 112.83 112.036 114.119 112.036L114.473 112.036C115.763 112.036 116.988 112.307 117.923 112.798L129.686 118.982C134.51 121.518 138.629 121.849 141.289 119.918 143.948 117.987 144.905 113.965 143.983 108.594L141.737 95.499C141.368 93.346 142.304 90.464 143.869 88.939L153.384 79.664C157.286 75.86 158.875 72.044 157.859 68.918 156.844 65.792 153.315 63.639 147.922 62.855L134.775 60.945C132.611 60.63 130.159 58.849 129.192 56.889L123.311 44.974C120.899 40.087 117.761 37.397 114.475 37.397 114.472 37.397 114.469 37.397 114.466 37.397L114.127 37.397C114.125 37.397 114.121 37.397 114.119 37.397 110.831 37.397 107.694 40.087 105.281 44.974 105.037 45.468 104.437 45.672 103.942 45.427 103.447 45.183 103.244 44.583 103.488 44.088 106.255 38.483 110.029 35.397 114.117 35.397 114.121 35.397 114.125 35.397 114.128 35.397L114.465 35.397C114.468 35.397 114.473 35.397 114.476 35.397 118.563 35.397 122.337 38.483 125.104 44.088L130.985 56.004C131.657 57.364 133.562 58.748 135.063 58.966L148.21 60.876C154.396 61.775 158.498 64.412 159.762 68.3 161.025 72.188 159.256 76.732 154.78 81.095L145.265 90.371C144.18 91.429 143.453 93.667 143.709 95.162L145.955 108.256C147.011 114.417 145.772 119.133 142.464 121.537 139.158 123.94 134.289 123.661 128.755 120.752L116.992 114.569C116.349 114.23 115.43 114.036 114.473 114.036L114.119 114.036C113.162 114.036 112.244 114.23 111.6 114.569L99.837 120.752C96.794 122.352 93.951 123.156 91.46 123.156M101.565 143.432C98.508 143.432 96.021 145.919 96.021 148.976L96.021 149.138C96.021 152.195 98.508 154.682 101.565 154.682 102.528 154.682 103.479 154.43 104.315 153.952L112.881 149.057 104.315 144.162C103.48 143.685 102.528 143.432 101.565 143.432zM101.565 156.682C97.405 156.682 94.021 153.298 94.021 149.138L94.021 148.976C94.021 144.816 97.405 141.432 101.565 141.432 102.876 141.432 104.17 141.776 105.308 142.426L115.393 148.189C115.704 148.367 115.897 148.698 115.897 149.057 115.897 149.416 115.704 149.748 115.393 149.925L105.308 155.688C104.169 156.338 102.876 156.682 101.565 156.682z"/>
    <path fill="#434A4F" d="M116.912,149.057 L125.478,153.952 C126.314,154.43 127.265,154.682 128.228,154.682 C131.285,154.682 133.772,152.195 133.772,149.138 L133.772,148.976 C133.772,145.919 131.285,143.432 128.228,143.432 C127.265,143.432 126.314,143.685 125.478,144.162 L116.912,149.057 Z M128.228,156.682 C126.918,156.682 125.624,156.338 124.485,155.688 L114.4,149.925 C114.089,149.748 113.897,149.416 113.897,149.057 C113.897,148.698 114.089,148.367 114.4,148.189 L124.485,142.426 C125.623,141.776 126.917,141.432 128.228,141.432 C132.388,141.432 135.772,144.816 135.772,148.976 L135.772,149.138 C135.772,153.298 132.388,156.682 128.228,156.682 Z"/>
    <path fill="#434A4F" d="M114.861 150.245L110.131 135.717 98.618 130.131 98.216 128.057 95.819 128.057 89.445 138.057 85.646 138.057C85.094 138.057 84.646 137.609 84.646 137.057 84.646 136.505 85.094 136.057 85.646 136.057L88.348 136.057 94.722 126.057 99.866 126.057 100.391 128.769 111.77 134.289 114.889 143.869 118.081 134.343 128.709 129.13 128.949 126.057 134.146 126.057 141.42 136.076 144.309 136.183C144.86 136.203 145.291 136.667 145.271 137.219 145.25 137.771 144.801 138.192 144.234 138.182L140.373 138.039 133.126 128.057 130.799 128.057 130.614 130.423 119.712 135.771 114.861 150.245M113.897 155.054C113.897 154.504 114.347 154.054 114.897 154.054 115.447 154.054 115.897 154.504 115.897 155.054 115.897 155.604 115.447 156.054 114.897 156.054 114.347 156.054 113.897 155.604 113.897 155.054zM113.897 159.054C113.897 158.504 114.347 158.054 114.897 158.054 115.447 158.054 115.897 158.504 115.897 159.054 115.897 159.604 115.447 160.054 114.897 160.054 114.347 160.054 113.897 159.604 113.897 159.054zM113.897 163.054C113.897 162.504 114.347 162.054 114.897 162.054 115.447 162.054 115.897 162.504 115.897 163.054 115.897 163.604 115.447 164.054 114.897 164.054 114.347 164.054 113.897 163.604 113.897 163.054zM113.897 167.054C113.897 166.504 114.347 166.054 114.897 166.054 115.447 166.054 115.897 166.504 115.897 167.054 115.897 167.614 115.447 168.054 114.897 168.054 114.347 168.054 113.897 167.614 113.897 167.054zM113.897 171.054C113.897 170.504 114.347 170.054 114.897 170.054 115.447 170.054 115.897 170.504 115.897 171.054 115.897 171.604 115.447 172.054 114.897 172.054 114.347 172.054 113.897 171.604 113.897 171.054zM113.897 175.054C113.897 174.504 114.347 174.054 114.897 174.054 115.447 174.054 115.897 174.504 115.897 175.054 115.897 175.604 115.447 176.054 114.897 176.054 114.347 176.054 113.897 175.604 113.897 175.054zM113.897 179.054C113.897 178.504 114.347 178.054 114.897 178.054 115.447 178.054 115.897 178.504 115.897 179.054 115.897 179.604 115.447 180.054 114.897 180.054 114.347 180.054 113.897 179.604 113.897 179.054zM113.897 183.054C113.897 182.504 114.347 182.054 114.897 182.054 115.447 182.054 115.897 182.504 115.897 183.054 115.897 183.614 115.447 184.054 114.897 184.054 114.347 184.054 113.897 183.614 113.897 183.054zM113.897 187.054C113.897 186.504 114.347 186.054 114.897 186.054 115.447 186.054 115.897 186.504 115.897 187.054 115.897 187.604 115.447 188.054 114.897 188.054 114.347 188.054 113.897 187.604 113.897 187.054zM113.897 191.054C113.897 190.504 114.347 190.054 114.897 190.054 115.447 190.054 115.897 190.504 115.897 191.054 115.897 191.604 115.447 192.054 114.897 192.054 114.347 192.054 113.897 191.604 113.897 191.054zM113.897 195.054C113.897 194.504 114.347 194.054 114.897 194.054 115.447 194.054 115.897 194.504 115.897 195.054 115.897 195.604 115.447 196.054 114.897 196.054 114.347 196.054 113.897 195.604 113.897 195.054zM113.897 199.054C113.897 198.504 114.347 198.054 114.897 198.054 115.447 198.054 115.897 198.504 115.897 199.054 115.897 199.614 115.447 200.054 114.897 200.054 114.347 200.054 113.897 199.614 113.897 199.054zM113.897 203.054C113.897 202.504 114.347 202.054 114.897 202.054 115.447 202.054 115.897 202.504 115.897 203.054 115.897 203.604 115.447 204.054 114.897 204.054 114.347 204.054 113.897 203.604 113.897 203.054zM113.897 207.054C113.897 206.504 114.347 206.054 114.897 206.054 115.447 206.054 115.897 206.504 115.897 207.054 115.897 207.604 115.447 208.054 114.897 208.054 114.347 208.054 113.897 207.604 113.897 207.054z"/>
    <polygon fill="#434A4F" points="82.896 33.057 84.896 33.057 84.896 29.057 82.896 29.057"/>
    <polygon fill="#434A4F" points="82.896 43.057 84.896 43.057 84.896 39.057 82.896 39.057"/>
    <polygon fill="#434A4F" points="86.896 37.057 90.896 37.057 90.896 35.057 86.896 35.057"/>
    <polygon fill="#434A4F" points="76.896 37.057 80.896 37.057 80.896 35.057 76.896 35.057"/>
    <polygon fill="#434A4F" points="44.902 127.063 46.902 127.063 46.902 123.063 44.902 123.063"/>
    <polygon fill="#434A4F" points="44.902 137.063 46.902 137.063 46.902 133.063 44.902 133.063"/>
    <polygon fill="#434A4F" points="48.902 131.063 52.902 131.063 52.902 129.063 48.902 129.063"/>
    <polygon fill="#434A4F" points="38.902 131.063 42.902 131.063 42.902 129.063 38.902 129.063"/>
    <polygon fill="#434A4F" points="190.897 141.057 192.897 141.057 192.897 137.057 190.897 137.057"/>
    <polygon fill="#434A4F" points="190.897 151.057 192.897 151.057 192.897 147.057 190.897 147.057"/>
    <polygon fill="#434A4F" points="194.897 145.057 198.897 145.057 198.897 143.057 194.897 143.057"/>
    <polygon fill="#434A4F" points="184.897 145.057 188.897 145.057 188.897 143.057 184.897 143.057"/>
    <path fill="#42494E" d="M144.657,209.076 C143.002,209.076 141.657,210.421 141.657,212.076 C141.657,213.73 143.002,215.076 144.657,215.076 L199.822,215.075 L206.328,212.076 L199.822,209.076 L144.657,209.076 Z M144.657,217.076 C141.9,217.076 139.657,214.833 139.657,212.076 C139.657,209.319 141.9,207.076 144.657,207.076 L200.26,207.076 L211.104,212.076 L200.26,217.075 L144.657,217.076 Z"/>
    <polygon fill="#42494E" points="150.267 216.076 152.267 216.076 152.267 208.477 150.267 208.477"/>
    <polygon fill="#42494E" points="151.267 213.047 199.273 213.047 199.273 211.047 151.267 211.047"/>
    <path fill="#FACF5F" d="M174.896 130.057C174.896 131.714 173.553 133.057 171.896 133.057 170.24 133.057 168.896 131.714 168.896 130.057 168.896 128.4 170.24 127.057 171.896 127.057 173.553 127.057 174.896 128.4 174.896 130.057M72.896 125.057C72.896 126.161 72.001 127.057 70.896 127.057 69.792 127.057 68.896 126.161 68.896 125.057 68.896 123.952 69.792 123.057 70.896 123.057 72.001 123.057 72.896 123.952 72.896 125.057M147.205 68.804C147.157 68.804 147.108 68.8 147.06 68.794L133.912 66.883C133.365 66.803 132.987 66.296 133.066 65.749 133.145 65.203 133.653 64.823 134.2 64.903L147.348 66.814C147.894 66.894 148.273 67.401 148.193 67.948 148.121 68.445 147.693 68.804 147.205 68.804zM114.132 43.397C113.809 43.444 112.314 44.284 110.662 47.629L104.78 59.545C102.972 63.209 98.724 66.295 94.68 66.883L81.532 68.794C77.819 69.333 76.565 70.505 76.432 70.79 76.384 71.063 76.71 72.748 79.396 75.368L88.912 84.643C91.837 87.495 93.459 92.488 92.768 96.515L90.522 109.609C89.888 113.306 90.615 114.862 90.844 115.076 91.291 115.401 91.382 116.02 91.058 116.467 90.863 116.734 90.558 116.875 90.249 116.875 90.041 116.875 89.833 116.812 89.653 116.682 88.633 115.94 87.808 113.604 88.551 109.271L90.796 96.177C91.384 92.75 90.004 88.502 87.515 86.075L77.999 76.8C74.851 73.729 74.146 71.354 74.537 70.154 74.926 68.955 76.893 67.447 81.244 66.814L94.392 64.903C97.834 64.403 101.448 61.777 102.986 58.66L108.869 46.744C110.814 42.802 112.856 41.397 114.118 41.397 114.67 41.397 115.118 41.845 115.118 42.397 115.118 42.945 114.678 43.39 114.132 43.397zM155.957 69.536C155.201 67.207 152.167 65.493 147.635 64.835L134.487 62.924C131.695 62.518 128.648 60.305 127.399 57.775L121.517 45.859C119.49 41.752 116.923 39.397 114.474 39.397 114.472 39.397 114.47 39.397 114.469 39.397L114.127 39.397C114.125 39.397 114.124 39.397 114.122 39.397 111.669 39.397 109.102 41.752 107.075 45.859L101.193 57.775C99.944 60.305 96.897 62.518 94.105 62.924L80.957 64.835C76.425 65.493 73.391 67.207 72.635 69.536 71.878 71.865 73.324 75.034 76.604 78.232L86.119 87.507C88.139 89.476 89.302 93.058 88.826 95.838L86.58 108.932C85.805 113.447 86.498 116.861 88.479 118.301 90.46 119.739 93.921 119.343 97.975 117.212L109.739 111.028C110.956 110.388 112.512 110.036 114.119 110.036L114.473 110.036C116.08 110.036 117.636 110.388 118.853 111.028L130.617 117.212C134.671 119.343 138.132 119.739 140.113 118.301 142.094 116.861 142.787 113.447 142.012 108.932L139.766 95.838C139.29 93.058 140.453 89.476 142.473 87.507L151.988 78.231C155.268 75.034 156.714 71.865 155.957 69.536z"/>
    <path fill="#434A4F" d="M180.026 30.942C164.106 30.942 151.154 43.894 151.154 59.813 151.154 71.536 158.156 82.01 168.991 86.497L169.671 86.778 169.605 87.511C169.41 89.64 168.434 91.507 166.971 92.842 169.986 92.41 172.739 90.968 174.866 88.677L175.224 88.29 175.746 88.368C177.167 88.579 178.607 88.686 180.026 88.686 195.946 88.686 208.898 75.733 208.898 59.813 208.898 43.894 195.946 30.942 180.026 30.942zM165.031 94.98L161.42 94.98 161.42 92.98C164.416 92.98 166.919 90.9 167.508 88.037 156.332 83.081 149.154 72.087 149.154 59.813 149.154 42.791 163.003 28.942 180.026 28.942 197.049 28.942 210.898 42.791 210.898 59.813 210.898 76.836 197.049 90.686 180.026 90.686 178.68 90.686 177.316 90.596 175.966 90.418 173.077 93.324 169.122 94.98 165.031 94.98zM74.469 161.296L107.287 212.695 84.629 141.686C84.6 141.594 84.583 141.498 84.582 141.402L84.512 137.885 72.354 149.149 80.703 152.519C81.007 152.642 81.232 152.906 81.304 153.226 81.377 153.546 81.287 153.882 81.065 154.123L74.469 161.296zM110.571 220.696C110.239 220.696 109.917 220.53 109.728 220.234L72.369 161.724C72.125 161.341 72.169 160.843 72.476 160.509L78.615 153.833 70.144 150.414C69.826 150.286 69.597 150.004 69.535 149.667 69.473 149.331 69.587 148.985 69.838 148.753L84.787 134.904C85.077 134.635 85.497 134.563 85.858 134.717 86.22 134.871 86.458 135.224 86.467 135.617L86.579 141.216 111.523 219.392C111.676 219.87 111.45 220.388 110.996 220.601 110.859 220.665 110.714 220.696 110.571 220.696zM144.537 141.382L144.547 141.382 144.537 141.382zM145.607 137.886L145.537 141.402C145.535 141.498 145.519 141.594 145.49 141.686L122.831 212.695 155.649 161.296 149.054 154.123C148.832 153.881 148.742 153.546 148.814 153.226 148.887 152.906 149.111 152.642 149.416 152.519L157.765 149.149 145.607 137.886zM119.547 220.696C119.404 220.696 119.259 220.666 119.123 220.601 118.668 220.388 118.442 219.87 118.595 219.392L143.54 141.216 143.651 135.617C143.659 135.224 143.898 134.871 144.26 134.717 144.621 134.563 145.042 134.635 145.331 134.904L160.28 148.753C160.531 148.985 160.646 149.331 160.584 149.667 160.523 150.004 160.293 150.286 159.975 150.414L151.504 153.833 157.643 160.509C157.949 160.843 157.993 161.341 157.749 161.724L120.39 220.234C120.201 220.53 119.879 220.696 119.547 220.696z"/>
    <path fill="#42494E" d="M57.569,87.564 C51.646,87.564 46.828,92.383 46.828,98.306 C46.828,101.175 47.944,103.872 49.973,105.901 C52.002,107.93 54.699,109.047 57.568,109.047 C63.491,109.047 68.31,104.229 68.31,98.306 C68.31,92.383 63.492,87.564 57.569,87.564 Z M57.568,111.047 C54.165,111.047 50.965,109.722 48.559,107.315 C46.152,104.908 44.827,101.709 44.828,98.306 C44.828,91.28 50.543,85.564 57.569,85.564 C64.594,85.564 70.31,91.28 70.31,98.306 C70.31,105.331 64.594,111.047 57.568,111.047 Z"/>
    <path fill="#42494E" d="M57.567,87.564 C54.683,87.564 52.245,92.483 52.245,98.306 C52.245,104.128 54.683,109.047 57.567,109.047 C60.452,109.047 62.89,104.128 62.89,98.306 C62.89,92.483 60.452,87.564 57.567,87.564 Z M57.567,111.047 C53.461,111.047 50.245,105.45 50.245,98.306 C50.245,91.161 53.461,85.564 57.567,85.564 C61.673,85.564 64.89,91.161 64.89,98.306 C64.89,105.45 61.673,111.047 57.567,111.047 Z"/>
    <polygon fill="#42494E" points="45.828 99.306 69.31 99.306 69.31 97.306 45.828 97.306"/>
    <path fill="#E9886C" d="M76.983 161.517L100.72 198.693 82.723 142.294C82.721 142.287 82.719 142.281 82.717 142.274L76.025 148.474 81.451 150.665C82.364 151.033 83.038 151.826 83.255 152.787 83.472 153.747 83.203 154.753 82.537 155.477L76.983 161.517M144.537 141.382L144.547 141.382 144.537 141.382zM147.401 142.274C147.399 142.281 147.397 142.287 147.395 142.294L129.398 198.693 153.136 161.517 147.582 155.477C146.915 154.753 146.647 153.747 146.864 152.787 147.08 151.826 147.754 151.033 148.667 150.665L154.094 148.474 147.401 142.274z"/>
    <path fill="#434A4F" d="M100.397 54.104C100.137 54.104 99.877 53.995 99.687 53.804 99.507 53.614 99.397 53.364 99.397 53.094 99.397 52.835 99.507 52.574 99.687 52.395 100.067 52.024 100.737 52.024 101.107 52.395 101.287 52.574 101.397 52.835 101.397 53.094 101.397 53.364 101.287 53.625 101.107 53.804 100.917 53.995 100.657 54.104 100.397 54.104M102.897 49.054C102.637 49.054 102.377 48.955 102.187 48.764 102.007 48.574 101.897 48.324 101.897 48.054 101.897 47.794 102.007 47.534 102.187 47.354 102.557 46.975 103.237 46.975 103.607 47.354 103.787 47.534 103.897 47.794 103.897 48.054 103.897 48.324 103.787 48.585 103.607 48.764 103.557 48.814 103.507 48.854 103.447 48.884 103.397 48.924 103.337 48.955 103.277 48.984 103.217 49.004 103.157 49.024 103.097 49.034 103.027 49.054 102.967 49.054 102.897 49.054"/>
  </g>
</svg>
