<svg xmlns="http://www.w3.org/2000/svg" width="250" height="250" viewBox="0 0 250 250">
  <g fill="none" fill-rule="evenodd">
    <path fill="#434A4F" d="M40.414,108.499 L125.005,193.09 C128.84,189.14 147.619,169.799 166.244,150.708 C178.444,138.201 188.193,128.247 195.219,121.121 C202.947,113.283 206.317,109.866 207.937,108.438 L180.86,80.515 L68.398,80.515 L40.414,108.499 Z M125.016,195.515 C124.751,195.515 124.497,195.41 124.309,195.222 L38.293,109.206 C37.902,108.815 37.902,108.183 38.293,107.792 L67.277,78.808 C67.464,78.621 67.719,78.515 67.984,78.515 L181.284,78.515 C181.554,78.515 181.813,78.624 182.001,78.819 L210.063,107.757 C210.266,107.945 210.389,108.213 210.389,108.499 C210.389,108.886 210.166,109.236 209.82,109.401 C206.492,112.138 148.144,172.117 125.734,195.211 C125.547,195.404 125.292,195.513 125.023,195.515 C125.021,195.515 125.019,195.515 125.016,195.515 Z"/>
    <path fill="#434A4F" d="M153.178,109.499 C152.908,109.499 152.648,109.389 152.46,109.195 L125.073,80.952 L97.685,109.195 C97.498,109.388 97.243,109.497 96.975,109.499 C96.972,109.499 96.97,109.499 96.967,109.499 C96.702,109.499 96.448,109.394 96.26,109.206 L67.277,80.222 C66.886,79.831 66.886,79.199 67.277,78.808 C67.667,78.418 68.3,78.418 68.691,78.808 L96.956,107.074 L124.355,78.819 C124.731,78.431 125.415,78.431 125.791,78.819 L153.178,107.063 L180.566,78.819 C180.95,78.422 181.583,78.413 181.98,78.797 C182.376,79.182 182.386,79.815 182.001,80.211 L153.896,109.195 C153.708,109.389 153.449,109.499 153.178,109.499"/>
    <path fill="#434A4F" d="M209.389,109.499 L39,109.499 C38.448,109.499 38,109.051 38,108.499 C38,107.947 38.448,107.499 39,107.499 L209.389,107.499 C209.941,107.499 210.389,107.947 210.389,108.499 C210.389,109.051 209.941,109.499 209.389,109.499"/>
    <path fill="#434A4F" d="M125.016,195.515 C124.583,195.515 124.2,195.236 124.065,194.825 L96.017,108.809 C95.845,108.284 96.132,107.72 96.657,107.548 C97.186,107.377 97.747,107.665 97.918,108.189 L125.018,191.295 L152.228,108.188 C152.399,107.663 152.966,107.376 153.489,107.549 C154.014,107.721 154.3,108.285 154.128,108.81 L125.966,194.826 C125.832,195.237 125.448,195.515 125.016,195.515"/>
    <polyline fill="#75C7D0" points="67.984 83.758 46.243 105.499 89.725 105.499 67.984 83.758"/>
    <polyline fill="#75C7D0" points="46.243 111.499 118.281 183.537 94.79 111.499 46.243 111.499"/>
    <polyline fill="#75C7D0" points="202.301 105.499 181.284 83.825 160.266 105.499 202.301 105.499"/>
    <polyline fill="#75C7D0" points="125.073 83.825 104.055 105.499 146.09 105.499 125.073 83.825"/>
    <polyline fill="#75C7D0" points="125.022 184.856 149.039 111.499 101.101 111.499 125.022 184.856"/>
    <polygon fill="#434A4F" points="165 56.5 167 56.5 167 52.5 165 52.5"/>
    <polygon fill="#434A4F" points="165 66.5 167 66.5 167 62.5 165 62.5"/>
    <polygon fill="#434A4F" points="169 60.5 173 60.5 173 58.5 169 58.5"/>
    <polygon fill="#434A4F" points="159 60.5 163 60.5 163 58.5 159 58.5"/>
    <polygon fill="#434A4F" points="35 154.5 37 154.5 37 150.5 35 150.5"/>
    <polygon fill="#434A4F" points="35 164.5 37 164.5 37 160.5 35 160.5"/>
    <polygon fill="#434A4F" points="39 158.5 43 158.5 43 156.5 39 156.5"/>
    <polygon fill="#434A4F" points="29 158.5 33 158.5 33 156.5 29 156.5"/>
    <polygon fill="#434A4F" points="213 180.5 215 180.5 215 176.5 213 176.5"/>
    <polygon fill="#434A4F" points="213 190.5 215 190.5 215 186.5 213 186.5"/>
    <polygon fill="#434A4F" points="217 184.5 221 184.5 221 182.5 217 182.5"/>
    <polygon fill="#434A4F" points="207 184.5 211 184.5 211 182.5 207 182.5"/>
    <polygon fill="#434A4F" points="171 118.5 173 118.5 173 114.5 171 114.5"/>
    <polygon fill="#434A4F" points="171 128.5 173 128.5 173 124.5 171 124.5"/>
    <polygon fill="#434A4F" points="175 122.5 179 122.5 179 120.5 175 120.5"/>
    <polygon fill="#434A4F" points="165 122.5 169 122.5 169 120.5 165 120.5"/>
    <path fill="#434A4F" d="M176 191.5C174.897 191.5 174 192.397 174 193.5 174 194.603 174.897 195.5 176 195.5 177.103 195.5 178 194.603 178 193.5 178 192.397 177.103 191.5 176 191.5zM176 197.5C173.794 197.5 172 195.706 172 193.5 172 191.294 173.794 189.5 176 189.5 178.206 189.5 180 191.294 180 193.5 180 195.706 178.206 197.5 176 197.5zM48 79.5C46.897 79.5 46 80.397 46 81.5 46 82.603 46.897 83.5 48 83.5 49.103 83.5 50 82.603 50 81.5 50 80.397 49.103 79.5 48 79.5zM48 85.5C45.794 85.5 44 83.706 44 81.5 44 79.294 45.794 77.5 48 77.5 50.206 77.5 52 79.294 52 81.5 52 83.706 50.206 85.5 48 85.5z"/>
    <path fill="#E9886C" d="M195 160.5C195 161.604 194.104 162.5 193 162.5 191.895 162.5 191 161.604 191 160.5 191 159.395 191.895 158.5 193 158.5 194.104 158.5 195 159.395 195 160.5M57 165.5C57 166.052 56.552 166.5 56 166.5 55.448 166.5 55 166.052 55 165.5 55 164.947 55.448 164.5 56 164.5 56.552 164.5 57 164.947 57 165.5M89 190.5C89 188.291 90.791 186.5 93 186.5 95.209 186.5 97 188.291 97 190.5 97 192.709 95.209 194.5 93 194.5 90.791 194.5 89 192.709 89 190.5M45 136.5C45 136.5 44.552 136.5 44 136.5 43.448 136.5 43 136.5 43 136.5 43 136.5 43.448 136.5 44 136.5 44.552 136.5 45 136.5 45 136.5M125 68.5C125 67.395 125.895 66.5 127 66.5 128.104 66.5 129 67.395 129 68.5 129 69.604 128.104 70.5 127 70.5 125.895 70.5 125 69.604 125 68.5"/>
    <path fill="#75C7D0" d="M211 83.5C211 84.052 210.552 84.5 210 84.5 209.448 84.5 209 84.052 209 83.5 209 82.948 209.448 82.5 210 82.5 210.552 82.5 211 82.948 211 83.5M75 68.5C75 69.604 74.104 70.5 73 70.5 71.895 70.5 71 69.604 71 68.5 71 67.395 71.895 66.5 73 66.5 74.104 66.5 75 67.395 75 68.5M51 139.5C51 137.843 52.343 136.5 54 136.5 55.657 136.5 57 137.843 57 139.5 57 141.157 55.657 142.5 54 142.5 52.343 142.5 51 141.157 51 139.5M205 145.5C205 146.052 204.552 146.5 204 146.5 203.448 146.5 203 146.052 203 145.5 203 144.947 203.448 144.5 204 144.5 204.552 144.5 205 144.947 205 145.5M175 161.5C175 160.947 175.448 160.5 176 160.5 176.552 160.5 177 160.947 177 161.5 177 162.052 176.552 162.5 176 162.5 175.448 162.5 175 162.052 175 161.5"/>
    <path fill="#434A4F" d="M74.735,176.443 L77.189,177.24 L77.656,175.804 C78.182,174.182 79.624,173.134 81.329,173.133 L81.33,173.133 C83.034,173.133 84.476,174.18 85.003,175.801 L85.47,177.237 L87.924,176.439 L87.457,175.002 C86.93,173.382 87.48,171.687 88.859,170.684 C90.238,169.682 92.02,169.681 93.4,170.682 L94.622,171.569 L96.138,169.481 L94.916,168.594 C93.537,167.593 92.985,165.898 93.511,164.276 C94.038,162.654 95.479,161.606 97.184,161.605 L98.694,161.605 L98.694,159.025 L97.184,159.025 C97.183,159.025 97.183,159.025 97.183,159.025 C95.478,159.025 94.036,157.978 93.509,156.356 C92.982,154.735 93.532,153.041 94.911,152.038 L96.132,151.15 L94.66,149.125 L93.438,150.013 C92.061,151.016 90.278,151.017 88.897,150.015 C87.518,149.013 86.966,147.318 87.492,145.697 L87.958,144.26 L85.504,143.464 L85.038,144.9 C84.512,146.522 83.07,147.57 81.365,147.571 L81.364,147.571 C79.66,147.571 78.218,146.524 77.69,144.904 L77.223,143.467 L74.77,144.266 L75.237,145.702 C75.764,147.323 75.214,149.019 73.835,150.021 C72.455,151.023 70.673,151.024 69.294,150.022 L68.072,149.135 L66.556,151.224 L67.778,152.111 C69.158,153.113 69.71,154.808 69.183,156.429 C68.657,158.051 67.215,159.099 65.511,159.1 L64.001,159.1 L64.001,161.681 L65.511,161.68 C65.512,161.68 65.513,161.68 65.514,161.68 C67.217,161.68 68.659,162.727 69.186,164.347 C69.714,165.969 69.164,167.664 67.785,168.667 L66.563,169.555 L68.034,171.578 L69.256,170.69 C70.635,169.688 72.418,169.688 73.797,170.688 C75.176,171.69 75.728,173.385 75.202,175.007 L74.735,176.443 Z M78.475,179.76 L72.216,177.729 L73.299,174.39 C73.607,173.44 73.151,172.691 72.622,172.307 C72.092,171.923 71.238,171.722 70.432,172.308 L67.593,174.372 L63.769,169.114 L66.608,167.049 C67.415,166.462 67.487,165.588 67.284,164.966 C67.082,164.344 66.51,163.68 65.513,163.68 C65.513,163.68 65.513,163.68 65.512,163.68 L62.002,163.682 L61.999,157.101 L65.51,157.1 C66.508,157.099 67.079,156.434 67.281,155.812 C67.483,155.189 67.411,154.316 66.604,153.729 L63.763,151.667 L67.628,146.342 L70.469,148.404 C71.277,148.991 72.13,148.788 72.659,148.404 C73.188,148.019 73.644,147.27 73.335,146.321 L72.249,142.982 L78.506,140.947 L79.592,144.285 C79.901,145.233 80.71,145.571 81.364,145.571 C82.019,145.571 82.828,145.232 83.136,144.283 L84.219,140.944 L90.478,142.975 L89.395,146.314 C89.087,147.263 89.543,148.012 90.072,148.396 C90.602,148.781 91.455,148.982 92.262,148.396 L95.101,146.331 L98.926,151.592 L96.087,153.656 C95.28,154.243 95.209,155.116 95.411,155.738 C95.613,156.361 96.185,157.025 97.183,157.025 L100.693,157.024 L100.695,163.604 L97.185,163.605 C96.187,163.606 95.615,164.271 95.414,164.894 C95.211,165.516 95.284,166.389 96.091,166.976 L98.931,169.038 L95.065,174.363 L92.225,172.3 C91.418,171.715 90.564,171.916 90.035,172.301 C89.506,172.686 89.05,173.435 89.359,174.384 L90.445,177.722 L84.187,179.758 L83.101,176.419 C82.793,175.471 81.984,175.133 81.33,175.133 C80.675,175.133 79.866,175.472 79.558,176.421 L78.475,179.76 Z"/>
    <path fill="#E9886C" d="M81.351,158.605 C81.258,158.605 81.165,158.613 81.072,158.628 C80.611,158.701 80.207,158.95 79.934,159.328 C79.369,160.107 79.544,161.202 80.323,161.766 C81.102,162.331 82.197,162.157 82.761,161.376 C83.035,160.999 83.146,160.537 83.072,160.077 C82.998,159.616 82.75,159.212 82.372,158.938 C82.07,158.72 81.716,158.605 81.351,158.605 Z M81.342,164.097 C80.581,164.097 79.813,163.866 79.15,163.386 C77.477,162.174 77.102,159.827 78.313,158.154 C78.9,157.344 79.768,156.811 80.756,156.653 C81.746,156.497 82.735,156.731 83.545,157.319 C84.356,157.906 84.889,158.773 85.047,159.761 C85.205,160.749 84.968,161.74 84.381,162.55 C83.649,163.56 82.504,164.097 81.342,164.097 Z"/>
    <path fill="#434A4F" d="M79.14 149.938C79.07 149.387 79.47 148.897 80.02 148.827 80.57 148.767 81.06 149.157 81.12 149.707 81.19 150.257 80.79 150.757 80.251 150.817 80.21 150.817 80.17 150.827 80.13 150.827 79.63 150.827 79.2 150.447 79.14 149.938zM83.77 151.057C83.23 150.917 82.91 150.377 83.05 149.837 83.19 149.307 83.73 148.987 84.27 149.127 84.8 149.267 85.12 149.807 84.98 150.347 84.87 150.797 84.46 151.087 84.02 151.087 83.93 151.087 83.85 151.077 83.77 151.057zM75.53 151.438C75.27 150.947 75.46 150.337 75.95 150.087 76.44 149.827 77.04 150.017 77.3 150.507 77.55 150.997 77.36 151.597 76.88 151.857 76.73 151.938 76.57 151.967 76.41 151.967 76.05 151.967 75.7 151.777 75.53 151.438zM86.98 152.577C86.97 152.577 86.96 152.567 86.95 152.557 86.51 152.237 86.4 151.617 86.73 151.167 87.05 150.717 87.67 150.617 88.12 150.938 88.13 150.938 88.13 150.947 88.14 150.947L88.15 150.957C88.6 151.287 88.7 151.907 88.37 152.357 88.18 152.627 87.87 152.767 87.56 152.767 87.36 152.767 87.15 152.707 86.98 152.577zM72.7 154.137C72.29 153.777 72.24 153.147 72.6 152.727 72.97 152.317 73.6 152.267 74.01 152.637 74.43 152.997 74.48 153.627 74.11 154.047 73.92 154.267 73.64 154.387 73.36 154.387 73.13 154.387 72.89 154.307 72.7 154.137zM89.41 155.137C89.11 154.667 89.24 154.057 89.7 153.747 90.17 153.447 90.78 153.587 91.09 154.047 91.39 154.517 91.251 155.127 90.79 155.427 90.62 155.537 90.43 155.597 90.251 155.597 89.92 155.597 89.6 155.427 89.41 155.137zM71.04 157.677C70.52 157.487 70.251 156.917 70.44 156.397 70.63 155.877 71.2 155.607 71.72 155.797 72.24 155.987 72.51 156.557 72.32 157.077 72.17 157.487 71.79 157.737 71.38 157.737 71.27 157.737 71.15 157.717 71.04 157.677zM90.74 158.397C90.63 157.857 90.98 157.327 91.52 157.217 92.06 157.107 92.59 157.447 92.7 157.987 92.81 158.527 92.47 159.057 91.93 159.167 91.86 159.188 91.79 159.197 91.72 159.197 91.26 159.197 90.84 158.867 90.74 158.397zM69.751 160.607C69.74 160.057 70.18 159.597 70.73 159.587 71.28 159.567 71.74 160.007 71.751 160.557 71.76 161.107 71.32 161.567 70.77 161.587 70.77 161.587 70.76 161.587 70.751 161.587 70.21 161.587 69.76 161.147 69.751 160.607zM91.64 163.077C91.1 162.987 90.73 162.467 90.82 161.927 90.91 161.377 91.42 161.007 91.97 161.097 92.51 161.188 92.88 161.707 92.79 162.247 92.71 162.737 92.29 163.087 91.81 163.087 91.751 163.087 91.7 163.087 91.64 163.077zM70.62 164.777C70.41 164.257 70.66 163.677 71.17 163.467 71.68 163.257 72.26 163.497 72.47 164.017 72.68 164.527 72.44 165.107 71.93 165.317 71.8 165.367 71.67 165.397 71.55 165.397 71.15 165.397 70.78 165.157 70.62 164.777zM89.96 166.607C89.49 166.327 89.33 165.707 89.61 165.237 89.89 164.757 90.51 164.607 90.98 164.887 91.45 165.167 91.61 165.777 91.33 166.257 91.14 166.567 90.81 166.747 90.47 166.747 90.3 166.747 90.12 166.697 89.96 166.607zM72.94 168.347C72.56 167.947 72.58 167.317 72.98 166.938 73.38 166.557 74.01 166.567 74.39 166.967 74.77 167.367 74.76 167.997 74.36 168.387 74.16 168.567 73.92 168.657 73.67 168.657 73.4 168.657 73.14 168.557 72.94 168.347zM87.12 169.297C86.78 168.867 86.86 168.237 87.29 167.897 87.72 167.547 88.35 167.627 88.69 168.057 89.04 168.497 88.96 169.117 88.53 169.467 88.35 169.607 88.13 169.677 87.91 169.677 87.61 169.677 87.32 169.547 87.12 169.297zM76.4 170.847C75.9 170.607 75.68 170.007 75.92 169.507 76.15 169.017 76.751 168.797 77.251 169.037 77.751 169.267 77.96 169.867 77.73 170.367 77.56 170.727 77.2 170.938 76.82 170.938 76.68 170.938 76.53 170.907 76.4 170.847zM83.501 170.777C83.34 170.247 83.64 169.688 84.17 169.527 84.69 169.367 85.251 169.657 85.41 170.188 85.58 170.717 85.28 171.277 84.751 171.438 84.66 171.467 84.56 171.487 84.46 171.487 84.03 171.487 83.63 171.207 83.501 170.777zM80.52 171.917C79.97 171.887 79.55 171.407 79.59 170.857 79.63 170.307 80.11 169.887 80.66 169.927 81.21 169.967 81.63 170.447 81.59 170.997 81.55 171.527 81.11 171.927 80.59 171.927 80.57 171.927 80.54 171.927 80.52 171.917zM190 147.5C188.897 147.5 188 148.397 188 149.5 188 150.603 188.897 151.5 190 151.5 191.103 151.5 192 150.603 192 149.5 192 148.397 191.103 147.5 190 147.5zM190 153.5C187.794 153.5 186 151.706 186 149.5 186 147.294 187.794 145.5 190 145.5 192.206 145.5 194 147.294 194 149.5 194 151.706 192.206 153.5 190 153.5z"/>
  </g>
</svg>
