<svg xmlns="http://www.w3.org/2000/svg" width="250" height="250" viewBox="0 0 250 250">
  <g fill="none" fill-rule="evenodd">
    <path fill="#75C7D0" d="M190.693,87.19 C175.59,87.19 163.346,74.946 163.346,59.842 C163.346,52.028 166.629,44.984 171.885,40 L40.422,40 L40.422,138 L74.421,138 L74.421,127.998 L94.422,127.998 L94.449,103.788 C94.449,99.269 98.069,97.888 100.013,97.145 L112.531,92.878 L115.141,88.04 L115.141,87.625 C115.141,87.625 114.392,86.538 114.2,86.054 L112.17,81.768 L109.302,80.112 L107.835,74.804 L107.835,74.533 C107.835,73.126 108.495,71.844 109.554,71.02 C109.514,70.458 109.495,69.919 109.495,69.409 L109.495,69.203 C109.495,64.981 111.232,60.833 114.26,57.826 C117.193,54.913 121.089,53.297 125.232,53.273 C128.769,53.297 132.08,54.458 134.834,56.629 C136.651,58.061 138.154,59.912 139.179,61.979 C139.268,62.159 139.354,62.341 139.436,62.524 C140.341,64.473 140.817,66.667 140.802,68.849 L140.802,69.411 C140.802,69.915 140.779,70.449 140.734,71.01 C140.895,71.135 141.048,71.271 141.191,71.419 C142.026,72.279 142.467,73.412 142.433,74.609 L142.375,75.117 L141.36,80.154 L137.934,81.868 L135.838,86.143 C135.657,86.59 135.106,87.394 135.106,87.394 L135.103,88.04 L138.059,92.883 L150.58,97.133 C152.615,97.881 156.315,99.241 156.315,103.844 L156.293,127.998 L173.384,127.998 L173.384,138 L210.422,138 L210.422,78.77 C205.445,83.956 198.449,87.19 190.693,87.19"/>
    <path fill="#DDDED9" d="M81.422,141 L83.422,153 L114.923,153 C115.218,152.695 115.56,152.429 115.949,152.215 C116.672,151.163 117.819,150.399 119.405,150.275 C120.125,149.798 121.022,149.503 122.112,149.503 C122.207,149.503 122.296,149.512 122.389,149.517 C122.962,149.276 123.613,149.128 124.362,149.128 C124.972,149.128 125.524,149.218 126.019,149.381 C127.38,149.388 128.451,149.843 129.232,150.555 C130.266,150.826 131.07,151.396 131.639,152.138 C132.065,152.372 132.458,152.653 132.773,152.968 C132.782,152.977 132.789,152.99 132.799,153 L164.421,153 L166.383,141 L81.422,141"/>
    <polyline fill="#434A4F" points="214.422 142 174.383 142 174.383 140 212.422 140 212.422 87.001 214.422 87.001 214.422 142"/>
    <polyline fill="#434A4F" points="73.422 142 36.422 142 36.422 36.001 163.42 36.001 163.42 38.001 38.422 38.001 38.422 140 73.422 140 73.422 142"/>
    <path fill="#434A4F" d="M78.422,140 L169.383,140 L169.383,132 L78.422,132 L78.422,140 Z M76.422,142 L171.383,142 L171.383,130 L76.422,130 L76.422,142 Z"/>
    <polyline fill="#434A4F" points="89.437 193.175 80.234 140 167.57 140 158.407 193.174 156.436 192.834 165.196 142 82.61 142 91.408 192.833 89.437 193.175"/>
    <path fill="#E9886C" d="M128.365,128.001 C128.365,128.001 127.219,105.366 126.646,103.074 C127.121,103.074 127.506,102.689 127.506,102.215 L127.506,100.065 L125.321,97.485 L123.208,100.065 L123.208,102.215 C123.208,102.689 123.593,103.074 124.067,103.074 C123.495,105.366 122.348,128.001 122.348,128.001 L128.365,128.001"/>
    <path fill="#DDDED9" d="M118.746,91.043 L118.746,92.921 L125.249,96.574 L131.696,93.028 L131.754,89.591 L131.754,86.694 C132,86.45 132.252,86.19 132.479,85.927 C132.401,85.994 132.327,86.062 132.264,86.13 C131.36,87.102 129.99,88.122 129.062,88.914 C128.328,89.541 127.399,89.888 126.434,89.899 L123.644,89.899 C122.679,89.888 121.751,89.541 121.017,88.914 C120.131,88.158 118.842,87.195 117.94,86.263 C117.913,86.235 117.882,86.207 117.852,86.179 C118.123,86.467 118.433,86.759 118.762,87.049 C118.755,87.053 118.746,87.056 118.746,87.065 L118.746,91.043"/>
    <path fill="#434A4F" d="M118.746,93.866 C118.194,93.866 117.746,93.419 117.746,92.866 L117.746,87.065 C117.746,86.513 118.194,86.065 118.746,86.065 C119.299,86.065 119.746,86.513 119.746,87.065 L119.746,92.866 C119.746,93.419 119.299,93.866 118.746,93.866"/>
    <path fill="#434A4F" d="M131.711 93.759C131.158 93.759 130.711 93.312 130.711 92.759L130.711 86.267 131.009 85.973C131.255 85.73 132.003 84.991 132.171 84.546L134.937 78.895 137.824 77.451 138.432 74.436C138.419 74.322 138.36 74.245 138.323 74.207 138.279 74.162 138.183 74.086 138.037 74.086L136.253 74.086 136.456 72.915C136.686 71.597 136.802 70.418 136.802 69.409L136.802 68.825C136.813 67.228 136.464 65.62 135.792 64.174 135.725 64.025 135.662 63.891 135.596 63.758 134.832 62.217 133.712 60.839 132.357 59.77 130.308 58.154 127.844 57.291 125.229 57.273 122.175 57.246 119.301 58.457 117.078 60.664 114.801 62.926 113.494 66.039 113.494 69.203L113.494 69.409C113.494 70.441 113.594 71.628 113.792 72.937L113.965 74.086 112.281 74.086C112.07 74.086 111.892 74.234 111.846 74.432L112.713 77.463 115.251 78.928 117.88 84.487C118.194 85.319 119.74 86.577 120.764 87.409 121.088 87.672 121.395 87.923 121.666 88.154 122.219 88.626 122.926 88.891 123.656 88.899L126.441 88.899C126.993 88.899 127.441 89.347 127.441 89.899 127.441 90.451 126.993 90.899 126.441 90.899L123.644 90.899C122.435 90.885 121.275 90.45 120.367 89.674 120.108 89.453 119.812 89.213 119.503 88.961 118.1 87.82 116.51 86.527 116.039 85.264L113.71 80.348 111.011 78.79 109.835 74.533C109.835 73.395 110.616 72.436 111.67 72.163 111.553 71.169 111.494 70.247 111.494 69.409L111.494 69.203C111.494 65.51 113.016 61.88 115.669 59.245 118.273 56.66 121.641 55.272 125.243 55.273 128.305 55.294 131.194 56.306 133.595 58.199 135.182 59.45 136.493 61.065 137.387 62.868 137.465 63.023 137.54 63.183 137.612 63.344 138.401 65.044 138.815 66.948 138.802 68.837L138.802 69.409C138.802 70.235 138.734 71.154 138.598 72.151 139.036 72.255 139.435 72.482 139.757 72.813 140.212 73.281 140.452 73.899 140.434 74.552L140.415 74.722 139.592 78.802 136.435 80.382 134.005 85.339C133.796 85.905 133.28 86.515 132.711 87.098L132.711 92.759C132.711 93.312 132.263 93.759 131.711 93.759M98.422 128.002L96.422 128 96.449 103.791C96.449 100.647 98.821 99.741 100.727 99.014L113.919 94.518 116.335 90.041 118.552 90.041 118.552 92.041 117.528 92.041 115.306 96.158 101.406 100.895C99.123 101.767 98.449 102.256 98.449 103.792L98.422 128.002"/>
    <path fill="#434A4F" d="M125.357,97.773 L118.262,93.801 C117.781,93.531 117.609,92.921 117.879,92.44 C118.149,91.958 118.759,91.787 119.24,92.056 L125.357,95.481 L131.223,92.196 C131.706,91.928 132.315,92.098 132.584,92.58 C132.854,93.062 132.682,93.671 132.2,93.941 L125.357,97.773"/>
    <path fill="#434A4F" d="M154.292 128.002L152.292 128 152.315 103.843C152.315 102.282 151.593 101.766 149.271 100.912L135.401 96.204 132.859 92.041 131.803 92.041 131.803 90.041 133.981 90.041 136.73 94.543 149.937 99.027C151.901 99.749 154.315 100.637 154.315 103.844L154.292 128.002M121.488 102.784C121.25 102.784 121.01 102.7 120.82 102.527 120.409 102.158 120.376 101.526 120.745 101.115L125.357 95.992 129.968 101.115C130.337 101.526 130.304 102.158 129.893 102.527 129.483 102.897 128.85 102.862 128.481 102.453L125.357 98.982 122.232 102.453C122.034 102.672 121.762 102.784 121.488 102.784"/>
    <polyline fill="#434A4F" points="86.422 131 84.422 131 84.422 94.382 100.974 86.106 101.869 87.895 86.422 95.619 86.422 131"/>
    <path fill="#434A4F" d="M97.089,91.168 C96.355,91.168 95.649,90.762 95.299,90.061 C94.805,89.073 95.205,87.872 96.194,87.378 L100.528,85.212 C101.513,84.718 102.716,85.118 103.211,86.107 C103.704,87.094 103.304,88.296 102.316,88.79 L97.982,90.956 C97.695,91.1 97.39,91.168 97.089,91.168"/>
    <polyline fill="#434A4F" points="164.422 131 162.422 131 162.422 95.619 146.974 87.895 147.869 86.106 164.422 94.382 164.422 131"/>
    <path fill="#434A4F" d="M152.792,91.168 C152.491,91.168 152.186,91.1 151.899,90.956 L147.565,88.79 C146.577,88.296 146.177,87.094 146.67,86.107 C147.164,85.118 148.366,84.717 149.353,85.212 L153.687,87.378 C154.676,87.872 155.076,89.073 154.582,90.061 C154.232,90.762 153.525,91.168 152.792,91.168"/>
    <path fill="#E9886C" d="M212.501,203.25 L164.499,203.25 C161.185,203.25 158.499,205.937 158.499,209.25 L158.499,221 L218.501,221 L218.501,209.25 C218.501,205.937 215.815,203.25 212.501,203.25"/>
    <path fill="#434A4F" d="M181.825,183.592 C181.273,183.592 180.825,183.145 180.825,182.592 L180.825,180.211 C180.644,180.032 180.427,179.817 180.311,179.696 C179.702,179.07 179.312,178.513 179.117,177.992 L176.789,173.075 L174.09,171.518 L172.914,167.26 C172.914,166.122 173.695,165.163 174.749,164.891 C174.632,163.897 174.573,162.975 174.573,162.137 L174.573,161.931 C174.573,158.237 176.094,154.608 178.748,151.973 C181.351,149.388 184.712,147.98 188.322,148.001 C191.385,148.022 194.273,149.033 196.674,150.927 C198.26,152.177 199.571,153.791 200.466,155.595 C200.543,155.752 200.618,155.91 200.69,156.071 C201.48,157.772 201.894,159.675 201.881,161.564 L201.881,162.137 C201.881,162.963 201.812,163.882 201.677,164.879 C202.114,164.984 202.513,165.209 202.835,165.54 C203.291,166.009 203.531,166.627 203.512,167.279 L203.493,167.448 L202.671,171.529 L199.514,173.109 L197.083,178.067 C196.874,178.632 196.358,179.241 195.789,179.825 L195.789,182.485 C195.789,183.038 195.342,183.485 194.789,183.485 C194.237,183.485 193.789,183.038 193.789,182.485 L193.789,178.994 L194.087,178.7 C194.333,178.457 195.082,177.718 195.25,177.274 L198.016,171.622 L200.903,170.178 L201.51,167.162 C201.497,167.05 201.438,166.973 201.401,166.935 C201.357,166.889 201.262,166.814 201.115,166.814 L199.331,166.814 L199.535,165.642 C199.764,164.324 199.881,163.145 199.881,162.137 L199.881,161.552 C199.892,159.955 199.542,158.348 198.87,156.9 C198.804,156.752 198.74,156.617 198.674,156.484 C197.91,154.943 196.79,153.565 195.436,152.497 C193.387,150.882 190.923,150.019 188.308,150.001 C185.258,150.005 182.379,151.185 180.157,153.392 C177.879,155.653 176.573,158.766 176.573,161.931 L176.573,162.137 C176.573,163.168 176.673,164.356 176.87,165.664 L177.044,166.814 L175.36,166.814 C175.149,166.814 174.971,166.962 174.925,167.159 L175.791,170.19 L178.329,171.655 L180.958,177.215 C181.044,177.435 181.213,177.755 181.746,178.303 C181.96,178.525 182.525,179.078 182.525,179.078 L182.825,179.372 L182.825,182.592 C182.825,183.145 182.377,183.592 181.825,183.592"/>
    <path fill="#434A4F" d="M161.5,197.736 L159.501,197.692 L159.528,196.497 C159.528,193.372 161.9,192.468 163.806,191.74 L176.997,187.245 L179.413,182.768 L197.059,182.768 L199.808,187.271 L213.016,191.754 C214.98,192.476 217.394,193.363 217.394,196.571 L217.37,197.734 L215.37,197.693 L215.394,196.551 C215.394,195.009 214.671,194.493 212.349,193.64 L198.479,188.931 L195.937,184.768 L180.607,184.768 L178.385,188.886 L164.485,193.621 C162.201,194.493 161.528,194.983 161.528,196.52 L161.5,197.736"/>
    <polygon fill="#434A4F" points="182.5 190 194.5 190 194.5 188 182.5 188"/>
    <path fill="#434A4F" d="M219.543,220.75 L217.543,220.75 L217.543,203 C217.543,200.243 215.3,198 212.543,198 L164.541,198 C161.784,198 159.541,200.243 159.541,203 L159.541,220.75 L157.541,220.75 L157.541,203 C157.541,199.141 160.681,196 164.541,196 L212.543,196 C216.403,196 219.543,199.141 219.543,203 L219.543,220.75"/>
    <path fill="#E9886C" d="M147.963,203.25 L99.96,203.25 C96.646,203.25 93.96,205.937 93.96,209.25 L93.96,221 L153.963,221 L153.963,209.25 C153.963,205.937 151.276,203.25 147.963,203.25"/>
    <path fill="#434A4F" d="M117.286,183.592 C116.734,183.592 116.286,183.145 116.286,182.592 L116.286,180.211 C116.105,180.032 115.888,179.817 115.771,179.695 C115.163,179.069 114.772,178.512 114.579,177.991 L112.25,173.075 L109.552,171.518 L108.375,167.26 C108.375,166.122 109.156,165.163 110.21,164.891 C110.094,163.897 110.034,162.975 110.034,162.137 L110.034,161.931 C110.034,158.237 111.556,154.608 114.209,151.973 C116.79,149.409 120.155,148.001 123.692,148.001 C123.722,148.001 123.752,148.001 123.783,148.001 C126.846,148.022 129.735,149.033 132.135,150.927 C133.721,152.177 135.032,153.791 135.927,155.595 C136.005,155.752 136.08,155.91 136.152,156.071 C136.941,157.771 137.355,159.674 137.343,161.564 L137.342,162.136 C137.342,162.962 137.274,163.882 137.138,164.879 C137.575,164.984 137.975,165.209 138.297,165.54 C138.752,166.009 138.992,166.627 138.974,167.279 L138.955,167.448 L138.132,171.529 L134.975,173.109 L132.545,178.067 C132.336,178.632 131.819,179.242 131.25,179.825 L131.25,182.485 C131.25,183.038 130.802,183.485 130.25,183.485 C129.698,183.485 129.25,183.038 129.25,182.485 L129.25,178.994 L129.548,178.7 C129.794,178.457 130.544,177.718 130.711,177.274 L133.477,171.622 L136.365,170.178 L136.972,167.162 C136.959,167.05 136.9,166.973 136.863,166.935 C136.819,166.889 136.723,166.814 136.577,166.814 L134.793,166.814 L134.996,165.642 C135.226,164.324 135.342,163.145 135.342,162.137 L135.342,161.65 L135.343,161.547 C135.353,159.954 135.003,158.347 134.332,156.9 C134.265,156.752 134.202,156.617 134.135,156.484 C133.371,154.943 132.252,153.565 130.897,152.497 C128.848,150.882 126.384,150.019 123.769,150.001 C120.717,150.005 117.841,151.185 115.618,153.392 C113.341,155.653 112.034,158.766 112.034,161.931 L112.034,162.137 C112.034,163.168 112.135,164.356 112.332,165.664 L112.505,166.814 L110.822,166.814 C110.61,166.814 110.432,166.962 110.386,167.159 L111.253,170.19 L113.791,171.655 L116.42,177.215 C116.506,177.436 116.674,177.754 117.207,178.303 C117.422,178.525 117.986,179.078 117.986,179.078 L118.286,179.372 L118.286,182.592 C118.286,183.145 117.839,183.592 117.286,183.592"/>
    <path fill="#434A4F" d="M96.961,197.736 L94.962,197.692 L94.99,196.497 C94.988,193.372 97.361,192.468 99.267,191.74 L112.458,187.245 L114.875,182.768 L132.521,182.768 L135.27,187.271 L148.477,191.754 C150.441,192.477 152.855,193.364 152.855,196.571 L152.832,197.734 L150.832,197.693 L150.855,196.551 C150.855,195.01 150.133,194.493 147.811,193.64 L133.941,188.931 L131.399,184.768 L116.068,184.768 L113.846,188.886 L99.947,193.621 C97.662,194.493 96.989,194.983 96.989,196.52 L96.961,197.736"/>
    <polygon fill="#434A4F" points="117.962 190 129.962 190 129.962 188 117.962 188"/>
    <path fill="#434A4F" d="M155.005,220.75 L153.005,220.75 L153.005,203 C153.005,200.243 150.761,198 148.005,198 L100.002,198 C97.245,198 95.002,200.243 95.002,203 L95.002,220.75 L93.002,220.75 L93.002,203 C93.002,199.141 96.142,196 100.002,196 L148.005,196 C151.865,196 155.005,199.141 155.005,203 L155.005,220.75"/>
    <path fill="#E9886C" d="M83.424,203.25 L35.422,203.25 C32.108,203.25 29.421,205.937 29.421,209.25 L29.421,221 L89.424,221 L89.424,209.25 C89.424,205.937 86.738,203.25 83.424,203.25"/>
    <path fill="#434A4F" d="M52.748,183.592 C52.196,183.592 51.748,183.145 51.748,182.592 L51.748,180.211 C51.567,180.032 51.35,179.817 51.233,179.696 C50.624,179.069 50.234,178.512 50.04,177.992 L47.712,173.075 L45.013,171.518 L43.836,167.26 C43.836,166.122 44.617,165.163 45.672,164.891 C45.555,163.898 45.496,162.974 45.496,162.137 L45.496,161.931 C45.496,158.237 47.017,154.608 49.671,151.973 C52.274,149.388 55.635,147.98 59.244,148.001 C62.307,148.022 65.196,149.033 67.596,150.927 C69.182,152.177 70.493,153.791 71.388,155.595 C71.466,155.753 71.54,155.909 71.612,156.068 C72.402,157.772 72.816,159.675 72.804,161.564 L72.803,162.137 C72.803,162.964 72.735,163.883 72.6,164.879 C73.037,164.984 73.436,165.209 73.758,165.54 C74.214,166.009 74.454,166.627 74.435,167.279 L74.416,167.448 L73.593,171.529 L70.437,173.109 L68.006,178.067 C67.797,178.632 67.281,179.242 66.712,179.825 L66.712,182.485 C66.712,183.038 66.264,183.485 65.712,183.485 C65.159,183.485 64.712,183.038 64.712,182.485 L64.712,178.994 L65.009,178.7 C65.256,178.457 66.005,177.718 66.173,177.274 L68.939,171.622 L71.826,170.178 L72.433,167.162 C72.42,167.05 72.361,166.973 72.324,166.935 C72.28,166.889 72.185,166.814 72.038,166.814 L70.254,166.814 L70.458,165.642 C70.687,164.326 70.803,163.147 70.803,162.137 L70.804,161.547 C70.814,159.955 70.465,158.347 69.793,156.9 C69.727,156.753 69.662,156.616 69.595,156.482 C68.833,154.943 67.713,153.565 66.358,152.497 C64.309,150.882 61.845,150.019 59.231,150.001 C56.176,150.005 53.302,151.185 51.08,153.392 C48.802,155.653 47.496,158.766 47.496,161.931 L47.496,162.137 C47.496,163.168 47.596,164.356 47.793,165.664 L47.967,166.814 L46.283,166.814 C46.071,166.814 45.893,166.962 45.847,167.159 L46.714,170.19 L49.252,171.655 L51.881,177.215 C51.967,177.435 52.135,177.754 52.668,178.304 C52.883,178.525 53.447,179.078 53.447,179.078 L53.748,179.372 L53.748,182.592 C53.748,183.145 53.3,183.592 52.748,183.592"/>
    <path fill="#434A4F" d="M32.422,197.736 L30.423,197.692 L30.45,196.497 C30.45,193.372 32.822,192.468 34.729,191.74 L47.92,187.245 L50.336,182.768 L67.982,182.768 L70.731,187.271 L83.938,191.754 C85.902,192.476 88.317,193.364 88.317,196.571 L88.293,197.734 L86.293,197.693 L86.317,196.551 C86.317,195.009 85.593,194.493 83.272,193.64 L69.402,188.931 L66.86,184.768 L51.529,184.768 L49.307,188.886 L35.408,193.621 C33.124,194.493 32.45,194.983 32.45,196.52 L32.422,197.736"/>
    <polygon fill="#434A4F" points="53.423 190 65.423 190 65.423 188 53.423 188"/>
    <path fill="#434A4F" d="M90.466,220.75 L88.466,220.75 L88.466,203 C88.466,200.243 86.223,198 83.466,198 L35.464,198 C32.707,198 30.464,200.243 30.464,203 L30.464,220.75 L28.464,220.75 L28.464,203 C28.464,199.141 31.604,196 35.464,196 L83.466,196 C87.326,196 90.466,199.141 90.466,203 L90.466,220.75"/>
    <path fill="#75C7D0" d="M210.422,40.914 L210.422,40 L209.503,40 C209.816,40.298 210.122,40.602 210.422,40.914"/>
    <path fill="#434A4F" d="M190.506,31 C174.498,31 161.475,44.023 161.475,60.03 C161.475,71.817 168.515,82.349 179.409,86.86 L180.09,87.141 L180.023,87.875 C179.828,90.02 178.842,91.9 177.365,93.242 C180.405,92.81 183.178,91.359 185.322,89.05 L185.68,88.664 L186.201,88.741 C187.629,88.953 189.077,89.061 190.506,89.061 C206.513,89.061 219.536,76.038 219.536,60.03 C219.536,44.022 206.513,30.999 190.506,31 Z M175.43,95.378 L171.801,95.378 L171.801,93.379 C174.816,93.379 177.336,91.283 177.927,88.4 C166.691,83.419 159.475,72.369 159.475,60.03 C159.475,42.92 173.395,29 190.506,29 C198.794,28.999 206.587,32.227 212.448,38.088 C218.308,43.949 221.536,51.741 221.536,60.03 C221.536,77.14 207.616,91.061 190.506,91.061 C189.151,91.061 187.779,90.97 186.422,90.791 C183.519,93.712 179.543,95.378 175.43,95.378 Z"/>
    <polyline fill="#434A4F" points="173.337 56.445 173.337 54.445 207.518 54.444 207.518 56.444 173.337 56.445"/>
    <polygon fill="#434A4F" points="173.337 60.617 207.518 60.617 207.518 58.617 173.337 58.617"/>
    <polygon fill="#434A4F" points="173.337 64.641 207.518 64.641 207.518 62.641 173.337 62.641"/>
    <path fill="#42494E" d="M63.933,94.862 C58.01,94.862 53.192,99.68 53.192,105.603 C53.192,111.526 58.01,116.344 63.933,116.344 C69.856,116.344 74.674,111.526 74.674,105.603 C74.674,99.68 69.856,94.862 63.933,94.862 Z M63.933,118.344 C56.907,118.344 51.192,112.629 51.192,105.603 C51.192,98.578 56.907,92.862 63.933,92.862 C70.958,92.862 76.674,98.578 76.674,105.603 C76.674,112.629 70.958,118.344 63.933,118.344 Z"/>
    <path fill="#42494E" d="M63.932,94.862 C61.047,94.862 58.61,99.781 58.61,105.603 C58.61,111.425 61.047,116.344 63.932,116.344 C66.817,116.344 69.254,111.425 69.254,105.603 C69.254,102.63 68.639,99.85 67.522,97.775 C66.525,95.923 65.217,94.862 63.932,94.862 Z M63.932,118.344 C59.826,118.344 56.61,112.748 56.61,105.603 C56.61,98.459 59.826,92.862 63.932,92.862 C66.006,92.862 67.906,94.27 69.283,96.827 C70.554,99.188 71.254,102.304 71.254,105.603 C71.254,112.748 68.037,118.344 63.932,118.344 Z"/>
    <polygon fill="#42494E" points="52.192 106.603 75.674 106.603 75.674 104.603 52.192 104.603"/>
    <polygon fill="#434A4F" points="78.356 64.976 80.356 64.976 80.356 60.976 78.356 60.976"/>
    <polygon fill="#434A4F" points="78.356 74.976 80.356 74.976 80.356 70.976 78.356 70.976"/>
    <polygon fill="#434A4F" points="82.356 68.976 86.356 68.976 86.356 66.976 82.356 66.976"/>
    <polygon fill="#434A4F" points="72.356 68.976 76.356 68.976 76.356 66.976 72.356 66.976"/>
    <polygon fill="#434A4F" points="188.422 115.006 190.422 115.006 190.422 111.006 188.422 111.006"/>
    <polygon fill="#434A4F" points="188.422 125.006 190.422 125.006 190.422 121.006 188.422 121.006"/>
    <polygon fill="#434A4F" points="192.422 119.006 196.422 119.006 196.422 117.006 192.422 117.006"/>
    <polygon fill="#434A4F" points="182.422 119.006 186.422 119.006 186.422 117.006 182.422 117.006"/>
    <path fill="#FACD60" d="M213.422 152C213.422 153.657 212.078 155 210.422 155 208.765 155 207.422 153.657 207.422 152 207.422 150.344 208.765 149 210.422 149 212.078 149 213.422 150.344 213.422 152M39.422 149C39.422 150.105 38.526 151 37.422 151 36.317 151 35.422 150.105 35.422 149 35.422 147.896 36.317 147 37.422 147 38.526 147 39.422 147.896 39.422 149M155.422 175C155.422 176.105 154.526 177 153.422 177 152.317 177 151.422 176.105 151.422 175 151.422 173.896 152.317 173 153.422 173 154.526 173 155.422 173.896 155.422 175"/>
    <path fill="#434A4F" d="M165.422 37.998C165.152 37.998 164.902 37.898 164.712 37.708 164.532 37.528 164.422 37.268 164.422 36.998 164.422 36.868 164.452 36.738 164.502 36.618 164.552 36.498 164.622 36.388 164.712 36.288 164.762 36.248 164.812 36.208 164.862 36.168 164.922 36.138 164.982 36.098 165.042 36.078 165.102 36.048 165.162 36.038 165.222 36.018 165.422 35.978 165.622 35.998 165.802 36.078 165.922 36.128 166.032 36.198 166.132 36.288 166.222 36.388 166.292 36.498 166.342 36.618 166.392 36.738 166.422 36.868 166.422 36.998 166.422 37.068 166.412 37.128 166.402 37.198 166.392 37.258 166.372 37.318 166.342 37.378 166.322 37.448 166.292 37.498 166.252 37.558 166.212 37.608 166.172 37.658 166.132 37.708 166.032 37.798 165.922 37.878 165.802 37.928 165.682 37.978 165.552 37.998 165.422 37.998M213.422 85.498C213.162 85.498 212.902 85.398 212.712 85.208 212.532 85.018 212.422 84.758 212.422 84.498 212.422 84.238 212.532 83.978 212.712 83.798 212.992 83.518 213.432 83.428 213.802 83.578 213.922 83.628 214.032 83.698 214.132 83.798 214.312 83.978 214.422 84.238 214.422 84.498 214.422 84.758 214.312 85.018 214.132 85.208 214.032 85.298 213.922 85.378 213.802 85.428 213.682 85.478 213.552 85.498 213.422 85.498"/>
  </g>
</svg>
