<svg xmlns="http://www.w3.org/2000/svg" width="250" height="250" viewBox="0 0 250 250">
  <g fill="none" fill-rule="evenodd">
    <polyline fill="#75C7D0" points="191.462 95.518 114.463 95.518 114.463 53.516 191.464 53.516 191.462 95.518"/>
    <path fill="#42494E" d="M137.384 158.518L169.462 158.518 169.462 144.448 137.384 144.448 137.384 158.518zM135.384 160.518L171.462 160.518 171.462 142.448 135.384 142.448 135.384 160.518zM140.124 79.046L142.124 79.046 142.124 77.046 140.124 77.046 140.124 79.046zM144.124 79.046L146.124 79.046 146.124 77.046 144.124 77.046 144.124 79.046zM148.124 79.046L150.124 79.046 150.124 77.046 148.124 77.046 148.124 79.046zM152.124 79.046L154.124 79.046 154.124 77.046 152.124 77.046 152.124 79.046zM156.124 79.046L158.124 79.046 158.124 77.046 156.124 77.046 156.124 79.046zM160.124 79.046L162.124 79.046 162.124 77.046 160.124 77.046 160.124 79.046zM164.124 79.046L166.124 79.046 166.124 77.046 164.124 77.046 164.124 79.046zM114.48 114.393L120.48 114.393 120.48 112.393 114.48 112.393 114.48 114.393zM112.48 116.393L122.48 116.393 122.48 110.393 112.48 110.393 112.48 116.393zM126.47 114.393L128.47 114.393 128.47 112.393 126.47 112.393 126.47 114.393zM124.47 116.393L130.47 116.393 130.47 110.393 124.47 110.393 124.47 116.393zM134.47 114.393L136.47 114.393 136.47 112.393 134.47 112.393 134.47 114.393zM132.47 116.393L138.47 116.393 138.47 110.393 132.47 110.393 132.47 116.393zM142.47 114.393L144.47 114.393 144.47 112.393 142.47 112.393 142.47 114.393zM140.47 116.393L146.47 116.393 146.47 110.393 140.47 110.393 140.47 116.393zM150.47 114.393L152.47 114.393 152.47 112.393 150.47 112.393 150.47 114.393zM148.47 116.393L154.47 116.393 154.47 110.393 148.47 110.393 148.47 116.393zM158.47 114.393L160.47 114.393 160.47 112.393 158.47 112.393 158.47 114.393zM156.47 116.393L162.47 116.393 162.47 110.393 156.47 110.393 156.47 116.393zM166.47 114.393L168.47 114.393 168.47 112.393 166.47 112.393 166.47 114.393zM164.47 116.393L170.47 116.393 170.47 110.393 164.47 110.393 164.47 116.393zM174.47 114.393L176.47 114.393 176.47 112.393 174.47 112.393 174.47 114.393zM172.47 116.393L178.47 116.393 178.47 110.393 172.47 110.393 172.47 116.393zM182.47 114.393L184.47 114.393 184.47 112.393 182.47 112.393 182.47 114.393zM180.47 116.393L186.47 116.393 186.47 110.393 180.47 110.393 180.47 116.393zM190.47 114.393L192.47 114.393 192.47 112.393 190.47 112.393 190.47 114.393zM188.47 116.393L194.47 116.393 194.47 110.393 188.47 110.393 188.47 116.393zM114.48 122.393L116.48 122.393 116.48 120.393 114.48 120.393 114.48 122.393zM112.48 124.393L118.48 124.393 118.48 118.393 112.48 118.393 112.48 124.393zM122.48 122.393L124.48 122.393 124.48 120.393 122.48 120.393 122.48 122.393zM120.48 124.393L126.48 124.393 126.48 118.393 120.48 118.393 120.48 124.393zM130.47 122.393L132.47 122.393 132.47 120.393 130.47 120.393 130.47 122.393zM128.47 124.393L134.47 124.393 134.47 118.393 128.47 118.393 128.47 124.393zM138.47 122.393L140.47 122.393 140.47 120.393 138.47 120.393 138.47 122.393zM136.47 124.393L142.47 124.393 142.47 118.393 136.47 118.393 136.47 124.393zM146.47 122.393L148.47 122.393 148.47 120.393 146.47 120.393 146.47 122.393zM144.47 124.393L150.47 124.393 150.47 118.393 144.47 118.393 144.47 124.393zM154.47 122.393L156.47 122.393 156.47 120.393 154.47 120.393 154.47 122.393zM152.47 124.393L158.47 124.393 158.47 118.393 152.47 118.393 152.47 124.393zM162.47 122.393L164.47 122.393 164.47 120.393 162.47 120.393 162.47 122.393zM160.47 124.393L166.47 124.393 166.47 118.393 160.47 118.393 160.47 124.393zM170.47 122.393L172.47 122.393 172.47 120.393 170.47 120.393 170.47 122.393zM168.47 124.393L174.47 124.393 174.47 118.393 168.47 118.393 168.47 124.393zM178.47 122.393L180.47 122.393 180.47 120.393 178.47 120.393 178.47 122.393zM176.47 124.393L182.47 124.393 182.47 118.393 176.47 118.393 176.47 124.393zM186.47 122.393L192.47 122.393 192.47 120.393 186.47 120.393 186.47 122.393zM184.47 124.393L194.47 124.393 194.47 118.393 184.47 118.393 184.47 124.393zM114.48 130.393L120.48 130.393 120.48 128.393 114.48 128.393 114.48 130.393zM112.48 132.393L122.48 132.393 122.48 126.393 112.48 126.393 112.48 132.393zM126.48 130.393L128.48 130.393 128.48 128.393 126.48 128.393 126.48 130.393zM124.48 132.393L130.48 132.393 130.48 126.393 124.48 126.393 124.48 132.393zM134.47 130.393L136.47 130.393 136.47 128.393 134.47 128.393 134.47 130.393zM132.47 132.393L138.47 132.393 138.47 126.393 132.47 126.393 132.47 132.393zM142.47 130.393L144.47 130.393 144.47 128.393 142.47 128.393 142.47 130.393zM140.47 132.393L146.47 132.393 146.47 126.393 140.47 126.393 140.47 132.393zM150.47 130.393L152.47 130.393 152.47 128.393 150.47 128.393 150.47 130.393zM148.47 132.393L154.47 132.393 154.47 126.393 148.47 126.393 148.47 132.393zM158.47 130.393L160.47 130.393 160.47 128.393 158.47 128.393 158.47 130.393zM156.47 132.393L162.47 132.393 162.47 126.393 156.47 126.393 156.47 132.393zM166.47 130.393L168.47 130.393 168.47 128.393 166.47 128.393 166.47 130.393zM164.47 132.393L170.47 132.393 170.47 126.393 164.47 126.393 164.47 132.393zM174.47 130.393L176.47 130.393 176.47 128.393 174.47 128.393 174.47 130.393zM172.47 132.393L178.47 132.393 178.47 126.393 172.47 126.393 172.47 132.393zM182.47 130.393L184.47 130.393 184.47 128.393 182.47 128.393 182.47 130.393zM180.47 132.393L186.47 132.393 186.47 126.393 180.47 126.393 180.47 132.393zM190.47 130.393L192.47 130.393 192.47 128.393 190.47 128.393 190.47 130.393zM188.47 132.393L194.47 132.393 194.47 126.393 188.47 126.393 188.47 132.393zM114.48 138.393L116.48 138.393 116.48 136.393 114.48 136.393 114.48 138.393zM112.48 140.393L118.48 140.393 118.48 134.393 112.48 134.393 112.48 140.393zM122.48 138.393L124.48 138.393 124.48 136.393 122.48 136.393 122.48 138.393zM120.48 140.393L126.48 140.393 126.48 134.393 120.48 134.393 120.48 140.393zM130.47 138.393L168.47 138.393 168.47 136.393 130.47 136.393 130.47 138.393zM128.47 140.393L170.47 140.393 170.47 134.393 128.47 134.393 128.47 140.393zM174.47 138.393L176.47 138.393 176.47 136.393 174.47 136.393 174.47 138.393zM172.47 140.393L178.47 140.393 178.47 134.393 172.47 134.393 172.47 140.393zM182.47 138.393L184.47 138.393 184.47 136.393 182.47 136.393 182.47 138.393zM180.47 140.393L186.47 140.393 186.47 134.393 180.47 134.393 180.47 140.393zM190.47 138.393L192.47 138.393 192.47 136.393 190.47 136.393 190.47 138.393zM188.47 140.393L194.47 140.393 194.47 134.393 188.47 134.393 188.47 140.393z"/>
    <path fill="#42494E" d="M198.463 165.519L108.463 165.519C106.809 165.519 105.463 164.173 105.463 162.519L105.463 104.517 107.463 104.517 107.463 162.519C107.463 163.07 107.912 163.519 108.463 163.519L198.463 163.519C199.014 163.519 199.463 163.07 199.463 162.519L199.463 104.517 201.463 104.517 201.463 162.519C201.463 164.173 200.117 165.519 198.463 165.519M112.464 97.517L193.463 97.517 193.463 51.516 112.464 51.516 112.464 97.517zM110.464 99.517L195.463 99.517 195.463 49.516 110.464 49.516 110.464 99.517z"/>
    <polygon fill="#DBDBD5" points="139.464 156.517 167.462 156.517 167.462 146.518 139.464 146.518"/>
    <path fill="#42494E" d="M45.411,124.456 L85.408,124.456 L85.408,73.457 L45.411,73.457 L45.411,124.456 Z M43.411,126.456 L87.408,126.456 L87.408,71.457 L43.411,71.457 L43.411,126.456 Z"/>
    <polyline fill="#42494E" points="87.408 130.456 43.411 130.456 43.411 124.456 45.411 124.456 45.411 128.456 85.408 128.456 85.408 124.456 87.408 124.456 87.408 130.456"/>
    <path fill="#42494E" d="M76.426 77.457L75.426 77.457 75.426 75.457 76.426 75.457C78.08 75.457 79.426 74.111 79.426 72.457 79.426 70.803 78.08 69.457 76.426 69.457 74.772 69.457 73.426 70.803 73.426 72.457L73.426 73.457 71.426 73.457 71.426 72.457C71.426 69.7 73.669 67.457 76.426 67.457 79.183 67.457 81.426 69.7 81.426 72.457 81.426 75.214 79.183 77.457 76.426 77.457M65.419 77.457L64.419 77.457 64.419 75.457 65.419 75.457C67.074 75.457 68.419 74.111 68.419 72.457 68.419 70.803 67.074 69.457 65.419 69.457 63.765 69.457 62.419 70.803 62.419 72.457L62.419 73.457 60.419 73.457 60.419 72.457C60.419 69.7 62.662 67.457 65.419 67.457 68.176 67.457 70.419 69.7 70.419 72.457 70.419 75.214 68.176 77.457 65.419 77.457M54.413 77.457L53.413 77.457 53.413 75.457 54.413 75.457C56.067 75.457 57.413 74.111 57.413 72.457 57.413 70.803 56.067 69.457 54.413 69.457 52.758 69.457 51.413 70.803 51.413 72.457L51.413 73.457 49.413 73.457 49.413 72.457C49.413 69.7 51.656 67.457 54.413 67.457 57.17 67.457 59.413 69.7 59.413 72.457 59.413 75.214 57.17 77.457 54.413 77.457M49.413 93.458C49.273 93.458 49.154 93.429 49.023 93.378 48.904 93.329 48.793 93.258 48.703 93.159 48.513 92.979 48.413 92.718 48.413 92.458 48.413 92.189 48.513 91.938 48.703 91.749 48.793 91.659 48.904 91.588 49.023 91.528 49.393 91.378 49.833 91.468 50.114 91.749 50.303 91.938 50.413 92.189 50.413 92.458 50.413 92.718 50.303 92.979 50.114 93.159 49.933 93.349 49.674 93.458 49.413 93.458M49.413 97.458C49.283 97.458 49.154 97.429 49.023 97.378 48.904 97.329 48.793 97.258 48.703 97.169 48.513 96.979 48.413 96.718 48.413 96.458 48.413 96.188 48.513 95.939 48.703 95.748 48.793 95.659 48.904 95.588 49.023 95.539 49.393 95.378 49.833 95.468 50.114 95.748 50.163 95.798 50.203 95.849 50.243 95.898 50.273 95.958 50.303 96.019 50.333 96.079 50.353 96.139 50.373 96.199 50.393 96.258 50.404 96.329 50.413 96.389 50.413 96.458 50.413 96.519 50.404 96.588 50.393 96.648 50.373 96.718 50.353 96.778 50.333 96.838 50.303 96.898 50.273 96.958 50.243 97.008 50.203 97.068 50.163 97.119 50.114 97.169 49.933 97.349 49.674 97.458 49.413 97.458M49.413 101.458C49.343 101.458 49.273 101.449 49.214 101.438 49.154 101.429 49.083 101.409 49.023 101.378 48.964 101.358 48.904 101.329 48.853 101.289 48.803 101.249 48.743 101.208 48.703 101.168 48.513 100.979 48.413 100.718 48.413 100.458 48.413 100.329 48.433 100.199 48.483 100.079 48.533 99.949 48.614 99.838 48.703 99.748 48.983 99.468 49.424 99.378 49.793 99.528 49.913 99.588 50.023 99.659 50.114 99.748 50.214 99.838 50.283 99.949 50.333 100.079 50.383 100.199 50.413 100.329 50.413 100.458 50.413 100.718 50.303 100.979 50.114 101.168 50.023 101.258 49.913 101.329 49.793 101.378 49.674 101.429 49.543 101.458 49.413 101.458M49.413 105.458C49.154 105.458 48.893 105.349 48.703 105.168 48.614 105.068 48.533 104.958 48.483 104.838 48.433 104.718 48.413 104.588 48.413 104.458 48.413 104.389 48.413 104.329 48.424 104.258 48.444 104.199 48.464 104.139 48.483 104.079 48.513 104.019 48.543 103.958 48.574 103.898 48.614 103.849 48.654 103.798 48.703 103.749 48.793 103.659 48.904 103.588 49.023 103.539 49.214 103.458 49.413 103.438 49.603 103.479 49.674 103.488 49.733 103.508 49.793 103.539 49.853 103.559 49.913 103.588 49.964 103.628 50.023 103.659 50.074 103.708 50.114 103.749 50.163 103.798 50.203 103.849 50.243 103.898 50.273 103.958 50.303 104.019 50.333 104.079 50.353 104.139 50.373 104.199 50.393 104.258 50.404 104.329 50.413 104.389 50.413 104.458 50.413 104.588 50.383 104.718 50.333 104.838 50.283 104.958 50.214 105.068 50.114 105.168 50.074 105.208 50.023 105.249 49.964 105.289 49.913 105.329 49.853 105.358 49.793 105.378 49.733 105.409 49.674 105.429 49.603 105.438 49.543 105.449 49.473 105.458 49.413 105.458M49.413 109.458C49.154 109.458 48.893 109.349 48.703 109.168 48.614 109.068 48.533 108.958 48.483 108.838 48.433 108.718 48.413 108.588 48.413 108.458 48.413 108.389 48.413 108.329 48.433 108.258 48.444 108.199 48.464 108.139 48.483 108.079 48.513 108.019 48.543 107.958 48.574 107.898 48.614 107.849 48.654 107.798 48.703 107.749 48.793 107.659 48.904 107.588 49.023 107.528 49.393 107.378 49.833 107.468 50.114 107.749 50.163 107.798 50.203 107.849 50.243 107.898 50.273 107.958 50.303 108.019 50.333 108.079 50.353 108.139 50.373 108.199 50.393 108.258 50.404 108.329 50.413 108.389 50.413 108.458 50.413 108.588 50.383 108.718 50.333 108.838 50.283 108.958 50.214 109.068 50.114 109.168 49.924 109.349 49.674 109.458 49.413 109.458M49.413 113.458C49.273 113.458 49.154 113.429 49.023 113.378 48.904 113.329 48.793 113.258 48.703 113.168 48.513 112.979 48.413 112.718 48.413 112.458 48.413 112.329 48.433 112.199 48.483 112.079 48.533 111.949 48.614 111.838 48.703 111.749 48.793 111.659 48.904 111.588 49.023 111.539 49.273 111.438 49.543 111.429 49.793 111.539 49.913 111.588 50.023 111.659 50.114 111.749 50.214 111.838 50.283 111.949 50.333 112.079 50.383 112.199 50.413 112.329 50.413 112.458 50.413 112.718 50.303 112.979 50.114 113.168 50.023 113.258 49.913 113.329 49.793 113.378 49.674 113.429 49.543 113.458 49.413 113.458"/>
    <polygon fill="#42494E" points="53.409 93.457 81.409 93.457 81.409 91.457 53.409 91.457"/>
    <polygon fill="#42494E" points="53.409 97.457 81.409 97.457 81.409 95.457 53.409 95.457"/>
    <polygon fill="#42494E" points="53.409 101.457 81.409 101.457 81.409 99.457 53.409 99.457"/>
    <polygon fill="#42494E" points="53.409 105.457 81.409 105.457 81.409 103.457 53.409 103.457"/>
    <polygon fill="#42494E" points="53.409 109.457 81.409 109.457 81.409 107.457 53.409 107.457"/>
    <polygon fill="#42494E" points="53.409 113.457 81.409 113.457 81.409 111.457 53.409 111.457"/>
    <path fill="#42494E" d="M190.537,176.569 C180.612,176.569 172.537,184.645 172.537,194.569 C172.537,204.494 180.612,212.569 190.537,212.569 C200.462,212.569 208.537,204.494 208.537,194.569 C208.537,184.645 200.462,176.569 190.537,176.569 Z M190.537,214.569 C179.509,214.569 170.537,205.598 170.537,194.569 C170.537,183.541 179.509,174.569 190.537,174.569 C201.565,174.569 210.537,183.541 210.537,194.569 C210.537,205.598 201.565,214.569 190.537,214.569 Z"/>
    <path fill="#E9886C" d="M201.526,194.709 C201.602,188.645 196.73,183.649 190.666,183.573 L190.691,181.573 C197.858,181.663 203.616,187.567 203.526,194.734 L201.526,194.709 Z M206.357,192.191 C205.043,183.453 196.896,177.436 188.158,178.749 C179.421,180.063 173.403,188.211 174.717,196.948 C176.031,205.685 184.178,211.703 192.915,210.389 C201.653,209.076 207.67,200.928 206.357,192.191 Z"/>
    <path fill="#42494E" d="M190.537,220.569 C176.2,220.569 164.537,208.906 164.537,194.569 C164.537,180.232 176.2,168.569 190.537,168.569 C196.832,168.569 202.906,170.849 207.64,174.986 L206.324,176.492 C201.954,172.673 196.347,170.569 190.537,170.569 C177.303,170.569 166.537,181.336 166.537,194.569 C166.537,207.803 177.303,218.569 190.537,218.569 C203.77,218.569 214.537,207.803 214.537,194.569 C214.537,189.174 212.789,184.079 209.482,179.834 L211.06,178.605 C214.643,183.204 216.537,188.725 216.537,194.569 C216.537,208.906 204.873,220.569 190.537,220.569"/>
    <path fill="#42494E" d="M206.072 184.276L204.657 182.862 213.143 174.377C213.332 174.188 213.436 173.937 213.436 173.67 213.436 173.402 213.332 173.152 213.143 172.964 212.764 172.583 212.106 172.584 211.729 172.963L203.243 181.448 201.829 180.034 210.315 171.549C211.448 170.416 213.424 170.416 214.557 171.549 215.123 172.114 215.436 172.868 215.436 173.67 215.436 174.471 215.124 175.225 214.557 175.791L206.072 184.276M175.463 105.517L185.463 105.517 185.463 103.517 199.463 103.517 199.463 46.516C199.463 45.964 199.014 45.516 198.463 45.516L108.463 45.516C107.912 45.516 107.463 45.964 107.463 46.516L107.463 103.517 121.463 103.517 121.463 105.517 131.463 105.517 131.463 103.517 175.463 103.517 175.463 105.517zM187.463 107.517L173.463 107.517 173.463 105.517 133.463 105.517 133.463 107.517 119.463 107.517 119.463 105.517 105.463 105.517 105.463 46.516C105.463 44.861 106.809 43.516 108.463 43.516L198.463 43.516C200.117 43.516 201.463 44.861 201.463 46.516L201.463 105.517 187.463 105.517 187.463 107.517zM35.463 218.516L99.463 218.516 99.463 149.93 88.049 138.516 35.463 138.516 35.463 218.516zM101.463 220.516L33.463 220.516 33.463 136.516 88.877 136.516 101.463 149.102 101.463 220.516z"/>
    <polyline fill="#42494E" points="100.463 150.515 87.463 150.515 87.463 137.516 89.463 137.516 89.463 148.515 100.463 148.515 100.463 150.515"/>
    <polygon fill="#434A4F" points="40.463 152.516 58.463 152.516 58.463 150.516 40.463 150.516"/>
    <polygon fill="#434A4F" points="40.463 156.516 58.463 156.516 58.463 154.516 40.463 154.516"/>
    <polygon fill="#434A4F" points="46.463 172.516 94.463 172.516 94.463 170.516 46.463 170.516"/>
    <polygon fill="#434A4F" points="40.463 176.516 94.463 176.516 94.463 174.516 40.463 174.516"/>
    <polygon fill="#434A4F" points="40.463 180.516 94.463 180.516 94.463 178.516 40.463 178.516"/>
    <polygon fill="#434A4F" points="40.463 184.516 82.463 184.516 82.463 182.516 40.463 182.516"/>
    <polygon fill="#434A4F" points="65.382 202.516 94.464 202.516 94.464 200.516 65.382 200.516"/>
    <polygon fill="#434A4F" points="65.465 206.432 86.463 206.432 86.463 204.432 65.465 204.432"/>
    <polygon fill="#E9886C" points="65.466 198.516 74.465 198.516 74.465 196.516 65.466 196.516"/>
    <path fill="#42494E" d="M93.367,117.574 L96.367,124.08 L99.367,117.573 L99.367,82.42 C99.367,80.766 98.021,79.42 96.367,79.42 C94.713,79.42 93.367,80.766 93.367,82.42 L93.367,117.574 Z M96.367,128.856 L91.367,118.012 L91.367,82.42 C91.367,79.664 93.61,77.42 96.367,77.42 C99.124,77.42 101.367,79.664 101.367,82.42 L101.367,118.012 L96.367,128.856 Z"/>
    <polygon fill="#42494E" points="92.367 90.03 99.965 90.03 99.965 88.03 92.367 88.03"/>
    <polygon fill="#42494E" points="95.396 117.024 97.396 117.024 97.396 89.03 95.396 89.03"/>
    <path fill="#E9886C" d="M184.474,31.431 C171.792,31.431 161.474,41.749 161.474,54.431 C161.474,67.113 171.792,77.431 184.474,77.431 C197.156,77.431 207.474,67.113 207.474,54.431 C207.474,41.749 197.156,31.431 184.474,31.431 Z M184.474,79.431 C170.689,79.431 159.474,68.216 159.474,54.431 C159.474,40.646 170.689,29.431 184.474,29.431 C198.259,29.431 209.474,40.646 209.474,54.431 C209.474,68.216 198.259,79.431 184.474,79.431 Z"/>
    <path fill="#434A4F" d="M192.538,40.774 C192.368,40.774 192.197,40.731 192.039,40.641 C191.561,40.364 191.397,39.753 191.673,39.274 L193.45,36.195 C193.726,35.717 194.335,35.552 194.816,35.829 C195.294,36.105 195.458,36.717 195.182,37.195 L193.405,40.274 C193.219,40.595 192.884,40.774 192.538,40.774"/>
    <polyline fill="#434A4F" points="185.427 66.563 183.427 66.563 183.427 53.542 191.315 53.542 191.315 55.542 185.427 55.542 185.427 66.563"/>
    <path fill="#434A4F" d="M184.471 38.542C183.919 38.542 183.471 38.094 183.471 37.542L183.471 33.986C183.471 33.434 183.919 32.986 184.471 32.986 185.023 32.986 185.471 33.434 185.471 33.986L185.471 37.542C185.471 38.094 185.023 38.542 184.471 38.542M184.472 75.875C183.92 75.875 183.472 75.427 183.472 74.875L183.472 71.319C183.472 70.767 183.92 70.319 184.472 70.319 185.025 70.319 185.472 70.767 185.472 71.319L185.472 74.875C185.472 75.427 185.025 75.875 184.472 75.875M168.027 55.431L164.471 55.431C163.919 55.431 163.471 54.983 163.471 54.431 163.471 53.878 163.919 53.431 164.471 53.431L168.027 53.431C168.579 53.431 169.027 53.878 169.027 54.431 169.027 54.983 168.579 55.431 168.027 55.431"/>
    <path fill="#434A4F" d="M184.471 38.542C183.919 38.542 183.471 38.094 183.471 37.542L183.471 33.986C183.471 33.434 183.919 32.986 184.471 32.986 185.023 32.986 185.471 33.434 185.471 33.986L185.471 37.542C185.471 38.094 185.023 38.542 184.471 38.542M184.472 75.875C183.92 75.875 183.472 75.427 183.472 74.875L183.472 71.319C183.472 70.767 183.92 70.319 184.472 70.319 185.025 70.319 185.472 70.767 185.472 71.319L185.472 74.875C185.472 75.427 185.025 75.875 184.472 75.875M168.027 55.431L164.471 55.431C163.919 55.431 163.471 54.983 163.471 54.431 163.471 53.878 163.919 53.431 164.471 53.431L168.027 53.431C168.579 53.431 169.027 53.878 169.027 54.431 169.027 54.983 168.579 55.431 168.027 55.431M174.308 72.915C174.139 72.915 173.967 72.872 173.809 72.781 173.331 72.504 173.167 71.893 173.443 71.415L175.221 68.335C175.497 67.857 176.108 67.692 176.587 67.969 177.066 68.246 177.229 68.857 176.953 69.335L175.176 72.415C174.99 72.735 174.654 72.915 174.308 72.915M166.879 65.239C166.533 65.239 166.197 65.06 166.011 64.739 165.736 64.261 165.899 63.649 166.378 63.373L169.457 61.595C169.934 61.318 170.546 61.483 170.823 61.961 171.099 62.439 170.935 63.051 170.457 63.328L167.378 65.105C167.22 65.196 167.048 65.239 166.879 65.239M176.361 40.774C176.015 40.774 175.679 40.595 175.494 40.274L173.716 37.195C173.44 36.717 173.604 36.105 174.082 35.829 174.56 35.552 175.171 35.717 175.448 36.195L177.226 39.274C177.502 39.752 177.339 40.364 176.86 40.641 176.703 40.731 176.531 40.774 176.361 40.774"/>
    <path fill="#42494E" d="M159.319,200.97 L157.417,200.351 L157.971,198.651 L155.915,197.981 C153.982,197.351 152.734,195.63 152.736,193.597 C152.738,191.563 153.989,189.845 155.924,189.219 L157.981,188.552 L156.819,184.965 L154.761,185.631 C152.826,186.257 150.805,185.598 149.612,183.952 C148.419,182.306 148.421,180.181 149.617,178.536 L150.891,176.788 L147.842,174.568 L146.569,176.317 C145.373,177.961 143.353,178.617 141.418,177.985 C139.484,177.355 138.236,175.635 138.238,173.601 L138.24,171.438 L134.469,171.435 L134.467,173.598 C134.465,175.631 133.214,177.35 131.28,177.976 C129.345,178.601 127.323,177.943 126.13,176.297 L124.861,174.546 L121.807,176.76 L123.077,178.511 C124.271,180.156 124.269,182.282 123.072,183.926 C121.875,185.569 119.852,186.224 117.92,185.595 L115.864,184.925 L115.31,186.623 L113.408,186.002 L114.582,182.403 L118.539,183.692 C119.868,184.125 120.916,183.488 121.455,182.749 C121.994,182.009 122.278,180.814 121.458,179.685 L119.014,176.314 L125.306,171.753 L127.749,175.123 C128.569,176.254 129.793,176.355 130.663,176.073 C131.534,175.791 132.466,174.992 132.467,173.596 L132.471,169.433 L140.242,169.44 L140.238,173.603 C140.237,174.999 141.167,175.801 142.037,176.084 C142.909,176.367 144.13,176.27 144.952,175.14 L147.403,171.775 L153.685,176.349 L151.235,179.714 C150.412,180.843 150.694,182.037 151.231,182.778 C151.769,183.52 152.818,184.156 154.145,183.729 L158.105,182.445 L160.5,189.839 L156.54,191.121 C155.211,191.552 154.737,192.683 154.736,193.599 C154.735,194.514 155.207,195.646 156.535,196.079 L160.492,197.37 L159.319,200.97"/>
    <path fill="#E9886C" d="M146.885,197.021 L144.984,196.401 C145.737,194.09 145.546,191.624 144.444,189.457 C143.343,187.291 141.464,185.683 139.153,184.93 C134.385,183.371 129.236,185.989 127.681,190.76 L125.78,190.141 C127.677,184.321 133.956,181.132 139.773,183.027 C142.592,183.946 144.884,185.908 146.227,188.552 C147.571,191.194 147.804,194.202 146.885,197.021"/>
    <path fill="#E9886C" d="M136.375,204.592 C135.218,204.592 134.054,204.409 132.922,204.04 C130.104,203.121 127.812,201.159 126.468,198.516 C125.125,195.873 124.891,192.865 125.811,190.046 L127.712,190.667 C126.959,192.978 127.15,195.443 128.251,197.61 C129.352,199.776 131.231,201.385 133.542,202.138 C135.852,202.894 138.319,202.7 140.486,201.6 C142.652,200.498 144.26,198.619 145.014,196.309 L146.915,196.928 C145.996,199.747 144.034,202.039 141.391,203.383 C139.811,204.186 138.099,204.592 136.375,204.592"/>
    <path fill="#42494E" d="M140.223,217.636 L132.452,217.628 L132.457,213.465 C132.458,212.068 131.529,211.268 130.658,210.983 C129.787,210.7 128.564,210.8 127.742,211.928 L125.292,215.292 L119.01,210.719 L121.46,207.353 C122.282,206.224 122.001,205.029 121.464,204.288 C120.927,203.547 119.88,202.911 118.55,203.338 L114.589,204.621 L112.196,197.228 L116.156,195.945 C117.485,195.515 117.959,194.384 117.96,193.468 C117.961,192.552 117.489,191.42 116.161,190.987 L112.204,189.696 L113.536,185.612 L115.437,186.231 L114.725,188.415 L116.781,189.085 C118.715,189.716 119.962,191.437 119.96,193.47 C119.958,195.503 118.707,197.222 116.772,197.848 L114.715,198.515 L115.876,202.102 L117.934,201.436 C119.868,200.807 121.889,201.467 123.083,203.114 C124.276,204.761 124.274,206.887 123.077,208.53 L121.804,210.279 L124.852,212.499 L126.125,210.75 C127.322,209.106 129.343,208.451 131.278,209.082 C133.211,209.713 134.459,211.434 134.457,213.467 L134.454,215.63 L138.225,215.634 L138.227,213.471 C138.23,211.438 139.481,209.719 141.415,209.093 C143.35,208.466 145.37,209.125 146.564,210.771 L147.834,212.523 L150.887,210.31 L149.617,208.559 C148.424,206.912 148.427,204.787 149.623,203.144 C150.819,201.5 152.842,200.843 154.776,201.475 L156.832,202.146 L157.608,199.765 L159.51,200.384 L158.113,204.667 L154.156,203.377 C152.827,202.941 151.779,203.58 151.24,204.32 C150.701,205.061 150.417,206.254 151.237,207.385 L153.68,210.755 L147.388,215.316 L144.945,211.945 C144.125,210.814 142.903,210.711 142.031,210.996 C141.16,211.277 140.229,212.076 140.227,213.473 L140.223,217.636"/>
    <path fill="#FACD60" d="M141.678,193.669 C141.678,196.653 139.259,199.073 136.275,199.073 C133.29,199.073 130.871,196.653 130.871,193.669 C130.871,190.685 133.29,188.266 136.275,188.266 C139.259,188.266 141.678,190.685 141.678,193.669"/>
    <path fill="#FACD60" d="M136.275,188.766 C133.571,188.766 131.371,190.965 131.371,193.669 C131.371,196.373 133.571,198.572 136.275,198.572 C138.978,198.572 141.178,196.373 141.178,193.669 C141.178,190.965 138.978,188.766 136.275,188.766 Z M136.275,199.572 C133.02,199.572 130.371,196.924 130.371,193.669 C130.371,190.414 133.02,187.766 136.275,187.766 C139.53,187.766 142.178,190.414 142.178,193.669 C142.178,196.924 139.53,199.572 136.275,199.572 Z"/>
  </g>
</svg>
