<svg xmlns="http://www.w3.org/2000/svg" width="250" height="250" viewBox="0 0 250 250">
  <g fill="none" fill-rule="evenodd">
    <path fill="#75C7D0" d="M96.818,57.395 L94.457,61.642 C93.168,63.963 92.556,66.598 92.693,69.249 L94.485,105.99 L117.595,105.99 L117.591,105.989 L116.697,80.783 C116.416,73.183 113.936,65.828 109.558,59.611 L107.808,57.258 L107.807,57.24 L96.837,57.24 L96.818,57.395"/>
    <polyline fill="#DBDBD5" points="114.486 112.99 111.611 120.365 129.11 128.24 129.236 159.49 130.402 159.824 130.361 164.99 151.236 164.99 151.076 160.99 141.486 158.99 141.486 119.365 114.486 112.99"/>
    <polyline fill="#434A4F" points="30.486 219 28.486 219 28.486 200 76.486 200 76.486 182 124.486 182 124.486 164 172.514 164 172.514 145.989 221.514 145.989 221.514 147.989 174.514 147.989 174.514 165.684 173.695 165.99 173.486 166 126.486 166 126.486 184 78.486 184 78.486 202 30.486 202 30.486 219"/>
    <path fill="#434A4F" d="M97.68,181.991 L116.486,181.991 L116.486,179.776 L106.952,177.442 L106.952,172.425 L108.646,147.682 L110.155,121.16 L113.586,112.263 L115.452,112.984 L112.94,119.495 L130.267,127.482 L130.413,158.242 L131.27,158.242 L131.27,163.991 L150.075,163.991 L150.075,161.803 L140.486,159.803 L140.486,119.104 L116.613,106.605 L115.698,80.818 C115.424,73.396 113.018,66.261 108.74,60.187 L106.829,57.617 L106.495,52.382 L113.557,52.038 L113.557,40.519 C113.557,38.69 112.892,36.926 111.684,35.553 C110.257,33.93 108.199,32.999 106.037,32.999 L104.302,32.999 C99.809,32.999 96.154,36.655 96.154,41.148 C96.154,43.316 97.04,45.432 98.585,46.954 L98.901,47.265 L98.818,49.232 L97.787,57.71 L95.331,62.128 C94.132,64.287 93.565,66.732 93.692,69.198 L95.492,106.099 L94.486,109.79 L94.486,118.685 L96.819,123.424 L96.819,176.242 L97.68,176.242 L97.68,181.991 Z M118.486,183.991 L95.68,183.991 L95.68,178.242 L94.819,178.242 L94.819,123.889 L92.486,119.15 L92.521,109.393 L93.479,105.88 L91.694,69.298 C91.548,66.46 92.201,63.643 93.583,61.157 L95.849,57.08 L96.826,49.069 L96.867,48.055 C95.137,46.189 94.154,43.698 94.154,41.148 C94.154,35.552 98.706,30.999 104.302,30.999 L106.037,30.999 C108.774,30.999 111.38,32.178 113.186,34.233 C114.715,35.971 115.557,38.204 115.557,40.519 L115.557,53.942 L108.62,54.281 L108.787,56.898 L110.361,59.014 C114.876,65.427 117.408,72.934 117.697,80.746 L118.571,105.373 L142.486,117.893 L142.486,158.178 L152.075,160.178 L152.075,165.991 L129.27,165.991 L129.27,160.242 L128.423,160.242 L128.273,128.765 L112.219,121.365 L112.133,121.587 L110.642,147.807 L108.95,172.494 L108.952,175.872 L118.486,178.206 L118.486,183.991 Z"/>
    <path fill="#42494E" d="M99.994,120.196 C98.826,120.196 97.713,119.744 96.865,118.917 C96.005,118.079 95.522,116.954 95.507,115.751 L95.485,113.946 C95.485,111.646 95.837,109.359 96.531,107.135 L98.44,107.731 C97.806,109.761 97.485,111.848 97.485,113.934 L97.507,115.727 C97.515,116.394 97.783,117.019 98.262,117.486 C98.74,117.953 99.373,118.201 100.04,118.196 L104.054,118.196 L104.054,115.931 L106.054,115.931 L106.054,116.169 C106.054,116.75 106.467,117.236 107.014,117.348 L107.014,113.27 C107.014,112.043 106.604,110.833 105.858,109.859 L104.303,107.421 L103.483,89.055 L104.897,72.188 L106.89,72.356 L105.487,89.094 L106.278,106.798 L107.496,108.713 C108.457,109.963 109.014,111.607 109.014,113.27 L109.014,119.373 L107.257,119.373 C106.832,119.373 106.426,119.29 106.054,119.138 L106.054,120.196 L100.053,120.196 C100.033,120.196 100.013,120.196 99.994,120.196"/>
    <polyline fill="#42494E" points="102.485 107.991 96.727 107.991 94.016 105.186 95.455 103.795 97.576 105.991 102.485 105.991 102.485 107.991"/>
    <polyline fill="#434A4F" points="110.532 107.323 110.439 105.325 117.545 104.99 117.638 106.988 110.532 107.323"/>
    <polygon fill="#434A4F" points="96.68 178.242 103.359 178.242 103.359 176.242 96.68 176.242"/>
    <polygon fill="#434A4F" points="129.486 160.116 135.861 160.116 135.861 158.116 129.486 158.116"/>
    <path fill="#42494E" d="M184.243,184.015 C179.281,184.015 175.243,188.052 175.243,193.015 C175.243,197.978 179.281,202.015 184.243,202.015 C189.206,202.015 193.243,197.978 193.243,193.015 C193.243,188.052 189.206,184.015 184.243,184.015 Z M184.243,204.015 C178.178,204.015 173.243,199.081 173.243,193.015 C173.243,186.95 178.178,182.015 184.243,182.015 C190.309,182.015 195.243,186.95 195.243,193.015 C195.243,199.081 190.309,204.015 184.243,204.015 Z M184.243,178.015 C175.972,178.015 169.243,184.744 169.243,193.015 C169.243,201.287 175.972,208.015 184.243,208.015 C192.514,208.015 199.243,201.287 199.243,193.015 C199.243,184.744 192.514,178.015 184.243,178.015 Z M184.243,210.015 C174.869,210.015 167.243,202.389 167.243,193.015 C167.243,183.641 174.869,176.015 184.243,176.015 C193.617,176.015 201.243,183.641 201.243,193.015 C201.243,202.389 193.617,210.015 184.243,210.015 Z"/>
    <path fill="#42494E" d="M184.243,190.015 C182.589,190.015 181.243,191.361 181.243,193.015 C181.243,194.669 182.589,196.015 184.243,196.015 C185.898,196.015 187.243,194.669 187.243,193.015 C187.243,191.361 185.898,190.015 184.243,190.015 Z M184.243,198.015 C181.487,198.015 179.243,195.772 179.243,193.015 C179.243,190.258 181.487,188.015 184.243,188.015 C187,188.015 189.243,190.258 189.243,193.015 C189.243,195.772 187,198.015 184.243,198.015 Z"/>
    <path fill="#E9886C" d="M184.243,189.015 C182.034,189.015 180.243,190.806 180.243,193.015 C180.243,195.224 182.034,197.015 184.243,197.015 C186.452,197.015 188.243,195.224 188.243,193.015 C188.243,190.806 186.452,189.015 184.243,189.015"/>
    <path fill="#E9886C" d="M184.243,190.015 C182.589,190.015 181.243,191.361 181.243,193.015 C181.243,194.669 182.589,196.015 184.243,196.015 C185.898,196.015 187.243,194.669 187.243,193.015 C187.243,191.361 185.898,190.015 184.243,190.015 Z M184.243,198.015 C181.487,198.015 179.243,195.772 179.243,193.015 C179.243,190.258 181.487,188.015 184.243,188.015 C187,188.015 189.243,190.258 189.243,193.015 C189.243,195.772 187,198.015 184.243,198.015 Z"/>
    <polygon fill="#42494E" points="157.245 194.015 184.243 194.015 184.243 192.015 157.245 192.015"/>
    <path fill="#42494E" d="M150.658,196.015 L153.83,196.015 L156.83,193.015 L153.83,190.015 L150.658,190.015 L153.658,193.015 L150.658,196.015 Z M154.658,198.015 L145.83,198.015 L150.83,193.015 L145.83,188.015 L154.658,188.015 L159.658,193.015 L154.658,198.015 Z"/>
    <path fill="#434A4F" d="M142.957,98.864 L145.411,99.661 L145.878,98.224 C146.404,96.602 147.846,95.554 149.551,95.554 C149.552,95.554 149.552,95.554 149.552,95.554 C151.257,95.554 152.698,96.601 153.225,98.221 L153.693,99.658 L156.146,98.86 L155.679,97.423 C155.152,95.802 155.702,94.107 157.081,93.105 C158.46,92.102 160.242,92.102 161.622,93.102 L162.844,93.99 L164.36,91.902 L163.138,91.015 C161.759,90.013 161.207,88.319 161.733,86.697 C162.26,85.075 163.701,84.027 165.406,84.026 L166.916,84.026 L166.916,81.445 L165.406,81.446 C165.405,81.446 165.405,81.446 165.404,81.446 C163.699,81.446 162.258,80.399 161.731,78.778 C161.204,77.157 161.754,75.461 163.133,74.46 L164.354,73.571 L162.882,71.545 L161.66,72.433 C160.281,73.437 158.5,73.438 157.119,72.435 C155.74,71.434 155.188,69.739 155.715,68.118 L156.18,66.681 L153.726,65.884 L153.26,67.321 C152.734,68.943 151.292,69.991 149.587,69.992 C149.586,69.992 149.586,69.992 149.585,69.992 C147.881,69.992 146.44,68.945 145.912,67.325 L145.445,65.888 L142.991,66.686 L143.459,68.123 C143.986,69.744 143.436,71.439 142.058,72.441 C140.679,73.445 138.896,73.445 137.516,72.444 L136.294,71.556 L134.778,73.645 L136,74.532 C137.38,75.534 137.931,77.228 137.406,78.85 C136.879,80.471 135.438,81.519 133.733,81.52 L132.222,81.521 L132.223,84.102 L133.734,84.101 L133.735,84.101 C135.439,84.101 136.881,85.148 137.408,86.769 C137.936,88.39 137.385,90.085 136.007,91.087 L134.785,91.976 L136.257,93.999 L137.478,93.111 C138.857,92.107 140.639,92.109 142.018,93.109 C143.398,94.111 143.95,95.805 143.424,97.427 L142.957,98.864 Z M146.697,102.18 L140.438,100.149 L141.521,96.81 C141.829,95.861 141.373,95.112 140.844,94.727 C140.315,94.343 139.461,94.142 138.654,94.728 L135.815,96.793 L131.991,91.535 L134.83,89.47 C135.637,88.883 135.709,88.009 135.506,87.387 C135.304,86.765 134.732,86.101 133.735,86.101 L130.224,86.102 L130.221,79.521 L133.732,79.52 C134.73,79.52 135.301,78.855 135.503,78.233 C135.705,77.61 135.633,76.737 134.825,76.151 L131.985,74.088 L135.851,68.763 L138.691,70.825 C139.498,71.412 140.352,71.208 140.881,70.824 C141.41,70.439 141.865,69.69 141.557,68.742 L140.471,65.403 L146.728,63.367 L147.815,66.706 C148.123,67.654 148.931,67.992 149.585,67.992 C149.586,67.992 149.586,67.992 149.586,67.992 C150.24,67.992 151.05,67.653 151.358,66.704 L152.441,63.365 L158.7,65.396 L157.617,68.735 C157.309,69.684 157.765,70.432 158.294,70.817 C158.823,71.2 159.677,71.401 160.484,70.816 L163.323,68.752 L167.148,74.012 L164.309,76.077 C163.502,76.664 163.43,77.538 163.633,78.16 C163.835,78.782 164.406,79.446 165.404,79.446 L165.405,79.446 L168.915,79.445 L168.917,86.026 L165.406,86.026 C164.409,86.026 163.838,86.692 163.635,87.314 C163.434,87.937 163.506,88.81 164.313,89.396 L167.153,91.458 L163.287,96.785 L160.447,94.72 C159.64,94.135 158.786,94.337 158.257,94.722 C157.728,95.107 157.272,95.856 157.581,96.804 L158.667,100.143 L152.409,102.179 L151.323,98.84 C151.015,97.892 150.206,97.554 149.552,97.554 C148.897,97.554 148.088,97.892 147.78,98.841 L146.697,102.18 Z"/>
    <path fill="#E9886C" d="M149.573,81.026 C149.48,81.026 149.387,81.034 149.294,81.048 C148.833,81.122 148.429,81.371 148.156,81.748 C147.591,82.528 147.765,83.622 148.545,84.187 C149.324,84.751 150.418,84.577 150.984,83.797 C151.257,83.419 151.367,82.958 151.294,82.498 C151.22,82.037 150.972,81.633 150.594,81.359 C150.292,81.14 149.938,81.026 149.573,81.026 Z M149.565,86.517 C148.803,86.517 148.034,86.287 147.372,85.806 C145.699,84.595 145.324,82.248 146.535,80.575 C147.122,79.764 147.99,79.231 148.978,79.074 C149.967,78.915 150.957,79.152 151.767,79.74 C152.578,80.327 153.111,81.194 153.269,82.182 C153.427,83.17 153.19,84.161 152.603,84.971 C151.871,85.981 150.725,86.517 149.565,86.517 Z"/>
    <path fill="#434A4F" d="M147.365,72.356 C147.295,71.805 147.695,71.305 148.245,71.246 C148.784,71.185 149.284,71.576 149.344,72.126 C149.415,72.675 149.015,73.175 148.465,73.236 C148.435,73.246 148.395,73.246 148.355,73.246 C147.855,73.246 147.415,72.866 147.365,72.356 Z M151.985,73.475 C151.455,73.335 151.135,72.795 151.275,72.255 C151.415,71.725 151.955,71.406 152.495,71.545 C153.025,71.685 153.344,72.225 153.205,72.765 C153.085,73.215 152.685,73.515 152.235,73.515 C152.155,73.515 152.074,73.505 151.985,73.475 Z M143.745,73.856 C143.495,73.366 143.685,72.765 144.165,72.505 C144.655,72.246 145.265,72.435 145.515,72.925 C145.775,73.415 145.585,74.015 145.094,74.276 C144.955,74.356 144.795,74.385 144.635,74.385 C144.275,74.385 143.925,74.196 143.745,73.856 Z M155.205,74.996 C155.195,74.996 155.185,74.986 155.175,74.986 C154.725,74.656 154.625,74.036 154.955,73.585 C155.275,73.135 155.895,73.036 156.335,73.356 C156.344,73.356 156.344,73.356 156.344,73.356 C156.365,73.366 156.375,73.376 156.385,73.385 C156.824,73.715 156.915,74.335 156.594,74.776 C156.405,75.045 156.094,75.185 155.784,75.185 C155.585,75.185 155.375,75.126 155.205,74.996 Z M140.925,76.566 C140.505,76.196 140.465,75.566 140.824,75.146 C141.185,74.736 141.824,74.685 142.235,75.055 C142.655,75.415 142.695,76.045 142.335,76.465 C142.135,76.685 141.855,76.805 141.574,76.805 C141.344,76.805 141.115,76.725 140.925,76.566 Z M157.625,77.555 C157.324,77.095 157.465,76.475 157.925,76.175 C158.385,75.876 159.005,76.005 159.304,76.465 C159.605,76.935 159.475,77.555 159.015,77.856 C158.844,77.965 158.655,78.015 158.475,78.015 C158.145,78.015 157.824,77.856 157.625,77.555 Z M139.265,80.095 C138.745,79.906 138.475,79.335 138.665,78.816 C138.855,78.295 139.425,78.026 139.945,78.215 C140.465,78.406 140.735,78.986 140.545,79.505 L140.545,79.496 C140.395,79.906 140.015,80.156 139.605,80.156 C139.485,80.156 139.375,80.135 139.265,80.095 Z M158.965,80.816 C158.855,80.276 159.205,79.746 159.745,79.635 C160.284,79.526 160.815,79.866 160.925,80.415 C161.034,80.956 160.685,81.486 160.145,81.595 C160.074,81.606 160.015,81.616 159.945,81.616 C159.485,81.616 159.065,81.286 158.965,80.816 Z M137.975,83.026 C137.965,82.475 138.395,82.015 138.955,82.005 C139.505,81.986 139.955,82.425 139.975,82.975 C139.985,83.526 139.545,83.986 138.995,84.005 C138.985,84.005 138.985,84.005 138.975,84.005 C138.425,84.005 137.985,83.566 137.975,83.026 Z M159.865,85.496 C159.315,85.406 158.945,84.885 159.034,84.345 C159.125,83.795 159.645,83.425 160.185,83.526 C160.735,83.606 161.105,84.126 161.015,84.675 C160.935,85.156 160.505,85.505 160.025,85.505 C159.975,85.505 159.915,85.505 159.865,85.496 Z M138.844,87.196 C138.635,86.675 138.875,86.095 139.395,85.885 C139.905,85.675 140.485,85.915 140.695,86.435 C140.905,86.946 140.665,87.526 140.155,87.736 C140.025,87.786 139.895,87.816 139.775,87.816 C139.375,87.816 139.005,87.576 138.844,87.196 Z M158.185,89.026 C157.705,88.746 157.554,88.135 157.835,87.656 C158.115,87.175 158.725,87.026 159.205,87.305 C159.675,87.585 159.835,88.196 159.554,88.675 C159.365,88.986 159.034,89.165 158.695,89.165 C158.515,89.165 158.344,89.116 158.185,89.026 Z M141.165,90.765 C140.784,90.366 140.795,89.736 141.195,89.356 C141.594,88.975 142.235,88.986 142.615,89.385 C142.995,89.786 142.975,90.425 142.574,90.805 C142.385,90.986 142.135,91.076 141.885,91.076 C141.625,91.076 141.365,90.975 141.165,90.765 Z M155.344,91.715 C155.005,91.286 155.074,90.656 155.515,90.316 C155.945,89.965 156.574,90.045 156.915,90.475 C157.255,90.915 157.185,91.536 156.745,91.885 C156.565,92.026 156.344,92.095 156.135,92.095 C155.835,92.095 155.545,91.965 155.344,91.715 Z M144.615,93.265 C144.115,93.026 143.905,92.425 144.145,91.925 C144.375,91.435 144.975,91.215 145.475,91.456 C145.975,91.685 146.185,92.286 145.955,92.786 C145.775,93.146 145.415,93.356 145.045,93.356 C144.905,93.356 144.755,93.326 144.615,93.265 Z M151.725,93.196 C151.565,92.665 151.865,92.106 152.385,91.946 C152.915,91.786 153.475,92.085 153.635,92.606 C153.795,93.135 153.505,93.696 152.975,93.856 C152.875,93.885 152.775,93.906 152.685,93.906 C152.255,93.906 151.855,93.626 151.725,93.196 Z M148.745,94.345 C148.745,94.345 148.745,94.345 148.745,94.335 C148.185,94.295 147.775,93.826 147.815,93.265 C147.855,92.725 148.335,92.305 148.885,92.345 C149.435,92.385 149.844,92.866 149.804,93.415 C149.775,93.935 149.335,94.345 148.815,94.345 C148.784,94.345 148.765,94.345 148.745,94.345 Z"/>
    <polygon fill="#434A4F" points="49.116 130.461 51.116 130.461 51.116 126.461 49.116 126.461"/>
    <polygon fill="#434A4F" points="49.116 140.461 51.116 140.461 51.116 136.461 49.116 136.461"/>
    <polygon fill="#434A4F" points="53.116 134.461 57.116 134.461 57.116 132.461 53.116 132.461"/>
    <polygon fill="#434A4F" points="43.116 134.461 47.116 134.461 47.116 132.461 43.116 132.461"/>
    <polygon fill="#434A4F" points="189.2 80.432 191.2 80.432 191.2 76.432 189.2 76.432"/>
    <polygon fill="#434A4F" points="189.2 90.432 191.2 90.432 191.2 86.432 189.2 86.432"/>
    <polygon fill="#434A4F" points="193.2 84.432 197.2 84.432 197.2 82.432 193.2 82.432"/>
    <polygon fill="#434A4F" points="183.2 84.432 187.2 84.432 187.2 82.432 183.2 82.432"/>
    <polygon fill="#434A4F" points="70.129 90.438 72.129 90.438 72.129 86.438 70.129 86.438"/>
    <polygon fill="#434A4F" points="70.129 100.438 72.129 100.438 72.129 96.438 70.129 96.438"/>
    <polygon fill="#434A4F" points="74.129 94.438 78.129 94.438 78.129 92.438 74.129 92.438"/>
    <polygon fill="#434A4F" points="64.129 94.438 68.129 94.438 68.129 92.438 64.129 92.438"/>
    <path fill="#E9886C" d="M72.152,160.324 C72.152,161.797 70.958,162.99 69.485,162.99 C68.013,162.99 66.819,161.797 66.819,160.324 C66.819,158.851 68.013,157.657 69.485,157.657 C70.958,157.657 72.152,158.851 72.152,160.324"/>
    <path fill="#E9886C" d="M69.486 158.657C68.567 158.657 67.819 159.405 67.819 160.324 67.819 161.243 68.567 161.991 69.486 161.991 70.404 161.991 71.152 161.243 71.152 160.324 71.152 159.405 70.404 158.657 69.486 158.657zM69.486 163.991C67.464 163.991 65.819 162.346 65.819 160.324 65.819 158.301 67.464 156.657 69.486 156.657 71.507 156.657 73.152 158.301 73.152 160.324 73.152 162.346 71.507 163.991 69.486 163.991zM189.498 103.651C189.498 104.571 188.751 105.317 187.831 105.317 186.91 105.317 186.164 104.571 186.164 103.651 186.164 102.73 186.91 101.984 187.831 101.984 188.751 101.984 189.498 102.73 189.498 103.651"/>
    <path fill="#75C7D0" d="M133.486,57.324 C133.486,58.612 132.441,59.657 131.152,59.657 C129.864,59.657 128.819,58.612 128.819,57.324 C128.819,56.035 129.864,54.99 131.152,54.99 C132.441,54.99 133.486,56.035 133.486,57.324"/>
  </g>
</svg>
