<svg xmlns="http://www.w3.org/2000/svg" width="250" height="250" viewBox="0 0 250 250">
  <g fill="none" fill-rule="evenodd">
    <path fill="#E9886C" d="M128.502,195.683 C128.502,195.683 127.003,170.003 126.254,167.005 C126.874,167.006 127.378,166.502 127.378,165.882 L127.378,163.071 L124.52,159.696 L121.757,163.071 L121.757,165.882 C121.757,166.502 122.26,167.006 122.881,167.005 C122.132,170.003 120.633,195.683 120.633,195.683"/>
    <path fill="#DDDED9" d="M115.922,151.27 L115.922,153.726 L124.427,158.504 L132.858,153.867 L132.934,149.371 L132.934,145.582 C133.256,145.264 133.586,144.924 133.882,144.58 C133.781,144.668 133.684,144.757 133.601,144.846 C132.419,146.117 130.627,147.45 129.413,148.487 C128.453,149.307 127.239,149.76 125.977,149.774 L122.327,149.774 C121.065,149.76 119.851,149.307 118.891,148.487 C117.733,147.498 116.047,146.237 114.868,145.02 C114.832,144.983 114.791,144.946 114.753,144.91 C115.107,145.286 115.511,145.668 115.942,146.048 C115.933,146.052 115.922,146.057 115.922,146.068 L115.922,151.27"/>
    <path fill="#434A4F" d="M115.922,154.655 C115.37,154.655 114.922,154.208 114.922,153.655 L114.922,146.067 C114.922,145.515 115.37,145.067 115.922,145.067 C116.474,145.067 116.922,145.515 116.922,146.067 L116.922,153.655 C116.922,154.208 116.474,154.655 115.922,154.655"/>
    <path fill="#434A4F" d="M132.877 154.516C132.325 154.516 131.877 154.068 131.877 153.516L131.877 145.151 132.176 144.858C132.544 144.494 133.524 143.529 133.767 142.883L137.328 135.611 141.146 133.702 141.979 129.568C141.968 129.368 141.887 129.182 141.745 129.036 141.588 128.874 141.377 128.785 141.152 128.785L139.184 128.785 139.388 127.613C139.691 125.875 139.844 124.315 139.844 122.977L139.845 122.211C139.859 120.081 139.392 117.933 138.494 115.999 138.407 115.804 138.321 115.623 138.233 115.443 137.215 113.392 135.72 111.552 133.914 110.127 131.179 107.972 127.89 106.82 124.403 106.797 124.369 106.797 124.335 106.797 124.301 106.797 120.287 106.797 116.464 108.4 113.524 111.32 110.487 114.337 108.745 118.487 108.745 122.707L108.745 122.977C108.745 124.342 108.878 125.91 109.138 127.636L109.311 128.785 107.467 128.785C107.014 128.785 106.638 129.125 106.582 129.563L107.769 133.714 111.113 135.645 114.51 142.828C114.94 143.972 116.923 145.583 118.37 146.76 118.79 147.101 119.189 147.426 119.541 147.726 120.318 148.391 121.312 148.763 122.339 148.774L125.985 148.774C126.537 148.774 126.985 149.222 126.985 149.774 126.985 150.327 126.537 150.774 125.985 150.774L122.327 150.774C120.821 150.757 119.374 150.215 118.242 149.246 117.902 148.956 117.515 148.642 117.109 148.313 115.303 146.844 113.256 145.18 112.669 143.604L109.573 137.064 106.068 135.042 104.575 129.677C104.575 128.239 105.63 127.043 107.007 126.821 106.833 125.428 106.745 124.139 106.745 122.977L106.745 122.707C106.745 117.958 108.702 113.29 112.115 109.901 115.46 106.577 119.851 104.8 124.417 104.797 128.352 104.823 132.065 106.123 135.152 108.557 137.19 110.163 138.875 112.238 140.026 114.558 140.127 114.762 140.222 114.964 140.315 115.17 141.33 117.357 141.861 119.802 141.845 122.226L141.844 122.977C141.844 124.124 141.742 125.41 141.541 126.812 142.163 126.896 142.734 127.184 143.18 127.643 143.717 128.195 144.001 128.924 143.979 129.694L143.96 129.863 142.913 135.054 138.826 137.098 135.601 143.675C135.326 144.419 134.632 145.222 133.877 145.985L133.877 153.516C133.877 154.068 133.429 154.516 132.877 154.516M89.031 195.684L87.032 195.682 87.068 167.944C87.068 164.042 89.935 162.948 92.465 161.982L109.822 156.068 112.952 150.268 115.668 150.268 115.668 152.268 114.145 152.268 111.209 157.709 93.144 163.863C90.32 164.941 89.068 165.659 89.068 167.945L89.031 195.684"/>
    <path fill="#434A4F" d="M124.568,159.721 L115.439,154.608 C114.958,154.339 114.785,153.729 115.055,153.248 C115.325,152.767 115.935,152.594 116.417,152.864 L124.568,157.428 L132.39,153.048 C132.873,152.777 133.482,152.95 133.752,153.432 C134.022,153.913 133.85,154.522 133.368,154.792 L124.568,159.721"/>
    <path fill="#434A4F" d="M162.103 195.684L160.103 195.682 160.134 168.012C160.134 165.673 158.859 164.959 155.95 163.89L137.908 157.765 134.552 152.268 132.999 152.268 132.999 150.268 135.674 150.268 139.237 156.104 156.617 162.004C159.088 162.913 162.134 164.033 162.134 168.013L162.103 195.684M119.508 166.319C119.27 166.319 119.031 166.234 118.84 166.063 118.429 165.693 118.396 165.061 118.765 164.65L124.568 158.203 130.369 164.65C130.739 165.061 130.706 165.693 130.295 166.063 129.885 166.433 129.252 166.399 128.883 165.988L124.568 161.193 120.252 165.988C120.054 166.208 119.782 166.319 119.508 166.319M196.885 118.896C189.822 120.819 185.522 127.871 187.006 135.404L187.97 142.098 191.487 138.965C196.059 133.306 198 126.049 196.885 118.896zM186.521 146.067L185.035 135.74C183.275 126.81 188.743 118.424 197.493 116.7L198.475 116.507 198.668 117.488C200.261 125.579 198.191 133.89 192.988 140.288L192.877 140.404 186.521 146.067zM200.967 151.833C197.56 151.923 194.375 153.233 191.909 155.579 189.215 158.143 187.637 161.679 187.467 165.535L187.43 165.763 185.624 172.159C194.041 168.637 199.869 161.22 200.88 152.69 200.914 152.407 200.943 152.12 200.967 151.833zM182.597 175.519L185.474 165.329C185.695 160.999 187.487 157.025 190.531 154.131 193.638 151.174 197.74 149.657 202.077 149.844L203.076 149.889 203.032 150.887C203.002 151.569 202.946 152.255 202.866 152.927 201.75 162.342 195.247 170.497 185.895 174.209L182.597 175.519zM172.767 195.254L177.317 195.876C185.055 195.863 191.843 192.909 196.494 187.542 190.539 183.121 182.239 184.196 177.274 190.154L172.767 195.254zM177.265 197.876C177.259 197.876 177.255 197.876 177.249 197.876L177.114 197.867 168.794 196.729 175.756 188.853C181.599 181.84 191.554 180.796 198.404 186.5L198.942 186.948 198.443 188.335 198.33 188.47C193.277 194.536 185.795 197.876 177.265 197.876zM156.662 213.128C163.386 215.957 170.921 215.801 177.498 212.727 173.633 206.482 165.052 204.164 158.219 207.7L152.143 210.999 156.662 213.128zM166.632 217.147C162.982 217.147 159.324 216.422 155.865 214.962L155.828 214.945 147.719 211.126 157.282 205.933C165.412 201.729 175.706 204.829 179.778 212.695L180.243 213.596 179.344 214.047C175.354 216.109 170.998 217.147 166.632 217.147zM180.023 93.195C177.137 95.011 175.065 97.762 174.138 101.037 173.126 104.616 173.57 108.463 175.389 111.868L179.168 118.193 180.67 114.075C183.437 107.277 183.187 99.737 180.023 93.195zM179.606 122.828L173.648 112.852C171.561 108.946 171.06 104.572 172.214 100.493 173.382 96.364 176.135 92.964 179.964 90.919L180.846 90.447 181.318 91.33C185.202 98.604 185.646 107.157 182.535 114.795L179.606 122.828z"/>
    <polyline fill="#434A4F" points="162.967 104.291 153.205 97.837 154.308 96.169 160.52 100.275 159.538 91.225 161.527 91.01 162.967 104.291"/>
    <path fill="#434A4F" d="M137.327,214.195 L136.962,212.229 C166.028,206.828 186.869,181.417 186.518,151.807 C186.287,132.316 176.611,113.988 160.633,102.778 L161.781,101.142 C178.285,112.72 188.28,131.651 188.518,151.783 C188.881,182.368 167.352,208.616 137.327,214.195"/>
    <path fill="#75C7D0" d="M188.994 135.17L189.42 138.127 190.031 137.582C193.65 133.042 195.446 127.406 195.164 121.692 190.488 124.071 187.859 129.386 188.968 135.018L188.994 135.17M189.45 165.971L188.815 168.218C193.906 164.897 197.459 159.851 198.623 154.14 196.631 154.608 194.8 155.59 193.287 157.029 190.97 159.234 189.612 162.286 189.465 165.623L189.45 165.971M177.449 193.876C183.659 193.835 189.187 191.755 193.312 187.954 188.473 185.666 182.55 186.947 178.811 191.435L176.74 193.779 177.449 193.876M159.137 209.476L156.567 210.872 157.476 211.301C162.882 213.566 168.852 213.739 174.309 211.862 170.574 207.971 164.288 206.813 159.137 209.476M176.063 101.582C175.198 104.639 175.574 107.934 177.121 110.865L178.729 113.559 178.831 113.286C181.053 107.828 181.154 101.825 179.191 96.368 177.711 97.788 176.633 99.569 176.063 101.582"/>
    <path fill="#434A4F" d="M52.897 138.965L56.413 142.097 57.369 135.455C58.861 127.873 54.562 120.819 47.498 118.896 46.383 126.049 48.325 133.307 52.897 138.965zM57.863 146.067L51.395 140.288C46.192 133.89 44.122 125.579 45.716 117.488L45.909 116.507 46.89 116.7C55.64 118.424 61.109 126.81 59.34 135.791L57.863 146.067zM43.416 151.833C43.44 152.12 43.47 152.407 43.503 152.69 44.514 161.22 50.342 168.637 58.759 172.159L56.916 165.535C56.746 161.679 55.169 158.143 52.474 155.579 50.009 153.233 46.823 151.924 43.416 151.833zM61.786 175.519L58.489 174.209C49.136 170.497 42.633 162.343 41.517 152.927 41.437 152.255 41.382 151.569 41.351 150.887L41.307 149.889 42.306 149.844C46.642 149.656 50.744 151.173 53.853 154.131 56.896 157.025 58.689 160.999 58.909 165.329L61.786 175.519zM47.889 187.542C52.54 192.908 59.329 195.862 67.066 195.876L71.616 195.254 67.129 190.177C62.144 184.194 53.845 183.121 47.889 187.542zM67.118 197.876C58.588 197.876 51.108 194.536 46.054 188.47L45.941 188.335 45.442 186.948 45.98 186.5C52.831 180.797 62.786 181.839 68.646 188.875L75.59 196.729 67.135 197.876C67.129 197.876 67.124 197.876 67.118 197.876zM66.885 212.727C73.464 215.801 80.998 215.958 87.721 213.128L92.24 210.999 86.147 207.69C79.328 204.164 70.751 206.484 66.885 212.727zM77.752 217.147C73.385 217.147 69.03 216.109 65.04 214.047L64.14 213.596 64.605 212.695C68.676 204.829 78.97 201.726 87.084 205.923L96.664 211.126 88.518 214.962C85.06 216.422 81.402 217.147 77.752 217.147zM64.36 93.195C61.196 99.737 60.946 107.276 63.7 114.041L65.216 118.193 69.019 111.826C72.613 105.093 70.556 97.096 64.36 93.195zM64.778 122.828L61.835 114.761C58.737 107.157 59.181 98.604 63.066 91.33L63.537 90.447 64.419 90.919C72.286 95.119 75.071 104.735 70.759 112.81L64.778 122.828zM94.888 77.542C88.992 81.788 85.183 88.298 84.385 95.559L83.867 100.273 90.075 96.169C96.48 91.934 98.481 83.921 94.888 77.542zM81.414 104.293L82.397 95.34C83.298 87.143 87.76 79.833 94.639 75.285L95.473 74.733 96.024 75.567C100.943 83.006 98.814 92.788 91.178 97.837L81.414 104.293z"/>
    <path fill="#434A4F" d="M107.056,214.195 C77.032,208.616 55.503,182.368 55.865,151.783 C56.104,131.651 66.098,112.72 82.602,101.142 L83.75,102.778 C67.773,113.988 58.096,132.317 57.865,151.807 C57.514,181.417 78.356,206.828 107.422,212.229 L107.056,214.195"/>
    <path fill="#75C7D0" d="M55.389 135.17L54.964 138.127 54.352 137.582C50.733 133.042 48.938 127.406 49.22 121.692 53.895 124.071 56.524 129.386 55.415 135.018L55.389 135.17M54.934 165.971L55.568 168.218C50.478 164.897 46.924 159.851 45.761 154.14 47.753 154.608 49.584 155.59 51.096 157.029 53.414 159.234 54.771 162.286 54.918 165.623L54.934 165.971M66.934 193.876C60.725 193.835 55.196 191.755 51.071 187.954 55.911 185.666 61.833 186.947 65.573 191.435L67.644 193.779 66.934 193.876M85.246 209.476L87.817 210.872 86.908 211.301C81.502 213.566 75.532 213.739 70.074 211.862 73.81 207.971 80.096 206.813 85.246 209.476M68.32 101.582C69.185 104.639 68.809 107.934 67.263 110.865L65.654 113.559 65.553 113.286C63.33 107.828 63.229 101.825 65.193 96.368 66.673 97.788 67.751 99.569 68.32 101.582M94.107 80.732C95.697 85.73 93.76 91.335 88.972 94.5L86.321 96.253 86.373 95.777C87.016 89.921 89.784 84.595 94.107 80.732"/>
    <polyline fill="#434A4F" points="143.035 113.241 141.035 113.241 141.035 67.267 153.621 67.267 122.035 35.681 90.449 67.267 103.035 67.267 103.035 108.238 101.035 108.238 101.035 69.267 85.621 69.267 122.035 32.853 158.449 69.267 143.035 69.267 143.035 113.241"/>
    <polyline fill="#434A4F" points="152.3 117.653 150.3 117.653 150.3 86.25 154.323 86.25 142.677 75.611 130.098 86.865 134.081 86.865 134.081 100.258 132.081 100.258 132.081 88.865 124.863 88.865 142.691 72.916 159.478 88.25 152.3 88.25 152.3 117.653"/>
    <path fill="#434A4F" d="M151.087 122.271C150.947 122.271 150.817 122.24 150.697 122.19 150.577 122.141 150.467 122.07 150.377 121.97 150.187 121.78 150.087 121.53 150.087 121.271 150.087 121 150.187 120.75 150.377 120.561 150.467 120.47 150.577 120.4 150.697 120.34 151.067 120.19 151.507 120.28 151.787 120.561 151.977 120.75 152.077 121 152.077 121.271 152.077 121.53 151.977 121.78 151.787 121.97 151.597 122.16 151.347 122.271 151.087 122.271M133.077 104.26C132.807 104.26 132.547 104.15 132.367 103.96 132.267 103.87 132.197 103.76 132.147 103.641 132.097 103.521 132.077 103.391 132.077 103.26 132.077 103.13 132.097 103 132.147 102.88 132.197 102.75 132.267 102.641 132.367 102.55 132.457 102.46 132.567 102.38 132.687 102.33 133.057 102.181 133.497 102.271 133.777 102.55 133.867 102.641 133.947 102.75 133.997 102.88 134.047 103 134.067 103.13 134.067 103.26 134.067 103.391 134.047 103.521 133.997 103.641 133.947 103.76 133.867 103.87 133.777 103.96 133.587 104.15 133.337 104.26 133.077 104.26M102.047 112.34C101.777 112.34 101.527 112.23 101.337 112.04 101.247 111.95 101.167 111.84 101.117 111.72 101.067 111.601 101.047 111.47 101.047 111.34 101.047 111.08 101.157 110.82 101.337 110.63 101.717 110.26 102.377 110.26 102.757 110.63 102.937 110.82 103.047 111.08 103.047 111.34 103.047 111.61 102.947 111.86 102.757 112.04 102.657 112.141 102.547 112.21 102.427 112.26 102.307 112.311 102.177 112.34 102.047 112.34M102.046 107.471C101.493 107.471 101.046 107.023 101.046 106.471L101.046 87.864C101.046 87.311 101.493 86.864 102.046 86.864 102.598 86.864 103.046 87.311 103.046 87.864L103.046 106.471C103.046 107.023 102.598 107.471 102.046 107.471M106.047 116.34C105.917 116.34 105.787 116.32 105.667 116.271 105.547 116.22 105.437 116.141 105.337 116.05 105.157 115.86 105.047 115.61 105.047 115.34 105.047 115.21 105.077 115.08 105.127 114.96 105.177 114.84 105.247 114.73 105.337 114.63 105.437 114.54 105.547 114.47 105.667 114.42 106.037 114.26 106.477 114.351 106.757 114.63 106.847 114.73 106.917 114.84 106.967 114.96 107.027 115.08 107.047 115.21 107.047 115.34 107.047 115.61 106.947 115.86 106.757 116.05 106.567 116.24 106.317 116.34 106.047 116.34M106.048 111.474C105.496 111.474 105.048 111.026 105.048 110.474L105.048 91.866C105.048 91.313 105.496 90.866 106.048 90.866 106.6 90.866 107.048 91.313 107.048 91.866L107.048 110.474C107.048 111.026 106.6 111.474 106.048 111.474M112.047 104.25C111.917 104.25 111.787 104.22 111.667 104.17 111.547 104.12 111.437 104.05 111.347 103.96 111.247 103.86 111.177 103.75 111.127 103.63 111.077 103.51 111.047 103.38 111.047 103.25 111.047 103.12 111.077 102.99 111.127 102.87 111.177 102.75 111.247 102.641 111.347 102.54 111.437 102.45 111.547 102.38 111.667 102.33 112.037 102.17 112.477 102.26 112.757 102.54 112.847 102.641 112.927 102.75 112.977 102.87 113.027 102.99 113.047 103.12 113.047 103.25 113.047 103.38 113.027 103.51 112.977 103.63 112.927 103.75 112.857 103.86 112.757 103.96 112.667 104.05 112.557 104.12 112.437 104.17 112.317 104.22 112.187 104.25 112.047 104.25M112.052 99.466C111.5 99.466 111.052 99.019 111.052 98.466L111.052 89.865C111.052 89.312 111.5 88.865 112.052 88.865 112.604 88.865 113.052 89.312 113.052 89.865L113.052 98.466C113.052 99.019 112.604 99.466 112.052 99.466"/>
    <polygon fill="#434A4F" points="213.053 185.051 215.053 185.051 215.053 181.051 213.053 181.051"/>
    <polygon fill="#434A4F" points="213.053 175.051 215.053 175.051 215.053 171.051 213.053 171.051"/>
    <polygon fill="#434A4F" points="207.053 179.051 211.053 179.051 211.053 177.051 207.053 177.051"/>
    <polygon fill="#434A4F" points="217.053 179.051 221.053 179.051 221.053 177.051 217.053 177.051"/>
    <polygon fill="#434A4F" points="158.301 155.033 160.301 155.033 160.301 151.033 158.301 151.033"/>
    <polygon fill="#434A4F" points="158.301 145.033 160.301 145.033 160.301 141.033 158.301 141.033"/>
    <polygon fill="#434A4F" points="152.301 149.033 156.301 149.033 156.301 147.033 152.301 147.033"/>
    <polygon fill="#434A4F" points="162.301 149.033 166.301 149.033 166.301 147.033 162.301 147.033"/>
    <path fill="#75C7D0" d="M165.229,87.718 C165.229,85.508 167.02,83.718 169.229,83.718 C171.438,83.718 173.229,85.508 173.229,87.718 C173.229,89.927 171.438,91.718 169.229,91.718 C167.02,91.718 165.229,89.927 165.229,87.718"/>
    <path fill="#434A4F" d="M118.037 103.71C117.767 103.71 117.517 103.61 117.327 103.42 117.137 103.23 117.037 102.98 117.037 102.71 117.037 102.45 117.147 102.19 117.327 102.01 117.377 101.96 117.427 101.92 117.477 101.88 117.537 101.851 117.597 101.811 117.657 101.79 117.717 101.76 117.777 101.75 117.837 101.73 118.037 101.69 118.237 101.71 118.417 101.79 118.537 101.84 118.647 101.91 118.747 102.01 118.927 102.19 119.037 102.45 119.037 102.71 119.037 102.98 118.927 103.23 118.747 103.42 118.647 103.51 118.537 103.59 118.417 103.641 118.297 103.69 118.167 103.71 118.037 103.71M118.035 95.844C117.483 95.844 117.035 95.396 117.035 94.844L117.035 71.234C117.035 70.682 117.483 70.234 118.035 70.234 118.587 70.234 119.035 70.682 119.035 71.234L119.035 94.844C119.035 95.396 118.587 95.844 118.035 95.844M75.836 154.651L78.29 155.448 78.757 154.012C79.283 152.39 80.725 151.341 82.43 151.341L82.431 151.341C84.135 151.341 85.577 152.388 86.104 154.009L86.572 155.444 89.025 154.646 88.558 153.211C88.031 151.59 88.581 149.895 89.96 148.892 91.339 147.889 93.122 147.89 94.501 148.89L95.723 149.777 97.239 147.689 96.017 146.802C94.637 145.8 94.086 144.105 94.612 142.484 95.138 140.862 96.58 139.814 98.285 139.813L99.795 139.813 99.795 137.232 98.284 137.233C96.579 137.233 95.137 136.186 94.61 134.564 94.083 132.943 94.633 131.248 96.012 130.246L97.233 129.358 95.76 127.333 94.539 128.221C93.159 129.224 91.378 129.222 89.999 128.223 88.619 127.221 88.067 125.526 88.593 123.904L89.059 122.468 86.605 121.672 86.139 123.108C85.613 124.729 84.171 125.778 82.467 125.778 82.466 125.778 82.465 125.778 82.465 125.778 80.76 125.778 79.319 124.731 78.791 123.111L78.324 121.676 75.87 122.474 76.338 123.909C76.865 125.531 76.315 127.227 74.936 128.229 73.557 129.23 71.775 129.229 70.395 128.23L69.173 127.343 67.657 129.432 68.879 130.318C70.259 131.32 70.81 133.016 70.284 134.637 69.758 136.259 68.316 137.307 66.612 137.308L65.101 137.309 65.102 139.889 66.613 139.888C66.613 139.888 66.613 139.888 66.614 139.888 68.318 139.888 69.76 140.935 70.287 142.556 70.815 144.177 70.264 145.872 68.885 146.874L67.664 147.763 69.135 149.786 70.357 148.898C71.735 147.895 73.517 147.896 74.897 148.896 76.277 149.898 76.829 151.593 76.302 153.215L75.836 154.651zM79.575 157.968L73.317 155.937 74.4 152.598C74.708 151.648 74.252 150.899 73.722 150.515 73.193 150.132 72.341 149.93 71.533 150.516L68.694 152.579 64.87 147.321 67.709 145.257C68.516 144.67 68.588 143.796 68.385 143.174 68.183 142.552 67.611 141.888 66.614 141.888L66.613 141.888 63.103 141.889 63.1 135.309 66.611 135.308C67.609 135.308 68.18 134.643 68.382 134.02 68.584 133.397 68.512 132.523 67.704 131.938L64.864 129.875 68.73 124.55 71.57 126.611C72.378 127.198 73.231 126.996 73.76 126.611 74.289 126.227 74.744 125.478 74.436 124.528L73.35 121.19 79.607 119.154 80.693 122.492C81.002 123.44 81.811 123.778 82.465 123.778L82.466 123.778C83.12 123.778 83.928 123.44 84.237 122.491L85.32 119.152 91.579 121.183 90.496 124.521C90.188 125.471 90.644 126.22 91.174 126.604 91.703 126.988 92.555 127.19 93.363 126.604L96.202 124.538 100.027 129.8 97.188 131.863C96.381 132.45 96.309 133.324 96.512 133.946 96.714 134.568 97.286 135.233 98.284 135.233L101.794 135.232 101.796 141.813 98.286 141.813C97.288 141.813 96.717 142.479 96.514 143.102 96.313 143.724 96.384 144.597 97.192 145.183L100.033 147.246 96.166 152.57 93.326 150.509C92.518 149.922 91.664 150.124 91.135 150.51 90.607 150.894 90.151 151.644 90.46 152.592L91.546 155.93 85.288 157.966 84.202 154.628C83.894 153.679 83.085 153.341 82.431 153.341 82.431 153.341 82.431 153.341 82.43 153.341 81.776 153.341 80.967 153.68 80.659 154.629L79.575 157.968z"/>
    <path fill="#E9886C" d="M82.452,136.813 C82.36,136.813 82.266,136.82 82.173,136.836 C81.712,136.909 81.308,137.158 81.034,137.536 C80.76,137.913 80.651,138.375 80.724,138.836 C80.798,139.297 81.046,139.701 81.424,139.975 C82.204,140.54 83.298,140.364 83.862,139.584 C84.136,139.206 84.246,138.745 84.173,138.284 C84.099,137.823 83.851,137.42 83.473,137.146 L83.472,137.146 C83.172,136.928 82.817,136.813 82.452,136.813 Z M82.44,142.308 C81.658,142.308 80.897,142.063 80.251,141.594 C79.44,141.007 78.907,140.14 78.749,139.151 C78.591,138.163 78.827,137.173 79.415,136.362 C80.001,135.552 80.869,135.019 81.857,134.86 C82.846,134.706 83.836,134.938 84.646,135.526 C85.456,136.113 85.99,136.98 86.148,137.969 C86.305,138.957 86.069,139.947 85.482,140.758 C84.895,141.568 84.028,142.102 83.04,142.26 C82.84,142.291 82.639,142.308 82.44,142.308 Z"/>
    <path fill="#434A4F" d="M80.247,128.141 C80.177,127.59 80.577,127.101 81.117,127.04 C81.667,126.97 82.167,127.36 82.227,127.92 C82.287,128.46 81.897,128.96 81.347,129.021 C81.317,129.03 81.277,129.03 81.237,129.03 C80.737,129.03 80.297,128.65 80.247,128.141 Z M84.867,129.271 C84.337,129.13 84.007,128.58 84.157,128.05 C84.287,127.51 84.837,127.19 85.367,127.33 C85.907,127.47 86.227,128.021 86.087,128.55 C85.967,129 85.567,129.3 85.117,129.3 C85.037,129.3 84.947,129.29 84.867,129.271 Z M76.627,129.641 C76.367,129.15 76.557,128.55 77.047,128.29 C77.537,128.03 78.137,128.22 78.397,128.71 C78.657,129.2 78.467,129.8 77.977,130.061 C77.827,130.141 77.667,130.181 77.517,130.181 C77.157,130.181 76.807,129.98 76.627,129.641 Z M88.077,130.79 C88.077,130.78 88.067,130.78 88.067,130.771 C88.057,130.771 88.057,130.771 88.057,130.771 C87.607,130.45 87.507,129.82 87.827,129.37 C88.157,128.931 88.777,128.82 89.227,129.15 C89.237,129.16 89.257,129.17 89.267,129.181 C89.697,129.51 89.797,130.12 89.477,130.561 C89.277,130.83 88.977,130.98 88.667,130.98 C88.457,130.98 88.257,130.92 88.077,130.79 Z M73.807,132.34 C73.387,131.98 73.347,131.351 73.707,130.931 C74.067,130.521 74.697,130.47 75.117,130.84 C75.537,131.2 75.577,131.83 75.217,132.25 C75.017,132.47 74.737,132.59 74.457,132.59 C74.227,132.59 73.997,132.51 73.807,132.34 Z M90.507,133.34 C90.207,132.88 90.337,132.26 90.807,131.96 C91.267,131.66 91.887,131.79 92.187,132.26 C92.487,132.72 92.357,133.34 91.887,133.641 C91.727,133.75 91.537,133.8 91.347,133.8 C91.027,133.8 90.697,133.641 90.507,133.34 Z M72.137,135.88 C71.617,135.7 71.357,135.12 71.547,134.601 C71.547,134.601 71.547,134.601 71.547,134.61 C71.727,134.08 72.297,133.82 72.827,134 C73.337,134.19 73.607,134.76 73.417,135.29 C73.277,135.69 72.887,135.94 72.487,135.94 C72.367,135.94 72.257,135.92 72.137,135.88 Z M91.847,136.601 C91.737,136.061 92.077,135.54 92.617,135.42 C93.157,135.311 93.687,135.66 93.807,136.2 C93.917,136.74 93.567,137.271 93.027,137.38 C92.957,137.4 92.887,137.4 92.827,137.4 C92.357,137.4 91.947,137.08 91.847,136.601 Z M70.847,138.811 C70.837,138.26 71.277,137.8 71.827,137.79 C72.377,137.771 72.837,138.21 72.847,138.76 C72.867,139.32 72.427,139.771 71.877,139.79 C71.867,139.79 71.857,139.79 71.857,139.79 C71.307,139.79 70.867,139.351 70.847,138.811 Z M92.737,141.28 C92.197,141.19 91.827,140.681 91.917,140.13 C92.007,139.58 92.527,139.22 93.067,139.311 C93.617,139.4 93.977,139.91 93.887,140.46 C93.807,140.95 93.387,141.29 92.907,141.29 C92.847,141.29 92.797,141.29 92.737,141.28 Z M71.727,142.98 C71.517,142.47 71.757,141.88 72.267,141.67 C72.777,141.46 73.367,141.71 73.577,142.22 C73.787,142.73 73.537,143.311 73.027,143.521 C72.907,143.57 72.777,143.601 72.647,143.601 C72.257,143.601 71.887,143.37 71.727,142.98 Z M91.057,144.811 C90.587,144.53 90.427,143.92 90.707,143.44 C90.997,142.97 91.607,142.811 92.077,143.09 C92.557,143.37 92.717,143.99 92.427,144.46 C92.247,144.78 91.907,144.95 91.567,144.95 C91.397,144.95 91.217,144.91 91.057,144.811 Z M74.047,146.55 C73.667,146.15 73.677,145.521 74.077,145.141 C74.477,144.76 75.107,144.771 75.487,145.17 C75.877,145.57 75.857,146.21 75.457,146.59 C75.267,146.771 75.017,146.86 74.767,146.86 C74.507,146.86 74.237,146.76 74.047,146.55 Z M88.227,147.5 C87.877,147.07 87.957,146.44 88.387,146.101 C88.827,145.76 89.447,145.83 89.797,146.271 C90.137,146.7 90.067,147.33 89.627,147.67 C89.447,147.811 89.227,147.88 89.007,147.88 C88.717,147.88 88.417,147.75 88.227,147.5 Z M77.497,149.05 C76.997,148.811 76.787,148.22 77.017,147.72 C77.257,147.22 77.857,147 78.357,147.24 L78.347,147.24 C78.847,147.48 79.067,148.07 78.827,148.57 C78.657,148.931 78.297,149.141 77.927,149.141 C77.777,149.141 77.637,149.11 77.497,149.05 Z M84.597,148.98 C84.437,148.45 84.737,147.891 85.267,147.73 C85.797,147.57 86.357,147.87 86.517,148.4 C86.677,148.92 86.377,149.48 85.847,149.65 C85.757,149.681 85.657,149.69 85.557,149.69 C85.127,149.69 84.737,149.41 84.597,148.98 Z M81.617,150.13 C81.067,150.09 80.657,149.61 80.697,149.061 C80.727,148.51 81.207,148.09 81.757,148.13 C82.307,148.17 82.727,148.65 82.687,149.2 C82.647,149.73 82.207,150.13 81.687,150.13 C81.667,150.13 81.647,150.13 81.617,150.13 Z"/>
    <polygon fill="#434A4F" points="34.946 185.051 36.946 185.051 36.946 181.051 34.946 181.051"/>
    <polygon fill="#434A4F" points="34.946 175.051 36.946 175.051 36.946 171.051 34.946 171.051"/>
    <polygon fill="#434A4F" points="28.946 179.051 32.946 179.051 32.946 177.051 28.946 177.051"/>
    <polygon fill="#434A4F" points="38.946 179.051 42.946 179.051 42.946 177.051 38.946 177.051"/>
    <polygon fill="#434A4F" points="42.231 106.004 44.231 106.004 44.231 102.004 42.231 102.004"/>
    <polygon fill="#434A4F" points="42.231 96.004 44.231 96.004 44.231 92.004 42.231 92.004"/>
    <polygon fill="#434A4F" points="36.231 100.004 40.231 100.004 40.231 98.004 36.231 98.004"/>
    <polygon fill="#434A4F" points="46.231 100.004 50.231 100.004 50.231 98.004 46.231 98.004"/>
    <path fill="#75C7D0" d="M156.666,90.158 L153.532,90.158 L153.532,92.988 C154.101,93.535 154.723,94.045 155.411,94.5 L158.063,96.253 L158.01,95.777 C157.797,93.831 157.328,91.953 156.666,90.158"/>
  </g>
</svg>
