<svg xmlns="http://www.w3.org/2000/svg" width="250" height="250" viewBox="0 0 250 250">
  <g fill="none" fill-rule="evenodd">
    <polyline fill="#FACD60" points="160.584 57.162 160.584 81.004 184.427 81.004"/>
    <path fill="#434A4F" d="M80.096,199.216 L183.427,199.216 L183.427,81.419 L160.17,58.162 L80.096,58.162 L80.096,199.216 Z M185.427,201.216 L78.096,201.216 L78.096,56.162 L160.998,56.162 L185.427,80.59 L185.427,201.216 Z"/>
    <path fill="#434A4F" d="M180.429,205.042 L69.096,205.042 C63.03,205.042 58.096,200.107 58.096,194.042 C58.096,187.976 63.03,183.042 69.096,183.042 C75.161,183.042 80.096,187.976 80.096,194.042 C80.096,194.594 79.648,195.042 79.096,195.042 C78.543,195.042 78.096,194.594 78.096,194.042 C78.096,189.079 74.059,185.042 69.096,185.042 C64.133,185.042 60.096,189.079 60.096,194.042 C60.096,199.004 64.133,203.042 69.096,203.042 L180.429,203.042 C180.981,203.042 181.429,203.489 181.429,204.042 C181.429,204.594 180.981,205.042 180.429,205.042"/>
    <path fill="#434A4F" d="M59.096 195.042C58.543 195.042 58.096 194.594 58.096 194.042L58.096 55.958C58.096 49.893 63.03 44.958 69.096 44.958 75.161 44.958 80.096 49.893 80.096 55.958 80.096 56.511 79.648 56.958 79.096 56.958 78.543 56.958 78.096 56.511 78.096 55.958 78.096 50.996 74.059 46.958 69.096 46.958 64.133 46.958 60.096 50.996 60.096 55.958L60.096 194.042C60.096 194.594 59.648 195.042 59.096 195.042M107.161 154.059L107.161 154.061 107.161 154.059zM107.161 156.061C106.059 156.061 105.161 155.164 105.161 154.061 105.161 152.958 106.059 152.061 107.161 152.061 108.264 152.061 109.161 152.958 109.161 154.061 109.161 155.164 108.264 156.061 107.161 156.061z"/>
    <polygon fill="#434A4F" points="113.16 155.062 167.179 155.062 167.179 153.062 113.16 153.062"/>
    <path fill="#434A4F" d="M107.161,162.064 L107.161,162.066 L107.161,162.064 Z M107.161,164.066 C106.059,164.066 105.161,163.168 105.161,162.066 C105.161,160.963 106.059,160.066 107.161,160.066 C108.264,160.066 109.161,160.963 109.161,162.066 C109.161,163.168 108.264,164.066 107.161,164.066 Z"/>
    <polygon fill="#434A4F" points="113.16 163.066 167.179 163.066 167.179 161.066 113.16 161.066"/>
    <path fill="#434A4F" d="M107.161,170.069 L107.161,170.071 L107.161,170.069 Z M107.161,172.071 C106.059,172.071 105.161,171.173 105.161,170.071 C105.161,168.968 106.059,168.071 107.161,168.071 C108.264,168.071 109.161,168.968 109.161,170.071 C109.161,171.173 108.264,172.071 107.161,172.071 Z"/>
    <polygon fill="#434A4F" points="113.16 171.071 167.179 171.071 167.179 169.071 113.16 169.071"/>
    <path fill="#434A4F" d="M107.161,186.079 L107.161,186.081 L107.161,186.079 Z M107.161,188.081 C106.059,188.081 105.161,187.183 105.161,186.081 C105.161,184.978 106.059,184.081 107.161,184.081 C108.264,184.081 109.161,184.978 109.161,186.081 C109.161,187.183 108.264,188.081 107.161,188.081 Z"/>
    <polygon fill="#434A4F" points="113.16 187.081 167.179 187.081 167.179 185.081 113.16 185.081"/>
    <path fill="#434A4F" d="M107.161,178.074 L107.161,178.076 L107.161,178.074 Z M107.161,180.076 C106.059,180.076 105.161,179.178 105.161,178.076 C105.161,176.973 106.059,176.076 107.161,176.076 C108.264,176.076 109.161,176.973 109.161,178.076 C109.161,179.178 108.264,180.076 107.161,180.076 Z"/>
    <polygon fill="#434A4F" points="113.16 179.076 167.179 179.076 167.179 177.076 113.16 177.076"/>
    <path fill="#434A4F" d="M107.161,116.037 L107.161,116.039 L107.161,116.037 Z M107.161,118.039 C106.059,118.039 105.161,117.141 105.161,116.039 C105.161,114.936 106.059,114.039 107.161,114.039 C108.264,114.039 109.161,114.936 109.161,116.039 C109.161,117.141 108.264,118.039 107.161,118.039 Z"/>
    <polygon fill="#434A4F" points="113.16 117.039 167.179 117.039 167.179 115.039 113.16 115.039"/>
    <path fill="#434A4F" d="M107.161,132.046 L107.161,132.047 L107.161,132.046 Z M107.161,134.047 C106.059,134.047 105.161,133.15 105.161,132.047 C105.161,130.945 106.059,130.047 107.161,130.047 C108.264,130.047 109.161,130.945 109.161,132.047 C109.161,133.15 108.264,134.047 107.161,134.047 Z"/>
    <polygon fill="#434A4F" points="113.16 133.048 167.179 133.048 167.179 131.048 113.16 131.048"/>
    <path fill="#434A4F" d="M107.161,124.042 L107.161,124.043 L107.161,124.042 Z M107.161,126.043 C106.059,126.043 105.161,125.146 105.161,124.043 C105.161,122.941 106.059,122.043 107.161,122.043 C108.264,122.043 109.161,122.941 109.161,124.043 C109.161,125.146 108.264,126.043 107.161,126.043 Z"/>
    <polygon fill="#434A4F" points="113.16 125.043 167.179 125.043 167.179 123.043 113.16 123.043"/>
    <path fill="#434A4F" d="M89.097 114.041C89.097 114.042 89.097 114.042 89.098 114.042L90.097 114.042 89.097 114.041zM89.097 116.042C87.994 116.042 87.097 115.144 87.097 114.042 87.097 112.939 87.994 112.042 89.097 112.042 90.199 112.042 91.097 112.939 91.097 114.042 91.097 115.144 90.199 116.042 89.097 116.042zM89.097 148.041C89.097 148.042 89.097 148.042 89.098 148.042L90.097 148.042 89.097 148.041zM89.097 150.042C87.994 150.042 87.097 149.144 87.097 148.042 87.097 146.939 87.994 146.042 89.097 146.042 90.199 146.042 91.097 146.939 91.097 148.042 91.097 149.144 90.199 150.042 89.097 150.042z"/>
    <path fill="#434A4F" d="M89.097,104.042 C86.891,104.042 85.097,105.835 85.097,108.042 L85.097,152.042 C85.097,154.248 86.891,156.042 89.097,156.042 C91.303,156.042 93.097,154.248 93.097,152.042 L93.097,108.042 C93.097,105.835 91.303,104.042 89.097,104.042 Z M89.097,158.042 C85.788,158.042 83.097,155.35 83.097,152.042 L83.097,108.042 C83.097,104.733 85.788,102.042 89.097,102.042 C92.405,102.042 95.097,104.733 95.097,108.042 L95.097,152.042 C95.097,155.35 92.405,158.042 89.097,158.042 Z"/>
    <path fill="#434A4F" d="M89.097 126.042C88.544 126.042 88.097 125.594 88.097 125.042L88.097 115.042C88.097 114.489 88.544 114.042 89.097 114.042 89.649 114.042 90.097 114.489 90.097 115.042L90.097 125.042C90.097 125.594 89.649 126.042 89.097 126.042M89.097 148.042C88.544 148.042 88.097 147.594 88.097 147.042L88.097 137.042C88.097 136.489 88.544 136.042 89.097 136.042 89.649 136.042 90.097 136.489 90.097 137.042L90.097 147.042C90.097 147.594 89.649 148.042 89.097 148.042"/>
    <polygon fill="#434A4F" points="141.104 91.049 163.104 91.049 163.104 89.049 141.104 89.049"/>
    <polygon fill="#434A4F" points="141.104 95.049 167.104 95.049 167.104 93.049 141.104 93.049"/>
    <path fill="#DBDBD5" d="M69.095,201.05 C65.245,201.05 62.095,197.9 62.095,194.05 C62.095,190.2 65.245,187.05 69.095,187.05 C72.945,187.05 76.096,190.2 76.096,194.05 C76.096,195.843 76.096,201.05 76.096,201.05 C76.096,201.05 71.152,201.05 69.095,201.05"/>
    <path fill="#E9886C" d="M119.555,100.642 C119.497,100.874 118.297,106.966 118.223,107.483 L122.161,107.67 C122.087,107.154 120.977,100.874 120.919,100.642 C121.17,100.642 121.374,100.439 121.374,100.188 L121.374,99.05 L120.218,97.685 L119.1,99.05 L119.1,100.188 C119.1,100.439 119.304,100.642 119.555,100.642"/>
    <path fill="#DDDED9" d="M116.74,94.277 L116.74,95.27 L120.18,97.203 L123.591,95.327 L123.622,93.509 L123.622,91.976 C123.752,91.847 123.886,91.71 124.005,91.57 C123.964,91.606 123.925,91.642 123.892,91.678 C123.413,92.192 122.688,92.732 122.197,93.151 C121.809,93.483 121.318,93.666 120.807,93.672 L119.331,93.672 C118.821,93.666 118.33,93.483 117.941,93.151 C117.473,92.751 116.791,92.241 116.314,91.749 C116.299,91.734 116.283,91.719 116.267,91.704 C116.41,91.856 116.574,92.011 116.748,92.164 C116.744,92.166 116.74,92.168 116.74,92.173 L116.74,94.277"/>
    <path fill="#434A4F" d="M116.74,96.242 C116.188,96.242 115.74,95.794 115.74,95.242 L115.74,92.172 C115.74,91.62 116.188,91.172 116.74,91.172 C117.293,91.172 117.74,91.62 117.74,92.172 L117.74,95.242 C117.74,95.794 117.293,96.242 116.74,96.242"/>
    <path fill="#434A4F" d="M123.599,96.185 C123.046,96.185 122.599,95.738 122.599,95.185 L122.599,91.552 L122.897,91.258 C123.305,90.858 123.388,90.707 123.403,90.67 L124.953,87.501 L126.417,86.768 L126.617,85.777 L125.521,85.777 L125.646,84.604 C125.763,83.939 125.821,83.343 125.821,82.831 L125.821,82.577 C125.827,81.744 125.657,80.962 125.331,80.259 L125.231,80.048 C124.859,79.298 124.313,78.624 123.649,78.101 C122.647,77.312 121.443,76.89 120.168,76.882 C118.655,76.871 117.276,77.46 116.189,78.54 C115.073,79.648 114.433,81.173 114.433,82.723 L114.433,82.831 C114.433,83.353 114.483,83.957 114.585,84.628 L114.758,85.777 L113.661,85.777 L113.948,86.78 L115.254,87.534 L116.708,90.608 C116.858,90.976 117.702,91.663 118.107,91.992 C118.28,92.132 118.445,92.266 118.591,92.39 C118.8,92.57 119.066,92.669 119.343,92.672 L120.811,92.672 C121.363,92.672 121.811,93.12 121.811,93.672 C121.811,94.225 121.363,94.672 120.811,94.672 L119.331,94.672 C118.575,94.664 117.854,94.393 117.291,93.911 C117.158,93.797 117.006,93.673 116.847,93.544 C115.859,92.742 115.14,92.118 114.866,91.384 L113.714,88.954 L112.247,88.108 L111.555,85.543 C111.555,84.869 111.935,84.282 112.49,83.984 C112.452,83.575 112.433,83.189 112.433,82.831 L112.433,82.723 C112.433,80.644 113.288,78.602 114.78,77.12 C116.234,75.675 118.133,74.882 120.129,74.882 C120.146,74.882 120.163,74.882 120.181,74.882 C121.905,74.893 123.533,75.463 124.888,76.531 C125.782,77.237 126.521,78.147 127.024,79.163 C127.068,79.251 127.11,79.339 127.15,79.428 C127.595,80.386 127.829,81.463 127.822,82.531 L127.821,82.831 C127.821,83.186 127.799,83.569 127.755,83.975 C127.915,84.06 128.063,84.169 128.193,84.304 C128.523,84.644 128.698,85.092 128.686,85.566 L128.666,85.736 L128.185,88.12 L126.451,88.987 L125.235,91.466 C125.127,91.764 124.881,92.078 124.599,92.379 L124.599,95.185 C124.599,95.738 124.151,96.185 123.599,96.185"/>
    <polyline fill="#434A4F" points="105.572 100.751 104.912 98.863 113.856 95.733 115.184 93.276 116.637 93.276 116.637 95.276 116.377 95.276 115.249 97.366 105.572 100.751"/>
    <path fill="#434A4F" d="M120.237,98.378 L116.254,96.147 C115.771,95.877 115.6,95.268 115.87,94.787 C116.139,94.305 116.747,94.131 117.23,94.403 L120.237,96.085 L123.111,94.477 C123.593,94.205 124.203,94.379 124.472,94.861 C124.742,95.342 124.57,95.952 124.088,96.221 L120.237,98.378"/>
    <polyline fill="#434A4F" points="134.977 100.368 125.247 97.415 123.941 95.276 123.647 95.276 123.647 93.276 125.064 93.276 126.558 95.722 135.557 98.454 134.977 100.368"/>
    <path fill="#434A4F" d="M122.283,100.96 C122.01,100.96 121.737,100.849 121.54,100.629 L120.237,99.181 L118.934,100.629 C118.564,101.042 117.934,101.074 117.521,100.704 C117.111,100.334 117.078,99.702 117.447,99.291 L120.237,96.191 L123.026,99.291 C123.396,99.703 123.362,100.334 122.952,100.704 C122.761,100.875 122.521,100.96 122.283,100.96"/>
    <path fill="#434A4F" d="M120.099,73.326 C110.813,73.326 103.26,80.88 103.26,90.165 C103.26,99.451 110.813,107.005 120.099,107.005 C129.384,107.005 136.938,99.451 136.938,90.165 C136.938,80.88 129.384,73.326 120.099,73.326 Z M120.099,109.005 C109.711,109.005 101.26,100.554 101.26,90.165 C101.26,79.777 109.711,71.326 120.099,71.326 C130.487,71.326 138.938,79.777 138.938,90.165 C138.938,100.554 130.487,109.005 120.099,109.005 Z"/>
    <polygon fill="#434A4F" points="212.922 175.031 214.922 175.031 214.922 171.031 212.922 171.031"/>
    <polygon fill="#434A4F" points="212.922 185.031 214.922 185.031 214.922 181.031 212.922 181.031"/>
    <polygon fill="#434A4F" points="216.922 179.031 220.922 179.031 220.922 177.031 216.922 177.031"/>
    <polygon fill="#434A4F" points="206.922 179.031 210.922 179.031 210.922 177.031 206.922 177.031"/>
    <polygon fill="#434A4F" points="34.903 131.066 36.903 131.066 36.903 127.066 34.903 127.066"/>
    <polygon fill="#434A4F" points="34.903 141.066 36.903 141.066 36.903 137.066 34.903 137.066"/>
    <polygon fill="#434A4F" points="38.903 135.066 42.903 135.066 42.903 133.066 38.903 133.066"/>
    <polygon fill="#434A4F" points="28.903 135.066 32.903 135.066 32.903 133.066 28.903 133.066"/>
    <polygon fill="#434A4F" points="91.937 71.031 93.937 71.031 93.937 67.031 91.937 67.031"/>
    <polygon fill="#434A4F" points="91.937 81.031 93.937 81.031 93.937 77.031 91.937 77.031"/>
    <polygon fill="#434A4F" points="95.937 75.031 99.937 75.031 99.937 73.031 95.937 73.031"/>
    <polygon fill="#434A4F" points="85.937 75.031 89.937 75.031 89.937 73.031 85.937 73.031"/>
    <path fill="#42494E" d="M204.097,134.697 C199.134,134.697 195.097,138.734 195.097,143.697 C195.097,148.66 199.134,152.697 204.097,152.697 C209.06,152.697 213.097,148.66 213.097,143.697 C213.097,138.734 209.06,134.697 204.097,134.697 Z M204.097,154.697 C198.031,154.697 193.097,149.762 193.097,143.697 C193.097,137.631 198.031,132.697 204.097,132.697 C210.162,132.697 215.097,137.631 215.097,143.697 C215.097,149.762 210.162,154.697 204.097,154.697 Z M204.097,128.697 C195.825,128.697 189.097,135.425 189.097,143.697 C189.097,151.968 195.825,158.697 204.097,158.697 C212.368,158.697 219.097,151.968 219.097,143.697 C219.097,135.425 212.368,128.697 204.097,128.697 Z M204.097,160.697 C194.723,160.697 187.097,153.071 187.097,143.697 C187.097,134.323 194.723,126.697 204.097,126.697 C213.471,126.697 221.097,134.323 221.097,143.697 C221.097,153.071 213.471,160.697 204.097,160.697 Z"/>
    <path fill="#42494E" d="M204.097,140.697 C202.442,140.697 201.097,142.042 201.097,143.697 C201.097,145.351 202.442,146.697 204.097,146.697 C205.751,146.697 207.097,145.351 207.097,143.697 C207.097,142.042 205.751,140.697 204.097,140.697 Z M204.097,148.697 C201.34,148.697 199.097,146.454 199.097,143.697 C199.097,140.94 201.34,138.697 204.097,138.697 C206.854,138.697 209.097,140.94 209.097,143.697 C209.097,146.454 206.854,148.697 204.097,148.697 Z"/>
    <path fill="#E9886C" d="M204.097,139.697 C201.888,139.697 200.097,141.488 200.097,143.697 C200.097,145.906 201.888,147.697 204.097,147.697 C206.306,147.697 208.097,145.906 208.097,143.697 C208.097,141.488 206.306,139.697 204.097,139.697"/>
    <path fill="#E9886C" d="M204.097,140.697 C202.442,140.697 201.097,142.042 201.097,143.697 C201.097,145.351 202.442,146.697 204.097,146.697 C205.751,146.697 207.097,145.351 207.097,143.697 C207.097,142.042 205.751,140.697 204.097,140.697 Z M204.097,148.697 C201.34,148.697 199.097,146.454 199.097,143.697 C199.097,140.94 201.34,138.697 204.097,138.697 C206.854,138.697 209.097,140.94 209.097,143.697 C209.097,146.454 206.854,148.697 204.097,148.697 Z"/>
    <polygon fill="#42494E" points="177.099 144.697 204.097 144.697 204.097 142.697 177.099 142.697"/>
    <path fill="#42494E" d="M170.513,146.697 L173.685,146.697 L176.685,143.697 L173.685,140.697 L170.513,140.697 L173.513,143.697 L170.513,146.697 Z M174.513,148.697 L165.685,148.697 L170.685,143.697 L165.685,138.697 L174.513,138.697 L179.513,143.697 L174.513,148.697 Z"/>
    <path fill="#FACD60" d="M201.194 88.042C201.194 85.833 199.403 84.042 197.194 84.042 194.984 84.042 193.194 85.833 193.194 88.042 193.194 90.251 194.984 92.042 197.194 92.042 199.403 92.042 201.194 90.251 201.194 88.042M51.104 178.096C51.104 175.887 49.313 174.096 47.104 174.096 44.894 174.096 43.103 175.887 43.103 178.096 43.103 180.305 44.894 182.096 47.104 182.096 49.313 182.096 51.104 180.305 51.104 178.096"/>
    <path fill="#DBDBD5" d="M69.096,48.958 C68.759,48.958 68.43,48.99 68.105,49.037 L68.105,181.08 C68.433,181.055 68.763,181.041 69.096,181.041 C71.672,181.041 74.075,181.794 76.096,183.091 L76.096,55.958 C76.096,52.098 72.956,48.958 69.096,48.958"/>
  </g>
</svg>
