<svg xmlns="http://www.w3.org/2000/svg" width="250" height="250" viewBox="0 0 250 250">
  <g fill="none" fill-rule="evenodd">
    <path fill="#DBDBD5" d="M167.584,56.47 C167.584,71.381 179.672,83.47 194.584,83.47 C209.496,83.47 221.584,71.381 221.584,56.47 C221.584,41.558 209.496,29.47 194.584,29.47 C179.672,29.47 167.584,41.558 167.584,56.47"/>
    <path fill="#434A4F" d="M217.032,57.47 L213.032,57.47 C212.48,57.47 212.032,57.023 212.032,56.47 C212.032,55.917 212.48,55.47 213.032,55.47 L217.032,55.47 C217.585,55.47 218.032,55.917 218.032,56.47 C218.032,57.023 217.585,57.47 217.032,57.47"/>
    <path fill="#434A4F" d="M217.032 57.47L213.032 57.47C212.48 57.47 212.032 57.023 212.032 56.47 212.032 55.917 212.48 55.47 213.032 55.47L217.032 55.47C217.585 55.47 218.032 55.917 218.032 56.47 218.032 57.023 217.585 57.47 217.032 57.47M205.965 77.139C205.619 77.139 205.283 76.96 205.098 76.639L203.098 73.175C202.821 72.697 202.985 72.085 203.464 71.809 203.94 71.532 204.553 71.695 204.83 72.175L206.83 75.639C207.106 76.117 206.942 76.729 206.464 77.005 206.307 77.096 206.135 77.139 205.965 77.139M210.487 47.97C210.142 47.97 209.806 47.791 209.62 47.47 209.344 46.991 209.508 46.38 209.986 46.104L213.45 44.104C213.927 43.827 214.539 43.99 214.816 44.47 215.093 44.948 214.929 45.56 214.45 45.836L210.986 47.836C210.829 47.927 210.657 47.97 210.487 47.97M214.323 68.504C214.153 68.504 213.981 68.461 213.824 68.37L210.36 66.37C209.882 66.094 209.718 65.483 209.994 65.004 210.271 64.525 210.882 64.36 211.36 64.638L214.824 66.638C215.303 66.914 215.467 67.526 215.19 68.004 215.005 68.325 214.669 68.504 214.323 68.504M203.656 40.982C203.486 40.982 203.314 40.939 203.157 40.848 202.679 40.572 202.515 39.96 202.791 39.482L204.791 36.018C205.067 35.538 205.68 35.374 206.157 35.651 206.636 35.928 206.8 36.539 206.523 37.018L204.523 40.482C204.338 40.803 204.002 40.982 203.656 40.982"/>
    <polyline fill="#434A4F" points="195.531 71.47 193.531 71.47 193.531 54.47 204.531 54.47 204.531 56.47 195.531 56.47 195.531 71.47"/>
    <path fill="#434A4F" d="M194.581 38.47C194.028 38.47 193.581 38.023 193.581 37.47L193.581 33.47C193.581 32.917 194.028 32.47 194.581 32.47 195.134 32.47 195.581 32.917 195.581 33.47L195.581 37.47C195.581 38.023 195.134 38.47 194.581 38.47M194.582 80.47C194.029 80.47 193.582 80.023 193.582 79.47L193.582 75.47C193.582 74.917 194.029 74.47 194.582 74.47 195.135 74.47 195.582 74.917 195.582 75.47L195.582 79.47C195.582 80.023 195.135 80.47 194.582 80.47"/>
    <path fill="#434A4F" d="M194.581 38.47C194.028 38.47 193.581 38.023 193.581 37.47L193.581 33.47C193.581 32.917 194.028 32.47 194.581 32.47 195.134 32.47 195.581 32.917 195.581 33.47L195.581 37.47C195.581 38.023 195.134 38.47 194.581 38.47M194.582 80.47C194.029 80.47 193.582 80.023 193.582 79.47L193.582 75.47C193.582 74.917 194.029 74.47 194.582 74.47 195.135 74.47 195.582 74.917 195.582 75.47L195.582 79.47C195.582 80.023 195.135 80.47 194.582 80.47M183.148 77.139C182.978 77.139 182.806 77.096 182.648 77.005 182.17 76.729 182.006 76.117 182.282 75.639L184.282 72.175C184.559 71.695 185.171 71.532 185.648 71.809 186.127 72.085 186.291 72.697 186.015 73.175L184.015 76.639C183.829 76.96 183.493 77.139 183.148 77.139M178.625 47.97C178.455 47.97 178.283 47.927 178.126 47.836L174.662 45.836C174.184 45.56 174.02 44.948 174.296 44.47 174.572 43.99 175.184 43.827 175.662 44.104L179.126 46.104C179.605 46.38 179.769 46.991 179.492 47.47 179.307 47.791 178.971 47.97 178.625 47.97M185.457 40.982C185.111 40.982 184.775 40.803 184.59 40.482L182.59 37.018C182.314 36.539 182.478 35.928 182.956 35.651 183.433 35.374 184.045 35.538 184.322 36.018L186.322 39.482C186.599 39.96 186.435 40.572 185.956 40.848 185.799 40.939 185.627 40.982 185.457 40.982"/>
    <polyline fill="#FACD60" points="160.235 56.64 160.235 80.482 184.077 80.482"/>
    <polyline fill="#434A4F" points="185.077 200.695 68.741 200.695 68.741 98.52 70.741 98.52 70.741 198.695 183.077 198.695 183.077 80.897 159.821 57.64 70.741 57.64 70.741 92.687 68.741 92.687 68.741 55.64 160.649 55.64 185.077 80.068 185.077 200.695"/>
    <polygon fill="#434A4F" points="81.793 126.523 107.794 126.523 107.794 124.523 81.793 124.523"/>
    <polygon fill="#434A4F" points="129.748 90.527 151.748 90.527 151.748 88.527 129.748 88.527"/>
    <polygon fill="#434A4F" points="129.748 94.527 155.748 94.527 155.748 92.527 129.748 92.527"/>
    <path fill="#E9886C" d="M98.193,100.12 C98.135,100.352 96.935,106.445 96.861,106.961 L100.799,107.149 C100.725,106.632 99.616,100.352 99.558,100.12 C99.809,100.12 100.012,99.917 100.012,99.666 L100.012,98.529 L98.856,97.164 L97.739,98.529 L97.739,99.666 C97.739,99.917 97.942,100.12 98.193,100.12"/>
    <path fill="#DDDED9" d="M95.378,93.755 L95.378,94.749 L98.819,96.681 L102.229,94.805 L102.26,92.987 L102.26,91.454 C102.39,91.326 102.524,91.188 102.643,91.049 C102.603,91.084 102.563,91.12 102.53,91.156 C102.052,91.67 101.327,92.21 100.836,92.629 C100.447,92.961 99.956,93.144 99.446,93.15 L97.969,93.15 C97.459,93.144 96.968,92.961 96.579,92.629 C96.111,92.229 95.429,91.719 94.952,91.227 C94.937,91.212 94.921,91.197 94.905,91.182 C95.049,91.335 95.212,91.489 95.386,91.643 C95.383,91.644 95.378,91.646 95.378,91.651 L95.378,93.755"/>
    <path fill="#434A4F" d="M95.378,95.72 C94.825,95.72 94.378,95.273 94.378,94.72 L94.378,91.651 C94.378,91.098 94.825,90.651 95.378,90.651 C95.931,90.651 96.378,91.098 96.378,91.651 L96.378,94.72 C96.378,95.273 95.931,95.72 95.378,95.72"/>
    <path fill="#434A4F" d="M102.237,95.663 C101.685,95.663 101.237,95.216 101.237,94.663 L101.237,91.03 L101.535,90.738 C101.943,90.335 102.025,90.186 102.041,90.149 L103.592,86.979 L105.056,86.246 L105.255,85.255 L104.161,85.255 L104.284,84.084 C104.4,83.412 104.46,82.816 104.46,82.31 L104.46,82.055 C104.465,81.222 104.295,80.441 103.969,79.738 L103.87,79.526 C103.497,78.776 102.95,78.103 102.287,77.579 C101.285,76.79 100.081,76.368 98.806,76.361 C98.793,76.361 98.78,76.361 98.768,76.361 C97.302,76.361 95.904,76.947 94.827,78.018 C93.711,79.126 93.07,80.651 93.07,82.201 L93.07,82.31 C93.07,82.831 93.121,83.436 93.223,84.107 L93.396,85.255 L92.3,85.255 L92.587,86.258 L93.892,87.012 L95.346,90.086 C95.496,90.454 96.34,91.141 96.745,91.47 C96.918,91.61 97.083,91.744 97.229,91.868 C97.438,92.047 97.705,92.148 97.981,92.151 L99.449,92.151 C100.002,92.151 100.449,92.598 100.449,93.151 C100.449,93.703 100.002,94.151 99.449,94.151 L97.97,94.151 C97.215,94.142 96.494,93.871 95.93,93.39 C95.796,93.276 95.644,93.151 95.484,93.022 C94.497,92.22 93.777,91.596 93.504,90.863 L92.352,88.432 L90.886,87.586 L90.192,85.021 C90.192,84.347 90.572,83.76 91.128,83.462 C91.09,83.053 91.07,82.667 91.07,82.31 L91.07,82.201 C91.07,80.122 91.926,78.08 93.418,76.598 C94.872,75.154 96.771,74.36 98.767,74.36 C98.784,74.36 98.801,74.36 98.818,74.36 C100.543,74.371 102.171,74.942 103.525,76.009 C104.42,76.714 105.158,77.624 105.662,78.64 C105.707,78.73 105.748,78.818 105.788,78.906 C106.232,79.864 106.467,80.942 106.46,82.009 L106.46,82.31 C106.46,82.662 106.438,83.045 106.394,83.453 C106.554,83.538 106.701,83.648 106.831,83.781 C107.161,84.121 107.336,84.57 107.323,85.044 L107.304,85.213 L106.823,87.598 L105.09,88.465 L103.873,90.945 C103.766,91.241 103.52,91.555 103.237,91.857 L103.237,94.663 C103.237,95.216 102.79,95.663 102.237,95.663"/>
    <polyline fill="#434A4F" points="84.21 100.23 83.55 98.341 92.495 95.212 93.821 92.754 95.275 92.754 95.275 94.754 95.015 94.754 93.888 96.843 84.21 100.23"/>
    <path fill="#434A4F" d="M98.876,97.857 L94.893,95.625 C94.41,95.356 94.238,94.746 94.509,94.265 C94.777,93.783 95.386,93.609 95.869,93.881 L98.876,95.564 L101.749,93.955 C102.231,93.683 102.841,93.857 103.109,94.339 C103.38,94.82 103.208,95.43 102.726,95.699 L98.876,97.857"/>
    <polyline fill="#434A4F" points="113.614 99.846 103.886 96.894 102.58 94.754 102.286 94.754 102.286 92.754 103.703 92.754 105.196 95.2 114.194 97.932 113.614 99.846"/>
    <path fill="#434A4F" d="M100.922,100.439 C100.648,100.439 100.376,100.327 100.179,100.108 L98.876,98.659 L97.572,100.108 C97.204,100.52 96.571,100.552 96.16,100.182 C95.75,99.813 95.717,99.18 96.086,98.77 L98.876,95.669 L101.665,98.77 C102.035,99.181 102.001,99.813 101.591,100.182 C101.399,100.354 101.16,100.439 100.922,100.439"/>
    <path fill="#434A4F" d="M98.737,72.804 C89.452,72.804 81.897,80.359 81.897,89.644 C81.897,98.929 89.452,106.484 98.737,106.484 C108.023,106.484 115.576,98.929 115.576,89.644 C115.576,80.359 108.023,72.804 98.737,72.804 Z M98.737,108.484 C88.349,108.484 79.897,100.032 79.897,89.644 C79.897,79.255 88.349,70.804 98.737,70.804 C109.125,70.804 117.576,79.255 117.576,89.644 C117.576,100.032 109.125,108.484 98.737,108.484 Z"/>
    <polygon fill="#434A4F" points="203.567 194.521 205.567 194.521 205.567 190.521 203.567 190.521"/>
    <polygon fill="#434A4F" points="203.567 204.521 205.567 204.521 205.567 200.521 203.567 200.521"/>
    <polygon fill="#434A4F" points="207.567 198.521 211.567 198.521 211.567 196.521 207.567 196.521"/>
    <polygon fill="#434A4F" points="197.567 198.521 201.567 198.521 201.567 196.521 197.567 196.521"/>
    <polygon fill="#434A4F" points="53.565 130.544 55.565 130.544 55.565 126.544 53.565 126.544"/>
    <polygon fill="#434A4F" points="53.565 140.544 55.565 140.544 55.565 136.544 53.565 136.544"/>
    <polygon fill="#434A4F" points="57.565 134.544 61.565 134.544 61.565 132.544 57.565 132.544"/>
    <polygon fill="#434A4F" points="47.565 134.544 51.565 134.544 51.565 132.544 47.565 132.544"/>
    <path fill="#FACD60" d="M213.584 98.52C213.584 96.311 211.793 94.52 209.584 94.52 207.375 94.52 205.584 96.311 205.584 98.52 205.584 100.729 207.375 102.52 209.584 102.52 211.793 102.52 213.584 100.729 213.584 98.52M41.749 177.574C41.749 175.365 39.958 173.574 37.749 173.574 35.54 173.574 33.749 175.365 33.749 177.574 33.749 179.783 35.54 181.574 37.749 181.574 39.958 181.574 41.749 179.783 41.749 177.574"/>
    <path fill="#434A4F" d="M167.803,136.365 L172.236,140.799 L172.236,133.346 L164.783,133.346 L167.803,136.365 Z M77.417,186.11 L76.003,184.695 L88.914,171.784 L96.159,179.028 L117.895,157.294 L125.139,164.539 L146.874,142.805 L154.119,150.049 L166.389,137.779 L159.955,131.346 L174.236,131.346 L174.236,145.627 L167.803,139.194 L154.119,152.877 L146.874,145.633 L125.139,167.367 L117.895,160.122 L96.159,181.857 L88.914,174.612 L77.417,186.11 Z"/>
    <polyline fill="#FACD60" points="167.906 142.317 154.123 156.1 146.878 148.855 125.143 170.59 117.899 163.345 96.483 184.76 88.91 178.021 77.41 188.521 77.41 192.864 177.535 192.614 177.514 151.925 167.906 142.317"/>
    <polygon fill="#434A4F" points="81.793 130.526 107.794 130.526 107.794 128.526 81.793 128.526"/>
    <polygon fill="#434A4F" points="81.793 134.528 107.794 134.528 107.794 132.528 81.793 132.528"/>
    <path fill="#434A4F" d="M126.578 121.52C125.476 121.52 124.578 122.417 124.578 123.52 124.578 124.622 125.476 125.52 126.578 125.52 127.681 125.52 128.578 124.622 128.578 123.52 128.578 122.417 127.681 121.52 126.578 121.52zM126.578 127.52C124.372 127.52 122.578 125.726 122.578 123.52 122.578 121.314 124.372 119.52 126.578 119.52 128.784 119.52 130.578 121.314 130.578 123.52 130.578 125.726 128.784 127.52 126.578 127.52zM136.577 131.519C135.475 131.519 134.577 132.416 134.577 133.519 134.577 134.621 135.475 135.519 136.577 135.519 137.68 135.519 138.577 134.621 138.577 133.519 138.577 132.416 137.68 131.519 136.577 131.519zM136.577 137.519C134.371 137.519 132.577 135.725 132.577 133.519 132.577 131.313 134.371 129.519 136.577 129.519 138.783 129.519 140.577 131.313 140.577 133.519 140.577 135.725 138.783 137.519 136.577 137.519z"/>
    <polyline fill="#434A4F" points="124.285 137.227 122.871 135.813 138.871 119.813 140.285 121.227 124.285 137.227"/>
    <path fill="#42494E" d="M98.586,152.475 L33.416,152.477 C31.762,152.477 30.416,153.822 30.416,155.477 C30.416,157.131 31.762,158.477 33.416,158.477 L98.587,158.475 L105.093,155.475 L98.586,152.475 Z M33.416,160.477 C30.659,160.477 28.416,158.234 28.416,155.477 C28.416,152.72 30.659,150.477 33.416,150.477 L99.025,150.475 L109.868,155.475 L99.026,160.475 L33.416,160.477 Z"/>
    <polyline fill="#42494E" points="39.026 159.477 39.025 151.878 41.025 151.878 41.026 159.477 39.026 159.477"/>
    <polyline fill="#42494E" points="40.025 156.447 40.025 154.447 98.037 154.446 98.037 156.446 40.025 156.447"/>
    <polygon fill="#434A4F" points="101.506 210.53 103.506 210.53 103.506 206.53 101.506 206.53"/>
    <polygon fill="#434A4F" points="101.506 220.53 103.506 220.53 103.506 216.53 101.506 216.53"/>
    <polygon fill="#434A4F" points="105.506 214.53 109.506 214.53 109.506 212.53 105.506 212.53"/>
    <polygon fill="#434A4F" points="95.506 214.53 99.506 214.53 99.506 212.53 95.506 212.53"/>
    <path fill="#434A4F" d="M175.584 57.47L171.584 57.47C171.031 57.47 170.584 57.023 170.584 56.47 170.584 55.917 171.031 55.47 171.584 55.47L175.584 55.47C176.137 55.47 176.584 55.917 176.584 56.47 176.584 57.023 176.137 57.47 175.584 57.47M174.121 68.504C173.775 68.504 173.439 68.325 173.254 68.004 172.978 67.526 173.142 66.914 173.62 66.638L177.084 64.638C177.561 64.36 178.173 64.525 178.45 65.004 178.727 65.483 178.563 66.094 178.084 66.37L174.62 68.37C174.463 68.461 174.291 68.504 174.121 68.504M69.667 96.477C69.114 96.477 68.667 96.072 68.667 95.52L68.667 95.435C68.667 94.882 69.114 94.435 69.667 94.435 70.22 94.435 70.667 94.882 70.667 95.435 70.667 95.988 70.22 96.477 69.667 96.477"/>
  </g>
</svg>
