<svg xmlns="http://www.w3.org/2000/svg" width="250" height="250" viewBox="0 0 250 250">
  <g fill="none" fill-rule="evenodd">
    <path fill="#DDDED9" d="M162.912 133.763C165.54 129.214 167.047 123.94 167.047 118.318 167.047 116.612 166.903 114.94 166.636 113.308 165.625 119.512 162.77 125.104 158.647 129.498L162.912 133.763M187.84 164.471C186.919 164.382 186.061 163.999 185.399 163.336L165.688 143.625 164.228 145.085 158.647 139.504C159.812 138.263 160.87 136.92 161.821 135.5L157.233 130.913C151.686 136.116 144.235 139.312 136.047 139.312 120.657 139.312 107.856 128.038 105.457 113.315 105.191 114.945 105.047 116.615 105.047 118.318 105.047 135.412 118.954 149.318 136.047 149.318 144.235 149.318 151.686 146.122 157.233 140.918L162.814 146.499 160.685 148.628 185.399 173.342C186.154 174.098 187.159 174.514 188.227 174.514 189.296 174.514 190.3 174.098 191.056 173.342 192.615 171.783 192.615 169.245 191.056 167.685L187.84 164.471"/>
    <path fill="#FACD60" d="M207.209 160.58C207.209 162.237 205.866 163.58 204.209 163.58 202.552 163.58 201.209 162.237 201.209 160.58 201.209 158.923 202.552 157.58 204.209 157.58 205.866 157.58 207.209 158.923 207.209 160.58M72.057 199.635C72.057 201.292 70.714 202.635 69.057 202.635 67.4 202.635 66.057 201.292 66.057 199.635 66.057 197.978 67.4 196.635 69.057 196.635 70.714 196.635 72.057 197.978 72.057 199.635"/>
    <path fill="#E9886C" d="M37.033,90.372 C37.033,91.476 36.138,92.372 35.033,92.372 C33.929,92.372 33.033,91.476 33.033,90.372 C33.033,89.267 33.929,88.372 35.033,88.372 C36.138,88.372 37.033,89.267 37.033,90.372"/>
    <polygon fill="#434A4F" points="63.048 86.669 65.048 86.669 65.048 82.669 63.048 82.669"/>
    <polygon fill="#434A4F" points="63.048 96.669 65.048 96.669 65.048 92.669 63.048 92.669"/>
    <polygon fill="#434A4F" points="67.048 90.669 71.048 90.669 71.048 88.669 67.048 88.669"/>
    <polygon fill="#434A4F" points="57.048 90.669 61.048 90.669 61.048 88.669 57.048 88.669"/>
    <polyline fill="#FACD60" points="163.725 45.526 163.725 69.368 187.567 69.368"/>
    <path fill="#434A4F" d="M188.699 184.699L82.237 184.699 82.237 44.525 98.926 44.525C99.478 44.525 99.926 44.973 99.926 45.525 99.926 46.078 99.478 46.525 98.926 46.525L84.237 46.525 84.237 182.699 186.699 182.699 186.699 171.511C186.699 170.958 187.147 170.511 187.699 170.511 188.252 170.511 188.699 170.958 188.699 171.511L188.699 184.699M187.567 150.509C187.015 150.509 186.567 150.062 186.567 149.509L186.567 137.848C186.567 137.295 187.015 136.848 187.567 136.848 188.119 136.848 188.567 137.295 188.567 137.848L188.567 149.509C188.567 150.062 188.119 150.509 187.567 150.509"/>
    <polyline fill="#434A4F" points="188.567 79.512 186.567 79.512 186.567 69.782 163.31 46.525 108.446 46.525 108.446 44.525 164.138 44.525 188.567 68.954 188.567 79.512"/>
    <path fill="#434A4F" d="M103.681,46.522 C103.541,46.522 103.411,46.501 103.291,46.451 C103.171,46.402 103.061,46.321 102.971,46.232 C102.781,46.041 102.681,45.791 102.681,45.522 C102.681,45.392 102.701,45.262 102.751,45.142 C102.801,45.022 102.881,44.911 102.971,44.821 C103.061,44.722 103.171,44.651 103.291,44.602 C103.351,44.581 103.421,44.562 103.481,44.541 C103.671,44.501 103.881,44.531 104.061,44.602 C104.181,44.651 104.291,44.722 104.381,44.821 C104.481,44.911 104.551,45.022 104.601,45.142 C104.651,45.262 104.681,45.392 104.681,45.522 C104.681,45.791 104.571,46.041 104.381,46.232 C104.191,46.422 103.941,46.522 103.681,46.522"/>
    <polygon fill="#434A4F" points="97.567 81.428 115.566 81.428 115.566 79.428 97.567 79.428"/>
    <polygon fill="#434A4F" points="97.567 65.428 131.567 65.428 131.567 63.428 97.567 63.428"/>
    <polygon fill="#434A4F" points="97.567 69.428 117.567 69.428 117.567 67.428 97.567 67.428"/>
    <path fill="#E9886C" d="M135.161,123.174 C135.087,123.471 132.975,133.348 132.88,134.008 L138.714,134.008 C138.619,133.348 136.98,123.471 136.906,123.174 C137.227,123.174 137.487,122.914 137.487,122.593 L137.487,121.139 L136.009,119.393 L134.58,121.139 L134.58,122.593 C134.58,122.914 134.84,123.174 135.161,123.174"/>
    <path fill="#434A4F" d="M136.047,79.313 C120.056,79.313 107.047,92.322 107.047,108.313 C107.047,124.303 120.056,137.313 136.047,137.313 C152.038,137.313 165.047,124.303 165.047,108.313 C165.047,92.322 152.038,79.313 136.047,79.313 Z M136.047,139.313 C118.954,139.313 105.047,125.406 105.047,108.313 C105.047,91.219 118.954,77.313 136.047,77.313 C153.14,77.313 167.047,91.219 167.047,108.313 C167.047,125.406 153.14,139.313 136.047,139.313 Z"/>
    <path fill="#434A4F" d="M136.047,83.313 C122.262,83.313 111.047,94.527 111.047,108.313 C111.047,122.098 122.262,133.313 136.047,133.313 C149.832,133.313 161.047,122.098 161.047,108.313 C161.047,94.527 149.832,83.313 136.047,83.313 Z M136.047,135.313 C121.159,135.313 109.047,123.2 109.047,108.313 C109.047,93.425 121.159,81.313 136.047,81.313 C150.935,81.313 163.047,93.425 163.047,108.313 C163.047,123.2 150.935,135.313 136.047,135.313 Z"/>
    <path fill="#434A4F" d="M115.047 108.313L113.047 108.313C113.047 95.63 123.365 85.313 136.047 85.313L136.047 87.313C124.468 87.313 115.047 96.733 115.047 108.313M139.051 87.312C138.781 87.312 138.531 87.211 138.341 87.022 138.151 86.831 138.051 86.581 138.051 86.312 138.051 86.182 138.071 86.052 138.121 85.932 138.171 85.812 138.251 85.701 138.341 85.602 138.611 85.331 139.061 85.241 139.431 85.392 139.551 85.442 139.661 85.512 139.751 85.602 139.851 85.701 139.921 85.812 139.971 85.932 140.021 86.052 140.051 86.182 140.051 86.312 140.051 86.442 140.021 86.571 139.971 86.692 139.921 86.812 139.851 86.922 139.751 87.022 139.661 87.112 139.551 87.182 139.431 87.241 139.311 87.291 139.181 87.312 139.051 87.312M114.051 112.312C113.911 112.312 113.781 112.291 113.661 112.241 113.541 112.192 113.431 112.111 113.341 112.022 113.251 111.922 113.171 111.821 113.121 111.692 113.071 111.571 113.041 111.442 113.041 111.312 113.041 111.052 113.151 110.791 113.341 110.602 113.571 110.371 113.921 110.272 114.241 110.331 114.311 110.342 114.371 110.361 114.431 110.392 114.491 110.411 114.551 110.442 114.601 110.482 114.661 110.522 114.711 110.562 114.751 110.602 114.941 110.791 115.051 111.052 115.051 111.312 115.051 111.442 115.021 111.571 114.971 111.692 114.921 111.821 114.851 111.922 114.751 112.022 114.561 112.211 114.311 112.312 114.051 112.312"/>
    <polyline fill="#434A4F" points="163.59 137.27 156.549 130.228 157.963 128.814 165.004 135.856 163.59 137.27"/>
    <path fill="#434A4F" d="M163.513,138.622 L186.813,161.922 C187.569,162.678 188.885,162.678 189.641,161.922 C190.019,161.544 190.227,161.042 190.227,160.508 C190.227,159.974 190.019,159.472 189.641,159.094 L166.342,135.794 L163.513,138.622 Z M188.227,164.508 C187.159,164.508 186.154,164.092 185.399,163.336 L160.685,138.622 L166.342,132.966 L191.055,157.68 C191.811,158.436 192.227,159.44 192.227,160.508 C192.227,161.576 191.811,162.581 191.055,163.336 C190.3,164.092 189.296,164.508 188.227,164.508 Z"/>
    <polyline fill="#434A4F" points="184.69 161.217 183.276 159.803 187.52 155.559 188.934 156.973 184.69 161.217"/>
    <polyline fill="#434A4F" points="165.623 142.151 164.209 140.736 168.453 136.491 169.867 137.905 165.623 142.151"/>
    <path fill="#DDDED9" d="M131.562,115.035 L131.562,116.305 L135.961,118.777 L140.322,116.378 L140.361,114.053 L140.361,112.093 C140.528,111.929 140.698,111.753 140.852,111.575 C140.799,111.62 140.749,111.666 140.706,111.712 C140.095,112.37 139.168,113.059 138.54,113.596 C138.043,114.02 137.415,114.254 136.763,114.262 L134.875,114.262 C134.222,114.254 133.594,114.02 133.098,113.596 C132.499,113.084 131.627,112.432 131.017,111.802 C130.998,111.783 130.977,111.764 130.957,111.745 C131.14,111.94 131.35,112.138 131.573,112.334 C131.568,112.336 131.562,112.339 131.562,112.344 L131.562,115.035"/>
    <path fill="#434A4F" d="M131.562,117.269 C131.01,117.269 130.562,116.821 130.562,116.269 L130.562,112.344 C130.562,111.791 131.01,111.344 131.562,111.344 C132.114,111.344 132.562,111.791 132.562,112.344 L132.562,116.269 C132.562,116.821 132.114,117.269 131.562,117.269"/>
    <path fill="#434A4F" d="M140.332,117.196 C139.78,117.196 139.332,116.749 139.332,116.196 L139.332,111.669 L139.63,111.375 C140.171,110.841 140.307,110.614 140.34,110.527 L142.272,106.577 L144.182,105.622 L144.542,103.835 L144.209,103.888 L143.019,103.888 L143.223,102.716 C143.375,101.846 143.452,101.068 143.452,100.401 L143.452,100.074 C143.46,98.97 143.234,97.931 142.8,96.995 C142.754,96.895 142.714,96.809 142.671,96.724 C142.175,95.723 141.448,94.828 140.569,94.134 C139.24,93.086 137.64,92.526 135.946,92.515 C135.929,92.515 135.912,92.515 135.896,92.515 C133.948,92.515 132.092,93.295 130.662,94.715 C129.182,96.185 128.333,98.206 128.333,100.262 L128.333,100.401 C128.333,101.085 128.399,101.871 128.531,102.738 L128.704,103.888 L127.257,103.888 L127.756,105.634 L129.447,106.61 L131.268,110.462 C131.461,110.969 132.508,111.82 133.134,112.328 C133.353,112.507 133.563,112.678 133.747,112.835 C134.064,113.106 134.469,113.257 134.887,113.262 L136.767,113.262 C137.319,113.262 137.767,113.709 137.767,114.262 C137.767,114.815 137.319,115.262 136.767,115.262 L134.875,115.262 C133.978,115.251 133.12,114.93 132.448,114.357 C132.275,114.208 132.078,114.049 131.872,113.881 C130.842,113.043 129.777,112.177 129.427,111.239 L127.906,108.03 L126.054,106.962 L125.21,103.866 C125.21,103.046 125.712,102.341 126.425,102.041 C126.364,101.456 126.333,100.906 126.333,100.401 L126.333,100.262 C126.333,97.678 127.397,95.139 129.253,93.295 C131.075,91.486 133.415,90.49 135.959,90.515 C138.103,90.529 140.125,91.238 141.807,92.564 C142.918,93.441 143.836,94.57 144.462,95.832 C144.515,95.94 144.569,96.053 144.619,96.166 C145.171,97.355 145.462,98.69 145.453,100.016 L145.452,100.401 C145.452,100.9 145.417,101.445 145.346,102.03 C145.592,102.131 145.816,102.281 146.007,102.478 C146.376,102.858 146.572,103.36 146.556,103.889 L146.537,104.058 L145.949,106.974 L143.77,108.064 L142.174,111.319 C142.035,111.699 141.705,112.106 141.332,112.497 L141.332,116.196 C141.332,116.749 140.884,117.196 140.332,117.196"/>
    <polyline fill="#434A4F" points="115.543 123.619 114.884 121.731 128.07 117.124 129.738 114.033 131.43 114.033 131.43 116.033 130.931 116.033 129.461 118.757 115.543 123.619"/>
    <path fill="#434A4F" d="M136.034,119.959 L131.077,117.183 C130.595,116.913 130.423,116.304 130.693,115.822 C130.962,115.341 131.574,115.169 132.053,115.439 L136.034,117.666 L139.844,115.533 C140.327,115.264 140.935,115.436 141.205,115.917 C141.475,116.399 141.303,117.008 140.822,117.277 L136.034,119.959"/>
    <polyline fill="#434A4F" points="157.434 123.135 142.626 118.817 140.927 116.033 140.394 116.033 140.394 114.033 142.049 114.033 143.929 117.113 157.993 121.215 157.434 123.135"/>
    <path fill="#434A4F" d="M138.651,123.302 C138.377,123.302 138.104,123.191 137.907,122.971 L136.034,120.89 L134.16,122.971 C133.792,123.381 133.159,123.414 132.748,123.045 C132.338,122.676 132.304,122.043 132.674,121.633 L136.034,117.9 L139.393,121.633 C139.763,122.043 139.73,122.676 139.319,123.045 C139.128,123.217 138.889,123.302 138.651,123.302"/>
    <path fill="#434A4F" d="M183.045,188.702 L78.234,188.702 L78.234,49.529 C78.234,48.976 78.682,48.529 79.234,48.529 C79.786,48.529 80.234,48.976 80.234,49.529 L80.234,186.702 L183.045,186.702 C183.597,186.702 184.045,187.15 184.045,187.702 C184.045,188.255 183.597,188.702 183.045,188.702"/>
    <path fill="#434A4F" d="M179.043,192.704 L74.232,192.704 L74.232,53.53 C74.232,52.978 74.679,52.53 75.232,52.53 C75.784,52.53 76.232,52.978 76.232,53.53 L76.232,190.704 L179.043,190.704 C179.595,190.704 180.043,191.152 180.043,191.704 C180.043,192.257 179.595,192.704 179.043,192.704"/>
    <path fill="#42494E" d="M110.137,197.477 C109.336,197.477 108.583,197.788 108.016,198.355 C107.449,198.922 107.138,199.675 107.138,200.477 C107.138,202.131 108.484,203.477 110.138,203.477 L210.687,203.476 L217.193,200.477 L210.687,197.477 L110.137,197.477 Z M110.138,205.477 C107.381,205.477 105.138,203.234 105.138,200.477 C105.137,199.141 105.657,197.885 106.602,196.941 C107.546,195.996 108.802,195.477 110.137,195.477 L211.125,195.477 L221.969,200.477 L211.126,205.476 L110.138,205.477 Z"/>
    <polygon fill="#42494E" points="115.748 204.477 117.748 204.477 117.748 196.878 115.748 196.878"/>
    <polygon fill="#42494E" points="116.748 201.447 210.138 201.447 210.138 199.447 116.748 199.447"/>
    <polygon fill="#434A4F" points="97.567 85.431 108.562 85.431 108.562 83.431 97.567 83.431"/>
    <polygon fill="#434A4F" points="101.57 153.472 165.596 153.472 165.596 151.472 101.57 151.472"/>
    <polygon fill="#434A4F" points="101.57 157.474 165.596 157.474 165.596 155.474 101.57 155.474"/>
    <polygon fill="#434A4F" points="101.57 161.477 165.596 161.477 165.596 159.477 101.57 159.477"/>
    <polygon fill="#434A4F" points="101.57 165.479 165.596 165.479 165.596 163.479 101.57 163.479"/>
    <polygon fill="#434A4F" points="99.568 175.485 123.571 175.485 123.571 173.485 99.568 173.485"/>
    <path fill="#434A4F" d="M186.458,131.8 L190.31,133.051 L191.026,130.848 C191.677,128.84 193.462,127.543 195.573,127.542 C195.573,127.542 195.573,127.542 195.574,127.542 C197.684,127.542 199.469,128.839 200.121,130.845 L200.837,133.047 L204.689,131.794 L203.972,129.592 C203.32,127.585 204.001,125.486 205.708,124.245 C207.414,123.005 209.62,123.004 211.329,124.243 L213.301,125.629 L215.68,122.352 L213.721,120.975 C212.001,119.726 211.319,117.627 211.97,115.62 C212.622,113.612 214.406,112.316 216.517,112.315 L218.833,112.314 L218.832,108.263 L216.516,108.264 C216.515,108.264 216.515,108.264 216.514,108.264 C214.404,108.264 212.619,106.968 211.967,104.961 C211.314,102.954 211.995,100.857 213.702,99.615 L215.575,98.253 L213.253,95.058 L211.38,96.42 C209.674,97.661 207.468,97.663 205.759,96.422 C204.051,95.183 203.368,93.084 204.019,91.077 L204.734,88.874 L200.881,87.624 L200.166,89.827 C199.515,91.835 197.746,93.126 195.618,93.133 C193.509,93.133 191.724,91.837 191.071,89.831 L190.355,87.629 L186.503,88.882 L187.219,91.084 C187.872,93.091 187.191,95.19 185.484,96.431 C183.777,97.672 181.571,97.673 179.863,96.434 L177.989,95.072 L175.609,98.351 L177.484,99.711 C179.192,100.951 179.874,103.049 179.223,105.057 C178.572,107.064 176.787,108.361 174.677,108.362 L172.361,108.363 L172.362,112.414 L174.678,112.413 C174.679,112.413 174.68,112.413 174.681,112.413 C176.79,112.413 178.574,113.709 179.227,115.715 C179.88,117.722 179.198,119.82 177.491,121.062 L175.619,122.424 L177.94,125.616 L179.812,124.254 C181.519,123.012 183.726,123.012 185.434,124.252 C187.141,125.492 187.824,127.59 187.173,129.598 L186.458,131.8 Z M191.595,135.57 L183.938,133.085 L185.27,128.981 C185.73,127.563 185.05,126.444 184.259,125.87 C183.468,125.296 182.194,124.996 180.989,125.871 L177.498,128.409 L172.825,121.983 L176.315,119.444 C177.521,118.568 177.627,117.263 177.325,116.334 C177.023,115.405 176.169,114.413 174.681,114.413 C174.68,114.413 174.679,114.413 174.679,114.413 L170.363,114.414 L170.36,106.363 L174.676,106.362 C176.166,106.361 177.019,105.368 177.321,104.44 C177.622,103.51 177.514,102.205 176.309,101.33 L172.816,98.794 L177.546,92.279 L181.038,94.815 C182.245,95.692 183.518,95.389 184.308,94.814 C185.098,94.239 185.779,93.12 185.317,91.703 L183.982,87.599 L191.638,85.108 L192.973,89.212 C193.434,90.628 194.641,91.133 195.618,91.133 L195.619,91.133 C196.596,91.133 197.804,90.627 198.264,89.21 L199.596,85.105 L207.254,87.589 L205.922,91.695 C205.462,93.111 206.143,94.23 206.933,94.804 C207.723,95.376 208.997,95.677 210.204,94.803 L213.694,92.265 L218.369,98.695 L214.878,101.233 C213.673,102.109 213.567,103.414 213.869,104.343 C214.171,105.272 215.025,106.264 216.514,106.264 L216.515,106.264 L220.831,106.263 L220.834,114.314 L216.518,114.315 C215.028,114.315 214.175,115.308 213.873,116.237 C213.571,117.167 213.678,118.472 214.884,119.347 L218.491,121.885 L213.761,128.399 L210.166,125.871 C208.948,124.986 207.675,125.289 206.884,125.863 C206.094,126.438 205.414,127.556 205.875,128.973 L207.21,133.077 L199.554,135.569 L198.219,131.464 C197.758,130.047 196.551,129.542 195.574,129.542 C195.573,129.542 195.573,129.542 195.573,129.542 C194.596,129.542 193.388,130.048 192.928,131.465 L191.595,135.57 Z"/>
    <path fill="#42494E" d="M186.254,117.194 C182.496,112.027 183.644,104.765 188.811,101.007 C191.316,99.187 194.379,98.451 197.435,98.933 C200.493,99.415 203.179,101.06 204.999,103.564 L203.382,104.739 C201.876,102.668 199.653,101.308 197.123,100.908 C194.594,100.508 192.059,101.117 189.988,102.624 C185.712,105.734 184.762,111.742 187.871,116.019 L186.254,117.194"/>
    <path fill="#E9886C" d="M195.601,106.839 C194.516,106.839 193.446,107.341 192.762,108.284 C192.214,109.041 191.993,109.967 192.14,110.89 C192.288,111.814 192.786,112.623 193.543,113.172 C194.301,113.72 195.224,113.944 196.149,113.794 C197.072,113.647 197.883,113.149 198.431,112.392 C199.563,110.829 199.213,108.636 197.65,107.504 C197.031,107.056 196.313,106.839 195.601,106.839 Z M195.583,116.839 C194.225,116.839 192.905,116.414 191.783,115.602 C190.377,114.583 189.452,113.078 189.178,111.363 C188.904,109.649 189.314,107.931 190.333,106.525 C191.351,105.118 192.857,104.194 194.571,103.919 C196.287,103.65 198.003,104.056 199.41,105.074 C200.816,106.093 201.741,107.598 202.015,109.313 C202.289,111.027 201.879,112.745 200.861,114.152 C199.842,115.558 198.337,116.483 196.622,116.757 C196.275,116.812 195.928,116.839 195.583,116.839 Z"/>
    <path fill="#434A4F" d="M196.341 97.352C195.781 97.321 195.361 96.852 195.391 96.302 195.421 95.751 195.901 95.331 196.451 95.361 197.001 95.392 197.421 95.861 197.391 96.411 197.361 96.942 196.921 97.361 196.391 97.361 196.371 97.361 196.351 97.352 196.341 97.352zM191.451 96.922C191.321 96.392 191.661 95.852 192.191 95.722 192.191 95.722 192.191 95.722 192.191 95.732 192.731 95.602 193.271 95.932 193.391 96.472 193.521 97.012 193.181 97.552 192.651 97.672 192.571 97.692 192.491 97.701 192.421 97.701 191.971 97.701 191.551 97.392 191.451 96.922zM199.961 98.092C199.441 97.901 199.171 97.331 199.361 96.812 199.541 96.291 200.111 96.012 200.641 96.201 201.151 96.392 201.421 96.961 201.241 97.482 201.091 97.892 200.711 98.142 200.301 98.142 200.191 98.142 200.071 98.132 199.961 98.092zM187.831 98.632C187.561 98.151 187.731 97.541 188.211 97.272 188.211 97.272 188.211 97.272 188.221 97.272 188.701 97.001 189.301 97.172 189.581 97.651 189.851 98.132 189.681 98.741 189.201 99.012 189.041 99.102 188.871 99.142 188.711 99.142 188.361 99.142 188.021 98.961 187.831 98.632zM203.221 99.812C202.781 99.491 202.671 98.861 203.001 98.411 203.321 97.961 203.951 97.861 204.401 98.192 204.841 98.512 204.941 99.142 204.621 99.592 204.421 99.861 204.121 100.001 203.811 100.001 203.601 100.001 203.401 99.942 203.221 99.812zM184.851 101.302C184.461 100.911 184.451 100.281 184.831 99.882 184.831 99.882 184.831 99.882 184.831 99.892 185.221 99.491 185.851 99.482 186.251 99.861 186.641 100.251 186.651 100.882 186.271 101.281 186.071 101.482 185.811 101.581 185.551 101.581 185.301 101.581 185.051 101.491 184.851 101.302zM205.881 102.382C205.541 101.942 205.621 101.321 206.061 100.982 206.501 100.642 207.131 100.722 207.471 101.161 207.801 101.592 207.721 102.222 207.291 102.562 207.101 102.701 206.891 102.772 206.681 102.772 206.381 102.772 206.081 102.642 205.881 102.382zM182.741 104.692C182.251 104.432 182.071 103.831 182.321 103.342 182.581 102.852 183.191 102.661 183.681 102.922 184.161 103.182 184.351 103.781 184.091 104.272 183.911 104.611 183.561 104.812 183.211 104.812 183.051 104.812 182.891 104.772 182.741 104.692zM207.701 105.602C207.501 105.092 207.761 104.512 208.271 104.312 208.791 104.111 209.371 104.361 209.571 104.882 209.771 105.392 209.511 105.972 209.001 106.172 208.881 106.222 208.761 106.241 208.641 106.241 208.241 106.241 207.861 106.001 207.701 105.602zM181.671 108.541C181.131 108.432 180.781 107.902 180.891 107.361 181.001 106.821 181.521 106.472 182.071 106.581 182.611 106.692 182.961 107.211 182.851 107.762 182.751 108.232 182.341 108.562 181.871 108.562 181.801 108.562 181.741 108.552 181.671 108.541zM208.551 109.211C208.501 108.661 208.901 108.172 209.461 108.132 210.011 108.081 210.491 108.482 210.541 109.031 210.591 109.581 210.181 110.071 209.631 110.121 209.601 110.121 209.571 110.121 209.541 110.121 209.031 110.121 208.591 109.732 208.551 109.211zM180.651 111.632C180.601 111.081 181.011 110.592 181.561 110.541 182.111 110.501 182.591 110.902 182.641 111.451 182.691 112.001 182.281 112.491 181.731 112.541 181.701 112.541 181.681 112.541 181.651 112.541 181.131 112.541 180.691 112.152 180.651 111.632zM209.121 114.081C208.581 113.972 208.231 113.442 208.341 112.911 208.451 112.361 208.981 112.012 209.521 112.121 210.061 112.232 210.411 112.762 210.301 113.302 210.211 113.772 209.791 114.102 209.321 114.102 209.261 114.102 209.191 114.102 209.121 114.081zM181.621 115.781C181.421 115.272 181.671 114.692 182.191 114.491 182.701 114.291 183.281 114.541 183.481 115.062 183.681 115.571 183.431 116.152 182.911 116.352 182.791 116.402 182.671 116.422 182.551 116.422 182.151 116.422 181.771 116.182 181.621 115.781zM207.521 117.741C207.031 117.482 206.841 116.882 207.101 116.392 207.361 115.902 207.961 115.711 208.451 115.972 208.941 116.232 209.131 116.831 208.871 117.321 208.691 117.661 208.341 117.861 207.981 117.861 207.831 117.861 207.671 117.821 207.521 117.741zM183.721 119.501C183.381 119.071 183.461 118.442 183.901 118.102 184.341 117.762 184.961 117.842 185.301 118.281 185.641 118.711 185.561 119.342 185.121 119.682 184.941 119.821 184.721 119.892 184.511 119.892 184.211 119.892 183.921 119.762 183.721 119.501zM204.951 120.802C204.551 120.422 204.541 119.781 204.931 119.392 205.311 118.991 205.951 118.982 206.341 119.361 206.741 119.751 206.751 120.382 206.371 120.781 206.171 120.982 205.911 121.081 205.641 121.081 205.391 121.081 205.141 120.991 204.951 120.802zM186.791 122.482C186.791 122.482 186.791 122.482 186.791 122.472 186.341 122.152 186.241 121.522 186.561 121.081 186.891 120.632 187.511 120.531 187.961 120.861 188.411 121.182 188.511 121.812 188.181 122.251 187.991 122.522 187.681 122.672 187.371 122.672 187.171 122.672 186.961 122.602 186.791 122.482zM201.621 123.012C201.351 122.531 201.521 121.922 202.001 121.652 202.481 121.382 203.091 121.552 203.361 122.031 203.631 122.512 203.461 123.121 202.981 123.392 202.831 123.482 202.661 123.522 202.491 123.522 202.141 123.522 201.801 123.342 201.621 123.012zM190.561 124.472C190.041 124.281 189.771 123.711 189.961 123.192 190.141 122.672 190.711 122.402 191.231 122.581 191.751 122.772 192.031 123.342 191.841 123.861 191.701 124.272 191.311 124.531 190.901 124.531 190.791 124.531 190.671 124.512 190.561 124.472zM197.801 124.192C197.681 123.661 198.011 123.121 198.551 122.991 199.091 122.871 199.631 123.201 199.751 123.741 199.881 124.281 199.541 124.821 199.011 124.942 199.011 124.942 199.011 124.942 199.001 124.942 198.931 124.961 198.851 124.972 198.781 124.972 198.321 124.972 197.911 124.661 197.801 124.192zM194.751 125.312C194.201 125.281 193.781 124.812 193.811 124.262 193.841 123.711 194.311 123.281 194.861 123.312 195.411 123.342 195.841 123.821 195.801 124.371 195.771 124.902 195.331 125.312 194.811 125.312 194.791 125.312 194.771 125.312 194.751 125.312zM187.567 83.514C187.015 83.514 186.567 83.067 186.567 82.514L186.567 82.376C186.567 81.823 187.015 81.376 187.567 81.376 188.119 81.376 188.567 81.823 188.567 82.376L188.567 82.514C188.567 83.067 188.119 83.514 187.567 83.514M187.567 168.565C187.015 168.565 186.567 168.117 186.567 167.565L186.567 167.427C186.567 166.874 187.015 166.427 187.567 166.427 188.119 166.427 188.567 166.874 188.567 167.427L188.567 167.565C188.567 168.117 188.119 168.565 187.567 168.565"/>
    <polygon fill="#434A4F" points="213.138 142.703 215.138 142.703 215.138 138.703 213.138 138.703"/>
    <polygon fill="#434A4F" points="213.138 152.703 215.138 152.703 215.138 148.703 213.138 148.703"/>
    <polygon fill="#434A4F" points="217.138 146.703 221.138 146.703 221.138 144.703 217.138 144.703"/>
    <polygon fill="#434A4F" points="207.138 146.703 211.138 146.703 211.138 144.703 207.138 144.703"/>
    <path fill="#42494E" d="M30.031,180.477 L70.027,180.477 L70.027,129.477 L30.031,129.477 L30.031,180.477 Z M28.031,182.477 L72.027,182.477 L72.027,127.477 L28.031,127.477 L28.031,182.477 Z"/>
    <polyline fill="#42494E" points="72.027 186.477 28.031 186.477 28.031 180.477 30.031 180.477 30.031 184.477 70.027 184.477 70.027 180.477 72.027 180.477 72.027 186.477"/>
    <path fill="#42494E" d="M61.045 133.477L60.045 133.477 60.045 131.477 61.045 131.477C62.7 131.477 64.045 130.131 64.045 128.477 64.045 126.822 62.7 125.477 61.045 125.477 59.391 125.477 58.045 126.822 58.045 128.477L58.045 129.477 56.045 129.477 56.045 128.477C56.045 125.72 58.288 123.477 61.045 123.477 63.802 123.477 66.045 125.72 66.045 128.477 66.045 131.234 63.802 133.477 61.045 133.477M50.039 133.477L49.039 133.477 49.039 131.477 50.039 131.477C51.693 131.477 53.039 130.131 53.039 128.477 53.039 126.822 51.693 125.477 50.039 125.477 48.384 125.477 47.039 126.822 47.039 128.477L47.039 129.477 45.039 129.477 45.039 128.477C45.039 125.72 47.282 123.477 50.039 123.477 52.796 123.477 55.039 125.72 55.039 128.477 55.039 131.234 52.796 133.477 50.039 133.477M39.032 133.477L38.032 133.477 38.032 131.477 39.032 131.477C40.686 131.477 42.032 130.131 42.032 128.477 42.032 126.822 40.686 125.477 39.032 125.477 37.378 125.477 36.032 126.822 36.032 128.477L36.032 129.477 34.032 129.477 34.032 128.477C34.032 125.72 36.275 123.477 39.032 123.477 41.789 123.477 44.032 125.72 44.032 128.477 44.032 131.234 41.789 133.477 39.032 133.477M34.032 149.482C33.761 149.482 33.511 149.371 33.321 149.182 33.231 149.092 33.151 148.982 33.101 148.861 33.051 148.741 33.032 148.611 33.032 148.482 33.032 148.342 33.051 148.211 33.101 148.092 33.161 147.972 33.231 147.861 33.321 147.772 33.371 147.722 33.421 147.682 33.471 147.642 33.532 147.611 33.581 147.581 33.651 147.552 33.711 147.531 33.771 147.512 33.831 147.491 34.032 147.451 34.231 147.472 34.411 147.552 34.532 147.602 34.641 147.672 34.741 147.772 34.831 147.861 34.901 147.972 34.951 148.092 35.001 148.211 35.032 148.342 35.032 148.482 35.032 148.611 35.001 148.741 34.951 148.861 34.901 148.982 34.831 149.092 34.741 149.182 34.551 149.371 34.291 149.482 34.032 149.482M34.032 153.482C33.891 153.482 33.771 153.451 33.641 153.402 33.521 153.352 33.411 153.281 33.321 153.182 33.131 152.991 33.032 152.741 33.032 152.482 33.032 152.342 33.051 152.222 33.101 152.092 33.161 151.972 33.231 151.861 33.321 151.772 33.371 151.722 33.421 151.682 33.471 151.642 33.532 151.611 33.581 151.581 33.641 151.552 33.711 151.531 33.771 151.512 33.831 151.501 34.032 151.451 34.231 151.482 34.411 151.552 34.532 151.602 34.641 151.672 34.741 151.772 34.831 151.861 34.901 151.972 34.951 152.092 35.001 152.211 35.032 152.342 35.032 152.482 35.032 152.741 34.921 152.991 34.741 153.182 34.551 153.371 34.291 153.482 34.032 153.482M34.032 157.482C33.761 157.482 33.511 157.371 33.321 157.182 33.231 157.092 33.151 156.982 33.101 156.861 33.051 156.741 33.032 156.611 33.032 156.472 33.032 156.411 33.032 156.342 33.051 156.281 33.061 156.222 33.081 156.152 33.101 156.092 33.131 156.031 33.161 155.972 33.201 155.922 33.231 155.861 33.271 155.812 33.321 155.772 33.371 155.722 33.421 155.682 33.471 155.642 33.532 155.611 33.581 155.581 33.651 155.552 33.711 155.531 33.771 155.512 33.831 155.491 33.961 155.472 34.091 155.472 34.221 155.491 34.291 155.512 34.351 155.531 34.411 155.552 34.471 155.581 34.532 155.611 34.581 155.642 34.641 155.682 34.691 155.722 34.731 155.772 34.782 155.812 34.821 155.861 34.861 155.922 34.891 155.972 34.931 156.031 34.951 156.092 34.981 156.152 35.001 156.222 35.011 156.281 35.021 156.342 35.032 156.411 35.032 156.472 35.032 156.611 35.001 156.741 34.951 156.861 34.901 156.982 34.831 157.092 34.731 157.182 34.641 157.281 34.532 157.352 34.411 157.402 34.291 157.451 34.161 157.482 34.032 157.482M34.032 161.482C33.761 161.482 33.511 161.371 33.321 161.182 33.131 160.991 33.032 160.741 33.032 160.472 33.032 160.211 33.131 159.961 33.321 159.772 33.411 159.672 33.521 159.602 33.641 159.552 33.831 159.482 34.032 159.451 34.221 159.501 34.291 159.512 34.351 159.531 34.411 159.552 34.471 159.581 34.532 159.611 34.581 159.642 34.641 159.682 34.691 159.722 34.741 159.772 34.831 159.861 34.901 159.972 34.951 160.092 35.001 160.222 35.032 160.342 35.032 160.472 35.032 160.611 35.001 160.741 34.951 160.861 34.901 160.982 34.831 161.092 34.741 161.182 34.641 161.281 34.532 161.352 34.411 161.402 34.291 161.451 34.161 161.482 34.032 161.482M34.032 165.472C33.891 165.472 33.771 165.451 33.641 165.402 33.521 165.352 33.411 165.281 33.321 165.182 33.131 164.991 33.032 164.741 33.032 164.472 33.032 164.342 33.051 164.211 33.101 164.092 33.161 163.972 33.231 163.861 33.321 163.772 33.691 163.402 34.361 163.402 34.741 163.772 34.831 163.861 34.901 163.972 34.951 164.092 35.001 164.211 35.032 164.342 35.032 164.472 35.032 164.611 35.001 164.741 34.951 164.861 34.901 164.982 34.831 165.092 34.741 165.182 34.641 165.281 34.532 165.352 34.411 165.402 34.291 165.451 34.161 165.472 34.032 165.472M34.032 169.482C33.761 169.482 33.511 169.371 33.321 169.182 33.231 169.092 33.151 168.982 33.101 168.861 33.051 168.741 33.032 168.611 33.032 168.482 33.032 168.342 33.051 168.211 33.101 168.092 33.161 167.972 33.231 167.861 33.321 167.772 33.371 167.722 33.421 167.682 33.471 167.642 33.532 167.611 33.581 167.581 33.651 167.552 33.711 167.531 33.771 167.512 33.831 167.491 34.161 167.432 34.501 167.541 34.731 167.772 34.831 167.861 34.901 167.972 34.951 168.092 35.001 168.211 35.032 168.342 35.032 168.482 35.032 168.611 35.001 168.741 34.951 168.861 34.901 168.982 34.831 169.092 34.731 169.182 34.641 169.281 34.532 169.352 34.411 169.402 34.291 169.451 34.161 169.482 34.032 169.482"/>
    <polygon fill="#42494E" points="38.029 149.477 66.029 149.477 66.029 147.477 38.029 147.477"/>
    <polygon fill="#42494E" points="38.029 153.477 66.029 153.477 66.029 151.477 38.029 151.477"/>
    <polygon fill="#42494E" points="38.029 157.477 66.029 157.477 66.029 155.477 38.029 155.477"/>
    <polygon fill="#42494E" points="38.029 161.477 66.029 161.477 66.029 159.477 38.029 159.477"/>
    <polygon fill="#42494E" points="38.029 165.477 66.029 165.477 66.029 163.477 38.029 163.477"/>
    <polygon fill="#42494E" points="38.029 169.477 66.029 169.477 66.029 167.477 38.029 167.477"/>
  </g>
</svg>
