<svg xmlns="http://www.w3.org/2000/svg" width="250" height="250" viewBox="0 0 250 250">
  <g fill="none" fill-rule="evenodd">
    <path fill="#434A4F" d="M38.078 126.632C38.028 126.082 38.428 125.592 38.978 125.542 39.528 125.481 40.018 125.882 40.068 126.432 40.128 126.981 39.728 127.472 39.178 127.531 39.138 127.531 39.108 127.531 39.078 127.531 38.568 127.531 38.128 127.151 38.078 126.632zM39.028 130.752C38.838 130.231 39.108 129.662 39.628 129.472 40.148 129.281 40.718 129.552 40.908 130.071 41.098 130.592 40.828 131.172 40.308 131.352 40.188 131.392 40.078 131.412 39.968 131.412 39.558 131.412 39.169 131.162 39.028 130.752zM40.858 134.521C40.568 134.052 40.718 133.441 41.188 133.151 41.658 132.861 42.268 133.002 42.558 133.481 42.848 133.941 42.698 134.562 42.228 134.852 42.068 134.951 41.888 135.002 41.708 135.002 41.378 135.002 41.048 134.832 40.858 134.521zM43.318 137.872C42.958 137.451 43.008 136.821 43.428 136.451 43.838 136.092 44.478 136.142 44.838 136.562 45.198 136.981 45.148 137.611 44.728 137.972 44.538 138.132 44.308 138.212 44.078 138.212 43.798 138.212 43.518 138.102 43.318 137.872zM46.208 140.812C45.798 140.441 45.768 139.802 46.138 139.392 46.508 138.991 47.138 138.951 47.548 139.332 47.959 139.691 47.988 140.332 47.618 140.741 47.419 140.962 47.148 141.071 46.878 141.071 46.638 141.071 46.398 140.981 46.208 140.812zM49.368 143.401C48.928 143.071 48.838 142.441 49.168 142.002 49.498 141.562 50.118 141.472 50.568 141.802 51.008 142.132 51.098 142.762 50.768 143.201 50.568 143.462 50.268 143.602 49.968 143.602 49.758 143.602 49.548 143.542 49.368 143.401zM78.828 156.412C78.288 156.271 77.968 155.722 78.118 155.182 78.258 154.651 78.798 154.332 79.338 154.472 79.868 154.611 80.188 155.162 80.048 155.701 79.928 156.142 79.528 156.441 79.078 156.441 78.998 156.441 78.908 156.432 78.828 156.412zM82.738 157.382C82.198 157.262 81.858 156.722 81.988 156.182 82.118 155.642 82.658 155.312 83.188 155.441 83.728 155.562 84.058 156.102 83.938 156.642 83.828 157.102 83.419 157.412 82.959 157.412 82.888 157.412 82.808 157.401 82.738 157.382zM86.669 158.252C86.128 158.142 85.778 157.611 85.888 157.071 85.998 156.531 86.528 156.182 87.068 156.292 87.608 156.412 87.958 156.941 87.848 157.481 87.748 157.951 87.338 158.271 86.868 158.271 86.798 158.271 86.738 158.271 86.669 158.252zM209.998 125.002C209.998 124.441 210.448 124.002 210.998 124.002 211.548 124.002 211.998 124.441 211.998 125.002 211.998 125.552 211.548 126.002 210.998 126.002 210.448 126.002 209.998 125.552 209.998 125.002zM210.238 129.901C209.708 129.771 209.388 129.222 209.528 128.691 209.658 128.151 210.208 127.832 210.738 127.972 211.278 128.111 211.598 128.651 211.458 129.191 211.338 129.642 210.938 129.941 210.488 129.941 210.408 129.941 210.318 129.932 210.238 129.901zM208.588 133.542C208.098 133.281 207.908 132.682 208.168 132.191 208.418 131.701 209.018 131.512 209.508 131.762 209.998 132.012 210.198 132.622 209.938 133.111 209.758 133.451 209.418 133.651 209.058 133.651 208.898 133.651 208.738 133.611 208.588 133.542zM193.778 146.622C193.508 146.142 193.668 145.531 194.148 145.262 194.628 144.981 195.238 145.142 195.508 145.622 195.788 146.102 195.618 146.712 195.148 146.991 194.988 147.082 194.818 147.122 194.648 147.122 194.298 147.122 193.968 146.941 193.778 146.622zM190.228 148.472C189.978 147.972 190.178 147.372 190.678 147.122 191.168 146.872 191.768 147.071 192.018 147.571 192.268 148.062 192.068 148.662 191.568 148.912 191.428 148.981 191.278 149.021 191.128 149.021 190.758 149.021 190.408 148.812 190.228 148.472zM186.588 150.132C186.368 149.622 186.598 149.031 187.098 148.812 187.608 148.582 188.198 148.812 188.418 149.321 188.638 149.821 188.418 150.412 187.908 150.642 187.778 150.691 187.638 150.722 187.508 150.722 187.128 150.722 186.758 150.502 186.588 150.132zM182.878 151.632C182.678 151.111 182.938 150.531 183.448 150.332 183.958 150.132 184.538 150.382 184.738 150.901 184.948 151.412 184.688 151.991 184.178 152.191 184.058 152.241 183.938 152.262 183.818 152.262 183.408 152.262 183.038 152.021 182.878 151.632zM179.118 152.981C178.938 152.462 179.208 151.892 179.728 151.712 180.248 151.521 180.828 151.802 181.008 152.321 181.188 152.842 180.908 153.412 180.388 153.602 180.388 153.602 180.388 153.602 180.388 153.592 180.278 153.632 180.168 153.651 180.058 153.651 179.648 153.651 179.258 153.392 179.118 152.981zM175.308 154.201C175.138 153.672 175.438 153.111 175.968 152.951L175.958 152.951C176.488 152.781 177.048 153.082 177.218 153.611 177.378 154.142 177.088 154.701 176.558 154.861 176.458 154.892 176.358 154.901 176.258 154.901 175.838 154.901 175.438 154.632 175.308 154.201zM171.458 155.302C171.308 154.771 171.618 154.222 172.158 154.071 172.688 153.922 173.238 154.231 173.388 154.771 173.538 155.302 173.218 155.852 172.688 156.002 172.598 156.021 172.508 156.031 172.428 156.031 171.988 156.031 171.578 155.741 171.458 155.302zM151.848 159.212C151.768 158.662 152.148 158.162 152.698 158.082 153.248 158.002 153.748 158.382 153.828 158.932 153.908 159.472 153.528 159.981 152.978 160.062 152.938 160.071 152.888 160.071 152.838 160.071 152.348 160.071 151.918 159.712 151.848 159.212zM100.858 160.571C100.308 160.502 99.919 160.002 99.978 159.451 100.048 158.901 100.548 158.512 101.098 158.582 101.648 158.651 102.038 159.142 101.968 159.691 101.908 160.201 101.478 160.571 100.978 160.571 100.938 160.571 100.898 160.571 100.858 160.571zM147.878 159.712C147.818 159.162 148.208 158.662 148.758 158.602 149.308 158.531 149.798 158.922 149.868 159.472 149.938 160.021 149.538 160.521 148.998 160.582 148.958 160.592 148.918 160.592 148.878 160.592 148.378 160.592 147.938 160.222 147.878 159.712zM104.848 161.012C104.298 160.951 103.898 160.462 103.958 159.912 104.008 159.361 104.498 158.962 105.048 159.021 105.598 159.071 105.998 159.562 105.948 160.111 105.898 160.632 105.458 161.012 104.958 161.012 104.918 161.012 104.888 161.012 104.848 161.012zM143.898 160.132C143.848 159.582 144.248 159.092 144.798 159.031 145.348 158.981 145.838 159.382 145.888 159.932 145.948 160.481 145.548 160.972 144.998 161.031 144.958 161.031 144.928 161.031 144.898 161.031 144.388 161.031 143.958 160.651 143.898 160.132zM108.858 161.372C108.308 161.321 107.898 160.842 107.938 160.292 107.988 159.741 108.468 159.332 109.018 159.372 109.568 159.422 109.978 159.901 109.938 160.451 109.888 160.972 109.448 161.372 108.938 161.372 108.908 161.372 108.888 161.372 108.858 161.372zM139.918 160.462C139.868 159.912 140.278 159.432 140.838 159.392L140.828 159.392C141.378 159.342 141.868 159.752 141.908 160.302 141.948 160.852 141.538 161.342 140.988 161.382 140.968 161.382 140.938 161.382 140.908 161.382 140.398 161.382 139.958 160.981 139.918 160.462zM112.868 161.642C112.318 161.611 111.898 161.142 111.928 160.592 111.958 160.031 112.438 159.611 112.988 159.651 113.538 159.682 113.958 160.151 113.928 160.701 113.898 161.241 113.458 161.651 112.928 161.651 112.908 161.651 112.888 161.642 112.868 161.642zM135.918 160.712C135.888 160.162 136.308 159.691 136.858 159.651 137.408 159.622 137.888 160.042 137.918 160.602 137.948 161.151 137.528 161.622 136.978 161.651 136.958 161.651 136.938 161.651 136.918 161.651 136.398 161.651 135.948 161.241 135.918 160.712zM116.888 161.842C116.338 161.821 115.908 161.352 115.928 160.802 115.948 160.252 116.408 159.821 116.958 159.842 117.518 159.861 117.948 160.332 117.928 160.882 117.898 161.422 117.458 161.842 116.918 161.842 116.908 161.842 116.898 161.842 116.888 161.842zM131.928 160.882C131.908 160.332 132.338 159.872 132.888 159.852 133.438 159.821 133.898 160.262 133.928 160.812 133.948 161.361 133.508 161.821 132.958 161.842 132.948 161.842 132.938 161.852 132.918 161.852 132.388 161.852 131.948 161.422 131.928 160.882zM120.908 161.962C120.348 161.951 119.908 161.491 119.928 160.941 119.938 160.382 120.388 159.951 120.938 159.962 121.498 159.972 121.938 160.422 121.928 160.981 121.908 161.521 121.468 161.962 120.928 161.962 120.918 161.962 120.908 161.962 120.908 161.962zM127.928 160.981C127.918 160.432 128.358 159.972 128.908 159.962 129.458 159.951 129.918 160.392 129.928 160.941 129.938 161.491 129.498 161.951 128.938 161.962 128.938 161.962 128.928 161.962 128.918 161.962 128.378 161.962 127.938 161.521 127.928 160.981zM123.928 161.002C123.928 160.441 124.368 159.991 124.928 160.002 125.478 160.002 125.928 160.441 125.928 161.002 125.928 161.552 125.478 162.002 124.928 162.002 124.368 161.991 123.918 161.552 123.928 161.002z"/>
    <polyline fill="#DBDBD5" points="189 173.006 171.489 165.501 170.762 165.938 178.994 174.17 176.166 176.999 168.055 168.888 165.979 173.063 173.227 190.616 178.061 180.895 186.172 189.006 189 186.177 180.768 177.945 189 173.006"/>
    <path fill="#75C7D0" d="M125.633,150.744 C111.876,150.744 100.724,139.592 100.724,125.835 C100.724,112.079 111.876,100.927 125.633,100.927 C139.389,100.927 150.541,112.079 150.541,125.835 C150.541,139.592 139.389,150.744 125.633,150.744 Z M169.417,126.582 C169.417,102.281 149.717,82.582 125.417,82.582 C101.116,82.582 81.417,102.281 81.417,126.582 C81.417,150.883 101.116,170.582 125.417,170.582 C137.083,170.582 147.682,166.033 155.557,158.622 L151.411,148.582 L160.869,152.636 C166.239,145.341 169.417,136.334 169.417,126.582 Z"/>
    <path fill="#434A4F" d="M125.216 102.344C112.033 102.344 101.308 113.069 101.308 126.252 101.308 139.435 112.033 150.16 125.216 150.16 138.399 150.16 149.125 139.435 149.125 126.252 149.125 113.069 138.399 102.344 125.216 102.344zM125.216 152.16C110.93 152.16 99.308 140.538 99.308 126.252 99.308 111.966 110.93 100.344 125.216 100.344 139.502 100.344 151.125 111.966 151.125 126.252 151.125 140.538 139.502 152.16 125.216 152.16zM78 74.682C75.794 74.682 74 76.476 74 78.682 74 80.888 75.794 82.682 78 82.682 80.206 82.682 82 80.888 82 78.682 82 76.476 80.206 74.682 78 74.682zM78 84.682C74.691 84.682 72 81.99 72 78.682 72 75.373 74.691 72.682 78 72.682 81.309 72.682 84 75.373 84 78.682 84 81.99 81.309 84.682 78 84.682zM196 175.999C194.897 175.999 194 176.896 194 177.999 194 179.102 194.897 179.999 196 179.999 197.103 179.999 198 179.102 198 177.999 198 176.896 197.103 175.999 196 175.999zM196 181.999C193.794 181.999 192 180.205 192 177.999 192 175.793 193.794 173.999 196 173.999 198.206 173.999 200 175.793 200 177.999 200 180.205 198.206 181.999 196 181.999z"/>
    <path fill="#434A4F" d="M39 125.999C38.448 125.999 38 125.552 38 124.999 38 114.954 47.164 105.586 63.803 98.62 80.165 91.771 101.899 87.999 125 87.999 134.651 87.999 144.128 88.66 153.167 89.963 153.714 90.042 154.093 90.549 154.015 91.096 153.936 91.643 153.428 92.023 152.882 91.943 143.937 90.653 134.556 89.999 125 89.999 78.131 89.999 40 105.7 40 124.999 40 125.552 39.552 125.999 39 125.999M211 125.999C210.448 125.999 210 125.552 210 124.999 210 111.898 191.486 99.605 162.833 93.682 162.292 93.569 161.944 93.04 162.056 92.5 162.168 91.959 162.695 91.613 163.238 91.723 193.315 97.942 212 110.692 212 124.999 212 125.552 211.552 125.999 211 125.999"/>
    <path fill="#434A4F" d="M90.298 101.962C89.748 101.901 89.368 101.401 89.428 100.852 89.498 100.302 89.998 99.912 90.548 99.981 91.088 100.042 91.478 100.542 91.419 101.092 91.358 101.602 90.919 101.972 90.428 101.972 90.378 101.972 90.338 101.972 90.298 101.962zM89.888 105.941C89.328 105.892 88.928 105.401 88.988 104.852 89.038 104.302 89.528 103.901 90.078 103.951 90.628 104.012 91.028 104.502 90.978 105.052 90.928 105.571 90.488 105.951 89.978 105.951 89.948 105.951 89.919 105.951 89.888 105.941zM89.548 109.932C88.998 109.892 88.588 109.401 88.628 108.861 88.669 108.302 89.158 107.892 89.709 107.941 90.258 107.981 90.669 108.462 90.628 109.012 90.578 109.542 90.138 109.932 89.628 109.932 89.598 109.932 89.578 109.932 89.548 109.932zM89.288 113.922C88.738 113.892 88.318 113.422 88.348 112.872 88.388 112.321 88.858 111.901 89.408 111.932 89.959 111.962 90.378 112.432 90.348 112.981 90.318 113.521 89.878 113.932 89.348 113.932 89.328 113.932 89.308 113.932 89.288 113.922zM89.118 117.922C88.568 117.901 88.138 117.432 88.158 116.882 88.178 116.332 88.648 115.901 89.198 115.922 89.748 115.941 90.178 116.412 90.158 116.962 90.128 117.502 89.688 117.922 89.158 117.922 89.138 117.922 89.128 117.922 89.118 117.922zM89.018 121.922C88.468 121.912 88.028 121.451 88.038 120.901 88.048 120.352 88.508 119.912 89.058 119.922 89.608 119.932 90.048 120.392 90.038 120.941 90.028 121.491 89.588 121.922 89.038 121.922 89.028 121.922 89.028 121.922 89.018 121.922zM87.998 124.922C87.998 124.372 88.448 123.922 88.998 123.922 89.548 123.922 89.998 124.372 89.998 124.922 89.998 125.472 89.548 125.922 88.998 125.922 88.448 125.922 87.998 125.472 87.998 124.922zM88.038 128.941C88.028 128.392 88.468 127.932 89.018 127.922 89.568 127.912 90.028 128.352 90.038 128.901 90.048 129.451 89.608 129.912 89.058 129.922 89.048 129.922 89.048 129.922 89.038 129.922 88.488 129.922 88.048 129.491 88.038 128.941zM88.148 132.962C88.128 132.412 88.558 131.941 89.108 131.922 89.669 131.901 90.128 132.332 90.148 132.882 90.169 133.432 89.738 133.901 89.188 133.922 89.178 133.922 89.169 133.922 89.148 133.922 88.618 133.922 88.169 133.502 88.148 132.962zM88.348 136.972C88.308 136.422 88.728 135.951 89.288 135.922 89.838 135.892 90.308 136.312 90.338 136.861 90.368 137.412 89.948 137.882 89.398 137.922 89.378 137.922 89.358 137.922 89.338 137.922 88.818 137.922 88.378 137.512 88.348 136.972zM88.618 140.991C88.578 140.441 88.988 139.951 89.538 139.912 90.088 139.872 90.568 140.281 90.608 140.832 90.658 141.382 90.248 141.861 89.688 141.901 89.669 141.912 89.638 141.912 89.608 141.912 89.098 141.912 88.658 141.512 88.618 140.991zM88.968 144.991C88.919 144.441 89.318 143.951 89.868 143.901 90.419 143.842 90.908 144.241 90.968 144.802 91.018 145.342 90.618 145.842 90.068 145.892 90.028 145.892 89.998 145.892 89.968 145.892 89.458 145.892 89.028 145.512 88.968 144.991zM89.408 148.991C89.348 148.441 89.738 147.941 90.288 147.882 90.828 147.812 91.328 148.201 91.398 148.752 91.468 149.302 91.068 149.802 90.528 149.861 90.488 149.872 90.448 149.872 90.408 149.872 89.908 149.872 89.478 149.502 89.408 148.991zM89.938 152.981C89.858 152.432 90.238 151.932 90.788 151.852 91.328 151.771 91.838 152.151 91.919 152.701 91.998 153.241 91.618 153.752 91.068 153.832 91.018 153.842 90.978 153.842 90.928 153.842 90.438 153.842 90.008 153.481 89.938 152.981zM90.548 156.962C90.459 156.412 90.828 155.901 91.378 155.802 91.919 155.712 92.438 156.082 92.528 156.632 92.618 157.172 92.248 157.691 91.708 157.781 91.648 157.792 91.598 157.792 91.538 157.792 91.058 157.792 90.638 157.441 90.548 156.962zM91.268 160.922C91.158 160.382 91.518 159.852 92.058 159.752 92.598 159.642 93.128 160.002 93.228 160.542 93.328 161.082 92.978 161.611 92.428 161.712 92.368 161.722 92.308 161.731 92.238 161.731 91.768 161.731 91.358 161.401 91.268 160.922zM92.068 164.861C91.948 164.321 92.298 163.792 92.838 163.672 93.368 163.562 93.908 163.901 94.028 164.441 94.138 164.981 93.798 165.512 93.258 165.632 93.188 165.642 93.118 165.651 93.048 165.651 92.588 165.651 92.169 165.332 92.068 164.861zM92.978 168.792C92.848 168.252 93.178 167.712 93.709 167.582 94.248 167.441 94.788 167.771 94.919 168.312 95.048 168.842 94.728 169.392 94.188 169.521 94.108 169.542 94.028 169.552 93.948 169.552 93.498 169.552 93.088 169.241 92.978 168.792zM93.998 172.691C93.848 172.151 94.169 171.602 94.698 171.462 95.228 171.312 95.778 171.622 95.928 172.151 96.078 172.682 95.758 173.231 95.228 173.382 95.138 173.412 95.048 173.422 94.968 173.422 94.528 173.422 94.118 173.132 93.998 172.691zM95.138 176.562C94.968 176.031 95.268 175.472 95.798 175.302 96.318 175.142 96.878 175.432 97.048 175.962 97.209 176.491 96.919 177.052 96.388 177.212 96.288 177.241 96.188 177.262 96.088 177.262 95.669 177.262 95.268 176.981 95.138 176.562zM96.398 180.392C96.218 179.872 96.488 179.302 97.018 179.111 97.538 178.932 98.108 179.212 98.288 179.731 98.468 180.252 98.198 180.821 97.678 181.002 97.568 181.042 97.459 181.062 97.348 181.062 96.928 181.062 96.548 180.802 96.398 180.392zM97.808 184.182C97.598 183.662 97.858 183.082 98.368 182.882 98.878 182.682 99.459 182.932 99.669 183.441 99.868 183.962 99.608 184.542 99.098 184.741 98.978 184.792 98.858 184.812 98.738 184.812 98.338 184.812 97.959 184.571 97.808 184.182zM99.358 187.912C99.138 187.401 99.358 186.812 99.868 186.592 100.378 186.361 100.968 186.592 101.188 187.102 101.408 187.602 101.178 188.191 100.678 188.412 100.548 188.472 100.408 188.502 100.268 188.502 99.888 188.502 99.528 188.281 99.358 187.912zM101.088 191.571C100.838 191.071 101.038 190.481 101.528 190.231 102.028 189.981 102.628 190.182 102.878 190.672 103.118 191.162 102.918 191.762 102.428 192.012 102.288 192.092 102.128 192.122 101.978 192.122 101.618 192.122 101.258 191.922 101.088 191.571zM103.008 195.142C102.738 194.662 102.898 194.052 103.378 193.781 103.858 193.502 104.468 193.662 104.738 194.142 105.018 194.622 104.858 195.231 104.378 195.512 104.218 195.602 104.048 195.642 103.878 195.642 103.528 195.642 103.198 195.462 103.008 195.142zM105.158 198.602C104.848 198.142 104.968 197.521 105.428 197.212 105.888 196.901 106.508 197.021 106.818 197.481 107.128 197.941 106.998 198.562 106.548 198.872 106.378 198.981 106.178 199.042 105.988 199.042 105.668 199.042 105.348 198.882 105.158 198.602zM107.568 201.892C107.218 201.462 107.298 200.832 107.728 200.491 108.158 200.142 108.788 200.212 109.128 200.642 109.478 201.071 109.408 201.701 108.978 202.052 108.788 202.191 108.568 202.262 108.348 202.262 108.058 202.262 107.768 202.142 107.568 201.892zM110.288 204.962C109.898 204.562 109.908 203.932 110.298 203.542 110.688 203.151 111.318 203.162 111.708 203.552 112.098 203.941 112.098 204.571 111.708 204.962 111.508 205.162 111.258 205.252 110.998 205.252 110.748 205.252 110.488 205.151 110.288 204.962zM113.378 207.691C112.938 207.361 112.858 206.731 113.198 206.292 113.528 205.852 114.158 205.771 114.598 206.111 115.038 206.441 115.118 207.071 114.788 207.512 114.588 207.771 114.288 207.901 113.988 207.901 113.778 207.901 113.568 207.832 113.378 207.691zM116.888 209.941C116.398 209.682 116.208 209.082 116.458 208.592 116.708 208.102 117.318 207.912 117.808 208.162 118.298 208.412 118.488 209.021 118.238 209.512 118.058 209.852 117.708 210.052 117.348 210.052 117.188 210.052 117.038 210.012 116.888 209.941zM120.808 211.462C120.268 211.321 119.948 210.771 120.088 210.241 120.228 209.701 120.778 209.382 121.308 209.521 121.848 209.662 122.168 210.201 122.028 210.741 121.908 211.191 121.498 211.491 121.058 211.491 120.978 211.491 120.888 211.481 120.808 211.462zM123.998 211.002C123.998 210.441 124.448 210.002 124.998 210.002 125.548 210.002 125.998 210.441 125.998 211.002 125.998 211.552 125.548 212.002 124.998 212.002 124.448 212.002 123.998 211.552 123.998 211.002zM122.538 39.162C122.488 38.611 122.888 38.122 123.448 38.071 123.988 38.021 124.478 38.422 124.538 38.972 124.588 39.521 124.188 40.012 123.628 40.061 123.598 40.071 123.568 40.071 123.538 40.071 123.028 40.071 122.588 39.682 122.538 39.162zM118.708 40.271C118.528 39.752 118.798 39.182 119.318 38.991 119.838 38.811 120.408 39.082 120.598 39.602 120.778 40.122 120.508 40.691 119.988 40.882 119.878 40.922 119.768 40.941 119.658 40.941 119.238 40.941 118.858 40.682 118.708 40.271zM115.208 42.191C114.918 41.722 115.068 41.102 115.538 40.811 116.008 40.531 116.628 40.672 116.918 41.151 117.198 41.622 117.058 42.231 116.578 42.521 116.418 42.622 116.238 42.672 116.058 42.672 115.728 42.672 115.398 42.502 115.208 42.191zM112.078 44.682C111.718 44.262 111.768 43.632 112.188 43.271 112.608 42.912 113.238 42.951 113.598 43.372 113.958 43.792 113.908 44.422 113.488 44.792L113.488 44.781C113.298 44.941 113.068 45.021 112.838 45.021 112.558 45.021 112.278 44.912 112.078 44.682zM109.308 47.561C108.898 47.182 108.868 46.552 109.238 46.142 109.608 45.731 110.248 45.712 110.648 46.082 111.058 46.451 111.088 47.082 110.718 47.491 110.518 47.712 110.248 47.821 109.978 47.821 109.738 47.821 109.498 47.731 109.308 47.561zM106.838 50.701C106.398 50.372 106.308 49.752 106.638 49.311 106.968 48.861 107.598 48.771 108.038 49.102 108.478 49.432 108.568 50.061 108.238 50.502 108.048 50.762 107.738 50.901 107.438 50.901 107.228 50.901 107.018 50.842 106.838 50.701zM104.638 54.042C104.168 53.752 104.038 53.132 104.328 52.662 104.628 52.191 105.238 52.061 105.708 52.352 106.178 52.651 106.318 53.271 106.018 53.741 105.828 54.031 105.508 54.201 105.178 54.201 104.988 54.201 104.808 54.151 104.638 54.042zM102.668 57.521C102.178 57.262 102.008 56.651 102.268 56.172 102.538 55.682 103.148 55.502 103.628 55.771 104.108 56.031 104.288 56.642 104.028 57.132 103.838 57.462 103.498 57.651 103.148 57.651 102.988 57.651 102.818 57.611 102.668 57.521zM100.888 61.111C100.398 60.872 100.188 60.271 100.418 59.771 100.418 59.771 100.418 59.771 100.428 59.781 100.658 59.281 101.258 59.071 101.758 59.311 102.258 59.542 102.468 60.142 102.228 60.642 102.058 61.002 101.698 61.212 101.318 61.212 101.178 61.212 101.028 61.182 100.888 61.111zM99.298 64.781C98.788 64.561 98.548 63.972 98.758 63.472 98.978 62.962 99.568 62.722 100.068 62.932 100.578 63.151 100.818 63.731 100.608 64.241 100.438 64.622 100.068 64.861 99.678 64.861 99.548 64.852 99.419 64.832 99.298 64.781zM97.848 68.512C97.338 68.311 97.068 67.741 97.268 67.222 97.459 66.701 98.038 66.441 98.558 66.632 99.068 66.832 99.328 67.401 99.138 67.922 98.988 68.321 98.608 68.571 98.198 68.571 98.088 68.571 97.968 68.552 97.848 68.512zM96.548 72.292C96.018 72.111 95.738 71.552 95.919 71.021 96.088 70.502 96.658 70.222 97.178 70.392 97.708 70.571 97.988 71.132 97.808 71.662 97.669 72.082 97.278 72.342 96.868 72.342 96.758 72.342 96.648 72.321 96.548 72.292zM95.368 76.111C94.838 75.962 94.538 75.401 94.698 74.872 94.858 74.342 95.419 74.042 95.948 74.201 96.468 74.352 96.778 74.912 96.618 75.441 96.488 75.882 96.088 76.162 95.658 76.162 95.568 76.162 95.468 76.142 95.368 76.111zM94.318 79.972C93.788 79.832 93.468 79.281 93.608 78.752 93.748 78.222 94.298 77.901 94.828 78.042 95.368 78.182 95.678 78.731 95.538 79.262 95.419 79.712 95.018 80.012 94.578 80.012 94.488 80.012 94.408 79.991 94.318 79.972zM93.378 83.861C92.838 83.731 92.498 83.191 92.628 82.662 92.758 82.122 93.298 81.792 93.828 81.912 94.368 82.042 94.698 82.582 94.578 83.122 94.468 83.582 94.058 83.892 93.598 83.892 93.528 83.892 93.448 83.882 93.378 83.861zM92.528 87.771C91.988 87.662 91.648 87.132 91.758 86.592 91.868 86.052 92.398 85.701 92.938 85.811 93.478 85.922 93.828 86.451 93.718 87.002 93.618 87.472 93.198 87.792 92.738 87.792 92.669 87.792 92.598 87.792 92.528 87.771z"/>
    <path fill="#75C7D0" d="M196.922 141.763C197.961 144.986 201.416 146.756 204.639 145.717 207.862 144.678 209.632 141.223 208.593 138 207.554 134.777 204.099 133.007 200.876 134.046 197.654 135.085 195.883 138.54 196.922 141.763M59.192 102.255C59.862 104.334 62.091 105.477 64.17 104.807 66.249 104.137 67.391 101.908 66.721 99.829 66.051 97.749 63.822 96.607 61.743 97.277 59.664 97.947 58.521 100.175 59.192 102.255"/>
    <path fill="#434A4F" d="M156.52,162.381 C156.431,162.498 156.359,162.629 156.327,162.783 C150.407,191.466 138.11,209.999 125,209.999 C124.448,209.999 124,210.446 124,210.999 C124,211.552 124.448,211.999 125,211.999 C138.951,211.999 151.416,194.234 157.794,165.467 L156.52,162.381"/>
    <path fill="#434A4F" d="M152.854,150.885 L163.306,176.192 L167.778,167.197 L176.166,175.585 L177.58,174.17 L169.149,165.74 L176.803,161.147 L152.854,150.885 Z M163.137,181.024 L149.134,147.113 L181.186,160.851 L172.375,166.137 L180.408,174.17 L176.166,178.413 L168.331,170.578 L163.137,181.024 Z"/>
    <path fill="#42494E" d="M59.334,146.785 C58.834,148.335 58.965,149.987 59.704,151.439 C60.445,152.898 61.71,153.981 63.267,154.488 C64.821,154.996 66.482,154.867 67.942,154.126 C69.391,153.39 70.469,152.137 70.98,150.595 C71.475,149.049 71.343,147.401 70.606,145.953 C69.865,144.495 68.6,143.412 67.044,142.905 C65.488,142.397 63.828,142.526 62.368,143.268 C60.923,144.002 59.848,145.25 59.334,146.785 Z M65.175,156.795 C64.328,156.795 63.476,156.661 62.646,156.391 C60.582,155.718 58.904,154.281 57.921,152.346 C56.948,150.432 56.77,148.255 57.419,146.211 L57.418,146.211 C57.423,146.194 57.429,146.178 57.434,146.161 C57.436,146.156 57.438,146.15 57.439,146.145 L57.439,146.146 C58.121,144.111 59.547,142.458 61.462,141.484 C63.397,140.501 65.6,140.329 67.664,141.003 C69.728,141.676 71.406,143.112 72.389,145.047 C73.363,146.962 73.54,149.139 72.892,151.184 C72.889,151.194 72.885,151.204 72.882,151.215 C72.878,151.226 72.875,151.237 72.871,151.248 C72.189,153.283 70.763,154.937 68.848,155.909 C67.69,156.497 66.437,156.795 65.175,156.795 Z"/>
    <path fill="#42494E" d="M64.113,163.995 L66.186,163.998 L66.187,162.766 C66.189,161.201 67.152,159.878 68.641,159.396 C70.13,158.914 71.684,159.421 72.603,160.688 L73.326,161.687 L75.004,160.47 L74.281,159.473 C73.363,158.205 73.364,156.569 74.286,155.304 C75.207,154.04 76.764,153.537 78.251,154.021 L79.422,154.402 L80.043,152.497 L78.872,152.114 C77.384,151.63 76.424,150.306 76.426,148.74 C76.427,147.176 77.39,145.854 78.879,145.372 L80.051,144.992 L79.412,143.021 L78.24,143.399 C76.751,143.882 75.196,143.374 74.277,142.108 C73.359,140.842 73.36,139.205 74.281,137.939 L75.007,136.944 L73.331,135.725 L72.606,136.721 C71.685,137.986 70.127,138.491 68.641,138.004 C67.153,137.52 66.193,136.194 66.194,134.63 L66.196,133.398 L64.123,133.396 L64.122,134.628 C64.121,136.193 63.158,137.516 61.668,137.998 C60.178,138.481 58.625,137.973 57.706,136.706 L56.983,135.708 L55.305,136.925 L56.028,137.922 C56.947,139.188 56.945,140.825 56.024,142.09 C55.103,143.355 53.546,143.856 52.059,143.374 L50.888,142.992 L50.267,144.896 L51.438,145.278 C52.926,145.763 53.886,147.088 53.885,148.652 C53.883,150.217 52.92,151.54 51.431,152.021 L50.259,152.401 L50.898,154.372 L52.07,153.993 C53.557,153.51 55.113,154.018 56.032,155.285 C56.951,156.552 56.949,158.188 56.027,159.453 L55.303,160.449 L56.978,161.669 L57.704,160.673 C58.624,159.407 60.181,158.902 61.668,159.39 C63.156,159.874 64.116,161.199 64.115,162.764 L64.113,163.995 Z M68.184,166 L62.111,165.993 L62.115,162.762 C62.116,161.934 61.564,161.459 61.048,161.291 C60.533,161.124 59.808,161.181 59.32,161.851 L57.417,164.462 L52.509,160.889 L54.411,158.275 C54.898,157.606 54.731,156.898 54.413,156.459 C54.094,156.02 53.472,155.642 52.686,155.896 L49.611,156.892 L47.741,151.114 L50.815,150.119 C51.603,149.864 51.884,149.193 51.885,148.65 C51.885,148.107 51.605,147.436 50.818,147.18 L47.746,146.177 L49.606,140.471 L52.679,141.472 C53.468,141.731 54.088,141.352 54.407,140.913 C54.727,140.474 54.895,139.766 54.409,139.096 L52.512,136.479 L57.428,132.915 L59.326,135.532 C59.811,136.201 60.535,136.263 61.053,136.095 C61.569,135.928 62.121,135.454 62.122,134.626 L62.125,131.395 L68.198,131.4 L68.194,134.632 C68.193,135.46 68.745,135.935 69.261,136.103 C69.776,136.271 70.502,136.213 70.989,135.543 L72.892,132.93 L77.801,136.505 L75.898,139.117 C75.411,139.786 75.578,140.495 75.896,140.935 C76.215,141.373 76.836,141.748 77.624,141.497 L80.698,140.501 L82.569,146.277 L79.495,147.274 C78.707,147.529 78.426,148.2 78.426,148.742 C78.425,149.285 78.705,149.957 79.492,150.213 L82.564,151.216 L80.703,156.924 L77.631,155.923 C76.845,155.663 76.222,156.043 75.902,156.481 C75.583,156.92 75.415,157.628 75.9,158.299 L77.797,160.915 L72.881,164.479 L70.984,161.862 C70.498,161.192 69.772,161.132 69.256,161.299 C68.74,161.467 68.188,161.94 68.187,162.768 L68.184,166 Z"/>
    <polygon fill="#434A4F" points="213 74.999 215 74.999 215 70.999 213 70.999"/>
    <polygon fill="#434A4F" points="213 84.999 215 84.999 215 80.999 213 80.999"/>
    <polygon fill="#434A4F" points="217 78.999 221 78.999 221 76.999 217 76.999"/>
    <polygon fill="#434A4F" points="207 78.999 211 78.999 211 76.999 207 76.999"/>
    <polygon fill="#434A4F" points="35 162.999 37 162.999 37 158.999 35 158.999"/>
    <polygon fill="#434A4F" points="35 172.999 37 172.999 37 168.999 35 168.999"/>
    <polygon fill="#434A4F" points="39 166.999 43 166.999 43 164.999 39 164.999"/>
    <polygon fill="#434A4F" points="29 166.999 33 166.999 33 164.999 29 164.999"/>
    <polygon fill="#434A4F" points="203 198.999 205 198.999 205 194.999 203 194.999"/>
    <polygon fill="#434A4F" points="203 208.999 205 208.999 205 204.999 203 204.999"/>
    <polygon fill="#434A4F" points="207 202.999 211 202.999 211 200.999 207 200.999"/>
    <polygon fill="#434A4F" points="197 202.999 201 202.999 201 200.999 197 200.999"/>
    <path fill="#E9886C" d="M124.084,137.667 C124.01,137.964 121.898,150.011 121.803,150.671 L127.637,150.671 C127.542,150.011 125.903,137.964 125.829,137.667 C126.15,137.667 126.41,137.407 126.41,137.086 L126.41,135.632 L124.932,133.886 L123.503,135.632 L123.503,137.086 C123.503,137.407 123.763,137.667 124.084,137.667"/>
    <path fill="#DDDED9" d="M120.485,129.528 L120.485,130.799 L124.884,133.27 L129.245,130.871 L129.284,128.546 L129.284,126.586 C129.451,126.422 129.621,126.246 129.774,126.068 C129.722,126.113 129.672,126.159 129.629,126.205 C129.018,126.863 128.09,127.553 127.463,128.089 C126.966,128.513 126.338,128.747 125.685,128.755 L123.798,128.755 C123.145,128.747 122.517,128.513 122.021,128.089 C121.421,127.577 120.549,126.925 119.94,126.295 C119.921,126.276 119.9,126.257 119.88,126.238 C120.063,126.433 120.272,126.631 120.495,126.827 C120.49,126.829 120.485,126.832 120.485,126.837 L120.485,129.528"/>
    <path fill="#434A4F" d="M120.485,131.762 C119.933,131.762 119.485,131.314 119.485,130.762 L119.485,126.838 C119.485,126.285 119.933,125.838 120.485,125.838 C121.037,125.838 121.485,126.285 121.485,126.838 L121.485,130.762 C121.485,131.314 121.037,131.762 120.485,131.762"/>
    <path fill="#434A4F" d="M129.254,131.689 C128.702,131.689 128.254,131.242 128.254,130.689 L128.254,126.161 L128.553,125.868 C129.094,125.335 129.23,125.107 129.264,125.02 L131.194,121.07 L133.104,120.115 L133.464,118.328 L133.131,118.381 L131.942,118.381 L132.146,117.209 C132.298,116.339 132.375,115.561 132.375,114.894 L132.375,114.567 C132.382,113.463 132.156,112.424 131.722,111.488 C131.676,111.386 131.634,111.298 131.591,111.21 C131.097,110.215 130.371,109.32 129.492,108.627 C128.163,107.579 126.563,107.02 124.868,107.008 C122.904,107.026 121.026,107.775 119.584,109.208 C118.104,110.678 117.255,112.699 117.255,114.755 L117.255,114.894 C117.255,115.574 117.322,116.361 117.453,117.231 L117.626,118.381 L116.179,118.381 L116.678,120.127 L118.37,121.104 L120.191,124.955 C120.383,125.462 121.43,126.313 122.055,126.82 C122.275,127 122.485,127.171 122.67,127.328 C122.986,127.599 123.391,127.75 123.81,127.755 L125.689,127.755 C126.242,127.755 126.689,128.202 126.689,128.755 C126.689,129.308 126.242,129.755 125.689,129.755 L123.798,129.755 C122.9,129.744 122.043,129.423 121.371,128.85 C121.197,128.701 121,128.541 120.793,128.372 C119.764,127.535 118.699,126.67 118.35,125.731 L116.829,122.523 L114.977,121.455 L114.133,118.359 C114.133,117.539 114.635,116.834 115.348,116.534 C115.286,115.947 115.255,115.398 115.255,114.894 L115.255,114.755 C115.255,112.171 116.319,109.632 118.175,107.788 C119.982,105.994 122.339,105.008 124.818,105.008 C124.839,105.008 124.86,105.008 124.882,105.008 C127.026,105.022 129.048,105.731 130.73,107.057 C131.84,107.933 132.758,109.063 133.385,110.325 C133.44,110.438 133.492,110.548 133.542,110.659 C134.094,111.848 134.384,113.183 134.375,114.509 L134.375,114.894 C134.375,115.393 134.339,115.938 134.269,116.523 C134.514,116.624 134.739,116.774 134.929,116.971 C135.299,117.351 135.494,117.853 135.479,118.382 L135.46,118.551 L134.872,121.467 L132.693,122.557 L131.097,125.813 C130.957,126.193 130.627,126.601 130.254,126.99 L130.254,130.689 C130.254,131.242 129.807,131.689 129.254,131.689"/>
    <polyline fill="#434A4F" points="103.793 138.446 103.123 136.562 116.991 131.621 118.661 128.526 120.353 128.526 120.353 130.526 119.854 130.526 118.386 133.248 103.793 138.446"/>
    <path fill="#434A4F" d="M124.957,134.452 L120,131.676 C119.518,131.406 119.345,130.797 119.615,130.315 C119.886,129.834 120.497,129.661 120.976,129.932 L124.957,132.159 L128.767,130.026 C129.25,129.757 129.859,129.929 130.128,130.41 C130.398,130.892 130.226,131.501 129.744,131.771 L124.957,134.452"/>
    <polyline fill="#434A4F" points="147.072 138.363 131.539 133.294 129.85 130.526 129.317 130.526 129.317 128.526 130.972 128.526 132.861 131.622 147.692 136.463 147.072 138.363"/>
    <path fill="#434A4F" d="M122.339,137.795 C122.101,137.795 121.862,137.71 121.671,137.538 C121.26,137.169 121.227,136.536 121.597,136.126 L124.957,132.393 L128.316,136.126 C128.686,136.536 128.652,137.169 128.242,137.538 C127.831,137.907 127.198,137.874 126.83,137.464 L124.957,135.383 L123.083,137.464 C122.886,137.684 122.613,137.795 122.339,137.795"/>
    <path fill="#FACD60" d="M137.297,200.747 C138.336,203.97 141.791,205.74 145.014,204.701 C148.237,203.662 150.007,200.207 148.968,196.985 C147.929,193.762 144.474,191.992 141.251,193.031 C138.029,194.07 136.258,197.524 137.297,200.747"/>
    <path fill="#434A4F" d="M158.164,152.072 L160.072,152.889 C161.35,143.93 162,134.549 162,124.998 C162,101.897 158.228,80.164 151.378,63.801 C144.413,47.162 135.045,37.998 125,37.998 C124.448,37.998 124,38.445 124,38.998 C124,39.551 124.448,39.998 125,39.998 C144.299,39.998 160,78.129 160,124.998 C160,134.265 159.379,143.366 158.164,152.072"/>
  </g>
</svg>
