<svg xmlns="http://www.w3.org/2000/svg" width="250" height="250" viewBox="0 0 250 250">
  <g fill="none" fill-rule="evenodd">
    <path fill="#75C7D0" d="M147.394,133.541 L144.565,136.369 L136.455,128.259 L131.621,137.979 L119.394,108.369 L147.394,120.369 L139.162,125.309 L147.394,133.541 Z M124.229,63.036 C89.987,63.036 62.229,90.794 62.229,125.036 C62.229,159.277 89.987,187.036 124.229,187.036 C158.47,187.036 186.229,159.277 186.229,125.036 C186.229,90.794 158.47,63.036 124.229,63.036 Z"/>
    <polyline fill="#5CBEBC" points="157.4 132.377 139.657 124.772 139.168 125.066 147.4 133.298 144.571 136.127 136.461 128.016 134.327 132.307 141.627 149.987 146.461 140.266 154.571 148.377 157.4 145.548 149.168 137.316 157.4 132.377"/>
    <path fill="#434A4F" d="M124.229,60.035 C88.388,60.035 59.229,89.195 59.229,125.035 C59.229,160.876 88.388,190.035 124.229,190.035 C160.07,190.035 189.229,160.876 189.229,125.035 C189.229,89.195 160.07,60.035 124.229,60.035 Z M124.229,192.035 C87.285,192.035 57.229,161.98 57.229,125.035 C57.229,88.091 87.285,58.035 124.229,58.035 C161.173,58.035 191.229,88.091 191.229,125.035 C191.229,161.98 161.173,192.035 124.229,192.035 Z"/>
    <path fill="#434A4F" d="M123.229 192.035C95.659 192.035 73.229 161.98 73.229 125.035 73.229 88.091 95.659 58.035 123.229 58.035 150.799 58.035 173.229 88.091 173.229 125.035 173.229 125.588 172.781 126.035 172.229 126.035 171.677 126.035 171.229 125.588 171.229 125.035 171.229 89.195 149.696 60.035 123.229 60.035 96.762 60.035 75.229 89.195 75.229 125.035 75.229 160.876 96.762 190.035 123.229 190.035 123.781 190.035 124.229 190.483 124.229 191.035 124.229 191.588 123.781 192.035 123.229 192.035M74.229 98.035L68.229 98.035C67.677 98.035 67.229 97.588 67.229 97.035 67.229 96.483 67.677 96.035 68.229 96.035L74.229 96.035C74.781 96.035 75.229 96.483 75.229 97.035 75.229 97.588 74.781 98.035 74.229 98.035"/>
    <path fill="#434A4F" d="M100.229 98.035L84.229 98.035C83.677 98.035 83.229 97.588 83.229 97.035 83.229 96.483 83.677 96.035 84.229 96.035L100.229 96.035C100.781 96.035 101.229 96.483 101.229 97.035 101.229 97.588 100.781 98.035 100.229 98.035M180.229 98.035L172.229 98.035C171.677 98.035 171.229 97.588 171.229 97.035 171.229 96.483 171.677 96.035 172.229 96.035L180.229 96.035C180.781 96.035 181.229 96.483 181.229 97.035 181.229 97.588 180.781 98.035 180.229 98.035M74.229 154.035L68.229 154.035C67.677 154.035 67.229 153.588 67.229 153.035 67.229 152.483 67.677 152.035 68.229 152.035L74.229 152.035C74.781 152.035 75.229 152.483 75.229 153.035 75.229 153.588 74.781 154.035 74.229 154.035M100.229 154.035L82.229 154.035C81.677 154.035 81.229 153.588 81.229 153.035 81.229 152.483 81.677 152.035 82.229 152.035L100.229 152.035C100.781 152.035 101.229 152.483 101.229 153.035 101.229 153.588 100.781 154.035 100.229 154.035M140.229 98.035L108.229 98.035C107.677 98.035 107.229 97.588 107.229 97.035 107.229 96.483 107.677 96.035 108.229 96.035L140.229 96.035C140.781 96.035 141.229 96.483 141.229 97.035 141.229 97.588 140.781 98.035 140.229 98.035M140.229 154.035L108.229 154.035C107.677 154.035 107.229 153.588 107.229 153.035 107.229 152.483 107.677 152.035 108.229 152.035L140.229 152.035C140.781 152.035 141.229 152.483 141.229 153.035 141.229 153.588 140.781 154.035 140.229 154.035M180.229 154.035L176.231 154.035C175.679 154.035 175.231 153.588 175.231 153.035 175.231 152.483 175.679 152.035 176.231 152.035L180.229 152.035C180.781 152.035 181.229 152.483 181.229 153.035 181.229 153.588 180.781 154.035 180.229 154.035"/>
    <path fill="#434A4F" d="M124.229 60.035C112.846 60.035 103.229 89.802 103.229 125.035 103.229 160.269 112.846 190.035 124.229 190.035 135.612 190.035 145.229 160.269 145.229 125.035 145.229 89.802 135.612 60.035 124.229 60.035zM124.229 192.035C111.332 192.035 101.229 162.606 101.229 125.035 101.229 87.465 111.332 58.035 124.229 58.035 137.126 58.035 147.229 87.465 147.229 125.035 147.229 162.606 137.126 192.035 124.229 192.035zM160.227 154.035L148.229 154.035C147.677 154.035 147.229 153.588 147.229 153.035 147.229 152.483 147.677 152.035 148.229 152.035L160.227 152.035C160.779 152.035 161.227 152.483 161.227 153.035 161.227 153.588 160.779 154.035 160.227 154.035M164.229 98.035L148.229 98.035C147.677 98.035 147.229 97.588 147.229 97.035 147.229 96.483 147.677 96.035 148.229 96.035L164.229 96.035C164.781 96.035 165.229 96.483 165.229 97.035 165.229 97.588 164.781 98.035 164.229 98.035"/>
    <path fill="#434A4F" d="M164.229,98.035 L148.229,98.035 C147.677,98.035 147.229,97.588 147.229,97.035 C147.229,96.483 147.677,96.035 148.229,96.035 L164.229,96.035 C164.781,96.035 165.229,96.483 165.229,97.035 C165.229,97.588 164.781,98.035 164.229,98.035"/>
    <path fill="#434A4F" d="M123.229,192.035 C95.659,192.035 73.229,161.98 73.229,125.035 C73.229,88.091 95.659,58.035 123.229,58.035 C123.781,58.035 124.229,58.483 124.229,59.035 C124.229,59.588 123.781,60.035 123.229,60.035 C96.762,60.035 75.229,89.195 75.229,125.035 C75.229,160.876 96.762,190.035 123.229,190.035 C149.696,190.035 171.229,160.876 171.229,125.035 C171.229,124.483 171.677,124.035 172.229,124.035 C172.781,124.035 173.229,124.483 173.229,125.035 C173.229,161.98 150.799,192.035 123.229,192.035"/>
    <polyline fill="#FFFFFE" points="157.55 92.26 157.419 92.48 157.26 92.188 157.55 92.26"/>
    <path fill="#434A4F" d="M121.254,110.255 L131.706,135.564 L136.178,126.569 L144.565,134.955 L145.979,133.541 L137.549,125.111 L145.202,120.518 L121.254,110.255 Z M131.537,140.396 L117.533,106.484 L149.585,120.221 L140.774,125.507 L148.808,133.541 L144.565,137.783 L136.731,129.949 L131.537,140.396 Z"/>
    <polygon fill="#434A4F" points="202.237 45.006 204.237 45.006 204.237 41.006 202.237 41.006"/>
    <polygon fill="#434A4F" points="202.237 55.006 204.237 55.006 204.237 51.006 202.237 51.006"/>
    <polygon fill="#434A4F" points="206.237 49.006 210.237 49.006 210.237 47.006 206.237 47.006"/>
    <polygon fill="#434A4F" points="196.237 49.006 200.237 49.006 200.237 47.006 196.237 47.006"/>
    <path fill="#75C7D0" d="M199.562,203.441 C199.562,205.834 197.622,207.774 195.229,207.774 C192.836,207.774 190.895,205.834 190.895,203.441 C190.895,201.048 192.836,199.108 195.229,199.108 C197.622,199.108 199.562,201.048 199.562,203.441"/>
    <polygon fill="#434A4F" points="35.757 71.022 37.757 71.022 37.757 67.022 35.757 67.022"/>
    <polygon fill="#434A4F" points="35.757 81.022 37.757 81.022 37.757 77.022 35.757 77.022"/>
    <polygon fill="#434A4F" points="39.757 75.022 43.757 75.022 43.757 73.022 39.757 73.022"/>
    <polygon fill="#434A4F" points="29.757 75.022 33.757 75.022 33.757 73.022 29.757 73.022"/>
    <path fill="#75C7D0" d="M124.737 194.574L124.737 214.581C140.595 214.48 155.487 210.241 168.386 202.888L158.38 185.557C148.425 191.205 136.955 194.474 124.737 194.574M124.16 194.588C112.082 194.588 100.716 191.491 90.806 186.056L80.806 203.376C93.661 210.515 108.443 214.588 124.16 214.588 124.353 214.588 124.545 214.583 124.737 214.581L124.737 194.574C124.544 194.576 124.354 194.588 124.16 194.588"/>
    <path fill="#E9886C" d="M158.38,185.557 L168.386,202.888 C181.724,195.285 192.93,184.358 200.867,171.239 L183.544,161.238 C177.366,171.325 168.685,179.711 158.38,185.557"/>
    <path fill="#E9886C" d="M193.691,127.286 C193.288,139.69 189.639,151.286 183.544,161.238 L200.867,171.239 C208.67,158.343 213.316,143.332 213.72,127.286 L193.691,127.286"/>
    <path fill="#FACD60" d="M160.357,65.59 L170.358,48.269 C157.014,40.205 141.409,35.525 124.737,35.419 L124.737,55.426 C137.768,55.533 149.958,59.231 160.357,65.59"/>
    <path fill="#FACD60" d="M185.512,92.197 L202.842,82.192 C195.207,68.216 183.957,56.487 170.358,48.269 L160.357,65.59 C170.924,72.052 179.637,81.253 185.512,92.197"/>
    <path fill="#434A4F" d="M124.16,35.412 C107.628,35.412 92.131,39.918 78.823,47.759 C65.004,55.902 53.551,67.644 45.761,81.689 C38.636,94.533 34.572,109.3 34.572,125 C34.572,125.764 34.582,126.526 34.601,127.286 C35.01,143.537 39.77,158.725 47.755,171.731 C55.847,184.914 67.254,195.85 80.806,203.376 L90.806,186.056 C80.287,180.287 71.422,171.874 65.089,161.724 C58.811,151.663 55.039,139.895 54.63,127.286 C54.605,126.525 54.572,125.767 54.572,125 C54.572,112.939 57.66,101.588 63.081,91.688 C69.111,80.674 78.039,71.471 88.826,65.085 C99.19,58.949 111.267,55.412 124.16,55.412 C124.354,55.412 124.544,55.425 124.737,55.426 L124.737,35.419 C124.545,35.418 124.353,35.412 124.16,35.412 Z M122.737,37.423 L122.737,53.426 C110.444,53.671 98.396,57.095 87.807,63.364 C76.678,69.952 67.521,79.415 61.326,90.727 C55.599,101.187 52.572,113.038 52.572,125 C52.572,125.634 52.593,126.263 52.615,126.892 L52.631,127.351 C53.039,139.901 56.76,152.153 63.392,162.782 C69.557,172.663 78.06,180.933 88.067,186.801 L80.069,200.653 C67.589,193.351 57.034,183.024 49.459,170.685 C41.433,157.611 36.986,142.586 36.6,127.236 C36.581,126.492 36.572,125.747 36.572,125 C36.572,110.201 40.354,95.559 47.51,82.658 C55.124,68.93 66.303,57.457 79.838,49.482 C92.833,41.826 107.637,37.669 122.737,37.423 Z"/>
    <path fill="#E9886C" d="M193.749,125 C193.749,125.767 193.716,126.525 193.691,127.286 L213.72,127.286 C213.739,126.526 213.749,125.764 213.749,125 C213.749,109.506 209.793,94.919 202.842,82.192 L185.512,92.197 C190.762,101.977 193.749,113.145 193.749,125"/>
    <polygon fill="#434A4F" points="212.243 185.09 214.243 185.09 214.243 181.09 212.243 181.09"/>
    <polygon fill="#434A4F" points="212.243 195.09 214.243 195.09 214.243 191.09 212.243 191.09"/>
    <polygon fill="#434A4F" points="216.243 189.09 220.243 189.09 220.243 187.09 216.243 187.09"/>
    <polygon fill="#434A4F" points="206.243 189.09 210.243 189.09 210.243 187.09 206.243 187.09"/>
    <path fill="#E9886C" d="M39.134 173.423C39.134 174.528 38.239 175.423 37.134 175.423 36.029 175.423 35.134 174.528 35.134 173.423 35.134 172.318 36.029 171.423 37.134 171.423 38.239 171.423 39.134 172.318 39.134 173.423M59.146 43.345C59.146 44.449 58.251 45.345 57.146 45.345 56.041 45.345 55.146 44.449 55.146 43.345 55.146 42.24 56.041 41.345 57.146 41.345 58.251 41.345 59.146 42.24 59.146 43.345"/>
  </g>
</svg>
