<svg xmlns="http://www.w3.org/2000/svg" width="250" height="250" viewBox="0 0 250 250">
  <g fill="none" fill-rule="evenodd">
    <path fill="#E9886C" d="M132.944,208.443 C132.944,208.443 130.244,158.191 128.895,152.792 C130.013,152.792 130.92,151.886 130.92,150.768 L130.92,145.706 L125.774,139.629 L120.796,145.706 L120.796,150.768 C120.796,151.886 121.703,152.792 122.821,152.792 C121.472,158.191 118.772,208.443 118.772,208.443 L132.944,208.443"/>
    <path fill="#DDDED9" d="M110.288,124.453 L110.288,128.876 L125.605,137.481 L140.79,129.129 L140.926,121.033 L140.926,114.209 C141.507,113.636 142.101,113.023 142.634,112.403 C142.452,112.562 142.278,112.722 142.128,112.883 C139.999,115.171 136.771,117.573 134.585,119.44 C132.856,120.916 130.67,121.733 128.396,121.759 L121.824,121.759 C119.551,121.733 117.364,120.916 115.635,119.44 C113.549,117.658 110.512,115.389 108.389,113.195 C108.325,113.129 108.251,113.064 108.182,112.998 C108.819,113.676 109.548,114.363 110.324,115.047 C110.307,115.055 110.288,115.063 110.288,115.083 L110.288,124.453"/>
    <path fill="#434A4F" d="M110.288,129.75 C109.735,129.75 109.288,129.302 109.288,128.75 L109.288,115.083 C109.288,114.531 109.735,114.083 110.288,114.083 C110.84,114.083 111.288,114.531 111.288,115.083 L111.288,128.75 C111.288,129.302 110.84,129.75 110.288,129.75"/>
    <path fill="#434A4F" d="M140.825 129.498C140.272 129.498 139.825 129.05 139.825 128.498L139.825 113.77 140.123 113.476C141.312 112.302 142.735 110.805 143.178 109.627L149.44 96.847 156.424 93.353 158.019 85.437C158.017 84.841 157.788 84.281 157.371 83.852 156.935 83.404 156.351 83.157 155.726 83.157L153.136 83.157 153.339 81.986C153.892 78.807 154.172 75.951 154.172 73.496L154.174 72.122C154.201 68.167 153.333 64.18 151.667 60.592 151.511 60.242 151.352 59.908 151.189 59.578 149.302 55.773 146.535 52.366 143.187 49.725 138.123 45.732 132.03 43.598 125.568 43.554 118.023 43.537 110.896 46.478 105.404 51.935 99.784 57.516 96.561 65.199 96.561 73.011L96.561 73.496C96.561 75.993 96.802 78.857 97.278 82.007L97.451 83.157 95.06 83.157C93.776 83.157 92.723 84.167 92.656 85.436L94.922 93.365 101.009 96.88 107.021 109.592C107.844 111.791 111.361 114.65 114.187 116.948 114.939 117.559 115.655 118.141 116.285 118.679 117.828 119.997 119.799 120.736 121.835 120.759L128.411 120.759C128.963 120.759 129.411 121.207 129.411 121.759 129.411 122.312 128.963 122.759 128.411 122.759L121.824 122.759C119.309 122.73 116.884 121.822 114.986 120.201 114.367 119.671 113.664 119.1 112.925 118.5 109.754 115.921 106.16 113 105.179 110.37L99.468 98.3 93.221 94.693 90.653 85.564C90.653 83.134 92.63 81.157 95.06 81.157L95.135 81.157C94.753 78.355 94.561 75.783 94.561 73.496L94.561 73.011C94.561 64.669 97.999 56.47 103.995 50.516 109.818 44.732 117.405 41.553 125.377 41.553 125.446 41.553 125.513 41.554 125.582 41.554 132.493 41.601 139.008 43.883 144.425 48.155 148.004 50.977 150.963 54.621 152.981 58.69 153.157 59.044 153.326 59.402 153.488 59.763 155.271 63.604 156.203 67.887 156.174 72.137L156.172 73.496C156.172 75.756 155.948 78.329 155.503 81.157L155.726 81.157C156.896 81.157 157.99 81.619 158.805 82.457 159.621 83.296 160.051 84.403 160.018 85.572L159.999 85.741 158.192 94.705 150.938 98.333 145.011 110.42C144.51 111.764 143.208 113.221 141.825 114.604L141.825 128.498C141.825 129.05 141.377 129.498 140.825 129.498M105.417 123.448L99.857 133.75 75.422 142.078C75.78 142.643 76.02 143.28 76.14 143.946L101.244 135.391 106.61 125.448 109.83 125.448 109.83 123.448 105.417 123.448M60.509 163.974C60.001 163.974 59.537 163.905 59.11 163.791L59.057 204.439 61.057 204.441 61.109 163.942C60.916 163.962 60.716 163.974 60.509 163.974"/>
    <path fill="#434A4F" d="M125.859 138.754L109.81 129.766C109.328 129.497 109.156 128.887 109.426 128.406 109.695 127.924 110.304 127.75 110.787 128.022L125.859 136.461 140.339 128.353C140.821 128.081 141.431 128.255 141.7 128.737 141.97 129.218 141.798 129.828 141.316 130.097L125.859 138.754M192.659 204.441L190.659 204.439 190.714 154.605C190.714 149.745 187.669 148.273 182.655 146.428L150.417 135.485 144.289 125.448 141.042 125.448 141.042 123.448 145.412 123.448 151.747 133.825 183.322 144.542C188.654 146.504 192.714 148.485 192.714 154.606L192.659 204.441"/>
    <path fill="#434A4F" d="M134.969,150.755 C134.696,150.755 134.423,150.644 134.226,150.424 L125.859,141.127 L117.49,150.424 C117.121,150.835 116.49,150.869 116.078,150.499 C115.667,150.129 115.634,149.497 116.003,149.086 L125.859,138.137 L135.712,149.086 C136.082,149.497 136.048,150.129 135.638,150.499 C135.447,150.67 135.208,150.755 134.969,150.755"/>
    <path fill="#E9886C" d="M181.162,89.323 C168.479,89.323 158.162,99.64 158.162,112.323 C158.162,125.005 168.479,135.323 181.162,135.323 C193.844,135.323 204.162,125.005 204.162,112.323 C204.162,99.64 193.844,89.323 181.162,89.323 Z M181.162,137.323 C167.376,137.323 156.162,126.108 156.162,112.323 C156.162,98.538 167.376,87.323 181.162,87.323 C194.947,87.323 206.162,98.538 206.162,112.323 C206.162,126.108 194.947,137.323 181.162,137.323 Z"/>
    <polyline fill="#434A4F" points="182.116 124.456 180.116 124.456 180.116 111.434 188.003 111.434 188.003 113.434 182.116 113.434 182.116 124.456"/>
    <path fill="#434A4F" d="M181.161 133.767C180.608 133.767 180.161 133.32 180.161 132.767L180.161 129.211C180.161 128.659 180.608 128.211 181.161 128.211 181.713 128.211 182.161 128.659 182.161 129.211L182.161 132.767C182.161 133.32 181.713 133.767 181.161 133.767M164.714 113.323L161.159 113.323C160.606 113.323 160.159 112.875 160.159 112.323 160.159 111.77 160.606 111.323 161.159 111.323L164.714 111.323C165.267 111.323 165.714 111.77 165.714 112.323 165.714 112.875 165.267 113.323 164.714 113.323"/>
    <path fill="#434A4F" d="M181.161 133.767C180.608 133.767 180.161 133.32 180.161 132.767L180.161 129.211C180.161 128.659 180.608 128.211 181.161 128.211 181.713 128.211 182.161 128.659 182.161 129.211L182.161 132.767C182.161 133.32 181.713 133.767 181.161 133.767M164.714 113.323L161.159 113.323C160.606 113.323 160.159 112.875 160.159 112.323 160.159 111.77 160.606 111.323 161.159 111.323L164.714 111.323C165.267 111.323 165.714 111.77 165.714 112.323 165.714 112.875 165.267 113.323 164.714 113.323M170.997 130.806C170.827 130.806 170.655 130.763 170.498 130.672 170.019 130.396 169.855 129.785 170.131 129.306L171.909 126.227C172.185 125.749 172.797 125.584 173.275 125.861 173.753 126.137 173.917 126.749 173.641 127.227L171.864 130.306C171.678 130.626 171.342 130.806 170.997 130.806M163.567 123.131C163.221 123.131 162.885 122.952 162.7 122.631 162.423 122.153 162.587 121.542 163.066 121.265L166.145 119.488C166.622 119.211 167.234 119.376 167.511 119.854 167.788 120.333 167.624 120.944 167.145 121.22L164.066 122.998C163.909 123.088 163.737 123.131 163.567 123.131"/>
    <path fill="#434A4F" d="M181.171 133.767C180.619 133.767 180.171 133.32 180.171 132.767L180.171 129.211C180.171 128.659 180.619 128.211 181.171 128.211 181.724 128.211 182.171 128.659 182.171 129.211L182.171 132.767C182.171 133.32 181.724 133.767 181.171 133.767M201.172 113.323L197.617 113.323C197.064 113.323 196.617 112.875 196.617 112.323 196.617 111.77 197.064 111.323 197.617 111.323L201.172 111.323C201.725 111.323 202.172 111.77 202.172 112.323 202.172 112.875 201.725 113.323 201.172 113.323M191.334 130.806C190.989 130.806 190.653 130.626 190.467 130.306L188.69 127.227C188.414 126.749 188.578 126.137 189.056 125.861 189.533 125.584 190.145 125.749 190.422 126.227L192.2 129.306C192.476 129.785 192.312 130.396 191.833 130.672 191.676 130.763 191.504 130.806 191.334 130.806M198.765 123.131C198.595 123.131 198.423 123.088 198.266 122.998L195.187 121.22C194.708 120.944 194.544 120.333 194.821 119.854 195.097 119.376 195.708 119.211 196.187 119.488L199.266 121.265C199.745 121.542 199.909 122.153 199.632 122.631 199.447 122.952 199.111 123.131 198.765 123.131M181.161 96.866C180.608 96.866 180.161 96.419 180.161 95.866L180.161 92.311C180.161 91.758 180.608 91.311 181.161 91.311 181.713 91.311 182.161 91.758 182.161 92.311L182.161 95.866C182.161 96.419 181.713 96.866 181.161 96.866"/>
    <path fill="#434A4F" d="M181.161 96.866C180.608 96.866 180.161 96.419 180.161 95.866L180.161 92.311C180.161 91.758 180.608 91.311 181.161 91.311 181.713 91.311 182.161 91.758 182.161 92.311L182.161 95.866C182.161 96.419 181.713 96.866 181.161 96.866M172.776 99.35C172.43 99.35 172.094 99.17 171.909 98.85L170.131 95.771C169.855 95.293 170.019 94.681 170.498 94.405 170.973 94.128 171.586 94.292 171.864 94.771L173.641 97.85C173.917 98.329 173.753 98.94 173.275 99.216 173.118 99.307 172.946 99.35 172.776 99.35M166.644 105.724C166.474 105.724 166.302 105.681 166.145 105.59L163.066 103.812C162.587 103.536 162.423 102.924 162.7 102.446 162.976 101.966 163.588 101.803 164.066 102.08L167.145 103.858C167.624 104.134 167.788 104.746 167.511 105.224 167.326 105.545 166.99 105.724 166.644 105.724"/>
    <path fill="#434A4F" d="M181.171 96.866C180.619 96.866 180.171 96.419 180.171 95.866L180.171 92.311C180.171 91.758 180.619 91.311 181.171 91.311 181.724 91.311 182.171 91.758 182.171 92.311L182.171 95.866C182.171 96.419 181.724 96.866 181.171 96.866M189.555 99.35C189.385 99.35 189.213 99.307 189.056 99.216 188.578 98.94 188.414 98.329 188.69 97.85L190.467 94.771C190.744 94.292 191.355 94.128 191.833 94.405 192.312 94.681 192.476 95.293 192.2 95.771L190.422 98.85C190.237 99.17 189.901 99.35 189.555 99.35M195.688 105.724C195.342 105.724 195.006 105.545 194.821 105.224 194.544 104.746 194.708 104.134 195.187 103.858L198.266 102.08C198.743 101.803 199.355 101.966 199.632 102.446 199.909 102.924 199.745 103.536 199.266 103.812L196.187 105.59C196.03 105.681 195.858 105.724 195.688 105.724"/>
    <path fill="#42494E" d="M43.254,185.412 C41.601,185.412 40.255,186.757 40.255,188.412 C40.255,190.066 41.601,191.412 43.255,191.412 L143.804,191.412 L150.31,188.412 L143.804,185.412 L43.254,185.412 Z M144.244,193.412 L43.255,193.412 C40.498,193.412 38.255,191.168 38.255,188.412 C38.255,185.655 40.498,183.412 43.254,183.412 L144.244,183.412 L155.085,188.412 L144.244,193.412 Z"/>
    <polygon fill="#42494E" points="48.865 192.412 50.865 192.412 50.865 184.813 48.865 184.813"/>
    <polygon fill="#42494E" points="49.865 189.382 143.255 189.382 143.255 187.382 49.865 187.382"/>
    <path fill="#434A4F" d="M191.662 208.447C191.392 208.447 191.142 208.337 190.952 208.147 190.762 207.957 190.662 207.707 190.662 207.447 190.662 207.307 190.682 207.177 190.732 207.057 190.782 206.937 190.862 206.827 190.952 206.737 191.322 206.367 191.992 206.357 192.362 206.737 192.462 206.827 192.532 206.937 192.583 207.057 192.632 207.177 192.652 207.307 192.652 207.447 192.652 207.707 192.552 207.957 192.362 208.147 192.172 208.337 191.922 208.447 191.662 208.447M60.052 208.447C59.792 208.447 59.543 208.337 59.352 208.147 59.162 207.957 59.052 207.707 59.052 207.447 59.052 207.307 59.082 207.177 59.132 207.057 59.182 206.937 59.252 206.827 59.352 206.737 59.712 206.367 60.392 206.357 60.762 206.737 60.862 206.827 60.932 206.937 60.982 207.057 61.032 207.177 61.052 207.307 61.052 207.447 61.052 207.707 60.952 207.957 60.762 208.147 60.672 208.247 60.562 208.317 60.442 208.367 60.322 208.417 60.192 208.447 60.052 208.447"/>
    <path fill="#42494E" d="M54.512,146.206 C53.479,149.412 55.24,152.865 58.445,153.91 C59.998,154.417 61.66,154.289 63.12,153.546 C64.579,152.805 65.662,151.541 66.169,149.985 C66.652,148.448 66.516,146.813 65.785,145.374 C65.044,143.916 63.778,142.833 62.222,142.326 C60.665,141.818 59.005,141.948 57.546,142.688 C56.102,143.422 55.026,144.67 54.512,146.206 Z M60.338,156.212 C59.504,156.212 58.659,156.083 57.825,155.812 C53.586,154.429 51.252,149.873 52.596,145.631 L52.595,145.63 C52.601,145.615 52.606,145.598 52.612,145.583 C52.614,145.577 52.616,145.571 52.617,145.566 L52.618,145.566 C53.299,143.532 54.726,141.878 56.64,140.905 C58.576,139.921 60.776,139.751 62.842,140.423 C67.102,141.812 69.439,146.409 68.05,150.668 L68.049,150.668 C66.914,154.058 63.74,156.212 60.338,156.212 Z"/>
    <path fill="#42494E" d="M59.291,163.416 L61.364,163.418 L61.366,162.186 C61.367,160.622 62.33,159.299 63.818,158.817 C65.306,158.334 66.861,158.84 67.781,160.109 L68.504,161.107 L70.182,159.89 L69.46,158.893 C68.54,157.626 68.542,155.99 69.464,154.725 C70.386,153.459 71.946,152.96 73.429,153.441 L74.6,153.824 L74.922,152.836 L74.921,152.836 L75.221,151.917 L74.049,151.535 C72.562,151.05 71.602,149.726 71.604,148.161 C71.605,146.596 72.569,145.274 74.057,144.792 L75.229,144.413 L74.59,142.441 L73.417,142.82 C71.931,143.3 70.373,142.795 69.456,141.529 C68.537,140.262 68.539,138.626 69.46,137.361 L70.185,136.365 L68.509,135.145 L67.785,136.141 C66.864,137.407 65.31,137.912 63.82,137.424 C62.331,136.94 61.372,135.616 61.373,134.05 L61.373,132.819 L59.301,132.817 L59.3,134.048 C59.298,135.614 58.335,136.936 56.846,137.418 C55.36,137.9 53.802,137.394 52.884,136.126 L52.162,135.128 L50.483,136.345 L51.206,137.342 C52.125,138.61 52.123,140.246 51.203,141.511 C50.282,142.775 48.729,143.279 47.238,142.794 L46.066,142.413 L45.446,144.317 L46.616,144.698 C48.104,145.183 49.064,146.508 49.063,148.073 C49.061,149.637 48.098,150.959 46.61,151.442 L45.438,151.822 L46.076,153.792 L47.248,153.414 C48.74,152.931 50.293,153.44 51.21,154.707 C52.128,155.973 52.127,157.609 51.206,158.874 L50.481,159.87 L52.157,161.089 L52.881,160.093 C53.803,158.829 55.358,158.325 56.847,158.81 C58.335,159.295 59.294,160.62 59.292,162.184 L59.291,163.416 Z M63.362,165.42 L57.29,165.414 L57.293,162.182 C57.293,161.354 56.743,160.879 56.227,160.711 C55.71,160.544 54.986,160.603 54.499,161.271 L52.596,163.884 L47.686,160.309 L49.589,157.696 C50.077,157.027 49.91,156.319 49.591,155.88 C49.273,155.44 48.655,155.064 47.864,155.316 L44.789,156.312 L42.919,150.535 L45.994,149.54 C46.781,149.285 47.062,148.614 47.063,148.071 C47.063,147.528 46.784,146.856 45.997,146.6 L42.924,145.598 L44.785,139.891 L47.857,140.892 C48.645,141.151 49.266,140.772 49.585,140.333 C49.905,139.895 50.074,139.187 49.587,138.516 L47.69,135.9 L52.607,132.335 L54.503,134.953 C54.99,135.624 55.713,135.685 56.23,135.515 C56.747,135.348 57.299,134.875 57.3,134.046 L57.303,130.815 L63.375,130.821 L63.373,134.052 C63.372,134.88 63.923,135.355 64.44,135.523 C64.956,135.693 65.681,135.632 66.167,134.963 L68.07,132.35 L72.978,135.925 L71.077,138.539 C70.589,139.208 70.756,139.916 71.075,140.354 C71.393,140.794 72.016,141.17 72.801,140.917 L75.877,139.921 L77.748,145.7 L74.672,146.695 C73.885,146.95 73.604,147.621 73.604,148.163 C73.603,148.706 73.883,149.377 74.669,149.633 L77.743,150.636 L76.957,153.042 L76.959,153.042 L75.881,156.345 L72.808,155.342 C72.025,155.086 71.401,155.462 71.081,155.902 C70.761,156.341 70.592,157.049 71.079,157.719 L72.975,160.335 L68.059,163.9 L66.162,161.283 C65.674,160.612 64.949,160.555 64.434,160.719 C63.918,160.887 63.367,161.36 63.366,162.188 L63.362,165.42 Z"/>
    <polygon fill="#434A4F" points="34.947 124.454 36.947 124.454 36.947 120.454 34.947 120.454"/>
    <polygon fill="#434A4F" points="34.947 134.454 36.947 134.454 36.947 130.454 34.947 130.454"/>
    <polygon fill="#434A4F" points="38.947 128.454 42.947 128.454 42.947 126.454 38.947 126.454"/>
    <polygon fill="#434A4F" points="28.947 128.454 32.947 128.454 32.947 126.454 28.947 126.454"/>
    <polygon fill="#434A4F" points="193.042 64.417 195.042 64.417 195.042 60.417 193.042 60.417"/>
    <polygon fill="#434A4F" points="193.042 74.417 195.042 74.417 195.042 70.417 193.042 70.417"/>
    <polygon fill="#434A4F" points="197.042 68.417 201.042 68.417 201.042 66.417 197.042 66.417"/>
    <polygon fill="#434A4F" points="187.042 68.417 191.042 68.417 191.042 66.417 187.042 66.417"/>
    <polygon fill="#434A4F" points="213.053 172.429 215.053 172.429 215.053 168.429 213.053 168.429"/>
    <polygon fill="#434A4F" points="213.053 182.429 215.053 182.429 215.053 178.429 213.053 178.429"/>
    <polygon fill="#434A4F" points="217.053 176.429 221.053 176.429 221.053 174.429 217.053 174.429"/>
    <polygon fill="#434A4F" points="207.053 176.429 211.053 176.429 211.053 174.429 207.053 174.429"/>
    <path fill="#E9886C" d="M91.152 164.429C91.152 165.534 90.256 166.429 89.152 166.429 88.047 166.429 87.152 165.534 87.152 164.429 87.152 163.325 88.047 162.429 89.152 162.429 90.256 162.429 91.152 163.325 91.152 164.429M67.152 121.429C67.152 121.982 66.704 122.429 66.152 122.429 65.6 122.429 65.152 121.982 65.152 121.429 65.152 120.877 65.6 120.429 66.152 120.429 66.704 120.429 67.152 120.877 67.152 121.429"/>
    <path fill="#FACD60" d="M203.152,134.429 C203.152,135.534 202.256,136.429 201.152,136.429 C200.047,136.429 199.152,135.534 199.152,134.429 C199.152,133.325 200.047,132.429 201.152,132.429 C202.256,132.429 203.152,133.325 203.152,134.429"/>
  </g>
</svg>
