<svg xmlns="http://www.w3.org/2000/svg" width="250" height="250" viewBox="0 0 250 250">
  <g fill="none" fill-rule="evenodd">
    <path fill="#DBDBD5" d="M180.99,47.85 L171.006,57.835 L171.006,54.483 L167.441,54.483 L161,60.942 L161,88.477 C161,103.268 125,124.477 125,124.477 C125,124.477 113.896,117.931 104.021,109.578 C113.91,122.047 135.006,134.483 135.006,134.483 C135.006,134.483 171.006,113.274 171.006,98.483 L171.006,70.948 L187.523,54.383 L180.99,47.85"/>
    <polygon fill="#434A4F" points="183 57.06 185 57.06 185 53.06 183 53.06"/>
    <polygon fill="#434A4F" points="183 67.06 185 67.06 185 63.06 183 63.06"/>
    <polygon fill="#434A4F" points="187 61.06 191 61.06 191 59.06 187 59.06"/>
    <polygon fill="#434A4F" points="177 61.06 181 61.06 181 59.06 177 59.06"/>
    <path fill="#FACD60" d="M67,97.061 C67,98.165 66.104,99.061 65,99.061 C63.895,99.061 63,98.165 63,97.061 C63,95.956 63.895,95.061 65,95.061 C66.104,95.061 67,95.956 67,97.061"/>
    <path fill="#434A4F" d="M80.999,200.06 C80.446,200.06 79.999,199.613 79.999,199.06 L79.999,191.794 L54.272,172.723 C53.006,171.782 52.25,170.281 52.25,168.706 L52.25,139.887 L53.25,139.887 C61.092,139.887 61.999,146.147 61.999,150.856 L61.999,163.12 L65.176,165.947 C65.588,166.314 65.625,166.946 65.258,167.359 C64.891,167.772 64.258,167.807 63.846,167.441 L59.999,164.016 L59.999,150.856 C59.999,144.948 58.317,142.284 54.25,141.929 L54.25,168.706 C54.25,169.651 54.704,170.552 55.464,171.116 L81.999,190.786 L81.999,199.06 C81.999,199.613 81.552,200.06 80.999,200.06"/>
    <path fill="#434A4F" d="M68.654,165.694 C68.42,165.694 68.186,165.613 67.996,165.447 L63.891,161.856 L63.891,139.13 C63.891,133.145 62.29,130.548 58.248,130.201 L58.248,141.074 C58.248,141.627 57.801,142.074 57.248,142.074 C56.695,142.074 56.248,141.627 56.248,141.074 L56.248,128.16 L57.248,128.16 C64.908,128.16 65.891,134.022 65.891,139.13 L65.891,160.948 L69.313,163.941 C69.729,164.306 69.771,164.936 69.407,165.352 C69.209,165.579 68.933,165.694 68.654,165.694"/>
    <path fill="#434A4F" d="M72.657,163.693 C72.423,163.693 72.188,163.612 71.999,163.446 L67.893,159.854 L67.893,136.128 C67.893,130.143 66.292,127.546 62.25,127.199 L62.25,129.243 C62.25,129.796 61.803,130.243 61.25,130.243 C60.697,130.243 60.25,129.796 60.25,129.243 L60.25,125.158 L61.25,125.158 C68.91,125.158 69.893,131.02 69.893,136.128 L69.893,158.946 L73.315,161.94 C73.731,162.305 73.773,162.936 73.41,163.351 C73.212,163.578 72.936,163.693 72.657,163.693"/>
    <polyline fill="#434A4F" points="116.843 211.06 114.843 211.06 114.843 200.06 77.844 200.06 77.844 211.06 75.844 211.06 75.844 198.06 116.843 198.06 116.843 211.06"/>
    <polygon fill="#75C7D0" points="70.844 221.061 118.964 221.061 118.964 208.066 70.844 208.066"/>
    <path fill="#434A4F" d="M84.843,216.06 L80.844,216.06 C80.291,216.06 79.844,215.613 79.844,215.06 C79.844,214.508 80.291,214.06 80.844,214.06 L84.843,214.06 C85.396,214.06 85.843,214.508 85.843,215.06 C85.843,215.613 85.396,216.06 84.843,216.06"/>
    <path fill="#434A4F" d="M78.844 214.06C78.292 214.06 77.844 214.509 77.844 215.06 77.844 215.612 78.292 216.06 78.844 216.06 79.396 216.06 79.844 215.612 79.844 215.06 79.844 214.509 79.396 214.06 78.844 214.06zM78.844 218.06C77.189 218.06 75.844 216.715 75.844 215.06 75.844 213.406 77.189 212.06 78.844 212.06 80.498 212.06 81.844 213.406 81.844 215.06 81.844 216.715 80.498 218.06 78.844 218.06zM112.703 200.06C112.701 200.06 112.699 200.06 112.698 200.06 112.146 200.057 111.7 199.607 111.703 199.056L111.992 144.538C108.687 144.542 105.999 147.232 105.999 150.538L105.999 162.239C105.999 164.814 104.722 167.206 102.582 168.638 100.441 170.07 97.744 170.338 95.362 169.357L78.268 162.164 71.896 156.868 71.896 136.128C71.896 129.673 70.033 127.158 65.253 127.158 64.7 127.158 64.253 126.711 64.253 126.158 64.253 125.605 64.7 125.158 65.253 125.158 72.913 125.158 73.896 131.02 73.896 136.128L73.896 155.931 79.43 160.529 96.13 167.51C97.912 168.245 99.86 168.053 101.47 166.975 103.077 165.9 103.999 164.174 103.999 162.239L103.999 150.538C103.999 146.127 107.588 142.538 111.999 142.538L114.002 142.538 113.703 199.065C113.7 199.616 113.253 200.06 112.703 200.06M169.262 200.06C168.709 200.06 168.262 199.613 168.262 199.06L168.262 190.786 194.797 171.115C195.557 170.552 196.011 169.651 196.011 168.706L196.011 141.929C191.943 142.284 190.262 144.948 190.262 150.856L190.262 164.016 186.415 167.441C186.003 167.807 185.369 167.771 185.003 167.359 184.636 166.946 184.673 166.314 185.085 165.947L188.262 163.12 188.262 150.856C188.262 146.147 189.169 139.887 197.011 139.887L198.011 139.887 198.011 168.706C198.011 170.281 197.255 171.782 195.988 172.722L170.262 191.794 170.262 199.06C170.262 199.613 169.814 200.06 169.262 200.06"/>
    <path fill="#434A4F" d="M181.606,165.694 C181.328,165.694 181.052,165.579 180.854,165.352 C180.49,164.936 180.532,164.306 180.948,163.941 L184.37,160.948 L184.37,139.13 C184.37,134.022 185.353,128.16 193.013,128.16 L194.013,128.16 L194.013,141.074 C194.013,141.627 193.565,142.074 193.013,142.074 C192.46,142.074 192.013,141.627 192.013,141.074 L192.013,130.201 C187.971,130.548 186.37,133.145 186.37,139.13 L186.37,161.856 L182.265,165.447 C182.075,165.613 181.841,165.694 181.606,165.694"/>
    <path fill="#434A4F" d="M177.604,163.693 C177.325,163.693 177.049,163.578 176.851,163.351 C176.487,162.936 176.529,162.305 176.945,161.94 L180.368,158.946 L180.368,136.128 C180.368,131.02 181.351,125.158 189.011,125.158 L190.011,125.158 L190.011,129.243 C190.011,129.796 189.563,130.243 189.011,130.243 C188.458,130.243 188.011,129.796 188.011,129.243 L188.011,127.199 C183.969,127.546 182.368,130.143 182.368,136.128 L182.368,159.854 L178.262,163.446 C178.072,163.612 177.838,163.693 177.604,163.693"/>
    <polyline fill="#434A4F" points="174.417 211.06 172.417 211.06 172.417 200.06 135.418 200.06 135.418 211.06 133.418 211.06 133.418 198.06 174.417 198.06 174.417 211.06"/>
    <polygon fill="#75C7D0" points="131.297 221.061 179.417 221.061 179.417 208.066 131.297 208.066"/>
    <path fill="#434A4F" d="M169.417,216.06 L165.418,216.06 C164.865,216.06 164.418,215.613 164.418,215.06 C164.418,214.508 164.865,214.06 165.418,214.06 L169.417,214.06 C169.97,214.06 170.417,214.508 170.417,215.06 C170.417,215.613 169.97,216.06 169.417,216.06"/>
    <path fill="#434A4F" d="M171.417 214.06C170.865 214.06 170.417 214.509 170.417 215.06 170.417 215.612 170.865 216.06 171.417 216.06 171.969 216.06 172.417 215.612 172.417 215.06 172.417 214.509 171.969 214.06 171.417 214.06zM171.417 218.06C169.763 218.06 168.417 216.715 168.417 215.06 168.417 213.406 169.763 212.06 171.417 212.06 173.071 212.06 174.417 213.406 174.417 215.06 174.417 216.715 173.071 218.06 171.417 218.06zM137.558 200.06C137.008 200.06 136.561 199.616 136.558 199.065L136.259 142.538 138.262 142.538C142.673 142.538 146.262 146.127 146.262 150.538L146.262 162.239C146.262 164.174 147.184 165.9 148.791 166.975 150.399 168.051 152.346 168.248 154.137 167.508L170.831 160.529 176.366 155.93 176.366 136.128C176.366 131.02 177.349 125.158 185.008 125.158 185.561 125.158 186.008 125.605 186.008 126.158 186.008 126.711 185.561 127.158 185.008 127.158 180.229 127.158 178.366 129.673 178.366 136.128L178.366 156.869 171.74 162.317 154.903 169.355C152.517 170.339 149.819 170.07 147.679 168.638 145.539 167.206 144.262 164.813 144.262 162.239L144.262 150.538C144.262 147.232 141.574 144.542 138.269 144.538L138.558 199.056C138.561 199.607 138.115 200.057 137.563 200.06 137.562 200.06 137.56 200.06 137.558 200.06M125 125.637L124.492 125.338C123.002 124.46 88 103.665 88 88.476L88 43.476 94.561 43.476C105.987 43.476 116.806 38.501 124.24 29.826L125 28.939 125.76 29.826C133.194 38.501 144.013 43.476 155.439 43.476L162 43.476 162 48.061 160 48.061 160 45.476 155.439 45.476C143.812 45.476 132.783 40.575 125 31.988 117.217 40.575 106.188 45.476 94.561 45.476L90 45.476 90 88.476C90 101.603 120.651 120.672 125 123.309 129.346 120.673 160 101.6 160 88.476L160 61.06 162 61.06 162 88.476C162 103.665 126.998 124.46 125.508 125.338L125 125.637"/>
    <path fill="#E9886C" d="M158 50.829L158 47.477 155.439 47.477C143.966 47.477 133.049 42.926 125 34.887L125 83.829 158 50.829M125 97.046L124.999 120.98C138.373 112.839 158 97.64 158 88.477L158 63.951 125 97.046"/>
    <path fill="#FACD60" d="M157 118.061C157 118.613 156.552 119.061 156 119.061 155.448 119.061 155 118.613 155 118.061 155 117.508 155.448 117.061 156 117.061 156.552 117.061 157 117.508 157 118.061M179 87.061C179 88.165 178.104 89.061 177 89.061 175.895 89.061 175 88.165 175 87.061 175 85.956 175.895 85.061 177 85.061 178.104 85.061 179 85.956 179 87.061"/>
    <path fill="#E9886C" d="M95,124.061 C95,125.718 93.657,127.061 92,127.061 C90.343,127.061 89,125.718 89,124.061 C89,122.404 90.343,121.061 92,121.061 C93.657,121.061 95,122.404 95,124.061"/>
    <polygon fill="#434A4F" points="35 99.06 37 99.06 37 95.06 35 95.06"/>
    <polygon fill="#434A4F" points="35 109.06 37 109.06 37 105.06 35 105.06"/>
    <polygon fill="#434A4F" points="39 103.06 43 103.06 43 101.06 39 101.06"/>
    <polygon fill="#434A4F" points="29 103.06 33 103.06 33 101.06 29 101.06"/>
    <polygon fill="#434A4F" points="213 123.06 215 123.06 215 119.06 213 119.06"/>
    <polygon fill="#434A4F" points="213 133.06 215 133.06 215 129.06 213 129.06"/>
    <polygon fill="#434A4F" points="217 127.06 221 127.06 221 125.06 217 125.06"/>
    <polygon fill="#434A4F" points="207 127.06 211 127.06 211 125.06 207 125.06"/>
    <path fill="#434A4F" d="M100.412,70.936 L124.986,95.643 L176.104,44.379 L170.984,39.259 L124.982,85.261 L105.535,65.813 L100.412,70.936 Z M124.984,98.477 L97.588,70.932 L105.535,62.985 L124.982,82.432 L170.984,36.431 L178.93,44.377 L124.984,98.477 Z"/>
    <polyline fill="#75C7D0" points="103.237 70.94 124.988 92.809 173.277 44.38 170.984 42.087 124.982 88.089 105.535 68.642 103.237 70.94"/>
  </g>
</svg>
