<svg xmlns="http://www.w3.org/2000/svg" width="250" height="250" viewBox="0 0 250 250">
  <g fill="none" fill-rule="evenodd">
    <polygon fill="#DDDED9" points="174.002 172.133 210.002 172.133 210.002 167.468 174.002 167.468"/>
    <polyline fill="#FACD60" points="64.499 110.437 109.998 110.437 80.749 71.437 64.499 110.437"/>
    <path fill="#75C7D0" d="M177.024,164.32 L175.028,164.32 L175.028,122.017 L140.181,158.406 L134.864,153.09 L170.327,117.043 L181.855,113.115 C183.608,116.831 187.956,119.467 193.028,119.467 C197.989,119.467 202.256,116.946 204.081,113.361 L217.028,119.4 L217.028,170.244 L216.786,170.487 L213.028,170.487 L213.028,170.321 L215.028,170.321 L215.028,129.487 L209.028,129.487 L209.028,164.321 L207.028,164.321 L177.024,164.32"/>
    <path fill="#DDDED9" d="M186.967,105.945 L198.216,109.092 L198.993,104.603 L198.993,101.924 C199.221,101.7 197.362,103.245 196.504,103.978 C195.825,104.557 194.967,104.878 194.075,104.888 L191.508,104.888 C190.629,104.888 189.773,104.584 189.106,104.012 L187.153,102.592 L186.967,105.945"/>
    <path fill="#434A4F" d="M184.028 110.467C183.6 110.467 183.204 110.191 183.072 109.76 182.911 109.232 183.208 108.673 183.735 108.511L185.967 107.828 185.967 102.268C185.967 101.715 186.415 101.268 186.967 101.268 187.52 101.268 187.967 101.715 187.967 102.268L187.967 109.306 184.321 110.423C184.224 110.453 184.125 110.467 184.028 110.467M202.028 110.467C201.926 110.467 201.822 110.452 201.719 110.418L197.953 109.194 197.953 101.498 198.25 101.204C198.475 100.983 199.159 100.308 199.308 99.912L201.879 94.659 204.539 93.328 205.091 90.588C205.08 90.517 205.043 90.465 205.012 90.433 204.973 90.392 204.904 90.344 204.802 90.344L203.062 90.344 203.266 89.172C203.478 87.961 203.584 86.875 203.584 85.945L203.584 85.498 204.585 85.409 205.585 85.414 205.584 85.945C205.584 86.695 205.524 87.525 205.405 88.423 205.797 88.53 206.155 88.74 206.446 89.039 206.881 89.488 207.111 90.077 207.093 90.702L207.074 90.87 206.307 94.68 203.377 96.145 201.142 100.705C200.949 101.228 200.476 101.79 199.953 102.328L199.953 107.741 202.337 108.516C202.863 108.687 203.15 109.251 202.979 109.777 202.842 110.199 202.45 110.467 202.028 110.467"/>
    <path fill="#434A4F" d="M194.081 105.888L191.496 105.888C190.359 105.874 189.27 105.466 188.417 104.739 188.177 104.534 187.905 104.312 187.619 104.079 186.314 103.019 184.835 101.817 184.394 100.629L182.253 96.112 179.752 94.668 178.653 90.681C178.653 89.618 179.368 88.717 180.343 88.436 180.24 87.538 180.188 86.704 180.188 85.945L180.188 85.754C180.188 85.201 180.635 84.754 181.188 84.754 181.74 84.754 182.188 85.201 182.188 85.754L182.188 85.945C182.188 86.896 182.28 87.99 182.461 89.195L182.635 90.344 180.991 90.344C180.837 90.344 180.708 90.447 180.667 90.587L181.454 93.34 183.794 94.692 186.234 99.853C186.52 100.609 187.94 101.764 188.881 102.528 189.18 102.771 189.465 103.003 189.716 103.217 190.213 103.642 190.85 103.88 191.508 103.888L194.081 103.888C194.633 103.888 195.081 104.335 195.081 104.888 195.081 105.441 194.633 105.888 194.081 105.888M177.032 167.325C177.032 166.765 177.472 166.325 178.032 166.325 178.582 166.325 179.032 166.765 179.032 167.325 179.032 167.875 178.582 168.325 178.032 168.325 177.472 168.325 177.032 167.875 177.032 167.325zM181.032 167.325C181.032 166.765 181.472 166.325 182.032 166.325 182.582 166.325 183.032 166.765 183.032 167.325 183.032 167.875 182.582 168.325 182.032 168.325 181.472 168.325 181.032 167.875 181.032 167.325zM185.032 167.325C185.032 166.765 185.472 166.325 186.032 166.325 186.582 166.325 187.032 166.765 187.032 167.325 187.032 167.875 186.582 168.325 186.032 168.325 185.472 168.325 185.032 167.875 185.032 167.325zM189.032 167.325C189.032 166.765 189.472 166.325 190.032 166.325 190.582 166.325 191.032 166.765 191.032 167.325 191.032 167.875 190.582 168.325 190.032 168.325 189.472 168.325 189.032 167.875 189.032 167.325zM193.032 167.325C193.032 166.765 193.472 166.325 194.032 166.325 194.582 166.325 195.032 166.765 195.032 167.325 195.032 167.875 194.582 168.325 194.032 168.325 193.472 168.325 193.032 167.875 193.032 167.325zM197.032 167.325C197.032 166.765 197.472 166.325 198.032 166.325 198.582 166.325 199.032 166.765 199.032 167.325 199.032 167.875 198.582 168.325 198.032 168.325 197.472 168.325 197.032 167.875 197.032 167.325zM201.032 167.325C201.032 166.765 201.472 166.325 202.032 166.325 202.582 166.325 203.032 166.765 203.032 167.325 203.032 167.875 202.582 168.325 202.032 168.325 201.472 168.325 201.032 167.875 201.032 167.325zM205.032 167.325C205.032 166.765 205.472 166.325 206.032 166.325 206.582 166.325 207.032 166.765 207.032 167.325 207.032 167.875 206.582 168.325 206.032 168.325 205.472 168.325 205.032 167.875 205.032 167.325z"/>
    <polygon fill="#434A4F" points="191.027 216.467 193.027 216.467 193.027 177.488 191.027 177.488"/>
    <polyline fill="#434A4F" points="211.028 216.467 209.028 216.467 209.028 166.321 211.028 166.321 211.028 129.488 213.028 129.488 213.028 168.321 211.028 168.321 211.028 216.467"/>
    <polyline fill="#434A4F" points="214.442 186.488 210.028 186.488 210.028 184.488 213.614 184.488 215.028 183.074 215.028 173.488 217.028 173.488 217.028 183.902 214.442 186.488"/>
    <polyline fill="#434A4F" points="178.351 176.488 174.028 176.488 174.028 174.488 177.206 174.488 179.091 171.279 179.091 169.425 181.091 169.425 181.091 171.824 178.351 176.488"/>
    <polyline fill="#434A4F" points="209.778 176.488 205.415 176.488 203.028 171.79 203.028 169.363 205.028 169.363 205.028 171.312 206.642 174.488 209.778 174.488 209.778 176.488"/>
    <path fill="#434A4F" d="M198.028 98.468C197.904 98.468 197.779 98.446 197.657 98.397L193.028 96.544 188.4 98.397C187.887 98.604 187.305 98.353 187.1 97.839 186.895 97.326 187.144 96.744 187.657 96.539L193.028 94.39 198.4 96.539C198.913 96.744 199.162 97.326 198.957 97.839 198.8 98.231 198.425 98.468 198.028 98.468M194.572 74.935C194.021 74.845 193.652 74.335 193.742 73.785 193.822 73.244 194.342 72.865 194.882 72.954 195.422 73.045 195.802 73.555 195.712 74.105 195.632 74.595 195.212 74.945 194.732 74.945 194.672 74.945 194.622 74.945 194.572 74.935zM189.762 74.195C189.662 73.655 190.012 73.125 190.552 73.025 191.102 72.914 191.622 73.265 191.732 73.815 191.832 74.355 191.482 74.875 190.942 74.985 190.872 74.995 190.812 75.005 190.742 75.005 190.271 75.005 189.862 74.664 189.762 74.195zM198.012 76.105C197.532 75.845 197.352 75.235 197.612 74.744 197.882 74.265 198.492 74.085 198.972 74.355 199.462 74.615 199.632 75.225 199.372 75.704 199.192 76.045 198.842 76.225 198.492 76.225 198.332 76.225 198.162 76.185 198.012 76.105zM186.182 75.954C185.892 75.475 186.042 74.865 186.521 74.575 186.521 74.575 186.521 74.575 186.521 74.585 186.992 74.295 187.612 74.445 187.892 74.925 188.172 75.395 188.021 76.005 187.552 76.295 187.392 76.395 187.212 76.435 187.042 76.435 186.702 76.435 186.362 76.265 186.182 75.954zM200.862 78.365L200.862 78.375C200.492 77.954 200.532 77.325 200.942 76.954 201.352 76.585 201.992 76.625 202.352 77.035 202.722 77.454 202.692 78.085 202.271 78.445 202.082 78.615 201.842 78.704 201.612 78.704 201.332 78.704 201.062 78.595 200.862 78.365zM183.372 78.795C182.952 78.445 182.892 77.815 183.252 77.385 183.602 76.965 184.232 76.905 184.652 77.255 185.082 77.615 185.132 78.244 184.782 78.675 184.582 78.905 184.302 79.025 184.012 79.025 183.792 79.025 183.562 78.954 183.372 78.795zM202.802 81.465C202.592 80.954 202.832 80.365 203.332 80.155 203.842 79.945 204.432 80.175 204.652 80.685 204.862 81.195 204.622 81.785 204.112 81.994 203.982 82.055 203.852 82.075 203.722 82.075 203.332 82.075 202.962 81.845 202.802 81.465zM181.632 82.395C181.112 82.195 180.862 81.615 181.062 81.095 181.252 80.585 181.832 80.325 182.352 80.525 182.872 80.725 183.122 81.305 182.922 81.815 182.771 82.215 182.392 82.454 181.992 82.454 181.872 82.454 181.752 82.435 181.632 82.395zM203.582 84.994C203.562 84.445 203.992 83.985 204.542 83.965 205.092 83.945 205.562 84.375 205.582 84.925 205.592 85.475 205.162 85.945 204.612 85.965 204.602 85.965 204.592 85.965 204.582 85.965 204.042 85.965 203.602 85.535 203.582 84.994zM181.162 86.355C180.612 86.335 180.172 85.875 180.192 85.325 180.212 84.775 180.672 84.345 181.232 84.355 181.782 84.375 182.212 84.835 182.192 85.395 182.172 85.935 181.732 86.355 181.192 86.355 181.182 86.355 181.172 86.355 181.162 86.355zM204.162 89.935C203.612 89.845 203.242 89.335 203.332 88.785L203.332 88.795C203.422 88.244 203.932 87.875 204.472 87.954 205.021 88.045 205.392 88.555 205.302 89.105 205.222 89.595 204.802 89.945 204.322 89.945 204.262 89.945 204.212 89.945 204.162 89.935zM180.482 89.494C180.402 88.945 180.771 88.435 181.322 88.355 181.872 88.275 182.382 88.645 182.462 89.195 182.542 89.744 182.172 90.255 181.622 90.335 181.572 90.345 181.521 90.345 181.472 90.345 180.982 90.345 180.562 89.985 180.482 89.494zM173.096 216.468L173.03 168.321 171.028 168.321 171.028 131.977 140.243 164.125 129.23 153.113 168.14 113.563 182.023 108.841 185.028 108.252 185.028 109.467C185.028 112.776 188.617 115.467 193.028 115.467 197.439 115.467 201.028 112.776 201.028 109.467L201.028 108.201 204.091 108.953 221.028 116.852 221.028 171.901 218.442 174.487 210.028 174.487 210.028 172.487 217.614 172.487 219.028 171.073 219.028 118.125 203.337 110.808 202.909 110.705C202.163 114.531 198.016 117.467 193.028 117.467 188.021 117.467 183.862 114.508 183.139 110.661L182.475 110.791 169.234 115.303 132.047 153.101 140.212 161.266 173.028 126.996 173.028 166.321 175.027 166.321 175.096 216.466 173.096 216.468"/>
    <path fill="#434A4F" d="M134.028,171.329 L130.006,171.329 C127.261,171.329 125.028,169.097 125.028,166.352 L125.028,160.329 C125.028,160.064 125.134,159.81 125.321,159.622 L131.321,153.622 C131.712,153.232 132.345,153.232 132.735,153.622 C133.126,154.013 133.126,154.646 132.735,155.036 L127.028,160.744 L127.028,166.352 C127.028,167.994 128.364,169.329 130.006,169.329 L133.614,169.329 L137.321,165.622 C137.509,165.435 137.763,165.329 138.028,165.329 L139.028,165.329 L139.028,162.329 C139.028,161.777 139.476,161.329 140.028,161.329 C140.581,161.329 141.028,161.777 141.028,162.329 L141.028,166.329 C141.028,166.882 140.581,167.329 140.028,167.329 L138.442,167.329 L134.735,171.036 C134.548,171.224 134.293,171.329 134.028,171.329"/>
    <path fill="#434A4F" d="M140.028 215.329C139.476 215.329 139.028 214.882 139.028 214.329L139.028 172.329C139.028 170.46 138.3 168.702 136.978 167.379 136.587 166.989 136.587 166.356 136.978 165.965 137.369 165.575 138.001 165.575 138.392 165.965 140.092 167.665 141.028 169.926 141.028 172.329L141.028 214.329C141.028 214.882 140.581 215.329 140.028 215.329M124.028 173.329C123.476 173.329 123.028 172.882 123.028 172.329 123.028 170.049 123.882 167.874 125.434 166.205 125.81 165.801 126.443 165.78 126.847 166.154 127.251 166.53 127.274 167.162 126.898 167.567 125.692 168.865 125.028 170.556 125.028 172.329 125.028 172.882 124.581 173.329 124.028 173.329"/>
    <polygon fill="#434A4F" points="196.022 131.467 206.022 131.467 206.022 129.467 196.022 129.467"/>
    <path fill="#FACD60" d="M169.047,61.461 C169.047,74.164 158.75,84.461 146.047,84.461 C133.344,84.461 123.047,74.164 123.047,61.461 C123.047,48.759 133.344,38.461 146.047,38.461 C158.75,38.461 169.047,48.759 169.047,61.461"/>
    <path fill="#434A4F" d="M147.912 35.525C147.362 35.485 146.942 35.005 146.982 34.454 147.021 33.905 147.502 33.495 148.052 33.535 148.602 33.565 149.012 34.045 148.982 34.595 148.942 35.125 148.502 35.525 147.982 35.525 147.952 35.525 147.932 35.525 147.912 35.525zM142.952 34.615C142.912 34.065 143.322 33.585 143.872 33.545 144.422 33.505 144.902 33.914 144.942 34.465 144.982 35.015 144.572 35.494 144.021 35.535 143.992 35.535 143.972 35.545 143.942 35.545 143.422 35.545 142.992 35.145 142.952 34.615zM151.752 36.085C151.212 35.965 150.872 35.435 150.992 34.895 151.112 34.355 151.652 34.015 152.192 34.135 152.732 34.255 153.062 34.795 152.942 35.335 152.842 35.795 152.432 36.115 151.972 36.115 151.902 36.115 151.822 36.105 151.752 36.085zM138.982 35.375C138.862 34.835 139.192 34.295 139.732 34.175 140.271 34.045 140.812 34.385 140.932 34.925 141.062 35.465 140.722 35.995 140.182 36.125 140.112 36.145 140.032 36.155 139.962 36.155 139.502 36.155 139.092 35.835 138.982 35.375zM155.472 37.225C154.952 37.025 154.702 36.435 154.902 35.925 155.102 35.414 155.682 35.155 156.192 35.355 156.702 35.555 156.962 36.135 156.762 36.655 156.612 37.045 156.232 37.285 155.832 37.285 155.712 37.285 155.582 37.265 155.472 37.225zM135.182 36.715C134.972 36.204 135.232 35.625 135.742 35.414 136.252 35.215 136.832 35.465 137.042 35.985 137.242 36.495 136.992 37.075 136.482 37.275 136.362 37.325 136.232 37.345 136.112 37.345 135.712 37.345 135.332 37.105 135.182 36.715zM158.972 38.895C158.492 38.625 158.332 38.015 158.602 37.535 158.882 37.055 159.492 36.885 159.972 37.164 160.452 37.435 160.612 38.045 160.342 38.525 160.152 38.845 159.812 39.025 159.472 39.025 159.302 39.025 159.132 38.985 158.972 38.895zM131.622 38.615C131.342 38.135 131.502 37.525 131.982 37.245 132.462 36.965 133.072 37.125 133.352 37.605 133.622 38.085 133.462 38.695 132.982 38.975 132.832 39.065 132.652 39.105 132.482 39.105 132.142 39.105 131.802 38.935 131.622 38.615zM162.192 41.075C161.752 40.735 161.682 40.105 162.021 39.675 162.372 39.235 163.002 39.164 163.432 39.505 163.862 39.855 163.942 40.485 163.592 40.914 163.392 41.164 163.102 41.295 162.812 41.295 162.592 41.295 162.372 41.225 162.192 41.075zM128.382 41.015C128.032 40.585 128.102 39.954 128.532 39.615 128.962 39.265 129.592 39.335 129.942 39.765 130.282 40.195 130.212 40.825 129.782 41.175 129.602 41.325 129.382 41.395 129.162 41.395 128.862 41.395 128.572 41.265 128.382 41.015zM165.042 43.715C164.672 43.305 164.692 42.675 165.092 42.295 165.492 41.914 166.132 41.945 166.502 42.345 166.882 42.744 166.862 43.385 166.462 43.755 166.262 43.935 166.021 44.025 165.771 44.025 165.512 44.025 165.242 43.925 165.042 43.715zM125.532 43.875C125.122 43.505 125.102 42.875 125.472 42.465 125.852 42.065 126.482 42.035 126.892 42.405 127.292 42.785 127.322 43.414 126.942 43.825 126.752 44.035 126.482 44.145 126.212 44.145 125.972 44.145 125.722 44.055 125.532 43.875zM167.482 46.735C167.162 46.285 167.282 45.655 167.732 45.345 168.192 45.035 168.812 45.145 169.122 45.605 169.442 46.055 169.322 46.675 168.872 46.995 168.692 47.115 168.502 47.164 168.302 47.164 167.982 47.164 167.672 47.015 167.482 46.735zM123.142 47.125C122.682 46.815 122.562 46.195 122.872 45.744 123.182 45.285 123.802 45.164 124.262 45.475 124.722 45.785 124.842 46.405 124.521 46.865L124.532 46.865C124.332 47.145 124.021 47.305 123.702 47.305 123.502 47.305 123.312 47.244 123.142 47.125zM169.432 50.095C169.192 49.595 169.402 48.994 169.892 48.755 170.392 48.515 170.992 48.715 171.232 49.215 171.472 49.704 171.271 50.315 170.771 50.555 170.632 50.625 170.482 50.655 170.332 50.655 169.962 50.655 169.612 50.445 169.432 50.095zM121.252 50.704C120.762 50.465 120.552 49.865 120.792 49.365 120.792 49.365 120.792 49.365 120.782 49.365 121.021 48.865 121.622 48.655 122.122 48.895 122.622 49.135 122.832 49.735 122.592 50.235 122.422 50.585 122.062 50.795 121.692 50.795 121.542 50.795 121.392 50.765 121.252 50.704zM170.872 53.695C170.702 53.175 171.002 52.605 171.521 52.445 172.052 52.285 172.612 52.575 172.782 53.105 172.942 53.625 172.652 54.195 172.122 54.355 172.021 54.385 171.922 54.405 171.822 54.405 171.402 54.405 171.002 54.125 170.872 53.695zM119.932 54.515C119.402 54.355 119.102 53.795 119.262 53.265 119.422 52.735 119.982 52.445 120.512 52.605 121.042 52.765 121.342 53.325 121.182 53.855 121.042 54.285 120.652 54.555 120.222 54.555 120.122 54.555 120.021 54.545 119.932 54.515zM171.742 57.485C171.662 56.935 172.032 56.425 172.582 56.345 173.122 56.255 173.642 56.635 173.722 57.175 173.802 57.725 173.432 58.235 172.882 58.315 172.832 58.325 172.782 58.325 172.732 58.325 172.242 58.325 171.822 57.975 171.742 57.485zM119.192 58.485C118.642 58.405 118.271 57.895 118.342 57.345 118.432 56.805 118.932 56.425 119.482 56.505 120.021 56.585 120.402 57.095 120.322 57.635 120.252 58.135 119.822 58.494 119.332 58.494 119.292 58.494 119.242 58.494 119.192 58.485zM172.052 61.465C172.052 61.454 172.052 61.435 172.052 61.425 172.042 61.405 172.042 61.375 172.042 61.355 172.042 60.805 172.492 60.355 173.042 60.355 173.592 60.345 174.042 60.795 174.052 61.345 174.052 61.365 174.042 61.385 174.042 61.405 174.042 61.425 174.052 61.445 174.052 61.465 174.052 62.015 173.602 62.465 173.042 62.465 172.492 62.465 172.052 62.015 172.052 61.465zM118.052 61.515C118.042 60.965 118.492 60.515 119.042 60.515 119.592 60.515 120.042 60.965 120.042 61.515 120.042 62.065 119.602 62.515 119.052 62.515 118.492 62.515 118.052 62.065 118.052 61.515zM172.602 66.475C172.052 66.395 171.682 65.885 171.762 65.335 171.842 64.785 172.352 64.414 172.902 64.495 173.442 64.575 173.822 65.085 173.742 65.625 173.662 66.125 173.242 66.485 172.752 66.485 172.702 66.485 172.652 66.475 172.602 66.475zM118.362 65.685C118.282 65.135 118.652 64.635 119.202 64.545 119.752 64.465 120.262 64.845 120.342 65.385 120.422 65.935 120.042 66.445 119.502 66.525 119.452 66.535 119.402 66.535 119.352 66.535 118.862 66.535 118.442 66.185 118.362 65.685zM171.562 70.375C171.032 70.204 170.732 69.645 170.902 69.125 171.062 68.595 171.622 68.295 172.152 68.454 172.682 68.625 172.972 69.185 172.812 69.704 172.682 70.135 172.282 70.414 171.862 70.414 171.762 70.414 171.662 70.405 171.562 70.375zM119.302 69.765C119.132 69.235 119.432 68.675 119.962 68.515 120.482 68.345 121.042 68.645 121.212 69.175 121.372 69.695 121.082 70.255 120.552 70.425 120.452 70.454 120.352 70.465 120.252 70.465 119.832 70.465 119.432 70.195 119.302 69.765zM169.942 74.075C169.452 73.835 169.242 73.235 169.482 72.735 169.722 72.244 170.322 72.035 170.812 72.275 171.312 72.515 171.521 73.105 171.282 73.605 171.112 73.965 170.752 74.175 170.382 74.175 170.232 74.175 170.092 74.135 169.942 74.075zM120.832 73.655C120.592 73.155 120.802 72.565 121.302 72.315 121.792 72.075 122.392 72.285 122.632 72.785 122.872 73.285 122.672 73.875 122.172 74.115 122.032 74.185 121.882 74.215 121.732 74.215 121.362 74.215 121.012 74.015 120.832 73.655zM167.792 77.494C167.342 77.175 167.222 76.555 167.532 76.105 167.842 75.645 168.472 75.525 168.922 75.835 169.382 76.145 169.502 76.775 169.192 77.225 168.992 77.515 168.682 77.664 168.362 77.664 168.162 77.664 167.972 77.605 167.792 77.494zM122.932 77.275C122.622 76.815 122.742 76.195 123.192 75.885 123.652 75.565 124.271 75.685 124.582 76.135 124.892 76.595 124.782 77.215 124.322 77.535 124.152 77.645 123.952 77.704 123.762 77.704 123.442 77.704 123.132 77.555 122.932 77.275zM165.162 80.555C164.762 80.175 164.742 79.545 165.112 79.135 165.482 78.735 166.122 78.715 166.521 79.085 166.932 79.454 166.952 80.095 166.582 80.494 166.382 80.715 166.112 80.815 165.842 80.815 165.602 80.815 165.362 80.735 165.162 80.555zM125.552 80.535C125.172 80.135 125.192 79.495 125.602 79.125 126.002 78.745 126.632 78.765 127.012 79.175 127.392 79.575 127.362 80.204 126.962 80.585 126.771 80.765 126.521 80.855 126.282 80.855 126.012 80.855 125.742 80.744 125.552 80.535zM162.112 83.185C161.762 82.755 161.832 82.125 162.262 81.785 162.702 81.435 163.322 81.505 163.672 81.945 164.021 82.365 163.942 82.994 163.512 83.345 163.332 83.494 163.112 83.565 162.892 83.565 162.602 83.565 162.312 83.435 162.112 83.185zM128.612 83.375C128.182 83.035 128.112 82.405 128.462 81.975 128.802 81.535 129.432 81.465 129.862 81.815 130.292 82.155 130.372 82.785 130.021 83.215 129.822 83.465 129.532 83.595 129.242 83.595 129.021 83.595 128.802 83.525 128.612 83.375zM158.702 85.335C158.422 84.865 158.582 84.244 159.062 83.975 159.542 83.695 160.152 83.865 160.432 84.335 160.702 84.815 160.542 85.425 160.062 85.704 159.902 85.795 159.732 85.835 159.562 85.835 159.222 85.835 158.882 85.655 158.702 85.335zM132.072 85.735C131.602 85.454 131.432 84.845 131.712 84.365 131.982 83.885 132.592 83.725 133.072 83.995 133.552 84.275 133.722 84.885 133.442 85.365 133.252 85.685 132.922 85.865 132.572 85.865 132.402 85.865 132.232 85.825 132.072 85.735zM155.002 86.954C154.802 86.445 155.052 85.865 155.572 85.664 156.082 85.454 156.662 85.715 156.862 86.225 157.062 86.735 156.812 87.325 156.302 87.525 156.182 87.575 156.062 87.595 155.932 87.595 155.532 87.595 155.162 87.355 155.002 86.954zM135.852 87.545C135.332 87.345 135.082 86.765 135.282 86.245 135.482 85.735 136.062 85.475 136.572 85.685 137.092 85.885 137.342 86.465 137.142 86.975 136.992 87.375 136.612 87.615 136.212 87.615 136.092 87.615 135.972 87.595 135.852 87.545zM151.102 88.005C150.982 87.465 151.322 86.935 151.862 86.805 152.392 86.685 152.932 87.025 153.052 87.565 153.182 88.105 152.842 88.635 152.302 88.755 152.232 88.775 152.152 88.785 152.082 88.785 151.622 88.785 151.212 88.475 151.102 88.005zM139.852 88.775C139.312 88.655 138.972 88.115 139.092 87.575 139.212 87.035 139.752 86.704 140.292 86.825 140.832 86.945 141.172 87.475 141.042 88.015 140.942 88.485 140.532 88.795 140.072 88.795 140.002 88.795 139.922 88.785 139.852 88.775zM147.092 88.454C147.052 87.905 147.472 87.425 148.021 87.385 148.572 87.345 149.052 87.755 149.092 88.305 149.132 88.855 148.722 89.335 148.172 89.385 148.142 89.385 148.122 89.385 148.092 89.385 147.572 89.385 147.132 88.985 147.092 88.454zM143.992 89.385C143.442 89.345 143.021 88.865 143.062 88.315 143.102 87.765 143.582 87.355 144.132 87.395 144.682 87.435 145.102 87.905 145.052 88.465 145.021 88.985 144.582 89.385 144.062 89.385 144.042 89.385 144.012 89.385 143.992 89.385zM28.972 146.465C28.972 145.914 29.422 145.465 29.972 145.465 30.521 145.465 30.972 145.914 30.972 146.465 30.972 147.015 30.521 147.465 29.972 147.465 29.422 147.465 28.972 147.015 28.972 146.465zM32.972 146.465C32.972 145.914 33.422 145.465 33.972 145.465 34.521 145.465 34.972 145.914 34.972 146.465 34.972 147.015 34.521 147.465 33.972 147.465 33.422 147.465 32.972 147.015 32.972 146.465zM36.972 146.465C36.972 145.914 37.422 145.465 37.972 145.465 38.521 145.465 38.972 145.914 38.972 146.465 38.972 147.015 38.521 147.465 37.972 147.465 37.422 147.465 36.972 147.015 36.972 146.465zM40.972 146.465C40.972 145.914 41.412 145.465 41.972 145.465 42.521 145.465 42.972 145.914 42.972 146.465 42.972 147.015 42.521 147.465 41.972 147.465 41.412 147.465 40.972 147.015 40.972 146.465zM44.972 146.465C44.972 145.914 45.412 145.465 45.972 145.465 46.521 145.465 46.972 145.914 46.972 146.465 46.972 147.015 46.521 147.465 45.972 147.465 45.412 147.465 44.972 147.015 44.972 146.465zM48.972 146.465C48.972 145.914 49.412 145.465 49.972 145.465 50.521 145.465 50.972 145.914 50.972 146.465 50.972 147.015 50.521 147.465 49.972 147.465 49.412 147.465 48.972 147.015 48.972 146.465zM52.972 146.465C52.972 145.914 53.412 145.465 53.972 145.465 54.521 145.465 54.972 145.914 54.972 146.465 54.972 147.015 54.521 147.465 53.972 147.465 53.412 147.465 52.972 147.015 52.972 146.465zM56.972 146.465C56.972 145.914 57.422 145.465 57.972 145.465 58.521 145.465 58.972 145.914 58.972 146.465 58.972 147.015 58.521 147.465 57.972 147.465 57.422 147.465 56.972 147.015 56.972 146.465zM60.972 146.465C60.972 145.914 61.422 145.465 61.972 145.465 62.521 145.465 62.972 145.914 62.972 146.465 62.972 147.015 62.521 147.465 61.972 147.465 61.422 147.465 60.972 147.015 60.972 146.465zM64.972 146.465C64.972 145.914 65.422 145.465 65.972 145.465 66.521 145.465 66.972 145.914 66.972 146.465 66.972 147.015 66.521 147.465 65.972 147.465 65.422 147.465 64.972 147.015 64.972 146.465zM68.972 146.465C68.972 145.914 69.422 145.465 69.972 145.465 70.521 145.465 70.972 145.914 70.972 146.465 70.972 147.015 70.521 147.465 69.972 147.465 69.422 147.465 68.972 147.015 68.972 146.465zM72.972 146.465C72.972 145.914 73.422 145.465 73.972 145.465 74.521 145.465 74.972 145.914 74.972 146.465 74.972 147.015 74.521 147.465 73.972 147.465 73.422 147.465 72.972 147.015 72.972 146.465zM76.972 146.465C76.972 145.914 77.422 145.465 77.972 145.465 78.521 145.465 78.972 145.914 78.972 146.465 78.972 147.015 78.521 147.465 77.972 147.465 77.422 147.465 76.972 147.015 76.972 146.465zM80.972 146.465C80.972 145.914 81.422 145.465 81.972 145.465 82.521 145.465 82.972 145.914 82.972 146.465 82.972 147.015 82.521 147.465 81.972 147.465 81.422 147.465 80.972 147.015 80.972 146.465zM84.972 146.465C84.972 145.914 85.422 145.465 85.972 145.465 86.521 145.465 86.972 145.914 86.972 146.465 86.972 147.015 86.521 147.465 85.972 147.465 85.422 147.465 84.972 147.015 84.972 146.465zM88.972 146.465C88.972 145.914 89.412 145.465 89.972 145.465 90.521 145.465 90.972 145.914 90.972 146.465 90.972 147.015 90.521 147.465 89.972 147.465 89.412 147.465 88.972 147.015 88.972 146.465zM92.972 146.465C92.972 145.914 93.412 145.465 93.972 145.465 94.521 145.465 94.972 145.914 94.972 146.465 94.972 147.015 94.521 147.465 93.972 147.465 93.412 147.465 92.972 147.015 92.972 146.465zM96.972 146.465C96.972 145.914 97.412 145.465 97.972 145.465 98.521 145.465 98.972 145.914 98.972 146.465 98.972 147.015 98.521 147.465 97.972 147.465 97.412 147.465 96.972 147.015 96.972 146.465zM100.972 146.465C100.972 145.914 101.412 145.465 101.972 145.465 102.521 145.465 102.972 145.914 102.972 146.465 102.972 147.015 102.521 147.465 101.972 147.465 101.412 147.465 100.972 147.015 100.972 146.465zM104.972 146.465C104.972 145.914 105.422 145.465 105.972 145.465 106.521 145.465 106.972 145.914 106.972 146.465 106.972 147.015 106.521 147.465 105.972 147.465 105.422 147.465 104.972 147.015 104.972 146.465zM108.972 146.465C108.972 145.914 109.422 145.465 109.972 145.465 110.521 145.465 110.972 145.914 110.972 146.465 110.972 147.015 110.521 147.465 109.972 147.465 109.422 147.465 108.972 147.015 108.972 146.465zM112.972 146.465C112.972 145.914 113.422 145.465 113.972 145.465 114.521 145.465 114.972 145.914 114.972 146.465 114.972 147.015 114.521 147.465 113.972 147.465 113.422 147.465 112.972 147.015 112.972 146.465zM116.972 146.465C116.972 145.914 117.422 145.465 117.972 145.465 118.521 145.465 118.972 145.914 118.972 146.465 118.972 147.015 118.521 147.465 117.972 147.465 117.422 147.465 116.972 147.015 116.972 146.465zM120.972 146.465C120.972 145.914 121.422 145.465 121.972 145.465 122.521 145.465 122.972 145.914 122.972 146.465 122.972 147.015 122.521 147.465 121.972 147.465 121.422 147.465 120.972 147.015 120.972 146.465zM124.972 146.465C124.972 145.914 125.422 145.465 125.972 145.465 126.521 145.465 126.972 145.914 126.972 146.465 126.972 147.015 126.521 147.465 125.972 147.465 125.422 147.465 124.972 147.015 124.972 146.465zM128.972 146.465C128.972 145.914 129.422 145.465 129.972 145.465 130.521 145.465 130.972 145.914 130.972 146.465 130.972 147.015 130.521 147.465 129.972 147.465 129.422 147.465 128.972 147.015 128.972 146.465zM132.972 146.465C132.972 145.914 133.422 145.465 133.972 145.465 134.521 145.465 134.972 145.914 134.972 146.465 134.972 147.015 134.521 147.465 133.972 147.465 133.422 147.465 132.972 147.015 132.972 146.465zM155.021 146.465C155.021 145.914 155.472 145.465 156.021 145.465 156.572 145.465 157.021 145.914 157.021 146.465 157.021 147.015 156.572 147.465 156.021 147.465 155.472 147.465 155.021 147.015 155.021 146.465zM159.021 146.465C159.021 145.914 159.472 145.465 160.021 145.465 160.572 145.465 161.021 145.914 161.021 146.465 161.021 147.015 160.572 147.465 160.021 147.465 159.472 147.465 159.021 147.015 159.021 146.465zM163.021 146.465C163.021 145.914 163.472 145.465 164.021 145.465 164.572 145.465 165.021 145.914 165.021 146.465 165.021 147.015 164.572 147.465 164.021 147.465 163.472 147.465 163.021 147.015 163.021 146.465zM167.021 146.465C167.021 145.914 167.472 145.465 168.021 145.465 168.572 145.465 169.021 145.914 169.021 146.465 169.021 147.015 168.572 147.465 168.021 147.465 167.472 147.465 167.021 147.015 167.021 146.465zM171.021 146.465C171.021 145.914 171.472 145.465 172.021 145.465 172.572 145.465 173.021 145.914 173.021 146.465 173.021 147.015 172.572 147.465 172.021 147.465 171.472 147.465 171.021 147.015 171.021 146.465zM135.999 128.337C131.528 128.337 127.286 126.741 123.952 123.821 120.618 126.741 116.376 128.337 111.905 128.337 107.458 128.337 103.365 126.781 100.009 123.823 96.653 126.781 92.559 128.337 88.113 128.337 83.642 128.337 79.4 126.741 76.066 123.821 72.768 126.709 68.581 128.303 64.163 128.336L64.163 128.337 64.02 128.336C59.601 128.303 55.415 126.709 52.116 123.821 48.782 126.741 44.54 128.337 40.069 128.337 34.984 128.337 32.273 126.245 29.376 123.464L28.994 123.461 29.009 121.461 30.191 121.47 30.479 121.749C33.684 124.858 35.936 126.337 40.069 126.337 44.334 126.337 48.365 124.705 51.419 121.744L52.116 121.068 52.812 121.744C55.849 124.689 59.852 126.319 64.091 126.337 68.33 126.319 72.334 124.689 75.37 121.744L76.066 121.068 76.763 121.744C79.817 124.705 83.848 126.337 88.113 126.337 92.341 126.337 96.214 124.748 99.313 121.744L100.009 121.068 100.706 121.744C103.804 124.748 107.677 126.337 111.905 126.337 116.17 126.337 120.201 124.705 123.255 121.744L123.952 121.068 124.648 121.744C127.702 124.705 131.733 126.337 135.999 126.337 140.253 126.337 144.278 124.705 147.333 121.744L148.029 121.068 148.725 121.744C150.779 123.736 153.321 125.156 156.075 125.848L155.587 127.787C152.797 127.086 150.203 125.722 148.029 123.821 144.696 126.741 140.459 128.337 135.999 128.337M124.081 138.343C119.672 138.343 115.614 136.787 112.286 133.833 108.958 136.787 104.899 138.343 100.49 138.343 96.058 138.343 91.853 136.748 88.545 133.831 85.239 136.748 81.034 138.343 76.601 138.343 72.191 138.343 67.998 136.748 64.693 133.831 61.388 136.747 57.188 138.343 52.768 138.343 48.359 138.343 44.3 136.787 40.972 133.833 37.644 136.787 33.585 138.343 29.177 138.343L29.177 136.343C33.366 136.343 37.203 134.755 40.273 131.752L40.972 131.068 41.671 131.752C44.742 134.755 48.579 136.343 52.768 136.343 56.981 136.343 60.968 134.712 63.994 131.752L64.693 131.069 65.393 131.752C68.419 134.712 72.4 136.343 76.601 136.343 80.826 136.343 84.82 134.712 87.846 131.752L88.545 131.069 89.245 131.752C92.271 134.712 96.265 136.343 100.49 136.343 104.679 136.343 108.516 134.755 111.586 131.752L112.286 131.068 112.985 131.752C116.055 134.755 119.892 136.343 124.081 136.343 128.306 136.343 132.3 134.712 135.326 131.752L136.025 131.069 136.725 131.752C139.329 134.299 142.747 135.901 146.348 136.262L146.148 138.252C142.413 137.877 138.853 136.318 136.026 133.831 132.719 136.747 128.514 138.343 124.081 138.343"/>
    <polygon fill="#434A4F" points="78.999 116.44 80.999 116.44 80.999 81.436 78.999 81.436"/>
    <path fill="#434A4F" d="M111.999,114.437 L89.998,114.437 L89.998,112.437 L111.999,112.437 C112.386,112.437 112.72,112.23 112.893,111.884 C113.066,111.537 113.031,111.146 112.799,110.836 L80.248,67.437 L62.075,111.052 C61.945,111.366 61.978,111.708 62.166,111.992 C62.355,112.275 62.659,112.437 62.999,112.437 L80,112.437 L80,114.437 L62.999,114.437 C61.993,114.437 61.061,113.938 60.502,113.101 C59.945,112.264 59.843,111.21 60.229,110.283 L79.748,63.437 L114.398,109.637 C115.085,110.552 115.193,111.755 114.682,112.779 C114.17,113.801 113.142,114.437 111.999,114.437"/>
    <path fill="#434A4F" d="M80.002 79.435C79.732 79.435 79.482 79.325 79.291 79.145 79.202 79.045 79.122 78.935 79.072 78.815 79.021 78.695 79.002 78.565 79.002 78.435 79.002 78.305 79.021 78.175 79.072 78.055 79.122 77.925 79.202 77.825 79.291 77.725 79.662 77.355 80.331 77.355 80.702 77.725 80.802 77.825 80.872 77.925 80.922 78.055 80.972 78.175 81.002 78.305 81.002 78.435 81.002 78.565 80.972 78.695 80.922 78.815 80.872 78.935 80.802 79.045 80.702 79.145 80.521 79.325 80.262 79.435 80.002 79.435M110.599 124.237L109.398 122.637 114.999 118.437 107.999 118.437 107.999 116.437 117.999 116.437C118.429 116.437 118.811 116.712 118.947 117.12 119.083 117.529 118.943 117.979 118.599 118.237L110.599 124.237M63.291 124.144L57.291 118.144C57.005 117.858 56.92 117.428 57.075 117.054 57.229 116.68 57.594 116.437 57.998 116.437L99.998 116.437 99.998 118.437 60.413 118.437 64.706 122.73 63.291 124.144"/>
    <polygon fill="#434A4F" points="82.998 117.437 84.998 117.437 84.998 97.437 82.998 97.437"/>
    <path fill="#434A4F" d="M84.002,94.435 C83.862,94.435 83.732,94.414 83.612,94.365 C83.492,94.315 83.382,94.235 83.291,94.145 C83.102,93.954 83.002,93.704 83.002,93.435 C83.002,93.305 83.021,93.175 83.072,93.055 C83.122,92.935 83.202,92.825 83.291,92.735 C83.662,92.355 84.331,92.355 84.702,92.735 C84.802,92.825 84.872,92.935 84.922,93.055 C84.972,93.175 85.002,93.305 85.002,93.435 C85.002,93.704 84.892,93.954 84.702,94.145 C84.521,94.335 84.262,94.435 84.002,94.435"/>
    <polygon fill="#434A4F" points="49.5 165.807 51.5 165.807 51.5 161.807 49.5 161.807"/>
    <polygon fill="#434A4F" points="49.5 175.807 51.5 175.807 51.5 171.807 49.5 171.807"/>
    <polygon fill="#434A4F" points="53.501 169.807 57.501 169.807 57.501 167.807 53.501 167.807"/>
    <polygon fill="#434A4F" points="43.5 169.807 47.5 169.807 47.5 167.807 43.5 167.807"/>
    <polygon fill="#434A4F" points="109.537 195.825 111.537 195.825 111.537 191.825 109.537 191.825"/>
    <polygon fill="#434A4F" points="109.537 205.825 111.537 205.825 111.537 201.825 109.537 201.825"/>
    <polygon fill="#434A4F" points="113.537 199.825 117.537 199.825 117.537 197.825 113.537 197.825"/>
    <polygon fill="#434A4F" points="103.537 199.825 107.537 199.825 107.537 197.825 103.537 197.825"/>
    <polygon fill="#434A4F" points="49.5 75.752 51.5 75.752 51.5 71.752 49.5 71.752"/>
    <polygon fill="#434A4F" points="49.5 85.752 51.5 85.752 51.5 81.752 49.5 81.752"/>
    <polygon fill="#434A4F" points="53.501 79.752 57.501 79.752 57.501 77.752 53.501 77.752"/>
    <polygon fill="#434A4F" points="43.5 79.752 47.5 79.752 47.5 77.752 43.5 77.752"/>
    <path fill="#FACD60" d="M93.001 178.967C93.001 179.796 92.33 180.467 91.501 180.467 90.673 180.467 90.001 179.796 90.001 178.967 90.001 178.139 90.673 177.467 91.501 177.467 92.33 177.467 93.001 178.139 93.001 178.967M75.001 158.967C75.001 159.52 74.554 159.967 74.001 159.967 73.449 159.967 73.001 159.52 73.001 158.967 73.001 158.415 73.449 157.967 74.001 157.967 74.554 157.967 75.001 158.415 75.001 158.967M110.501 154.467C110.501 155.296 109.83 155.967 109.001 155.967 108.173 155.967 107.501 155.296 107.501 154.467 107.501 153.639 108.173 152.967 109.001 152.967 109.83 152.967 110.501 153.639 110.501 154.467M44.501 204.717C44.501 205.684 43.718 206.467 42.751 206.467 41.785 206.467 41.001 205.684 41.001 204.717 41.001 203.751 41.785 202.967 42.751 202.967 43.718 202.967 44.501 203.751 44.501 204.717"/>
  </g>
</svg>
