<svg xmlns="http://www.w3.org/2000/svg" width="250" height="250" viewBox="0 0 250 250">
  <g fill="none" fill-rule="evenodd">
    <polyline fill="#E9886C" points="145 101.998 201.887 101.998 201.887 97.434 215.262 110.809 201.887 124.247 201.887 119.707 145 119.707 145 101.998"/>
    <polyline fill="#434A4F" points="197.887 133.936 197.887 123.707 172.003 123.707 172.003 121.707 199.887 121.707 199.887 129.092 218.087 110.806 199.887 92.605 199.887 99.998 172.003 99.998 172.003 97.998 197.887 97.998 197.887 87.777 220.913 110.802 197.887 133.936"/>
    <polyline fill="#E9886C" points="105 119.707 48.113 119.707 48.113 124.247 34.738 110.809 48.113 97.434 48.113 101.998 105 101.998 105 119.707"/>
    <polyline fill="#434A4F" points="52.113 133.936 29.087 110.802 52.113 87.777 52.113 97.998 78.998 97.998 78.998 99.998 50.113 99.998 50.113 92.605 31.913 110.806 50.113 129.092 50.113 121.707 78.998 121.707 78.998 123.707 52.113 123.707 52.113 133.936"/>
    <path fill="#DDDED9" d="M119.273,76.644 L125.271,81.292 L130.396,76.979 L131.298,72.624 C131.526,72.399 129.667,73.944 128.809,74.677 C128.13,75.256 127.272,75.577 126.38,75.587 L123.813,75.587 C122.934,75.587 122.078,75.283 121.411,74.711 L119.458,73.292 L119.273,76.644"/>
    <path fill="#434A4F" d="M126.386 76.587L123.801 76.587C122.666 76.574 121.577 76.166 120.723 75.437 120.482 75.232 120.21 75.011 119.924 74.778 118.62 73.718 117.141 72.516 116.699 71.328L114.559 66.811 112.058 65.367 110.958 61.381C110.958 60.316 111.673 59.416 112.648 59.135 112.545 58.237 112.493 57.403 112.493 56.644L112.493 56.454C112.493 55.901 112.94 55.454 113.493 55.454 114.045 55.454 114.493 55.901 114.493 56.454L114.493 56.644C114.493 57.595 114.585 58.688 114.767 59.894L114.94 61.043 113.296 61.043C113.143 61.043 113.012 61.146 112.972 61.287L113.758 64.039 116.099 65.391 118.54 70.552C118.825 71.308 120.246 72.463 121.186 73.227 121.485 73.47 121.77 73.702 122.021 73.916 122.52 74.342 123.155 74.58 123.812 74.587L126.386 74.587C126.938 74.587 127.386 75.034 127.386 75.587 127.386 76.14 126.938 76.587 126.386 76.587M110.16 138.017C110.16 137.467 110.61 137.017 111.16 137.017 111.71 137.017 112.16 137.467 112.16 138.017 112.16 138.566 111.71 139.017 111.16 139.017 110.61 139.017 110.16 138.566 110.16 138.017zM114.16 138.017C114.16 137.467 114.61 137.017 115.16 137.017 115.71 137.017 116.16 137.467 116.16 138.017 116.16 138.566 115.71 139.017 115.16 139.017 114.61 139.017 114.16 138.566 114.16 138.017zM118.16 138.017C118.16 137.467 118.61 137.017 119.16 137.017 119.71 137.017 120.16 137.467 120.16 138.017 120.16 138.566 119.71 139.017 119.16 139.017 118.61 139.017 118.16 138.566 118.16 138.017zM122.16 138.017C122.16 137.467 122.61 137.017 123.16 137.017 123.71 137.017 124.16 137.467 124.16 138.017 124.16 138.566 123.71 139.017 123.16 139.017 122.61 139.017 122.16 138.566 122.16 138.017zM126.16 138.017C126.16 137.467 126.61 137.017 127.16 137.017 127.71 137.017 128.16 137.467 128.16 138.017 128.16 138.566 127.71 139.017 127.16 139.017 126.61 139.017 126.16 138.566 126.16 138.017zM130.16 138.017C130.16 137.467 130.61 137.017 131.16 137.017 131.71 137.017 132.16 137.467 132.16 138.017 132.16 138.566 131.71 139.017 131.16 139.017 130.61 139.017 130.16 138.566 130.16 138.017zM134.16 138.017C134.16 137.467 134.61 137.017 135.16 137.017 135.71 137.017 136.16 137.467 136.16 138.017 136.16 138.566 135.71 139.017 135.16 139.017 134.61 139.017 134.16 138.566 134.16 138.017zM138.16 138.017C138.16 137.467 138.61 137.017 139.16 137.017 139.71 137.017 140.16 137.467 140.16 138.017 140.16 138.566 139.71 139.017 139.16 139.017 138.61 139.017 138.16 138.566 138.16 138.017z"/>
    <polygon fill="#434A4F" points="124.158 206.499 126.158 206.499 126.158 148.187 124.158 148.187"/>
    <polyline fill="#434A4F" points="111.482 147.187 107.16 147.187 107.16 145.187 110.337 145.187 112.222 141.978 112.222 140.499 114.222 140.499 114.222 142.522 111.482 147.187"/>
    <polyline fill="#434A4F" points="142.91 147.187 138.546 147.187 136.16 142.489 136.16 140.437 138.16 140.437 138.16 142.011 139.773 145.187 142.91 145.187 142.91 147.187"/>
    <path fill="#434A4F" d="M137.542 60.215L135.571 59.871C135.783 58.66 135.89 57.574 135.89 56.644L135.89 56.198C135.9 54.638 135.579 53.163 134.963 51.835 134.902 51.699 134.843 51.575 134.782 51.451L136.573 50.563C136.646 50.708 136.715 50.855 136.782 51.004 137.517 52.587 137.902 54.357 137.89 56.114L137.89 56.644C137.89 57.689 137.772 58.891 137.542 60.215M112.789 60.192C112.592 58.889 112.493 57.694 112.493 56.644L112.493 56.454C112.493 53.019 113.908 49.643 116.375 47.192 118.796 44.788 121.979 43.516 125.279 43.5 128.128 43.519 130.814 44.459 133.047 46.221L131.809 47.791C129.928 46.308 127.666 45.516 125.266 45.5 125.242 45.5 125.218 45.5 125.194 45.5 122.436 45.5 119.807 46.602 117.785 48.611 115.692 50.689 114.493 53.548 114.493 56.454L114.493 56.644C114.493 57.595 114.585 58.688 114.767 59.894L112.789 60.192"/>
    <path fill="#E9886C" d="M130.319,127.189 C130.319,127.189 127.112,91.551 126.539,89.258 C127.014,89.259 127.399,88.874 127.399,88.399 L127.399,86.25 L125.214,83.67 L123.101,86.25 L123.101,88.399 C123.101,88.874 123.486,89.259 123.961,89.258 C123.388,91.551 120.319,127.189 120.319,127.189 L125.319,133.189 L130.319,127.189"/>
    <path fill="#434A4F" d="M94.483,112.658 L104.16,122.416 L104.16,102.658 L94.483,112.658 Z M106.186,164.501 L106.161,139.02 L104.16,139.02 L104.16,125.19 L96.104,133.244 L80.845,117.59 C77.453,114.109 77.466,108.46 80.874,104.996 L101.263,84.27 L113.661,79.709 L116.248,75.225 L117.958,75.225 L117.958,72.667 L119.958,72.667 L119.958,77.225 L117.403,77.225 L115.031,81.336 L102.374,85.993 L82.3,106.398 C79.649,109.093 79.639,113.486 82.278,116.193 L96.123,130.398 L102.719,123.803 L91.684,112.676 L106.16,97.715 L106.16,137.02 L108.159,137.02 L108.186,164.499 L106.186,164.501 Z"/>
    <polyline fill="#434A4F" points="106.227 206.5 106.191 170.501 108.191 170.499 108.227 206.498 106.227 206.5"/>
    <path fill="#434A4F" d="M146.123 102.658L146.123 122.415 155.798 112.658 146.123 102.658zM144.055 206.5L142.055 206.498 142.124 137.02 144.123 137.02 144.123 97.715 158.598 112.676 147.563 123.803 154.159 130.398 168.004 116.193C170.643 113.487 170.632 109.093 167.982 106.398L147.908 85.993 135.264 81.341 132.752 77.225 130.258 77.225 130.258 72.197 130.556 71.903C130.781 71.682 131.463 71.009 131.613 70.611L134.185 65.357 136.844 64.027 137.396 61.287C137.385 61.216 137.349 61.164 137.317 61.132 137.278 61.091 137.209 61.043 137.107 61.043L135.367 61.043 135.571 59.871C135.783 58.66 135.89 57.574 135.89 56.644L135.89 56.198 136.89 56.107 137.89 56.113 137.89 56.644C137.89 57.394 137.83 58.224 137.71 59.122 138.102 59.228 138.46 59.438 138.751 59.738 139.187 60.186 139.417 60.776 139.398 61.401L139.379 61.569 138.611 65.379 135.683 66.844 133.447 71.404C133.253 71.929 132.781 72.49 132.258 73.028L132.258 75.225 133.874 75.225 136.608 79.704 149.02 84.27 169.408 104.996C172.815 108.46 172.829 114.109 169.437 117.59L154.178 133.244 146.123 125.19 146.123 139.02 144.122 139.02 144.055 206.5zM121.382 87.969C121.144 87.969 120.904 87.884 120.713 87.712 120.303 87.343 120.27 86.71 120.639 86.3L125.25 81.176 129.861 86.3C130.231 86.71 130.198 87.343 129.787 87.712 129.377 88.082 128.744 88.049 128.375 87.638L125.25 84.166 122.125 87.638C121.928 87.857 121.656 87.969 121.382 87.969"/>
    <polyline fill="#434A4F" points="103.373 135.167 100.544 135.167 97.251 131.874 98.665 130.46 101.373 133.167 102.544 133.167 104.251 131.46 105.666 132.874 103.373 135.167"/>
    <polyline fill="#434A4F" points="149.539 135.25 146.711 135.25 144.543 133.082 145.957 131.668 147.539 133.25 148.711 133.25 151.501 130.46 152.916 131.874 149.539 135.25"/>
    <polygon fill="#434A4F" points="80.499 153.856 82.499 153.856 82.499 149.856 80.499 149.856"/>
    <polygon fill="#434A4F" points="80.499 163.856 82.499 163.856 82.499 159.856 80.499 159.856"/>
    <polygon fill="#434A4F" points="84.499 157.856 88.499 157.856 88.499 155.856 84.499 155.856"/>
    <polygon fill="#434A4F" points="74.499 157.856 78.499 157.856 78.499 155.856 74.499 155.856"/>
    <polygon fill="#434A4F" points="160.547 63.803 162.547 63.803 162.547 59.803 160.547 59.803"/>
    <polygon fill="#434A4F" points="160.547 73.803 162.547 73.803 162.547 69.803 160.547 69.803"/>
    <polygon fill="#434A4F" points="164.547 67.803 168.547 67.803 168.547 65.803 164.547 65.803"/>
    <polygon fill="#434A4F" points="154.547 67.803 158.547 67.803 158.547 65.803 154.547 65.803"/>
    <polygon fill="#434A4F" points="154.543 189.878 156.543 189.878 156.543 185.878 154.543 185.878"/>
    <polygon fill="#434A4F" points="154.543 199.878 156.543 199.878 156.543 195.878 154.543 195.878"/>
    <polygon fill="#434A4F" points="158.543 193.878 162.543 193.878 162.543 191.878 158.543 191.878"/>
    <polygon fill="#434A4F" points="148.543 193.878 152.543 193.878 152.543 191.878 148.543 191.878"/>
    <path fill="#E9886C" d="M66.333 84.499C66.333 85.052 65.885 85.499 65.333 85.499 64.781 85.499 64.333 85.052 64.333 84.499 64.333 83.947 64.781 83.499 65.333 83.499 65.885 83.499 66.333 83.947 66.333 84.499M213.685 184.517C213.685 185.254 213.088 185.851 212.351 185.851 211.615 185.851 211.018 185.254 211.018 184.517 211.018 183.781 211.615 183.184 212.351 183.184 213.088 183.184 213.685 183.781 213.685 184.517M65.672 144.148C65.672 144.884 66.269 145.481 67.005 145.481 67.742 145.481 68.339 144.884 68.339 144.148 68.339 143.412 67.742 142.815 67.005 142.815 66.269 142.815 65.672 143.412 65.672 144.148"/>
    <path fill="#434A4F" d="M170.445,185.791 L174.297,187.042 L175.013,184.839 C175.664,182.831 177.449,181.534 179.559,181.533 C179.56,181.533 179.56,181.533 179.561,181.533 C181.67,181.533 183.455,182.829 184.108,184.836 L184.824,187.038 L188.676,185.785 L187.959,183.583 C187.307,181.576 187.988,179.478 189.695,178.236 C191.401,176.996 193.607,176.994 195.316,178.234 L197.288,179.62 L199.667,176.343 L197.708,174.966 C195.988,173.717 195.306,171.618 195.958,169.61 C196.609,167.604 198.394,166.307 200.503,166.306 L202.82,166.305 L202.819,162.254 L200.503,162.255 C200.502,162.255 200.501,162.255 200.5,162.255 C198.391,162.255 196.607,160.959 195.954,158.953 C195.301,156.946 195.982,154.848 197.689,153.606 L199.563,152.244 L197.24,149.049 L195.366,150.411 C193.66,151.652 191.453,151.654 189.745,150.413 C188.038,149.174 187.355,147.075 188.006,145.068 L188.721,142.866 L184.868,141.615 L184.153,143.818 C183.502,145.825 181.718,147.123 179.607,147.124 C179.606,147.124 179.606,147.124 179.605,147.124 C177.496,147.124 175.711,145.828 175.058,143.822 L174.342,141.62 L170.49,142.873 L171.207,145.075 C171.859,147.082 171.178,149.181 169.471,150.422 C167.764,151.663 165.558,151.664 163.85,150.425 L161.976,149.063 L159.596,152.342 L161.471,153.702 C163.179,154.942 163.861,157.041 163.209,159.049 C162.558,161.056 160.773,162.353 158.664,162.354 L156.348,162.354 L156.349,166.405 L158.665,166.404 C158.666,166.404 158.667,166.404 158.668,166.404 C160.777,166.404 162.561,167.7 163.214,169.706 C163.867,171.713 163.186,173.812 161.479,175.053 L159.606,176.415 L161.927,179.607 L163.799,178.245 C165.506,177.004 167.713,177.002 169.421,178.243 C171.128,179.483 171.811,181.581 171.16,183.589 L170.445,185.791 Z M175.583,189.562 L167.925,187.076 L169.257,182.972 C169.717,181.554 169.037,180.436 168.246,179.861 C167.454,179.287 166.181,178.987 164.976,179.862 L161.485,182.4 L156.812,175.974 L160.302,173.436 C161.508,172.559 161.614,171.254 161.312,170.325 C161.01,169.396 160.156,168.404 158.668,168.404 C158.667,168.404 158.667,168.404 158.666,168.404 L154.35,168.405 L154.347,160.356 L158.663,160.354 C160.153,160.354 161.006,159.36 161.308,158.431 C161.609,157.502 161.502,156.196 160.296,155.321 L156.803,152.785 L161.533,146.271 L165.025,148.806 C166.231,149.682 167.506,149.38 168.295,148.805 C169.085,148.23 169.766,147.111 169.304,145.694 L167.969,141.59 L175.625,139.099 L176.96,143.203 C177.421,144.619 178.628,145.124 179.605,145.124 L179.606,145.124 C180.583,145.124 181.791,144.618 182.251,143.201 L183.583,139.096 L191.241,141.581 L189.909,145.686 C189.449,147.103 190.129,148.221 190.92,148.795 C191.71,149.368 192.983,149.669 194.19,148.794 L197.681,146.256 L202.356,152.686 L198.865,155.224 C197.66,156.101 197.554,157.405 197.856,158.335 C198.158,159.263 199.012,160.255 200.5,160.255 C200.501,160.255 200.501,160.255 200.502,160.255 L204.818,160.254 L204.821,168.305 L200.504,168.306 C199.015,168.306 198.161,169.299 197.86,170.229 C197.558,171.157 197.666,172.463 198.871,173.338 L202.479,175.876 L197.749,182.39 L194.153,179.862 C192.936,178.978 191.661,179.28 190.871,179.854 C190.081,180.429 189.401,181.547 189.862,182.964 L191.197,187.068 L183.541,189.56 L182.206,185.455 C181.745,184.038 180.538,183.533 179.561,183.533 C179.56,183.533 179.56,183.533 179.56,183.533 C178.583,183.533 177.375,184.039 176.915,185.456 L175.583,189.562 Z"/>
    <path fill="#42494E" d="M170.241,171.186 C166.483,166.018 167.63,158.756 172.799,154.998 C175.303,153.178 178.368,152.441 181.422,152.924 C184.48,153.406 187.167,155.052 188.987,157.556 L187.369,158.731 C185.863,156.66 183.64,155.299 181.11,154.899 C178.579,154.498 176.046,155.108 173.975,156.615 C169.699,159.725 168.75,165.733 171.858,170.01 L170.241,171.186"/>
    <path fill="#E9886C" d="M179.591,160.828 C179.405,160.828 179.218,160.843 179.031,160.873 C178.108,161.021 177.298,161.519 176.75,162.275 C175.617,163.838 175.968,166.031 177.53,167.163 C179.093,168.294 181.286,167.944 182.418,166.383 C182.967,165.626 183.188,164.7 183.04,163.777 C182.893,162.854 182.394,162.044 181.637,161.495 C181.033,161.058 180.322,160.828 179.591,160.828 Z M179.57,170.83 C178.212,170.83 176.892,170.405 175.771,169.593 C174.364,168.574 173.439,167.069 173.165,165.354 C172.891,163.64 173.301,161.922 174.32,160.516 C175.338,159.109 176.844,158.185 178.558,157.91 C180.273,157.64 181.991,158.047 183.397,159.065 C184.803,160.084 185.729,161.589 186.002,163.304 C186.276,165.019 185.866,166.736 184.848,168.143 C183.829,169.549 182.324,170.474 180.609,170.748 C180.262,170.803 179.915,170.83 179.57,170.83 Z"/>
    <path fill="#434A4F" d="M180.32,151.347 C179.77,151.316 179.35,150.847 179.38,150.287 C179.41,149.736 179.88,149.316 180.43,149.347 C180.99,149.377 181.41,149.847 181.38,150.396 C181.35,150.937 180.9,151.347 180.38,151.347 C180.36,151.347 180.34,151.347 180.32,151.347 Z M175.43,150.917 C175.31,150.377 175.64,149.847 176.18,149.717 C176.72,149.587 177.26,149.927 177.38,150.467 C177.51,151.007 177.17,151.537 176.64,151.667 C176.56,151.687 176.48,151.687 176.41,151.687 C175.95,151.687 175.54,151.377 175.43,150.917 Z M183.95,152.077 C183.43,151.887 183.16,151.316 183.34,150.797 C183.53,150.276 184.1,150.007 184.62,150.196 C185.14,150.377 185.41,150.957 185.23,151.467 C185.08,151.877 184.7,152.137 184.28,152.137 C184.17,152.137 184.06,152.117 183.95,152.077 Z M171.82,152.627 C171.55,152.146 171.72,151.537 172.2,151.267 C172.68,150.997 173.29,151.167 173.56,151.646 C173.84,152.127 173.67,152.736 173.18,153.007 C173.03,153.097 172.86,153.137 172.69,153.137 C172.34,153.137 172.01,152.957 171.82,152.627 Z M187.21,153.797 L187.21,153.807 C186.76,153.477 186.66,152.856 186.99,152.407 C187.31,151.957 187.94,151.856 188.38,152.177 C188.83,152.507 188.93,153.127 188.61,153.577 C188.41,153.847 188.11,153.986 187.8,153.986 C187.59,153.986 187.39,153.927 187.21,153.797 Z M168.84,155.287 C168.44,154.907 168.44,154.276 168.82,153.877 C169.2,153.486 169.84,153.467 170.23,153.856 C170.63,154.236 170.64,154.867 170.26,155.267 C170.06,155.477 169.8,155.577 169.54,155.577 C169.29,155.577 169.04,155.477 168.84,155.287 Z M189.87,156.377 C189.53,155.937 189.61,155.307 190.05,154.977 C190.49,154.637 191.11,154.717 191.45,155.146 C191.79,155.587 191.71,156.217 191.27,156.557 C191.09,156.696 190.88,156.767 190.66,156.767 C190.36,156.767 190.07,156.627 189.87,156.377 Z M166.73,158.687 C166.24,158.427 166.05,157.816 166.31,157.327 C166.57,156.847 167.17,156.657 167.66,156.917 C168.15,157.177 168.34,157.776 168.08,158.267 C167.9,158.606 167.55,158.797 167.19,158.797 C167.04,158.797 166.88,158.767 166.73,158.687 Z M191.69,159.597 C191.49,159.077 191.75,158.497 192.26,158.297 C192.77,158.097 193.36,158.356 193.56,158.867 C193.76,159.387 193.5,159.967 192.99,160.167 C192.87,160.207 192.75,160.236 192.62,160.236 C192.22,160.236 191.85,159.986 191.69,159.597 Z M165.66,162.526 C165.12,162.427 164.77,161.896 164.88,161.356 C164.98,160.816 165.51,160.457 166.05,160.566 C166.59,160.677 166.94,161.207 166.84,161.747 C166.74,162.227 166.32,162.547 165.86,162.547 C165.79,162.547 165.73,162.547 165.66,162.526 Z M192.53,163.196 C192.49,162.646 192.89,162.167 193.44,162.117 C193.99,162.066 194.48,162.477 194.53,163.026 C194.57,163.577 194.17,164.057 193.62,164.106 C193.59,164.117 193.56,164.117 193.53,164.117 C193.02,164.117 192.58,163.727 192.53,163.196 Z M164.64,165.617 C164.59,165.066 165,164.587 165.55,164.537 C166.1,164.486 166.58,164.896 166.63,165.446 C166.68,165.997 166.27,166.477 165.72,166.526 C165.69,166.526 165.66,166.537 165.63,166.537 C165.12,166.537 164.68,166.137 164.64,165.617 Z M193.11,168.077 C192.57,167.967 192.22,167.437 192.33,166.896 C192.44,166.356 192.97,166.007 193.51,166.117 C194.05,166.227 194.4,166.747 194.29,167.287 C194.2,167.767 193.78,168.097 193.31,168.097 C193.24,168.097 193.18,168.087 193.11,168.077 Z M165.61,169.776 C165.41,169.267 165.66,168.687 166.18,168.486 C166.69,168.287 167.27,168.537 167.47,169.057 C167.67,169.566 167.41,170.146 166.9,170.347 C166.78,170.396 166.66,170.417 166.53,170.417 C166.14,170.417 165.76,170.177 165.61,169.776 Z M191.51,171.736 C191.02,171.477 190.83,170.867 191.09,170.387 L191.09,170.377 C191.35,169.896 191.95,169.707 192.44,169.967 C192.93,170.217 193.12,170.827 192.86,171.316 C192.68,171.657 192.33,171.847 191.97,171.847 C191.82,171.847 191.66,171.807 191.51,171.736 Z M167.71,173.497 C167.37,173.057 167.45,172.437 167.89,172.097 C168.32,171.757 168.95,171.837 169.29,172.276 C169.63,172.717 169.55,173.337 169.11,173.677 C168.93,173.816 168.71,173.887 168.5,173.887 C168.2,173.887 167.9,173.757 167.71,173.497 Z M188.94,174.797 C188.54,174.407 188.53,173.776 188.92,173.377 C189.3,172.986 189.93,172.977 190.33,173.356 C190.73,173.747 190.74,174.377 190.35,174.776 C190.35,174.776 190.35,174.776 190.35,174.767 C190.16,174.977 189.89,175.077 189.63,175.077 C189.38,175.077 189.13,174.986 188.94,174.797 Z M170.77,176.467 C170.33,176.146 170.23,175.517 170.55,175.077 C170.88,174.627 171.5,174.526 171.95,174.847 C172.4,175.177 172.5,175.797 172.17,176.247 C171.98,176.517 171.67,176.657 171.36,176.657 C171.16,176.657 170.95,176.597 170.77,176.467 Z M185.61,177.007 C185.34,176.526 185.51,175.917 185.99,175.646 C186.47,175.377 187.08,175.547 187.35,176.026 C187.62,176.507 187.45,177.117 186.97,177.387 C186.82,177.477 186.65,177.517 186.48,177.517 C186.13,177.517 185.79,177.327 185.61,177.007 Z M174.55,178.467 C174.55,178.467 174.55,178.467 174.55,178.457 C174.03,178.276 173.76,177.707 173.94,177.187 C174.13,176.667 174.7,176.396 175.22,176.577 C175.74,176.767 176.02,177.337 175.83,177.856 C175.68,178.267 175.3,178.517 174.89,178.517 C174.77,178.517 174.66,178.507 174.55,178.467 Z M181.79,178.187 C181.67,177.646 182,177.117 182.54,176.986 C183.08,176.856 183.61,177.196 183.74,177.736 C183.86,178.276 183.53,178.807 182.99,178.937 C182.92,178.957 182.84,178.957 182.77,178.957 C182.31,178.957 181.9,178.646 181.79,178.187 Z M178.74,179.307 C178.19,179.276 177.76,178.807 177.79,178.247 C177.83,177.696 178.3,177.276 178.85,177.307 C179.4,177.337 179.82,177.807 179.79,178.367 C179.76,178.896 179.32,179.307 178.79,179.307 C178.78,179.307 178.76,179.307 178.74,179.307 Z"/>
    <path fill="#E9886C" d="M44.993,164.16 C44.993,165.265 45.889,166.16 46.993,166.16 C48.098,166.16 48.993,165.265 48.993,164.16 C48.993,163.055 48.098,162.16 46.993,162.16 C45.889,162.16 44.993,163.055 44.993,164.16"/>
    <path fill="#42494E" d="M86.729,53.418 C81.767,53.418 77.729,57.455 77.729,62.418 C77.729,67.381 81.767,71.418 86.729,71.418 C91.691,71.418 95.729,67.381 95.729,62.418 C95.729,57.455 91.691,53.418 86.729,53.418 Z M86.729,73.418 C80.664,73.418 75.729,68.483 75.729,62.418 C75.729,56.352 80.664,51.418 86.729,51.418 C92.794,51.418 97.729,56.352 97.729,62.418 C97.729,68.483 92.794,73.418 86.729,73.418 Z M86.729,47.418 C78.458,47.418 71.729,54.146 71.729,62.418 C71.729,70.689 78.458,77.418 86.729,77.418 C95,77.418 101.729,70.689 101.729,62.418 C101.729,54.146 95,47.418 86.729,47.418 Z M86.729,79.418 C77.355,79.418 69.729,71.792 69.729,62.418 C69.729,53.044 77.355,45.418 86.729,45.418 C96.103,45.418 103.729,53.044 103.729,62.418 C103.729,71.792 96.103,79.418 86.729,79.418 Z"/>
    <path fill="#42494E" d="M86.729,59.418 C85.075,59.418 83.729,60.764 83.729,62.418 C83.729,64.072 85.075,65.418 86.729,65.418 C88.383,65.418 89.729,64.072 89.729,62.418 C89.729,60.764 88.383,59.418 86.729,59.418 Z M86.729,67.418 C83.972,67.418 81.729,65.175 81.729,62.418 C81.729,59.661 83.972,57.418 86.729,57.418 C89.486,57.418 91.729,59.661 91.729,62.418 C91.729,65.175 89.486,67.418 86.729,67.418 Z"/>
    <path fill="#E9886C" d="M86.729,58.418 C84.52,58.418 82.729,60.209 82.729,62.418 C82.729,64.627 84.52,66.418 86.729,66.418 C88.938,66.418 90.729,64.627 90.729,62.418 C90.729,60.209 88.938,58.418 86.729,58.418"/>
    <path fill="#E9886C" d="M86.729,59.418 C85.075,59.418 83.729,60.764 83.729,62.418 C83.729,64.072 85.075,65.418 86.729,65.418 C88.383,65.418 89.729,64.072 89.729,62.418 C89.729,60.764 88.383,59.418 86.729,59.418 Z M86.729,67.418 C83.972,67.418 81.729,65.175 81.729,62.418 C81.729,59.661 83.972,57.418 86.729,57.418 C89.486,57.418 91.729,59.661 91.729,62.418 C91.729,65.175 89.486,67.418 86.729,67.418 Z"/>
    <polygon fill="#42494E" points="59.731 63.418 86.729 63.418 86.729 61.418 59.731 61.418"/>
    <path fill="#42494E" d="M53.144,65.418 L56.316,65.418 L59.316,62.418 L56.316,59.418 L53.144,59.418 L56.144,62.418 L53.144,65.418 Z M57.144,67.418 L48.316,67.418 L53.316,62.418 L48.316,57.418 L57.144,57.418 L62.144,62.418 L57.144,67.418 Z"/>
    <path fill="#434A4F" d="M107 168.497C106.87 168.497 106.74 168.477 106.62 168.427 106.5 168.377 106.39 168.297 106.29 168.207 106.2 168.117 106.13 168.007 106.08 167.887 106.03 167.757 106 167.637 106 167.497 106 167.236 106.11 166.977 106.29 166.797 106.34 166.747 106.39 166.707 106.44 166.667 106.5 166.637 106.56 166.597 106.62 166.577 106.68 166.547 106.74 166.526 106.8 166.517 107.13 166.446 107.47 166.557 107.71 166.797 107.89 166.977 108 167.236 108 167.497 108 167.637 107.97 167.757 107.92 167.887 107.87 168.007 107.8 168.117 107.71 168.207 107.61 168.297 107.5 168.377 107.38 168.427 107.26 168.477 107.13 168.497 107 168.497M134.25 49.877C134.12 49.877 133.99 49.847 133.87 49.797 133.75 49.747 133.64 49.677 133.54 49.577 133.35 49.387 133.25 49.137 133.25 48.877 133.25 48.606 133.36 48.356 133.54 48.167 133.63 48.077 133.74 47.997 133.87 47.946 134.23 47.797 134.68 47.887 134.96 48.167 135.14 48.356 135.25 48.606 135.25 48.877 135.25 49.137 135.15 49.387 134.96 49.577 134.77 49.767 134.52 49.877 134.25 49.877M168.914 99.999C168.907 99.999 168.899 99.999 168.892 99.999 168.339 99.986 167.879 99.528 167.892 98.977 167.904 98.424 168.315 98.006 168.891 97.998L168.936 97.999C169.488 98.012 169.925 98.469 169.914 99.021 169.901 99.565 169.456 99.999 168.914 99.999M169.063 123.707C168.511 123.707 168.032 123.26 168.032 122.707 168.032 122.154 168.449 121.707 169.001 121.707L169.063 121.707C169.616 121.707 170.063 122.154 170.063 122.707 170.063 123.26 169.616 123.707 169.063 123.707M81.862 99.999C81.854 99.999 81.847 99.999 81.839 99.999 81.287 99.986 80.827 99.528 80.839 98.977 80.852 98.424 81.271 98.006 81.839 97.998L81.883 97.999C82.436 98.012 82.873 98.469 82.861 99.021 82.849 99.565 82.404 99.999 81.862 99.999M82.011 123.707C81.459 123.707 80.98 123.26 80.98 122.707 80.98 122.154 81.396 121.707 81.949 121.707L82.011 121.707C82.563 121.707 83.011 122.154 83.011 122.707 83.011 123.26 82.563 123.707 82.011 123.707"/>
  </g>
</svg>
