<svg xmlns="http://www.w3.org/2000/svg" width="250" height="250" viewBox="0 0 250 250">
  <g fill="none" fill-rule="evenodd">
    <path fill="#E9886C" d="M162.122 211.827C162.122 211.827 159.422 165.159 158.073 159.76 159.191 159.761 160.098 158.854 160.098 157.736L160.098 152.674 154.952 146.597 149.974 152.674 149.974 157.736C149.974 158.854 150.881 159.761 151.999 159.76 150.65 165.159 147.95 211.827 147.95 211.827L162.122 211.827M77.146 211.744C77.146 211.744 73.801 165.195 72.629 160.507 73.6 160.507 74.387 159.72 74.387 158.75L74.387 154.354 69.919 149.077 65.598 154.354 65.598 158.75C65.598 159.72 66.385 160.507 67.355 160.507 66.184 165.195 62.839 211.744 62.839 211.744L77.146 211.744"/>
    <path fill="#DDDED9" d="M58.478,137.544 L58.478,140.774 L69.662,147.057 L80.75,140.959 L80.849,135.047 L80.849,130.064 C81.273,129.646 81.707,129.198 82.097,128.746 C81.964,128.862 81.836,128.979 81.727,129.096 C80.173,130.767 77.815,132.521 76.219,133.884 C74.957,134.962 73.361,135.558 71.701,135.577 L66.902,135.577 C65.242,135.558 63.646,134.962 62.383,133.884 C60.86,132.583 58.643,130.926 57.092,129.324 C57.045,129.276 56.991,129.228 56.941,129.18 C57.406,129.675 57.938,130.177 58.505,130.676 C58.493,130.682 58.478,130.688 58.478,130.703 L58.478,137.544"/>
    <path fill="#434A4F" d="M58.478,141.681 C57.925,141.681 57.478,141.234 57.478,140.681 L57.478,130.703 C57.478,130.15 57.925,129.703 58.478,129.703 C59.031,129.703 59.478,130.15 59.478,130.703 L59.478,140.681 C59.478,141.234 59.031,141.681 58.478,141.681"/>
    <path fill="#434A4F" d="M80.775,141.497 C80.222,141.497 79.775,141.05 79.775,140.497 L79.775,129.63 L80.073,129.337 C80.922,128.499 81.936,127.434 82.24,126.625 L86.864,117.187 L91.927,114.654 L93.06,109.031 C93.051,108.675 92.913,108.343 92.664,108.087 C92.397,107.812 92.039,107.661 91.656,107.661 L89.443,107.661 L89.647,106.489 C90.048,104.187 90.251,102.117 90.251,100.337 L90.252,99.334 C90.272,96.485 89.648,93.614 88.448,91.029 C88.333,90.772 88.22,90.533 88.102,90.295 C86.74,87.55 84.746,85.094 82.333,83.192 C78.683,80.314 74.291,78.776 69.633,78.745 C69.587,78.745 69.541,78.744 69.497,78.744 C64.135,78.744 59.029,80.886 55.103,84.785 C51.05,88.81 48.726,94.349 48.726,99.983 L48.726,100.337 C48.726,102.148 48.901,104.225 49.246,106.511 L49.418,107.661 L47.36,107.661 C46.581,107.661 45.939,108.262 45.876,109.026 L47.489,114.666 L51.912,117.22 L56.337,126.578 C56.921,128.135 59.567,130.286 61.499,131.856 C62.048,132.303 62.572,132.729 63.033,133.123 C64.112,134.045 65.49,134.561 66.913,134.577 L71.711,134.577 C72.264,134.577 72.711,135.024 72.711,135.577 C72.711,136.13 72.264,136.577 71.711,136.577 L66.902,136.577 C64.999,136.555 63.167,135.869 61.734,134.644 C61.284,134.26 60.773,133.844 60.237,133.409 C57.893,131.504 55.237,129.344 54.496,127.355 L50.371,118.64 L45.788,115.994 L43.872,109.148 C43.872,107.31 45.301,105.8 47.107,105.67 C46.854,103.728 46.726,101.938 46.726,100.337 L46.726,99.983 C46.726,93.821 49.265,87.764 53.694,83.366 C57.997,79.092 63.603,76.745 69.496,76.745 C69.546,76.745 69.596,76.745 69.647,76.745 C74.753,76.78 79.569,78.465 83.572,81.622 C86.215,83.707 88.401,86.398 89.893,89.406 C90.023,89.668 90.148,89.932 90.268,90.2 C91.585,93.038 92.274,96.205 92.252,99.346 L92.252,100.337 C92.252,101.922 92.102,103.709 91.807,105.664 C92.678,105.702 93.487,106.064 94.098,106.693 C94.745,107.358 95.085,108.235 95.059,109.163 L95.04,109.331 L93.695,116.006 L88.362,118.674 L84.074,127.417 C83.711,128.396 82.777,129.457 81.775,130.465 L81.775,140.497 C81.775,141.05 81.328,141.497 80.775,141.497"/>
    <polyline fill="#434A4F" points="30.45 152.911 28.956 152.911 28.956 150.911 30.127 150.911 50.677 144.108 54.76 136.541 58.144 136.541 58.144 138.541 55.954 138.541 52.06 145.757 30.45 152.911"/>
    <path fill="#434A4F" d="M69.848,148.296 L57.998,141.659 C57.516,141.389 57.344,140.78 57.615,140.299 C57.883,139.817 58.492,139.642 58.975,139.915 L69.848,146.003 L80.29,140.156 C80.771,139.884 81.381,140.058 81.65,140.54 C81.92,141.021 81.748,141.631 81.266,141.9 L69.848,148.296"/>
    <polyline fill="#434A4F" points="104.808 151.527 87.603 145.827 83.154 138.541 80.935 138.541 80.935 136.541 84.277 136.541 88.927 144.159 105.437 149.629 104.808 151.527"/>
    <path fill="#434A4F" d="M76.29,157.244 C76.005,157.244 75.723,157.124 75.525,156.889 L69.825,150.148 L63.938,156.688 C63.569,157.1 62.937,157.133 62.526,156.762 C62.116,156.393 62.082,155.76 62.452,155.35 L69.872,147.107 L77.052,155.598 C77.409,156.02 77.356,156.651 76.934,157.008 C76.747,157.167 76.517,157.244 76.29,157.244"/>
    <path fill="#DDDED9" d="M139.509,132.085 L139.509,136.454 L154.64,144.954 L169.64,136.704 L169.775,128.707 L169.775,121.966 C170.348,121.399 170.935,120.794 171.462,120.181 C171.282,120.339 171.11,120.497 170.962,120.655 C168.859,122.916 165.67,125.289 163.511,127.133 C161.803,128.591 159.643,129.398 157.397,129.424 L150.905,129.424 C148.659,129.398 146.5,128.591 144.792,127.133 C142.731,125.373 139.731,123.131 137.634,120.964 C137.571,120.899 137.497,120.834 137.429,120.769 C138.059,121.439 138.779,122.118 139.545,122.793 C139.529,122.801 139.509,122.809 139.509,122.829 L139.509,132.085"/>
    <path fill="#434A4F" d="M139.509,137.329 C138.957,137.329 138.509,136.882 138.509,136.329 L138.509,122.829 C138.509,122.276 138.957,121.829 139.509,121.829 C140.062,121.829 140.509,122.276 140.509,122.829 L140.509,136.329 C140.509,136.882 140.062,137.329 139.509,137.329"/>
    <path fill="#434A4F" d="M169.674 137.08C169.122 137.08 168.674 136.633 168.674 136.08L168.674 121.527 168.972 121.233C170.146 120.075 171.55 118.597 171.988 117.435L178.176 104.806 185.074 101.355 186.647 93.543C186.645 92.958 186.42 92.408 186.01 91.986 185.583 91.546 185.009 91.303 184.395 91.303L181.821 91.303 182.025 90.132C182.571 86.994 182.848 84.173 182.848 81.748L182.849 80.395C182.875 76.486 182.02 72.549 180.375 69.007 180.219 68.661 180.063 68.331 179.902 68.005 178.039 64.248 175.306 60.883 172 58.276 166.999 54.334 160.982 52.226 154.603 52.183 154.541 52.183 154.477 52.182 154.415 52.182 147.068 52.182 140.072 55.117 134.694 60.458 129.145 65.969 125.962 73.554 125.962 81.269L125.962 81.748C125.962 84.216 126.2 87.045 126.669 90.154L126.842 91.303 124.467 91.303C123.206 91.303 122.171 92.296 122.105 93.541L124.341 101.367 130.353 104.84 136.293 117.4C137.105 119.569 140.578 122.392 143.368 124.661 144.111 125.264 144.818 125.841 145.441 126.372 146.963 127.673 148.908 128.401 150.917 128.424L157.413 128.424C157.965 128.424 158.413 128.871 158.413 129.424 158.413 129.976 157.965 130.424 157.413 130.424L150.906 130.424C148.417 130.395 146.02 129.497 144.142 127.893 143.531 127.371 142.835 126.805 142.106 126.213 138.973 123.665 135.421 120.778 134.452 118.177L128.812 106.259 122.64 102.695 120.101 93.669C120.101 91.261 122.06 89.303 124.467 89.303L124.527 89.303C124.152 86.543 123.962 84.006 123.962 81.748L123.962 81.269C123.962 73.025 127.36 64.923 133.285 59.038 139.039 53.323 146.537 50.182 154.415 50.182 154.482 50.182 154.548 50.183 154.617 50.183 161.445 50.229 167.884 52.485 173.239 56.706 176.776 59.495 179.7 63.095 181.694 67.117 181.868 67.467 182.034 67.819 182.194 68.175 183.958 71.973 184.877 76.206 184.849 80.406L184.848 81.748C184.848 83.979 184.626 86.516 184.189 89.303L184.395 89.303C185.554 89.303 186.637 89.761 187.445 90.592 188.252 91.423 188.679 92.519 188.646 93.677L188.626 93.846 186.841 102.707 179.674 106.293 173.821 118.228C173.326 119.556 171.987 121.048 170.674 122.361L170.674 136.08C170.674 136.633 170.227 137.08 169.674 137.08M90.89 211.745L88.89 211.743 88.954 161.75C88.954 155.803 92.726 153.905 98.055 151.872L129.197 141.259 134.69 131.08 139.057 131.08 139.057 133.08 135.883 133.08 130.583 142.9 98.734 153.753C93.456 155.767 90.954 157.217 90.954 161.751L90.89 211.745"/>
    <path fill="#434A4F" d="M154.891 146.225L139.032 137.344C138.549 137.075 138.377 136.466 138.648 135.984 138.917 135.503 139.526 135.328 140.008 135.6L154.891 143.932 169.189 135.926C169.67 135.656 170.281 135.828 170.549 136.31 170.82 136.792 170.648 137.401 170.166 137.671L154.891 146.225M220.89 211.745L218.89 211.743 218.945 161.87C218.945 157.077 215.94 155.626 210.992 153.804L179.142 142.993 173.09 133.08 169.89 133.08 169.89 131.08 174.213 131.08 180.472 141.333 211.659 151.919C216.93 153.858 220.945 155.817 220.945 161.871L220.89 211.745"/>
    <path fill="#434A4F" d="M163.89,158.079 C163.617,158.079 163.344,157.967 163.147,157.748 L154.891,148.574 L146.633,157.748 C146.264,158.159 145.633,158.191 145.221,157.822 C144.811,157.453 144.778,156.82 145.147,156.41 L154.891,145.584 L164.633,156.41 C165.002,156.82 164.969,157.453 164.559,157.822 C164.368,157.994 164.128,158.079 163.89,158.079"/>
    <path fill="#42494E" d="M143.644,183.764 C141.99,183.764 140.644,185.11 140.644,186.764 C140.644,188.419 141.99,189.764 143.644,189.764 L198.808,189.763 L205.314,186.763 L198.808,183.764 L143.644,183.764 Z M143.644,191.764 C140.887,191.764 138.644,189.521 138.644,186.764 C138.644,184.008 140.887,181.764 143.644,181.764 L199.248,181.764 L210.091,186.763 L199.248,191.763 L143.644,191.764 Z"/>
    <polygon fill="#42494E" points="149.253 190.764 151.253 190.764 151.253 183.166 149.253 183.166"/>
    <polygon fill="#42494E" points="150.253 187.735 198.259 187.735 198.259 185.735 150.253 185.735"/>
    <path fill="#434A4F" d="M195.085,73.672 L197.54,74.468 L198.006,73.032 C198.533,71.41 199.974,70.362 201.679,70.361 L201.68,70.361 C203.384,70.361 204.826,71.409 205.353,73.029 L205.821,74.465 L208.274,73.667 L207.807,72.231 C207.28,70.61 207.83,68.916 209.208,67.913 C210.586,66.91 212.371,66.91 213.75,67.91 L214.972,68.798 L216.488,66.71 L215.266,65.823 C213.886,64.82 213.335,63.125 213.862,61.504 C214.388,59.883 215.83,58.835 217.535,58.834 L219.044,58.833 L219.043,56.253 L217.534,56.254 L217.533,56.254 C215.829,56.254 214.386,55.207 213.859,53.586 C213.332,51.964 213.882,50.268 215.261,49.266 L216.482,48.379 L215.009,46.352 L213.788,47.241 C212.409,48.245 210.627,48.245 209.249,47.243 C207.868,46.242 207.316,44.547 207.842,42.924 L208.308,41.488 L205.854,40.692 L205.388,42.129 C204.862,43.751 203.419,44.798 201.714,44.799 L201.713,44.799 C200.009,44.799 198.568,43.752 198.041,42.132 L197.573,40.695 L195.12,41.494 L195.587,42.929 C196.115,44.551 195.564,46.247 194.185,47.25 C192.805,48.252 191.024,48.253 189.644,47.252 L188.422,46.364 L186.906,48.452 L188.128,49.339 C189.507,50.34 190.059,52.036 189.533,53.657 C189.006,55.279 187.565,56.327 185.86,56.328 L184.35,56.329 L184.352,58.909 L185.862,58.908 L185.863,58.908 C187.567,58.908 189.008,59.955 189.536,61.575 C190.064,63.196 189.513,64.892 188.134,65.895 L186.914,66.783 L188.384,68.806 L189.606,67.919 C190.985,66.916 192.768,66.917 194.147,67.917 C195.527,68.919 196.078,70.614 195.551,72.235 L195.085,73.672 Z M198.825,76.988 L192.566,74.957 L193.649,71.618 C193.958,70.669 193.501,69.92 192.972,69.536 C192.441,69.15 191.588,68.95 190.782,69.536 L187.943,71.599 L184.119,66.341 L186.958,64.278 C187.765,63.69 187.836,62.816 187.634,62.194 C187.432,61.572 186.86,60.908 185.863,60.908 C185.863,60.908 185.863,60.908 185.862,60.908 L182.352,60.909 L182.35,54.329 L185.86,54.328 C186.857,54.328 187.428,53.663 187.63,53.04 C187.833,52.418 187.76,51.544 186.953,50.958 L184.113,48.895 L187.979,43.571 L190.82,45.632 C191.625,46.219 192.479,46.016 193.008,45.632 C193.539,45.247 193.994,44.498 193.685,43.548 L192.598,40.211 L198.856,38.176 L199.943,41.512 C200.251,42.462 201.06,42.799 201.713,42.799 C202.369,42.799 203.177,42.461 203.486,41.511 L204.569,38.173 L210.828,40.203 L209.745,43.542 C209.437,44.491 209.893,45.24 210.422,45.625 C210.954,46.009 211.804,46.211 212.612,45.624 L215.451,43.559 L219.277,48.82 L216.437,50.883 C215.63,51.47 215.559,52.344 215.761,52.966 C215.963,53.589 216.536,54.254 217.533,54.254 C217.533,54.254 217.533,54.254 217.534,54.254 L221.043,54.253 L221.044,60.833 L217.535,60.834 C216.538,60.834 215.966,61.499 215.764,62.121 C215.562,62.744 215.633,63.618 216.441,64.205 L219.283,66.266 L215.416,71.59 L212.575,69.529 C211.768,68.941 210.914,69.145 210.384,69.53 C209.856,69.915 209.401,70.664 209.709,71.612 L210.795,74.95 L204.538,76.985 L203.451,73.648 C203.142,72.699 202.334,72.361 201.68,72.361 C201.68,72.361 201.68,72.361 201.679,72.361 C201.025,72.361 200.216,72.7 199.909,73.649 L198.825,76.988 Z"/>
    <path fill="#E9886C" d="M201.7,55.835 C201.159,55.835 200.625,56.086 200.283,56.556 C200.009,56.933 199.899,57.395 199.973,57.856 C200.046,58.316 200.295,58.721 200.673,58.995 C201.454,59.56 202.547,59.384 203.112,58.604 C203.385,58.227 203.496,57.765 203.421,57.304 C203.348,56.844 203.099,56.439 202.721,56.166 C202.413,55.942 202.055,55.835 201.7,55.835 Z M201.69,61.328 C200.907,61.328 200.146,61.083 199.5,60.614 C198.689,60.027 198.156,59.16 197.998,58.172 C197.84,57.183 198.077,56.193 198.664,55.383 C199.876,53.711 202.223,53.334 203.895,54.547 C204.706,55.133 205.239,56.001 205.397,56.989 C205.554,57.977 205.318,58.967 204.731,59.778 C204.144,60.589 203.277,61.122 202.289,61.28 C202.088,61.311 201.888,61.328 201.69,61.328 Z"/>
    <path fill="#434A4F" d="M199.496 47.162C199.426 46.612 199.826 46.122 200.366 46.061 200.366 46.061 200.366 46.061 200.366 46.051 200.916 45.992 201.416 46.382 201.476 46.931 201.545 47.481 201.146 47.981 200.596 48.042 200.556 48.051 200.516 48.051 200.486 48.051 199.986 48.051 199.545 47.672 199.496 47.162zM204.116 48.292C203.585 48.152 203.266 47.601 203.396 47.072 203.536 46.532 204.085 46.212 204.616 46.351 204.616 46.351 204.616 46.351 204.625 46.351 205.156 46.492 205.476 47.032 205.335 47.572 205.215 48.021 204.816 48.322 204.366 48.322 204.286 48.322 204.206 48.311 204.116 48.292zM195.875 48.662C195.625 48.172 195.806 47.572 196.295 47.311 196.786 47.051 197.396 47.242 197.646 47.731 197.906 48.221 197.715 48.822 197.226 49.082 197.076 49.162 196.916 49.191 196.766 49.191 196.406 49.191 196.056 49.002 195.875 48.662zM207.326 49.811C207.326 49.801 207.316 49.801 207.316 49.792 207.306 49.792 207.306 49.792 207.306 49.792 206.856 49.471 206.755 48.841 207.076 48.391 207.396 47.941 208.026 47.841 208.476 48.162 208.496 48.181 208.516 48.202 208.536 48.221 208.956 48.542 209.036 49.152 208.726 49.582 208.526 49.851 208.226 50.002 207.916 50.002 207.706 50.002 207.505 49.931 207.326 49.811zM193.056 51.372C192.636 51.002 192.596 50.372 192.956 49.952 193.316 49.542 193.946 49.492 194.366 49.862 194.786 50.221 194.826 50.851 194.465 51.271 194.266 51.492 193.986 51.612 193.706 51.612 193.476 51.612 193.246 51.532 193.056 51.372zM209.755 52.362C209.456 51.902 209.585 51.282 210.056 50.981 210.516 50.681 211.136 50.811 211.436 51.282 211.736 51.742 211.606 52.362 211.136 52.662 210.976 52.771 210.786 52.822 210.596 52.822 210.266 52.822 209.946 52.662 209.755 52.362zM191.386 54.902C190.866 54.712 190.596 54.141 190.786 53.622 190.976 53.101 191.556 52.832 192.076 53.021 192.585 53.212 192.856 53.792 192.666 54.311 192.516 54.712 192.136 54.962 191.726 54.962 191.616 54.962 191.496 54.941 191.386 54.902zM211.096 55.632C210.976 55.082 211.326 54.551 211.866 54.441 212.406 54.332 212.936 54.681 213.056 55.221 213.056 55.221 213.056 55.221 213.045 55.221 213.166 55.761 212.816 56.292 212.276 56.402 212.206 56.422 212.136 56.422 212.076 56.422 211.606 56.422 211.196 56.101 211.096 55.632zM190.096 57.832C190.085 57.271 190.526 56.822 191.076 56.801 191.625 56.792 192.085 57.231 192.096 57.782 192.106 58.332 191.676 58.792 191.125 58.801 191.116 58.811 191.106 58.811 191.096 58.811 190.556 58.811 190.116 58.372 190.096 57.832zM211.986 60.301C211.446 60.212 211.076 59.702 211.166 59.152 211.255 58.612 211.766 58.242 212.316 58.332 212.856 58.422 213.226 58.931 213.136 59.481 213.056 59.971 212.636 60.311 212.156 60.311 212.096 60.311 212.045 60.311 211.986 60.301zM190.965 62.002C190.755 61.481 191.005 60.902 191.516 60.691 192.026 60.481 192.616 60.721 192.816 61.242L192.816 61.231C193.026 61.752 192.786 62.332 192.276 62.542 192.156 62.591 192.026 62.622 191.896 62.622 191.505 62.622 191.125 62.382 190.965 62.002zM210.306 63.832C209.835 63.551 209.676 62.941 209.956 62.462 210.236 61.992 210.856 61.832 211.326 62.112 211.806 62.391 211.956 63.011 211.676 63.481 211.496 63.801 211.156 63.971 210.816 63.971 210.646 63.971 210.465 63.931 210.306 63.832zM193.295 65.572C192.906 65.172 192.926 64.542 193.326 64.162 193.726 63.782 194.356 63.792 194.736 64.191 195.116 64.591 195.106 65.231 194.706 65.612 194.516 65.792 194.266 65.882 194.016 65.882 193.755 65.882 193.486 65.782 193.295 65.572zM207.465 66.521C207.125 66.091 207.206 65.462 207.636 65.122 208.076 64.782 208.696 64.851 209.045 65.282 209.386 65.721 209.306 66.351 208.875 66.691 208.696 66.832 208.476 66.902 208.255 66.902 207.956 66.902 207.666 66.771 207.465 66.521zM196.746 68.072C196.246 67.832 196.026 67.231 196.266 66.742 196.505 66.242 197.096 66.021 197.596 66.261 198.096 66.492 198.316 67.091 198.076 67.591 197.906 67.952 197.545 68.162 197.166 68.162 197.026 68.162 196.886 68.132 196.746 68.072zM203.846 68.002C203.686 67.471 203.986 66.912 204.516 66.752 205.036 66.591 205.596 66.891 205.766 67.422 205.926 67.941 205.625 68.502 205.096 68.662 204.996 68.691 204.906 68.712 204.806 68.712 204.375 68.712 203.986 68.431 203.846 68.002zM200.866 69.152C200.316 69.112 199.896 68.632 199.946 68.082 199.976 67.532 200.456 67.112 201.005 67.152 201.556 67.191 201.976 67.672 201.936 68.221 201.896 68.752 201.456 69.152 200.936 69.152 200.916 69.152 200.886 69.152 200.866 69.152zM197.83 129.731C196.727 129.731 195.83 130.629 195.83 131.731 195.83 132.834 196.727 133.731 197.83 133.731 198.932 133.731 199.83 132.834 199.83 131.731 199.83 130.629 198.932 129.731 197.83 129.731zM197.83 135.731C195.624 135.731 193.83 133.937 193.83 131.731 193.83 129.525 195.624 127.731 197.83 127.731 200.036 127.731 201.83 129.525 201.83 131.731 201.83 133.937 200.036 135.731 197.83 135.731zM114.78 180.762C113.677 180.762 112.78 181.66 112.78 182.762 112.78 183.865 113.677 184.762 114.78 184.762 115.882 184.762 116.78 183.865 116.78 182.762 116.78 181.66 115.882 180.762 114.78 180.762zM114.78 186.762C112.574 186.762 110.78 184.968 110.78 182.762 110.78 180.556 112.574 178.762 114.78 178.762 116.986 178.762 118.78 180.556 118.78 182.762 118.78 184.968 116.986 186.762 114.78 186.762z"/>
    <path fill="#FACD60" d="M105.751,90.726 C105.751,92.383 104.408,93.726 102.751,93.726 C101.094,93.726 99.751,92.383 99.751,90.726 C99.751,89.069 101.094,87.726 102.751,87.726 C104.408,87.726 105.751,89.069 105.751,90.726"/>
    <polygon fill="#434A4F" points="108.067 48.714 110.067 48.714 110.067 44.714 108.067 44.714"/>
    <polygon fill="#434A4F" points="108.067 58.714 110.067 58.714 110.067 54.714 108.067 54.714"/>
    <polygon fill="#434A4F" points="112.067 52.714 116.067 52.714 116.067 50.714 112.067 50.714"/>
    <polygon fill="#434A4F" points="102.067 52.714 106.067 52.714 106.067 50.714 102.067 50.714"/>
    <polygon fill="#434A4F" points="68.044 188.798 70.044 188.798 70.044 184.798 68.044 184.798"/>
    <polygon fill="#434A4F" points="68.044 198.798 70.044 198.798 70.044 194.798 68.044 194.798"/>
    <polygon fill="#434A4F" points="72.044 192.798 76.044 192.798 76.044 190.798 72.044 190.798"/>
    <polygon fill="#434A4F" points="62.043 192.798 66.043 192.798 66.043 190.798 62.043 190.798"/>
    <path fill="#DDDED9" d="M103.744,138.006 L103.744,139.946 L110.463,143.721 L117.124,140.057 L117.184,136.506 L117.184,133.512 C117.438,133.261 117.699,132.992 117.933,132.72 C117.853,132.79 117.777,132.86 117.711,132.93 C116.777,133.934 115.361,134.988 114.402,135.807 C113.644,136.454 112.685,136.813 111.687,136.824 L108.804,136.824 C107.807,136.813 106.848,136.454 106.09,135.807 C105.175,135.025 103.843,134.03 102.911,133.068 C102.883,133.039 102.851,133.01 102.82,132.981 C103.1,133.278 103.42,133.58 103.76,133.88 C103.753,133.883 103.744,133.887 103.744,133.896 L103.744,138.006"/>
    <path fill="#434A4F" d="M103.744,140.89 C103.191,140.89 102.744,140.443 102.744,139.89 L102.744,133.896 C102.744,133.343 103.191,132.896 103.744,132.896 C104.296,132.896 104.744,133.343 104.744,133.896 L104.744,139.89 C104.744,140.443 104.296,140.89 103.744,140.89"/>
    <path fill="#434A4F" d="M117.139,140.78 C116.586,140.78 116.139,140.333 116.139,139.78 L116.139,133.084 L116.437,132.79 C116.693,132.539 117.469,131.774 117.645,131.305 L120.498,125.479 L123.486,123.984 L124.118,120.848 C124.104,120.718 124.038,120.632 123.995,120.588 C123.946,120.537 123.839,120.453 123.676,120.453 L121.873,120.453 L122.076,119.282 C122.313,117.918 122.433,116.697 122.433,115.653 L122.433,115.054 C122.445,113.396 122.083,111.73 121.386,110.229 C121.318,110.077 121.251,109.936 121.182,109.796 C120.391,108.201 119.231,106.773 117.828,105.668 C115.705,103.994 113.151,103.099 110.443,103.081 C107.3,103.083 104.3,104.307 101.998,106.594 C99.638,108.938 98.285,112.163 98.285,115.441 L98.285,115.653 C98.285,116.719 98.388,117.948 98.592,119.304 L98.764,120.453 L97.064,120.453 C96.827,120.453 96.627,120.621 96.581,120.844 L97.482,123.996 L100.107,125.512 L102.819,131.247 C103.145,132.111 104.747,133.415 105.807,134.277 C106.141,134.549 106.459,134.807 106.739,135.046 C107.316,135.539 108.053,135.815 108.816,135.824 L111.694,135.824 C112.247,135.824 112.694,136.271 112.694,136.824 C112.694,137.377 112.247,137.824 111.694,137.824 L108.804,137.824 C107.562,137.809 106.372,137.363 105.44,136.566 C105.171,136.338 104.866,136.089 104.545,135.828 C103.1,134.652 101.461,133.32 100.978,132.024 L98.566,126.932 L95.781,125.324 L94.57,120.947 C94.57,119.777 95.38,118.792 96.469,118.524 C96.346,117.486 96.285,116.524 96.285,115.653 L96.285,115.441 C96.285,111.633 97.853,107.891 100.588,105.175 C103.271,102.509 106.818,101.079 110.457,101.081 C113.614,101.102 116.59,102.145 119.066,104.097 C120.7,105.384 122.051,107.049 122.974,108.909 C123.054,109.071 123.13,109.233 123.205,109.396 C124.02,111.154 124.447,113.116 124.433,115.061 L124.433,115.653 C124.433,116.513 124.361,117.472 124.219,118.512 C124.676,118.616 125.094,118.848 125.429,119.194 C125.893,119.672 126.138,120.301 126.12,120.966 L126.1,121.135 L125.253,125.336 L121.996,126.966 L119.479,132.097 C119.263,132.685 118.728,133.315 118.139,133.917 L118.139,139.78 C118.139,140.333 117.692,140.78 117.139,140.78"/>
    <polyline fill="#434A4F" points="90.132 146.447 89.529 144.541 98.785 141.613 101.272 137.004 103.543 137.004 103.543 139.004 102.465 139.004 100.16 143.275 90.132 146.447"/>
    <path fill="#434A4F" d="M110.575,144.923 L103.26,140.826 C102.778,140.556 102.606,139.947 102.876,139.466 C103.145,138.984 103.753,138.809 104.237,139.082 L110.575,142.63 L116.652,139.227 C117.133,138.955 117.744,139.13 118.012,139.611 C118.283,140.092 118.111,140.702 117.628,140.971 L110.575,144.923"/>
    <polyline fill="#434A4F" points="124.767 144.568 120.976 143.315 118.343 139.004 117.235 139.004 117.235 137.004 119.466 137.004 122.3 141.647 125.394 142.67 124.767 144.568"/>
    <path fill="#434A4F" d="M106.578,150.105 C106.339,150.105 106.1,150.02 105.909,149.848 C105.499,149.479 105.465,148.846 105.834,148.436 L110.594,143.147 L113.966,147.094 C114.325,147.514 114.275,148.145 113.855,148.505 C113.436,148.861 112.805,148.813 112.445,148.393 L110.555,146.18 L107.321,149.774 C107.124,149.994 106.851,150.105 106.578,150.105"/>
    <polygon fill="#434A4F" points="38.025 78.731 40.025 78.731 40.025 74.731 38.025 74.731"/>
    <polygon fill="#434A4F" points="38.025 88.731 40.025 88.731 40.025 84.731 38.025 84.731"/>
    <polygon fill="#434A4F" points="42.025 82.731 46.025 82.731 46.025 80.731 42.025 80.731"/>
    <polygon fill="#434A4F" points="32.025 82.731 36.025 82.731 36.025 80.731 32.025 80.731"/>
  </g>
</svg>
