<svg xmlns="http://www.w3.org/2000/svg" width="250" height="250" viewBox="0 0 250 250">
  <g fill="none" fill-rule="evenodd">
    <polyline fill="#DEDEDD" points="188.064 159.732 61.936 159.732 58.934 155.731 191.066 155.731 188.064 159.732"/>
    <path fill="#48515A" d="M75.939,149.755 L173.939,149.755 L173.939,88.755 C173.939,87.101 172.593,85.755 170.939,85.755 L78.939,85.755 C77.285,85.755 75.939,87.101 75.939,88.755 L75.939,149.755 Z M175.939,151.755 L73.939,151.755 L73.939,88.755 C73.939,85.999 76.182,83.755 78.939,83.755 L170.939,83.755 C173.696,83.755 175.939,85.999 175.939,88.755 L175.939,151.755 Z"/>
    <polygon fill="#5FE0ED" points="77.939 147.755 171.939 147.755 171.939 87.755 77.939 87.755"/>
    <path fill="#48515A" d="M186.945,160.73 L62.933,160.73 C60.176,160.73 57.933,158.487 57.933,155.73 L57.933,154.994 L74.642,149.8 L75.236,151.71 L60.018,156.44 C60.337,157.752 61.523,158.73 62.933,158.73 L186.945,158.73 C188.354,158.73 189.54,157.752 189.86,156.44 L174.642,151.71 L175.236,149.8 L191.945,154.994 L191.945,155.73 C191.945,158.487 189.702,160.73 186.945,160.73"/>
    <polygon fill="#48515A" points="213 158.244 215 158.244 215 154.244 213 154.244"/>
    <polygon fill="#48515A" points="213 168.244 215 168.244 215 164.244 213 164.244"/>
    <polygon fill="#48515A" points="217 162.244 221 162.244 221 160.244 217 160.244"/>
    <polygon fill="#48515A" points="207 162.244 211 162.244 211 160.244 207 160.244"/>
    <polygon fill="#48515A" points="34.999 90.232 36.999 90.232 36.999 86.232 34.999 86.232"/>
    <polygon fill="#48515A" points="34.999 100.232 36.999 100.232 36.999 96.232 34.999 96.232"/>
    <polygon fill="#48515A" points="39 94.232 43 94.232 43 92.232 39 92.232"/>
    <polygon fill="#48515A" points="28.999 94.232 32.999 94.232 32.999 92.232 28.999 92.232"/>
    <polygon fill="#48515A" points="48.999 166.244 50.999 166.244 50.999 162.244 48.999 162.244"/>
    <polygon fill="#48515A" points="48.999 176.244 50.999 176.244 50.999 172.244 48.999 172.244"/>
    <polygon fill="#48515A" points="52.999 170.244 56.999 170.244 56.999 168.244 52.999 168.244"/>
    <polygon fill="#48515A" points="42.999 170.244 46.999 170.244 46.999 168.244 42.999 168.244"/>
    <path fill="#FFD15D" d="M206.875,87.755 C206.875,89.101 205.783,90.193 204.437,90.193 C203.091,90.193 202,89.101 202,87.755 C202,86.409 203.091,85.317 204.437,85.317 C205.783,85.317 206.875,86.409 206.875,87.755"/>
    <path fill="#FFD15D" d="M204.437,85.818 C203.369,85.818 202.5,86.687 202.5,87.755 C202.5,88.824 203.369,89.693 204.437,89.693 C205.505,89.693 206.375,88.824 206.375,87.755 C206.375,86.687 205.505,85.818 204.437,85.818 Z M204.437,90.693 C202.817,90.693 201.5,89.376 201.5,87.755 C201.5,86.135 202.817,84.818 204.437,84.818 C206.057,84.818 207.375,86.135 207.375,87.755 C207.375,89.376 206.057,90.693 204.437,90.693 Z"/>
    <path fill="#5FE0ED" d="M120.937,74.194 C120.937,75.54 119.846,76.631 118.5,76.631 C117.153,76.631 116.062,75.54 116.062,74.194 C116.062,72.848 117.153,71.756 118.5,71.756 C119.846,71.756 120.937,72.848 120.937,74.194"/>
    <path fill="#FFD15D" d="M102.187,171.43 C102.187,172.776 101.096,173.868 99.749,173.868 C98.403,173.868 97.312,172.776 97.312,171.43 C97.312,170.084 98.403,168.993 99.749,168.993 C101.096,168.993 102.187,170.084 102.187,171.43"/>
    <path fill="#FFD15D" d="M99.749,169.493 C98.681,169.493 97.812,170.362 97.812,171.43 C97.812,172.499 98.681,173.368 99.749,173.368 C100.818,173.368 101.687,172.499 101.687,171.43 C101.687,170.362 100.818,169.493 99.749,169.493 Z M99.749,174.368 C98.13,174.368 96.812,173.05 96.812,171.43 C96.812,169.81 98.13,168.493 99.749,168.493 C101.369,168.493 102.687,169.81 102.687,171.43 C102.687,173.05 101.369,174.368 99.749,174.368 Z"/>
    <path fill="#5FE0ED" d="M147,177.244 C147,177.796 146.552,178.244 146,178.244 C145.447,178.244 145,177.796 145,177.244 C145,176.691 145.447,176.244 146,176.244 C146.552,176.244 147,176.691 147,177.244"/>
    <path fill="#DEDEDD" d="M70.005 83.225C70.005 84.33 69.109 85.225 68.005 85.225 66.9 85.225 66.005 84.33 66.005 83.225 66.005 82.12 66.9 81.225 68.005 81.225 69.109 81.225 70.005 82.12 70.005 83.225M65.007 117.755C65.007 118.86 64.112 119.755 63.007 119.755 61.903 119.755 61.007 118.86 61.007 117.755 61.007 116.651 61.903 115.755 63.007 115.755 64.112 115.755 65.007 116.651 65.007 117.755M185 144.244C185 145.348 184.104 146.244 183 146.244 181.895 146.244 181 145.348 181 144.244 181 143.139 181.895 142.244 183 142.244 184.104 142.244 185 143.139 185 144.244M193 166.244C193 167.348 192.104 168.244 191 168.244 189.895 168.244 189 167.348 189 166.244 189 165.139 189.895 164.244 191 164.244 192.104 164.244 193 165.139 193 166.244M179 175.244C179 175.796 178.552 176.244 178 176.244 177.447 176.244 177 175.796 177 175.244 177 174.691 177.447 174.244 178 174.244 178.552 174.244 179 174.691 179 175.244M37.993 138.244C37.993 138.796 37.546 139.244 36.993 139.244 36.441 139.244 35.993 138.796 35.993 138.244 35.993 137.691 36.441 137.244 36.993 137.244 37.546 137.244 37.993 137.691 37.993 138.244"/>
    <path fill="#48515A" d="M192,99.244 C190.896,99.244 190,100.141 190,101.244 C190,102.346 190.896,103.244 192,103.244 C193.103,103.244 194,102.346 194,101.244 C194,100.141 193.103,99.244 192,99.244 Z M192,105.244 C189.794,105.244 188,103.45 188,101.244 C188,99.038 189.794,97.244 192,97.244 C194.205,97.244 196,99.038 196,101.244 C196,103.45 194.205,105.244 192,105.244 Z"/>
    <polyline fill="#48515A" points="67.007 104.224 65.007 104.224 65.007 97.223 64.007 97.223 64.007 95.223 67.007 95.223 67.007 104.224"/>
    <polygon fill="#48515A" points="64.007 105.224 68.007 105.224 68.007 103.224 64.007 103.224"/>
    <polyline fill="#48515A" points="198.699 126.245 196.699 126.245 196.699 119.243 195.699 119.243 195.699 117.243 198.699 117.243 198.699 126.245"/>
    <polygon fill="#48515A" points="195.699 127.245 199.699 127.245 199.699 125.245 195.699 125.245"/>
    <path fill="#48515A" d="M48.987 126.237C48.436 126.237 47.987 126.685 47.987 127.237L47.987 131.238C47.987 131.79 48.436 132.238 48.987 132.238 49.539 132.238 49.987 131.79 49.987 131.238L49.987 127.237C49.987 126.685 49.539 126.237 48.987 126.237zM48.987 134.238C47.333 134.238 45.987 132.892 45.987 131.238L45.987 127.237C45.987 125.583 47.333 124.237 48.987 124.237 50.642 124.237 51.987 125.583 51.987 127.237L51.987 131.238C51.987 132.892 50.642 134.238 48.987 134.238zM189 114.754C188.448 114.754 188 115.203 188 115.754L188 119.755C188 120.307 188.448 120.755 189 120.755 189.551 120.755 190 120.307 190 119.755L190 115.754C190 115.203 189.551 114.754 189 114.754zM189 122.755C187.345 122.755 186 121.41 186 119.755L186 115.754C186 114.1 187.345 112.754 189 112.754 190.654 112.754 192 114.1 192 115.754L192 119.755C192 121.41 190.654 122.755 189 122.755zM154.5 165.992C153.948 165.992 153.5 166.44 153.5 166.992L153.5 170.993C153.5 171.544 153.948 171.993 154.5 171.993 155.051 171.993 155.5 171.544 155.5 170.993L155.5 166.992C155.5 166.44 155.051 165.992 154.5 165.992zM154.5 173.993C152.845 173.993 151.5 172.647 151.5 170.993L151.5 166.992C151.5 165.337 152.845 163.992 154.5 163.992 156.154 163.992 157.5 165.337 157.5 166.992L157.5 170.993C157.5 172.647 156.154 173.993 154.5 173.993z"/>
  </g>
</svg>
