<svg xmlns="http://www.w3.org/2000/svg" width="250" height="250" viewBox="0 0 250 250">
  <g fill="none" fill-rule="evenodd">
    <path fill="#DEDEDD" d="M100.999,69.251 L104.999,69.251 L104.999,59.251 L100.999,59.251 L100.999,69.251 Z M92.999,69.251 L96.999,69.251 L96.999,59.251 L92.999,59.251 L92.999,69.251 Z M84.999,69.251 L88.999,69.251 L88.999,59.251 L84.999,59.251 L84.999,69.251 Z M76.999,69.251 L80.999,69.251 L80.999,59.251 L76.999,59.251 L76.999,69.251 Z M64.002,96.251 L117.999,96.251 L117.999,56.25 L64.002,56.25 L64.002,96.251 Z"/>
    <path fill="#DEDEDD" d="M120.999,99.25 L109,99.25 L109,105.25 L101,105.25 L101,109.249 L81,109.249 L81,105.25 L73,105.25 L73,99.25 L61.001,99.25 L61.001,53.25 L120.999,53.25 L120.999,99.25 Z M54.001,117.25 L128,117.25 L128,44.75 L54.001,44.75 L54.001,117.25 Z"/>
    <path fill="#475059" d="M77.999 68.251L79.999 68.251 79.999 60.251 77.999 60.251 77.999 68.251zM75.999 70.251L81.999 70.251 81.999 58.251 75.999 58.251 75.999 70.251zM85.999 68.251L87.999 68.251 87.999 60.251 85.999 60.251 85.999 68.251zM83.999 70.251L89.999 70.251 89.999 58.251 83.999 58.251 83.999 70.251zM93.999 68.251L95.999 68.251 95.999 60.251 93.999 60.251 93.999 68.251zM91.999 70.251L97.999 70.251 97.999 58.251 91.999 58.251 91.999 70.251zM101.999 68.251L103.999 68.251 103.999 60.251 101.999 60.251 101.999 68.251zM99.999 70.251L105.999 70.251 105.999 58.251 99.999 58.251 99.999 70.251z"/>
    <path fill="#475059" d="M82,108.249 L100,108.249 L100,104.25 L108,104.25 L108,98.25 L119.999,98.25 L119.999,54.25 L62.001,54.25 L62.001,98.25 L74,98.25 L74,104.25 L82,104.25 L82,108.249 Z M102,110.249 L80,110.249 L80,106.25 L72,106.25 L72,100.25 L60.001,100.25 L60.001,52.25 L121.999,52.25 L121.999,100.25 L110,100.25 L110,106.25 L102,106.25 L102,110.249 Z"/>
    <polygon fill="#DEDEDD" points="168.002 213.25 177.998 213.25 177.998 159.249 168.002 159.249"/>
    <polyline fill="#475059" points="181.999 213.25 179.999 213.25 179.999 160.25 166.001 160.25 166.001 213.25 164.001 213.25 164.001 158.25 181.999 158.25 181.999 213.25"/>
    <path fill="#DEDEDD" d="M183.047,68.227 L187.047,68.227 L187.047,58.227 L183.047,58.227 L183.047,68.227 Z M175.047,68.227 L179.047,68.227 L179.047,58.227 L175.047,58.227 L175.047,68.227 Z M167.047,68.227 L171.047,68.227 L171.047,58.227 L167.047,58.227 L167.047,68.227 Z M159.047,68.227 L163.047,68.227 L163.047,58.227 L159.047,58.227 L159.047,68.227 Z M150.052,96.251 L196.045,96.251 L196.045,55.242 L150.052,55.242 L150.052,96.251 Z"/>
    <polyline fill="#FFF" points="179.999 93.248 166.001 93.248 166.001 84.249 156.001 84.249 156.001 73.25 160 73.25 160 81.251 170 81.251 170 90.25 176 90.25 176 81.251 186 81.251 186 73.25 189.999 73.25 189.999 84.249 179.999 84.249 179.999 93.248"/>
    <path fill="#475059" d="M160.047 67.227L162.047 67.227 162.047 59.227 160.047 59.227 160.047 67.227zM158.047 69.227L164.047 69.227 164.047 57.227 158.047 57.227 158.047 69.227zM168.047 67.227L170.047 67.227 170.047 59.227 168.047 59.227 168.047 67.227zM166.047 69.227L172.047 69.227 172.047 57.227 166.047 57.227 166.047 69.227zM176.047 67.227L178.047 67.227 178.047 59.227 176.047 59.227 176.047 67.227zM174.047 69.227L180.047 69.227 180.047 57.227 174.047 57.227 174.047 69.227zM184.047 67.227L186.047 67.227 186.047 59.227 184.047 59.227 184.047 67.227zM182.047 69.227L188.047 69.227 188.047 57.227 182.047 57.227 182.047 69.227z"/>
    <path fill="#475059" d="M148.052,98.243 L198.044,98.243 L198.044,54.242 C198.044,53.69 197.596,53.242 197.044,53.242 L187.046,53.242 L187.046,47.242 L159.05,47.242 L159.05,53.242 L149.052,53.242 C148.5,53.242 148.052,53.69 148.052,54.242 L148.052,98.243 Z M200.044,100.243 L146.052,100.243 L146.052,54.242 C146.052,52.588 147.397,51.242 149.052,51.242 L157.05,51.242 L157.05,45.242 L189.046,45.242 L189.046,51.242 L197.044,51.242 C198.698,51.242 200.044,52.588 200.044,54.242 L200.044,100.243 Z"/>
    <path fill="#FFD15D" d="M199,160.251 L147,160.251 C144.791,160.251 143,158.46 143,156.251 L143,98.249 L203,98.249 L203,156.251 C203,158.46 201.209,160.251 199,160.251"/>
    <path fill="#475059" d="M158,100.25 L158,111.25 C158,119.521 164.729,126.25 173,126.25 C181.271,126.25 188,119.521 188,111.25 L188,100.25 L158,100.25 Z M173,128.25 C163.626,128.25 156,120.624 156,111.25 L156,98.25 L190,98.25 L190,111.25 C190,120.624 182.374,128.25 173,128.25 Z"/>
    <polygon fill="#475059" points="161.001 53.251 184.999 53.251 184.999 51.251 161.001 51.251"/>
    <path fill="#475059" d="M152,148.25 L194,148.25 L194,134.25 L152,134.25 L152,148.25 Z M150,150.25 L196,150.25 L196,132.25 L150,132.25 L150,150.25 Z"/>
    <polyline fill="#475059" points="180 94.25 166 94.25 166 85.251 156 85.251 156 73.25 158 73.25 158 83.251 168 83.251 168 92.25 178 92.25 178 83.251 188 83.251 188 73.25 190 73.25 190 85.251 180 85.251 180 94.25"/>
    <polygon fill="#48515A" points="35 149.25 37 149.25 37 145.25 35 145.25"/>
    <polygon fill="#48515A" points="35 159.25 37 159.25 37 155.25 35 155.25"/>
    <polygon fill="#48515A" points="39 153.25 43 153.25 43 151.25 39 151.25"/>
    <polygon fill="#48515A" points="29 153.25 33 153.25 33 151.25 29 151.25"/>
    <polygon fill="#48515A" points="213 177.25 215 177.25 215 173.25 213 173.25"/>
    <polygon fill="#48515A" points="213 187.25 215 187.25 215 183.25 213 183.25"/>
    <polygon fill="#48515A" points="217 181.25 221 181.25 221 179.25 217 179.25"/>
    <polygon fill="#48515A" points="207 181.25 211 181.25 211 179.25 207 179.25"/>
    <path fill="#FFD15D" d="M143,39.688 C143,41.034 141.909,42.125 140.562,42.125 C139.216,42.125 138.125,41.034 138.125,39.688 C138.125,38.341 139.216,37.25 140.562,37.25 C141.909,37.25 143,38.341 143,39.688"/>
    <path fill="#FFD15D" d="M140.563,37.75 C139.494,37.75 138.625,38.619 138.625,39.688 C138.625,40.756 139.494,41.625 140.563,41.625 C141.631,41.625 142.5,40.756 142.5,39.688 C142.5,38.619 141.631,37.75 140.563,37.75 Z M140.563,42.625 C138.942,42.625 137.625,41.308 137.625,39.688 C137.625,38.067 138.942,36.75 140.563,36.75 C142.183,36.75 143.5,38.067 143.5,39.688 C143.5,41.308 142.183,42.625 140.563,42.625 Z"/>
    <path fill="#5FE0ED" d="M111.875 139.688C111.875 141.034 110.784 142.125 109.438 142.125 108.091 142.125 107 141.034 107 139.688 107 138.341 108.091 137.25 109.438 137.25 110.784 137.25 111.875 138.341 111.875 139.688M41 66.812C41 68.159 39.909 69.25 38.562 69.25 37.216 69.25 36.125 68.159 36.125 66.812 36.125 65.466 37.216 64.375 38.562 64.375 39.909 64.375 41 65.466 41 66.812"/>
    <path fill="#DEDEDD" d="M153 187.25C153 188.355 152.105 189.25 151 189.25 149.895 189.25 149 188.355 149 187.25 149 186.145 149.895 185.25 151 185.25 152.105 185.25 153 186.145 153 187.25M135 201.25C135 202.355 134.105 203.25 133 203.25 131.895 203.25 131 202.355 131 201.25 131 200.145 131.895 199.25 133 199.25 134.105 199.25 135 200.145 135 201.25"/>
    <path fill="#48515A" d="M76,158.25 L82,158.25 L82,151.645 L80.484,150.25 L76,150.25 L76,158.25 Z M84,160.25 L74,160.25 L74,148.25 L81.266,148.25 L84,150.768 L84,160.25 Z"/>
    <polyline fill="#48515A" points="52 143.25 50 143.25 50 136.249 49 136.249 49 134.249 52 134.249 52 143.25"/>
    <polygon fill="#48515A" points="49 144.25 53 144.25 53 142.25 49 142.25"/>
    <path fill="#48515A" d="M125 130.249C124.448 130.249 124 130.697 124 131.249L124 135.25C124 135.802 124.448 136.25 125 136.25 125.552 136.25 126 135.802 126 135.25L126 131.249C126 130.697 125.552 130.249 125 130.249zM125 138.25C123.346 138.25 122 136.904 122 135.25L122 131.249C122 129.595 123.346 128.249 125 128.249 126.654 128.249 128 129.595 128 131.249L128 135.25C128 136.904 126.654 138.25 125 138.25zM109 168.25C108.448 168.25 108 168.698 108 169.25L108 173.251C108 173.803 108.448 174.251 109 174.251 109.552 174.251 110 173.803 110 173.251L110 169.25C110 168.698 109.552 168.25 109 168.25zM109 176.251C107.346 176.251 106 174.905 106 173.251L106 169.25C106 167.596 107.346 166.25 109 166.25 110.654 166.25 112 167.596 112 169.25L112 173.251C112 174.905 110.654 176.251 109 176.251z"/>
  </g>
</svg>
