<svg xmlns="http://www.w3.org/2000/svg" width="250" height="250" viewBox="0 0 250 250">
  <g fill="none" fill-rule="evenodd">
    <polyline fill="#DEDEDD" points="183.061 182.188 66.939 182.188 63.937 178.187 186.063 178.187 183.061 182.188"/>
    <path fill="#48515A" d="M83.939,133.187 L163.939,133.187 L163.939,131.187 L173.939,131.187 L173.939,70.186 C173.939,68.532 172.593,67.186 170.939,67.186 L78.939,67.186 C77.285,67.186 75.939,68.532 75.939,70.186 L75.939,131.187 L83.939,131.187 L83.939,133.187 Z M165.939,135.187 L81.939,135.187 L81.939,133.187 L73.939,133.187 L73.939,70.186 C73.939,67.43 76.182,65.186 78.939,65.186 L170.939,65.186 C173.696,65.186 175.939,67.43 175.939,70.186 L175.939,133.187 L165.939,133.187 L165.939,135.187 Z"/>
    <polygon fill="#5FE0ED" points="77.939 129.187 171.939 129.187 171.939 69.187 77.939 69.187"/>
    <path fill="#48515A" d="M181.942,183.187 L67.936,183.187 C65.179,183.187 62.936,180.943 62.936,178.187 L62.963,177.954 L73.966,131.954 L75.912,132.419 L64.938,178.296 C64.996,179.899 66.319,181.187 67.936,181.187 L181.942,181.187 C183.559,181.187 184.882,179.899 184.94,178.296 L173.966,132.419 L175.912,131.954 L186.942,178.068 L186.942,178.187 C186.942,180.943 184.699,183.187 181.942,183.187"/>
    <path fill="#DEDEDD" d="M139.939,176.187 L109.939,176.187 C109.387,176.187 108.939,175.739 108.939,175.187 L108.939,162.186 C108.939,161.634 109.387,161.186 109.939,161.186 L139.939,161.186 C140.491,161.186 140.939,161.634 140.939,162.186 L140.939,175.187 C140.939,175.739 140.491,176.187 139.939,176.187"/>
    <polygon fill="#DEDEDD" points="156.939 159.186 162.939 159.186 162.939 153.186 156.939 153.186"/>
    <polygon fill="#DEDEDD" points="148.939 159.186 154.939 159.186 154.939 153.186 148.939 153.186"/>
    <polygon fill="#DEDEDD" points="140.939 159.186 146.939 159.186 146.939 153.186 140.939 153.186"/>
    <polygon fill="#DEDEDD" points="132.939 159.186 138.939 159.186 138.939 153.186 132.939 153.186"/>
    <polygon fill="#DEDEDD" points="124.939 159.186 130.939 159.186 130.939 153.186 124.939 153.186"/>
    <polygon fill="#DEDEDD" points="116.939 159.186 122.939 159.186 122.939 153.186 116.939 153.186"/>
    <polygon fill="#DEDEDD" points="108.939 159.186 114.939 159.186 114.939 153.186 108.939 153.186"/>
    <polygon fill="#DEDEDD" points="100.939 159.186 106.939 159.186 106.939 153.186 100.939 153.186"/>
    <polygon fill="#DEDEDD" points="92.939 159.186 98.939 159.186 98.939 153.186 92.939 153.186"/>
    <polygon fill="#DEDEDD" points="84.939 159.186 90.939 159.186 90.939 153.186 84.939 153.186"/>
    <polygon fill="#DEDEDD" points="76.939 159.186 82.939 159.186 82.939 153.186 76.939 153.186"/>
    <polygon fill="#DEDEDD" points="164.939 159.186 170.939 159.186 170.939 153.186 164.939 153.186"/>
    <polygon fill="#DEDEDD" points="152.939 151.186 158.939 151.186 158.939 145.186 152.939 145.186"/>
    <polygon fill="#DEDEDD" points="144.939 151.186 150.939 151.186 150.939 145.186 144.939 145.186"/>
    <polygon fill="#DEDEDD" points="136.939 151.186 142.939 151.186 142.939 145.186 136.939 145.186"/>
    <polygon fill="#DEDEDD" points="128.939 151.186 134.939 151.186 134.939 145.186 128.939 145.186"/>
    <polygon fill="#DEDEDD" points="120.939 151.186 126.939 151.186 126.939 145.186 120.939 145.186"/>
    <polygon fill="#DEDEDD" points="112.939 151.186 118.939 151.186 118.939 145.186 112.939 145.186"/>
    <polygon fill="#DEDEDD" points="104.939 151.186 110.939 151.186 110.939 145.186 104.939 145.186"/>
    <polygon fill="#DEDEDD" points="96.939 151.186 102.939 151.186 102.939 145.186 96.939 145.186"/>
    <polygon fill="#DEDEDD" points="88.939 151.186 94.939 151.186 94.939 145.186 88.939 145.186"/>
    <polygon fill="#DEDEDD" points="80.939 151.186 86.939 151.186 86.939 145.186 80.939 145.186"/>
    <polygon fill="#DEDEDD" points="160.939 151.186 166.939 151.186 166.939 145.186 160.939 145.186"/>
    <polygon fill="#DEDEDD" points="156.939 143.186 162.939 143.186 162.939 137.186 156.939 137.186"/>
    <polygon fill="#DEDEDD" points="148.939 143.186 154.939 143.186 154.939 137.186 148.939 137.186"/>
    <polygon fill="#DEDEDD" points="140.939 143.186 146.939 143.186 146.939 137.186 140.939 137.186"/>
    <polygon fill="#DEDEDD" points="132.939 143.186 138.939 143.186 138.939 137.186 132.939 137.186"/>
    <polygon fill="#DEDEDD" points="124.939 143.186 130.939 143.186 130.939 137.186 124.939 137.186"/>
    <polygon fill="#DEDEDD" points="116.939 143.186 122.939 143.186 122.939 137.186 116.939 137.186"/>
    <polygon fill="#DEDEDD" points="108.939 143.186 114.939 143.186 114.939 137.186 108.939 137.186"/>
    <polygon fill="#DEDEDD" points="100.939 143.186 106.939 143.186 106.939 137.186 100.939 137.186"/>
    <polygon fill="#DEDEDD" points="92.939 143.186 98.939 143.186 98.939 137.186 92.939 137.186"/>
    <polygon fill="#DEDEDD" points="84.939 143.186 90.939 143.186 90.939 137.186 84.939 137.186"/>
    <polygon fill="#48515A" points="213 160.188 215 160.188 215 156.188 213 156.188"/>
    <polygon fill="#48515A" points="213 170.188 215 170.188 215 166.188 213 166.188"/>
    <polygon fill="#48515A" points="217 164.188 221 164.188 221 162.188 217 162.188"/>
    <polygon fill="#48515A" points="207 164.188 211 164.188 211 162.188 207 162.188"/>
    <polygon fill="#48515A" points="34.999 94.187 36.999 94.187 36.999 90.187 34.999 90.187"/>
    <polygon fill="#48515A" points="34.999 104.188 36.999 104.188 36.999 100.188 34.999 100.188"/>
    <polygon fill="#48515A" points="39 98.188 43 98.188 43 96.188 39 96.188"/>
    <polygon fill="#48515A" points="28.999 98.188 32.999 98.188 32.999 96.188 28.999 96.188"/>
    <polygon fill="#48515A" points="48.999 168.188 50.999 168.188 50.999 164.188 48.999 164.188"/>
    <polygon fill="#48515A" points="48.999 178.188 50.999 178.188 50.999 174.188 48.999 174.188"/>
    <polygon fill="#48515A" points="52.999 172.188 56.999 172.188 56.999 170.188 52.999 170.188"/>
    <polygon fill="#48515A" points="42.999 172.188 46.999 172.188 46.999 170.188 42.999 170.188"/>
    <path fill="#FFD15D" d="M206.875,89.699 C206.875,91.045 205.783,92.137 204.437,92.137 C203.091,92.137 202,91.045 202,89.699 C202,88.353 203.091,87.261 204.437,87.261 C205.783,87.261 206.875,88.353 206.875,89.699"/>
    <path fill="#FFD15D" d="M204.437 87.762C203.369 87.762 202.5 88.631 202.5 89.699 202.5 90.768 203.369 91.637 204.437 91.637 205.505 91.637 206.375 90.768 206.375 89.699 206.375 88.631 205.505 87.762 204.437 87.762zM204.437 92.637C202.817 92.637 201.5 91.319 201.5 89.699 201.5 88.079 202.817 86.762 204.437 86.762 206.057 86.762 207.375 88.079 207.375 89.699 207.375 91.319 206.057 92.637 204.437 92.637zM133.875 51.75C133.875 53.096 132.783 54.188 131.437 54.188 130.091 54.188 129 53.096 129 51.75 129 50.404 130.091 49.312 131.437 49.312 132.783 49.312 133.875 50.404 133.875 51.75"/>
    <path fill="#FFD15D" d="M131.437,49.813 C130.369,49.813 129.5,50.682 129.5,51.75 C129.5,52.818 130.369,53.688 131.437,53.688 C132.505,53.688 133.375,52.818 133.375,51.75 C133.375,50.682 132.505,49.813 131.437,49.813 Z M131.437,54.688 C129.817,54.688 128.5,53.37 128.5,51.75 C128.5,50.13 129.817,48.813 131.437,48.813 C133.057,48.813 134.375,50.13 134.375,51.75 C134.375,53.37 133.057,54.688 131.437,54.688 Z"/>
    <path fill="#5FE0ED" d="M120.937,76.138 C120.937,77.484 119.846,78.575 118.5,78.575 C117.153,78.575 116.062,77.484 116.062,76.138 C116.062,74.791 117.153,73.7 118.5,73.7 C119.846,73.7 120.937,74.791 120.937,76.138"/>
    <path fill="#FFD15D" d="M60.162,147.358 C60.162,148.705 59.07,149.796 57.724,149.796 C56.378,149.796 55.287,148.705 55.287,147.358 C55.287,146.012 56.378,144.921 57.724,144.921 C59.07,144.921 60.162,146.012 60.162,147.358"/>
    <path fill="#FFD15D" d="M57.724,145.421 C56.656,145.421 55.787,146.29 55.787,147.358 C55.787,148.427 56.656,149.296 57.724,149.296 C58.793,149.296 59.662,148.427 59.662,147.358 C59.662,146.29 58.793,145.421 57.724,145.421 Z M57.724,150.296 C56.104,150.296 54.787,148.979 54.787,147.358 C54.787,145.738 56.104,144.421 57.724,144.421 C59.344,144.421 60.662,145.738 60.662,147.358 C60.662,148.979 59.344,150.296 57.724,150.296 Z"/>
    <path fill="#5FE0ED" d="M151,189.188 C151,189.74 150.552,190.188 150,190.188 C149.447,190.188 149,189.74 149,189.188 C149,188.635 149.447,188.188 150,188.188 C150.552,188.188 151,188.635 151,189.188"/>
    <path fill="#DEDEDD" d="M70.005 85.169C70.005 86.273 69.109 87.169 68.005 87.169 66.9 87.169 66.005 86.273 66.005 85.169 66.005 84.064 66.9 83.169 68.005 83.169 69.109 83.169 70.005 84.064 70.005 85.169M65.007 119.699C65.007 120.803 64.112 121.699 63.007 121.699 61.903 121.699 61.007 120.803 61.007 119.699 61.007 118.594 61.903 117.699 63.007 117.699 64.112 117.699 65.007 118.594 65.007 119.699M185 146.188C185 147.292 184.104 148.188 183 148.188 181.895 148.188 181 147.292 181 146.188 181 145.083 181.895 144.188 183 144.188 184.104 144.188 185 145.083 185 146.188M203 162.188C203 163.292 202.104 164.188 201 164.188 199.895 164.188 199 163.292 199 162.188 199 161.083 199.895 160.188 201 160.188 202.104 160.188 203 161.083 203 162.188M199 175.188C199 175.74 198.552 176.188 198 176.188 197.447 176.188 197 175.74 197 175.188 197 174.635 197.447 174.188 198 174.188 198.552 174.188 199 174.635 199 175.188M37.993 140.188C37.993 140.74 37.546 141.188 36.993 141.188 36.441 141.188 35.993 140.74 35.993 140.188 35.993 139.635 36.441 139.188 36.993 139.188 37.546 139.188 37.993 139.635 37.993 140.188"/>
    <path fill="#48515A" d="M192 65.187C190.897 65.187 190 66.085 190 67.188 190 68.29 190.897 69.187 192 69.187 193.102 69.187 194 68.29 194 67.188 194 66.085 193.102 65.187 192 65.187zM192 71.188C189.793 71.188 188 69.394 188 67.188 188 64.981 189.793 63.187 192 63.187 194.206 63.187 196 64.981 196 67.188 196 69.394 194.206 71.188 192 71.188zM102 55.187C100.897 55.187 99.999 56.085 99.999 57.187 99.999 58.29 100.897 59.187 102 59.187 103.102 59.187 104 58.29 104 57.187 104 56.085 103.102 55.187 102 55.187zM102 61.187C99.794 61.187 97.999 59.394 97.999 57.187 97.999 54.981 99.794 53.187 102 53.187 104.206 53.187 106 54.981 106 57.187 106 59.394 104.206 61.187 102 61.187z"/>
    <polyline fill="#48515A" points="67.007 106.168 65.007 106.168 65.007 99.167 64.007 99.167 64.007 97.167 67.007 97.167 67.007 106.168"/>
    <polygon fill="#48515A" points="64.007 107.168 68.007 107.168 68.007 105.168 64.007 105.168"/>
    <polyline fill="#48515A" points="204 124.188 202 124.188 202 117.187 201 117.187 201 115.187 204 115.187 204 124.188"/>
    <polygon fill="#48515A" points="201 125.188 205 125.188 205 123.188 201 123.188"/>
    <polyline fill="#48515A" points="102 198.188 99.999 198.188 99.999 191.187 98.999 191.187 98.999 189.187 102 189.187 102 198.188"/>
    <polygon fill="#48515A" points="98.999 199.188 103 199.188 103 197.188 98.999 197.188"/>
    <path fill="#48515A" d="M45 129.188C44.448 129.188 43.999 129.636 43.999 130.188L43.999 134.188C43.999 134.74 44.448 135.188 45 135.188 45.551 135.188 45.999 134.74 45.999 134.188L45.999 130.188C45.999 129.636 45.551 129.188 45 129.188zM45 137.188C43.345 137.188 42 135.843 42 134.188L42 130.188C42 128.533 43.345 127.188 45 127.188 46.654 127.188 48 128.533 48 130.188L48 134.188C48 135.843 46.654 137.188 45 137.188zM187 105.188C186.448 105.188 186 105.636 186 106.188L186 110.188C186 110.74 186.448 111.188 187 111.188 187.551 111.188 188 110.74 188 110.188L188 106.188C188 105.636 187.551 105.188 187 105.188zM187 113.188C185.345 113.188 184 111.843 184 110.188L184 106.188C184 104.533 185.345 103.188 187 103.188 188.654 103.188 190 104.533 190 106.188L190 110.188C190 111.843 188.654 113.188 187 113.188zM195 185.187C194.448 185.187 194 185.635 194 186.187L194 190.188C194 190.739 194.448 191.188 195 191.188 195.551 191.188 196 190.739 196 190.188L196 186.187C196 185.635 195.551 185.187 195 185.187zM195 193.188C193.345 193.188 192 191.842 192 190.188L192 186.187C192 184.532 193.345 183.187 195 183.187 196.654 183.187 198 184.532 198 186.187L198 190.188C198 191.842 196.654 193.188 195 193.188zM113 193.187C112.448 193.187 112 193.635 112 194.187L112 198.188C112 198.739 112.448 199.188 113 199.188 113.551 199.188 114 198.739 114 198.188L114 194.187C114 193.635 113.551 193.187 113 193.187zM113 201.188C111.345 201.188 110 199.842 110 198.188L110 194.187C110 192.532 111.345 191.187 113 191.187 114.654 191.187 116 192.532 116 194.187L116 198.188C116 199.842 114.654 201.188 113 201.188z"/>
  </g>
</svg>
