<svg xmlns="http://www.w3.org/2000/svg" width="250" height="250" viewBox="0 0 250 250">
  <g fill="none" fill-rule="evenodd">
    <path fill="#475059" d="M54.75,72.999 C53.095,72.999 51.75,74.344 51.75,75.999 L51.75,168 C51.75,169.654 53.095,171 54.75,171 L194.75,171 C196.404,171 197.75,169.654 197.75,168 L197.75,75.999 C197.75,74.344 196.404,72.999 194.75,72.999 L54.75,72.999 Z M194.75,173 L54.75,173 C51.993,173 49.749,170.756 49.749,168 L49.749,75.999 C49.749,73.242 51.993,70.998 54.75,70.998 L194.75,70.998 C197.506,70.998 199.75,73.242 199.75,75.999 L199.75,168 C199.75,170.756 197.506,173 194.75,173 Z"/>
    <path fill="#475059" d="M105.749,193 L143.75,193 L143.75,192.167 L140.749,174 L140.749,173 L108.75,173 L108.737,173.995 L105.749,192.166 L105.749,193 Z M145.75,195 L103.749,195 L103.762,191.921 L106.75,173.75 L106.75,171 L142.749,171 L142.749,173.917 L145.75,192.084 L145.75,195 Z"/>
    <polygon fill="#475059" points="98.749 195 150.75 195 150.75 193 98.749 193"/>
    <polyline fill="#DEDEDD" points="107.967 191 141.529 191 138.874 175 110.599 175 107.967 191"/>
    <path fill="#DEDEDD" d="M53.749,156 L53.749,168 C53.749,168.551 54.198,169 54.75,169 L194.75,169 C195.301,169 195.75,168.551 195.75,168 L195.75,156 L53.749,156"/>
    <polygon fill="#48515A" points="35.25 111 37.25 111 37.25 107 35.25 107"/>
    <polygon fill="#48515A" points="35.25 121 37.25 121 37.25 117 35.25 117"/>
    <polygon fill="#48515A" points="39.251 115 43.251 115 43.251 113 39.251 113"/>
    <polygon fill="#48515A" points="29.25 115 33.25 115 33.25 113 29.25 113"/>
    <polygon fill="#48515A" points="212.75 177 214.75 177 214.75 173 212.75 173"/>
    <polygon fill="#48515A" points="212.75 187 214.75 187 214.75 183 212.75 183"/>
    <polygon fill="#48515A" points="216.75 181 220.75 181 220.75 179 216.75 179"/>
    <polygon fill="#48515A" points="206.75 181 210.75 181 210.75 179 206.75 179"/>
    <polygon fill="#48515A" points="212.75 113 214.75 113 214.75 109 212.75 109"/>
    <polygon fill="#48515A" points="212.75 123 214.75 123 214.75 119 212.75 119"/>
    <polygon fill="#48515A" points="216.75 117 220.75 117 220.75 115 216.75 115"/>
    <polygon fill="#48515A" points="206.75 117 210.75 117 210.75 115 206.75 115"/>
    <path fill="#FFD15D" d="M41.625,70.562 C41.625,71.908 40.533,72.999 39.187,72.999 C37.841,72.999 36.75,71.908 36.75,70.562 C36.75,69.216 37.841,68.124 39.187,68.124 C40.533,68.124 41.625,69.216 41.625,70.562"/>
    <path fill="#FFD15D" d="M39.187,68.624 C38.119,68.624 37.249,69.494 37.249,70.562 C37.249,71.63 38.119,72.499 39.187,72.499 C40.255,72.499 41.124,71.63 41.124,70.562 C41.124,69.494 40.255,68.624 39.187,68.624 Z M39.187,73.499 C37.567,73.499 36.249,72.182 36.249,70.562 C36.249,68.942 37.567,67.624 39.187,67.624 C40.807,67.624 42.124,68.942 42.124,70.562 C42.124,72.182 40.807,73.499 39.187,73.499 Z"/>
    <path fill="#5FE0ED" d="M131.625,65.437 C131.625,66.783 130.533,67.875 129.187,67.875 C127.841,67.875 126.75,66.783 126.75,65.437 C126.75,64.091 127.841,62.999 129.187,62.999 C130.533,62.999 131.625,64.091 131.625,65.437"/>
    <path fill="#DEDEDD" d="M100.75 57C100.75 58.104 99.854 58.999 98.749 58.999 97.645 58.999 96.749 58.104 96.749 57 96.749 55.895 97.645 54.999 98.749 54.999 99.854 54.999 100.75 55.895 100.75 57M172.75 185C172.75 186.104 171.854 187 170.75 187 169.645 187 168.75 186.104 168.75 185 168.75 183.895 169.645 183 170.75 183 171.854 183 172.75 183.895 172.75 185"/>
    <path fill="#48515A" d="M187.75 188C186.647 188 185.75 188.897 185.75 190 185.75 191.102 186.647 192 187.75 192 188.852 192 189.75 191.102 189.75 190 189.75 188.897 188.852 188 187.75 188zM187.75 194C185.543 194 183.75 192.206 183.75 190 183.75 187.793 185.543 186 187.75 186 189.956 186 191.75 187.793 191.75 190 191.75 192.206 189.956 194 187.75 194zM171.75 60C170.647 60 169.75 60.897 169.75 61.999 169.75 63.102 170.647 63.999 171.75 63.999 172.852 63.999 173.75 63.102 173.75 61.999 173.75 60.897 172.852 60 171.75 60zM171.75 65.999C169.543 65.999 167.75 64.206 167.75 61.999 167.75 59.794 169.543 57.999 171.75 57.999 173.956 57.999 175.75 59.794 175.75 61.999 175.75 64.206 173.956 65.999 171.75 65.999z"/>
    <polyline fill="#48515A" points="75.749 193 73.749 193 73.749 185.999 72.749 185.999 72.749 183.999 75.749 183.999 75.749 193"/>
    <polygon fill="#48515A" points="72.749 194 76.749 194 76.749 192 72.749 192"/>
    <polyline fill="#48515A" points="211.75 74.999 209.75 74.999 209.75 67.998 208.75 67.998 208.75 65.998 211.75 65.998 211.75 74.999"/>
    <polygon fill="#48515A" points="208.75 75.999 212.75 75.999 212.75 73.999 208.75 73.999"/>
    <path fill="#48515A" d="M84.749 178C84.198 178 83.749 178.448 83.749 179L83.749 183C83.749 183.552 84.198 184 84.749 184 85.301 184 85.749 183.552 85.749 183L85.749 179C85.749 178.448 85.301 178 84.749 178zM84.749 186C83.095 186 81.749 184.655 81.749 183L81.749 179C81.749 177.345 83.095 176 84.749 176 86.404 176 87.749 177.345 87.749 179L87.749 183C87.749 184.655 86.404 186 84.749 186zM214.75 91.998C214.198 91.998 213.75 92.447 213.75 92.998L213.75 96.999C213.75 97.551 214.198 97.999 214.75 97.999 215.301 97.999 215.75 97.551 215.75 96.999L215.75 92.998C215.75 92.447 215.301 91.998 214.75 91.998zM214.75 99.999C213.095 99.999 211.75 98.654 211.75 96.999L211.75 92.998C211.75 91.344 213.095 89.998 214.75 89.998 216.404 89.998 217.75 91.344 217.75 92.998L217.75 96.999C217.75 98.654 216.404 99.999 214.75 99.999z"/>
  </g>
</svg>
