<svg xmlns="http://www.w3.org/2000/svg" width="250" height="250" viewBox="0 0 250 250">
  <g fill="none" fill-rule="evenodd">
    <polygon fill="#DEDEDD" points="77.001 55.999 173.001 55.999 173.001 47.999 77.001 47.999"/>
    <path fill="#475059" d="M195.001,181 L55.001,181 C52.244,181 50.001,178.757 50.001,176 L50.001,83.999 C50.001,81.242 52.244,78.999 55.001,78.999 L77.001,78.999 L77.001,80.999 L55.001,80.999 C53.346,80.999 52.001,82.345 52.001,83.999 L52.001,176 C52.001,177.654 53.346,179 55.001,179 L195.001,179 C196.655,179 198.001,177.654 198.001,176 L198.001,83.999 C198.001,82.345 196.655,80.999 195.001,80.999 L173.001,80.999 L173.001,78.999 L195.001,78.999 C197.758,78.999 200.001,81.242 200.001,83.999 L200.001,176 C200.001,178.757 197.758,181 195.001,181"/>
    <path fill="#475059" d="M106,201.001 L144.001,201.001 L144.001,200.167 L141,182 L141,181 L109.002,181 L108.989,181.995 L106,200.166 L106,201.001 Z M146.001,203.001 L104,203.001 L104.013,199.922 L107.002,181.751 L107.002,179 L143,179 L143,181.918 L146.001,200.085 L146.001,203.001 Z"/>
    <polygon fill="#475059" points="99.001 203 151.001 203 151.001 201 99.001 201"/>
    <polyline fill="#DEDEDD" points="108.219 199.001 141.781 199.001 139.125 183 110.85 183 108.219 199.001"/>
    <path fill="#DEDEDD" d="M54.001,164 L54.001,176 C54.001,176.551 54.45,177 55.001,177 L195.001,177 C195.552,177 196.001,176.551 196.001,176 L196.001,164 L54.001,164"/>
    <polyline fill="#475059" points="174.001 164 172.001 164 172.001 48.999 78.001 48.999 78.001 164 76.001 164 76.001 46.999 174.001 46.999 174.001 164"/>
    <polyline fill="#DEDEDD" points="58 82.999 74 82.999 74 162 58 82.999"/>
    <polyline fill="#DEDEDD" points="192.071 82.999 176.071 82.999 176.071 162 192.071 82.999"/>
    <polygon fill="#48515A" points="213.002 161 215.002 161 215.002 157 213.002 157"/>
    <polygon fill="#48515A" points="213.002 171 215.002 171 215.002 167 213.002 167"/>
    <polygon fill="#48515A" points="217.002 165 221.002 165 221.002 163 217.002 163"/>
    <polygon fill="#48515A" points="207.002 165 211.002 165 211.002 163 207.002 163"/>
    <polygon fill="#48515A" points="34.998 89 36.998 89 36.998 85 34.998 85"/>
    <polygon fill="#48515A" points="34.998 99 36.998 99 36.998 95 34.998 95"/>
    <polygon fill="#48515A" points="38.998 93 42.998 93 42.998 91 38.998 91"/>
    <polygon fill="#48515A" points="28.998 93 32.998 93 32.998 91 28.998 91"/>
    <polygon fill="#48515A" points="49.001 190.013 51.001 190.013 51.001 186.013 49.001 186.013"/>
    <polygon fill="#48515A" points="49.001 200.013 51.001 200.013 51.001 196.013 49.001 196.013"/>
    <polygon fill="#48515A" points="53.001 194.013 57.001 194.013 57.001 192.013 53.001 192.013"/>
    <polygon fill="#48515A" points="43.001 194.013 47.001 194.013 47.001 192.013 43.001 192.013"/>
    <path fill="#FFD15D" d="M196.87,70.499 C196.87,71.846 195.779,72.937 194.432,72.937 C193.086,72.937 191.995,71.846 191.995,70.499 C191.995,69.153 193.086,68.062 194.432,68.062 C195.779,68.062 196.87,69.153 196.87,70.499"/>
    <path fill="#FFD15D" d="M194.432,68.561 C193.364,68.561 192.495,69.431 192.495,70.499 C192.495,71.567 193.364,72.436 194.432,72.436 C195.501,72.436 196.37,71.567 196.37,70.499 C196.37,69.431 195.501,68.561 194.432,68.561 Z M194.432,73.436 C192.813,73.436 191.495,72.119 191.495,70.499 C191.495,68.879 192.813,67.561 194.432,67.561 C196.052,67.561 197.37,68.879 197.37,70.499 C197.37,72.119 196.052,73.436 194.432,73.436 Z"/>
    <path fill="#5FE0ED" d="M67.907,57.939 C67.907,59.285 66.815,60.376 65.469,60.376 C64.123,60.376 63.031,59.285 63.031,57.939 C63.031,56.592 64.123,55.501 65.469,55.501 C66.815,55.501 67.907,56.592 67.907,57.939"/>
    <path fill="#FFD15D" d="M91.182,194.198 C91.182,195.545 90.09,196.636 88.744,196.636 C87.398,196.636 86.307,195.545 86.307,194.198 C86.307,192.852 87.398,191.761 88.744,191.761 C90.09,191.761 91.182,192.852 91.182,194.198"/>
    <path fill="#FFD15D" d="M88.744,192.261 C87.675,192.261 86.806,193.13 86.806,194.198 C86.806,195.267 87.675,196.136 88.744,196.136 C89.813,196.136 90.682,195.267 90.682,194.198 C90.682,193.13 89.813,192.261 88.744,192.261 Z M88.744,197.136 C87.124,197.136 85.806,195.818 85.806,194.198 C85.806,192.578 87.124,191.261 88.744,191.261 C90.364,191.261 91.682,192.578 91.682,194.198 C91.682,195.818 90.364,197.136 88.744,197.136 Z"/>
    <path fill="#5FE0ED" d="M176.018,196.01 C176.018,196.562 175.57,197.01 175.018,197.01 C174.466,197.01 174.018,196.562 174.018,196.01 C174.018,195.457 174.466,195.01 175.018,195.01 C175.57,195.01 176.018,195.457 176.018,196.01"/>
    <path fill="#DEDEDD" d="M70.006 85.981C70.006 87.086 69.111 87.981 68.006 87.981 66.902 87.981 66.006 87.086 66.006 85.981 66.006 84.877 66.902 83.981 68.006 83.981 69.111 83.981 70.006 84.877 70.006 85.981M185.001 56.946C185.001 58.051 184.105 58.946 183.001 58.946 181.896 58.946 181.001 58.051 181.001 56.946 181.001 55.841 181.896 54.946 183.001 54.946 184.105 54.946 185.001 55.841 185.001 56.946M216.015 195.016C216.015 196.12 215.119 197.016 214.015 197.016 212.91 197.016 212.015 196.12 212.015 195.016 212.015 193.911 212.91 193.016 214.015 193.016 215.119 193.016 216.015 193.911 216.015 195.016M39.001 122C39.001 122.552 38.553 123 38.001 123 37.448 123 37.001 122.552 37.001 122 37.001 121.448 37.448 121 38.001 121 38.553 121 39.001 121.448 39.001 122"/>
    <path fill="#48515A" d="M207.01,132.018 C205.906,132.018 205.01,132.915 205.01,134.018 C205.01,135.12 205.906,136.018 207.01,136.018 C208.113,136.018 209.01,135.12 209.01,134.018 C209.01,132.915 208.113,132.018 207.01,132.018 Z M207.01,138.018 C204.804,138.018 203.01,136.224 203.01,134.018 C203.01,131.812 204.804,130.018 207.01,130.018 C209.215,130.018 211.01,131.812 211.01,134.018 C211.01,136.224 209.215,138.018 207.01,138.018 Z"/>
    <polyline fill="#48515A" points="44.999 145 42.999 145 42.999 137.999 41.999 137.999 41.999 135.999 44.999 135.999 44.999 145"/>
    <polygon fill="#48515A" points="41.999 146 45.999 146 45.999 144 41.999 144"/>
    <path fill="#48515A" d="M37.995,168.999 C37.444,168.999 36.995,169.447 36.995,169.999 L36.995,174.001 C36.995,174.553 37.444,175.001 37.995,175.001 C38.546,175.001 38.995,174.553 38.995,174.001 L38.995,169.999 C38.995,169.447 38.546,168.999 37.995,168.999 Z M37.995,177.001 C36.341,177.001 34.995,175.655 34.995,174.001 L34.995,169.999 C34.995,168.345 36.341,166.999 37.995,166.999 C39.649,166.999 40.995,168.345 40.995,169.999 L40.995,174.001 C40.995,175.655 39.649,177.001 37.995,177.001 Z"/>
    <polyline fill="#48515A" points="176.853 198.636 174.853 198.636 174.853 191.634 173.853 191.634 173.853 189.634 176.853 189.634 176.853 198.636"/>
    <polygon fill="#48515A" points="173.853 199.636 177.853 199.636 177.853 197.636 173.853 197.636"/>
    <path fill="#48515A" d="M158.801,186.516 C158.25,186.516 157.801,186.964 157.801,187.516 L157.801,191.518 C157.801,192.069 158.25,192.518 158.801,192.518 C159.352,192.518 159.801,192.069 159.801,191.518 L159.801,187.516 C159.801,186.964 159.352,186.516 158.801,186.516 Z M158.801,194.518 C157.147,194.518 155.801,193.172 155.801,191.518 L155.801,187.516 C155.801,185.861 157.147,184.516 158.801,184.516 C160.455,184.516 161.801,185.861 161.801,187.516 L161.801,191.518 C161.801,193.172 160.455,194.518 158.801,194.518 Z"/>
  </g>
</svg>
