<svg xmlns="http://www.w3.org/2000/svg" width="250" height="250" viewBox="0 0 250 250">
  <g fill="none" fill-rule="evenodd">
    <path fill="#48515A" d="M214,60.96 C212.897,60.96 212,61.858 212,62.96 C212,64.063 212.897,64.96 214,64.96 C215.103,64.96 216,64.063 216,62.96 C216,61.858 215.103,60.96 214,60.96 Z M214,66.96 C211.794,66.96 210,65.167 210,62.96 C210,60.754 211.794,58.96 214,58.96 C216.206,58.96 218,60.754 218,62.96 C218,65.167 216.206,66.96 214,66.96 Z"/>
    <path fill="#475059" d="M54.5,45.881 C52.846,45.881 51.5,47.227 51.5,48.881 L51.5,140.882 C51.5,142.537 52.846,143.882 54.5,143.882 L194.5,143.882 C196.154,143.882 197.5,142.537 197.5,140.882 L197.5,48.881 C197.5,47.227 196.154,45.881 194.5,45.881 L54.5,45.881 Z M194.5,145.882 L54.5,145.882 C51.743,145.882 49.5,143.639 49.5,140.882 L49.5,48.881 C49.5,46.124 51.743,43.881 54.5,43.881 L194.5,43.881 C197.257,43.881 199.5,46.124 199.5,48.881 L199.5,140.882 C199.5,143.639 197.257,145.882 194.5,145.882 Z"/>
    <path fill="#475059" d="M105.5,165.883 L143.501,165.883 L143.501,165.049 L140.499,146.882 L140.499,145.882 L108.502,145.882 L108.488,146.878 L105.5,165.048 L105.5,165.883 Z M145.501,167.883 L103.5,167.883 L103.514,164.804 L106.502,146.634 L106.502,143.882 L142.499,143.882 L142.499,146.8 L145.501,164.967 L145.501,167.883 Z"/>
    <polygon fill="#475059" points="98.5 167.882 150.5 167.882 150.5 165.882 98.5 165.882"/>
    <polyline fill="#DEDEDD" points="107.718 163.883 141.28 163.883 138.624 147.882 110.35 147.882 107.718 163.883"/>
    <path fill="#DEDEDD" d="M53.5 128.882L53.5 140.882C53.5 141.434 53.949 141.882 54.5 141.882L194.5 141.882C195.052 141.882 195.5 141.434 195.5 140.882L195.5 128.882 53.5 128.882M159.464 188.04L165.464 188.04 165.464 182.04 159.464 182.04 159.464 188.04zM155.464 196.04L165.464 196.04 165.464 190.04 155.464 190.04 155.464 196.04zM159.464 204.04L165.464 204.04 165.464 198.04 159.464 198.04 159.464 204.04zM159.464 212.04L165.464 212.04 165.464 206.04 159.464 206.04 159.464 212.04zM151.464 204.04L157.464 204.04 157.464 198.04 151.464 198.04 151.464 204.04zM151.464 212.04L157.464 212.04 157.464 206.04 151.464 206.04 151.464 212.04zM143.464 204.04L149.464 204.04 149.464 198.04 143.464 198.04 143.464 204.04zM143.464 212.04L149.464 212.04 149.464 206.04 143.464 206.04 143.464 212.04zM135.464 204.04L141.464 204.04 141.464 198.04 135.464 198.04 135.464 204.04zM99.464 212.04L141.464 212.04 141.464 206.04 99.464 206.04 99.464 212.04zM91.464 212.04L97.464 212.04 97.464 206.04 91.464 206.04 91.464 212.04zM83.464 212.04L89.464 212.04 89.464 206.04 83.464 206.04 83.464 212.04zM75.464 212.04L81.464 212.04 81.464 206.04 75.464 206.04 75.464 212.04zM67.464 212.04L73.464 212.04 73.464 206.04 67.464 206.04 67.464 212.04zM67.464 204.04L77.464 204.04 77.464 198.04 67.464 198.04 67.464 204.04zM67.464 196.04L73.464 196.04 73.464 190.04 67.464 190.04 67.464 196.04zM67.464 188.04L77.464 188.04 77.464 182.04 67.464 182.04 67.464 188.04zM79.464 188.04L85.464 188.04 85.464 182.04 79.464 182.04 79.464 188.04zM87.464 188.04L93.464 188.04 93.464 182.04 87.464 182.04 87.464 188.04zM95.464 188.04L101.464 188.04 101.464 182.04 95.464 182.04 95.464 188.04zM103.464 188.04L109.464 188.04 109.464 182.04 103.464 182.04 103.464 188.04zM111.464 188.04L117.464 188.04 117.464 182.04 111.464 182.04 111.464 188.04zM119.464 188.04L125.464 188.04 125.464 182.04 119.464 182.04 119.464 188.04zM127.464 188.04L133.464 188.04 133.464 182.04 127.464 182.04 127.464 188.04zM131.464 196.04L137.464 196.04 137.464 190.04 131.464 190.04 131.464 196.04zM127.464 204.04L133.464 204.04 133.464 198.04 127.464 198.04 127.464 204.04zM123.464 196.04L129.464 196.04 129.464 190.04 123.464 190.04 123.464 196.04zM119.464 204.04L125.464 204.04 125.464 198.04 119.464 198.04 119.464 204.04zM115.464 196.04L121.464 196.04 121.464 190.04 115.464 190.04 115.464 196.04zM111.464 204.04L117.464 204.04 117.464 198.04 111.464 198.04 111.464 204.04zM107.464 196.04L113.464 196.04 113.464 190.04 107.464 190.04 107.464 196.04zM103.464 204.04L109.464 204.04 109.464 198.04 103.464 198.04 103.464 204.04zM99.464 196.04L105.464 196.04 105.464 190.04 99.464 190.04 99.464 196.04zM95.464 204.04L101.464 204.04 101.464 198.04 95.464 198.04 95.464 204.04zM91.464 196.04L97.464 196.04 97.464 190.04 91.464 190.04 91.464 196.04zM87.464 204.04L93.464 204.04 93.464 198.04 87.464 198.04 87.464 204.04zM83.464 196.04L89.464 196.04 89.464 190.04 83.464 190.04 83.464 196.04zM75.464 196.04L81.464 196.04 81.464 190.04 75.464 190.04 75.464 196.04zM79.464 204.04L85.464 204.04 85.464 198.04 79.464 198.04 79.464 204.04zM135.464 188.04L141.464 188.04 141.464 182.04 135.464 182.04 135.464 188.04zM139.464 196.04L145.464 196.04 145.464 190.04 139.464 190.04 139.464 196.04zM143.464 188.04L149.464 188.04 149.464 182.04 143.464 182.04 143.464 188.04zM147.464 196.04L153.464 196.04 153.464 190.04 147.464 190.04 147.464 196.04zM151.464 188.04L157.464 188.04 157.464 182.04 151.464 182.04 151.464 188.04zM166.464 179.04L66.464 179.04C65.36 179.04 64.464 179.935 64.464 181.04L64.464 213.04C64.464 214.144 65.36 215.04 66.464 215.04L166.464 215.04C167.569 215.04 168.464 214.144 168.464 213.04L168.464 181.04C168.464 179.935 167.569 179.04 166.464 179.04z"/>
    <path fill="#48515A" d="M66.464 180.04C65.912 180.04 65.464 180.488 65.464 181.04L65.464 213.04C65.464 213.591 65.912 214.04 66.464 214.04L166.464 214.04C167.016 214.04 167.464 213.591 167.464 213.04L167.464 181.04C167.464 180.488 167.016 180.04 166.464 180.04L66.464 180.04zM166.464 216.04L66.464 216.04C64.81 216.04 63.464 214.694 63.464 213.04L63.464 181.04C63.464 179.385 64.81 178.04 66.464 178.04L166.464 178.04C168.118 178.04 169.464 179.385 169.464 181.04L169.464 213.04C169.464 214.694 168.118 216.04 166.464 216.04zM183.501 183.907C181.847 183.907 180.501 185.252 180.501 186.907L180.501 208.907C180.501 210.561 181.847 211.907 183.501 211.907L195.5 211.907C197.154 211.907 198.5 210.561 198.5 208.907L198.5 186.907C198.5 185.252 197.154 183.907 195.5 183.907L183.501 183.907zM195.5 213.907L183.501 213.907C180.744 213.907 178.501 211.664 178.501 208.907L178.501 186.907C178.501 184.15 180.744 181.907 183.501 181.907L195.5 181.907C198.257 181.907 200.5 184.15 200.5 186.907L200.5 208.907C200.5 211.664 198.257 213.907 195.5 213.907z"/>
    <path fill="#DEDEDD" d="M195.5,185.906 L190.5,185.906 L190.5,192.906 L188.5,192.906 L188.5,185.906 L183.501,185.906 C182.949,185.906 182.501,186.355 182.501,186.906 L182.501,208.906 C182.501,209.458 182.949,209.906 183.501,209.906 L195.5,209.906 C196.051,209.906 196.5,209.458 196.5,208.906 L196.5,186.906 C196.5,186.355 196.051,185.906 195.5,185.906"/>
    <polygon fill="#48515A" points="45 187.96 47 187.96 47 183.96 45 183.96"/>
    <polygon fill="#48515A" points="45 197.96 47 197.96 47 193.96 45 193.96"/>
    <polygon fill="#48515A" points="49 191.96 53 191.96 53 189.96 49 189.96"/>
    <polygon fill="#48515A" points="39 191.96 43 191.96 43 189.96 39 189.96"/>
    <polygon fill="#48515A" points="213 155.96 215 155.96 215 151.96 213 151.96"/>
    <polygon fill="#48515A" points="213 165.96 215 165.96 215 161.96 213 161.96"/>
    <polygon fill="#48515A" points="217 159.96 221 159.96 221 157.96 217 157.96"/>
    <polygon fill="#48515A" points="207 159.96 211 159.96 211 157.96 207 157.96"/>
    <polygon fill="#48515A" points="35 83.96 37 83.96 37 79.96 35 79.96"/>
    <polygon fill="#48515A" points="35 93.96 37 93.96 37 89.96 35 89.96"/>
    <polygon fill="#48515A" points="39 87.96 43 87.96 43 85.96 39 85.96"/>
    <polygon fill="#48515A" points="29 87.96 33 87.96 33 85.96 29 85.96"/>
    <path fill="#FFD15D" d="M213.875,102.398 C213.875,103.744 212.784,104.836 211.438,104.836 C210.091,104.836 209,103.744 209,102.398 C209,101.052 210.091,99.96 211.438,99.96 C212.784,99.96 213.875,101.052 213.875,102.398"/>
    <path fill="#FFD15D" d="M211.438 100.46C210.369 100.46 209.5 101.33 209.5 102.398 209.5 103.466 210.369 104.335 211.438 104.335 212.506 104.335 213.375 103.466 213.375 102.398 213.375 101.33 212.506 100.46 211.438 100.46zM211.438 105.335C209.817 105.335 208.5 104.018 208.5 102.398 208.5 100.778 209.817 99.46 211.438 99.46 213.058 99.46 214.375 100.778 214.375 102.398 214.375 104.018 213.058 105.335 211.438 105.335zM209 41.523C209 42.869 207.909 43.96 206.562 43.96 205.216 43.96 204.125 42.869 204.125 41.523 204.125 40.177 205.216 39.085 206.562 39.085 207.909 39.085 209 40.177 209 41.523"/>
    <path fill="#FFD15D" d="M206.563,39.585 C205.494,39.585 204.625,40.455 204.625,41.523 C204.625,42.591 205.494,43.46 206.563,43.46 C207.631,43.46 208.5,42.591 208.5,41.523 C208.5,40.455 207.631,39.585 206.563,39.585 Z M206.563,44.46 C204.942,44.46 203.625,43.143 203.625,41.523 C203.625,39.903 204.942,38.585 206.563,38.585 C208.183,38.585 209.5,39.903 209.5,41.523 C209.5,43.143 208.183,44.46 206.563,44.46 Z"/>
    <path fill="#5FE0ED" d="M45,65.523 C45,66.869 43.909,67.96 42.562,67.96 C41.216,67.96 40.125,66.869 40.125,65.523 C40.125,64.177 41.216,63.085 42.562,63.085 C43.909,63.085 45,64.177 45,65.523"/>
    <path fill="#DEDEDD" d="M39 107.96C39 109.065 38.105 109.96 37 109.96 35.895 109.96 35 109.065 35 107.96 35 106.856 35.895 105.96 37 105.96 38.105 105.96 39 106.856 39 107.96M187 161.96C187 163.065 186.105 163.96 185 163.96 183.895 163.96 183 163.065 183 161.96 183 160.856 183.895 159.96 185 159.96 186.105 159.96 187 160.856 187 161.96M149 35.96C149 37.065 148.105 37.96 147 37.96 145.895 37.96 145 37.065 145 35.96 145 34.856 145.895 33.96 147 33.96 148.105 33.96 149 34.856 149 35.96"/>
    <polyline fill="#48515A" points="40 49.961 38 49.961 38 42.96 37 42.96 37 40.96 40 40.96 40 49.961"/>
    <polygon fill="#48515A" points="37 50.961 41 50.961 41 48.961 37 48.961"/>
    <polyline fill="#48515A" points="166 157.961 164 157.961 164 150.96 163 150.96 163 148.96 166 148.96 166 157.961"/>
    <polygon fill="#48515A" points="163 158.961 167 158.961 167 156.961 163 156.961"/>
    <path fill="#48515A" d="M209 128.959C208.448 128.959 208 129.408 208 129.959L208 133.96C208 134.512 208.448 134.96 209 134.96 209.552 134.96 210 134.512 210 133.96L210 129.959C210 129.408 209.552 128.959 209 128.959zM209 136.96C207.346 136.96 206 135.615 206 133.96L206 129.959C206 128.305 207.346 126.959 209 126.959 210.654 126.959 212 128.305 212 129.959L212 133.96C212 135.615 210.654 136.96 209 136.96zM77 158.96C76.448 158.96 76 159.409 76 159.96L76 163.961C76 164.513 76.448 164.961 77 164.961 77.552 164.961 78 164.513 78 163.961L78 159.96C78 159.409 77.552 158.96 77 158.96zM77 166.961C75.346 166.961 74 165.616 74 163.961L74 159.96C74 158.306 75.346 156.96 77 156.96 78.654 156.96 80 158.306 80 159.96L80 163.961C80 165.616 78.654 166.961 77 166.961z"/>
  </g>
</svg>
