<svg xmlns="http://www.w3.org/2000/svg" width="250" height="250" viewBox="0 0 250 250">
  <g fill="none" fill-rule="evenodd">
    <path fill="#475059" d="M199.001,170.509 L193,170.509 L193,168.509 L199.001,168.509 C200.656,168.509 202.001,167.163 202.001,165.509 L202.001,73.508 C202.001,71.854 200.656,70.508 199.001,70.508 L50.997,70.508 C49.343,70.508 47.997,71.854 47.997,73.508 L47.997,165.509 C47.997,167.163 49.343,168.509 50.997,168.509 L160.917,168.509 L160.917,170.509 L50.997,170.509 C48.24,170.509 45.997,168.266 45.997,165.509 L45.997,73.508 C45.997,70.751 48.24,68.508 50.997,68.508 L199.001,68.508 C201.758,68.508 204.001,70.751 204.001,73.508 L204.001,165.509 C204.001,168.266 201.758,170.509 199.001,170.509"/>
    <path fill="#475059" d="M104.999,178.503 L145,178.503 L145,170.509 L104.999,170.509 L104.999,178.503 Z M102.999,180.503 L147,180.503 L147,168.509 L102.999,168.509 L102.999,180.503 Z"/>
    <polygon fill="#475059" points="97.999 180.502 152 180.502 152 178.502 97.999 178.502"/>
    <polygon fill="#DEDEDD" points="107 176.503 143 176.503 143 172.509 107 172.509"/>
    <path fill="#475059" d="M104.999,178.503 L145,178.503 L145,170.509 L104.999,170.509 L104.999,178.503 Z M102.999,180.503 L147,180.503 L147,168.509 L102.999,168.509 L102.999,180.503 Z"/>
    <polygon fill="#475059" points="97.999 180.502 152 180.502 152 178.502 97.999 178.502"/>
    <path fill="#475059" d="M164.997,153.491 L164.997,192.491 L188.998,192.491 L188.997,153.491 L164.997,153.491 Z M188.997,194.491 L164.997,194.491 C163.894,194.491 162.997,193.594 162.997,192.491 L162.997,153.491 C162.997,152.389 163.894,151.491 164.997,151.491 L188.997,151.491 C190.099,151.491 190.997,152.389 190.997,153.491 L190.997,192.491 C190.997,193.594 190.099,194.491 188.997,194.491 Z"/>
    <path fill="#475059" d="M182.999,157.491 L170.998,157.491 C169.343,157.491 167.998,156.146 167.998,154.491 L167.998,152.495 L169.998,152.495 L169.998,154.491 C169.998,155.043 170.446,155.491 170.998,155.491 L182.999,155.491 C183.55,155.491 183.999,155.043 183.999,154.491 L183.999,152.495 L185.999,152.495 L185.999,154.491 C185.999,156.146 184.653,157.491 182.999,157.491"/>
    <path fill="#5FE0ED" d="M199.003,72.509 L50.996,72.509 C50.444,72.509 49.996,72.956 49.996,73.509 L49.996,165.509 C49.996,166.061 50.444,166.509 50.996,166.509 L161,166.509 L161,153.508 C161,151.299 162.79,149.508 165,149.508 L189,149.508 C191.209,149.508 193,151.299 193,153.508 L193,166.509 L199.003,166.509 C199.555,166.509 200.003,166.061 200.003,165.509 L200.003,73.509 C200.003,72.956 199.555,72.509 199.003,72.509"/>
    <polygon fill="#48515A" points="213 172.509 215 172.509 215 168.509 213 168.509"/>
    <polygon fill="#48515A" points="213 182.509 215 182.509 215 178.509 213 178.509"/>
    <polygon fill="#48515A" points="217 176.509 221 176.509 221 174.509 217 174.509"/>
    <polygon fill="#48515A" points="207 176.509 211 176.509 211 174.509 207 174.509"/>
    <polygon fill="#48515A" points="34.999 98.497 36.999 98.497 36.999 94.497 34.999 94.497"/>
    <polygon fill="#48515A" points="34.999 108.497 36.999 108.497 36.999 104.497 34.999 104.497"/>
    <polygon fill="#48515A" points="39 102.497 43 102.497 43 100.497 39 100.497"/>
    <polygon fill="#48515A" points="28.999 102.497 32.999 102.497 32.999 100.497 28.999 100.497"/>
    <path fill="#FFD15D" d="M213,98.946 C213,100.293 211.908,101.384 210.562,101.384 C209.216,101.384 208.124,100.293 208.124,98.946 C208.124,97.6 209.216,96.509 210.562,96.509 C211.908,96.509 213,97.6 213,98.946"/>
    <path fill="#FFD15D" d="M210.562,97.009 C209.494,97.009 208.625,97.878 208.625,98.946 C208.625,100.015 209.494,100.884 210.562,100.884 C211.63,100.884 212.5,100.015 212.5,98.946 C212.5,97.878 211.63,97.009 210.562,97.009 Z M210.562,101.884 C208.942,101.884 207.625,100.566 207.625,98.946 C207.625,97.326 208.942,96.009 210.562,96.009 C212.182,96.009 213.5,97.326 213.5,98.946 C213.5,100.566 212.182,101.884 210.562,101.884 Z"/>
    <path fill="#5FE0ED" d="M153.875,62.946 C153.875,64.293 152.783,65.384 151.437,65.384 C150.091,65.384 149,64.293 149,62.946 C149,61.6 150.091,60.509 151.437,60.509 C152.783,60.509 153.875,61.6 153.875,62.946"/>
    <path fill="#FFD15D" d="M97.875,186.946 C97.875,188.293 96.783,189.384 95.437,189.384 C94.091,189.384 92.999,188.293 92.999,186.946 C92.999,185.6 94.091,184.509 95.437,184.509 C96.783,184.509 97.875,185.6 97.875,186.946"/>
    <path fill="#FFD15D" d="M95.437,185.009 C94.369,185.009 93.499,185.878 93.499,186.946 C93.499,188.015 94.369,188.884 95.437,188.884 C96.505,188.884 97.374,188.015 97.374,186.946 C97.374,185.878 96.505,185.009 95.437,185.009 Z M95.437,189.884 C93.817,189.884 92.499,188.566 92.499,186.946 C92.499,185.326 93.817,184.009 95.437,184.009 C97.057,184.009 98.374,185.326 98.374,186.946 C98.374,188.566 97.057,189.884 95.437,189.884 Z"/>
    <path fill="#5FE0ED" d="M147,185.509 C147,186.061 146.552,186.509 146,186.509 C145.447,186.509 145,186.061 145,185.509 C145,184.956 145.447,184.509 146,184.509 C146.552,184.509 147,184.956 147,185.509"/>
    <path fill="#DEDEDD" d="M42.999 68.509C42.999 69.613 42.104 70.509 40.999 70.509 39.895 70.509 39 69.613 39 68.509 39 67.404 39.895 66.509 40.999 66.509 42.104 66.509 42.999 67.404 42.999 68.509M217 142.509C217 143.613 216.104 144.509 215 144.509 213.895 144.509 213 143.613 213 142.509 213 141.404 213.895 140.509 215 140.509 216.104 140.509 217 141.404 217 142.509M82.999 178.509C82.999 179.613 82.104 180.509 80.999 180.509 79.895 180.509 78.999 179.613 78.999 178.509 78.999 177.404 79.895 176.509 80.999 176.509 82.104 176.509 82.999 177.404 82.999 178.509M127 190.509C127 191.613 126.104 192.509 125 192.509 123.895 192.509 123 191.613 123 190.509 123 189.404 123.895 188.509 125 188.509 126.104 188.509 127 189.404 127 190.509M180.997 164.491L184.997 164.491 184.997 160.491 180.997 160.491 180.997 164.491zM180.997 170.491L184.997 170.491 184.997 166.491 180.997 166.491 180.997 170.491zM180.997 176.491L184.997 176.491 184.997 172.491 180.997 172.491 180.997 176.491zM180.997 182.491L184.997 182.491 184.997 178.491 180.997 178.491 180.997 182.491zM180.997 188.491L184.997 188.491 184.997 184.491 180.997 184.491 180.997 188.491zM178.997 184.491L178.997 188.491 174.997 188.491 174.997 184.491 177.91 184.491C177.402 184.443 177 184.029 177 183.509 177 182.957 177.447 182.509 178 182.509 178.552 182.509 179 182.957 179 183.509 179 184.029 178.597 184.443 178.089 184.491L178.997 184.491zM168.997 164.491L172.997 164.491 172.997 160.491 168.997 160.491 168.997 164.491zM168.997 170.491L172.997 170.491 172.997 166.491 168.997 166.491 168.997 170.491zM168.997 176.491L172.997 176.491 172.997 172.491 168.997 172.491 168.997 176.491zM168.997 182.491L172.997 182.491 172.997 178.491 168.997 178.491 168.997 182.491zM168.997 188.491L172.997 188.491 172.997 184.491 168.997 184.491 168.997 188.491zM174.997 182.491L178.997 182.491 178.997 178.491 174.997 178.491 174.997 182.491zM174.997 176.491L178.997 176.491 178.997 172.491 174.997 172.491 174.997 176.491zM174.997 170.491L178.997 170.491 178.997 166.491 174.997 166.491 174.997 170.491zM174.997 164.491L178.997 164.491 178.997 160.491 174.997 160.491 174.997 164.491zM166.997 190.491L186.997 190.491 186.997 158.491 166.997 158.491 166.997 190.491zM37.993 146.509C37.993 147.061 37.546 147.509 36.993 147.509 36.441 147.509 35.993 147.061 35.993 146.509 35.993 145.956 36.441 145.509 36.993 145.509 37.546 145.509 37.993 145.956 37.993 146.509"/>
    <path fill="#48515A" d="M118 57.509C116.896 57.509 116 58.406 116 59.509 116 60.611 116.896 61.509 118 61.509 119.103 61.509 120 60.611 120 59.509 120 58.406 119.103 57.509 118 57.509zM118 63.509C115.794 63.509 114 61.715 114 59.509 114 57.303 115.794 55.509 118 55.509 120.205 55.509 122 57.303 122 59.509 122 61.715 120.205 63.509 118 63.509zM198 185.985L198 191.032 204.307 188.509 198 185.985zM196 193.985L196 183.032 209.692 188.509 196 193.985z"/>
    <path fill="#DEDEDD" d="M51,184.509 C51,185.613 50.104,186.509 48.999,186.509 C47.895,186.509 46.999,185.613 46.999,184.509 C46.999,183.404 47.895,182.509 48.999,182.509 C50.104,182.509 51,183.404 51,184.509"/>
  </g>
</svg>
