<svg xmlns="http://www.w3.org/2000/svg" width="250" height="250" viewBox="0 0 250 250">
  <g fill="none" fill-rule="evenodd">
    <path fill="#475059" d="M194,176.994 L55.999,176.994 C53.243,176.994 51,174.751 51,171.994 L51,141.994 L52.999,141.994 L52.999,171.994 C52.999,173.649 54.345,174.994 55.999,174.994 L194,174.994 C195.654,174.994 197,173.649 197,171.994 L197,141.994 L199,141.994 L199,171.994 C199,174.751 196.756,176.994 194,176.994"/>
    <path fill="#475059" d="M199,159.994 L197,159.994 L197,129.994 C197,128.34 195.654,126.994 194,126.994 L55.999,126.994 C54.345,126.994 52.999,128.34 52.999,129.994 L52.999,159.994 L51,159.994 L51,129.994 C51,127.238 53.243,124.994 55.999,124.994 L194,124.994 C196.756,124.994 199,127.238 199,129.994 L199,159.994"/>
    <path fill="#475059" d="M171 124.994L175 124.994 175 77.994C175 76.892 174.103 75.994 173 75.994 171.896 75.994 171 76.892 171 77.994L171 124.994zM177 126.994L169 126.994 169 77.994C169 75.788 170.794 73.994 173 73.994 175.205 73.994 177 75.788 177 77.994L177 126.994zM74.999 124.994L78.999 124.994 78.999 77.994C78.999 76.892 78.102 75.994 76.999 75.994 75.896 75.994 74.999 76.892 74.999 77.994L74.999 124.994zM80.999 126.994L72.999 126.994 72.999 77.994C72.999 75.788 74.794 73.994 76.999 73.994 79.205 73.994 80.999 75.788 80.999 77.994L80.999 126.994zM81.949 73.044C79.22 70.316 74.779 70.316 72.05 73.044L70.636 71.63C74.145 68.12 79.854 68.12 83.363 71.63L81.949 73.044"/>
    <path fill="#475059" d="M84.778,70.216 C80.489,65.927 73.51,65.927 69.221,70.216 L67.807,68.802 C72.876,63.734 81.123,63.734 86.192,68.802 L84.778,70.216"/>
    <path fill="#475059" d="M87.606,67.388 C84.773,64.555 81.006,62.994 76.999,62.994 C72.993,62.994 69.226,64.555 66.393,67.388 L64.979,65.974 C68.189,62.763 72.459,60.994 76.999,60.994 C81.54,60.994 85.81,62.763 89.02,65.974 L87.606,67.388"/>
    <path fill="#475059" d="M90.435,64.559 C83.026,57.153 70.973,57.153 63.564,64.559 L62.15,63.145 C70.338,54.957 83.661,54.957 91.849,63.145 L90.435,64.559"/>
    <path fill="#475059" d="M93.263 61.731C84.295 52.764 69.704 52.764 60.736 61.731L59.322 60.317C69.069 50.569 84.93 50.569 94.677 60.317L93.263 61.731M177.919 73.044C175.191 70.317 170.75 70.316 168.02 73.044L166.605 71.63C170.114 68.121 175.825 68.12 179.333 71.63L177.919 73.044"/>
    <path fill="#475059" d="M180.748,70.216 C178.67,68.138 175.908,66.994 172.969,66.994 C170.031,66.994 167.269,68.138 165.191,70.216 L163.777,68.802 C166.232,66.347 169.497,64.994 172.969,64.994 C176.442,64.994 179.707,66.347 182.162,68.802 L180.748,70.216"/>
    <path fill="#475059" d="M183.576,67.388 C180.743,64.555 176.976,62.994 172.969,62.994 C168.963,62.994 165.196,64.555 162.363,67.388 L160.949,65.974 C164.16,62.763 168.429,60.994 172.969,60.994 C177.51,60.994 181.779,62.763 184.99,65.974 L183.576,67.388"/>
    <path fill="#475059" d="M186.405,64.559 C178.996,57.153 166.942,57.153 159.534,64.559 L158.12,63.145 C166.308,54.958 179.631,54.957 187.819,63.145 L186.405,64.559"/>
    <path fill="#475059" d="M189.233,61.731 C180.265,52.764 165.674,52.764 156.706,61.731 L155.292,60.317 C165.039,50.57 180.9,50.569 190.647,60.317 L189.233,61.731"/>
    <path fill="#DEDEDD" d="M183,159.994 L189,159.994 L189,153.994 L183,153.994 L183,159.994 Z M173,159.994 L179,159.994 L179,153.994 L173,153.994 L173,159.994 Z M163,159.994 L169,159.994 L169,153.994 L163,153.994 L163,159.994 Z M194,140.994 L55.999,140.994 C55.448,140.994 54.999,141.443 54.999,141.994 L54.999,171.994 C54.999,172.546 55.448,172.994 55.999,172.994 L194,172.994 C194.551,172.994 195,172.546 195,171.994 L195,141.994 C195,141.443 194.551,140.994 194,140.994 Z"/>
    <path fill="#475059" d="M164 158.994L168 158.994 168 154.994 164 154.994 164 158.994zM162 160.994L170 160.994 170 152.994 162 152.994 162 160.994zM174 158.994L178 158.994 178 154.994 174 154.994 174 158.994zM172 160.994L180 160.994 180 152.994 172 152.994 172 160.994zM184 158.994L188 158.994 188 154.994 184 154.994 184 158.994zM182 160.994L190 160.994 190 152.994 182 152.994 182 160.994z"/>
    <polygon fill="#48515A" points="213 150.994 215 150.994 215 146.994 213 146.994"/>
    <polygon fill="#48515A" points="213 160.994 215 160.994 215 156.994 213 156.994"/>
    <polygon fill="#48515A" points="217 154.994 221 154.994 221 152.994 217 152.994"/>
    <polygon fill="#48515A" points="207 154.994 211 154.994 211 152.994 207 152.994"/>
    <polygon fill="#48515A" points="34.999 82.983 36.999 82.983 36.999 78.983 34.999 78.983"/>
    <polygon fill="#48515A" points="34.999 92.983 36.999 92.983 36.999 88.983 34.999 88.983"/>
    <polygon fill="#48515A" points="39 86.983 43 86.983 43 84.983 39 84.983"/>
    <polygon fill="#48515A" points="28.999 86.983 32.999 86.983 32.999 84.983 28.999 84.983"/>
    <polygon fill="#48515A" points="46.999 178.994 48.999 178.994 48.999 174.994 46.999 174.994"/>
    <polygon fill="#48515A" points="46.999 188.994 48.999 188.994 48.999 184.994 46.999 184.994"/>
    <polygon fill="#48515A" points="51 182.994 55 182.994 55 180.994 51 180.994"/>
    <polygon fill="#48515A" points="40.999 182.994 44.999 182.994 44.999 180.994 40.999 180.994"/>
    <path fill="#FFD15D" d="M197.875,89.432 C197.875,90.778 196.783,91.869 195.437,91.869 C194.091,91.869 193,90.778 193,89.432 C193,88.086 194.091,86.994 195.437,86.994 C196.783,86.994 197.875,88.086 197.875,89.432"/>
    <path fill="#FFD15D" d="M195.437,87.494 C194.369,87.494 193.5,88.363 193.5,89.432 C193.5,90.5 194.369,91.369 195.437,91.369 C196.505,91.369 197.375,90.5 197.375,89.432 C197.375,88.363 196.505,87.494 195.437,87.494 Z M195.437,92.369 C193.817,92.369 192.5,91.052 192.5,89.432 C192.5,87.812 193.817,86.494 195.437,86.494 C197.057,86.494 198.375,87.812 198.375,89.432 C198.375,91.052 197.057,92.369 195.437,92.369 Z"/>
    <path fill="#5FE0ED" d="M99.875,112.557 C99.875,113.903 98.783,114.994 97.437,114.994 C96.091,114.994 94.999,113.903 94.999,112.557 C94.999,111.211 96.091,110.119 97.437,110.119 C98.783,110.119 99.875,111.211 99.875,112.557"/>
    <path fill="#FFD15D" d="M81.875,189.432 C81.875,190.778 80.783,191.87 79.437,191.87 C78.091,191.87 76.999,190.778 76.999,189.432 C76.999,188.086 78.091,186.994 79.437,186.994 C80.783,186.994 81.875,188.086 81.875,189.432"/>
    <path fill="#FFD15D" d="M79.437,187.494 C78.369,187.494 77.499,188.364 77.499,189.432 C77.499,190.5 78.369,191.369 79.437,191.369 C80.505,191.369 81.374,190.5 81.374,189.432 C81.374,188.364 80.505,187.494 79.437,187.494 Z M79.437,192.369 C77.817,192.369 76.499,191.052 76.499,189.432 C76.499,187.812 77.817,186.494 79.437,186.494 C81.057,186.494 82.374,187.812 82.374,189.432 C82.374,191.052 81.057,192.369 79.437,192.369 Z"/>
    <path fill="#5FE0ED" d="M113,191.994 C113,192.547 112.552,192.994 112,192.994 C111.447,192.994 111,192.547 111,191.994 C111,191.442 111.447,190.994 112,190.994 C112.552,190.994 113,191.442 113,191.994"/>
    <path fill="#DEDEDD" d="M153 82.994C153 84.099 152.104 84.994 151 84.994 149.895 84.994 149 84.099 149 82.994 149 81.89 149.895 80.994 151 80.994 152.104 80.994 153 81.89 153 82.994M213 96.994C213 98.099 212.104 98.994 211 98.994 209.895 98.994 209 98.099 209 96.994 209 95.89 209.895 94.994 211 94.994 212.104 94.994 213 95.89 213 96.994M139 186.994C139 188.099 138.104 188.994 137 188.994 135.895 188.994 135 188.099 135 186.994 135 185.89 135.895 184.994 137 184.994 138.104 184.994 139 185.89 139 186.994M207 174.994C207 176.099 206.104 176.994 205 176.994 203.895 176.994 203 176.099 203 174.994 203 173.89 203.895 172.994 205 172.994 206.104 172.994 207 173.89 207 174.994M145 195.994C145 196.547 144.552 196.994 144 196.994 143.447 196.994 143 196.547 143 195.994 143 195.442 143.447 194.994 144 194.994 144.552 194.994 145 195.442 145 195.994M37.993 130.994C37.993 131.547 37.546 131.994 36.993 131.994 36.441 131.994 35.993 131.547 35.993 130.994 35.993 130.442 36.441 129.994 36.993 129.994 37.546 129.994 37.993 130.442 37.993 130.994"/>
    <path fill="#48515A" d="M120,97.994 C118.896,97.994 118,98.892 118,99.994 C118,101.097 118.896,101.994 120,101.994 C121.103,101.994 122,101.097 122,99.994 C122,98.892 121.103,97.994 120,97.994 Z M120,103.994 C117.794,103.994 116,102.2 116,99.994 C116,97.788 117.794,95.994 120,95.994 C122.205,95.994 124,97.788 124,99.994 C124,102.2 122.205,103.994 120,103.994 Z"/>
    <polyline fill="#48515A" points="67.007 96.975 65.007 96.975 65.007 89.974 64.007 89.974 64.007 87.974 67.007 87.974 67.007 96.975"/>
    <polygon fill="#48515A" points="64.007 97.975 68.007 97.975 68.007 95.975 64.007 95.975"/>
    <polyline fill="#48515A" points="208 120.995 206 120.995 206 113.994 205 113.994 205 111.994 208 111.994 208 120.995"/>
    <polygon fill="#48515A" points="205 121.995 209 121.995 209 119.995 205 119.995"/>
    <path fill="#48515A" d="M46.999 107.994C46.448 107.994 45.999 108.443 45.999 108.994L45.999 112.995C45.999 113.547 46.448 113.995 46.999 113.995 47.551 113.995 48 113.547 48 112.995L48 108.994C48 108.443 47.551 107.994 46.999 107.994zM46.999 115.995C45.345 115.995 43.999 114.65 43.999 112.995L43.999 108.994C43.999 107.34 45.345 105.994 46.999 105.994 48.654 105.994 49.999 107.34 49.999 108.994L49.999 112.995C49.999 114.65 48.654 115.995 46.999 115.995zM189 107.505C188.448 107.505 188 107.953 188 108.505L188 112.506C188 113.058 188.448 113.506 189 113.506 189.551 113.506 190 113.058 190 112.506L190 108.505C190 107.953 189.551 107.505 189 107.505zM189 115.506C187.345 115.506 186 114.16 186 112.506L186 108.505C186 106.851 187.345 105.505 189 105.505 190.654 105.505 192 106.851 192 108.505L192 112.506C192 114.16 190.654 115.506 189 115.506zM187 185.993C186.448 185.993 186 186.442 186 186.993L186 190.994C186 191.546 186.448 191.994 187 191.994 187.551 191.994 188 191.546 188 190.994L188 186.993C188 186.442 187.551 185.993 187 185.993zM187 193.994C185.345 193.994 184 192.649 184 190.994L184 186.993C184 185.339 185.345 183.993 187 183.993 188.654 183.993 190 185.339 190 186.993L190 190.994C190 192.649 188.654 193.994 187 193.994z"/>
  </g>
</svg>
