<svg xmlns="http://www.w3.org/2000/svg" width="250" height="250" viewBox="0 0 250 250">
  <g fill="none" fill-rule="evenodd">
    <path fill="#475059" d="M41,59.477 C40.449,59.477 40,59.926 40,60.477 L40,106.479 C40,107.03 40.449,107.479 41,107.479 L111,107.479 C111.551,107.479 112,107.03 112,106.479 L112,60.477 C112,59.926 111.551,59.477 111,59.477 L41,59.477 Z M111,109.479 L41,109.479 C39.346,109.479 38,108.133 38,106.479 L38,60.477 C38,58.823 39.346,57.477 41,57.477 L111,57.477 C112.654,57.477 114,58.823 114,60.477 L114,106.479 C114,108.133 112.654,109.479 111,109.479 Z"/>
    <path fill="#475059" d="M67.02,118.479 L84.98,118.479 L83.499,109.479 L68.501,109.479 L67.02,118.479 Z M87.001,120.479 L64.999,120.479 L65.013,118.358 L66.501,109.313 L66.501,107.479 L85.499,107.479 L85.499,109.396 L87.001,118.521 L87.001,120.479 Z"/>
    <polygon fill="#475059" points="63 120.479 89 120.479 89 118.479 63 118.479"/>
    <path fill="#DEDEDD" d="M42.002,100.478 L42.002,104.979 C42.002,105.255 42.226,105.479 42.502,105.479 L109.499,105.479 C109.775,105.479 109.999,105.255 109.999,104.979 L109.999,100.478 L42.002,100.478"/>
    <polyline fill="#DEDEDD" points="69.376 116.479 82.62 116.479 81.79 111.479 70.198 111.479 69.376 116.479"/>
    <path fill="#475059" d="M139,131.521 C138.448,131.521 138,131.97 138,132.521 L138,178.521 C138,179.073 138.448,179.521 139,179.521 L209,179.521 C209.552,179.521 210,179.073 210,178.521 L210,132.521 C210,131.97 209.552,131.521 209,131.521 L139,131.521 Z M209,181.521 L139,181.521 C137.346,181.521 136,180.176 136,178.521 L136,132.521 C136,130.867 137.346,129.521 139,129.521 L209,129.521 C210.654,129.521 212,130.867 212,132.521 L212,178.521 C212,180.176 210.654,181.521 209,181.521 Z"/>
    <path fill="#475059" d="M165.021,190.522 L182.979,190.522 L181.499,181.521 L166.501,181.521 L166.487,181.601 L165.021,190.522 Z M185,192.522 L163,192.522 L163.014,190.401 L164.501,181.356 L164.501,179.521 L183.499,179.521 L183.499,181.439 L185,190.563 L185,192.522 Z"/>
    <polygon fill="#475059" points="161 192.521 187 192.521 187 190.521 161 190.521"/>
    <path fill="#DEDEDD" d="M140.002,172.522 L140.002,177.022 C140.002,177.298 140.226,177.522 140.502,177.522 L207.499,177.522 C207.775,177.522 207.999,177.298 207.999,177.022 L207.999,172.522 L140.002,172.522"/>
    <polyline fill="#DEDEDD" points="167.376 188.522 180.62 188.522 179.79 183.522 168.198 183.522 167.376 188.522"/>
    <path fill="#475059" d="M170,93.449 L176,93.449 L176,87.449 L170,87.449 L170,93.449 Z M168,95.449 L178,95.449 L178,85.449 L168,85.449 L168,95.449 Z"/>
    <polygon fill="#475059" points="172 99.549 174 99.549 174 97.549 172 97.549"/>
    <polygon fill="#475059" points="172 103.549 174 103.549 174 101.549 172 101.549"/>
    <polygon fill="#475059" points="172 107.549 174 107.549 174 105.549 172 105.549"/>
    <polygon fill="#475059" points="172 111.549 174 111.549 174 109.549 172 109.549"/>
    <polygon fill="#475059" points="172 115.549 174 115.549 174 113.549 172 113.549"/>
    <polygon fill="#475059" points="172 119.549 174 119.549 174 117.549 172 117.549"/>
    <polygon fill="#475059" points="172 123.549 174 123.549 174 121.549 172 121.549"/>
    <polygon fill="#475059" points="172 127.549 174 127.549 174 125.549 172 125.549"/>
    <polygon fill="#475059" points="164.001 91.548 166.001 91.548 166.001 89.548 164.001 89.548"/>
    <polygon fill="#475059" points="160.001 91.548 162.001 91.548 162.001 89.548 160.001 89.548"/>
    <polygon fill="#475059" points="156.001 91.548 158.001 91.548 158.001 89.548 156.001 89.548"/>
    <polygon fill="#475059" points="152.001 91.548 154.001 91.548 154.001 89.548 152.001 89.548"/>
    <polygon fill="#475059" points="148.001 91.548 150.001 91.548 150.001 89.548 148.001 89.548"/>
    <polygon fill="#475059" points="144.001 91.548 146.001 91.548 146.001 89.548 144.001 89.548"/>
    <polygon fill="#475059" points="140.001 91.548 142.001 91.548 142.001 89.548 140.001 89.548"/>
    <polygon fill="#475059" points="136.001 91.548 138.001 91.548 138.001 89.548 136.001 89.548"/>
    <polygon fill="#475059" points="132.001 91.548 134.001 91.548 134.001 89.548 132.001 89.548"/>
    <polygon fill="#475059" points="128.001 91.548 130.001 91.548 130.001 89.548 128.001 89.548"/>
    <polygon fill="#475059" points="123.993 91.548 125.993 91.548 125.993 89.548 123.993 89.548"/>
    <polygon fill="#475059" points="119.993 91.548 121.993 91.548 121.993 89.548 119.993 89.548"/>
    <polygon fill="#475059" points="115.993 91.548 117.993 91.548 117.993 89.548 115.993 89.548"/>
    <path fill="#475059" d="M73.968,162.565 L79.968,162.565 L79.968,156.565 L73.968,156.565 L73.968,162.565 Z M71.968,164.565 L81.968,164.565 L81.968,154.565 L71.968,154.565 L71.968,164.565 Z"/>
    <polygon fill="#475059" points="75.968 152.467 77.968 152.467 77.968 150.467 75.968 150.467"/>
    <polygon fill="#475059" points="75.968 148.467 77.968 148.467 77.968 146.467 75.968 146.467"/>
    <polygon fill="#475059" points="75.968 144.467 77.968 144.467 77.968 142.467 75.968 142.467"/>
    <polygon fill="#475059" points="75.968 140.467 77.968 140.467 77.968 138.467 75.968 138.467"/>
    <polygon fill="#475059" points="75.968 136.467 77.968 136.467 77.968 134.467 75.968 134.467"/>
    <polygon fill="#475059" points="75.968 132.467 77.968 132.467 77.968 130.467 75.968 130.467"/>
    <polygon fill="#475059" points="75.968 128.467 77.968 128.467 77.968 126.467 75.968 126.467"/>
    <polygon fill="#475059" points="75.968 124.467 77.968 124.467 77.968 122.467 75.968 122.467"/>
    <polygon fill="#475059" points="83.967 160.467 85.967 160.467 85.967 158.467 83.967 158.467"/>
    <polygon fill="#475059" points="87.967 160.467 89.967 160.467 89.967 158.467 87.967 158.467"/>
    <polygon fill="#475059" points="91.967 160.467 93.967 160.467 93.967 158.467 91.967 158.467"/>
    <polygon fill="#475059" points="95.967 160.467 97.967 160.467 97.967 158.467 95.967 158.467"/>
    <polygon fill="#475059" points="99.967 160.467 101.967 160.467 101.967 158.467 99.967 158.467"/>
    <polygon fill="#475059" points="103.967 160.467 105.967 160.467 105.967 158.467 103.967 158.467"/>
    <polygon fill="#475059" points="107.967 160.467 109.967 160.467 109.967 158.467 107.967 158.467"/>
    <polygon fill="#475059" points="111.967 160.467 113.967 160.467 113.967 158.467 111.967 158.467"/>
    <polygon fill="#475059" points="115.967 160.467 117.967 160.467 117.967 158.467 115.967 158.467"/>
    <polygon fill="#475059" points="119.967 160.467 121.967 160.467 121.967 158.467 119.967 158.467"/>
    <polygon fill="#475059" points="123.974 160.467 125.974 160.467 125.974 158.467 123.974 158.467"/>
    <polygon fill="#475059" points="127.975 160.467 129.975 160.467 129.975 158.467 127.975 158.467"/>
    <polygon fill="#475059" points="131.975 160.467 133.975 160.467 133.975 158.467 131.975 158.467"/>
    <polygon fill="#48515A" points="35 135 37 135 37 131 35 131"/>
    <polygon fill="#48515A" points="35 145 37 145 37 141 35 141"/>
    <polygon fill="#48515A" points="39 139 43 139 43 137 39 137"/>
    <polygon fill="#48515A" points="29 139 33 139 33 137 29 137"/>
    <polygon fill="#48515A" points="213 101 215 101 215 97 213 97"/>
    <polygon fill="#48515A" points="213 111 215 111 215 107 213 107"/>
    <polygon fill="#48515A" points="217 105 221 105 221 103 217 103"/>
    <polygon fill="#48515A" points="207 105 211 105 211 103 207 103"/>
    <path fill="#FFD15D" d="M194.562,86.562 C194.562,87.667 193.667,88.562 192.562,88.562 C191.458,88.562 190.562,87.667 190.562,86.562 C190.562,85.458 191.458,84.562 192.562,84.562 C193.667,84.562 194.562,85.458 194.562,86.562"/>
    <path fill="#FFD15D" d="M192.563,85.062 C191.735,85.062 191.063,85.735 191.063,86.563 C191.063,87.39 191.735,88.062 192.563,88.062 C193.39,88.062 194.063,87.39 194.063,86.563 C194.063,85.735 193.39,85.062 192.563,85.062 Z M192.563,89.063 C191.184,89.063 190.063,87.941 190.063,86.563 C190.063,85.184 191.184,84.062 192.563,84.062 C193.941,84.062 195.063,85.184 195.063,86.563 C195.063,87.941 193.941,89.063 192.563,89.063 Z"/>
    <path fill="#5FE0ED" d="M50.562 161.438C50.562 162.542 49.667 163.438 48.562 163.438 47.458 163.438 46.562 162.542 46.562 161.438 46.562 160.333 47.458 159.438 48.562 159.438 49.667 159.438 50.562 160.333 50.562 161.438M70.562 133.438C70.562 134.542 69.667 135.438 68.562 135.438 67.458 135.438 66.562 134.542 66.562 133.438 66.562 132.333 67.458 131.438 68.562 131.438 69.667 131.438 70.562 132.333 70.562 133.438"/>
    <path fill="#FFD15D" d="M88.438,172.562 C88.438,173.115 87.99,173.562 87.438,173.562 C86.885,173.562 86.438,173.115 86.438,172.562 C86.438,172.01 86.885,171.562 87.438,171.562 C87.99,171.562 88.438,172.01 88.438,172.562"/>
    <path fill="#FFD15D" d="M87.438,172.063 C87.162,172.063 86.937,172.287 86.937,172.563 C86.937,172.838 87.162,173.063 87.438,173.063 C87.713,173.063 87.937,172.838 87.937,172.563 C87.937,172.287 87.713,172.063 87.438,172.063 Z M87.438,174.063 C86.61,174.063 85.937,173.39 85.937,172.563 C85.937,171.735 86.61,171.063 87.438,171.063 C88.265,171.063 88.938,171.735 88.938,172.563 C88.938,173.39 88.265,174.063 87.438,174.063 Z"/>
    <path fill="#DEDEDD" d="M133 73C133 74.105 132.105 75 131 75 129.895 75 129 74.105 129 73 129 71.895 129.895 71 131 71 132.105 71 133 71.895 133 73M175 71C175 72.105 174.105 73 173 73 171.895 73 171 72.105 171 71 171 69.895 171.895 69 173 69 174.105 69 175 69.895 175 71"/>
    <path fill="#48515A" d="M198,70 C196.897,70 196,70.897 196,72 C196,73.103 196.897,74 198,74 C199.103,74 200,73.103 200,72 C200,70.897 199.103,70 198,70 Z M198,76 C195.794,76 194,74.206 194,72 C194,69.794 195.794,68 198,68 C200.206,68 202,69.794 202,72 C202,74.206 200.206,76 198,76 Z"/>
    <polyline fill="#48515A" points="150 73 148 73 148 65.999 147 65.999 147 63.999 150 63.999 150 73"/>
    <polygon fill="#48515A" points="147 74 151 74 151 72 147 72"/>
    <polyline fill="#48515A" points="190 121 188 121 188 113.999 187 113.999 187 111.999 190 111.999 190 121"/>
    <polygon fill="#48515A" points="187 122 191 122 191 120 187 120"/>
    <path fill="#48515A" d="M59,140 C58.449,140 58,140.448 58,141 L58,145.001 C58,145.553 58.449,146.001 59,146.001 C59.551,146.001 60,145.553 60,145.001 L60,141 C60,140.448 59.551,140 59,140 Z M59,148.001 C57.346,148.001 56,146.655 56,145.001 L56,141 C56,139.346 57.346,138 59,138 C60.654,138 62,139.346 62,141 L62,145.001 C62,146.655 60.654,148.001 59,148.001 Z"/>
  </g>
</svg>
