<svg xmlns="http://www.w3.org/2000/svg" width="250" height="250" viewBox="0 0 250 250">
  <g fill="none" fill-rule="evenodd">
    <path fill="#DEDEDD" d="M108,70.992 L142,70.992 L142,62.992 L108,62.992 L108,70.992 Z M108,82.999 L142,82.999 L142,74.999 L108,74.999 L108,82.999 Z M108,95.007 L142,95.007 L142,87.007 L108,87.007 L108,95.007 Z M122.999,104.991 C122.999,103.886 123.894,102.991 124.999,102.991 C126.103,102.991 126.999,103.886 126.999,104.991 C126.999,106.096 126.103,106.991 124.999,106.991 C123.894,106.991 122.999,106.096 122.999,104.991 Z M108,122.975 L142,122.975 L142,114.975 L108,114.975 L108,122.975 Z M108,134.983 L142,134.983 L142,126.983 L108,126.983 L108,134.983 Z M108,146.99 L142,146.99 L142,138.99 L108,138.99 L108,146.99 Z M143.999,57.991 L106,57.991 C105.449,57.991 105,58.44 105,58.991 L105,181.009 C105,181.56 105.449,182.009 106,182.009 L143.999,182.009 C144.55,182.009 144.999,181.56 144.999,181.009 L144.999,58.991 C144.999,58.44 144.55,57.991 143.999,57.991 Z"/>
    <path fill="#475059" d="M137,187.01 L143,187.01 L143,184.009 L146.999,184.009 L146.999,58.991 C146.999,57.337 145.653,55.991 143.999,55.991 L106,55.991 C104.346,55.991 103,57.337 103,58.991 L103,184.009 L107,184.009 L107,187.01 L113,187.01 L113,184.009 L137,184.009 L137,187.01 Z M145,189.01 L135,189.01 L135,186.009 L115,186.009 L115,189.01 L105,189.01 L105,186.009 L101,186.009 L101,58.991 C101,56.234 103.244,53.991 106,53.991 L143.999,53.991 C146.755,53.991 148.999,56.234 148.999,58.991 L148.999,186.009 L145,186.009 L145,189.01 Z"/>
    <polygon fill="#DEDEDD" points="109.999 68.993 140 68.993 140 64.992 109.999 64.992"/>
    <polygon fill="#DEDEDD" points="109.999 81 140 81 140 76.999 109.999 76.999"/>
    <polygon fill="#DEDEDD" points="109.999 93.007 140 93.007 140 89.006 109.999 89.006"/>
    <polygon fill="#DEDEDD" points="109.999 144.99 140 144.99 140 140.989 109.999 140.989"/>
    <polygon fill="#DEDEDD" points="109.999 132.983 140 132.983 140 128.982 109.999 128.982"/>
    <polygon fill="#DEDEDD" points="109.999 120.976 140 120.976 140 116.975 109.999 116.975"/>
    <path fill="#DEDEDD" d="M53.967,70.992 L87.967,70.992 L87.967,62.992 L53.967,62.992 L53.967,70.992 Z M53.967,82.999 L87.967,82.999 L87.967,74.999 L53.967,74.999 L53.967,82.999 Z M53.967,95.007 L87.967,95.007 L87.967,87.007 L53.967,87.007 L53.967,95.007 Z M68.966,104.991 C68.966,103.886 69.862,102.991 70.966,102.991 C72.071,102.991 72.966,103.886 72.966,104.991 C72.966,106.096 72.071,106.991 70.966,106.991 C69.862,106.991 68.966,106.096 68.966,104.991 Z M53.967,122.975 L87.967,122.975 L87.967,114.975 L53.967,114.975 L53.967,122.975 Z M53.967,134.983 L87.967,134.983 L87.967,126.983 L53.967,126.983 L53.967,134.983 Z M53.967,146.99 L87.967,146.99 L87.967,138.99 L53.967,138.99 L53.967,146.99 Z M89.966,57.991 L51.968,57.991 C51.417,57.991 50.968,58.44 50.968,58.991 L50.968,181.009 C50.968,181.56 51.417,182.009 51.968,182.009 L89.966,182.009 C90.517,182.009 90.966,181.56 90.966,181.009 L90.966,58.991 C90.966,58.44 90.517,57.991 89.966,57.991 Z"/>
    <path fill="#475059" d="M82.967,187.01 L88.967,187.01 L88.967,184.009 L92.966,184.009 L92.966,58.991 C92.966,57.337 91.621,55.991 89.966,55.991 L51.968,55.991 C50.314,55.991 48.968,57.337 48.968,58.991 L48.968,184.009 L52.967,184.009 L52.967,187.01 L58.967,187.01 L58.967,184.009 L82.967,184.009 L82.967,187.01 Z M90.967,189.01 L80.967,189.01 L80.967,186.009 L60.967,186.009 L60.967,189.01 L50.967,189.01 L50.967,186.009 L46.968,186.009 L46.968,58.991 C46.968,56.234 49.211,53.991 51.968,53.991 L89.966,53.991 C92.723,53.991 94.966,56.234 94.966,58.991 L94.966,186.009 L90.967,186.009 L90.967,189.01 Z"/>
    <polygon fill="#DEDEDD" points="55.966 68.993 85.967 68.993 85.967 64.992 55.966 64.992"/>
    <polygon fill="#DEDEDD" points="55.966 81 85.967 81 85.967 76.999 55.966 76.999"/>
    <polygon fill="#DEDEDD" points="55.966 93.007 85.967 93.007 85.967 89.006 55.966 89.006"/>
    <polygon fill="#DEDEDD" points="55.966 144.99 85.967 144.99 85.967 140.989 55.966 140.989"/>
    <polygon fill="#DEDEDD" points="55.966 132.983 85.967 132.983 85.967 128.982 55.966 128.982"/>
    <polygon fill="#DEDEDD" points="55.966 120.976 85.967 120.976 85.967 116.975 55.966 116.975"/>
    <path fill="#DEDEDD" d="M162.032,70.992 L196.032,70.992 L196.032,62.992 L162.032,62.992 L162.032,70.992 Z M162.032,82.999 L196.032,82.999 L196.032,74.999 L162.032,74.999 L162.032,82.999 Z M162.032,95.007 L196.032,95.007 L196.032,87.007 L162.032,87.007 L162.032,95.007 Z M177.031,104.991 C177.031,103.886 177.927,102.991 179.031,102.991 C180.136,102.991 181.031,103.886 181.031,104.991 C181.031,106.096 180.136,106.991 179.031,106.991 C177.927,106.991 177.031,106.096 177.031,104.991 Z M162.032,122.975 L196.032,122.975 L196.032,114.975 L162.032,114.975 L162.032,122.975 Z M162.032,134.983 L196.032,134.983 L196.032,126.983 L162.032,126.983 L162.032,134.983 Z M162.032,146.99 L196.032,146.99 L196.032,138.99 L162.032,138.99 L162.032,146.99 Z M198.031,57.991 L160.033,57.991 C159.482,57.991 159.033,58.44 159.033,58.991 L159.033,181.009 C159.033,181.56 159.482,182.009 160.033,182.009 L198.031,182.009 C198.582,182.009 199.031,181.56 199.031,181.009 L199.031,58.991 C199.031,58.44 198.582,57.991 198.031,57.991 Z"/>
    <path fill="#475059" d="M191.032,187.01 L197.032,187.01 L197.032,184.009 L201.031,184.009 L201.031,58.991 C201.031,57.337 199.685,55.991 198.031,55.991 L160.033,55.991 C158.378,55.991 157.033,57.337 157.033,58.991 L157.033,184.009 L161.032,184.009 L161.032,187.01 L167.032,187.01 L167.032,184.009 L191.032,184.009 L191.032,187.01 Z M199.032,189.01 L189.032,189.01 L189.032,186.009 L169.032,186.009 L169.032,189.01 L159.032,189.01 L159.032,186.009 L155.033,186.009 L155.033,58.991 C155.033,56.234 157.276,53.991 160.033,53.991 L198.031,53.991 C200.788,53.991 203.031,56.234 203.031,58.991 L203.031,186.009 L199.032,186.009 L199.032,189.01 Z"/>
    <polygon fill="#DEDEDD" points="164.031 68.993 194.033 68.993 194.033 64.992 164.031 64.992"/>
    <polygon fill="#DEDEDD" points="164.031 81 194.033 81 194.033 76.999 164.031 76.999"/>
    <polygon fill="#DEDEDD" points="164.031 93.007 194.033 93.007 194.033 89.006 164.031 89.006"/>
    <polygon fill="#DEDEDD" points="164.031 144.99 194.033 144.99 194.033 140.989 164.031 140.989"/>
    <polygon fill="#DEDEDD" points="164.031 132.983 194.033 132.983 194.033 128.982 164.031 128.982"/>
    <polygon fill="#DEDEDD" points="164.031 120.976 194.033 120.976 194.033 116.975 164.031 116.975"/>
    <path fill="#475059" d="M117 198L78.999 198C75.14 198 71.999 194.859 71.999 191L71.999 188.01 73.999 188.01 73.999 191C73.999 193.757 76.243 196 78.999 196L117 196C119.756 196 122 193.757 122 191L122 187.999 124 187.999 124 191C124 194.859 120.859 198 117 198M171 198L133 198C129.14 198 126 194.859 126 191L126 188.01 128 188.01 128 191C128 193.757 130.243 196 133 196L171 196C173.756 196 176 193.757 176 191L176 187.999 178 187.999 178 191C178 194.859 174.859 198 171 198M214.998 198L187 198C183.14 198 180 194.859 180 191L180 188.01 182 188.01 182 191C182 193.757 184.243 196 187 196L214.998 196 214.998 198M62.999 198L35.001 198 35.001 196 62.999 196C65.756 196 67.999 193.757 67.999 191L67.999 187.999 69.999 187.999 69.999 191C69.999 194.859 66.859 198 62.999 198"/>
    <polygon fill="#48515A" points="213 157 215 157 215 153 213 153"/>
    <polygon fill="#48515A" points="213 167 215 167 215 163 213 163"/>
    <polygon fill="#48515A" points="217 161 221 161 221 159 217 159"/>
    <polygon fill="#48515A" points="207 161 211 161 211 159 207 159"/>
    <polygon fill="#48515A" points="34.999 167 36.999 167 36.999 163 34.999 163"/>
    <polygon fill="#48515A" points="34.999 177 36.999 177 36.999 173 34.999 173"/>
    <polygon fill="#48515A" points="39 171 43 171 43 169 39 169"/>
    <polygon fill="#48515A" points="28.999 171 32.999 171 32.999 169 28.999 169"/>
    <path fill="#FFD15D" d="M157.875,45.438 C157.875,46.784 156.783,47.875 155.437,47.875 C154.091,47.875 153,46.784 153,45.438 C153,44.091 154.091,43 155.437,43 C156.783,43 157.875,44.091 157.875,45.438"/>
    <path fill="#FFD15D" d="M155.437,43.5 C154.369,43.5 153.5,44.369 153.5,45.438 C153.5,46.506 154.369,47.375 155.437,47.375 C156.505,47.375 157.375,46.506 157.375,45.438 C157.375,44.369 156.505,43.5 155.437,43.5 Z M155.437,48.375 C153.817,48.375 152.5,47.058 152.5,45.438 C152.5,43.817 153.817,42.5 155.437,42.5 C157.057,42.5 158.375,43.817 158.375,45.438 C158.375,47.058 157.057,48.375 155.437,48.375 Z"/>
    <path fill="#5FE0ED" d="M215.875,184.562 C215.875,185.909 214.783,187 213.437,187 C212.091,187 211,185.909 211,184.562 C211,183.216 212.091,182.125 213.437,182.125 C214.783,182.125 215.875,183.216 215.875,184.562"/>
    <path fill="#FFD15D" d="M72.999,202.562 C72.999,203.909 71.908,205 70.562,205 C69.216,205 68.124,203.909 68.124,202.562 C68.124,201.216 69.216,200.125 70.562,200.125 C71.908,200.125 72.999,201.216 72.999,202.562"/>
    <path fill="#FFD15D" d="M70.562,200.625 C69.494,200.625 68.624,201.494 68.624,202.563 C68.624,203.631 69.494,204.5 70.562,204.5 C71.63,204.5 72.499,203.631 72.499,202.563 C72.499,201.494 71.63,200.625 70.562,200.625 Z M70.562,205.5 C68.942,205.5 67.624,204.183 67.624,202.563 C67.624,200.942 68.942,199.625 70.562,199.625 C72.182,199.625 73.499,200.942 73.499,202.563 C73.499,204.183 72.182,205.5 70.562,205.5 Z"/>
    <path fill="#5FE0ED" d="M155,192 C155,192.552 154.552,193 154,193 C153.447,193 153,192.552 153,192 C153,191.448 153.447,191 154,191 C154.552,191 155,191.448 155,192"/>
    <path fill="#DEDEDD" d="M211 143C211 144.105 210.104 145 209 145 207.895 145 207 144.105 207 143 207 141.895 207.895 141 209 141 210.104 141 211 141.895 211 143M98.999 51C98.999 52.105 98.104 53 96.999 53 95.895 53 94.999 52.105 94.999 51 94.999 49.895 95.895 49 96.999 49 98.104 49 98.999 49.895 98.999 51M98.999 192C98.999 192.552 98.552 193 97.999 193 97.447 193 96.999 192.552 96.999 192 96.999 191.448 97.447 191 97.999 191 98.552 191 98.999 191.448 98.999 192M36.999 110C36.999 110.552 36.552 111 36 111 35.447 111 34.999 110.552 34.999 110 34.999 109.448 35.447 109 36 109 36.552 109 36.999 109.448 36.999 110"/>
    <path fill="#48515A" d="M120,38 C118.897,38 118,38.897 118,40 C118,41.102 118.897,42 120,42 C121.102,42 122,41.102 122,40 C122,38.897 121.102,38 120,38 Z M120,44 C117.793,44 116,42.206 116,40 C116,37.794 117.793,36 120,36 C122.206,36 124,37.794 124,40 C124,42.206 122.206,44 120,44 Z"/>
    <polyline fill="#48515A" points="37.999 129 36 129 36 121.999 34.999 121.999 34.999 119.999 37.999 119.999 37.999 129"/>
    <polygon fill="#48515A" points="34.999 130 38.999 130 38.999 128 34.999 128"/>
    <polyline fill="#48515A" points="214 121 212 121 212 113.999 211 113.999 211 111.999 214 111.999 214 121"/>
    <polygon fill="#48515A" points="211 122 215 122 215 120 211 120"/>
    <path fill="#48515A" d="M40.999 57.999C40.448 57.999 39.999 58.447 39.999 58.999L39.999 63C39.999 63.552 40.448 64 40.999 64 41.551 64 42 63.552 42 63L42 58.999C42 58.447 41.551 57.999 40.999 57.999zM40.999 66C39.345 66 37.999 64.654 37.999 63L37.999 58.999C37.999 57.345 39.345 55.999 40.999 55.999 42.654 55.999 43.999 57.345 43.999 58.999L43.999 63C43.999 64.654 42.654 66 40.999 66zM211 72C210.448 72 210 72.448 210 73L210 77.001C210 77.553 210.448 78.001 211 78.001 211.551 78.001 212 77.553 212 77.001L212 73C212 72.448 211.551 72 211 72zM211 80.001C209.345 80.001 208 78.655 208 77.001L208 73C208 71.346 209.345 70 211 70 212.654 70 214 71.346 214 73L214 77.001C214 78.655 212.654 80.001 211 80.001zM119 205.999C118.448 205.999 118 206.447 118 206.999L118 211C118 211.552 118.448 212 119 212 119.551 212 120 211.552 120 211L120 206.999C120 206.447 119.551 205.999 119 205.999zM119 214C117.345 214 116 212.654 116 211L116 206.999C116 205.345 117.345 203.999 119 203.999 120.654 203.999 122 205.345 122 206.999L122 211C122 212.654 120.654 214 119 214z"/>
  </g>
</svg>
