<svg xmlns="http://www.w3.org/2000/svg" width="250" height="250" viewBox="0 0 250 250">
  <g fill="none" fill-rule="evenodd">
    <path fill="#475059" d="M54.488,56.539 C52.834,56.539 51.488,57.885 51.488,59.539 L51.488,185.062 C51.488,186.716 52.834,188.062 54.488,188.062 L132.51,188.062 C134.165,188.062 135.51,186.716 135.51,185.062 L135.51,59.539 C135.51,57.885 134.165,56.539 132.51,56.539 L54.488,56.539 Z M132.51,190.062 L54.488,190.062 C51.731,190.062 49.488,187.818 49.488,185.062 L49.488,59.539 C49.488,56.782 51.731,54.539 54.488,54.539 L132.51,54.539 C135.267,54.539 137.51,56.782 137.51,59.539 L137.51,185.062 C137.51,187.818 135.267,190.062 132.51,190.062 Z"/>
    <polygon fill="#475059" points="91.489 184.539 97.489 184.539 97.489 182.539 91.489 182.539"/>
    <polygon fill="#475059" points="91.499 62.539 93.488 62.539 93.488 60.539 91.499 60.539"/>
    <polygon fill="#5FE0ED" points="53.499 178.592 133.499 178.592 133.499 66.069 53.499 66.069"/>
    <path fill="#475059" d="M148.488,94.408 C146.834,94.408 145.488,95.754 145.488,97.408 L145.488,185.461 C145.488,187.115 146.834,188.461 148.488,188.461 L191.511,188.461 C193.165,188.461 194.511,187.115 194.511,185.461 L194.511,97.408 C194.511,95.754 193.165,94.408 191.511,94.408 L148.488,94.408 Z M191.511,190.461 L148.488,190.461 C145.731,190.461 143.488,188.218 143.488,185.461 L143.488,97.408 C143.488,94.651 145.731,92.408 148.488,92.408 L191.511,92.408 C194.268,92.408 196.511,94.651 196.511,97.408 L196.511,185.461 C196.511,188.218 194.268,190.461 191.511,190.461 Z"/>
    <polygon fill="#475059" points="167 184.938 173 184.938 173 182.938 167 182.938"/>
    <polygon fill="#475059" points="169.005 100.408 170.994 100.408 170.994 98.408 169.005 98.408"/>
    <polygon fill="#5FE0ED" points="147.499 178.992 192.5 178.992 192.5 103.939 147.499 103.939"/>
    <polygon fill="#48515A" points="211 158.5 213 158.5 213 154.5 211 154.5"/>
    <polygon fill="#48515A" points="211 168.5 213 168.5 213 164.5 211 164.5"/>
    <polygon fill="#48515A" points="215 162.5 219 162.5 219 160.5 215 160.5"/>
    <polygon fill="#48515A" points="205 162.5 209 162.5 209 160.5 205 160.5"/>
    <polygon fill="#48515A" points="36.999 90.488 38.999 90.488 38.999 86.488 36.999 86.488"/>
    <polygon fill="#48515A" points="36.999 100.488 38.999 100.488 38.999 96.488 36.999 96.488"/>
    <polygon fill="#48515A" points="40.999 94.488 44.999 94.488 44.999 92.488 40.999 92.488"/>
    <polygon fill="#48515A" points="30.999 94.488 34.999 94.488 34.999 92.488 30.999 92.488"/>
    <polygon fill="#48515A" points="39 178.5 41 178.5 41 174.5 39 174.5"/>
    <polygon fill="#48515A" points="39 188.5 41 188.5 41 184.5 39 184.5"/>
    <polygon fill="#48515A" points="42.999 182.5 46.999 182.5 46.999 180.5 42.999 180.5"/>
    <polygon fill="#48515A" points="33 182.5 37 182.5 37 180.5 33 180.5"/>
    <path fill="#FFD15D" d="M80.999,196.938 C80.999,198.284 79.908,199.375 78.562,199.375 C77.216,199.375 76.124,198.284 76.124,196.938 C76.124,195.591 77.216,194.5 78.562,194.5 C79.908,194.5 80.999,195.591 80.999,196.938"/>
    <path fill="#FFD15D" d="M78.562,195 C77.494,195 76.624,195.869 76.624,196.938 C76.624,198.006 77.494,198.875 78.562,198.875 C79.63,198.875 80.499,198.006 80.499,196.938 C80.499,195.869 79.63,195 78.562,195 Z M78.562,199.875 C76.942,199.875 75.624,198.558 75.624,196.938 C75.624,195.317 76.942,194 78.562,194 C80.182,194 81.499,195.317 81.499,196.938 C81.499,198.558 80.182,199.875 78.562,199.875 Z"/>
    <path fill="#5FE0ED" d="M107,46.938 C107,48.284 105.908,49.375 104.562,49.375 C103.216,49.375 102.124,48.284 102.124,46.938 C102.124,45.591 103.216,44.5 104.562,44.5 C105.908,44.5 107,45.591 107,46.938"/>
    <path fill="#FFD15D" d="M181.875,66.938 C181.875,68.284 180.783,69.375 179.437,69.375 C178.091,69.375 177,68.284 177,66.938 C177,65.591 178.091,64.5 179.437,64.5 C180.783,64.5 181.875,65.591 181.875,66.938"/>
    <path fill="#FFD15D" d="M179.437,65 C178.369,65 177.5,65.869 177.5,66.937 C177.5,68.006 178.369,68.875 179.437,68.875 C180.505,68.875 181.375,68.006 181.375,66.937 C181.375,65.869 180.505,65 179.437,65 Z M179.437,69.875 C177.817,69.875 176.5,68.558 176.5,66.937 C176.5,65.317 177.817,64 179.437,64 C181.057,64 182.375,65.317 182.375,66.937 C182.375,68.558 181.057,69.875 179.437,69.875 Z"/>
    <path fill="#5FE0ED" d="M171,199.5 C171,200.052 170.552,200.5 170,200.5 C169.447,200.5 169,200.052 169,199.5 C169,198.948 169.447,198.5 170,198.5 C170.552,198.5 171,198.948 171,199.5"/>
    <path fill="#DEDEDD" d="M40.999 68.5C40.999 69.605 40.104 70.5 39 70.5 37.895 70.5 36.999 69.605 36.999 68.5 36.999 67.395 37.895 66.5 39 66.5 40.104 66.5 40.999 67.395 40.999 68.5M151 84.5C151 85.605 150.104 86.5 149 86.5 147.895 86.5 147 85.605 147 84.5 147 83.395 147.895 82.5 149 82.5 150.104 82.5 151 83.395 151 84.5M193 74.5C193 75.605 192.104 76.5 191 76.5 189.895 76.5 189 75.605 189 74.5 189 73.395 189.895 72.5 191 72.5 192.104 72.5 193 73.395 193 74.5M207 140.5C207 141.605 206.104 142.5 205 142.5 203.895 142.5 203 141.605 203 140.5 203 139.395 203.895 138.5 205 138.5 206.104 138.5 207 139.395 207 140.5M177 175.5C177 176.052 176.552 176.5 176 176.5 175.447 176.5 175 176.052 175 175.5 175 174.948 175.447 174.5 176 174.5 176.552 174.5 177 174.948 177 175.5M36.993 138.5C36.993 139.605 36.098 140.5 34.993 140.5 33.889 140.5 32.993 139.605 32.993 138.5 32.993 137.395 33.889 136.5 34.993 136.5 36.098 136.5 36.993 137.395 36.993 138.5"/>
    <path fill="#48515A" d="M162,73.5 C160.896,73.5 160,74.397 160,75.5 C160,76.602 160.896,77.5 162,77.5 C163.103,77.5 164,76.602 164,75.5 C164,74.397 163.103,73.5 162,73.5 Z M162,79.5 C159.794,79.5 158,77.706 158,75.5 C158,73.294 159.794,71.5 162,71.5 C164.205,71.5 166,73.294 166,75.5 C166,77.706 164.205,79.5 162,79.5 Z"/>
    <polyline fill="#48515A" points="206 118.501 204 118.501 204 111.5 203 111.5 203 109.5 206 109.5 206 118.501"/>
    <polygon fill="#48515A" points="203 119.501 207 119.501 207 117.501 203 117.501"/>
    <polyline fill="#48515A" points="142 202.499 140 202.499 140 195.498 139 195.498 139 193.498 142 193.498 142 202.499"/>
    <polygon fill="#48515A" points="139 203.499 143 203.499 143 201.499 139 201.499"/>
    <path fill="#48515A" d="M205 187.499C204.448 187.499 204 187.947 204 188.499L204 192.5C204 193.052 204.448 193.5 205 193.5 205.551 193.5 206 193.052 206 192.5L206 188.499C206 187.947 205.551 187.499 205 187.499zM205 195.5C203.345 195.5 202 194.154 202 192.5L202 188.499C202 186.845 203.345 185.499 205 185.499 206.654 185.499 208 186.845 208 188.499L208 192.5C208 194.154 206.654 195.5 205 195.5zM127 197.499C126.448 197.499 126 197.947 126 198.499L126 202.5C126 203.052 126.448 203.5 127 203.5 127.551 203.5 128 203.052 128 202.5L128 198.499C128 197.947 127.551 197.499 127 197.499zM127 205.5C125.345 205.5 124 204.154 124 202.5L124 198.499C124 196.845 125.345 195.499 127 195.499 128.654 195.499 130 196.845 130 198.499L130 202.5C130 204.154 128.654 205.5 127 205.5z"/>
  </g>
</svg>
