<svg xmlns="http://www.w3.org/2000/svg" xmlns:xlink="http://www.w3.org/1999/xlink" width="193" height="193" viewBox="0 0 193 193">
  <defs>
    <polygon id="cc412-a" points=".03 0 192.053 0 192.053 191.94 .03 191.94"/>
  </defs>
  <g fill="none" fill-rule="evenodd">
    <polygon fill="#DEDEDD" points="4.031 39.006 31.033 39.006 31.033 32.012 4.031 32.012"/>
    <polygon fill="#DEDEDD" points="51.029 39.006 188.032 39.006 188.032 32.012 51.029 32.012"/>
    <polyline fill="#F58E70" points="94.028 153.008 166.042 153.008 166.042 121.995 94.028 122.027 94.028 153.008"/>
    <polyline fill="#475059" points="53.053 163.998 51.053 163.998 51.053 102.136 48.053 90.997 48.053 21.335 43.028 2.997 40.04 2.997 34.053 21.359 34.053 91.131 31.053 102.136 31.053 163.998 29.053 163.998 29.053 101.868 32.053 90.863 32.053 21.042 38.589 .997 44.553 .997 50.053 21.201 50.053 90.863 53.053 102.002 53.053 163.998"/>
    <path fill="#475059" d="M88.028 159.008L172.042 159.008 172.042 115.992 88.028 116.03 88.028 159.008zM174.042 161.008L86.028 161.008 86.028 114.031 174.042 113.991 174.042 161.008zM124.035 82.991L136.035 82.991 136.035 70.991 124.035 70.991 124.035 82.991zM122.035 84.991L138.035 84.991 138.035 68.991 122.035 68.991 122.035 84.991z"/>
    <path fill="#475059" d="M130.035,101.989 C126.17,101.985 123.039,98.853 123.035,94.989 L125.035,94.989 C125.035,97.751 127.273,99.989 130.035,99.989 C132.796,99.989 135.035,97.751 135.035,94.989 C135.035,92.228 132.796,89.989 130.035,89.989 L129.035,89.989 L129.035,83.991 L131.035,83.991 L131.035,88.061 C134.861,88.613 137.515,92.163 136.963,95.989 C136.466,99.433 133.514,101.989 130.035,101.989"/>
    <polygon fill="#475059" points="125.452 69.992 127.452 69.992 127.452 48.014 125.452 48.014"/>
    <polygon fill="#475059" points="132.119 69.992 134.119 69.992 134.119 48.014 132.119 48.014"/>
    <polyline fill="#475059" points="159.785 114.991 157.785 114.991 157.785 113.585 130.031 98.461 101.785 113.59 101.785 114.991 99.785 114.991 99.785 112.393 130.039 96.188 159.785 112.397 159.785 114.991"/>
    <polyline fill="#48515A" points="192.032 43.007 51.029 43.007 51.029 41.007 190.032 41.007 190.032 30.012 51.029 30.012 51.029 28.012 192.032 28.012 192.032 43.007"/>
    <polyline fill="#48515A" points="31.032 43.007 .03 43.007 .03 28.012 31.032 28.012 31.032 30.012 2.03 30.012 2.03 41.007 31.032 41.007 31.032 43.007"/>
    <g transform="translate(0 1)">
      <mask id="cc412-b" fill="#fff">
        <use xlink:href="#cc412-a"/>
      </mask>
      <polyline fill="#475059" points="2.03 28.001 .03 28.001 .03 25.466 38.222 0 44.197 .014 192.053 24.152 192.053 27.252 190.053 27.252 190.053 25.852 43.954 2 38.827 2 2.03 26.536 2.03 28.001" mask="url(#cc412-b)"/>
      <path fill="#475059" d="M21.037,190 L61.024,190 L61.024,188.003 L21.037,188.003 L21.037,190 Z M19.037,192 L63.024,192 L63.024,186.003 L19.037,186.003 L19.037,192 Z" mask="url(#cc412-b)"/>
    </g>
    <polygon fill="#48515A" points="6 114.005 8 114.005 8 110.005 6 110.005"/>
    <polygon fill="#48515A" points="6 124.005 8 124.005 8 120.005 6 120.005"/>
    <polygon fill="#48515A" points="10 118.005 14 118.005 14 116.005 10 116.005"/>
    <polygon fill="#48515A" points="0 118.005 4 118.005 4 116.005 0 116.005"/>
    <polygon fill="#48515A" points="184.106 165.036 186.106 165.036 186.106 161.036 184.106 161.036"/>
    <polygon fill="#48515A" points="184.106 175.036 186.106 175.036 186.106 171.036 184.106 171.036"/>
    <polygon fill="#48515A" points="188.106 169.036 192.106 169.036 192.106 167.036 188.106 167.036"/>
    <polygon fill="#48515A" points="178.106 169.036 182.106 169.036 182.106 167.036 178.106 167.036"/>
    <path fill="#475059" d="M92.028,155.008 L168.042,155.008 L168.042,119.994 L92.028,120.028 L92.028,155.008 Z M170.042,157.008 L90.028,157.008 L90.028,118.029 L170.042,117.993 L170.042,157.008 Z"/>
    <polygon fill="#475059" points="96.054 156.002 98.054 156.002 98.054 119.002 96.054 119.002"/>
    <polygon fill="#475059" points="102.058 156.002 104.058 156.002 104.058 119.002 102.058 119.002"/>
    <polygon fill="#475059" points="108.061 156.002 110.061 156.002 110.061 119.002 108.061 119.002"/>
    <polygon fill="#475059" points="114.064 156.002 116.064 156.002 116.064 119.002 114.064 119.002"/>
    <polygon fill="#475059" points="120.068 156.002 122.068 156.002 122.068 119.002 120.068 119.002"/>
    <polygon fill="#475059" points="126.072 156.002 128.072 156.002 128.072 119.002 126.072 119.002"/>
    <polygon fill="#475059" points="132.075 156.002 134.075 156.002 134.075 119.002 132.075 119.002"/>
    <polygon fill="#475059" points="138.079 156.002 140.079 156.002 140.079 119.002 138.079 119.002"/>
    <polygon fill="#475059" points="144.083 156.002 146.083 156.002 146.083 119.002 144.083 119.002"/>
    <polygon fill="#475059" points="150.086 156.002 152.086 156.002 152.086 119.002 150.086 119.002"/>
    <polygon fill="#475059" points="156.09 156.002 158.09 156.002 158.09 119.002 156.09 119.002"/>
    <polygon fill="#475059" points="162.093 156.002 164.093 156.002 164.093 119.002 162.093 119.002"/>
    <path fill="#475059" d="M33.254,103.881 L41.053,111.679 L48.851,103.881 L33.254,103.881 Z M32.467,123.093 L41.053,131.679 L49.638,123.093 L41.053,114.508 L32.467,123.093 Z M32.467,143.093 L41.053,151.679 L49.638,143.093 L41.053,134.508 L32.467,143.093 Z M50.133,163.588 L41.053,154.508 L31.972,163.588 L31.689,163.306 L30.265,163.306 L30.265,162.467 L39.638,153.093 L30.265,143.72 L30.265,142.467 L39.638,133.093 L30.265,123.72 L30.265,122.467 L39.638,113.093 L30.265,103.72 L30.265,101.881 L51.84,101.881 L51.84,103.72 L42.467,113.093 L51.84,122.467 L51.84,123.72 L42.467,133.093 L51.84,142.467 L51.84,143.72 L42.467,153.093 L51.84,162.467 L51.84,163.306 L50.416,163.306 L50.133,163.588 Z"/>
    <path fill="#475059" d="M25.053 187.002L57.053 187.002 57.053 179.184 51.36 164.001 30.746 164.001 25.053 179.184 25.053 187.002zM59.053 189.002L23.053 189.002 23.053 178.821 29.36 162.001 52.746 162.001 59.053 178.821 59.053 189.002zM162.053 71.994C147.933 71.944 135.74 62.099 132.718 48.306L134.674 47.887C137.93 63.006 152.827 72.623 167.946 69.366 180.842 66.588 190.051 55.186 190.053 41.994L192.053 41.994C192.034 58.555 178.613 71.975 162.053 71.994"/>
    <polygon fill="#48515A" points="94.053 54.97 96.053 54.97 96.053 50.97 94.053 50.97"/>
    <polygon fill="#48515A" points="94.053 64.97 96.053 64.97 96.053 60.97 94.053 60.97"/>
    <polygon fill="#48515A" points="98.053 58.97 102.053 58.97 102.053 56.97 98.053 56.97"/>
    <polygon fill="#48515A" points="88.053 58.97 92.053 58.97 92.053 56.97 88.053 56.97"/>
    <polyline fill="#DEDEDD" points="27.053 185.002 55.053 185.002 55.053 179.618 50.075 166.001 32.031 166.001 27.053 179.618 27.053 185.002"/>
    <path fill="#48515A" d="M119.051,46.993 L141.056,46.993 L141.056,42.994 L119.051,42.994 L119.051,46.993 Z M117.051,48.994 L143.056,48.994 L143.056,40.995 L117.051,40.995 L117.051,48.994 Z"/>
    <polygon fill="#475059" points="33.056 22.206 49.051 22.206 49.051 20.206 33.056 20.206"/>
    <polygon fill="#DEDEDD" points="126.053 81 134.053 81 134.053 73 126.053 73"/>
    <path fill="#475059" d="M2.053,54.999 L10.053,54.999 L10.053,42.999 L2.053,42.999 L2.053,54.999 Z M0.053,56.999 L12.053,56.999 L12.053,40.999 L0.053,40.999 L0.053,56.999 Z"/>
    <path fill="#475059" d="M12.059,54.999 L20.059,54.999 L20.059,42.999 L12.059,42.999 L12.059,54.999 Z M10.059,56.999 L22.059,56.999 L22.059,40.999 L10.059,40.999 L10.059,56.999 Z"/>
    <polygon fill="#DEDEDD" points="4.053 52.999 8.053 52.999 8.053 45 4.053 45"/>
    <polygon fill="#DEDEDD" points="14.059 52.999 18.059 52.999 18.059 45 14.059 45"/>
    <polygon fill="#DEDEDD" points="37.054 89.999 45.053 89.999 45.053 21.999 37.054 21.999"/>
    <path fill="#475059" d="M35.467,35 L41.053,40.586 L46.639,35 L41.053,29.414 L35.467,35 Z M35.467,49 L41.053,54.586 L46.639,49 L41.053,43.414 L35.467,49 Z M35.467,63 L41.053,68.586 L46.639,63 L41.053,57.414 L35.467,63 Z M35.469,76.998 L41.053,82.583 L46.638,76.998 L41.053,71.414 L35.469,76.998 Z M36.467,89.997 L45.639,89.997 L41.053,85.411 L36.467,89.997 Z M50.467,91.997 L31.639,91.997 L39.639,83.997 L32.641,76.998 L39.639,70 L32.639,63 L39.639,56 L32.639,49 L39.639,42 L32.639,35 L39.639,28 L33.346,21.707 L34.76,20.293 L41.053,26.586 L47.346,20.293 L48.76,21.707 L42.467,28 L49.467,35 L42.467,42 L49.467,49 L42.467,56 L49.467,63 L42.467,70 L49.466,76.998 L42.467,83.997 L50.467,91.997 Z"/>
    <polyline fill="#475059" points="40.778 103.563 32.239 91.577 33.868 90.417 40.828 100.187 48.257 90.393 49.85 91.602 40.778 103.563"/>
    <path fill="#475059" d="M76.475,104 L80.053,104 L81.827,99.977 L85.123,98.074 L89.494,98.549 L91.283,95.451 L88.686,91.903 L88.686,88.097 L91.283,84.549 L89.494,81.451 L85.123,81.926 L81.827,80.023 L80.053,76 L76.475,76 L74.701,80.023 L71.406,81.926 L67.034,81.451 L65.245,84.549 L67.843,88.097 L67.843,91.903 L65.245,95.451 L67.034,98.549 L71.406,98.074 L74.701,99.977 L76.475,104 Z M81.357,106 L75.171,106 L73.135,101.382 L70.972,100.133 L65.954,100.678 L62.861,95.322 L65.843,91.249 L65.843,88.751 L62.861,84.678 L65.954,79.322 L70.972,79.867 L73.135,78.618 L75.171,74 L81.357,74 L83.394,78.618 L85.556,79.867 L90.574,79.322 L93.667,84.678 L90.686,88.751 L90.686,91.248 L93.667,95.322 L90.574,100.678 L85.556,100.133 L83.394,101.382 L81.357,106 Z"/>
    <path fill="#475059" d="M78.264,88 C77.16,88 76.264,88.895 76.264,90 C76.264,91.105 77.16,92 78.264,92 C79.369,92 80.264,91.105 80.264,90 C80.263,88.896 79.368,88.001 78.264,88 Z M78.264,94 C76.055,94 74.264,92.209 74.264,90 C74.264,87.791 76.055,86 78.264,86 C80.473,86 82.264,87.791 82.264,90 C82.262,92.208 80.472,93.997 78.264,94 Z"/>
    <path fill="#475059" d="M78.264,84 C74.951,84 72.264,86.686 72.264,90 C72.264,93.314 74.951,96 78.264,96 C81.578,96 84.264,93.314 84.264,90 C84.26,86.688 81.576,84.004 78.264,84 Z M78.264,98 C73.846,98 70.264,94.418 70.264,90 C70.264,85.582 73.846,82 78.264,82 C82.682,82 86.264,85.582 86.264,90 C86.259,94.416 82.68,97.995 78.264,98 Z"/>
    <path fill="#F58E70" d="M92.053 21C93.158 21 94.053 21.895 94.053 23 94.053 24.105 93.158 25 92.053 25 90.949 25 90.053 24.105 90.053 23 90.053 21.895 90.949 21 92.053 21M130.053 173C131.158 173 132.053 173.895 132.053 175 132.053 176.105 131.158 177 130.053 177 128.949 177 128.053 176.105 128.053 175 128.053 173.895 128.949 173 130.053 173"/>
    <path fill="#5FE0ED" d="M20.053,139 C22.262,139 24.053,140.791 24.053,143 C24.053,145.209 22.262,147 20.053,147 C17.844,147 16.053,145.209 16.053,143 C16.053,140.791 17.844,139 20.053,139"/>
    <path fill="#DEDEDD" d="M16.053,69 C17.158,69 18.053,69.895 18.053,71 C18.053,72.105 17.158,73 16.053,73 C14.949,73 14.053,72.105 14.053,71 C14.053,69.895 14.949,69 16.053,69"/>
  </g>
</svg>
