<svg xmlns="http://www.w3.org/2000/svg" width="193" height="170" viewBox="0 0 193 170">
  <g fill="none" fill-rule="evenodd">
    <polygon fill="#DEDEDD" points="92.053 170 100.053 170 100.053 125.001 92.053 125.001"/>
    <polygon fill="#48515A" points="102.055 170 104.055 170 104.055 125 102.055 125"/>
    <polygon fill="#48515A" points="88.051 170 90.051 170 90.051 125 88.051 125"/>
    <polyline fill="#475059" points="132.424 126 59.68 126 23.307 63 34.456 43.69 36.188 44.69 25.616 63 60.834 124 131.274 124 166.988 62.75 131.773 2 60.834 2 53.646 14.452 51.913 13.452 59.68 0 132.925 0 169.301 62.752 132.424 126"/>
    <polyline fill="#475059" points="130.116 122.001 61.99 122.001 27.926 63 39.107 43.634 40.839 44.634 30.235 63 63.144 120.001 128.962 120.001 161.871 63 128.962 6.001 63.144 6.001 58.277 14.431 56.545 13.431 61.99 4.001 130.116 4.001 164.18 63 130.116 122.001"/>
    <path fill="#48515A" d="M96.026,63.831 L94.026,63.831 L94.026,39.674 C94.029,37.703 92.433,36.103 90.462,36.1 C88.491,36.097 86.89,37.692 86.887,39.664 C86.887,39.667 86.887,39.671 86.887,39.674 L86.887,63.831 L84.8869952,63.831 L84.887,39.674 C84.883,36.598 87.374,34.102 90.45,34.098 C93.525,34.094 96.022,36.585 96.026,39.66 C96.026,39.665 96.026,39.67 96.026,39.674 L96.026,63.831"/>
    <path fill="#48515A" d="M105.171,58.605 L103.171,58.605 L103.171,37.061 C103.174,35.09 101.578,33.49 99.607,33.487 C97.636,33.484 96.035,35.079 96.032,37.051 C96.032,37.054 96.032,37.058 96.032,37.061 L96.032,58.605 L94.0319952,58.605 L94.032,37.061 C94.028,33.986 96.519,31.489 99.595,31.485 C102.67,31.481 105.167,33.972 105.171,37.048 C105.171,37.052 105.171,37.057 105.171,37.061 L105.171,58.605"/>
    <path fill="#48515A" d="M113.92,97.492 L82.571,97.471 L77.053,80.974 L77.053,44.245 C77.053,41.529 79.255,39.328 81.971,39.328 C84.686,39.328 86.887,41.529 86.887,44.245 L86.887,63.831 L84.887,63.831 L84.887,44.245 C84.887,42.634 83.58,41.328 81.969,41.329 C80.359,41.329 79.054,42.634 79.053,44.245 L79.053,80.649 L84.012,95.472 L112.725,95.491 L121.461,79.245 L121.461,65.564 L118.13,62.233 L113.322,62.233 L113.322,60.233 L118.958,60.233 L123.461,64.736 L123.461,79.749 L113.92,97.492"/>
    <path fill="#48515A" d="M97.348,82 L95.348,82 C95.354,77.123 99.305,73.172 104.182,73.166 L112.253,73.166 L112.316,39.672 C112.316,37.701 110.717,36.103 108.746,36.104 C106.774,36.104 105.177,37.703 105.177,39.674 L105.177,63.831 L103.177,63.831 L103.177,39.674 C103.177,36.598 105.671,34.105 108.747,34.105 C111.823,34.105 114.316,36.598 114.316,39.674 L114.25,75.166 L104.182,75.166 C100.41,75.17 97.353,78.228 97.348,82"/>
    <path fill="#475059" d="M154.475,151 L158.053,151 L159.827,146.977 L163.123,145.074 L167.494,145.549 L169.283,142.451 L166.686,138.903 L166.686,135.097 L169.283,131.549 L167.494,128.451 L163.123,128.926 L159.827,127.023 L158.053,123 L154.475,123 L152.701,127.023 L149.406,128.926 L145.034,128.451 L143.245,131.549 L145.843,135.097 L145.843,138.903 L143.245,142.451 L145.034,145.549 L149.406,145.074 L152.701,146.977 L154.475,151 Z M159.357,153 L153.171,153 L151.135,148.382 L148.972,147.133 L143.954,147.678 L140.861,142.322 L143.843,138.249 L143.843,135.751 L140.861,131.678 L143.954,126.322 L148.972,126.867 L151.135,125.618 L153.171,121 L159.357,121 L161.394,125.618 L163.556,126.867 L168.574,126.322 L171.667,131.678 L168.686,135.751 L168.686,138.249 L171.667,142.322 L168.574,147.678 L163.556,147.133 L161.394,148.382 L159.357,153 Z"/>
    <path fill="#475059" d="M156.264,135 C155.16,135 154.264,135.895 154.264,137 C154.264,138.105 155.16,139 156.264,139 C157.369,139 158.264,138.105 158.264,137 C158.263,135.896 157.368,135.001 156.264,135 Z M156.264,141 C154.055,141 152.264,139.209 152.264,137 C152.264,134.791 154.055,133 156.264,133 C158.473,133 160.264,134.791 160.264,137 C160.262,139.208 158.472,140.997 156.264,141 Z"/>
    <path fill="#475059" d="M156.264,131 C152.95,131 150.264,133.686 150.264,137 C150.264,140.314 152.95,143 156.264,143 C159.578,143 162.264,140.314 162.264,137 C162.261,133.688 159.576,131.004 156.264,131 Z M156.264,145 C151.846,145 148.264,141.418 148.264,137 C148.264,132.582 151.846,129 156.264,129 C160.682,129 164.264,132.582 164.264,137 C164.259,141.416 160.68,144.995 156.264,145 Z"/>
    <polygon fill="#48515A" points="6 91.005 8 91.005 8 87.005 6 87.005"/>
    <polygon fill="#48515A" points="6 101.005 8 101.005 8 97.005 6 97.005"/>
    <polygon fill="#48515A" points="10 95.005 14 95.005 14 93.005 10 93.005"/>
    <polygon fill="#48515A" points="0 95.005 4 95.005 4 93.005 0 93.005"/>
    <polygon fill="#48515A" points="184.1 28 186.1 28 186.1 24 184.1 24"/>
    <polygon fill="#48515A" points="184.1 38 186.1 38 186.1 34 184.1 34"/>
    <polygon fill="#48515A" points="188.1 32 192.1 32 192.1 30 188.1 30"/>
    <polygon fill="#48515A" points="178.1 32 182.1 32 182.1 30 178.1 30"/>
    <polygon fill="#48515A" points="174.094 108.048 176.094 108.048 176.094 104.048 174.094 104.048"/>
    <polygon fill="#48515A" points="174.094 118.048 176.094 118.048 176.094 114.048 174.094 114.048"/>
    <polygon fill="#48515A" points="178.094 112.048 182.094 112.048 182.094 110.048 178.094 110.048"/>
    <polygon fill="#48515A" points="168.094 112.048 172.094 112.048 172.094 110.048 168.094 110.048"/>
    <path fill="#F58E70" d="M157.071 2.002C158.175 2.002 159.071 2.898 159.071 4.002 159.071 5.107 158.175 6.002 157.071 6.002 155.966 6.002 155.071 5.107 155.071 4.002 155.071 2.898 155.966 2.002 157.071 2.002M156.047 100.006C157.152 100.006 158.047 100.901 158.047 102.006 158.047 103.111 157.152 104.006 156.047 104.006 154.943 104.006 154.047 103.111 154.047 102.006 154.047 100.901 154.943 100.006 156.047 100.006"/>
    <path fill="#5FE0ED" d="M14.053,116 C16.262,116 18.053,117.791 18.053,120 C18.053,122.209 16.262,124 14.053,124 C11.844,124 10.053,122.209 10.053,120 C10.053,117.791 11.844,116 14.053,116"/>
    <path fill="#DEDEDD" d="M18.047,49.988 C19.152,49.988 20.047,50.883 20.047,51.988 C20.047,53.093 19.152,53.988 18.047,53.988 C16.943,53.988 16.047,53.093 16.047,51.988 C16.047,50.883 16.943,49.988 18.047,49.988"/>
    <path fill="#475059" d="M29.963,29.235 L57.964,29.235 L57.964,21.235 L29.963,21.235 L29.963,29.235 Z M27.963,31.235 L59.964,31.235 L59.964,19.235 L27.963,19.235 L27.963,31.235 Z"/>
    <polyline fill="#475059" points="28.381 21.566 29.795 20.152 39.171 29.528 37.757 30.942 28.381 21.566"/>
    <polyline fill="#475059" points="35.09 21.275 36.504 19.861 46.17 29.528 44.756 30.942 35.09 21.275"/>
    <polyline fill="#475059" points="42.089 21.275 43.503 19.861 53.17 29.528 51.756 30.942 42.089 21.275"/>
    <polyline fill="#475059" points="49.093 21.275 50.507 19.861 59.38 28.734 57.966 30.148 49.093 21.275"/>
    <polygon fill="#475059" points="30.963 41.235 32.963 41.235 32.963 30.235 30.963 30.235"/>
    <polygon fill="#475059" points="54.963 41.235 56.963 41.235 56.963 30.235 54.963 30.235"/>
    <polygon fill="#475059" points="27.963 42.236 35.963 42.236 35.963 40.236 27.963 40.236"/>
    <polygon fill="#475059" points="51.978 42.236 59.978 42.236 59.978 40.236 51.978 40.236"/>
    <polygon fill="#475059" points="30.963 20.235 32.963 20.235 32.963 16.235 30.963 16.235"/>
    <polygon fill="#475059" points="54.963 20.235 56.963 20.235 56.963 16.235 54.963 16.235"/>
    <path fill="#F58E70" d="M125.461,80.252 L115.115,99.493 L81.131,99.47 L75.053,81.3 L75.053,44.245 C75.039,40.438 78.114,37.341 81.92,37.328 C82.357,37.326 82.793,37.366 83.223,37.447 C84.451,33.453 88.685,31.211 92.679,32.439 C92.93,32.516 93.177,32.607 93.418,32.71 C95.811,29.295 100.518,28.466 103.933,30.858 C104.653,31.363 105.28,31.989 105.785,32.71 C109.63,31.073 114.075,32.863 115.712,36.709 C116.111,37.646 116.317,38.655 116.316,39.674 L116.281,58.233 L119.787,58.233 L125.461,63.907 L125.461,80.252 Z M127.808,8.001 L64.299,8.001 L60.835,14 L62.053,14 L62.053,44 L43.514,44 L32.544,63 L64.299,118.001 L127.808,118.001 L159.562,63 L127.808,8.001 Z"/>
  </g>
</svg>
