<svg xmlns="http://www.w3.org/2000/svg" width="193" height="147" viewBox="0 0 193 147">
  <g fill="none" fill-rule="evenodd">
    <polyline fill="#DEDEDD" points="148.053 30.743 148.053 24.743 142.053 24.743 142.053 18.743 136.053 18.743 136.053 12.743 130.053 12.743 130.053 6.743 98.053 6.743 98.053 12.743 92.053 12.743 92.053 18.743 86.053 18.743 86.053 24.743 80.053 24.743 80.053 30.743 74.053 30.743 74.053 37.742 154.053 37.742 154.053 30.743 148.053 30.743"/>
    <polyline fill="#DEDEDD" points="155.726 95.688 63.01 63.61 38.143 38.74 18.053 38.74 18.053 36.74 38.971 36.74 64.099 61.87 156.38 93.798 155.726 95.688"/>
    <path fill="#DEDEDD" d="M86.235,113.74 C81.166,113.734 77.059,109.627 77.053,104.558 L77.053,70.743 L79.053,70.743 L79.053,104.558 C79.053,108.524 82.269,111.74 86.235,111.74 C87.789,111.74 89.301,111.236 90.544,110.304 L120.407,84.981 L121.7,86.506 L91.79,111.867 C90.19,113.076 88.241,113.733 86.235,113.74"/>
    <path fill="#475059" d="M86.235,116.74 C79.51,116.732 74.061,111.283 74.053,104.558 L74.053,69.742 L76.053,69.742 L76.053,104.558 C76.053,110.181 80.611,114.74 86.235,114.74 C88.438,114.74 90.581,114.026 92.344,112.704 L123.407,86.417 L124.699,87.944 L93.59,114.267 C91.47,115.864 88.889,116.732 86.235,116.74"/>
    <path fill="#475059" d="M86.235 110.74C82.822 110.736 80.057 107.97 80.053 104.558L80.053 71.742 82.053 71.742 82.053 104.558C82.053 106.868 83.925 108.74 86.235 108.74 87.118 108.74 87.978 108.461 88.693 107.942L116.687 84.202 117.98 85.728 89.927 109.514C88.857 110.304 87.564 110.733 86.235 110.74M135.805 84.588L133.932 83.886 144.107 56.752C146.439 51.012 151.867 47.127 158.053 46.772L158.053 38.74 68.053 38.74 68.053 43.176 75.982 63.378 74.121 64.109 66.053 43.554 66.053 36.74 160.053 36.74 160.053 48.74 159.053 48.74C153.326 48.708 148.154 52.156 145.98 57.454L135.805 84.588"/>
    <polyline fill="#475059" points="35.053 47.743 29.053 47.743 29.053 40.743 31.053 40.743 31.053 45.743 33.053 45.743 33.053 29.743 31.053 29.743 31.053 34.743 29.053 34.743 29.053 27.743 35.053 27.743 35.053 47.743"/>
    <path fill="#DEDEDD" d="M156.053,76.743 C149.473,76.741 143.417,80.331 140.261,86.105 L157.034,91.908 C158.6,92.45 159.43,94.158 158.888,95.724 C158.346,97.29 156.638,98.12 155.072,97.578 L138.317,91.781 C136.687,101.582 143.311,110.849 153.112,112.479 C162.912,114.109 172.179,107.485 173.809,97.685 C175.44,87.884 168.816,78.617 159.015,76.987 C158.036,76.824 157.046,76.742 156.053,76.743"/>
    <path fill="#475059" d="M156.053,102.743 C151.928,102.76 148.473,99.624 148.09,95.517 L150.081,95.325 C150.402,98.625 153.336,101.039 156.635,100.718 C159.935,100.398 162.349,97.463 162.028,94.164 C161.708,90.865 158.773,88.45 155.474,88.771 C154.076,88.907 152.771,89.529 151.784,90.528 L150.36,89.122 C153.465,85.978 158.53,85.946 161.674,89.05 C164.818,92.154 164.85,97.219 161.746,100.364 C160.243,101.886 158.193,102.743 156.053,102.743"/>
    <path fill="#475059" d="M62.466,64.48 L155.399,96.633 C156.442,96.977 157.57,96.429 157.943,95.397 C158.304,94.353 157.751,93.214 156.708,92.853 L64.643,61 L39.386,35.74 L18.053,35.74 C16.949,35.74 16.053,36.635 16.053,37.74 C16.053,38.845 16.949,39.74 18.053,39.74 L37.729,39.74 L62.466,64.48 Z M156.053,98.744 C155.608,98.744 155.166,98.669 154.746,98.523 L61.377,66.219 L36.901,41.74 L18.053,41.74 C15.844,41.74 14.053,39.949 14.053,37.74 C14.053,35.531 15.844,33.74 18.053,33.74 L40.214,33.74 L65.732,59.261 L157.361,90.963 C159.449,91.686 160.556,93.965 159.833,96.052 C159.275,97.663 157.758,98.744 156.053,98.744 Z"/>
    <path fill="#F58E70" d="M77.337,61.355 L133.083,80.454 L142.234,56.05 C144.586,50.198 149.828,46.004 156.053,44.994 L156.053,40.74 L70.053,40.74 L70.053,42.797 L77.337,61.355"/>
    <path fill="#475059" d="M156.053,116.743 C143.892,116.732 134.043,106.866 134.053,94.705 C134.054,93.278 134.194,91.854 134.471,90.454 L136.433,90.842 C134.277,101.676 141.313,112.207 152.147,114.363 C162.982,116.519 173.513,109.484 175.669,98.649 C177.825,87.814 170.789,77.284 159.955,75.128 C158.67,74.872 157.363,74.743 156.053,74.743 C148.5,74.722 141.585,78.975 138.196,85.725 L136.412,84.822 C141.89,73.976 155.124,69.624 165.97,75.102 C176.817,80.58 181.169,93.814 175.691,104.66 C171.948,112.07 164.354,116.742 156.053,116.743"/>
    <polygon fill="#48515A" points="56.053 120.768 192.025 120.768 192.025 118.768 56.053 118.768"/>
    <polygon fill="#48515A" points=".025 120.768 24.053 120.768 24.053 118.768 .025 118.768"/>
    <polyline fill="#DEDEDD" points=".026 122.61 .026 146.769 192.026 147 192.026 122.841 .026 122.61"/>
    <path fill="#475059" d="M38.053,133.743 L41.631,133.743 L43.405,129.72 L46.701,127.817 L51.072,128.292 L52.861,125.194 L50.264,121.646 L50.264,117.84 L52.861,114.292 L51.072,111.194 L46.701,111.669 L43.405,109.766 L41.631,105.743 L38.053,105.743 L36.279,109.766 L32.984,111.669 L28.612,111.194 L26.823,114.292 L29.421,117.84 L29.421,121.646 L26.823,125.194 L28.612,128.292 L32.984,127.817 L36.279,129.72 L38.053,133.743 Z M42.935,135.743 L36.75,135.743 L34.713,131.125 L32.55,129.876 L27.532,130.421 L24.439,125.065 L27.421,120.992 L27.421,118.494 L24.439,114.421 L27.532,109.065 L32.55,109.61 L34.713,108.361 L36.75,103.743 L42.935,103.743 L44.972,108.361 L47.134,109.61 L52.152,109.065 L55.245,114.421 L52.264,118.494 L52.264,120.992 L55.245,125.065 L52.152,130.421 L47.134,129.876 L44.972,131.125 L42.935,135.743 Z"/>
    <path fill="#475059" d="M39.842,117.743 C38.738,117.743 37.842,118.638 37.842,119.743 C37.842,120.848 38.738,121.743 39.842,121.743 C40.947,121.743 41.842,120.848 41.842,119.743 C41.841,118.639 40.946,117.744 39.842,117.743 Z M39.842,123.743 C37.633,123.743 35.842,121.952 35.842,119.743 C35.842,117.534 37.633,115.743 39.842,115.743 C42.051,115.743 43.842,117.534 43.842,119.743 C43.84,121.951 42.05,123.74 39.842,123.743 Z"/>
    <path fill="#475059" d="M39.842,113.743 C36.529,113.743 33.842,116.429 33.842,119.743 C33.842,123.057 36.529,125.743 39.842,125.743 C43.156,125.743 45.842,123.057 45.842,119.743 C45.839,116.431 43.154,113.747 39.842,113.743 Z M39.842,127.743 C35.424,127.743 31.842,124.161 31.842,119.743 C31.842,115.325 35.424,111.743 39.842,111.743 C44.261,111.743 47.842,115.325 47.842,119.743 C47.837,124.159 44.258,127.738 39.842,127.743 Z"/>
    <polygon fill="#48515A" points="6 69.748 8 69.748 8 65.748 6 65.748"/>
    <polygon fill="#48515A" points="6 79.748 8 79.748 8 75.748 6 75.748"/>
    <polygon fill="#48515A" points="10 73.748 14 73.748 14 71.748 10 71.748"/>
    <polygon fill="#48515A" points="0 73.748 4 73.748 4 71.748 0 71.748"/>
    <polygon fill="#48515A" points="184.1 6.743 186.1 6.743 186.1 2.743 184.1 2.743"/>
    <polygon fill="#48515A" points="184.1 16.743 186.1 16.743 186.1 12.743 184.1 12.743"/>
    <polygon fill="#48515A" points="188.1 10.743 192.1 10.743 192.1 8.743 188.1 8.743"/>
    <polygon fill="#48515A" points="178.1 10.743 182.1 10.743 182.1 8.743 178.1 8.743"/>
    <polygon fill="#48515A" points="174.094 58.743 176.094 58.743 176.094 54.743 174.094 54.743"/>
    <polygon fill="#48515A" points="174.094 68.743 176.094 68.743 176.094 64.743 174.094 64.743"/>
    <polygon fill="#48515A" points="178.094 62.743 182.094 62.743 182.094 60.743 178.094 60.743"/>
    <polygon fill="#48515A" points="168.094 62.743 172.094 62.743 172.094 60.743 168.094 60.743"/>
    <path fill="#F58E70" d="M78.053.743C79.158.743 80.053 1.638 80.053 2.743 80.053 3.848 79.158 4.743 78.053 4.743 76.949 4.743 76.053 3.848 76.053 2.743 76.053 1.638 76.949.743 78.053.743M160.047 62.749C161.152 62.749 162.047 63.644 162.047 64.749 162.047 65.854 161.152 66.749 160.047 66.749 158.943 66.749 158.047 65.854 158.047 64.749 158.047 63.644 158.943 62.749 160.047 62.749"/>
    <path fill="#5FE0ED" d="M30.053,78.743 C32.262,78.743 34.053,80.534 34.053,82.743 C34.053,84.952 32.262,86.743 30.053,86.743 C27.844,86.743 26.053,84.952 26.053,82.743 C26.053,80.534 27.844,78.743 30.053,78.743"/>
  </g>
</svg>
