<svg xmlns="http://www.w3.org/2000/svg" xmlns:xlink="http://www.w3.org/1999/xlink" width="193" height="132" viewBox="0 0 193 132">
  <defs>
    <polygon id="cc414-a" points=".961 .026 178.117 .026 178.117 28.94 .961 28.94"/>
  </defs>
  <g fill="none" fill-rule="evenodd">
    <polygon fill="#475059" points="81.049 128.97 83.049 128.97 83.049 112.97 81.049 112.97"/>
    <polygon fill="#475059" points="66.049 112.97 68.049 112.97 68.049 96.97 66.049 96.97"/>
    <polygon fill="#475059" points="98.049 112.97 100.049 112.97 100.049 96.97 98.049 96.97"/>
    <polygon fill="#475059" points="128.048 112.97 130.048 112.97 130.048 96.97 128.048 96.97"/>
    <polygon fill="#475059" points="112.049 128.97 114.049 128.97 114.049 112.97 112.049 112.97"/>
    <polygon fill="#475059" points="143.049 128.97 145.049 128.97 145.049 112.97 143.049 112.97"/>
    <path fill="#475059" d="M52.049,127.97 L174.049,127.97 L174.049,113.97 L52.049,113.97 L52.049,127.97 Z M50.049,129.97 L176.049,129.97 L176.049,111.97 L50.049,111.97 L50.049,129.97 Z"/>
    <path fill="#475059" d="M36.04,111.97 L160.041,111.97 L160.041,97.97 L36.04,97.97 L36.04,111.97 Z M34.04,113.97 L162.041,113.97 L162.041,95.97 L34.04,95.97 L34.04,113.97 Z"/>
    <polygon fill="#475059" points="160.051 112.97 162.051 112.97 162.051 96.97 160.051 96.97"/>
    <polygon fill="#475059" points="81.049 96.95 83.049 96.95 83.049 80.95 81.049 80.95"/>
    <polygon fill="#475059" points="112.049 96.95 114.049 96.95 114.049 80.95 112.049 80.95"/>
    <polygon fill="#475059" points="143.049 96.95 145.049 96.95 145.049 80.95 143.049 80.95"/>
    <path fill="#475059" d="M52.049,95.95 L174.049,95.95 L174.049,81.95 L52.049,81.95 L52.049,95.95 Z M50.049,97.95 L176.049,97.95 L176.049,79.95 L50.049,79.95 L50.049,97.95 Z"/>
    <polygon fill="#475059" points="66.049 80.95 68.049 80.95 68.049 64.95 66.049 64.95"/>
    <polygon fill="#475059" points="98.049 80.95 100.049 80.95 100.049 64.95 98.049 64.95"/>
    <polygon fill="#475059" points="128.048 80.95 130.048 80.95 130.048 64.95 128.048 64.95"/>
    <path fill="#475059" d="M36.04,79.95 L160.041,79.95 L160.041,65.95 L36.04,65.95 L36.04,79.95 Z M34.04,81.95 L162.041,81.95 L162.041,63.95 L34.04,63.95 L34.04,81.95 Z"/>
    <polygon fill="#475059" points="160.051 80.95 162.051 80.95 162.051 64.95 160.051 64.95"/>
    <path fill="#475059" d="M148.049 63.955L174.049 63.955 174.049 49.955 148.049 49.955 148.049 63.955zM146.049 65.955L176.049 65.955 176.049 47.955 146.049 47.955 146.049 65.955zM148.049 31.955L174.049 31.955 174.049 17.955 148.049 17.955 148.049 31.955zM146.049 33.955L176.049 33.955 176.049 15.955 146.049 15.955 146.049 33.955z"/>
    <path fill="#475059" d="M120.049,63.955 L146.049,63.955 L146.049,49.955 L120.049,49.955 L120.049,63.955 Z M118.049,65.955 L148.049,65.955 L148.049,47.955 L118.049,47.955 L118.049,65.955 Z"/>
    <path fill="#475059" d="M108.049,47.955 L134.049,47.955 L134.049,33.955 L108.049,33.955 L108.049,47.955 Z M106.049,49.955 L136.049,49.955 L136.049,31.955 L106.049,31.955 L106.049,49.955 Z"/>
    <path fill="#475059" d="M136.049 47.955L162.049 47.955 162.049 33.955 136.049 33.955 136.049 47.955zM134.049 49.955L164.049 49.955 164.049 31.955 134.049 31.955 134.049 49.955zM92.049 63.955L118.049 63.955 118.049 49.955 92.049 49.955 92.049 63.955zM90.049 65.955L120.049 65.955 120.049 47.955 90.049 47.955 90.049 65.955z"/>
    <path fill="#F58E70" d="M166.049,29.955 L150.049,29.955 L150.049,19.955 L172.049,19.955 L172.049,29.955 L166.049,29.955 Z M150.049,61.95 L172.049,61.95 L172.049,51.955 L150.049,51.955 L150.049,61.95 Z M147.049,93.95 L172.049,93.95 L172.049,83.95 L147.049,83.95 L147.049,93.95 Z M147.049,125.97 L172.049,125.97 L172.049,115.97 L147.049,115.97 L147.049,125.97 Z M54.049,125.97 L79.049,125.97 L79.049,115.97 L54.049,115.97 L54.049,125.97 Z M38.04,109.97 L64.05,109.97 L64.05,99.97 L38.04,99.97 L38.04,109.97 Z M54.049,93.95 L79.049,93.95 L79.049,83.95 L54.049,83.95 L54.049,93.95 Z M38.04,77.95 L64.05,77.95 L64.05,67.95 L38.04,67.95 L38.04,77.95 Z M96.049,67.955 L96.049,77.95 L70.049,77.95 L70.049,67.95 L88.049,67.95 L88.049,67.955 L96.049,67.955 Z M94.049,61.95 L116.049,61.95 L116.049,51.955 L94.049,51.955 L94.049,61.95 Z M110.049,45.955 L132.049,45.955 L132.049,35.955 L110.049,35.955 L110.049,45.955 Z M122.049,61.95 L144.049,61.95 L144.049,51.955 L122.049,51.955 L122.049,61.95 Z M116.049,93.95 L141.049,93.95 L141.049,83.95 L116.049,83.95 L116.049,93.95 Z M116.049,125.97 L141.049,125.97 L141.049,115.97 L116.049,115.97 L116.049,125.97 Z M85.049,125.97 L110.049,125.97 L110.049,115.97 L85.049,115.97 L85.049,125.97 Z M70.049,109.97 L96.049,109.97 L96.049,99.97 L70.049,99.97 L70.049,109.97 Z M102.049,109.97 L126.048,109.97 L126.048,99.97 L102.049,99.97 L102.049,109.97 Z M116.049,67.955 L126.048,67.955 L126.048,77.95 L102.049,77.95 L102.049,67.955 L116.049,67.955 Z M85.049,93.95 L110.049,93.95 L110.049,83.95 L85.049,83.95 L85.049,93.95 Z M132.048,109.97 L158.05,109.97 L158.05,99.97 L132.048,99.97 L132.048,109.97 Z M132.048,77.95 L158.05,77.95 L158.05,67.955 L132.048,67.955 L132.048,77.95 Z M138.049,45.955 L160.049,45.955 L160.049,35.955 L138.049,35.955 L138.049,45.955 Z"/>
    <path fill="#475059" d="M24.01 3.374C22.81 3.796 22.006 4.929 22.004 6.201L22.004 24.206C22.597 23.759 23.282 23.45 24.01 23.303L24.01 3.374zM33.366 33.200003L25.007 33.2C22.246 33.203 20.007 30.967 20.004 28.207 20.004 28.205 20.004 28.202 20.004 28.2L20.004 6.201C20.008 3.442 22.244 1.207 25.003 1.204L26.004 1.204 26.01 2.204 26.01 25.204 25.009 25.204C23.353 25.2 22.008 26.539 22.004 28.195 22.002 28.992 22.318 29.757 22.882 30.321 23.442 30.886 24.205 31.202 25.001 31.2L33.366 31.2 33.366 33.200003zM47.008 33.2L33.366 33.2 33.366 31.2 47.003 31.2C48.659 31.201 50.002 29.859 50.003 28.203 50.004 26.547 48.662 25.204 47.006 25.204L46.005 25.204 46 24.204 46 1.204 47.001 1.204C49.761 1.204 52 3.44 52.005 6.2L50.005 6.201C50.002 4.929 49.2 3.796 48 3.373L48 23.304C50.705 23.852 52.454 26.49 51.905 29.195 51.433 31.525 49.385 33.2 47.008 33.2"/>
    <polygon fill="#475059" points="50.005 28.201 52.005 28.201 52.005 6.201 50.005 6.201"/>
    <polyline fill="#475059" points="47.008 11.2 25.007 11.2 25.001 9.2 47.003 9.2 47.008 11.2"/>
    <path fill="#475059" d="M31.005,26.202 L41.005,26.202 L41.005,16.202 L31.005,16.202 L31.005,26.202 Z M29.005,28.202 L43.005,28.202 L43.005,14.202 L29.005,14.202 L29.005,28.202 Z"/>
    <polygon fill="#475059" points="35.005 19.2 37.005 19.2 37.005 15.202 35.005 15.202"/>
    <polygon fill="#475059" points="30.005 23.202 37.004 23.202 37.004 21.202 30.005 21.202"/>
    <path fill="#475059" d="M92.044,12.27 L114.047,20.52 L114.047,3.406 L92.044,11.655 L92.044,12.27 Z M116.047,23.406 L90.044,13.655 L90.044,10.27 L116.047,0.52 L116.047,23.406 Z"/>
    <polyline fill="#475059" points="122.042 12.963 115.044 12.963 115.044 10.963 120.042 10.963 120.042 4.963 127.042 4.963 127.042 6.963 122.042 6.963 122.042 12.963"/>
    <path fill="#475059" d="M128.042,6.962 L138.043,6.962 C139.147,6.958 140.04,6.06 140.036,4.956 C140.033,3.857 139.142,2.966 138.043,2.963 L128.042,2.963 L128.042,6.962 Z M138.043,8.962 L126.042,8.962 L126.042,0.963 L138.043,0.963 C140.252,0.968 142.039,2.762 142.034,4.971 C142.029,7.173 140.245,8.957 138.043,8.962 Z"/>
    <polygon fill="#48515A" points="6 40.99 8 40.99 8 36.99 6 36.99"/>
    <polygon fill="#48515A" points="6 50.99 8 50.99 8 46.99 6 46.99"/>
    <polygon fill="#48515A" points="10 44.99 14 44.99 14 42.99 10 42.99"/>
    <polygon fill="#48515A" points="0 44.99 4 44.99 4 42.99 0 42.99"/>
    <polygon fill="#48515A" points="184.117 101.026 186.117 101.026 186.117 97.026 184.117 97.026"/>
    <polygon fill="#48515A" points="184.117 111.026 186.117 111.026 186.117 107.026 184.117 107.026"/>
    <polygon fill="#48515A" points="188.117 105.026 192.117 105.026 192.117 103.026 188.117 103.026"/>
    <g transform="translate(4 103)">
      <mask id="cc414-b" fill="#fff">
        <use xlink:href="#cc414-a"/>
      </mask>
      <polygon fill="#48515A" points="174.117 2.026 178.117 2.026 178.117 .026 174.117 .026" mask="url(#cc414-b)"/>
      <path fill="#FFD15D" d="M3.961,23 C5.618,23 6.961,24.344 6.961,26 C6.961,27.657 5.618,29 3.961,29 C2.304,29 0.961,27.657 0.961,26 C0.961,24.344 2.304,23 3.961,23" mask="url(#cc414-b)"/>
    </g>
    <path fill="#DEDEDD" d="M62.051,1.962 C63.708,1.962 65.051,3.305 65.051,4.962 C65.051,6.619 63.708,7.962 62.051,7.962 C60.394,7.962 59.051,6.619 59.051,4.962 C59.051,3.305 60.394,1.962 62.051,1.962"/>
    <path fill="#FFD15D" d="M184.077,70.967 C185.182,70.967 186.077,71.862 186.077,72.967 C186.077,74.071 185.182,74.967 184.077,74.967 C182.973,74.967 182.077,74.071 182.077,72.967 C182.077,71.862 182.973,70.967 184.077,70.967"/>
    <path fill="#475059" d="M21.03,127.962 L50.031,127.962 L50.031,113.963 L21.03,113.963 L21.03,127.962 Z M19.03,129.962 L52.031,129.962 L52.031,111.963 L19.03,111.963 L19.03,129.962 Z"/>
    <polygon fill="#F58E70" points="23.031 125.97 48.031 125.97 48.031 115.97 23.031 115.97"/>
    <path fill="#475059" d="M5.021,111.953 L34.021,111.953 L34.021,97.954 L5.021,97.954 L5.021,111.953 Z M3.021,113.953 L36.021,113.953 L36.021,95.954 L3.021,95.954 L3.021,113.953 Z"/>
    <polygon fill="#F58E70" points="7.021 109.96 32.021 109.96 32.021 99.96 7.021 99.96"/>
    <path fill="#475059" d="M21.03,95.943 L50.031,95.943 L50.031,81.944 L21.03,81.944 L21.03,95.943 Z M19.03,97.943 L52.031,97.943 L52.031,79.944 L19.03,79.944 L19.03,97.943 Z"/>
    <polygon fill="#F58E70" points="23.031 93.95 48.031 93.95 48.031 83.95 23.031 83.95"/>
    <path fill="#475059" d="M61.055,37.908 L90.056,37.908 L90.056,23.909 L61.055,23.909 L61.055,37.908 Z M59.055,39.909 L92.056,39.909 L92.056,21.91 L59.055,21.91 L59.055,39.909 Z"/>
    <polygon fill="#F58E70" points="63.055 35.916 88.055 35.916 88.055 25.916 63.055 25.916"/>
    <path fill="#475059" d="M21.03,58.921 L50.031,58.921 L50.031,44.922 L21.03,44.922 L21.03,58.921 Z M19.03,60.921 L52.031,60.921 L52.031,42.922 L19.03,42.922 L19.03,60.921 Z"/>
    <polygon fill="#F58E70" points="23.031 56.928 48.031 56.928 48.031 46.928 23.031 46.928"/>
  </g>
</svg>
