<svg xmlns="http://www.w3.org/2000/svg" width="193" height="158" viewBox="0 0 193 158">
  <g fill="none" fill-rule="evenodd">
    <polygon fill="#FFD15D" points="102.842 112.958 134.001 112.958 134.001 107.957 102.842 107.957"/>
    <polygon fill="#FFD15D" points="154.001 112.958 184.984 112.958 184.984 107.957 154.001 107.957"/>
    <polygon fill="#FFD15D" points="4.001 140.946 133 140.946 133 123.946 4.001 123.946"/>
    <polygon fill="#FFD15D" points="154.001 140.946 188.001 140.946 188.001 123.946 154.001 123.946"/>
    <path fill="#F58E70" d="M63.839,99.955 C46.718,99.955 32.839,86.075 32.839,68.955 C32.839,51.834 46.718,37.955 63.839,37.955 C80.96,37.955 94.839,51.834 94.839,68.955 C94.82,86.067 80.952,99.935 63.839,99.955 Z M108.778,68.841 C108.783,44.049 88.689,23.949 63.898,23.944 C39.106,23.94 19.005,44.034 19.001,68.825 C19.001,68.83 19.001,68.835 19.001,68.84 L19.001,69.069 C19.029,93.849 39.11,113.929 63.89,113.957 L99.842,113.957 L99.842,101.975 L107.807,101.975 C108.359,101.975 108.807,101.527 108.807,100.974 C108.807,100.974 108.807,100.974 108.807,100.973 L108.778,68.841 Z"/>
    <polyline fill="#DEDEDD" points="183.983 105.957 183.983 113.957 187.984 113.957 187.984 117.957 190.984 117.957 190.984 105.957 183.983 105.957"/>
    <path fill="#475059" d="M63.839,41.954 C48.927,41.954 36.839,54.043 36.839,68.954 C36.839,83.866 48.927,95.954 63.839,95.954 C78.751,95.954 90.839,83.866 90.839,68.954 C90.822,54.05 78.743,41.971 63.839,41.954 Z M63.839,97.954 C47.823,97.954 34.839,84.971 34.839,68.954 C34.839,52.938 47.823,39.954 63.839,39.954 C79.855,39.954 92.839,52.938 92.839,68.954 C92.821,84.963 79.848,97.936 63.839,97.954 Z"/>
    <path fill="#DEDEDD" d="M63.839,43.955 C50.032,43.955 38.839,55.147 38.839,68.955 C38.839,82.762 50.032,93.955 63.839,93.955 C77.646,93.955 88.839,82.762 88.839,68.955 C88.823,55.154 77.64,43.97 63.839,43.955"/>
    <path fill="#475059" d="M63.89,21.951 C37.995,21.95 17.002,42.942 17.001,68.837 C17.001,68.838 17.001,68.839 17.001,68.84 L17.001,69.069 C17.031,94.952 38.007,115.927 63.89,115.957 L101.842,115.957 L101.842,103.974 L107.807,103.974 C109.463,103.974 110.807,102.631 110.807,100.975 C110.807,100.974 110.807,100.973 110.807,100.972 L110.778,68.839 C110.748,42.955 89.773,21.98 63.89,21.951 Z M103.842,117.957 L63.89,117.957 C36.903,117.926 15.033,96.056 15.001,69.069 L15.001,68.84 C15.004,41.84 36.895,19.954 63.896,19.958 C90.891,19.961 112.774,41.843 112.778,68.838 L112.807,100.97 C112.81,103.73 110.575,105.971 107.815,105.974 C107.812,105.974 107.809,105.974 107.807,105.974 L103.842,105.974 L103.842,117.957 Z"/>
    <polyline fill="#475059" points="192.002 117.959 190.002 117.959 190.002 106.959 185.002 106.959 185.002 113.962 154.001 113.962 154.001 111.962 183.002 111.962 183.002 104.959 192.002 104.959 192.002 117.959"/>
    <polygon fill="#475059" points="102.83 113.962 134.001 113.962 134.001 111.962 102.83 111.962"/>
    <polyline fill="#475059" points="118.843 88.962 106.841 88.962 106.841 86.962 116.843 86.962 116.843 66.374 115.429 64.96 106.842 64.96 106.842 62.96 116.257 62.96 118.843 65.546 118.843 88.962"/>
    <polygon fill="#48515A" points="35.001 143.947 37.001 143.947 37.001 137.947 35.001 137.947"/>
    <polygon fill="#48515A" points="47.001 143.947 49.001 143.947 49.001 135.945 47.001 135.945"/>
    <polygon fill="#48515A" points="59.001 143.947 61.001 143.947 61.001 137.947 59.001 137.947"/>
    <polygon fill="#48515A" points="71.001 143.947 73.001 143.947 73.001 135.945 71.001 135.945"/>
    <polygon fill="#48515A" points="83.001 143.947 85.001 143.947 85.001 137.947 83.001 137.947"/>
    <polygon fill="#48515A" points="95.001 143.947 97.001 143.947 97.001 135.945 95.001 135.945"/>
    <polygon fill="#48515A" points="107.001 143.947 109.001 143.947 109.001 137.947 107.001 137.947"/>
    <polygon fill="#48515A" points="119.001 143.947 121.001 143.947 121.001 135.945 119.001 135.945"/>
    <polyline fill="#48515A" points="133.001 144.947 0 144.947 0 119.946 134.168 119.946 134.168 121.946 2 121.946 2 142.947 131.001 142.947 131.001 137.947 133.001 137.947 133.001 144.947"/>
    <polyline fill="#48515A" points="192.002 144.947 155.001 144.947 155.001 137.947 157.001 137.947 157.001 142.947 190.002 142.947 190.002 121.946 154.002 121.946 154.002 119.946 192.002 119.946 192.002 144.947"/>
    <polygon fill="#48515A" points="167.001 143.947 169.001 143.947 169.001 135.945 167.001 135.945"/>
    <polygon fill="#48515A" points="179.001 143.947 181.001 143.947 181.001 137.947 179.001 137.947"/>
    <polygon fill="#48515A" points="23.001 143.947 25.001 143.947 25.001 135.945 23.001 135.945"/>
    <polygon fill="#48515A" points="11.001 143.947 13.001 143.947 13.001 137.947 11.001 137.947"/>
    <path fill="#48515A" d="M180.002,128.947 C178.897,128.947 178.002,129.842 178.002,130.947 C178.002,132.051 178.897,132.947 180.002,132.947 C181.107,132.947 182.002,132.051 182.002,130.947 C182.001,129.843 181.106,128.948 180.002,128.947 Z M180.002,134.947 C177.793,134.947 176.002,133.156 176.002,130.947 C176.002,128.737 177.793,126.947 180.002,126.947 C182.211,126.947 184.002,128.737 184.002,130.947 C184,133.155 182.21,134.944 180.002,134.947 Z"/>
    <path fill="#F58E70" d="M151.001,7.076 L151.001,10.451 L137.001,10.451 L137.001,7.076 C137.001,3.693 139.743,0.951 143.126,0.951 L144.876,0.951 C148.259,0.951 151.001,3.693 151.001,7.076"/>
    <polygon fill="#DEDEDD" points="136.001 16.951 152.001 16.951 152.001 10.951 136.001 10.951"/>
    <polyline fill="#F58E70" points="140.001 16.951 140.001 132.664 141.488 134.488 143.818 132.666 143.821 132.668 143.821 16.951 140.001 16.951"/>
    <path fill="#475059" d="M138,134.259 L144.001,146.656 L150,134.259 L150,17.951 L138,17.951 L138,134.259 Z M144.001,151.246 L136,134.718 L136,15.951 L152,15.951 L152,134.718 L144.001,151.246 Z"/>
    <polyline fill="#475059" points="140.768 142.986 140.771 140.986 147.054 140.997 147.05 142.997 140.768 142.986"/>
    <polyline fill="#475059" points="141.487 135.758 139.18 133.952 137.647 135.251 136.354 133.725 139.129 131.374 141.487 133.219 143.816 131.398 146.196 133.229 148.919 131.413 151.647 133.725 150.354 135.251 148.774 133.913 146.112 135.688 143.826 133.929 141.487 135.758"/>
    <polygon fill="#475059" points="136.001 11.952 152.001 11.952 152.001 9.952 136.001 9.952"/>
    <path fill="#475059" d="M158.995,52.398 C157.796,52.821 156.993,53.954 156.99,55.226 L156.99,73.23 C157.583,72.783 158.268,72.475 158.995,72.328 L158.995,52.398 Z M181.994,82.225 L159.992,82.225 C157.232,82.227 154.992,79.991 154.99,77.231 C154.99,77.229 154.99,77.227 154.99,77.225 L154.99,55.225 C154.994,52.467 157.23,50.232 159.988,50.228 L160.99,50.229 L160.995,51.228 L160.995,74.228 L159.994,74.228 C158.338,74.227 156.994,75.567 156.992,77.223 C156.99,78.879 158.331,80.223 159.987,80.225 L181.988,80.225 C183.644,80.226 184.988,78.885 184.989,77.229 C184.99,75.573 183.649,74.23 181.993,74.228 L181.991,74.228 L180.991,74.229 L180.985,73.228 L180.985,50.228 L181.987,50.228 C184.748,50.229 186.986,52.465 186.991,55.225 L184.991,55.226 C184.99,53.953 184.186,52.819 182.985,52.396 L182.985,72.327 C185.691,72.875 187.44,75.513 186.892,78.219 C186.419,80.549 184.371,82.224 181.994,82.225 Z"/>
    <polygon fill="#475059" points="184.991 77.225 186.991 77.225 186.991 55.225 184.991 55.225"/>
    <polyline fill="#475059" points="181.994 60.225 159.992 60.225 159.987 58.225 181.988 58.225 181.994 60.225"/>
    <path fill="#475059" d="M165.99,75.227 L175.99,75.227 L175.99,65.227 L165.99,65.227 L165.99,75.227 Z M163.99,77.227 L177.99,77.227 L177.99,63.227 L163.99,63.227 L163.99,77.227 Z"/>
    <polygon fill="#475059" points="169.99 68.224 171.99 68.224 171.99 64.227 169.99 64.227"/>
    <polygon fill="#475059" points="164.99 72.226 171.99 72.226 171.99 70.226 164.99 70.226"/>
    <polygon fill="#475059" points="20.001 150.947 141.002 150.947 141.002 148.947 20.001 148.947"/>
    <polygon fill="#475059" points="16.001 150.951 18.001 150.951 18.001 148.951 16.001 148.951"/>
    <polygon fill="#48515A" points="13.021 104.026 15.021 104.026 15.021 100.026 13.021 100.026"/>
    <polygon fill="#48515A" points="13.021 114.026 15.021 114.026 15.021 110.026 13.021 110.026"/>
    <polygon fill="#48515A" points="17.021 108.026 21.021 108.026 21.021 106.026 17.021 106.026"/>
    <polygon fill="#48515A" points="7.021 108.026 11.021 108.026 11.021 106.026 7.021 106.026"/>
    <polygon fill="#48515A" points="170.115 33.984 172.115 33.984 172.115 29.984 170.115 29.984"/>
    <polygon fill="#48515A" points="170.115 43.984 172.115 43.984 172.115 39.984 170.115 39.984"/>
    <polygon fill="#48515A" points="174.115 37.984 178.115 37.984 178.115 35.984 174.115 35.984"/>
    <polygon fill="#48515A" points="164.115 37.984 168.115 37.984 168.115 35.984 164.115 35.984"/>
    <polygon fill="#48515A" points="113.033 13.984 115.033 13.984 115.033 9.984 113.033 9.984"/>
    <polygon fill="#48515A" points="113.033 23.984 115.033 23.984 115.033 19.984 113.033 19.984"/>
    <polygon fill="#48515A" points="117.033 17.984 121.033 17.984 121.033 15.984 117.033 15.984"/>
    <polygon fill="#48515A" points="107.033 17.984 111.033 17.984 111.033 15.984 107.033 15.984"/>
    <path fill="#FFD15D" d="M157.012 152C158.669 152 160.012 153.343 160.012 155 160.012 156.657 158.669 158 157.012 158 155.356 158 154.012 156.657 154.012 155 154.012 153.343 155.356 152 157.012 152M179.026 88.951C180.13 88.951 181.026 89.846 181.026 90.951 181.026 92.056 180.13 92.951 179.026 92.951 177.921 92.951 177.026 92.056 177.026 90.951 177.026 89.846 177.921 88.951 179.026 88.951"/>
    <path fill="#DEDEDD" d="M22.99,18.956 C24.646,18.956 25.99,20.299 25.99,21.956 C25.99,23.613 24.646,24.956 22.99,24.956 C21.333,24.956 19.99,23.613 19.99,21.956 C19.99,20.299 21.333,18.956 22.99,18.956"/>
  </g>
</svg>
