<svg xmlns="http://www.w3.org/2000/svg" width="191" height="194" viewBox="0 0 191 194">
  <g fill="none" fill-rule="evenodd">
    <path fill="#475059" d="M50.041,100.198 L62.347,100.198 L71.402,110.228 L83.487,105.222 L82.797,91.726 L91.499,83.025 L104.995,83.715 L110,71.63 L99.97,62.575 L99.97,50.269 L110,41.214 L104.995,29.129 L91.499,29.818 L82.797,21.117 L83.487,7.621 L71.402,2.616 L62.347,12.646 L50.041,12.646 L40.986,2.616 L28.901,7.622 L29.59,21.117 L20.889,29.818 L7.394,29.129 L2.388,41.214 L12.417,50.269 L12.417,62.575 L2.388,71.63 L7.394,83.715 L20.889,83.025 L29.59,91.727 L28.901,105.222 L40.986,110.228 L50.041,100.198 Z M70.863,112.616 L61.458,102.198 L50.93,102.198 L41.525,112.616 L26.831,106.53 L27.547,92.513 L20.103,85.068 L6.086,85.784 L0,71.091 L10.418,61.686 L10.418,51.158 L0,41.753 L6.086,27.06 L20.103,27.775 L27.547,20.331 L26.831,6.314 L41.525,0.228 L50.93,10.646 L61.458,10.646 L70.863,0.228 L85.556,6.314 L84.84,20.331 L92.285,27.775 L106.301,27.06 L112.388,41.753 L101.97,51.158 L101.97,61.686 L112.388,71.091 L106.301,85.784 L92.285,85.068 L84.84,92.513 L85.556,106.53 L70.863,112.616 Z"/>
    <path fill="#475059" d="M56.194,43.422 C49.014,43.422 43.194,49.242 43.194,56.422 C43.194,63.602 49.014,69.422 56.194,69.422 C63.374,69.422 69.194,63.602 69.194,56.422 C69.186,49.245 63.37,43.43 56.194,43.422 Z M56.194,71.422 C47.91,71.422 41.194,64.706 41.194,56.422 C41.194,48.138 47.91,41.422 56.194,41.422 C64.478,41.422 71.194,48.138 71.194,56.422 C71.185,64.702 64.474,71.413 56.194,71.422 Z"/>
    <path fill="#475059" d="M56.194,39.422 C46.805,39.422 39.194,47.033 39.194,56.422 C39.194,65.811 46.805,73.422 56.194,73.422 C65.583,73.422 73.194,65.811 73.194,56.422 C73.183,47.037 65.578,39.432 56.194,39.422 Z M56.194,75.422 C45.7,75.422 37.194,66.915 37.194,56.422 C37.194,45.928 45.7,37.422 56.194,37.422 C66.687,37.422 75.194,45.928 75.194,56.422 C75.182,66.91 66.682,75.41 56.194,75.422 Z"/>
    <path fill="#F58E70" d="M56.194,45.422 C50.119,45.422 45.194,50.347 45.194,56.422 C45.194,62.497 50.119,67.422 56.194,67.422 C62.269,67.422 67.194,62.497 67.194,56.422 C67.187,50.35 62.266,45.429 56.194,45.422"/>
    <path fill="#DEDEDD" d="M56.194,77.422 C44.596,77.422 35.194,68.02 35.194,56.422 C35.194,44.824 44.596,35.422 56.194,35.422 C67.792,35.422 77.194,44.824 77.194,56.422 C77.181,68.014 67.786,77.409 56.194,77.422 Z M56.194,30.422 C41.834,30.422 30.194,42.062 30.194,56.422 C30.194,70.781 41.834,82.422 56.194,82.422 C70.553,82.422 82.194,70.781 82.194,56.422 C82.178,42.069 70.547,30.438 56.194,30.422 Z"/>
    <path fill="#DEDEDD" d="M56.194,90.422 C37.416,90.422 22.194,75.2 22.194,56.422 C22.194,37.644 37.416,22.422 56.194,22.422 C74.971,22.422 90.194,37.644 90.194,56.422 C90.173,75.191 74.963,90.401 56.194,90.422 Z M97.97,49.38 L107.612,40.675 L103.687,31.198 L90.713,31.861 L80.755,21.902 L81.418,8.929 L71.94,5.004 L63.236,14.646 L49.152,14.646 L40.447,5.004 L30.97,8.929 L31.633,21.902 L21.674,31.861 L8.701,31.198 L4.776,40.675 L14.417,49.38 L14.417,63.464 L4.776,72.168 L8.701,81.646 L21.674,80.983 L31.633,90.941 L30.97,103.915 L40.447,107.84 L49.152,98.198 L63.236,98.198 L71.94,107.84 L81.418,103.915 L80.755,90.941 L90.713,80.983 L103.687,81.646 L107.612,72.168 L97.97,63.464 L97.97,49.38 Z"/>
    <path fill="#475059" d="M126.7,192 L139.78,192 L144.308,179.268 L155.677,174.559 L167.881,180.36 L177.13,171.111 L171.33,158.907 L176.039,147.538 L188.77,143.01 L188.77,129.929 L176.039,125.402 L171.33,114.033 L177.13,101.829 L167.881,92.579 L155.677,98.38 L144.308,93.671 L139.78,80.939 L126.7,80.939 L122.171,93.671 L110.802,98.38 L98.599,92.579 L89.35,101.829 L95.15,114.033 L90.441,125.402 L77.71,129.929 L77.71,143.01 L90.441,147.538 L95.15,158.907 L89.35,171.111 L98.599,180.36 L110.802,174.559 L122.171,179.268 L126.7,192 Z M141.192,194 L125.288,194 L120.585,180.776 L110.859,176.747 L98.183,182.772 L86.937,171.527 L92.963,158.851 L88.934,149.125 L75.71,144.421 L75.71,128.518 L88.934,123.815 L92.963,114.089 L86.937,101.413 L98.183,90.167 L110.859,96.193 L120.585,92.164 L125.288,78.939 L141.192,78.939 L145.894,92.164 L155.621,96.193 L168.297,90.167 L179.542,101.413 L173.517,114.089 L177.546,123.815 L190.77,128.518 L190.77,144.421 L177.546,149.124 L173.517,158.851 L179.542,171.527 L168.297,182.772 L155.621,176.747 L145.894,180.776 L141.192,194 Z"/>
    <path fill="#475059" d="M133.24,123.463 C126.044,123.451 120.201,129.274 120.189,136.47 C120.177,143.666 126,149.509 133.196,149.521 C140.391,149.533 146.234,143.71 146.247,136.514 C146.256,131.241 143.085,126.482 138.215,124.459 C136.639,123.803 134.948,123.464 133.24,123.463 Z M133.241,151.478 C124.947,151.491 118.212,144.778 118.199,136.484 C118.185,128.19 124.898,121.456 133.192,121.442 C141.487,121.429 148.221,128.142 148.234,136.436 C148.244,142.513 144.591,147.996 138.98,150.328 C137.161,151.085 135.211,151.476 133.241,151.478 Z"/>
    <path fill="#475059" d="M133.241,119.46 C123.847,119.454 116.226,127.065 116.22,136.459 C116.214,145.853 123.824,153.473 133.218,153.479 C142.613,153.486 150.233,145.875 150.239,136.481 C150.241,134.245 149.801,132.03 148.946,129.964 C146.309,123.615 140.115,119.473 133.241,119.46 Z M133.265,155.47 C122.772,155.483 114.255,146.988 114.241,136.495 C114.228,126.003 122.723,117.485 133.216,117.472 C143.709,117.458 152.226,125.953 152.239,136.446 C152.249,144.139 147.619,151.079 140.511,154.023 C138.214,154.974 135.752,155.466 133.265,155.47 Z"/>
    <path fill="#F58E70" d="M129.031,126.307 C123.418,128.632 120.753,135.067 123.077,140.679 C125.402,146.292 131.837,148.957 137.45,146.633 C143.062,144.308 145.728,137.873 143.403,132.26 C141.073,126.653 134.643,123.99 129.031,126.307"/>
    <path fill="#DEDEDD" d="M141.276,155.871 C130.561,160.31 118.277,155.221 113.839,144.506 C109.4,133.791 114.489,121.507 125.204,117.068 C135.919,112.63 148.203,117.718 152.642,128.433 C157.066,139.149 151.982,151.423 141.276,155.871 Z M123.29,112.449 C110.024,117.944 103.724,133.153 109.219,146.42 C114.714,159.686 129.923,165.986 143.19,160.491 C156.456,154.996 162.756,139.786 157.261,126.52 C151.753,113.266 136.557,106.971 123.29,112.449 Z"/>
    <path fill="#DEDEDD" d="M146.251,167.882 C128.903,175.068 109.014,166.829 101.828,149.481 C94.642,132.133 102.881,112.244 120.229,105.058 C137.577,97.872 157.466,106.11 164.652,123.459 C171.815,140.807 163.583,160.68 146.251,167.882 Z M169.142,113.977 L174.718,102.245 L167.465,94.991 L155.733,100.568 L142.721,95.179 L138.369,82.94 L128.111,82.94 L123.759,95.179 L110.747,100.568 L99.015,94.992 L91.762,102.245 L97.339,113.977 L91.949,126.988 L79.71,131.341 L79.71,141.599 L91.949,145.951 L97.339,158.963 L91.762,170.695 L99.015,177.948 L110.747,172.371 L123.758,177.76 L128.111,190 L138.369,190 L142.721,177.761 L155.733,172.371 L167.465,177.948 L174.718,170.695 L169.141,158.962 L174.531,145.951 L186.771,141.598 L186.77,131.341 L174.531,126.989 L169.142,113.977 Z"/>
    <path fill="#475059" d="M131.428,67.969 L135.005,67.969 L136.78,63.946 L140.076,62.043 L144.447,62.518 L146.235,59.42 L143.638,55.872 L143.638,52.067 L146.235,48.519 L144.447,45.42 L140.076,45.895 L136.78,43.993 L135.005,39.969 L131.428,39.969 L129.654,43.993 L126.358,45.895 L121.987,45.42 L120.198,48.519 L122.795,52.066 L122.795,55.872 L120.198,59.42 L121.987,62.519 L126.358,62.044 L129.654,63.946 L131.428,67.969 Z M136.31,69.969 L130.124,69.969 L128.087,65.351 L125.924,64.102 L120.907,64.648 L117.813,59.291 L120.795,55.218 L120.795,52.721 L117.813,48.647 L120.907,43.291 L125.924,43.836 L128.087,42.587 L130.124,37.969 L136.31,37.969 L138.346,42.587 L140.509,43.836 L145.527,43.291 L148.62,48.647 L145.638,52.72 L145.638,55.218 L148.62,59.291 L145.527,64.647 L140.509,64.102 L138.346,65.351 L136.31,69.969 Z"/>
    <path fill="#475059" d="M133.216,51.969 C132.112,51.969 131.216,52.865 131.216,53.969 C131.216,55.074 132.112,55.969 133.216,55.969 C134.321,55.969 135.216,55.074 135.216,53.969 C135.215,52.865 134.32,51.971 133.216,51.969 Z M133.216,57.969 C131.007,57.969 129.216,56.178 129.216,53.969 C129.216,51.76 131.007,49.969 133.216,49.969 C135.425,49.969 137.216,51.76 137.216,53.969 C137.214,56.177 135.424,57.967 133.216,57.969 Z"/>
    <path fill="#475059" d="M133.216,47.969 C129.903,47.969 127.216,50.656 127.216,53.969 C127.216,57.283 129.903,59.969 133.216,59.969 C136.53,59.969 139.216,57.283 139.216,53.969 C139.213,50.657 136.529,47.973 133.216,47.969 Z M133.216,61.969 C128.798,61.969 125.216,58.387 125.216,53.969 C125.216,49.551 128.798,45.969 133.216,45.969 C137.635,45.969 141.216,49.551 141.216,53.969 C141.211,58.385 137.632,61.964 133.216,61.969 Z"/>
    <polygon fill="#48515A" points="33.265 136.037 35.265 136.037 35.265 132.037 33.265 132.037"/>
    <polygon fill="#48515A" points="33.265 146.037 35.265 146.037 35.265 142.037 33.265 142.037"/>
    <polygon fill="#48515A" points="37.265 140.037 41.265 140.037 41.265 138.037 37.265 138.037"/>
    <polygon fill="#48515A" points="27.265 140.037 31.265 140.037 31.265 138.037 27.265 138.037"/>
    <polygon fill="#48515A" points="173.348 65.995 175.348 65.995 175.348 61.995 173.348 61.995"/>
    <polygon fill="#48515A" points="173.348 75.995 175.348 75.995 175.348 71.995 173.348 71.995"/>
    <polygon fill="#48515A" points="177.348 69.995 181.348 69.995 181.348 67.995 177.348 67.995"/>
    <polygon fill="#48515A" points="167.348 69.995 171.348 69.995 171.348 67.995 167.348 67.995"/>
    <path fill="#5FE0ED" d="M14.206 115.025C16.415 115.025 18.206 116.816 18.206 119.025 18.206 121.234 16.415 123.025 14.206 123.025 11.997 123.025 10.206 121.234 10.206 119.025 10.206 116.816 11.997 115.025 14.206 115.025M154.29 69.998C156.499 69.998 158.29 71.789 158.29 73.998 158.29 76.207 156.499 77.998 154.29 77.998 152.081 77.998 150.29 76.207 150.29 73.998 150.29 71.789 152.081 69.998 154.29 69.998"/>
    <path fill="#F58E70" d="M54.23,167.055 C55.334,167.055 56.23,167.951 56.23,169.055 C56.23,170.16 55.334,171.055 54.23,171.055 C53.125,171.055 52.23,170.16 52.23,169.055 C52.23,167.951 53.125,167.055 54.23,167.055"/>
  </g>
</svg>
