<svg xmlns="http://www.w3.org/2000/svg" xmlns:xlink="http://www.w3.org/1999/xlink" width="178" height="193" viewBox="0 0 178 193">
  <defs>
    <polygon id="cc420-a" points=".06 0 14 0 14 2 .06 2"/>
    <polygon id="cc420-c" points=".02 .999 69 .999 69 56.94 .02 56.94"/>
  </defs>
  <g fill="none" fill-rule="evenodd">
    <polyline fill="#475059" points="134.513 125.999 36.513 125.999 36.513 62.747 134.513 62.747 134.513 97.413 128.22 103.706 126.806 102.292 132.513 96.586 132.513 64.747 38.513 64.747 38.513 123.999 132.513 123.999 132.513 104.999 134.513 104.999 134.513 125.999"/>
    <path fill="#DFE0E0" d="M151.132 40L152 40.253 152 141.149C157.485 141.151 161.929 145.599 161.927 151.084 161.925 156.569 157.477 161.013 151.992 161.011 151.836 161.011 151.679 161.007 151.523 161L146 161 146 40 151.132 40M14.688 40L14 40.253 14 141.149C8.551 141.262 4.147 145.626 3.984 151.074 4.074 156.647 8.665 161.091 14.238 161.001 14.258 161.001 14.278 161 14.297 161L20 161 20 40 14.688 40"/>
    <path fill="#FFD15D" d="M152 24.2589987C157 24.256 162 29.469 162 35.085L162 151.981C162 146.698 157 141.692 152 141.198L152 24.2589987M15 24.2589985C9 24.256 4 28.802 4 34.418L4 151.314C4 146.031 9 141.692 15 141.198L15 24.2589985"/>
    <path fill="#48515A" d="M13,25.2513409 C11.12,25.227 9.301,25.914 7.908,27.176 C5.968,29.077 4.914,31.703 5,34.417 L5,145.054 C6.84,142.356 9.757,140.585 13,140.199 L13,25.2513409 Z M153,140.201 C156.285,140.612 159.217,142.464 161,145.254 L161,34.945 C161,30.326 156.975,26.403 153,25.468 L153,140.201 Z M151.523,162 L14.297,162 C7.962,162 3,157.306 3,151.313 L2.983,151.313 C2.983,151.118 2.989,150.923 3,150.728 L3,34.417 C2.913,31.139 4.206,27.975 6.563,25.696 C8.611,23.848 11.357,22.976 14.096,23.305 L15,23.392 L15,142.149 L14,142.149 C9.265,142.373 5.422,146.058 5,150.779 L5,151.313 C5,156.185 9.084,160 14.297,160 L151.523,160 C156.838,160 161,156.185 161,151.313 L160.852,151.313 C160.852,146.517 156.633,142.149 152,142.149 L151,142.149 L151,23.195 L152.093,23.297 C157.903,23.836 163,29.279 163,34.945 L163,151.313 C163,157.306 157.959,162 151.523,162 Z"/>
    <path fill="#48515A" d="M151,41 L15,41 C14.448,41 14,40.552 14,40 C14,39.448 14.448,39 15,39 L151,39 C151.552,39 152,39.448 152,40 C152,40.552 151.552,41 151,41"/>
    <polygon fill="#FFF" points="26 188.999 62 188.999 62 136.999 26 136.999"/>
    <path fill="#475059" d="M27,187.999 L61,187.999 L61,137.999 L27,137.999 L27,187.999 Z M25,189.999 L63,189.999 L63,135.999 L25,135.999 L25,189.999 Z"/>
    <polygon fill="#FFF" points="30 160.999 34 160.999 34 156.999 30 156.999"/>
    <path fill="#475059" d="M31,159.999 L33,159.999 L33,157.999 L31,157.999 L31,159.999 Z M29,161.999 L35,161.999 L35,155.999 L29,155.999 L29,161.999 Z"/>
    <polygon fill="#FFF" points="30 168.999 34 168.999 34 164.999 30 164.999"/>
    <path fill="#475059" d="M31,167.999 L33,167.999 L33,165.999 L31,165.999 L31,167.999 Z M29,169.999 L35,169.999 L35,163.999 L29,163.999 L29,169.999 Z"/>
    <polygon fill="#FFF" points="30 176.999 34 176.999 34 172.999 30 172.999"/>
    <path fill="#475059" d="M31,175.999 L33,175.999 L33,173.999 L31,173.999 L31,175.999 Z M29,177.999 L35,177.999 L35,171.999 L29,171.999 L29,177.999 Z"/>
    <polygon fill="#FFF" points="30 184.999 34 184.999 34 180.999 30 180.999"/>
    <path fill="#475059" d="M31,183.999 L33,183.999 L33,181.999 L31,181.999 L31,183.999 Z M29,185.999 L35,185.999 L35,179.999 L29,179.999 L29,185.999 Z"/>
    <polygon fill="#FFF" points="38 160.999 42 160.999 42 156.999 38 156.999"/>
    <path fill="#475059" d="M39,159.999 L41,159.999 L41,157.999 L39,157.999 L39,159.999 Z M37,161.999 L43,161.999 L43,155.999 L37,155.999 L37,161.999 Z"/>
    <polygon fill="#FFF" points="38 168.999 42 168.999 42 164.999 38 164.999"/>
    <path fill="#475059" d="M39,167.999 L41,167.999 L41,165.999 L39,165.999 L39,167.999 Z M37,169.999 L43,169.999 L43,163.999 L37,163.999 L37,169.999 Z"/>
    <polygon fill="#FFF" points="38 176.999 42 176.999 42 172.999 38 172.999"/>
    <path fill="#475059" d="M39,175.999 L41,175.999 L41,173.999 L39,173.999 L39,175.999 Z M37,177.999 L43,177.999 L43,171.999 L37,171.999 L37,177.999 Z"/>
    <polygon fill="#FFF" points="38 184.999 42 184.999 42 180.999 38 180.999"/>
    <path fill="#475059" d="M39,183.999 L41,183.999 L41,181.999 L39,181.999 L39,183.999 Z M37,185.999 L43,185.999 L43,179.999 L37,179.999 L37,185.999 Z"/>
    <polygon fill="#FFF" points="46 160.999 50 160.999 50 156.999 46 156.999"/>
    <path fill="#475059" d="M47,159.999 L49,159.999 L49,157.999 L47,157.999 L47,159.999 Z M45,161.999 L51,161.999 L51,155.999 L45,155.999 L45,161.999 Z"/>
    <polygon fill="#FFF" points="46 168.999 50 168.999 50 164.999 46 164.999"/>
    <path fill="#475059" d="M47,167.999 L49,167.999 L49,165.999 L47,165.999 L47,167.999 Z M45,169.999 L51,169.999 L51,163.999 L45,163.999 L45,169.999 Z"/>
    <polygon fill="#FFF" points="46 176.999 50 176.999 50 172.999 46 172.999"/>
    <path fill="#475059" d="M47,175.999 L49,175.999 L49,173.999 L47,173.999 L47,175.999 Z M45,177.999 L51,177.999 L51,171.999 L45,171.999 L45,177.999 Z"/>
    <polygon fill="#FFF" points="46 184.999 50 184.999 50 180.999 46 180.999"/>
    <path fill="#475059" d="M47,183.999 L49,183.999 L49,181.999 L47,181.999 L47,183.999 Z M45,185.999 L51,185.999 L51,179.999 L45,179.999 L45,185.999 Z"/>
    <polygon fill="#FFF" points="54 160.999 58 160.999 58 156.999 54 156.999"/>
    <path fill="#475059" d="M55,159.999 L57,159.999 L57,157.999 L55,157.999 L55,159.999 Z M53,161.999 L59,161.999 L59,155.999 L53,155.999 L53,161.999 Z"/>
    <polygon fill="#FFF" points="54 168.999 58 168.999 58 164.999 54 164.999"/>
    <path fill="#475059" d="M55,167.999 L57,167.999 L57,165.999 L55,165.999 L55,167.999 Z M53,169.999 L59,169.999 L59,163.999 L53,163.999 L53,169.999 Z"/>
    <polygon fill="#FFF" points="54 184.999 58 184.999 58 172.999 54 172.999"/>
    <path fill="#475059" d="M55,183.999 L57,183.999 L57,173.999 L55,173.999 L55,183.999 Z M53,185.999 L59,185.999 L59,171.999 L53,171.999 L53,185.999 Z"/>
    <polygon fill="#475059" points="26 153.999 62 153.999 62 151.999 26 151.999"/>
    <polygon fill="#FFF" points="30 148.999 58 148.999 58 140.999 30 140.999"/>
    <path fill="#475059" d="M31,147.999 L57,147.999 L57,141.999 L31,141.999 L31,147.999 Z M29,149.999 L59,149.999 L59,139.999 L29,139.999 L29,149.999 Z"/>
    <path fill="#475059" d="M33,145.999 L35,145.999 L35,143.999 L33,143.999 L33,145.999 Z M37,145.999 L39,145.999 L39,143.999 L37,143.999 L37,145.999 Z M41,145.999 L43,145.999 L43,143.999 L41,143.999 L41,145.999 Z M45,145.999 L47,145.999 L47,143.999 L45,143.999 L45,145.999 Z M49,145.999 L51,145.999 L51,143.999 L49,143.999 L49,145.999 Z M53,145.999 L55,145.999 L55,143.999 L53,143.999 L53,145.999 Z"/>
    <polygon fill="#48515A" points="6 171 8 171 8 167 6 167"/>
    <polygon fill="#48515A" points="6 181 8 181 8 177 6 177"/>
    <g transform="translate(0 173)">
      <mask id="cc420-b" fill="#fff">
        <use xlink:href="#cc420-a"/>
      </mask>
      <polygon fill="#48515A" points="10 2 14 2 14 0 10 0" mask="url(#cc420-b)"/>
      <polygon fill="#48515A" points=".06 2 4 2 4 0 .06 0" mask="url(#cc420-b)"/>
    </g>
    <path fill="#FFD15D" d="M27.02,15 C28.677,15 30.02,16.343 30.02,18 C30.02,19.657 28.677,21 27.02,21 C25.363,21 24.02,19.657 24.02,18 C24.02,16.343 25.363,15 27.02,15"/>
    <g transform="translate(72 136)">
      <mask id="cc420-d" fill="#fff">
        <use xlink:href="#cc420-c"/>
      </mask>
      <path fill="#FFD15D" d="M2.02,29 C3.125,29 4.02,29.895 4.02,31 C4.02,32.104 3.125,33 2.02,33 C0.916,33 0.02,32.104 0.02,31 C0.02,29.895 0.916,29 2.02,29" mask="url(#cc420-d)"/>
      <path fill="#48515A" d="M16.433,55 L67,55 L67,4.42 L58.056,13.397 L58.055,13.399 L16.433,55 Z M68,57 L14.021,57 C13.468,57 13.021,56.553 13.021,56.001 C13.021,55.735 13.126,55.481 13.313,55.293 L67.292,1.293 C67.682,0.902 68.314,0.901 68.706,1.29 C68.894,1.478 69,1.733 69,1.999 L69,56 C69,56.552 68.553,57 68.001,57 C68,57 68,57 68,57 Z" mask="url(#cc420-d)"/>
    </g>
    <path fill="#48515A" d="M113.995,180 L128,180 L128,166.215 L113.995,180 Z M129,182 L111.554,182 C111.002,182 110.554,181.553 110.553,181.001 C110.553,180.732 110.661,180.475 110.853,180.287 L128.299,163.114 C128.692,162.727 129.325,162.732 129.713,163.126 C129.897,163.313 130,163.565 130,163.827 L130,181 C130,181.552 129.553,182 129.001,182 C129,182 129,182 129,182 Z"/>
    <path fill="#F58E70" d="M136.02,45 C137.125,45 138.02,45.895 138.02,47 C138.02,48.104 137.125,49 136.02,49 C134.916,49 134.02,48.104 134.02,47 C134.02,45.895 134.916,45 136.02,45"/>
    <path fill="#475059" d="M74.019,8.999 C69.048,8.999 65.019,13.028 65.019,17.999 C65.019,22.97 69.048,26.999 74.019,26.999 C78.989,26.999 83.019,22.97 83.019,17.999 C83.013,13.031 78.987,9.005 74.019,8.999 Z M74.019,28.999 C67.943,28.999 63.019,24.074 63.019,17.999 C63.019,11.924 67.943,6.999 74.019,6.999 C80.094,6.999 85.019,11.924 85.019,17.999 C85.012,24.071 80.091,28.992 74.019,28.999 Z M74.019,2.999 C65.734,2.999 59.019,9.715 59.019,17.999 C59.019,26.283 65.734,32.999 74.019,32.999 C82.303,32.999 89.019,26.283 89.019,17.999 C89.009,9.719 82.299,3.008 74.019,2.999 Z M74.019,34.999 C64.63,34.999 57.019,27.388 57.019,17.999 C57.019,8.61 64.63,0.999 74.019,0.999 C83.407,0.999 91.019,8.61 91.019,17.999 C91.008,27.383 83.403,34.988 74.019,34.999 Z"/>
    <path fill="#475059" d="M74.019,14.999 C72.362,14.999 71.019,16.342 71.019,17.999 C71.019,19.656 72.362,20.999 74.019,20.999 C75.675,20.999 77.019,19.656 77.019,17.999 C77.017,16.343 75.675,15.001 74.019,14.999 Z M74.019,22.999 C71.257,22.999 69.019,20.76 69.019,17.999 C69.019,15.238 71.257,12.999 74.019,12.999 C76.78,12.999 79.019,15.238 79.019,17.999 C79.015,20.759 76.779,22.996 74.019,22.999 Z"/>
    <path fill="#F58E70" d="M74.019,13.999 C76.228,13.999 78.019,15.79 78.019,17.999 C78.019,20.208 76.228,21.999 74.019,21.999 C71.81,21.999 70.019,20.208 70.019,17.999 C70.019,15.79 71.81,13.999 74.019,13.999"/>
    <path fill="#F58E70" d="M74.019,14.999 C72.362,14.999 71.019,16.342 71.019,17.999 C71.019,19.656 72.362,20.999 74.019,20.999 C75.675,20.999 77.019,19.656 77.019,17.999 C77.017,16.343 75.675,15.001 74.019,14.999 Z M74.019,22.999 C71.257,22.999 69.019,20.76 69.019,17.999 C69.019,15.238 71.257,12.999 74.019,12.999 C76.78,12.999 79.019,15.238 79.019,17.999 C79.015,20.759 76.779,22.996 74.019,22.999 Z"/>
    <polygon fill="#475059" points="47 19 74 19 74 17 47 17"/>
    <path fill="#475059" d="M40.435 21L43.606 21 46.606 18 43.606 15 40.435 15 43.435 18 40.435 21zM44.435 23L35.606 23 40.606 18 35.606 13 44.435 13 49.435 18 44.435 23zM100.96 13C99.303 13 97.96 14.344 97.961 16.001 97.961 17.657 99.304 19 100.961 19L166.131 19 172.638 16 166.131 13 100.96 13zM166.57 21L100.961 21C98.2 21 95.961 18.762 95.96 16.001 95.96 13.239 98.199 11 100.96 11L166.57 11 177.413 16 166.57 21z"/>
    <polygon fill="#475059" points="107 20 109 20 109 12 107 12"/>
    <polygon fill="#475059" points="108 17 166 17 166 15 108 15"/>
    <polygon fill="#475059" points="72.512 82.001 74.512 82.001 74.512 63.746 72.512 63.746"/>
    <polyline fill="#FFF" points="37.513 89 73.513 89 73.513 97"/>
    <polyline fill="#475059" points="74.513 97 72.513 97 72.513 90 37.513 90 37.513 87.999 74.513 87.999 74.513 97"/>
    <polygon fill="#475059" points="72.346 124.833 74.346 124.833 74.346 103.499 72.346 103.499"/>
    <polygon fill="#475059" points="105.513 89.999 133.513 89.999 133.513 87.999 105.513 87.999"/>
    <polygon fill="#475059" points="73.513 89.999 97.513 89.999 97.513 87.999 73.513 87.999"/>
  </g>
</svg>
