<svg xmlns="http://www.w3.org/2000/svg" xmlns:xlink="http://www.w3.org/1999/xlink" width="193" height="163" viewBox="0 0 193 163">
  <defs>
    <polygon id="cc423-a" points=".088 0 180.107 0 180.107 81.94 .088 81.94"/>
  </defs>
  <g fill="none" fill-rule="evenodd">
    <g transform="translate(5 81)">
      <mask id="cc423-b" fill="#fff">
        <use xlink:href="#cc423-a"/>
      </mask>
      <path fill="#F58E70" d="M96.107,41 C96.117,25.8 104.149,11.734 117.233,4 L41.877,4 C31.643,4.04 21.848,8.169 14.673,15.467 C7.738,22.426 3.921,31.9 4.094,41.722 C4.583,61.83 20.974,77.904 41.087,78 L117.233,78 C104.149,70.266 96.117,56.2 96.107,41" mask="url(#cc423-b)"/>
      <path fill="#475059" d="M139.107,2 C117.568,2 100.107,19.461 100.107,41 C100.107,62.539 117.568,80 139.107,80 C160.646,80 178.107,62.539 178.107,41 C178.083,19.471 160.636,2.024 139.107,2 Z M139.107,82 C116.463,82 98.107,63.644 98.107,41 C98.107,18.356 116.463,0 139.107,0 C161.751,0 180.107,18.356 180.107,41 C180.081,63.633 161.74,81.974 139.107,82 Z" mask="url(#cc423-b)"/>
      <path fill="#475059" d="M41.877,2 C31.106,2.041 20.797,6.386 13.245,14.066 C5.933,21.408 1.91,31.4 2.095,41.761 C2.61,62.955 19.886,79.898 41.087,80 L139.107,80 C160.646,80 178.107,62.539 178.107,41 C178.107,19.461 160.646,2 139.107,2 L41.877,2 Z M139.107,82 L41.087,82 C18.799,81.893 0.636,64.081 0.095,41.799 C-0.102,30.901 4.128,20.39 11.817,12.666 C19.747,4.603 30.569,0.043 41.877,0 L139.107,0 C161.751,0 180.107,18.356 180.107,41 C180.107,63.644 161.751,82 139.107,82 Z" mask="url(#cc423-b)"/>
    </g>
    <polygon fill="#475059" points="40.373 151.571 74.659 151.571 74.659 149.571 40.373 149.571"/>
    <polygon fill="#475059" points="28.945 140.142 57.516 140.142 57.516 138.142 28.945 138.142"/>
    <polygon fill="#475059" points="34.659 94.428 74.659 94.428 74.659 92.428 34.659 92.428"/>
    <polygon fill="#475059" points="80.373 151.571 97.516 151.571 97.516 149.571 80.373 149.571"/>
    <polygon fill="#475059" points="80.373 94.428 91.802 94.428 91.802 92.428 80.373 92.428"/>
    <path fill="#475059" d="M144.107,153 C126.986,153 113.107,139.121 113.107,122 C113.107,104.879 126.986,91 144.107,91 L144.107,93 C128.091,93 115.107,105.984 115.107,122 C115.107,138.016 128.091,151 144.107,151 C160.123,151 173.107,138.016 173.107,122 L175.107,122 C175.088,139.113 161.22,152.981 144.107,153"/>
    <path fill="#475059" d="M144.107,148 C129.748,148 118.107,136.359 118.107,122 C118.107,107.64 129.748,96 144.107,96 C158.466,96 170.107,107.64 170.107,122 L168.107,122 C168.107,108.745 157.362,98 144.107,98 C130.852,98 120.107,108.745 120.107,122 C120.107,135.255 130.852,146 144.107,146 L144.107,148"/>
    <path fill="#475059" d="M144.107,143 C132.514,142.987 123.12,133.592 123.107,122 L125.107,122 C125.107,132.493 133.614,141 144.107,141 C154.6,141 163.107,132.493 163.107,122 C163.107,111.506 154.6,103 144.107,103 L144.107,101 C155.705,101 165.107,110.402 165.107,122 C165.107,133.598 155.705,143 144.107,143"/>
    <path fill="#475059" d="M144.107,138 C135.27,138 128.107,130.836 128.107,122 C128.107,113.163 135.27,106 144.107,106 L144.107,108 C136.375,108 130.107,114.268 130.107,122 C130.107,129.732 136.375,136 144.107,136 C151.839,136 158.107,129.732 158.107,122 L160.107,122 C160.097,130.832 152.939,137.99 144.107,138"/>
    <path fill="#475059" d="M144.107,133 C138.032,133 133.107,128.075 133.107,122 C133.107,115.925 138.032,111 144.107,111 C150.182,111 155.107,115.925 155.107,122 L153.107,122 C153.107,117.029 149.077,113 144.107,113 C139.136,113 135.107,117.029 135.107,122 C135.107,126.97 139.136,131 144.107,131 L144.107,133"/>
    <path fill="#475059" d="M144.107 118C141.898 118 140.107 119.791 140.107 122 140.107 124.209 141.898 126 144.107 126 146.316 126 148.107 124.209 148.107 122 148.105 119.792 146.315 118.002 144.107 118zM144.107 128C140.793 128 138.107 125.314 138.107 122 138.107 118.686 140.793 116 144.107 116 147.421 116 150.107 118.686 150.107 122 150.103 125.312 147.419 127.996 144.107 128zM23.107 57.184L32.107 57.184C34.867 57.181 37.104 54.945 37.107 52.184L37.107 25.184 23.107 25.184 23.107 57.184zM32.107 59.184L21.107 59.184 21.107 23.184 39.107 23.184 39.107 52.184C39.103 56.049 35.971 59.18 32.107 59.184zM11.107 71.184L43.107 71.184C46.419 71.181 49.103 68.497 49.107 65.184L49.107 14.184C49.105 12.528 47.763 11.186 46.107 11.184L11.107 11.184 11.107 71.184zM43.107 73.184L9.107 73.184 9.107 9.184 46.107 9.184C48.867 9.188 51.104 11.424 51.107 14.184L51.107 65.184C51.102 69.601 47.523 73.179 43.107 73.184z"/>
    <path fill="#475059" d="M49.107,63.328 L49.107,15.184 L94.107,15.184 L94.107,17.184 L51.107,17.184 L51.107,61.041 L69.459,58.571 L70.655,56.974 L70.372,54.995 L72.565,52.068 L75.365,51.667 L78.291,53.86 L78.575,55.84 L80.175,57.039 L81.335,56.873 L82.534,55.273 L82.25,53.292 L84.443,50.367 L87.243,49.965 L90.169,52.158 L90.453,54.138 L92.054,55.337 L93.213,55.171 L94.413,53.571 L94.129,51.591 L96.266,48.74 L96.732,48.606 L99.123,48.263 L102.047,50.455 L102.332,52.436 L103.932,53.635 L105.128,53.421 L106.292,51.869 L106.007,49.889 L108.201,46.962 L111,46.561 L113.926,48.754 L114.21,50.734 L115.811,51.933 L116.971,51.767 L118.169,50.166 L117.886,48.187 L120.08,45.26 L122.879,44.859 L125.806,47.052 L126.089,49.032 L127.69,50.231 L128.849,50.065 L130.048,48.464 L129.765,46.485 L131.958,43.558 L134.758,43.157 L137.685,45.35 L137.968,47.329 L139.569,48.529 L140.728,48.363 L141.927,46.762 L141.643,44.782 L143.836,41.856 L146.637,41.455 L149.562,43.647 L149.846,45.627 L151.448,46.827 L152.643,46.613 L153.806,45.06 L153.522,43.08 L155.715,40.154 L158.515,39.753 L161.441,41.945 L161.725,43.926 L163.326,45.124 L164.486,44.958 L165.684,43.358 L165.401,41.378 L167.594,38.452 L170.394,38.051 L173.321,40.244 L173.604,42.223 L175.205,43.423 L176.329,43.262 C176.426,43.08 176.509,42.891 176.578,42.697 C176.713,42.316 176.891,41.952 177.107,41.611 L177.107,17.184 L126.107,17.184 L126.107,15.184 L179.107,15.184 L179.107,42.257 L178.908,42.524 C178.707,42.794 178.551,43.094 178.446,43.413 C178.273,43.906 178.027,44.369 177.715,44.788 L177.467,45.119 L174.668,45.52 L171.741,43.327 L171.458,41.348 L169.857,40.148 L168.698,40.314 L167.499,41.914 L167.782,43.894 L165.589,46.821 L162.789,47.222 L159.864,45.03 L159.58,43.05 L157.978,41.85 L156.819,42.016 L155.62,43.617 L155.904,45.597 L153.71,48.523 L150.912,48.924 L147.985,46.731 L147.701,44.751 L146.1,43.552 L144.94,43.718 L143.741,45.319 L144.025,47.298 L141.832,50.225 L139.032,50.626 L136.105,48.433 L135.822,46.454 L134.221,45.254 L133.062,45.42 L131.863,47.021 L132.146,49 L129.953,51.927 L127.153,52.328 L124.226,50.135 L123.943,48.156 L122.342,46.956 L121.183,47.122 L119.984,48.723 L120.267,50.703 L118.075,53.629 L115.274,54.031 L112.349,51.838 L112.065,49.858 L110.463,48.659 L109.304,48.825 L108.105,50.425 L108.389,52.405 L106.196,55.331 L103.397,55.732 L100.47,53.54 L100.186,51.559 L98.586,50.361 L97.426,50.527 L96.227,52.127 L96.51,54.107 L94.317,57.033 L91.518,57.434 L88.591,55.242 L88.307,53.262 L86.707,52.063 L85.547,52.229 L84.348,53.829 L84.631,55.809 L82.438,58.735 L79.638,59.137 L76.712,56.943 L76.429,54.964 L74.828,53.765 L73.669,53.931 L72.469,55.531 L72.753,57.511 L70.557,60.441 L49.107,63.328"/>
    <polyline fill="#DEDEDD" points="53.107 19.184 53.107 58.754 68.361 56.701 68.558 56.438 68.274 54.459 71.461 50.206 75.901 49.57 80.153 52.756 83.34 48.504 87.779 47.868 92.032 51.054 92.315 53.034 92.032 51.055 95.162 46.878 96.449 46.626 99.659 46.166 103.91 49.351 104.194 51.332 103.91 49.352 107.096 45.1 111.537 44.464 115.789 47.651 116 49.122 115.79 47.651 118.977 43.398 123.416 42.761 127.669 45.949 127.952 47.928 127.669 45.948 130.855 41.696 135.294 41.059 139.545 44.245 142.732 39.993 147.173 39.358 151.424 42.543 151.709 44.523 151.424 42.544 154.611 38.292 159.051 37.656 163.303 40.841 163.516 42.327 163.304 40.842 166.492 36.59 170.93 35.953 175.107 39.084 175.107 19.184 53.107 19.184"/>
    <path fill="#FFD15D" d="M32.107,61.184 L19.107,61.184 L19.107,21.184 L41.107,21.184 L41.107,52.184 C41.101,57.153 37.075,61.179 32.107,61.184 Z M13.107,69.184 L43.107,69.184 C45.315,69.182 47.104,67.393 47.107,65.184 L47.107,14.184 C47.106,13.632 46.659,13.185 46.107,13.184 L13.107,13.184 L13.107,69.184 Z"/>
    <path fill="#475059" d="M108.529,30.184 L112.106,30.184 L113.88,26.161 L117.176,24.258 L121.547,24.733 L123.336,21.635 L120.74,18.086 L120.74,14.282 L123.336,10.733 L121.547,7.635 L117.176,8.11 L113.88,6.207 L112.106,2.184 L108.529,2.184 L106.755,6.207 L103.459,8.11 L99.088,7.635 L97.299,10.733 L99.896,14.282 L99.896,18.086 L97.299,21.635 L99.088,24.733 L103.459,24.258 L106.755,26.161 L108.529,30.184 Z M113.411,32.184 L107.224,32.184 L105.189,27.566 L103.026,26.317 L98.008,26.862 L94.915,21.506 L97.896,17.433 L97.896,14.935 L94.915,10.862 L98.008,5.506 L103.026,6.051 L105.189,4.802 L107.224,0.184 L113.411,0.184 L115.447,4.802 L117.61,6.051 L122.627,5.506 L125.721,10.862 L122.74,14.935 L122.74,17.433 L125.721,21.506 L122.627,26.862 L117.61,26.317 L115.447,27.566 L113.411,32.184 Z"/>
    <path fill="#475059" d="M110.318,14.184 C109.213,14.184 108.318,15.079 108.318,16.184 C108.318,17.289 109.213,18.184 110.318,18.184 C111.422,18.184 112.318,17.289 112.318,16.184 C112.317,15.08 111.422,14.185 110.318,14.184 Z M110.318,20.184 C108.109,20.184 106.318,18.393 106.318,16.184 C106.318,13.975 108.109,12.184 110.318,12.184 C112.527,12.184 114.318,13.975 114.318,16.184 C114.316,18.392 112.526,20.182 110.318,20.184 Z"/>
    <path fill="#475059" d="M110.318,10.184 C107.004,10.184 104.318,12.87 104.318,16.184 C104.318,19.498 107.004,22.184 110.318,22.184 C113.632,22.184 116.318,19.498 116.318,16.184 C116.314,12.872 113.63,10.188 110.318,10.184 Z M110.318,24.184 C105.9,24.184 102.318,20.602 102.318,16.184 C102.318,11.766 105.9,8.184 110.318,8.184 C114.736,8.184 118.318,11.766 118.318,16.184 C118.313,20.6 114.734,24.179 110.318,24.184 Z"/>
    <polygon fill="#48515A" points="184.107 66.208 186.107 66.208 186.107 62.208 184.107 62.208"/>
    <polygon fill="#48515A" points="184.107 76.208 186.107 76.208 186.107 72.208 184.107 72.208"/>
    <polygon fill="#48515A" points="188.107 70.208 192.107 70.208 192.107 68.208 188.107 68.208"/>
    <polygon fill="#48515A" points="178.107 70.208 182.107 70.208 182.107 68.208 178.107 68.208"/>
    <polygon fill="#48515A" points="6 83.219 8 83.219 8 79.219 6 79.219"/>
    <polygon fill="#48515A" points="6 93.219 8 93.219 8 89.219 6 89.219"/>
    <polygon fill="#48515A" points="10 87.219 14 87.219 14 85.219 10 85.219"/>
    <polygon fill="#48515A" points="0 87.219 4 87.219 4 85.219 0 85.219"/>
    <path fill="#F58E70" d="M172.117,78.22 C173.221,78.22 174.117,79.116 174.117,80.22 C174.117,81.325 173.221,82.22 172.117,82.22 C171.012,82.22 170.117,81.325 170.117,80.22 C170.117,79.116 171.012,78.22 172.117,78.22"/>
    <path fill="#5FE0ED" d="M116.161,60.172 C118.37,60.172 120.161,61.963 120.161,64.172 C120.161,66.382 118.37,68.172 116.161,68.172 C113.952,68.172 112.161,66.382 112.161,64.172 C112.161,61.963 113.952,60.172 116.161,60.172"/>
    <path fill="#F58E70" d="M176.119,156.267 C177.223,156.267 178.119,157.163 178.119,158.267 C178.119,159.372 177.223,160.267 176.119,160.267 C175.014,160.267 174.119,159.372 174.119,158.267 C174.119,157.163 175.014,156.267 176.119,156.267"/>
  </g>
</svg>
