<svg xmlns="http://www.w3.org/2000/svg" xmlns:xlink="http://www.w3.org/1999/xlink" width="192" height="163" viewBox="0 0 192 163">
  <defs>
    <polygon id="cc426-a" points=".095 .996 162.117 .996 162.117 162.94 .095 162.94"/>
  </defs>
  <g fill="none" fill-rule="evenodd">
    <path fill="#FFD15D" d="M80.558,141.987 L63.112,141.987 L63.112,124.814 L80.558,141.987 Z M52.112,114.121 L52.112,152.987 L106.091,152.987 L95.389,142.274 L62.764,109.679 L52.112,98.986 L52.112,114.121 Z"/>
    <polyline fill="#DEDEDD" points="83.493 73.855 86.971 70.376 25.679 8.716 19.365 5.874 22.208 12.201 83.493 73.855"/>
    <path fill="#F58E70" d="M110.799,92.766 C109.438,91.405 107.231,91.405 105.87,92.766 C104.508,94.128 104.508,96.335 105.87,97.696 L145.668,137.494 C146.32,138.15 147.208,138.517 148.132,138.514 L148.133,138.514 C150.058,138.515 151.618,136.954 151.618,135.03 C151.618,134.105 151.251,133.219 150.598,132.565 L110.799,92.766"/>
    <g transform="translate(14)">
      <mask id="cc426-b" fill="#fff">
        <use xlink:href="#cc426-a"/>
      </mask>
      <path fill="#F58E70" d="M140.839,141.737 C139.065,143.521 136.65,144.521 134.134,144.514 L134.132,144.514 C131.615,144.522 129.2,143.521 127.426,141.736 L87.627,101.938 C83.925,98.232 83.927,92.227 87.632,88.524 C91.336,84.823 97.338,84.823 101.041,88.524 L140.84,128.323 C144.538,132.03 144.538,138.031 140.839,141.737 Z M153.041,129.49 L104.096,80.546 L87.846,80.681 L87.977,64.426 L87.692,64.141 L63.245,88.589 L63.529,88.873 L79.785,88.742 L79.649,104.993 L128.593,153.937 C135.342,160.69 146.288,160.694 153.041,153.945 C159.794,147.196 159.797,136.25 153.048,129.497 C153.046,129.495 153.043,129.492 153.041,129.49 Z" mask="url(#cc426-b)"/>
      <path fill="#475059" d="M27.425 162.993C25.03 162.994 22.646 162.68 20.333 162.058L18.662 161.609 34.181 146.09 30.713 132.393 17.016 128.926 1.498 144.444 1.048 142.773C-2.89 128.187 5.741 113.17 20.327 109.232 25.61 107.805 31.2 107.996 36.373 109.78L58.295 87.858 59.709 89.272 36.887 112.095 36.286 111.871C23.159 106.996 8.566 113.685 3.691 126.812 2.063 131.195 1.678 135.944 2.581 140.533L16.406 126.708 32.359 130.747 36.398 146.701 22.574 160.525C36.313 163.228 49.642 154.28 52.344 140.541 53.247 135.952 52.863 131.204 51.234 126.82L51.011 126.219 75.967 101.263 77.381 102.678 53.326 126.733C58.252 141.007 50.673 156.572 36.398 161.498 33.512 162.494 30.479 163 27.425 162.993M101.781 78.278L100.367 76.864 125.325 51.905 125.926 52.128C139.052 57.004 153.646 50.315 158.521 37.189 160.149 32.805 160.534 28.056 159.631 23.467L145.806 37.292 129.853 33.253 125.813 17.3 139.638 3.474C125.899.772 112.57 9.719 109.868 23.459 108.965 28.047 109.349 32.796 110.978 37.179L111.201 37.781 88.386 60.595 86.972 59.18 108.886 37.267C103.962 22.983 111.55 7.413 125.833 2.489 131.006.706 136.596.515 141.879 1.942L143.55 2.391 128.031 17.91 131.499 31.607 145.196 35.074 160.714 19.555 161.164 21.226C165.102 35.812 156.471 50.829 141.886 54.768 136.602 56.194 131.012 56.004 125.838 54.22L101.781 78.278" mask="url(#cc426-b)"/>
      <path fill="#475059" d="M77.642,105.815 L127.179,155.351 C130.788,158.98 135.698,161.014 140.816,161 L140.818,161 C151.469,161.001 160.104,152.366 160.105,141.714 C160.105,136.599 158.072,131.693 154.455,128.076 L104.918,78.539 L89.862,78.664 L89.983,63.604 L87.692,61.313 L60.416,88.589 L62.707,90.88 L77.768,90.758 L77.642,105.815 Z M140.816,163 C135.168,163.016 129.748,160.771 125.765,156.765 L75.635,106.636 L75.751,92.775 L61.886,92.887 L57.588,88.589 L87.692,58.485 L91.99,62.783 L91.878,76.647 L105.739,76.532 L155.869,126.662 C164.182,134.975 164.182,148.452 155.87,156.765 C151.878,160.757 146.463,163 140.818,163 L140.816,163 Z" mask="url(#cc426-b)"/>
    </g>
    <path fill="#475059" d="M104.456 99.11L144.254 138.908C145.281 139.94 146.677 140.518 148.132 140.514L148.134 140.514C151.163 140.515 153.618 138.059 153.619 135.03 153.619 133.575 153.041 132.18 152.012 131.151L112.213 91.352C111.187 90.321 109.791 89.743 108.337 89.747L108.336 89.747C105.306 89.747 102.85 92.204 102.851 95.234 102.851 96.687 103.428 98.081 104.456 99.11zM148.132 142.514C146.146 142.52 144.241 141.731 142.84 140.322L103.042 100.524C100.118 97.601 100.118 92.861 103.042 89.938 105.965 87.015 110.704 87.015 113.627 89.938L153.426 129.737C156.349 132.661 156.348 137.4 153.425 140.323 152.021 141.726 150.119 142.514 148.134 142.514L148.132 142.514zM20.532 13.353L83.488 76.688 89.795 70.381 26.837 7.044 18.287 3.196 16.688 4.795 20.532 13.353zM83.484 79.521L18.857 14.505 14.298 4.357 17.849.805 27.995 5.372 28.125 5.503 92.62 70.385 83.484 79.521z"/>
    <polygon fill="#48515A" points="183.106 107.988 185.106 107.988 185.106 103.988 183.106 103.988"/>
    <polygon fill="#48515A" points="183.106 117.988 185.106 117.988 185.106 113.988 183.106 113.988"/>
    <polygon fill="#48515A" points="187.106 111.988 191.106 111.988 191.106 109.988 187.106 109.988"/>
    <polygon fill="#48515A" points="177.106 111.988 181.106 111.988 181.106 109.988 177.106 109.988"/>
    <polygon fill="#48515A" points="6 56.958 8 56.958 8 52.958 6 52.958"/>
    <polygon fill="#48515A" points="6 66.958 8 66.958 8 62.958 6 62.958"/>
    <polygon fill="#48515A" points="10 60.958 14 60.958 14 58.958 10 58.958"/>
    <polygon fill="#48515A" points="0 60.958 4 60.958 4 58.958 0 58.958"/>
    <path fill="#475059" d="M35.462,97.946 L39.04,97.946 L40.814,93.923 L44.109,92.02 L48.481,92.496 L50.27,89.397 L47.672,85.849 L47.672,82.043 L50.27,78.496 L48.481,75.397 L44.109,75.872 L40.814,73.97 L39.04,69.946 L35.462,69.946 L33.688,73.97 L30.392,75.872 L26.021,75.397 L24.232,78.496 L26.83,82.043 L26.83,85.849 L24.232,89.397 L26.021,92.496 L30.392,92.02 L33.688,93.923 L35.462,97.946 Z M40.344,99.946 L34.158,99.946 L32.122,95.328 L29.958,94.079 L24.941,94.625 L21.848,89.267 L24.83,85.195 L24.83,82.698 L21.848,78.625 L24.941,73.268 L29.958,73.814 L32.122,72.564 L34.158,67.946 L40.344,67.946 L42.38,72.564 L44.543,73.814 L49.561,73.268 L52.654,78.625 L49.672,82.698 L49.672,85.195 L52.654,89.268 L49.561,94.625 L44.543,94.079 L42.38,95.328 L40.344,99.946 Z"/>
    <path fill="#475059" d="M37.251,81.946 C36.146,81.946 35.251,82.841 35.251,83.946 C35.251,85.051 36.146,85.946 37.251,85.946 C38.355,85.946 39.251,85.051 39.251,83.946 C39.25,82.842 38.355,81.947 37.251,81.946 Z M37.251,87.946 C35.042,87.946 33.251,86.155 33.251,83.946 C33.251,81.737 35.042,79.946 37.251,79.946 C39.46,79.946 41.251,81.737 41.251,83.946 C41.248,86.154 39.459,87.944 37.251,87.946 Z"/>
    <path fill="#475059" d="M37.251 77.946C33.937 77.946 31.251 80.632 31.251 83.946 31.251 87.26 33.937 89.946 37.251 89.946 40.565 89.946 43.251 87.26 43.251 83.946 43.247 80.634 40.563 77.95 37.251 77.946zM37.251 91.946C32.833 91.946 29.251 88.364 29.251 83.946 29.251 79.528 32.833 75.946 37.251 75.946 41.669 75.946 45.251 79.528 45.251 83.946 45.246 88.362 41.667 91.941 37.251 91.946zM118.499 65.936L183.67 65.936C185.327 65.936 186.67 64.593 186.67 62.936 186.67 61.279 185.327 59.936 183.67 59.936L118.499 59.936 111.993 62.936 118.499 65.936zM183.67 67.936L118.06 67.936 107.216 62.936 118.06 57.936 183.67 57.936C186.431 57.936 188.67 60.174 188.67 62.936 188.67 65.697 186.431 67.936 183.67 67.936z"/>
    <polygon fill="#475059" points="175.63 66.936 177.63 66.936 177.63 58.936 175.63 58.936"/>
    <polygon fill="#475059" points="118.63 63.936 176.63 63.936 176.63 61.936 118.63 61.936"/>
    <path fill="#5FE0ED" d="M85.142,27.964 C87.351,27.964 89.142,29.755 89.142,31.964 C89.142,34.173 87.351,35.964 85.142,35.964 C82.933,35.964 81.142,34.173 81.142,31.964 C81.142,29.755 82.933,27.964 85.142,27.964"/>
    <path fill="#F58E70" d="M165.112 94.041C166.217 94.041 167.112 94.936 167.112 96.041 167.112 97.146 166.217 98.041 165.112 98.041 164.007 98.041 163.112 97.146 163.112 96.041 163.112 94.936 164.007 94.041 165.112 94.041M122.086 150.075C123.191 150.075 124.086 150.97 124.086 152.075 124.086 153.179 123.191 154.075 122.086 154.075 120.982 154.075 120.086 153.179 120.086 152.075 120.086 150.97 120.982 150.075 122.086 150.075"/>
  </g>
</svg>
