<svg xmlns="http://www.w3.org/2000/svg" xmlns:xlink="http://www.w3.org/1999/xlink" width="192" height="168" viewBox="0 0 192 168">
  <defs>
    <polygon id="cc422-a" points="0 0 2 0 2 13.94 0 13.94"/>
  </defs>
  <g fill="none" fill-rule="evenodd">
    <polyline fill="#DEDEDD" points="67.965 55.995 69.967 57.995 85.6 57.995 85.6 55.995 67.965 55.995"/>
    <path fill="#FFD15D" d="M58.46,61.028 L41.013,61.028 L41.013,43.856 L58.46,61.028 Z M30.013,33.163 L30.013,72.028 L83.993,72.028 L73.291,61.315 L40.666,28.72 L30.013,18.028 L30.013,33.163 Z"/>
    <polygon fill="#DEDEDD" points="79.598 6.001 111.598 6.001 111.598 4.001 79.598 4.001"/>
    <polyline fill="#475059" points="115.59 8.982 81.592 8.982 81.592 6.982 113.59 6.982 113.59 2.982 79.59 2.982 79.59 .982 115.59 .982 115.59 8.982"/>
    <polygon fill="#DEDEDD" points="37.607 136.041 69.607 136.041 69.607 134.041 37.607 134.041"/>
    <polygon fill="#DEDEDD" points="46.607 110.026 78.607 110.026 78.607 108.026 46.607 108.026"/>
    <polygon fill="#DEDEDD" points="55.596 84.01 87.596 84.01 87.596 82.01 55.596 82.01"/>
    <polygon fill="#475059" points="66.601 55.013 84.348 55.013 84.348 53.013 66.601 53.013"/>
    <polygon fill="#475059" points="64.6 61.013 86.348 61.013 86.348 59.013 64.6 59.013"/>
    <polyline fill="#475059" points="91.589 87.029 55.589 87.029 55.589 85.029 89.589 85.029 89.589 81.029 57.59 81.029 57.59 79.029 91.589 79.029 91.589 87.029"/>
    <polyline fill="#475059" points="82.599 113.044 46.6 113.044 46.6 111.044 80.599 111.044 80.599 107.044 48.601 107.044 48.601 105.044 82.599 105.044 82.599 113.044"/>
    <polyline fill="#475059" points="73.6 139.06 37.6 139.06 37.6 137.06 71.6 137.06 71.6 133.06 39.602 133.06 39.602 131.06 73.6 131.06 73.6 139.06"/>
    <polygon fill="#DEDEDD" points="124.625 136.079 156.625 136.079 156.625 134.079 124.625 134.079"/>
    <polygon fill="#DEDEDD" points="115.619 110.063 147.619 110.063 147.619 108.063 115.619 108.063"/>
    <polygon fill="#DEDEDD" points="106.614 84.047 138.614 84.047 138.614 82.047 106.614 82.047"/>
    <polygon fill="#DEDEDD" points="97.608 58.032 129.609 58.032 129.609 56.032 97.608 56.032"/>
    <polygon fill="#DEDEDD" points="88.603 32.016 120.603 32.016 120.603 30.016 88.603 30.016"/>
    <polyline fill="#475059" points="175.402 160 173.402 160 173.402 157.847 118.368 2.749 80.251 2.749 135.164 157.502 135.164 160 133.164 160 133.164 157.847 77.419 .749 119.78 .749 175.402 157.502 175.402 160"/>
    <polyline fill="#475059" points="18.598 160 16.598 160 16.598 157.504 16.654 157.343 68.653 9.169 70.54 9.832 18.598 157.845 18.598 160"/>
    <polyline fill="#475059" points="60.599 160 58.599 160 58.599 157.501 65.654 137.787 67.537 138.46 60.599 157.848 60.599 160"/>
    <polyline fill="#475059" points="67.835 131.692 74.816 112.185 76.699 112.859 69.717 132.366 67.835 131.692"/>
    <polyline fill="#475059" points="77.11 105.772 84.196 85.972 86.079 86.646 78.993 106.446 77.11 105.772"/>
    <polyline fill="#475059" points="86.459 79.646 89.723 70.526 91.606 71.2 88.342 80.32 86.459 79.646"/>
    <polyline fill="#475059" points="162.597 160 160.597 160 160.597 157.847 153.665 138.412 155.548 137.74 162.597 157.501 162.597 160"/>
    <polyline fill="#475059" points="144.447 112.571 146.331 111.899 153.424 131.785 151.54 132.457 144.447 112.571"/>
    <polyline fill="#475059" points="135.123 86.428 137.006 85.756 144.085 105.602 142.201 106.274 135.123 86.428"/>
    <polyline fill="#475059" points="125.837 60.396 127.721 59.724 134.853 79.722 132.97 80.394 125.837 60.396"/>
    <polyline fill="#475059" points="116.526 34.292 118.41 33.62 125.543 53.618 123.659 54.29 116.526 34.292"/>
    <polyline fill="#475059" points="107.309 8.451 109.193 7.779 116.192 27.403 114.309 28.075 107.309 8.451"/>
    <polyline fill="#475059" points="122.595 160 120.595 160 120.595 157.848 68.597 12.787 68.597 .749 105.98 .749 105.98 2.749 70.597 2.749 70.597 12.439 122.595 157.5 122.595 160"/>
    <polyline fill="#475059" points="31.597 160 29.597 160 29.597 157.505 29.653 157.345 74.41 28.839 76.299 29.497 31.597 157.843 31.597 160"/>
    <polyline fill="#475059" points="73.6 160 71.6 160 71.6 157.503 71.657 157.342 96.042 88.215 97.927 88.88 73.6 157.846 73.6 160"/>
    <polyline fill="#475059" points="124.595 34.998 90.597 34.998 90.597 32.998 122.595 32.998 122.595 28.998 88.596 28.998 88.596 26.998 124.595 26.998 124.595 34.998"/>
    <polyline fill="#475059" points="133.601 61.013 99.603 61.013 99.603 59.013 131.601 59.013 131.601 55.013 97.602 55.013 97.602 53.013 133.601 53.013 133.601 61.013"/>
    <polyline fill="#475059" points="142.606 87.029 108.608 87.029 108.608 85.029 140.606 85.029 140.606 81.029 106.607 81.029 106.607 79.029 142.606 79.029 142.606 87.029"/>
    <polyline fill="#475059" points="151.611 113.044 117.613 113.044 117.613 111.044 149.611 111.044 149.611 107.044 115.612 107.044 115.612 105.044 151.611 105.044 151.611 113.044"/>
    <polyline fill="#475059" points="160.617 139.06 126.619 139.06 126.619 137.06 158.617 137.06 158.617 133.06 124.618 133.06 124.618 131.06 160.617 131.06 160.617 139.06"/>
    <path fill="#DEDEDD" d="M72.597,12.091 L72.597,4.749 L76.717,4.749 L131.14,158.125 L131.14,160 L124.595,160 L124.595,157.153 L72.597,12.091 Z M124.141,24.998 L117.458,24.998 L112.459,10.982 L117.59,10.982 L117.59,6.537 L124.141,24.998 Z M158.856,141.06 L162.617,141.06 L162.617,133.431 L171.379,158.125 L171.348,160 L164.597,160 L164.597,157.155 L158.856,141.06 Z M136.017,77.029 L131.017,63.013 L135.601,63.013 L135.601,57.294 L142.603,77.029 L136.017,77.029 Z M145.296,103.044 L140.297,89.029 L144.606,89.029 L144.606,82.673 L151.834,103.044 L145.296,103.044 Z M154.575,129.06 L149.576,115.044 L153.611,115.044 L153.611,108.052 L161.066,129.06 L154.575,129.06 Z M126.595,31.915 L133.372,51.013 L126.737,51.013 L121.738,36.998 L126.595,36.998 L126.595,31.915 Z"/>
    <polyline fill="#DEDEDD" points="84.456 115.044 75.6 140.152 75.6 129.06 73.025 129.06 78.04 115.044 84.456 115.044"/>
    <polyline fill="#DEDEDD" points="69.6 160 62.599 160 62.599 158.195 68.731 141.06 75.279 141.06 69.6 157.161 69.6 160"/>
    <polyline fill="#DEDEDD" points="84.599 114.641 84.599 103.044 82.335 103.044 87.35 89.029 93.589 89.029 93.589 88.435 93.717 88.792 84.599 114.641"/>
    <polygon fill="#48515A" points="184 24 186 24 186 20 184 20"/>
    <polygon fill="#48515A" points="184 34 186 34 186 30 184 30"/>
    <polygon fill="#48515A" points="188 28 192 28 192 26 188 26"/>
    <polygon fill="#48515A" points="178 28 182 28 182 26 178 26"/>
    <polygon fill="#48515A" points="6 108 8 108 8 104 6 104"/>
    <polygon fill="#48515A" points="6 118 8 118 8 114 6 114"/>
    <polygon fill="#48515A" points="10 112 14 112 14 110 10 110"/>
    <polygon fill="#48515A" points="0 112 4 112 4 110 0 110"/>
    <path fill="#475059" d="M174,103 L177.578,103 L179.352,98.977 L182.647,97.074 L187.019,97.549 L188.808,94.451 L186.21,90.903 L186.21,87.097 L188.808,83.549 L187.019,80.451 L182.647,80.926 L179.352,79.023 L177.578,75 L174,75 L172.226,79.023 L168.931,80.926 L164.559,80.451 L162.77,83.549 L165.368,87.097 L165.368,90.903 L162.77,94.451 L164.559,97.549 L168.931,97.074 L172.226,98.977 L174,103 Z M178.882,105 L172.696,105 L170.66,100.382 L168.497,99.133 L163.479,99.678 L160.386,94.322 L163.368,90.249 L163.368,87.751 L160.386,83.678 L163.479,78.322 L168.497,78.867 L170.66,77.618 L172.696,73 L178.882,73 L180.918,77.618 L183.081,78.867 L188.099,78.322 L191.192,83.678 L188.21,87.751 L188.21,90.248 L191.192,94.322 L188.099,99.678 L183.081,99.133 L180.918,100.382 L178.882,105 Z"/>
    <path fill="#475059" d="M175.789,87 C174.684,87 173.789,87.895 173.789,89 C173.789,90.105 174.684,91 175.789,91 C176.894,91 177.789,90.105 177.789,89 C177.788,87.896 176.893,87.001 175.789,87 Z M175.789,93 C173.58,93 171.789,91.209 171.789,89 C171.789,86.791 173.58,85 175.789,85 C177.998,85 179.789,86.791 179.789,89 C179.787,91.208 177.997,92.997 175.789,93 Z"/>
    <path fill="#475059" d="M175.789,83 C172.475,83 169.789,85.686 169.789,89 C169.789,92.314 172.475,95 175.789,95 C179.103,95 181.789,92.314 181.789,89 C181.785,85.688 179.101,83.004 175.789,83 Z M175.789,97 C171.371,97 167.789,93.418 167.789,89 C167.789,84.582 171.371,81 175.789,81 C180.207,81 183.789,84.582 183.789,89 C183.784,93.416 180.205,96.995 175.789,97 Z"/>
    <path fill="#F58E70" d="M156 16C157.105 16 158 16.895 158 18 158 19.105 157.105 20 156 20 154.895 20 154 19.105 154 18 154 16.895 154.895 16 156 16M14 60C15.105 60 16 60.895 16 62 16 63.105 15.105 64 14 64 12.895 64 12 63.105 12 62 12 60.895 12.895 60 14 60"/>
    <path fill="#5FE0ED" d="M26,78 C28.209,78 30,79.791 30,82 C30,84.209 28.209,86 26,86 C23.791,86 22,84.209 22,82 C22,79.791 23.791,78 26,78"/>
    <path fill="#DEDEDD" d="M100,142 C101.105,142 102,142.895 102,144 C102,145.105 101.105,146 100,146 C98.895,146 98,145.105 98,144 C98,142.895 98.895,142 100,142"/>
    <g transform="translate(96 154)">
      <mask id="cc422-b" fill="#fff">
        <use xlink:href="#cc422-a"/>
      </mask>
      <polygon fill="#48515A" points="0 4 2 4 2 0 0 0" mask="url(#cc422-b)"/>
      <polygon fill="#48515A" points="0 13.94 2 13.94 2 10 0 10" mask="url(#cc422-b)"/>
    </g>
    <polygon fill="#48515A" points="100 162 104 162 104 160 100 160"/>
    <polygon fill="#48515A" points="90 162 94 162 94 160 90 160"/>
    <polyline fill="#DEDEDD" points="64.159 52.192 72.26 28.933 69.075 20.047 59.446 47.484 64.159 52.192"/>
    <polyline fill="#DEDEDD" points="50.833 72.028 20.598 158.186 20.598 160 27.597 160 27.597 157.167 57.25 72.028 50.833 72.028"/>
  </g>
</svg>
