<svg xmlns="http://www.w3.org/2000/svg" width="192" height="188" viewBox="0 0 192 188">
  <g fill="none" fill-rule="evenodd">
    <path fill="#475059" d="M15,167.023 L175,167.023 L175,77.023 L15,77.023 L15,167.023 Z M13,169.023 L177,169.023 L177,75.023 L13,75.023 L13,169.023 Z"/>
    <polygon fill="#FFD15D" points="17 165.023 173 165.023 173 79.023 17 79.023"/>
    <path fill="#475059" d="M23,159.023 L167,159.023 L167,85.023 L23,85.023 L23,159.023 Z M21,161.023 L169,161.023 L169,83.023 L21,83.023 L21,161.023 Z"/>
    <path fill="#475059" d="M33 159.023L37 159.023 37 85.023 33 85.023 33 159.023zM31 161.023L39 161.023 39 83.023 31 83.023 31 161.023zM57 159.023L61 159.023 61 85.023 57 85.023 57 159.023zM55 161.023L63 161.023 63 83.023 55 83.023 55 161.023zM81 159.023L85 159.023 85 85.023 81 85.023 81 159.023zM79 161.023L87 161.023 87 83.023 79 83.023 79 161.023zM105 159.023L109 159.023 109 85.023 105 85.023 105 159.023zM103 161.023L111 161.023 111 83.023 103 83.023 103 161.023zM129 159.023L133 159.023 133 85.023 129 85.023 129 159.023zM127 161.023L135 161.023 135 83.023 127 83.023 127 161.023zM153 159.023L157 159.023 157 85.023 153 85.023 153 159.023zM151 161.023L159 161.023 159 83.023 151 83.023 151 161.023zM89.25 27L101.25 27 101.25 15 89.25 15 89.25 27zM87.25 29L103.25 29 103.25 13 87.25 13 87.25 29z"/>
    <path fill="#475059" d="M95.249,45.998 C91.385,45.993 88.253,42.862 88.249,38.998 L90.249,38.998 C90.249,41.759 92.488,43.998 95.249,43.998 C98.01,43.998 100.249,41.759 100.249,38.998 C100.249,36.237 98.01,33.998 95.249,33.998 L94.249,33.998 L94.249,28 L96.249,28 L96.249,32.069 C100.075,32.622 102.73,36.172 102.177,39.998 C101.68,43.442 98.729,45.998 95.249,45.998"/>
    <polygon fill="#475059" points="90.667 14 92.667 14 92.667 0 90.667 0"/>
    <polygon fill="#475059" points="97.333 14 99.333 14 99.333 0 97.333 0"/>
    <polyline fill="#475059" points="173 76.023 171 76.023 171 74.684 95.249 42.42 19 74.686 19 76.023 17 76.023 17 73.36 95.251 40.247 173 73.362 173 76.023"/>
    <polygon fill="#DEDEDD" points="91.268 25.009 99.268 25.009 99.268 17.009 91.268 17.009"/>
    <path fill="#475059" d="M152.422,49.023 L155.999,49.023 L157.773,44.999 L161.069,43.097 L165.44,43.572 L167.229,40.473 L164.633,36.925 L164.633,33.12 L167.229,29.572 L165.44,26.473 L161.069,26.949 L157.773,25.046 L155.999,21.023 L152.422,21.023 L150.648,25.046 L147.353,26.949 L142.981,26.473 L141.192,29.572 L143.789,33.12 L143.789,36.925 L141.192,40.473 L142.981,43.572 L147.353,43.097 L150.648,44.999 L152.422,49.023 Z M157.304,51.023 L151.117,51.023 L149.082,46.405 L146.919,45.155 L141.901,45.701 L138.808,40.344 L141.789,36.272 L141.789,33.774 L138.808,29.701 L141.901,24.344 L146.919,24.89 L149.082,23.641 L151.117,19.023 L157.304,19.023 L159.34,23.641 L161.503,24.89 L166.52,24.344 L169.614,29.701 L166.633,33.773 L166.633,36.272 L169.614,40.344 L166.52,45.701 L161.503,45.155 L159.34,46.405 L157.304,51.023 Z"/>
    <path fill="#475059" d="M154.211,33.023 C153.106,33.023 152.211,33.918 152.211,35.023 C152.211,36.128 153.106,37.023 154.211,37.023 C155.316,37.023 156.211,36.128 156.211,35.023 C156.21,33.919 155.315,33.024 154.211,33.023 Z M154.211,39.023 C152.002,39.023 150.211,37.232 150.211,35.023 C150.211,32.814 152.002,31.023 154.211,31.023 C156.42,31.023 158.211,32.814 158.211,35.023 C158.209,37.231 156.419,39.021 154.211,39.023 Z"/>
    <path fill="#475059" d="M154.211,29.023 C150.897,29.023 148.211,31.709 148.211,35.023 C148.211,38.337 150.897,41.023 154.211,41.023 C157.525,41.023 160.211,38.337 160.211,35.023 C160.207,31.711 157.523,29.027 154.211,29.023 Z M154.211,43.023 C149.793,43.023 146.211,39.441 146.211,35.023 C146.211,30.605 149.793,27.023 154.211,27.023 C158.629,27.023 162.211,30.605 162.211,35.023 C162.206,39.439 158.627,43.018 154.211,43.023 Z"/>
    <polygon fill="#48515A" points="184 54.023 186 54.023 186 50.023 184 50.023"/>
    <polygon fill="#48515A" points="184 64.023 186 64.023 186 60.023 184 60.023"/>
    <polygon fill="#48515A" points="188 58.023 192 58.023 192 56.023 188 56.023"/>
    <polygon fill="#48515A" points="178 58.023 182 58.023 182 56.023 178 56.023"/>
    <polygon fill="#48515A" points="6 170.023 8 170.023 8 166.023 6 166.023"/>
    <polygon fill="#48515A" points="6 180.023 8 180.023 8 176.023 6 176.023"/>
    <polygon fill="#48515A" points="10 174.023 14 174.023 14 172.023 10 172.023"/>
    <polygon fill="#48515A" points="0 174.023 4 174.023 4 172.023 0 172.023"/>
    <polygon fill="#48515A" points="172 178 174 178 174 174 172 174"/>
    <polygon fill="#48515A" points="172 188 174 188 174 184 172 184"/>
    <polygon fill="#48515A" points="176 182 180 182 180 180 176 180"/>
    <polygon fill="#48515A" points="166 182 170 182 170 180 166 180"/>
    <path fill="#F58E70" d="M184 144C185.105 144 186 144.895 186 146 186 147.105 185.105 148 184 148 182.895 148 182 147.105 182 146 182 144.895 182.895 144 184 144M112 60C113.105 60 114 60.895 114 62 114 63.105 113.105 64 112 64 110.895 64 110 63.105 110 62 110 60.895 110.895 60 112 60M28 180C29.105 180 30 180.895 30 182 30 183.105 29.105 184 28 184 26.895 184 26 183.105 26 182 26 180.895 26.895 180 28 180"/>
    <path fill="#475059" d="M16,57 C14.343,57 13,58.343 13,60 C13,61.657 14.343,63 16,63 L81.171,63 L87.678,60 L81.171,57 L16,57 Z M81.61,65 L16,65 C13.239,65 11,62.761 11,60 C11,57.239 13.239,55 16,55 L81.61,55 L92.453,60 L81.61,65 Z"/>
    <polygon fill="#475059" points="22.039 64 24.039 64 24.039 56 22.039 56"/>
    <polygon fill="#475059" points="23.039 61 81.039 61 81.039 59 23.039 59"/>
  </g>
</svg>
