<svg xmlns="http://www.w3.org/2000/svg" width="192" height="178" viewBox="0 0 192 178">
  <g fill="none" fill-rule="evenodd">
    <path fill="#48515A" d="M66.013,171.995 L132.013,171.995 L132.013,155.995 L66.013,155.995 L66.013,171.995 Z M64.013,173.995 L134.013,173.995 L134.013,153.995 L64.013,153.995 L64.013,173.995 Z"/>
    <path fill="#FFD15D" d="M34.013,39.995 L34.013,64.995 C34.035,83.927 49.09,99.418 68.013,99.982 L68.013,39.995 L34.013,39.995 Z M32.013,64.995 L32.013,37.995 L70.013,37.995 L70.013,101.995 L69.013,101.995 C48.588,101.972 32.036,85.42 32.013,64.995 Z"/>
    <path fill="#48515A" d="M38.013,43.995 L38.013,64.995 C38.111,79.64 48.366,92.252 62.682,95.337 C62.238,93.027 62.014,90.681 62.013,88.329 L62.013,43.995 L38.013,43.995 Z M65.287,97.813 L63.815,97.579 C47.854,94.929 36.118,81.174 36.013,64.995 L36.013,41.995 L64.013,41.995 L64.013,88.329 C64.014,91.033 64.327,93.729 64.946,96.362 L65.287,97.813 Z M136.013,43.995 L136.013,88.329 C136.013,90.681 135.789,93.027 135.344,95.337 C149.661,92.252 159.915,79.64 160.013,64.995 L160.013,43.995 L136.013,43.995 Z M132.74,97.813 L133.081,96.362 C133.7,93.729 134.013,91.033 134.013,88.329 L134.013,41.995 L162.013,41.995 L162.013,64.995 C161.908,81.174 150.172,94.928 134.211,97.579 L132.74,97.813 Z M76.946,153.995 L121.081,153.995 L118.054,149.717 L102.012,144.055 L102.012,123.184 L102.902,123.085 C114.492,121.807 124.681,114.829 130.062,104.484 L130.327,103.975 L130.9,103.947 C151.694,102.969 168.041,85.812 168.013,64.995 L168.013,35.995 L134.013,35.995 L134.013,30.994 L64.013,30.994 L64.013,35.995 L30.013,35.995 L30.013,64.995 C29.985,85.811 46.332,102.969 67.125,103.947 L67.699,103.975 L67.964,104.484 C73.345,114.828 83.532,121.806 95.122,123.085 L96.012,123.183 L96.012,144.056 L79.973,149.717 L76.946,153.995 Z M124.946,155.995 L73.081,155.995 L78.707,148.043 L94.012,142.641 L94.012,124.963 C82.31,123.384 72.07,116.304 66.459,105.914 C44.837,104.594 27.985,86.658 28.013,64.995 L28.013,33.995 L62.013,33.995 L62.013,28.994 L136.013,28.994 L136.013,33.995 L170.013,33.995 L170.013,64.995 C170.041,86.658 153.189,104.594 131.566,105.914 C125.956,116.305 115.714,123.385 104.012,124.963 L104.012,142.64 L119.319,148.043 L124.946,155.995 Z"/>
    <polygon fill="#FFD15D" points="68.013 169.995 130.013 169.995 130.013 157.995 68.013 157.995"/>
    <polyline fill="#FFD15D" points="98.013 145.471 98.013 136.996 100.013 138.996 100.013 145.471 116.788 151.392 117.215 151.996 80.81 151.996 81.237 151.392 98.013 145.471"/>
    <path fill="#FFD15D" d="M131.99 99.865C150.089 98.299 163.99 83.162 164.013 64.995L164.013 39.995 134.012 39.995 134.012 37.995 166.013 37.995 166.013 64.995C165.989 84.605 150.686 100.799 131.109 101.932L131.99 99.865M117.845 13.996C118.95 13.996 119.845 14.891 119.845 15.996 119.845 17.1 118.95 17.996 117.845 17.996 116.741 17.996 115.845 17.1 115.845 15.996 115.845 14.891 116.741 13.996 117.845 13.996M88.828 15.998C90.485 15.998 91.828 17.341 91.828 18.998 91.828 20.655 90.485 21.998 88.828 21.998 87.171 21.998 85.828 20.655 85.828 18.998 85.828 17.341 87.171 15.998 88.828 15.998M103.837.988C104.942.988 105.837 1.883 105.837 2.988 105.837 4.093 104.942 4.988 103.837 4.988 102.732 4.988 101.837 4.093 101.837 2.988 101.837 1.883 102.732.988 103.837.988M77.821 7.992C78.374 7.992 78.821 8.439 78.821 8.992 78.821 9.544 78.374 9.992 77.821 9.992 77.269 9.992 76.821 9.544 76.821 8.992 76.821 8.439 77.269 7.992 77.821 7.992"/>
    <path fill="#48515A" d="M98.949,49.31 C88.456,49.31 79.949,57.816 79.949,68.31 C79.949,78.803 88.456,87.31 98.949,87.31 C109.443,87.31 117.949,78.803 117.949,68.31 C117.937,57.821 109.438,49.322 98.949,49.31 Z M98.949,89.31 C87.351,89.31 77.949,79.908 77.949,68.31 C77.949,56.712 87.351,47.31 98.949,47.31 C110.547,47.31 119.949,56.712 119.949,68.31 C119.936,79.902 110.542,89.297 98.949,89.31 Z"/>
    <path fill="#48515A" d="M95.955,79.99 L101.955,79.99 L101.955,70.989 L110.956,70.989 L110.956,64.988 L101.955,64.989 L101.955,55.99 L95.955,55.99 L95.955,64.989 L86.956,64.99 L86.956,70.99 L95.955,70.989 L95.955,79.99 Z M103.955,81.99 L93.955,81.99 L93.955,72.989 L84.956,72.99 L84.956,62.99 L93.955,62.989 L93.955,53.99 L103.955,53.99 L103.955,62.989 L112.956,62.988 L112.956,72.989 L103.955,72.989 L103.955,81.99 Z"/>
    <polygon fill="#48515A" points="97.956 59.991 99.956 59.991 99.956 57.991 97.956 57.991"/>
    <polygon fill="#48515A" points="97.956 78.002 99.956 78.002 99.956 76.002 97.956 76.002"/>
    <polygon fill="#48515A" points="88.951 68.997 90.951 68.997 90.951 66.997 88.951 66.997"/>
    <polygon fill="#48515A" points="106.962 68.997 108.962 68.997 108.962 66.997 106.962 66.997"/>
    <path fill="#48515A" d="M98.956,66.99 C98.404,66.99 97.956,67.438 97.956,67.99 C97.956,68.542 98.404,68.99 98.956,68.99 C99.509,68.99 99.956,68.542 99.956,67.99 C99.956,67.438 99.508,66.991 98.956,66.99 Z M98.956,70.99 C97.3,70.99 95.956,69.647 95.956,67.99 C95.956,66.333 97.3,64.99 98.956,64.99 C100.613,64.99 101.957,66.333 101.957,67.99 C101.955,69.646 100.613,70.988 98.956,70.99 Z"/>
    <path fill="#FFD15D" d="M98.95,91.31 C86.247,91.312 75.948,81.017 75.945,68.314 C75.943,55.611 86.238,45.312 98.941,45.31 C107.391,45.308 115.162,49.941 119.18,57.375 L119.18,32.994 L66.013,32.994 L66.013,88.329 C66.096,104.047 77.193,117.552 92.596,120.682 C108,117.552 119.096,104.047 119.18,88.329 L119.18,79.244 C115.16,86.673 107.396,91.304 98.95,91.31"/>
    <path fill="#5FE0ED" d="M175.763 73.414C178.156 73.414 180.096 75.354 180.096 77.748 180.096 80.141 178.156 82.081 175.763 82.081 173.37 82.081 171.43 80.141 171.43 77.748 171.43 75.354 173.37 73.414 175.763 73.414M33.02 135.65C33.941 135.65 34.687 136.397 34.687 137.317 34.687 138.238 33.941 138.984 33.02 138.984 32.1 138.984 31.353 138.238 31.353 137.317 31.353 136.397 32.1 135.65 33.02 135.65M152.77 157.817C154.979 157.817 156.77 159.608 156.77 161.817 156.77 164.026 154.979 165.817 152.77 165.817 150.561 165.817 148.77 164.026 148.77 161.817 148.77 159.608 150.561 157.817 152.77 157.817"/>
    <path fill="#FFF" d="M137.66,127.793 L137.44,127.662 L137.732,127.503 L137.66,127.793 Z M125.393,127.399 L130.447,130.645 C120.501,140.331 109.513,148.886 97.684,156.154 C94.315,152.511 88.632,152.289 84.99,155.657 C82.633,157.837 81.618,161.108 82.328,164.239 C79.407,165.541 76.505,166.715 73.638,167.714 C54.779,174.287 39.79,173.305 31.433,164.948 L27.191,169.19 C33.046,175.046 41.306,178 51.354,178 C58.591,178 66.756,176.466 75.612,173.379 C78.897,172.234 82.223,170.878 85.569,169.357 C89.472,172.422 95.121,171.743 98.186,167.84 C99.433,166.253 100.108,164.293 100.105,162.276 C100.105,162.083 100.088,161.895 100.076,161.706 C113.066,153.809 125.086,144.417 135.889,133.722 L141.551,137.092 L146.812,115.715 L125.393,127.399 Z"/>
    <path fill="#48515A" d="M133.402 127.586L138.957 130.893 140.759 123.574 133.402 127.586zM51.355 176.004C41.85 176.004 34.075 173.247 28.605 167.776L30.019 166.362C38.949 175.292 54.673 176.442 74.296 169.602 93.855 162.785 114.891 148.855 133.642 130.32L129.312 127.539 143.785 119.645 140.254 133.992 135.583 131.212C116.49 150.216 94.975 164.513 74.954 171.491 66.305 174.505 58.36 176.004 51.355 176.004zM179.62 58.922L177.663 58.512C180.754 43.767 178.587 32.173 171.398 24.983L172.813 23.569C180.502 31.259 182.856 43.484 179.62 58.922"/>
    <path fill="#FFF" d="M91.105,156.276 C94.419,156.276 97.105,158.962 97.105,162.276 C97.105,165.59 94.419,168.276 91.105,168.276 C87.792,168.276 85.105,165.59 85.105,162.276 C85.105,158.962 87.792,156.276 91.105,156.276"/>
    <path fill="#48515A" d="M91.105 157.276C88.344 157.276 86.105 159.514 86.105 162.276 86.105 165.037 88.344 167.276 91.105 167.276 93.867 167.276 96.105 165.037 96.105 162.276 96.102 159.516 93.865 157.279 91.105 157.276zM91.105 169.276C87.24 169.276 84.105 166.142 84.105 162.276 84.105 158.41 87.24 155.276 91.105 155.276 94.971 155.276 98.105 158.41 98.105 162.276 98.101 166.14 94.97 169.272 91.105 169.276zM178.101 63.277C178.037 63.276 177.974 63.269 177.911 63.257 177.845 63.247 177.781 63.227 177.721 63.197 177.66 63.178 177.602 63.147 177.551 63.108 177.497 63.072 177.447 63.032 177.401 62.987 177.306 62.893 177.232 62.781 177.181 62.657 177.133 62.537 177.109 62.408 177.111 62.277 177.108 62.011 177.213 61.756 177.401 61.567 177.444 61.52 177.495 61.479 177.551 61.447 177.602 61.408 177.66 61.377 177.721 61.358 177.781 61.329 177.845 61.308 177.911 61.297 178.458 61.197 178.984 61.559 179.085 62.106 179.119 62.291 179.1 62.482 179.031 62.657 178.977 62.779 178.902 62.89 178.811 62.987 178.621 63.173 178.367 63.277 178.101 63.277M29.311 168.067C28.764 168.062 28.325 167.614 28.33 167.067 28.336 166.52 28.783 166.081 29.33 166.087 29.877 166.092 30.316 166.54 30.311 167.087 30.309 167.346 30.204 167.594 30.021 167.777 29.83 167.962 29.576 168.066 29.311 168.067M34.661 103.677C34.197 103.38 34.062 102.762 34.36 102.299 34.36 102.298 34.361 102.298 34.361 102.297 34.66 101.835 35.277 101.701 35.741 101.998 36.207 102.294 36.345 102.911 36.051 103.377 35.865 103.666 35.544 103.839 35.201 103.837 35.009 103.837 34.822 103.782 34.661 103.677zM32.571 107.168C32.099 106.884 31.943 106.273 32.221 105.797 32.493 105.325 33.096 105.162 33.568 105.434 33.576 105.438 33.583 105.443 33.591 105.447 34.062 105.721 34.222 106.324 33.948 106.795 33.946 106.799 33.943 106.803 33.941 106.808 33.763 107.115 33.436 107.305 33.081 107.308 32.902 107.305 32.727 107.257 32.571 107.168zM30.571 110.697C30.089 110.429 29.914 109.821 30.181 109.337 30.456 108.856 31.068 108.686 31.551 108.958 32.031 109.229 32.201 109.837 31.931 110.317 31.751 110.633 31.415 110.828 31.051 110.828 30.882 110.828 30.716 110.783 30.571 110.697zM28.731 114.328C28.229 114.101 28.002 113.513 28.221 113.007 28.436 112.505 29.017 112.273 29.52 112.488 29.527 112.491 29.534 112.494 29.541 112.498 30.044 112.723 30.272 113.312 30.051 113.817 29.887 114.178 29.527 114.409 29.131 114.407 28.993 114.41 28.857 114.383 28.731 114.328zM27.191 118.078C26.678 117.874 26.426 117.294 26.63 116.78 26.63 116.779 26.631 116.778 26.631 116.777 26.838 116.267 27.42 116.02 27.931 116.227 27.931 116.228 27.931 116.228 27.931 116.228 28.443 116.433 28.694 117.014 28.491 117.527 28.337 117.905 27.969 118.151 27.561 118.148 27.434 118.149 27.308 118.126 27.191 118.078zM25.781 121.887C25.263 121.701 24.993 121.13 25.18 120.611 25.18 120.61 25.181 120.609 25.181 120.607 25.362 120.092 25.927 119.82 26.443 120.001 26.449 120.003 26.455 120.005 26.461 120.007 26.978 120.191 27.249 120.76 27.065 121.277 27.064 121.281 27.062 121.284 27.061 121.288 26.915 121.681 26.541 121.944 26.121 121.947 26.005 121.947 25.89 121.927 25.781 121.887zM24.531 125.748C24.005 125.586 23.708 125.028 23.87 124.502 23.87 124.5 23.871 124.499 23.871 124.498 24.039 123.97 24.601 123.676 25.131 123.837 25.654 124.005 25.944 124.563 25.781 125.087L25.781 125.098C25.649 125.512 25.266 125.794 24.831 125.797 24.729 125.795 24.628 125.779 24.531 125.748zM23.451 129.657C22.919 129.517 22.601 128.972 22.74 128.44 22.741 128.439 22.741 128.438 22.741 128.438 22.883 127.906 23.428 127.589 23.961 127.728 24.492 127.87 24.81 128.415 24.671 128.947 24.558 129.386 24.164 129.694 23.711 129.697 23.623 129.699 23.535 129.685 23.451 129.657zM22.571 133.628C22.028 133.513 21.68 132.981 21.791 132.438 21.906 131.9 22.433 131.557 22.971 131.668 23.51 131.774 23.86 132.298 23.753 132.837 23.752 132.84 23.752 132.844 23.751 132.848 23.654 133.312 23.246 133.646 22.771 133.648 22.704 133.646 22.637 133.64 22.571 133.627L22.571 133.628zM21.901 137.628C21.355 137.543 20.98 137.034 21.061 136.487 21.146 135.942 21.655 135.567 22.201 135.648 22.746 135.728 23.123 136.236 23.042 136.781 23.042 136.783 23.041 136.785 23.041 136.788 22.966 137.277 22.546 137.638 22.051 137.637 22.001 137.639 21.951 137.636 21.901 137.627L21.901 137.628zM21.501 141.668C20.951 141.618 20.542 141.138 20.581 140.587 20.627 140.038 21.11 139.631 21.659 139.677 21.66 139.677 21.66 139.677 21.661 139.677 22.212 139.72 22.624 140.201 22.581 140.752 22.581 140.754 22.581 140.756 22.581 140.757 22.534 141.274 22.1 141.669 21.581 141.668L21.501 141.668zM21.391 145.728C20.839 145.72 20.397 145.269 20.401 144.717 20.4 144.172 20.841 143.729 21.387 143.728 21.391 143.728 21.396 143.728 21.401 143.728 21.952 143.729 22.399 144.176 22.401 144.728 22.396 145.278 21.951 145.723 21.401 145.728L21.391 145.728zM20.551 148.857C20.512 148.307 20.921 147.827 21.471 147.777 22.022 147.739 22.502 148.148 22.551 148.697 22.59 149.248 22.181 149.728 21.631 149.777L21.551 149.777C21.029 149.778 20.594 149.378 20.551 148.857zM21.121 152.987C21.014 152.449 21.364 151.926 21.902 151.819 21.905 151.819 21.908 151.818 21.911 151.817 22.449 151.71 22.972 152.06 23.079 152.598 23.08 152.601 23.08 152.604 23.081 152.607 23.188 153.146 22.838 153.669 22.3 153.776 22.297 153.776 22.294 153.777 22.291 153.777 22.228 153.789 22.165 153.795 22.101 153.797 21.622 153.798 21.21 153.458 21.121 152.987zM22.151 157.038C21.981 156.513 22.267 155.95 22.791 155.777 23.318 155.61 23.882 155.894 24.061 156.417L24.051 156.417C24.224 156.938 23.943 157.501 23.422 157.674 23.418 157.675 23.415 157.676 23.411 157.677 23.311 157.709 23.206 157.726 23.101 157.728 22.669 157.725 22.287 157.448 22.151 157.038zM23.731 160.927C23.487 160.433 23.688 159.834 24.181 159.587 24.677 159.344 25.276 159.549 25.519 160.044 25.52 160.045 25.521 160.046 25.521 160.047 25.76 160.542 25.56 161.137 25.071 161.387 24.93 161.454 24.777 161.488 24.621 161.487 24.241 161.488 23.895 161.27 23.731 160.927zM25.881 164.547C25.563 164.098 25.669 163.477 26.119 163.159 26.119 163.158 26.12 163.158 26.121 163.157 26.567 162.837 27.188 162.938 27.509 163.384 27.51 163.385 27.51 163.386 27.511 163.387 27.828 163.839 27.726 164.461 27.281 164.788 27.11 164.904 26.908 164.966 26.701 164.967 26.375 164.974 26.067 164.816 25.881 164.547zM37.511 100.498C36.964 100.503 36.516 100.064 36.511 99.517 36.511 99.51 36.511 99.504 36.511 99.498 36.513 99.233 36.617 98.978 36.801 98.788 37.202 98.418 37.82 98.418 38.221 98.788 38.405 98.978 38.509 99.233 38.511 99.498 38.516 100.045 38.077 100.492 37.53 100.498 37.524 100.498 37.518 100.498 37.511 100.498M149.161 16.317C149.163 15.766 149.609 15.319 150.161 15.317 150.713 15.319 151.159 15.766 151.161 16.317 151.16 16.869 150.713 17.316 150.161 17.317 149.611 17.319 149.163 16.875 149.161 16.325 149.161 16.322 149.161 16.32 149.161 16.317zM145.161 16.547C145.127 15.995 145.539 15.516 146.091 15.467 146.643 15.43 147.121 15.846 147.161 16.398 147.203 16.947 146.791 17.426 146.242 17.467L146.161 17.467C145.639 17.468 145.204 17.068 145.161 16.547zM154.061 17.498C153.512 17.445 153.109 16.957 153.161 16.408 153.161 16.408 153.161 16.408 153.161 16.407 153.204 15.866 153.678 15.462 154.219 15.505 154.226 15.506 154.234 15.507 154.241 15.507L154.241 15.498C154.793 15.549 155.199 16.036 155.151 16.587 155.101 17.103 154.668 17.496 154.151 17.498L154.061 17.498zM141.201 17.047C141.118 16.507 141.489 16.002 142.029 15.919 142.033 15.919 142.037 15.918 142.041 15.918 142.59 15.837 143.101 16.217 143.181 16.766 143.181 16.767 143.181 16.767 143.181 16.768 143.249 17.312 142.873 17.812 142.331 17.898 142.281 17.898 142.231 17.907 142.191 17.907 141.693 17.907 141.271 17.541 141.201 17.047zM157.911 18.047C157.371 17.936 157.022 17.409 157.131 16.868 157.237 16.33 157.76 15.98 158.297 16.087 158.299 16.087 158.3 16.087 158.301 16.087 158.839 16.188 159.194 16.705 159.094 17.243 159.093 17.248 159.092 17.252 159.091 17.257 158.999 17.726 158.589 18.066 158.111 18.067 158.044 18.066 157.977 18.059 157.911 18.047zM137.271 17.788C137.159 17.248 137.506 16.721 138.045 16.609 138.047 16.608 138.049 16.608 138.051 16.607 138.592 16.498 139.12 16.847 139.231 17.387 139.332 17.93 138.981 18.454 138.441 18.567 138.375 18.58 138.308 18.586 138.241 18.587 137.769 18.585 137.363 18.251 137.271 17.788zM161.661 19.027C161.141 18.857 160.858 18.296 161.028 17.776 161.029 17.773 161.03 17.77 161.031 17.768 161.203 17.244 161.766 16.958 162.291 17.128 162.816 17.304 163.097 17.873 162.921 18.398 162.787 18.807 162.402 19.083 161.971 19.078 161.866 19.081 161.76 19.064 161.661 19.027zM133.381 18.728C133.241 18.195 133.558 17.65 134.091 17.51 134.094 17.509 134.098 17.508 134.101 17.507 134.636 17.373 135.18 17.694 135.321 18.228 135.454 18.766 135.128 19.31 134.591 19.447 134.512 19.467 134.432 19.477 134.351 19.478 133.894 19.48 133.493 19.171 133.381 18.728zM129.541 19.848C129.381 19.321 129.676 18.763 130.201 18.598 130.731 18.438 131.291 18.738 131.451 19.268 131.608 19.795 131.314 20.35 130.791 20.518 130.697 20.545 130.599 20.558 130.501 20.558 130.06 20.557 129.671 20.269 129.541 19.848zM165.231 20.498C164.738 20.256 164.534 19.661 164.776 19.168 164.778 19.164 164.779 19.161 164.781 19.157 165.018 18.666 165.609 18.46 166.1 18.697 166.107 18.7 166.114 18.704 166.121 18.708 166.613 18.955 166.814 19.553 166.571 20.047 166.399 20.386 166.051 20.599 165.671 20.598 165.518 20.599 165.368 20.565 165.231 20.498zM125.751 21.137C125.569 20.616 125.841 20.045 126.361 19.858 126.883 19.673 127.456 19.946 127.641 20.467 127.826 20.989 127.553 21.562 127.031 21.748 126.922 21.787 126.807 21.807 126.691 21.808 126.267 21.807 125.89 21.538 125.751 21.137zM168.521 22.467C168.071 22.15 167.964 21.528 168.281 21.078 168.602 20.626 169.228 20.519 169.681 20.838 170.13 21.161 170.233 21.787 169.911 22.237 169.724 22.498 169.422 22.651 169.101 22.648 168.894 22.648 168.691 22.585 168.521 22.467zM122.021 22.567C121.815 22.058 122.061 21.478 122.571 21.272 122.574 21.27 122.578 21.269 122.581 21.268 123.095 21.069 123.673 21.318 123.881 21.828 124.08 22.344 123.826 22.924 123.311 23.128 123.197 23.175 123.075 23.198 122.951 23.197 122.541 23.199 122.172 22.949 122.021 22.567zM118.331 24.118C118.112 23.615 118.342 23.03 118.845 22.811 118.847 22.81 118.849 22.809 118.851 22.808 119.357 22.586 119.948 22.817 120.169 23.324 120.17 23.325 120.17 23.326 120.171 23.328 120.388 23.833 120.155 24.419 119.651 24.637 119.526 24.696 119.389 24.726 119.251 24.728 118.85 24.728 118.487 24.487 118.331 24.118zM171.441 24.938C171.052 24.549 171.051 23.917 171.44 23.528 171.441 23.528 171.441 23.528 171.441 23.527 171.829 23.138 172.46 23.137 172.849 23.526 172.85 23.526 172.85 23.527 172.851 23.527 173.24 23.916 173.241 24.546 172.853 24.936 172.852 24.936 172.852 24.937 172.851 24.938 172.668 25.129 172.415 25.237 172.151 25.237 171.883 25.239 171.626 25.131 171.441 24.938zM114.701 25.797C114.466 25.3 114.678 24.706 115.175 24.47 115.177 24.469 115.179 24.468 115.181 24.467 115.681 24.236 116.274 24.45 116.511 24.947 116.743 25.447 116.529 26.041 116.031 26.277 115.896 26.34 115.75 26.374 115.601 26.378 115.215 26.373 114.865 26.148 114.701 25.797z"/>
    <path fill="#FFF" d="M125.015,19.457 C126.622,19.457 127.924,20.759 127.924,22.366 C127.924,23.973 126.622,25.275 125.015,25.275 C123.409,25.275 122.106,23.973 122.106,22.366 C122.106,20.759 123.409,19.457 125.015,19.457"/>
    <path fill="#48515A" d="M125.015,20.457 C123.961,20.457 123.106,21.312 123.106,22.366 C123.106,23.421 123.961,24.275 125.015,24.275 C126.07,24.275 126.924,23.421 126.924,22.366 C126.923,21.312 126.069,20.458 125.015,20.457 Z M125.015,26.275 C122.856,26.275 121.106,24.525 121.106,22.366 C121.106,20.207 122.856,18.457 125.015,18.457 C127.174,18.457 128.924,20.207 128.924,22.366 C128.922,24.524 127.173,26.273 125.015,26.275 Z"/>
    <path fill="#FFF" d="M129.341,60.208 L129.21,60.428 L129.051,60.137 L129.341,60.208 Z M128.947,72.475 L132.193,67.421 C142.307,77.898 157.702,100.185 157.702,100.185 C157.702,100.185 165.154,115.682 165.787,115.541 C167.089,118.461 168.263,121.364 169.262,124.231 C175.835,143.09 174.853,158.078 166.496,166.435 L170.738,170.678 C176.594,164.822 179.548,156.562 179.548,146.515 C179.548,139.278 178.014,131.112 174.927,122.256 C173.782,118.971 170.905,112.299 170.905,112.299 L163.254,97.792 C163.254,97.792 146.432,73.356 135.27,61.979 L138.64,56.318 L117.263,51.056 L128.947,72.475 Z"/>
    <path fill="#48515A" d="M125.122 57.109L129.134 64.466 132.441 58.911 125.122 57.109zM169.324 169.263L167.91 167.849C176.839 158.92 177.99 143.195 171.15 123.572 164.333 104.013 150.403 82.978 131.868 64.226L129.087 68.556 121.193 54.083 135.541 57.614 132.76 62.285C151.764 81.378 166.061 102.894 173.039 122.914 180.145 143.301 178.826 159.762 169.324 169.263zM26.531 26.47L25.117 25.056C29.644 20.528 35.76 17.843 43.293 17.075 49.045 16.585 54.838 16.981 60.47 18.248L60.06 20.205C54.63 18.981 49.044 18.596 43.497 19.064 36.433 19.785 30.725 22.276 26.531 26.47M63.821 20.768C63.757 20.766 63.694 20.759 63.631 20.748 63.561 20.728 63.501 20.708 63.441 20.687 63.381 20.657 63.321 20.628 63.271 20.598 63.214 20.562 63.164 20.518 63.121 20.467 62.732 20.093 62.72 19.473 63.095 19.084 63.103 19.075 63.112 19.066 63.121 19.058 63.164 19.007 63.214 18.963 63.271 18.927 63.321 18.898 63.381 18.868 63.441 18.837 63.502 18.815 63.566 18.798 63.631 18.788 63.759 18.757 63.893 18.757 64.021 18.788 64.082 18.8 64.142 18.816 64.201 18.837 64.271 18.868 64.321 18.898 64.381 18.927 64.433 18.968 64.484 19.011 64.531 19.058 64.621 19.152 64.695 19.26 64.751 19.378 64.8 19.502 64.824 19.634 64.821 19.768 64.824 20.031 64.719 20.283 64.531 20.467 64.484 20.514 64.433 20.557 64.381 20.598 64.321 20.628 64.271 20.657 64.201 20.687L64.021 20.748C63.955 20.759 63.888 20.766 63.821 20.768M135.691 176.398C135.144 176.384 134.704 175.944 134.691 175.398 134.693 175.264 134.721 175.131 134.771 175.007 134.82 174.886 134.895 174.776 134.991 174.688 135.388 174.317 136.004 174.317 136.401 174.688 136.494 174.779 136.569 174.887 136.621 175.007 136.668 175.132 136.692 175.264 136.691 175.398 136.693 175.661 136.589 175.913 136.401 176.098 136.214 176.289 135.958 176.397 135.691 176.398M164.841 171.657C164.519 171.217 164.615 170.6 165.055 170.279 165.061 170.275 165.066 170.271 165.071 170.268 165.517 169.947 166.138 170.049 166.459 170.495 166.46 170.496 166.46 170.497 166.461 170.498 166.781 170.944 166.68 171.565 166.234 171.885 166.233 171.886 166.232 171.887 166.231 171.887 166.064 172.012 165.86 172.079 165.651 172.078 165.328 172.081 165.024 171.924 164.841 171.657zM161.441 173.547C161.19 173.064 161.378 172.468 161.862 172.217 161.868 172.214 161.875 172.211 161.881 172.208 162.363 171.954 162.959 172.139 163.213 172.621 163.216 172.626 163.218 172.632 163.221 172.637 163.474 173.127 163.281 173.729 162.791 173.982 162.788 173.984 162.785 173.986 162.781 173.987 162.642 174.058 162.488 174.096 162.331 174.098 161.954 174.098 161.609 173.885 161.441 173.547zM157.801 174.927C157.627 174.403 157.908 173.836 158.431 173.657 158.953 173.479 159.521 173.756 159.701 174.277 159.879 174.799 159.602 175.367 159.081 175.547 158.975 175.587 158.864 175.607 158.751 175.607 158.324 175.6 157.946 175.329 157.801 174.927zM154.031 175.837C153.914 175.304 154.252 174.778 154.785 174.661 154.79 174.66 154.796 174.658 154.801 174.657 155.334 174.541 155.861 174.878 155.978 175.411 155.979 175.416 155.98 175.422 155.981 175.427 156.098 175.96 155.761 176.487 155.228 176.604 155.222 176.605 155.217 176.606 155.211 176.607 155.146 176.626 155.079 176.636 155.011 176.637 154.536 176.636 154.127 176.302 154.031 175.837zM139.411 176.998C138.862 176.929 138.472 176.428 138.541 175.878 138.541 175.878 138.541 175.878 138.541 175.877 138.61 175.328 139.111 174.939 139.66 175.007L139.661 175.007C140.203 175.073 140.589 175.565 140.524 176.107 140.523 176.114 140.522 176.121 140.521 176.127 140.464 176.627 140.043 177.004 139.541 177.007 139.491 177.007 139.451 176.998 139.411 176.998zM150.171 176.337C150.113 175.788 150.511 175.296 151.06 175.237L151.061 175.237C151.609 175.183 152.1 175.58 152.161 176.127 152.22 176.677 151.822 177.169 151.273 177.227 151.272 177.227 151.272 177.228 151.271 177.228 151.238 177.236 151.205 177.239 151.171 177.237 150.657 177.237 150.225 176.849 150.171 176.337zM143.341 177.368C142.79 177.333 142.37 176.859 142.401 176.308 142.436 175.759 142.91 175.342 143.459 175.377 143.46 175.377 143.46 175.377 143.461 175.377 144.011 175.409 144.432 175.88 144.401 176.431 144.401 176.433 144.401 176.435 144.401 176.438 144.369 176.965 143.929 177.374 143.401 177.368L143.341 177.368zM146.291 176.478C146.279 175.932 146.712 175.48 147.258 175.468 147.262 175.467 147.267 175.467 147.271 175.467 147.823 175.458 148.278 175.896 148.291 176.447 148.3 177.002 147.857 177.459 147.302 177.467 147.302 177.467 147.302 177.467 147.301 177.467L147.291 177.467C146.743 177.467 146.297 177.026 146.291 176.478z"/>
    <path fill="#48515A" d="M168.621 169.558C168.554 169.556 168.487 169.55 168.421 169.538 168.355 169.527 168.291 169.506 168.231 169.478 168.169 169.458 168.112 169.427 168.061 169.387 168.009 169.35 167.959 169.31 167.911 169.268 167.725 169.078 167.62 168.823 167.621 168.558 167.619 168.427 167.643 168.298 167.691 168.177 167.741 168.053 167.816 167.941 167.911 167.848 167.957 167.802 168.007 167.762 168.061 167.728 168.112 167.688 168.17 167.657 168.231 167.637 168.291 167.608 168.355 167.588 168.421 167.578 168.616 167.537 168.819 167.558 169.001 167.637 169.12 167.686 169.229 167.757 169.321 167.848 169.42 167.938 169.495 168.051 169.541 168.177 169.592 168.298 169.62 168.427 169.621 168.558 169.617 169.108 169.172 169.554 168.621 169.558M25.071 26.427C24.682 26.039 24.681 25.409 25.069 25.02 25.07 25.019 25.071 25.018 25.071 25.018 25.464 24.628 26.098 24.628 26.491 25.018 26.88 25.406 26.881 26.037 26.492 26.426 26.492 26.427 26.492 26.427 26.491 26.427 26.304 26.616 26.047 26.721 25.781 26.717 25.515 26.721 25.259 26.616 25.071 26.427zM22.621 29.588C22.173 29.263 22.07 28.638 22.391 28.188 22.709 27.741 23.329 27.636 23.776 27.954 23.778 27.955 23.78 27.957 23.781 27.958 24.228 28.276 24.332 28.897 24.014 29.344 24.013 29.346 24.012 29.347 24.011 29.348 23.828 29.614 23.524 29.771 23.201 29.768 22.994 29.768 22.792 29.705 22.621 29.587L22.621 29.588zM20.701 33.088C20.208 32.845 20.005 32.248 20.248 31.754 20.249 31.752 20.25 31.75 20.251 31.748 20.501 31.258 21.096 31.058 21.591 31.298 22.084 31.539 22.288 32.134 22.046 32.627 22.045 32.63 22.043 32.634 22.041 32.637 21.874 32.977 21.53 33.194 21.151 33.197 20.995 33.195 20.841 33.158 20.701 33.087L20.701 33.088zM19.311 36.838C18.791 36.667 18.507 36.107 18.678 35.586 18.679 35.583 18.68 35.581 18.681 35.578 18.851 35.054 19.413 34.767 19.937 34.936 19.938 34.937 19.94 34.937 19.941 34.938 20.467 35.113 20.754 35.68 20.581 36.208 20.444 36.616 20.061 36.89 19.631 36.887 19.522 36.89 19.414 36.874 19.311 36.837L19.311 36.838zM18.421 40.737C17.879 40.626 17.527 40.101 17.631 39.558 17.742 39.017 18.27 38.668 18.811 38.777 19.348 38.883 19.698 39.404 19.592 39.942 19.592 39.944 19.591 39.945 19.591 39.947 19.502 40.418 19.09 40.759 18.611 40.757 18.547 40.756 18.484 40.749 18.421 40.737zM17.961 44.708C17.415 44.665 17.007 44.189 17.05 43.643 17.05 43.638 17.051 43.633 17.051 43.628L17.051 43.618C17.107 43.07 17.593 42.669 18.141 42.717 18.691 42.77 19.093 43.258 19.041 43.808 18.995 44.321 18.566 44.715 18.051 44.717 18.021 44.719 17.99 44.716 17.961 44.708zM16.871 47.708C16.869 47.157 17.313 46.71 17.864 46.708 17.866 46.708 17.869 46.708 17.871 46.708 18.416 46.706 18.86 47.148 18.861 47.693 18.861 47.698 18.861 47.703 18.861 47.708 18.866 48.254 18.427 48.702 17.88 48.708 17.874 48.708 17.867 48.708 17.861 48.708 17.315 48.709 16.872 48.267 16.871 47.722 16.871 47.717 16.871 47.712 16.871 47.708zM17.021 51.777C16.979 51.228 17.391 50.749 17.94 50.708L17.941 50.708C18.49 50.666 18.969 51.077 19.011 51.627 19.011 51.627 19.011 51.627 19.011 51.628 19.053 52.177 18.641 52.656 18.092 52.697 18.091 52.697 18.091 52.697 18.091 52.697 18.065 52.706 18.038 52.71 18.011 52.708 17.489 52.703 17.058 52.298 17.021 51.777zM17.461 55.817C17.384 55.271 17.765 54.765 18.311 54.688 18.857 54.612 19.362 54.992 19.441 55.538 19.52 56.081 19.144 56.587 18.6 56.666 18.597 56.667 18.594 56.667 18.591 56.668 18.545 56.676 18.498 56.679 18.451 56.677 17.953 56.677 17.531 56.311 17.461 55.817zM18.151 59.817C18.042 59.276 18.39 58.749 18.931 58.637 19.475 58.53 20.003 58.883 20.111 59.427 20.222 59.961 19.879 60.484 19.346 60.595 19.341 60.596 19.336 60.597 19.331 60.598 19.266 60.614 19.198 60.621 19.131 60.618 18.655 60.62 18.244 60.284 18.151 59.817zM19.061 63.768C18.921 63.236 19.238 62.691 19.77 62.55 19.774 62.549 19.777 62.548 19.781 62.547 20.314 62.415 20.853 62.737 20.991 63.268 21.131 63.799 20.814 64.344 20.282 64.484 20.279 64.485 20.275 64.486 20.271 64.487 20.189 64.508 20.105 64.518 20.021 64.518 19.567 64.517 19.172 64.208 19.061 63.768zM20.151 67.657C19.99 67.134 20.284 66.579 20.808 66.419 20.809 66.418 20.81 66.418 20.811 66.418 21.337 66.254 21.896 66.548 22.06 67.074 22.06 67.075 22.061 67.076 22.061 67.078 22.225 67.604 21.931 68.163 21.405 68.326 21.404 68.327 21.402 68.327 21.401 68.328 21.303 68.356 21.202 68.369 21.101 68.368 20.662 68.368 20.275 68.079 20.151 67.657zM21.411 71.498L21.411 71.507C21.224 70.991 21.49 70.42 22.007 70.233 22.011 70.231 22.016 70.229 22.021 70.228 22.54 70.045 23.108 70.318 23.291 70.837 23.291 70.837 23.291 70.837 23.291 70.838 23.479 71.354 23.212 71.925 22.695 72.113 22.691 72.114 22.686 72.116 22.681 72.118 22.575 72.154 22.463 72.17 22.351 72.168 21.926 72.171 21.547 71.901 21.411 71.498zM22.811 75.288C22.609 74.771 22.864 74.189 23.381 73.987 23.897 73.788 24.478 74.043 24.681 74.558 24.877 75.071 24.623 75.647 24.111 75.848 23.994 75.896 23.868 75.919 23.741 75.917 23.332 75.916 22.964 75.667 22.811 75.288zM24.351 79.018C24.134 78.509 24.366 77.921 24.871 77.697 25.379 77.481 25.967 77.712 26.191 78.217 26.412 78.724 26.181 79.314 25.675 79.536 25.673 79.537 25.672 79.537 25.671 79.538 25.544 79.589 25.408 79.616 25.271 79.618 24.874 79.612 24.516 79.379 24.351 79.018zM26.011 82.688C25.78 82.188 25.994 81.594 26.491 81.358 26.987 81.121 27.58 81.332 27.816 81.827 27.818 81.831 27.82 81.834 27.821 81.838 28.06 82.331 27.853 82.925 27.359 83.164 27.356 83.165 27.354 83.166 27.351 83.168 27.215 83.226 27.069 83.257 26.921 83.257 26.534 83.255 26.182 83.034 26.011 82.688z"/>
    <path fill="#FFF" d="M40.924,15.911 C42.531,15.911 43.833,17.214 43.833,18.821 C43.833,20.427 42.531,21.73 40.924,21.73 C39.318,21.73 38.015,20.427 38.015,18.821 C38.015,17.214 39.318,15.911 40.924,15.911"/>
    <path fill="#48515A" d="M40.924,16.912 C39.87,16.912 39.015,17.766 39.015,18.821 C39.015,19.875 39.87,20.73 40.924,20.73 C41.979,20.73 42.833,19.875 42.833,18.821 C42.832,17.767 41.978,16.913 40.924,16.912 Z M40.924,22.73 C38.765,22.73 37.015,20.98 37.015,18.821 C37.015,16.662 38.765,14.912 40.924,14.912 C43.083,14.912 44.833,16.662 44.833,18.821 C44.831,20.979 43.082,22.728 40.924,22.73 Z"/>
    <polygon fill="#48515A" points="6 86.984 8 86.984 8 82.984 6 82.984"/>
    <polygon fill="#48515A" points="6 96.984 8 96.984 8 92.984 6 92.984"/>
    <polygon fill="#48515A" points="10 90.984 14 90.984 14 88.984 10 88.984"/>
    <polygon fill="#48515A" points="0 90.984 4 90.984 4 88.984 0 88.984"/>
    <polygon fill="#48515A" points="184 96.984 186 96.984 186 92.984 184 92.984"/>
    <polygon fill="#48515A" points="184 106.984 186 106.984 186 102.984 184 102.984"/>
    <polygon fill="#48515A" points="188 100.984 192 100.984 192 98.984 188 98.984"/>
    <polygon fill="#48515A" points="178 100.984 182 100.984 182 98.984 178 98.984"/>
    <polygon fill="#48515A" points="46 154.984 48 154.984 48 150.984 46 150.984"/>
    <polygon fill="#48515A" points="46 164.984 48 164.984 48 160.984 46 160.984"/>
    <polygon fill="#48515A" points="50 158.984 54 158.984 54 156.984 50 156.984"/>
    <polygon fill="#48515A" points="40 158.984 44 158.984 44 156.984 40 156.984"/>
    <polyline fill="#DEDEDD" points="75.634 134.241 47.634 122.241 59.862 151.851 64.695 142.13 72.806 150.241 75.634 147.413 67.402 139.18 75.634 134.241"/>
    <polyline fill="#FFF" points="65.628 122.234 37.628 110.234 49.856 139.844 54.689 130.123 62.8 138.234 65.628 135.405 57.396 127.173 65.628 122.234"/>
    <path fill="#48515A" d="M39.488,112.119 L49.94,137.428 L54.413,128.433 L62.8,136.82 L64.214,135.405 L55.783,126.974 L63.437,122.383 L39.488,112.119 Z M49.771,142.259 L35.768,108.349 L67.819,122.085 L59.009,127.372 L67.042,135.405 L62.8,139.648 L54.965,131.813 L49.771,142.259 Z"/>
    <path fill="#FFD15D" d="M156.011,132.998 C158.22,132.998 160.011,134.788 160.011,136.998 C160.011,139.207 158.22,140.998 156.011,140.998 C153.802,140.998 152.011,139.207 152.011,136.998 C152.011,134.788 153.802,132.998 156.011,132.998"/>
    <path fill="#FFD15D" d="M156.011,142.998 C152.698,142.998 150.011,140.311 150.011,136.998 C150.011,133.684 152.698,130.998 156.011,130.998 C159.325,130.998 162.011,133.684 162.011,136.998 C162.008,140.31 159.323,142.994 156.011,142.998 Z M156.011,128.998 C151.593,128.998 148.011,132.579 148.011,136.998 C148.011,141.416 151.593,144.998 156.011,144.998 C160.43,144.998 164.011,141.416 164.011,136.998 C164.011,132.579 160.43,128.998 156.011,128.998 Z"/>
    <polygon fill="#FFD15D" points="6.011 117.944 9.011 120.868 8.303 124.998 12.011 123.048 15.719 124.998 15.011 120.868 18.011 117.944 13.865 117.342 12.011 113.585 10.157 117.342"/>
    <polygon fill="#FFD15D" points="176.011 115.944 179.011 118.868 178.303 122.998 182.011 121.048 185.719 122.998 185.011 118.868 188.011 115.944 183.865 115.342 182.011 111.585 180.157 115.342"/>
  </g>
</svg>
