<svg xmlns="http://www.w3.org/2000/svg" xmlns:xlink="http://www.w3.org/1999/xlink" width="193" height="180" viewBox="0 0 193 180">
  <defs>
    <polygon id="cc384-a" points=".015 .174 176.015 .174 176.015 122.94 .015 122.94"/>
  </defs>
  <g fill="none" fill-rule="evenodd">
    <polyline fill="#DEDEDD" points="155.078 176.349 38.955 176.349 35.953 172.348 158.079 172.348 155.078 176.349"/>
    <path fill="#48515A" d="M147.954 112.422L145.954 112.422 145.954 64.347C145.952 62.691 144.61 61.349 142.954 61.347L133.016 61.347 133.016 59.347 142.954 59.347C145.714 59.35 147.951 61.587 147.954 64.347L147.954 112.422M123.017 129.347L53.954 129.347 53.954 127.347 45.954 127.347 45.954 64.347C45.957 61.587 48.194 59.35 50.954 59.347L61.016 59.347 61.016 61.347 50.954 61.347C49.298 61.349 47.956 62.691 47.954 64.347L47.954 125.347 55.954 125.347 55.954 127.347 123.017 127.347 123.017 129.347"/>
    <path fill="#48515A" d="M153.958,177.347 L39.951,177.347 C37.191,177.344 34.954,175.107 34.951,172.347 L34.979,172.115 L45.981,126.115 L47.927,126.58 L36.953,172.457 C37.014,174.069 38.338,175.345 39.951,175.347 L153.958,175.347 C155.571,175.345 156.895,174.069 156.956,172.457 L152.347,153.188 L154.292,152.723 L158.958,172.347 C158.955,175.107 156.718,177.344 153.958,177.347"/>
    <path fill="#DEDEDD" d="M81.954,155.347 L111.955,155.347 C112.507,155.347 112.955,155.794 112.955,156.347 L112.955,169.347 C112.955,169.899 112.507,170.347 111.955,170.347 L81.954,170.347 C81.402,170.347 80.954,169.899 80.954,169.347 L80.954,156.347 C80.954,155.794 81.402,155.347 81.954,155.347"/>
    <polygon fill="#DEDEDD" points="112.955 153.347 118.955 153.347 118.955 147.347 112.955 147.347"/>
    <polygon fill="#DEDEDD" points="104.955 153.347 110.955 153.347 110.955 147.347 104.955 147.347"/>
    <polygon fill="#DEDEDD" points="96.954 153.347 102.955 153.347 102.955 147.347 96.954 147.347"/>
    <polygon fill="#DEDEDD" points="88.954 153.347 94.954 153.347 94.954 147.347 88.954 147.347"/>
    <polygon fill="#DEDEDD" points="80.954 153.347 86.954 153.347 86.954 147.347 80.954 147.347"/>
    <polygon fill="#DEDEDD" points="72.954 153.347 78.954 153.347 78.954 147.347 72.954 147.347"/>
    <polygon fill="#DEDEDD" points="64.954 153.347 70.954 153.347 70.954 147.347 64.954 147.347"/>
    <polygon fill="#DEDEDD" points="56.954 153.347 62.954 153.347 62.954 147.347 56.954 147.347"/>
    <polygon fill="#DEDEDD" points="48.954 153.347 54.954 153.347 54.954 147.347 48.954 147.347"/>
    <polygon fill="#DEDEDD" points="116.955 145.347 122.955 145.347 122.955 139.347 116.955 139.347"/>
    <polygon fill="#DEDEDD" points="108.955 145.347 114.955 145.347 114.955 139.347 108.955 139.347"/>
    <polygon fill="#DEDEDD" points="100.955 145.347 106.955 145.347 106.955 139.347 100.955 139.347"/>
    <polygon fill="#DEDEDD" points="92.954 145.347 98.954 145.347 98.954 139.347 92.954 139.347"/>
    <polygon fill="#DEDEDD" points="84.954 145.347 90.954 145.347 90.954 139.347 84.954 139.347"/>
    <polygon fill="#DEDEDD" points="76.954 145.347 82.954 145.347 82.954 139.347 76.954 139.347"/>
    <polygon fill="#DEDEDD" points="68.954 145.347 74.954 145.347 74.954 139.347 68.954 139.347"/>
    <polygon fill="#DEDEDD" points="60.954 145.347 66.954 145.347 66.954 139.347 60.954 139.347"/>
    <polygon fill="#DEDEDD" points="52.954 145.347 58.954 145.347 58.954 139.347 52.954 139.347"/>
    <polygon fill="#DEDEDD" points="112.955 137.347 118.955 137.347 118.955 131.347 112.955 131.347"/>
    <polygon fill="#DEDEDD" points="104.955 137.347 110.955 137.347 110.955 131.347 104.955 131.347"/>
    <polygon fill="#DEDEDD" points="96.954 137.347 102.955 137.347 102.955 131.347 96.954 131.347"/>
    <polygon fill="#DEDEDD" points="88.954 137.347 94.954 137.347 94.954 131.347 88.954 131.347"/>
    <polygon fill="#DEDEDD" points="80.954 137.347 86.954 137.347 86.954 131.347 80.954 131.347"/>
    <polygon fill="#DEDEDD" points="72.954 137.347 78.954 137.347 78.954 131.347 72.954 131.347"/>
    <polygon fill="#DEDEDD" points="64.954 137.347 70.954 137.347 70.954 131.347 64.954 131.347"/>
    <polygon fill="#DEDEDD" points="56.954 137.347 62.954 137.347 62.954 131.347 56.954 131.347"/>
    <polyline fill="#FFD15D" points="63.007 44.596 63.007 .74 71.279 11.707 79.552 .706 87.825 11.673 96.098 .671 104.37 11.638 112.643 .637 120.916 11.604 129.189 .603 129.189 44.596 63.007 44.596"/>
    <path fill="#DFE0E0" d="M81.614,101.922 L81.614,106.292 L81.819,106.407 C91.1,111.621 102.416,111.672 111.744,106.542 L111.879,98.544 L111.879,91.803 C112.452,91.237 113.04,90.631 113.566,90.019 C113.392,90.168 113.225,90.326 113.067,90.493 C110.7,92.783 108.213,94.945 105.615,96.97 C103.909,98.427 101.745,99.238 99.502,99.261 L93.009,99.261 C90.766,99.238 88.602,98.427 86.896,96.97 C84.835,95.21 81.836,92.968 79.738,90.802 C79.675,90.736 79.601,90.671 79.533,90.606 C80.163,91.276 80.883,91.955 81.65,92.631 C81.633,92.639 81.614,92.647 81.614,92.667 L81.614,101.922"/>
    <polyline fill="#475059" points="52.016 120.594 50.016 120.594 50.016 112.875 81.444 102.186 82.088 104.079 52.016 114.308 52.016 120.594"/>
    <polyline fill="#475059" points="111.819 104.08 112.461 102.185 129.355 107.908 128.713 109.802 111.819 104.08"/>
    <polygon fill="#48515A" points="28.014 71.602 30.014 71.602 30.014 67.602 28.014 67.602"/>
    <polygon fill="#48515A" points="28.014 81.602 30.014 81.602 30.014 77.602 28.014 77.602"/>
    <polygon fill="#48515A" points="32.014 75.602 36.014 75.602 36.014 73.602 32.014 73.602"/>
    <polygon fill="#48515A" points="22.014 75.602 26.014 75.602 26.014 73.602 22.014 73.602"/>
    <path fill="#48515A" d="M81.859,106.353 C81.307,106.353 80.859,105.906 80.859,105.354 C80.859,105.353 80.859,105.353 80.859,105.353 L80.859,93.354 C80.859,92.801 81.307,92.354 81.859,92.354 C82.412,92.354 82.859,92.801 82.859,93.354 L82.859,105.353 C82.859,105.905 82.412,106.353 81.86,106.353 C81.86,106.353 81.86,106.353 81.859,106.353"/>
    <path fill="#48515A" d="M111.859,106.353 C111.307,106.353 110.86,105.906 110.859,105.354 C110.859,105.353 110.859,105.353 110.859,105.353 L110.859,91.155 L111.038,90.898 C111.447,90.308 111.94,89.73 112.418,89.171 C113.061,88.505 113.604,87.75 114.033,86.93 L120.076,74.276 L126.978,70.766 L128.554,62.831 C128.541,62.158 128.273,61.515 127.804,61.032 C127.416,60.611 126.874,60.366 126.302,60.353 L123.728,60.353 L123.931,59.182 C124.468,56.577 124.779,53.93 124.859,51.272 L124.809,49.917 C124.811,45.982 123.948,42.094 122.28,38.53 C122.126,38.186 121.97,37.856 121.808,37.53 C119.922,33.745 117.223,30.422 113.904,27.8 C102.73,18.905 86.652,19.846 76.591,29.983 C71.043,35.492 67.903,42.975 67.859,50.793 L67.859,51.272 C67.894,53.931 68.133,56.582 68.576,59.204 L68.749,60.353 L66.373,60.353 C65.07,60.468 64.057,61.536 64.011,62.843 L66.252,70.921 L72.262,74.416 L78.2,87.026 C79.032,89.249 82.757,92.309 85.476,94.543 C86.145,95.092 86.781,95.615 87.348,96.099 C88.846,97.471 90.781,98.269 92.812,98.353 L98.859,98.353 C99.412,98.353 99.859,98.801 99.859,99.353 C99.859,99.905 99.412,100.353 98.859,100.353 L92.812,100.353 C90.305,100.27 87.909,99.302 86.049,97.62 C85.491,97.144 84.865,96.629 84.206,96.088 C80.991,93.446 77.347,90.452 76.358,87.802 L70.718,75.832 L64.543,72.24 L62.008,62.968 C61.973,60.502 63.908,58.456 66.373,58.353 L66.43,58.353 C66.07,56.009 65.879,53.643 65.859,51.272 L65.859,50.793 C65.905,42.442 69.257,34.449 75.182,28.564 C80.769,22.919 88.374,19.732 96.316,19.707 C96.384,19.707 96.45,19.707 96.519,19.707 C103.283,19.73 109.842,22.028 115.143,26.23 C118.694,29.035 121.581,32.59 123.599,36.641 C123.772,36.989 123.938,37.342 124.1,37.699 C125.871,41.493 126.796,45.627 126.809,49.814 L126.859,50.149 L126.859,51.272 C126.812,53.65 126.559,56.019 126.104,58.353 L126.302,58.353 C127.415,58.364 128.475,58.828 129.238,59.638 C130.105,60.526 130.578,61.724 130.553,62.964 L130.533,63.13 L128.749,72.107 L121.588,75.751 L115.871,87.713 C115.378,88.729 114.726,89.66 113.939,90.47 C113.566,90.907 113.182,91.357 112.859,91.791 L112.859,105.353 C112.86,105.905 112.412,106.353 111.86,106.353 C111.86,106.353 111.86,106.353 111.859,106.353"/>
    <path fill="#5FE0ED" d="M79.858,102.39 L79.858,93.354 C79.858,93.326 79.872,93.303 79.874,93.276 C77.806,91.435 76.007,89.544 75.357,87.803 L69.717,75.832 L63.542,72.239 L61.11,63.347 L48.954,63.347 L48.954,113.203 L79.858,102.39"/>
    <path fill="#DFE0E0" d="M160.324 125.568L153.697 125.568C154.658 130.267 153.303 135.142 150.055 138.672 151.792 138.982 153.305 140.041 154.19 141.568L159.809 141.568C160.698 140.035 162.218 138.974 163.963 138.668 160.717 135.139 159.364 130.266 160.324 125.568M173.855 143.51L176.649 156.795C177.183 158.79 179.233 159.974 181.227 159.441 182.862 159.003 184 157.522 184 155.83L184.001 140.556C181.415 142.51 178.263 143.568 175.021 143.569 174.628 143.569 174.241 143.539 173.855 143.51M175.021 137.569C179.837 137.561 183.794 133.765 184.002 128.955L184.002 128.869C184.005 128.757 184.012 128.648 184.02 128.537 184.015 127.448 183.81 126.37 183.418 125.354 183.379 125.255 183.348 125.153 183.306 125.054 183.285 125.004 183.257 124.957 183.235 124.907 182.755 123.845 182.076 122.886 181.234 122.08L181.073 121.927C178.505 119.568 174.801 118.916 171.582 120.255L171.574 120.258C171.182 120.424 170.802 120.617 170.438 120.837 170.387 120.868 170.336 120.898 170.286 120.93 169.144 121.641 168.176 122.598 167.451 123.73L167.35 123.887C164.754 128.114 166.075 133.644 170.302 136.24 171.721 137.112 173.355 137.572 175.021 137.569M143.736 120.93C143.685 120.898 143.634 120.868 143.583 120.837 143.219 120.618 142.839 120.424 142.447 120.258L142.439 120.255C139.199 118.907 135.47 119.577 132.902 121.969L132.772 122.093C131.455 123.349 130.552 124.976 130.183 126.758 130.14 126.97 130.112 127.186 130.084 127.403 130.073 127.487 130.055 127.568 130.046 127.652 129.54 132.597 133.138 137.016 138.083 137.522 143.028 138.028 147.447 134.43 147.953 129.485 147.984 129.181 148 128.875 148 128.569 147.999 126.915 147.539 125.295 146.672 123.887L146.571 123.73C145.845 122.598 144.877 121.641 143.736 120.93M130 140.54L130 155.83C130 157.894 131.673 159.567 133.737 159.568 135.444 159.568 136.934 158.412 137.358 156.758L140.167 143.51C139.78 143.539 139.394 143.569 139 143.569 135.75 143.568 132.589 142.504 130 140.54"/>
    <polygon fill="#48515A" points="132.967 129.53 144.967 129.53 144.967 127.53 132.967 127.53"/>
    <polygon fill="#48515A" points="137.969 134.529 139.969 134.529 139.969 122.532 137.969 122.532"/>
    <path fill="#48515A" d="M139 117.569C132.925 117.569 128 122.494 128 128.569 128 134.644 132.925 139.569 139 139.569 145.075 139.569 150 134.644 150 128.569 149.993 122.497 145.072 117.576 139 117.569zM139 141.569C131.82 141.569 126 135.749 126 128.569 126 121.389 131.82 115.569 139 115.569 146.18 115.569 152 121.389 152 128.569 151.992 135.745 146.176 141.561 139 141.569zM175.021 117.569C168.946 117.569 164.021 122.494 164.021 128.569 164.021 134.644 168.946 139.569 175.021 139.569 181.097 139.569 186.021 134.644 186.021 128.569 186.015 122.497 181.094 117.576 175.021 117.569zM175.021 141.569C167.842 141.569 162.021 135.749 162.021 128.569 162.021 121.389 167.842 115.569 175.021 115.569 182.201 115.569 188.021 121.389 188.021 128.569 188.013 135.745 182.198 141.561 175.021 141.569z"/>
    <polygon fill="#48515A" points="149.833 123.568 164.5 123.568 164.5 121.568 149.833 121.568"/>
    <path fill="#48515A" d="M149 139.568C146.239 139.568 144 141.807 144 144.568 144 147.329 146.239 149.568 149 149.568 151.761 149.568 154 147.329 154 144.568 153.997 141.808 151.76 139.571 149 139.568zM149 151.568C145.134 151.568 142 148.434 142 144.568 142 140.702 145.134 137.568 149 137.568 152.866 137.568 156 140.702 156 144.568 155.995 148.432 152.864 151.564 149 151.568zM165 139.568C162.239 139.568 160 141.807 160 144.568 160 147.329 162.239 149.568 165 149.568 167.761 149.568 170 147.329 170 144.568 169.997 141.808 167.76 139.571 165 139.568zM165 151.568C161.134 151.568 158 148.434 158 144.568 158 140.702 161.134 137.568 165 137.568 168.866 137.568 172 140.702 172 144.568 171.995 148.432 168.864 151.564 165 151.568z"/>
    <path fill="#48515A" d="M133.738 163.568C129.466 163.563 126.005 160.101 126 155.829L126 128.569 128 128.569 128 155.829C128 158.998 130.569 161.568 133.738 161.568 136.372 161.568 138.667 159.776 139.306 157.221L142.03 144.36 143.987 144.775 141.254 157.671C140.406 161.133 137.303 163.568 133.738 163.568M180.261 163.568C176.708 163.572 173.611 161.153 172.754 157.706L170.033 144.774 171.99 144.362 174.702 157.258C175.491 160.328 178.62 162.177 181.69 161.387 184.226 160.735 186 158.448 186 155.829L186 128.569 188 128.569 188 155.829C187.995 160.101 184.533 163.563 180.261 163.568"/>
    <polyline fill="#48515A" points="132 119.568 130 119.568 130 114.154 132.586 111.568 141.414 111.568 144 114.154 144 116.566 142 116.566 142 114.982 140.586 113.568 133.414 113.568 132 114.982 132 119.568"/>
    <polyline fill="#48515A" points="184 119.567 182 119.567 182 114.982 180.586 113.568 173.414 113.568 172 114.982 172 116.566 170 116.566 170 114.154 172.586 111.568 181.414 111.568 184 114.154 184 119.567"/>
    <polygon fill="#48515A" points="155 145.568 159 145.568 159 143.568 155 143.568"/>
    <path fill="#48515A" d="M172.029 128.583C171.477 128.583 171.029 129.03 171.029 129.583 171.029 130.135 171.477 130.583 172.029 130.583 172.582 130.583 173.029 130.135 173.029 129.583 173.029 129.031 172.581 128.583 172.029 128.583zM172.029 132.583C170.372 132.583 169.029 131.239 169.029 129.583 169.029 127.926 170.372 126.583 172.029 126.583 173.686 126.583 175.029 127.926 175.029 129.583 175.027 131.239 173.685 132.581 172.029 132.583zM178.029 124.583C177.477 124.583 177.029 125.03 177.029 125.583 177.029 126.135 177.477 126.583 178.029 126.583 178.582 126.583 179.029 126.135 179.029 125.583 179.029 125.031 178.581 124.583 178.029 124.583zM178.029 128.583C176.372 128.583 175.029 127.239 175.029 125.583 175.029 123.926 176.372 122.583 178.029 122.583 179.686 122.583 181.029 123.926 181.029 125.583 181.027 127.239 179.685 128.581 178.029 128.583z"/>
    <polygon fill="#48515A" points="155.029 137.584 159.029 137.584 159.029 135.584 155.029 135.584"/>
    <path fill="#48515A" d="M130 128.569C130 128.262 130.015 127.956 130.046 127.652 130.015 127.956 130 128.262 130 128.569M143.583 120.837C143.634 120.868 143.685 120.898 143.736 120.93 143.685 120.898 143.634 120.868 143.583 120.837M130.084 127.403C130.112 127.186 130.14 126.97 130.183 126.758 130.139 126.97 130.112 127.187 130.084 127.403M170.286 120.93C170.336 120.898 170.387 120.868 170.438 120.837 170.387 120.868 170.336 120.898 170.286 120.93M183.235 124.907C183.257 124.957 183.285 125.004 183.306 125.054 183.285 125.004 183.257 124.957 183.235 124.907M184.02 128.535C184.018 127.446 183.814 126.368 183.418 125.354 183.81 126.37 184.015 127.448 184.02 128.537L184.02 128.535"/>
    <path fill="#5FE0ED" d="M142.656,108.567 L143.954,109.865 L143.954,63.347 L130.49,63.347 L128.751,72.107 L121.588,75.751 L115.872,87.713 C115.379,88.729 114.726,89.66 113.939,90.47 C113.565,90.907 113.181,91.357 112.859,91.791 L112.859,102.324 L131.195,108.716 L142.656,108.567"/>
    <polygon fill="#DEDEDD" points="120.954 137.347 123 137.347 123 131.347 120.954 131.347"/>
    <polygon fill="#DEDEDD" points="120.954 153.347 123 153.347 123 147.347 120.954 147.347"/>
    <polygon fill="#48515A" points="184.107 91.614 186.107 91.614 186.107 87.614 184.107 87.614"/>
    <polygon fill="#48515A" points="184.107 101.614 186.107 101.614 186.107 97.614 184.107 97.614"/>
    <polygon fill="#48515A" points="188.107 95.614 192.107 95.614 192.107 93.614 188.107 93.614"/>
    <polygon fill="#48515A" points="178.107 95.614 182.107 95.614 182.107 93.614 178.107 93.614"/>
    <path fill="#FFD15D" d="M22.448,98.511 C32.389,98.511 40.448,106.57 40.448,116.511 C40.448,126.452 32.389,134.511 22.448,134.511 C12.507,134.511 4.448,126.452 4.448,116.511 C4.448,106.57 12.507,98.511 22.448,98.511"/>
    <path fill="#48515A" d="M22.447,124.549 C21.895,124.549 21.447,124.102 21.447,123.549 L21.447,110.473 L18.226,110.473 C17.673,110.473 17.226,110.025 17.226,109.473 C17.226,108.92 17.673,108.473 18.226,108.473 L22.447,108.473 C22.999,108.473 23.447,108.92 23.447,109.472 L23.447,123.549 C23.447,124.101 23,124.549 22.448,124.549 L22.447,124.549"/>
    <path fill="#48515A" d="M26.669,124.549 L18.225,124.549 C17.672,124.549 17.225,124.101 17.225,123.549 C17.225,122.997 17.672,122.549 18.225,122.549 L26.669,122.549 C27.221,122.549 27.669,122.997 27.669,123.549 C27.669,124.101 27.221,124.549 26.669,124.549"/>
    <path fill="#48515A" d="M22.447 132.592C13.57 132.582 6.376 125.388 6.366 116.511 6.366 115.959 6.814 115.511 7.366 115.511 7.918 115.511 8.366 115.959 8.366 116.511 8.367 124.288 14.672 130.593 22.449 130.592 26.533 130.592 30.415 128.819 33.09 125.733 33.451 125.316 34.082 125.27 34.5 125.63 34.918 125.991 34.964 126.623 34.603 127.04 34.602 127.042 34.601 127.043 34.6 127.044 31.545 130.568 27.111 132.593 22.447 132.592M.364 117.747C.334 117.192.76 116.717 1.314 116.687 1.866 116.661 2.335 117.085 2.364 117.637 2.395 118.186 1.975 118.656 1.426 118.687L1.364 118.687C.834 118.689.395 118.276.364 117.747zM.984 121.877C.854 121.341 1.18 120.801 1.715 120.667 2.251 120.53 2.796 120.854 2.933 121.39 2.933 121.392 2.934 121.395 2.935 121.397 3.062 121.932 2.737 122.471 2.204 122.607 2.126 122.626 2.045 122.636 1.965 122.637 1.503 122.637 1.1 122.324.984 121.877zM2.385 125.827C2.151 125.327 2.365 124.732 2.864 124.497 3.36 124.26 3.953 124.47 4.189 124.966 4.191 124.969 4.193 124.973 4.194 124.977 4.431 125.472 4.221 126.065 3.726 126.301 3.723 126.303 3.719 126.305 3.715 126.307 3.583 126.365 3.44 126.396 3.295 126.397 2.907 126.4 2.552 126.178 2.385 125.827zM4.494 129.427C4.174 128.98 4.277 128.358 4.724 128.037 4.724 128.037 4.724 128.037 4.725 128.037 5.17 127.717 5.79 127.815 6.114 128.257L6.124 128.257C6.446 128.707 6.344 129.333 5.895 129.657 5.726 129.78 5.523 129.847 5.314 129.847 4.99 129.844 4.686 129.688 4.494 129.427zM7.255 132.577C6.855 132.2 6.835 131.571 7.212 131.171 7.213 131.169 7.214 131.168 7.215 131.167 7.584 130.767 8.208 130.743 8.608 131.112 8.614 131.117 8.619 131.122 8.624 131.127 9.024 131.503 9.044 132.133 8.667 132.533 8.666 132.534 8.665 132.536 8.664 132.537 8.475 132.737 8.21 132.85 7.935 132.847 7.682 132.847 7.439 132.75 7.255 132.577zM10.545 135.157C10.081 134.854 9.946 134.234 10.244 133.767 10.543 133.304 11.16 133.171 11.624 133.467 12.087 133.76 12.225 134.373 11.932 134.836 11.929 134.84 11.927 134.843 11.925 134.847 11.743 135.135 11.425 135.309 11.084 135.307 10.894 135.305 10.708 135.254 10.545 135.157zM14.265 137.067L14.265 137.057C13.759 136.858 13.51 136.288 13.709 135.782 13.711 135.777 13.713 135.772 13.715 135.767 13.905 135.261 14.47 135.005 14.976 135.196 14.986 135.199 14.995 135.203 15.005 135.207 15.514 135.402 15.769 135.973 15.574 136.482 15.571 136.49 15.568 136.499 15.564 136.507 15.414 136.888 15.045 137.138 14.635 137.137 14.509 137.132 14.384 137.109 14.265 137.067zM18.284 138.237C17.744 138.129 17.388 137.61 17.484 137.067 17.59 136.521 18.118 136.163 18.664 136.267L18.654 136.267C19.197 136.368 19.556 136.89 19.455 137.433 19.455 137.434 19.454 137.436 19.454 137.437 19.365 137.908 18.953 138.248 18.475 138.247 18.411 138.248 18.347 138.245 18.284 138.237zM21.444 137.627C21.442 137.077 21.887 136.629 22.438 136.627 22.44 136.627 22.442 136.627 22.444 136.627 22.995 136.625 23.442 137.07 23.444 137.62 23.444 137.622 23.444 137.625 23.444 137.627 23.443 138.179 22.996 138.625 22.444 138.627 21.893 138.625 21.446 138.179 21.444 137.627z"/>
    <path fill="#48515A" d="M1.334 117.51C.782 117.51.334 117.063.334 116.511.334 116.511.334 116.511.334 116.51.348 104.303 10.24 94.411 22.447 94.397 23 94.397 23.447 94.844 23.447 95.397 23.447 95.949 23 96.397 22.447 96.397 11.344 96.409 2.346 105.407 2.334 116.51 2.334 117.062 1.887 117.51 1.335 117.51 1.334 117.51 1.334 117.51 1.334 117.51M22.448 138.625L22.447 138.625C21.895 138.625 21.447 138.177 21.447 137.625 21.447 137.072 21.895 136.625 22.447 136.625 33.556 136.625 42.561 127.619 42.562 116.511 42.562 115.959 43.009 115.511 43.562 115.511 44.114 115.511 44.562 115.959 44.562 116.511 44.561 128.724 34.661 138.624 22.448 138.625"/>
    <polygon fill="#48515A" points="6 149.649 8 149.649 8 145.649 6 145.649"/>
    <polygon fill="#48515A" points="6 159.649 8 159.649 8 155.649 6 155.649"/>
    <polygon fill="#48515A" points="10 153.649 14 153.649 14 151.649 10 151.649"/>
    <polygon fill="#48515A" points="0 153.649 4 153.649 4 151.649 0 151.649"/>
    <path fill="#FFD15D" d="M134.015 40.587C135.119 40.587 136.015 41.482 136.015 42.587 136.015 43.692 135.119 44.587 134.015 44.587 132.91 44.587 132.015 43.692 132.015 42.587 132.015 41.482 132.91 40.587 134.015 40.587M47.015 16.587C47.567 16.587 48.015 17.035 48.015 17.587 48.015 18.139 47.567 18.587 47.015 18.587 46.462 18.587 46.015 18.139 46.015 17.587 46.015 17.035 46.462 16.587 47.015 16.587M56.015 22.587C57.119 22.587 58.015 23.482 58.015 24.587 58.015 25.692 57.119 26.587 56.015 26.587 54.91 26.587 54.015 25.692 54.015 24.587 54.015 23.482 54.91 22.587 56.015 22.587M135.015 2.587C135.567 2.587 136.015 3.035 136.015 3.587 136.015 4.139 135.567 4.587 135.015 4.587 134.462 4.587 134.015 4.139 134.015 3.587 134.015 3.035 134.462 2.587 135.015 2.587M142.015 20.587C143.119 20.587 144.015 21.482 144.015 22.587 144.015 23.692 143.119 24.587 142.015 24.587 140.91 24.587 140.015 23.692 140.015 22.587 140.015 21.482 140.91 20.587 142.015 20.587M22.015 40.587C24.224 40.587 26.015 42.378 26.015 44.587 26.015 46.796 24.224 48.587 22.015 48.587 19.806 48.587 18.015 46.796 18.015 44.587 18.015 42.378 19.806 40.587 22.015 40.587"/>
    <path fill="#FFD15D" d="M22.015 50.587C18.701 50.587 16.015 47.901 16.015 44.587 16.015 41.273 18.701 38.587 22.015 38.587 25.328 38.587 28.015 41.273 28.015 44.587 28.011 47.899 25.327 50.583 22.015 50.587zM22.015 36.587C17.596 36.587 14.015 40.169 14.015 44.587 14.015 49.005 17.596 52.587 22.015 52.587 26.433 52.587 30.015 49.005 30.015 44.587 30.015 40.169 26.433 36.587 22.015 36.587zM166.015 68.587C168.224 68.587 170.015 70.378 170.015 72.587 170.015 74.796 168.224 76.587 166.015 76.587 163.806 76.587 162.015 74.796 162.015 72.587 162.015 70.378 163.806 68.587 166.015 68.587"/>
    <path fill="#FFD15D" d="M166.015,78.587 C162.701,78.587 160.015,75.901 160.015,72.587 C160.015,69.273 162.701,66.587 166.015,66.587 C169.328,66.587 172.015,69.273 172.015,72.587 C172.011,75.899 169.327,78.583 166.015,78.587 Z M166.015,64.587 C161.596,64.587 158.015,68.169 158.015,72.587 C158.015,77.005 161.596,80.587 166.015,80.587 C170.433,80.587 174.015,77.005 174.015,72.587 C174.015,68.169 170.433,64.587 166.015,64.587 Z"/>
    <g transform="translate(2 57)">
      <mask id="cc384-b" fill="#fff">
        <use xlink:href="#cc384-a"/>
      </mask>
      <polygon fill="#FFD15D" points=".015 4.534 3.015 7.458 2.306 11.587 6.015 9.637 9.723 11.587 9.015 7.458 12.015 4.534 7.869 3.931 6.015 .174 4.161 3.931" mask="url(#cc384-b)"/>
      <polygon fill="#FFD15D" points="164.015 115.946 167.015 118.871 166.306 123 170.015 121.05 173.723 123 173.015 118.871 176.015 115.946 171.869 115.344 170.015 111.587 168.161 115.344" mask="url(#cc384-b)"/>
    </g>
  </g>
</svg>
