<svg xmlns="http://www.w3.org/2000/svg" xmlns:xlink="http://www.w3.org/1999/xlink" width="188" height="184" viewBox="0 0 188 184">
  <defs>
    <polygon id="cc382-a" points=".06 .971 14 .971 14 2.971 .06 2.971"/>
  </defs>
  <g fill="none" fill-rule="evenodd">
    <path fill="#DEDEDD" d="M105.904 20.454L109.881 12.557C112.872 13.526 112.061 13.263 115.052 14.232L113.645 22.962C116.029 24.174 115.929 24.123 118.314 25.335L124.536 19.053C127.082 20.899 126.392 20.399 128.937 22.244L124.901 30.112C126.794 32.001 126.715 31.922 128.608 33.812L136.468 29.761C137.512 31.194 137.807 31.6 138.198 32.138L126.165 44.172C120.481 34.8 110.677 28.692 99.759 27.719L99.761 70.2 93.646 70.176 93.644 27.719C81.719 28.781 71.199 35.953 65.852 46.665L59.859 40.673C59.895 40.601 59.929 40.534 59.968 40.458L53.686 34.235C55.531 31.689 55.031 32.379 56.876 29.834L64.744 33.871C66.633 31.978 66.554 32.057 68.444 30.164L64.392 22.304C66.933 20.454 66.244 20.955 68.786 19.105L75.022 25.376C77.404 24.159 77.304 24.21 79.686 22.993L78.261 14.266C81.25 13.292 80.44 13.556 83.429 12.581L87.422 20.472 92.593 19.647 93.935 10.907C97.079 10.905 96.227 10.905 99.371 10.902L100.73 19.64C103.372 20.056 103.262 20.039 105.904 20.454M105.904 158.707L109.881 166.604C112.872 165.636 112.061 165.898 115.052 164.929L113.645 156.199C116.029 154.987 115.929 155.038 118.314 153.826L124.536 160.108C127.082 158.262 126.392 158.762 128.937 156.917L124.901 149.049C126.794 147.16 126.715 147.239 128.608 145.349L136.468 149.401C137.512 147.967 137.807 147.561 138.198 147.023L126.165 134.989C120.481 144.361 110.677 150.47 99.759 151.443L99.761 108.961 93.646 108.986 93.644 151.443C81.719 150.38 71.199 143.208 65.852 132.496L59.859 138.489C59.895 138.56 59.929 138.627 59.968 138.704L53.686 144.927C55.531 147.472 55.031 146.782 56.876 149.327L64.744 145.291C66.633 147.184 66.554 147.105 68.444 148.998L64.392 156.858C66.933 158.708 66.244 158.206 68.786 160.057L75.022 153.786C77.404 155.003 77.304 154.952 79.686 156.168L78.261 164.896C81.25 165.87 80.44 165.606 83.429 166.58L87.422 158.69 92.593 159.514 93.935 168.254C97.079 168.257 96.227 168.256 99.371 168.259L100.73 159.521C103.372 159.105 103.262 159.122 105.904 158.707M27.038 79.082L19.141 75.105C20.11 72.114 19.847 72.925 20.816 69.934L29.546 71.342C30.758 68.957 30.707 69.057 31.919 66.673L25.637 60.45C27.483 57.905 26.983 58.594 28.828 56.049L36.696 60.085C38.585 58.192 38.506 58.271 40.396 56.378L36.345 48.518C37.778 47.474 38.184 47.179 38.722 46.788L50.756 58.821C41.384 64.506 35.276 74.309 34.303 85.227L76.784 85.225 76.759 91.341 34.303 91.343C35.365 103.267 42.537 113.788 53.249 119.134L47.256 125.127C47.185 125.091 47.118 125.057 47.041 125.018L40.818 131.3C38.273 129.455 38.963 129.955 36.418 128.11L40.455 120.242C38.561 118.353 38.64 118.432 36.747 116.543L28.887 120.594C27.037 118.053 27.539 118.742 25.689 116.2L31.959 109.965C30.743 107.583 30.793 107.682 29.577 105.301L20.849 106.725C19.876 103.737 20.139 104.547 19.165 101.557L27.056 97.565C26.635 94.924 26.652 95.034 26.231 92.393L17.491 91.051C17.489 87.907 17.489 88.759 17.486 85.615L26.224 84.256C26.64 81.614 26.623 81.724 27.038 79.082M165.29 79.082L173.188 75.105C172.219 72.114 172.481 72.925 171.513 69.934L162.783 71.342C161.571 68.957 161.621 69.057 160.41 66.673L166.692 60.45C164.846 57.904 165.346 58.594 163.5 56.049L155.633 60.085C153.743 58.192 153.823 58.271 151.933 56.378L155.984 48.518C154.551 47.474 154.145 47.179 153.607 46.788L141.573 58.821C150.945 64.506 157.053 74.309 158.026 85.227L115.545 85.225 115.569 91.341 158.026 91.343C156.964 103.267 149.792 113.788 139.08 119.134L145.072 125.127C145.144 125.091 145.211 125.057 145.287 125.018L151.511 131.3C154.056 129.455 153.366 129.955 155.911 128.11L151.874 120.242C153.767 118.353 153.688 118.432 155.581 116.543L163.441 120.594C165.291 118.053 164.79 118.742 166.64 116.2L160.369 109.965C161.586 107.583 161.535 107.682 162.752 105.301L171.479 106.725C172.453 103.737 172.189 104.547 173.163 101.557L165.273 97.565C165.694 94.924 165.677 95.034 166.098 92.393L174.838 91.051C174.84 87.907 174.84 88.759 174.843 85.615L166.105 84.256C165.689 81.614 165.706 81.724 165.29 79.082"/>
    <polyline fill="#F58E70" points="30.914 149.411 35.156 153.655 64.034 124.78 59.792 120.537 30.914 149.411"/>
    <path fill="#475059" d="M28.217 163.612L28.215 163.612C24.349 163.611 21.215 160.475 21.217 156.608 21.217 154.753 21.955 152.974 23.267 151.661L24.681 153.075C22.728 155.029 22.729 158.195 24.682 160.148 25.619 161.085 26.89 161.612 28.216 161.612L28.217 161.612C29.543 161.616 30.815 161.089 31.751 160.149L33.165 161.563C31.855 162.879 30.074 163.617 28.217 163.612M64.283 110.648L74.181 120.55 170.039 24.701 170.039 14.801 160.141 14.798 64.283 110.648zM74.181 123.379L61.455 110.648 159.313 12.798 172.039 12.801 172.039 25.529 74.181 123.379zM28.086 149.411L35.156 156.484 66.862 124.78 59.792 117.708 28.086 149.411zM35.156 159.313L25.258 149.411 59.792 114.879 69.69 124.78 35.156 159.313z"/>
    <path fill="#DEDEDD" d="M72.77,113.475 L71.356,112.061 L163.262,20.163 L164.676,21.577 L72.77,113.475 Z M168.039,16.801 L160.97,16.798 L67.11,110.648 L74.182,117.721 L168.039,23.872 L168.039,16.801 Z"/>
    <polyline fill="#475059" points="78.858 136.781 47.794 105.705 53.569 99.93 61.455 107.819 60.041 109.233 53.569 102.758 50.622 105.705 78.858 133.953 81.805 131.007 75.595 124.794 77.009 123.38 84.633 131.007 78.858 136.781"/>
    <path fill="#475059" d="M22.43 149.41L35.156 162.141 36.57 160.727 23.844 147.996 22.43 149.41zM35.156 164.969L19.602 149.41 23.844 145.168 39.398 160.727 35.156 164.969zM163.962 163.484C162.105 163.487 160.324 162.751 159.013 161.437L160.427 160.023C162.379 161.976 165.545 161.977 167.498 160.025 169.452 158.073 169.453 154.907 167.5 152.953L168.915 151.539C171.647 154.272 171.647 158.702 168.915 161.435 167.601 162.748 165.819 163.485 163.962 163.484"/>
    <polyline fill="#475059" points="81.935 87.182 20.149 25.392 20.152 12.666 32.879 12.666 94.665 74.456 93.251 75.87 32.051 14.666 22.151 14.666 22.149 24.563 83.349 85.768 81.935 87.182"/>
    <polyline fill="#475059" points="117.999 123.25 97.445 102.694 98.86 101.28 117.999 120.421 127.901 110.524 108.72 91.34 110.134 89.926 130.73 110.524 117.999 123.25"/>
    <path fill="#475059" d="M125.059,124.912 L156.763,156.618 L163.835,149.549 L132.132,117.842 L125.059,124.912 Z M156.763,159.446 L122.23,124.912 L132.132,115.014 L166.664,149.549 L156.763,159.446 Z"/>
    <path fill="#DEDEDD" d="M103.15 97.084L104.564 95.67 120.826 111.934 119.412 113.348 103.15 97.084zM107.392 92.841L100.32 99.913 117.999 117.594 125.072 110.523 107.392 92.841zM27.514 21.443L28.928 20.029 89.007 80.113 87.593 81.527 27.514 21.443zM31.222 16.665L24.151 16.666 24.148 23.735 84.765 84.356 91.837 77.285 31.222 16.665z"/>
    <polyline fill="#475059" points="113.056 136.911 107.28 131.136 115.17 123.25 116.584 124.664 110.11 131.136 113.056 134.083 141.304 105.847 138.358 102.9 132.145 109.109 130.731 107.695 138.358 100.072 144.133 105.847 113.056 136.911"/>
    <path fill="#475059" d="M155.348,160.86 L156.762,162.274 L169.492,149.548 L168.079,148.134 L155.348,160.86 Z M156.762,165.102 L152.519,160.86 L168.079,145.306 L172.321,149.548 L156.762,165.102 Z"/>
    <polyline fill="#5FE0ED" points="156.763 153.79 161.006 149.548 132.131 120.67 127.888 124.912 156.763 153.79"/>
    <polygon fill="#48515A" points="6 125.971 8 125.971 8 121.971 6 121.971"/>
    <polygon fill="#48515A" points="6 135.971 8 135.971 8 131.971 6 131.971"/>
    <g transform="translate(0 127)">
      <mask id="cc382-b" fill="#fff">
        <use xlink:href="#cc382-a"/>
      </mask>
      <polygon fill="#48515A" points="10 2.971 14 2.971 14 .971 10 .971" mask="url(#cc382-b)"/>
      <polygon fill="#48515A" points=".06 2.971 4 2.971 4 .971 .06 .971" mask="url(#cc382-b)"/>
    </g>
    <polygon fill="#48515A" points="104.059 27.912 106.059 27.912 106.059 23.912 104.059 23.912"/>
    <polygon fill="#48515A" points="104.059 37.912 106.059 37.912 106.059 33.912 104.059 33.912"/>
    <polygon fill="#48515A" points="108.059 31.912 112.059 31.912 112.059 29.912 108.059 29.912"/>
    <polygon fill="#48515A" points="98.059 31.912 102.059 31.912 102.059 29.912 98.059 29.912"/>
    <polygon fill="#48515A" points="124.071 174 126.071 174 126.071 170 124.071 170"/>
    <polygon fill="#48515A" points="124.071 184 126.071 184 126.071 180 124.071 180"/>
    <polygon fill="#48515A" points="128.071 178 132.071 178 132.071 176 128.071 176"/>
    <polygon fill="#48515A" points="118.071 178 122.071 178 122.071 176 118.071 176"/>
    <polygon fill="#48515A" points="25.002 71.06 47.002 71.06 47.002 69.06 25.002 69.06"/>
    <path fill="#48515A" d="M8.103,101.06 C8.581,103.387 10.627,105.057 13.002,105.06 L30.107,105.06 C29.008,103.987 28.293,102.581 28.073,101.06 L8.103,101.06 Z M35.002,107.06 L13.002,107.06 C9.138,107.056 6.006,103.924 6.002,100.06 L6.002,99.06 L30.002,99.06 L30.002,100.06 C30.002,102.822 32.241,105.06 35.002,105.06 C37.763,105.06 40.002,102.822 40.002,100.06 L40.002,76.06 L42.002,76.06 L42.002,100.06 C41.998,103.924 38.866,107.056 35.002,107.06 Z"/>
    <path fill="#48515A" d="M20.002 100.06L18.002 100.06 18.002 76.06C18.002 72.194 21.136 69.06 25.002 69.06 28.482 69.06 31.433 71.616 31.931 75.06L51.901 75.06C51.423 72.734 49.377 71.063 47.002 71.06L47.002 69.06C50.866 69.065 53.998 72.196 54.002 76.06L54.002 77.06 30.002 77.06 30.002 76.06C30.002 73.299 27.763 71.06 25.002 71.06 22.241 71.06 20.002 73.299 20.002 76.06L20.002 100.06M94.64 167.652L99.071 167.652 101.523 170.368 104.373 169.187 104.186 165.532 107.319 162.4 110.974 162.586 112.154 159.737 109.438 157.284 109.438 152.854 112.154 150.401 110.974 147.551 107.319 147.738 104.186 144.606 104.373 140.95 101.523 139.77 99.071 142.486 94.64 142.486 92.187 139.77 89.338 140.95 89.525 144.606 86.392 147.738 82.737 147.551 81.557 150.401 84.273 152.854 84.273 157.284 81.557 159.737 82.737 162.586 86.392 162.4 89.525 165.532 89.338 169.187 92.187 170.368 94.64 167.652zM100.984 172.756L98.182 169.652 95.529 169.652 92.727 172.756 87.269 170.495 87.482 166.319 85.606 164.443 81.43 164.655 79.169 159.198 82.273 156.396 82.273 153.742 79.169 150.94 81.43 145.482 85.606 145.695 87.482 143.819 87.269 139.643 92.727 137.382 95.529 140.486 98.182 140.486 100.984 137.382 106.442 139.643 106.229 143.819 108.105 145.695 112.282 145.482 114.542 150.94 111.438 153.742 111.438 156.396 114.542 159.198 112.282 164.655 108.105 164.443 106.229 166.318 106.442 170.495 100.984 172.756z"/>
    <path fill="#48515A" d="M96.855 152.49C95.431 152.49 94.277 153.645 94.277 155.069 94.277 156.493 95.431 157.648 96.855 157.648 98.28 157.648 99.434 156.493 99.434 155.069 99.433 153.646 98.279 152.492 96.855 152.49zM96.855 159.648C94.327 159.648 92.277 157.598 92.277 155.069 92.277 152.54 94.327 150.49 96.855 150.49 99.384 150.49 101.434 152.54 101.434 155.069 101.431 157.597 99.383 159.645 96.855 159.648zM166.052 70.358C155.558 70.358 147.052 78.864 147.052 89.358 147.052 99.851 155.558 108.358 166.052 108.358 176.545 108.358 185.052 99.851 185.052 89.358 185.04 78.869 176.54 70.37 166.052 70.358zM166.052 110.358C154.454 110.358 145.052 100.956 145.052 89.358 145.052 77.76 154.454 68.358 166.052 68.358 177.65 68.358 187.052 77.76 187.052 89.358 187.039 100.95 177.644 110.345 166.052 110.358z"/>
    <path fill="#48515A" d="M163.057,101.039 L169.057,101.039 L169.057,92.038 L178.058,92.037 L178.058,86.037 L169.057,86.037 L169.057,77.039 L163.057,77.039 L163.057,86.038 L154.058,86.038 L154.058,92.038 L163.057,92.038 L163.057,101.039 Z M171.057,103.039 L161.057,103.039 L161.057,94.038 L152.058,94.038 L152.058,84.038 L161.057,84.038 L161.057,75.039 L171.057,75.039 L171.057,84.037 L180.058,84.037 L180.058,94.037 L171.057,94.038 L171.057,103.039 Z"/>
    <polygon fill="#48515A" points="165.059 81.039 167.059 81.039 167.059 79.039 165.059 79.039"/>
    <polygon fill="#48515A" points="165.059 99.05 167.059 99.05 167.059 97.05 165.059 97.05"/>
    <polygon fill="#48515A" points="156.053 90.045 158.053 90.045 158.053 88.045 156.053 88.045"/>
    <polygon fill="#48515A" points="174.064 90.045 176.064 90.045 176.064 88.045 174.064 88.045"/>
    <path fill="#48515A" d="M166.059,88.038 C165.507,88.038 165.059,88.486 165.059,89.038 C165.059,89.591 165.507,90.038 166.059,90.038 C166.611,90.038 167.059,89.591 167.059,89.038 C167.058,88.486 166.611,88.039 166.059,88.038 Z M166.059,92.038 C164.402,92.038 163.059,90.695 163.059,89.038 C163.059,87.381 164.402,86.038 166.059,86.038 C167.716,86.038 169.059,87.381 169.059,89.038 C169.057,90.694 167.715,92.036 166.059,92.038 Z"/>
    <path fill="#FFD15D" d="M178.047,126 C180.256,126 182.047,127.791 182.047,130 C182.047,132.209 180.256,134 178.047,134 C175.838,134 174.047,132.209 174.047,130 C174.047,127.791 175.838,126 178.047,126"/>
    <path fill="#FFD15D" d="M178.047 136C174.733 136 172.047 133.313 172.047 130 172.047 126.686 174.733 124 178.047 124 181.361 124 184.047 126.686 184.047 130 184.043 133.312 181.359 135.996 178.047 136zM178.047 122C173.629 122 170.047 125.581 170.047 130 170.047 134.418 173.629 138 178.047 138 182.465 138 186.047 134.418 186.047 130 186.047 125.581 182.465 122 178.047 122zM16.047 48C18.256 48 20.047 49.791 20.047 52 20.047 54.209 18.256 56 16.047 56 13.838 56 12.047 54.209 12.047 52 12.047 49.791 13.838 48 16.047 48"/>
    <path fill="#FFD15D" d="M16.047,58 C12.733,58 10.047,55.313 10.047,52 C10.047,48.686 12.733,46 16.047,46 C19.361,46 22.047,48.686 22.047,52 C22.043,55.312 19.359,57.996 16.047,58 Z M16.047,44 C11.629,44 8.047,47.581 8.047,52 C8.047,56.418 11.629,60 16.047,60 C20.465,60 24.047,56.418 24.047,52 C24.047,47.581 20.465,44 16.047,44 Z"/>
    <polygon fill="#FFD15D" points="50.047 4.946 53.047 7.871 52.339 12 56.047 10.05 59.755 12 59.047 7.871 62.047 4.946 57.901 4.344 56.047 .587 54.193 4.344"/>
    <polygon fill="#FFD15D" points="146.047 172.946 149.047 175.871 148.339 180 152.047 178.05 155.755 180 155.047 175.871 158.047 172.946 153.901 172.344 152.047 168.587 150.193 172.344"/>
  </g>
</svg>
