<svg xmlns="http://www.w3.org/2000/svg" width="192" height="170" viewBox="0 0 192 170">
  <g fill="none" fill-rule="evenodd">
    <polygon fill="#FFD15D" points="122 4.947 125 7.871 124.292 12 128 10.05 131.708 12 131 7.871 134 4.947 129.854 4.344 128 .587 126.146 4.344"/>
    <polygon fill="#F58E70" points="64 8 66 8 66 2 64 2"/>
    <polygon fill="#F58E70" points="70 2 72 2 72 0 70 0"/>
    <polygon fill="#F58E70" points="68 2 70 2 70 0 68 0"/>
    <polygon fill="#F58E70" points="66 2 68 2 68 0 66 0"/>
    <polygon fill="#F58E70" points="72 4 74 4 74 2 72 2"/>
    <polygon fill="#F58E70" points="78 2 80 2 80 0 78 0"/>
    <polygon fill="#F58E70" points="76 2 78 2 78 0 76 0"/>
    <polygon fill="#F58E70" points="74 2 76 2 76 0 74 0"/>
    <polygon fill="#F58E70" points="80 8 82 8 82 2 80 2"/>
    <polygon fill="#F58E70" points="66 10 68 10 68 8 66 8"/>
    <polygon fill="#F58E70" points="68 12 70 12 70 10 68 10"/>
    <polygon fill="#F58E70" points="70 14 72 14 72 12 70 12"/>
    <polygon fill="#F58E70" points="72 16 74 16 74 14 72 14"/>
    <polygon fill="#F58E70" points="74 14 76 14 76 12 74 12"/>
    <polygon fill="#F58E70" points="76 12 78 12 78 10 76 10"/>
    <polygon fill="#F58E70" points="78 10 80 10 80 8 78 8"/>
    <polyline fill="#F58E70" points="146 108 146 106 140 106 140 108 138 108 138 106 132 106 132 108 130 108 130 114 132 114 132 116 134 116 134 118 136 118 136 120 138 120 138 122 140 122 140 120 142 120 142 118 144 118 144 116 146 116 146 114 148 114 148 108 146 108"/>
    <path fill="#F58E70" d="M184 88C185.105 88 186 88.895 186 90 186 91.104 185.105 92 184 92 182.895 92 182 91.104 182 90 182 88.895 182.895 88 184 88M12 128C13.105 128 14 128.895 14 130 14 131.105 13.105 132 12 132 10.895 132 10 131.105 10 130 10 128.895 10.895 128 12 128M172 4C173.105 4 174 4.895 174 6 174 7.105 173.105 8 172 8 170.895 8 170 7.105 170 6 170 4.895 170.895 4 172 4M108 152C109.105 152 110 152.895 110 154 110 155.105 109.105 156 108 156 106.895 156 106 155.105 106 154 106 152.895 106.895 152 108 152M90 124C91.105 124 92 124.895 92 126 92 127.105 91.105 128 90 128 88.895 128 88 127.105 88 126 88 124.895 88.895 124 90 124"/>
    <polygon fill="#48515A" points="26 124.013 28 124.013 28 70.017 26 70.017"/>
    <polygon fill="#48515A" points="46.002 147.018 150 147.018 150 145.018 46.002 145.018"/>
    <polygon fill="#48515A" points="165 130.019 167 130.019 167 70.02 165 70.02"/>
    <polygon fill="#48515A" points="42 55.018 150 55.018 150 53.018 42 53.018"/>
    <path fill="#48515A" d="M39.335,63.018 L68,63.018 L68,61.018 L39.335,61.018 L39.335,63.018 Z M76,63.018 L86.001,63.018 L86.001,61.018 L76,61.018 L76,63.018 Z M105.999,63.018 L115.667,63.018 L115.667,61.018 L105.999,61.018 L105.999,63.018 Z M124,63.018 L153.002,63.018 L153.002,61.018 L124,61.018 L124,63.018 Z M34,124.187 L36,124.187 L36,67.018 L34,67.018 L34,124.187 Z M157,132.934 L159,132.934 L159,66.69 L157,66.69 L157,132.934 Z M46.002,139.018 L68,139.018 L68,137.018 L46.002,137.018 L46.002,139.018 Z M76,139.018 L116,139.018 L116,137.018 L76,137.018 L76,139.018 Z M124,139.018 L152.831,139.018 L152.831,137.018 L124,137.018 L124,139.018 Z"/>
    <path fill="#48515A" d="M151.029 147.018L167 147.018 167 131.047C158.403 131.565 151.547 138.421 151.029 147.018zM169 149.018L149 149.018 149 148.018C149.012 137.53 157.512 129.03 168 129.018L169 129.018 169 149.018zM25.999 53.018L25.999 68.989C34.596 68.471 41.452 61.615 41.97 53.018L25.999 53.018zM24.999 71.018L23.999 71.018 23.999 51.018 43.999 51.018 43.999 52.018C43.988 62.507 35.488 71.006 24.999 71.018zM151.029 53.018C151.547 61.615 158.403 68.471 167 68.989L167 53.018 151.029 53.018zM169 71.018L168 71.018C157.512 71.006 149.012 62.507 149 52.018L149 51.018 169 51.018 169 71.018zM69 145.018L75 145.018 75 55.018 69 55.018 69 145.018zM67 147.018L77 147.018 77 53.018 67 53.018 67 147.018zM117 145.018L123 145.018 123 55.018 117 55.018 117 145.018zM115 147.018L125 147.018 125 53.018 115 53.018 115 147.018zM29 27L165 27 165 9 159 9 159 21 35 21 35 9 29 9 29 27zM167 29L27 29 27 7 37 7 37 19 157 19 157 7 167 7 167 29z"/>
    <polygon fill="#48515A" points="36 9 158 9 158 7 36 7"/>
    <polygon fill="#48515A" points="93 71 99 71 99 69 93 69"/>
    <polyline fill="#48515A" points="107 71 105 71 105 55 87 55 87 71 85 71 85 53 107 53 107 71"/>
    <path fill="#48515A" d="M88.001,75 L88.001,85 C88.003,87.208 89.792,88.997 92.001,89 L100,89 C102.209,88.997 103.998,87.208 104,85 L104,75 L88.001,75 Z M100,91 L92.001,91 C88.688,90.996 86.004,88.312 86.001,85 L86.001,73 L106,73 L106,85 C105.997,88.312 103.313,90.996 100,91 Z"/>
    <path fill="#48515A" d="M91,73 L101,73 L101,67 C100.998,64.792 99.209,63.003 97.001,63 L95,63 C92.792,63.003 91.003,64.792 91,67 L91,73 Z M103,75 L89,75 L89,67 C89.004,63.688 91.688,61.004 95,61 L97.001,61 C100.313,61.004 102.997,63.688 103,67 L103,75 Z"/>
    <polygon fill="#48515A" points="95 66 97 66 97 58 95 58"/>
    <polygon fill="#48515A" points="95 84 97 84 97 78.999 95 78.999"/>
    <path fill="#48515A" d="M45,53.018 L149,53.018 L149,51.022 L153.405,51.002 L165,29.745 L165,29 L29,29 L29,29.745 L40.595,51.002 L45,51.022 L45,53.018 Z M151,55.018 L43,55.018 L43,53.014 L39.405,52.997 L27,30.255 L27,27 L167,27 L167,30.255 L154.595,52.997 L151,53.014 L151,55.018 Z"/>
    <polyline fill="#FFD15D" points="47 51.018 146.999 51.018 146.999 49.03 152.215 49.008 162.037 31 31.963 31 41.785 49.008 47 49.03 47 51.018"/>
    <polyline fill="#FFD15D" points="31 25 163 25 163 11 161 11 161 23 33 23 33 11 31 11 31 25"/>
    <polygon fill="#FFD15D" points="71.001 142.999 73 142.999 73 57.001 71.001 57.001"/>
    <polygon fill="#FFD15D" points="119.029 142.999 121.028 142.999 121.028 57.001 119.029 57.001"/>
    <polygon fill="#FFD15D" points="161.055 127.99 163.053 127.99 163.053 72.01 161.055 72.01"/>
    <polygon fill="#FFD15D" points="29.976 122.987 31.975 122.987 31.975 72.01 29.976 72.01"/>
    <polygon fill="#FFD15D" points="45.01 58.974 64.969 58.974 64.969 56.975 45.01 56.975"/>
    <polygon fill="#DEDEDD" points="127.059 58.974 148.019 58.974 148.019 56.975 127.059 56.975"/>
    <polygon fill="#FFD15D" points="46.011 143.025 64.97 143.025 64.97 141.026 46.011 141.026"/>
    <polygon fill="#FFD15D" points="127.059 143.025 148.019 143.025 148.019 141.026 127.059 141.026"/>
    <polyline fill="#FFF" points="154.62 61.243 126.62 49.243 138.848 78.853 143.681 69.132 151.792 77.243 154.62 74.414 146.388 66.182 154.62 61.243"/>
    <path fill="#48515A" d="M128.481,51.128 L138.933,76.437 L143.405,67.441 L151.792,75.829 L153.207,74.414 L144.775,65.983 L152.429,61.392 L128.481,51.128 Z M138.764,81.268 L124.76,47.357 L156.812,61.094 L148.001,66.381 L156.035,74.414 L151.792,78.657 L143.958,70.822 L138.764,81.268 Z"/>
    <polygon fill="#48515A" points="6 68.178 8 68.178 8 64.178 6 64.178"/>
    <polygon fill="#48515A" points="6 78.178 8 78.178 8 74.178 6 74.178"/>
    <polygon fill="#48515A" points="10 72.178 14 72.178 14 70.178 10 70.178"/>
    <polygon fill="#48515A" points="0 72.178 4 72.178 4 70.178 0 70.178"/>
    <polygon fill="#48515A" points="184 129.988 186 129.988 186 125.988 184 125.988"/>
    <polygon fill="#48515A" points="184 139.988 186 139.988 186 135.988 184 135.988"/>
    <polygon fill="#48515A" points="188 133.988 192 133.988 192 131.988 188 131.988"/>
    <polygon fill="#48515A" points="178 133.988 182 133.988 182 131.988 178 131.988"/>
    <polygon fill="#48515A" points="170.006 38.019 172.006 38.019 172.006 34.019 170.006 34.019"/>
    <polygon fill="#48515A" points="170.006 48.019 172.006 48.019 172.006 44.019 170.006 44.019"/>
    <polygon fill="#48515A" points="174.006 42.019 178.006 42.019 178.006 40.019 174.006 40.019"/>
    <polygon fill="#48515A" points="164.006 42.019 168.006 42.019 168.006 40.019 164.006 40.019"/>
    <polygon fill="#FFD15D" points="79.031 143.027 112.998 143.027 112.998 141.029 79.031 141.029"/>
    <polygon fill="#FFD15D" points="108.999 58.975 112.998 58.975 112.998 56.976 108.999 56.976"/>
    <polygon fill="#FFD15D" points="79.031 58.979 82.999 58.979 82.999 56.981 79.031 56.981"/>
    <path fill="#48515A" d="M30.658,126.983 L19.929,134.371 C19.666,134.555 19.512,134.857 19.516,135.177 L19.556,146.889 C19.554,147.209 19.711,147.51 19.975,147.692 L30.754,155.005 L31.264,155.003 L41.993,147.617 C42.255,147.433 42.41,147.131 42.406,146.81 L42.366,135.098 C42.368,134.778 42.211,134.477 41.947,134.295 L31.168,126.981 L30.658,126.983 Z M30.142,157.007 L18.852,149.347 C18.041,148.794 17.556,147.876 17.556,146.895 L17.516,135.184 C17.509,134.202 17.988,133.281 18.795,132.723 L30.033,124.985 L31.78,124.98 L43.07,132.64 C43.88,133.193 44.365,134.11 44.366,135.091 L44.406,146.803 C44.413,147.784 43.934,148.705 43.127,149.264 L31.889,157.001 L30.142,157.007 Z"/>
    <polyline fill="#48515A" points="30.983 143.785 18.065 135.414 19.153 133.735 30.949 141.379 42.795 133.223 43.929 134.87 30.983 143.785"/>
    <polyline fill="#48515A" points="29.966 142.585 31.966 142.579 32.012 155.879 30.012 155.886 29.966 142.585"/>
    <polyline fill="#48515A" points="21.969 143.034 23.969 143.027 23.976 145.027 21.976 145.034 21.969 143.034"/>
    <polyline fill="#48515A" points="25.976 145.011 27.976 145.004 27.982 147.004 25.982 147.011 25.976 145.011"/>
    <polyline fill="#48515A" points="35.971 143.976 37.971 143.969 37.977 145.969 35.977 145.976 35.971 143.976"/>
    <polyline fill="#48515A" points="25.933 133.011 27.933 133.004 27.94 135.004 25.94 135.011 25.933 133.011"/>
    <polyline fill="#48515A" points="29.933 132.998 31.933 132.991 31.94 134.991 29.94 134.998 29.933 132.998"/>
    <polyline fill="#48515A" points="33.933 132.984 35.933 132.977 35.94 134.977 33.94 134.984 33.933 132.984"/>
    <path fill="#FFD15D" d="M156,158 C158.209,158 160,159.791 160,162 C160,164.209 158.209,166 156,166 C153.791,166 152,164.209 152,162 C152,159.791 153.791,158 156,158"/>
    <path fill="#FFD15D" d="M156 168C152.686 168 150 165.314 150 162 150 158.686 152.686 156 156 156 159.314 156 162 158.686 162 162 161.996 165.312 159.312 167.996 156 168zM156 154C151.582 154 148 157.582 148 162 148 166.418 151.582 170 156 170 160.418 170 164 166.418 164 162 164 157.582 160.418 154 156 154zM12 96C14.209 96 16 97.791 16 100 16 102.209 14.209 104 12 104 9.791 104 8 102.209 8 100 8 97.791 9.791 96 12 96"/>
    <path fill="#FFD15D" d="M12,106 C8.686,106 6,103.314 6,100 C6,96.686 8.686,94 12,94 C15.314,94 18,96.686 18,100 C17.996,103.312 15.312,105.996 12,106 Z M12,92 C7.582,92 4,95.582 4,100 C4,104.418 7.582,108 12,108 C16.418,108 20,104.418 20,100 C20,95.582 16.418,92 12,92 Z"/>
    <polygon fill="#FFD15D" points="60 160.947 63 163.871 62.292 168 66 166.05 69.708 168 69 163.871 72 160.947 67.854 160.344 66 156.587 64.146 160.344"/>
  </g>
</svg>
