<svg xmlns="http://www.w3.org/2000/svg" xmlns:xlink="http://www.w3.org/1999/xlink" width="193" height="173" viewBox="0 0 193 173">
  <defs>
    <polygon id="cc383-a" points=".971 .001 62.971 .001 62.971 34.94 .971 34.94"/>
  </defs>
  <g fill="none" fill-rule="evenodd">
    <path fill="#F58E70" d="M153.997,63.966 L153.997,3.846 L79.72,3.837 C76.959,3.837 74.995,5.439 74.995,6.877 L74.995,64.873 C76.511,64.316 78.106,64.006 79.721,63.957 L153.997,63.966"/>
    <path fill="#F58E70" d="M106.325,81.962 L79.775,81.962 C73.883,81.962 69.089,77.926 69.089,72.942 L68.884,27.962 L23.164,27.962 L40.646,57.962 L23.163,87.962 L106.325,87.962 C109.087,87.962 111.011,86.4 111.011,84.962 C111.011,83.524 109.087,81.962 106.325,81.962"/>
    <path fill="#48515A" d="M72.995,8.066 L72.995,68.743 C74.818,67.009 77.252,66.064 79.768,66.113 L155.998,66.154 L155.998,2.035 L79.768,2.026 C76.058,2.026 73.039,4.287 73.039,7.066 L72.995,8.066 Z M19.688,89.962 L106.325,89.962 C110.074,89.962 113.011,87.824 113.011,85.094 C113.011,82.244 110.012,79.962 106.326,79.962 L79.775,79.962 C75.055,79.962 71.325,77.111 71.1,73.408 C71.031,73.27 70.995,73.117 70.995,72.962 L70.995,25.962 L19.688,25.962 L38.333,57.962 L19.688,89.962 Z M106.325,91.962 L16.208,91.962 L36.018,57.962 L16.209,23.962 L70.995,23.962 L70.995,6.066 L71.127,6.066 C71.73,2.656 75.376,0.026 79.768,0.026 L157.998,0.035 L157.998,68.155 L79.768,68.113 C76.1,68.113 73.113,70.341 73.089,73.087 C73.113,75.823 76.041,77.962 79.775,77.962 L106.326,77.962 C111.115,77.962 115.011,81.141 115.011,85.048 C115.011,88.945 111.196,91.962 106.325,91.962 Z"/>
    <path fill="#48515A" d="M156.998 100.962C156.445 100.962 155.998 100.515 155.998 99.963L155.998 66.962C155.998 66.41 156.445 65.962 156.998 65.962 157.55 65.962 157.998 66.41 157.998 66.962L157.998 99.962C157.998 100.514 157.55 100.962 156.998 100.962M151.998 100.962C151.445 100.963 150.998 100.515 150.998 99.963 150.998 99.963 150.998 99.963 150.998 99.963L150.998 67.962C150.998 67.41 151.445 66.962 151.998 66.962 152.55 66.962 152.998 67.41 152.998 67.962L152.998 99.963C152.998 100.515 152.55 100.962 151.998 100.962"/>
    <path fill="#48515A" d="M135.025,121.995 L134.025,121.995 L134.025,120.995 C134.044,120.414 134.53,119.958 135.111,119.977 C135.159,119.978 135.207,119.983 135.254,119.991 C138.253,119.947 140.869,117.945 141.696,115.063 L143.776,107.962 L158.227,107.962 C161.355,107.962 163.999,105.01 164.001,101.515 L138.978,101.639 C138.004,101.648 137.105,102.16 136.599,102.992 L131.572,110.651 L124.07,110.811 L124.048,110.811 C123.496,110.811 123.048,110.363 123.048,109.811 C123.047,109.267 123.483,108.822 124.027,108.811 L130.478,108.673 L134.927,101.895 C135.802,100.503 137.325,99.653 138.968,99.639 L166.001,99.505 L166.001,101.509 C166.001,106.091 162.441,109.962 158.227,109.962 L145.274,109.962 L143.618,115.616 C142.525,119.44 139.002,122.055 135.025,121.995"/>
    <path fill="#475059" d="M153.001,133.962 C151.345,133.962 150.001,135.305 150.001,136.962 C150.001,138.619 151.345,139.962 153.001,139.962 L161.001,139.962 C162.658,139.962 164.001,138.619 164.001,136.962 C164.001,135.305 162.658,133.962 161.001,133.962 L153.001,133.962 Z M161.001,141.962 L153.001,141.962 C150.24,141.962 148.001,139.723 148.001,136.962 C148.001,134.201 150.24,131.962 153.001,131.962 L161.001,131.962 C163.763,131.962 166.001,134.201 166.001,136.962 C166.001,139.723 163.763,141.962 161.001,141.962 Z"/>
    <path fill="#475059" d="M153.001,125.962 C151.345,125.962 150.001,127.305 150.001,128.962 C150.001,130.619 151.345,131.962 153.001,131.962 L165.001,131.962 C166.658,131.962 168.001,130.619 168.001,128.962 C168.001,127.305 166.658,125.962 165.001,125.962 L153.001,125.962 Z M165.001,133.962 L153.001,133.962 C150.24,133.962 148.001,131.723 148.001,128.962 C148.001,126.201 150.24,123.962 153.001,123.962 L165.001,123.962 C167.763,123.962 170.001,126.201 170.001,128.962 C170.001,131.723 167.763,133.962 165.001,133.962 Z"/>
    <path fill="#475059" d="M153.001,117.962 C151.345,117.962 150.001,119.305 150.001,120.962 C150.001,122.619 151.345,123.962 153.001,123.962 L165.001,123.962 C166.658,123.962 168.001,122.619 168.001,120.962 C168.001,119.305 166.658,117.962 165.001,117.962 L153.001,117.962 Z M165.001,125.962 L153.001,125.962 C150.24,125.962 148.001,123.723 148.001,120.962 C148.001,118.201 150.24,115.962 153.001,115.962 L165.001,115.962 C167.763,115.962 170.001,118.201 170.001,120.962 C170.001,123.723 167.763,125.962 165.001,125.962 Z"/>
    <path fill="#475059" d="M153.001 109.962C151.345 109.962 150.001 111.305 150.001 112.962 150.001 114.619 151.345 115.962 153.001 115.962L165.001 115.962C166.658 115.962 168.001 114.619 168.001 112.962 168.001 111.305 166.658 109.962 165.001 109.962L153.001 109.962zM165.001 117.962L153.001 117.962C150.24 117.962 148.001 115.723 148.001 112.962 148.001 110.201 150.24 107.962 153.001 107.962L165.001 107.962C167.763 107.962 170.001 110.201 170.001 112.962 170.001 115.723 167.763 117.962 165.001 117.962zM153.001 141.962L139.521 141.962C138.313 141.955 137.12 141.687 136.025 141.176L136.025 141.417 134.426 140.24C133.3 139.402 131.932 138.953 130.528 138.962L124.001 138.962 124.001 136.961953 130.528 136.962C131.732 136.958 132.924 137.209 134.025 137.698L134.025 137.443 135.624 138.621C136.745 139.474 138.112 139.944 139.521 139.962L153.001 139.962 153.001 141.962"/>
    <polygon fill="#48515A" points="6 102.962 8 102.962 8 98.962 6 98.962"/>
    <polygon fill="#48515A" points="6 112.962 8 112.962 8 108.962 6 108.962"/>
    <polygon fill="#48515A" points="10 106.962 14 106.962 14 104.962 10 104.962"/>
    <polygon fill="#48515A" points="0 106.962 4 106.962 4 104.962 0 104.962"/>
    <polygon fill="#48515A" points="184 132.962 186 132.962 186 128.962 184 128.962"/>
    <polygon fill="#48515A" points="184 142.962 186 142.962 186 138.962 184 138.962"/>
    <polygon fill="#48515A" points="188 136.962 192 136.962 192 134.962 188 134.962"/>
    <polygon fill="#48515A" points="178 136.962 182 136.962 182 134.962 178 134.962"/>
    <path fill="#DEDEDD" d="M61.295 135L54.669 135C55.629 139.699 54.274 144.574 51.026 148.104 52.763 148.414 54.276 149.473 55.162 151L60.78 151C61.669 149.467 63.19 148.406 64.935 148.1 61.689 144.571 60.335 139.698 61.295 135M74.826 152.942L77.621 166.227C78.154 168.222 80.204 169.406 82.199 168.873 83.834 168.435 84.971 166.954 84.971 165.261L84.972 149.987C82.386 151.942 79.234 152.999 75.993 153.001 75.599 153.001 75.212 152.971 74.826 152.942M75.993 147.001C80.808 146.993 84.765 143.197 84.973 138.386L84.973 138.3C84.977 138.189 84.983 138.08 84.991 137.969 84.986 136.88 84.782 135.802 84.389 134.786 84.351 134.687 84.32 134.585 84.277 134.486 84.256 134.436 84.229 134.389 84.206 134.339 83.727 133.277 83.047 132.317 82.205 131.512L82.045 131.359C79.477 129 75.772 128.348 72.553 129.687L72.545 129.69C72.154 129.856 71.774 130.049 71.409 130.269 71.358 130.299 71.307 130.33 71.257 130.362 70.116 131.073 69.147 132.03 68.422 133.162L68.321 133.319C65.725 137.546 67.047 143.076 71.273 145.672 72.693 146.544 74.327 147.004 75.993 147.001M44.707 130.362C44.657 130.33 44.606 130.299 44.555 130.269 44.19 130.049 43.811 129.856 43.418 129.69L43.411 129.687C40.171 128.339 36.442 129.009 33.873 131.401L33.744 131.525C32.426 132.78 31.523 134.408 31.154 136.19 31.111 136.402 31.084 136.618 31.056 136.835 31.045 136.919 31.026 137 31.018 137.084 30.511 142.028 34.11 146.447 39.054 146.954 43.999 147.46 48.418 143.862 48.924 138.917 48.956 138.613 48.971 138.307 48.971 138.001 48.97 136.347 48.511 134.726 47.643 133.319L47.542 133.162C46.817 132.03 45.848 131.073 44.707 130.362M30.971 149.972L30.971 165.261C30.971 167.326 32.644 168.999 34.708 169 36.415 169 37.906 167.844 38.33 166.19L41.138 152.942C40.752 152.971 40.365 153.001 39.971 153.001 36.721 153 33.561 151.936 30.971 149.972"/>
    <polygon fill="#48515A" points="33.938 138.962 45.938 138.962 45.938 136.962 33.938 136.962"/>
    <polygon fill="#48515A" points="38.94 143.961 40.94 143.961 40.94 131.963 38.94 131.963"/>
    <path fill="#48515A" d="M39.971 127.001C33.896 127.001 28.971 131.926 28.971 138.001 28.971 144.076 33.896 149.001 39.971 149.001 46.046 149.001 50.971 144.076 50.971 138.001 50.964 131.929 46.043 127.008 39.971 127.001zM39.971 151.001C32.791 151.001 26.971 145.181 26.971 138.001 26.971 130.821 32.791 125.001 39.971 125.001 47.151 125.001 52.971 130.821 52.971 138.001 52.963 145.177 47.148 150.993 39.971 151.001zM75.993 127.001C69.917 127.001 64.993 131.926 64.993 138.001 64.993 144.076 69.917 149.001 75.993 149.001 82.068 149.001 86.993 144.076 86.993 138.001 86.986 131.929 82.065 127.008 75.993 127.001zM75.993 151.001C68.813 151.001 62.993 145.181 62.993 138.001 62.993 130.821 68.813 125.001 75.993 125.001 83.172 125.001 88.993 130.821 88.993 138.001 88.985 145.177 83.169 150.993 75.993 151.001z"/>
    <polygon fill="#48515A" points="50.804 133 65.471 133 65.471 131 50.804 131"/>
    <path fill="#48515A" d="M49.971,149 C47.21,149 44.971,151.238 44.971,154 C44.971,156.761 47.21,159 49.971,159 C52.733,159 54.971,156.761 54.971,154 C54.968,151.24 52.731,149.003 49.971,149 Z M49.971,161 C46.105,161 42.971,157.866 42.971,154 C42.971,150.134 46.105,147 49.971,147 C53.837,147 56.971,150.134 56.971,154 C56.967,157.864 53.835,160.995 49.971,161 Z"/>
    <g transform="translate(26 138)">
      <mask id="cc383-b" fill="#fff">
        <use xlink:href="#cc383-a"/>
      </mask>
      <path fill="#48515A" d="M39.971 11C37.21 11 34.971 13.238 34.971 16 34.971 18.761 37.21 21 39.971 21 42.733 21 44.971 18.761 44.971 16 44.968 13.24 42.731 11.003 39.971 11zM39.971 23C36.105 23 32.971 19.866 32.971 16 32.971 12.134 36.105 9 39.971 9 43.837 9 46.971 12.134 46.971 16 46.967 19.864 43.835 22.995 39.971 23zM8.71 35C4.438 34.995.976 31.533.971 27.261L.971.001 2.971.001 2.971 27.261C2.971 30.43 5.54 32.999 8.71 33 11.343 33 13.638 31.208 14.277 28.653L17.002 15.792 18.958 16.207 16.225 29.103C15.378 32.565 12.274 35 8.71 35" mask="url(#cc383-b)"/>
      <path fill="#48515A" d="M55.232,35 C51.68,35.004 48.582,32.586 47.725,29.138 L45.004,16.205 L46.961,15.794 L49.673,28.69 C50.463,31.76 53.592,33.608 56.662,32.819 C59.198,32.166 60.971,29.88 60.971,27.261 L60.971,0.001 L62.971,0.001 L62.971,27.261 C62.966,31.533 59.504,34.995 55.232,35" mask="url(#cc383-b)"/>
    </g>
    <polyline fill="#48515A" points="32.971 129 30.971 129 30.971 123.586 33.557 121 42.386 121 44.971 123.585 44.971 125.999 42.971 125.999 42.971 124.414 41.557 123 34.385 123 32.971 124.414 32.971 129"/>
    <polyline fill="#48515A" points="84.971 128.999 82.971 128.999 82.971 124.414 81.557 123 74.385 123 72.971 124.414 72.971 125.999 70.971 125.999 70.971 123.586 73.557 121 82.386 121 84.971 123.585 84.971 128.999"/>
    <polygon fill="#48515A" points="55.971 155 59.971 155 59.971 153 55.971 153"/>
    <path fill="#48515A" d="M73.001 138.015C72.448 138.015 72.001 138.462 72.001 139.015 72.001 139.567 72.448 140.015 73.001 140.015 73.553 140.015 74.001 139.567 74.001 139.015 74 138.463 73.552 138.015 73.001 138.015zM73.001 142.015C71.344 142.015 70.001 140.672 70.001 139.015 70.001 137.358 71.344 136.015 73.001 136.015 74.657 136.015 76.001 137.358 76.001 139.015 75.999 140.671 74.657 142.013 73.001 142.015zM79.001 134.015C78.448 134.015 78.001 134.462 78.001 135.015 78.001 135.567 78.448 136.015 79.001 136.015 79.553 136.015 80.001 135.567 80.001 135.015 80 134.463 79.552 134.015 79.001 134.015zM79.001 138.015C77.344 138.015 76.001 136.672 76.001 135.015 76.001 133.358 77.344 132.015 79.001 132.015 80.657 132.015 82.001 133.358 82.001 135.015 81.999 136.671 80.657 138.013 79.001 138.015z"/>
    <polygon fill="#48515A" points="56.001 147.015 60.001 147.015 60.001 145.015 56.001 145.015"/>
    <path fill="#48515A" d="M30.971 138.001C30.971 137.694 30.987 137.388 31.018 137.084 30.987 137.388 30.971 137.694 30.971 138.001M44.555 130.269C44.606 130.299 44.657 130.33 44.707 130.362 44.657 130.33 44.606 130.299 44.555 130.269M31.056 136.835C31.084 136.618 31.111 136.402 31.154 136.19 31.111 136.402 31.084 136.619 31.056 136.835M71.257 130.362C71.307 130.33 71.358 130.299 71.409 130.269 71.358 130.299 71.308 130.33 71.257 130.362M84.206 134.339C84.229 134.389 84.256 134.436 84.277 134.486 84.256 134.436 84.229 134.389 84.206 134.339M84.991 137.966C84.989 136.878 84.785 135.8 84.389 134.786 84.782 135.802 84.986 136.88 84.991 137.969L84.991 137.966"/>
    <polygon fill="#48515A" points="113.011 84.962 115.011 84.962 115.011 66.962 113.011 66.962"/>
    <path fill="#48515A" d="M125.001,142.962 L90.988,142.962 L90.988,140.962 L123.001,140.962 L123.001,106.962 L53.011,106.976 C51.907,106.976 51.011,107.871 51.011,108.976 C51.011,110.08 51.907,110.976 53.011,110.976 L67.011,110.976 C69.22,110.976 71.011,112.767 71.011,114.976 C71.011,117.185 69.22,118.976 67.011,118.976 L53.011,118.976 C51.907,118.976 51.011,119.871 51.011,120.976 C51.011,122.08 51.907,122.976 53.011,122.976 L55.011,122.976 C57.219,122.978 59.009,124.768 59.011,126.976 L59.011,131.976 L57.011,131.976 L57.011,126.976 C57.01,125.872 56.115,124.977 55.011,124.976 L53.011,124.976 C50.802,124.976 49.011,123.185 49.011,120.976 C49.011,118.767 50.802,116.976 53.011,116.976 L67.011,116.976 C68.116,116.976 69.011,116.08 69.011,114.976 C69.011,113.871 68.116,112.976 67.011,112.976 L53.011,112.976 C50.802,112.976 49.011,111.185 49.011,108.976 C49.011,106.767 50.802,104.976 53.011,104.976 L125.001,104.962 L125.001,142.962"/>
    <polyline fill="#DEDEDD" points="135.7 154.219 107.7 142.219 119.928 171.829 124.761 162.108 132.872 170.219 135.7 167.391 127.468 159.158 135.7 154.219"/>
    <polyline fill="#FFF" points="125.694 142.212 97.694 130.212 109.922 159.822 114.755 150.101 122.866 158.212 125.694 155.383 117.462 147.151 125.694 142.212"/>
    <path fill="#48515A" d="M99.554,132.097 L110.005,157.406 L114.478,148.411 L122.866,156.798 L124.28,155.383 L115.848,146.952 L123.502,142.361 L99.554,132.097 Z M109.837,162.237 L95.834,128.327 L127.885,142.063 L119.074,147.35 L127.108,155.383 L122.866,159.626 L115.031,151.792 L109.837,162.237 Z"/>
    <path fill="#5FE0ED" d="M176.769 87.708C178.978 87.708 180.769 89.499 180.769 91.708 180.769 93.917 178.978 95.708 176.769 95.708 174.56 95.708 172.769 93.917 172.769 91.708 172.769 89.499 174.56 87.708 176.769 87.708M15.672 129.732C16.777 129.732 17.672 130.627 17.672 131.732 17.672 132.836 16.777 133.732 15.672 133.732 14.568 133.732 13.672 132.836 13.672 131.732 13.672 130.627 14.568 129.732 15.672 129.732M165.762 159.75C166.867 159.75 167.762 160.645 167.762 161.75 167.762 162.854 166.867 163.75 165.762 163.75 164.658 163.75 163.762 162.854 163.762 161.75 163.762 160.645 164.658 159.75 165.762 159.75"/>
    <path fill="#FFD15D" d="M12.011,143.976 C14.22,143.976 16.011,145.767 16.011,147.976 C16.011,150.185 14.22,151.976 12.011,151.976 C9.802,151.976 8.011,150.185 8.011,147.976 C8.011,145.767 9.802,143.976 12.011,143.976"/>
    <path fill="#FFD15D" d="M12.011 153.976C8.698 153.976 6.011 151.289 6.011 147.976 6.011 144.662 8.698 141.976 12.011 141.976 15.325 141.976 18.011 144.662 18.011 147.976 18.008 151.288 15.323 153.972 12.011 153.976zM12.011 139.976C7.593 139.976 4.011 143.557 4.011 147.976 4.011 152.394 7.593 155.976 12.011 155.976 16.429 155.976 20.011 152.394 20.011 147.976 20.011 143.557 16.43 139.976 12.011 139.976zM130.011 77.976C132.22 77.976 134.011 79.767 134.011 81.976 134.011 84.185 132.22 85.976 130.011 85.976 127.802 85.976 126.011 84.185 126.011 81.976 126.011 79.767 127.802 77.976 130.011 77.976"/>
    <path fill="#FFD15D" d="M130.011,87.976 C126.698,87.976 124.011,85.289 124.011,81.976 C124.011,78.662 126.698,75.976 130.011,75.976 C133.325,75.976 136.011,78.662 136.011,81.976 C136.008,85.288 133.323,87.972 130.011,87.976 Z M130.011,73.976 C125.593,73.976 122.011,77.557 122.011,81.976 C122.011,86.394 125.593,89.976 130.011,89.976 C134.43,89.976 138.011,86.394 138.011,81.976 C138.011,77.557 134.43,73.976 130.011,73.976 Z"/>
    <polygon fill="#FFD15D" points="168.011 34.335 171.011 37.259 170.303 41.388 174.011 39.439 177.719 41.388 177.011 37.259 180.011 34.335 175.865 33.732 174.011 29.976 172.157 33.732"/>
  </g>
</svg>
