<svg xmlns="http://www.w3.org/2000/svg" xmlns:xlink="http://www.w3.org/1999/xlink" width="193" height="160" viewBox="0 0 193 160">
  <defs>
    <polygon id="cc388-a" points=".034 .04 52.034 .04 52.034 148 .034 148"/>
  </defs>
  <g fill="none" fill-rule="evenodd">
    <polyline fill="#F58E70" points="36.034 120 36.034 118 30.034 118 30.034 120 28.034 120 28.034 118 22.034 118 22.034 120 20.034 120 20.034 126 22.034 126 22.034 128 24.034 128 24.034 130 26.034 130 26.034 132 28.034 132 28.034 134 30.034 134 30.034 132 32.034 132 32.034 130 34.034 130 34.034 128 36.034 128 36.034 126 38.034 126 38.034 120 36.034 120"/>
    <polyline fill="#F58E70" points="108.034 20 108.034 18 102.034 18 102.034 20 100.034 20 100.034 18 94.034 18 94.034 20 92.034 20 92.034 26 94.034 26 94.034 28 96.034 28 96.034 30 98.034 30 98.034 32 100.034 32 100.034 34 102.034 34 102.034 32 104.034 32 104.034 30 106.034 30 106.034 28 108.034 28 108.034 26 110.034 26 110.034 20 108.034 20"/>
    <polygon fill="#F58E70" points="150.034 142 152.034 142 152.034 136 150.034 136"/>
    <polygon fill="#F58E70" points="152.034 136 158.034 136 158.034 134 152.034 134"/>
    <polygon fill="#F58E70" points="158.034 138 160.034 138 160.034 136 158.034 136"/>
    <polygon fill="#F58E70" points="160.034 136 166.034 136 166.034 134 160.034 134"/>
    <polygon fill="#F58E70" points="166.034 142 168.034 142 168.034 136 166.034 136"/>
    <polygon fill="#F58E70" points="152.034 144 154.034 144 154.034 142 152.034 142"/>
    <polygon fill="#F58E70" points="154.034 146 156.034 146 156.034 144 154.034 144"/>
    <polygon fill="#F58E70" points="156.034 148 158.034 148 158.034 146 156.034 146"/>
    <polygon fill="#F58E70" points="158.034 150 160.034 150 160.034 148 158.034 148"/>
    <polygon fill="#F58E70" points="160.034 148 162.034 148 162.034 146 160.034 146"/>
    <polygon fill="#F58E70" points="162.034 146 164.034 146 164.034 144 162.034 144"/>
    <polygon fill="#F58E70" points="164.034 144 166.034 144 166.034 142 164.034 142"/>
    <polygon fill="#F58E70" points="74.504 48.044 81.536 48.044 81.536 44.044 74.504 44.044"/>
    <polyline fill="#F58E70" points="91.536 100.044 81.536 100.044 81.536 90.044 71.536 90.044 71.536 54.044 64.504 54.044 64.504 44.045 54.504 44.044 34.504 44.044 34.504 54.044 24.504 54.044 24.504 84.044 34.504 84.044 34.504 94.044 44.504 94.044 44.504 104.044 54.504 104.044 54.504 114.044 64.504 114.044 64.504 124.044 74.504 124.044 74.504 114.044 84.504 114.044 84.504 104.044 91.536 104.044 91.536 100.044"/>
    <polyline fill="#48515A" points="78.504 128.044 60.504 128.044 60.504 118.044 50.504 118.044 50.504 108.044 40.504 108.044 40.504 98.044 30.504 98.044 30.504 88.044 20.504 88.044 20.504 50.044 30.504 50.044 30.504 40.044 68.504 40.045 68.504 50.044 70.504 50.044 70.504 40.044 81.534 40.044 81.534 42.044 72.504 42.044 72.504 52.044 66.504 52.044 66.504 42.045 32.504 42.044 32.504 52.044 22.504 52.044 22.504 86.044 32.504 86.044 32.504 96.044 42.504 96.044 42.504 106.044 52.504 106.044 52.504 116.044 62.504 116.044 62.504 126.044 76.504 126.044 76.504 116.044 86.504 116.044 86.504 106.044 91.534 106.044 91.534 108.044 88.504 108.044 88.504 118.044 78.504 118.044 78.504 128.044"/>
    <polygon fill="#F58E70" points="77.62 84.044 87.62 84.044 87.62 54.044 77.62 54.044"/>
    <polygon fill="#F58E70" points="107.62 54.045 117.62 54.045 117.62 44.045 107.62 44.045"/>
    <polygon fill="#F58E70" points="97.62 54.044 107.62 54.044 107.62 44.044 97.62 44.044"/>
    <polygon fill="#F58E70" points="87.62 54.044 97.62 54.044 97.62 44.044 87.62 44.044"/>
    <polygon fill="#F58E70" points="117.62 64.044 127.62 64.044 127.62 54.044 117.62 54.044"/>
    <polygon fill="#F58E70" points="147.62 54.045 157.62 54.045 157.62 44.045 147.62 44.045"/>
    <polygon fill="#F58E70" points="137.62 54.044 147.62 54.044 147.62 44.044 137.62 44.044"/>
    <polygon fill="#F58E70" points="127.62 54.044 137.62 54.044 137.62 44.044 127.62 44.044"/>
    <polygon fill="#F58E70" points="157.62 84.044 167.62 84.044 167.62 54.044 157.62 54.044"/>
    <polygon fill="#F58E70" points="87.62 94.044 97.62 94.044 97.62 84.044 87.62 84.044"/>
    <polygon fill="#F58E70" points="97.62 104.044 107.62 104.044 107.62 94.044 97.62 94.044"/>
    <polygon fill="#F58E70" points="107.62 114.044 117.62 114.044 117.62 104.044 107.62 104.044"/>
    <polygon fill="#F58E70" points="117.62 124.044 127.62 124.044 127.62 114.044 117.62 114.044"/>
    <polygon fill="#F58E70" points="127.62 114.044 137.62 114.044 137.62 104.044 127.62 104.044"/>
    <polygon fill="#F58E70" points="137.62 104.044 147.62 104.044 147.62 94.044 137.62 94.044"/>
    <polygon fill="#F58E70" points="147.62 94.044 157.62 94.044 157.62 84.044 147.62 84.044"/>
    <path fill="#48515A" d="M115.564,126.044 L129.564,126.044 L129.564,116.044 L139.564,116.044 L139.564,106.044 L149.564,106.044 L149.564,96.044 L159.564,96.044 L159.564,86.044 L169.564,86.044 L169.564,52.044 L159.564,52.044 L159.564,42.045 L125.564,42.044 L125.564,52.044 L119.564,52.044 L119.564,42.045 L85.563,42.044 L85.563,52.044 L75.563,52.044 L75.563,86.044 L85.563,86.044 L85.563,96.044 L95.563,96.044 L95.563,106.044 L105.564,106.044 L105.564,116.044 L115.564,116.044 L115.564,126.044 Z M131.564,128.044 L113.564,128.044 L113.564,118.044 L103.564,118.044 L103.564,108.044 L93.563,108.044 L93.563,98.044 L83.563,98.044 L83.563,88.044 L73.563,88.044 L73.563,50.044 L83.563,50.044 L83.563,40.044 L121.564,40.045 L121.564,50.044 L123.564,50.044 L123.564,40.044 L161.564,40.045 L161.564,50.044 L171.564,50.044 L171.564,88.044 L161.564,88.044 L161.564,98.044 L151.564,98.044 L151.564,108.044 L141.564,108.044 L141.564,118.044 L131.564,118.044 L131.564,128.044 Z"/>
    <polygon fill="#48515A" points="6 112.02 8 112.02 8 108.02 6 108.02"/>
    <polygon fill="#48515A" points="6 122.02 8 122.02 8 118.02 6 118.02"/>
    <polygon fill="#48515A" points="10 116.02 14 116.02 14 114.02 10 114.02"/>
    <polygon fill="#48515A" points="0 116.02 4 116.02 4 114.02 0 114.02"/>
    <polygon fill="#48515A" points="164.095 21.966 166.095 21.966 166.095 17.966 164.095 17.966"/>
    <polygon fill="#48515A" points="164.095 31.966 166.095 31.966 166.095 27.966 164.095 27.966"/>
    <polygon fill="#48515A" points="168.095 25.966 172.095 25.966 172.095 23.966 168.095 23.966"/>
    <polygon fill="#48515A" points="158.095 25.966 162.095 25.966 162.095 23.966 158.095 23.966"/>
    <polygon fill="#48515A" points="184.107 132.032 186.107 132.032 186.107 128.032 184.107 128.032"/>
    <polygon fill="#48515A" points="184.107 142.032 186.107 142.032 186.107 138.032 184.107 138.032"/>
    <polygon fill="#48515A" points="188.107 136.032 192.107 136.032 192.107 134.032 188.107 134.032"/>
    <polygon fill="#48515A" points="178.107 136.032 182.107 136.032 182.107 134.032 178.107 134.032"/>
    <polyline fill="#DEDEDD" points="170.276 112.053 142.276 100.053 154.503 129.663 159.336 119.942 167.447 128.053 170.276 125.224 162.043 116.992 170.276 112.053"/>
    <polyline fill="#FFF" points="160.27 100.046 132.27 88.046 144.497 117.655 149.33 107.935 157.441 116.046 160.27 113.217 152.037 104.985 160.27 100.046"/>
    <path fill="#48515A" d="M134.129,89.931 L144.581,115.24 L149.054,106.245 L157.441,114.632 L158.855,113.217 L150.425,104.786 L158.078,100.195 L134.129,89.931 Z M144.413,120.071 L130.409,86.161 L162.46,99.897 L153.65,105.184 L161.683,113.217 L157.441,117.46 L149.607,109.626 L144.413,120.071 Z"/>
    <path fill="#FFD15D" d="M30.034,14 C32.243,14 34.034,15.791 34.034,18 C34.034,20.209 32.243,22 30.034,22 C27.825,22 26.034,20.209 26.034,18 C26.034,15.791 27.825,14 30.034,14"/>
    <path fill="#FFD15D" d="M30.034 24C26.72 24 24.034 21.314 24.034 18 24.034 14.686 26.72 12 30.034 12 33.347 12 36.034 14.686 36.034 18 36.03 21.312 33.346 23.996 30.034 24zM30.034 10C25.615 10 22.034 13.582 22.034 18 22.034 22.418 25.615 26 30.034 26 34.452 26 38.034 22.418 38.034 18 38.034 13.582 34.452 10 30.034 10zM104.034 136C106.243 136 108.034 137.791 108.034 140 108.034 142.209 106.243 144 104.034 144 101.825 144 100.034 142.209 100.034 140 100.034 137.791 101.825 136 104.034 136"/>
    <g transform="translate(96)">
      <mask id="cc388-b" fill="#fff">
        <use xlink:href="#cc388-a"/>
      </mask>
      <path fill="#FFD15D" d="M8.034,146 C4.72,146 2.034,143.314 2.034,140 C2.034,136.686 4.72,134 8.034,134 C11.347,134 14.034,136.686 14.034,140 C14.03,143.312 11.346,145.996 8.034,146 Z M8.034,132 C3.615,132 0.034,135.582 0.034,140 C0.034,144.418 3.615,148 8.034,148 C12.452,148 16.034,144.418 16.034,140 C16.034,135.582 12.452,132 8.034,132 Z" mask="url(#cc388-b)"/>
      <polygon fill="#FFD15D" points="40.034 4.359 43.034 7.284 42.326 11.413 46.034 9.463 49.742 11.413 49.034 7.284 52.034 4.359 47.888 3.757 46.034 0 44.18 3.757" mask="url(#cc388-b)"/>
    </g>
    <polygon fill="#FFD15D" points="42.034 152.947 45.034 155.871 44.326 160 48.034 158.05 51.742 160 51.034 155.871 54.034 152.947 49.888 152.344 48.034 148.587 46.18 152.344"/>
  </g>
</svg>
