<svg xmlns="http://www.w3.org/2000/svg" width="192" height="158" viewBox="0 0 192 158">
  <g fill="none" fill-rule="evenodd">
    <polygon fill="#F58E70" points="161.004 145.514 163.004 145.514 163.004 139.514 161.004 139.514"/>
    <polygon fill="#F58E70" points="163.004 139.514 169.004 139.514 169.004 137.514 163.004 137.514"/>
    <polygon fill="#F58E70" points="169.004 141.514 171.004 141.514 171.004 139.514 169.004 139.514"/>
    <polygon fill="#F58E70" points="171.004 139.514 177.004 139.514 177.004 137.514 171.004 137.514"/>
    <polygon fill="#F58E70" points="177.004 145.514 179.004 145.514 179.004 139.514 177.004 139.514"/>
    <polygon fill="#F58E70" points="163.004 147.514 165.004 147.514 165.004 145.514 163.004 145.514"/>
    <polygon fill="#F58E70" points="165.004 149.514 167.004 149.514 167.004 147.514 165.004 147.514"/>
    <polygon fill="#F58E70" points="167.004 151.514 169.004 151.514 169.004 149.514 167.004 149.514"/>
    <polygon fill="#F58E70" points="169.004 153.514 171.004 153.514 171.004 151.514 169.004 151.514"/>
    <polygon fill="#F58E70" points="171.004 151.514 173.004 151.514 173.004 149.514 171.004 149.514"/>
    <polygon fill="#F58E70" points="173.004 149.514 175.004 149.514 175.004 147.514 173.004 147.514"/>
    <polygon fill="#F58E70" points="175.004 147.514 177.004 147.514 177.004 145.514 175.004 145.514"/>
    <path fill="#F58E70" d="M96,78.484 C99.341,78.481 102.048,75.773 102.052,72.432 L102.052,59.482 L89.948,59.482 L89.948,72.432 C89.952,75.773 92.659,78.481 96,78.484"/>
    <path fill="#5FE0ED" d="M117.994,52.504 C114.68,52.504 111.994,49.817 111.994,46.504 C111.994,43.19 114.68,40.504 117.994,40.504 C121.308,40.504 123.994,43.19 123.994,46.504 C123.991,49.816 121.306,52.5 117.994,52.504 Z M108.052,62.48 L108.052,72.432 C108.047,79.089 102.647,84.48 95.99,84.475 C89.342,84.47 83.953,79.081 83.948,72.432 L83.948,62.316 C82.383,62.863 80.672,62.037 80.126,60.473 C79.58,58.909 80.405,57.198 81.969,56.651 C82.61,56.427 83.307,56.427 83.948,56.651 L83.948,56.484 L108.009,56.484 L108.015,56.484 L108.021,56.484 L108.052,56.484 L108.052,56.487 C109.707,56.506 111.033,57.862 111.015,59.517 C110.997,61.146 109.681,62.461 108.052,62.48 Z M72.003,52.504 C68.689,52.504 66.003,49.817 66.003,46.504 C66.003,43.19 68.689,40.504 72.003,40.504 C75.317,40.504 78.003,43.19 78.003,46.504 C77.999,49.816 75.315,52.5 72.003,52.504 Z M96,26.484 C71.16,26.512 51.029,46.642 51.001,71.483 L51,132.486 L51,142.994 C51.002,144.927 52.57,146.493 54.503,146.492 C56.436,146.49 58.002,144.922 58,142.989 C58,137.738 62.257,133.481 67.508,133.481 C72.759,133.481 77.016,137.738 77.016,142.989 C77.018,144.918 78.582,146.482 80.511,146.484 L82.522,146.484 C84.451,146.482 86.015,144.918 86.018,142.989 C86.024,137.741 90.277,133.487 95.525,133.481 L96.525,133.481 C101.774,133.487 106.027,137.74 106.033,142.989 C106.036,144.918 107.599,146.482 109.528,146.484 L111.539,146.484 C113.469,146.482 115.032,144.918 115.035,142.989 C115.031,137.738 119.286,133.479 124.536,133.476 C129.787,133.472 134.047,137.726 134.05,142.977 C134.05,142.981 134.05,142.985 134.05,142.989 C134.048,144.918 135.611,146.483 137.54,146.484 C139.279,146.485 140.754,145.207 141,143.486 L141,71.484 C140.972,46.643 120.842,26.512 96,26.484 Z"/>
    <path fill="#475059" d="M87.9479948,60.484 L87.948,72.432 C87.943,76.879 91.545,80.488 95.992,80.492 C100.439,80.496 104.048,76.895 104.052,72.448 C104.052,72.442 104.052,72.437 104.052,72.432 L104.052,60.484 L87.9479948,60.484 Z M96,82.484 C90.451,82.478 85.954,77.981 85.948,72.432 L85.948,58.484 L106.052,58.484 L106.052,72.432 C106.046,77.981 101.549,82.478 96,82.484 Z"/>
    <polygon fill="#475059" points="82 60.484 110 60.484 110 58.484 82 58.484"/>
    <polygon fill="#475059" points="95 75.484 97 75.484 97 59.484 95 59.484"/>
    <path fill="#475059" d="M124.542,135.481 C128.687,135.486 132.045,138.844 132.05,142.988 C132.054,146.026 134.52,148.485 137.558,148.481 C140.589,148.476 143.046,146.02 143.05,142.988 L143.05,138.484 L143,137.484 L143,71.484 C143,45.527 121.958,24.484 96.001,24.484 C70.044,24.484 49.002,45.526 49.001,71.483 L49,142.988 C49.004,146.026 51.47,148.485 54.508,148.481 C57.54,148.476 59.996,146.02 60,142.988 C60.003,138.842 63.366,135.483 67.513,135.486 C71.655,135.488 75.013,138.846 75.016,142.988 C75.019,146.022 77.477,148.481 80.511,148.484 L82.522,148.484 C85.556,148.481 88.014,146.022 88.018,142.988 C88.022,138.844 91.381,135.486 95.525,135.481 L96.525,135.481 C100.67,135.486 104.028,138.844 104.033,142.988 C104.037,146.022 106.495,148.48 109.528,148.484 L111.539,148.484 C114.573,148.481 117.031,146.022 117.035,142.988 C117.04,138.844 120.398,135.486 124.542,135.481 Z M137.555,150.484 C133.414,150.484 130.055,147.129 130.05,142.988 C130.048,139.947 127.58,137.483 124.538,137.485 C121.5,137.487 119.037,139.95 119.035,142.988 C119.03,147.126 115.677,150.48 111.539,150.484 L109.528,150.484 C105.391,150.479 102.038,147.126 102.033,142.988 C102.03,139.948 99.566,137.484 96.525,137.481 L95.525,137.481 C92.485,137.485 90.021,139.948 90.018,142.988 C90.013,147.126 86.66,150.48 82.522,150.484 L80.511,150.484 C76.373,150.48 73.02,147.126 73.016,142.988 C73.013,139.947 70.546,137.483 67.504,137.485 C64.465,137.487 62.003,139.95 62,142.988 C61.995,147.131 58.633,150.484 54.491,150.479 C50.356,150.474 47.005,147.123 47,142.988 L47.001,71.483 C47.002,44.422 68.939,22.484 96.001,22.484 C123.063,22.484 145,44.422 145,71.484 L145,136.484 L145.05,136.484 L145.05,142.988 C145.046,147.126 141.693,150.48 137.555,150.484 Z"/>
    <path fill="#475059" d="M72.003 44.504C70.898 44.504 70.003 45.4 70.003 46.504 70.003 47.609 70.898 48.504 72.003 48.504 73.107 48.504 74.003 47.609 74.003 46.504 74.002 45.4 73.107 44.505 72.003 44.504zM72.003 50.504C69.794 50.504 68.003 48.713 68.003 46.504 68.003 44.295 69.794 42.504 72.003 42.504 74.212 42.504 76.003 44.295 76.003 46.504 76 48.712 74.211 50.502 72.003 50.504zM117.994 44.504C116.89 44.504 115.994 45.4 115.994 46.504 115.994 47.609 116.89 48.504 117.994 48.504 119.099 48.504 119.994 47.609 119.994 46.504 119.993 45.4 119.098 44.505 117.994 44.504zM117.994 50.504C115.785 50.504 113.994 48.713 113.994 46.504 113.994 44.295 115.785 42.504 117.994 42.504 120.203 42.504 121.994 44.295 121.994 46.504 121.992 48.712 120.202 50.502 117.994 50.504z"/>
    <path fill="#F58E70" d="M170.096,88.52 C171.753,88.52 173.096,89.863 173.096,91.52 C173.096,93.177 171.753,94.52 170.096,94.52 C168.439,94.52 167.096,93.177 167.096,91.52 C167.096,89.863 168.439,88.52 170.096,88.52"/>
    <polyline fill="#F58E70" points="133 12.483 133 10.483 127 10.483 127 12.483 125 12.483 125 10.483 119 10.483 119 12.483 117 12.483 117 18.483 119 18.483 119 20.483 121 20.483 121 22.483 123 22.483 123 24.483 125 24.483 125 26.483 127 26.483 127 24.483 129 24.483 129 22.483 131 22.483 131 20.483 133 20.483 133 18.483 135 18.483 135 12.483 133 12.483"/>
    <polyline fill="#F58E70" points="32.94 122.549 32.94 120.549 26.94 120.549 26.94 122.549 24.94 122.549 24.94 120.549 18.94 120.549 18.94 122.549 16.94 122.549 16.94 128.549 18.94 128.549 18.94 130.549 20.94 130.549 20.94 132.549 22.94 132.549 22.94 134.549 24.94 134.549 24.94 136.549 26.94 136.549 26.94 134.549 28.94 134.549 28.94 132.549 30.94 132.549 30.94 130.549 32.94 130.549 32.94 128.549 34.94 128.549 34.94 122.549 32.94 122.549"/>
    <path fill="#F58E70" d="M160.09,59.502 C161.195,59.502 162.09,60.398 162.09,61.502 C162.09,62.607 161.195,63.502 160.09,63.502 C158.985,63.502 158.09,62.607 158.09,61.502 C158.09,60.398 158.985,59.502 160.09,59.502"/>
    <polygon fill="#48515A" points="6 92.673 8 92.673 8 88.673 6 88.673"/>
    <polygon fill="#48515A" points="6 102.673 8 102.673 8 98.673 6 98.673"/>
    <polygon fill="#48515A" points="10 96.673 14 96.673 14 94.673 10 94.673"/>
    <polygon fill="#48515A" points="0 96.673 4 96.673 4 94.673 0 94.673"/>
    <polygon fill="#48515A" points="184 126.466 186 126.466 186 122.466 184 122.466"/>
    <polygon fill="#48515A" points="184 136.466 186 136.466 186 132.466 184 132.466"/>
    <polygon fill="#48515A" points="188 130.466 192 130.466 192 128.466 188 128.466"/>
    <polygon fill="#48515A" points="178 130.466 182 130.466 182 128.466 178 128.466"/>
    <polygon fill="#48515A" points="29.915 8.484 31.915 8.484 31.915 4.484 29.915 4.484"/>
    <polygon fill="#48515A" points="29.915 18.484 31.915 18.484 31.915 14.484 29.915 14.484"/>
    <polygon fill="#48515A" points="33.915 12.484 37.915 12.484 37.915 10.484 33.915 10.484"/>
    <polygon fill="#48515A" points="23.915 12.484 27.915 12.484 27.915 10.484 23.915 10.484"/>
    <path fill="#5FE0ED" d="M10,48.496 C11.657,48.496 13,49.839 13,51.496 C13,53.153 11.657,54.496 10,54.496 C8.343,54.496 7,53.153 7,51.496 C7,49.839 8.343,48.496 10,48.496"/>
    <path fill="#FFD15D" d="M30.012,78.514 C31.669,78.514 33.012,79.857 33.012,81.514 C33.012,83.171 31.669,84.514 30.012,84.514 C28.355,84.514 27.012,83.171 27.012,81.514 C27.012,79.857 28.355,78.514 30.012,78.514"/>
    <path fill="#48515A" d="M162.941,8.733 C152.448,8.733 143.941,17.24 143.941,27.733 C143.941,38.227 152.448,46.733 162.941,46.733 C173.434,46.733 181.941,38.227 181.941,27.733 C181.929,17.245 173.429,8.745 162.941,8.733 Z M162.941,48.733 C151.343,48.733 141.941,39.331 141.941,27.733 C141.941,16.135 151.343,6.733 162.941,6.733 C174.539,6.733 183.941,16.135 183.941,27.733 C183.928,39.326 174.534,48.72 162.941,48.733 Z"/>
    <path fill="#48515A" d="M159.946,39.414 L165.946,39.414 L165.946,30.413 L174.948,30.412 L174.948,24.412 L165.946,24.412 L165.946,15.414 L159.946,15.414 L159.946,24.413 L150.947,24.413 L150.947,30.413 L159.946,30.413 L159.946,39.414 Z M167.946,41.414 L157.946,41.414 L157.946,32.413 L148.947,32.413 L148.947,22.413 L157.946,22.413 L157.946,13.414 L167.946,13.414 L167.946,22.412 L176.948,22.412 L176.948,32.412 L167.946,32.413 L167.946,41.414 Z"/>
    <polygon fill="#48515A" points="161.948 19.415 163.948 19.415 163.948 17.415 161.948 17.415"/>
    <polygon fill="#48515A" points="161.948 37.426 163.948 37.426 163.948 35.426 161.948 35.426"/>
    <polygon fill="#48515A" points="152.943 28.42 154.943 28.42 154.943 26.42 152.943 26.42"/>
    <polygon fill="#48515A" points="170.954 28.42 172.954 28.42 172.954 26.42 170.954 26.42"/>
    <path fill="#48515A" d="M162.948,26.413 C162.396,26.413 161.948,26.861 161.948,27.413 C161.948,27.966 162.396,28.413 162.948,28.413 C163.501,28.413 163.948,27.966 163.948,27.413 C163.948,26.861 163.5,26.414 162.948,26.413 Z M162.948,30.413 C161.291,30.413 159.948,29.07 159.948,27.413 C159.948,25.756 161.291,24.413 162.948,24.413 C164.605,24.413 165.948,25.756 165.948,27.413 C165.946,29.069 164.604,30.411 162.948,30.413 Z"/>
    <path fill="#FFD15D" d="M28,38 C30.209,38 32,39.791 32,42 C32,44.209 30.209,46 28,46 C25.791,46 24,44.209 24,42 C24,39.791 25.791,38 28,38"/>
    <path fill="#FFD15D" d="M28 48C24.686 48 22 45.313 22 42 22 38.686 24.686 36 28 36 31.314 36 34 38.686 34 42 33.996 45.312 31.312 47.996 28 48zM28 34C23.582 34 20 37.581 20 42 20 46.418 23.582 50 28 50 32.418 50 36 46.418 36 42 36 37.581 32.418 34 28 34zM162 110C164.209 110 166 111.791 166 114 166 116.209 164.209 118 162 118 159.791 118 158 116.209 158 114 158 111.791 159.791 110 162 110"/>
    <path fill="#FFD15D" d="M162,120 C158.686,120 156,117.313 156,114 C156,110.686 158.686,108 162,108 C165.314,108 168,110.686 168,114 C167.996,117.312 165.312,119.996 162,120 Z M162,106 C157.582,106 154,109.581 154,114 C154,118.418 157.582,122 162,122 C166.418,122 170,118.418 170,114 C170,109.581 166.418,106 162,106 Z"/>
    <polygon fill="#FFD15D" points="60 4.946 63 7.871 62.292 12 66 10.05 69.708 12 69 7.871 72 4.946 67.854 4.344 66 .587 64.146 4.344"/>
    <polygon fill="#FFD15D" points="8 150.946 11 153.871 10.292 158 14 156.05 17.708 158 17 153.871 20 150.946 15.854 150.344 14 146.587 12.146 150.344"/>
  </g>
</svg>
