<svg xmlns="http://www.w3.org/2000/svg" xmlns:xlink="http://www.w3.org/1999/xlink" width="193" height="167" viewBox="0 0 193 167">
  <defs>
    <polygon id="cc394-a" points=".106 0 2.106 0 2.106 13.94 .106 13.94"/>
  </defs>
  <g fill="none" fill-rule="evenodd">
    <path fill="#DEDEDD" d="M133.117,88.026 C133.122,87.849 133.129,87.672 133.129,87.494 C133.146,65.946 115.691,48.464 94.142,48.447 C72.594,48.43 55.112,65.885 55.095,87.433 C55.095,87.454 55.095,87.474 55.095,87.494 C55.095,87.662 55.102,87.828 55.107,87.994 C55.105,88.162 55.095,88.327 55.095,88.495 C55.095,88.651 55.102,88.805 55.106,88.96 C55.102,89.116 55.095,89.27 55.095,89.426 L55.096,89.461 L55.095,89.495 C55.095,89.652 55.102,89.806 55.106,89.961 C55.102,90.116 55.095,90.271 55.095,90.427 C55.095,90.595 55.105,90.76 55.107,90.927 C55.102,91.094 55.095,91.26 55.095,91.428 C55.077,112.959 72.518,130.427 94.049,130.445 C102.541,130.452 110.803,127.685 117.579,122.567 L117.579,118.634 L116.376,117.037 C100.378,129.143 77.638,126.248 65.185,110.518 L68.239,108.482 C77.674,122.774 96.909,126.711 111.201,117.276 C119.896,111.536 125.127,101.812 125.125,91.393 C125.125,91.25 125.117,91.108 125.11,90.966 C125.114,90.775 125.125,90.585 125.125,90.393 C125.125,90.26 125.117,90.128 125.111,89.995 C125.116,89.817 125.125,89.64 125.125,89.461 L125.124,89.432 L125.125,89.392 C125.125,89.259 125.117,89.127 125.111,88.995 C125.116,88.817 125.125,88.64 125.125,88.461 C125.125,88.318 125.112,88.177 125.11,88.034 C125.116,87.843 125.125,87.652 125.125,87.46 C125.126,76.092 118.908,65.634 108.92,60.204 L107.963,61.961 L107.963,65.894 C115.757,70.136 121.18,77.714 122.68,86.46 L117.095,86.46 C116.543,73.766 105.806,63.922 93.112,64.474 C80.805,65.008 71.103,75.142 71.104,87.46 C71.104,87.628 71.112,87.794 71.116,87.961 C71.113,88.127 71.104,88.293 71.104,88.461 C71.104,88.617 71.111,88.771 71.115,88.926 C71.111,89.082 71.104,89.236 71.104,89.392 L71.104,89.427 L71.104,89.461 C71.104,89.617 71.111,89.772 71.115,89.927 C71.111,90.082 71.104,90.237 71.104,90.393 C71.104,90.561 71.113,90.726 71.116,90.893 C71.112,91.06 71.104,91.226 71.104,91.393 C71.118,104.095 81.41,114.388 94.111,114.402 L94.111,108.469 C83.289,108.447 74.256,100.202 73.248,89.427 C74.275,77.929 84.428,69.441 95.925,70.468 C99.74,70.809 103.387,72.191 106.469,74.463 L104.289,76.467 C98.232,70.833 88.754,71.176 83.121,77.233 C81.51,78.965 80.332,81.054 79.684,83.328 L79.684,87.262 L81.607,87.811 C82.627,84.289 85.084,81.361 88.375,79.744 L89.477,82.229 C89.37,82.321 89.263,82.41 89.162,82.511 C87.743,83.934 87.008,85.901 87.147,87.905 C87.123,88.238 87.123,88.573 87.147,88.906 C87.145,88.928 87.146,88.95 87.145,88.972 C87.135,89.124 87.13,89.275 87.131,89.427 C87.13,89.579 87.135,89.73 87.145,89.882 C87.146,89.904 87.145,89.926 87.147,89.948 C87.123,90.281 87.123,90.616 87.147,90.949 C86.897,94.8 89.816,98.125 93.668,98.375 C95.674,98.506 97.64,97.765 99.062,96.344 L99.062,92.41 L97.647,90.996 C95.693,92.945 92.53,92.945 90.576,90.996 C90.13,90.545 89.775,90.012 89.53,89.427 C90.609,86.893 93.537,85.714 96.071,86.792 C96.66,87.043 97.195,87.405 97.647,87.858 L99.062,86.444 L99.062,82.511 C97.752,81.194 95.97,80.455 94.112,80.461 C93.634,80.461 93.158,80.51 92.69,80.607 L91.813,78.629 C92.57,78.478 93.339,78.398 94.111,78.39 C100.525,78.401 105.973,83.087 106.945,89.427 C105.865,96.521 99.238,101.397 92.144,100.317 C87.176,99.56 83.09,96.007 81.65,91.193 L79.734,91.766 L79.734,95.699 C82.114,103.638 90.478,108.145 98.418,105.766 C104.766,103.864 109.115,98.021 109.116,91.393 C109.116,91.214 109.102,91.038 109.093,90.86 C109.097,90.704 109.116,90.551 109.116,90.393 C109.116,90.226 109.102,90.062 109.094,89.896 C109.103,89.752 109.116,89.608 109.116,89.461 C109.116,89.448 109.115,89.435 109.115,89.422 L109.116,89.392 C109.116,89.244 109.103,89.1 109.097,88.953 L109.094,88.892 C109.103,88.749 109.116,88.606 109.116,88.461 C109.116,88.269 109.102,88.081 109.094,87.891 C109.103,87.748 109.116,87.606 109.116,87.46 C109.116,84.975 108.492,82.529 107.303,80.347 L110.089,77.787 C112.903,81.092 114.618,85.191 114.996,89.515 C114.26,97.202 109.355,103.861 102.231,106.843 L102.231,110.776 L103.005,112.621 C111.226,109.183 116.715,101.297 117.083,92.393 L122.681,92.393 C119.967,108.174 104.974,118.768 89.193,116.054 C76.013,113.788 66.094,102.801 65.181,89.459 C66.255,73.466 80.091,61.372 96.084,62.446 C98.086,62.58 100.068,62.922 102,63.466 L102.543,61.541 L102.543,57.608 C86.042,52.965 68.902,62.578 64.259,79.078 C63.488,81.817 63.098,84.649 63.099,87.494 C63.099,87.639 63.107,87.782 63.113,87.926 C63.11,88.116 63.099,88.304 63.099,88.495 C63.099,88.63 63.106,88.763 63.112,88.897 C63.107,89.073 63.099,89.249 63.099,89.426 L63.1,89.458 L63.099,89.495 C63.099,89.631 63.106,89.764 63.112,89.897 C63.107,90.074 63.099,90.249 63.099,90.427 C63.099,90.581 63.11,90.731 63.112,90.884 C63.107,91.065 63.099,91.245 63.099,91.428 C63.097,95.698 63.988,99.923 65.713,103.829 L62.18,106.185 C59.171,101.051 57.455,95.263 57.177,89.319 C58.309,68.921 75.762,53.302 96.16,54.434 C115.054,55.482 130.111,70.62 131.057,89.519 C130.613,97.634 127.508,105.376 122.221,111.549 L122.221,115.482 L123.738,116.784 C129.794,109.723 133.125,100.729 133.129,91.428 C133.129,91.27 133.122,91.114 133.117,90.958 C133.119,90.781 133.129,90.604 133.129,90.427 C133.129,90.28 133.123,90.135 133.118,89.99 C133.122,89.825 133.129,89.661 133.129,89.495 L133.128,89.463 L133.129,89.426 C133.129,89.28 133.123,89.135 133.118,88.989 C133.122,88.824 133.129,88.66 133.129,88.495 C133.129,88.338 133.119,88.183 133.117,88.026"/>
    <path fill="#48515A" d="M94.111,126.443 C72.553,126.439 55.08,108.96 55.084,87.402 C55.088,65.849 72.559,48.379 94.111,48.375 L94.111,50.375 C73.658,50.349 57.056,66.909 57.03,87.362 C57.005,107.816 73.565,124.417 94.018,124.443 C102.086,124.453 109.937,121.829 116.376,116.968 L117.579,118.565 C110.83,123.69 102.586,126.458 94.111,126.443"/>
    <path fill="#48515A" d="M123.738,112.782 L122.221,111.48 C135.524,95.955 133.722,72.586 118.197,59.283 C111.489,53.535 102.946,50.375 94.111,50.375 L94.111,48.375 C115.66,48.375 133.129,65.844 133.129,87.393 C133.129,96.705 129.798,105.711 123.738,112.782"/>
    <path fill="#48515A" d="M94.111,118.405 C76.983,118.389 63.111,104.491 63.127,87.363 C63.143,70.236 77.04,56.363 94.168,56.379 C97,56.382 99.817,56.772 102.543,57.539 L102,59.464 C86.575,55.101 70.535,64.069 66.172,79.493 C61.809,94.918 70.776,110.959 86.201,115.322 C101.626,119.685 117.667,110.717 122.029,95.292 C125.721,82.24 119.88,68.371 107.963,61.893 L108.92,60.136 C123.971,68.316 129.54,87.149 121.36,102.2 C115.932,112.186 105.477,118.403 94.111,118.405"/>
    <path fill="#48515A" d="M94.111,110.401 C81.415,110.39 71.131,100.088 71.142,87.392 C71.152,74.695 81.454,64.411 94.15,64.422 C106.847,64.433 117.131,74.734 117.12,87.431 C117.112,96.692 111.548,105.044 103.005,108.619 L102.231,106.774 C112.942,102.297 117.995,89.984 113.518,79.273 C109.04,68.562 96.727,63.509 86.016,67.986 C75.305,72.464 70.252,84.777 74.73,95.488 C77.998,103.305 85.639,108.396 94.111,108.401 L94.111,110.401"/>
    <path fill="#48515A" d="M94.111,102.396 C87.492,102.368 81.663,98.03 79.734,91.698 L81.65,91.124 C83.711,98.005 90.959,101.913 97.841,99.853 C104.722,97.792 108.63,90.544 106.569,83.663 C104.509,76.781 97.26,72.874 90.379,74.934 C86.134,76.205 82.828,79.55 81.607,83.809 L79.684,83.26 C81.965,75.292 90.273,70.682 98.241,72.964 C106.208,75.245 110.818,83.553 108.536,91.521 C106.693,97.958 100.808,102.396 94.111,102.396"/>
    <path fill="#48515A" d="M94.112,94.392 C90.246,94.392 87.112,91.258 87.112,87.392 C87.111,83.526 90.245,80.392 94.111,80.392 C95.968,80.392 97.749,81.129 99.062,82.442 L97.647,83.856 C95.695,81.904 92.529,81.904 90.576,83.856 C88.624,85.809 88.624,88.975 90.577,90.928 C92.529,92.88 95.695,92.88 97.647,90.928 L99.062,92.342 C97.752,93.659 95.97,94.397 94.112,94.392"/>
    <polyline fill="#48515A" points="87.961 74.81 89.789 73.999 93.042 81.332 91.214 82.143 87.961 74.81"/>
    <polyline fill="#48515A" points="103.237 77.365 109.497 71.612 110.85 73.084 104.59 78.838 103.237 77.365"/>
    <polygon fill="#48515A" points="116.977 88.392 124.125 88.392 124.125 86.392 116.977 86.392"/>
    <polyline fill="#48515A" points="61.54 106.543 67.54 102.543 68.649 104.207 62.649 108.207 61.54 106.543"/>
    <polyline fill="#F58E70" points="65.18 24.302 65.18 22.302 59.18 22.302 59.18 24.302 57.18 24.302 57.18 22.302 51.18 22.302 51.18 24.302 49.18 24.302 49.18 30.302 51.18 30.302 51.18 32.302 53.18 32.302 53.18 34.302 55.18 34.302 55.18 36.302 57.18 36.302 57.18 38.302 59.18 38.302 59.18 36.302 61.18 36.302 61.18 34.302 63.18 34.302 63.18 32.302 65.18 32.302 65.18 30.302 67.18 30.302 67.18 24.302 65.18 24.302"/>
    <polyline fill="#F58E70" points="137.223 145.375 137.223 143.375 131.223 143.375 131.223 145.375 129.223 145.375 129.223 143.375 123.223 143.375 123.223 145.375 121.223 145.375 121.223 151.375 123.223 151.375 123.223 153.375 125.223 153.375 125.223 155.375 127.223 155.375 127.223 157.375 129.223 157.375 129.223 159.375 131.223 159.375 131.223 157.375 133.223 157.375 133.223 155.375 135.223 155.375 135.223 153.375 137.223 153.375 137.223 151.375 139.223 151.375 139.223 145.375 137.223 145.375"/>
    <polygon fill="#F58E70" points="134.18 57.321 136.18 57.321 136.18 51.321 134.18 51.321"/>
    <polygon fill="#F58E70" points="136.18 51.321 142.18 51.321 142.18 49.321 136.18 49.321"/>
    <polygon fill="#F58E70" points="142.18 53.321 144.18 53.321 144.18 51.321 142.18 51.321"/>
    <polygon fill="#F58E70" points="144.18 51.321 150.18 51.321 150.18 49.321 144.18 49.321"/>
    <polygon fill="#F58E70" points="150.18 57.321 152.18 57.321 152.18 51.321 150.18 51.321"/>
    <polygon fill="#F58E70" points="136.18 59.321 138.18 59.321 138.18 57.321 136.18 57.321"/>
    <polygon fill="#F58E70" points="138.18 61.321 140.18 61.321 140.18 59.321 138.18 59.321"/>
    <polygon fill="#F58E70" points="140.18 63.321 142.18 63.321 142.18 61.321 140.18 61.321"/>
    <polygon fill="#F58E70" points="142.18 65.321 144.18 65.321 144.18 63.321 142.18 63.321"/>
    <polygon fill="#F58E70" points="144.18 63.321 146.18 63.321 146.18 61.321 144.18 61.321"/>
    <polygon fill="#F58E70" points="146.18 61.321 148.18 61.321 148.18 59.321 146.18 59.321"/>
    <polygon fill="#F58E70" points="148.18 59.321 150.18 59.321 150.18 57.321 148.18 57.321"/>
    <path fill="#DFE0E0" d="M164.235 29.353L165.103 29.606 165.103 130.502C170.588 130.504 175.032 134.952 175.03 140.437 175.028 145.922 170.58 150.367 165.095 150.364 164.938 150.364 164.782 150.361 164.626 150.353L159.103 150.353 159.103 29.353 164.235 29.353M27.791 29.353L27.103 29.606 27.103 130.502C21.654 130.615 17.25 134.98 17.087 140.428 17.177 146 21.768 150.445 27.341 150.354 27.361 150.354 27.381 150.354 27.4 150.353L33.103 150.353 33.103 29.353 27.791 29.353"/>
    <path fill="#FFD15D" d="M165.103 13.6119987C170.103 13.609 175.103 18.822 175.103 24.438L175.103 141.334C175.103 136.051 170.103 131.045 165.103 130.552L165.103 13.6119987M28.103 13.6119985C22.103 13.609 17.103 18.155 17.103 23.771L17.103 140.667C17.103 135.384 22.103 131.045 28.103 130.552L28.103 13.6119985"/>
    <path fill="#48515A" d="M26.103,14.6052881 C24.223,14.58 22.404,15.267 21.011,16.53 C19.071,18.43 18.016,21.056 18.103,23.771 L18.103,134.408 C19.942,131.71 22.86,129.939 26.103,129.553 L26.103,14.6052881 Z M166.103,129.554 C169.388,129.965 172.319,131.817 174.103,134.607 L174.103,24.298 C174.103,19.68 170.077,15.756 166.103,14.822 L166.103,129.554 Z M164.626,151.353 L27.4,151.353 C21.065,151.353 16.103,146.659 16.103,140.667 L16.087,140.667 C16.087,140.477 16.092,140.287 16.103,140.099 L16.103,23.771 C16.016,20.493 17.309,17.329 19.666,15.049 C21.713,13.201 24.46,12.329 27.198,12.658 L28.103,12.745 L28.103,131.502 L27.103,131.502 C22.362,131.726 18.517,135.42 18.103,140.148 L18.103,140.667 C18.103,145.537 22.187,149.353 27.4,149.353 L164.626,149.353 C169.94,149.353 174.103,145.537 174.103,140.667 L173.955,140.667 C173.955,135.87 169.735,131.502 165.103,131.502 L164.103,131.502 L164.103,12.549 L165.195,12.65 C171.006,13.19 176.103,18.633 176.103,24.298 L176.103,140.667 C176.103,146.659 171.062,151.353 164.626,151.353 Z"/>
    <polygon fill="#475059" points="26.526 30.353 164.103 30.353 164.103 28.353 26.526 28.353"/>
    <polygon fill="#48515A" points="126.072 4.909 128.072 4.909 128.072 .909 126.072 .909"/>
    <polygon fill="#48515A" points="126.072 14.909 128.072 14.909 128.072 10.909 126.072 10.909"/>
    <polygon fill="#48515A" points="130.072 8.909 134.072 8.909 134.072 6.909 130.072 6.909"/>
    <polygon fill="#48515A" points="120.072 8.909 124.072 8.909 124.072 6.909 120.072 6.909"/>
    <polygon fill="#48515A" points="6 143.992 8 143.992 8 139.992 6 139.992"/>
    <polygon fill="#48515A" points="6 153.992 8 153.992 8 149.992 6 149.992"/>
    <polygon fill="#48515A" points="10 147.992 14 147.992 14 145.992 10 145.992"/>
    <polygon fill="#48515A" points="0 147.992 4 147.992 4 145.992 0 145.992"/>
    <g transform="translate(184 153)">
      <mask id="cc394-b" fill="#fff">
        <use xlink:href="#cc394-a"/>
      </mask>
      <polygon fill="#48515A" points=".106 4 2.106 4 2.106 0 .106 0" mask="url(#cc394-b)"/>
      <polygon fill="#48515A" points=".106 13.94 2.106 13.94 2.106 10 .106 10" mask="url(#cc394-b)"/>
    </g>
    <polygon fill="#48515A" points="188.106 161 192.106 161 192.106 159 188.106 159"/>
    <polygon fill="#48515A" points="178.106 161 182.106 161 182.106 159 178.106 159"/>
    <path fill="#5FE0ED" d="M137.107,110.386 C138.939,110.386 140.424,111.871 140.424,113.703 C140.424,115.535 138.939,117.021 137.107,117.021 C135.275,117.021 133.79,115.535 133.79,113.703 C133.79,111.871 135.275,110.386 137.107,110.386"/>
    <path fill="#FFD15D" d="M143.095 36.925C143.647 36.925 144.095 37.373 144.095 37.925 144.095 38.477 143.647 38.925 143.095 38.925 142.542 38.925 142.095 38.477 142.095 37.925 142.095 37.373 142.542 36.925 143.095 36.925M148.095 88.925C150.304 88.925 152.095 90.716 152.095 92.925 152.095 95.134 150.304 96.925 148.095 96.925 145.886 96.925 144.095 95.134 144.095 92.925 144.095 90.716 145.886 88.925 148.095 88.925"/>
    <path fill="#FFD15D" d="M148.095,98.925 C144.781,98.925 142.095,96.239 142.095,92.925 C142.095,89.611 144.781,86.925 148.095,86.925 C151.408,86.925 154.095,89.611 154.095,92.925 C154.091,96.237 151.407,98.921 148.095,98.925 Z M148.095,84.925 C143.676,84.925 140.095,88.507 140.095,92.925 C140.095,97.343 143.676,100.925 148.095,100.925 C152.513,100.925 156.095,97.343 156.095,92.925 C156.095,88.507 152.513,84.925 148.095,84.925 Z"/>
    <polygon fill="#FFD15D" points="48.107 131.854 51.107 134.778 50.399 138.907 54.107 136.957 57.815 138.907 57.107 134.778 60.107 131.854 55.961 131.251 54.107 127.494 52.253 131.251"/>
    <polygon fill="#FFD15D" points="86.107 13.878 89.107 16.802 88.399 20.931 92.107 18.981 95.815 20.931 95.107 16.802 98.107 13.878 93.961 13.275 92.107 9.518 90.253 13.275"/>
    <polygon fill="#FFD15D" points="36.077 63.908 39.077 66.832 38.369 70.961 42.077 69.011 45.785 70.961 45.077 66.832 48.077 63.908 43.931 63.305 42.077 59.548 40.223 63.305"/>
  </g>
</svg>
