<svg xmlns="http://www.w3.org/2000/svg" xmlns:xlink="http://www.w3.org/1999/xlink" width="192" height="173" viewBox="0 0 192 173">
  <defs>
    <polygon id="cc399-a" points=".634 .5 150 .5 150 170.627 .634 170.627"/>
    <polygon id="cc399-c" points=".183 .17 171.891 .17 171.891 132.027 .183 132.027"/>
    <polygon id="cc399-e" points="0 0 16 0 16 15.94 0 15.94"/>
  </defs>
  <g fill="none" fill-rule="evenodd">
    <polyline fill="#F58E70" points="132.331 55.349 94 18.349 57 55.349 77.007 55.349 77.007 104.321 110.992 104.321 110.992 55.349 132.331 55.349"/>
    <polyline fill="#F58E70" points="28 135 28 133 22 133 22 135 20 135 20 133 14 133 14 135 12 135 12 141 14 141 14 143 16 143 16 145 18 145 18 147 20 147 20 149 22 149 22 147 24 147 24 145 26 145 26 143 28 143 28 141 30 141 30 135 28 135"/>
    <polygon fill="#F58E70" points="164 49 166 49 166 43 164 43"/>
    <polygon fill="#F58E70" points="166 43 172 43 172 41 166 41"/>
    <polygon fill="#F58E70" points="172 45 174 45 174 43 172 43"/>
    <polygon fill="#F58E70" points="174 43 180 43 180 41 174 41"/>
    <polygon fill="#F58E70" points="180 49 182 49 182 43 180 43"/>
    <polygon fill="#F58E70" points="166 51 168 51 168 49 166 49"/>
    <polygon fill="#F58E70" points="168 53 170 53 170 51 168 51"/>
    <polygon fill="#F58E70" points="170 55 172 55 172 53 170 53"/>
    <polygon fill="#F58E70" points="172 57 174 57 174 55 172 55"/>
    <polygon fill="#F58E70" points="174 55 176 55 176 53 174 53"/>
    <polygon fill="#F58E70" points="176 53 178 53 178 51 176 51"/>
    <g transform="translate(30)">
      <mask id="cc399-b" fill="#fff">
        <use xlink:href="#cc399-a"/>
      </mask>
      <polygon fill="#F58E70" points="148 51 150 51 150 49 148 49" mask="url(#cc399-b)"/>
      <path fill="#5FE0ED" d="M15.021,87.957 C6.803,72.044 6.5,53.529 14.214,38.432 C17.367,32.235 21.689,26.706 26.943,22.15 C47.978,3.956 79.179,3.956 100.215,22.149 C100.919,22.76 101.599,23.393 102.331,24.098 C103.406,25.089 104.453,26.135 105.442,27.206 C109.817,32.056 112.992,37.865 114.713,44.166 C114.898,44.82 115.046,45.483 115.201,46.144 L123.386,46.144 C123.108,44.726 122.79,43.312 122.391,41.908 C120.325,34.423 116.533,27.526 111.319,21.771 C110.187,20.546 108.988,19.35 107.825,18.277 C107.057,17.535 106.273,16.809 105.46,16.102 C81.414,-4.701 45.743,-4.701 21.698,16.102 C15.667,21.331 10.705,27.678 7.085,34.791 C-1.799,52.181 -1.491,73.428 7.91,91.631 C10.614,96.867 13.091,104.091 15.179,112.431 L23.436,112.431 C21.095,102.676 18.222,94.155 15.021,87.957" mask="url(#cc399-b)"/>
      <path fill="#48515A" d="M87.394,170.627 L84.282,146.27 C84.287,142.294 87.509,139.071 91.485,139.067 L109.956,139.067 C113.739,139.057 116.804,135.994 116.816,132.211 L116.833,125.51 C116.839,124.522 117.145,123.559 117.711,122.75 C118.065,122.2 118.343,121.605 118.537,120.98 C118.556,120.549 118.539,118.664 118.511,116.981 L118.504,116.569 L121.284,113.679 L119.944,110.999 L119.944,110.763 C119.942,108.96 121.06,107.344 122.749,106.711 L122.903,106.66 L126.927,106.66 C127.935,106.695 128.908,106.283 129.584,105.533 C130.413,104.568 130.6,103.208 130.063,102.055 C127.924,97.472 122.671,85.902 120.115,77.452 C119.59,75.762 119.337,74.001 119.365,72.232 L119.361,55.983 C119.36,51.71 118.768,47.457 117.601,43.346 C115.751,36.591 112.342,30.364 107.646,25.167 C106.608,24.044 105.505,22.942 104.366,21.89 C103.544,21.099 102.854,20.465 102.183,19.882 C80.018,0.708 47.139,0.708 24.975,19.882 C19.43,24.69 14.868,30.526 11.54,37.067 C3.388,53.023 3.692,72.563 12.354,89.335 C20.69,105.476 26.748,137.894 26.757,166.417 L26.859,170.475 L24.859,170.525 L24.757,166.443 C24.748,138.176 18.784,106.144 10.577,90.253 C1.62,72.909 1.314,52.687 9.759,36.157 C13.203,29.387 17.925,23.347 23.664,18.371 C46.581,-1.455 80.576,-1.455 103.493,18.371 C104.192,18.978 104.905,19.634 105.738,20.435 C106.9,21.508 108.041,22.648 109.115,23.81 C114.009,29.218 117.567,35.697 119.504,42.728 C120.733,47.039 121.359,51.5 121.361,55.983 L121.365,72.255 C121.34,73.82 121.564,75.378 122.029,76.873 C124.547,85.199 129.754,96.665 131.876,101.209 C132.747,103.065 132.45,105.26 131.117,106.818 C130.062,108.022 128.527,108.696 126.927,108.66 L123.247,108.66 C122.515,109.019 122.025,109.735 121.955,110.548 L123.704,114.048 L120.518,117.361 C120.577,121.126 120.53,121.29 120.484,121.448 C120.243,122.27 119.887,123.054 119.427,123.777 C119.049,124.28 118.841,124.889 118.833,125.518 L118.816,132.217 C118.798,137.101 114.84,141.055 109.956,141.067 L91.485,141.067 C88.637,141.07 86.319,143.361 86.282,146.209 L89.378,170.373 L87.394,170.627" mask="url(#cc399-b)"/>
    </g>
    <polyline fill="#2B2B2B" points="145.675 120.068 145.678 120.061 145.675 120.068"/>
    <polygon fill="#48515A" points="6 99.5 8 99.5 8 95.5 6 95.5"/>
    <polygon fill="#48515A" points="6 109.5 8 109.5 8 105.5 6 105.5"/>
    <polygon fill="#48515A" points="10 103.5 14 103.5 14 101.5 10 101.5"/>
    <polygon fill="#48515A" points="0 103.5 4 103.5 4 101.5 0 101.5"/>
    <polygon fill="#48515A" points="150 5 152 5 152 1 150 1"/>
    <polygon fill="#48515A" points="150 15 152 15 152 11 150 11"/>
    <polygon fill="#48515A" points="154 9 158 9 158 7 154 7"/>
    <polygon fill="#48515A" points="144 9 148 9 148 7 144 7"/>
    <path fill="#5FE0ED" d="M178,88.455 C179.832,88.455 181.317,89.94 181.317,91.772 C181.317,93.604 179.832,95.09 178,95.09 C176.168,95.09 174.683,93.604 174.683,91.772 C174.683,89.94 176.168,88.455 178,88.455"/>
    <g transform="translate(20 20)">
      <mask id="cc399-d" fill="#fff">
        <use xlink:href="#cc399-c"/>
      </mask>
      <path fill="#5FE0ED" d="M3.5,0.17 C5.332,0.17 6.817,1.655 6.817,3.487 C6.817,5.319 5.332,6.804 3.5,6.804 C1.668,6.804 0.183,5.319 0.183,3.487 C0.183,1.655 1.668,0.17 3.5,0.17" mask="url(#cc399-d)"/>
      <path fill="#48515A" d="M158.142,102.003 L147.413,109.39 C147.151,109.574 146.996,109.876 147,110.197 L147.04,121.908 C147.038,122.229 147.195,122.53 147.459,122.711 L158.238,130.025 L158.749,130.023 L169.477,122.636 C169.74,122.452 169.895,122.15 169.891,121.83 L169.851,110.118 C169.852,109.798 169.695,109.497 169.432,109.315 L158.652,102.001 L158.142,102.003 Z M157.627,132.027 L146.336,124.367 C145.525,123.814 145.04,122.896 145.04,121.915 L145,110.203 C144.994,109.222 145.472,108.302 146.278,107.743 L157.517,100.005 L159.264,99.999 L170.555,107.66 C171.364,108.213 171.849,109.13 171.851,110.11 L171.891,121.823 C171.897,122.804 171.418,123.725 170.611,124.284 L159.374,132.021 L157.627,132.027 Z" mask="url(#cc399-d)"/>
    </g>
    <polyline fill="#48515A" points="178.468 138.804 165.55 130.434 166.638 128.755 178.435 136.399 190.279 128.243 191.414 129.89 178.468 138.804"/>
    <polyline fill="#48515A" points="177.451 137.605 179.451 137.598 179.496 150.899 177.496 150.906 177.451 137.605"/>
    <polyline fill="#48515A" points="169.452 138.055 171.452 138.047 171.46 140.047 169.46 140.055 169.452 138.055"/>
    <polyline fill="#48515A" points="173.459 140.031 175.459 140.023 175.467 142.023 173.467 142.031 173.459 140.031"/>
    <polyline fill="#48515A" points="183.454 138.997 185.454 138.989 185.462 140.989 183.462 140.997 183.454 138.997"/>
    <polyline fill="#48515A" points="173.417 128.031 175.417 128.023 175.425 130.023 173.425 130.031 173.417 128.031"/>
    <polyline fill="#48515A" points="177.417 128.018 179.417 128.01 179.425 130.01 177.425 130.018 177.417 128.018"/>
    <polyline fill="#48515A" points="181.417 128.004 183.417 127.996 183.425 129.996 181.425 130.004 181.417 128.004"/>
    <path fill="#48515A" d="M73.999,136 L79.999,136 L79.999,126.999 L89.001,126.999 L89.001,120.998 L79.999,120.998 L79.999,112 L73.999,112 L73.999,120.999 L65,121 L65,127 L73.999,126.999 L73.999,136 Z M81.999,138 L71.999,138 L71.999,128.999 L63,129 L63,119 L71.999,118.999 L71.999,110 L81.999,110 L81.999,118.999 L91.001,118.998 L91.001,128.999 L81.999,128.999 L81.999,138 Z"/>
    <polygon fill="#48515A" points="76.001 116 78.001 116 78.001 114 76.001 114"/>
    <polygon fill="#48515A" points="76.001 134.011 78.001 134.011 78.001 132.011 76.001 132.011"/>
    <polygon fill="#48515A" points="66.996 125.006 68.996 125.006 68.996 123.006 66.996 123.006"/>
    <polygon fill="#48515A" points="85.007 125.006 87.007 125.006 87.007 123.006 85.007 123.006"/>
    <path fill="#48515A" d="M77.001,123 C76.449,123 76.001,123.447 76.001,124 C76.001,124.552 76.449,125 77.001,125 C77.553,125 78.001,124.552 78.001,124 C78,123.447 77.553,123 77.001,123 Z M77.001,127 C75.344,127 74.001,125.656 74.001,124 C74.001,122.343 75.344,121 77.001,121 C78.658,121 80.001,122.343 80.001,124 C79.999,125.656 78.657,126.998 77.001,127 Z"/>
    <g transform="translate(92 157)">
      <mask id="cc399-f" fill="#fff">
        <use xlink:href="#cc399-e"/>
      </mask>
      <path fill="#FFD15D" d="M8,4 C10.209,4 12,5.791 12,8 C12,10.209 10.209,12 8,12 C5.791,12 4,10.209 4,8 C4,5.791 5.791,4 8,4" mask="url(#cc399-f)"/>
      <path fill="#FFD15D" d="M8,14 C4.686,14 2,11.314 2,8 C2,4.686 4.686,2 8,2 C11.314,2 14,4.686 14,8 C13.996,11.312 11.312,13.996 8,14 Z M8,0 C3.582,0 0,3.582 0,8 C0,12.418 3.582,16 8,16 C12.418,16 16,12.418 16,8 C16,3.582 12.418,0 8,0 Z" mask="url(#cc399-f)"/>
    </g>
    <polygon fill="#FFD15D" points="24 113.359 27 116.284 26.292 120.413 30 118.463 33.708 120.413 33 116.284 36 113.359 31.854 112.757 30 109 28.146 112.757"/>
    <polygon fill="#FFD15D" points="160 71.359 163 74.283 162.292 78.413 166 76.463 169.708 78.413 169 74.283 172 71.359 167.854 70.757 166 67 164.146 70.757"/>
  </g>
</svg>
