<svg xmlns="http://www.w3.org/2000/svg" xmlns:xlink="http://www.w3.org/1999/xlink" width="192" height="162" viewBox="0 0 192 162">
  <defs>
    <polygon id="cc393-a" points="0 0 18 0 18 15.94 0 15.94"/>
  </defs>
  <g fill="none" fill-rule="evenodd">
    <g transform="translate(110 146)">
      <mask id="cc393-b" fill="#fff">
        <use xlink:href="#cc393-a"/>
      </mask>
      <polyline fill="#F58E70" points="16 2 16 0 10 0 10 2 8 2 8 0 2 0 2 2 0 2 0 8 2 8 2 10 4 10 4 12 6 12 6 14 8 14 8 16 10 16 10 14 12 14 12 12 14 12 14 10 16 10 16 8 18 8 18 2 16 2" mask="url(#cc393-b)"/>
    </g>
    <polyline fill="#F58E70" points="32 72 32 70 26 70 26 72 24 72 24 70 18 70 18 72 16 72 16 78 18 78 18 80 20 80 20 82 22 82 22 84 24 84 24 86 26 86 26 84 28 84 28 82 30 82 30 80 32 80 32 78 34 78 34 72 32 72"/>
    <polygon fill="#F58E70" points="156 46 158 46 158 40 156 40"/>
    <polygon fill="#F58E70" points="158 40 164 40 164 38 158 38"/>
    <polygon fill="#F58E70" points="164 42 166 42 166 40 164 40"/>
    <polygon fill="#F58E70" points="166 40 172 40 172 38 166 38"/>
    <polygon fill="#F58E70" points="172 46 174 46 174 40 172 40"/>
    <polygon fill="#F58E70" points="158 48 160 48 160 46 158 46"/>
    <polygon fill="#F58E70" points="160 50 162 50 162 48 160 48"/>
    <polygon fill="#F58E70" points="162 52 164 52 164 50 162 50"/>
    <polygon fill="#F58E70" points="164 54 166 54 166 52 164 52"/>
    <polygon fill="#F58E70" points="166 52 168 52 168 50 166 50"/>
    <polygon fill="#F58E70" points="168 50 170 50 170 48 168 48"/>
    <polygon fill="#F58E70" points="170 48 172 48 172 46 170 46"/>
    <path fill="#DFE0E0" d="M147.253,11.834 L147,11.146 L68.766,11.145 C68.652,5.696 64.288,1.292 58.84,1.129 C53.267,1.219 48.823,5.81 48.913,11.383 C48.914,11.403 48.914,11.423 48.915,11.443 L48.915,17.145 L147.253,17.146 L147.253,11.834"/>
    <path fill="#FFD15D" d="M162.994001,12.146 C162.997,6.146 158.451,1.146 152.835,1.146 L58.601,1.145 C63.884,1.145 68.223,6.145 68.716,12.145 L162.994001,12.146"/>
    <g fill="#48515A" transform="translate(28)">
      <path d="M109.313,139.854 L11.077,139.854 L11.077,137.854 L109.313,137.854 C114.185,137.854 118,133.77 118,128.557 L118,12.146 L120,12.146 L120,128.557 C120,134.892 115.306,139.854 109.313,139.854"/>
      <path d="M41.715,10.145 L134.000711,10.146 C134.026,8.266 133.338,6.447 132.076,5.054 C130.175,3.114 127.549,2.06 124.835,2.146 L36.86,2.145 C39.559,3.985 41.329,6.902 41.715,10.145 Z M2.07,129.854 C2.767,134.211 6.36,137.521 10.759,137.86 L11.165,137.854 C15.673,137.79 19.409,134.342 19.834,129.854 L2.07,129.854 Z M11.165,139.87 C5.103,139.758 0.194,134.914 0,128.854 L0,127.854 L19.915,127.854 L19.915,11.443 C19.915,5.107 24.608,0.145 30.6,0.145 L30.6,0.129 C30.794,0.129 30.985,0.134 31.177,0.145 L124.835,0.146 C128.113,0.059 131.277,1.352 133.557,3.709 C135.406,5.756 136.278,8.503 135.947,11.241 L135.86,12.146 L39.766,12.145 L39.766,11.145 C39.541,6.407 35.852,2.563 31.127,2.145 L30.6,2.145 C25.73,2.145 21.915,6.229 21.915,11.443 L21.915,128.557 C22.099,134.277 17.853,139.177 12.165,139.808 L12.165,139.854 L11.165,139.87 Z"/>
    </g>
    <polyline fill="#48515A" points="102.291 50.299 103.705 48.885 107.283 52.462 105.869 53.877 102.291 50.299"/>
    <polyline fill="#48515A" points="92.309 46.124 82 35.814 82 31.497 86.317 31.497 96.627 41.807 95.213 43.221 85.489 33.497 84 33.497 84 34.986 93.723 44.709 92.309 46.124"/>
    <polyline fill="#48515A" points="99.327 53.141 100.741 51.727 104.38 55.366 102.966 56.78 99.327 53.141"/>
    <polyline fill="#48515A" points="101.387 60.041 99.229 57.881 100.643 56.467 101.387 57.211 107.715 50.884 106.971 50.14 108.385 48.726 110.543 50.884 101.387 60.041"/>
    <polyline fill="#48515A" points="93.299 56.515 91.885 55.101 112 34.986 112 33.497 110.511 33.497 90.396 53.612 88.982 52.198 109.683 31.497 114 31.497 114 35.814 93.299 56.515"/>
    <polyline fill="#48515A" points="94.742 59.848 85.586 50.692 87.745 48.534 89.159 49.948 88.414 50.692 94.742 57.02 95.486 56.275 96.9 57.689 94.742 59.848"/>
    <path fill="#48515A" d="M85 63.434C83.343 63.434 82 62.091 82 60.434 82 59.638 82.316 58.875 82.879 58.312L88.363 52.828 89.777 54.242 84.293 59.727C83.903 60.117 83.902 60.749 84.292 61.14 84.292 61.14 84.293 61.14 84.293 61.14 84.688 61.519 85.311 61.519 85.707 61.141L91.192 55.656 92.606 57.07 87.121 62.555C86.56 63.119 85.796 63.436 85 63.434M111 63.432C110.204 63.434 109.441 63.118 108.879 62.555L103.395 57.07 104.809 55.656 110.293 61.141C110.684 61.53 111.316 61.53 111.707 61.141 112.097 60.751 112.098 60.118 111.708 59.728L111.707 59.727 106.223 54.242 107.637 52.828 113.121 58.313C114.293 59.483 114.294 61.381 113.124 62.553 112.561 63.116 111.797 63.433 111 63.432"/>
    <polygon fill="#48515A" points="87 22.499 109 22.499 109 20.499 87 20.499"/>
    <polygon fill="#48515A" points="63 70.499 65 70.499 65 68.499 63 68.499"/>
    <polygon fill="#48515A" points="67 70.499 69 70.499 69 68.499 67 68.499"/>
    <polygon fill="#48515A" points="71 70.499 73 70.499 73 68.499 71 68.499"/>
    <polygon fill="#48515A" points="75 70.499 77 70.499 77 68.499 75 68.499"/>
    <polygon fill="#48515A" points="79 70.499 81 70.499 81 68.499 79 68.499"/>
    <polygon fill="#48515A" points="83 70.499 85 70.499 85 68.499 83 68.499"/>
    <polygon fill="#48515A" points="87 70.499 89 70.499 89 68.499 87 68.499"/>
    <polygon fill="#48515A" points="91 70.499 93 70.499 93 68.499 91 68.499"/>
    <polygon fill="#48515A" points="95 70.499 97 70.499 97 68.499 95 68.499"/>
    <polygon fill="#48515A" points="99 70.499 101 70.499 101 68.499 99 68.499"/>
    <polygon fill="#48515A" points="103 70.499 105 70.499 105 68.499 103 68.499"/>
    <polygon fill="#48515A" points="107 70.499 109 70.499 109 68.499 107 68.499"/>
    <polygon fill="#48515A" points="111 70.499 113 70.499 113 68.499 111 68.499"/>
    <polygon fill="#48515A" points="115 70.499 117 70.499 117 68.499 115 68.499"/>
    <polygon fill="#48515A" points="119 70.499 121 70.499 121 68.499 119 68.499"/>
    <polygon fill="#48515A" points="123 70.499 125 70.499 125 68.499 123 68.499"/>
    <polygon fill="#48515A" points="127 70.499 129 70.499 129 68.499 127 68.499"/>
    <polygon fill="#48515A" points="131 70.499 133 70.499 133 68.499 131 68.499"/>
    <polygon fill="#48515A" points="67.989 82.499 127 82.499 127 80.499 67.989 80.499"/>
    <polygon fill="#48515A" points="63.986 86.499 127 86.499 127 84.499 63.986 84.499"/>
    <polygon fill="#48515A" points="63.986 90.499 124.004 90.499 124.004 88.499 63.986 88.499"/>
    <polygon fill="#48515A" points="67.989 98.499 127 98.499 127 96.499 67.989 96.499"/>
    <polygon fill="#48515A" points="63.986 102.499 127 102.499 127 100.499 63.986 100.499"/>
    <polygon fill="#48515A" points="63.986 106.499 124.004 106.499 124.004 104.499 63.986 104.499"/>
    <polygon fill="#48515A" points="67.989 114.499 127 114.499 127 112.499 67.989 112.499"/>
    <polygon fill="#48515A" points="63.986 118.499 127 118.499 127 116.499 63.986 116.499"/>
    <polygon fill="#48515A" points="63.986 122.499 124.004 122.499 124.004 120.499 63.986 120.499"/>
    <polygon fill="#48515A" points="83 26.499 113 26.499 113 24.499 83 24.499"/>
    <polygon fill="#48515A" points="6 98.202 8 98.202 8 94.202 6 94.202"/>
    <polygon fill="#48515A" points="6 108.202 8 108.202 8 104.202 6 104.202"/>
    <polygon fill="#48515A" points="10 102.202 14 102.202 14 100.202 10 100.202"/>
    <polygon fill="#48515A" points="0 102.202 4 102.202 4 100.202 0 100.202"/>
    <polygon fill="#48515A" points="184 80 186 80 186 76 184 76"/>
    <polygon fill="#48515A" points="184 90 186 90 186 86 184 86"/>
    <polygon fill="#48515A" points="188 84 192 84 192 82 188 82"/>
    <polygon fill="#48515A" points="178 84 182 84 182 82 178 82"/>
    <polygon fill="#48515A" points="29.915 16 31.915 16 31.915 12 29.915 12"/>
    <polygon fill="#48515A" points="29.915 26 31.915 26 31.915 22 29.915 22"/>
    <polygon fill="#48515A" points="33.915 20 37.915 20 37.915 18 33.915 18"/>
    <polygon fill="#48515A" points="23.915 20 27.915 20 27.915 18 23.915 18"/>
    <path fill="#48515A" d="M169.251,98.976 L158.523,106.363 C158.26,106.547 158.105,106.849 158.109,107.17 L158.149,118.881 C158.148,119.202 158.305,119.503 158.569,119.686 L169.348,126.999 L169.858,126.997 L180.587,119.609 C180.849,119.425 181.004,119.123 181,118.803 L180.96,107.091 C180.962,106.771 180.805,106.47 180.541,106.288 L169.762,98.974 L169.251,98.976 Z M168.736,129.001 L157.445,121.34 C156.636,120.787 156.151,119.87 156.149,118.889 L156.109,107.176 C156.103,106.195 156.582,105.275 157.389,104.716 L168.626,96.978 L170.373,96.972 L181.664,104.633 C182.475,105.186 182.96,106.104 182.96,107.085 L183,118.797 C183.006,119.777 182.528,120.698 181.722,121.257 L170.483,128.995 L168.736,129.001 Z"/>
    <polyline fill="#48515A" points="169.577 115.778 156.659 107.408 157.747 105.729 169.544 113.373 181.389 105.216 182.523 106.864 169.577 115.778"/>
    <polyline fill="#48515A" points="168.561 114.578 170.561 114.571 170.605 127.872 168.605 127.879 168.561 114.578"/>
    <polyline fill="#48515A" points="160.562 115.028 162.562 115.02 162.569 117.02 160.569 117.028 160.562 115.028"/>
    <polyline fill="#48515A" points="164.568 117.004 166.568 116.997 166.576 118.997 164.576 119.004 164.568 117.004"/>
    <polyline fill="#48515A" points="174.563 115.97 176.563 115.962 176.571 117.962 174.571 117.97 174.563 115.97"/>
    <polyline fill="#48515A" points="164.526 105.005 166.526 104.997 166.534 106.997 164.534 107.005 164.526 105.005"/>
    <polyline fill="#48515A" points="168.526 104.991 170.526 104.983 170.534 106.983 168.534 106.991 168.526 104.991"/>
    <polyline fill="#48515A" points="172.526 104.977 174.526 104.969 174.534 106.969 172.534 106.977 172.526 104.977"/>
    <path fill="#FFD15D" d="M28,46 C30.209,46 32,47.79 32,50 C32,52.209 30.209,54 28,54 C25.791,54 24,52.209 24,50 C24,47.79 25.791,46 28,46"/>
    <path fill="#FFD15D" d="M28 56C24.686 56 22 53.313 22 50 22 46.686 24.686 44 28 44 31.314 44 34 46.686 34 50 33.996 53.312 31.312 55.996 28 56zM28 42C23.582 42 20 45.581 20 50 20 54.418 23.582 58 28 58 32.418 58 36 54.418 36 50 36 45.581 32.418 42 28 42zM164 142C166.209 142 168 143.79 168 146 168 148.209 166.209 150 164 150 161.791 150 160 148.209 160 146 160 143.79 161.791 142 164 142"/>
    <path fill="#FFD15D" d="M164,152 C160.686,152 158,149.313 158,146 C158,142.686 160.686,140 164,140 C167.314,140 170,142.686 170,146 C169.996,149.312 167.312,151.996 164,152 Z M164,138 C159.582,138 156,141.581 156,146 C156,150.418 159.582,154 164,154 C168.418,154 172,150.418 172,146 C172,141.581 168.418,138 164,138 Z"/>
    <polygon fill="#FFD15D" points="26 104.359 29 107.283 28.292 111.412 32 109.463 35.708 111.412 35 107.283 38 104.359 33.854 103.756 32 100 30.146 103.756"/>
    <polygon fill="#FFD15D" points="152 66.359 155 69.283 154.292 73.412 158 71.463 161.708 73.412 161 69.283 164 66.359 159.854 65.756 158 62 156.146 65.756"/>
  </g>
</svg>
