<svg xmlns="http://www.w3.org/2000/svg" xmlns:xlink="http://www.w3.org/1999/xlink" width="192" height="162" viewBox="0 0 192 162">
  <defs>
    <polygon id="cc392-a" points="0 0 2 0 2 13.94 0 13.94"/>
    <polygon id="cc392-c" points="0 0 66 0 66 23.94 0 23.94"/>
  </defs>
  <g fill="none" fill-rule="evenodd">
    <path fill="#F58E70" d="M170.096,54.018 C171.753,54.018 173.096,55.361 173.096,57.018 C173.096,58.675 171.753,60.018 170.096,60.018 C168.439,60.018 167.096,58.675 167.096,57.018 C167.096,55.361 168.439,54.018 170.096,54.018"/>
    <polyline fill="#F58E70" points="133 20.006 133 18.006 127 18.006 127 20.006 125 20.006 125 18.006 119 18.006 119 20.006 117 20.006 117 26.006 119 26.006 119 28.006 121 28.006 121 30.006 123 30.006 123 32.006 125 32.006 125 34.006 127 34.006 127 32.006 129 32.006 129 30.006 131 30.006 131 28.006 133 28.006 133 26.006 135 26.006 135 20.006 133 20.006"/>
    <polyline fill="#F58E70" points="42.946 130.072 42.946 128.072 36.946 128.072 36.946 130.072 34.946 130.072 34.946 128.072 28.946 128.072 28.946 130.072 26.946 130.072 26.946 136.072 28.946 136.072 28.946 138.072 30.946 138.072 30.946 140.072 32.946 140.072 32.946 142.072 34.946 142.072 34.946 144.072 36.946 144.072 36.946 142.072 38.946 142.072 38.946 140.072 40.946 140.072 40.946 138.072 42.946 138.072 42.946 136.072 44.946 136.072 44.946 130.072 42.946 130.072"/>
    <path fill="#DEDEDD" d="M81 82.467C80.992 80.11 82.146 77.901 84.085 76.561L107.998 60.217 107.998 39.586C107.997 39.043 107.892 38.504 107.688 38.001 107.505 38.102 107.32 38.195 107.145 38.315L69.082 64.331C67.144 65.67 65.989 67.879 65.998 70.235L65.9979478 112.12C66.769 112.119 67.522 111.884 68.158 111.447L81 102.67 81 82.467M166.222 128.313C167.345 127.533 168.01 126.25 168 124.884L168 82.467C167.999 81.923 167.894 81.385 167.69 80.882 167.508 80.983 167.322 81.076 167.147 81.196L129.085 107.211C127.146 108.551 125.992 110.76 126 113.116L125.999959 155C126.772 154.999 127.525 154.765 128.161 154.328L166.222 128.313"/>
    <path fill="#475059" d="M126,50.347 C124.826,50.349 123.679,50.706 122.711,51.372 L84.649,77.388 C82.981,78.539 81.99,80.44 82,82.467 L82,124.884 C81.99,126.911 82.981,128.812 84.649,129.963 L122.711,155.979 C124.691,157.344 127.309,157.344 129.289,155.979 L167.351,129.963 C169.019,128.812 170.011,126.911 170,124.884 L170,82.467 C170.01,80.44 169.019,78.539 167.351,77.388 L129.289,51.372 C128.321,50.706 127.174,50.349 126,50.347 Z M126,159.005 C124.422,159.003 122.882,158.524 121.583,157.63 L83.521,131.614 C81.307,130.09 79.989,127.571 80,124.884 L80,82.467 C79.989,79.779 81.307,77.26 83.521,75.736 L121.583,49.72 C124.242,47.886 127.758,47.886 130.418,49.72 L168.48,75.736 C170.693,77.26 172.011,79.78 172,82.467 L172,124.884 C172.011,127.571 170.693,130.091 168.479,131.614 L130.417,157.63 C129.118,158.524 127.578,159.003 126,159.005 Z"/>
    <path fill="#475059" d="M148.002 115.8C145.793 115.8 144.002 117.591 144.002 119.8 144.002 122.009 145.793 123.8 148.002 123.8 150.211 123.8 152.002 122.009 152.002 119.8 151.999 117.592 150.21 115.803 148.002 115.8zM148.002 125.8C144.688 125.8 142.002 123.114 142.002 119.8 142.002 116.487 144.688 113.8 148.002 113.8 151.316 113.8 154.002 116.487 154.002 119.8 153.998 123.113 151.314 125.797 148.002 125.8zM109.979 121.804C107.77 121.804 105.979 123.595 105.979 125.804 105.979 128.013 107.77 129.804 109.979 129.804 112.188 129.804 113.979 128.013 113.979 125.804 113.976 123.596 112.187 121.807 109.979 121.804zM109.979 131.804C106.665 131.804 103.979 129.118 103.979 125.804 103.979 122.49 106.665 119.804 109.979 119.804 113.293 119.804 115.979 122.49 115.979 125.804 115.975 129.116 113.291 131.801 109.979 131.804zM96.971 108.796C94.762 108.796 92.971 110.587 92.971 112.796 92.971 115.006 94.762 116.796 96.971 116.796 99.18 116.796 100.971 115.006 100.971 112.796 100.969 110.588 99.179 108.799 96.971 108.796zM96.971 118.796C93.657 118.796 90.971 116.11 90.971 112.796 90.971 109.483 93.657 106.796 96.971 106.796 100.285 106.796 102.971 109.483 102.971 112.796 102.968 116.109 100.283 118.793 96.971 118.796zM107.978 76.777C105.769 76.777 103.978 78.568 103.978 80.777 103.978 82.986 105.769 84.777 107.978 84.777 110.187 84.777 111.978 82.986 111.978 80.777 111.975 78.569 110.186 76.779 107.978 76.777zM107.978 86.777C104.664 86.777 101.978 84.091 101.978 80.777 101.978 77.463 104.664 74.777 107.978 74.777 111.292 74.777 113.978 77.463 113.978 80.777 113.974 84.089 111.29 86.773 107.978 86.777zM125.989 76.777C123.78 76.777 121.989 78.568 121.989 80.777 121.989 82.986 123.78 84.777 125.989 84.777 128.198 84.777 129.989 82.986 129.989 80.777 129.986 78.569 128.197 76.779 125.989 76.777zM125.989 86.777C122.675 86.777 119.989 84.091 119.989 80.777 119.989 77.463 122.675 74.777 125.989 74.777 129.302 74.777 131.989 77.463 131.989 80.777 131.985 84.089 129.301 86.773 125.989 86.777zM144 76.777C141.79 76.777 140 78.568 140 80.777 140 82.986 141.79 84.777 144 84.777 146.209 84.777 148 82.986 148 80.777 147.997 78.569 146.208 76.779 144 76.777zM144 86.777C140.686 86.777 138 84.091 138 80.777 138 77.463 140.686 74.777 144 74.777 147.313 74.777 150 77.463 150 80.777 149.996 84.089 147.312 86.773 144 86.777zM66 115.655C64.422 115.653 62.882 115.174 61.583 114.28L23.52 88.264C21.307 86.74 19.989 84.221 20 81.534L20 39.117C19.989 36.429 21.307 33.91 23.52 32.386L61.583 6.37C64.242 4.536 67.758 4.536 70.417 6.37L108.48 32.386C110.693 33.91 112.011 36.429 112 39.116L112 53.877 110 53.877 110 39.116C110.011 37.089 109.019 35.188 107.351 34.037L69.289 8.021C67.309 6.656 64.691 6.656 62.711 8.021L24.649 34.037C22.981 35.189 21.99 37.09 22 39.117L22 81.534C21.99 83.56 22.981 85.462 24.649 86.613L62.711 112.628C64.691 113.994 67.309 113.994 69.289 112.628L77.095 107.292 78.224 108.943 70.417 114.28C69.117 115.174 67.578 115.653 66 115.655"/>
    <path fill="#475059" d="M43.998 72.45C41.789 72.45 39.998 74.241 39.998 76.45 39.998 78.659 41.789 80.45 43.998 80.45 46.207 80.45 47.998 78.659 47.998 76.45 47.995 74.242 46.206 72.453 43.998 72.45zM43.998 82.45C40.684 82.45 37.998 79.764 37.998 76.45 37.998 73.136 40.684 70.45 43.998 70.45 47.312 70.45 49.998 73.136 49.998 76.45 49.994 79.762 47.31 82.447 43.998 82.45zM75 31C72.791 31 71 32.791 71 35 71 37.209 72.791 39 75 39 77.209 39 79 37.209 79 35 78.997 32.792 77.208 31.002 75 31zM75 41C71.686 41 69 38.314 69 35 69 31.686 71.686 29 75 29 78.314 29 81 31.686 81 35 80.996 38.312 78.312 40.996 75 41zM56.989 31C54.78 31 52.989 32.791 52.989 35 52.989 37.209 54.78 39 56.989 39 59.198 39 60.989 37.209 60.989 35 60.987 32.792 59.197 31.002 56.989 31zM56.989 41C53.676 41 50.989 38.314 50.989 35 50.989 31.686 53.676 29 56.989 29 60.303 29 62.989 31.686 62.989 35 62.986 38.312 60.301 40.996 56.989 41z"/>
    <polygon fill="#48515A" points="6 110.202 8 110.202 8 106.202 6 106.202"/>
    <polygon fill="#48515A" points="6 120.202 8 120.202 8 116.202 6 116.202"/>
    <polygon fill="#48515A" points="10 114.202 14 114.202 14 112.202 10 112.202"/>
    <polygon fill="#48515A" points="0 114.202 4 114.202 4 112.202 0 112.202"/>
    <g transform="translate(184 148)">
      <mask id="cc392-b" fill="#fff">
        <use xlink:href="#cc392-a"/>
      </mask>
      <polygon fill="#48515A" points="0 4 2 4 2 0 0 0" mask="url(#cc392-b)"/>
      <polygon fill="#48515A" points="0 13.94 2 13.94 2 10 0 10" mask="url(#cc392-b)"/>
    </g>
    <polygon fill="#48515A" points="188 156 192 156 192 154 188 154"/>
    <polygon fill="#48515A" points="178 156 182 156 182 154 178 154"/>
    <polygon fill="#48515A" points="29.915 4 31.915 4 31.915 0 29.915 0"/>
    <polygon fill="#48515A" points="29.915 14 31.915 14 31.915 10 29.915 10"/>
    <polygon fill="#48515A" points="33.915 8 37.915 8 37.915 6 33.915 6"/>
    <polygon fill="#48515A" points="23.915 8 27.915 8 27.915 6 23.915 6"/>
    <path fill="#5FE0ED" d="M10,64.024 C11.657,64.024 13,65.367 13,67.024 C13,68.681 11.657,70.024 10,70.024 C8.343,70.024 7,68.681 7,67.024 C7,65.367 8.343,64.024 10,64.024"/>
    <path fill="#FFD15D" d="M60.03,124.06 C61.687,124.06 63.03,125.403 63.03,127.06 C63.03,128.717 61.687,130.06 60.03,130.06 C58.373,130.06 57.03,128.717 57.03,127.06 C57.03,125.403 58.373,124.06 60.03,124.06"/>
    <path fill="#48515A" d="M162.941,4.249 C152.448,4.249 143.941,12.756 143.941,23.249 C143.941,33.742 152.448,42.249 162.941,42.249 C173.434,42.249 181.941,33.742 181.941,23.249 C181.929,12.76 173.429,4.261 162.941,4.249 Z M162.941,44.249 C151.343,44.249 141.941,34.847 141.941,23.249 C141.941,11.651 151.343,2.249 162.941,2.249 C174.539,2.249 183.941,11.651 183.941,23.249 C183.928,34.842 174.534,44.236 162.941,44.249 Z"/>
    <path fill="#48515A" d="M159.946,34.93 L165.946,34.93 L165.946,25.929 L174.948,25.928 L174.948,19.928 L165.946,19.928 L165.946,10.93 L159.946,10.93 L159.946,19.929 L150.947,19.929 L150.947,25.929 L159.946,25.929 L159.946,34.93 Z M167.946,36.93 L157.946,36.93 L157.946,27.929 L148.947,27.929 L148.947,17.929 L157.946,17.929 L157.946,8.93 L167.946,8.93 L167.946,17.928 L176.948,17.928 L176.948,27.928 L167.946,27.929 L167.946,36.93 Z"/>
    <polygon fill="#48515A" points="161.948 14.93 163.948 14.93 163.948 12.93 161.948 12.93"/>
    <polygon fill="#48515A" points="161.948 32.941 163.948 32.941 163.948 30.941 161.948 30.941"/>
    <polygon fill="#48515A" points="152.943 23.936 154.943 23.936 154.943 21.936 152.943 21.936"/>
    <polygon fill="#48515A" points="170.954 23.936 172.954 23.936 172.954 21.936 170.954 21.936"/>
    <path fill="#48515A" d="M162.948,21.929 C162.396,21.929 161.948,22.377 161.948,22.929 C161.948,23.481 162.396,23.929 162.948,23.929 C163.501,23.929 163.948,23.481 163.948,22.929 C163.948,22.377 163.5,21.93 162.948,21.929 Z M162.948,25.929 C161.291,25.929 159.948,24.586 159.948,22.929 C159.948,21.272 161.291,19.929 162.948,19.929 C164.605,19.929 165.948,21.272 165.948,22.929 C165.946,24.585 164.604,25.927 162.948,25.929 Z"/>
    <path fill="#FFD15D" d="M76,142 C78.209,142 80,143.791 80,146 C80,148.209 78.209,150 76,150 C73.791,150 72,148.209 72,146 C72,143.791 73.791,142 76,142"/>
    <g transform="translate(18 138)">
      <mask id="cc392-d" fill="#fff">
        <use xlink:href="#cc392-c"/>
      </mask>
      <path fill="#FFD15D" d="M58,14 C54.686,14 52,11.314 52,8 C52,4.686 54.686,2 58,2 C61.314,2 64,4.686 64,8 C63.996,11.312 61.312,13.996 58,14 Z M58,0 C53.582,0 50,3.582 50,8 C50,12.418 53.582,16 58,16 C62.418,16 66,12.418 66,8 C66,3.582 62.418,0 58,0 Z" mask="url(#cc392-d)"/>
      <polygon fill="#FFD15D" points="0 16.947 3 19.871 2.292 24 6 22.05 9.708 24 9 19.871 12 16.947 7.854 16.344 6 12.587 4.146 16.344" mask="url(#cc392-d)"/>
    </g>
  </g>
</svg>
