<svg xmlns="http://www.w3.org/2000/svg" width="192" height="171" viewBox="0 0 192 171">
  <g fill="none" fill-rule="evenodd">
    <polyline fill="#DEDEDD" points="184.006 95.594 156.006 83.594 168.233 113.204 173.067 103.483 181.178 111.594 184.006 108.766 175.774 100.534 184.006 95.594"/>
    <path fill="#5FE0ED" d="M50,147.587 L142,147.587 L142,141.587 L50,141.587 L50,147.587 Z M143.419,93.361 L48.581,93.361 C47.744,93.362 47.065,94.04 47.064,94.877 L47.064,150.587 L144.936,150.587 L144.936,94.877 C144.934,94.04 144.256,93.362 143.419,93.361 Z"/>
    <polygon fill="#FFD15D" points="69.645 61.265 144.936 61.265 144.936 16.587 69.645 16.587"/>
    <path fill="#DEDEDD" d="M48.581,61.265 L63.887,61.265 L63.887,16.587 L47.064,16.587 L47.064,59.749 C47.065,60.586 47.744,61.264 48.581,61.265"/>
    <path fill="#475059" d="M30.516,14.587 C28.575,14.589 27.002,16.162 27,18.103 L27,149.071 C27.002,151.012 28.575,152.585 30.516,152.587 L161.484,152.587 C163.425,152.585 164.998,151.012 165,149.071 L165,27.549 L152.038,14.587 L30.516,14.587 Z M161.484,154.587 L30.516,154.587 C27.471,154.583 25.003,152.116 25,149.071 L25,18.103 C25.003,15.058 27.471,12.59 30.516,12.587 L152.866,12.587 L167,26.721 L167,149.071 C166.996,152.116 164.529,154.583 161.484,154.587 Z"/>
    <path fill="#475059" d="M68.645,14.587 C68.093,14.588 67.646,15.035 67.645,15.587 L67.645,62.265 C67.646,62.817 68.093,63.265 68.645,63.265 L145.936,63.265 C146.488,63.265 146.935,62.817 146.936,62.265 L146.936,15.587 C146.935,15.035 146.488,14.588 145.936,14.587 L68.645,14.587 Z M145.936,65.265 L68.645,65.265 C66.989,65.263 65.647,63.921 65.645,62.265 L65.645,15.587 C65.647,13.931 66.989,12.589 68.645,12.587 L145.936,12.587 C147.592,12.589 148.934,13.931 148.936,15.587 L148.936,62.265 C148.934,63.921 147.592,65.263 145.936,65.265 Z"/>
    <path fill="#475059" d="M121.839 53.232L137.903 53.232 137.903 23.619 121.839 23.619 121.839 53.232zM119.839 55.232L139.903 55.232 139.903 21.619 119.839 21.619 119.839 55.232zM71.161 65.265L48.581 65.265C45.536 65.262 43.068 62.794 43.064 59.749L43.064 13.587 45.064 13.587 45.064 59.749C45.066 61.69 46.639 63.263 48.581 63.265L71.161 63.265 71.161 65.265M148.936 153.587L146.936 153.587 146.936 94.877C146.933 92.937 145.36 91.363 143.419 91.361L48.581 91.361C46.639 91.363 45.066 92.937 45.064 94.877L45.064 153.587 43.064 153.587 43.064 94.877C43.068 91.832 45.536 89.365 48.581 89.361L143.419 89.361C146.464 89.365 148.932 91.832 148.936 94.877L148.936 153.587"/>
    <polygon fill="#475059" points="53.097 100.907 138.903 100.907 138.903 98.907 53.097 98.907"/>
    <path fill="#475059" d="M33 146.588L39 146.588 39 134.588 33 134.588 33 146.588zM31 148.588L41 148.588 41 132.588 31 132.588 31 148.588zM153.072 146.588L159.072 146.588 159.072 134.588 153.072 134.588 153.072 146.588zM151.072 148.588L161.072 148.588 161.072 132.588 151.072 132.588 151.072 148.588z"/>
    <polygon fill="#475059" points="53.097 104.91 138.903 104.91 138.903 102.91 53.097 102.91"/>
    <polyline fill="#FFF" points="174 83.587 146 71.587 158.227 101.197 163.061 91.476 171.172 99.587 174 96.759 165.768 88.526 174 83.587"/>
    <path fill="#48515A" d="M147.86,73.472 L158.312,98.781 L162.784,89.786 L171.171,98.173 L172.586,96.758 L164.155,88.328 L171.809,83.736 L147.86,73.472 Z M158.143,103.612 L144.14,69.702 L176.191,83.438 L167.38,88.725 L175.414,96.758 L171.171,101.001 L163.337,93.167 L158.143,103.612 Z"/>
    <polygon fill="#48515A" points="6 61.759 8 61.759 8 57.759 6 57.759"/>
    <polygon fill="#48515A" points="6 71.759 8 71.759 8 67.759 6 67.759"/>
    <polygon fill="#48515A" points="10 65.759 14 65.759 14 63.759 10 63.759"/>
    <polygon fill="#48515A" points="0 65.759 4 65.759 4 63.759 0 63.759"/>
    <polygon fill="#48515A" points="184 153.587 186 153.587 186 149.587 184 149.587"/>
    <polygon fill="#48515A" points="184 163.587 186 163.587 186 159.587 184 159.587"/>
    <polygon fill="#48515A" points="188 157.587 192 157.587 192 155.587 188 155.587"/>
    <polygon fill="#48515A" points="178 157.587 182 157.587 182 155.587 178 155.587"/>
    <polygon fill="#48515A" points="172 5.587 174 5.587 174 1.587 172 1.587"/>
    <polygon fill="#48515A" points="172 15.587 174 15.587 174 11.587 172 11.587"/>
    <polygon fill="#48515A" points="176 9.587 180 9.587 180 7.587 176 7.587"/>
    <polygon fill="#48515A" points="166 9.587 170 9.587 170 7.587 166 7.587"/>
    <path fill="#5FE0ED" d="M182 126.587C183.657 126.587 185 127.93 185 129.587 185 131.244 183.657 132.587 182 132.587 180.343 132.587 179 131.244 179 129.587 179 127.93 180.343 126.587 182 126.587M15 92.587C16.105 92.587 17 93.482 17 94.587 17 95.692 16.105 96.587 15 96.587 13.895 96.587 13 95.692 13 94.587 13 93.482 13.895 92.587 15 92.587"/>
    <path fill="#FFD15D" d="M134,0.587 C134.552,0.587 135,1.035 135,1.587 C135,2.139 134.552,2.587 134,2.587 C133.448,2.587 133,2.139 133,1.587 C133,1.035 133.448,0.587 134,0.587"/>
    <path fill="#5FE0ED" d="M123,161.587 C124.657,161.587 126,162.93 126,164.587 C126,166.244 124.657,167.587 123,167.587 C121.343,167.587 120,166.244 120,164.587 C120,162.93 121.343,161.587 123,161.587"/>
    <path fill="#FFD15D" d="M14,143.587 C16.209,143.587 18,145.378 18,147.587 C18,149.796 16.209,151.587 14,151.587 C11.791,151.587 10,149.796 10,147.587 C10,145.378 11.791,143.587 14,143.587"/>
    <path fill="#FFD15D" d="M14 153.587C10.686 153.587 8 150.901 8 147.587 8 144.273 10.686 141.587 14 141.587 17.314 141.587 20 144.273 20 147.587 19.996 150.899 17.312 153.583 14 153.587zM14 139.587C9.582 139.587 6 143.169 6 147.587 6 152.005 9.582 155.587 14 155.587 18.418 155.587 22 152.005 22 147.587 22 143.169 18.418 139.587 14 139.587zM180 39.587C182.209 39.587 184 41.378 184 43.587 184 45.796 182.209 47.587 180 47.587 177.791 47.587 176 45.796 176 43.587 176 41.378 177.791 39.587 180 39.587"/>
    <path fill="#FFD15D" d="M180,49.587 C176.686,49.587 174,46.901 174,43.587 C174,40.273 176.686,37.587 180,37.587 C183.314,37.587 186,40.273 186,43.587 C185.996,46.899 183.312,49.583 180,49.587 Z M180,35.587 C175.582,35.587 172,39.169 172,43.587 C172,48.005 175.582,51.587 180,51.587 C184.418,51.587 188,48.005 188,43.587 C188,39.169 184.418,35.587 180,35.587 Z"/>
    <polygon fill="#FFD15D" points="32 73.946 35 76.87 34.292 81 38 79.05 41.708 81 41 76.87 44 73.946 39.854 73.344 38 69.587 36.146 73.344"/>
    <polygon fill="#FFD15D" points="150 163.946 153 166.871 152.292 171 156 169.05 159.708 171 159 166.871 162 163.946 157.854 163.344 156 159.587 154.146 163.344"/>
  </g>
</svg>
