<svg xmlns="http://www.w3.org/2000/svg" width="250" height="250" viewBox="0 0 250 250">
  <g fill="none" fill-rule="evenodd">
    <path fill="#FACD60" d="M149.685,127 L133.685,127 L133.685,116.999 L139.686,116.999 L139.683,112.999 L143.683,116.999 L149.685,116.999 L149.685,127 Z M162.967,102.426 L153.359,92.818 L139.576,106.601 L132.331,99.356 L110.597,121.091 L103.352,113.846 L87.619,129.578 L87.655,141.364 L162.988,141.114 L162.967,102.426 Z"/>
    <path fill="#DBDBD5" d="M157.663,57.001 C157.663,71.912 169.751,84.001 184.663,84.001 C199.575,84.001 211.663,71.912 211.663,57.001 C211.663,42.089 199.575,30.001 184.663,30.001 C169.751,30.001 157.663,42.089 157.663,57.001"/>
    <path fill="#434A4F" d="M207.111,58.001 L203.111,58.001 C202.559,58.001 202.111,57.553 202.111,57 C202.111,56.448 202.559,56 203.111,56 L207.111,56 C207.664,56 208.111,56.448 208.111,57 C208.111,57.553 207.664,58.001 207.111,58.001"/>
    <path fill="#434A4F" d="M207.111 58.001L203.111 58.001C202.559 58.001 202.111 57.553 202.111 57 202.111 56.448 202.559 56 203.111 56L207.111 56C207.664 56 208.111 56.448 208.111 57 208.111 57.553 207.664 58.001 207.111 58.001M196.044 77.67C195.698 77.67 195.362 77.491 195.177 77.17L193.177 73.706C192.901 73.228 193.064 72.616 193.543 72.34 194.021 72.063 194.632 72.227 194.909 72.706L196.909 76.17C197.185 76.648 197.021 77.26 196.543 77.536 196.386 77.627 196.213 77.67 196.044 77.67M200.567 48.5C200.221 48.5 199.885 48.321 199.7 48 199.424 47.522 199.587 46.911 200.066 46.634L203.53 44.634C204.007 44.357 204.619 44.522 204.896 45 205.172 45.479 205.008 46.09 204.53 46.367L201.066 48.367C200.909 48.457 200.736 48.5 200.567 48.5M204.403 69.036C204.233 69.036 204.062 68.993 203.904 68.902L200.439 66.902C199.961 66.626 199.797 66.014 200.073 65.536 200.349 65.058 200.96 64.894 201.439 65.169L204.904 67.169C205.382 67.446 205.546 68.057 205.27 68.536 205.084 68.856 204.749 69.036 204.403 69.036M193.735 41.513C193.565 41.513 193.394 41.47 193.236 41.379 192.758 41.102 192.594 40.491 192.87 40.013L194.87 36.548C195.146 36.07 195.755 35.905 196.236 36.182 196.714 36.458 196.878 37.07 196.602 37.548L194.602 41.013C194.417 41.333 194.081 41.513 193.735 41.513"/>
    <polyline fill="#434A4F" points="185.611 72 183.611 72 183.611 55.001 194.611 55.001 194.611 57 185.611 57 185.611 72"/>
    <path fill="#434A4F" d="M184.66 39C184.108 39 183.66 38.553 183.66 38L183.66 34.001C183.66 33.448 184.108 33 184.66 33 185.212 33 185.66 33.448 185.66 34.001L185.66 38C185.66 38.553 185.212 39 184.66 39M184.661 81C184.109 81 183.661 80.553 183.661 80.001L183.661 76.001C183.661 75.448 184.109 75 184.661 75 185.213 75 185.661 75.448 185.661 76.001L185.661 80.001C185.661 80.553 185.213 81 184.661 81"/>
    <path fill="#434A4F" d="M184.66 39C184.108 39 183.66 38.553 183.66 38L183.66 34.001C183.66 33.448 184.108 33 184.66 33 185.212 33 185.66 33.448 185.66 34.001L185.66 38C185.66 38.553 185.212 39 184.66 39M184.661 81C184.109 81 183.661 80.553 183.661 80.001L183.661 76.001C183.661 75.448 184.109 75 184.661 75 185.213 75 185.661 75.448 185.661 76.001L185.661 80.001C185.661 80.553 185.213 81 184.661 81M173.227 77.67C173.058 77.67 172.885 77.627 172.728 77.536 172.25 77.26 172.086 76.648 172.362 76.17L174.362 72.706C174.638 72.227 175.249 72.063 175.728 72.34 176.207 72.616 176.37 73.228 176.094 73.706L174.094 77.17C173.909 77.491 173.573 77.67 173.227 77.67M168.704 48.5C168.535 48.5 168.362 48.457 168.205 48.367L164.741 46.367C164.263 46.09 164.099 45.479 164.375 45 164.651 44.522 165.262 44.357 165.741 44.634L169.205 46.634C169.684 46.911 169.847 47.522 169.571 48 169.386 48.321 169.05 48.5 168.704 48.5M175.536 41.513C175.19 41.513 174.854 41.333 174.669 41.013L172.669 37.548C172.393 37.07 172.557 36.458 173.035 36.182 173.514 35.905 174.125 36.07 174.401 36.548L176.401 40.013C176.677 40.491 176.513 41.102 176.035 41.379 175.877 41.47 175.706 41.513 175.536 41.513"/>
    <polygon fill="#DBDBD5" points="112.635 186.022 138.647 186.022 138.647 175.018 112.635 175.018"/>
    <path fill="#DBDBD5" d="M113.635,185.022 L137.647,185.022 L137.647,176.018 L113.635,176.018 L113.635,185.022 Z M111.635,187.022 L139.647,187.022 L139.647,174.018 L111.635,174.018 L111.635,187.022 Z"/>
    <polygon fill="#DBDBD5" points="147.656 155.004 153.656 155.004 153.656 151.004 147.656 151.004"/>
    <path fill="#DBDBD5" d="M148.656,154.003 L152.656,154.003 L152.656,152.003 L148.656,152.003 L148.656,154.003 Z M146.656,156.003 L154.656,156.003 L154.656,150.003 L146.656,150.003 L146.656,156.003 Z"/>
    <polygon fill="#DBDBD5" points="97.626 155.004 103.626 155.004 103.626 151.004 97.626 151.004"/>
    <path fill="#DBDBD5" d="M98.626,154.003 L102.626,154.003 L102.626,152.003 L98.626,152.003 L98.626,154.003 Z M96.626,156.003 L104.626,156.003 L104.626,150.003 L96.626,150.003 L96.626,156.003 Z"/>
    <polygon fill="#DBDBD5" points="162.665 163.008 168.665 163.008 168.665 159.008 162.665 159.008"/>
    <path fill="#DBDBD5" d="M163.665,162.008 L167.665,162.008 L167.665,160.008 L163.665,160.008 L163.665,162.008 Z M161.665,164.008 L169.665,164.008 L169.665,158.008 L161.665,158.008 L161.665,164.008 Z"/>
    <polygon fill="#DBDBD5" points="152.659 163.008 158.659 163.008 158.659 159.008 152.659 159.008"/>
    <path fill="#DBDBD5" d="M153.659,162.008 L157.659,162.008 L157.659,160.008 L153.659,160.008 L153.659,162.008 Z M151.659,164.008 L159.659,164.008 L159.659,158.008 L151.659,158.008 L151.659,164.008 Z"/>
    <polygon fill="#DBDBD5" points="142.653 163.008 148.653 163.008 148.653 159.008 142.653 159.008"/>
    <path fill="#DBDBD5" d="M143.653,162.008 L147.653,162.008 L147.653,160.008 L143.653,160.008 L143.653,162.008 Z M141.653,164.008 L149.653,164.008 L149.653,158.008 L141.653,158.008 L141.653,164.008 Z"/>
    <polygon fill="#DBDBD5" points="132.647 163.008 138.647 163.008 138.647 159.008 132.647 159.008"/>
    <path fill="#DBDBD5" d="M133.647,162.008 L137.647,162.008 L137.647,160.008 L133.647,160.008 L133.647,162.008 Z M131.647,164.008 L139.647,164.008 L139.647,158.008 L131.647,158.008 L131.647,164.008 Z"/>
    <polygon fill="#DBDBD5" points="112.635 163.008 118.635 163.008 118.635 159.008 112.635 159.008"/>
    <path fill="#DBDBD5" d="M113.635,162.008 L117.635,162.008 L117.635,160.008 L113.635,160.008 L113.635,162.008 Z M111.635,164.008 L119.635,164.008 L119.635,158.008 L111.635,158.008 L111.635,164.008 Z"/>
    <polygon fill="#DBDBD5" points="102.629 163.008 108.629 163.008 108.629 159.008 102.629 159.008"/>
    <path fill="#DBDBD5" d="M103.629,162.008 L107.629,162.008 L107.629,160.008 L103.629,160.008 L103.629,162.008 Z M101.629,164.008 L109.629,164.008 L109.629,158.008 L101.629,158.008 L101.629,164.008 Z"/>
    <polygon fill="#DBDBD5" points="92.623 163.008 98.623 163.008 98.623 159.008 92.623 159.008"/>
    <path fill="#DBDBD5" d="M93.623,162.008 L97.623,162.008 L97.623,160.008 L93.623,160.008 L93.623,162.008 Z M91.623,164.008 L99.623,164.008 L99.623,158.008 L91.623,158.008 L91.623,164.008 Z"/>
    <polygon fill="#DBDBD5" points="82.617 163.008 88.617 163.008 88.617 159.008 82.617 159.008"/>
    <path fill="#DBDBD5" d="M83.617,162.008 L87.617,162.008 L87.617,160.008 L83.617,160.008 L83.617,162.008 Z M81.617,164.008 L89.617,164.008 L89.617,158.008 L81.617,158.008 L81.617,164.008 Z"/>
    <polygon fill="#DBDBD5" points="157.662 171.013 163.662 171.013 163.662 167.013 157.662 167.013"/>
    <path fill="#DBDBD5" d="M158.662,170.013 L162.662,170.013 L162.662,168.013 L158.662,168.013 L158.662,170.013 Z M156.662,172.013 L164.662,172.013 L164.662,166.013 L156.662,166.013 L156.662,172.013 Z"/>
    <polygon fill="#DBDBD5" points="147.656 171.013 153.656 171.013 153.656 167.013 147.656 167.013"/>
    <path fill="#DBDBD5" d="M148.656,170.013 L152.656,170.013 L152.656,168.013 L148.656,168.013 L148.656,170.013 Z M146.656,172.013 L154.656,172.013 L154.656,166.013 L146.656,166.013 L146.656,172.013 Z"/>
    <polygon fill="#DBDBD5" points="137.65 171.013 143.65 171.013 143.65 167.013 137.65 167.013"/>
    <path fill="#DBDBD5" d="M138.65,170.013 L142.65,170.013 L142.65,168.013 L138.65,168.013 L138.65,170.013 Z M136.65,172.013 L144.65,172.013 L144.65,166.013 L136.65,166.013 L136.65,172.013 Z"/>
    <polygon fill="#DBDBD5" points="107.632 171.013 113.632 171.013 113.632 167.013 107.632 167.013"/>
    <path fill="#DBDBD5" d="M108.632,170.013 L112.632,170.013 L112.632,168.013 L108.632,168.013 L108.632,170.013 Z M106.632,172.013 L114.632,172.013 L114.632,166.013 L106.632,166.013 L106.632,172.013 Z"/>
    <polygon fill="#DBDBD5" points="97.626 171.013 103.626 171.013 103.626 167.013 97.626 167.013"/>
    <path fill="#DBDBD5" d="M98.626,170.013 L102.626,170.013 L102.626,168.013 L98.626,168.013 L98.626,170.013 Z M96.626,172.013 L104.626,172.013 L104.626,166.013 L96.626,166.013 L96.626,172.013 Z"/>
    <polygon fill="#DBDBD5" points="87.62 171.013 93.62 171.013 93.62 167.013 87.62 167.013"/>
    <path fill="#DBDBD5" d="M88.62,170.013 L92.62,170.013 L92.62,168.013 L88.62,168.013 L88.62,170.013 Z M86.62,172.013 L94.62,172.013 L94.62,166.013 L86.62,166.013 L86.62,172.013 Z"/>
    <polygon fill="#75C7D0" points="138.487 221 168.962 221 168.962 206.425 138.487 206.425"/>
    <polygon fill="#75C7D0" points="82.755 221 113.229 221 113.229 206.425 82.755 206.425"/>
    <path fill="#434A4F" d="M77.478,101.946 L75.478,101.946 L75.478,84.003 C75.478,82.349 76.824,81.003 78.478,81.003 L87.154,81.003 L87.154,83.003 L78.478,83.003 C77.927,83.003 77.478,83.452 77.478,84.003 L77.478,101.946"/>
    <polygon fill="#434A4F" points="75.478 115.003 77.478 115.003 77.478 110.447 75.478 110.447"/>
    <path fill="#434A4F" d="M175.289 101.697L173.289 101.697 173.289 84.003C173.289 83.452 172.84 83.003 172.289 83.003L163.155 83.003 163.155 81.003 172.289 81.003C173.943 81.003 175.289 82.349 175.289 84.003L175.289 101.697M174.289 147.822L76.478 147.822C75.926 147.822 75.478 147.374 75.478 146.822L75.478 126.003 77.478 126.003 77.478 145.822 173.289 145.822 173.289 110.031 175.289 110.031 175.289 146.822C175.289 147.374 174.841 147.822 174.289 147.822"/>
    <path fill="#434A4F" d="M177.911,196.539 L169.637,196.539 L169.637,194.539 L177.911,194.539 C179.357,194.539 180.533,193.362 180.533,191.916 L180.533,186.568 L173.455,147.822 L77.312,147.822 L70.233,186.568 L70.233,191.916 C70.233,193.362 71.409,194.539 72.855,194.539 L81.637,194.539 L81.637,196.539 L72.855,196.539 C70.307,196.539 68.233,194.465 68.233,191.916 L68.249,186.297 L75.644,145.822 L175.123,145.822 L182.533,186.477 L182.533,191.916 C182.533,194.465 180.46,196.539 177.911,196.539"/>
    <path fill="#434A4F" d="M165.548,201.898 C165.548,201.898 165.548,201.898 165.548,201.899 C165.548,201.898 165.548,201.898 165.548,201.898 Z M164.581,207.425 C164.028,207.425 163.581,206.978 163.581,206.425 L163.581,202.255 C163.553,202.104 163.524,201.828 163.647,201.507 C166.129,195.085 167.388,188.569 167.388,182.139 L167.388,167.246 C167.388,165.836 166.222,164.542 164.893,164.477 C164.159,164.435 163.471,164.696 162.948,165.195 C162.539,165.585 162.271,166.082 162.167,166.628 L162.12,178.007 C162.118,178.558 161.67,179.003 161.12,179.003 C161.12,179.003 161.119,179.003 161.118,179.003 C160.566,179.002 160.12,178.554 160.12,178.003 L160.12,167.14 C160.12,166.916 160.136,166.692 160.168,166.472 L160.181,163.475 C160.181,162.037 159.11,160.193 157.78,160.066 C157.016,159.991 156.285,160.234 155.722,160.746 C155.166,161.25 154.848,161.97 154.848,162.72 L154.848,178.003 C154.848,178.555 154.4,179.003 153.848,179.003 C153.295,179.003 152.848,178.555 152.848,178.003 L152.848,159.496 C152.848,158.115 151.712,156.807 150.417,156.697 C149.63,156.628 148.838,156.903 148.247,157.446 C147.689,157.959 147.381,158.637 147.381,159.354 L147.381,162.4 C147.381,162.409 147.381,162.419 147.381,162.428 L147.381,178.003 C147.381,178.555 146.933,179.003 146.381,179.003 C145.829,179.003 145.381,178.555 145.381,178.003 L145.381,162.406 C145.371,160.992 144.379,159.772 143.066,159.566 C142.268,159.441 141.497,159.654 140.895,160.169 C140.3,160.677 139.959,161.417 139.959,162.198 L139.959,186.114 C139.959,186.666 139.511,187.114 138.959,187.114 C138.407,187.114 137.959,186.666 137.959,186.114 L137.959,179.972 C137.959,178.513 136.772,177.326 135.313,177.326 C134.604,177.326 133.938,177.603 133.437,178.105 C132.937,178.608 132.663,179.275 132.667,179.985 L132.689,184.874 C132.621,189.144 133.57,191.776 136.077,194.282 L140.952,199.987 C141.573,200.603 142.081,201.829 142.081,202.782 L142.081,206.425 C142.081,206.978 141.633,207.425 141.081,207.425 C140.528,207.425 140.081,206.978 140.081,206.425 L140.081,202.782 C140.081,202.356 139.786,201.644 139.485,201.343 L134.609,195.639 C131.763,192.797 130.612,189.658 130.689,184.862 L130.667,179.994 C130.661,178.749 131.142,177.577 132.02,176.695 C132.898,175.812 134.068,175.326 135.313,175.326 C136.295,175.326 137.208,175.633 137.959,176.155 L137.959,162.198 C137.959,160.831 138.556,159.537 139.595,158.649 C140.634,157.762 142.012,157.376 143.377,157.59 C144.153,157.712 144.864,158.034 145.465,158.499 C145.654,157.546 146.152,156.656 146.894,155.974 C147.897,155.053 149.245,154.591 150.587,154.704 C152.709,154.885 154.529,156.752 154.81,158.917 C155.719,158.271 156.843,157.968 157.97,158.075 C160.374,158.305 162.073,160.942 162.176,163.258 C162.998,162.703 163.969,162.433 164.991,162.479 C167.375,162.597 169.388,164.779 169.388,167.246 L169.388,182.139 C169.388,188.765 168.104,195.47 165.573,202.072 C165.578,202.112 165.581,202.149 165.581,202.174 L165.581,206.425 C165.581,206.978 165.133,207.425 164.581,207.425 Z"/>
    <polygon fill="#434A4F" points="138.385 207.425 168.859 207.425 168.859 205.425 138.385 205.425"/>
    <path fill="#434A4F" d="M161.12 214.67C161.06 214.67 160.99 214.66 160.92 214.65 160.86 214.64 160.8 214.62 160.74 214.59 160.68 214.57 160.62 214.54 160.56 214.5 160.51 214.47 160.46 214.42 160.41 214.38 160.23 214.19 160.12 213.93 160.12 213.67 160.12 213.41 160.23 213.15 160.41 212.96 160.78 212.59 161.46 212.59 161.83 212.96 162.01 213.15 162.12 213.41 162.12 213.67 162.12 213.8 162.09 213.93 162.04 214.05 161.99 214.18 161.92 214.29 161.83 214.38 161.64 214.56 161.38 214.67 161.12 214.67M110.534 207.425C109.981 207.425 109.534 206.978 109.534 206.425L109.534 202.782C109.534 201.829 110.042 200.603 110.715 199.929L115.484 194.34C118.044 191.776 118.994 189.144 118.925 184.894L118.947 179.985C118.951 179.275 118.677 178.608 118.176 178.105 117.676 177.603 117.01 177.326 116.301 177.326 114.842 177.326 113.655 178.513 113.655 179.972L113.655 186.115C113.654 186.667 113.207 187.114 112.655 187.114L112.654 187.114C112.102 187.113 111.655 186.666 111.655 186.114L111.655 162.198C111.655 161.417 111.314 160.678 110.72 160.169 110.117 159.655 109.344 159.44 108.548 159.566 107.228 159.773 106.233 161.004 106.233 162.428L106.233 178.003C106.233 178.555 105.785 179.003 105.233 179.003 104.681 179.003 104.233 178.555 104.233 178.003L104.233 159.354C104.233 158.637 103.925 157.959 103.367 157.447 102.776 156.904 101.99 156.629 101.196 156.697 99.902 156.807 98.766 158.115 98.766 159.496L98.766 162.66C98.767 162.68 98.767 162.7 98.767 162.72L98.767 178.003C98.767 178.555 98.319 179.003 97.767 179.003 97.214 179.003 96.767 178.555 96.767 178.003L96.766 162.674C96.753 161.941 96.436 161.24 95.892 160.746 95.33 160.235 94.596 159.991 93.835 160.066 92.504 160.193 91.434 162.037 91.434 163.479L91.446 166.475C91.478 166.694 91.494 166.917 91.494 167.14L91.494 178.003C91.494 178.554 91.048 179.002 90.496 179.003 90.496 179.003 90.495 179.003 90.494 179.003 89.943 179.003 89.497 178.558 89.494 178.007L89.447 166.63C89.344 166.083 89.076 165.585 88.666 165.195 88.142 164.696 87.457 164.436 86.721 164.477 85.392 164.542 84.226 165.836 84.226 167.246L84.227 182.139C84.227 188.57 85.485 195.087 87.966 201.507 88.092 201.832 88.061 202.11 88.034 202.256L88.034 206.425C88.034 206.978 87.586 207.425 87.034 207.425 86.481 207.425 86.034 206.978 86.034 206.425L86.034 202.174C86.034 202.146 86.036 202.109 86.04 202.07 83.51 195.471 82.227 188.765 82.227 182.139L82.226 167.246C82.226 164.779 84.239 162.597 86.623 162.479 87.648 162.438 88.618 162.703 89.438 163.258 89.544 160.939 91.241 158.304 93.645 158.075 94.771 157.965 95.895 158.271 96.804 158.917 97.085 156.752 98.905 154.885 101.027 154.704 102.38 154.591 103.717 155.054 104.72 155.974 105.462 156.656 105.96 157.546 106.149 158.499 106.75 158.034 107.461 157.712 108.237 157.59 109.602 157.376 110.98 157.761 112.019 158.649 113.059 159.538 113.655 160.831 113.655 162.198L113.655 176.155C114.406 175.633 115.318 175.326 116.301 175.326 117.546 175.326 118.716 175.812 119.594 176.694 120.472 177.577 120.953 178.749 120.947 179.994L120.925 184.882C121.002 189.658 119.851 192.797 116.951 195.696L112.183 201.286C111.829 201.644 111.534 202.356 111.534 202.782L111.534 206.425C111.534 206.978 111.086 207.425 110.534 207.425"/>
    <polygon fill="#434A4F" points="82.754 207.425 113.229 207.425 113.229 205.425 82.754 205.425"/>
    <path fill="#434A4F" d="M90.49,214.67 C90.43,214.67 90.36,214.66 90.3,214.65 C90.24,214.64 90.17,214.62 90.11,214.59 C90.05,214.57 89.99,214.54 89.94,214.5 C89.88,214.47 89.83,214.42 89.79,214.38 C89.6,214.19 89.49,213.93 89.49,213.67 C89.49,213.41 89.6,213.15 89.79,212.96 C90.16,212.59 90.83,212.59 91.2,212.96 C91.39,213.15 91.49,213.41 91.49,213.67 C91.49,213.8 91.47,213.93 91.42,214.05 C91.37,214.18 91.29,214.29 91.2,214.38 C91.01,214.56 90.76,214.67 90.49,214.67"/>
    <polyline fill="#434A4F" points="169.8 142.365 80.426 142.365 80.426 129.003 82.426 129.003 82.426 140.365 167.812 140.365 167.991 110.358 169.991 110.37 169.8 142.365"/>
    <polyline fill="#434A4F" points="170.041 101.864 168.041 101.864 168.041 88.028 162.822 88.028 162.822 86.028 170.041 86.028 170.041 101.864"/>
    <polyline fill="#434A4F" points="82.426 101.614 80.426 101.614 80.426 86.028 87.321 86.028 87.321 88.028 82.426 88.028 82.426 101.614"/>
    <polygon fill="#434A4F" points="80.426 120.004 82.426 120.004 82.426 110.281 80.426 110.281"/>
    <path fill="#434A4F" d="M87.43 142.365C86.877 142.365 86.43 141.917 86.43 141.365L86.43 123C86.43 122.448 86.877 122 87.43 122 87.982 122 88.43 122.448 88.43 123L88.43 141.365C88.43 141.917 87.982 142.365 87.43 142.365M162.802 142.365C162.801 142.365 162.8 142.365 162.799 142.365 162.247 142.364 161.801 141.915 161.802 141.362L162.036 64.385 149.187 50.005 98.503 50.005C97.951 50.005 97.503 49.557 97.503 49.005 97.503 48.453 97.951 48.005 98.503 48.005L150.082 48.005 164.038 63.624 163.802 141.368C163.801 141.919 163.353 142.365 162.802 142.365M87.43 114C86.877 114 86.43 113.552 86.43 113L86.43 68.501C86.43 67.949 86.877 67.501 87.43 67.501 87.982 67.501 88.43 67.949 88.43 68.501L88.43 113C88.43 113.552 87.982 114 87.43 114"/>
    <polyline fill="#434A4F" points="162.802 65.004 148.634 65.004 148.634 49.005 150.634 49.005 150.634 63.004 162.802 63.004 162.802 65.004"/>
    <path fill="#434A4F" d="M153.967 81.504L157.694 85.23 157.694 77.777 150.24 77.777 153.967 81.504zM62.875 130.541L61.46 129.127 74.372 116.215 81.617 123.46 103.352 101.726 110.597 108.971 132.332 87.236 139.576 94.481 151.846 82.211 145.412 75.777 159.694 75.777 159.694 90.059 153.26 83.625 139.576 97.309 132.332 90.064 110.597 111.799 103.352 104.554 81.617 126.289 74.372 119.043 62.875 130.541zM33.92 159.08C33.79 159.08 33.66 159.06 33.53 159.01 33.41 158.96 33.3 158.88 33.21 158.79 33.16 158.74 33.12 158.69 33.09 158.64 33.05 158.58 33.02 158.53 32.99 158.47 32.97 158.41 32.95 158.34 32.94 158.28 32.92 158.21 32.92 158.15 32.92 158.08 32.92 157.82 33.02 157.56 33.21 157.38 33.3 157.28 33.41 157.21 33.53 157.16 33.9 157.01 34.35 157.1 34.63 157.38 34.81 157.56 34.92 157.82 34.92 158.08 34.92 158.15 34.91 158.21 34.9 158.28 34.88 158.34 34.87 158.41 34.84 158.47 34.82 158.53 34.79 158.58 34.75 158.64 34.71 158.69 34.67 158.74 34.63 158.79 34.44 158.98 34.18 159.08 33.92 159.08M56.02 135.98C55.63 135.59 55.63 134.95 56.02 134.56 56.42 134.17 57.05 134.17 57.44 134.56 57.83 134.95 57.83 135.59 57.44 135.98 57.24 136.17 56.99 136.27 56.73 136.27 56.48 136.27 56.22 136.17 56.02 135.98zM53.17 138.83C52.78 138.44 52.78 137.8 53.17 137.41 53.56 137.02 54.2 137.02 54.59 137.41 54.98 137.8 54.98 138.44 54.59 138.83 54.39 139.02 54.14 139.12 53.88 139.12 53.62 139.12 53.37 139.02 53.17 138.83zM50.32 141.68C49.93 141.29 49.93 140.66 50.32 140.27 50.71 139.87 51.34 139.87 51.74 140.27 52.12 140.66 52.12 141.29 51.74 141.68 51.54 141.87 51.28 141.97 51.03 141.97 50.77 141.97 50.52 141.87 50.32 141.68zM47.47 144.53C47.08 144.14 47.08 143.51 47.47 143.12 47.86 142.73 48.49 142.73 48.88 143.12 49.27 143.51 49.27 144.14 48.88 144.53 48.69 144.73 48.43 144.82 48.18 144.82 47.92 144.82 47.67 144.73 47.47 144.53zM44.62 147.38C44.23 146.99 44.23 146.36 44.62 145.97 45.01 145.58 45.64 145.58 46.03 145.97 46.42 146.36 46.42 146.99 46.03 147.38 45.84 147.58 45.58 147.68 45.32 147.68 45.07 147.68 44.81 147.58 44.62 147.38zM41.77 150.24C41.38 149.84 41.38 149.21 41.77 148.82 42.16 148.43 42.79 148.43 43.18 148.82 43.57 149.21 43.57 149.84 43.18 150.24 42.99 150.43 42.73 150.53 42.47 150.53 42.22 150.53 41.96 150.43 41.77 150.24zM38.91 153.09C38.52 152.7 38.52 152.06 38.91 151.67 39.3 151.28 39.94 151.28 40.33 151.67 40.72 152.06 40.72 152.7 40.33 153.09 40.13 153.28 39.88 153.38 39.62 153.38 39.37 153.38 39.11 153.28 38.91 153.09zM36.06 155.94C35.67 155.55 35.67 154.92 36.06 154.53 36.45 154.13 37.09 154.13 37.48 154.53 37.87 154.92 37.87 155.55 37.48 155.94 37.28 156.13 37.03 156.23 36.77 156.23 36.51 156.23 36.26 156.13 36.06 155.94zM59.58 133.42C59.45 133.42 59.32 133.39 59.2 133.34 59.08 133.29 58.97 133.22 58.88 133.12 58.69 132.94 58.58 132.68 58.58 132.42 58.58 132.15 58.69 131.89 58.88 131.71 59.25 131.34 59.92 131.34 60.29 131.71 60.48 131.9 60.58 132.15 60.58 132.42 60.58 132.48 60.58 132.55 60.57 132.61 60.55 132.68 60.53 132.74 60.51 132.8 60.48 132.86 60.45 132.92 60.42 132.97 60.38 133.03 60.34 133.08 60.29 133.12 60.2 133.22 60.09 133.29 59.97 133.34 59.84 133.39 59.72 133.42 59.58 133.42"/>
    <polygon fill="#DBDBD5" points="87.62 155.004 93.62 155.004 93.62 151.004 87.62 151.004"/>
    <path fill="#DBDBD5" d="M88.62,154.003 L92.62,154.003 L92.62,152.003 L88.62,152.003 L88.62,154.003 Z M86.62,156.003 L94.62,156.003 L94.62,150.003 L86.62,150.003 L86.62,156.003 Z"/>
    <polygon fill="#DBDBD5" points="107.632 155.004 113.632 155.004 113.632 151.004 107.632 151.004"/>
    <path fill="#DBDBD5" d="M108.632,154.003 L112.632,154.003 L112.632,152.003 L108.632,152.003 L108.632,154.003 Z M106.632,156.003 L114.632,156.003 L114.632,150.003 L106.632,150.003 L106.632,156.003 Z"/>
    <polygon fill="#DBDBD5" points="117.638 155.004 123.638 155.004 123.638 151.004 117.638 151.004"/>
    <path fill="#DBDBD5" d="M118.638,154.003 L122.638,154.003 L122.638,152.003 L118.638,152.003 L118.638,154.003 Z M116.638,156.003 L124.638,156.003 L124.638,150.003 L116.638,150.003 L116.638,156.003 Z"/>
    <polygon fill="#DBDBD5" points="127.644 155.004 133.644 155.004 133.644 151.004 127.644 151.004"/>
    <path fill="#DBDBD5" d="M128.644,154.003 L132.644,154.003 L132.644,152.003 L128.644,152.003 L128.644,154.003 Z M126.644,156.003 L134.644,156.003 L134.644,150.003 L126.644,150.003 L126.644,156.003 Z"/>
    <polygon fill="#DBDBD5" points="137.65 155.004 143.65 155.004 143.65 151.004 137.65 151.004"/>
    <path fill="#DBDBD5" d="M138.65,154.003 L142.65,154.003 L142.65,152.003 L138.65,152.003 L138.65,154.003 Z M136.65,156.003 L144.65,156.003 L144.65,150.003 L136.65,150.003 L136.65,156.003 Z"/>
    <polygon fill="#DBDBD5" points="157.662 155.004 163.662 155.004 163.662 151.004 157.662 151.004"/>
    <path fill="#DBDBD5" d="M158.662,154.003 L162.662,154.003 L162.662,152.003 L158.662,152.003 L158.662,154.003 Z M156.662,156.003 L164.662,156.003 L164.662,150.003 L156.662,150.003 L156.662,156.003 Z"/>
    <polygon fill="#DBDBD5" points="122.641 163.008 128.641 163.008 128.641 159.008 122.641 159.008"/>
    <path fill="#DBDBD5" d="M123.641,162.008 L127.641,162.008 L127.641,160.008 L123.641,160.008 L123.641,162.008 Z M121.641,164.008 L129.641,164.008 L129.641,158.008 L121.641,158.008 L121.641,164.008 Z"/>
    <polygon fill="#DBDBD5" points="117.638 171.013 123.638 171.013 123.638 167.013 117.638 167.013"/>
    <path fill="#DBDBD5" d="M118.638,170.013 L122.638,170.013 L122.638,168.013 L118.638,168.013 L118.638,170.013 Z M116.638,172.013 L124.638,172.013 L124.638,166.013 L116.638,166.013 L116.638,172.013 Z"/>
    <polygon fill="#DBDBD5" points="127.644 171.013 133.644 171.013 133.644 167.013 127.644 167.013"/>
    <path fill="#DBDBD5" d="M128.644,170.013 L132.644,170.013 L132.644,168.013 L128.644,168.013 L128.644,170.013 Z M126.644,172.013 L134.644,172.013 L134.644,166.013 L126.644,166.013 L126.644,172.013 Z"/>
    <polygon fill="#42494E" points="92.636 59.005 107.637 59.005 107.637 57.005 92.636 57.005"/>
    <polygon fill="#42494E" points="92.636 63.005 125.637 63.005 125.637 61.005 92.636 61.005"/>
    <path fill="#42494E" d="M93.64,71 C93.51,71 93.38,70.98 93.25,70.93 C93.13,70.88 93.02,70.8 92.93,70.71 C92.88,70.66 92.84,70.61 92.8,70.56 C92.77,70.5 92.74,70.45 92.71,70.39 C92.69,70.33 92.67,70.26 92.66,70.2 C92.64,70.13 92.64,70.07 92.64,70 C92.64,69.94 92.64,69.87 92.66,69.81 C92.67,69.74 92.69,69.68 92.71,69.62 C92.74,69.56 92.77,69.5 92.8,69.45 C92.84,69.39 92.88,69.34 92.93,69.3 C93.21,69.02 93.65,68.93 94.02,69.08 C94.14,69.13 94.25,69.2 94.34,69.3 C94.39,69.34 94.43,69.39 94.47,69.45 C94.5,69.5 94.54,69.56 94.56,69.62 C94.59,69.68 94.6,69.74 94.62,69.81 C94.63,69.87 94.64,69.94 94.64,70 C94.64,70.07 94.63,70.13 94.62,70.2 C94.6,70.26 94.59,70.33 94.56,70.39 C94.54,70.45 94.5,70.5 94.47,70.56 C94.43,70.61 94.39,70.66 94.34,70.71 C94.25,70.8 94.14,70.88 94.02,70.93 C93.9,70.98 93.77,71 93.64,71"/>
    <polygon fill="#42494E" points="97.637 71.003 109.637 71.003 109.637 69.003 97.637 69.003"/>
    <path fill="#42494E" d="M93.64,75 C93.38,75 93.12,74.9 92.93,74.71 C92.84,74.62 92.76,74.51 92.71,74.39 C92.66,74.26 92.64,74.13 92.64,74 C92.64,73.74 92.74,73.48 92.93,73.3 C93.21,73.02 93.65,72.93 94.02,73.08 C94.14,73.13 94.25,73.2 94.34,73.3 C94.53,73.48 94.64,73.74 94.64,74 C94.64,74.26 94.53,74.52 94.34,74.71 C94.16,74.9 93.9,75 93.64,75"/>
    <polygon fill="#42494E" points="97.637 75.003 113.637 75.003 113.637 73.003 97.637 73.003"/>
    <path fill="#42494E" d="M93.64,79 C93.37,79 93.12,78.9 92.93,78.71 C92.74,78.52 92.64,78.27 92.64,78 C92.64,77.87 92.66,77.74 92.71,77.62 C92.76,77.5 92.84,77.39 92.93,77.29 C93.21,77.02 93.65,76.93 94.02,77.08 C94.14,77.13 94.25,77.2 94.34,77.29 C94.53,77.48 94.64,77.74 94.64,78 C94.64,78.26 94.53,78.52 94.34,78.71 C94.25,78.8 94.14,78.88 94.02,78.93 C93.9,78.98 93.77,79 93.64,79"/>
    <polygon fill="#42494E" points="97.637 79.003 109.637 79.003 109.637 77.003 97.637 77.003"/>
    <path fill="#42494E" d="M93.64,83 C93.37,83 93.12,82.9 92.93,82.71 C92.74,82.52 92.64,82.27 92.64,82 C92.64,81.74 92.74,81.48 92.93,81.3 C93.21,81.02 93.65,80.93 94.02,81.08 C94.14,81.13 94.25,81.2 94.34,81.3 C94.53,81.48 94.64,81.74 94.64,82 C94.64,82.27 94.53,82.52 94.34,82.71 C94.25,82.8 94.14,82.87 94.02,82.93 C93.9,82.98 93.77,83 93.64,83"/>
    <polygon fill="#42494E" points="97.637 83.003 111.637 83.003 111.637 81.003 97.637 81.003"/>
    <polygon fill="#434A4F" points="120.637 197.003 130.636 197.003 130.636 195.003 120.637 195.003"/>
    <polygon fill="#434A4F" points="73.637 189.003 79.637 189.003 79.637 187.003 73.637 187.003"/>
    <polygon fill="#434A4F" points="171.637 189.003 177.637 189.003 177.637 187.003 171.637 187.003"/>
    <polygon fill="#434A4F" points="123.637 191.003 127.637 191.003 127.637 189.003 123.637 189.003"/>
    <polygon fill="#FACD60" points="182.666 145.286 220.169 145.286 220.169 121.999 182.666 121.999"/>
    <path fill="#FACD60" d="M183.666,144.286 L219.169,144.286 L219.169,123 L183.666,123 L183.666,144.286 Z M181.666,146.286 L221.169,146.286 L221.169,121 L181.666,121 L181.666,146.286 Z"/>
    <path fill="#434A4F" d="M201.417 134.877C201.231 134.877 201.045 134.825 200.881 134.721L184.297 124.177C183.831 123.881 183.693 123.263 183.99 122.797 184.286 122.331 184.904 122.193 185.37 122.49L201.415 132.691 216.793 122.825C217.257 122.528 217.877 122.661 218.175 123.126 218.474 123.591 218.338 124.21 217.874 124.508L201.958 134.719C201.793 134.825 201.605 134.877 201.417 134.877M217.296 143.261C217.01 143.261 216.726 143.139 216.528 142.901L208.967 133.83C208.613 133.406 208.67 132.775 209.095 132.422 209.519 132.068 210.148 132.125 210.503 132.55L218.064 141.621C218.417 142.045 218.36 142.676 217.936 143.029 217.749 143.185 217.522 143.261 217.296 143.261M185.539 143.261C185.313 143.261 185.086 143.185 184.899 143.029 184.475 142.676 184.418 142.045 184.771 141.621L192.333 132.55C192.687 132.125 193.316 132.069 193.741 132.422 194.165 132.775 194.222 133.406 193.869 133.83L186.308 142.901C186.11 143.139 185.826 143.261 185.539 143.261"/>
    <polygon fill="#434A4F" points="200.667 161 202.667 161 202.667 149 200.667 149"/>
    <path fill="#434A4F" d="M201.67,165 C201.54,165 201.41,164.97 201.28,164.92 C201.16,164.87 201.05,164.8 200.96,164.71 C200.77,164.52 200.67,164.26 200.67,164 C200.67,163.93 200.67,163.87 200.69,163.8 C200.7,163.74 200.72,163.68 200.74,163.62 C200.77,163.56 200.8,163.5 200.83,163.44 C200.87,163.39 200.91,163.34 200.96,163.29 C201.05,163.2 201.16,163.13 201.28,163.08 C201.65,162.92 202.09,163.01 202.37,163.29 C202.42,163.34 202.46,163.39 202.5,163.44 C202.53,163.5 202.56,163.56 202.59,163.62 C202.61,163.68 202.63,163.74 202.65,163.8 C202.66,163.87 202.67,163.93 202.67,164 C202.67,164.26 202.56,164.52 202.37,164.71 C202.28,164.8 202.17,164.87 202.05,164.92 C201.93,164.97 201.8,165 201.67,165"/>
    <polygon fill="#434A4F" points="206.667 154.997 208.667 154.997 208.667 149 206.667 149"/>
    <path fill="#434A4F" d="M207.67,159 C207.6,159 207.54,158.99 207.47,158.98 C207.41,158.96 207.34,158.94 207.28,158.92 C207.22,158.9 207.17,158.86 207.11,158.83 C207.06,158.79 207,158.75 206.96,158.7 C206.91,158.66 206.87,158.61 206.84,158.55 C206.8,158.5 206.77,158.44 206.74,158.38 C206.72,158.32 206.7,158.26 206.69,158.19 C206.67,158.13 206.67,158.06 206.67,158 C206.67,157.93 206.67,157.87 206.69,157.8 C206.7,157.74 206.72,157.67 206.74,157.61 C206.77,157.55 206.8,157.5 206.84,157.44 C206.87,157.39 206.91,157.34 206.96,157.29 C207,157.24 207.06,157.2 207.11,157.17 C207.17,157.13 207.22,157.1 207.28,157.07 C207.34,157.05 207.41,157.03 207.47,157.02 C207.67,156.98 207.87,157 208.05,157.07 C208.17,157.12 208.28,157.2 208.37,157.29 C208.42,157.34 208.46,157.39 208.5,157.44 C208.53,157.5 208.56,157.55 208.59,157.61 C208.61,157.67 208.63,157.74 208.65,157.8 C208.66,157.87 208.67,157.93 208.67,158 C208.67,158.06 208.66,158.13 208.65,158.19 C208.63,158.26 208.61,158.32 208.59,158.38 C208.56,158.44 208.53,158.5 208.5,158.55 C208.46,158.61 208.42,158.66 208.37,158.7 C208.28,158.8 208.17,158.87 208.05,158.92 C207.93,158.97 207.8,159 207.67,159"/>
    <polygon fill="#434A4F" points="194.663 156.998 196.663 156.998 196.663 149 194.663 149"/>
    <path fill="#434A4F" d="M195.66,161 C195.6,161 195.53,160.99 195.47,160.98 C195.4,160.97 195.34,160.95 195.28,160.92 C195.22,160.9 195.16,160.86 195.11,160.83 C195.05,160.79 195,160.75 194.96,160.71 C194.86,160.61 194.79,160.5 194.74,160.38 C194.69,160.26 194.66,160.13 194.66,160 C194.66,159.93 194.67,159.87 194.68,159.8 C194.7,159.74 194.71,159.67 194.74,159.61 C194.76,159.55 194.8,159.5 194.83,159.44 C194.87,159.39 194.91,159.34 194.96,159.29 C195.23,159.01 195.68,158.92 196.05,159.07 C196.17,159.12 196.28,159.2 196.37,159.29 C196.42,159.34 196.46,159.39 196.49,159.44 C196.53,159.5 196.56,159.55 196.59,159.61 C196.61,159.67 196.63,159.74 196.64,159.8 C196.66,159.87 196.66,159.93 196.66,160 C196.66,160.13 196.64,160.26 196.59,160.38 C196.54,160.5 196.46,160.61 196.37,160.71 C196.18,160.89 195.93,161 195.66,161"/>
    <polygon fill="#FACD60" points="33.114 191 63.666 191 63.666 172.029 33.114 172.029"/>
    <path fill="#FACD60" d="M34.114,190 L62.666,190 L62.666,173.029 L34.114,173.029 L34.114,190 Z M32.114,192 L64.666,192 L64.666,171.029 L32.114,171.029 L32.114,192 Z"/>
    <path fill="#434A4F" d="M48.391 182.706C48.206 182.706 48.02 182.655 47.857 182.552L34.633 174.221C34.166 173.927 34.026 173.309 34.32 172.842 34.615 172.375 35.231 172.234 35.7 172.529L48.386 180.521 60.252 172.908C60.716 172.61 61.335 172.745 61.633 173.21 61.932 173.675 61.796 174.293 61.332 174.592L48.931 182.548C48.766 182.653 48.579 182.706 48.391 182.706M61.326 189.536C61.04 189.536 60.755 189.414 60.558 189.176L54.398 181.786C54.044 181.362 54.102 180.731 54.526 180.378 54.95 180.024 55.581 180.081 55.934 180.506L62.094 187.896C62.447 188.32 62.39 188.951 61.966 189.304 61.779 189.46 61.552 189.536 61.326 189.536M35.455 189.536C35.229 189.536 35.002 189.46 34.815 189.304 34.391 188.951 34.333 188.32 34.687 187.896L40.847 180.506C41.201 180.081 41.831 180.024 42.255 180.378 42.679 180.731 42.736 181.362 42.383 181.786L36.223 189.176C36.025 189.414 35.741 189.536 35.455 189.536"/>
    <polygon fill="#434A4F" points="48.668 208 50.668 208 50.668 196 48.668 196"/>
    <path fill="#434A4F" d="M49.67,212 C49.54,212 49.41,211.97 49.29,211.92 C49.16,211.87 49.05,211.8 48.96,211.71 C48.87,211.61 48.79,211.5 48.74,211.38 C48.69,211.26 48.67,211.13 48.67,211 C48.67,210.94 48.67,210.87 48.69,210.8 C48.7,210.74 48.72,210.68 48.74,210.62 C48.77,210.56 48.8,210.5 48.84,210.44 C48.87,210.39 48.91,210.34 48.96,210.29 C49.05,210.2 49.16,210.13 49.29,210.08 C49.47,210 49.67,209.98 49.86,210.02 C49.93,210.03 49.99,210.05 50.05,210.08 C50.11,210.1 50.17,210.13 50.22,210.17 C50.28,210.21 50.33,210.25 50.38,210.29 C50.42,210.34 50.46,210.39 50.5,210.44 C50.54,210.5 50.57,210.56 50.59,210.62 C50.62,210.68 50.64,210.74 50.65,210.8 C50.66,210.87 50.67,210.94 50.67,211 C50.67,211.13 50.64,211.26 50.59,211.38 C50.54,211.5 50.47,211.61 50.38,211.71 C50.33,211.75 50.28,211.8 50.22,211.83 C50.17,211.87 50.11,211.9 50.05,211.92 C49.99,211.95 49.93,211.97 49.86,211.98 C49.8,211.99 49.73,212 49.67,212"/>
    <polygon fill="#434A4F" points="54.668 201.997 56.668 201.997 56.668 196 54.668 196"/>
    <path fill="#434A4F" d="M55.67,206 C55.54,206 55.41,205.97 55.29,205.92 C55.16,205.87 55.05,205.8 54.96,205.71 C54.77,205.52 54.67,205.26 54.67,205 C54.67,204.73 54.77,204.48 54.96,204.29 C55.05,204.2 55.16,204.12 55.29,204.07 C55.53,203.97 55.81,203.97 56.05,204.07 C56.17,204.12 56.28,204.2 56.37,204.29 C56.47,204.38 56.54,204.49 56.59,204.62 C56.64,204.74 56.67,204.87 56.67,205 C56.67,205.13 56.64,205.26 56.59,205.38 C56.54,205.5 56.47,205.61 56.37,205.71 C56.28,205.8 56.17,205.87 56.05,205.92 C55.93,205.97 55.8,206 55.67,206"/>
    <polygon fill="#434A4F" points="42.664 203.998 44.664 203.998 44.664 196 42.664 196"/>
    <path fill="#434A4F" d="M43.66,208 C43.6,208 43.53,207.99 43.47,207.98 C43.4,207.96 43.34,207.95 43.28,207.92 C43.22,207.9 43.16,207.86 43.11,207.83 C43.05,207.79 43,207.75 42.96,207.71 C42.91,207.66 42.87,207.61 42.83,207.55 C42.8,207.5 42.77,207.44 42.74,207.38 C42.72,207.32 42.7,207.26 42.68,207.19 C42.67,207.13 42.67,207.06 42.67,207 C42.67,206.93 42.67,206.87 42.68,206.8 C42.7,206.74 42.72,206.68 42.74,206.61 C42.77,206.55 42.8,206.5 42.83,206.44 C42.87,206.39 42.91,206.34 42.96,206.29 C43,206.24 43.05,206.2 43.11,206.17 C43.16,206.13 43.22,206.1 43.28,206.07 C43.34,206.05 43.4,206.03 43.47,206.02 C43.6,205.99 43.73,205.99 43.86,206.02 C43.92,206.03 43.99,206.05 44.05,206.07 C44.11,206.1 44.17,206.13 44.22,206.17 C44.27,206.2 44.33,206.24 44.37,206.29 C44.42,206.34 44.46,206.39 44.5,206.44 C44.53,206.5 44.56,206.55 44.59,206.61 C44.61,206.68 44.63,206.74 44.65,206.8 C44.66,206.87 44.67,206.93 44.67,207 C44.67,207.06 44.66,207.13 44.65,207.19 C44.63,207.26 44.61,207.32 44.59,207.38 C44.56,207.44 44.53,207.5 44.5,207.55 C44.46,207.61 44.42,207.66 44.37,207.71 C44.33,207.75 44.27,207.79 44.22,207.83 C44.17,207.86 44.11,207.9 44.05,207.92 C43.99,207.95 43.92,207.96 43.86,207.98 C43.79,207.99 43.73,208 43.66,208"/>
    <polygon fill="#42494E" points="136.685 123 146.687 123 146.687 121 136.685 121"/>
    <path fill="#E9886C" d="M74.137,41.009 C70.277,41.009 67.137,44.149 67.137,48.009 C67.137,51.869 70.277,55.009 74.137,55.009 C77.997,55.009 81.137,51.869 81.137,48.009 C81.137,44.149 77.997,41.009 74.137,41.009 Z M74.137,58.009 C68.623,58.009 64.137,53.523 64.137,48.009 C64.137,42.495 68.623,38.009 74.137,38.009 C79.651,38.009 84.137,42.495 84.137,48.009 C84.137,53.523 79.651,58.009 74.137,58.009 Z"/>
    <path fill="#434A4F" d="M73.859,65.018 L74.412,65.018 L75.241,61.662 L75.242,59.68 L76.078,59.541 C77.214,59.352 78.311,58.997 79.339,58.487 L80.096,58.11 L81.257,59.71 L83.91,61.933 L84.36,61.605 L83.065,58.396 L81.909,56.803 L82.5,56.199 C83.301,55.382 83.979,54.451 84.513,53.43 L84.905,52.682 L86.775,53.29 L90.228,53.529 L90.399,53 L87.466,51.165 L85.588,50.555 L85.71,49.719 C85.806,49.068 85.85,48.524 85.85,48.01 C85.85,47.493 85.806,46.949 85.71,46.299 L85.587,45.463 L87.466,44.854 L90.399,43.017 L90.227,42.488 L86.775,42.728 L84.905,43.335 L84.513,42.588 C83.979,41.568 83.301,40.637 82.499,39.819 L81.907,39.215 L83.065,37.622 L84.359,34.412 L83.909,34.085 L81.257,36.308 L80.095,37.909 L79.338,37.532 C78.315,37.024 77.222,36.67 76.089,36.48 L75.254,36.34 L75.255,34.357 L74.415,31.001 L73.859,31.001 L73.02,34.357 L73.02,36.342 L72.186,36.483 C71.056,36.673 69.964,37.028 68.942,37.537 L68.185,37.915 L67.017,36.308 L64.365,34.085 L63.917,34.411 L65.219,37.612 L66.383,39.215 L65.791,39.819 C64.989,40.637 64.311,41.57 63.775,42.592 L63.384,43.34 L61.499,42.728 L58.047,42.488 L57.876,43.015 L60.811,44.84 L62.704,45.456 L62.581,46.291 C62.485,46.945 62.44,47.491 62.44,48.01 C62.44,48.525 62.484,49.066 62.579,49.714 L62.702,50.55 L60.809,51.165 L57.875,53 L58.046,53.526 L61.494,53.277 L63.378,52.667 L63.769,53.415 C64.304,54.439 64.981,55.373 65.782,56.191 L66.373,56.794 L65.209,58.396 L63.915,61.605 L64.362,61.931 L67.005,59.703 L68.173,58.098 L68.93,58.477 C69.955,58.988 71.05,59.345 72.186,59.537 L73.02,59.678 L73.02,61.661 L73.859,65.018 Z M75.979,67.018 L72.297,67.018 L71.02,61.784 L71.02,61.341 C70.263,61.165 69.524,60.924 68.81,60.622 L68.387,61.154 L64.454,64.47 L61.476,62.306 L63.519,57.32 L63.777,56.964 C63.271,56.377 62.815,55.748 62.413,55.082 L61.759,55.264 L56.628,55.634 L55.491,52.133 L60.074,49.3 L60.497,49.163 C60.458,48.758 60.44,48.38 60.44,48.01 C60.44,47.635 60.459,47.252 60.499,46.841 L59.859,46.602 L55.491,43.887 L56.627,40.385 L62,40.787 L62.421,40.924 C62.823,40.258 63.28,39.629 63.787,39.044 L63.413,38.478 L61.475,33.713 L64.453,31.549 L68.563,35.033 L68.824,35.392 C69.534,35.092 70.268,34.853 71.02,34.678 L71.049,33.992 L72.297,29 L75.976,29 L77.255,34.235 L77.255,34.675 C78.008,34.85 78.744,35.087 79.455,35.387 L79.878,34.854 L83.821,31.549 L86.798,33.712 L84.756,38.698 L84.504,39.044 C85.01,39.629 85.466,40.256 85.867,40.919 L86.514,40.741 L91.647,40.385 L92.784,43.884 L88.201,46.718 L87.793,46.85 C87.831,47.257 87.85,47.637 87.85,48.01 C87.85,48.381 87.831,48.76 87.793,49.167 L88.422,49.404 L92.784,52.133 L91.647,55.631 L86.273,55.23 L85.868,55.098 C85.466,55.762 85.01,56.389 84.504,56.974 L84.874,57.534 L86.799,62.306 L83.822,64.468 L79.711,60.985 L79.455,60.632 C78.74,60.934 77.999,61.173 77.241,61.348 L77.211,62.023 L75.979,67.018 Z"/>
    <path fill="#434A4F" d="M74.146,44.772 C72.362,44.772 70.911,46.224 70.911,48.008 C70.911,49.792 72.362,51.243 74.146,51.243 C75.93,51.243 77.381,49.792 77.381,48.008 C77.381,46.224 75.93,44.772 74.146,44.772 Z M74.146,53.243 C71.259,53.243 68.911,50.895 68.911,48.008 C68.911,45.121 71.259,42.772 74.146,42.772 C77.032,42.772 79.381,45.121 79.381,48.008 C79.381,50.895 77.032,53.243 74.146,53.243 Z"/>
    <path fill="#42494E" d="M62.646,78.412 L60.745,77.791 L61.044,76.873 L59.873,76.491 C58.385,76.006 57.425,74.682 57.426,73.117 C57.428,71.552 58.391,70.229 59.879,69.748 L61.051,69.368 L60.413,67.396 L59.241,67.776 C57.752,68.259 56.196,67.751 55.278,66.484 C54.359,65.217 54.361,63.581 55.282,62.316 L56.007,61.32 L54.331,60.101 L53.607,61.096 C52.686,62.361 51.129,62.867 49.642,62.38 C48.154,61.896 47.194,60.571 47.195,59.006 L47.196,57.774 L45.124,57.772 L45.123,59.004 C45.121,60.569 44.158,61.892 42.669,62.374 C41.181,62.857 39.626,62.349 38.707,61.081 L37.984,60.084 L36.306,61.301 L37.029,62.298 C37.947,63.565 37.946,65.201 37.025,66.466 C36.104,67.73 34.548,68.235 33.06,67.75 L31.889,67.368 L31.589,68.287 L29.687,67.667 L30.607,64.847 L33.68,65.849 C34.468,66.104 35.089,65.727 35.408,65.289 C35.727,64.85 35.896,64.143 35.41,63.472 L33.513,60.856 L38.429,57.292 L40.326,59.908 C40.812,60.578 41.537,60.639 42.053,60.471 C42.57,60.304 43.122,59.83 43.123,59.002 L43.126,55.771 L49.198,55.776 L49.195,59.008 C49.194,59.836 49.746,60.311 50.261,60.479 C50.781,60.648 51.504,60.589 51.99,59.919 L53.892,57.307 L58.801,60.881 L56.899,63.493 C56.412,64.163 56.579,64.871 56.897,65.31 C57.216,65.749 57.836,66.129 58.624,65.873 L61.699,64.877 L63.57,70.654 L60.496,71.65 C59.708,71.905 59.427,72.576 59.426,73.119 C59.426,73.662 59.706,74.333 60.493,74.59 L63.565,75.591 L62.646,78.412"/>
    <path fill="#42494E" d="M53.872,75.625 L51.97,75.005 C52.478,73.449 52.349,71.789 51.607,70.33 C50.865,68.871 49.6,67.788 48.044,67.281 C46.488,66.774 44.827,66.902 43.369,67.644 C41.91,68.386 40.827,69.651 40.32,71.207 L38.419,70.587 C39.091,68.523 40.527,66.845 42.462,65.861 C44.398,64.877 46.601,64.706 48.664,65.379 C50.727,66.052 52.406,67.488 53.39,69.423 C54.373,71.359 54.544,73.561 53.872,75.625"/>
    <path fill="#42494E" d="M46.161,81.168 C45.328,81.168 44.481,81.039 43.647,80.767 C39.387,79.377 37.051,74.781 38.44,70.521 L40.341,71.141 C39.294,74.352 41.055,77.818 44.267,78.865 C47.48,79.914 50.945,78.152 51.992,74.94 L53.893,75.56 C52.776,78.986 49.584,81.168 46.161,81.168"/>
    <path fill="#42494E" d="M49.185,90.376 L43.112,90.37 L43.115,87.138 C43.116,86.31 42.565,85.835 42.049,85.667 C41.534,85.498 40.808,85.557 40.32,86.227 L38.419,88.839 L33.509,85.265 L35.412,82.652 C35.899,81.983 35.732,81.274 35.414,80.835 C35.094,80.395 34.473,80.018 33.687,80.272 L30.611,81.268 L28.741,75.49 L31.816,74.495 C32.603,74.24 32.885,73.569 32.885,73.026 C32.886,72.483 32.606,71.812 31.819,71.555 L28.747,70.553 L29.778,67.391 L31.679,68.011 L31.268,69.272 L32.439,69.654 C33.927,70.139 34.887,71.463 34.885,73.028 C34.884,74.593 33.921,75.915 32.432,76.397 L31.26,76.777 L31.898,78.749 L33.07,78.37 C34.556,77.887 36.114,78.394 37.033,79.661 C37.951,80.928 37.95,82.564 37.029,83.829 L36.303,84.825 L37.979,86.045 L38.704,85.049 C39.626,83.784 41.181,83.281 42.67,83.766 C44.157,84.251 45.117,85.575 45.115,87.14 L45.114,88.372 L47.187,88.374 L47.188,87.142 C47.189,85.577 48.152,84.255 49.641,83.772 C51.129,83.292 52.685,83.798 53.604,85.065 L54.327,86.062 L56.005,84.846 L55.282,83.849 C54.363,82.581 54.365,80.946 55.286,79.681 C56.207,78.416 57.763,77.913 59.251,78.397 L60.422,78.779 L60.879,77.378 L62.781,77.998 L61.704,81.3 L58.631,80.298 C57.843,80.04 57.222,80.419 56.903,80.858 C56.584,81.297 56.415,82.004 56.901,82.675 L58.798,85.291 L53.881,88.855 L51.984,86.239 C51.499,85.568 50.772,85.507 50.257,85.675 C49.741,85.843 49.189,86.316 49.188,87.144 L49.185,90.376"/>
    <path fill="#434A4F" d="M199.667 98C198.012 98 196.667 99.346 196.667 101 196.667 102.654 198.012 104 199.667 104 201.321 104 202.667 102.654 202.667 101 202.667 99.346 201.321 98 199.667 98zM199.667 106C196.91 106 194.667 103.757 194.667 101 194.667 98.243 196.91 96 199.667 96 202.423 96 204.667 98.243 204.667 101 204.667 103.757 202.423 106 199.667 106zM44.666 108C42.461 108 40.666 109.794 40.666 112 40.666 114.206 42.461 116 44.666 116 46.872 116 48.666 114.206 48.666 112 48.666 109.794 46.872 108 44.666 108zM44.666 118C41.358 118 38.666 115.309 38.666 112 38.666 108.691 41.358 106 44.666 106 47.975 106 50.666 108.691 50.666 112 50.666 115.309 47.975 118 44.666 118zM204.24 36.03C203.86 35.63 203.86 35 204.26 34.61 204.65 34.23 205.28 34.23 205.67 34.63 206.06 35.02 206.05 35.66 205.66 36.04 205.46 36.23 205.21 36.33 204.96 36.33 204.7 36.33 204.44 36.23 204.24 36.03zM206.76 38.96C206.43 38.52 206.52 37.89 206.96 37.56 207.4 37.23 208.03 37.31 208.36 37.76 208.69 38.2 208.6 38.82 208.16 39.16 207.98 39.29 207.77 39.36 207.56 39.36 207.26 39.36 206.96 39.22 206.76 38.96zM208.89 42.19C208.62 41.71 208.78 41.1 209.26 40.83 209.74 40.56 210.35 40.72 210.63 41.21 210.9 41.68 210.73 42.3 210.25 42.57 210.1 42.66 209.93 42.7 209.76 42.7 209.41 42.7 209.07 42.52 208.89 42.19zM210.58 45.67C210.37 45.16 210.62 44.58 211.13 44.37 211.64 44.16 212.22 44.41 212.43 44.92 212.64 45.43 212.39 46.01 211.88 46.22 211.76 46.27 211.63 46.29 211.5 46.29 211.11 46.29 210.74 46.06 210.58 45.67zM211.8 49.34C211.67 48.81 211.98 48.26 212.52 48.12 213.05 47.98 213.6 48.3 213.74 48.83 213.88 49.37 213.56 49.91 213.03 50.05 212.94 50.08 212.86 50.09 212.77 50.09 212.33 50.09 211.92 49.79 211.8 49.34zM212.55 53.14C212.47 52.59 212.86 52.09 213.41 52.02 213.96 51.95 214.46 52.33 214.53 52.88 214.6 53.43 214.21 53.93 213.67 54 213.62 54.01 213.58 54.01 213.54 54.01 213.04 54.01 212.61 53.64 212.55 53.14zM212.79 57C212.79 56.45 213.24 56 213.79 56 214.34 56 214.79 56.45 214.79 57 214.79 57.55 214.34 58 213.79 58 213.24 58 212.79 57.55 212.79 57zM185.792 92.001C185.536 92.001 185.28 91.903 185.084 91.707L182.084 88.707C181.798 88.421 181.713 87.992 181.868 87.618 182.022 87.244 182.387 87 182.792 87 198.327 87 211.165 75.356 212.652 59.915 212.705 59.365 213.198 58.968 213.743 59.015 214.293 59.068 214.696 59.557 214.643 60.106 213.131 75.799 200.632 87.816 185.123 88.918L186.499 90.293C186.889 90.684 186.889 91.317 186.499 91.707 186.303 91.903 186.047 92.001 185.792 92.001"/>
    <path fill="#42494E" d="M184.773,110.999 L163.178,110.999 L163.178,108.999 L184.773,108.999 C186.428,108.999 187.773,107.653 187.773,105.999 C187.773,105.197 187.462,104.444 186.895,103.877 C186.329,103.311 185.575,102.999 184.774,102.999 L163.178,102.999 L163.178,100.999 L184.774,100.999 C186.109,100.999 187.365,101.519 188.31,102.463 C189.254,103.408 189.774,104.664 189.773,105.999 C189.773,108.756 187.53,110.999 184.773,110.999"/>
    <polygon fill="#42494E" points="177.164 109.999 179.164 109.999 179.164 102.4 177.164 102.4"/>
    <polygon fill="#42494E" points="163.178 106.97 178.164 106.97 178.164 104.97 163.178 104.97"/>
    <polyline fill="#42494E" points="87.109 110.999 68.133 110.999 57.29 105.999 68.133 100.999 87.109 100.999 87.109 102.999 68.572 102.999 62.066 105.999 68.572 108.999 87.109 108.999 87.109 110.999"/>
    <polygon fill="#42494E" points="69.121 106.97 87.109 106.97 87.109 104.97 69.121 104.97"/>
  </g>
</svg>
