<svg xmlns="http://www.w3.org/2000/svg" width="250" height="250" viewBox="0 0 250 250">
  <g fill="none" fill-rule="evenodd">
    <path fill="#FACD60" d="M135.797,201.996 L117.797,201.996 C109.513,201.996 102.797,195.28 102.797,186.996 L102.797,183.996 L150.797,183.996 L150.797,186.996 C150.797,195.28 144.082,201.996 135.797,201.996"/>
    <path fill="#FACD60" d="M103.297,184.497 L103.297,186.997 C103.297,194.992 109.802,201.497 117.797,201.497 L135.797,201.497 C143.792,201.497 150.297,194.992 150.297,186.997 L150.297,184.497 L103.297,184.497 Z M135.797,202.497 L117.797,202.497 C109.25,202.497 102.297,195.543 102.297,186.997 L102.297,183.497 L151.297,183.497 L151.297,186.997 C151.297,195.543 144.344,202.497 135.797,202.497 Z"/>
    <polygon fill="#DBDBD5" points="98.184 180.996 154.184 180.996 154.184 172.996 98.184 172.996"/>
    <path fill="#DBDBD5" d="M99.184,179.996 L153.184,179.996 L153.184,173.996 L99.184,173.996 L99.184,179.996 Z M97.184,181.996 L155.184,181.996 L155.184,171.996 L97.184,171.996 L97.184,181.996 Z"/>
    <polygon fill="#434A4F" points="94.184 174.049 158.184 174.049 158.184 172.049 94.184 172.049"/>
    <path fill="#434A4F" d="M138.242,205.996 L117.014,205.996 C112.04,205.996 107.364,204.059 103.847,200.542 C100.33,197.025 98.393,192.348 98.393,187.374 L98.393,181.049 L100.393,181.049 L100.393,187.374 C100.393,191.814 102.122,195.988 105.261,199.127 C108.4,202.267 112.574,203.996 117.014,203.996 L138.125,203.996 C141.731,203.566 145.208,201.838 147.92,199.127 C151.059,195.988 152.788,191.814 152.788,187.374 L152.788,181.049 L154.788,181.049 L154.788,187.374 C154.788,192.348 152.851,197.025 149.334,200.542 C146.29,203.585 142.371,205.52 138.299,205.989 L138.242,205.996"/>
    <polygon fill="#434A4F" points="94.184 178.049 158.184 178.049 158.184 176.049 94.184 176.049"/>
    <polygon fill="#434A4F" points="94.184 182.049 158.184 182.049 158.184 180.049 94.184 180.049"/>
    <path fill="#75C7D0" d="M61.797,50.995 C61.797,53.205 60.006,54.995 57.797,54.995 C55.588,54.995 53.797,53.205 53.797,50.995 C53.797,48.786 55.588,46.995 57.797,46.995 C60.006,46.995 61.797,48.786 61.797,50.995"/>
    <path fill="#434A4F" d="M192.875,185.99 C190.669,185.99 188.875,187.784 188.875,189.99 C188.875,192.196 190.669,193.99 192.875,193.99 C195.081,193.99 196.875,192.196 196.875,189.99 C196.875,187.784 195.081,185.99 192.875,185.99 Z M192.875,195.99 C189.566,195.99 186.875,193.298 186.875,189.99 C186.875,186.681 189.566,183.99 192.875,183.99 C196.184,183.99 198.875,186.681 198.875,189.99 C198.875,193.298 196.184,195.99 192.875,195.99 Z"/>
    <path fill="#FACD60" d="M86.023,200.99 C86.023,198.78 84.232,196.99 82.023,196.99 C79.814,196.99 78.023,198.78 78.023,200.99 C78.023,203.199 79.814,204.99 82.023,204.99 C84.232,204.99 86.023,203.199 86.023,200.99"/>
    <polygon fill="#434A4F" points="175.797 32.996 177.797 32.996 177.797 28.996 175.797 28.996"/>
    <polygon fill="#434A4F" points="175.797 42.996 177.797 42.996 177.797 38.996 175.797 38.996"/>
    <polygon fill="#434A4F" points="179.797 36.996 183.797 36.996 183.797 34.996 179.797 34.996"/>
    <polygon fill="#434A4F" points="169.797 36.996 173.797 36.996 173.797 34.996 169.797 34.996"/>
    <polygon fill="#434A4F" points="205.797 82.926 207.797 82.926 207.797 78.926 205.797 78.926"/>
    <polygon fill="#434A4F" points="205.797 92.926 207.797 92.926 207.797 88.926 205.797 88.926"/>
    <polygon fill="#434A4F" points="209.797 86.926 213.797 86.926 213.797 84.926 209.797 84.926"/>
    <polygon fill="#434A4F" points="199.797 86.926 203.797 86.926 203.797 84.926 199.797 84.926"/>
    <polygon fill="#434A4F" points="49.797 120.996 51.797 120.996 51.797 116.996 49.797 116.996"/>
    <polygon fill="#434A4F" points="49.797 130.996 51.797 130.996 51.797 126.996 49.797 126.996"/>
    <polygon fill="#434A4F" points="53.797 124.996 57.797 124.996 57.797 122.996 53.797 122.996"/>
    <polygon fill="#434A4F" points="43.797 124.996 47.797 124.996 47.797 122.996 43.797 122.996"/>
    <path fill="#434A4F" d="M50.803,79.99 C49.7,79.99 48.803,80.887 48.803,81.99 C48.803,83.093 49.7,83.99 50.803,83.99 C51.906,83.99 52.803,83.093 52.803,81.99 C52.803,80.887 51.906,79.99 50.803,79.99 Z M50.803,85.99 C48.597,85.99 46.803,84.195 46.803,81.99 C46.803,79.784 48.597,77.99 50.803,77.99 C53.008,77.99 54.803,79.784 54.803,81.99 C54.803,84.195 53.008,85.99 50.803,85.99 Z"/>
    <polygon fill="#434A4F" points="155.797 210.996 157.797 210.996 157.797 206.996 155.797 206.996"/>
    <polygon fill="#434A4F" points="155.797 220.996 157.797 220.996 157.797 216.996 155.797 216.996"/>
    <polygon fill="#434A4F" points="159.797 214.996 163.797 214.996 163.797 212.996 159.797 212.996"/>
    <polygon fill="#434A4F" points="149.797 214.996 153.797 214.996 153.797 212.996 149.797 212.996"/>
    <path fill="#75C7D0" d="M172.004,188.651 C172.004,190.86 170.213,192.651 168.004,192.651 C165.795,192.651 164.004,190.86 164.004,188.651 C164.004,186.442 165.795,184.651 168.004,184.651 C170.213,184.651 172.004,186.442 172.004,188.651"/>
    <polygon fill="#434A4F" points="123.003 212.991 125.003 212.991 125.003 204.996 123.003 204.996"/>
    <polygon fill="#434A4F" points="129.003 212.991 131.003 212.991 131.003 204.996 129.003 204.996"/>
    <path fill="#434A4F" d="M124.003 217.002C123.451 217.002 123.003 216.555 123.003 216.002 123.003 215.45 123.451 214.998 124.003 214.998 124.556 214.998 125.003 215.44 125.003 215.993L125.003 216.002C125.003 216.555 124.556 217.002 124.003 217.002M130.003 217.002C129.451 217.002 129.003 216.555 129.003 216.002 129.003 215.45 129.451 214.998 130.003 214.998 130.556 214.998 131.003 215.44 131.003 215.993L131.003 216.002C131.003 216.555 130.556 217.002 130.003 217.002M124.003 221.004C123.451 221.004 123.003 220.557 123.003 220.004 123.003 219.452 123.451 219 124.003 219 124.556 219 125.003 219.442 125.003 219.995L125.003 220.004C125.003 220.557 124.556 221.004 124.003 221.004M130.003 221.004C129.451 221.004 129.003 220.557 129.003 220.004 129.003 219.452 129.451 219 130.003 219 130.556 219 131.003 219.442 131.003 219.995L131.003 220.004C131.003 220.557 130.556 221.004 130.003 221.004"/>
    <path fill="#E9886C" d="M57.005,150.068 C44.323,150.068 34.005,160.385 34.005,173.068 C34.005,185.75 44.323,196.068 57.005,196.068 C69.687,196.068 80.005,185.75 80.005,173.068 C80.005,160.385 69.687,150.068 57.005,150.068 Z M57.005,198.068 C43.22,198.068 32.005,186.853 32.005,173.068 C32.005,159.283 43.22,148.068 57.005,148.068 C70.79,148.068 82.005,159.283 82.005,173.068 C82.005,186.853 70.79,198.068 57.005,198.068 Z"/>
    <path fill="#434A4F" d="M76.959,174.068 L73.403,174.068 C72.851,174.068 72.403,173.621 72.403,173.068 C72.403,172.515 72.851,172.068 73.403,172.068 L76.959,172.068 C77.511,172.068 77.959,172.515 77.959,173.068 C77.959,173.621 77.511,174.068 76.959,174.068"/>
    <path fill="#434A4F" d="M76.959 174.068L73.403 174.068C72.851 174.068 72.403 173.621 72.403 173.068 72.403 172.515 72.851 172.068 73.403 172.068L76.959 172.068C77.511 172.068 77.959 172.515 77.959 173.068 77.959 173.621 77.511 174.068 76.959 174.068M67.122 191.552C66.776 191.552 66.44 191.374 66.254 191.052L64.477 187.973C64.201 187.495 64.364 186.883 64.843 186.607 65.32 186.331 65.932 186.494 66.209 186.973L67.987 190.052C68.263 190.531 68.099 191.142 67.621 191.418 67.463 191.509 67.291 191.552 67.122 191.552M71.142 165.624C70.796 165.624 70.46 165.444 70.274 165.124 69.998 164.645 70.163 164.034 70.641 163.757L73.72 161.98C74.199 161.704 74.81 161.869 75.086 162.346 75.362 162.825 75.198 163.436 74.72 163.712L71.641 165.49C71.483 165.581 71.311 165.624 71.142 165.624M74.551 183.876C74.382 183.876 74.21 183.833 74.052 183.743L70.973 181.965C70.495 181.689 70.331 181.078 70.607 180.599 70.883 180.122 71.493 179.957 71.973 180.233L75.052 182.01C75.53 182.287 75.694 182.898 75.419 183.376 75.233 183.697 74.897 183.876 74.551 183.876M65.069 159.413C64.899 159.413 64.727 159.37 64.57 159.279 64.092 159.002 63.928 158.391 64.204 157.913L65.981 154.833C66.257 154.355 66.868 154.189 67.348 154.466 67.826 154.743 67.99 155.354 67.714 155.833L65.936 158.913C65.751 159.233 65.415 159.413 65.069 159.413"/>
    <polyline fill="#434A4F" points="57.958 185.201 55.958 185.201 55.958 171.179 65.848 171.179 65.848 173.179 57.958 173.179 57.958 185.201"/>
    <path fill="#434A4F" d="M57.002 157.179C56.45 157.179 56.002 156.732 56.002 156.179L56.002 152.624C56.002 152.071 56.45 151.624 57.002 151.624 57.555 151.624 58.002 152.071 58.002 152.624L58.002 156.179C58.002 156.732 57.555 157.179 57.002 157.179M57.003 194.512C56.451 194.512 56.003 194.065 56.003 193.512L56.003 189.957C56.003 189.404 56.451 188.957 57.003 188.957 57.556 188.957 58.003 189.404 58.003 189.957L58.003 193.512C58.003 194.065 57.556 194.512 57.003 194.512M40.558 174.068L37.002 174.068C36.45 174.068 36.002 173.621 36.002 173.068 36.002 172.515 36.45 172.068 37.002 172.068L40.558 172.068C41.11 172.068 41.558 172.515 41.558 173.068 41.558 173.621 41.11 174.068 40.558 174.068"/>
    <path fill="#434A4F" d="M57.002 157.179C56.45 157.179 56.002 156.732 56.002 156.179L56.002 152.624C56.002 152.071 56.45 151.624 57.002 151.624 57.555 151.624 58.002 152.071 58.002 152.624L58.002 156.179C58.002 156.732 57.555 157.179 57.002 157.179M57.003 194.512C56.451 194.512 56.003 194.065 56.003 193.512L56.003 189.957C56.003 189.404 56.451 188.957 57.003 188.957 57.556 188.957 58.003 189.404 58.003 189.957L58.003 193.512C58.003 194.065 57.556 194.512 57.003 194.512M40.558 174.068L37.002 174.068C36.45 174.068 36.002 173.621 36.002 173.068 36.002 172.515 36.45 172.068 37.002 172.068L40.558 172.068C41.11 172.068 41.558 172.515 41.558 173.068 41.558 173.621 41.11 174.068 40.558 174.068M46.84 191.552C46.67 191.552 46.498 191.509 46.341 191.418 45.862 191.142 45.699 190.531 45.975 190.052L47.752 186.973C48.028 186.494 48.64 186.331 49.119 186.607 49.597 186.883 49.761 187.495 49.485 187.973L47.707 191.052C47.521 191.374 47.186 191.552 46.84 191.552M42.819 165.624C42.65 165.624 42.478 165.581 42.32 165.49L39.241 163.712C38.763 163.436 38.599 162.825 38.875 162.346 39.151 161.869 39.76 161.704 40.241 161.98L43.32 163.757C43.798 164.034 43.962 164.645 43.687 165.124 43.501 165.444 43.165 165.624 42.819 165.624M39.41 183.876C39.064 183.876 38.728 183.697 38.543 183.376 38.267 182.898 38.431 182.287 38.909 182.01L41.988 180.233C42.467 179.957 43.078 180.122 43.354 180.599 43.63 181.078 43.466 181.689 42.988 181.965L39.909 183.743C39.751 183.833 39.579 183.876 39.41 183.876M48.892 159.413C48.546 159.413 48.21 159.233 48.025 158.913L46.247 155.833C45.971 155.354 46.135 154.743 46.613 154.466 47.093 154.189 47.702 154.355 47.979 154.833L49.757 157.913C50.033 158.391 49.869 159.002 49.391 159.279 49.233 159.37 49.062 159.413 48.892 159.413M125.904 39.99C125.354 39.99 124.914 39.54 124.914 38.99 124.914 38.44 125.364 37.99 125.914 37.99 126.464 37.999 126.914 38.44 126.914 38.999 126.914 39.55 126.464 39.99 125.914 39.99 125.914 39.99 125.914 39.99 125.904 39.99zM120.904 39.18C120.874 38.63 121.294 38.16 121.844 38.12 122.394 38.09 122.864 38.499 122.904 39.06 122.934 39.61 122.524 40.08 121.974 40.12 121.944 40.12 121.924 40.12 121.904 40.12 121.384 40.12 120.944 39.71 120.904 39.18zM129.854 40.13C129.294 40.1 128.884 39.62 128.914 39.07 128.954 38.52 129.434 38.1 129.984 38.14 130.534 38.18 130.954 38.65 130.914 39.2 130.884 39.729 130.444 40.13 129.914 40.13 129.894 40.13 129.874 40.13 129.854 40.13zM116.924 39.64C116.854 39.09 117.244 38.59 117.784 38.52 118.333 38.44 118.833 38.83 118.904 39.38 118.984 39.92 118.594 40.43 118.044 40.499 118.004 40.499 117.964 40.51 117.914 40.51 117.424 40.51 116.994 40.14 116.924 39.64zM133.774 40.53C133.224 40.46 132.833 39.96 132.914 39.41 132.984 38.86 133.494 38.479 134.034 38.55L134.044 38.55C134.583 38.63 134.964 39.13 134.894 39.68 134.824 40.18 134.394 40.54 133.904 40.54 133.864 40.54 133.814 40.54 133.774 40.53zM112.984 40.36C112.874 39.82 113.224 39.29 113.764 39.18 114.314 39.07 114.833 39.42 114.944 39.97 115.054 40.51 114.704 41.03 114.164 41.14 114.094 41.16 114.024 41.16 113.964 41.16 113.494 41.16 113.074 40.83 112.984 40.36zM137.654 41.2C137.114 41.08 136.764 40.56 136.874 40.02 136.984 39.47 137.514 39.13 138.054 39.24 138.594 39.35 138.944 39.88 138.833 40.42 138.734 40.89 138.324 41.22 137.854 41.22 137.784 41.22 137.724 41.21 137.654 41.2zM109.104 41.34C108.954 40.81 109.264 40.26 109.804 40.11 110.333 39.97 110.884 40.28 111.024 40.82 111.174 41.35 110.854 41.9 110.324 42.04 110.234 42.07 110.154 42.08 110.064 42.08 109.624 42.08 109.214 41.79 109.104 41.34zM141.484 42.12C140.944 41.97 140.634 41.42 140.784 40.89 140.934 40.36 141.484 40.05 142.014 40.19 142.544 40.34 142.864 40.89 142.714 41.43 142.594 41.87 142.184 42.16 141.744 42.16 141.664 42.16 141.574 42.15 141.484 42.12zM105.284 42.58C105.104 42.06 105.384 41.49 105.904 41.31 106.424 41.13 106.994 41.41 107.174 41.93 107.354 42.45 107.083 43.02 106.564 43.2 106.564 43.2 106.564 43.2 106.554 43.2 106.454 43.24 106.344 43.26 106.234 43.26 105.814 43.26 105.434 42.999 105.284 42.58zM145.234 43.3C144.714 43.12 144.444 42.55 144.624 42.03 144.804 41.51 145.374 41.229 145.904 41.41 146.424 41.6 146.694 42.17 146.514 42.69 146.364 43.1 145.984 43.36 145.564 43.36 145.454 43.36 145.344 43.34 145.234 43.3zM101.564 44.08C101.344 43.57 101.583 42.99 102.094 42.77 102.604 42.55 103.194 42.79 103.404 43.3 103.624 43.81 103.384 44.4 102.874 44.61 102.744 44.67 102.614 44.69 102.484 44.69 102.094 44.69 101.724 44.46 101.564 44.08zM148.904 44.729C148.394 44.52 148.164 43.93 148.374 43.42 148.594 42.91 149.184 42.68 149.694 42.89 150.194 43.11 150.434 43.7 150.214 44.21 150.054 44.59 149.684 44.81 149.294 44.81 149.164 44.81 149.034 44.79 148.904 44.729zM97.954 45.82C97.704 45.33 97.904 44.729 98.394 44.479 98.884 44.229 99.484 44.43 99.734 44.93 99.984 45.42 99.784 46.02 99.294 46.27 99.154 46.34 98.994 46.37 98.844 46.37 98.474 46.37 98.123 46.17 97.954 45.82zM152.464 46.41C151.974 46.15 151.784 45.55 152.034 45.06 152.284 44.57 152.884 44.37 153.374 44.62 153.874 44.87 154.064 45.479 153.814 45.97 153.634 46.32 153.284 46.52 152.924 46.52 152.764 46.52 152.614 46.479 152.464 46.41zM94.464 47.81C94.184 47.33 94.344 46.72 94.814 46.44 95.284 46.15 95.904 46.31 96.184 46.79 96.464 47.26 96.304 47.88 95.833 48.16 95.674 48.249 95.494 48.3 95.324 48.3 94.984 48.3 94.644 48.12 94.464 47.81zM155.914 48.31C155.444 48.03 155.284 47.42 155.564 46.94 155.854 46.47 156.464 46.31 156.944 46.6 157.414 46.88 157.564 47.49 157.284 47.97 157.094 48.28 156.764 48.45 156.424 48.45 156.254 48.45 156.074 48.41 155.914 48.31zM91.114 50.02C90.804 49.56 90.924 48.94 91.373 48.63 91.834 48.32 92.454 48.43 92.764 48.89 93.074 49.34 92.964 49.96 92.504 50.28 92.334 50.4 92.134 50.45 91.944 50.45 91.623 50.45 91.304 50.3 91.114 50.02zM159.224 50.45C158.774 50.13 158.654 49.51 158.974 49.05 159.284 48.6 159.914 48.49 160.364 48.8 160.814 49.11 160.934 49.74 160.614 50.19 160.424 50.47 160.114 50.62 159.794 50.62 159.594 50.62 159.404 50.57 159.224 50.45zM87.924 52.44C87.583 52.01 87.654 51.38 88.094 51.04 88.524 50.7 89.154 50.77 89.494 51.21 89.833 51.64 89.764 52.27 89.324 52.61 89.144 52.76 88.924 52.83 88.714 52.83 88.414 52.83 88.123 52.69 87.924 52.44zM162.394 52.79C161.964 52.45 161.884 51.82 162.234 51.39 162.574 50.96 163.204 50.88 163.634 51.229 164.064 51.57 164.144 52.2 163.794 52.63 163.604 52.88 163.304 53.01 163.014 53.01 162.794 53.01 162.574 52.94 162.394 52.79zM84.904 55.08C84.534 54.67 84.564 54.04 84.974 53.67 85.384 53.3 86.014 53.33 86.384 53.74 86.754 54.15 86.724 54.78 86.314 55.15 86.123 55.32 85.884 55.41 85.644 55.41 85.373 55.41 85.094 55.3 84.904 55.08zM165.394 55.34C164.984 54.979 164.954 54.34 165.324 53.93 165.704 53.52 166.333 53.49 166.744 53.86 167.154 54.229 167.184 54.87 166.814 55.28 166.614 55.49 166.344 55.6 166.064 55.6 165.824 55.6 165.583 55.52 165.394 55.34zM82.064 57.91C81.664 57.52 81.654 56.89 82.044 56.49 82.424 56.1 83.054 56.09 83.454 56.47 83.844 56.86 83.854 57.49 83.474 57.89 83.274 58.09 83.014 58.19 82.754 58.19 82.504 58.19 82.254 58.1 82.064 57.91zM168.224 58.09C167.844 57.69 167.854 57.06 168.254 56.68 168.654 56.29 169.284 56.3 169.664 56.7 170.054 57.1 170.044 57.729 169.644 58.11 169.444 58.3 169.194 58.39 168.944 58.39 168.684 58.39 168.424 58.29 168.224 58.09zM79.414 60.92C78.994 60.56 78.944 59.93 79.294 59.51 79.654 59.09 80.284 59.04 80.704 59.39 81.134 59.749 81.184 60.38 80.824 60.8 80.623 61.04 80.344 61.16 80.064 61.16 79.834 61.15 79.604 61.08 79.414 60.92zM170.874 61.01C170.514 60.59 170.564 59.96 170.984 59.61 171.414 59.25 172.044 59.3 172.394 59.72 172.754 60.14 172.704 60.77 172.284 61.13 172.094 61.29 171.864 61.37 171.634 61.37 171.354 61.37 171.074 61.249 170.874 61.01zM76.974 64.09C76.524 63.77 76.434 63.14 76.764 62.7 77.094 62.249 77.724 62.16 78.164 62.49 78.604 62.82 78.704 63.44 78.373 63.89 78.174 64.15 77.873 64.29 77.574 64.29 77.364 64.29 77.154 64.229 76.974 64.09zM173.314 64.11C172.984 63.66 173.083 63.04 173.524 62.71 173.974 62.38 174.594 62.47 174.924 62.92 175.254 63.36 175.154 63.99 174.714 64.32 174.534 64.45 174.324 64.51 174.124 64.51 173.814 64.51 173.514 64.37 173.314 64.11zM74.754 67.43C74.284 67.13 74.154 66.51 74.454 66.05 74.754 65.58 75.364 65.45 75.834 65.749 76.294 66.05 76.434 66.66 76.134 67.13 75.944 67.43 75.623 67.59 75.294 67.59 75.104 67.59 74.924 67.54 74.754 67.43zM175.554 67.35C175.254 66.89 175.394 66.27 175.854 65.97 176.324 65.68 176.944 65.81 177.234 66.28 177.534 66.74 177.394 67.36 176.934 67.66 176.764 67.76 176.583 67.82 176.394 67.82 176.064 67.82 175.744 67.65 175.554 67.35zM72.754 70.9C72.274 70.63 72.094 70.03 72.364 69.54 72.634 69.06 73.244 68.88 73.724 69.15 74.204 69.42 74.384 70.03 74.114 70.51 73.934 70.84 73.594 71.03 73.244 71.03 73.074 71.03 72.914 70.99 72.754 70.9zM177.564 70.74C177.304 70.26 177.474 69.65 177.964 69.39 178.444 69.12 179.054 69.3 179.324 69.78 179.583 70.27 179.404 70.87 178.924 71.14 178.774 71.22 178.604 71.26 178.444 71.26 178.094 71.26 177.754 71.08 177.564 70.74zM70.994 74.499C70.494 74.27 70.284 73.67 70.514 73.17 70.754 72.67 71.344 72.45 71.844 72.69 72.344 72.92 72.564 73.52 72.324 74.02 72.154 74.38 71.794 74.59 71.424 74.59 71.284 74.59 71.134 74.56 70.994 74.499zM179.354 74.26C179.114 73.76 179.333 73.17 179.833 72.93 180.333 72.7 180.934 72.92 181.164 73.42 181.394 73.92 181.184 74.51 180.674 74.749 180.544 74.81 180.394 74.84 180.254 74.84 179.884 74.84 179.524 74.63 179.354 74.26zM69.484 78.2C68.974 77.999 68.714 77.43 68.914 76.91 69.114 76.4 69.694 76.14 70.214 76.34 70.724 76.54 70.984 77.12 70.784 77.63 70.623 78.03 70.254 78.27 69.854 78.27 69.734 78.27 69.604 78.249 69.484 78.2zM180.894 77.89C180.694 77.38 180.954 76.8 181.464 76.6 181.984 76.4 182.564 76.66 182.754 77.17 182.964 77.69 182.704 78.27 182.184 78.46 182.064 78.51 181.944 78.53 181.824 78.53 181.424 78.53 181.044 78.29 180.894 77.89zM68.224 82.01C67.694 81.85 67.404 81.28 67.574 80.76 67.734 80.229 68.294 79.94 68.824 80.1 69.354 80.27 69.644 80.83 69.474 81.35 69.474 81.35 69.474 81.35 69.484 81.35 69.344 81.78 68.944 82.06 68.524 82.06 68.424 82.06 68.324 82.04 68.224 82.01zM182.184 81.62C182.024 81.09 182.324 80.53 182.844 80.37 183.374 80.2 183.934 80.499 184.094 81.03 184.264 81.55 183.964 82.11 183.434 82.28 183.344 82.31 183.244 82.32 183.144 82.32 182.714 82.32 182.324 82.05 182.184 81.62zM67.224 85.89C66.684 85.76 66.354 85.22 66.484 84.68 66.614 84.15 67.154 83.82 67.694 83.95 68.224 84.08 68.554 84.61 68.424 85.15 68.314 85.61 67.904 85.92 67.454 85.92 67.373 85.92 67.304 85.91 67.224 85.89zM183.224 85.42C183.094 84.88 183.434 84.34 183.964 84.22 184.504 84.09 185.044 84.42 185.174 84.96 185.294 85.499 184.964 86.03 184.434 86.16 184.354 86.18 184.274 86.19 184.204 86.19 183.744 86.19 183.333 85.88 183.224 85.42zM66.484 89.83C65.944 89.74 65.574 89.22 65.664 88.68 65.754 88.13 66.274 87.76 66.814 87.86 67.364 87.95 67.724 88.47 67.634 89.01 67.554 89.499 67.134 89.84 66.654 89.84 66.594 89.84 66.544 89.84 66.484 89.83zM184.004 89.28C183.914 88.74 184.284 88.22 184.824 88.13 185.374 88.04 185.884 88.41 185.974 88.95 186.064 89.499 185.694 90.01 185.154 90.1 185.094 90.11 185.044 90.12 184.984 90.12 184.504 90.12 184.083 89.77 184.004 89.28zM184.514 93.19C184.464 92.64 184.864 92.15 185.414 92.09 185.964 92.04 186.454 92.44 186.504 92.99 186.564 93.54 186.154 94.03 185.604 94.09 185.574 94.09 185.544 94.09 185.514 94.09 185.004 94.09 184.564 93.7 184.514 93.19zM184.764 97.12C184.754 96.57 185.184 96.11 185.734 96.09 186.284 96.07 186.754 96.51 186.764 97.06 186.784 97.61 186.344 98.07 185.794 98.09 185.784 98.09 185.774 98.09 185.764 98.09 185.224 98.09 184.784 97.66 184.764 97.12zM185.724 102.1C185.174 102.08 184.744 101.62 184.764 101.06 184.784 100.51 185.244 100.08 185.794 100.1 186.344 100.12 186.774 100.58 186.764 101.13 186.744 101.67 186.294 102.1 185.764 102.1 185.744 102.1 185.734 102.1 185.724 102.1zM185.384 106.09C184.844 106.04 184.444 105.55 184.494 105 184.544 104.45 185.044 104.05 185.594 104.1 186.134 104.16 186.544 104.65 186.484 105.2 186.434 105.71 185.994 106.1 185.494 106.1 185.454 106.1 185.424 106.1 185.384 106.09zM65.614 108.96C65.524 108.41 65.894 107.9 66.434 107.8 66.984 107.71 67.494 108.08 67.584 108.63 67.674 109.17 67.304 109.69 66.764 109.78 66.704 109.79 66.654 109.79 66.594 109.79 66.114 109.79 65.694 109.44 65.614 108.96zM184.784 110.06C184.244 109.96 183.874 109.45 183.964 108.9 184.064 108.36 184.574 107.99 185.124 108.09 185.664 108.18 186.034 108.69 185.944 109.24 185.854 109.729 185.434 110.07 184.954 110.07 184.904 110.07 184.844 110.07 184.784 110.06zM66.414 112.95C66.284 112.41 66.623 111.88 67.154 111.75 67.694 111.62 68.234 111.95 68.364 112.49 68.484 113.03 68.154 113.57 67.614 113.69 67.544 113.71 67.464 113.72 67.384 113.72 66.934 113.72 66.524 113.41 66.414 112.95zM183.904 114.13C183.364 114.01 183.024 113.47 183.144 112.93 183.154 112.91 183.154 112.88 183.164 112.86 183.174 112.83 183.174 112.8 183.184 112.77 183.314 112.229 183.854 111.9 184.384 112.03 184.924 112.15 185.254 112.69 185.124 113.229 185.124 113.25 185.114 113.27 185.114 113.29 185.104 113.32 185.104 113.34 185.094 113.37 184.994 113.83 184.583 114.15 184.124 114.15 184.044 114.15 183.974 114.14 183.904 114.13zM67.484 116.89C67.324 116.36 67.623 115.8 68.144 115.64 68.674 115.47 69.234 115.77 69.394 116.3 69.564 116.83 69.264 117.38 68.734 117.55 68.644 117.58 68.544 117.59 68.444 117.59 68.014 117.59 67.623 117.32 67.484 116.89zM182.814 117.99C182.284 117.83 181.984 117.27 182.144 116.74 182.304 116.21 182.864 115.91 183.394 116.07 183.924 116.229 184.224 116.79 184.064 117.31 183.934 117.75 183.534 118.03 183.104 118.03 183.014 118.03 182.914 118.01 182.814 117.99zM68.824 120.74C68.623 120.229 68.884 119.65 69.394 119.45 69.914 119.25 70.494 119.51 70.694 120.03 70.694 120.03 70.694 120.03 70.684 120.03 70.884 120.54 70.634 121.12 70.114 121.32 70.004 121.36 69.873 121.38 69.754 121.38 69.354 121.38 68.974 121.14 68.824 120.74zM181.454 121.75C180.944 121.56 180.684 120.979 180.874 120.46 181.074 119.95 181.654 119.69 182.174 119.89 182.684 120.08 182.944 120.66 182.744 121.18 182.594 121.58 182.214 121.82 181.814 121.82 181.694 121.82 181.574 121.8 181.454 121.75zM70.414 124.5C70.184 124 70.404 123.4 70.904 123.17 71.404 122.94 71.994 123.15 72.224 123.66 72.224 123.66 72.224 123.66 72.234 123.66 72.464 124.16 72.244 124.75 71.744 124.979 71.604 125.05 71.464 125.08 71.324 125.08 70.944 125.08 70.584 124.86 70.414 124.5zM179.824 125.42C179.324 125.19 179.114 124.59 179.344 124.09 179.574 123.59 180.174 123.37 180.674 123.61 181.174 123.84 181.394 124.43 181.154 124.94 180.984 125.3 180.624 125.51 180.254 125.51 180.104 125.51 179.964 125.479 179.824 125.42zM72.254 128.14C71.994 127.65 72.164 127.04 72.654 126.78 73.134 126.51 73.744 126.69 74.004 127.169 74.274 127.66 74.094 128.27 73.614 128.53 73.454 128.62 73.294 128.66 73.134 128.66 72.774 128.66 72.434 128.469 72.254 128.14zM177.934 128.95C177.454 128.68 177.284 128.07 177.554 127.589 177.824 127.11 178.424 126.94 178.914 127.209 179.394 127.469 179.564 128.08 179.294 128.57 179.114 128.89 178.774 129.08 178.424 129.08 178.254 129.08 178.094 129.04 177.934 128.95zM74.334 131.64C74.034 131.18 74.174 130.56 74.634 130.259 75.104 129.969 75.724 130.1 76.014 130.57 76.314 131.03 76.174 131.65 75.714 131.95 75.544 132.049 75.354 132.11 75.174 132.11 74.844 132.11 74.524 131.94 74.334 131.64zM175.794 132.339C175.333 132.04 175.204 131.419 175.514 130.959 175.514 130.959 175.514 130.959 175.504 130.959 175.814 130.5 176.434 130.37 176.894 130.669 177.354 130.969 177.484 131.589 177.184 132.06 176.984 132.35 176.664 132.509 176.344 132.509 176.154 132.509 175.964 132.45 175.794 132.339zM76.634 135L76.634 135.009C76.304 134.56 76.404 133.94 76.844 133.61 77.294 133.28 77.924 133.379 78.244 133.82 78.574 134.27 78.484 134.89 78.034 135.219 77.854 135.35 77.644 135.41 77.444 135.41 77.134 135.41 76.834 135.27 76.634 135zM173.414 135.57C172.974 135.23 172.894 134.6 173.224 134.169 173.564 133.73 174.194 133.64 174.634 133.98 175.074 134.32 175.154 134.95 174.814 135.379 174.614 135.64 174.324 135.78 174.024 135.78 173.814 135.78 173.594 135.709 173.414 135.57zM79.154 138.209C78.804 137.78 78.854 137.15 79.274 136.799 79.704 136.44 80.334 136.5 80.684 136.919 81.044 137.339 80.984 137.969 80.564 138.33 80.373 138.49 80.154 138.56 79.924 138.56 79.634 138.56 79.354 138.44 79.154 138.209zM170.844 138.64C170.424 138.29 170.374 137.66 170.724 137.23 171.083 136.81 171.714 136.759 172.134 137.12 172.564 137.48 172.604 138.11 172.254 138.53 172.054 138.759 171.774 138.879 171.494 138.879 171.264 138.879 171.034 138.799 170.844 138.64zM81.884 141.24C81.504 140.839 81.514 140.209 81.914 139.82 82.304 139.44 82.944 139.45 83.324 139.85 83.704 140.25 83.694 140.879 83.294 141.259 83.104 141.45 82.854 141.54 82.604 141.54 82.344 141.54 82.084 141.44 81.884 141.24zM168.094 141.56C167.694 141.18 167.694 140.54 168.074 140.15 168.464 139.75 169.094 139.75 169.484 140.129 169.884 140.509 169.894 141.15 169.504 141.54 169.314 141.74 169.054 141.85 168.794 141.85 168.544 141.85 168.284 141.75 168.094 141.56zM84.804 144.08C84.394 143.709 84.364 143.07 84.734 142.66 85.104 142.259 85.744 142.23 86.144 142.6 86.554 142.969 86.584 143.6 86.214 144.009 86.014 144.23 85.744 144.339 85.474 144.339 85.234 144.339 84.994 144.25 84.804 144.08zM165.154 144.29C164.784 143.879 164.824 143.25 165.234 142.879 165.644 142.509 166.274 142.54 166.644 142.959 167.014 143.37 166.984 144 166.564 144.37 166.374 144.54 166.134 144.62 165.904 144.62 165.624 144.62 165.354 144.509 165.154 144.29zM87.904 146.719C87.474 146.379 87.394 145.75 87.744 145.31 88.084 144.879 88.714 144.81 89.144 145.16 89.584 145.5 89.654 146.129 89.304 146.56 89.104 146.81 88.814 146.94 88.524 146.94 88.304 146.94 88.084 146.87 87.904 146.719zM162.044 146.82C161.704 146.39 161.784 145.759 162.214 145.419 162.644 145.08 163.274 145.15 163.614 145.589 163.964 146.02 163.884 146.65 163.454 146.99 163.264 147.129 163.044 147.2 162.833 147.2 162.534 147.2 162.244 147.07 162.044 146.82zM91.164 149.15C90.714 148.839 90.604 148.209 90.914 147.759 91.234 147.31 91.854 147.19 92.304 147.509 92.764 147.82 92.873 148.45 92.564 148.9 92.364 149.18 92.054 149.33 91.734 149.33 91.544 149.33 91.344 149.27 91.164 149.15zM158.774 149.14C158.464 148.68 158.574 148.06 159.034 147.75 159.494 147.43 160.114 147.549 160.424 148.009 160.734 148.459 160.614 149.089 160.164 149.4 159.994 149.52 159.794 149.57 159.604 149.57 159.284 149.57 158.964 149.419 158.774 149.14zM94.584 151.36C94.114 151.08 93.964 150.459 94.244 149.99 94.534 149.52 95.144 149.36 95.614 149.65 96.094 149.93 96.244 150.549 95.964 151.02 95.774 151.33 95.444 151.509 95.104 151.509 94.924 151.509 94.754 151.459 94.584 151.36zM155.354 151.23C155.074 150.75 155.234 150.14 155.704 149.86 156.184 149.58 156.794 149.74 157.074 150.209 157.354 150.69 157.194 151.299 156.724 151.589L156.724 151.58C156.564 151.68 156.384 151.719 156.214 151.719 155.874 151.719 155.534 151.549 155.354 151.23zM98.144 153.339C97.654 153.089 97.464 152.49 97.714 151.99 97.964 151.5 98.564 151.31 99.064 151.56 99.554 151.81 99.744 152.419 99.494 152.91 99.314 153.25 98.964 153.45 98.604 153.45 98.444 153.45 98.294 153.419 98.144 153.339zM151.804 153.089C151.554 152.6 151.754 152 152.244 151.75 152.734 151.5 153.333 151.7 153.583 152.19 153.833 152.69 153.634 153.29 153.144 153.53 152.994 153.61 152.844 153.64 152.694 153.64 152.324 153.64 151.974 153.44 151.804 153.089zM101.833 155.08C101.324 154.86 101.094 154.27 101.304 153.759 101.524 153.259 102.114 153.02 102.624 153.24 103.134 153.459 103.364 154.049 103.144 154.549 102.984 154.93 102.614 155.16 102.224 155.16 102.094 155.16 101.964 155.129 101.833 155.08zM148.134 154.709C147.914 154.2 148.154 153.61 148.664 153.4 149.174 153.18 149.764 153.419 149.974 153.93 150.184 154.44 149.954 155.03 149.444 155.24 149.314 155.299 149.184 155.32 149.054 155.32 148.664 155.32 148.294 155.089 148.134 154.709zM105.624 156.56C105.104 156.379 104.824 155.799 105.014 155.29 105.194 154.759 105.764 154.49 106.284 154.669 106.804 154.86 107.083 155.43 106.894 155.95 106.754 156.36 106.364 156.62 105.954 156.62 105.844 156.62 105.734 156.6 105.624 156.56zM144.364 156.08C144.184 155.549 144.464 154.98 144.984 154.799 145.504 154.62 146.074 154.9 146.254 155.419 146.434 155.95 146.154 156.52 145.634 156.7L145.634 156.69C145.524 156.73 145.414 156.75 145.304 156.75 144.894 156.75 144.504 156.49 144.364 156.08zM109.504 157.79C108.974 157.64 108.664 157.089 108.814 156.549 108.964 156.02 109.514 155.709 110.044 155.86 110.574 156.009 110.884 156.56 110.744 157.089 110.614 157.53 110.214 157.82 109.774 157.82 109.684 157.82 109.594 157.81 109.504 157.79zM140.504 157.19C140.364 156.65 140.674 156.1 141.214 155.959 141.744 155.82 142.294 156.129 142.434 156.66 142.583 157.2 142.264 157.75 141.734 157.89 141.644 157.919 141.564 157.93 141.474 157.93 141.034 157.93 140.624 157.629 140.504 157.19zM113.474 158.75C112.924 158.629 112.583 158.1 112.694 157.56 112.804 157.02 113.333 156.669 113.874 156.79 114.414 156.9 114.764 157.43 114.654 157.969 114.554 158.44 114.134 158.77 113.674 158.77 113.604 158.77 113.534 158.759 113.474 158.75zM136.583 158.03C136.484 157.49 136.833 156.969 137.374 156.86 137.914 156.75 138.444 157.1 138.544 157.64 138.654 158.18 138.304 158.709 137.764 158.82 137.694 158.83 137.634 158.839 137.564 158.839 137.104 158.839 136.684 158.509 136.583 158.03zM117.484 159.43L117.484 159.44C116.934 159.36 116.554 158.86 116.634 158.31 116.704 157.759 117.204 157.379 117.754 157.45 118.304 157.53 118.684 158.03 118.604 158.58 118.544 159.08 118.114 159.44 117.624 159.44 117.574 159.44 117.534 159.44 117.484 159.43zM132.624 158.62C132.544 158.07 132.934 157.57 133.484 157.5 134.034 157.43 134.534 157.81 134.604 158.36 134.674 158.91 134.284 159.41 133.744 159.48 133.694 159.49 133.654 159.49 133.614 159.49 133.114 159.49 132.684 159.12 132.624 158.62zM121.534 159.85C120.984 159.81 120.574 159.339 120.614 158.78 120.644 158.23 121.124 157.82 121.674 157.85 121.674 157.85 121.674 157.85 121.674 157.86 122.224 157.89 122.644 158.37 122.604 158.919 122.564 159.45 122.124 159.85 121.604 159.85 121.583 159.85 121.564 159.85 121.534 159.85zM128.624 158.94C128.583 158.39 129.004 157.91 129.554 157.879 130.104 157.839 130.583 158.259 130.614 158.81 130.654 159.36 130.234 159.839 129.684 159.87 129.664 159.87 129.634 159.87 129.614 159.87 129.094 159.87 128.654 159.469 128.624 158.94zM125.604 159.99C125.054 159.99 124.614 159.54 124.614 158.99 124.614 158.44 125.064 157.99 125.614 157.99 126.164 158 126.614 158.44 126.614 159 126.614 159.549 126.164 159.99 125.614 159.99 125.614 159.99 125.614 159.99 125.604 159.99z"/>
    <path fill="#42494E" d="M141.685,104.864 L139.784,104.244 C141.004,100.501 140.693,96.507 138.91,92.997 C137.126,89.487 134.082,86.883 130.339,85.663 C122.616,83.147 114.277,87.38 111.757,95.107 L109.856,94.487 C112.717,85.712 122.183,80.901 130.959,83.761 C135.21,85.147 138.667,88.105 140.692,92.091 C142.719,96.077 143.071,100.613 141.685,104.864"/>
    <path fill="#E9886C" d="M125.794,91.103 C121.107,91.103 117.294,94.916 117.294,99.603 C117.294,104.29 121.107,108.103 125.794,108.103 C130.481,108.103 134.294,104.29 134.294,99.603 C134.294,94.916 130.481,91.103 125.794,91.103 Z M125.794,111.103 C119.453,111.103 114.294,105.944 114.294,99.603 C114.294,93.262 119.453,88.103 125.794,88.103 C132.135,88.103 137.294,93.262 137.294,99.603 C137.294,105.944 132.135,111.103 125.794,111.103 Z"/>
    <path fill="#434A4F" d="M126.744,79.62 C126.194,79.6 125.764,79.13 125.794,78.58 C125.814,78.03 126.284,77.6 126.844,77.63 C127.394,77.65 127.814,78.12 127.794,78.67 C127.764,79.21 127.324,79.63 126.794,79.63 C126.774,79.63 126.764,79.63 126.744,79.62 Z M121.814,78.95 C121.734,78.41 122.114,77.9 122.664,77.82 C123.204,77.749 123.714,78.13 123.794,78.67 C123.874,79.22 123.494,79.729 122.944,79.81 L122.944,79.8 C122.894,79.81 122.854,79.81 122.804,79.81 C122.314,79.81 121.884,79.45 121.814,78.95 Z M130.504,80.16 C129.974,80.03 129.644,79.49 129.774,78.95 C129.904,78.42 130.444,78.09 130.984,78.22 C131.514,78.35 131.844,78.89 131.714,79.42 C131.604,79.88 131.194,80.19 130.744,80.19 C130.664,80.19 130.583,80.18 130.504,80.16 Z M117.974,80.08 C117.794,79.56 118.074,78.99 118.594,78.81 C119.114,78.63 119.684,78.9 119.864,79.43 C120.044,79.95 119.774,80.52 119.254,80.7 C119.144,80.729 119.034,80.749 118.924,80.749 C118.504,80.749 118.124,80.49 117.974,80.08 Z M134.104,81.4 L134.104,81.41 C133.604,81.18 133.384,80.58 133.614,80.08 C133.833,79.58 134.434,79.36 134.934,79.59 C135.434,79.82 135.654,80.41 135.424,80.91 C135.264,81.28 134.894,81.49 134.514,81.49 C134.384,81.49 134.234,81.47 134.104,81.4 Z M114.424,81.92 C114.154,81.44 114.314,80.82 114.794,80.55 C115.274,80.27 115.884,80.43 116.154,80.91 C116.434,81.39 116.274,81.999 115.794,82.28 C115.634,82.37 115.464,82.41 115.294,82.41 C114.944,82.41 114.614,82.229 114.424,81.92 Z M137.394,83.31 C136.944,82.99 136.844,82.36 137.164,81.92 C137.484,81.46 138.104,81.36 138.554,81.68 C139.004,81.999 139.114,82.63 138.794,83.08 C138.594,83.35 138.284,83.49 137.974,83.49 C137.774,83.49 137.574,83.43 137.394,83.31 Z M111.284,84.39 C110.924,83.97 110.974,83.34 111.384,82.979 C111.804,82.61 112.434,82.66 112.794,83.08 C113.164,83.49 113.114,84.13 112.694,84.49 C112.504,84.65 112.274,84.729 112.044,84.729 C111.764,84.729 111.484,84.61 111.284,84.39 Z M140.264,85.8 C139.884,85.4 139.904,84.77 140.304,84.39 C140.704,84.01 141.333,84.02 141.714,84.42 C142.094,84.82 142.083,85.45 141.684,85.84 C141.484,86.02 141.244,86.11 140.994,86.11 C140.724,86.11 140.464,86.01 140.264,85.8 Z M108.664,87.41 C108.234,87.07 108.154,86.44 108.504,85.999 C108.844,85.57 109.474,85.49 109.904,85.84 C110.333,86.18 110.414,86.81 110.074,87.24 C109.874,87.49 109.583,87.62 109.284,87.62 C109.064,87.62 108.854,87.55 108.664,87.41 Z M142.624,88.79 C142.324,88.33 142.454,87.71 142.924,87.41 C143.384,87.11 144.004,87.24 144.304,87.71 C144.604,88.17 144.464,88.79 144.004,89.09 C143.833,89.2 143.654,89.249 143.464,89.249 C143.134,89.249 142.814,89.09 142.624,88.79 Z M106.664,90.87 C106.174,90.61 105.984,90.01 106.234,89.52 C106.484,89.03 107.094,88.84 107.583,89.09 C108.074,89.34 108.264,89.95 108.014,90.44 C107.833,90.78 107.484,90.979 107.124,90.979 C106.964,90.979 106.814,90.94 106.664,90.87 Z M144.364,92.17 C144.164,91.65 144.414,91.07 144.924,90.87 C145.434,90.66 146.014,90.91 146.224,91.42 C146.424,91.94 146.184,92.52 145.664,92.72 C145.544,92.77 145.424,92.8 145.294,92.8 C144.904,92.8 144.524,92.56 144.364,92.17 Z M105.354,94.65 C104.824,94.49 104.524,93.94 104.684,93.41 C104.833,92.88 105.384,92.57 105.914,92.729 C106.444,92.88 106.754,93.44 106.594,93.97 C106.474,94.4 106.074,94.69 105.634,94.69 C105.544,94.69 105.454,94.67 105.354,94.65 Z M145.434,95.82 C145.333,95.27 145.684,94.749 146.234,94.65 C146.774,94.54 147.294,94.9 147.404,95.44 C147.504,95.979 147.154,96.51 146.604,96.61 C146.544,96.62 146.484,96.63 146.424,96.63 C145.944,96.63 145.524,96.29 145.434,95.82 Z M104.794,98.6 C104.244,98.55 103.844,98.07 103.894,97.51 C103.944,96.96 104.434,96.56 104.984,96.61 C105.534,96.66 105.934,97.15 105.884,97.7 C105.833,98.22 105.404,98.61 104.894,98.61 C104.854,98.61 104.824,98.61 104.794,98.6 Z M145.794,99.6 C145.794,99.05 146.244,98.6 146.794,98.6 C147.344,98.6 147.794,99.05 147.794,99.6 C147.794,100.16 147.344,100.6 146.794,100.6 C146.244,100.6 145.794,100.16 145.794,99.6 Z M103.894,101.7 C103.894,101.7 103.894,101.7 103.894,101.69 C103.844,101.14 104.244,100.66 104.794,100.6 C105.344,100.55 105.833,100.96 105.884,101.51 C105.934,102.05 105.534,102.54 104.984,102.6 C104.944,102.6 104.914,102.6 104.884,102.6 C104.374,102.6 103.944,102.21 103.894,101.7 Z M146.234,104.56 C145.684,104.45 145.333,103.93 145.434,103.39 C145.534,102.85 146.064,102.49 146.604,102.6 C147.154,102.7 147.504,103.22 147.404,103.77 C147.304,104.25 146.894,104.58 146.424,104.58 C146.354,104.58 146.294,104.57 146.234,104.56 Z M104.684,105.8 C104.524,105.27 104.824,104.72 105.354,104.56 C105.884,104.41 106.444,104.71 106.594,105.24 C106.754,105.77 106.454,106.32 105.924,106.479 C105.824,106.51 105.734,106.52 105.634,106.52 C105.204,106.52 104.804,106.24 104.684,105.8 Z M144.924,108.34 C144.414,108.13 144.164,107.55 144.364,107.04 C144.574,106.52 145.154,106.28 145.664,106.479 C146.184,106.69 146.424,107.27 146.224,107.78 C146.064,108.17 145.694,108.41 145.294,108.41 C145.174,108.41 145.044,108.39 144.924,108.34 Z M106.234,109.69 C105.984,109.19 106.174,108.59 106.664,108.34 C107.154,108.09 107.754,108.28 108.014,108.77 C108.264,109.26 108.074,109.86 107.583,110.12 C107.434,110.19 107.274,110.229 107.124,110.229 C106.764,110.229 106.414,110.03 106.234,109.69 Z M142.924,111.8 C142.454,111.5 142.324,110.88 142.624,110.42 C142.924,109.95 143.544,109.82 144.004,110.12 C144.464,110.42 144.604,111.03 144.304,111.5 C144.114,111.8 143.794,111.96 143.464,111.96 C143.274,111.96 143.083,111.91 142.924,111.8 Z M108.504,113.2 C108.154,112.77 108.234,112.14 108.664,111.8 C109.104,111.46 109.734,111.53 110.074,111.97 C110.414,112.4 110.333,113.03 109.904,113.37 C109.724,113.51 109.504,113.58 109.284,113.58 C108.984,113.58 108.694,113.45 108.504,113.2 Z M140.304,114.82 C139.904,114.44 139.884,113.8 140.264,113.4 C140.654,113 141.284,112.99 141.684,113.37 C142.083,113.75 142.094,114.38 141.714,114.79 C141.524,114.99 141.254,115.09 140.994,115.09 C140.744,115.09 140.494,115 140.304,114.82 Z M111.384,116.229 C110.974,115.87 110.924,115.24 111.284,114.82 C111.644,114.4 112.284,114.36 112.694,114.72 C113.114,115.08 113.164,115.71 112.794,116.13 C112.594,116.36 112.324,116.47 112.044,116.47 C111.804,116.47 111.574,116.39 111.384,116.229 Z M137.164,117.29 C136.844,116.84 136.944,116.22 137.394,115.9 C137.844,115.58 138.464,115.68 138.794,116.13 C139.114,116.58 139.004,117.2 138.554,117.52 C138.554,117.52 138.554,117.52 138.554,117.53 C138.384,117.65 138.174,117.71 137.974,117.71 C137.664,117.71 137.354,117.57 137.164,117.29 Z M114.794,118.66 C114.314,118.38 114.154,117.77 114.424,117.29 C114.704,116.81 115.314,116.65 115.794,116.93 C116.274,117.2 116.434,117.82 116.154,118.3 C115.974,118.61 115.634,118.79 115.294,118.79 C115.124,118.79 114.954,118.75 114.794,118.66 Z M133.614,119.13 C133.384,118.62 133.604,118.03 134.104,117.8 C134.604,117.57 135.194,117.79 135.424,118.3 C135.654,118.8 135.434,119.39 134.934,119.62 C134.804,119.68 134.654,119.71 134.524,119.71 C134.144,119.71 133.774,119.49 133.614,119.13 Z M118.594,120.4 C118.074,120.22 117.794,119.65 117.984,119.13 C118.164,118.61 118.734,118.33 119.254,118.51 C119.774,118.69 120.044,119.26 119.874,119.78 C119.724,120.19 119.344,120.45 118.924,120.45 C118.814,120.45 118.704,120.44 118.594,120.4 Z M129.774,120.25 C129.644,119.71 129.974,119.17 130.514,119.04 C131.044,118.91 131.583,119.24 131.714,119.78 C131.844,120.32 131.514,120.86 130.984,120.99 C130.904,121.01 130.824,121.02 130.744,121.02 C130.294,121.02 129.884,120.71 129.774,120.25 Z M122.664,121.38 C122.114,121.3 121.734,120.8 121.814,120.25 C121.894,119.7 122.404,119.32 122.944,119.4 C123.494,119.479 123.874,119.99 123.794,120.53 C123.724,121.03 123.294,121.39 122.804,121.39 C122.754,121.39 122.714,121.39 122.664,121.38 Z M125.794,120.63 C125.764,120.07 126.194,119.61 126.744,119.58 C127.294,119.55 127.764,119.979 127.794,120.53 C127.814,121.09 127.394,121.55 126.844,121.58 C126.824,121.58 126.804,121.58 126.794,121.58 C126.264,121.58 125.824,121.16 125.794,120.63 Z"/>
    <path fill="#434A4F" d="M123.818,134.594 L130.812,134.602 L130.816,130.673 C130.819,127.75 132.618,125.281 135.397,124.381 C138.179,123.48 141.083,124.429 142.797,126.794 L145.104,129.975 L150.766,125.871 L148.46,122.689 C146.745,120.324 146.748,117.269 148.468,114.906 C150.188,112.544 153.094,111.602 155.873,112.509 L159.608,113.727 L161.729,107.22 L157.995,106.002 C155.216,105.097 153.423,102.623 153.426,99.701 C153.429,96.779 155.227,94.309 158.007,93.409 L161.745,92.198 L159.59,85.545 L155.852,86.755 C153.07,87.655 150.167,86.708 148.452,84.343 C146.736,81.977 146.739,78.922 148.459,76.56 L150.772,73.383 L145.118,69.267 L142.806,72.443 C141.085,74.805 138.178,75.745 135.401,74.841 C132.623,73.936 130.829,71.462 130.832,68.54 L130.835,64.611 L123.842,64.604 L123.838,68.533 C123.835,71.455 122.037,73.925 119.257,74.825 C116.476,75.727 113.572,74.779 111.857,72.413 L109.551,69.232 L103.889,73.337 L106.195,76.518 C107.91,78.884 107.907,81.938 106.188,84.301 C104.467,86.663 101.562,87.605 98.782,86.699 L95.047,85.481 L92.927,91.983 L96.663,93.201 C99.44,94.107 101.234,96.581 101.231,99.503 C101.228,102.425 99.429,104.895 96.649,105.795 L92.911,107.005 L95.066,113.659 L98.803,112.449 C101.583,111.547 104.489,112.496 106.204,114.862 C107.918,117.228 107.916,120.283 106.195,122.645 L103.882,125.821 L109.536,129.937 L111.849,126.761 C113.569,124.399 116.477,123.457 119.254,124.364 C122.032,125.27 123.825,127.744 123.822,130.666 L123.818,134.594 Z M132.81,136.604 L121.816,136.592 L121.822,130.664 C121.825,128.188 120.177,126.769 118.634,126.266 C117.091,125.763 114.922,125.938 113.466,127.939 L109.976,132.732 L101.088,126.26 L104.578,121.467 C106.036,119.466 105.537,117.35 104.584,116.036 C103.632,114.721 101.775,113.591 99.419,114.351 L93.779,116.177 L90.393,105.718 L96.033,103.893 C98.388,103.13 99.229,101.124 99.231,99.501 C99.232,97.877 98.396,95.87 96.043,95.102 L90.406,93.265 L93.766,82.96 L99.402,84.798 C101.756,85.565 103.616,84.436 104.57,83.124 C105.526,81.812 106.029,79.696 104.576,77.692 L101.096,72.892 L109.996,66.439 L113.476,71.239 C114.928,73.242 117.095,73.422 118.641,72.923 C120.185,72.423 121.836,71.006 121.838,68.531 L121.844,62.602 L132.837,62.613 L132.832,68.542 C132.83,71.017 134.478,72.436 136.021,72.939 C137.564,73.444 139.731,73.267 141.188,71.266 L144.678,66.473 L153.566,72.944 L150.076,77.737 C148.619,79.738 149.118,81.855 150.071,83.169 C151.023,84.483 152.88,85.613 155.236,84.853 L160.876,83.026 L164.263,93.485 L158.623,95.311 C156.268,96.074 155.427,98.08 155.426,99.703 C155.424,101.326 156.261,103.333 158.615,104.101 L164.251,105.938 L160.89,116.249 L155.253,114.41 C152.9,113.642 151.04,114.771 150.085,116.083 C149.129,117.396 148.626,119.512 150.079,121.516 L153.559,126.316 L144.658,132.768 L141.178,127.968 C139.725,125.964 137.559,125.782 136.014,126.284 C134.47,126.784 132.818,128.2 132.816,130.675 L132.81,136.604 Z"/>
    <path fill="#434A4F" d="M163.957,59.128 C152.855,48.603 138.302,43.259 122.964,44.077 C96.697,45.479 75.106,65.721 71.38,91.284 L73.402,91.284 C77.112,66.783 97.855,47.42 123.071,46.074 C137.848,45.285 151.881,50.436 162.581,60.58 C173.288,70.73 179.184,84.441 179.184,99.189 C179.184,113.775 173.369,127.382 162.811,137.504 C156.728,143.335 153.377,150.993 153.377,159.063 L153.377,172.049 L98.603,172.049 L98.603,158.358 C98.603,150.666 95.345,143.347 89.428,137.75 C81.514,130.264 76.182,120.589 73.966,110.123 L71.923,110.123 C74.168,121.142 79.738,131.337 88.054,139.204 C93.567,144.418 96.603,151.221 96.603,158.358 L96.603,174.049 L155.377,174.049 L155.377,159.063 C155.377,151.542 158.509,144.399 164.195,138.948 C175.15,128.445 181.184,114.325 181.184,99.189 C181.184,83.887 175.066,69.66 163.957,59.128"/>
    <path fill="#42494E" d="M37.684,96.979 C36.029,96.979 34.684,98.325 34.684,99.979 C34.684,101.634 36.029,102.979 37.684,102.979 L82.843,102.979 L89.349,99.979 L82.843,96.979 L37.684,96.979 Z M37.684,104.979 C34.927,104.979 32.684,102.736 32.684,99.979 C32.684,97.223 34.927,94.979 37.684,94.979 L83.281,94.979 L94.125,99.979 L83.281,104.979 L37.684,104.979 Z"/>
    <polygon fill="#42494E" points="43.294 103.979 45.294 103.979 45.294 96.381 43.294 96.381"/>
    <polygon fill="#42494E" points="44.293 100.951 82.293 100.951 82.293 98.951 44.293 98.951"/>
    <path fill="#42494E" d="M200.995,150.66 C196.033,150.66 191.995,154.697 191.995,159.66 C191.995,164.623 196.033,168.66 200.995,168.66 C205.958,168.66 209.995,164.623 209.995,159.66 C209.995,154.697 205.958,150.66 200.995,150.66 Z M200.995,170.66 C194.93,170.66 189.995,165.725 189.995,159.66 C189.995,153.594 194.93,148.66 200.995,148.66 C207.061,148.66 211.995,153.594 211.995,159.66 C211.995,165.725 207.061,170.66 200.995,170.66 Z M200.995,144.66 C192.724,144.66 185.995,151.388 185.995,159.66 C185.995,167.931 192.724,174.66 200.995,174.66 C209.266,174.66 215.995,167.931 215.995,159.66 C215.995,151.388 209.266,144.66 200.995,144.66 Z M200.995,176.66 C191.621,176.66 183.995,169.034 183.995,159.66 C183.995,150.286 191.621,142.66 200.995,142.66 C210.369,142.66 217.995,150.286 217.995,159.66 C217.995,169.034 210.369,176.66 200.995,176.66 Z"/>
    <path fill="#42494E" d="M200.995,156.66 C199.341,156.66 197.995,158.005 197.995,159.66 C197.995,161.314 199.341,162.66 200.995,162.66 C202.649,162.66 203.995,161.314 203.995,159.66 C203.995,158.005 202.649,156.66 200.995,156.66 Z M200.995,164.66 C198.238,164.66 195.995,162.417 195.995,159.66 C195.995,156.903 198.238,154.66 200.995,154.66 C203.752,154.66 205.995,156.903 205.995,159.66 C205.995,162.417 203.752,164.66 200.995,164.66 Z"/>
    <path fill="#E9886C" d="M200.995,155.66 C198.786,155.66 196.995,157.451 196.995,159.66 C196.995,161.869 198.786,163.66 200.995,163.66 C203.204,163.66 204.995,161.869 204.995,159.66 C204.995,157.451 203.204,155.66 200.995,155.66"/>
    <path fill="#E9886C" d="M200.995,156.66 C199.341,156.66 197.995,158.005 197.995,159.66 C197.995,161.314 199.341,162.66 200.995,162.66 C202.649,162.66 203.995,161.314 203.995,159.66 C203.995,158.005 202.649,156.66 200.995,156.66 Z M200.995,164.66 C198.238,164.66 195.995,162.417 195.995,159.66 C195.995,156.903 198.238,154.66 200.995,154.66 C203.752,154.66 205.995,156.903 205.995,159.66 C205.995,162.417 203.752,164.66 200.995,164.66 Z"/>
    <polygon fill="#42494E" points="173.997 160.66 200.995 160.66 200.995 158.66 173.997 158.66"/>
    <path fill="#42494E" d="M167.41,162.66 L170.582,162.66 L173.582,159.66 L170.582,156.66 L167.41,156.66 L170.41,159.66 L167.41,162.66 Z M171.41,164.66 L162.582,164.66 L167.582,159.66 L162.582,154.66 L171.41,154.66 L176.41,159.66 L171.41,164.66 Z"/>
  </g>
</svg>
