<svg xmlns="http://www.w3.org/2000/svg" width="250" height="250" viewBox="0 0 250 250">
  <g fill="none" fill-rule="evenodd">
    <path fill="#FACD60" d="M120.362,133 C116.22,133 112.862,129.642 112.862,125.5 C112.862,121.358 116.22,118 120.362,118 C124.504,118 127.862,121.358 127.862,125.5 C127.862,129.642 124.504,133 120.362,133 Z M131.335,135.841 C131.335,133.632 133.126,131.841 135.335,131.841 L152.104,131.841 C152.543,129.628 152.777,127.342 152.777,125 C152.777,106.344 138.18,91.102 119.784,90.061 L119.784,93.13 L126.057,93.122 C127.097,93.221 127.862,94.155 127.862,95.2 L127.862,100.068 C127.863,101.416 127.409,102.725 126.575,103.784 L124.708,106.152 L124.709,107.123 L114.772,107.124 L114.772,106.153 L112.942,103.766 C112.139,102.718 111.704,101.435 111.704,100.115 L111.703,95.124 C111.703,94.02 112.597,93.125 113.702,93.124 L115.733,93.123 L115.733,90.064 C97.355,91.123 82.777,106.357 82.777,125 C82.777,132.81 85.337,140.021 89.661,145.844 L89.853,145.653 C90.786,144.72 92.001,144.12 93.31,143.948 L96.292,143.553 L96.979,142.867 L104.004,149.893 L103.317,150.58 L102.962,153.575 C102.849,154.531 102.499,155.434 101.966,156.223 C106.717,158.633 112.086,160 117.777,160 C131.801,160 143.892,151.75 149.477,139.841 L135.335,139.841 C133.126,139.841 131.335,138.05 131.335,135.841 Z"/>
    <path fill="#DDDED9" d="M151.862 183.831C141.839 189.651 130.202 193 117.777 193 104.12 193 91.414 188.959 80.76 182.03 82.076 184.053 83.504 185.998 85.022 187.866 96.704 197.328 111.578 203.006 127.783 203.006 136.264 203.006 144.376 201.441 151.862 198.604L151.862 183.831M185.436 131.841L195.705 131.841C195.051 117.611 190.014 104.532 181.926 93.898 181.025 94.531 180.066 95.083 179.065 95.563 183.357 104.471 185.777 114.45 185.777 125 185.777 127.309 185.661 129.591 185.436 131.841M184.13 139.841C181.358 152.262 175.203 163.407 166.662 172.242L184.672 172.242C190.859 162.809 194.769 151.75 195.609 139.841L184.13 139.841"/>
    <path fill="#42494E" d="M118.99,86.708 C118.991,86.708 118.992,86.709 118.992,86.71 C118.992,86.709 118.991,86.708 118.99,86.708 Z M115.773,107.124 L113.773,107.124 L113.773,106.492 L112.149,104.374 C111.218,103.161 110.704,101.649 110.703,100.116 L110.703,95.124 C110.703,93.471 112.048,92.125 113.701,92.124 L114.733,92.123 L114.732,87.002 C114.732,85.757 115.516,84.627 116.68,84.191 C117.984,83.702 119.413,84.151 120.498,85.393 C120.682,85.602 120.783,85.873 120.783,86.154 L120.784,92.129 L126.056,92.122 C127.671,92.272 128.861,93.621 128.861,95.2 L128.862,100.069 C128.862,101.634 128.329,103.173 127.36,104.402 L125.708,106.499 L125.708,107.123 L123.708,107.123 L123.708,105.806 L125.79,103.164 C126.482,102.286 126.862,101.187 126.862,100.069 L126.861,95.2 C126.861,94.641 126.466,94.166 125.962,94.118 L118.784,94.132 L118.783,86.493 C118.316,86.055 117.814,85.898 117.383,86.063 C116.993,86.209 116.732,86.586 116.732,87.002 L116.733,94.122 L113.702,94.124 C113.151,94.124 112.703,94.573 112.703,95.124 L112.703,100.115 C112.704,101.21 113.07,102.29 113.735,103.157 L115.773,105.814 L115.773,107.124 Z"/>
    <polyline fill="#42494E" points="114.734 97.062 114.733 93.123 116.733 93.122 116.734 97.061 114.734 97.062"/>
    <path fill="#42494E" d="M85.326,162.293 C83.831,162.293 82.647,161.613 82.111,160.432 C81.597,159.3 81.842,157.948 82.722,157.068 L86.344,153.447 L85.613,152.716 C85.048,152.15 84.736,151.397 84.736,150.595 C84.737,149.793 85.05,149.04 85.616,148.474 L89.146,144.947 C90.229,143.864 91.661,143.156 93.179,142.956 L95.824,142.606 L96.272,142.159 L97.686,143.573 L96.76,144.5 L93.44,144.939 C92.356,145.082 91.333,145.587 90.56,146.361 L87.03,149.889 C86.841,150.078 86.737,150.329 86.736,150.596 C86.736,150.863 86.84,151.114 87.028,151.302 L89.172,153.448 L84.136,158.482 C83.842,158.776 83.76,159.227 83.932,159.605 C84.124,160.028 84.588,160.271 85.226,160.292 L90.628,154.891 L95.765,160.041 C96.084,160.298 96.699,160.24 97.096,159.847 L100.538,156.406 C101.329,155.614 101.838,154.567 101.969,153.457 L102.365,150.118 L103.297,149.187 L104.711,150.601 L104.27,151.042 L103.955,153.693 C103.772,155.245 103.061,156.712 101.952,157.82 L98.51,161.261 C97.394,162.377 95.597,162.489 94.42,161.519 L90.627,157.721 L86.4,161.946 C86.206,162.14 85.947,162.26 85.672,162.281 C85.555,162.289 85.439,162.293 85.326,162.293"/>
    <polyline fill="#42494E" points="88.465 154.155 87.051 152.74 89.836 149.955 91.25 151.369 88.465 154.155"/>
    <polygon fill="#434A4F" points="116.775 81.258 118.775 81.258 118.775 73 116.775 73"/>
    <polygon fill="#434A4F" points="116.774 177 118.774 177 118.774 168.742 116.774 168.742"/>
    <polygon fill="#434A4F" points="65.774 125.999 74.033 125.999 74.033 123.999 65.774 123.999"/>
    <polygon fill="#434A4F" points="161.517 126.002 169.774 126.002 169.774 124.002 161.517 124.002"/>
    <polyline fill="#434A4F" points="92.998 83.93 90.998 80.466 92.73 79.466 94.73 82.93 92.998 83.93"/>
    <polyline fill="#434A4F" points="75.795 101.865 72.331 99.865 73.331 98.133 76.795 100.133 75.795 101.865"/>
    <polyline fill="#434A4F" points="73.33 151.865 72.33 150.133 75.794 148.133 76.794 149.865 73.33 151.865"/>
    <polyline fill="#434A4F" points="159.934 101.867 158.934 100.135 162.398 98.135 163.398 99.867 159.934 101.867"/>
    <polyline fill="#434A4F" points="92.729 170.532 90.996 169.532 92.996 166.069 94.729 167.069 92.729 170.532"/>
    <path fill="#42494E" d="M120.362 119C116.778 119 113.862 121.916 113.862 125.5 113.862 129.084 116.778 132 120.362 132 123.946 132 126.862 129.084 126.862 125.5 126.862 121.916 123.946 119 120.362 119zM120.362 134C115.676 134 111.862 130.187 111.862 125.5 111.862 120.813 115.676 117 120.362 117 125.049 117 128.862 120.813 128.862 125.5 128.862 130.187 125.049 134 120.362 134zM135.335 132.841C133.681 132.841 132.335 134.187 132.335 135.841 132.335 137.495 133.681 138.841 135.335 138.841L202.517 138.84 209.023 135.841 202.517 132.841 135.335 132.841zM135.335 140.841C132.578 140.841 130.335 138.598 130.335 135.841 130.335 133.084 132.578 130.841 135.335 130.841L202.956 130.841 213.798 135.841 202.956 140.84 135.335 140.841z"/>
    <polygon fill="#42494E" points="140.944 139.841 142.944 139.841 142.944 132.242 140.944 132.242"/>
    <polygon fill="#42494E" points="141.944 136.812 201.968 136.812 201.968 134.812 141.944 134.812"/>
    <path fill="#434A4F" d="M152.862,198.725 L195.123,198.725 L195.123,173.242 L152.862,173.242 L152.862,198.725 Z M150.862,200.725 L197.123,200.725 L197.123,171.242 L150.862,171.242 L150.862,200.725 Z"/>
    <path fill="#434A4F" d="M173.992,187.26 C173.806,187.26 173.619,187.208 173.455,187.104 L157.332,176.829 L158.406,175.142 L173.99,185.073 L188.941,175.483 L190.021,177.166 L174.532,187.102 C174.367,187.207 174.18,187.26 173.992,187.26"/>
    <polyline fill="#434A4F" points="191.963 196.796 183.04 186.09 184.577 184.809 193.5 195.515 191.963 196.796"/>
    <polyline fill="#434A4F" points="156.023 196.796 154.485 195.515 163.408 184.809 164.945 186.09 156.023 196.796"/>
    <polygon fill="#434A4F" points="174.843 216.656 176.843 216.656 176.843 202.62 174.843 202.62"/>
    <path fill="#434A4F" d="M175.842,221 C175.712,221 175.582,220.98 175.462,220.92 C175.342,220.87 175.232,220.8 175.132,220.71 C175.042,220.61 174.972,220.51 174.922,220.38 C174.872,220.26 174.842,220.13 174.842,220 C174.842,219.87 174.872,219.74 174.922,219.62 C174.972,219.5 175.042,219.39 175.132,219.29 C175.232,219.2 175.342,219.13 175.462,219.08 C175.702,218.98 175.982,218.98 176.222,219.08 C176.342,219.13 176.452,219.2 176.552,219.29 C176.643,219.39 176.712,219.5 176.762,219.62 C176.813,219.74 176.842,219.87 176.842,220 C176.842,220.13 176.813,220.26 176.762,220.38 C176.712,220.51 176.643,220.61 176.552,220.71 C176.362,220.9 176.112,221 175.842,221"/>
    <polygon fill="#434A4F" points="183.535 207.959 185.535 207.959 185.535 202.62 183.535 202.62"/>
    <path fill="#434A4F" d="M184.532,212.3 C184.262,212.3 184.012,212.2 183.832,212.01 C183.643,211.82 183.532,211.57 183.532,211.3 C183.532,211.17 183.563,211.04 183.612,210.92 C183.662,210.8 183.732,210.69 183.832,210.6 C184.063,210.36 184.402,210.26 184.732,210.32 C184.792,210.34 184.853,210.36 184.922,210.38 C184.982,210.41 185.032,210.44 185.092,210.47 C185.143,210.51 185.192,210.55 185.242,210.6 C185.332,210.69 185.402,210.8 185.462,210.92 C185.512,211.04 185.532,211.17 185.532,211.3 C185.532,211.57 185.432,211.82 185.242,212.01 C185.052,212.2 184.802,212.3 184.532,212.3"/>
    <polygon fill="#434A4F" points="166.146 210.858 168.146 210.858 168.146 202.62 166.146 202.62"/>
    <path fill="#434A4F" d="M167.143,215.2 C166.882,215.2 166.632,215.1 166.442,214.91 C166.342,214.81 166.273,214.71 166.222,214.58 C166.172,214.46 166.143,214.33 166.143,214.2 C166.143,213.94 166.252,213.68 166.442,213.5 C166.712,213.22 167.162,213.13 167.532,213.281 C167.652,213.33 167.762,213.4 167.853,213.5 C167.942,213.59 168.023,213.7 168.072,213.82 C168.122,213.94 168.143,214.07 168.143,214.2 C168.143,214.33 168.122,214.46 168.072,214.58 C168.023,214.71 167.942,214.81 167.853,214.91 C167.662,215.1 167.412,215.2 167.143,215.2"/>
    <path fill="#42494E" d="M170.444,68.537 C165.482,68.537 161.444,72.575 161.444,77.537 C161.444,82.5 165.482,86.537 170.444,86.537 C175.407,86.537 179.444,82.5 179.444,77.537 C179.444,72.575 175.407,68.537 170.444,68.537 Z M170.444,88.537 C164.379,88.537 159.444,83.603 159.444,77.537 C159.444,71.472 164.379,66.537 170.444,66.537 C176.51,66.537 181.444,71.472 181.444,77.537 C181.444,83.603 176.51,88.537 170.444,88.537 Z M155.444,77.537 C155.444,85.808 162.173,92.537 170.444,92.537 C178.716,92.537 185.444,85.808 185.444,77.537 C185.444,69.266 178.716,62.537 170.444,62.537 C162.173,62.537 155.444,69.266 155.444,77.537 Z M170.444,94.537 C161.07,94.537 153.444,86.911 153.444,77.537 C153.444,68.163 161.07,60.537 170.444,60.537 C179.818,60.537 187.444,68.163 187.444,77.537 C187.444,86.911 179.818,94.537 170.444,94.537 Z"/>
    <path fill="#42494E" d="M170.444,74.537 C168.79,74.537 167.444,75.883 167.444,77.537 C167.444,79.192 168.79,80.537 170.444,80.537 C172.099,80.537 173.444,79.192 173.444,77.537 C173.444,75.883 172.099,74.537 170.444,74.537 Z M170.444,82.537 C167.688,82.537 165.444,80.294 165.444,77.537 C165.444,74.781 167.688,72.537 170.444,72.537 C173.201,72.537 175.444,74.781 175.444,77.537 C175.444,80.294 173.201,82.537 170.444,82.537 Z"/>
    <path fill="#E9886C" d="M170.444,73.537 C168.235,73.537 166.444,75.328 166.444,77.537 C166.444,79.747 168.235,81.537 170.444,81.537 C172.653,81.537 174.444,79.747 174.444,77.537 C174.444,75.328 172.653,73.537 170.444,73.537"/>
    <path fill="#E9886C" d="M170.444,74.537 C168.79,74.537 167.444,75.883 167.444,77.537 C167.444,79.192 168.79,80.537 170.444,80.537 C172.099,80.537 173.444,79.192 173.444,77.537 C173.444,75.883 172.099,74.537 170.444,74.537 Z M170.444,82.537 C167.688,82.537 165.444,80.294 165.444,77.537 C165.444,74.781 167.688,72.537 170.444,72.537 C173.201,72.537 175.444,74.781 175.444,77.537 C175.444,80.294 173.201,82.537 170.444,82.537 Z"/>
    <polygon fill="#42494E" points="143.445 78.537 170.444 78.537 170.444 76.537 143.445 76.537"/>
    <path fill="#42494E" d="M136.859 80.537L140.031 80.537 143.031 77.537 140.031 74.537 136.859 74.537 139.859 77.537 136.859 80.537zM140.859 82.537L132.031 82.537 137.031 77.537 132.031 72.537 140.859 72.537 145.859 77.537 140.859 82.537zM102.824 41.994C101.17 41.994 99.824 43.34 99.824 44.994 99.824 46.649 101.17 47.994 102.824 47.994 104.479 47.994 105.824 46.649 105.824 44.994 105.824 43.34 104.479 41.994 102.824 41.994zM102.824 49.994C100.067 49.994 97.824 47.751 97.824 44.994 97.824 42.237 100.067 39.994 102.824 39.994 105.581 39.994 107.824 42.237 107.824 44.994 107.824 47.751 105.581 49.994 102.824 49.994z"/>
    <path fill="#E9886C" d="M202.865,167.998 C202.865,166.341 204.209,164.998 205.865,164.998 C207.522,164.998 208.865,166.341 208.865,167.998 C208.865,169.655 207.522,170.998 205.865,170.998 C204.209,170.998 202.865,169.655 202.865,167.998"/>
    <path fill="#E9886C" d="M205.865,165.998 C204.763,165.998 203.865,166.896 203.865,167.998 C203.865,169.101 204.763,169.998 205.865,169.998 C206.968,169.998 207.865,169.101 207.865,167.998 C207.865,166.896 206.968,165.998 205.865,165.998 Z M205.865,171.998 C203.659,171.998 201.865,170.204 201.865,167.998 C201.865,165.792 203.659,163.998 205.865,163.998 C208.071,163.998 209.865,165.792 209.865,167.998 C209.865,170.204 208.071,171.998 205.865,171.998 Z"/>
    <path fill="#434A4F" d="M149.202 156.268L154.757 159.574 156.559 152.255 149.202 156.268zM67.063 204.585C57.756 204.585 49.922 201.974 44.405 196.457L45.819 195.043C64.313 213.535 110.628 197.365 149.442 159.001L145.113 156.22 159.586 148.325 156.054 162.674 151.383 159.894C122.998 188.144 90.406 204.585 67.063 204.585zM194.485 88.356C194.417 88.356 194.349 88.349 194.279 88.335 193.738 88.221 193.393 87.692 193.506 87.151 196.596 72.405 194.43 60.811 187.24 53.622 186.85 53.231 186.85 52.598 187.24 52.208 187.631 51.817 188.264 51.817 188.654 52.208 196.344 59.897 198.698 72.122 195.463 87.561 195.364 88.033 194.948 88.356 194.485 88.356"/>
    <path fill="#434A4F" d="M45.112 196.75C44.842 196.75 44.592 196.65 44.402 196.45 44.313 196.36 44.242 196.25 44.192 196.13 44.132 196.01 44.112 195.88 44.112 195.75 44.112 195.49 44.222 195.23 44.402 195.04 44.502 194.95 44.603 194.88 44.732 194.83 45.092 194.67 45.542 194.77 45.822 195.04 46.002 195.23 46.112 195.49 46.112 195.75 46.112 195.88 46.082 196.01 46.032 196.13 45.982 196.25 45.912 196.36 45.822 196.45 45.632 196.65 45.382 196.75 45.112 196.75M44.232 145.16C43.752 144.88 43.592 144.27 43.872 143.79 44.143 143.31 44.762 143.15 45.242 143.43 45.712 143.71 45.872 144.32 45.592 144.8 45.412 145.12 45.072 145.29 44.732 145.29 44.563 145.29 44.382 145.25 44.232 145.16zM42.353 148.59C41.872 148.33 41.682 147.73 41.943 147.24 42.212 146.75 42.813 146.57 43.302 146.83 43.782 147.09 43.972 147.7 43.712 148.18 43.532 148.52 43.182 148.71 42.822 148.71 42.662 148.71 42.502 148.67 42.353 148.59zM41.012 152.26C40.492 152.09 40.202 151.52 40.382 151 40.563 150.47 41.132 150.19 41.652 150.37 42.172 150.55 42.452 151.11 42.272 151.64 42.132 152.05 41.752 152.32 41.332 152.32 41.222 152.32 41.122 152.3 41.012 152.26zM39.872 156.01C39.342 155.85 39.032 155.29 39.192 154.76 39.353 154.23 39.902 153.93 40.432 154.09 40.962 154.24 41.262 154.8 41.112 155.33 40.982 155.76 40.582 156.05 40.152 156.05 40.063 156.05 39.962 156.031 39.872 156.01zM38.902 159.79C38.362 159.66 38.032 159.12 38.172 158.59 38.172 158.59 38.172 158.59 38.162 158.58 38.292 158.05 38.842 157.72 39.372 157.85 39.912 157.98 40.242 158.52 40.112 159.06 39.992 159.51 39.582 159.82 39.132 159.82 39.063 159.82 38.982 159.81 38.902 159.79zM38.122 163.62C37.572 163.52 37.222 163 37.322 162.45 37.432 161.91 37.952 161.55 38.492 161.66 39.032 161.76 39.393 162.29 39.292 162.83 39.202 163.31 38.782 163.64 38.313 163.64 38.242 163.64 38.182 163.64 38.122 163.62zM37.552 167.49C37.002 167.42 36.622 166.92 36.693 166.37 36.762 165.82 37.262 165.44 37.813 165.51 38.362 165.58 38.752 166.08 38.672 166.63 38.612 167.14 38.182 167.5 37.682 167.5 37.643 167.5 37.603 167.5 37.552 167.49zM37.242 171.39C36.693 171.35 36.272 170.88 36.302 170.33 36.342 169.781 36.813 169.36 37.372 169.4 37.912 169.43 38.332 169.9 38.302 170.46 38.272 170.99 37.822 171.39 37.302 171.39 37.282 171.39 37.262 171.39 37.242 171.39zM36.202 174.31C36.192 173.76 36.632 173.31 37.192 173.3 37.742 173.29 38.193 173.74 38.202 174.29 38.212 174.84 37.762 175.29 37.212 175.3L37.202 175.3C36.652 175.3 36.212 174.86 36.202 174.31zM36.422 178.3C36.422 178.3 36.422 178.3 36.422 178.31 36.372 177.76 36.772 177.26 37.313 177.21 37.862 177.15 38.362 177.55 38.412 178.1 38.472 178.65 38.072 179.14 37.522 179.2 37.492 179.2 37.452 179.2 37.422 179.2 36.912 179.2 36.482 178.82 36.422 178.3zM37.042 182.27C36.922 181.73 37.272 181.2 37.813 181.09 38.353 180.97 38.882 181.32 38.992 181.86 39.112 182.4 38.762 182.93 38.222 183.04 38.152 183.06 38.082 183.06 38.012 183.06 37.552 183.06 37.132 182.74 37.042 182.27zM38.103 186.16C37.922 185.63 38.202 185.07 38.722 184.89 39.242 184.71 39.813 184.99 39.992 185.51 40.172 186.031 39.893 186.6 39.372 186.781 39.262 186.82 39.152 186.84 39.052 186.84 38.632 186.84 38.242 186.57 38.103 186.16zM39.672 189.89C39.422 189.4 39.612 188.79 40.112 188.55 40.603 188.29 41.202 188.49 41.452 188.98 41.702 189.48 41.502 190.08 41.012 190.33 40.862 190.4 40.712 190.44 40.563 190.44 40.192 190.44 39.842 190.24 39.672 189.89zM41.772 193.36C41.452 192.91 41.552 192.29 42.002 191.96 42.452 191.64 43.072 191.74 43.393 192.19L43.402 192.19C43.722 192.64 43.612 193.27 43.172 193.59 42.992 193.71 42.792 193.77 42.582 193.77 42.272 193.77 41.972 193.63 41.772 193.36zM46.862 142C46.592 142 46.342 141.9 46.152 141.71 46.063 141.61 45.992 141.5 45.942 141.38 45.882 141.26 45.862 141.13 45.862 141 45.862 140.74 45.972 140.48 46.152 140.29 46.522 139.92 47.202 139.92 47.572 140.29 47.752 140.48 47.862 140.74 47.862 141 47.862 141.13 47.832 141.26 47.782 141.38 47.732 141.5 47.662 141.61 47.572 141.71 47.472 141.8 47.362 141.87 47.242 141.92 47.122 141.97 46.992 142 46.862 142M164.962 45C164.962 44.44 165.412 44 165.962 44 166.512 44 166.962 44.45 166.962 45 166.952 45.55 166.512 46 165.952 46 165.402 46 164.952 45.55 164.962 45zM160.962 45.23C160.922 44.67 161.342 44.2 161.893 44.15 162.442 44.11 162.922 44.53 162.962 45.08 163.002 45.63 162.592 46.1 162.032 46.15 162.032 46.15 162.032 46.15 162.042 46.15 162.012 46.15 161.992 46.15 161.962 46.15 161.442 46.15 161.002 45.75 160.962 45.23zM169.862 46.18C169.313 46.12 168.902 45.64 168.952 45.09 169.002 44.54 169.492 44.13 170.042 44.18 170.592 44.23 171.002 44.72 170.952 45.27 170.902 45.79 170.462 46.18 169.952 46.18 169.922 46.18 169.893 46.18 169.862 46.18zM157.002 45.73C156.922 45.18 157.302 44.67 157.842 44.59L157.842 44.6C158.393 44.52 158.902 44.9 158.972 45.44 159.052 45.99 158.672 46.5 158.132 46.58 158.082 46.58 158.032 46.59 157.982 46.59 157.492 46.59 157.072 46.23 157.002 45.73zM173.712 46.73C173.172 46.62 172.822 46.09 172.932 45.55 173.032 45.01 173.563 44.66 174.103 44.77 174.643 44.88 175.002 45.4 174.893 45.94 174.792 46.42 174.382 46.75 173.912 46.75 173.842 46.75 173.782 46.74 173.712 46.73zM153.063 46.46C152.952 45.92 153.302 45.4 153.853 45.29 154.393 45.18 154.912 45.53 155.023 46.07 155.132 46.61 154.782 47.14 154.242 47.25 154.182 47.26 154.112 47.27 154.042 47.27 153.582 47.27 153.162 46.94 153.063 46.46zM177.462 47.71C176.932 47.54 176.652 46.97 176.822 46.45 177.002 45.92 177.563 45.64 178.092 45.81 178.612 45.99 178.902 46.55 178.722 47.08 178.582 47.5 178.192 47.76 177.773 47.76 177.672 47.76 177.563 47.75 177.462 47.71zM149.182 47.41C149.042 46.87 149.362 46.33 149.902 46.19 150.432 46.05 150.982 46.38 151.112 46.91 151.252 47.45 150.932 47.99 150.393 48.13 150.313 48.15 150.232 48.16 150.152 48.16 149.702 48.16 149.292 47.86 149.182 47.41zM145.342 48.53C145.172 48 145.472 47.44 146.002 47.28 146.532 47.12 147.092 47.42 147.252 47.95 147.412 48.47 147.112 49.03 146.592 49.2 146.592 49.2 146.592 49.2 146.582 49.2 146.492 49.22 146.393 49.24 146.292 49.24 145.872 49.24 145.472 48.96 145.342 48.53zM181.023 49.18C180.532 48.93 180.332 48.33 180.572 47.83 180.822 47.34 181.422 47.14 181.922 47.39 182.412 47.63 182.612 48.23 182.362 48.73 182.192 49.08 181.842 49.28 181.472 49.28 181.322 49.28 181.172 49.25 181.023 49.18zM141.552 49.81C141.372 49.29 141.643 48.72 142.162 48.54 142.682 48.36 143.252 48.63 143.442 49.15 143.622 49.67 143.342 50.24 142.822 50.43 142.712 50.47 142.603 50.48 142.502 50.48 142.082 50.48 141.692 50.23 141.552 49.81zM184.313 51.15C183.862 50.83 183.762 50.2 184.082 49.75 184.402 49.3 185.032 49.2 185.482 49.52L185.472 49.52C185.922 49.84 186.032 50.47 185.712 50.91 185.512 51.19 185.212 51.33 184.893 51.33 184.692 51.33 184.492 51.27 184.313 51.15zM137.813 51.24C137.612 50.73 137.862 50.15 138.382 49.95 138.893 49.74 139.472 50 139.672 50.51 139.882 51.03 139.622 51.61 139.112 51.81 138.992 51.86 138.872 51.88 138.742 51.88 138.342 51.88 137.972 51.64 137.813 51.24zM134.132 52.8C133.912 52.3 134.143 51.71 134.652 51.49 135.162 51.27 135.742 51.5 135.962 52.01 136.182 52.51 135.952 53.1 135.442 53.32 135.313 53.38 135.182 53.41 135.052 53.41 134.662 53.41 134.292 53.18 134.132 52.8zM187.242 53.62C186.853 53.23 186.853 52.6 187.242 52.21 187.632 51.82 188.262 51.82 188.652 52.21 189.042 52.6 189.042 53.23 188.652 53.62 188.462 53.82 188.202 53.92 187.942 53.92 187.692 53.92 187.432 53.82 187.242 53.62zM130.502 54.48C130.262 53.98 130.482 53.38 130.982 53.15 131.482 52.91 132.072 53.13 132.313 53.63 132.542 54.13 132.332 54.72 131.832 54.96 131.692 55.02 131.552 55.05 131.402 55.05 131.032 55.05 130.672 54.84 130.502 54.48z"/>
    <path fill="#42494E" d="M81.016,75.574 L79.113,74.954 L79.443,73.944 L78.169,73.528 C76.629,73.026 75.635,71.655 75.636,70.035 C75.638,68.415 76.635,67.046 78.176,66.548 L79.451,66.134 L78.751,63.972 L77.475,64.385 C75.932,64.886 74.323,64.36 73.373,63.048 C72.422,61.737 72.424,60.044 73.377,58.734 L74.167,57.65 L72.33,56.313 L71.541,57.397 C70.587,58.707 68.975,59.228 67.436,58.726 C65.896,58.223 64.901,56.853 64.903,55.233 L64.904,53.892 L62.633,53.89 L62.631,55.232 C62.63,56.851 61.634,58.22 60.093,58.719 C58.55,59.218 56.94,58.693 55.99,57.382 L55.202,56.296 L53.363,57.63 L54.15,58.715 C55.102,60.027 55.1,61.72 54.147,63.029 C53.193,64.338 51.582,64.862 50.042,64.359 L48.767,63.943 L48.438,64.954 L46.535,64.334 L47.485,61.422 L50.661,62.457 C51.52,62.735 52.185,62.326 52.529,61.852 C52.875,61.378 53.057,60.613 52.531,59.889 L50.57,57.184 L55.647,53.503 L57.609,56.207 C58.134,56.932 58.916,56.996 59.477,56.816 C60.034,56.635 60.63,56.124 60.631,55.229 L60.635,51.888 L66.906,51.894 L66.903,55.235 C66.902,56.13 67.498,56.642 68.056,56.824 C68.613,57.006 69.398,56.943 69.924,56.219 L71.891,53.519 L76.96,57.21 L74.994,59.911 C74.468,60.634 74.647,61.4 74.992,61.874 C75.336,62.349 76.005,62.757 76.859,62.483 L80.038,61.454 L81.971,67.421 L78.791,68.45 C77.94,68.726 77.637,69.45 77.636,70.037 C77.636,70.624 77.938,71.349 78.788,71.627 L81.965,72.662 L81.016,75.574"/>
    <path fill="#E9886C" d="M71.813,72.651 L69.91,72.031 C71.017,68.635 69.155,64.973 65.761,63.867 C62.359,62.758 58.701,64.622 57.596,68.016 L55.693,67.396 C57.144,62.953 61.941,60.516 66.38,61.965 C70.823,63.413 73.261,68.207 71.813,72.651"/>
    <path fill="#E9886C" d="M63.784,78.435 C62.901,78.435 62.013,78.295 61.147,78.013 C58.995,77.311 57.245,75.813 56.219,73.795 C55.193,71.776 55.016,69.479 55.717,67.327 L57.619,67.947 C57.082,69.592 57.219,71.346 58.002,72.888 C58.786,74.431 60.123,75.575 61.768,76.112 C63.415,76.649 65.169,76.512 66.709,75.728 C68.252,74.945 69.397,73.607 69.932,71.963 L71.834,72.583 C71.132,74.735 69.634,76.485 67.615,77.511 C66.408,78.125 65.101,78.435 63.784,78.435"/>
    <path fill="#42494E" d="M66.893,88.091 L60.62,88.084 L60.624,84.742 C60.625,83.848 60.028,83.335 59.471,83.153 C58.916,82.973 58.131,83.035 57.604,83.758 L55.637,86.46 L50.567,82.767 L52.533,80.066 C53.06,79.343 52.88,78.578 52.535,78.103 C52.192,77.628 51.519,77.217 50.668,77.494 L47.489,78.523 L45.558,72.556 L48.737,71.527 C49.588,71.251 49.892,70.527 49.893,69.94 C49.894,69.354 49.591,68.628 48.74,68.35 L45.564,67.315 L46.63,64.044 L48.532,64.664 L48.085,66.033 L49.359,66.449 C50.9,66.951 51.895,68.323 51.893,69.943 C51.891,71.562 50.894,72.931 49.353,73.43 L48.077,73.843 L48.776,76.005 L50.053,75.592 C51.592,75.092 53.203,75.617 54.155,76.929 C55.105,78.241 55.104,79.934 54.15,81.243 L53.36,82.327 L55.197,83.665 L55.986,82.581 C56.94,81.27 58.549,80.75 60.091,81.252 C61.631,81.754 62.625,83.125 62.624,84.745 L62.622,86.086 L64.895,86.089 L64.896,84.747 C64.897,83.128 65.895,81.758 67.435,81.259 C68.976,80.761 70.587,81.285 71.537,82.597 L72.324,83.683 L74.164,82.35 L73.377,81.264 C72.426,79.952 72.428,78.259 73.381,76.949 C74.335,75.64 75.944,75.117 77.485,75.62 L78.761,76.036 L79.255,74.52 L81.157,75.14 L80.042,78.558 L76.865,77.522 C76.012,77.242 75.343,77.653 74.998,78.127 C74.652,78.601 74.471,79.365 74.996,80.09 L76.957,82.795 L71.879,86.476 L69.918,83.771 C69.394,83.047 68.61,82.983 68.051,83.162 C67.493,83.343 66.897,83.855 66.896,84.749 L66.893,88.091"/>
    <path fill="#FACD60" d="M67.71,70.089 C67.71,72.298 65.919,74.089 63.71,74.089 C61.501,74.089 59.71,72.298 59.71,70.089 C59.71,67.88 61.501,66.089 63.71,66.089 C65.919,66.089 67.71,67.88 67.71,70.089"/>
    <path fill="#FACD60" d="M63.71,66.589 C61.78,66.589 60.21,68.159 60.21,70.089 C60.21,72.019 61.78,73.589 63.71,73.589 C65.64,73.589 67.21,72.019 67.21,70.089 C67.21,68.159 65.64,66.589 63.71,66.589 Z M63.71,74.589 C61.229,74.589 59.21,72.571 59.21,70.089 C59.21,67.608 61.229,65.589 63.71,65.589 C66.191,65.589 68.21,67.608 68.21,70.089 C68.21,72.571 66.191,74.589 63.71,74.589 Z"/>
    <path fill="#42494E" d="M122.682,132.63 L105.418,149.894 L96.935,141.408 L112.863,125.481 C112.867,124.005 113.302,122.633 114.042,121.474 L95.521,139.994 C95.143,140.372 94.935,140.875 94.935,141.41 C94.935,141.945 95.144,142.447 95.521,142.823 L104.004,151.308 C104.394,151.698 104.906,151.893 105.418,151.893 C105.93,151.893 106.442,151.698 106.832,151.308 L126.345,131.796 L125.501,130.953 C124.705,131.704 123.748,132.284 122.682,132.63"/>
    <path fill="#42494E" d="M112.862,125.5 C112.862,124.241 113.176,123.056 113.725,122.014 L113.626,109.173 C113.624,108.906 113.726,108.655 113.912,108.465 C114.1,108.274 114.351,108.168 114.618,108.166 L124.614,108.083 C124.88,108.072 125.134,108.182 125.324,108.37 C125.515,108.557 125.621,108.807 125.623,109.074 L125.71,120.245 C126.748,121.302 127.471,122.666 127.74,124.188 L127.623,109.059 C127.616,108.257 127.299,107.506 126.727,106.944 C126.155,106.382 125.364,106.083 124.598,106.083 L114.601,106.166 C113.8,106.173 113.049,106.49 112.487,107.062 C111.925,107.633 111.619,108.389 111.626,109.19 L111.755,125.941 L112.884,125.932 C112.876,125.789 112.862,125.646 112.862,125.5"/>
    <polygon fill="#434A4F" points="138.862 33 140.862 33 140.862 29 138.862 29"/>
    <polygon fill="#434A4F" points="138.862 43 140.862 43 140.862 39 138.862 39"/>
    <polygon fill="#434A4F" points="142.862 37 146.862 37 146.862 35 142.862 35"/>
    <polygon fill="#434A4F" points="132.862 37 136.862 37 136.862 35 132.862 35"/>
    <path fill="#434A4F" d="M117.777 56C105.214 56 93.434 59.392 83.277 65.283 83.442 65.965 83.574 66.658 83.667 67.365 93.666 61.425 105.327 58 117.777 58 130.642 58 142.667 61.653 152.883 67.964 153.203 67.377 153.555 66.81 153.93 66.261 143.409 59.762 131.026 56 117.777 56M178.165 95.989C182.402 104.772 184.777 114.614 184.777 125 184.777 161.945 154.722 192 117.777 192 80.833 192 50.777 161.945 50.777 125 50.777 112.077 54.465 100.003 60.829 89.758 60.118 89.649 59.421 89.505 58.737 89.324 52.419 99.741 48.777 111.953 48.777 125 48.777 163.047 79.73 194 117.777 194 155.824 194 186.777 163.047 186.777 125 186.777 114.305 184.331 104.171 179.97 95.127 179.385 95.444 178.783 95.73 178.165 95.989"/>
  </g>
</svg>
