<svg xmlns="http://www.w3.org/2000/svg" width="250" height="250" viewBox="0 0 250 250">
  <g fill="none" fill-rule="evenodd">
    <polyline fill="#FACD60" points="122.213 58.104 122.213 82.107 104.19 82.107 104.19 172.105 56.212 172.105 56.212 58.104 122.213 58.104"/>
    <polyline fill="#FACD60" points="178.99 85.011 178.99 105.011 198.99 105.011"/>
    <path fill="#DDDED9" d="M148.155,88.011 L159.146,88.011 L159.134,187.003 L110.155,187.003 L110.155,178.011 L148.155,178.011 C148.155,178.011 147.989,88.178 148.155,88.011"/>
    <path fill="#434A4F" d="M175.093 81.079C174.837 81.079 174.582 80.982 174.386 80.786L168.954 75.356 184.403 75.356C188.985 75.356 192.712 71.628 192.712 67.046 192.712 62.464 188.985 58.736 184.403 58.736 183.85 58.736 183.403 58.288 183.403 57.736 183.403 57.184 183.85 56.736 184.403 56.736 190.087 56.736 194.712 61.361 194.712 67.046 194.712 72.731 190.087 77.356 184.403 77.356L173.784 77.356 175.8 79.372C176.191 79.763 176.191 80.396 175.8 80.786 175.605 80.982 175.349 81.079 175.093 81.079M162.059 77.355C156.374 77.355 151.749 72.73 151.749 67.045 151.749 61.36 156.374 56.735 162.058 56.735L172.678 56.736 170.662 54.719C170.271 54.328 170.271 53.695 170.662 53.305 171.052 52.914 171.685 52.914 172.076 53.305L177.506 58.736 162.058 58.735C157.476 58.735 153.749 62.463 153.749 67.045 153.749 71.627 157.477 75.355 162.059 75.355 162.612 75.355 163.059 75.803 163.059 76.355 163.059 76.908 162.612 77.355 162.059 77.355M145.99 176.011L124.99 176.011C124.437 176.011 123.99 175.564 123.99 175.011 123.99 174.458 124.437 174.011 124.99 174.011L143.99 174.011 143.99 75.425 124.576 56.011 53.99 56.011 53.99 174.011 98.99 174.011C99.542 174.011 99.99 174.458 99.99 175.011 99.99 175.564 99.542 176.011 98.99 176.011L51.99 176.011 51.99 54.011 125.404 54.011 145.99 74.597 145.99 176.011"/>
    <path fill="#434A4F" d="M144.99 76.011L123.99 76.011 123.99 55.011C123.99 54.459 124.437 54.011 124.99 54.011 125.542 54.011 125.99 54.459 125.99 55.011L125.99 74.011 144.99 74.011C145.542 74.011 145.99 74.459 145.99 75.011 145.99 75.563 145.542 76.011 144.99 76.011M199.99 206.011L105.99 206.011 105.99 84.011 120.99 84.011C121.542 84.011 121.99 84.459 121.99 85.011 121.99 85.563 121.542 86.011 120.99 86.011L107.99 86.011 107.99 204.011 197.99 204.011 197.99 105.425 178.576 86.011 152.99 86.011C152.437 86.011 151.99 85.563 151.99 85.011 151.99 84.459 152.437 84.011 152.99 84.011L179.404 84.011 199.99 104.597 199.99 206.011"/>
    <path fill="#434A4F" d="M119.226 175.011L123.99 177.393 123.99 172.629 119.226 175.011zM125.99 180.629L114.753 175.011 125.99 169.393 125.99 180.629zM121.99 82.629L121.99 87.393 126.753 85.011 121.99 82.629zM119.99 90.629L119.99 79.393 131.226 85.011 119.99 90.629zM148.99 86.011C148.86 86.011 148.73 85.991 148.61 85.931 148.48 85.881 148.379 85.811 148.28 85.721 148.099 85.531 147.99 85.281 147.99 85.011 147.99 84.881 148.02 84.751 148.07 84.631 148.12 84.511 148.19 84.401 148.28 84.301 148.379 84.211 148.48 84.141 148.61 84.091 148.79 84.011 148.99 83.991 149.179 84.031 149.25 84.041 149.309 84.061 149.37 84.091 149.429 84.111 149.49 84.141 149.549 84.181 149.599 84.211 149.65 84.261 149.7 84.301 149.79 84.401 149.86 84.511 149.91 84.631 149.959 84.751 149.99 84.881 149.99 85.011 149.99 85.081 149.98 85.141 149.969 85.211 149.959 85.271 149.94 85.331 149.91 85.391 149.889 85.451 149.86 85.511 149.82 85.571 149.78 85.621 149.74 85.671 149.7 85.721 149.65 85.761 149.599 85.801 149.549 85.841 149.49 85.881 149.429 85.911 149.37 85.931 149.309 85.961 149.25 85.981 149.179 85.991 149.12 86.001 149.049 86.011 148.99 86.011M102.99 176.011C102.86 176.011 102.73 175.981 102.61 175.931 102.48 175.881 102.379 175.811 102.28 175.721 102.19 175.62 102.12 175.511 102.07 175.391 102.009 175.271 101.99 175.141 101.99 175.011 101.99 174.881 102.02 174.751 102.07 174.631 102.12 174.511 102.19 174.401 102.28 174.301 102.52 174.071 102.86 173.961 103.179 174.031 103.25 174.041 103.309 174.061 103.37 174.091 103.429 174.111 103.49 174.141 103.549 174.181 103.599 174.211 103.65 174.261 103.7 174.301 103.879 174.491 103.99 174.751 103.99 175.011 103.99 175.141 103.969 175.271 103.91 175.391 103.86 175.511 103.79 175.62 103.7 175.721 103.599 175.811 103.49 175.881 103.37 175.931 103.25 175.981 103.12 176.011 102.99 176.011M115.015 107.019C113.913 107.019 113.015 107.916 113.015 109.019L113.015 111.019C113.015 112.122 113.913 113.019 115.015 113.019 116.118 113.019 117.015 112.122 117.015 111.019L117.015 109.019C117.015 107.916 116.118 107.019 115.015 107.019zM115.015 115.019C112.809 115.019 111.015 113.224 111.015 111.019L111.015 109.019C111.015 106.813 112.809 105.019 115.015 105.019 117.221 105.019 119.015 106.813 119.015 109.019L119.015 111.019C119.015 113.224 117.221 115.019 115.015 115.019zM124.015 115.019C123.462 115.019 123.015 114.571 123.015 114.019L123.015 107.019 122.015 107.019C121.462 107.019 121.015 106.571 121.015 106.019 121.015 105.467 121.462 105.019 122.015 105.019L125.015 105.019 125.015 114.019C125.015 114.571 124.568 115.019 124.015 115.019M130.015 115.019C129.462 115.019 129.015 114.571 129.015 114.019L129.015 107.019 128.015 107.019C127.462 107.019 127.015 106.571 127.015 106.019 127.015 105.467 127.462 105.019 128.015 105.019L131.015 105.019 131.015 114.019C131.015 114.571 130.568 115.019 130.015 115.019M137.015 107.019C135.913 107.019 135.015 107.916 135.015 109.019L135.015 111.019C135.015 112.122 135.913 113.019 137.015 113.019 138.118 113.019 139.015 112.122 139.015 111.019L139.015 109.019C139.015 107.916 138.118 107.019 137.015 107.019zM137.015 115.019C134.809 115.019 133.015 113.224 133.015 111.019L133.015 109.019C133.015 106.813 134.809 105.019 137.015 105.019 139.221 105.019 141.015 106.813 141.015 109.019L141.015 111.019C141.015 113.224 139.221 115.019 137.015 115.019zM121.015 120.019C119.913 120.019 119.015 120.916 119.015 122.019L119.015 124.02C119.015 125.122 119.913 126.02 121.015 126.02 122.118 126.02 123.015 125.122 123.015 124.02L123.015 122.019C123.015 120.916 122.118 120.019 121.015 120.019zM121.015 128.02C118.809 128.02 117.015 126.226 117.015 124.02L117.015 122.019C117.015 119.814 118.809 118.019 121.015 118.019 123.221 118.019 125.015 119.814 125.015 122.019L125.015 124.02C125.015 126.226 123.221 128.02 121.015 128.02zM130.015 128.02C129.462 128.02 129.015 127.573 129.015 127.02L129.015 120.019 128.015 120.019C127.462 120.019 127.015 119.572 127.015 119.019 127.015 118.467 127.462 118.019 128.015 118.019L131.015 118.019 131.015 127.02C131.015 127.573 130.568 128.02 130.015 128.02M137.015 120.019C135.913 120.019 135.015 120.916 135.015 122.019L135.015 124.02C135.015 125.122 135.913 126.02 137.015 126.02 138.118 126.02 139.015 125.122 139.015 124.02L139.015 122.019C139.015 120.916 138.118 120.019 137.015 120.019zM137.015 128.02C134.809 128.02 133.015 126.226 133.015 124.02L133.015 122.019C133.015 119.814 134.809 118.019 137.015 118.019 139.221 118.019 141.015 119.814 141.015 122.019L141.015 124.02C141.015 126.226 139.221 128.02 137.015 128.02zM114.015 128.02C113.462 128.02 113.015 127.573 113.015 127.02L113.015 120.019 112.015 120.019C111.462 120.019 111.015 119.572 111.015 119.019 111.015 118.467 111.462 118.019 112.015 118.019L115.015 118.019 115.015 127.02C115.015 127.573 114.568 128.02 114.015 128.02M121.019 133.035C119.917 133.035 119.019 133.932 119.019 135.035L119.019 137.035C119.019 138.137 119.917 139.035 121.019 139.035 122.122 139.035 123.019 138.137 123.019 137.035L123.019 135.035C123.019 133.932 122.122 133.035 121.019 133.035zM121.019 141.035C118.813 141.035 117.019 139.241 117.019 137.035L117.019 135.035C117.019 132.828 118.813 131.035 121.019 131.035 123.225 131.035 125.019 132.828 125.019 135.035L125.019 137.035C125.019 139.241 123.225 141.035 121.019 141.035zM114.009 141.035C113.457 141.035 113.009 140.587 113.009 140.035L113.009 133.035 112.009 133.035C111.457 133.035 111.009 132.587 111.009 132.035 111.009 131.482 111.457 131.035 112.009 131.035L115.009 131.035 115.009 140.035C115.009 140.587 114.562 141.035 114.009 141.035M139.021 141.035C138.468 141.035 138.021 140.587 138.021 140.035L138.021 133.035 137.021 133.035C136.468 133.035 136.021 132.587 136.021 132.035 136.021 131.482 136.468 131.035 137.021 131.035L140.021 131.035 140.021 140.035C140.021 140.587 139.574 141.035 139.021 141.035M131.012 133.035C129.91 133.035 129.012 133.932 129.012 135.035L129.012 137.035C129.012 138.137 129.91 139.035 131.012 139.035 132.115 139.035 133.012 138.137 133.012 137.035L133.012 135.035C133.012 133.932 132.115 133.035 131.012 133.035zM131.012 141.035C128.806 141.035 127.012 139.241 127.012 137.035L127.012 135.035C127.012 132.828 128.806 131.035 131.012 131.035 133.218 131.035 135.012 132.828 135.012 135.035L135.012 137.035C135.012 139.241 133.218 141.035 131.012 141.035zM125.022 146.042C123.919 146.042 123.022 146.94 123.022 148.042L123.022 150.042C123.022 151.145 123.919 152.042 125.022 152.042 126.125 152.042 127.022 151.145 127.022 150.042L127.022 148.042C127.022 146.94 126.125 146.042 125.022 146.042zM125.022 154.042C122.816 154.042 121.022 152.248 121.022 150.042L121.022 148.042C121.022 145.836 122.816 144.042 125.022 144.042 127.228 144.042 129.022 145.836 129.022 148.042L129.022 150.042C129.022 152.248 127.228 154.042 125.022 154.042zM115.015 146.042C113.913 146.042 113.015 146.94 113.015 148.042L113.015 150.042C113.015 151.145 113.913 152.042 115.015 152.042 116.118 152.042 117.015 151.145 117.015 150.042L117.015 148.042C117.015 146.94 116.118 146.042 115.015 146.042zM115.015 154.042C112.809 154.042 111.015 152.248 111.015 150.042L111.015 148.042C111.015 145.836 112.809 144.042 115.015 144.042 117.221 144.042 119.015 145.836 119.015 148.042L119.015 150.042C119.015 152.248 117.221 154.042 115.015 154.042zM133.017 154.042C132.464 154.042 132.017 153.595 132.017 153.042L132.017 146.042 131.017 146.042C130.464 146.042 130.017 145.595 130.017 145.042 130.017 144.49 130.464 144.042 131.017 144.042L134.017 144.042 134.017 153.042C134.017 153.595 133.57 154.042 133.017 154.042M139.021 154.042C138.468 154.042 138.021 153.595 138.021 153.042L138.021 146.042 137.021 146.042C136.468 146.042 136.021 145.595 136.021 145.042 136.021 144.49 136.468 144.042 137.021 144.042L140.021 144.042 140.021 153.042C140.021 153.595 139.574 154.042 139.021 154.042"/>
    <polygon fill="#434A4F" points="162.99 134.011 186.99 134.011 186.99 132.011 162.99 132.011"/>
    <polygon fill="#434A4F" points="162.99 138.011 186.99 138.011 186.99 136.011 162.99 136.011"/>
    <polygon fill="#434A4F" points="162.99 142.011 186.99 142.011 186.99 140.011 162.99 140.011"/>
    <polygon fill="#434A4F" points="162.99 158.011 186.99 158.011 186.99 156.011 162.99 156.011"/>
    <polygon fill="#434A4F" points="162.99 162.011 186.99 162.011 186.99 160.011 162.99 160.011"/>
    <polygon fill="#434A4F" points="162.99 166.011 186.99 166.011 186.99 164.011 162.99 164.011"/>
    <path fill="#42494E" d="M94.303,180.684 L92.401,180.065 L92.73,179.053 L91.456,178.638 C89.915,178.135 88.921,176.764 88.922,175.145 C88.924,173.525 89.921,172.157 91.462,171.658 L92.738,171.244 L92.038,169.082 L90.762,169.495 C89.22,169.994 87.611,169.47 86.661,168.159 C85.71,166.847 85.711,165.154 86.665,163.844 L87.455,162.759 L85.617,161.422 L84.828,162.507 C83.873,163.817 82.259,164.334 80.723,163.836 C79.183,163.334 78.189,161.963 78.19,160.343 L78.192,159.001 L75.919,158.999 L75.919,160.341 C75.916,161.961 74.919,163.329 73.379,163.828 C71.838,164.327 70.227,163.802 69.277,162.492 L68.49,161.406 L66.651,162.74 L67.438,163.825 C68.389,165.137 68.386,166.83 67.433,168.14 C66.479,169.45 64.87,169.967 63.33,169.469 L62.053,169.053 L61.725,170.063 L59.823,169.444 L60.772,166.532 L63.949,167.567 C64.798,167.843 65.47,167.437 65.816,166.963 C66.162,166.489 66.344,165.723 65.819,164.998 L63.856,162.294 L68.935,158.613 L70.896,161.318 C71.42,162.042 72.203,162.105 72.763,161.926 C73.321,161.745 73.918,161.234 73.919,160.339 L73.921,156.997 L80.194,157.003 L80.19,160.345 C80.189,161.24 80.785,161.752 81.343,161.934 C81.9,162.119 82.685,162.053 83.21,161.329 L85.177,158.629 L90.248,162.32 L88.282,165.022 C87.755,165.744 87.935,166.51 88.28,166.985 C88.623,167.459 89.295,167.868 90.145,167.593 L93.325,166.563 L95.257,172.531 L92.079,173.56 C91.227,173.835 90.923,174.56 90.922,175.147 C90.922,175.733 91.224,176.458 92.075,176.736 L95.252,177.772 L94.303,180.684"/>
    <path fill="#42494E" d="M85.099,177.76 L83.197,177.141 C84.303,173.745 82.442,170.082 79.047,168.977 C77.404,168.441 75.648,168.577 74.105,169.36 C72.563,170.144 71.419,171.481 70.883,173.125 L68.981,172.506 C69.683,170.353 71.181,168.603 73.199,167.577 C75.218,166.55 77.517,166.375 79.666,167.075 C84.11,168.523 86.547,173.317 85.099,177.76"/>
    <path fill="#42494E" d="M77.072,183.545 C76.187,183.545 75.299,183.405 74.435,183.123 C69.991,181.674 67.555,176.88 69.003,172.437 L70.906,173.056 C69.798,176.452 71.66,180.115 75.054,181.221 C78.451,182.329 82.113,180.468 83.219,177.073 L85.122,177.692 C84.419,179.845 82.921,181.595 80.903,182.621 C79.695,183.235 78.388,183.545 77.072,183.545"/>
    <path fill="#42494E" d="M80.179,193.201 L73.908,193.194 L73.911,189.853 C73.912,188.957 73.316,188.445 72.758,188.263 C72.2,188.082 71.416,188.145 70.891,188.869 L68.923,191.569 L63.854,187.877 L65.82,185.175 C66.346,184.452 66.166,183.687 65.822,183.212 C65.478,182.738 64.81,182.327 63.956,182.604 L60.777,183.632 L58.845,177.665 L62.024,176.637 C62.875,176.362 63.179,175.636 63.179,175.05 C63.18,174.463 62.877,173.738 62.027,173.459 L58.851,172.424 L59.916,169.155 L61.819,169.774 L61.373,171.143 L62.647,171.558 C64.188,172.061 65.181,173.433 65.179,175.052 C65.177,176.672 64.18,178.04 62.639,178.539 L61.365,178.952 L62.064,181.115 L63.34,180.702 C64.882,180.203 66.491,180.727 67.442,182.038 C68.392,183.35 68.39,185.043 67.437,186.353 L66.647,187.438 L68.484,188.776 L69.274,187.691 C70.227,186.382 71.838,185.858 73.378,186.362 C74.919,186.864 75.913,188.235 75.911,189.855 L75.91,191.196 L78.181,191.199 L78.183,189.857 C78.185,188.237 79.182,186.868 80.723,186.369 C82.265,185.871 83.873,186.396 84.824,187.707 L85.612,188.793 L87.452,187.459 L86.664,186.373 C85.713,185.062 85.715,183.369 86.669,182.06 C87.622,180.75 89.231,180.23 90.773,180.73 L92.048,181.146 L92.543,179.629 L94.445,180.25 L93.33,183.667 L90.154,182.632 C89.294,182.352 88.63,182.763 88.286,183.237 C87.94,183.711 87.758,184.476 88.283,185.2 L90.245,187.905 L85.166,191.586 L83.205,188.881 C82.68,188.158 81.898,188.092 81.339,188.272 C80.781,188.452 80.184,188.964 80.183,189.859 L80.179,193.201"/>
    <path fill="#42494E" d="M76.997,172.199 C75.342,172.199 73.997,173.544 73.997,175.199 C73.997,176.853 75.342,178.199 76.997,178.199 C78.651,178.199 79.997,176.853 79.997,175.199 C79.997,173.544 78.651,172.199 76.997,172.199 Z M76.997,180.199 C74.24,180.199 71.997,177.955 71.997,175.199 C71.997,172.442 74.24,170.199 76.997,170.199 C79.753,170.199 81.997,172.442 81.997,175.199 C81.997,177.955 79.753,180.199 76.997,180.199 Z"/>
    <path fill="#FACD60" d="M92.99 200.011C92.99 201.668 91.647 203.011 89.99 203.011 88.333 203.011 86.99 201.668 86.99 200.011 86.99 198.354 88.333 197.011 89.99 197.011 91.647 197.011 92.99 198.354 92.99 200.011M46.99 164.011C46.99 165.668 45.647 167.011 43.99 167.011 42.333 167.011 40.99 165.668 40.99 164.011 40.99 162.354 42.333 161.011 43.99 161.011 45.647 161.011 46.99 162.354 46.99 164.011M194.99 83.011C194.99 84.116 195.885 85.011 196.99 85.011 198.094 85.011 198.99 84.116 198.99 83.011 198.99 81.906 198.094 81.011 196.99 81.011 195.885 81.011 194.99 81.906 194.99 83.011"/>
    <polygon fill="#434A4F" points="67.991 102.011 91.991 102.011 91.991 100.011 67.991 100.011"/>
    <polygon fill="#434A4F" points="67.991 106.011 91.991 106.011 91.991 104.011 67.991 104.011"/>
    <polygon fill="#434A4F" points="67.991 110.011 91.991 110.011 91.991 108.011 67.991 108.011"/>
    <polygon fill="#434A4F" points="67.991 126.011 91.991 126.011 91.991 124.011 67.991 124.011"/>
    <polygon fill="#434A4F" points="67.991 130.011 91.991 130.011 91.991 128.011 67.991 128.011"/>
    <polygon fill="#434A4F" points="67.991 134.011 91.991 134.011 91.991 132.011 67.991 132.011"/>
    <polygon fill="#434A4F" points="34.947 130.017 36.947 130.017 36.947 126.017 34.947 126.017"/>
    <polygon fill="#434A4F" points="34.947 140.017 36.947 140.017 36.947 136.017 34.947 136.017"/>
    <polygon fill="#434A4F" points="38.947 134.017 42.947 134.017 42.947 132.017 38.947 132.017"/>
    <polygon fill="#434A4F" points="28.947 134.017 32.947 134.017 32.947 132.017 28.947 132.017"/>
    <polygon fill="#434A4F" points="213.053 120.011 215.053 120.011 215.053 116.011 213.053 116.011"/>
    <polygon fill="#434A4F" points="213.053 130.011 215.053 130.011 215.053 126.011 213.053 126.011"/>
    <polygon fill="#434A4F" points="217.053 124.011 221.053 124.011 221.053 122.011 217.053 122.011"/>
    <polygon fill="#434A4F" points="207.053 124.011 211.053 124.011 211.053 122.011 207.053 122.011"/>
    <path fill="#FACD60" d="M204.996,103.023 C204.996,104.128 205.891,105.023 206.996,105.023 C208.1,105.023 208.996,104.128 208.996,103.023 C208.996,101.919 208.1,101.023 206.996,101.023 C205.891,101.023 204.996,101.919 204.996,103.023"/>
    <polygon fill="#434A4F" points="183.036 189.052 185.036 189.052 185.036 185.052 183.036 185.052"/>
    <polygon fill="#434A4F" points="183.036 199.052 185.036 199.052 185.036 195.052 183.036 195.052"/>
    <polygon fill="#434A4F" points="187.036 193.052 191.036 193.052 191.036 191.052 187.036 191.052"/>
    <polygon fill="#434A4F" points="177.036 193.052 181.036 193.052 181.036 191.052 177.036 191.052"/>
    <path fill="#FACD60" d="M114.942,45.989 C114.942,47.093 115.837,47.989 116.942,47.989 C118.046,47.989 118.942,47.093 118.942,45.989 C118.942,44.884 118.046,43.989 116.942,43.989 C115.837,43.989 114.942,44.884 114.942,45.989"/>
  </g>
</svg>
