<svg xmlns="http://www.w3.org/2000/svg" width="250" height="250" viewBox="0 0 250 250">
  <g fill="none" fill-rule="evenodd">
    <path fill="#FACD60" d="M44.5,137.24 C44.5,127.299 52.559,119.24 62.5,119.24 C72.441,119.24 80.5,127.299 80.5,137.24 C80.5,147.181 72.441,155.24 62.5,155.24 C52.559,155.24 44.5,147.181 44.5,137.24"/>
    <path fill="#42494E" d="M62.5,152.24 C54.236,152.24 47.509,145.523 47.499,137.257 C47.496,133.78 48.708,130.39 50.914,127.711 C51.265,127.285 51.896,127.222 52.322,127.576 C52.748,127.926 52.809,128.556 52.458,128.983 C50.547,131.303 49.496,134.242 49.5,137.255 C49.508,144.417 55.338,150.24 62.5,150.24 C62.505,150.24 62.509,150.24 62.515,150.24 C69.683,150.232 75.508,144.393 75.499,137.224 C75.491,130.062 69.66,124.24 62.499,124.24 C62.494,124.24 62.489,124.24 62.484,124.24 C61.179,124.242 59.89,124.436 58.654,124.817 L57.829,125.168 C57.323,125.386 56.734,125.143 56.52,124.633 C56.307,124.125 56.546,123.539 57.056,123.325 L57.973,122.94 C59.49,122.466 60.977,122.242 62.481,122.24 C62.487,122.24 62.493,122.24 62.499,122.24 C70.762,122.24 77.49,128.957 77.499,137.222 C77.509,145.494 70.788,152.23 62.517,152.24 C62.511,152.24 62.505,152.24 62.5,152.24"/>
    <path fill="#42494E" d="M65.487,144.213 L59.929,144.213 C58.169,144.213 56.738,142.775 56.738,141.006 C56.738,140.454 57.186,140.006 57.738,140.006 C58.29,140.006 58.738,140.454 58.738,141.006 C58.738,141.672 59.272,142.213 59.929,142.213 L65.487,142.213 C66.319,142.213 66.995,141.53 66.995,140.69 L66.995,139.74 C66.995,138.909 66.319,138.232 65.487,138.232 L60.006,138.232 C58.072,138.232 56.498,136.659 56.498,134.724 L56.498,133.772 C56.498,131.837 58.072,130.264 60.006,130.264 L65.898,130.264 C67.424,130.264 68.665,131.505 68.665,133.032 C68.665,133.584 68.217,134.032 67.665,134.032 C67.113,134.032 66.665,133.584 66.665,133.032 C66.665,132.609 66.321,132.264 65.898,132.264 L60.006,132.264 C59.175,132.264 58.498,132.941 58.498,133.772 L58.498,134.724 C58.498,135.555 59.175,136.232 60.006,136.232 L65.487,136.232 C67.421,136.232 68.995,137.805 68.995,139.74 L68.995,140.69 C68.995,142.632 67.421,144.213 65.487,144.213"/>
    <path fill="#42494E" d="M63 147.24C62.448 147.24 62 146.792 62 146.24L62 128.24C62 127.687 62.448 127.24 63 127.24 63.552 127.24 64 127.687 64 128.24L64 146.24C64 146.792 63.552 147.24 63 147.24M54.49 127.25C54.22 127.25 53.97 127.15 53.78 126.959 53.59 126.77 53.49 126.52 53.49 126.25 53.49 126.12 53.51 125.99 53.56 125.87 53.61 125.74 53.69 125.639 53.78 125.54 54.15 125.169 54.82 125.169 55.19 125.54 55.29 125.639 55.36 125.75 55.41 125.87 55.46 125.99 55.49 126.12 55.49 126.25 55.49 126.509 55.38 126.77 55.19 126.959 55.01 127.15 54.75 127.25 54.49 127.25"/>
    <polyline fill="#75C7D0" points="140.501 138.239 122.5 156.24 104.499 138.239 60.5 138.239 60.5 198.24 184.5 198.24 184.5 138.239 140.501 138.239"/>
    <path fill="#434A4F" d="M128.325,181.404 L117.277,181.404 C114.326,181.404 111.924,178.988 111.924,176.017 L113.924,176.017 C113.924,177.884 115.429,179.404 117.277,179.404 L128.325,179.404 C130.522,179.404 132.31,177.602 132.31,175.388 L132.31,173.5 C132.31,171.302 130.522,169.515 128.325,169.515 L117.432,169.515 C114.132,169.515 111.447,166.831 111.447,163.531 L111.447,161.64 C111.447,158.34 114.132,155.656 117.432,155.656 L129.141,155.656 C131.629,155.656 133.653,157.68 133.653,160.167 L131.653,160.167 C131.653,158.783 130.526,157.656 129.141,157.656 L117.432,157.656 C115.235,157.656 113.447,159.443 113.447,161.64 L113.447,163.531 C113.447,165.728 115.235,167.515 117.432,167.515 L128.325,167.515 C131.625,167.515 134.31,170.2 134.31,173.5 L134.31,175.388 C134.31,178.706 131.625,181.404 128.325,181.404"/>
    <polyline fill="#434A4F" points="122.5 156.24 122.5 186.24 124.5 186.24 124.5 154.24 122.5 156.24"/>
    <polygon fill="#434A4F" points="142.5 165.24 156.5 165.24 156.5 163.24 142.5 163.24"/>
    <polygon fill="#434A4F" points="142.5 169.24 156.5 169.24 156.5 167.24 142.5 167.24"/>
    <polygon fill="#434A4F" points="142.5 173.24 156.5 173.24 156.5 171.24 142.5 171.24"/>
    <polygon fill="#434A4F" points="92.5 165.24 106.5 165.24 106.5 163.24 92.5 163.24"/>
    <polygon fill="#434A4F" points="92.5 169.24 106.5 169.24 106.5 167.24 92.5 167.24"/>
    <polygon fill="#434A4F" points="92.5 173.24 106.5 173.24 106.5 171.24 92.5 171.24"/>
    <path fill="#434A4F" d="M164.5 194.259L162.5 194.259C162.5 184.334 170.574 176.259 180.5 176.259L180.5 178.259C171.677 178.259 164.5 185.437 164.5 194.259M64.44 160.238L64.44 158.238C73.262 158.238 80.44 151.06 80.44 142.238L82.44 142.238C82.44 152.163 74.365 160.238 64.44 160.238M82.44 194.259L80.44 194.259C80.44 185.437 73.262 178.259 64.44 178.259L64.44 176.259C74.365 176.259 82.44 184.334 82.44 194.259"/>
    <polyline fill="#434A4F" points="137.501 141.239 135.501 143.239 179.5 143.239 179.5 193.24 65.5 193.24 65.5 143.239 109.499 143.239 107.499 141.239 63.5 141.239 63.5 195.24 181.5 195.24 181.5 141.239 137.501 141.239"/>
    <path fill="#FACD60" d="M157.5,197.24 C157.5,183.986 168.245,173.24 181.5,173.24 C194.755,173.24 205.5,183.986 205.5,197.24 C205.5,210.495 194.755,221.24 181.5,221.24 C168.245,221.24 157.5,210.495 157.5,197.24"/>
    <path fill="#42494E" d="M181.499,216.907 C176.254,216.907 171.322,214.868 167.609,211.163 C163.89,207.452 161.838,202.515 161.833,197.262 C161.827,192.705 163.417,188.26 166.309,184.747 C166.66,184.32 167.29,184.258 167.717,184.61 C168.143,184.961 168.204,185.591 167.853,186.018 C165.255,189.173 163.828,193.167 163.833,197.26 C163.838,201.979 165.681,206.414 169.021,209.747 C172.357,213.075 176.788,214.907 181.499,214.907 C181.505,214.907 181.513,214.907 181.52,214.907 C191.261,214.895 199.177,206.96 199.166,197.219 C199.16,192.501 197.317,188.066 193.977,184.733 C190.641,181.405 186.21,179.573 181.5,179.573 C181.493,179.573 181.485,179.573 181.479,179.573 C179.703,179.576 177.952,179.839 176.274,180.358 L175.143,180.837 C174.635,181.049 174.048,180.811 173.834,180.3 C173.621,179.792 173.861,179.206 174.371,178.992 L175.593,178.48 C177.552,177.87 179.5,177.576 181.476,177.573 C181.483,177.573 181.492,177.573 181.499,177.573 C186.744,177.573 191.676,179.612 195.389,183.317 C199.108,187.028 201.16,191.964 201.166,197.217 C201.178,208.061 192.366,216.893 181.522,216.907 C181.514,216.907 181.506,216.907 181.499,216.907"/>
    <path fill="#42494E" d="M185.483,206.205 L178.071,206.205 C175.91,206.205 174.151,204.436 174.151,202.261 C174.151,201.709 174.599,201.261 175.151,201.261 C175.704,201.261 176.151,201.709 176.151,202.261 C176.151,203.333 177.013,204.205 178.071,204.205 L185.483,204.205 C186.775,204.205 187.827,203.143 187.827,201.839 L187.827,200.573 C187.827,199.281 186.775,198.229 185.483,198.229 L178.175,198.229 C175.78,198.229 173.831,196.281 173.831,193.885 L173.831,192.617 C173.831,190.221 175.78,188.272 178.175,188.272 L186.03,188.272 C187.881,188.272 189.387,189.778 189.387,191.628 C189.387,192.181 188.939,192.628 188.387,192.628 C187.834,192.628 187.387,192.181 187.387,191.628 C187.387,190.88 186.778,190.272 186.03,190.272 L178.175,190.272 C176.882,190.272 175.831,191.324 175.831,192.617 L175.831,193.885 C175.831,195.177 176.882,196.229 178.175,196.229 L185.483,196.229 C187.878,196.229 189.827,198.177 189.827,200.573 L189.827,201.839 C189.827,204.247 187.878,206.205 185.483,206.205"/>
    <path fill="#42494E" d="M182 210.24C181.448 210.24 181 209.792 181 209.24L181 185.24C181 184.687 181.448 184.24 182 184.24 182.552 184.24 183 184.687 183 185.24L183 209.24C183 209.792 182.552 210.24 182 210.24M170.81 183.589C170.55 183.589 170.3 183.48 170.11 183.29 169.92 183.11 169.82 182.849 169.82 182.589 169.82 182.32 169.92 182.07 170.11 181.879 170.2 181.79 170.31 181.709 170.43 181.66 170.68 181.559 170.95 181.559 171.2 181.66 171.32 181.709 171.43 181.79 171.52 181.879 171.71 182.07 171.82 182.32 171.82 182.589 171.82 182.849 171.71 183.099 171.52 183.29 171.33 183.48 171.08 183.589 170.81 183.589"/>
    <polyline fill="#434A4F" points="122.5 157.654 86.086 121.24 101.5 121.24 101.5 34.239 103.5 34.239 103.5 123.24 90.914 123.24 122.5 154.826 154.086 123.24 141.5 123.24 141.5 34.239 143.5 34.239 143.5 121.24 158.914 121.24 122.5 157.654"/>
    <path fill="#434A4F" d="M142.5 32.24C142.37 32.24 142.24 32.21 142.12 32.16 142 32.11 141.89 32.04 141.79 31.95 141.7 31.849 141.63 31.74 141.58 31.62 141.53 31.499 141.5 31.37 141.5 31.24 141.5 30.98 141.61 30.719 141.79 30.53 142.07 30.259 142.51 30.169 142.88 30.32 143.01 30.37 143.11 30.44 143.21 30.53 143.39 30.719 143.5 30.98 143.5 31.24 143.5 31.37 143.48 31.499 143.42 31.62 143.37 31.74 143.3 31.849 143.21 31.95 143.02 32.139 142.77 32.24 142.5 32.24M102.5 32.24C102.37 32.24 102.24 32.21 102.12 32.16 102 32.11 101.89 32.04 101.79 31.95 101.7 31.849 101.63 31.74 101.58 31.62 101.53 31.499 101.5 31.37 101.5 31.24 101.5 31.11 101.53 30.98 101.58 30.86 101.63 30.73 101.7 30.629 101.79 30.53 101.89 30.44 101.99 30.37 102.12 30.32 102.36 30.219 102.64 30.219 102.88 30.32 103.01 30.37 103.12 30.44 103.21 30.53 103.39 30.719 103.5 30.98 103.5 31.24 103.5 31.37 103.48 31.499 103.42 31.62 103.37 31.74 103.3 31.849 103.21 31.95 103.11 32.04 103 32.11 102.88 32.16 102.76 32.21 102.63 32.24 102.5 32.24"/>
    <polyline fill="#434A4F" points="143.156 116.589 125.328 100.64 132.546 100.64 132.546 71.237 134.546 71.237 134.546 102.64 130.563 102.64 143.142 113.894 154.788 103.255 150.765 103.255 150.765 71.852 152.765 71.852 152.765 101.255 159.943 101.255 143.156 116.589"/>
    <path fill="#434A4F" d="M151.55 69.24C151.42 69.24 151.29 69.21 151.16 69.16 151.04 69.11 150.94 69.04 150.84 68.94 150.65 68.759 150.55 68.509 150.55 68.24 150.55 68.11 150.57 67.98 150.62 67.86 150.67 67.73 150.75 67.62 150.84 67.53 151.21 67.16 151.88 67.16 152.25 67.53 152.35 67.62 152.42 67.73 152.47 67.86 152.52 67.98 152.55 68.11 152.55 68.24 152.55 68.499 152.44 68.759 152.25 68.94 152.16 69.04 152.05 69.11 151.93 69.16 151.81 69.21 151.68 69.24 151.55 69.24M133.54 69.24C133.27 69.24 133.02 69.129 132.83 68.94 132.64 68.759 132.54 68.509 132.54 68.24 132.54 68.11 132.56 67.98 132.61 67.86 132.66 67.73 132.74 67.62 132.83 67.53 133.2 67.16 133.87 67.16 134.24 67.53 134.34 67.62 134.41 67.73 134.46 67.86 134.51 67.98 134.54 68.11 134.54 68.24 134.54 68.509 134.43 68.759 134.24 68.94 134.05 69.129 133.8 69.24 133.54 69.24M96.51 82.24C96.37 82.24 96.25 82.21 96.13 82.16 96 82.11 95.89 82.04 95.8 81.95 95.71 81.849 95.63 81.74 95.58 81.62 95.53 81.499 95.51 81.37 95.51 81.24 95.51 81.11 95.53 80.98 95.58 80.86 95.63 80.74 95.71 80.629 95.8 80.53 96.08 80.249 96.52 80.16 96.89 80.32 97.01 80.37 97.12 80.44 97.21 80.53 97.31 80.629 97.38 80.74 97.43 80.86 97.48 80.98 97.51 81.11 97.51 81.24 97.51 81.37 97.48 81.499 97.43 81.62 97.38 81.74 97.31 81.849 97.21 81.95 97.03 82.139 96.78 82.24 96.51 82.24M96.508 113.719C95.956 113.719 95.508 113.272 95.508 112.719L95.508 89.11C95.508 88.557 95.956 88.11 96.508 88.11 97.06 88.11 97.508 88.557 97.508 89.11L97.508 112.719C97.508 113.272 97.06 113.719 96.508 113.719M102.51 71.16C102.38 71.16 102.25 71.139 102.13 71.089 102.01 71.04 101.9 70.96 101.8 70.87 101.71 70.77 101.64 70.669 101.59 70.54 101.54 70.419 101.51 70.29 101.51 70.16 101.51 70.03 101.54 69.9 101.59 69.78 101.64 69.66 101.71 69.549 101.8 69.46 102.17 69.08 102.85 69.08 103.22 69.46 103.31 69.549 103.38 69.66 103.43 69.78 103.48 69.9 103.51 70.03 103.51 70.16 103.51 70.29 103.49 70.419 103.44 70.54 103.39 70.669 103.31 70.77 103.22 70.87 103.12 70.96 103.02 71.04 102.89 71.089 102.77 71.139 102.65 71.16 102.51 71.16M102.511 102.641C101.959 102.641 101.511 102.194 101.511 101.641L101.511 78.032C101.511 77.479 101.959 77.032 102.511 77.032 103.063 77.032 103.511 77.479 103.511 78.032L103.511 101.641C103.511 102.194 103.063 102.641 102.511 102.641M156.54 62.24C156.28 62.24 156.02 62.139 155.84 61.95 155.65 61.759 155.54 61.509 155.54 61.24 155.54 60.98 155.65 60.719 155.84 60.53 155.93 60.44 156.04 60.37 156.16 60.32 156.53 60.16 156.98 60.249 157.25 60.53 157.44 60.719 157.54 60.98 157.54 61.24 157.54 61.509 157.44 61.759 157.25 61.95 157.06 62.139 156.81 62.24 156.54 62.24M156.543 90.634C155.991 90.634 155.543 90.187 155.543 89.634L155.543 66.025C155.543 65.472 155.991 65.025 156.543 65.025 157.096 65.025 157.543 65.472 157.543 66.025L157.543 89.634C157.543 90.187 157.096 90.634 156.543 90.634M92.5 69.16C92.24 69.16 91.99 69.059 91.8 68.87 91.7 68.77 91.63 68.66 91.58 68.54 91.53 68.419 91.5 68.29 91.5 68.16 91.5 68.03 91.53 67.9 91.58 67.78 91.63 67.66 91.71 67.549 91.8 67.46 92.07 67.169 92.52 67.089 92.89 67.24 93.01 67.29 93.12 67.36 93.21 67.46 93.31 67.549 93.38 67.66 93.43 67.78 93.48 67.9 93.51 68.03 93.51 68.16 93.51 68.29 93.48 68.419 93.43 68.54 93.38 68.66 93.31 68.77 93.21 68.87 93.02 69.059 92.77 69.16 92.5 69.16M92.505 100.64C91.953 100.64 91.505 100.193 91.505 99.64L91.505 76.031C91.505 75.478 91.953 75.031 92.505 75.031 93.058 75.031 93.505 75.478 93.505 76.031L93.505 99.64C93.505 100.193 93.058 100.64 92.505 100.64M88.5 86.169C88.37 86.169 88.24 86.139 88.12 86.089 88 86.049 87.89 85.969 87.79 85.879 87.61 85.69 87.5 85.44 87.5 85.169 87.5 84.91 87.61 84.65 87.79 84.46 88.07 84.19 88.52 84.099 88.89 84.249 89.01 84.299 89.12 84.37 89.21 84.46 89.3 84.559 89.38 84.669 89.43 84.79 89.48 84.91 89.5 85.04 89.5 85.169 89.5 85.44 89.4 85.69 89.21 85.879 89.02 86.07 88.77 86.169 88.5 86.169M88.503 117.651C87.951 117.651 87.503 117.204 87.503 116.651L87.503 93.04C87.503 92.488 87.951 92.04 88.503 92.04 89.055 92.04 89.503 92.488 89.503 93.04L89.503 116.651C89.503 117.204 89.055 117.651 88.503 117.651M106.51 67.16C106.25 67.16 105.99 67.059 105.81 66.87 105.71 66.77 105.64 66.66 105.59 66.54 105.54 66.419 105.51 66.29 105.51 66.16 105.51 66.03 105.54 65.9 105.59 65.78 105.64 65.66 105.71 65.549 105.81 65.45 106.18 65.08 106.85 65.08 107.22 65.45 107.31 65.549 107.39 65.66 107.44 65.78 107.49 65.9 107.51 66.03 107.51 66.16 107.51 66.29 107.49 66.419 107.44 66.54 107.39 66.66 107.31 66.77 107.22 66.87 107.03 67.059 106.78 67.16 106.51 67.16M106.514 98.639C105.961 98.639 105.514 98.192 105.514 97.639L105.514 74.03C105.514 73.477 105.961 73.03 106.514 73.03 107.066 73.03 107.514 73.477 107.514 74.03L107.514 97.639C107.514 98.192 107.066 98.639 106.514 98.639M129.53 60.24C129.39 60.24 129.27 60.21 129.14 60.16 129.02 60.11 128.91 60.04 128.82 59.95 128.63 59.759 128.53 59.509 128.53 59.24 128.53 59.11 128.55 58.98 128.6 58.86 128.66 58.74 128.73 58.629 128.82 58.53 128.91 58.44 129.02 58.37 129.14 58.32 129.39 58.219 129.67 58.219 129.91 58.32 130.03 58.37 130.14 58.44 130.24 58.53 130.33 58.629 130.4 58.74 130.45 58.86 130.5 58.98 130.53 59.11 130.53 59.24 130.53 59.509 130.42 59.759 130.24 59.95 130.05 60.139 129.79 60.24 129.53 60.24M129.527 88.633C128.975 88.633 128.527 88.186 128.527 87.633L128.527 64.023C128.527 63.47 128.975 63.023 129.527 63.023 130.08 63.023 130.527 63.47 130.527 64.023L130.527 87.633C130.527 88.186 130.08 88.633 129.527 88.633"/>
    <polygon fill="#434A4F" points="58.706 98.508 60.706 98.508 60.706 94.508 58.706 94.508"/>
    <polygon fill="#434A4F" points="58.706 108.508 60.706 108.508 60.706 104.508 58.706 104.508"/>
    <polygon fill="#434A4F" points="52.706 102.508 56.706 102.508 56.706 100.508 52.706 100.508"/>
    <polygon fill="#434A4F" points="62.706 102.508 66.706 102.508 66.706 100.508 62.706 100.508"/>
    <polygon fill="#434A4F" points="182.5 118.521 184.5 118.521 184.5 114.521 182.5 114.521"/>
    <polygon fill="#434A4F" points="182.5 128.521 184.5 128.521 184.5 124.521 182.5 124.521"/>
    <polygon fill="#434A4F" points="176.5 122.521 180.5 122.521 180.5 120.521 176.5 120.521"/>
    <polygon fill="#434A4F" points="186.5 122.521 190.5 122.521 190.5 120.521 186.5 120.521"/>
    <polygon fill="#434A4F" points="168.772 78.497 170.772 78.497 170.772 74.497 168.772 74.497"/>
    <polygon fill="#434A4F" points="168.772 88.497 170.772 88.497 170.772 84.497 168.772 84.497"/>
    <polygon fill="#434A4F" points="162.772 82.497 166.772 82.497 166.772 80.497 162.772 80.497"/>
    <polygon fill="#434A4F" points="172.772 82.497 176.772 82.497 176.772 80.497 172.772 80.497"/>
    <path fill="#75C7D0" d="M165.694,101.788 C165.694,103.997 167.485,105.788 169.694,105.788 C171.903,105.788 173.694,103.997 173.694,101.788 C173.694,99.579 171.903,97.788 169.694,97.788 C167.485,97.788 165.694,99.579 165.694,101.788"/>
    <path fill="#FACD60" d="M45.293,174.129 C45.293,175.25 46.202,176.159 47.323,176.159 C48.443,176.159 49.352,175.25 49.352,174.129 C49.352,173.009 48.443,172.1 47.323,172.1 C46.202,172.1 45.293,173.009 45.293,174.129"/>
    <path fill="#434A4F" d="M118.5 34.759C118.37 34.759 118.24 34.73 118.12 34.679 118 34.629 117.89 34.559 117.79 34.469 117.6 34.28 117.5 34.03 117.5 33.759 117.5 33.629 117.53 33.499 117.58 33.379 117.63 33.259 117.7 33.15 117.79 33.049 117.89 32.96 117.99 32.889 118.12 32.839 118.48 32.69 118.93 32.77 119.21 33.049 119.3 33.15 119.37 33.259 119.42 33.379 119.47 33.499 119.5 33.629 119.5 33.759 119.5 34.03 119.4 34.28 119.21 34.469 119.02 34.66 118.77 34.759 118.5 34.759M118.5 66.24C117.948 66.24 117.5 65.792 117.5 65.24L117.5 41.63C117.5 41.078 117.948 40.63 118.5 40.63 119.052 40.63 119.5 41.078 119.5 41.63L119.5 65.24C119.5 65.792 119.052 66.24 118.5 66.24M138.5 42.24C138.37 42.24 138.24 42.21 138.12 42.16 138 42.11 137.89 42.04 137.79 41.95 137.7 41.849 137.63 41.74 137.58 41.62 137.53 41.499 137.5 41.37 137.5 41.24 137.5 41.11 137.53 40.98 137.58 40.86 137.63 40.73 137.7 40.629 137.79 40.53 138.07 40.249 138.51 40.16 138.88 40.32 139 40.37 139.11 40.44 139.21 40.53 139.39 40.719 139.5 40.98 139.5 41.24 139.5 41.509 139.4 41.759 139.21 41.95 139.02 42.139 138.76 42.24 138.5 42.24M138.5 73.719C137.948 73.719 137.5 73.272 137.5 72.719L137.5 49.11C137.5 48.557 137.948 48.11 138.5 48.11 139.052 48.11 139.5 48.557 139.5 49.11L139.5 72.719C139.5 73.272 139.052 73.719 138.5 73.719M96.5 30.759C96.23 30.759 95.98 30.66 95.79 30.469 95.7 30.37 95.63 30.259 95.58 30.139 95.53 30.02 95.5 29.889 95.5 29.759 95.5 29.629 95.53 29.499 95.58 29.379 95.63 29.259 95.7 29.15 95.79 29.049 95.84 29.009 95.89 28.969 95.94 28.929 96 28.889 96.06 28.86 96.12 28.839 96.18 28.809 96.24 28.79 96.3 28.78 96.5 28.74 96.7 28.759 96.88 28.839 97 28.889 97.11 28.96 97.21 29.049 97.39 29.24 97.5 29.499 97.5 29.759 97.5 29.889 97.48 30.02 97.42 30.139 97.37 30.259 97.3 30.37 97.21 30.469 97.02 30.66 96.77 30.759 96.5 30.759M96.5 62.24C95.948 62.24 95.5 61.792 95.5 61.24L95.5 37.63C95.5 37.078 95.948 36.63 96.5 36.63 97.052 36.63 97.5 37.078 97.5 37.63L97.5 61.24C97.5 61.792 97.052 62.24 96.5 62.24"/>
  </g>
</svg>
