<svg xmlns="http://www.w3.org/2000/svg" width="250" height="250" viewBox="0 0 250 250">
  <g fill="none" fill-rule="evenodd">
    <polyline fill="#FACD60" points="92.036 164.929 92.036 181.932 100.036 177.929 108.036 181.932 108.036 164.929 100.161 168.057 92.036 164.929"/>
    <polyline fill="#FACD60" points="153.524 53.884 153.524 77.726 177.366 77.726"/>
    <path fill="#434A4F" d="M178.366,197.938 L71.035,197.938 L71.035,52.884 L88.725,52.884 C89.277,52.884 89.725,53.331 89.725,53.884 C89.725,54.436 89.277,54.884 88.725,54.884 L73.035,54.884 L73.035,195.938 L176.366,195.938 L176.366,78.141 L153.11,54.884 L98.245,54.884 C97.692,54.884 97.245,54.436 97.245,53.884 C97.245,53.331 97.692,52.884 98.245,52.884 L153.938,52.884 L178.366,77.313 L178.366,197.938"/>
    <path fill="#434A4F" d="M93.473,54.889 C93.213,54.889 92.953,54.778 92.763,54.588 C92.673,54.498 92.603,54.389 92.553,54.269 C92.503,54.148 92.473,54.019 92.473,53.878 C92.473,53.748 92.503,53.628 92.553,53.498 C92.603,53.378 92.673,53.269 92.763,53.179 C93.143,52.798 93.813,52.809 94.183,53.179 C94.273,53.269 94.343,53.378 94.403,53.498 C94.453,53.628 94.473,53.748 94.473,53.878 C94.473,54.019 94.453,54.148 94.403,54.269 C94.353,54.389 94.273,54.498 94.183,54.588 C93.993,54.778 93.743,54.889 93.473,54.889"/>
    <path fill="#42494E" d="M156.783,189.027 L216.035,189.027 C217.689,189.027 219.035,187.682 219.035,186.027 C219.035,184.373 217.689,183.027 216.035,183.027 L156.779,183.027 L150.045,184.981 L150.045,187.015 L156.783,189.027 Z M216.035,191.027 L156.49,191.027 L148.045,188.505 L148.045,183.479 L156.636,181.027 L216.035,181.027 C218.792,181.027 221.035,183.271 221.035,186.027 C221.035,188.784 218.792,191.027 216.035,191.027 Z"/>
    <path fill="#434A4F" d="M146.96,188.711 L148.045,188.712 L148.045,183.343 L146.96,183.343 L146.96,188.711 Z M150.045,190.712 L144.96,190.711 L144.96,181.343 L150.045,181.343 L150.045,190.712 Z"/>
    <path fill="#434A4F" d="M131.685,186.005 L139.953,190.44 C140.437,189.837 141.2,189.004 142.077,188.477 C143.098,187.862 144.202,187.509 144.937,187.322 L144.937,184.733 C144.203,184.546 143.101,184.191 142.081,183.578 C141.203,183.051 140.439,182.215 139.956,181.611 L131.685,186.005 Z M140.576,193.043 L127.439,185.997 L140.583,179.014 L141.083,179.776 C141.092,179.791 142.039,181.219 143.111,181.863 C144.464,182.678 146.073,182.935 146.089,182.938 L146.935,183.069 L146.937,188.987 L146.088,189.118 C146.073,189.121 144.46,189.378 143.107,190.19 C142.034,190.836 141.087,192.265 141.079,192.278 L140.576,193.043 Z"/>
    <path fill="#434A4F" d="M139.422 187.001L136.506 187.001C135.954 187.001 135.506 186.554 135.506 186.001 135.506 185.448 135.954 185.001 136.506 185.001L139.422 185.001C139.975 185.001 140.422 185.448 140.422 186.001 140.422 186.554 139.975 187.001 139.422 187.001M100.536 144.432C94.47 144.432 89.536 149.366 89.536 155.432 89.536 161.497 94.47 166.432 100.536 166.432 106.601 166.432 111.536 161.497 111.536 155.432 111.536 149.366 106.601 144.432 100.536 144.432zM100.536 168.432C93.367 168.432 87.536 162.6 87.536 155.432 87.536 148.264 93.367 142.432 100.536 142.432 107.704 142.432 113.536 148.264 113.536 155.432 113.536 162.6 107.704 168.432 100.536 168.432z"/>
    <path fill="#FACD60" d="M108.536,155.432 C108.536,159.85 104.954,163.432 100.536,163.432 C96.117,163.432 92.536,159.85 92.536,155.432 C92.536,151.014 96.117,147.432 100.536,147.432 C104.954,147.432 108.536,151.014 108.536,155.432"/>
    <polygon fill="#434A4F" points="130.951 151.938 160.033 151.938 160.033 149.938 130.951 149.938"/>
    <polygon fill="#434A4F" points="131.035 155.855 152.033 155.855 152.033 153.855 131.035 153.855"/>
    <path fill="#434A4F" d="M137.033 170.854C133.724 170.854 131.033 168.163 131.033 164.854 131.033 161.603 133.781 158.854 137.033 158.854 140.341 158.854 143.033 161.546 143.033 164.854L143.033 166.855C143.033 167.407 143.481 167.855 144.033 167.855 144.584 167.855 145.033 167.407 145.033 166.855 145.033 165.201 146.378 163.855 148.033 163.855 149.687 163.855 151.033 165.201 151.033 166.855 151.033 167.407 151.481 167.855 152.033 167.855 152.585 167.855 153.033 168.303 153.033 168.855 153.033 169.408 152.585 169.855 152.033 169.855 150.378 169.855 149.033 168.51 149.033 166.855 149.033 166.304 148.584 165.855 148.033 165.855 147.481 165.855 147.033 166.304 147.033 166.855 147.033 168.51 145.687 169.855 144.033 169.855 142.378 169.855 141.033 168.51 141.033 166.855L141.033 164.854C141.033 162.648 139.239 160.854 137.033 160.854 134.865 160.854 133.033 162.687 133.033 164.854 133.033 167.061 134.827 168.854 137.033 168.854 137.585 168.854 138.033 169.302 138.033 169.854 138.033 170.407 137.585 170.854 137.033 170.854M156.033 169.858C155.903 169.858 155.773 169.828 155.653 169.778 155.533 169.729 155.423 169.658 155.323 169.559 155.133 169.368 155.033 169.118 155.033 168.858 155.033 168.729 155.053 168.599 155.113 168.469 155.163 168.349 155.233 168.238 155.323 168.148 155.413 168.059 155.523 167.979 155.653 167.929 155.833 167.858 156.033 167.828 156.223 167.878 156.293 167.889 156.353 167.908 156.413 167.929 156.473 167.958 156.533 167.988 156.583 168.028 156.643 168.059 156.693 168.099 156.743 168.148 156.833 168.238 156.903 168.349 156.953 168.469 157.003 168.599 157.033 168.729 157.033 168.858 157.033 169.118 156.933 169.368 156.743 169.559 156.643 169.658 156.533 169.729 156.413 169.778 156.293 169.828 156.163 169.858 156.033 169.858M127.033 173.938C126.763 173.938 126.513 173.838 126.323 173.648 126.233 173.548 126.153 173.438 126.103 173.318 126.053 173.198 126.033 173.068 126.033 172.938 126.033 172.809 126.053 172.679 126.113 172.559 126.163 172.429 126.233 172.328 126.323 172.229 126.553 171.998 126.903 171.889 127.223 171.958 127.293 171.969 127.353 171.988 127.413 172.019 127.473 172.038 127.533 172.068 127.583 172.108 127.643 172.139 127.693 172.188 127.733 172.229 127.833 172.328 127.903 172.429 127.953 172.559 128.003 172.679 128.033 172.809 128.033 172.938 128.033 173.068 128.003 173.198 127.953 173.318 127.903 173.438 127.833 173.548 127.733 173.648 127.553 173.838 127.293 173.938 127.033 173.938M130.033 172.938C130.033 172.389 130.483 171.938 131.033 171.938 131.583 171.938 132.033 172.389 132.033 172.938 132.033 173.488 131.583 173.938 131.033 173.938 130.483 173.938 130.033 173.488 130.033 172.938zM134.033 172.938C134.033 172.389 134.473 171.938 135.033 171.938 135.583 171.938 136.033 172.389 136.033 172.938 136.033 173.488 135.583 173.938 135.033 173.938 134.473 173.938 134.033 173.488 134.033 172.938zM138.033 172.938C138.033 172.389 138.483 171.938 139.033 171.938 139.583 171.938 140.033 172.389 140.033 172.938 140.033 173.488 139.583 173.938 139.033 173.938 138.483 173.938 138.033 173.488 138.033 172.938zM142.033 172.938C142.033 172.389 142.483 171.938 143.033 171.938 143.583 171.938 144.033 172.389 144.033 172.938 144.033 173.488 143.583 173.938 143.033 173.938 142.483 173.938 142.033 173.488 142.033 172.938zM146.033 172.938C146.033 172.389 146.483 171.938 147.033 171.938 147.583 171.938 148.033 172.389 148.033 172.938 148.033 173.488 147.583 173.938 147.033 173.938 146.483 173.938 146.033 173.488 146.033 172.938zM150.033 172.938C150.033 172.389 150.473 171.938 151.033 171.938 151.583 171.938 152.033 172.389 152.033 172.938 152.033 173.488 151.583 173.938 151.033 173.938 150.473 173.938 150.033 173.488 150.033 172.938zM154.033 172.938C154.033 172.389 154.473 171.938 155.033 171.938 155.583 171.938 156.033 172.389 156.033 172.938 156.033 173.488 155.583 173.938 155.033 173.938 154.473 173.938 154.033 173.488 154.033 172.938zM158.033 172.938C158.033 172.389 158.473 171.938 159.033 171.938 159.583 171.938 160.033 172.389 160.033 172.938 160.033 173.488 159.583 173.938 159.033 173.938 158.473 173.938 158.033 173.488 158.033 172.938zM163.033 173.938C162.763 173.938 162.513 173.838 162.323 173.648 162.233 173.548 162.153 173.438 162.103 173.318 162.053 173.198 162.033 173.068 162.033 172.938 162.033 172.809 162.053 172.679 162.103 172.559 162.153 172.429 162.233 172.328 162.323 172.229 162.693 171.858 163.363 171.858 163.743 172.229 163.833 172.328 163.903 172.429 163.953 172.559 164.003 172.679 164.033 172.809 164.033 172.938 164.033 173.068 164.003 173.198 163.953 173.318 163.903 173.438 163.833 173.548 163.743 173.648 163.643 173.738 163.533 173.809 163.413 173.858 163.293 173.908 163.163 173.938 163.033 173.938"/>
    <polygon fill="#E9886C" points="131.036 147.938 140.035 147.938 140.035 145.938 131.036 145.938"/>
    <polygon fill="#434A4F" points="89.036 81.938 107.036 81.938 107.036 79.938 89.036 79.938"/>
    <polygon fill="#434A4F" points="89.036 85.939 107.036 85.939 107.036 83.939 89.036 83.939"/>
    <polygon fill="#434A4F" points="95.036 97.939 161.036 97.939 161.036 95.939 95.036 95.939"/>
    <polygon fill="#434A4F" points="89.036 101.938 161.036 101.938 161.036 99.938 89.036 99.938"/>
    <polygon fill="#434A4F" points="89.036 105.938 161.036 105.938 161.036 103.938 89.036 103.938"/>
    <polygon fill="#434A4F" points="89.036 109.938 149.036 109.938 149.036 107.938 89.036 107.938"/>
    <polygon fill="#434A4F" points="95.036 119.938 161.036 119.938 161.036 117.938 95.036 117.938"/>
    <polygon fill="#434A4F" points="89.036 123.938 161.036 123.938 161.036 121.938 89.036 121.938"/>
    <polygon fill="#434A4F" points="89.036 127.938 161.036 127.938 161.036 125.938 89.036 125.938"/>
    <polygon fill="#434A4F" points="89.036 131.938 149.036 131.938 149.036 129.938 89.036 129.938"/>
    <polygon fill="#434A4F" points="149.036 85.939 161.036 85.939 161.036 83.939 149.036 83.939"/>
    <path fill="#434A4F" d="M74.716,197.938 L67.033,197.938 L67.033,52.884 L74.716,52.884 C75.269,52.884 75.716,53.331 75.716,53.884 C75.716,54.436 75.269,54.884 74.716,54.884 L69.033,54.884 L69.033,195.938 L74.716,195.938 C75.269,195.938 75.716,196.386 75.716,196.938 C75.716,197.491 75.269,197.938 74.716,197.938"/>
    <path fill="#434A4F" d="M70.714,197.938 L63.03,197.938 L63.03,52.884 L70.714,52.884 C71.266,52.884 71.714,53.331 71.714,53.884 C71.714,54.436 71.266,54.884 70.714,54.884 L65.03,54.884 L65.03,195.938 L70.714,195.938 C71.266,195.938 71.714,196.386 71.714,196.938 C71.714,197.491 71.266,197.938 70.714,197.938"/>
    <polygon fill="#434A4F" points="190.018 210.938 192.018 210.938 192.018 206.938 190.018 206.938"/>
    <polygon fill="#434A4F" points="190.018 220.938 192.018 220.938 192.018 216.938 190.018 216.938"/>
    <polygon fill="#434A4F" points="194.018 214.938 198.018 214.938 198.018 212.938 194.018 212.938"/>
    <polygon fill="#434A4F" points="184.018 214.938 188.018 214.938 188.018 212.938 184.018 212.938"/>
    <polygon fill="#434A4F" points="173.036 52.938 175.036 52.938 175.036 48.938 173.036 48.938"/>
    <polygon fill="#434A4F" points="173.036 62.939 175.036 62.939 175.036 58.939 173.036 58.939"/>
    <polygon fill="#434A4F" points="177.036 56.938 181.036 56.938 181.036 54.938 177.036 54.938"/>
    <polygon fill="#434A4F" points="167.036 56.938 171.036 56.938 171.036 54.938 167.036 54.938"/>
    <path fill="#E9886C" d="M53.965,30.939 C41.283,30.939 30.965,41.257 30.965,53.939 C30.965,66.622 41.283,76.939 53.965,76.939 C66.647,76.939 76.965,66.622 76.965,53.939 C76.965,41.257 66.647,30.939 53.965,30.939 Z M53.965,78.939 C40.18,78.939 28.965,67.725 28.965,53.939 C28.965,40.154 40.18,28.939 53.965,28.939 C67.751,28.939 78.965,40.154 78.965,53.939 C78.965,67.725 67.751,78.939 53.965,78.939 Z"/>
    <path fill="#434A4F" d="M73.919 54.939L70.364 54.939C69.812 54.939 69.364 54.492 69.364 53.939 69.364 53.387 69.812 52.939 70.364 52.939L73.919 52.939C74.472 52.939 74.919 53.387 74.919 53.939 74.919 54.492 74.472 54.939 73.919 54.939M68.102 46.494C67.756 46.494 67.42 46.314 67.235 45.994 66.959 45.516 67.123 44.904 67.601 44.628L70.68 42.851C71.159 42.574 71.77 42.739 72.046 43.217 72.322 43.695 72.158 44.307 71.68 44.583L68.601 46.36C68.443 46.451 68.271 46.494 68.102 46.494M62.029 40.283C61.86 40.283 61.688 40.24 61.53 40.149 61.052 39.873 60.888 39.262 61.164 38.783L62.942 35.704C63.218 35.226 63.829 35.061 64.308 35.338 64.787 35.614 64.95 36.226 64.674 36.704L62.896 39.783C62.711 40.104 62.375 40.283 62.029 40.283"/>
    <polyline fill="#434A4F" points="54.919 66.071 52.919 66.071 52.919 53.051 60.807 53.051 60.807 55.051 54.919 55.051 54.919 66.071"/>
    <path fill="#434A4F" d="M53.963 38.05C53.411 38.05 52.963 37.602 52.963 37.05L52.963 33.495C52.963 32.942 53.411 32.495 53.963 32.495 54.515 32.495 54.963 32.942 54.963 33.495L54.963 37.05C54.963 37.602 54.515 38.05 53.963 38.05M53.964 75.384C53.412 75.384 52.964 74.936 52.964 74.384L52.964 70.828C52.964 70.275 53.412 69.828 53.964 69.828 54.516 69.828 54.964 70.275 54.964 70.828L54.964 74.384C54.964 74.936 54.516 75.384 53.964 75.384M37.518 54.939L33.962 54.939C33.41 54.939 32.962 54.492 32.962 53.939 32.962 53.387 33.41 52.939 33.962 52.939L37.518 52.939C38.07 52.939 38.518 53.387 38.518 53.939 38.518 54.492 38.07 54.939 37.518 54.939"/>
    <path fill="#434A4F" d="M53.963 38.05C53.411 38.05 52.963 37.602 52.963 37.05L52.963 33.495C52.963 32.942 53.411 32.495 53.963 32.495 54.515 32.495 54.963 32.942 54.963 33.495L54.963 37.05C54.963 37.602 54.515 38.05 53.963 38.05M53.964 75.384C53.412 75.384 52.964 74.936 52.964 74.384L52.964 70.828C52.964 70.275 53.412 69.828 53.964 69.828 54.516 69.828 54.964 70.275 54.964 70.828L54.964 74.384C54.964 74.936 54.516 75.384 53.964 75.384M37.518 54.939L33.962 54.939C33.41 54.939 32.962 54.492 32.962 53.939 32.962 53.387 33.41 52.939 33.962 52.939L37.518 52.939C38.07 52.939 38.518 53.387 38.518 53.939 38.518 54.492 38.07 54.939 37.518 54.939M43.8 72.423C43.63 72.423 43.458 72.38 43.301 72.289 42.822 72.013 42.659 71.401 42.935 70.923L44.712 67.844C44.989 67.364 45.601 67.201 46.079 67.477 46.557 67.754 46.721 68.365 46.445 68.844L44.667 71.923C44.481 72.244 44.146 72.423 43.8 72.423M39.78 46.494C39.61 46.494 39.438 46.451 39.281 46.36L36.202 44.583C35.724 44.307 35.56 43.695 35.835 43.217 36.112 42.739 36.722 42.574 37.202 42.851L40.281 44.628C40.759 44.904 40.923 45.516 40.647 45.994 40.461 46.314 40.125 46.494 39.78 46.494M36.37 64.748C36.024 64.748 35.688 64.569 35.503 64.248 35.227 63.77 35.391 63.158 35.869 62.882L38.948 61.104C39.425 60.826 40.038 60.991 40.314 61.47 40.59 61.948 40.427 62.56 39.948 62.836L36.869 64.614C36.712 64.705 36.54 64.748 36.37 64.748M45.852 40.283C45.507 40.283 45.171 40.104 44.985 39.783L43.207 36.704C42.932 36.226 43.095 35.614 43.574 35.338 44.051 35.061 44.663 35.226 44.94 35.704L46.718 38.783C46.994 39.262 46.83 39.873 46.352 40.149 46.194 40.24 46.022 40.283 45.852 40.283"/>
    <path fill="#42494E" d="M198.021,127.953 C193.058,127.953 189.021,131.99 189.021,136.953 C189.021,141.916 193.058,145.953 198.021,145.953 C202.984,145.953 207.021,141.916 207.021,136.953 C207.021,131.99 202.984,127.953 198.021,127.953 Z M198.021,147.953 C191.956,147.953 187.021,143.019 187.021,136.953 C187.021,130.888 191.956,125.953 198.021,125.953 C204.086,125.953 209.021,130.888 209.021,136.953 C209.021,143.019 204.086,147.953 198.021,147.953 Z M198.021,121.953 C189.75,121.953 183.021,128.682 183.021,136.953 C183.021,145.225 189.75,151.953 198.021,151.953 C206.292,151.953 213.021,145.225 213.021,136.953 C213.021,128.682 206.292,121.953 198.021,121.953 Z M198.021,153.953 C188.647,153.953 181.021,146.327 181.021,136.953 C181.021,127.579 188.647,119.953 198.021,119.953 C207.395,119.953 215.021,127.579 215.021,136.953 C215.021,146.327 207.395,153.953 198.021,153.953 Z"/>
    <path fill="#42494E" d="M198.021,133.953 C196.367,133.953 195.021,135.299 195.021,136.953 C195.021,138.607 196.367,139.953 198.021,139.953 C199.675,139.953 201.021,138.607 201.021,136.953 C201.021,135.299 199.675,133.953 198.021,133.953 Z M198.021,141.953 C195.264,141.953 193.021,139.71 193.021,136.953 C193.021,134.196 195.264,131.953 198.021,131.953 C200.778,131.953 203.021,134.196 203.021,136.953 C203.021,139.71 200.778,141.953 198.021,141.953 Z"/>
    <path fill="#E9886C" d="M198.021,132.953 C195.812,132.953 194.021,134.744 194.021,136.953 C194.021,139.163 195.812,140.953 198.021,140.953 C200.23,140.953 202.021,139.163 202.021,136.953 C202.021,134.744 200.23,132.953 198.021,132.953"/>
    <path fill="#E9886C" d="M198.021,133.953 C196.367,133.953 195.021,135.299 195.021,136.953 C195.021,138.607 196.367,139.953 198.021,139.953 C199.675,139.953 201.021,138.607 201.021,136.953 C201.021,135.299 199.675,133.953 198.021,133.953 Z M198.021,141.953 C195.264,141.953 193.021,139.71 193.021,136.953 C193.021,134.196 195.264,131.953 198.021,131.953 C200.778,131.953 203.021,134.196 203.021,136.953 C203.021,139.71 200.778,141.953 198.021,141.953 Z"/>
    <polygon fill="#42494E" points="171.023 137.953 198.021 137.953 198.021 135.953 171.023 135.953"/>
    <path fill="#42494E" d="M164.437 139.953L167.609 139.953 170.609 136.953 167.609 133.953 164.437 133.953 167.437 136.953 164.437 139.953zM168.437 141.953L159.609 141.953 164.609 136.953 159.609 131.953 168.437 131.953 173.437 136.953 168.437 141.953zM81.897 204.395L79.996 203.775 80.549 202.076 78.493 201.406C76.56 200.775 75.312 199.055 75.314 197.021 75.316 194.988 76.568 193.27 78.502 192.644L80.56 191.977 79.398 188.39 77.34 189.056C75.405 189.682 73.384 189.022 72.191 187.377 70.998 185.73 71 183.605 72.196 181.962L73.469 180.213 70.42 177.994 69.148 179.742C67.951 181.386 65.927 182.041 63.995 181.411 62.062 180.78 60.814 179.06 60.816 177.026L60.818 174.863 57.047 174.859 57.045 177.022C57.044 179.056 55.792 180.774 53.858 181.4 51.922 182.025 49.902 181.368 48.709 179.722L47.439 177.971 44.386 180.185 45.656 181.936C46.85 183.582 46.848 185.708 45.651 187.352 44.454 188.995 42.43 189.649 40.498 189.021L38.442 188.35 37.888 190.048 35.987 189.429 37.161 185.828 41.118 187.118C42.444 187.552 43.495 186.914 44.034 186.175 44.573 185.435 44.856 184.24 44.037 183.109L41.593 179.739 47.885 175.178 50.328 178.548C51.147 179.68 52.371 179.78 53.242 179.498 54.113 179.216 55.044 178.417 55.045 177.021L55.049 172.857 62.82 172.865 62.816 177.028C62.815 178.425 63.745 179.226 64.615 179.51 65.485 179.793 66.71 179.694 67.531 178.564L69.981 175.199 76.263 179.773 73.813 183.14C72.992 184.268 73.273 185.462 73.81 186.203 74.348 186.944 75.396 187.582 76.724 187.153L80.684 185.87 83.078 193.264 79.118 194.546C77.79 194.977 77.315 196.107 77.314 197.023 77.313 197.938 77.786 199.071 79.113 199.504L83.071 200.795 81.897 204.395"/>
    <path fill="#E9886C" d="M69.464,200.445 L67.562,199.826 C69.118,195.056 66.502,189.91 61.731,188.354 C59.421,187.601 56.955,187.792 54.788,188.894 C52.622,189.995 51.014,191.874 50.26,194.185 L48.359,193.565 C50.255,187.747 56.533,184.557 62.352,186.452 C68.17,188.351 71.361,194.628 69.464,200.445"/>
    <path fill="#E9886C" d="M58.933,208.013 C57.795,208.013 56.64,207.837 55.5,207.466 C49.682,205.567 46.492,199.29 48.389,193.472 L50.291,194.091 C48.735,198.861 51.351,204.008 56.121,205.563 C60.891,207.118 66.037,204.504 67.593,199.734 L69.494,200.354 C67.969,205.033 63.608,208.013 58.933,208.013"/>
    <path fill="#42494E" d="M62.802,221.061 L55.031,221.053 L55.035,216.89 C55.037,215.493 54.107,214.692 53.237,214.408 C52.365,214.124 51.143,214.225 50.321,215.353 L47.871,218.717 L41.588,214.144 L44.039,210.778 C44.861,209.649 44.58,208.455 44.042,207.714 C43.505,206.973 42.457,206.337 41.128,206.764 L37.168,208.045 L34.774,200.652 L38.735,199.371 C40.063,198.94 40.538,197.81 40.539,196.894 C40.54,195.978 40.068,194.845 38.74,194.411 L34.783,193.121 L36.114,189.037 L38.016,189.656 L37.304,191.84 L39.36,192.51 C41.293,193.141 42.541,194.862 42.539,196.896 C42.537,198.93 41.285,200.647 39.351,201.273 L37.293,201.939 L38.455,205.527 L40.512,204.861 C42.444,204.233 44.467,204.894 45.661,206.54 C46.854,208.186 46.853,210.312 45.656,211.956 L44.382,213.704 L47.431,215.924 L48.704,214.175 C49.901,212.531 51.926,211.878 53.857,212.507 C55.79,213.138 57.038,214.858 57.035,216.892 L57.033,219.055 L60.804,219.059 L60.806,216.896 C60.809,214.862 62.06,213.145 63.994,212.519 C65.93,211.892 67.95,212.551 69.143,214.197 L70.412,215.948 L73.466,213.734 L72.196,211.983 C71.003,210.338 71.005,208.212 72.202,206.568 C73.397,204.924 75.42,204.268 77.354,204.899 L79.411,205.57 L80.187,203.189 L82.088,203.809 L80.692,208.092 L76.734,206.802 C75.407,206.366 74.357,207.005 73.818,207.746 C73.28,208.486 72.996,209.68 73.815,210.81 L76.259,214.18 L69.967,218.741 L67.524,215.371 C66.705,214.24 65.481,214.14 64.61,214.421 C63.739,214.703 62.808,215.502 62.806,216.897 L62.802,221.061"/>
    <path fill="#FACD60" d="M64.257,197.094 C64.257,200.078 61.838,202.498 58.853,202.498 C55.869,202.498 53.45,200.078 53.45,197.094 C53.45,194.11 55.869,191.691 58.853,191.691 C61.838,191.691 64.257,194.11 64.257,197.094"/>
    <path fill="#FACD60" d="M58.854 192.19C56.149 192.19 53.95 194.39 53.95 197.094 53.95 199.798 56.149 201.998 58.854 201.998 61.557 201.998 63.757 199.798 63.757 197.094 63.757 194.39 61.557 192.19 58.854 192.19zM58.854 202.998C55.598 202.998 52.95 200.35 52.95 197.094 52.95 193.839 55.598 191.19 58.854 191.19 62.108 191.19 64.757 193.839 64.757 197.094 64.757 200.35 62.108 202.998 58.854 202.998zM190.048 89.964C190.048 87.755 191.839 85.964 194.048 85.964 196.257 85.964 198.048 87.755 198.048 89.964 198.048 92.173 196.257 93.964 194.048 93.964 191.839 93.964 190.048 92.173 190.048 89.964M41.036 150.51C41.036 149.168 42.123 148.081 43.465 148.081 44.806 148.081 45.893 149.168 45.893 150.51 45.893 151.851 44.806 152.938 43.465 152.938 42.123 152.938 41.036 151.851 41.036 150.51M53.036 161.367C53.036 160.026 54.123 158.938 55.465 158.938 56.806 158.938 57.893 160.026 57.893 161.367 57.893 162.709 56.806 163.796 55.465 163.796 54.123 163.796 53.036 162.709 53.036 161.367M163.036 205.367C163.036 204.026 164.123 202.938 165.464 202.938 166.806 202.938 167.893 204.026 167.893 205.367 167.893 206.709 166.806 207.796 165.464 207.796 164.123 207.796 163.036 206.709 163.036 205.367"/>
  </g>
</svg>
