<svg xmlns="http://www.w3.org/2000/svg" width="250" height="250" viewBox="0 0 250 250">
  <g fill="none" fill-rule="evenodd">
    <path fill="#DDDED9" d="M187.416 67.501L187.806 68.254 187.806 169.15C193.42 169.15 197.971 173.701 197.971 179.315 197.971 184.929 193.42 189.48 187.806 189.48L182.416 189.48 182.416 67.501 187.416 67.501M50.971 67.501L50.58 68.254 50.58 169.15C44.966 169.15 40.416 173.701 40.416 179.315 40.416 184.929 44.966 189.48 50.58 189.48L55.971 189.48 55.971 67.501 50.971 67.501"/>
    <path fill="#FACD60" d="M187.97 52.2599987C193.669 52.257 198.303 57.47 198.303 63.086L198.303 179.982C198.303 174.699 193.315 169.693 187.97 169.199L187.97 52.2599987M50.972 52.2599985C45.273 52.257 39.971 56.803 39.971 62.419L39.971 179.315C39.971 174.032 45.626 169.693 50.972 169.199L50.972 52.2599985"/>
    <path fill="#434A4F" d="M187.471,68.501 L50.971,68.501 C50.419,68.501 49.971,68.054 49.971,67.501 C49.971,66.948 50.419,66.501 50.971,66.501 L187.471,66.501 C188.024,66.501 188.471,66.948 188.471,67.501 C188.471,68.054 188.024,68.501 187.471,68.501"/>
    <path fill="#42494E" d="M63.009,200.001 L97.009,200.001 L97.009,150.001 L63.009,150.001 L63.009,200.001 Z M61.009,202.001 L99.009,202.001 L99.009,148.001 L61.009,148.001 L61.009,202.001 Z"/>
    <path fill="#42494E" d="M67.009 172.001L69.009 172.001 69.009 170.001 67.009 170.001 67.009 172.001zM65.009 174.001L71.009 174.001 71.009 168.001 65.009 168.001 65.009 174.001zM67.009 180.001L69.009 180.001 69.009 178.001 67.009 178.001 67.009 180.001zM65.009 182.001L71.009 182.001 71.009 176.001 65.009 176.001 65.009 182.001zM67.009 188.001L69.009 188.001 69.009 186.001 67.009 186.001 67.009 188.001zM65.009 190.001L71.009 190.001 71.009 184.001 65.009 184.001 65.009 190.001zM67.009 196.001L69.009 196.001 69.009 194.001 67.009 194.001 67.009 196.001zM65.009 198.001L71.009 198.001 71.009 192.001 65.009 192.001 65.009 198.001zM75.009 172.001L77.009 172.001 77.009 170.001 75.009 170.001 75.009 172.001zM73.009 174.001L79.009 174.001 79.009 168.001 73.009 168.001 73.009 174.001zM75.009 180.001L77.009 180.001 77.009 178.001 75.009 178.001 75.009 180.001zM73.009 182.001L79.009 182.001 79.009 176.001 73.009 176.001 73.009 182.001zM75.009 188.001L77.009 188.001 77.009 186.001 75.009 186.001 75.009 188.001zM73.009 190.001L79.009 190.001 79.009 184.001 73.009 184.001 73.009 190.001zM75.009 196.001L77.009 196.001 77.009 194.001 75.009 194.001 75.009 196.001zM73.009 198.001L79.009 198.001 79.009 192.001 73.009 192.001 73.009 198.001zM83.009 172.001L85.009 172.001 85.009 170.001 83.009 170.001 83.009 172.001zM81.009 174.001L87.009 174.001 87.009 168.001 81.009 168.001 81.009 174.001zM83.009 180.001L85.009 180.001 85.009 178.001 83.009 178.001 83.009 180.001zM81.009 182.001L87.009 182.001 87.009 176.001 81.009 176.001 81.009 182.001zM83.009 188.001L85.009 188.001 85.009 186.001 83.009 186.001 83.009 188.001zM81.009 190.001L87.009 190.001 87.009 184.001 81.009 184.001 81.009 190.001zM83.009 196.001L85.009 196.001 85.009 194.001 83.009 194.001 83.009 196.001zM81.009 198.001L87.009 198.001 87.009 192.001 81.009 192.001 81.009 198.001zM91.009 172.001L93.009 172.001 93.009 170.001 91.009 170.001 91.009 172.001zM89.009 174.001L95.009 174.001 95.009 168.001 89.009 168.001 89.009 174.001zM91.009 180.001L93.009 180.001 93.009 178.001 91.009 178.001 91.009 180.001zM89.009 182.001L95.009 182.001 95.009 176.001 89.009 176.001 89.009 182.001zM91.009 196.001L93.009 196.001 93.009 186.001 91.009 186.001 91.009 196.001zM89.009 198.001L95.009 198.001 95.009 184.001 89.009 184.001 89.009 198.001z"/>
    <polygon fill="#42494E" points="62.009 166.001 98.009 166.001 98.009 164.001 62.009 164.001"/>
    <path fill="#42494E" d="M67.009,160.001 L93.009,160.001 L93.009,154.001 L67.009,154.001 L67.009,160.001 Z M65.009,162.001 L95.009,162.001 L95.009,152.001 L65.009,152.001 L65.009,162.001 Z"/>
    <path fill="#42494E" d="M69.009,158.001 L71.009,158.001 L71.009,156.001 L69.009,156.001 L69.009,158.001 Z M73.009,158.001 L75.009,158.001 L75.009,156.001 L73.009,156.001 L73.009,158.001 Z M77.009,158.001 L79.009,158.001 L79.009,156.001 L77.009,156.001 L77.009,158.001 Z M81.009,158.001 L83.009,158.001 L83.009,156.001 L81.009,156.001 L81.009,158.001 Z M85.009,158.001 L87.009,158.001 L87.009,156.001 L85.009,156.001 L85.009,158.001 Z M89.009,158.001 L91.009,158.001 L91.009,156.001 L89.009,156.001 L89.009,158.001 Z"/>
    <polyline fill="#E9886C" points="143.465 96.43 134.809 105.087 126.152 96.43 134.808 87.773 143.465 96.43"/>
    <path fill="#E9886C" d="M127.566,96.43 L134.809,103.673 L142.051,96.43 L134.808,89.187 L127.566,96.43 Z M134.809,106.501 L124.738,96.43 L134.808,86.359 L144.879,96.43 L134.809,106.501 Z"/>
    <polyline fill="#E9886C" points="143.632 128.347 134.975 137.003 126.318 128.346 134.975 119.69 143.632 128.347"/>
    <path fill="#E9886C" d="M127.733,128.347 L134.975,135.589 L142.218,128.347 L134.975,121.104 L127.733,128.347 Z M134.975,138.417 L124.905,128.347 L134.975,118.275 L145.046,128.347 L134.975,138.417 Z"/>
    <polyline fill="#E9886C" points="143.632 160.263 134.975 168.92 126.318 160.263 134.975 151.606 143.632 160.263"/>
    <path fill="#E9886C" d="M127.733,160.263 L134.975,167.506 L142.218,160.264 L134.975,153.021 L127.733,160.263 Z M134.975,170.334 L124.905,160.263 L134.975,150.192 L145.046,160.264 L134.975,170.334 Z"/>
    <polygon fill="#E9886C" points="72.975 135.255 87.137 135.255 87.137 121.092 72.975 121.092"/>
    <path fill="#E9886C" d="M73.975,134.255 L86.138,134.255 L86.137,122.092 L73.975,122.092 L73.975,134.255 Z M88.138,136.255 L71.975,136.255 L71.975,120.092 L88.137,120.092 L88.138,136.255 Z"/>
    <path fill="#434A4F" d="M101.813,122.092 L101.813,134.255 L113.975,134.254 L113.975,122.092 L101.813,122.092 Z M99.813,136.255 L99.813,120.092 L115.975,120.092 L115.975,136.254 L99.813,136.255 Z"/>
    <path fill="#75C7D0" d="M166.975,128.254 C166.975,131.568 164.289,134.254 160.975,134.254 C157.662,134.254 154.975,131.568 154.975,128.254 C154.975,124.94 157.662,122.254 160.975,122.254 C164.289,122.254 166.975,124.94 166.975,128.254"/>
    <path fill="#434A4F" d="M160.975,123.254 C158.218,123.254 155.975,125.497 155.975,128.254 C155.975,131.011 158.218,133.254 160.975,133.254 C163.732,133.254 165.975,131.011 165.975,128.254 C165.975,125.497 163.732,123.254 160.975,123.254 Z M160.975,135.254 C157.116,135.254 153.975,132.113 153.975,128.254 C153.975,124.395 157.116,121.254 160.975,121.254 C164.834,121.254 167.975,124.395 167.975,128.254 C167.975,132.113 164.834,135.254 160.975,135.254 Z"/>
    <polygon fill="#434A4F" points="90.975 129.254 96.975 129.254 96.975 127.254 90.975 127.254"/>
    <polyline fill="#434A4F" points="135.975 181.254 107.975 181.254 107.975 140.254 109.975 140.254 109.975 179.254 133.975 179.254 133.975 172.254 135.975 172.254 135.975 181.254"/>
    <polyline fill="#434A4F" points="161.975 116.254 159.975 116.254 159.975 77.254 135.975 77.254 135.975 84.254 133.975 84.254 133.975 75.254 161.975 75.254 161.975 116.254"/>
    <polygon fill="#434A4F" points="133.975 148.254 135.975 148.254 135.975 140.254 133.975 140.254"/>
    <polygon fill="#434A4F" points="133.975 116.254 135.975 116.254 135.975 108.254 133.975 108.254"/>
    <polygon fill="#434A4F" points="146.975 129.254 151.976 129.254 151.976 127.254 146.975 127.254"/>
    <path fill="#434A4F" d="M41.415 62.419C41.415 59.536 42.478 56.917 44.33 55.233 45.762 53.932 47.563 53.256 49.581 53.254L49.581 168.194C46.204 168.496 43.255 170.307 41.415 172.945L41.415 62.419zM62.009 188.479L50.581 188.479C45.527 188.479 41.415 184.368 41.415 179.314 41.415 174.262 45.527 170.15 50.581 170.15L51.581 170.15 51.581 51.393 50.675 51.307C47.718 51.018 45.055 51.87 42.985 53.754 40.716 55.815 39.416 58.975 39.416 62.419L39.416 179.314C39.416 185.471 44.424 190.479 50.581 190.479L62.009 190.479 62.009 188.479zM196.971 172.945C195.131 170.307 192.183 168.496 188.806 168.194L188.806 53.451C193.266 54.39 196.971 58.581 196.971 62.946L196.971 172.945zM187.893 51.298L186.806 51.203 186.806 170.15 187.806 170.15C192.86 170.15 196.971 174.262 196.971 179.314 196.971 184.368 192.86 188.479 187.806 188.479L98.009 188.479 98.009 190.479 187.806 190.479C193.962 190.479 198.971 185.471 198.971 179.314L198.971 62.946C198.971 57.153 193.898 51.819 187.893 51.298z"/>
    <polygon fill="#434A4F" points="42.303 199.001 44.303 199.001 44.303 195.001 42.303 195.001"/>
    <polygon fill="#434A4F" points="42.303 209.001 44.303 209.001 44.303 205.001 42.303 205.001"/>
    <polygon fill="#434A4F" points="46.303 203.001 50.303 203.001 50.303 201.001 46.303 201.001"/>
    <polygon fill="#434A4F" points="36.303 203.001 40.303 203.001 40.303 201.001 36.303 201.001"/>
    <path fill="#FACD60" d="M66.303 46.001C66.303 47.658 64.96 49.001 63.303 49.001 61.646 49.001 60.303 47.658 60.303 46.001 60.303 44.344 61.646 43.001 63.303 43.001 64.96 43.001 66.303 44.344 66.303 46.001M112.303 195.001C112.303 196.106 111.408 197.001 110.303 197.001 109.199 197.001 108.303 196.106 108.303 195.001 108.303 193.896 109.199 193.001 110.303 193.001 111.408 193.001 112.303 193.896 112.303 195.001"/>
    <path fill="#434A4F" d="M165.691,176.693 L165.701,176.693 L165.691,176.693 Z M124.721,219 L175.404,219 L175.404,168.411 L124.721,219 Z M176.404,221 L122.303,221 C121.899,221 121.534,220.756 121.379,220.382 C121.224,220.009 121.31,219.578 121.597,219.292 L175.698,165.292 C175.983,165.007 176.412,164.923 176.787,165.076 C177.161,165.231 177.404,165.596 177.404,166 L177.404,220 C177.404,220.553 176.957,221 176.404,221 Z"/>
    <path fill="#434A4F" d="M150.29,208.288 L164.691,208.288 L164.691,194.205 L150.29,208.288 Z M165.691,210.288 L147.836,210.288 C147.43,210.288 147.064,210.042 146.911,209.666 C146.757,209.289 146.846,208.857 147.137,208.573 L164.992,191.113 C165.279,190.832 165.709,190.751 166.079,190.906 C166.45,191.063 166.691,191.426 166.691,191.828 L166.691,209.288 C166.691,209.841 166.244,210.288 165.691,210.288 Z"/>
    <path fill="#E9886C" d="M174.303,75.001 C174.303,76.105 173.408,77.001 172.303,77.001 C171.199,77.001 170.303,76.105 170.303,75.001 C170.303,73.896 171.199,73.001 172.303,73.001 C173.408,73.001 174.303,73.896 174.303,75.001"/>
    <path fill="#42494E" d="M110.302,37 C105.339,37 101.302,41.037 101.302,46 C101.302,50.963 105.339,55 110.302,55 C115.265,55 119.302,50.963 119.302,46 C119.302,41.037 115.265,37 110.302,37 Z M110.302,57 C104.237,57 99.302,52.065 99.302,46 C99.302,39.935 104.237,35 110.302,35 C116.368,35 121.302,39.935 121.302,46 C121.302,52.065 116.368,57 110.302,57 Z M110.302,31 C102.031,31 95.302,37.729 95.302,46 C95.302,54.271 102.031,61 110.302,61 C118.574,61 125.302,54.271 125.302,46 C125.302,37.729 118.574,31 110.302,31 Z M110.302,63 C100.928,63 93.302,55.374 93.302,46 C93.302,36.626 100.928,29 110.302,29 C119.676,29 127.302,36.626 127.302,46 C127.302,55.374 119.676,63 110.302,63 Z"/>
    <path fill="#42494E" d="M110.302,43 C108.648,43 107.302,44.346 107.302,46 C107.302,47.654 108.648,49 110.302,49 C111.957,49 113.302,47.654 113.302,46 C113.302,44.346 111.957,43 110.302,43 Z M110.302,51 C107.545,51 105.302,48.757 105.302,46 C105.302,43.243 107.545,41 110.302,41 C113.059,41 115.302,43.243 115.302,46 C115.302,48.757 113.059,51 110.302,51 Z"/>
    <path fill="#E9886C" d="M110.302,42 C108.093,42 106.302,43.791 106.302,46 C106.302,48.21 108.093,50 110.302,50 C112.511,50 114.302,48.21 114.302,46 C114.302,43.791 112.511,42 110.302,42"/>
    <path fill="#E9886C" d="M110.302,43 C108.648,43 107.302,44.346 107.302,46 C107.302,47.654 108.648,49 110.302,49 C111.957,49 113.302,47.654 113.302,46 C113.302,44.346 111.957,43 110.302,43 Z M110.302,51 C107.545,51 105.302,48.757 105.302,46 C105.302,43.243 107.545,41 110.302,41 C113.059,41 115.302,43.243 115.302,46 C115.302,48.757 113.059,51 110.302,51 Z"/>
    <polygon fill="#42494E" points="83.304 47 110.302 47 110.302 45 83.304 45"/>
    <path fill="#42494E" d="M76.717 49L79.889 49 82.889 46 79.889 43 76.717 43 79.717 46 76.717 49zM80.717 51L71.889 51 76.889 46 71.889 41 80.717 41 85.717 46 80.717 51zM137.244 41.002C135.589 41.002 134.244 42.348 134.244 44.002 134.244 45.656 135.589 47.002 137.244 47.002L202.415 47.002 208.921 44.002 202.415 41.002 137.244 41.002zM202.854 49.002L137.244 49.002C134.487 49.002 132.244 46.759 132.244 44.002 132.244 41.245 134.487 39.002 137.244 39.002L202.854 39.002 213.697 44.002 202.854 49.002z"/>
    <polygon fill="#42494E" points="142.853 48.002 144.853 48.002 144.853 40.403 142.853 40.403"/>
    <polygon fill="#42494E" points="143.853 44.973 201.866 44.973 201.866 42.973 143.853 42.973"/>
  </g>
</svg>
