<svg xmlns="http://www.w3.org/2000/svg" width="250" height="250" viewBox="0 0 250 250">
  <g fill="none" fill-rule="evenodd">
    <polyline fill="#DBDBD5" points="187.167 130.357 195.399 125.418 179.835 118.747 177.161 120.351 185.393 128.583 182.565 131.412 174.454 123.301 172.83 126.568 179.627 143.028 184.46 133.307 191.541 140.387 191.453 134.642 187.167 130.357"/>
    <path fill="#DBDBD5" d="M130.424,59.999 L188.424,59.999 L188.424,53.999 L130.424,53.999 L130.424,59.999 Z M103.411,63.017 L191.411,63.017 L191.411,51.017 L103.411,51.017 L103.411,63.017 Z"/>
    <polyline fill="#DBDBD5" points="103.085 143.266 103.085 78.516 87.335 78.516 103.085 143.266"/>
    <polyline fill="#DBDBD5" points="191.397 143.266 191.397 78.516 207.147 78.516 191.397 143.266"/>
    <path fill="#DBDBD5" d="M85.424,145.751 L85.424,154.999 C85.424,156.104 86.319,156.999 87.424,156.999 L207.423,156.999 C208.527,156.999 209.423,156.104 209.423,154.999 L209.423,145.935 L85.424,145.751"/>
    <polygon fill="#DBDBD5" points="133.411 168.892 161.536 168.892 161.536 157.142 133.411 157.142"/>
    <polygon fill="#DBDBD5" points="109.4 191.018 111.4 191.018 111.4 189.018 109.4 189.018"/>
    <polygon fill="#DBDBD5" points="93.4 191.018 95.4 191.018 95.4 189.018 93.4 189.018"/>
    <polygon fill="#DBDBD5" points="101.4 191.018 103.4 191.018 103.4 189.018 101.4 189.018"/>
    <polygon fill="#DBDBD5" points="117.4 191.018 119.4 191.018 119.4 189.018 117.4 189.018"/>
    <polygon fill="#DBDBD5" points="109.4 207.018 111.4 207.018 111.4 205.018 109.4 205.018"/>
    <polygon fill="#DBDBD5" points="97.4 199.018 99.4 199.018 99.4 197.018 97.4 197.018"/>
    <polygon fill="#DBDBD5" points="81.4 215.018 83.4 215.018 83.4 213.018 81.4 213.018"/>
    <polygon fill="#DBDBD5" points="133.4 191.018 135.4 191.018 135.4 189.018 133.4 189.018"/>
    <polygon fill="#DBDBD5" points="89.4 215.018 91.4 215.018 91.4 213.018 89.4 213.018"/>
    <polygon fill="#DBDBD5" points="81.4 207.018 87.4 207.018 87.4 205.018 81.4 205.018"/>
    <polygon fill="#DBDBD5" points="81.4 199.018 83.4 199.018 83.4 197.018 81.4 197.018"/>
    <polygon fill="#DBDBD5" points="81.4 191.018 87.4 191.018 87.4 189.018 81.4 189.018"/>
    <polygon fill="#DBDBD5" points="113.4 199.018 115.4 199.018 115.4 197.018 113.4 197.018"/>
    <polygon fill="#DBDBD5" points="129.4 199.018 131.4 199.018 131.4 197.018 129.4 197.018"/>
    <polygon fill="#DBDBD5" points="125.4 207.018 127.4 207.018 127.4 205.018 125.4 205.018"/>
    <polygon fill="#DBDBD5" points="105.4 199.018 107.4 199.018 107.4 197.018 105.4 197.018"/>
    <polygon fill="#DBDBD5" points="121.4 199.018 123.4 199.018 123.4 197.018 121.4 197.018"/>
    <polygon fill="#DBDBD5" points="117.4 207.018 119.4 207.018 119.4 205.018 117.4 205.018"/>
    <polygon fill="#DBDBD5" points="89.4 199.018 91.4 199.018 91.4 197.018 89.4 197.018"/>
    <polygon fill="#DBDBD5" points="101.4 207.018 103.4 207.018 103.4 205.018 101.4 205.018"/>
    <polygon fill="#DBDBD5" points="145.4 199.018 147.4 199.018 147.4 197.018 145.4 197.018"/>
    <polygon fill="#DBDBD5" points="141.4 207.018 143.4 207.018 143.4 205.018 141.4 205.018"/>
    <polygon fill="#DBDBD5" points="137.4 199.018 139.4 199.018 139.4 197.018 137.4 197.018"/>
    <polygon fill="#DBDBD5" points="133.4 207.018 135.4 207.018 135.4 205.018 133.4 205.018"/>
    <polygon fill="#DBDBD5" points="141.4 191.018 143.4 191.018 143.4 189.018 141.4 189.018"/>
    <polygon fill="#DBDBD5" points="125.4 191.018 127.4 191.018 127.4 189.018 125.4 189.018"/>
    <polygon fill="#DBDBD5" points="157.4 191.018 159.4 191.018 159.4 189.018 157.4 189.018"/>
    <polygon fill="#DBDBD5" points="165.4 207.018 167.4 207.018 167.4 205.018 165.4 205.018"/>
    <polygon fill="#DBDBD5" points="165.4 215.018 167.4 215.018 167.4 213.018 165.4 213.018"/>
    <polygon fill="#DBDBD5" points="153.4 199.018 155.4 199.018 155.4 197.018 153.4 197.018"/>
    <polygon fill="#DBDBD5" points="157.4 215.018 159.4 215.018 159.4 213.018 157.4 213.018"/>
    <polygon fill="#DBDBD5" points="173.4 215.018 175.4 215.018 175.4 213.018 173.4 213.018"/>
    <polygon fill="#DBDBD5" points="97.4 215.018 99.4 215.018 99.4 213.018 97.4 213.018"/>
    <polygon fill="#DBDBD5" points="173.4 191.018 175.4 191.018 175.4 189.018 173.4 189.018"/>
    <polygon fill="#DBDBD5" points="161.4 199.018 163.4 199.018 163.4 197.018 161.4 197.018"/>
    <path fill="#DBDBD5" d="M171.4,193.018 L177.4,193.018 L177.4,187.018 L171.4,187.018 L171.4,193.018 Z M167.4,201.018 L177.4,201.018 L177.4,195.018 L167.4,195.018 L167.4,201.018 Z M171.4,209.018 L177.4,209.018 L177.4,203.018 L171.4,203.018 L171.4,209.018 Z M171.4,217.018 L177.4,217.018 L177.4,211.018 L171.4,211.018 L171.4,217.018 Z M163.4,209.018 L169.4,209.018 L169.4,203.018 L163.4,203.018 L163.4,209.018 Z M163.4,217.018 L169.4,217.018 L169.4,211.018 L163.4,211.018 L163.4,217.018 Z M155.4,209.018 L161.4,209.018 L161.4,203.018 L155.4,203.018 L155.4,209.018 Z M155.4,217.018 L161.4,217.018 L161.4,211.018 L155.4,211.018 L155.4,217.018 Z M147.4,209.018 L153.4,209.018 L153.4,203.018 L147.4,203.018 L147.4,209.018 Z M111.4,217.018 L153.4,217.018 L153.4,211.018 L111.4,211.018 L111.4,217.018 Z M103.4,217.018 L109.4,217.018 L109.4,211.018 L103.4,211.018 L103.4,217.018 Z M95.4,217.018 L101.4,217.018 L101.4,211.018 L95.4,211.018 L95.4,217.018 Z M87.4,217.018 L93.4,217.018 L93.4,211.018 L87.4,211.018 L87.4,217.018 Z M79.4,217.018 L85.4,217.018 L85.4,211.018 L79.4,211.018 L79.4,217.018 Z M79.4,209.018 L89.4,209.018 L89.4,203.018 L79.4,203.018 L79.4,209.018 Z M79.4,201.018 L85.4,201.018 L85.4,195.018 L79.4,195.018 L79.4,201.018 Z M79.4,193.018 L89.4,193.018 L89.4,187.018 L79.4,187.018 L79.4,193.018 Z M91.4,193.018 L97.4,193.018 L97.4,187.018 L91.4,187.018 L91.4,193.018 Z M99.4,193.018 L105.4,193.018 L105.4,187.018 L99.4,187.018 L99.4,193.018 Z M107.4,193.018 L113.4,193.018 L113.4,187.018 L107.4,187.018 L107.4,193.018 Z M115.4,193.018 L121.4,193.018 L121.4,187.018 L115.4,187.018 L115.4,193.018 Z M123.4,193.018 L129.4,193.018 L129.4,187.018 L123.4,187.018 L123.4,193.018 Z M131.4,193.018 L137.4,193.018 L137.4,187.018 L131.4,187.018 L131.4,193.018 Z M139.4,193.018 L145.4,193.018 L145.4,187.018 L139.4,187.018 L139.4,193.018 Z M143.4,201.018 L149.4,201.018 L149.4,195.018 L143.4,195.018 L143.4,201.018 Z M139.4,209.018 L145.4,209.018 L145.4,203.018 L139.4,203.018 L139.4,209.018 Z M135.4,201.018 L141.4,201.018 L141.4,195.018 L135.4,195.018 L135.4,201.018 Z M131.4,209.018 L137.4,209.018 L137.4,203.018 L131.4,203.018 L131.4,209.018 Z M127.4,201.018 L133.4,201.018 L133.4,195.018 L127.4,195.018 L127.4,201.018 Z M123.4,209.018 L129.4,209.018 L129.4,203.018 L123.4,203.018 L123.4,209.018 Z M119.4,201.018 L125.4,201.018 L125.4,195.018 L119.4,195.018 L119.4,201.018 Z M115.4,209.018 L121.4,209.018 L121.4,203.018 L115.4,203.018 L115.4,209.018 Z M111.4,201.018 L117.4,201.018 L117.4,195.018 L111.4,195.018 L111.4,201.018 Z M107.4,209.018 L113.4,209.018 L113.4,203.018 L107.4,203.018 L107.4,209.018 Z M103.4,201.018 L109.4,201.018 L109.4,195.018 L103.4,195.018 L103.4,201.018 Z M99.4,209.018 L105.4,209.018 L105.4,203.018 L99.4,203.018 L99.4,209.018 Z M95.4,201.018 L101.4,201.018 L101.4,195.018 L95.4,195.018 L95.4,201.018 Z M87.4,201.018 L93.4,201.018 L93.4,195.018 L87.4,195.018 L87.4,201.018 Z M91.4,209.018 L97.4,209.018 L97.4,203.018 L91.4,203.018 L91.4,209.018 Z M147.4,193.018 L153.4,193.018 L153.4,187.018 L147.4,187.018 L147.4,193.018 Z M151.4,201.018 L157.4,201.018 L157.4,195.018 L151.4,195.018 L151.4,201.018 Z M155.4,193.018 L161.4,193.018 L161.4,187.018 L155.4,187.018 L155.4,193.018 Z M159.4,201.018 L165.4,201.018 L165.4,195.018 L159.4,195.018 L159.4,201.018 Z M163.4,193.018 L169.4,193.018 L169.4,187.018 L163.4,187.018 L163.4,193.018 Z M178.399,184.018 L78.399,184.018 C77.295,184.018 76.399,184.913 76.399,186.018 L76.399,218.018 C76.399,219.122 77.295,220.018 78.399,220.018 L178.399,220.018 C179.504,220.018 180.399,219.122 180.399,218.018 L180.399,186.018 C180.399,184.913 179.504,184.018 178.399,184.018 Z"/>
    <polygon fill="#DBDBD5" points="165.4 191.018 167.4 191.018 167.4 189.018 165.4 189.018"/>
    <polygon fill="#DBDBD5" points="173.4 207.018 175.4 207.018 175.4 205.018 173.4 205.018"/>
    <polygon fill="#DBDBD5" points="169.4 199.018 175.4 199.018 175.4 197.018 169.4 197.018"/>
    <polygon fill="#DBDBD5" points="157.4 207.018 159.4 207.018 159.4 205.018 157.4 205.018"/>
    <polygon fill="#DBDBD5" points="149.4 191.018 151.4 191.018 151.4 189.018 149.4 189.018"/>
    <polygon fill="#DBDBD5" points="113.4 215.018 151.4 215.018 151.4 213.018 113.4 213.018"/>
    <polygon fill="#DBDBD5" points="149.4 207.018 151.4 207.018 151.4 205.018 149.4 205.018"/>
    <polygon fill="#DBDBD5" points="105.4 215.018 107.4 215.018 107.4 213.018 105.4 213.018"/>
    <polygon fill="#DBDBD5" points="93.4 207.018 95.4 207.018 95.4 205.018 93.4 205.018"/>
    <path fill="#434A4F" d="M78.4,184.982 C77.848,184.982 77.4,185.431 77.4,185.982 L77.4,217.982 C77.4,218.533 77.848,218.982 78.4,218.982 L178.4,218.982 C178.951,218.982 179.4,218.533 179.4,217.982 L179.4,185.982 C179.4,185.431 178.951,184.982 178.4,184.982 L78.4,184.982 Z M178.4,220.982 L78.4,220.982 C76.745,220.982 75.4,219.636 75.4,217.982 L75.4,185.982 C75.4,184.328 76.745,182.982 78.4,182.982 L178.4,182.982 C180.054,182.982 181.4,184.328 181.4,185.982 L181.4,217.982 C181.4,219.636 180.054,220.982 178.4,220.982 Z"/>
    <path fill="#42494E" d="M86.424 89.017L84.424 89.017 84.424 80.276C84.424 78.622 85.77 77.276 87.424 77.276L102.61 77.276 102.61 79.276 87.424 79.276C86.873 79.276 86.424 79.725 86.424 80.276L86.424 89.017M207.423 157.999L87.424 157.999C85.77 157.999 84.424 156.654 84.424 154.999L84.424 121.017 86.424 121.017 86.424 154.999C86.424 155.551 86.873 155.999 87.424 155.999L207.423 155.999C207.974 155.999 208.423 155.551 208.423 154.999L208.423 80.276C208.423 79.725 207.974 79.276 207.423 79.276L191.707 79.276 191.707 77.276 207.423 77.276C209.077 77.276 210.423 78.622 210.423 80.276L210.423 154.999C210.423 156.654 209.077 157.999 207.423 157.999"/>
    <polygon fill="#42494E" points="125.423 169.999 169.423 169.999 169.423 167.999 125.423 167.999"/>
    <polygon fill="#42494E" points="132.423 168.999 134.423 168.999 134.423 156.999 132.423 156.999"/>
    <polygon fill="#42494E" points="160.423 168.999 162.423 168.999 162.423 156.999 160.423 156.999"/>
    <polygon fill="#42494E" points="102.424 146 104.424 146 104.424 100.018 102.424 100.018"/>
    <polyline fill="#42494E" points="192.424 146 190.424 146 190.424 52.001 104.424 52.001 104.424 92.017 102.424 92.017 102.424 50.001 192.424 50.001 192.424 146"/>
    <path fill="#42494E" d="M109.424 55.999C108.873 55.999 108.424 56.448 108.424 56.999 108.424 57.55 108.873 57.999 109.424 57.999 109.975 57.999 110.424 57.55 110.424 56.999 110.424 56.448 109.975 55.999 109.424 55.999zM109.424 59.999C107.77 59.999 106.424 58.654 106.424 56.999 106.424 55.345 107.77 53.999 109.424 53.999 111.078 53.999 112.424 55.345 112.424 56.999 112.424 58.654 111.078 59.999 109.424 59.999zM117.424 55.999C116.873 55.999 116.424 56.448 116.424 56.999 116.424 57.55 116.873 57.999 117.424 57.999 117.975 57.999 118.424 57.55 118.424 56.999 118.424 56.448 117.975 55.999 117.424 55.999zM117.424 59.999C115.77 59.999 114.424 58.654 114.424 56.999 114.424 55.345 115.77 53.999 117.424 53.999 119.078 53.999 120.424 55.345 120.424 56.999 120.424 58.654 119.078 59.999 117.424 59.999zM125.424 55.999C124.873 55.999 124.424 56.448 124.424 56.999 124.424 57.55 124.873 57.999 125.424 57.999 125.975 57.999 126.424 57.55 126.424 56.999 126.424 56.448 125.975 55.999 125.424 55.999zM125.424 59.999C123.77 59.999 122.424 58.654 122.424 56.999 122.424 55.345 123.77 53.999 125.424 53.999 127.078 53.999 128.424 55.345 128.424 56.999 128.424 58.654 127.078 59.999 125.424 59.999z"/>
    <polyline fill="#42494E" points="67.614 162.444 38.907 132.173 40.359 130.797 69.065 161.068 67.614 162.444"/>
    <path fill="#DBDBD5" d="M46.456,168.468 C46.456,163.064 50.837,158.683 56.241,158.683 L72.79,158.683 C78.195,158.683 82.576,163.064 82.576,168.468 L82.576,168.576"/>
    <path fill="#FACD60" d="M96.656,102.236 C101.022,106.602 101.022,113.681 96.656,118.047 C92.289,122.413 85.211,122.413 80.844,118.047"/>
    <polygon fill="#42494E" points="42.825 170.018 86.313 170.018 86.313 168.018 42.825 168.018"/>
    <polyline fill="#42494E" points="40.268 124.887 38.772 123.56 57.85 102.041 59.346 103.368 40.268 124.887"/>
    <path fill="#E9886C" d="M35.83,123.717 C33.492,123.717 31.589,125.619 31.589,127.957 C31.589,130.295 33.492,132.198 35.83,132.198 C38.168,132.198 40.07,130.295 40.07,127.957 C40.07,125.619 38.168,123.717 35.83,123.717 Z M35.83,134.198 C32.389,134.198 29.589,131.398 29.589,127.957 C29.589,124.516 32.389,121.717 35.83,121.717 C39.271,121.717 42.07,124.516 42.07,127.957 C42.07,131.398 39.271,134.198 35.83,134.198 Z"/>
    <path fill="#DBDBD5" d="M74.237,124.654 L66.696,102.778 L59.406,95.488 C55.309,91.39 55.309,84.747 59.406,80.649 C63.504,76.552 70.147,76.552 74.245,80.649 L81.534,87.939 L103.411,95.48 L74.237,124.654"/>
    <path fill="#434A4F" d="M60.62 104.509C59.698 104.509 58.775 104.157 58.073 103.455 56.668 102.051 56.668 99.765 58.073 98.361L60.383 96.051 61.797 97.465 59.487 99.775C58.862 100.4 58.862 101.416 59.487 102.041 60.112 102.666 61.129 102.666 61.754 102.041L64.063 99.732 65.477 101.146 63.168 103.455C62.466 104.157 61.543 104.509 60.62 104.509M127.4 183.017L125.4 183.017 125.4 181.017C125.4 178.26 127.643 176.017 130.4 176.017L215.411 176.017C217.065 176.017 218.411 174.672 218.411 173.017 218.411 171.363 217.065 170.017 215.411 170.017L183.411 170.017C180.654 170.017 178.411 167.774 178.411 165.017L178.411 157.017 180.411 157.017 180.411 165.017C180.411 166.672 181.757 168.017 183.411 168.017L215.411 168.017C218.168 168.017 220.411 170.26 220.411 173.017 220.411 175.774 218.168 178.017 215.411 178.017L130.4 178.017C128.745 178.017 127.4 179.363 127.4 181.017L127.4 183.017"/>
    <path fill="#DBDBD5" d="M207.411,217.017 L195.411,217.017 C193.202,217.017 191.411,215.226 191.411,213.017 L191.411,191.017 C191.411,188.808 193.202,187.017 195.411,187.017 L207.411,187.017 C209.62,187.017 211.411,188.808 211.411,191.017 L211.411,213.017 C211.411,215.226 209.62,217.017 207.411,217.017"/>
    <polygon fill="#434A4F" points="200.411 195.017 202.411 195.017 202.411 187.017 200.411 187.017"/>
    <path fill="#42494E" d="M66.825,78.58 C64.395,78.58 61.964,79.506 60.113,81.356 C56.412,85.057 56.412,91.08 60.113,94.781 L67.566,102.234 L74.661,122.816 L101.573,95.904 L80.991,88.809 L73.538,81.356 C71.687,79.506 69.256,78.58 66.825,78.58 Z M73.813,126.492 L65.825,103.322 L58.699,96.195 C54.218,91.714 54.218,84.423 58.699,79.942 C63.179,75.461 70.471,75.461 74.952,79.942 L82.078,87.069 L105.249,95.056 L73.813,126.492 Z"/>
    <path fill="#434A4F" d="M132.411 57.017C132.411 56.467 132.861 56.017 133.411 56.017 133.961 56.017 134.411 56.467 134.411 57.017 134.411 57.567 133.961 58.017 133.411 58.017 132.861 58.017 132.411 57.567 132.411 57.017zM136.411 57.017C136.411 56.467 136.861 56.017 137.411 56.017 137.961 56.017 138.411 56.467 138.411 57.017 138.411 57.567 137.961 58.017 137.411 58.017 136.861 58.017 136.411 57.567 136.411 57.017zM140.411 57.017C140.411 56.467 140.861 56.017 141.411 56.017 141.961 56.017 142.411 56.467 142.411 57.017 142.411 57.567 141.961 58.017 141.411 58.017 140.861 58.017 140.411 57.567 140.411 57.017zM144.411 57.017C144.411 56.467 144.861 56.017 145.411 56.017 145.961 56.017 146.411 56.467 146.411 57.017 146.411 57.567 145.961 58.017 145.411 58.017 144.861 58.017 144.411 57.567 144.411 57.017zM148.411 57.017C148.411 56.467 148.861 56.017 149.411 56.017 149.961 56.017 150.411 56.467 150.411 57.017 150.411 57.567 149.961 58.017 149.411 58.017 148.861 58.017 148.411 57.567 148.411 57.017zM152.411 57.017C152.411 56.467 152.861 56.017 153.411 56.017 153.961 56.017 154.411 56.467 154.411 57.017 154.411 57.567 153.961 58.017 153.411 58.017 152.861 58.017 152.411 57.567 152.411 57.017zM156.411 57.017C156.411 56.467 156.861 56.017 157.411 56.017 157.961 56.017 158.411 56.467 158.411 57.017 158.411 57.567 157.961 58.017 157.411 58.017 156.861 58.017 156.411 57.567 156.411 57.017zM160.411 57.017C160.411 56.467 160.861 56.017 161.411 56.017 161.961 56.017 162.411 56.467 162.411 57.017 162.411 57.567 161.961 58.017 161.411 58.017 160.861 58.017 160.411 57.567 160.411 57.017zM159.254 105.297L169.705 130.606 174.178 121.611 182.565 129.998 183.979 128.583 175.549 120.152 183.202 115.561 159.254 105.297zM169.536 135.437L155.533 101.527 187.585 115.263 178.774 120.55 186.807 128.583 182.565 132.826 174.731 124.991 169.536 135.437z"/>
    <polygon fill="#42494E" points="153.405 88.021 173.405 88.021 173.405 86.021 153.405 86.021"/>
    <polygon fill="#42494E" points="153.405 92.021 173.405 92.021 173.405 90.021 153.405 90.021"/>
    <polygon fill="#42494E" points="153.405 96.021 173.405 96.021 173.405 94.021 153.405 94.021"/>
    <path fill="#42494E" d="M63.411,134.017 C61.757,134.017 60.411,135.363 60.411,137.017 C60.411,138.672 61.757,140.017 63.411,140.017 L138.588,140.017 L145.094,137.017 L138.588,134.017 L63.411,134.017 Z M139.027,142.017 L63.411,142.017 C60.654,142.017 58.411,139.774 58.411,137.017 C58.411,134.26 60.654,132.017 63.411,132.017 L139.027,132.017 L149.87,137.017 L139.027,142.017 Z"/>
    <polygon fill="#42494E" points="69.021 141.017 71.021 141.017 71.021 133.419 69.021 133.419"/>
    <polygon fill="#42494E" points="70.021 137.989 138.039 137.989 138.039 135.989 70.021 135.989"/>
    <polygon fill="#FACD60" points="186.856 53.015 217.408 53.015 217.408 34.044 186.856 34.044"/>
    <path fill="#FACD60" d="M187.856,52.015 L216.408,52.015 L216.408,35.044 L187.856,35.044 L187.856,52.015 Z M185.856,54.015 L218.408,54.015 L218.408,33.044 L185.856,33.044 L185.856,54.015 Z"/>
    <path fill="#434A4F" d="M202.132 44.721C201.947 44.721 201.762 44.67 201.599 44.567L188.375 36.236C187.908 35.942 187.768 35.324 188.062 34.857 188.357 34.389 188.974 34.25 189.442 34.544L202.127 42.536 213.993 34.923C214.458 34.626 215.077 34.759 215.375 35.225 215.674 35.69 215.538 36.308 215.073 36.607L202.672 44.563C202.508 44.668 202.32 44.721 202.132 44.721M215.068 51.551C214.781 51.551 214.497 51.428 214.3 51.191L208.14 43.801C207.786 43.377 207.844 42.746 208.268 42.393 208.692 42.039 209.322 42.096 209.676 42.521L215.836 49.911C216.189 50.335 216.132 50.966 215.708 51.319 215.521 51.475 215.294 51.551 215.068 51.551M189.197 51.551C188.971 51.551 188.744 51.475 188.557 51.319 188.133 50.966 188.075 50.335 188.429 49.911L194.589 42.521C194.942 42.096 195.572 42.04 195.997 42.393 196.421 42.746 196.478 43.377 196.125 43.801L189.965 51.191C189.767 51.428 189.483 51.551 189.197 51.551"/>
    <polygon fill="#434A4F" points="202.41 70.015 204.41 70.015 204.41 58.015 202.41 58.015"/>
    <path fill="#434A4F" d="M203.411,74.017 C203.341,74.017 203.281,74.007 203.211,73.997 C203.151,73.987 203.091,73.967 203.031,73.937 C202.971,73.917 202.911,73.887 202.851,73.847 C202.801,73.807 202.751,73.767 202.701,73.727 C202.611,73.627 202.541,73.517 202.49,73.397 C202.431,73.277 202.411,73.147 202.411,73.017 C202.411,72.887 202.431,72.757 202.49,72.627 C202.541,72.507 202.611,72.397 202.701,72.307 C203.071,71.937 203.751,71.937 204.121,72.307 C204.301,72.497 204.411,72.757 204.411,73.017 C204.411,73.147 204.381,73.277 204.331,73.397 C204.281,73.517 204.211,73.627 204.121,73.727 C203.931,73.907 203.671,74.017 203.411,74.017"/>
    <polygon fill="#434A4F" points="208.41 64.012 210.41 64.012 210.41 58.015 208.41 58.015"/>
    <path fill="#434A4F" d="M209.411,68.007 C209.151,68.007 208.891,67.907 208.701,67.717 C208.521,67.537 208.411,67.277 208.411,67.017 C208.411,66.747 208.521,66.487 208.701,66.307 C208.981,66.027 209.421,65.937 209.791,66.087 C209.911,66.137 210.021,66.217 210.121,66.307 C210.301,66.497 210.411,66.747 210.411,67.017 C210.411,67.277 210.301,67.527 210.121,67.717 C210.021,67.817 209.911,67.887 209.791,67.937 C209.671,67.987 209.541,68.007 209.411,68.007"/>
    <polygon fill="#434A4F" points="196.406 66.012 198.406 66.012 198.406 58.015 196.406 58.015"/>
    <path fill="#434A4F" d="M197.401,70.017 C197.271,70.017 197.151,69.987 197.021,69.937 C196.901,69.887 196.791,69.807 196.701,69.717 C196.611,69.627 196.531,69.517 196.481,69.397 C196.431,69.277 196.411,69.147 196.411,69.017 C196.411,68.877 196.431,68.757 196.481,68.627 C196.531,68.507 196.611,68.397 196.701,68.307 C196.791,68.217 196.901,68.137 197.021,68.087 C197.391,67.937 197.841,68.027 198.111,68.307 C198.201,68.397 198.281,68.507 198.331,68.627 C198.381,68.757 198.411,68.877 198.411,69.017 C198.411,69.147 198.381,69.267 198.331,69.397 C198.281,69.517 198.201,69.627 198.111,69.717 C197.931,69.907 197.671,70.017 197.401,70.017"/>
    <path fill="#75C7D0" d="M106.173 173.028C106.173 175.237 104.382 177.028 102.173 177.028 99.963 177.028 98.173 175.237 98.173 173.028 98.173 170.818 99.963 169.028 102.173 169.028 104.382 169.028 106.173 170.818 106.173 173.028M46.137 79.972C46.137 82.181 44.346 83.972 42.137 83.972 39.927 83.972 38.137 82.181 38.137 79.972 38.137 77.763 39.927 75.972 42.137 75.972 44.346 75.972 46.137 77.763 46.137 79.972"/>
    <polygon fill="#434A4F" points="50.083 190.07 52.083 190.07 52.083 186.07 50.083 186.07"/>
    <polygon fill="#434A4F" points="50.083 200.07 52.083 200.07 52.083 196.07 50.083 196.07"/>
    <polygon fill="#434A4F" points="54.083 194.07 58.083 194.07 58.083 192.07 54.083 192.07"/>
    <polygon fill="#434A4F" points="44.083 194.07 48.083 194.07 48.083 192.07 44.083 192.07"/>
    <polygon fill="#434A4F" points="50.083 53.988 52.083 53.988 52.083 49.988 50.083 49.988"/>
    <polygon fill="#434A4F" points="50.083 63.988 52.083 63.988 52.083 59.988 50.083 59.988"/>
    <polygon fill="#434A4F" points="54.083 57.988 58.083 57.988 58.083 55.988 54.083 55.988"/>
    <polygon fill="#434A4F" points="44.083 57.988 48.083 57.988 48.083 55.988 44.083 55.988"/>
    <polygon fill="#434A4F" points="160.149 36.978 162.149 36.978 162.149 32.978 160.149 32.978"/>
    <polygon fill="#434A4F" points="160.149 46.978 162.149 46.978 162.149 42.978 160.149 42.978"/>
    <polygon fill="#434A4F" points="164.149 40.978 168.149 40.978 168.149 38.978 164.149 38.978"/>
    <polygon fill="#434A4F" points="154.149 40.978 158.149 40.978 158.149 38.978 154.149 38.978"/>
    <path fill="#434A4F" d="M195.411,188.017 C193.757,188.017 192.411,189.363 192.411,191.017 L192.411,213.017 C192.411,214.672 193.757,216.017 195.411,216.017 L207.411,216.017 C209.065,216.017 210.411,214.672 210.411,213.017 L210.411,191.017 C210.411,189.363 209.065,188.017 207.411,188.017 L195.411,188.017 Z M207.411,218.017 L195.411,218.017 C192.654,218.017 190.411,215.774 190.411,213.017 L190.411,191.017 C190.411,188.26 192.654,186.017 195.411,186.017 L207.411,186.017 C210.168,186.017 212.411,188.26 212.411,191.017 L212.411,213.017 C212.411,215.774 210.168,218.017 207.411,218.017 Z"/>
    <path fill="#E9886C" d="M129.711,91.215 C128.992,91.215 128.274,91.488 127.727,92.035 C126.633,93.129 126.633,94.908 127.727,96.002 C128.821,97.096 130.601,97.096 131.695,96.002 C132.224,95.472 132.516,94.768 132.516,94.018 C132.516,93.269 132.224,92.565 131.695,92.035 C131.148,91.488 130.429,91.215 129.711,91.215 Z M129.711,98.822 C128.48,98.822 127.25,98.353 126.313,97.416 C124.439,95.543 124.439,92.494 126.313,90.621 C128.186,88.747 131.236,88.747 133.109,90.621 C134.016,91.528 134.516,92.735 134.516,94.018 C134.516,95.302 134.016,96.509 133.109,97.416 C132.172,98.353 130.941,98.822 129.711,98.822 Z"/>
    <path fill="#434A4F" d="M127.023,106.658 C127.234,106.658 127.448,106.676 127.663,106.71 C129.354,106.979 130.618,108.246 130.884,109.936 L131.121,111.442 L133.694,111.037 L133.457,109.532 C133.191,107.841 134.006,106.247 135.531,105.472 C137.057,104.697 138.824,104.979 140.034,106.19 L141.11,107.269 L142.954,105.428 L141.877,104.35 C140.668,103.138 140.39,101.37 141.169,99.846 C141.948,98.322 143.547,97.508 145.233,97.781 L146.739,98.021 L147.149,95.448 L145.644,95.208 C143.954,94.939 142.69,93.672 142.424,91.981 C142.157,90.29 142.972,88.697 144.498,87.921 L145.856,87.231 L144.71,84.977 L143.352,85.667 C141.826,86.444 140.059,86.161 138.85,84.949 C137.641,83.738 137.363,81.97 138.141,80.446 L138.835,79.089 L136.514,77.904 L135.821,79.261 C135.043,80.785 133.448,81.601 131.757,81.327 C130.067,81.058 128.802,79.791 128.536,78.1 L128.3,76.595 L125.726,77 L125.963,78.505 C126.229,80.196 125.415,81.79 123.889,82.565 C122.363,83.341 120.597,83.059 119.387,81.848 L118.311,80.769 L116.467,82.61 L117.543,83.688 C118.752,84.9 119.031,86.667 118.252,88.192 C117.474,89.716 115.876,90.531 114.188,90.257 L112.683,90.018 L112.273,92.59 L113.778,92.83 C115.468,93.099 116.732,94.365 116.998,96.056 C117.264,97.747 116.45,99.341 114.925,100.117 L113.566,100.807 L114.711,103.059 L116.069,102.368 C117.595,101.594 119.362,101.874 120.571,103.087 C121.78,104.298 122.058,106.066 121.28,107.59 L120.586,108.947 L122.906,110.133 L123.599,108.775 C124.279,107.446 125.58,106.658 127.023,106.658 Z M129.456,113.728 L128.908,110.247 C128.752,109.254 128,108.789 127.348,108.685 C126.698,108.581 125.838,108.789 125.381,109.685 L123.777,112.823 L117.895,109.818 L119.498,106.68 C119.956,105.784 119.621,104.966 119.156,104.499 C118.689,104.031 117.871,103.695 116.975,104.152 L113.834,105.748 L110.877,99.93 L114.018,98.334 C114.915,97.878 115.125,97.019 115.023,96.367 C114.92,95.716 114.456,94.963 113.463,94.805 L109.983,94.25 L111.023,87.728 L114.502,88.282 C115.497,88.444 116.171,87.869 116.471,87.282 C116.771,86.695 116.838,85.813 116.127,85.101 L113.638,82.607 L118.314,77.941 L120.803,80.435 C121.513,81.147 122.393,81.081 122.983,80.783 C123.571,80.484 124.144,79.81 123.988,78.816 L123.439,75.335 L129.965,74.309 L130.512,77.789 C130.669,78.783 131.42,79.248 132.072,79.352 C132.724,79.458 133.582,79.247 134.04,78.351 L135.643,75.214 L141.525,78.218 L139.923,81.356 C139.465,82.252 139.8,83.07 140.265,83.537 C140.731,84.003 141.547,84.341 142.446,83.884 L145.587,82.287 L148.545,88.108 L145.404,89.704 C144.507,90.16 144.297,91.019 144.399,91.67 C144.502,92.322 144.966,93.074 145.959,93.233 L149.439,93.788 L148.399,100.311 L144.919,99.756 C143.929,99.601 143.25,100.168 142.95,100.756 C142.65,101.344 142.583,102.225 143.293,102.937 L145.782,105.431 L141.107,110.097 L138.618,107.603 C137.907,106.891 137.025,106.956 136.438,107.255 C135.849,107.554 135.277,108.227 135.433,109.221 L135.98,112.702 L129.456,113.728 Z"/>
    <path fill="#434A4F" d="M130.981,84.447 C130.431,84.377 130.051,83.867 130.121,83.327 C130.201,82.777 130.701,82.387 131.251,82.467 C131.791,82.537 132.181,83.037 132.111,83.587 C132.041,84.087 131.611,84.457 131.121,84.457 C131.071,84.457 131.031,84.447 130.981,84.447 Z M126.171,83.917 C126.041,83.377 126.371,82.837 126.901,82.707 C126.901,82.707 126.901,82.707 126.911,82.707 C127.441,82.567 127.981,82.897 128.111,83.437 C128.251,83.967 127.921,84.517 127.381,84.647 C127.301,84.667 127.221,84.677 127.141,84.677 C126.691,84.677 126.291,84.367 126.171,83.917 Z M134.401,85.577 C133.921,85.307 133.751,84.697 134.021,84.217 C134.281,83.737 134.891,83.557 135.381,83.827 C135.861,84.097 136.031,84.707 135.76,85.187 C135.581,85.517 135.24,85.707 134.891,85.707 C134.721,85.707 134.561,85.667 134.401,85.577 Z M122.721,85.917 C122.401,85.467 122.501,84.837 122.951,84.517 C123.401,84.197 124.021,84.307 124.351,84.757 C124.671,85.207 124.561,85.827 124.111,86.147 C123.941,86.277 123.731,86.337 123.531,86.337 C123.221,86.337 122.911,86.187 122.721,85.917 Z M136.541,87.187 C136.151,86.807 136.151,86.167 136.541,85.777 C136.931,85.387 137.561,85.387 137.951,85.777 C138.341,86.167 138.341,86.807 137.951,87.187 C137.76,87.387 137.501,87.487 137.24,87.487 C136.99,87.487 136.731,87.387 136.541,87.187 Z M120.231,89.037 C119.771,88.737 119.641,88.117 119.941,87.657 C120.24,87.197 120.861,87.067 121.321,87.367 C121.791,87.667 121.921,88.287 121.621,88.747 C121.421,89.047 121.101,89.207 120.781,89.207 C120.591,89.207 120.401,89.147 120.231,89.037 Z M138.571,90.167 C138.351,89.657 138.581,89.067 139.091,88.847 C139.591,88.627 140.181,88.867 140.401,89.367 C140.621,89.877 140.391,90.467 139.881,90.687 C139.751,90.747 139.621,90.767 139.49,90.767 C139.101,90.767 138.731,90.547 138.571,90.167 Z M119.071,92.867 C118.531,92.757 118.181,92.227 118.291,91.687 C118.401,91.147 118.931,90.787 119.471,90.907 C120.01,91.017 120.361,91.537 120.251,92.077 C120.151,92.557 119.74,92.887 119.271,92.887 C119.201,92.887 119.141,92.877 119.071,92.867 Z M139.361,93.687 C139.341,93.127 139.771,92.667 140.321,92.647 C140.881,92.627 141.341,93.057 141.361,93.617 C141.381,94.167 140.951,94.627 140.391,94.647 C140.381,94.647 140.371,94.647 140.361,94.647 C139.821,94.647 139.381,94.227 139.361,93.687 Z M118.231,96.027 C118.131,95.487 118.501,94.967 119.041,94.877 C119.591,94.777 120.101,95.147 120.201,95.687 C120.291,96.227 119.931,96.747 119.391,96.847 C119.331,96.857 119.271,96.857 119.211,96.857 C118.74,96.857 118.311,96.517 118.231,96.027 Z M139.421,98.517 C138.901,98.337 138.631,97.767 138.811,97.247 C139.001,96.727 139.571,96.457 140.091,96.637 C140.611,96.817 140.881,97.387 140.701,97.917 C140.551,98.327 140.171,98.577 139.751,98.577 C139.641,98.577 139.531,98.557 139.421,98.517 Z M119.771,100.097 C119.481,99.627 119.631,99.017 120.101,98.727 C120.571,98.437 121.181,98.587 121.471,99.057 C121.76,99.527 121.611,100.147 121.141,100.437 C120.981,100.527 120.801,100.577 120.621,100.577 C120.281,100.577 119.951,100.407 119.771,100.097 Z M137.091,101.767 C136.681,101.407 136.631,100.767 136.99,100.357 C137.361,99.937 137.99,99.897 138.411,100.257 C138.821,100.617 138.861,101.247 138.501,101.667 C138.301,101.897 138.031,102.007 137.751,102.007 C137.51,102.007 137.281,101.927 137.091,101.767 Z M122.691,103.327 C122.251,102.987 122.161,102.357 122.49,101.917 C122.831,101.477 123.451,101.397 123.891,101.727 C124.331,102.057 124.421,102.687 124.091,103.127 C123.891,103.387 123.591,103.527 123.291,103.527 C123.081,103.527 122.871,103.457 122.691,103.327 Z M133.74,103.937 C133.481,103.447 133.681,102.837 134.171,102.587 C134.651,102.327 135.26,102.527 135.51,103.017 C135.771,103.507 135.581,104.107 135.091,104.357 C134.941,104.437 134.781,104.477 134.631,104.477 C134.271,104.477 133.921,104.277 133.74,103.937 Z M126.591,105.247 C126.051,105.097 125.74,104.547 125.891,104.017 C126.041,103.487 126.591,103.177 127.121,103.327 C127.651,103.467 127.971,104.017 127.821,104.557 C127.701,104.997 127.291,105.287 126.851,105.287 C126.771,105.287 126.681,105.277 126.591,105.247 Z M129.821,104.717 C129.771,104.167 130.161,103.677 130.711,103.617 C131.26,103.567 131.751,103.967 131.811,104.507 C131.871,105.057 131.471,105.557 130.921,105.607 C130.891,105.617 130.851,105.617 130.821,105.617 C130.311,105.617 129.881,105.237 129.821,104.717 Z"/>
    <path fill="#E9886C" d="M86.427,31.018 C75.4,31.018 66.427,39.99 66.427,51.018 C66.427,62.046 75.4,71.018 86.427,71.018 C97.455,71.018 106.427,62.046 106.427,51.018 C106.427,39.99 97.455,31.018 86.427,31.018 Z M86.427,73.018 C74.297,73.018 64.427,63.149 64.427,51.018 C64.427,38.887 74.297,29.018 86.427,29.018 C98.558,29.018 108.427,38.887 108.427,51.018 C108.427,63.149 98.558,73.018 86.427,73.018 Z"/>
    <polyline fill="#434A4F" points="87.387 61.634 85.387 61.634 85.387 49.24 94.165 49.24 94.165 51.24 87.387 51.24 87.387 61.634"/>
    <path fill="#434A4F" d="M72.036,52.018 L68.925,52.018 C68.373,52.018 67.925,51.57 67.925,51.018 C67.925,50.466 68.373,50.018 68.925,50.018 L72.036,50.018 C72.589,50.018 73.036,50.466 73.036,51.018 C73.036,51.57 72.589,52.018 72.036,52.018"/>
    <path fill="#434A4F" d="M72.036 52.018L68.925 52.018C68.373 52.018 67.925 51.57 67.925 51.018 67.925 50.466 68.373 50.018 68.925 50.018L72.036 50.018C72.589 50.018 73.036 50.466 73.036 51.018 73.036 51.57 72.589 52.018 72.036 52.018M77.533 67.316C77.363 67.316 77.192 67.273 77.034 67.182 76.556 66.906 76.392 66.295 76.668 65.816L78.223 63.122C78.5 62.643 79.11 62.479 79.589 62.756 80.067 63.032 80.231 63.643 79.955 64.122L78.4 66.816C78.215 67.137 77.879 67.316 77.533 67.316M74.015 44.629C73.845 44.629 73.674 44.586 73.516 44.495L70.822 42.94C70.343 42.663 70.179 42.051 70.455 41.573 70.732 41.095 71.341 40.931 71.822 41.207L74.516 42.763C74.994 43.039 75.158 43.651 74.882 44.129 74.697 44.45 74.361 44.629 74.015 44.629M71.032 60.601C70.686 60.601 70.35 60.422 70.165 60.101 69.889 59.623 70.052 59.011 70.531 58.735L73.225 57.179C73.703 56.902 74.315 57.067 74.592 57.545 74.867 58.023 74.704 58.635 74.225 58.911L71.531 60.467C71.374 60.558 71.201 60.601 71.032 60.601M79.329 39.194C78.983 39.194 78.647 39.015 78.462 38.694L76.907 36C76.631 35.521 76.795 34.91 77.273 34.633 77.751 34.357 78.362 34.521 78.639 35L80.194 37.694C80.47 38.173 80.306 38.784 79.828 39.06 79.67 39.151 79.498 39.194 79.329 39.194M103.827 52.018L100.717 52.018C100.164 52.018 99.717 51.57 99.717 51.018 99.717 50.466 100.164 50.018 100.717 50.018L103.827 50.018C104.38 50.018 104.827 50.466 104.827 51.018 104.827 51.57 104.38 52.018 103.827 52.018M86.327 37.24C85.775 37.24 85.327 36.792 85.327 36.24L85.327 33.129C85.327 32.577 85.775 32.129 86.327 32.129 86.88 32.129 87.327 32.577 87.327 33.129L87.327 36.24C87.327 36.792 86.88 37.24 86.327 37.24M86.326 69.907C85.774 69.907 85.326 69.459 85.326 68.907L85.326 65.796C85.326 65.243 85.774 64.796 86.326 64.796 86.879 64.796 87.326 65.243 87.326 65.796L87.326 68.907C87.326 69.459 86.879 69.907 86.326 69.907"/>
    <path fill="#434A4F" d="M103.827 52.018L100.717 52.018C100.164 52.018 99.717 51.57 99.717 51.018 99.717 50.466 100.164 50.018 100.717 50.018L103.827 50.018C104.38 50.018 104.827 50.466 104.827 51.018 104.827 51.57 104.38 52.018 103.827 52.018M95.22 67.316C94.874 67.316 94.538 67.137 94.353 66.816L92.797 64.122C92.521 63.644 92.685 63.032 93.163 62.756 93.64 62.479 94.253 62.643 94.53 63.122L96.085 65.816C96.361 66.294 96.198 66.906 95.719 67.182 95.562 67.273 95.389 67.316 95.22 67.316M98.738 44.629C98.392 44.629 98.056 44.45 97.87 44.129 97.594 43.651 97.758 43.039 98.237 42.763L100.931 41.207C101.409 40.931 102.02 41.095 102.297 41.573 102.573 42.051 102.409 42.663 101.931 42.94L99.237 44.495C99.079 44.586 98.907 44.629 98.738 44.629M101.721 60.601C101.552 60.601 101.38 60.558 101.222 60.467L98.528 58.911C98.049 58.635 97.885 58.023 98.161 57.545 98.437 57.067 99.047 56.902 99.528 57.179L102.222 58.735C102.7 59.011 102.864 59.623 102.588 60.101 102.403 60.422 102.067 60.601 101.721 60.601M93.424 39.194C93.254 39.194 93.082 39.151 92.925 39.06 92.446 38.784 92.283 38.172 92.558 37.694L94.114 35C94.39 34.521 95 34.357 95.48 34.633 95.959 34.91 96.122 35.522 95.846 36L94.291 38.694C94.105 39.015 93.769 39.194 93.424 39.194"/>
  </g>
</svg>
