<svg xmlns="http://www.w3.org/2000/svg" width="250" height="250" viewBox="0 0 250 250">
  <g fill="none" fill-rule="evenodd">
    <path fill="#DDDED9" d="M46.411 122.739C49.434 122.74 52.17 123.961 54.158 125.936L54.158 119.674C54.158 101.045 69.624 86.029 88.417 86.765 94.973 87.022 101.281 89.53 106.542 93.486 100.976 83.265 90.082 75.689 78.412 75.232 59.619 74.496 44.153 89.512 44.153 108.141L44.153 120.485C44.153 121.73 45.162 122.739 46.407 122.738L46.407 122.739C46.408 122.739 46.41 122.739 46.411 122.739M122.954 110.12C125.829 117.978 130.984 124.734 137.618 129.593 139.137 127.985 140.142 125.886 140.354 123.554 133.423 120.684 127.431 116.009 122.954 110.12M189.427 110.678C181.737 120.453 169.81 126.739 156.408 126.739 154.292 126.739 152.214 126.578 150.182 126.277 147.755 128.892 144.651 130.864 141.148 131.918 142.814 132.897 144.55 133.769 146.353 134.515 145.882 139.686 141.539 143.738 136.246 143.738L141.323 143.738C147.199 143.738 152.476 141.23 156.181 137.238 158.213 137.54 160.291 137.7 162.406 137.7 175.253 137.7 186.745 131.926 194.449 122.839L189.427 110.678M195.285 100.636L203.55 104.178C204.111 101.44 204.406 98.604 204.406 95.7 204.406 86.163 201.223 77.373 195.867 70.322 197.51 74.818 198.408 79.674 198.408 84.739 198.408 90.366 197.293 95.731 195.285 100.636M190.953 146.107C191.094 146.651 191.098 147.221 190.965 147.767L188.822 156.603C188.822 157.898 189.871 158.947 191.166 158.947L195.785 158.947C194.49 158.947 193.441 157.898 193.441 156.603L195.584 147.767C195.717 147.221 195.713 146.651 195.572 146.107L194.613 142.392C193.923 139.72 191.513 137.854 188.754 137.854L188.754 140.003C189.327 140.681 189.761 141.489 189.994 142.392L190.953 146.107M208.476 165.978L208.677 165.978C210.681 165.978 212.293 164.301 212.187 162.274 212.088 160.373 210.381 158.947 208.478 158.947L203.858 158.947C205.762 158.947 207.468 160.373 207.568 162.274 207.674 164.301 206.062 165.978 204.057 165.978L203.857 165.978C205.761 165.978 207.467 167.404 207.567 169.305 207.667 171.214 206.243 172.812 204.403 172.992 204.289 173.004 203.001 172.992 202.883 172.992 205.036 172.992 206.737 174.947 206.342 177.17 206.043 178.847 204.476 179.997 202.776 180.037L202.776 180.216C204.236 180.696 205.275 182.106 205.189 183.745 205.089 185.646 203.383 187.072 201.479 187.072L203.789 187.072C205.692 187.072 207.399 185.646 207.498 183.745 207.605 181.718 205.992 180.04 203.988 180.04L207.304 180.04C209.039 180.041 210.657 178.878 210.961 177.17 211.356 174.947 209.655 172.992 207.503 172.992 207.62 172.992 208.908 173.004 209.022 172.992 210.862 172.812 212.286 171.214 212.186 169.305 212.086 167.404 210.38 165.978 208.476 165.978"/>
    <path fill="#434A4F" d="M203.789,188.072 L193.821,188.072 C188.85,188.072 183.938,187.283 179.218,185.728 L174.691,185.728 C174.139,185.728 173.691,185.28 173.691,184.728 C173.691,184.176 174.139,183.728 174.691,183.728 L179.379,183.728 C179.486,183.728 179.593,183.745 179.695,183.779 C184.259,185.3 189.011,186.072 193.821,186.072 L203.789,186.072 C205.215,186.072 206.431,185.004 206.5,183.693 C206.537,182.994 206.292,182.33 205.813,181.825 C205.333,181.319 204.685,181.041 203.988,181.041 C203.436,181.041 202.988,180.593 202.988,180.041 C202.988,179.488 203.436,179.041 203.988,179.041 L207.304,179.041 C208.62,179.041 209.769,178.161 209.977,176.994 C210.113,176.228 209.917,175.482 209.426,174.896 C208.951,174.329 208.262,174.001 207.531,173.992 L207.502,173.992 C206.95,173.992 206.502,173.544 206.502,172.992 C206.502,172.423 206.963,171.969 207.553,171.993 L207.701,171.993 C208.059,171.996 208.803,172.001 208.957,171.995 C210.264,171.866 211.258,170.706 211.188,169.357 C211.119,168.045 209.902,166.978 208.476,166.978 C207.924,166.978 207.476,166.53 207.476,165.978 C207.476,165.426 207.924,164.978 208.476,164.978 L208.677,164.978 C209.374,164.978 210.022,164.699 210.502,164.193 C210.981,163.688 211.225,163.025 211.188,162.326 C211.12,161.014 209.904,159.947 208.478,159.947 L195.785,159.947 C193.941,159.947 192.441,158.447 192.441,156.604 C192.441,156.524 192.45,156.445 192.469,156.368 L194.613,147.531 C194.706,147.146 194.703,146.74 194.604,146.357 L193.645,142.642 C193.154,140.742 191.621,139.33 189.753,138.953 L189.753,144.885 C189.753,145.007 189.731,145.129 189.687,145.244 L184.406,158.975 C183.913,160.257 182.659,161.118 181.285,161.118 L174.691,161.118 C174.139,161.118 173.691,160.67 173.691,160.118 C173.691,159.566 174.139,159.118 174.691,159.118 L181.285,159.118 C181.837,159.118 182.341,158.772 182.539,158.257 L187.753,144.699 L187.753,137.854 C187.753,137.301 188.201,136.854 188.753,136.854 C191.969,136.854 194.777,139.028 195.581,142.142 L196.541,145.857 C196.722,146.557 196.727,147.299 196.556,148.002 L194.445,156.707 C194.498,157.4 195.079,157.947 195.785,157.947 L208.478,157.947 C210.992,157.947 213.06,159.825 213.186,162.221 C213.251,163.474 212.813,164.663 211.953,165.57 C211.804,165.727 211.645,165.872 211.476,166.005 C212.464,166.783 213.116,167.939 213.185,169.252 C213.278,171.049 212.317,172.659 210.831,173.465 C210.875,173.513 210.917,173.562 210.959,173.611 C211.824,174.644 212.184,176.005 211.945,177.345 C211.594,179.32 209.818,180.839 207.727,181.022 C208.279,181.832 208.55,182.794 208.497,183.797 C208.372,186.194 206.303,188.072 203.789,188.072"/>
    <path fill="#434A4F" d="M208.677 166.978L202.816 166.978C202.264 166.978 201.816 166.53 201.816 165.978 201.816 165.426 202.264 164.978 202.816 164.978L208.677 164.978C209.229 164.978 209.677 165.426 209.677 165.978 209.677 166.53 209.229 166.978 208.677 166.978M208.675 174.009L202.816 174.009C202.264 174.009 201.816 173.562 201.816 173.009 201.816 172.457 202.264 172.009 202.816 172.009L208.675 172.009C209.228 172.009 209.675 172.457 209.675 173.009 209.675 173.562 209.228 174.009 208.675 174.009M203.988 181.041L202.816 181.041C202.264 181.041 201.816 180.593 201.816 180.041 201.816 179.488 202.264 179.041 202.816 179.041L203.988 179.041C204.54 179.041 204.988 179.488 204.988 180.041 204.988 180.593 204.54 181.041 203.988 181.041M199.511 163.279C199.251 163.279 198.991 163.179 198.811 162.989 198.711 162.898 198.641 162.789 198.591 162.668 198.541 162.539 198.511 162.418 198.511 162.279 198.511 162.019 198.621 161.759 198.811 161.579 199.081 161.299 199.531 161.209 199.901 161.358 200.021 161.409 200.131 161.479 200.221 161.579 200.411 161.759 200.511 162.019 200.511 162.279 200.511 162.418 200.491 162.539 200.441 162.668 200.391 162.789 200.311 162.898 200.221 162.989 200.131 163.079 200.021 163.159 199.901 163.209 199.771 163.259 199.641 163.279 199.511 163.279M199.511 170.318C199.451 170.318 199.381 170.309 199.321 170.299 199.251 170.279 199.191 170.259 199.131 170.239 199.071 170.209 199.011 170.179 198.961 170.148 198.901 170.108 198.851 170.068 198.811 170.019 198.621 169.838 198.511 169.579 198.511 169.318 198.511 169.049 198.621 168.789 198.811 168.608 198.851 168.559 198.901 168.519 198.961 168.479 199.011 168.449 199.071 168.418 199.131 168.389 199.191 168.369 199.251 168.349 199.321 168.329 199.641 168.269 199.991 168.369 200.221 168.608 200.411 168.789 200.511 169.049 200.511 169.318 200.511 169.579 200.411 169.838 200.221 170.019 200.131 170.108 200.021 170.188 199.901 170.239 199.771 170.289 199.641 170.318 199.511 170.318M199.511 177.349C199.451 177.349 199.381 177.338 199.321 177.329 199.251 177.309 199.191 177.289 199.131 177.269 199.071 177.239 199.011 177.209 198.961 177.179 198.901 177.139 198.851 177.099 198.811 177.049 198.621 176.869 198.511 176.608 198.511 176.349 198.511 176.219 198.541 176.088 198.591 175.959 198.641 175.838 198.711 175.729 198.811 175.639 199.081 175.358 199.531 175.269 199.901 175.418 200.021 175.469 200.131 175.549 200.221 175.639 200.311 175.729 200.391 175.838 200.441 175.959 200.491 176.088 200.511 176.219 200.511 176.349 200.511 176.608 200.411 176.869 200.221 177.049 200.031 177.239 199.771 177.349 199.511 177.349"/>
    <polygon fill="#75C7D0" points="155.548 188.739 174.691 188.739 174.691 156.739 155.548 156.739"/>
    <path fill="#434A4F" d="M199.511,184.279 C199.251,184.279 198.991,184.168 198.811,183.979 C198.621,183.799 198.511,183.539 198.511,183.279 C198.511,183.139 198.541,183.019 198.591,182.889 C198.641,182.769 198.711,182.659 198.811,182.568 C199.081,182.289 199.531,182.199 199.901,182.349 C200.021,182.398 200.131,182.479 200.221,182.568 C200.311,182.659 200.391,182.769 200.441,182.889 C200.491,183.019 200.511,183.139 200.511,183.279 C200.511,183.539 200.411,183.799 200.221,183.979 C200.131,184.079 200.021,184.148 199.901,184.199 C199.771,184.249 199.641,184.279 199.511,184.279"/>
    <polygon fill="#434A4F" points="139.408 98.595 173.408 98.595 173.408 96.595 139.408 96.595"/>
    <polygon fill="#434A4F" points="139.408 102.746 173.408 102.746 173.408 100.746 139.408 100.746"/>
    <path fill="#434A4F" d="M188.981,109.598 C181.482,119.4 169.674,125.739 156.408,125.739 C154.388,125.739 152.343,125.587 150.329,125.287 C150.004,125.238 149.673,125.354 149.449,125.596 C146.071,129.236 141.595,131.383 136.723,131.728 C139.287,129.908 141.043,127.019 141.35,123.645 C141.39,123.209 141.141,122.798 140.736,122.63 C125.35,116.259 115.408,101.386 115.408,84.739 C115.408,62.131 133.8,43.739 156.408,43.739 C179.015,43.739 197.408,62.131 197.408,84.739 C197.408,90.222 196.318,95.453 194.356,100.238 L196.195,101.026 C198.26,95.999 199.408,90.501 199.408,84.739 C199.408,61.028 180.118,41.739 156.408,41.739 C132.697,41.739 113.408,61.028 113.408,84.739 C113.408,101.942 123.531,117.339 139.266,124.179 C138.525,128.558 134.767,131.777 130.247,131.777 C129.695,131.777 129.247,132.225 129.247,132.777 C129.247,133.329 129.695,133.777 130.247,133.777 L135.324,133.777 C141.035,133.777 146.554,131.437 150.551,127.339 C152.495,127.604 154.462,127.739 156.408,127.739 C169.907,127.739 181.967,121.48 189.857,111.719 L188.981,109.598"/>
    <polygon fill="#434A4F" points="139.408 106.748 173.408 106.748 173.408 104.748 139.408 104.748"/>
    <path fill="#434A4F" d="M184.989,97.311 L199.08,131.433 L204.991,119.544 L215.792,130.346 L218.048,128.089 L207.167,117.209 L217.271,111.146 L184.989,97.311 Z M198.911,136.264 L181.269,93.541 L221.653,110.849 L210.393,117.606 L220.876,128.089 L215.792,133.174 L205.543,122.925 L198.911,136.264 Z"/>
    <path fill="#E9886C" d="M156.074,59.581 C146.976,59.581 139.574,66.983 139.574,76.081 C139.574,85.179 146.976,92.581 156.074,92.581 C165.172,92.581 172.574,85.179 172.574,76.081 C172.574,66.983 165.172,59.581 156.074,59.581 Z M156.074,94.581 C145.873,94.581 137.574,86.282 137.574,76.081 C137.574,65.88 145.873,57.581 156.074,57.581 C166.275,57.581 174.574,65.88 174.574,76.081 C174.574,86.282 166.275,94.581 156.074,94.581 Z"/>
    <path fill="#656665" d="M151.72 71.141C151.334 70.477 150.655 70.081 149.903 70.081 149.152 70.081 148.473 70.477 148.087 71.14L146.358 70.134C147.095 68.868 148.454 68.081 149.903 68.081 151.353 68.081 152.711 68.868 153.449 70.134L151.72 71.141M164.061 71.14C163.675 70.477 162.996 70.081 162.244 70.081 161.493 70.081 160.814 70.477 160.428 71.14L158.699 70.134C159.436 68.868 160.794 68.081 162.244 68.081 163.694 68.081 165.053 68.868 165.79 70.134L164.061 71.14M147.129 78.081C147.628 82.575 151.449 86.081 156.074 86.081 160.698 86.081 164.52 82.575 165.019 78.081L147.129 78.081zM156.074 88.081C150.008 88.081 145.074 83.146 145.074 77.081L145.074 76.081 167.074 76.081 167.074 77.081C167.074 83.146 162.139 88.081 156.074 88.081z"/>
    <path fill="#42494E" d="M116.527,163.754 L118.027,172.796 L117.865,173.097 C116.62,175.406 115.936,177.914 115.833,180.551 C115.466,189.992 122.849,197.973 132.29,198.34 C136.877,198.521 141.233,196.905 144.592,193.796 C147.952,190.688 149.9,186.458 150.079,181.884 C150.256,177.31 148.643,172.941 145.535,169.581 C142.426,166.221 138.196,164.273 133.622,164.095 C130.988,163.994 128.432,164.479 126.032,165.541 L125.738,165.671 L116.527,163.754 Z M132.975,200.354 C132.721,200.354 132.467,200.349 132.212,200.338 C121.669,199.928 113.425,191.017 113.835,180.473 C113.945,177.645 114.654,174.949 115.943,172.453 L114.077,161.201 L125.521,163.583 C128.115,162.486 130.862,161.98 133.7,162.097 C138.807,162.295 143.532,164.471 147.002,168.223 C150.474,171.975 152.276,176.854 152.077,181.962 C151.878,187.069 149.703,191.793 145.951,195.264 C142.386,198.562 137.803,200.354 132.975,200.354 Z"/>
    <path fill="#E9886C" d="M141.827,182.362 C142.576,181.427 143.027,180.242 143.027,178.951 C143.027,175.936 140.584,173.492 137.569,173.492 C135.706,173.492 134.063,174.428 133.078,175.853 C132.093,174.428 130.45,173.492 128.586,173.492 C125.572,173.492 123.128,175.936 123.128,178.951 C123.128,180.242 123.579,181.427 124.329,182.362 L124.337,182.372 C124.539,182.623 133.078,191.405 133.078,191.405 C133.078,191.405 141.616,182.623 141.819,182.372 L141.827,182.362"/>
    <path fill="#E9886C" d="M128.586,174.493 C126.128,174.493 124.128,176.493 124.128,178.951 C124.128,179.973 124.468,180.936 125.109,181.736 C125.364,182.024 129.775,186.572 133.078,189.971 C136.344,186.61 140.696,182.123 141.047,181.735 C141.688,180.935 142.027,179.973 142.027,178.951 C142.027,176.493 140.027,174.493 137.569,174.493 C136.106,174.493 134.735,175.214 133.9,176.421 L133.078,177.612 L132.255,176.421 C131.42,175.214 130.049,174.493 128.586,174.493 Z M133.078,192.84 L132.361,192.103 C129.16,188.81 123.76,183.25 123.559,183.001 C122.633,181.845 122.128,180.412 122.128,178.951 C122.128,175.39 125.025,172.493 128.586,172.493 C130.277,172.493 131.884,173.157 133.078,174.313 C134.271,173.157 135.878,172.493 137.569,172.493 C141.13,172.493 144.027,175.39 144.027,178.951 C144.027,180.409 143.525,181.839 142.613,182.98 L142.61,182.984 C142.396,183.25 136.996,188.81 133.794,192.103 L133.078,192.84 Z"/>
    <path fill="#FACD60" d="M172.432,195.327 L175.084,200.7 L181.013,201.561 C182.653,201.799 183.308,203.815 182.121,204.972 L177.831,209.154 L178.844,215.059 C179.124,216.693 177.409,217.939 175.942,217.168 L170.639,214.38 L165.336,217.168 C163.868,217.939 162.154,216.693 162.434,215.059 L163.447,209.154 L159.156,204.972 C157.969,203.815 158.624,201.799 160.265,201.561 L166.194,200.7 L168.845,195.327 C169.579,193.84 171.699,193.84 172.432,195.327"/>
    <polygon fill="#434A4F" points="110.27 46.701 112.27 46.701 112.27 42.701 110.27 42.701"/>
    <polygon fill="#434A4F" points="110.27 56.701 112.27 56.701 112.27 52.701 110.27 52.701"/>
    <polygon fill="#434A4F" points="114.27 50.701 118.27 50.701 118.27 48.701 114.27 48.701"/>
    <polygon fill="#434A4F" points="104.27 50.701 108.27 50.701 108.27 48.701 104.27 48.701"/>
    <polygon fill="#434A4F" points="134.285 144.76 136.285 144.76 136.285 140.76 134.285 140.76"/>
    <polygon fill="#434A4F" points="134.285 154.76 136.285 154.76 136.285 150.76 134.285 150.76"/>
    <polygon fill="#434A4F" points="138.285 148.76 142.285 148.76 142.285 146.76 138.285 146.76"/>
    <polygon fill="#434A4F" points="128.285 148.76 132.285 148.76 132.285 146.76 128.285 146.76"/>
    <path fill="#42494E" d="M97.187,206.517 C95.533,206.517 94.187,207.862 94.187,209.517 C94.187,211.171 95.533,212.517 97.187,212.517 L132.34,212.516 L138.846,209.516 L132.34,206.517 L97.187,206.517 Z M97.187,214.517 C94.43,214.517 92.187,212.273 92.187,209.517 C92.187,206.76 94.43,204.517 97.187,204.517 L132.778,204.517 L143.622,209.516 L132.779,214.516 L97.187,214.517 Z"/>
    <polygon fill="#42494E" points="102.797 213.517 104.797 213.517 104.797 205.918 102.797 205.918"/>
    <polygon fill="#42494E" points="103.797 210.488 131.791 210.488 131.791 208.488 103.797 208.488"/>
    <path fill="#434A4F" d="M66.377,207.947 C59.468,207.947 52.96,205.384 47.887,200.628 C42.446,195.528 39.325,188.327 39.325,180.873 C39.325,180.32 39.773,179.873 40.325,179.873 C40.877,179.873 41.325,180.32 41.325,180.873 C41.325,187.878 44.141,194.376 49.255,199.169 C54.365,203.959 61.05,206.351 68.07,205.892 C81.192,205.042 91.472,193.66 91.472,179.98 L91.472,172.051 C91.472,161.18 96.572,150.961 105.114,144.717 C118.986,134.577 126.222,117.625 123.998,100.477 C121.264,79.39 103.917,62.383 82.753,60.038 C69.161,58.528 56.114,62.68 46.018,71.719 C36.059,80.636 30.347,93.411 30.347,106.769 C30.347,107.321 29.899,107.769 29.347,107.769 C28.794,107.769 28.347,107.321 28.347,106.769 C28.347,92.843 34.301,79.524 44.684,70.229 C55.209,60.805 68.801,56.479 82.974,58.049 C105.042,60.495 123.13,78.23 125.981,100.22 C128.299,118.092 120.755,135.76 106.295,146.331 C98.266,152.201 93.472,161.815 93.472,172.051 L93.472,179.98 C93.472,194.711 82.371,206.97 68.199,207.888 C67.589,207.927 66.981,207.947 66.377,207.947"/>
    <path fill="#434A4F" d="M44.153 109.141C43.601 109.141 43.153 108.693 43.153 108.141 43.153 98.825 46.853 90.137 53.57 83.678 60.283 77.222 69.118 73.862 78.451 74.233 95.883 74.916 111.282 90.645 111.406 107.892 111.41 108.444 110.966 108.896 110.414 108.899 110.411 108.899 110.409 108.899 110.406 108.899 109.857 108.899 109.41 108.457 109.406 107.907 109.29 91.676 94.788 76.874 78.373 76.231 69.591 75.899 61.274 79.044 54.956 85.119 48.635 91.198 45.153 99.373 45.153 108.141 45.153 108.693 44.706 109.141 44.153 109.141M61.407 169.739L59.407 169.739C58.854 169.739 58.407 169.291 58.407 168.739 58.407 168.187 58.854 167.739 59.407 167.739L61.407 167.739C69.477 167.739 76.591 161.888 78.707 153.51 79.952 148.584 82.692 144.68 86.852 141.907 87.311 141.599 87.932 141.725 88.239 142.184 88.545 142.644 88.421 143.265 87.961 143.571 84.227 146.061 81.766 149.569 80.647 154.001 78.306 163.267 70.394 169.739 61.407 169.739M55.411 169.739C55.141 169.739 54.891 169.628 54.701 169.449 54.611 169.349 54.531 169.249 54.481 169.119 54.431 168.999 54.411 168.869 54.411 168.739 54.411 168.608 54.431 168.479 54.481 168.358 54.531 168.239 54.611 168.128 54.701 168.029 55.071 167.659 55.741 167.659 56.111 168.029 56.211 168.128 56.281 168.229 56.331 168.358 56.381 168.479 56.411 168.608 56.411 168.739 56.411 168.869 56.381 168.999 56.331 169.119 56.281 169.249 56.201 169.358 56.111 169.449 55.931 169.628 55.671 169.739 55.411 169.739M91.411 141.739C91.141 141.739 90.881 141.628 90.701 141.449 90.611 141.349 90.531 141.239 90.481 141.119 90.431 140.999 90.411 140.869 90.411 140.739 90.411 140.479 90.511 140.219 90.701 140.029 90.741 139.989 90.801 139.949 90.851 139.909 90.901 139.869 90.961 139.838 91.021 139.818 91.081 139.789 91.151 139.769 91.211 139.759 91.341 139.729 91.471 139.729 91.601 139.759 91.671 139.769 91.731 139.789 91.791 139.818 91.851 139.838 91.911 139.869 91.961 139.909 92.021 139.949 92.071 139.989 92.111 140.029 92.301 140.219 92.411 140.479 92.411 140.739 92.411 140.869 92.381 140.999 92.331 141.119 92.281 141.239 92.211 141.349 92.111 141.449 92.071 141.489 92.021 141.529 91.961 141.568 91.911 141.608 91.851 141.639 91.791 141.659 91.731 141.688 91.671 141.709 91.601 141.719 91.541 141.729 91.471 141.739 91.411 141.739M44.191 112.769C43.921 112.769 43.671 112.659 43.481 112.479 43.291 112.289 43.191 112.029 43.191 111.769 43.191 111.509 43.291 111.249 43.481 111.059 43.851 110.688 44.521 110.688 44.891 111.059 45.081 111.249 45.191 111.509 45.191 111.769 45.191 112.029 45.081 112.289 44.891 112.479 44.711 112.659 44.451 112.769 44.191 112.769M46.407 145.739C45.854 145.739 45.407 145.291 45.407 144.739 45.407 144.187 45.854 143.739 46.407 143.739 51.921 143.739 56.407 139.253 56.407 133.739 56.407 128.225 51.921 123.739 46.407 123.739 45.854 123.739 45.407 123.291 45.407 122.739 45.407 122.187 45.854 121.739 46.407 121.739 53.023 121.739 58.407 127.122 58.407 133.739 58.407 140.355 53.023 145.739 46.407 145.739"/>
    <path fill="#434A4F" d="M89.407 115.739C88.854 115.739 88.407 115.291 88.407 114.739 88.407 99.851 76.294 87.739 61.407 87.739 60.854 87.739 60.407 87.291 60.407 86.739 60.407 86.186 60.854 85.739 61.407 85.739 77.397 85.739 90.407 98.748 90.407 114.739 90.407 115.291 89.959 115.739 89.407 115.739M89.411 119.739C89.271 119.739 89.151 119.709 89.021 119.659 88.901 119.608 88.791 119.539 88.701 119.449 88.511 119.259 88.411 118.999 88.411 118.739 88.411 118.479 88.511 118.219 88.701 118.029 88.791 117.938 88.901 117.869 89.021 117.818 89.391 117.668 89.831 117.749 90.111 118.029 90.301 118.219 90.411 118.479 90.411 118.739 90.411 118.999 90.301 119.259 90.111 119.449 89.931 119.628 89.671 119.739 89.411 119.739M110.411 112.739C110.141 112.739 109.891 112.628 109.701 112.449 109.511 112.259 109.411 111.999 109.411 111.739 109.411 111.479 109.511 111.219 109.701 111.029 110.071 110.659 110.741 110.659 111.111 111.029 111.301 111.219 111.411 111.479 111.411 111.739 111.411 111.999 111.301 112.259 111.111 112.449 110.931 112.628 110.671 112.739 110.411 112.739"/>
    <path fill="#FACD60" d="M172.411,146.739 C172.411,147.843 171.516,148.739 170.411,148.739 C169.307,148.739 168.411,147.843 168.411,146.739 C168.411,145.634 169.307,144.739 170.411,144.739 C171.516,144.739 172.411,145.634 172.411,146.739"/>
    <path fill="#75C7D0" d="M106.411,183.739 C106.411,185.396 105.068,186.739 103.411,186.739 C101.754,186.739 100.411,185.396 100.411,183.739 C100.411,182.082 101.754,180.739 103.411,180.739 C105.068,180.739 106.411,182.082 106.411,183.739"/>
    <polyline fill="#FACD60" points="219.134 55.616 205.72 69.031 184.116 47.427 197.53 34.012 219.134 55.616"/>
    <path fill="#FACD60" d="M185.53,47.427 L205.72,67.616 L217.72,55.616 L197.53,35.426 L185.53,47.427 Z M205.72,70.444 L182.702,47.427 L197.53,32.598 L220.548,55.616 L205.72,70.444 Z"/>
    <path fill="#434A4F" d="M215.885 55.8C215.814 55.8 215.743 55.792 215.671 55.777L201.276 52.634C200.897 52.551 200.601 52.256 200.515 51.878L197.055 36.636C196.932 36.098 197.27 35.562 197.809 35.44 198.348 35.316 198.883 35.655 199.005 36.194L202.324 50.815 216.098 53.823C216.637 53.94 216.979 54.474 216.861 55.013 216.759 55.481 216.345 55.8 215.885 55.8M205.808 66.633C205.777 66.633 205.747 66.631 205.716 66.629 205.166 66.579 204.761 66.092 204.811 65.542L205.681 55.961C205.731 55.411 206.213 55.01 206.767 55.056 207.317 55.106 207.723 55.592 207.673 56.142L206.803 65.723C206.755 66.243 206.319 66.633 205.808 66.633M187.512 48.34C187 48.34 186.564 47.95 186.517 47.43 186.467 46.88 186.873 46.394 187.423 46.344L197.004 45.474C197.561 45.431 198.04 45.83 198.09 46.379 198.14 46.929 197.735 47.415 197.185 47.466L187.604 48.336C187.573 48.338 187.542 48.34 187.512 48.34"/>
    <polygon fill="#434A4F" points="173.691 188.739 175.691 188.739 175.691 156.739 173.691 156.739"/>
  </g>
</svg>
