<svg xmlns="http://www.w3.org/2000/svg" width="250" height="250" viewBox="0 0 250 250">
  <g fill="none" fill-rule="evenodd">
    <path fill="#FACD60" d="M96.331,145.375 C95.779,145.375 95.331,145.824 95.331,146.375 L95.331,177.431 C95.331,177.983 95.779,178.431 96.331,178.431 L153.665,178.432 C154.216,178.432 154.665,177.983 154.665,177.432 L154.665,146.375 C154.665,145.824 154.216,145.375 153.665,145.375 L96.331,145.375"/>
    <path fill="#DBDBD5" d="M82.264,133.461 C82.264,134.987 82.858,136.421 83.937,137.5 C85.016,138.578 86.45,139.173 87.975,139.173 L162.02,139.173 C165.169,139.173 167.731,136.611 167.731,133.461 L167.731,132.168 L82.264,132.168 L82.264,133.461"/>
    <path fill="#42494E" d="M115.527 75.807L133.527 75.807 133.527 71.505 115.527 71.505 115.527 75.807zM135.527 77.807L113.527 77.807 113.527 71.505C113.527 70.403 114.424 69.505 115.527 69.505L133.527 69.505C134.63 69.505 135.527 70.403 135.527 71.505L135.527 77.807zM162.02 195.499L87.975 195.498C82.621 195.498 78.264 191.141 78.264 185.787L78.264 85.609 80.264 85.609 80.264 185.787C80.264 190.039 83.723 193.498 87.975 193.498L162.02 193.499C166.272 193.499 169.731 190.039 169.731 185.787L169.731 85.609 171.731 85.609 171.731 185.787C171.731 191.142 167.375 195.499 162.02 195.499"/>
    <polygon fill="#42494E" points="113.152 130.165 138.277 130.165 138.277 128.165 113.152 128.165"/>
    <polygon fill="#42494E" points="112.277 143.375 138.529 143.375 138.529 141.375 112.277 141.375"/>
    <path fill="#42494E" d="M153.664 182.431L96.331 182.431C93.574 182.431 91.331 180.188 91.331 177.431L91.331 146.375C91.331 143.619 93.574 141.375 96.331 141.375L102.654 141.375 102.654 143.375 96.331 143.375C94.676 143.375 93.331 144.721 93.331 146.375L93.331 177.431C93.331 179.085 94.676 180.431 96.331 180.431L153.664 180.431C155.319 180.431 156.664 179.085 156.664 177.431L156.664 146.375C156.664 144.721 155.319 143.375 153.664 143.375L148.15 143.375 148.15 141.375 153.664 141.375C156.421 141.375 158.664 143.619 158.664 146.375L158.664 177.431C158.664 180.188 156.421 182.431 153.664 182.431M162.02 130.165L148.651 130.165 148.651 128.165 162.02 128.165C166.272 128.165 169.731 124.706 169.731 120.454L169.731 85.609C169.731 81.357 166.272 77.898 162.02 77.898L137.527 77.851 137.527 71.234C137.527 69.434 136.063 67.969 134.262 67.969L114.792 67.969C112.992 67.969 111.528 69.434 111.527 71.234L111.527 77.853 87.975 77.898C83.723 77.898 80.264 81.357 80.264 85.609L80.264 120.454C80.264 124.706 83.723 128.165 87.975 128.165L102.654 128.165 102.654 130.165 87.975 130.165C82.621 130.165 78.264 125.808 78.264 120.454L78.264 85.609C78.264 80.254 82.621 75.898 87.975 75.898L109.527 75.853 109.527 71.234C109.528 68.331 111.889 65.969 114.792 65.969L134.262 65.969C137.165 65.969 139.527 68.331 139.527 71.234L139.527 75.855 162.022 75.898C167.375 75.898 171.731 80.254 171.731 85.609L171.731 120.454C171.731 125.808 167.375 130.165 162.02 130.165M66.216 169.011L61.508 169.011 61.508 152.234C61.508 148.925 64.199 146.234 67.508 146.234L79.283 146.234 79.283 148.234 67.508 148.234C65.302 148.234 63.508 150.028 63.508 152.234L63.508 167.011 66.216 167.011 66.216 169.011"/>
    <path fill="#42494E" d="M92.349 195.498L74.927 195.498C69.572 195.498 65.216 191.141 65.216 185.787L65.216 151.943C65.216 150.84 66.113 149.943 67.216 149.943L79.264 149.943 79.264 151.943 67.216 151.943 67.216 185.787C67.216 190.039 70.675 193.498 74.927 193.498L92.349 193.498 92.349 195.498M175.105 195.499L162.038 195.499 162.038 193.499 175.105 193.499C179.357 193.499 182.816 190.039 182.816 185.787L182.816 151.943 170.731 151.943 170.731 149.943 182.816 149.943C183.919 149.943 184.816 150.84 184.816 151.943L184.816 185.787C184.816 191.142 180.46 195.499 175.105 195.499M106.587 128.501C106.587 127.952 107.037 127.501 107.587 127.501 108.137 127.501 108.587 127.952 108.587 128.501 108.587 129.061 108.137 129.501 107.587 129.501 107.037 129.501 106.587 129.061 106.587 128.501zM106.587 132.501C106.587 131.952 107.037 131.511 107.587 131.511 108.137 131.511 108.587 131.952 108.587 132.501 108.587 133.061 108.137 133.501 107.587 133.501 107.037 133.501 106.587 133.061 106.587 132.501zM106.587 136.501C106.587 135.952 107.037 135.501 107.587 135.501 108.137 135.501 108.587 135.952 108.587 136.501 108.587 137.061 108.137 137.501 107.587 137.501 107.037 137.501 106.587 137.061 106.587 136.501zM106.587 140.501C106.587 139.952 107.037 139.501 107.587 139.501 108.137 139.501 108.587 139.952 108.587 140.501 108.587 141.061 108.137 141.501 107.587 141.501 107.037 141.501 106.587 141.061 106.587 140.501zM106.587 144.501C106.587 143.952 107.037 143.501 107.587 143.501 108.137 143.501 108.587 143.952 108.587 144.501 108.587 145.061 108.137 145.511 107.587 145.511 107.037 145.511 106.587 145.061 106.587 144.501z"/>
    <polyline fill="#42494E" points="115.252 125.534 99.763 125.534 99.763 112.491 102.01 112.491 102.01 99.07 104.01 99.07 104.01 114.491 101.763 114.491 101.763 123.534 113.252 123.534 113.252 114.491 111.142 114.491 111.142 99.07 113.142 99.07 113.142 112.491 115.252 112.491 115.252 125.534"/>
    <polygon fill="#42494E" points="103.01 114.491 112.278 114.491 112.278 112.491 103.01 112.491"/>
    <polygon fill="#42494E" points="106.587 124.647 108.587 124.647 108.587 118.023 106.587 118.023"/>
    <path fill="#42494E" d="M107.587 152.042C104.511 152.042 102.01 149.541 102.01 146.465L102.01 124.403 104.01 124.403 104.01 146.465C104.01 148.438 105.614 150.042 107.587 150.042 109.559 150.042 111.164 148.438 111.164 146.465L111.164 124.403 113.164 124.403 113.164 146.465C113.164 149.541 110.662 152.042 107.587 152.042M142.607 128.501C142.607 127.952 143.057 127.501 143.607 127.501 144.157 127.501 144.607 127.952 144.607 128.501 144.607 129.061 144.157 129.501 143.607 129.501 143.057 129.501 142.607 129.061 142.607 128.501zM142.607 132.501C142.607 131.952 143.057 131.511 143.607 131.511 144.157 131.511 144.607 131.952 144.607 132.501 144.607 133.061 144.157 133.501 143.607 133.501 143.057 133.501 142.607 133.061 142.607 132.501zM142.607 136.501C142.607 135.952 143.057 135.501 143.607 135.501 144.157 135.501 144.607 135.952 144.607 136.501 144.607 137.061 144.157 137.501 143.607 137.501 143.057 137.501 142.607 137.061 142.607 136.501zM142.607 140.501C142.607 139.952 143.057 139.501 143.607 139.501 144.157 139.501 144.607 139.952 144.607 140.501 144.607 141.061 144.157 141.501 143.607 141.501 143.057 141.501 142.607 141.061 142.607 140.501zM142.607 144.501C142.607 143.952 143.057 143.501 143.607 143.501 144.157 143.501 144.607 143.952 144.607 144.501 144.607 145.061 144.157 145.511 143.607 145.511 143.057 145.511 142.607 145.061 142.607 144.501z"/>
    <polyline fill="#42494E" points="151.273 125.534 135.785 125.534 135.785 112.491 138.031 112.491 138.031 99.07 140.031 99.07 140.031 114.491 137.785 114.491 137.785 123.534 149.273 123.534 149.273 114.491 147.163 114.491 147.163 99.07 149.163 99.07 149.163 112.491 151.273 112.491 151.273 125.534"/>
    <polygon fill="#42494E" points="139.031 114.491 148.3 114.491 148.3 112.491 139.031 112.491"/>
    <polygon fill="#42494E" points="142.609 124.647 144.609 124.647 144.609 118.023 142.609 118.023"/>
    <path fill="#42494E" d="M143.609 152.042C140.533 152.042 138.031 149.541 138.031 146.465L138.031 124.403 140.031 124.403 140.031 146.465C140.031 148.438 141.636 150.042 143.609 150.042 145.581 150.042 147.186 148.438 147.186 146.465L147.186 124.403 149.186 124.403 149.186 146.465C149.186 149.541 146.684 152.042 143.609 152.042M188.347 169.011L183.639 169.011 183.639 167.011 186.347 167.011 186.347 152.234C186.347 150.028 184.553 148.234 182.347 148.234L170.573 148.234 170.573 146.234 182.347 146.234C185.656 146.234 188.347 148.925 188.347 152.234L188.347 169.011M98.877 96.771C98.877 96.221 99.327 95.771 99.877 95.771 100.427 95.771 100.877 96.221 100.877 96.771 100.877 97.321 100.427 97.771 99.877 97.771 99.327 97.771 98.877 97.321 98.877 96.771zM102.877 96.771C102.877 96.221 103.327 95.771 103.877 95.771 104.427 95.771 104.877 96.221 104.877 96.771 104.877 97.321 104.427 97.771 103.877 97.771 103.327 97.771 102.877 97.321 102.877 96.771zM106.877 96.771C106.877 96.221 107.327 95.771 107.877 95.771 108.427 95.771 108.877 96.221 108.877 96.771 108.877 97.321 108.427 97.771 107.877 97.771 107.327 97.771 106.877 97.321 106.877 96.771zM110.877 96.771C110.877 96.221 111.327 95.771 111.877 95.771 112.427 95.771 112.877 96.221 112.877 96.771 112.877 97.321 112.427 97.771 111.877 97.771 111.327 97.771 110.877 97.321 110.877 96.771zM114.877 96.771C114.877 96.221 115.327 95.771 115.877 95.771 116.427 95.771 116.877 96.221 116.877 96.771 116.877 97.321 116.427 97.771 115.877 97.771 115.327 97.771 114.877 97.321 114.877 96.771zM134.897 96.771C134.897 96.221 135.347 95.771 135.897 95.771 136.447 95.771 136.897 96.221 136.897 96.771 136.897 97.321 136.447 97.771 135.897 97.771 135.347 97.771 134.897 97.321 134.897 96.771zM138.897 96.771C138.897 96.221 139.347 95.771 139.897 95.771 140.447 95.771 140.897 96.221 140.897 96.771 140.897 97.321 140.447 97.771 139.897 97.771 139.347 97.771 138.897 97.321 138.897 96.771zM142.897 96.771C142.897 96.221 143.347 95.771 143.897 95.771 144.447 95.771 144.897 96.221 144.897 96.771 144.897 97.321 144.447 97.771 143.897 97.771 143.347 97.771 142.897 97.321 142.897 96.771zM146.897 96.771C146.897 96.221 147.347 95.771 147.897 95.771 148.447 95.771 148.897 96.221 148.897 96.771 148.897 97.321 148.447 97.771 147.897 97.771 147.347 97.771 146.897 97.321 146.897 96.771zM150.897 96.771C150.897 96.221 151.347 95.771 151.897 95.771 152.447 95.771 152.897 96.221 152.897 96.771 152.897 97.321 152.447 97.771 151.897 97.771 151.347 97.771 150.897 97.321 150.897 96.771zM103.527 161.501C103.527 160.952 103.977 160.511 104.527 160.511 105.077 160.511 105.527 160.952 105.527 161.501 105.527 162.061 105.077 162.511 104.527 162.511 103.977 162.511 103.527 162.061 103.527 161.501zM107.527 161.501C107.527 160.952 107.977 160.511 108.527 160.511 109.077 160.511 109.527 160.952 109.527 161.501 109.527 162.061 109.077 162.511 108.527 162.511 107.977 162.511 107.527 162.061 107.527 161.501zM111.527 161.501C111.527 160.952 111.977 160.511 112.527 160.511 113.077 160.511 113.527 160.952 113.527 161.501 113.527 162.061 113.077 162.511 112.527 162.511 111.977 162.511 111.527 162.061 111.527 161.501zM115.527 161.501C115.527 160.952 115.977 160.511 116.527 160.511 117.077 160.511 117.527 160.952 117.527 161.501 117.527 162.061 117.077 162.511 116.527 162.511 115.977 162.511 115.527 162.061 115.527 161.501zM119.527 161.501C119.527 160.952 119.977 160.511 120.527 160.511 121.077 160.511 121.527 160.952 121.527 161.501 121.527 162.061 121.077 162.511 120.527 162.511 119.977 162.511 119.527 162.061 119.527 161.501zM123.527 161.501C123.527 160.952 123.977 160.511 124.527 160.511 125.077 160.511 125.527 160.952 125.527 161.501 125.527 162.061 125.077 162.511 124.527 162.511 123.977 162.511 123.527 162.061 123.527 161.501zM127.527 161.501C127.527 160.952 127.977 160.511 128.527 160.511 129.077 160.511 129.527 160.952 129.527 161.501 129.527 162.061 129.077 162.511 128.527 162.511 127.977 162.511 127.527 162.061 127.527 161.501zM131.527 161.501C131.527 160.952 131.977 160.511 132.527 160.511 133.077 160.511 133.527 160.952 133.527 161.501 133.527 162.061 133.077 162.511 132.527 162.511 131.977 162.511 131.527 162.061 131.527 161.501zM135.527 161.501C135.527 160.952 135.977 160.511 136.527 160.511 137.077 160.511 137.527 160.952 137.527 161.501 137.527 162.061 137.077 162.511 136.527 162.511 135.977 162.511 135.527 162.061 135.527 161.501zM139.527 161.501C139.527 160.952 139.977 160.511 140.527 160.511 141.077 160.511 141.527 160.952 141.527 161.501 141.527 162.061 141.077 162.511 140.527 162.511 139.977 162.511 139.527 162.061 139.527 161.501zM143.527 161.501C143.527 160.952 143.977 160.511 144.527 160.511 145.077 160.511 145.527 160.952 145.527 161.501 145.527 162.061 145.077 162.511 144.527 162.511 143.977 162.511 143.527 162.061 143.527 161.501zM147.527 161.501C147.527 160.952 147.977 160.511 148.527 160.511 149.077 160.511 149.527 160.952 149.527 161.501 149.527 162.061 149.077 162.511 148.527 162.511 147.977 162.511 147.527 162.061 147.527 161.501zM151.527 161.501C151.527 160.952 151.977 160.511 152.527 160.511 153.077 160.511 153.527 160.952 153.527 161.501 153.527 162.061 153.077 162.511 152.527 162.511 151.977 162.511 151.527 162.061 151.527 161.501zM97.527 159.505L97.527 166.505C97.527 167.057 97.976 167.505 98.527 167.505 99.078 167.505 99.527 167.057 99.527 166.505L99.527 159.505 97.527 159.505zM98.527 169.505C96.873 169.505 95.527 168.16 95.527 166.505L95.527 157.505 101.527 157.505 101.527 166.505C101.527 168.16 100.181 169.505 98.527 169.505z"/>
    <polygon fill="#42494E" points="96.527 163.505 100.527 163.505 100.527 161.505 96.527 161.505"/>
    <path fill="#42494E" d="M105.527,163.511 C105.527,162.952 105.977,162.511 106.527,162.511 C107.077,162.511 107.527,162.952 107.527,163.511 C107.527,164.061 107.077,164.511 106.527,164.511 C105.977,164.511 105.527,164.061 105.527,163.511 Z M109.527,163.511 C109.527,162.952 109.977,162.511 110.527,162.511 C111.077,162.511 111.527,162.952 111.527,163.511 C111.527,164.061 111.077,164.511 110.527,164.511 C109.977,164.511 109.527,164.061 109.527,163.511 Z M113.527,163.511 C113.527,162.952 113.977,162.511 114.527,162.511 C115.077,162.511 115.527,162.952 115.527,163.511 C115.527,164.061 115.077,164.511 114.527,164.511 C113.977,164.511 113.527,164.061 113.527,163.511 Z M117.527,163.511 C117.527,162.952 117.977,162.511 118.527,162.511 C119.077,162.511 119.527,162.952 119.527,163.511 C119.527,164.061 119.077,164.511 118.527,164.511 C117.977,164.511 117.527,164.061 117.527,163.511 Z M121.527,163.511 C121.527,162.952 121.977,162.511 122.527,162.511 C123.077,162.511 123.527,162.952 123.527,163.511 C123.527,164.061 123.077,164.511 122.527,164.511 C121.977,164.511 121.527,164.061 121.527,163.511 Z M125.527,163.511 C125.527,162.952 125.977,162.511 126.527,162.511 C127.077,162.511 127.527,162.952 127.527,163.511 C127.527,164.061 127.077,164.511 126.527,164.511 C125.977,164.511 125.527,164.061 125.527,163.511 Z M129.527,163.511 C129.527,162.952 129.977,162.511 130.527,162.511 C131.077,162.511 131.527,162.952 131.527,163.511 C131.527,164.061 131.077,164.511 130.527,164.511 C129.977,164.511 129.527,164.061 129.527,163.511 Z M133.527,163.511 C133.527,162.952 133.977,162.511 134.527,162.511 C135.077,162.511 135.527,162.952 135.527,163.511 C135.527,164.061 135.077,164.511 134.527,164.511 C133.977,164.511 133.527,164.061 133.527,163.511 Z M137.527,163.511 C137.527,162.952 137.977,162.511 138.527,162.511 C139.077,162.511 139.527,162.952 139.527,163.511 C139.527,164.061 139.077,164.511 138.527,164.511 C137.977,164.511 137.527,164.061 137.527,163.511 Z M141.527,163.511 C141.527,162.952 141.977,162.511 142.527,162.511 C143.077,162.511 143.527,162.952 143.527,163.511 C143.527,164.061 143.077,164.511 142.527,164.511 C141.977,164.511 141.527,164.061 141.527,163.511 Z M145.527,163.511 C145.527,162.952 145.977,162.511 146.527,162.511 C147.077,162.511 147.527,162.952 147.527,163.511 C147.527,164.061 147.077,164.511 146.527,164.511 C145.977,164.511 145.527,164.061 145.527,163.511 Z M149.527,163.511 C149.527,162.952 149.977,162.511 150.527,162.511 C151.077,162.511 151.527,162.952 151.527,163.511 C151.527,164.061 151.077,164.511 150.527,164.511 C149.977,164.511 149.527,164.061 149.527,163.511 Z"/>
    <polygon fill="#42494E" points="100.526 159.507 154.529 159.507 154.529 157.507 100.526 157.507"/>
    <path fill="#42494E" d="M107.527 76.505L105.527 76.505 105.527 62.505C105.527 61.954 105.078 61.505 104.527 61.505L94.527 61.505C93.976 61.505 93.527 61.954 93.527 62.505L93.527 76.505 91.527 76.505 91.527 62.505C91.527 60.851 92.873 59.505 94.527 59.505L104.527 59.505C106.181 59.505 107.527 60.851 107.527 62.505L107.527 76.505M157.527 76.505L155.527 76.505 155.527 62.505C155.527 61.954 155.078 61.505 154.527 61.505L144.527 61.505C143.976 61.505 143.527 61.954 143.527 62.505L143.527 76.505 141.527 76.505 141.527 62.505C141.527 60.851 142.873 59.505 144.527 59.505L154.527 59.505C156.181 59.505 157.527 60.851 157.527 62.505L157.527 76.505"/>
    <path fill="#FACD60" d="M180.816,185.787 C180.816,188.936 178.254,191.498 175.105,191.498 L172.234,191.498 C173.184,189.807 173.731,187.861 173.731,185.787 L173.731,153.943 L180.816,153.943 L180.816,185.787 Z M69.216,185.787 L69.216,153.942 L76.264,153.943 L76.264,185.787 C76.264,187.861 76.812,189.807 77.761,191.498 L74.927,191.498 C71.778,191.498 69.216,188.936 69.216,185.787 Z"/>
    <polygon fill="#FACD60" points="95.527 73.505 103.527 73.505 103.527 63.505 95.527 63.505"/>
    <polygon fill="#FACD60" points="145.527 73.505 153.527 73.505 153.527 63.505 145.527 63.505"/>
    <path fill="#42494E" d="M47.386,102.598 C45.732,102.598 44.386,103.944 44.386,105.598 C44.386,107.252 45.732,108.598 47.386,108.598 L87.9,108.598 L94.406,105.598 L87.9,102.598 L47.386,102.598 Z M88.338,110.598 L47.386,110.598 C44.63,110.598 42.386,108.355 42.386,105.598 C42.386,102.841 44.63,100.598 47.386,100.598 L88.338,100.598 L99.182,105.598 L88.338,110.598 Z"/>
    <polygon fill="#42494E" points="52.996 109.598 54.996 109.598 54.996 102 52.996 102"/>
    <polygon fill="#42494E" points="53.996 106.569 87.35 106.569 87.35 104.569 53.996 104.569"/>
    <polyline fill="#42494E" points="207.212 116.98 207.212 118.98 210.212 118.98 210.212 137.063 178.129 137.063 178.129 118.98 181.129 118.98 181.129 116.98 176.129 116.98 176.129 139.063 212.212 139.063 212.212 116.98 207.212 116.98"/>
    <path fill="#42494E" d="M182.129,133.063 L192.777,133.063 L194.209,134.625 L195.803,133.063 L206.212,133.063 L206.212,114.98 L196.62,114.98 L194.156,117.394 L191.791,114.98 L182.129,114.98 L182.129,133.063 Z M194.132,137.5 L191.897,135.063 L180.129,135.063 L180.129,112.98 L192.632,112.98 L194.185,114.566 L195.803,112.98 L208.212,112.98 L208.212,135.063 L196.62,135.063 L194.132,137.5 Z"/>
    <path fill="#FFFFFE" d="M184.024,118.063 L190.149,118.063"/>
    <polygon fill="#42494E" points="184.024 119.063 190.149 119.063 190.149 117.063 184.024 117.063"/>
    <path fill="#FFFFFE" d="M184.024,122.063 L190.149,122.063"/>
    <polygon fill="#42494E" points="184.024 123.063 190.149 123.063 190.149 121.063 184.024 121.063"/>
    <path fill="#FFFFFE" d="M184.024,126.063 L190.149,126.063"/>
    <polygon fill="#42494E" points="184.024 127.063 190.149 127.063 190.149 125.063 184.024 125.063"/>
    <path fill="#FFFFFE" d="M198.024,118.063 L204.149,118.063"/>
    <polygon fill="#42494E" points="198.024 119.063 204.149 119.063 204.149 117.063 198.024 117.063"/>
    <path fill="#FFFFFE" d="M198.024,122.063 L204.149,122.063"/>
    <polygon fill="#42494E" points="198.024 123.063 204.149 123.063 204.149 121.063 198.024 121.063"/>
    <path fill="#FFFFFE" d="M198.024,126.063 L204.149,126.063"/>
    <polygon fill="#42494E" points="198.024 127.063 204.149 127.063 204.149 125.063 198.024 125.063"/>
    <path fill="#FFFFFE" d="M194.17,119.251 L194.17,129.063"/>
    <polygon fill="#42494E" points="193.17 129.063 195.17 129.063 195.17 119.25 193.17 119.25"/>
    <path fill="#FFFFFE" d="M184.024,130.063 L190.149,130.063"/>
    <polygon fill="#42494E" points="184.024 131.063 190.149 131.063 190.149 129.063 184.024 129.063"/>
    <path fill="#FFFFFE" d="M198.024,130.063 L204.149,130.063"/>
    <polygon fill="#42494E" points="198.024 131.063 204.149 131.063 204.149 129.063 198.024 129.063"/>
    <polygon fill="#434A4F" points="212.553 163.544 214.553 163.544 214.553 159.544 212.553 159.544"/>
    <polygon fill="#434A4F" points="212.553 173.544 214.553 173.544 214.553 169.544 212.553 169.544"/>
    <polygon fill="#434A4F" points="216.553 167.544 220.553 167.544 220.553 165.544 216.553 165.544"/>
    <polygon fill="#434A4F" points="206.553 167.544 210.553 167.544 210.553 165.544 206.553 165.544"/>
    <polygon fill="#434A4F" points="35.447 73.49 37.447 73.49 37.447 69.49 35.447 69.49"/>
    <polygon fill="#434A4F" points="35.447 83.49 37.447 83.49 37.447 79.49 35.447 79.49"/>
    <polygon fill="#434A4F" points="39.447 77.49 43.447 77.49 43.447 75.49 39.447 75.49"/>
    <polygon fill="#434A4F" points="29.447 77.49 33.447 77.49 33.447 75.49 29.447 75.49"/>
    <polygon fill="#434A4F" points="35.447 143.532 37.447 143.532 37.447 139.532 35.447 139.532"/>
    <polygon fill="#434A4F" points="35.447 153.532 37.447 153.532 37.447 149.532 35.447 149.532"/>
    <polygon fill="#434A4F" points="39.447 147.532 43.447 147.532 43.447 145.532 39.447 145.532"/>
    <polygon fill="#434A4F" points="29.447 147.532 33.447 147.532 33.447 145.532 29.447 145.532"/>
    <path fill="#FACD60" d="M180.527 82.501C180.527 83.606 179.632 84.501 178.527 84.501 177.423 84.501 176.527 83.606 176.527 82.501 176.527 81.397 177.423 80.501 178.527 80.501 179.632 80.501 180.527 81.397 180.527 82.501M186.527 103.501C186.527 104.054 186.08 104.501 185.527 104.501 184.975 104.501 184.527 104.054 184.527 103.501 184.527 102.949 184.975 102.501 185.527 102.501 186.08 102.501 186.527 102.949 186.527 103.501M134.527 84.501C134.527 83.397 135.423 82.501 136.527 82.501 137.632 82.501 138.527 83.397 138.527 84.501 138.527 85.606 137.632 86.501 136.527 86.501 135.423 86.501 134.527 85.606 134.527 84.501M62.527 56.501C62.527 57.606 61.632 58.501 60.527 58.501 59.423 58.501 58.527 57.606 58.527 56.501 58.527 55.397 59.423 54.501 60.527 54.501 61.632 54.501 62.527 55.397 62.527 56.501M68.527 125.501C68.527 124.949 68.975 124.501 69.527 124.501 70.08 124.501 70.527 124.949 70.527 125.501 70.527 126.054 70.08 126.501 69.527 126.501 68.975 126.501 68.527 126.054 68.527 125.501M58.527 136.501C58.527 137.606 57.632 138.501 56.527 138.501 55.423 138.501 54.527 137.606 54.527 136.501 54.527 135.397 55.423 134.501 56.527 134.501 57.632 134.501 58.527 135.397 58.527 136.501M42.527 122.501C42.527 121.397 43.423 120.501 44.527 120.501 45.632 120.501 46.527 121.397 46.527 122.501 46.527 123.606 45.632 124.501 44.527 124.501 43.423 124.501 42.527 123.606 42.527 122.501M202.527 151.501C202.527 152.054 202.08 152.501 201.527 152.501 200.975 152.501 200.527 152.054 200.527 151.501 200.527 150.949 200.975 150.501 201.527 150.501 202.08 150.501 202.527 150.949 202.527 151.501"/>
  </g>
</svg>
