<svg xmlns="http://www.w3.org/2000/svg" width="250" height="250" viewBox="0 0 250 250">
  <g fill="none" fill-rule="evenodd">
    <path fill="#DDDED9" d="M127.488,130.566 C122.49,130.566 118.424,126.5 118.424,121.502 C118.424,116.504 122.49,112.437 127.488,112.437 C132.486,112.437 136.553,116.504 136.553,121.502 C136.553,126.5 132.486,130.566 127.488,130.566 Z M128.488,110.488 L128.488,86.276 L126.488,86.276 L126.488,110.488 C120.855,110.996 116.424,115.738 116.424,121.502 C116.424,124.193 117.392,126.661 118.995,128.581 L91.555,156.021 L92.97,157.435 L120.409,129.995 C122.329,131.599 124.797,132.566 127.488,132.566 C133.589,132.566 138.553,127.603 138.553,121.502 C138.553,115.738 134.122,110.996 128.488,110.488 Z"/>
    <path fill="#DDDED9" d="M199.487,118.5 C199.487,77.631 166.356,44.5 125.487,44.5 C84.618,44.5 51.487,77.631 51.487,118.5 C51.487,119.507 51.523,120.505 51.563,121.502 C53.14,82.026 85.625,50.504 125.487,50.504 C165.349,50.504 197.834,82.026 199.411,121.502 C199.451,120.505 199.487,119.507 199.487,118.5"/>
    <path fill="#42494E" d="M125.487,41.5 C83.029,41.5 48.487,76.042 48.487,118.5 C48.487,160.958 83.029,195.5 125.487,195.5 C167.945,195.5 202.487,160.958 202.487,118.5 C202.487,76.042 167.945,41.5 125.487,41.5 Z M125.487,197.5 C81.927,197.5 46.487,162.061 46.487,118.5 C46.487,74.939 81.927,39.5 125.487,39.5 C169.048,39.5 204.487,74.939 204.487,118.5 C204.487,162.061 169.048,197.5 125.487,197.5 Z"/>
    <polygon fill="#42494E" points="123.58 74.179 125.58 74.179 125.58 54.05 123.58 54.05"/>
    <polygon fill="#42494E" points="123.394 183.356 125.394 183.356 125.394 163.228 123.394 163.228"/>
    <polygon fill="#42494E" points="170.171 117.563 190.3 117.563 190.3 115.563 170.171 115.563"/>
    <polygon fill="#42494E" points="60.067 119.5 80.196 119.5 80.196 117.5 60.067 117.5"/>
    <polyline fill="#42494E" points="173.343 91.73 172.343 89.998 181.059 84.966 182.059 86.698 173.343 91.73"/>
    <polyline fill="#42494E" points="68.916 150.367 67.916 148.635 76.632 143.603 77.632 145.335 68.916 150.367"/>
    <polyline fill="#42494E" points="154.989 72.27 153.257 71.27 158.289 62.554 160.022 63.554 154.989 72.27"/>
    <polyline fill="#42494E" points="94.394 175.562 92.661 174.562 97.693 165.845 99.426 166.845 94.394 175.562"/>
    <polyline fill="#42494E" points="97.881 71.343 92.849 62.626 94.581 61.626 99.613 70.343 97.881 71.343"/>
    <polyline fill="#42494E" points="158.122 174.488 153.09 165.772 154.822 164.772 159.855 173.488 158.122 174.488"/>
    <polyline fill="#42494E" points="78.674 89.939 69.957 84.906 70.957 83.174 79.674 88.206 78.674 89.939"/>
    <polyline fill="#42494E" points="182.892 148.639 174.176 143.606 175.176 141.874 183.892 146.906 182.892 148.639"/>
    <path fill="#E9886C" d="M125.487,111.5 C121.627,111.5 118.487,114.64 118.487,118.5 C118.487,122.36 121.627,125.5 125.487,125.5 C129.347,125.5 132.487,122.36 132.487,118.5 C132.487,114.64 129.347,111.5 125.487,111.5"/>
    <polygon fill="#42494E" points="124.487 108.436 126.487 108.436 126.487 83.274 124.487 83.274"/>
    <polyline fill="#42494E" points="90.969 154.433 89.555 153.019 117.232 125.342 118.646 126.756 90.969 154.433"/>
    <polygon fill="#42494E" points="115.423 147.178 135.552 147.178 135.552 145.178 115.423 145.178"/>
    <path fill="#42494E" d="M123.528,55.53 L123.466,53.53 C124.138,53.51 124.811,53.5 125.487,53.5 L125.648,53.5 L125.648,55.5 L125.487,55.5 C124.832,55.5 124.179,55.51 123.528,55.53 Z M129.562,55.63 C128.912,55.589 128.259,55.557 127.606,55.535 L127.67,53.537 C128.345,53.559 129.018,53.591 129.689,53.634 L129.562,55.63 Z M119.617,55.771 L119.434,53.778 C120.103,53.717 120.775,53.666 121.448,53.624 L121.571,55.62 C120.917,55.66 120.267,55.711 119.617,55.771 Z M133.46,56 C132.815,55.918 132.166,55.846 131.514,55.784 L131.701,53.794 C132.375,53.857 133.045,53.932 133.712,54.016 L133.46,56 Z M115.731,56.251 L115.424,54.274 C116.087,54.172 116.754,54.078 117.425,53.995 L117.671,55.979 C117.022,56.061 116.374,56.15 115.731,56.251 Z M137.33,56.611 C136.691,56.489 136.048,56.377 135.401,56.275 L135.712,54.299 C136.38,54.404 137.044,54.521 137.705,54.646 L137.33,56.611 Z M111.881,56.974 L111.449,55.021 C112.107,54.876 112.767,54.741 113.43,54.616 L113.801,56.581 C113.157,56.702 112.517,56.833 111.881,56.974 Z M141.153,57.463 C140.523,57.302 139.887,57.149 139.248,57.007 L139.684,55.056 C140.342,55.202 140.997,55.358 141.65,55.525 L141.153,57.463 Z M108.085,57.934 L107.532,56.012 C108.179,55.826 108.829,55.65 109.485,55.484 L109.975,57.424 C109.341,57.584 108.71,57.754 108.085,57.934 Z M144.915,58.552 C144.295,58.351 143.671,58.159 143.042,57.977 L143.601,56.057 C144.249,56.245 144.893,56.442 145.532,56.649 L144.915,58.552 Z M104.347,59.135 L103.677,57.25 C104.313,57.024 104.953,56.807 105.598,56.6 L106.209,58.504 C105.584,58.705 104.963,58.915 104.347,59.135 Z M148.602,59.876 C147.995,59.636 147.384,59.406 146.769,59.186 L147.444,57.303 C148.079,57.531 148.71,57.769 149.336,58.015 L148.602,59.876 Z M100.692,60.567 L99.902,58.729 C100.524,58.463 101.149,58.207 101.778,57.96 L102.509,59.821 C101.899,60.06 101.293,60.309 100.692,60.567 Z M152.189,61.421 C151.6,61.145 151.005,60.878 150.406,60.621 L151.197,58.783 C151.816,59.05 152.428,59.325 153.036,59.61 L152.189,61.421 Z M97.134,62.226 L96.232,60.44 C96.834,60.136 97.441,59.841 98.054,59.556 L98.899,61.368 C98.305,61.645 97.717,61.931 97.134,62.226 Z M155.673,63.188 C155.103,62.876 154.526,62.572 153.944,62.277 L154.849,60.494 C155.449,60.799 156.044,61.112 156.634,61.435 L155.673,63.188 Z M93.686,64.104 L92.676,62.377 C93.258,62.037 93.845,61.705 94.438,61.382 L95.395,63.138 C94.82,63.451 94.25,63.773 93.686,64.104 Z M159.044,65.17 C158.493,64.823 157.937,64.484 157.374,64.153 L158.386,62.429 C158.968,62.77 159.542,63.12 160.11,63.479 L159.044,65.17 Z M90.364,66.189 L89.251,64.529 C89.811,64.153 90.376,63.785 90.946,63.427 L92.011,65.12 C91.456,65.469 90.908,65.825 90.364,66.189 Z M162.286,67.357 C161.757,66.977 161.223,66.604 160.682,66.238 L161.801,64.58 C162.359,64.957 162.911,65.342 163.456,65.736 L162.286,67.357 Z M87.182,68.479 L85.965,66.891 C86.5,66.48 87.042,66.079 87.589,65.686 L88.757,67.309 C88.226,67.69 87.701,68.08 87.182,68.479 Z M165.39,69.744 C164.885,69.331 164.373,68.925 163.857,68.526 L165.077,66.942 C165.609,67.352 166.137,67.77 166.657,68.197 L165.39,69.744 Z M84.146,70.961 L82.833,69.451 C83.343,69.008 83.858,68.574 84.379,68.147 L85.645,69.696 C85.139,70.109 84.64,70.531 84.146,70.961 Z M168.341,72.32 C167.861,71.876 167.376,71.439 166.884,71.009 L168.198,69.503 C168.706,69.945 169.207,70.395 169.7,70.854 L168.341,72.32 Z M81.273,73.622 L79.868,72.198 C80.349,71.725 80.835,71.26 81.329,70.802 L82.689,72.269 C82.21,72.713 81.737,73.164 81.273,73.622 Z M171.126,75.072 C170.677,74.6 170.219,74.134 169.754,73.675 L171.158,72.251 C171.639,72.724 172.11,73.205 172.575,73.693 L171.126,75.072 Z M78.57,76.455 L77.08,75.121 C77.529,74.619 77.987,74.124 78.453,73.637 L79.899,75.018 C79.448,75.489 79.006,75.969 78.57,76.455 Z M173.74,77.991 C173.32,77.491 172.893,76.998 172.456,76.511 L173.946,75.177 C174.397,75.68 174.838,76.188 175.272,76.704 L173.74,77.991 Z M76.045,79.451 L74.477,78.209 C74.896,77.681 75.32,77.159 75.754,76.645 L77.283,77.934 C76.863,78.433 76.45,78.938 76.045,79.451 Z M176.167,81.068 C175.779,80.543 175.383,80.024 174.978,79.513 L176.548,78.272 C176.965,78.802 177.375,79.338 177.776,79.881 L176.167,81.068 Z M73.715,82.593 L72.072,81.452 C72.456,80.899 72.849,80.354 73.249,79.812 L74.857,81.004 C74.468,81.527 74.087,82.058 73.715,82.593 Z M178.401,84.293 C178.045,83.744 177.681,83.2 177.309,82.663 L178.953,81.524 C179.337,82.079 179.713,82.639 180.079,83.205 L178.401,84.293 Z M71.584,85.872 L69.873,84.835 C70.223,84.259 70.58,83.689 70.946,83.126 L72.624,84.216 C72.27,84.762 71.922,85.313 71.584,85.872 Z M180.431,87.652 C180.109,87.082 179.779,86.517 179.442,85.957 L181.152,84.922 C181.502,85.499 181.842,86.082 182.173,86.67 L180.431,87.652 Z M69.661,89.275 L67.89,88.348 C68.202,87.751 68.524,87.161 68.854,86.576 L70.596,87.559 C70.275,88.126 69.964,88.698 69.661,89.275 Z M182.247,91.129 C181.962,90.539 181.668,89.954 181.365,89.375 L183.139,88.449 C183.451,89.048 183.755,89.65 184.048,90.26 L182.247,91.129 Z M67.953,92.793 L66.129,91.973 C66.404,91.359 66.689,90.751 66.982,90.146 L68.78,91.021 C68.495,91.606 68.221,92.197 67.953,92.793 Z M183.844,94.717 C183.596,94.109 183.339,93.508 183.073,92.91 L184.9,92.096 C185.175,92.713 185.44,93.334 185.695,93.959 L183.844,94.717 Z M66.468,96.409 L64.595,95.708 C64.832,95.075 65.078,94.447 65.334,93.825 L67.184,94.587 C66.936,95.189 66.697,95.796 66.468,96.409 Z M185.213,98.398 C185.003,97.776 184.784,97.159 184.557,96.546 L186.432,95.849 C186.667,96.481 186.892,97.118 187.108,97.76 L185.213,98.398 Z M65.212,100.118 L63.298,99.536 C63.495,98.891 63.701,98.248 63.917,97.611 L65.812,98.254 C65.602,98.871 65.401,99.492 65.212,100.118 Z M186.346,102.154 C186.177,101.522 185.998,100.895 185.81,100.271 L187.724,99.692 C187.918,100.338 188.103,100.985 188.277,101.637 L186.346,102.154 Z M64.188,103.899 L62.242,103.438 C62.398,102.78 62.564,102.128 62.739,101.479 L64.669,102.002 C64.499,102.63 64.339,103.263 64.188,103.899 Z M187.24,105.968 C187.11,105.326 186.972,104.688 186.823,104.053 L188.771,103.598 C188.923,104.252 189.068,104.91 189.201,105.571 L187.24,105.968 Z M63.403,107.736 L61.433,107.398 C61.547,106.732 61.672,106.069 61.807,105.411 L63.766,105.812 C63.635,106.45 63.514,107.092 63.403,107.736 Z M187.897,109.83 C187.807,109.182 187.708,108.536 187.599,107.895 L189.569,107.559 C189.683,108.222 189.785,108.887 189.877,109.557 L187.897,109.83 Z M62.858,111.616 L60.87,111.399 C60.943,110.728 61.026,110.06 61.12,109.395 L63.101,109.672 C63.011,110.317 62.93,110.966 62.858,111.616 Z M188.309,113.726 C188.26,113.072 188.201,112.423 188.132,111.775 L190.12,111.563 C190.192,112.231 190.252,112.902 190.303,113.575 L188.309,113.726 Z M62.558,115.521 L60.56,115.428 C60.592,114.753 60.633,114.08 60.685,113.411 L62.679,113.565 C62.629,114.215 62.588,114.866 62.558,115.521 Z M188.482,117.639 C188.473,116.983 188.454,116.33 188.426,115.68 L190.424,115.594 C190.452,116.264 190.473,116.937 190.482,117.611 L188.482,117.639 Z M60.494,119.47 C60.489,119.147 60.487,118.823 60.487,118.5 C60.487,118.149 60.49,117.798 60.496,117.448 L62.496,117.481 C62.49,117.821 62.487,118.161 62.487,118.5 C62.487,118.813 62.489,119.126 62.494,119.438 L60.494,119.47 Z M190.412,121.652 L188.414,121.559 C188.445,120.908 188.466,120.255 188.478,119.599 L190.478,119.634 C190.466,120.31 190.443,120.982 190.412,121.652 Z M60.678,123.506 C60.627,122.837 60.587,122.165 60.556,121.49 L62.554,121.398 C62.583,122.054 62.623,122.706 62.672,123.355 L60.678,123.506 Z M190.095,125.682 L188.107,125.463 C188.178,124.816 188.239,124.167 188.29,123.513 L190.284,123.669 C190.232,124.343 190.168,125.014 190.095,125.682 Z M61.11,127.523 C61.017,126.857 60.935,126.189 60.862,125.519 L62.851,125.304 C62.921,125.955 63.001,126.604 63.09,127.25 L61.11,127.523 Z M189.529,129.684 L187.559,129.342 C187.67,128.7 187.773,128.055 187.863,127.407 L189.844,127.687 C189.749,128.355 189.645,129.021 189.529,129.684 Z M61.789,131.509 C61.655,130.85 61.531,130.187 61.418,129.521 L63.389,129.184 C63.5,129.829 63.62,130.471 63.75,131.11 L61.789,131.509 Z M188.714,133.641 L186.769,133.178 C186.919,132.544 187.061,131.906 187.193,131.264 L189.152,131.668 C189.016,132.33 188.87,132.987 188.714,133.641 Z M62.718,135.443 C62.542,134.794 62.377,134.14 62.222,133.481 L64.169,133.022 C64.318,133.659 64.478,134.292 64.648,134.92 L62.718,135.443 Z M187.653,137.541 L185.741,136.957 C185.932,136.334 186.113,135.706 186.285,135.074 L188.215,135.6 C188.037,136.251 187.85,136.898 187.653,137.541 Z M63.893,139.317 C63.676,138.678 63.47,138.033 63.274,137.386 L65.188,136.806 C65.378,137.434 65.578,138.057 65.787,138.677 L63.893,139.317 Z M186.351,141.369 L184.48,140.664 C184.709,140.055 184.929,139.439 185.14,138.82 L187.032,139.465 C186.816,140.104 186.588,140.738 186.351,141.369 Z M65.311,143.115 C65.055,142.49 64.81,141.862 64.572,141.229 L66.445,140.527 C66.675,141.142 66.914,141.752 67.162,142.357 L65.311,143.115 Z M184.813,145.1 L182.988,144.281 C183.254,143.688 183.512,143.09 183.76,142.487 L185.609,143.249 C185.354,143.871 185.088,144.488 184.813,145.1 Z M66.961,146.813 C66.667,146.206 66.382,145.594 66.107,144.978 L67.933,144.161 C68.2,144.76 68.476,145.353 68.762,145.942 L66.961,146.813 Z M183.048,148.725 L181.278,147.793 C181.581,147.217 181.876,146.635 182.162,146.049 L183.959,146.928 C183.663,147.531 183.36,148.131 183.048,148.725 Z M68.841,150.401 C68.51,149.814 68.188,149.222 67.874,148.623 L69.646,147.695 C69.949,148.274 70.262,148.85 70.583,149.419 L68.841,150.401 Z M181.059,152.234 L179.35,151.195 C179.689,150.639 180.019,150.076 180.341,149.508 L182.079,150.496 C181.747,151.08 181.407,151.66 181.059,152.234 Z M70.94,153.863 C70.572,153.298 70.214,152.727 69.863,152.149 L71.574,151.112 C71.913,151.672 72.262,152.226 72.617,152.773 L70.94,153.863 Z M178.856,155.616 L177.215,154.472 C177.588,153.938 177.952,153.396 178.309,152.85 L179.984,153.941 C179.616,154.506 179.24,155.064 178.856,155.616 Z M73.246,157.185 C72.846,156.644 72.452,156.096 72.067,155.542 L73.71,154.401 C74.083,154.939 74.465,155.47 74.854,155.995 L73.246,157.185 Z M176.445,158.854 L174.879,157.612 C175.284,157.101 175.682,156.583 176.072,156.059 L177.676,157.254 C177.274,157.794 176.864,158.327 176.445,158.854 Z M75.755,160.356 C75.322,159.841 74.896,159.318 74.478,158.791 L76.046,157.549 C76.452,158.063 76.865,158.569 77.286,159.069 L75.755,160.356 Z M173.841,161.94 L172.353,160.603 C172.79,160.117 173.219,159.625 173.64,159.127 L175.167,160.418 C174.733,160.932 174.29,161.439 173.841,161.94 Z M78.455,163.367 C77.99,162.879 77.533,162.385 77.083,161.883 L78.571,160.547 C79.008,161.033 79.451,161.514 79.902,161.986 L78.455,163.367 Z M171.048,164.859 L169.646,163.434 C170.111,162.976 170.57,162.51 171.023,162.038 L172.466,163.423 C172,163.908 171.527,164.388 171.048,164.859 Z M81.333,166.203 C80.839,165.745 80.353,165.28 79.872,164.807 L81.276,163.383 C81.741,163.841 82.214,164.292 82.692,164.736 L81.333,166.203 Z M168.078,167.604 L166.768,166.092 C167.261,165.664 167.747,165.229 168.228,164.785 L169.585,166.254 C169.089,166.712 168.587,167.162 168.078,167.604 Z M84.381,168.854 C83.859,168.428 83.344,167.993 82.836,167.551 L84.15,166.043 C84.643,166.472 85.141,166.893 85.647,167.306 L84.381,168.854 Z M164.945,170.157 L163.731,168.569 C164.249,168.172 164.762,167.768 165.269,167.354 L166.532,168.903 C166.01,169.33 165.482,169.748 164.945,170.157 Z M87.586,171.313 C87.038,170.92 86.497,170.518 85.963,170.107 L87.182,168.521 C87.698,168.918 88.222,169.307 88.752,169.688 L87.586,171.313 Z M161.656,172.515 L160.543,170.854 C161.086,170.49 161.623,170.117 162.153,169.736 L163.319,171.361 C162.772,171.754 162.217,172.139 161.656,172.515 Z M90.932,173.564 C90.362,173.205 89.798,172.838 89.24,172.464 L90.358,170.804 C90.898,171.168 91.445,171.523 91.998,171.871 L90.932,173.564 Z M158.228,174.665 L157.22,172.937 C157.784,172.607 158.344,172.27 158.897,171.922 L159.961,173.615 C159.389,173.975 158.812,174.324 158.228,174.665 Z M94.413,175.605 C93.821,175.283 93.237,174.951 92.656,174.611 L93.67,172.887 C94.231,173.217 94.798,173.537 95.37,173.85 L94.413,175.605 Z M154.669,176.597 L153.771,174.81 C154.356,174.516 154.935,174.213 155.509,173.9 L156.466,175.656 C155.872,175.98 155.274,176.293 154.669,176.597 Z M98.011,177.424 C97.401,177.139 96.797,176.846 96.198,176.543 L97.101,174.758 C97.682,175.051 98.267,175.336 98.858,175.613 L98.011,177.424 Z M150.995,178.304 L150.21,176.464 C150.813,176.206 151.411,175.94 152.004,175.665 L152.846,177.479 C152.234,177.763 151.617,178.038 150.995,178.304 Z M101.714,179.016 C101.087,178.77 100.466,178.514 99.85,178.249 L100.639,176.411 C101.235,176.668 101.837,176.916 102.444,177.154 L101.714,179.016 Z M147.22,179.777 L146.552,177.893 C147.17,177.673 147.783,177.444 148.393,177.207 L149.119,179.07 C148.49,179.315 147.858,179.552 147.22,179.777 Z M105.521,180.376 C104.878,180.168 104.24,179.951 103.607,179.725 L104.278,177.842 C104.893,178.061 105.511,178.271 106.134,178.472 L105.521,180.376 Z M143.364,181.011 L142.814,179.087 C143.443,178.907 144.068,178.718 144.69,178.52 L145.297,180.426 C144.656,180.63 144.012,180.825 143.364,181.011 Z M109.403,181.495 C108.749,181.329 108.098,181.152 107.452,180.966 L108.007,179.044 C108.633,179.225 109.263,179.396 109.898,179.558 L109.403,181.495 Z M139.445,181.997 L139.016,180.044 C139.656,179.903 140.292,179.753 140.925,179.595 L141.411,181.534 C140.759,181.698 140.104,181.853 139.445,181.997 Z M113.351,182.369 C112.688,182.244 112.027,182.108 111.37,181.963 L111.804,180.01 C112.44,180.151 113.078,180.283 113.722,180.404 L113.351,182.369 Z M135.47,182.738 L135.165,180.762 C135.812,180.662 136.456,180.552 137.097,180.433 L137.462,182.399 C136.802,182.522 136.138,182.635 135.47,182.738 Z M117.343,182.995 C116.673,182.911 116.006,182.816 115.342,182.713 L115.652,180.736 C116.295,180.838 116.943,180.929 117.593,181.011 L117.343,182.995 Z M131.459,183.229 L131.277,181.237 C131.93,181.178 132.578,181.108 133.226,181.03 L133.468,183.015 C132.801,183.097 132.131,183.168 131.459,183.229 Z M121.367,183.37 C120.692,183.328 120.02,183.276 119.352,183.214 L119.537,181.222 C120.186,181.282 120.836,181.334 121.49,181.374 L121.367,183.37 Z M127.425,183.472 L127.366,181.472 C128.021,181.453 128.674,181.424 129.323,181.385 L129.444,183.381 C128.774,183.422 128.101,183.451 127.425,183.472 Z M125.405,183.501 C124.73,183.5 124.056,183.489 123.385,183.467 L123.449,181.469 C124.101,181.489 124.753,181.5 125.408,181.501 L125.405,183.501 Z"/>
    <path fill="#42494E" d="M125.487,45.5 C85.235,45.5 52.487,78.248 52.487,118.5 C52.487,158.752 85.235,191.5 125.487,191.5 C165.739,191.5 198.487,158.752 198.487,118.5 C198.487,78.248 165.739,45.5 125.487,45.5 Z M125.487,193.5 C84.132,193.5 50.487,159.855 50.487,118.5 C50.487,77.145 84.132,43.5 125.487,43.5 C166.843,43.5 200.487,77.145 200.487,118.5 C200.487,159.855 166.843,193.5 125.487,193.5 Z"/>
    <path fill="#42494E" d="M125.487,109.436 C120.489,109.436 116.423,113.502 116.423,118.5 C116.423,123.498 120.489,127.564 125.487,127.564 C130.485,127.564 134.552,123.498 134.552,118.5 C134.552,113.502 130.485,109.436 125.487,109.436 Z M125.487,129.564 C119.387,129.564 114.423,124.601 114.423,118.5 C114.423,112.399 119.387,107.436 125.487,107.436 C131.588,107.436 136.552,112.399 136.552,118.5 C136.552,124.601 131.588,129.564 125.487,129.564 Z"/>
    <polyline fill="#42494E" points="154.487 123.501 152.487 123.501 152.487 115.5 151.487 115.5 151.487 113.5 154.487 113.5 154.487 123.501"/>
    <path fill="#42494E" d="M158.487,121.5 L160.487,121.5 L160.487,115.5 L158.487,115.5 L158.487,121.5 Z M156.487,123.5 L162.487,123.5 L162.487,113.5 L156.487,113.5 L156.487,123.5 Z"/>
    <path fill="#42494E" d="M149.487,125.5 L164.487,125.5 L164.487,111.5 L149.487,111.5 L149.487,125.5 Z M147.487,127.5 L166.487,127.5 L166.487,109.5 L147.487,109.5 L147.487,127.5 Z"/>
    <path fill="#DDDED9" d="M125.487,196.5 C83.921,196.5 49.96,163.984 47.626,123.003 C47.541,124.494 47.487,125.993 47.487,127.505 C47.487,170.584 82.409,205.505 125.487,205.505 C168.565,205.505 203.487,170.584 203.487,127.505 C203.487,125.993 203.433,124.494 203.349,123.003 C201.015,163.984 167.053,196.5 125.487,196.5"/>
    <path fill="#42494E" d="M204.347 123.06L202.351 122.946C202.443 121.327 202.487 119.873 202.487 118.5L204.487 118.5C204.487 119.911 204.442 121.403 204.347 123.06M46.628 123.06C46.533 121.403 46.487 119.911 46.487 118.5L48.487 118.5C48.487 119.873 48.532 121.327 48.624 122.946L46.628 123.06"/>
    <path fill="#42494E" d="M125.487,197.5 C83.645,197.5 49.005,164.802 46.628,123.06 L48.624,122.946 C50.942,163.631 84.704,195.5 125.487,195.5 C166.271,195.5 200.033,163.631 202.351,122.946 L204.347,123.06 C201.97,164.802 167.33,197.5 125.487,197.5"/>
    <polygon fill="#434A4F" points="206.509 64.488 208.509 64.488 208.509 60.488 206.509 60.488"/>
    <polygon fill="#434A4F" points="206.509 74.488 208.509 74.488 208.509 70.488 206.509 70.488"/>
    <polygon fill="#434A4F" points="210.509 68.488 214.509 68.488 214.509 66.488 210.509 66.488"/>
    <polygon fill="#434A4F" points="200.509 68.488 204.509 68.488 204.509 66.488 200.509 66.488"/>
    <polygon fill="#434A4F" points="212.513 164.548 214.513 164.548 214.513 160.548 212.513 160.548"/>
    <polygon fill="#434A4F" points="212.513 174.548 214.513 174.548 214.513 170.548 212.513 170.548"/>
    <polygon fill="#434A4F" points="216.513 168.548 220.513 168.548 220.513 166.548 216.513 166.548"/>
    <polygon fill="#434A4F" points="206.513 168.548 210.513 168.548 210.513 166.548 206.513 166.548"/>
    <polygon fill="#434A4F" points="43.411 167.55 45.411 167.55 45.411 163.55 43.411 163.55"/>
    <polygon fill="#434A4F" points="43.411 177.55 45.411 177.55 45.411 173.55 43.411 173.55"/>
    <polygon fill="#434A4F" points="47.411 171.55 51.411 171.55 51.411 169.55 47.411 169.55"/>
    <polygon fill="#434A4F" points="37.411 171.55 41.411 171.55 41.411 169.55 37.411 169.55"/>
    <path fill="#E9886C" d="M181.487 44.5C181.487 45.605 180.592 46.5 179.487 46.5 178.383 46.5 177.487 45.605 177.487 44.5 177.487 43.395 178.383 42.5 179.487 42.5 180.592 42.5 181.487 43.395 181.487 44.5M207.487 95.5C207.487 96.052 207.039 96.5 206.487 96.5 205.935 96.5 205.487 96.052 205.487 95.5 205.487 94.948 205.935 94.5 206.487 94.5 207.039 94.5 207.487 94.948 207.487 95.5M87.487 95.5C87.487 96.052 87.039 96.5 86.487 96.5 85.935 96.5 85.487 96.052 85.487 95.5 85.487 94.948 85.935 94.5 86.487 94.5 87.039 94.5 87.487 94.948 87.487 95.5M37.487 74.5C37.487 75.605 36.592 76.5 35.487 76.5 34.383 76.5 33.487 75.605 33.487 74.5 33.487 73.395 34.383 72.5 35.487 72.5 36.592 72.5 37.487 73.395 37.487 74.5M165.487 208.5C165.487 207.395 166.383 206.5 167.487 206.5 168.592 206.5 169.487 207.395 169.487 208.5 169.487 209.605 168.592 210.5 167.487 210.5 166.383 210.5 165.487 209.605 165.487 208.5M33.487 138.5C33.487 139.605 32.592 140.5 31.487 140.5 30.383 140.5 29.487 139.605 29.487 138.5 29.487 137.395 30.383 136.5 31.487 136.5 32.592 136.5 33.487 137.395 33.487 138.5M59.487 185.5C59.487 186.052 59.04 186.5 58.487 186.5 57.935 186.5 57.487 186.052 57.487 185.5 57.487 184.948 57.935 184.5 58.487 184.5 59.04 184.5 59.487 184.948 59.487 185.5M75.487 203.5C75.487 202.948 75.935 202.5 76.487 202.5 77.039 202.5 77.487 202.948 77.487 203.5 77.487 204.052 77.039 204.5 76.487 204.5 75.935 204.5 75.487 204.052 75.487 203.5M103.487 100.5C103.487 101.605 102.592 102.5 101.487 102.5 100.383 102.5 99.487 101.605 99.487 100.5 99.487 99.395 100.383 98.5 101.487 98.5 102.592 98.5 103.487 99.395 103.487 100.5M135.487 159.5C135.487 158.948 135.935 158.5 136.487 158.5 137.039 158.5 137.487 158.948 137.487 159.5 137.487 160.052 137.039 160.5 136.487 160.5 135.935 160.5 135.487 160.052 135.487 159.5"/>
  </g>
</svg>
