<svg xmlns="http://www.w3.org/2000/svg" width="250" height="250" viewBox="0 0 250 250">
  <g fill="none" fill-rule="evenodd">
    <polyline fill="#DBDBD5" points="158.983 121.525 151 121.525 151 173.525 173.999 173.525 173.999 164.525 158.983 164.525 158.983 121.525"/>
    <path fill="#FACD60" d="M58.009,199.634 C58.009,201.291 56.666,202.634 55.009,202.634 C53.352,202.634 52.009,201.291 52.009,199.634 C52.009,197.977 53.352,196.634 55.009,196.634 C56.666,196.634 58.009,197.977 58.009,199.634"/>
    <path fill="#E9886C" d="M33,111.525 C33,112.629 32.104,113.525 31,113.525 C29.895,113.525 29,112.629 29,111.525 C29,110.42 29.895,109.525 31,109.525 C32.104,109.525 33,110.42 33,111.525"/>
    <polygon fill="#434A4F" points="49 86.669 51 86.669 51 82.669 49 82.669"/>
    <polygon fill="#434A4F" points="49 96.669 51 96.669 51 92.669 49 92.669"/>
    <polygon fill="#434A4F" points="53 90.669 57 90.669 57 88.669 53 88.669"/>
    <polygon fill="#434A4F" points="43 90.669 47 90.669 47 88.669 43 88.669"/>
    <polyline fill="#FACD60" points="149.677 45.525 149.677 69.367 173.519 69.367"/>
    <path fill="#434A4F" d="M174.651 184.699L68.189 184.699 68.189 44.525 84.878 44.525C85.43 44.525 85.878 44.972 85.878 45.525 85.878 46.078 85.43 46.525 84.878 46.525L70.189 46.525 70.189 182.699 172.651 182.699 172.651 171.509C172.651 170.957 173.099 170.509 173.651 170.509 174.204 170.509 174.651 170.957 174.651 171.509L174.651 184.699M173.52 108.525C172.967 108.525 172.52 108.078 172.52 107.525L172.52 87.525C172.52 86.972 172.967 86.525 173.52 86.525 174.072 86.525 174.52 86.972 174.52 87.525L174.52 107.525C174.52 108.078 174.072 108.525 173.52 108.525"/>
    <polyline fill="#434A4F" points="174.52 79.511 172.52 79.511 172.52 69.782 149.263 46.525 94.398 46.525 94.398 44.525 150.091 44.525 174.52 68.954 174.52 79.511"/>
    <path fill="#434A4F" d="M89.63,46.525 C89.359,46.525 89.109,46.424 88.92,46.235 C88.73,46.044 88.63,45.794 88.63,45.525 C88.63,45.265 88.739,45.004 88.92,44.815 C89.009,44.725 89.119,44.655 89.25,44.605 C89.619,44.455 90.059,44.535 90.34,44.815 C90.429,44.915 90.5,45.015 90.549,45.145 C90.599,45.265 90.63,45.395 90.63,45.525 C90.63,45.794 90.529,46.044 90.34,46.235 C90.149,46.424 89.899,46.525 89.63,46.525"/>
    <polygon fill="#434A4F" points="83.519 65.427 117.519 65.427 117.519 63.427 83.519 63.427"/>
    <polygon fill="#434A4F" points="83.519 69.427 103.519 69.427 103.519 67.427 83.519 67.427"/>
    <path fill="#434A4F" d="M168.997,188.701 L64.187,188.701 L64.187,49.527 C64.187,48.974 64.634,48.527 65.187,48.527 C65.739,48.527 66.187,48.974 66.187,49.527 L66.187,186.701 L168.997,186.701 C169.55,186.701 169.997,187.148 169.997,187.701 C169.997,188.253 169.55,188.701 168.997,188.701"/>
    <path fill="#434A4F" d="M164.995,192.704 L60.184,192.704 L60.184,53.53 C60.184,52.977 60.632,52.53 61.184,52.53 C61.736,52.53 62.184,52.977 62.184,53.53 L62.184,190.704 L164.995,190.704 C165.548,190.704 165.995,191.151 165.995,191.704 C165.995,192.256 165.548,192.704 164.995,192.704"/>
    <path fill="#42494E" d="M96.09,197.475 C94.436,197.475 93.09,198.821 93.09,200.475 C93.09,202.129 94.436,203.475 96.09,203.475 L196.639,203.475 L203.146,200.475 L196.639,197.475 L96.09,197.475 Z M197.078,205.475 L96.09,205.475 C93.333,205.475 91.09,203.232 91.09,200.475 C91.09,197.718 93.333,195.475 96.09,195.475 L197.078,195.475 L207.921,200.475 L197.078,205.475 Z"/>
    <polygon fill="#42494E" points="101.7 204.475 103.7 204.475 103.7 196.877 101.7 196.877"/>
    <polygon fill="#42494E" points="102.7 201.447 196.09 201.447 196.09 199.447 102.7 199.447"/>
    <polygon fill="#434A4F" points="87.522 157.473 151.548 157.473 151.548 155.473 87.522 155.473"/>
    <polygon fill="#434A4F" points="87.522 161.475 151.548 161.475 151.548 159.475 87.522 159.475"/>
    <polygon fill="#434A4F" points="87.522 165.478 151.548 165.478 151.548 163.478 87.522 163.478"/>
    <polygon fill="#434A4F" points="85.521 175.484 109.523 175.484 109.523 173.484 85.521 173.484"/>
    <path fill="#434A4F" d="M173.52 83.513C172.967 83.513 172.52 83.066 172.52 82.513L172.52 82.376C172.52 81.823 172.967 81.375 173.52 81.375 174.072 81.375 174.52 81.823 174.52 82.376L174.52 82.513C174.52 83.066 174.072 83.513 173.52 83.513M173.52 168.564C172.967 168.564 172.52 168.117 172.52 167.564L172.52 167.426C172.52 166.874 172.967 166.426 173.52 166.426 174.072 166.426 174.52 166.874 174.52 167.426L174.52 167.564C174.52 168.117 174.072 168.564 173.52 168.564"/>
    <polygon fill="#434A4F" points="213 142.703 215 142.703 215 138.703 213 138.703"/>
    <polygon fill="#434A4F" points="213 152.703 215 152.703 215 148.703 213 148.703"/>
    <polygon fill="#434A4F" points="217 146.703 221 146.703 221 144.703 217 144.703"/>
    <polygon fill="#434A4F" points="207 146.703 211 146.703 211 144.703 207 144.703"/>
    <polyline fill="#E9886C" points="127.282 106.607 121.478 100.838 127.247 95.034 124.41 92.214 118.641 98.018 112.837 92.249 110.017 95.086 115.821 100.855 110.052 106.66 112.889 109.479 118.658 103.675 124.463 109.444 127.282 106.607"/>
    <polyline fill="#E9886C" points="148.914 109.594 131.751 109.594 140.728 96.352 131.397 96.352 131.397 92.352 148.273 92.352 139.296 105.594 148.914 105.594 148.914 109.594"/>
    <polyline fill="#E9886C" points="100.983 83.525 97.565 98.766 94.792 92.215 87.26 92.215 87.26 96.214 92.142 96.214 98.748 111.824 104.173 87.525 148.983 87.525 148.983 83.525 100.983 83.525"/>
    <path fill="#E9886C" d="M127.365,149.387 L108.921,149.332 L121.194,136.213 C122.455,134.788 123.087,133.501 123.091,132.32 L123.092,131.816 C123.096,130.619 122.633,129.492 121.789,128.643 C120.945,127.794 119.821,127.325 118.624,127.321 L117.73,127.318 C115.244,127.311 113.243,129.314 113.235,131.784 L109.235,131.77 C109.252,127.096 113.068,123.338 117.742,123.318 L118.636,123.321 C120.901,123.328 123.029,124.216 124.626,125.823 C126.223,127.43 127.099,129.563 127.092,131.828 L127.091,132.331 C127.084,134.529 126.123,136.68 124.152,138.905 L118.114,145.36 L127.377,145.387 L127.365,149.387"/>
    <polygon fill="#E9886C" points="86.846 118.421 148.914 118.421 148.914 114.421 86.846 114.421"/>
    <path fill="#42494E" d="M159.984,163.525 L193.984,163.525 L193.984,113.525 L159.984,113.525 L159.984,163.525 Z M157.984,165.525 L195.984,165.525 L195.984,111.525 L157.984,111.525 L157.984,165.525 Z"/>
    <path fill="#42494E" d="M163.984 135.525L165.984 135.525 165.984 133.525 163.984 133.525 163.984 135.525zM161.984 137.525L167.984 137.525 167.984 131.525 161.984 131.525 161.984 137.525zM163.984 143.525L165.984 143.525 165.984 141.525 163.984 141.525 163.984 143.525zM161.984 145.525L167.984 145.525 167.984 139.525 161.984 139.525 161.984 145.525zM163.984 151.525L165.984 151.525 165.984 149.525 163.984 149.525 163.984 151.525zM161.984 153.525L167.984 153.525 167.984 147.525 161.984 147.525 161.984 153.525zM163.984 159.525L165.984 159.525 165.984 157.525 163.984 157.525 163.984 159.525zM161.984 161.525L167.984 161.525 167.984 155.525 161.984 155.525 161.984 161.525zM171.984 135.525L173.984 135.525 173.984 133.525 171.984 133.525 171.984 135.525zM169.984 137.525L175.984 137.525 175.984 131.525 169.984 131.525 169.984 137.525zM171.984 143.525L173.984 143.525 173.984 141.525 171.984 141.525 171.984 143.525zM169.984 145.525L175.984 145.525 175.984 139.525 169.984 139.525 169.984 145.525zM171.984 151.525L173.984 151.525 173.984 149.525 171.984 149.525 171.984 151.525zM169.984 153.525L175.984 153.525 175.984 147.525 169.984 147.525 169.984 153.525zM171.984 159.525L173.984 159.525 173.984 157.525 171.984 157.525 171.984 159.525zM169.984 161.525L175.984 161.525 175.984 155.525 169.984 155.525 169.984 161.525zM179.984 135.525L181.984 135.525 181.984 133.525 179.984 133.525 179.984 135.525zM177.984 137.525L183.984 137.525 183.984 131.525 177.984 131.525 177.984 137.525zM179.984 143.525L181.984 143.525 181.984 141.525 179.984 141.525 179.984 143.525zM177.984 145.525L183.984 145.525 183.984 139.525 177.984 139.525 177.984 145.525zM179.984 151.525L181.984 151.525 181.984 149.525 179.984 149.525 179.984 151.525zM177.984 153.525L183.984 153.525 183.984 147.525 177.984 147.525 177.984 153.525zM179.984 159.525L181.984 159.525 181.984 157.525 179.984 157.525 179.984 159.525zM177.984 161.525L183.984 161.525 183.984 155.525 177.984 155.525 177.984 161.525zM187.984 135.525L189.984 135.525 189.984 133.525 187.984 133.525 187.984 135.525zM185.984 137.525L191.984 137.525 191.984 131.525 185.984 131.525 185.984 137.525zM187.984 143.525L189.984 143.525 189.984 141.525 187.984 141.525 187.984 143.525zM185.984 145.525L191.984 145.525 191.984 139.525 185.984 139.525 185.984 145.525z"/>
    <path fill="#E9886C" d="M187.984,159.525 L189.984,159.525 L189.984,149.525 L187.984,149.525 L187.984,159.525 Z M185.984,161.525 L191.984,161.525 L191.984,147.525 L185.984,147.525 L185.984,161.525 Z"/>
    <polygon fill="#42494E" points="158.984 129.525 194.984 129.525 194.984 127.525 158.984 127.525"/>
    <polygon fill="#75C7D0" points="162.983 124.525 190.983 124.525 190.983 116.525 162.983 116.525"/>
    <path fill="#42494E" d="M165.984,121.525 L167.984,121.525 L167.984,119.525 L165.984,119.525 L165.984,121.525 Z M169.984,121.525 L171.984,121.525 L171.984,119.525 L169.984,119.525 L169.984,121.525 Z M173.984,121.525 L175.984,121.525 L175.984,119.525 L173.984,119.525 L173.984,121.525 Z M177.984,121.525 L179.984,121.525 L179.984,119.525 L177.984,119.525 L177.984,121.525 Z M181.984,121.525 L183.984,121.525 L183.984,119.525 L181.984,119.525 L181.984,121.525 Z M185.984,121.525 L187.984,121.525 L187.984,119.525 L185.984,119.525 L185.984,121.525 Z"/>
  </g>
</svg>
