<svg xmlns="http://www.w3.org/2000/svg" width="250" height="250" viewBox="0 0 250 250">
  <g fill="none" fill-rule="evenodd">
    <path fill="#75C7D0" d="M186.996 80.961L190.615 80.961C190.859 78.472 192.916 76.517 195.448 76.431 195.385 76.038 195.351 75.635 195.351 75.225 195.351 71.094 198.674 67.742 202.793 67.691L202.888 67.691C206.618 67.737 209.696 70.492 210.243 74.08 212.973 74.772 215.137 76.882 215.903 79.581 216.029 80.026 216.117 80.487 216.164 80.961L219.686 80.961M153.976 67.953L157.595 67.953C157.839 65.465 159.897 63.509 162.428 63.423 162.365 63.03 162.331 62.628 162.331 62.217 162.331 58.086 165.654 54.734 169.773 54.683L169.868 54.683C173.598 54.729 176.676 57.484 177.223 61.072 179.953 61.765 182.117 63.874 182.883 66.573 183.009 67.018 183.097 67.48 183.144 67.953L186.666 67.953M63.922 77.959L67.541 77.959C67.785 75.471 69.843 73.515 72.374 73.429 72.311 73.036 72.277 72.633 72.277 72.223 72.277 68.092 75.6 64.74 79.719 64.689L79.814 64.689C83.545 64.735 86.622 67.49 87.169 71.078 89.899 71.771 92.063 73.88 92.829 76.579 92.955 77.024 93.043 77.486 93.09 77.959L96.612 77.959"/>
    <path fill="#75C7D0" d="M44.91,66.953 L48.53,66.953 C48.774,64.464 50.831,62.509 53.363,62.422 C53.3,62.029 53.266,61.627 53.266,61.216 C53.266,57.086 56.589,53.733 60.707,53.682 L60.803,53.682 C64.533,53.728 67.611,56.483 68.158,60.072 C70.887,60.764 73.051,62.873 73.817,65.572 C73.944,66.018 74.032,66.479 74.078,66.953"/>
    <polyline fill="#E9886C" points="105.405 114.803 103.405 112.803 103.405 110.259 98.621 110.259 98.621 98.247 99.622 89.94 59.708 89.94 51.028 122.49 51.028 126.155 105.405 126.155 105.405 114.803"/>
    <polyline fill="#E9886C" points="189.721 89.94 149.159 89.94 150.159 98.247 150.159 110.259 145.41 110.259 145.429 110.803 145.429 112.803 143.429 114.803 143.429 126.155 198.401 126.155 198.401 122.49 189.721 89.94"/>
    <path fill="#E9886C" d="M124.421,97.224 C116.007,97.224 109.187,90.403 109.187,81.99 C109.187,73.576 116.007,66.755 124.421,66.755 C132.835,66.755 139.655,73.576 139.655,81.99 C139.655,90.403 132.835,97.224 124.421,97.224 Z M142.958,63.529 L105.823,63.529 L101.621,98.427 L101.621,107.259 L147.159,107.259 L147.159,98.427 L142.958,63.529 Z"/>
    <polyline fill="#E9886C" points="101.621 172.884 147.159 172.884 147.159 169.165 143.199 150.905 105.582 150.905 101.621 169.165 101.621 172.884"/>
    <polyline fill="#E9886C" points="134.408 43.83 138.403 43.83 138.403 37.829 126.403 37.829 126.403 43.829 134.408 43.829 134.408 43.83"/>
    <polyline fill="#E9886C" points="145.405 41.831 140.403 41.831 140.403 45.83 134.408 45.83 134.408 47.831 145.405 47.831 143.404 44.892 145.405 41.831"/>
    <polyline fill="#42494E" points="202.401 130.155 145.402 130.155 145.402 128.155 200.401 128.155 200.401 122.228 191.258 87.939 149.402 87.939 149.402 85.939 192.794 85.939 202.401 122.097 202.401 130.155"/>
    <polyline fill="#42494E" points="103.402 130.155 47.027 130.155 47.061 121.839 56.634 85.939 99.402 85.939 99.402 87.939 58.17 87.939 49.027 122.228 49.027 128.155 103.402 128.155 103.402 130.155"/>
    <path fill="#42494E" d="M50.402 122.249C50.402 121.688 50.852 121.249 51.402 121.249 51.952 121.249 52.402 121.688 52.402 122.249 52.402 122.799 51.952 123.249 51.402 123.249 50.852 123.249 50.402 122.799 50.402 122.249zM54.402 122.249C54.402 121.688 54.852 121.249 55.402 121.249 55.952 121.249 56.402 121.688 56.402 122.249 56.402 122.799 55.952 123.249 55.402 123.249 54.852 123.249 54.402 122.799 54.402 122.249zM58.402 122.249C58.402 121.688 58.852 121.249 59.402 121.249 59.952 121.249 60.402 121.688 60.402 122.249 60.402 122.799 59.952 123.249 59.402 123.249 58.852 123.249 58.402 122.799 58.402 122.249zM62.402 122.249C62.402 121.688 62.852 121.249 63.402 121.249 63.952 121.249 64.402 121.688 64.402 122.249 64.402 122.799 63.952 123.249 63.402 123.249 62.852 123.249 62.402 122.799 62.402 122.249zM66.402 122.249C66.402 121.688 66.852 121.249 67.402 121.249 67.952 121.249 68.402 121.688 68.402 122.249 68.402 122.799 67.952 123.249 67.402 123.249 66.852 123.249 66.402 122.799 66.402 122.249zM70.402 122.249C70.402 121.688 70.852 121.249 71.402 121.249 71.952 121.249 72.402 121.688 72.402 122.249 72.402 122.799 71.952 123.249 71.402 123.249 70.852 123.249 70.402 122.799 70.402 122.249zM74.402 122.249C74.402 121.688 74.852 121.249 75.402 121.249 75.952 121.249 76.402 121.688 76.402 122.249 76.402 122.799 75.952 123.249 75.402 123.249 74.852 123.249 74.402 122.799 74.402 122.249zM78.402 122.249C78.402 121.688 78.852 121.249 79.402 121.249 79.952 121.249 80.402 121.688 80.402 122.249 80.402 122.799 79.952 123.249 79.402 123.249 78.852 123.249 78.402 122.799 78.402 122.249zM82.402 122.249C82.402 121.688 82.852 121.249 83.402 121.249 83.952 121.249 84.402 121.688 84.402 122.249 84.402 122.799 83.952 123.249 83.402 123.249 82.852 123.249 82.402 122.799 82.402 122.249zM86.402 122.249C86.402 121.688 86.852 121.249 87.402 121.249 87.952 121.249 88.402 121.688 88.402 122.249 88.402 122.799 87.952 123.249 87.402 123.249 86.852 123.249 86.402 122.799 86.402 122.249zM90.402 122.249C90.402 121.688 90.852 121.249 91.402 121.249 91.952 121.249 92.402 121.688 92.402 122.249 92.402 122.799 91.952 123.249 91.402 123.249 90.852 123.249 90.402 122.799 90.402 122.249zM94.402 122.249C94.402 121.688 94.852 121.249 95.402 121.249 95.952 121.249 96.402 121.688 96.402 122.249 96.402 122.799 95.952 123.249 95.402 123.249 94.852 123.249 94.402 122.799 94.402 122.249zM98.402 122.249C98.402 121.688 98.852 121.249 99.402 121.249 99.952 121.249 100.402 121.688 100.402 122.249 100.402 122.799 99.952 123.249 99.402 123.249 98.852 123.249 98.402 122.799 98.402 122.249zM148.402 122.249C148.402 121.688 148.852 121.249 149.402 121.249 149.952 121.249 150.402 121.688 150.402 122.249 150.402 122.799 149.952 123.249 149.402 123.249 148.852 123.249 148.402 122.799 148.402 122.249zM152.402 122.249C152.402 121.688 152.852 121.249 153.402 121.249 153.952 121.249 154.402 121.688 154.402 122.249 154.402 122.799 153.952 123.249 153.402 123.249 152.852 123.249 152.402 122.799 152.402 122.249zM156.402 122.249C156.402 121.688 156.852 121.249 157.402 121.249 157.952 121.249 158.402 121.688 158.402 122.249 158.402 122.799 157.952 123.249 157.402 123.249 156.852 123.249 156.402 122.799 156.402 122.249zM160.402 122.249C160.402 121.688 160.852 121.249 161.402 121.249 161.952 121.249 162.402 121.688 162.402 122.249 162.402 122.799 161.952 123.249 161.402 123.249 160.852 123.249 160.402 122.799 160.402 122.249zM164.402 122.249C164.402 121.688 164.852 121.249 165.402 121.249 165.952 121.249 166.402 121.688 166.402 122.249 166.402 122.799 165.952 123.249 165.402 123.249 164.852 123.249 164.402 122.799 164.402 122.249zM168.402 122.249C168.402 121.688 168.852 121.249 169.402 121.249 169.952 121.249 170.402 121.688 170.402 122.249 170.402 122.799 169.952 123.249 169.402 123.249 168.852 123.249 168.402 122.799 168.402 122.249zM172.402 122.249C172.402 121.688 172.852 121.249 173.402 121.249 173.952 121.249 174.402 121.688 174.402 122.249 174.402 122.799 173.952 123.249 173.402 123.249 172.852 123.249 172.402 122.799 172.402 122.249zM176.402 122.249C176.402 121.688 176.852 121.249 177.402 121.249 177.952 121.249 178.402 121.688 178.402 122.249 178.402 122.799 177.952 123.249 177.402 123.249 176.852 123.249 176.402 122.799 176.402 122.249zM180.402 122.249C180.402 121.688 180.852 121.249 181.402 121.249 181.952 121.249 182.402 121.688 182.402 122.249 182.402 122.799 181.952 123.249 181.402 123.249 180.852 123.249 180.402 122.799 180.402 122.249zM184.402 122.249C184.402 121.688 184.852 121.249 185.402 121.249 185.952 121.249 186.402 121.688 186.402 122.249 186.402 122.799 185.952 123.249 185.402 123.249 184.852 123.249 184.402 122.799 184.402 122.249zM188.402 122.249C188.402 121.688 188.852 121.249 189.402 121.249 189.952 121.249 190.402 121.688 190.402 122.249 190.402 122.799 189.952 123.249 189.402 123.249 188.852 123.249 188.402 122.799 188.402 122.249zM192.402 122.249C192.402 121.688 192.852 121.249 193.402 121.249 193.952 121.249 194.402 121.688 194.402 122.249 194.402 122.799 193.952 123.249 193.402 123.249 192.852 123.249 192.402 122.799 192.402 122.249zM196.402 122.249C196.402 121.688 196.852 121.249 197.402 121.249 197.952 121.249 198.402 121.688 198.402 122.249 198.402 122.799 197.952 123.249 197.402 123.249 196.852 123.249 196.402 122.799 196.402 122.249z"/>
    <polygon fill="#42494E" points="196.059 208.843 198.059 208.843 198.059 129.154 196.059 129.154"/>
    <path fill="#42494E" d="M80.871 175.03L88.246 175.03 88.246 166.655C88.246 164.622 86.592 162.968 84.559 162.968 82.525 162.968 80.871 164.622 80.871 166.655L80.871 175.03zM90.246 177.03L78.871 177.03 78.871 166.655C78.871 163.52 81.422 160.968 84.559 160.968 87.695 160.968 90.246 163.52 90.246 166.655L90.246 177.03zM80.871 151.593L88.246 151.593 88.246 143.218C88.246 141.185 86.592 139.53 84.559 139.53 82.525 139.53 80.871 141.185 80.871 143.218L80.871 151.593zM90.246 153.593L78.871 153.593 78.871 143.218C78.871 140.082 81.422 137.53 84.559 137.53 87.695 137.53 90.246 140.082 90.246 143.218L90.246 153.593zM80.871 198.468L88.246 198.468 88.246 190.093C88.246 188.06 86.592 186.405 84.559 186.405 82.525 186.405 80.871 188.06 80.871 190.093L80.871 198.468zM90.246 200.468L78.871 200.468 78.871 190.093C78.871 186.957 81.422 184.405 84.559 184.405 87.695 184.405 90.246 186.957 90.246 190.093L90.246 200.468zM62.121 175.03L69.496 175.03 69.496 166.655C69.496 164.622 67.842 162.968 65.809 162.968 63.775 162.968 62.121 164.622 62.121 166.655L62.121 175.03zM71.496 177.03L60.121 177.03 60.121 166.655C60.121 163.52 62.672 160.968 65.809 160.968 68.945 160.968 71.496 163.52 71.496 166.655L71.496 177.03zM62.121 151.593L69.496 151.593 69.496 143.218C69.496 141.185 67.842 139.53 65.809 139.53 63.775 139.53 62.121 141.185 62.121 143.218L62.121 151.593zM71.496 153.593L60.121 153.593 60.121 143.218C60.121 140.082 62.672 137.53 65.809 137.53 68.945 137.53 71.496 140.082 71.496 143.218L71.496 153.593zM62.121 198.468L69.496 198.468 69.496 190.093C69.496 188.06 67.842 186.405 65.809 186.405 63.775 186.405 62.121 188.06 62.121 190.093L62.121 198.468zM71.496 200.468L60.121 200.468 60.121 190.093C60.121 186.957 62.672 184.405 65.809 184.405 68.945 184.405 71.496 186.957 71.496 190.093L71.496 200.468zM179.309 175.03L186.684 175.03 186.684 166.655C186.684 164.622 185.029 162.968 182.996 162.968 180.963 162.968 179.309 164.622 179.309 166.655L179.309 175.03zM188.684 177.03L177.309 177.03 177.309 166.655C177.309 163.52 179.86 160.968 182.996 160.968 186.132 160.968 188.684 163.52 188.684 166.655L188.684 177.03zM179.309 151.593L186.684 151.593 186.684 143.218C186.684 141.185 185.029 139.53 182.996 139.53 180.963 139.53 179.309 141.185 179.309 143.218L179.309 151.593zM188.684 153.593L177.309 153.593 177.309 143.218C177.309 140.082 179.86 137.53 182.996 137.53 186.132 137.53 188.684 140.082 188.684 143.218L188.684 153.593zM179.309 198.468L186.684 198.468 186.684 190.093C186.684 188.06 185.029 186.405 182.996 186.405 180.963 186.405 179.309 188.06 179.309 190.093L179.309 198.468zM188.684 200.468L177.309 200.468 177.309 190.093C177.309 186.957 179.86 184.405 182.996 184.405 186.132 184.405 188.684 186.957 188.684 190.093L188.684 200.468zM160.559 175.03L167.934 175.03 167.934 166.655C167.934 164.622 166.279 162.968 164.246 162.968 162.213 162.968 160.559 164.622 160.559 166.655L160.559 175.03zM169.934 177.03L158.559 177.03 158.559 166.655C158.559 163.52 161.11 160.968 164.246 160.968 167.382 160.968 169.934 163.52 169.934 166.655L169.934 177.03zM160.559 151.593L167.934 151.593 167.934 143.218C167.934 141.185 166.279 139.53 164.246 139.53 162.213 139.53 160.559 141.185 160.559 143.218L160.559 151.593zM169.934 153.593L158.559 153.593 158.559 143.218C158.559 140.082 161.11 137.53 164.246 137.53 167.382 137.53 169.934 140.082 169.934 143.218L169.934 153.593zM160.559 198.468L167.934 198.468 167.934 190.093C167.934 188.06 166.279 186.405 164.246 186.405 162.213 186.405 160.559 188.06 160.559 190.093L160.559 198.468zM169.934 200.468L158.559 200.468 158.559 190.093C158.559 186.957 161.11 184.405 164.246 184.405 167.382 184.405 169.934 186.957 169.934 190.093L169.934 200.468zM99.621 109.259L149.159 109.259 149.159 98.307 144.731 61.528 104.049 61.528 99.621 98.307 99.621 109.259zM151.159 111.259L97.621 111.259 97.628 98.128 102.275 59.528 146.505 59.528 151.159 98.247 151.159 111.259z"/>
    <path fill="#42494E" d="M124.421,67.755 C116.572,67.755 110.187,74.141 110.187,81.989 C110.187,89.838 116.572,96.224 124.421,96.224 C132.27,96.224 138.655,89.838 138.655,81.989 C138.655,74.141 132.27,67.755 124.421,67.755 Z M124.421,98.224 C115.469,98.224 108.187,90.94 108.187,81.989 C108.187,73.038 115.469,65.755 124.421,65.755 C133.373,65.755 140.655,73.038 140.655,81.989 C140.655,90.94 133.373,98.224 124.421,98.224 Z"/>
    <polyline fill="#42494E" points="129.622 84.308 122.249 84.308 122.249 73.786 124.249 73.786 124.249 82.308 129.622 82.308 129.622 84.308"/>
    <path fill="#42494E" d="M99.621 174.884L149.159 174.884 149.159 168.95 144.812 148.905 103.968 148.905 99.621 168.95 99.621 174.884zM151.159 176.884L97.621 176.884 97.644 168.631 102.356 146.905 146.424 146.905 151.159 168.843 151.159 176.884zM118.371 207.843L130.434 207.843 130.434 192.583C130.434 189.258 127.728 186.552 124.402 186.552 121.077 186.552 118.371 189.258 118.371 192.583L118.371 207.843zM132.434 209.843L116.371 209.843 116.371 192.583C116.371 188.154 119.974 184.552 124.402 184.552 128.831 184.552 132.434 188.154 132.434 192.583L132.434 209.843zM118.371 137.53L130.434 137.53 130.434 126.958C130.434 123.633 127.728 120.927 124.402 120.927 121.077 120.927 118.371 123.633 118.371 126.958L118.371 137.53zM132.434 139.53L116.371 139.53 116.371 126.958C116.371 122.529 119.974 118.927 124.402 118.927 128.831 118.927 132.434 122.529 132.434 126.958L132.434 139.53z"/>
    <polyline fill="#42494E" points="100.402 208.843 98.402 208.843 98.402 206.43 100.402 204.43 100.402 181.257 98.402 179.257 98.402 176.843 100.402 176.843 100.402 178.429 102.402 180.429 102.402 205.258 100.402 207.258 100.402 208.843"/>
    <polyline fill="#42494E" points="108.406 208.843 106.406 208.843 106.406 207.258 104.406 205.258 104.406 180.429 106.406 178.429 106.406 176.843 108.406 176.843 108.406 179.257 106.406 181.257 106.406 204.43 108.406 206.43 108.406 208.843"/>
    <polygon fill="#42494E" points="99.402 183.842 107.401 183.842 107.401 181.842 99.402 181.842"/>
    <polygon fill="#42494E" points="99.402 203.854 107.401 203.854 107.401 201.854 99.402 201.854"/>
    <polyline fill="#42494E" points="142.428 208.843 140.428 208.843 140.428 206.43 142.428 204.43 142.428 181.257 140.428 179.257 140.428 176.843 142.428 176.843 142.428 178.429 144.428 180.429 144.428 205.258 142.428 207.258 142.428 208.843"/>
    <polyline fill="#42494E" points="150.431 208.843 148.431 208.843 148.431 207.258 146.431 205.258 146.431 180.429 148.431 178.429 148.431 176.843 150.431 176.843 150.431 179.257 148.431 181.257 148.431 204.43 150.431 206.43 150.431 208.843"/>
    <polygon fill="#42494E" points="141.428 183.842 149.427 183.842 149.427 181.842 141.428 181.842"/>
    <polygon fill="#42494E" points="141.428 203.854 149.427 203.854 149.427 201.854 141.428 201.854"/>
    <polyline fill="#42494E" points="104.405 147.808 102.405 147.808 102.405 145.394 104.405 143.394 104.405 115.218 102.405 113.218 102.405 110.804 104.405 110.804 104.405 112.39 106.405 114.39 106.405 144.222 104.405 146.222 104.405 147.808"/>
    <polyline fill="#42494E" points="112.409 147.808 110.409 147.808 110.409 146.222 108.409 144.222 108.409 114.39 110.409 112.39 110.409 110.804 112.409 110.804 112.409 113.218 110.409 115.218 110.409 143.394 112.409 145.394 112.409 147.808"/>
    <polygon fill="#42494E" points="103.405 117.802 111.404 117.802 111.404 115.802 103.405 115.802"/>
    <polygon fill="#42494E" points="103.405 142.817 111.404 142.817 111.404 140.817 103.405 140.817"/>
    <polyline fill="#42494E" points="138.425 147.808 136.425 147.808 136.425 145.394 138.425 143.394 138.425 115.218 136.425 113.218 136.425 110.804 138.425 110.804 138.425 112.39 140.425 114.39 140.425 144.222 138.425 146.222 138.425 147.808"/>
    <polyline fill="#42494E" points="146.429 147.808 144.429 147.808 144.429 146.222 142.429 144.222 142.429 114.39 144.429 112.39 144.429 110.804 146.429 110.804 146.429 113.218 144.429 115.218 144.429 143.394 146.429 145.394 146.429 147.808"/>
    <polygon fill="#42494E" points="137.425 117.802 145.424 117.802 145.424 115.802 137.425 115.802"/>
    <polygon fill="#42494E" points="137.425 142.817 145.424 142.817 145.424 140.817 137.425 140.817"/>
    <path fill="#42494E" d="M127.402 199.839C127.132 199.839 126.882 199.739 126.692 199.549 126.502 199.359 126.402 199.109 126.402 198.839 126.402 198.709 126.422 198.579 126.482 198.459 126.532 198.339 126.602 198.229 126.692 198.139 126.972 197.859 127.422 197.769 127.782 197.919 127.902 197.969 128.012 198.039 128.112 198.139 128.202 198.229 128.272 198.339 128.322 198.459 128.372 198.579 128.402 198.709 128.402 198.839 128.402 198.979 128.372 199.109 128.322 199.229 128.272 199.349 128.202 199.459 128.112 199.549 127.922 199.739 127.672 199.839 127.402 199.839M101.402 168.839C101.402 168.289 101.852 167.839 102.402 167.839 102.952 167.839 103.402 168.289 103.402 168.839 103.402 169.389 102.952 169.849 102.402 169.849 101.852 169.849 101.402 169.389 101.402 168.839zM105.402 168.839C105.402 168.289 105.852 167.839 106.402 167.839 106.952 167.839 107.402 168.289 107.402 168.839 107.402 169.389 106.952 169.849 106.402 169.849 105.852 169.849 105.402 169.389 105.402 168.839zM109.402 168.839C109.402 168.289 109.852 167.839 110.402 167.839 110.952 167.839 111.402 168.289 111.402 168.839 111.402 169.389 110.952 169.849 110.402 169.849 109.852 169.849 109.402 169.389 109.402 168.839zM113.402 168.839C113.402 168.289 113.852 167.839 114.402 167.839 114.952 167.839 115.402 168.289 115.402 168.839 115.402 169.389 114.952 169.849 114.402 169.849 113.852 169.849 113.402 169.389 113.402 168.839zM117.402 168.839C117.402 168.289 117.852 167.839 118.402 167.839 118.952 167.839 119.402 168.289 119.402 168.839 119.402 169.389 118.952 169.849 118.402 169.849 117.852 169.849 117.402 169.389 117.402 168.839zM121.402 168.839C121.402 168.289 121.852 167.839 122.402 167.839 122.952 167.839 123.402 168.289 123.402 168.839 123.402 169.389 122.952 169.849 122.402 169.849 121.852 169.849 121.402 169.389 121.402 168.839zM125.402 168.839C125.402 168.289 125.852 167.839 126.402 167.839 126.952 167.839 127.402 168.289 127.402 168.839 127.402 169.389 126.952 169.849 126.402 169.849 125.852 169.849 125.402 169.389 125.402 168.839zM129.402 168.839C129.402 168.289 129.852 167.839 130.402 167.839 130.952 167.839 131.402 168.289 131.402 168.839 131.402 169.389 130.952 169.849 130.402 169.849 129.852 169.849 129.402 169.389 129.402 168.839zM133.402 168.839C133.402 168.289 133.852 167.839 134.402 167.839 134.952 167.839 135.402 168.289 135.402 168.839 135.402 169.389 134.952 169.849 134.402 169.849 133.852 169.849 133.402 169.389 133.402 168.839zM137.402 168.839C137.402 168.289 137.852 167.839 138.402 167.839 138.952 167.839 139.402 168.289 139.402 168.839 139.402 169.389 138.952 169.849 138.402 169.849 137.852 169.849 137.402 169.389 137.402 168.839zM141.402 168.839C141.402 168.289 141.852 167.839 142.402 167.839 142.952 167.839 143.402 168.289 143.402 168.839 143.402 169.389 142.952 169.849 142.402 169.849 141.852 169.849 141.402 169.389 141.402 168.839zM145.402 168.839C145.402 168.289 145.852 167.839 146.402 167.839 146.952 167.839 147.402 168.289 147.402 168.839 147.402 169.389 146.952 169.849 146.402 169.849 145.852 169.849 145.402 169.389 145.402 168.839zM101.402 102.809C101.402 102.249 101.852 101.809 102.402 101.809 102.952 101.809 103.402 102.249 103.402 102.809 103.402 103.359 102.952 103.809 102.402 103.809 101.852 103.809 101.402 103.359 101.402 102.809zM105.402 102.809C105.402 102.249 105.852 101.809 106.402 101.809 106.952 101.809 107.402 102.249 107.402 102.809 107.402 103.359 106.952 103.809 106.402 103.809 105.852 103.809 105.402 103.359 105.402 102.809zM109.402 102.809C109.402 102.249 109.852 101.809 110.402 101.809 110.952 101.809 111.402 102.249 111.402 102.809 111.402 103.359 110.952 103.809 110.402 103.809 109.852 103.809 109.402 103.359 109.402 102.809zM113.402 102.809C113.402 102.249 113.852 101.809 114.402 101.809 114.952 101.809 115.402 102.249 115.402 102.809 115.402 103.359 114.952 103.809 114.402 103.809 113.852 103.809 113.402 103.359 113.402 102.809zM117.402 102.809C117.402 102.249 117.852 101.809 118.402 101.809 118.952 101.809 119.402 102.249 119.402 102.809 119.402 103.359 118.952 103.809 118.402 103.809 117.852 103.809 117.402 103.359 117.402 102.809zM121.402 102.809C121.402 102.249 121.852 101.809 122.402 101.809 122.952 101.809 123.402 102.249 123.402 102.809 123.402 103.359 122.952 103.809 122.402 103.809 121.852 103.809 121.402 103.359 121.402 102.809zM125.402 102.809C125.402 102.249 125.852 101.809 126.402 101.809 126.952 101.809 127.402 102.249 127.402 102.809 127.402 103.359 126.952 103.809 126.402 103.809 125.852 103.809 125.402 103.359 125.402 102.809zM129.402 102.809C129.402 102.249 129.852 101.809 130.402 101.809 130.952 101.809 131.402 102.249 131.402 102.809 131.402 103.359 130.952 103.809 130.402 103.809 129.852 103.809 129.402 103.359 129.402 102.809zM133.402 102.809C133.402 102.249 133.852 101.809 134.402 101.809 134.952 101.809 135.402 102.249 135.402 102.809 135.402 103.359 134.952 103.809 134.402 103.809 133.852 103.809 133.402 103.359 133.402 102.809zM137.402 102.809C137.402 102.249 137.852 101.809 138.402 101.809 138.952 101.809 139.402 102.249 139.402 102.809 139.402 103.359 138.952 103.809 138.402 103.809 137.852 103.809 137.402 103.359 137.402 102.809zM141.402 102.809C141.402 102.249 141.852 101.809 142.402 101.809 142.952 101.809 143.402 102.249 143.402 102.809 143.402 103.359 142.952 103.809 142.402 103.809 141.852 103.809 141.402 103.359 141.402 102.809zM145.402 102.809C145.402 102.249 145.852 101.809 146.402 101.809 146.952 101.809 147.402 102.249 147.402 102.809 147.402 103.359 146.952 103.809 146.402 103.809 145.852 103.809 145.402 103.359 145.402 102.809zM124.462 71.989C124.442 71.989 124.432 71.989 124.422 71.989 123.872 71.989 123.422 71.539 123.422 70.989 123.422 70.439 123.872 69.989 124.422 69.989 124.432 69.989 124.452 69.989 124.472 69.989 125.022 69.989 125.462 70.439 125.462 70.999 125.462 71.549 125.012 71.989 124.462 71.989zM119.512 72.089C119.312 71.579 119.572 70.999 120.082 70.799 120.602 70.599 121.182 70.849 121.382 71.369 121.582 71.879 121.322 72.459 120.812 72.659 120.692 72.709 120.572 72.729 120.452 72.729 120.052 72.729 119.672 72.489 119.512 72.089zM128.072 72.679C127.552 72.479 127.302 71.898 127.502 71.379 127.702 70.869 128.282 70.609 128.802 70.809L128.802 70.819C129.312 71.019 129.562 71.599 129.362 72.109 129.212 72.509 128.832 72.749 128.432 72.749 128.312 72.749 128.192 72.719 128.072 72.679zM116.272 74.529C115.902 74.119 115.932 73.489 116.342 73.119 116.752 72.749 117.382 72.779 117.752 73.179 118.122 73.589 118.092 74.229 117.682 74.599 117.492 74.769 117.252 74.859 117.012 74.859 116.742 74.859 116.472 74.749 116.272 74.529zM131.182 74.629C130.782 74.249 130.752 73.619 131.122 73.209 131.492 72.799 132.132 72.779 132.532 73.148 132.942 73.519 132.972 74.159 132.592 74.559 132.402 74.779 132.132 74.889 131.862 74.889 131.622 74.889 131.372 74.799 131.182 74.629zM114.132 77.979C113.632 77.729 113.432 77.129 113.682 76.629 113.932 76.139 114.532 75.938 115.022 76.188 115.512 76.429 115.712 77.029 115.472 77.529 115.292 77.879 114.942 78.079 114.572 78.079 114.422 78.079 114.272 78.049 114.132 77.979zM133.392 77.559C133.142 77.069 133.352 76.469 133.842 76.219 134.342 75.979 134.932 76.179 135.182 76.679 135.422 77.169 135.222 77.769 134.732 78.019 134.592 78.089 134.432 78.119 134.282 78.119 133.922 78.119 133.562 77.909 133.392 77.559zM113.372 81.959C112.822 81.909 112.422 81.419 112.472 80.869 112.522 80.319 113.012 79.919 113.562 79.969 114.112 80.019 114.512 80.509 114.462 81.059 114.412 81.579 113.982 81.969 113.462 81.969 113.432 81.969 113.402 81.959 113.372 81.959zM134.382 81.099C134.332 80.549 134.742 80.059 135.292 80.009 135.842 79.959 136.322 80.369 136.372 80.919 136.422 81.469 136.012 81.959 135.462 82.009 135.432 82.009 135.402 82.009 135.382 82.009 134.862 82.009 134.422 81.619 134.382 81.099zM112.872 85.259C112.722 84.729 113.032 84.179 113.562 84.019 114.092 83.879 114.642 84.179 114.802 84.719 114.942 85.249 114.632 85.799 114.112 85.949 114.012 85.979 113.922 85.989 113.832 85.989 113.402 85.989 113.002 85.699 112.872 85.259zM134.722 85.989C134.192 85.839 133.882 85.279 134.032 84.759 134.182 84.219 134.742 83.919 135.272 84.069 135.802 84.219 136.112 84.779 135.952 85.309 135.832 85.739 135.432 86.029 134.992 86.029 134.902 86.029 134.812 86.019 134.722 85.989zM114.832 89.209C114.502 88.769 114.592 88.139 115.032 87.809 115.472 87.479 116.102 87.559 116.432 88.009 116.762 88.439 116.672 89.069 116.232 89.409 116.052 89.539 115.842 89.609 115.632 89.609 115.332 89.609 115.032 89.469 114.832 89.209zM132.572 89.438C132.132 89.099 132.052 88.479 132.382 88.039 132.722 87.599 133.352 87.509 133.792 87.839 134.222 88.179 134.312 88.809 133.982 89.249 133.782 89.509 133.482 89.639 133.182 89.639 132.972 89.639 132.762 89.579 132.572 89.438zM118.082 92.179C117.612 91.889 117.472 91.269 117.762 90.809 118.062 90.339 118.672 90.188 119.142 90.489 119.612 90.779 119.752 91.389 119.462 91.859 119.272 92.169 118.942 92.329 118.612 92.329 118.432 92.329 118.252 92.289 118.082 92.179zM129.342 91.879C129.052 91.409 129.192 90.799 129.662 90.509 130.132 90.219 130.752 90.359 131.042 90.829 131.332 91.299 131.182 91.919 130.712 92.209 130.552 92.309 130.372 92.359 130.192 92.359 129.852 92.359 129.532 92.189 129.342 91.879zM122.192 93.779C121.652 93.679 121.292 93.159 121.392 92.619 121.502 92.069 122.022 91.719 122.562 91.819 123.102 91.919 123.462 92.438 123.362 92.989 123.272 93.469 122.852 93.799 122.382 93.799 122.322 93.799 122.252 93.799 122.192 93.779zM125.432 92.989C125.332 92.449 125.692 91.919 126.242 91.829 126.782 91.728 127.302 92.089 127.402 92.629 127.502 93.169 127.142 93.689 126.602 93.789 126.542 93.799 126.482 93.809 126.422 93.809 125.942 93.809 125.522 93.469 125.432 92.989z"/>
    <polygon fill="#42494E" points="123.402 138.343 125.402 138.343 125.402 119.927 123.402 119.927"/>
    <polygon fill="#42494E" points="83.559 152.426 85.559 152.426 85.559 138.53 83.559 138.53"/>
    <polygon fill="#42494E" points="64.809 152.593 66.809 152.593 66.809 138.53 64.809 138.53"/>
    <polygon fill="#42494E" points="64.809 176.26 66.809 176.26 66.809 161.968 64.809 161.968"/>
    <polygon fill="#42494E" points="83.559 176.093 85.559 176.093 85.559 161.968 83.559 161.968"/>
    <polygon fill="#42494E" points="64.809 199.51 66.809 199.51 66.809 185.405 64.809 185.405"/>
    <polygon fill="#42494E" points="83.559 199.26 85.559 199.26 85.559 185.405 83.559 185.405"/>
    <polygon fill="#42494E" points="163.246 199.343 165.246 199.343 165.246 185.405 163.246 185.405"/>
    <polygon fill="#42494E" points="181.996 199.26 183.996 199.26 183.996 185.405 181.996 185.405"/>
    <polygon fill="#42494E" points="181.996 175.76 183.996 175.76 183.996 161.968 181.996 161.968"/>
    <polygon fill="#42494E" points="163.246 175.926 165.246 175.926 165.246 161.968 163.246 161.968"/>
    <polygon fill="#42494E" points="163.246 152.426 165.246 152.426 165.246 138.53 163.246 138.53"/>
    <polygon fill="#42494E" points="181.996 152.26 183.996 152.26 183.996 138.53 181.996 138.53"/>
    <path fill="#42494E" d="M132.402,49.831 L149.535,49.831 L146.202,44.831 L149.535,39.831 L138.402,39.831 L138.402,35.831 L124.402,35.831 L124.402,45.831 L132.402,45.831 L132.402,49.831 Z M153.272,51.831 L130.402,51.831 L130.402,47.831 L122.402,47.831 L122.402,33.831 L140.402,33.831 L140.402,37.831 L153.272,37.831 L148.605,44.831 L153.272,51.831 Z"/>
    <polygon fill="#42494E" points="122.402 60.831 124.402 60.831 124.402 46.831 122.402 46.831"/>
    <polygon fill="#42494E" points="50.402 208.843 52.402 208.843 52.402 129.081 50.402 129.081"/>
    <path fill="#42494E" d="M53.374 134.831L49.402 134.831C48.85 134.831 48.402 134.384 48.402 133.831 48.402 133.278 48.85 132.831 49.402 132.831L53.374 132.831C53.926 132.831 54.373 133.278 54.373 133.831 54.373 134.384 53.926 134.831 53.374 134.831M57.402 134.829C57.272 134.829 57.142 134.809 57.022 134.759 56.902 134.709 56.792 134.629 56.702 134.539 56.602 134.438 56.532 134.339 56.482 134.209 56.432 134.089 56.402 133.959 56.402 133.829 56.402 133.569 56.512 133.309 56.702 133.119 57.072 132.749 57.742 132.749 58.112 133.119 58.302 133.309 58.412 133.569 58.412 133.829 58.412 133.959 58.382 134.089 58.332 134.209 58.282 134.339 58.212 134.438 58.112 134.539 58.022 134.629 57.912 134.709 57.792 134.759 57.672 134.809 57.542 134.829 57.402 134.829M60.412 133.829C60.412 133.279 60.852 132.829 61.402 132.829 61.962 132.829 62.402 133.279 62.402 133.829 62.402 134.379 61.962 134.829 61.402 134.829 60.852 134.829 60.412 134.379 60.412 133.829zM64.402 133.829C64.402 133.279 64.852 132.829 65.402 132.829 65.962 132.829 66.402 133.279 66.402 133.829 66.402 134.379 65.962 134.829 65.402 134.829 64.852 134.829 64.402 134.379 64.402 133.829zM68.402 133.829C68.402 133.279 68.852 132.829 69.402 132.829 69.962 132.829 70.402 133.279 70.402 133.829 70.402 134.379 69.962 134.829 69.402 134.829 68.852 134.829 68.402 134.379 68.402 133.829zM72.402 133.829C72.402 133.279 72.852 132.829 73.402 132.829 73.962 132.829 74.402 133.279 74.402 133.829 74.402 134.379 73.962 134.829 73.402 134.829 72.852 134.829 72.402 134.379 72.402 133.829zM76.402 133.829C76.402 133.279 76.852 132.829 77.402 132.829 77.962 132.829 78.402 133.279 78.402 133.829 78.402 134.379 77.962 134.829 77.402 134.829 76.852 134.829 76.402 134.379 76.402 133.829zM80.402 133.829C80.402 133.279 80.852 132.829 81.402 132.829 81.962 132.829 82.402 133.279 82.402 133.829 82.402 134.379 81.962 134.829 81.402 134.829 80.852 134.829 80.402 134.379 80.402 133.829zM84.402 133.829C84.402 133.279 84.852 132.829 85.402 132.829 85.952 132.829 86.402 133.279 86.402 133.829 86.402 134.379 85.952 134.829 85.402 134.829 84.852 134.829 84.402 134.379 84.402 133.829zM88.402 133.829C88.402 133.279 88.852 132.829 89.402 132.829 89.952 132.829 90.402 133.279 90.402 133.829 90.402 134.379 89.952 134.829 89.402 134.829 88.852 134.829 88.402 134.379 88.402 133.829zM92.402 133.829C92.402 133.279 92.852 132.829 93.402 132.829 93.952 132.829 94.402 133.279 94.402 133.829 94.402 134.379 93.952 134.829 93.402 134.829 92.852 134.829 92.402 134.379 92.402 133.829zM96.402 133.829C96.402 133.279 96.852 132.829 97.402 132.829 97.952 132.829 98.402 133.279 98.402 133.829 98.402 134.379 97.952 134.829 97.402 134.829 96.852 134.829 96.402 134.379 96.402 133.829zM101.402 134.829C101.132 134.829 100.882 134.729 100.692 134.539 100.502 134.349 100.402 134.099 100.402 133.829 100.402 133.699 100.432 133.569 100.482 133.449 100.532 133.329 100.602 133.219 100.692 133.119 101.072 132.749 101.732 132.749 102.112 133.119 102.292 133.309 102.402 133.569 102.402 133.829 102.402 133.959 102.382 134.089 102.322 134.209 102.272 134.339 102.202 134.438 102.112 134.539 102.012 134.629 101.902 134.709 101.782 134.759 101.662 134.809 101.532 134.829 101.402 134.829M199.461 134.831L195.49 134.831C194.938 134.831 194.49 134.384 194.49 133.831 194.49 133.278 194.938 132.831 195.49 132.831L199.461 132.831C200.014 132.831 200.461 133.278 200.461 133.831 200.461 134.384 200.014 134.831 199.461 134.831M191.462 134.829C191.192 134.829 190.942 134.729 190.752 134.539 190.652 134.438 190.582 134.339 190.532 134.209 190.482 134.089 190.452 133.959 190.452 133.829 190.452 133.569 190.562 133.309 190.752 133.119 191.122 132.749 191.792 132.749 192.162 133.119 192.352 133.309 192.462 133.569 192.462 133.829 192.462 133.969 192.432 134.089 192.382 134.209 192.332 134.339 192.262 134.438 192.162 134.539 192.072 134.629 191.962 134.709 191.842 134.759 191.722 134.809 191.592 134.829 191.462 134.829M150.462 133.829C150.462 133.279 150.912 132.829 151.462 132.829 152.012 132.829 152.462 133.279 152.462 133.829 152.462 134.379 152.012 134.829 151.462 134.829 150.912 134.829 150.462 134.379 150.462 133.829zM154.462 133.829C154.462 133.279 154.912 132.829 155.462 132.829 156.012 132.829 156.462 133.279 156.462 133.829 156.462 134.379 156.012 134.829 155.462 134.829 154.912 134.829 154.462 134.379 154.462 133.829zM158.462 133.829C158.462 133.279 158.912 132.829 159.462 132.829 160.012 132.829 160.462 133.279 160.462 133.829 160.462 134.379 160.012 134.829 159.462 134.829 158.912 134.829 158.462 134.379 158.462 133.829zM162.462 133.829C162.462 133.279 162.902 132.829 163.462 132.829 164.012 132.829 164.462 133.279 164.462 133.829 164.462 134.379 164.012 134.829 163.462 134.829 162.902 134.829 162.462 134.379 162.462 133.829zM166.462 133.829C166.462 133.279 166.902 132.829 167.462 132.829 168.012 132.829 168.462 133.279 168.462 133.829 168.462 134.379 168.012 134.829 167.462 134.829 166.902 134.829 166.462 134.379 166.462 133.829zM170.462 133.829C170.462 133.279 170.902 132.829 171.462 132.829 172.012 132.829 172.462 133.279 172.462 133.829 172.462 134.379 172.012 134.829 171.462 134.829 170.902 134.829 170.462 134.379 170.462 133.829zM174.462 133.829C174.462 133.279 174.902 132.829 175.462 132.829 176.012 132.829 176.462 133.279 176.462 133.829 176.462 134.379 176.012 134.829 175.462 134.829 174.902 134.829 174.462 134.379 174.462 133.829zM178.462 133.829C178.462 133.279 178.902 132.829 179.462 132.829 180.012 132.829 180.462 133.279 180.462 133.829 180.462 134.379 180.012 134.829 179.462 134.829 178.902 134.829 178.462 134.379 178.462 133.829zM182.462 133.829C182.462 133.279 182.902 132.829 183.462 132.829 184.012 132.829 184.452 133.279 184.452 133.829 184.452 134.379 184.012 134.829 183.462 134.829 182.902 134.829 182.462 134.379 182.462 133.829zM186.462 133.829C186.462 133.279 186.902 132.829 187.452 132.829 188.012 132.829 188.452 133.279 188.452 133.829 188.452 134.379 188.012 134.829 187.452 134.829 186.902 134.829 186.462 134.379 186.462 133.829zM147.462 134.829C147.332 134.829 147.202 134.809 147.082 134.759 146.962 134.709 146.852 134.629 146.752 134.539 146.662 134.438 146.592 134.339 146.532 134.209 146.482 134.089 146.462 133.969 146.462 133.829 146.462 133.569 146.572 133.309 146.752 133.119 146.852 133.029 146.952 132.959 147.082 132.909 147.452 132.749 147.892 132.839 148.172 133.119 148.352 133.309 148.462 133.569 148.462 133.829 148.462 133.969 148.432 134.089 148.382 134.209 148.332 134.339 148.262 134.438 148.172 134.539 148.072 134.629 147.962 134.709 147.842 134.759 147.722 134.809 147.592 134.829 147.462 134.829M53.374 158.846L49.402 158.846C48.85 158.846 48.402 158.398 48.402 157.846 48.402 157.293 48.85 156.846 49.402 156.846L53.374 156.846C53.926 156.846 54.373 157.293 54.373 157.846 54.373 158.398 53.926 158.846 53.374 158.846M57.402 158.849C57.142 158.849 56.892 158.739 56.702 158.549 56.602 158.459 56.532 158.349 56.482 158.229 56.432 158.109 56.412 157.979 56.412 157.849 56.412 157.579 56.512 157.319 56.702 157.139 56.792 157.049 56.902 156.969 57.022 156.919 57.272 156.819 57.542 156.819 57.792 156.919 57.912 156.969 58.022 157.049 58.112 157.139 58.162 157.188 58.202 157.239 58.242 157.289 58.272 157.349 58.302 157.398 58.332 157.459 58.352 157.519 58.372 157.589 58.392 157.648 58.402 157.719 58.402 157.779 58.402 157.849 58.402 158.109 58.302 158.359 58.112 158.549 57.922 158.739 57.672 158.849 57.402 158.849M60.412 157.849C60.412 157.289 60.852 156.849 61.412 156.849 61.962 156.849 62.412 157.289 62.412 157.849 62.412 158.398 61.962 158.849 61.412 158.849 60.852 158.849 60.412 158.398 60.412 157.849zM64.402 157.849C64.402 157.289 64.852 156.849 65.402 156.849 65.962 156.849 66.402 157.289 66.402 157.849 66.402 158.398 65.962 158.849 65.402 158.849 64.852 158.849 64.402 158.398 64.402 157.849zM68.402 157.849C68.402 157.289 68.852 156.849 69.402 156.849 69.952 156.849 70.402 157.289 70.402 157.849 70.402 158.398 69.952 158.849 69.402 158.849 68.852 158.849 68.402 158.398 68.402 157.849zM72.402 157.849C72.402 157.289 72.852 156.849 73.402 156.849 73.962 156.849 74.402 157.289 74.402 157.849 74.402 158.398 73.962 158.849 73.402 158.849 72.852 158.849 72.402 158.398 72.402 157.849zM76.402 157.849C76.402 157.289 76.852 156.849 77.402 156.849 77.952 156.849 78.402 157.289 78.402 157.849 78.402 158.398 77.952 158.849 77.402 158.849 76.852 158.849 76.402 158.398 76.402 157.849zM80.402 157.849C80.402 157.289 80.852 156.849 81.402 156.849 81.952 156.849 82.402 157.289 82.402 157.849 82.402 158.398 81.952 158.849 81.402 158.849 80.852 158.849 80.402 158.398 80.402 157.849zM84.402 157.849C84.402 157.289 84.852 156.849 85.402 156.849 85.952 156.849 86.402 157.289 86.402 157.849 86.402 158.398 85.952 158.849 85.402 158.849 84.852 158.849 84.402 158.398 84.402 157.849zM88.402 157.849C88.402 157.289 88.852 156.849 89.402 156.849 89.952 156.849 90.402 157.289 90.402 157.849 90.402 158.398 89.952 158.849 89.402 158.849 88.852 158.849 88.402 158.398 88.402 157.849zM92.402 157.849C92.402 157.289 92.852 156.849 93.402 156.849 93.952 156.849 94.402 157.289 94.402 157.849 94.402 158.398 93.952 158.849 93.402 158.849 92.852 158.849 92.402 158.398 92.402 157.849zM97.402 158.849C97.132 158.849 96.882 158.739 96.692 158.549 96.602 158.459 96.522 158.349 96.472 158.229 96.422 158.109 96.402 157.979 96.402 157.849 96.402 157.579 96.502 157.329 96.692 157.139 96.782 157.049 96.892 156.969 97.022 156.919 97.262 156.819 97.532 156.819 97.782 156.919 97.902 156.969 98.012 157.049 98.112 157.139 98.152 157.188 98.192 157.239 98.232 157.289 98.262 157.349 98.302 157.398 98.322 157.459 98.352 157.519 98.362 157.589 98.382 157.648 98.392 157.719 98.402 157.779 98.402 157.849 98.402 157.979 98.372 158.109 98.322 158.229 98.272 158.349 98.202 158.459 98.112 158.549 97.922 158.739 97.672 158.849 97.402 158.849M199.461 158.846L195.49 158.846C194.938 158.846 194.49 158.398 194.49 157.846 194.49 157.293 194.938 156.846 195.49 156.846L199.461 156.846C200.014 156.846 200.461 157.293 200.461 157.846 200.461 158.398 200.014 158.846 199.461 158.846M191.452 158.849C191.192 158.849 190.942 158.739 190.752 158.549 190.562 158.359 190.452 158.109 190.452 157.849 190.452 157.579 190.562 157.329 190.752 157.139 190.792 157.089 190.842 157.049 190.902 157.019 190.952 156.979 191.012 156.949 191.072 156.919 191.132 156.898 191.202 156.879 191.262 156.869 191.392 156.839 191.522 156.839 191.652 156.869 191.712 156.879 191.782 156.898 191.842 156.919 191.902 156.949 191.962 156.979 192.012 157.019 192.062 157.049 192.112 157.089 192.162 157.139 192.352 157.329 192.452 157.579 192.452 157.849 192.452 158.109 192.352 158.359 192.162 158.549 191.972 158.739 191.722 158.849 191.452 158.849M154.462 157.849C154.462 157.289 154.912 156.849 155.462 156.849 156.012 156.849 156.462 157.289 156.462 157.849 156.462 158.398 156.012 158.849 155.462 158.849 154.912 158.849 154.462 158.398 154.462 157.849zM158.462 157.849C158.462 157.289 158.912 156.849 159.462 156.849 160.012 156.849 160.462 157.289 160.462 157.849 160.462 158.398 160.012 158.849 159.462 158.849 158.912 158.849 158.462 158.398 158.462 157.849zM162.462 157.849C162.462 157.289 162.912 156.849 163.462 156.849 164.012 156.849 164.462 157.289 164.462 157.849 164.462 158.398 164.012 158.849 163.462 158.849 162.912 158.849 162.462 158.398 162.462 157.849zM166.462 157.849C166.462 157.289 166.912 156.849 167.462 156.849 168.012 156.849 168.462 157.289 168.462 157.849 168.462 158.398 168.012 158.849 167.462 158.849 166.912 158.849 166.462 158.398 166.462 157.849zM170.462 157.849C170.462 157.289 170.902 156.849 171.462 156.849 172.012 156.849 172.462 157.289 172.462 157.849 172.462 158.398 172.012 158.849 171.462 158.849 170.902 158.849 170.462 158.398 170.462 157.849zM174.462 157.849C174.462 157.289 174.902 156.849 175.462 156.849 176.012 156.849 176.462 157.289 176.462 157.849 176.462 158.398 176.012 158.849 175.462 158.849 174.902 158.849 174.462 158.398 174.462 157.849zM178.462 157.849C178.462 157.289 178.902 156.849 179.462 156.849 180.012 156.849 180.462 157.289 180.462 157.849 180.462 158.398 180.012 158.849 179.462 158.849 178.902 158.849 178.462 158.398 178.462 157.849zM182.462 157.849C182.462 157.289 182.902 156.849 183.462 156.849 184.012 156.849 184.462 157.289 184.462 157.849 184.462 158.398 184.012 158.849 183.462 158.849 182.902 158.849 182.462 158.398 182.462 157.849zM186.452 157.849C186.452 157.289 186.902 156.849 187.452 156.849 188.012 156.849 188.452 157.289 188.452 157.849 188.452 158.398 188.012 158.849 187.452 158.849 186.902 158.849 186.452 158.398 186.452 157.849zM151.462 158.849C151.192 158.849 150.942 158.739 150.752 158.549 150.572 158.359 150.462 158.109 150.462 157.849 150.462 157.579 150.572 157.329 150.752 157.139 150.852 157.049 150.962 156.969 151.082 156.919 151.262 156.849 151.462 156.819 151.662 156.869 151.722 156.879 151.782 156.898 151.842 156.919 151.902 156.949 151.962 156.979 152.022 157.019 152.072 157.049 152.122 157.089 152.172 157.139 152.362 157.329 152.462 157.579 152.462 157.849 152.462 158.109 152.362 158.359 152.172 158.549 151.982 158.739 151.732 158.849 151.462 158.849M53.374 182.86L49.402 182.86C48.85 182.86 48.402 182.413 48.402 181.86 48.402 181.308 48.85 180.86 49.402 180.86L53.374 180.86C53.926 180.86 54.373 181.308 54.373 181.86 54.373 182.413 53.926 182.86 53.374 182.86M57.412 182.859C57.142 182.859 56.892 182.759 56.702 182.569 56.512 182.379 56.402 182.129 56.402 181.859 56.402 181.729 56.432 181.599 56.482 181.479 56.532 181.359 56.602 181.249 56.702 181.148 56.972 180.879 57.422 180.789 57.792 180.938 57.912 180.989 58.022 181.059 58.112 181.148 58.202 181.249 58.282 181.359 58.332 181.479 58.382 181.599 58.402 181.729 58.402 181.859 58.402 182.129 58.302 182.379 58.112 182.569 57.922 182.759 57.672 182.859 57.412 182.859M60.402 181.859C60.402 181.309 60.852 180.859 61.402 180.859 61.962 180.859 62.402 181.309 62.402 181.859 62.402 182.409 61.962 182.859 61.402 182.859 60.852 182.859 60.402 182.409 60.402 181.859zM64.402 181.859C64.402 181.309 64.852 180.859 65.402 180.859 65.962 180.859 66.402 181.309 66.402 181.859 66.402 182.409 65.962 182.859 65.402 182.859 64.852 182.859 64.402 182.409 64.402 181.859zM68.402 181.859C68.402 181.309 68.852 180.859 69.402 180.859 69.962 180.859 70.402 181.309 70.402 181.859 70.402 182.409 69.962 182.859 69.402 182.859 68.852 182.859 68.402 182.409 68.402 181.859zM72.402 181.859C72.402 181.309 72.852 180.859 73.402 180.859 73.962 180.859 74.402 181.309 74.402 181.859 74.402 182.409 73.962 182.859 73.402 182.859 72.852 182.859 72.402 182.409 72.402 181.859zM76.402 181.859C76.402 181.309 76.852 180.859 77.402 180.859 77.962 180.859 78.402 181.309 78.402 181.859 78.402 182.409 77.962 182.859 77.402 182.859 76.852 182.859 76.402 182.409 76.402 181.859zM80.402 181.859C80.402 181.309 80.852 180.859 81.402 180.859 81.952 180.859 82.402 181.309 82.402 181.859 82.402 182.409 81.952 182.859 81.402 182.859 80.852 182.859 80.402 182.409 80.402 181.859zM84.402 181.859C84.402 181.309 84.852 180.859 85.402 180.859 85.952 180.859 86.402 181.309 86.402 181.859 86.402 182.409 85.952 182.859 85.402 182.859 84.852 182.859 84.402 182.409 84.402 181.859zM88.402 181.859C88.402 181.309 88.852 180.859 89.402 180.859 89.952 180.859 90.402 181.309 90.402 181.859 90.402 182.409 89.952 182.859 89.402 182.859 88.852 182.859 88.402 182.409 88.402 181.859zM92.402 181.859C92.402 181.309 92.852 180.859 93.402 180.859 93.952 180.859 94.402 181.309 94.402 181.859 94.402 182.409 93.952 182.859 93.402 182.859 92.852 182.859 92.402 182.409 92.402 181.859zM96.402 181.859C96.402 181.309 96.852 180.859 97.402 180.859 97.952 180.859 98.402 181.309 98.402 181.859 98.402 182.409 97.952 182.859 97.402 182.859 96.852 182.859 96.402 182.409 96.402 181.859zM101.402 182.859C101.132 182.859 100.882 182.759 100.692 182.569 100.502 182.379 100.402 182.129 100.402 181.859 100.402 181.729 100.432 181.599 100.482 181.479 100.532 181.359 100.602 181.249 100.692 181.148 100.792 181.059 100.892 180.989 101.022 180.938 101.392 180.789 101.832 180.879 102.112 181.148 102.202 181.249 102.272 181.359 102.322 181.479 102.372 181.599 102.402 181.729 102.402 181.859 102.402 182.129 102.302 182.379 102.112 182.569 102.012 182.659 101.902 182.739 101.782 182.789 101.662 182.839 101.532 182.859 101.402 182.859M199.461 182.86L195.49 182.86C194.938 182.86 194.49 182.413 194.49 181.86 194.49 181.308 194.938 180.86 195.49 180.86L199.461 180.86C200.014 180.86 200.461 181.308 200.461 181.86 200.461 182.413 200.014 182.86 199.461 182.86M191.452 182.859C191.192 182.859 190.942 182.759 190.752 182.569 190.562 182.379 190.462 182.129 190.462 181.859 190.462 181.729 190.482 181.599 190.532 181.479 190.582 181.359 190.652 181.249 190.752 181.148 190.842 181.059 190.952 180.989 191.072 180.938 191.322 180.839 191.592 180.839 191.842 180.938 191.962 180.989 192.072 181.059 192.162 181.148 192.252 181.249 192.332 181.359 192.382 181.479 192.432 181.599 192.452 181.729 192.452 181.859 192.452 182.129 192.352 182.379 192.162 182.569 191.972 182.759 191.722 182.859 191.452 182.859M150.462 181.859C150.462 181.309 150.912 180.859 151.462 180.859 152.012 180.859 152.462 181.309 152.462 181.859 152.462 182.409 152.012 182.859 151.462 182.859 150.912 182.859 150.462 182.409 150.462 181.859zM154.462 181.859C154.462 181.309 154.912 180.859 155.462 180.859 156.012 180.859 156.462 181.309 156.462 181.859 156.462 182.409 156.012 182.859 155.462 182.859 154.912 182.859 154.462 182.409 154.462 181.859zM158.462 181.859C158.462 181.309 158.902 180.859 159.462 180.859 160.012 180.859 160.462 181.309 160.462 181.859 160.462 182.409 160.012 182.859 159.462 182.859 158.902 182.859 158.462 182.409 158.462 181.859zM162.462 181.859C162.462 181.309 162.902 180.859 163.462 180.859 164.012 180.859 164.462 181.309 164.462 181.859 164.462 182.409 164.012 182.859 163.462 182.859 162.902 182.859 162.462 182.409 162.462 181.859zM166.462 181.859C166.462 181.309 166.902 180.859 167.462 180.859 168.012 180.859 168.462 181.309 168.462 181.859 168.462 182.409 168.012 182.859 167.462 182.859 166.902 182.859 166.462 182.409 166.462 181.859zM170.462 181.859C170.462 181.309 170.902 180.859 171.462 180.859 172.012 180.859 172.462 181.309 172.462 181.859 172.462 182.409 172.012 182.859 171.462 182.859 170.902 182.859 170.462 182.409 170.462 181.859zM174.462 181.859C174.462 181.309 174.902 180.859 175.462 180.859 176.012 180.859 176.462 181.309 176.462 181.859 176.462 182.409 176.012 182.859 175.462 182.859 174.902 182.859 174.462 182.409 174.462 181.859zM178.452 181.859C178.452 181.309 178.902 180.859 179.462 180.859 180.012 180.859 180.452 181.309 180.452 181.859 180.452 182.409 180.012 182.859 179.462 182.859 178.902 182.859 178.452 182.409 178.452 181.859zM182.452 181.859C182.452 181.309 182.902 180.859 183.462 180.859 184.012 180.859 184.462 181.309 184.462 181.859 184.462 182.409 184.012 182.859 183.462 182.859 182.902 182.859 182.452 182.409 182.452 181.859zM186.462 181.859C186.462 181.309 186.902 180.859 187.452 180.859 188.012 180.859 188.462 181.309 188.462 181.859 188.462 182.409 188.012 182.859 187.452 182.859 186.902 182.859 186.462 182.409 186.462 181.859zM147.462 182.859C147.192 182.859 146.942 182.759 146.752 182.569 146.562 182.379 146.462 182.129 146.462 181.859 146.462 181.729 146.482 181.599 146.542 181.479 146.592 181.359 146.662 181.249 146.752 181.148 146.982 180.919 147.332 180.819 147.662 180.879 147.722 180.889 147.782 180.909 147.842 180.938 147.972 180.989 148.072 181.059 148.172 181.148 148.262 181.249 148.332 181.359 148.382 181.479 148.432 181.599 148.462 181.729 148.462 181.859 148.462 182.129 148.362 182.379 148.172 182.569 147.982 182.759 147.732 182.859 147.462 182.859M219.686 81.961L216.164 81.961C215.649 81.961 215.218 81.57 215.168 81.059 215.128 80.651 215.052 80.247 214.94 79.854 214.271 77.494 212.377 75.653 209.997 75.05 209.608 74.95 209.315 74.628 209.254 74.23 208.771 71.06 206.088 68.729 202.875 68.69 199.246 68.734 196.351 71.665 196.351 75.225 196.351 75.57 196.379 75.923 196.436 76.272 196.481 76.556 196.403 76.845 196.22 77.066 196.038 77.288 195.77 77.42 195.482 77.43 193.471 77.499 191.807 79.06 191.61 81.059 191.56 81.57 191.129 81.961 190.615 81.961L186.996 81.961C186.443 81.961 185.996 81.514 185.996 80.961 185.996 80.408 186.443 79.961 186.996 79.961L189.778 79.961C190.345 77.753 192.134 76.04 194.358 75.561 194.354 75.449 194.351 75.337 194.351 75.225 194.351 70.576 198.132 66.748 202.78 66.69 202.784 66.69 202.884 66.69 202.888 66.69 206.877 66.739 210.234 69.479 211.11 73.293 213.885 74.218 216.06 76.473 216.864 79.309 216.925 79.523 216.979 79.741 217.023 79.961L219.686 79.961C220.238 79.961 220.686 80.408 220.686 80.961 220.686 81.514 220.238 81.961 219.686 81.961M186.666 68.953L183.144 68.953C182.629 68.953 182.199 68.562 182.149 68.051 182.109 67.644 182.032 67.239 181.921 66.847 181.251 64.486 179.357 62.646 176.977 62.042 176.588 61.942 176.295 61.62 176.234 61.223 175.751 58.052 173.069 55.722 169.856 55.683 166.227 55.727 163.331 58.657 163.331 62.217 163.331 62.562 163.359 62.915 163.416 63.265 163.461 63.548 163.383 63.837 163.2 64.059 163.018 64.28 162.75 64.412 162.462 64.422 160.451 64.491 158.787 66.051 158.59 68.051 158.54 68.562 158.11 68.953 157.595 68.953L153.976 68.953C153.423 68.953 152.976 68.506 152.976 67.953 152.976 67.4 153.423 66.953 153.976 66.953L156.759 66.953C157.325 64.745 159.114 63.032 161.338 62.554 161.333 62.441 161.331 62.329 161.331 62.217 161.331 57.568 165.112 53.74 169.761 53.683 169.765 53.683 169.864 53.683 169.868 53.683 173.858 53.731 177.214 56.471 178.09 60.285 180.865 61.21 183.04 63.465 183.845 66.3 183.906 66.516 183.959 66.733 184.003 66.953L186.666 66.953C187.218 66.953 187.666 67.4 187.666 67.953 187.666 68.506 187.218 68.953 186.666 68.953M96.612 78.959L93.09 78.959C92.575 78.959 92.145 78.568 92.095 78.057 92.055 77.649 91.978 77.245 91.867 76.853 91.197 74.492 89.303 72.651 86.923 72.048 86.534 71.948 86.241 71.626 86.181 71.229 85.698 68.059 83.015 65.729 79.801 65.688 76.172 65.733 73.277 68.664 73.277 72.223 73.277 72.571 73.306 72.923 73.362 73.27 73.408 73.553 73.329 73.842 73.147 74.063 72.965 74.285 72.696 74.418 72.409 74.428 70.397 74.497 68.733 76.058 68.536 78.057 68.486 78.568 68.055 78.959 67.541 78.959L63.922 78.959C63.37 78.959 62.922 78.512 62.922 77.959 62.922 77.406 63.37 76.959 63.922 76.959L66.705 76.959C67.271 74.751 69.061 73.038 71.284 72.56 71.28 72.447 71.277 72.335 71.277 72.223 71.277 67.575 75.059 63.747 79.706 63.688 79.71 63.688 79.81 63.688 79.814 63.688 83.804 63.738 87.161 66.477 88.037 70.291 90.811 71.216 92.986 73.471 93.79 76.307 93.852 76.521 93.905 76.739 93.949 76.959L96.612 76.959C97.164 76.959 97.612 77.406 97.612 77.959 97.612 78.512 97.164 78.959 96.612 78.959"/>
    <path fill="#42494E" d="M74.078 67.952C73.569 67.952 73.134 67.566 73.084 67.05 73.044 66.643 72.967 66.238 72.855 65.846 72.186 63.485 70.291 61.645 67.912 61.041 67.523 60.941 67.229 60.619 67.169 60.222 66.686 57.052 64.003 54.722 60.791 54.683 57.161 54.727 54.266 57.657 54.266 61.216 54.266 61.561 54.294 61.914 54.35 62.265 54.395 62.548 54.317 62.837 54.135 63.059 53.952 63.28 53.684 63.412 53.396 63.422 51.386 63.49 49.721 65.05 49.525 67.05 49.475 67.561 49.044 67.952 48.53 67.952L44.91 67.952C44.358 67.952 43.91 67.505 43.91 66.952 43.91 66.399 44.358 65.952 44.91 65.952L47.693 65.952C48.26 63.743 50.049 62.031 52.272 61.554 52.268 61.44 52.266 61.328 52.266 61.216 52.266 56.568 56.047 52.74 60.695 52.683 60.699 52.683 60.799 52.683 60.803 52.683 64.792 52.731 68.149 55.47 69.025 59.284 71.799 60.209 73.975 62.464 74.779 65.299 74.923 65.806 75.022 66.329 75.074 66.854 75.127 67.404 74.726 67.894 74.176 67.947 74.143 67.95 74.11 67.952 74.078 67.952M34.314 100.813C32.66 100.813 31.314 102.158 31.314 103.813 31.314 105.467 32.66 106.813 34.314 106.813L77.485 106.813 83.99 103.813 77.485 100.813 34.314 100.813zM77.923 108.813L34.314 108.813C31.558 108.813 29.314 106.569 29.314 103.813 29.314 101.056 31.558 98.812 34.314 98.812L77.923 98.813 88.767 103.813 77.923 108.813z"/>
    <polygon fill="#42494E" points="39.924 107.41 41.924 107.41 41.924 99.812 39.924 99.812"/>
    <polygon fill="#42494E" points="40.924 104.842 76.935 104.842 76.935 102.842 40.924 102.842"/>
    <path fill="#42494E" d="M32.742 212.169C32.742 211.609 33.182 211.169 33.742 211.169 34.292 211.169 34.742 211.609 34.742 212.169 34.742 212.719 34.292 213.169 33.742 213.169 33.182 213.169 32.742 212.719 32.742 212.169zM36.732 212.169C36.732 211.609 37.182 211.169 37.732 211.169 38.292 211.169 38.732 211.609 38.732 212.169 38.732 212.719 38.292 213.169 37.732 213.169 37.182 213.169 36.732 212.719 36.732 212.169zM40.742 212.169C40.742 211.609 41.182 211.169 41.742 211.169 42.292 211.169 42.732 211.609 42.732 212.169 42.732 212.719 42.292 213.169 41.742 213.169 41.182 213.169 40.742 212.719 40.742 212.169zM44.732 212.169C44.732 211.609 45.182 211.169 45.732 211.169 46.292 211.169 46.732 211.609 46.732 212.169 46.732 212.719 46.292 213.169 45.732 213.169 45.182 213.169 44.732 212.719 44.732 212.169zM48.742 212.169C48.742 211.609 49.182 211.169 49.742 211.169 50.292 211.169 50.732 211.609 50.732 212.169 50.732 212.719 50.292 213.169 49.742 213.169 49.182 213.169 48.742 212.719 48.742 212.169zM52.732 212.169C52.732 211.609 53.182 211.169 53.732 211.169 54.292 211.169 54.732 211.609 54.732 212.169 54.732 212.719 54.292 213.169 53.732 213.169 53.182 213.169 52.732 212.719 52.732 212.169zM56.742 212.169C56.742 211.609 57.182 211.169 57.742 211.169 58.292 211.169 58.732 211.609 58.732 212.169 58.732 212.719 58.292 213.169 57.742 213.169 57.182 213.169 56.742 212.719 56.742 212.169zM60.732 212.169C60.732 211.609 61.182 211.169 61.732 211.169 62.292 211.169 62.732 211.609 62.732 212.169 62.732 212.719 62.292 213.169 61.732 213.169 61.182 213.169 60.732 212.719 60.732 212.169zM64.742 212.169C64.742 211.609 65.182 211.169 65.732 211.169 66.292 211.169 66.732 211.609 66.732 212.169 66.732 212.719 66.292 213.169 65.732 213.169 65.182 213.169 64.742 212.719 64.742 212.169zM68.732 212.169C68.732 211.609 69.182 211.169 69.732 211.169 70.292 211.169 70.732 211.609 70.732 212.169 70.732 212.719 70.292 213.169 69.732 213.169 69.182 213.169 68.732 212.719 68.732 212.169zM72.742 212.169C72.742 211.609 73.182 211.169 73.732 211.169 74.292 211.169 74.732 211.609 74.732 212.169 74.732 212.719 74.292 213.169 73.732 213.169 73.182 213.169 72.742 212.719 72.742 212.169zM76.732 212.169C76.732 211.609 77.182 211.169 77.732 211.169 78.292 211.169 78.732 211.609 78.732 212.169 78.732 212.719 78.292 213.169 77.732 213.169 77.182 213.169 76.732 212.719 76.732 212.169zM80.742 212.169C80.742 211.609 81.182 211.169 81.732 211.169 82.292 211.169 82.732 211.609 82.732 212.169 82.732 212.719 82.292 213.169 81.732 213.169 81.182 213.169 80.742 212.719 80.742 212.169zM84.732 212.169C84.732 211.609 85.182 211.169 85.732 211.169 86.292 211.169 86.732 211.609 86.732 212.169 86.732 212.719 86.292 213.169 85.732 213.169 85.182 213.169 84.732 212.719 84.732 212.169zM88.742 212.169C88.742 211.609 89.182 211.169 89.732 211.169 90.292 211.169 90.732 211.609 90.732 212.169 90.732 212.719 90.292 213.169 89.732 213.169 89.182 213.169 88.742 212.719 88.742 212.169zM92.732 212.169C92.732 211.609 93.182 211.169 93.732 211.169 94.292 211.169 94.732 211.609 94.732 212.169 94.732 212.719 94.292 213.169 93.732 213.169 93.182 213.169 92.732 212.719 92.732 212.169zM96.742 212.169C96.742 211.609 97.182 211.169 97.732 211.169 98.292 211.169 98.732 211.609 98.732 212.169 98.732 212.719 98.292 213.169 97.732 213.169 97.182 213.169 96.742 212.719 96.742 212.169zM100.732 212.169C100.732 211.609 101.182 211.169 101.732 211.169 102.292 211.169 102.732 211.609 102.732 212.169 102.732 212.719 102.292 213.169 101.732 213.169 101.182 213.169 100.732 212.719 100.732 212.169zM104.742 212.169C104.742 211.609 105.182 211.169 105.732 211.169 106.292 211.169 106.732 211.609 106.732 212.169 106.732 212.719 106.292 213.169 105.732 213.169 105.182 213.169 104.742 212.719 104.742 212.169zM108.732 212.169C108.732 211.609 109.182 211.169 109.732 211.169 110.292 211.169 110.732 211.609 110.732 212.169 110.732 212.719 110.292 213.169 109.732 213.169 109.182 213.169 108.732 212.719 108.732 212.169zM112.742 212.169C112.742 211.609 113.182 211.169 113.732 211.169 114.292 211.169 114.732 211.609 114.732 212.169 114.732 212.719 114.292 213.169 113.732 213.169 113.182 213.169 112.742 212.719 112.742 212.169zM116.732 212.169C116.732 211.609 117.182 211.169 117.732 211.169 118.292 211.169 118.732 211.609 118.732 212.169 118.732 212.719 118.292 213.169 117.732 213.169 117.182 213.169 116.732 212.719 116.732 212.169zM120.742 212.169C120.742 211.609 121.182 211.169 121.732 211.169 122.292 211.169 122.732 211.609 122.732 212.169 122.732 212.719 122.292 213.169 121.732 213.169 121.182 213.169 120.742 212.719 120.742 212.169zM124.732 212.169C124.732 211.609 125.182 211.169 125.732 211.169 126.292 211.169 126.742 211.609 126.742 212.169 126.742 212.719 126.292 213.169 125.732 213.169 125.182 213.169 124.732 212.719 124.732 212.169zM128.742 212.169C128.742 211.609 129.182 211.169 129.732 211.169 130.292 211.169 130.732 211.609 130.732 212.169 130.732 212.719 130.292 213.169 129.732 213.169 129.182 213.169 128.742 212.719 128.742 212.169zM132.732 212.169C132.732 211.609 133.182 211.169 133.732 211.169 134.292 211.169 134.742 211.609 134.742 212.169 134.742 212.719 134.292 213.169 133.732 213.169 133.182 213.169 132.732 212.719 132.732 212.169zM136.732 212.169C136.732 211.609 137.182 211.169 137.732 211.169 138.292 211.169 138.732 211.609 138.732 212.169 138.732 212.719 138.292 213.169 137.732 213.169 137.182 213.169 136.732 212.719 136.732 212.169zM140.732 212.169C140.732 211.609 141.182 211.169 141.732 211.169 142.292 211.169 142.742 211.609 142.742 212.169 142.742 212.719 142.292 213.169 141.732 213.169 141.182 213.169 140.732 212.719 140.732 212.169zM144.732 212.169C144.732 211.609 145.182 211.169 145.732 211.169 146.292 211.169 146.732 211.609 146.732 212.169 146.732 212.719 146.292 213.169 145.732 213.169 145.182 213.169 144.732 212.719 144.732 212.169zM148.732 212.169C148.732 211.609 149.182 211.169 149.732 211.169 150.292 211.169 150.742 211.609 150.742 212.169 150.742 212.719 150.292 213.169 149.732 213.169 149.182 213.169 148.732 212.719 148.732 212.169zM152.732 212.169C152.732 211.609 153.182 211.169 153.732 211.169 154.292 211.169 154.732 211.609 154.732 212.169 154.732 212.719 154.292 213.169 153.732 213.169 153.182 213.169 152.732 212.719 152.732 212.169zM156.732 212.169C156.732 211.609 157.182 211.169 157.732 211.169 158.292 211.169 158.742 211.609 158.742 212.169 158.742 212.719 158.292 213.169 157.732 213.169 157.182 213.169 156.732 212.719 156.732 212.169zM160.732 212.169C160.732 211.609 161.182 211.169 161.732 211.169 162.292 211.169 162.732 211.609 162.732 212.169 162.732 212.719 162.292 213.169 161.732 213.169 161.182 213.169 160.732 212.719 160.732 212.169zM164.732 212.169C164.732 211.609 165.182 211.169 165.732 211.169 166.292 211.169 166.742 211.609 166.742 212.169 166.742 212.719 166.292 213.169 165.732 213.169 165.182 213.169 164.732 212.719 164.732 212.169zM168.732 212.169C168.732 211.609 169.182 211.169 169.732 211.169 170.292 211.169 170.732 211.609 170.732 212.169 170.732 212.719 170.292 213.169 169.732 213.169 169.182 213.169 168.732 212.719 168.732 212.169zM172.732 212.169C172.732 211.609 173.182 211.169 173.732 211.169 174.292 211.169 174.742 211.609 174.742 212.169 174.742 212.719 174.292 213.169 173.732 213.169 173.182 213.169 172.732 212.719 172.732 212.169zM176.732 212.169C176.732 211.609 177.182 211.169 177.732 211.169 178.292 211.169 178.732 211.609 178.732 212.169 178.732 212.719 178.292 213.169 177.732 213.169 177.182 213.169 176.732 212.719 176.732 212.169zM180.732 212.169C180.732 211.609 181.182 211.169 181.732 211.169 182.292 211.169 182.742 211.609 182.742 212.169 182.742 212.719 182.292 213.169 181.732 213.169 181.182 213.169 180.732 212.719 180.732 212.169zM184.732 212.169C184.732 211.609 185.182 211.169 185.732 211.169 186.292 211.169 186.732 211.609 186.732 212.169 186.732 212.719 186.292 213.169 185.732 213.169 185.182 213.169 184.732 212.719 184.732 212.169zM188.732 212.169C188.732 211.609 189.182 211.169 189.742 211.169 190.292 211.169 190.742 211.609 190.742 212.169 190.742 212.719 190.292 213.169 189.742 213.169 189.182 213.169 188.732 212.719 188.732 212.169zM192.732 212.169C192.732 211.609 193.182 211.169 193.732 211.169 194.292 211.169 194.732 211.609 194.732 212.169 194.732 212.719 194.292 213.169 193.732 213.169 193.182 213.169 192.732 212.719 192.732 212.169zM196.732 212.169C196.732 211.609 197.182 211.169 197.742 211.169 198.292 211.169 198.742 211.609 198.742 212.169 198.742 212.719 198.292 213.169 197.742 213.169 197.182 213.169 196.732 212.719 196.732 212.169zM200.732 212.169C200.732 211.609 201.182 211.169 201.732 211.169 202.292 211.169 202.732 211.609 202.732 212.169 202.732 212.719 202.292 213.169 201.732 213.169 201.182 213.169 200.732 212.719 200.732 212.169zM204.732 212.169C204.732 211.609 205.182 211.169 205.742 211.169 206.292 211.169 206.742 211.609 206.742 212.169 206.742 212.719 206.292 213.169 205.742 213.169 205.182 213.169 204.732 212.719 204.732 212.169zM208.732 212.169C208.732 211.609 209.182 211.169 209.732 211.169 210.292 211.169 210.732 211.609 210.732 212.169 210.732 212.719 210.292 213.169 209.732 213.169 209.182 213.169 208.732 212.719 208.732 212.169zM212.732 212.169C212.732 211.609 213.182 211.169 213.742 211.169 214.292 211.169 214.742 211.609 214.742 212.169 214.742 212.719 214.292 213.169 213.742 213.169 213.182 213.169 212.732 212.719 212.732 212.169zM216.732 212.169C216.732 211.609 217.182 211.169 217.732 211.169 218.292 211.169 218.732 211.609 218.732 212.169 218.732 212.719 218.292 213.169 217.732 213.169 217.182 213.169 216.732 212.719 216.732 212.169zM30.732 215.169C30.732 214.619 31.182 214.169 31.732 214.169 32.292 214.169 32.732 214.619 32.732 215.169 32.732 215.719 32.292 216.169 31.732 216.169 31.182 216.169 30.732 215.719 30.732 215.169zM34.732 215.169C34.732 214.619 35.182 214.169 35.732 214.169 36.282 214.169 36.732 214.619 36.732 215.169 36.732 215.719 36.282 216.169 35.732 216.169 35.182 216.169 34.732 215.719 34.732 215.169zM38.732 215.169C38.732 214.619 39.182 214.169 39.732 214.169 40.282 214.169 40.732 214.619 40.732 215.169 40.732 215.719 40.282 216.169 39.732 216.169 39.182 216.169 38.732 215.719 38.732 215.169zM42.732 215.169C42.732 214.619 43.182 214.169 43.732 214.169 44.292 214.169 44.732 214.619 44.732 215.169 44.732 215.719 44.292 216.169 43.732 216.169 43.182 216.169 42.732 215.719 42.732 215.169zM46.732 215.169C46.732 214.619 47.182 214.169 47.732 214.169 48.292 214.169 48.732 214.619 48.732 215.169 48.732 215.719 48.292 216.169 47.732 216.169 47.182 216.169 46.732 215.719 46.732 215.169zM50.732 215.169C50.732 214.619 51.182 214.169 51.732 214.169 52.292 214.169 52.732 214.619 52.732 215.169 52.732 215.719 52.292 216.169 51.732 216.169 51.182 216.169 50.732 215.719 50.732 215.169zM54.732 215.169C54.732 214.619 55.182 214.169 55.732 214.169 56.292 214.169 56.732 214.619 56.732 215.169 56.732 215.719 56.292 216.169 55.732 216.169 55.182 216.169 54.732 215.719 54.732 215.169zM58.732 215.169C58.732 214.619 59.182 214.169 59.732 214.169 60.282 214.169 60.732 214.619 60.732 215.169 60.732 215.719 60.282 216.169 59.732 216.169 59.182 216.169 58.732 215.719 58.732 215.169zM62.732 215.169C62.732 214.619 63.182 214.169 63.732 214.169 64.292 214.169 64.732 214.619 64.732 215.169 64.732 215.719 64.292 216.169 63.732 216.169 63.182 216.169 62.732 215.719 62.732 215.169zM66.732 215.169C66.732 214.619 67.182 214.169 67.732 214.169 68.292 214.169 68.732 214.619 68.732 215.169 68.732 215.719 68.292 216.169 67.732 216.169 67.182 216.169 66.732 215.719 66.732 215.169zM70.732 215.169C70.732 214.619 71.182 214.169 71.732 214.169 72.292 214.169 72.732 214.619 72.732 215.169 72.732 215.719 72.292 216.169 71.732 216.169 71.182 216.169 70.732 215.719 70.732 215.169zM74.732 215.169C74.732 214.619 75.182 214.169 75.732 214.169 76.292 214.169 76.732 214.619 76.732 215.169 76.732 215.719 76.292 216.169 75.732 216.169 75.182 216.169 74.732 215.719 74.732 215.169zM78.732 215.169C78.732 214.619 79.182 214.169 79.732 214.169 80.282 214.169 80.732 214.619 80.732 215.169 80.732 215.719 80.282 216.169 79.732 216.169 79.182 216.169 78.732 215.719 78.732 215.169zM82.732 215.169C82.732 214.619 83.182 214.169 83.732 214.169 84.282 214.169 84.732 214.619 84.732 215.169 84.732 215.719 84.282 216.169 83.732 216.169 83.182 216.169 82.732 215.719 82.732 215.169zM86.732 215.169C86.732 214.619 87.182 214.169 87.732 214.169 88.292 214.169 88.732 214.619 88.732 215.169 88.732 215.719 88.292 216.169 87.732 216.169 87.182 216.169 86.732 215.719 86.732 215.169zM90.732 215.169C90.732 214.619 91.182 214.169 91.732 214.169 92.292 214.169 92.732 214.619 92.732 215.169 92.732 215.719 92.292 216.169 91.732 216.169 91.182 216.169 90.732 215.719 90.732 215.169zM94.732 215.169C94.732 214.619 95.182 214.169 95.732 214.169 96.292 214.169 96.732 214.619 96.732 215.169 96.732 215.719 96.292 216.169 95.732 216.169 95.182 216.169 94.732 215.719 94.732 215.169zM98.732 215.169C98.732 214.619 99.182 214.169 99.732 214.169 100.292 214.169 100.732 214.619 100.732 215.169 100.732 215.719 100.292 216.169 99.732 216.169 99.182 216.169 98.732 215.719 98.732 215.169zM102.732 215.169C102.732 214.619 103.182 214.169 103.732 214.169 104.282 214.169 104.732 214.619 104.732 215.169 104.732 215.719 104.282 216.169 103.732 216.169 103.182 216.169 102.732 215.719 102.732 215.169zM106.732 215.169C106.732 214.619 107.182 214.169 107.732 214.169 108.292 214.169 108.732 214.619 108.732 215.169 108.732 215.719 108.292 216.169 107.732 216.169 107.182 216.169 106.732 215.719 106.732 215.169zM110.732 215.169C110.732 214.619 111.182 214.169 111.732 214.169 112.292 214.169 112.732 214.619 112.732 215.169 112.732 215.719 112.292 216.169 111.732 216.169 111.182 216.169 110.732 215.719 110.732 215.169zM114.732 215.169C114.732 214.619 115.182 214.169 115.732 214.169 116.292 214.169 116.732 214.619 116.732 215.169 116.732 215.719 116.292 216.169 115.732 216.169 115.182 216.169 114.732 215.719 114.732 215.169zM118.732 215.169C118.732 214.619 119.182 214.169 119.732 214.169 120.292 214.169 120.732 214.619 120.732 215.169 120.732 215.719 120.292 216.169 119.732 216.169 119.182 216.169 118.732 215.719 118.732 215.169zM122.732 215.169C122.732 214.619 123.182 214.169 123.732 214.169 124.282 214.169 124.732 214.619 124.732 215.169 124.732 215.719 124.282 216.169 123.732 216.169 123.182 216.169 122.732 215.719 122.732 215.169zM126.732 215.169C126.732 214.619 127.182 214.169 127.732 214.169 128.282 214.169 128.732 214.619 128.732 215.169 128.732 215.719 128.282 216.169 127.732 216.169 127.182 216.169 126.732 215.719 126.732 215.169zM130.732 215.169C130.732 214.619 131.182 214.169 131.732 214.169 132.292 214.169 132.732 214.619 132.732 215.169 132.732 215.719 132.292 216.169 131.732 216.169 131.182 216.169 130.732 215.719 130.732 215.169zM134.732 215.169C134.732 214.619 135.182 214.169 135.732 214.169 136.292 214.169 136.732 214.619 136.732 215.169 136.732 215.719 136.292 216.169 135.732 216.169 135.182 216.169 134.732 215.719 134.732 215.169zM138.732 215.169C138.732 214.619 139.182 214.169 139.732 214.169 140.292 214.169 140.732 214.619 140.732 215.169 140.732 215.719 140.292 216.169 139.732 216.169 139.182 216.169 138.732 215.719 138.732 215.169zM142.732 215.169C142.732 214.619 143.182 214.169 143.732 214.169 144.292 214.169 144.732 214.619 144.732 215.169 144.732 215.719 144.292 216.169 143.732 216.169 143.182 216.169 142.732 215.719 142.732 215.169zM146.732 215.169C146.732 214.619 147.182 214.169 147.732 214.169 148.282 214.169 148.732 214.619 148.732 215.169 148.732 215.719 148.282 216.169 147.732 216.169 147.182 216.169 146.732 215.719 146.732 215.169zM150.732 215.169C150.732 214.619 151.182 214.169 151.732 214.169 152.292 214.169 152.732 214.619 152.732 215.169 152.732 215.719 152.292 216.169 151.732 216.169 151.182 216.169 150.732 215.719 150.732 215.169zM154.732 215.169C154.732 214.619 155.182 214.169 155.732 214.169 156.292 214.169 156.732 214.619 156.732 215.169 156.732 215.719 156.292 216.169 155.732 216.169 155.182 216.169 154.732 215.719 154.732 215.169zM158.732 215.169C158.732 214.619 159.182 214.169 159.732 214.169 160.292 214.169 160.732 214.619 160.732 215.169 160.732 215.719 160.292 216.169 159.732 216.169 159.182 216.169 158.732 215.719 158.732 215.169zM162.732 215.169C162.732 214.619 163.182 214.169 163.732 214.169 164.292 214.169 164.732 214.619 164.732 215.169 164.732 215.719 164.292 216.169 163.732 216.169 163.182 216.169 162.732 215.719 162.732 215.169zM166.732 215.169C166.732 214.619 167.182 214.169 167.732 214.169 168.282 214.169 168.732 214.619 168.732 215.169 168.732 215.719 168.282 216.169 167.732 216.169 167.182 216.169 166.732 215.719 166.732 215.169zM170.732 215.169C170.732 214.619 171.182 214.169 171.732 214.169 172.282 214.169 172.732 214.619 172.732 215.169 172.732 215.719 172.282 216.169 171.732 216.169 171.182 216.169 170.732 215.719 170.732 215.169zM174.732 215.169C174.732 214.619 175.182 214.169 175.732 214.169 176.292 214.169 176.732 214.619 176.732 215.169 176.732 215.719 176.292 216.169 175.732 216.169 175.182 216.169 174.732 215.719 174.732 215.169zM178.732 215.169C178.732 214.619 179.182 214.169 179.732 214.169 180.292 214.169 180.732 214.619 180.732 215.169 180.732 215.719 180.292 216.169 179.732 216.169 179.182 216.169 178.732 215.719 178.732 215.169zM182.732 215.169C182.732 214.619 183.182 214.169 183.732 214.169 184.292 214.169 184.732 214.619 184.732 215.169 184.732 215.719 184.292 216.169 183.732 216.169 183.182 216.169 182.732 215.719 182.732 215.169zM186.732 215.169C186.732 214.619 187.182 214.169 187.732 214.169 188.292 214.169 188.732 214.619 188.732 215.169 188.732 215.719 188.292 216.169 187.732 216.169 187.182 216.169 186.732 215.719 186.732 215.169zM190.732 215.169C190.732 214.619 191.182 214.169 191.732 214.169 192.282 214.169 192.732 214.619 192.732 215.169 192.732 215.719 192.282 216.169 191.732 216.169 191.182 216.169 190.732 215.719 190.732 215.169zM194.732 215.169C194.732 214.619 195.182 214.169 195.732 214.169 196.292 214.169 196.732 214.619 196.732 215.169 196.732 215.719 196.292 216.169 195.732 216.169 195.182 216.169 194.732 215.719 194.732 215.169zM198.732 215.169C198.732 214.619 199.182 214.169 199.732 214.169 200.292 214.169 200.732 214.619 200.732 215.169 200.732 215.719 200.292 216.169 199.732 216.169 199.182 216.169 198.732 215.719 198.732 215.169zM202.732 215.169C202.732 214.619 203.182 214.169 203.732 214.169 204.292 214.169 204.732 214.619 204.732 215.169 204.732 215.719 204.292 216.169 203.732 216.169 203.182 216.169 202.732 215.719 202.732 215.169zM206.732 215.169C206.732 214.619 207.182 214.169 207.732 214.169 208.292 214.169 208.732 214.619 208.732 215.169 208.732 215.719 208.292 216.169 207.732 216.169 207.182 216.169 206.732 215.719 206.732 215.169zM210.732 215.169C210.732 214.619 211.182 214.169 211.732 214.169 212.282 214.169 212.732 214.619 212.732 215.169 212.732 215.719 212.282 216.169 211.732 216.169 211.182 216.169 210.732 215.719 210.732 215.169zM214.732 215.169C214.732 214.619 215.182 214.169 215.732 214.169 216.282 214.169 216.732 214.619 216.732 215.169 216.732 215.719 216.282 216.169 215.732 216.169 215.182 216.169 214.732 215.719 214.732 215.169z"/>
  </g>
</svg>
