<svg xmlns="http://www.w3.org/2000/svg" width="250" height="250" viewBox="0 0 250 250">
  <g fill="none" fill-rule="evenodd">
    <path fill="#42494E" d="M103.654 145.398C109.789 151.534 115.939 157.249 122.001 162.491 122.527 162.051 123.058 161.599 123.587 161.15 117.424 155.865 111.205 150.121 105.068 143.984 86.052 124.969 70.331 104.952 60.8 87.624 51.594 70.886 49.251 58.349 54.373 53.228L52.959 51.814C47.077 57.694 49.239 70.755 59.047 88.588 68.666 106.077 84.508 126.253 103.654 145.398M186.669 197.302C173.704 196.517 151.647 184.329 128.243 165.056 127.708 165.512 127.174 165.97 126.64 166.42 150.974 186.648 173.412 198.861 187.079 199.328 186.881 198.676 186.74 198 186.669 197.302"/>
    <path fill="#E9886C" d="M147.098,123.955 C147.098,136.105 137.249,145.955 125.098,145.955 C112.948,145.955 103.098,136.105 103.098,123.955 C103.098,111.805 112.948,101.955 125.098,101.955 C137.249,101.955 147.098,111.805 147.098,123.955"/>
    <path fill="#42494E" d="M59.92,49.665 C59.89,49.115 60.3,48.635 60.85,48.595 C60.85,48.595 60.85,48.595 60.85,48.604 C61.4,48.564 61.88,48.975 61.92,49.524 C61.96,50.075 61.54,50.555 60.99,50.595 C60.97,50.595 60.95,50.595 60.93,50.595 C60.4,50.595 59.96,50.195 59.92,49.665 Z M56.081,50.745 C55.89,50.235 56.15,49.655 56.67,49.465 C57.18,49.265 57.76,49.524 57.96,50.045 C58.15,50.564 57.89,51.145 57.37,51.335 C57.26,51.375 57.14,51.395 57.02,51.395 C56.61,51.395 56.23,51.155 56.081,50.745 Z M52.96,53.225 C52.57,52.835 52.57,52.205 52.96,51.814 C53.35,51.425 53.98,51.425 54.37,51.814 C54.76,52.205 54.76,52.835 54.37,53.225 C54.18,53.425 53.92,53.515 53.67,53.515 C53.41,53.515 53.15,53.425 52.96,53.225 Z M83.38,56.854 C82.88,56.604 82.67,56.015 82.92,55.515 C83.16,55.015 83.76,54.814 84.251,55.055 C84.751,55.295 84.96,55.895 84.71,56.395 C84.54,56.745 84.18,56.955 83.811,56.955 C83.67,56.955 83.521,56.915 83.38,56.854 Z M86.91,58.655 C86.42,58.395 86.24,57.785 86.501,57.295 C86.751,56.814 87.36,56.625 87.85,56.885 C88.331,57.145 88.52,57.745 88.27,58.235 C88.081,58.575 87.74,58.765 87.38,58.765 C87.22,58.765 87.061,58.725 86.91,58.655 Z M90.4,60.564 L90.39,60.564 C89.91,60.285 89.751,59.675 90.02,59.195 C90.29,58.715 90.9,58.545 91.38,58.825 C91.86,59.095 92.03,59.705 91.76,60.185 C91.57,60.505 91.23,60.695 90.89,60.695 C90.72,60.695 90.55,60.645 90.4,60.564 Z M93.831,62.564 C93.35,62.285 93.2,61.665 93.49,61.195 C93.77,60.725 94.38,60.564 94.86,60.854 C95.331,61.135 95.49,61.755 95.2,62.225 C95.01,62.535 94.68,62.715 94.34,62.715 C94.17,62.715 93.99,62.665 93.831,62.564 Z M97.21,64.655 C96.751,64.354 96.61,63.745 96.9,63.274 C97.2,62.805 97.811,62.675 98.28,62.965 C98.751,63.255 98.89,63.875 98.59,64.345 C98.4,64.645 98.081,64.814 97.751,64.814 C97.561,64.814 97.38,64.765 97.21,64.655 Z M100.55,66.814 C100.09,66.515 99.97,65.895 100.271,65.435 C100.581,64.975 101.2,64.845 101.66,65.155 C102.12,65.455 102.25,66.075 101.94,66.535 C101.75,66.825 101.43,66.985 101.11,66.985 C100.92,66.985 100.73,66.935 100.55,66.814 Z M103.86,69.045 C103.4,68.735 103.291,68.115 103.6,67.655 C103.91,67.205 104.53,67.085 104.99,67.395 C104.99,67.395 104.99,67.395 104.99,67.405 C105.45,67.715 105.561,68.335 105.25,68.795 C105.05,69.075 104.74,69.225 104.42,69.225 C104.23,69.225 104.03,69.165 103.86,69.045 Z M107.12,71.335 C106.67,71.015 106.561,70.395 106.88,69.945 C107.2,69.495 107.831,69.385 108.28,69.715 C108.73,70.035 108.831,70.655 108.51,71.104 C108.32,71.375 108.01,71.524 107.7,71.524 C107.5,71.524 107.291,71.465 107.12,71.335 Z M110.34,73.685 C109.89,73.354 109.8,72.725 110.13,72.285 C110.46,71.835 111.081,71.745 111.53,72.075 C111.97,72.405 112.061,73.024 111.74,73.475 C111.541,73.735 111.24,73.875 110.93,73.875 C110.72,73.875 110.521,73.814 110.34,73.685 Z M113.521,76.075 C113.081,75.745 113,75.115 113.34,74.675 C113.67,74.235 114.3,74.155 114.74,74.485 C115.18,74.825 115.26,75.455 114.93,75.895 C114.73,76.145 114.43,76.285 114.13,76.285 C113.92,76.285 113.7,76.215 113.521,76.075 Z M116.67,78.524 C116.24,78.175 116.16,77.555 116.51,77.115 C116.85,76.685 117.48,76.604 117.91,76.955 C118.34,77.295 118.42,77.925 118.081,78.354 C117.88,78.604 117.581,78.735 117.291,78.735 C117.07,78.735 116.85,78.665 116.67,78.524 Z M119.791,81.015 C119.36,80.665 119.291,80.035 119.64,79.604 C119.99,79.175 120.62,79.104 121.05,79.455 C121.47,79.805 121.541,80.435 121.19,80.865 C120.99,81.104 120.71,81.235 120.41,81.235 C120.19,81.235 119.97,81.165 119.791,81.015 Z M128.93,88.725 C128.51,88.365 128.47,87.735 128.84,87.314 C129.2,86.905 129.831,86.854 130.25,87.225 C130.66,87.595 130.7,88.225 130.34,88.635 C130.14,88.854 129.86,88.975 129.581,88.975 C129.35,88.975 129.12,88.895 128.93,88.725 Z M131.91,91.375 C131.5,91.005 131.47,90.375 131.84,89.965 C132.21,89.555 132.84,89.515 133.25,89.885 C133.66,90.255 133.69,90.895 133.32,91.305 C133.13,91.524 132.85,91.635 132.581,91.635 C132.34,91.635 132.1,91.545 131.91,91.375 Z M134.86,94.064 C134.45,93.685 134.43,93.055 134.8,92.645 C135.18,92.245 135.811,92.215 136.21,92.595 C136.62,92.965 136.65,93.595 136.271,94.005 C136.081,94.215 135.811,94.325 135.541,94.325 C135.291,94.325 135.05,94.235 134.86,94.064 Z M137.78,96.785 C137.38,96.405 137.36,95.765 137.74,95.365 C138.12,94.965 138.75,94.945 139.15,95.325 C139.55,95.705 139.57,96.335 139.19,96.735 C138.99,96.945 138.73,97.055 138.46,97.055 C138.22,97.055 137.97,96.965 137.78,96.785 Z M140.66,99.535 C140.271,99.155 140.26,98.515 140.64,98.125 C141.021,97.725 141.66,97.715 142.05,98.095 C142.45,98.475 142.46,99.115 142.081,99.515 C141.88,99.715 141.62,99.814 141.36,99.814 C141.11,99.814 140.86,99.725 140.66,99.535 Z M143.521,102.314 L143.521,102.325 C143.13,101.935 143.12,101.305 143.51,100.905 C143.9,100.515 144.53,100.505 144.93,100.895 C145.32,101.285 145.32,101.915 144.93,102.314 C144.74,102.515 144.48,102.604 144.22,102.604 C143.97,102.604 143.71,102.515 143.521,102.314 Z M146.34,105.145 C145.95,104.745 145.96,104.115 146.35,103.725 C146.74,103.335 147.37,103.335 147.76,103.735 C148.15,104.125 148.15,104.755 147.76,105.145 C147.561,105.335 147.311,105.435 147.05,105.435 C146.791,105.435 146.541,105.335 146.34,105.145 Z M149.13,107.985 C148.75,107.595 148.76,106.965 149.16,106.575 C149.55,106.195 150.19,106.205 150.57,106.604 C150.95,106.995 150.94,107.625 150.55,108.015 C150.35,108.205 150.1,108.295 149.85,108.295 C149.59,108.295 149.331,108.195 149.13,107.985 Z M151.89,110.875 C151.51,110.475 151.53,109.835 151.93,109.455 C152.331,109.075 152.96,109.095 153.34,109.495 C153.72,109.895 153.71,110.535 153.311,110.915 C153.11,111.095 152.86,111.185 152.62,111.185 C152.35,111.185 152.09,111.085 151.89,110.875 Z M154.62,113.785 C154.24,113.385 154.271,112.745 154.67,112.375 C155.081,111.995 155.71,112.024 156.09,112.425 C156.46,112.835 156.44,113.465 156.03,113.845 C155.84,114.024 155.59,114.104 155.35,114.104 C155.081,114.104 154.811,114.005 154.62,113.785 Z M157.311,116.735 C156.94,116.325 156.97,115.685 157.38,115.314 C157.791,114.945 158.42,114.985 158.791,115.395 C159.16,115.805 159.13,116.435 158.72,116.805 C158.53,116.975 158.291,117.064 158.05,117.064 C157.771,117.064 157.5,116.955 157.311,116.735 Z M159.96,119.715 L159.96,119.705 C159.6,119.295 159.64,118.665 160.05,118.295 C160.46,117.935 161.1,117.975 161.46,118.385 C161.831,118.805 161.791,119.435 161.37,119.805 C161.18,119.965 160.95,120.045 160.71,120.045 C160.43,120.045 160.16,119.935 159.96,119.715 Z M167.69,128.835 C167.34,128.415 167.41,127.774 167.84,127.435 C168.26,127.085 168.9,127.145 169.25,127.575 C169.25,127.575 169.25,127.575 169.24,127.575 C169.59,128.005 169.53,128.635 169.1,128.985 C168.91,129.135 168.69,129.205 168.47,129.205 C168.18,129.205 167.89,129.085 167.69,128.835 Z M170.19,131.945 C169.85,131.515 169.92,130.885 170.35,130.545 C170.791,130.205 171.42,130.274 171.76,130.705 C172.1,131.135 172.03,131.765 171.6,132.115 C171.41,132.255 171.19,132.325 170.97,132.325 C170.68,132.325 170.39,132.195 170.19,131.945 Z M172.64,135.095 C172.3,134.655 172.38,134.024 172.82,133.685 C173.26,133.354 173.89,133.435 174.23,133.875 C174.561,134.314 174.48,134.935 174.041,135.274 C173.86,135.415 173.65,135.485 173.43,135.485 C173.13,135.485 172.84,135.345 172.64,135.095 Z M175.041,138.274 C174.71,137.825 174.8,137.205 175.25,136.875 C175.69,136.545 176.32,136.635 176.65,137.075 C176.98,137.515 176.89,138.145 176.44,138.475 C176.26,138.604 176.05,138.675 175.85,138.675 C175.541,138.675 175.24,138.535 175.041,138.274 Z M177.4,141.485 C177.07,141.045 177.17,140.415 177.62,140.095 C178.07,139.774 178.7,139.875 179.021,140.325 C179.34,140.765 179.24,141.395 178.791,141.715 C178.61,141.845 178.41,141.905 178.21,141.905 C177.9,141.905 177.59,141.765 177.4,141.485 Z M179.69,144.745 C179.38,144.285 179.49,143.665 179.95,143.354 C180.4,143.035 181.021,143.145 181.34,143.604 C181.65,144.055 181.541,144.685 181.081,144.995 C180.91,145.115 180.71,145.175 180.521,145.175 C180.2,145.175 179.89,145.024 179.69,144.745 Z M181.93,148.035 C181.62,147.575 181.75,146.955 182.21,146.655 C182.67,146.345 183.291,146.475 183.59,146.935 C183.59,146.935 183.59,146.935 183.59,146.925 C183.9,147.385 183.78,148.005 183.32,148.314 C183.15,148.425 182.95,148.485 182.76,148.485 C182.44,148.485 182.12,148.325 181.93,148.035 Z M184.1,151.375 C183.811,150.905 183.94,150.295 184.41,149.995 C184.87,149.695 185.49,149.835 185.791,150.295 C186.09,150.765 185.95,151.385 185.48,151.685 C185.32,151.785 185.13,151.835 184.95,151.835 C184.62,151.835 184.291,151.675 184.1,151.375 Z M186.2,154.755 C185.92,154.274 186.07,153.665 186.541,153.375 C187.01,153.095 187.63,153.245 187.91,153.715 C188.2,154.185 188.05,154.805 187.57,155.095 C187.41,155.185 187.23,155.235 187.061,155.235 C186.72,155.235 186.39,155.064 186.2,154.755 Z M188.22,158.185 L188.22,158.175 C187.94,157.695 188.11,157.085 188.59,156.814 C189.07,156.545 189.68,156.705 189.96,157.185 C190.23,157.665 190.061,158.274 189.581,158.555 C189.43,158.645 189.26,158.685 189.09,158.685 C188.74,158.685 188.4,158.505 188.22,158.185 Z M190.14,161.655 C189.88,161.165 190.07,160.564 190.55,160.305 C191.041,160.045 191.65,160.225 191.91,160.715 C192.17,161.195 191.98,161.805 191.5,162.064 C191.35,162.145 191.19,162.185 191.03,162.185 C190.67,162.185 190.32,161.995 190.14,161.655 Z M191.96,165.185 C191.71,164.685 191.92,164.085 192.41,163.845 C192.91,163.595 193.51,163.805 193.75,164.295 C194,164.795 193.8,165.395 193.3,165.635 C193.16,165.705 193.01,165.745 192.86,165.745 C192.49,165.745 192.14,165.535 191.96,165.185 Z M193.65,168.765 C193.42,168.265 193.65,167.675 194.15,167.445 C194.66,167.225 195.25,167.445 195.47,167.955 C195.7,168.455 195.47,169.045 194.97,169.274 C194.84,169.335 194.7,169.354 194.561,169.354 C194.18,169.354 193.811,169.145 193.65,168.765 Z M195.18,172.415 C194.98,171.895 195.23,171.314 195.75,171.115 C196.26,170.915 196.84,171.165 197.041,171.685 C197.24,172.195 196.99,172.774 196.47,172.975 C196.35,173.024 196.23,173.045 196.11,173.045 C195.71,173.045 195.331,172.805 195.18,172.415 Z M196.51,176.125 C196.34,175.595 196.63,175.035 197.15,174.865 C197.68,174.695 198.24,174.975 198.41,175.505 C198.581,176.024 198.291,176.595 197.771,176.765 C197.67,176.795 197.561,176.814 197.46,176.814 C197.041,176.814 196.65,176.545 196.51,176.125 Z M197.581,179.895 C197.45,179.354 197.78,178.814 198.32,178.685 C198.86,178.555 199.4,178.885 199.53,179.425 C199.66,179.965 199.331,180.505 198.791,180.635 C198.71,180.655 198.63,180.665 198.561,180.665 C198.1,180.665 197.69,180.354 197.581,179.895 Z M198.3,183.715 C198.23,183.165 198.61,182.665 199.16,182.595 C199.71,182.524 200.21,182.915 200.28,183.465 C200.35,184.015 199.96,184.515 199.42,184.585 C199.37,184.585 199.331,184.585 199.291,184.585 C198.791,184.585 198.36,184.225 198.3,183.715 Z"/>
    <path fill="#42494E" d="M59.92 49.665C59.89 49.115 60.3 48.635 60.85 48.595 60.85 48.595 60.85 48.595 60.85 48.604 61.4 48.564 61.88 48.975 61.92 49.524 61.96 50.075 61.54 50.555 60.99 50.595 60.97 50.595 60.95 50.595 60.93 50.595 60.4 50.595 59.96 50.195 59.92 49.665zM56.081 50.745C55.89 50.235 56.15 49.655 56.67 49.465 57.18 49.265 57.76 49.524 57.96 50.045 58.15 50.564 57.89 51.145 57.37 51.335 57.26 51.375 57.14 51.395 57.02 51.395 56.61 51.395 56.23 51.155 56.081 50.745zM52.96 53.225C52.57 52.835 52.57 52.205 52.96 51.814 53.35 51.425 53.98 51.425 54.37 51.814 54.76 52.205 54.76 52.835 54.37 53.225 54.18 53.425 53.92 53.515 53.67 53.515 53.41 53.515 53.15 53.425 52.96 53.225zM86.91 58.655C86.42 58.395 86.24 57.785 86.501 57.295 86.751 56.814 87.36 56.625 87.85 56.885 88.331 57.145 88.52 57.745 88.27 58.235 88.081 58.575 87.74 58.765 87.38 58.765 87.22 58.765 87.061 58.725 86.91 58.655zM90.4 60.564L90.39 60.564C89.91 60.285 89.751 59.675 90.02 59.195 90.29 58.715 90.9 58.545 91.38 58.825 91.86 59.095 92.03 59.705 91.76 60.185 91.57 60.505 91.23 60.695 90.89 60.695 90.72 60.695 90.55 60.645 90.4 60.564zM93.831 62.564C93.35 62.285 93.2 61.665 93.49 61.195 93.77 60.725 94.38 60.564 94.86 60.854 95.331 61.135 95.49 61.755 95.2 62.225 95.01 62.535 94.68 62.715 94.34 62.715 94.17 62.715 93.99 62.665 93.831 62.564zM97.21 64.655C96.751 64.354 96.61 63.745 96.9 63.274 97.2 62.805 97.811 62.675 98.28 62.965 98.751 63.255 98.89 63.875 98.59 64.345 98.4 64.645 98.081 64.814 97.751 64.814 97.561 64.814 97.38 64.765 97.21 64.655zM100.55 66.814C100.09 66.515 99.97 65.895 100.271 65.435 100.581 64.975 101.2 64.845 101.66 65.155 102.12 65.455 102.25 66.075 101.94 66.535 101.75 66.825 101.43 66.985 101.11 66.985 100.92 66.985 100.73 66.935 100.55 66.814zM103.86 69.045C103.4 68.735 103.291 68.115 103.6 67.655 103.91 67.205 104.53 67.085 104.99 67.395 104.99 67.395 104.99 67.395 104.99 67.405 105.45 67.715 105.561 68.335 105.25 68.795 105.05 69.075 104.74 69.225 104.42 69.225 104.23 69.225 104.03 69.165 103.86 69.045zM107.12 71.335C106.67 71.015 106.561 70.395 106.88 69.945 107.2 69.495 107.831 69.385 108.28 69.715 108.73 70.035 108.831 70.655 108.51 71.104 108.32 71.375 108.01 71.524 107.7 71.524 107.5 71.524 107.291 71.465 107.12 71.335zM110.34 73.685C109.89 73.354 109.8 72.725 110.13 72.285 110.46 71.835 111.081 71.745 111.53 72.075 111.97 72.405 112.061 73.024 111.74 73.475 111.541 73.735 111.24 73.875 110.93 73.875 110.72 73.875 110.521 73.814 110.34 73.685zM113.521 76.075C113.081 75.745 113 75.115 113.34 74.675 113.67 74.235 114.3 74.155 114.74 74.485 115.18 74.825 115.26 75.455 114.93 75.895 114.73 76.145 114.43 76.285 114.13 76.285 113.92 76.285 113.7 76.215 113.521 76.075zM116.67 78.524C116.24 78.175 116.16 77.555 116.51 77.115 116.85 76.685 117.48 76.604 117.91 76.955 118.34 77.295 118.42 77.925 118.081 78.354 117.88 78.604 117.581 78.735 117.291 78.735 117.07 78.735 116.85 78.665 116.67 78.524zM119.791 81.015C119.36 80.665 119.291 80.035 119.64 79.604 119.99 79.175 120.62 79.104 121.05 79.455 121.47 79.805 121.541 80.435 121.19 80.865 120.99 81.104 120.71 81.235 120.41 81.235 120.19 81.235 119.97 81.165 119.791 81.015zM128.93 88.725C128.51 88.365 128.47 87.735 128.84 87.314 129.2 86.905 129.831 86.854 130.25 87.225 130.66 87.595 130.7 88.225 130.34 88.635 130.14 88.854 129.86 88.975 129.581 88.975 129.35 88.975 129.12 88.895 128.93 88.725zM134.86 94.064C134.45 93.685 134.43 93.055 134.8 92.645 135.18 92.245 135.811 92.215 136.21 92.595 136.62 92.965 136.65 93.595 136.271 94.005 136.081 94.215 135.811 94.325 135.541 94.325 135.291 94.325 135.05 94.235 134.86 94.064zM137.78 96.785C137.38 96.405 137.36 95.765 137.74 95.365 138.12 94.965 138.75 94.945 139.15 95.325 139.55 95.705 139.57 96.335 139.19 96.735 138.99 96.945 138.73 97.055 138.46 97.055 138.22 97.055 137.97 96.965 137.78 96.785zM140.66 99.535C140.271 99.155 140.26 98.515 140.64 98.125 141.021 97.725 141.66 97.715 142.05 98.095 142.45 98.475 142.46 99.115 142.081 99.515 141.88 99.715 141.62 99.814 141.36 99.814 141.11 99.814 140.86 99.725 140.66 99.535zM143.521 102.314L143.521 102.325C143.13 101.935 143.12 101.305 143.51 100.905 143.9 100.515 144.53 100.505 144.93 100.895 145.32 101.285 145.32 101.915 144.93 102.314 144.74 102.515 144.48 102.604 144.22 102.604 143.97 102.604 143.71 102.515 143.521 102.314zM146.34 105.145C145.95 104.745 145.96 104.115 146.35 103.725 146.74 103.335 147.37 103.335 147.76 103.735 148.15 104.125 148.15 104.755 147.76 105.145 147.561 105.335 147.311 105.435 147.05 105.435 146.791 105.435 146.541 105.335 146.34 105.145zM149.13 107.985C148.75 107.595 148.76 106.965 149.16 106.575 149.55 106.195 150.19 106.205 150.57 106.604 150.95 106.995 150.94 107.625 150.55 108.015 150.35 108.205 150.1 108.295 149.85 108.295 149.59 108.295 149.331 108.195 149.13 107.985zM151.89 110.875C151.51 110.475 151.53 109.835 151.93 109.455 152.331 109.075 152.96 109.095 153.34 109.495 153.72 109.895 153.71 110.535 153.311 110.915 153.11 111.095 152.86 111.185 152.62 111.185 152.35 111.185 152.09 111.085 151.89 110.875zM154.62 113.785C154.24 113.385 154.271 112.745 154.67 112.375 155.081 111.995 155.71 112.024 156.09 112.425 156.46 112.835 156.44 113.465 156.03 113.845 155.84 114.024 155.59 114.104 155.35 114.104 155.081 114.104 154.811 114.005 154.62 113.785zM157.311 116.735C156.94 116.325 156.97 115.685 157.38 115.314 157.791 114.945 158.42 114.985 158.791 115.395 159.16 115.805 159.13 116.435 158.72 116.805 158.53 116.975 158.291 117.064 158.05 117.064 157.771 117.064 157.5 116.955 157.311 116.735zM159.96 119.715L159.96 119.705C159.6 119.295 159.64 118.665 160.05 118.295 160.46 117.935 161.1 117.975 161.46 118.385 161.831 118.805 161.791 119.435 161.37 119.805 161.18 119.965 160.95 120.045 160.71 120.045 160.43 120.045 160.16 119.935 159.96 119.715zM167.69 128.835C167.34 128.415 167.41 127.774 167.84 127.435 168.26 127.085 168.9 127.145 169.25 127.575 169.25 127.575 169.25 127.575 169.24 127.575 169.59 128.005 169.53 128.635 169.1 128.985 168.91 129.135 168.69 129.205 168.47 129.205 168.18 129.205 167.89 129.085 167.69 128.835zM170.19 131.945C169.85 131.515 169.92 130.885 170.35 130.545 170.791 130.205 171.42 130.274 171.76 130.705 172.1 131.135 172.03 131.765 171.6 132.115 171.41 132.255 171.19 132.325 170.97 132.325 170.68 132.325 170.39 132.195 170.19 131.945zM172.64 135.095C172.3 134.655 172.38 134.024 172.82 133.685 173.26 133.354 173.89 133.435 174.23 133.875 174.561 134.314 174.48 134.935 174.041 135.274 173.86 135.415 173.65 135.485 173.43 135.485 173.13 135.485 172.84 135.345 172.64 135.095zM175.041 138.274C174.71 137.825 174.8 137.205 175.25 136.875 175.69 136.545 176.32 136.635 176.65 137.075 176.98 137.515 176.89 138.145 176.44 138.475 176.26 138.604 176.05 138.675 175.85 138.675 175.541 138.675 175.24 138.535 175.041 138.274zM177.4 141.485C177.07 141.045 177.17 140.415 177.62 140.095 178.07 139.774 178.7 139.875 179.021 140.325 179.34 140.765 179.24 141.395 178.791 141.715 178.61 141.845 178.41 141.905 178.21 141.905 177.9 141.905 177.59 141.765 177.4 141.485zM179.69 144.745C179.38 144.285 179.49 143.665 179.95 143.354 180.4 143.035 181.021 143.145 181.34 143.604 181.65 144.055 181.541 144.685 181.081 144.995 180.91 145.115 180.71 145.175 180.521 145.175 180.2 145.175 179.89 145.024 179.69 144.745zM181.93 148.035C181.62 147.575 181.75 146.955 182.21 146.655 182.67 146.345 183.291 146.475 183.59 146.935 183.59 146.935 183.59 146.935 183.59 146.925 183.9 147.385 183.78 148.005 183.32 148.314 183.15 148.425 182.95 148.485 182.76 148.485 182.44 148.485 182.12 148.325 181.93 148.035zM184.1 151.375C183.811 150.905 183.94 150.295 184.41 149.995 184.87 149.695 185.49 149.835 185.791 150.295 186.09 150.765 185.95 151.385 185.48 151.685 185.32 151.785 185.13 151.835 184.95 151.835 184.62 151.835 184.291 151.675 184.1 151.375zM186.2 154.755C185.92 154.274 186.07 153.665 186.541 153.375 187.01 153.095 187.63 153.245 187.91 153.715 188.2 154.185 188.05 154.805 187.57 155.095 187.41 155.185 187.23 155.235 187.061 155.235 186.72 155.235 186.39 155.064 186.2 154.755zM188.22 158.185L188.22 158.175C187.94 157.695 188.11 157.085 188.59 156.814 189.07 156.545 189.68 156.705 189.96 157.185 190.23 157.665 190.061 158.274 189.581 158.555 189.43 158.645 189.26 158.685 189.09 158.685 188.74 158.685 188.4 158.505 188.22 158.185zM190.14 161.655C189.88 161.165 190.07 160.564 190.55 160.305 191.041 160.045 191.65 160.225 191.91 160.715 192.17 161.195 191.98 161.805 191.5 162.064 191.35 162.145 191.19 162.185 191.03 162.185 190.67 162.185 190.32 161.995 190.14 161.655zM191.96 165.185C191.71 164.685 191.92 164.085 192.41 163.845 192.91 163.595 193.51 163.805 193.75 164.295 194 164.795 193.8 165.395 193.3 165.635 193.16 165.705 193.01 165.745 192.86 165.745 192.49 165.745 192.14 165.535 191.96 165.185zM193.65 168.765C193.42 168.265 193.65 167.675 194.15 167.445 194.66 167.225 195.25 167.445 195.47 167.955 195.7 168.455 195.47 169.045 194.97 169.274 194.84 169.335 194.7 169.354 194.561 169.354 194.18 169.354 193.811 169.145 193.65 168.765zM195.18 172.415C194.98 171.895 195.23 171.314 195.75 171.115 196.26 170.915 196.84 171.165 197.041 171.685 197.24 172.195 196.99 172.774 196.47 172.975 196.35 173.024 196.23 173.045 196.11 173.045 195.71 173.045 195.331 172.805 195.18 172.415zM196.51 176.125C196.34 175.595 196.63 175.035 197.15 174.865 197.68 174.695 198.24 174.975 198.41 175.505 198.581 176.024 198.291 176.595 197.771 176.765 197.67 176.795 197.561 176.814 197.46 176.814 197.041 176.814 196.65 176.545 196.51 176.125zM197.581 179.895C197.45 179.354 197.78 178.814 198.32 178.685 198.86 178.555 199.4 178.885 199.53 179.425 199.66 179.965 199.331 180.505 198.791 180.635 198.71 180.655 198.63 180.665 198.561 180.665 198.1 180.665 197.69 180.354 197.581 179.895zM198.3 183.715C198.23 183.165 198.61 182.665 199.16 182.595 199.71 182.524 200.21 182.915 200.28 183.465 200.35 184.015 199.96 184.515 199.42 184.585 199.37 184.585 199.331 184.585 199.291 184.585 198.791 184.585 198.36 184.225 198.3 183.715zM53.66 196.385C53.53 196.385 53.4 196.365 53.28 196.314 53.16 196.265 53.05 196.185 52.96 196.095 52.771 195.905 52.66 195.655 52.66 195.385 52.66 195.255 52.69 195.125 52.74 195.005 52.79 194.885 52.86 194.774 52.96 194.685 53.331 194.305 54 194.305 54.37 194.685 54.46 194.774 54.54 194.885 54.59 195.005 54.64 195.125 54.66 195.255 54.66 195.385 54.66 195.655 54.561 195.905 54.37 196.095 54.28 196.185 54.17 196.265 54.05 196.314 53.92 196.365 53.8 196.385 53.66 196.385M189.18 50.595C188.63 50.555 188.22 50.075 188.25 49.524 188.291 48.975 188.771 48.555 189.32 48.595 189.87 48.635 190.291 49.104 190.25 49.665 190.21 50.185 189.771 50.595 189.25 50.595 189.23 50.595 189.21 50.595 189.18 50.595zM184.26 49.805C184.2 49.255 184.59 48.765 185.14 48.705 185.69 48.645 186.19 49.045 186.24 49.595 186.3 50.145 185.91 50.635 185.36 50.695 185.32 50.695 185.291 50.705 185.25 50.705 184.75 50.695 184.311 50.314 184.26 49.805zM180.331 50.604C180.2 50.064 180.541 49.524 181.081 49.405 181.62 49.274 182.15 49.615 182.28 50.155 182.4 50.695 182.061 51.235 181.521 51.354 181.45 51.365 181.37 51.375 181.3 51.375 180.84 51.375 180.43 51.064 180.331 50.604zM192.82 51.335C192.3 51.135 192.041 50.555 192.23 50.045 192.42 49.524 193 49.265 193.521 49.455 194.041 49.645 194.3 50.225 194.1 50.745 193.95 51.145 193.57 51.395 193.17 51.395 193.05 51.395 192.93 51.375 192.82 51.335zM176.48 51.735C176.32 51.205 176.61 50.645 177.13 50.485 177.13 50.485 177.13 50.485 177.13 50.475 177.66 50.314 178.22 50.604 178.39 51.135 178.55 51.665 178.26 52.225 177.74 52.395 177.64 52.425 177.541 52.435 177.44 52.435 177.01 52.435 176.62 52.165 176.48 51.735zM172.72 53.125C172.521 52.604 172.78 52.024 173.291 51.835 173.811 51.635 174.39 51.885 174.581 52.405 174.78 52.915 174.521 53.495 174.01 53.695 173.89 53.745 173.771 53.765 173.65 53.765 173.25 53.765 172.87 53.515 172.72 53.125zM169.03 54.695C168.811 54.195 169.041 53.604 169.541 53.375 170.05 53.155 170.64 53.385 170.86 53.895 171.081 54.395 170.85 54.985 170.35 55.205 170.22 55.265 170.081 55.295 169.95 55.295 169.561 55.295 169.19 55.075 169.03 54.695zM165.41 56.425C165.17 55.925 165.37 55.325 165.87 55.085 166.37 54.845 166.96 55.045 167.21 55.545 167.45 56.045 167.24 56.645 166.75 56.885 166.61 56.955 166.46 56.985 166.311 56.985 165.94 56.985 165.581 56.774 165.41 56.425zM161.85 58.274C161.59 57.785 161.78 57.185 162.271 56.925 162.75 56.665 163.36 56.854 163.62 57.345 163.88 57.825 163.69 58.435 163.2 58.695L163.2 58.685C163.05 58.765 162.89 58.805 162.73 58.805 162.38 58.805 162.03 58.615 161.85 58.274zM158.35 60.235C158.081 59.755 158.24 59.145 158.73 58.875 158.73 58.875 158.73 58.875 158.72 58.865 159.2 58.595 159.811 58.765 160.09 59.245 160.36 59.725 160.19 60.335 159.71 60.604 159.561 60.695 159.39 60.735 159.22 60.735 158.87 60.735 158.53 60.555 158.35 60.235zM154.9 62.285C154.61 61.805 154.771 61.195 155.24 60.905 155.71 60.625 156.331 60.774 156.61 61.255 156.9 61.725 156.75 62.335 156.271 62.625 156.11 62.715 155.93 62.765 155.76 62.765 155.42 62.765 155.09 62.595 154.9 62.285zM151.5 64.405C151.2 63.935 151.34 63.325 151.811 63.024 152.271 62.735 152.89 62.875 153.19 63.335 153.49 63.805 153.35 64.425 152.88 64.715 152.71 64.825 152.53 64.875 152.34 64.875 152.01 64.875 151.69 64.705 151.5 64.405zM148.15 66.604C147.84 66.145 147.96 65.524 148.43 65.225 148.89 64.915 149.51 65.045 149.811 65.505 150.12 65.965 149.99 66.585 149.53 66.885 149.36 67.005 149.17 67.055 148.98 67.055 148.65 67.055 148.34 66.895 148.15 66.604zM144.831 68.875C144.521 68.415 144.63 67.795 145.09 67.475 145.541 67.165 146.17 67.274 146.48 67.735 146.791 68.185 146.68 68.814 146.22 69.125 146.05 69.245 145.85 69.305 145.66 69.305 145.34 69.305 145.03 69.155 144.831 68.875zM141.561 71.195C141.24 70.745 141.34 70.115 141.791 69.795 142.24 69.475 142.87 69.575 143.19 70.024 143.51 70.475 143.41 71.104 142.96 71.425 142.78 71.545 142.581 71.604 142.37 71.604 142.061 71.604 141.76 71.465 141.561 71.195zM138.331 73.564C138 73.125 138.09 72.495 138.541 72.165 138.98 71.835 139.61 71.935 139.94 72.375 140.271 72.814 140.17 73.445 139.73 73.774 139.55 73.905 139.34 73.975 139.13 73.975 138.831 73.975 138.53 73.835 138.331 73.564zM135.14 75.995C134.8 75.555 134.88 74.925 135.32 74.595 135.76 74.255 136.39 74.335 136.72 74.774 137.061 75.215 136.98 75.845 136.541 76.175 136.35 76.314 136.14 76.385 135.93 76.385 135.63 76.385 135.331 76.255 135.14 75.995zM131.98 78.465C131.63 78.035 131.71 77.405 132.14 77.064 132.581 76.715 133.2 76.795 133.55 77.225 133.89 77.655 133.811 78.285 133.38 78.635 133.2 78.774 132.98 78.845 132.76 78.845 132.47 78.845 132.17 78.715 131.98 78.465zM128.85 80.985C128.51 80.555 128.57 79.925 129 79.575 129.43 79.225 130.061 79.295 130.41 79.725 130.75 80.155 130.69 80.785 130.26 81.125 130.07 81.274 129.85 81.354 129.63 81.354 129.34 81.354 129.05 81.225 128.85 80.985zM125.771 83.545C125.41 83.115 125.47 82.485 125.89 82.135 126.32 81.785 126.95 81.835 127.3 82.265 127.66 82.685 127.6 83.314 127.17 83.675L127.17 83.665C126.99 83.825 126.76 83.905 126.53 83.905 126.25 83.905 125.96 83.774 125.771 83.545zM122.71 86.145C122.35 85.725 122.4 85.095 122.82 84.735 123.24 84.375 123.87 84.425 124.23 84.845 124.59 85.265 124.541 85.895 124.12 86.255 123.93 86.415 123.7 86.495 123.47 86.495 123.19 86.495 122.91 86.375 122.71 86.145zM119.69 88.785C119.32 88.365 119.37 87.735 119.78 87.375 120.19 87.005 120.831 87.045 121.19 87.465 121.561 87.875 121.521 88.505 121.1 88.875 120.91 89.035 120.68 89.125 120.44 89.125 120.16 89.125 119.89 89.005 119.69 88.785zM116.7 91.455C116.331 91.045 116.36 90.415 116.771 90.045 117.19 89.675 117.82 89.705 118.19 90.115 118.561 90.524 118.521 91.165 118.11 91.524 117.92 91.705 117.68 91.785 117.45 91.785 117.17 91.785 116.9 91.675 116.7 91.455zM113.75 94.165C113.37 93.765 113.4 93.125 113.8 92.755 114.21 92.375 114.84 92.405 115.22 92.814 115.59 93.215 115.561 93.845 115.16 94.225 114.97 94.405 114.72 94.485 114.48 94.485 114.21 94.485 113.94 94.385 113.75 94.165zM110.82 96.915C110.44 96.515 110.46 95.875 110.86 95.495 111.26 95.115 111.89 95.135 112.28 95.535 112.65 95.935 112.64 96.575 112.23 96.955 112.041 97.135 111.791 97.225 111.55 97.225 111.28 97.225 111.021 97.115 110.82 96.915zM107.93 99.685C107.541 99.295 107.561 98.655 107.95 98.274 108.35 97.895 108.98 97.905 109.37 98.305 109.75 98.695 109.74 99.335 109.34 99.715 109.15 99.905 108.9 99.995 108.65 99.995 108.39 99.995 108.12 99.895 107.93 99.685zM105.07 102.505C104.68 102.115 104.68 101.475 105.081 101.095 105.47 100.695 106.1 100.705 106.49 101.095 106.88 101.485 106.87 102.125 106.48 102.515 106.291 102.705 106.03 102.805 105.78 102.805 105.521 102.805 105.26 102.705 105.07 102.505zM102.24 105.345C101.85 104.955 101.84 104.325 102.23 103.935 102.62 103.545 103.25 103.535 103.65 103.925 104.041 104.314 104.041 104.945 103.66 105.335L103.65 105.335C103.46 105.535 103.2 105.635 102.94 105.635 102.69 105.635 102.43 105.545 102.24 105.345zM99.44 108.225C99.05 107.835 99.04 107.205 99.42 106.805 99.8 106.415 100.44 106.405 100.84 106.785 101.23 107.165 101.24 107.805 100.86 108.195 100.66 108.405 100.4 108.505 100.14 108.505 99.89 108.505 99.64 108.405 99.44 108.225zM96.68 111.135C96.28 110.755 96.26 110.115 96.64 109.715 97.021 109.314 97.65 109.295 98.061 109.675 98.46 110.055 98.48 110.685 98.1 111.095 97.9 111.295 97.63 111.405 97.37 111.405 97.12 111.405 96.88 111.314 96.68 111.135zM93.96 114.075C93.55 113.695 93.521 113.064 93.9 112.655 94.271 112.255 94.9 112.225 95.311 112.604 95.72 112.975 95.74 113.604 95.37 114.015 95.17 114.225 94.9 114.335 94.63 114.335 94.39 114.335 94.15 114.245 93.96 114.075zM91.26 117.045C90.85 116.675 90.82 116.045 91.19 115.635 91.561 115.215 92.19 115.185 92.6 115.555 93.01 115.925 93.04 116.555 92.67 116.965L92.67 116.975C92.48 117.185 92.2 117.305 91.93 117.305 91.69 117.305 91.45 117.215 91.26 117.045zM88.6 120.045C88.19 119.685 88.15 119.055 88.51 118.635 88.88 118.225 89.51 118.185 89.92 118.545 90.34 118.905 90.38 119.545 90.02 119.955 89.82 120.185 89.54 120.295 89.26 120.295 89.03 120.295 88.79 120.215 88.6 120.045zM80.87 129.265C80.44 128.915 80.37 128.285 80.72 127.854 81.07 127.425 81.7 127.365 82.12 127.715 82.561 128.055 82.62 128.685 82.27 129.115 82.07 129.365 81.79 129.485 81.501 129.485 81.271 129.485 81.05 129.415 80.87 129.265zM78.37 132.405C77.94 132.064 77.86 131.435 78.21 130.995 78.55 130.564 79.18 130.485 79.61 130.835 80.04 131.175 80.12 131.805 79.771 132.235 79.581 132.485 79.29 132.615 78.99 132.615 78.771 132.615 78.561 132.545 78.37 132.405zM75.92 135.575C75.48 135.245 75.4 134.615 75.73 134.175 76.07 133.735 76.7 133.655 77.14 133.995 77.581 134.325 77.66 134.955 77.32 135.395 77.12 135.645 76.831 135.785 76.53 135.785 76.311 135.785 76.1 135.715 75.92 135.575zM73.521 138.795C73.07 138.465 72.98 137.835 73.311 137.395 73.64 136.945 74.271 136.854 74.71 137.185 75.16 137.515 75.251 138.145 74.92 138.585 74.72 138.845 74.42 138.985 74.11 138.985 73.91 138.985 73.7 138.925 73.521 138.795zM71.17 142.045C70.72 141.725 70.62 141.095 70.94 140.645 71.26 140.205 71.89 140.095 72.331 140.415 72.78 140.735 72.89 141.365 72.561 141.814 72.37 142.085 72.061 142.235 71.751 142.235 71.55 142.235 71.35 142.175 71.17 142.045zM68.88 145.335C68.42 145.024 68.311 144.395 68.62 143.945 68.94 143.485 69.561 143.375 70.01 143.685 70.47 144.005 70.581 144.625 70.27 145.075L70.27 145.085C70.07 145.365 69.76 145.515 69.44 145.515 69.251 145.515 69.05 145.455 68.88 145.335zM66.65 148.665C66.19 148.365 66.061 147.745 66.37 147.285 66.67 146.825 67.29 146.695 67.751 146.995 68.21 147.305 68.34 147.925 68.03 148.385 67.84 148.675 67.521 148.835 67.2 148.835 67.01 148.835 66.82 148.785 66.65 148.665zM64.48 152.045C64.01 151.745 63.88 151.135 64.17 150.665 64.47 150.195 65.09 150.064 65.55 150.354 66.021 150.655 66.16 151.265 65.86 151.735 65.67 152.035 65.35 152.205 65.02 152.205 64.831 152.205 64.65 152.155 64.48 152.045zM62.39 155.475C61.92 155.185 61.771 154.564 62.05 154.095 62.34 153.625 62.95 153.475 63.42 153.755 63.9 154.045 64.05 154.655 63.771 155.135 63.581 155.445 63.25 155.615 62.91 155.615 62.73 155.615 62.55 155.564 62.39 155.475zM60.39 158.945C59.91 158.675 59.74 158.064 60.01 157.585 60.29 157.104 60.89 156.935 61.38 157.205 61.85 157.475 62.02 158.085 61.75 158.564L61.75 158.575C61.57 158.895 61.23 159.075 60.88 159.075 60.71 159.075 60.55 159.035 60.39 158.945zM56.69 166.064C56.19 165.825 55.99 165.225 56.23 164.725 56.47 164.225 57.07 164.024 57.57 164.265 58.061 164.505 58.271 165.104 58.03 165.604 57.85 165.955 57.5 166.165 57.13 166.165 56.98 166.165 56.831 166.135 56.69 166.064zM55.03 169.715C54.53 169.495 54.3 168.905 54.521 168.395 54.75 167.895 55.34 167.665 55.84 167.885 56.35 168.104 56.581 168.695 56.35 169.205 56.19 169.575 55.82 169.805 55.44 169.805 55.3 169.805 55.17 169.774 55.03 169.715zM53.55 173.445C53.03 173.245 52.771 172.665 52.97 172.155 53.17 171.635 53.75 171.375 54.271 171.575 54.78 171.774 55.04 172.354 54.84 172.865 54.69 173.265 54.311 173.505 53.91 173.505 53.79 173.505 53.67 173.485 53.55 173.445zM52.28 177.245C51.75 177.075 51.46 176.515 51.63 175.995 51.791 175.465 52.35 175.175 52.88 175.335 53.41 175.505 53.7 176.064 53.53 176.595 53.4 177.015 53.01 177.295 52.581 177.295 52.48 177.295 52.38 177.274 52.28 177.245zM50.74 185.104C50.19 185.045 49.791 184.545 49.85 184.005 49.91 183.455 50.4 183.055 50.95 183.115 51.5 183.175 51.9 183.665 51.84 184.215 51.78 184.725 51.35 185.104 50.84 185.104 50.811 185.104 50.771 185.104 50.74 185.104zM49.74 188.175C49.7 187.625 50.12 187.145 50.67 187.115 51.22 187.075 51.7 187.485 51.74 188.045 51.77 188.595 51.36 189.064 50.811 189.104 50.78 189.104 50.76 189.104 50.74 189.104 50.21 189.104 49.78 188.705 49.74 188.175zM50.6 192.375C50.41 191.854 50.67 191.285 51.19 191.085 51.7 190.895 52.28 191.155 52.48 191.675 52.67 192.195 52.41 192.765 51.89 192.965 51.77 193.005 51.66 193.024 51.54 193.024 51.13 193.024 50.75 192.774 50.6 192.375zM196.53 53.515C196.4 53.515 196.271 53.495 196.15 53.445 196.03 53.395 195.92 53.314 195.82 53.225 195.63 53.035 195.53 52.785 195.53 52.515 195.53 52.385 195.561 52.255 195.61 52.135 195.66 52.015 195.73 51.905 195.82 51.814 195.92 51.715 196.03 51.645 196.15 51.595 196.521 51.445 196.96 51.535 197.24 51.814 197.331 51.905 197.4 52.015 197.45 52.135 197.5 52.255 197.53 52.385 197.53 52.515 197.53 52.785 197.43 53.035 197.24 53.225 197.05 53.415 196.8 53.515 196.53 53.515"/>
    <path fill="#434A4F" d="M125.098,99.955 C111.865,99.955 101.098,110.722 101.098,123.955 C101.098,137.188 111.865,147.955 125.098,147.955 C138.332,147.955 149.098,137.188 149.098,123.955 C149.098,110.722 138.332,99.955 125.098,99.955 Z M125.098,149.955 C110.762,149.955 99.098,138.292 99.098,123.955 C99.098,109.618 110.762,97.955 125.098,97.955 C139.435,97.955 151.098,109.618 151.098,123.955 C151.098,138.292 139.435,149.955 125.098,149.955 Z"/>
    <path fill="#FFFFFE" d="M205.098,77.503 C205.098,81.779 201.632,85.245 197.356,85.245 C193.081,85.245 189.614,81.779 189.614,77.503 C189.614,73.228 193.081,69.761 197.356,69.761 C201.632,69.761 205.098,73.228 205.098,77.503"/>
    <path fill="#E9886C" d="M205.098,77.503 C205.098,81.779 201.632,85.245 197.356,85.245 C193.081,85.245 189.614,81.779 189.614,77.503 C189.614,73.228 193.081,69.761 197.356,69.761 C201.632,69.761 205.098,73.228 205.098,77.503"/>
    <path fill="#FFFFFE" d="M60.582,170.407 C60.582,174.682 57.116,178.149 52.84,178.149 C48.564,178.149 45.098,174.682 45.098,170.407 C45.098,166.131 48.564,162.665 52.84,162.665 C57.116,162.665 60.582,166.131 60.582,170.407"/>
    <path fill="#FACD60" d="M60.582,170.407 C60.582,174.682 57.116,178.149 52.84,178.149 C48.564,178.149 45.098,174.682 45.098,170.407 C45.098,166.131 48.564,162.665 52.84,162.665 C57.116,162.665 60.582,166.131 60.582,170.407"/>
    <path fill="#42494E" d="M197.356,189.472 C193.639,189.472 190.614,192.496 190.614,196.213 C190.614,199.931 193.639,202.955 197.356,202.955 C201.074,202.955 204.098,199.931 204.098,196.213 C204.098,192.496 201.074,189.472 197.356,189.472 Z M197.356,204.955 C192.536,204.955 188.614,201.033 188.614,196.213 C188.614,191.393 192.536,187.472 197.356,187.472 C202.177,187.472 206.098,191.393 206.098,196.213 C206.098,201.033 202.177,204.955 197.356,204.955 Z"/>
    <path fill="#FFFFFE" d="M145.098 123.955L143.098 123.955C143.098 114.03 135.023 105.955 125.098 105.955L125.098 103.955C136.126 103.955 145.098 112.927 145.098 123.955M121.098 104.955C121.098 105.507 121.546 105.955 122.098 105.955 122.651 105.955 123.098 105.507 123.098 104.955 123.098 104.403 122.651 103.955 122.098 103.955 121.546 103.955 121.098 104.403 121.098 104.955M143.098 126.955C143.098 127.507 143.546 127.955 144.098 127.955 144.651 127.955 145.098 127.507 145.098 126.955 145.098 126.403 144.651 125.955 144.098 125.955 143.546 125.955 143.098 126.403 143.098 126.955"/>
    <polygon fill="#434A4F" points="213.053 142.022 215.053 142.022 215.053 138.022 213.053 138.022"/>
    <polygon fill="#434A4F" points="213.053 152.022 215.053 152.022 215.053 148.022 213.053 148.022"/>
    <polygon fill="#434A4F" points="207.053 146.022 211.053 146.022 211.053 144.022 207.053 144.022"/>
    <polygon fill="#434A4F" points="217.053 146.022 221.053 146.022 221.053 144.022 217.053 144.022"/>
    <path fill="#42494E" d="M88.979,200.045 C87.876,200.045 86.979,200.942 86.979,202.045 C86.979,203.147 87.876,204.045 88.979,204.045 C90.081,204.045 90.979,203.147 90.979,202.045 C90.979,200.942 90.081,200.045 88.979,200.045 Z M88.979,206.045 C86.773,206.045 84.979,204.251 84.979,202.045 C84.979,199.839 86.773,198.045 88.979,198.045 C91.184,198.045 92.979,199.839 92.979,202.045 C92.979,204.251 91.184,206.045 88.979,206.045 Z"/>
    <path fill="#E9886C" d="M208.02,115.003 C208.02,116.108 207.125,117.003 206.02,117.003 C204.916,117.003 204.02,116.108 204.02,115.003 C204.02,113.899 204.916,113.003 206.02,113.003 C207.125,113.003 208.02,113.899 208.02,115.003"/>
    <path fill="#75C7D0" d="M47.924,115.003 C47.924,116.108 47.029,117.003 45.924,117.003 C44.82,117.003 43.924,116.108 43.924,115.003 C43.924,113.899 44.82,113.003 45.924,113.003 C47.029,113.003 47.924,113.899 47.924,115.003"/>
    <polygon fill="#434A4F" points="34.947 89.991 36.947 89.991 36.947 85.991 34.947 85.991"/>
    <polygon fill="#434A4F" points="34.947 99.991 36.947 99.991 36.947 95.991 34.947 95.991"/>
    <polygon fill="#434A4F" points="28.947 93.991 32.947 93.991 32.947 91.991 28.947 91.991"/>
    <polygon fill="#434A4F" points="38.947 93.991 42.947 93.991 42.947 91.991 38.947 91.991"/>
    <path fill="#E9886C" d="M147.098,123.955 C147.098,136.105 137.249,145.955 125.098,145.955 C112.948,145.955 103.098,136.105 103.098,123.955 C103.098,111.805 112.948,101.955 125.098,101.955 C137.249,101.955 147.098,111.805 147.098,123.955"/>
    <path fill="#FFFFFE" d="M205.098,77.503 C205.098,81.779 201.632,85.245 197.356,85.245 C193.081,85.245 189.614,81.779 189.614,77.503 C189.614,73.228 193.081,69.761 197.356,69.761 C201.632,69.761 205.098,73.228 205.098,77.503"/>
    <path fill="#42494E" d="M197.356 72.762C196.899 72.762 196.465 72.847 196.045 72.969 195.281 75.142 194.352 77.43 193.249 79.829 193.633 80.504 194.166 81.078 194.819 81.495 196.231 78.456 197.387 75.57 198.282 72.855 197.982 72.796 197.673 72.762 197.356 72.762M197.831 66.786C198.517 66.816 199.185 66.908 199.832 67.061 201.19 60.295 200.441 55.014 197.239 51.811L195.825 53.226C198.567 55.968 199.13 60.673 197.831 66.786M190.367 85.643C181.338 102.675 165.339 123.776 145.129 143.985 113.196 175.919 79.028 197.36 62.227 197.358 58.858 197.357 56.184 196.494 54.37 194.681L52.956 196.095C55.16 198.298 58.339 199.351 62.312 199.351 80.024 199.35 113.502 178.44 146.543 145.399 167.203 124.74 183.102 103.92 192.13 86.879 191.499 86.527 190.911 86.111 190.367 85.643"/>
    <path fill="#E9886C" d="M205.098,77.503 C205.098,81.779 201.632,85.245 197.356,85.245 C193.081,85.245 189.614,81.779 189.614,77.503 C189.614,73.228 193.081,69.761 197.356,69.761 C201.632,69.761 205.098,73.228 205.098,77.503"/>
    <path fill="#D3665D" d="M126.668,133.997 C128.148,132.712 129.605,131.357 130.998,129.964 C136.708,124.254 141.806,117.484 143.776,112.333 C143.336,111.628 142.857,110.951 142.343,110.302 C141.247,114.256 137.115,121.018 129.584,128.55 C128.059,130.074 126.572,131.443 125.126,132.693 C123.681,131.443 122.193,130.074 120.668,128.549 C115.981,123.862 112.111,118.938 109.771,114.682 C108.78,112.881 108.195,111.427 107.884,110.264 C107.366,110.914 106.885,111.593 106.442,112.3 C106.833,113.328 107.358,114.445 108.019,115.646 C110.447,120.062 114.437,125.147 119.254,129.963 C120.647,131.356 122.104,132.712 123.584,133.996 C118.658,138.028 114.393,140.411 111.526,141.263 C112.171,141.769 112.843,142.242 113.543,142.675 C116.968,141.327 121.086,138.626 125.126,135.299 C129.152,138.615 133.256,141.309 136.674,142.662 C137.372,142.229 138.043,141.757 138.686,141.251 C135.819,140.389 131.572,138.009 126.668,133.997"/>
    <path fill="#75C7D0" d="M81.227,51.697 C81.227,55.973 77.761,59.439 73.485,59.439 C69.21,59.439 65.743,55.973 65.743,51.697 C65.743,47.421 69.21,43.955 73.485,43.955 C77.761,43.955 81.227,47.421 81.227,51.697"/>
  </g>
</svg>
