<svg xmlns="http://www.w3.org/2000/svg" width="250" height="250" viewBox="0 0 250 250">
  <g fill="none" fill-rule="evenodd">
    <polyline fill="#DDDED9" points="100.214 52.006 143.381 73.839 152.38 70.506 149.869 51.51 125.214 56.256 100.214 52.006"/>
    <polygon fill="#434A4F" points="35.447 141.496 37.447 141.496 37.447 137.496 35.447 137.496"/>
    <polygon fill="#434A4F" points="35.447 151.496 37.447 151.496 37.447 147.496 35.447 147.496"/>
    <polygon fill="#434A4F" points="39.447 145.496 43.447 145.496 43.447 143.496 39.447 143.496"/>
    <polygon fill="#434A4F" points="29.447 145.496 33.447 145.496 33.447 143.496 29.447 143.496"/>
    <path fill="#E9886C" d="M129.88,171.339 L128.325,158.486 C129.43,158.486 130.325,157.591 130.325,156.487 L130.325,151.486 L125.242,145.483 L120.325,151.486 L120.325,156.487 C120.325,157.591 121.221,158.486 122.325,158.486 L120.88,171.006 L125.38,175.506 L129.88,171.339"/>
    <path fill="#DDDED9" d="M109.945,130.492 L109.945,134.861 L125.075,143.361 L140.075,135.111 L140.21,127.114 L140.21,120.373 C140.784,119.807 141.371,119.201 141.898,118.589 C141.718,118.746 141.545,118.904 141.398,119.062 C139.295,121.323 136.105,123.696 133.946,125.54 C132.238,126.998 130.079,127.805 127.833,127.831 L121.341,127.831 C119.095,127.805 116.935,126.998 115.227,125.54 C113.166,123.78 110.167,121.538 108.069,119.371 C108.006,119.306 107.933,119.241 107.864,119.176 C108.494,119.846 109.214,120.525 109.981,121.2 C109.964,121.208 109.945,121.216 109.945,121.236 L109.945,130.492"/>
    <path fill="#434A4F" d="M109.945 135.735C109.392 135.735 108.945 135.288 108.945 134.735L108.945 121.236C108.945 120.684 109.392 120.236 109.945 120.236 110.497 120.236 110.945 120.684 110.945 121.236L110.945 134.735C110.945 135.288 110.497 135.735 109.945 135.735M158.082 92.056L158.092 92.056 158.082 92.056zM140.11 135.487C139.557 135.487 139.11 135.04 139.11 134.487L139.11 119.934 139.407 119.64C140.582 118.481 141.986 117.004 142.423 115.843L148.612 103.213 155.509 99.763 157.083 91.949C157.08 91.365 156.856 90.814 156.446 90.394 156.018 89.953 155.445 89.711 154.83 89.711L152.257 89.711 152.46 88.539C153.007 85.401 153.283 82.581 153.283 80.155L153.285 78.799C153.307 75.441 152.703 72.149 151.491 69.017 151.292 68.501 151.548 67.922 152.063 67.723 152.578 67.524 153.157 67.779 153.356 68.294 154.66 71.663 155.309 75.202 155.285 78.812L155.283 80.155C155.283 82.387 155.062 84.924 154.625 87.711L154.83 87.711C155.99 87.711 157.073 88.169 157.881 89 158.688 89.83 159.115 90.926 159.081 92.084L159.062 92.253 157.277 101.114 150.11 104.699 144.257 116.636C143.761 117.963 142.475 119.402 141.11 120.768L141.11 134.487C141.11 135.04 140.662 135.487 140.11 135.487z"/>
    <path fill="#434A4F" d="M127.847 128.831L121.341 128.831C118.853 128.802 116.455 127.903 114.578 126.301 113.966 125.777 113.27 125.212 112.54 124.619 109.407 122.071 105.857 119.184 104.888 116.584L99.248 104.666 93.076 101.103 90.537 92.076C90.537 89.669 92.495 87.711 94.902 87.711L94.962 87.711C94.588 84.95 94.398 82.413 94.398 80.155L94.398 79.676C94.398 75.979 95.056 72.337 96.356 68.852 96.549 68.334 97.128 68.072 97.642 68.265 98.159 68.457 98.423 69.033 98.23 69.551 97.014 72.811 96.398 76.218 96.398 79.676L96.398 80.155C96.398 82.624 96.635 85.452 97.105 88.561L97.278 89.711 94.902 89.711C93.641 89.711 92.607 90.703 92.54 91.948L94.777 99.774 100.789 103.246 106.729 115.807C107.541 117.976 111.012 120.799 113.802 123.067 114.546 123.671 115.254 124.247 115.877 124.779 117.399 126.079 119.344 126.808 121.352 126.831L127.847 126.831C128.4 126.831 128.847 127.278 128.847 127.831 128.847 128.384 128.4 128.831 127.847 128.831M61.325 209.507L59.325 209.505 59.389 160.156C59.389 154.21 63.161 152.312 68.49 150.278L99.632 139.667 105.125 129.487 109.492 129.487 109.492 131.487 106.319 131.487 101.019 141.308 69.17 152.159C63.891 154.174 61.389 155.624 61.389 160.157L61.325 209.507M125.326 144.633L109.467 135.751C108.985 135.481 108.813 134.872 109.083 134.391 109.354 133.909 109.963 133.737 110.445 134.007L125.326 142.34 139.624 134.334C140.107 134.064 140.716 134.236 140.985 134.718 141.255 135.199 141.083 135.809 140.601 136.078L125.326 144.633M191.325 209.507L189.325 209.505 189.38 160.277C189.38 155.483 186.376 154.032 181.427 152.211L149.577 141.399 143.526 131.487 140.325 131.487 140.325 129.487 144.648 129.487 150.906 139.739 182.094 150.325C187.366 152.265 191.38 154.224 191.38 160.278L191.325 209.507"/>
    <path fill="#434A4F" d="M116.325,156.486 C116.087,156.486 115.847,156.401 115.656,156.229 C115.246,155.86 115.213,155.228 115.582,154.817 L125.326,143.991 L135.069,154.817 C135.438,155.228 135.405,155.86 134.994,156.229 C134.584,156.6 133.95,156.566 133.582,156.155 L125.326,146.981 L117.069,156.155 C116.871,156.375 116.599,156.486 116.325,156.486"/>
    <polyline fill="#434A4F" points="125.381 176.871 89.705 144.244 91.055 142.768 125.381 174.16 159.705 142.768 161.055 144.244 125.381 176.871"/>
    <polyline fill="#434A4F" points="125.55 192.861 77.702 148.716 79.058 147.245 125.561 190.15 172.437 147.654 173.781 149.137 125.55 192.861"/>
    <polyline fill="#434A4F" points="124.981 82.218 96.271 71.149 99.282 51.36 101.259 51.661 98.49 69.862 124.978 80.073 151.286 69.858 148.878 51.642 150.86 51.38 153.474 71.153 124.981 82.218"/>
    <path fill="#434A4F" d="M87.463,48.921 L125.841,55.317 L159.955,48.921 L125.841,42.524 L87.463,48.921 Z M125.862,57.349 L75.298,48.921 L125.862,40.493 L126.035,40.526 L170.806,48.921 L125.862,57.349 Z"/>
    <polygon fill="#434A4F" points="160.381 59.507 162.381 59.507 162.381 49.506 160.381 49.506"/>
    <path fill="#E9886C" d="M161.38,57.506 C159.723,57.506 158.38,58.849 158.38,60.506 L158.38,67.507 L164.38,67.507 L164.38,60.506 C164.38,58.849 163.037,57.506 161.38,57.506"/>
    <polygon fill="#434A4F" points="203.548 171.514 205.548 171.514 205.548 167.514 203.548 167.514"/>
    <polygon fill="#434A4F" points="203.548 181.514 205.548 181.514 205.548 177.514 203.548 177.514"/>
    <polygon fill="#434A4F" points="207.548 175.514 211.548 175.514 211.548 173.514 207.548 173.514"/>
    <polygon fill="#434A4F" points="197.548 175.514 201.548 175.514 201.548 173.514 197.548 173.514"/>
    <polygon fill="#434A4F" points="212.553 110.478 214.553 110.478 214.553 106.478 212.553 106.478"/>
    <polygon fill="#434A4F" points="212.553 120.478 214.553 120.478 214.553 116.478 212.553 116.478"/>
    <polygon fill="#434A4F" points="216.553 114.478 220.553 114.478 220.553 112.478 216.553 112.478"/>
    <polygon fill="#434A4F" points="206.553 114.478 210.553 114.478 210.553 112.478 206.553 112.478"/>
    <polygon fill="#434A4F" points="182.375 90.538 204.375 90.538 204.375 88.538 182.375 88.538"/>
    <path fill="#434A4F" d="M165.476,120.538 C165.94,122.817 167.961,124.538 170.375,124.538 L187.481,124.538 C186.407,123.487 185.67,122.095 185.447,120.538 L165.476,120.538 Z M192.375,126.538 L170.375,126.538 C166.515,126.538 163.375,123.397 163.375,119.538 L163.375,118.538 L187.375,118.538 L187.375,119.538 C187.375,122.295 189.618,124.538 192.375,124.538 C195.132,124.538 197.375,122.295 197.375,119.538 L197.375,95.538 L199.375,95.538 L199.375,119.538 C199.375,123.397 196.235,126.538 192.375,126.538 Z"/>
    <path fill="#434A4F" d="M177.375,119.538 L175.375,119.538 L175.375,95.538 C175.375,91.679 178.515,88.538 182.375,88.538 C185.896,88.538 188.817,91.15 189.304,94.538 L209.275,94.538 C208.81,92.259 206.79,90.538 204.375,90.538 L204.375,88.538 C208.235,88.538 211.375,91.679 211.375,95.538 L211.375,96.538 L187.375,96.538 L187.375,95.538 C187.375,92.781 185.132,90.538 182.375,90.538 C179.618,90.538 177.375,92.781 177.375,95.538 L177.375,119.538"/>
    <path fill="#42494E" d="M155.209,198.454 L210.374,198.454 C212.029,198.454 213.374,197.108 213.374,195.454 C213.374,193.8 212.029,192.454 210.374,192.454 L155.209,192.454 L148.703,195.454 L155.209,198.454 Z M210.374,200.454 L154.77,200.454 L143.927,195.454 L154.771,190.454 L210.374,190.454 C213.131,190.454 215.374,192.697 215.374,195.454 C215.374,198.211 213.131,200.454 210.374,200.454 Z"/>
    <polygon fill="#42494E" points="202.764 199.454 204.764 199.454 204.764 191.855 202.764 191.855"/>
    <polygon fill="#42494E" points="155.759 196.425 203.764 196.425 203.764 194.425 155.759 194.425"/>
    <polyline fill="#42494E" points="78.414 73.443 78.414 75.443 81.414 75.443 81.414 93.527 49.331 93.527 49.331 75.443 52.331 75.443 52.331 73.443 47.331 73.443 47.331 95.527 83.414 95.527 83.414 73.443 78.414 73.443"/>
    <path fill="#42494E" d="M53.331,89.527 L63.98,89.527 L65.411,91.09 L67.006,89.527 L77.414,89.527 L77.414,71.443 L67.822,71.443 L65.358,73.857 L62.993,71.443 L53.331,71.443 L53.331,89.527 Z M65.334,93.965 L63.1,91.527 L51.331,91.527 L51.331,69.443 L63.834,69.443 L65.387,71.029 L67.006,69.443 L79.414,69.443 L79.414,91.527 L67.822,91.527 L65.334,93.965 Z"/>
    <path fill="#FFFFFE" d="M55.227,74.527 L61.352,74.527"/>
    <polygon fill="#42494E" points="55.227 75.527 61.352 75.527 61.352 73.527 55.227 73.527"/>
    <path fill="#FFFFFE" d="M55.227,78.527 L61.352,78.527"/>
    <polygon fill="#42494E" points="55.227 79.527 61.352 79.527 61.352 77.527 55.227 77.527"/>
    <path fill="#FFFFFE" d="M55.227,82.527 L61.352,82.527"/>
    <polygon fill="#42494E" points="55.227 83.527 61.352 83.527 61.352 81.527 55.227 81.527"/>
    <path fill="#FFFFFE" d="M69.227,74.527 L75.352,74.527"/>
    <polygon fill="#42494E" points="69.227 75.527 75.352 75.527 75.352 73.527 69.227 73.527"/>
    <path fill="#FFFFFE" d="M69.227,78.527 L75.352,78.527"/>
    <polygon fill="#42494E" points="69.227 79.527 75.352 79.527 75.352 77.527 69.227 77.527"/>
    <path fill="#FFFFFE" d="M69.227,82.527 L75.352,82.527"/>
    <polygon fill="#42494E" points="69.227 83.527 75.352 83.527 75.352 81.527 69.227 81.527"/>
    <path fill="#FFFFFE" d="M65.373,75.715 L65.373,85.527"/>
    <polygon fill="#42494E" points="64.373 85.528 66.373 85.528 66.373 75.715 64.373 75.715"/>
    <path fill="#FFFFFE" d="M55.227,86.527 L61.352,86.527"/>
    <polygon fill="#42494E" points="55.227 87.527 61.352 87.527 61.352 85.527 55.227 85.527"/>
    <path fill="#FFFFFE" d="M69.227,86.527 L75.352,86.527"/>
    <polygon fill="#42494E" points="69.227 87.527 75.352 87.527 75.352 85.527 69.227 85.527"/>
  </g>
</svg>
