<svg xmlns="http://www.w3.org/2000/svg" width="250" height="250" viewBox="0 0 250 250">
  <g fill="none" fill-rule="evenodd">
    <polyline fill="#DBDBD5" points="82.828 173.663 106.246 197.08 82.828 197.08 80.662 184.247 82.828 173.663"/>
    <polyline fill="#FACD60" points="82.828 197.505 82.828 173.663 58.986 173.663"/>
    <path fill="#434A4F" d="M83.242,196.505 L163.316,196.505 L163.316,55.451 L59.986,55.451 L59.986,173.249 L83.242,196.505 Z M165.316,198.505 L82.414,198.505 L57.986,174.077 L57.986,53.451 L165.316,53.451 L165.316,198.505 Z"/>
    <polygon fill="#434A4F" points="62.986 196.45 64.986 196.45 64.986 192.45 62.986 192.45"/>
    <polygon fill="#434A4F" points="62.986 206.45 64.986 206.45 64.986 202.45 62.986 202.45"/>
    <polygon fill="#434A4F" points="66.986 200.45 70.986 200.45 70.986 198.45 66.986 198.45"/>
    <polygon fill="#434A4F" points="56.986 200.45 60.986 200.45 60.986 198.45 56.986 198.45"/>
    <polygon fill="#434A4F" points="118.991 43.374 120.991 43.374 120.991 39.374 118.991 39.374"/>
    <polygon fill="#434A4F" points="118.991 53.374 120.991 53.374 120.991 49.374 118.991 49.374"/>
    <polygon fill="#434A4F" points="122.991 47.374 126.991 47.374 126.991 45.374 122.991 45.374"/>
    <polygon fill="#434A4F" points="112.991 47.374 116.991 47.374 116.991 45.374 112.991 45.374"/>
    <path fill="#75C7D0" d="M43.016,164.422 C43.016,163.309 42.114,162.407 41.001,162.407 C39.888,162.407 38.986,163.309 38.986,164.422 C38.986,165.535 39.888,166.437 41.001,166.437 C42.114,166.437 43.016,165.535 43.016,164.422"/>
    <path fill="#E9886C" d="M51.221,105.918 C50.245,105.918 49.454,106.709 49.454,107.685 C49.454,108.661 50.245,109.452 51.221,109.452 C52.196,109.452 52.987,108.661 52.987,107.685 C52.987,106.709 52.196,105.918 51.221,105.918"/>
    <polygon fill="#434A4F" points="35 146.419 37 146.419 37 142.419 35 142.419"/>
    <polygon fill="#434A4F" points="35 156.419 37 156.419 37 152.419 35 152.419"/>
    <polygon fill="#434A4F" points="39 150.419 43 150.419 43 148.419 39 148.419"/>
    <polygon fill="#434A4F" points="29 150.419 33 150.419 33 148.419 29 148.419"/>
    <polyline fill="#FACD60" points="176 112.813 175.998 110.813 183.568 110.806 183.57 112.806 176 112.813"/>
    <polyline fill="#FACD60" points="180.938 205.772 178.938 205.77 179.013 111.808 181.013 111.81 180.938 205.772"/>
    <path fill="#42494E" d="M176.924,206.322 L179.903,212.792 L182.895,206.314 L182.975,105.219 C182.976,104.422 182.666,103.672 182.103,103.11 C181.54,102.547 180.793,102.238 179.997,102.238 C179.996,102.238 179.995,102.238 179.994,102.238 C178.347,102.239 177.005,103.581 177.004,105.228 L176.924,206.322 Z M179.901,217.568 L174.924,206.759 L174.924,206.54 L175.004,105.226 C175.006,102.478 177.244,100.24 179.992,100.238 C179.994,100.238 179.995,100.238 179.997,100.238 C181.327,100.238 182.577,100.755 183.517,101.695 C184.458,102.636 184.976,103.889 184.975,105.221 L184.895,206.753 L179.901,217.568 Z"/>
    <polygon fill="#434A4F" points="71 68.374 83 68.374 83 66.374 71 66.374"/>
    <polygon fill="#434A4F" points="71 78.374 155 78.374 155 76.374 71 76.374"/>
    <polygon fill="#434A4F" points="71 82.374 147 82.374 147 80.374 71 80.374"/>
    <path fill="#434A4F" d="M73 94.374L79 94.374 79 88.374 73 88.374 73 94.374zM71 96.374L81 96.374 81 86.374 71 86.374 71 96.374zM73 106.375L79 106.375 79 100.375 73 100.375 73 106.375zM71 108.375L81 108.375 81 98.374 71 98.374 71 108.375z"/>
    <polygon fill="#434A4F" points="84 92.374 108 92.374 108 90.374 84 90.374"/>
    <polygon fill="#434A4F" points="84 104.375 108 104.375 108 102.375 84 102.375"/>
    <path fill="#434A4F" d="M119 94.374L125 94.374 125 88.374 119 88.374 119 94.374zM117 96.374L127 96.374 127 86.374 117 86.374 117 96.374zM119 106.375L125 106.375 125 100.375 119 100.375 119 106.375zM117 108.375L127 108.375 127 98.374 117 98.374 117 108.375z"/>
    <polygon fill="#434A4F" points="130 92.374 154 92.374 154 90.374 130 90.374"/>
    <polygon fill="#434A4F" points="130 104.375 154 104.375 154 102.375 130 102.375"/>
    <polygon fill="#434A4F" points="71 118.399 155 118.399 155 116.399 71 116.399"/>
    <polygon fill="#434A4F" points="71 122.399 147 122.399 147 120.399 71 120.399"/>
    <path fill="#434A4F" d="M73 134.399L79 134.399 79 128.399 73 128.399 73 134.399zM71 136.399L81 136.399 81 126.399 71 126.399 71 136.399zM73 146.399L79 146.399 79 140.399 73 140.399 73 146.399zM71 148.399L81 148.399 81 138.399 71 138.399 71 148.399z"/>
    <polygon fill="#434A4F" points="84 132.399 108 132.399 108 130.399 84 130.399"/>
    <polygon fill="#434A4F" points="84 144.399 108 144.399 108 142.399 84 142.399"/>
    <path fill="#434A4F" d="M119 134.399L125 134.399 125 128.399 119 128.399 119 134.399zM117 136.399L127 136.399 127 126.399 117 126.399 117 136.399zM119 146.399L125 146.399 125 140.399 119 140.399 119 146.399zM117 148.399L127 148.399 127 138.399 117 138.399 117 148.399z"/>
    <polygon fill="#434A4F" points="130 132.399 154 132.399 154 130.399 130 130.399"/>
    <polygon fill="#434A4F" points="130 144.399 154 144.399 154 142.399 130 142.399"/>
    <polygon fill="#434A4F" points="71 157.422 155 157.422 155 155.422 71 155.422"/>
    <polygon fill="#434A4F" points="71 161.422 147 161.422 147 159.422 71 159.422"/>
    <path fill="#434A4F" d="M73,173.422 L79,173.422 L79,167.422 L73,167.422 L73,173.422 Z M71,175.422 L81,175.422 L81,165.422 L71,165.422 L71,175.422 Z"/>
    <polygon fill="#434A4F" points="84 171.422 108 171.422 108 169.422 84 169.422"/>
    <polygon fill="#434A4F" points="84 183.422 108 183.422 108 181.422 84 181.422"/>
    <path fill="#434A4F" d="M119 173.422L125 173.422 125 167.422 119 167.422 119 173.422zM117 175.422L127 175.422 127 165.422 117 165.422 117 175.422zM119 185.422L125 185.422 125 179.422 119 179.422 119 185.422zM117 187.422L127 187.422 127 177.422 117 177.422 117 187.422z"/>
    <polygon fill="#434A4F" points="130 171.422 154 171.422 154 169.422 130 169.422"/>
    <polygon fill="#434A4F" points="130 183.422 154 183.422 154 181.422 130 181.422"/>
    <polyline fill="#FACD60" points="82.828 188.876 82.828 173.663 64.5 173.663 82.828 188.876"/>
    <path fill="#42494E" d="M184.267,63.268 C181.372,57.571 183.65,50.581 189.347,47.686 C192.105,46.284 195.244,46.037 198.19,46.999 C201.133,47.957 203.526,50.005 204.929,52.765 L203.146,53.671 C201.985,51.388 200.005,49.694 197.57,48.9 C195.134,48.107 192.537,48.308 190.253,49.469 C185.54,51.865 183.654,57.648 186.05,62.362 L184.267,63.268"/>
    <path fill="#E9886C" d="M194.574,54.471 C193.64,54.471 192.761,54.835 192.1,55.497 C191.438,56.158 191.074,57.037 191.074,57.971 C191.074,58.906 191.438,59.785 192.1,60.446 C193.424,61.769 195.729,61.768 197.05,60.446 C198.414,59.081 198.414,56.861 197.05,55.497 C196.389,54.835 195.51,54.471 194.574,54.471 Z M194.574,64.471 C192.838,64.471 191.206,63.794 189.979,62.567 C188.751,61.339 188.074,59.707 188.074,57.971 C188.074,56.235 188.751,54.603 189.979,53.375 C191.206,52.148 192.838,51.471 194.574,51.471 C196.311,51.471 197.943,52.147 199.171,53.375 C201.705,55.91 201.705,60.033 199.171,62.567 C197.943,63.795 196.311,64.471 194.574,64.471 Z"/>
    <path fill="#434A4F" d="M191.046,74.893 C191.306,74.893 191.569,74.914 191.835,74.956 C193.92,75.289 195.479,76.85 195.807,78.935 L196.166,81.222 L200.167,80.593 L199.807,78.305 C199.479,76.221 200.482,74.256 202.364,73.3 C204.243,72.342 206.424,72.689 207.916,74.185 L209.552,75.825 L212.419,72.963 L210.782,71.324 C209.292,69.83 208.949,67.65 209.909,65.771 C210.87,63.891 212.843,62.888 214.92,63.224 L217.208,63.588 L217.846,59.589 L215.559,59.224 C213.475,58.892 211.916,57.33 211.588,55.245 C211.261,53.161 212.265,51.196 214.146,50.24 L216.21,49.19 L214.42,45.669 L212.355,46.718 C210.473,47.673 208.295,47.328 206.805,45.834 C205.314,44.34 204.971,42.161 205.931,40.281 L206.984,38.218 L203.377,36.376 L202.323,38.439 C201.364,40.318 199.399,41.315 197.313,40.986 C195.229,40.654 193.67,39.092 193.341,37.007 L192.981,34.719 L188.98,35.348 L189.341,37.637 C189.668,39.721 188.665,41.686 186.783,42.642 C184.905,43.599 182.724,43.251 181.232,41.757 L179.597,40.119 L176.729,42.98 L178.365,44.62 C179.855,46.113 180.199,48.292 179.239,50.171 C178.279,52.051 176.314,53.058 174.229,52.719 L171.94,52.355 L171.303,56.355 L173.59,56.719 C175.675,57.051 177.233,58.614 177.562,60.699 C177.889,62.784 176.885,64.748 175.004,65.704 L172.94,66.753 L174.728,70.271 L176.792,69.222 C178.671,68.268 180.852,68.614 182.344,70.107 C183.834,71.601 184.177,73.781 183.217,75.661 L182.163,77.722 L185.771,79.565 L186.824,77.502 C187.662,75.863 189.266,74.893 191.046,74.893 Z M194.5,83.509 L193.83,79.246 C193.599,77.774 192.485,77.085 191.521,76.931 C190.554,76.775 189.283,77.085 188.605,78.413 L186.642,82.256 L179.472,78.593 L181.436,74.751 C182.113,73.423 181.618,72.211 180.928,71.52 C180.237,70.829 179.026,70.331 177.698,71.005 L173.851,72.96 L170.251,65.876 L174.098,63.92 C175.426,63.246 175.737,61.974 175.586,61.009 C175.434,60.044 174.747,58.929 173.275,58.694 L169.014,58.015 L170.28,50.064 L174.543,50.745 C176.017,50.977 177.014,50.132 177.458,49.262 C177.902,48.392 178.002,47.086 176.949,46.032 L173.901,42.978 L179.599,37.29 L182.648,40.345 C183.701,41.399 185.007,41.3 185.877,40.86 C186.748,40.417 187.597,39.419 187.364,37.948 L186.693,33.684 L194.647,32.432 L195.317,36.697 C195.549,38.168 196.663,38.857 197.628,39.011 C198.588,39.165 199.864,38.856 200.542,37.529 L202.506,33.685 L209.676,37.347 L207.712,41.191 C207.034,42.518 207.53,43.73 208.221,44.421 C208.91,45.113 210.121,45.609 211.449,44.935 L215.297,42.98 L218.899,50.067 L215.052,52.023 C213.724,52.698 213.412,53.969 213.564,54.934 C213.716,55.9 214.402,57.014 215.873,57.249 L220.137,57.929 L218.868,65.879 L214.605,65.199 C213.134,64.968 212.135,65.811 211.69,66.68 C211.246,67.55 211.146,68.856 212.198,69.912 L215.247,72.965 L209.548,78.653 L206.5,75.597 C205.448,74.544 204.141,74.64 203.271,75.083 C202.399,75.526 201.551,76.523 201.783,77.995 L202.454,82.259 L194.5,83.509 Z"/>
    <path fill="#434A4F" d="M192.589,44.075 C192.56,43.524 192.97,43.044 193.52,43.004 C194.069,42.964 194.549,43.384 194.589,43.934 C194.629,44.484 194.209,44.964 193.659,45.004 C193.64,45.004 193.609,45.004 193.589,45.004 C193.069,45.004 192.629,44.604 192.589,44.075 Z M197.359,45.264 L197.35,45.274 C196.81,45.155 196.47,44.615 196.589,44.075 C196.709,43.535 197.239,43.194 197.779,43.314 C198.319,43.434 198.659,43.964 198.539,44.504 C198.439,44.974 198.029,45.294 197.569,45.294 C197.499,45.294 197.43,45.285 197.359,45.264 Z M188.76,45.194 C188.569,44.674 188.829,44.094 189.35,43.905 C189.869,43.714 190.439,43.974 190.629,44.495 C190.829,45.014 190.56,45.585 190.039,45.785 C189.93,45.825 189.81,45.844 189.699,45.844 C189.289,45.844 188.909,45.594 188.76,45.194 Z M200.819,46.564 C200.339,46.304 200.159,45.694 200.419,45.205 C200.689,44.724 201.299,44.544 201.779,44.814 C202.26,45.075 202.439,45.684 202.18,46.165 C201.999,46.504 201.649,46.684 201.299,46.684 C201.14,46.684 200.97,46.644 200.819,46.564 Z M185.39,47.354 C185.06,46.905 185.159,46.285 185.6,45.955 C186.039,45.615 186.659,45.705 186.999,46.155 C187.329,46.594 187.239,47.224 186.799,47.554 C186.619,47.684 186.409,47.754 186.199,47.754 C185.89,47.754 185.589,47.615 185.39,47.354 Z M203.77,48.774 C203.379,48.394 203.379,47.754 203.77,47.365 C204.159,46.974 204.789,46.974 205.18,47.365 C205.569,47.754 205.569,48.394 205.18,48.774 C204.989,48.974 204.729,49.075 204.47,49.075 C204.22,49.075 203.959,48.974 203.77,48.774 Z M182.77,50.365 C182.329,50.035 182.239,49.405 182.569,48.964 C182.909,48.524 183.529,48.434 183.97,48.764 C184.409,49.104 184.499,49.724 184.169,50.165 C183.97,50.434 183.669,50.564 183.369,50.564 C183.159,50.564 182.949,50.504 182.77,50.365 Z M205.989,51.745 C205.72,51.254 205.899,50.644 206.39,50.384 C206.869,50.115 207.479,50.294 207.739,50.785 C208.01,51.264 207.829,51.874 207.339,52.134 C207.189,52.224 207.029,52.264 206.869,52.264 C206.51,52.264 206.169,52.075 205.989,51.745 Z M181.109,53.995 C180.589,53.804 180.329,53.234 180.52,52.714 C180.709,52.194 181.289,51.934 181.81,52.125 C182.329,52.314 182.589,52.894 182.399,53.415 C182.249,53.814 181.859,54.064 181.459,54.064 C181.339,54.064 181.22,54.044 181.109,53.995 Z M207.279,55.205 C207.159,54.665 207.499,54.134 208.039,54.024 C208.579,53.905 209.119,54.245 209.229,54.785 C209.35,55.325 209.01,55.854 208.459,55.974 C208.39,55.984 208.319,55.995 208.249,55.995 C207.789,55.995 207.379,55.674 207.279,55.205 Z M180.539,57.955 C179.989,57.915 179.569,57.434 179.609,56.884 C179.649,56.334 180.129,55.924 180.68,55.964 C181.229,56.004 181.649,56.474 181.609,57.024 C181.569,57.554 181.129,57.955 180.609,57.955 C180.589,57.955 180.56,57.955 180.539,57.955 Z M208.459,59.974 C207.909,59.934 207.499,59.455 207.539,58.905 C207.579,58.354 208.06,57.934 208.609,57.974 C209.159,58.014 209.569,58.495 209.529,59.044 C209.499,59.575 209.06,59.974 208.539,59.974 C208.51,59.974 208.489,59.974 208.459,59.974 Z M179.909,61.144 C179.789,60.604 180.14,60.075 180.68,59.955 C181.22,59.844 181.749,60.184 181.869,60.724 C181.979,61.264 181.64,61.794 181.1,61.915 C181.029,61.924 180.959,61.934 180.89,61.934 C180.43,61.934 180.01,61.615 179.909,61.144 Z M207.339,63.804 C206.819,63.615 206.56,63.035 206.749,62.514 L206.76,62.524 C206.949,62.004 207.52,61.734 208.039,61.934 C208.56,62.124 208.819,62.694 208.629,63.214 C208.479,63.624 208.1,63.865 207.689,63.865 C207.579,63.865 207.459,63.844 207.339,63.804 Z M181.399,65.144 C181.399,65.144 181.399,65.144 181.399,65.155 C181.14,64.665 181.31,64.054 181.799,63.794 C182.279,63.524 182.89,63.705 183.159,64.194 C183.419,64.674 183.239,65.285 182.76,65.544 C182.6,65.634 182.439,65.674 182.279,65.674 C181.919,65.674 181.579,65.484 181.399,65.144 Z M185.369,67.155 L185.379,67.155 L185.369,67.155 Z M205.18,67.165 C204.739,66.835 204.649,66.205 204.979,65.764 C205.31,65.325 205.939,65.234 206.379,65.564 C206.819,65.894 206.909,66.524 206.579,66.964 C206.379,67.224 206.079,67.365 205.779,67.365 C205.569,67.365 205.359,67.304 205.18,67.165 Z M183.959,68.564 C183.569,68.174 183.569,67.544 183.959,67.155 C184.35,66.764 184.979,66.764 185.369,67.155 C185.76,67.544 185.76,68.184 185.369,68.564 C185.18,68.764 184.919,68.865 184.669,68.865 C184.409,68.865 184.149,68.764 183.959,68.564 Z M202.159,69.785 C201.829,69.344 201.919,68.714 202.359,68.384 C202.799,68.054 203.43,68.144 203.76,68.585 C204.089,69.024 203.999,69.655 203.56,69.984 C203.379,70.115 203.169,70.184 202.959,70.184 C202.659,70.184 202.359,70.044 202.159,69.785 Z M187.369,71.134 C186.89,70.865 186.709,70.264 186.979,69.774 C187.239,69.294 187.85,69.115 188.329,69.384 C188.819,69.644 188.999,70.254 188.729,70.734 C188.549,71.064 188.209,71.254 187.85,71.254 C187.689,71.254 187.529,71.214 187.369,71.134 Z M198.52,71.444 C198.329,70.924 198.589,70.344 199.109,70.155 C199.629,69.964 200.199,70.224 200.399,70.745 C200.589,71.264 200.329,71.835 199.81,72.024 C199.689,72.075 199.579,72.094 199.459,72.094 C199.049,72.094 198.669,71.844 198.52,71.444 Z M191.379,72.624 C190.839,72.514 190.489,71.974 190.609,71.434 C190.729,70.894 191.26,70.554 191.799,70.674 C192.339,70.785 192.68,71.325 192.56,71.865 C192.459,72.325 192.049,72.644 191.589,72.644 C191.52,72.644 191.449,72.644 191.379,72.624 Z M194.569,72.004 C194.529,71.455 194.939,70.974 195.489,70.934 C196.039,70.894 196.52,71.314 196.56,71.865 C196.6,72.415 196.18,72.894 195.629,72.934 C195.609,72.934 195.589,72.934 195.569,72.934 C195.039,72.934 194.6,72.535 194.569,72.004 Z"/>
    <path fill="#42494E" d="M196,144.375 L210,144.375 L210,126.375 L196,126.375 L196,144.375 Z M194,146.375 L212,146.375 L212,124.375 L194,124.375 L194,146.375 Z"/>
    <path fill="#42494E" d="M196 150.375L210 150.375 210 146.375 196 146.375 196 150.375zM194 152.375L212 152.375 212 144.375 194 144.375 194 152.375zM196 124.375L210 124.375 210 122.375 196 122.375 196 124.375zM194 126.375L212 126.375 212 120.375 194 120.375 194 126.375z"/>
    <polygon fill="#42494E" points="198 141.375 200 141.375 200 129.375 198 129.375"/>
    <polygon fill="#42494E" points="202 135.375 204 135.375 204 129.375 202 129.375"/>
    <polygon fill="#434A4F" points="213 179.375 215 179.375 215 175.375 213 175.375"/>
    <polygon fill="#434A4F" points="213 189.375 215 189.375 215 185.375 213 185.375"/>
    <polygon fill="#434A4F" points="217 183.375 221 183.375 221 181.375 217 181.375"/>
    <polygon fill="#434A4F" points="207 183.375 211 183.375 211 181.375 207 181.375"/>
    <path fill="#E9886C" d="M204.766 85.374C203.791 85.374 203 86.165 203 87.141 203 88.117 203.791 88.908 204.766 88.908 205.742 88.908 206.533 88.117 206.533 87.141 206.533 86.165 205.742 85.374 204.766 85.374M193.233 205.375C192.258 205.375 191.467 206.165 191.467 207.141 191.467 208.117 192.258 208.908 193.233 208.908 194.209 208.908 195 208.117 195 207.141 195 206.165 194.209 205.375 193.233 205.375"/>
  </g>
</svg>
