<svg xmlns="http://www.w3.org/2000/svg" width="250" height="250" viewBox="0 0 250 250">
  <g fill="none" fill-rule="evenodd">
    <path fill="#42494E" d="M96.488 152.522C96.51 152.44 96.536 152.36 96.568 152.281 96.573 152.267 96.576 152.251 96.582 152.237L96.022 152.237 96.022 150.561 83.981 150.561 83.981 95.574 97.604 95.574 97.604 93.574 81.981 93.574 81.981 152.561 96.475 152.561C96.478 152.547 96.484 152.535 96.488 152.522M151.104 93.574L151.104 95.574 165.27 95.574 165.27 150.561 153.1 150.561 153.1 152.249 151.558 152.249C151.615 152.35 151.666 152.453 151.705 152.561L167.27 152.561 167.27 93.574 151.104 93.574"/>
    <path fill="#E9886C" d="M149.625,105.67 C149.625,91.863 138.432,80.67 124.625,80.67 C110.818,80.67 99.625,91.863 99.625,105.67 C99.625,119.477 110.818,130.67 124.625,130.67 C138.432,130.67 149.625,119.477 149.625,105.67"/>
    <polyline fill="#42494E" points="193.571 161.328 152.021 161.328 152.021 159.328 191.571 159.328 191.571 64.889 57.68 64.889 57.68 159.328 96.021 159.328 96.021 161.328 55.68 161.328 55.68 62.889 193.571 62.889 193.571 161.328"/>
    <path fill="#42494E" d="M124.625,78.177 C109.465,78.177 97.132,90.51 97.132,105.67 C97.132,120.83 109.465,133.163 124.625,133.163 C139.785,133.163 152.118,120.83 152.118,105.67 C152.118,90.51 139.785,78.177 124.625,78.177 Z M124.625,135.163 C108.362,135.163 95.132,121.933 95.132,105.67 C95.132,89.407 108.362,76.177 124.625,76.177 C140.888,76.177 154.118,89.407 154.118,105.67 C154.118,121.933 140.888,135.163 124.625,135.163 Z"/>
    <path fill="#42494E" d="M106.692 127.948L105.382 126.438C111.404 121.208 114.858 113.639 114.858 105.67 114.858 97.683 111.391 90.102 105.345 84.87L106.653 83.358C113.139 88.969 116.858 97.102 116.858 105.67 116.858 114.218 113.153 122.339 106.692 127.948M142.873 128.218C136.212 122.596 132.393 114.378 132.393 105.67 132.393 97.099 136.114 88.964 142.603 83.352L143.911 84.865C137.862 90.097 134.393 97.68 134.393 105.67 134.393 113.787 137.953 121.448 144.162 126.688L142.873 128.218"/>
    <path fill="#FFFFFE" d="M124.557,77.039 L124.557,134.026"/>
    <polygon fill="#42494E" points="123.557 134.026 125.557 134.026 125.557 77.039 123.557 77.039"/>
    <path fill="#42494E" d="M97.022,151.236 L152.1,151.25 L152.1,147.932 L97.022,147.919 L97.022,151.236 Z M154.1,153.25 L95.022,153.236 L95.022,145.919 L154.1,145.932 L154.1,153.25 Z"/>
    <path fill="#FFFFFE" d="M153.05,105.533 L96.063,105.533"/>
    <polygon fill="#42494E" points="96.063 106.533 153.05 106.533 153.05 104.533 96.063 104.533"/>
    <polyline fill="#42494E" points="152.854 208.894 95.325 152.953 96.72 151.52 150.854 204.159 150.854 146.932 152.854 146.932 152.854 208.894"/>
    <polyline fill="#42494E" points="150.917 197.714 106.147 152.943 107.562 151.529 152.331 196.3 150.917 197.714"/>
    <polyline fill="#42494E" points="151.032 186.682 117.294 152.943 118.708 151.529 152.446 185.268 151.032 186.682"/>
    <polyline fill="#42494E" points="150.917 175.714 128.147 152.943 129.562 151.529 152.331 174.3 150.917 175.714"/>
    <polyline fill="#42494E" points="151.032 164.682 139.294 152.943 140.708 151.529 152.446 163.268 151.032 164.682"/>
    <polyline fill="#42494E" points="95.854 208.888 95.854 152.11 97.854 152.11 97.854 204.165 151.013 152.664 152.405 154.1 95.854 208.888"/>
    <polyline fill="#42494E" points="107.944 207.919 96.749 197.25 98.128 195.803 107.921 205.134 150.893 162.804 152.297 164.229 107.944 207.919"/>
    <polyline fill="#42494E" points="118.862 207.925 96.166 185.815 97.562 184.384 118.856 205.128 150.819 173.729 152.222 175.157 118.862 207.925"/>
    <polyline fill="#42494E" points="129.927 207.925 96.736 175.239 98.141 173.813 129.938 205.128 150.689 185.008 152.082 186.443 129.927 207.925"/>
    <polyline fill="#42494E" points="140.845 207.917 96.162 163.811 97.566 162.388 140.874 205.136 151.125 195.426 152.5 196.877 140.845 207.917"/>
    <polyline fill="#42494E" points="97.708 197.965 96.294 196.551 141.315 151.529 142.729 152.943 97.708 197.965"/>
    <polyline fill="#42494E" points="98.135 186.391 96.721 184.977 130.168 151.529 131.582 152.943 98.135 186.391"/>
    <polyline fill="#42494E" points="97.708 175.965 96.294 174.551 119.315 151.529 120.729 152.943 97.708 175.965"/>
    <polyline fill="#42494E" points="98.135 164.391 96.721 162.977 108.168 151.529 109.582 152.943 98.135 164.391"/>
    <path fill="#DDDED9" d="M124.625,134.163 C110.597,134.163 98.945,124.022 96.579,110.673 C96.291,112.298 96.132,113.968 96.132,115.676 C96.132,131.412 108.889,144.169 124.625,144.169 C140.362,144.169 153.119,131.412 153.119,115.676 C153.119,113.968 152.96,112.298 152.672,110.673 C150.306,124.022 138.654,134.163 124.625,134.163"/>
    <path fill="#42494E" d="M95.594 110.847C95.287 109.113 95.132 107.372 95.132 105.67L97.132 105.67C97.132 107.255 97.277 108.88 97.562 110.499L95.594 110.847M153.656 110.848L151.688 110.498C151.974 108.886 152.118 107.261 152.118 105.67L154.118 105.67C154.118 107.378 153.963 109.119 153.656 110.848"/>
    <path fill="#42494E" d="M124.625,135.163 C110.301,135.163 98.091,124.936 95.594,110.848 L97.562,110.498 C99.891,123.631 111.271,133.163 124.625,133.163 C137.979,133.163 149.359,123.631 151.688,110.498 L153.656,110.848 C151.159,124.936 138.949,135.163 124.625,135.163"/>
    <polygon fill="#42494E" points="113.854 73.11 115.854 73.11 115.854 49.11 113.854 49.11"/>
    <polygon fill="#42494E" points="122.859 68.107 124.859 68.107 124.859 44.107 122.859 44.107"/>
    <polygon fill="#42494E" points="132.865 74.11 134.865 74.11 134.865 50.11 132.865 50.11"/>
    <polygon fill="#434A4F" points="212.053 166.151 214.053 166.151 214.053 162.151 212.053 162.151"/>
    <polygon fill="#434A4F" points="212.053 176.151 214.053 176.151 214.053 172.151 212.053 172.151"/>
    <polygon fill="#434A4F" points="216.053 170.151 220.053 170.151 220.053 168.151 216.053 168.151"/>
    <polygon fill="#434A4F" points="206.053 170.151 210.053 170.151 210.053 168.151 206.053 168.151"/>
    <polygon fill="#434A4F" points="55.959 46.079 57.959 46.079 57.959 42.079 55.959 42.079"/>
    <polygon fill="#434A4F" points="55.959 56.079 57.959 56.079 57.959 52.079 55.959 52.079"/>
    <polygon fill="#434A4F" points="59.959 50.079 63.959 50.079 63.959 48.079 59.959 48.079"/>
    <polygon fill="#434A4F" points="49.959 50.079 53.959 50.079 53.959 48.079 49.959 48.079"/>
    <polygon fill="#434A4F" points="35.947 136.134 37.947 136.134 37.947 132.134 35.947 132.134"/>
    <polygon fill="#434A4F" points="35.947 146.134 37.947 146.134 37.947 142.134 35.947 142.134"/>
    <polygon fill="#434A4F" points="39.947 140.134 43.947 140.134 43.947 138.134 39.947 138.134"/>
    <polygon fill="#434A4F" points="29.947 140.134 33.947 140.134 33.947 138.134 29.947 138.134"/>
    <path fill="#E9886C" d="M178.188 113.103C178.188 114.392 179.232 115.437 180.521 115.437 181.81 115.437 182.854 114.392 182.854 113.103 182.854 111.815 181.81 110.77 180.521 110.77 179.232 110.77 178.188 111.815 178.188 113.103M156.854 129.103C156.854 129.656 157.302 130.103 157.854 130.103 158.407 130.103 158.854 129.656 158.854 129.103 158.854 128.551 158.407 128.103 157.854 128.103 157.302 128.103 156.854 128.551 156.854 129.103M180.854 191.103C180.854 192.76 179.511 194.103 177.854 194.103 176.197 194.103 174.854 192.76 174.854 191.103 174.854 189.447 176.197 188.103 177.854 188.103 179.511 188.103 180.854 189.447 180.854 191.103M72.854 180.103C72.854 178.999 71.959 178.103 70.854 178.103 69.75 178.103 68.854 178.999 68.854 180.103 68.854 181.208 69.75 182.103 70.854 182.103 71.959 182.103 72.854 181.208 72.854 180.103M44.854 122.103C44.854 120.999 45.75 120.103 46.854 120.103 47.959 120.103 48.854 120.999 48.854 122.103 48.854 123.208 47.959 124.103 46.854 124.103 45.75 124.103 44.854 123.208 44.854 122.103M68.854 102.103C68.854 100.999 68.854 100.103 68.854 100.103 68.854 100.103 68.854 100.999 68.854 102.103 68.854 103.208 68.854 104.103 68.854 104.103 68.854 104.103 68.854 103.208 68.854 102.103M86.854 80.103C86.854 78.999 87.75 78.104 88.854 78.104 89.959 78.104 90.854 78.999 90.854 80.103 90.854 81.208 89.959 82.104 88.854 82.104 87.75 82.104 86.854 81.208 86.854 80.103"/>
  </g>
</svg>
