<svg xmlns="http://www.w3.org/2000/svg" width="250" height="250" viewBox="0 0 250 250">
  <g fill="none" fill-rule="evenodd">
    <path fill="#434A4F" d="M199.888,57.662 L197.888,57.662 L197.888,53.667 C197.888,50.359 195.197,47.667 191.888,47.667 L191.888,45.667 C196.299,45.667 199.888,49.256 199.888,53.667 L199.888,57.662"/>
    <polygon fill="#434A4F" points="101.27 65.662 205.888 65.662 205.888 63.662 101.27 63.662"/>
    <polygon fill="#434A4F" points="87.27 47.667 191.888 47.667 191.888 45.667 87.27 45.667"/>
    <path fill="#FACD60" d="M195.888,53.667 L195.888,54.662 L105.27,54.661 L105.27,57.661 C105.27,59.867 103.476,61.661 101.27,61.661 C99.064,61.661 97.27,59.867 97.27,57.661 L97.27,53.667 C97.27,52.246 96.972,50.893 96.435,49.667 L191.888,49.667 C194.094,49.667 195.888,51.462 195.888,53.667"/>
    <polyline fill="#FACD60" points="100.322 168.617 100.322 197.628 108.322 193.625 116.322 197.628 116.322 168.617 108.447 171.745 100.322 168.617"/>
    <path fill="#434A4F" d="M108.821,148.121 C102.756,148.121 97.822,153.055 97.822,159.121 C97.822,165.186 102.756,170.121 108.821,170.121 C114.887,170.121 119.821,165.186 119.821,159.121 C119.821,153.055 114.887,148.121 108.821,148.121 Z M108.821,172.121 C101.653,172.121 95.822,166.289 95.822,159.121 C95.822,151.953 101.653,146.121 108.821,146.121 C115.99,146.121 121.821,151.953 121.821,159.121 C121.821,166.289 115.99,172.121 108.821,172.121 Z"/>
    <path fill="#FACD60" d="M116.822,159.12 C116.822,163.539 113.24,167.12 108.822,167.12 C104.403,167.12 100.822,163.539 100.822,159.12 C100.822,154.702 104.403,151.12 108.822,151.12 C113.24,151.12 116.822,154.702 116.822,159.12"/>
    <polygon fill="#434A4F" points="139.237 151.625 168.319 151.625 168.319 149.625 139.237 149.625"/>
    <polygon fill="#434A4F" points="139.32 155.542 160.319 155.542 160.319 153.542 139.32 153.542"/>
    <path fill="#434A4F" d="M145.319 170.541C142.01 170.541 139.319 167.849 139.319 164.542 139.318 162.967 139.95 161.467 141.098 160.32 142.246 159.172 143.745 158.541 145.319 158.541 148.628 158.541 151.319 161.232 151.319 164.541L151.319 166.542C151.319 167.093 151.767 167.542 152.318 167.542 152.87 167.542 153.319 167.093 153.319 166.542 153.319 164.887 154.665 163.542 156.318 163.542 157.972 163.542 159.319 164.887 159.319 166.542 159.319 167.093 159.767 167.542 160.318 167.542 160.871 167.542 161.318 167.989 161.318 168.542 161.318 169.094 160.871 169.542 160.318 169.542 158.665 169.542 157.319 168.196 157.319 166.542 157.319 165.99 156.871 165.542 156.319 165.542 155.767 165.542 155.319 165.99 155.319 166.542 155.319 168.196 153.973 169.542 152.319 169.542 150.665 169.542 149.319 168.196 149.319 166.542L149.319 164.541C149.319 162.334 147.525 160.541 145.319 160.541 144.279 160.541 143.282 160.964 142.512 161.734 141.742 162.503 141.319 163.5 141.319 164.542 141.319 166.747 143.113 168.541 145.319 168.541 145.872 168.541 146.319 168.988 146.319 169.541 146.319 170.093 145.872 170.541 145.319 170.541M164.319 169.543C164.049 169.543 163.799 169.433 163.609 169.253 163.42 169.063 163.319 168.803 163.319 168.543 163.319 168.273 163.429 168.023 163.609 167.833 163.889 167.553 164.33 167.463 164.7 167.614 164.819 167.673 164.929 167.744 165.03 167.833 165.21 168.023 165.319 168.273 165.319 168.543 165.319 168.803 165.219 169.053 165.03 169.253 164.84 169.433 164.58 169.543 164.319 169.543M135.319 173.624C135.049 173.624 134.799 173.523 134.61 173.333 134.42 173.143 134.32 172.893 134.32 172.624 134.32 172.364 134.429 172.103 134.61 171.914 134.98 171.543 135.649 171.543 136.019 171.914 136.21 172.103 136.319 172.364 136.319 172.624 136.319 172.893 136.21 173.143 136.019 173.333 135.929 173.423 135.819 173.494 135.7 173.553 135.58 173.603 135.45 173.624 135.319 173.624M138.319 172.624C138.319 172.074 138.769 171.624 139.319 171.624 139.87 171.624 140.319 172.074 140.319 172.624 140.319 173.173 139.87 173.624 139.319 173.624 138.769 173.624 138.319 173.173 138.319 172.624zM142.319 172.624C142.319 172.074 142.769 171.624 143.319 171.624 143.87 171.624 144.319 172.074 144.319 172.624 144.319 173.173 143.87 173.624 143.319 173.624 142.769 173.624 142.319 173.173 142.319 172.624zM146.319 172.624C146.319 172.074 146.769 171.624 147.319 171.624 147.87 171.624 148.319 172.074 148.319 172.624 148.319 173.173 147.87 173.624 147.319 173.624 146.769 173.624 146.319 173.173 146.319 172.624zM150.319 172.624C150.319 172.074 150.759 171.624 151.319 171.624 151.87 171.624 152.319 172.074 152.319 172.624 152.319 173.173 151.87 173.624 151.319 173.624 150.759 173.624 150.319 173.173 150.319 172.624zM154.319 172.624C154.319 172.074 154.759 171.624 155.319 171.624 155.87 171.624 156.319 172.074 156.319 172.624 156.319 173.173 155.87 173.624 155.319 173.624 154.759 173.624 154.319 173.173 154.319 172.624zM158.319 172.624C158.319 172.074 158.759 171.624 159.319 171.624 159.87 171.624 160.319 172.074 160.319 172.624 160.319 173.173 159.87 173.624 159.319 173.624 158.759 173.624 158.319 173.173 158.319 172.624zM162.319 172.624C162.319 172.074 162.769 171.624 163.319 171.624 163.87 171.624 164.319 172.074 164.319 172.624 164.319 173.173 163.87 173.624 163.319 173.624 162.769 173.624 162.319 173.173 162.319 172.624zM166.319 172.624C166.319 172.074 166.769 171.624 167.319 171.624 167.87 171.624 168.319 172.074 168.319 172.624 168.319 173.173 167.87 173.624 167.319 173.624 166.769 173.624 166.319 173.173 166.319 172.624zM171.319 173.624C171.049 173.624 170.799 173.523 170.609 173.333 170.42 173.143 170.319 172.893 170.319 172.624 170.319 172.364 170.429 172.103 170.609 171.914 170.99 171.543 171.66 171.553 172.019 171.914 172.21 172.103 172.319 172.364 172.319 172.624 172.319 172.893 172.21 173.143 172.019 173.333 171.84 173.523 171.59 173.624 171.319 173.624"/>
    <polygon fill="#E9886C" points="139.322 147.625 148.321 147.625 148.321 145.625 139.322 145.625"/>
    <polygon fill="#434A4F" points="97.322 87.657 115.321 87.657 115.321 85.657 97.322 85.657"/>
    <polygon fill="#434A4F" points="97.322 91.657 115.321 91.657 115.321 89.657 97.322 89.657"/>
    <polygon fill="#434A4F" points="103.321 102.664 169.322 102.664 169.322 100.664 103.321 100.664"/>
    <polygon fill="#434A4F" points="97.322 106.664 169.323 106.664 169.323 104.664 97.322 104.664"/>
    <polygon fill="#434A4F" points="97.322 110.664 169.323 110.664 169.323 108.664 97.322 108.664"/>
    <polygon fill="#434A4F" points="97.322 114.664 157.323 114.664 157.323 112.664 97.322 112.664"/>
    <polygon fill="#434A4F" points="157.322 86.654 169.322 86.654 169.322 84.654 157.322 84.654"/>
    <path fill="#434A4F" d="M74.254,184.671 C69.842,184.671 66.254,181.083 66.254,176.671 L66.254,173.078 C66.254,169.546 63.381,166.673 59.85,166.673 L59.85,164.673 C64.484,164.673 68.254,168.444 68.254,173.078 L68.254,176.671 C68.254,179.98 70.945,182.671 74.254,182.671 L74.254,184.671"/>
    <path fill="#434A4F" d="M66.937,173.677 L52.254,173.677 L52.254,172.677 C52.254,168.266 55.842,164.677 60.254,164.677 L79.754,164.677 C80.306,164.677 80.754,165.125 80.754,165.677 C80.754,166.23 80.306,166.677 79.754,166.677 L60.254,166.677 C57.286,166.677 54.815,168.843 54.337,171.677 L66.937,171.677 C67.489,171.677 67.937,172.125 67.937,172.677 C67.937,173.23 67.489,173.677 66.937,173.677"/>
    <path fill="#434A4F" d="M107.27,56.662 L107.27,57.662 C107.27,60.97 104.578,63.662 101.27,63.662 C97.962,63.662 95.27,60.97 95.27,57.662 L95.27,53.667 C95.27,49.256 91.681,45.667 87.27,45.667 C82.859,45.667 79.27,49.256 79.27,53.667 L79.28,76.67 L81.278,76.67 L81.27,56.664 L81.27,53.667 C81.27,50.359 83.961,47.667 87.27,47.667 C90.578,47.667 93.27,50.359 93.27,53.667 L93.27,57.662 C93.27,62.073 96.859,65.662 101.27,65.662 C105.342,65.662 108.714,62.602 109.208,58.662 L211.805,58.662 C211.328,61.496 208.856,63.662 205.888,63.662 L185.389,63.662 L185.27,173.666 L185.27,176.657 C185.27,179.964 182.579,182.656 179.268,182.656 L78.567,182.657 C80.255,181.19 81.321,179.043 81.321,176.657 L81.291,106.671 L79.294,106.671 L79.321,166.662 L79.321,176.657 C79.321,179.964 76.578,182.656 73.206,182.656 C72.654,182.656 72.206,183.103 72.206,183.656 C72.206,184.208 72.654,184.656 73.206,184.656 C73.311,184.656 73.416,184.654 73.52,184.65 L178.822,184.657 L179.27,184.656 C183.681,184.656 187.27,181.068 187.27,176.657 L187.387,65.662 L205.888,65.662 C210.299,65.662 213.888,62.073 213.888,57.662 L213.888,56.662 L107.27,56.662"/>
    <polyline fill="#42494E" points="81.261 82.587 81.261 84.587 84.261 84.587 84.261 102.67 52.178 102.67 52.178 84.587 55.178 84.587 55.178 82.587 50.178 82.587 50.178 104.67 86.261 104.67 86.261 82.587 81.261 82.587"/>
    <path fill="#42494E" d="M56.178,98.67 L66.826,98.67 L68.258,100.233 L69.853,98.67 L80.261,98.67 L80.261,80.587 L70.669,80.587 L68.205,83.001 L65.84,80.587 L56.178,80.587 L56.178,98.67 Z M68.181,103.108 L65.947,100.67 L54.178,100.67 L54.178,78.587 L66.681,78.587 L68.235,80.173 L69.853,78.587 L82.261,78.587 L82.261,100.67 L70.669,100.67 L68.181,103.108 Z"/>
    <path fill="#FFFFFE" d="M58.074,83.671 L64.199,83.671"/>
    <polygon fill="#42494E" points="58.074 84.67 64.199 84.67 64.199 82.67 58.074 82.67"/>
    <path fill="#FFFFFE" d="M58.074,87.671 L64.199,87.671"/>
    <polygon fill="#42494E" points="58.074 88.67 64.199 88.67 64.199 86.67 58.074 86.67"/>
    <path fill="#FFFFFE" d="M58.074,91.671 L64.199,91.671"/>
    <polygon fill="#42494E" points="58.074 92.67 64.199 92.67 64.199 90.67 58.074 90.67"/>
    <path fill="#FFFFFE" d="M72.074,83.671 L78.199,83.671"/>
    <polygon fill="#42494E" points="72.074 84.67 78.199 84.67 78.199 82.67 72.074 82.67"/>
    <path fill="#FFFFFE" d="M72.074,87.671 L78.199,87.671"/>
    <polygon fill="#42494E" points="72.074 88.67 78.199 88.67 78.199 86.67 72.074 86.67"/>
    <path fill="#FFFFFE" d="M72.074,91.671 L78.199,91.671"/>
    <polygon fill="#42494E" points="72.074 92.67 78.199 92.67 78.199 90.67 72.074 90.67"/>
    <path fill="#FFFFFE" d="M68.22,84.858 L68.22,94.671"/>
    <polygon fill="#42494E" points="67.22 94.671 69.22 94.671 69.22 84.858 67.22 84.858"/>
    <path fill="#FFFFFE" d="M58.074,95.671 L64.199,95.671"/>
    <polygon fill="#42494E" points="58.074 96.67 64.199 96.67 64.199 94.67 58.074 94.67"/>
    <path fill="#FFFFFE" d="M72.074,95.671 L78.199,95.671"/>
    <polygon fill="#42494E" points="72.074 96.67 78.199 96.67 78.199 94.67 72.074 94.67"/>
    <path fill="#42494E" d="M170.132,142.664 L225.297,142.664 C226.951,142.664 228.297,141.318 228.297,139.664 C228.297,138.009 226.951,136.664 225.297,136.664 L170.132,136.664 L163.625,139.664 L170.132,142.664 Z M225.297,144.664 L169.692,144.664 L158.849,139.664 L169.692,134.664 L225.297,134.664 C228.053,134.664 230.297,136.907 230.297,139.664 C230.297,142.42 228.053,144.664 225.297,144.664 Z"/>
    <polygon fill="#42494E" points="217.686 143.664 219.686 143.664 219.686 136.065 217.686 136.065"/>
    <polygon fill="#42494E" points="170.68 140.635 218.686 140.635 218.686 138.635 170.68 138.635"/>
    <polygon fill="#434A4F" points="211.36 162.669 213.36 162.669 213.36 158.669 211.36 158.669"/>
    <polygon fill="#434A4F" points="211.36 172.669 213.36 172.669 213.36 168.669 211.36 168.669"/>
    <polygon fill="#434A4F" points="215.36 166.669 219.36 166.669 219.36 164.669 215.36 164.669"/>
    <polygon fill="#434A4F" points="205.36 166.669 209.36 166.669 209.36 164.669 205.36 164.669"/>
    <polygon fill="#434A4F" points="44.26 132.652 46.26 132.652 46.26 128.652 44.26 128.652"/>
    <polygon fill="#434A4F" points="44.26 142.652 46.26 142.652 46.26 138.652 44.26 138.652"/>
    <polygon fill="#434A4F" points="48.26 136.652 52.26 136.652 52.26 134.652 48.26 134.652"/>
    <polygon fill="#434A4F" points="38.26 136.652 42.26 136.652 42.26 134.652 38.26 134.652"/>
    <polygon fill="#434A4F" points="200.353 82.622 202.353 82.622 202.353 78.622 200.353 78.622"/>
    <polygon fill="#434A4F" points="200.353 92.622 202.353 92.622 202.353 88.622 200.353 88.622"/>
    <polygon fill="#434A4F" points="204.353 86.622 208.353 86.622 208.353 84.622 204.353 84.622"/>
    <polygon fill="#434A4F" points="194.353 86.622 198.353 86.622 198.353 84.622 194.353 84.622"/>
    <path fill="#DBDBD5" d="M200.77,111.164 C200.77,112.82 199.427,114.164 197.77,114.164 C196.113,114.164 194.77,112.82 194.77,111.164 C194.77,109.507 196.113,108.164 197.77,108.164 C199.427,108.164 200.77,109.507 200.77,111.164"/>
    <path fill="#E9886C" d="M206.27,190.664 C206.27,192.873 204.479,194.664 202.27,194.664 C200.061,194.664 198.27,192.873 198.27,190.664 C198.27,188.454 200.061,186.664 202.27,186.664 C204.479,186.664 206.27,188.454 206.27,190.664"/>
    <path fill="#42494E" d="M169.442,196.336 C168.674,196.336 167.905,196.629 167.32,197.213 C166.151,198.383 166.151,200.287 167.32,201.457 C168.491,202.627 170.394,202.625 171.563,201.457 C172.732,200.287 172.732,198.383 171.563,197.213 C170.978,196.629 170.21,196.336 169.442,196.336 Z M169.442,204.333 C168.161,204.333 166.881,203.845 165.906,202.871 C163.958,200.921 163.958,197.749 165.906,195.799 C167.855,193.85 171.028,193.85 172.977,195.799 C174.925,197.749 174.925,200.921 172.977,202.871 C172.003,203.845 170.722,204.333 169.442,204.333 Z"/>
    <path fill="#E9886C" d="M64.77,121.164 C64.77,122.268 63.874,123.164 62.77,123.164 C61.665,123.164 60.77,122.268 60.77,121.164 C60.77,120.059 61.665,119.164 62.77,119.164 C63.874,119.164 64.77,120.059 64.77,121.164"/>
    <path fill="#FACD60" d="M69.271,168.677 C69.897,170.014 70.247,171.506 70.247,173.077 L70.248,176.672 C70.248,178.68 71.734,180.347 73.665,180.63 C75.686,180.397 77.315,178.672 77.315,176.656 L77.315,168.677 L69.271,168.677"/>
    <polygon fill="#434A4F" points="103.321 120.664 169.322 120.664 169.322 118.664 103.321 118.664"/>
    <polygon fill="#434A4F" points="97.322 124.664 169.323 124.664 169.323 122.664 97.322 122.664"/>
    <polygon fill="#434A4F" points="97.322 128.664 169.323 128.664 169.323 126.664 97.322 126.664"/>
    <polygon fill="#434A4F" points="97.322 132.664 157.323 132.664 157.323 130.664 97.322 130.664"/>
  </g>
</svg>
