<svg xmlns="http://www.w3.org/2000/svg" width="250" height="250" viewBox="0 0 250 250">
  <g fill="none" fill-rule="evenodd">
    <path fill="#DBDBD5" d="M113.04,130.498 C113.04,126.08 116.622,122.498 121.04,122.498 C122.84,122.498 124.496,123.1 125.833,124.104 L159.352,104.752 L154.352,96.091 L72.956,143.085 L77.956,151.746 L113.102,131.454 C113.065,131.14 113.04,130.822 113.04,130.498"/>
    <path fill="#75C7D0" d="M178.684,60.259 L195.55,89.472 C196.737,83.594 195.875,77.278 192.641,71.676 C189.407,66.075 184.368,62.17 178.684,60.259"/>
    <polyline fill="#DBDBD5" points="67.76 146.085 41.779 161.085 39.779 157.621 65.76 142.621 67.76 146.085"/>
    <polyline fill="#DBDBD5" points="73.956 144.817 68.76 147.817 70.76 151.282 75.956 148.282 73.956 144.817"/>
    <polyline fill="#DBDBD5" points="189.25 80.561 156.352 99.555 161.352 108.216 194.25 89.222 189.25 80.561"/>
    <path fill="#42494E" d="M39.646,155.39 L43.646,162.318 L67.894,148.318 L63.894,141.39 L39.646,155.39 Z M42.913,165.05 L36.913,154.658 L64.627,138.658 L70.627,149.05 L42.913,165.05 Z"/>
    <path fill="#42494E" d="M62.626,135.194 L72.626,152.514 L76.09,150.514 L66.09,133.194 L62.626,135.194 Z M71.894,155.246 L59.894,134.461 L66.822,130.461 L78.822,151.246 L71.894,155.246 Z"/>
    <polyline fill="#42494E" points="79.09 155.71 63.09 127.997 146.218 80.003 162.218 107.716 128.55 127.155 127.55 125.422 159.486 106.984 145.486 82.736 65.822 128.73 79.822 152.978 113.846 133.334 114.846 135.067 79.09 155.71"/>
    <path fill="#42494E" d="M145.218 78.272L163.218 109.449 194.385 91.454 176.385 60.278 145.218 78.272zM162.486 112.181L142.486 77.539 177.117 57.545 197.117 92.187 162.486 112.181zM121.04 123.498C117.18 123.498 114.04 126.639 114.04 130.498 114.04 134.358 117.18 137.498 121.04 137.498 124.9 137.498 128.04 134.358 128.04 130.498 128.04 126.639 124.9 123.498 121.04 123.498zM121.04 139.498C116.078 139.498 112.04 135.461 112.04 130.498 112.04 125.535 116.078 121.498 121.04 121.498 126.002 121.498 130.04 125.535 130.04 130.498 130.04 135.461 126.002 139.498 121.04 139.498z"/>
    <path fill="#42494E" d="M121.04,123.498 C117.18,123.498 114.04,126.639 114.04,130.498 C114.04,134.358 117.18,137.498 121.04,137.498 C124.9,137.498 128.04,134.358 128.04,130.498 C128.04,126.639 124.9,123.498 121.04,123.498 Z M121.04,139.498 C116.078,139.498 112.04,135.461 112.04,130.498 C112.04,125.535 116.078,121.498 121.04,121.498 C126.002,121.498 130.04,125.535 130.04,130.498 C130.04,135.461 126.002,139.498 121.04,139.498 Z"/>
    <polygon fill="#42494E" points="118.04 194.498 120.04 194.498 120.04 190.498 118.04 190.498"/>
    <polygon fill="#42494E" points="122.04 194.498 124.04 194.498 124.04 190.498 122.04 190.498"/>
    <polyline fill="#42494E" points="94.656 195.094 93.05 193.903 96.018 189.903 97.624 191.094 94.656 195.094"/>
    <polyline fill="#42494E" points="147.424 195.094 144.456 191.094 146.063 189.903 149.03 193.903 147.424 195.094"/>
    <polygon fill="#42494E" points="119.04 154.837 123.04 154.837 123.04 152.837 119.04 152.837"/>
    <path fill="#42494E" d="M98.808,189.498 L118.04,189.498 L118.04,169.498 L113.646,169.498 L98.808,189.498 Z M120.04,191.498 L94.834,191.498 L112.64,167.498 L120.04,167.498 L120.04,191.498 Z M124.04,189.498 L143.272,189.498 L128.433,169.498 L124.04,169.498 L124.04,189.498 Z M147.247,191.498 L122.04,191.498 L122.04,167.498 L129.44,167.498 L147.247,191.498 Z M170.04,221.498 L164.04,221.498 L164.04,217.944 L158.82,210.452 L147.724,195.498 L124.04,195.498 L124.04,221.498 L118.04,221.498 L118.04,195.498 L94.356,195.498 L83.243,210.477 L78.04,217.944 L78.04,221.498 L72.04,221.498 L72.04,215.507 L72.237,215.242 L118.04,153.507 L118.04,138.503 L120.04,138.503 L120.04,154.167 L119.843,154.433 L74.04,216.167 L74.04,219.498 L76.04,219.498 L76.04,217.315 L81.62,209.31 L93.35,193.498 L120.04,193.498 L120.04,219.498 L122.04,219.498 L122.04,193.498 L148.73,193.498 L160.443,209.285 L166.04,217.315 L166.04,219.498 L168.04,219.498 L168.04,216.167 L122.04,154.167 L122.04,138.503 L124.04,138.503 L124.04,153.507 L170.04,215.507 L170.04,221.498 Z"/>
    <polygon fill="#42494E" points="108.04 169.498 134.04 169.498 134.04 167.498 108.04 167.498"/>
    <path fill="#DBDBD5" d="M195.04,49.498 C195.04,51.155 193.697,52.498 192.04,52.498 C190.383,52.498 189.04,51.155 189.04,49.498 C189.04,47.841 190.383,46.498 192.04,46.498 C193.697,46.498 195.04,47.841 195.04,49.498"/>
    <path fill="#E9886C" d="M212.039,58.498 C212.039,60.707 210.248,62.498 208.039,62.498 C205.83,62.498 204.039,60.707 204.039,58.498 C204.039,56.289 205.83,54.498 208.039,54.498 C210.248,54.498 212.039,56.289 212.039,58.498"/>
    <path fill="#42494E" d="M125.04 30.5C124.271 30.5 123.503 30.792 122.918 31.377 121.749 32.547 121.749 34.451 122.918 35.62 124.052 36.752 126.027 36.754 127.161 35.62 128.331 34.451 128.331 32.547 127.161 31.377 126.576 30.792 125.808 30.5 125.04 30.5zM125.04 38.499C123.704 38.499 122.449 37.979 121.504 37.035 119.555 35.085 119.555 31.912 121.504 29.963 123.454 28.015 126.626 28.014 128.575 29.963 130.525 31.912 130.525 35.085 128.575 37.035 127.631 37.979 126.375 38.499 125.04 38.499zM180.04 125.498C173.423 125.498 168.04 130.881 168.04 137.498 168.04 144.116 173.423 149.498 180.04 149.498 186.657 149.498 192.04 144.116 192.04 137.498 192.04 130.881 186.657 125.498 180.04 125.498zM180.04 151.498C172.32 151.498 166.04 145.218 166.04 137.498 166.04 129.779 172.32 123.498 180.04 123.498 187.76 123.498 194.04 129.779 194.04 137.498 194.04 145.218 187.76 151.498 180.04 151.498z"/>
    <path fill="#42494E" d="M180.04 141.498C173.323 141.498 167.003 141.184 162.243 140.613 154.674 139.704 154.04 138.529 154.04 137.498 154.04 136.585 154.04 134.885 166.967 133.938L167.114 135.932C160.948 136.384 157.848 137.044 156.585 137.507 159.053 138.434 167.485 139.498 180.04 139.498 192.595 139.498 201.027 138.434 203.495 137.507 202.232 137.044 199.132 136.384 192.966 135.932L193.113 133.938C206.04 134.885 206.04 136.585 206.04 137.498 206.04 138.529 205.406 139.704 197.837 140.613 193.077 141.184 186.757 141.498 180.04 141.498M83.04 99.498C82.489 99.498 82.04 99.947 82.04 100.498 82.04 101.05 82.489 101.498 83.04 101.498 83.591 101.498 84.04 101.05 84.04 100.498 84.04 99.947 83.591 99.498 83.04 99.498zM83.04 103.498C81.386 103.498 80.04 102.153 80.04 100.498 80.04 98.844 81.386 97.498 83.04 97.498 84.694 97.498 86.04 98.844 86.04 100.498 86.04 102.153 84.694 103.498 83.04 103.498z"/>
    <path fill="#E9886C" d="M91.04 67.498C91.04 69.155 89.697 70.498 88.04 70.498 86.383 70.498 85.04 69.155 85.04 67.498 85.04 65.841 86.383 64.498 88.04 64.498 89.697 64.498 91.04 65.841 91.04 67.498M147.04 47.499C147.04 48.604 146.145 49.499 145.04 49.499 143.935 49.499 143.04 48.604 143.04 47.499 143.04 46.394 143.935 45.499 145.04 45.499 146.145 45.499 147.04 46.394 147.04 47.499"/>
    <polygon fill="#434A4F" points="205.087 120.529 207.087 120.529 207.087 116.529 205.087 116.529"/>
    <polygon fill="#434A4F" points="205.087 130.529 207.087 130.529 207.087 126.529 205.087 126.529"/>
    <polygon fill="#434A4F" points="209.087 124.529 213.087 124.529 213.087 122.529 209.087 122.529"/>
    <polygon fill="#434A4F" points="199.087 124.529 203.087 124.529 203.087 122.529 199.087 122.529"/>
    <path fill="#FACD60" d="M195.061,108.486 C195.061,109.039 194.613,109.486 194.061,109.486 C193.509,109.486 193.061,109.039 193.061,108.486 C193.061,107.934 193.509,107.486 194.061,107.486 C194.613,107.486 195.061,107.934 195.061,108.486"/>
    <polygon fill="#434A4F" points="183.074 180.565 185.074 180.565 185.074 176.565 183.074 176.565"/>
    <polygon fill="#434A4F" points="183.074 190.565 185.074 190.565 185.074 186.565 183.074 186.565"/>
    <polygon fill="#434A4F" points="187.074 184.565 191.074 184.565 191.074 182.565 187.074 182.565"/>
    <polygon fill="#434A4F" points="177.074 184.565 181.074 184.565 181.074 182.565 177.074 182.565"/>
    <polygon fill="#434A4F" points="56.998 71.499 58.998 71.499 58.998 67.499 56.998 67.499"/>
    <polygon fill="#434A4F" points="56.998 81.499 58.998 81.499 58.998 77.499 56.998 77.499"/>
    <polygon fill="#434A4F" points="60.998 75.499 64.998 75.499 64.998 73.499 60.998 73.499"/>
    <polygon fill="#434A4F" points="50.998 75.499 54.998 75.499 54.998 73.499 50.998 73.499"/>
  </g>
</svg>
