<svg xmlns="http://www.w3.org/2000/svg" width="250" height="250" viewBox="0 0 250 250">
  <g fill="none" fill-rule="evenodd">
    <path fill="#42494E" d="M123.319 48.06C123.06 48.06 122.81 47.96 122.62 47.77 122.52 47.68 122.45 47.569 122.399 47.45 122.35 47.319 122.33 47.2 122.33 47.06 122.33 46.93 122.35 46.8 122.399 46.68 122.45 46.56 122.53 46.45 122.62 46.35 122.66 46.31 122.72 46.27 122.77 46.229 122.819 46.189 122.88 46.16 122.939 46.14 123 46.109 123.069 46.09 123.13 46.08 123.33 46.04 123.53 46.06 123.71 46.14 123.83 46.189 123.939 46.26 124.03 46.35 124.13 46.45 124.2 46.56 124.25 46.68 124.3 46.8 124.33 46.93 124.33 47.06 124.33 47.2 124.3 47.319 124.25 47.45 124.2 47.569 124.13 47.68 124.03 47.77 123.84 47.96 123.59 48.06 123.319 48.06M119.319 48.06C119.189 48.06 119.06 48.04 118.939 47.99 118.819 47.939 118.71 47.859 118.62 47.77 118.52 47.68 118.45 47.569 118.399 47.45 118.35 47.319 118.319 47.2 118.319 47.06 118.319 46.93 118.35 46.8 118.399 46.68 118.45 46.56 118.52 46.45 118.62 46.35 118.89 46.08 119.34 45.99 119.71 46.14 119.77 46.16 119.83 46.189 119.88 46.229 119.93 46.27 119.979 46.31 120.03 46.35 120.12 46.45 120.2 46.56 120.25 46.68 120.3 46.8 120.319 46.93 120.319 47.06 120.319 47.2 120.3 47.319 120.25 47.45 120.2 47.569 120.12 47.68 120.03 47.77 119.84 47.96 119.59 48.06 119.319 48.06M123.319 45.06C123.06 45.06 122.81 44.96 122.62 44.77 122.43 44.58 122.33 44.33 122.33 44.06 122.33 43.8 122.43 43.54 122.62 43.35 122.67 43.31 122.72 43.27 122.77 43.229 122.819 43.189 122.88 43.16 122.939 43.14 123.189 43.04 123.47 43.04 123.71 43.14 123.83 43.189 123.939 43.26 124.03 43.35 124.22 43.54 124.33 43.8 124.33 44.06 124.33 44.33 124.22 44.58 124.03 44.77 123.85 44.96 123.59 45.06 123.319 45.06M119.319 45.06C119.189 45.06 119.06 45.03 118.939 44.979 118.819 44.939 118.71 44.859 118.62 44.77 118.43 44.58 118.319 44.33 118.319 44.06 118.319 43.8 118.43 43.54 118.62 43.35 118.71 43.26 118.819 43.189 118.939 43.14 119.31 42.979 119.76 43.08 120.03 43.35 120.22 43.54 120.319 43.8 120.319 44.06 120.319 44.33 120.22 44.58 120.03 44.77 119.84 44.96 119.59 45.06 119.319 45.06M123.33 207.16C123.06 207.16 122.81 207.06 122.62 206.859 122.43 206.68 122.33 206.43 122.33 206.16 122.33 205.89 122.43 205.64 122.62 205.45 122.99 205.08 123.66 205.069 124.03 205.45 124.22 205.64 124.319 205.89 124.319 206.16 124.319 206.42 124.22 206.67 124.03 206.859 123.939 206.96 123.83 207.03 123.71 207.08 123.59 207.13 123.46 207.16 123.33 207.16M119.319 207.16C119.06 207.16 118.81 207.06 118.62 206.859 118.43 206.68 118.319 206.42 118.319 206.16 118.319 205.89 118.43 205.64 118.62 205.45 118.979 205.08 119.66 205.08 120.03 205.45 120.08 205.5 120.12 205.55 120.16 205.6 120.189 205.66 120.22 205.71 120.25 205.77 120.27 205.84 120.29 205.899 120.31 205.96 120.319 206.03 120.33 206.09 120.33 206.16 120.33 206.42 120.22 206.67 120.03 206.859 119.84 207.06 119.59 207.16 119.319 207.16"/>
    <polyline fill="#DBDBD5" points="83.514 165 80.014 162.167 69.514 169.75 72.847 172.75 83.514 165"/>
    <polyline fill="#DBDBD5" points="83.514 90.333 80.014 87.5 69.514 95.083 72.847 98.083 83.514 90.333"/>
    <path fill="#42494E" d="M88.27 162.808L87.091 161.192 111.951 143.055C118.557 138.233 122.194 131.792 122.194 124.918 122.194 118.044 118.557 111.604 111.951 106.782L68.059 74.741 69.238 73.126 113.131 105.167C120.266 110.375 124.194 117.389 124.194 124.918 124.194 132.447 120.266 139.462 113.131 144.67L88.27 162.808M59.668 68.615L56.918 66.608C54.454 64.81 52.422 62.764 50.88 60.527L52.526 59.393C53.94 61.442 55.815 63.327 58.098 64.993L60.848 67 59.668 68.615M47.999 54.222C47.657 52.835 47.489 51.411 47.497 49.988L49.497 50C49.49 51.258 49.639 52.518 49.94 53.743L47.999 54.222"/>
    <path fill="#42494E" d="M97.09 100.886L54.56 69.84C47.381 64.6 43.452 57.541 43.4966177 49.965L45.497 49.977C45.456 56.893 49.094 63.373 55.739 68.225L98.27 99.27 97.09 100.886M114.501 114.708C113.181 113.006 111.529 111.427 109.593 110.013L107.348 108.374 108.527 106.759 110.772 108.397C112.86 109.922 114.646 111.633 116.081 113.481L114.501 114.708M119.672 129.133L117.732 128.646C118.039 127.424 118.194 126.17 118.194 124.918 118.194 123.825 118.076 122.729 117.843 121.662L119.796 121.234C120.061 122.442 120.194 123.682 120.194 124.918 120.194 126.334 120.019 127.752 119.672 129.133M108.516 143.08L107.34 141.463 109.595 139.823C111.588 138.368 113.276 136.739 114.613 134.982L116.205 136.193C114.751 138.104 112.923 139.869 110.772 141.439L108.516 143.08"/>
    <polyline fill="#42494E" points="84.602 160.476 83.426 158.858 96.077 149.655 97.253 151.272 84.602 160.476"/>
    <path fill="#42494E" d="M88.186,88.058 L87.007,86.442 L111.951,68.225 C118.597,63.373 122.234,56.893 122.194,49.977 L124.194366,49.965 C124.238,57.541 120.309,64.6 113.131,69.84 L88.186,88.058"/>
    <path fill="#42494E" d="M84.604 85.725L83.424 84.109 109.593 64.993C115.172 60.92 118.227 55.596 118.194 50L120.194287 49.988C120.23 56.244 116.884 62.146 110.772 66.608L84.604 85.725M120.19 199.961L118.19 199.918C118.311 194.238 115.257 188.832 109.593 184.697L69.175 155.266 54.568 144.676C47.428 139.464 43.496 132.447 43.496 124.918 43.496 117.39 47.425 110.375 54.56 105.166L79.669 86.612 80.858 88.222 55.744 106.778C49.134 111.604 45.496 118.045 45.496 124.918 45.496 131.792 49.136 138.234 55.745 143.059L70.351 153.647 110.771 183.081C116.979 187.613 120.324 193.607 120.19 199.961"/>
    <path fill="#42494E" d="M124.189,200.046 L122.189,200.003 C122.338,192.978 118.701,186.394 111.949,181.465 L73.918,153.775 L56.921,141.44 C50.842,137.003 47.496,131.136 47.496,124.918 C47.496,118.7 50.842,112.833 56.918,108.397 L83.093,89.358 L84.269,90.976 L58.096,110.014 C52.551,114.062 49.496,119.355 49.496,124.918 C49.496,130.48 52.551,135.774 58.098,139.823 L75.094,152.157 L113.128,179.849 C120.424,185.175 124.352,192.348 124.189,200.046"/>
    <path fill="#42494E" d="M43.497,199.82 C43.419,192.209 47.348,185.116 54.56,179.851 L79.42,161.528 L80.607,163.138 L55.743,181.463 C49.062,186.341 45.425,192.852 45.497,199.799 L43.497,199.82"/>
    <path fill="#42494E" d="M47.497,199.779 C47.433,193.494 50.778,187.564 56.918,183.082 L58.963,181.466 L60.203,183.034 L58.128,184.674 C52.493,188.789 49.438,194.138 49.497,199.758 L47.497,199.779"/>
    <polyline fill="#42494E" points="69.293 176.374 68.123 174.751 83.012 164.021 84.182 165.645 69.293 176.374"/>
    <polygon fill="#42494E" points="49.638 133.014 81.351 133.014 81.351 131.014 49.638 131.014"/>
    <polygon fill="#42494E" points="65.345 147.076 81.351 147.076 81.351 145.076 65.345 145.076"/>
    <polygon fill="#42494E" points="64.614 104.791 81.35 104.791 81.35 102.791 64.614 102.791"/>
    <polygon fill="#42494E" points="49.699 119 81.35 119 81.35 117 49.699 117"/>
    <polygon fill="#42494E" points="86.479 133.014 121.853 133.014 121.853 131.014 86.479 131.014"/>
    <polygon fill="#42494E" points="86.479 147.076 109.353 147.076 109.353 145.076 86.479 145.076"/>
    <polygon fill="#42494E" points="86.479 104.791 109.186 104.791 109.186 102.791 86.479 102.791"/>
    <polygon fill="#42494E" points="86.479 119 121.686 119 121.686 117 86.479 117"/>
    <polyline fill="#42494E" points="81.351 179.791 58.021 179.79 58.021 177.79 81.351 177.791 81.351 179.791"/>
    <polyline fill="#42494E" points="81.351 194 46.271 193.999 46.271 191.999 81.351 192 81.351 194"/>
    <polygon fill="#42494E" points="86.479 179.791 103.215 179.791 103.215 177.791 86.479 177.791"/>
    <polygon fill="#42494E" points="86.479 194 117.679 194 117.679 192 86.479 192"/>
    <polygon fill="#42494E" points="45.854 58.014 81.351 58.014 81.351 56.014 45.854 56.014"/>
    <polygon fill="#42494E" points="58.021 72.076 81.351 72.076 81.351 70.076 58.021 70.076"/>
    <polygon fill="#42494E" points="86.479 58.014 117.192 58.014 117.192 56.014 86.479 56.014"/>
    <polygon fill="#42494E" points="86.479 72.076 102.486 72.076 102.486 70.076 86.479 70.076"/>
    <path fill="#42494E" d="M48.58 48.13C48.439 48.13 48.31 48.1 48.189 48.05 48.069 48 47.96 47.93 47.87 47.83 47.78 47.74 47.7 47.63 47.649 47.51 47.6 47.39 47.569 47.26 47.569 47.12 47.569 46.859 47.68 46.6 47.87 46.42 48.14 46.14 48.59 46.05 48.96 46.2 49.08 46.25 49.189 46.319 49.28 46.42 49.47 46.6 49.58 46.859 49.58 47.12 49.58 47.26 49.55 47.39 49.5 47.51 49.45 47.63 49.38 47.74 49.28 47.83 49.189 47.93 49.08 48 48.96 48.05 48.84 48.1 48.71 48.13 48.58 48.13M44.569 48.13C44.439 48.13 44.31 48.1 44.189 48.05 44.069 48 43.96 47.93 43.87 47.83 43.77 47.74 43.7 47.63 43.649 47.51 43.6 47.39 43.569 47.26 43.569 47.12 43.569 46.859 43.68 46.6 43.87 46.42 43.96 46.319 44.069 46.25 44.189 46.2 44.56 46.05 45 46.14 45.28 46.42 45.47 46.6 45.569 46.859 45.569 47.12 45.569 47.26 45.55 47.39 45.5 47.51 45.45 47.63 45.37 47.74 45.28 47.83 45.09 48.02 44.84 48.13 44.569 48.13M48.58 45.12C48.31 45.12 48.06 45.02 47.87 44.83 47.77 44.74 47.7 44.63 47.649 44.51 47.6 44.38 47.569 44.26 47.569 44.12 47.569 43.99 47.6 43.859 47.649 43.74 47.7 43.62 47.78 43.51 47.87 43.42 47.96 43.319 48.069 43.25 48.189 43.2 48.56 43.05 49 43.14 49.28 43.42 49.38 43.51 49.45 43.62 49.5 43.74 49.55 43.859 49.58 43.99 49.58 44.12 49.58 44.26 49.55 44.38 49.5 44.51 49.45 44.63 49.38 44.74 49.28 44.83 49.189 44.92 49.08 45 48.96 45.05 48.84 45.1 48.71 45.12 48.58 45.12M44.569 45.12C44.439 45.12 44.31 45.1 44.189 45.05 44.069 45 43.96 44.92 43.87 44.83 43.77 44.74 43.7 44.63 43.649 44.51 43.6 44.38 43.569 44.26 43.569 44.12 43.569 43.99 43.6 43.859 43.649 43.74 43.7 43.62 43.77 43.51 43.87 43.42 44.1 43.189 44.439 43.069 44.77 43.14 44.83 43.16 44.899 43.17 44.96 43.2 45.02 43.22 45.069 43.26 45.13 43.29 45.18 43.33 45.229 43.37 45.28 43.42 45.37 43.51 45.439 43.62 45.5 43.74 45.55 43.859 45.569 43.99 45.569 44.12 45.569 44.26 45.55 44.38 45.5 44.51 45.45 44.63 45.37 44.74 45.28 44.83 45.09 45.02 44.84 45.12 44.569 45.12M48.58 207.22C48.31 207.22 48.06 207.12 47.87 206.93 47.68 206.74 47.58 206.49 47.58 206.22 47.58 206.09 47.6 205.96 47.649 205.84 47.7 205.72 47.78 205.609 47.87 205.51 47.96 205.42 48.069 205.35 48.189 205.3 48.56 205.14 49 205.229 49.28 205.51 49.38 205.609 49.45 205.72 49.5 205.84 49.55 205.96 49.569 206.09 49.569 206.22 49.569 206.49 49.47 206.74 49.28 206.93 49.09 207.12 48.84 207.22 48.58 207.22M44.569 207.22C44.439 207.22 44.31 207.2 44.189 207.149 44.069 207.1 43.96 207.02 43.87 206.93 43.68 206.74 43.569 206.49 43.569 206.22 43.569 206.09 43.6 205.96 43.649 205.84 43.7 205.72 43.77 205.609 43.87 205.51 44.1 205.28 44.439 205.17 44.77 205.24 44.83 205.25 44.899 205.27 44.96 205.3 45.02 205.319 45.069 205.35 45.13 205.39 45.18 205.43 45.229 205.47 45.28 205.51 45.47 205.7 45.569 205.96 45.569 206.22 45.569 206.49 45.47 206.74 45.28 206.93 45.09 207.12 44.84 207.22 44.569 207.22M48.611 203.853C48.351 203.853 48.101 203.743 47.912 203.563 47.721 203.363 47.622 203.113 47.622 202.853 47.622 202.594 47.721 202.334 47.912 202.143 47.952 202.103 48.011 202.054 48.061 202.023 48.111 201.983 48.172 201.953 48.231 201.934 48.292 201.903 48.361 201.884 48.422 201.874 48.622 201.834 48.822 201.853 49.002 201.934 49.122 201.983 49.231 202.054 49.322 202.143 49.422 202.233 49.492 202.344 49.542 202.474 49.591 202.594 49.622 202.724 49.622 202.853 49.622 203.124 49.511 203.374 49.322 203.563 49.141 203.743 48.882 203.853 48.611 203.853M44.611 203.853C44.481 203.853 44.351 203.823 44.231 203.773 44.111 203.724 44.002 203.653 43.912 203.563 43.721 203.374 43.611 203.113 43.611 202.853 43.611 202.724 43.641 202.594 43.691 202.474 43.742 202.344 43.811 202.233 43.912 202.143 44.271 201.773 44.952 201.773 45.322 202.143 45.412 202.233 45.492 202.344 45.542 202.474 45.591 202.594 45.611 202.724 45.611 202.853 45.611 203.124 45.511 203.374 45.322 203.563 45.231 203.653 45.122 203.724 45.002 203.773 44.881 203.823 44.752 203.853 44.611 203.853M123.361 203.794C123.101 203.794 122.851 203.684 122.662 203.493 122.471 203.304 122.372 203.054 122.372 202.794 122.372 202.523 122.471 202.273 122.662 202.084 122.702 202.033 122.761 201.993 122.811 201.953 122.861 201.924 122.922 201.893 122.981 201.863 123.042 201.844 123.111 201.823 123.172 201.813 123.372 201.773 123.572 201.794 123.752 201.863 123.872 201.914 123.981 201.993 124.072 202.084 124.172 202.174 124.242 202.283 124.292 202.403 124.341 202.533 124.372 202.653 124.372 202.794 124.372 203.054 124.261 203.304 124.072 203.493 123.891 203.684 123.632 203.794 123.361 203.794M119.361 203.794C119.231 203.794 119.101 203.764 118.981 203.714 118.861 203.664 118.752 203.594 118.662 203.493 118.471 203.304 118.361 203.054 118.361 202.794 118.361 202.653 118.391 202.533 118.441 202.403 118.492 202.283 118.561 202.174 118.662 202.084 118.931 201.804 119.382 201.714 119.752 201.863 119.872 201.914 119.981 201.993 120.072 202.084 120.162 202.174 120.242 202.283 120.292 202.403 120.341 202.533 120.361 202.653 120.361 202.794 120.361 203.054 120.261 203.304 120.072 203.493 119.981 203.594 119.872 203.664 119.752 203.714 119.632 203.764 119.502 203.794 119.361 203.794"/>
    <polyline fill="#DBDBD5" points="164.02 127.25 167.52 124.417 178.02 132 174.687 135 164.02 127.25"/>
    <polygon fill="#42494E" points="131.958 170.514 162.67 170.514 162.67 168.514 131.958 168.514"/>
    <polygon fill="#42494E" points="146.664 184.576 162.67 184.576 162.67 182.576 146.664 182.576"/>
    <polygon fill="#42494E" points="145.934 142.291 162.67 142.291 162.67 140.291 145.934 140.291"/>
    <polygon fill="#42494E" points="132.019 156.5 162.67 156.5 162.67 154.5 132.019 154.5"/>
    <polygon fill="#42494E" points="167.799 184.576 190.021 184.576 190.021 182.576 167.799 182.576"/>
    <polygon fill="#42494E" points="127.021 95.514 162.67 95.514 162.67 93.514 127.021 93.514"/>
    <polygon fill="#42494E" points="139.771 109.576 162.67 109.576 162.67 107.576 139.771 107.576"/>
    <polygon fill="#42494E" points="167.799 95.514 198.512 95.514 198.512 93.514 167.799 93.514"/>
    <polygon fill="#42494E" points="167.799 109.576 184.806 109.576 184.806 107.576 167.799 107.576"/>
    <path fill="#42494E" d="M155.726,196.519 L135.889,182.177 C128.747,176.964 124.815,169.947 124.815,162.418 C124.815,154.889 128.744,147.875 135.879,142.667 L190.912,102.493 C196.165,98.659 199.212,93.655 199.491,88.402 L199.51,87.42 C199.63,81.737 196.576,76.332 190.912,72.198 L170.613,57.42 L171.791,55.803 L192.091,70.582 C198.299,75.113 201.644,81.107 201.51,87.461 L201.49,88.476 C201.176,94.374 197.839,99.913 192.092,104.108 L137.059,144.282 C130.453,149.104 126.815,155.544 126.815,162.418 C126.815,169.292 130.455,175.734 137.064,180.559 L156.897,194.897 L155.726,196.519"/>
    <path fill="#42494E" d="M158.557,193.726 L138.238,178.94 C132.161,174.504 128.815,168.637 128.815,162.418 C128.815,156.199 132.161,150.333 138.237,145.897 L193.271,105.725 C199.916,100.873 203.554,94.393 203.514,87.477 L203.513,87.348 C203.516,87.069 203.514,86.809 203.506,86.55 L203.454,85.561 C202.961,79.294 199.344,73.4 193.269,68.966 L172.968,54.186 L174.146,52.568 L194.447,67.35 C200.707,71.92 204.552,77.974 205.354,84.482 L205.443,84.482 L205.506,86.514 C205.514,86.777 205.516,87.063 205.513,87.351 L205.514,87.463 C205.558,95.041 201.628,102.1 194.45,107.34 L139.417,147.513 C133.87,151.562 130.815,156.855 130.815,162.418 C130.815,167.981 133.87,173.275 139.417,177.324 L159.734,192.108 L158.557,193.726"/>
    <polyline fill="#42494E" points="163.963 122.888 149.11 112.046 150.29 110.431 165.143 121.272 163.963 122.888"/>
    <path fill="#42494E" d="M140.507 105.765L138.237 104.108C135.958 102.444 134.046 100.565 132.553 98.524L134.168 97.345C135.538 99.218 137.304 100.95 139.417 102.493L141.687 104.149 140.507 105.765M129.205 91.229C128.939 89.998 128.809 88.738 128.815 87.484L128.816 87.264C128.805 86.186 128.899 85.086 129.096 84.008L131.063 84.365C130.89 85.319 130.807 86.292 130.816 87.258L130.815 87.495C130.809 88.604 130.925 89.719 131.16 90.808L129.205 91.229M133.883 77.743L132.24 76.602C133.776 74.392 135.794 72.366 138.237 70.582L140.278 69.093 141.458 70.708 139.417 72.197C137.153 73.85 135.292 75.716 133.883 77.743"/>
    <polyline fill="#42494E" points="150.889 63.823 149.709 62.208 158.485 55.802 159.665 57.417 150.889 63.823"/>
    <path fill="#42494E" d="M161.12,125.765 L135.879,107.34 C128.701,102.1 124.771,95.041 124.815,87.465 L124.816,87.276 C124.737,79.698 128.667,72.616 135.879,67.352 L156.127,52.571 L157.307,54.186 L137.059,68.967 C130.382,73.841 126.744,80.341 126.816,87.27 L126.815,87.476 C126.775,94.393 130.413,100.873 137.059,105.725 L162.3,124.149 L161.12,125.765"/>
    <polyline fill="#42494E" points="171.268 194.14 170.088 192.524 178.772 186.186 179.952 187.801 171.268 194.14"/>
    <polygon fill="#42494E" points="139.146 67.291 162.67 67.291 162.67 65.291 139.146 65.291"/>
    <polygon fill="#42494E" points="127.271 81.5 162.67 81.5 162.67 79.5 127.271 79.5"/>
    <polygon fill="#42494E" points="167.799 67.291 184.535 67.291 184.535 65.291 167.799 65.291"/>
    <polygon fill="#42494E" points="167.799 81.5 198.45 81.5 198.45 79.5 167.799 79.5"/>
    <path fill="#42494E" d="M159.02 52C158.75 52 158.5 51.89 158.31 51.71 158.12 51.52 158.02 51.27 158.02 51 158.02 50.87 158.05 50.74 158.1 50.62 158.149 50.5 158.22 50.39 158.31 50.29 158.359 50.25 158.41 50.2 158.47 50.17 158.52 50.13 158.58 50.1 158.64 50.08 158.7 50.05 158.76 50.03 158.819 50.02 159.02 49.979 159.22 50 159.399 50.08 159.52 50.13 159.63 50.2 159.729 50.29 159.819 50.39 159.89 50.5 159.939 50.62 159.99 50.74 160.02 50.87 160.02 51 160.02 51.27 159.92 51.52 159.729 51.71 159.63 51.8 159.52 51.87 159.399 51.92 159.28 51.97 159.149 52 159.02 52M161.81 55.75C161.68 55.75 161.55 55.72 161.43 55.67 161.31 55.62 161.2 55.55 161.1 55.46 160.92 55.27 160.81 55.02 160.81 54.75 160.81 54.49 160.92 54.229 161.1 54.04 161.33 53.81 161.68 53.7 162.01 53.77 162.069 53.78 162.13 53.8 162.189 53.83 162.25 53.85 162.31 53.88 162.37 53.92 162.42 53.95 162.47 54 162.52 54.04 162.7 54.229 162.81 54.49 162.81 54.75 162.81 55.02 162.71 55.27 162.52 55.46 162.33 55.649 162.08 55.75 161.81 55.75M170.819 52C170.68 52 170.55 51.97 170.43 51.92 170.31 51.87 170.2 51.8 170.109 51.71 169.92 51.52 169.819 51.27 169.819 51 169.819 50.87 169.84 50.74 169.89 50.62 169.939 50.5 170.02 50.39 170.109 50.29 170.2 50.2 170.31 50.13 170.43 50.08 170.8 49.92 171.24 50.01 171.52 50.29 171.62 50.39 171.689 50.5 171.74 50.62 171.79 50.74 171.819 50.87 171.819 51 171.819 51.27 171.71 51.52 171.52 51.71 171.34 51.89 171.09 52 170.819 52M168.03 55.75C167.76 55.75 167.51 55.649 167.319 55.46 167.13 55.27 167.02 55.02 167.02 54.75 167.02 54.49 167.13 54.229 167.319 54.04 167.41 53.95 167.52 53.88 167.64 53.83 168.01 53.67 168.45 53.76 168.729 54.04 168.92 54.229 169.03 54.49 169.03 54.75 169.03 55.02 168.92 55.27 168.729 55.46 168.54 55.649 168.29 55.75 168.03 55.75M158.6 198.88C158.46 198.88 158.34 198.85 158.21 198.8 158.09 198.75 157.979 198.68 157.89 198.58 157.8 198.49 157.72 198.38 157.67 198.26 157.62 198.14 157.6 198.01 157.6 197.88 157.6 197.74 157.62 197.62 157.68 197.49 157.729 197.37 157.8 197.26 157.89 197.17 158.27 196.79 158.93 196.8 159.3 197.17 159.399 197.26 159.47 197.37 159.52 197.49 159.569 197.609 159.6 197.74 159.6 197.88 159.6 198.01 159.569 198.14 159.52 198.26 159.47 198.38 159.399 198.49 159.3 198.58 159.21 198.68 159.1 198.75 158.979 198.8 158.859 198.85 158.729 198.88 158.6 198.88M161.39 195.12C161.12 195.12 160.87 195.02 160.68 194.83 160.49 194.64 160.39 194.39 160.39 194.13 160.39 193.859 160.5 193.6 160.68 193.42 160.91 193.189 161.26 193.08 161.59 193.14 161.649 193.16 161.71 193.18 161.77 193.2 161.83 193.229 161.89 193.26 161.939 193.29 162 193.33 162.05 193.37 162.1 193.42 162.28 193.6 162.39 193.859 162.39 194.13 162.39 194.39 162.29 194.64 162.1 194.83 162 194.93 161.89 195 161.77 195.05 161.649 195.1 161.52 195.12 161.39 195.12M170.399 198.88C170.26 198.88 170.13 198.85 170.01 198.8 169.89 198.75 169.78 198.68 169.689 198.58 169.5 198.39 169.39 198.14 169.39 197.88 169.39 197.74 169.42 197.62 169.47 197.49 169.52 197.37 169.6 197.26 169.689 197.17 169.729 197.12 169.78 197.08 169.84 197.04 169.89 197.01 169.95 196.979 170.01 196.95 170.069 196.93 170.14 196.91 170.2 196.89 170.33 196.87 170.46 196.87 170.59 196.89 170.649 196.91 170.72 196.93 170.78 196.95 170.84 196.979 170.899 197.01 170.95 197.04 171.01 197.08 171.06 197.12 171.1 197.17 171.29 197.359 171.399 197.609 171.399 197.88 171.399 198.14 171.29 198.39 171.1 198.58 170.91 198.77 170.66 198.88 170.399 198.88M167.6 195.12C167.47 195.12 167.34 195.1 167.22 195.05 167.1 195 166.99 194.93 166.899 194.83 166.71 194.64 166.6 194.39 166.6 194.13 166.6 193.859 166.71 193.609 166.899 193.42 167.13 193.189 167.479 193.08 167.8 193.14 167.859 193.16 167.93 193.18 167.99 193.2 168.05 193.229 168.1 193.26 168.16 193.29 168.21 193.33 168.26 193.37 168.31 193.42 168.5 193.6 168.6 193.859 168.6 194.13 168.6 194.39 168.5 194.64 168.31 194.83 168.12 195.02 167.87 195.12 167.6 195.12"/>
    <polygon fill="#42494E" points="167.799 170.514 178.708 170.514 178.708 168.514 167.799 168.514"/>
    <polyline fill="#42494E" points="167.799 140.291 167.799 142.291 183.759 142.291 181.019 140.291 167.799 140.291"/>
    <polyline fill="#42494E" points="184.535 140.291 184.411 140.291 184.535 140.381 184.535 140.291"/>
    <polygon fill="#42494E" points="167.799 156.5 178.708 156.5 178.708 154.5 167.799 154.5"/>
    <polyline fill="#42494E" points="184.535 140.381 184.535 142.291 183.759 142.291 184.105 142.544 187.498 142.544 184.535 140.381"/>
    <polyline fill="#42494E" points="165.67 126.61 164.49 128.226 181.019 140.291 184.411 140.291 165.67 126.61"/>
    <polyline fill="#42494E" points="184.535 140.381 184.411 140.291 181.019 140.291 183.759 142.291 184.535 142.291 184.535 140.381"/>
    <path fill="#42494E" d="M190.912,177.324 L187.435,179.862 L188.614,181.478 L192.092,178.939 C194.314,177.317 196.191,175.486 197.671,173.498 L196.389,172.545 L195.871,172.545 C194.541,174.278 192.88,175.888 190.912,177.324"/>
    <polyline fill="#42494E" points="169.202 124.236 168.022 125.852 190.889 142.544 194.281 142.544 169.202 124.236"/>
    <path fill="#42494E" d="M193.271,180.555 L172.446,195.756 L173.626,197.371 L194.45,182.17 C198.235,179.407 201.108,176.132 202.98,172.545 L200.694,172.545 C198.964,175.504 196.469,178.22 193.271,180.555"/>
    <polyline fill="#42494E" points="211.708 148.462 211.708 150.462 214.708 150.462 214.708 168.545 182.625 168.545 182.625 150.462 185.625 150.462 185.625 148.462 180.625 148.462 180.625 170.545 216.708 170.545 216.708 148.462 211.708 148.462"/>
    <path fill="#42494E" d="M186.625,164.545 L197.274,164.545 L198.706,166.107 L200.3,164.545 L210.708,164.545 L210.708,146.462 L201.116,146.462 L198.652,148.876 L196.288,146.462 L186.625,146.462 L186.625,164.545 Z M198.628,168.982 L196.394,166.545 L184.625,166.545 L184.625,144.462 L197.128,144.462 L198.682,146.048 L200.3,144.462 L212.708,144.462 L212.708,166.545 L201.116,166.545 L198.628,168.982 Z"/>
    <path fill="#FFFFFE" d="M188.521,149.545 L194.646,149.545"/>
    <polygon fill="#42494E" points="188.521 150.545 194.646 150.545 194.646 148.545 188.521 148.545"/>
    <path fill="#FFFFFE" d="M188.521,153.545 L194.646,153.545"/>
    <polygon fill="#42494E" points="188.521 154.545 194.646 154.545 194.646 152.545 188.521 152.545"/>
    <path fill="#FFFFFE" d="M188.521,157.545 L194.646,157.545"/>
    <polygon fill="#42494E" points="188.521 158.545 194.646 158.545 194.646 156.545 188.521 156.545"/>
    <path fill="#FFFFFE" d="M202.521,149.545 L208.646,149.545"/>
    <polygon fill="#42494E" points="202.521 150.545 208.646 150.545 208.646 148.545 202.521 148.545"/>
    <path fill="#FFFFFE" d="M202.521,153.545 L208.646,153.545"/>
    <polygon fill="#42494E" points="202.521 154.545 208.646 154.545 208.646 152.545 202.521 152.545"/>
    <path fill="#FFFFFE" d="M202.521,157.545 L208.646,157.545"/>
    <polygon fill="#42494E" points="202.521 158.545 208.646 158.545 208.646 156.545 202.521 156.545"/>
    <path fill="#FFFFFE" d="M198.667,150.733 L198.667,160.545"/>
    <polygon fill="#42494E" points="197.667 160.545 199.667 160.545 199.667 150.732 197.667 150.732"/>
    <path fill="#FFFFFE" d="M188.521,161.545 L194.646,161.545"/>
    <polygon fill="#42494E" points="188.521 162.545 194.646 162.545 194.646 160.545 188.521 160.545"/>
    <path fill="#FFFFFE" d="M202.521,161.545 L208.646,161.545"/>
    <polygon fill="#42494E" points="202.521 162.545 208.646 162.545 208.646 160.545 202.521 160.545"/>
    <polygon fill="#434A4F" points="35.025 162.024 37.025 162.024 37.025 158.024 35.025 158.024"/>
    <polygon fill="#434A4F" points="35.025 172.024 37.025 172.024 37.025 168.024 35.025 168.024"/>
    <polygon fill="#434A4F" points="39.025 166.024 43.025 166.024 43.025 164.024 39.025 164.024"/>
    <polygon fill="#434A4F" points="29.025 166.024 33.025 166.024 33.025 164.024 29.025 164.024"/>
    <polygon fill="#434A4F" points="203.047 117.052 205.047 117.052 205.047 113.052 203.047 113.052"/>
    <polygon fill="#434A4F" points="203.047 127.052 205.047 127.052 205.047 123.052 203.047 123.052"/>
    <polygon fill="#434A4F" points="207.047 121.052 211.047 121.052 211.047 119.052 207.047 119.052"/>
    <polygon fill="#434A4F" points="197.047 121.052 201.047 121.052 201.047 119.052 197.047 119.052"/>
    <polygon fill="#434A4F" points="213.054 187.094 215.054 187.094 215.054 183.094 213.054 183.094"/>
    <polygon fill="#434A4F" points="213.054 197.094 215.054 197.094 215.054 193.094 213.054 193.094"/>
    <polygon fill="#434A4F" points="217.054 191.094 221.054 191.094 221.054 189.094 217.054 189.094"/>
    <polygon fill="#434A4F" points="207.054 191.094 211.054 191.094 211.054 189.094 207.054 189.094"/>
    <path fill="#FACD60" d="M139.029 128.103C139.029 129.76 137.686 131.103 136.029 131.103 134.372 131.103 133.029 129.76 133.029 128.103 133.029 126.446 134.372 125.103 136.029 125.103 137.686 125.103 139.029 126.446 139.029 128.103M199.065 198.145C199.065 199.802 197.722 201.145 196.065 201.145 194.408 201.145 193.065 199.802 193.065 198.145 193.065 196.488 194.408 195.145 196.065 195.145 197.722 195.145 199.065 196.488 199.065 198.145M48.975 148.115C48.975 149.772 47.632 151.115 45.975 151.115 44.318 151.115 42.975 149.772 42.975 148.115 42.975 146.458 44.318 145.115 45.975 145.115 47.632 145.115 48.975 146.458 48.975 148.115M147.034 48.055C147.034 49.712 145.691 51.055 144.034 51.055 142.377 51.055 141.034 49.712 141.034 48.055 141.034 46.398 142.377 45.055 144.034 45.055 145.691 45.055 147.034 46.398 147.034 48.055"/>
  </g>
</svg>
