<svg xmlns="http://www.w3.org/2000/svg" width="250" height="250" viewBox="0 0 250 250">
  <g fill="none" fill-rule="evenodd">
    <path fill="#5FE0ED" d="M183.284,80.209 C179.854,72.617 174.966,65.854 168.753,60.107 C168.001,59.384 167.235,58.672 166.441,57.984 C154.929,47.999 140.17,42.5 124.881,42.5 C119.006,42.5 113.21,43.32 107.645,44.887 C107.619,44.894 107.593,44.903 107.567,44.91 C106.484,45.216 105.411,45.557 104.347,45.92 C103.999,46.038 103.653,46.158 103.308,46.281 C102.566,46.549 101.831,46.834 101.1,47.129 C100.072,47.539 99.059,47.982 98.054,48.446 C97.842,48.545 97.627,48.637 97.416,48.738 C92.273,51.182 87.437,54.298 83.075,58.081 C77.511,62.907 72.913,68.639 69.362,75.118 C63.748,84.672 60.515,95.794 60.515,107.677 L60.515,164.911 C60.515,173.754 63.506,185.051 63.566,185.954 L99.65,185.954 L98.487,181.297 C96.611,173.78 94.073,166.445 90.904,159.375 C86.056,147.415 80.661,136.909 76.951,129.724 C76.874,129.576 76.795,129.42 76.72,129.275 C74.936,125.822 73.552,122.242 72.521,118.605 C68.841,105.615 69.942,91.852 75.919,80.153 C77.169,77.704 78.596,75.38 80.177,73.178 C82.598,69.81 85.391,66.737 88.543,64.003 C89.467,63.202 90.422,62.445 91.392,61.71 C91.577,61.57 91.761,61.429 91.947,61.291 C92.899,60.59 93.869,59.918 94.86,59.281 C95.023,59.176 95.19,59.076 95.355,58.973 C96.316,58.37 97.284,57.775 98.288,57.247 C98.384,57.197 98.477,57.14 98.572,57.089 C99.631,56.52 100.711,55.994 101.802,55.495 C102.004,55.403 102.207,55.312 102.409,55.222 C103.505,54.738 104.613,54.283 105.737,53.87 C105.848,53.83 105.96,53.795 106.07,53.755 C107.159,53.364 108.261,53.008 109.373,52.685 C109.514,52.644 109.653,52.599 109.794,52.56 C110.951,52.234 112.121,51.949 113.299,51.698 C113.497,51.656 113.696,51.617 113.895,51.577 C115.103,51.333 116.32,51.119 117.546,50.956 C119.965,50.635 122.415,50.469 124.881,50.469 C138.252,50.469 151.157,55.275 161.219,64.004 C161.274,64.051 161.327,64.098 161.381,64.145 L161.35,64.182 C161.371,64.199 161.393,64.217 161.414,64.235 C161.427,64.247 161.441,64.258 161.454,64.269 C161.46,64.275 161.466,64.28 161.472,64.284 C161.476,64.287 161.479,64.29 161.483,64.293 C161.493,64.302 161.503,64.311 161.514,64.32 C161.531,64.334 161.547,64.348 161.564,64.363 C161.573,64.371 161.584,64.38 161.593,64.388 C162.183,64.893 162.751,65.411 163.315,65.933 C168.755,70.957 173.03,76.864 176.021,83.488 C179.197,90.525 180.076,98.457 178.65,106.113 L186.722,106.113 C188.074,97.323 186.931,88.287 183.284,80.209"/>
    <path fill="#475059" d="M99.323,212.5 L97.323,212.5 L97.323,207.188 C97.313,180.011 80.413,147.288 72.291,131.562 C63.403,114.353 63.1,94.288 71.479,77.886 C74.938,71.117 79.58,65.179 85.277,60.238 C96.246,50.724 110.311,45.484 124.881,45.484 C139.451,45.484 153.516,50.724 164.485,60.238 C165.171,60.833 165.897,61.501 166.706,62.279 C172.636,67.758 177.298,74.204 180.563,81.438 C185.391,92.131 185.544,104.632 180.983,115.736 C180.146,117.774 179.721,119.896 179.721,122.042 C179.721,123.109 179.836,124.217 180.063,125.334 C180.516,127.564 181.392,129.628 182.666,131.468 L189.649,141.552 C190.169,142.17 190.485,143.043 190.485,143.94 C190.485,145.597 189.429,147.061 187.858,147.585 L182.674,149.313 C181.825,149.596 181.254,150.388 181.254,151.283 C181.254,152.129 181.45,153.333 182.382,154.265 L182.674,154.558 L182.674,156.569 C182.674,158.231 181.563,159.411 179.768,159.753 C179.816,160.796 179.833,162.011 179.688,162.511 C179.294,163.866 178.374,164.63 177.633,165.245 C176.92,165.836 176.629,166.12 176.628,166.544 L176.611,173.19 C176.598,178.036 172.651,181.979 167.813,181.979 L152.567,181.979 C149.745,181.979 147.446,184.258 147.413,187.072 L150.492,211.171 L150.492,212.499 L148.492,212.499 L148.492,211.234 L145.413,187.133 C145.413,183.188 148.622,179.979 152.567,179.979 L167.813,179.979 C171.551,179.979 174.601,176.931 174.611,173.184 L174.628,166.536 C174.634,165.135 175.589,164.343 176.356,163.706 C176.967,163.198 177.545,162.719 177.767,161.954 C177.835,161.64 177.798,160.128 177.717,158.922 L177.646,157.87 L178.701,157.855 C179.601,157.843 180.674,157.609 180.674,156.569 L180.674,155.362 C179.755,154.285 179.254,152.854 179.254,151.283 C179.254,149.525 180.375,147.971 182.042,147.416 L187.226,145.688 C187.979,145.437 188.485,144.734 188.485,143.94 C188.485,143.51 188.333,143.091 188.058,142.761 L181.021,132.607 C179.592,130.542 178.61,128.229 178.104,125.732 C177.85,124.484 177.721,123.243 177.721,122.042 C177.721,119.634 178.196,117.257 179.133,114.976 C183.486,104.379 183.343,92.455 178.74,82.261 C175.584,75.27 171.076,69.039 165.341,63.741 C164.748,63.193 164.15,62.649 163.532,62.119 C163.523,62.112 163.515,62.104 163.506,62.098 C163.428,62.031 163.349,61.964 163.271,61.897 L163.302,61.86 C163.26,61.823 163.217,61.786 163.175,61.749 C152.569,52.55 138.97,47.484 124.881,47.484 C110.792,47.484 97.192,52.55 86.587,61.749 C81.085,66.521 76.601,72.256 73.261,78.796 C65.174,94.624 65.476,114.007 74.068,130.644 C82.262,146.51 99.313,179.525 99.323,207.187 L99.323,212.5"/>
    <path fill="#DEDEDD" d="M167,106.672 L167,105.487 L156.286,105.487 C156.286,122.738 142.251,136.772 125,136.772 C107.749,136.772 93.714,122.738 93.714,105.487 L83,105.487 L83,106.672 L92.55,109.063 L95.109,118.615 L88.034,125.459 L89.22,127.513 L98.686,124.808 L105.678,131.801 L102.973,141.267 L105.027,142.453 L111.872,135.378 L121.423,137.936 L123.814,147.487 L126.186,147.487 L128.577,137.936 L138.128,135.378 L144.973,142.453 L147.027,141.267 L144.322,131.801 L151.314,124.808 L160.78,127.513 L161.966,125.459 L154.891,118.615 L157.45,109.063 L167,106.672"/>
    <path fill="#DEDEDD" d="M134.326,106.057 C134.327,106.103 134.333,106.148 134.333,106.194 C134.333,111.34 130.146,115.527 125,115.527 C119.854,115.527 115.667,111.34 115.667,106.194 C115.667,106.148 115.673,106.103 115.674,106.057 L111.003,106.057 C111.003,106.103 111,106.148 111,106.194 C111,113.914 117.281,120.194 125,120.194 C132.719,120.194 139,113.914 139,106.194 C139,106.148 138.997,106.103 138.997,106.057 L134.326,106.057"/>
    <path fill="#475059" d="M122.253,149.487 L127.747,149.487 L130.231,139.564 L137.509,137.614 L144.621,144.965 L149.379,142.218 L146.569,132.383 L151.897,127.056 L161.731,129.866 L164.479,125.107 L157.127,117.996 L159.078,110.717 L169,108.234 L169,102.74 L159.078,100.256 L157.127,92.978 L164.479,85.866 L161.731,81.107 L151.897,83.918 L146.569,78.59 L149.379,68.755 L144.621,66.008 L137.509,73.359 L130.231,71.409 L127.747,61.487 L122.253,61.487 L119.77,71.409 L112.491,73.359 L105.379,66.008 L100.621,68.755 L103.431,78.59 L98.103,83.918 L88.269,81.107 L85.521,85.866 L92.873,92.978 L90.922,100.256 L81,102.74 L81,108.234 L90.922,110.717 L92.873,117.996 L85.521,125.107 L88.269,129.866 L98.103,127.056 L103.431,132.383 L100.621,142.218 L105.379,144.965 L112.491,137.614 L119.77,139.564 L122.253,149.487 Z M129.309,151.487 L120.691,151.487 L118.115,141.191 L113.11,139.851 L105.731,147.478 L98.269,143.169 L101.185,132.965 L97.521,129.302 L87.317,132.218 L83.009,124.756 L90.636,117.376 L89.295,112.372 L79,109.795 L79,101.178 L89.295,98.602 L90.636,93.597 L83.009,86.218 L87.317,78.756 L97.521,81.672 L101.185,78.008 L98.269,67.804 L105.731,63.495 L113.11,71.123 L118.115,69.782 L120.691,59.487 L129.309,59.487 L131.885,69.782 L136.89,71.123 L144.269,63.495 L151.731,67.804 L148.815,78.008 L152.479,81.672 L162.683,78.756 L166.991,86.218 L159.364,93.597 L160.705,98.602 L171,101.178 L171,109.795 L160.705,112.372 L159.364,117.376 L166.991,124.756 L162.683,132.218 L152.479,129.302 L148.815,132.965 L151.731,143.169 L144.269,147.478 L136.89,139.851 L131.885,141.191 L129.309,151.487 Z"/>
    <path fill="#F58E70" d="M125,127.344 C112.948,127.344 103.143,117.539 103.143,105.487 C103.143,93.435 112.948,83.63 125,83.63 C137.052,83.63 146.857,93.435 146.857,105.487 C146.857,117.539 137.052,127.344 125,127.344 Z M125,77.201 C109.378,77.201 96.714,89.865 96.714,105.487 C96.714,121.109 109.378,133.773 125,133.773 C140.622,133.773 153.286,121.109 153.286,105.487 C153.286,89.865 140.622,77.201 125,77.201 Z"/>
    <path fill="#475059" d="M122.253,149.487 L127.747,149.487 L130.231,139.564 L137.509,137.614 L144.621,144.965 L149.379,142.218 L146.569,132.384 L151.897,127.056 L161.731,129.866 L164.479,125.107 L157.127,117.996 L159.078,110.718 L169,108.234 L169,102.74 L159.078,100.256 L157.127,92.978 L164.479,85.866 L161.731,81.107 L151.897,83.918 L146.569,78.59 L149.379,68.755 L144.621,66.008 L137.509,73.359 L130.231,71.409 L127.747,61.487 L122.253,61.487 L119.769,71.409 L112.491,73.359 L105.379,66.008 L100.621,68.755 L103.431,78.59 L98.103,83.918 L88.269,81.107 L85.521,85.866 L92.873,92.978 L90.922,100.256 L81,102.74 L81,108.234 L90.922,110.718 L92.873,117.996 L85.521,125.107 L88.269,129.866 L98.103,127.056 L103.431,132.384 L100.621,142.218 L105.379,144.965 L112.491,137.614 L119.769,139.564 L122.253,149.487 Z M129.309,151.487 L120.691,151.487 L118.115,141.191 L113.11,139.851 L105.731,147.478 L98.269,143.169 L101.185,132.966 L97.521,129.302 L87.317,132.218 L83.009,124.756 L90.636,117.376 L89.295,112.372 L79,109.795 L79,101.178 L89.295,98.602 L90.636,93.597 L83.009,86.218 L87.317,78.756 L97.521,81.672 L101.185,78.008 L98.269,67.804 L105.731,63.496 L113.11,71.123 L118.115,69.782 L120.691,59.487 L129.309,59.487 L131.885,69.782 L136.89,71.123 L144.269,63.496 L151.731,67.804 L148.815,78.008 L152.479,81.672 L162.683,78.756 L166.991,86.218 L159.364,93.597 L160.705,98.602 L171,101.178 L171,109.795 L160.705,112.372 L159.364,117.376 L166.991,124.756 L162.683,132.218 L152.479,129.302 L148.815,132.966 L151.731,143.169 L144.269,147.478 L136.89,139.851 L131.885,141.191 L129.309,151.487 Z"/>
    <path fill="#475059" d="M125,78.201 C109.955,78.201 97.714,90.441 97.714,105.487 C97.714,120.532 109.955,132.772 125,132.772 C140.045,132.772 152.286,120.532 152.286,105.487 C152.286,90.441 140.045,78.201 125,78.201 Z M125,134.772 C108.852,134.772 95.714,121.635 95.714,105.487 C95.714,89.339 108.852,76.201 125,76.201 C141.148,76.201 154.286,89.339 154.286,105.487 C154.286,121.635 141.148,134.772 125,134.772 Z"/>
    <path fill="#475059" d="M125,100.487 C122.243,100.487 120,102.73 120,105.487 C120,108.244 122.243,110.487 125,110.487 C127.757,110.487 130,108.244 130,105.487 C130,102.73 127.757,100.487 125,100.487 Z M125,112.487 C121.14,112.487 118,109.347 118,105.487 C118,101.627 121.14,98.487 125,98.487 C128.86,98.487 132,101.627 132,105.487 C132,109.347 128.86,112.487 125,112.487 Z"/>
    <path fill="#475059" d="M125,89.129 C115.981,89.129 108.643,96.467 108.643,105.486 C108.643,114.506 115.981,121.844 125,121.844 C134.019,121.844 141.357,114.506 141.357,105.486 C141.357,96.467 134.019,89.129 125,89.129 Z M125,123.844 C114.878,123.844 106.643,115.609 106.643,105.486 C106.643,95.364 114.878,87.129 125,87.129 C135.122,87.129 143.357,95.364 143.357,105.486 C143.357,115.609 135.122,123.844 125,123.844 Z"/>
    <polygon fill="#48515A" points="213 189.5 215 189.5 215 185.5 213 185.5"/>
    <polygon fill="#48515A" points="213 199.5 215 199.5 215 195.5 213 195.5"/>
    <polygon fill="#48515A" points="217 193.5 221 193.5 221 191.5 217 191.5"/>
    <polygon fill="#48515A" points="207 193.5 211 193.5 211 191.5 207 191.5"/>
    <polygon fill="#48515A" points="35 141.5 37 141.5 37 137.5 35 137.5"/>
    <polygon fill="#48515A" points="35 151.5 37 151.5 37 147.5 35 147.5"/>
    <polygon fill="#48515A" points="39 145.5 43 145.5 43 143.5 39 143.5"/>
    <polygon fill="#48515A" points="29 145.5 33 145.5 33 143.5 29 143.5"/>
    <polygon fill="#48515A" points="191 41.5 193 41.5 193 37.5 191 37.5"/>
    <polygon fill="#48515A" points="191 51.5 193 51.5 193 47.5 191 47.5"/>
    <polygon fill="#48515A" points="195 45.5 199 45.5 199 43.5 195 43.5"/>
    <polygon fill="#48515A" points="185 45.5 189 45.5 189 43.5 185 43.5"/>
    <path fill="#5FE0ED" d="M210.317 133.773C210.317 135.605 208.832 137.09 207 137.09 205.168 137.09 203.683 135.605 203.683 133.773 203.683 131.941 205.168 130.455 207 130.455 208.832 130.455 210.317 131.941 210.317 133.773M55.817 65.487C55.817 67.319 54.332 68.804 52.5 68.804 50.668 68.804 49.183 67.319 49.183 65.487 49.183 63.655 50.668 62.17 52.5 62.17 54.332 62.17 55.817 63.655 55.817 65.487"/>
    <path fill="#F58E70" d="M164.835 198.5C164.835 199.052 164.387 199.5 163.835 199.5 163.282 199.5 162.835 199.052 162.835 198.5 162.835 197.948 163.282 197.5 163.835 197.5 164.387 197.5 164.835 197.948 164.835 198.5M54.5 185.5C54.5 186.605 53.605 187.5 52.5 187.5 51.395 187.5 50.5 186.605 50.5 185.5 50.5 184.395 51.395 183.5 52.5 183.5 53.605 183.5 54.5 184.395 54.5 185.5"/>
  </g>
</svg>
