<svg xmlns="http://www.w3.org/2000/svg" width="250" height="250" viewBox="0 0 250 250">
  <g fill="none" fill-rule="evenodd">
    <path fill="#5FE0ED" d="M74.021,129.894 C65.803,113.98 65.5,95.466 73.214,80.369 C76.405,74.123 80.687,68.645 85.943,64.086 C96.088,55.287 109.097,50.441 122.579,50.441 C136.059,50.441 149.07,55.287 159.215,64.085 C159.919,64.696 160.599,65.329 161.331,66.034 C162.406,67.026 163.453,68.072 164.442,69.143 C168.647,73.689 171.846,79.53 173.713,86.103 C173.898,86.757 174.046,87.419 174.201,88.08 L182.386,88.08 C182.108,86.663 181.79,85.249 181.391,83.845 C179.203,76.137 175.374,69.175 170.319,63.707 C169.187,62.483 167.988,61.287 166.825,60.213 C166.057,59.472 165.273,58.745 164.46,58.039 C152.859,47.977 137.985,42.436 122.579,42.436 C107.172,42.436 92.298,47.977 80.698,58.039 C74.662,63.275 69.746,69.562 66.085,76.728 C57.201,94.117 57.509,115.365 66.91,133.568 C69.614,138.804 72.091,146.028 74.179,154.368 L82.436,154.368 C80.095,144.612 77.222,136.092 74.021,129.894"/>
    <path fill="#475059" d="M146.394,212.563 L143.282,188.207 C143.282,184.235 146.514,181.003 150.485,181.003 L168.956,181.003 C172.729,181.003 175.807,177.928 175.816,174.147 L175.833,167.446 C175.839,166.143 176.282,165.403 176.711,164.687 C176.999,164.204 177.298,163.706 177.537,162.917 C177.556,162.486 177.539,160.6 177.511,158.918 L177.504,158.505 L180.284,155.615 L178.944,152.936 L178.944,152.7 C178.944,150.894 180.124,149.189 181.749,148.648 L181.903,148.597 L185.927,148.597 C187.016,148.597 187.984,148.186 188.584,147.47 C189.417,146.476 189.601,145.143 189.063,143.991 C186.924,139.409 181.671,127.838 179.115,119.388 C178.577,117.61 178.325,115.854 178.365,114.168 L178.361,97.92 C178.36,93.646 177.768,89.395 176.601,85.283 C174.604,78.256 171.17,71.995 166.646,67.104 C165.608,65.981 164.505,64.878 163.366,63.827 C162.544,63.036 161.854,62.402 161.183,61.818 C150.491,52.545 136.781,47.438 122.579,47.438 C108.376,47.438 94.666,52.545 83.975,61.818 C78.428,66.63 73.907,72.412 70.54,79.003 C62.388,94.96 62.692,114.5 71.354,131.271 C79.69,147.412 85.748,179.83 85.757,208.354 L85.859,212.412 L83.859,212.461 L83.757,208.379 C83.748,180.112 77.784,148.08 69.577,132.189 C60.62,114.846 60.315,94.623 68.759,78.093 C72.243,71.272 76.922,65.289 82.664,60.308 C93.72,50.719 107.895,45.438 122.578,45.438 C137.263,45.438 151.438,50.719 162.493,60.308 C163.192,60.915 163.905,61.57 164.738,62.372 C165.9,63.445 167.041,64.585 168.115,65.747 C172.851,70.867 176.442,77.409 178.504,84.664 C179.742,89.026 180.36,93.461 180.361,97.919 L180.365,114.192 C180.33,115.689 180.554,117.235 181.029,118.809 C183.547,127.135 188.754,138.602 190.876,143.145 C191.746,145.009 191.455,147.158 190.117,148.754 C189.136,149.925 187.608,150.597 185.927,150.597 L182.247,150.597 C181.556,150.895 181.033,151.661 180.955,152.484 L182.704,155.984 L179.518,159.297 C179.577,163.062 179.53,163.226 179.484,163.384 C179.168,164.475 178.757,165.162 178.427,165.714 C178.059,166.329 177.836,166.7 177.833,167.454 L177.816,174.153 C177.803,179.033 173.828,183.003 168.956,183.003 L150.485,183.003 C147.637,183.003 145.315,185.305 145.282,188.146 L148.378,212.31 L146.394,212.563"/>
    <path fill="#2B2B2B" d="M174.675,162.004 C174.677,162.001 174.678,161.998 174.678,161.995 C174.678,161.998 174.677,162.001 174.675,162.004"/>
    <path fill="#DEDEDD" d="M108.779,119.241 C105.22,115.628 103.017,110.677 103.017,105.218 C103.017,94.19 111.989,85.218 123.017,85.218 C134.044,85.218 143.017,94.19 143.017,105.218 C143.017,110.687 140.806,115.646 137.237,119.26 L140.381,122.403 C144.755,117.984 147.461,111.912 147.461,105.218 C147.461,91.739 136.495,80.774 123.017,80.774 C109.538,80.774 98.572,91.739 98.572,105.218 C98.572,111.903 101.272,117.967 105.635,122.385 L108.779,119.241"/>
    <path fill="#F58E70" d="M149.011,131.034 C155.35,124.647 159.367,115.951 159.655,106.33 C159.666,105.96 159.683,105.592 159.683,105.219 L153.017,105.219 C153.017,105.592 153.002,105.961 152.988,106.33 C152.703,114.113 149.435,121.144 144.301,126.324 L149.011,131.034"/>
    <path fill="#DEDEDD" d="M97.004,131.015 L101.714,126.306 C96.591,121.128 93.33,114.104 93.045,106.33 C93.031,105.961 93.017,105.592 93.017,105.219 L86.35,105.219 C86.35,105.592 86.367,105.96 86.378,106.33 C86.666,115.942 90.676,124.63 97.004,131.015"/>
    <path fill="#FFD15D" d="M123.017,68.553 L123.017,75.219 C139.558,75.219 153.016,88.677 153.017,105.219 L159.683,105.219 C159.683,85.001 143.235,68.553 123.017,68.553"/>
    <path fill="#5FE0ED" d="M86.35,105.219 L93.017,105.219 C93.017,88.677 106.475,75.219 123.017,75.219 L123.017,68.553 C102.799,68.553 86.35,85.001 86.35,105.219"/>
    <polyline fill="#475059" points="99.079 120.525 98.065 118.801 130.195 99.912 131.209 101.637 99.079 120.525"/>
    <path fill="#475059" d="M123,66.436 C101.495,66.436 84,83.932 84,105.437 C84,126.941 101.495,144.437 123,144.437 C144.505,144.437 162,126.941 162,105.437 C162,83.932 144.505,66.436 123,66.436 Z M123,146.437 C100.393,146.437 82,128.044 82,105.437 C82,82.829 100.393,64.436 123,64.436 C145.607,64.436 164,82.829 164,105.437 C164,128.044 145.607,146.437 123,146.437 Z"/>
    <polygon fill="#475059" points="122.017 72.996 124.017 72.996 124.017 68.552 122.017 68.552"/>
    <polyline fill="#475059" points="106.039 77.813 103.817 73.964 105.55 72.964 107.771 76.814 106.039 77.813"/>
    <polyline fill="#475059" points="94.611 89.974 90.763 87.751 91.763 86.019 95.611 88.241 94.611 89.974"/>
    <polyline fill="#475059" points="154.271 124.418 150.422 122.195 151.422 120.464 155.271 122.687 154.271 124.418"/>
    <polygon fill="#475059" points="86.35 106.219 90.795 106.219 90.795 104.219 86.35 104.219"/>
    <polygon fill="#475059" points="155.239 106.219 159.684 106.219 159.684 104.219 155.239 104.219"/>
    <polyline fill="#475059" points="91.763 124.418 90.763 122.687 94.611 120.464 95.611 122.195 91.763 124.418"/>
    <polyline fill="#475059" points="151.422 89.974 150.422 88.241 154.271 86.019 155.271 87.751 151.422 89.974"/>
    <polyline fill="#475059" points="139.994 77.813 138.262 76.814 140.483 72.964 142.216 73.964 139.994 77.813"/>
    <path fill="#FF5A5A" d="M125.239,105.218 C125.239,106.445 124.244,107.44 123.017,107.44 C121.789,107.44 120.794,106.445 120.794,105.218 C120.794,103.991 121.789,102.996 123.017,102.996 C124.244,102.996 125.239,103.991 125.239,105.218"/>
    <polygon fill="#475059" points="118.572 135.109 127.461 135.109 127.461 133.109 118.572 133.109"/>
    <polygon fill="#48515A" points="213 189.437 215 189.437 215 185.437 213 185.437"/>
    <polygon fill="#48515A" points="213 199.437 215 199.437 215 195.437 213 195.437"/>
    <polygon fill="#48515A" points="217 193.437 221 193.437 221 191.437 217 191.437"/>
    <polygon fill="#48515A" points="207 193.437 211 193.437 211 191.437 207 191.437"/>
    <polygon fill="#48515A" points="35 141.437 37 141.437 37 137.437 35 137.437"/>
    <polygon fill="#48515A" points="35 151.437 37 151.437 37 147.437 35 147.437"/>
    <polygon fill="#48515A" points="39 145.437 43 145.437 43 143.437 39 143.437"/>
    <polygon fill="#48515A" points="29 145.437 33 145.437 33 143.437 29 143.437"/>
    <polygon fill="#48515A" points="191 41.436 193 41.436 193 37.436 191 37.436"/>
    <polygon fill="#48515A" points="191 51.436 193 51.436 193 47.436 191 47.436"/>
    <polygon fill="#48515A" points="195 45.436 199 45.436 199 43.436 195 43.436"/>
    <polygon fill="#48515A" points="185 45.436 189 45.436 189 43.436 185 43.436"/>
    <path fill="#5FE0ED" d="M210.317 133.709C210.317 135.541 208.832 137.026 207 137.026 205.168 137.026 203.683 135.541 203.683 133.709 203.683 131.877 205.168 130.392 207 130.392 208.832 130.392 210.317 131.877 210.317 133.709M55.817 65.423C55.817 67.255 54.332 68.74 52.5 68.74 50.668 68.74 49.183 67.255 49.183 65.423 49.183 63.591 50.668 62.106 52.5 62.106 54.332 62.106 55.817 63.591 55.817 65.423"/>
    <path fill="#F58E70" d="M164.835 198.437C164.835 198.989 164.387 199.437 163.835 199.437 163.282 199.437 162.835 198.989 162.835 198.437 162.835 197.884 163.282 197.437 163.835 197.437 164.387 197.437 164.835 197.884 164.835 198.437M54.5 185.437C54.5 186.541 53.605 187.437 52.5 187.437 51.395 187.437 50.5 186.541 50.5 185.437 50.5 184.332 51.395 183.437 52.5 183.437 53.605 183.437 54.5 184.332 54.5 185.437"/>
  </g>
</svg>
