<svg xmlns="http://www.w3.org/2000/svg" width="250" height="250" viewBox="0 0 250 250">
  <g fill="none" fill-rule="evenodd">
    <path fill="#DEDEDD" d="M152.55,134.986 C137.097,150.439 112.043,150.439 96.59,134.986 C90.505,128.901 86.827,121.326 85.534,113.436 C83.544,125.583 87.222,138.479 96.59,147.847 C112.043,163.3 137.097,163.3 152.55,147.847 C161.918,138.479 165.596,125.584 163.606,113.437 C162.313,121.327 158.635,128.902 152.55,134.986"/>
    <path fill="#5FE0ED" d="M74.021,129.894 C65.803,113.98 65.5,95.466 73.214,80.369 C76.405,74.123 80.687,68.645 85.943,64.086 C96.088,55.287 109.097,50.441 122.579,50.441 C136.059,50.441 149.07,55.287 159.215,64.085 C159.919,64.696 160.599,65.329 161.331,66.034 C162.406,67.026 163.453,68.072 164.442,69.143 C168.647,73.689 171.846,79.53 173.713,86.103 C173.898,86.757 174.046,87.419 174.201,88.08 L182.386,88.08 C182.108,86.663 181.79,85.249 181.391,83.845 C179.203,76.137 175.374,69.175 170.319,63.707 C169.187,62.483 167.988,61.287 166.825,60.213 C166.057,59.472 165.273,58.745 164.46,58.039 C152.859,47.977 137.985,42.436 122.579,42.436 C107.172,42.436 92.298,47.977 80.698,58.039 C74.662,63.275 69.746,69.562 66.085,76.728 C57.201,94.117 57.509,115.365 66.91,133.568 C69.614,138.804 72.091,146.028 74.179,154.368 L82.436,154.368 C80.095,144.612 77.222,136.092 74.021,129.894"/>
    <path fill="#475059" d="M146.394,212.563 L143.282,188.207 C143.282,184.235 146.514,181.003 150.485,181.003 L168.956,181.003 C172.729,181.003 175.807,177.928 175.816,174.147 L175.833,167.446 C175.839,166.143 176.282,165.403 176.711,164.687 C176.999,164.204 177.298,163.706 177.537,162.917 C177.556,162.486 177.539,160.6 177.511,158.918 L177.504,158.505 L180.284,155.615 L178.944,152.936 L178.944,152.7 C178.944,150.894 180.124,149.189 181.749,148.648 L181.903,148.597 L185.927,148.597 C187.016,148.597 187.984,148.186 188.584,147.47 C189.417,146.476 189.601,145.143 189.063,143.991 C186.924,139.409 181.671,127.838 179.115,119.388 C178.577,117.61 178.325,115.854 178.365,114.168 L178.361,97.92 C178.36,93.646 177.768,89.395 176.601,85.283 C174.604,78.256 171.17,71.995 166.646,67.104 C165.608,65.981 164.505,64.878 163.366,63.827 C162.544,63.036 161.854,62.402 161.183,61.818 C150.491,52.545 136.781,47.438 122.579,47.438 C108.376,47.438 94.666,52.545 83.975,61.818 C78.428,66.629 73.908,72.411 70.54,79.003 C62.388,94.96 62.692,114.5 71.354,131.271 C79.69,147.412 85.748,179.83 85.757,208.354 L85.859,212.412 L83.86,212.461 L83.758,208.379 C83.748,180.112 77.784,148.08 69.577,132.189 C60.62,114.846 60.315,94.623 68.759,78.093 C72.244,71.271 76.923,65.288 82.665,60.308 C93.72,50.719 107.895,45.438 122.579,45.438 C137.263,45.438 151.437,50.719 162.493,60.308 C163.192,60.915 163.905,61.57 164.738,62.372 C165.9,63.445 167.041,64.585 168.115,65.747 C172.851,70.867 176.442,77.409 178.504,84.664 C179.742,89.026 180.36,93.461 180.361,97.919 L180.365,114.192 C180.33,115.689 180.554,117.235 181.029,118.809 C183.547,127.135 188.754,138.602 190.876,143.145 C191.746,145.009 191.455,147.158 190.117,148.754 C189.136,149.925 187.608,150.597 185.927,150.597 L182.247,150.597 C181.556,150.895 181.033,151.661 180.955,152.484 L182.704,155.984 L179.518,159.297 C179.577,163.062 179.53,163.226 179.484,163.384 C179.168,164.475 178.757,165.162 178.427,165.714 C178.059,166.329 177.836,166.7 177.833,167.454 L177.816,174.153 C177.803,179.033 173.828,183.003 168.956,183.003 L150.485,183.003 C147.637,183.003 145.315,185.305 145.282,188.146 L148.378,212.31 L146.394,212.563"/>
    <path fill="#2B2B2B" d="M174.675,162.004 C174.677,162.001 174.678,161.998 174.678,161.995 C174.678,161.998 174.677,162.001 174.675,162.004"/>
    <path fill="#475059" d="M124.569,68.455 C114.693,68.455 104.816,72.214 97.296,79.733 C90.012,87.018 86,96.704 86,107.006 C86,117.309 90.012,126.995 97.297,134.279 C104.582,141.564 114.268,145.576 124.57,145.576 C134.873,145.576 144.559,141.564 151.843,134.279 C159.128,126.995 163.14,117.309 163.14,107.006 C163.14,96.704 159.128,87.019 151.843,79.733 C144.323,72.214 134.446,68.455 124.569,68.455 Z M124.57,147.576 C113.733,147.576 103.545,143.356 95.883,135.693 C88.22,128.031 84,117.843 84,107.006 C84,96.17 88.22,85.982 95.882,78.319 C111.702,62.5 137.439,62.502 153.257,78.319 C160.92,85.982 165.14,96.17 165.14,107.006 C165.14,117.843 160.92,128.031 153.257,135.693 C145.595,143.356 135.407,147.576 124.57,147.576 Z"/>
    <path fill="#475059" d="M190.362,176.437 C189.39,176.437 188.477,176.058 187.79,175.371 L149.393,136.974 L150.807,135.56 L189.204,173.957 C189.514,174.266 189.925,174.437 190.362,174.437 C190.8,174.437 191.211,174.266 191.521,173.957 C192.159,173.318 192.159,172.279 191.521,171.64 L153.123,133.243 L154.537,131.829 L192.935,170.226 C194.354,171.645 194.354,173.953 192.935,175.371 C192.248,176.058 191.334,176.437 190.362,176.437"/>
    <polygon fill="#475059" points="114.468 114.588 133.593 114.588 133.593 112.588 114.468 112.588"/>
    <polyline fill="#475059" points="137.229 121.502 135.229 121.502 135.229 120.371 124.359 92.592 113.489 120.371 113.489 121.5 111.489 121.5 111.489 119.994 124.359 87.104 137.229 119.994 137.229 121.502"/>
    <path fill="#DEDEDD" d="M104.776,87.423 C117.737,74.462 138.199,73.586 152.182,84.782 C151.364,83.76 150.488,82.77 149.541,81.824 C135.633,67.916 113.084,67.916 99.177,81.824 C85.269,95.731 85.269,118.28 99.177,132.188 C100.123,133.135 101.114,134.011 102.135,134.829 C90.939,120.846 91.815,100.384 104.776,87.423"/>
    <polyline fill="#475059" points="161.393 147.56 159.979 146.146 163.709 142.415 165.123 143.829 161.393 147.56"/>
    <polygon fill="#48515A" points="213 189.437 215 189.437 215 185.437 213 185.437"/>
    <polygon fill="#48515A" points="213 199.437 215 199.437 215 195.437 213 195.437"/>
    <polygon fill="#48515A" points="217 193.437 221 193.437 221 191.437 217 191.437"/>
    <polygon fill="#48515A" points="207 193.437 211 193.437 211 191.437 207 191.437"/>
    <polygon fill="#48515A" points="35 141.437 37 141.437 37 137.437 35 137.437"/>
    <polygon fill="#48515A" points="35 151.437 37 151.437 37 147.437 35 147.437"/>
    <polygon fill="#48515A" points="39 145.437 43 145.437 43 143.437 39 143.437"/>
    <polygon fill="#48515A" points="29 145.437 33 145.437 33 143.437 29 143.437"/>
    <polygon fill="#48515A" points="191 41.436 193 41.436 193 37.436 191 37.436"/>
    <polygon fill="#48515A" points="191 51.436 193 51.436 193 47.436 191 47.436"/>
    <polygon fill="#48515A" points="195 45.436 199 45.436 199 43.436 195 43.436"/>
    <polygon fill="#48515A" points="185 45.436 189 45.436 189 43.436 185 43.436"/>
    <path fill="#5FE0ED" d="M210.317 133.709C210.317 135.541 208.832 137.026 207 137.026 205.168 137.026 203.683 135.541 203.683 133.709 203.683 131.877 205.168 130.392 207 130.392 208.832 130.392 210.317 131.877 210.317 133.709M55.817 65.423C55.817 67.255 54.332 68.74 52.5 68.74 50.668 68.74 49.183 67.255 49.183 65.423 49.183 63.591 50.668 62.106 52.5 62.106 54.332 62.106 55.817 63.591 55.817 65.423"/>
    <path fill="#F58E70" d="M164.835 198.437C164.835 198.989 164.387 199.437 163.835 199.437 163.282 199.437 162.835 198.989 162.835 198.437 162.835 197.884 163.282 197.437 163.835 197.437 164.387 197.437 164.835 197.884 164.835 198.437M54.5 185.437C54.5 186.541 53.605 187.437 52.5 187.437 51.395 187.437 50.5 186.541 50.5 185.437 50.5 184.332 51.395 183.437 52.5 183.437 53.605 183.437 54.5 184.332 54.5 185.437"/>
  </g>
</svg>
