<svg xmlns="http://www.w3.org/2000/svg" width="250" height="250" viewBox="0 0 250 250">
  <g fill="none" fill-rule="evenodd">
    <path fill="#DEDEDD" d="M163.904,116.333 C163.881,116.361 163.868,116.394 163.844,116.421 C162.919,117.51 161.569,118.134 160.142,118.134 L156.421,118.134 L156.421,121.778 L151.561,121.778 L151.561,118.134 L139.489,118.134 L139.49,121.067 L135.129,125.423 L118.616,125.423 C116.931,125.423 115.3,124.928 113.899,123.994 L105.109,118.134 L65,118.134 L65,124.211 L105.109,124.211 L113.899,130.072 C115.3,131.006 116.931,131.5 118.616,131.5 L135.129,131.5 L139.49,127.144 L139.489,124.211 L151.561,124.211 L151.561,127.856 L156.421,127.856 L156.421,124.211 L160.142,124.211 C161.569,124.211 162.919,123.587 163.844,122.499 C164.769,121.411 165.167,119.97 164.936,118.545 C164.8,117.714 164.43,116.962 163.904,116.333"/>
    <path fill="#475059" d="M135.041,125.208 L118.616,125.208 C116.975,125.208 115.385,124.726 114.019,123.815 L105.174,117.919 L65,117.919 L65,115.919 L105.779,115.919 L115.128,122.151 C116.164,122.842 117.37,123.208 118.616,123.208 L134.213,123.208 L137.275,120.148 L137.274,117.919 L123.698,117.919 L123.698,115.919 L139.272,115.919 L139.275,120.977 L135.041,125.208"/>
    <path fill="#475059" d="M160.142,117.919 L138.273,117.919 L138.273,115.919 L160.142,115.919 C160.919,115.919 161.653,115.579 162.157,114.986 C162.668,114.386 162.878,113.618 162.748,112.823 C162.545,111.573 161.341,110.63 159.946,110.63 L138.275,110.63 L138.275,108.63 C139.733,108.63 140.92,107.444 140.92,105.986 C140.92,104.528 139.733,103.341 138.275,103.341 L138.275,101.341 C139.052,101.341 139.787,101.001 140.291,100.409 C140.802,99.808 141.012,99.04 140.883,98.246 C140.68,96.996 139.475,96.053 138.08,96.053 L134.631,96.053 L134.631,94.053 C135.408,94.053 136.143,93.713 136.646,93.121 C137.157,92.52 137.368,91.751 137.238,90.957 C137.035,89.707 135.83,88.764 134.436,88.764 L117.592,88.764 C116.914,88.764 116.245,88.873 115.604,89.087 L105.639,92.408 L65,92.408 L65,90.408 L105.314,90.408 L114.971,87.189 C115.816,86.907 116.698,86.764 117.592,86.764 L134.436,86.764 C136.799,86.764 138.853,88.429 139.213,90.636 C139.41,91.851 139.13,93.077 138.44,94.065 C140.649,94.225 142.516,95.83 142.857,97.924 C143.079,99.287 142.698,100.665 141.814,101.705 C141.613,101.941 141.392,102.154 141.153,102.343 C142.229,103.194 142.92,104.511 142.92,105.986 C142.92,106.968 142.613,107.879 142.092,108.63 L159.946,108.63 C162.311,108.63 164.364,110.295 164.723,112.502 C164.944,113.864 164.564,115.242 163.681,116.282 C162.796,117.322 161.506,117.919 160.142,117.919"/>
    <polygon fill="#F58E70" points="151.561 121.778 156.421 121.778 156.421 102.342 151.561 102.342"/>
    <polyline fill="#F58E70" points="155.99 110.337 154.576 108.923 159.435 104.064 160.849 105.478 155.99 110.337"/>
    <polyline fill="#F58E70" points="152.145 110.337 147.286 105.478 148.7 104.064 153.559 108.923 152.145 110.337"/>
    <polygon fill="#475059" points="130.986 96.053 134.631 96.053 134.631 94.053 130.986 94.053"/>
    <polygon fill="#475059" points="130.986 103.341 138.275 103.341 138.275 101.341 130.986 101.341"/>
    <polygon fill="#475059" points="130.986 110.63 141.92 110.63 141.92 108.63 130.986 108.63"/>
    <path fill="#475059" d="M99.402,98.482 C96.604,98.482 94.328,100.758 94.328,103.556 C94.328,106.354 96.604,108.63 99.402,108.63 L99.403,108.63 C100.758,108.63 102.032,108.102 102.99,107.144 C103.949,106.186 104.477,104.912 104.477,103.556 C104.477,100.758 102.2,98.482 99.402,98.482 Z M99.403,110.63 C99.402,110.63 99.402,110.63 99.402,110.63 C95.502,110.63 92.328,107.457 92.328,103.556 C92.328,99.656 95.502,96.482 99.402,96.482 C103.303,96.482 106.477,99.656 106.477,103.556 C106.477,105.446 105.74,107.222 104.404,108.558 C103.068,109.894 101.292,110.63 99.403,110.63 Z"/>
    <polygon fill="#475059" points="94.758 116.919 96.758 116.919 96.758 108.416 94.758 108.416"/>
    <polygon fill="#475059" points="102.051 116.919 104.051 116.919 104.051 108.416 102.051 108.416"/>
    <polygon fill="#475059" points="94.758 98.495 96.758 98.495 96.758 91.399 94.758 91.399"/>
    <polygon fill="#475059" points="102.051 98.495 104.051 98.495 104.051 91.399 102.051 91.399"/>
    <path fill="#5FE0ED" d="M183.284,80.209 C179.854,72.617 174.966,65.854 168.753,60.107 C168.001,59.384 167.235,58.672 166.441,57.984 C154.929,47.999 140.17,42.5 124.881,42.5 C119.006,42.5 113.21,43.32 107.645,44.887 C107.619,44.894 107.593,44.903 107.567,44.91 C106.484,45.216 105.411,45.557 104.347,45.92 C103.999,46.038 103.653,46.158 103.308,46.281 C102.566,46.549 101.831,46.834 101.1,47.129 C100.072,47.539 99.059,47.982 98.054,48.446 C97.842,48.545 97.627,48.637 97.416,48.738 C92.273,51.182 87.437,54.298 83.075,58.081 C77.511,62.907 72.913,68.639 69.362,75.118 C63.748,84.672 60.515,95.794 60.515,107.677 L60.515,164.911 C60.515,173.754 63.506,185.051 63.566,185.954 L99.65,185.954 L98.487,181.297 C96.611,173.78 94.073,166.445 90.904,159.375 C86.056,147.415 80.661,136.909 76.951,129.724 C76.874,129.576 76.795,129.42 76.72,129.275 C74.936,125.822 73.552,122.242 72.521,118.605 C68.841,105.615 69.942,91.852 75.919,80.153 C77.169,77.704 78.596,75.38 80.177,73.178 C82.598,69.81 85.391,66.737 88.543,64.003 C89.467,63.202 90.422,62.445 91.392,61.71 C91.577,61.57 91.761,61.429 91.947,61.291 C92.899,60.59 93.869,59.918 94.86,59.281 C95.023,59.176 95.19,59.076 95.355,58.973 C96.316,58.37 97.284,57.775 98.288,57.247 C98.384,57.197 98.477,57.14 98.572,57.089 C99.631,56.52 100.711,55.994 101.802,55.495 C102.004,55.403 102.207,55.312 102.409,55.222 C103.505,54.738 104.613,54.283 105.737,53.87 C105.848,53.83 105.96,53.795 106.07,53.755 C107.159,53.364 108.261,53.008 109.373,52.685 C109.514,52.644 109.653,52.599 109.794,52.56 C110.951,52.234 112.121,51.949 113.299,51.698 C113.497,51.656 113.696,51.617 113.895,51.577 C115.103,51.333 116.32,51.119 117.546,50.956 C119.965,50.635 122.415,50.469 124.881,50.469 C138.252,50.469 151.157,55.275 161.219,64.004 C161.274,64.051 161.327,64.098 161.381,64.145 L161.35,64.182 C161.371,64.199 161.393,64.217 161.414,64.235 C161.427,64.247 161.441,64.258 161.454,64.269 C161.46,64.275 161.466,64.28 161.472,64.284 C161.476,64.287 161.479,64.29 161.483,64.293 C161.493,64.302 161.503,64.311 161.514,64.32 C161.531,64.334 161.547,64.348 161.564,64.363 C161.573,64.371 161.584,64.38 161.593,64.388 C162.183,64.893 162.751,65.411 163.315,65.933 C168.755,70.957 173.03,76.864 176.021,83.488 C179.197,90.525 180.076,98.457 178.65,106.113 L186.722,106.113 C188.074,97.323 186.931,88.287 183.284,80.209"/>
    <path fill="#475059" d="M99.323,212.5 L97.323,212.5 L97.323,207.188 C97.313,180.008 80.413,147.287 72.291,131.562 C63.403,114.353 63.101,94.287 71.479,77.886 C74.938,71.116 79.58,65.179 85.276,60.238 C96.246,50.724 110.312,45.484 124.881,45.484 C139.45,45.484 153.516,50.724 164.485,60.238 C165.171,60.833 165.897,61.5 166.705,62.278 C172.635,67.757 177.297,74.203 180.563,81.438 C185.391,92.132 185.544,104.633 180.982,115.736 C180.146,117.774 179.721,119.896 179.721,122.042 C179.721,123.109 179.836,124.217 180.063,125.334 C180.517,127.566 181.393,129.629 182.666,131.468 L189.648,141.552 C190.169,142.17 190.485,143.043 190.485,143.94 C190.485,145.597 189.43,147.061 187.858,147.585 L182.675,149.313 C181.825,149.596 181.254,150.388 181.254,151.283 C181.254,152.129 181.449,153.333 182.382,154.265 L182.675,154.558 L182.675,156.569 C182.675,158.231 181.564,159.411 179.768,159.753 C179.816,160.796 179.832,162.012 179.687,162.512 C179.294,163.866 178.373,164.63 177.633,165.245 C176.92,165.836 176.63,166.12 176.628,166.544 L176.611,173.19 C176.598,178.036 172.651,181.979 167.813,181.979 L152.566,181.979 C149.745,181.979 147.446,184.258 147.413,187.072 L150.491,211.171 L150.491,212.499 L148.491,212.499 L148.491,211.235 L145.413,187.133 C145.413,183.188 148.622,179.979 152.566,179.979 L167.813,179.979 C171.551,179.979 174.602,176.931 174.611,173.184 L174.628,166.536 C174.633,165.135 175.588,164.343 176.355,163.706 C176.967,163.198 177.544,162.719 177.767,161.954 C177.836,161.639 177.798,160.128 177.717,158.922 L177.646,157.87 L178.701,157.855 C179.602,157.843 180.675,157.609 180.675,156.569 L180.675,155.362 C179.756,154.285 179.254,152.854 179.254,151.283 C179.254,149.525 180.375,147.971 182.043,147.416 L187.226,145.688 C187.979,145.437 188.485,144.734 188.485,143.94 C188.485,143.511 188.334,143.092 188.058,142.761 L181.021,132.607 C179.593,130.544 178.61,128.231 178.104,125.733 C177.85,124.484 177.721,123.243 177.721,122.042 C177.721,119.634 178.195,117.257 179.133,114.976 C183.485,104.38 183.343,92.456 178.74,82.261 C175.584,75.269 171.076,69.039 165.341,63.741 C164.735,63.181 164.124,62.625 163.49,62.084 C163.485,62.08 163.481,62.076 163.477,62.073 C163.452,62.051 163.427,62.03 163.401,62.008 C163.391,61.999 163.381,61.991 163.37,61.982 C163.337,61.954 163.304,61.926 163.271,61.897 L163.302,61.86 C163.26,61.823 163.217,61.786 163.175,61.749 C152.569,52.55 138.969,47.484 124.881,47.484 C110.793,47.484 97.192,52.55 86.587,61.749 C81.085,66.52 76.602,72.256 73.261,78.796 C65.174,94.624 65.476,114.006 74.068,130.644 C82.263,146.509 99.313,179.522 99.323,207.187 L99.323,212.5"/>
    <polygon fill="#48515A" points="213 189.5 215 189.5 215 185.5 213 185.5"/>
    <polygon fill="#48515A" points="213 199.5 215 199.5 215 195.5 213 195.5"/>
    <polygon fill="#48515A" points="217 193.5 221 193.5 221 191.5 217 191.5"/>
    <polygon fill="#48515A" points="207 193.5 211 193.5 211 191.5 207 191.5"/>
    <polygon fill="#48515A" points="35 141.5 37 141.5 37 137.5 35 137.5"/>
    <polygon fill="#48515A" points="35 151.5 37 151.5 37 147.5 35 147.5"/>
    <polygon fill="#48515A" points="39 145.5 43 145.5 43 143.5 39 143.5"/>
    <polygon fill="#48515A" points="29 145.5 33 145.5 33 143.5 29 143.5"/>
    <polygon fill="#48515A" points="191 41.5 193 41.5 193 37.5 191 37.5"/>
    <polygon fill="#48515A" points="191 51.5 193 51.5 193 47.5 191 47.5"/>
    <polygon fill="#48515A" points="195 45.5 199 45.5 199 43.5 195 43.5"/>
    <polygon fill="#48515A" points="185 45.5 189 45.5 189 43.5 185 43.5"/>
    <path fill="#5FE0ED" d="M210.317 133.773C210.317 135.605 208.832 137.09 207 137.09 205.168 137.09 203.683 135.605 203.683 133.773 203.683 131.941 205.168 130.455 207 130.455 208.832 130.455 210.317 131.941 210.317 133.773M55.817 65.487C55.817 67.319 54.332 68.804 52.5 68.804 50.668 68.804 49.183 67.319 49.183 65.487 49.183 63.655 50.668 62.17 52.5 62.17 54.332 62.17 55.817 63.655 55.817 65.487"/>
    <path fill="#F58E70" d="M164.835 198.5C164.835 199.052 164.387 199.5 163.835 199.5 163.282 199.5 162.835 199.052 162.835 198.5 162.835 197.948 163.282 197.5 163.835 197.5 164.387 197.5 164.835 197.948 164.835 198.5M54.5 185.5C54.5 186.605 53.605 187.5 52.5 187.5 51.395 187.5 50.5 186.605 50.5 185.5 50.5 184.395 51.395 183.5 52.5 183.5 53.605 183.5 54.5 184.395 54.5 185.5"/>
  </g>
</svg>
