<svg xmlns="http://www.w3.org/2000/svg" width="250" height="250" viewBox="0 0 250 250">
  <g fill="none" fill-rule="evenodd">
    <path fill="#FFD15D" d="M167.813,180.979 C172.112,180.979 175.6,177.486 175.612,173.187 C175.617,171.113 175.623,167.87 175.628,166.54 C175.635,164.717 178.097,164.404 178.727,162.233 C178.901,161.632 178.714,158.855 178.714,158.855 C180.381,158.832 181.674,158.119 181.674,156.569 L181.674,154.972 C180.696,153.994 180.254,152.667 180.254,151.283 C180.254,149.959 181.101,148.783 182.358,148.364 L187.542,146.636 C188.702,146.249 189.485,145.163 189.485,143.94 C189.485,143.275 189.252,142.632 188.826,142.121 L181.844,132.038 C180.482,130.071 179.555,127.854 179.083,125.534 C178.851,124.39 178.721,123.222 178.721,122.043 C178.721,119.747 179.186,117.479 180.058,115.356 C184.465,104.628 184.456,92.489 179.652,81.849 C176.531,74.935 171.981,68.514 166.02,63.006 C165.333,62.372 164.639,61.742 163.914,61.132 C164.639,61.742 165.333,62.372 166.02,63.006 C165.308,62.321 164.582,61.646 163.83,60.994 C160.093,57.752 155.937,54.973 151.455,52.732 C146.973,54.973 142.818,57.752 139.08,60.994 C138.328,61.646 137.602,62.321 136.89,63.006 C137.577,62.372 138.271,61.742 138.996,61.132 C138.271,61.742 137.577,62.372 136.89,63.006 C130.929,68.514 126.379,74.935 123.258,81.849 C118.455,92.489 118.445,104.628 122.852,115.356 C123.724,117.479 124.189,119.747 124.189,122.043 C124.189,123.222 124.059,124.39 123.827,125.534 C123.355,127.854 122.428,130.071 121.066,132.038 L114.084,142.121 C113.658,142.632 113.425,143.275 113.425,143.94 C113.425,145.163 114.208,146.249 115.368,146.636 L120.552,148.364 C121.809,148.783 122.656,149.959 122.656,151.283 C122.656,152.667 122.214,153.994 121.236,154.972 L121.236,156.569 C121.236,158.119 122.529,158.832 124.196,158.855 C124.196,158.855 124.009,161.632 124.183,162.233 C124.813,164.404 127.275,164.717 127.282,166.54 C127.287,167.87 127.293,171.113 127.299,173.187 C127.31,177.486 130.798,180.979 135.097,180.979 L150.343,180.979 C150.723,180.979 151.094,181.018 151.455,181.084 C151.816,181.018 152.187,180.979 152.567,180.979 L167.813,180.979"/>
    <path fill="#5FE0ED" d="M183.284,80.209 C179.854,72.617 174.966,65.854 168.753,60.107 C168.001,59.384 167.235,58.672 166.441,57.984 C154.929,47.999 140.17,42.5 124.881,42.5 C119.006,42.5 113.21,43.32 107.645,44.887 C107.619,44.894 107.593,44.903 107.567,44.91 C106.484,45.216 105.411,45.557 104.347,45.92 C103.999,46.038 103.653,46.158 103.308,46.281 C102.566,46.549 101.831,46.834 101.1,47.129 C100.072,47.539 99.059,47.982 98.054,48.446 C97.842,48.545 97.627,48.637 97.416,48.738 C92.273,51.182 87.437,54.298 83.075,58.081 C77.511,62.907 72.913,68.639 69.362,75.118 C63.748,84.672 60.515,95.794 60.515,107.677 L60.515,164.911 C60.515,173.754 63.506,185.051 63.566,185.954 L99.65,185.954 L98.487,181.297 C96.611,173.78 94.073,166.445 90.904,159.375 C86.056,147.415 80.661,136.909 76.951,129.724 C76.874,129.576 76.795,129.42 76.72,129.275 C74.936,125.822 73.552,122.242 72.521,118.605 C68.841,105.615 69.942,91.852 75.919,80.153 C77.169,77.704 78.596,75.38 80.177,73.178 C82.598,69.81 85.391,66.737 88.543,64.003 C89.467,63.202 90.422,62.445 91.392,61.71 C91.577,61.57 91.761,61.429 91.947,61.291 C92.899,60.59 93.869,59.918 94.86,59.281 C95.023,59.176 95.19,59.076 95.355,58.973 C96.316,58.37 97.284,57.775 98.288,57.247 C98.384,57.197 98.477,57.14 98.572,57.089 C99.631,56.52 100.711,55.994 101.802,55.495 C102.004,55.403 102.207,55.312 102.409,55.222 C103.505,54.738 104.613,54.283 105.737,53.87 C105.848,53.83 105.96,53.795 106.07,53.755 C107.159,53.364 108.261,53.008 109.373,52.685 C109.514,52.644 109.653,52.599 109.794,52.56 C110.951,52.234 112.121,51.949 113.299,51.698 C113.497,51.656 113.696,51.617 113.895,51.577 C115.103,51.333 116.32,51.119 117.546,50.956 C119.965,50.635 122.415,50.469 124.881,50.469 C138.252,50.469 151.157,55.275 161.219,64.004 C161.274,64.051 161.327,64.098 161.381,64.145 L161.35,64.182 C161.371,64.199 161.393,64.217 161.414,64.235 C161.427,64.247 161.441,64.258 161.454,64.269 C161.46,64.275 161.466,64.28 161.472,64.284 C161.476,64.287 161.479,64.29 161.483,64.293 C161.493,64.302 161.503,64.311 161.514,64.32 C161.531,64.334 161.547,64.348 161.564,64.363 C161.573,64.371 161.584,64.38 161.593,64.388 C162.183,64.893 162.751,65.411 163.315,65.933 C168.755,70.957 173.03,76.864 176.021,83.488 C179.197,90.525 180.076,98.457 178.65,106.113 L186.722,106.113 C188.074,97.323 186.931,88.287 183.284,80.209"/>
    <path fill="#475059" d="M99.323,212.5 L97.323,212.5 L97.323,207.188 C97.313,180.008 80.413,147.287 72.291,131.562 C63.403,114.353 63.101,94.287 71.479,77.886 C74.938,71.116 79.58,65.179 85.276,60.238 C96.246,50.724 110.312,45.484 124.881,45.484 C139.45,45.484 153.516,50.724 164.485,60.238 C165.171,60.833 165.897,61.5 166.705,62.278 C172.635,67.757 177.297,74.203 180.563,81.438 C185.391,92.132 185.544,104.633 180.982,115.736 C180.146,117.774 179.721,119.896 179.721,122.042 C179.721,123.109 179.836,124.217 180.063,125.334 C180.517,127.566 181.393,129.629 182.666,131.468 L189.648,141.552 C190.169,142.17 190.485,143.043 190.485,143.94 C190.485,145.597 189.43,147.061 187.858,147.585 L182.675,149.313 C181.825,149.596 181.254,150.388 181.254,151.283 C181.254,152.129 181.449,153.333 182.382,154.265 L182.675,154.558 L182.675,156.569 C182.675,158.231 181.564,159.411 179.768,159.753 C179.816,160.796 179.832,162.012 179.687,162.512 C179.294,163.866 178.373,164.63 177.633,165.245 C176.92,165.836 176.63,166.12 176.628,166.544 L176.611,173.19 C176.598,178.036 172.651,181.979 167.813,181.979 L152.566,181.979 C149.745,181.979 147.446,184.258 147.413,187.072 L150.491,211.171 L150.491,212.499 L148.491,212.499 L148.491,211.235 L145.413,187.133 C145.413,183.188 148.622,179.979 152.566,179.979 L167.813,179.979 C171.551,179.979 174.602,176.931 174.611,173.184 L174.628,166.536 C174.633,165.135 175.588,164.343 176.355,163.706 C176.967,163.198 177.544,162.719 177.767,161.954 C177.836,161.639 177.798,160.128 177.717,158.922 L177.646,157.87 L178.701,157.855 C179.602,157.843 180.675,157.609 180.675,156.569 L180.675,155.362 C179.756,154.285 179.254,152.854 179.254,151.283 C179.254,149.525 180.375,147.971 182.043,147.416 L187.226,145.688 C187.979,145.437 188.485,144.734 188.485,143.94 C188.485,143.511 188.334,143.092 188.058,142.761 L181.021,132.607 C179.593,130.544 178.61,128.231 178.104,125.733 C177.85,124.484 177.721,123.243 177.721,122.042 C177.721,119.634 178.195,117.257 179.133,114.976 C183.485,104.38 183.343,92.456 178.74,82.261 C175.584,75.269 171.076,69.039 165.341,63.741 C164.735,63.181 164.124,62.625 163.49,62.084 C163.485,62.08 163.481,62.076 163.477,62.073 C163.452,62.051 163.427,62.03 163.401,62.008 C163.391,61.999 163.381,61.991 163.37,61.982 C163.337,61.954 163.304,61.926 163.271,61.897 L163.302,61.86 C163.26,61.823 163.217,61.786 163.175,61.749 C152.569,52.55 138.969,47.484 124.881,47.484 C110.793,47.484 97.192,52.55 86.587,61.749 C81.085,66.52 76.602,72.256 73.261,78.796 C65.174,94.624 65.476,114.006 74.068,130.644 C82.263,146.509 99.313,179.522 99.323,207.187 L99.323,212.5"/>
    <polygon fill="#48515A" points="213 189.5 215 189.5 215 185.5 213 185.5"/>
    <polygon fill="#48515A" points="213 199.5 215 199.5 215 195.5 213 195.5"/>
    <polygon fill="#48515A" points="217 193.5 221 193.5 221 191.5 217 191.5"/>
    <polygon fill="#48515A" points="207 193.5 211 193.5 211 191.5 207 191.5"/>
    <polygon fill="#48515A" points="35 141.5 37 141.5 37 137.5 35 137.5"/>
    <polygon fill="#48515A" points="35 151.5 37 151.5 37 147.5 35 147.5"/>
    <polygon fill="#48515A" points="39 145.5 43 145.5 43 143.5 39 143.5"/>
    <polygon fill="#48515A" points="29 145.5 33 145.5 33 143.5 29 143.5"/>
    <polygon fill="#48515A" points="191 41.5 193 41.5 193 37.5 191 37.5"/>
    <polygon fill="#48515A" points="191 51.5 193 51.5 193 47.5 191 47.5"/>
    <polygon fill="#48515A" points="195 45.5 199 45.5 199 43.5 195 43.5"/>
    <polygon fill="#48515A" points="185 45.5 189 45.5 189 43.5 185 43.5"/>
    <path fill="#5FE0ED" d="M210.317 133.773C210.317 135.605 208.832 137.09 207 137.09 205.168 137.09 203.683 135.605 203.683 133.773 203.683 131.941 205.168 130.455 207 130.455 208.832 130.455 210.317 131.941 210.317 133.773M55.817 65.487C55.817 67.319 54.332 68.804 52.5 68.804 50.668 68.804 49.183 67.319 49.183 65.487 49.183 63.655 50.668 62.17 52.5 62.17 54.332 62.17 55.817 63.655 55.817 65.487"/>
    <path fill="#F58E70" d="M164.835 198.5C164.835 199.052 164.387 199.5 163.835 199.5 163.282 199.5 162.835 199.052 162.835 198.5 162.835 197.948 163.282 197.5 163.835 197.5 164.387 197.5 164.835 197.948 164.835 198.5M54.5 185.5C54.5 186.605 53.605 187.5 52.5 187.5 51.395 187.5 50.5 186.605 50.5 185.5 50.5 184.395 51.395 183.5 52.5 183.5 53.605 183.5 54.5 184.395 54.5 185.5"/>
  </g>
</svg>
