<svg xmlns="http://www.w3.org/2000/svg" width="250" height="250" viewBox="0 0 250 250">
  <g fill="none" fill-rule="evenodd">
    <path fill="#5FE0ED" d="M74.021,129.894 C65.803,113.98 65.5,95.466 73.214,80.369 C76.405,74.123 80.687,68.645 85.943,64.086 C96.088,55.287 109.097,50.441 122.579,50.441 C136.059,50.441 149.07,55.287 159.215,64.085 C159.919,64.696 160.599,65.329 161.331,66.034 C162.406,67.026 163.453,68.072 164.442,69.143 C168.647,73.689 171.846,79.53 173.713,86.103 C173.898,86.757 174.046,87.419 174.201,88.08 L182.386,88.08 C182.108,86.663 181.79,85.249 181.391,83.845 C179.203,76.137 175.374,69.175 170.319,63.707 C169.187,62.483 167.988,61.287 166.825,60.213 C166.057,59.472 165.273,58.745 164.46,58.039 C152.859,47.977 137.985,42.436 122.579,42.436 C107.172,42.436 92.298,47.977 80.698,58.039 C74.662,63.275 69.746,69.562 66.085,76.728 C57.201,94.117 57.509,115.365 66.91,133.568 C69.614,138.804 72.091,146.028 74.179,154.368 L82.436,154.368 C80.095,144.612 77.222,136.092 74.021,129.894"/>
    <path fill="#475059" d="M146.394,212.563 L143.282,188.207 C143.282,184.235 146.514,181.003 150.485,181.003 L168.956,181.003 C172.729,181.003 175.807,177.928 175.816,174.147 L175.833,167.446 C175.839,166.143 176.282,165.403 176.711,164.687 C176.999,164.204 177.298,163.706 177.537,162.917 C177.556,162.486 177.539,160.6 177.511,158.918 L177.504,158.505 L180.284,155.615 L178.944,152.936 L178.944,152.7 C178.944,150.894 180.124,149.189 181.749,148.648 L181.903,148.597 L185.927,148.597 C187.016,148.597 187.984,148.186 188.584,147.47 C189.417,146.476 189.601,145.143 189.063,143.991 C186.924,139.409 181.671,127.838 179.115,119.388 C178.577,117.61 178.325,115.854 178.365,114.168 L178.361,97.92 C178.36,93.646 177.768,89.395 176.601,85.283 C174.604,78.256 171.17,71.995 166.646,67.104 C165.608,65.981 164.505,64.878 163.366,63.827 C162.544,63.036 161.854,62.402 161.183,61.818 C150.491,52.545 136.781,47.438 122.579,47.438 C108.376,47.438 94.666,52.545 83.975,61.818 C78.428,66.63 73.907,72.412 70.54,79.003 C62.388,94.96 62.692,114.5 71.354,131.271 C79.69,147.412 85.748,179.83 85.757,208.354 L85.859,212.412 L83.859,212.461 L83.757,208.379 C83.748,180.112 77.784,148.08 69.577,132.189 C60.62,114.846 60.315,94.623 68.759,78.093 C72.243,71.272 76.922,65.289 82.664,60.308 C93.72,50.719 107.895,45.438 122.578,45.438 C137.263,45.438 151.438,50.719 162.493,60.308 C163.192,60.915 163.905,61.57 164.738,62.372 C165.9,63.445 167.041,64.585 168.115,65.747 C172.851,70.867 176.442,77.409 178.504,84.664 C179.742,89.026 180.36,93.461 180.361,97.919 L180.365,114.192 C180.33,115.689 180.554,117.235 181.029,118.809 C183.547,127.135 188.754,138.602 190.876,143.145 C191.746,145.009 191.455,147.158 190.117,148.754 C189.136,149.925 187.608,150.597 185.927,150.597 L182.247,150.597 C181.556,150.895 181.033,151.661 180.955,152.484 L182.704,155.984 L179.518,159.297 C179.577,163.062 179.53,163.226 179.484,163.384 C179.168,164.475 178.757,165.162 178.427,165.714 C178.059,166.329 177.836,166.7 177.833,167.454 L177.816,174.153 C177.803,179.033 173.828,183.003 168.956,183.003 L150.485,183.003 C147.637,183.003 145.315,185.305 145.282,188.146 L148.378,212.31 L146.394,212.563"/>
    <path fill="#2B2B2B" d="M174.675,162.004 C174.677,162.001 174.678,161.998 174.678,161.995 C174.678,161.998 174.677,162.001 174.675,162.004"/>
    <path fill="#DEDEDD" d="M131.999,103.687 C131.999,100.926 134.238,98.687 136.999,98.687 C139.761,98.687 141.999,100.926 141.999,103.687 C141.999,105.251 141.267,106.63 140.143,107.547 L140.749,115.185 L133.25,115.185 L133.856,107.547 C132.732,106.63 131.999,105.251 131.999,103.687"/>
    <polygon fill="#DEDEDD" points="154.988 114.436 170.988 114.436 170.988 105.437 154.988 105.437"/>
    <polyline fill="#DEDEDD" points="170.988 106.436 99.417 106.436 93 102.436 170.988 102.436 170.988 106.436"/>
    <path fill="#2B2B2B" d="M86.058,109.867 L86.005,111.353 C86,115.296 89.141,118.437 93,118.437 C96.859,118.437 100,115.296 100,111.437 C100,107.577 96.859,104.437 93,104.437 L93,102.437 C96.859,102.437 100,99.296 100,95.436 C100,91.577 96.859,88.436 93,88.436 C89.141,88.436 86,91.577 86,95.436 L86.058,97.005 L84.763,96.67 C80.117,95.464 76,99.005 76,103.437 C76,107.87 80.154,111.398 84.762,110.203 L86.058,109.867 Z M93,120.437 C88.353,120.437 84.518,116.896 84.048,112.372 C78.647,113.031 74,108.745 74,103.437 C74,98.128 78.634,93.845 84.048,94.501 C84.518,89.977 88.353,86.436 93,86.436 C97.963,86.436 102,90.474 102,95.436 C102,98.915 100.017,101.939 97.121,103.437 C100.017,104.934 102,107.958 102,111.437 C102,116.399 97.963,120.437 93,120.437 Z"/>
    <polygon fill="#2B2B2B" points="144.066 104.437 170.988 104.437 170.988 102.437 144.066 102.437"/>
    <polygon fill="#2B2B2B" points="93 104.437 142.004 104.437 142.004 102.437 93 102.437"/>
    <polygon fill="#2B2B2B" points="161.917 112.436 163.917 112.436 163.917 103.437 161.917 103.437"/>
    <polyline fill="#2B2B2B" points="171 112.437 168 112.437 168 108.437 158 108.437 158 112.437 154.917 112.437 154.917 110.437 156 110.437 156 106.437 170 106.437 170 110.437 171 110.437 171 112.437"/>
    <polygon fill="#2B2B2B" points="105.917 107.437 107.917 107.437 107.917 99.436 105.917 99.436"/>
    <path fill="#2B2B2B" d="M140.749,116.185 L132.167,116.185 L132.82,107.961 C131.657,106.831 130.999,105.301 130.999,103.688 C130.999,102.222 131.533,100.811 132.504,99.714 C133.643,98.426 135.281,97.687 136.999,97.687 L136.999,99.687 C135.854,99.687 134.762,100.18 134.002,101.039 C133.355,101.77 132.999,102.71 132.999,103.688 C132.999,104.875 133.542,106 134.488,106.771 L134.895,107.103 L134.333,114.185 L140.749,114.185 L140.749,116.185"/>
    <polygon fill="#48515A" points="213 189.437 215 189.437 215 185.437 213 185.437"/>
    <polygon fill="#48515A" points="213 199.437 215 199.437 215 195.437 213 195.437"/>
    <polygon fill="#48515A" points="217 193.437 221 193.437 221 191.437 217 191.437"/>
    <polygon fill="#48515A" points="207 193.437 211 193.437 211 191.437 207 191.437"/>
    <polygon fill="#48515A" points="35 141.437 37 141.437 37 137.437 35 137.437"/>
    <polygon fill="#48515A" points="35 151.437 37 151.437 37 147.437 35 147.437"/>
    <polygon fill="#48515A" points="39 145.437 43 145.437 43 143.437 39 143.437"/>
    <polygon fill="#48515A" points="29 145.437 33 145.437 33 143.437 29 143.437"/>
    <polygon fill="#48515A" points="191 41.436 193 41.436 193 37.436 191 37.436"/>
    <polygon fill="#48515A" points="191 51.436 193 51.436 193 47.436 191 47.436"/>
    <polygon fill="#48515A" points="195 45.436 199 45.436 199 43.436 195 43.436"/>
    <polygon fill="#48515A" points="185 45.436 189 45.436 189 43.436 185 43.436"/>
    <path fill="#5FE0ED" d="M210.317 133.709C210.317 135.541 208.832 137.026 207 137.026 205.168 137.026 203.683 135.541 203.683 133.709 203.683 131.877 205.168 130.392 207 130.392 208.832 130.392 210.317 131.877 210.317 133.709M55.817 65.423C55.817 67.255 54.332 68.74 52.5 68.74 50.668 68.74 49.183 67.255 49.183 65.423 49.183 63.591 50.668 62.106 52.5 62.106 54.332 62.106 55.817 63.591 55.817 65.423"/>
    <path fill="#F58E70" d="M164.835 198.437C164.835 198.989 164.387 199.437 163.835 199.437 163.282 199.437 162.835 198.989 162.835 198.437 162.835 197.884 163.282 197.437 163.835 197.437 164.387 197.437 164.835 197.884 164.835 198.437M54.5 185.437C54.5 186.541 53.605 187.437 52.5 187.437 51.395 187.437 50.5 186.541 50.5 185.437 50.5 184.332 51.395 183.437 52.5 183.437 53.605 183.437 54.5 184.332 54.5 185.437"/>
  </g>
</svg>
