<svg xmlns="http://www.w3.org/2000/svg" width="250" height="250" viewBox="0 0 250 250">
  <g fill="none" fill-rule="evenodd">
    <path fill="#5FE0ED" d="M183.284,80.209 C179.854,72.617 174.966,65.854 168.753,60.107 C168.001,59.384 167.235,58.672 166.441,57.984 C154.929,47.999 140.17,42.5 124.881,42.5 C119.006,42.5 113.21,43.32 107.645,44.887 C107.619,44.894 107.593,44.903 107.567,44.91 C106.484,45.216 105.411,45.557 104.347,45.92 C103.999,46.038 103.653,46.158 103.308,46.281 C102.566,46.549 101.831,46.834 101.1,47.129 C100.072,47.539 99.059,47.982 98.054,48.446 C97.842,48.545 97.627,48.637 97.416,48.738 C92.273,51.182 87.437,54.298 83.075,58.081 C77.511,62.907 72.913,68.639 69.362,75.118 C63.748,84.672 60.515,95.794 60.515,107.677 L60.515,164.911 C60.515,173.754 63.506,185.051 63.566,185.954 L99.65,185.954 L98.487,181.297 C96.611,173.78 94.073,166.445 90.904,159.375 C86.056,147.415 80.661,136.909 76.951,129.724 C76.874,129.576 76.795,129.42 76.72,129.275 C74.936,125.822 73.552,122.242 72.521,118.605 C68.841,105.615 69.942,91.852 75.919,80.153 C77.169,77.704 78.596,75.38 80.177,73.178 C82.598,69.81 85.391,66.737 88.543,64.003 C89.467,63.202 90.422,62.445 91.392,61.71 C91.577,61.57 91.761,61.429 91.947,61.291 C92.899,60.59 93.869,59.918 94.86,59.281 C95.023,59.176 95.19,59.076 95.355,58.973 C96.316,58.37 97.284,57.775 98.288,57.247 C98.384,57.197 98.477,57.14 98.572,57.089 C99.631,56.52 100.711,55.994 101.802,55.495 C102.004,55.403 102.207,55.312 102.409,55.222 C103.505,54.738 104.613,54.283 105.737,53.87 C105.848,53.83 105.96,53.795 106.07,53.755 C107.159,53.364 108.261,53.008 109.373,52.685 C109.514,52.644 109.653,52.599 109.794,52.56 C110.951,52.234 112.121,51.949 113.299,51.698 C113.497,51.656 113.696,51.617 113.895,51.577 C115.103,51.333 116.32,51.119 117.546,50.956 C119.965,50.635 122.415,50.469 124.881,50.469 C138.252,50.469 151.157,55.275 161.219,64.004 C161.274,64.051 161.327,64.098 161.381,64.145 L161.35,64.182 C161.371,64.199 161.393,64.217 161.414,64.235 C161.427,64.247 161.441,64.258 161.454,64.269 C161.46,64.275 161.466,64.28 161.472,64.284 C161.476,64.287 161.479,64.29 161.483,64.293 C161.493,64.302 161.503,64.311 161.514,64.32 C161.531,64.334 161.547,64.348 161.564,64.363 C161.573,64.371 161.584,64.38 161.593,64.388 C162.183,64.893 162.751,65.411 163.315,65.933 C168.755,70.957 173.03,76.864 176.021,83.488 C179.197,90.525 180.076,98.457 178.65,106.113 L186.722,106.113 C188.074,97.323 186.931,88.287 183.284,80.209"/>
    <path fill="#475059" d="M99.323,212.5 L97.323,212.5 L97.323,207.188 C97.313,180.011 80.413,147.288 72.291,131.562 C63.403,114.353 63.1,94.288 71.479,77.886 C74.938,71.117 79.58,65.179 85.277,60.238 C96.246,50.724 110.311,45.484 124.881,45.484 C139.451,45.484 153.516,50.724 164.485,60.238 C165.171,60.833 165.897,61.501 166.706,62.279 C172.636,67.758 177.298,74.204 180.563,81.438 C185.391,92.131 185.544,104.632 180.983,115.736 C180.146,117.774 179.721,119.896 179.721,122.042 C179.721,123.109 179.836,124.217 180.063,125.334 C180.516,127.564 181.392,129.628 182.666,131.468 L189.649,141.552 C190.169,142.17 190.485,143.043 190.485,143.94 C190.485,145.597 189.429,147.061 187.858,147.585 L182.674,149.313 C181.825,149.596 181.254,150.388 181.254,151.283 C181.254,152.129 181.45,153.333 182.382,154.265 L182.674,154.558 L182.674,156.569 C182.674,158.231 181.563,159.411 179.768,159.753 C179.816,160.796 179.833,162.011 179.688,162.511 C179.294,163.866 178.374,164.63 177.633,165.245 C176.92,165.836 176.629,166.12 176.628,166.544 L176.611,173.19 C176.598,178.036 172.651,181.979 167.813,181.979 L152.567,181.979 C149.745,181.979 147.446,184.258 147.413,187.072 L150.492,211.171 L150.492,212.499 L148.492,212.499 L148.492,211.234 L145.413,187.133 C145.413,183.188 148.622,179.979 152.567,179.979 L167.813,179.979 C171.551,179.979 174.601,176.931 174.611,173.184 L174.628,166.536 C174.634,165.135 175.589,164.343 176.356,163.706 C176.967,163.198 177.545,162.719 177.767,161.954 C177.835,161.64 177.798,160.128 177.717,158.922 L177.646,157.87 L178.701,157.855 C179.601,157.843 180.674,157.609 180.674,156.569 L180.674,155.362 C179.755,154.285 179.254,152.854 179.254,151.283 C179.254,149.525 180.375,147.971 182.042,147.416 L187.226,145.688 C187.979,145.437 188.485,144.734 188.485,143.94 C188.485,143.51 188.333,143.091 188.058,142.761 L181.021,132.607 C179.592,130.542 178.61,128.229 178.104,125.732 C177.85,124.484 177.721,123.243 177.721,122.042 C177.721,119.634 178.196,117.257 179.133,114.976 C183.486,104.379 183.343,92.455 178.74,82.261 C175.584,75.27 171.076,69.039 165.341,63.741 C164.748,63.193 164.15,62.649 163.532,62.119 C163.523,62.112 163.515,62.104 163.506,62.098 C163.428,62.031 163.349,61.964 163.271,61.897 L163.302,61.86 C163.26,61.823 163.217,61.786 163.175,61.749 C152.569,52.55 138.97,47.484 124.881,47.484 C110.792,47.484 97.192,52.55 86.587,61.749 C81.085,66.521 76.601,72.256 73.261,78.796 C65.174,94.624 65.476,114.007 74.068,130.644 C82.262,146.51 99.313,179.525 99.323,207.187 L99.323,212.5"/>
    <path fill="#475059" d="M120.017,75.487 L125.167,82.757 L130.316,75.487 L120.017,75.487 Z M125.167,86.217 L116.15,73.487 L134.184,73.487 L125.167,86.217 Z"/>
    <polyline fill="#475059" points="102.979 83.89 100.612 81.487 97 81.487 97 79.487 101.45 79.487 103.021 81.083 104.693 79.487 122.333 79.487 122.333 81.487 105.495 81.487 102.979 83.89"/>
    <path fill="#475059" d="M97.825,121.487 L108.173,121.487 C108.584,120.341 109.682,119.518 110.968,119.518 L111,119.518 L111,114.644 L103,89.764 L95,114.644 L95,119.549 L95.062,119.549 C96.331,119.549 97.415,120.358 97.825,121.487 Z M110,123.487 L96,123.487 L96,122.487 C96,121.97 95.58,121.549 95.062,121.549 L93,121.549 L93.048,114.181 L103,83.23 L113,114.487 L113,121.518 L110.969,121.518 C110.435,121.518 110,121.953 110,122.487 L110,123.487 Z"/>
    <polygon fill="#475059" points="94.013 115.487 112 115.487 112 113.487 94.013 113.487"/>
    <polyline fill="#475059" points="146.876 83.902 144.6 81.487 128 81.487 128 79.487 145.463 79.487 146.957 81.072 148.633 79.487 153.083 79.487 153.083 81.487 149.429 81.487 146.876 83.902"/>
    <polygon fill="#475059" points="118 133.487 132.016 133.487 132.016 131.487 118 131.487"/>
    <path fill="#475059" d="M120,91.487 L122,91.487 L122,89.487 L120,89.487 L120,91.487 Z M124,91.487 L126,91.487 L126,89.487 L124,89.487 L124,91.487 Z M128,91.487 L130,91.487 L130,89.487 L128,89.487 L128,91.487 Z"/>
    <polygon fill="#475059" points="120.008 132.487 122.008 132.487 122.008 94.487 120.008 94.487"/>
    <polygon fill="#475059" points="128.008 132.487 130.008 132.487 130.008 94.487 128.008 94.487"/>
    <polygon fill="#475059" points="124.008 132.487 126.008 132.487 126.008 94.487 124.008 94.487"/>
    <polygon fill="#475059" points="118 87.487 132.016 87.487 132.016 85.487 118 85.487"/>
    <path fill="#475059" d="M141.825,121.487 L152.173,121.487 C152.584,120.341 153.682,119.518 154.968,119.518 L155,119.518 L155,114.644 L147,89.764 L139,114.644 L139,119.549 L139.063,119.549 C140.331,119.549 141.415,120.358 141.825,121.487 Z M154,123.487 L140,123.487 L140,122.487 C140,121.97 139.58,121.549 139.063,121.549 L137,121.549 L137.048,114.181 L147,83.23 L157,114.487 L157,121.518 L154.969,121.518 C154.435,121.518 154,121.953 154,122.487 L154,123.487 Z"/>
    <polygon fill="#475059" points="138.013 115.487 156 115.487 156 113.487 138.013 113.487"/>
    <polygon fill="#475059" points="118 95.487 132.016 95.487 132.016 93.487 118 93.487"/>
    <polygon fill="#475059" points="115 137.487 135.016 137.487 135.016 135.487 115 135.487"/>
    <path fill="#475059" d="M98 119.487L100 119.487 100 117.487 98 117.487 98 119.487zM102 119.487L104 119.487 104 117.487 102 117.487 102 119.487zM106 119.487L108 119.487 108 117.487 106 117.487 106 119.487zM142 119.487L144 119.487 144 117.487 142 117.487 142 119.487zM146 119.487L148 119.487 148 117.487 146 117.487 146 119.487zM150 119.487L152 119.487 152 117.487 150 117.487 150 119.487z"/>
    <polygon fill="#48515A" points="213 189.5 215 189.5 215 185.5 213 185.5"/>
    <polygon fill="#48515A" points="213 199.5 215 199.5 215 195.5 213 195.5"/>
    <polygon fill="#48515A" points="217 193.5 221 193.5 221 191.5 217 191.5"/>
    <polygon fill="#48515A" points="207 193.5 211 193.5 211 191.5 207 191.5"/>
    <polygon fill="#48515A" points="35 141.5 37 141.5 37 137.5 35 137.5"/>
    <polygon fill="#48515A" points="35 151.5 37 151.5 37 147.5 35 147.5"/>
    <polygon fill="#48515A" points="39 145.5 43 145.5 43 143.5 39 143.5"/>
    <polygon fill="#48515A" points="29 145.5 33 145.5 33 143.5 29 143.5"/>
    <polygon fill="#48515A" points="191 41.5 193 41.5 193 37.5 191 37.5"/>
    <polygon fill="#48515A" points="191 51.5 193 51.5 193 47.5 191 47.5"/>
    <polygon fill="#48515A" points="195 45.5 199 45.5 199 43.5 195 43.5"/>
    <polygon fill="#48515A" points="185 45.5 189 45.5 189 43.5 185 43.5"/>
    <path fill="#5FE0ED" d="M210.317 133.773C210.317 135.605 208.832 137.09 207 137.09 205.168 137.09 203.683 135.605 203.683 133.773 203.683 131.941 205.168 130.455 207 130.455 208.832 130.455 210.317 131.941 210.317 133.773M55.817 65.487C55.817 67.319 54.332 68.804 52.5 68.804 50.668 68.804 49.183 67.319 49.183 65.487 49.183 63.655 50.668 62.17 52.5 62.17 54.332 62.17 55.817 63.655 55.817 65.487"/>
    <path fill="#F58E70" d="M164.835 198.5C164.835 199.052 164.387 199.5 163.835 199.5 163.282 199.5 162.835 199.052 162.835 198.5 162.835 197.948 163.282 197.5 163.835 197.5 164.387 197.5 164.835 197.948 164.835 198.5M54.5 185.5C54.5 186.605 53.605 187.5 52.5 187.5 51.395 187.5 50.5 186.605 50.5 185.5 50.5 184.395 51.395 183.5 52.5 183.5 53.605 183.5 54.5 184.395 54.5 185.5"/>
  </g>
</svg>
