<svg xmlns="http://www.w3.org/2000/svg" width="250" height="250" viewBox="0 0 250 250">
  <g fill="none" fill-rule="evenodd">
    <path fill="#5FE0ED" d="M74.021,129.894 C65.803,113.98 65.5,95.466 73.214,80.369 C76.405,74.123 80.687,68.645 85.943,64.086 C96.088,55.287 109.097,50.441 122.579,50.441 C136.059,50.441 149.07,55.287 159.215,64.085 C159.919,64.696 160.599,65.329 161.331,66.034 C162.406,67.026 163.453,68.072 164.442,69.143 C168.647,73.689 171.846,79.53 173.713,86.103 C173.898,86.757 174.046,87.419 174.201,88.08 L182.386,88.08 C182.108,86.663 181.79,85.249 181.391,83.845 C179.203,76.137 175.374,69.175 170.319,63.707 C169.187,62.483 167.988,61.287 166.825,60.213 C166.057,59.472 165.273,58.745 164.46,58.039 C152.859,47.977 137.985,42.436 122.579,42.436 C107.172,42.436 92.298,47.977 80.698,58.039 C74.662,63.275 69.746,69.562 66.085,76.728 C57.201,94.117 57.509,115.365 66.91,133.568 C69.614,138.804 72.091,146.028 74.179,154.368 L82.436,154.368 C80.095,144.612 77.222,136.092 74.021,129.894"/>
    <path fill="#475059" d="M146.394,212.563 L143.282,188.207 C143.282,184.235 146.514,181.003 150.485,181.003 L168.956,181.003 C172.729,181.003 175.806,177.928 175.817,174.147 L175.833,167.446 C175.838,166.143 176.282,165.403 176.71,164.687 C177,164.204 177.297,163.706 177.537,162.917 C177.556,162.486 177.539,160.6 177.511,158.918 L177.504,158.505 L180.284,155.615 L178.944,152.936 L178.944,152.7 C178.944,150.894 180.124,149.189 181.75,148.648 L181.903,148.597 L185.927,148.597 C187.015,148.597 187.984,148.186 188.584,147.47 C189.417,146.476 189.601,145.143 189.063,143.992 C186.921,139.403 181.666,127.822 179.116,119.388 C178.578,117.608 178.325,115.853 178.366,114.168 L178.362,97.92 C178.361,93.645 177.768,89.394 176.6,85.283 C174.604,78.256 171.169,71.995 166.646,67.104 C165.606,65.979 164.502,64.876 163.366,63.827 C162.54,63.032 161.851,62.398 161.183,61.818 C150.491,52.545 136.781,47.438 122.579,47.438 C108.376,47.438 94.666,52.545 83.975,61.818 C78.428,66.629 73.908,72.411 70.54,79.003 C62.388,94.96 62.692,114.5 71.354,131.271 C79.69,147.412 85.748,179.83 85.757,208.354 L85.859,212.412 L83.86,212.461 L83.758,208.379 C83.748,180.112 77.784,148.08 69.577,132.189 C60.62,114.846 60.315,94.623 68.759,78.093 C72.244,71.271 76.923,65.288 82.665,60.308 C93.72,50.719 107.895,45.438 122.579,45.438 C137.262,45.438 151.437,50.719 162.493,60.308 C163.188,60.911 163.902,61.566 164.738,62.372 C165.898,63.443 167.039,64.583 168.115,65.747 C172.85,70.867 176.442,77.408 178.503,84.664 C179.743,89.025 180.361,93.46 180.362,97.919 L180.366,114.192 C180.33,115.688 180.553,117.233 181.03,118.809 C183.542,127.119 188.752,138.597 190.875,143.146 C191.746,145.009 191.455,147.158 190.117,148.754 C189.136,149.925 187.608,150.597 185.927,150.597 L182.247,150.597 C181.556,150.895 181.034,151.661 180.955,152.484 L182.704,155.984 L179.518,159.297 C179.578,163.064 179.529,163.229 179.483,163.389 C179.168,164.475 178.757,165.162 178.427,165.713 C178.059,166.329 177.836,166.7 177.833,167.454 L177.817,174.153 C177.803,179.033 173.828,183.003 168.956,183.003 L150.485,183.003 C147.637,183.003 145.315,185.305 145.283,188.146 L148.377,212.31 L146.394,212.563"/>
    <path fill="#2B2B2B" d="M174.675,162.004 C174.677,162.001 174.678,161.998 174.678,161.995 C174.678,161.998 174.677,162.001 174.675,162.004"/>
    <path fill="#48515A" d="M90.333,103.619 L99.639,103.619 C100.191,103.619 100.639,104.067 100.639,104.619 L100.639,108.551 C100.639,110.375 102.01,111.805 103.761,111.805 C105.511,111.805 106.883,110.375 106.883,108.551 L106.883,104.619 C106.883,104.067 107.331,103.619 107.883,103.619 L117.188,103.619 L117.188,94.314 C117.188,93.762 117.636,93.314 118.188,93.314 L122.186,93.314 C123.96,93.314 125.407,91.899 125.438,90.148 C125.407,88.417 123.99,87.07 122.186,87.07 L118.188,87.07 C117.636,87.07 117.188,86.622 117.188,86.07 L117.188,76.765 L107.883,76.765 C107.331,76.765 106.883,76.317 106.883,75.765 L106.883,71.69 C106.883,69.866 105.511,68.436 103.761,68.436 C102.01,68.436 100.639,69.866 100.639,71.69 L100.639,75.765 C100.639,76.317 100.191,76.765 99.639,76.765 L90.333,76.765 L90.333,86.07 C90.333,86.622 89.885,87.07 89.333,87.07 L85.295,87.07 C83.471,87.07 82.042,88.441 82.042,90.192 C82.042,91.942 83.471,93.314 85.295,93.314 L89.333,93.314 C89.885,93.314 90.333,93.762 90.333,94.314 L90.333,103.619 Z M103.761,113.805 C100.889,113.805 98.639,111.497 98.639,108.551 L98.639,105.619 L89.333,105.619 C88.781,105.619 88.333,105.171 88.333,104.619 L88.333,95.314 L85.295,95.314 C82.35,95.314 80.042,93.064 80.042,90.192 C80.042,87.32 82.349,85.07 85.295,85.07 L88.333,85.07 L88.333,75.765 C88.333,75.212 88.781,74.765 89.333,74.765 L98.639,74.765 L98.639,71.69 C98.639,68.744 100.889,66.436 103.761,66.436 C106.633,66.436 108.883,68.744 108.883,71.69 L108.883,74.765 L118.188,74.765 C118.74,74.765 119.188,75.212 119.188,75.765 L119.188,85.07 L122.186,85.07 C125.061,85.07 127.328,87.22 127.435,90.001 C127.437,90.03 127.439,90.06 127.439,90.09 L127.439,90.206 C127.439,90.237 127.437,90.268 127.435,90.297 C127.325,93.082 125.013,95.314 122.186,95.314 L119.188,95.314 L119.188,104.619 C119.188,105.171 118.74,105.619 118.188,105.619 L108.883,105.619 L108.883,108.551 C108.883,111.497 106.633,113.805 103.761,113.805 Z"/>
    <path fill="#48515A" d="M119.188,103.619 L129.18,103.619 C129.732,103.619 130.18,104.067 130.18,104.619 L130.18,108.551 C130.18,110.284 131.8,111.805 133.646,111.805 C135.492,111.805 137.112,110.284 137.112,108.551 L137.112,104.619 C137.112,104.067 137.56,103.619 138.112,103.619 L146.73,103.619 L146.73,94.314 C146.73,93.762 147.178,93.314 147.73,93.314 L151.987,93.314 C153.811,93.314 155.24,91.942 155.24,90.192 C155.24,88.441 153.811,87.07 151.987,87.07 L147.73,87.07 C147.178,87.07 146.73,86.622 146.73,86.07 L146.73,76.765 L139.112,76.765 L139.112,80.196 C139.112,83.044 136.609,85.45 133.646,85.45 C130.683,85.45 128.18,83.044 128.18,80.196 L128.18,76.765 L119.188,76.765 L119.188,85.07 L122.186,85.07 C125.131,85.07 127.439,87.32 127.439,90.192 C127.439,93.064 125.131,95.314 122.186,95.314 L119.188,95.314 L119.188,103.619 Z M133.646,113.805 C130.683,113.805 128.18,111.399 128.18,108.551 L128.18,105.619 L118.188,105.619 C117.636,105.619 117.188,105.171 117.188,104.619 L117.188,94.314 C117.188,93.762 117.636,93.314 118.188,93.314 L122.186,93.314 C124.01,93.314 125.439,91.942 125.439,90.192 C125.439,88.441 124.01,87.07 122.186,87.07 L118.188,87.07 C117.636,87.07 117.188,86.622 117.188,86.07 L117.188,76.715 C116.789,76.583 116.501,76.207 116.501,75.765 C116.501,75.212 116.949,74.765 117.501,74.765 L129.18,74.765 C129.732,74.765 130.18,75.212 130.18,75.765 L130.18,80.196 C130.18,81.929 131.8,83.45 133.646,83.45 C135.492,83.45 137.112,81.929 137.112,80.196 L137.112,75.765 C137.112,75.212 137.56,74.765 138.112,74.765 L147.73,74.765 C148.282,74.765 148.73,75.212 148.73,75.765 L148.73,85.07 L151.987,85.07 C154.933,85.07 157.24,87.32 157.24,90.192 C157.24,93.064 154.933,95.314 151.987,95.314 L148.73,95.314 L148.73,104.619 C148.73,105.171 148.282,105.619 147.73,105.619 L139.112,105.619 L139.112,108.551 C139.112,111.399 136.609,113.805 133.646,113.805 Z"/>
    <path fill="#48515A" d="M118.188 134.072L118.198 134.072 118.188 134.072zM90.333 133.075L100.329 133.104C100.88 133.105 101.326 133.553 101.326 134.104L101.326 138.357C101.326 140.09 102.945 141.611 104.791 141.611 106.637 141.611 108.257 140.09 108.257 138.357L108.257 134.104C108.257 133.553 108.702 133.106 109.253 133.104L117.188 133.075 117.188 124.856 113.679 124.856C110.733 124.856 108.426 122.606 108.426 119.734 108.426 116.862 110.733 114.612 113.679 114.612L117.188 114.612 117.188 105.619 108.883 105.619 108.883 108.551C108.883 111.497 106.633 113.805 103.761 113.805 100.889 113.805 98.639 111.497 98.639 108.551L98.639 105.619 90.333 105.619 90.333 115.612C90.333 116.164 89.885 116.612 89.333 116.612L85.319 116.612C83.495 116.612 82.065 117.983 82.065 119.734 82.065 121.484 83.494 122.856 85.318 122.856L89.333 122.856C89.885 122.856 90.333 123.304 90.333 123.856L90.333 133.075zM104.791 143.611C101.829 143.611 99.326 141.205 99.326 138.357L99.326 135.101 89.33 135.072C88.779 135.07 88.333 134.623 88.333 134.072L88.333 124.856 85.318 124.856C82.373 124.856 80.065 122.606 80.065 119.734 80.065 116.862 82.373 114.612 85.319 114.612L88.333 114.612 88.333 104.619C88.333 104.067 88.781 103.619 89.333 103.619L99.639 103.619C100.191 103.619 100.639 104.067 100.639 104.619L100.639 108.551C100.639 110.375 102.01 111.805 103.761 111.805 105.511 111.805 106.883 110.375 106.883 108.551L106.883 104.619C106.883 104.067 107.331 103.619 107.883 103.619L118.188 103.619C118.74 103.619 119.188 104.067 119.188 104.619L119.188 115.612C119.188 116.164 118.74 116.612 118.188 116.612L113.679 116.612C111.855 116.612 110.426 117.983 110.426 119.734 110.426 121.484 111.854 122.856 113.679 122.856L118.188 122.856C118.74 122.856 119.188 123.304 119.188 123.856L119.188 134.072C119.188 134.623 118.743 135.07 118.191 135.072L110.257 135.101 110.257 138.357C110.257 141.205 107.754 143.611 104.791 143.611zM140.891 147.115C141.146 147.115 141.402 147.213 141.598 147.408L147.927 153.737 155.203 146.461C155.593 146.071 156.226 146.071 156.617 146.461L159.625 149.469C160.894 150.737 162.958 150.736 164.226 149.469 165.494 148.2 165.494 146.136 164.226 144.868L161.218 141.861C161.03 141.673 160.925 141.419 160.925 141.154 160.925 140.889 161.03 140.634 161.218 140.447L167.586 134.079 161.441 127.934C161.05 127.543 161.05 126.91 161.441 126.52L164.223 123.738C164.837 123.124 165.175 122.307 165.175 121.438 165.175 120.569 164.837 119.752 164.223 119.137 162.993 117.909 160.851 117.908 159.622 119.137L156.84 121.919C156.449 122.31 155.816 122.31 155.426 121.919L147.929 114.422 142.305 120.046 144.605 122.346C145.598 123.338 146.144 124.658 146.144 126.061 146.144 127.464 145.598 128.783 144.605 129.775 142.558 131.824 139.225 131.823 137.176 129.775L134.876 127.475 128.27 134.081 135.583 141.394C135.771 141.581 135.876 141.835 135.876 142.101 135.876 142.366 135.771 142.62 135.583 142.808L132.575 145.815C131.307 147.083 131.307 149.147 132.575 150.416 133.844 151.684 135.908 151.684 137.176 150.416L140.184 147.408C140.379 147.213 140.635 147.115 140.891 147.115zM147.888 156.189C147.704 156.189 147.519 156.139 147.354 156.035 147.193 155.933 147.07 155.792 146.991 155.629L140.891 149.529 138.59 151.83C136.542 153.877 133.21 153.878 131.161 151.83 129.113 149.782 129.113 146.449 131.161 144.401L133.462 142.101 126.149 134.788C125.758 134.397 125.758 133.764 126.149 133.374L134.169 125.354C134.356 125.166 134.611 125.061 134.876 125.061 135.141 125.061 135.396 125.166 135.583 125.354L138.59 128.361C139.859 129.629 141.923 129.63 143.191 128.361 143.806 127.747 144.144 126.93 144.144 126.061 144.144 125.192 143.806 124.375 143.191 123.76L140.184 120.753C139.793 120.362 139.793 119.729 140.184 119.339L147.222 112.301C147.597 111.926 148.261 111.926 148.636 112.301L156.133 119.798 158.208 117.723C159.2 116.731 160.519 116.184 161.922 116.184 163.325 116.184 164.645 116.731 165.637 117.723 166.629 118.715 167.175 120.035 167.175 121.438 167.175 122.841 166.629 124.16 165.637 125.152L163.562 127.227 169.707 133.372C170.098 133.762 170.098 134.395 169.707 134.786L163.339 141.154 165.64 143.454C167.688 145.502 167.688 148.834 165.64 150.883 163.592 152.931 160.258 152.931 158.21 150.883L155.91 148.583 148.596 155.896C148.403 156.089 148.146 156.189 147.888 156.189z"/>
    <path fill="#DEDEDD" d="M121.188 101.619L121.188 97.314 122.185 97.314C126.253 97.314 129.439 94.186 129.439 90.192 129.439 90.187 129.438 90.182 129.438 90.177L129.439 90.09 129.438 90.09C129.436 89.998 129.425 89.91 129.42 89.818 129.413 89.675 129.408 89.531 129.392 89.391 129.385 89.32 129.371 89.251 129.361 89.181 129.337 89.009 129.312 88.838 129.276 88.67 129.268 88.632 129.256 88.595 129.247 88.557 129.202 88.362 129.153 88.169 129.092 87.981 129.088 87.969 129.083 87.957 129.079 87.945 128.503 86.189 127.268 84.752 125.642 83.904 125.626 83.896 125.608 83.889 125.592 83.881 125.403 83.784 125.211 83.694 125.013 83.613 124.969 83.596 124.923 83.583 124.879 83.566 124.705 83.5 124.531 83.435 124.35 83.381 124.271 83.357 124.187 83.342 124.106 83.321 123.957 83.282 123.809 83.241 123.656 83.211 123.518 83.184 123.375 83.169 123.234 83.149 123.134 83.136 123.036 83.116 122.934 83.106 122.688 83.082 122.439 83.07 122.186 83.07L121.188 83.07 121.188 78.765 126.181 78.765 126.181 80.196C126.181 84.128 129.599 87.45 133.646 87.45 137.693 87.45 141.112 84.128 141.112 80.196L141.112 78.765 144.73 78.765 144.73 89.07 151.987 89.07C152.61 89.07 153.24 89.455 153.24 90.192 153.24 90.929 152.61 91.314 151.987 91.314L144.73 91.314 144.73 101.619 135.112 101.619 135.112 108.551C135.112 109.184 134.386 109.805 133.646 109.805 132.906 109.805 132.181 109.184 132.181 108.551L132.181 101.619 121.188 101.619zM115.188 112.612L113.679 112.612C109.612 112.612 106.426 115.74 106.426 119.734 106.426 123.728 109.612 126.856 113.679 126.856L115.188 126.856 115.188 131.083 106.257 131.115 106.257 138.357C106.257 138.99 105.531 139.611 104.791 139.611 104.052 139.611 103.326 138.99 103.326 138.357L103.326 131.113 92.333 131.081 92.333 120.856 85.319 120.856C84.696 120.856 84.065 120.471 84.065 119.734 84.065 118.997 84.696 118.612 85.319 118.612L92.333 118.612 92.333 107.619 96.638 107.619 96.638 108.551C96.638 112.619 99.767 115.805 103.761 115.805 107.754 115.805 110.883 112.619 110.883 108.551L110.883 107.619 115.188 107.619 115.188 112.612zM85.295 91.314C84.672 91.314 84.042 90.929 84.042 90.192 84.042 89.455 84.672 89.07 85.295 89.07L92.333 89.07 92.333 78.765 102.639 78.765 102.639 71.69C102.639 71.067 103.024 70.436 103.761 70.436 104.497 70.436 104.883 71.067 104.883 71.69L104.883 78.765 115.188 78.765 115.188 89.07 122.185 89.07C122.186 89.07 122.186 89.07 122.186 89.07 122.337 89.07 122.489 89.093 122.632 89.139 122.632 89.139 122.632 89.139 122.633 89.139 123.056 89.274 123.398 89.61 123.432 90.127 123.432 90.137 123.435 90.147 123.435 90.157 123.4 90.811 122.865 91.314 122.185 91.314L115.188 91.314 115.188 101.619 104.883 101.619 104.883 108.551C104.883 109.174 104.497 109.805 103.761 109.805 103.024 109.805 102.639 109.174 102.639 108.551L102.639 101.619 92.333 101.619 92.333 91.314 85.295 91.314zM162.811 146.282C163.3 146.771 163.3 147.566 162.811 148.054 162.323 148.542 161.528 148.543 161.038 148.055L155.915 142.931 147.913 150.896 140.891 143.873 135.762 149.001C135.274 149.489 134.479 149.491 133.99 149.002 133.501 148.513 133.501 147.718 133.99 147.229L139.118 142.101 131.098 134.081 134.876 130.303 135.762 131.19C138.591 134.018 143.192 134.017 146.019 131.189 147.389 129.82 148.144 127.998 148.144 126.061 148.144 124.124 147.389 122.302 146.019 120.932L145.134 120.046 147.929 117.25 156.133 125.455 161.036 120.551C161.356 120.232 161.728 120.184 161.922 120.184 162.116 120.184 162.489 120.232 162.808 120.551 163.297 121.04 163.297 121.835 162.808 122.324L157.905 127.227 164.757 134.079 157.682 141.154 162.811 146.282"/>
    <polygon fill="#48515A" points="213 189.437 215 189.437 215 185.437 213 185.437"/>
    <polygon fill="#48515A" points="213 199.437 215 199.437 215 195.437 213 195.437"/>
    <polygon fill="#48515A" points="217 193.437 221 193.437 221 191.437 217 191.437"/>
    <polygon fill="#48515A" points="207 193.437 211 193.437 211 191.437 207 191.437"/>
    <polygon fill="#48515A" points="35 141.437 37 141.437 37 137.437 35 137.437"/>
    <polygon fill="#48515A" points="35 151.437 37 151.437 37 147.437 35 147.437"/>
    <polygon fill="#48515A" points="39 145.437 43 145.437 43 143.437 39 143.437"/>
    <polygon fill="#48515A" points="29 145.437 33 145.437 33 143.437 29 143.437"/>
    <polygon fill="#48515A" points="191 41.436 193 41.436 193 37.436 191 37.436"/>
    <polygon fill="#48515A" points="191 51.436 193 51.436 193 47.436 191 47.436"/>
    <polygon fill="#48515A" points="195 45.436 199 45.436 199 43.436 195 43.436"/>
    <polygon fill="#48515A" points="185 45.436 189 45.436 189 43.436 185 43.436"/>
    <path fill="#5FE0ED" d="M210.317 133.709C210.317 135.541 208.832 137.026 207 137.026 205.168 137.026 203.683 135.541 203.683 133.709 203.683 131.877 205.168 130.392 207 130.392 208.832 130.392 210.317 131.877 210.317 133.709M55.817 65.423C55.817 67.255 54.332 68.74 52.5 68.74 50.668 68.74 49.183 67.255 49.183 65.423 49.183 63.591 50.668 62.106 52.5 62.106 54.332 62.106 55.817 63.591 55.817 65.423"/>
    <path fill="#F58E70" d="M164.835 198.437C164.835 198.989 164.387 199.437 163.835 199.437 163.282 199.437 162.835 198.989 162.835 198.437 162.835 197.884 163.282 197.437 163.835 197.437 164.387 197.437 164.835 197.884 164.835 198.437M54.5 185.437C54.5 186.541 53.605 187.437 52.5 187.437 51.395 187.437 50.5 186.541 50.5 185.437 50.5 184.332 51.395 183.437 52.5 183.437 53.605 183.437 54.5 184.332 54.5 185.437"/>
  </g>
</svg>
