<svg xmlns="http://www.w3.org/2000/svg" width="250" height="250" viewBox="0 0 250 250">
  <g fill="none" fill-rule="evenodd">
    <path fill="#5FE0ED" d="M74.021,129.894 C65.803,113.98 65.5,95.466 73.214,80.369 C76.405,74.123 80.687,68.645 85.943,64.086 C96.088,55.287 109.097,50.441 122.579,50.441 C136.059,50.441 149.07,55.287 159.215,64.085 C159.919,64.696 160.599,65.329 161.331,66.034 C162.406,67.026 163.453,68.072 164.442,69.143 C168.647,73.689 171.846,79.53 173.713,86.103 C173.898,86.757 174.046,87.419 174.201,88.08 L182.386,88.08 C182.108,86.663 181.79,85.249 181.391,83.845 C179.203,76.137 175.374,69.175 170.319,63.707 C169.187,62.483 167.988,61.287 166.825,60.213 C166.057,59.472 165.273,58.745 164.46,58.039 C152.859,47.977 137.985,42.436 122.579,42.436 C107.172,42.436 92.298,47.977 80.698,58.039 C74.662,63.275 69.746,69.562 66.085,76.728 C57.201,94.117 57.509,115.365 66.91,133.568 C69.614,138.804 72.091,146.028 74.179,154.368 L82.436,154.368 C80.095,144.612 77.222,136.092 74.021,129.894"/>
    <path fill="#475059" d="M146.394,212.563 L143.282,188.207 C143.282,184.235 146.514,181.003 150.485,181.003 L168.956,181.003 C172.729,181.003 175.807,177.928 175.816,174.147 L175.833,167.446 C175.839,166.143 176.282,165.403 176.711,164.687 C176.999,164.204 177.298,163.706 177.537,162.917 C177.556,162.486 177.539,160.6 177.511,158.918 L177.504,158.505 L180.284,155.615 L178.944,152.936 L178.944,152.7 C178.944,150.894 180.124,149.189 181.749,148.648 L181.903,148.597 L185.927,148.597 C187.016,148.597 187.984,148.186 188.584,147.47 C189.417,146.476 189.601,145.143 189.063,143.991 C186.924,139.409 181.671,127.838 179.115,119.388 C178.577,117.61 178.325,115.854 178.365,114.168 L178.361,97.92 C178.36,93.646 177.768,89.395 176.601,85.283 C174.604,78.256 171.17,71.995 166.646,67.104 C165.608,65.981 164.505,64.878 163.366,63.827 C162.544,63.036 161.854,62.402 161.183,61.818 C150.491,52.545 136.781,47.438 122.579,47.438 C108.376,47.438 94.666,52.545 83.975,61.818 C78.428,66.63 73.907,72.412 70.54,79.003 C62.388,94.96 62.692,114.5 71.354,131.271 C79.69,147.412 85.748,179.83 85.757,208.354 L85.859,212.412 L83.859,212.461 L83.757,208.379 C83.748,180.112 77.784,148.08 69.577,132.189 C60.62,114.846 60.315,94.623 68.759,78.093 C72.243,71.272 76.922,65.289 82.664,60.308 C93.72,50.719 107.895,45.438 122.578,45.438 C137.263,45.438 151.438,50.719 162.493,60.308 C163.192,60.915 163.905,61.57 164.738,62.372 C165.9,63.445 167.041,64.585 168.115,65.747 C172.851,70.867 176.442,77.409 178.504,84.664 C179.742,89.026 180.36,93.461 180.361,97.919 L180.365,114.192 C180.33,115.689 180.554,117.235 181.029,118.809 C183.547,127.135 188.754,138.602 190.876,143.145 C191.746,145.009 191.455,147.158 190.117,148.754 C189.136,149.925 187.608,150.597 185.927,150.597 L182.247,150.597 C181.556,150.895 181.033,151.661 180.955,152.484 L182.704,155.984 L179.518,159.297 C179.577,163.062 179.53,163.226 179.484,163.384 C179.168,164.475 178.757,165.162 178.427,165.714 C178.059,166.329 177.836,166.7 177.833,167.454 L177.816,174.153 C177.803,179.033 173.828,183.003 168.956,183.003 L150.485,183.003 C147.637,183.003 145.315,185.305 145.282,188.146 L148.378,212.31 L146.394,212.563"/>
    <path fill="#2B2B2B" d="M174.675,162.004 C174.677,162.001 174.678,161.998 174.678,161.995 C174.678,161.998 174.677,162.001 174.675,162.004"/>
    <path fill="#DFE0E0" d="M131.941 141.231C132.106 140.591 132.111 139.92 131.956 139.278L129.434 128.935C129.434 127.412 130.669 126.229 132.191 126.229L137.624 126.229C136.102 126.229 134.868 127.412 134.868 128.935L137.389 139.303C137.545 139.945 137.54 140.603 137.374 141.243L135.97 145.606C135.158 148.749 132.33 150.938 128.801 150.938L128.801 148.411C129.977 147.613 130.262 146.663 130.536 145.6L131.941 141.231M152.553 117.995L152.788 117.995C155.146 117.995 157.042 119.949 156.918 122.334 156.8 124.57 154.793 126.229 152.554 126.229L147.121 126.229C149.36 126.229 151.367 124.57 151.484 122.334 151.609 119.949 149.713 117.995 147.355 117.995L147.119 117.995C149.359 117.995 151.366 116.249 151.483 114.013 151.6 111.768 149.926 109.854 147.762 109.641 147.628 109.628 146.112 109.624 145.974 109.624 148.506 109.624 150.217 107.317 149.752 104.702 149.401 102.729 147.621 101.368 145.268 101.321L145.268 101.11C147.621 100.545 148.497 99.011 148.396 97.083 148.279 94.847 146.562 93.294 144.322 93.294L147.039 93.294C149.278 93.294 151.285 94.952 151.402 97.188 151.527 99.573 149.631 101.528 147.273 101.528L151.173 101.528C153.214 101.528 155.117 102.79 155.475 104.799 155.94 107.414 153.94 109.66 151.407 109.66 151.545 109.66 153.061 109.62 153.195 109.633 155.359 109.846 157.034 111.781 156.916 114.027 156.799 116.263 154.792 117.995 152.553 117.995"/>
    <polygon fill="#5FE0ED" points="89.985 128.581 112.334 128.581 112.334 90.942 89.985 90.942"/>
    <path fill="#48515A" d="M129.078,151.941 L128.79,151.938 C128.242,151.933 127.801,151.487 127.801,150.938 L127.801,142.825 L126.447,138.61 L123.539,130.512 L122.177,127.033 C121.837,126.147 120.939,126.052 120.569,126.052 L112.334,126.052 C111.781,126.052 111.334,125.604 111.334,125.052 C111.334,124.5 111.781,124.052 112.334,124.052 L120.569,124.052 C122.176,124.052 123.507,124.917 124.042,126.31 L125.41,129.806 L128.342,137.969 L129.753,142.362 C129.784,142.461 129.801,142.564 129.801,142.668 L129.801,149.9 C132.371,149.606 134.659,147.751 135.278,145.356 L136.406,140.993 C136.531,140.511 136.534,140.022 136.417,139.54 L133.896,129.171 C133.878,129.094 133.868,129.015 133.868,128.935 C133.868,126.856 135.518,125.229 137.624,125.229 L152.555,125.229 C154.325,125.229 155.834,123.907 155.919,122.282 C155.965,121.417 155.664,120.596 155.071,119.973 C154.474,119.342 153.662,118.995 152.788,118.995 L152.553,118.995 C152,118.995 151.553,118.547 151.553,117.995 C151.553,117.443 152,116.995 152.553,116.995 C154.32,116.995 155.83,115.64 155.917,113.974 C156.005,112.291 154.74,110.79 153.098,110.628 C152.974,110.632 152.301,110.642 151.852,110.651 L151.606,110.656 C151.54,110.658 151.474,110.66 151.407,110.66 C150.854,110.66 150.407,110.212 150.407,109.66 C150.407,109.107 150.854,108.66 151.407,108.66 L151.535,108.657 C152.426,108.622 153.254,108.218 153.824,107.538 C154.421,106.825 154.657,105.915 154.49,104.974 C154.204,103.368 152.605,102.528 151.174,102.528 L147.273,102.528 C146.721,102.528 146.273,102.08 146.273,101.528 C146.273,100.976 146.721,100.528 147.273,100.528 C148.147,100.528 148.958,100.181 149.556,99.551 C150.148,98.927 150.449,98.106 150.403,97.241 C150.318,95.616 148.81,94.294 147.039,94.294 L135.315,94.294 C129.236,94.294 123.627,95.136 118.644,96.797 C118.338,96.897 118.003,96.848 117.742,96.66 C117.736,96.655 117.73,96.651 117.725,96.646 L112.334,96.646 C111.781,96.646 111.334,96.199 111.334,95.646 C111.334,95.094 111.781,94.646 112.334,94.646 L118.327,94.646 C118.436,94.646 118.54,94.664 118.639,94.696 C123.667,93.102 129.273,92.294 135.315,92.294 L147.039,92.294 C149.903,92.294 152.259,94.421 152.401,97.136 C152.466,98.379 152.095,99.565 151.348,100.53 C153.911,100.604 156.046,102.303 156.459,104.624 C156.729,106.134 156.326,107.665 155.357,108.822 C155.263,108.934 155.165,109.042 155.063,109.145 C156.854,110.035 158.026,111.941 157.915,114.079 C157.833,115.643 156.997,117.039 155.764,117.94 C156.036,118.132 156.291,118.352 156.522,118.596 C157.496,119.622 157.991,120.968 157.917,122.386 C157.774,125.102 155.419,127.229 152.555,127.229 L137.624,127.229 C136.676,127.229 135.926,127.923 135.871,128.829 L138.36,139.067 C138.557,139.874 138.551,140.691 138.342,141.495 L137.214,145.857 C136.304,149.382 132.882,151.941 129.078,151.941"/>
    <path fill="#48515A" d="M152.326 118.995L146.444 118.995C145.892 118.995 145.444 118.547 145.444 117.995 145.444 117.443 145.892 116.995 146.444 116.995L152.326 116.995C152.879 116.995 153.326 117.443 153.326 117.995 153.326 118.547 152.879 118.995 152.326 118.995M152.326 110.761L146.444 110.761C145.892 110.761 145.444 110.313 145.444 109.761 145.444 109.209 145.892 108.761 146.444 108.761L152.326 108.761C152.879 108.761 153.326 109.209 153.326 109.761 153.326 110.313 152.879 110.761 152.326 110.761M147.621 102.528L146.444 102.528C145.892 102.528 145.444 102.08 145.444 101.528 145.444 100.976 145.892 100.528 146.444 100.528L147.621 100.528C148.174 100.528 148.621 100.976 148.621 101.528 148.621 102.08 148.174 102.528 147.621 102.528M142.01 123.207C141.75 123.207 141.49 123.096 141.3 122.906 141.12 122.727 141.01 122.466 141.01 122.207 141.01 121.937 141.12 121.676 141.3 121.497 141.35 121.446 141.399 121.406 141.46 121.376 141.51 121.336 141.569 121.306 141.63 121.276 141.689 121.256 141.75 121.236 141.81 121.227 141.939 121.196 142.08 121.196 142.2 121.227 142.27 121.236 142.33 121.256 142.39 121.276 142.45 121.306 142.51 121.336 142.56 121.376 142.62 121.406 142.67 121.446 142.72 121.497 142.899 121.687 143.01 121.937 143.01 122.207 143.01 122.466 142.899 122.727 142.72 122.906 142.67 122.957 142.62 122.997 142.56 123.036 142.51 123.066 142.45 123.106 142.39 123.126 142.33 123.156 142.27 123.176 142.2 123.187 142.14 123.196 142.069 123.207 142.01 123.207M142.01 114.937C141.75 114.937 141.49 114.826 141.3 114.636 141.21 114.546 141.14 114.437 141.09 114.316 141.04 114.196 141.01 114.066 141.01 113.937 141.01 113.667 141.12 113.406 141.3 113.227 141.67 112.856 142.35 112.856 142.72 113.227 142.76 113.276 142.81 113.326 142.84 113.376 142.88 113.437 142.91 113.486 142.93 113.546 142.96 113.606 142.979 113.676 142.99 113.736 143 113.806 143.01 113.866 143.01 113.937 143.01 114.066 142.979 114.196 142.93 114.316 142.88 114.437 142.81 114.546 142.72 114.636 142.67 114.687 142.62 114.727 142.56 114.766 142.51 114.796 142.45 114.836 142.39 114.856 142.33 114.886 142.27 114.906 142.2 114.917 142.14 114.926 142.069 114.937 142.01 114.937M142.01 106.667C141.75 106.667 141.49 106.556 141.3 106.366 141.21 106.276 141.14 106.167 141.09 106.046 141.04 105.926 141.01 105.796 141.01 105.667 141.01 105.396 141.12 105.136 141.3 104.957 141.53 104.727 141.88 104.616 142.2 104.687 142.27 104.696 142.33 104.716 142.39 104.736 142.45 104.766 142.51 104.796 142.56 104.826 142.62 104.866 142.67 104.906 142.72 104.957 142.899 105.146 143.01 105.396 143.01 105.667 143.01 105.796 142.979 105.926 142.93 106.046 142.88 106.167 142.81 106.276 142.72 106.366 142.53 106.556 142.27 106.667 142.01 106.667M142.01 98.516C141.75 98.516 141.49 98.406 141.3 98.216 141.12 98.036 141.01 97.776 141.01 97.516 141.01 97.386 141.04 97.256 141.09 97.126 141.14 97.006 141.21 96.896 141.3 96.806 141.35 96.756 141.399 96.716 141.46 96.686 141.51 96.646 141.569 96.616 141.63 96.586 141.689 96.566 141.75 96.546 141.81 96.536 141.939 96.506 142.08 96.506 142.2 96.536 142.27 96.546 142.33 96.566 142.39 96.586 142.45 96.616 142.51 96.646 142.56 96.686 142.62 96.716 142.67 96.756 142.72 96.806 142.81 96.896 142.88 97.006 142.93 97.126 142.979 97.256 143.01 97.386 143.01 97.516 143.01 97.776 142.899 98.036 142.72 98.216 142.53 98.406 142.27 98.516 142.01 98.516"/>
    <polygon fill="#48515A" points="111.334 128.581 113.334 128.581 113.334 90.941 111.334 90.941"/>
    <polygon fill="#48515A" points="213 189.437 215 189.437 215 185.437 213 185.437"/>
    <polygon fill="#48515A" points="213 199.437 215 199.437 215 195.437 213 195.437"/>
    <polygon fill="#48515A" points="217 193.437 221 193.437 221 191.437 217 191.437"/>
    <polygon fill="#48515A" points="207 193.437 211 193.437 211 191.437 207 191.437"/>
    <polygon fill="#48515A" points="35 141.437 37 141.437 37 137.437 35 137.437"/>
    <polygon fill="#48515A" points="35 151.437 37 151.437 37 147.437 35 147.437"/>
    <polygon fill="#48515A" points="39 145.437 43 145.437 43 143.437 39 143.437"/>
    <polygon fill="#48515A" points="29 145.437 33 145.437 33 143.437 29 143.437"/>
    <polygon fill="#48515A" points="191 41.436 193 41.436 193 37.436 191 37.436"/>
    <polygon fill="#48515A" points="191 51.436 193 51.436 193 47.436 191 47.436"/>
    <polygon fill="#48515A" points="195 45.436 199 45.436 199 43.436 195 43.436"/>
    <polygon fill="#48515A" points="185 45.436 189 45.436 189 43.436 185 43.436"/>
    <path fill="#5FE0ED" d="M210.317 133.709C210.317 135.541 208.832 137.026 207 137.026 205.168 137.026 203.683 135.541 203.683 133.709 203.683 131.877 205.168 130.392 207 130.392 208.832 130.392 210.317 131.877 210.317 133.709M55.817 65.423C55.817 67.255 54.332 68.74 52.5 68.74 50.668 68.74 49.183 67.255 49.183 65.423 49.183 63.591 50.668 62.106 52.5 62.106 54.332 62.106 55.817 63.591 55.817 65.423"/>
    <path fill="#F58E70" d="M164.835 198.437C164.835 198.989 164.387 199.437 163.835 199.437 163.282 199.437 162.835 198.989 162.835 198.437 162.835 197.884 163.282 197.437 163.835 197.437 164.387 197.437 164.835 197.884 164.835 198.437M54.5 185.437C54.5 186.541 53.605 187.437 52.5 187.437 51.395 187.437 50.5 186.541 50.5 185.437 50.5 184.332 51.395 183.437 52.5 183.437 53.605 183.437 54.5 184.332 54.5 185.437"/>
  </g>
</svg>
