<svg xmlns="http://www.w3.org/2000/svg" width="250" height="250" viewBox="0 0 250 250">
  <g fill="none" fill-rule="evenodd">
    <polygon fill="#DEDEDD" points="113 165.859 134.999 165.859 134.999 158.996 113 158.996"/>
    <polyline fill="#FFD15D" points="143.999 121.495 135.445 155.995 112.945 155.995 103.999 121.495 123.374 83.995 124.624 83.995 143.999 121.495"/>
    <path fill="#475059" d="M124,119.996 C122.483,119.996 121.25,121.229 121.25,122.746 C121.25,124.262 122.483,125.496 124,125.496 C125.516,125.496 126.75,124.262 126.75,122.746 C126.75,121.229 125.516,119.996 124,119.996 Z M124,127.496 C121.38,127.496 119.25,125.365 119.25,122.746 C119.25,120.126 121.38,117.996 124,117.996 C126.619,117.996 128.75,120.126 128.75,122.746 C128.75,125.365 126.619,127.496 124,127.496 Z"/>
    <polygon fill="#475059" points="123 118.996 125 118.996 125 83.996 123 83.996"/>
    <polyline fill="#475059" points="138.75 213 136.75 213 136.75 156.996 111.25 156.996 111.25 213 109.25 213 109.25 154.996 138.75 154.996 138.75 213"/>
    <path fill="#5FE0ED" d="M167.837,81.832 L124,81.832 C123.447,81.832 123,81.385 123,80.832 C123,80.28 123.447,79.832 124,79.832 L167.837,79.832 C168.39,79.832 168.837,80.28 168.837,80.832 C168.837,81.385 168.39,81.832 167.837,81.832"/>
    <path fill="#5FE0ED" d="M183.284,79.708 C179.854,72.116 174.966,65.353 168.753,59.607 C168.001,58.884 167.235,58.172 166.441,57.484 C154.929,47.499 140.17,41.999 124.881,41.999 C119.006,41.999 113.21,42.819 107.645,44.386 C107.619,44.394 107.593,44.402 107.567,44.41 C106.484,44.716 105.411,45.056 104.347,45.42 C103.999,45.537 103.653,45.657 103.308,45.781 C102.566,46.048 101.831,46.333 101.1,46.628 C100.072,47.039 99.059,47.482 98.054,47.946 C97.842,48.045 97.627,48.137 97.416,48.238 C92.273,50.682 87.437,53.797 83.075,57.58 C77.511,62.407 72.913,68.138 69.362,74.617 C63.748,84.171 60.515,95.293 60.515,107.176 L60.515,164.411 C60.515,173.254 63.506,184.551 63.566,185.453 L99.65,185.453 L98.487,180.796 C96.611,173.28 94.073,165.944 90.904,158.875 C86.056,146.915 80.661,136.408 76.951,129.223 C76.874,129.075 76.795,128.919 76.72,128.774 C74.936,125.322 73.552,121.742 72.521,118.104 C68.841,105.115 69.942,91.351 75.919,79.652 C77.169,77.204 78.596,74.879 80.177,72.678 C82.598,69.31 85.391,66.237 88.543,63.503 C89.467,62.702 90.422,61.944 91.392,61.21 C91.577,61.07 91.761,60.928 91.947,60.791 C92.899,60.089 93.869,59.417 94.86,58.78 C95.023,58.675 95.19,58.575 95.355,58.472 C96.316,57.869 97.284,57.274 98.288,56.747 C98.384,56.697 98.477,56.64 98.572,56.588 C99.631,56.019 100.711,55.493 101.802,54.995 C102.004,54.903 102.207,54.811 102.409,54.721 C103.505,54.237 104.613,53.782 105.737,53.37 C105.848,53.329 105.96,53.294 106.07,53.254 C107.159,52.863 108.261,52.507 109.373,52.184 C109.514,52.144 109.653,52.099 109.794,52.059 C110.951,51.733 112.121,51.448 113.299,51.198 C113.497,51.156 113.696,51.116 113.895,51.076 C115.103,50.833 116.32,50.619 117.546,50.456 C119.965,50.134 122.415,49.968 124.881,49.968 C138.252,49.968 151.157,54.775 161.219,63.504 C161.274,63.55 161.327,63.597 161.381,63.644 L161.35,63.681 C161.371,63.699 161.393,63.717 161.414,63.734 C161.427,63.746 161.441,63.758 161.454,63.769 C161.46,63.774 161.466,63.779 161.472,63.784 C161.476,63.787 161.479,63.79 161.483,63.793 C161.493,63.802 161.503,63.81 161.514,63.82 C161.531,63.834 161.547,63.848 161.564,63.862 C161.573,63.871 161.584,63.879 161.593,63.888 C162.183,64.392 162.751,64.911 163.315,65.432 C168.755,70.457 173.03,76.363 176.021,82.988 C179.197,90.024 180.076,97.956 178.65,105.612 L186.722,105.612 C188.074,96.823 186.931,87.787 183.284,79.708"/>
    <path fill="#475059" d="M99.323,212 L97.323,212 L97.323,206.687 C97.313,179.509 80.413,146.787 72.291,131.061 C63.403,113.853 63.1,93.787 71.479,77.385 C74.937,70.618 79.579,64.68 85.277,59.737 C96.246,50.223 110.311,44.984 124.881,44.984 C139.451,44.984 153.516,50.223 164.485,59.737 C165.174,60.335 165.9,61.003 166.706,61.779 C172.635,67.257 177.297,73.703 180.563,80.937 C185.391,91.63 185.544,104.132 180.983,115.235 C180.146,117.274 179.721,119.397 179.721,121.542 C179.721,122.609 179.836,123.716 180.063,124.833 C180.516,127.063 181.392,129.127 182.666,130.968 L189.649,141.051 C190.169,141.669 190.485,142.543 190.485,143.44 C190.485,145.096 189.429,146.56 187.858,147.083 L182.674,148.812 C181.825,149.095 181.254,149.887 181.254,150.783 C181.254,151.628 181.45,152.833 182.381,153.764 L182.674,154.057 L182.674,156.069 C182.674,157.731 181.563,158.911 179.768,159.253 C179.816,160.295 179.833,161.509 179.688,162.01 C179.294,163.365 178.374,164.129 177.633,164.745 C176.92,165.336 176.629,165.62 176.628,166.043 L176.611,172.69 C176.598,177.536 172.651,181.478 167.813,181.478 L152.567,181.478 C149.745,181.478 147.446,183.757 147.413,186.572 L150.492,210.67 L150.492,211.998 L148.492,211.998 L148.492,210.734 L145.413,186.632 C145.413,182.687 148.622,179.478 152.567,179.478 L167.813,179.478 C171.551,179.478 174.601,176.43 174.611,172.684 L174.628,166.036 C174.634,164.635 175.588,163.842 176.356,163.206 C176.967,162.698 177.545,162.218 177.767,161.454 C177.835,161.139 177.798,159.628 177.717,158.422 L177.646,157.37 L178.7,157.355 C179.601,157.342 180.674,157.109 180.674,156.069 L180.674,154.862 C179.755,153.785 179.254,152.353 179.254,150.783 C179.254,149.026 180.374,147.471 182.042,146.916 L187.226,145.187 C187.979,144.935 188.485,144.234 188.485,143.44 C188.485,143.01 188.333,142.591 188.058,142.26 L181.021,132.107 C179.592,130.042 178.61,127.728 178.104,125.232 C177.85,123.984 177.721,122.743 177.721,121.542 C177.721,119.134 178.196,116.757 179.133,114.475 C183.486,103.878 183.343,91.955 178.74,81.759 C175.584,74.769 171.076,68.539 165.341,63.241 C164.804,62.745 164.262,62.25 163.704,61.767 C163.701,61.764 163.698,61.762 163.695,61.759 C163.633,61.706 163.571,61.652 163.509,61.599 C163.493,61.585 163.477,61.572 163.46,61.558 C163.453,61.551 163.445,61.544 163.437,61.538 C163.382,61.491 163.326,61.444 163.271,61.397 L163.302,61.359 C163.259,61.322 163.217,61.285 163.174,61.248 C152.569,52.049 138.97,46.984 124.881,46.984 C110.792,46.984 97.192,52.049 86.587,61.249 C81.085,66.022 76.601,71.757 73.261,78.295 C65.174,94.124 65.476,113.506 74.068,130.143 C82.262,146.009 99.313,179.023 99.323,206.687 L99.323,212"/>
    <polygon fill="#48515A" points="213 189 215 189 215 185 213 185"/>
    <polygon fill="#48515A" points="213 199 215 199 215 195 213 195"/>
    <polygon fill="#48515A" points="217 193 221 193 221 191 217 191"/>
    <polygon fill="#48515A" points="207 193 211 193 211 191 207 191"/>
    <polygon fill="#48515A" points="35 141 37 141 37 137 35 137"/>
    <polygon fill="#48515A" points="35 151 37 151 37 147 35 147"/>
    <polygon fill="#48515A" points="39 145 43 145 43 143 39 143"/>
    <polygon fill="#48515A" points="29 145 33 145 33 143 29 143"/>
    <polygon fill="#48515A" points="191 40.999 193 40.999 193 36.999 191 36.999"/>
    <polygon fill="#48515A" points="191 50.999 193 50.999 193 46.999 191 46.999"/>
    <polygon fill="#48515A" points="195 44.999 199 44.999 199 42.999 195 42.999"/>
    <polygon fill="#48515A" points="185 44.999 189 44.999 189 42.999 185 42.999"/>
    <path fill="#5FE0ED" d="M210.317 133.272C210.317 135.104 208.832 136.589 207 136.589 205.168 136.589 203.683 135.104 203.683 133.272 203.683 131.44 205.168 129.955 207 129.955 208.832 129.955 210.317 131.44 210.317 133.272M55.817 64.986C55.817 66.818 54.332 68.303 52.5 68.303 50.668 68.303 49.183 66.818 49.183 64.986 49.183 63.154 50.668 61.669 52.5 61.669 54.332 61.669 55.817 63.154 55.817 64.986"/>
    <path fill="#F58E70" d="M164.835 198C164.835 198.552 164.387 199 163.835 199 163.282 199 162.835 198.552 162.835 198 162.835 197.447 163.282 197 163.835 197 164.387 197 164.835 197.447 164.835 198M54.5 185C54.5 186.104 53.605 187 52.5 187 51.395 187 50.5 186.104 50.5 185 50.5 183.895 51.395 183 52.5 183 53.605 183 54.5 183.895 54.5 185"/>
  </g>
</svg>
