<svg xmlns="http://www.w3.org/2000/svg" width="250" height="250" viewBox="0 0 250 250">
  <g fill="none" fill-rule="evenodd">
    <path fill="#DEDEDD" d="M163.904,116.269 C163.881,116.297 163.868,116.33 163.844,116.358 C162.919,117.446 161.569,118.07 160.142,118.07 L156.421,118.07 L156.421,121.715 L151.561,121.715 L151.561,118.07 L139.489,118.07 L139.49,121.004 L135.129,125.359 L118.616,125.359 C116.931,125.359 115.3,124.865 113.899,123.931 L105.109,118.07 L65,118.07 L65,124.148 L105.109,124.148 L113.899,130.008 C115.3,130.942 116.931,131.437 118.616,131.437 L135.129,131.437 L139.49,127.081 L139.489,124.148 L151.561,124.148 L151.561,127.792 L156.421,127.792 L156.421,124.148 L160.142,124.148 C161.569,124.148 162.919,123.524 163.844,122.435 C164.769,121.348 165.167,119.907 164.936,118.481 C164.8,117.651 164.43,116.898 163.904,116.269"/>
    <path fill="#475059" d="M135.041,125.145 L118.616,125.145 C116.976,125.145 115.386,124.663 114.019,123.752 L105.174,117.855 L65,117.855 L65,115.855 L105.779,115.855 L115.128,122.088 C116.165,122.779 117.371,123.145 118.616,123.145 L134.213,123.145 L137.275,120.086 L137.274,117.855 L123.698,117.855 L123.698,115.855 L139.272,115.855 L139.275,120.914 L135.041,125.145"/>
    <path fill="#475059" d="M160.142,117.855 L138.273,117.855 L138.273,115.855 L160.142,115.855 C160.918,115.855 161.653,115.516 162.157,114.923 C162.668,114.322 162.878,113.554 162.748,112.76 C162.545,111.509 161.341,110.566 159.946,110.566 L138.275,110.566 L138.275,108.566 C139.733,108.566 140.92,107.38 140.92,105.922 C140.92,104.464 139.733,103.278 138.275,103.278 L138.275,101.278 C139.052,101.278 139.786,100.938 140.291,100.346 C140.802,99.745 141.012,98.977 140.883,98.182 C140.68,96.932 139.475,95.989 138.08,95.989 L134.631,95.989 L134.631,93.989 C135.407,93.989 136.143,93.649 136.646,93.057 C137.157,92.456 137.368,91.688 137.238,90.893 C137.035,89.643 135.83,88.7 134.436,88.7 L117.592,88.7 C116.916,88.7 116.247,88.809 115.603,89.023 L105.639,92.345 L65,92.345 L65,90.345 L105.314,90.345 L114.971,87.126 C115.82,86.843 116.701,86.7 117.592,86.7 L134.436,86.7 C136.799,86.7 138.853,88.364 139.213,90.571 C139.41,91.787 139.13,93.014 138.44,94.002 C140.649,94.161 142.516,95.767 142.857,97.86 C143.079,99.224 142.698,100.602 141.814,101.642 C141.613,101.878 141.392,102.091 141.153,102.279 C142.229,103.131 142.92,104.447 142.92,105.922 C142.92,106.903 142.613,107.815 142.092,108.566 L159.946,108.566 C162.311,108.566 164.364,110.231 164.723,112.438 C164.944,113.801 164.564,115.179 163.681,116.218 C162.796,117.259 161.506,117.855 160.142,117.855"/>
    <polygon fill="#F58E70" points="151.561 121.715 156.421 121.715 156.421 102.278 151.561 102.278"/>
    <polyline fill="#F58E70" points="155.99 110.274 154.576 108.86 159.435 104 160.849 105.415 155.99 110.274"/>
    <polyline fill="#F58E70" points="152.145 110.274 147.286 105.415 148.7 104 153.559 108.86 152.145 110.274"/>
    <polygon fill="#475059" points="130.986 95.989 134.631 95.989 134.631 93.989 130.986 93.989"/>
    <polygon fill="#475059" points="130.986 103.278 138.275 103.278 138.275 101.278 130.986 101.278"/>
    <polygon fill="#475059" points="130.986 110.566 141.92 110.566 141.92 108.566 130.986 108.566"/>
    <path fill="#475059" d="M99.402,98.419 C96.604,98.419 94.328,100.695 94.328,103.493 C94.328,106.291 96.604,108.566 99.402,108.566 C102.2,108.566 104.477,106.291 104.477,103.493 C104.477,100.695 102.2,98.419 99.402,98.419 Z M99.402,110.566 C95.502,110.566 92.328,107.394 92.328,103.493 C92.328,99.593 95.502,96.419 99.402,96.419 C103.303,96.419 106.477,99.593 106.477,103.493 C106.477,107.394 103.303,110.566 99.402,110.566 Z"/>
    <polygon fill="#475059" points="94.758 116.855 96.758 116.855 96.758 108.353 94.758 108.353"/>
    <polygon fill="#475059" points="102.051 116.855 104.051 116.855 104.051 108.353 102.051 108.353"/>
    <polygon fill="#475059" points="94.758 98.431 96.758 98.431 96.758 91.335 94.758 91.335"/>
    <polygon fill="#475059" points="102.051 98.431 104.051 98.431 104.051 91.335 102.051 91.335"/>
    <path fill="#F58E70" d="M164.835,198.437 C164.835,198.989 164.387,199.437 163.835,199.437 C163.282,199.437 162.835,198.989 162.835,198.437 C162.835,197.884 163.282,197.437 163.835,197.437 C164.387,197.437 164.835,197.884 164.835,198.437"/>
    <path fill="#5FE0ED" d="M74.021,129.894 C65.803,113.98 65.5,95.466 73.214,80.369 C76.405,74.123 80.687,68.645 85.943,64.086 C96.088,55.287 109.097,50.441 122.579,50.441 C136.059,50.441 149.07,55.287 159.215,64.085 C159.919,64.696 160.599,65.329 161.331,66.034 C162.406,67.026 163.453,68.072 164.442,69.143 C168.647,73.689 171.846,79.53 173.713,86.103 C173.898,86.757 174.046,87.419 174.201,88.08 L182.386,88.08 C182.108,86.663 181.79,85.249 181.391,83.845 C179.203,76.137 175.374,69.175 170.319,63.707 C169.187,62.483 167.988,61.287 166.825,60.213 C166.057,59.472 165.273,58.745 164.46,58.039 C152.859,47.977 137.985,42.436 122.579,42.436 C107.172,42.436 92.298,47.977 80.698,58.039 C74.662,63.275 69.746,69.562 66.085,76.728 C57.201,94.117 57.509,115.365 66.91,133.568 C69.614,138.804 72.091,146.028 74.179,154.368 L82.436,154.368 C80.095,144.612 77.222,136.092 74.021,129.894"/>
    <path fill="#475059" d="M146.394,212.563 L143.282,188.207 C143.282,184.235 146.514,181.004 150.485,181.004 L168.956,181.004 C172.729,181.004 175.807,177.929 175.816,174.147 L175.833,167.446 C175.839,166.144 176.282,165.402 176.711,164.687 C177,164.204 177.298,163.706 177.537,162.917 C177.556,162.486 177.539,160.6 177.511,158.918 L177.504,158.506 L180.284,155.615 L178.944,152.937 L178.944,152.7 C178.944,150.894 180.124,149.189 181.749,148.647 L181.903,148.597 L185.927,148.597 C187.015,148.597 187.983,148.186 188.584,147.47 C189.417,146.476 189.601,145.143 189.063,143.991 C186.924,139.411 181.672,127.844 179.115,119.388 C178.577,117.61 178.325,115.854 178.365,114.169 L178.361,97.919 C178.36,93.645 177.768,89.395 176.601,85.283 C174.604,78.257 171.169,71.995 166.646,67.104 C165.605,65.977 164.502,64.875 163.366,63.826 C162.541,63.032 161.852,62.399 161.183,61.819 C150.491,52.546 136.782,47.438 122.579,47.438 C108.376,47.438 94.666,52.546 83.975,61.819 C78.428,66.63 73.908,72.412 70.54,79.004 C62.388,94.96 62.692,114.499 71.354,131.271 C79.69,147.413 85.748,179.831 85.757,208.354 L85.859,212.411 L83.859,212.462 L83.757,208.38 C83.748,180.112 77.784,148.08 69.577,132.189 C60.62,114.846 60.313,94.623 68.759,78.094 C72.244,71.272 76.923,65.288 82.664,60.308 C93.719,50.72 107.894,45.439 122.578,45.439 C137.263,45.439 151.438,50.72 162.493,60.308 C163.188,60.911 163.902,61.566 164.738,62.371 C165.897,63.441 167.038,64.582 168.115,65.746 C172.851,70.867 176.442,77.409 178.504,84.664 C179.742,89.025 180.36,93.461 180.361,97.919 L180.365,114.192 C180.33,115.689 180.554,117.235 181.029,118.81 C183.549,127.141 188.755,138.604 190.876,143.146 C191.745,145.009 191.455,147.158 190.117,148.755 C189.135,149.926 187.607,150.597 185.927,150.597 L182.247,150.597 C181.556,150.896 181.033,151.661 180.955,152.484 L182.704,155.984 L179.518,159.298 C179.577,163.063 179.53,163.226 179.484,163.385 C179.168,164.476 178.757,165.162 178.427,165.714 C178.059,166.329 177.836,166.7 177.833,167.454 L177.816,174.153 C177.803,179.033 173.828,183.004 168.956,183.004 L150.485,183.004 C147.637,183.004 145.315,185.305 145.282,188.146 L148.378,212.31 L146.394,212.563"/>
    <path fill="#2B2B2B" d="M174.675,162.004 C174.677,162.001 174.678,161.998 174.678,161.995 C174.678,161.998 174.677,162.001 174.675,162.004"/>
    <polygon fill="#48515A" points="213 189.437 215 189.437 215 185.437 213 185.437"/>
    <polygon fill="#48515A" points="213 199.437 215 199.437 215 195.437 213 195.437"/>
    <polygon fill="#48515A" points="217 193.437 221 193.437 221 191.437 217 191.437"/>
    <polygon fill="#48515A" points="207 193.437 211 193.437 211 191.437 207 191.437"/>
    <polygon fill="#48515A" points="35 141.437 37 141.437 37 137.437 35 137.437"/>
    <polygon fill="#48515A" points="35 151.437 37 151.437 37 147.437 35 147.437"/>
    <polygon fill="#48515A" points="39 145.437 43 145.437 43 143.437 39 143.437"/>
    <polygon fill="#48515A" points="29 145.437 33 145.437 33 143.437 29 143.437"/>
    <polygon fill="#48515A" points="191 41.436 193 41.436 193 37.436 191 37.436"/>
    <polygon fill="#48515A" points="191 51.436 193 51.436 193 47.436 191 47.436"/>
    <polygon fill="#48515A" points="195 45.436 199 45.436 199 43.436 195 43.436"/>
    <polygon fill="#48515A" points="185 45.436 189 45.436 189 43.436 185 43.436"/>
    <path fill="#5FE0ED" d="M210.317 133.709C210.317 135.541 208.832 137.026 207 137.026 205.168 137.026 203.683 135.541 203.683 133.709 203.683 131.877 205.168 130.392 207 130.392 208.832 130.392 210.317 131.877 210.317 133.709M55.817 65.423C55.817 67.255 54.332 68.74 52.5 68.74 50.668 68.74 49.183 67.255 49.183 65.423 49.183 63.591 50.668 62.106 52.5 62.106 54.332 62.106 55.817 63.591 55.817 65.423"/>
    <path fill="#F58E70" d="M164.835 198.437C164.835 198.989 164.387 199.437 163.835 199.437 163.282 199.437 162.835 198.989 162.835 198.437 162.835 197.884 163.282 197.437 163.835 197.437 164.387 197.437 164.835 197.884 164.835 198.437M54.5 185.437C54.5 186.541 53.605 187.437 52.5 187.437 51.395 187.437 50.5 186.541 50.5 185.437 50.5 184.332 51.395 183.437 52.5 183.437 53.605 183.437 54.5 184.332 54.5 185.437"/>
  </g>
</svg>
