<svg xmlns="http://www.w3.org/2000/svg" width="250" height="250" viewBox="0 0 250 250">
  <g fill="none" fill-rule="evenodd">
    <path fill="#DEDEDD" d="M155.543,78.892 C161.451,86.128 164.999,95.367 164.999,105.437 C164.999,128.632 146.195,147.437 122.999,147.437 C112.929,147.437 103.69,143.889 96.455,137.981 C104.156,147.412 115.873,153.437 128.999,153.437 C152.195,153.437 170.999,134.632 170.999,111.437 C170.999,98.31 164.974,86.594 155.543,78.892"/>
    <path fill="#DEDEDD" d="M125.999,105.442 C123.793,105.442 121.999,107.236 121.999,109.442 C121.999,111.648 123.793,113.442 125.999,113.442 C128.205,113.442 129.999,111.648 129.999,109.442 C129.999,107.236 128.205,105.442 125.999,105.442 Z M125.999,115.442 C122.69,115.442 119.999,112.751 119.999,109.442 C119.999,106.134 122.69,103.442 125.999,103.442 C129.308,103.442 131.999,106.134 131.999,109.442 C131.999,112.751 129.308,115.442 125.999,115.442 Z"/>
    <polygon fill="#DEDEDD" points="124.999 104.442 126.999 104.442 126.999 91.436 124.999 91.436"/>
    <polyline fill="#DEDEDD" points="145.324 130.144 128.324 113.144 129.738 111.729 146.738 128.729 145.324 130.144"/>
    <path fill="#475059" d="M122.999,64.436 C100.392,64.436 81.999,82.829 81.999,105.437 C81.999,128.044 100.392,146.437 122.999,146.437 C145.606,146.437 163.999,128.044 163.999,105.437 C163.999,82.829 145.606,64.436 122.999,64.436 Z M122.999,148.437 C99.289,148.437 79.999,129.146 79.999,105.437 C79.999,81.727 99.289,62.436 122.999,62.436 C146.709,62.436 165.999,81.727 165.999,105.437 C165.999,129.146 146.709,148.437 122.999,148.437 Z"/>
    <polygon fill="#475059" points="121.999 73.438 123.999 73.438 123.999 66.437 121.999 66.437"/>
    <polygon fill="#475059" points="121.999 144.481 123.999 144.481 123.999 137.479 121.999 137.479"/>
    <polygon fill="#475059" points="155.02 106.459 162.021 106.459 162.021 104.459 155.02 104.459"/>
    <polygon fill="#475059" points="83.977 106.459 90.979 106.459 90.979 104.459 83.977 104.459"/>
    <polyline fill="#475059" points="104.621 75.629 102.621 72.165 104.354 71.165 106.354 74.629 104.621 75.629"/>
    <polyline fill="#475059" points="141.644 139.754 139.644 136.289 141.376 135.289 143.376 138.754 141.644 139.754"/>
    <polyline fill="#475059" points="153.829 88.814 152.829 87.082 156.293 85.082 157.293 86.814 153.829 88.814"/>
    <polyline fill="#475059" points="89.705 125.837 88.705 124.104 92.169 122.104 93.169 123.837 89.705 125.837"/>
    <polyline fill="#475059" points="92.169 88.814 88.705 86.814 89.705 85.082 93.169 87.082 92.169 88.814"/>
    <polyline fill="#475059" points="156.293 125.837 152.829 123.837 153.829 122.104 157.293 124.104 156.293 125.837"/>
    <polyline fill="#475059" points="141.376 75.629 139.644 74.629 141.644 71.165 143.376 72.165 141.376 75.629"/>
    <polyline fill="#475059" points="104.354 139.754 102.621 138.754 104.621 135.289 106.354 136.289 104.354 139.754"/>
    <path fill="#F58E70" d="M122.966,103.442 C121.864,103.442 120.966,104.339 120.966,105.442 C120.966,106.545 121.864,107.442 122.966,107.442 C124.069,107.442 124.966,106.545 124.966,105.442 C124.966,104.339 124.069,103.442 122.966,103.442"/>
    <path fill="#475059" d="M122.967,101.442 C120.761,101.442 118.967,103.236 118.967,105.442 C118.967,107.648 120.761,109.442 122.967,109.442 C125.173,109.442 126.967,107.648 126.967,105.442 C126.967,103.236 125.173,101.442 122.967,101.442 Z M122.967,111.442 C119.658,111.442 116.967,108.751 116.967,105.442 C116.967,102.134 119.658,99.442 122.967,99.442 C126.275,99.442 128.967,102.134 128.967,105.442 C128.967,108.751 126.275,111.442 122.967,111.442 Z"/>
    <polygon fill="#475059" points="121.967 100.442 123.967 100.442 123.967 87.436 121.967 87.436"/>
    <polyline fill="#475059" points="142.292 126.144 125.292 109.144 126.706 107.729 143.706 124.729 142.292 126.144"/>
    <polygon fill="#475059" points="116.999 126.437 128.999 126.437 128.999 124.437 116.999 124.437"/>
    <path fill="#F58E70" d="M164.835,198.437 C164.835,198.989 164.387,199.437 163.835,199.437 C163.282,199.437 162.835,198.989 162.835,198.437 C162.835,197.884 163.282,197.437 163.835,197.437 C164.387,197.437 164.835,197.884 164.835,198.437"/>
    <path fill="#5FE0ED" d="M74.021,129.894 C65.803,113.98 65.5,95.466 73.214,80.369 C76.405,74.123 80.687,68.645 85.943,64.086 C96.088,55.287 109.097,50.441 122.579,50.441 C136.059,50.441 149.07,55.287 159.215,64.085 C159.919,64.696 160.599,65.329 161.331,66.034 C162.406,67.026 163.453,68.072 164.442,69.143 C168.647,73.689 171.846,79.53 173.713,86.103 C173.898,86.757 174.046,87.419 174.201,88.08 L182.386,88.08 C182.108,86.663 181.79,85.249 181.391,83.845 C179.203,76.137 175.374,69.175 170.319,63.707 C169.187,62.483 167.988,61.287 166.825,60.213 C166.057,59.472 165.273,58.745 164.46,58.039 C152.859,47.977 137.985,42.436 122.579,42.436 C107.172,42.436 92.298,47.977 80.698,58.039 C74.662,63.275 69.746,69.562 66.085,76.728 C57.201,94.117 57.509,115.365 66.91,133.568 C69.614,138.804 72.091,146.028 74.179,154.368 L82.436,154.368 C80.095,144.612 77.222,136.092 74.021,129.894"/>
    <path fill="#475059" d="M146.394,212.563 L143.282,188.207 C143.282,184.235 146.514,181.004 150.485,181.004 L168.956,181.004 C172.729,181.004 175.807,177.929 175.816,174.147 L175.833,167.446 C175.839,166.144 176.282,165.402 176.711,164.687 C177,164.204 177.298,163.706 177.537,162.917 C177.556,162.486 177.539,160.6 177.511,158.918 L177.504,158.506 L180.284,155.615 L178.944,152.937 L178.944,152.7 C178.944,150.894 180.124,149.189 181.749,148.647 L181.903,148.597 L185.927,148.597 C187.015,148.597 187.983,148.186 188.584,147.47 C189.417,146.476 189.601,145.143 189.063,143.991 C186.924,139.411 181.672,127.844 179.115,119.388 C178.577,117.61 178.325,115.854 178.365,114.169 L178.361,97.919 C178.36,93.645 177.768,89.395 176.601,85.283 C174.604,78.257 171.169,71.995 166.646,67.104 C165.605,65.977 164.502,64.875 163.366,63.826 C162.541,63.032 161.852,62.399 161.183,61.819 C150.491,52.546 136.782,47.438 122.579,47.438 C108.376,47.438 94.666,52.546 83.975,61.819 C78.428,66.63 73.908,72.412 70.54,79.004 C62.388,94.96 62.692,114.499 71.354,131.271 C79.69,147.413 85.748,179.831 85.757,208.354 L85.859,212.411 L83.859,212.462 L83.757,208.38 C83.748,180.112 77.784,148.08 69.577,132.189 C60.62,114.846 60.313,94.623 68.759,78.094 C72.244,71.272 76.923,65.288 82.664,60.308 C93.719,50.72 107.894,45.439 122.578,45.439 C137.263,45.439 151.438,50.72 162.493,60.308 C163.188,60.911 163.902,61.566 164.738,62.371 C165.897,63.441 167.038,64.582 168.115,65.746 C172.851,70.867 176.442,77.409 178.504,84.664 C179.742,89.025 180.36,93.461 180.361,97.919 L180.365,114.192 C180.33,115.689 180.554,117.235 181.029,118.81 C183.549,127.141 188.755,138.604 190.876,143.146 C191.745,145.009 191.455,147.158 190.117,148.755 C189.135,149.926 187.607,150.597 185.927,150.597 L182.247,150.597 C181.556,150.896 181.033,151.661 180.955,152.484 L182.704,155.984 L179.518,159.298 C179.577,163.063 179.53,163.226 179.484,163.385 C179.168,164.476 178.757,165.162 178.427,165.714 C178.059,166.329 177.836,166.7 177.833,167.454 L177.816,174.153 C177.803,179.033 173.828,183.004 168.956,183.004 L150.485,183.004 C147.637,183.004 145.315,185.305 145.282,188.146 L148.378,212.31 L146.394,212.563"/>
    <path fill="#2B2B2B" d="M174.675,162.004 C174.677,162.001 174.678,161.998 174.678,161.995 C174.678,161.998 174.677,162.001 174.675,162.004"/>
    <polygon fill="#48515A" points="213 189.437 215 189.437 215 185.437 213 185.437"/>
    <polygon fill="#48515A" points="213 199.437 215 199.437 215 195.437 213 195.437"/>
    <polygon fill="#48515A" points="217 193.437 221 193.437 221 191.437 217 191.437"/>
    <polygon fill="#48515A" points="207 193.437 211 193.437 211 191.437 207 191.437"/>
    <polygon fill="#48515A" points="35 141.437 37 141.437 37 137.437 35 137.437"/>
    <polygon fill="#48515A" points="35 151.437 37 151.437 37 147.437 35 147.437"/>
    <polygon fill="#48515A" points="39 145.437 43 145.437 43 143.437 39 143.437"/>
    <polygon fill="#48515A" points="29 145.437 33 145.437 33 143.437 29 143.437"/>
    <polygon fill="#48515A" points="191 41.436 193 41.436 193 37.436 191 37.436"/>
    <polygon fill="#48515A" points="191 51.436 193 51.436 193 47.436 191 47.436"/>
    <polygon fill="#48515A" points="195 45.436 199 45.436 199 43.436 195 43.436"/>
    <polygon fill="#48515A" points="185 45.436 189 45.436 189 43.436 185 43.436"/>
    <path fill="#5FE0ED" d="M210.317 133.709C210.317 135.541 208.832 137.026 207 137.026 205.168 137.026 203.683 135.541 203.683 133.709 203.683 131.877 205.168 130.392 207 130.392 208.832 130.392 210.317 131.877 210.317 133.709M55.817 65.423C55.817 67.255 54.332 68.74 52.5 68.74 50.668 68.74 49.183 67.255 49.183 65.423 49.183 63.591 50.668 62.106 52.5 62.106 54.332 62.106 55.817 63.591 55.817 65.423"/>
    <path fill="#F58E70" d="M164.835 198.437C164.835 198.989 164.387 199.437 163.835 199.437 163.282 199.437 162.835 198.989 162.835 198.437 162.835 197.884 163.282 197.437 163.835 197.437 164.387 197.437 164.835 197.884 164.835 198.437M54.5 185.437C54.5 186.541 53.605 187.437 52.5 187.437 51.395 187.437 50.5 186.541 50.5 185.437 50.5 184.332 51.395 183.437 52.5 183.437 53.605 183.437 54.5 184.332 54.5 185.437"/>
  </g>
</svg>
