<svg xmlns="http://www.w3.org/2000/svg" width="250" height="250" viewBox="0 0 250 250">
  <g fill="none" fill-rule="evenodd">
    <path fill="#2B2B2B" d="M174.675,162.068 C174.677,162.065 174.678,162.061 174.678,162.058 C174.678,162.061 174.677,162.065 174.675,162.068"/>
    <path fill="#48515A" d="M90.333,103.683 L99.639,103.683 C100.191,103.683 100.639,104.13 100.639,104.683 L100.639,108.615 C100.639,110.439 102.01,111.868 103.761,111.868 C105.511,111.868 106.883,110.439 106.883,108.615 L106.883,104.683 C106.883,104.13 107.331,103.683 107.883,103.683 L117.188,103.683 L117.188,94.378 C117.188,93.825 117.636,93.378 118.188,93.378 L122.186,93.378 C123.96,93.378 125.407,91.963 125.438,90.212 C125.407,88.48 123.99,87.133 122.186,87.133 L118.188,87.133 C117.636,87.133 117.188,86.686 117.188,86.133 L117.188,76.828 L107.883,76.828 C107.331,76.828 106.883,76.381 106.883,75.828 L106.883,71.753 C106.883,69.929 105.511,68.5 103.761,68.5 C102.01,68.5 100.639,69.929 100.639,71.753 L100.639,75.828 C100.639,76.381 100.191,76.828 99.639,76.828 L90.333,76.828 L90.333,86.133 C90.333,86.686 89.885,87.133 89.333,87.133 L85.295,87.133 C83.471,87.133 82.042,88.504 82.042,90.255 C82.042,92.006 83.471,93.378 85.295,93.378 L89.333,93.378 C89.885,93.378 90.333,93.825 90.333,94.378 L90.333,103.683 Z M103.761,113.868 C100.889,113.868 98.639,111.561 98.639,108.615 L98.639,105.683 L89.333,105.683 C88.781,105.683 88.333,105.235 88.333,104.683 L88.333,95.378 L85.295,95.378 C82.35,95.378 80.042,93.128 80.042,90.255 C80.042,87.383 82.349,85.133 85.295,85.133 L88.333,85.133 L88.333,75.828 C88.333,75.275 88.781,74.828 89.333,74.828 L98.639,74.828 L98.639,71.753 C98.639,68.808 100.889,66.5 103.761,66.5 C106.633,66.5 108.883,68.808 108.883,71.753 L108.883,74.828 L118.188,74.828 C118.74,74.828 119.188,75.275 119.188,75.828 L119.188,85.133 L122.186,85.133 C125.061,85.133 127.328,87.282 127.435,90.064 C127.437,90.094 127.439,90.123 127.439,90.153 L127.439,90.27 C127.439,90.3 127.437,90.33 127.435,90.36 C127.325,93.145 125.013,95.378 122.186,95.378 L119.188,95.378 L119.188,104.683 C119.188,105.235 118.74,105.683 118.188,105.683 L108.883,105.683 L108.883,108.615 C108.883,111.561 106.633,113.868 103.761,113.868 Z"/>
    <path fill="#48515A" d="M119.188,103.683 L129.18,103.683 C129.732,103.683 130.18,104.13 130.18,104.683 L130.18,108.615 C130.18,110.348 131.8,111.868 133.646,111.868 C135.492,111.868 137.112,110.348 137.112,108.615 L137.112,104.683 C137.112,104.13 137.56,103.683 138.112,103.683 L146.73,103.683 L146.73,94.378 C146.73,93.825 147.178,93.378 147.73,93.378 L151.987,93.378 C153.811,93.378 155.24,92.006 155.24,90.255 C155.24,88.504 153.811,87.133 151.987,87.133 L147.73,87.133 C147.178,87.133 146.73,86.686 146.73,86.133 L146.73,76.828 L139.112,76.828 L139.112,80.26 C139.112,83.107 136.609,85.513 133.646,85.513 C130.683,85.513 128.18,83.107 128.18,80.26 L128.18,76.828 L119.188,76.828 L119.188,85.133 L122.186,85.133 C125.131,85.133 127.439,87.383 127.439,90.255 C127.439,93.128 125.131,95.378 122.186,95.378 L119.188,95.378 L119.188,103.683 Z M133.646,113.868 C130.683,113.868 128.18,111.463 128.18,108.615 L128.18,105.683 L118.188,105.683 C117.636,105.683 117.188,105.235 117.188,104.683 L117.188,94.378 C117.188,93.825 117.636,93.378 118.188,93.378 L122.186,93.378 C124.01,93.378 125.439,92.006 125.439,90.255 C125.439,88.504 124.01,87.133 122.186,87.133 L118.188,87.133 C117.636,87.133 117.188,86.686 117.188,86.133 L117.188,76.778 C116.789,76.646 116.501,76.271 116.501,75.828 C116.501,75.275 116.949,74.828 117.501,74.828 L129.18,74.828 C129.732,74.828 130.18,75.275 130.18,75.828 L130.18,80.26 C130.18,81.992 131.8,83.513 133.646,83.513 C135.492,83.513 137.112,81.992 137.112,80.26 L137.112,75.828 C137.112,75.275 137.56,74.828 138.112,74.828 L147.73,74.828 C148.282,74.828 148.73,75.275 148.73,75.828 L148.73,85.133 L151.987,85.133 C154.933,85.133 157.24,87.383 157.24,90.255 C157.24,93.128 154.933,95.378 151.987,95.378 L148.73,95.378 L148.73,104.683 C148.73,105.235 148.282,105.683 147.73,105.683 L139.112,105.683 L139.112,108.615 C139.112,111.463 136.609,113.868 133.646,113.868 Z"/>
    <path fill="#48515A" d="M118.188 134.135L118.198 134.135 118.188 134.135zM90.333 133.138L100.329 133.168C100.88 133.17 101.326 133.617 101.326 134.168L101.326 138.421C101.326 140.153 102.945 141.674 104.791 141.674 106.637 141.674 108.257 140.153 108.257 138.421L108.257 134.168C108.257 133.617 108.702 133.17 109.253 133.168L117.188 133.139 117.188 124.919 113.679 124.919C110.733 124.919 108.426 122.669 108.426 119.797 108.426 116.925 110.733 114.675 113.679 114.675L117.188 114.675 117.188 105.683 108.883 105.683 108.883 108.615C108.883 111.561 106.633 113.868 103.761 113.868 100.889 113.868 98.639 111.561 98.639 108.615L98.639 105.683 90.333 105.683 90.333 115.675C90.333 116.228 89.885 116.675 89.333 116.675L85.319 116.675C83.495 116.675 82.065 118.046 82.065 119.797 82.065 121.548 83.494 122.919 85.318 122.919L89.333 122.919C89.885 122.919 90.333 123.366 90.333 123.919L90.333 133.138zM104.791 143.674C101.829 143.674 99.326 141.269 99.326 138.421L99.326 135.165 89.33 135.135C88.779 135.133 88.333 134.686 88.333 134.135L88.333 124.919 85.318 124.919C82.373 124.919 80.065 122.669 80.065 119.797 80.065 116.925 82.373 114.675 85.319 114.675L88.333 114.675 88.333 104.683C88.333 104.13 88.781 103.683 89.333 103.683L99.639 103.683C100.191 103.683 100.639 104.13 100.639 104.683L100.639 108.615C100.639 110.439 102.01 111.868 103.761 111.868 105.511 111.868 106.883 110.439 106.883 108.615L106.883 104.683C106.883 104.13 107.331 103.683 107.883 103.683L118.188 103.683C118.74 103.683 119.188 104.13 119.188 104.683L119.188 115.675C119.188 116.228 118.74 116.675 118.188 116.675L113.679 116.675C111.855 116.675 110.426 118.046 110.426 119.797 110.426 121.548 111.854 122.919 113.679 122.919L118.188 122.919C118.74 122.919 119.188 123.366 119.188 123.919L119.188 134.135C119.188 134.686 118.743 135.133 118.192 135.135L110.257 135.164 110.257 138.421C110.257 141.269 107.754 143.674 104.791 143.674zM140.891 147.179C141.156 147.179 141.41 147.284 141.598 147.472L147.927 153.801 155.203 146.525C155.593 146.135 156.226 146.135 156.617 146.525L159.625 149.532C160.892 150.799 162.956 150.8 164.226 149.532 164.84 148.918 165.178 148.101 165.178 147.231 165.178 146.362 164.84 145.546 164.226 144.932L161.218 141.924C161.03 141.736 160.925 141.482 160.925 141.217 160.925 140.951 161.03 140.697 161.218 140.51L167.586 134.143 161.441 127.997C161.253 127.81 161.148 127.556 161.148 127.29 161.148 127.024 161.253 126.771 161.441 126.583L164.223 123.802C164.837 123.188 165.175 122.37 165.175 121.501 165.175 120.632 164.837 119.815 164.223 119.201 162.993 117.973 160.851 117.973 159.622 119.201L156.84 121.982C156.449 122.373 155.816 122.373 155.426 121.982L147.929 114.485 142.305 120.109 144.605 122.409C146.654 124.457 146.654 127.791 144.605 129.839 142.557 131.888 139.224 131.888 137.176 129.839L134.876 127.538 128.27 134.145 135.583 141.457C135.771 141.645 135.876 141.898 135.876 142.164 135.876 142.43 135.771 142.684 135.583 142.871L132.575 145.879C131.96 146.493 131.622 147.31 131.622 148.179 131.622 149.048 131.961 149.865 132.575 150.479 133.843 151.746 135.907 151.746 137.176 150.479L140.184 147.472C140.371 147.284 140.625 147.179 140.891 147.179zM147.888 156.253C147.705 156.253 147.52 156.202 147.355 156.099 147.194 155.997 147.07 155.854 146.99 155.692L140.891 149.593 138.59 151.894C136.543 153.943 133.21 153.943 131.161 151.894 130.169 150.901 129.622 149.582 129.622 148.179 129.622 146.775 130.169 145.456 131.161 144.465L133.462 142.164 126.149 134.852C125.961 134.664 125.856 134.41 125.856 134.145 125.856 133.879 125.961 133.625 126.149 133.438L134.169 125.417C134.544 125.042 135.208 125.042 135.583 125.417L138.59 128.425C139.82 129.653 141.962 129.653 143.191 128.425 143.806 127.811 144.144 126.993 144.144 126.124 144.144 125.255 143.806 124.438 143.191 123.823L140.184 120.816C139.997 120.629 139.891 120.375 139.891 120.109 139.891 119.844 139.997 119.59 140.184 119.402L147.222 112.364C147.409 112.177 147.664 112.071 147.929 112.071 148.195 112.071 148.449 112.177 148.637 112.365L156.133 119.861 158.208 117.787C159.2 116.795 160.519 116.248 161.922 116.248 163.325 116.248 164.645 116.795 165.637 117.787 166.629 118.778 167.175 120.098 167.175 121.501 167.175 122.904 166.629 124.224 165.637 125.216L163.562 127.29 169.707 133.436C169.895 133.623 170 133.877 170 134.143 170 134.408 169.895 134.662 169.707 134.85L163.339 141.217 165.64 143.518C166.632 144.509 167.178 145.828 167.178 147.231 167.178 148.635 166.632 149.954 165.64 150.946 163.591 152.995 160.258 152.995 158.21 150.946L155.91 148.646 148.596 155.96C148.403 156.153 148.146 156.253 147.888 156.253z"/>
    <path fill="#DEDEDD" d="M121.188 101.683L121.188 97.377 122.185 97.377C126.253 97.377 129.439 94.249 129.439 90.255 129.439 90.25 129.438 90.246 129.438 90.241L129.439 90.154 129.438 90.154C129.436 90.062 129.425 89.973 129.42 89.882 129.413 89.739 129.408 89.595 129.392 89.454 129.385 89.383 129.371 89.315 129.361 89.245 129.337 89.073 129.312 88.901 129.276 88.734 129.268 88.695 129.256 88.658 129.247 88.62 129.202 88.426 129.153 88.233 129.092 88.045 129.088 88.032 129.083 88.02 129.079 88.008 128.503 86.253 127.268 84.815 125.642 83.968 125.626 83.959 125.608 83.953 125.592 83.944 125.403 83.848 125.211 83.757 125.013 83.677 124.969 83.659 124.923 83.646 124.879 83.63 124.705 83.563 124.531 83.498 124.35 83.445 124.271 83.421 124.187 83.406 124.106 83.384 123.957 83.345 123.809 83.304 123.656 83.274 123.518 83.247 123.375 83.232 123.234 83.213 123.134 83.199 123.036 83.179 122.934 83.169 122.688 83.146 122.439 83.133 122.186 83.133L121.188 83.133 121.188 78.828 126.181 78.828 126.181 80.26C126.181 84.191 129.599 87.513 133.646 87.513 137.693 87.513 141.112 84.191 141.112 80.26L141.112 78.828 144.73 78.828 144.73 89.133 151.987 89.133C152.61 89.133 153.24 89.519 153.24 90.255 153.24 90.992 152.61 91.377 151.987 91.377L144.73 91.377 144.73 101.683 135.112 101.683 135.112 108.615C135.112 109.247 134.386 109.868 133.646 109.868 132.906 109.868 132.181 109.247 132.181 108.615L132.181 101.683 121.188 101.683zM115.188 112.675L113.679 112.675C109.612 112.675 106.426 115.804 106.426 119.797 106.426 123.791 109.612 126.919 113.679 126.919L115.188 126.919 115.188 131.146 106.257 131.178 106.257 138.421C106.257 139.053 105.531 139.674 104.791 139.674 104.052 139.674 103.326 139.053 103.326 138.421L103.326 131.176 92.333 131.144 92.333 120.919 85.319 120.919C84.696 120.919 84.065 120.534 84.065 119.797 84.065 119.061 84.696 118.675 85.319 118.675L92.333 118.675 92.333 107.683 96.638 107.683 96.638 108.615C96.638 112.682 99.767 115.868 103.761 115.868 107.754 115.868 110.883 112.682 110.883 108.615L110.883 107.683 115.188 107.683 115.188 112.675zM85.295 91.377C84.672 91.377 84.042 90.992 84.042 90.255 84.042 89.519 84.672 89.133 85.295 89.133L92.333 89.133 92.333 78.828 102.639 78.828 102.639 71.753C102.639 71.13 103.024 70.5 103.761 70.5 104.497 70.5 104.883 71.13 104.883 71.753L104.883 78.828 115.188 78.828 115.188 89.133 122.185 89.133C122.186 89.133 122.186 89.133 122.186 89.133 122.337 89.133 122.489 89.157 122.632 89.202 122.632 89.202 122.632 89.202 122.633 89.202 123.056 89.338 123.398 89.673 123.432 90.19 123.432 90.201 123.435 90.21 123.435 90.221 123.4 90.875 122.865 91.377 122.185 91.377L115.188 91.377 115.188 101.683 104.883 101.683 104.883 108.615C104.883 109.238 104.497 109.868 103.761 109.868 103.024 109.868 102.639 109.238 102.639 108.615L102.639 101.683 92.333 101.683 92.333 91.377 85.295 91.377zM162.811 146.345C163.3 146.834 163.3 147.629 162.811 148.118 162.323 148.606 161.528 148.606 161.038 148.118L155.915 142.994 147.913 150.959 140.891 143.936 135.762 149.065C135.274 149.553 134.479 149.554 133.99 149.065 133.501 148.577 133.501 147.781 133.99 147.292L139.118 142.164 131.098 134.144 134.876 130.367 135.762 131.253C138.591 134.081 143.192 134.081 146.019 131.253 147.389 129.883 148.144 128.062 148.144 126.124 148.144 124.187 147.389 122.365 146.019 120.996L145.134 120.109 147.929 117.314 156.133 125.518 161.036 120.615C161.356 120.295 161.728 120.248 161.922 120.248 162.116 120.248 162.489 120.295 162.808 120.615 163.297 121.104 163.297 121.898 162.808 122.387L157.905 127.29 164.757 134.142 157.682 141.217 162.811 146.345"/>
    <path fill="#5FE0ED" d="M52.5,62.17 C54.332,62.17 55.817,63.655 55.817,65.487 C55.817,67.319 54.332,68.804 52.5,68.804"/>
    <path fill="#F58E70" d="M164.835 198.5C164.835 199.052 164.387 199.5 163.835 199.5 163.282 199.5 162.835 199.052 162.835 198.5 162.835 197.948 163.282 197.5 163.835 197.5 164.387 197.5 164.835 197.948 164.835 198.5M52.5 183.5C53.605 183.5 54.5 184.395 54.5 185.5 54.5 186.605 53.605 187.5 52.5 187.5"/>
    <polygon fill="#48515A" points="191 41.5 193 41.5 193 37.5 191 37.5"/>
    <polygon fill="#48515A" points="191 51.5 193 51.5 193 47.5 191 47.5"/>
    <polygon fill="#48515A" points="195 45.5 199 45.5 199 43.5 195 43.5"/>
    <polygon fill="#48515A" points="185 45.5 189 45.5 189 43.5 185 43.5"/>
    <path fill="#5FE0ED" d="M183.284,80.209 C179.854,72.617 174.966,65.854 168.753,60.107 C168.001,59.384 167.235,58.672 166.441,57.984 C154.929,47.999 140.17,42.5 124.881,42.5 C119.006,42.5 113.21,43.32 107.645,44.887 C107.619,44.894 107.593,44.903 107.567,44.91 C106.484,45.216 105.411,45.557 104.347,45.92 C103.999,46.038 103.653,46.158 103.308,46.281 C102.566,46.549 101.831,46.834 101.1,47.129 C100.072,47.539 99.059,47.982 98.054,48.446 C97.842,48.545 97.627,48.637 97.416,48.738 C92.273,51.182 87.437,54.298 83.075,58.081 C77.511,62.907 72.913,68.639 69.362,75.118 C63.748,84.672 60.515,95.794 60.515,107.677 L60.515,164.911 C60.515,173.754 63.506,185.051 63.566,185.954 L99.65,185.954 L98.487,181.297 C96.611,173.78 94.073,166.445 90.904,159.375 C86.056,147.415 80.661,136.909 76.951,129.724 C76.874,129.576 76.795,129.42 76.72,129.275 C74.936,125.822 73.552,122.242 72.521,118.605 C68.841,105.615 69.942,91.852 75.919,80.153 C77.169,77.704 78.596,75.38 80.177,73.178 C82.598,69.81 85.391,66.737 88.543,64.003 C89.467,63.202 90.422,62.445 91.392,61.71 C91.577,61.57 91.761,61.429 91.947,61.291 C92.899,60.59 93.869,59.918 94.86,59.281 C95.023,59.176 95.19,59.076 95.355,58.973 C96.316,58.37 97.284,57.775 98.288,57.247 C98.384,57.197 98.477,57.14 98.572,57.089 C99.631,56.52 100.711,55.994 101.802,55.495 C102.004,55.403 102.207,55.312 102.409,55.222 C103.505,54.738 104.613,54.283 105.737,53.87 C105.848,53.83 105.96,53.795 106.07,53.755 C107.159,53.364 108.261,53.008 109.373,52.685 C109.514,52.644 109.653,52.599 109.794,52.56 C110.951,52.234 112.121,51.949 113.299,51.698 C113.497,51.656 113.696,51.617 113.895,51.577 C115.103,51.333 116.32,51.119 117.546,50.956 C119.965,50.635 122.415,50.469 124.881,50.469 C138.252,50.469 151.157,55.275 161.219,64.004 C161.274,64.051 161.327,64.098 161.381,64.145 L161.35,64.182 C161.371,64.199 161.393,64.217 161.414,64.235 C161.427,64.247 161.441,64.258 161.454,64.269 C161.46,64.275 161.466,64.28 161.472,64.284 C161.476,64.287 161.479,64.29 161.483,64.293 C161.493,64.302 161.503,64.311 161.514,64.32 C161.531,64.334 161.547,64.348 161.564,64.363 C161.573,64.371 161.584,64.38 161.593,64.388 C162.183,64.893 162.751,65.411 163.315,65.933 C168.755,70.957 173.03,76.864 176.021,83.488 C179.197,90.525 180.076,98.457 178.65,106.113 L186.722,106.113 C188.074,97.323 186.931,88.287 183.284,80.209"/>
    <path fill="#475059" d="M99.323,212.5 L97.323,212.5 L97.323,207.188 C97.313,180.01 80.413,147.287 72.291,131.562 C63.403,114.354 63.1,94.287 71.479,77.886 C74.937,71.118 79.579,65.181 85.277,60.237 C96.246,50.724 110.311,45.484 124.881,45.484 C139.451,45.484 153.516,50.724 164.485,60.237 C165.174,60.836 165.9,61.504 166.706,62.279 C172.635,67.758 177.297,74.203 180.563,81.438 C185.391,92.131 185.544,104.633 180.983,115.735 C180.146,117.774 179.721,119.897 179.721,122.043 C179.721,123.109 179.836,124.217 180.063,125.334 C180.516,127.563 181.392,129.628 182.666,131.469 L189.649,141.552 C190.169,142.17 190.485,143.044 190.485,143.94 C190.485,145.597 189.429,147.061 187.858,147.584 L182.674,149.313 C181.825,149.596 181.254,150.388 181.254,151.283 C181.254,152.129 181.45,153.333 182.381,154.265 L182.674,154.558 L182.674,156.569 C182.674,158.231 181.563,159.411 179.768,159.754 C179.816,160.796 179.833,162.01 179.687,162.511 C179.294,163.865 178.374,164.63 177.633,165.245 C176.92,165.837 176.629,166.12 176.628,166.544 L176.611,173.19 C176.598,178.036 172.651,181.979 167.813,181.979 L152.567,181.979 C149.745,181.979 147.446,184.258 147.413,187.072 L150.492,211.171 L150.492,212.498 L148.492,212.498 L148.492,211.234 L145.413,187.133 C145.413,183.188 148.622,179.979 152.567,179.979 L167.813,179.979 C171.551,179.979 174.601,176.931 174.611,173.185 L174.628,166.536 C174.634,165.136 175.588,164.343 176.356,163.706 C176.967,163.198 177.545,162.719 177.767,161.954 C177.835,161.64 177.798,160.129 177.717,158.923 L177.646,157.87 L178.7,157.855 C179.601,157.843 180.674,157.609 180.674,156.569 L180.674,155.362 C179.755,154.285 179.254,152.854 179.254,151.283 C179.254,149.526 180.374,147.972 182.042,147.416 L187.226,145.688 C187.979,145.436 188.485,144.734 188.485,143.94 C188.485,143.511 188.333,143.092 188.058,142.761 L181.021,132.607 C179.592,130.542 178.61,128.229 178.104,125.732 C177.85,124.484 177.721,123.243 177.721,122.043 C177.721,119.635 178.196,117.258 179.133,114.976 C183.486,104.379 183.343,92.455 178.74,82.26 C175.584,75.27 171.076,69.039 165.341,63.741 C164.804,63.245 164.262,62.751 163.704,62.268 C163.701,62.265 163.698,62.263 163.695,62.26 C163.633,62.206 163.571,62.152 163.509,62.1 C163.493,62.086 163.477,62.072 163.46,62.059 C163.453,62.052 163.445,62.045 163.437,62.038 C163.382,61.991 163.326,61.944 163.271,61.897 L163.302,61.859 C163.259,61.822 163.217,61.785 163.174,61.748 C152.569,52.55 138.97,47.484 124.881,47.484 C110.792,47.484 97.192,52.55 86.587,61.749 C81.085,66.522 76.601,72.258 73.261,78.796 C65.174,94.625 65.476,114.007 74.068,130.644 C82.262,146.51 99.313,179.523 99.323,207.188 L99.323,212.5"/>
    <polygon fill="#48515A" points="213 189.5 215 189.5 215 185.5 213 185.5"/>
    <polygon fill="#48515A" points="213 199.5 215 199.5 215 195.5 213 195.5"/>
    <polygon fill="#48515A" points="217 193.5 221 193.5 221 191.5 217 191.5"/>
    <polygon fill="#48515A" points="207 193.5 211 193.5 211 191.5 207 191.5"/>
    <polygon fill="#48515A" points="35 141.5 37 141.5 37 137.5 35 137.5"/>
    <polygon fill="#48515A" points="35 151.5 37 151.5 37 147.5 35 147.5"/>
    <polygon fill="#48515A" points="39 145.5 43 145.5 43 143.5 39 143.5"/>
    <polygon fill="#48515A" points="29 145.5 33 145.5 33 143.5 29 143.5"/>
    <polygon fill="#48515A" points="191 41.5 193 41.5 193 37.5 191 37.5"/>
    <polygon fill="#48515A" points="191 51.5 193 51.5 193 47.5 191 47.5"/>
    <polygon fill="#48515A" points="195 45.5 199 45.5 199 43.5 195 43.5"/>
    <polygon fill="#48515A" points="185 45.5 189 45.5 189 43.5 185 43.5"/>
    <path fill="#5FE0ED" d="M210.317 133.773C210.317 135.605 208.832 137.09 207 137.09 205.168 137.09 203.683 135.605 203.683 133.773 203.683 131.941 205.168 130.455 207 130.455 208.832 130.455 210.317 131.941 210.317 133.773M55.817 65.487C55.817 67.319 54.332 68.804 52.5 68.804 50.668 68.804 49.183 67.319 49.183 65.487 49.183 63.655 50.668 62.17 52.5 62.17 54.332 62.17 55.817 63.655 55.817 65.487"/>
    <path fill="#F58E70" d="M164.835 198.5C164.835 199.052 164.387 199.5 163.835 199.5 163.282 199.5 162.835 199.052 162.835 198.5 162.835 197.948 163.282 197.5 163.835 197.5 164.387 197.5 164.835 197.948 164.835 198.5M54.5 185.5C54.5 186.605 53.605 187.5 52.5 187.5 51.395 187.5 50.5 186.605 50.5 185.5 50.5 184.395 51.395 183.5 52.5 183.5 53.605 183.5 54.5 184.395 54.5 185.5"/>
  </g>
</svg>
