<svg xmlns="http://www.w3.org/2000/svg" width="250" height="250" viewBox="0 0 250 250">
  <g fill="none" fill-rule="evenodd">
    <path fill="#F58E70" d="M130.558,111.132 C127.744,112.969 125.858,115.921 125.385,119.229 C125.307,119.777 125.268,120.337 125.268,120.896 L125.268,122.435 L120.267,122.435 L120.267,120.896 C120.267,120.102 120.324,119.302 120.435,118.521 C121.113,113.788 123.806,109.569 127.824,106.945 C131.955,104.248 134.42,99.91 134.42,95.341 C134.42,88.915 129.192,83.687 122.767,83.687 C116.341,83.687 111.113,88.915 111.113,95.341 L106.113,95.341 C106.113,86.158 113.584,78.687 122.767,78.687 C131.95,78.687 139.42,86.158 139.42,95.341 C139.42,101.604 136.107,107.508 130.558,111.132 Z M122.738,129.935 C121.357,129.935 120.238,128.815 120.238,127.435 L120.238,127.433 C120.238,126.053 121.357,124.933 122.738,124.933 C124.119,124.933 125.238,126.053 125.238,127.433 L125.238,127.435 C125.238,128.815 124.119,129.935 122.738,129.935 Z M123.438,67.436 C103.114,67.436 86.638,83.912 86.638,104.236 C86.638,118.185 94.399,130.32 105.838,136.561 L105.838,147.437 L113.584,139.691 C116.721,140.562 120.023,141.036 123.438,141.036 C143.762,141.036 160.238,124.561 160.238,104.236 C160.238,83.912 143.762,67.436 123.438,67.436 Z"/>
    <polygon fill="#48515A" points="213 199.437 215 199.437 215 195.437 213 195.437"/>
    <path fill="#F58E70" d="M164.835,198.437 C164.835,198.989 164.387,199.437 163.835,199.437 C163.282,199.437 162.835,198.989 162.835,198.437 C162.835,197.884 163.282,197.437 163.835,197.437 C164.387,197.437 164.835,197.884 164.835,198.437"/>
    <polygon fill="#48515A" points="191 41.436 193 41.436 193 37.436 191 37.436"/>
    <polygon fill="#48515A" points="191 51.436 193 51.436 193 47.436 191 47.436"/>
    <polygon fill="#48515A" points="195 45.436 199 45.436 199 43.436 195 43.436"/>
    <polygon fill="#48515A" points="185 45.436 189 45.436 189 43.436 185 43.436"/>
    <path fill="#5FE0ED" d="M74.021,129.894 C65.803,113.98 65.5,95.466 73.214,80.369 C76.405,74.123 80.687,68.645 85.943,64.086 C96.088,55.287 109.097,50.441 122.579,50.441 C136.059,50.441 149.07,55.287 159.215,64.085 C159.919,64.696 160.599,65.329 161.331,66.034 C162.406,67.026 163.453,68.072 164.442,69.143 C168.647,73.689 171.846,79.53 173.713,86.103 C173.898,86.757 174.046,87.419 174.201,88.08 L182.386,88.08 C182.108,86.663 181.79,85.249 181.391,83.845 C179.203,76.137 175.374,69.175 170.319,63.707 C169.187,62.483 167.988,61.287 166.825,60.213 C166.057,59.472 165.273,58.745 164.46,58.039 C152.859,47.977 137.985,42.436 122.579,42.436 C107.172,42.436 92.298,47.977 80.698,58.039 C74.662,63.275 69.746,69.562 66.085,76.728 C57.201,94.117 57.509,115.365 66.91,133.568 C69.614,138.804 72.091,146.028 74.179,154.368 L82.436,154.368 C80.095,144.612 77.222,136.092 74.021,129.894"/>
    <path fill="#475059" d="M146.394,212.563 L143.282,188.207 C143.282,184.235 146.514,181.004 150.485,181.004 L168.956,181.004 C172.729,181.004 175.807,177.929 175.816,174.147 L175.833,167.446 C175.839,166.144 176.282,165.402 176.711,164.687 C177,164.204 177.298,163.706 177.537,162.917 C177.556,162.486 177.539,160.6 177.511,158.918 L177.504,158.506 L180.284,155.615 L178.944,152.937 L178.944,152.7 C178.944,150.894 180.124,149.189 181.749,148.647 L181.903,148.597 L185.927,148.597 C187.015,148.597 187.983,148.186 188.584,147.47 C189.417,146.476 189.601,145.143 189.063,143.991 C186.924,139.411 181.672,127.844 179.115,119.388 C178.577,117.61 178.325,115.854 178.365,114.169 L178.361,97.919 C178.36,93.645 177.768,89.395 176.601,85.283 C174.604,78.257 171.169,71.995 166.646,67.104 C165.605,65.977 164.502,64.875 163.366,63.826 C162.541,63.032 161.852,62.399 161.183,61.819 C150.491,52.546 136.781,47.438 122.579,47.438 C108.375,47.438 94.666,52.546 83.975,61.819 C78.428,66.629 73.908,72.411 70.54,79.004 C62.388,94.96 62.692,114.5 71.354,131.271 C79.69,147.412 85.748,179.83 85.757,208.354 L85.859,212.411 L83.86,212.462 L83.758,208.38 C83.748,180.112 77.784,148.08 69.577,132.189 C60.62,114.846 60.314,94.623 68.759,78.094 C72.245,71.271 76.923,65.287 82.665,60.308 C93.719,50.72 107.894,45.439 122.579,45.439 C137.263,45.439 151.438,50.72 162.493,60.308 C163.188,60.911 163.902,61.566 164.738,62.371 C165.897,63.441 167.038,64.582 168.115,65.746 C172.851,70.867 176.442,77.409 178.504,84.664 C179.742,89.025 180.36,93.461 180.361,97.919 L180.365,114.192 C180.33,115.689 180.554,117.235 181.029,118.81 C183.549,127.141 188.755,138.604 190.876,143.146 C191.745,145.009 191.455,147.158 190.117,148.755 C189.135,149.926 187.607,150.597 185.927,150.597 L182.247,150.597 C181.556,150.896 181.033,151.661 180.955,152.484 L182.704,155.984 L179.518,159.298 C179.577,163.063 179.53,163.226 179.484,163.385 C179.168,164.476 178.757,165.162 178.427,165.714 C178.059,166.329 177.836,166.7 177.833,167.454 L177.816,174.153 C177.803,179.033 173.828,183.004 168.956,183.004 L150.485,183.004 C147.637,183.004 145.315,185.305 145.282,188.146 L148.378,212.31 L146.394,212.563"/>
    <path fill="#2B2B2B" d="M174.675,162.004 C174.677,162.001 174.678,161.998 174.678,161.995 C174.678,161.998 174.677,162.001 174.675,162.004"/>
    <polygon fill="#48515A" points="213 189.437 215 189.437 215 185.437 213 185.437"/>
    <polygon fill="#48515A" points="213 199.437 215 199.437 215 195.437 213 195.437"/>
    <polygon fill="#48515A" points="217 193.437 221 193.437 221 191.437 217 191.437"/>
    <polygon fill="#48515A" points="207 193.437 211 193.437 211 191.437 207 191.437"/>
    <polygon fill="#48515A" points="35 141.437 37 141.437 37 137.437 35 137.437"/>
    <polygon fill="#48515A" points="35 151.437 37 151.437 37 147.437 35 147.437"/>
    <polygon fill="#48515A" points="39 145.437 43 145.437 43 143.437 39 143.437"/>
    <polygon fill="#48515A" points="29 145.437 33 145.437 33 143.437 29 143.437"/>
    <polygon fill="#48515A" points="191 41.436 193 41.436 193 37.436 191 37.436"/>
    <polygon fill="#48515A" points="191 51.436 193 51.436 193 47.436 191 47.436"/>
    <polygon fill="#48515A" points="195 45.436 199 45.436 199 43.436 195 43.436"/>
    <polygon fill="#48515A" points="185 45.436 189 45.436 189 43.436 185 43.436"/>
    <path fill="#5FE0ED" d="M210.317 133.709C210.317 135.541 208.832 137.026 207 137.026 205.168 137.026 203.683 135.541 203.683 133.709 203.683 131.877 205.168 130.392 207 130.392 208.832 130.392 210.317 131.877 210.317 133.709M55.817 65.423C55.817 67.255 54.332 68.74 52.5 68.74 50.668 68.74 49.183 67.255 49.183 65.423 49.183 63.591 50.668 62.106 52.5 62.106 54.332 62.106 55.817 63.591 55.817 65.423"/>
    <path fill="#F58E70" d="M164.835 198.437C164.835 198.989 164.387 199.437 163.835 199.437 163.282 199.437 162.835 198.989 162.835 198.437 162.835 197.884 163.282 197.437 163.835 197.437 164.387 197.437 164.835 197.884 164.835 198.437M54.5 185.437C54.5 186.541 53.605 187.437 52.5 187.437 51.395 187.437 50.5 186.541 50.5 185.437 50.5 184.332 51.395 183.437 52.5 183.437 53.605 183.437 54.5 184.332 54.5 185.437"/>
  </g>
</svg>
