<svg xmlns="http://www.w3.org/2000/svg" width="250" height="250" viewBox="0 0 250 250">
  <g fill="none" fill-rule="evenodd">
    <path fill="#2B2B2B" d="M174.675,162.068 C174.677,162.065 174.678,162.061 174.678,162.058 C174.678,162.061 174.677,162.065 174.675,162.068"/>
    <path fill="#DFE0E0" d="M135.944 141.294C136.109 140.654 136.114 139.983 135.958 139.341L133.437 128.998C133.437 127.476 134.671 126.292 136.194 126.292L141.627 126.292C140.104 126.292 138.87 127.476 138.87 128.998L141.391 139.366C141.547 140.009 141.542 140.667 141.377 141.307L139.972 145.67C139.161 148.813 136.332 151.002 132.803 151.002L132.803 148.474C133.98 147.676 134.264 146.726 134.539 145.664L135.944 141.294M156.555 118.059L156.791 118.059C159.148 118.059 161.045 120.013 160.92 122.398 160.803 124.634 158.796 126.292 156.557 126.292L151.123 126.292C153.363 126.292 155.37 124.634 155.487 122.398 155.612 120.013 153.715 118.059 151.358 118.059L151.122 118.059C153.361 118.059 155.368 116.313 155.485 114.077 155.603 111.832 153.928 109.917 151.764 109.705 151.63 109.692 150.115 109.688 149.977 109.688 152.509 109.688 154.22 107.38 153.754 104.766 153.403 102.792 151.623 101.432 149.271 101.385L149.271 101.173C151.623 100.609 152.499 99.075 152.398 97.146 152.281 94.91 150.564 93.358 148.325 93.358L151.041 93.358C153.281 93.358 155.288 95.016 155.405 97.252 155.53 99.637 153.633 101.591 151.276 101.591L155.176 101.591C157.216 101.591 159.12 102.853 159.477 104.863 159.943 107.477 157.942 109.723 155.41 109.723 155.548 109.723 157.063 109.684 157.198 109.697 159.361 109.909 161.036 111.845 160.918 114.09 160.801 116.326 158.794 118.059 156.555 118.059"/>
    <polygon fill="#5FE0ED" points="93.988 128.645 116.336 128.645 116.336 91.005 93.988 91.005"/>
    <path fill="#48515A" d="M133.08,152.005 L132.793,152.002 C132.245,151.996 131.804,151.55 131.804,151.002 L131.804,142.888 L130.45,138.674 L127.542,130.576 L126.179,127.096 C125.852,126.243 125.031,126.116 124.572,126.116 L116.336,126.116 C115.783,126.116 115.336,125.669 115.336,125.116 C115.336,124.563 115.783,124.116 116.336,124.116 L124.572,124.116 C126.179,124.116 127.509,124.98 128.044,126.373 L129.413,129.87 L132.345,138.032 L133.756,142.426 C133.787,142.524 133.804,142.628 133.804,142.731 L133.804,149.964 C136.374,149.669 138.662,147.814 139.281,145.42 L140.409,141.057 C140.533,140.575 140.536,140.085 140.42,139.602 L137.898,129.234 C137.88,129.157 137.87,129.078 137.87,128.998 C137.87,126.92 139.521,125.292 141.627,125.292 L156.557,125.292 C158.327,125.292 159.836,123.97 159.921,122.345 C159.967,121.479 159.666,120.659 159.074,120.035 C158.476,119.405 157.665,119.059 156.791,119.059 L156.555,119.059 C156.002,119.059 155.555,118.611 155.555,118.059 C155.555,117.506 156.002,117.059 156.555,117.059 C158.323,117.059 159.833,115.703 159.919,114.038 C160.008,112.354 158.743,110.854 157.1,110.692 C156.966,110.689 156.297,110.705 155.85,110.715 L155.611,110.72 C155.545,110.723 155.478,110.724 155.41,110.724 C154.857,110.724 154.41,110.276 154.41,109.724 C154.41,109.171 154.857,108.724 155.41,108.724 L155.54,108.721 C156.429,108.686 157.256,108.282 157.825,107.603 C158.423,106.889 158.66,105.979 158.493,105.037 C158.207,103.432 156.607,102.591 155.176,102.591 L151.275,102.591 C150.723,102.591 150.275,102.144 150.275,101.591 C150.275,101.038 150.723,100.591 151.275,100.591 C152.149,100.591 152.96,100.244 153.558,99.614 C154.15,98.99 154.451,98.17 154.406,97.304 C154.321,95.68 152.812,94.357 151.041,94.357 L139.317,94.357 C133.238,94.357 127.629,95.199 122.646,96.86 C122.34,96.963 122.006,96.911 121.744,96.724 C121.738,96.719 121.732,96.715 121.727,96.71 L116.336,96.71 C115.783,96.71 115.336,96.263 115.336,95.71 C115.336,95.157 115.783,94.71 116.336,94.71 L122.329,94.71 C122.438,94.71 122.542,94.727 122.641,94.76 C127.669,93.165 133.275,92.357 139.317,92.357 L151.041,92.357 C153.906,92.357 156.262,94.484 156.404,97.199 C156.469,98.442 156.097,99.629 155.35,100.594 C157.914,100.667 160.049,102.366 160.462,104.688 C160.73,106.198 160.328,107.729 159.358,108.887 C159.265,108.998 159.167,109.105 159.065,109.208 C160.855,110.098 162.029,112.004 161.917,114.143 C161.835,115.707 161,117.103 159.767,118.004 C160.039,118.196 160.293,118.415 160.524,118.659 C161.498,119.685 161.993,121.031 161.919,122.45 C161.776,125.165 159.421,127.292 156.557,127.292 L141.627,127.292 C140.679,127.292 139.929,127.986 139.873,128.892 L142.363,139.13 C142.559,139.938 142.553,140.754 142.346,141.557 L141.217,145.92 C140.307,149.445 136.885,152.005 133.08,152.005"/>
    <path fill="#48515A" d="M156.328 119.059L150.447 119.059C149.895 119.059 149.447 118.611 149.447 118.059 149.447 117.506 149.895 117.059 150.447 117.059L156.328 117.059C156.881 117.059 157.328 117.506 157.328 118.059 157.328 118.611 156.881 119.059 156.328 119.059M156.328 110.825L150.447 110.825C149.895 110.825 149.447 110.378 149.447 109.825 149.447 109.272 149.895 108.825 150.447 108.825L156.328 108.825C156.881 108.825 157.328 109.272 157.328 109.825 157.328 110.378 156.881 110.825 156.328 110.825M151.623 102.591L150.447 102.591C149.895 102.591 149.447 102.144 149.447 101.591 149.447 101.038 149.895 100.591 150.447 100.591L151.623 100.591C152.176 100.591 152.623 101.038 152.623 101.591 152.623 102.144 152.176 102.591 151.623 102.591M146.02 123.27C145.75 123.27 145.5 123.16 145.31 122.979 145.12 122.79 145.01 122.54 145.01 122.27 145.01 122.14 145.04 122.01 145.09 121.88 145.14 121.76 145.21 121.649 145.31 121.56 145.399 121.47 145.51 121.39 145.63 121.34 146 121.189 146.439 121.28 146.72 121.56 146.91 121.75 147.02 122.01 147.02 122.27 147.02 122.399 146.99 122.53 146.939 122.649 146.89 122.77 146.81 122.88 146.72 122.979 146.63 123.069 146.52 123.14 146.399 123.189 146.27 123.24 146.149 123.27 146.02 123.27M146.01 115C145.88 115 145.75 114.97 145.63 114.92 145.51 114.87 145.399 114.8 145.31 114.7 145.21 114.609 145.14 114.5 145.09 114.38 145.04 114.26 145.01 114.13 145.01 114 145.01 113.87 145.04 113.74 145.09 113.609 145.14 113.49 145.21 113.38 145.31 113.29 145.35 113.24 145.399 113.2 145.46 113.17 145.51 113.13 145.569 113.1 145.63 113.069 145.689 113.05 145.75 113.03 145.819 113.02 146.14 112.95 146.49 113.06 146.72 113.29 146.81 113.38 146.89 113.49 146.939 113.609 146.99 113.74 147.01 113.859 147.01 114 147.01 114.13 146.99 114.26 146.939 114.38 146.89 114.5 146.81 114.609 146.72 114.7 146.53 114.89 146.28 115 146.01 115M146.01 106.729C145.75 106.729 145.49 106.62 145.31 106.43 145.21 106.34 145.14 106.229 145.09 106.109 145.04 105.99 145.01 105.859 145.01 105.729 145.01 105.6 145.04 105.47 145.09 105.34 145.14 105.22 145.21 105.109 145.31 105.02 145.68 104.649 146.35 104.649 146.72 105.02 146.81 105.109 146.89 105.22 146.939 105.34 146.99 105.47 147.01 105.6 147.01 105.729 147.01 105.859 146.99 105.99 146.939 106.109 146.89 106.229 146.81 106.34 146.72 106.43 146.53 106.62 146.28 106.729 146.01 106.729M146.02 98.58C145.88 98.58 145.75 98.55 145.63 98.5 145.51 98.45 145.399 98.38 145.31 98.28 145.12 98.09 145.01 97.84 145.01 97.58 145.01 97.31 145.12 97.06 145.31 96.87 145.399 96.78 145.51 96.7 145.63 96.649 146 96.5 146.439 96.59 146.72 96.87 146.91 97.06 147.01 97.31 147.01 97.58 147.01 97.84 146.91 98.09 146.72 98.28 146.53 98.47 146.28 98.58 146.02 98.58"/>
    <polygon fill="#48515A" points="115.336 128.645 117.336 128.645 117.336 91.005 115.336 91.005"/>
    <path fill="#F58E70" d="M164.835,198.5 C164.835,199.052 164.387,199.5 163.835,199.5 C163.282,199.5 162.835,199.052 162.835,198.5 C162.835,197.948 163.282,197.5 163.835,197.5 C164.387,197.5 164.835,197.948 164.835,198.5"/>
    <path fill="#5FE0ED" d="M183.284,80.209 C179.854,72.617 174.966,65.854 168.753,60.107 C168.001,59.384 167.235,58.672 166.441,57.984 C154.929,47.999 140.17,42.5 124.881,42.5 C119.006,42.5 113.21,43.32 107.645,44.887 C107.619,44.894 107.593,44.903 107.567,44.91 C106.484,45.216 105.411,45.557 104.347,45.92 C103.999,46.038 103.653,46.158 103.308,46.281 C102.566,46.549 101.831,46.834 101.1,47.129 C100.072,47.539 99.059,47.982 98.054,48.446 C97.842,48.545 97.627,48.637 97.416,48.738 C92.273,51.182 87.437,54.298 83.075,58.081 C77.511,62.907 72.913,68.639 69.362,75.118 C63.748,84.672 60.515,95.794 60.515,107.677 L60.515,164.911 C60.515,173.754 63.506,185.051 63.566,185.954 L99.65,185.954 L98.487,181.297 C96.611,173.78 94.073,166.445 90.904,159.375 C86.056,147.415 80.661,136.909 76.951,129.724 C76.874,129.576 76.795,129.42 76.72,129.275 C74.936,125.822 73.552,122.242 72.521,118.605 C68.841,105.615 69.942,91.852 75.919,80.153 C77.169,77.704 78.596,75.38 80.177,73.178 C82.598,69.81 85.391,66.737 88.543,64.003 C89.467,63.202 90.422,62.445 91.392,61.71 C91.577,61.57 91.761,61.429 91.947,61.291 C92.899,60.59 93.869,59.918 94.86,59.281 C95.023,59.176 95.19,59.076 95.355,58.973 C96.316,58.37 97.284,57.775 98.288,57.247 C98.384,57.197 98.477,57.14 98.572,57.089 C99.631,56.52 100.711,55.994 101.802,55.495 C102.004,55.403 102.207,55.312 102.409,55.222 C103.505,54.738 104.613,54.283 105.737,53.87 C105.848,53.83 105.96,53.795 106.07,53.755 C107.159,53.364 108.261,53.008 109.373,52.685 C109.514,52.644 109.653,52.599 109.794,52.56 C110.951,52.234 112.121,51.949 113.299,51.698 C113.497,51.656 113.696,51.617 113.895,51.577 C115.103,51.333 116.32,51.119 117.546,50.956 C119.965,50.635 122.415,50.469 124.881,50.469 C138.252,50.469 151.157,55.275 161.219,64.004 C161.274,64.051 161.327,64.098 161.381,64.145 L161.35,64.182 C161.371,64.199 161.393,64.217 161.414,64.235 C161.427,64.247 161.441,64.258 161.454,64.269 C161.46,64.275 161.466,64.28 161.472,64.284 C161.476,64.287 161.479,64.29 161.483,64.293 C161.493,64.302 161.503,64.311 161.514,64.32 C161.531,64.334 161.547,64.348 161.564,64.363 C161.573,64.371 161.584,64.38 161.593,64.388 C162.183,64.893 162.751,65.411 163.315,65.933 C168.755,70.957 173.03,76.864 176.021,83.488 C179.197,90.525 180.076,98.457 178.65,106.113 L186.722,106.113 C188.074,97.323 186.931,88.287 183.284,80.209"/>
    <path fill="#475059" d="M99.323,212.5 L97.323,212.5 L97.323,207.188 C97.313,180.007 80.413,147.286 72.291,131.562 C63.403,114.353 63.101,94.287 71.479,77.886 C74.938,71.117 79.579,65.18 85.276,60.237 C96.246,50.724 110.312,45.484 124.881,45.484 C139.45,45.484 153.516,50.724 164.485,60.237 C165.174,60.836 165.9,61.504 166.706,62.279 C172.635,67.758 177.297,74.203 180.563,81.438 C185.391,92.132 185.544,104.633 180.982,115.735 C180.146,117.774 179.721,119.897 179.721,122.043 C179.721,123.109 179.836,124.217 180.063,125.334 C180.517,127.564 181.392,129.629 182.666,131.469 L189.648,141.552 C190.169,142.17 190.485,143.044 190.485,143.94 C190.485,145.597 189.43,147.061 187.858,147.584 L182.675,149.313 C181.825,149.597 181.254,150.388 181.254,151.283 C181.254,152.129 181.449,153.333 182.382,154.265 L182.675,154.558 L182.675,156.569 C182.675,158.231 181.563,159.411 179.768,159.754 C179.816,160.796 179.832,162.011 179.687,162.512 C179.294,163.865 178.373,164.63 177.633,165.245 C176.92,165.837 176.63,166.12 176.628,166.544 L176.611,173.19 C176.598,178.036 172.651,181.979 167.813,181.979 L152.566,181.979 C149.745,181.979 147.446,184.258 147.413,187.071 L150.491,211.171 L150.491,212.498 L148.491,212.498 L148.491,211.234 L145.413,187.133 C145.413,183.188 148.622,179.979 152.566,179.979 L167.813,179.979 C171.551,179.979 174.602,176.931 174.611,173.185 L174.628,166.536 C174.633,165.136 175.588,164.343 176.355,163.706 C176.967,163.198 177.544,162.719 177.767,161.954 C177.836,161.639 177.798,160.128 177.717,158.923 L177.646,157.87 L178.701,157.855 C179.602,157.843 180.675,157.609 180.675,156.569 L180.675,155.362 C179.756,154.285 179.254,152.854 179.254,151.283 C179.254,149.525 180.374,147.972 182.042,147.416 L187.226,145.688 C187.979,145.436 188.485,144.734 188.485,143.94 C188.485,143.511 188.334,143.092 188.058,142.762 L181.021,132.607 C179.593,130.543 178.61,128.23 178.104,125.732 C177.85,124.484 177.721,123.243 177.721,122.043 C177.721,119.635 178.195,117.258 179.133,114.976 C183.485,104.38 183.343,92.455 178.74,82.26 C175.584,75.269 171.075,69.038 165.341,63.741 C164.735,63.182 164.124,62.625 163.491,62.084 C163.488,62.082 163.486,62.08 163.484,62.078 C163.413,62.018 163.342,61.957 163.271,61.897 L163.302,61.859 C163.259,61.822 163.217,61.785 163.174,61.748 C152.568,52.55 138.969,47.484 124.881,47.484 C110.793,47.484 97.193,52.55 86.587,61.749 C81.085,66.521 76.602,72.257 73.261,78.796 C65.174,94.624 65.476,114.007 74.068,130.644 C82.263,146.509 99.313,179.521 99.323,207.188 L99.323,212.5"/>
    <polygon fill="#48515A" points="213 189.5 215 189.5 215 185.5 213 185.5"/>
    <polygon fill="#48515A" points="213 199.5 215 199.5 215 195.5 213 195.5"/>
    <polygon fill="#48515A" points="217 193.5 221 193.5 221 191.5 217 191.5"/>
    <polygon fill="#48515A" points="207 193.5 211 193.5 211 191.5 207 191.5"/>
    <polygon fill="#48515A" points="35 141.5 37 141.5 37 137.5 35 137.5"/>
    <polygon fill="#48515A" points="35 151.5 37 151.5 37 147.5 35 147.5"/>
    <polygon fill="#48515A" points="39 145.5 43 145.5 43 143.5 39 143.5"/>
    <polygon fill="#48515A" points="29 145.5 33 145.5 33 143.5 29 143.5"/>
    <polygon fill="#48515A" points="191 41.5 193 41.5 193 37.5 191 37.5"/>
    <polygon fill="#48515A" points="191 51.5 193 51.5 193 47.5 191 47.5"/>
    <polygon fill="#48515A" points="195 45.5 199 45.5 199 43.5 195 43.5"/>
    <polygon fill="#48515A" points="185 45.5 189 45.5 189 43.5 185 43.5"/>
    <path fill="#5FE0ED" d="M210.317 133.773C210.317 135.605 208.832 137.09 207 137.09 205.168 137.09 203.683 135.605 203.683 133.773 203.683 131.941 205.168 130.455 207 130.455 208.832 130.455 210.317 131.941 210.317 133.773M55.817 65.487C55.817 67.319 54.332 68.804 52.5 68.804 50.668 68.804 49.183 67.319 49.183 65.487 49.183 63.655 50.668 62.17 52.5 62.17 54.332 62.17 55.817 63.655 55.817 65.487"/>
    <path fill="#F58E70" d="M164.835 198.5C164.835 199.052 164.387 199.5 163.835 199.5 163.282 199.5 162.835 199.052 162.835 198.5 162.835 197.948 163.282 197.5 163.835 197.5 164.387 197.5 164.835 197.948 164.835 198.5M54.5 185.5C54.5 186.605 53.605 187.5 52.5 187.5 51.395 187.5 50.5 186.605 50.5 185.5 50.5 184.395 51.395 183.5 52.5 183.5 53.605 183.5 54.5 184.395 54.5 185.5"/>
  </g>
</svg>
