<svg xmlns="http://www.w3.org/2000/svg" width="192" height="182" viewBox="0 0 192 182">
  <g fill="none" fill-rule="evenodd">
    <path fill="#475059" d="M83.997,48.927 L19.997,48.927 C18.341,48.925 16.999,47.583 16.997,45.927 L16.997,3.994 C16.999,2.338 18.341,0.996 19.997,0.994 L83.997,0.994 C85.653,0.996 86.995,2.338 86.997,3.994 L86.997,20.994 L84.997,20.994 L84.997,3.994 C84.996,3.442 84.549,2.995 83.997,2.994 L19.997,2.994 C19.445,2.995 18.998,3.442 18.997,3.994 L18.997,45.927 C18.998,46.479 19.445,46.926 19.997,46.927 L83.997,46.927 C84.549,46.926 84.996,46.479 84.997,45.927 L84.997,26.993 L86.997,26.993 L86.997,45.927 C86.995,47.583 85.653,48.925 83.997,48.927"/>
    <path fill="#475059" d="M46.017,57.927 L57.977,57.927 L56.497,48.927 L47.497,48.927 L46.017,57.927 Z M59.997,59.927 L43.997,59.927 L44.01,57.806 L45.498,48.762 L45.498,46.927 L58.497,46.927 L58.497,48.844 L59.997,57.969 L59.997,59.927 Z"/>
    <polygon fill="#475059" points="41.997 59.927 61.997 59.927 61.997 57.927 41.997 57.927"/>
    <path fill="#DEDEDD" d="M20.999,39.927 L20.999,44.427 C20.999,44.703 21.223,44.927 21.499,44.927 L82.496,44.927 C82.772,44.927 82.996,44.703 82.996,44.427 L82.996,39.927 L20.999,39.927"/>
    <polyline fill="#DEDEDD" points="48.373 55.927 55.617 55.927 54.787 50.927 49.195 50.927 48.373 55.927"/>
    <path fill="#475059" d="M172.003,48.927 L108.003,48.927 C106.347,48.925 105.005,47.583 105.003,45.927 L105.003,27.493 L107.003,27.493 L107.003,45.927 C107.003,46.479 107.451,46.926 108.003,46.927 L172.003,46.927 C172.555,46.926 173.002,46.479 173.003,45.927 L173.003,3.994 C173.002,3.442 172.555,2.995 172.003,2.994 L108.003,2.994 C107.451,2.995 107.003,3.442 107.003,3.994 L107.003,21.162 L105.003,21.162 L105.003,3.994 C105.005,2.338 106.347,0.996 108.003,0.994 L172.003,0.994 C173.659,0.996 175.001,2.338 175.003,3.994 L175.003,45.927 C175.001,47.583 173.659,48.925 172.003,48.927"/>
    <path fill="#475059" d="M134.023,57.927 L145.982,57.927 L144.502,48.927 L135.504,48.927 L135.49,49.005 L134.023,57.927 Z M148.003,59.927 L132.003,59.927 L132.017,57.806 L133.504,48.762 L133.504,46.927 L146.502,46.927 L146.502,48.844 L148.003,57.969 L148.003,59.927 Z"/>
    <polygon fill="#475059" points="130.003 59.927 150.003 59.927 150.003 57.927 130.003 57.927"/>
    <path fill="#DEDEDD" d="M109.005,39.927 L109.005,44.427 C109.005,44.703 109.229,44.927 109.505,44.927 L170.502,44.927 C170.778,44.927 171.002,44.703 171.002,44.427 L171.002,39.927 L109.005,39.927"/>
    <polyline fill="#DEDEDD" points="136.379 55.927 143.623 55.927 142.793 50.927 137.201 50.927 136.379 55.927"/>
    <path fill="#475059" d="M49.998 25.995L53.998 25.995 53.998 21.995 49.998 21.995 49.998 25.995zM47.998 27.995L55.998 27.995 55.998 19.995 47.998 19.995 47.998 27.995zM137.051 25.995L141.051 25.995 141.051 21.995 137.051 21.995 137.051 25.995zM135.051 27.995L143.051 27.995 143.051 19.995 135.051 19.995 135.051 27.995zM59.164 24.995L61.164 24.995 61.164 22.995 59.164 22.995 59.164 24.995zM63.164 24.995L65.164 24.995 65.164 22.995 63.164 22.995 63.164 24.995zM67.164 24.995L69.164 24.995 69.164 22.995 67.164 22.995 67.164 24.995zM71.164 24.995L73.164 24.995 73.164 22.995 71.164 22.995 71.164 24.995zM75.164 24.995L77.164 24.995 77.164 22.995 75.164 22.995 75.164 24.995zM79.164 24.995L81.164 24.995 81.164 22.995 79.164 22.995 79.164 24.995zM83.164 24.995L85.164 24.995 85.164 22.995 83.164 22.995 83.164 24.995zM87.164 24.995L89.164 24.995 89.164 22.995 87.164 22.995 87.164 24.995zM94.025 25.995L98.025 25.995 98.025 21.995 94.025 21.995 94.025 25.995zM92.025 27.995L100.025 27.995 100.025 19.995 92.025 19.995 92.025 27.995zM103.19 24.995L105.19 24.995 105.19 22.995 103.19 22.995 103.19 24.995zM107.19 24.995L109.19 24.995 109.19 22.995 107.19 22.995 107.19 24.995zM111.19 24.995L113.19 24.995 113.19 22.995 111.19 22.995 111.19 24.995zM115.19 24.995L117.19 24.995 117.19 22.995 115.19 22.995 115.19 24.995zM119.19 24.995L121.19 24.995 121.19 22.995 119.19 22.995 119.19 24.995zM123.19 24.995L125.19 24.995 125.19 22.995 123.19 22.995 123.19 24.995zM127.19 24.995L129.19 24.995 129.19 22.995 127.19 22.995 127.19 24.995zM131.19 24.995L133.19 24.995 133.19 22.995 131.19 22.995 131.19 24.995zM95.09 32.005L97.089 32.005 97.089 30.005 95.09 30.005 95.09 32.005zM95.09 36.005L97.089 36.005 97.089 34.005 95.09 34.005 95.09 36.005zM95.09 40.005L97.089 40.005 97.089 38.005 95.09 38.005 95.09 40.005zM95.09 44.005L97.089 44.005 97.089 42.005 95.09 42.005 95.09 44.005zM95.09 48.005L97.089 48.005 97.089 46.005 95.09 46.005 95.09 48.005zM95.09 52.005L97.089 52.005 97.089 50.005 95.09 50.005 95.09 52.005zM95.09 56.005L97.089 56.005 97.089 54.005 95.09 54.005 95.09 56.005zM95.09 60.005L97.089 60.005 97.089 58.005 95.09 58.005 95.09 60.005zM95.09 64.005L97.089 64.005 97.089 62.005 95.09 62.005 95.09 64.005zM95.09 68.005L97.089 68.005 97.089 66.005 95.09 66.005 95.09 68.005zM95.09 72.005L97.089 72.005 97.089 70.005 95.09 70.005 95.09 72.005zM95.09 76.005L97.089 76.005 97.089 74.005 95.09 74.005 95.09 76.005zM95.09 80.005L97.089 80.005 97.089 78.005 95.09 78.005 95.09 80.005zM94.025 90.988L98.025 90.988 98.025 86.988 94.025 86.988 94.025 90.988zM92.025 92.988L100.025 92.988 100.025 84.988 92.025 84.988 92.025 92.988z"/>
    <polygon fill="#48515A" points="6 92.005 8 92.005 8 88.005 6 88.005"/>
    <polygon fill="#48515A" points="6 102.005 8 102.005 8 98.005 6 98.005"/>
    <polygon fill="#48515A" points="10 96.005 14 96.005 14 94.005 10 94.005"/>
    <polygon fill="#48515A" points="0 96.005 4 96.005 4 94.005 0 94.005"/>
    <polygon fill="#48515A" points="184 67.995 186 67.995 186 63.995 184 63.995"/>
    <polygon fill="#48515A" points="184 77.995 186 77.995 186 73.995 184 73.995"/>
    <polygon fill="#48515A" points="188 71.995 192 71.995 192 69.995 188 69.995"/>
    <polygon fill="#48515A" points="178 71.995 182 71.995 182 69.995 178 69.995"/>
    <path fill="#FFD15D" d="M163.562,53.557 C164.667,53.557 165.562,54.453 165.562,55.557 C165.562,56.662 164.667,57.557 163.562,57.557 C162.458,57.557 161.562,56.662 161.562,55.557 C161.562,54.453 162.458,53.557 163.562,53.557"/>
    <path fill="#FFD15D" d="M163.563 54.057C162.734 54.057 162.063 54.729 162.063 55.557 162.063 56.386 162.734 57.057 163.563 57.057 164.391 57.057 165.063 56.386 165.063 55.557 165.062 54.729 164.391 54.058 163.563 54.057zM163.563 58.057C162.182 58.057 161.063 56.938 161.063 55.557 161.063 54.177 162.182 53.057 163.563 53.057 164.943 53.057 166.063 54.177 166.063 55.557 166.061 56.938 164.943 58.056 163.563 58.057zM34 106.005C35.105 106.005 36 106.901 36 108.005 36 109.11 35.105 110.005 34 110.005 32.895 110.005 32 109.11 32 108.005 32 106.901 32.895 106.005 34 106.005"/>
    <path fill="#FFD15D" d="M34,106.505 C33.172,106.505 32.5,107.177 32.5,108.005 C32.5,108.834 33.172,109.505 34,109.505 C34.828,109.505 35.5,108.834 35.5,108.005 C35.499,107.177 34.828,106.506 34,106.505 Z M34,110.505 C32.619,110.505 31.5,109.386 31.5,108.005 C31.5,106.625 32.619,105.505 34,105.505 C35.381,105.505 36.5,106.625 36.5,108.005 C36.498,109.385 35.38,110.504 34,110.505 Z"/>
    <path fill="#5FE0ED" d="M120.438,111.13 C121.784,111.13 122.875,112.221 122.875,113.568 C122.875,114.914 121.784,116.005 120.438,116.005 C119.091,116.005 118,114.914 118,113.568 C118,112.221 119.091,111.13 120.438,111.13"/>
    <path fill="#FFD15D" d="M8.438,137.13 C9.784,137.13 10.875,138.221 10.875,139.568 C10.875,140.914 9.784,142.005 8.438,142.005 C7.091,142.005 6,140.914 6,139.568 C6,138.221 7.091,137.13 8.438,137.13"/>
    <path fill="#FFD15D" d="M8.438,137.63 C7.367,137.63 6.5,138.498 6.5,139.568 C6.5,140.638 7.367,141.505 8.438,141.505 C9.508,141.505 10.375,140.638 10.375,139.568 C10.374,138.498 9.507,137.631 8.438,137.63 Z M8.438,142.505 C6.815,142.505 5.5,141.19 5.5,139.568 C5.5,137.945 6.815,136.63 8.438,136.63 C10.06,136.63 11.375,137.945 11.375,139.568 C11.373,141.189 10.059,142.503 8.438,142.505 Z"/>
    <path fill="#DEDEDD" d="M160 163.995C161.105 163.995 162 164.89 162 165.995 162 167.1 161.105 167.995 160 167.995 158.895 167.995 158 167.1 158 165.995 158 164.89 158.895 163.995 160 163.995M182 141.995C183.105 141.995 184 142.89 184 143.995 184 145.1 183.105 145.995 182 145.995 180.895 145.995 180 145.1 180 143.995 180 142.89 180.895 141.995 182 141.995"/>
    <polyline fill="#48515A" points="85 66.005 83 66.005 83 59.004 82 59.004 82 57.004 85 57.004 85 66.005"/>
    <polygon fill="#48515A" points="82 67.005 86 67.005 86 65.005 82 65.005"/>
    <path fill="#48515A" d="M30,59.004 C29.448,59.005 29.001,59.452 29,60.004 L29,64.005 C29,64.557 29.448,65.005 30,65.005 C30.552,65.005 31,64.557 31,64.005 L31,60.004 C30.999,59.452 30.552,59.005 30,59.004 Z M30,67.005 C28.344,67.003 27.002,65.661 27,64.005 L27,60.004 C27,58.347 28.343,57.004 30,57.004 C31.657,57.004 33,58.347 33,60.004 L33,64.005 C32.998,65.661 31.656,67.003 30,67.005 Z"/>
    <path fill="#475059" d="M59.952,101.005 L81.952,101.005 L81.952,80.419 L74.538,73.005 L59.952,73.005 L59.952,101.005 Z M83.952,103.005 L57.952,103.005 L57.952,71.005 L75.366,71.005 L83.952,79.591 L83.952,103.005 Z"/>
    <polyline fill="#475059" points="82.952 81.005 73.952 81.005 73.952 72.005 75.952 72.005 75.952 79.005 82.952 79.005 82.952 81.005"/>
    <path fill="#475059" d="M109.982,101.005 L131.982,101.005 L131.982,80.419 L124.568,73.005 L109.982,73.005 L109.982,101.005 Z M133.982,103.005 L107.982,103.005 L107.982,71.005 L125.396,71.005 L133.982,79.591 L133.982,103.005 Z"/>
    <polyline fill="#475059" points="132.982 81.005 123.982 81.005 123.982 72.005 125.982 72.005 125.982 79.005 132.982 79.005 132.982 81.005"/>
    <path fill="#475059" d="M83.997,171 L19.997,171 C18.341,170.998 16.999,169.656 16.997,168 L16.997,126.067 C16.999,124.411 18.341,123.069 19.997,123.067 L83.997,123.067 C85.653,123.069 86.995,124.411 86.997,126.067 L86.997,143.067 L84.997,143.067 L84.997,126.067 C84.996,125.515 84.549,125.068 83.997,125.067 L19.997,125.067 C19.445,125.068 18.998,125.515 18.997,126.067 L18.997,168 C18.998,168.552 19.445,168.999 19.997,169 L83.997,169 C84.549,168.999 84.996,168.552 84.997,168 L84.997,149.066 L86.997,149.066 L86.997,168 C86.995,169.656 85.653,170.998 83.997,171"/>
    <path fill="#475059" d="M46.017,180 L57.977,180 L56.497,171 L47.497,171 L46.017,180 Z M59.997,182 L43.997,182 L44.01,179.88 L45.498,170.835 L45.498,169 L58.497,169 L58.497,170.917 L59.997,180.042 L59.997,182 Z"/>
    <polygon fill="#475059" points="41.997 182 61.997 182 61.997 180 41.997 180"/>
    <path fill="#DEDEDD" d="M20.999,162 L20.999,166.5 C20.999,166.776 21.223,167 21.499,167 L82.496,167 C82.772,167 82.996,166.776 82.996,166.5 L82.996,162 L20.999,162"/>
    <polyline fill="#DEDEDD" points="48.373 178 55.617 178 54.787 173 49.195 173 48.373 178"/>
    <path fill="#475059" d="M172.003,171 L108.003,171 C106.347,170.998 105.005,169.656 105.003,168 L105.003,149.567 L107.003,149.567 L107.003,168 C107.003,168.552 107.451,168.999 108.003,169 L172.003,169 C172.555,168.999 173.002,168.552 173.003,168 L173.003,126.067 C173.002,125.515 172.555,125.068 172.003,125.067 L108.003,125.067 C107.451,125.068 107.003,125.515 107.003,126.067 L107.003,143.235 L105.003,143.235 L105.003,126.067 C105.005,124.411 106.347,123.069 108.003,123.067 L172.003,123.067 C173.659,123.069 175.001,124.411 175.003,126.067 L175.003,168 C175.001,169.656 173.659,170.998 172.003,171"/>
    <path fill="#475059" d="M134.023,180 L145.982,180 L144.502,171 L135.504,171 L135.49,171.078 L134.023,180 Z M148.003,182 L132.003,182 L132.017,179.88 L133.504,170.835 L133.504,169 L146.502,169 L146.502,170.917 L148.003,180.042 L148.003,182 Z"/>
    <polygon fill="#475059" points="130.003 182 150.003 182 150.003 180 130.003 180"/>
    <path fill="#DEDEDD" d="M109.005,162 L109.005,166.5 C109.005,166.776 109.229,167 109.505,167 L170.502,167 C170.778,167 171.002,166.776 171.002,166.5 L171.002,162 L109.005,162"/>
    <polyline fill="#DEDEDD" points="136.379 178 143.623 178 142.793 173 137.201 173 136.379 178"/>
    <path fill="#475059" d="M49.998 148.069L53.998 148.069 53.998 144.069 49.998 144.069 49.998 148.069zM47.998 150.069L55.998 150.069 55.998 142.069 47.998 142.069 47.998 150.069zM137.051 148.069L141.051 148.069 141.051 144.069 137.051 144.069 137.051 148.069zM135.051 150.069L143.051 150.069 143.051 142.069 135.051 142.069 135.051 150.069zM59.164 147.069L61.164 147.069 61.164 145.069 59.164 145.069 59.164 147.069zM63.164 147.069L65.164 147.069 65.164 145.069 63.164 145.069 63.164 147.069zM67.164 147.069L69.164 147.069 69.164 145.069 67.164 145.069 67.164 147.069zM71.164 147.069L73.164 147.069 73.164 145.069 71.164 145.069 71.164 147.069zM75.164 147.069L77.164 147.069 77.164 145.069 75.164 145.069 75.164 147.069zM79.164 147.069L81.164 147.069 81.164 145.069 79.164 145.069 79.164 147.069zM83.164 147.069L85.164 147.069 85.164 145.069 83.164 145.069 83.164 147.069zM87.164 147.069L89.164 147.069 89.164 145.069 87.164 145.069 87.164 147.069zM94.025 148.069L98.025 148.069 98.025 144.069 94.025 144.069 94.025 148.069zM92.025 150.069L100.025 150.069 100.025 142.069 92.025 142.069 92.025 150.069zM103.19 147.069L105.19 147.069 105.19 145.069 103.19 145.069 103.19 147.069zM107.19 147.069L109.19 147.069 109.19 145.069 107.19 145.069 107.19 147.069zM111.19 147.069L113.19 147.069 113.19 145.069 111.19 145.069 111.19 147.069zM115.19 147.069L117.19 147.069 117.19 145.069 115.19 145.069 115.19 147.069zM119.19 147.069L121.19 147.069 121.19 145.069 119.19 145.069 119.19 147.069zM123.19 147.069L125.19 147.069 125.19 145.069 123.19 145.069 123.19 147.069zM127.19 147.069L129.19 147.069 129.19 145.069 127.19 145.069 127.19 147.069zM131.19 147.069L133.19 147.069 133.19 145.069 131.19 145.069 131.19 147.069zM95.09 100.005L97.089 100.005 97.089 98.005 95.09 98.005 95.09 100.005zM95.09 104.005L97.089 104.005 97.089 102.005 95.09 102.005 95.09 104.005zM95.09 108.005L97.089 108.005 97.089 106.005 95.09 106.005 95.09 108.005zM95.09 112.005L97.089 112.005 97.089 110.005 95.09 110.005 95.09 112.005zM95.09 116.005L97.089 116.005 97.089 114.005 95.09 114.005 95.09 116.005zM95.09 120.005L97.089 120.005 97.089 118.005 95.09 118.005 95.09 120.005zM95.09 124.005L97.089 124.005 97.089 122.005 95.09 122.005 95.09 124.005zM95.09 128.005L97.089 128.005 97.089 126.005 95.09 126.005 95.09 128.005zM95.09 132.005L97.089 132.005 97.089 130.005 95.09 130.005 95.09 132.005zM95.09 136.005L97.089 136.005 97.089 134.005 95.09 134.005 95.09 136.005zM95.09 140.005L97.089 140.005 97.089 138.005 95.09 138.005 95.09 140.005z"/>
    <polyline fill="#DEDEDD" points="182.745 98.011 154.745 86.011 166.972 115.621 171.805 105.9 178.886 112.981 181.809 110.247 174.512 102.951 182.745 98.011"/>
    <polyline fill="#FFF" points="172.739 88.005 144.739 76.005 156.966 105.615 161.799 95.894 169.91 104.005 172.739 101.177 164.506 92.945 172.739 88.005"/>
    <path fill="#48515A" d="M146.599,77.89 L157.05,103.2 L161.522,94.204 L169.91,102.591 L171.324,101.177 L162.894,92.746 L170.547,88.154 L146.599,77.89 Z M156.882,108.031 L142.878,74.12 L174.93,87.856 L166.118,93.143 L174.152,101.177 L169.91,105.419 L162.075,97.585 L156.882,108.031 Z"/>
    <polyline fill="#48515A" points="49 90.005 47 90.005 47 83.004 46 83.004 46 81.004 49 81.004 49 90.005"/>
    <polygon fill="#48515A" points="46 91.005 50 91.005 50 89.005 46 89.005"/>
    <path fill="#48515A" d="M144,109.004 C143.448,109.005 143.001,109.452 143,110.004 L143,114.005 C143,114.558 143.448,115.005 144,115.005 C144.552,115.005 145,114.558 145,114.005 L145,110.004 C144.999,109.452 144.552,109.005 144,109.004 Z M144,117.005 C142.344,117.003 141.002,115.661 141,114.005 L141,110.004 C141,108.347 142.343,107.004 144,107.004 C145.657,107.004 147,108.347 147,110.004 L147,114.005 C146.998,115.661 145.656,117.003 144,117.005 Z"/>
  </g>
</svg>
