<svg xmlns="http://www.w3.org/2000/svg" xmlns:xlink="http://www.w3.org/1999/xlink" width="192" height="176" viewBox="0 0 192 176">
  <defs>
    <polygon id="cc433-a" points="0 .22 142.001 .22 142.001 94.995 0 94.995"/>
  </defs>
  <g fill="none" fill-rule="evenodd">
    <polyline fill="#DEDEDD" points="178.745 89.238 150.745 77.238 162.972 106.848 167.805 97.127 174.886 104.208 177.809 101.474 170.512 94.178 178.745 89.238"/>
    <g transform="translate(28)">
      <mask id="cc433-b" fill="#fff">
        <use xlink:href="#cc433-a"/>
      </mask>
      <polygon fill="#475059" points="26.301 94.995 64.999 94.995 64.999 92.995 26.301 92.995" mask="url(#cc433-b)"/>
      <path fill="#475059" d="M139.729,75.372 L137.875,74.622 C143.933,59.572 136.644,42.461 121.594,36.402 C118.706,35.24 115.652,34.544 112.546,34.34 L111.868,34.297 L111.659,33.649 C103.952,9.801 78.371,-3.285 54.522,4.422 C37.116,10.048 24.789,25.573 23.256,43.8 L23.191,44.581 L22.418,44.704 C10.622,46.563 1.949,56.753 2,68.693 L1.61009444e-15,68.693 C-0.054,56.064 8.921,45.198 21.333,42.865 C23.951,16.828 47.18,-2.157 73.217,0.461 C91.698,2.32 107.388,14.804 113.351,32.395 C130.613,33.9 143.386,49.114 141.881,66.376 C141.612,69.464 140.887,72.496 139.729,75.372" mask="url(#cc433-b)"/>
    </g>
    <path fill="#475059" d="M138.639,94.995 L98.999,94.9950063 L98.999,92.995 L138.639,92.995 C141.599,92.997 144.543,92.552 147.37,91.674 L147.964,93.584 C144.944,94.522 141.8,94.997 138.639,94.995"/>
    <path fill="#FFD15D" d="M96.47,4.223 C73.966,4.334 55.243,21.551 53.249,43.966 L53.054,46.307 L50.735,46.679 C38.577,48.649 30.317,60.102 32.287,72.26 C34.036,83.059 43.361,90.995 54.301,90.995 L138.639,90.995 C153.748,90.996 165.998,78.749 166,63.64 C166.002,49.218 154.809,37.272 140.418,36.336 L138.383,36.206 L137.756,34.265 C132,16.331 115.304,4.182 96.47,4.223"/>
    <path fill="#475059" d="M83.998,158.967 L19.998,158.967 C18.341,158.965 16.999,157.623 16.998,155.967 L16.998,114.034 C16.999,112.378 18.341,111.036 19.998,111.034 L83.998,111.034 C85.654,111.036 86.996,112.378 86.998,114.034 L86.998,131.035 L84.998,131.035 L84.998,114.034 C84.997,113.482 84.549,113.035 83.998,113.034 L19.998,113.034 C19.446,113.035 18.998,113.482 18.998,114.034 L18.998,155.967 C18.998,156.519 19.446,156.966 19.998,156.967 L83.998,156.967 C84.549,156.966 84.997,156.519 84.998,155.967 L84.998,137.033 L86.998,137.033 L86.998,155.967 C86.996,157.623 85.654,158.965 83.998,158.967"/>
    <path fill="#475059" d="M46.017,167.967 L57.977,167.967 L56.497,158.967 L47.498,158.967 L46.017,167.967 Z M59.998,169.967 L43.997,169.967 L44.01,167.847 L45.498,158.802 L45.498,156.967 L58.497,156.967 L58.497,158.884 L59.998,168.009 L59.998,169.967 Z"/>
    <polygon fill="#475059" points="41.998 169.967 61.998 169.967 61.998 167.967 41.998 167.967"/>
    <path fill="#DEDEDD" d="M20.999,149.967 L20.999,154.467 C21,154.743 21.223,154.967 21.499,154.967 L82.497,154.967 C82.773,154.967 82.997,154.743 82.997,154.467 L82.997,149.967 L20.999,149.967"/>
    <polyline fill="#DEDEDD" points="48.373 165.967 55.618 165.967 54.788 160.967 49.196 160.967 48.373 165.967"/>
    <path fill="#475059" d="M172.004,158.967 L108.004,158.967 C106.348,158.965 105.006,157.623 105.004,155.967 L105.004,137.534 L107.004,137.534 L107.004,155.967 C107.004,156.519 107.452,156.966 108.004,156.967 L172.004,156.967 C172.556,156.966 173.003,156.519 173.004,155.967 L173.004,114.034 C173.003,113.482 172.556,113.035 172.004,113.034 L108.004,113.034 C107.452,113.035 107.004,113.482 107.004,114.034 L107.004,131.202 L105.004,131.202 L105.004,114.034 C105.006,112.378 106.348,111.036 108.004,111.034 L172.004,111.034 C173.66,111.036 175.002,112.378 175.004,114.034 L175.004,155.967 C175.002,157.623 173.66,158.965 172.004,158.967"/>
    <path fill="#475059" d="M134.023,167.967 L145.983,167.967 L144.503,158.967 L135.504,158.967 L135.49,159.046 L134.023,167.967 Z M148.004,169.967 L132.003,169.967 L132.017,167.847 L133.504,158.802 L133.504,156.967 L146.503,156.967 L146.503,158.884 L148.004,168.009 L148.004,169.967 Z"/>
    <polygon fill="#475059" points="130.004 169.967 150.004 169.967 150.004 167.967 130.004 167.967"/>
    <path fill="#DEDEDD" d="M109.005,149.967 L109.005,154.467 C109.006,154.743 109.229,154.967 109.505,154.967 L170.503,154.967 C170.779,154.967 171.003,154.743 171.003,154.467 L171.003,149.967 L109.005,149.967"/>
    <polyline fill="#DEDEDD" points="136.379 165.967 143.624 165.967 142.794 160.967 137.202 160.967 136.379 165.967"/>
    <path fill="#475059" d="M49.998 136.036L53.998 136.036 53.998 132.036 49.998 132.036 49.998 136.036zM47.998 138.036L55.998 138.036 55.998 130.036 47.998 130.036 47.998 138.036zM138.052 136.036L142.052 136.036 142.052 132.036 138.052 132.036 138.052 136.036zM136.052 138.036L144.052 138.036 144.052 130.036 136.052 130.036 136.052 138.036zM94.026 136.036L98.026 136.036 98.026 132.036 94.026 132.036 94.026 136.036zM92.026 138.036L100.025 138.036 100.025 130.036 92.026 130.036 92.026 138.036z"/>
    <path fill="#FFD15D" d="M33.486,33.52 C34.59,33.52 35.486,34.415 35.486,35.52 C35.486,36.624 34.59,37.52 33.486,37.52 C32.381,37.52 31.486,36.624 31.486,35.52 C31.486,34.415 32.381,33.52 33.486,33.52"/>
    <path fill="#FFD15D" d="M33.486,34.019 C32.657,34.019 31.986,34.691 31.986,35.519 C31.986,36.348 32.657,37.019 33.486,37.019 C34.314,37.019 34.986,36.348 34.986,35.519 C34.985,34.691 34.314,34.02 33.486,34.019 Z M33.486,38.019 C32.105,38.019 30.986,36.9 30.986,35.519 C30.986,34.139 32.105,33.019 33.486,33.019 C34.867,33.019 35.986,34.139 35.986,35.519 C35.984,36.9 34.866,38.018 33.486,38.019 Z"/>
    <path fill="#5FE0ED" d="M163.552,119.142 C164.898,119.142 165.989,120.233 165.989,121.58 C165.989,122.926 164.898,124.017 163.552,124.017 C162.205,124.017 161.114,122.926 161.114,121.58 C161.114,120.233 162.205,119.142 163.552,119.142"/>
    <polygon fill="#475059" points="59 134.992 61 134.992 61 132.992 59 132.992"/>
    <polygon fill="#475059" points="63 134.992 65 134.992 65 132.992 63 132.992"/>
    <polygon fill="#475059" points="67.001 134.992 69.001 134.992 69.001 132.992 67.001 132.992"/>
    <polygon fill="#475059" points="71.001 134.992 73.001 134.992 73.001 132.992 71.001 132.992"/>
    <polygon fill="#475059" points="75 134.992 77 134.992 77 132.992 75 132.992"/>
    <polygon fill="#475059" points="79.001 134.992 81.001 134.992 81.001 132.992 79.001 132.992"/>
    <polygon fill="#475059" points="83.001 134.992 85.001 134.992 85.001 132.992 83.001 132.992"/>
    <polygon fill="#475059" points="87 134.992 89 134.992 89 132.992 87 132.992"/>
    <polygon fill="#475059" points="103.027 134.992 105.027 134.992 105.027 132.992 103.027 132.992"/>
    <polygon fill="#475059" points="107.027 134.992 109.027 134.992 109.027 132.992 107.027 132.992"/>
    <polygon fill="#475059" points="111.027 134.992 113.027 134.992 113.027 132.992 111.027 132.992"/>
    <polygon fill="#475059" points="115.027 134.992 117.027 134.992 117.027 132.992 115.027 132.992"/>
    <polygon fill="#475059" points="119.027 134.992 121.027 134.992 121.027 132.992 119.027 132.992"/>
    <polygon fill="#475059" points="123.027 134.992 125.027 134.992 125.027 132.992 123.027 132.992"/>
    <polygon fill="#475059" points="127.027 134.992 129.027 134.992 129.027 132.992 127.027 132.992"/>
    <polygon fill="#475059" points="131.027 134.992 133.027 134.992 133.027 132.992 131.027 132.992"/>
    <polygon fill="#475059" points="95.014 126.979 97.014 126.979 97.014 124.979 95.014 124.979"/>
    <polygon fill="#475059" points="95.014 122.979 97.014 122.979 97.014 120.979 95.014 120.979"/>
    <polygon fill="#475059" points="95.014 118.979 97.014 118.979 97.014 116.979 95.014 116.979"/>
    <polygon fill="#475059" points="95.014 114.979 97.014 114.979 97.014 112.979 95.014 112.979"/>
    <polygon fill="#475059" points="95.014 110.979 97.014 110.979 97.014 108.979 95.014 108.979"/>
    <polygon fill="#475059" points="95.014 106.979 97.014 106.979 97.014 104.979 95.014 104.979"/>
    <polygon fill="#475059" points="95.014 102.979 97.014 102.979 97.014 100.979 95.014 100.979"/>
    <polygon fill="#475059" points="95.014 98.979 97.014 98.979 97.014 96.979 95.014 96.979"/>
    <polygon fill="#475059" points="95.014 94.972 97.014 94.972 97.014 92.972 95.014 92.972"/>
    <polygon fill="#475059" points="95.014 90.972 97.014 90.972 97.014 88.972 95.014 88.972"/>
    <polygon fill="#475059" points="95.014 86.972 97.014 86.972 97.014 84.972 95.014 84.972"/>
    <polygon fill="#475059" points="90 82.995 102 82.995 102 80.995 90 80.995"/>
    <path fill="#48515A" d="M88.001,68.995 C87.449,68.995 87.002,69.443 87.001,69.995 L87.001,73.996 C87.001,74.548 87.449,74.996 88.001,74.996 C88.553,74.996 89.001,74.548 89.001,73.996 L89.001,69.995 C89,69.443 88.553,68.995 88.001,68.995 Z M88.001,76.996 C86.345,76.994 85.003,75.652 85.001,73.996 L85.001,69.995 C85.001,68.338 86.344,66.995 88.001,66.995 C89.658,66.995 91.001,68.338 91.001,69.995 L91.001,73.996 C90.999,75.652 89.657,76.994 88.001,76.996 Z"/>
    <polyline fill="#48515A" points="95 63.994 93 63.994 93 56.993 92 56.993 92 54.993 95 54.993 95 63.994"/>
    <polygon fill="#48515A" points="92 64.995 96 64.995 96 62.995 92 62.995"/>
    <polyline fill="#48515A" points="103 74.996 101 74.996 101 67.995 100 67.995 100 65.995 103 65.995 103 74.996"/>
    <polygon fill="#48515A" points="100 75.996 104 75.996 104 73.996 100 73.996"/>
    <path fill="#48515A" d="M84,52.995 C83.448,52.995 83.001,53.443 83,53.995 L83,57.996 C83,58.548 83.448,58.996 84,58.996 C84.552,58.996 85,58.548 85,57.996 L85,53.995 C84.999,53.443 84.552,52.995 84,52.995 Z M84,60.996 C82.344,60.994 81.002,59.652 81,57.996 L81,53.995 C81,52.338 82.343,50.995 84,50.995 C85.657,50.995 87,52.338 87,53.995 L87,57.996 C86.998,59.652 85.656,60.994 84,60.996 Z"/>
    <polyline fill="#48515A" points="103 51.993 101 51.993 101 44.992 100 44.992 100 42.992 103 42.992 103 51.993"/>
    <polygon fill="#48515A" points="100 52.993 104 52.993 104 50.993 100 50.993"/>
    <path fill="#48515A" d="M92 40.993C91.448 40.994 91.001 41.441 91 41.993L91 45.995C91 46.547 91.448 46.995 92 46.995 92.552 46.995 93 46.547 93 45.995L93 41.993C92.999 41.441 92.552 40.994 92 40.993zM92 48.995C90.344 48.993 89.002 47.651 89 45.995L89 41.993C89 40.336 90.343 38.993 92 38.993 93.657 38.993 95 40.336 95 41.993L95 45.995C94.998 47.651 93.656 48.993 92 48.995zM108 56.993C107.448 56.994 107.001 57.441 107 57.993L107 61.995C107 62.547 107.448 62.995 108 62.995 108.552 62.995 109 62.547 109 61.995L109 57.993C108.999 57.441 108.552 56.994 108 56.993zM108 64.995C106.344 64.993 105.002 63.651 105 61.995L105 57.993C105 56.336 106.343 54.993 108 54.993 109.657 54.993 111 56.336 111 57.993L111 61.995C110.998 63.651 109.656 64.993 108 64.995zM100.005 28.986C99.453 28.987 99.005 29.434 99.005 29.986L99.005 33.987C99.005 34.54 99.453 34.987 100.005 34.987 100.557 34.987 101.005 34.54 101.005 33.987L101.005 29.986C101.004 29.434 100.557 28.987 100.005 28.986zM100.005 36.987C98.349 36.985 97.007 35.643 97.005 33.987L97.005 29.986C97.005 28.329 98.348 26.986 100.005 26.986 101.662 26.986 103.005 28.329 103.005 29.986L103.005 33.987C103.003 35.643 101.661 36.985 100.005 36.987z"/>
    <polyline fill="#48515A" points="83.989 39.986 81.989 39.986 81.989 32.984 80.989 32.984 80.989 30.984 83.989 30.984 83.989 39.986"/>
    <polygon fill="#48515A" points="80.989 40.986 84.989 40.986 84.989 38.986 80.989 38.986"/>
    <polyline fill="#48515A" points="77.985 72.005 75.985 72.005 75.985 65.003 74.985 65.003 74.985 63.003 77.985 63.003 77.985 72.005"/>
    <polygon fill="#48515A" points="74.985 73.005 78.985 73.005 78.985 71.005 74.985 71.005"/>
    <polyline fill="#48515A" points="111.005 45.989 109.005 45.989 109.005 38.988 108.005 38.988 108.005 36.988 111.005 36.988 111.005 45.989"/>
    <polygon fill="#48515A" points="108.005 46.99 112.005 46.99 112.005 44.99 108.005 44.99"/>
    <polyline fill="#48515A" points="118.009 69.993 116.009 69.993 116.009 62.992 115.009 62.992 115.009 60.992 118.009 60.992 118.009 69.993"/>
    <polygon fill="#48515A" points="115.009 70.993 119.009 70.993 119.009 68.993 115.009 68.993"/>
    <polyline fill="#FFF" points="168.739 79.232 140.739 67.232 152.966 96.842 157.799 87.122 165.91 95.232 168.739 92.404 160.506 84.172 168.739 79.232"/>
    <path fill="#48515A" d="M142.599,69.118 L153.05,94.427 L157.522,85.431 L165.91,93.818 L167.324,92.404 L158.894,83.973 L166.547,79.381 L142.599,69.118 Z M152.882,99.258 L138.878,65.347 L170.93,79.083 L162.118,84.37 L170.152,92.404 L165.91,96.646 L158.075,88.812 L152.882,99.258 Z"/>
    <path fill="#475059" d="M34.029,100.053 L37.607,100.053 L39.381,96.029 L42.676,94.127 L47.048,94.602 L48.837,91.503 L46.239,87.955 L46.239,84.15 L48.837,80.602 L47.048,77.503 L42.676,77.979 L39.381,76.076 L37.607,72.053 L34.029,72.053 L32.255,76.076 L28.959,77.978 L24.588,77.503 L22.799,80.602 L25.396,84.15 L25.396,87.955 L22.799,91.503 L24.588,94.602 L28.959,94.127 L32.255,96.029 L34.029,100.053 Z M38.911,102.053 L32.725,102.053 L30.688,97.435 L28.526,96.186 L23.508,96.731 L20.415,91.374 L23.396,87.301 L23.396,84.804 L20.415,80.731 L23.508,75.374 L28.526,75.92 L30.688,74.671 L32.725,70.053 L38.911,70.053 L40.947,74.671 L43.11,75.92 L48.128,75.374 L51.221,80.731 L48.239,84.804 L48.239,87.301 L51.221,91.374 L48.128,96.731 L43.11,96.186 L40.947,97.435 L38.911,102.053 Z"/>
    <path fill="#475059" d="M35.818,84.053 C34.713,84.053 33.818,84.948 33.818,86.053 C33.818,87.157 34.713,88.053 35.818,88.053 C36.922,88.053 37.818,87.157 37.818,86.053 C37.817,84.949 36.922,84.054 35.818,84.053 Z M35.818,90.053 C33.609,90.053 31.818,88.262 31.818,86.053 C31.818,83.843 33.609,82.053 35.818,82.053 C38.027,82.053 39.818,83.843 39.818,86.053 C39.815,88.261 38.026,90.05 35.818,90.053 Z"/>
    <path fill="#475059" d="M35.818,80.053 C32.504,80.053 29.818,82.739 29.818,86.053 C29.818,89.366 32.504,92.053 35.818,92.053 C39.132,92.053 41.818,89.366 41.818,86.053 C41.814,82.741 39.13,80.056 35.818,80.053 Z M35.818,94.053 C31.4,94.053 27.818,90.471 27.818,86.053 C27.818,81.634 31.4,78.053 35.818,78.053 C40.236,78.053 43.818,81.634 43.818,86.053 C43.813,90.469 40.234,94.048 35.818,94.053 Z"/>
    <path fill="#5FE0ED" d="M149.074,12.954 C151.283,12.954 153.074,14.745 153.074,16.954 C153.074,19.163 151.283,20.954 149.074,20.954 C146.865,20.954 145.074,19.163 145.074,16.954 C145.074,14.745 146.865,12.954 149.074,12.954"/>
    <polygon fill="#48515A" points="6 102 8 102 8 98 6 98"/>
    <polygon fill="#48515A" points="6 112 8 112 8 108 6 108"/>
    <polygon fill="#48515A" points="10 106 14 106 14 104 10 104"/>
    <polygon fill="#48515A" points="0 106 4 106 4 104 0 104"/>
    <polygon fill="#48515A" points="184 68 186 68 186 64 184 64"/>
    <polygon fill="#48515A" points="184 78 186 78 186 74 184 74"/>
    <polygon fill="#48515A" points="188 72 192 72 192 70 188 70"/>
    <polygon fill="#48515A" points="178 72 182 72 182 70 178 70"/>
    <polygon fill="#48515A" points="166 166 168 166 168 162 166 162"/>
    <polygon fill="#48515A" points="166 176 168 176 168 172 166 172"/>
    <polygon fill="#48515A" points="170 170 174 170 174 168 170 168"/>
    <polygon fill="#48515A" points="160 170 164 170 164 168 160 168"/>
  </g>
</svg>
