<svg xmlns="http://www.w3.org/2000/svg" width="193" height="188" viewBox="0 0 193 188">
  <g fill="none" fill-rule="evenodd">
    <path fill="#F58E70" d="M103.061,159.044 C104.717,159.044 106.061,160.387 106.061,162.044 C106.061,163.701 104.717,165.044 103.061,165.044 C101.404,165.044 100.061,163.701 100.061,162.044 C100.061,160.387 101.404,159.044 103.061,159.044"/>
    <path fill="#FFD15D" d="M2 90.002C3.105 90.002 4 90.897 4 92.002 4 93.106 3.105 94.002 2 94.002.895 94.002 0 93.106 0 92.002 0 90.897.895 90.002 2 90.002M190.113 58.983C191.217 58.983 192.113 59.879 192.113 60.983 192.113 62.088 191.217 62.983 190.113 62.983 189.008 62.983 188.113 62.088 188.113 60.983 188.113 59.879 189.008 58.983 190.113 58.983"/>
    <polygon fill="#48515A" points="6.092 147.982 8.092 147.982 8.092 143.982 6.092 143.982"/>
    <polygon fill="#48515A" points="6.092 157.982 8.092 157.982 8.092 153.982 6.092 153.982"/>
    <polygon fill="#48515A" points="10.092 151.982 14.092 151.982 14.092 149.982 10.092 149.982"/>
    <polygon fill="#48515A" points=".092 151.982 4.092 151.982 4.092 149.982 .092 149.982"/>
    <polygon fill="#48515A" points="184.199 157.987 186.199 157.987 186.199 153.987 184.199 153.987"/>
    <polygon fill="#48515A" points="184.199 167.987 186.199 167.987 186.199 163.987 184.199 163.987"/>
    <polygon fill="#48515A" points="188.199 161.987 192.199 161.987 192.199 159.987 188.199 159.987"/>
    <polygon fill="#48515A" points="178.199 161.987 182.199 161.987 182.199 159.987 178.199 159.987"/>
    <polygon fill="#48515A" points="51.119 7.898 53.119 7.898 53.119 3.898 51.119 3.898"/>
    <polygon fill="#48515A" points="51.119 17.898 53.119 17.898 53.119 13.898 51.119 13.898"/>
    <polygon fill="#48515A" points="55.119 11.898 59.119 11.898 59.119 9.898 55.119 9.898"/>
    <polygon fill="#48515A" points="45.119 11.898 49.119 11.898 49.119 9.898 45.119 9.898"/>
    <path fill="#FFD15D" d="M75.063,91.007 C70.092,91.007 66.063,95.036 66.063,100.007 C66.063,104.977 70.092,109.007 75.063,109.007 C80.034,109.007 84.063,104.977 84.063,100.007 C84.057,95.039 80.031,91.013 75.063,91.007"/>
    <path fill="#5FE0ED" d="M129.095,40.98 C120.811,40.98 114.095,47.696 114.095,55.98 C114.095,64.265 120.811,70.98 129.095,70.98 C137.38,70.98 144.095,64.265 144.095,55.98 C144.086,47.7 137.376,40.99 129.095,40.98"/>
    <polygon fill="#48515A" points="93.092 137.982 114.259 137.982 114.259 135.982 93.092 135.982"/>
    <path fill="#48515A" d="M176.086 137.982L161.926 137.982 161.926 135.982 176.086 135.982C178.294 135.979 180.083 134.19 180.086 131.982L180.086 21.971C180.083 19.763 178.294 17.974 176.086 17.971L55.091 17.971 55.091 15.971 176.086 15.971C179.398 15.975 182.082 18.659 182.086 21.971L182.086 131.982C182.082 135.294 179.398 137.978 176.086 137.982M37.093 137.982L16.098 137.982C12.786 137.978 10.101 135.294 10.098 131.982L10.098 21.971C10.101 18.659 12.786 15.975 16.098 15.971L49.092 15.971 49.092 17.971 16.098 17.971C13.89 17.974 12.1 19.763 12.098 21.971L12.098 131.982C12.1 134.19 13.89 135.979 16.098 135.982L37.093 135.982 37.093 137.982"/>
    <path fill="#DEDEDD" d="M24.092,131.982 L172.092,131.982 L172.092,21.982 L24.092,21.982 L24.092,131.982 Z M19.092,79.981 C17.436,79.981 16.092,78.638 16.092,76.981 C16.092,75.325 17.436,73.981 19.092,73.981 C20.749,73.981 22.092,75.325 22.092,76.981 C22.092,78.638 20.749,79.981 19.092,79.981 Z M176.086,19.971 L16.098,19.971 C14.994,19.972 14.099,20.867 14.098,21.971 L14.098,131.982 C14.099,133.086 14.994,133.98 16.098,133.982 L176.086,133.982 C177.19,133.98 178.084,133.086 178.086,131.982 L178.086,21.971 C178.084,20.867 177.19,19.972 176.086,19.971 Z"/>
    <path fill="#475059" d="M46.287 171.49L44.287 171.49 44.287 169.017C44.276 168.98 44.259 168.937 44.24 168.886 40.851 160.189 39.105 150.938 39.092 141.603L39.092 128.489C39.034 125.482 41.167 122.877 44.126 122.34 45.848 122.075 47.602 122.574 48.926 123.708 48.983 123.756 49.039 123.807 49.094 123.858 49.651 121.315 51.76 119.406 54.345 119.104 56.082 118.937 57.81 119.509 59.106 120.678 59.422 120.964 59.706 121.284 59.953 121.631 60.709 120.431 61.879 119.55 63.241 119.155 65.128 118.618 67.159 119.004 68.718 120.195 68.858 120.302 68.994 120.413 69.123 120.529L69.123 101.842C69.075 99.053 70.887 96.573 73.559 95.77 75.39 95.244 77.363 95.612 78.882 96.762 80.38 97.893 81.258 99.664 81.252 101.541L81.252 123.517C82.864 121.597 85.244 120.488 87.752 120.489L91.33 120.489 91.33 143.863C91.32 149.027 89.619 154.046 86.487 158.151L79.276 167.551C78.737 168.172 78.414 168.952 78.356 169.773L78.356 171.488 76.356 171.488 76.356 169.773C76.413 168.446 76.927 167.179 77.812 166.189L84.898 156.936C87.765 153.179 89.321 148.588 89.33 143.863L89.33 122.489 87.752 122.489C84.163 122.493 81.256 125.401 81.252 128.989L81.252 138.822 79.252 138.822 79.252 101.541C79.256 100.289 78.67 99.108 77.671 98.353 76.647 97.584 75.321 97.342 74.091 97.698 72.286 98.26 71.074 99.952 71.123 101.842L71.123 131.579 69.123 131.579 69.123 124.922C69.11 123.682 68.512 122.521 67.51 121.79 66.45 120.978 65.068 120.714 63.783 121.08 62.05 121.644 60.892 123.278 60.934 125.1 60.935 126.61 60.934 131.579 60.934 131.579L58.934 131.579 58.934 124.682C58.92 123.713 58.493 122.795 57.762 122.16 56.883 121.368 55.712 120.982 54.534 121.095 52.438 121.372 50.886 123.18 50.928 125.294L50.956 127.466C50.992 127.734 51.01 128.004 51.01 128.274L51.01 131.579 49.01 131.592 48.958 127.625C48.81 126.691 48.336 125.84 47.621 125.223 46.741 124.462 45.569 124.131 44.422 124.317 42.44 124.705 41.03 126.471 41.092 128.489L41.092 141.603C41.105 150.691 42.805 159.697 46.105 168.165 46.214 168.41 46.276 168.674 46.287 168.943L46.287 171.49M155.047 129.482L153.047 129.482 153.047 125.093C153.059 124.824 153.121 124.56 153.23 124.314 156.53 115.847 158.229 106.841 158.242 97.754L158.242 84.64C158.304 82.621 156.895 80.855 154.913 80.468 153.765 80.283 152.594 80.615 151.714 81.374 150.999 81.991 150.525 82.842 150.377 83.776L150.325 87.743 148.325 87.73 148.325 84.424C148.325 84.155 148.343 83.885 148.379 83.617L148.407 81.431C148.444 79.322 146.892 77.521 144.8 77.245 143.623 77.131 142.451 77.517 141.573 78.31 140.841 78.946 140.415 79.863 140.401 80.833 140.4 81.093 140.4 87.73 140.4 87.73L138.4 87.73 138.4 58.788C138.458 56.952 137.297 55.299 135.551 54.731 134.267 54.365 132.885 54.628 131.824 55.44 130.822 56.171 130.224 57.333 130.211 58.573L130.211 87.73 128.211 87.73 128.211 57.993C128.261 56.103 127.048 54.41 125.243 53.848 124.014 53.491 122.687 53.734 121.664 54.504 120.665 55.258 120.079 56.439 120.083 57.691L120.083 96.44C120.026 97.792 119.493 99.079 118.577 100.075L116.859 101.796C115.796 102.852 114.08 102.852 113.018 101.797L103.738 92.98C101.588 90.916 98.212 90.854 95.986 92.836L94.37 94.261C94.133 94.547 94.152 94.967 94.416 95.23L121.473 122.288C122.388 123.284 122.922 124.572 122.979 125.924L122.979 129.48 120.979 129.48 120.979 125.924C120.921 125.103 120.598 124.323 120.059 123.702L93.002 96.644C91.943 95.583 91.943 93.865 93.002 92.804L94.663 91.336C97.664 88.664 102.216 88.748 105.116 91.53L114.413 100.364C114.695 100.65 115.154 100.658 115.445 100.381L117.163 98.661C117.702 98.04 118.025 97.261 118.083 96.44L118.083 57.691C118.076 55.814 118.954 54.044 120.453 52.913 123.108 50.897 126.895 51.415 128.911 54.071 129.124 54.352 129.312 54.65 129.473 54.964 129.805 54.544 130.19 54.168 130.617 53.846 132.176 52.654 134.206 52.268 136.093 52.806 138.701 53.618 140.457 56.057 140.4 58.788L140.4 76.679C141.677 75.609 143.331 75.096 144.99 75.254 147.575 75.556 149.684 77.465 150.242 80.007 150.296 79.957 150.352 79.907 150.408 79.858 151.733 78.725 153.486 78.226 155.209 78.49 158.168 79.028 160.3 81.633 160.242 84.64L160.242 97.754C160.229 107.088 158.484 116.339 155.095 125.036 155.075 125.087 155.059 125.13 155.047 125.167L155.047 129.482"/>
    <path fill="#475059" d="M142.53 69.415L141.116 68.001C147.755 61.362 147.755 50.598 141.116 43.959 134.477 37.32 123.713 37.321 117.074 43.96 110.436 50.598 110.436 61.362 117.074 68.001L115.66 69.415C108.24 61.995 108.241 49.965 115.661 42.545 123.08 35.125 135.111 35.126 142.53 42.546 149.95 49.965 149.95 61.995 142.53 69.415M65.871 109.199C60.794 104.122 60.794 95.891 65.871 90.814 70.948 85.737 79.179 85.737 84.256 90.814 89.332 95.891 89.332 104.122 84.256 109.199L82.841 107.785C87.137 103.489 87.137 96.524 82.841 92.228 78.545 87.933 71.58 87.933 67.285 92.229 62.989 96.524 62.989 103.489 67.285 107.785L65.871 109.199"/>
    <polygon fill="#475059" points="106.092 56.982 108.092 56.982 108.092 54.982 106.092 54.982"/>
    <polygon fill="#475059" points="102.092 56.982 104.092 56.982 104.092 54.982 102.092 54.982"/>
    <polygon fill="#475059" points="98.092 56.982 100.092 56.982 100.092 54.982 98.092 54.982"/>
    <polygon fill="#475059" points="94.092 56.982 96.092 56.982 96.092 54.982 94.092 54.982"/>
    <polygon fill="#475059" points="90.092 56.982 92.092 56.982 92.092 54.982 90.092 54.982"/>
    <polygon fill="#475059" points="86.092 56.982 88.092 56.982 88.092 54.982 86.092 54.982"/>
    <polygon fill="#475059" points="82.092 56.982 84.092 56.982 84.092 54.982 82.092 54.982"/>
    <polygon fill="#475059" points="78.092 56.982 80.092 56.982 80.092 54.982 78.092 54.982"/>
    <polygon fill="#475059" points="70.092 56.982 72.092 56.982 72.092 54.982 70.092 54.982"/>
    <polygon fill="#475059" points="66.092 56.982 68.092 56.982 68.092 54.982 66.092 54.982"/>
    <polygon fill="#475059" points="62.092 56.982 64.092 56.982 64.092 54.982 62.092 54.982"/>
    <polygon fill="#475059" points="58.092 56.982 60.092 56.982 60.092 54.982 58.092 54.982"/>
    <polygon fill="#475059" points="54.092 56.982 56.092 56.982 56.092 54.982 54.092 54.982"/>
    <polygon fill="#475059" points="50.092 56.982 52.092 56.982 52.092 54.982 50.092 54.982"/>
    <polygon fill="#475059" points="46.092 56.982 48.092 56.982 48.092 54.982 46.092 54.982"/>
    <polygon fill="#475059" points="74.093 84.982 76.093 84.982 76.093 82.982 74.093 82.982"/>
    <polygon fill="#475059" points="74.093 80.982 76.093 80.982 76.093 78.982 74.093 78.982"/>
    <polygon fill="#475059" points="74.093 76.982 76.093 76.982 76.093 74.982 74.093 74.982"/>
    <polygon fill="#475059" points="74.093 72.982 76.093 72.982 76.093 70.982 74.093 70.982"/>
    <polygon fill="#475059" points="74.093 68.982 76.093 68.982 76.093 66.982 74.093 66.982"/>
    <polygon fill="#475059" points="74.093 64.982 76.093 64.982 76.093 62.982 74.093 62.982"/>
    <polygon fill="#475059" points="74.093 60.982 76.093 60.982 76.093 58.982 74.093 58.982"/>
    <polygon fill="#475059" points="74.093 56.982 76.093 56.982 76.093 54.982 74.093 54.982"/>
    <polygon fill="#475059" points="74.093 52.981 76.093 52.981 76.093 50.981 74.093 50.981"/>
    <polygon fill="#475059" points="74.093 48.981 76.093 48.981 76.093 46.981 74.093 46.981"/>
    <polygon fill="#475059" points="74.093 44.981 76.093 44.981 76.093 42.981 74.093 42.981"/>
    <polygon fill="#475059" points="74.093 40.982 76.093 40.982 76.093 38.981 74.093 38.981"/>
    <polyline fill="#475059" points="83.092 183.968 81.092 183.968 81.092 171.981 41.092 171.981 41.092 183.968 39.092 183.968 39.092 169.981 83.092 169.981 83.092 183.968"/>
    <polyline fill="#475059" points="160.138 151.949 158.138 151.949 158.138 129.955 118.138 129.955 118.138 151.949 116.138 151.949 116.138 127.955 160.138 127.955 160.138 151.949"/>
    <polygon fill="#475059" points="116.093 155.98 118.093 155.98 118.093 153.98 116.093 153.98"/>
    <polygon fill="#475059" points="158.118 155.98 160.118 155.98 160.118 153.98 158.118 153.98"/>
    <polygon fill="#475059" points="81.072 188 83.072 188 83.072 186 81.072 186"/>
    <polygon fill="#475059" points="39.047 188 41.047 188 41.047 186 39.047 186"/>
    <path fill="#FFD15D" d="M139.017,168.872 C141.227,168.872 143.017,170.663 143.017,172.872 C143.017,175.081 141.227,176.872 139.017,176.872 C136.808,176.872 135.017,175.081 135.017,172.872 C135.017,170.663 136.808,168.872 139.017,168.872"/>
    <path fill="#FFD15D" d="M139.017,178.872 C135.704,178.872 133.017,176.186 133.017,172.872 C133.017,169.558 135.704,166.872 139.017,166.872 C142.331,166.872 145.017,169.558 145.017,172.872 C145.014,176.184 142.33,178.868 139.017,178.872 Z M139.017,164.872 C134.599,164.872 131.017,168.454 131.017,172.872 C131.017,177.29 134.599,180.872 139.017,180.872 C143.436,180.872 147.017,177.29 147.017,172.872 C147.017,168.454 143.436,164.872 139.018,164.872 L139.017,164.872 Z"/>
    <path fill="#48515A" d="M104.005 2.818C102.349 2.818 101.005 4.161 101.005 5.818 101.005 7.475 102.349 8.818 104.005 8.818 105.662 8.818 107.005 7.475 107.005 5.818 107.004 4.162 105.662 2.82 104.005 2.818zM104.005 10.818C101.244 10.818 99.006 8.579 99.006 5.818 99.006 3.057 101.244.818 104.005.818 106.767.818 109.005 3.057 109.005 5.818 109.002 8.578 106.766 10.815 104.005 10.818zM38.966 52.848C37.31 52.848 35.966 54.191 35.966 55.848 35.966 57.505 37.31 58.848 38.966 58.848 40.623 58.848 41.966 57.505 41.966 55.848 41.965 54.192 40.623 52.85 38.966 52.848zM38.966 60.848C36.205 60.848 33.966 58.61 33.966 55.848 33.966 53.087 36.205 50.848 38.966 50.848 41.728 50.848 43.966 53.087 43.966 55.848 43.963 58.608 41.727 60.845 38.966 60.848zM74.988 28.834C73.331 28.834 71.988 30.177 71.988 31.834 71.988 33.49 73.331 34.834 74.988 34.834 76.645 34.834 77.988 33.49 77.988 31.834 77.986 30.177 76.644 28.835 74.988 28.834zM74.988 36.834C72.227 36.834 69.988 34.595 69.988 31.834 69.988 29.072 72.227 26.834 74.988 26.834 77.749 26.834 79.988 29.072 79.988 31.834 79.985 34.594 77.748 36.83 74.988 36.834z"/>
  </g>
</svg>
