<svg xmlns="http://www.w3.org/2000/svg" xmlns:xlink="http://www.w3.org/1999/xlink" width="193" height="162" viewBox="0 0 193 162">
  <defs>
    <polygon id="cc434-a" points=".769 .967 114.771 .967 114.771 43.94 .769 43.94"/>
  </defs>
  <g fill="none" fill-rule="evenodd">
    <path fill="#475059" d="M169.916 76.197C168.008 38.339 137.713 8.092 99.852 6.244L99.953 4.247C138.838 6.145 169.953 37.209 171.914 76.091L169.916 76.197M22.114 76.368L20.116 76.268C22.108 37.361 53.193 6.259 92.099 4.246L92.2 6.243C54.262 8.073 23.923 38.428 22.114 76.368M26.918 111.83C22.943 103.181 20.641 93.858 20.135 84.352L22.131 84.243C22.624 93.497 24.866 102.575 28.736 110.995L26.918 111.83M92.079 156.046C75.513 155.242 59.678 148.987 47.033 138.255L48.322 136.727C60.634 147.176 76.052 153.265 92.181 154.049L92.079 156.046M99.809 156.054L99.711 154.056C116.633 153.202 132.752 146.575 145.381 135.279L146.715 136.769C133.744 148.371 117.189 155.177 99.809 156.054M157.427 124.934L155.812 123.754C164.241 112.232 169.139 98.508 169.908 84.252L171.904 84.361C171.115 99.003 166.085 113.1 157.427 124.934"/>
    <path fill="#475059" d="M96.02 2.146C94.363 2.146 93.02 3.489 93.02 5.146 93.02 6.803 94.363 8.146 96.02 8.146 97.676 8.146 99.02 6.803 99.02 5.146 99.018 3.49 97.676 2.148 96.02 2.146zM96.02 10.146C93.258 10.146 91.02 7.907 91.02 5.146 91.02 2.385 93.258.146 96.02.146 98.781.146 101.02 2.385 101.02 5.146 101.016 7.906 98.78 10.143 96.02 10.146zM96.02 152.236C94.363 152.236 93.02 153.579 93.02 155.236 93.02 156.893 94.363 158.236 96.02 158.236 97.676 158.236 99.02 156.893 99.02 155.236 99.018 153.58 97.676 152.238 96.02 152.236zM96.02 160.236C93.258 160.236 91.02 157.997 91.02 155.236 91.02 152.474 93.258 150.236 96.02 150.236 98.781 150.236 101.02 152.474 101.02 155.236 101.016 157.996 98.78 160.233 96.02 160.236zM171.064 77.191C169.408 77.191 168.064 78.534 168.064 80.191 168.064 81.848 169.408 83.191 171.064 83.191 172.721 83.191 174.064 81.848 174.064 80.191 174.063 78.535 172.721 77.193 171.064 77.191zM171.064 85.191C168.303 85.191 166.064 82.952 166.064 80.191 166.064 77.429 168.303 75.191 171.064 75.191 173.826 75.191 176.064 77.429 176.064 80.191 176.061 82.951 173.825 85.188 171.064 85.191zM20.975 77.191C19.318 77.191 17.975 78.534 17.975 80.191 17.975 81.848 19.318 83.191 20.975 83.191 22.632 83.191 23.975 81.848 23.975 80.191 23.973 78.535 22.631 77.193 20.975 77.191zM20.975 85.191C18.213 85.191 15.975 82.952 15.975 80.191 15.975 77.429 18.213 75.191 20.975 75.191 23.736 75.191 25.975 77.429 25.975 80.191 25.971 82.951 23.735 85.188 20.975 85.191z"/>
    <path fill="#475059" d="M64.729 40.698L62.823 40.093C69.164 20.112 79.669 7.18 91.645 4.612L92.064 6.567C80.976 8.945 70.757 21.704 64.729 40.698M59.176 73.035L57.178 72.939C57.476 66.526 58.217 60.141 59.394 53.83L61.358 54.2C60.199 60.421 59.47 66.714 59.176 73.035M59.56 107.334C58.317 100.909 57.529 94.403 57.202 87.867L59.2 87.764C59.521 94.206 60.298 100.618 61.522 106.951L59.56 107.334M92.174 155.79C80.173 153.535 69.575 140.876 63.099 121.06L64.999 120.438C71.15 139.258 81.447 151.739 92.543 153.824L92.174 155.79M99.901 155.777L99.526 153.813C110.577 151.7 120.84 139.256 126.98 120.527L128.881 121.15C122.416 140.871 111.854 153.492 99.901 155.777M132.343 107.877L130.382 107.484C131.7 100.815 132.52 94.056 132.834 87.264L134.832 87.36C134.513 94.251 133.681 101.109 132.343 107.877M132.833 73.001C132.533 66.575 131.782 60.178 130.586 53.857L132.551 53.481C133.764 59.894 134.526 66.385 134.831 72.905L132.833 73.001M127.301 40.76C121.224 21.564 110.903 8.763 99.694 6.516L100.087 4.555C112.199 6.982 122.813 19.959 129.207 40.157L127.301 40.76M68.279 45.849L67.881 43.889C74.61 42.537 81.431 41.686 88.286 41.346L88.39 43.343C81.633 43.679 74.911 44.516 68.279 45.849M22.356 76.542L20.393 76.158C22.715 64.305 35.239 53.805 54.758 47.352L55.385 49.25C36.573 55.471 24.534 65.418 22.356 76.542M54.805 112.958C35.151 106.471 22.598 95.904 20.362 83.967L22.327 83.599C24.426 94.798 36.491 104.807 55.432 111.059L54.805 112.958M88.988 118.984C82.111 118.674 75.267 117.854 68.511 116.532L68.899 114.57C75.558 115.873 82.304 116.681 89.082 116.986L88.988 118.984M103.725 118.949L103.621 116.952C110.014 116.633 116.376 115.866 122.661 114.659L123.042 116.622C116.665 117.848 110.21 118.625 103.725 118.949M136.57 113.166L135.955 111.263C154.805 105.176 167.394 94.935 169.631 83.868L171.592 84.265C169.173 96.226 156.408 106.76 136.57 113.166M169.637 76.456C167.409 65.35 155.35 55.425 136.55 49.226L137.177 47.327C156.679 53.758 169.225 64.232 171.598 76.063L169.637 76.456M123.264 45.755C116.573 44.437 109.793 43.62 102.98 43.311L103.074 41.313C109.986 41.627 116.866 42.456 123.654 43.794L123.264 45.755"/>
    <polygon fill="#475059" points="95.02 151.236 97.02 151.236 97.02 125.143 95.02 125.143"/>
    <polygon fill="#475059" points="95.02 111.315 97.02 111.315 97.02 89.975 95.02 89.975"/>
    <polygon fill="#475059" points="95.02 70.148 97.02 70.148 97.02 48.977 95.02 48.977"/>
    <polygon fill="#475059" points="95.02 35.148 97.02 35.148 97.02 9.146 95.02 9.146"/>
    <polygon fill="#475059" points="141.184 81.191 167.064 81.191 167.064 79.191 141.184 79.191"/>
    <polygon fill="#475059" points="106.017 81.191 127.355 81.191 127.355 79.191 106.017 79.191"/>
    <polygon fill="#475059" points="64.851 81.191 86.691 81.191 86.691 79.191 64.851 79.191"/>
    <polygon fill="#475059" points="24.975 81.191 51.188 81.191 51.188 79.191 24.975 79.191"/>
    <path fill="#475059" d="M96.02 71.146C91.049 71.146 87.02 75.176 87.02 80.146 87.02 85.117 91.049 89.146 96.02 89.146 100.99 89.146 105.02 85.117 105.02 80.146 105.014 75.178 100.988 71.152 96.02 71.146zM96.02 91.146C89.944 91.146 85.02 86.222 85.02 80.146 85.02 74.071 89.944 69.146 96.02 69.146 102.095 69.146 107.02 74.071 107.02 80.146 107.013 86.219 102.092 91.14 96.02 91.146zM96.02 36.146C92.706 36.146 90.02 38.833 90.02 42.146 90.02 45.46 92.706 48.146 96.02 48.146 99.333 48.146 102.02 45.46 102.02 42.146 102.016 38.834 99.332 36.15 96.02 36.146zM96.02 50.146C91.601 50.146 88.02 46.565 88.02 42.146 88.02 37.728 91.601 34.146 96.02 34.146 100.438 34.146 104.02 37.728 104.02 42.146 104.014 46.563 100.436 50.141 96.02 50.146zM96.02 112.147C92.706 112.147 90.02 114.833 90.02 118.147 90.02 121.461 92.706 124.147 96.02 124.147 99.333 124.147 102.02 121.461 102.02 118.147 102.016 114.835 99.332 112.151 96.02 112.147zM96.02 126.147C91.601 126.147 88.02 122.565 88.02 118.147 88.02 113.729 91.601 110.147 96.02 110.147 100.438 110.147 104.02 113.729 104.02 118.147 104.014 122.563 100.436 126.142 96.02 126.147zM134.02 74.147C130.706 74.147 128.02 76.833 128.02 80.147 128.02 83.461 130.706 86.147 134.02 86.147 137.333 86.147 140.02 83.461 140.02 80.147 140.016 76.835 137.332 74.151 134.02 74.147zM134.02 88.147C129.601 88.147 126.02 84.565 126.02 80.147 126.02 75.729 129.601 72.147 134.02 72.147 138.438 72.147 142.02 75.729 142.02 80.147 142.014 84.563 138.436 88.142 134.02 88.147zM58.02 74.146C54.706 74.146 52.02 76.833 52.02 80.146 52.02 83.46 54.706 86.146 58.02 86.146 61.333 86.146 64.02 83.46 64.02 80.146 64.016 76.834 61.332 74.15 58.02 74.146zM58.02 88.146C53.601 88.146 50.02 84.565 50.02 80.146 50.02 75.728 53.601 72.146 58.02 72.146 62.438 72.146 66.02 75.728 66.02 80.146 66.015 84.563 62.436 88.141 58.02 88.146zM61.999 41.149C58.685 41.149 55.999 43.836 55.999 47.149 55.999 50.463 58.685 53.149 61.999 53.149 65.313 53.149 67.999 50.463 67.999 47.149 67.995 43.837 65.311 41.153 61.999 41.149zM61.999 55.149C57.581 55.149 53.999 51.568 53.999 47.149 53.999 42.731 57.581 39.149 61.999 39.149 66.417 39.149 69.999 42.731 69.999 47.149 69.994 51.566 66.415 55.144 61.999 55.149zM130.04 41.149C126.726 41.149 124.04 43.836 124.04 47.149 124.04 50.463 126.726 53.149 130.04 53.149 133.354 53.149 136.04 50.463 136.04 47.149 136.036 43.837 133.352 41.153 130.04 41.149zM130.04 55.149C125.622 55.149 122.04 51.568 122.04 47.149 122.04 42.731 125.622 39.149 130.04 39.149 134.458 39.149 138.04 42.731 138.04 47.149 138.035 51.566 134.456 55.144 130.04 55.149zM61.999 108.189C58.685 108.189 55.999 110.876 55.999 114.189 55.999 117.503 58.685 120.189 61.999 120.189 65.313 120.189 67.999 117.503 67.999 114.189 67.995 110.877 65.311 108.193 61.999 108.189zM61.999 122.189C57.581 122.189 53.999 118.608 53.999 114.189 53.999 109.771 57.581 106.189 61.999 106.189 66.417 106.189 69.999 109.771 69.999 114.189 69.994 118.606 66.415 122.184 61.999 122.189zM130.04 108.189C126.726 108.189 124.04 110.876 124.04 114.189 124.04 117.503 126.726 120.189 130.04 120.189 133.354 120.189 136.04 117.503 136.04 114.189 136.036 110.877 133.352 108.193 130.04 108.189zM130.04 122.189C125.622 122.189 122.04 118.608 122.04 114.189 122.04 109.771 125.622 106.189 130.04 106.189 134.458 106.189 138.04 109.771 138.04 114.189 138.035 118.606 134.456 122.184 130.04 122.189z"/>
    <path fill="#5FE0ED" d="M105.44 114.823C110.356 114.508 115.253 113.925 120.106 113.076 120.632 108.438 124.293 104.779 128.93 104.255 129.781 99.392 130.364 94.487 130.679 89.561 127.74 88.514 125.456 86.16 124.497 83.191L108.645 83.191C107.491 87.941 103.774 91.645 99.02 92.783L99.02 108.608C102.014 109.561 104.39 111.861 105.44 114.823M105.647 39.477C111.079 39.818 116.487 40.473 121.843 41.438 122.569 40.399 123.484 39.506 124.541 38.806 119.106 23.145 110.801 12.373 101.744 9.162 101.048 10.149 100.11 10.941 99.02 11.461L99.02 32.608C102.246 33.633 104.738 36.216 105.647 39.477M70.192 41.433C75.55 40.467 80.96 39.813 86.394 39.472 87.303 36.213 89.795 33.632 93.02 32.608L93.02 11.461C91.925 10.939 90.984 10.144 90.288 9.152 81.232 12.354 72.91 23.145 67.474 38.791 68.539 39.492 69.462 40.389 70.192 41.433M61.329 70.721C64.314 71.773 66.628 74.171 67.573 77.191L83.371 77.191C84.5 72.4 88.233 68.655 93.02 67.51L93.02 51.685C90.025 50.733 87.649 48.433 86.6 45.472 81.704 45.783 76.829 46.361 71.996 47.202 71.963 52.353 68.025 56.637 62.895 57.104 62.144 61.614 61.621 66.159 61.329 70.721M108.668 77.191L124.466 77.191C125.408 74.181 127.71 71.789 130.682 70.732 130.389 66.166 129.867 61.617 129.116 57.103 124.001 56.622 120.081 52.347 120.043 47.21 115.21 46.368 110.334 45.788 105.438 45.475 104.388 48.435 102.013 50.733 99.02 51.685L99.02 67.51C103.806 68.655 107.539 72.4 108.668 77.191M71.934 113.078C76.787 113.926 81.683 114.508 86.6 114.822 87.649 111.86 90.025 109.56 93.02 108.608L93.02 92.783C88.265 91.645 84.549 87.941 83.394 83.191L67.542 83.191C66.58 86.171 64.282 88.531 61.328 89.572 61.644 94.493 62.227 99.393 63.077 104.25 67.729 104.761 71.407 108.427 71.934 113.078M121.256 118.965C116.091 119.873 110.879 120.493 105.645 120.822 104.735 124.081 102.244 126.661 99.02 127.686L99.02 148.921C100.083 149.429 101.002 150.196 101.692 151.151 110.586 148.018 118.799 137.553 124.247 122.325 123.009 121.445 121.987 120.296 121.256 118.965M140.04 114.189C140.034 119.71 135.56 124.183 130.04 124.189 130.011 124.189 129.983 124.185 129.954 124.185 126.063 135.139 120.863 143.823 114.827 149.666 139.58 143.037 158.913 123.703 165.541 98.95 159.695 104.998 151.001 110.206 140.035 114.099 140.036 114.129 140.04 114.159 140.04 114.189M139.991 46.179C150.975 50.075 159.687 55.296 165.543 61.353 158.919 36.597 139.587 17.259 114.833 10.629 121.063 16.657 126.397 25.707 130.323 37.164 135.354 37.31 139.494 41.17 139.991 46.179M164.75 83.191L143.542 83.191C142.506 86.401 139.926 88.876 136.676 89.778 136.347 95.018 135.727 100.236 134.818 105.407 136.147 106.137 137.294 107.158 138.173 108.393 153.38 102.955 163.844 94.762 166.995 85.875 166.032 85.184 165.26 84.26 164.75 83.191M138.718 52.099C137.827 53.653 136.538 54.941 134.984 55.83 135.804 60.693 136.37 65.595 136.679 70.517 139.96 71.428 142.556 73.94 143.573 77.191L164.75 77.191C165.264 76.112 166.045 75.183 167.018 74.489 163.934 65.696 153.658 57.549 138.718 52.099M61.999 124.189C56.479 124.183 52.005 119.71 51.999 114.189 51.999 114.163 52.003 114.137 52.003 114.11 41.044 110.222 32.36 105.022 26.512 98.99 33.153 123.702 52.454 143.006 77.164 149.651 71.137 143.81 65.943 135.133 62.055 124.187 62.036 124.187 62.018 124.189 61.999 124.189M27.289 77.191L48.466 77.191C49.479 73.951 52.062 71.442 55.33 70.524 55.64 65.595 56.207 60.685 57.028 55.814 55.483 54.924 54.201 53.638 53.316 52.09 38.369 57.538 28.091 65.681 24.998 74.472 25.982 75.167 26.771 76.103 27.289 77.191M53.86 108.401C54.734 107.172 55.873 106.155 57.192 105.425 56.28 100.245 55.658 95.018 55.328 89.768 52.093 88.858 49.529 86.389 48.497 83.191L27.289 83.191C26.775 84.269 25.994 85.199 25.021 85.893 28.181 94.766 38.646 102.964 53.86 108.401M61.687 37.165C65.611 25.718 70.95 16.665 77.184 10.632 52.446 17.254 33.124 36.577 26.503 61.316 32.363 55.27 41.07 50.058 52.049 46.167 52.55 41.175 56.671 37.325 61.687 37.165"/>
    <g transform="translate(67 118)">
      <mask id="cc434-b" fill="#fff">
        <use xlink:href="#cc434-a"/>
      </mask>
      <path fill="#5FE0ED" d="M19.393,2.82 C14.159,2.492 8.947,1.873 3.782,0.967 C3.047,2.306 2.016,3.46 0.769,4.343 C6.224,19.581 14.438,30.038 23.34,33.16 C24.031,32.2 24.952,31.43 26.02,30.921 L26.02,9.686 C22.794,8.661 20.303,6.079 19.393,2.82" mask="url(#cc434-b)"/>
      <polyline fill="#DEDEDD" points="114.771 26.39 86.771 14.39 98.998 44 103.831 34.28 110.912 41.36 113.835 38.626 106.538 31.33 114.771 26.39" mask="url(#cc434-b)"/>
    </g>
    <polyline fill="#FFF" points="171.765 134.384 143.765 122.384 155.992 151.994 160.825 142.274 168.936 150.384 171.765 147.556 163.532 139.324 171.765 134.384"/>
    <path fill="#48515A" d="M145.625,124.269 L156.076,149.579 L160.549,140.583 L168.937,148.97 L170.351,147.556 L161.92,139.125 L169.573,134.533 L145.625,124.269 Z M155.908,154.41 L141.904,120.499 L173.956,134.235 L165.145,139.522 L173.179,147.556 L168.937,151.798 L161.102,143.964 L155.908,154.41 Z"/>
    <path fill="#475059" d="M31.019,141.21 L34.596,141.21 L36.37,137.186 L39.666,135.284 L44.037,135.76 L45.826,132.661 L43.229,129.113 L43.229,125.307 L45.826,121.76 L44.037,118.661 L39.666,119.136 L36.37,117.233 L34.596,113.21 L31.019,113.21 L29.244,117.233 L25.949,119.136 L21.577,118.661 L19.789,121.76 L22.386,125.308 L22.386,129.112 L19.789,132.661 L21.577,135.76 L25.949,135.284 L29.244,137.186 L31.019,141.21 Z M35.9,143.21 L29.714,143.21 L27.678,138.592 L25.516,137.343 L20.497,137.889 L17.404,132.532 L20.386,128.459 L20.386,125.961 L17.404,121.889 L20.497,116.532 L25.516,117.077 L27.678,115.828 L29.714,111.21 L35.9,111.21 L37.937,115.828 L40.1,117.077 L45.117,116.532 L48.211,121.889 L45.229,125.961 L45.229,128.458 L48.211,132.532 L45.117,137.889 L40.1,137.343 L37.937,138.592 L35.9,143.21 Z"/>
    <path fill="#475059" d="M32.808,125.21 C31.703,125.21 30.808,126.105 30.808,127.21 C30.808,128.315 31.703,129.21 32.808,129.21 C33.912,129.21 34.808,128.315 34.808,127.21 C34.806,126.106 33.912,125.211 32.808,125.21 Z M32.808,131.21 C30.598,131.21 28.808,129.419 28.808,127.21 C28.808,125.001 30.598,123.21 32.808,123.21 C35.017,123.21 36.808,125.001 36.808,127.21 C36.805,129.418 35.016,131.208 32.808,131.21 Z"/>
    <path fill="#475059" d="M32.808,121.21 C29.494,121.21 26.808,123.896 26.808,127.21 C26.808,130.524 29.494,133.21 32.808,133.21 C36.121,133.21 38.808,130.524 38.808,127.21 C38.804,123.898 36.12,121.214 32.808,121.21 Z M32.808,135.21 C28.389,135.21 24.808,131.628 24.808,127.21 C24.808,122.792 28.389,119.21 32.808,119.21 C37.226,119.21 40.808,122.792 40.808,127.21 C40.803,131.626 37.224,135.205 32.808,135.21 Z"/>
    <polygon fill="#48515A" points="6 102.099 8 102.099 8 98.099 6 98.099"/>
    <polygon fill="#48515A" points="6 112.099 8 112.099 8 108.099 6 108.099"/>
    <polygon fill="#48515A" points="10 106.099 14 106.099 14 104.099 10 104.099"/>
    <polygon fill="#48515A" points="0 106.099 4 106.099 4 104.099 0 104.099"/>
    <polygon fill="#48515A" points="171.1 31.056 173.1 31.056 173.1 27.056 171.1 27.056"/>
    <polygon fill="#48515A" points="171.1 41.056 173.1 41.056 173.1 37.056 171.1 37.056"/>
    <polygon fill="#48515A" points="175.1 35.056 179.1 35.056 179.1 33.056 175.1 33.056"/>
    <polygon fill="#48515A" points="165.1 35.056 169.1 35.056 169.1 33.056 165.1 33.056"/>
    <polygon fill="#48515A" points="184.107 119.109 186.107 119.109 186.107 115.109 184.107 115.109"/>
    <polygon fill="#48515A" points="184.107 129.109 186.107 129.109 186.107 125.109 184.107 125.109"/>
    <polygon fill="#48515A" points="188.107 123.109 192.107 123.109 192.107 121.109 188.107 121.109"/>
    <polygon fill="#48515A" points="178.107 123.109 182.107 123.109 182.107 121.109 178.107 121.109"/>
    <path fill="#FFD15D" d="M12.493,29.666 C13.597,29.666 14.493,30.561 14.493,31.666 C14.493,32.77 13.597,33.666 12.493,33.666 C11.388,33.666 10.493,32.77 10.493,31.666 C10.493,30.561 11.388,29.666 12.493,29.666"/>
    <path fill="#FFD15D" d="M12.492,30.165 C11.664,30.165 10.992,30.837 10.992,31.665 C10.992,32.494 11.664,33.165 12.492,33.165 C13.321,33.165 13.992,32.494 13.992,31.665 C13.991,30.837 13.32,30.166 12.492,30.165 Z M12.492,34.165 C11.111,34.165 9.992,33.046 9.992,31.665 C9.992,30.285 11.111,29.165 12.492,29.165 C13.873,29.165 14.992,30.285 14.992,31.665 C14.991,33.046 13.872,34.164 12.492,34.165 Z"/>
    <path fill="#5FE0ED" d="M156.098,4.097 C158.307,4.097 160.098,5.888 160.098,8.097 C160.098,10.306 158.307,12.097 156.098,12.097 C153.888,12.097 152.098,10.306 152.098,8.097 C152.098,5.888 153.888,4.097 156.098,4.097"/>
    <path fill="#F58E70" d="M183.036,94.189 C184.693,94.189 186.036,95.532 186.036,97.189 C186.036,98.846 184.693,100.189 183.036,100.189 C181.379,100.189 180.036,98.846 180.036,97.189 C180.036,95.532 181.379,94.189 183.036,94.189"/>
  </g>
</svg>
