<svg xmlns="http://www.w3.org/2000/svg" xmlns:xlink="http://www.w3.org/1999/xlink" width="192" height="179" viewBox="0 0 192 179">
  <defs>
    <polygon id="cc436-a" points="0 .225 99.831 .225 99.831 95 0 95"/>
    <polygon id="cc436-c" points=".006 0 85.994 0 85.994 41.94 .006 41.94"/>
  </defs>
  <g fill="none" fill-rule="evenodd">
    <path fill="#FFD15D" d="M96.47,4.228 C73.966,4.339 55.243,21.556 53.249,43.971 L53.054,46.312 L50.735,46.684 C38.577,48.654 30.317,60.107 32.287,72.265 C34.036,83.064 43.361,91 54.301,91 L138.639,91 C153.748,91.001 165.998,78.754 166,63.645 C166.002,49.223 154.809,37.277 140.418,36.341 L138.383,36.211 L137.756,34.27 C132,16.336 115.304,4.187 96.47,4.228"/>
    <polyline fill="#DEDEDD" points="178.745 89.243 150.745 77.243 162.972 106.853 167.805 97.132 174.886 104.213 177.809 101.479 170.512 94.183 178.745 89.243"/>
    <g transform="translate(28)">
      <mask id="cc436-b" fill="#fff">
        <use xlink:href="#cc436-a"/>
      </mask>
      <polygon fill="#475059" points="26.301 95 57.995 95 57.995 93 26.301 93" mask="url(#cc436-b)"/>
      <path fill="#475059" d="M2,68.698 L-0.000242369257,68.698 C-0.054,56.069 8.921,45.203 21.333,42.87 C23.946,16.838 47.167,-2.147 73.199,0.465 C83.076,1.457 92.392,5.526 99.831,12.097 L98.506,13.595 C79.725,-2.994 51.053,-1.218 34.464,17.563 C28.002,24.877 24.072,34.08 23.256,43.805 L23.191,44.585 L22.418,44.709 C10.622,46.568 1.949,56.758 2,68.698" mask="url(#cc436-b)"/>
    </g>
    <path fill="#475059" d="M167.729 75.377L165.875 74.628C170.882 62.187 166.832 47.934 156.031 39.985L157.216 38.375C168.753 46.865 173.079 62.089 167.729 75.377M138.639 95L106.003 95.0000063 106.003 93 138.639 93C141.599 93.002 144.543 92.557 147.37 91.679L147.964 93.589C144.944 94.527 141.8 95.002 138.639 95"/>
    <path fill="#FFD15D" d="M33.486,33.525 C34.59,33.525 35.486,34.42 35.486,35.525 C35.486,36.629 34.59,37.525 33.486,37.525 C32.381,37.525 31.486,36.629 31.486,35.525 C31.486,34.42 32.381,33.525 33.486,33.525"/>
    <path fill="#FFD15D" d="M33.486,34.024 C32.657,34.024 31.986,34.696 31.986,35.524 C31.986,36.353 32.657,37.024 33.486,37.024 C34.314,37.024 34.986,36.353 34.986,35.524 C34.985,34.696 34.314,34.025 33.486,34.024 Z M33.486,38.024 C32.105,38.024 30.986,36.905 30.986,35.524 C30.986,34.144 32.105,33.024 33.486,33.024 C34.867,33.024 35.986,34.144 35.986,35.524 C35.984,36.904 34.866,38.023 33.486,38.024 Z"/>
    <path fill="#5FE0ED" d="M188.567,119.147 C189.913,119.147 191.004,120.238 191.004,121.585 C191.004,122.931 189.913,124.022 188.567,124.022 C187.22,124.022 186.129,122.931 186.129,121.585 C186.129,120.238 187.22,119.147 188.567,119.147"/>
    <polyline fill="#FFF" points="168.739 79.237 140.739 67.237 152.966 96.847 157.799 87.126 165.91 95.237 168.739 92.409 160.506 84.177 168.739 79.237"/>
    <path fill="#48515A" d="M142.599 69.123L153.05 94.432 157.523 85.436 165.91 93.823 167.325 92.409 158.894 83.978 166.547 79.386 142.599 69.123zM152.881 99.263L138.878 65.352 170.93 79.088 162.119 84.376 170.153 92.409 165.91 96.651 158.076 88.817 152.881 99.263zM88.001 56.992C87.449 56.993 87.002 57.44 87.001 57.992L87.001 61.993C87.001 62.546 87.449 62.993 88.001 62.993 88.553 62.993 89.001 62.546 89.001 61.993L89.001 57.992C89 57.44 88.553 56.993 88.001 56.992zM88.001 64.993C86.345 64.991 85.003 63.649 85.001 61.993L85.001 57.992C85.001 56.335 86.344 54.992 88.001 54.992 89.658 54.992 91.001 56.335 91.001 57.992L91.001 61.993C90.999 63.649 89.657 64.991 88.001 64.993z"/>
    <polyline fill="#48515A" points="95 51.992 93 51.992 93 44.991 92 44.991 92 42.991 95 42.991 95 51.992"/>
    <polygon fill="#48515A" points="92 52.992 96 52.992 96 50.992 92 50.992"/>
    <polyline fill="#48515A" points="103 62.994 101 62.994 101 55.992 100 55.992 100 53.992 103 53.992 103 62.994"/>
    <polygon fill="#48515A" points="100 63.994 104 63.994 104 61.994 100 61.994"/>
    <path fill="#48515A" d="M84,40.992 C83.448,40.993 83.001,41.44 83,41.992 L83,45.993 C83,46.546 83.448,46.993 84,46.993 C84.552,46.993 85,46.546 85,45.993 L85,41.992 C84.999,41.44 84.552,40.993 84,40.992 Z M84,48.993 C82.344,48.991 81.002,47.649 81,45.993 L81,41.992 C81,40.335 82.343,38.992 84,38.992 C85.657,38.992 87,40.335 87,41.992 L87,45.993 C86.998,47.649 85.656,48.991 84,48.993 Z"/>
    <polyline fill="#48515A" points="103 39.991 101 39.991 101 32.989 100 32.989 100 30.989 103 30.989 103 39.991"/>
    <polygon fill="#48515A" points="100 40.991 104 40.991 104 38.991 100 38.991"/>
    <path fill="#48515A" d="M92 28.991C91.448 28.992 91.001 29.439 91 29.991L91 33.992C91 34.545 91.448 34.992 92 34.992 92.552 34.992 93 34.545 93 33.992L93 29.991C92.999 29.439 92.552 28.992 92 28.991zM92 36.992C90.344 36.99 89.002 35.648 89 33.992L89 29.991C89 28.334 90.343 26.991 92 26.991 93.657 26.991 95 28.334 95 29.991L95 33.992C94.998 35.648 93.656 36.99 92 36.992zM108 44.991C107.448 44.992 107.001 45.439 107 45.991L107 49.992C107 50.545 107.448 50.992 108 50.992 108.552 50.992 109 50.545 109 49.992L109 45.991C108.999 45.439 108.552 44.992 108 44.991zM108 52.992C106.344 52.99 105.002 51.648 105 49.992L105 45.991C105 44.334 106.343 42.991 108 42.991 109.657 42.991 111 44.334 111 45.991L111 49.992C110.998 51.648 109.656 52.99 108 52.992zM100.005 16.984C99.453 16.985 99.006 17.432 99.005 17.984L99.005 21.985C99.005 22.537 99.453 22.985 100.005 22.985 100.557 22.985 101.005 22.537 101.005 21.985L101.005 17.984C101.004 17.432 100.557 16.985 100.005 16.984zM100.005 24.985C98.349 24.983 97.007 23.641 97.005 21.985L97.005 17.984C97.005 16.327 98.348 14.984 100.005 14.984 101.662 14.984 103.005 16.327 103.005 17.984L103.005 21.985C103.003 23.641 101.661 24.983 100.005 24.985z"/>
    <polyline fill="#48515A" points="83.989 27.984 81.989 27.984 81.989 20.982 80.989 20.982 80.989 18.982 83.989 18.982 83.989 27.984"/>
    <polygon fill="#48515A" points="80.989 28.984 84.989 28.984 84.989 26.984 80.989 26.984"/>
    <polyline fill="#48515A" points="77.985 60.003 75.985 60.003 75.985 53.002 74.985 53.002 74.985 51.002 77.985 51.002 77.985 60.003"/>
    <polygon fill="#48515A" points="74.985 61.003 78.985 61.003 78.985 59.003 74.985 59.003"/>
    <polyline fill="#48515A" points="111.005 33.987 109.005 33.987 109.005 26.986 108.005 26.986 108.005 24.986 111.005 24.986 111.005 33.987"/>
    <polygon fill="#48515A" points="108.005 34.987 112.005 34.987 112.005 32.987 108.005 32.987"/>
    <polyline fill="#48515A" points="118.009 57.991 116.009 57.991 116.009 50.989 115.009 50.989 115.009 48.989 118.009 48.989 118.009 57.991"/>
    <polygon fill="#48515A" points="115.009 58.991 119.009 58.991 119.009 56.991 115.009 56.991"/>
    <polygon fill="#475059" points="95.014 92.978 97.014 92.978 97.014 90.978 95.014 90.978"/>
    <polygon fill="#475059" points="95.014 88.978 97.014 88.978 97.014 86.978 95.014 86.978"/>
    <polygon fill="#475059" points="95.014 84.971 97.014 84.971 97.014 82.971 95.014 82.971"/>
    <polygon fill="#475059" points="95.014 80.971 97.014 80.971 97.014 78.971 95.014 78.971"/>
    <polygon fill="#475059" points="95.014 76.971 97.014 76.971 97.014 74.971 95.014 74.971"/>
    <polygon fill="#475059" points="95.014 101 97.014 101 97.014 98.999 95.014 98.999"/>
    <polygon fill="#475059" points="95.014 96.992 97.014 96.992 97.014 94.992 95.014 94.992"/>
    <polygon fill="#475059" points="95.014 72.966 97.014 72.966 97.014 70.966 95.014 70.966"/>
    <polygon fill="#475059" points="95.014 68.966 97.014 68.966 97.014 66.966 95.014 66.966"/>
    <polygon fill="#475059" points="89.01 92.978 91.01 92.978 91.01 90.978 89.01 90.978"/>
    <polygon fill="#475059" points="89.01 88.978 91.01 88.978 91.01 86.978 89.01 86.978"/>
    <polygon fill="#475059" points="89.01 84.971 91.01 84.971 91.01 82.971 89.01 82.971"/>
    <polygon fill="#475059" points="89.01 80.971 91.01 80.971 91.01 78.971 89.01 78.971"/>
    <polygon fill="#475059" points="89.01 76.971 91.01 76.971 91.01 74.971 89.01 74.971"/>
    <polygon fill="#475059" points="89.01 101 91.01 101 91.01 98.999 89.01 98.999"/>
    <polygon fill="#475059" points="89.01 96.992 91.01 96.992 91.01 94.992 89.01 94.992"/>
    <polygon fill="#475059" points="89.01 72.966 91.01 72.966 91.01 70.966 89.01 70.966"/>
    <polygon fill="#475059" points="101.018 92.978 103.018 92.978 103.018 90.978 101.018 90.978"/>
    <polygon fill="#475059" points="101.018 88.978 103.018 88.978 103.018 86.978 101.018 86.978"/>
    <polygon fill="#475059" points="101.018 84.971 103.018 84.971 103.018 82.971 101.018 82.971"/>
    <polygon fill="#475059" points="101.018 80.971 103.018 80.971 103.018 78.971 101.018 78.971"/>
    <polygon fill="#475059" points="101.018 76.971 103.018 76.971 103.018 74.971 101.018 74.971"/>
    <polygon fill="#475059" points="101.018 101 103.018 101 103.018 98.999 101.018 98.999"/>
    <polygon fill="#475059" points="101.018 96.992 103.018 96.992 103.018 94.992 101.018 94.992"/>
    <polygon fill="#475059" points="101.018 72.966 103.018 72.966 103.018 70.966 101.018 70.966"/>
    <polygon fill="#475059" points="105.02 72.968 107.02 72.968 107.02 70.968 105.02 70.968"/>
    <polygon fill="#475059" points="109.022 72.968 111.022 72.968 111.022 70.968 109.022 70.968"/>
    <polygon fill="#475059" points="113.024 72.968 115.024 72.968 115.024 70.968 113.024 70.968"/>
    <polygon fill="#475059" points="77.003 72.968 79.003 72.968 79.003 70.968 77.003 70.968"/>
    <polygon fill="#475059" points="81.005 72.968 83.005 72.968 83.005 70.968 81.005 70.968"/>
    <polygon fill="#475059" points="85.008 72.968 87.008 72.968 87.008 70.968 85.008 70.968"/>
    <path fill="#475059" d="M34.029,100.058 L37.607,100.058 L39.381,96.034 L42.676,94.132 L47.048,94.607 L48.837,91.508 L46.239,87.961 L46.239,84.155 L48.837,80.607 L47.048,77.508 L42.676,77.983 L39.381,76.081 L37.607,72.058 L34.029,72.058 L32.255,76.081 L28.959,77.983 L24.588,77.508 L22.799,80.607 L25.396,84.155 L25.396,87.96 L22.799,91.508 L24.588,94.607 L28.959,94.132 L32.255,96.034 L34.029,100.058 Z M38.911,102.058 L32.725,102.058 L30.688,97.44 L28.526,96.191 L23.508,96.736 L20.415,91.379 L23.396,87.306 L23.396,84.809 L20.415,80.736 L23.508,75.379 L28.526,75.925 L30.688,74.676 L32.725,70.058 L38.911,70.058 L40.947,74.676 L43.11,75.925 L48.128,75.379 L51.221,80.736 L48.239,84.809 L48.239,87.306 L51.221,91.379 L48.128,96.736 L43.11,96.19 L40.947,97.439 L38.911,102.058 Z"/>
    <path fill="#475059" d="M35.818,84.058 C34.713,84.058 33.818,84.953 33.818,86.058 C33.818,87.162 34.713,88.058 35.818,88.058 C36.922,88.058 37.818,87.162 37.818,86.058 C37.817,84.954 36.922,84.059 35.818,84.058 Z M35.818,90.058 C33.609,90.058 31.818,88.267 31.818,86.058 C31.818,83.849 33.609,82.058 35.818,82.058 C38.027,82.058 39.818,83.849 39.818,86.058 C39.815,88.266 38.026,90.055 35.818,90.058 Z"/>
    <path fill="#475059" d="M35.818,80.058 C32.504,80.058 29.818,82.744 29.818,86.058 C29.818,89.371 32.504,92.058 35.818,92.058 C39.132,92.058 41.818,89.371 41.818,86.058 C41.814,82.745 39.13,80.061 35.818,80.058 Z M35.818,94.058 C31.4,94.058 27.818,90.476 27.818,86.058 C27.818,81.639 31.4,78.058 35.818,78.058 C40.236,78.058 43.818,81.639 43.818,86.058 C43.813,90.474 40.234,94.053 35.818,94.058 Z"/>
    <path fill="#5FE0ED" d="M159.08,12.959 C161.289,12.959 163.08,14.75 163.08,16.959 C163.08,19.168 161.289,20.959 159.08,20.959 C156.871,20.959 155.08,19.168 155.08,16.959 C155.08,14.75 156.871,12.959 159.08,12.959"/>
    <polygon fill="#48515A" points="6 102.005 8 102.005 8 98.005 6 98.005"/>
    <polygon fill="#48515A" points="6 112.005 8 112.005 8 108.005 6 108.005"/>
    <polygon fill="#48515A" points="10 106.005 14 106.005 14 104.005 10 104.005"/>
    <polygon fill="#48515A" points="0 106.005 4 106.005 4 104.005 0 104.005"/>
    <polygon fill="#48515A" points="184 68.005 186 68.005 186 64.005 184 64.005"/>
    <polygon fill="#48515A" points="184 78.005 186 78.005 186 74.005 184 74.005"/>
    <polygon fill="#48515A" points="188 72.005 192 72.005 192 70.005 188 70.005"/>
    <polygon fill="#48515A" points="178 72.005 182 72.005 182 70.005 178 70.005"/>
    <polygon fill="#48515A" points="166 135.987 168 135.987 168 131.987 166 131.987"/>
    <polygon fill="#48515A" points="166 145.987 168 145.987 168 141.987 166 141.987"/>
    <polygon fill="#48515A" points="170 139.987 174 139.987 174 137.987 170 137.987"/>
    <polygon fill="#48515A" points="160 139.987 164 139.987 164 137.987 160 137.987"/>
    <path fill="#475059" d="M58.006,105 C56.35,105.001 55.008,106.343 55.006,108 L55.006,122 C55.008,123.656 56.35,124.998 58.006,125 L133.994,125 C135.65,124.998 136.992,123.656 136.994,122 L136.994,108 C136.992,106.343 135.65,105.001 133.994,105 L58.006,105 Z M133.994,127 L58.006,127 C55.246,126.996 53.009,124.76 53.006,122 L53.006,108 C53.009,105.239 55.246,103.003 58.006,103 L133.994,103 C136.754,103.003 138.991,105.239 138.994,108 L138.994,122 C138.991,124.76 136.754,126.996 133.994,127 Z"/>
    <path fill="#DEDEDD" d="M58.006,106.999 C57.454,107 57.007,107.447 57.006,107.999 L57.006,121.999 C57.007,122.551 57.454,122.999 58.006,122.999 L133.994,122.999 C134.546,122.999 134.993,122.551 134.994,121.999 L134.994,107.999 C134.993,107.447 134.546,107 133.994,106.999 L58.006,106.999"/>
    <path fill="#475059" d="M128.994 113C127.89 113 126.994 113.895 126.994 115 126.994 116.104 127.89 117 128.994 117 130.099 117 130.994 116.104 130.994 115 130.993 113.895 130.098 113.001 128.994 113zM128.994 119C126.785 119 124.994 117.209 124.994 115 124.994 112.79 126.785 111 128.994 111 131.203 111 132.994 112.79 132.994 115 132.992 117.208 131.202 118.997 128.994 119zM118.994 113C117.89 113 116.994 113.895 116.994 115 116.994 116.104 117.89 117 118.994 117 120.099 117 120.994 116.104 120.994 115 120.993 113.895 120.098 113.001 118.994 113zM118.994 119C116.785 119 114.994 117.209 114.994 115 114.994 112.79 116.785 111 118.994 111 121.203 111 122.994 112.79 122.994 115 122.992 117.208 121.202 118.997 118.994 119zM108.994 113C107.89 113 106.994 113.895 106.994 115 106.994 116.104 107.89 117 108.994 117 110.099 117 110.994 116.104 110.994 115 110.993 113.895 110.098 113.001 108.994 113zM108.994 119C106.785 119 104.994 117.209 104.994 115 104.994 112.79 106.785 111 108.994 111 111.203 111 112.994 112.79 112.994 115 112.992 117.208 111.202 118.997 108.994 119zM58.006 131C56.35 131.001 55.008 132.343 55.006 134L55.006 148C55.008 149.656 56.35 150.998 58.006 151L133.994 151C135.65 150.998 136.992 149.656 136.994 148L136.994 134C136.992 132.343 135.65 131.001 133.994 131L58.006 131zM133.994 153L58.006 153C55.246 152.996 53.009 150.76 53.006 148L53.006 134C53.009 131.239 55.246 129.003 58.006 129L133.994 129C136.754 129.003 138.991 131.239 138.994 134L138.994 148C138.991 150.76 136.754 152.996 133.994 153z"/>
    <path fill="#DEDEDD" d="M58.006,132.999 C57.454,133 57.007,133.447 57.006,133.999 L57.006,147.999 C57.007,148.551 57.454,148.999 58.006,148.999 L133.994,148.999 C134.546,148.999 134.993,148.551 134.994,147.999 L134.994,133.999 C134.993,133.447 134.546,133 133.994,132.999 L58.006,132.999"/>
    <path fill="#475059" d="M128.994 139C127.89 139 126.994 139.895 126.994 141 126.994 142.104 127.89 143 128.994 143 130.099 143 130.994 142.104 130.994 141 130.993 139.895 130.098 139.001 128.994 139zM128.994 145C126.785 145 124.994 143.209 124.994 141 124.994 138.79 126.785 137 128.994 137 131.203 137 132.994 138.79 132.994 141 132.992 143.208 131.202 144.997 128.994 145zM118.994 139C117.89 139 116.994 139.895 116.994 141 116.994 142.104 117.89 143 118.994 143 120.099 143 120.994 142.104 120.994 141 120.993 139.895 120.098 139.001 118.994 139zM118.994 145C116.785 145 114.994 143.209 114.994 141 114.994 138.79 116.785 137 118.994 137 121.203 137 122.994 138.79 122.994 141 122.992 143.208 121.202 144.997 118.994 145z"/>
    <g transform="translate(53 137)">
      <mask id="cc436-d" fill="#fff">
        <use xlink:href="#cc436-c"/>
      </mask>
      <path fill="#475059" d="M55.994 2C54.89 2 53.994 2.895 53.994 4 53.994 5.104 54.89 6 55.994 6 57.099 6 57.994 5.104 57.994 4 57.993 2.895 57.098 2.001 55.994 2zM55.994 8C53.785 8 51.994 6.209 51.994 4 51.994 1.79 53.785 0 55.994 0 58.203 0 59.994 1.79 59.994 4 59.992 6.208 58.202 7.997 55.994 8zM5.006 20C3.35 20.001 2.008 21.343 2.006 23L2.006 37C2.008 38.656 3.35 39.998 5.006 40L80.994 40C82.65 39.998 83.992 38.656 83.994 37L83.994 23C83.992 21.343 82.65 20.001 80.994 20L5.006 20zM80.994 42L5.006 42C2.246 41.996.009 39.76.006 37L.006 23C.009 20.239 2.246 18.003 5.006 18L80.994 18C83.754 18.003 85.991 20.239 85.994 23L85.994 37C85.991 39.76 83.754 41.996 80.994 42z" mask="url(#cc436-d)"/>
    </g>
    <path fill="#DEDEDD" d="M58.006,158.999 C57.454,159 57.007,159.447 57.006,159.999 L57.006,173.999 C57.007,174.551 57.454,174.999 58.006,174.999 L133.994,174.999 C134.546,174.999 134.993,174.551 134.994,173.999 L134.994,159.999 C134.993,159.447 134.546,159 133.994,158.999 L58.006,158.999"/>
    <path fill="#475059" d="M128.994 165C127.89 165 126.994 165.895 126.994 167 126.994 168.104 127.89 169 128.994 169 130.099 169 130.994 168.104 130.994 167 130.993 165.895 130.098 165.001 128.994 165zM128.994 171C126.785 171 124.994 169.209 124.994 167 124.994 164.79 126.785 163 128.994 163 131.203 163 132.994 164.79 132.994 167 132.992 169.208 131.202 170.997 128.994 171zM118.994 165C117.89 165 116.994 165.895 116.994 167 116.994 168.104 117.89 169 118.994 169 120.099 169 120.994 168.104 120.994 167 120.993 165.895 120.098 165.001 118.994 165zM118.994 171C116.785 171 114.994 169.209 114.994 167 114.994 164.79 116.785 163 118.994 163 121.203 163 122.994 164.79 122.994 167 122.992 169.208 121.202 170.997 118.994 171zM108.994 165C107.89 165 106.994 165.895 106.994 167 106.994 168.104 107.89 169 108.994 169 110.099 169 110.994 168.104 110.994 167 110.993 165.895 110.098 165.001 108.994 165zM108.994 171C106.785 171 104.994 169.209 104.994 167 104.994 164.79 106.785 163 108.994 163 111.203 163 112.994 164.79 112.994 167 112.992 169.208 111.202 170.997 108.994 171zM143.02 44.948C140.286 42.214 140.287 37.782 143.02 35.048 144.308 33.76 146.047 33.025 147.867 32.999L151.026 32.998 148.869 37.436 147.07 36.562 147.829 35C145.068 35.078 142.894 37.379 142.972 40.139 143.008 41.416 143.531 42.631 144.434 43.534L143.02 44.948M146.345 46.998L144.598 46.998 147.107 42.724 148.832 43.737 148.092 44.998C149.348 45.058 150.577 44.614 151.505 43.765 153.455 41.82 153.458 38.662 151.513 36.713 151.511 36.71 151.508 36.708 151.506 36.706L152.919 35.291C155.65 38.016 155.654 42.439 152.928 45.17 152.925 45.173 152.922 45.176 152.918 45.18 151.615 46.417 149.866 47.073 148.071 46.998L146.345 46.998"/>
    <polyline fill="#475059" points="138.959 46.998 125.959 46.998 125.959 14.998 143.373 14.998 151.959 23.584 151.959 28.998 149.959 28.998 149.959 24.412 142.545 16.998 127.959 16.998 127.959 44.998 138.959 44.998 138.959 46.998"/>
    <polyline fill="#475059" points="150.959 24.998 141.959 24.998 141.959 15.998 143.959 15.998 143.959 22.998 150.959 22.998 150.959 24.998"/>
  </g>
</svg>
