<svg xmlns="http://www.w3.org/2000/svg" width="192" height="164" viewBox="0 0 192 164">
  <g fill="none" fill-rule="evenodd">
    <path fill="#DFE0E0" d="M187.59,19.944 L187.59,8.883 C187.59,8.331 187.142,7.883 186.59,7.883 L110.59,7.883 C110.038,7.883 109.59,8.331 109.59,8.883 L109.59,17.984 L109.544,17.984 L109.544,27.926 L111.544,27.926 L111.544,19.944 L185.589,19.944 L185.589,145.756 L111.544,145.756 L111.544,118.954 L109.544,118.954 L109.544,153.653 L109.59,153.653 L109.59,159 C109.59,159.552 110.038,159.999 110.59,160 L186.59,160 C187.142,159.999 187.59,159.552 187.59,159 L187.59,145.756 L187.589,145.756 L187.589,19.944 L187.59,19.944"/>
    <path fill="#FFD15D" d="M77.992 24.144C55.488 24.254 36.765 41.471 34.771 63.886L34.576 66.227 32.257 66.6C20.099 68.569 11.839 80.022 13.809 92.18 15.559 102.979 24.883 110.915 35.823 110.915L120.161 110.915C135.27 110.917 147.521 98.67 147.522 83.56 147.524 69.139 136.331 57.193 121.94 56.256L119.905 56.126 119.278 54.185C113.522 36.252 96.826 24.103 77.992 24.144M15.008 53.44C16.112 53.44 17.008 54.335 17.008 55.44 17.008 56.545 16.112 57.44 15.008 57.44 13.903 57.44 13.008 56.545 13.008 55.44 13.008 54.335 13.903 53.44 15.008 53.44"/>
    <path fill="#FFD15D" d="M15.008,53.94 C14.179,53.94 13.508,54.612 13.508,55.44 C13.508,56.269 14.179,56.94 15.008,56.94 C15.836,56.94 16.508,56.269 16.508,55.44 C16.507,54.612 15.836,53.941 15.008,53.94 Z M15.008,57.94 C13.627,57.94 12.508,56.821 12.508,55.44 C12.508,54.06 13.627,52.94 15.008,52.94 C16.388,52.94 17.508,54.06 17.508,55.44 C17.506,56.82 16.388,57.939 15.008,57.94 Z"/>
    <path fill="#475059" d="M11.522 88.614L9.52176648 88.614C9.469 75.984 18.443 65.119 30.855 62.785 33.473 36.748 56.703 17.764 82.739 20.382 101.22 22.24 116.91 34.725 122.873 52.315 130.274 52.952 137.207 56.201 142.433 61.48L141.013 62.888C135.967 57.79 129.226 54.721 122.068 54.261L121.39 54.217 121.181 53.57C113.474 29.721 87.892 16.635 64.043 24.343 46.638 29.968 34.311 45.493 32.777 63.721L32.713 64.501 31.939 64.625C20.144 66.484 11.472 76.673 11.522 88.614M120.161 114.915L104.592 114.915 104.592 112.915 122.108 112.915C126.951 112.593 131.64 111.08 135.758 108.51L136.818 110.205C132.4 112.96 127.369 114.578 122.173 114.913L120.161 114.915"/>
    <polygon fill="#475059" points="34.561 114.915 74.591 114.915 74.591 112.915 34.561 112.915"/>
    <path fill="#475059" d="M15.551,120.94 L19.129,120.94 L20.903,116.917 L24.199,115.014 L28.57,115.49 L30.358,112.39 L27.761,108.843 L27.761,105.037 L30.358,101.49 L28.57,98.39 L24.199,98.866 L20.903,96.964 L19.129,92.94 L15.551,92.94 L13.777,96.964 L10.481,98.866 L6.11,98.39 L4.322,101.49 L6.919,105.037 L6.919,108.843 L4.322,112.39 L6.11,115.49 L10.481,115.014 L13.777,116.917 L15.551,120.94 Z M20.433,122.94 L14.247,122.94 L12.211,118.322 L10.048,117.073 L5.03,117.618 L1.937,112.262 L4.919,108.189 L4.919,105.691 L1.937,101.618 L5.03,96.262 L10.048,96.807 L12.211,95.558 L14.247,90.94 L20.433,90.94 L22.469,95.558 L24.632,96.807 L29.65,96.262 L32.743,101.618 L29.761,105.691 L29.761,108.189 L32.743,112.261 L29.65,117.618 L24.633,117.073 L22.469,118.322 L20.433,122.94 Z"/>
    <path fill="#475059" d="M17.34,104.94 C16.235,104.94 15.34,105.836 15.34,106.94 C15.34,108.045 16.235,108.94 17.34,108.94 C18.444,108.94 19.34,108.045 19.34,106.94 C19.338,105.836 18.444,104.941 17.34,104.94 Z M17.34,110.94 C15.13,110.94 13.34,109.149 13.34,106.94 C13.34,104.731 15.13,102.94 17.34,102.94 C19.549,102.94 21.34,104.731 21.34,106.94 C21.337,109.148 19.548,110.938 17.34,110.94 Z"/>
    <path fill="#475059" d="M17.34,100.94 C14.026,100.94 11.34,103.626 11.34,106.94 C11.34,110.254 14.026,112.94 17.34,112.94 C20.653,112.94 23.34,110.254 23.34,106.94 C23.336,103.628 20.652,100.944 17.34,100.94 Z M17.34,114.94 C12.921,114.94 9.34,111.358 9.34,106.94 C9.34,102.522 12.921,98.94 17.34,98.94 C21.758,98.94 25.34,102.522 25.34,106.94 C25.334,111.356 21.756,114.935 17.34,114.94 Z"/>
    <path fill="#5FE0ED" d="M87.027,0.895 C89.237,0.895 91.027,2.686 91.027,4.895 C91.027,7.104 89.237,8.895 87.027,8.895 C84.818,8.895 83.027,7.104 83.027,4.895 C83.027,2.686 84.818,0.895 87.027,0.895"/>
    <polygon fill="#48515A" points="171.983 55.941 173.983 55.941 173.983 51.941 171.983 51.941"/>
    <polygon fill="#48515A" points="171.983 65.941 173.983 65.941 173.983 61.941 171.983 61.941"/>
    <polygon fill="#48515A" points="175.983 59.941 179.983 59.941 179.983 57.941 175.983 57.941"/>
    <polygon fill="#48515A" points="165.983 59.941 169.983 59.941 169.983 57.941 165.983 57.941"/>
    <polygon fill="#48515A" points="63.929 143.935 65.929 143.935 65.929 139.935 63.929 139.935"/>
    <polygon fill="#48515A" points="63.929 153.935 65.929 153.935 65.929 149.935 63.929 149.935"/>
    <polygon fill="#48515A" points="67.929 147.935 71.929 147.935 71.929 145.935 67.929 145.935"/>
    <polygon fill="#48515A" points="57.929 147.935 61.929 147.935 61.929 145.935 57.929 145.935"/>
    <path fill="#475059" d="M186.59,164 L110.59,164 C107.829,163.997 105.593,161.76 105.59,159 L105.59,118.953 L107.59,118.953 L107.59,159 C107.591,160.656 108.933,161.998 110.59,162 L186.59,162 C188.246,161.998 189.588,160.656 189.59,159 L189.59,8.883 C189.588,7.227 188.246,5.884 186.59,5.883 L110.59,5.883 C108.933,5.884 107.591,7.227 107.59,8.883 L107.59,27.926 L105.59,27.926 L105.59,8.883 C105.593,6.123 107.829,3.886 110.59,3.883 L186.59,3.883 C189.35,3.886 191.586,6.123 191.59,8.883 L191.59,159 C191.586,161.76 189.35,163.997 186.59,164"/>
    <polygon fill="#475059" points="142.59 15.942 154.59 15.942 154.59 13.942 142.59 13.942"/>
    <path fill="#475059" d="M146.59,149.94 C146.038,149.941 145.59,150.388 145.59,150.94 L145.59,154.94 C145.59,155.492 146.038,155.94 146.59,155.94 L150.59,155.94 C151.142,155.94 151.589,155.492 151.59,154.94 L151.59,150.94 C151.589,150.388 151.142,149.941 150.59,149.94 L146.59,149.94 Z M150.59,157.94 L146.59,157.94 C144.933,157.938 143.591,156.596 143.59,154.94 L143.59,150.94 C143.591,149.284 144.933,147.942 146.59,147.94 L150.59,147.94 C152.246,147.942 153.588,149.284 153.59,150.94 L153.59,154.94 C153.588,156.596 152.246,157.938 150.59,157.94 Z"/>
    <polygon fill="#475059" points="146.593 11.939 150.588 11.939 150.588 9.939 146.593 9.939"/>
    <path fill="#475059" d="M186.59,164 L110.59,164 C107.829,163.997 105.593,161.76 105.59,159 L105.59,118.953 L107.59,118.953 L107.59,159 C107.591,160.656 108.933,161.998 110.59,162 L186.59,162 C188.246,161.998 189.588,160.656 189.59,159 L189.59,8.883 C189.588,7.227 188.246,5.884 186.59,5.883 L110.59,5.883 C108.933,5.884 107.591,7.227 107.59,8.883 L107.59,27.926 L105.59,27.926 L105.59,8.883 C105.593,6.123 107.829,3.886 110.59,3.883 L186.59,3.883 C189.35,3.886 191.586,6.123 191.59,8.883 L191.59,159 C191.586,161.76 189.35,163.997 186.59,164"/>
    <polygon fill="#475059" points="142.59 15.942 154.59 15.942 154.59 13.942 142.59 13.942"/>
    <path fill="#475059" d="M169.57 87.709L167.572 87.61C167.853 81.873 165.7 76.283 161.641 72.217 153.701 64.277 140.827 64.276 132.887 72.217L131.472 70.803C140.195 62.082 154.336 62.082 163.057 70.805 167.519 75.267 169.884 81.407 169.57 87.709M147.264 108.929C135.221 108.928 125.346 99.379 124.943 87.342L126.941 87.275C127.317 98.499 136.721 107.293 147.945 106.917 153.099 106.744 157.995 104.62 161.642 100.973L163.056 102.387C158.877 106.589 153.191 108.944 147.264 108.929"/>
    <polyline fill="#475059" points="168.589 90.342 163.882 85.635 165.296 84.221 168.589 87.514 171.882 84.221 173.296 85.635 168.589 90.342"/>
    <polyline fill="#475059" points="129.298 91.637 126.005 88.344 122.712 91.637 121.298 90.223 126.005 85.516 130.712 90.223 129.298 91.637"/>
    <path fill="#475059" d="M78.591,128.941 L100.591,128.941 L100.591,108.355 L93.176,100.941 L78.591,100.941 L78.591,128.941 Z M102.591,130.941 L76.591,130.941 L76.591,98.941 L94.005,98.941 L102.591,107.527 L102.591,130.941 Z"/>
    <polyline fill="#475059" points="101.591 108.941 92.591 108.941 92.591 99.941 94.591 99.941 94.591 106.941 101.591 106.941 101.591 108.941"/>
    <path fill="#DFE0E0" d="M2,85.459 C3.105,85.459 4,86.355 4,87.459 C4,88.564 3.105,89.459 2,89.459 C0.895,89.459 0,88.564 0,87.459 C0,86.355 0.895,85.459 2,85.459"/>
  </g>
</svg>
