<svg xmlns="http://www.w3.org/2000/svg" width="193" height="183" viewBox="0 0 193 183">
  <g fill="none" fill-rule="evenodd">
    <path fill="#475059" d="M49,139 L143,139 L143,45 L49,45 L49,139 Z M47,141 L145,141 L145,43 L47,43 L47,141 Z"/>
    <path fill="#DEDEDD" d="M90,64 L98,64 L98,56 L90,56 L90,64 Z M58,64 L86,64 L86,56 L58,56 L58,64 Z M51,137 L141,137 L141,47 L51,47 L51,137 Z"/>
    <polygon fill="#475059" points="102 59.001 134.002 59.001 134.002 57.001 102 57.001"/>
    <polygon fill="#475059" points="102 63.003 134.002 63.003 134.002 61.003 102 61.003"/>
    <polygon fill="#FFD15D" points="52.999 148.999 58.999 148.999 58.999 142.999 52.999 142.999"/>
    <polygon fill="#FFD15D" points="60.999 148.999 66.999 148.999 66.999 142.999 60.999 142.999"/>
    <polygon fill="#FFD15D" points="68.999 148.999 74.999 148.999 74.999 142.999 68.999 142.999"/>
    <polygon fill="#FFD15D" points="76.999 148.999 82.999 148.999 82.999 142.999 76.999 142.999"/>
    <polygon fill="#FFD15D" points="84.999 148.999 90.999 148.999 90.999 142.999 84.999 142.999"/>
    <polygon fill="#FFD15D" points="92.999 148.999 98.999 148.999 98.999 142.999 92.999 142.999"/>
    <polygon fill="#FFD15D" points="100.999 148.999 106.999 148.999 106.999 142.999 100.999 142.999"/>
    <polygon fill="#FFD15D" points="108.999 148.999 114.999 148.999 114.999 142.999 108.999 142.999"/>
    <polygon fill="#FFD15D" points="116.999 148.999 122.999 148.999 122.999 142.999 116.999 142.999"/>
    <polygon fill="#FFD15D" points="124.999 148.999 130.999 148.999 130.999 142.999 124.999 142.999"/>
    <polygon fill="#FFD15D" points="132.999 148.999 138.999 148.999 138.999 142.999 132.999 142.999"/>
    <polyline fill="#FFD15D" points="53 183 51 183 51 160.585 55 156.585 55 147 57 147 57 157.414 53 161.414 53 183"/>
    <polyline fill="#FFD15D" points="61 183 59 183 59 162.585 63 158.585 63 147 65 147 65 159.414 61 163.414 61 183"/>
    <polyline fill="#FFD15D" points="69 183 67 183 67 164.585 71 160.585 71 147 73 147 73 161.414 69 165.414 69 183"/>
    <polyline fill="#FFD15D" points="77 183 75 183 75 166.585 79 162.585 79 147 81 147 81 163.414 77 167.414 77 183"/>
    <polyline fill="#FFD15D" points="85 183 83 183 83 168.585 87 164.585 87 147 89 147 89 165.414 85 169.414 85 183"/>
    <polygon fill="#FFD15D" points="95 183 97 183 97 147 95 147"/>
    <polyline fill="#FFD15D" points="141 183 139 183 139 161.414 135 157.414 135 147 137 147 137 156.585 141 160.585 141 183"/>
    <polyline fill="#FFD15D" points="133 183 131 183 131 163.414 127 159.414 127 147 129 147 129 158.585 133 162.585 133 183"/>
    <polyline fill="#FFD15D" points="125 183 123 183 123 165.414 119 161.414 119 147 121 147 121 160.585 125 164.585 125 183"/>
    <polyline fill="#FFD15D" points="117 183 115 183 115 167.414 111 163.414 111 147 113 147 113 162.585 117 166.585 117 183"/>
    <polyline fill="#FFD15D" points="109 183 107 183 107 169.414 103 165.414 103 147 105 147 105 164.585 109 168.585 109 183"/>
    <polygon fill="#FFD15D" points="52.999 40.914 58.999 40.914 58.999 34.914 52.999 34.914"/>
    <polygon fill="#FFD15D" points="60.999 40.914 66.999 40.914 66.999 34.914 60.999 34.914"/>
    <polygon fill="#FFD15D" points="68.999 40.914 74.999 40.914 74.999 34.914 68.999 34.914"/>
    <polygon fill="#FFD15D" points="76.999 40.914 82.999 40.914 82.999 34.914 76.999 34.914"/>
    <polygon fill="#FFD15D" points="84.999 40.914 90.999 40.914 90.999 34.914 84.999 34.914"/>
    <polygon fill="#FFD15D" points="92.999 40.914 98.999 40.914 98.999 34.914 92.999 34.914"/>
    <polygon fill="#FFD15D" points="100.999 40.914 106.999 40.914 106.999 34.914 100.999 34.914"/>
    <polygon fill="#FFD15D" points="108.999 40.914 114.999 40.914 114.999 34.914 108.999 34.914"/>
    <polygon fill="#FFD15D" points="116.999 40.914 122.999 40.914 122.999 34.914 116.999 34.914"/>
    <polygon fill="#FFD15D" points="124.999 40.914 130.999 40.914 130.999 34.914 124.999 34.914"/>
    <polygon fill="#FFD15D" points="132.999 40.914 138.999 40.914 138.999 34.914 132.999 34.914"/>
    <polyline fill="#FFD15D" points="57 36.914 55 36.914 55 27.328 51 23.328 51 .914 53 .914 53 22.5 57 26.5 57 36.914"/>
    <polyline fill="#FFD15D" points="65 36.914 63 36.914 63 25.328 59 21.328 59 .914 61 .914 61 20.5 65 24.5 65 36.914"/>
    <polyline fill="#FFD15D" points="73 36.914 71 36.914 71 23.328 67 19.328 67 .914 69 .914 69 18.5 73 22.5 73 36.914"/>
    <polyline fill="#FFD15D" points="81 36.914 79 36.914 79 21.328 75 17.328 75 .914 77 .914 77 16.5 81 20.5 81 36.914"/>
    <polyline fill="#FFD15D" points="89 36.914 87 36.914 87 19.328 83 15.328 83 .914 85 .914 85 14.5 89 18.5 89 36.914"/>
    <polygon fill="#FFD15D" points="95 36.914 97 36.914 97 .914 95 .914"/>
    <polyline fill="#FFD15D" points="137 36.914 135 36.914 135 26.5 139 22.5 139 .914 141 .914 141 23.328 137 27.328 137 36.914"/>
    <polyline fill="#FFD15D" points="129 36.914 127 36.914 127 24.5 131 20.5 131 .914 133 .914 133 21.328 129 25.328 129 36.914"/>
    <polyline fill="#FFD15D" points="121 36.914 119 36.914 119 22.5 123 18.5 123 .914 125 .914 125 19.328 121 23.328 121 36.914"/>
    <polyline fill="#FFD15D" points="113 36.914 111 36.914 111 20.5 115 16.5 115 .914 117 .914 117 17.328 113 21.328 113 36.914"/>
    <polyline fill="#FFD15D" points="105 36.914 103 36.914 103 18.5 107 14.5 107 .914 109 .914 109 15.328 105 19.328 105 36.914"/>
    <polygon fill="#FFD15D" points="38.957 54.956 44.957 54.956 44.957 48.956 38.957 48.956"/>
    <polygon fill="#FFD15D" points="38.957 62.956 44.957 62.956 44.957 56.956 38.957 56.956"/>
    <polygon fill="#FFD15D" points="38.957 70.956 44.957 70.956 44.957 64.956 38.957 64.956"/>
    <polygon fill="#FFD15D" points="38.957 78.956 44.957 78.956 44.957 72.956 38.957 72.956"/>
    <polygon fill="#FFD15D" points="38.957 86.956 44.957 86.956 44.957 80.956 38.957 80.956"/>
    <polygon fill="#FFD15D" points="38.957 94.956 44.957 94.956 44.957 88.956 38.957 88.956"/>
    <polygon fill="#FFD15D" points="38.957 102.956 44.957 102.956 44.957 96.956 38.957 96.956"/>
    <polygon fill="#FFD15D" points="38.957 110.956 44.957 110.956 44.957 104.956 38.957 104.956"/>
    <polygon fill="#FFD15D" points="38.957 118.956 44.957 118.956 44.957 112.956 38.957 112.956"/>
    <polygon fill="#FFD15D" points="38.957 126.956 44.957 126.956 44.957 120.956 38.957 120.956"/>
    <polygon fill="#FFD15D" points="38.957 134.956 44.957 134.956 44.957 128.956 38.957 128.956"/>
    <polyline fill="#FFD15D" points="40.958 52.957 30.543 52.957 26.543 48.957 4.958 48.957 4.958 46.957 27.372 46.957 31.372 50.957 40.958 50.957 40.958 52.957"/>
    <polyline fill="#FFD15D" points="40.958 60.957 28.543 60.957 24.543 56.957 4.958 56.957 4.958 54.957 25.372 54.957 29.372 58.957 40.958 58.957 40.958 60.957"/>
    <polyline fill="#FFD15D" points="40.958 68.957 26.543 68.957 22.543 64.957 4.958 64.957 4.958 62.957 23.372 62.957 27.372 66.957 40.958 66.957 40.958 68.957"/>
    <polyline fill="#FFD15D" points="40.958 76.957 24.543 76.957 20.543 72.957 4.958 72.957 4.958 70.957 21.372 70.957 25.372 74.957 40.958 74.957 40.958 76.957"/>
    <polyline fill="#FFD15D" points="40.958 84.957 22.543 84.957 18.543 80.957 4.958 80.957 4.958 78.957 19.372 78.957 23.372 82.957 40.958 82.957 40.958 84.957"/>
    <polygon fill="#FFD15D" points="4.958 92.957 40.958 92.957 40.958 90.957 4.958 90.957"/>
    <polyline fill="#FFD15D" points="27.372 136.957 4.958 136.957 4.958 134.957 26.543 134.957 30.543 130.957 40.958 130.957 40.958 132.957 31.372 132.957 27.372 136.957"/>
    <polyline fill="#FFD15D" points="25.372 128.957 4.958 128.957 4.958 126.957 24.543 126.957 28.543 122.957 40.958 122.957 40.958 124.957 29.372 124.957 25.372 128.957"/>
    <polyline fill="#FFD15D" points="23.372 120.957 4.958 120.957 4.958 118.957 22.543 118.957 26.543 114.957 40.958 114.957 40.958 116.957 27.372 116.957 23.372 120.957"/>
    <polyline fill="#FFD15D" points="21.372 112.957 4.958 112.957 4.958 110.957 20.543 110.957 24.543 106.957 40.958 106.957 40.958 108.957 25.372 108.957 21.372 112.957"/>
    <polyline fill="#FFD15D" points="19.372 104.957 4.958 104.957 4.958 102.957 18.543 102.957 22.543 98.957 40.958 98.957 40.958 100.957 23.372 100.957 19.372 104.957"/>
    <polygon fill="#FFD15D" points="147.043 54.956 153.043 54.956 153.043 48.956 147.043 48.956"/>
    <polygon fill="#FFD15D" points="147.043 62.956 153.043 62.956 153.043 56.956 147.043 56.956"/>
    <polygon fill="#FFD15D" points="147.043 70.956 153.043 70.956 153.043 64.956 147.043 64.956"/>
    <polygon fill="#FFD15D" points="147.043 78.956 153.043 78.956 153.043 72.956 147.043 72.956"/>
    <polygon fill="#FFD15D" points="147.043 86.956 153.043 86.956 153.043 80.956 147.043 80.956"/>
    <polygon fill="#FFD15D" points="147.043 94.956 153.043 94.956 153.043 88.956 147.043 88.956"/>
    <polygon fill="#FFD15D" points="147.043 102.956 153.043 102.956 153.043 96.956 147.043 96.956"/>
    <polygon fill="#FFD15D" points="147.043 110.956 153.043 110.956 153.043 104.956 147.043 104.956"/>
    <polygon fill="#FFD15D" points="147.043 118.956 153.043 118.956 153.043 112.956 147.043 112.956"/>
    <polygon fill="#FFD15D" points="147.043 126.956 153.043 126.956 153.043 120.956 147.043 120.956"/>
    <polygon fill="#FFD15D" points="147.043 134.956 153.043 134.956 153.043 128.956 147.043 128.956"/>
    <polyline fill="#FFD15D" points="161.457 52.957 151.042 52.957 151.042 50.957 160.628 50.957 164.628 46.957 187.042 46.957 187.042 48.957 165.457 48.957 161.457 52.957"/>
    <polyline fill="#FFD15D" points="163.457 60.957 151.042 60.957 151.042 58.957 162.628 58.957 166.628 54.957 187.042 54.957 187.042 56.957 167.457 56.957 163.457 60.957"/>
    <polyline fill="#FFD15D" points="165.457 68.957 151.042 68.957 151.042 66.957 164.628 66.957 168.628 62.957 187.042 62.957 187.042 64.957 169.457 64.957 165.457 68.957"/>
    <polyline fill="#FFD15D" points="167.457 76.957 151.042 76.957 151.042 74.957 166.628 74.957 170.628 70.957 187.042 70.957 187.042 72.957 171.457 72.957 167.457 76.957"/>
    <polyline fill="#FFD15D" points="169.457 84.957 151.042 84.957 151.042 82.957 168.628 82.957 172.628 78.957 187.042 78.957 187.042 80.957 173.457 80.957 169.457 84.957"/>
    <polygon fill="#FFD15D" points="151.042 92.957 187.042 92.957 187.042 90.957 151.042 90.957"/>
    <polyline fill="#FFD15D" points="187.042 136.957 164.628 136.957 160.628 132.957 151.042 132.957 151.042 130.957 161.457 130.957 165.457 134.957 187.042 134.957 187.042 136.957"/>
    <polyline fill="#FFD15D" points="187.042 128.957 166.628 128.957 162.628 124.957 151.042 124.957 151.042 122.957 163.457 122.957 167.457 126.957 187.042 126.957 187.042 128.957"/>
    <polyline fill="#FFD15D" points="187.042 120.957 168.628 120.957 164.628 116.957 151.042 116.957 151.042 114.957 165.457 114.957 169.457 118.957 187.042 118.957 187.042 120.957"/>
    <polyline fill="#FFD15D" points="187.042 112.957 170.628 112.957 166.628 108.957 151.042 108.957 151.042 106.957 167.457 106.957 171.457 110.957 187.042 110.957 187.042 112.957"/>
    <polyline fill="#FFD15D" points="187.042 104.957 172.628 104.957 168.628 100.957 151.042 100.957 151.042 98.957 169.457 98.957 173.457 102.957 187.042 102.957 187.042 104.957"/>
    <polyline fill="#475059" points="51 149 39 149 39 137 41 137 41 147 51 147 51 149"/>
    <polyline fill="#475059" points="153.06 149 141.061 149 141.061 147 151.06 147 151.06 137 153.06 137 153.06 149"/>
    <polyline fill="#475059" points="41 46.939 39 46.939 39 34.94 51 34.94 51 36.94 41 36.94 41 46.939"/>
    <polyline fill="#475059" points="153.06 46.939 151.06 46.939 151.06 36.94 141.061 36.94 141.061 34.94 153.06 34.94 153.06 46.939"/>
    <path fill="#48515A" d="M174.994,34.926 C173.89,34.926 172.994,35.822 172.994,36.926 C172.994,38.031 173.89,38.926 174.994,38.926 C176.099,38.926 176.994,38.031 176.994,36.926 C176.993,35.822 176.098,34.927 174.994,34.926 Z M174.994,40.926 C172.785,40.926 170.994,39.135 170.994,36.926 C170.994,34.717 172.785,32.926 174.994,32.926 C177.203,32.926 178.994,34.717 178.994,36.926 C178.992,39.134 177.202,40.924 174.994,40.926 Z"/>
    <polygon fill="#48515A" points="6 149.981 8 149.981 8 145.981 6 145.981"/>
    <polygon fill="#48515A" points="6 159.981 8 159.981 8 155.981 6 155.981"/>
    <polygon fill="#48515A" points="10 153.981 14 153.981 14 151.981 10 151.981"/>
    <polygon fill="#48515A" points="0 153.981 4 153.981 4 151.981 0 151.981"/>
    <path fill="#FFD15D" d="M171.431,155.975 C172.777,155.975 173.869,157.067 173.869,158.413 C173.869,159.759 172.777,160.851 171.431,160.851 C170.085,160.851 168.993,159.759 168.993,158.413 C168.993,157.067 170.085,155.975 171.431,155.975"/>
    <path fill="#FFD15D" d="M171.431 156.476C170.361 156.476 169.494 157.343 169.494 158.413 169.494 159.483 170.361 160.351 171.431 160.351 172.501 160.351 173.369 159.483 173.369 158.413 173.367 157.344 172.501 156.477 171.431 156.476zM171.431 161.351C169.809 161.351 168.494 160.035 168.494 158.413 168.494 156.791 169.809 155.476 171.431 155.476 173.053 155.476 174.369 156.791 174.369 158.413 174.367 160.035 173.053 161.349 171.431 161.351zM152.547 11.05C153.894 11.05 154.985 12.141 154.985 13.487 154.985 14.834 153.894 15.925 152.547 15.925 151.201 15.925 150.11 14.834 150.11 13.487 150.11 12.141 151.201 11.05 152.547 11.05"/>
    <path fill="#FFD15D" d="M152.547,11.55 C151.477,11.55 150.61,12.417 150.61,13.487 C150.61,14.557 151.477,15.425 152.547,15.425 C153.617,15.425 154.485,14.557 154.485,13.487 C154.484,12.418 153.617,11.551 152.547,11.55 Z M152.547,16.425 C150.925,16.425 149.61,15.11 149.61,13.487 C149.61,11.865 150.925,10.55 152.547,10.55 C154.17,10.55 155.485,11.865 155.485,13.487 C155.483,15.109 154.169,16.423 152.547,16.425 Z"/>
    <path fill="#5FE0ED" d="M13.562,29.046 C14.909,29.046 16,30.138 16,31.484 C16,32.83 14.909,33.921 13.562,33.921 C12.216,33.921 11.125,32.83 11.125,31.484 C11.125,30.138 12.216,29.046 13.562,29.046"/>
    <path fill="#DEDEDD" d="M176.012,165.945 C177.117,165.945 178.012,166.841 178.012,167.945 C178.012,169.05 177.117,169.945 176.012,169.945 C174.907,169.945 174.012,169.05 174.012,167.945 C174.012,166.841 174.907,165.945 176.012,165.945"/>
    <polyline fill="#48515A" points="21.006 15.922 19.006 15.922 19.006 8.921 18.006 8.921 18.006 6.921 21.006 6.921 21.006 15.922"/>
    <polygon fill="#48515A" points="18.006 16.922 22.006 16.922 22.006 14.922 18.006 14.922"/>
    <path fill="#48515A" d="M159.988,154.956 C159.436,154.957 158.989,155.404 158.988,155.956 L158.988,159.958 C158.988,160.51 159.436,160.958 159.988,160.958 C160.54,160.958 160.988,160.51 160.988,159.958 L160.988,155.956 C160.987,155.404 160.54,154.957 159.988,154.956 Z M159.988,162.958 C158.332,162.956 156.99,161.614 156.988,159.958 L156.988,155.956 C156.988,154.299 158.331,152.956 159.988,152.956 C161.645,152.956 162.988,154.299 162.988,155.956 L162.988,159.958 C162.986,161.614 161.644,162.956 159.988,162.958 Z"/>
    <polygon fill="#48515A" points="184.107 142.977 186.107 142.977 186.107 138.977 184.107 138.977"/>
    <polygon fill="#48515A" points="184.107 152.977 186.107 152.977 186.107 148.977 184.107 148.977"/>
    <polygon fill="#48515A" points="188.107 146.977 192.107 146.977 192.107 144.977 188.107 144.977"/>
    <polygon fill="#48515A" points="178.107 146.977 182.107 146.977 182.107 144.977 178.107 144.977"/>
    <path fill="#48515A" d="M39.916 164.962C39.364 164.963 38.917 165.41 38.916 165.962L38.916 169.963C38.916 170.516 39.364 170.963 39.916 170.963 40.468 170.963 40.916 170.516 40.916 169.963L40.916 165.962C40.915 165.41 40.468 164.963 39.916 164.962zM39.916 172.963C38.26 172.962 36.918 171.619 36.916 169.963L36.916 165.962C36.916 164.306 38.259 162.962 39.916 162.962 41.573 162.962 42.916 164.306 42.916 165.962L42.916 169.963C42.914 171.619 41.572 172.962 39.916 172.963zM29.91 144.95C29.358 144.951 28.911 145.398 28.91 145.95L28.91 149.951C28.91 150.503 29.358 150.951 29.91 150.951 30.462 150.951 30.91 150.503 30.91 149.951L30.91 145.95C30.909 145.398 30.462 144.951 29.91 144.95zM29.91 152.951C28.254 152.949 26.912 151.607 26.91 149.951L26.91 145.95C26.91 144.293 28.253 142.95 29.91 142.95 31.567 142.95 32.91 144.293 32.91 145.95L32.91 149.951C32.908 151.607 31.566 152.949 29.91 152.951zM39.916 14.872C39.364 14.873 38.917 15.32 38.916 15.872L38.916 19.874C38.916 20.426 39.364 20.874 39.916 20.874 40.468 20.874 40.916 20.426 40.916 19.874L40.916 15.872C40.915 15.32 40.468 14.873 39.916 14.872zM39.916 22.874C38.26 22.872 36.918 21.53 36.916 19.874L36.916 15.872C36.916 14.215 38.259 12.872 39.916 12.872 41.573 12.872 42.916 14.215 42.916 15.872L42.916 19.874C42.914 21.53 41.572 22.872 39.916 22.874zM159.988 24.878C159.436 24.879 158.989 25.326 158.988 25.878L158.988 29.879C158.988 30.432 159.436 30.879 159.988 30.879 160.54 30.879 160.988 30.432 160.988 29.879L160.988 25.878C160.987 25.326 160.54 24.879 159.988 24.878zM159.988 32.879C158.332 32.878 156.99 31.535 156.988 29.879L156.988 25.878C156.988 24.221 158.331 22.878 159.988 22.878 161.645 22.878 162.988 24.221 162.988 25.878L162.988 29.879C162.986 31.535 161.644 32.878 159.988 32.879z"/>
    <polyline fill="#48515A" points="31.012 35.935 29.012 35.935 29.012 28.934 28.012 28.934 28.012 26.934 31.012 26.934 31.012 35.935"/>
    <polygon fill="#48515A" points="28.012 36.935 32.012 36.935 32.012 34.935 28.012 34.935"/>
    <polyline fill="#48515A" points="22.007 166.013 20.007 166.013 20.007 159.011 19.007 159.011 19.007 157.011 22.007 157.011 22.007 166.013"/>
    <polygon fill="#48515A" points="19.007 167.013 23.007 167.013 23.007 165.013 19.007 165.013"/>
    <polyline fill="#48515A" points="154.086 176.019 152.086 176.019 152.086 169.018 151.086 169.018 151.086 167.018 154.086 167.018 154.086 176.019"/>
    <polygon fill="#48515A" points="151.086 177.019 155.086 177.019 155.086 175.019 151.086 175.019"/>
    <polyline fill="#48515A" points="174.098 15.922 172.098 15.922 172.098 8.921 171.098 8.921 171.098 6.921 174.098 6.921 174.098 15.922"/>
    <polygon fill="#48515A" points="171.098 16.922 175.098 16.922 175.098 14.922 171.098 14.922"/>
    <polyline fill="#5FE0ED" points="43.001 136.999 43.001 144.999 51.001 144.999 51.001 142.999 45.001 142.999 45.001 136.999 43.001 136.999"/>
    <polyline fill="#5FE0ED" points="149.059 136.999 149.059 144.999 141.059 144.999 141.059 142.999 147.059 142.999 147.059 136.999 149.059 136.999"/>
    <polyline fill="#5FE0ED" points="43.001 46.941 43.001 38.941 51.001 38.941 51.001 40.941 45.001 40.941 45.001 46.941 43.001 46.941"/>
    <polyline fill="#5FE0ED" points="149.059 46.941 149.059 38.941 141.059 38.941 141.059 40.941 147.059 40.941 147.059 46.941 149.059 46.941"/>
  </g>
</svg>
