<svg xmlns="http://www.w3.org/2000/svg" xmlns:xlink="http://www.w3.org/1999/xlink" width="193" height="159" viewBox="0 0 193 159">
  <defs>
    <polygon id="cc448-a" points="0 .878 165.108 .878 165.108 159 0 159"/>
  </defs>
  <g fill="none" fill-rule="evenodd">
    <polygon fill="#48515A" points="6 44.012 8 44.012 8 40.012 6 40.012"/>
    <g transform="translate(6)">
      <mask id="cc448-b" fill="#fff">
        <use xlink:href="#cc448-a"/>
      </mask>
      <polygon fill="#48515A" points="0 54.012 2 54.012 2 50.012 0 50.012" mask="url(#cc448-b)"/>
      <path fill="#475059" d="M59.362,96.513 L110.081,122.39 L109.878,123.168 C106.072,137.62 114.702,152.421 129.154,156.227 C143.606,160.033 158.407,151.403 162.213,136.951 C166.019,122.499 157.389,107.698 142.937,103.892 C132.717,101.2 121.864,104.706 115.149,112.867 L114.639,113.488 L63.919,87.611 L64.123,86.832 C65.293,82.352 65.293,77.647 64.123,73.167 L63.919,72.389 L114.639,46.513 L115.149,47.133 C124.603,58.591 141.555,60.216 153.013,50.763 C164.471,41.31 166.097,24.358 156.643,12.9 C147.19,1.441 130.238,-0.184 118.78,9.269 C110.696,15.938 107.222,26.695 109.878,36.832 L110.081,37.61 L59.362,63.488 L58.852,62.868 C49.389,51.343 32.376,49.67 20.851,59.132 C9.326,68.594 7.654,85.608 17.116,97.133 C26.578,108.658 43.591,110.33 55.116,100.868 C56.481,99.748 57.732,98.497 58.852,97.133 L59.362,96.513 Z M136,159 C119.981,158.997 106.997,146.008 107,129.989 C107,127.786 107.252,125.591 107.749,123.445 L59.875,99.019 C49.371,111.11 31.054,112.397 18.963,101.893 C6.872,91.389 5.586,73.072 16.09,60.981 C26.594,48.89 44.911,47.604 57.002,58.108 C58.025,58.997 58.986,59.957 59.875,60.981 L107.749,36.555 C104.097,20.928 113.804,5.299 129.431,1.647 C145.058,-2.005 160.687,7.702 164.339,23.329 C167.992,38.956 158.284,54.585 142.657,58.237 C132.173,60.688 121.194,57.14 114.126,49.019 L66.251,73.445 C67.25,77.758 67.25,82.242 66.251,86.555 L114.126,110.981 C124.633,98.897 142.947,97.619 155.031,108.126 C167.114,118.633 168.393,136.946 157.886,149.03 C152.378,155.365 144.394,159.002 136,159 Z" mask="url(#cc448-b)"/>
    </g>
    <path fill="#FFD15D" d="M44 55C30.193 55 19 66.193 19 80 19 93.807 30.193 105 44 105 57.807 105 69 93.807 69 80 68.984 66.199 57.801 55.015 44 55M142 5C128.193 5 117 16.193 117 30 117 43.807 128.193 55 142 55 155.807 55 167 43.807 167 30 166.984 16.199 155.801 5.015 142 5M142 105C128.193 105 117 116.193 117 130 117 143.807 128.193 155 142 155 155.807 155 167 143.807 167 130 166.984 116.199 155.801 105.015 142 105"/>
    <path fill="#FFD15D" d="M143.008,31.601 L142.127,29.805 L143.56,29.102 L144.44,30.898 L143.008,31.601 Z M139.416,33.361 L138.535,31.565 L140.331,30.685 L141.212,32.48 L139.416,33.361 Z M135.824,35.122 L134.943,33.326 L136.739,32.445 L137.62,34.241 L135.824,35.122 Z M132.232,36.882 L131.352,35.086 L133.147,34.206 L134.028,36.002 L132.232,36.882 Z M128.641,38.643 L127.76,36.847 L129.556,35.967 L130.437,37.763 L128.641,38.643 Z M125.049,40.403 L124.168,38.607 L125.964,37.727 L126.845,39.523 L125.049,40.403 Z M121.457,42.164 L120.576,40.368 L122.372,39.488 L123.253,41.284 L121.457,42.164 Z M117.866,43.925 L116.985,42.129 L118.78,41.248 L119.661,43.044 L117.866,43.925 Z M114.274,45.685 L113.394,43.89 L115.189,43.009 L116.07,44.805 L114.274,45.685 Z M110.683,47.446 L109.802,45.65 L111.598,44.77 L112.479,46.566 L110.683,47.446 Z M107.091,49.206 L106.21,47.411 L108.006,46.53 L108.887,48.326 L107.091,49.206 Z M103.499,50.967 L102.618,49.171 L104.414,48.291 L105.295,50.087 L103.499,50.967 Z M99.907,52.728 L99.026,50.932 L100.822,50.052 L101.703,51.848 L99.907,52.728 Z M96.315,54.488 L95.435,52.692 L97.23,51.812 L98.111,53.608 L96.315,54.488 Z M92.724,56.249 L91.844,54.453 L93.64,53.573 L94.52,55.369 L92.724,56.249 Z M89.132,58.01 L88.252,56.214 L90.048,55.333 L90.928,57.129 L89.132,58.01 Z M85.54,59.77 L84.66,57.975 L86.456,57.094 L87.336,58.89 L85.54,59.77 Z M81.948,61.531 L81.068,59.735 L82.864,58.855 L83.744,60.651 L81.948,61.531 Z M78.357,63.291 L77.477,61.496 L79.273,60.615 L80.153,62.411 L78.357,63.291 Z M74.765,65.052 L73.885,63.256 L75.681,62.376 L76.561,64.172 L74.765,65.052 Z M71.173,66.813 L70.294,65.017 L72.089,64.137 L72.969,65.933 L71.173,66.813 Z M67.581,68.574 L66.702,66.778 L68.498,65.897 L69.377,67.693 L67.581,68.574 Z M63.99,70.334 L63.11,68.538 L64.906,67.658 L65.786,69.454 L63.99,70.334 Z M60.398,72.095 L59.519,70.299 L61.314,69.418 L62.194,71.214 L60.398,72.095 Z M56.807,73.855 L55.927,72.059 L57.723,71.179 L58.603,72.975 L56.807,73.855 Z M53.215,75.616 L52.335,73.82 L54.131,72.94 L55.011,74.736 L53.215,75.616 Z M49.623,77.376 L48.744,75.58 L50.539,74.701 L51.419,76.496 L49.623,77.376 Z M46.032,79.137 L45.152,77.341 L46.948,76.461 L47.828,78.257 L46.032,79.137 Z M42.44,80.898 L41.56,79.102 L43.356,78.222 L44.236,80.017 L42.44,80.898 Z"/>
    <path fill="#FFD15D" d="M43.356,81.778 L41.56,80.898 L42.44,79.102 L44.236,79.982 L43.356,81.778 Z M46.948,83.539 L45.152,82.659 L46.032,80.863 L47.828,81.743 L46.948,83.539 Z M50.539,85.299 L48.744,84.419 L49.623,82.623 L51.419,83.503 L50.539,85.299 Z M54.131,87.06 L52.335,86.179 L53.215,84.384 L55.011,85.264 L54.131,87.06 Z M57.723,88.821 L55.927,87.94 L56.807,86.144 L58.603,87.025 L57.723,88.821 Z M61.314,90.581 L59.519,89.701 L60.398,87.905 L62.194,88.786 L61.314,90.581 Z M64.906,92.342 L63.11,91.462 L63.99,89.666 L65.786,90.546 L64.906,92.342 Z M68.498,94.102 L66.702,93.222 L67.581,91.426 L69.377,92.307 L68.498,94.102 Z M72.089,95.863 L70.294,94.983 L71.173,93.187 L72.969,94.067 L72.089,95.863 Z M75.681,97.624 L73.885,96.744 L74.765,94.948 L76.561,95.828 L75.681,97.624 Z M79.273,99.385 L77.477,98.504 L78.357,96.708 L80.153,97.589 L79.273,99.385 Z M82.864,101.145 L81.068,100.264 L81.948,98.469 L83.744,99.349 L82.864,101.145 Z M86.456,102.906 L84.66,102.025 L85.54,100.229 L87.336,101.11 L86.456,102.906 Z M90.048,104.666 L88.252,103.786 L89.132,101.99 L90.928,102.87 L90.048,104.666 Z M93.64,106.427 L91.844,105.547 L92.724,103.751 L94.52,104.631 L93.64,106.427 Z M97.23,108.187 L95.435,107.307 L96.315,105.512 L98.111,106.391 L97.23,108.187 Z M100.822,109.948 L99.026,109.068 L99.907,107.272 L101.703,108.152 L100.822,109.948 Z M104.414,111.709 L102.618,110.828 L103.499,109.033 L105.295,109.913 L104.414,111.709 Z M108.006,113.47 L106.21,112.589 L107.091,110.793 L108.887,111.674 L108.006,113.47 Z M111.598,115.23 L109.802,114.35 L110.683,112.554 L112.479,113.434 L111.598,115.23 Z M115.189,116.991 L113.394,116.11 L114.274,114.314 L116.07,115.195 L115.189,116.991 Z M118.78,118.751 L116.985,117.871 L117.866,116.075 L119.661,116.955 L118.78,118.751 Z M122.372,120.512 L120.576,119.632 L121.457,117.836 L123.253,118.716 L122.372,120.512 Z M125.964,122.272 L124.168,121.392 L125.049,119.597 L126.845,120.476 L125.964,122.272 Z M129.556,124.033 L127.76,123.153 L128.641,121.357 L130.437,122.237 L129.556,124.033 Z M133.147,125.794 L131.352,124.913 L132.232,123.118 L134.028,123.998 L133.147,125.794 Z M136.739,127.555 L134.943,126.674 L135.824,124.878 L137.62,125.759 L136.739,127.555 Z M140.331,129.315 L138.535,128.435 L139.416,126.639 L141.212,127.519 L140.331,129.315 Z M143.56,130.898 L142.127,130.195 L143.008,128.399 L144.44,129.102 L143.56,130.898 Z"/>
    <path fill="#475059" d="M114.022,93.04 L117.6,93.04 L119.374,89.016 L122.67,87.114 L127.041,87.59 L128.83,84.491 L126.232,80.943 L126.232,77.137 L128.83,73.59 L127.041,70.491 L122.67,70.966 L119.374,69.063 L117.6,65.04 L114.022,65.04 L112.248,69.063 L108.953,70.966 L104.581,70.491 L102.793,73.59 L105.39,77.138 L105.39,80.943 L102.793,84.491 L104.581,87.59 L108.953,87.114 L112.248,89.016 L114.022,93.04 Z M118.904,95.04 L112.718,95.04 L110.682,90.422 L108.52,89.173 L103.501,89.719 L100.408,84.362 L103.39,80.289 L103.39,77.791 L100.408,73.719 L103.501,68.362 L108.52,68.908 L110.682,67.658 L112.718,63.04 L118.904,63.04 L120.94,67.658 L123.104,68.908 L128.121,68.362 L131.215,73.719 L128.232,77.791 L128.232,80.289 L131.215,84.362 L128.121,89.719 L123.104,89.173 L120.94,90.422 L118.904,95.04 Z"/>
    <path fill="#475059" d="M115.812,77.04 C114.707,77.04 113.812,77.935 113.812,79.04 C113.812,80.144 114.707,81.04 115.812,81.04 C116.916,81.04 117.812,80.144 117.812,79.04 C117.81,77.936 116.916,77.041 115.812,77.04 Z M115.812,83.04 C113.602,83.04 111.812,81.249 111.812,79.04 C111.812,76.831 113.602,75.04 115.812,75.04 C118.021,75.04 119.812,76.831 119.812,79.04 C119.809,81.248 118.02,83.038 115.812,83.04 Z"/>
    <path fill="#475059" d="M115.812,73.04 C112.498,73.04 109.812,75.726 109.812,79.04 C109.812,82.354 112.498,85.04 115.812,85.04 C119.125,85.04 121.812,82.354 121.812,79.04 C121.808,75.728 119.124,73.043 115.812,73.04 Z M115.812,87.04 C111.393,87.04 107.812,83.458 107.812,79.04 C107.812,74.622 111.393,71.04 115.812,71.04 C120.23,71.04 123.812,74.622 123.812,79.04 C123.806,83.456 120.228,87.035 115.812,87.04 Z"/>
    <polygon fill="#48515A" points="10 48.012 14 48.012 14 46.012 10 46.012"/>
    <polygon fill="#48515A" points="0 48.012 4 48.012 4 46.012 0 46.012"/>
    <polygon fill="#48515A" points="184.106 94.042 186.106 94.042 186.106 90.042 184.106 90.042"/>
    <polygon fill="#48515A" points="184.106 104.042 186.106 104.042 186.106 100.042 184.106 100.042"/>
    <polygon fill="#48515A" points="188.106 98.042 192.106 98.042 192.106 96.042 188.106 96.042"/>
    <polygon fill="#48515A" points="178.106 98.042 182.106 98.042 182.106 96.042 178.106 96.042"/>
    <polygon fill="#48515A" points="64.035 144.072 66.035 144.072 66.035 140.072 64.035 140.072"/>
    <polygon fill="#48515A" points="64.035 154.072 66.035 154.072 66.035 150.072 64.035 150.072"/>
    <polygon fill="#48515A" points="68.035 148.072 72.035 148.072 72.035 146.072 68.035 146.072"/>
    <polygon fill="#48515A" points="58.035 148.072 62.035 148.072 62.035 146.072 58.035 146.072"/>
    <path fill="#FFD15D" d="M33.029,112.994 C35.79,112.994 38.029,115.233 38.029,117.994 C38.029,120.756 35.79,122.994 33.029,122.994 C30.267,122.994 28.029,120.756 28.029,117.994 C28.029,115.233 30.267,112.994 33.029,112.994"/>
    <path fill="#5FE0ED" d="M84.964,31.013 C86.621,31.013 87.964,32.356 87.964,34.013 C87.964,35.669 86.621,37.013 84.964,37.013 C83.307,37.013 81.964,35.669 81.964,34.013 C81.964,32.356 83.307,31.013 84.964,31.013"/>
    <path fill="#F58E70" d="M163.771,92.022 C164.875,92.022 165.771,92.917 165.771,94.022 C165.771,95.126 164.875,96.022 163.771,96.022 C162.666,96.022 161.771,95.126 161.771,94.022 C161.771,92.917 162.666,92.022 163.771,92.022"/>
    <path fill="#F58E70" d="M163.771,93.021 C163.218,93.021 162.771,93.469 162.771,94.021 C162.771,94.574 163.218,95.021 163.771,95.021 C164.323,95.021 164.771,94.574 164.771,94.021 C164.77,93.469 164.323,93.022 163.771,93.021 Z M163.771,97.021 C162.114,97.021 160.771,95.678 160.771,94.021 C160.771,92.365 162.114,91.021 163.771,91.021 C165.427,91.021 166.771,92.365 166.771,94.021 C166.769,95.677 165.427,97.02 163.771,97.021 Z"/>
    <path fill="#475059" d="M44 68C37.373 68 32 73.372 32 80 32 86.627 37.373 92 44 92 50.627 92 56 86.627 56 80 55.992 73.376 50.624 68.007 44 68zM44 94C36.268 94 30 87.732 30 80 30 72.268 36.268 66 44 66 51.732 66 58 72.268 58 80 57.991 87.728 51.728 93.991 44 94zM141.999 18.002C135.372 18.002 129.999 23.375 129.999 30.002 129.999 36.63 135.372 42.002 141.999 42.002 148.626 42.002 153.999 36.63 153.999 30.002 153.992 23.378 148.623 18.01 141.999 18.002zM141.999 44.002C134.267 44.002 127.999 37.734 127.999 30.002 127.999 22.27 134.267 16.002 141.999 16.002 149.731 16.002 155.999 22.27 155.999 30.002 155.99 37.731 149.727 43.994 141.999 44.002zM141.996 118.013C135.369 118.013 129.996 123.386 129.996 130.013 129.996 136.64 135.369 142.013 141.996 142.013 148.624 142.013 153.996 136.64 153.996 130.013 153.989 123.389 148.62 118.02 141.996 118.013zM141.996 144.013C134.264 144.013 127.996 137.745 127.996 130.013 127.996 122.281 134.264 116.013 141.996 116.013 149.728 116.013 155.996 122.281 155.996 130.013 155.987 137.741 149.724 144.004 141.996 144.013z"/>
  </g>
</svg>
