<svg xmlns="http://www.w3.org/2000/svg" width="192" height="182" viewBox="0 0 192 182">
  <g fill="none" fill-rule="evenodd">
    <path fill="#FFD15D" d="M48.941,109 L142.941,109 L142.941,49 L48.941,49 L48.941,109 Z M151.636,44.578 L148.902,44.403 L148.06,41.796 C140.376,17.609 117.978,1.133 92.601,1 C62.535,1 37.033,24.891 34.543,54.827 L34.282,57.971 L31.166,58.472 C14.834,61.118 3.74,76.502 6.385,92.834 C8.736,107.34 21.261,118 35.957,118 L149.246,118 C169.542,118.002 185.998,101.551 186,81.254 C186.002,61.883 170.967,45.836 151.636,44.578 Z"/>
    <polyline fill="#DEDEDD" points="143.057 174.009 48.948 174.009 45.946 170.008 146.059 170.008 143.057 174.009"/>
    <path fill="#48515A" d="M91.001,115 L52.941,115 L52.941,113 L44.941,113 L44.941,50 C44.945,47.24 47.181,45.003 49.941,45 L56.999,45 L56.999,47 L49.941,47 C48.285,47.002 46.943,48.344 46.941,50 L46.941,111 L54.941,111 L54.941,113 L91.001,113 L91.001,115"/>
    <polygon fill="#48515A" points="63.999 47 127.875 47 127.875 45 63.999 45"/>
    <path fill="#48515A" d="M136.941,115 L101.001,115 L101.001,113 L134.941,113 L134.941,111 L144.941,111 L144.941,50 C144.94,48.344 143.598,47.002 141.941,47 L134.999,47 L134.999,45 L141.941,45 C144.701,45.003 146.938,47.24 146.941,50 L146.941,113 L136.941,113 L136.941,115"/>
    <path fill="#DEDEDD" d="M80.941,147.003 L110.941,147.003 C111.493,147.003 111.941,147.451 111.941,148.003 L111.941,167.007 C111.941,167.559 111.493,168.007 110.941,168.007 L80.941,168.007 C80.389,168.007 79.941,167.559 79.941,167.007 L79.941,148.003 C79.941,147.451 80.389,147.003 80.941,147.003"/>
    <polygon fill="#DEDEDD" points="127.941 142.001 133.941 142.001 133.941 136.001 127.941 136.001"/>
    <polygon fill="#DEDEDD" points="119.941 142.001 125.941 142.001 125.941 136.001 119.941 136.001"/>
    <polygon fill="#DEDEDD" points="111.941 142.001 117.941 142.001 117.941 136.001 111.941 136.001"/>
    <polygon fill="#DEDEDD" points="103.941 142.001 109.941 142.001 109.941 136.001 103.941 136.001"/>
    <polygon fill="#DEDEDD" points="95.941 142.001 101.941 142.001 101.941 136.001 95.941 136.001"/>
    <polygon fill="#DEDEDD" points="87.941 142.001 93.941 142.001 93.941 136.001 87.941 136.001"/>
    <polygon fill="#DEDEDD" points="79.941 142.001 85.941 142.001 85.941 136.001 79.941 136.001"/>
    <polygon fill="#DEDEDD" points="71.941 142.001 77.941 142.001 77.941 136.001 71.941 136.001"/>
    <polygon fill="#DEDEDD" points="63.941 142.001 69.941 142.001 69.941 136.001 63.941 136.001"/>
    <polygon fill="#DEDEDD" points="55.941 142.001 61.941 142.001 61.941 136.001 55.941 136.001"/>
    <polygon fill="#DEDEDD" points="123.941 134.001 129.941 134.001 129.941 128.001 123.941 128.001"/>
    <polygon fill="#DEDEDD" points="115.941 134.001 121.941 134.001 121.941 128.001 115.941 128.001"/>
    <polygon fill="#DEDEDD" points="107.941 134.001 113.941 134.001 113.941 128.001 107.941 128.001"/>
    <polygon fill="#DEDEDD" points="99.941 134.001 105.941 134.001 105.941 128.001 99.941 128.001"/>
    <polygon fill="#DEDEDD" points="91.941 134.001 97.941 134.001 97.941 128.001 91.941 128.001"/>
    <polygon fill="#DEDEDD" points="83.941 134.001 89.941 134.001 89.941 128.001 83.941 128.001"/>
    <polygon fill="#DEDEDD" points="75.941 134.001 81.941 134.001 81.941 128.001 75.941 128.001"/>
    <polygon fill="#DEDEDD" points="67.941 134.001 73.941 134.001 73.941 128.001 67.941 128.001"/>
    <polygon fill="#DEDEDD" points="59.941 134.001 65.941 134.001 65.941 128.001 59.941 128.001"/>
    <polygon fill="#DEDEDD" points="51.941 134.001 57.941 134.001 57.941 128.001 51.941 128.001"/>
    <polygon fill="#DEDEDD" points="131.941 134.001 137.941 134.001 137.941 128.001 131.941 128.001"/>
    <polygon fill="#DEDEDD" points="127.941 126.001 133.941 126.001 133.941 120.001 127.941 120.001"/>
    <polygon fill="#DEDEDD" points="119.941 126.001 125.941 126.001 125.941 120.001 119.941 120.001"/>
    <polygon fill="#DEDEDD" points="111.941 126.001 117.941 126.001 117.941 120.001 111.941 120.001"/>
    <polygon fill="#DEDEDD" points="103.941 126.001 109.941 126.001 109.941 120.001 103.941 120.001"/>
    <polygon fill="#DEDEDD" points="95.941 126.001 101.941 126.001 101.941 120.001 95.941 120.001"/>
    <polygon fill="#DEDEDD" points="87.941 126.001 93.941 126.001 93.941 120.001 87.941 120.001"/>
    <polygon fill="#DEDEDD" points="79.941 126.001 85.941 126.001 85.941 120.001 79.941 120.001"/>
    <polygon fill="#DEDEDD" points="71.941 126.001 77.941 126.001 77.941 120.001 71.941 120.001"/>
    <polygon fill="#DEDEDD" points="63.941 126.001 69.941 126.001 69.941 120.001 63.941 120.001"/>
    <polygon fill="#DEDEDD" points="55.941 126.001 61.941 126.001 61.941 120.001 55.941 120.001"/>
    <path fill="#48515A" d="M141.938 175.007L102 175.007 102 173.007 141.938 173.007C143.594 173.006 144.936 171.663 144.938 170.007L144.941 112 146.941 112 146.938 170.007C146.934 172.767 144.698 175.004 141.938 175.007M90 175.007L49.944 175.007C47.184 175.004 44.948 172.767 44.944 170.007L44.941 112 46.941 112 46.944 170.007C46.946 171.663 48.288 173.006 49.944 173.007L90 173.007 90 175.007"/>
    <polygon fill="#DEDEDD" points="127.941 142.001 133.941 142.001 133.941 136.001 127.941 136.001"/>
    <polygon fill="#DEDEDD" points="111.941 142.001 117.941 142.001 117.941 136.001 111.941 136.001"/>
    <polygon fill="#DEDEDD" points="103.941 142.001 109.941 142.001 109.941 136.001 103.941 136.001"/>
    <polygon fill="#DEDEDD" points="95.941 142.001 101.941 142.001 101.941 136.001 95.941 136.001"/>
    <polygon fill="#DEDEDD" points="87.941 142.001 93.941 142.001 93.941 136.001 87.941 136.001"/>
    <polygon fill="#DEDEDD" points="79.941 142.001 85.941 142.001 85.941 136.001 79.941 136.001"/>
    <polygon fill="#DEDEDD" points="71.941 142.001 77.941 142.001 77.941 136.001 71.941 136.001"/>
    <polygon fill="#DEDEDD" points="63.941 142.001 69.941 142.001 69.941 136.001 63.941 136.001"/>
    <polygon fill="#DEDEDD" points="55.941 142.001 61.941 142.001 61.941 136.001 55.941 136.001"/>
    <polygon fill="#DEDEDD" points="123.941 134.001 129.941 134.001 129.941 128.001 123.941 128.001"/>
    <polygon fill="#DEDEDD" points="115.941 134.001 121.941 134.001 121.941 128.001 115.941 128.001"/>
    <polygon fill="#DEDEDD" points="107.941 134.001 113.941 134.001 113.941 128.001 107.941 128.001"/>
    <polygon fill="#DEDEDD" points="99.941 134.001 105.941 134.001 105.941 128.001 99.941 128.001"/>
    <polygon fill="#DEDEDD" points="91.941 134.001 97.941 134.001 97.941 128.001 91.941 128.001"/>
    <polygon fill="#DEDEDD" points="83.941 134.001 89.941 134.001 89.941 128.001 83.941 128.001"/>
    <polygon fill="#DEDEDD" points="75.941 134.001 81.941 134.001 81.941 128.001 75.941 128.001"/>
    <polygon fill="#DEDEDD" points="67.941 134.001 73.941 134.001 73.941 128.001 67.941 128.001"/>
    <polygon fill="#DEDEDD" points="59.941 134.001 65.941 134.001 65.941 128.001 59.941 128.001"/>
    <polygon fill="#DEDEDD" points="51.941 134.001 57.941 134.001 57.941 128.001 51.941 128.001"/>
    <polygon fill="#DEDEDD" points="131.941 134.001 137.941 134.001 137.941 128.001 131.941 128.001"/>
    <polygon fill="#DEDEDD" points="127.941 126.001 133.941 126.001 133.941 120.001 127.941 120.001"/>
    <polygon fill="#DEDEDD" points="119.941 126.001 125.941 126.001 125.941 120.001 119.941 120.001"/>
    <polygon fill="#DEDEDD" points="111.941 126.001 117.941 126.001 117.941 120.001 111.941 120.001"/>
    <polygon fill="#DEDEDD" points="103.941 126.001 109.941 126.001 109.941 120.001 103.941 120.001"/>
    <polygon fill="#DEDEDD" points="95.941 126.001 101.941 126.001 101.941 120.001 95.941 120.001"/>
    <polygon fill="#DEDEDD" points="87.941 126.001 93.941 126.001 93.941 120.001 87.941 120.001"/>
    <polygon fill="#DEDEDD" points="79.941 126.001 85.941 126.001 85.941 120.001 79.941 120.001"/>
    <polygon fill="#DEDEDD" points="71.941 126.001 77.941 126.001 77.941 120.001 71.941 120.001"/>
    <polygon fill="#DEDEDD" points="63.941 126.001 69.941 126.001 69.941 120.001 63.941 120.001"/>
    <polygon fill="#DEDEDD" points="55.941 126.001 61.941 126.001 61.941 120.001 55.941 120.001"/>
    <path fill="#48515A" d="M96,27 C73.356,27 55,45.356 55,68 C55,90.644 73.356,109 96,109 C118.644,109 137,90.644 137,68 C136.974,45.367 118.633,27.026 96,27 Z M96,111 C72.252,111 53,91.748 53,68 C53,44.252 72.252,25 96,25 C119.748,25 139,44.252 139,68 C138.973,91.737 119.737,110.973 96,111 Z"/>
    <polygon fill="#48515A" points="97 134.029 99 134.029 99 110 97 110"/>
    <polygon fill="#48515A" points="93 134.029 95 134.029 95 110 93 110"/>
    <path fill="#48515A" d="M94 135.029L94 178C94 179.105 94.895 180 96 180 97.105 180 98 179.105 98 178L98 135.029 94 135.029zM96 182C93.792 181.998 92.002 180.209 92 178L92 133.029 100 133.029 100 178C99.998 180.209 98.208 181.998 96 182zM71.819 69.999C80.65 83.354 98.634 87.021 111.989 78.191 115.243 76.039 118.029 73.253 120.181 69.999 111.35 56.644 93.366 52.977 80.011 61.807 76.757 63.959 73.971 66.745 71.819 69.999zM96 84.999C85.35 85.023 75.441 79.555 69.782 70.533L69.445 69.999 69.782 69.465C78.909 54.985 98.046 50.646 112.526 59.773 116.439 62.24 119.751 65.551 122.218 69.465L122.555 69.999 122.218 70.533C116.559 79.555 106.65 85.023 96 84.999z"/>
    <path fill="#5FE0ED" d="M96,60 C101.523,60 106,64.477 106,70 C106,75.523 101.523,80 96,80 C90.477,80 86,75.523 86,70 C86,64.477 90.477,60 96,60"/>
    <path fill="#48515A" d="M96,67 C94.343,67 93,68.343 93,70 C93,71.657 94.343,73 96,73 C97.657,73 99,71.657 99,70 C98.998,68.344 97.656,67.002 96,67 Z M96,75 C93.239,75 91,72.761 91,70 C91,67.239 93.239,65 96,65 C98.761,65 101,67.239 101,70 C100.997,72.76 98.76,74.997 96,75 Z"/>
    <path fill="#475059" d="M163,87.154 C160.876,87.154 159.154,88.875 159.153,91 C159.153,93.124 160.875,94.846 162.999,94.846 C165.123,94.847 166.845,93.125 166.846,91.001 C166.843,88.877 165.123,87.157 163,87.154 Z M163,96.846 C159.771,96.846 157.154,94.229 157.153,91.001 C157.153,87.772 159.77,85.154 162.999,85.154 C166.228,85.154 168.845,87.771 168.846,91 C168.842,94.227 166.227,96.842 163,96.846 Z"/>
    <path fill="#475059" d="M163 101C157.477 101 153 96.523 153 91.001 153 90.871 153.003 90.741 153.008 90.611 153.227 85.401 157.401 81.226 162.611 81.007 168.131 80.793 172.778 85.094 172.992 90.613 172.997 90.742 173 90.871 173 91L173 93.77C172.998 95.469 171.619 96.845 169.92 96.843 168.223 96.842 166.847 95.467 166.846 93.77L166.846 86.154 168.846 86.154 168.846 93.77C168.847 94.364 169.33 94.846 169.925 94.845 170.518 94.844 170.999 94.363 171 93.77L171 91C171 86.582 167.418 83 163 83 162.896 83 162.792 83.002 162.688 83.006 158.54 83.228 155.227 86.54 155.006 90.688 154.829 95.1 158.262 98.821 162.675 98.998 164.618 99.077 166.524 98.443 168.034 97.218L169.294 98.771C167.515 100.216 165.292 101.003 163 101M26.259 101C20.327 101 15.518 105.809 15.518 111.741 15.518 117.673 20.327 122.482 26.259 122.482 32.191 122.482 37 117.673 37 111.741 36.993 105.812 32.188 101.007 26.259 101zM26.259 124.482C19.222 124.482 13.518 118.778 13.518 111.741 13.518 104.704 19.222 99 26.259 99 33.296 99 39 104.704 39 111.741 38.992 118.775 33.292 124.474 26.259 124.482z"/>
    <path fill="#475059" d="M26.258,101 C23.373,101 20.936,105.919 20.936,111.741 C20.936,117.563 23.373,122.482 26.258,122.482 C29.143,122.482 31.58,117.563 31.58,111.741 C31.58,105.919 29.143,101 26.258,101 Z M26.258,124.482 C22.152,124.482 18.936,118.886 18.936,111.741 C18.936,104.597 22.152,99 26.258,99 C30.363,99 33.58,104.597 33.58,111.741 C33.58,118.886 30.363,124.482 26.258,124.482 Z"/>
    <polygon fill="#475059" points="14.518 112.741 38 112.741 38 110.741 14.518 110.741"/>
    <polygon fill="#48515A" points="6 38 8 38 8 34 6 34"/>
    <polygon fill="#48515A" points="6 48 8 48 8 44 6 44"/>
    <polygon fill="#48515A" points="10 42 14 42 14 40 10 40"/>
    <polygon fill="#48515A" points="0 42 4 42 4 40 0 40"/>
    <polygon fill="#48515A" points="184 126 186 126 186 122 184 122"/>
    <polygon fill="#48515A" points="184 136 186 136 186 132 184 132"/>
    <polygon fill="#48515A" points="188 130 192 130 192 128 188 128"/>
    <polygon fill="#48515A" points="178 130 182 130 182 128 178 128"/>
    <path fill="#F58E70" d="M23.687,28 C24.791,28 25.687,28.895 25.687,30 C25.687,31.105 24.791,32 23.687,32 C22.582,32 21.687,31.105 21.687,30 C21.687,28.895 22.582,28 23.687,28"/>
    <path fill="#F58E70" d="M23.687,29 C23.134,29 22.687,29.448 22.687,30 C22.687,30.552 23.134,31 23.687,31 C24.239,31 24.686,30.552 24.686,30 C24.686,29.448 24.239,29.001 23.687,29 Z M23.687,33 C22.03,33 20.687,31.657 20.687,30 C20.687,28.343 22.03,27 23.687,27 C25.343,27 26.687,28.343 26.687,30 C26.685,31.656 25.343,32.998 23.687,33 Z"/>
    <path fill="#5FE0ED" d="M169,18 C170.657,18 172,19.343 172,21 C172,22.657 170.657,24 169,24 C167.343,24 166,22.657 166,21 C166,19.343 167.343,18 169,18"/>
    <path fill="#FFD15D" d="M158,146 C159.105,146 160,146.895 160,148 C160,149.105 159.105,150 158,150 C156.895,150 156,149.105 156,148 C156,146.895 156.895,146 158,146"/>
  </g>
</svg>
