<svg xmlns="http://www.w3.org/2000/svg" width="192" height="189" viewBox="0 0 192 189">
  <g fill="none" fill-rule="evenodd">
    <path fill="#DEDEDD" d="M115.005,95.864 L115.005,101.018 C115.005,103.779 112.767,106.018 110.005,106.018 L81.998,106.018 C79.237,106.018 76.998,103.779 76.998,101.018 L76.998,95.864 L24.5,95.864 L24.5,107.864 C24.501,108.416 24.948,108.863 25.5,108.864 L165.5,108.864 C166.052,108.863 166.5,108.416 166.5,107.864 L166.5,95.864 L115.005,95.864"/>
    <path fill="#48515A" d="M185,27.942 C183.895,27.942 183,28.837 183,29.942 C183,31.047 183.895,31.942 185,31.942 C186.105,31.942 187,31.047 187,29.942 C186.999,28.838 186.104,27.943 185,27.942 Z M185,33.942 C182.791,33.942 181,32.151 181,29.942 C181,27.733 182.791,25.942 185,25.942 C187.209,25.942 189,27.733 189,29.942 C188.997,32.15 187.208,33.939 185,33.942 Z"/>
    <path fill="#475059" d="M165.5,112.864 L98.083,112.864 L98.083,110.864 L165.5,110.864 C167.157,110.862 168.499,109.52 168.5,107.864 L168.5,15.863 C168.499,14.207 167.157,12.865 165.5,12.863 L25.5,12.863 C23.844,12.865 22.502,14.207 22.5,15.863 L22.5,107.864 C22.502,109.52 23.844,110.862 25.5,110.864 L94.084,110.864 L94.084,112.864 L25.5,112.864 C22.74,112.861 20.504,110.624 20.501,107.864 L20.501,15.863 C20.504,13.103 22.74,10.866 25.5,10.863 L165.5,10.863 C168.261,10.866 170.497,13.103 170.5,15.863 L170.5,107.864 C170.497,110.624 168.261,112.861 165.5,112.864"/>
    <polyline fill="#475059" points="93.75 134.866 73 134.866 73.013 131.786 76.002 113.616 76.002 110.864 91.917 110.864 91.917 112.864 78.002 112.864 77.989 113.86 75 132.03 75 132.866 93.75 132.866 93.75 134.866"/>
    <polyline fill="#475059" points="119.503 134.866 98.076 134.866 98.076 132.866 117.503 132.866 117.503 132.031 114.501 113.864 114.501 112.864 100.417 112.864 100.417 110.864 116.501 110.864 116.501 113.782 119.503 131.949 119.503 134.866"/>
    <polygon fill="#475059" points="98.076 134.864 123.501 134.864 123.501 132.864 98.076 132.864"/>
    <polygon fill="#475059" points="69.501 134.864 93.751 134.864 93.751 132.864 69.501 132.864"/>
    <polyline fill="#DEDEDD" points="77.717 130.865 115.282 130.865 112.626 114.864 80.349 114.864 77.717 130.865"/>
    <path fill="#DEDEDD" d="M130.464,155.021 L136.464,155.021 L136.464,149.021 L130.464,149.021 L130.464,155.021 Z M126.464,163.021 L136.464,163.021 L136.464,157.021 L126.464,157.021 L126.464,163.021 Z M130.464,171.021 L136.464,171.021 L136.464,165.021 L130.464,165.021 L130.464,171.021 Z M130.464,179.021 L136.464,179.021 L136.464,173.021 L130.464,173.021 L130.464,179.021 Z M122.464,171.021 L128.464,171.021 L128.464,165.021 L122.464,165.021 L122.464,171.021 Z M122.464,179.021 L128.464,179.021 L128.464,173.021 L122.464,173.021 L122.464,179.021 Z M114.464,171.021 L120.464,171.021 L120.464,165.021 L114.464,165.021 L114.464,171.021 Z M114.464,179.021 L120.464,179.021 L120.464,173.021 L114.464,173.021 L114.464,179.021 Z M106.464,171.021 L112.464,171.021 L112.464,165.021 L106.464,165.021 L106.464,171.021 Z M70.464,179.021 L112.464,179.021 L112.464,173.021 L70.464,173.021 L70.464,179.021 Z M62.464,179.021 L68.464,179.021 L68.464,173.021 L62.464,173.021 L62.464,179.021 Z M54.464,179.021 L60.464,179.021 L60.464,173.021 L54.464,173.021 L54.464,179.021 Z M46.464,179.021 L52.464,179.021 L52.464,173.021 L46.464,173.021 L46.464,179.021 Z M38.464,179.021 L44.464,179.021 L44.464,173.021 L38.464,173.021 L38.464,179.021 Z M38.464,171.021 L48.464,171.021 L48.464,165.021 L38.464,165.021 L38.464,171.021 Z M38.464,163.021 L44.464,163.021 L44.464,157.021 L38.464,157.021 L38.464,163.021 Z M38.464,155.021 L48.464,155.021 L48.464,149.021 L38.464,149.021 L38.464,155.021 Z M50.464,155.021 L56.464,155.021 L56.464,149.021 L50.464,149.021 L50.464,155.021 Z M58.464,155.021 L64.464,155.021 L64.464,149.021 L58.464,149.021 L58.464,155.021 Z M66.464,155.021 L72.464,155.021 L72.464,149.021 L66.464,149.021 L66.464,155.021 Z M74.464,155.021 L80.464,155.021 L80.464,149.021 L74.464,149.021 L74.464,155.021 Z M82.464,155.021 L88.464,155.021 L88.464,149.021 L82.464,149.021 L82.464,155.021 Z M90.464,155.021 L96.464,155.021 L96.464,149.021 L90.464,149.021 L90.464,155.021 Z M98.464,155.021 L104.464,155.021 L104.464,149.021 L98.464,149.021 L98.464,155.021 Z M102.464,163.021 L108.464,163.021 L108.464,157.021 L102.464,157.021 L102.464,163.021 Z M98.464,171.021 L104.464,171.021 L104.464,165.021 L98.464,165.021 L98.464,171.021 Z M94.464,163.021 L100.464,163.021 L100.464,157.021 L94.464,157.021 L94.464,163.021 Z M90.464,171.021 L96.464,171.021 L96.464,165.021 L90.464,165.021 L90.464,171.021 Z M86.464,163.021 L92.464,163.021 L92.464,157.021 L86.464,157.021 L86.464,163.021 Z M82.464,171.021 L88.464,171.021 L88.464,165.021 L82.464,165.021 L82.464,171.021 Z M78.464,163.021 L84.464,163.021 L84.464,157.021 L78.464,157.021 L78.464,163.021 Z M74.464,171.021 L80.464,171.021 L80.464,165.021 L74.464,165.021 L74.464,171.021 Z M70.464,163.021 L76.464,163.021 L76.464,157.021 L70.464,157.021 L70.464,163.021 Z M66.464,171.021 L72.464,171.021 L72.464,165.021 L66.464,165.021 L66.464,171.021 Z M62.464,163.021 L68.464,163.021 L68.464,157.021 L62.464,157.021 L62.464,163.021 Z M58.464,171.021 L64.464,171.021 L64.464,165.021 L58.464,165.021 L58.464,171.021 Z M54.464,163.021 L60.464,163.021 L60.464,157.021 L54.464,157.021 L54.464,163.021 Z M46.464,163.021 L52.464,163.021 L52.464,157.021 L46.464,157.021 L46.464,163.021 Z M50.464,171.021 L56.464,171.021 L56.464,165.021 L50.464,165.021 L50.464,171.021 Z M106.464,155.021 L112.464,155.021 L112.464,149.021 L106.464,149.021 L106.464,155.021 Z M110.464,163.021 L116.464,163.021 L116.464,157.021 L110.464,157.021 L110.464,163.021 Z M114.464,155.021 L120.464,155.021 L120.464,149.021 L114.464,149.021 L114.464,155.021 Z M118.464,163.021 L124.464,163.021 L124.464,157.021 L118.464,157.021 L118.464,163.021 Z M122.464,155.021 L128.464,155.021 L128.464,149.021 L122.464,149.021 L122.464,155.021 Z M137.464,146.021 L37.464,146.021 C36.36,146.021 35.464,146.917 35.464,148.021 L35.464,180.021 C35.464,181.126 36.36,182.021 37.464,182.021 L137.464,182.021 C138.569,182.021 139.464,181.126 139.464,180.021 L139.464,148.021 C139.464,146.917 138.569,146.021 137.464,146.021 Z"/>
    <path fill="#48515A" d="M93.939 183.021L37.464 183.021C35.808 183.019 34.466 181.677 34.464 180.021L34.464 148.021C34.466 146.365 35.808 145.023 37.464 145.021L93.815 145.021 93.815 147.021 37.464 147.021C36.912 147.022 36.465 147.469 36.464 148.021L36.464 180.021C36.465 180.573 36.912 181.02 37.464 181.021L93.939 181.021 93.939 183.021M137.464 183.021L97.748 183.021 97.748 181.021 137.464 181.021C138.016 181.02 138.464 180.573 138.464 180.021L138.464 148.021C138.464 147.469 138.016 147.022 137.464 147.021L97.935 147.021 97.935 145.021 137.464 145.021C139.12 145.023 140.463 146.365 140.464 148.021L140.464 180.021C140.463 181.677 139.12 183.019 137.464 183.021M154.501 150.888C152.845 150.89 151.503 152.232 151.501 153.888L151.501 175.888C151.503 177.544 152.845 178.886 154.501 178.888L166.5 178.888C168.156 178.886 169.498 177.544 169.5 175.888L169.5 153.888C169.498 152.232 168.156 150.89 166.5 150.888L154.501 150.888zM166.5 180.888L154.501 180.888C151.741 180.885 149.504 178.648 149.501 175.888L149.501 153.888C149.504 151.128 151.741 148.891 154.501 148.888L166.5 148.888C169.26 148.891 171.496 151.128 171.5 153.888L171.5 175.888C171.496 178.648 169.26 180.885 166.5 180.888z"/>
    <path fill="#DEDEDD" d="M166.5,152.888 L161.5,152.888 L161.5,159.888 L159.5,159.888 L159.5,152.888 L154.501,152.888 C153.949,152.889 153.501,153.336 153.501,153.888 L153.501,175.888 C153.501,176.44 153.949,176.887 154.501,176.888 L166.5,176.888 C167.052,176.887 167.499,176.44 167.5,175.888 L167.5,153.888 C167.499,153.336 167.052,152.889 166.5,152.888"/>
    <polygon fill="#48515A" points="16 154.942 18 154.942 18 150.942 16 150.942"/>
    <polygon fill="#48515A" points="16 164.942 18 164.942 18 160.942 16 160.942"/>
    <polygon fill="#48515A" points="20 158.942 24 158.942 24 156.942 20 156.942"/>
    <polygon fill="#48515A" points="10 158.942 14 158.942 14 156.942 10 156.942"/>
    <polygon fill="#48515A" points="184 122.942 186 122.942 186 118.942 184 118.942"/>
    <polygon fill="#48515A" points="184 132.942 186 132.942 186 128.942 184 128.942"/>
    <polygon fill="#48515A" points="188 126.942 192 126.942 192 124.942 188 124.942"/>
    <polygon fill="#48515A" points="178 126.942 182 126.942 182 124.942 178 124.942"/>
    <polygon fill="#48515A" points="6 50.942 8 50.942 8 46.942 6 46.942"/>
    <polygon fill="#48515A" points="6 60.942 8 60.942 8 56.942 6 56.942"/>
    <polygon fill="#48515A" points="10 54.942 14 54.942 14 52.942 10 52.942"/>
    <polygon fill="#48515A" points="0 54.942 4 54.942 4 52.942 0 52.942"/>
    <path fill="#FFD15D" d="M182.438,66.942 C183.784,66.942 184.875,68.033 184.875,69.38 C184.875,70.726 183.784,71.817 182.438,71.817 C181.091,71.817 180,70.726 180,69.38 C180,68.033 181.091,66.942 182.438,66.942"/>
    <path fill="#FFD15D" d="M182.438 67.442C181.367 67.442 180.5 68.309 180.5 69.38 180.5 70.45 181.367 71.317 182.438 71.317 183.508 71.317 184.375 70.45 184.375 69.38 184.374 68.31 183.507 67.443 182.438 67.442zM182.438 72.317C180.815 72.317 179.5 71.002 179.5 69.38 179.5 67.757 180.815 66.442 182.438 66.442 184.06 66.442 185.375 67.757 185.375 69.38 185.373 71.001 184.059 72.315 182.438 72.317zM177.562 6.067C178.909 6.067 180 7.158 180 8.504 180 9.851 178.909 10.942 177.562 10.942 176.216 10.942 175.125 9.851 175.125 8.504 175.125 7.158 176.216 6.067 177.562 6.067"/>
    <path fill="#FFD15D" d="M177.563,6.567 C176.492,6.567 175.625,7.434 175.625,8.504 C175.625,9.575 176.492,10.442 177.563,10.442 C178.633,10.442 179.5,9.575 179.5,8.504 C179.499,7.435 178.632,6.568 177.563,6.567 Z M177.563,11.442 C175.94,11.442 174.625,10.127 174.625,8.504 C174.625,6.882 175.94,5.567 177.563,5.567 C179.185,5.567 180.5,6.882 180.5,8.504 C180.498,10.126 179.184,11.44 177.563,11.442 Z"/>
    <path fill="#5FE0ED" d="M13.562,30.067 C14.909,30.067 16,31.158 16,32.504 C16,33.851 14.909,34.942 13.562,34.942 C12.216,34.942 11.125,33.851 11.125,32.504 C11.125,31.158 12.216,30.067 13.562,30.067"/>
    <path fill="#DEDEDD" d="M8 72.942C9.105 72.942 10 73.837 10 74.942 10 76.047 9.105 76.942 8 76.942 6.895 76.942 6 76.047 6 74.942 6 73.837 6.895 72.942 8 72.942M156 126.942C157.105 126.942 158 127.837 158 128.942 158 130.047 157.105 130.942 156 130.942 154.895 130.942 154 130.047 154 128.942 154 127.837 154.895 126.942 156 126.942M118 .942C119.105.942 120 1.837 120 2.942 120 4.047 119.105 4.942 118 4.942 116.895 4.942 116 4.047 116 2.942 116 1.837 116.895.942 118 .942"/>
    <polyline fill="#48515A" points="11 16.943 9 16.943 9 9.942 8 9.942 8 7.942 11 7.942 11 16.943"/>
    <polygon fill="#48515A" points="8 17.943 12 17.943 12 15.943 8 15.943"/>
    <polyline fill="#48515A" points="137 124.943 135 124.943 135 117.942 134 117.942 134 115.942 137 115.942 137 124.943"/>
    <polygon fill="#48515A" points="134 125.943 138 125.943 138 123.943 134 123.943"/>
    <path fill="#48515A" d="M180 95.941C179.448 95.942 179.001 96.389 179 96.941L179 100.942C179 101.494 179.448 101.942 180 101.942 180.552 101.942 181 101.494 181 100.942L181 96.941C180.999 96.389 180.552 95.942 180 95.941zM180 103.942C178.344 103.94 177.002 102.598 177 100.942L177 96.941C177 95.284 178.343 93.941 180 93.941 181.657 93.941 183 95.284 183 96.941L183 100.942C182.998 102.598 181.656 103.94 180 103.942zM48 125.942C47.448 125.943 47.001 126.39 47 126.942L47 130.943C47 131.495 47.448 131.943 48 131.943 48.552 131.943 49 131.495 49 130.943L49 126.942C48.999 126.39 48.552 125.943 48 125.942zM48 133.943C46.344 133.941 45.002 132.599 45 130.943L45 126.942C45 125.285 46.343 123.942 48 123.942 49.657 123.942 51 125.285 51 126.942L51 130.943C50.998 132.599 49.656 133.941 48 133.943z"/>
    <path fill="#475059" d="M77.998,83.138 L77.998,101.018 C78,103.226 79.79,105.015 81.998,105.018 L110.005,105.018 C112.213,105.015 114.003,103.226 114.005,101.018 L114.005,83.138 L77.998,83.138 Z M110.005,107.018 L81.998,107.018 C78.686,107.014 76.002,104.33 75.998,101.018 L75.998,81.138 L116.005,81.138 L116.005,101.018 C116.002,104.33 113.318,107.014 110.005,107.018 Z"/>
    <path fill="#475059" d="M86.999 81.138L88.999 81.138 88.999 70.013C88.999 69.461 88.551 69.013 87.999 69.013 87.447 69.013 86.999 69.461 86.999 70.013L86.999 81.138zM90.999 83.138L84.999 83.138 84.999 70.013C84.999 68.356 86.342 67.013 87.999 67.013 89.656 67.013 90.999 68.356 90.999 70.013L90.999 83.138zM103.001 81.138L105.001 81.138 105.001 70.013C105.001 69.461 104.553 69.013 104.001 69.013 103.449 69.013 103.001 69.461 103.001 70.013L103.001 81.138zM107.001 83.138L101.001 83.138 101.001 70.013C101.001 68.356 102.344 67.013 104.001 67.013 105.658 67.013 107.001 68.356 107.001 70.013L107.001 83.138z"/>
    <polygon fill="#475059" points="97 189 99 189 99 106.14 97 106.14"/>
    <polygon fill="#475059" points="93 189 95 189 95 106.139 93 106.139"/>
    <path fill="#DEDEDD" d="M79.996 85.137L112.004 85.137 112.004 94.137C112.004 95.794 110.66 97.137 109.004 97.137L82.996 97.137C81.34 97.137 79.996 95.794 79.996 94.137L79.996 85.137M96 43.021C106.241 43.026 114.983 50.422 116.685 60.521 118.687 49.097 111.049 38.213 99.625 36.211 88.201 34.209 77.317 41.847 75.315 53.271 74.895 55.67 74.895 58.123 75.315 60.521 77.017 50.422 85.759 43.026 96 43.021"/>
    <polygon fill="#FFD15D" points="94 78.022 98 78.022 98 69.021 94 69.021"/>
    <polygon fill="#FFD15D" points="94 45.021 98 45.021 98 36.02 94 36.02"/>
    <path fill="#475059" d="M96,79.021 C93.932,79.023 91.873,78.733 89.886,78.16 L90.44,76.238 C94.06,77.274 97.896,77.278 101.518,76.251 L102.068,78.173 C100.095,78.737 98.052,79.022 96,79.021"/>
    <path fill="#475059" d="M85.608,76.417 C74.898,70.677 70.869,57.343 76.609,46.634 C82.348,35.924 95.683,31.895 106.392,37.635 C117.101,43.374 121.13,56.708 115.391,67.418 C113.407,71.12 110.405,74.176 106.739,76.227 L105.761,74.482 C115.401,69.09 118.846,56.905 113.455,47.265 C108.063,37.624 95.878,34.18 86.238,39.571 C76.597,44.963 73.153,57.148 78.544,66.788 C80.408,70.121 83.188,72.851 86.554,74.655 L85.608,76.417"/>
    <path fill="#475059" d="M88 55.021C86.895 55.021 86 55.916 86 57.021 86 58.125 86.895 59.021 88 59.021 89.105 59.021 90 58.125 90 57.021 89.999 55.917 89.104 55.022 88 55.021zM88 61.021C85.791 61.021 84 59.23 84 57.021 84 54.811 85.791 53.021 88 53.021 90.209 53.021 92 54.811 92 57.021 91.997 59.229 90.208 61.018 88 61.021zM104 55.021C102.895 55.021 102 55.916 102 57.021 102 58.125 102.895 59.021 104 59.021 105.105 59.021 106 58.125 106 57.021 105.999 55.917 105.104 55.022 104 55.021zM104 61.021C101.791 61.021 100 59.23 100 57.021 100 54.811 101.791 53.021 104 53.021 106.209 53.021 108 54.811 108 57.021 107.997 59.229 106.208 61.018 104 61.021z"/>
  </g>
</svg>
