<svg xmlns="http://www.w3.org/2000/svg" width="192" height="160" viewBox="0 0 192 160">
  <g fill="none" fill-rule="evenodd">
    <path fill="#FFD15D" d="M123.242,102 L134,112.758 L144.758,102 L141,102 L141,50 C141,25.147 120.853,5 96,5 C71.147,5 51,25.147 51,50 L51,102 L47.242,102 L58,112.758 L68.758,102 L65,102 L65,50 C65,32.879 78.879,19 96,19 C113.121,19 127,32.879 127,50 L127,102 L123.242,102"/>
    <path fill="#DEDEDD" d="M96,100.002 C99.969,100.003 103.562,102.352 105.155,105.987 C107.377,100.931 105.079,95.031 100.023,92.809 C94.967,90.587 89.067,92.885 86.845,97.941 C85.718,100.505 85.718,103.424 86.845,105.987 C88.438,102.352 92.031,100.003 96,100.002"/>
    <polygon fill="#475059" points="70.999 67.995 121.001 67.995 121.001 65.995 70.999 65.995"/>
    <polyline fill="#475059" points="165 160 27 160 27 65.494 45.001 65.494 45.001 67.494 29 67.494 29 158 163 158 163 67.494 147.001 67.494 147.001 65.494 165 65.494 165 160"/>
    <path fill="#475059" d="M118.414,100 L134,115.586 L149.586,100 L143,100 L143,50 C143,24.043 121.957,3 96,3 C70.043,3 49,24.043 49,50 L49,100 L42.414,100 L58,115.586 L73.586,100 L67,100 L67,50 C67,33.984 79.984,21 96,21 C112.016,21 125,33.984 125,50 L125,100 L118.414,100 Z M134,118.415 L113.586,98.001 L123,98.001 L123,50 C123,35.088 110.912,23 96,23 C81.088,23 69,35.088 69,50 L69,98.001 L78.414,98.001 L58,118.415 L37.586,98.001 L47,98.001 L47,50 C47,22.938 68.938,1 96,1 C123.062,1 145,22.938 145,50 L145,98.001 L154.414,98.001 L134,118.415 Z"/>
    <polygon fill="#475059" points="57 100 59 100 59 98.001 57 98.001"/>
    <path fill="#475059" d="M94.979,13.015 L94.926,11.016 C95.282,11.005 95.636,10.999 96.001,11.001 C96.331,11.001 96.661,11.006 96.99,11.014 L96.939,13.013 C96.61,13.005 96.31,13.01 95.952,13.001 C95.625,13.001 95.302,13.006 94.979,13.015 Z M100.846,13.316 C100.201,13.231 99.552,13.164 98.897,13.113 L99.052,11.119 C99.741,11.173 100.426,11.244 101.105,11.333 L100.846,13.316 Z M91.075,13.326 L90.811,11.344 C91.49,11.253 92.175,11.181 92.865,11.126 L93.023,13.12 C92.368,13.172 91.719,13.241 91.075,13.326 Z M104.697,14.028 C104.063,13.876 103.424,13.741 102.78,13.621 L103.144,11.654 C103.823,11.78 104.497,11.924 105.164,12.084 L104.697,14.028 Z M87.227,14.047 L86.754,12.104 C87.421,11.942 88.094,11.797 88.772,11.669 L89.142,13.635 C88.497,13.756 87.859,13.894 87.227,14.047 Z M108.446,15.147 C107.834,14.929 107.214,14.725 106.585,14.538 L107.157,12.622 C107.818,12.819 108.472,13.033 109.118,13.264 L108.446,15.147 Z M83.478,15.174 L82.801,13.292 C83.446,13.06 84.1,12.844 84.762,12.646 L85.338,14.56 C84.711,14.749 84.091,14.954 83.478,15.174 Z M112.065,16.661 C111.478,16.377 110.881,16.109 110.277,15.856 L111.049,14.011 C111.686,14.278 112.315,14.561 112.935,14.86 L112.065,16.661 Z M79.876,16.69 L79.003,14.891 C79.62,14.591 80.246,14.308 80.88,14.041 L81.657,15.884 C81.056,16.137 80.462,16.406 79.876,16.69 Z M115.502,18.553 C114.946,18.208 114.382,17.878 113.809,17.561 L114.773,15.809 C115.377,16.142 115.971,16.49 116.556,16.852 L115.502,18.553 Z M76.452,18.581 L75.394,16.884 C75.976,16.521 76.568,16.173 77.171,15.839 L78.14,17.589 C77.567,17.906 77.005,18.236 76.452,18.581 Z M118.716,20.793 C118.201,20.393 117.675,20.005 117.139,19.63 L118.283,17.99 C118.849,18.384 119.402,18.793 119.944,19.215 L118.716,20.793 Z M73.244,20.825 L72.014,19.248 C72.556,18.825 73.108,18.417 73.671,18.022 L74.819,19.66 C74.284,20.035 73.759,20.423 73.244,20.825 Z M121.676,23.36 C121.206,22.907 120.724,22.467 120.23,22.039 L121.541,20.528 C122.062,20.979 122.569,21.444 123.064,21.922 L121.676,23.36 Z M70.289,23.394 L68.9,21.955 C69.395,21.477 69.901,21.012 70.421,20.56 L71.733,22.069 C71.241,22.498 70.76,22.939 70.289,23.394 Z M124.349,26.225 C123.928,25.724 123.495,25.235 123.05,24.757 L124.513,23.393 C124.981,23.896 125.437,24.411 125.88,24.938 L124.349,26.225 Z M67.619,26.26 L66.086,24.977 C66.527,24.448 66.983,23.932 67.453,23.428 L68.916,24.792 C68.472,25.269 68.039,25.758 67.619,26.26 Z M126.704,29.35 C126.34,28.808 125.962,28.277 125.569,27.757 L127.165,26.553 C127.58,27.102 127.98,27.662 128.364,28.234 L126.704,29.35 Z M65.266,29.394 L63.605,28.278 C63.99,27.706 64.389,27.145 64.802,26.595 L66.401,27.795 C66.01,28.317 65.631,28.85 65.266,29.394 Z M128.717,32.706 C128.411,32.128 128.091,31.56 127.756,31.001 L129.471,29.973 C129.824,30.562 130.162,31.16 130.484,31.769 L128.717,32.706 Z M63.255,32.759 L61.485,31.826 C61.808,31.216 62.145,30.615 62.498,30.024 L64.215,31.049 C63.88,31.61 63.56,32.18 63.255,32.759 Z M130.359,36.249 C130.118,35.644 129.86,35.046 129.586,34.457 L131.4,33.615 C131.689,34.238 131.962,34.869 132.217,35.509 L130.359,36.249 Z M61.61,36.32 L59.753,35.58 C60.008,34.938 60.28,34.305 60.568,33.68 L62.385,34.516 C62.112,35.109 61.854,35.711 61.61,36.32 Z M131.62,39.958 C131.443,39.328 131.25,38.704 131.04,38.088 L132.935,37.445 C133.155,38.096 133.359,38.753 133.546,39.418 L131.62,39.958 Z M60.357,40.034 L58.432,39.497 C58.617,38.832 58.82,38.174 59.039,37.523 L60.934,38.163 C60.726,38.78 60.533,39.403 60.357,40.034 Z M132.481,43.781 C132.371,43.134 132.244,42.493 132.102,41.858 L134.053,41.419 C134.203,42.088 134.336,42.763 134.452,43.444 L132.481,43.781 Z M59.508,43.857 L57.535,43.526 C57.649,42.844 57.781,42.169 57.931,41.499 L59.882,41.935 C59.74,42.569 59.616,43.21 59.508,43.857 Z M132.93,47.671 C132.888,47.015 132.83,46.364 132.756,45.718 L134.742,45.489 C134.82,46.169 134.882,46.854 134.926,47.543 L132.93,47.671 Z M59.067,47.747 L57.071,47.628 C57.112,46.937 57.172,46.251 57.25,45.569 L59.236,45.798 C59.162,46.443 59.106,47.093 59.067,47.747 Z M135,51.63 L133,51.63 L132.998,49.626 L134.998,49.61 L135,51.63 Z M59,51.71 L57,51.71 L57.001,49.688 L59.001,49.708 L59,51.71 Z M133,55.656 L135,55.656 L135,53.643 L133,53.643 L133,55.656 Z M57,55.736 L59,55.736 L59,53.723 L57,53.723 L57,55.736 Z M133,59.681 L135,59.681 L135,57.668 L133,57.668 L133,59.681 Z M57,59.761 L59,59.761 L59,57.748 L57,57.748 L57,59.761 Z M133,63.706 L135,63.706 L135,61.693 L133,61.693 L133,63.706 Z M57,63.786 L59,63.786 L59,61.773 L57,61.773 L57,63.786 Z M133,67.732 L135,67.732 L135,65.719 L133,65.719 L133,67.732 Z M57,67.812 L59,67.812 L59,65.799 L57,65.799 L57,67.812 Z M133,71.756 L135,71.756 L135,69.744 L133,69.744 L133,71.756 Z M57,71.836 L59,71.836 L59,69.824 L57,69.824 L57,71.836 Z M133,75.782 L135,75.782 L135,73.769 L133,73.769 L133,75.782 Z M57,75.862 L59,75.862 L59,73.849 L57,73.849 L57,75.862 Z M133,79.807 L135,79.807 L135,77.794 L133,77.794 L133,79.807 Z M57,79.887 L59,79.887 L59,77.874 L57,77.874 L57,79.887 Z M133,83.832 L135,83.832 L135,81.819 L133,81.819 L133,83.832 Z M57,83.912 L59,83.912 L59,81.899 L57,81.899 L57,83.912 Z M133,87.858 L135,87.858 L135,85.845 L133,85.845 L133,87.858 Z M57,87.938 L59,87.938 L59,85.925 L57,85.925 L57,87.938 Z M133,91.882 L135,91.882 L135,89.87 L133,89.87 L133,91.882 Z M57,91.962 L59,91.962 L59,89.95 L57,89.95 L57,91.962 Z M133,95.908 L135,95.908 L135,93.895 L133,93.895 L133,95.908 Z M57,95.988 L59,95.988 L59,93.975 L57,93.975 L57,95.988 Z"/>
    <polygon fill="#475059" points="133 100.001 135 100.001 135 98.001 133 98.001"/>
    <path fill="#475059" d="M87.181,130.998 L104.819,130.998 L101.212,109.354 L101.664,108.987 C105.527,105.859 106.122,100.192 102.994,96.329 C99.866,92.466 94.199,91.871 90.336,94.999 C86.473,98.127 85.878,103.794 89.006,107.657 C89.401,108.146 89.847,108.592 90.336,108.987 L90.788,109.354 L87.181,130.998 Z M107.181,132.998 L84.819,132.998 L88.627,110.156 C84.118,106.084 83.765,99.128 87.837,94.619 C91.909,90.111 98.865,89.757 103.373,93.829 C107.881,97.901 108.235,104.857 104.163,109.366 C103.913,109.642 103.65,109.906 103.373,110.156 L107.181,132.998 Z"/>
    <polygon fill="#DEDEDD" points="31.001 156.047 161.07 156.047 161.07 146.047 31.001 146.047"/>
    <path fill="#475059" d="M23.969,42.011 L27.546,42.011 L29.32,37.987 L32.616,36.085 L36.987,36.56 L38.775,33.461 L36.179,29.913 L36.179,26.108 L38.775,22.56 L36.987,19.461 L32.616,19.936 L29.32,18.034 L27.546,14.011 L23.969,14.011 L22.194,18.034 L18.898,19.936 L14.527,19.461 L12.739,22.56 L15.336,26.108 L15.336,29.913 L12.739,33.461 L14.527,36.56 L18.898,36.085 L22.194,37.987 L23.969,42.011 Z M28.851,44.011 L22.664,44.011 L20.628,39.393 L18.465,38.144 L13.447,38.689 L10.354,33.332 L13.336,29.26 L13.336,26.762 L10.354,22.689 L13.447,17.333 L18.465,17.878 L20.628,16.629 L22.664,12.011 L28.851,12.011 L30.887,16.629 L33.05,17.878 L38.067,17.333 L41.16,22.689 L38.179,26.762 L38.179,29.26 L41.16,33.332 L38.067,38.689 L33.05,38.143 L30.887,39.393 L28.851,44.011 Z"/>
    <path fill="#475059" d="M25.757,26.011 C24.652,26.011 23.757,26.906 23.757,28.011 C23.757,29.115 24.652,30.011 25.757,30.011 C26.861,30.011 27.757,29.115 27.757,28.011 C27.756,26.907 26.861,26.012 25.757,26.011 Z M25.757,32.011 C23.548,32.011 21.757,30.22 21.757,28.011 C21.757,25.802 23.548,24.011 25.757,24.011 C27.966,24.011 29.757,25.802 29.757,28.011 C29.754,30.219 27.965,32.008 25.757,32.011 Z"/>
    <path fill="#475059" d="M25.757,22.011 C22.443,22.011 19.757,24.697 19.757,28.011 C19.757,31.324 22.443,34.011 25.757,34.011 C29.07,34.011 31.757,31.324 31.757,28.011 C31.753,24.698 29.069,22.014 25.757,22.011 Z M25.757,36.011 C21.339,36.011 17.757,32.429 17.757,28.011 C17.757,23.592 21.339,20.011 25.757,20.011 C30.175,20.011 33.757,23.592 33.757,28.011 C33.752,32.427 30.173,36.006 25.757,36.011 Z"/>
    <polygon fill="#48515A" points="6 63.024 8 63.024 8 59.024 6 59.024"/>
    <polygon fill="#48515A" points="6 73.024 8 73.024 8 69.024 6 69.024"/>
    <polygon fill="#48515A" points="10 67.024 14 67.024 14 65.024 10 65.024"/>
    <polygon fill="#48515A" points="0 67.024 4 67.024 4 65.024 0 65.024"/>
    <polygon fill="#48515A" points="184 141 186 141 186 137 184 137"/>
    <polygon fill="#48515A" points="184 151 186 151 186 147 184 147"/>
    <polygon fill="#48515A" points="188 145 192 145 192 143 188 143"/>
    <polygon fill="#48515A" points="178 145 182 145 182 143 178 143"/>
    <path fill="#5FE0ED" d="M175.018,10.001 C176.675,10.001 178.018,11.344 178.018,13.001 C178.018,14.658 176.675,16.001 175.018,16.001 C173.361,16.001 172.018,14.658 172.018,13.001 C172.018,11.344 173.361,10.001 175.018,10.001"/>
    <path fill="#FFD15D" d="M13.017,91.983 C15.778,91.983 18.017,94.222 18.017,96.983 C18.017,99.744 15.778,101.983 13.017,101.983 C10.255,101.983 8.017,99.744 8.017,96.983 C8.017,94.222 10.255,91.983 13.017,91.983"/>
    <path fill="#F58E70" d="M183.783,121.04 C184.887,121.04 185.783,121.936 185.783,123.04 C185.783,124.145 184.887,125.04 183.783,125.04 C182.678,125.04 181.783,124.145 181.783,123.04 C181.783,121.936 182.678,121.04 183.783,121.04"/>
    <path fill="#F58E70" d="M183.783,122.04 C183.231,122.04 182.783,122.488 182.783,123.04 C182.783,123.592 183.231,124.04 183.783,124.04 C184.335,124.04 184.783,123.592 184.783,123.04 C184.783,122.488 184.335,122.041 183.783,122.04 Z M183.783,126.04 C182.126,126.04 180.783,124.697 180.783,123.04 C180.783,121.383 182.126,120.04 183.783,120.04 C185.44,120.04 186.783,121.383 186.783,123.04 C186.781,124.696 185.439,126.038 183.783,126.04 Z"/>
    <path fill="#475059" d="M165.342,33.966 C159.41,33.966 154.601,38.775 154.601,44.707 C154.601,50.639 159.41,55.448 165.342,55.448 C171.274,55.448 176.083,50.639 176.083,44.707 C176.076,38.778 171.271,33.972 165.342,33.966 Z M165.342,57.448 C158.305,57.448 152.601,51.743 152.601,44.707 C152.601,37.67 158.306,31.966 165.342,31.966 C172.379,31.966 178.083,37.67 178.083,44.707 C178.075,51.74 172.375,57.44 165.342,57.448 Z"/>
    <path fill="#475059" d="M165.341,33.966 C162.456,33.966 160.019,38.885 160.019,44.707 C160.019,50.529 162.456,55.448 165.341,55.448 C168.226,55.448 170.663,50.529 170.663,44.707 C170.663,38.885 168.226,33.966 165.341,33.966 Z M165.341,57.448 C161.235,57.448 158.019,51.852 158.019,44.707 C158.019,37.562 161.235,31.966 165.341,31.966 C169.446,31.966 172.663,37.562 172.663,44.707 C172.663,51.852 169.446,57.448 165.341,57.448 Z"/>
    <polygon fill="#475059" points="153.601 45.707 177.083 45.707 177.083 43.707 153.601 43.707"/>
  </g>
</svg>
