<svg xmlns="http://www.w3.org/2000/svg" xmlns:xlink="http://www.w3.org/1999/xlink" width="192" height="174" viewBox="0 0 192 174">
  <defs>
    <polygon id="cc447-a" points=".996 0 181 0 181 173.94 .996 173.94"/>
  </defs>
  <g fill="none" fill-rule="evenodd">
    <polyline fill="#DEDEDD" points="189.703 106.24 161.703 94.24 173.93 123.849 178.763 114.129 185.844 121.209 188.767 118.476 181.47 111.179 189.703 106.24"/>
    <g transform="translate(5)">
      <mask id="cc447-b" fill="#fff">
        <use xlink:href="#cc447-a"/>
      </mask>
      <path fill="#FFD15D" d="M87.601,0 C57.535,0 32.033,23.891 29.543,53.827 L29.282,56.971 L26.166,57.472 C9.834,60.118 -1.26,75.502 1.386,91.834 C3.736,106.34 16.261,117 30.957,117 L144.246,117 C164.542,117.002 180.998,100.551 181,80.254 C181.002,60.883 165.967,44.836 146.636,43.578 L143.902,43.403 L143.06,40.796 C135.376,16.609 112.978,0.133 87.601,0" mask="url(#cc447-b)"/>
      <path fill="#475059" d="M84.46,172 L97.541,172 L102.068,159.268 L113.437,154.56 L125.641,160.36 L134.891,151.111 L129.089,138.907 L133.798,127.538 L146.53,123.01 L146.53,109.929 L133.798,105.402 L129.089,94.033 L134.891,81.829 L125.641,72.579 L113.437,78.38 L102.068,73.671 L97.541,60.94 L84.46,60.94 L79.932,73.671 L68.563,78.38 L56.359,72.579 L47.109,81.829 L52.911,94.033 L48.202,105.402 L35.47,109.929 L35.47,123.01 L48.202,127.538 L52.911,138.907 L47.109,151.111 L56.359,160.36 L68.563,154.56 L79.932,159.268 L84.46,172 Z M98.952,174 L83.048,174 L78.345,160.776 L68.619,156.747 L55.943,162.772 L44.697,151.527 L50.723,138.851 L46.694,129.125 L33.47,124.421 L33.47,108.518 L46.694,103.815 L50.723,94.089 L44.697,81.413 L55.943,70.167 L68.619,76.193 L78.345,72.164 L83.048,58.94 L98.952,58.94 L103.655,72.164 L113.381,76.193 L126.057,70.167 L137.303,81.413 L131.277,94.089 L135.306,103.815 L148.53,108.518 L148.53,124.421 L135.306,129.125 L131.277,138.851 L137.303,151.527 L126.057,162.772 L113.381,156.747 L103.655,160.776 L98.952,174 Z" mask="url(#cc447-b)"/>
    </g>
    <path fill="#475059" d="M96,103.463 C88.816,103.459 82.989,109.278 82.985,116.462 C82.981,123.646 88.801,129.473 95.984,129.477 C103.168,129.481 108.995,123.661 108.999,116.478 C109,114.768 108.664,113.075 108.01,111.495 C105.994,106.64 101.257,103.472 96,103.463 Z M96,131.478 C87.713,131.48 80.994,124.764 80.992,116.477 C80.99,108.19 87.706,101.471 95.993,101.469 C102.062,101.467 107.534,105.122 109.858,110.729 C113.023,118.396 109.374,127.176 101.708,130.341 C99.898,131.089 97.959,131.475 96,131.478 Z"/>
    <path fill="#475059" d="M96,99.46 C86.59,99.444 78.948,107.059 78.932,116.469 C78.915,125.88 86.531,133.521 95.941,133.538 C105.351,133.554 112.993,125.939 113.009,116.529 C113.021,109.632 108.875,103.409 102.506,100.764 C100.444,99.906 98.233,99.463 96,99.46 Z M96.024,135.47 C85.53,135.485 77.011,126.989 76.996,116.494 C76.982,106 85.478,97.48 95.972,97.466 C106.467,97.452 114.986,105.947 115,116.442 C115.011,124.137 110.38,131.078 103.271,134.023 C100.973,134.975 98.511,135.466 96.024,135.47 Z"/>
    <path fill="#DEDEDD" d="M149.531,121.599 L149.531,116.402 C147.487,116.799 145.411,116.999 143.33,117 L129.989,117 C129.71,135.771 114.267,150.762 95.496,150.482 C77.118,150.209 62.287,135.377 62.013,117 L42.628,117 C42.575,117 42.523,116.996 42.47,116.996 L42.47,121.599 L54.709,125.951 L60.099,138.963 L54.522,150.695 L61.775,157.948 L73.507,152.371 L86.519,157.76 L90.871,170 L101.129,170 L105.481,157.761 L118.493,152.371 L130.225,157.948 L137.478,150.695 L131.901,138.962 L137.291,125.951 L149.531,121.599"/>
    <path fill="#DEDEDD" d="M116.977,117 C116.716,128.584 107.114,137.763 95.53,137.502 C84.313,137.249 75.281,128.216 75.028,117 L70.012,117 C70.3,131.353 82.168,142.755 96.52,142.468 C110.468,142.188 121.709,130.948 121.988,117 L116.977,117"/>
    <path fill="#F58E70" d="M85.025,117 C85.31,123.061 90.454,127.744 96.515,127.459 C102.177,127.193 106.708,122.663 106.974,117 L85.025,117"/>
    <polygon fill="#48515A" points="16 118.903 18 118.903 18 114.903 16 114.903"/>
    <polygon fill="#48515A" points="16 128.903 18 128.903 18 124.903 16 124.903"/>
    <polygon fill="#48515A" points="20 122.903 24 122.903 24 120.903 20 120.903"/>
    <polygon fill="#48515A" points="10 122.903 14 122.903 14 120.903 10 120.903"/>
    <polygon fill="#48515A" points="184 76.897 186 76.897 186 72.897 184 72.897"/>
    <polygon fill="#48515A" points="184 86.897 186 86.897 186 82.897 184 82.897"/>
    <polygon fill="#48515A" points="188 80.897 192 80.897 192 78.897 188 78.897"/>
    <polygon fill="#48515A" points="178 80.897 182 80.897 182 78.897 178 78.897"/>
    <polygon fill="#48515A" points="6 44.921 8 44.921 8 40.921 6 40.921"/>
    <polygon fill="#48515A" points="6 54.921 8 54.921 8 50.921 6 50.921"/>
    <polygon fill="#48515A" points="10 48.921 14 48.921 14 46.921 10 46.921"/>
    <polygon fill="#48515A" points="0 48.921 4 48.921 4 46.921 0 46.921"/>
    <path fill="#475059" d="M123,60.111 L126.578,60.111 L128.352,56.087 L131.647,54.185 L136.019,54.661 L137.808,51.561 L135.21,48.014 L135.21,44.208 L137.808,40.661 L136.019,37.561 L131.647,38.037 L128.352,36.134 L126.578,32.111 L123,32.111 L121.226,36.134 L117.93,38.037 L113.559,37.561 L111.77,40.661 L114.367,44.208 L114.367,48.014 L111.77,51.561 L113.559,54.661 L117.93,54.185 L121.226,56.087 L123,60.111 Z M127.881,62.111 L121.696,62.111 L119.659,57.493 L117.496,56.244 L112.479,56.79 L109.386,51.433 L112.367,47.36 L112.367,44.862 L109.386,40.79 L112.479,35.433 L117.496,35.978 L119.659,34.729 L121.696,30.111 L127.881,30.111 L129.918,34.729 L132.081,35.978 L137.099,35.433 L140.191,40.789 L137.21,44.862 L137.21,47.36 L140.191,51.433 L137.099,56.789 L132.081,56.244 L129.918,57.493 L127.881,62.111 Z"/>
    <path fill="#475059" d="M124.789,44.111 C123.684,44.111 122.789,45.006 122.789,46.111 C122.789,47.215 123.684,48.111 124.789,48.111 C125.893,48.111 126.789,47.215 126.789,46.111 C126.787,45.007 125.893,44.112 124.789,44.111 Z M124.789,50.111 C122.579,50.111 120.789,48.32 120.789,46.111 C120.789,43.902 122.579,42.111 124.789,42.111 C126.998,42.111 128.789,43.902 128.789,46.111 C128.786,48.319 126.997,50.108 124.789,50.111 Z"/>
    <path fill="#475059" d="M124.789,40.111 C121.475,40.111 118.789,42.797 118.789,46.111 C118.789,49.424 121.475,52.111 124.789,52.111 C128.102,52.111 130.789,49.424 130.789,46.111 C130.785,42.799 128.101,40.114 124.789,40.111 Z M124.789,54.111 C120.37,54.111 116.789,50.529 116.789,46.111 C116.789,41.693 120.37,38.111 124.789,38.111 C129.207,38.111 132.789,41.693 132.789,46.111 C132.784,50.527 129.205,54.106 124.789,54.111 Z"/>
    <path fill="#5FE0ED" d="M162.551,125.143 C163.897,125.143 164.989,126.235 164.989,127.581 C164.989,128.927 163.897,130.019 162.551,130.019 C161.205,130.019 160.113,128.927 160.113,127.581 C160.113,126.235 161.205,125.143 162.551,125.143"/>
    <path fill="#F58E70" d="M39.358,138.06 C40.705,138.06 41.796,139.151 41.796,140.498 C41.796,141.844 40.705,142.935 39.358,142.935 C38.012,142.935 36.921,141.844 36.921,140.498 C36.921,139.151 38.012,138.06 39.358,138.06"/>
    <path fill="#FFD15D" d="M156.547,25.083 C157.894,25.083 158.985,26.175 158.985,27.521 C158.985,28.867 157.894,29.959 156.547,29.959 C155.201,29.959 154.11,28.867 154.11,27.521 C154.11,26.175 155.201,25.083 156.547,25.083"/>
    <polyline fill="#FFF" points="179.697 96.234 151.697 84.234 163.924 113.843 168.757 104.123 176.868 112.234 179.697 109.405 171.464 101.173 179.697 96.234"/>
    <path fill="#48515A" d="M153.557,86.119 L164.008,111.428 L168.481,102.433 L176.868,110.82 L178.283,109.405 L169.852,100.974 L177.505,96.383 L153.557,86.119 Z M163.839,116.259 L149.836,82.349 L181.888,96.085 L173.077,101.372 L181.111,109.405 L176.868,113.648 L169.034,105.814 L163.839,116.259 Z"/>
  </g>
</svg>
