<svg xmlns="http://www.w3.org/2000/svg" xmlns:xlink="http://www.w3.org/1999/xlink" width="192" height="192" viewBox="0 0 192 192">
  <defs>
    <polygon id="cc450-a" points="0 0 106 0 106 37.94 0 37.94"/>
  </defs>
  <g fill="none" fill-rule="evenodd">
    <path fill="#48515A" d="M49.9 6.774C49.123 6.774 48.493 7.403 48.493 8.18 48.493 8.957 49.122 9.587 49.899 9.587 50.676 9.588 51.306 8.958 51.307 8.181 51.306 7.404 50.677 6.775 49.9 6.774zM49.9 11.587C48.019 11.588 46.493 10.063 46.493 8.181 46.493 6.3 48.018 4.774 49.899 4.774 51.781 4.774 53.306 6.299 53.307 8.18 53.307 8.18 53.307 8.18 53.307 8.181 53.304 10.061 51.781 11.585 49.9 11.587zM59.527 6.774C58.75 6.774 58.12 7.403 58.12 8.18 58.12 8.957 58.749 9.587 59.526 9.587 60.303 9.588 60.933 8.958 60.934 8.181 60.933 7.404 60.304 6.775 59.527 6.774zM59.527 11.587C57.646 11.588 56.12 10.063 56.12 8.181 56.12 6.3 57.645 4.774 59.526 4.774 61.408 4.774 62.933 6.299 62.934 8.18 62.934 8.18 62.934 8.18 62.934 8.181 62.931 10.061 61.408 11.585 59.527 11.587zM69.154 6.774C68.377 6.774 67.748 7.404 67.748 8.181 67.748 8.958 68.378 9.588 69.155 9.587 69.932 9.587 70.562 8.957 70.562 8.181 70.561 7.404 69.931 6.774 69.154 6.774zM69.154 11.587C67.273 11.587 65.748 10.062 65.748 8.18 65.748 6.299 67.274 4.774 69.155 4.774 71.037 4.774 72.561 6.299 72.561 8.181 72.559 10.061 71.035 11.585 69.154 11.587z"/>
    <polygon fill="#DEDEDD" points="43 15 149 15 149 1 43 1"/>
    <polyline fill="#DEDEDD" points="170 101.724 166.604 98.329 170 96.292 170 91.317 146.837 81.39 159.064 111 163.897 101.279 170 107.381 170 101.724"/>
    <path fill="#5FE0ED" d="M179.02,26 C180.677,26 182.02,27.343 182.02,29 C182.02,30.657 180.677,32 179.02,32 C177.363,32 176.02,30.657 176.02,29 C176.02,27.343 177.363,26 179.02,26"/>
    <polyline fill="#DEDEDD" points="42 111.993 42 34 23.318 34 42 111.993"/>
    <polyline fill="#DEDEDD" points="149 111.993 149 34 167.972 34 149 111.993"/>
    <path fill="#DEDEDD" d="M21,114.983 L21,128.14 C21,129.469 22.096,131 23.425,131 L167.613,131 C168.943,131 170,129.469 170,128.14 L170,115.205 L21,114.983"/>
    <polygon fill="#DEDEDD" points="79 145 113 145 113 131 79 131"/>
    <path fill="#48515A" d="M22 56L20 56 20 36.192C20.025 34.402 21.496 32.97 23.286 32.995 23.332 32.996 23.379 32.997 23.425 33L42 33 42 35 23.425 35C22.725 34.917 22.09 35.417 22.007 36.118 22.004 36.142 22.001 36.167 22 36.192L22 56M167.613 132L23.425 132C21.465 132 20 129.962 20 128.14L20 92 22 92 22 128.14C22 129.027 22.746 130 23.425 130L167.613 130C168.274 130 169 129.027 169 128.14L169 36.064C169.009 35.293 168.392 34.66 167.621 34.649L148.869 34.768 148.857 32.768 167.615 32.649C169.492 32.659 171.007 34.187 171 36.064L171 128.14C171 129.962 169.552 132 167.613 132"/>
    <polygon fill="#48515A" points="69 146 122 146 122 144 69 144"/>
    <polygon fill="#48515A" points="78 145 80 145 80 131 78 131"/>
    <polygon fill="#48515A" points="111 145 113 145 113 131 111 131"/>
    <polyline fill="#48515A" points="150 115 148 115 148 2 44 2 44 115 42 115 42 0 150 0 150 115"/>
    <g transform="translate(30 154)">
      <mask id="cc450-b" fill="#fff">
        <use xlink:href="#cc450-a"/>
      </mask>
      <path fill="#DEDEDD" d="M3,1 L103,1 C104.105,1 105,1.895 105,3 L105,35 C105,36.105 104.105,37 103,37 L3,37 C1.895,37 1,36.105 1,35 L1,3 C1,1.895 1.895,1 3,1" mask="url(#cc450-b)"/>
      <path fill="#48515A" d="M3,2 C2.448,2.001 2,2.448 2,3 L2,35 C2.001,35.552 2.448,35.999 3,36 L103,36 C103.552,35.999 103.999,35.552 104,35 L104,3 C103.999,2.448 103.552,2.001 103,2 L3,2 Z M103,38 L3,38 C1.344,37.998 0.002,36.656 0,35 L0,3 C0.002,1.344 1.344,0.002 3,0 L103,0 C104.656,0.002 105.998,1.344 106,3 L106,35 C105.998,36.656 104.656,37.998 103,38 Z" mask="url(#cc450-b)"/>
    </g>
    <path fill="#FFF" d="M36 162L42 162 42 160 36 160 36 162zM34 164L44 164 44 158 34 158 34 164zM48 162L50 162 50 160 48 160 48 162zM46 164L52 164 52 158 46 158 46 164zM56 162L58 162 58 160 56 160 56 162zM54 164L60 164 60 158 54 158 54 164zM64 162L66 162 66 160 64 160 64 162zM62 164L68 164 68 158 62 158 62 164zM72 162L74 162 74 160 72 160 72 162zM70 164L76 164 76 158 70 158 70 164zM80 162L82 162 82 160 80 160 80 162zM78 164L84 164 84 158 78 158 78 164zM88 162L90 162 90 160 88 160 88 162zM86 164L92 164 92 158 86 158 86 164zM96 162L98 162 98 160 96 160 96 162zM94 164L100 164 100 158 94 158 94 164zM104 162L106 162 106 160 104 160 104 162zM102 164L108 164 108 158 102 158 102 164zM112 162L114 162 114 160 112 160 112 162zM110 164L116 164 116 158 110 158 110 164zM120 162L122 162 122 160 120 160 120 162zM118 164L124 164 124 158 118 158 118 164zM128 162L130 162 130 160 128 160 128 162zM126 164L132 164 132 158 126 158 126 164zM36 170L38 170 38 168 36 168 36 170zM34 172L40 172 40 166 34 166 34 172zM44 170L46 170 46 168 44 168 44 170zM42 172L48 172 48 166 42 166 42 172zM52 170L54 170 54 168 52 168 52 170zM50 172L56 172 56 166 50 166 50 172zM60 170L62 170 62 168 60 168 60 170zM58 172L64 172 64 166 58 166 58 172zM68 170L70 170 70 168 68 168 68 170zM66 172L72 172 72 166 66 166 66 172zM76 170L78 170 78 168 76 168 76 170zM74 172L80 172 80 166 74 166 74 172zM84 170L86 170 86 168 84 168 84 170zM82 172L88 172 88 166 82 166 82 172zM92 170L94 170 94 168 92 168 92 170zM90 172L96 172 96 166 90 166 90 172zM100 170L102 170 102 168 100 168 100 170zM98 172L104 172 104 166 98 166 98 172zM108 170L110 170 110 168 108 168 108 170zM106 172L112 172 112 166 106 166 106 172zM116 170L118 170 118 168 116 168 116 170zM114 172L120 172 120 166 114 166 114 172zM124 170L130 170 130 168 124 168 124 170zM122 172L132 172 132 166 122 166 122 172zM36 178L42 178 42 176 36 176 36 178zM34 180L44 180 44 174 34 174 34 180zM48 178L50 178 50 176 48 176 48 178zM46 180L52 180 52 174 46 174 46 180zM56 178L58 178 58 176 56 176 56 178zM54 180L60 180 60 174 54 174 54 180zM64 178L66 178 66 176 64 176 64 178zM62 180L68 180 68 174 62 174 62 180zM72 178L74 178 74 176 72 176 72 178zM70 180L76 180 76 174 70 174 70 180zM80 178L82 178 82 176 80 176 80 178zM78 180L84 180 84 174 78 174 78 180zM88 178L90 178 90 176 88 176 88 178zM86 180L92 180 92 174 86 174 86 180zM96 178L98 178 98 176 96 176 96 178zM94 180L100 180 100 174 94 174 94 180zM104 178L106 178 106 176 104 176 104 178zM102 180L108 180 108 174 102 174 102 180zM112 178L114 178 114 176 112 176 112 178zM110 180L116 180 116 174 110 174 110 180zM120 178L122 178 122 176 120 176 120 178zM118 180L124 180 124 174 118 174 118 180zM128 178L130 178 130 176 128 176 128 178zM126 180L132 180 132 174 126 174 126 180zM36 186L38 186 38 184 36 184 36 186zM34 188L40 188 40 182 34 182 34 188zM44 186L46 186 46 184 44 184 44 186zM42 188L48 188 48 182 42 182 42 188zM52 186L54 186 54 184 52 184 52 186zM50 188L56 188 56 182 50 182 50 188zM60 186L62 186 62 184 60 184 60 186zM58 188L64 188 64 182 58 182 58 188zM68 186L106 186 106 184 68 184 68 186zM66 188L108 188 108 182 66 182 66 188zM112 186L114 186 114 184 112 184 112 186zM110 188L116 188 116 182 110 182 110 188zM120 186L122 186 122 184 120 184 120 186zM118 188L124 188 124 182 118 182 118 188zM128 186L130 186 130 184 128 184 128 186zM126 188L132 188 132 182 126 182 126 188z"/>
    <path fill="#48515A" d="M80,154 L80,153.992 C80.016,151.223 82.27,148.99 85.039,149 L170.05,149 C171.707,149 173.05,147.657 173.05,146 C173.05,144.343 171.707,143 170.05,143 L138.05,143 C135.274,143.008 133.015,140.768 133,137.992 L133,130 L135,130 L135,137.992 C135.014,139.664 136.378,141.01 138.05,141 L170.05,141 C172.811,141 175.05,143.239 175.05,146 C175.05,148.761 172.811,151 170.05,151 L85.039,151 C83.374,150.989 82.015,152.328 82,153.992 L80,154"/>
    <path fill="#DEDEDD" d="M150,158 L162,158 C164.209,158 166,159.791 166,162 L166,184 C166,186.209 164.209,188 162,188 L150,188 C147.791,188 146,186.209 146,184 L146,162 C146,159.791 147.791,158 150,158"/>
    <polygon fill="#48515A" points="155 166 157 166 157 158 155 158"/>
    <path fill="#48515A" d="M150,159 C148.344,159.002 147.002,160.344 147,162 L147,184 C147.002,185.656 148.344,186.998 150,187 L162,187 C163.656,186.998 164.998,185.656 165,184 L165,162 C164.998,160.344 163.656,159.002 162,159 L150,159 Z M162,189 L150,189 C147.24,188.997 145.003,186.76 145,184 L145,162 C145.003,159.24 147.24,157.003 150,157 L162,157 C164.76,157.003 166.997,159.24 167,162 L167,184 C166.997,186.76 164.76,188.997 162,189 Z"/>
    <polyline fill="#FFF" points="164.831 83.384 136.831 71.384 149.058 100.993 153.892 91.273 162.002 99.384 164.831 96.555 156.599 88.323 164.831 83.384"/>
    <path fill="#48515A" d="M138.691,73.269 L149.143,98.578 L153.615,89.582 L162.002,97.97 L163.417,96.555 L154.985,88.124 L162.64,83.533 L138.691,73.269 Z M148.975,103.409 L134.971,69.498 L167.022,83.235 L158.211,88.521 L166.245,96.555 L162.002,100.798 L154.168,92.963 L148.975,103.409 Z"/>
    <path fill="#FFF" d="M76.424,111 L9.023,111 C6.86,110.955 5.069,112.672 5.024,114.835 C5.024,114.858 5.023,114.88 5.023,114.903 L5.023,114.951 C5.019,117.17 6.805,118.977 9.023,119 L76.424,119 L85.099,115 L76.424,111"/>
    <path fill="#48515A" d="M9.023,112 C7.411,111.956 6.068,113.228 6.024,114.841 C6.024,114.861 6.024,114.882 6.023,114.903 C5.991,116.581 7.326,117.968 9.004,118 C9.011,118 9.017,118 9.023,118 L76.205,118 L82.711,115 L76.205,112 L9.023,112 Z M76.645,120 L9.023,120 C6.25,119.983 4.013,117.725 4.023,114.952 C4,112.24 6.179,110.023 8.891,109.999 C8.935,109.999 8.979,109.999 9.023,110 L76.645,110 L87.486,115 L76.645,120 Z"/>
    <polygon fill="#48515A" points="15 119 17 119 17 111 15 111"/>
    <polygon fill="#48515A" points="16 116 76 116 76 114 16 114"/>
    <path fill="#48515A" d="M17.021,15 C15.916,15 15.021,15.895 15.021,17 C15.021,18.105 15.916,19 17.021,19 C18.125,19 19.02,18.105 19.02,17 C19.019,15.896 18.125,15.001 17.021,15 Z M17.021,21 C14.811,21 13.02,19.209 13.02,17 C13.02,14.791 14.811,13 17.021,13 C19.23,13 21.021,14.791 21.021,17 C21.018,19.208 19.229,20.998 17.021,21 Z"/>
    <path fill="#FFD15D" d="M19.02,138 C21.782,138 24.02,140.239 24.02,143 C24.02,145.761 21.782,148 19.02,148 C16.259,148 14.02,145.761 14.02,143 C14.02,140.239 16.259,138 19.02,138"/>
    <polygon fill="#48515A" points="184 158 186 158 186 154 184 154"/>
    <polygon fill="#48515A" points="184 168 186 168 186 164 184 164"/>
    <polygon fill="#48515A" points="188 162 192 162 192 160 188 160"/>
    <polygon fill="#48515A" points="178 162 182 162 182 160 178 160"/>
    <polygon fill="#48515A" points="6 40 8 40 8 36 6 36"/>
    <polygon fill="#48515A" points="6 50 8 50 8 46 6 46"/>
    <polygon fill="#48515A" points="10 44 14 44 14 42 10 42"/>
    <polygon fill="#48515A" points="0 44 4 44 4 42 0 42"/>
    <path fill="#475059" d="M18.912,88.068 L22.489,88.068 L24.264,84.045 L27.559,82.143 L31.93,82.618 L33.719,79.519 L31.122,75.971 L31.122,72.166 L33.719,68.618 L31.93,65.519 L27.559,65.994 L24.264,64.092 L22.489,60.068 L18.912,60.068 L17.138,64.092 L13.842,65.994 L9.471,65.519 L7.682,68.618 L10.278,72.166 L10.278,75.971 L7.682,79.519 L9.471,82.618 L13.842,82.142 L17.138,84.045 L18.912,88.068 Z M23.794,90.068 L17.607,90.068 L15.571,85.45 L13.408,84.201 L8.391,84.747 L5.297,79.39 L8.278,75.317 L8.278,72.819 L5.297,68.747 L8.391,63.39 L13.408,63.936 L15.571,62.687 L17.607,58.068 L23.794,58.068 L25.83,62.687 L27.992,63.936 L33.01,63.39 L36.103,68.747 L33.122,72.819 L33.122,75.317 L36.103,79.39 L33.01,84.747 L27.992,84.201 L25.83,85.45 L23.794,90.068 Z"/>
    <path fill="#475059" d="M20.7,72.068 C19.596,72.068 18.7,72.964 18.7,74.068 C18.7,75.173 19.596,76.068 20.7,76.068 C21.805,76.068 22.7,75.173 22.7,74.068 C22.699,72.964 21.804,72.07 20.7,72.068 Z M20.7,78.068 C18.491,78.068 16.7,76.277 16.7,74.068 C16.7,71.859 18.491,70.068 20.7,70.068 C22.909,70.068 24.7,71.859 24.7,74.068 C24.698,76.276 22.908,78.066 20.7,78.068 Z"/>
    <path fill="#475059" d="M20.7,68.068 C17.386,68.068 14.7,70.755 14.7,74.068 C14.7,77.382 17.386,80.068 20.7,80.068 C24.014,80.068 26.7,77.382 26.7,74.068 C26.697,70.756 24.012,68.072 20.7,68.068 Z M20.7,82.068 C16.282,82.068 12.7,78.487 12.7,74.068 C12.7,69.65 16.282,66.068 20.7,66.068 C25.118,66.068 28.7,69.65 28.7,74.068 C28.695,78.484 25.116,82.063 20.7,82.068 Z"/>
    <path fill="#48515A" d="M65.774,81.498 L78.503,94.226 L96.181,76.549 L113.857,94.226 L126.586,81.498 L108.908,63.82 L126.586,46.143 L113.857,33.414 L96.181,51.092 L78.503,33.414 L65.774,46.143 L83.452,63.82 L65.774,81.498 Z M113.857,97.055 L96.181,79.377 L78.503,97.055 L62.946,81.498 L80.624,63.82 L62.946,46.143 L78.503,30.586 L96.181,48.264 L113.857,30.586 L129.414,46.143 L111.736,63.82 L129.414,81.498 L113.857,97.055 Z"/>
    <polyline fill="#F58E70" points="68.603 81.498 78.503 91.398 96.181 73.72 113.857 91.398 123.758 81.498 106.08 63.82 123.758 46.143 113.857 36.243 96.181 53.92 78.503 36.243 68.603 46.143 86.28 63.82 68.603 81.498"/>
  </g>
</svg>
