<svg xmlns="http://www.w3.org/2000/svg" width="250" height="250" viewBox="0 0 250 250">
  <g fill="none" fill-rule="evenodd">
    <path fill="#5FE0ED" d="M221,193.666 C221,194.77 220.105,195.666 219,195.666 C217.896,195.666 217,194.77 217,193.666 C217,192.561 217.896,191.666 219,191.666 C220.105,191.666 221,192.561 221,193.666"/>
    <path fill="#FFD15D" d="M69.58 94.405L66.56 90.684 50 90.684 50 188.007C50 190.586 52.098 192.684 54.677 192.684L55.234 192.684C57.143 192.684 58.794 191.323 59.16 189.45L69.666 135.606 69.58 94.405M79.471 116.684L75.667 136.18 75.667 136.286 75.584 136.713 116.703 136.713 111.18 165.017 70.05 165.017 65.052 190.584 65.049 190.599 65.049 190.6C64.983 190.934 64.898 191.259 64.801 191.58 64.771 191.679 64.735 191.775 64.702 191.873 64.627 192.094 64.547 192.313 64.457 192.527 64.436 192.578 64.421 192.633 64.399 192.684L183.23 192.684C185.14 192.684 186.791 191.323 187.156 189.45L201.355 116.684 79.471 116.684"/>
    <path fill="#F58E70" d="M174.038,161.76 L163,157.029 L177.724,192.684 L183.23,192.684 C185.14,192.684 186.791,191.323 187.156,189.45 L190.467,172.48 L183.911,185.667 L174.038,161.76"/>
    <polyline fill="#475059" points="48 187.684 46 187.684 46 86.684 68.465 86.684 73.354 92.707 71.802 93.968 67.513 88.684 48 88.684 48 187.684"/>
    <path fill="#475059" d="M183.23,196.684 L54.5,196.684 L54.5,194.684 L183.23,194.684 C186.094,194.684 188.571,192.644 189.12,189.833 L192.851,170.707 L194.814,171.089 L191.082,190.215 C190.351,193.963 187.049,196.684 183.23,196.684"/>
    <path fill="#475059" d="M55.234,196.684 L54.677,196.684 C49.893,196.684 46,192.791 46,188.007 L46,99.684 L48,99.684 L48,188.007 C48,191.688 50.995,194.684 54.677,194.684 L55.234,194.684 C58.097,194.684 60.574,192.644 61.123,189.833 L76.176,112.684 L206.21,112.684 L198.883,150.236 L196.92,149.853 L203.783,114.684 L77.824,114.684 L63.086,190.215 C62.354,193.963 59.052,196.684 55.234,196.684"/>
    <path fill="#48515A" d="M191.308,56.329 L189.308,56.329 L189.308,52.335 C189.308,49.026 186.617,46.335 183.308,46.335 L183.308,44.334 C187.719,44.334 191.308,47.923 191.308,52.335 L191.308,56.329"/>
    <polygon fill="#48515A" points="93.69 64.329 197.308 64.329 197.308 62.329 93.69 62.329"/>
    <polygon fill="#48515A" points="79.69 46.334 183.308 46.334 183.308 44.334 79.69 44.334"/>
    <path fill="#FFD15D" d="M187.308,52.335 L187.308,53.329 L97.69,53.329 L97.69,56.329 C97.69,58.534 95.896,60.329 93.69,60.329 C91.485,60.329 89.69,58.534 89.69,56.329 L89.69,52.335 C89.69,50.913 89.392,49.56 88.855,48.335 L183.308,48.335 C185.513,48.335 187.308,50.129 187.308,52.335"/>
    <path fill="#48515A" d="M72.742,135.332 C72.189,135.332 71.742,134.885 71.742,134.333 L71.69,52.335 C71.69,47.923 75.279,44.334 79.69,44.334 C84.101,44.334 87.69,47.923 87.69,52.335 L87.69,56.329 C87.69,59.638 90.382,62.329 93.69,62.329 C96.999,62.329 99.69,59.638 99.69,56.329 L99.69,55.329 L205.308,55.329 L205.308,56.329 C205.308,60.74 201.719,64.329 197.308,64.329 L178.806,64.329 L178.69,113.668 C178.688,114.219 178.241,114.666 177.69,114.666 C177.689,114.666 177.688,114.666 177.688,114.666 C177.135,114.664 176.688,114.215 176.69,113.663 L176.81,62.329 L197.308,62.329 C200.276,62.329 202.747,60.163 203.224,57.329 L101.628,57.329 C101.134,61.27 97.763,64.329 93.69,64.329 C89.279,64.329 85.69,60.74 85.69,56.329 L85.69,52.335 C85.69,49.026 82.999,46.335 79.69,46.335 C76.382,46.335 73.69,49.026 73.69,52.335 L73.69,55.331 L73.742,134.332 C73.742,134.884 73.294,135.332 72.742,135.332"/>
    <path fill="#475059" d="M68.167,160.357 L61.963,160.357 C57.732,160.357 54.29,156.915 54.29,152.684 C54.29,148.453 57.732,145.011 61.963,145.011 L88.655,145.011 C91.047,145.011 92.992,146.957 92.992,149.348 C92.992,151.739 91.047,153.684 88.655,153.684 L61.998,153.684 L61.998,151.684 L88.655,151.684 C89.944,151.684 90.992,150.636 90.992,149.348 C90.992,148.06 89.944,147.011 88.655,147.011 L61.963,147.011 C58.835,147.011 56.29,149.556 56.29,152.684 C56.29,155.813 58.835,158.357 61.963,158.357 L68.167,158.357 L68.167,160.357"/>
    <polyline fill="#475059" points="112.004 166.017 67 166.017 67 164.017 110.356 164.017 115.489 137.713 72.523 137.713 72.523 135.713 117.917 135.713 112.004 166.017"/>
    <path fill="#475059" d="M89,74.665 C87.346,74.665 86,76.011 86,77.665 L86,81.665 C86,83.32 87.346,84.665 89,84.665 C90.654,84.665 92,83.32 92,81.665 L92,77.665 C92,76.011 90.654,74.665 89,74.665 Z M89,86.665 C86.243,86.665 84,84.422 84,81.665 L84,77.665 C84,74.909 86.243,72.665 89,72.665 C91.757,72.665 94,74.909 94,77.665 L94,81.665 C94,84.422 91.757,86.665 89,86.665 Z"/>
    <polyline fill="#475059" points="100.998 85.665 98.998 85.665 98.998 74.665 96.999 74.665 96.999 72.665 100.998 72.665 100.998 85.665"/>
    <polygon fill="#475059" points="96.999 86.665 102.998 86.665 102.998 84.665 96.999 84.665"/>
    <path fill="#475059" d="M111,74.665 C109.346,74.665 108,76.011 108,77.665 L108,81.665 C108,83.32 109.346,84.665 111,84.665 C112.654,84.665 114,83.32 114,81.665 L114,77.665 C114,76.011 112.654,74.665 111,74.665 Z M111,86.665 C108.243,86.665 106,84.422 106,81.665 L106,77.665 C106,74.909 108.243,72.665 111,72.665 C113.757,72.665 116,74.909 116,77.665 L116,81.665 C116,84.422 113.757,86.665 111,86.665 Z"/>
    <polyline fill="#475059" points="122.998 85.665 120.998 85.665 120.998 74.665 118.999 74.665 118.999 72.665 122.998 72.665 122.998 85.665"/>
    <polygon fill="#475059" points="118.999 86.665 124.998 86.665 124.998 84.665 118.999 84.665"/>
    <path fill="#475059" d="M133.002,74.665 C131.348,74.665 130.002,76.011 130.002,77.665 L130.002,81.665 C130.002,83.32 131.348,84.665 133.002,84.665 C134.657,84.665 136.002,83.32 136.002,81.665 L136.002,77.665 C136.002,76.011 134.657,74.665 133.002,74.665 Z M133.002,86.665 C130.245,86.665 128.002,84.422 128.002,81.665 L128.002,77.665 C128.002,74.909 130.245,72.665 133.002,72.665 C135.759,72.665 138.002,74.909 138.002,77.665 L138.002,81.665 C138.002,84.422 135.759,86.665 133.002,86.665 Z"/>
    <polyline fill="#475059" points="145.001 85.665 143.001 85.665 143.001 74.665 141.001 74.665 141.001 72.665 145.001 72.665 145.001 85.665"/>
    <polygon fill="#475059" points="141.001 86.665 147 86.665 147 84.665 141.001 84.665"/>
    <path fill="#475059" d="M155.002,74.665 C153.348,74.665 152.002,76.011 152.002,77.665 L152.002,81.665 C152.002,83.32 153.348,84.665 155.002,84.665 C156.657,84.665 158.002,83.32 158.002,81.665 L158.002,77.665 C158.002,76.011 156.657,74.665 155.002,74.665 Z M155.002,86.665 C152.245,86.665 150.002,84.422 150.002,81.665 L150.002,77.665 C150.002,74.909 152.245,72.665 155.002,72.665 C157.759,72.665 160.002,74.909 160.002,77.665 L160.002,81.665 C160.002,84.422 157.759,86.665 155.002,86.665 Z"/>
    <polyline fill="#475059" points="167.001 85.665 165.001 85.665 165.001 74.665 163.001 74.665 163.001 72.665 167.001 72.665 167.001 85.665"/>
    <polygon fill="#475059" points="163.001 86.665 169 86.665 169 84.665 163.001 84.665"/>
    <path fill="#475059" d="M165,92.665 C163.346,92.665 162,94.011 162,95.665 L162,99.665 C162,101.32 163.346,102.666 165,102.666 C166.654,102.666 168,101.32 168,99.665 L168,95.665 C168,94.011 166.654,92.665 165,92.665 Z M165,104.666 C162.243,104.666 160,102.422 160,99.665 L160,95.665 C160,92.909 162.243,90.665 165,90.665 C167.757,90.665 170,92.909 170,95.665 L170,99.665 C170,102.422 167.757,104.666 165,104.666 Z"/>
    <polyline fill="#475059" points="88.998 103.666 86.998 103.666 86.998 92.665 84.999 92.665 84.999 90.665 88.998 90.665 88.998 103.666"/>
    <polygon fill="#475059" points="84.999 104.666 90.998 104.666 90.998 102.666 84.999 102.666"/>
    <path fill="#475059" d="M99,92.665 C97.346,92.665 96,94.011 96,95.665 L96,99.665 C96,101.32 97.346,102.666 99,102.666 C100.654,102.666 102,101.32 102,99.665 L102,95.665 C102,94.011 100.654,92.665 99,92.665 Z M99,104.666 C96.243,104.666 94,102.422 94,99.665 L94,95.665 C94,92.909 96.243,90.665 99,90.665 C101.757,90.665 104,92.909 104,95.665 L104,99.665 C104,102.422 101.757,104.666 99,104.666 Z"/>
    <polyline fill="#475059" points="110.998 103.666 108.998 103.666 108.998 92.665 106.999 92.665 106.999 90.665 110.998 90.665 110.998 103.666"/>
    <polygon fill="#475059" points="106.999 104.666 112.998 104.666 112.998 102.666 106.999 102.666"/>
    <path fill="#475059" d="M121.002,92.665 C119.348,92.665 118.002,94.011 118.002,95.665 L118.002,99.665 C118.002,101.32 119.348,102.666 121.002,102.666 C122.657,102.666 124.002,101.32 124.002,99.665 L124.002,95.665 C124.002,94.011 122.657,92.665 121.002,92.665 Z M121.002,104.666 C118.245,104.666 116.002,102.422 116.002,99.665 L116.002,95.665 C116.002,92.909 118.245,90.665 121.002,90.665 C123.759,90.665 126.002,92.909 126.002,95.665 L126.002,99.665 C126.002,102.422 123.759,104.666 121.002,104.666 Z"/>
    <polyline fill="#475059" points="133.001 103.666 131.001 103.666 131.001 92.665 129.001 92.665 129.001 90.665 133.001 90.665 133.001 103.666"/>
    <polygon fill="#475059" points="129.001 104.666 135 104.666 135 102.666 129.001 102.666"/>
    <path fill="#475059" d="M143.002,92.665 C141.348,92.665 140.002,94.011 140.002,95.665 L140.002,99.665 C140.002,101.32 141.348,102.666 143.002,102.666 C144.657,102.666 146.002,101.32 146.002,99.665 L146.002,95.665 C146.002,94.011 144.657,92.665 143.002,92.665 Z M143.002,104.666 C140.245,104.666 138.002,102.422 138.002,99.665 L138.002,95.665 C138.002,92.909 140.245,90.665 143.002,90.665 C145.759,90.665 148.002,92.909 148.002,95.665 L148.002,99.665 C148.002,102.422 145.759,104.666 143.002,104.666 Z"/>
    <polyline fill="#475059" points="155.001 103.666 153.001 103.666 153.001 92.665 151.001 92.665 151.001 90.665 155.001 90.665 155.001 103.666"/>
    <polygon fill="#475059" points="151.001 104.666 157 104.666 157 102.666 151.001 102.666"/>
    <path fill="#DFE0E0" d="M54.5,195.684 L54.677,195.684 C54.617,195.684 54.559,195.676 54.499,195.675 L54.5,195.684"/>
    <path fill="#48515A" d="M164.86,136.917 L183.995,183.252 L191.899,167.354 L206.046,181.5 L209.469,178.078 L195.192,163.801 L208.692,155.702 L164.86,136.917 Z M183.826,188.083 L161.14,133.146 L213.075,155.404 L198.418,164.198 L212.297,178.078 L206.046,184.329 L192.452,170.734 L183.826,188.083 Z"/>
    <path fill="#475059" d="M196.708,83.807 C194.588,83.807 192.862,85.533 192.862,87.653 C192.862,89.774 194.588,91.499 196.708,91.499 C198.829,91.499 200.555,89.774 200.555,87.653 C200.555,85.533 198.829,83.807 196.708,83.807 Z M196.708,93.499 C193.485,93.499 190.862,90.877 190.862,87.653 C190.862,84.43 193.485,81.807 196.708,81.807 C199.932,81.807 202.555,84.43 202.555,87.653 C202.555,90.877 199.932,93.499 196.708,93.499 Z"/>
    <path fill="#475059" d="M196.708 97.653C193.965 97.653 191.407 96.565 189.504 94.588 187.602 92.613 186.612 90.012 186.716 87.265 186.913 82.076 191.131 77.858 196.32 77.661 199.058 77.558 201.667 78.546 203.643 80.449 205.62 82.352 206.708 84.91 206.708 87.653L206.708 90.423C206.708 92.12 205.328 93.5 203.632 93.5 201.935 93.5 200.555 92.12 200.555 90.423L200.555 82.808 202.555 82.808 202.555 90.423C202.555 91.017 203.038 91.5 203.632 91.5 204.225 91.5 204.708 91.017 204.708 90.423L204.708 87.653C204.708 85.459 203.837 83.412 202.256 81.89 200.675 80.368 198.577 79.559 196.396 79.66 192.315 79.814 188.87 83.26 188.715 87.341 188.631 89.54 189.423 91.621 190.945 93.201 192.467 94.782 194.514 95.653 196.708 95.653 197.79 95.653 198.837 95.442 199.822 95.025 200.513 94.733 201.159 94.345 201.743 93.871L203.003 95.425C202.272 96.017 201.464 96.502 200.601 96.867 199.369 97.389 198.059 97.653 196.708 97.653M47.395 105.671C41.472 105.671 36.654 110.49 36.654 116.413 36.654 122.335 41.472 127.154 47.395 127.154 53.318 127.154 58.137 122.335 58.137 116.413 58.137 110.49 53.318 105.671 47.395 105.671zM47.395 129.154C40.37 129.154 34.654 123.438 34.654 116.413 34.654 109.387 40.37 103.671 47.395 103.671 54.421 103.671 60.137 109.387 60.137 116.413 60.137 123.438 54.421 129.154 47.395 129.154z"/>
    <path fill="#475059" d="M47.394,105.671 C44.509,105.671 42.072,110.59 42.072,116.413 C42.072,122.235 44.509,127.154 47.394,127.154 C50.279,127.154 52.716,122.235 52.716,116.413 C52.716,110.59 50.279,105.671 47.394,105.671 Z M47.394,129.154 C43.288,129.154 40.072,123.557 40.072,116.413 C40.072,109.268 43.288,103.671 47.394,103.671 C51.5,103.671 54.716,109.268 54.716,116.413 C54.716,123.557 51.5,129.154 47.394,129.154 Z"/>
    <polygon fill="#475059" points="35.654 117.413 59.136 117.413 59.136 115.413 35.654 115.413"/>
    <path fill="#F58E70" d="M54.661,67.647 C54.661,68.752 53.765,69.647 52.661,69.647 C51.556,69.647 50.661,68.752 50.661,67.647 C50.661,66.543 51.556,65.647 52.661,65.647 C53.765,65.647 54.661,66.543 54.661,67.647"/>
    <path fill="#F58E70" d="M52.661,66.647 C52.109,66.647 51.66,67.096 51.66,67.647 C51.66,68.199 52.109,68.647 52.661,68.647 C53.212,68.647 53.66,68.199 53.66,67.647 C53.66,67.096 53.212,66.647 52.661,66.647 Z M52.661,70.647 C51.006,70.647 49.66,69.302 49.66,67.647 C49.66,65.993 51.006,64.647 52.661,64.647 C54.315,64.647 55.661,65.993 55.661,67.647 C55.661,69.302 54.315,70.647 52.661,70.647 Z"/>
    <polygon fill="#48515A" points="35 49.665 37 49.665 37 45.665 35 45.665"/>
    <polygon fill="#48515A" points="35 59.665 37 59.665 37 55.665 35 55.665"/>
    <polygon fill="#48515A" points="39 53.665 43 53.665 43 51.665 39 51.665"/>
    <polygon fill="#48515A" points="29 53.665 33 53.665 33 51.665 29 51.665"/>
    <path fill="#FFD15D" d="M199,203.666 C199,204.77 198.105,205.666 197,205.666 C195.896,205.666 195,204.77 195,203.666 C195,202.561 195.896,201.666 197,201.666 C198.105,201.666 199,202.561 199,203.666"/>
  </g>
</svg>
