<svg xmlns="http://www.w3.org/2000/svg" width="250" height="250" viewBox="0 0 250 250">
  <g fill="none" fill-rule="evenodd">
    <path fill="#5FE0ED" d="M101,57.357 C101,58.462 100.105,59.357 99,59.357 C97.896,59.357 97,58.462 97,57.357 C97,56.253 97.896,55.357 99,55.357 C100.105,55.357 101,56.253 101,57.357"/>
    <polyline fill="#5FE0ED" points="68.861 121.353 89.333 121.353 135.511 75.107 115.107 75.107 68.861 121.353"/>
    <path fill="#475059" d="M195.755 128.15L194.341 126.736 198.373 122.705C199.464 121.613 200.066 120.161 200.066 118.617 200.066 117.073 199.464 115.621 198.373 114.529L154.288 69.795C154.147 69.654 153.996 69.519 153.839 69.392L153.726 69.31C153.603 69.215 153.481 69.123 153.355 69.041L153.236 68.971C153.105 68.89 152.974 68.812 152.839 68.743L152.736 68.696C152.595 68.627 152.448 68.56 152.298 68.501 152.066 68.417 151.902 68.363 151.737 68.317 151.522 68.261 151.343 68.222 151.162 68.192 150.775 68.129 150.388 68.104 150.002 68.117L148.661 68.164 148.676 68.107 127.542 68.107C125.998 68.107 124.546 68.708 123.454 69.8L120.297 72.956 118.883 71.542 122.04 68.386C123.51 66.916 125.464 66.107 127.542 66.107L151.377 66.107 151.346 66.197C151.39 66.203 151.433 66.21 151.477 66.217 151.736 66.26 151.977 66.313 152.216 66.376 152.492 66.451 152.712 66.523 152.931 66.605L153.025 66.638C153.226 66.716 153.422 66.805 153.617 66.9L153.748 66.961C153.934 67.057 154.11 67.161 154.286 67.269L154.449 67.367C154.615 67.475 154.779 67.597 154.942 67.722L155.097 67.837C155.31 68.01 155.513 68.192 155.708 68.387L199.792 113.12C201.256 114.584 202.066 116.538 202.066 118.617 202.066 120.695 201.256 122.649 199.787 124.119L195.755 128.15M125.642 198.264L80.466 198.264 42.265 158.488C39.246 155.468 39.246 150.531 42.279 147.497L66.602 123.824 67.996 125.258 43.684 148.921C41.44 151.166 41.44 154.833 43.693 157.088L81.318 196.264 124.813 196.264 141.718 179.36 143.132 180.774 125.642 198.264"/>
    <path fill="#DEDEDD" d="M85.884,124.377 L71.706,124.377 L45.108,150.326 C43.634,151.8 43.634,154.199 45.108,155.673 L82.082,194.264 L99.707,194.264 L63.584,159.97 C59.715,156.102 59.715,149.897 63.528,146.083 L85.884,124.377"/>
    <polyline fill="#F58E70" points="100.119 134.453 105.795 139.639 153.798 91.636 148.122 86.45 100.119 134.453"/>
    <path fill="#475059" d="M64.032,123.353 L86.983,123.353 L145.709,180.946 L196.541,130.115 L138.337,73.107 L114.278,73.107 L64.032,123.353 Z M145.723,183.76 L86.166,125.353 L59.204,125.353 L113.45,71.107 L139.154,71.107 L199.384,130.1 L145.723,183.76 Z"/>
    <path fill="#DEDEDD" d="M167.215 196.357C167.215 198.014 165.872 199.357 164.215 199.357 162.558 199.357 161.215 198.014 161.215 196.357 161.215 194.7 162.558 193.357 164.215 193.357 165.872 193.357 167.215 194.7 167.215 196.357M143.215 195.357C143.215 196.462 142.319 197.357 141.215 197.357 140.11 197.357 139.215 196.462 139.215 195.357 139.215 194.253 140.11 193.357 141.215 193.357 142.319 193.357 143.215 194.253 143.215 195.357M151.215 192.357C151.215 191.805 151.663 191.357 152.215 191.357 152.767 191.357 153.215 191.805 153.215 192.357 153.215 192.909 152.767 193.357 152.215 193.357 151.663 193.357 151.215 192.909 151.215 192.357M179.215 195.357C179.215 194.253 180.11 193.357 181.215 193.357 182.319 193.357 183.215 194.253 183.215 195.357 183.215 196.462 182.319 197.357 181.215 197.357 180.11 197.357 179.215 196.462 179.215 195.357M189.215 195.357C189.215 194.253 190.11 193.357 191.215 193.357 192.319 193.357 193.215 194.253 193.215 195.357 193.215 196.462 192.319 197.357 191.215 197.357 190.11 197.357 189.215 196.462 189.215 195.357M151.215 196.357C151.215 195.805 151.663 195.357 152.215 195.357 152.767 195.357 153.215 195.805 153.215 196.357 153.215 196.909 152.767 197.357 152.215 197.357 151.663 197.357 151.215 196.909 151.215 196.357M209.215 195.357C209.215 196.462 208.319 197.357 207.215 197.357 206.11 197.357 205.215 196.462 205.215 195.357 205.215 194.253 206.11 193.357 207.215 193.357 208.319 193.357 209.215 194.253 209.215 195.357M129.215 196.357C129.215 195.805 129.663 195.357 130.215 195.357 130.767 195.357 131.215 195.805 131.215 196.357 131.215 196.909 130.767 197.357 130.215 197.357 129.663 197.357 129.215 196.909 129.215 196.357M107.215 188.357C107.215 187.805 107.663 187.357 108.215 187.357 108.767 187.357 109.215 187.805 109.215 188.357 109.215 188.909 108.767 189.357 108.215 189.357 107.663 189.357 107.215 188.909 107.215 188.357M97.215 174.357C97.215 176.014 95.872 177.357 94.215 177.357 92.558 177.357 91.215 176.014 91.215 174.357 91.215 172.7 92.558 171.357 94.215 171.357 95.872 171.357 97.215 172.7 97.215 174.357"/>
    <path fill="#475059" d="M140.393,132.392 L147.231,134.544 L144.432,127.955 L81.551,72.064 C80.32,70.947 78.418,71.038 77.306,72.263 C76.768,72.856 76.493,73.624 76.531,74.424 C76.57,75.225 76.919,75.962 77.512,76.5 L140.393,132.392 Z M150.769,137.754 L139.384,134.171 L139.224,134.029 L76.175,77.988 C75.179,77.084 74.599,75.855 74.534,74.521 C74.469,73.187 74.927,71.908 75.825,70.919 C77.677,68.877 80.845,68.722 82.888,70.576 L146.097,126.759 L150.769,137.754 Z"/>
    <polyline fill="#475059" points="82.476 82.355 80.994 81.011 86.1 75.384 87.581 76.728 82.476 82.355"/>
    <polyline fill="#475059" points="141.363 130.53 83.778 79.447 85.105 77.951 142.69 129.033 141.363 130.53"/>
    <polygon fill="#48515A" points="213 173.356 215 173.356 215 169.356 213 169.356"/>
    <polygon fill="#48515A" points="213 183.356 215 183.356 215 179.356 213 179.356"/>
    <polygon fill="#48515A" points="217 177.356 221 177.356 221 175.356 217 175.356"/>
    <polygon fill="#48515A" points="207 177.356 211 177.356 211 175.356 207 175.356"/>
    <polygon fill="#48515A" points="35 89.357 37 89.357 37 85.357 35 85.357"/>
    <polygon fill="#48515A" points="35 99.357 37 99.357 37 95.357 35 95.357"/>
    <polygon fill="#48515A" points="39 93.357 43 93.357 43 91.357 39 91.357"/>
    <polygon fill="#48515A" points="29 93.357 33 93.357 33 91.357 29 91.357"/>
    <path fill="#475059" d="M195.249,88.307 C192.43,88.307 189.61,87.234 187.464,85.088 L168.589,66.213 C165.597,63.221 165.597,58.353 168.589,55.362 C171.58,52.369 176.449,52.369 179.44,55.362 L198.315,74.237 C200.006,75.927 200.006,78.678 198.315,80.369 C196.625,82.06 193.873,82.06 192.182,80.369 L173.332,61.519 L174.746,60.105 L193.596,78.955 C194.507,79.866 195.99,79.866 196.901,78.955 C197.812,78.044 197.812,76.562 196.901,75.651 L178.026,56.776 C175.813,54.563 172.214,54.564 170.003,56.776 C167.791,58.987 167.791,62.587 170.003,64.799 L188.878,83.674 C190.58,85.375 192.842,86.312 195.249,86.312 C197.655,86.312 199.918,85.375 201.62,83.674 C205.132,80.161 205.132,74.445 201.619,70.932 L182.745,52.057 L184.159,50.643 L203.033,69.518 C207.326,73.81 207.326,80.795 203.034,85.088 C200.887,87.234 198.068,88.307 195.249,88.307"/>
    <path fill="#F58E70" d="M209,99.357 C209,100.462 208.105,101.357 207,101.357 C205.896,101.357 205,100.462 205,99.357 C205,98.253 205.896,97.357 207,97.357 C208.105,97.357 209,98.253 209,99.357"/>
    <path fill="#475059" d="M38,132.357 C36.897,132.357 36,133.254 36,134.357 C36,135.46 36.897,136.357 38,136.357 C39.103,136.357 40,135.46 40,134.357 C40,133.254 39.103,132.357 38,132.357 Z M38,138.357 C35.794,138.357 34,136.563 34,134.357 C34,132.152 35.794,130.357 38,130.357 C40.206,130.357 42,132.152 42,134.357 C42,136.563 40.206,138.357 38,138.357 Z"/>
  </g>
</svg>
