<svg xmlns="http://www.w3.org/2000/svg" width="250" height="250" viewBox="0 0 250 250">
  <g fill="none" fill-rule="evenodd">
    <path fill="#FFD15D" d="M125,137 L149,137 L149,61 L125,61 L125,137 Z M137.02,183.112 C130.506,183.112 125.225,177.831 125.225,171.316 C125.225,164.802 130.506,159.521 137.02,159.521 C143.535,159.521 148.816,164.802 148.816,171.316 C148.816,177.831 143.535,183.112 137.02,183.112 Z M173,171 L173,145 L177,145 L177,141 L193,141 L193,57 L121,57 L121,195 L193,195 L193,171 L173,171 Z"/>
    <path fill="#5FE0ED" d="M87.035 38.5C87.035 39.605 86.139 40.5 85.035 40.5 83.93 40.5 83.035 39.605 83.035 38.5 83.035 37.395 83.93 36.5 85.035 36.5 86.139 36.5 87.035 37.395 87.035 38.5M55.035 206.5C55.035 207.605 54.139 208.5 53.035 208.5 51.93 208.5 51.035 207.605 51.035 206.5 51.035 205.395 51.93 204.5 53.035 204.5 54.139 204.5 55.035 205.395 55.035 206.5"/>
    <path fill="#F58E70" d="M45.035,136.5 L69.035,136.5 L69.035,60.5 L45.035,60.5 L45.035,136.5 Z M57.035,182.612 C50.52,182.612 45.239,177.331 45.239,170.816 C45.239,164.302 50.52,159.021 57.035,159.021 C63.549,159.021 68.83,164.302 68.83,170.816 C68.83,177.331 63.549,182.612 57.035,182.612 Z M41.035,194.5 L73.035,194.5 L73.035,56.5 L41.035,56.5 L41.035,194.5 Z"/>
    <path fill="#475059" d="M57.034,160.021 C51.082,160.021 46.239,164.864 46.239,170.816 C46.239,176.769 51.082,181.612 57.034,181.612 C62.987,181.612 67.83,176.769 67.83,170.816 C67.83,164.864 62.987,160.021 57.034,160.021 Z M57.034,183.612 C49.979,183.612 44.239,177.872 44.239,170.816 C44.239,163.761 49.979,158.021 57.034,158.021 C64.09,158.021 69.83,163.761 69.83,170.816 C69.83,177.872 64.09,183.612 57.034,183.612 Z"/>
    <polygon fill="#475059" points="52.316 70.373 61.753 70.373 61.753 68.373 52.316 68.373"/>
    <polygon fill="#475059" points="52.316 79.81 61.753 79.81 61.753 77.81 52.316 77.81"/>
    <polygon fill="#475059" points="52.316 89.247 61.753 89.247 61.753 87.247 52.316 87.247"/>
    <polygon fill="#475059" points="52.316 98.683 61.753 98.683 61.753 96.683 52.316 96.683"/>
    <path fill="#475059" d="M38.034,197.5 L76.034,197.5 L76.034,53.5 L38.034,53.5 L38.034,197.5 Z M36.034,199.5 L78.034,199.5 L78.034,51.5 L36.034,51.5 L36.034,199.5 Z"/>
    <path fill="#475059" d="M46.034 135.5L68.034 135.5 68.034 61.5 46.034 61.5 46.034 135.5zM44.034 137.5L70.034 137.5 70.034 59.5 44.034 59.5 44.034 137.5zM97.034 160.021C91.082 160.021 86.239 164.864 86.239 170.816 86.239 176.769 91.082 181.612 97.034 181.612 102.987 181.612 107.83 176.769 107.83 170.816 107.83 164.864 102.987 160.021 97.034 160.021zM97.034 183.612C89.979 183.612 84.239 177.872 84.239 170.816 84.239 163.761 89.979 158.021 97.034 158.021 104.09 158.021 109.83 163.761 109.83 170.816 109.83 177.872 104.09 183.612 97.034 183.612z"/>
    <polygon fill="#475059" points="92.316 70.373 101.753 70.373 101.753 68.373 92.316 68.373"/>
    <polygon fill="#475059" points="92.316 79.81 101.753 79.81 101.753 77.81 92.316 77.81"/>
    <polygon fill="#475059" points="92.316 89.247 101.753 89.247 101.753 87.247 92.316 87.247"/>
    <path fill="#475059" d="M78.034,197.5 L116.034,197.5 L116.034,53.5 L78.034,53.5 L78.034,197.5 Z M76.034,199.5 L118.034,199.5 L118.034,51.5 L76.034,51.5 L76.034,199.5 Z"/>
    <path fill="#475059" d="M86.034 135.5L108.034 135.5 108.034 61.5 86.034 61.5 86.034 135.5zM84.034 137.5L110.034 137.5 110.034 59.5 84.034 59.5 84.034 137.5zM137.034 160.021C131.082 160.021 126.239 164.864 126.239 170.816 126.239 176.769 131.082 181.612 137.034 181.612 142.987 181.612 147.83 176.769 147.83 170.816 147.83 164.864 142.987 160.021 137.034 160.021zM137.034 183.612C129.979 183.612 124.239 177.872 124.239 170.816 124.239 163.761 129.979 158.021 137.034 158.021 144.09 158.021 149.83 163.761 149.83 170.816 149.83 177.872 144.09 183.612 137.034 183.612z"/>
    <polygon fill="#475059" points="132.316 70.373 141.753 70.373 141.753 68.373 132.316 68.373"/>
    <polygon fill="#475059" points="132.316 79.81 141.753 79.81 141.753 77.81 132.316 77.81"/>
    <polygon fill="#475059" points="132.316 89.247 141.753 89.247 141.753 87.247 132.316 87.247"/>
    <polygon fill="#475059" points="132.316 98.683 141.753 98.683 141.753 96.683 132.316 96.683"/>
    <polyline fill="#475059" points="157.034 199.5 116.034 199.5 116.034 51.5 157.034 51.5 157.034 53.5 118.034 53.5 118.034 197.5 157.034 197.5 157.034 199.5"/>
    <path fill="#475059" d="M126.034,135.5 L148.034,135.5 L148.034,61.5 L126.034,61.5 L126.034,135.5 Z M124.034,137.5 L150.034,137.5 L150.034,59.5 L124.034,59.5 L124.034,137.5 Z"/>
    <polyline fill="#475059" points="198.034 140.583 196.034 140.583 196.034 53.5 157.034 53.5 157.034 51.5 198.034 51.5 198.034 140.583"/>
    <polyline fill="#475059" points="198.034 199.5 157.034 199.5 157.034 197.5 196.034 197.5 196.034 170.5 198.034 170.5 198.034 199.5"/>
    <path fill="#475059" d="M156.034,58.5 L158.034,58.5 L158.034,56.5 L156.034,56.5 L156.034,58.5 Z M156.034,62.5 L158.034,62.5 L158.034,60.5 L156.034,60.5 L156.034,62.5 Z M156.034,66.5 L158.034,66.5 L158.034,64.5 L156.034,64.5 L156.034,66.5 Z M156.034,70.5 L158.034,70.5 L158.034,68.5 L156.034,68.5 L156.034,70.5 Z M156.034,74.5 L158.034,74.5 L158.034,72.5 L156.034,72.5 L156.034,74.5 Z M156.034,78.5 L158.034,78.5 L158.034,76.5 L156.034,76.5 L156.034,78.5 Z M156.034,82.5 L158.034,82.5 L158.034,80.5 L156.034,80.5 L156.034,82.5 Z M156.034,86.5 L158.034,86.5 L158.034,84.5 L156.034,84.5 L156.034,86.5 Z M156.034,90.5 L158.034,90.5 L158.034,88.5 L156.034,88.5 L156.034,90.5 Z M156.034,94.5 L158.034,94.5 L158.034,92.5 L156.034,92.5 L156.034,94.5 Z M156.034,98.5 L158.034,98.5 L158.034,96.5 L156.034,96.5 L156.034,98.5 Z M156.034,102.5 L158.034,102.5 L158.034,100.5 L156.034,100.5 L156.034,102.5 Z M156.034,106.5 L158.034,106.5 L158.034,104.5 L156.034,104.5 L156.034,106.5 Z M156.034,110.5 L158.034,110.5 L158.034,108.5 L156.034,108.5 L156.034,110.5 Z M156.034,114.5 L158.034,114.5 L158.034,112.5 L156.034,112.5 L156.034,114.5 Z M156.034,118.5 L158.034,118.5 L158.034,116.5 L156.034,116.5 L156.034,118.5 Z M156.034,122.5 L158.034,122.5 L158.034,120.5 L156.034,120.5 L156.034,122.5 Z M156.034,126.5 L158.034,126.5 L158.034,124.5 L156.034,124.5 L156.034,126.5 Z M156.034,130.5 L158.034,130.5 L158.034,128.5 L156.034,128.5 L156.034,130.5 Z M156.034,134.5 L158.034,134.5 L158.034,132.5 L156.034,132.5 L156.034,134.5 Z M156.034,138.5 L158.034,138.5 L158.034,136.5 L156.034,136.5 L156.034,138.5 Z M156.034,142.5 L158.034,142.5 L158.034,140.5 L156.034,140.5 L156.034,142.5 Z M156.034,146.5 L158.034,146.5 L158.034,144.5 L156.034,144.5 L156.034,146.5 Z M156.034,150.5 L158.034,150.5 L158.034,148.5 L156.034,148.5 L156.034,150.5 Z M156.034,154.5 L158.034,154.5 L158.034,152.5 L156.034,152.5 L156.034,154.5 Z M156.034,158.5 L158.034,158.5 L158.034,156.5 L156.034,156.5 L156.034,158.5 Z M156.034,162.5 L158.034,162.5 L158.034,160.5 L156.034,160.5 L156.034,162.5 Z M156.034,166.5 L158.034,166.5 L158.034,164.5 L156.034,164.5 L156.034,166.5 Z M156.034,170.5 L158.034,170.5 L158.034,168.5 L156.034,168.5 L156.034,170.5 Z M156.034,174.5 L158.034,174.5 L158.034,172.5 L156.034,172.5 L156.034,174.5 Z M156.034,178.5 L158.034,178.5 L158.034,176.5 L156.034,176.5 L156.034,178.5 Z M156.034,182.5 L158.034,182.5 L158.034,180.5 L156.034,180.5 L156.034,182.5 Z M156.034,186.5 L158.034,186.5 L158.034,184.5 L156.034,184.5 L156.034,186.5 Z M156.034,190.5 L158.034,190.5 L158.034,188.5 L156.034,188.5 L156.034,190.5 Z M156.034,194.5 L158.034,194.5 L158.034,192.5 L156.034,192.5 L156.034,194.5 Z"/>
    <polygon fill="#475059" points="132.316 108.5 141.753 108.5 141.753 106.5 132.316 106.5"/>
    <path fill="#475059" d="M171.928,105.5 L216.027,105.5 C217.681,105.5 219.027,104.154 219.027,102.5 C219.027,101.699 218.715,100.945 218.148,100.379 C217.582,99.812 216.828,99.5 216.027,99.5 L171.928,99.5 L165.423,102.5 L171.928,105.5 Z M216.027,107.5 L171.49,107.5 L160.646,102.5 L171.49,97.5 L216.027,97.5 C217.363,97.5 218.618,98.02 219.563,98.964 C220.507,99.909 221.027,101.165 221.027,102.5 C221.027,105.257 218.783,107.5 216.027,107.5 Z"/>
    <polygon fill="#475059" points="208.417 106.5 210.417 106.5 210.417 98.902 208.417 98.902"/>
    <polygon fill="#475059" points="172.478 103.471 209.417 103.471 209.417 101.471 172.478 101.471"/>
    <polygon fill="#48515A" points="34.973 37.5 36.973 37.5 36.973 33.5 34.973 33.5"/>
    <polygon fill="#48515A" points="34.973 47.5 36.973 47.5 36.973 43.5 34.973 43.5"/>
    <polygon fill="#48515A" points="38.973 41.5 42.973 41.5 42.973 39.5 38.973 39.5"/>
    <polygon fill="#48515A" points="28.973 41.5 32.973 41.5 32.973 39.5 28.973 39.5"/>
    <path fill="#DFE0E0" d="M97.035,162.021 C92.185,162.021 88.239,165.967 88.239,170.816 C88.239,175.667 92.185,179.612 97.035,179.612 C101.885,179.612 105.83,175.667 105.83,170.816 C105.83,165.967 101.885,162.021 97.035,162.021"/>
    <path fill="#F58E70" d="M177.035,212.5 C177.035,214.709 175.244,216.5 173.035,216.5 C170.826,216.5 169.035,214.709 169.035,212.5 C169.035,210.291 170.826,208.5 173.035,208.5 C175.244,208.5 177.035,210.291 177.035,212.5"/>
    <path fill="#DFE0E0" d="M57.035 162.021C52.185 162.021 48.239 165.967 48.239 170.816 48.239 175.667 52.185 179.612 57.035 179.612 61.884 179.612 65.83 175.667 65.83 170.816 65.83 165.967 61.884 162.021 57.035 162.021M137.035 162.021C132.185 162.021 128.239 165.967 128.239 170.816 128.239 175.667 132.185 179.612 137.035 179.612 141.885 179.612 145.83 175.667 145.83 170.816 145.83 165.967 141.885 162.021 137.035 162.021"/>
    <polyline fill="#475059" points="211.055 168.513 174.971 168.513 174.971 146.43 179.764 146.43 179.764 148.43 176.971 148.43 176.971 166.513 209.055 166.513 209.055 148.43 206.098 148.43 206.098 146.43 211.055 146.43 211.055 168.513"/>
    <path fill="#475059" d="M180.971,162.513 L191.62,162.513 L193.052,164.075 L194.646,162.513 L205.055,162.513 L205.055,144.43 L195.463,144.43 L192.999,146.844 L190.634,144.43 L180.971,144.43 L180.971,162.513 Z M192.975,166.951 L190.74,164.513 L178.971,164.513 L178.971,142.43 L191.475,142.43 L193.028,144.016 L194.646,142.43 L207.055,142.43 L207.055,164.513 L195.463,164.513 L192.975,166.951 Z"/>
    <path fill="#FFF" d="M182.867,151.513 L188.992,151.513"/>
    <polygon fill="#475059" points="182.867 152.513 188.992 152.513 188.992 150.513 182.867 150.513"/>
    <path fill="#FFF" d="M182.867,155.513 L188.992,155.513"/>
    <polygon fill="#475059" points="182.867 156.513 188.992 156.513 188.992 154.513 182.867 154.513"/>
    <path fill="#FFF" d="M202.992,147.513 L196.867,147.513"/>
    <polygon fill="#475059" points="196.867 148.513 202.992 148.513 202.992 146.513 196.867 146.513"/>
    <path fill="#FFF" d="M196.867,151.513 L202.992,151.513"/>
    <polygon fill="#475059" points="196.867 152.513 202.992 152.513 202.992 150.513 196.867 150.513"/>
    <path fill="#FFF" d="M196.867,155.513 L202.992,155.513"/>
    <polygon fill="#475059" points="196.867 156.513 202.992 156.513 202.992 154.513 196.867 154.513"/>
    <path fill="#FFF" d="M193.013,148.701 L193.013,158.513"/>
    <polygon fill="#475059" points="192.013 158.513 194.013 158.513 194.013 148.701 192.013 148.701"/>
    <path fill="#FFF" d="M182.867,159.513 L188.992,159.513"/>
    <polygon fill="#475059" points="182.867 160.513 188.992 160.513 188.992 158.513 182.867 158.513"/>
    <path fill="#FFF" d="M196.867,159.513 L202.992,159.513"/>
    <polygon fill="#475059" points="196.867 160.513 202.992 160.513 202.992 158.513 196.867 158.513"/>
    <path fill="#FFF" d="M188.992,147.513 L182.867,147.513"/>
    <polygon fill="#475059" points="182.867 148.513 188.992 148.513 188.992 146.513 182.867 146.513"/>
  </g>
</svg>
