<svg xmlns="http://www.w3.org/2000/svg" width="250" height="250" viewBox="0 0 250 250">
  <g fill="none" fill-rule="evenodd">
    <polyline fill="#DFE0E0" points="100.449 166.531 91.074 166.531 82.522 180.531 91.897 180.531 100.449 166.531"/>
    <polyline fill="#DFE0E0" points="157.467 166.531 148.092 166.531 156.644 180.531 166.019 180.531 157.467 166.531"/>
    <polygon fill="#DFE0E0" points="121.032 180.531 129.032 180.531 129.032 166.531 121.032 166.531"/>
    <polygon fill="#DEDEDD" points="40.533 66.531 208.532 66.531 208.532 56.531 40.533 56.531"/>
    <path fill="#48515A" d="M42.033,165.531 L208.033,165.531 L208.033,57.531 L42.033,57.531 L42.033,165.531 Z M40.033,167.531 L210.033,167.531 L210.033,55.531 L40.033,55.531 L40.033,167.531 Z"/>
    <path fill="#48515A" d="M36.033,55.531 L214.033,55.531 L214.033,47.531 L36.033,47.531 L36.033,55.531 Z M34.033,57.531 L216.033,57.531 L216.033,45.531 L34.033,45.531 L34.033,57.531 Z"/>
    <polygon fill="#48515A" points="108.909 70.534 134.911 70.534 134.911 68.534 108.909 68.534"/>
    <polygon fill="#48515A" points="190.66 33.468 192.66 33.468 192.66 29.468 190.66 29.468"/>
    <polygon fill="#48515A" points="190.66 43.469 192.66 43.469 192.66 39.469 190.66 39.469"/>
    <polygon fill="#48515A" points="194.66 37.468 198.66 37.468 198.66 35.468 194.66 35.468"/>
    <polygon fill="#48515A" points="184.66 37.468 188.66 37.468 188.66 35.468 184.66 35.468"/>
    <polygon fill="#48515A" points="80.681 77.557 82.681 77.557 82.681 73.557 80.681 73.557"/>
    <polygon fill="#48515A" points="80.681 87.557 82.681 87.557 82.681 83.557 80.681 83.557"/>
    <polygon fill="#48515A" points="84.681 81.557 88.681 81.557 88.681 79.557 84.681 79.557"/>
    <polygon fill="#48515A" points="74.681 81.557 78.681 81.557 78.681 79.557 74.681 79.557"/>
    <path fill="#FFD15D" d="M68.865,121.585 C68.865,119.376 67.074,117.585 64.865,117.585 C62.656,117.585 60.865,119.376 60.865,121.585 C60.865,123.794 62.656,125.585 64.865,125.585 C67.074,125.585 68.865,123.794 68.865,121.585"/>
    <path fill="#48515A" d="M189.334,75.523 L193.973,80.162 L194.987,71.375 L186.769,72.959 L189.334,75.524 L189.334,75.523 Z M49.112,151.323 L47.698,149.908 L67.287,130.32 L78.495,141.528 L112.121,107.902 L123.33,119.111 L156.956,85.485 L168.164,96.694 L187.919,76.938 L182.691,71.708 L197.286,68.895 L195.487,84.504 L189.334,78.351 L168.164,99.522 L156.956,88.313 L123.33,121.939 L112.121,110.73 L78.495,144.356 L67.287,133.148 L49.112,151.323 Z"/>
    <polyline fill="#FFD15D" points="198.532 89.368 189.495 80.33 168.17 101.654 156.962 90.445 123.336 124.071 112.127 112.862 78.496 146.494 67.279 135.567 50.37 152.694 50.37 158.531 198.532 158.159 198.532 89.368"/>
    <polygon fill="#48515A" points="108.909 74.536 134.911 74.536 134.911 72.536 108.909 72.536"/>
    <polygon fill="#48515A" points="108.909 78.539 134.911 78.539 134.911 76.539 108.909 76.539"/>
    <path fill="#48515A" d="M153.694 65.531C152.591 65.531 151.694 66.428 151.694 67.531 151.694 68.634 152.591 69.531 153.694 69.531 154.796 69.531 155.694 68.634 155.694 67.531 155.694 66.428 154.796 65.531 153.694 65.531zM153.694 71.531C151.488 71.531 149.694 69.737 149.694 67.531 149.694 65.325 151.488 63.531 153.694 63.531 155.9 63.531 157.694 65.325 157.694 67.531 157.694 69.737 155.9 71.531 153.694 71.531zM163.693 75.53C162.59 75.53 161.693 76.427 161.693 77.53 161.693 78.633 162.59 79.53 163.693 79.53 164.795 79.53 165.693 78.633 165.693 77.53 165.693 76.427 164.795 75.53 163.693 75.53zM163.693 81.53C161.487 81.53 159.693 79.736 159.693 77.53 159.693 75.324 161.487 73.53 163.693 73.53 165.899 73.53 167.693 75.324 167.693 77.53 167.693 79.736 165.899 81.53 163.693 81.53z"/>
    <polyline fill="#48515A" points="151.401 81.238 149.987 79.824 165.987 63.824 167.401 65.238 151.401 81.238"/>
    <polygon fill="#48515A" points="35.055 185.535 37.055 185.535 37.055 181.535 35.055 181.535"/>
    <polygon fill="#48515A" points="35.055 195.535 37.055 195.535 37.055 191.535 35.055 191.535"/>
    <polygon fill="#48515A" points="39.055 189.535 43.055 189.535 43.055 187.535 39.055 187.535"/>
    <polygon fill="#48515A" points="29.055 189.535 33.055 189.535 33.055 187.535 29.055 187.535"/>
    <path fill="#475059" d="M99.138,95.819 L33.968,95.822 C32.314,95.822 30.968,97.167 30.968,98.822 C30.968,99.623 31.281,100.376 31.847,100.943 C32.414,101.509 33.166,101.821 33.967,101.821 L33.968,101.821 L99.138,101.819 L105.645,98.819 L99.138,95.819 Z M33.967,103.821 C32.632,103.821 31.377,103.301 30.433,102.357 C29.489,101.413 28.968,100.157 28.968,98.822 C28.968,96.065 31.211,93.822 33.968,93.822 L99.578,93.819 L110.42,98.819 L99.578,103.819 L33.968,103.821 L33.967,103.821 Z"/>
    <polygon fill="#475059" points="39.578 102.821 41.578 102.821 41.578 95.222 39.578 95.222"/>
    <polyline fill="#475059" points="40.578 99.792 40.578 97.792 98.589 97.79 98.589 99.79 40.578 99.792"/>
    <path fill="#48515A" d="M60.48 218.531L67.512 218.531 98.666 167.531 91.634 167.531 60.48 218.531zM68.633 220.531L56.915 220.531 90.513 165.531 102.231 165.531 68.633 220.531zM181.029 218.531L188.061 218.531 156.907 167.531 149.875 167.531 181.029 218.531zM191.625 220.531L179.908 220.531 179.615 220.053 146.31 165.531 158.028 165.531 158.321 166.01 191.625 220.531zM122.033 218.531L128.033 218.531 128.033 167.531 122.033 167.531 122.033 218.531zM120.033 220.531L130.033 220.531 130.033 165.531 120.033 165.531 120.033 220.531z"/>
    <path fill="#F58E70" d="M196.032,148.528 C183.349,148.528 173.032,158.846 173.032,171.528 C173.032,184.21 183.349,194.528 196.032,194.528 C208.714,194.528 219.032,184.21 219.032,171.528 C219.032,158.846 208.714,148.528 196.032,148.528 Z M196.032,196.528 C182.247,196.528 171.032,185.313 171.032,171.528 C171.032,157.743 182.247,146.528 196.032,146.528 C209.817,146.528 221.032,157.743 221.032,171.528 C221.032,185.313 209.817,196.528 196.032,196.528 Z"/>
    <path fill="#48515A" d="M215.986,172.528 L212.43,172.528 C211.877,172.528 211.43,172.08 211.43,171.528 C211.43,170.976 211.877,170.528 212.43,170.528 L215.986,170.528 C216.539,170.528 216.986,170.976 216.986,171.528 C216.986,172.08 216.539,172.528 215.986,172.528"/>
    <path fill="#48515A" d="M215.986 172.528L212.43 172.528C211.877 172.528 211.43 172.08 211.43 171.528 211.43 170.976 211.877 170.528 212.43 170.528L215.986 170.528C216.539 170.528 216.986 170.976 216.986 171.528 216.986 172.08 216.539 172.528 215.986 172.528M206.148 190.012C205.802 190.012 205.466 189.833 205.281 189.512L203.503 186.433C203.227 185.954 203.391 185.343 203.87 185.067 204.345 184.79 204.958 184.954 205.236 185.433L207.013 188.512C207.29 188.99 207.125 189.602 206.647 189.878 206.49 189.969 206.318 190.012 206.148 190.012M210.168 164.084C209.823 164.084 209.487 163.905 209.301 163.584 209.025 163.106 209.189 162.494 209.667 162.218L212.747 160.44C213.223 160.163 213.835 160.327 214.113 160.806 214.389 161.284 214.225 161.896 213.747 162.172L210.667 163.95C210.51 164.041 210.338 164.084 210.168 164.084M213.579 182.337C213.409 182.337 213.237 182.294 213.08 182.203L210 180.425C209.521 180.149 209.357 179.537 209.633 179.059 209.91 178.58 210.522 178.417 211 178.693L214.08 180.47C214.558 180.747 214.722 181.358 214.446 181.837 214.26 182.157 213.924 182.337 213.579 182.337M204.095 157.872C203.925 157.872 203.753 157.829 203.596 157.738 203.118 157.462 202.954 156.85 203.23 156.372L205.008 153.293C205.285 152.814 205.897 152.649 206.375 152.927 206.853 153.203 207.017 153.815 206.741 154.293L204.962 157.372C204.777 157.693 204.441 157.872 204.095 157.872"/>
    <polyline fill="#48515A" points="196.986 183.66 194.986 183.66 194.986 169.639 204.875 169.639 204.875 171.639 196.986 171.639 196.986 183.66"/>
    <path fill="#48515A" d="M196.029 155.639C195.476 155.639 195.029 155.191 195.029 154.639L195.029 151.084C195.029 150.531 195.476 150.084 196.029 150.084 196.582 150.084 197.029 150.531 197.029 151.084L197.029 154.639C197.029 155.191 196.582 155.639 196.029 155.639M196.03 192.972C195.477 192.972 195.03 192.525 195.03 191.972L195.03 188.417C195.03 187.865 195.477 187.417 196.03 187.417 196.583 187.417 197.03 187.865 197.03 188.417L197.03 191.972C197.03 192.525 196.583 192.972 196.03 192.972M179.584 172.528L176.029 172.528C175.476 172.528 175.029 172.08 175.029 171.528 175.029 170.976 175.476 170.528 176.029 170.528L179.584 170.528C180.137 170.528 180.584 170.976 180.584 171.528 180.584 172.08 180.137 172.528 179.584 172.528"/>
    <path fill="#48515A" d="M196.029 155.639C195.476 155.639 195.029 155.191 195.029 154.639L195.029 151.084C195.029 150.531 195.476 150.084 196.029 150.084 196.582 150.084 197.029 150.531 197.029 151.084L197.029 154.639C197.029 155.191 196.582 155.639 196.029 155.639M196.03 192.972C195.477 192.972 195.03 192.525 195.03 191.972L195.03 188.417C195.03 187.865 195.477 187.417 196.03 187.417 196.583 187.417 197.03 187.865 197.03 188.417L197.03 191.972C197.03 192.525 196.583 192.972 196.03 192.972M179.584 172.528L176.029 172.528C175.476 172.528 175.029 172.08 175.029 171.528 175.029 170.976 175.476 170.528 176.029 170.528L179.584 170.528C180.137 170.528 180.584 170.976 180.584 171.528 180.584 172.08 180.137 172.528 179.584 172.528M185.867 190.012C185.697 190.012 185.525 189.969 185.368 189.878 184.889 189.602 184.725 188.99 185.001 188.512L186.779 185.433C187.054 184.954 187.667 184.79 188.145 185.067 188.624 185.343 188.788 185.954 188.511 186.433L186.734 189.512C186.548 189.833 186.212 190.012 185.867 190.012M181.846 164.084C181.676 164.084 181.504 164.041 181.347 163.95L178.268 162.172C177.79 161.896 177.625 161.284 177.902 160.806 178.178 160.327 178.791 160.163 179.268 160.44L182.347 162.218C182.826 162.494 182.99 163.106 182.713 163.584 182.528 163.905 182.192 164.084 181.846 164.084M178.436 182.337C178.09 182.337 177.754 182.157 177.569 181.837 177.292 181.358 177.457 180.747 177.935 180.47L181.015 178.693C181.492 178.417 182.104 178.58 182.381 179.059 182.658 179.537 182.494 180.149 182.015 180.425L178.935 182.203C178.778 182.294 178.606 182.337 178.436 182.337M187.919 157.872C187.574 157.872 187.238 157.693 187.052 157.372L185.274 154.293C184.998 153.815 185.162 153.203 185.64 152.927 186.116 152.649 186.729 152.814 187.006 153.293L188.785 156.372C189.061 156.85 188.897 157.462 188.418 157.738 188.261 157.829 188.089 157.872 187.919 157.872"/>
  </g>
</svg>
