<svg xmlns="http://www.w3.org/2000/svg" width="250" height="250" viewBox="0 0 250 250">
  <g fill="none" fill-rule="evenodd">
    <path fill="#DEDEDD" d="M200.962,98.007 C200.962,102.425 197.38,106.007 192.962,106.007 C188.544,106.007 184.962,102.425 184.962,98.007 C184.962,93.589 188.544,90.007 192.962,90.007 C197.38,90.007 200.962,93.589 200.962,98.007"/>
    <path fill="#475059" d="M146.019,140.049 L145.889,139.966 C144.556,139.113 143.922,137.511 144.309,135.978 L145.44,131.496 C145.58,130.943 145.439,130.384 145.056,129.964 C144.671,129.543 144.13,129.352 143.563,129.44 L138.998,130.159 C137.445,130.403 135.898,129.628 135.171,128.223 L135.101,128.089 C134.372,126.683 134.624,124.977 135.727,123.843 L138.947,120.528 C139.345,120.119 139.502,119.565 139.38,119.008 C139.258,118.451 138.882,118.014 138.35,117.809 L134.035,116.149 C132.56,115.581 131.617,114.138 131.689,112.559 L131.696,112.406 C131.768,110.826 132.838,109.475 134.359,109.043 L138.808,107.783 C139.356,107.627 139.77,107.226 139.942,106.683 C140.114,106.139 140.008,105.573 139.649,105.13 L136.744,101.535 C135.749,100.306 135.653,98.585 136.507,97.252 L136.589,97.123 C137.442,95.79 139.047,95.156 140.577,95.543 L145.06,96.675 C145.612,96.816 146.171,96.674 146.592,96.29 C147.013,95.905 147.203,95.362 147.114,94.798 L146.396,90.232 C146.149,88.671 146.928,87.132 148.332,86.405 L148.469,86.334 C149.874,85.607 151.578,85.858 152.712,86.961 L156.027,90.181 C156.436,90.579 156.989,90.734 157.548,90.614 C158.104,90.492 158.541,90.117 158.745,89.585 L160.612,90.302 C160.169,91.455 159.184,92.302 157.978,92.567 C156.768,92.835 155.52,92.477 154.633,91.616 L151.317,88.395 C150.802,87.892 150.026,87.779 149.389,88.109 L149.252,88.181 C148.613,88.511 148.26,89.211 148.372,89.921 L149.091,94.487 C149.282,95.708 148.853,96.934 147.939,97.767 C147.026,98.6 145.765,98.915 144.569,98.614 L140.087,97.482 C139.392,97.303 138.662,97.594 138.273,98.2 L138.191,98.33 C137.803,98.936 137.847,99.718 138.299,100.277 L141.204,103.873 C141.981,104.833 142.223,106.109 141.849,107.287 C141.475,108.465 140.542,109.37 139.353,109.707 L134.905,110.967 C134.214,111.164 133.727,111.777 133.694,112.495 L133.688,112.649 C133.654,113.368 134.083,114.025 134.754,114.283 L139.068,115.943 C140.222,116.387 141.068,117.372 141.333,118.579 C141.599,119.786 141.242,121.036 140.381,121.922 L137.16,125.237 C136.659,125.753 136.544,126.528 136.875,127.167 L136.945,127.301 C137.277,127.943 137.979,128.295 138.688,128.184 L143.253,127.464 C144.474,127.27 145.699,127.703 146.532,128.615 C147.365,129.528 147.683,130.788 147.38,131.986 L146.248,136.467 C146.071,137.165 146.36,137.893 146.966,138.281 L147.095,138.363 L146.019,140.049"/>
    <path fill="#DEDEDD" d="M153.781,118.495 C151.245,113.599 153.164,107.552 158.06,105.016 C158.883,104.589 159.738,104.3 160.604,104.118 C160.767,101.027 160.679,97.927 160.35,94.847 C159.812,95.137 159.234,95.363 158.62,95.498 C156.425,95.98 154.154,95.333 152.542,93.768 L151.919,93.161 L152.054,94.02 C152.404,96.239 151.622,98.468 149.963,99.983 C148.303,101.498 146.012,102.073 143.834,101.523 L142.991,101.31 L143.538,101.986 C144.95,103.733 145.387,106.055 144.708,108.196 C144.028,110.337 142.333,111.981 140.171,112.593 L139.334,112.83 L140.145,113.143 C142.242,113.95 143.781,115.741 144.263,117.936 C144.745,120.13 144.098,122.401 142.533,124.012 L141.927,124.636 L142.786,124.501 C145.005,124.151 147.234,124.933 148.748,126.592 C150.263,128.252 150.839,130.543 150.288,132.721 L150.075,133.564 L150.752,133.017 C150.95,132.857 151.157,132.713 151.369,132.578 C153.563,129.2 155.363,125.642 156.781,121.97 C155.562,121.086 154.52,119.921 153.781,118.495"/>
    <path fill="#475059" d="M102.691,40.067 C87.07,40.067 71.449,46.013 59.558,57.904 C35.774,81.689 35.774,120.387 59.558,144.172 C83.342,167.955 122.041,167.955 145.825,144.172 C169.608,120.387 169.608,81.689 145.825,57.904 C133.934,46.013 118.313,40.067 102.691,40.067 Z M102.691,164.008 C86.559,164.008 70.426,157.867 58.144,145.586 C33.58,121.022 33.58,81.054 58.144,56.49 C82.708,31.927 122.675,31.927 147.239,56.49 C171.803,81.054 171.803,121.022 147.239,145.586 C134.957,157.867 118.824,164.008 102.691,164.008 Z"/>
    <path fill="#475059" d="M102.784,44.053 C83.767,44.053 65.158,53.546 54.356,70.826 C37.697,97.478 45.827,132.714 72.479,149.373 C99.129,166.03 134.366,157.901 151.026,131.25 C159.096,118.339 161.655,103.059 158.232,88.223 C154.81,73.388 145.814,60.774 132.903,52.704 C123.532,46.846 113.098,44.053 102.784,44.053 Z M102.595,160.023 C91.918,160.023 81.121,157.133 71.419,151.069 C43.832,133.825 35.417,97.353 52.661,69.766 C69.903,42.179 106.376,33.765 133.964,51.007 C147.327,59.36 156.638,72.418 160.181,87.774 C163.724,103.13 161.075,118.946 152.722,132.31 C141.543,150.195 122.277,160.023 102.595,160.023 Z"/>
    <path fill="#DEDEDD" d="M67.076,78.777 C81.713,55.361 112.561,48.243 135.977,62.88 C142.663,67.059 148.015,72.563 151.916,78.836 C147.683,69.428 140.718,61.126 131.313,55.247 C106.024,39.44 72.708,47.127 56.901,72.416 C41.093,97.706 48.78,131.021 74.069,146.829 C83.474,152.707 93.989,155.331 104.3,155.014 C96.952,154.255 89.66,151.856 82.973,147.677 C59.557,133.041 52.44,102.193 67.076,78.777"/>
    <polyline fill="#DEDEDD" points="156.412 149.102 152.17 153.345 145.117 146.293 149.359 142.05 156.412 149.102"/>
    <path fill="#475059" d="M146.531,146.293 L157.962,157.723 L160.79,154.894 L149.36,143.464 L146.531,146.293 Z M157.962,160.551 L143.703,146.293 L149.36,140.636 L163.618,154.894 L157.962,160.551 Z"/>
    <path fill="#5FE0ED" d="M209.464,206.397 C207.512,208.349 204.346,208.349 202.393,206.397 L154.214,158.218 L161.285,151.147 L209.464,199.326 C211.417,201.278 211.417,204.444 209.464,206.397"/>
    <path fill="#475059" d="M95.391,123.984 C95.709,123.984 96.028,124.025 96.344,124.109 C97.537,124.429 98.483,125.32 98.874,126.492 L100.336,130.878 C100.563,131.56 101.2,132.018 101.919,132.018 L102.073,132.018 C102.792,132.018 103.428,131.56 103.655,130.878 L105.117,126.492 C105.508,125.32 106.454,124.429 107.647,124.109 C108.842,123.79 110.105,124.088 111.029,124.908 L114.488,127.975 C115.026,128.451 115.807,128.529 116.429,128.172 L116.563,128.094 C117.185,127.734 117.507,127.02 117.362,126.316 L116.437,121.787 C116.188,120.576 116.563,119.332 117.436,118.458 C118.31,117.585 119.554,117.211 120.765,117.458 L125.293,118.385 C125.999,118.528 126.713,118.207 127.071,117.585 L127.149,117.45 C127.509,116.828 127.43,116.048 126.952,115.511 L123.886,112.052 C123.065,111.128 122.768,109.863 123.087,108.669 C123.407,107.476 124.298,106.53 125.47,106.139 L129.855,104.677 C130.538,104.45 130.996,103.814 130.996,103.095 L130.996,102.941 C130.996,102.222 130.538,101.586 129.855,101.359 L125.47,99.897 C124.298,99.506 123.407,98.56 123.087,97.367 C122.768,96.173 123.065,94.908 123.886,93.983 L126.952,90.525 C127.43,89.987 127.509,89.208 127.148,88.585 L127.072,88.452 C126.713,87.829 125.993,87.509 125.294,87.651 L120.765,88.578 C119.557,88.828 118.311,88.452 117.437,87.579 C116.563,86.705 116.188,85.461 116.436,84.25 L117.362,79.72 C117.507,79.016 117.185,78.301 116.563,77.941 L116.429,77.865 C115.808,77.506 115.027,77.586 114.488,78.061 L111.029,81.128 C110.105,81.949 108.841,82.245 107.647,81.927 C106.454,81.607 105.508,80.716 105.117,79.544 L103.655,75.159 C103.428,74.477 102.792,74.018 102.073,74.018 L101.919,74.018 C101.2,74.018 100.563,74.477 100.336,75.159 L98.874,79.544 C98.483,80.716 97.537,81.607 96.344,81.926 C95.148,82.247 93.886,81.947 92.961,81.128 L89.503,78.062 C88.965,77.584 88.186,77.505 87.562,77.864 L87.429,77.942 C86.807,78.301 86.484,79.016 86.629,79.72 L87.556,84.249 C87.804,85.46 87.43,86.704 86.556,87.578 C85.683,88.452 84.436,88.828 83.228,88.578 L78.698,87.651 C77.995,87.509 77.279,87.829 76.92,88.451 L76.842,88.586 C76.483,89.207 76.562,89.987 77.039,90.525 L80.105,93.983 C80.926,94.908 81.224,96.173 80.904,97.367 C80.584,98.56 79.693,99.506 78.521,99.897 L74.137,101.359 C73.454,101.586 72.996,102.222 72.996,102.941 L72.996,103.095 C72.996,103.814 73.454,104.45 74.137,104.677 L78.521,106.139 C79.693,106.53 80.584,107.476 80.904,108.669 C81.224,109.863 80.926,111.128 80.105,112.052 L77.039,115.511 C76.562,116.049 76.483,116.829 76.843,117.451 L76.919,117.584 C77.279,118.207 77.998,118.528 78.697,118.385 L83.228,117.458 C84.44,117.209 85.684,117.585 86.557,118.458 C87.43,119.332 87.804,120.576 87.556,121.787 L86.629,126.316 C86.484,127.02 86.807,127.734 87.429,128.094 L87.562,128.171 C88.185,128.531 88.966,128.452 89.502,127.975 L92.962,124.908 C93.642,124.304 94.506,123.984 95.391,123.984 Z M102.073,134.018 L101.919,134.018 C100.338,134.018 98.939,133.01 98.439,131.51 L96.978,127.125 C96.797,126.584 96.377,126.189 95.826,126.041 C95.276,125.893 94.715,126.026 94.288,126.404 L90.829,129.471 C89.647,130.521 87.931,130.694 86.562,129.903 L86.429,129.826 C85.06,129.035 84.353,127.463 84.67,125.914 L85.597,121.386 C85.711,120.827 85.545,120.276 85.142,119.872 C84.738,119.468 84.187,119.301 83.628,119.418 L79.099,120.344 C77.551,120.663 75.979,119.954 75.187,118.585 L75.111,118.452 C74.32,117.082 74.493,115.367 75.543,114.184 L78.609,110.725 C78.987,110.298 79.12,109.738 78.972,109.187 C78.824,108.636 78.43,108.216 77.889,108.036 L73.504,106.575 C72.004,106.075 70.996,104.676 70.996,103.095 L70.996,102.941 C70.996,101.359 72.004,99.961 73.504,99.461 L77.889,98 C78.43,97.82 78.824,97.4 78.972,96.849 C79.12,96.298 78.987,95.737 78.609,95.311 L75.543,91.852 C74.493,90.669 74.32,88.954 75.11,87.585 L75.188,87.45 C75.979,86.083 77.545,85.374 79.1,85.692 L83.628,86.619 C84.188,86.732 84.738,86.568 85.142,86.164 C85.545,85.761 85.711,85.209 85.597,84.65 L84.67,80.122 C84.353,78.573 85.06,77.001 86.429,76.21 L86.562,76.132 C87.932,75.342 89.646,75.515 90.83,76.566 L94.288,79.631 C94.714,80.009 95.273,80.142 95.826,79.995 C96.377,79.847 96.797,79.452 96.978,78.911 L98.439,74.526 C98.939,73.026 100.338,72.018 101.919,72.018 L102.073,72.018 C103.654,72.018 105.052,73.026 105.552,74.526 L107.014,78.911 C107.194,79.452 107.614,79.847 108.165,79.995 C108.713,80.142 109.275,80.01 109.703,79.632 L113.162,76.565 C114.345,75.515 116.06,75.342 117.429,76.133 L117.563,76.21 C118.932,77.001 119.639,78.573 119.321,80.122 L118.395,84.65 C118.28,85.209 118.446,85.761 118.851,86.164 C119.254,86.567 119.805,86.731 120.364,86.619 L124.893,85.692 C126.439,85.373 128.013,86.082 128.804,87.451 L128.88,87.584 C129.672,88.955 129.498,90.67 128.448,91.853 L125.382,95.311 C125.004,95.737 124.871,96.298 125.02,96.849 C125.167,97.4 125.562,97.82 126.103,98 L130.488,99.461 C131.988,99.962 132.996,101.36 132.996,102.941 L132.996,103.095 C132.996,104.676 131.988,106.074 130.488,106.575 L126.103,108.036 C125.562,108.216 125.167,108.636 125.02,109.187 C124.871,109.738 125.004,110.298 125.382,110.725 L128.448,114.184 C129.498,115.366 129.672,117.081 128.881,118.451 L128.803,118.586 C128.014,119.954 126.446,120.664 124.892,120.344 L120.364,119.417 C119.806,119.304 119.254,119.468 118.851,119.872 C118.447,120.276 118.281,120.827 118.396,121.386 L119.321,125.915 C119.639,127.463 118.932,129.035 117.563,129.826 L117.429,129.903 C116.059,130.694 114.345,130.519 113.162,129.471 L109.703,126.404 C109.276,126.026 108.715,125.895 108.165,126.041 C107.614,126.189 107.194,126.584 107.014,127.125 L105.552,131.51 C105.052,133.01 103.654,134.018 102.073,134.018 Z"/>
    <path fill="#475059" d="M101.996,98.018 C99.239,98.018 96.996,100.261 96.996,103.018 C96.996,105.775 99.239,108.018 101.996,108.018 C104.753,108.018 106.996,105.775 106.996,103.018 C106.996,100.261 104.753,98.018 101.996,98.018 Z M101.996,110.018 C98.137,110.018 94.996,106.878 94.996,103.018 C94.996,99.158 98.137,96.018 101.996,96.018 C105.855,96.018 108.996,99.158 108.996,103.018 C108.996,106.878 105.855,110.018 101.996,110.018 Z"/>
    <path fill="#475059" d="M101.996 98.018C99.239 98.018 96.996 100.261 96.996 103.018 96.996 105.775 99.239 108.018 101.996 108.018 104.753 108.018 106.996 105.775 106.996 103.018 106.996 100.261 104.753 98.018 101.996 98.018zM101.996 110.018C98.137 110.018 94.996 106.878 94.996 103.018 94.996 99.158 98.137 96.018 101.996 96.018 105.855 96.018 108.996 99.158 108.996 103.018 108.996 106.878 105.855 110.018 101.996 110.018zM160.731 130.321C160.53 130.321 160.326 130.295 160.124 130.241L160.31 129.255 160.57 128.29 160.645 128.31C160.777 128.345 160.928 128.292 161.009 128.171L162.281 126.242C162.715 125.586 163.443 125.194 164.229 125.194 165.016 125.194 165.744 125.586 166.178 126.242L167.451 128.171C167.53 128.29 167.677 128.348 167.814 128.309 168.029 128.252 168.128 128.13 168.137 127.987L168.275 125.68C168.322 124.895 168.758 124.191 169.438 123.798 170.121 123.404 170.947 123.38 171.649 123.732L173.716 124.766C173.844 124.83 173.999 124.805 174.102 124.703 174.258 124.547 174.283 124.392 174.219 124.263L173.185 122.196C172.833 121.492 172.858 120.666 173.251 119.985 173.645 119.304 174.348 118.87 175.133 118.823L177.44 118.684C177.584 118.675 177.705 118.576 177.742 118.438 177.8 118.224 177.744 118.077 177.624 117.998L175.695 116.724C175.039 116.291 174.647 115.563 174.647 114.776 174.647 113.99 175.039 113.262 175.695 112.829L177.624 111.555C177.744 111.476 177.8 111.329 177.763 111.19 177.705 110.977 177.584 110.878 177.44 110.869L175.133 110.73C174.348 110.683 173.645 110.249 173.251 109.568 172.858 108.887 172.833 108.06 173.185 107.357L174.219 105.29C174.283 105.161 174.258 105.006 174.156 104.904 173.999 104.748 173.844 104.722 173.716 104.787L171.649 105.821C170.946 106.173 170.119 106.147 169.438 105.754 168.757 105.361 168.322 104.658 168.275 103.873L168.137 101.566C168.128 101.422 168.029 101.301 167.89 101.263L168.074 100.277 168.335 99.312C169.38 99.592 170.073 100.442 170.133 101.446L170.271 103.753C170.281 103.909 170.38 103.989 170.438 104.022 170.496 104.056 170.616 104.101 170.755 104.032L172.821 102.998C173.72 102.548 174.805 102.724 175.516 103.436 176.282 104.201 176.458 105.284 176.008 106.184L174.974 108.251C174.903 108.391 174.949 108.509 174.983 108.568 175.017 108.626 175.097 108.725 175.252 108.734L177.56 108.873C178.564 108.932 179.414 109.626 179.674 110.599 179.955 111.645 179.565 112.671 178.726 113.224L176.797 114.498C176.666 114.584 176.647 114.71 176.647 114.776 176.647 114.843 176.666 114.969 176.797 115.055L178.726 116.329C179.565 116.882 179.955 117.908 179.694 118.88 179.414 119.927 178.564 120.621 177.56 120.68L175.252 120.819C175.097 120.828 175.017 120.927 174.983 120.985 174.949 121.044 174.903 121.162 174.974 121.302L176.008 123.369C176.458 124.269 176.282 125.352 175.57 126.063 174.804 126.828 173.721 127.004 172.821 126.555L170.755 125.521C170.614 125.451 170.495 125.496 170.438 125.53 170.38 125.564 170.281 125.644 170.271 125.8L170.133 128.107C170.073 129.111 169.38 129.961 168.407 130.221 167.361 130.503 166.337 130.113 165.782 129.273L164.508 127.344C164.422 127.214 164.297 127.194 164.229 127.194 164.162 127.194 164.037 127.214 163.951 127.344L162.678 129.273C162.237 129.939 161.502 130.321 160.731 130.321M189.659 107.99C189.862 107.99 190.066 108.016 190.268 108.07 191.026 108.275 191.628 108.841 191.876 109.587L192.606 111.778C192.652 111.915 192.779 112.007 192.924 112.007 193.146 112.007 193.272 111.915 193.318 111.778L194.049 109.587C194.297 108.84 194.899 108.274 195.659 108.07 196.418 107.867 197.224 108.056 197.811 108.578L199.54 110.111C199.65 110.207 199.806 110.222 199.929 110.151 200.12 110.04 200.185 109.897 200.155 109.755L199.692 107.492C199.535 106.721 199.772 105.929 200.329 105.373 200.885 104.818 201.679 104.579 202.446 104.737L204.711 105.201C204.856 105.229 204.996 105.164 205.067 105.041 205.178 104.849 205.162 104.693 205.066 104.586L203.533 102.856C203.012 102.268 202.821 101.463 203.024 100.703 203.229 99.944 203.795 99.342 204.541 99.093L206.733 98.362C206.87 98.317 206.962 98.19 206.962 98.046 206.962 97.825 206.87 97.697 206.733 97.652L204.541 96.921C203.795 96.673 203.229 96.07 203.024 95.311 202.821 94.551 203.012 93.747 203.533 93.158L205.066 91.429C205.162 91.321 205.178 91.165 205.105 91.041 204.996 90.849 204.848 90.783 204.712 90.814L202.446 91.277C201.679 91.437 200.885 91.197 200.329 90.641 199.772 90.085 199.535 89.293 199.692 88.523L200.156 86.258C200.185 86.118 200.12 85.974 199.996 85.902 199.803 85.792 199.648 85.807 199.541 85.903L197.811 87.437C197.223 87.957 196.416 88.148 195.659 87.945 194.899 87.741 194.297 87.174 194.049 86.428L193.317 84.235C193.272 84.099 193.145 84.007 193.001 84.007 192.78 84.007 192.652 84.099 192.606 84.236L191.875 86.428C191.628 87.173 191.026 87.74 190.268 87.944 189.51 88.148 188.703 87.96 188.113 87.437L186.384 85.902C186.277 85.807 186.119 85.791 185.994 85.864 185.805 85.974 185.74 86.117 185.769 86.258L186.231 88.523C186.39 89.292 186.152 90.084 185.597 90.64 185.04 91.196 184.246 91.433 183.478 91.277L181.214 90.814C181.065 90.784 180.929 90.85 180.857 90.974 180.746 91.165 180.762 91.321 180.857 91.429L182.391 93.158C182.912 93.746 183.103 94.55 182.899 95.31 182.696 96.07 182.129 96.672 181.383 96.921L179.19 97.652C179.054 97.697 178.962 97.825 178.962 97.969 178.962 98.19 179.054 98.317 179.19 98.362L181.383 99.093C182.129 99.342 182.696 99.945 182.899 100.705 183.103 101.464 182.912 102.269 182.391 102.857L180.857 104.586C180.762 104.693 180.746 104.849 180.818 104.974 180.93 105.166 181.079 105.23 181.213 105.201L183.478 104.737C184.247 104.579 185.04 104.818 185.596 105.374 186.152 105.93 186.39 106.722 186.231 107.492L185.769 109.756C185.74 109.897 185.805 110.04 185.929 110.112 186.119 110.222 186.275 110.207 186.385 110.111L188.113 108.578C188.547 108.194 189.097 107.99 189.659 107.99zM193.001 114.007C191.918 114.007 191.027 113.366 190.71 112.411L189.979 110.219C189.929 110.07 189.813 110.019 189.749 110.002 189.685 109.985 189.557 109.971 189.439 110.075L187.711 111.608C186.96 112.275 185.87 112.386 184.996 111.883 184.058 111.341 183.607 110.34 183.81 109.355L184.272 107.091C184.304 106.938 184.229 106.835 184.182 106.788 184.134 106.74 184.03 106.667 183.878 106.696L181.614 107.16C180.629 107.362 179.628 106.911 179.125 106.041 178.583 105.102 178.693 104.011 179.361 103.258L180.895 101.529C180.998 101.412 180.985 101.286 180.968 101.221 180.95 101.157 180.899 101.04 180.75 100.991L178.558 100.26C177.604 99.941 176.962 99.052 176.962 98.046 176.962 96.962 177.604 96.073 178.558 95.755L180.75 95.024C180.899 94.974 180.95 94.857 180.968 94.793 180.985 94.728 180.998 94.603 180.895 94.486L179.361 92.756C178.693 92.003 178.583 90.912 179.086 90.041 179.628 89.103 180.624 88.651 181.615 88.855L183.878 89.318C184.033 89.348 184.134 89.274 184.182 89.226 184.229 89.179 184.304 89.077 184.272 88.923L183.81 86.659C183.607 85.674 184.058 84.673 184.929 84.171 185.867 83.628 186.959 83.739 187.711 84.406L189.44 85.94C189.557 86.044 189.685 86.029 189.749 86.012 189.813 85.995 189.929 85.944 189.978 85.796L190.71 83.603C191.028 82.648 191.918 82.007 192.924 82.007 194.007 82.007 194.896 82.648 195.215 83.603L195.946 85.796C195.995 85.944 196.111 85.995 196.176 86.012 196.241 86.029 196.366 86.044 196.484 85.94L198.214 84.406C198.965 83.739 200.056 83.627 200.929 84.132 201.865 84.672 202.316 85.671 202.116 86.658L201.651 88.923C201.62 89.076 201.695 89.179 201.743 89.227 201.79 89.274 201.891 89.352 202.046 89.317L204.311 88.855C205.298 88.65 206.296 89.102 206.8 89.974 207.341 90.912 207.23 92.003 206.563 92.756L205.029 94.485C204.926 94.602 204.939 94.729 204.957 94.794 204.974 94.858 205.025 94.974 205.174 95.024L207.366 95.755C208.32 96.073 208.962 96.962 208.962 97.969 208.962 99.052 208.32 99.941 207.366 100.26L205.174 100.991C205.025 101.04 204.974 101.156 204.957 101.221 204.939 101.286 204.926 101.412 205.029 101.529L206.563 103.258C207.23 104.011 207.341 105.102 206.838 105.974 206.296 106.912 205.3 107.363 204.31 107.16L202.046 106.696C201.891 106.667 201.79 106.739 201.743 106.787 201.695 106.835 201.62 106.938 201.651 107.091L202.115 109.355C202.316 110.343 201.865 111.342 200.994 111.844 200.058 112.387 198.966 112.275 198.214 111.608L196.484 110.075C196.366 109.97 196.241 109.984 196.176 110.002 196.111 110.019 195.995 110.07 195.945 110.219L195.215 112.411C194.897 113.366 194.007 114.007 193.001 114.007z"/>
    <path fill="#475059" d="M192.962,96.007 C191.859,96.007 190.962,96.904 190.962,98.007 C190.962,99.11 191.859,100.007 192.962,100.007 C194.064,100.007 194.962,99.11 194.962,98.007 C194.962,96.904 194.064,96.007 192.962,96.007 Z M192.962,102.007 C190.756,102.007 188.962,100.213 188.962,98.007 C188.962,95.801 190.756,94.007 192.962,94.007 C195.168,94.007 196.962,95.801 196.962,98.007 C196.962,100.213 195.168,102.007 192.962,102.007 Z"/>
    <path fill="#F58E70" d="M101.996,90.018 C94.828,90.018 88.996,95.85 88.996,103.018 C88.996,110.187 94.828,116.018 101.996,116.018 C109.164,116.018 114.996,110.187 114.996,103.018 C114.996,95.85 109.164,90.018 101.996,90.018 Z M101.996,118.018 C93.725,118.018 86.996,111.289 86.996,103.018 C86.996,94.747 93.725,88.018 101.996,88.018 C110.268,88.018 116.996,94.747 116.996,103.018 C116.996,111.289 110.268,118.018 101.996,118.018 Z"/>
    <path fill="#475059" d="M55.01,168.917 C51.937,168.917 48.864,170.086 46.525,172.424 C44.258,174.69 43.009,177.702 43.009,180.907 C43.009,184.113 44.258,187.127 46.525,189.394 C51.205,194.074 58.822,194.077 63.502,189.399 C65.77,187.133 67.019,184.121 67.019,180.916 C67.019,177.71 65.77,174.696 63.502,172.429 C61.161,170.088 58.085,168.917 55.01,168.917 Z M55.018,194.905 C51.43,194.905 47.843,193.54 45.111,190.808 C42.466,188.163 41.009,184.647 41.009,180.907 C41.009,177.168 42.466,173.652 45.111,171.009 C50.571,165.552 59.456,165.555 64.916,171.015 C67.562,173.66 69.019,177.176 69.019,180.916 C69.019,184.655 67.562,188.171 64.916,190.814 C62.187,193.541 58.602,194.905 55.018,194.905 Z"/>
    <path fill="#475059" d="M72.374,199.739 C71.343,199.739 69.444,198.88 65.399,195.701 C61.629,192.738 56.936,188.49 52.185,183.739 C47.434,178.989 43.186,174.296 40.223,170.525 C35.511,164.529 35.895,163.25 36.623,162.521 C37.271,161.875 38.476,160.676 48.284,169.148 L46.977,170.662 C42.298,166.62 39.638,164.894 38.417,164.328 C39.507,166.729 44.719,173.446 53.599,182.325 C62.479,191.206 69.197,196.418 71.599,197.507 C71.032,196.288 69.307,193.628 65.266,188.948 L66.779,187.641 C75.254,197.455 74.051,198.657 73.403,199.302 C73.167,199.539 72.871,199.739 72.374,199.739"/>
    <polygon fill="#48515A" points="35 49.932 37 49.932 37 45.932 35 45.932"/>
    <polygon fill="#48515A" points="35 59.932 37 59.932 37 55.932 35 55.932"/>
    <polygon fill="#48515A" points="39 53.932 43 53.932 43 51.932 39 51.932"/>
    <polygon fill="#48515A" points="29 53.932 33 53.932 33 51.932 29 51.932"/>
    <polygon fill="#48515A" points="213 177.932 215 177.932 215 173.932 213 173.932"/>
    <polygon fill="#48515A" points="213 187.932 215 187.932 215 183.932 213 183.932"/>
    <polygon fill="#48515A" points="217 181.932 221 181.932 221 179.932 217 179.932"/>
    <polygon fill="#48515A" points="207 181.932 211 181.932 211 179.932 207 179.932"/>
    <polygon fill="#48515A" points="117 201.932 119 201.932 119 197.932 117 197.932"/>
    <polygon fill="#48515A" points="117 211.932 119 211.932 119 207.932 117 207.932"/>
    <polygon fill="#48515A" points="121 205.932 125 205.932 125 203.932 121 203.932"/>
    <polygon fill="#48515A" points="111 205.932 115 205.932 115 203.932 111 203.932"/>
    <path fill="#FFD15D" d="M199 130.932C199 132.589 197.657 133.932 196 133.932 194.343 133.932 193 132.589 193 130.932 193 129.275 194.343 127.932 196 127.932 197.657 127.932 199 129.275 199 130.932M101 186.932C101 189.694 98.761 191.932 96 191.932 93.238 191.932 91 189.694 91 186.932 91 184.171 93.238 181.932 96 181.932 98.761 181.932 101 184.171 101 186.932M173 55.932C173 57.037 173.895 57.932 175 57.932 176.104 57.932 177 57.037 177 55.932 177 54.828 176.104 53.932 175 53.932 173.895 53.932 173 54.828 173 55.932"/>
    <path fill="#DEDEDD" d="M101.996,112.018 C97.033,112.018 92.996,107.981 92.996,103.018 C92.996,98.055 97.033,94.018 101.996,94.018 C106.958,94.018 110.996,98.055 110.996,103.018 C110.996,107.981 106.958,112.018 101.996,112.018 Z M101.996,92.018 C95.93,92.018 90.996,96.952 90.996,103.018 C90.996,109.083 95.93,114.018 101.996,114.018 C108.061,114.018 112.996,109.083 112.996,103.018 C112.996,96.952 108.061,92.018 101.996,92.018 Z"/>
    <path fill="#DEDEDD" d="M101.996,120.018 C92.622,120.018 84.996,112.392 84.996,103.018 C84.996,93.644 92.622,86.018 101.996,86.018 C111.369,86.018 118.996,93.644 118.996,103.018 C118.996,112.392 111.369,120.018 101.996,120.018 Z M121.155,108.152 C121.65,106.307 123.026,104.846 124.838,104.242 L128.509,103.018 L124.838,101.794 C123.026,101.19 121.65,99.729 121.155,97.884 C120.661,96.04 121.122,94.086 122.389,92.657 L124.957,89.761 L121.166,90.537 C119.294,90.921 117.371,90.342 116.021,88.992 C114.671,87.641 114.093,85.719 114.477,83.848 L115.252,80.057 L112.357,82.624 C110.928,83.891 108.975,84.353 107.129,83.858 C105.285,83.364 103.823,81.988 103.219,80.176 L101.996,76.505 L100.772,80.176 C100.168,81.987 98.706,83.364 96.862,83.858 C95.018,84.353 93.063,83.891 91.634,82.624 L88.739,80.057 L89.515,83.848 C89.898,85.719 89.32,87.642 87.97,88.992 C86.62,90.343 84.698,90.919 82.826,90.537 L79.035,89.762 L81.602,92.657 C82.869,94.086 83.331,96.04 82.836,97.884 C82.342,99.729 80.965,101.19 79.154,101.794 L75.483,103.018 L79.154,104.242 C80.965,104.846 82.342,106.307 82.836,108.152 C83.33,109.996 82.869,111.951 81.602,113.379 L79.035,116.275 L82.826,115.499 C84.697,115.116 86.619,115.693 87.97,117.044 C89.32,118.394 89.898,120.317 89.515,122.188 L88.739,125.979 L91.634,123.411 C92.686,122.479 94.022,121.983 95.389,121.983 C95.88,121.983 96.375,122.047 96.862,122.178 C98.706,122.672 100.168,124.048 100.772,125.86 L101.996,129.531 L103.219,125.86 C103.823,124.048 105.285,122.672 107.129,122.178 C108.973,121.683 110.928,122.144 112.357,123.411 L115.252,125.979 L114.476,122.188 C114.093,120.317 114.671,118.394 116.021,117.044 C117.372,115.693 119.295,115.115 121.166,115.499 L124.957,116.275 L122.389,113.379 C121.122,111.95 120.661,109.996 121.155,108.152 Z"/>
  </g>
</svg>
