<svg xmlns="http://www.w3.org/2000/svg" width="250" height="250" viewBox="0 0 250 250">
  <g fill="none" fill-rule="evenodd">
    <path fill="#5FE0ED" d="M220.095 185.661C220.095 186.765 219.2 187.661 218.095 187.661 216.99 187.661 216.095 186.765 216.095 185.661 216.095 184.556 216.99 183.661 218.095 183.661 219.2 183.661 220.095 184.556 220.095 185.661M124.334 110.753C113.04 110.753 103.852 119.942 103.852 131.236 103.852 142.53 113.04 151.718 124.334 151.718 135.628 151.718 144.817 142.53 144.817 131.236 144.817 119.942 135.628 110.753 124.334 110.753"/>
    <path fill="#5FE0ED" d="M124.334,151.718 C113.04,151.718 103.852,142.53 103.852,131.236 C103.852,119.942 113.04,110.753 124.334,110.753 C135.628,110.753 144.817,119.942 144.817,131.236 C144.817,142.53 135.628,151.718 124.334,151.718"/>
    <polyline fill="#FFD15D" points="199.99 139 124.99 107 48.99 139 49.02 215 200.02 215 199.99 139"/>
    <path fill="#DFE0E0" d="M176,131.643 L192.066,131.643 C190.769,129.621 190.016,127.218 190.016,124.643 L190.016,102.667 C190.016,98.807 186.876,95.667 183.016,95.667 C179.129,95.667 175.989,98.807 175.989,102.667 L176,131.643"/>
    <polyline fill="#475059" points="124.993 172.091 50.593 139.918 51.387 138.082 124.987 169.909 197.589 138.084 198.392 139.916 124.993 172.091"/>
    <path fill="#475059" d="M192.376 212.132C192.186 212.132 191.993 212.078 191.823 211.965L128.668 169.965C128.208 169.658 128.083 169.038 128.389 168.578 128.695 168.116 129.315 167.992 129.775 168.299L192.931 210.299C193.391 210.605 193.516 211.226 193.21 211.686 193.017 211.976 192.699 212.132 192.376 212.132M56.307 212.428C55.981 212.428 55.662 212.269 55.47 211.976 55.167 211.514 55.296 210.894 55.758 210.591L119.99 168.515C120.453 168.213 121.072 168.342 121.375 168.804 121.677 169.266 121.548 169.886 121.086 170.188L56.854 212.265C56.685 212.375 56.495 212.428 56.307 212.428"/>
    <path fill="#FFF" d="M109,201 L137,201"/>
    <path fill="#48515A" d="M108,201 C108,200.45 108.45,200 109,200 C109.55,200 110,200.45 110,201 C110,201.55 109.55,202 109,202 C108.45,202 108,201.55 108,201 Z M112,201 C112,200.45 112.45,200 113,200 C113.55,200 114,200.45 114,201 C114,201.55 113.55,202 113,202 C112.45,202 112,201.55 112,201 Z M116,201 C116,200.45 116.45,200 117,200 C117.55,200 118,200.45 118,201 C118,201.55 117.55,202 117,202 C116.45,202 116,201.55 116,201 Z M120,201 C120,200.45 120.45,200 121,200 C121.55,200 122,200.45 122,201 C122,201.55 121.55,202 121,202 C120.45,202 120,201.55 120,201 Z M124,201 C124,200.45 124.45,200 125,200 C125.55,200 126,200.45 126,201 C126,201.55 125.55,202 125,202 C124.45,202 124,201.55 124,201 Z M128,201 C128,200.45 128.45,200 129,200 C129.55,200 130,200.45 130,201 C130,201.55 129.55,202 129,202 C128.45,202 128,201.55 128,201 Z M132,201 C132,200.45 132.45,200 133,200 C133.55,200 134,200.45 134,201 C134,201.55 133.55,202 133,202 C132.45,202 132,201.55 132,201 Z M136,201 C136,200.45 136.45,200 137,200 C137.55,200 138,200.45 138,201 C138,201.55 137.55,202 137,202 C136.45,202 136,201.55 136,201 Z"/>
    <path fill="#475059" d="M173.989,149.642 L171.989,149.642 L171.989,102.667 C171.989,96.602 176.923,91.667 182.989,91.667 C189.082,91.667 194.016,96.602 194.016,102.667 L194.016,124.643 C194.016,129.605 198.053,133.643 203.016,133.643 C207.979,133.643 212.016,129.605 212.016,124.643 L212.016,92.643 L214.016,92.643 L214.016,124.643 C214.016,130.708 209.082,135.643 203.016,135.643 C196.951,135.643 192.016,130.708 192.016,124.643 L192.016,102.667 C192.016,97.704 187.979,93.667 183.016,93.667 C178.026,93.667 173.989,97.704 173.989,102.667 L173.989,149.642"/>
    <path fill="#475059" d="M75.989,148.91 L73.989,148.91 L73.989,102.643 C73.989,96.577 78.923,91.643 84.989,91.643 L183.016,91.643 L183.016,93.643 L85.016,93.643 C80.026,93.643 75.989,97.68 75.989,102.643 L75.989,148.91"/>
    <polyline fill="#475059" points="214.012 124.91 212.012 124.91 212.012 37.357 139.369 37.357 116.002 57.095 116.002 92.643 114.002 92.643 114.002 56.167 138.636 35.357 214.012 35.357 214.012 124.91"/>
    <polyline fill="#475059" points="140.002 57.631 115.002 57.631 115.002 55.631 138.002 55.631 138.002 36.357 140.002 36.357 140.002 57.631"/>
    <polyline fill="#475059" points="117.002 55.856 115.002 55.856 115.002 36.356 137.502 36.356 137.502 38.356 117.002 38.356 117.002 55.856"/>
    <polygon fill="#475059" points="151.016 59.643 177.016 59.643 177.016 57.643 151.016 57.643"/>
    <polyline fill="#FFD15D" points="123.202 53.631 136.002 53.631 136.002 42.818 123.202 53.631"/>
    <polygon fill="#475059" points="137.016 65.643 191.016 65.643 191.016 63.643 137.016 63.643"/>
    <polygon fill="#475059" points="131.016 71.643 197.016 71.643 197.016 69.643 131.016 69.643"/>
    <polygon fill="#475059" points="137.016 77.643 191.016 77.643 191.016 75.643 137.016 75.643"/>
    <polygon fill="#475059" points="131.016 83.643 197.016 83.643 197.016 81.643 131.016 81.643"/>
    <polyline fill="#475059" points="124.993 172.091 48.47 139 74.944 127.552 75.738 129.388 53.509 139 124.987 169.909 195.499 139 188.376 135.878 189.179 134.046 200.481 139 124.993 172.091"/>
    <polygon fill="#475059" points="173.016 135.643 203.016 135.643 203.016 133.643 173.016 133.643"/>
    <path fill="#475059" d="M124.334,108.753 C111.937,108.753 101.852,118.839 101.852,131.235 C101.852,143.632 111.937,153.718 124.334,153.718 C136.731,153.718 146.817,143.632 146.817,131.235 C146.817,118.839 136.731,108.753 124.334,108.753 Z M124.334,155.718 C110.834,155.718 99.852,144.735 99.852,131.235 C99.852,117.735 110.834,106.753 124.334,106.753 C137.833,106.753 148.817,117.735 148.817,131.235 C148.817,144.735 137.833,155.718 124.334,155.718 Z"/>
    <path fill="#475059" d="M124.332,108.753 C118.02,108.753 112.688,119.049 112.688,131.235 C112.688,143.422 118.02,153.718 124.332,153.718 C130.644,153.718 135.976,143.422 135.976,131.235 C135.976,119.049 130.644,108.753 124.332,108.753 Z M124.332,155.718 C116.681,155.718 110.688,144.964 110.688,131.235 C110.688,117.507 116.681,106.753 124.332,106.753 C131.983,106.753 137.976,117.507 137.976,131.235 C137.976,144.964 131.983,155.718 124.332,155.718 Z"/>
    <polygon fill="#475059" points="100.852 132.235 147.817 132.235 147.817 130.235 100.852 130.235"/>
    <path fill="#48515A" d="M49.909,70.215 L92.169,70.215 L92.169,44.733 L49.909,44.733 L49.909,70.215 Z M47.909,72.214 L94.169,72.214 L94.169,42.732 L47.909,42.732 L47.909,72.214 Z"/>
    <path fill="#48515A" d="M71.039,58.75 C70.852,58.75 70.665,58.698 70.501,58.594 L54.378,48.319 L55.453,46.632 L71.037,56.564 L85.986,46.973 L87.066,48.656 L71.579,58.592 C71.414,58.697 71.226,58.75 71.039,58.75"/>
    <polyline fill="#48515A" points="89.01 68.286 80.086 57.58 81.623 56.299 90.546 67.005 89.01 68.286"/>
    <polyline fill="#48515A" points="53.068 68.286 51.532 67.005 60.455 56.299 61.991 57.58 53.068 68.286"/>
    <polygon fill="#48515A" points="71.889 87.145 73.889 87.145 73.889 74.11 71.889 74.11"/>
    <path fill="#48515A" d="M72.885,92.492 C72.626,92.492 72.376,92.383 72.186,92.192 C72.085,92.102 72.016,91.992 71.965,91.872 C71.915,91.752 71.885,91.622 71.885,91.492 C71.885,91.232 71.996,90.973 72.186,90.782 C72.456,90.502 72.905,90.412 73.275,90.562 C73.396,90.622 73.505,90.692 73.595,90.782 C73.786,90.973 73.885,91.223 73.885,91.492 C73.885,91.622 73.865,91.752 73.815,91.872 C73.766,91.992 73.686,92.102 73.595,92.192 C73.505,92.292 73.396,92.362 73.275,92.412 C73.155,92.462 73.025,92.492 72.885,92.492"/>
    <polygon fill="#48515A" points="80.581 78.448 82.581 78.448 82.581 74.11 80.581 74.11"/>
    <path fill="#48515A" d="M81.585,83.792 C81.445,83.792 81.315,83.772 81.195,83.723 C81.075,83.673 80.965,83.593 80.876,83.502 C80.686,83.312 80.585,83.062 80.585,82.792 C80.585,82.662 80.605,82.532 80.655,82.412 C80.706,82.292 80.786,82.183 80.876,82.093 C81.246,81.712 81.915,81.712 82.286,82.093 C82.476,82.272 82.585,82.532 82.585,82.792 C82.585,83.062 82.476,83.312 82.286,83.502 C82.195,83.593 82.085,83.673 81.965,83.723 C81.845,83.772 81.715,83.792 81.585,83.792"/>
    <polygon fill="#48515A" points="63.192 81.347 65.192 81.347 65.192 74.11 63.192 74.11"/>
    <path fill="#48515A" d="M64.195,86.692 C64.056,86.692 63.925,86.662 63.806,86.622 C63.685,86.563 63.575,86.492 63.485,86.402 C63.295,86.212 63.195,85.962 63.195,85.692 C63.195,85.563 63.215,85.433 63.266,85.312 C63.315,85.192 63.396,85.082 63.485,84.982 C63.766,84.702 64.206,84.612 64.575,84.772 C64.695,84.822 64.806,84.893 64.896,84.982 C65.085,85.173 65.195,85.433 65.195,85.692 C65.195,85.952 65.085,86.202 64.896,86.402 C64.706,86.593 64.456,86.692 64.195,86.692"/>
    <path fill="#475059" d="M49.274,176.666 L84.654,176.688 L90.12,173.207 L84.269,169.673 L34.783,169.643 C34.782,169.643 34.781,169.643 34.78,169.643 C33.843,169.643 32.963,170.007 32.301,170.668 C31.639,171.329 31.274,172.209 31.274,173.146 C31.275,175.079 32.851,176.655 34.787,176.657 L49.274,176.666 Z M85.236,178.688 L34.785,178.657 C31.747,178.653 29.275,176.182 29.274,173.146 C29.273,171.675 29.847,170.292 30.888,169.252 C31.928,168.214 33.31,167.643 34.78,167.643 C34.782,167.643 34.783,167.643 34.785,167.643 L84.827,167.673 L93.914,173.162 L85.236,178.688 Z"/>
    <polyline fill="#475059" points="40.55 177.663 40.548 168.649 42.548 168.649 42.55 177.663 40.55 177.663"/>
    <polygon fill="#475059" points="83.945 177.428 85.945 177.428 85.945 168.942 83.945 168.942"/>
    <polygon fill="#475059" points="41.617 174.185 84.46 174.185 84.46 172.185 41.617 172.185"/>
    <path fill="#F58E70" d="M47.992 95.607C47.992 96.711 47.096 97.607 45.992 97.607 44.887 97.607 43.992 96.711 43.992 95.607 43.992 94.502 44.887 93.607 45.992 93.607 47.096 93.607 47.992 94.502 47.992 95.607M198.082 54.582C198.082 55.686 197.186 56.582 196.082 56.582 194.977 56.582 194.082 55.686 194.082 54.582 194.082 53.477 194.977 52.582 196.082 52.582 197.186 52.582 198.082 53.477 198.082 54.582"/>
    <polygon fill="#48515A" points="213.053 197.663 215.053 197.663 215.053 193.663 213.053 193.663"/>
    <polygon fill="#48515A" points="213.053 207.663 215.053 207.663 215.053 203.663 213.053 203.663"/>
    <polygon fill="#48515A" points="217.053 201.663 221.053 201.663 221.053 199.663 217.053 199.663"/>
    <polygon fill="#48515A" points="207.053 201.663 211.053 201.663 211.053 199.663 207.053 199.663"/>
    <polygon fill="#48515A" points="34.947 117.615 36.947 117.615 36.947 113.615 34.947 113.615"/>
    <polygon fill="#48515A" points="34.947 127.615 36.947 127.615 36.947 123.615 34.947 123.615"/>
    <polygon fill="#48515A" points="38.947 121.615 42.947 121.615 42.947 119.615 38.947 119.615"/>
    <polygon fill="#48515A" points="28.947 121.615 32.947 121.615 32.947 119.615 28.947 119.615"/>
  </g>
</svg>
