<svg xmlns="http://www.w3.org/2000/svg" width="250" height="250" viewBox="0 0 250 250">
  <g fill="none" fill-rule="evenodd">
    <path fill="#F58E70" d="M163.023 204.986L133.356 204.986C132.804 204.986 132.356 204.538 132.356 203.986 132.356 203.434 132.804 202.986 133.356 202.986L163.023 202.986C163.576 202.986 164.023 203.434 164.023 203.986 164.023 204.538 163.576 204.986 163.023 204.986M197.689 204.986L168.023 204.986C167.471 204.986 167.023 204.538 167.023 203.986 167.023 203.434 167.471 202.986 168.023 202.986L197.689 202.986C198.242 202.986 198.689 203.434 198.689 203.986 198.689 204.538 198.242 204.986 197.689 204.986M202.022 204.986C201.763 204.986 201.503 204.876 201.313 204.696 201.133 204.506 201.022 204.246 201.022 203.986 201.022 203.716 201.133 203.466 201.313 203.276 201.683 202.906 202.362 202.906 202.732 203.276 202.913 203.466 203.022 203.716 203.022 203.986 203.022 204.246 202.913 204.506 202.732 204.696 202.543 204.876 202.283 204.986 202.022 204.986M206.022 204.986C205.763 204.986 205.503 204.876 205.313 204.696 205.223 204.606 205.152 204.496 205.103 204.366 205.053 204.246 205.022 204.116 205.022 203.986 205.022 203.726 205.133 203.466 205.313 203.276 205.683 202.906 206.362 202.906 206.732 203.276 206.913 203.466 207.022 203.726 207.022 203.986 207.022 204.246 206.913 204.506 206.732 204.696 206.543 204.876 206.283 204.986 206.022 204.986M134.022 198.986C133.763 198.986 133.503 198.876 133.313 198.696 133.133 198.506 133.022 198.256 133.022 197.986 133.022 197.856 133.053 197.726 133.103 197.606 133.152 197.476 133.223 197.376 133.313 197.276 133.683 196.906 134.362 196.906 134.732 197.276 134.913 197.466 135.022 197.726 135.022 197.986 135.022 198.056 135.013 198.116 135.003 198.186 134.993 198.246 134.973 198.306 134.942 198.366 134.923 198.426 134.893 198.486 134.853 198.546 134.813 198.596 134.772 198.646 134.732 198.696 134.543 198.876 134.283 198.986 134.022 198.986M138.022 200.986C137.763 200.986 137.503 200.876 137.313 200.696 137.272 200.646 137.223 200.596 137.192 200.536 137.152 200.486 137.123 200.426 137.103 200.366 137.072 200.306 137.053 200.246 137.043 200.186 137.033 200.116 137.022 200.056 137.022 199.986 137.022 199.726 137.133 199.466 137.313 199.276 137.692 198.906 138.353 198.906 138.732 199.276 138.913 199.466 139.022 199.726 139.022 199.986 139.022 200.056 139.013 200.116 139.003 200.186 138.993 200.246 138.973 200.306 138.942 200.366 138.923 200.426 138.893 200.486 138.853 200.536 138.813 200.596 138.772 200.646 138.732 200.696 138.543 200.876 138.283 200.986 138.022 200.986M138.022 196.986C137.763 196.986 137.503 196.876 137.313 196.696 137.133 196.506 137.022 196.246 137.022 195.986 137.022 195.856 137.053 195.726 137.103 195.606 137.152 195.486 137.223 195.376 137.313 195.276 137.692 194.906 138.353 194.906 138.732 195.276 138.822 195.376 138.893 195.486 138.942 195.606 138.993 195.726 139.022 195.856 139.022 195.986 139.022 196.246 138.913 196.506 138.732 196.696 138.543 196.876 138.283 196.986 138.022 196.986M142.022 198.986C141.953 198.986 141.893 198.976 141.822 198.966 141.763 198.956 141.703 198.936 141.643 198.906 141.583 198.886 141.522 198.856 141.473 198.816 141.413 198.776 141.362 198.736 141.313 198.696 141.133 198.506 141.022 198.256 141.022 197.986 141.022 197.726 141.133 197.466 141.313 197.276 141.362 197.236 141.413 197.196 141.473 197.156 141.522 197.116 141.583 197.086 141.643 197.066 141.703 197.036 141.763 197.016 141.822 197.006 142.022 196.966 142.223 196.986 142.402 197.066 142.522 197.116 142.633 197.186 142.732 197.276 142.913 197.466 143.022 197.726 143.022 197.986 143.022 198.256 142.913 198.506 142.732 198.696 142.633 198.786 142.522 198.856 142.402 198.906 142.283 198.956 142.152 198.986 142.022 198.986M146.022 196.986C145.763 196.986 145.503 196.876 145.313 196.696 145.272 196.646 145.232 196.596 145.192 196.546 145.152 196.486 145.123 196.426 145.103 196.366 145.072 196.306 145.053 196.246 145.043 196.186 145.022 196.116 145.022 196.056 145.022 195.986 145.022 195.856 145.043 195.726 145.103 195.606 145.152 195.486 145.223 195.376 145.313 195.276 145.683 194.906 146.362 194.906 146.732 195.276 146.822 195.376 146.893 195.486 146.942 195.606 146.993 195.726 147.022 195.856 147.022 195.986 147.022 196.246 146.913 196.506 146.732 196.696 146.683 196.736 146.633 196.776 146.583 196.816 146.522 196.856 146.463 196.886 146.402 196.906 146.343 196.936 146.283 196.956 146.223 196.966 146.152 196.976 146.093 196.986 146.022 196.986"/>
    <polygon fill="#48515A" points="92.025 204.014 94.025 204.014 94.025 200.014 92.025 200.014"/>
    <polygon fill="#48515A" points="92.025 214.014 94.025 214.014 94.025 210.014 92.025 210.014"/>
    <polygon fill="#48515A" points="96.025 208.014 100.025 208.014 100.025 206.014 96.025 206.014"/>
    <polygon fill="#48515A" points="86.025 208.014 90.025 208.014 90.025 206.014 86.025 206.014"/>
    <polyline fill="#475059" points="124.001 206.171 85.023 128.451 85.023 47.986 87.023 47.986 87.023 127.977 124.046 201.801 163.023 127.967 163.023 47.986 165.023 47.986 165.023 128.462 164.908 128.681 124.001 206.171"/>
    <polyline fill="#475059" points="142.021 171.05 107.021 170.986 107.024 168.986 142.025 169.05 142.021 171.05"/>
    <polyline fill="#475059" points="111.023 129.484 98.049 119.339 86.67 128.977 85.377 127.451 97.998 116.76 111.023 126.945 124.019 116.784 137.064 126.82 152.096 116.8 164.67 127.451 163.377 128.977 151.951 119.299 136.98 129.279 124.028 119.315 111.023 129.484"/>
    <path fill="#475059" d="M86.022 44.986C85.763 44.986 85.503 44.876 85.312 44.696 85.272 44.646 85.232 44.596 85.192 44.546 85.152 44.486 85.123 44.426 85.103 44.366 85.072 44.306 85.053 44.246 85.043 44.186 85.033 44.116 85.022 44.056 85.022 43.986 85.022 43.726 85.133 43.466 85.312 43.276 85.413 43.186 85.522 43.116 85.643 43.066 85.883 42.966 86.163 42.966 86.402 43.066 86.533 43.116 86.633 43.186 86.732 43.276 86.913 43.466 87.022 43.726 87.022 43.986 87.022 44.056 87.013 44.116 87.003 44.186 86.993 44.246 86.973 44.306 86.942 44.366 86.923 44.426 86.893 44.486 86.853 44.546 86.813 44.596 86.772 44.646 86.732 44.696 86.633 44.786 86.522 44.856 86.402 44.906 86.283 44.956 86.152 44.986 86.022 44.986M164.022 44.986C163.963 44.986 163.893 44.976 163.833 44.966 163.763 44.956 163.703 44.936 163.643 44.906 163.583 44.886 163.522 44.856 163.473 44.816 163.413 44.786 163.362 44.736 163.313 44.696 163.133 44.506 163.022 44.246 163.022 43.986 163.022 43.926 163.022 43.856 163.043 43.786 163.053 43.726 163.072 43.666 163.103 43.606 163.123 43.546 163.152 43.486 163.192 43.426 163.232 43.376 163.272 43.326 163.313 43.276 163.362 43.236 163.413 43.186 163.473 43.156 163.522 43.116 163.583 43.086 163.643 43.066 163.703 43.036 163.763 43.016 163.833 43.006 164.152 42.936 164.503 43.046 164.732 43.276 164.913 43.466 165.022 43.716 165.022 43.986 165.022 44.246 164.913 44.506 164.732 44.696 164.543 44.876 164.283 44.986 164.022 44.986"/>
    <polyline fill="#FFD15D" points="98.023 35.986 98.023 114.241 111.024 124.406 124.008 114.253 124.023 114.265 124.023 55.998 98.023 35.986"/>
    <polyline fill="#FFD15D" points="152.023 35.986 152.023 114.444 152.239 114.301 161.023 121.741 161.023 45.992 152.023 35.986"/>
    <polyline fill="#F58E70" points="111.842 173.004 124.092 197.43 136.97 173.035 111.842 173.004"/>
    <polygon fill="#48515A" points="34.991 56.925 36.991 56.925 36.991 52.925 34.991 52.925"/>
    <polygon fill="#48515A" points="34.991 66.925 36.991 66.925 36.991 62.925 34.991 62.925"/>
    <polygon fill="#48515A" points="38.991 60.925 42.991 60.925 42.991 58.925 38.991 58.925"/>
    <polygon fill="#48515A" points="28.991 60.925 32.991 60.925 32.991 58.925 28.991 58.925"/>
    <path fill="#FFD15D" d="M190.023 91.986C190.023 93.091 190.919 93.986 192.023 93.986 193.128 93.986 194.023 93.091 194.023 91.986 194.023 90.882 193.128 89.986 192.023 89.986 190.919 89.986 190.023 90.882 190.023 91.986M49.939 162.028C49.939 163.133 50.835 164.028 51.939 164.028 53.044 164.028 53.939 163.133 53.939 162.028 53.939 160.924 53.044 160.028 51.939 160.028 50.835 160.028 49.939 160.924 49.939 162.028"/>
    <path fill="#48515A" d="M175.109,174.031 C175.574,176.31 177.594,178.031 180.009,178.031 L197.114,178.031 C196.041,176.98 195.304,175.587 195.08,174.031 L175.109,174.031 Z M202.009,180.031 L180.009,180.031 C176.149,180.031 173.009,176.89 173.009,173.031 L173.009,172.031 L197.009,172.031 L197.009,173.031 C197.009,175.787 199.252,178.031 202.009,178.031 C204.766,178.031 207.009,175.787 207.009,173.031 L207.009,149.031 L209.009,149.031 L209.009,173.031 C209.009,176.89 205.868,180.031 202.009,180.031 Z"/>
    <path fill="#48515A" d="M198.938,148.031 L218.908,148.031 C218.443,145.751 216.424,144.031 214.009,144.031 L196.903,144.031 C197.977,145.081 198.714,146.474 198.938,148.031 Z M187.009,173.031 L185.009,173.031 L185.009,149.031 C185.009,145.171 188.149,142.031 192.009,142.031 L214.009,142.031 C217.868,142.031 221.009,145.171 221.009,149.031 L221.009,150.031 L197.009,150.031 L197.009,149.031 C197.009,146.274 194.766,144.031 192.009,144.031 C189.252,144.031 187.009,146.274 187.009,149.031 L187.009,173.031 Z"/>
    <path fill="#475059" d="M39.929,133.057 L52.433,133.057 L61.977,121.604 L65.654,105.057 L53.37,105.057 L43.82,116.516 L39.929,133.057 Z M53.37,135.057 L37.901,135.057 L37.928,132.828 L41.982,115.598 L52.433,103.057 L68.148,103.057 L63.825,122.511 L53.37,135.057 Z"/>
    <polyline fill="#475059" points="57.67 116.698 56.133 115.417 66.133 103.417 67.67 104.698 57.67 116.698"/>
    <polyline fill="#475059" points="53.901 134.057 51.901 134.057 51.929 132.73 55.637 117.057 42.901 117.057 42.901 115.057 58.166 115.057 53.901 133.077 53.901 134.057"/>
    <path fill="#475059" d="M179.023,74.152 L201.022,74.152 L201.022,67.633 C198.582,65.699 197.141,62.743 197.141,59.626 C197.141,56.508 198.582,53.553 201.022,51.619 L201.022,46.07 L179.023,46.07 L179.023,51.619 C181.464,53.553 182.905,56.508 182.905,59.626 C182.905,62.743 181.463,65.698 179.023,67.633 L179.023,74.152 Z M203.022,76.152 L177.023,76.152 L177.023,66.618 L177.443,66.319 C179.611,64.775 180.905,62.272 180.905,59.626 C180.905,56.979 179.611,54.477 177.443,52.932 L177.023,52.633 L177.023,44.07 L203.022,44.07 L203.022,52.633 L202.603,52.932 C200.435,54.476 199.141,56.978 199.141,59.626 C199.141,62.273 200.435,64.775 202.603,66.319 L203.022,66.618 L203.022,76.152 Z"/>
    <path fill="#475059" d="M187.023,46.195 L187.023,67.068 C187.023,68.722 188.369,70.068 190.023,70.068 C191.678,70.068 193.023,68.722 193.023,67.068 L193.023,46.195 L187.023,46.195 Z M190.023,72.068 C187.267,72.068 185.023,69.825 185.023,67.068 L185.023,44.195 L195.023,44.195 L195.023,67.068 C195.023,69.825 192.78,72.068 190.023,72.068 Z"/>
  </g>
</svg>
