<svg xmlns="http://www.w3.org/2000/svg" width="250" height="250" viewBox="0 0 250 250">
  <g fill="none" fill-rule="evenodd">
    <path fill="#5FE0ED" d="M65 206.5L179 206.5 179 56.5 65 56.5 65 206.5zM57 214.5L187 214.5 187 48.5 57 48.5 57 214.5zM207 139.47C207 141.127 205.657 142.47 204 142.47 202.343 142.47 201 141.127 201 139.47 201 137.813 202.343 136.47 204 136.47 205.657 136.47 207 137.813 207 139.47"/>
    <path fill="#DEDEDD" d="M77,124.5 L91,124.5 L91,110.5 L77,110.5 L77,124.5 Z M69,130.5 L175,130.5 L175,60.5 L69,60.5 L69,130.5 Z"/>
    <polygon fill="#DEDEDD" points="65 198.5 179 198.5 179 188.5 65 188.5"/>
    <polyline fill="#48515A" points="180 207.5 64 207.5 64 188.5 66 188.5 66 205.5 178 205.5 178 188.5 180 188.5 180 207.5"/>
    <path fill="#48515A" d="M116,51.5 L134,51.5 L134,46.5 C134,41.537 129.963,37.5 125,37.5 C120.037,37.5 116,41.537 116,46.5 L116,51.5 Z M136,53.5 L114,53.5 L114,46.5 C114,40.435 118.935,35.5 125,35.5 C131.065,35.5 136,40.435 136,46.5 L136,53.5 Z"/>
    <path fill="#48515A" d="M124.999 43.5C123.896 43.5 122.999 44.397 122.999 45.5 122.999 46.602 123.896 47.5 124.999 47.5 126.102 47.5 126.999 46.602 126.999 45.5 126.999 44.397 126.102 43.5 124.999 43.5zM124.999 49.5C122.793 49.5 120.999 47.706 120.999 45.5 120.999 43.294 122.793 41.5 124.999 41.5 127.205 41.5 128.999 43.294 128.999 45.5 128.999 47.706 127.205 49.5 124.999 49.5zM106 53.5L106 64.5C106 66.154 107.346 67.5 109 67.5L141 67.5C142.654 67.5 144 66.154 144 64.5L144 53.5 106 53.5zM141 69.5L109 69.5C106.243 69.5 104 67.257 104 64.5L104 51.5 146 51.5 146 64.5C146 67.257 143.757 69.5 141 69.5z"/>
    <path fill="#48515A" d="M110,71.5 L140,71.5 L140,69.5 L110,69.5 L110,71.5 Z M108,73.5 L142,73.5 L142,67.5 L108,67.5 L108,73.5 Z"/>
    <polyline fill="#48515A" points="204.539 189.5 39.461 189.5 64 134.288 64 55.5 105 55.5 105 57.5 66 57.5 66 134.712 65.914 134.906 42.539 187.5 201.461 187.5 178 134.712 178 122.5 180 122.5 180 134.288 204.539 189.5"/>
    <polyline fill="#48515A" points="180 110.5 178 110.5 178 57.5 145 57.5 145 55.5 180 55.5 180 110.5"/>
    <path fill="#FFF" d="M69,134.5 L131,134.5"/>
    <path fill="#48515A" d="M67.999,134.5 C67.999,133.95 68.449,133.5 68.999,133.5 C69.549,133.5 69.999,133.95 69.999,134.5 C69.999,135.05 69.549,135.5 68.999,135.5 C68.449,135.5 67.999,135.05 67.999,134.5 Z M71.999,134.5 C71.999,133.95 72.449,133.5 72.999,133.5 C73.549,133.5 73.999,133.95 73.999,134.5 C73.999,135.05 73.549,135.5 72.999,135.5 C72.449,135.5 71.999,135.05 71.999,134.5 Z M75.999,134.5 C75.999,133.95 76.449,133.5 76.999,133.5 C77.549,133.5 77.999,133.95 77.999,134.5 C77.999,135.05 77.549,135.5 76.999,135.5 C76.449,135.5 75.999,135.05 75.999,134.5 Z M79.999,134.5 C79.999,133.95 80.449,133.5 80.999,133.5 C81.549,133.5 81.999,133.95 81.999,134.5 C81.999,135.05 81.549,135.5 80.999,135.5 C80.449,135.5 79.999,135.05 79.999,134.5 Z M83.999,134.5 C83.999,133.95 84.449,133.5 84.999,133.5 C85.549,133.5 85.999,133.95 85.999,134.5 C85.999,135.05 85.549,135.5 84.999,135.5 C84.449,135.5 83.999,135.05 83.999,134.5 Z M87.999,134.5 C87.999,133.95 88.449,133.5 88.999,133.5 C89.549,133.5 89.999,133.95 89.999,134.5 C89.999,135.05 89.549,135.5 88.999,135.5 C88.449,135.5 87.999,135.05 87.999,134.5 Z M91.999,134.5 C91.999,133.95 92.449,133.5 92.999,133.5 C93.549,133.5 93.999,133.95 93.999,134.5 C93.999,135.05 93.549,135.5 92.999,135.5 C92.449,135.5 91.999,135.05 91.999,134.5 Z M95.999,134.5 C95.999,133.95 96.449,133.5 96.999,133.5 C97.549,133.5 97.999,133.95 97.999,134.5 C97.999,135.05 97.549,135.5 96.999,135.5 C96.449,135.5 95.999,135.05 95.999,134.5 Z M99.999,134.5 C99.999,133.95 100.449,133.5 100.999,133.5 C101.549,133.5 101.999,133.95 101.999,134.5 C101.999,135.05 101.549,135.5 100.999,135.5 C100.449,135.5 99.999,135.05 99.999,134.5 Z M103.999,134.5 C103.999,133.95 104.449,133.5 104.999,133.5 C105.549,133.5 105.999,133.95 105.999,134.5 C105.999,135.05 105.549,135.5 104.999,135.5 C104.449,135.5 103.999,135.05 103.999,134.5 Z M107.999,134.5 C107.999,133.95 108.449,133.5 108.999,133.5 C109.549,133.5 109.999,133.95 109.999,134.5 C109.999,135.05 109.549,135.5 108.999,135.5 C108.449,135.5 107.999,135.05 107.999,134.5 Z M111.999,134.5 C111.999,133.95 112.449,133.5 112.999,133.5 C113.549,133.5 113.999,133.95 113.999,134.5 C113.999,135.05 113.549,135.5 112.999,135.5 C112.449,135.5 111.999,135.05 111.999,134.5 Z M115.999,134.5 C115.999,133.95 116.449,133.5 116.999,133.5 C117.549,133.5 117.999,133.95 117.999,134.5 C117.999,135.05 117.549,135.5 116.999,135.5 C116.449,135.5 115.999,135.05 115.999,134.5 Z M119.999,134.5 C119.999,133.95 120.449,133.5 120.999,133.5 C121.549,133.5 121.999,133.95 121.999,134.5 C121.999,135.05 121.549,135.5 120.999,135.5 C120.449,135.5 119.999,135.05 119.999,134.5 Z M123.999,134.5 C123.999,133.95 124.449,133.5 124.999,133.5 C125.549,133.5 125.999,133.95 125.999,134.5 C125.999,135.05 125.549,135.5 124.999,135.5 C124.449,135.5 123.999,135.05 123.999,134.5 Z M127.999,134.5 C127.999,133.95 128.449,133.5 128.999,133.5 C129.549,133.5 129.999,133.95 129.999,134.5 C129.999,135.05 129.549,135.5 128.999,135.5 C128.449,135.5 127.999,135.05 127.999,134.5 Z"/>
    <polygon fill="#48515A" points="65 203.5 179 203.5 179 201.5 65 201.5"/>
    <polygon fill="#475059" points="99 81.5 167 81.5 167 79.5 99 79.5"/>
    <polygon fill="#475059" points="99 87.5 167 87.5 167 85.5 99 85.5"/>
    <polygon fill="#475059" points="99 93.5 139 93.5 139 91.5 99 91.5"/>
    <polygon fill="#475059" points="101 111.5 153 111.5 153 109.5 101 109.5"/>
    <polygon fill="#475059" points="101 117.5 149 117.5 149 115.5 101 115.5"/>
    <polygon fill="#475059" points="101 123.5 145 123.5 145 121.5 101 121.5"/>
    <polygon fill="#48515A" points="213 194.5 215 194.5 215 190.5 213 190.5"/>
    <polygon fill="#48515A" points="213 204.5 215 204.5 215 200.5 213 200.5"/>
    <polygon fill="#48515A" points="217 198.5 221 198.5 221 196.5 217 196.5"/>
    <polygon fill="#48515A" points="207 198.5 211 198.5 211 196.5 207 196.5"/>
    <polygon fill="#48515A" points="35 98.5 37 98.5 37 94.5 35 94.5"/>
    <polygon fill="#48515A" points="35 108.5 37 108.5 37 104.5 35 104.5"/>
    <polygon fill="#48515A" points="39 102.5 43 102.5 43 100.5 39 100.5"/>
    <polygon fill="#48515A" points="29 102.5 33 102.5 33 100.5 29 100.5"/>
    <path fill="#FFD15D" d="M51,77.5 C51,79.157 49.657,80.5 48,80.5 C46.343,80.5 45,79.157 45,77.5 C45,75.843 46.343,74.5 48,74.5 C49.657,74.5 51,75.843 51,77.5"/>
    <path fill="#F58E70" d="M46,197.5 C46,198.605 45.104,199.5 44,199.5 C42.895,199.5 42,198.605 42,197.5 C42,196.395 42.895,195.5 44,195.5 C45.104,195.5 46,196.395 46,197.5"/>
    <path fill="#48515A" d="M78,123.5 L90,123.5 L90,111.5 L78,111.5 L78,123.5 Z M76,125.5 L92,125.5 L92,109.5 L76,109.5 L76,125.5 Z"/>
    <polygon fill="#5FE0ED" points="77 94.5 91 94.5 91 80.5 77 80.5"/>
    <polyline fill="#48515A" points="83.2 91.898 79.4 88.099 80.814 86.685 83.2 89.07 92.293 79.977 93.707 81.392 83.2 91.898"/>
    <polyline fill="#48515A" points="91.999 95.5 75.999 95.5 75.999 79.5 88.831 79.5 88.831 81.5 77.999 81.5 77.999 93.5 89.999 93.5 89.999 86.583 91.999 86.583 91.999 95.5"/>
    <polyline fill="#FFD15D" points="133.804 149.212 135.218 150.626 136.804 149.041 142.461 149.041 174.876 116.626 167.805 109.555 135.39 141.969 135.39 147.626 133.804 149.212"/>
    <polyline fill="#FFD15D" points="134.511 154.163 131.682 156.991 126.025 154.163 130.268 149.92"/>
    <path fill="#475059" d="M130.976,149.212 L135.218,153.455 L137.633,151.04 L143.289,151.04 L177.704,116.626 L167.805,106.727 L133.39,141.141 L133.39,146.798 L130.976,149.212 Z M135.218,156.283 L128.147,149.212 L131.39,145.97 L131.39,140.313 L167.805,103.898 L180.532,116.626 L144.117,153.04 L138.461,153.04 L135.218,156.283 Z"/>
    <polyline fill="#475059" points="146.533 149.212 135.043 137.722 136.457 136.308 147.947 147.798 146.533 149.212"/>
    <polyline fill="#FFD15D" points="121 156.5 67 156.5 69 152.5 121 152.5 121 156.5"/>
    <polyline fill="#FFD15D" points="155 168.5 101 168.5 103 164.5 153 164.5 155 168.5"/>
    <polygon fill="#475059" points="69 167.5 97 167.5 97 165.5 69 165.5"/>
    <polygon fill="#475059" points="65 175.5 109 175.5 109 173.5 65 173.5"/>
    <polygon fill="#475059" points="157 167.5 177 167.5 177 165.5 157 165.5"/>
    <polygon fill="#475059" points="151 155.5 171 155.5 171 153.5 151 153.5"/>
    <path fill="#FFF" d="M167,134.5 L173.666,134.5"/>
    <path fill="#48515A" d="M165.999,134.5 C165.999,133.95 166.449,133.5 166.999,133.5 C167.549,133.5 167.999,133.95 167.999,134.5 C167.999,135.05 167.549,135.5 166.999,135.5 C166.449,135.5 165.999,135.05 165.999,134.5 Z M169.999,134.5 C169.999,133.95 170.449,133.5 170.999,133.5 C171.549,133.5 171.999,133.95 171.999,134.5 C171.999,135.05 171.549,135.5 170.999,135.5 C170.449,135.5 169.999,135.05 169.999,134.5 Z"/>
  </g>
</svg>
