<svg xmlns="http://www.w3.org/2000/svg" width="250" height="250" viewBox="0 0 250 250">
  <g fill="none" fill-rule="evenodd">
    <path fill="#DEDEDD" d="M205.093,171.683 L206.093,168.275 L157.191,80.556 C157.76,79.037 158.093,77.402 158.093,75.683 C158.093,68.982 153.382,63.388 147.092,62.014 L147.092,41.682 C147.092,40.025 145.749,38.682 144.092,38.682 C142.435,38.682 141.092,40.025 141.092,41.682 L141.092,62.014 C134.804,63.388 130.093,68.982 130.093,75.683 C130.093,77.438 130.432,79.109 131.021,80.656 L82.093,168.275 L83.092,171.683 L82.093,181.683 L116.093,121.683 L120.572,121.683 L138.995,88.702 C140.578,89.323 142.29,89.683 144.093,89.683 C145.914,89.683 147.644,89.315 149.24,88.682 L167.614,121.683 L172.093,121.683 L206.093,181.683 L205.093,171.683"/>
    <polyline fill="#48515A" points="89.59 134.885 89.587 132.885 159.08 132.717 159.084 134.717 89.59 134.885"/>
    <polygon fill="#48515A" points="167.181 134.885 177.806 134.885 177.806 132.885 167.181 132.885"/>
    <polygon fill="#48515A" points="176.806 139.336 178.806 139.336 178.806 128.434 176.806 128.434"/>
    <polyline fill="#48515A" points="60.614 186.3 62.066 171.778 61.003 168.154 110.011 80.281 111.757 81.256 63.158 168.396 64.095 171.589 63.548 177.067 95.498 120.684 99.972 120.684 117.975 88.389 119.721 89.363 101.148 122.684 96.664 122.684 60.614 186.3"/>
    <polyline fill="#48515A" points="187.547 186.3 151.498 122.684 147.014 122.684 128.441 89.363 130.187 88.389 148.19 120.684 152.664 120.684 184.615 177.067 184.067 171.589 185.004 168.396 136.503 81.432 138.249 80.457 187.158 168.154 186.096 171.778 187.547 186.3"/>
    <path fill="#48515A" d="M124.081,62.684 C116.913,62.684 111.081,68.516 111.081,75.684 C111.081,82.852 116.913,88.684 124.081,88.684 C131.249,88.684 137.081,82.852 137.081,75.684 C137.081,68.516 131.249,62.684 124.081,62.684 Z M124.081,90.684 C115.809,90.684 109.081,83.955 109.081,75.684 C109.081,67.412 115.809,60.684 124.081,60.684 C132.352,60.684 139.081,67.412 139.081,75.684 C139.081,83.955 132.352,90.684 124.081,90.684 Z"/>
    <path fill="#F58E70" d="M134.081,75.683 C134.081,81.206 129.603,85.683 124.081,85.683 C118.558,85.683 114.081,81.206 114.081,75.683 C114.081,70.16 118.558,65.683 124.081,65.683 C129.604,65.683 134.081,70.16 134.081,75.683"/>
    <path fill="#48515A" d="M124.081,80.684 C123.528,80.684 123.081,80.236 123.081,79.684 L123.081,71.684 C123.081,71.131 123.528,70.684 124.081,70.684 C124.633,70.684 125.081,71.131 125.081,71.684 L125.081,79.684 C125.081,80.236 124.633,80.684 124.081,80.684"/>
    <path fill="#48515A" d="M128.081 76.684L120.081 76.684C119.528 76.684 119.081 76.236 119.081 75.684 119.081 75.131 119.528 74.684 120.081 74.684L128.081 74.684C128.633 74.684 129.081 75.131 129.081 75.684 129.081 76.236 128.633 76.684 128.081 76.684M128.081 61.684L126.081 61.684 126.081 41.682C126.081 40.579 125.183 39.682 124.081 39.682 122.978 39.682 122.081 40.579 122.081 41.682L122.081 61.684 120.081 61.684 120.081 41.682C120.081 39.476 121.875 37.682 124.081 37.682 126.287 37.682 128.081 39.476 128.081 41.682L128.081 61.684"/>
    <path fill="#FFD15D" d="M60.081 141.683C60.081 142.788 59.186 143.683 58.081 143.683 56.976 143.683 56.081 142.788 56.081 141.683 56.081 140.579 56.976 139.683 58.081 139.683 59.186 139.683 60.081 140.579 60.081 141.683M172.075 109.683C172.075 108.579 172.97 107.683 174.075 107.683 175.179 107.683 176.075 108.579 176.075 109.683 176.075 110.788 175.179 111.683 174.075 111.683 172.97 111.683 172.075 110.788 172.075 109.683"/>
    <path fill="#475059" d="M125.383 212.318C89.149 212.318 55.582 195.899 33.287 167.272L34.865 166.044C56.778 194.181 89.77 210.318 125.383 210.318 160.996 210.318 193.988 194.181 215.901 166.044L217.479 167.272C195.184 195.899 161.617 212.318 125.383 212.318M32.009 164.658C31.74 164.658 31.49 164.558 31.299 164.368 31.11 164.178 31.009 163.918 31.009 163.658 31.009 163.398 31.12 163.138 31.299 162.948 31.389 162.858 31.5 162.788 31.63 162.728 31.809 162.658 32.009 162.638 32.2 162.678 32.27 162.688 32.33 162.708 32.389 162.728 32.45 162.758 32.509 162.788 32.559 162.828 32.62 162.858 32.67 162.908 32.719 162.948 32.9 163.138 33.009 163.398 33.009 163.658 33.009 163.788 32.98 163.918 32.929 164.038 32.88 164.158 32.809 164.268 32.719 164.368 32.62 164.458 32.509 164.528 32.389 164.578 32.27 164.628 32.139 164.658 32.009 164.658M218.12 164.658C217.99 164.658 217.86 164.628 217.74 164.578 217.62 164.528 217.509 164.458 217.42 164.368 217.32 164.268 217.25 164.158 217.2 164.038 217.15 163.918 217.12 163.788 217.12 163.658 217.12 163.398 217.23 163.138 217.42 162.948 217.639 162.718 217.99 162.608 218.32 162.678 218.38 162.688 218.44 162.708 218.5 162.728 218.559 162.758 218.62 162.788 218.679 162.828 218.73 162.858 218.78 162.908 218.83 162.948 219.009 163.138 219.12 163.398 219.12 163.658 219.12 163.788 219.089 163.918 219.04 164.038 218.99 164.158 218.92 164.268 218.83 164.368 218.73 164.458 218.62 164.528 218.5 164.578 218.38 164.628 218.25 164.658 218.12 164.658M54.878 104.855L81.948 104.855 81.948 77.786 54.878 104.855zM83.948 106.855L51.948 106.855 51.948 104.958 82.05 74.855 83.948 74.855 83.948 106.855z"/>
    <path fill="#475059" d="M68.911,99.049 L76.141,99.049 L76.141,91.818 L68.911,99.049 Z M78.141,101.049 L64.083,101.049 L78.141,86.99 L78.141,101.049 Z"/>
    <path fill="#FFF" d="M199.152,131.787 L199.152,133.787"/>
    <polygon fill="#475059" points="198.152 133.786 200.152 133.786 200.152 131.786 198.152 131.786"/>
    <path fill="#FFF" d="M199.152,135.787 L199.152,137.787"/>
    <polygon fill="#475059" points="198.152 137.786 200.152 137.786 200.152 135.786 198.152 135.786"/>
    <path fill="#FFF" d="M199.152,139.787 L199.152,141.787"/>
    <polygon fill="#475059" points="198.152 141.786 200.152 141.786 200.152 139.786 198.152 139.786"/>
    <path fill="#FFF" d="M199.152,143.787 L199.152,145.787"/>
    <polygon fill="#475059" points="198.152 145.786 200.152 145.786 200.152 143.786 198.152 143.786"/>
    <path fill="#FFF" d="M203.152,131.787 L203.152,133.787"/>
    <polygon fill="#475059" points="202.152 133.786 204.152 133.786 204.152 131.786 202.152 131.786"/>
    <path fill="#FFF" d="M203.152,135.787 L203.152,137.787"/>
    <polygon fill="#475059" points="202.152 137.786 204.152 137.786 204.152 135.786 202.152 135.786"/>
    <path fill="#FFF" d="M203.152,139.787 L203.152,141.787"/>
    <polygon fill="#475059" points="202.152 141.786 204.152 141.786 204.152 139.786 202.152 139.786"/>
    <path fill="#FFF" d="M203.152,143.787 L203.152,145.787"/>
    <polygon fill="#475059" points="202.152 145.786 204.152 145.786 204.152 143.786 202.152 143.786"/>
    <path fill="#FFF" d="M207.152,131.787 L207.152,133.787"/>
    <polygon fill="#475059" points="206.152 133.786 208.152 133.786 208.152 131.786 206.152 131.786"/>
    <path fill="#FFF" d="M207.152,135.787 L207.152,137.787"/>
    <polygon fill="#475059" points="206.152 137.786 208.152 137.786 208.152 135.786 206.152 135.786"/>
    <path fill="#FFF" d="M207.152,139.787 L207.152,141.787"/>
    <polygon fill="#475059" points="206.152 141.786 208.152 141.786 208.152 139.786 206.152 139.786"/>
    <path fill="#FFF" d="M207.152,143.787 L207.152,145.787"/>
    <polygon fill="#475059" points="206.152 145.786 208.152 145.786 208.152 143.786 206.152 143.786"/>
    <path fill="#FFF" d="M211.152,131.787 L211.152,133.787"/>
    <polygon fill="#475059" points="210.152 133.786 212.152 133.786 212.152 131.786 210.152 131.786"/>
    <path fill="#FFF" d="M211.152,135.787 L211.152,137.787"/>
    <polygon fill="#475059" points="210.152 137.786 212.152 137.786 212.152 135.786 210.152 135.786"/>
    <path fill="#FFF" d="M211.152,139.787 L211.152,145.787"/>
    <polygon fill="#475059" points="210.152 145.786 212.152 145.786 212.152 139.786 210.152 139.786"/>
    <path fill="#475059" d="M196.152,147.787 L214.152,147.787 L214.152,119.783 L196.152,119.783 L196.152,147.787 Z M194.152,149.787 L216.152,149.787 L216.152,117.783 L194.152,117.783 L194.152,149.787 Z"/>
    <path fill="#475059" d="M200.152,127.786 L210.152,127.786 L210.152,123.786 L200.152,123.786 L200.152,127.786 Z M198.152,129.786 L212.152,129.786 L212.152,121.786 L198.152,121.786 L198.152,129.786 Z"/>
    <polygon fill="#48515A" points="183.079 71.575 185.079 71.575 185.079 67.575 183.079 67.575"/>
    <polygon fill="#48515A" points="183.079 81.575 185.079 81.575 185.079 77.575 183.079 77.575"/>
    <polygon fill="#48515A" points="187.079 75.575 191.079 75.575 191.079 73.575 187.079 73.575"/>
    <polygon fill="#48515A" points="177.079 75.575 181.079 75.575 181.079 73.575 177.079 73.575"/>
    <polygon fill="#48515A" points="34.99 141.617 36.99 141.617 36.99 137.617 34.99 137.617"/>
    <polygon fill="#48515A" points="34.99 151.617 36.99 151.617 36.99 147.617 34.99 147.617"/>
    <polygon fill="#48515A" points="38.99 145.617 42.99 145.617 42.99 143.617 38.99 143.617"/>
    <polygon fill="#48515A" points="28.99 145.617 32.99 145.617 32.99 143.617 28.99 143.617"/>
    <path fill="#F58E70" d="M221.01 185.658C221.01 187.315 219.667 188.658 218.01 188.658 216.353 188.658 215.01 187.315 215.01 185.658 215.01 184.001 216.353 182.658 218.01 182.658 219.667 182.658 221.01 184.001 221.01 185.658M71.01 58.658C71.01 59.763 70.115 60.658 69.01 60.658 67.906 60.658 67.01 59.763 67.01 58.658 67.01 57.554 67.906 56.658 69.01 56.658 70.115 56.658 71.01 57.554 71.01 58.658M77.01 207.658C77.01 208.21 76.562 208.658 76.01 208.658 75.458 208.658 75.01 208.21 75.01 207.658 75.01 207.106 75.458 206.658 76.01 206.658 76.562 206.658 77.01 207.106 77.01 207.658"/>
    <path fill="#DEDEDD" d="M205.01,188.658 C205.01,187.554 205.906,186.658 207.01,186.658 C208.115,186.658 209.01,187.554 209.01,188.658 C209.01,189.763 208.115,190.658 207.01,190.658 C205.906,190.658 205.01,189.763 205.01,188.658"/>
  </g>
</svg>
