<svg xmlns="http://www.w3.org/2000/svg" width="250" height="250" viewBox="0 0 250 250">
  <g fill="none" fill-rule="evenodd">
    <path fill="#5FE0ED" d="M195.054 123.929L195.064 123.929 195.054 123.929zM56.041 132.931L194.053 132.931 194.053 123.929 56.041 123.929 56.041 132.931zM189.053 88.929L197.053 88.929 197.053 61.927C197.053 59.718 195.263 57.927 193.053 57.927L125.041 57.927 56.174 73.231C54.344 73.638 53.041 75.261 53.041 77.136L53.041 88.929 189.053 88.929"/>
    <path fill="#5FE0ED" d="M195.053 120.929L55.041 120.929C53.937 120.929 53.041 121.824 53.041 122.929L53.041 135.931 197.053 135.931 197.053 122.929C197.053 121.824 196.158 120.929 195.053 120.929M214.535 132.415C214.535 133.52 213.64 134.415 212.535 134.415 211.431 134.415 210.535 133.52 210.535 132.415 210.535 131.311 211.431 130.415 212.535 130.415 213.64 130.415 214.535 131.311 214.535 132.415M104.469 42.361C104.469 43.466 103.574 44.361 102.469 44.361 101.365 44.361 100.469 43.466 100.469 42.361 100.469 41.257 101.365 40.361 102.469 40.361 103.574 40.361 104.469 41.257 104.469 42.361"/>
    <polygon fill="#DEDEDD" points="61.041 100.929 189.052 100.929 189.052 88.929 61.041 88.929"/>
    <polyline fill="#475059" points="190.053 101.929 81.042 101.929 81.042 99.929 188.053 99.929 188.053 89.929 62.042 89.929 62.042 100.929 60.042 100.929 60.042 87.929 190.053 87.929 190.053 101.929"/>
    <path fill="#475059" d="M62.042,120.929 L60.042,120.929 L60.042,99.929 L82.042,99.929 L82.042,100.929 C82.042,104.789 85.182,107.929 89.041,107.929 L110.042,107.929 L110.042,111.929 L190.053,111.929 L190.053,120.927 L188.053,120.927 L188.053,113.929 L108.042,113.929 L108.042,109.929 L89.041,109.929 C84.417,109.929 80.596,106.423 80.097,101.929 L62.042,101.929 L62.042,120.929"/>
    <polyline fill="#475059" points="41.502 203.381 39.502 203.381 39.502 183.467 88.136 142.382 209.505 142.382 209.505 166.359 207.505 166.359 207.505 144.382 88.867 144.382 41.502 184.395 41.502 203.381"/>
    <polyline fill="#475059" points="89.502 184.931 40.502 184.931 40.502 182.931 87.502 182.931 87.502 143.382 89.502 143.382 89.502 184.931"/>
    <polyline fill="#475059" points="82.042 177.931 80.042 177.931 80.042 174.931 70.042 174.931 70.042 177.931 68.042 177.931 68.042 172.931 82.042 172.931 82.042 177.931"/>
    <polyline fill="#475059" points="43.502 182.381 41.502 182.381 41.502 144.381 85.501 144.381 85.501 146.381 43.502 146.381 43.502 182.381"/>
    <polygon fill="#475059" points="98.505 175.385 150.505 175.385 150.505 173.385 98.505 173.385"/>
    <polygon fill="#475059" points="162.505 175.385 176.505 175.385 176.505 173.385 162.505 173.385"/>
    <polygon fill="#475059" points="70.505 196.381 176.505 196.381 176.505 194.381 70.505 194.381"/>
    <polygon fill="#475059" points="70.505 200.381 176.505 200.381 176.505 198.381 70.505 198.381"/>
    <polyline fill="#FFD15D" points="45.502 148.381 45.502 175.891 77.848 148.381 45.502 148.381"/>
    <path fill="#475059" d="M40.505 207.391C40.375 207.391 40.245 207.361 40.125 207.311 40.005 207.261 39.895 207.191 39.795 207.101 39.705 207 39.635 206.891 39.585 206.771 39.535 206.651 39.505 206.521 39.505 206.391 39.505 206.261 39.535 206.131 39.585 206.011 39.635 205.881 39.705 205.781 39.795 205.681 40.035 205.451 40.375 205.341 40.705 205.411 40.765 205.421 40.825 205.441 40.885 205.471 40.945 205.491 41.005 205.521 41.055 205.561 41.115 205.591 41.165 205.641 41.215 205.681 41.305 205.781 41.375 205.881 41.425 206.011 41.475 206.131 41.505 206.261 41.505 206.391 41.505 206.521 41.475 206.651 41.425 206.771 41.375 206.891 41.305 207 41.215 207.101 41.025 207.291 40.775 207.391 40.505 207.391M208.505 170.371C208.235 170.371 207.985 170.261 207.795 170.071 207.705 169.981 207.635 169.871 207.585 169.75 207.535 169.631 207.505 169.5 207.505 169.371 207.505 169.241 207.535 169.111 207.585 168.981 207.635 168.861 207.705 168.75 207.795 168.661 208.035 168.431 208.375 168.321 208.695 168.391 208.765 168.401 208.825 168.421 208.885 168.441 208.945 168.471 209.005 168.5 209.055 168.541 209.115 168.571 209.165 168.611 209.215 168.661 209.305 168.75 209.375 168.861 209.425 168.981 209.485 169.111 209.505 169.241 209.505 169.371 209.505 169.5 209.485 169.631 209.425 169.75 209.375 169.871 209.305 169.981 209.215 170.071 209.025 170.261 208.775 170.371 208.505 170.371"/>
    <polygon fill="#475059" points="70.505 204.39 176.505 204.39 176.505 202.39 70.505 202.39"/>
    <path fill="#475059" d="M206.534,212.544 L218.534,212.544 L218.534,192.544 L206.534,192.544 L206.534,212.544 Z M204.534,214.544 L220.534,214.544 L220.534,190.544 L204.534,190.544 L204.534,214.544 Z"/>
    <polyline fill="#475059" points="205.534 210.544 200.534 210.544 200.534 186.544 216.534 186.544 216.534 191.544 214.534 191.544 214.534 188.544 202.534 188.544 202.534 208.544 205.534 208.544 205.534 210.544"/>
    <polyline fill="#475059" points="201.534 206.544 196.534 206.544 196.534 182.544 212.534 182.544 212.534 187.544 210.534 187.544 210.534 184.544 198.534 184.544 198.534 204.544 201.534 204.544 201.534 206.544"/>
    <polyline fill="#475059" points="172.509 40.456 152.51 40.456 152.51 35.456 154.51 35.456 154.51 38.456 170.509 38.456 170.509 35.456 172.509 35.456 172.509 40.456"/>
    <path fill="#475059" d="M163.509,67.462 C162.448,67.462 161.513,66.909 160.98,66.076 C160.545,66.321 160.043,66.461 159.509,66.461 C157.854,66.461 156.509,65.116 156.509,63.461 L156.509,62.29 C156.196,62.4 155.859,62.46 155.509,62.46 C153.854,62.46 152.509,61.115 152.509,59.46 L152.509,45.323 C152.509,44.35 152.829,43.386 153.41,42.607 C153.736,42.171 153.915,41.632 153.915,41.088 L153.915,39.545 L155.915,39.545 L155.915,41.088 C155.915,42.061 155.594,43.026 155.012,43.804 C154.688,44.24 154.509,44.779 154.509,45.323 L154.509,59.46 C154.509,60.012 154.957,60.46 155.509,60.46 C156.06,60.46 156.509,60.012 156.509,59.46 L156.509,52.456 L158.509,52.456 L158.509,63.461 C158.509,64.013 158.957,64.461 159.509,64.461 C160.06,64.461 160.509,64.013 160.509,63.461 L160.509,52.456 L162.509,52.456 L162.509,64.462 C162.509,65.014 162.957,65.462 163.509,65.462 C164.06,65.462 164.509,65.014 164.509,64.462 L164.509,52.456 L166.509,52.456 L166.509,62.393 C166.509,62.961 166.971,63.424 167.54,63.424 C168.109,63.424 168.572,62.961 168.572,62.393 L168.567,48.053 L171.662,48.057 L173.204,51.377 C173.529,52.077 174.112,52.596 174.844,52.839 C175.267,52.979 175.706,53.015 176.13,52.951 L171.76,43.723 L169.476,41.318 L169.476,39.461 L171.476,39.461 L171.476,40.519 L173.499,42.723 L178.818,53.955 L177.984,54.406 C176.831,55.029 175.457,55.15 174.215,54.738 C172.971,54.326 171.942,53.408 171.39,52.219 L170.572,50.456 L170.572,62.393 C170.572,64.065 169.212,65.424 167.54,65.424 C167.143,65.424 166.763,65.347 166.415,65.207 C166.083,66.502 164.906,67.462 163.509,67.462"/>
    <polygon fill="#48515A" points="35.466 64.403 37.466 64.403 37.466 60.403 35.466 60.403"/>
    <polygon fill="#48515A" points="35.466 74.403 37.466 74.403 37.466 70.403 35.466 70.403"/>
    <polygon fill="#48515A" points="39.466 68.403 43.466 68.403 43.466 66.403 39.466 66.403"/>
    <polygon fill="#48515A" points="29.466 68.403 33.466 68.403 33.466 66.403 29.466 66.403"/>
    <polygon fill="#48515A" points="211.56 97.433 213.56 97.433 213.56 93.433 211.56 93.433"/>
    <polygon fill="#48515A" points="211.56 107.433 213.56 107.433 213.56 103.433 211.56 103.433"/>
    <polygon fill="#48515A" points="215.56 101.433 219.56 101.433 219.56 99.433 215.56 99.433"/>
    <polygon fill="#48515A" points="205.56 101.433 209.56 101.433 209.56 99.433 205.56 99.433"/>
    <path fill="#FFD15D" d="M35.428,212.463 C35.428,213.568 34.533,214.463 33.428,214.463 C32.323,214.463 31.428,213.568 31.428,212.463 C31.428,211.359 32.323,210.463 33.428,210.463 C34.533,210.463 35.428,211.359 35.428,212.463"/>
    <path fill="#475059" d="M67.505,45.545 C65.384,45.545 63.659,47.271 63.659,49.391 C63.659,51.511 65.384,53.237 67.505,53.237 C69.626,53.237 71.351,51.511 71.351,49.391 C71.351,47.271 69.626,45.545 67.505,45.545 Z M67.505,55.237 C64.282,55.237 61.659,52.615 61.659,49.391 C61.659,46.167 64.282,43.545 67.505,43.545 C70.729,43.545 73.351,46.167 73.351,49.391 C73.351,52.615 70.729,55.237 67.505,55.237 Z"/>
    <path fill="#475059" d="M67.505,59.391 C64.762,59.391 62.203,58.302 60.3,56.326 C58.399,54.35 57.408,51.749 57.512,49.002 C57.71,43.814 61.928,39.595 67.117,39.399 C69.863,39.302 72.463,40.284 74.44,42.186 C76.416,44.089 77.505,46.648 77.505,49.391 L77.505,52.161 C77.505,53.857 76.125,55.238 74.428,55.238 C72.732,55.238 71.351,53.857 71.351,52.161 L71.351,44.545 L73.351,44.545 L73.351,52.161 C73.351,52.754 73.835,53.238 74.428,53.238 C75.022,53.238 75.505,52.754 75.505,52.161 L75.505,49.391 C75.505,47.197 74.634,45.149 73.052,43.626 C71.472,42.105 69.383,41.307 67.193,41.397 C63.112,41.552 59.666,44.998 59.512,49.079 C59.428,51.277 60.22,53.358 61.742,54.939 C63.264,56.52 65.311,57.391 67.505,57.391 C68.585,57.391 69.633,57.18 70.619,56.763 C71.308,56.472 71.954,56.083 72.54,55.609 L73.8,57.162 C73.068,57.755 72.26,58.241 71.398,58.605 C70.164,59.126 68.854,59.391 67.505,59.391"/>
  </g>
</svg>
