<svg xmlns="http://www.w3.org/2000/svg" width="250" height="250" viewBox="0 0 250 250">
  <g fill="none" fill-rule="evenodd">
    <path fill="#5FE0ED" d="M175 98.501C175 99.605 174.104 100.501 173 100.501 171.895 100.501 171 99.605 171 98.501 171 97.396 171.895 96.501 173 96.501 174.104 96.501 175 97.396 175 98.501M65 178.501C65 179.605 64.104 180.501 63 180.501 61.895 180.501 61 179.605 61 178.501 61 177.396 61.895 176.501 63 176.501 64.104 176.501 65 177.396 65 178.501"/>
    <polygon fill="#DEDEDD" points="106 93.501 143.991 93.501 143.991 82.52 106 82.52"/>
    <polygon fill="#5FE0ED" points="133 213.501 193 213.501 193 211.501 133 211.501"/>
    <polygon fill="#5FE0ED" points="195 213.501 203 213.501 203 211.501 195 211.501"/>
    <polyline fill="#FFD15D" points="157 152.501 137 96.501 113 96.501 93 152.501 124 212.501 126 212.501 157 152.501"/>
    <path fill="#475059" d="M125,145.501 C122.243,145.501 120,147.744 120,150.501 C120,153.257 122.243,155.501 125,155.501 C127.757,155.501 130,153.257 130,150.501 C130,147.744 127.757,145.501 125,145.501 Z M125,157.501 C121.141,157.501 118,154.36 118,150.501 C118,146.641 121.141,143.501 125,143.501 C128.859,143.501 132,146.641 132,150.501 C132,154.36 128.859,157.501 125,157.501 Z"/>
    <polygon fill="#475059" points="124 212.501 126 212.501 126 156.501 124 156.501"/>
    <path fill="#475059" d="M104,95.501 L146,95.501 L146,83.501 L104,83.501 L104,95.501 Z M102,97.501 L148,97.501 L148,81.501 L102,81.501 L102,97.501 Z"/>
    <polyline fill="#475059" points="156 83.501 94 83.501 94 40.5 96 40.5 96 81.501 154 81.501 154 40.5 156 40.5 156 83.501"/>
    <polyline fill="#DEDEDD" points="98 79.5 152 79.5 152 36.5 98 79.5"/>
    <path fill="#475059" d="M94.999 38.501C94.729 38.501 94.479 38.39 94.289 38.201 94.1 38.01 93.999 37.76 93.999 37.5 93.999 37.23 94.109 36.98 94.289 36.791 94.339 36.741 94.39 36.701 94.449 36.661 94.499 36.63 94.56 36.6 94.619 36.57 94.68 36.55 94.739 36.531 94.799 36.52 95.129 36.451 95.47 36.56 95.709 36.791 95.89 36.98 95.999 37.23 95.999 37.5 95.999 37.76 95.899 38.01 95.709 38.201 95.609 38.3 95.499 38.371 95.379 38.421 95.26 38.47 95.129 38.501 94.999 38.501M154.999 38.501C154.869 38.501 154.739 38.47 154.619 38.421 154.499 38.371 154.39 38.3 154.289 38.201 154.1 38.01 153.999 37.76 153.999 37.5 153.999 37.23 154.109 36.97 154.289 36.791 154.659 36.411 155.339 36.411 155.709 36.791 155.749 36.84 155.789 36.89 155.829 36.94 155.869 37.001 155.899 37.05 155.919 37.11 155.949 37.171 155.97 37.241 155.979 37.3 155.999 37.36 155.999 37.43 155.999 37.5 155.999 37.76 155.899 38.01 155.709 38.201 155.52 38.39 155.27 38.501 154.999 38.501"/>
    <path fill="#48515A" d="M52.101,133.501 C52.565,135.78 54.585,137.501 57,137.501 L74.105,137.501 C73.032,136.45 72.295,135.057 72.071,133.501 L52.101,133.501 Z M79,139.501 L57,139.501 C53.141,139.501 50,136.36 50,132.501 L50,131.501 L74,131.501 L74,132.501 C74,135.257 76.243,137.501 79,137.501 C81.757,137.501 84,135.257 84,132.501 L84,108.501 L86,108.501 L86,132.501 C86,136.36 82.859,139.501 79,139.501 Z"/>
    <path fill="#48515A" d="M75.929,107.501 L95.899,107.501 C95.435,105.221 93.415,103.501 91,103.501 L73.895,103.501 C74.968,104.551 75.705,105.944 75.929,107.501 Z M64,132.501 L62,132.501 L62,108.501 C62,104.641 65.141,101.501 69,101.501 L91,101.501 C94.859,101.501 98,104.641 98,108.501 L98,109.501 L74,109.501 L74,108.501 C74,105.744 71.757,103.501 69,103.501 C66.243,103.501 64,105.744 64,108.501 L64,132.501 Z"/>
    <path fill="#FFF" d="M73,56.501 C73,58.71 71.209,60.5 69,60.5 C66.791,60.5 65,58.71 65,56.501 C65,54.291 66.791,52.5 69,52.5 C71.209,52.5 73,54.291 73,56.501"/>
    <path fill="#48515A" d="M69,53.501 C67.346,53.501 66,54.846 66,56.501 C66,58.155 67.346,59.501 69,59.501 C70.654,59.501 72,58.155 72,56.501 C72,54.846 70.654,53.501 69,53.501 Z M69,61.5 C66.243,61.5 64,59.257 64,56.501 C64,53.744 66.243,51.5 69,51.5 C71.757,51.5 74,53.744 74,56.501 C74,59.257 71.757,61.5 69,61.5 Z"/>
    <polygon fill="#48515A" points="35 162.501 37 162.501 37 158.501 35 158.501"/>
    <polygon fill="#48515A" points="35 172.501 37 172.501 37 168.501 35 168.501"/>
    <polygon fill="#48515A" points="39 166.501 43 166.501 43 164.501 39 164.501"/>
    <polygon fill="#48515A" points="29 166.501 33 166.501 33 164.501 29 164.501"/>
    <polygon fill="#48515A" points="213 90.501 215 90.501 215 86.501 213 86.501"/>
    <polygon fill="#48515A" points="213 100.501 215 100.501 215 96.501 213 96.501"/>
    <polygon fill="#48515A" points="217 94.501 221 94.501 221 92.501 217 92.501"/>
    <polygon fill="#48515A" points="207 94.501 211 94.501 211 92.501 207 92.501"/>
    <polyline fill="#475059" points="198 75.501 165.95 75.501 165.95 45.499 180.95 45.499 180.95 47.499 167.95 47.499 167.95 73.5 196 73.5 196 47.499 193.95 47.499 193.95 45.499 198 45.499 198 75.501"/>
    <polygon fill="#475059" points="171 60.5 193 60.5 193 58.5 171 58.5"/>
    <polygon fill="#475059" points="171 64.5 193 64.5 193 62.5 171 62.5"/>
    <polygon fill="#475059" points="171 68.499 185 68.499 185 66.499 171 66.499"/>
    <path fill="#475059" d="M187.949,50.253 L190.949,52.503 L190.949,45.501 L184.949,45.501 L184.949,52.503 L187.949,50.253 Z M192.949,56.503 L187.949,52.753 L182.949,56.503 L182.949,43.501 L192.949,43.501 L192.949,56.503 Z"/>
    <polyline fill="#475059" points="199.018 196.52 162.935 196.52 162.935 174.437 167.728 174.437 167.728 176.437 164.935 176.437 164.935 194.52 197.018 194.52 197.018 176.437 194.061 176.437 194.061 174.437 199.018 174.437 199.018 196.52"/>
    <path fill="#475059" d="M168.935,190.52 L179.583,190.52 L181.015,192.083 L182.609,190.52 L193.018,190.52 L193.018,172.437 L183.426,172.437 L180.961,174.851 L178.597,172.437 L168.935,172.437 L168.935,190.52 Z M180.937,194.958 L178.702,192.52 L166.935,192.52 L166.935,170.437 L179.438,170.437 L180.99,172.023 L182.609,170.437 L195.018,170.437 L195.018,192.52 L183.426,192.52 L180.937,194.958 Z"/>
    <path fill="#FFF" d="M170.83,179.52 L176.955,179.52"/>
    <polygon fill="#475059" points="170.83 180.52 176.955 180.52 176.955 178.52 170.83 178.52"/>
    <path fill="#FFF" d="M170.83,183.52 L176.955,183.52"/>
    <polygon fill="#475059" points="170.83 184.52 176.955 184.52 176.955 182.52 170.83 182.52"/>
    <path fill="#FFF" d="M190.955,175.52 L184.83,175.52"/>
    <polygon fill="#475059" points="184.83 176.52 190.955 176.52 190.955 174.52 184.83 174.52"/>
    <path fill="#FFF" d="M184.83,179.52 L190.955,179.52"/>
    <polygon fill="#475059" points="184.83 180.52 190.955 180.52 190.955 178.52 184.83 178.52"/>
    <path fill="#FFF" d="M184.83,183.52 L190.955,183.52"/>
    <polygon fill="#475059" points="184.83 184.52 190.955 184.52 190.955 182.52 184.83 182.52"/>
    <path fill="#FFF" d="M180.976,176.708 L180.976,186.52"/>
    <polygon fill="#475059" points="179.976 186.52 181.976 186.52 181.976 176.708 179.976 176.708"/>
    <path fill="#FFF" d="M170.83,187.52 L176.955,187.52"/>
    <polygon fill="#475059" points="170.83 188.52 176.955 188.52 176.955 186.52 170.83 186.52"/>
    <path fill="#FFF" d="M184.83,187.52 L190.955,187.52"/>
    <polygon fill="#475059" points="184.83 188.52 190.955 188.52 190.955 186.52 184.83 186.52"/>
    <path fill="#FFF" d="M176.955,175.52 L170.83,175.52"/>
    <polygon fill="#475059" points="170.83 176.52 176.955 176.52 176.955 174.52 170.83 174.52"/>
  </g>
</svg>
