<svg xmlns="http://www.w3.org/2000/svg" width="250" height="250" viewBox="0 0 250 250">
  <g fill="none" fill-rule="evenodd">
    <path fill="#DEDEDD" d="M84.081,192.7 L84.249,192.839 C87.934,196.639 87.868,202.76 84.074,206.553 C82.225,208.402 79.768,209.419 77.155,209.419 C74.541,209.419 72.084,208.402 70.235,206.553 C68.387,204.705 67.369,202.248 67.369,199.634 C67.369,197.021 68.387,194.563 70.235,192.715 C72.08,190.87 74.537,189.854 77.154,189.854 C79.785,189.854 82.245,190.865 84.081,192.7 Z M70.235,99.222 C68.387,97.374 67.369,94.916 67.369,92.303 C67.369,89.689 68.387,87.232 70.235,85.383 C72.08,83.539 74.538,82.523 77.155,82.523 C79.772,82.523 82.229,83.539 84.074,85.383 C87.889,89.199 87.889,95.406 84.074,99.222 C82.225,101.07 79.768,102.088 77.154,102.088 C74.541,102.088 72.084,101.07 70.235,99.222 Z M130.5,125.504 L152.136,125.504 L200.921,76.742 L198.506,76.742 C185.249,76.742 172.785,81.905 163.41,91.28 L113.185,141.505 L112.87,141.505 L79.292,107.927 C82.697,107.469 85.846,105.935 88.316,103.465 C94.471,97.31 94.471,87.295 88.316,81.141 C85.335,78.159 81.371,76.518 77.155,76.518 C72.938,76.518 68.974,78.159 65.993,81.141 C59.838,87.296 59.838,97.31 65.993,103.465 L108.609,146.081 L67.664,187.026 L67.673,187.035 C67.091,187.474 66.523,187.942 65.993,188.472 C63.011,191.454 61.369,195.418 61.369,199.634 C61.369,203.851 63.011,207.815 65.993,210.796 C68.975,213.778 72.938,215.504 77.155,215.504 C81.371,215.504 85.335,213.777 88.316,210.796 C94.471,204.642 94.471,194.627 88.316,188.472 C85.832,185.988 82.716,184.524 79.481,184.046 L108.779,154.748 L117.275,154.748 L130.5,167.973 L130.5,125.504 Z"/>
    <polyline fill="#5FE0ED" points="130.75 138.927 115.309 123.492 103.684 123.492 130.75 150.559 130.75 138.927"/>
    <path fill="#5FE0ED" d="M120.494 172.54C120.494 173.645 119.599 174.54 118.494 174.54 117.39 174.54 116.494 173.645 116.494 172.54 116.494 171.436 117.39 170.54 118.494 170.54 119.599 170.54 120.494 171.436 120.494 172.54M120.643 119.352L180.573 59.454C171.399 61.051 162.953 65.417 156.232 72.138L111.102 117.269 118.584 117.269 120.643 119.352"/>
    <path fill="#475059" d="M67.149 163.835C63.467 163.835 60.005 165.27 57.401 167.874 54.798 170.477 53.363 173.939 53.363 177.621 53.363 181.303 54.798 184.765 57.401 187.369 60.005 189.972 63.467 191.407 67.149 191.407 70.831 191.407 74.293 189.972 76.896 187.369 79.5 184.765 80.934 181.303 80.934 177.622 80.934 173.939 79.5 170.477 76.896 167.874 74.293 165.27 70.831 163.835 67.149 163.835zM67.149 193.407C62.932 193.407 58.968 191.764 55.987 188.783 53.006 185.801 51.364 181.837 51.364 177.621 51.364 173.405 53.006 169.441 55.987 166.459 58.968 163.478 62.932 161.835 67.149 161.835 71.365 161.835 75.329 163.478 78.31 166.459 81.292 169.441 82.934 173.405 82.934 177.622 82.934 181.837 81.292 185.801 78.31 188.783 75.329 191.764 71.365 193.407 67.149 193.407zM67.149 56.511C63.618 56.511 60.089 57.854 57.401 60.542 52.027 65.917 52.027 74.663 57.401 80.038 62.776 85.412 71.521 85.413 76.896 80.038 82.271 74.663 82.271 65.917 76.896 60.542 74.209 57.855 70.678 56.511 67.149 56.511zM67.149 86.067C63.107 86.067 59.064 84.529 55.987 81.452 49.833 75.296 49.833 65.283 55.987 59.127 62.141 52.973 72.156 52.973 78.31 59.127 84.465 65.283 84.465 75.296 78.31 81.452 75.233 84.529 71.191 86.067 67.149 86.067z"/>
    <path fill="#475059" d="M190.915,193.407 L188.5,193.407 C175.242,193.407 162.779,188.244 153.404,178.869 L55.987,81.452 L57.401,80.038 L154.818,177.455 C163.228,185.866 174.23,190.744 186.022,191.344 L116.137,121.493 L102.036,121.493 L65.793,85.249 L67.207,83.835 L102.864,119.493 L116.965,119.493 L190.915,193.407"/>
    <polyline fill="#475059" points="68.17 163.337 66.756 161.923 97.945 130.735 107.834 130.735 107.834 132.735 98.773 132.735 68.17 163.337"/>
    <path fill="#475059" d="M120.847,124.763 L119.433,123.349 L186.022,56.792 C174.23,57.392 163.228,62.27 154.818,70.681 L104.416,121.083 L103.002,119.668 L153.404,69.267 C162.779,59.892 175.242,54.729 188.5,54.729 L190.915,54.729 L120.847,124.763"/>
    <polyline fill="#475059" points="59.072 166.427 57.658 165.013 99.252 123.418 100.666 124.833 59.072 166.427"/>
    <path fill="#475059" d="M111.501 125.542C110.95 125.542 110.501 125.991 110.501 126.542 110.501 127.094 110.95 127.542 111.501 127.542 112.052 127.542 112.501 127.094 112.501 126.542 112.501 125.991 112.052 125.542 111.501 125.542zM111.501 129.542C109.847 129.542 108.501 128.197 108.501 126.542 108.501 124.888 109.847 123.542 111.501 123.542 113.156 123.542 114.501 124.888 114.501 126.542 114.501 128.197 113.156 129.542 111.501 129.542zM67.149 60.509C64.532 60.509 62.074 61.526 60.229 63.371 58.381 65.218 57.364 67.676 57.364 70.29 57.364 72.903 58.381 75.361 60.229 77.208 62.078 79.057 64.535 80.075 67.148 80.075 69.762 80.075 72.219 79.057 74.068 77.208 77.883 73.393 77.883 67.186 74.068 63.371 72.223 61.526 69.765 60.509 67.149 60.509zM67.148 82.075C64.001 82.075 61.041 80.849 58.815 78.623 56.589 76.397 55.363 73.437 55.363 70.29 55.363 67.142 56.589 64.182 58.815 61.956 61.037 59.734 63.997 58.509 67.149 58.509 70.3 58.509 73.259 59.734 75.482 61.956 77.705 64.179 78.929 67.138 78.928 70.29 78.928 73.441 77.704 76.4 75.482 78.623 73.256 80.849 70.296 82.075 67.148 82.075zM67.148 167.841C64.531 167.841 62.074 168.857 60.229 170.702 58.381 172.549 57.364 175.007 57.364 177.621 57.364 180.235 58.381 182.693 60.229 184.541 62.078 186.389 64.535 187.407 67.149 187.407 69.762 187.407 72.219 186.389 74.068 184.541 77.862 180.747 77.928 174.625 74.242 170.826L74.074 170.687C72.24 168.852 69.78 167.841 67.148 167.841zM67.149 189.407C64.001 189.407 61.041 188.181 58.815 185.955 56.589 183.729 55.363 180.769 55.363 177.621 55.363 174.473 56.589 171.513 58.815 169.288 61.037 167.065 63.997 165.841 67.148 165.841 70.258 165.841 73.171 167.017 75.37 169.157L75.374 169.158 75.551 169.304C77.771 171.524 78.983 174.483 78.963 177.635 78.944 180.775 77.707 183.729 75.482 185.955 73.256 188.181 70.296 189.407 67.149 189.407z"/>
    <path fill="#475059" d="M67.149 163.835C63.467 163.835 60.005 165.27 57.401 167.874 54.798 170.477 53.363 173.939 53.363 177.621 53.363 181.303 54.798 184.765 57.401 187.369 60.005 189.972 63.467 191.407 67.149 191.407 70.831 191.407 74.293 189.972 76.896 187.369 79.5 184.765 80.934 181.303 80.934 177.622 80.934 173.939 79.5 170.477 76.896 167.874 74.293 165.27 70.831 163.835 67.149 163.835zM67.149 193.407C62.932 193.407 58.968 191.764 55.987 188.783 53.006 185.801 51.364 181.837 51.364 177.621 51.364 173.405 53.006 169.441 55.987 166.459 58.968 163.478 62.932 161.835 67.149 161.835 71.365 161.835 75.329 163.478 78.31 166.459 81.292 169.441 82.934 173.405 82.934 177.622 82.934 181.837 81.292 185.801 78.31 188.783 75.329 191.764 71.365 193.407 67.149 193.407zM67.149 56.511C63.618 56.511 60.089 57.854 57.401 60.542 52.027 65.917 52.027 74.663 57.401 80.038 62.776 85.412 71.521 85.413 76.896 80.038 82.271 74.663 82.271 65.917 76.896 60.542 74.209 57.855 70.678 56.511 67.149 56.511zM67.149 86.067C63.107 86.067 59.064 84.529 55.987 81.452 49.833 75.296 49.833 65.283 55.987 59.127 62.141 52.973 72.156 52.973 78.31 59.127 84.465 65.283 84.465 75.296 78.31 81.452 75.233 84.529 71.191 86.067 67.149 86.067z"/>
    <path fill="#475059" d="M190.915,193.407 L188.5,193.407 C175.242,193.407 162.779,188.244 153.404,178.869 L55.987,81.452 L57.401,80.038 L154.818,177.455 C163.228,185.866 174.23,190.744 186.022,191.344 L116.137,121.493 L102.036,121.493 L65.793,85.249 L67.207,83.835 L102.864,119.493 L116.965,119.493 L190.915,193.407"/>
    <polyline fill="#475059" points="68.17 163.337 66.756 161.923 97.945 130.735 107.834 130.735 107.834 132.735 98.773 132.735 68.17 163.337"/>
    <path fill="#475059" d="M120.847,124.763 L119.433,123.349 L186.022,56.792 C174.23,57.392 163.228,62.27 154.818,70.681 L104.416,121.083 L103.002,119.668 L153.404,69.267 C162.779,59.892 175.242,54.729 188.5,54.729 L190.915,54.729 L120.847,124.763"/>
    <polyline fill="#475059" points="59.072 166.427 57.658 165.013 99.252 123.418 100.666 124.833 59.072 166.427"/>
    <path fill="#475059" d="M111.501 125.542C110.95 125.542 110.501 125.991 110.501 126.542 110.501 127.094 110.95 127.542 111.501 127.542 112.052 127.542 112.501 127.094 112.501 126.542 112.501 125.991 112.052 125.542 111.501 125.542zM111.501 129.542C109.847 129.542 108.501 128.197 108.501 126.542 108.501 124.888 109.847 123.542 111.501 123.542 113.156 123.542 114.501 124.888 114.501 126.542 114.501 128.197 113.156 129.542 111.501 129.542zM67.149 60.509C64.532 60.509 62.074 61.526 60.229 63.371 58.381 65.218 57.364 67.676 57.364 70.29 57.364 72.903 58.381 75.361 60.229 77.208 62.078 79.057 64.535 80.075 67.148 80.075 69.762 80.075 72.219 79.057 74.068 77.208 77.883 73.393 77.883 67.186 74.068 63.371 72.223 61.526 69.765 60.509 67.149 60.509zM67.148 82.075C64.001 82.075 61.041 80.849 58.815 78.623 56.589 76.397 55.363 73.437 55.363 70.29 55.363 67.142 56.589 64.182 58.815 61.956 61.037 59.734 63.997 58.509 67.149 58.509 70.3 58.509 73.259 59.734 75.482 61.956 77.705 64.179 78.929 67.138 78.928 70.29 78.928 73.441 77.704 76.4 75.482 78.623 73.256 80.849 70.296 82.075 67.148 82.075zM67.148 167.841C64.531 167.841 62.074 168.857 60.229 170.702 58.381 172.549 57.364 175.007 57.364 177.621 57.364 180.235 58.381 182.693 60.229 184.541 62.078 186.389 64.535 187.407 67.149 187.407 69.762 187.407 72.219 186.389 74.068 184.541 77.862 180.747 77.928 174.625 74.242 170.826L74.074 170.687C72.24 168.852 69.78 167.841 67.148 167.841zM67.149 189.407C64.001 189.407 61.041 188.181 58.815 185.955 56.589 183.729 55.363 180.769 55.363 177.621 55.363 174.473 56.589 171.513 58.815 169.288 61.037 167.065 63.997 165.841 67.148 165.841 70.258 165.841 73.171 167.017 75.37 169.157L75.374 169.158 75.551 169.304C77.771 171.524 78.983 174.483 78.963 177.635 78.944 180.775 77.707 183.729 75.482 185.955 73.256 188.181 70.296 189.407 67.149 189.407z"/>
    <polygon fill="#48515A" points="116.5 73.479 118.5 73.479 118.5 69.479 116.5 69.479"/>
    <polygon fill="#48515A" points="116.5 83.479 118.5 83.479 118.5 79.479 116.5 79.479"/>
    <polygon fill="#48515A" points="120.5 77.479 124.5 77.479 124.5 75.479 120.5 75.479"/>
    <polygon fill="#48515A" points="110.5 77.479 114.5 77.479 114.5 75.479 110.5 75.479"/>
    <polygon fill="#48515A" points="212.5 182.542 214.5 182.542 214.5 178.542 212.5 178.542"/>
    <polygon fill="#48515A" points="212.5 192.542 214.5 192.542 214.5 188.542 212.5 188.542"/>
    <polygon fill="#48515A" points="216.5 186.542 220.5 186.542 220.5 184.542 216.5 184.542"/>
    <polygon fill="#48515A" points="206.5 186.542 210.5 186.542 210.5 184.542 206.5 184.542"/>
    <polygon fill="#48515A" points="94.5 178.542 96.5 178.542 96.5 174.542 94.5 174.542"/>
    <polygon fill="#48515A" points="94.5 188.542 96.5 188.542 96.5 184.542 94.5 184.542"/>
    <polygon fill="#48515A" points="98.5 182.542 102.5 182.542 102.5 180.542 98.5 180.542"/>
    <polygon fill="#48515A" points="88.5 182.542 92.5 182.542 92.5 180.542 88.5 180.542"/>
    <polygon fill="#475059" points="129.5 93.542 131.5 93.542 131.5 29.504 129.5 29.504"/>
    <polyline fill="#475059" points="131.5 220.496 129.5 220.496 129.5 123.542 152.5 123.542 171.481 122.542 152.448 121.542 129.5 121.542 129.5 113.542 131.5 113.542 131.5 119.542 152.5 119.542 190.553 121.543 190.553 123.542 152.553 125.542 131.5 125.542 131.5 220.496"/>
    <path fill="#DEDEDD" d="M200.921,76.742 L198.506,76.742 C185.249,76.742 172.785,81.906 163.41,91.28 L136.324,118.366 L159.278,118.366 L200.921,76.742"/>
    <path fill="#475059" d="M193.5 122.544C193.5 121.995 193.95 121.544 194.5 121.544 195.05 121.544 195.5 121.995 195.5 122.544 195.5 123.094 195.05 123.544 194.5 123.544 193.95 123.544 193.5 123.094 193.5 122.544zM197.5 122.544C197.5 121.995 197.95 121.544 198.5 121.544 199.05 121.544 199.5 121.995 199.5 122.544 199.5 123.094 199.05 123.544 198.5 123.544 197.95 123.544 197.5 123.094 197.5 122.544zM201.5 122.544C201.5 121.995 201.95 121.544 202.5 121.544 203.05 121.544 203.5 121.995 203.5 122.544 203.5 123.094 203.05 123.544 202.5 123.544 201.95 123.544 201.5 123.094 201.5 122.544zM205.5 122.544C205.5 121.995 205.95 121.544 206.5 121.544 207.05 121.544 207.5 121.995 207.5 122.544 207.5 123.094 207.05 123.544 206.5 123.544 205.95 123.544 205.5 123.094 205.5 122.544zM209.5 122.544C209.5 121.995 209.95 121.544 210.5 121.544 211.05 121.544 211.5 121.995 211.5 122.544 211.5 123.094 211.05 123.544 210.5 123.544 209.95 123.544 209.5 123.094 209.5 122.544zM213.5 122.544C213.5 121.995 213.95 121.544 214.5 121.544 215.05 121.544 215.5 121.995 215.5 122.544 215.5 123.094 215.05 123.544 214.5 123.544 213.95 123.544 213.5 123.094 213.5 122.544zM217.5 122.544C217.5 121.995 217.95 121.544 218.5 121.544 219.05 121.544 219.5 121.995 219.5 122.544 219.5 123.094 219.05 123.544 218.5 123.544 217.95 123.544 217.5 123.094 217.5 122.544zM201.532 155.504C201.531 155.504 201.531 155.504 201.53 155.504L178.088 155.499C174.775 155.498 172.08 152.801 172.08 149.489 172.08 146.175 174.776 143.48 178.089 143.48L201.531 143.486C203.74 143.487 205.536 145.285 205.536 147.493 205.536 148.562 205.119 149.568 204.363 150.325 203.607 151.081 202.602 151.497 201.533 151.497 201.532 151.497 201.531 151.497 201.531 151.497L177.087 151.491 177.087 149.491 201.531 149.497 201.532 149.497C202.068 149.497 202.57 149.289 202.948 148.91 203.327 148.532 203.536 148.028 203.536 147.493 203.536 146.387 202.636 145.487 201.531 145.486L178.088 145.48C175.879 145.48 174.08 147.278 174.08 149.489 174.08 151.699 175.878 153.498 178.089 153.499L201.531 153.504 201.532 153.504C203.137 153.504 204.647 152.879 205.781 151.745 206.917 150.61 207.542 149.1 207.542 147.494 207.543 144.178 204.846 141.48 201.531 141.479L177.087 141.473 177.087 139.473 201.531 139.479C205.949 139.48 209.543 143.076 209.542 147.494 209.542 149.634 208.709 151.646 207.196 153.159 205.683 154.671 203.672 155.504 201.532 155.504"/>
    <path fill="#FFD15D" d="M204.5 206.504C204.5 208.161 203.157 209.504 201.5 209.504 199.844 209.504 198.5 208.161 198.5 206.504 198.5 204.848 199.844 203.504 201.5 203.504 203.157 203.504 204.5 204.848 204.5 206.504M176.5 209.509C176.5 209.512 176.498 209.514 176.495 209.514 176.493 209.514 176.49 209.512 176.49 209.509 176.49 209.507 176.493 209.504 176.495 209.504 176.498 209.504 176.5 209.507 176.5 209.509M206.5 44.504C206.5 46.161 205.157 47.504 203.5 47.504 201.844 47.504 200.5 46.161 200.5 44.504 200.5 42.848 201.844 41.504 203.5 41.504 205.157 41.504 206.5 42.848 206.5 44.504"/>
    <polygon fill="#48515A" points="35.5 123.504 37.5 123.504 37.5 119.504 35.5 119.504"/>
    <polygon fill="#48515A" points="35.5 133.504 37.5 133.504 37.5 129.504 35.5 129.504"/>
    <polygon fill="#48515A" points="39.5 127.504 43.5 127.504 43.5 125.504 39.5 125.504"/>
    <polygon fill="#48515A" points="29.5 127.504 33.5 127.504 33.5 125.504 29.5 125.504"/>
  </g>
</svg>
