<svg xmlns="http://www.w3.org/2000/svg" width="250" height="250" viewBox="0 0 250 250">
  <g fill="none" fill-rule="evenodd">
    <path fill="#5FE0ED" d="M105 139.526C105 140.631 104.105 141.526 103 141.526 101.896 141.526 101 140.631 101 139.526 101 138.422 101.896 137.526 103 137.526 104.105 137.526 105 138.422 105 139.526M177 115.526C177 116.631 176.105 117.526 175 117.526 173.896 117.526 173 116.631 173 115.526 173 114.422 173.896 113.526 175 113.526 176.105 113.526 177 114.422 177 115.526"/>
    <polygon fill="#5FE0ED" points="67.001 219.526 175 219.526 175 173.526 67.001 173.526"/>
    <path fill="#F58E70" d="M115.369,98.311 C113.788,98.311 112.208,98.409 110.639,98.605 L110.366,98.639 C100.901,99.82 93.539,107.248 92.21,116.469 L157.781,116.469 C156.452,107.248 149.09,99.82 139.624,98.639 L139.356,98.606 C137.788,98.41 136.209,98.312 134.628,98.312 L115.369,98.311 Z M133.817,40.473 L139.995,40.473 C141.649,40.473 142.995,39.128 142.995,37.473 C142.995,35.819 141.649,34.473 139.995,34.473 L109.995,34.473 C108.341,34.473 106.995,35.819 106.995,37.473 C106.995,39.128 108.341,40.473 109.995,40.473 L133.817,40.473 Z M116.008,43.341 L112.995,95.662 L136.995,95.559 L133.982,43.336 L116.008,43.341 Z"/>
    <polyline fill="#DEDEDD" points="124.995 168.524 123.996 165.526 123.996 119.856 125.994 119.856 125.994 165.527 124.995 168.524"/>
    <polyline fill="#475059" points="124.995 189.177 119.996 174.176 119.996 119.469 121.996 119.469 121.996 173.852 124.995 182.851 127.994 173.852 127.994 119.469 129.994 119.469 129.994 174.176 124.995 189.177"/>
    <path fill="#475059" d="M90.017 118.469L159.974 118.469C159.448 106.249 149.343 96.469 136.995 96.469L112.995 96.469C100.648 96.469 90.542 106.249 90.017 118.469zM161.995 120.469L87.995 120.469 87.995 119.469C87.995 105.684 99.21 94.469 112.995 94.469L136.995 94.469C150.781 94.469 161.995 105.684 161.995 119.469L161.995 120.469zM109.995 32.474C107.239 32.474 104.995 34.717 104.995 37.474 104.995 40.23 107.239 42.474 109.995 42.474L139.995 42.474C142.752 42.474 144.995 40.23 144.995 37.474 144.995 34.717 142.752 32.474 139.995 32.474L109.995 32.474zM139.995 44.474L109.995 44.474C106.135 44.474 102.995 41.333 102.995 37.474 102.995 33.614 106.135 30.474 109.995 30.474L139.995 30.474C143.855 30.474 146.995 33.614 146.995 37.474 146.995 41.333 143.855 44.474 139.995 44.474z"/>
    <polyline fill="#475059" points="60 219.526 58 219.526 58 164.526 117 164.526 117 166.526 60 166.526 60 219.526"/>
    <polyline fill="#475059" points="184 219.526 182 219.526 182 166.526 133.001 166.526 133.001 164.526 184 164.526 184 219.526"/>
    <path fill="#475059" d="M203.99,146.526 C203.99,146.526 203.989,146.526 203.988,146.526 L180.546,146.521 C177.233,146.52 174.538,143.823 174.538,140.511 C174.538,137.197 177.234,134.502 180.547,134.502 L203.99,134.508 C206.198,134.509 207.994,136.307 207.994,138.515 C207.994,139.584 207.577,140.59 206.821,141.347 C206.065,142.103 205.06,142.519 203.991,142.519 C203.99,142.519 203.99,142.519 203.989,142.519 L179.545,142.513 L179.545,140.513 L203.989,140.519 L203.99,140.519 C204.526,140.519 205.028,140.311 205.406,139.932 C205.785,139.554 205.994,139.05 205.994,138.515 C205.994,137.409 205.094,136.509 203.989,136.508 L180.546,136.502 C178.337,136.502 176.538,138.3 176.538,140.511 C176.538,142.721 178.336,144.52 180.547,144.521 L203.989,144.526 L203.99,144.526 C205.595,144.526 207.105,143.901 208.24,142.767 C209.375,141.632 210,140.122 210,138.516 C210.001,135.2 207.304,132.502 203.989,132.501 L179.545,132.495 L179.545,130.495 L203.99,130.501 C208.407,130.502 212.001,134.098 212,138.516 C212,140.656 211.167,142.668 209.654,144.181 C208.141,145.693 206.13,146.526 203.99,146.526"/>
    <polyline fill="#475059" points="64 165.526 62 165.526 62 160.526 117 160.526 117 162.526 64 162.526 64 165.526"/>
    <polyline fill="#475059" points="188 219.526 186 219.526 186 162.526 133 162.526 133 160.526 188 160.526 188 219.526"/>
    <polyline fill="#475059" points="68 161.526 66 161.526 66 156.526 117 156.526 117 158.526 68 158.526 68 161.526"/>
    <polyline fill="#475059" points="192 219.526 190 219.526 190 158.526 133 158.526 133 156.526 192 156.526 192 219.526"/>
    <path fill="#475059" d="M49,200.505 L84.38,200.526 L89.845,197.046 L83.994,193.512 L34.508,193.481 C34.508,193.481 34.507,193.481 34.506,193.481 C33.569,193.481 32.689,193.846 32.027,194.506 C31.365,195.168 31,196.048 31,196.984 C31,198.918 32.576,200.494 34.512,200.496 L49,200.505 Z M84.962,202.526 L34.511,202.496 C31.472,202.492 29,200.021 29,196.984 C28.999,195.514 29.573,194.131 30.613,193.091 C31.653,192.053 33.035,191.481 34.505,191.481 C34.507,191.481 34.508,191.481 34.51,191.481 L84.552,191.512 L93.639,197.001 L84.962,202.526 Z"/>
    <polyline fill="#475059" points="40.276 201.502 40.274 192.488 42.274 192.488 42.276 201.502 40.276 201.502"/>
    <polygon fill="#475059" points="83.671 201.267 85.671 201.267 85.671 192.781 83.671 192.781"/>
    <polygon fill="#475059" points="41.342 198.023 84.184 198.023 84.184 196.023 41.342 196.023"/>
    <polygon fill="#48515A" points="213 171.526 215 171.526 215 167.526 213 167.526"/>
    <polygon fill="#48515A" points="213 181.526 215 181.526 215 177.526 213 177.526"/>
    <polygon fill="#48515A" points="217 175.526 221 175.526 221 173.526 217 173.526"/>
    <polygon fill="#48515A" points="207 175.526 211 175.526 211 173.526 207 173.526"/>
    <polygon fill="#48515A" points="49 105.526 51 105.526 51 101.526 49 101.526"/>
    <polygon fill="#48515A" points="49 115.526 51 115.526 51 111.526 49 111.526"/>
    <polygon fill="#48515A" points="53 109.526 57 109.526 57 107.526 53 107.526"/>
    <polygon fill="#48515A" points="43 109.526 47 109.526 47 107.526 43 107.526"/>
    <path fill="#F58E70" d="M68.001,79.526 C68.001,80.079 67.553,80.526 67.001,80.526 C66.448,80.526 66.001,80.079 66.001,79.526 C66.001,78.974 66.448,78.526 67.001,78.526 C67.553,78.526 68.001,78.974 68.001,79.526"/>
    <path fill="#475059" d="M178,86.681 C175.88,86.681 174.155,88.406 174.155,90.526 C174.155,92.646 175.88,94.372 178,94.372 C180.121,94.372 181.846,92.646 181.846,90.526 C181.846,88.406 180.121,86.681 178,86.681 Z M178,96.372 C174.777,96.372 172.155,93.75 172.155,90.526 C172.155,87.303 174.777,84.681 178,84.681 C181.224,84.681 183.846,87.303 183.846,90.526 C183.846,93.75 181.224,96.372 178,96.372 Z"/>
    <path fill="#475059" d="M178,100.526 C175.257,100.526 172.698,99.437 170.796,97.461 C168.894,95.485 167.904,92.885 168.008,90.138 C168.205,84.949 172.423,80.73 177.612,80.534 C180.357,80.433 182.958,81.42 184.935,83.321 C186.911,85.225 188,87.783 188,90.526 L188,93.296 C188,94.992 186.62,96.373 184.924,96.373 C183.227,96.373 181.846,94.992 181.846,93.296 L181.846,85.681 L183.846,85.681 L183.846,93.296 C183.846,93.89 184.33,94.373 184.924,94.373 C185.517,94.373 186,93.89 186,93.296 L186,90.526 C186,88.332 185.129,86.284 183.548,84.762 C181.967,83.24 179.875,82.444 177.688,82.532 C173.607,82.687 170.161,86.133 170.007,90.214 C169.923,92.412 170.715,94.493 172.237,96.074 C173.759,97.655 175.806,98.526 178,98.526 C179.08,98.526 180.128,98.315 181.115,97.898 C181.803,97.607 182.449,97.219 183.035,96.744 L184.295,98.297 C183.563,98.891 182.755,99.376 181.893,99.74 C180.659,100.262 179.349,100.526 178,100.526"/>
  </g>
</svg>
