<svg xmlns="http://www.w3.org/2000/svg" width="250" height="250" viewBox="0 0 250 250">
  <g fill="none" fill-rule="evenodd">
    <path fill="#FFD15D" d="M90.919,124.007 C80.978,124.007 72.919,115.948 72.919,106.007 C72.919,96.066 80.978,88.007 90.919,88.007 C100.86,88.007 108.919,96.066 108.919,106.007 C108.919,115.948 100.86,124.007 90.919,124.007 Z M92,57.191 C66.043,57.191 45,78.233 45,104.191 C45,130.148 66.043,151.191 92,151.191 C117.958,151.191 139,130.148 139,104.191 C139,78.233 117.958,57.191 92,57.191 Z"/>
    <path fill="#FFD15D" d="M208.39,119.055 L197.977,119.055 L197.619,118.839 L124.224,74.475 L125.777,71.907 L198.813,116.055 L208.39,116.055 C212.805,116.055 216.398,112.462 216.398,108.046 C216.398,103.63 212.805,100.038 208.39,100.038 L208.39,97.038 C214.459,97.038 219.398,101.976 219.398,108.046 C219.398,114.117 214.459,119.055 208.39,119.055"/>
    <path fill="#475059" d="M90.919,92.068 C83.233,92.068 76.98,98.321 76.98,106.007 C76.98,113.693 83.233,119.946 90.919,119.946 C98.604,119.946 104.857,113.693 104.857,106.007 C104.857,98.321 98.604,92.068 90.919,92.068 Z M90.919,121.946 C82.13,121.946 74.98,114.795 74.98,106.007 C74.98,97.218 82.13,90.068 90.919,90.068 C99.706,90.068 106.857,97.218 106.857,106.007 C106.857,114.795 99.706,121.946 90.919,121.946 Z M90.902,72.15 C82.15,72.15 73.913,75.438 67.551,81.506 C60.787,87.96 57.061,96.662 57.061,106.007 L57.061,175.191 C57.061,180.131 61.081,184.15 66.021,184.15 L200,184.15 L200,119.491 C192.434,120.004 186,126.281 186,133.395 C186,150.709 172.67,164.273 155.653,164.273 C138.627,164.273 124.776,150.421 124.776,133.395 L124.776,106.992 C124.776,88.327 110.624,73.04 92.556,72.189 C92.003,72.163 91.451,72.15 90.902,72.15 Z M202,186.15 L66.021,186.15 C59.978,186.15 55.061,181.234 55.061,175.191 L55.061,106.007 C55.061,96.11 59.006,86.894 66.17,80.06 C73.331,73.229 82.733,69.731 92.65,70.191 C111.786,71.092 126.776,87.257 126.776,106.992 L126.776,133.395 C126.776,149.319 139.73,162.273 155.653,162.273 C171.548,162.273 184,149.588 184,133.395 C184,124.905 191.945,117.457 201,117.457 L202,117.457 L202,186.15 Z"/>
    <polygon fill="#48515A" points="35 147.191 37 147.191 37 143.191 35 143.191"/>
    <polygon fill="#48515A" points="35 157.191 37 157.191 37 153.191 35 153.191"/>
    <polygon fill="#48515A" points="39 151.191 43 151.191 43 149.191 39 149.191"/>
    <polygon fill="#48515A" points="29.001 151.191 33.001 151.191 33.001 149.191 29.001 149.191"/>
    <polygon fill="#48515A" points="205 35.191 207 35.191 207 31.191 205 31.191"/>
    <polygon fill="#48515A" points="205 45.191 207 45.191 207 41.191 205 41.191"/>
    <polygon fill="#48515A" points="209 39.191 213 39.191 213 37.191 209 37.191"/>
    <polygon fill="#48515A" points="199 39.191 203 39.191 203 37.191 199 37.191"/>
    <path fill="#48515A" d="M181.857,83.714 C180.675,83.714 179.714,84.676 179.714,85.858 C179.714,87.04 180.675,88.001 181.857,88.001 C183.039,88.001 184,87.04 184,85.858 C184,84.676 183.039,83.714 181.857,83.714 Z M181.857,90.001 C179.573,90.001 177.714,88.142 177.714,85.858 C177.714,83.573 179.573,81.714 181.857,81.714 C184.142,81.714 186,83.573 186,85.858 C186,88.142 184.142,90.001 181.857,90.001 Z"/>
    <path fill="#F58E70" d="M157,141.191 C157,140.086 157.896,139.191 159,139.191 C160.105,139.191 161,140.086 161,141.191 C161,142.295 160.105,143.191 159,143.191 C157.896,143.191 157,142.295 157,141.191"/>
    <path fill="#DEDEDD" d="M39,186.191 C39,184.534 40.343,183.191 42,183.191 C43.657,183.191 45,184.534 45,186.191 C45,187.848 43.657,189.191 42,189.191 C40.343,189.191 39,187.848 39,186.191"/>
    <path fill="#F58E70" d="M101,47.191 C101,48.296 100.105,49.191 99,49.191 C97.896,49.191 97,48.296 97,47.191 C97,46.086 97.896,45.191 99,45.191 C100.105,45.191 101,46.086 101,47.191"/>
    <path fill="#FFD15D" d="M178 60.809L178 66.397C178 67.938 179.253 69.191 180.794 69.191L189.106 69.191C188.54 68.404 188.206 67.439 188.206 66.397L188.206 60.743 186.98 61.298 185 60.309 183 61.309 181 60.309 179 61.309 178 60.809zM193 71.191L180.794 71.191C178.151 71.191 176 69.04 176 66.397L176 57.573 179 59.073 181 58.073 183 59.073 185 58.073 187.021 59.083 190.206 57.639 190.206 66.397C190.206 67.938 191.459 69.191 193 69.191L193 71.191zM203 79.073L205 80.073 207 79.073 208 79.573 208 73.985C208 72.444 206.747 71.191 205.206 71.191L196.894 71.191C197.46 71.978 197.794 72.944 197.794 73.986L197.794 79.64 199.022 79.083 201 80.073 203 79.073zM210 82.809L207 81.309 205 82.309 203 81.309 201 82.309 198.979 81.298 195.794 82.742 195.794 73.986C195.794 72.445 194.542 71.191 193 71.191L193 69.191 205.206 69.191C207.849 69.191 210 71.341 210 73.985L210 82.809zM100.894 165.191L109.206 165.191C110.747 165.191 112 163.938 112 162.397L112 156.809 111 157.309 109 156.309 107 157.309 105 156.309 103.022 157.298 101.794 156.742 101.794 162.397C101.794 163.439 101.46 164.404 100.894 165.191zM109.206 167.191L97.001 167.191 97.001 165.191C98.541 165.191 99.794 163.938 99.794 162.397L99.794 153.64 102.979 155.083 105 154.073 107 155.073 109 154.073 111 155.073 114 153.573 114 162.397C114 165.041 111.849 167.191 109.206 167.191zM87.001 175.073L89.001 176.073 90.98 175.083 92.206 175.639 92.206 169.986C92.206 168.944 92.54 167.978 93.107 167.191L84.794 167.191C83.253 167.191 82.001 168.444 82.001 169.985L82.001 175.573 83.001 175.073 85.001 176.073 87.001 175.073zM80.001 178.809L80.001 169.985C80.001 167.341 82.151 165.191 84.794 165.191L97.001 165.191 97.001 167.191C95.46 167.191 94.206 168.445 94.206 169.986L94.206 178.743 91.021 177.298 89.001 178.309 87.001 177.309 85.001 178.309 83.001 177.309 80.001 178.809zM189 196.809L189 202.397C189 203.938 190.253 205.191 191.794 205.191L200.106 205.191C199.54 204.404 199.206 203.438 199.206 202.396L199.206 196.742 197.978 197.298 196 196.309 194 197.309 192 196.309 190 197.309 189 196.809zM204 207.191L191.794 207.191C189.151 207.191 187 205.041 187 202.397L187 193.573 190 195.073 192 194.073 194 195.073 196 194.073 198.021 195.083 201.206 193.64 201.206 202.396C201.206 203.937 202.458 205.191 204 205.191L204 207.191zM214 215.073L216 216.073 218 215.073 219 215.573 219 209.985C219 208.444 217.747 207.191 216.206 207.191L207.894 207.191C208.46 207.978 208.794 208.943 208.794 209.985L208.794 215.639 210.02 215.083 212 216.073 214 215.073zM221 218.809L218 217.309 216 218.309 214 217.309 212 218.309 209.979 217.298 206.794 218.743 206.794 209.985C206.794 208.444 205.541 207.191 204 207.191L204 205.191 216.206 205.191C218.849 205.191 221 207.341 221 209.985L221 218.809z"/>
  </g>
</svg>
