<svg xmlns="http://www.w3.org/2000/svg" xmlns:xlink="http://www.w3.org/1999/xlink" width="193" height="167" viewBox="0 0 193 167">
  <defs>
    <polygon id="cc406-a" points=".06 .01 110.06 .01 110.06 131.94 .06 131.94"/>
  </defs>
  <g fill="none" fill-rule="evenodd">
    <path fill="#DEDEDD" d="M96.07,48.999 C90.735,49.002 85.648,51.256 82.06,55.205 L82.06,152.998 L115.081,152.998 L115.081,68.009 C115.069,57.515 106.564,49.011 96.07,48.999"/>
    <g transform="translate(41 35)">
      <mask id="cc406-b" fill="#fff">
        <use xlink:href="#cc406-a"/>
      </mask>
      <path fill="#475059" d="M34.06,119.998 L76.081,119.998 L76.081,33.009 C76.081,21.405 66.674,11.999 55.07,11.999 C43.467,11.999 34.06,21.405 34.06,33.009 L34.06,119.998 Z M78.081,121.998 L32.06,121.998 L32.06,33.009 C32.06,20.301 42.362,9.999 55.07,9.999 C67.779,9.999 78.081,20.301 78.081,33.009 L78.081,121.998 Z" mask="url(#cc406-b)"/>
      <path fill="#475059" d="M2.06,130 L108.06,130 L108.06,95.469 C90.686,82.808 86.866,58.461 99.527,41.087 C101.91,37.816 104.789,34.937 108.06,32.554 L108.06,2.01 L2.06,2.01 L2.06,32.554 C19.434,45.215 23.254,69.563 10.593,86.936 C8.21,90.207 5.331,93.086 2.06,95.469 L2.06,130 Z M110.06,132 L0.06,132 L0.06,94.443 L0.48,94.144 C17.121,82.354 21.054,59.305 9.264,42.664 C6.853,39.261 3.883,36.291 0.48,33.88 L0.06,33.581 L0.06,0.01 L110.06,0.01 L110.06,33.581 L109.64,33.88 C92.999,45.67 89.066,68.718 100.856,85.36 C103.267,88.763 106.237,91.733 109.64,94.144 L110.06,94.443 L110.06,132 Z" mask="url(#cc406-b)"/>
    </g>
    <path fill="#475059" d="M98.059,91.012 C93.089,91.012 89.059,95.042 89.059,100.012 C89.059,104.983 93.089,109.012 98.059,109.012 C103.03,109.012 107.059,104.983 107.059,100.012 C107.053,95.044 103.027,91.018 98.059,91.012 Z M98.059,111.012 C91.984,111.012 87.059,106.088 87.059,100.012 C87.059,93.937 91.984,89.012 98.059,89.012 C104.134,89.012 109.059,93.937 109.059,100.012 C109.052,106.085 104.131,111.006 98.059,111.012 Z"/>
    <polygon fill="#475059" points="97.06 104.125 99.06 104.125 99.06 95.875 97.06 95.875"/>
    <polygon fill="#475059" points="94.06 101 102.185 101 102.185 99 94.06 99"/>
    <path fill="#F58E70" d="M121.081,158.998 L71.06,158.998 L71.06,68.009 C71.06,54.197 82.257,42.999 96.07,42.999 C109.883,42.999 121.081,54.197 121.081,68.009 L121.081,158.998 Z M147.06,66.555 L147.06,39.01 L45.06,39.01 L45.06,66.555 C62.985,80.318 66.36,106.006 52.597,123.931 C50.424,126.761 47.89,129.295 45.06,131.468 L45.06,163 L147.06,163 L147.06,131.468 C129.135,117.705 125.76,92.018 139.523,74.093 C141.696,71.262 144.23,68.728 147.06,66.555 Z"/>
    <polygon fill="#475059" points="114.906 32.964 116.906 32.964 116.906 .945 114.906 .945"/>
    <polygon fill="#475059" points="61.06 32.964 63.06 32.964 63.06 .945 61.06 .945"/>
    <polygon fill="#FFD15D" points="71.906 32.964 93.239 32.964 93.239 .945 71.906 .945"/>
    <polygon fill="#FFD15D" points="106.06 32.964 113.445 32.964 113.445 .945 106.06 .945"/>
    <polygon fill="#48515A" points="184.107 123.005 186.107 123.005 186.107 119.005 184.107 119.005"/>
    <polygon fill="#48515A" points="184.107 133.005 186.107 133.005 186.107 129.005 184.107 129.005"/>
    <polygon fill="#48515A" points="188.107 127.005 192.107 127.005 192.107 125.005 188.107 125.005"/>
    <polygon fill="#48515A" points="178.107 127.005 182.107 127.005 182.107 125.005 178.107 125.005"/>
    <polygon fill="#48515A" points="175.102 16.943 177.102 16.943 177.102 12.943 175.102 12.943"/>
    <polygon fill="#48515A" points="175.102 26.943 177.102 26.943 177.102 22.943 175.102 22.943"/>
    <polygon fill="#48515A" points="179.102 20.943 183.102 20.943 183.102 18.943 179.102 18.943"/>
    <polygon fill="#48515A" points="169.102 20.943 173.102 20.943 173.102 18.943 169.102 18.943"/>
    <polygon fill="#48515A" points="6 66.973 8 66.973 8 62.973 6 62.973"/>
    <polygon fill="#48515A" points="6 76.973 8 76.973 8 72.973 6 72.973"/>
    <polygon fill="#48515A" points="10 70.973 14 70.973 14 68.973 10 68.973"/>
    <polygon fill="#48515A" points="0 70.973 4 70.973 4 68.973 0 68.973"/>
    <path fill="#5FE0ED" d="M134.078,21.005 C135.183,21.005 136.078,21.9 136.078,23.005 C136.078,24.11 135.183,25.005 134.078,25.005 C132.973,25.005 132.078,24.11 132.078,23.005 C132.078,21.9 132.973,21.005 134.078,21.005"/>
    <path fill="#F58E70" d="M162.126 59.972C163.231 59.972 164.126 60.867 164.126 61.972 164.126 63.077 163.231 63.972 162.126 63.972 161.021 63.972 160.126 63.077 160.126 61.972 160.126 60.867 161.021 59.972 162.126 59.972M178.06 91.972C179.165 91.972 180.06 92.867 180.06 93.972 180.06 95.077 179.165 95.972 178.06 95.972 176.955 95.972 176.06 95.077 176.06 93.972 176.06 92.867 176.955 91.972 178.06 91.972"/>
    <path fill="#5FE0ED" d="M26.013,106.032 C28.222,106.032 30.013,107.823 30.013,110.032 C30.013,112.241 28.222,114.032 26.013,114.032 C23.804,114.032 22.013,112.241 22.013,110.032 C22.013,107.823 23.804,106.032 26.013,106.032"/>
    <path fill="#48515A" d="M101.67,146.972 L166.841,146.972 C168.498,146.972 169.841,145.629 169.841,143.972 C169.841,142.315 168.498,140.972 166.841,140.972 L101.67,140.972 L95.164,143.972 L101.67,146.972 Z M166.841,148.972 L101.231,148.972 L90.388,143.972 L101.231,138.972 L166.841,138.972 C169.603,138.972 171.841,141.21 171.841,143.972 C171.841,146.733 169.603,148.972 166.841,148.972 Z"/>
    <polygon fill="#48515A" points="158.861 147.972 160.861 147.972 160.861 139.972 158.861 139.972"/>
    <polygon fill="#48515A" points="101.843 144.972 159.861 144.972 159.861 142.972 101.843 142.972"/>
  </g>
</svg>
