<svg xmlns="http://www.w3.org/2000/svg" xmlns:xlink="http://www.w3.org/1999/xlink" width="193" height="154" viewBox="0 0 193 154">
  <defs>
    <polygon id="cc402-a" points=".989 .04 154.989 .04 154.989 154 .989 154"/>
  </defs>
  <g fill="none" fill-rule="evenodd">
    <g transform="translate(9)">
      <mask id="cc402-b" fill="#fff">
        <use xlink:href="#cc402-a"/>
      </mask>
      <path fill="#FFD15D" d="M125.989,125 L71.001,125 L125.989,70.012 L125.989,125 Z M0.989,154 L154.989,154 L154.989,0 L0.989,154 Z" mask="url(#cc402-b)"/>
    </g>
    <polygon fill="#48515A" points="153.987 153.999 155.987 153.999 155.987 147.999 153.987 147.999"/>
    <polygon fill="#48515A" points="141.987 153.999 143.987 153.999 143.987 147.999 141.987 147.999"/>
    <polygon fill="#48515A" points="129.987 153.999 131.987 153.999 131.987 147.999 129.987 147.999"/>
    <polygon fill="#48515A" points="117.987 153.999 119.987 153.999 119.987 147.999 117.987 147.999"/>
    <polygon fill="#48515A" points="105.987 153.999 107.987 153.999 107.987 147.999 105.987 147.999"/>
    <polygon fill="#48515A" points="93.987 153.999 95.987 153.999 95.987 147.999 93.987 147.999"/>
    <polygon fill="#48515A" points="81.987 153.999 83.987 153.999 83.987 147.999 81.987 147.999"/>
    <polygon fill="#48515A" points="69.987 153.999 71.987 153.999 71.987 147.999 69.987 147.999"/>
    <polygon fill="#48515A" points="57.987 153.999 59.987 153.999 59.987 147.999 57.987 147.999"/>
    <polygon fill="#48515A" points="45.987 153.999 47.987 153.999 47.987 147.999 45.987 147.999"/>
    <polygon fill="#48515A" points="33.987 153.999 35.987 153.999 35.987 147.999 33.987 147.999"/>
    <polygon fill="#48515A" points="21.987 153.999 23.987 153.999 23.987 147.999 21.987 147.999"/>
    <polygon fill="#48515A" points="158.031 145.956 164.031 145.956 164.031 143.956 158.031 143.956"/>
    <polygon fill="#48515A" points="158.031 133.956 164.031 133.956 164.031 131.956 158.031 131.956"/>
    <polygon fill="#48515A" points="158.031 121.956 164.031 121.956 164.031 119.956 158.031 119.956"/>
    <polygon fill="#48515A" points="158.031 109.956 164.031 109.956 164.031 107.956 158.031 107.956"/>
    <polygon fill="#48515A" points="158.031 97.956 164.031 97.956 164.031 95.956 158.031 95.956"/>
    <polygon fill="#48515A" points="158.031 85.956 164.031 85.956 164.031 83.956 158.031 83.956"/>
    <polygon fill="#48515A" points="158.031 73.956 164.031 73.956 164.031 71.956 158.031 71.956"/>
    <polygon fill="#48515A" points="158.031 61.956 164.031 61.956 164.031 59.956 158.031 59.956"/>
    <polygon fill="#48515A" points="158.031 49.956 164.031 49.956 164.031 47.956 158.031 47.956"/>
    <polygon fill="#48515A" points="158.031 37.956 164.031 37.956 164.031 35.956 158.031 35.956"/>
    <polygon fill="#48515A" points="158.031 25.956 164.031 25.956 164.031 23.956 158.031 23.956"/>
    <polygon fill="#48515A" points="158.031 13.956 164.031 13.956 164.031 11.956 158.031 11.956"/>
    <path fill="#48515A" d="M32.437,100.331 L29.957,107.053 L36.68,104.574 L111.064,30.19 C112.233,29.018 112.233,27.12 111.064,25.947 C109.877,24.814 108.009,24.814 106.821,25.947 L32.437,100.331 Z M26.581,110.43 L30.712,99.227 L105.407,24.533 C107.355,22.576 110.521,22.568 112.478,24.515 C114.436,26.463 114.444,29.629 112.496,31.586 C112.49,31.592 112.484,31.598 112.478,31.604 L37.783,106.299 L26.581,110.43 Z"/>
    <polyline fill="#48515A" points="100.472 30.883 101.886 29.469 107.542 35.125 106.128 36.539 100.472 30.883"/>
    <polyline fill="#48515A" points="33.974 101.624 103.3 32.297 104.714 33.711 35.388 103.038 33.974 101.624"/>
    <polygon fill="#48515A" points="6 64.962 8 64.962 8 60.962 6 60.962"/>
    <polygon fill="#48515A" points="6 74.962 8 74.962 8 70.962 6 70.962"/>
    <polygon fill="#48515A" points="10 68.962 14 68.962 14 66.962 10 66.962"/>
    <polygon fill="#48515A" points="0 68.962 4 68.962 4 66.962 0 66.962"/>
    <polygon fill="#48515A" points="184.107 135.004 186.107 135.004 186.107 131.004 184.107 131.004"/>
    <polygon fill="#48515A" points="184.107 145.004 186.107 145.004 186.107 141.004 184.107 141.004"/>
    <polygon fill="#48515A" points="188.107 139.004 192.107 139.004 192.107 137.004 188.107 137.004"/>
    <polygon fill="#48515A" points="178.107 139.004 182.107 139.004 182.107 137.004 178.107 137.004"/>
    <polygon fill="#48515A" points="126.072 4.926 128.072 4.926 128.072 .926 126.072 .926"/>
    <polygon fill="#48515A" points="126.072 14.926 128.072 14.926 128.072 10.926 126.072 10.926"/>
    <polygon fill="#48515A" points="130.072 8.926 134.072 8.926 134.072 6.926 130.072 6.926"/>
    <polygon fill="#48515A" points="120.072 8.926 124.072 8.926 124.072 6.926 120.072 6.926"/>
    <path fill="#5FE0ED" d="M35.953,64.041 C38.162,64.041 39.953,65.832 39.953,68.041 C39.953,70.251 38.162,72.041 35.953,72.041 C33.744,72.041 31.953,70.251 31.953,68.041 C31.953,65.832 33.744,64.041 35.953,64.041"/>
    <path fill="#F58E70" d="M11.97 115.975C13.075 115.975 13.97 116.871 13.97 117.975 13.97 119.08 13.075 119.975 11.97 119.975 10.866 119.975 9.97 119.08 9.97 117.975 9.97 116.871 10.866 115.975 11.97 115.975M177.994 77.975C179.099 77.975 179.994 78.871 179.994 79.975 179.994 81.08 179.099 81.975 177.994 81.975 176.89 81.975 175.994 81.08 175.994 79.975 175.994 78.871 176.89 77.975 177.994 77.975"/>
    <path fill="#48515A" d="M45.678,42.257 L48.132,43.054 L48.598,41.617 C49.099,40.014 50.592,38.928 52.271,38.947 L52.272,38.947 C53.951,38.928 55.444,40.012 55.946,41.615 L56.413,43.051 L58.867,42.252 L58.399,40.816 C57.74,38.787 58.85,36.607 60.879,35.948 C62.055,35.566 63.342,35.769 64.342,36.496 L65.564,37.383 L67.081,35.295 L65.858,34.407 C64.132,33.154 63.749,30.738 65.002,29.012 C65.729,28.012 66.89,27.419 68.127,27.419 L69.637,27.418 L69.636,24.838 L68.126,24.839 L68.125,24.839 C65.992,24.839 64.262,23.11 64.262,20.977 C64.262,19.741 64.854,18.579 65.854,17.852 L67.075,16.964 L65.602,14.938 L64.38,15.826 C62.655,17.081 60.24,16.699 58.985,14.974 C58.258,13.974 58.053,12.686 58.435,11.51 L58.901,10.074 L56.447,9.277 L55.98,10.714 C55.48,12.317 53.987,13.402 52.308,13.384 L52.306,13.384 C50.627,13.403 49.135,12.319 48.633,10.717 L48.166,9.281 L45.712,10.079 L46.179,11.516 C46.839,13.544 45.73,15.724 43.701,16.383 C42.525,16.766 41.237,16.563 40.237,15.836 L39.015,14.949 L37.499,17.038 L38.721,17.925 C40.447,19.178 40.83,21.593 39.577,23.32 C38.851,24.32 37.689,24.912 36.453,24.913 L34.943,24.914 L34.944,27.494 L36.454,27.493 L36.457,27.493 C38.59,27.494 40.319,29.224 40.318,31.357 C40.318,32.592 39.726,33.753 38.727,34.48 L37.506,35.369 L38.977,37.392 L40.199,36.504 C41.924,35.249 44.34,35.631 45.594,37.357 C46.321,38.357 46.526,39.644 46.144,40.82 L45.678,42.257 Z M49.417,45.573 L43.158,43.542 L44.242,40.203 C44.559,39.224 44.023,38.174 43.044,37.856 C42.478,37.672 41.857,37.771 41.374,38.121 L38.536,40.185 L34.712,34.927 L37.551,32.863 C38.383,32.258 38.567,31.093 37.962,30.261 C37.611,29.779 37.052,29.494 36.456,29.494 L36.455,29.494 L32.945,29.495 L32.942,22.914 L36.452,22.913 C37.481,22.913 38.315,22.078 38.314,21.049 C38.314,20.453 38.028,19.893 37.546,19.543 L34.706,17.481 L38.571,12.155 L41.412,14.218 C42.244,14.822 43.409,14.637 44.013,13.805 C44.364,13.322 44.462,12.701 44.277,12.134 L43.191,8.796 L49.449,6.76 L50.535,10.098 C50.771,10.874 51.495,11.4 52.306,11.384 L52.307,11.384 C53.119,11.4 53.842,10.874 54.078,10.097 L55.162,6.758 L61.42,8.788 L60.337,12.127 C60.02,13.106 60.556,14.157 61.535,14.474 C62.102,14.658 62.722,14.559 63.205,14.209 L66.044,12.144 L69.869,17.405 L67.029,19.469 C66.197,20.074 66.013,21.24 66.618,22.072 C66.969,22.554 67.529,22.839 68.126,22.839 L71.635,22.837 L71.638,29.418 L68.127,29.419 C67.098,29.419 66.265,30.254 66.265,31.283 C66.265,31.879 66.551,32.439 67.033,32.789 L69.874,34.852 L66.008,40.177 L63.167,38.114 C62.335,37.509 61.17,37.694 60.566,38.527 C60.215,39.009 60.117,39.63 60.302,40.197 L61.387,43.536 L55.13,45.571 L54.044,42.233 C53.807,41.457 53.084,40.931 52.272,40.947 C51.46,40.932 50.737,41.457 50.5,42.234 L49.417,45.573 Z"/>
    <path fill="#F58E70" d="M52.293,24.419 C51.328,24.416 50.543,25.196 50.54,26.162 C50.537,27.127 51.317,27.912 52.283,27.915 C53.248,27.918 54.033,27.138 54.036,26.172 C54.038,25.61 53.769,25.082 53.314,24.752 L53.314,24.751 C53.018,24.535 52.66,24.419 52.293,24.419 Z M52.285,29.91 C50.217,29.906 48.544,28.226 48.548,26.159 C48.552,24.091 50.231,22.417 52.299,22.421 C54.367,22.425 56.04,24.105 56.036,26.173 C56.035,26.96 55.785,27.727 55.323,28.364 C54.62,29.34 53.488,29.916 52.285,29.91 Z"/>
    <path fill="#48515A" d="M50.084,15.749 C50.02,15.201 50.413,14.704 50.961,14.639 C50.961,14.639 50.963,14.639 50.964,14.639 C51.508,14.577 52,14.967 52.063,15.512 C52.063,15.514 52.064,15.517 52.064,15.519 C52.132,16.064 51.745,16.561 51.2,16.629 C51.198,16.629 51.196,16.629 51.194,16.629 C51.154,16.637 51.114,16.641 51.074,16.639 C50.566,16.636 50.141,16.254 50.084,15.749 Z M54.714,16.87 L54.704,16.87 C54.172,16.729 53.853,16.184 53.994,15.651 C53.994,15.65 53.994,15.65 53.994,15.649 C54.134,15.117 54.68,14.799 55.212,14.939 C55.213,14.939 55.213,14.939 55.214,14.939 C55.746,15.079 56.064,15.625 55.924,16.157 C55.924,16.158 55.924,16.159 55.924,16.159 C55.813,16.599 55.418,16.908 54.964,16.909 C54.879,16.911 54.794,16.898 54.714,16.87 Z M46.474,17.249 C46.216,16.764 46.401,16.161 46.887,15.903 C46.89,15.902 46.892,15.901 46.894,15.899 C47.381,15.642 47.984,15.827 48.241,16.314 C48.242,16.316 48.243,16.317 48.244,16.319 C48.498,16.808 48.31,17.411 47.824,17.669 C47.679,17.745 47.517,17.782 47.354,17.779 C46.985,17.781 46.645,17.577 46.474,17.249 Z M57.924,18.389 C57.914,18.389 57.904,18.379 57.894,18.379 C57.448,18.053 57.35,17.427 57.674,16.979 C57.993,16.532 58.615,16.429 59.062,16.748 C59.062,16.748 59.063,16.749 59.064,16.749 C59.074,16.759 59.074,16.759 59.084,16.759 C59.084,16.765 59.088,16.769 59.093,16.769 L59.094,16.769 C59.54,17.091 59.642,17.713 59.321,18.16 C59.319,18.163 59.316,18.166 59.314,18.169 C59.127,18.43 58.825,18.583 58.504,18.579 C58.295,18.581 58.091,18.514 57.924,18.389 Z M43.644,19.949 C43.231,19.586 43.187,18.958 43.544,18.539 C43.912,18.127 44.542,18.082 44.964,18.439 C45.379,18.808 45.419,19.441 45.054,19.859 C44.865,20.075 44.591,20.199 44.304,20.199 C44.061,20.2 43.826,20.111 43.644,19.949 Z M60.344,20.949 L60.354,20.949 C60.054,20.488 60.184,19.871 60.644,19.569 C61.105,19.268 61.723,19.398 62.024,19.859 L62.034,19.859 C62.326,20.328 62.193,20.943 61.734,21.249 C61.571,21.349 61.385,21.404 61.194,21.409 C60.852,21.404 60.535,21.233 60.344,20.949 Z M41.984,23.489 C41.465,23.303 41.196,22.732 41.382,22.213 C41.383,22.212 41.383,22.211 41.384,22.209 C41.57,21.691 42.142,21.422 42.661,21.608 C42.662,21.608 42.663,21.609 42.664,21.609 C43.183,21.796 43.452,22.367 43.265,22.885 C43.265,22.887 43.265,22.888 43.264,22.889 C43.121,23.286 42.745,23.55 42.324,23.549 C42.208,23.549 42.093,23.528 41.984,23.489 Z M61.684,24.209 C61.574,23.668 61.923,23.14 62.464,23.029 C63.001,22.916 63.529,23.26 63.642,23.798 C63.643,23.802 63.643,23.806 63.644,23.809 C63.757,24.347 63.413,24.874 62.876,24.987 C62.872,24.988 62.868,24.988 62.864,24.989 C62.798,25.001 62.731,25.008 62.664,25.009 C62.189,25.008 61.781,24.674 61.684,24.209 Z M40.694,26.419 L40.694,26.409 C40.688,25.859 41.124,25.405 41.674,25.389 C42.226,25.38 42.681,25.818 42.694,26.37 C42.703,26.921 42.265,27.377 41.714,27.389 C41.704,27.389 41.704,27.399 41.694,27.399 C41.152,27.393 40.711,26.961 40.694,26.419 Z M62.584,28.889 C62.044,28.804 61.676,28.298 61.761,27.758 C61.762,27.752 61.763,27.745 61.764,27.739 C61.846,27.197 62.352,26.824 62.895,26.906 C62.901,26.907 62.908,26.908 62.914,26.909 C63.455,27.006 63.819,27.517 63.734,28.06 C63.653,28.543 63.235,28.898 62.744,28.899 C62.69,28.901 62.637,28.898 62.584,28.889 Z M41.564,30.589 C41.353,30.079 41.596,29.493 42.106,29.282 C42.109,29.281 42.111,29.28 42.114,29.279 C42.62,29.069 43.202,29.309 43.412,29.816 C43.413,29.817 43.414,29.818 43.414,29.819 C43.627,30.329 43.386,30.916 42.876,31.129 C42.875,31.129 42.875,31.129 42.874,31.129 C42.753,31.179 42.625,31.206 42.494,31.209 C42.088,31.208 41.721,30.964 41.564,30.589 Z M60.904,32.419 C60.43,32.141 60.271,31.531 60.55,31.057 C60.551,31.055 60.553,31.052 60.554,31.049 C60.837,30.577 61.449,30.42 61.924,30.699 C62.397,30.982 62.553,31.594 62.274,32.069 C62.092,32.371 61.766,32.556 61.414,32.56 C61.235,32.558 61.059,32.51 60.904,32.419 Z M43.884,34.159 C43.507,33.76 43.521,33.132 43.914,32.749 C44.315,32.368 44.949,32.381 45.334,32.779 C45.716,33.18 45.702,33.814 45.304,34.199 C45.112,34.373 44.863,34.469 44.604,34.469 C44.331,34.47 44.071,34.358 43.884,34.159 Z M58.064,35.109 C57.724,34.68 57.796,34.056 58.225,33.716 C58.228,33.714 58.231,33.712 58.234,33.709 C58.66,33.367 59.283,33.434 59.626,33.859 C59.628,33.863 59.631,33.866 59.634,33.87 C59.975,34.304 59.904,34.932 59.474,35.279 C59.295,35.413 59.078,35.487 58.854,35.489 C58.546,35.49 58.255,35.35 58.064,35.109 Z M47.334,36.659 C46.834,36.419 46.624,35.819 46.864,35.319 C47.096,34.824 47.685,34.611 48.18,34.843 C48.184,34.845 48.189,34.847 48.194,34.85 C48.693,35.085 48.907,35.679 48.674,36.179 C48.505,36.528 48.152,36.75 47.764,36.749 C47.616,36.748 47.47,36.718 47.334,36.659 Z M54.444,36.589 C54.285,36.062 54.579,35.505 55.104,35.339 C55.631,35.18 56.188,35.474 56.354,35.999 C56.518,36.525 56.224,37.085 55.698,37.248 C55.697,37.249 55.695,37.249 55.694,37.249 C55.6,37.28 55.502,37.296 55.404,37.299 C54.963,37.299 54.573,37.011 54.444,36.589 Z M51.464,37.729 C50.915,37.694 50.499,37.22 50.534,36.671 C50.534,36.67 50.534,36.67 50.534,36.669 C50.574,36.118 51.052,35.702 51.604,35.739 C52.154,35.783 52.567,36.259 52.534,36.81 C52.492,37.332 52.058,37.735 51.534,37.739 C51.51,37.741 51.486,37.737 51.464,37.729 Z"/>
  </g>
</svg>
