<svg xmlns="http://www.w3.org/2000/svg" xmlns:xlink="http://www.w3.org/1999/xlink" width="193" height="162" viewBox="0 0 193 162">
  <defs>
    <polygon id="cc403-a" points=".694 .092 126.199 .092 126.199 147.94 .694 147.94"/>
  </defs>
  <g fill="none" fill-rule="evenodd">
    <path fill="#DEDEDD" d="M104.994,55.13 L86.994,55.13 L86.994,52.242 C92.013,43.011 94.994,30.667 94.994,19.029 L94.994,18.464 L96.994,18.464 L96.994,19.027 C96.994,30.676 99.979,43.05 104.994,52.243 L104.994,55.13"/>
    <path fill="#FFD15D" d="M47.988,120.464 L144,120.464 L144,90.463 L47.988,90.463 L47.988,120.464 Z M142,69.463 L49.988,69.463 C44.465,69.463 39.988,73.941 39.988,79.464 L39.988,133.464 C39.988,138.986 44.465,143.464 49.988,143.464 L142,143.464 C147.523,143.464 152,138.986 152,133.464 L152,79.464 C152,73.941 147.523,69.463 142,69.463 Z"/>
    <path fill="#475059" d="M126.994,69.464 L124.994,69.464 L124.994,59.465 C124.992,57.808 123.65,56.466 121.994,56.465 L69.994,56.465 C68.338,56.466 66.996,57.808 66.994,59.465 L66.994,69.464 L64.994,69.464 L64.994,59.465 C64.997,56.704 67.234,54.468 69.994,54.465 L121.994,54.465 C124.754,54.468 126.991,56.704 126.994,59.465 L126.994,69.464"/>
    <path fill="#475059" d="M108.994 55.465L106.994 55.465 106.97 51.684C102.05 42.869 98.994 30.356 98.994 19.027L98.994 16.465 92.994 16.465 92.994 19.029C92.994 30.363 89.933 42.862 84.994 51.728L84.994 55.465 82.994 55.465 82.994 51.204 83.123 50.975C87.978 42.378 90.994 30.137 90.994 19.029L90.994 14.464 100.994 14.464 100.994 19.027C100.994 30.035 103.953 42.174 108.716 50.709L108.994 51.207 108.994 55.465M95.935 96.55L90.842 103.661C88.19 106.474 88.32 110.904 91.133 113.556 93.946 116.208 98.376 116.078 101.028 113.265 103.571 110.568 103.571 106.357 101.028 103.661L100.942 103.556 95.935 96.55zM95.935 117.459C90.967 117.462 86.937 113.437 86.933 108.468 86.932 106.195 87.791 104.005 89.339 102.34L95.935 93.11 102.531 102.34C105.913 105.979 105.704 111.672 102.064 115.053 100.398 116.601 98.209 117.46 95.935 117.459z"/>
    <path fill="#475059" d="M45.988,122.464 L146,122.464 L146,88.464 L45.988,88.464 L45.988,122.464 Z M43.988,124.464 L148,124.464 L148,86.464 L43.988,86.464 L43.988,124.464 Z"/>
    <polygon fill="#DEDEDD" points="68.993 67.462 70.993 67.462 70.993 58.463 68.993 58.463"/>
    <polygon fill="#DEDEDD" points="72.996 67.462 74.996 67.462 74.996 58.463 72.996 58.463"/>
    <polygon fill="#DEDEDD" points="76.998 67.462 78.998 67.462 78.998 58.463 76.998 58.463"/>
    <polygon fill="#DEDEDD" points="81.001 67.462 83.001 67.462 83.001 58.463 81.001 58.463"/>
    <polygon fill="#DEDEDD" points="85.003 67.462 87.003 67.462 87.003 58.463 85.003 58.463"/>
    <polygon fill="#DEDEDD" points="89.006 67.462 91.006 67.462 91.006 58.463 89.006 58.463"/>
    <polygon fill="#DEDEDD" points="93.008 67.462 95.008 67.462 95.008 58.463 93.008 58.463"/>
    <polygon fill="#DEDEDD" points="97.01 67.462 99.01 67.462 99.01 58.463 97.01 58.463"/>
    <polygon fill="#DEDEDD" points="101.013 67.462 103.013 67.462 103.013 58.463 101.013 58.463"/>
    <polygon fill="#DEDEDD" points="105.015 67.462 107.015 67.462 107.015 58.463 105.015 58.463"/>
    <polygon fill="#DEDEDD" points="109.018 67.462 111.018 67.462 111.018 58.463 109.018 58.463"/>
    <polygon fill="#DEDEDD" points="113.02 67.462 115.02 67.462 115.02 58.463 113.02 58.463"/>
    <polygon fill="#DEDEDD" points="117.022 67.462 119.022 67.462 119.022 58.463 117.022 58.463"/>
    <polygon fill="#DEDEDD" points="121.025 67.462 123.025 67.462 123.025 58.463 121.025 58.463"/>
    <path fill="#48515A" d="M21.628,155.917 L106.812,155.917 C108.468,155.917 109.812,154.574 109.812,152.917 C109.812,151.26 108.468,149.917 106.812,149.917 L21.628,149.917 L15.123,152.917 L21.628,155.917 Z M106.812,157.917 L21.189,157.917 L10.346,152.917 L21.189,147.917 L106.812,147.917 C109.573,147.917 111.812,150.155 111.812,152.917 C111.812,155.678 109.573,157.917 106.812,157.917 Z"/>
    <polygon fill="#48515A" points="98.831 156.917 100.831 156.917 100.831 148.917 98.831 148.917"/>
    <polygon fill="#48515A" points="21.801 153.917 99.831 153.917 99.831 151.917 21.801 151.917"/>
    <polygon fill="#48515A" points="6 64.421 8 64.421 8 60.421 6 60.421"/>
    <polygon fill="#48515A" points="6 74.421 8 74.421 8 70.421 6 70.421"/>
    <polygon fill="#48515A" points="10 68.421 14 68.421 14 66.421 10 66.421"/>
    <polygon fill="#48515A" points="0 68.421 4 68.421 4 66.421 0 66.421"/>
    <polygon fill="#48515A" points="184.107 134.463 186.107 134.463 186.107 130.463 184.107 130.463"/>
    <polygon fill="#48515A" points="184.107 144.463 186.107 144.463 186.107 140.463 184.107 140.463"/>
    <polygon fill="#48515A" points="188.107 138.463 192.107 138.463 192.107 136.463 188.107 136.463"/>
    <polygon fill="#48515A" points="178.107 138.463 182.107 138.463 182.107 136.463 178.107 136.463"/>
    <polygon fill="#48515A" points="126.072 4.385 128.072 4.385 128.072 .385 126.072 .385"/>
    <polygon fill="#48515A" points="126.072 14.385 128.072 14.385 128.072 10.385 126.072 10.385"/>
    <polygon fill="#48515A" points="130.072 8.385 134.072 8.385 134.072 6.385 130.072 6.385"/>
    <polygon fill="#48515A" points="120.072 8.385 124.072 8.385 124.072 6.385 120.072 6.385"/>
    <path fill="#5FE0ED" d="M25.947,63.501 C28.157,63.501 29.947,65.292 29.947,67.501 C29.947,69.71 28.157,71.501 25.947,71.501 C23.738,71.501 21.947,69.71 21.947,67.501 C21.947,65.292 23.738,63.501 25.947,63.501"/>
    <path fill="#F58E70" d="M11.97 115.435C13.075 115.435 13.97 116.33 13.97 117.435 13.97 118.539 13.075 119.435 11.97 119.435 10.866 119.435 9.97 118.539 9.97 117.435 9.97 116.33 10.866 115.435 11.97 115.435M177.994 77.435C179.099 77.435 179.994 78.33 179.994 79.435 179.994 80.539 179.099 81.435 177.994 81.435 176.89 81.435 175.994 80.539 175.994 79.435 175.994 78.33 176.89 77.435 177.994 77.435"/>
    <path fill="#48515A" d="M45.678,41.716 L48.132,42.513 L48.598,41.076 C49.099,39.473 50.592,38.388 52.271,38.406 L52.272,38.406 C53.951,38.387 55.444,39.472 55.946,41.074 L56.413,42.51 L58.867,41.712 L58.399,40.275 C57.74,38.246 58.85,36.067 60.879,35.407 C62.055,35.025 63.342,35.229 64.342,35.955 L65.564,36.842 L67.081,34.754 L65.858,33.866 C64.132,32.613 63.749,30.198 65.002,28.471 C65.729,27.471 66.89,26.879 68.127,26.878 L69.637,26.878 L69.636,24.298 L68.126,24.298 L68.125,24.298 C65.992,24.298 64.262,22.569 64.262,20.436 C64.262,19.2 64.854,18.038 65.854,17.311 L67.075,16.423 L65.602,14.398 L64.38,15.285 C62.655,16.54 60.24,16.158 58.985,14.433 C58.258,13.433 58.053,12.146 58.435,10.969 L58.901,9.533 L56.447,8.737 L55.98,10.173 C55.48,11.776 53.987,12.861 52.308,12.843 L52.306,12.843 C50.627,12.862 49.135,11.778 48.633,10.177 L48.166,8.74 L45.712,9.538 L46.179,10.975 C46.839,13.003 45.73,15.183 43.701,15.843 C42.525,16.225 41.237,16.022 40.237,15.295 L39.015,14.408 L37.499,16.497 L38.721,17.384 C40.447,18.637 40.83,21.053 39.577,22.779 C38.851,23.779 37.689,24.372 36.453,24.372 L34.943,24.373 L34.944,26.953 L36.454,26.953 L36.457,26.953 C38.59,26.953 40.319,28.683 40.318,30.816 C40.318,32.052 39.726,33.213 38.727,33.939 L37.506,34.828 L38.977,36.851 L40.199,35.963 C41.924,34.709 44.34,35.09 45.594,36.816 C46.321,37.816 46.526,39.104 46.144,40.279 L45.678,41.716 Z M49.417,45.032 L43.158,43.001 L44.242,39.662 C44.559,38.684 44.023,37.633 43.044,37.315 C42.478,37.131 41.857,37.23 41.374,37.58 L38.536,39.645 L34.712,34.386 L37.551,32.322 C38.383,31.717 38.567,30.552 37.962,29.72 C37.611,29.238 37.052,28.953 36.456,28.953 L36.455,28.953 L32.945,28.954 L32.942,22.374 L36.452,22.372 C37.481,22.372 38.315,21.537 38.314,20.509 C38.314,19.912 38.028,19.352 37.546,19.002 L34.706,16.94 L38.571,11.615 L41.412,13.677 C42.244,14.281 43.409,14.096 44.013,13.264 C44.364,12.781 44.462,12.16 44.277,11.594 L43.191,8.255 L49.449,6.219 L50.535,9.557 C50.771,10.334 51.495,10.859 52.306,10.844 L52.307,10.844 C53.119,10.859 53.842,10.333 54.078,9.556 L55.162,6.217 L61.42,8.248 L60.337,11.587 C60.02,12.565 60.556,13.616 61.535,13.933 C62.102,14.117 62.722,14.019 63.205,13.668 L66.044,11.604 L69.869,16.865 L67.029,18.928 C66.197,19.534 66.013,20.699 66.618,21.531 C66.969,22.013 67.529,22.298 68.126,22.298 L71.635,22.297 L71.638,28.878 L68.127,28.878 C67.098,28.879 66.265,29.713 66.265,30.742 C66.265,31.338 66.551,31.898 67.033,32.248 L69.874,34.311 L66.008,39.636 L63.167,37.573 C62.335,36.969 61.17,37.154 60.566,37.986 C60.215,38.469 60.117,39.089 60.302,39.656 L61.387,42.995 L55.13,45.03 L54.044,41.693 C53.807,40.916 53.084,40.391 52.272,40.406 C51.46,40.391 50.737,40.917 50.5,41.694 L49.417,45.032 Z"/>
    <path fill="#F58E70" d="M52.293,23.878 C51.328,23.875 50.543,24.655 50.54,25.621 C50.537,26.586 51.317,27.371 52.283,27.374 C53.248,27.377 54.033,26.597 54.036,25.632 C54.038,25.07 53.769,24.541 53.314,24.211 C53.018,23.995 52.66,23.878 52.293,23.878 Z M52.285,29.369 C50.217,29.365 48.544,27.686 48.548,25.618 C48.552,23.55 50.231,21.877 52.299,21.881 C54.367,21.885 56.04,23.564 56.036,25.632 C56.035,26.419 55.785,27.186 55.323,27.823 C54.62,28.799 53.488,29.375 52.285,29.369 Z"/>
    <g transform="translate(40 14)">
      <mask id="cc403-b" fill="#fff">
        <use xlink:href="#cc403-a"/>
      </mask>
      <path fill="#48515A" d="M10.084,1.209 C10.02,0.66 10.413,0.163 10.961,0.099 C10.961,0.099 10.963,0.098 10.964,0.098 C11.513,0.038 12.007,0.431 12.074,0.979 C12.137,1.528 11.744,2.025 11.194,2.089 C11.194,2.089 11.194,2.089 11.194,2.089 C11.154,2.089 11.114,2.098 11.074,2.098 C10.566,2.095 10.141,1.713 10.084,1.209 Z M14.714,2.329 C14.181,2.195 13.857,1.654 13.991,1.12 C13.992,1.116 13.993,1.113 13.994,1.109 C14.134,0.576 14.68,0.258 15.212,0.398 C15.213,0.398 15.213,0.398 15.214,0.399 C15.746,0.541 16.066,1.083 15.934,1.618 C15.816,2.058 15.419,2.365 14.964,2.368 C14.879,2.371 14.794,2.357 14.714,2.329 Z M6.474,2.709 C6.216,2.223 6.401,1.62 6.887,1.362 C6.89,1.361 6.892,1.36 6.894,1.359 C7.382,1.102 7.987,1.289 8.244,1.778 C8.244,1.778 8.244,1.778 8.244,1.779 C8.493,2.268 8.306,2.867 7.824,3.129 C7.679,3.204 7.517,3.242 7.354,3.238 C6.984,3.243 6.643,3.038 6.474,2.709 Z M17.944,3.868 C17.924,3.859 17.914,3.848 17.894,3.839 C17.448,3.512 17.35,2.887 17.674,2.439 C17.993,1.991 18.614,1.888 19.062,2.207 C19.062,2.208 19.063,2.208 19.064,2.209 C19.074,2.218 19.084,2.229 19.094,2.229 C19.54,2.55 19.642,3.172 19.321,3.619 C19.319,3.622 19.316,3.625 19.314,3.629 C19.127,3.889 18.825,4.042 18.504,4.039 C18.304,4.041 18.109,3.982 17.944,3.868 Z M3.644,5.408 C3.227,5.048 3.181,4.418 3.542,4.001 C3.543,4 3.543,3.999 3.544,3.999 C3.908,3.586 4.535,3.542 4.954,3.899 C5.374,4.26 5.421,4.892 5.06,5.312 C5.058,5.314 5.056,5.316 5.054,5.319 C4.865,5.535 4.591,5.659 4.304,5.658 C4.061,5.659 3.826,5.57 3.644,5.408 Z M20.354,6.408 C20.054,5.947 20.184,5.33 20.644,5.029 C21.109,4.729 21.728,4.858 22.034,5.319 C22.325,5.787 22.192,6.402 21.734,6.709 C21.571,6.809 21.385,6.863 21.194,6.868 C20.854,6.866 20.539,6.693 20.354,6.408 Z M1.984,8.948 C1.465,8.762 1.196,8.191 1.382,7.673 C1.383,7.671 1.383,7.67 1.384,7.669 C1.57,7.15 2.142,6.881 2.661,7.067 C2.662,7.068 2.663,7.068 2.664,7.069 C3.183,7.255 3.452,7.826 3.265,8.345 C3.265,8.346 3.265,8.347 3.264,8.348 C3.121,8.745 2.745,9.009 2.324,9.008 C2.208,9.008 2.093,8.988 1.984,8.949 L1.984,8.948 Z M21.684,9.669 C21.574,9.128 21.923,8.6 22.464,8.488 C23.001,8.375 23.529,8.72 23.642,9.257 C23.643,9.261 23.643,9.265 23.644,9.269 C23.758,9.806 23.414,10.334 22.876,10.448 C22.876,10.448 22.875,10.448 22.874,10.448 C22.805,10.46 22.735,10.467 22.664,10.468 C22.189,10.468 21.78,10.134 21.684,9.669 Z M0.694,11.879 C0.684,11.325 1.12,10.866 1.674,10.848 C2.226,10.839 2.681,11.277 2.694,11.829 C2.703,12.38 2.265,12.836 1.714,12.848 L1.694,12.848 C1.153,12.85 0.709,12.42 0.694,11.879 Z M22.584,14.348 C22.041,14.259 21.674,13.746 21.763,13.203 C21.764,13.202 21.764,13.2 21.764,13.198 C21.849,12.66 22.353,12.292 22.892,12.377 C22.896,12.377 22.9,12.378 22.904,12.379 C23.449,12.464 23.821,12.975 23.735,13.52 C23.735,13.523 23.734,13.526 23.734,13.529 C23.648,14.008 23.231,14.358 22.744,14.359 C22.69,14.36 22.637,14.357 22.584,14.348 Z M1.564,16.049 C1.352,15.54 1.592,14.956 2.1,14.744 C2.104,14.742 2.109,14.74 2.114,14.738 C2.619,14.529 3.198,14.768 3.408,15.273 C3.41,15.278 3.412,15.283 3.414,15.289 C3.624,15.795 3.384,16.377 2.878,16.587 C2.877,16.588 2.875,16.588 2.874,16.589 C2.753,16.638 2.625,16.665 2.494,16.669 C2.088,16.668 1.721,16.423 1.564,16.049 Z M20.904,17.879 C20.429,17.599 20.272,16.987 20.552,16.513 C20.553,16.511 20.553,16.51 20.554,16.508 C20.832,16.035 21.442,15.876 21.916,16.154 C21.919,16.155 21.921,16.157 21.924,16.158 C22.397,16.442 22.553,17.053 22.274,17.529 C22.092,17.83 21.766,18.016 21.414,18.019 C21.235,18.017 21.059,17.969 20.904,17.879 Z M3.884,19.618 C3.507,19.219 3.521,18.591 3.914,18.209 C4.315,17.827 4.949,17.84 5.334,18.238 C5.715,18.638 5.701,19.27 5.301,19.652 C5.299,19.654 5.296,19.656 5.294,19.658 C5.11,19.832 4.867,19.928 4.614,19.928 C4.338,19.931 4.073,19.819 3.884,19.618 Z M18.064,20.569 C17.724,20.139 17.796,19.516 18.225,19.176 C18.228,19.173 18.231,19.171 18.234,19.169 C18.66,18.826 19.283,18.893 19.626,19.319 C19.628,19.322 19.631,19.325 19.634,19.329 C19.975,19.763 19.904,20.391 19.474,20.738 C19.295,20.873 19.078,20.946 18.854,20.948 C18.546,20.95 18.255,20.81 18.064,20.569 Z M7.334,22.118 C6.834,21.878 6.624,21.278 6.864,20.779 C7.102,20.282 7.697,20.072 8.194,20.309 C8.689,20.54 8.902,21.13 8.671,21.624 C8.668,21.629 8.666,21.634 8.664,21.638 C8.501,21.988 8.15,22.211 7.764,22.209 C7.616,22.208 7.47,22.177 7.334,22.118 Z M14.444,22.049 C14.285,21.521 14.579,20.964 15.104,20.799 C15.631,20.639 16.188,20.934 16.354,21.459 C16.521,21.979 16.233,22.536 15.713,22.703 C15.707,22.705 15.7,22.707 15.694,22.709 C15.6,22.74 15.502,22.756 15.404,22.759 C14.963,22.758 14.573,22.47 14.444,22.049 Z M11.464,23.189 C10.918,23.157 10.501,22.688 10.533,22.142 C10.534,22.137 10.534,22.133 10.534,22.129 C10.574,21.577 11.052,21.161 11.604,21.199 C12.155,21.239 12.571,21.717 12.534,22.269 C12.492,22.791 12.058,23.195 11.534,23.198 C11.51,23.2 11.486,23.197 11.464,23.189 Z" mask="url(#cc403-b)"/>
      <path fill="#475059" d="M121.966,140.246 L120.266,142.049 C119.393,142.965 119.414,144.412 120.313,145.303 C121.064,146.149 122.358,146.227 123.204,145.477 C123.263,145.425 123.319,145.369 123.371,145.311 L123.506,145.178 C124.361,144.334 124.43,142.976 123.665,142.049 L121.966,140.246 Z M121.849,148 C120.733,147.985 119.671,147.523 118.899,146.717 C117.23,145.064 117.19,142.378 118.811,140.677 L121.966,137.33 L125.12,140.677 C126.673,142.442 126.533,145.124 124.804,146.717 L124.645,146.86 C123.891,147.581 122.892,147.989 121.849,148 Z" mask="url(#cc403-b)"/>
    </g>
    <path fill="#475059" d="M160.996 150.991L158.996 150.991 158.996 147.865C157.231 147.407 155.998 145.815 155.996 143.992L155.996 129.991 157.996 129.991 157.996 143.992C157.998 145.096 158.892 145.99 159.996 145.991L160.996 145.991 160.996 150.991M164.996 150.991L162.996 150.991 162.996 145.991 163.996 145.991C165.1 145.99 165.995 145.096 165.996 143.992L165.996 129.991 167.996 129.991 167.996 143.992C167.994 145.815 166.761 147.406 164.997 147.865L164.996 150.991"/>
    <polygon fill="#475059" points="156.995 135.991 166.995 135.991 166.995 133.991 156.995 133.991"/>
    <path fill="#475059" d="M126.004,48.919 L146.004,48.919 L146.004,28.333 L138.59,20.919 L126.004,20.919 L126.004,48.919 Z M148.004,50.919 L124.004,50.919 L124.004,18.919 L139.418,18.919 L148.004,27.505 L148.004,50.919 Z"/>
    <polyline fill="#475059" points="147.004 28.919 138.004 28.919 138.004 19.919 140.004 19.919 140.004 26.919 147.004 26.919 147.004 28.919"/>
    <polygon fill="#475059" points="129.004 32.919 133.004 32.919 133.004 30.919 129.004 30.919"/>
    <polygon fill="#475059" points="129.004 36.919 143.004 36.919 143.004 34.919 129.004 34.919"/>
    <polygon fill="#475059" points="129.004 40.919 143.004 40.919 143.004 38.919 129.004 38.919"/>
    <polygon fill="#475059" points="129.004 44.919 137.004 44.919 137.004 42.919 129.004 42.919"/>
  </g>
</svg>
