<svg xmlns="http://www.w3.org/2000/svg" xmlns:xlink="http://www.w3.org/1999/xlink" width="192" height="174" viewBox="0 0 192 174">
  <defs>
    <polygon id="cc408-a" points=".994 .5 64.994 .5 64.994 85.94 .994 85.94"/>
  </defs>
  <g fill="none" fill-rule="evenodd">
    <polyline fill="#DEDEDD" points="123.994 24 123.994 0 81.994 0 81.994 3 123.994 24"/>
    <polyline fill="#DEDEDD" points="81.994 31.382 123.994 52.382 123.994 26.505 81.994 4.868 81.994 31.382"/>
    <path fill="#DEDEDD" d="M81.994 61.501L110.993 76 120.994 76C122.651 76 123.994 74.657 123.994 73L123.994 54.619 81.994 33.619 81.994 61.501M81.994 73C81.994 74.657 83.337 76 84.994 76L106.758 76 81.994 63.618 81.994 73"/>
    <polyline fill="#DEDEDD" points="85.994 93.5 129.994 115.5 129.994 91.6 111.994 100 85.994 93.5"/>
    <polyline fill="#DEDEDD" points="87.209 93.804 129.994 115.845 129.994 92 129.238 91.953 111.994 100 87.209 93.804"/>
    <g transform="translate(65 88)">
      <mask id="cc408-b" fill="#fff">
        <use xlink:href="#cc408-a"/>
      </mask>
      <polyline fill="#DEDEDD" points=".994 23.882 64.994 55.882 64.994 30.095 13.722 3.682 .994 .5 .994 23.882" mask="url(#cc408-b)"/>
      <polyline fill="#DEDEDD" points=".994 54 64.994 86 64.994 58.118 .994 26.118 .994 54" mask="url(#cc408-b)"/>
    </g>
    <path fill="#475059" d="M120.994,77 L84.994,77 C82.786,76.997 80.997,75.208 80.994,73 L80.994,0 L82.994,0 L82.994,73 C82.995,74.104 83.89,74.999 84.994,75 L120.994,75 C122.098,74.999 122.993,74.104 122.994,73 L122.994,0 L124.994,0 L124.994,73 C124.992,75.208 123.202,76.998 120.994,77"/>
    <polyline fill="#475059" points="112.096 101.056 54.994 86.781 54.994 0 56.994 0 56.994 85.219 111.892 98.944 140.994 85.363 140.994 0 142.994 0 142.994 86.637 112.096 101.056"/>
    <path fill="#FFD15D" d="M138.994,0 L126.994,0 L126.994,73 C126.991,76.312 124.306,78.996 120.994,79 L84.994,79 C81.682,78.996 78.998,76.312 78.994,73 L78.994,0 L58.994,0 L58.994,83.658 L111.689,96.831 L138.994,84.089 L138.994,0"/>
    <polygon fill="#48515A" points="183.994 108 185.994 108 185.994 104 183.994 104"/>
    <polygon fill="#48515A" points="183.994 118 185.994 118 185.994 114 183.994 114"/>
    <polygon fill="#48515A" points="187.994 112 191.994 112 191.994 110 187.994 110"/>
    <polygon fill="#48515A" points="177.994 112 181.994 112 181.994 110 177.994 110"/>
    <polygon fill="#48515A" points="6 80.962 8 80.962 8 76.962 6 76.962"/>
    <polygon fill="#48515A" points="6 90.962 8 90.962 8 86.962 6 86.962"/>
    <polygon fill="#48515A" points="10 84.962 14 84.962 14 82.962 10 82.962"/>
    <polygon fill="#48515A" points="0 84.962 4 84.962 4 82.962 0 82.962"/>
    <polygon fill="#48515A" points="153.994 10 155.994 10 155.994 6 153.994 6"/>
    <polygon fill="#48515A" points="153.994 20 155.994 20 155.994 16 153.994 16"/>
    <polygon fill="#48515A" points="157.994 14 161.994 14 161.994 12 157.994 12"/>
    <polygon fill="#48515A" points="147.994 14 151.994 14 151.994 12 147.994 12"/>
    <path fill="#F58E70" d="M153.994,116 C155.099,116 155.994,116.895 155.994,118 C155.994,119.105 155.099,120 153.994,120 C152.89,120 151.994,119.105 151.994,118 C151.994,116.895 152.89,116 153.994,116"/>
    <path fill="#5FE0ED" d="M29.994,62 C32.203,62 33.994,63.791 33.994,66 C33.994,68.209 32.203,70 29.994,70 C27.785,70 25.994,68.209 25.994,66 C25.994,63.791 27.785,62 29.994,62"/>
    <path fill="#475059" d="M17.924,133 L44.994,133 L44.994,105.93 L17.924,133 Z M46.994,135 L14.994,135 L14.994,133.102 L45.096,103 L46.994,103 L46.994,135 Z"/>
    <path fill="#475059" d="M31.956,127.193 L39.187,127.193 L39.187,119.962 L31.956,127.193 Z M41.187,129.193 L27.128,129.193 L41.187,115.134 L41.187,129.193 Z"/>
    <path fill="#48515A" d="M98.811,145 L183.994,145 C185.651,145 186.994,143.657 186.994,142 C186.994,140.343 185.651,139 183.994,139 L98.811,139 L92.305,142 L98.811,145 Z M183.994,147 L98.372,147 L87.529,142 L98.372,137 L183.994,137 C186.756,137 188.994,139.239 188.994,142 C188.994,144.761 186.756,147 183.994,147 Z"/>
    <polygon fill="#48515A" points="176.015 146 178.015 146 178.015 138 176.015 138"/>
    <polygon fill="#48515A" points="98.984 143 177.015 143 177.015 141 98.984 141"/>
  </g>
</svg>
