<svg xmlns="http://www.w3.org/2000/svg" xmlns:xlink="http://www.w3.org/1999/xlink" width="193" height="148" viewBox="0 0 193 148">
  <defs>
    <polygon id="cc404-a" points=".026 .04 123.962 .04 123.962 148 .026 148"/>
  </defs>
  <g fill="none" fill-rule="evenodd">
    <path fill="#DEDEDD" d="M109.986,73 L119.295,127 L153.994,127 L155.842,77.148 C155.923,74.941 154.2,73.085 151.992,73.003 C151.943,73.001 151.894,73 151.844,73 L109.986,73"/>
    <polyline fill="#DEDEDD" points="111.177 127 101.868 73 90.12 73 80.811 127 111.177 127"/>
    <path fill="#DEDEDD" d="M82.003,73 L40.144,73 C37.935,73 36.144,74.791 36.144,77 C36.144,77.049 36.145,77.099 36.147,77.148 L37.994,127 L72.694,127 L82.003,73"/>
    <polygon fill="#475059" points="80.993 127.936 110.995 127.936 110.995 125.936 80.993 125.936"/>
    <polyline fill="#475059" points="108.041 148 83.947 148 81.688 140 78.993 140 78.993 138 83.202 138 85.461 146 106.527 146 108.786 138 113.328 138 113.328 140 110.3 140 108.041 148"/>
    <path fill="#DEDEDD" d="M123.994,144 L117.151,144 L117.009,143.17 L102.105,56.717 C101.881,55.417 101.769,54.1 101.769,52.78 C101.792,45.445 106.65,39.004 113.696,36.967 L122.904,34.336 C130.575,32.144 135.017,24.148 132.825,16.477 C131.053,10.276 125.385,6 118.936,6 L73.053,6 C65.074,6 58.607,12.468 58.607,20.447 C58.608,26.896 62.883,32.564 69.084,34.336 L78.292,36.967 C85.338,39.004 90.197,45.445 90.22,52.78 C90.22,54.1 90.107,55.417 89.883,56.717 L74.837,144 L66.993,144 L66.993,142 L73.151,142 L87.912,56.377 C88.117,55.189 88.22,53.986 88.22,52.78 C88.199,46.337 83.932,40.68 77.743,38.89 L68.535,36.259 C59.802,33.764 54.745,24.661 57.24,15.928 C59.257,8.868 65.71,4 73.053,4 L118.936,4 C128.018,4 135.381,11.363 135.381,20.446 C135.381,27.789 130.513,34.242 123.453,36.259 L114.245,38.89 C108.056,40.68 103.789,46.337 103.769,52.78 C103.769,53.986 103.872,55.189 104.076,56.377 L118.837,142 L123.994,142 L123.994,144"/>
    <g transform="translate(34)">
      <mask id="cc404-b" fill="#fff">
        <use xlink:href="#cc404-a"/>
      </mask>
      <path fill="#475059" d="M91.994,148 L79.782,148 L79.64,147.17 L64.164,57.397 C63.901,55.872 63.768,54.327 63.769,52.78 C63.798,43.661 69.837,35.654 78.598,33.121 L87.806,30.49 C93.353,28.904 96.564,23.122 94.979,17.575 C93.697,13.092 89.599,10 84.936,10 L39.053,10 C33.284,10 28.607,14.678 28.607,20.447 C28.608,25.11 31.699,29.208 36.183,30.49 L45.391,33.121 C54.151,35.654 60.191,43.661 60.22,52.78 C60.22,54.328 60.088,55.873 59.824,57.398 L44.206,148 L32.993,148 L32.993,146 L42.521,146 L57.854,57.058 C58.097,55.645 58.22,54.214 58.22,52.78 C58.194,44.553 52.745,37.329 44.842,35.044 L35.634,32.413 C29.025,30.524 25.198,23.636 27.086,17.026 C28.613,11.684 33.496,8 39.053,8 L84.936,8 C91.809,8 97.381,13.573 97.381,20.446 C97.381,26.003 93.697,30.886 88.354,32.413 L79.146,35.044 C71.243,37.329 65.795,44.553 65.769,52.78 C65.769,54.213 65.891,55.644 66.135,57.057 L81.468,146 L91.994,146 L91.994,148" mask="url(#cc404-b)"/>
      <path fill="#475059" d="M2.026,146 L31.883,146 L34.141,138 L35.782,138 L37.518,127.936 L2.026,127.936 L2.026,146 Z M92.105,146 L121.962,146 L121.962,127.936 L86.471,127.936 L88.206,138 L89.848,138 L92.105,146 Z M123.962,148 L90.592,148 L88.334,140 L86.521,140 L72.047,56.037 C71.862,54.961 71.769,53.871 71.769,52.78 C71.786,47.229 75.463,42.355 80.795,40.813 L90.003,38.182 C99.798,35.383 105.47,25.173 102.671,15.378 C100.408,7.46 93.171,2 84.936,2 L39.053,2 C28.865,2 20.607,10.259 20.607,20.447 C20.608,28.682 26.067,35.92 33.985,38.182 L43.193,40.813 C48.526,42.355 52.202,47.229 52.22,52.78 C52.219,53.872 52.126,54.962 51.941,56.038 L37.468,140 L35.654,140 L33.396,148 L0.026,148 L0.026,125.936 L37.862,125.936 L49.971,55.698 C50.136,54.734 50.219,53.758 50.22,52.78 C50.205,48.121 47.12,44.03 42.645,42.736 L33.437,40.105 C22.579,37.003 16.292,25.686 19.394,14.829 C21.902,6.052 29.924,0 39.053,0 L84.936,0 C96.227,0 105.381,9.154 105.381,20.446 C105.381,29.575 99.329,37.597 90.552,40.105 L81.344,42.736 C76.869,44.03 73.783,48.121 73.769,52.78 C73.769,53.757 73.852,54.733 74.018,55.697 L86.126,125.936 L123.962,125.936 L123.962,148 Z" mask="url(#cc404-b)"/>
    </g>
    <polygon fill="#48515A" points="184.107 134.004 186.107 134.004 186.107 130.004 184.107 130.004"/>
    <polygon fill="#48515A" points="184.107 144.004 186.107 144.004 186.107 140.004 184.107 140.004"/>
    <polygon fill="#48515A" points="188.107 138.004 192.107 138.004 192.107 136.004 188.107 136.004"/>
    <polygon fill="#48515A" points="178.107 138.004 182.107 138.004 182.107 136.004 178.107 136.004"/>
    <polygon fill="#48515A" points="125.994 53.956 127.994 53.956 127.994 49.956 125.994 49.956"/>
    <polygon fill="#48515A" points="125.994 63.956 127.994 63.956 127.994 59.956 125.994 59.956"/>
    <polygon fill="#48515A" points="129.994 57.956 133.994 57.956 133.994 55.956 129.994 55.956"/>
    <polygon fill="#48515A" points="119.994 57.956 123.994 57.956 123.994 55.956 119.994 55.956"/>
    <polygon fill="#48515A" points="6 93.98 8 93.98 8 89.98 6 89.98"/>
    <polygon fill="#48515A" points="6 103.98 8 103.98 8 99.98 6 99.98"/>
    <polygon fill="#48515A" points="10 97.98 14 97.98 14 95.98 10 95.98"/>
    <polygon fill="#48515A" points="0 97.98 4 97.98 4 95.98 0 95.98"/>
    <path fill="#5FE0ED" d="M35.953,43.03 C38.162,43.03 39.953,44.821 39.953,47.03 C39.953,49.239 38.162,51.03 35.953,51.03 C33.744,51.03 31.953,49.239 31.953,47.03 C31.953,44.821 33.744,43.03 35.953,43.03"/>
    <path fill="#F58E70" d="M11.97 114.976C13.075 114.976 13.97 115.871 13.97 116.976 13.97 118.081 13.075 118.976 11.97 118.976 10.866 118.976 9.97 118.081 9.97 116.976 9.97 115.871 10.866 114.976 11.97 114.976M177.994 76.976C179.099 76.976 179.994 77.871 179.994 78.976 179.994 80.081 179.099 80.976 177.994 80.976 176.89 80.976 175.994 80.081 175.994 78.976 175.994 77.871 176.89 76.976 177.994 76.976"/>
    <path fill="#475059" d="M147.033,94 L167.033,94 L167.033,73.414 L159.619,66 L147.033,66 L147.033,94 Z M169.033,96 L145.033,96 L145.033,64 L160.447,64 L169.033,72.586 L169.033,96 Z"/>
    <polyline fill="#475059" points="168.033 74 159.033 74 159.033 65 161.033 65 161.033 72 168.033 72 168.033 74"/>
    <polygon fill="#475059" points="150.033 78 154.033 78 154.033 76 150.033 76"/>
    <polygon fill="#475059" points="150.033 82 164.033 82 164.033 80 150.033 80"/>
    <polygon fill="#475059" points="150.033 86 164.033 86 164.033 84 150.033 84"/>
    <polygon fill="#475059" points="150.033 90 158.033 90 158.033 88 150.033 88"/>
    <path fill="#48515A" d="M129.821,110 L182.071,110 C183.728,110 185.071,108.657 185.071,107 C185.071,105.343 183.728,104 182.071,104 L129.821,104 L123.314,107 L129.821,110 Z M182.071,112 L129.382,112 L118.539,107 L129.382,102 L182.071,102 C184.833,102 187.071,104.239 187.071,107 C187.071,109.761 184.833,112 182.071,112 Z"/>
    <polygon fill="#48515A" points="174.092 111 176.092 111 176.092 103 174.092 103"/>
    <polygon fill="#48515A" points="129.994 108 175.092 108 175.092 106 129.994 106"/>
  </g>
</svg>
