<svg xmlns="http://www.w3.org/2000/svg" xmlns:xlink="http://www.w3.org/1999/xlink" width="193" height="157" viewBox="0 0 193 157">
  <defs>
    <polygon id="cc407-a" points=".986 .001 144.01 .001 144.01 34.94 .986 34.94"/>
  </defs>
  <g fill="none" fill-rule="evenodd">
    <path fill="#DEDEDD" d="M157.993,126.778 L157.993,117 L136.992,117 L136.992,123 L147.488,123 C151.324,122.995 155.04,124.332 157.993,126.778"/>
    <polygon fill="#F58E70" points="136.992 38.952 157.993 38.952 157.993 20.952 136.992 20.952"/>
    <polygon fill="#5FE0ED" points="136.992 62.964 157.993 62.964 157.993 44.964 136.992 44.964"/>
    <path fill="#475059" d="M137.992,85.977 L156.993,85.977 L156.993,69.977 L137.992,69.977 L137.992,85.977 Z M135.992,87.977 L158.993,87.977 L158.993,67.977 L135.992,67.977 L135.992,87.977 Z"/>
    <polygon fill="#FFD15D" points="136.992 110.988 157.993 110.988 157.993 92.988 136.992 92.988"/>
    <polyline fill="#475059" points="164.994 139.502 162.994 139.502 162.994 15.999 131.994 15.999 131.994 123.492 129.994 123.492 129.994 13.999 164.994 13.999 164.994 139.502"/>
    <polyline fill="#475059" points="127.992 123.245 125.992 123.245 125.992 13.999 130.978 13.999 130.978 15.999 127.992 15.999 127.992 123.245"/>
    <polyline fill="#475059" points="123.99 122.746 121.99 122.746 121.99 13.999 126.975 13.999 126.975 15.999 123.99 15.999 123.99 122.746"/>
    <polyline fill="#475059" points="119.987 122.494 117.987 122.494 117.987 13.999 122.973 13.999 122.973 15.999 119.987 15.999 119.987 122.494"/>
    <path fill="#475059" d="M103.69 101.454L100.273 105.078C98.494 106.965 98.582 109.938 100.469 111.717 102.356 113.496 105.328 113.409 107.107 111.522 108.813 109.713 108.813 106.887 107.107 105.078L103.69 101.454zM103.69 114.996C99.992 114.996 96.994 111.998 96.994 108.3 96.994 106.592 97.647 104.949 98.818 103.706L103.69 98.539 108.563 103.706C111.099 106.397 110.975 110.635 108.284 113.172 107.041 114.344 105.398 114.996 103.69 114.996zM40.234 23.257C35.266 23.253 31.236 27.277 31.233 32.245 31.231 34.634 32.18 36.926 33.871 38.614L52.861 57.604 65.587 44.878 46.597 25.888C44.91 24.199 42.621 23.252 40.234 23.257zM52.861 60.432L32.456 40.028C28.165 35.73 28.17 28.766 32.469 24.474 36.763 20.187 43.717 20.187 48.011 24.474L68.415 44.878 52.861 60.432zM99.63 98.719L93.924 93.013C91.137 95.095 87.244 94.815 84.784 92.356L55.57 63.141 56.984 61.727 86.198 90.941C88.15 92.893 91.315 92.893 93.267 90.941L93.974 90.234 99.63 95.891 103.872 91.649 98.107 85.884 98.973 85.235C100.879 83.276 100.858 80.149 98.925 78.215L69.71 49.001 71.124 47.587 100.339 76.801C102.795 79.264 103.074 83.155 100.994 85.942L106.7 91.649 99.63 98.719"/>
    <path fill="#475059" d="M49.44,64.09 L50.855,65.504 L73.482,42.877 L72.068,41.462 L49.44,64.09 Z M50.855,68.332 L46.612,64.09 L72.068,38.634 L76.311,42.877 L50.855,68.332 Z"/>
    <path fill="#FFD15D" d="M97.632 83.741C98.684 82.554 98.631 80.753 97.511 79.629L89.877 71.996 70.081 71.996 87.612 89.527C88.799 90.66 90.666 90.66 91.853 89.527L93.974 87.406 99.63 93.062 101.043 91.649 95.062 85.668 97.632 83.741M103.69 104.369L101.729 106.45C100.722 107.509 100.746 109.178 101.784 110.207 102.851 111.225 104.53 111.225 105.597 110.207 106.635 109.178 106.659 107.509 105.652 106.45L103.69 104.369"/>
    <path fill="#F58E70" d="M40.234,25.255 C36.371,25.253 33.236,28.382 33.233,32.246 C33.232,34.104 33.97,35.887 35.285,37.2 L52.861,54.776 L62.759,44.878 L45.183,27.302 C43.871,25.989 42.09,25.252 40.234,25.255"/>
    <polygon fill="#48515A" points="184.107 130 186.107 130 186.107 126 184.107 126"/>
    <polygon fill="#48515A" points="184.107 140 186.107 140 186.107 136 184.107 136"/>
    <polygon fill="#48515A" points="188.107 134 192.107 134 192.107 132 188.107 132"/>
    <polygon fill="#48515A" points="178.107 134 182.107 134 182.107 132 178.107 132"/>
    <polygon fill="#48515A" points="6 82.962 8 82.962 8 78.962 6 78.962"/>
    <polygon fill="#48515A" points="6 92.962 8 92.962 8 88.962 6 88.962"/>
    <polygon fill="#48515A" points="10 86.962 14 86.962 14 84.962 10 84.962"/>
    <polygon fill="#48515A" points="0 86.962 4 86.962 4 84.962 0 84.962"/>
    <polygon fill="#48515A" points="99.976 4.006 101.976 4.006 101.976 .006 99.976 .006"/>
    <polygon fill="#48515A" points="99.976 14.006 101.976 14.006 101.976 10.006 99.976 10.006"/>
    <polygon fill="#48515A" points="103.976 8.006 107.976 8.006 107.976 6.006 103.976 6.006"/>
    <polygon fill="#48515A" points="93.976 8.006 97.976 8.006 97.976 6.006 93.976 6.006"/>
    <path fill="#5FE0ED" d="M29.994,66.999 C32.203,66.999 33.994,68.79 33.994,70.999 C33.994,73.208 32.203,74.999 29.994,74.999 C27.785,74.999 25.994,73.208 25.994,70.999 C25.994,68.79 27.785,66.999 29.994,66.999"/>
    <path fill="#F58E70" d="M11.97 133.976C13.075 133.976 13.97 134.871 13.97 135.976 13.97 137.08 13.075 137.976 11.97 137.976 10.866 137.976 9.97 137.08 9.97 135.976 9.97 134.871 10.866 133.976 11.97 133.976M177.994 67.97C179.099 67.97 179.994 68.865 179.994 69.97 179.994 71.074 179.099 71.97 177.994 71.97 176.89 71.97 175.994 71.074 175.994 69.97 175.994 68.865 176.89 67.97 177.994 67.97"/>
    <path fill="#475059" d="M6.917,115 L33.987,115 L33.987,87.93 L6.917,115 Z M35.987,117 L3.987,117 L3.987,115.102 L34.09,85 L35.987,85 L35.987,117 Z"/>
    <path fill="#475059" d="M20.95,109.194 L28.181,109.194 L28.181,101.962 L20.95,109.194 Z M30.181,111.194 L16.122,111.194 L30.181,97.134 L30.181,111.194 Z"/>
    <polygon fill="#F58E70" points="28.939 150.002 46.939 150.002 46.939 129.002 28.939 129.002"/>
    <polygon fill="#5FE0ED" points="52.951 150.002 70.951 150.002 70.951 129.002 52.951 129.002"/>
    <path fill="#475059" d="M77.963,149.002 L93.963,149.002 L93.963,130.002 L77.963,130.002 L77.963,149.002 Z M75.963,151.002 L95.963,151.002 L95.963,128.002 L75.963,128.002 L75.963,151.002 Z"/>
    <polygon fill="#FFD15D" points="100.976 150.002 118.976 150.002 118.976 129.002 100.976 129.002"/>
    <g transform="translate(21 122)">
      <mask id="cc407-b" fill="#fff">
        <use xlink:href="#cc407-a"/>
      </mask>
      <polygon fill="#DEDEDD" points="103.988 28.002 119.988 28.002 119.988 7.002 103.988 7.002" mask="url(#cc407-b)"/>
      <path fill="#475059" d="M2.986,33.0000131 L126.488,33 C135.048,33.011 141.997,26.081 142.008,17.52 C142.019,8.96 135.089,2.012 126.529,2.001 C126.515,2.001 126.502,2.001 126.488,2.001 L2.986,2.001 L2.986,33.0000131 Z M126.488,35 L0.986,35 L0.986,0.000986216524 L126.488,0.001 C136.153,-0.011 143.998,7.814 144.01,17.478 C144.022,27.143 136.197,34.988 126.532,35 C126.517,35 126.503,35 126.488,35 Z" mask="url(#cc407-b)"/>
    </g>
  </g>
</svg>
