<svg xmlns="http://www.w3.org/2000/svg" width="193" height="164" viewBox="0 0 193 164">
  <g fill="none" fill-rule="evenodd">
    <polyline fill="#48515A" points="59.026 151 21.026 151 21.026 61 23.026 61 23.026 149 57.026 149 57.026 15 23.026 15 23.026 25 21.026 25 21.026 13 59.026 13 59.026 151"/>
    <path fill="#48515A" d="M40.026 126.002C36.16 126.002 33.026 129.136 33.026 133.002 33.026 136.868 36.16 140.002 40.026 140.002 43.892 140.002 47.026 136.868 47.026 133.002 47.022 129.138 43.891 126.006 40.026 126.002zM40.026 142.002C35.056 142.002 31.026 137.973 31.026 133.002 31.026 128.031 35.056 124.002 40.026 124.002 44.997 124.002 49.026 128.031 49.026 133.002 49.021 137.97 44.994 141.996 40.026 142.002zM40.026 24C36.16 24 33.026 27.133 33.026 30.999 33.026 34.866 36.16 37.999 40.026 37.999 43.892 37.999 47.026 34.866 47.026 30.999 47.022 27.135 43.891 24.004 40.026 24zM40.026 39.999C35.056 39.999 31.026 35.97 31.026 30.999 31.026 26.029 35.056 21.999 40.026 21.999 44.997 21.999 49.026 26.029 49.026 30.999 49.021 35.968 44.994 39.994 40.026 39.999z"/>
    <polygon fill="#DEDEDD" points="33.026 60.999 47.028 60.999 47.028 50.999 33.026 50.999"/>
    <polygon fill="#48515A" points="33.027 97.002 47.027 97.002 47.027 95.002 33.027 95.002"/>
    <polygon fill="#48515A" points="33.027 101.002 47.027 101.002 47.027 99.002 33.027 99.002"/>
    <polygon fill="#48515A" points="33.027 105.002 47.027 105.002 47.027 103.002 33.027 103.002"/>
    <path fill="#48515A" d="M40.027 128.002C37.265 128.002 35.026 130.241 35.026 133.002 35.026 135.763 37.265 138.002 40.027 138.002 42.788 138.002 45.027 135.763 45.027 133.002 45.023 130.242 42.786 128.005 40.027 128.002M40.027 25.999C37.265 25.999 35.026 28.238 35.026 30.999 35.026 33.761 37.265 35.999 40.027 35.999 42.788 35.999 45.027 33.761 45.027 30.999 45.023 28.239 42.786 26.003 40.027 25.999"/>
    <path fill="#DEDEDD" d="M40.027 25.999C42.788 25.999 45.027 28.238 45.027 30.999 45.027 33.761 42.788 35.999 40.027 35.999 37.265 35.999 35.026 33.761 35.026 30.999 35.026 28.238 37.265 25.999 40.027 25.999M40.027 128.002C42.788 128.002 45.027 130.241 45.027 133.002 45.027 135.763 42.788 138.002 40.027 138.002 37.265 138.002 35.026 135.763 35.026 133.002 35.026 130.241 37.265 128.002 40.027 128.002"/>
    <path fill="#48515A" d="M63.05,149 L97.05,149 L97.05,15 L63.05,15 L63.05,149 Z M61.05,151 L99.05,151 L99.05,13 L61.05,13 L61.05,151 Z"/>
    <path fill="#48515A" d="M80.05 126.002C76.184 126.002 73.05 129.136 73.05 133.002 73.05 136.868 76.184 140.002 80.05 140.002 83.916 140.002 87.05 136.868 87.05 133.002 87.046 129.138 83.914 126.006 80.05 126.002zM80.05 142.002C75.08 142.002 71.05 137.973 71.05 133.002 71.05 128.031 75.08 124.002 80.05 124.002 85.021 124.002 89.05 128.031 89.05 133.002 89.045 137.97 85.019 141.996 80.05 142.002zM80.05 24C76.184 24 73.05 27.133 73.05 30.999 73.05 34.866 76.184 37.999 80.05 37.999 83.916 37.999 87.05 34.866 87.05 30.999 87.046 27.135 83.914 24.004 80.05 24zM80.05 39.999C75.08 39.999 71.05 35.97 71.05 30.999 71.05 26.029 75.08 21.999 80.05 21.999 85.021 21.999 89.05 26.029 89.05 30.999 89.045 35.968 85.019 39.994 80.05 39.999z"/>
    <polygon fill="#DEDEDD" points="73.05 60.999 87.052 60.999 87.052 50.999 73.05 50.999"/>
    <polygon fill="#48515A" points="73.051 97.002 87.051 97.002 87.051 95.002 73.051 95.002"/>
    <polygon fill="#48515A" points="73.051 101.002 87.051 101.002 87.051 99.002 73.051 99.002"/>
    <polygon fill="#48515A" points="73.051 105.002 87.051 105.002 87.051 103.002 73.051 103.002"/>
    <path fill="#48515A" d="M80.05 128.002C77.289 128.002 75.05 130.241 75.05 133.002 75.05 135.763 77.289 138.002 80.05 138.002 82.812 138.002 85.05 135.763 85.05 133.002 85.047 130.242 82.811 128.005 80.05 128.002M80.05 25.999C77.289 25.999 75.05 28.238 75.05 30.999 75.05 33.761 77.289 35.999 80.05 35.999 82.812 35.999 85.05 33.761 85.05 30.999 85.047 28.239 82.811 26.003 80.05 25.999"/>
    <path fill="#DEDEDD" d="M80.05 25.999C82.812 25.999 85.05 28.238 85.05 30.999 85.05 33.761 82.812 35.999 80.05 35.999 77.289 35.999 75.05 33.761 75.05 30.999 75.05 28.238 77.289 25.999 80.05 25.999M80.05 128.002C82.812 128.002 85.05 130.241 85.05 133.002 85.05 135.763 82.812 138.002 80.05 138.002 77.289 138.002 75.05 135.763 75.05 133.002 75.05 130.241 77.289 128.002 80.05 128.002"/>
    <polygon fill="#48515A" points="169.094 92 171.094 92 171.094 70 169.094 70"/>
    <polyline fill="#48515A" points="171.094 151 101.074 151 101.074 13 171.094 13 171.094 40.008 169.094 40.008 169.094 15 103.074 15 103.074 149 169.094 149 169.094 105.833 171.094 105.833 171.094 151"/>
    <path fill="#48515A" d="M120.074 126.002C116.208 126.002 113.074 129.136 113.074 133.002 113.074 136.868 116.208 140.002 120.074 140.002 123.94 140.002 127.074 136.868 127.074 133.002 127.07 129.138 123.938 126.006 120.074 126.002zM120.074 142.002C115.104 142.002 111.074 137.973 111.074 133.002 111.074 128.031 115.104 124.002 120.074 124.002 125.045 124.002 129.074 128.031 129.074 133.002 129.068 137.97 125.042 141.996 120.074 142.002zM31.026 115.005L49.026 115.005 49.026 48.999 31.026 48.999 31.026 115.005zM29.026 117.005L51.026 117.005 51.026 46.999 29.026 46.999 29.026 117.005zM71.05 115.005L89.05 115.005 89.05 48.999 71.05 48.999 71.05 115.005zM69.05 117.005L91.05 117.005 91.05 46.999 69.05 46.999 69.05 117.005zM111.074 115.005L129.074 115.005 129.074 48.999 111.074 48.999 111.074 115.005zM109.074 117.005L131.074 117.005 131.074 46.999 109.074 46.999 109.074 117.005zM120.074 24C116.208 24 113.074 27.133 113.074 30.999 113.074 34.866 116.208 37.999 120.074 37.999 123.94 37.999 127.074 34.866 127.074 30.999 127.07 27.135 123.938 24.004 120.074 24zM120.074 39.999C115.104 39.999 111.074 35.97 111.074 30.999 111.074 26.029 115.104 21.999 120.074 21.999 125.045 21.999 129.074 26.029 129.074 30.999 129.068 35.968 125.042 39.994 120.074 39.999z"/>
    <polygon fill="#DEDEDD" points="113.074 60.999 127.076 60.999 127.076 50.999 113.074 50.999"/>
    <polygon fill="#48515A" points="113.075 97.002 127.075 97.002 127.075 95.002 113.075 95.002"/>
    <polygon fill="#48515A" points="113.075 101.002 127.075 101.002 127.075 99.002 113.075 99.002"/>
    <polygon fill="#48515A" points="113.075 105.002 127.075 105.002 127.075 103.002 113.075 103.002"/>
    <path fill="#48515A" d="M120.074 128.002C117.313 128.002 115.074 130.241 115.074 133.002 115.074 135.763 117.313 138.002 120.074 138.002 122.836 138.002 125.074 135.763 125.074 133.002 125.071 130.242 122.835 128.005 120.074 128.002M120.074 25.999C117.313 25.999 115.074 28.238 115.074 30.999 115.074 33.761 117.313 35.999 120.074 35.999 122.836 35.999 125.074 33.761 125.074 30.999 125.071 28.239 122.835 26.003 120.074 25.999"/>
    <path fill="#DEDEDD" d="M120.074 25.999C122.836 25.999 125.074 28.238 125.074 30.999 125.074 33.761 122.836 35.999 120.074 35.999 117.313 35.999 115.074 33.761 115.074 30.999 115.074 28.238 117.313 25.999 120.074 25.999M120.074 128.002C122.836 128.002 125.074 130.241 125.074 133.002 125.074 135.763 122.836 138.002 120.074 138.002 117.313 138.002 115.074 135.763 115.074 133.002 115.074 130.241 117.313 128.002 120.074 128.002"/>
    <polygon fill="#DEDEDD" points="137.027 146.999 167.027 146.999 167.027 16.999 137.027 16.999"/>
    <polygon fill="#48515A" points="184.107 153.032 186.107 153.032 186.107 149.032 184.107 149.032"/>
    <polygon fill="#48515A" points="184.107 163.032 186.107 163.032 186.107 159.032 184.107 159.032"/>
    <polygon fill="#48515A" points="188.107 157.032 192.107 157.032 192.107 155.032 188.107 155.032"/>
    <polygon fill="#48515A" points="178.107 157.032 182.107 157.032 182.107 155.032 178.107 155.032"/>
    <polygon fill="#48515A" points="175.102 5.944 177.102 5.944 177.102 1.944 175.102 1.944"/>
    <polygon fill="#48515A" points="175.102 15.944 177.102 15.944 177.102 11.944 175.102 11.944"/>
    <polygon fill="#48515A" points="179.102 9.944 183.102 9.944 183.102 7.944 179.102 7.944"/>
    <polygon fill="#48515A" points="169.102 9.944 173.102 9.944 173.102 7.944 169.102 7.944"/>
    <polygon fill="#48515A" points="6 85.992 8 85.992 8 81.992 6 81.992"/>
    <polygon fill="#48515A" points="6 95.992 8 95.992 8 91.992 6 91.992"/>
    <polygon fill="#48515A" points="10 89.992 14 89.992 14 87.992 10 87.992"/>
    <polygon fill="#48515A" points="0 89.992 4 89.992 4 87.992 0 87.992"/>
    <path fill="#48515A" d="M168.783,65.995 L171.45,65.995 L176.083,54.876 L174.27,43.994 L165.962,43.994 L164.15,54.876 L168.783,65.995 Z M172.783,67.995 L167.45,67.995 L162.083,55.114 L164.268,41.994 L175.964,41.994 L178.15,55.114 L172.783,67.995 Z"/>
    <polygon fill="#48515A" points="169.117 66.999 171.117 66.999 171.117 52.995 169.117 52.995"/>
    <polyline fill="#48515A" points="178.116 43.994 162.116 43.994 162.116 35.993 164.116 35.993 164.116 41.994 176.116 41.994 176.116 35.993 178.116 35.993 178.116 43.994"/>
    <path fill="#48515A" d="M8.997,56.999 L23.126,56.999 L24.064,42.933 L24.063,40.999 L8.061,40.999 L8.061,42.999 L8.997,56.999 Z M24.997,58.999 L7.125,58.999 L6.063,43.065 L6.061,38.999 L26.062,38.999 L26.062,42.999 L24.997,58.999 Z"/>
    <path fill="#48515A" d="M23.061,40.001 L21.061,40.001 L21.061,29 L19.061,29 L19.061,40.001 L17.061,40.001 L17.061,29 C17.062,27.896 17.957,27.001 19.061,27 L21.061,27 C22.165,27.001 23.06,27.896 23.061,29 L23.061,40.001"/>
    <polygon fill="#48515A" points="18.061 33 22.061 33 22.061 31 18.061 31"/>
    <polyline fill="#48515A" points="15.061 40.001 13.061 40.001 13.061 32.305 12.061 30.804 11.061 32.305 11.061 40.001 9.061 40.001 9.061 31.7 12.061 27.197 15.061 31.7 15.061 40.001"/>
    <polygon fill="#48515A" points="11.061 47 13.061 47 13.061 45 11.061 45"/>
    <polygon fill="#48515A" points="15.061 47 17.061 47 17.061 45 15.061 45"/>
    <polygon fill="#48515A" points="19.061 47 21.061 47 21.061 45 19.061 45"/>
    <path fill="#48515A" d="M149.937,102 L185.09,102 C186.747,102 188.09,100.657 188.09,99 C188.09,97.343 186.747,96 185.09,96 L149.937,96 L143.431,99 L149.937,102 Z M185.09,104 L149.498,104 L138.654,99 L149.498,94 L185.09,94 C187.851,94 190.09,96.239 190.09,99 C190.09,101.761 187.851,104 185.09,104 Z"/>
    <polygon fill="#48515A" points="177.11 103 179.11 103 179.11 95 177.11 95"/>
    <polygon fill="#48515A" points="150.11 100 178.11 100 178.11 98 150.11 98"/>
    <path fill="#5FE0ED" d="M104.06,0 C105.165,0 106.06,0.895 106.06,2 C106.06,3.105 105.165,4 104.06,4 C102.955,4 102.06,3.105 102.06,2 C102.06,0.895 102.955,0 104.06,0"/>
    <path fill="#F58E70" d="M52.06 160C53.165 160 54.06 160.895 54.06 162 54.06 163.105 53.165 164 52.06 164 50.955 164 50.06 163.105 50.06 162 50.06 160.895 50.955 160 52.06 160M178.06 122C179.165 122 180.06 122.895 180.06 124 180.06 125.105 179.165 126 178.06 126 176.955 126 176.06 125.105 176.06 124 176.06 122.895 176.955 122 178.06 122M27.026 119.005L53.026 119.005 53.026 44.999 27.026 44.999 27.026 119.005zM40.027 144.002C33.951 144.002 29.027 139.077 29.027 133.002 29.027 126.927 33.951 122.002 40.027 122.002 46.102 122.002 51.027 126.927 51.027 133.002 51.02 139.074 46.099 143.995 40.027 144.002zM40.027 19.999C46.102 19.999 51.027 24.924 51.027 30.999 51.027 37.075 46.102 41.999 40.027 41.999 33.951 41.999 29.027 37.075 29.027 30.999 29.033 24.927 33.954 20.006 40.027 19.999zM25.027 147L55.027 147 55.027 17 25.027 17 25.027 147z"/>
    <path fill="#5FE0ED" d="M67.05,119.005 L93.05,119.005 L93.05,44.999 L67.05,44.999 L67.05,119.005 Z M80.05,144.002 C73.975,144.002 69.05,139.077 69.05,133.002 C69.05,126.927 73.975,122.002 80.05,122.002 C86.126,122.002 91.05,126.927 91.05,133.002 C91.044,139.074 86.123,143.995 80.05,144.002 Z M80.05,19.999 C86.126,19.999 91.05,24.924 91.05,30.999 C91.05,37.075 86.126,41.999 80.05,41.999 C73.975,41.999 69.05,37.075 69.05,30.999 C69.057,24.927 73.978,20.006 80.05,19.999 Z M65.05,147 L95.05,147 L95.05,17 L65.05,17 L65.05,147 Z"/>
  </g>
</svg>
