<svg xmlns="http://www.w3.org/2000/svg" xmlns:xlink="http://www.w3.org/1999/xlink" width="193" height="173" viewBox="0 0 193 173">
  <defs>
    <polygon id="cc410-a" points=".994 0 118.994 0 118.994 11.94 .994 11.94"/>
  </defs>
  <g fill="none" fill-rule="evenodd">
    <g transform="translate(33 1)">
      <polygon fill="#DEDEDD" points=".994 140 124.994 140 124.994 132 .994 132"/>
      <path fill="#475059" d="M50.352,99.355 L75.448,99.355 L75.448,81.735 C75.424,72.988 78.901,64.595 85.104,58.426 L85.293,58.237 C98.307,45.223 98.671,24.317 86.104,11.635 C73.458,-1.128 52.86,-1.223 40.097,11.422 C40.026,11.493 39.955,11.564 39.885,11.635 C27.317,24.317 27.682,45.223 40.696,58.238 C46.899,64.406 50.376,72.8 50.352,81.547 L50.352,99.355 Z M77.448,101.354 L48.352,101.354 L48.352,81.547 C48.374,73.331 45.108,65.446 39.282,59.652 C25.491,45.861 25.124,23.689 38.465,10.227 C51.888,-3.321 73.752,-3.421 87.299,10.002 C87.374,10.076 87.449,10.151 87.523,10.227 C100.864,23.689 100.497,45.861 86.706,59.652 L86.517,59.841 C80.691,65.635 77.426,73.519 77.448,81.735 L77.448,101.354 Z"/>
    </g>
    <path fill="#475059" d="M29.994,132.354 L161.994,132.354 L161.994,119.354 C161.99,115.49 158.858,112.359 154.994,112.354 L36.994,112.354 C33.13,112.359 29.999,115.49 29.994,119.354 L29.994,132.354 Z M163.994,134.354 L27.994,134.354 L27.994,119.354 C28,114.386 32.026,110.36 36.994,110.354 L154.994,110.354 C159.962,110.36 163.989,114.386 163.994,119.354 L163.994,134.354 Z"/>
    <path fill="#475059" d="M54.994,110.354 L136.994,110.354 L136.994,103.354 C136.994,102.802 136.546,102.355 135.994,102.354 L55.994,102.354 C55.442,102.355 54.995,102.802 54.994,103.354 L54.994,110.354 Z M138.994,112.354 L52.994,112.354 L52.994,103.354 C52.996,101.698 54.338,100.356 55.994,100.355 L135.994,100.355 C137.65,100.356 138.992,101.698 138.994,103.354 L138.994,112.354 Z"/>
    <polygon fill="#DEDEDD" points="56.994 108.354 134.994 108.354 134.994 104.354 56.994 104.354"/>
    <path fill="#DEDEDD" d="M85.352,98.355 L106.448,98.355 L106.448,82.735 C106.423,73.457 110.111,64.555 116.689,58.012 L116.881,57.821 C129.116,45.585 129.478,25.945 117.683,14.043 C105.816,2.064 86.485,1.974 74.507,13.841 C74.44,13.908 74.372,13.975 74.306,14.043 C62.511,25.945 62.872,45.585 75.11,57.824 C81.689,64.366 85.377,73.269 85.352,82.547 L85.352,98.355"/>
    <path fill="#F58E70" d="M154.994,114.354 L36.994,114.354 C34.234,114.358 31.997,116.594 31.994,119.354 L31.994,130.354 L159.994,130.354 L159.994,119.354 C159.991,116.594 157.754,114.358 154.994,114.354"/>
    <polygon fill="#5FE0ED" points="35.994 157 67.994 157 67.994 153 35.994 153"/>
    <polygon fill="#5FE0ED" points="71.994 157 141.994 157 141.994 153 71.994 153"/>
    <g transform="translate(37 161)">
      <mask id="cc410-b" fill="#fff">
        <use xlink:href="#cc410-a"/>
      </mask>
      <polygon fill="#5FE0ED" points="34.994 4 118.994 4 118.994 0 34.994 0" mask="url(#cc410-b)"/>
      <polygon fill="#5FE0ED" points="34.994 11.94 98.994 11.94 98.994 8 34.994 8" mask="url(#cc410-b)"/>
      <path fill="#5FE0ED" d="M6.994 0C10.308 0 12.994 2.687 12.994 6 12.994 9.314 10.308 12 6.994 12 3.68 12 .994 9.314.994 6 .994 2.687 3.68 0 6.994 0M20.994 0C24.308 0 26.994 2.687 26.994 6 26.994 9.314 24.308 12 20.994 12 17.68 12 14.994 9.314 14.994 6 14.994 2.687 17.68 0 20.994 0" mask="url(#cc410-b)"/>
    </g>
    <polygon fill="#48515A" points="184.107 105 186.107 105 186.107 101 184.107 101"/>
    <polygon fill="#48515A" points="184.107 115 186.107 115 186.107 111 184.107 111"/>
    <polygon fill="#48515A" points="188.107 109 192.107 109 192.107 107 188.107 107"/>
    <polygon fill="#48515A" points="178.107 109 182.107 109 182.107 107 178.107 107"/>
    <polygon fill="#48515A" points="6 123 8 123 8 119 6 119"/>
    <polygon fill="#48515A" points="6 133 8 133 8 129 6 129"/>
    <polygon fill="#48515A" points="10 127 14 127 14 125 10 125"/>
    <polygon fill="#48515A" points="0 127 4 127 4 125 0 125"/>
    <polygon fill="#48515A" points="29.994 51.001 31.994 51.001 31.994 47.001 29.994 47.001"/>
    <polygon fill="#48515A" points="29.994 61.001 31.994 61.001 31.994 57.001 29.994 57.001"/>
    <polygon fill="#48515A" points="33.994 55.001 37.994 55.001 37.994 53.001 33.994 53.001"/>
    <polygon fill="#48515A" points="23.994 55.001 27.994 55.001 27.994 53.001 23.994 53.001"/>
    <path fill="#5FE0ED" d="M48.953,71.055 C51.162,71.055 52.953,72.845 52.953,75.055 C52.953,77.264 51.162,79.054 48.953,79.054 C46.744,79.054 44.953,77.264 44.953,75.055 C44.953,72.845 46.744,71.055 48.953,71.055"/>
    <path fill="#F58E70" d="M24.97,143 C26.075,143 26.97,143.896 26.97,145 C26.97,146.105 26.075,147 24.97,147 C23.866,147 22.97,146.105 22.97,145 C22.97,143.896 23.866,143 24.97,143"/>
    <path fill="#475059" d="M145.819,83.998 C142.502,84 139.811,81.312 139.809,77.994 C139.808,76.4 140.441,74.87 141.568,73.743 L158.148,57.17 C159.721,55.614 162.258,55.628 163.814,57.201 C165.358,58.762 165.358,61.275 163.813,62.836 L146.524,80.116 L145.11,78.701 L162.399,61.421 C163.181,60.636 163.178,59.367 162.393,58.585 C161.61,57.806 160.345,57.806 159.562,58.586 L142.982,75.157 C141.419,76.726 141.423,79.264 142.991,80.828 C144.556,82.388 147.089,82.387 148.653,80.827 L165.233,64.255 C167.582,61.907 167.581,58.099 165.233,55.751 C162.884,53.403 159.077,53.403 156.728,55.752 L139.44,73.032 L138.026,71.617 L155.314,54.338 C158.445,51.21 163.519,51.212 166.647,54.343 C169.773,57.472 169.773,62.541 166.647,65.67 L150.067,82.242 C148.941,83.368 147.412,84 145.819,83.998"/>
  </g>
</svg>
