<?xml version="1.0" encoding="utf-8"?><svg xmlns="http://www.w3.org/2000/svg" width="100" height="100" viewBox="0 0 100 100"><g fill="#2982A0" transform="translate(13 13)"><path d="M37.938 52.875c-3.907 0-7.814-1.612-10.572-4.375C24.61 45.737 23 41.823 23 37.91c0-3.915 1.609-7.829 4.366-10.592 5.746-5.756 15.397-5.756 21.143 0 2.757 2.763 4.366 6.677 4.366 10.592 0 3.914-1.609 7.828-4.366 10.591-2.758 2.763-6.665 4.375-10.572 4.375zm0-23.025c-2.069 0-4.137.69-5.746 2.302-1.608 1.612-2.298 3.454-2.298 5.757 0 2.072.92 4.144 2.298 5.756 2.988 2.993 8.273 2.993 11.26 0 1.61-1.612 2.299-3.454 2.299-5.756 0-2.073-.92-4.145-2.298-5.757-1.379-1.611-3.447-2.302-5.516-2.302z"/><path stroke="#2982A0" stroke-width="2" d="M37.5 75l-1.025-6.299c-.293-2.197-1.905-3.222-3.37-3.369-1.464-.293-3.222.293-4.248 2.197l-2.93 5.567-10.546-5.42 2.93-5.567c1.025-1.904.293-3.662-.733-4.687-1.025-1.026-2.783-1.758-4.687-.733l-5.567 2.93-5.42-10.4 5.567-2.93c1.904-1.025 2.343-2.783 2.197-4.248-.293-1.465-1.172-3.076-3.37-3.37L0 37.647l1.904-11.718 6.3 1.025c2.196.293 3.661-.879 4.247-2.197.586-1.319.733-3.223-.732-4.688l-4.395-4.54 8.35-8.35 4.394 4.54c1.612 1.612 3.516 1.466 4.688.733 1.318-.586 2.49-2.05 2.197-4.248l-1.025-6.299L37.646 0l1.026 6.299c.293 2.197 1.904 3.222 3.369 3.369 1.465.293 3.223-.293 4.248-2.197l2.93-5.567 10.547 5.42-2.93 5.567c-1.025 1.904-.293 3.662.732 4.687 1.026 1.026 2.784 1.758 4.688.733l5.566-2.93 5.274 10.4-5.567 2.93c-1.904 1.025-2.343 2.783-2.197 4.248.293 1.465 1.172 3.076 3.37 3.37L75 37.353l-1.904 11.718-6.3-1.025c-2.196-.293-3.661.879-4.247 2.197-.586 1.319-.733 3.223.732 4.688l4.395 4.54-8.35 8.35-4.394-4.54c-1.612-1.612-3.516-1.466-4.688-.733-1.318.586-2.49 2.05-2.197 4.248l1.025 6.299L37.5 75zm-5.127-12.598c.44 0 .732 0 1.172.147 3.076.44 5.273 2.783 5.86 5.86l.585 3.368 5.86-.879-.586-3.369c-.44-3.076 1.025-5.86 3.808-7.324 2.783-1.465 6.006-.879 8.203 1.318l2.344 2.344 4.248-4.248-2.344-2.344c-2.197-2.197-2.636-5.42-1.318-8.203 1.465-2.783 4.248-4.248 7.324-3.662l3.37.586.878-5.86-3.369-.585c-3.076-.44-5.273-2.783-5.86-5.86-.439-3.076 1.026-5.859 3.81-7.324l3.076-1.465-2.637-5.127-3.076 1.465c-2.783 1.465-6.006.88-8.203-1.318-2.198-2.197-2.637-5.42-1.319-8.203l1.612-3.076-5.274-2.637-1.611 3.076c-1.465 2.783-4.248 4.248-7.324 3.662-3.077-.44-5.274-2.783-5.86-5.86l-.586-3.368-5.86.879.587 3.369c.44 3.076-1.026 5.859-3.809 7.324-2.783 1.465-6.006.879-8.203-1.318l-2.344-2.344-4.248 4.248 2.344 2.344c2.197 2.197 2.637 5.42 1.318 8.203-1.464 2.783-4.248 4.248-7.324 3.662l-3.369-.586-.879 5.86 3.37.585c3.075.44 5.273 2.783 5.859 5.86.44 3.076-1.026 5.859-3.809 7.324L5.713 50.39l2.637 5.127 3.076-1.465c2.783-1.465 6.006-.88 8.203 1.318 2.197 2.197 2.637 5.42 1.318 8.203l-1.611 3.076 5.273 2.637 1.612-3.076c1.318-2.49 3.662-3.809 6.152-3.809z"/></g></svg>