<?xml version="1.0" encoding="utf-8"?><svg xmlns="http://www.w3.org/2000/svg" width="100" height="100" viewBox="0 0 100 100"><g fill="#2982A0" fill-rule="evenodd" transform="translate(13 13)"><path d="M4.596 45.401v.276a7.08 7.08 0 0 0 2.017 4.982 6.736 6.736 0 0 0 4.853 2.056h.011l1.68-.002c3.78-.007 6.857-3.165 6.857-7.039v-.273l-7.71-22.06-7.708 22.06zm6.868 12.02c-3.056 0-5.933-1.218-8.098-3.433C1.197 51.77 0 48.818 0 45.677v-1.092l12.305-35.21 12.304 35.21v1.09c0 6.464-5.133 11.733-11.445 11.745l-1.68.002h-.02z"/><path d="M2.344 46.875h19.922v-4.687H2.344zM37.601 14.063l-7.889-9.207H0V0h31.816l5.785 6.747L43.383 0H75v4.856H45.487l-7.886 9.207M28.123 75h-4.685v-5.545l7.033-7.089V19.922h4.685v44.399l-7.033 7.089V75M51.563 75h-4.689v-3.599l-7.03-7.08V19.922h4.688v42.444l7.031 7.08V75"/><path d="M30.469 14.063h16.406V9.375H30.469zM54.995 44.992a6.961 6.961 0 0 0 2.009 4.566 6.772 6.772 0 0 0 4.855 2.035h.011l1.678-.002c3.658-.007 6.659-2.934 6.847-6.6l-7.697-22.547-7.703 22.548zm6.862 11.258a11.318 11.318 0 0 1-8.1-3.395 11.632 11.632 0 0 1-3.366-8.224v-.392L62.698 8.203 75 44.235v.391c0 6.396-5.133 11.61-11.445 11.622l-1.678.002h-.02z"/><path d="M52.734 46.875h19.922v-4.687H52.734zM30.469 22.266h16.406v-4.688H30.469zM32.813 65.625h9.375v-4.687h-9.375z"/></g></svg>