<?xml version="1.0" encoding="utf-8"?><svg xmlns="http://www.w3.org/2000/svg" width="250" height="250" viewBox="0 0 250 250"><g fill="none" fill-rule="evenodd"><path fill="#5FE0ED" d="M74.021 129.894c-8.218-15.914-8.521-34.428-.807-49.525a53.91 53.91 0 0 1 12.729-16.283c10.145-8.799 23.154-13.645 36.636-13.645 13.48 0 26.491 4.846 36.636 13.644a54.969 54.969 0 0 1 2.116 1.949 55.289 55.289 0 0 1 3.111 3.109c4.205 4.546 7.404 10.387 9.271 16.96.185.654.333 1.316.488 1.977h8.185a52.259 52.259 0 0 0-.995-4.235c-2.188-7.708-6.017-14.67-11.072-20.138a63.604 63.604 0 0 0-3.494-3.494 61.194 61.194 0 0 0-2.365-2.174c-11.601-10.062-26.475-15.603-41.881-15.603-15.407 0-30.281 5.541-41.881 15.603-6.036 5.236-10.952 11.523-14.613 18.689-8.884 17.389-8.576 38.637.825 56.84 2.704 5.236 5.181 12.46 7.269 20.8h8.257c-2.341-9.756-5.214-18.276-8.415-24.474"/><path fill="#475059" d="M146.394 212.563l-3.112-24.356c0-3.972 3.232-7.204 7.203-7.204h18.471c3.773 0 6.85-3.075 6.861-6.856l.016-6.701c.005-1.303.449-2.043.877-2.759.29-.483.587-.981.827-1.77.019-.431.002-2.317-.026-3.999l-.007-.413 2.78-2.89-1.34-2.679v-.236c0-1.806 1.18-3.511 2.806-4.052l.153-.051h4.024c1.088 0 2.057-.411 2.657-1.127.833-.994 1.017-2.327.479-3.478-2.142-4.589-7.397-16.17-9.947-24.604-.538-1.78-.791-3.535-.75-5.22l-.004-16.248a46.27 46.27 0 0 0-1.762-12.637c-1.996-7.027-5.431-13.288-9.954-18.179a58.943 58.943 0 0 0-3.28-3.277 57.05 57.05 0 0 0-2.183-2.009c-10.692-9.273-24.402-14.38-38.604-14.38-14.203 0-27.913 5.107-38.604 14.38-5.547 4.811-10.067 10.593-13.435 17.185-8.152 15.957-7.848 35.497.814 52.268 8.336 16.141 14.394 48.559 14.403 77.083l.102 4.058-1.999.049-.102-4.082c-.01-28.267-5.974-60.299-14.181-76.19-8.957-17.343-9.262-37.566-.818-54.096a58.876 58.876 0 0 1 13.906-17.785c11.055-9.589 25.23-14.87 39.914-14.87 14.683 0 28.859 5.281 39.914 14.87a57.205 57.205 0 0 1 2.245 2.064 60.732 60.732 0 0 1 3.377 3.375c4.735 5.12 8.327 11.661 10.388 18.917a48.367 48.367 0 0 1 1.859 13.255l.004 16.273c-.036 1.496.187 3.041.664 4.617 2.512 8.31 7.722 19.788 9.845 24.337.871 1.863.58 4.012-.758 5.608-.981 1.171-2.509 1.843-4.19 1.843h-3.68c-.691.298-1.213 1.064-1.292 1.887l1.749 3.5-3.186 3.313c.06 3.767.011 3.932-.035 4.092-.315 1.086-.726 1.773-1.056 2.324-.368.616-.591.987-.594 1.741l-.016 6.699c-.014 4.88-3.989 8.85-8.861 8.85h-18.471a5.21 5.21 0 0 0-5.202 5.143l3.094 24.164-1.983.253"/><path fill="#2B2B2B" d="M174.675 162.004"/><path fill="#F58E70" d="M123.331 112.424h5v-25h-5v25zm2.5 7.5a2.5 2.5 0 1 1 .002-5.002 2.5 2.5 0 0 1-.002 5.002zm.7-52.5c-20.324 0-36.8 16.476-36.8 36.8 0 13.948 7.761 26.083 19.2 32.325v10.875l7.746-7.746a36.773 36.773 0 0 0 9.854 1.346c20.324 0 36.8-16.476 36.8-36.8 0-20.324-16.476-36.8-36.8-36.8z"/><path fill="#48515A" d="M213 189.437h2v-4h-2zM213 199.437h2v-4h-2zM217 193.437h4v-2h-4zM207 193.437h4v-2h-4zM35 141.437h2v-4h-2zM35 151.437h2v-4h-2zM39 145.437h4v-2h-4zM29 145.437h4v-2h-4zM191 41.436h2v-4h-2zM191 51.436h2v-4h-2zM195 45.436h4v-2h-4zM185 45.436h4v-2h-4z"/><path fill="#5FE0ED" d="M210.317 133.709a3.317 3.317 0 1 1-6.634 0 3.317 3.317 0 0 1 6.634 0m-154.5-68.286a3.317 3.317 0 1 1-6.634 0 3.317 3.317 0 0 1 6.634 0"/><path fill="#F58E70" d="M164.835 198.437a1 1 0 1 1-2 0 1 1 0 0 1 2 0m-110.335-13a2 2 0 1 1-4 0 2 2 0 0 1 4 0"/></g></svg>