<?xml version="1.0" encoding="utf-8"?><svg xmlns="http://www.w3.org/2000/svg" width="250" height="250" viewBox="0 0 250 250"><g fill="none" fill-rule="evenodd"><path fill="#E9886C" d="M212.084 121.024h-14l6.005 6.005h14l-6.005-6.005M212.089 117.024l6-6h-14l-6 6h14M125.088 121.024v-4h7.224c-.877-3.169-3.774-5.5-7.222-5.5a7.5 7.5 0 0 0-7.5 7.5 7.5 7.5 0 0 0 7.5 7.5c3.448 0 6.345-2.33 7.222-5.5h-7.224"/><path fill="#E9886C" d="M142.551 121.024c-.994 8.768-8.428 15.583-17.461 15.583-9.711 0-17.584-7.872-17.584-17.583 0-9.711 7.873-17.583 17.584-17.583 9.033 0 16.467 6.815 17.461 15.583h10.126c-1.026-14.345-12.981-25.667-27.587-25.667-15.28 0-27.667 12.387-27.667 27.667 0 15.28 12.387 27.667 27.667 27.667 14.606 0 26.56-11.322 27.586-25.667h-10.125"/><path fill="#E9886C" d="M162.786 121.024c-1.04 19.919-17.519 35.75-37.696 35.75-20.849 0-37.75-16.901-37.75-37.75 0-20.848 16.901-37.75 37.75-37.75 20.177 0 36.656 15.832 37.696 35.75h10.086c-1.049-25.489-22.036-45.833-47.782-45.833-26.418 0-47.834 21.415-47.834 47.833s21.416 47.833 47.834 47.833c25.746 0 46.733-20.344 47.782-45.833h-10.086"/><path fill="#E9886C" d="M182.956 121.024c-1.057 31.059-26.551 55.917-57.866 55.917-31.987 0-57.917-25.93-57.917-57.917 0-31.986 25.93-57.917 57.917-57.917 31.315 0 56.81 24.859 57.866 55.917h10.083c-1.061-36.628-31.065-66-67.949-66-37.556 0-68 30.445-68 68 0 37.556 30.444 68 68 68 36.884 0 66.888-29.372 67.949-66h-10.083"/><path fill="#D3665D" d="M67.332 138.615c0-5.806-4.218-10.615-9.755-11.561a67.532 67.532 0 0 0 5.738 20.389c2.457-2.152 4.017-5.305 4.017-8.828m107.223 27.043l-7.13-7.13a58.489 58.489 0 0 1-2.829 2.828l7.13 7.13a67.969 67.969 0 0 0 2.829-2.828m-14.26-14.26l-7.137-7.136a37.917 37.917 0 0 1-2.828 2.828l7.136 7.136a48.064 48.064 0 0 0 2.829-2.828m-14.283-14.283l-7.163-7.163a17.686 17.686 0 0 1-2.828 2.83l7.163 7.162a27.87 27.87 0 0 0 2.828-2.829"/><path fill="#DBDBD5" d="M157.466 154.226l7.13 7.13a58.489 58.489 0 0 0 2.829-2.828l-7.13-7.13a48.064 48.064 0 0 1-2.829 2.828m-14.282-14.282l7.146 7.146a37.917 37.917 0 0 0 2.828-2.828l-7.146-7.147a27.87 27.87 0 0 1-2.828 2.829m-14.399-14.398l7.236 7.236a17.686 17.686 0 0 0 2.828-2.83l-7.236-7.236a7.519 7.519 0 0 1-2.828 2.83"/><path fill="#434A4F" d="M125.09 127.524c-4.687 0-8.5-3.813-8.5-8.5 0-4.687 3.813-8.5 8.5-8.5a1 1 0 0 1 0 2 6.508 6.508 0 0 0-6.5 6.5c0 3.584 2.916 6.5 6.5 6.5a1 1 0 0 1 0 2M220.504 128.024h-16.827l-6.293-6.293 1.414-1.414 5.707 5.707h11.171l-4.293-4.293 1.414-1.414 7.707 7.707M192.728 201.499l2.857.927.538-1.657c.563-1.733 2.103-2.852 3.924-2.853h.002c1.821 0 3.361 1.119 3.924 2.851l.539 1.656 2.856-.929-.539-1.657c-.563-1.732.025-3.543 1.498-4.614 1.474-1.071 3.378-1.073 4.852-.002l1.41 1.024 1.764-2.431-1.409-1.023c-1.475-1.07-2.064-2.881-1.501-4.614.562-1.732 2.102-2.852 3.923-2.853h1.743l-.001-3.004-1.742.001h-.001c-1.821 0-3.362-1.119-3.925-2.851-.563-1.732.025-3.543 1.498-4.615l1.408-1.024-1.716-2.361-1.41 1.024c-1.471 1.071-3.376 1.073-4.851.002-1.474-1.07-2.064-2.881-1.501-4.614l.538-1.656-2.857-.928-.538 1.658c-.562 1.732-2.103 2.852-3.924 2.853h-.002c-1.821 0-3.361-1.119-3.924-2.85l-.539-1.657-2.856.929.539 1.657c.563 1.732-.024 3.543-1.498 4.614-1.473 1.072-3.378 1.074-4.851.002l-1.41-1.023-1.765 2.431 1.41 1.023c1.474 1.07 2.064 2.881 1.502 4.614-.563 1.732-2.103 2.852-3.924 2.853l-1.742.001.001 3.003 1.741-.001h.002c1.821 0 3.362 1.119 3.925 2.851.563 1.732-.024 3.543-1.498 4.614l-1.409 1.025 1.716 2.359 1.409-1.024c1.474-1.072 3.378-1.072 4.851-.002 1.475 1.07 2.064 2.881 1.501 4.614l-.538 1.657zm4.142 3.447l-6.661-2.162 1.155-3.559c.352-1.084-.169-1.939-.773-2.378-.605-.44-1.579-.671-2.501.001l-3.026 2.2-4.069-5.594 3.027-2.201c.922-.67 1.003-1.668.772-2.378-.231-.711-.884-1.47-2.023-1.47h-.001l-3.741.002-.003-7.003 3.742-.002c1.139-.001 1.791-.76 2.022-1.47.231-.711.149-1.709-.774-2.379l-3.027-2.198 4.113-5.667 3.029 2.198c.92.669 1.895.438 2.5-.001s1.125-1.295.772-2.378l-1.158-3.559 6.66-2.166 1.158 3.558c.352 1.083 1.276 1.469 2.022 1.469h.001c.747 0 1.671-.387 2.023-1.471l1.155-3.559 6.661 2.161-1.155 3.56c-.351 1.084.169 1.938.774 2.377.603.439 1.578.668 2.501-.001l3.026-2.2 4.069 5.596-3.026 2.201c-.922.67-1.003 1.668-.772 2.379.231.71.884 1.469 2.023 1.469l3.742-.002.003 7.004-3.743.001c-1.139.001-1.792.76-2.022 1.47-.231.711-.148 1.709.773 2.378l3.028 2.199-4.114 5.667-3.028-2.199c-.924-.67-1.898-.438-2.5.001-.605.44-1.125 1.295-.772 2.379l1.157 3.558-6.66 2.166-1.158-3.558c-.352-1.083-1.275-1.469-2.022-1.469h-.001c-.747 0-1.671.387-2.022 1.47l-1.156 3.56z"/><path fill="#E9886C" d="M200.07 181.863a2 2 0 1 0-.006 3.999 2 2 0 0 0 .006-3.999zm-.008 5.998a3.983 3.983 0 0 1-2.341-.759 3.973 3.973 0 0 1-1.603-2.608 3.97 3.97 0 0 1 .711-2.978 4.004 4.004 0 0 1 5.585-.893v.001a3.964 3.964 0 0 1 1.603 2.607 3.97 3.97 0 0 1-.711 2.978 3.993 3.993 0 0 1-3.244 1.652z"/><path fill="#434A4F" d="M198.22 172.392a.997.997 0 1 1 1.07.92h-.08c-.52 0-.95-.4-.99-.92zm4.72 1.29a1.005 1.005 0 0 1 .55-1.931 1.005 1.005 0 0 1-.28 1.971c-.09 0-.18-.02-.27-.04zm-8.53.03c-.23-.5-.01-1.1.5-1.32a1 1 0 0 1 .82 1.82.992.992 0 0 1-1.32-.5zm11.86 1.58c-.01 0-.01-.01-.02-.01-.45-.33-.55-.95-.23-1.4.32-.45.95-.55 1.4-.23 0 .01.01.02.02.02l.01.01c.44.319.54.95.22 1.39a1.01 1.01 0 0 1-1.4.22zm-14.99.97a.999.999 0 0 1 .02-1.42c.39-.38 1.02-.37 1.41.02.39.4.38 1.03-.02 1.42-.19.19-.44.28-.69.28-.26 0-.53-.1-.72-.3zm17.55 1.67a.999.999 0 0 1 .27-1.39.999.999 0 0 1 1.39.27 1 1 0 0 1-.83 1.56c-.32 0-.64-.15-.83-.44zm-19.62 1.79c-.5-.24-.71-.84-.47-1.34.24-.49.84-.7 1.34-.46a1 1 0 0 1-.87 1.8zm21.12 1.56a.993.993 0 0 1 .72-1.21c.54-.13 1.08.19 1.22.73a1 1 0 0 1-1.94.48zm-21.88 2.4a1 1 0 0 1-.9-1.09c.06-.55.55-.95 1.1-.9a1 1 0 0 1 .89 1.1c-.05.51-.49.9-.99.9-.04 0-.07 0-.1-.01zm23.03 2.37a1 1 0 0 1-.89-1.1c.06-.55.55-.951 1.1-.9.55.06.94.55.89 1.1a1 1 0 0 1-1 .9h-.1zm-23.61.89a.995.995 0 0 1 .73-1.21.993.993 0 0 1 1.21.72 1.004 1.004 0 0 1-.97 1.25c-.45 0-.85-.31-.97-.76zm22.18 2.88c-.5-.25-.71-.85-.47-1.34.24-.5.84-.711 1.34-.461.5.241.7.841.46 1.331-.17.36-.53.57-.9.57-.14 0-.29-.04-.43-.1zm-20.39 1.11c-.31-.46-.19-1.08.26-1.39a.997.997 0 0 1 1.39.26c.31.46.2 1.08-.26 1.39-.17.12-.37.17-.56.17-.32 0-.64-.15-.83-.43zm17.75 1.94c-.38-.4-.37-1.03.02-1.41a.996.996 0 1 1 1.39 1.43c-.19.19-.44.28-.69.28-.26 0-.52-.1-.72-.3zm-14.71 1.19c-.44-.33-.55-.95-.22-1.4.32-.45.95-.55 1.4-.22h-.01c.45.32.55.94.23 1.39a1 1 0 0 1-.81.41c-.21 0-.41-.06-.59-.18zm11.19.78c-.23-.51 0-1.1.5-1.33.51-.22 1.1.009 1.33.509a1.01 1.01 0 0 1-.92 1.411c-.38 0-.75-.22-.91-.59zm-7.26 1.12a1 1 0 0 1 .55-1.92c.53.15.84.7.69 1.229a1.01 1.01 0 0 1-1.24.691zm3.28-.48a.997.997 0 1 1 1.99-.14.988.988 0 0 1-.92 1.06c-.03 0-.05.01-.08.01a.995.995 0 0 1-.99-.93z"/><path fill="#42494E" d="M50.588 117.868c-5.923 0-10.742 4.818-10.742 10.741s4.819 10.741 10.742 10.741c5.922 0 10.741-4.818 10.741-10.741s-4.819-10.741-10.741-10.741zm0 23.482c-7.026 0-12.742-5.716-12.742-12.741 0-7.025 5.716-12.741 12.742-12.741 7.025 0 12.741 5.716 12.741 12.741 0 7.025-5.716 12.741-12.741 12.741z"/><path fill="#42494E" d="M50.587 117.868c-2.885 0-5.323 4.919-5.323 10.741s2.438 10.741 5.323 10.741c2.884 0 5.321-4.919 5.321-10.741s-2.437-10.741-5.321-10.741zm0 23.482c-4.106 0-7.323-5.597-7.323-12.741 0-7.145 3.217-12.741 7.323-12.741 4.105 0 7.321 5.596 7.321 12.741 0 7.144-3.216 12.741-7.321 12.741z"/><path fill="#42494E" d="M38.846 129.609h23.482v-2H38.846zM33.89 97.701c-1.654 0-3 1.346-3 3s1.346 3 3 3h55.166l6.505-3-6.506-3H33.89zm0 8c-2.757 0-5-2.243-5-5s2.243-5 5-5h55.604l10.844 5-10.844 5H33.89z"/><path fill="#42494E" d="M39.5 104.701h2v-7.598h-2z"/><path fill="#42494E" d="M40.5 101.672h48.006v-2H40.5z"/><path fill="#434A4F" d="M184.266 62.998h2v-4h-2zM184.266 72.998h2v-4h-2zM188.266 66.998h4v-2h-4zM178.266 66.998h4v-2h-4zM74.2 183.07h2v-4h-2zM74.2 193.07h2v-4h-2zM78.2 187.07h4v-2h-4zM68.2 187.07h4v-2h-4zM206.279 143.046h2v-4h-2zM206.279 153.046h2v-4h-2zM210.279 147.046h4v-2h-4zM200.279 147.046h4v-2h-4z"/><path fill="#FACD60" d="M50.501 164.012a3.666 3.666 0 1 1 7.332 0 3.666 3.666 0 0 1-7.332 0M161.843 47.607a1.276 1.276 0 1 1 0-2.551 1.276 1.276 0 0 1 0 2.551m37.247 59.417a2 2 0 1 1-4 0 2 2 0 0 1 4 0m-38 82a2 2 0 1 1-4 0 2 2 0 0 1 4 0"/><path fill="#434A4F" d="M125.09 102.441c8.465 0 15.457 6.381 16.45 14.583h2.021c-1.002-9.309-8.901-16.583-18.471-16.583a1 1 0 1 0 0 2m16.45 18.583c-.993 8.203-7.985 14.583-16.45 14.583-9.144 0-16.584-7.439-16.584-16.583a1 1 0 0 0-2 0c0 10.247 8.337 18.583 18.584 18.583 9.57 0 17.469-7.274 18.471-16.583h-2.021"/><path fill="#434A4F" d="M151.673 117.024h2.005c-1.031-14.876-13.455-26.667-28.588-26.667-15.808 0-28.667 12.86-28.667 28.667a1 1 0 1 0 2 0c0-14.704 11.962-26.667 26.667-26.667 14.03 0 25.556 10.895 26.583 24.667m0 4c-1.027 13.773-12.553 24.667-26.583 24.667a1 1 0 1 0 0 2c15.133 0 27.557-11.79 28.588-26.667h-2.005"/><path fill="#434A4F" d="M125.09 82.274c19.593 0 35.651 15.413 36.693 34.75h2.005c-1.044-20.441-18.002-36.75-38.698-36.75a1 1 0 1 0 0 2m36.693 38.75c-1.042 19.338-17.1 34.75-36.693 34.75-20.265 0-36.75-16.485-36.75-36.75a1 1 0 0 0-2 0c0 21.367 17.383 38.75 38.75 38.75 20.696 0 37.654-16.309 38.698-36.75h-2.005"/><path fill="#434A4F" d="M171.872 121.024c-1.052 24.899-21.629 44.833-46.782 44.833-25.825 0-46.834-21.009-46.834-46.833a1 1 0 0 0-2 0c0 26.927 21.907 48.833 48.834 48.833 26.256 0 47.728-20.831 48.782-46.833h-2M125.09 72.191c25.153 0 45.73 19.934 46.782 44.833h2c-1.054-26.002-22.526-46.833-48.782-46.833a1 1 0 1 0 0 2"/><path fill="#434A4F" d="M181.955 117.024h2c-1.06-31.562-27.049-56.917-58.865-56.917-32.487 0-58.917 26.431-58.917 58.917a1 1 0 1 0 2 0c0-31.384 25.532-56.917 56.917-56.917 30.713 0 55.806 24.457 56.865 54.917m0 4c-1.059 30.46-26.152 54.917-56.865 54.917a1 1 0 1 0 0 2c31.816 0 57.805-25.354 58.865-56.917h-2"/><path fill="#434A4F" d="M192.039 121.024c-1.064 36.021-30.676 65-66.949 65-36.944 0-67-30.056-67-67 0-36.943 30.056-67 67-67a1 1 0 1 0 0-2c-38.047 0-69 30.954-69 69 0 38.047 30.953 69 69 69 37.376 0 67.884-29.876 68.949-67h-2M203.677 110.024l-7 7h2.828l5-5h13.585v-2h-14.413"/><path fill="#D3665D" d="M125.969 121.024l-.853.853 3.669 3.669a7.533 7.533 0 0 0 2.828-2.83l-1.692-1.692h-3.952"/><path fill="#434A4F" d="M213.09 122.024h-88.002v-2h86.002v-3.414l4.586-4.586h-11.585v-2h16.413l-7.414 7.414v4.586"/></g></svg>