<?xml version="1.0" encoding="utf-8"?><svg xmlns="http://www.w3.org/2000/svg" width="250" height="250" viewBox="0 0 250 250"><g fill="none" fill-rule="evenodd"><path fill="#434A4F" d="M134.154 124.587a7.58 7.58 0 0 1 5.6 2.467V49.602a5.607 5.607 0 0 0-5.601-5.601l-91.988.009.001 80.586 91.988-.009zm-39.603 15.201a5.607 5.607 0 0 0-5.601 5.6 5.607 5.607 0 0 0 5.601 5.601h104.132l-16.112-40.293 16.112-40.292h-56.929v61.783c0 4.192-3.409 7.601-7.6 7.601H94.551zm107.086 13.201H94.551c-4.191 0-7.601-3.409-7.601-7.601 0-4.191 3.41-7.6 7.601-7.6h39.603c3.088 0 5.6-2.513 5.6-5.601s-2.512-5.6-5.6-5.6l-93.988.009V42.01l93.987-.009c4.191 0 7.601 3.41 7.601 7.601v18.802h59.882l-16.91 42.292 16.911 42.293z"/><path fill="#434A4F" d="M41.166 204.001a1 1 0 0 1-1-1v-77.405a1 1 0 0 1 2 0v77.405a1 1 0 0 1-1 1M123.035 203.708l-19.934-19.934-19.664 19.664-1.414-1.414 21.078-21.078 21.348 21.348-1.414 1.414M46.999 204.001a1 1 0 0 1-1-1v-77.405a1 1 0 0 1 2.001 0v77.405a1 1 0 0 1-1.001 1"/><path fill="#434A4F" d="M184.966 203.708l-40.58-40.58-30.259 30.258-1.414-1.414 31.673-31.672 41.994 41.994-1.414 1.414"/><path fill="#434A4F" d="M205.951 204.049l-25.438-25.439-9.616 9.615-1.414-1.414 11.03-11.029 26.852 26.853-1.414 1.414M87.95 146.388a1 1 0 0 1-1-1v-19.386a1 1 0 1 1 2 0v19.386a1 1 0 0 1-1 1"/><path fill="#E9886C" d="M90.783 145.388c0-1.985 1.616-3.6 3.601-3.6h39.603c5.294 0 9.601-4.307 9.601-9.601l-.001-59.784h51.975l-15.312 38.293 15.312 38.293H94.384a3.605 3.605 0 0 1-3.601-3.601zm43.204-22.802l-89.988.01V46.01l89.988-.009c1.985 0 3.6 1.615 3.6 3.601v19.804l.001 53.881a9.547 9.547 0 0 0-3.601-.701z"/><path fill="#434A4F" d="M50 202.999c0-.551.45-1 1-1s1 .449 1 1c0 .55-.45 1-1 1s-1-.45-1-1zm4 0c0-.551.45-1 1-1s1 .449 1 1c0 .55-.45 1-1 1s-1-.45-1-1zm4 0c0-.551.45-1 1-1s1 .449 1 1c0 .55-.45 1-1 1s-1-.45-1-1zm4 0c0-.551.45-1 1-1s1 .449 1 1c0 .55-.45 1-1 1s-1-.45-1-1zm4 0c0-.551.45-1 1-1s1 .449 1 1c0 .55-.45 1-1 1s-1-.45-1-1zm4 0c0-.551.45-1 1-1s1 .449 1 1c0 .55-.45 1-1 1s-1-.45-1-1zm4 0c0-.551.45-1 1-1s1 .449 1 1c0 .55-.45 1-1 1s-1-.45-1-1zm4 0c0-.551.45-1 1-1s1 .449 1 1c0 .55-.45 1-1 1s-1-.45-1-1zm-38 4c0-.551.45-1 1-1s1 .449 1 1c0 .55-.45 1-1 1s-1-.45-1-1zm4 0c0-.551.45-1 1-1s1 .449 1 1c0 .55-.45 1-1 1s-1-.45-1-1zm4 0c0-.551.45-1 1-1s1 .449 1 1c0 .55-.45 1-1 1s-1-.45-1-1zm4 0c0-.551.45-1 1-1s1 .449 1 1c0 .55-.45 1-1 1s-1-.45-1-1zm4 0c0-.551.45-1 1-1s1 .449 1 1c0 .55-.45 1-1 1s-1-.45-1-1zm4 0c0-.551.45-1 1-1s1 .449 1 1c0 .55-.45 1-1 1s-1-.45-1-1zm4 0c0-.551.45-1 1-1s1 .449 1 1c0 .55-.45 1-1 1s-1-.45-1-1zm4 0c0-.551.45-1 1-1s1 .449 1 1c0 .55-.45 1-1 1s-1-.45-1-1zm4 0c0-.551.45-1 1-1s1 .449 1 1c0 .55-.45 1-1 1s-1-.45-1-1zm4 0c0-.551.45-1 1-1s1 .449 1 1c0 .55-.45 1-1 1s-1-.45-1-1zm4 0c0-.551.45-1 1-1s1 .449 1 1c0 .55-.45 1-1 1s-1-.45-1-1zm4 0c0-.551.45-1 1-1s1 .449 1 1c0 .55-.45 1-1 1s-1-.45-1-1zm4 0c0-.551.45-1 1-1s1 .449 1 1c0 .55-.45 1-1 1s-1-.45-1-1zm4 0c0-.551.45-1 1-1s1 .449 1 1c0 .55-.45 1-1 1s-1-.45-1-1zm4 0c0-.551.45-1 1-1s1 .449 1 1c0 .55-.45 1-1 1s-1-.45-1-1zm4 0c0-.551.45-1 1-1s1 .449 1 1c0 .55-.45 1-1 1s-1-.45-1-1zm4 0c0-.551.45-1 1-1s1 .449 1 1c0 .55-.45 1-1 1s-1-.45-1-1zm4 0c0-.551.45-1 1-1s1 .449 1 1c0 .55-.45 1-1 1s-1-.45-1-1zm4 0c0-.551.45-1 1-1s1 .449 1 1c0 .55-.45 1-1 1s-1-.45-1-1zm4 0c0-.551.45-1 1-1s1 .449 1 1c0 .55-.45 1-1 1s-1-.45-1-1zm4 0c0-.551.45-1 1-1s1 .449 1 1c0 .55-.45 1-1 1s-1-.45-1-1zm4 0c0-.551.45-1 1-1s1 .449 1 1c0 .55-.45 1-1 1s-1-.45-1-1zm4 0c0-.551.45-1 1-1s1 .449 1 1c0 .55-.45 1-1 1s-1-.45-1-1zm4 0c0-.551.45-1 1-1s1 .449 1 1c0 .55-.45 1-1 1s-1-.45-1-1zm4 0c0-.551.45-1 1-1s1 .449 1 1c0 .55-.45 1-1 1s-1-.45-1-1zm4 0c0-.551.45-1 1-1s1 .449 1 1c0 .55-.45 1-1 1s-1-.45-1-1zm4 0c0-.551.45-1 1-1s1 .449 1 1c0 .55-.45 1-1 1s-1-.45-1-1zm4 0c0-.551.45-1 1-1s1 .449 1 1c0 .55-.45 1-1 1s-1-.45-1-1zm4 0c0-.551.45-1 1-1s1 .449 1 1c0 .55-.45 1-1 1s-1-.45-1-1zm4 0c0-.551.45-1 1-1s1 .449 1 1c0 .55-.45 1-1 1s-1-.45-1-1zm4 0c0-.551.45-1 1-1s1 .449 1 1c0 .55-.45 1-1 1s-1-.45-1-1zm4 0c0-.551.45-1 1-1s1 .449 1 1c0 .55-.45 1-1 1s-1-.45-1-1zm4 0c0-.551.45-1 1-1s1 .449 1 1c0 .55-.45 1-1 1s-1-.45-1-1zm4 0c0-.551.45-1 1-1s1 .449 1 1c0 .55-.45 1-1 1s-1-.45-1-1zm4 0c0-.551.45-1 1-1s1 .449 1 1c0 .55-.45 1-1 1s-1-.45-1-1zm4 0c0-.551.45-1 1-1s1 .449 1 1c0 .55-.45 1-1 1s-1-.45-1-1zm4 0c0-.551.45-1 1-1s1 .449 1 1c0 .55-.45 1-1 1s-1-.45-1-1zm4 0c0-.551.45-1 1-1s1 .449 1 1c0 .55-.45 1-1 1s-1-.45-1-1zm4 0c0-.551.45-1 1-1s1 .449 1 1c0 .55-.45 1-1 1s-1-.45-1-1zm4 0c0-.551.45-1 1-1s1 .449 1 1c0 .55-.45 1-1 1s-1-.45-1-1zm4 0c0-.551.45-1 1-1s1 .449 1 1c0 .55-.45 1-1 1s-1-.45-1-1zm4 0c0-.551.45-1 1-1s1 .449 1 1c0 .55-.45 1-1 1s-1-.45-1-1zm4 0c0-.551.45-1 1-1s1 .449 1 1c0 .55-.45 1-1 1s-1-.45-1-1zm-156-8c0-.551.45-1 1-1s1 .449 1 1c0 .55-.45 1-1 1s-1-.45-1-1zm4 0c0-.551.45-1 1-1s1 .449 1 1c0 .55-.45 1-1 1s-1-.45-1-1zm4 0c0-.551.45-1 1-1s1 .449 1 1c0 .55-.45 1-1 1s-1-.45-1-1zm4 0c0-.551.45-1 1-1s1 .449 1 1c0 .55-.45 1-1 1s-1-.45-1-1zm4 0c0-.551.45-1 1-1s1 .449 1 1c0 .55-.45 1-1 1s-1-.45-1-1zm4 0c0-.551.45-1 1-1s1 .449 1 1c0 .55-.45 1-1 1s-1-.45-1-1zm4 0c0-.551.45-1 1-1s1 .449 1 1c0 .55-.45 1-1 1s-1-.45-1-1zm4 0c0-.551.45-1 1-1s1 .449 1 1c0 .55-.45 1-1 1s-1-.45-1-1zM199 169.001h2v-4h-2zM199 179.001h2v-4h-2zM203 173.001h4v-2h-4zM193 173.001h4v-2h-4zM137 185.001h2v-4h-2zM137 195.001h2v-4h-2zM141 189.001h4v-2h-4zM131 189.001h4v-2h-4zM163 121.001h2v-4h-2zM163 131.001h2v-4h-2zM167 125.001h4v-2h-4zM157 125.001h4v-2h-4zM64.804 188.875l2.455.797.466-1.437c.527-1.622 1.968-2.67 3.673-2.671h.001c1.705 0 3.146 1.047 3.674 2.668l.467 1.436 2.454-.798-.468-1.436a3.806 3.806 0 0 1 1.402-4.319c1.379-1.003 3.162-1.002 4.541-.002l1.222.888 1.516-2.088-1.222-.887a3.804 3.804 0 0 1-1.404-4.319 3.806 3.806 0 0 1 3.672-2.67l1.511-.001-.001-2.58-1.51.001h-.002a3.805 3.805 0 0 1-3.673-2.668 3.807 3.807 0 0 1 1.402-4.32l1.222-.887-1.473-2.026-1.221.888c-1.379 1.004-3.161 1.003-4.542.002-1.379-1.002-1.931-2.697-1.404-4.318l.466-1.437-2.455-.796-.466 1.437c-.526 1.621-1.967 2.67-3.672 2.67h-.002a3.805 3.805 0 0 1-3.673-2.667l-.468-1.437-2.454.799.468 1.436c.527 1.622-.023 3.317-1.402 4.32-1.38 1.002-3.162 1.001-4.541.001l-1.222-.888-1.516 2.089 1.223.887c1.38 1.002 1.931 2.696 1.404 4.318a3.805 3.805 0 0 1-3.672 2.671l-1.51.001v2.58l1.511-.001h.001a3.805 3.805 0 0 1 3.673 2.667 3.805 3.805 0 0 1-1.401 4.32l-1.221.888 1.471 2.024 1.221-.888c1.379-1.003 3.162-1.002 4.541-.002a3.805 3.805 0 0 1 1.405 4.318l-.467 1.437zm3.74 3.316l-6.259-2.031 1.083-3.339c.308-.949-.147-1.698-.677-2.082-.53-.386-1.383-.587-2.19 0l-2.839 2.063-3.823-5.257 2.839-2.064c.807-.587.878-1.462.676-2.084-.203-.622-.774-1.286-1.772-1.286l-3.511.001-.002-6.58 3.51-.001c.998 0 1.569-.666 1.771-1.288.202-.622.13-1.496-.677-2.082l-2.842-2.063 3.867-5.325 2.84 2.062c.808.586 1.661.385 2.19 0 .529-.385.985-1.134.676-2.083l-1.086-3.338 6.258-2.035 1.086 3.337c.308.948 1.117 1.286 1.772 1.286.654 0 1.463-.338 1.771-1.287l1.083-3.339 6.259 2.03-1.083 3.339c-.308.949.148 1.698.678 2.082.528.385 1.381.586 2.189 0l2.839-2.066 3.826 5.262-2.84 2.064c-.807.587-.878 1.461-.676 2.084.203.622.774 1.286 1.771 1.286h.001l3.51-.001.003 6.58-3.511.001c-.998 0-1.569.665-1.771 1.288-.202.622-.13 1.496.678 2.082l2.84 2.062-3.866 5.325-2.841-2.062c-.807-.587-1.661-.384-2.19.001-.529.384-.984 1.134-.675 2.082l1.085 3.338-6.258 2.036-1.086-3.338c-.308-.949-1.116-1.287-1.771-1.287-.654 0-1.463.339-1.772 1.288l-1.083 3.339z"/><path fill="#E9886C" d="M71.421 171.037a1.735 1.735 0 0 0-1.418.723 1.733 1.733 0 0 0-.311 1.299c.074.46.323.866.7 1.139a1.72 1.72 0 0 0 1.3.31 1.737 1.737 0 0 0 1.139-.701c.273-.377.383-.838.31-1.299a1.734 1.734 0 0 0-.7-1.139 1.731 1.731 0 0 0-1.02-.332zm-.012 5.494a3.713 3.713 0 0 1-2.19-.714 3.723 3.723 0 0 1-1.502-2.442 3.724 3.724 0 0 1 .666-2.789 3.719 3.719 0 0 1 2.443-1.502 3.728 3.728 0 0 1 2.789.666 3.722 3.722 0 0 1 1.501 2.442 3.717 3.717 0 0 1-.666 2.789 3.717 3.717 0 0 1-2.442 1.502c-.2.031-.401.048-.599.048z"/><path fill="#434A4F" d="M69.21 162.369a1 1 0 0 1 .88-1.11c.55-.061 1.04.33 1.11.879.06.55-.33 1.04-.88 1.111h-.12c-.5 0-.93-.37-.99-.88zm4.63 1.119h-.01a.997.997 0 1 1 .51-1.93c.53.13.85.68.71 1.22-.11.45-.52.75-.96.75a.69.69 0 0 1-.25-.04zm-8.24.381a.995.995 0 0 1 .42-1.351 1 1 0 0 1 1.35.42c.25.481.07 1.09-.42 1.351a1.13 1.13 0 0 1-.47.109.976.976 0 0 1-.88-.529zm11.45 1.14c-.02-.01-.04-.021-.05-.04a.986.986 0 0 1-.2-1.371.995.995 0 0 1 1.39-.229c.01.01.02.019.03.019.45.331.55.951.22 1.401a.988.988 0 0 1-.81.409c-.2 0-.4-.06-.58-.189zm-14.28 1.559a1.006 1.006 0 0 1-.1-1.409c.37-.421 1-.461 1.42-.101a1 1 0 0 1 .09 1.411.99.99 0 0 1-1.41.099zm16.71 1c-.3-.47-.17-1.09.29-1.39.47-.299 1.09-.16 1.39.3a1.002 1.002 0 0 1-1.68 1.09zm-18.37 2.54a.997.997 0 0 1-.6-1.279.999.999 0 1 1 1.88.68.998.998 0 0 1-1.28.599zm19.7.721c-.11-.54.24-1.07.78-1.181a.997.997 0 0 1 1.18.771 1.008 1.008 0 0 1-.98 1.21c-.46 0-.88-.33-.98-.8zm-20.99 2.199a1.001 1.001 0 0 1 2-.04c.01.551-.43 1.011-.98 1.021h-.02c-.54 0-.99-.43-1-.981zm21.89 2.481c-.55-.1-.91-.611-.82-1.151.09-.55.6-.92 1.15-.83.54.091.91.61.82 1.15-.08.491-.51.84-.99.84-.05 0-.1 0-.16-.009zm-21.02 1.689a.998.998 0 0 1 .55-1.3.993.993 0 0 1 1.3.54c.21.51-.03 1.101-.54 1.311-.13.05-.26.069-.38.069-.4 0-.77-.229-.93-.62zm19.34 1.841a.998.998 0 0 1-.35-1.37.996.996 0 0 1 1.37-.351c.47.28.63.891.35 1.37-.19.311-.52.49-.86.49-.17 0-.35-.049-.51-.139zm-17.02 1.739a.995.995 0 0 1 .04-1.409.987.987 0 0 1 1.41.029.996.996 0 0 1-.03 1.41.999.999 0 0 1-1.42-.03zm14.18.95a1 1 0 0 1 1.57-1.24c.34.44.27 1.061-.16 1.41-.19.141-.4.21-.62.21-.3 0-.59-.13-.79-.38zm-10.72 1.54a.993.993 0 0 1-.48-1.33c.24-.5.83-.71 1.33-.469v-.01c.5.239.71.84.48 1.34a1 1 0 0 1-.91.57c-.14 0-.29-.03-.42-.101zm7.1-.059c-.16-.531.14-1.09.66-1.25h.01c.52-.16 1.08.13 1.25.66.16.529-.14 1.09-.67 1.25-.1.029-.2.04-.29.04a.997.997 0 0 1-.96-.7zm-2.98 1.139c-.55-.04-.97-.519-.93-1.07.04-.55.52-.96 1.07-.92.55.03.97.511.93 1.061-.04.529-.48.929-1 .929h-.07z"/></g></svg>