<?xml version="1.0" encoding="utf-8"?><svg xmlns="http://www.w3.org/2000/svg" width="250" height="250" viewBox="0 0 250 250"><g fill="none" fill-rule="evenodd"><path fill="#5FE0ED" d="M137.849 162.452l-.003.009.003-.009zm-25.698 0l.003.009-.003-.009zm10.423-96.943a58.587 58.587 0 0 0-3.27 3.267 44.543 44.543 0 0 0-9.96 18.146l-.02.07a46.365 46.365 0 0 0-1.764 12.654l-.004 15.951a15.222 15.222 0 0 1-.693 4.809c-2.497 8.258-7.694 19.686-9.7 23.985a4.16 4.16 0 0 0 .606 4.453 4.353 4.353 0 0 0 3.356 1.456h3.785a3.244 3.244 0 0 1 2.079 3.041l-1.519 3.039 2.924 3.04s-.066 3.937-.012 4.124c.622 2.145 1.65 2.454 1.656 4.255.005 1.315.011 4.519.017 6.568a7.716 7.716 0 0 0 7.705 7.697h14.48a7.716 7.716 0 0 0 7.705-7.697c.006-2.049.012-5.253.017-6.568.006-1.801 1.033-2.11 1.656-4.255.054-.187-.013-4.124-.013-4.124l2.925-3.04-1.519-3.039a3.242 3.242 0 0 1 2.079-3.041h3.785a4.353 4.353 0 0 0 3.356-1.456 4.16 4.16 0 0 0 .606-4.453c-2.006-4.299-7.204-15.727-9.7-23.985a15.251 15.251 0 0 1-.694-4.809l-.003-15.951a46.365 46.365 0 0 0-1.764-12.654l-.02-.07a44.543 44.543 0 0 0-9.96-18.146 59.606 59.606 0 0 0-3.269-3.267 57.658 57.658 0 0 0-2.164-1.989c-.086-.074-.177-.144-.263-.218-.086.074-.177.144-.263.218a56.857 56.857 0 0 0-2.163 1.989z"/><path fill="#5FE0ED" d="M137.847 162.461l-.998-.009.998.009zm-26.588.447l-.106-.211-.002-.245h1l.897-.438-1.789.894zm27.482 0l-.912-.456h1.02v.236l-.108.22zm-29.373.445c.19.609.462 1.19.808 1.727.557.796.857 1.743.862 2.715l.017 6.569a6.723 6.723 0 0 0 6.705 6.7h14.48a6.723 6.723 0 0 0 6.705-6.7l.017-6.57a4.784 4.784 0 0 1 .862-2.714 7.122 7.122 0 0 0 .808-1.727c.017-.427.002-2.272-.027-3.915l-.006-.414 2.721-2.828-1.309-2.618v-.237a4.256 4.256 0 0 1 2.762-3.99l.155-.051h3.947a3.332 3.332 0 0 0 2.589-1.098 3.152 3.152 0 0 0 .467-3.388c-2.1-4.5-7.253-15.857-9.751-24.118a16.38 16.38 0 0 1-.737-5.123l-.004-15.927a45.397 45.397 0 0 0-1.725-12.381 43.849 43.849 0 0 0-9.752-17.81 57.941 57.941 0 0 0-3.214-3.211A60.125 60.125 0 0 0 125 64.621a57.584 57.584 0 0 0-1.733 1.609l-.015.014a58.288 58.288 0 0 0-3.214 3.211 43.748 43.748 0 0 0-9.731 17.74 45.48 45.48 0 0 0-1.747 12.451l-.003 15.951a16.348 16.348 0 0 1-.737 5.099c-2.498 8.261-7.651 19.618-9.751 24.118a3.152 3.152 0 0 0 .467 3.388 3.332 3.332 0 0 0 2.589 1.098h3.947l.154.051a4.256 4.256 0 0 1 2.763 3.99v.237l-1.309 2.618 2.721 2.829-.007.413c-.028 1.643-.043 3.488-.026 3.915zm22.872 19.711h-14.48a8.725 8.725 0 0 1-8.705-8.694l-.017-6.567a2.846 2.846 0 0 0-.579-1.697 8.905 8.905 0 0 1-1.037-2.284c-.048-.166-.093-.321-.034-4.006l-3.128-3.252 1.719-3.438a2.258 2.258 0 0 0-1.252-1.826h-3.602a5.322 5.322 0 0 1-4.122-1.814 5.132 5.132 0 0 1-.746-5.519c2.082-4.46 7.188-15.713 9.649-23.85a14.4 14.4 0 0 0 .651-4.497l.003-15.974a47.409 47.409 0 0 1 1.802-12.927 45.857 45.857 0 0 1 10.207-18.621 59.677 59.677 0 0 1 3.319-3.317c.8-.769 1.517-1.429 2.194-2.016l.918-.782.919.783a57.55 57.55 0 0 1 2.201 2.023 59.73 59.73 0 0 1 3.311 3.309 45.778 45.778 0 0 1 10.187 18.55 47.5 47.5 0 0 1 1.821 12.998l.004 15.95a14.432 14.432 0 0 0 .651 4.521c2.461 8.137 7.567 19.39 9.649 23.851a5.134 5.134 0 0 1-.746 5.519 5.324 5.324 0 0 1-4.122 1.813h-3.603a2.259 2.259 0 0 0-1.251 1.826l1.719 3.438-3.128 3.252a22.5 22.5 0 0 1-.033 4.004 8.937 8.937 0 0 1-1.038 2.286 2.846 2.846 0 0 0-.579 1.697l-.017 6.567a8.725 8.725 0 0 1-8.705 8.694z"/><path fill="#48515A" d="M140.04 210.895h59.175l.075-3.026c.01-27.94 5.948-59.719 14.12-75.54 8.487-16.434 8.785-35.58.798-51.215a55.748 55.748 0 0 0-13.164-16.838c-21.62-18.706-53.667-18.797-75.394-.215l-.65.558-.65-.558c-21.727-18.582-53.774-18.491-75.394.214a55.764 55.764 0 0 0-13.164 16.839c-7.987 15.634-7.689 34.781.798 51.215 8.172 15.821 14.11 47.6 14.12 75.564l.075 3.002h59.175l-2.905-22.75a7.089 7.089 0 0 1 7.081-7.081h21.728a7.09 7.09 0 0 1 7.081 7.081l-.007.126-2.898 22.624zm61.126 2h-63.399l3.178-24.812a5.088 5.088 0 0 0-5.081-5.019h-21.728a5.088 5.088 0 0 0-5.081 5.019l3.178 24.812H48.834l-.124-4.976c-.01-27.707-5.855-59.101-13.898-74.672-8.782-17.006-9.082-36.835-.801-53.043a57.757 57.757 0 0 1 13.634-17.439c22.126-19.144 54.852-19.471 77.355-.772 22.503-18.699 55.23-18.372 77.354.772a57.714 57.714 0 0 1 13.635 17.439c8.281 16.208 7.981 36.037-.801 53.043-8.043 15.571-13.888 46.965-13.898 74.647l-.124 5.001z"/><path fill="#48515A" d="M81.114 86.388c-10.266 0-18.588 8.322-18.588 18.588 0 10.266 8.322 18.588 18.588 18.589 10.266 0 18.588-8.322 18.588-18.588v-.001C99.69 94.715 91.375 86.4 81.114 86.388zm0 39.177c-11.37 0-20.588-9.218-20.588-20.588 0-11.371 9.217-20.589 20.588-20.589 11.37 0 20.588 9.218 20.588 20.588-.012 11.365-9.223 20.576-20.588 20.589zm88.301-39.177c-10.266 0-18.588 8.322-18.588 18.588-.001 10.266 8.322 18.588 18.587 18.589 10.266 0 18.589-8.322 18.589-18.588-.012-10.262-8.327-18.577-18.588-18.589zm0 39.177c-11.371 0-20.588-9.218-20.588-20.588-.001-11.371 9.217-20.589 20.587-20.589 11.371 0 20.589 9.218 20.589 20.588v.001c-.013 11.365-9.223 20.575-20.588 20.588z"/><path fill="#FFD45C" d="M74.716 111.248h12.191v-12.19H74.716zM163.15 111.248h12.191v-12.19H163.15z"/><path fill="#FFD45C" d="M74.716 111.248h12.191v-12.19H74.716z"/><path fill="#48515A" d="M103 106.153h4v-2h-4zM111 106.153h4v-2h-4zM119 106.153h4v-2h-4zM127 106.153h4v-2h-4zM135 106.153h4v-2h-4zM143 106.153h4v-2h-4zM59 132a2.948 2.948 0 0 0-3 2.894v.064A3.019 3.019 0 0 0 58.995 138h55.17l6.506-3-6.506-3H59zm55.604 8H59a5 5 0 0 1 0-10h55.604l10.842 5-10.842 5z"/><path fill="#48515A" d="M65.041 139h2v-8h-2z"/><path fill="#48515A" d="M66.041 136h48v-2h-48z"/><path fill="#DEDEDD" d="M183 163.391l-15.565-6.671-2.673 1.604 8.232 8.232-2.828 2.828-8.111-8.111-1.625 3.268L167.227 181l4.834-9.72 8.111 8.111 2.828-2.829-8.232-8.232 8.232-4.939"/><path fill="#48515A" d="M146.854 143.27l10.452 25.309 4.472-8.996 8.388 8.387 1.414-1.414-8.431-8.431 7.654-4.592-23.949-10.263zm10.284 30.14l-14.004-33.911 32.052 13.736-8.812 5.287 8.034 8.034-4.242 4.242-7.835-7.834-5.193 10.446zM179 65h2v-4h-2zM179 75h2v-4h-2zM183 69h4v-2h-4zM173 69h4v-2h-4zM69 177h2v-4h-2zM69 187h2v-4h-2zM73 181h4v-2h-4zM63 181h4v-2h-4zM158 188a4 4 0 1 0 0 8 4 4 0 0 0 0-8zm0 10a6 6 0 1 1 6-6 6.007 6.007 0 0 1-6 6z"/><path fill="#5FE0ED" d="M83 69a2 2 0 1 1 .001 3.999A2 2 0 0 1 83 69"/><path fill="#5FE0ED" d="M83 70a1 1 0 1 0 0 2 1 1 0 0 0 0-2zm0 4a3 3 0 1 1 0-6 3 3 0 0 1 0 6zm103 59a3 3 0 1 1 0 6 3 3 0 0 1 0-6"/><path fill="#5FE0ED" d="M186 134a2 2 0 1 0-.001 3.999A2 2 0 0 0 186 134zm0 6a4 4 0 1 1 0-8 4 4 0 0 1 0 8zm-93 45a4 4 0 1 1 0 8 4 4 0 0 1 0-8"/><path fill="#5FE0ED" d="M93 186a3 3 0 1 0 0 6 3 3 0 0 0 0-6zm0 8a5 5 0 1 1 5-5 5.006 5.006 0 0 1-5 5zm0-35a2 2 0 1 1 .001 3.999A2 2 0 0 1 93 159"/><path fill="#5FE0ED" d="M93 160a1 1 0 1 0 0 2 1 1 0 0 0 0-2zm0 4a3 3 0 1 1 0-6 3 3 0 0 1 0 6z"/></g></svg>