<?xml version="1.0" encoding="utf-8"?><svg xmlns="http://www.w3.org/2000/svg" xmlns:xlink="http://www.w3.org/1999/xlink" width="193" height="160" viewBox="0 0 193 160"><defs><path id="nfa" d="M.396.04h128.418v129.698H.396z"/></defs><g fill="none" fill-rule="evenodd"><path fill="#DEDEDD" d="M112.129 75.766c.001.078.012.155.012.234 0 8.822-7.178 16-16 16-8.823 0-16-7.178-16-16 0-.079.01-.156.012-.234h-8.006c-.001.078-.006.156-.006.234 0 13.234 10.766 24 24 24 13.233 0 24-10.766 24-24 0-.078-.006-.156-.006-.234h-8.006"/><g transform="translate(42)"><mask id="nfb" fill="#fff"><use xlink:href="#nfa"/></mask><path fill="#475059" d="M107.877 129.738l-1.414-1.414c10.577-10.577 17.627-23.893 20.387-38.509l1.964.371c-2.835 15.012-10.074 28.69-20.937 39.552M57.064 2.055a75.496 75.496 0 0 0-1.97-.05l.025-2c.678.008 1.352.026 2.024.052l-.079 1.998zm-5.917.003L51.067.06a71.725 71.725 0 0 1 2.028-.055l.025 2c-.659.009-1.316.026-1.973.053zm9.855.255c-.653-.06-1.31-.112-1.968-.154l.131-1.996c.676.044 1.35.097 2.021.159l-.184 1.991zm-13.797.006L47.021.328a74.931 74.931 0 0 1 2.024-.161l.133 1.995a75.99 75.99 0 0 0-1.973.157zm17.707.458a77.547 77.547 0 0 0-1.951-.258l.236-1.986a73.11 73.11 0 0 1 2.004.265l-.289 1.979zm-21.632.012L42.989.811a73.774 73.774 0 0 1 2.013-.268l.238 1.985c-.656.079-1.309.166-1.96.261zm25.512.66a69.396 69.396 0 0 0-1.935-.361l.34-1.971a78.3 78.3 0 0 1 1.99.371l-.395 1.961zm-29.407.02l-.397-1.96a77.109 77.109 0 0 1 1.995-.376l.344 1.97c-.65.114-1.298.236-1.942.366zm33.246.859a77.31 77.31 0 0 0-1.914-.465l.447-1.949c.658.151 1.313.31 1.965.478l-.498 1.936zm-37.097.028l-.5-1.936c.653-.169 1.311-.33 1.971-.482l.449 1.948c-.643.148-1.282.305-1.92.47zm40.885 1.056a79.025 79.025 0 0 0-1.887-.568l.551-1.922c.649.186 1.295.38 1.938.583l-.602 1.907zm-44.682.037l-.603-1.907a83.743 83.743 0 0 1 1.942-.587l.553 1.922c-.634.183-1.265.374-1.892.572zm48.408 1.248a78.531 78.531 0 0 0-1.854-.668l.652-1.89c.64.22 1.275.449 1.905.686l-.703 1.872zm-52.139.047l-.705-1.871a71.927 71.927 0 0 1 1.906-.691l.656 1.889c-.622.217-1.242.441-1.857.673zm55.79 1.438a71.086 71.086 0 0 0-1.817-.767l.754-1.853c.626.255 1.248.517 1.866.788l-.803 1.832zm-59.446.055l-.805-1.831a75.15 75.15 0 0 1 1.867-.792l.756 1.852c-.609.249-1.216.506-1.818.771zm63.013 1.622a74.38 74.38 0 0 0-1.773-.863l.851-1.809c.612.287 1.218.582 1.821.886l-.899 1.786zm-66.583.065l-.904-1.784a74.888 74.888 0 0 1 1.823-.891l.854 1.808c-.595.282-1.187.57-1.773.867zm70.058 1.802a76.384 76.384 0 0 0-1.726-.957l.948-1.762c.594.32 1.185.647 1.77.982l-.992 1.737zm-73.531.075l-.998-1.733a74.68 74.68 0 0 1 1.771-.988l.951 1.759a74.31 74.31 0 0 0-1.724.962zm76.899 1.974a69.836 69.836 0 0 0-1.671-1.046l1.037-1.71c.578.351 1.151.71 1.718 1.075l-1.084 1.681zm-80.269.084l-1.087-1.678a79.722 79.722 0 0 1 1.715-1.08l1.043 1.706c-.561.344-1.119.695-1.671 1.052zm83.527 2.142a76.514 76.514 0 0 0-1.614-1.135l1.129-1.651c.557.381 1.11.77 1.657 1.166l-1.172 1.62zm-86.781.093l-1.176-1.617a74.628 74.628 0 0 1 1.655-1.171l1.133 1.649c-.542.372-1.08.752-1.612 1.139zm89.914 2.304a81.445 81.445 0 0 0-1.552-1.22l1.217-1.587c.535.41 1.066.827 1.591 1.25l-1.256 1.557zm-93.044.1l-1.26-1.553a75.075 75.075 0 0 1 1.592-1.256l1.217 1.587c-.522.4-1.039.808-1.549 1.222zm96.046 2.459a76.26 76.26 0 0 0-1.485-1.3l1.299-1.522c.514.439 1.022.884 1.524 1.335l-1.338 1.487zm-99.044.108l-1.342-1.484a77.451 77.451 0 0 1 1.522-1.339l1.301 1.52c-.5.428-.994.862-1.481 1.303zm-2.744 2.608L.396 22.258c.439-.438.883-.871 1.333-1.299l1.378 1.448c-.437.416-.87.839-1.296 1.266zm104.652 0a79.863 79.863 0 0 0-1.414-1.378l1.377-1.45c.489.465.973.936 1.451 1.413l-1.414 1.415z" mask="url(#nfb)"/></g><path fill="#475059" d="M96.137 151.998c-19.753 0-38.467-7.541-52.694-21.232-.218-.211-.43-.429-.642-.646l-.389-.396 1.414-1.414.408.415c.197.202.393.404.596.6 13.853 13.331 32.073 20.673 51.307 20.673 19.766 0 38.349-7.697 52.326-21.674l1.414 1.414c-14.355 14.355-33.439 22.26-53.74 22.26M42.412 129.724C28.047 115.359 20.137 96.28 20.137 75.999c0-13.883 3.778-27.466 10.925-39.281a76.41 76.41 0 0 1 11.334-14.46l1.415 1.415a74.358 74.358 0 0 0-11.038 14.08c-6.958 11.503-10.636 24.728-10.636 38.246 0 19.746 7.702 38.324 21.689 52.311l-1.414 1.414"/><path fill="#475059" d="M91.434 145h9.414l3.889-15.538 10.69-2.865 11.137 11.512 8.153-4.707-4.401-15.401 7.826-7.825 15.401 4.4 4.707-8.152-11.512-11.138 2.865-10.689 15.538-3.89v-9.414l-15.538-3.889-2.865-10.69 11.512-11.137-4.707-8.153-15.401 4.401-7.826-7.826 4.401-15.401-8.153-4.707-11.137 11.512-10.69-2.865L100.848 7h-9.414l-3.89 15.538-10.69 2.865-11.137-11.512-8.153 4.707 4.401 15.401-7.825 7.826-15.402-4.401-4.707 8.153 11.512 11.137-2.864 10.69-15.538 3.889v9.414l15.538 3.89 2.864 10.689-11.512 11.138 4.707 8.152 15.402-4.4 7.825 7.825-4.401 15.401 8.153 4.707 11.137-11.512 10.69 2.865L91.434 145zm10.974 2H89.873l-3.983-15.911-8.416-2.256-11.406 11.788-10.855-6.267 4.506-15.771-6.161-6.161-15.771 4.506-6.268-10.856 11.788-11.405-2.255-8.416-15.911-3.983V69.732l15.911-3.982 2.255-8.417-11.788-11.405 6.268-10.856 15.771 4.507 6.161-6.162-4.506-15.77 10.855-6.269 11.406 11.789 8.416-2.256L89.873 5h12.535l3.984 15.911 8.416 2.256 11.405-11.789 10.855 6.269-4.505 15.77 6.161 6.162 15.77-4.507 6.268 10.856-11.787 11.405 2.254 8.417 15.912 3.982v12.536l-15.912 3.983-2.254 8.416 11.787 11.405-6.268 10.856-15.77-4.506-6.161 6.161 4.505 15.771-10.855 6.267-11.405-11.788-8.416 2.256L102.408 147z"/><path fill="#F58E70" d="M96.141 110c-18.748 0-34-15.252-34-34 0-18.747 15.252-34 34-34 18.748 0 34 15.253 34 34 0 18.748-15.252 34-34 34zm0-78c-24.301 0-44 19.7-44 44 0 24.301 19.699 44 44 44 24.3 0 44-19.699 44-44 0-24.3-19.7-44-44-44z"/><path fill="#475059" d="M91.434 145h9.414l3.889-15.538 10.69-2.864 11.136 11.511 8.155-4.707-4.402-15.401 7.826-7.825 15.401 4.401 4.707-8.154-11.512-11.137 2.865-10.689 15.538-3.89v-9.414l-15.538-3.889-2.865-10.69 11.512-11.137-4.707-8.153-15.401 4.401-7.826-7.826 4.402-15.401-8.155-4.707-11.136 11.512-10.69-2.865L100.848 7h-9.414l-3.89 15.538-10.69 2.865-11.136-11.512-8.155 4.707 4.402 15.401-7.825 7.826-15.402-4.401-4.707 8.153 11.512 11.137-2.864 10.69-15.538 3.889v9.414l15.538 3.89 2.864 10.689-11.512 11.137 4.707 8.154 15.402-4.401 7.825 7.825-4.402 15.401 8.155 4.707 11.136-11.511 10.69 2.864L91.434 145zm10.974 2H89.873l-3.983-15.911-8.416-2.255-11.405 11.787-10.857-6.267 4.507-15.771-6.161-6.161-15.771 4.507-6.268-10.858 11.788-11.404-2.255-8.416-15.911-3.983V69.732l15.911-3.982 2.255-8.417-11.788-11.405 6.268-10.856 15.771 4.507 6.161-6.162-4.507-15.77 10.857-6.269 11.405 11.789 8.416-2.256L89.873 5h12.535l3.984 15.911 8.416 2.256 11.404-11.789 10.857 6.269-4.506 15.77 6.161 6.162 15.77-4.507 6.268 10.856-11.787 11.405 2.254 8.417 15.912 3.982v12.536l-15.912 3.983-2.254 8.416 11.787 11.404-6.268 10.858-15.77-4.507-6.161 6.161 4.506 15.771-10.857 6.267-11.404-11.787-8.416 2.255L102.408 147z"/><path fill="#475059" d="M96.141 33c-23.71 0-43 19.29-43 43s19.29 43 43 43 43-19.29 43-43-19.29-43-43-43zm0 88c-24.814 0-45-20.186-45-45 0-24.813 20.186-45 45-45 24.813 0 45 20.187 45 45 0 24.814-20.187 45-45 45z"/><path fill="#475059" d="M96.141 65c-6.066 0-11 4.935-11 11s4.934 11 11 11c6.065 0 11-4.935 11-11s-4.935-11-11-11zm0 24c-7.168 0-13-5.832-13-13s5.832-13 13-13 13 5.832 13 13-5.832 13-13 13z"/><path fill="#475059" d="M96.141 61c-8.272 0-15 6.729-15 15 0 8.272 6.728 15 15 15 8.271 0 15-6.728 15-15 0-8.271-6.729-15-15-15zm0 32c-9.374 0-17-7.626-17-17 0-9.374 7.626-17 17-17 9.374 0 17 7.626 17 17 0 9.374-7.626 17-17 17zM173.47 96.698l-3.608-6.024-6.008 3.592-1.026-1.717 7.724-4.617 4.635 7.739-1.717 1.027"/><path fill="#48515A" d="M184.107 75.765h2v-4h-2zM184.107 85.766h2v-4h-2zM188.107 79.766h4v-2h-4zM178.107 79.766h4v-2h-4zM6 53.752h2v-4H6zM6 63.752h2v-4H6zM10 57.752h4v-2h-4zM0 57.752h4v-2H0zM16.006 133.8h2v-4h-2zM16.006 143.8h2v-4h-2zM20.006 137.8h4v-2h-4zM10.006 137.8h4v-2h-4z"/><path fill="#F58E70" d="M26.543 32.404a2 2 0 1 1-4 0 2 2 0 0 1 4 0m136.082 100.059a2 2 0 1 1-3.999.001 2 2 0 0 1 3.999-.001m16.01-27.016a2 2 0 1 1-4 0 2 2 0 0 1 4 0"/><path fill="#FFD15D" d="M116.597 13.392a2 2 0 1 1-3.999.001 2 2 0 0 1 3.999-.001"/><path fill="#475059" d="M96.142 50c-14.337 0-26 11.663-26 26 0 14.336 11.663 25.999 26 25.999s26-11.663 26-25.999c0-14.337-11.663-26-26-26zm0 53.999c-15.44 0-28-12.56-28-27.999 0-15.44 12.56-28 28-28 15.439 0 28 12.56 28 28 0 15.439-12.561 27.999-28 27.999zM68.14 160h2v-2h-2zM122.173 160h2v-2h-2z"/><path fill="#DEDEDD" d="M163.141 79.146v-3.38h-20.006c0 .078.006.156.006.234 0 25.916-21.084 47-47 47s-47-21.084-47-47c0-.078.005-.156.006-.234H29.141v3.38l15.166 3.796 3.472 12.963-11.235 10.871 3.146 5.449 15.032-4.296 9.489 9.49-4.295 15.032 5.449 3.146 10.87-11.237 12.963 3.475L92.995 143h6.291l3.797-15.165 12.963-3.475 10.87 11.237 5.449-3.146-4.295-15.032 9.49-9.49 15.031 4.296 3.146-5.449-11.235-10.871 3.473-12.963 15.166-3.796"/><path fill="#475059" d="M68.142 155.99h2V76h-2zM122.142 155.99h2V76h-2z"/></g></svg>