<?xml version="1.0" encoding="utf-8"?><svg xmlns="http://www.w3.org/2000/svg" width="250" height="250" viewBox="0 0 250 250"><g fill="none" fill-rule="evenodd"><path fill="#DEDEDD" d="M151.479 144.5H43.506v12c0 .551.449 1 1 1h106.973v-13"/><path fill="#475059" d="M151.479 161.5H44.506c-2.757 0-5-2.243-5-5V64.499c0-2.757 2.243-5 5-5h140c2.757 0 5 2.243 5 5v40.996h-2V64.499c0-1.654-1.346-3-3-3h-140c-1.654 0-3 1.346-3 3V156.5c0 1.654 1.346 3 3 3h106.973v2"/><path fill="#475059" d="M95.506 181.501h38.001v-.834l-3.002-18.167v-1H98.508l-.014.995-2.988 18.171v.835zm40.001 2H93.506l.014-3.079 2.988-18.171V159.5h35.997v2.918l3.002 18.167v2.916z"/><path fill="#475059" d="M88.506 183.5h52v-2h-52z"/><path fill="#DEDEDD" d="M97.724 179.501h33.562L128.63 163.5h-28.274l-2.632 16.001"/><path fill="#475059" d="M155.479 106.494c-1.654 0-3 1.346-3 3v81.016c0 1.654 1.346 3 3 3h50.015c1.654 0 3-1.346 3-3v-81.016c0-1.654-1.346-3-3-3h-50.015zm50.015 89.016h-50.015c-2.756 0-5-2.243-5-5v-81.016c0-2.757 2.244-5 5-5h50.015c2.757 0 5 2.243 5 5v81.016c0 2.757-2.243 5-5 5z"/><path fill="#475059" d="M177.486 191.51h6v-2h-6zM179.486 110.494h2v-2h-2z"/><path fill="#5FE0ED" d="M154.48 187.53h52.014v-75.015H154.48z"/><path fill="#48515A" d="M213 73.5h2v-4h-2zM213 83.5h2v-4h-2zM217 77.5h4v-2h-4zM207 77.5h4v-2h-4zM35 167.5h2v-4h-2zM35 177.5h2v-4h-2zM39 171.5h4v-2h-4zM29 171.5h4v-2h-4z"/><path fill="#FFD15D" d="M213.875 95.062a2.437 2.437 0 1 1-4.874.002 2.437 2.437 0 0 1 4.874-.002"/><path fill="#FFD15D" d="M211.438 93.125a1.94 1.94 0 0 0-1.938 1.937A1.94 1.94 0 0 0 211.438 97a1.94 1.94 0 0 0 1.937-1.938 1.94 1.94 0 0 0-1.937-1.937zm0 4.875a2.94 2.94 0 0 1-2.938-2.938 2.94 2.94 0 0 1 2.938-2.937 2.94 2.94 0 0 1 2.937 2.937A2.94 2.94 0 0 1 211.438 98z"/><path fill="#5FE0ED" d="M120.938 73.45a2.439 2.439 0 1 1-4.877-.001 2.439 2.439 0 0 1 4.877.001"/><path fill="#FFD15D" d="M199 61.062a2.437 2.437 0 1 1-4.875.001 2.437 2.437 0 0 1 4.875-.001"/><path fill="#FFD15D" d="M196.563 59.125a1.94 1.94 0 0 0-1.938 1.937A1.94 1.94 0 0 0 196.563 63a1.94 1.94 0 0 0 1.937-1.938 1.94 1.94 0 0 0-1.937-1.937zm0 4.875a2.94 2.94 0 0 1-2.938-2.938 2.94 2.94 0 0 1 2.938-2.937 2.94 2.94 0 0 1 2.937 2.937A2.94 2.94 0 0 1 196.563 64z"/><path fill="#5FE0ED" d="M147 176.5a1 1 0 1 1-2 0 1 1 0 0 1 2 0"/><path fill="#DEDEDD" d="M65 51.5a2 2 0 1 1-3.999.001A2 2 0 0 1 65 51.5m-30 68a2 2 0 1 1-3.999.001A2 2 0 0 1 35 119.5m72-64a2 2 0 1 1-3.999.001A2 2 0 0 1 107 55.5m40 142a2 2 0 1 1-3.999.001A2 2 0 0 1 147 197.5m-94-1a1 1 0 1 1-2 0 1 1 0 0 1 2 0m-15.006-59a1 1 0 1 1-2 0 1 1 0 0 1 2 0"/><path fill="#48515A" d="M134 188.5c-1.103 0-2 .897-2 2s.897 2 2 2 2-.897 2-2-.897-2-2-2zm0 6c-2.206 0-4-1.794-4-4s1.794-4 4-4 4 1.794 4 4-1.794 4-4 4zM102 199.5h-2v-7.001h-1v-2h3v9.001"/><path fill="#48515A" d="M99 200.5h4v-2h-4zM63 166.5a1 1 0 0 0-1 1v4.001a1 1 0 0 0 2 0V167.5a1 1 0 0 0-1-1zm0 8.001c-1.654 0-3-1.346-3-3V167.5c0-1.654 1.346-3 3-3s3 1.346 3 3v4.001c0 1.654-1.346 3-3 3zm136-90.002a1 1 0 0 0-1 1V89.5a1 1 0 0 0 2 0v-4.001a1 1 0 0 0-1-1zm0 8.001c-1.654 0-3-1.346-3-3v-4.001c0-1.654 1.346-3 3-3s3 1.346 3 3V89.5c0 1.654-1.346 3-3 3z"/></g></svg>