<?xml version="1.0" encoding="utf-8"?><svg xmlns="http://www.w3.org/2000/svg" width="250" height="250" viewBox="0 0 250 250"><g fill="none" fill-rule="evenodd"><path fill="#FACD60" d="M88.338 55.094a2.028 2.028 0 1 0 4.057.001 2.028 2.028 0 0 0-4.057-.001"/><path fill="#E9886C" d="M139.155 135.235c0 4.89-3.979 8.869-8.87 8.869l-3.414.02v6.224h-6v-6.19l-3.578.02c-4.498 0-8.143-3.68-8.143-8.203h6c0 1.194.974 2.203 2.126 2.203l3.595-.02v-9.333h-3.413c-4.891 0-8.87-3.979-8.87-8.869v-3.54c0-4.891 3.979-8.87 8.87-8.87h3.413v-5.74h6v5.74h4.375c3.934 0 7.135 3.201 7.135 7.136h-6c0-.626-.509-1.136-1.135-1.136h-4.375v9.279h3.414c4.891 0 8.87 3.979 8.87 8.87v3.54zm-25.527-40.922h20v-4h-20v4zm72.096 20.82a9.122 9.122 0 0 1-.653-.03c-.096-.006-.212-.005-.343-.004h-.017c-1.913-.003-6.995-.01-9.945-6.598a41.895 41.895 0 0 0-8.33-12.35 84.532 84.532 0 0 1-.573 2.075l-5.757-1.691c.008-.028.686-2.347 1.253-4.869l-.015-.012.365-1.665.013-.063h.001l1.423-6.491c.211-.703.272-1.718.132-2.087-.866-.408-3.637.584-5.146 1.125-.355.127-.704.251-1.044.369-.63.219-2.245.823-6.341 2.451l-.976.388-1.004-.306a41.636 41.636 0 0 0-7.422-1.532c-.15-.015-18.662-1.838-31.819.521l-.159.031c-.477.093-.955.184-1.425.295-18.187 4.294-31.361 20.282-32.054 38.889v.064l.133 4.111c.644 10.889 5.584 21.024 13.906 28.457l1.001.895v4.463a20.163 20.163 0 0 1 2.55-.182h52.67v3c0 4.819-1.791 9.15-4.769 12.397h13.612l2.564-1.259-.044-13.815 1.567-.856c.112-.062 11.898-6.705 16.23-20.266 1.429-5.352 2.469-7.003 3.672-8.912 2.113-3.354 5.493-5.065 7.807-5.889v-10.654h-1.063z"/><path fill="#E9886C" d="M130.285 128.825h-3.414v9.299l3.397-.02a2.877 2.877 0 0 0 2.887-2.869v-3.54a2.873 2.873 0 0 0-2.87-2.87m-15.697-12.409v3.54a2.872 2.872 0 0 0 2.87 2.869h3.413v-9.279h-3.413a2.873 2.873 0 0 0-2.87 2.87"/><path fill="#DBDBD5" d="M179.414 156.736c3.015-.491 6.023.161 8.253 1.789.183.134.361.273.534.417l-7.064 5-17.592 8.641-.023-7.424c1.653-1.087 4.408-3.101 7.332-6.092l2.548-.849a38.722 38.722 0 0 1 6.012-1.482M57.781 214.297v.002a2.164 2.164 0 0 1-2.162 2.16h-.002l-6.989-.007v-14.175l7.049.008a2.14 2.14 0 0 1 1.523.639c.411.411.637.953.636 1.522l-.055 9.851"/><path fill="#42494E" d="M81.667 213.338H60.836v-2h20.639l77.127-14.91 43.529-26.66c-5.714-5.106-12.716-6.01-18.953-2.376l-27.258 13.392h-46.778v-2h18.316c7.894 0 14.149-5.807 14.657-13.397H93.478a15.674 15.674 0 0 0-11.158 4.622l-20.777 20.776-1.414-1.414 20.777-20.776a17.66 17.66 0 0 1 12.572-5.208h50.67v1c0 6.284-3.425 11.638-8.58 14.397h19.888l26.778-13.153c7.237-4.222 15.783-2.855 22.24 3.601l.898.897-46.034 28.194-.178.035-77.493 14.98"/><path fill="#42494E" d="M182.675 167.529a1 1 0 0 1-.579-1.817l9.165-6.485a12.326 12.326 0 0 0-2.415-2.317c-2.659-1.942-6.215-2.725-9.753-2.149l-3.303.539a.993.993 0 0 1-1.149-.826 1 1 0 0 1 .826-1.148l3.304-.538c4.065-.663 8.166.251 11.255 2.507a14.261 14.261 0 0 1 3.471 3.608c.3.451.187 1.059-.254 1.372l-9.991 7.07a.996.996 0 0 1-.577.184M46.628 218.485l8.987.009h.005a4.165 4.165 0 0 0 4.161-4.156v-.001l.055-30.978a4.129 4.129 0 0 0-1.22-2.938 4.13 4.13 0 0 0-2.937-1.227l-9.051-.009v39.3zm8.992 2.009h-.007l-10.985-.011v-43.3l11.053.011a6.12 6.12 0 0 1 4.351 1.814 6.118 6.118 0 0 1 1.804 4.354l-.055 30.979a6.168 6.168 0 0 1-6.161 6.153z"/><path fill="#42494E" d="M160.561 178.612a1 1 0 0 1-1-.997l-.047-14.72.522-.286c.126-.069 12.626-7.062 17.199-21.481 1.348-5.071 2.316-6.608 3.438-8.388 2.29-3.635 6.359-5.033 8.114-5.485v-14.121h-3.063c-.088-.002-.253-.005-.496-.025-.139-.012-.311-.01-.514-.011-1.706-.002-5.702-.007-8.124-5.414a43.895 43.895 0 0 0-12.549-16.422l-.48-.388 1.471-6.754c.033-.117.989-3.382-.593-4.411-1.607-1.045-4.462-.022-6.98.88-.348.125-.691.247-1.025.363-.941.327-3.163 1.185-6.426 2.482l-.325.13-.335-.102a43.593 43.593 0 0 0-7.779-1.606c-.176-.018-18.954-1.871-32.396.54l-.186.036c-.504.097-1.008.194-1.505.312-19.079 4.504-32.894 21.288-33.595 40.816l.001.083.133 4.175c.679 11.475 5.855 22.098 14.573 29.885l.334.298v6.312a1 1 0 1 1-2 0v-5.419c-8.914-8.114-14.202-19.1-14.904-30.986l-.136-4.384c.735-20.461 15.182-38.016 35.134-42.726.523-.124 1.055-.227 1.585-.33l.199-.039c13.736-2.462 32.784-.582 32.976-.562a44.97 44.97 0 0 1 7.811 1.581c3.155-1.253 5.235-2.056 6.186-2.386.329-.113.665-.234 1.006-.356 2.957-1.058 6.304-2.257 8.744-.674 2.879 1.873 1.495 6.409 1.434 6.601l-1.186 5.466a45.904 45.904 0 0 1 12.642 16.774c1.89 4.22 4.65 4.223 6.298 4.225.264.001.491.003.673.017.177.015.297.018.35.019h5.047v17.769l-.835.141c-.052.008-5.16.909-7.551 4.705-1.113 1.767-1.964 3.117-3.246 7.938-4.346 13.704-15.105 20.85-17.637 22.374l.043 13.547a1 1 0 0 1-.997 1.004h-.003"/><path fill="#42494E" d="M133.628 94.314h-20a1 1 0 0 1 0-2h20a1 1 0 1 1 0 2m-72.42 35.512c-.668 0-1.345-.051-2.028-.156-5.907-.908-9.974-6.453-9.067-12.361.743-4.836 5.272-8.164 10.117-7.421a7.252 7.252 0 0 1 4.775 2.896 7.256 7.256 0 0 1 1.329 5.425 6.001 6.001 0 0 1-2.396 3.952 5.998 5.998 0 0 1-4.489 1.099l.304-1.977a4.012 4.012 0 0 0 3.001-.735 4.007 4.007 0 0 0 1.603-2.642 5.26 5.26 0 0 0-.965-3.938 5.255 5.255 0 0 0-3.467-2.103c-3.74-.576-7.26 2.003-7.836 5.748-.74 4.818 2.577 9.34 7.396 10.081 6.154.944 11.938-3.295 12.885-9.453l1.976.304c-1.01 6.567-6.689 11.281-13.138 11.281m102.736-32.164l-1.919-.564c.011-.036 1.059-3.619 1.662-6.8l1.965.372c-.621 3.28-1.663 6.842-1.708 6.992m5.276 14.778a1 1 0 0 1-.943-.669c-.98-2.794-1.963-4.933-2.769-6.024a1.001 1.001 0 0 1 1.61-1.188c1.179 1.598 2.307 4.444 3.046 6.55a1.001 1.001 0 0 1-.944 1.331m-51.938 29.738c-3.384 0-6.132-2.783-6.132-6.203h2c0 2.317 1.85 4.203 4.126 4.203l13.003-.074a4.876 4.876 0 0 0 4.876-4.869v-3.54a4.876 4.876 0 0 0-4.87-4.87h-12.827a6.877 6.877 0 0 1-6.87-6.869v-3.54a6.877 6.877 0 0 1 6.87-6.87h13.788a5.141 5.141 0 0 1 5.135 5.136h-2a3.139 3.139 0 0 0-3.135-3.136h-13.788a4.876 4.876 0 0 0-4.87 4.87v3.54a4.875 4.875 0 0 0 4.87 4.869h12.827a6.877 6.877 0 0 1 6.87 6.87v3.54a6.877 6.877 0 0 1-6.87 6.869l-13.003.074"/><path fill="#42494E" d="M122.872 150.348h2v-48.542h-2z"/><path fill="#DBDBD5" d="M109.142 175.76h23.443c3.588-1.51 6.27-4.571 7.203-8.373h-4.792c-2.095 1.492-4.69 2.373-7.538 2.373h-12.316a6 6 0 0 0-6 6m81.854-8.541l-33.129 20.29-76.584 14.804h-17.48l-.013 7.025h17.493l76.584-14.805 40.741-24.952c-2.419-1.571-5.013-2.363-7.612-2.362"/><path fill="#FACD60" d="M119.628 56.271c0-9.941 8.059-18 18-18s18 8.059 18 18-8.059 18-18 18-18-8.059-18-18"/><path fill="#42494E" d="M137.626 71.27c-4 0-7.76-1.555-10.593-4.381a14.902 14.902 0 0 1-4.406-10.601 15.032 15.032 0 0 1 3.415-9.546 1 1 0 1 1 1.544 1.271 13.022 13.022 0 0 0-2.959 8.273 12.914 12.914 0 0 0 3.819 9.187 12.913 12.913 0 0 0 9.18 3.797h.017c7.168-.008 12.992-5.846 12.984-13.015-.007-7.163-5.838-12.985-13-12.985h-.015a13.012 13.012 0 0 0-3.828.578l-.827.351a1 1 0 1 1-.772-1.845l.917-.384c1.514-.473 3-.698 4.508-.7h.016c8.265 0 14.992 6.717 15.001 14.983.01 8.271-6.711 15.008-14.982 15.017h-.019"/><path fill="#42494E" d="M140.616 63.244h-5.559c-1.759 0-3.19-1.439-3.19-3.207a1 1 0 1 1 2 0 1.2 1.2 0 0 0 1.19 1.207h5.559c.831 0 1.508-.683 1.508-1.524v-.95a1.51 1.51 0 0 0-1.508-1.508h-5.482a3.512 3.512 0 0 1-3.508-3.508v-.951a3.512 3.512 0 0 1 3.508-3.508h5.892a2.77 2.77 0 0 1 2.767 2.767 1 1 0 1 1-2 0 .768.768 0 0 0-.767-.767h-5.892a1.51 1.51 0 0 0-1.508 1.508v.951a1.51 1.51 0 0 0 1.508 1.508h5.482a3.512 3.512 0 0 1 3.508 3.508v.95c0 1.943-1.574 3.524-3.508 3.524"/><path fill="#42494E" d="M138 66a1 1 0 0 1-1-1V47a1 1 0 1 1 2 0v18a1 1 0 0 1-1 1m-8.382-19.72c-.27 0-.531-.11-.71-.29-.191-.19-.29-.45-.29-.71 0-.26.099-.52.29-.71.23-.23.57-.33.9-.27.069.01.13.03.19.06.06.02.12.05.169.09.05.03.111.08.151.12.189.19.3.45.3.71a1.01 1.01 0 0 1-1 1"/><path fill="#FACD60" d="M90.628 75.271c0-7.18 5.821-13 13-13 7.18 0 13 5.82 13 13s-5.82 13-13 13c-7.179 0-13-5.82-13-13"/><path fill="#42494E" d="M105.786 80.585h-4.015a2.591 2.591 0 0 1-2.582-2.594 1 1 0 1 1 2 0c0 .327.261.594.582.594h4.015a.818.818 0 0 0 .811-.823v-.686a.813.813 0 0 0-.811-.812h-3.959a2.814 2.814 0 0 1-2.811-2.811v-.687a2.814 2.814 0 0 1 2.811-2.811h4.256a2.28 2.28 0 0 1 2.276 2.276 1 1 0 1 1-2 0 .277.277 0 0 0-.276-.276h-4.256a.812.812 0 0 0-.811.811v.687a.81.81 0 0 0 .811.811h3.959a2.816 2.816 0 0 1 2.811 2.812v.686a2.82 2.82 0 0 1-2.811 2.823"/><path fill="#42494E" d="M104 83a1 1 0 0 1-1-1V68a1 1 0 1 1 2 0v14a1 1 0 0 1-1 1"/><path fill="#434A4F" d="M170.792 33.506h2v-4h-2zM170.792 43.506h2v-4h-2zM164.792 37.506h4v-2h-4zM174.792 37.506h4v-2h-4zM190.803 73.529h2v-4h-2zM190.803 83.53h2v-4h-2zM184.803 77.529h4v-2h-4zM194.803 77.529h4v-2h-4z"/><path fill="#FACD60" d="M158.38 65.1a2.028 2.028 0 1 0 4.057.001 2.028 2.028 0 0 0-4.057-.001"/><path fill="#434A4F" d="M107.538 40.25c-.27 0-.531-.11-.71-.29-.19-.19-.29-.45-.29-.71 0-.27.1-.52.29-.71.04-.04.089-.08.15-.12.05-.04.109-.07.17-.09.06-.03.13-.05.189-.06a.86.86 0 0 1 .391 0c.06.01.13.03.189.06.061.02.121.05.17.09.051.04.111.08.151.12a1.011 1.011 0 0 1 0 1.42c-.04.04-.1.08-.151.12a.534.534 0 0 1-.17.09.68.68 0 0 1-.189.06c-.061.01-.13.02-.19.02m-.005 16.471a1 1 0 0 1-1-1V47.12a1 1 0 1 1 2 0v8.601a1 1 0 0 1-1 1m-4.005-19.541a.975.975 0 0 1-.7-.3.976.976 0 0 1-.3-.7c0-.26.11-.52.3-.71.219-.23.57-.34.9-.27.06.01.12.03.18.05.059.03.12.06.179.1.051.03.101.07.151.12.179.19.29.45.29.71 0 .26-.111.52-.29.7-.05.05-.1.09-.151.13-.059.03-.12.07-.179.09-.06.03-.12.04-.18.06-.07.01-.13.02-.2.02m.002 16.468a1 1 0 0 1-1-1v-8.601a1 1 0 1 1 2 0v8.601a1 1 0 0 1-1 1m-4.002-9.468c-.26 0-.521-.11-.71-.29a.933.933 0 0 1-.21-.33.995.995 0 0 1-.08-.38c0-.13.03-.26.08-.38s.12-.23.21-.33c.1-.09.2-.16.33-.21.18-.08.38-.1.569-.06.071.01.131.03.191.06.059.02.12.05.17.09.06.04.11.08.16.12.179.19.29.45.29.71 0 .26-.111.52-.29.71-.05.04-.1.09-.16.12a.568.568 0 0 1-.17.09c-.06.03-.12.05-.191.06-.059.02-.13.02-.189.02m0 16.472a1 1 0 0 1-1-1v-8.601a1 1 0 1 1 2 0v8.601a1 1 0 0 1-1 1"/><path fill="#FACD60" d="M75.128 79.77a2 2 0 1 1-3.999.001 2 2 0 0 1 3.999-.001M184.2 89.55a1.75 1.75 0 1 1-3.499.001 1.75 1.75 0 0 1 3.499-.001"/></g></svg>