<?xml version="1.0" encoding="utf-8"?><svg xmlns="http://www.w3.org/2000/svg" width="250" height="250" viewBox="0 0 250 250"><g fill="none" fill-rule="evenodd"><path fill="#434A4F" d="M125.006 155.605c-3.965 0-7.191-3.226-7.191-7.191v-5.191h-13.419a1 1 0 0 1-1-1v-13.461h-5.233a7.199 7.199 0 0 1-7.191-7.191c0-3.964 3.225-7.19 7.19-7.191h6.234a1 1 0 0 1 0 2h-6.234a5.197 5.197 0 0 0-5.19 5.191 5.196 5.196 0 0 0 5.191 5.191h6.233a1 1 0 0 1 1 1v13.461h13.419a1 1 0 0 1 1 1v6.191a5.197 5.197 0 0 0 5.191 5.191 5.197 5.197 0 0 0 5.191-5.191v-6.191a1 1 0 0 1 1-1h13.471v-13.447a1.003 1.003 0 0 1 1-1l6.191.001a5.197 5.197 0 0 0 5.191-5.191 5.197 5.197 0 0 0-5.191-5.191h-6.191a1 1 0 0 1-1-1v-13.444h-13.444a1 1 0 0 1-1-1V94.76c0-1.387-.54-2.69-1.52-3.67a5.156 5.156 0 0 0-3.671-1.521 5.196 5.196 0 0 0-5.19 5.191v6.191a1 1 0 0 1-1 1h-14.447a1 1 0 0 1 0-2h13.447V94.76c0-3.965 3.225-7.191 7.19-7.191 1.921 0 3.727.748 5.085 2.106a7.146 7.146 0 0 1 2.106 5.085v5.191h13.444a1 1 0 0 1 1 1v13.444h5.191c3.965 0 7.191 3.226 7.191 7.19 0 3.966-3.226 7.192-7.191 7.192l-5.191-.001v13.447a1 1 0 0 1-1 1h-13.471v5.191c0 3.965-3.226 7.191-7.191 7.191"/><path fill="#434A4F" d="M132.224 99.951h12.444V84.442a1 1 0 0 1 1-1h6.191a5.197 5.197 0 0 0 5.191-5.191 5.197 5.197 0 0 0-5.191-5.191h-6.191a1 1 0 0 1-1-.999V58.448H131.27a1.003 1.003 0 0 1-1-1l.001-5.92a5.197 5.197 0 0 0-5.191-5.191 5.197 5.197 0 0 0-5.191 5.191v5.92a1 1 0 0 1-1 1h-13.507v13.61a1 1 0 0 1-1 1h-6.191A5.197 5.197 0 0 0 93 78.249a5.196 5.196 0 0 0 5.191 5.19h6.205a1 1 0 0 1 1 1v15.512h12.447V94.76c0-3.965 3.225-7.191 7.19-7.191 3.965 0 7.191 3.226 7.191 7.191v5.191zm13.444 2h-14.444a1 1 0 0 1-1-1V94.76a5.197 5.197 0 0 0-5.191-5.191 5.196 5.196 0 0 0-5.19 5.191v6.191a1 1 0 0 1-1 1h-14.447a1 1 0 0 1-1-1V85.439h-5.205c-3.965 0-7.191-3.226-7.191-7.19 0-3.965 3.226-7.191 7.191-7.191h5.191v-13.61a1 1 0 0 1 1-1h13.507v-4.92c0-3.965 3.226-7.191 7.191-7.191s7.191 3.226 7.191 7.191l-.001 4.92h13.398a1 1 0 0 1 1 1v13.613h5.191c3.965 0 7.191 3.225 7.191 7.19 0 3.965-3.226 7.191-7.191 7.191h-5.191v15.509a1 1 0 0 1-1 1z"/><path fill="#434A4F" d="M146.668 141.223h15.509a1 1 0 0 1 1 1v6.191a5.197 5.197 0 0 0 5.191 5.191 5.197 5.197 0 0 0 5.191-5.191v-6.191a1 1 0 0 1 1-1h13.487v-13.234a1 1 0 0 1 1-1h6.191a5.196 5.196 0 0 0 5.19-5.191c0-1.386-.539-2.69-1.52-3.67a5.156 5.156 0 0 0-3.67-1.52h-6.191a1 1 0 0 1-1-1v-13.879h-12.487v5.413c0 3.964-3.226 7.191-7.191 7.191s-7.191-3.227-7.191-7.191v-5.413h-14.509v12.668h5.191c3.965 0 7.191 3.227 7.191 7.191 0 3.965-3.226 7.191-7.191 7.191h-5.191v12.444zm21.7 14.382c-3.965 0-7.191-3.226-7.191-7.191v-5.191h-15.509a1 1 0 0 1-1-1v-14.444a1 1 0 0 1 1-1h6.191a5.197 5.197 0 0 0 5.191-5.191 5.197 5.197 0 0 0-5.191-5.191h-6.191a1 1 0 0 1-1-1v-14.075a.998.998 0 0 1 .805-1.593h16.704c.266 0 .52.105.708.292.187.188.292.442.292.708v6.413a5.197 5.197 0 0 0 5.191 5.191 5.197 5.197 0 0 0 5.191-5.191v-6.413a1 1 0 0 1 1-1h14.487a1 1 0 0 1 1 1v13.879h5.191c1.921 0 3.727.748 5.085 2.106a7.139 7.139 0 0 1 2.105 5.084c0 3.965-3.225 7.191-7.19 7.191h-5.191v13.234a1 1 0 0 1-1 1h-13.487v5.191c0 3.965-3.226 7.191-7.191 7.191zM62 141.223h13.488a1 1 0 0 1 1 1v6.231a5.196 5.196 0 0 0 5.19 5.191 5.197 5.197 0 0 0 5.191-5.191v-6.231a1 1 0 0 1 1-1h15.527v-12.461h-5.233a7.199 7.199 0 0 1-7.191-7.191c0-3.964 3.225-7.19 7.19-7.191h5.234v-12.429H88.868v5.229c.001 3.95-3.223 7.176-7.187 7.192-1.908-.024-3.736-.736-5.097-2.091a7.087 7.087 0 0 1-2.099-5.054l-.001-5.276h-12.43L62 115.719a1 1 0 0 1-1 .996h-6.191a5.197 5.197 0 0 0-5.191 5.191 5.197 5.197 0 0 0 5.191 5.191H61a1 1 0 0 1 1 1v13.126zm19.678 14.422c-3.965 0-7.19-3.226-7.19-7.191v-5.231H61a1 1 0 0 1-1-1v-13.126h-5.191c-3.965 0-7.191-3.226-7.191-7.191s3.226-7.191 7.191-7.191h5.195l.054-13.768a1 1 0 0 1 1-.996h14.426a1 1 0 0 1 1 1l.001 6.276a5.1 5.1 0 0 0 1.511 3.637c.98.977 2.276 1.528 3.678 1.508 2.864-.012 5.195-2.34 5.194-5.192v-6.229a1 1 0 0 1 1-1h16.528a1 1 0 0 1 1 1v14.429a1 1 0 0 1-1 1h-6.234a5.197 5.197 0 0 0-5.19 5.191 5.196 5.196 0 0 0 5.191 5.191h6.233a1 1 0 0 1 1 1v14.461a1 1 0 0 1-1 1H88.869v5.231c0 3.965-3.226 7.191-7.191 7.191z"/><path fill="#434A4F" d="M145.668 185.561h.01-.01zm-40.273-.998l14.782.045a1 1 0 0 1 .997 1v6.191a5.197 5.197 0 0 0 5.191 5.191 5.196 5.196 0 0 0 5.19-5.191v-6.191a1 1 0 0 1 .997-1l12.116-.044v-12.45h-5.191c-3.965 0-7.191-3.226-7.191-7.191s3.226-7.191 7.191-7.191h5.191v-14.509h-12.471v5.191c0 3.965-3.226 7.191-7.191 7.191s-7.191-3.226-7.191-7.191v-5.191h-12.419v15.558a1 1 0 0 1-1 1h-6.199a5.197 5.197 0 0 0-5.191 5.191 5.197 5.197 0 0 0 5.191 5.191h6.198a1 1 0 0 1 1 1v13.4zm20.97 14.427c-3.965 0-7.191-3.226-7.191-7.191v-5.194l-14.782-.044a1 1 0 0 1-.997-1v-13.398h-5.198c-3.965 0-7.191-3.226-7.191-7.191s3.226-7.191 7.191-7.191h5.199v-15.558a1 1 0 0 1 1-1h14.419a1 1 0 0 1 1 1v6.191a5.197 5.197 0 0 0 5.191 5.191 5.197 5.197 0 0 0 5.191-5.191v-6.191a1 1 0 0 1 1-1h14.471a1 1 0 0 1 1 1v16.509a1 1 0 0 1-1 1h-6.191a5.197 5.197 0 0 0-5.191 5.191 5.197 5.197 0 0 0 5.191 5.191h6.191a1 1 0 0 1 1 1v14.447a1 1 0 0 1-.996 1l-12.117.043v5.195c0 3.965-3.225 7.191-7.19 7.191zm-65.392-96.882a1 1 0 0 1-1-1V85.501h-5.191c-3.965 0-7.191-3.226-7.191-7.191a1 1 0 0 1 2 0 5.197 5.197 0 0 0 5.191 5.191h6.191a1 1 0 0 1 1 1v16.607a1 1 0 0 1-1 1m20.36-31.349c-3.965 0-7.191-3.226-7.191-7.191v-6.191a1 1 0 0 1 2 0v6.191a5.197 5.197 0 0 0 5.191 5.191 5.197 5.197 0 0 0 5.191-5.191l-.001-6.191a1.002 1.002 0 0 1 1-1h16.81a1 1 0 0 1 0 2h-15.81l.001 5.191c0 3.965-3.226 7.191-7.191 7.191m107.66 31.167a1 1 0 0 1-1-1V85.481h-5.191c-3.965 0-7.19-3.226-7.19-7.191 0-3.964 3.225-7.19 7.19-7.19l5.191-.001V58.444h-15.039a1 1 0 0 1-1-1v-6.191a5.198 5.198 0 0 0-5.192-5.191 5.197 5.197 0 0 0-5.19 5.191v6.191a1 1 0 0 1-1 1l-14.444-.001a1 1 0 1 1 0-2l13.444.001v-5.191c0-3.965 3.226-7.191 7.19-7.191 3.965 0 7.191 3.226 7.192 7.191v5.191h15.039a1 1 0 0 1 1 1v14.655a1 1 0 0 1-1 1l-6.191.001a5.196 5.196 0 0 0-5.19 5.19 5.196 5.196 0 0 0 5.19 5.191h6.191a.997.997 0 0 1 1 1v16.445a1 1 0 0 1-1 1"/><path fill="#434A4F" d="M81.812 198.989c-3.965 0-7.191-3.225-7.192-7.19v-5.191H60.95a1 1 0 0 1-1-1V172.5h-5.191c-3.964 0-7.19-3.225-7.19-7.19 0-3.965 3.226-7.191 7.19-7.191h5.191v-15.512a1 1 0 0 1 2 0v16.512a1 1 0 0 1-1 1h-6.191a5.196 5.196 0 0 0-5.19 5.191 5.196 5.196 0 0 0 5.19 5.19h6.191a1 1 0 0 1 1 1v13.108h13.67a1 1 0 0 1 1 1v6.191a5.197 5.197 0 0 0 5.192 5.19 5.196 5.196 0 0 0 5.19-5.191v-6.19a1 1 0 0 1 1-1h16.446a1 1 0 0 1 0 2H89.002v5.19c0 3.965-3.225 7.191-7.19 7.191m97.274 6.013c.256 0 .511.098.707.293l9.534 9.534 10.913-10.912a.999.999 0 0 1 1.414 0l4.377 4.377a5.199 5.199 0 0 0 7.342 0 5.198 5.198 0 0 0 0-7.341l-4.378-4.377a1 1 0 0 1 0-1.414l9.591-9.591-9.266-9.267a.999.999 0 0 1 0-1.414l4.048-4.049a5.152 5.152 0 0 0 1.521-3.67 5.16 5.16 0 0 0-1.52-3.671 5.198 5.198 0 0 0-7.341 0l-4.05 4.049a.999.999 0 0 1-1.414 0l-11.234-11.234-8.83 8.83 3.671 3.67c2.803 2.804 2.803 7.366-.001 10.17a7.198 7.198 0 0 1-10.169 0l-3.67-3.671-10.26 10.26 10.966 10.966a.999.999 0 0 1 0 1.414l-4.377 4.378a5.154 5.154 0 0 0-1.521 3.67c0 1.387.54 2.69 1.521 3.671.98.98 2.284 1.52 3.67 1.52 1.387 0 2.69-.54 3.671-1.521l4.378-4.377a.997.997 0 0 1 .707-.293zm10.185 12.297a.998.998 0 0 1-.927-.624l-9.258-9.259-3.671 3.67a7.141 7.141 0 0 1-5.085 2.107 7.142 7.142 0 0 1-5.084-2.106 7.2 7.2 0 0 1 0-10.17l3.67-3.67-10.966-10.966a1 1 0 0 1 0-1.414l11.674-11.674a1 1 0 0 1 1.414 0l4.377 4.378a5.198 5.198 0 0 0 7.341 0 5.199 5.199 0 0 0 .001-7.342l-4.378-4.377a.997.997 0 0 1 0-1.414l10.244-10.244a1 1 0 0 1 1.414 0l11.234 11.234 3.343-3.342c2.803-2.803 7.365-2.803 10.169 0a7.144 7.144 0 0 1 2.106 5.085 7.139 7.139 0 0 1-2.107 5.084l-3.341 3.342 9.266 9.267a.997.997 0 0 1 0 1.414l-9.591 9.591 3.671 3.67c2.803 2.803 2.803 7.365 0 10.169-2.803 2.804-7.365 2.805-10.17 0l-3.67-3.67-10.969 10.968a.999.999 0 0 1-.707.293z"/><path fill="#FACD60" d="M64 128.097v11.126h11.487a3 3 0 0 1 3 3v6.23a3.195 3.195 0 0 0 3.191 3.191h.001c.852 0 1.653-.332 2.256-.934a3.173 3.173 0 0 0 .934-2.256v-6.231a3 3 0 0 1 3-3h13.527v-8.461h-3.234a9.119 9.119 0 0 1-6.293-2.506c-.068-.064-.14-.12-.205-.186a9.177 9.177 0 0 1-1.997-2.98 9.171 9.171 0 0 1-.695-3.519c0-5.067 4.123-9.19 9.191-9.19l3.233-.001v-8.429H90.868v3.228c.001 5.049-4.117 9.173-9.179 9.192-2.458-.029-4.776-.939-6.516-2.672a9.08 9.08 0 0 1-2.689-6.472v-3.276h-8.438L64 115.727a3 3 0 0 1-3 2.988h-6.191a3.17 3.17 0 0 0-2.257.935 3.17 3.17 0 0 0-.934 2.256 3.195 3.195 0 0 0 3.191 3.191H61a3 3 0 0 1 3 3"/><path fill="#75C7D0" d="M91.698 171.471a9.127 9.127 0 0 1-2.692-6.499c0-5.067 4.123-9.19 9.191-9.19h3.199v-10.559H90.869v3.231a9.13 9.13 0 0 1-2.692 6.499 9.133 9.133 0 0 1-6.498 2.691h-.001c-5.068 0-9.191-4.123-9.191-9.191v-3.23H63.95v13.895a3 3 0 0 1-2.999 3l-6.191.001a3.195 3.195 0 0 0-3.192 3.191c0 .852.332 1.653.935 2.256a3.169 3.169 0 0 0 2.256.934h6.191a3 3 0 0 1 3 3v11.108h11.67a3 3 0 0 1 3 3v6.191a3.196 3.196 0 0 0 3.192 3.191c.852 0 1.653-.333 2.256-.935a3.173 3.173 0 0 0 .934-2.256v-6.191c0-.796.316-1.559.879-2.121a2.996 2.996 0 0 1 2.121-.879h13.393l.001-8.445h-3.199a9.13 9.13 0 0 1-6.499-2.692"/><path fill="#E9886C" d="M161.05 78.251c0 5.068-4.123 9.191-9.191 9.191h-3.191v10.286h13.509a3 3 0 0 1 3 3v6.414a3.195 3.195 0 0 0 3.191 3.191 3.195 3.195 0 0 0 3.191-3.191v-6.414a3 3 0 0 1 3-3h11.434V87.481h-3.191c-5.067 0-9.19-4.123-9.19-9.19 0-5.068 4.123-9.191 9.19-9.192h3.191v-8.655h-13.039a3 3 0 0 1-3-3v-6.191a3.195 3.195 0 0 0-3.191-3.191 3.17 3.17 0 0 0-2.257.935 3.17 3.17 0 0 0-.934 2.256v6.191a3.003 3.003 0 0 1-3 3h-11.904v8.616h3.191c5.068 0 9.191 4.123 9.191 9.191"/><path fill="#FACD60" d="M95 78.249a3.195 3.195 0 0 0 3.191 3.191h6.205a3 3 0 0 1 3 3v13.511h8.446V94.76c0-.634.065-1.252.187-1.85a9.221 9.221 0 0 1 7.154-7.154 9.25 9.25 0 0 1 1.85-.187c5.068 0 9.191 4.123 9.191 9.191v3.191h8.444V84.442a3 3 0 0 1 3-3h6.191a3.195 3.195 0 0 0 3.191-3.191 3.195 3.195 0 0 0-3.191-3.191h-6.191a3 3 0 0 1-3-3V60.447H131.27a2.999 2.999 0 0 1-3-3l.001-5.919a3.17 3.17 0 0 0-.935-2.257 3.173 3.173 0 0 0-2.256-.934 3.194 3.194 0 0 0-3.191 3.191v5.919a3 3 0 0 1-3 3h-11.507v11.611a2.998 2.998 0 0 1-3 3h-6.191A3.195 3.195 0 0 0 95 78.249m39.197 70.165c0 5.068-4.123 9.191-9.191 9.191-5.068 0-9.191-4.123-9.191-9.191v-3.191h-8.419v13.559c0 1.656-1.344 3-3 3h-6.199a3.194 3.194 0 0 0-3.191 3.19c0 .853.332 1.654.935 2.257a3.17 3.17 0 0 0 2.256.934h6.199a3 3 0 0 1 3 3l-.001 11.407 12.788.038a3 3 0 0 1 2.991 3v6.191a3.195 3.195 0 0 0 3.191 3.191 3.195 3.195 0 0 0 3.191-3.191v-6.191a3 3 0 0 1 2.989-3l10.123-.036v-8.458h-3.191c-5.068 0-9.191-4.123-9.191-9.191 0-5.068 4.123-9.191 9.191-9.191h3.191v-10.509h-8.471v3.191"/><path fill="#FACD60" d="M63.094 82.379a3 3 0 0 1 .879 2.122v13.45h11.511a3 3 0 0 1 3 2.999v6.276a3.12 3.12 0 0 0 .923 2.222 3.16 3.16 0 0 0 2.246.923h.013c1.766-.006 3.203-1.438 3.202-3.191v-6.229a3.001 3.001 0 0 1 3-3h13.528V87.44h-3.205c-5.068 0-9.191-4.123-9.191-9.191 0-5.068 4.123-9.191 9.191-9.191h3.191v-8.681H90.523l.001 3.191a9.13 9.13 0 0 1-2.692 6.499 9.135 9.135 0 0 1-6.499 2.692c-5.068 0-9.191-4.124-9.191-9.191v-3.191h-8.169v11.742a3 3 0 0 1-3 3h-6.19a3.195 3.195 0 0 0-3.192 3.191 3.195 3.195 0 0 0 3.191 3.191h6.191c.795 0 1.559.316 2.121.878m88.765 42.398a3.18 3.18 0 0 0 1.043-.187c.061-.022.126-.033.185-.058.125-.052.241-.124.358-.191.062-.036.13-.063.189-.103a3.224 3.224 0 0 0 .874-.873c.068-.101.118-.213.175-.322.038-.074.086-.144.118-.222.052-.123.084-.255.121-.386.019-.071.049-.139.064-.213.036-.178.051-.363.056-.551 0-.028.008-.055.008-.084a3.194 3.194 0 0 0-3.191-3.189h-6.191a2.998 2.998 0 0 1-2.121-.879 3.004 3.004 0 0 1-.56-.804c-.027-.054-.062-.103-.085-.159-.05-.119-.08-.244-.114-.368-.018-.066-.046-.128-.059-.195a2.959 2.959 0 0 1-.061-.595v-11.447h-11.444a3 3 0 0 1-3-3V94.76a3.195 3.195 0 0 0-3.191-3.191 3.195 3.195 0 0 0-3.191 3.191v6.191a3 3 0 0 1-3 3h-11.446v11.429a3 3 0 0 1-3 3l-6.233.001a3.194 3.194 0 0 0-3.191 3.19c0 .853.332 1.654.935 2.257a3.182 3.182 0 0 0 2.255.934h6.234a3 3 0 0 1 3 3v11.461h11.419a3 3 0 0 1 3 3v6.191a3.194 3.194 0 0 0 3.191 3.191 3.195 3.195 0 0 0 3.191-3.191v-6.191a3 3 0 0 1 3-3h11.471v-11.446a3 3 0 0 1 3-3h6.191"/><path fill="#E9886C" d="M207.026 175.597c0-.796.317-1.558.879-2.121l4.049-4.049a3.17 3.17 0 0 0 .935-2.256c0-.852-.332-1.653-.934-2.256a3.195 3.195 0 0 0-4.513 0l-4.049 4.049a3.001 3.001 0 0 1-4.243 0l-9.82-9.82-6.001 6.001 2.256 2.256a9.13 9.13 0 0 1 2.692 6.499 9.13 9.13 0 0 1-2.692 6.499 9.13 9.13 0 0 1-6.499 2.692 9.13 9.13 0 0 1-6.499-2.692l-2.256-2.256-7.431 7.431 9.552 9.552a3.003 3.003 0 0 1 0 4.243l-4.378 4.377a3.169 3.169 0 0 0-.934 2.256c0 .852.331 1.654.934 2.256a3.194 3.194 0 0 0 4.513 0l4.377-4.377a2.992 2.992 0 0 1 2.122-.879c.767 0 1.535.293 2.121.879l8.12 8.12 9.498-9.498a3 3 0 0 1 4.243-.001l4.378 4.378c1.205 1.206 3.307 1.205 4.512 0a3.172 3.172 0 0 0 .935-2.257c0-.852-.332-1.653-.934-2.256l-4.378-4.377a2.996 2.996 0 0 1 0-4.243l8.177-8.176-7.853-7.852a3 3 0 0 1-.879-2.122"/><path fill="#75C7D0" d="M165.177 142.223v6.191a3.195 3.195 0 0 0 3.191 3.191 3.195 3.195 0 0 0 3.191-3.191v-6.191a3 3 0 0 1 3-3h11.487V127.99a3 3 0 0 1 3-3h6.191a3.195 3.195 0 0 0 3.191-3.191 3.195 3.195 0 0 0-3.191-3.191h-6.191a3 3 0 0 1-3-3v-11.88h-8.487v3.414c0 5.068-4.123 9.191-9.191 9.191-5.068 0-9.191-4.123-9.191-9.191v-3.414h-10.509v8.666l3.191.001c5.068 0 9.191 4.123 9.191 9.191v.003c0 .025-.004.048-.004.073a9.261 9.261 0 0 1-.043.853c-.007.075-.023.147-.032.221-.029.233-.06.465-.107.693-.008.041-.021.081-.03.121a9.117 9.117 0 0 1-2.476 4.535 9.188 9.188 0 0 1-2.925 1.971 9.126 9.126 0 0 1-.699.256c-.053.018-.104.04-.158.056-.177.055-.359.096-.54.14-.118.029-.233.064-.353.088-.102.02-.206.03-.309.047a9.118 9.118 0 0 1-1.515.136h-3.191v8.444h13.509a3 3 0 0 1 3 3"/><path fill="#434A4F" d="M42.703 71.42l2.856.928.538-1.657c.563-1.733 2.103-2.853 3.925-2.853h.001c1.821 0 3.362 1.118 3.925 2.85l.539 1.657 2.855-.929-.539-1.657c-.562-1.732.025-3.543 1.498-4.614 1.474-1.071 3.379-1.073 4.852-.002l1.41 1.023 1.764-2.43-1.409-1.024c-1.474-1.07-2.063-2.881-1.501-4.613.562-1.733 2.103-2.853 3.924-2.853l1.742-.001v-3.003l-1.742.001h-.002c-1.821 0-3.361-1.119-3.925-2.85-.563-1.733.025-3.544 1.498-4.616l1.409-1.024-1.717-2.362-1.409 1.024c-1.473 1.072-3.377 1.073-4.852.002-1.474-1.069-2.063-2.88-1.501-4.613l.538-1.657-2.857-.927-.537 1.657c-.563 1.733-2.103 2.853-3.925 2.853h-.001c-1.821.001-3.361-1.118-3.925-2.85l-.539-1.656-2.856.929.539 1.657c.563 1.731-.024 3.543-1.497 4.614-1.473 1.072-3.377 1.073-4.852.002l-1.41-1.023-1.764 2.43 1.41 1.024c1.474 1.07 2.063 2.881 1.501 4.614-.563 1.732-2.103 2.852-3.924 2.853h-1.742l.001 3.004 1.742-.001h.002c1.821 0 3.361 1.118 3.924 2.85.564 1.732-.024 3.544-1.497 4.615l-1.409 1.024 1.715 2.36 1.409-1.025c1.474-1.07 3.378-1.071 4.853-.001 1.473 1.071 2.062 2.881 1.5 4.614l-.538 1.656zm4.142 3.448l-6.662-2.162 1.155-3.56c.352-1.083-.168-1.939-.773-2.377-.604-.44-1.579-.671-2.501.001l-3.026 2.2-4.068-5.595 3.027-2.201c.921-.67 1.002-1.668.771-2.379-.231-.71-.884-1.468-2.022-1.468h-.001l-3.742.002L29 50.325l3.742-.001c1.14-.001 1.792-.76 2.022-1.47.231-.711.149-1.709-.773-2.379l-3.029-2.198 4.115-5.667 3.028 2.198c.921.668 1.896.438 2.501-.001.604-.44 1.124-1.295.771-2.378l-1.158-3.559 6.66-2.167 1.158 3.558c.352 1.084 1.276 1.469 2.023 1.469h.001c.747 0 1.671-.386 2.022-1.47l1.155-3.559 6.662 2.161-1.156 3.559c-.351 1.084.17 1.939.774 2.378.604.439 1.579.669 2.501-.001l3.026-2.201 4.07 5.597-3.027 2.201c-.921.67-1.003 1.668-.772 2.378.232.711.884 1.47 2.023 1.47h.001l3.742-.002.002 7.003-3.742.002c-1.14 0-1.792.759-2.023 1.47-.23.711-.148 1.709.773 2.378l3.029 2.198-4.115 5.668-3.028-2.199c-.923-.67-1.897-.439-2.5.001-.605.44-1.125 1.295-.772 2.378l1.157 3.559-6.66 2.166-1.157-3.558c-.352-1.083-1.276-1.469-2.023-1.469h-.001c-.747 0-1.671.387-2.022 1.47l-1.155 3.56z"/><path fill="#E9886C" d="M50.045 51.785c-.62 0-1.232.287-1.623.826a2.003 2.003 0 0 0 .447 2.793 2.002 2.002 0 0 0 2.793-.447 2.003 2.003 0 0 0-.446-2.792 1.995 1.995 0 0 0-1.171-.38zm-.009 5.998a3.978 3.978 0 0 1-2.34-.759 4.005 4.005 0 0 1-.893-5.586 4.003 4.003 0 0 1 5.585-.893h.001a4.006 4.006 0 0 1 .893 5.586 4 4 0 0 1-3.246 1.652z"/><path fill="#434A4F" d="M48.19 42.315a.997.997 0 0 1 .92-1.07.985.985 0 0 1 1.07.92.99.99 0 0 1-.92 1.07h-.07c-.52 0-.96-.4-1-.92zm4.73 1.29h-.01c-.53-.15-.84-.71-.69-1.24.16-.53.71-.84 1.24-.69.53.15.84.7.69 1.24-.12.44-.52.72-.96.72-.09 0-.18-.01-.27-.03zm-8.54.03c-.23-.51 0-1.1.5-1.32a1 1 0 1 1-.5 1.32zm11.87 1.58h-.01c-.01-.01-.01-.01-.02-.01v-.01s-.01 0-.02-.01c-.43-.32-.52-.94-.21-1.38.33-.45.95-.55 1.4-.23.01.01.02.02.03.02.45.33.55.95.22 1.4-.19.27-.5.41-.81.41a.96.96 0 0 1-.58-.19zm-15 .97c-.38-.4-.38-1.03.02-1.42.4-.38 1.03-.37 1.41.02.39.4.38 1.03-.01 1.41-.2.19-.45.29-.7.29-.26 0-.52-.1-.72-.3zm17.55 1.67c-.3-.46-.19-1.08.27-1.39a.999.999 0 0 1 1.39.27.999.999 0 0 1-.83 1.56 1 1 0 0 1-.83-.44zm-19.62 1.79a1 1 0 0 1-.46-1.34c.24-.5.84-.7 1.33-.46.5.24.71.84.47 1.34-.18.35-.53.56-.9.56-.15 0-.3-.03-.44-.1zm21.12 1.56a1 1 0 0 1 .73-1.21.992.992 0 0 1 1.21.73 1.004 1.004 0 0 1-.97 1.24c-.45 0-.86-.3-.97-.76zm-21.88 2.4a.988.988 0 0 1-.89-1.1c.05-.54.54-.95 1.09-.89.55.06.95.55.9 1.1-.06.51-.49.9-1 .9-.03 0-.07-.01-.1-.01zm23.04 2.36a1 1 0 0 1-.9-1.09c.06-.55.55-.95 1.1-.9a1 1 0 0 1 .89 1.1.99.99 0 0 1-.99.9c-.03 0-.07 0-.1-.01zm-23.61.9a.989.989 0 0 1 .72-1.21.996.996 0 1 1 .25 1.96c-.45 0-.86-.3-.97-.75zm22.17 2.87c-.5-.24-.7-.84-.46-1.33.24-.5.84-.71 1.34-.47.49.25.7.84.46 1.34-.18.36-.53.56-.9.56-.15 0-.3-.03-.44-.1zm-20.39 1.11a.989.989 0 0 1 .27-1.38.99.99 0 0 1 1.39.26.999.999 0 0 1-.83 1.56 1 1 0 0 1-.83-.44zm17.76 1.95a.999.999 0 0 1 .02-1.42v.01a.996.996 0 0 1 1.41.01c.38.4.37 1.03-.02 1.42a.99.99 0 0 1-.7.28c-.26 0-.52-.1-.71-.3zm-14.71 1.18a.994.994 0 0 1-.23-1.39c.33-.45.95-.55 1.4-.23.45.33.55.95.22 1.4-.19.27-.5.41-.81.41a.96.96 0 0 1-.58-.19zm11.18.78c-.22-.5 0-1.09.51-1.32.5-.22 1.09 0 1.32.51.22.5 0 1.09-.51 1.32-.13.06-.27.09-.4.09a1 1 0 0 1-.92-.6zm-7.25 1.13a.99.99 0 0 1-.69-1.23.99.99 0 0 1 1.23-.69c.53.15.84.7.69 1.23a.993.993 0 0 1-1.23.69zm3.27-.48a.997.997 0 0 1 .92-1.07.986.986 0 0 1 1.07.92.99.99 0 0 1-.92 1.07c-.02 0-.05.01-.07.01-.52 0-.96-.41-1-.93z"/><path fill="#42494E" d="M144.116 203.725l-65.775.001c-1.654 0-3 1.345-3 2.999 0 1.654 1.346 3 3 3h65.775l6.506-3-6.506-3zm.439 8H78.341c-2.757 0-5-2.243-5-5a5.005 5.005 0 0 1 5-4.999l66.213-.001 10.844 5-10.843 5z"/><path fill="#42494E" d="M83.951 210.725h2v-7.598h-2z"/><path fill="#42494E" d="M84.951 207.696h58.616v-2H84.951z"/><path fill="#434A4F" d="M213 136.608h2v-4h-2zM213 146.608h2v-4h-2zM217 140.608h4v-2h-4zM207 140.608h4v-2h-4zM203 39.608h2v-4h-2zM203 49.608h2v-4h-2zM207 43.608h4v-2h-4zM197 43.608h4v-2h-4zM35 195.608h2v-4h-2zM35 205.608h2v-4h-2zM39 199.608h4v-2h-4zM29 199.608h4v-2h-4z"/><path fill="#FACD60" d="M207 95.608a2 2 0 1 1-4.001-.001 2 2 0 0 1 4.001.001m8 23a1 1 0 1 1-2 0 1 1 0 0 1 2 0m-58.999 46a3 3 0 1 0 6 0 3 3 0 0 0-6 0M39 151.608a2 2 0 1 0 4 0 2 2 0 0 0-4 0"/></g></svg>