<?xml version="1.0" encoding="utf-8"?><svg xmlns="http://www.w3.org/2000/svg" width="250" height="250" viewBox="0 0 250 250"><g fill="none" fill-rule="evenodd"><path fill="#DFE0E0" d="M100.449 166.531h-9.375l-8.552 14h9.375l8.552-14M157.467 166.531h-9.375l8.552 14h9.375l-8.552-14M121.032 180.531h8v-14h-8z"/><path fill="#DEDEDD" d="M40.533 66.531h167.999v-10H40.533z"/><path fill="#48515A" d="M42.033 165.531h166v-108h-166v108zm-2 2h170v-112h-170v112z"/><path fill="#48515A" d="M36.033 55.531h178v-8h-178v8zm-2 2h182v-12h-182v12zM108.909 70.534h26.002v-2h-26.002zM190.66 33.468h2v-4h-2zM190.66 43.469h2v-4h-2zM194.66 37.468h4v-2h-4zM184.66 37.468h4v-2h-4zM80.681 77.557h2v-4h-2zM80.681 87.557h2v-4h-2zM84.681 81.557h4v-2h-4zM74.681 81.557h4v-2h-4z"/><path fill="#FFD15D" d="M68.865 121.585a4 4 0 1 0-8 0 4 4 0 0 0 8 0"/><path fill="#48515A" d="M189.334 75.523l4.639 4.639 1.014-8.787-8.218 1.584 2.565 2.565v-.001zm-140.222 75.8l-1.414-1.415 19.589-19.588 11.208 11.208 33.626-33.626 11.209 11.209 33.626-33.626 11.208 11.209 19.755-19.756-5.228-5.23 14.595-2.813-1.799 15.609-6.153-6.153-21.17 21.171-11.208-11.209-33.626 33.626-11.209-11.209-33.626 33.626-11.208-11.208-18.175 18.175z"/><path fill="#FFD15D" d="M198.532 89.368l-9.037-9.038-21.325 21.324-11.208-11.209-33.626 33.626-11.209-11.209-33.631 33.632-11.217-10.927-16.909 17.127v5.837l148.162-.372V89.368"/><path fill="#48515A" d="M108.909 74.536h26.002v-2h-26.002zM108.909 78.539h26.002v-2h-26.002zM153.694 65.531c-1.103 0-2 .897-2 2s.897 2 2 2c1.102 0 2-.897 2-2s-.898-2-2-2zm0 6c-2.206 0-4-1.794-4-4s1.794-4 4-4 4 1.794 4 4-1.794 4-4 4zm9.999 3.999c-1.103 0-2 .897-2 2s.897 2 2 2c1.102 0 2-.897 2-2s-.898-2-2-2zm0 6c-2.206 0-4-1.794-4-4s1.794-4 4-4 4 1.794 4 4-1.794 4-4 4zM151.401 81.238l-1.414-1.414 16-16 1.414 1.414-16 16M35.055 185.535h2v-4h-2zM35.055 195.535h2v-4h-2zM39.055 189.535h4v-2h-4zM29.055 189.535h4v-2h-4z"/><path fill="#475059" d="M99.138 95.819l-65.17.003c-1.654 0-3 1.345-3 3 0 .801.313 1.554.879 2.121a2.98 2.98 0 0 0 2.12.878h.001l65.17-.002 6.507-3-6.507-3zm-65.171 8.002c-1.335 0-2.59-.52-3.534-1.464a4.968 4.968 0 0 1-1.465-3.535c0-2.757 2.243-5 5-5l65.61-.003 10.842 5-10.842 5-65.61.002h-.001z"/><path fill="#475059" d="M39.578 102.821h2v-7.599h-2z"/><path fill="#475059" d="M40.578 99.792v-2l58.011-.002v2l-58.011.002"/><path fill="#48515A" d="M60.48 218.531h7.032l31.154-51h-7.032l-31.154 51zm8.153 2H56.915l33.598-55h11.718l-33.598 55zm112.396-2h7.032l-31.154-51h-7.032l31.154 51zm10.596 2h-11.717l-.293-.478-33.305-54.522h11.718l.293.479 33.304 54.521zm-69.592-2h6v-51h-6v51zm-2 2h10v-55h-10v55z"/><path fill="#F58E70" d="M196.032 148.528c-12.683 0-23 10.318-23 23s10.317 23 23 23c12.682 0 23-10.318 23-23s-10.318-23-23-23zm0 48c-13.785 0-25-11.215-25-25s11.215-25 25-25 25 11.215 25 25-11.215 25-25 25z"/><path fill="#48515A" d="M215.986 172.528h-3.556a1 1 0 1 1 0-2h3.556a1 1 0 1 1 0 2"/><path fill="#48515A" d="M215.986 172.528h-3.556a1 1 0 1 1 0-2h3.556a1 1 0 1 1 0 2m-9.838 17.484a.998.998 0 0 1-.867-.5l-1.778-3.079a1 1 0 1 1 1.733-1l1.777 3.079a1 1 0 0 1-.865 1.5m4.02-25.928a1 1 0 0 1-.501-1.866l3.08-1.778a1 1 0 1 1 1 1.732l-3.08 1.778a.992.992 0 0 1-.499.134m3.411 18.253a.992.992 0 0 1-.499-.134l-3.08-1.778a1 1 0 1 1 1-1.732l3.08 1.777a1.002 1.002 0 0 1-.501 1.867m-9.484-24.465a1 1 0 0 1-.865-1.5l1.778-3.079a1 1 0 1 1 1.733 1l-1.779 3.079a.998.998 0 0 1-.867.5M196.986 183.66h-2v-14.021h9.889v2h-7.889v12.021M196.029 155.639a1 1 0 0 1-1-1v-3.555a1 1 0 1 1 2 0v3.555a1 1 0 0 1-1 1m.001 37.333a1 1 0 0 1-1-1v-3.555a1 1 0 1 1 2 0v3.555a1 1 0 0 1-1 1m-16.446-20.444h-3.555a1 1 0 1 1 0-2h3.555a1 1 0 1 1 0 2"/><path fill="#48515A" d="M196.029 155.639a1 1 0 0 1-1-1v-3.555a1 1 0 1 1 2 0v3.555a1 1 0 0 1-1 1m.001 37.333a1 1 0 0 1-1-1v-3.555a1 1 0 1 1 2 0v3.555a1 1 0 0 1-1 1m-16.446-20.444h-3.555a1 1 0 1 1 0-2h3.555a1 1 0 1 1 0 2m6.283 17.484a1 1 0 0 1-.866-1.5l1.778-3.079a.998.998 0 0 1 1.366-.366.998.998 0 0 1 .366 1.366l-1.777 3.079a1 1 0 0 1-.867.5m-4.021-25.928a.992.992 0 0 1-.499-.134l-3.079-1.778a1 1 0 1 1 1-1.732l3.079 1.778a.999.999 0 0 1-.501 1.866m-3.41 18.253a1 1 0 0 1-.501-1.867l3.08-1.777a1 1 0 1 1 1 1.732l-3.08 1.778a.992.992 0 0 1-.499.134m9.483-24.465a1 1 0 0 1-.867-.5l-1.778-3.079a1 1 0 0 1 1.732-1l1.779 3.079a1 1 0 0 1-.866 1.5"/></g></svg>