<?xml version="1.0" encoding="utf-8"?><svg xmlns="http://www.w3.org/2000/svg" xmlns:xlink="http://www.w3.org/1999/xlink" width="192" height="163" viewBox="0 0 192 163"><defs><path id="fha" d="M.095.996h162.022V162.94H.095z"/></defs><g fill="none" fill-rule="evenodd"><path fill="#FFD15D" d="M80.558 141.987H63.112v-17.173l17.446 17.173zm-28.446-27.866v38.866h53.979l-10.702-10.713-32.625-32.595-10.652-10.693v15.135z"/><path fill="#DEDEDD" d="M83.493 73.855l3.478-3.479-61.292-61.66-6.314-2.842 2.843 6.327 61.285 61.654"/><path fill="#F58E70" d="M110.799 92.766a3.486 3.486 0 1 0-4.929 4.93l39.798 39.798a3.459 3.459 0 0 0 2.464 1.02h.001a3.484 3.484 0 0 0 2.465-5.949l-39.799-39.799"/><g transform="translate(14)"><mask id="fhb" fill="#fff"><use xlink:href="#fha"/></mask><path fill="#F58E70" d="M140.839 141.737a9.42 9.42 0 0 1-6.705 2.777h-.002a9.413 9.413 0 0 1-6.706-2.778l-39.799-39.798c-3.702-3.706-3.7-9.711.005-13.414 3.704-3.701 9.706-3.701 13.409 0l39.799 39.799c3.698 3.707 3.698 9.708-.001 13.414zm12.202-12.247l-48.945-48.944-16.25.135.131-16.255-.285-.285-24.447 24.448.284.284 16.256-.131-.136 16.251 48.944 48.944c6.749 6.753 17.695 6.757 24.448.008s6.756-17.695.007-24.448l-.007-.007z" mask="url(#fhb)"/><path fill="#475059" d="M27.425 162.993a27.262 27.262 0 0 1-7.092-.935l-1.671-.449 15.519-15.519-3.468-13.697-13.697-3.467-15.518 15.518-.45-1.671c-3.938-14.586 4.693-29.603 19.279-33.541a27.346 27.346 0 0 1 16.046.548l21.922-21.922 1.414 1.414-22.822 22.823-.601-.224c-13.127-4.875-27.72 1.814-32.595 14.941a25.35 25.35 0 0 0-1.11 13.721l13.825-13.825 15.953 4.039 4.039 15.954-13.824 13.824c13.739 2.703 27.068-6.245 29.77-19.984a25.342 25.342 0 0 0-1.11-13.721l-.223-.601 24.956-24.956 1.414 1.415-24.055 24.055c4.926 14.274-2.653 29.839-16.928 34.765a27.314 27.314 0 0 1-8.973 1.495m74.356-84.715l-1.414-1.414 24.958-24.959.601.223c13.126 4.876 27.72-1.813 32.595-14.939a25.355 25.355 0 0 0 1.11-13.722l-13.825 13.825-15.953-4.039-4.04-15.953 13.825-13.826c-13.739-2.702-27.068 6.245-29.77 19.985a25.338 25.338 0 0 0 1.11 13.72l.223.602-22.815 22.814-1.414-1.415 21.914-21.913c-4.924-14.284 2.664-29.854 16.947-34.778a27.354 27.354 0 0 1 16.046-.547l1.671.449-15.519 15.519 3.468 13.697 13.697 3.467 15.518-15.519.45 1.671c3.938 14.586-4.693 29.603-19.278 33.542a27.361 27.361 0 0 1-16.048-.548l-24.057 24.058" mask="url(#fhb)"/><path fill="#475059" d="M77.642 105.815l49.537 49.536A19.158 19.158 0 0 0 140.816 161h.002c10.651.001 19.286-8.634 19.287-19.286a19.288 19.288 0 0 0-5.65-13.638l-49.537-49.537-15.056.125.121-15.06-2.291-2.291-27.276 27.276 2.291 2.291 15.061-.122-.126 15.057zM140.816 163a21.14 21.14 0 0 1-15.051-6.235l-50.13-50.129.116-13.861-13.865.112-4.298-4.298 30.104-30.104 4.298 4.298-.112 13.864 13.861-.115 50.13 50.13c8.313 8.313 8.313 21.79.001 30.103A21.288 21.288 0 0 1 140.818 163h-.002z" mask="url(#fhb)"/></g><path fill="#475059" d="M104.456 99.11l39.798 39.798a5.45 5.45 0 0 0 3.878 1.606h.002a5.485 5.485 0 0 0 3.878-9.363l-39.799-39.799a5.448 5.448 0 0 0-3.876-1.605h-.001a5.485 5.485 0 0 0-3.88 9.363zm43.676 43.404a7.43 7.43 0 0 1-5.292-2.192l-39.798-39.798a7.484 7.484 0 0 1 0-10.586 7.485 7.485 0 0 1 10.585 0l39.799 39.799a7.486 7.486 0 0 1-5.292 12.777h-.002zM20.532 13.353l62.956 63.335 6.307-6.307L26.837 7.044l-8.55-3.848-1.599 1.599 3.844 8.558zm62.952 66.168L18.857 14.505 14.298 4.357 17.849.805l10.146 4.567.13.131L92.62 70.385l-9.136 9.136z"/><path fill="#48515A" d="M183.106 107.988h2v-4h-2zM183.106 117.988h2v-4h-2zM187.106 111.988h4v-2h-4zM177.106 111.988h4v-2h-4zM6 56.958h2v-4H6zM6 66.958h2v-4H6zM10 60.958h4v-2h-4zM0 60.958h4v-2H0z"/><path fill="#475059" d="M35.462 97.946h3.578l1.774-4.023 3.295-1.903 4.372.476 1.789-3.099-2.598-3.548v-3.806l2.598-3.547-1.789-3.099-4.372.475-3.295-1.902-1.774-4.024h-3.578l-1.774 4.024-3.296 1.902-4.371-.475-1.789 3.099 2.598 3.547v3.806l-2.598 3.548 1.789 3.099 4.371-.476 3.296 1.903 1.774 4.023zm4.882 2h-6.186l-2.036-4.618-2.164-1.249-5.017.546-3.093-5.358 2.982-4.072v-2.497l-2.982-4.073 3.093-5.357 5.017.546 2.164-1.25 2.036-4.618h6.186l2.036 4.618 2.163 1.25 5.018-.546 3.093 5.357-2.982 4.073v2.497l2.982 4.073-3.093 5.357-5.018-.546-2.163 1.249-2.036 4.618z"/><path fill="#475059" d="M37.251 81.946a2 2 0 1 0-.001 3.999 2 2 0 0 0 .001-3.999zm0 6a4 4 0 1 1 0-8 4 4 0 0 1 0 8z"/><path fill="#475059" d="M37.251 77.946a6 6 0 1 0 6 6 6.007 6.007 0 0 0-6-6zm0 14a8 8 0 1 1 8-8 8.01 8.01 0 0 1-8 8zm81.248-26.01h65.171a3 3 0 1 0 0-6h-65.171l-6.506 3 6.506 3zm65.171 2h-65.61l-10.844-5 10.844-5h65.61a5 5 0 1 1 0 10z"/><path fill="#475059" d="M175.63 66.936h2v-8h-2z"/><path fill="#475059" d="M118.63 63.936h58v-2h-58z"/><path fill="#5FE0ED" d="M85.142 27.964a4 4 0 1 1 0 8 4 4 0 0 1 0-8"/><path fill="#F58E70" d="M165.112 94.041a2 2 0 1 1 .001 3.999 2 2 0 0 1-.001-3.999m-43.026 56.034a2 2 0 1 1 .001 3.999 2 2 0 0 1-.001-3.999"/></g></svg>