<?xml version="1.0" encoding="utf-8"?><svg xmlns="http://www.w3.org/2000/svg" width="250" height="250" viewBox="0 0 250 250"><g fill="none" fill-rule="evenodd"><path fill="#5FE0ED" d="M125 59.75c-34.462 0-62.5 28.037-62.5 62.5s28.038 62.5 62.5 62.5c34.463 0 62.5-28.037 62.5-62.5s-28.037-62.5-62.5-62.5zm0 152c-49.351 0-89.5-40.149-89.5-89.5s40.149-89.5 89.5-89.5 89.5 40.149 89.5 89.5-40.149 89.5-89.5 89.5z"/><path fill="#48515A" d="M35 92.25h2v-4h-2zM35 102.25h2v-4h-2zM39 96.25h4v-2h-4zM29 96.25h4v-2h-4zM213 160.25h2v-4h-2zM213 170.25h2v-4h-2zM217 164.25h4v-2h-4zM207 164.25h4v-2h-4zM177 52.25h2v-4h-2zM177 62.25h2v-4h-2zM181 56.25h4v-2h-4zM171 56.25h4v-2h-4z"/><path fill="#5FE0ED" d="M158.165 184.769h19.132V172.47h-19.132zM70.635 184.769h19.132V172.47H70.635z"/><path fill="#475059" d="M204.149 149.25h-46.722v-2h44.722v-8.538l-12.583-47.186h-30.515v-2h32.053l13.045 49.055v10.669M91.051 149.25h-45.2l.034-10.927 13.012-48.797h40.155v2H60.433l-12.582 47.186v8.538h43.2v2M106.385 211.126h2v-26.597h-2zM139.396 211.126h2v-26.597h-2z"/><path fill="#475059" d="M198.214 217.25H50.464v-69h2v67h143.75v-67h2v69"/><path fill="#475059" d="M67.534 187.871h25.337v-18.892H67.534v18.892zm-2 2h29.337v-22.892H65.534v22.892z"/><path fill="#475059" d="M79.202 188.871h2v-20.892h-2zM155.012 187.871h25.336v-18.892h-25.336v18.892zm-2 2h29.336v-22.892h-29.336v22.892z"/><path fill="#475059" d="M166.68 188.871h2v-20.892h-2zM100.338 215.207h47.206v-3.467h-47.206v3.467zm-2 2h51.206v-7.467H98.338v7.467z"/><path fill="#F58E70" d="M187.184 94.627h-27.948a9.942 9.942 0 0 1-3.629 6.959 9.638 9.638 0 0 1 2.676 3.324c1.852 3.827 1.002 8.264-1.78 11.167l-12.149 22.439a1.6 1.6 0 0 0-.192.761v4.851h54.886v-5.009l-11.864-44.492m-83.539 46.177l-2.332 1.056a9.667 9.667 0 0 1-4.222.965 9.965 9.965 0 0 1-3.276-.556 9.838 9.838 0 0 1-5.662-5.04c-2.032-4.199-.815-9.134 2.645-11.968a9.873 9.873 0 0 1-2.645-3.351 9.833 9.833 0 0 1-.44-7.566 9.826 9.826 0 0 1 2.901-4.25 9.845 9.845 0 0 1-2.461-3.183c-2.11-4.358-.721-9.513 3.046-12.284H62.815l-11.864 44.492v5.009h52.694v-3.324"/><path fill="#475059" d="M149.359 73.004c-.861 0-1.736.189-2.562.59l-52.325 23.7c-2.907 1.407-4.137 4.944-2.719 7.875a5.868 5.868 0 0 0 3.375 3.004 5.874 5.874 0 0 0 4.511-.263l52.313-23.695a5.863 5.863 0 0 0 2.993-3.369 5.865 5.865 0 0 0-.262-4.511 5.91 5.91 0 0 0-5.324-3.331zm-52.278 37.5a7.921 7.921 0 0 1-7.128-4.464c-1.898-3.923-.252-8.659 3.671-10.558l52.325-23.7c3.899-1.887 8.635-.242 10.534 3.682a7.852 7.852 0 0 1 .351 6.039 7.848 7.848 0 0 1-4.021 4.517l-.024.011-52.302 23.691a7.804 7.804 0 0 1-3.406.782z"/><path fill="#475059" d="M97.081 125.503a7.921 7.921 0 0 1-7.128-4.464c-1.898-3.923-.251-8.658 3.671-10.557l6.058-2.591.786 1.839-6.015 2.573c-2.888 1.398-4.118 4.935-2.7 7.865a5.908 5.908 0 0 0 7.886 2.741l52.326-23.7c2.906-1.407 4.136-4.944 2.718-7.875-1.454-3.002-4.579-4.177-7.429-2.796l-.871-1.801c3.833-1.853 8.175-.253 10.1 3.726 1.899 3.923.252 8.659-3.67 10.558l-52.326 23.7a7.804 7.804 0 0 1-3.406.782"/><path fill="#475059" d="M97.079 140.822a7.937 7.937 0 0 1-2.607-.442 7.852 7.852 0 0 1-4.519-4.023c-1.898-3.922-.251-8.658 3.671-10.556l6.018-2.893.866 1.803-6.015 2.892a5.908 5.908 0 0 0-2.74 7.883 5.86 5.86 0 0 0 3.375 3.004 5.87 5.87 0 0 0 4.511-.262l52.326-23.701c2.906-1.407 4.136-4.944 2.718-7.875-1.405-2.902-5.249-4.181-8.226-2.741l-.871-1.801c3.936-1.904 9.028-.189 10.897 3.671 1.899 3.923.252 8.659-3.67 10.558l-52.326 23.7a7.797 7.797 0 0 1-3.408.783m27.491-57.216l-8.18-1.092c-4.304-.423-7.486-4.297-7.06-8.634a7.85 7.85 0 0 1 2.85-5.336 7.846 7.846 0 0 1 5.789-1.757l33.445 4.468-.266 1.982-33.409-4.464a5.844 5.844 0 0 0-4.29 1.317 5.868 5.868 0 0 0-2.129 3.985 5.91 5.91 0 0 0 5.3 6.452l8.215 1.097-.265 1.982"/><path fill="#475059" d="M119.15 149.25h-13.505v-12.88h2v10.88h9.505v-16.214h2v18.214M142.162 149.25h-13.506v-13.72c0-.728.14-1.439.415-2.115l4.136-10.14 1.852.756-4.136 10.139a3.59 3.59 0 0 0-.267 1.36v11.72h9.506v-7.973c0-.928.234-1.85.675-2.667l12.346-22.8 1.757.953-12.344 22.8a3.626 3.626 0 0 0-.434 1.714v9.973"/><path fill="#475059" d="M113.094 185.764h21.618l4.208-8.046v-11.675l13.898-6.899v-9.894H95.276v9.899l13.61 6.9v11.669l4.208 8.046zm22.829 2h-24.04l-4.997-9.554v-10.933l-13.61-6.899V147.25h61.542v13.134l-13.898 6.899v10.927l-4.997 9.554z"/><path fill="#475059" d="M107.886 167.664h32.034v-2h-32.034zM124.118 192.494a10.237 10.237 0 0 1-8.905-5.208l1.742-.982a8.233 8.233 0 0 0 7.163 4.19 8.225 8.225 0 0 0 7.184-4.227l1.748.97a10.224 10.224 0 0 1-8.932 5.257"/><path fill="#F58E70" d="M126.656 135.53v10.017h-5.505v-12.672l7.336-3.323-1.27 3.11a7.576 7.576 0 0 0-.561 2.868"/><path fill="#DFE0E0" d="M133.502 183.764h-19.197l-3.419-6.537v-7.563h26.035v7.563l-3.419 6.537M150.818 157.903l-11.604 5.761h-30.609l-11.329-5.743 53.542-.018M109.645 138.086l5.506-2.494v9.955h-5.506v-7.461M139.078 135.658a7.639 7.639 0 0 0-.916 3.619v6.27h-5.506V135.53c0-.208.04-.413.118-.604l3.662-8.975 10.464-4.74-7.822 14.447"/></g></svg>