<?xml version="1.0" encoding="utf-8"?><svg xmlns="http://www.w3.org/2000/svg" width="250" height="250" viewBox="0 0 250 250"><g fill="none" fill-rule="evenodd"><path fill="#DBDBD5" d="M82.828 173.663l23.418 23.417H82.828l-2.166-12.833 2.166-10.584"/><path fill="#FACD60" d="M82.828 197.505v-23.842H58.986"/><path fill="#434A4F" d="M83.242 196.505h80.074V55.451H59.986v117.798l23.256 23.256zm82.074 2H82.414l-24.428-24.428V53.451h107.33v145.054zM62.986 196.45h2v-4h-2zM62.986 206.45h2v-4h-2zM66.986 200.45h4v-2h-4zM56.986 200.45h4v-2h-4zM118.991 43.374h2v-4h-2zM118.991 53.374h2v-4h-2zM122.991 47.374h4v-2h-4zM112.991 47.374h4v-2h-4z"/><path fill="#75C7D0" d="M43.016 164.422a2.015 2.015 0 1 0-4.03 0 2.015 2.015 0 0 0 4.03 0"/><path fill="#E9886C" d="M51.221 105.918a1.767 1.767 0 1 0 0 3.534 1.767 1.767 0 0 0 0-3.534"/><path fill="#434A4F" d="M35 146.419h2v-4h-2zM35 156.419h2v-4h-2zM39 150.419h4v-2h-4zM29 150.419h4v-2h-4z"/><path fill="#FACD60" d="M176 112.813l-.002-2 7.57-.007.002 2-7.57.007"/><path fill="#FACD60" d="M180.938 205.772l-2-.002.075-93.962 2 .002-.075 93.962"/><path fill="#42494E" d="M176.924 206.322l2.979 6.47 2.992-6.478.08-101.095a2.956 2.956 0 0 0-.872-2.109 2.957 2.957 0 0 0-2.106-.872h-.003a2.997 2.997 0 0 0-2.99 2.99l-.08 101.094zm2.977 11.246l-4.977-10.809v-.219l.08-101.314a5 5 0 0 1 4.988-4.988h.005c1.33 0 2.58.517 3.52 1.457a4.95 4.95 0 0 1 1.458 3.526l-.08 101.532-4.994 10.815z"/><path fill="#434A4F" d="M71 68.374h12v-2H71zM71 78.374h84v-2H71zM71 82.374h76v-2H71zM73 94.374h6v-6h-6v6zm-2 2h10v-10H71v10zm2 10.001h6v-6h-6v6zm-2 2h10V98.374H71v10.001zM84 92.374h24v-2H84zM84 104.375h24v-2H84zM119 94.374h6v-6h-6v6zm-2 2h10v-10h-10v10zm2 10.001h6v-6h-6v6zm-2 2h10V98.374h-10v10.001zM130 92.374h24v-2h-24zM130 104.375h24v-2h-24zM71 118.399h84v-2H71zM71 122.399h76v-2H71zM73 134.399h6v-6h-6v6zm-2 2h10v-10H71v10zm2 10h6v-6h-6v6zm-2 2h10v-10H71v10zM84 132.399h24v-2H84zM84 144.399h24v-2H84zM119 134.399h6v-6h-6v6zm-2 2h10v-10h-10v10zm2 10h6v-6h-6v6zm-2 2h10v-10h-10v10zM130 132.399h24v-2h-24zM130 144.399h24v-2h-24zM71 157.422h84v-2H71zM71 161.422h76v-2H71zM73 173.422h6v-6h-6v6zm-2 2h10v-10H71v10zM84 171.422h24v-2H84zM84 183.422h24v-2H84zM119 173.422h6v-6h-6v6zm-2 2h10v-10h-10v10zm2 10h6v-6h-6v6zm-2 2h10v-10h-10v10zM130 171.422h24v-2h-24zM130 183.422h24v-2h-24z"/><path fill="#FACD60" d="M82.828 188.876v-15.213H64.5l18.328 15.213"/><path fill="#42494E" d="M184.267 63.268c-2.895-5.697-.617-12.687 5.08-15.582a11.503 11.503 0 0 1 8.843-.687 11.506 11.506 0 0 1 6.739 5.766l-1.783.906a9.528 9.528 0 0 0-5.576-4.771 9.528 9.528 0 0 0-7.317.569c-4.713 2.396-6.599 8.179-4.203 12.893l-1.783.906"/><path fill="#E9886C" d="M194.574 54.471c-.934 0-1.813.364-2.474 1.026a3.473 3.473 0 0 0-1.026 2.474c0 .935.364 1.814 1.026 2.475 1.324 1.323 3.629 1.322 4.95 0a3.504 3.504 0 0 0 0-4.949 3.475 3.475 0 0 0-2.476-1.026zm0 10a6.457 6.457 0 0 1-4.595-1.904 6.458 6.458 0 0 1-1.905-4.596c0-1.736.677-3.368 1.905-4.596a6.457 6.457 0 0 1 4.595-1.904c1.737 0 3.369.676 4.597 1.904a6.508 6.508 0 0 1 0 9.192 6.457 6.457 0 0 1-4.597 1.904z"/><path fill="#434A4F" d="M191.046 74.893c.26 0 .523.021.789.063 2.085.333 3.644 1.894 3.972 3.979l.359 2.287 4.001-.629-.36-2.288c-.328-2.084.675-4.049 2.557-5.005 1.879-.958 4.06-.611 5.552.885l1.636 1.64 2.867-2.862-1.637-1.639c-1.49-1.494-1.833-3.674-.873-5.553.961-1.88 2.934-2.883 5.011-2.547l2.288.364.638-3.999-2.287-.365c-2.084-.332-3.643-1.894-3.971-3.979-.327-2.084.677-4.049 2.558-5.005l2.064-1.05-1.79-3.521-2.065 1.049c-1.882.955-4.06.61-5.55-.884-1.491-1.494-1.834-3.673-.874-5.553l1.053-2.063-3.607-1.842-1.054 2.063c-.959 1.879-2.924 2.876-5.01 2.547-2.084-.332-3.643-1.894-3.972-3.979l-.36-2.288-4.001.629.361 2.289c.327 2.084-.676 4.049-2.558 5.005-1.878.957-4.059.609-5.551-.885l-1.635-1.638-2.868 2.861 1.636 1.64c1.49 1.493 1.834 3.672.874 5.551-.96 1.88-2.925 2.887-5.01 2.548l-2.289-.364-.637 4 2.287.364c2.085.332 3.643 1.895 3.972 3.98.327 2.085-.677 4.049-2.558 5.005l-2.064 1.049 1.788 3.518 2.064-1.049c1.879-.954 4.06-.608 5.552.885 1.49 1.494 1.833 3.674.873 5.554l-1.054 2.061 3.608 1.843 1.053-2.063c.838-1.639 2.442-2.609 4.222-2.609zm3.454 8.616l-.67-4.263c-.231-1.472-1.345-2.161-2.309-2.315-.967-.156-2.238.154-2.916 1.482l-1.963 3.843-7.17-3.663 1.964-3.842c.677-1.328.182-2.54-.508-3.231-.691-.691-1.902-1.189-3.23-.515l-3.847 1.955-3.6-7.084 3.847-1.956c1.328-.674 1.639-1.946 1.488-2.911-.152-.965-.839-2.08-2.311-2.315l-4.261-.679 1.266-7.951 4.263.681c1.474.232 2.471-.613 2.915-1.483.444-.87.544-2.176-.509-3.23l-3.048-3.054 5.698-5.688 3.049 3.055c1.053 1.054 2.359.955 3.229.515.871-.443 1.72-1.441 1.487-2.912l-.671-4.264 7.954-1.252.67 4.265c.232 1.471 1.346 2.16 2.311 2.314.96.154 2.236-.155 2.914-1.482l1.964-3.844 7.17 3.662-1.964 3.844c-.678 1.327-.182 2.539.509 3.23.689.692 1.9 1.188 3.228.514l3.848-1.955 3.602 7.087-3.847 1.956c-1.328.675-1.64 1.946-1.488 2.911.152.966.838 2.08 2.309 2.315l4.264.68-1.269 7.95-4.263-.68c-1.471-.231-2.47.612-2.915 1.481-.444.87-.544 2.176.508 3.232l3.049 3.053-5.699 5.688-3.048-3.056c-1.052-1.053-2.359-.957-3.229-.514-.872.443-1.72 1.44-1.488 2.912l.671 4.264-7.954 1.25z"/><path fill="#434A4F" d="M192.589 44.075a1.014 1.014 0 0 1 .931-1.071c.549-.04 1.029.38 1.069.93.04.55-.38 1.03-.93 1.07h-.07c-.52 0-.96-.4-1-.929zm4.77 1.189l-.009.01a1.006 1.006 0 0 1-.761-1.199.997.997 0 0 1 1.19-.761c.54.12.88.65.76 1.19-.1.47-.51.79-.97.79a.73.73 0 0 1-.21-.03zm-8.599-.07a1 1 0 0 1 .59-1.289.99.99 0 0 1 1.279.59.999.999 0 0 1-.93 1.349 1 1 0 0 1-.939-.65zm12.059 1.37c-.48-.26-.66-.87-.4-1.359a1.002 1.002 0 0 1 1.761.96.993.993 0 0 1-.881.519 1.04 1.04 0 0 1-.48-.12zm-15.429.79a1.001 1.001 0 0 1 .21-1.399.986.986 0 0 1 1.399.2 1.002 1.002 0 0 1-.8 1.599c-.309 0-.61-.139-.809-.4zm18.38 1.42a.993.993 0 0 1 0-1.409.996.996 0 1 1 1.41 1.409.98.98 0 0 1-.71.301.97.97 0 0 1-.7-.301zm-21 1.591a1.003 1.003 0 0 1-.201-1.401c.34-.44.96-.53 1.401-.2.439.34.529.96.199 1.401a.985.985 0 0 1-.8.399c-.21 0-.42-.06-.599-.199zm23.219 1.38a.994.994 0 0 1 .401-1.361.983.983 0 0 1 1.349.401.982.982 0 0 1-.4 1.349c-.15.09-.31.13-.47.13a.998.998 0 0 1-.88-.519zm-24.88 2.25a.993.993 0 0 1-.589-1.281 1.003 1.003 0 0 1 1.879.701c-.15.399-.54.649-.94.649a.86.86 0 0 1-.35-.069zm26.17 1.21a.982.982 0 0 1 .76-1.181.993.993 0 0 1 1.19.761.993.993 0 0 1-.77 1.189c-.069.01-.14.021-.21.021a.993.993 0 0 1-.97-.79zm-26.74 2.75c-.55-.04-.97-.521-.93-1.071.04-.55.52-.96 1.071-.92a.996.996 0 0 1-.071 1.991h-.07zm27.92 2.019a.996.996 0 0 1-.92-1.069c.04-.551.521-.971 1.07-.931.55.04.96.521.92 1.07a.986.986 0 0 1-.99.93h-.08zm-28.55 1.17a1.002 1.002 0 0 1 1.96-.42c.11.54-.229 1.07-.769 1.191-.071.009-.141.019-.21.019-.46 0-.88-.319-.981-.79zm27.43 2.66a1.004 1.004 0 0 1-.59-1.29l.011.01a.983.983 0 0 1 1.279-.59c.521.19.78.76.59 1.28a.988.988 0 0 1-.94.651c-.11 0-.23-.021-.35-.061zm-25.94 1.34v.011a1.004 1.004 0 0 1 .4-1.361.998.998 0 1 1 .961 1.75.988.988 0 0 1-1.361-.4zm3.97 2.011h.01-.01zm19.811.01a1.003 1.003 0 0 1-.201-1.401c.331-.439.96-.53 1.4-.2.44.33.53.96.2 1.4-.2.26-.5.401-.8.401a.965.965 0 0 1-.599-.2zm-21.221 1.399a.995.995 0 0 1 0-1.409.994.994 0 0 1 1.41 0 .993.993 0 0 1 0 1.409.977.977 0 0 1-1.41 0zm18.2 1.221a1.004 1.004 0 0 1 .2-1.401c.44-.33 1.071-.24 1.401.201.329.439.239 1.07-.2 1.399-.181.131-.391.2-.601.2-.3 0-.6-.14-.8-.399zm-14.79 1.349a1 1 0 0 1-.39-1.36.99.99 0 0 1 1.35-.39c.49.26.67.87.4 1.35-.18.33-.52.52-.879.52-.161 0-.321-.04-.481-.12zm11.151.31a1 1 0 0 1 .589-1.289c.52-.191 1.09.069 1.29.59a.992.992 0 0 1-.589 1.279.866.866 0 0 1-.351.07 1 1 0 0 1-.939-.65zm-7.141 1.18a.998.998 0 1 1 .42-1.95c.54.111.881.651.761 1.191a.995.995 0 0 1-.971.779c-.069 0-.14 0-.21-.02zm3.19-.62a.998.998 0 0 1 .92-1.07c.55-.04 1.031.38 1.071.931.04.55-.38 1.029-.931 1.069h-.06a.99.99 0 0 1-1-.93z"/><path fill="#42494E" d="M196 144.375h14v-18h-14v18zm-2 2h18v-22h-18v22z"/><path fill="#42494E" d="M196 150.375h14v-4h-14v4zm-2 2h18v-8h-18v8zm2-28h14v-2h-14v2zm-2 2h18v-6h-18v6zM198 141.375h2v-12h-2zM202 135.375h2v-6h-2z"/><path fill="#434A4F" d="M213 179.375h2v-4h-2zM213 189.375h2v-4h-2zM217 183.375h4v-2h-4zM207 183.375h4v-2h-4z"/><path fill="#E9886C" d="M204.766 85.374a1.767 1.767 0 1 0 .001 3.533 1.767 1.767 0 0 0-.001-3.533m-11.533 120.001a1.766 1.766 0 1 0 0 3.532 1.766 1.766 0 0 0 0-3.532"/></g></svg>