<?xml version="1.0" encoding="utf-8"?><svg xmlns="http://www.w3.org/2000/svg" width="250" height="250" viewBox="0 0 250 250"><g fill="none" fill-rule="evenodd"><path fill="#DEDEDD" d="M44.343 108.628l-.001-2.547c-.012-13.099-8.048-28.68-12.073-36.464-6.135-11.241-3.597-25.238 6.093-33.61a28.354 28.354 0 0 1 18.666-6.966 28.356 28.356 0 0 1 18.674 6.944c.361.313.709.636 1.051.964a27.939 27.939 0 0 1 6.54 9.029 20.305 20.305 0 0 1 .203 16.061 8.437 8.437 0 0 0 .861 7.996l3.35 4.832a1.362 1.362 0 0 1-.615 2.164l-2.484.83a1.476 1.476 0 0 0-1.008 1.4 2.455 2.455 0 0 0 .682 1.768l.001.766c0 .742-.62 1.085-1.419 1.096.046.539.048 1.08.007 1.619-.301 1.041-1.481 1.192-1.484 2.066l-.006 3.186a3.744 3.744 0 0 1-3.736 3.737l-7.308.004a2.95 2.95 0 0 0-2.949 2.952l1.483 12.159-24.528.014"/><path fill="#48515A" d="M56.208 37.676h-.011c-10.088.002-18.264 8.182-18.262 18.271.003 10.088 8.183 18.264 18.271 18.262h.011c10.088-.002 18.264-8.183 18.262-18.271-.002-10.088-8.183-18.265-18.271-18.262zm-.002 38.533c-11.193.003-20.269-9.068-20.272-20.261-.003-11.193 9.068-20.269 20.261-20.272h.013c11.193-.003 20.269 9.068 20.272 20.261.003 11.193-9.068 20.269-20.261 20.272h-.013z"/><path fill="#DEDEDD" d="M44.513 221.046l-.001-2.546c-.012-13.099-8.048-28.681-12.074-36.465-6.134-11.241-3.596-25.238 6.094-33.61a28.36 28.36 0 0 1 18.666-6.966 28.352 28.352 0 0 1 18.674 6.945c.361.312.709.635 1.051.964a27.917 27.917 0 0 1 6.539 9.028 20.303 20.303 0 0 1 .204 16.062 8.437 8.437 0 0 0 .861 7.996l3.35 4.831a1.363 1.363 0 0 1-.615 2.165l-2.484.829a1.477 1.477 0 0 0-1.008 1.401 2.455 2.455 0 0 0 .682 1.767v.766c.001.743-.619 1.085-1.418 1.096.046.539.048 1.08.007 1.619-.301 1.042-1.481 1.192-1.484 2.066l-.006 3.186a3.744 3.744 0 0 1-3.736 3.737l-7.308.004a2.95 2.95 0 0 0-2.949 2.952l1.483 12.159-24.528.014"/><path fill="#48515A" d="M56.272 150.155h-.01c-10.089.003-18.265 8.183-18.262 18.271.002 10.089 8.182 18.265 18.271 18.263h.01c10.088-.005 18.261-8.186 18.257-18.273v-.005c-.006-10.084-8.182-18.255-18.266-18.256zm-.002 38.534c-11.192.002-20.269-9.069-20.272-20.262-.002-11.193 9.069-20.269 20.262-20.272h.012c11.188.001 20.26 9.067 20.266 20.255.007 11.193-9.061 20.272-20.254 20.279H56.27z"/><path fill="#DEDEDD" d="M205.638 108.535l-.002-2.548c-.003-13.099 8.015-28.69 12.032-36.478 6.121-11.248 3.567-25.243-6.132-33.604a28.36 28.36 0 0 0-18.674-6.944h-.001a28.361 28.361 0 0 0-18.666 6.966c-.36.313-.708.637-1.049.965a27.927 27.927 0 0 0-6.529 9.036 20.307 20.307 0 0 0-.186 16.062 8.435 8.435 0 0 1-.851 7.997l-3.345 4.835a1.363 1.363 0 0 0 .617 2.164l2.486.827c.602.2 1.009.764 1.009 1.399a2.445 2.445 0 0 1-.68 1.768l.001.766c0 .743.62 1.084 1.419 1.095-.044.539-.046 1.08-.005 1.619.303 1.041 1.483 1.19 1.487 2.064.003.637.006 2.192.01 3.186a3.744 3.744 0 0 0 3.74 3.733l7.308-.004a2.95 2.95 0 0 1 2.952 2.948l-1.469 12.162 24.528-.014"/><path fill="#48515A" d="M194.182 37.596h-.01c-10.089.009-18.26 8.194-18.251 18.283.008 10.08 8.181 18.248 18.261 18.251h.01c10.084-.017 18.252-8.194 18.257-18.277-.018-10.08-8.188-18.245-18.267-18.257zm0 38.534c-11.193-.003-20.265-9.079-20.262-20.272.002-11.185 9.065-20.253 20.25-20.262h.012c11.183.013 20.248 9.072 20.267 20.256-.006 11.187-9.067 20.259-20.255 20.278h-.012z"/><path fill="#DEDEDD" d="M205.702 220.954l-.001-2.547c-.003-13.099 8.014-28.69 12.031-36.478 6.122-11.248 3.568-25.242-6.132-33.603a28.354 28.354 0 0 0-18.674-6.945 28.36 28.36 0 0 0-18.666 6.966c-.361.313-.708.637-1.049.966a27.915 27.915 0 0 0-6.53 9.035 20.312 20.312 0 0 0-.185 16.062 8.435 8.435 0 0 1-.852 7.997l-3.344 4.835a1.363 1.363 0 0 0 .617 2.164l2.485.827a1.476 1.476 0 0 1 1.01 1.399 2.453 2.453 0 0 1-.68 1.768v.766c.001.743.621 1.084 1.42 1.095a10.06 10.06 0 0 0-.005 1.619c.302 1.041 1.483 1.19 1.486 2.064.003.637.007 2.192.01 3.186a3.745 3.745 0 0 0 3.741 3.733l7.308-.004a2.949 2.949 0 0 1 2.951 2.948l-1.468 12.161 24.527-.014"/><path fill="#48515A" d="M194.246 150.076h-.01c-10.088.011-18.257 8.199-18.246 18.288.012 10.075 8.18 18.239 18.256 18.245h.011c10.084-.017 18.251-8.193 18.257-18.277-.019-10.079-8.188-18.244-18.268-18.256zm0 38.533c-11.193-.004-20.263-9.081-20.259-20.274.004-11.183 9.065-20.249 20.247-20.259h.012c11.184.012 20.248 9.072 20.268 20.255-.007 11.188-9.068 20.259-20.255 20.278h-.013z"/><path fill="#F58E70" d="M117.479 125.08l-.012-20.984 17.994 10.482-17.982 10.502zM88.983 95.021l.023 40 72-.042-.023-40-72 .042z"/><path fill="#FFF" d="M51.237 47.679l.01 17.732 15.196-8.874-15.206-8.858M189.168 47.6l.01 17.732 15.195-8.874-15.205-8.858"/><path fill="#48515A" d="M85.013 139.022l-.029-47.898 79.94-.046.028 47.899-24.006.013-.002-2 22.006-.012-.024-43.899-75.94.044.025 43.898 31.881-.018.002 2-33.881.019"/><path fill="#48515A" d="M67.333 151.981l18.044-14.736 1.266 1.55-18.045 14.736-1.265-1.55M163.34 138.769l1.222-1.584 19.065 14.711-1.222 1.584-19.065-14.711M67.166 72.254l1.502-1.322 18.068 20.53-1.502 1.322-18.068-20.53M163.191 91.398l19.046-20.55 1.467 1.359-19.046 20.551-1.467-1.36"/><path fill="#FFF" d="M51.302 160.158l.01 17.733 15.195-8.874-15.205-8.859M189.232 160.079l.01 17.733 15.196-8.875-15.206-8.858"/><path fill="#48515A" d="M46.986 117.069h2v-4h-2zM46.992 127.069h2v-4h-2zM50.989 121.067h4v-2h-4zM40.989 121.072h4v-2h-4zM129.041 181.046h2v-4h-2zM129.047 191.046h2v-4h-2zM133.044 185.044h4v-2h-4zM123.044 185.049h4v-2h-4zM116.958 69.023h2v-4h-2zM116.963 79.023h2v-4h-2zM120.961 73.02h4v-2h-4zM110.961 73.026h4v-2h-4z"/><path fill="#DEDEDD" d="M148.486 60.32a1.5 1.5 0 1 1 0 3 1.5 1.5 0 0 1 0-3m25.179 70.684a1.994 1.994 0 1 1 0 3.987 1.994 1.994 0 0 1 0-3.987m-57.506 12.001a1.18 1.18 0 1 1 0 2.36 1.18 1.18 0 0 1 0-2.36m-8.944-95.358a2.257 2.257 0 1 1 0 4.514 2.257 2.257 0 0 1 0-4.514m-4.178 107.366a2.018 2.018 0 1 1 .002 4.036 2.018 2.018 0 0 1-.002-4.036m-36.9-37.954a1.807 1.807 0 1 1 0 3.614 1.807 1.807 0 0 1 0-3.614"/><path fill="#48515A" d="M191.252 112.939h-.005c-5.932.001-10.74 4.811-10.738 10.744.001 5.932 4.812 10.74 10.744 10.738h.006c5.929-.01 10.732-4.818 10.735-10.748-.002-5.93-4.812-10.736-10.742-10.734zm.001 23.482c-7.037.002-12.743-5.701-12.745-12.737-.002-7.037 5.7-12.743 12.737-12.745h.007c7.034-.002 12.739 5.699 12.742 12.733-.004 7.034-5.7 12.737-12.733 12.749h-.008z"/><path fill="#48515A" d="M191.247 112.939h-.001c-1.285 0-2.593 1.063-3.589 2.915a16.844 16.844 0 0 0-1.727 7.829c.004 5.821 2.443 10.738 5.327 10.738h.001c1.285-.001 2.593-1.063 3.589-2.915a16.85 16.85 0 0 0 1.727-7.829c-.004-5.821-2.443-10.738-5.327-10.738zm.01 23.482c-4.105 0-7.323-5.594-7.327-12.737a18.873 18.873 0 0 1 1.966-8.778c1.375-2.557 3.275-3.966 5.348-3.967h.003c4.105 0 7.323 5.593 7.327 12.737a18.869 18.869 0 0 1-1.966 8.777c-1.375 2.558-3.275 3.967-5.348 3.968h-.003z"/><path fill="#48515A" d="M179.806 125.13h23v-2h-23zM102.772 187.524a4.006 4.006 0 0 0 4 3.998h.002a4 4 0 1 0-.001-8h-.002a4.006 4.006 0 0 0-3.999 4.002zm4 5.998a6.008 6.008 0 0 1-6-5.997 6.008 6.008 0 0 1 5.997-6.003h.004a6 6 0 0 1 .003 12h-.004z"/><path fill="#DEDEDD" d="M156.908 154.029l-15.569-6.662-2.672 1.606 8.237 8.228-2.827 2.829-8.115-8.106-1.623 3.268 6.807 16.456 4.827-9.723 8.116 8.106 2.827-2.83-8.237-8.228 8.229-4.944"/><path fill="#48515A" d="M120.751 133.929l10.466 25.303 4.468-8.998 8.391 8.382 1.414-1.415-8.436-8.426 7.651-4.596-23.954-10.25zm10.3 30.134l-14.023-33.902 32.06 13.718-8.808 5.291 8.038 8.029-4.24 4.245-7.839-7.829-5.188 10.448z"/></g></svg>