<?xml version="1.0" encoding="utf-8"?><svg xmlns="http://www.w3.org/2000/svg" width="250" height="250" viewBox="0 0 250 250"><g fill="none" fill-rule="evenodd"><path fill="#5FE0ED" d="M193.914 98.288c0 28.948-23.468 52.415-52.416 52.415-28.948 0-52.415-23.467-52.415-52.415 0-28.949 23.467-52.416 52.415-52.416s52.416 23.467 52.416 52.416"/><path fill="#5FE0ED" d="M141.498 46.872c-28.35 0-51.415 23.065-51.415 51.415 0 28.351 23.065 51.416 51.415 51.416 28.351 0 51.416-23.065 51.416-51.416 0-28.35-23.065-51.415-51.416-51.415zm0 104.831c-29.453 0-53.415-23.962-53.415-53.416 0-29.453 23.962-53.415 53.415-53.415 29.454 0 53.416 23.962 53.416 53.415 0 29.454-23.962 53.416-53.416 53.416z"/><path fill="#F58E70" d="M110.003 221.013s-2.667-15.669-4-21.002h-.008a1.993 1.993 0 0 0 1.992-1.999v-5.001l-5.084-6.003-4.916 6.003v5.001c0 1.104.904 1.999 2.008 1.999h.006c-1.333 5.333-3.999 21.002-3.999 21.002"/><path fill="#48515A" d="M94.22 41.126a.997.997 0 0 1-.92-1.07c.05-.55.53-.97 1.08-.92.55.04.96.52.92 1.07-.04.53-.48.93-1 .93-.03 0-.05-.01-.08-.01zm-4.87-.56a.995.995 0 0 1 .75-1.19.992.992 0 0 1 1.2.75c.12.54-.22 1.07-.76 1.2-.07.01-.14.02-.22.02-.45 0-.87-.31-.97-.78zm8.65 1.2a.995.995 0 0 1-.73-1.21c.13-.53.67-.86 1.21-.73.53.13.86.67.73 1.21a.992.992 0 0 1-1.21.73zm3.73 1.13a.996.996 0 0 1-.61-1.27c.19-.52.76-.799 1.28-.61.52.18.79.76.61 1.28a1 1 0 0 1-1.28.6zm-15.61-.01a.996.996 0 0 1 0-1.41c.39-.39 1.03-.39 1.42 0 .39.39.39 1.02 0 1.41-.2.2-.45.3-.71.3-.25 0-.51-.1-.71-.3zm19.27 1.46a.994.994 0 0 1-.52-1.31c.22-.51.81-.74 1.31-.52a1.001 1.001 0 0 1-.4 1.92.89.89 0 0 1-.39-.09zm3.57 1.68a1.01 1.01 0 0 1-.45-1.34c.25-.5.85-.7 1.34-.46a1.002 1.002 0 0 1-.44 1.9c-.15 0-.3-.03-.45-.1zm3.51 1.84c-.49-.27-.66-.88-.4-1.36.27-.49.88-.66 1.36-.389a.99.99 0 0 1 .4 1.349c-.19.33-.53.52-.88.52-.17 0-.33-.04-.48-.12zm3.44 1.97a.995.995 0 0 1-.35-1.37c.28-.47.9-.63 1.37-.349.48.289.63.899.35 1.379-.19.31-.52.48-.86.48-.18 0-.35-.04-.51-.14zm3.38 2.09a.995.995 0 0 1-.31-1.38c.3-.47.92-.6 1.38-.31a1.004 1.004 0 0 1-.54 1.85.94.94 0 0 1-.53-.16zm3.32 2.18a.999.999 0 0 1-.27-1.39c.31-.46.93-.58 1.39-.27.46.31.58.93.27 1.39-.19.29-.51.44-.83.44-.19 0-.39-.05-.56-.17zm3.27 2.261a.995.995 0 0 1-.23-1.391c.31-.46.94-.56 1.39-.24a.996.996 0 0 1-.58 1.81c-.2 0-.4-.06-.58-.179zm3.23 2.329c-.44-.33-.54-.95-.21-1.4.33-.44.95-.53 1.4-.21a1.005 1.005 0 0 1-.6 1.81c-.2 0-.41-.069-.59-.2zm3.18 2.4a.992.992 0 0 1-.18-1.4.99.99 0 0 1 1.4-.18c.44.33.52.96.18 1.4-.2.26-.49.39-.79.39-.22 0-.43-.07-.61-.21zm3.13 2.46c-.43-.35-.5-.98-.15-1.41.34-.43.97-.5 1.4-.15a1 1 0 1 1-1.25 1.56zm3.1 2.51a1 1 0 0 1-.14-1.41c.35-.42.98-.48 1.41-.13.43.35.49.98.13 1.41-.19.24-.48.36-.77.36-.22 0-.45-.07-.63-.23zm3.05 2.56a.999.999 0 0 1-.11-1.41c.35-.42.99-.47 1.41-.11a.999.999 0 1 1-1.3 1.52zm3.01 2.61c-.41-.36-.45-.99-.09-1.41.36-.41 1-.45 1.41-.09.41.37.45 1 .09 1.41-.2.23-.47.34-.75.34-.24 0-.47-.08-.66-.25zm2.97 2.66c-.41-.37-.44-1-.07-1.41a1.01 1.01 0 0 1 1.42-.07.998.998 0 0 1-.68 1.74c-.24 0-.48-.09-.67-.26zm2.94 2.7h-.01a.996.996 0 0 1-.04-1.41.988.988 0 0 1 1.41-.05c.4.37.43 1.01.05 1.41-.2.21-.47.321-.73.321a.978.978 0 0 1-.68-.271zm2.89 2.74a.996.996 0 0 1-.03-1.41c.38-.4 1.02-.41 1.42-.03h-.01c.4.38.42 1.01.03 1.41a.97.97 0 0 1-.72.311c-.25 0-.5-.091-.69-.281zm2.86 2.781a.988.988 0 0 1-.01-1.411c.39-.4 1.02-.4 1.41-.01.4.39.4 1.02.01 1.41-.19.2-.45.3-.71.3-.25 0-.51-.1-.7-.289zm2.81 2.819h.01a.987.987 0 0 1 .01-1.41.987.987 0 0 1 1.41.01c.39.39.38 1.02-.01 1.41-.2.19-.45.29-.7.29-.26 0-.52-.1-.72-.3zm2.78 2.86c-.38-.4-.36-1.03.03-1.41a1 1 0 0 1 1.42.03c.38.39.37 1.03-.03 1.41a1.002 1.002 0 0 1-1.42-.03zm2.74 2.9a1.005 1.005 0 0 1 1.47-1.37c.37.41.35 1.041-.05 1.42-.2.18-.44.27-.69.27-.26 0-.53-.11-.73-.32zm2.7 2.93a.997.997 0 1 1 1.48-1.34c.37.41.34 1.041-.07 1.42-.19.17-.43.25-.67.25-.27 0-.54-.11-.74-.33zm2.65 2.98a1.003 1.003 0 1 1 1.51-1.32 1 1 0 0 1-.1 1.41.968.968 0 0 1-.66.25c-.27 0-.55-.12-.75-.34zm2.61 3.011a.992.992 0 0 1 .12-1.411.98.98 0 0 1 1.4.12c.36.42.31 1.05-.11 1.41-.19.16-.42.23-.65.23-.28 0-.56-.12-.76-.349zm2.56 3.059a1 1 0 0 1 .14-1.41 1.01 1.01 0 0 1 1.41.13 1 1 0 0 1-.14 1.41 1.005 1.005 0 0 1-1.41-.13zm2.51 3.09a.998.998 0 0 1 .16-1.399.98.98 0 0 1 1.4.159c.35.43.28 1.06-.15 1.4a.999.999 0 0 1-1.41-.16zm2.45 3.14c-.33-.44-.25-1.07.19-1.4a.99.99 0 0 1 1.4.18 1 1 0 0 1-.79 1.61c-.3 0-.6-.13-.8-.39zm2.4 3.18c-.33-.44-.23-1.07.21-1.4.44-.319 1.07-.23 1.4.21a1.003 1.003 0 0 1-.81 1.6c-.3 0-.6-.14-.8-.41zm2.33 3.23a.994.994 0 0 1 .24-1.39c.45-.32 1.07-.21 1.39.23.32.461.21 1.08-.24 1.4a1 1 0 0 1-1.39-.24zm2.26 3.28v-.01a.987.987 0 0 1 .27-1.38.999.999 0 0 1 1.39.27c.3.46.18 1.08-.28 1.391-.17.109-.36.169-.55.169-.33 0-.64-.16-.83-.44zm2.17 3.32a.995.995 0 0 1 .31-1.38c.46-.29 1.08-.15 1.38.31a1 1 0 0 1-.31 1.38c-.17.11-.35.16-.54.16-.33 0-.65-.17-.84-.47zm2.08 3.39a.995.995 0 0 1 .35-1.37.99.99 0 0 1 1.37.35c.28.47.12 1.081-.35 1.37-.16.09-.34.14-.51.14-.34 0-.67-.179-.86-.49zm1.97 3.44a.997.997 0 0 1 .4-1.36.984.984 0 0 1 1.35.4c.27.48.09 1.09-.39 1.36-.16.08-.32.12-.48.12-.36 0-.7-.19-.88-.52zm1.83 3.51c-.24-.5-.04-1.1.45-1.34.5-.25 1.1-.04 1.34.451h.01c.24.5.04 1.099-.46 1.339-.14.07-.29.11-.44.11-.37 0-.72-.21-.9-.56zm1.66 3.58c-.22-.51.02-1.1.53-1.32.5-.21 1.09.02 1.31.53a.999.999 0 0 1-.52 1.31c-.13.06-.27.08-.4.08a1 1 0 0 1-.92-.6zm1.44 3.66c-.19-.52.09-1.09.61-1.28.52-.18 1.09.1 1.27.62a.988.988 0 0 1-.61 1.27.96.96 0 0 1-.33.06c-.41 0-.8-.26-.94-.67zm1.1 3.73h.01a.99.99 0 0 1 .74-1.2c.53-.13 1.07.2 1.2.74.13.54-.2 1.08-.74 1.2-.08.02-.15.03-.23.03-.45 0-.86-.31-.98-.77zm.61 3.78a.99.99 0 0 1 .93-1.06c.55-.04 1.03.38 1.07.93.03.55-.39 1.03-.94 1.06-.02.01-.04.01-.06.01-.52 0-.97-.41-1-.94zm.46 4.88c-.53-.14-.86-.68-.72-1.22.14-.53.68-.86 1.21-.72.54.13.87.68.73 1.21a1 1 0 0 1-1.22.73z"/><path fill="#DFE0E0" d="M87.987 172.017v4.369l14.948 8.5 14.959-8.25.093-7.997v-6.741c0-.566 1.111-1.172 1.638-1.784-.18.157-.377.315-.525.473-2.103 2.261-5.304 4.462-7.463 6.306-1.708 1.458-3.881 2.118-6.126 2.118h-6.492c-2.246 0-4.406-.66-6.114-2.118-2.061-1.76-5.06-3.916-7.158-6.083-.063-.065-.137-.087-.205-.152.63.67 1.532 1.37 2.299 2.046-.017.008.146.037.146.057v9.256"/><path fill="#48515A" d="M87.986 177.012a1 1 0 0 1-1-1v-13a1 1 0 1 1 2 0v13a1 1 0 0 1-1 1"/><path fill="#48515A" d="M117.986 177.012a1 1 0 0 1-1-1v-14.448l.179-.257c.421-.607.934-1.195 1.43-1.765.677-.776 1.376-1.578 1.605-2.188l6.085-12.64 6.901-3.48 1.575-7.87a2.431 2.431 0 0 0-.69-1.67 2.175 2.175 0 0 0-1.563-.682h-2.574l.204-1.172c.595-3.421.848-5.862.848-8.16l-.01-1.295a26.93 26.93 0 0 0-2.23-10.868h-.001l-.268-.59a28.759 28.759 0 0 0-8.386-10.719c-5.001-3.942-11.024-6.05-17.419-6.093-7.446-.065-14.516 2.896-19.954 8.297-5.549 5.512-8.732 13.089-8.732 20.789v.479c0 2.677.394 5.51.796 8.183l.174 1.149H72.58c-1.241 0-2.296 1.059-2.362 2.339l2.238 7.927 6.009 3.449 5.941 12.517c.797 2.129 4.193 4.864 6.921 7.062.799.644 1.561 1.258 2.227 1.827 1.44 1.229 3.329 1.879 5.465 1.879h6.967a1 1 0 1 1 0 2h-6.967c-2.618 0-4.957-.816-6.763-2.359-.653-.557-1.401-1.159-2.184-1.79-3.07-2.474-6.551-5.277-7.507-7.841l-5.638-11.872-6.174-3.544-2.538-9.128c0-2.421 1.999-4.466 4.365-4.466h.054c-.347-2.404-.648-4.906-.648-7.332v-.479c0-8.229 3.398-16.323 9.323-22.208 5.769-5.73 13.282-8.878 21.175-8.878h.202c6.843.047 13.29 2.302 18.644 6.523a30.748 30.748 0 0 1 8.466 10.411c.078.155.154.312.23.468h.001l.094.2.059.126.119.253a28.824 28.824 0 0 1 2.675 12.241l.011.167.001 1.176c0 2.144-.206 4.385-.681 7.332h.203c1.125 0 2.189.457 2.997 1.289a4.43 4.43 0 0 1 1.254 3.196l-.019.168-1.785 8.916-7.163 3.612-5.755 11.947c-.321.866-1.105 1.765-1.934 2.716a24.21 24.21 0 0 0-1.117 1.344v13.812a1 1 0 0 1-1 1M38.912 221.02l-2-.016.155-19.329c0-5.94 3.773-7.838 9.102-9.871l31.141-10.612 5.493-10.18h4.183v2h-2.99l-5.299 9.819-31.849 10.854c-5.279 2.014-7.781 3.464-7.781 7.997l-.155 19.338"/><path fill="#48515A" d="M103.004 186.158l-15.859-8.881a1 1 0 0 1 .977-1.745l14.882 8.334 14.298-8.008a1.001 1.001 0 0 1 .977 1.745l-15.275 8.555m65.991 34.857l-2-.006.063-19.209c0-4.791-3.005-6.243-7.953-8.064l-31.85-10.811-6.051-9.913h-3.218v-2h4.34l6.259 10.252 31.187 10.587c5.272 1.939 9.286 3.897 9.286 9.952l-.063 19.212"/><path fill="#48515A" d="M94.003 198.012a1 1 0 0 1-.743-1.669l9.744-10.826 9.743 10.826a1 1 0 1 1-1.487 1.337l-8.256-9.174-8.257 9.174a.997.997 0 0 1-.744.332m87.983-98h-54a1 1 0 0 1 0-2.001h54a1 1 0 1 1 0 2.001m-40.982 51.691a1 1 0 1 1 0-2c4.875 0 9.688-2.37 13.919-6.854a1 1 0 1 1 1.455 1.373c-4.619 4.894-9.935 7.481-15.374 7.481"/><path fill="#48515A" d="M160.579 137.958a1 1 0 0 1-.855-1.517c5.897-9.758 9.28-23.664 9.28-38.154 0-28.35-12.561-51.415-28-51.415-13.526 0-25.11 17.731-27.545 42.159a.995.995 0 0 1-1.094.896.999.999 0 0 1-.896-1.094c2.539-25.472 14.96-43.961 29.535-43.961 16.542 0 30 23.962 30 53.415 0 14.844-3.488 29.127-9.568 39.188a1 1 0 0 1-.857.483m25.411-37.942c-.27 0-.53-.11-.71-.3-.09-.09-.17-.2-.22-.32-.05-.13-.07-.25-.07-.39 0-.13.02-.26.07-.38s.13-.23.22-.32a.99.99 0 0 1 .9-.27c.07.01.13.03.19.05.06.031.12.06.17.09.06.04.11.08.15.13a.995.995 0 0 1 .3.7c0 .14-.03.26-.08.39-.05.12-.12.23-.22.32-.18.19-.44.3-.7.3"/><path fill="#48515A" d="M192.703 157.287c-4.096 0-9.433-1.551-15.845-4.637-10.346-4.98-23.059-13.818-35.796-24.884a.998.998 0 0 1-.099-1.41.997.997 0 0 1 1.41-.099c25.726 22.35 49.172 33.799 55.75 27.22a.999.999 0 1 1 1.414 1.414c-1.599 1.6-3.898 2.396-6.834 2.396M86.003 56.599a1 1 0 0 1-.956-.707c-2.08-6.771-1.717-11.621 1.077-14.416a1 1 0 0 1 1.414 1.414c-2.198 2.199-2.398 6.492-.579 12.415a1 1 0 0 1-.956 1.294M87 60.016a.995.995 0 0 1-.7-.3.976.976 0 0 1-.22-1.09c.05-.12.12-.23.22-.32.09-.09.2-.17.32-.22.37-.15.81-.06 1.09.22.09.09.16.2.22.32.05.13.07.25.07.39 0 .26-.1.52-.29.7a1 1 0 0 1-.71.3m51.67 65.58c-.07 0-.13-.01-.2-.02a.636.636 0 0 1-.18-.06.757.757 0 0 1-.18-.09l-.15-.12c-.04-.05-.09-.1-.12-.16a.556.556 0 0 1-.09-.17.603.603 0 0 1-.06-.19c-.01-.06-.02-.13-.02-.19 0-.13.03-.26.08-.38.05-.13.12-.24.21-.33.28-.28.73-.37 1.09-.22.13.06.23.13.33.22.09.09.16.2.21.33.05.12.08.25.08.38 0 .26-.11.521-.29.71-.19.18-.45.29-.71.29"/><path fill="#FFD15D" d="M58.987 115.011v-4.634a8.998 8.998 0 0 1 2.798-6.525 16.853 16.853 0 0 0 5.194-12.225c0-9.681-8.122-17.469-17.917-16.946-8.695.464-15.759 7.684-16.039 16.387-.164 5.073 1.853 9.656 5.243 12.862 1.725 1.633 2.721 3.851 2.721 6.226v4.855"/><path fill="#48515A" d="M50.171 125.861a1 1 0 0 1-.035-1.999l3.824-.137a4.523 4.523 0 0 0 2.614-1.287l.3-.293c.711-.836 1.112-1.874 1.112-2.902v-4.231a1 1 0 1 1 2 0v4.231c0 1.678-.717 3.358-1.968 4.609l-.343.293a6.58 6.58 0 0 1-3.565 1.574l-3.903.142h-.036"/><path fill="#48515A" d="M61.986 116.012h-24a1 1 0 0 1 0-2h24a1 1 0 1 1 0 2"/><path fill="#48515A" d="M51.331 126.012h-4.725c-1.652 0-3.341-.742-4.634-2.035l-.213-.213-.028-.137c-1.112-1.219-1.745-2.801-1.745-4.384v-4.231a1 1 0 1 1 2 0v4.231c0 1.157.501 2.322 1.375 3.195l.212.213.023.111c.878.787 1.985 1.25 3.01 1.25h2.789a.998.998 0 0 1 1.638.551l.298 1.449M39.99 84.298a.999.999 0 0 1-.764-1.644l.153-.18a1 1 0 0 1 1.51 1.312l-.134.157a.999.999 0 0 1-.765.355m19.151-.835a.999.999 0 0 1-.707-.293 11.926 11.926 0 0 0-8.486-3.514c-2.3 0-4.534.652-6.46 1.884a1 1 0 1 1-1.078-1.684 13.955 13.955 0 0 1 7.538-2.2c3.74 0 7.256 1.456 9.9 4.1a.999.999 0 0 1-.707 1.707M53.986 115.012h-2V104.45l6-13.999v-1.44h2v1.85l-6 14v10.151M47.986 115.012h-2v-10.151l-6-14v-1.85h2v1.44l6 13.999v10.562"/><path fill="#48515A" d="M44.986 91.011h2v-2h-2v2zm4 0h2v-2h-2v2zm4 0h2v-2h-2v2zm2.522 89.001c-3.596 0-6.522-2.916-6.522-6.5v-48.5a1 1 0 1 1 2 0v48.5c0 2.481 2.028 4.5 4.521 4.5 2.47 0 4.479-2.019 4.479-4.5v-19.001c0-3.582 2.918-6.497 6.506-6.499h.005c3.579.002 6.489 2.917 6.489 6.499v4.501a1 1 0 1 1-2 0v-4.501a4.501 4.501 0 0 0-4.492-4.499 4.51 4.51 0 0 0-4.508 4.499v19.001c0 3.584-2.906 6.5-6.478 6.5m16.502-15.996a1 1 0 0 1-.71-.3c-.09-.09-.17-.2-.22-.32-.05-.13-.07-.25-.07-.38 0-.14.02-.27.07-.39s.13-.23.22-.32c.37-.37 1.04-.37 1.41 0 .1.09.17.2.22.32.05.12.08.25.08.39 0 .13-.03.25-.08.38-.05.12-.12.23-.22.32-.04.05-.09.09-.15.13-.05.03-.11.06-.17.09-.06.02-.12.04-.19.06-.06.01-.13.02-.19.02m0 4a1 1 0 0 1-.71-.3.973.973 0 0 1-.29-.71c0-.26.1-.52.29-.7.37-.37 1.04-.37 1.41 0a.976.976 0 0 1 0 1.41c-.18.19-.44.3-.7.3m0 3.99a.99.99 0 0 1-.71-.29.967.967 0 0 1-.29-.7c0-.27.1-.53.29-.71.37-.37 1.04-.38 1.41 0a.982.982 0 0 1 .28.9c-.02.06-.03.13-.06.19-.02.06-.06.12-.09.17-.04.06-.08.11-.13.15-.18.19-.44.29-.7.29m100.976 20.006h42v-26h-42v26zm-2 2h46v-30h-46v30z"/><path fill="#48515A" d="M193.792 180.155c-.186 0-.373-.053-.537-.157l-16.124-10.276a.999.999 0 1 1 1.075-1.686l15.584 9.932 14.949-9.591a1 1 0 1 1 1.08 1.684l-15.487 9.935a.994.994 0 0 1-.54.159m18.739 9.895a.999.999 0 0 1-.768-.36l-8.924-10.706a1.001 1.001 0 0 1 1.537-1.281l8.923 10.706a1.001 1.001 0 0 1-.768 1.641m-37.479 0a1 1 0 0 1-.767-1.641l8.923-10.706a1 1 0 0 1 1.536 1.281l-8.923 10.706a1 1 0 0 1-.769.36M194.986 210.012h2v-14h-2zM195.64 212.896c-.26 0-.52-.11-.7-.3a.639.639 0 0 1-.13-.15c-.03-.05-.07-.11-.09-.17a.603.603 0 0 1-.06-.19c-.01-.06-.02-.13-.02-.19 0-.13.03-.26.08-.38.05-.13.12-.24.22-.33.37-.37 1.04-.37 1.41 0a.986.986 0 0 1 .29.71c0 .06 0 .13-.02.19-.01.07-.03.13-.05.19a.95.95 0 0 1-.1.17c-.03.06-.07.11-.12.15a1 1 0 0 1-.71.3M202.986 201.012h2v-5h-2zM204.33 204.196c-.06 0-.13 0-.19-.02-.06-.01-.13-.03-.19-.05a.95.95 0 0 1-.17-.1.443.443 0 0 1-.15-.12.99.99 0 0 1-.29-.71c0-.13.02-.26.07-.38s.13-.23.22-.32c.37-.379 1.04-.379 1.41 0a.976.976 0 0 1 0 1.41c-.04.05-.1.09-.15.12-.05.04-.11.07-.17.1-.06.02-.13.04-.19.05-.06.02-.13.02-.2.02M185.986 204.012h2v-8h-2zM186.95 207.096c-.07 0-.14-.01-.2-.02a.697.697 0 0 1-.19-.06.556.556 0 0 1-.17-.09c-.05-.04-.11-.08-.15-.12-.19-.189-.29-.45-.29-.71 0-.13.02-.26.07-.38.05-.13.13-.23.22-.33.37-.37 1.04-.37 1.41 0 .09.1.17.2.22.33.05.12.08.25.08.38 0 .26-.11.521-.3.71-.04.04-.1.08-.15.12-.05.04-.11.07-.17.09-.06.03-.13.05-.19.06-.06.01-.13.02-.19.02"/><path fill="#475059" d="M186.291 61.398a1.986 1.986 0 0 0 .119 1.528c.242.477.656.831 1.165.997a1.992 1.992 0 0 0 1.529-.119c.468-.238.818-.641.988-1.138a1.993 1.993 0 0 0-.119-1.529 1.989 1.989 0 0 0-1.165-.997 1.988 1.988 0 0 0-1.529.12 1.984 1.984 0 0 0-.988 1.138zm1.909 4.626c-.417 0-.837-.067-1.245-.2a3.977 3.977 0 0 1-2.328-1.992 3.982 3.982 0 0 1-.247-3.027 3.984 3.984 0 0 1 1.993-2.329 3.968 3.968 0 0 1 3.055-.237 3.983 3.983 0 0 1 2.328 1.992 3.98 3.98 0 0 1 .246 3.028h.001a3.979 3.979 0 0 1-1.993 2.328c-.57.29-1.188.436-1.81.437z"/><path fill="#475059" d="M187.15 77.33l2.072.002.002-1.232a3.492 3.492 0 0 1 2.453-3.369c1.489-.48 3.044.026 3.962 1.292l.723.998 1.679-1.216-.724-.998a3.492 3.492 0 0 1 .005-4.168 3.492 3.492 0 0 1 3.965-1.283l1.171.382.622-1.907-1.172-.382a3.492 3.492 0 0 1-2.446-3.373 3.492 3.492 0 0 1 2.453-3.37l1.172-.379-.639-1.972-1.172.379a3.49 3.49 0 0 1-3.962-1.292 3.49 3.49 0 0 1 .004-4.167l.725-.996-1.675-1.22-.725.996a3.494 3.494 0 0 1-3.966 1.284 3.493 3.493 0 0 1-2.446-3.374l.001-1.232-2.073-.002-.001 1.232a3.49 3.49 0 0 1-2.453 3.369c-1.488.48-3.044-.025-3.962-1.292l-.723-.997-1.679 1.217.724.997a3.494 3.494 0 0 1-.004 4.168 3.491 3.491 0 0 1-3.966 1.284l-1.171-.382-.62 1.904 1.171.382a3.493 3.493 0 0 1 2.446 3.375 3.493 3.493 0 0 1-2.453 3.368l-1.172.38.638 1.971 1.172-.379a3.49 3.49 0 0 1 3.962 1.292 3.492 3.492 0 0 1-.003 4.167l-.726.996 1.676 1.221.724-.996c.923-1.265 2.478-1.769 3.966-1.284a3.493 3.493 0 0 1 2.446 3.374l-.001 1.232zm4.07 2.004l-6.072-.006.003-3.232c.001-.827-.55-1.302-1.066-1.47-.516-.169-1.241-.111-1.729.559l-1.902 2.613-4.909-3.575 1.903-2.613c.487-.669.32-1.377.001-1.816-.319-.44-.94-.818-1.727-.564l-3.075.996-1.87-5.778 3.075-.995c.787-.254 1.069-.925 1.069-1.468 0-.543-.279-1.214-1.066-1.471l-3.073-1.002 1.861-5.707 3.072 1.002c.789.257 1.409-.121 1.728-.56.32-.438.488-1.146.002-1.816l-1.897-2.617 4.917-3.564 1.897 2.617c.486.67 1.211.729 1.727.563.517-.168 1.068-.642 1.069-1.469l.003-3.232 6.073.006-.003 3.232c-.001.828.55 1.302 1.066 1.47.515.169 1.241.111 1.728-.559l1.902-2.613 4.91 3.574-1.902 2.613c-.487.669-.321 1.377-.002 1.816.319.44.941.818 1.727.564l3.075-.996 1.871 5.777-3.075.996c-.787.255-1.068.926-1.069 1.468 0 .543.279 1.215 1.066 1.471l3.073 1.002-1.862 5.709-3.072-1.002c-.787-.255-1.409.121-1.728.56-.32.439-.488 1.146-.002 1.816l1.897 2.617-4.917 3.564-1.897-2.617c-.485-.669-1.21-.73-1.727-.563-.517.168-1.068.641-1.069 1.468l-.004 3.232z"/><path fill="#F58E70" d="M182.366 60.132a6.135 6.135 0 0 0 3.937 7.692c3.192 1.043 6.635-.692 7.705-3.868a6.133 6.133 0 0 0-3.928-7.717 6.093 6.093 0 0 0-4.676.363 6.094 6.094 0 0 0-3.038 3.53zm5.845 9.998a8.125 8.125 0 0 1-2.528-.405 8.075 8.075 0 0 1-4.726-4.044 8.072 8.072 0 0 1-.503-6.135v-.001a.3.3 0 0 0 .01-.032l.012-.034c1.414-4.218 5.986-6.523 10.224-5.141 4.239 1.382 6.573 5.938 5.228 10.18h.001a8.077 8.077 0 0 1-4.045 4.726 8.093 8.093 0 0 1-3.673.886z"/><path fill="#FFD15D" d="M62.007 58.011a3 3 0 1 1-6 0 3 3 0 0 1 6 0"/><path fill="#475059" d="M205.007 120.012c-1.103 0-2 .896-2 2 0 1.103.897 2 2 2s2-.897 2-2c0-1.104-.897-2-2-2zm0 6c-2.206 0-4-1.795-4-4 0-2.206 1.794-4 4-4s4 1.794 4 4c0 2.205-1.794 4-4 4z"/><path fill="#FFD15D" d="M125.039 30.98a2 2 0 1 1-4 0 2 2 0 0 1 4 0"/><path fill="#48515A" d="M75.986 66.012h2v-4h-2zM75.986 76.011h2v-4h-2zM79.986 70.011h4v-2h-4zM69.986 70.011h4v-2h-4zM143.132 164.137c-1.103 0-2 .896-2 2 0 1.103.897 2 2 2s2-.897 2-2c0-1.104-.897-2-2-2zm0 6c-2.206 0-4-1.795-4-4 0-2.206 1.794-4 4-4s4 1.794 4 4c0 2.205-1.794 4-4 4zm10 4c-1.103 0-2 .896-2 2 0 1.103.897 2 2 2s2-.897 2-2c0-1.104-.897-2-2-2zm0 6c-2.206 0-4-1.795-4-4 0-2.206 1.794-4 4-4s4 1.794 4 4c0 2.205-1.794 4-4 4zM141.838 178.845l-1.414-1.414 14-14 1.414 1.414-14 14"/></g></svg>