<?xml version="1.0" encoding="utf-8"?><svg xmlns="http://www.w3.org/2000/svg" width="192" height="182" viewBox="0 0 192 182"><g fill="none" fill-rule="evenodd"><path fill="#475059" d="M21 64.99a1.139 1.139 0 0 0-.721.175c-.297.299-.288 1.355-.281 2.286l.003.539-.003 87.547c-.007.932-.016 1.988.281 2.286.214.138.468.2.721.176h148.01a3.004 3.004 0 0 0 3-3V67.99a3.004 3.004 0 0 0-3-3H21zm148.01 95.009H21a2.896 2.896 0 0 1-2.141-.767c-.883-.89-.872-2.26-.861-3.71l.003-.523-.003-87.532c-.011-1.45-.022-2.82.861-3.71A2.896 2.896 0 0 1 21 62.99h148.01a5.006 5.006 0 0 1 5 5v87.009a5.006 5.006 0 0 1-5 5z"/><path fill="#475059" d="M74.999 180h40.002v-.834l-3.002-18.167v-1H78.001l-.014.995-2.988 18.17V180zm42.002 2H72.999l.014-3.079 2.988-18.17v-2.752h37.998v2.917l3.002 18.167V182z"/><path fill="#475059" d="M67.999 181.999h54.002v-2H67.999z"/><path fill="#DEDEDD" d="M77.217 178h35.563l-2.655-16.001H79.849L77.217 178M22.001 142.999v12c.001.552.448.999 1 1H169.01a1.002 1.002 0 0 0 1-1v-12H22.001"/><path fill="#475059" d="M83.997 48.923h-64a3.004 3.004 0 0 1-3-3V3.99a3.004 3.004 0 0 1 3-3h64a3.004 3.004 0 0 1 3 3v17h-2v-17a1.002 1.002 0 0 0-1-1h-64a1.002 1.002 0 0 0-1 1v41.933c.001.552.448.999 1 1h64a1.002 1.002 0 0 0 1-1V26.989h2v18.934a3.004 3.004 0 0 1-3 3"/><path fill="#475059" d="M46.018 57.923h11.959l-1.481-9h-8.998l-.014.078-1.466 8.922zm13.979 2h-16l.014-2.12 1.487-9.045v-1.835h12.998v1.917l1.501 9.125v1.958z"/><path fill="#475059" d="M41.997 59.923h20v-2h-20z"/><path fill="#DEDEDD" d="M20.999 39.923v4.5a.5.5 0 0 0 .5.5h60.997a.5.5 0 0 0 .5-.5v-4.5H20.999M48.373 55.923h7.244l-.83-5h-5.592l-.822 5"/><path fill="#475059" d="M172.003 48.923h-64a3.004 3.004 0 0 1-3-3V27.49h2v18.433c0 .552.448.999 1 1h64a1.002 1.002 0 0 0 1-1V3.99a1.002 1.002 0 0 0-1-1h-64c-.552.001-1 .448-1 1v17.168h-2V3.99a3.004 3.004 0 0 1 3-3h64a3.004 3.004 0 0 1 3 3v41.933a3.004 3.004 0 0 1-3 3"/><path fill="#475059" d="M134.023 57.923h11.959l-1.48-9h-8.998l-.014.078-1.467 8.922zm13.98 2h-16l.014-2.12 1.487-9.045v-1.835h12.998v1.917l1.501 9.125v1.958z"/><path fill="#475059" d="M130.003 59.923h20v-2h-20z"/><path fill="#DEDEDD" d="M109.005 39.923v4.5a.5.5 0 0 0 .5.5h60.997a.5.5 0 0 0 .5-.5v-4.5h-61.997M136.379 55.923h7.244l-.83-5h-5.592l-.822 5"/><path fill="#475059" d="M49.998 25.992h4v-4h-4v4zm-2 2h8v-8h-8v8zm89.053-2h4v-4h-4v4zm-2 2h8v-8h-8v8zm-75.887-3h2v-2h-2v2zm4 0h2v-2h-2v2zm4 0h2v-2h-2v2zm4 0h2v-2h-2v2zm4 0h2v-2h-2v2zm4 0h2v-2h-2v2zm4 0h2v-2h-2v2zm4 0h2v-2h-2v2zm6.861 1h4v-4h-4v4zm-2 2h8v-8h-8v8zm11.165-3h2v-2h-2v2zm4 0h2v-2h-2v2zm4 0h2v-2h-2v2zm4 0h2v-2h-2v2zm4 0h2v-2h-2v2zm4 0h2v-2h-2v2zm4 0h2v-2h-2v2zm4 0h2v-2h-2v2zm-36.099 7.354h2v-2h-2v2zm0 4h2v-2h-2v2zm0 4h2v-2h-2v2zm0 4h2v-2h-2v2zm0 4h2v-2h-2v2zm0 4h2v-2h-2v2zm0 4h2v-2h-2v2zm0 4h2v-2h-2v2zm0 4h2v-2h-2v2zm0 4h2v-2h-2v2zm0 4h2v-2h-2v2zm0 4h2v-2h-2v2zm0 4h2v-2h-2v2zm0 4h2v-2h-2v2zm0 4h2v-2h-2v2zm0 4h2v-2h-2v2zm0 4h2v-2h-2v2zm-1.066 7.648h4v-4h-4v4zm-2 2h8v-8h-8v8z"/><path fill="#48515A" d="M6 115.991h2v-4H6zM6 125.991h2v-4H6zM10 119.991h4v-2h-4zM0 119.991h4v-2H0zM184 67.991h2v-4h-2zM184 77.991h2v-4h-2zM188 71.991h4v-2h-4zM178 71.991h4v-2h-4z"/><path fill="#FFD15D" d="M163.562 53.554a2 2 0 1 1 .001 3.999 2 2 0 0 1-.001-3.999"/><path fill="#FFD15D" d="M163.563 54.054a1.5 1.5 0 1 0-.001 2.999 1.5 1.5 0 0 0 .001-2.999zm0 4a2.5 2.5 0 1 1 0-5 2.5 2.5 0 0 1 0 5zM10.438 70.429a2 2 0 1 1 0 4 2 2 0 0 1 0-4"/><path fill="#FFD15D" d="M10.438 70.929a1.5 1.5 0 1 0-.001 2.999 1.5 1.5 0 0 0 .001-2.999zm0 4a2.501 2.501 0 1 1 0-5.002 2.501 2.501 0 0 1 0 5.002z"/><path fill="#5FE0ED" d="M183.562 39.116a2.437 2.437 0 1 1 .001 4.875 2.437 2.437 0 0 1-.001-4.875M50.438 163.991a2.437 2.437 0 1 1 0 4.874 2.437 2.437 0 0 1 0-4.874"/><path fill="#FFD15D" d="M9.562 159.116a2.437 2.437 0 1 1 .002 4.874 2.437 2.437 0 0 1-.002-4.874"/><path fill="#FFD15D" d="M9.563 159.616a1.937 1.937 0 1 0-.002 3.874 1.937 1.937 0 0 0 .002-3.874zm0 4.875a2.938 2.938 0 1 1-.001-5.875 2.938 2.938 0 0 1 .001 5.875z"/><path fill="#DEDEDD" d="M160 163.991a2 2 0 1 1 .001 3.999 2 2 0 0 1-.001-3.999m22-22a2 2 0 1 1 .001 3.999 2 2 0 0 1-.001-3.999"/><path fill="#48515A" d="M183 100.991a2 2 0 1 0-.001 3.999 2 2 0 0 0 .001-3.999zm0 6a4 4 0 1 1 0-8 4 4 0 0 1 0 8zM37 171.991h-2v-7.001h-1v-2h3v9.001"/><path fill="#48515A" d="M34 172.991h4v-2h-4zM161 87.991h-2V80.99h-1v-2h3v9.001"/><path fill="#48515A" d="M158 88.991h4v-2h-4zM6 48.99a1.002 1.002 0 0 0-1 1v4.001a1 1 0 0 0 2 0V49.99a1.002 1.002 0 0 0-1-1zm0 8.001a3.004 3.004 0 0 1-3-3V49.99a3 3 0 1 1 6 0v4.001a3.004 3.004 0 0 1-3 3z"/><path fill="#475059" d="M59.952 118.005h22V97.419l-7.414-7.414H59.952v28zm24 2h-26v-32h17.414l8.586 8.586v23.414z"/><path fill="#475059" d="M82.952 98.004h-9v-9h2v7h7v2M109.982 118.005h22V97.419l-7.414-7.414h-14.586v28zm24 2h-26v-32h17.414l8.586 8.586v23.414z"/><path fill="#475059" d="M132.982 98.004h-9v-9h2v7h7v2"/></g></svg>