<?xml version="1.0" encoding="utf-8"?><svg xmlns="http://www.w3.org/2000/svg" width="250" height="250" viewBox="0 0 250 250"><g fill="none" fill-rule="evenodd"><path fill="#4E7684" d="M117.331 102.951a2 2 0 1 1-.001-3.999 2 2 0 0 1 .001 3.999m-6 20a2 2 0 1 1-.001-3.999 2 2 0 0 1 .001 3.999m-17-40a3 3 0 1 1 0-6 3 3 0 0 1 0 6M74.577 48.088c.267 40.594 16.775 79.361 41.249 92.203l.448.256.323.322a27.091 27.091 0 0 1 6.977 11.912v.091l.014-.045.014.045v-.091a27.093 27.093 0 0 1 6.978-11.912l.323-.322.447-.256c24.474-12.842 40.983-51.609 41.249-92.203H74.577"/><path fill="#F9E1C7" d="M123.602 152.872v-.091a27.014 27.014 0 0 1 0 .001v.09m-.008-.027l-.006-.018.006.018m-.02-.063a26.432 26.432 0 0 0 0-.001v.001m-5.243-10.01a27.713 27.713 0 0 0-1.734-1.903l-.162-.161.162.161a27.713 27.713 0 0 1 1.734 1.903m11.016-.587a.127.127 0 0 0 .011-.013l-.011.013m.018-.021l.026-.03-.026.03m1.215-1.295l.323-.322.447-.256c24.474-12.842 40.983-51.609 41.249-92.203-.266 40.595-16.775 79.361-41.249 92.203l-.447.256-.323.322"/><path fill="#5D8A9A" d="M123.574 152.872v-.091a27 27 0 0 0-5.243-10.009 27.713 27.713 0 0 0-1.734-1.903l-.162-.161-.161-.161-.184-.105.264-.151c24.473-12.842 40.982-48.607 41.248-89.201l14.997-3.002c-.266 40.594-16.775 79.361-41.249 92.203l-.447.256-.323.322c-.411.411-.808.833-1.189 1.265l-.026.03-.007.008a.127.127 0 0 1-.011.013l-.004.004a27.014 27.014 0 0 0-5.741 10.592v.091l-.008-.027-.006-.018-.014.045"/><path fill="#4E7684" d="M187.634 54.697l-4.394 4.393h-9.163v-3h7.921l3.514-3.514c4.394-4.394 9.907-7.199 15.983-8.141a10.79 10.79 0 0 1 1.491-.116l.967-.013-.333 3h-.998c-5.658.729-10.888 3.29-14.988 7.391m-128.316 0l4.393 4.393h9.164v-3h-7.921l-3.515-3.514c-4.393-4.394-9.906-7.199-15.983-8.141a10.765 10.765 0 0 0-1.491-.116l-.967-.013.333 3h.999c5.658.729 10.888 3.29 14.988 7.391"/><path fill="#4E7684" d="M148.244 130.272c31.01-11.176 53.125-39.045 56.794-72.066l1.337-14.116.246-2.754 3.337-.246-1.938 17.447c-3.972 35.748-28.522 65.339-62.767 75.896l-.586-.976 3.416-3.125s-.035.01.161-.06m-48.927 0c-31.011-11.176-53.125-39.045-56.794-72.066L41.186 44.09l-.247-2.754-3.337-.246 1.939 17.447c3.972 35.748 28.522 65.339 62.766 75.896l.587-.976-3.417-3.125s.036.01-.16-.06"/><path fill="#434A4F" d="M88.602 219.094h70.001V201.09H88.602v18.004zm-1.999 2h74V199.09h-74v22.004zM74.601 56.091c0-.55.449-1 1-1 .549 0 1 .45 1 1s-.451 1-1 1c-.551 0-1-.45-1-1zm4 0c0-.55.449-1 1-1 .549 0 1 .45 1 1s-.451 1-1 1c-.551 0-1-.45-1-1zm4 0c0-.55.449-1 1-1 .549 0 1 .45 1 1s-.451 1-1 1c-.551 0-1-.45-1-1zm4 0c0-.55.449-1 1-1 .549 0 1 .45 1 1s-.451 1-1 1c-.551 0-1-.45-1-1zm4 0c0-.55.449-1 1-1 .549 0 1 .45 1 1s-.451 1-1 1c-.551 0-1-.45-1-1zm4 0c0-.55.449-1 1-1 .549 0 1 .45 1 1s-.451 1-1 1c-.551 0-1-.45-1-1zm4 0c0-.55.449-1 1-1 .549 0 1 .45 1 1s-.451 1-1 1c-.551 0-1-.45-1-1zm4 0c0-.55.449-1 1-1 .549 0 1 .45 1 1s-.451 1-1 1c-.551 0-1-.45-1-1zm4 0c0-.55.449-1 1-1 .549 0 1 .45 1 1s-.451 1-1 1c-.551 0-1-.45-1-1zm4 0c0-.55.449-1 1-1 .549 0 1 .45 1 1s-.451 1-1 1c-.551 0-1-.45-1-1zm4 0c0-.55.449-1 1-1 .549 0 1 .45 1 1s-.451 1-1 1c-.551 0-1-.45-1-1zm4 0c0-.55.449-1 1-1 .559 0 1 .45 1 1s-.441 1-1 1c-.551 0-1-.45-1-1zm4 0c0-.55.449-1 1-1 .549 0 1 .45 1 1s-.451 1-1 1c-.551 0-1-.45-1-1zm4 0c0-.55.45-1 1-1 .549 0 1 .45 1 1s-.451 1-1 1c-.55 0-1-.45-1-1zm4 0c0-.55.45-1 1-1 .549 0 1 .45 1 1s-.451 1-1 1c-.55 0-1-.45-1-1zm4 0c0-.55.45-1 1-1 .549 0 1 .45 1 1s-.451 1-1 1c-.55 0-1-.45-1-1zm4 0c0-.55.45-1 1-1 .549 0 1 .45 1 1s-.451 1-1 1c-.55 0-1-.45-1-1zm4 0c0-.55.45-1 1-1 .549 0 1 .45 1 1s-.451 1-1 1c-.55 0-1-.45-1-1zm4 0c0-.55.45-1 1-1 .549 0 1 .45 1 1s-.451 1-1 1c-.55 0-1-.45-1-1zm4 0c0-.55.45-1 1-1 .549 0 1 .45 1 1s-.451 1-1 1c-.55 0-1-.45-1-1zm4 0c0-.55.45-1 1-1 .549 0 1 .45 1 1s-.451 1-1 1c-.55 0-1-.45-1-1zm4 0c0-.55.45-1 1-1 .549 0 1 .45 1 1s-.451 1-1 1c-.55 0-1-.45-1-1zm4 0c0-.55.45-1 1-1 .549 0 1 .45 1 1s-.451 1-1 1c-.55 0-1-.45-1-1zm4 0c0-.55.45-1 1-1 .549 0 1 .45 1 1s-.451 1-1 1c-.55 0-1-.45-1-1zm-50 86c0-.55.449-1 1-1 .549 0 1 .45 1 1s-.451 1-1 1c-.551 0-1-.45-1-1zm4 0c0-.55.449-1 1-1 .549 0 1 .45 1 1s-.451 1-1 1c-.551 0-1-.45-1-1zm4 0c0-.55.45-1 1-1 .549 0 1 .45 1 1s-.451 1-1 1c-.55 0-1-.45-1-1zm4 0c0-.55.45-1 1-1 .549 0 1 .45 1 1s-.451 1-1 1c-.55 0-1-.45-1-1z"/><path fill="#434A4F" d="M201.47 57.874h.009-.009zm-25.199 2.216c-1.539 23.773-8.479 45.553-19.678 61.915 24.495-12.734 40.799-36.481 43.883-64.241l1.03-9.271c-4.985.902-9.508 3.275-13.143 6.911l-4.686 4.686h-7.406zm-25.491 66.457l1.894-2.514c12.481-16.563 20.173-39.647 21.658-65.002l.055-.941h8.462l4.1-4.1c4.256-4.257 9.639-6.911 15.567-7.676l1.262-.163-1.314 11.834c-3.305 29.743-21.426 54.987-48.473 67.526l-.214.077-2.997.959zM45.468 48.493l1.03 9.271c3.1 27.897 19.546 51.739 44.243 64.427-11.275-16.382-18.262-38.235-19.807-62.101h-7.637l-4.686-4.686c-3.635-3.636-8.157-6.009-13.143-6.911zm51.05 78.168l-3.535-1.15c-27.047-12.54-45.168-37.783-48.472-67.526l-1.315-11.834 1.262.163c5.928.765 11.311 3.419 15.567 7.676l4.101 4.1h8.692l.055.941c1.488 25.41 9.207 48.53 21.733 65.101l1.912 2.529zm51.085 74.429H99.602v-6h1c10.386 0 18.858-8.45 18.886-18.836l.07-16.068a23.387 23.387 0 0 0-6.7-16.425c-3.955-2.102-6.876-4.8-10.251-7.918l-.441-.407-.153-.047c-34.558-10.653-59.469-40.776-63.466-76.742L36.485 40.09h4.469c8.807 0 17.086 3.43 23.314 9.657l2.343 2.343h4.012c-.012-.68-.021-1.339-.021-2 0-.436.009-.869.017-1.301l.012-.712a1 1 0 0 1 1-.987h.014a.999.999 0 0 1 .986 1.013l-.012.724c-.008.42-.017.84-.017 1.263 0 .974.019 1.941.038 2.908l.019 1.02-1.018.072h-5.858l-2.929-2.929c-5.85-5.85-13.627-9.071-21.9-9.071H38.72l1.815 16.337c3.902 35.113 28.19 64.532 61.896 74.997l.475-.027 1.058.977c3.31 3.058 6.169 5.699 9.961 7.688l.242.179c4.726 4.725 7.42 11.269 7.391 17.953l-.07 16.067c-.03 11.149-8.861 20.282-19.886 20.805v2.024h44.001v-2.019c-11.108-.467-20-9.648-20-20.868v-16.075c0-6.74 2.625-13.077 7.391-17.844l.286-.221c3.787-1.988 6.643-4.625 9.949-7.68l1.059-.976.259.017c33.706-10.466 57.99-39.884 61.891-74.997l1.816-16.337h-2.234c-8.273 0-16.05 3.221-21.9 9.071l-2.929 2.929h-6.647l.019-1.02c.02-.991.04-1.982.04-2.98 0-.42-.008-.837-.017-1.254l-.013-.733a1 1 0 0 1 .987-1.013h.013a1 1 0 0 1 1 .987l.013.72c.008.43.017.86.017 1.293 0 .669-.009 1.335-.021 2h3.781l2.343-2.343c6.227-6.227 14.507-9.657 23.314-9.657h4.468l-2.061 18.557c-3.989 35.9-28.815 65.978-63.274 76.682l-.566.524c-3.372 3.114-6.289 5.808-10.24 7.908-4.365 4.415-6.744 10.209-6.744 16.367v16.075c0 10.414 8.472 18.887 18.886 18.887h1.114v6z"/><path fill="#4E7684" d="M123.545 182.713c-1.908 6.411-6.561 11.657-12.585 14.37h25.162c-6.023-2.713-10.671-7.957-12.577-14.37m-35.943-32.619a3 3 0 1 1-6 0 3 3 0 0 1 6 0"/><path fill="#434A4F" d="M68.614 170.088c-1.103 0-2 .897-2 2s.897 2 2 2 2-.897 2-2-.897-2-2-2zm0 6c-2.205 0-4-1.795-4-4 0-2.206 1.795-4 4-4 2.206 0 4 1.794 4 4 0 2.205-1.794 4-4 4z"/><path fill="#4E7684" d="M187.662 200.124a3 3 0 1 1-6 0 3 3 0 0 1 6 0m8.671-37.18c-1.654 0-3 1.346-3 3s1.346 3 3 3 3-1.346 3-3-1.346-3-3-3zm0 8c-2.757 0-5-2.243-5-5s2.243-5 5-5 5 2.243 5 5-2.243 5-5 5zM90.602 217.094h66V203.09h-66z"/><path fill="#42494E" d="M162.413 64.146l-1.902-.621.66-2.023-2.424-.79c-2.119-.691-3.486-2.577-3.484-4.805.003-2.228 1.374-4.112 3.493-4.798l2.426-.786-1.379-4.26-2.427.786c-2.121.687-4.336-.037-5.643-1.84-1.307-1.804-1.305-4.134.006-5.935l1.501-2.061-3.62-2.636-1.501 2.062c-1.312 1.801-3.527 2.519-5.645 1.829-2.12-.691-3.487-2.577-3.485-4.806l.002-2.55-4.477-.004-.003 2.55c-.002 2.227-1.372 4.111-3.491 4.797-2.122.689-4.335-.034-5.645-1.838l-1.497-2.065-3.625 2.628 1.497 2.065c1.308 1.804 1.306 4.133-.006 5.934-1.311 1.802-3.527 2.52-5.646 1.829l-2.425-.79-.659 2.023-1.902-.62 1.279-3.925 4.327 1.411c1.552.505 2.779-.239 3.409-1.104.631-.866.962-2.262.004-3.584l-2.671-3.684 6.863-4.976 2.671 3.684c.958 1.321 2.391 1.441 3.408 1.11 1.019-.33 2.108-1.264 2.109-2.897l.005-4.55 8.477.008-.004 4.55c-.002 1.634 1.086 2.57 2.105 2.902 1.014.332 2.448.216 3.408-1.104l2.679-3.679 6.854 4.99-2.679 3.679c-.96 1.32-.632 2.716-.003 3.583.629.868 1.858 1.612 3.407 1.111l4.33-1.402 2.611 8.065-4.328 1.402c-1.554.504-2.109 1.827-2.11 2.898-.001 1.07.551 2.395 2.103 2.902l4.326 1.41-1.279 3.925"/><path fill="#5D8A9A" d="M148.457 59.712l-1.902-.62a10.267 10.267 0 0 0-.613-7.887 10.27 10.27 0 0 0-6.009-5.144c-5.42-1.766-11.266 1.205-13.032 6.624l-1.902-.62c2.109-6.467 9.087-10.012 15.553-7.905a12.256 12.256 0 0 1 7.174 6.139 12.252 12.252 0 0 1 .731 9.413"/><path fill="#5D8A9A" d="M136.753 68.122c-1.265 0-2.549-.197-3.815-.609a12.256 12.256 0 0 1-7.173-6.14 12.252 12.252 0 0 1-.732-9.413l1.903.62a10.262 10.262 0 0 0 .612 7.887 10.263 10.263 0 0 0 6.01 5.144c5.419 1.768 11.264-1.203 13.031-6.622l1.902.62c-1.697 5.201-6.542 8.513-11.738 8.513"/><path fill="#42494E" d="M140.973 82.768l-8.478-.009.005-4.551c.002-1.632-1.086-2.569-2.104-2.901-1.016-.333-2.449-.218-3.41 1.104l-2.678 3.678-6.853-4.99 2.678-3.679c.961-1.32.632-2.717.004-3.584-.629-.867-1.854-1.613-3.408-1.111l-4.328 1.402-2.612-8.066 4.329-1.401c1.554-.503 2.109-1.827 2.11-2.898.001-1.07-.551-2.395-2.104-2.901l-4.326-1.411 1.457-4.468 1.902.62-.837 2.567 2.424.791c2.119.69 3.486 2.576 3.484 4.805-.003 2.228-1.374 4.111-3.494 4.798l-2.426.785 1.379 4.26 2.426-.785c2.118-.687 4.335.035 5.643 1.84 1.308 1.804 1.306 4.133-.006 5.935l-1.501 2.061 3.62 2.636 1.5-2.061c1.313-1.802 3.529-2.521 5.648-1.828 2.118.69 3.485 2.576 3.483 4.804l-.003 2.551 4.478.005.003-2.551c.001-2.228 1.373-4.111 3.493-4.798 2.12-.687 4.335.036 5.642 1.84l1.497 2.065 3.626-2.628-1.497-2.065c-1.307-1.804-1.305-4.133.007-5.935 1.312-1.801 3.524-2.519 5.647-1.827l2.423.79.91-2.789 1.902.62-1.53 4.691-4.326-1.411c-1.555-.507-2.78.238-3.41 1.104-.63.865-.962 2.261-.004 3.584l2.671 3.684-6.864 4.975-2.671-3.684c-.958-1.323-2.39-1.439-3.407-1.111-1.019.33-2.108 1.265-2.109 2.897l-.005 4.551"/><path fill="#42494E" d="M136.663 50.923a5.07 5.07 0 0 0-5.065 5.065 5.07 5.07 0 0 0 5.065 5.065 5.071 5.071 0 0 0 5.066-5.065 5.071 5.071 0 0 0-5.066-5.065zm0 12.13c-3.895 0-7.065-3.169-7.065-7.065 0-3.896 3.17-7.065 7.065-7.065 3.896 0 7.066 3.169 7.066 7.065 0 3.896-3.17 7.065-7.066 7.065z"/><path fill="#4E7684" d="M162.296 143.022c-12.683 0-23 10.318-23 23s10.317 23 23 23 23-10.318 23-23-10.317-23-23-23zm0 48c-13.785 0-25-11.215-25-25s11.215-25 25-25 25 11.215 25 25-11.215 25-25 25z"/><path fill="#434A4F" d="M182.25 167.022h-3.556a1 1 0 0 1 0-2h3.556a1 1 0 1 1 0 2"/><path fill="#434A4F" d="M182.25 167.022h-3.556a1 1 0 0 1 0-2h3.556a1 1 0 1 1 0 2m-9.838 17.484a.998.998 0 0 1-.867-.5l-1.777-3.079a1 1 0 1 1 1.732-1l1.777 3.079a.999.999 0 0 1-.865 1.5m4.021-25.928a1.001 1.001 0 0 1-.501-1.867l3.079-1.777a1 1 0 0 1 1 1.732l-3.079 1.778a.995.995 0 0 1-.499.134m3.41 18.253a.992.992 0 0 1-.499-.134l-3.08-1.778a1 1 0 1 1 1-1.732l3.08 1.777a1.001 1.001 0 0 1-.501 1.867m-9.484-24.465a1 1 0 0 1-.865-1.5l1.778-3.079a1.001 1.001 0 0 1 1.733 1l-1.778 3.079c-.186.321-.522.5-.868.5M163.25 178.155h-2v-14.022h9.889v2h-7.889v12.022M162.293 150.133a1 1 0 0 1-1-1v-3.555a1 1 0 1 1 2 0v3.555a1 1 0 0 1-1 1m.001 37.333a1 1 0 0 1-1-1v-3.555a1 1 0 1 1 2 0v3.555a1 1 0 0 1-1 1m-16.445-20.444h-3.556a1 1 0 1 1 0-2h3.556a1 1 0 0 1 0 2"/><path fill="#434A4F" d="M162.293 150.133a1 1 0 0 1-1-1v-3.555a1 1 0 1 1 2 0v3.555a1 1 0 0 1-1 1m.001 37.333a1 1 0 0 1-1-1v-3.555a1 1 0 1 1 2 0v3.555a1 1 0 0 1-1 1m-16.445-20.444h-3.556a1 1 0 1 1 0-2h3.556a1 1 0 0 1 0 2m6.282 17.484a.999.999 0 0 1-.865-1.5l1.777-3.079a1 1 0 1 1 1.732 1l-1.777 3.079a.998.998 0 0 1-.867.5m-4.021-25.928a.995.995 0 0 1-.499-.134l-3.079-1.778a1 1 0 0 1 1-1.732l3.079 1.777a1.001 1.001 0 0 1-.501 1.867m-3.41 18.253a1.002 1.002 0 0 1-.501-1.867l3.079-1.777a1.001 1.001 0 0 1 1 1.732l-3.079 1.778a.992.992 0 0 1-.499.134m9.483-24.465c-.346 0-.682-.179-.868-.5l-1.777-3.079a1.002 1.002 0 0 1 1.733-1l1.777 3.079a1 1 0 0 1-.865 1.5M45.418 144.957h2v-4h-2zM45.418 154.957h2v-4h-2zM49.418 148.957h4v-2h-4zM39.418 148.957h4v-2h-4zM205.515 114.939h2v-4h-2zM205.515 124.939h2v-4h-2zM209.515 118.939h4v-2h-4zM199.515 118.939h4v-2h-4z"/></g></svg>