<?xml version="1.0" encoding="utf-8"?><svg xmlns="http://www.w3.org/2000/svg" xmlns:xlink="http://www.w3.org/1999/xlink" width="193" height="162" viewBox="0 0 193 162"><defs><path id="raa" d="M.694.092h125.505V147.94H.694z"/></defs><g fill="none" fill-rule="evenodd"><path fill="#DEDEDD" d="M104.994 55.13h-18v-2.888c5.019-9.231 8-21.575 8-33.213v-.565h2v.563c0 11.649 2.985 24.023 8 33.216v2.887"/><path fill="#FFD15D" d="M47.988 120.464H144V90.463H47.988v30.001zM142 69.463H49.988c-5.523 0-10 4.478-10 10.001v54c0 5.522 4.477 10 10 10H142c5.523 0 10-4.478 10-10v-54c0-5.523-4.477-10.001-10-10.001z"/><path fill="#475059" d="M126.994 69.464h-2v-9.999a3.002 3.002 0 0 0-3-3h-52a3.002 3.002 0 0 0-3 3v9.999h-2v-9.999a5.005 5.005 0 0 1 5-5h52a5.005 5.005 0 0 1 5 5v9.999"/><path fill="#475059" d="M108.994 55.465h-2l-.024-3.781c-4.92-8.815-7.976-21.328-7.976-32.657v-2.562h-6v2.564c0 11.334-3.061 23.833-8 32.699v3.737h-2v-4.261l.129-.229c4.855-8.597 7.871-20.838 7.871-31.946v-4.565h10v4.563c0 11.008 2.959 23.147 7.722 31.682l.278.498v4.258M95.935 96.55l-5.093 7.111a7 7 0 1 0 10.186 0l-.086-.105-5.007-7.006zm0 20.909a8.997 8.997 0 0 1-6.596-15.119l6.596-9.23 6.596 9.23a8.995 8.995 0 0 1-6.596 15.119z"/><path fill="#475059" d="M45.988 122.464H146v-34H45.988v34zm-2 2H148v-38H43.988v38z"/><path fill="#DEDEDD" d="M68.993 67.462h2v-8.999h-2zM72.996 67.462h2v-8.999h-2zM76.998 67.462h2v-8.999h-2zM81.001 67.462h2v-8.999h-2zM85.003 67.462h2v-8.999h-2zM89.006 67.462h2v-8.999h-2zM93.008 67.462h2v-8.999h-2zM97.01 67.462h2v-8.999h-2zM101.013 67.462h2v-8.999h-2zM105.015 67.462h2v-8.999h-2zM109.018 67.462h2v-8.999h-2zM113.02 67.462h2v-8.999h-2zM117.022 67.462h2v-8.999h-2zM121.025 67.462h2v-8.999h-2z"/><path fill="#48515A" d="M21.628 155.917h85.184a3 3 0 0 0 0-6H21.628l-6.505 3 6.505 3zm85.184 2H21.189l-10.843-5 10.843-5h85.623a5 5 0 1 1 0 10z"/><path fill="#48515A" d="M98.831 156.917h2v-8h-2z"/><path fill="#48515A" d="M21.801 153.917h78.03v-2h-78.03zM6 64.421h2v-4H6zM6 74.421h2v-4H6zM10 68.421h4v-2h-4zM0 68.421h4v-2H0zM184.107 134.463h2v-4h-2zM184.107 144.463h2v-4h-2zM188.107 138.463h4v-2h-4zM178.107 138.463h4v-2h-4zM126.072 4.385h2v-4h-2zM126.072 14.385h2v-4h-2zM130.072 8.385h4v-2h-4zM120.072 8.385h4v-2h-4z"/><path fill="#5FE0ED" d="M25.947 63.501a4 4 0 1 1 0 8 4 4 0 0 1 0-8"/><path fill="#F58E70" d="M11.97 115.435a2 2 0 1 1 .001 3.999 2 2 0 0 1-.001-3.999m166.024-38a2 2 0 1 1 .001 3.999 2 2 0 0 1-.001-3.999"/><path fill="#48515A" d="M45.678 41.716l2.454.797.466-1.437a3.806 3.806 0 0 1 3.673-2.67h.001a3.806 3.806 0 0 1 3.674 2.668l.467 1.436 2.454-.798-.468-1.437a3.864 3.864 0 0 1 5.943-4.32l1.222.887 1.517-2.088-1.223-.888a3.863 3.863 0 0 1 2.269-6.988h1.51l-.001-2.58h-1.511a3.863 3.863 0 0 1-2.271-6.987l1.221-.888-1.473-2.025-1.222.887a3.862 3.862 0 0 1-5.945-4.316l.466-1.436-2.454-.796-.467 1.436a3.804 3.804 0 0 1-3.672 2.67h-.002a3.804 3.804 0 0 1-3.673-2.666l-.467-1.437-2.454.798.467 1.437a3.862 3.862 0 0 1-5.942 4.32l-1.222-.887-1.516 2.089 1.222.887a3.863 3.863 0 0 1-2.268 6.988l-1.51.001.001 2.58h1.513a3.861 3.861 0 0 1 2.27 6.986l-1.221.889 1.471 2.023 1.222-.888a3.862 3.862 0 0 1 5.945 4.316l-.466 1.437zm3.739 3.316l-6.259-2.031 1.084-3.339a1.864 1.864 0 0 0-2.868-2.082l-2.838 2.065-3.824-5.259 2.839-2.064a1.863 1.863 0 0 0-1.095-3.369h-.001l-3.51.001-.003-6.58 3.51-.002a1.862 1.862 0 0 0 1.094-3.37l-2.84-2.062 3.865-5.325 2.841 2.062a1.863 1.863 0 0 0 2.865-2.083l-1.086-3.339 6.258-2.036 1.086 3.338c.236.777.96 1.302 1.771 1.287h.001a1.816 1.816 0 0 0 1.771-1.288l1.084-3.339 6.258 2.031-1.083 3.339a1.863 1.863 0 0 0 2.868 2.081l2.839-2.064 3.825 5.261-2.84 2.063a1.864 1.864 0 0 0 1.097 3.37l3.509-.001.003 6.581h-3.511a1.864 1.864 0 0 0-1.094 3.37l2.841 2.063-3.866 5.325-2.841-2.063a1.863 1.863 0 0 0-2.865 2.083l1.085 3.339-6.257 2.035-1.086-3.337a1.817 1.817 0 0 0-1.772-1.287 1.818 1.818 0 0 0-1.772 1.288l-1.083 3.338z"/><path fill="#F58E70" d="M52.293 23.878a1.748 1.748 0 1 0-.01 3.496 1.748 1.748 0 0 0 .01-3.496zm-.008 5.491a3.744 3.744 0 1 1 3.038-1.546 3.721 3.721 0 0 1-3.038 1.546z"/><g transform="translate(40 14)"><mask id="rab" fill="#fff"><use xlink:href="#raa"/></mask><path fill="#48515A" d="M10.084 1.209a1 1 0 0 1 .877-1.11l.003-.001a1.008 1.008 0 0 1 1.11.881 1.002 1.002 0 0 1-.88 1.11c-.04 0-.08.009-.12.009a1.002 1.002 0 0 1-.99-.889zm4.63 1.12a.996.996 0 0 1-.723-1.209l.003-.011a.997.997 0 0 1 1.22-.71c.532.142.852.684.72 1.219-.118.44-.515.747-.97.75a.686.686 0 0 1-.25-.039zm-8.24.38a.996.996 0 0 1 .42-1.35 1 1 0 0 1 1.35.419v.001a1.014 1.014 0 0 1-.42 1.35.973.973 0 0 1-.47.109.975.975 0 0 1-.88-.529zm11.47 1.159c-.02-.009-.03-.02-.05-.029a1.005 1.005 0 0 1-.22-1.4.995.995 0 0 1 1.388-.232l.002.002c.01.009.02.02.03.02a.996.996 0 0 1 .227 1.39l-.007.01a.986.986 0 0 1-.81.41.966.966 0 0 1-.56-.171zm-14.3 1.54a.997.997 0 0 1-.102-1.407l.002-.002a1.008 1.008 0 0 1 1.41-.1c.42.361.467.993.106 1.413l-.006.007a.993.993 0 0 1-.75.339.987.987 0 0 1-.66-.25zm16.71 1a.998.998 0 0 1 .29-1.379 1.01 1.01 0 0 1 1.39.29 1.023 1.023 0 0 1-.3 1.39c-.163.1-.349.154-.54.159a1.008 1.008 0 0 1-.84-.46zm-18.37 2.54a.997.997 0 0 1-.602-1.275l.002-.004a.998.998 0 0 1 1.277-.602l.003.002a.996.996 0 0 1 .601 1.276l-.001.003a.997.997 0 0 1-1.28.601v-.001zm19.7.721a1.003 1.003 0 0 1 .78-1.181.996.996 0 0 1 1.178.769l.002.012a.995.995 0 0 1-.768 1.179h-.002a1 1 0 0 1-1.19-.779zm-20.99 2.21a1.013 1.013 0 0 1 .98-1.031 1.004 1.004 0 0 1 1.02.981 1.003 1.003 0 0 1-.98 1.019h-.02a.997.997 0 0 1-1-.969zm21.89 2.469a.996.996 0 0 1-.821-1.145l.001-.005a.986.986 0 0 1 1.128-.821l.012.002a.997.997 0 0 1 .831 1.141l-.001.009a1.009 1.009 0 0 1-1.15.819zm-21.02 1.701a.998.998 0 0 1 .55-1.311.99.99 0 0 1 1.294.535l.006.016a.994.994 0 0 1-.536 1.298l-.004.002a1.1 1.1 0 0 1-.38.08 1.013 1.013 0 0 1-.93-.62zm19.34 1.83a.997.997 0 0 1-.352-1.366l.002-.005a.996.996 0 0 1 1.362-.354l.008.004c.473.284.629.895.35 1.371a1.016 1.016 0 0 1-.86.49 1.04 1.04 0 0 1-.51-.14zm-17.02 1.739a1.004 1.004 0 0 1 .03-1.409 1 1 0 1 1 1.387 1.443l-.007.006a.988.988 0 0 1-.68.27.987.987 0 0 1-.73-.31zm14.18.951a.992.992 0 0 1 .17-1.4.99.99 0 0 1 1.392.15l.008.01a1.01 1.01 0 0 1-.16 1.409 1.044 1.044 0 0 1-.62.21 1 1 0 0 1-.79-.379zm-10.73 1.549c-.5-.24-.71-.84-.47-1.339a.998.998 0 0 1 1.33-.47.99.99 0 0 1 .477 1.315l-.007.014a.987.987 0 0 1-.9.571 1.098 1.098 0 0 1-.43-.091zm7.11-.069a1.005 1.005 0 0 1 .66-1.25 1.005 1.005 0 0 1 1.25.66.99.99 0 0 1-.641 1.244l-.019.006a1.026 1.026 0 0 1-.29.05 1.006 1.006 0 0 1-.96-.71zm-2.98 1.14a.991.991 0 0 1-.931-1.047l.001-.013c.04-.552.518-.968 1.07-.93.551.04.967.518.93 1.07a1.01 1.01 0 0 1-1 .929.165.165 0 0 1-.07-.009z" mask="url(#rab)"/><path fill="#475059" d="M121.966 140.246l-1.7 1.803a2.324 2.324 0 0 0 .047 3.254 2.049 2.049 0 0 0 3.058.008l.135-.133a2.321 2.321 0 0 0 .159-3.129l-1.699-1.803zm-.117 7.754a4.16 4.16 0 0 1-2.95-1.283 4.314 4.314 0 0 1-.088-6.04l3.155-3.347 3.154 3.347a4.326 4.326 0 0 1-.316 6.04l-.159.143a4.108 4.108 0 0 1-2.796 1.14z" mask="url(#rab)"/></g><path fill="#475059" d="M160.996 150.991h-2v-3.126a4.006 4.006 0 0 1-3-3.873v-14.001h2v14.001a2.002 2.002 0 0 0 2 1.999h1v5m4 0h-2v-5h1a2.001 2.001 0 0 0 2-1.999v-14.001h2v14.001a4.007 4.007 0 0 1-2.999 3.873l-.001 3.126"/><path fill="#475059" d="M156.995 135.991h10v-2h-10zM126.004 48.919h20V28.333l-7.414-7.414h-12.586v28zm22 2h-24v-32h15.414l8.586 8.586v23.414z"/><path fill="#475059" d="M147.004 28.919h-9v-9h2v7h7v2M129.004 32.919h4v-2h-4zM129.004 36.919h14v-2h-14zM129.004 40.919h14v-2h-14zM129.004 44.919h8v-2h-8z"/></g></svg>