<?xml version="1.0" encoding="utf-8"?><svg xmlns="http://www.w3.org/2000/svg" width="193" height="172" viewBox="0 0 193 172"><g fill="none" fill-rule="evenodd"><path fill="#F58E70" d="M23.968 134.366v-2h-6v2h-2v-2h-6v2h-2v6h2v2h2v2h2v2h2v2h2v-2h2v-2h2v-2h2v-2h2v-6h-2M10.009 29.289a2 2 0 1 1 0 4 2 2 0 0 1 0-4M172.057 153.378v-2h-6v2h-2v-2h-6v2h-2v6h2v2h2v2h2v2h2v2h2v-2h2v-2h2v-2h2v-2h2v-6h-2M107.01 79.815l25.792-37.255-37.251 25.798c6.047-.281 11.178 4.393 11.459 10.44.016.339.016.679 0 1.017"/><path fill="#5FE0ED" d="M88.255 87.113a10.957 10.957 0 0 1-3.199-8.258L59.264 116.11l37.252-25.798a10.956 10.956 0 0 1-8.261-3.199"/><path fill="#DFE0E0" d="M131.309 49.986L111.03 79.278c.035 8.28-6.648 15.019-14.927 15.054h-.127l-35.01 24.239c-.067.046-.14.078-.209.119l-3.959 5.719a2.995 2.995 0 0 0 4.168 4.168l35.01-24.239c8.28.035 15.019-6.648 15.054-14.927a2.688 2.688 0 0 0 0-.127l24.239-35.01a2.989 2.989 0 0 0-3.96-4.288"/><path fill="#475059" d="M96.033 69.34c-5.52.004-9.992 4.482-9.988 10.002.004 5.521 4.483 9.992 10.003 9.988 5.52-.004 9.992-4.482 9.988-10.002a9.996 9.996 0 0 0-2.932-7.064 9.965 9.965 0 0 0-7.071-2.924zm0 21.99c-6.626 0-11.998-5.372-11.998-11.998 0-6.626 5.372-11.998 11.998-11.998a12 12 0 0 1 8.486 3.516c4.686 4.682 4.689 12.276.007 16.963a11.996 11.996 0 0 1-8.493 3.517z"/><path fill="#475059" d="M96.031 65.338c-7.727-.003-13.992 6.259-13.995 13.986v.064l.001.314-24.417 35.27a1.997 1.997 0 0 0 2.776 2.777l35.27-24.417.314.001h.055c7.727.002 13.993-6.259 13.995-13.986v-.065l-.001-.314 24.417-35.27a1.995 1.995 0 0 0-2.776-2.777L96.4 65.339l-.314-.001h-.055zm-36.769 54.767a3.997 3.997 0 0 1-3.286-6.271l24.062-34.757c.136-8.634 7.102-15.601 15.736-15.737l34.757-24.063a3.997 3.997 0 0 1 5.56 5.559l-24.063 34.757c-.136 8.635-7.102 15.601-15.736 15.738l-34.757 24.062a3.996 3.996 0 0 1-2.273.712z"/><path fill="#FFD15D" d="M90.376 73.678a8 8 0 1 1 11.314 11.315 8 8 0 0 1-11.314-11.315"/><path fill="#DFE0E0" d="M170.033 79.835c0-40.869-33.131-74-74-74s-74 33.131-74 74c0 1.007.036 2.005.076 3.002 1.606-39.665 34.227-70.995 73.924-70.998 39.698.003 72.319 31.333 73.924 70.998.04-.997.076-1.995.076-3.002m-74 78c-41.326-.002-75.477-32.239-77.861-73.497a79.015 79.015 0 0 0-.139 4.503c0 43.078 34.922 78 78 78s78-34.922 78-78c0-1.513-.054-3.012-.138-4.503-2.384 41.258-36.535 73.495-77.862 73.497"/><path fill="#475059" d="M96.033 2.335c-42.526 0-77 34.474-77 77s34.474 77 77 77 77-34.474 77-77c-.048-42.506-34.494-76.952-77-77zm0 156c-43.63 0-79-35.37-79-79s35.37-79 79-79c43.631 0 79 35.37 79 79-.049 43.61-35.39 78.951-79 79z"/><path fill="#475059" d="M96.033 6.335c-40.317 0-73 32.683-73 73s32.683 73 73 73 73-32.683 73-73c-.045-40.298-32.702-72.954-73-73zm0 148c-41.421 0-75-33.579-75-75s33.579-75 75-75c41.422 0 75 33.579 75 75-.047 41.402-33.598 74.953-75 75zm78.86-70.44l-1.997-.114a78.04 78.04 0 0 0 .137-4.446h2c0 1.411-.046 2.903-.14 4.56m-157.719 0a79.308 79.308 0 0 1-.141-4.56h2c0 1.373.045 2.827.137 4.446l-1.996.114"/><path fill="#475059" d="M96.033 158.335c-41.853-.01-76.438-32.657-78.859-74.44l1.996-.114c2.451 42.451 38.85 74.877 81.301 72.426 39.028-2.253 70.172-33.397 72.425-72.426l1.997.114c-2.421 41.783-37.006 74.43-78.86 74.44"/><path fill="#475059" d="M94.783 138.585h2v-30h-2zM94.783 50.585h2v-30h-2zM35.783 80.585h30v-2h-30zM125.783 80.585h30v-2h-30zM95.033 16.585h2v-4.746h-2zM95.033 147.331h2v-4.746h-2zM83.285 13.042l1.969-.347.824 4.673-1.969.348-.824-4.674M105.988 141.802l1.969-.348.824 4.674-1.969.347-.824-4.673M71.923 16.267l1.879-.684 1.624 4.459-1.879.685-1.624-4.46M116.641 139.127l1.879-.685 1.624 4.46-1.879.685-1.624-4.46M61.294 21.415l1.732-1 2.373 4.11-1.732 1.001-2.373-4.111M126.667 134.645l1.732-1 2.373 4.11-1.732 1-2.373-4.11M51.721 28.331l1.533-1.285 3.05 3.635-1.533 1.286-3.05-3.636M135.763 128.489l1.533-1.286 3.049 3.636-1.532 1.285-3.05-3.635M43.494 36.805l1.285-1.532 3.636 3.05-1.285 1.532-3.636-3.05M143.651 120.847l1.286-1.532 3.635 3.05-1.285 1.532-3.636-3.05M36.863 46.578l1-1.732 4.111 2.373-1 1.732-4.111-2.373M150.093 111.951l1-1.732 4.11 2.373-1 1.732-4.11-2.373M32.031 57.354l.684-1.879 4.46 1.623-.684 1.88-4.46-1.624M154.891 102.072l.684-1.879 4.46 1.623-.684 1.879-4.46-1.623M29.143 68.806l.347-1.97 4.674.824-.347 1.97-4.674-.824M157.902 91.51l.348-1.97 4.674.824-.348 1.97-4.674-.824M159.033 80.585h4.746v-2h-4.746zM29.143 90.365l4.673-.825.348 1.97-4.674.824-.347-1.969M157.902 67.661l4.674-.825.348 1.969-4.674.825-.348-1.969M32.031 101.815l4.46-1.622.684 1.88-4.46 1.622-.684-1.88M154.891 57.097l4.461-1.622.683 1.88-4.46 1.622-.684-1.88M36.863 112.592l4.111-2.373 1 1.732-4.111 2.373-1-1.732M150.093 47.219l4.11-2.373 1 1.732-4.11 2.373-1-1.732M43.494 122.365l3.636-3.05 1.285 1.532-3.636 3.05-1.285-1.532M143.651 38.323l3.636-3.05 1.286 1.532-3.637 3.05-1.285-1.532M51.721 130.839l3.049-3.636 1.533 1.285-3.048 3.637-1.534-1.286M135.763 30.682l3.049-3.637 1.533 1.286-3.048 3.636-1.534-1.285M61.294 137.755l2.373-4.111 1.732 1-2.372 4.111-1.733-1M126.667 24.526l2.373-4.111 1.732 1-2.372 4.111-1.733-1M71.922 142.903l1.625-4.459 1.879.684-1.625 4.46-1.879-.685M116.64 20.042l1.625-4.459 1.879.684-1.625 4.46-1.879-.685M83.285 146.128l.825-4.674 1.969.348-.826 4.674-1.968-.348M105.988 17.368l.825-4.673 1.969.347-.826 4.674-1.968-.348M166.556 28.323a12.914 12.914 0 0 1-6.152-1.549l.953-1.759a11.067 11.067 0 0 0 13.013-1.9c4.295-4.297 4.293-11.262-.004-15.556-4.297-4.295-11.262-4.293-15.557.004a11 11 0 0 0-1.695 13.363l-1.722 1.017c-3.671-6.187-1.632-14.178 4.556-17.849 6.187-3.671 14.178-1.632 17.849 4.556 3.671 6.187 1.632 14.178-4.556 17.849a13.019 13.019 0 0 1-6.685 1.824"/><path fill="#475059" d="M153.864 25.234l2.829 2.829 4.361-4.361a1.831 1.831 0 0 0 0-2.591v-.001l-.236-.235a1.835 1.835 0 0 0-2.592-.001l-4.362 4.36zm2.829 5.657l-5.657-5.657 5.776-5.774a3.923 3.923 0 0 1 5.419 0l.236.235a3.832 3.832 0 0 1 .003 5.419l-.002.002-5.775 5.775z"/><path fill="#48515A" d="M184.106 43.316h2v-4h-2zM184.106 53.316h2v-4h-2zM188.106 47.316h4v-2h-4zM178.106 47.316h4v-2h-4zM174.101 133.369h2v-4h-2zM174.101 143.369h2v-4h-2zM178.101 137.369h4v-2h-4zM168.101 137.369h4v-2h-4zM6 103.351h2v-4H6zM6 113.351h2v-4H6zM10 107.351h4v-2h-4zM0 107.351h4v-2H0z"/><path fill="#FFD15D" d="M32.783 6.587a3 3 0 1 1 0 6 3 3 0 0 1 0-6m150 108a3 3 0 1 1 0 6 3 3 0 0 1 0-6m-132 48a3 3 0 1 1 0 6 3 3 0 0 1 0-6m77-54a4 4 0 1 1 0 8 4 4 0 0 1 0-8"/><path fill="#FFD15D" d="M127.783 118.587a6 6 0 1 1 0-12 6 6 0 0 1 0 12zm0-14a8 8 0 1 0 0 16 8 8 0 0 0 0-16zM131.783 164.947l3 2.924-.708 4.129 3.708-1.949 3.708 1.949-.708-4.129 3-2.924-4.146-.603-1.854-3.757-1.854 3.757zM5.783 51.534l3 2.924-.708 4.129 3.708-1.949 3.708 1.949-.708-4.129 3-2.924-4.146-.602-1.854-3.757-1.854 3.757z"/><path fill="#475059" d="M26.954 80.585H31.7v-2h-4.746z"/></g></svg>