<?xml version="1.0" encoding="utf-8"?><svg xmlns="http://www.w3.org/2000/svg" width="250" height="250" viewBox="0 0 250 250"><g fill="none" fill-rule="evenodd"><path fill="#FFD15D" d="M146.989 152.058h20v-15.284h-20v15.284zm-4 20h-36v-4h5.887v-20.64c0-6.669 5.407-11.36 12.076-11.36 6.669 0 12.075 4.691 12.075 11.36v20.64h5.962v4zm-67.961.05h100.999v-47.001H75.028v47.001z"/><path fill="#FFF" d="M82.951 152.058h20v-15.284h-20z"/><path fill="#F58E70" d="M148.422 88.895l-.008-.239a21.914 21.914 0 0 0-3.662-11.436c-1.221-1.708-4.034-6.285-3.682-11.665l.231-2.675c-.695.446-1.34.951-1.922 1.505l-2.802 2.669-1.886-3.379a37.503 37.503 0 0 1-4.597-21.605 40.162 40.162 0 0 0-8.852 23.788l-.399 11.104-5.244-9.796c-.885-1.654-2.304-3.101-4.051-4.202.13.824.226 1.686.285 2.59.352 5.381-2.462 9.958-3.688 11.676a21.886 21.886 0 0 0-3.656 11.414l-.009.251c-.005.171-.007.343-.007.51 0 5.476 1.985 10.647 5.614 14.69l3.504 3.882h25.75l3.475-3.882c3.629-4.043 5.613-9.213 5.613-14.69 0-.167-.002-.339-.007-.51"/><path fill="#475059" d="M69.589 121.323h112.35v-5.927l-9.143-34.288H78.732l-9.143 34.288v5.927zm114.35 2H67.589l.033-8.315 9.574-35.9h97.136l9.607 36.157v8.058z"/><path fill="#475059" d="M71.964 116.412h2v-2h-2v2zm4 0h2v-2h-2v2zm4 0h2v-2h-2v2zm4 0h2v-2h-2v2zm4 0h2v-2h-2v2zm4 0h2v-2h-2v2zm4 0h2v-2h-2v2zm4 0h2v-2h-2v2zm4 0h2v-2h-2v2zm4 0h2v-2h-2v2zm4 0h2v-2h-2v2zm4 0h2v-2h-2v2zm4 0h2v-2h-2v2zm4 0h2v-2h-2v2zm4 0h2v-2h-2v2zm4 0h2v-2h-2v2zm4 0h2v-2h-2v2zm4 0h2v-2h-2v2zm4 0h2v-2h-2v2zm6 0h-2v-2h1.988l.012 2zm2 0h2v-2h-2v2zm4 0h2v-2h-2v2zm4 0h2v-2h-2v2zm4 0h2v-2h-2v2zm4 0h2v-2h-2v2zm4 0h2v-2h-2v2zm4 0h2v-2h-2v2zM177.596 145.608h2v-23.286h-2zM138.027 168.341h-2v-20.923c0-5.907-4.761-10.36-11.075-10.36-6.314 0-11.076 4.453-11.076 10.36v20.923h-2v-20.923c0-7.047 5.621-12.36 13.076-12.36 7.454 0 13.075 5.313 13.075 12.36v20.923"/><path fill="#475059" d="M130.108 155.167c-.27 0-.53-.11-.71-.29-.05-.05-.09-.1-.13-.15l-.09-.18c-.02-.06-.04-.12-.05-.18-.02-.07-.02-.13-.02-.2 0-.26.1-.52.29-.71.23-.23.57-.33.9-.27.06.01.13.03.19.06.06.02.12.05.17.09a1.017 1.017 0 0 1 .45.83c0 .07-.01.13-.02.2l-.06.18-.09.18c-.04.05-.08.1-.13.15-.04.04-.09.09-.15.12-.05.04-.11.07-.17.09-.06.03-.13.05-.19.06-.06.01-.13.02-.19.02M70.964 145.108h2v-22.859h-2zM110.278 177.317h2v-2h-2v2zm4 0h2v-2h-2v2zm4 0h2v-2h-2v2zm4 0h2v-2h-2v2zm4 0h2v-2h-2v2zm4 0h2v-2h-2v2zm4 0h2v-2h-2v2zm4 0h2v-2h-2v2zm-30.289-6.259h34v-2h-34v2zm-2 2h38v-6h-38v6zm46.123-64.963H141.69l1.707-1.707c4.534-4.535 7.032-10.566 7.032-16.983 0-.185-.002-.374-.007-.564l-.009-.262a23.913 23.913 0 0 0-3.997-12.468c-1.133-1.587-3.66-5.69-3.35-10.426l.268-3.107a16.7 16.7 0 0 1 .948-3.263c-2.385.737-4.566 1.988-6.283 3.622l-.933.89-.629-1.127a35.503 35.503 0 0 1-4.491-17.271c0-3.262.441-6.477 1.314-9.596a42.17 42.17 0 0 0-14.016 29.953l-.134 3.702-1.747-3.266c-1.679-3.136-4.953-5.626-8.809-6.789.704 1.79 1.126 3.855 1.283 6.252.31 4.736-2.218 8.839-3.319 10.383a23.929 23.929 0 0 0-4.028 12.507l-.009.266c-.005.19-.008.379-.008.564 0 6.416 2.498 12.448 7.033 16.983l1.707 1.707H99.93v-2h6.597c-3.919-4.672-6.054-10.517-6.054-16.69 0-.203.003-.411.009-.618l.009-.283a25.914 25.914 0 0 1 4.332-13.503l.067-.095c.976-1.369 3.219-4.997 2.951-9.09-.197-3.009-.838-5.407-1.959-7.333l-1.08-1.856 2.116.367c4.197.73 8.009 2.88 10.525 5.831 1.231-12.185 7.42-23.282 17.266-30.784l2.83-2.156-1.293 3.315a33.53 33.53 0 0 0-2.3 12.229 33.511 33.511 0 0 0 3.652 15.201c2.332-1.892 5.246-3.217 8.337-3.772l2.114-.38-1.07 1.862a14.369 14.369 0 0 0-1.666 4.509l-.253 2.987c-.266 4.073 1.976 7.701 2.953 9.07l.059.083a25.923 25.923 0 0 1 4.34 13.519l.009.279c.006.207.008.415.008.618 0 6.173-2.134 12.018-6.053 16.69h5.736v2"/><path fill="#48515A" d="M213.053 99.137h2v-4h-2zM213.053 109.137h2v-4h-2zM217.053 103.137h4v-2h-4zM207.053 103.137h4v-2h-4zM34.946 129.155h2v-4h-2zM34.946 139.155h2v-4h-2zM38.946 133.155h4v-2h-4zM28.946 133.155h4v-2h-4z"/><path fill="#F58E70" d="M85.278 71.492a1.125 1.125 0 1 1-2.25 0 1.125 1.125 0 0 1 2.25 0m65.75-9.75a1.626 1.626 0 1 1 3.251.001 1.626 1.626 0 0 1-3.251-.001m10-19.625a2 2 0 1 1-3.999.001 2 2 0 0 1 3.999-.001m-56 1a1 1 0 1 1 2 0 1 1 0 0 1-2 0m-18 44a3 3 0 1 1 6 0 3 3 0 0 1-6 0m8.001-28.029a2 2 0 1 1-3.999.001 2 2 0 0 1 3.999-.001m79.999 6.029a1 1 0 1 1 2 0 1 1 0 0 1-2 0m-16 22a1 1 0 1 1 2 0 1 1 0 0 1-2 0"/><path fill="#475059" d="M191.113 84.1h-2c0-2.206-1.795-4-4-4-2.206 0-4 1.794-4 4h-2c0-3.309 2.691-6 6-6 3.308 0 6 2.691 6 6"/><path fill="#475059" d="M201.113 84.1h-2c0-2.206-1.795-4-4-4-2.206 0-4 1.794-4 4h-2c0-3.309 2.691-6 6-6 3.308 0 6 2.691 6 6"/><path fill="#475059" d="M211.113 84.1h-2c0-2.206-1.795-4-4-4-2.206 0-4 1.794-4 4h-2c0-3.309 2.691-6 6-6 3.308 0 6 2.691 6 6"/><path fill="#475059" d="M179.113 83.1c0-8.823 7.177-16.001 16-16.001 8.822 0 16 7.178 16 16h-2c0-7.719-6.281-14-14-14-7.72 0-14 6.281-14 14l-2 .001"/><path fill="#475059" d="M191.613 97.101a4.505 4.505 0 0 1-4.5-4.5h2c0 1.378 1.121 2.5 2.5 2.5 1.378 0 2.5-1.122 2.5-2.5V79.1h2v13.501c0 2.481-2.019 4.5-4.5 4.5M194.113 68.099h2v-2.998h-2z"/><path fill="#48515A" d="M110.6 210.115h-2v-11H71.601v11h-2v-13H110.6v13"/><path fill="#5FE0ED" d="M64.602 220.115h48.119V207.12H64.602z"/><path fill="#48515A" d="M78.6 215.115h-3.999a1 1 0 0 1 0-2H78.6a1 1 0 1 1 0 2"/><path fill="#48515A" d="M72.601 213.115c-.551 0-1 .449-1 1a1.001 1.001 0 1 0 1-1zm0 4c-1.654 0-3-1.346-3-3s1.346-3 3-3c1.655 0 3 1.346 3 3s-1.345 3-3 3z"/><path fill="#DEDEDD" d="M55.823 136.589v15.792l11.027 9.525a12.422 12.422 0 0 0 8.943 3.638l3.322-.041-12.286-10.546v-10.363c0-2.984-1.071-5.619-3.002-7.247v-.758c0-4.946-2.926-8.955-7.871-8.955v1.073c-1.121-.684-2.464-1.073-4.003-1.073v1.073c2.481 1.513 3.87 4.475 3.87 7.882"/><path fill="#475059" d="M79.115 166.503a.991.991 0 0 1-.651-.242l-12.635-10.844v-10.824c0-2.701-.964-5.063-2.646-6.481l-.356-.3v-1.223c0-3.96-2.124-7.955-6.871-7.955h-3.003v.073a1 1 0 1 1-2 0v-2.073h5.003c5.223 0 8.871 4.093 8.871 9.955v.312c1.914 1.814 3.002 4.588 3.002 7.692v9.905l11.938 10.246a1 1 0 0 1-.652 1.759"/><path fill="#475059" d="M103.906 198.516a1 1 0 0 1-1-1v-21.857a9.124 9.124 0 0 0-2.689-6.491l-23.514-23.514c-2.564 3.33-2.199 8.436.996 11.63l9.628 9.115-11.521.146c-3.555.038-7.119-1.388-9.663-3.932l-11.321-9.774v-16.25c0-3.67-1.825-7.371-5.871-7.893v29.396l27.977 26.666v12.674a1 1 0 1 1-2 0v-11.818l-27.977-26.666v-32.314h1c5.224 0 8.871 4.093 8.871 9.955v15.335l10.682 9.225a11.601 11.601 0 0 0 8.277 3.396l6.59-.084-6.067-5.743c-4.233-4.232-4.386-11.199-.354-15.231l.707-.707 24.974 24.974a11.108 11.108 0 0 1 3.275 7.905v21.857a1 1 0 0 1-1 1"/><path fill="#48515A" d="M180.081 210.115h-2v-11h-36.998v11h-2v-13h40.998v13"/><path fill="#5FE0ED" d="M136.962 220.115h48.119V207.12h-48.119z"/><path fill="#48515A" d="M175.081 215.115h-3.998a1 1 0 0 1 0-2h3.998a1 1 0 1 1 0 2"/><path fill="#48515A" d="M177.081 213.115c-.551 0-1 .449-1 1a1.001 1.001 0 1 0 1-1zm0 4c-1.654 0-3-1.346-3-3s1.346-3 3-3c1.655 0 3 1.346 3 3s-1.345 3-3 3z"/><path fill="#DEDEDD" d="M193.86 136.589v15.792l-11.027 9.525a12.422 12.422 0 0 1-8.943 3.638l-3.322-.041 12.286-10.546v-10.363c0-2.984 1.071-5.619 3.001-7.247v-.758c0-4.946 2.926-8.955 7.872-8.955v1.073c1.121-.684 2.464-1.073 4.003-1.073v1.073c-2.481 1.513-3.87 4.475-3.87 7.882"/><path fill="#475059" d="M170.568 166.503a1 1 0 0 1-.652-1.759l11.938-10.246v-9.905c0-3.104 1.088-5.878 3.001-7.692v-.312c0-5.862 3.649-9.955 8.872-9.955h5.003v2.073a1 1 0 0 1-2 0v-.073h-3.003c-4.747 0-6.872 3.995-6.872 7.955v1.223l-.355.3c-1.682 1.418-2.646 3.78-2.646 6.481v10.824l-12.635 10.844a.99.99 0 0 1-.651.242"/><path fill="#475059" d="M145.778 198.516a1 1 0 0 1-1-1v-21.857c0-2.986 1.163-5.794 3.274-7.905l24.974-24.974.707.707c1.976 1.977 3.011 4.689 2.913 7.639-.094 2.842-1.278 5.603-3.248 7.572l-6.087 5.763 6.591.084a11.437 11.437 0 0 0 8.224-3.346l10.734-9.275v-15.335c0-5.862 3.649-9.955 8.872-9.955h1v32.314l-27.977 26.666v11.818a1 1 0 1 1-2 0v-12.674l27.977-26.666v-29.396c-4.046.522-5.872 4.223-5.872 7.893v16.25l-11.373 9.824c-2.491 2.493-6.003 3.93-9.61 3.882l-11.521-.146 9.648-9.134c3.176-3.177 3.54-8.281.976-11.611l-23.513 23.514a9.12 9.12 0 0 0-2.689 6.491v21.857a1 1 0 0 1-1 1m-37.501-17.197h2v-2h-2v2zm4 0h2v-2h-2v2zm4 0h2v-2h-2v2zm4 0h2v-2h-2v2zm4 0h2v-2h-2v2zm4 0h2v-2h-2v2zm4 0h2v-2h-2v2zm4 0h2v-2h-2v2zm4 0h2v-2h-2v2z"/></g></svg>