<?xml version="1.0" encoding="utf-8"?><svg xmlns="http://www.w3.org/2000/svg" xmlns:xlink="http://www.w3.org/1999/xlink" width="193" height="193" viewBox="0 0 193 193"><defs><path id="eya" d="M.03 0h192.023v191.94H.03z"/></defs><g fill="none" fill-rule="evenodd"><path fill="#DEDEDD" d="M4.031 39.006h27.002v-6.994H4.031zM51.029 39.006h137.003v-6.994H51.029z"/><path fill="#F58E70" d="M94.028 153.008h72.014v-31.013l-72.014.032v30.981"/><path fill="#475059" d="M53.053 163.998h-2v-61.862l-3-11.139V21.335L43.028 2.997H40.04l-5.987 18.362v69.772l-3 11.005v61.862h-2v-62.13l3-11.005V21.042L38.589.997h5.964l5.5 20.204v69.662l3 11.139v61.996M88.028 159.008h84.014v-43.016l-84.014.038v42.978zm86.014 2H86.028v-46.977l88.014-.04v47.017zm-50.007-78.017h12v-12h-12v12zm-2 2h16v-16h-16v16z"/><path fill="#475059" d="M130.035 101.989a7.007 7.007 0 0 1-7-7h2a5 5 0 1 0 10 0 5 5 0 0 0-5-5h-1v-5.998h2v4.07a7 7 0 0 1-1 13.928M125.452 69.992h2V48.014h-2zM132.119 69.992h2V48.014h-2z"/><path fill="#475059" d="M159.785 114.991h-2v-1.406l-27.754-15.124-28.246 15.129v1.401h-2v-2.598l30.254-16.205 29.746 16.209v2.594"/><path fill="#48515A" d="M192.032 43.007H51.029v-2h139.003V30.012H51.029v-2h141.003v14.995M31.032 43.007H.03V28.012h31.002v2H2.03v10.995h29.002v2"/><g transform="translate(0 1)"><mask id="eyb" fill="#fff"><use xlink:href="#eya"/></mask><path fill="#475059" mask="url(#eyb)" d="M2.03 28.001h-2v-2.535L38.222 0l5.975.014 147.856 24.138v3.1h-2v-1.4L43.954 2h-5.127L2.03 26.536v1.465M21.037 190h39.987v-1.997H21.037V190zm-2 2h43.987v-5.997H19.037V192z"/></g><path fill="#48515A" d="M6 114.005h2v-4H6zM6 124.005h2v-4H6zM10 118.005h4v-2h-4zM0 118.005h4v-2H0zM184.106 165.036h2v-4h-2zM184.106 175.036h2v-4h-2zM188.106 169.036h4v-2h-4zM178.106 169.036h4v-2h-4z"/><path fill="#475059" d="M92.028 155.008h76.014v-35.014l-76.014.034v34.98zm78.014 2H90.028v-38.979l80.014-.036v39.015z"/><path fill="#475059" d="M96.054 156.002h2v-37h-2zM102.058 156.002h2v-37h-2zM108.061 156.002h2v-37h-2zM114.064 156.002h2v-37h-2zM120.068 156.002h2v-37h-2zM126.072 156.002h2v-37h-2zM132.075 156.002h2v-37h-2zM138.079 156.002h2v-37h-2zM144.083 156.002h2v-37h-2zM150.086 156.002h2v-37h-2zM156.09 156.002h2v-37h-2zM162.093 156.002h2v-37h-2zM33.254 103.881l7.799 7.798 7.798-7.798H33.254zm-.787 19.212l8.586 8.586 8.585-8.586-8.585-8.585-8.586 8.585zm0 20l8.586 8.586 8.585-8.586-8.585-8.585-8.586 8.585zm17.666 20.495l-9.08-9.08-9.081 9.08-.283-.282h-1.424v-.839l9.373-9.374-9.373-9.373v-1.253l9.373-9.374-9.373-9.373v-1.253l9.373-9.374-9.373-9.373v-1.839H51.84v1.839l-9.373 9.373 9.373 9.374v1.253l-9.373 9.373 9.373 9.374v1.253l-9.373 9.373 9.373 9.374v.839h-1.424l-.283.282z"/><path fill="#475059" d="M25.053 187.002h32v-7.818l-5.693-15.183H30.746l-5.693 15.183v7.818zm34 2h-36v-10.181l6.307-16.82h23.386l6.307 16.82v10.181zm103-117.008c-14.12-.05-26.313-9.895-29.335-23.688l1.956-.419c3.256 15.119 18.153 24.736 33.272 21.479 12.896-2.778 22.105-14.18 22.107-27.372h2c-.019 16.561-13.44 29.981-30 30"/><path fill="#48515A" d="M94.053 54.97h2v-4h-2zM94.053 64.97h2v-4h-2zM98.053 58.97h4v-2h-4zM88.053 58.97h4v-2h-4z"/><path fill="#DEDEDD" d="M27.053 185.002h28v-5.384l-4.978-13.617H32.031l-4.978 13.617v5.384"/><path fill="#48515A" d="M119.051 46.993h22.005v-3.999h-22.005v3.999zm-2 2.001h26.005v-7.999h-26.005v7.999z"/><path fill="#475059" d="M33.056 22.206h15.995v-2H33.056z"/><path fill="#DEDEDD" d="M126.053 81h8v-8h-8z"/><path fill="#475059" d="M2.053 54.999h8v-12h-8v12zm-2 2h12v-16h-12v16z"/><path fill="#475059" d="M12.059 54.999h8v-12h-8v12zm-2 2h12v-16h-12v16z"/><path fill="#DEDEDD" d="M4.053 52.999h4V45h-4zM14.059 52.999h4V45h-4zM37.054 89.999h7.999v-68h-7.999z"/><path fill="#475059" d="M35.467 35l5.586 5.586L46.639 35l-5.586-5.586L35.467 35zm0 14l5.586 5.586L46.639 49l-5.586-5.586L35.467 49zm0 14l5.586 5.586L46.639 63l-5.586-5.586L35.467 63zm.002 13.998l5.584 5.585 5.585-5.585-5.585-5.584-5.584 5.584zm.998 12.999h9.172l-4.586-4.586-4.586 4.586zm14 2H31.639l8-8-6.998-6.999L39.639 70l-7-7 7-7-7-7 7-7-7-7 7-7-6.293-6.293 1.414-1.414 6.293 6.293 6.293-6.293 1.414 1.414L42.467 28l7 7-7 7 7 7-7 7 7 7-7 7 6.999 6.998-6.999 6.999 8 8z"/><path fill="#475059" d="M40.778 103.563l-8.539-11.986 1.629-1.16 6.96 9.77 7.429-9.794 1.593 1.209-9.072 11.961M76.475 104h3.578l1.774-4.023 3.296-1.903 4.371.475 1.789-3.098-2.597-3.548v-3.806l2.597-3.548-1.789-3.098-4.371.475-3.296-1.903L80.053 76h-3.578l-1.774 4.023-3.295 1.903-4.372-.475-1.789 3.098 2.598 3.548v3.806l-2.598 3.548 1.789 3.098 4.372-.475 3.295 1.903L76.475 104zm4.882 2h-6.186l-2.036-4.618-2.163-1.249-5.018.545-3.093-5.356 2.982-4.073v-2.498l-2.982-4.073 3.093-5.356 5.018.545 2.163-1.249L75.171 74h6.186l2.037 4.618 2.162 1.249 5.018-.545 3.093 5.356-2.981 4.073v2.497l2.981 4.074-3.093 5.356-5.018-.545-2.162 1.249L81.357 106z"/><path fill="#475059" d="M78.264 88a2 2 0 1 0 0 4 2 2 0 0 0 0-4zm0 6a4 4 0 1 1 0-8 4 4 0 0 1 0 8z"/><path fill="#475059" d="M78.264 84a6 6 0 1 0 6 6 6.007 6.007 0 0 0-6-6zm0 14a8 8 0 1 1 8-8 8.01 8.01 0 0 1-8 8z"/><path fill="#F58E70" d="M92.053 21a2 2 0 1 1 .001 3.999A2 2 0 0 1 92.053 21m38 152a2 2 0 1 1 .001 3.999 2 2 0 0 1-.001-3.999"/><path fill="#5FE0ED" d="M20.053 139a4 4 0 1 1 0 8 4 4 0 0 1 0-8"/><path fill="#DEDEDD" d="M16.053 69a2 2 0 1 1 .001 3.999A2 2 0 0 1 16.053 69"/></g></svg>