<?xml version="1.0" encoding="utf-8"?><svg xmlns="http://www.w3.org/2000/svg" width="250" height="250" viewBox="0 0 250 250"><g fill="none" fill-rule="evenodd"><path fill="#DEDEDD" d="M131.999 103.751a5 5 0 1 1 10 0c0 1.563-.732 2.942-1.856 3.859l.606 7.639h-7.499l.606-7.639c-1.124-.917-1.857-2.296-1.857-3.859M154.988 114.499h16V105.5h-16z"/><path fill="#DEDEDD" d="M170.988 106.499H99.417l-6.417-4h77.988v4"/><path fill="#2B2B2B" d="M86.058 109.931l-.053 1.485C86 115.359 89.141 118.5 93 118.5s7-3.141 7-7-3.141-7-7-7v-2c3.859 0 7-3.141 7-7s-3.141-7-7-7-7 3.141-7 7l.058 1.569-1.295-.336C80.117 95.534 76 99.068 76 103.5c0 4.431 4.119 7.964 8.763 6.767l1.295-.336zM93 120.5c-4.647 0-8.482-3.54-8.952-8.065C78.633 113.112 74 108.809 74 103.5c0-5.309 4.634-9.611 10.048-8.935.47-4.525 4.305-8.065 8.952-8.065 4.963 0 9 4.037 9 9a9.008 9.008 0 0 1-4.879 8 9.008 9.008 0 0 1 4.879 8c0 4.963-4.037 9-9 9zM144.066 104.5h26.922v-2h-26.922z"/><path fill="#2B2B2B" d="M93 104.5h49.004v-2H93zM161.917 112.499h2V103.5h-2z"/><path fill="#2B2B2B" d="M171 112.5h-3v-4h-10v4h-3.083v-2H156v-4h14v4h1v2M105.917 107.5h2v-8h-2zM140.749 116.249h-8.582l.653-8.224a5.95 5.95 0 0 1-1.821-4.274c0-1.466.534-2.877 1.505-3.975a6.007 6.007 0 0 1 4.495-2.025v2a4 4 0 0 0-4 4c0 1.187.543 2.312 1.489 3.085l.407.331-.562 7.082h6.416v2"/><path fill="#F58E70" d="M164.835 198.5a1 1 0 1 1-2 0 1 1 0 0 1 2 0"/><path fill="#5FE0ED" d="M183.284 80.209c-3.43-7.592-8.318-14.355-14.531-20.102a60.618 60.618 0 0 0-2.312-2.123C154.929 47.999 140.17 42.5 124.881 42.5c-5.875 0-11.671.82-17.236 2.387l-.078.023a63.203 63.203 0 0 0-3.22 1.01c-.348.118-.694.238-1.039.361a63.98 63.98 0 0 0-2.208.848c-1.028.41-2.041.853-3.046 1.317-.212.099-.427.191-.638.292-5.143 2.444-9.979 5.56-14.341 9.343-5.564 4.826-10.162 10.558-13.713 17.037a64.058 64.058 0 0 0-8.847 32.559v57.234c0 8.843 2.991 20.14 3.051 21.043H99.65l-1.163-4.657a131.358 131.358 0 0 0-7.583-21.922c-4.848-11.96-10.243-22.466-13.953-29.651l-.231-.449a57.202 57.202 0 0 1-4.199-10.67c-3.68-12.99-2.579-26.753 3.398-38.452a54.21 54.21 0 0 1 4.258-6.975 53.307 53.307 0 0 1 8.366-9.175 55.564 55.564 0 0 1 2.849-2.293c.185-.14.369-.281.555-.419a55.813 55.813 0 0 1 2.913-2.01c.163-.105.33-.205.495-.308.961-.603 1.929-1.198 2.933-1.726.096-.05.189-.107.284-.158a56.226 56.226 0 0 1 3.837-1.867 56.373 56.373 0 0 1 3.328-1.352c.111-.04.223-.075.333-.115a55.995 55.995 0 0 1 3.303-1.07c.141-.041.28-.086.421-.125a55.8 55.8 0 0 1 3.505-.862c.198-.042.397-.081.596-.121a55.183 55.183 0 0 1 3.651-.621 55.758 55.758 0 0 1 7.335-.487c13.371 0 26.276 4.806 36.338 13.535l.162.141-.031.037.064.053.04.034a.12.12 0 0 0 .018.015l.011.009.031.027.05.043.029.025c.59.505 1.158 1.023 1.722 1.545 5.44 5.024 9.715 10.931 12.706 17.555 3.176 7.037 4.055 14.969 2.629 22.625h8.072c1.352-8.79.209-17.826-3.438-25.904"/><path fill="#475059" d="M99.323 212.5h-2v-5.312c-.01-27.181-16.91-59.902-25.032-75.626-8.888-17.209-9.19-37.275-.812-53.676 3.459-6.769 8.1-12.706 13.797-17.649 10.97-9.513 25.036-14.753 39.605-14.753 14.569 0 28.635 5.24 39.604 14.753a60.086 60.086 0 0 1 2.221 2.042c5.929 5.479 10.591 11.924 13.857 19.159 4.828 10.694 4.981 23.195.419 34.297a16.563 16.563 0 0 0-1.261 6.308c0 1.066.115 2.174.342 3.291a16.489 16.489 0 0 0 2.603 6.135l6.982 10.083c.521.618.837 1.492.837 2.388a3.834 3.834 0 0 1-2.627 3.644l-5.183 1.729a2.075 2.075 0 0 0-1.421 1.97c0 .846.195 2.05 1.128 2.982l.293.293v2.011c0 1.662-1.112 2.842-2.907 3.185.048 1.042.064 2.257-.081 2.758-.393 1.353-1.314 2.118-2.054 2.733-.713.592-1.003.875-1.005 1.299l-.017 6.646c-.013 4.846-3.96 8.789-8.798 8.789h-15.247a5.16 5.16 0 0 0-5.153 5.092l3.078 24.1v1.327h-2v-1.264l-3.078-24.101c0-3.945 3.209-7.154 7.153-7.154h15.247c3.738 0 6.789-3.048 6.798-6.794l.017-6.649c.005-1.4.96-2.193 1.727-2.83.612-.508 1.189-.987 1.412-1.752.069-.315.031-1.826-.05-3.031l-.071-1.053 1.055-.015c.901-.012 1.974-.246 1.974-1.286v-1.207c-.919-1.077-1.421-2.508-1.421-4.079a4.07 4.07 0 0 1 2.788-3.867l5.184-1.728a1.841 1.841 0 0 0 .832-2.926l-7.037-10.155a18.448 18.448 0 0 1-2.917-6.875 18.554 18.554 0 0 1-.383-3.689c0-2.408.474-4.785 1.412-7.067 4.352-10.596 4.21-22.521-.393-32.716-3.156-6.991-7.665-13.222-13.399-18.519a65.439 65.439 0 0 0-1.857-1.663l-.213-.181.031-.038-.128-.111c-10.606-9.198-24.205-14.264-38.293-14.264-14.088 0-27.688 5.066-38.294 14.265-5.502 4.772-9.985 10.508-13.326 17.047-8.087 15.828-7.785 35.211.807 51.848 8.195 15.865 25.245 48.877 25.255 76.544v5.312"/><path fill="#48515A" d="M213 189.5h2v-4h-2zM213 199.5h2v-4h-2zM217 193.5h4v-2h-4zM207 193.5h4v-2h-4zM35 141.5h2v-4h-2zM35 151.5h2v-4h-2zM39 145.5h4v-2h-4zM29 145.5h4v-2h-4zM191 41.5h2v-4h-2zM191 51.5h2v-4h-2zM195 45.5h4v-2h-4zM185 45.5h4v-2h-4z"/><path fill="#5FE0ED" d="M210.317 133.773a3.317 3.317 0 1 1-6.634 0 3.317 3.317 0 0 1 6.634 0m-154.5-68.286a3.317 3.317 0 1 1-6.634 0 3.317 3.317 0 0 1 6.634 0"/><path fill="#F58E70" d="M164.835 198.5a1 1 0 1 1-2 0 1 1 0 0 1 2 0M54.5 185.5a2 2 0 1 1-3.999.001 2 2 0 0 1 3.999-.001"/></g></svg>