<?xml version="1.0" encoding="utf-8"?><svg xmlns="http://www.w3.org/2000/svg" xmlns:xlink="http://www.w3.org/1999/xlink" width="192" height="155" viewBox="0 0 192 155"><defs><path id="sia" d="M.003 0h2v13.94h-2z"/></defs><g fill="none" fill-rule="evenodd"><path fill="#DEDEDD" d="M38.989 123.98h6v-16h-6z"/><path fill="#475059" d="M38.989 105.98h6v-2h-6zM38.989 127.992h6v-2h-6z"/><path fill="#DEDEDD" d="M38.989 34.927h6v-16h-6z"/><path fill="#475059" d="M38.989 16.926h6v-2h-6zM38.989 38.94h6v-2h-6z"/><path fill="#475059" d="M29.665 138.932h.646l.904-2.259a5.069 5.069 0 0 1 3.854-3.101 3.485 3.485 0 0 0 2.92-3.447V11.732a3.485 3.485 0 0 0-2.92-3.447 5.07 5.07 0 0 1-3.854-3.1l-.904-2.26h-.646l-.902 2.259a5.07 5.07 0 0 1-3.855 3.101 3.484 3.484 0 0 0-2.919 3.447v118.393a3.484 3.484 0 0 0 2.919 3.447 5.07 5.07 0 0 1 3.855 3.101l.902 2.259zm2 2h-3.353l-1.407-3.517a3.06 3.06 0 0 0-2.325-1.871 5.477 5.477 0 0 1-4.591-5.419V11.732a5.476 5.476 0 0 1 4.591-5.419 3.06 3.06 0 0 0 2.325-1.871L28.312.925h3.353l1.407 3.517a3.06 3.06 0 0 0 2.325 1.871 5.476 5.476 0 0 1 4.592 5.419v118.393a5.476 5.476 0 0 1-4.592 5.419 3.062 3.062 0 0 0-2.325 1.872l-1.407 3.516z"/><path fill="#DEDEDD" d="M28.989 8.347a7.063 7.063 0 0 1-3.751 1.912 1.487 1.487 0 0 0-1.249 1.472v118.394a1.487 1.487 0 0 0 1.248 1.473 7.068 7.068 0 0 1 3.752 1.911V8.347m5.752 1.912h-.001a7.056 7.056 0 0 1-3.751-1.912v125.162a7.065 7.065 0 0 1 3.751-1.911 1.488 1.488 0 0 0 1.249-1.473V11.731a1.488 1.488 0 0 0-1.248-1.472"/><path fill="#475059" d="M17.989 120.932h2v-12h-2v12zm-2 2h6v-16h-6v16z"/><path fill="#475059" d="M13.989 118.932h2v-8h-2v8zm-2 2h6v-12h-6v12z"/><path fill="#475059" d="M13.989 118.932H0v-2h11.989v-4H0v-2h13.989v8"/><path fill="#DEDEDD" d="M135.046 123.98h6v-16h-6z"/><path fill="#475059" d="M135.047 105.98h6v-2h-6zM135.047 127.992h6v-2h-6z"/><path fill="#DEDEDD" d="M111.032 123.98h6v-16h-6z"/><path fill="#475059" d="M111.032 105.98h6v-2h-6zM111.032 127.992h6v-2h-6z"/><path fill="#DEDEDD" d="M87.018 123.98h6v-16h-6z"/><path fill="#475059" d="M87.017 105.98h6v-2h-6zM87.017 127.992h6v-2h-6z"/><path fill="#DEDEDD" d="M63.003 123.98h6v-16h-6z"/><path fill="#475059" d="M63.003 105.98h6v-2h-6zM63.003 127.992h6v-2h-6z"/><path fill="#DEDEDD" d="M135.046 34.927h6v-16h-6z"/><path fill="#475059" d="M135.047 16.926h6v-2h-6zM135.047 38.94h6v-2h-6z"/><path fill="#DEDEDD" d="M111.032 34.927h6v-16h-6z"/><path fill="#475059" d="M111.032 16.926h6v-2h-6zM111.032 38.94h6v-2h-6z"/><path fill="#DEDEDD" d="M87.018 34.927h6v-16h-6z"/><path fill="#475059" d="M87.017 16.926h6v-2h-6zM87.017 38.94h6v-2h-6z"/><path fill="#DEDEDD" d="M63.003 34.927h6v-16h-6z"/><path fill="#475059" d="M63.003 16.926h6v-2h-6zM63.003 38.94h6v-2h-6z"/><path fill="#475059" d="M53.68 138.932h.646l.903-2.259a5.07 5.07 0 0 1 3.855-3.101 3.484 3.484 0 0 0 2.919-3.447V11.732a3.484 3.484 0 0 0-2.919-3.447 5.07 5.07 0 0 1-3.855-3.101l-.903-2.259h-.646l-.903 2.259a5.069 5.069 0 0 1-3.854 3.101 3.485 3.485 0 0 0-2.92 3.447v118.393a3.485 3.485 0 0 0 2.92 3.447 5.07 5.07 0 0 1 3.854 3.1l.903 2.26zm2 2h-3.354l-1.406-3.517a3.06 3.06 0 0 0-2.325-1.871 5.476 5.476 0 0 1-4.592-5.419V11.732a5.476 5.476 0 0 1 4.592-5.419 3.062 3.062 0 0 0 2.325-1.872L52.326.925h3.354l1.407 3.517a3.06 3.06 0 0 0 2.325 1.871 5.476 5.476 0 0 1 4.591 5.419v118.393a5.477 5.477 0 0 1-4.591 5.419 3.06 3.06 0 0 0-2.325 1.871l-1.407 3.517z"/><path fill="#DEDEDD" d="M53.003 8.347a7.06 7.06 0 0 1-3.751 1.912 1.488 1.488 0 0 0-1.249 1.472v118.394a1.488 1.488 0 0 0 1.248 1.473 7.068 7.068 0 0 1 3.752 1.911V8.347m5.752 1.912h-.001a7.06 7.06 0 0 1-3.751-1.912v125.162a7.065 7.065 0 0 1 3.751-1.911 1.488 1.488 0 0 0 1.249-1.473V11.731a1.488 1.488 0 0 0-1.248-1.472"/><path fill="#475059" d="M77.68 138.932h.646l.903-2.259a5.07 5.07 0 0 1 3.855-3.101 3.484 3.484 0 0 0 2.919-3.447V11.732a3.484 3.484 0 0 0-2.919-3.447 5.07 5.07 0 0 1-3.855-3.101l-.903-2.259h-.646l-.903 2.259a5.069 5.069 0 0 1-3.854 3.101 3.485 3.485 0 0 0-2.92 3.447v118.393a3.485 3.485 0 0 0 2.92 3.447 5.07 5.07 0 0 1 3.854 3.1l.903 2.26zm2 2h-3.354l-1.406-3.517a3.06 3.06 0 0 0-2.325-1.871 5.476 5.476 0 0 1-4.592-5.419V11.732a5.476 5.476 0 0 1 4.592-5.419 3.062 3.062 0 0 0 2.325-1.872L76.326.925h3.354l1.407 3.517a3.06 3.06 0 0 0 2.325 1.871 5.476 5.476 0 0 1 4.591 5.419v118.393a5.477 5.477 0 0 1-4.591 5.419 3.06 3.06 0 0 0-2.325 1.871l-1.407 3.517z"/><path fill="#DEDEDD" d="M77.003 8.347a7.06 7.06 0 0 1-3.751 1.912 1.488 1.488 0 0 0-1.249 1.472v118.394a1.488 1.488 0 0 0 1.248 1.473 7.068 7.068 0 0 1 3.752 1.911V8.347m5.752 1.912h-.001a7.06 7.06 0 0 1-3.751-1.912v125.162a7.065 7.065 0 0 1 3.751-1.911 1.487 1.487 0 0 0 1.249-1.473V11.731a1.488 1.488 0 0 0-1.248-1.472"/><path fill="#475059" d="M101.68 138.932h.646l.903-2.259a5.07 5.07 0 0 1 3.855-3.101 3.484 3.484 0 0 0 2.919-3.447V11.732a3.484 3.484 0 0 0-2.919-3.447 5.07 5.07 0 0 1-3.855-3.101l-.903-2.259h-.646l-.903 2.259a5.069 5.069 0 0 1-3.854 3.101 3.485 3.485 0 0 0-2.92 3.447v118.393a3.485 3.485 0 0 0 2.92 3.447 5.07 5.07 0 0 1 3.854 3.1l.903 2.26zm2 2h-3.354l-1.406-3.517a3.06 3.06 0 0 0-2.325-1.871 5.476 5.476 0 0 1-4.592-5.419V11.732a5.476 5.476 0 0 1 4.592-5.419 3.062 3.062 0 0 0 2.325-1.872l1.406-3.516h3.354l1.407 3.517a3.06 3.06 0 0 0 2.325 1.871 5.476 5.476 0 0 1 4.591 5.419v118.393a5.477 5.477 0 0 1-4.591 5.419 3.06 3.06 0 0 0-2.325 1.871l-1.407 3.517z"/><path fill="#DEDEDD" d="M101.003 8.347a7.06 7.06 0 0 1-3.751 1.912 1.488 1.488 0 0 0-1.249 1.472v118.394a1.488 1.488 0 0 0 1.248 1.473 7.068 7.068 0 0 1 3.752 1.911V8.347m5.752 1.912h-.001a7.06 7.06 0 0 1-3.751-1.912v125.162a7.069 7.069 0 0 1 3.751-1.911 1.488 1.488 0 0 0 1.249-1.473V11.731a1.488 1.488 0 0 0-1.248-1.472"/><path fill="#475059" d="M125.68 138.932h.646l.903-2.259a5.07 5.07 0 0 1 3.855-3.101 3.484 3.484 0 0 0 2.919-3.447V11.732a3.484 3.484 0 0 0-2.919-3.447 5.07 5.07 0 0 1-3.855-3.101l-.903-2.259h-.646l-.903 2.259a5.069 5.069 0 0 1-3.854 3.101 3.485 3.485 0 0 0-2.92 3.447v118.393a3.485 3.485 0 0 0 2.92 3.447 5.07 5.07 0 0 1 3.854 3.1l.903 2.26zm2 2h-3.354l-1.406-3.517a3.06 3.06 0 0 0-2.325-1.871 5.476 5.476 0 0 1-4.592-5.419V11.732a5.476 5.476 0 0 1 4.592-5.419 3.062 3.062 0 0 0 2.325-1.872l1.406-3.516h3.354l1.407 3.517a3.06 3.06 0 0 0 2.325 1.871 5.476 5.476 0 0 1 4.591 5.419v118.393a5.477 5.477 0 0 1-4.591 5.419 3.06 3.06 0 0 0-2.325 1.871l-1.407 3.517z"/><path fill="#DEDEDD" d="M125.003 8.347a7.06 7.06 0 0 1-3.751 1.912 1.488 1.488 0 0 0-1.249 1.472v118.394a1.488 1.488 0 0 0 1.248 1.473 7.068 7.068 0 0 1 3.752 1.911V8.347m5.752 1.912h-.001a7.06 7.06 0 0 1-3.751-1.912v125.162a7.069 7.069 0 0 1 3.751-1.911 1.488 1.488 0 0 0 1.249-1.473V11.731a1.488 1.488 0 0 0-1.248-1.472"/><path fill="#475059" d="M149.68 138.932h.646l.903-2.259a5.07 5.07 0 0 1 3.855-3.101 3.484 3.484 0 0 0 2.919-3.447V11.732a3.484 3.484 0 0 0-2.919-3.447 5.07 5.07 0 0 1-3.855-3.101l-.903-2.259h-.646l-.903 2.259a5.069 5.069 0 0 1-3.854 3.101 3.485 3.485 0 0 0-2.92 3.447v118.393a3.485 3.485 0 0 0 2.92 3.447 5.07 5.07 0 0 1 3.854 3.1l.903 2.26zm2 2h-3.354l-1.406-3.517a3.06 3.06 0 0 0-2.325-1.871 5.476 5.476 0 0 1-4.592-5.419V11.732a5.476 5.476 0 0 1 4.592-5.419 3.062 3.062 0 0 0 2.325-1.872l1.406-3.516h3.354l1.407 3.517a3.06 3.06 0 0 0 2.325 1.871 5.476 5.476 0 0 1 4.591 5.419v118.393a5.477 5.477 0 0 1-4.591 5.419 3.06 3.06 0 0 0-2.325 1.871l-1.407 3.517z"/><path fill="#DEDEDD" d="M149.003 8.347a7.06 7.06 0 0 1-3.751 1.912 1.488 1.488 0 0 0-1.249 1.472v118.394a1.488 1.488 0 0 0 1.248 1.473 7.068 7.068 0 0 1 3.752 1.911V8.347m5.752 1.912h-.001a7.06 7.06 0 0 1-3.751-1.912v125.162a7.069 7.069 0 0 1 3.751-1.911 1.488 1.488 0 0 0 1.249-1.473V11.731a1.488 1.488 0 0 0-1.248-1.472"/><path fill="#475059" d="M176.092 123.932h1.818l.444-1.249 3.17-1.314 1.199.569 1.285-1.285-.57-1.197 1.314-3.172 1.249-.444v-1.817l-1.249-.445-1.314-3.172.57-1.196-1.285-1.285-1.199.568-3.17-1.313-.444-1.248h-1.818l-.445 1.248-3.169 1.313-1.199-.568-1.285 1.285.569 1.196-1.313 3.172-1.249.445v1.817l1.249.444 1.313 3.172-.569 1.197 1.285 1.285 1.199-.569 3.169 1.314.445 1.249zm3.228 2h-4.638l-.621-1.741-1.529-.634-1.669.793-3.281-3.281.794-1.669-.634-1.53-1.741-.618v-4.641l1.741-.619.634-1.529-.794-1.669 3.281-3.281 1.669.793 1.529-.634.621-1.74h4.638l.62 1.74 1.53.634 1.669-.793 3.281 3.281-.794 1.669.634 1.529 1.741.619v4.641l-1.741.618-.634 1.53.794 1.669-3.281 3.281-1.669-.793-1.53.634-.62 1.741z"/><path fill="#475059" d="M177.001 111.932a3 3 0 1 0 0 6 3 3 0 0 0 0-6zm0 8a5 5 0 1 1 5-5 5.006 5.006 0 0 1-5 5zM163.001 111.932h6.469v-2h-6.469zM163.001 119.932h6.469v-2h-6.469z"/><path fill="#475059" d="M160.003 120.932h2v-12h-2v12zm-2 2h6v-16h-6v16zm18.089-87.054h1.818l.444-1.248 3.17-1.313 1.199.568 1.285-1.285-.57-1.196 1.314-3.172 1.249-.445V25.97l-1.249-.444-1.314-3.172.57-1.196-1.285-1.286-1.199.569-3.17-1.314-.444-1.249h-1.818l-.445 1.249-3.169 1.314-1.199-.569-1.285 1.286.569 1.196-1.313 3.172-1.249.444v1.817l1.249.445 1.313 3.172-.569 1.196 1.285 1.285 1.199-.568 3.169 1.313.445 1.248zm3.228 2h-4.638l-.621-1.74-1.529-.634-1.669.793-3.281-3.281.794-1.669-.634-1.529-1.741-.619v-4.641l1.741-.618.634-1.53-.794-1.669 3.281-3.281 1.669.793 1.529-.634.621-1.741h4.638l.62 1.741 1.53.634 1.669-.793 3.281 3.281-.794 1.669.634 1.53 1.741.618v4.641l-1.741.619-.634 1.529.794 1.669-3.281 3.281-1.669-.793-1.53.634-.62 1.74z"/><path fill="#475059" d="M177.001 23.878a3 3 0 1 0 0 6 3 3 0 0 0 0-6zm0 8a5 5 0 1 1 0-10 5 5 0 0 1 0 10zM163.001 23.878h6.469v-2h-6.469zM163.001 31.878h6.469v-2h-6.469z"/><path fill="#475059" d="M160.003 32.879h2v-12h-2v12zm-2 2h6v-16h-6v16zM185.003 119.933h6.985v-2h-6.985zM185.003 111.932h6.985v-2h-6.985zM185.003 31.88h6.985v-2h-6.985zM185.003 23.878h6.985v-2h-6.985z"/><path fill="#48515A" d="M183.045 69.954h2v-4h-2zM183.045 79.954h2v-4h-2zM187.045 73.954h4v-2h-4zM177.045 73.954h4v-2h-4zM6.939 5.916h2v-4h-2zM6.939 15.916h2v-4h-2zM10.939 9.916h4v-2h-4zM.939 9.916h4v-2h-4z"/><g transform="translate(113 141)"><mask id="sib" fill="#fff"><use xlink:href="#sia"/></mask><path fill="#48515A" mask="url(#sib)" d="M.003 4h2V0h-2zM.003 13.94h2V10h-2z"/></g><path fill="#48515A" d="M117.003 149h4v-2h-4zM107.003 149h4v-2h-4z"/><path fill="#F58E70" d="M171.002 52.922a2 2 0 1 1 .001 3.999 2 2 0 0 1-.001-3.999"/><path fill="#5FE0ED" d="M182.1 131.939a4 4 0 1 1 0 8 4 4 0 0 1 0-8"/><path fill="#FFD15D" d="M8.996 71.903a4 4 0 1 1 0 8 4 4 0 0 1 0-8"/><path fill="#48515A" d="M23.975 145.097a2.92 2.92 0 0 0-2.999 2.841l-.001.062a3.04 3.04 0 0 0 2.981 3.097h67.2l6.506-3-6.507-3h-67.18zm67.621 8H23.975a5.03 5.03 0 0 1-5-5.049 4.91 4.91 0 0 1 5-4.951h67.62l10.842 5-10.841 5z"/><path fill="#48515A" d="M29.951 152.097h2v-8h-2z"/><path fill="#48515A" d="M30.951 149.097h60v-2h-60z"/></g></svg>