<?xml version="1.0" encoding="utf-8"?><svg xmlns="http://www.w3.org/2000/svg" width="250" height="250" viewBox="0 0 250 250"><g fill="none" fill-rule="evenodd"><path fill="#DEDEDD" d="M212.961 96.355l-14.294-6.127 4.288 4.289-2.828 2.829-8.111-8.111-2.753 5.537 7.926 19.193 4.833-9.721 8.111 8.111 2.828-2.829-8.232-8.232 8.232-4.939"/><path fill="#5FE0ED" d="M64 44h-7v167h115v-7H64V44"/><path fill="#48515A" d="M78.991 179A8.002 8.002 0 0 1 71 171V44h110v7h-2v-5H73v125a6 6 0 1 0 12 0v-6.59a8.316 8.316 0 0 1 7.975-8.41h.007c4.022.005 7.331 3.622 7.898 7h105.944c-.568-2.266-2.899-5-5.867-5v-2c4.309 0 8 4.399 8 8v1H98.966v-1c0-2.359-2.571-5.997-5.987-6-3.185.002-5.979 2.997-5.979 6.41V171a8.013 8.013 0 0 1-8.009 8"/><path fill="#48515A" d="M179 157h2v-38h-2z"/><path fill="#DEDEDD" d="M108.959 37h30.018l.012-.04A3.976 3.976 0 0 1 143 40.9V54h-30V40.92a3.967 3.967 0 0 0-4.015-3.92h-.026"/><path fill="#48515A" d="M177.953 205H67V44h23v2H69v157h106.959l.055-21.005 2 .005-.061 23M187 178.999v-2a5.837 5.837 0 0 0 5.998-5.672l.002-.122V164h2v7.205a7.815 7.815 0 0 1-8 7.794"/><path fill="#48515A" d="M93 158h108v-2H93zM79 179h108v-2H79z"/><path fill="#DEDEDD" d="M71 181v6.411c0 2.209 1.754 3.589 3.963 3.589H174v-10H71"/><path fill="#48515A" d="M173 205H63V44h23v2H65v157h108v2"/><path fill="#FFD15D" d="M191 171.406V167H97v-2.59a4 4 0 0 0-8 0v6.996a7.437 7.437 0 0 1-.869 3.594h98.826c2.206 0 4.043-1.388 4.043-3.594"/><path fill="#48515A" d="M114 53h28V40.92a2.983 2.983 0 0 0-2.652-2.939l-.371.019h-25.924c.616.849.948 1.871.947 2.92V53zm30 2h-32V40.92a3.01 3.01 0 0 0-2.328-2.92H109v-.08h-.015a3 3 0 0 0-2.985 3V45h-2v-4.08a5 5 0 0 1 4.979-5h.011c.297.001.593.027.885.08h28.336l.777-.04A4.991 4.991 0 0 1 144 40.92V55zM43.998 211.001h2v-4h-2zM43.998 221.001h2v-4h-2zM47.998 215.001h4v-2h-4zM37.998 215.001h4v-2h-4zM185.001 32.999h2v-4h-2zM185.001 42.999h2v-4h-2zM189.001 36.999h4v-2h-4zM179.001 36.999h4v-2h-4zM213.01 151.01h2v-4h-2zM213.01 161.01h2v-4h-2zM217.01 155.01h4v-2h-4zM207.01 155.01h4v-2h-4z"/><path fill="#FFD15D" d="M41.959 132.917a3 3 0 1 1 0 6 3 3 0 0 1 0-6m145-16a2 2 0 1 1 .001 3.999 2 2 0 0 1-.001-3.999m-6 94a2 2 0 1 1 .001 3.999 2 2 0 0 1-.001-3.999"/><path fill="#48515A" d="M186.831 53.917c-15.954.008-28.88 12.948-28.872 28.902a28.887 28.887 0 0 0 17.837 26.675l.68.281-.067.734a8.236 8.236 0 0 1-2.697 5.356 13.535 13.535 0 0 0 7.958-4.191l.359-.386.522.077c15.776 2.358 30.477-8.52 32.835-24.296 2.358-15.776-8.52-30.477-24.296-32.835a28.772 28.772 0 0 0-4.259-.317zM171.836 118h-3.611v-2a6.278 6.278 0 0 0 6.086-4.966c-15.608-6.899-22.668-25.146-15.769-40.754 6.899-15.609 25.145-22.669 40.754-15.77 15.608 6.899 22.669 25.145 15.769 40.754a30.898 30.898 0 0 1-28.234 18.407 31.508 31.508 0 0 1-4.061-.256A15.47 15.47 0 0 1 171.836 118z"/><path fill="#5FE0ED" d="M106.956 105.121h42v-42h-42z"/><path fill="#48515A" d="M124.422 91.535l-7.638-7.638 1.414-1.414 6.224 6.224 13.293-13.293 1.414 1.414-14.707 14.707"/><path fill="#F58E70" d="M106.956 151.12h42v-42h-42z"/><path fill="#48515A" d="M135.249 138.827l-15.999-15.999 1.412-1.416 16.001 16.001-1.414 1.414"/><path fill="#48515A" d="M119.249 137.413l16-16 1.414 1.414-16 16-1.414-1.414M160.866 137.965h55.165a3.013 3.013 0 0 0 3-3.021 2.952 2.952 0 0 0-2.924-2.979h-55.241l-6.507 3 6.507 3zm55.165 2h-55.604l-10.843-5 10.843-5h55.604a5 5 0 1 1 0 10z"/><path fill="#48515A" d="M207.99 138.965h2v-8h-2z"/><path fill="#48515A" d="M160.99 135.965h48v-2h-48z"/><path fill="#FFF" d="M202.955 81.346l-28-12 12.228 29.61 4.833-9.721 8.111 8.111 2.828-2.829-8.232-8.232 8.232-4.939"/><path fill="#48515A" d="M176.815 71.231l10.452 25.309 4.473-8.996 8.387 8.388 1.414-1.414-8.43-8.432 7.653-4.591-23.949-10.264zm10.284 30.14L173.095 67.46l32.051 13.737-8.81 5.287 8.033 8.034-4.242 4.242-7.834-7.835-5.194 10.446z"/></g></svg>