<?xml version="1.0" encoding="utf-8"?><svg xmlns="http://www.w3.org/2000/svg" width="250" height="250" viewBox="0 0 250 250"><g fill="none" fill-rule="evenodd"><path fill="#5FE0ED" d="M96.763 57.239l-2.361 4.29a14.223 14.223 0 0 0-1.764 7.628l1.792 36.791-.001.052h23.111l-.004-.043-.894-25.225a39.333 39.333 0 0 0-7.139-21.183l-1.75-2.442-.002-.107H96.782l-.019.239m36.667.013a2.333 2.333 0 1 1-4.666.002 2.333 2.333 0 0 1 4.666-.002"/><path fill="#DEDEDD" d="M114.465 112.919l-2.892 7.375 17.49 7.875.122 31.25 1.164.374-.044 5.207h20.875l-.125-4.041-9.555-2.04v-39.625l-27.035-6.375"/><path fill="#48515A" d="M30.5 219h-2v-19h48v-18h48v-18h48v-18h49v2h-47v17.288l-.61.712h-47.391v18H78.5v18h-48v17"/><path fill="#FFF" d="M161.445 92.465a1 1 0 0 1-.996-.913 3.573 3.573 0 0 1 3.244-3.864 1.003 1.003 0 0 1 1.083.908 1.002 1.002 0 0 1-.91 1.084c-.86.075-1.5.837-1.424 1.698a1 1 0 0 1-.997 1.087"/><path fill="#48515A" d="M97.5 182h19v-2.288l-10-2.334v-5.024l1.892-24.751L110 121.084l3.483-8.896 1.862.729-2.533 6.471 17.399 7.935.148 30.677h1.141v6h19v-2.261l-10-2v-40.706l-23.907-12.499-.934-25.786a38.207 38.207 0 0 0-6.899-20.54l-1.984-2.662-.337-5.235 7.061-.345V40.448a7.517 7.517 0 0 0-1.533-4.552l-.339-.378c-1.407-1.601-3.465-2.518-5.646-2.518h-1.736c-4.489 0-8.143 3.634-8.148 8.102a8.08 8.08 0 0 0 2.432 5.79l.316.311-.084 1.962-1.03 8.476-2.456 4.417a13.142 13.142 0 0 0-1.64 7.068l1.835 36.897-.971 3.691v8.93l2 4.739V176h1v6zm21 2h-23v-6h-1v-54.212l-2-4.74.033-9.718.925-3.517-1.819-36.585a15.136 15.136 0 0 1 1.889-8.142l2.266-4.075.977-8.009.04-1.009a10.054 10.054 0 0 1-2.713-6.881v-.008-.01C94.108 35.527 98.657 31 104.246 31h1.736c1.942 0 3.809.578 5.367 1.63l-.006-.465 1.787 1.996a9.515 9.515 0 0 1 2.37 6.287V53.87l-6.935.34.169 2.616 1.596 2.137a40.21 40.21 0 0 1 7.328 21.711l.892 24.626 23.95 12.522v40.277l10 2V166h-23v-6h-1.132l-.151-31.388-16.135-7.359-.104.267-1.591 26.219-1.89 24.691.002 3.362 10.001 2.333V184z"/><path fill="#475059" d="M105.5 120h-5.502c-2.519 0-4.516-1.925-4.546-4.383l-.023-1.742c0-2.299.352-4.586 1.047-6.811l1.909.596a20.8 20.8 0 0 0-.956 6.202l.023 1.73c.016 1.35 1.135 2.408 2.546 2.408h3.502v-2.141h2v.239c0 .351.459.654 1 .803v-3.703c0-1.501-.295-2.585-.927-3.411l-.07-.105-1.371-2.355-.762-18.346 1.443-16.866 1.993.171-1.432 16.739.736 17.724 1.091 1.875c.886 1.183 1.299 2.639 1.299 4.574V119h-1.298a4.654 4.654 0 0 1-1.702-.322V120"/><path fill="#475059" d="M102.5 108h-5.832l-2.676-2.811 1.448-1.378L97.525 106h4.975v2"/><path fill="#48515A" d="M110.478 107.251l-.095-1.998 7.106-.335.094 1.998-7.105.335M96.5 178h7v-2h-7zM129.5 160h6v-2h-6z"/><path fill="#475059" d="M184.188 183.943c-4.963 0-9 4.038-9 9 0 4.963 4.037 9 9 9s9-4.037 9-9c0-4.962-4.037-9-9-9zm0 20c-6.066 0-11-4.934-11-11 0-6.065 4.934-11 11-11 6.065 0 11 4.935 11 11 0 6.066-4.935 11-11 11zm0-26c-8.272 0-15 6.729-15 15s6.728 15 15 15c8.271 0 15-6.729 15-15s-6.729-15-15-15zm0 32c-9.374 0-17-7.626-17-17 0-9.374 7.626-17 17-17 9.374 0 17 7.626 17 17 0 9.374-7.626 17-17 17z"/><path fill="#475059" d="M184.188 189.943c-1.655 0-3 1.346-3 3 0 1.655 1.345 3 3 3 1.654 0 3-1.345 3-3 0-1.654-1.346-3-3-3zm0 8c-2.757 0-5-2.243-5-5 0-2.756 2.243-5 5-5s5 2.244 5 5c0 2.757-2.243 5-5 5z"/><path fill="#F58E70" d="M184.188 188.943a4 4 0 1 0 0 8 4 4 0 0 0 0-8"/><path fill="#F58E70" d="M184.188 189.943c-1.655 0-3 1.346-3 3 0 1.655 1.345 3 3 3 1.654 0 3-1.345 3-3 0-1.654-1.346-3-3-3zm0 8c-2.757 0-5-2.243-5-5 0-2.756 2.243-5 5-5s5 2.244 5 5c0 2.757-2.243 5-5 5z"/><path fill="#475059" d="M157.5 194h27v-2h-27z"/><path fill="#475059" d="M150.604 196h3.172l3-3-3-3h-3.172l3 3-3 3zm4 2h-8.828l5-5-5-5h8.828l5 5-5 5z"/><path fill="#48515A" d="M142.902 98.792l2.455.797.466-1.436c.526-1.622 1.968-2.67 3.673-2.671h.001a3.805 3.805 0 0 1 3.673 2.668l.467 1.436 2.454-.798-.468-1.436a3.805 3.805 0 0 1 1.403-4.319 3.806 3.806 0 0 1 4.541-.001l1.221.887 1.512-2.083-1.212-.866c-1.384-1.005-1.935-2.694-1.411-4.308.525-1.617 1.967-2.662 3.674-2.662h1.511l-.001-3h-1.511c-1.724 0-3.171-1.024-3.687-2.61-.505-1.554.05-3.199 1.414-4.19l1.198-.816-1.439-1.954-1.225.904c-1.387 1.009-3.171 1.011-4.552.009-1.376-.999-1.925-2.69-1.4-4.309l.465-1.43-2.453-.794-.467 1.438c-.526 1.622-1.967 2.67-3.673 2.671h-.001c-1.705 0-3.146-1.047-3.673-2.667l-.467-1.436-2.454.799.468 1.436a3.806 3.806 0 0 1-1.402 4.319c-1.379 1.003-3.161 1.004-4.542.002l-1.221-.887-1.516 2.088 1.223.887c1.378 1.002 1.93 2.697 1.404 4.318-.527 1.622-1.968 2.67-3.673 2.671h-1.511l.002 2.581 1.512-.001c1.704 0 3.145 1.047 3.673 2.668.527 1.621-.023 3.317-1.402 4.319l-1.221.888 1.471 2.023 1.222-.887c1.379-1.003 3.162-1.004 4.541-.002 1.38 1.002 1.931 2.697 1.404 4.318l-.466 1.436zm3.74 3.317l-6.26-2.031 1.084-3.34c.309-.948-.147-1.698-.677-2.082-.531-.385-1.383-.585-2.19.001l-2.839 2.064-3.823-5.258 2.839-2.064c.806-.587.878-1.461.675-2.083-.202-.622-.774-1.287-1.771-1.287h-.001l-3.511.002-.002-6.581 3.511-.001c.997-.001 1.568-.666 1.771-1.288.202-.622.129-1.496-.678-2.082l-2.84-2.062 3.865-5.326 2.841 2.062c.807.586 1.661.384 2.189-.001.53-.384.985-1.133.676-2.082l-1.085-3.339 6.257-2.036 1.086 3.338c.309.948 1.117 1.286 1.771 1.286h.001c.654 0 1.463-.339 1.771-1.288l1.084-3.34 6.26 2.027-1.084 3.334c-.307.945.145 1.69.672 2.072.529.385 1.385.587 2.195-.003l2.829-2.09 3.858 5.238-2.888 1.966c-.645.47-.902 1.2-.662 1.937.193.594.762 1.228 1.784 1.228h3.511l.001 7h-3.511c-1 0-1.57.661-1.772 1.28-.2.616-.127 1.483.679 2.068l2.845 2.033-3.871 5.331-2.841-2.062c-.807-.586-1.66-.384-2.19 0-.529.385-.984 1.134-.675 2.083l1.085 3.338-6.257 2.036-1.086-3.338c-.309-.949-1.117-1.287-1.772-1.287-.654 0-1.463.339-1.771 1.288l-1.083 3.339z"/><path fill="#F58E70" d="M149.518 80.955a1.732 1.732 0 0 0-1.418.722 1.731 1.731 0 0 0-.31 1.3 1.748 1.748 0 0 0 3.449-.551 1.733 1.733 0 0 0-.701-1.138v-.001a1.731 1.731 0 0 0-1.02-.332zm-.009 5.491c-.762 0-1.53-.231-2.192-.711a3.719 3.719 0 0 1-1.502-2.442 3.724 3.724 0 0 1 .666-2.79 3.722 3.722 0 0 1 2.442-1.501 3.723 3.723 0 0 1 2.789.666 3.719 3.719 0 0 1 1.502 2.442 3.745 3.745 0 0 1-3.705 4.336z"/><path fill="#48515A" d="M147.304 72.287a1.002 1.002 0 1 1 1.11.88h-.12c-.5 0-.929-.37-.99-.88zm4.63 1.12a.996.996 0 1 1 .5-1.93c.54.14.86.68.721 1.22a1.004 1.004 0 0 1-1.221.71zm-8.24.38a.993.993 0 0 1 .421-1.35.996.996 0 0 1 1.349.42c.26.49.07 1.09-.42 1.35-.15.07-.31.11-.47.11-.36 0-.7-.19-.88-.53zm11.45 1.14c-.01 0-.02-.01-.02-.01-.45-.33-.55-.95-.23-1.4.32-.45.95-.55 1.4-.23a1.009 1.009 0 0 1 .25 1.42 1 1 0 0 1-.81.41c-.21 0-.41-.06-.59-.19zm-14.27 1.56a.99.99 0 0 1-.1-1.41c.36-.41.99-.46 1.41-.1.41.36.46 1 .1 1.41-.2.23-.48.35-.76.35-.23 0-.47-.08-.65-.25zm16.7 1a1.002 1.002 0 0 1 1.68-1.09c.3.46.17 1.08-.3 1.38a1.001 1.001 0 0 1-1.38-.29zm-18.37 2.54a.998.998 0 0 1-.6-1.28.998.998 0 0 1 1.28-.6c.521.19.79.76.6 1.28a.998.998 0 0 1-1.28.6zm19.71.72a.988.988 0 0 1 .77-1.18.997.997 0 0 1 1.181.77c.109.54-.231 1.07-.771 1.19-.07.01-.14.02-.21.02-.46 0-.88-.33-.97-.8zm-21 2.21c-.009-.56.43-1.01.98-1.03.55-.01 1.011.43 1.02.98a.997.997 0 0 1-.98 1.02h-.02c-.54 0-.98-.43-1-.97zm21.89 2.47a1.004 1.004 0 0 1 .33-1.98c.54.09.91.61.82 1.15-.08.49-.51.84-.99.84-.05 0-.099 0-.16-.01zm-21.02 1.69a.998.998 0 0 1 .55-1.3.993.993 0 0 1 1.3.54c.22.51-.03 1.1-.54 1.31-.13.05-.25.08-.38.08-.39 0-.77-.24-.93-.63zm19.34 1.84c-.469-.28-.63-.9-.35-1.37.28-.48.9-.63 1.37-.35.48.28.63.89.35 1.37-.18.31-.52.49-.86.49-.17 0-.35-.05-.51-.14zm-17.02 1.74a.996.996 0 0 1 .04-1.41.987.987 0 0 1 1.41.03c.38.4.37 1.03-.03 1.41-.19.19-.44.28-.69.28-.26 0-.53-.1-.73-.31zm14.18.95c-.34-.44-.26-1.06.17-1.41.44-.34 1.06-.26 1.411.17.339.44.259 1.06-.171 1.41-.18.14-.4.21-.62.21-.3 0-.59-.13-.79-.38zm-10.72 1.54c-.5-.23-.71-.83-.48-1.33.24-.5.83-.71 1.33-.47.5.23.71.83.48 1.33a1 1 0 0 1-.91.57c-.14 0-.28-.03-.42-.1zm7.1-.06c-.16-.53.14-1.09.67-1.25a.997.997 0 1 1 .58 1.91.93.93 0 0 1-.29.05c-.43 0-.82-.28-.96-.71zm-2.98 1.14a.998.998 0 0 1 .14-1.99 1 1 0 0 1 .93 1.07c-.04.52-.48.93-1 .93-.02 0-.05 0-.07-.01zM49.5 130h2v-4h-2zM49.5 140h2v-4h-2zM53.5 134h4v-2h-4zM43.5 134h4v-2h-4zM189.5 80h2v-4h-2zM189.5 90h2v-4h-2zM193.5 84h4v-2h-4zM183.5 84h4v-2h-4zM70.5 90h2v-4h-2zM70.5 100h2v-4h-2zM74.5 94h4v-2h-4zM64.5 94h4v-2h-4z"/><path fill="#F58E70" d="M72.097 160.252a2.667 2.667 0 1 1-5.334 0 2.667 2.667 0 0 1 5.334 0"/><path fill="#F58E70" d="M69.43 158.585a1.67 1.67 0 0 0-1.667 1.667 1.67 1.67 0 0 0 1.667 1.667 1.67 1.67 0 0 0 1.667-1.667 1.67 1.67 0 0 0-1.667-1.667zm0 5.334a3.671 3.671 0 0 1-3.667-3.667 3.671 3.671 0 0 1 3.667-3.667 3.671 3.671 0 0 1 3.667 3.667 3.671 3.671 0 0 1-3.667 3.667zm120.012-60.34a1.666 1.666 0 1 1-3.333.001 1.666 1.666 0 0 1 3.333-.001"/></g></svg>