<?xml version="1.0" encoding="utf-8"?><svg xmlns="http://www.w3.org/2000/svg" width="250" height="250" viewBox="0 0 250 250"><g fill="none" fill-rule="evenodd"><path fill="#48515A" d="M101 217H28.959V109.032H101v2H30.959V215H101v2"/><path fill="#F58E70" d="M68.981 212.999H101v-99.967H68.981z"/><path fill="#48515A" d="M66.958 213h-2.006l-14.993-11.426L34.964 213h-2.006v-2h1.33l15.671-11.941L65.628 211h1.33v2"/><path fill="#48515A" d="M48.957 200.669h2V113.03h-2zM81.024 121.798h-2v-13.767c.014-12.144 9.856-21.986 22-22v2c-11.04.013-19.987 8.96-20 20v13.767"/><path fill="#48515A" d="M80 123.031a2 2 0 1 0-.001 3.999A2 2 0 0 0 80 123.03zm0 6a4 4 0 1 1 0-8 4 4 0 0 1 0 8zm-24.042-19h-2v-2c0-12.15 9.85-22 22-22s22 9.85 22 22v1.76h-2v-1.76c0-11.045-8.954-20-20-20s-20 8.955-20 20v2m49.045 104.968h113.83V59h-113.83v155.999zm-2 2h117.83V57h-117.83v159.999z"/><path fill="#FFD15D" d="M143.025 212.999h73.807V61.001h-73.807z"/><path fill="#48515A" d="M141.002 213h-2.006l-14.993-11.426L109.009 213h-2.007v-2h1.331l15.67-11.941L139.672 211h1.33v2"/><path fill="#48515A" d="M123.002 200.669h2V60.999h-2zM202.002 69.767h-2V56c0-11.046-8.954-20-20-20s-20 8.954-20 20v13.767h-2V56c0-12.15 9.85-22 22-22s22 9.85 22 22v13.767"/><path fill="#48515A" d="M201.003 70.999a2 2 0 1 0 0 4 2 2 0 0 0 0-4zm0 6a4 4 0 1 1 0-8 4 4 0 0 1 0 8zm-42.026-6a2 2 0 1 0 .001 4.001 2 2 0 0 0-.001-4.001zm0 6a4 4 0 1 1 0-8 4 4 0 0 1 0 8zm-28.975-19h-2V56c0-12.15 9.85-22 22-22s22 9.85 22 22v1.76h-2V56c0-11.046-8.954-20-20-20s-20 8.954-20 20v1.999M75 43h2v-4h-2zM75 53h2v-4h-2zM79 47h4v-2h-4zM69 47h4v-2h-4zM199 193h2v-4h-2zM199 203h2v-4h-2zM203 197h4v-2h-4zM193 197h4v-2h-4zM132.86 127.275l10.451 25.31 4.473-8.996 8.388 8.387 1.414-1.414-8.431-8.431 7.654-4.592-23.949-10.264zm10.284 30.14l-14.004-33.91 32.051 13.736-8.811 5.287 8.034 8.034-4.242 4.242-7.835-7.834-5.193 10.445zM42 81h2V63h-2zM46 81h4V63.034h-4zM52 81h2V63h-2zM56 81h2V63h-2zM60 80.999h4V63h-4zM66 81h2V63h-2zM70 80.999h4V63h-4z"/><path fill="#FFD15D" d="M88 63a3 3 0 1 1 0 6 3 3 0 0 1 0-6m125-22a2 2 0 1 1 .001 3.999A2 2 0 0 1 213 41M39 159a2 2 0 1 1 .001 3.999A2 2 0 0 1 39 159"/></g></svg>