<?xml version="1.0" encoding="utf-8"?><svg xmlns="http://www.w3.org/2000/svg" width="250" height="250" viewBox="0 0 250 250"><g fill="none" fill-rule="evenodd"><path fill="#DFE0E0" d="M124.455 188.917v13.953c0-6.628 5.373-12 12-12h62.014v-.846l-13.107-13.107h-48.907c-6.627 0-12 5.374-12 12m-.031 13.953v-13.953c0-6.626-5.372-12-12-12H67.695l13.952 13.953h30.777c6.628 0 12 5.372 12 12"/><path fill="#5FE0ED" d="M89.466 71.755a14.142 14.142 0 0 1 1.795-4.401 14.246 14.246 0 0 1 8.557-6.25c.985-6.459 6.525-11.418 13.239-11.501h.172c7.413.092 13.394 6.126 13.394 13.561 0 .739-.061 1.464-.175 2.171 3.948.135 7.244 2.798 8.342 6.42H89.466"/><path fill="#475059" d="M164.591 177.764h2v-6.999h-2zM160.588 177.764h2v-6.999h-2zM88.545 176.763h2v-5.998h-2zM108.557 176.763h2v-5.998h-2zM128.569 179.765h2v-9h-2z"/><path fill="#5FE0ED" d="M104.142 171.766H86.543l10.081-23.343H93.39l13.883-31.404 13.882 31.405h-3.234l10.081 23.342h-23.86"/><path fill="#FFD15D" d="M116.549 202.63a4.125 4.125 0 0 0-4.125-4.125h-62v-14.577h-6v17.952h4.5v.75h67.625"/><path fill="#475059" d="M121.42 205.88h-2v-3.01a6.954 6.954 0 0 0-2.042-4.954 6.951 6.951 0 0 0-4.943-2.064l-62.999-.159.005-2 62.999.159c4.963.011 8.991 4.058 8.98 9.02v3.008"/><path fill="#475059" d="M117.424 202.782h-2c0-1.655-1.345-3-3-3H49.425v-2h62.999c2.757 0 5 2.243 5 5"/><path fill="#475059" d="M125.424 202.87h-2c0-6.066-4.934-11-11-11H49.411v-15.953h63.013c7.169 0 13 5.833 13 13h-2c0-6.065-4.934-11-11-11H51.411v11.953h61.013c7.169 0 13 5.832 13 13"/><path fill="#475059" d="M123.424 202.87h2v-13.953h-2z"/><path fill="#475059" d="M124.417 207.269a11.254 11.254 0 0 1-8.171-3.487H43.422l.002-20.864h7v2h-5l-.002 16.864h71.72l.299.343a9.22 9.22 0 0 0 5.983 3.091v-3.336h2v5.388l-.999.001h-.008"/><path fill="#FFD15D" d="M132.345 202.63a4.125 4.125 0 0 1 4.125-4.125h62v-14.577h6v17.952h-4.5v.75h-67.625"/><path fill="#475059" d="M129.475 205.88h-2v-3.01a8.936 8.936 0 0 1 2.624-6.366 8.938 8.938 0 0 1 6.356-2.652l62.998-.159.005 2-62.999.159a6.951 6.951 0 0 0-4.943 2.064 6.952 6.952 0 0 0-2.041 4.952v3.012"/><path fill="#475059" d="M133.47 202.782h-2c0-2.757 2.243-5 5-5h62.999v2H136.47c-1.654 0-3 1.345-3 3"/><path fill="#475059" d="M125.47 202.87h-2c0-7.168 5.832-13 13-13h61.014v-11.953H136.47c-6.065 0-11 4.935-11 11h-2c0-7.167 5.832-13 13-13h63.014v15.953H136.47c-6.065 0-11 4.934-11 11"/><path fill="#475059" d="M123.47 202.87h2v-13.953h-2z"/><path fill="#475059" d="M124.477 207.269h-.007l-1-.001v-5.388h2v3.336a9.217 9.217 0 0 0 5.983-3.091l.298-.343h71.721l-.002-16.864h-5v-2h7l.002 20.864h-72.824a11.256 11.256 0 0 1-8.171 3.487"/><path fill="#FFD15D" d="M116.549 202.63a4.125 4.125 0 0 0-4.125-4.125h-62v-14.577h-6v17.952h4.5v.75h67.625"/><path fill="#475059" d="M121.42 205.88h-2v-3.01a6.954 6.954 0 0 0-2.042-4.954 6.951 6.951 0 0 0-4.943-2.064l-62.999-.159.005-2 62.999.159c4.963.011 8.991 4.058 8.98 9.02v3.008"/><path fill="#475059" d="M117.424 202.782h-2c0-1.655-1.345-3-3-3H49.425v-2h62.999c2.757 0 5 2.243 5 5"/><path fill="#475059" d="M125.424 202.87h-2c0-6.066-4.934-11-11-11H49.411v-15.953h63.013c7.169 0 13 5.833 13 13h-2c0-6.065-4.934-11-11-11H51.411v11.953h61.013c7.169 0 13 5.832 13 13"/><path fill="#475059" d="M123.424 202.87h2v-13.953h-2z"/><path fill="#475059" d="M124.417 207.269a11.254 11.254 0 0 1-8.171-3.487H43.422l.002-20.864h7v2h-5l-.002 16.864h71.72l.299.343a9.22 9.22 0 0 0 5.983 3.091v-3.336h2v5.388l-.999.001h-.008"/><path fill="#FFD15D" d="M132.345 202.63a4.125 4.125 0 0 1 4.125-4.125h62v-14.577h6v17.952h-4.5v.75h-67.625"/><path fill="#475059" d="M129.475 205.88h-2v-3.01a8.936 8.936 0 0 1 2.624-6.366 8.938 8.938 0 0 1 6.356-2.652l62.998-.159.005 2-62.999.159a6.951 6.951 0 0 0-4.943 2.064 6.952 6.952 0 0 0-2.041 4.952v3.012"/><path fill="#475059" d="M133.47 202.782h-2c0-2.757 2.243-5 5-5h62.999v2H136.47c-1.654 0-3 1.345-3 3"/><path fill="#475059" d="M125.47 202.87h-2c0-7.168 5.832-13 13-13h61.014v-11.953H136.47c-6.065 0-11 4.935-11 11h-2c0-7.167 5.832-13 13-13h63.014v15.953H136.47c-6.065 0-11 4.934-11 11"/><path fill="#475059" d="M123.47 202.87h2v-13.953h-2z"/><path fill="#475059" d="M124.477 207.269h-.007l-1-.001v-5.388h2v3.336a9.217 9.217 0 0 0 5.983-3.091l.298-.343h71.721l-.002-16.864h-5v-2h7l.002 20.864h-72.824a11.256 11.256 0 0 1-8.171 3.487m-60.413-36.503h46.764l-12.111-28.041h3.871l-15.142-34.254-15.142 34.254h3.871l-12.111 28.041zm49.806 2H61.022l12.111-28.041h-3.9l18.213-41.201 18.213 41.201h-3.9l12.111 28.041z"/><path fill="#5FE0ED" d="M159.684 171.766h-21.141l12.111-28.041h-3.885l6.952-15.728h-2.726l6.055-14.021h-1.943l8.339-18.864 8.339 18.864h-1.943l6.055 14.021h-2.726l6.953 15.728h-3.886l12.111 28.042H167.31l-7.626-.001"/><path fill="#475059" d="M105.07 170.766h51.744l-9.827-22.23h7.336l-12.111-28.042h3.872L130.942 86.24 115.8 120.494h3.87l-12.11 28.042h7.337l-9.827 22.23zm54.814 2h-57.885l9.827-22.23h-7.308l12.11-28.042h-3.9l18.214-41.202 18.213 41.202h-3.9l12.111 28.042h-7.309l9.827 22.23z"/><path fill="#5FE0ED" d="M96.512 99.785h-5.778c-1.098-3.622-4.394-6.285-8.342-6.42.114-.707.175-1.432.175-2.171.001-7.435-5.981-13.469-13.394-13.561h-.172c-6.714.083-12.254 5.042-13.239 11.501a14.246 14.246 0 0 0-8.557 6.25 14.166 14.166 0 0 0-1.795 4.401h-6.898"/><path fill="#475059" d="M66.066 91.392c-3.361-1.947-7.587-2.291-11.206-.936l-.701-1.874c4.172-1.562 9.037-1.166 12.91 1.08l-1.003 1.73"/><path fill="#475059" d="M96.512 100.785h-6.52l-.215-.71a8.043 8.043 0 0 0-7.419-5.711l-1.133-.038.18-1.12c.108-.668.162-1.345.162-2.012.001-6.841-5.565-12.476-12.406-12.561h-.16a12.508 12.508 0 0 0-12.25 10.652l-.1.656-.643.163a13.161 13.161 0 0 0-7.955 5.811 13.139 13.139 0 0 0-1.668 4.089l-.176.781h-7.697v-2h6.119a15.027 15.027 0 0 1 1.726-3.931 15.158 15.158 0 0 1 8.53-6.515c1.332-6.737 7.162-11.62 14.102-11.706h.184c7.943.099 14.395 6.63 14.394 14.561 0 .42-.018.844-.055 1.267a10.046 10.046 0 0 1 7.935 6.324h5.065v2"/><path fill="#5FE0ED" d="M203.543 83.918h-5.778c-1.098-3.621-4.394-6.285-8.341-6.42.113-.707.175-1.431.175-2.171 0-7.434-5.982-13.469-13.395-13.56h-.171c-6.715.083-12.255 5.042-13.239 11.5a14.25 14.25 0 0 0-8.558 6.251 14.15 14.15 0 0 0-1.795 4.4h-6.898"/><path fill="#475059" d="M173.097 75.526c-3.358-1.946-7.58-2.293-11.206-.937l-.701-1.873c4.182-1.564 9.039-1.165 12.911 1.079l-1.004 1.731"/><path fill="#475059" d="M203.543 84.919h-6.52l-.215-.711a8.043 8.043 0 0 0-7.419-5.71l-1.134-.038.181-1.121c.108-.67.163-1.346.163-2.011 0-6.842-5.565-12.477-12.407-12.562h-.159a12.509 12.509 0 0 0-12.251 10.651l-.1.657-.643.163a13.17 13.17 0 0 0-7.955 5.811 13.148 13.148 0 0 0-1.668 4.09l-.176.779h-7.697v-1.999h6.12c.393-1.41.972-2.728 1.726-3.931a15.164 15.164 0 0 1 8.528-6.515c1.332-6.736 7.163-11.619 14.103-11.706h.185c7.942.099 14.394 6.631 14.394 14.562 0 .42-.019.843-.056 1.267a10.044 10.044 0 0 1 7.935 6.324h5.065v2"/><path fill="#48515A" d="M212.558 139.773h2v-4h-2zM212.558 149.773h2v-4h-2zM216.558 143.773h4v-2h-4zM206.558 143.773h4v-2h-4z"/><path fill="#FFD15D" d="M198.543 159.767a2 2 0 1 0 4.001-.001 2 2 0 0 0-4.001.001"/><path fill="#475059" d="M84.543 176.763h2v-5.998h-2zM104.555 176.763h2v-5.998h-2zM132.572 177.764h2v-6.999h-2z"/><path fill="#48515A" d="M101.491 102.75h2v-3.999h-2zM101.491 112.75h2v-4h-2zM105.491 106.75h4v-2h-4zM95.491 106.75h4v-2h-4zM44.457 142.774h2v-4h-2zM44.457 152.774h2v-4h-2zM48.457 146.774h4v-2h-4zM38.457 146.774h4v-2h-4z"/><path fill="#475059" d="M121.45 62.003v.117c0 .799.312 1.551.878 2.117a2.97 2.97 0 0 0 2.112.874h.005l.729-.002a2.995 2.995 0 0 0 2.986-2.99v-.116l-3.355-9.374-3.355 9.374zm2.991 5.108a4.96 4.96 0 0 1-3.527-1.459 4.957 4.957 0 0 1-1.464-3.532v-.464l5.355-14.962 5.355 14.962v.463a4.998 4.998 0 0 1-4.982 4.99l-.728.002h-.009z"/><path fill="#475059" d="M120.456 62.83h8.704v-2h-8.704zM135.492 48.524l-3.367-3.793h-12.676v-2h13.575l2.468 2.779 2.466-2.779h13.492v2h-12.593l-3.365 3.793M131.516 74.829h-2v-2.348l3.002-3.003V51.505h2v18.801l-3.002 3.003v1.52M141.387 74.829h-2v-1.524l-2.998-2.999V51.505h2v17.973l2.998 2.999v2.352"/><path fill="#475059" d="M132.063 48.634h6.781v-2h-6.781zM142.744 61.986c.038.741.344 1.433.874 1.961a2.973 2.973 0 0 0 2.113.874h.005l.729-.001a2.996 2.996 0 0 0 2.981-2.834l-3.351-9.684-3.351 9.684zm2.986 4.835a4.955 4.955 0 0 1-3.525-1.459 4.955 4.955 0 0 1-1.465-3.531v-.168l5.355-15.476 5.355 15.475v.168a4.998 4.998 0 0 1-4.982 4.99l-.729.001h-.009z"/><path fill="#475059" d="M141.747 62.83h8.703v-2h-8.703zM132.063 52.505h6.781v-2h-6.781zM133.518 70.892h3.871v-2h-3.871z"/><path fill="#48515A" d="M194.877 122.85h14v-2h-14v2zm-2 2h18v-6h-18v6zm5.573-14h8.096v-2h-1.945v-12h1.945v-2h-8.096v2h2.096v12h-2.096v2zm10.096 2H196.45v-6h2.096v-8h-2.096v-6h12.096v6h-1.945v8h1.945v6z"/><path fill="#48515A" d="M205.601 98.85h-6.055a1 1 0 1 1 0-2h6.055a1 1 0 1 1 0 2m0 10h-6.055a1 1 0 1 1 0-2h6.055a1 1 0 1 1 0 2m-6.724-4.999h-20a1 1 0 1 1 0-2h20a1 1 0 1 1 0 2"/><path fill="#5FE0ED" d="M29.442 119.743a2 2 0 1 0 4 0 2 2 0 0 0-4 0"/></g></svg>