<?xml version="1.0" encoding="utf-8"?><svg xmlns="http://www.w3.org/2000/svg" width="250" height="250" viewBox="0 0 250 250"><g fill="none" fill-rule="evenodd"><path fill="#434A4F" d="M35.437 72.399h2v-4h-2zM35.437 82.399h2v-4h-2zM39.437 76.399h4v-2h-4zM29.437 76.399h4v-2h-4z"/><path fill="#75C7D0" d="M36.84 141.024a2.05 2.05 0 1 1-4.1 0 2.05 2.05 0 0 1 4.1 0"/><path fill="#DBDBD5" d="M200.48 114.346H92.062l-3.852.913-.625.148-7.226 1.714c-.565.134-.565.938 0 1.072l11.703 2.774H200.48v-6.621"/><path fill="#DBDBD5" d="M204.52 79.781h-4.04v90.904l-2.894 2.894H63.083v4.04l2.894 2.894H204.52l2.894-2.894V82.675l-2.894-2.894"/><path fill="#FACD60" d="M55.231 193.177l-13.304-13.71h13.304v13.71"/><path fill="#DBDBD5" d="M55.231 179.467l13.304 13.71H55.231v-13.71"/><path fill="#434A4F" d="M183.898 194.177H54.809l-13.882-14.305V97.019h15.349v2H42.927v80.043l12.727 13.115h126.244v-18.21h2v20.21"/><path fill="#434A4F" d="M59.778 123.967a.843.843 0 0 1-.381-.08.938.938 0 0 1-.329-.21c-.091-.1-.171-.21-.22-.33a.986.986 0 0 1-.07-.38c0-.07 0-.13.02-.2.01-.06.03-.12.05-.18.029-.06.06-.12.1-.18.029-.05.07-.1.12-.15.09-.09.2-.16.329-.21.181-.08.381-.1.571-.06.07.01.13.03.19.06.06.02.12.05.17.09.06.04.11.08.16.12l.119.15c.04.06.071.12.091.18.03.06.05.12.06.18.01.07.02.13.02.2 0 .13-.03.26-.08.38-.051.12-.12.23-.21.33-.05.04-.1.09-.16.12-.05.04-.11.07-.17.09-.06.03-.12.05-.19.06-.06.01-.13.02-.19.02"/><path fill="#E9886C" d="M109.776 160.967c-4.411 0-8-3.588-8-8v-12c0-2.205-1.794-4-4-4s-4 1.795-4 4v12c0 4.412-3.589 8-8 8s-8-3.588-8-8v-36a2 2 0 0 1 4 0v36c0 2.206 1.794 4 4 4s4-1.794 4-4v-12c0-4.411 3.589-8 8-8s8 3.589 8 8v12c0 2.206 1.794 4 4 4s4-1.794 4-4v-3c0-4.962 4.037-9 9-9h25a2 2 0 0 1 0 4h-25c-2.757 0-5 2.243-5 5v3c0 4.412-3.589 8-8 8"/><path fill="#42494E" d="M209.281 199.061h-100.55c-1.654 0-3 1.346-3 3s1.346 3 3 3h100.55l6.506-3-6.506-3zm.439 8H108.731c-2.756 0-5-2.243-5-5s2.244-5 5-5h100.988l10.844 5-10.843 5z"/><path fill="#42494E" d="M114.341 206.061h2v-7.598h-2z"/><path fill="#42494E" d="M115.341 203.032h93.39v-2h-93.39zM192.776 126.967h2v-6h-2z"/><path fill="#434A4F" d="M68.776 87.967h4v-4h-4v4zm-2 2h8v-8h-8v8zm12-2h4v-4h-4v4zm-2 2h8v-8h-8v8zm12-2h4v-4h-4v4zm-2 2h8v-8h-8v8zm42-2h4v-4h-4v4zm-2 2h8v-8h-8v8zm12-2h4v-4h-4v4zm-2 2h8v-8h-8v8zm12-2h4v-4h-4v4zm-2 2h8v-8h-8v8zm12-2h4v-4h-4v4zm-2 2h8v-8h-8v8zm12-2h4v-4h-4v4zm-2 2h8v-8h-8v8zm12-2h4v-4h-4v4zm-2 2h8v-8h-8v8zm-86.144 20.601h.01-.01zm-3.892-4.057l-5.257 8.525 8.525-5.258 60.932-60.932c.283-.282.47-.655.527-1.05l.105-.719a1.873 1.873 0 0 0-.527-1.591 1.876 1.876 0 0 0-1.575-.53l-.741.102c-.401.055-.78.243-1.066.53L86.74 106.511zm-6.635 11.454c-.4 0-.795-.155-1.096-.456a1.543 1.543 0 0 1-.222-1.911l6.456-10.419 61.006-61.006a3.894 3.894 0 0 1 2.207-1.096l.741-.102a3.886 3.886 0 0 1 3.262 1.097 3.878 3.878 0 0 1 1.092 3.294l-.105.719a3.878 3.878 0 0 1-1.092 2.175l-61.097 61.098-10.337 6.375a1.55 1.55 0 0 1-.815.232zm92.671-7.998h10v-10h-10v10zm-2 2h14v-14h-14v14zm2 14h10v-10h-10v10zm-2 2h14v-14h-14v14zm2 14h10v-10h-10v10zm-2 2h14v-14h-14v14zm2 14h10v-10h-10v10zm-2 2h14v-14h-14v14zM166.776 163.968h2V95.967h-2z"/><path fill="#E9886C" d="M174.776 107.967h6v-6h-6z"/><path fill="#FACD60" d="M174.776 123.977h6v-6h-6z"/><path fill="#75C7D0" d="M174.776 139.987h6v-6h-6z"/><path fill="#434A4F" d="M174.776 155.996h6v-6h-6zM99.869 91.967H66.775v2h31.094l2-2M109.233 91.967l-2 2h77.544v-2h-75.544M118.776 87.967h4v-4h-4v4zm-2-3.542v5.542h8v-8h-5.543l-2.457 2.458zm-18 3.542h4v-4h-4v4zm6-.906v-5.094h-8v8h5.093l2.907-2.906z"/><path fill="#434A4F" d="M123.233 77.967l-2 2h65.543v86h-122v-86h47.093l2-2H62.776v90h126v-90h-65.543"/><path fill="#434A4F" d="M198 71.847h-68.646l-2 2h69.818l2.308 2.308v94.116l-2.308 2.308H59.457l-2.308-2.308V76.155l2.308-2.308h58.533l2-2H58.629l-3.48 3.48v95.772l3.48 3.48H198l3.48-3.48V75.327l-3.48-3.48M212.543 182.465h2v-4h-2zM212.543 192.465h2v-4h-2zM216.543 186.465h4v-2h-4zM206.543 186.465h4v-2h-4z"/><path fill="#FACD60" d="M216.066 160.96a3.245 3.245 0 1 1-6.49 0 3.245 3.245 0 0 1 6.49 0"/><path fill="#434A4F" d="M148.424 52.988a.993.993 0 0 1-.707-.293l-3.938-3.937a1 1 0 0 1 1.414-1.414l3.938 3.937a1 1 0 0 1-.707 1.707"/></g></svg>