<?xml version="1.0" encoding="utf-8"?><svg xmlns="http://www.w3.org/2000/svg" width="250" height="250" viewBox="0 0 250 250"><g fill="none" fill-rule="evenodd"><path fill="#5FE0ED" d="M196.957 87.027a6 6 0 1 1 0-12 6 6 0 0 1 0 12zm-.034-23.871c-9.887 0-17.931 8.044-17.931 17.931s8.044 17.931 17.931 17.931c9.886 0 17.93-8.044 17.93-17.931s-8.044-17.931-17.93-17.931z"/><path fill="#F58E70" d="M156.957 219.027h4V179.86h-4z"/><path fill="#F58E70" d="M161.957 203.027h-25v-6h25a3 3 0 1 1 0 6"/><path fill="#475059" d="M115.104 151.736h20.062v-11.71c0-2.756 2.243-5 5-5h11v-20.062h-11c-2.757 0-5-2.243-5-5v-10.96h-20.062v10.96c0 2.757-2.244 5-5 5H99.059l.001 20.062h11.044c2.756 0 5 2.244 5 5v11.71zm22.062 2h-24.062v-13.71c0-1.654-1.346-3-3-3H97.06l-.001-24.062h13.045c1.654 0 3-1.346 3-3v-12.96h24.062v12.96c0 1.654 1.346 3 3 3h13v24.062h-13c-1.654 0-3 1.346-3 3v13.71z"/><path fill="#475059" d="M171.16 143.174H157.7l-6.252-6.45 1.436-1.393 5.664 5.843h10.612v-31.982h-10.631l-5.668 5.49-1.39-1.437 6.248-6.053h13.441v35.982M92.571 143.174H79.109v-35.982h13.444l6.205 6.056-1.397 1.432-5.623-5.488H81.109v31.982H91.72l5.619-5.84 1.441 1.387-6.209 6.453M136.875 98.709l-1.418-1.41 5.669-5.705V80.97h-31.981v10.624l5.668 5.705-1.418 1.41-6.25-6.291V78.97h35.981v13.448l-6.251 6.291M143.126 171.021h-35.981V157.56l6.264-6.043 1.389 1.439-5.653 5.453v10.612h31.981v-10.612l-5.654-5.453 1.388-1.439 6.266 6.043v13.461"/><path fill="#475059" d="M134.98 80.032h2V29.089h-2zM112.933 79.969h2V29.026h-2zM134.98 221.026h2v-50.943h-2zM112.933 220.964h2v-50.943h-2zM170.949 137.051h49.946v-2h-49.946zM171.012 115.003h49.945v-2h-49.945zM28.957 137.051h50.94v-2h-50.94zM29.02 115.003h50.94v-2H29.02zM196.922 61.156c-10.99 0-19.931 8.941-19.931 19.931s8.941 19.931 19.931 19.931 19.931-8.941 19.931-19.931-8.941-19.931-19.931-19.931zm0 41.862c-12.093 0-21.931-9.838-21.931-21.931 0-12.093 9.838-21.931 21.931-21.931 12.093 0 21.931 9.838 21.931 21.931 0 12.093-9.838 21.931-21.931 21.931z"/><path fill="#475059" d="M195.922 81.587h2V69.026h-2zM113.933 189.225h22.047v-2h-22.047zM120.303 213.089c-6.661 0-6.816-.153-7.072-.407l-.298-.715h1l.222-.965c.994.144 13.907.055 21.814-.035l.023 2c-7.404.084-12.36.122-15.689.122m36.855 2.627h-.625c-8.544 0-15.495-6.951-15.495-15.495v-.375c0-8.889 7.232-16.12 16.12-16.12v2c-7.786 0-14.12 6.334-14.12 14.12v.375c0 7.441 6.054 13.495 13.495 13.495h.625v2"/><path fill="#DFE0E0" d="M28.957 133.027h48v-7.996h-48zM124.974 76.957h7.995v-48h-7.995zM181.048 125.031l-8.005-8.004v9.222c-.032.814-.086 1.734-.086 1.734h.086v5.044h48v-7.996h-39.995m-31.882-8.067h-9a7 7 0 0 1-7-7v-8.96h-8.209v20.023a4 4 0 0 1-4 4h-19.898v8h9.044a7 7 0 0 1 7 7v9.71h16.063v-9.71a7 7 0 0 1 7-7h9.001l-.001-16.063M83.109 125.37v13.803h7.76l4.19-4.354v-9.449h-11.95M155.167 125.027v9.785l4.227 4.361h7.767v-14.146h-11.994M134.918 95.004l4.208-4.235V82.97h-14.169v12.034h9.961M139.126 167.021v-7.63l-4.045-3.365h-10.124v10.995h14.169M124.974 184.726h7.995v-11.683h-6.012v-.016h-10l8.017 8.017v3.682M124.974 221.043h7.995v-6.327h-7.995z"/><path fill="#F58E70" d="M125.135 209.027h7.834v-18h-7.834z"/><path fill="#475059" d="M157.957 218.026h2v-16h2c1.103 0 2-.897 2-2 0-1.102-.897-2-2-2h-2v-16.999h-2v16.999h-21v4h21v16zm4 2h-6v-16h-21v-8h21v-16.999h6v16.999c2.206 0 4 1.794 4 4s-1.794 4-4 4v16z"/><path fill="#475059" d="M157.957 218.026h2v-36.999h-2v36.999zm-2 2h6v-40.999h-6v40.999zM191.957 114.027h2v-13.002h-2zM199.962 114.027h2v-13.002h-2zM180.957 82.026h2v-2h-2zM210.957 82.026h2v-2h-2zM181.761 86.134l-.518-1.932 1.932-.517.517 1.931-1.931.518M210.738 78.369l-.517-1.932 1.931-.517.518 1.932-1.932.517M183.601 89.893l-1-1.733 1.731-1 1 1.733-1.731 1M209.581 74.893l-1-1.733 1.732-1 1 1.733-1.732 1M186.351 93.047l-1.414-1.414 1.414-1.414 1.414 1.414-1.414 1.414M207.563 71.834l-1.414-1.414 1.414-1.414 1.415 1.414-1.415 1.414M189.823 95.383l-1.732-1 1-1.732 1.732 1-1 1.732M204.823 69.402l-1.732-1 1-1.732 1.732 1-1 1.732M193.781 96.74l-1.931-.517.517-1.932 1.932.518-.518 1.931M201.546 67.763l-1.932-.518.518-1.932 1.931.518-.517 1.932M195.957 97.026h2v-2h-2zM195.957 67.026h2v-2h-2zM200.132 96.74l-.518-1.931 1.932-.518.517 1.932-1.931.517M192.367 67.763l-.517-1.932 1.931-.518.518 1.932-1.932.518M204.091 95.383l-1-1.732 1.732-1 1 1.732-1.732 1M189.091 69.402l-1-1.732 1.732-1 1 1.732-1.732 1M207.563 93.047l-1.414-1.414 1.414-1.414 1.415 1.414-1.415 1.414M186.351 71.834l-1.414-1.414 1.414-1.414 1.414 1.414-1.414 1.414M210.313 89.893l-1.732-1 1-1.733 1.732 1-1 1.733M184.332 74.893l-1.731-1 1-1.733 1.731 1-1 1.733M212.152 86.134l-1.931-.518.517-1.931 1.932.517-.518 1.932M183.175 78.369l-1.932-.517.518-1.932 1.931.517-.517 1.932"/><path fill="#48515A" d="M70.957 177.026h2v-4h-2zM70.957 187.026h2v-4h-2zM74.957 181.026h4v-2h-4zM64.957 181.026h4v-2h-4zM190.957 153.026h2v-4h-2zM190.957 163.026h2v-4h-2zM194.957 157.026h4v-2h-4zM184.957 157.026h4v-2h-4zM82.957 69.026h2v-4h-2zM82.957 79.026h2v-4h-2zM86.957 73.026h4v-2h-4zM76.957 73.026h4v-2h-4z"/><path fill="#F58E70" d="M164.615 57.327a2.829 2.829 0 1 1-5.658 0 2.829 2.829 0 0 1 5.658 0m-116.53 93.206a2.5 2.5 0 1 1-5 0 2.5 2.5 0 0 1 5 0"/><path fill="#FFD15D" d="M172.904 164.009a3 3 0 1 1-6 0 3 3 0 0 1 6 0"/><path fill="#F58E70" d="M83.507 194.213a2.731 2.731 0 1 1 5.463 0 2.731 2.731 0 0 1-5.463 0"/><path fill="#FFD15D" d="M59.556 60.627a3.3 3.3 0 1 1-6.6 0 3.3 3.3 0 0 1 6.6 0"/></g></svg>