<?xml version="1.0" encoding="utf-8"?><svg xmlns="http://www.w3.org/2000/svg" xmlns:xlink="http://www.w3.org/1999/xlink" width="190" height="143" viewBox="0 0 190 143"><defs><path id="rwa" d="M.994.999h102V48.94h-102z"/><path id="rwc" d="M.006 0h34v99.94h-34z"/><path id="rwe" d="M.06 0H14v2H.06z"/></defs><g fill="none" fill-rule="evenodd"><path fill="#FFD15D" d="M154.447 109.001H137V91.828l17.447 17.173zM126 81.135v38.866h53.98l-10.703-10.713-32.625-32.595L126 66v15.135z"/><path fill="#48515A" d="M21.994 111v19.999c.001.552.448.999 1 1h100c.552-.001 1-.448 1-1V111h-102zm101 22.999h-100a3.004 3.004 0 0 1-3-3V109h106v21.999a3.004 3.004 0 0 1-3 3zm-3-57h-2V52c-.007-6.072-4.928-10.993-11-11h-68c-6.072.007-10.993 4.928-11 11v24.999h-2V52c.008-7.176 5.824-12.992 13-13h68c7.176.008 12.992 5.824 13 13v24.999"/><g transform="translate(21 94)"><mask id="rwb" fill="#fff"><use xlink:href="#rwa"/></mask><path fill="#48515A" d="M12.994 15h78V2.999h-78V15zm-2 2h82V.999h-82V17zm-8 29.998h4v-6.999h-4v6.999zm-2 2h8V37.999h-8v10.999zm96-2h4v-6.999h-4v6.999zm-2 2h8V37.999h-8v10.999z" mask="url(#rwb)"/></g><path fill="#48515A" d="M22.994 77a9.011 9.011 0 0 0-9 9v16a7.009 7.009 0 0 0 7 7h11V86a9.011 9.011 0 0 0-9-9zm11 34h-13a9.011 9.011 0 0 1-9-9V86c0-6.075 4.925-11 11-11s11 4.925 11 11v25zm80-2h11a7.008 7.008 0 0 0 7-7V86a9 9 0 0 0-18 0v23zm11 2h-13V86c0-6.075 4.925-11 11-11s11 4.925 11 11v16c-.005 4.968-4.032 8.994-9 9zM71.994 74.999h2v-5.998h-2z"/><path fill="#48515A" d="M69.995 73h5.999v-2h-5.999z"/><path fill="#DEDEDD" d="M23.994 122h98v-9h-98v9zm6-70c.005-4.968 4.032-8.994 9-9h68a9.011 9.011 0 0 1 9 9v23.063a12.99 12.99 0 0 0-6 10.937v6.999h-74V86a12.993 12.993 0 0 0-6-10.937V52z"/><path fill="#48515A" d="M132.006 43h42v-.926L168.145 3h-30.278l-5.861 39.074V43zm44 2h-46l.011-3.148L136.145 1h33.722l6.139 41v3z"/><g transform="translate(136 43)"><mask id="rwd" fill="#fff"><use xlink:href="#rwc"/></mask><path fill="#48515A" d="M16.006 94h2V2h-2v92zm-2 2h6V0h-6v96z" mask="url(#rwd)"/><path fill="#48515A" d="M2.006 98h30v-2h-30v2zm-2 2h34v-6h-34v6z" mask="url(#rwd)"/></g><path fill="#48515A" d="M138.006 58h2V44h-2z"/><path fill="#48515A" d="M139.006 59a1 1 0 1 0 0 2 1 1 0 0 0 0-2zm0 4a3 3 0 1 1 0-6 3 3 0 0 1 0 6z"/><path fill="#FFD15D" d="M134.19 41h37.632l-5.399-36H139.59l-5.4 36"/><path fill="#48515A" d="M182 100h2v-4h-2zM182 110h2v-4h-2zM186 104h4v-2h-4zM176 104h4v-2h-4zM6 64h2v-4H6zM6 74h2v-4H6z"/><g transform="translate(0 66)"><mask id="rwf" fill="#fff"><use xlink:href="#rwe"/></mask><path fill="#48515A" mask="url(#rwf)" d="M10 2h4V0h-4zM.06 2H4V0H.06z"/></g><path fill="#48515A" d="M90 4h2V0h-2zM90 14h2v-4h-2zM94 8h4V6h-4zM84 8h4V6h-4z"/><path fill="#5FE0ED" d="M16.438 45.125a2.437 2.437 0 1 1 0 4.874 2.437 2.437 0 0 1 0-4.874M141.562 122a2.437 2.437 0 1 1 .001 4.875 2.437 2.437 0 0 1-.001-4.875"/><path fill="#FFD15D" d="M121.562 25.438a1 1 0 1 1 .002 1.998 1 1 0 0 1-.002-1.998M169 71a2 2 0 1 1 .001 3.999A2 2 0 0 1 169 71"/><path fill="#DEDEDD" d="M47.443 6.321L49.348 2h4.882l1.905 4.321 2.729 1.576 4.695-.511L66 11.614l-2.789 3.81v3.152L66 22.386l-2.441 4.228-4.695-.511-2.729 1.576L54.23 32h-4.882l-1.905-4.321-2.729-1.576-4.695.511-2.441-4.228 2.79-3.81v-3.152l-2.79-3.81 2.441-4.228 4.695.511 2.729-1.576"/><path fill="#475059" d="M51.789 15a2 2 0 1 0 0 4 2 2 0 0 0 0-4zm0 6a4 4 0 1 1 0-8 4 4 0 0 1 0 8z"/><path fill="#475059" d="M51.789 11a6 6 0 1 0 6 6 6.007 6.007 0 0 0-6-6zm0 14a8 8 0 1 1 8-8 8.01 8.01 0 0 1-8 8z"/></g></svg>