<?xml version="1.0" encoding="utf-8"?><svg xmlns="http://www.w3.org/2000/svg" width="193" height="183" viewBox="0 0 193 183"><g fill="none" fill-rule="evenodd"><path fill="#475059" d="M49 139h94V45H49v94zm-2 2h98V43H47v98z"/><path fill="#DEDEDD" d="M90 64h8v-8h-8v8zm-32 0h28v-8H58v8zm-7 73h90V47H51v90z"/><path fill="#475059" d="M102 59.001h32.002v-2H102zM102 63.003h32.002v-2H102z"/><path fill="#FFD15D" d="M52.999 148.999h6v-6h-6zM60.999 148.999h6v-6h-6zM68.999 148.999h6v-6h-6zM76.999 148.999h6v-6h-6zM84.999 148.999h6v-6h-6zM92.999 148.999h6v-6h-6zM100.999 148.999h6v-6h-6zM108.999 148.999h6v-6h-6zM116.999 148.999h6v-6h-6zM124.999 148.999h6v-6h-6zM132.999 148.999h6v-6h-6z"/><path fill="#FFD15D" d="M53 183h-2v-22.415l4-4V147h2v10.414l-4 4V183M61 183h-2v-20.415l4-4V147h2v12.414l-4 4V183M69 183h-2v-18.415l4-4V147h2v14.414l-4 4V183M77 183h-2v-16.415l4-4V147h2v16.414l-4 4V183M85 183h-2v-14.415l4-4V147h2v18.414l-4 4V183M95 183h2v-36h-2zM141 183h-2v-21.586l-4-4V147h2v9.585l4 4V183M133 183h-2v-19.586l-4-4V147h2v11.585l4 4V183M125 183h-2v-17.586l-4-4V147h2v13.585l4 4V183M117 183h-2v-15.586l-4-4V147h2v15.585l4 4V183M109 183h-2v-13.586l-4-4V147h2v17.585l4 4V183M52.999 40.914h6v-6h-6zM60.999 40.914h6v-6h-6zM68.999 40.914h6v-6h-6zM76.999 40.914h6v-6h-6zM84.999 40.914h6v-6h-6zM92.999 40.914h6v-6h-6zM100.999 40.914h6v-6h-6zM108.999 40.914h6v-6h-6zM116.999 40.914h6v-6h-6zM124.999 40.914h6v-6h-6zM132.999 40.914h6v-6h-6z"/><path fill="#FFD15D" d="M57 36.914h-2v-9.586l-4-4V.914h2V22.5l4 4v10.414M65 36.914h-2V25.328l-4-4V.914h2V20.5l4 4v12.414M73 36.914h-2V23.328l-4-4V.914h2V18.5l4 4v14.414M81 36.914h-2V21.328l-4-4V.914h2V16.5l4 4v16.414M89 36.914h-2V19.328l-4-4V.914h2V14.5l4 4v18.414M95 36.914h2v-36h-2zM137 36.914h-2V26.5l4-4V.914h2v22.414l-4 4v9.586M129 36.914h-2V24.5l4-4V.914h2v20.414l-4 4v11.586M121 36.914h-2V22.5l4-4V.914h2v18.414l-4 4v13.586M113 36.914h-2V20.5l4-4V.914h2v16.414l-4 4v15.586M105 36.914h-2V18.5l4-4V.914h2v14.414l-4 4v17.586M38.957 54.956h6v-6h-6zM38.957 62.956h6v-6h-6zM38.957 70.956h6v-6h-6zM38.957 78.956h6v-6h-6zM38.957 86.956h6v-6h-6zM38.957 94.956h6v-6h-6zM38.957 102.956h6v-6h-6zM38.957 110.956h6v-6h-6zM38.957 118.956h6v-6h-6zM38.957 126.956h6v-6h-6zM38.957 134.956h6v-6h-6z"/><path fill="#FFD15D" d="M40.958 52.957H30.543l-4-4H4.958v-2h22.414l4 4h9.586v2M40.958 60.957H28.543l-4-4H4.958v-2h20.414l4 4h11.586v2M40.958 68.957H26.543l-4-4H4.958v-2h18.414l4 4h13.586v2M40.958 76.957H24.543l-4-4H4.958v-2h16.414l4 4h15.586v2M40.958 84.957H22.543l-4-4H4.958v-2h14.414l4 4h17.586v2M4.958 92.957h36v-2h-36zM27.372 136.957H4.958v-2h21.585l4-4h10.415v2h-9.586l-4 4M25.372 128.957H4.958v-2h19.585l4-4h12.415v2H29.372l-4 4M23.372 120.957H4.958v-2h17.585l4-4h14.415v2H27.372l-4 4M21.372 112.957H4.958v-2h15.585l4-4h16.415v2H25.372l-4 4M19.372 104.957H4.958v-2h13.585l4-4h18.415v2H23.372l-4 4M147.043 54.956h6v-6h-6zM147.043 62.956h6v-6h-6zM147.043 70.956h6v-6h-6zM147.043 78.956h6v-6h-6zM147.043 86.956h6v-6h-6zM147.043 94.956h6v-6h-6zM147.043 102.956h6v-6h-6zM147.043 110.956h6v-6h-6zM147.043 118.956h6v-6h-6zM147.043 126.956h6v-6h-6zM147.043 134.956h6v-6h-6z"/><path fill="#FFD15D" d="M161.457 52.957h-10.415v-2h9.586l4-4h22.414v2h-21.585l-4 4M163.457 60.957h-12.415v-2h11.586l4-4h20.414v2h-19.585l-4 4M165.457 68.957h-14.415v-2h13.586l4-4h18.414v2h-17.585l-4 4M167.457 76.957h-16.415v-2h15.586l4-4h16.414v2h-15.585l-4 4M169.457 84.957h-18.415v-2h17.586l4-4h14.414v2h-13.585l-4 4M151.042 92.957h36v-2h-36zM187.042 136.957h-22.414l-4-4h-9.586v-2h10.415l4 4h21.585v2M187.042 128.957h-20.414l-4-4h-11.586v-2h12.415l4 4h19.585v2M187.042 120.957h-18.414l-4-4h-13.586v-2h14.415l4 4h17.585v2M187.042 112.957h-16.414l-4-4h-15.586v-2h16.415l4 4h15.585v2M187.042 104.957h-14.414l-4-4h-17.586v-2h18.415l4 4h13.585v2"/><path fill="#475059" d="M51 149H39v-12h2v10h10v2M153.06 149h-11.999v-2h9.999v-10h2v12M41 46.939h-2V34.94h12v2H41v9.999M153.06 46.939h-2V36.94h-9.999v-2h11.999v11.999"/><path fill="#48515A" d="M174.994 34.926a2 2 0 1 0 .001 4.001 2 2 0 0 0-.001-4.001zm0 6a4 4 0 1 1 0-8 4 4 0 0 1 0 8zM6 149.981h2v-4H6zM6 159.981h2v-4H6zM10 153.981h4v-2h-4zM0 153.981h4v-2H0z"/><path fill="#FFD15D" d="M171.431 155.975a2.439 2.439 0 1 1-.001 4.877 2.439 2.439 0 0 1 .001-4.877"/><path fill="#FFD15D" d="M171.431 156.476a1.937 1.937 0 1 0 0 3.873 1.937 1.937 0 0 0 0-3.873zm0 4.875a2.938 2.938 0 1 1 .002-5.876 2.938 2.938 0 0 1-.002 5.876zM152.547 11.05a2.437 2.437 0 1 1 .002 4.874 2.437 2.437 0 0 1-.002-4.874"/><path fill="#FFD15D" d="M152.547 11.55a1.937 1.937 0 1 0 0 3.873 1.937 1.937 0 0 0 0-3.873zm0 4.875a2.937 2.937 0 1 1 0-5.875 2.937 2.937 0 0 1 0 5.875z"/><path fill="#5FE0ED" d="M13.562 29.046a2.438 2.438 0 1 1 0 4.876 2.438 2.438 0 0 1 0-4.876"/><path fill="#DEDEDD" d="M176.012 165.945a2 2 0 1 1 0 4 2 2 0 0 1 0-4"/><path fill="#48515A" d="M21.006 15.922h-2V8.921h-1v-2h3v9.001"/><path fill="#48515A" d="M18.006 16.922h4v-2h-4zM159.988 154.956a1.002 1.002 0 0 0-1 1v4.002a1 1 0 0 0 2 0v-4.002a1.002 1.002 0 0 0-1-1zm0 8.002a3.004 3.004 0 0 1-3-3v-4.002a3 3 0 1 1 6 0v4.002a3.004 3.004 0 0 1-3 3zM184.107 142.977h2v-4h-2zM184.107 152.977h2v-4h-2zM188.107 146.977h4v-2h-4zM178.107 146.977h4v-2h-4zM39.916 164.962a1.002 1.002 0 0 0-1 1v4.001a1 1 0 1 0 2 0v-4.001a1.002 1.002 0 0 0-1-1zm0 8.001a3.003 3.003 0 0 1-3-3v-4.001a3 3 0 0 1 6 0v4.001a3.003 3.003 0 0 1-3 3zM29.91 144.95a1.002 1.002 0 0 0-1 1v4.001a1 1 0 0 0 2 0v-4.001a1.002 1.002 0 0 0-1-1zm0 8.001a3.004 3.004 0 0 1-3-3v-4.001a3 3 0 1 1 6 0v4.001a3.004 3.004 0 0 1-3 3zM39.916 14.872a1.002 1.002 0 0 0-1 1v4.002a1 1 0 0 0 2 0v-4.002a1.002 1.002 0 0 0-1-1zm0 8.002a3.004 3.004 0 0 1-3-3v-4.002a3 3 0 1 1 6 0v4.002a3.004 3.004 0 0 1-3 3zm120.072 2.004a1.002 1.002 0 0 0-1 1v4.001a1 1 0 1 0 2 0v-4.001a1.002 1.002 0 0 0-1-1zm0 8.001a3.003 3.003 0 0 1-3-3v-4.001a3 3 0 1 1 6 0v4.001a3.003 3.003 0 0 1-3 3zM31.012 35.935h-2v-7.001h-1v-2h3v9.001"/><path fill="#48515A" d="M28.012 36.935h4v-2h-4zM22.007 166.013h-2v-7.002h-1v-2h3v9.002"/><path fill="#48515A" d="M19.007 167.013h4v-2h-4zM154.086 176.019h-2v-7.001h-1v-2h3v9.001"/><path fill="#48515A" d="M151.086 177.019h4v-2h-4zM174.098 15.922h-2V8.921h-1v-2h3v9.001"/><path fill="#48515A" d="M171.098 16.922h4v-2h-4z"/><path fill="#5FE0ED" d="M43.001 136.999v8h8v-2h-6v-6h-2M149.059 136.999v8h-8v-2h6v-6h2M43.001 46.941v-8h8v2h-6v6h-2M149.059 46.941v-8h-8v2h6v6h2"/></g></svg>