<?xml version="1.0" encoding="utf-8"?><svg xmlns="http://www.w3.org/2000/svg" width="250" height="250" viewBox="0 0 250 250"><g fill="none" fill-rule="evenodd"><path fill="#DDDED9" d="M109.568 117.114v4.369l15.131 8.5 15-8.25.135-7.997v-6.741a30.573 30.573 0 0 0 1.687-1.784c-.18.157-.352.315-.5.473-2.103 2.261-5.292 4.634-7.451 6.478a9.575 9.575 0 0 1-6.113 2.291h-6.493a9.575 9.575 0 0 1-6.113-2.291c-2.061-1.76-5.06-4.002-7.158-6.169-.063-.065-.137-.13-.205-.195.63.67 1.35 1.349 2.117 2.024-.017.008-.037.016-.037.036v9.256"/><path fill="#434A4F" d="M34.97 172.788h2v-4h-2zM34.97 182.788h2v-4h-2zM38.97 176.788h4v-2h-4zM28.97 176.788h4v-2h-4z"/><path fill="#42494E" d="M160.865 164.79h55.165c1.654 0 3-1.346 3-3 0-1.655-1.346-3-3-3h-55.165l-6.506 3 6.506 3zm55.165 2h-55.604l-10.843-5 10.843-5h55.604c2.757 0 5 2.243 5 5 0 2.756-2.243 5-5 5z"/><path fill="#42494E" d="M208.42 165.79h2v-7.599h-2z"/><path fill="#42494E" d="M161.414 162.76h48.006v-2h-48.006zM176.971 106.775c-1.103 0-2 .897-2 2 0 1.102.897 2 2 2s2-.898 2-2c0-1.103-.897-2-2-2zm0 6c-2.206 0-4-1.794-4-4s1.794-4 4-4 4 1.794 4 4-1.794 4-4 4z"/><path fill="#434A4F" d="M59.948 214.789l-1.999-.002.063-72.011c0-5.946 3.772-7.845 9.102-9.878l38.075-13.007.358.869a20.936 20.936 0 0 0 19.423 13.013 21.029 21.029 0 0 0 19.19-12.472l.373-.839 36.189 12.485c5.267 1.937 9.281 3.896 9.281 9.951l-.055 71.891-2-.002.055-71.89c0-4.794-3.004-6.246-7.952-8.066l-34.454-11.885a23.03 23.03 0 0 1-20.627 12.827 22.926 22.926 0 0 1-20.897-13.388l-36.279 12.394c-5.279 2.014-7.782 3.465-7.782 7.998l-.064 72.012"/><path fill="#75C7D0" d="M148.497 108.804h-8.902v9.52h5.623l.209.398-20.834 27.205-.037.284-20.963-27.573.25-.314h5.868v-9.52h-9.103l-8.765 9.717 27.178 35.564h11.064l27.177-35.564-8.765-9.717"/><path fill="#434A4F" d="M130.085 155.085h-11.064a1 1 0 0 1-.794-.392l-27.178-35.564c-.292-.382-.27-.92.052-1.277l8.764-9.718a1 1 0 0 1 1.486 1.34l-8.209 9.101 26.373 34.51h10.57a1 1 0 0 1 0 2"/><path fill="#434A4F" d="M130.085 155.085h-4.269a1 1 0 1 1 0-2h3.775l26.372-34.51-8.208-9.101a1 1 0 1 1 1.485-1.34l8.765 9.718a1 1 0 0 1 .051 1.277l-27.177 35.564a1 1 0 0 1-.794.392"/><path fill="#42494E" d="M92.206 119.324h17.514v-2H92.206zM140.095 119.324h16.352v-2h-16.352z"/><path fill="#434A4F" d="M124.275 156.43a1.432 1.432 0 1 0 1.431 1.432c0-.789-.642-1.432-1.431-1.432zm0 4.862a3.434 3.434 0 0 1-3.431-3.43 3.435 3.435 0 0 1 3.431-3.432 3.435 3.435 0 0 1 3.431 3.432 3.434 3.434 0 0 1-3.431 3.43zm-5.182-6.862a1 1 0 0 1-.796-1.604l26.333-34.709a1.003 1.003 0 0 1 1.401-.193c.44.334.526.961.193 1.402l-26.334 34.709a1 1 0 0 1-.797.395M106.732 123.464l-.69-1.877 2.527-.927-.001-12.802h2l.001 14.198-3.837 1.408"/><path fill="#434A4F" d="M141.984 123.191l-3.25-1.43v-15.205l.297-.294c1.175-1.158 2.579-2.637 3.016-3.798l6.189-12.629 6.897-3.451 1.574-7.812a2.234 2.234 0 0 0-.637-1.557 2.237 2.237 0 0 0-1.616-.683h-2.574l.204-1.171c.546-3.138.823-5.958.823-8.384l.001-1.356a26.796 26.796 0 0 0-2.474-11.385 28.74 28.74 0 0 0-8.374-10.731c-5.003-3.942-11.018-6.05-17.398-6.093l-.188-.001c-7.347 0-14.344 2.935-19.721 8.276-5.549 5.511-8.732 13.096-8.732 20.811v.479c0 2.466.238 5.295.707 8.406l.174 1.149h-2.376a2.37 2.37 0 0 0-2.362 2.238l2.237 7.826 6.011 3.473 5.94 12.559c.813 2.17 4.287 4.995 7.078 7.265.742.602 1.448 1.178 2.07 1.708a8.591 8.591 0 0 0 5.476 2.052h6.495v2h-6.506a10.61 10.61 0 0 1-6.764-2.531 109.39 109.39 0 0 0-2.032-1.677c-3.135-2.549-6.688-5.438-7.658-8.039l-5.64-11.917-6.172-3.565-2.539-9.026a4.37 4.37 0 0 1 4.366-4.366h.06c-.375-2.762-.565-5.299-.565-7.555v-.479c0-8.244 3.398-16.346 9.323-22.23 5.754-5.716 13.251-8.857 21.129-8.857l.203.001c6.828.046 13.267 2.302 18.622 6.523a30.728 30.728 0 0 1 8.956 11.471 28.79 28.79 0 0 1 2.654 12.229l-.001 1.342c0 2.231-.221 4.768-.659 7.555h.206c1.159 0 2.242.458 3.05 1.29a4.212 4.212 0 0 1 1.201 3.084l-.019.17-1.786 8.86-7.166 3.586-5.853 11.935c-.496 1.327-1.782 2.767-3.147 4.133v13.067l2.056.904-.806 1.83m-17.427 24.019a.997.997 0 0 1-.797-.394l-20.962-27.572a1 1 0 0 1 1.591-1.211l20.963 27.572a1 1 0 0 1-.795 1.605"/><path fill="#FACD60" d="M142.462 184.695c0 9.941-8.059 18-18.001 18-9.941 0-17.999-8.059-17.999-18 0-9.942 8.059-18 18-18s18 8.058 18 18"/><path fill="#434A4F" d="M124.461 192.733a1 1 0 0 1-1-1v-13.076h-3.222a1 1 0 0 1 0-2h4.222a.997.997 0 0 1 1 1v14.076a1 1 0 0 1-1 1"/><path fill="#434A4F" d="M128.683 192.733h-8.444a1 1 0 1 1 0-2h8.444a1 1 0 1 1 0 2"/><path fill="#434A4F" d="M124.462 200.776c-8.868 0-16.082-7.214-16.082-16.081a1 1 0 1 1 2 0c0 7.764 6.317 14.081 14.082 14.081 4.084 0 7.962-1.771 10.641-4.859a1 1 0 0 1 1.511 1.311 16.084 16.084 0 0 1-12.152 5.548m-22.082-14.849a.998.998 0 0 1 .95-1.05.996.996 0 1 1 .1 1.991h-.05c-.53 0-.97-.41-1-.941zm.62 4.13c-.13-.529.2-1.069.73-1.21.54-.13 1.08.2 1.21.731a.994.994 0 0 1-.97 1.24c-.44 0-.85-.301-.97-.761zm1.4 3.95c-.23-.5-.02-1.099.48-1.33a1 1 0 0 1 1.33.49c.23.5.02 1.09-.48 1.331a1.008 1.008 0 0 1-1.33-.491zm2.11 3.611c-.32-.451-.22-1.08.23-1.401.45-.32 1.07-.219 1.4.231a.994.994 0 0 1-.23 1.389 1.007 1.007 0 0 1-1.4-.219zm2.76 3.139a.987.987 0 0 1-.04-1.41.997.997 0 0 1 1.41-.04c.4.38.42 1.011.04 1.42-.2.2-.46.311-.73.311-.24 0-.49-.09-.68-.281zm3.29 2.58a1 1 0 0 1-.3-1.379c.3-.47.91-.601 1.38-.311.46.301.6.921.3 1.381-.19.3-.51.47-.84.47-.18 0-.37-.05-.54-.161zm3.72 1.911c-.51-.21-.76-.79-.56-1.3a1.01 1.01 0 0 1 1.3-.561c.51.21.77.79.56 1.3a.994.994 0 0 1-.93.631.99.99 0 0 1-.37-.07zm4.02 1.169c-.54-.099-.9-.629-.8-1.169a.998.998 0 0 1 1.17-.79c.55.099.9.62.8 1.16-.09.479-.51.819-.98.819-.06 0-.13-.01-.19-.02zm3.16-.61c0-.55.45-1 1-1s1 .45 1 1-.45 1-1 1-1-.45-1-1z"/><path fill="#434A4F" d="M103.347 185.694a1 1 0 0 1-1-1c0-12.194 9.921-22.113 22.115-22.113a1 1 0 1 1 0 2c-11.091 0-20.115 9.022-20.115 20.113a1 1 0 0 1-1 1m21.117 21.114h-.002a1 1 0 1 1 0-2h.002a19.977 19.977 0 0 0 14.22-5.891 19.978 19.978 0 0 0 5.891-14.222 1 1 0 1 1 2 0c0 5.907-2.3 11.46-6.477 15.637a21.967 21.967 0 0 1-15.634 6.476M81.97 214.788h2v-38h-2zM163.97 214.788h2v-38h-2zM58.816 156.299c.26 0 .525.021.79.064 2.084.332 3.643 1.893 3.971 3.978l.36 2.288 4.001-.629-.36-2.288c-.328-2.085.676-4.049 2.558-5.005 1.881-.957 4.059-.61 5.551.884l1.636 1.64 2.867-2.861-1.637-1.64c-1.49-1.493-1.833-3.673-.873-5.553s2.929-2.88 5.012-2.546l2.287.365.638-4-2.288-.366c-2.084-.332-3.642-1.894-3.97-3.979-.327-2.084.676-4.049 2.557-5.005l2.065-1.049-1.79-3.521-2.064 1.049c-1.88.956-4.06.61-5.552-.885-1.49-1.493-1.833-3.673-.873-5.553l1.054-2.062-3.608-1.842-1.054 2.062c-.96 1.879-2.925 2.874-5.01 2.547-2.084-.332-3.643-1.893-3.972-3.978l-.359-2.289-4.002.63.36 2.288c.328 2.085-.675 4.05-2.557 5.006-1.879.955-4.06.609-5.551-.885l-1.636-1.639-2.867 2.861 1.636 1.64c1.491 1.493 1.834 3.673.874 5.552-.96 1.88-2.925 2.883-5.011 2.547l-2.287-.364-.637 4 2.287.365c2.083.332 3.642 1.894 3.97 3.978.328 2.085-.675 4.05-2.557 5.007l-2.064 1.049 1.788 3.517 2.064-1.049c1.883-.955 4.062-.608 5.551.886 1.491 1.493 1.834 3.673.874 5.553l-1.054 2.062 3.608 1.842 1.053-2.062c.838-1.64 2.442-2.61 4.221-2.61zm3.456 8.618l-.671-4.265c-.231-1.472-1.345-2.16-2.31-2.315-.965-.154-2.237.156-2.915 1.482l-1.963 3.844-7.17-3.663 1.964-3.843c.677-1.327.182-2.538-.508-3.23-.691-.693-1.903-1.19-3.23-.515l-3.847 1.955-3.6-7.084 3.847-1.955c1.328-.675 1.639-1.948 1.488-2.912-.153-.965-.839-2.081-2.31-2.315l-4.263-.68 1.267-7.949 4.263.679c1.471.23 2.47-.612 2.915-1.483.445-.87.544-2.175-.509-3.23l-3.048-3.054 5.698-5.687 3.049 3.054c1.052 1.055 2.358.958 3.229.515.871-.442 1.719-1.439 1.488-2.912l-.671-4.263 7.953-1.253.67 4.265c.232 1.472 1.346 2.16 2.311 2.314.964.152 2.236-.156 2.914-1.482l1.964-3.844 7.169 3.662-1.963 3.844c-.678 1.327-.182 2.538.508 3.23.69.692 1.901 1.19 3.229.515l3.848-1.956 3.602 7.088-3.847 1.955c-1.329.675-1.64 1.946-1.488 2.911.152.966.838 2.08 2.31 2.316l4.262.679-1.268 7.95-4.262-.679c-1.474-.228-2.471.611-2.916 1.481-.444.871-.544 2.176.508 3.231l3.049 3.056-5.698 5.685-3.049-3.056c-1.053-1.054-2.358-.956-3.229-.514-.871.443-1.719 1.44-1.488 2.913l.67 4.263-7.952 1.252z"/><path fill="#42494E" d="M52.038 144.674a11.51 11.51 0 0 1-.687-8.842 11.513 11.513 0 0 1 5.767-6.74 11.517 11.517 0 0 1 8.843-.687 11.518 11.518 0 0 1 6.739 5.767l-1.784.907a9.518 9.518 0 0 0-5.575-4.772 9.528 9.528 0 0 0-7.317.568 9.529 9.529 0 0 0-4.772 5.577 9.522 9.522 0 0 0 .569 7.316l-1.783.906"/><path fill="#E9886C" d="M62.346 135.877c-.936 0-1.814.365-2.475 1.026a3.473 3.473 0 0 0-1.026 2.474c0 .936.364 1.815 1.026 2.476a3.507 3.507 0 0 0 4.95 0 3.477 3.477 0 0 0 1.024-2.476c0-.934-.363-1.813-1.024-2.474h-.001a3.478 3.478 0 0 0-2.474-1.026zm0 9.998a6.477 6.477 0 0 1-4.597-1.901 6.456 6.456 0 0 1-1.904-4.597c0-1.736.677-3.368 1.904-4.595a6.458 6.458 0 0 1 4.597-1.905c1.736 0 3.368.676 4.596 1.905a6.452 6.452 0 0 1 1.903 4.595c0 1.737-.675 3.37-1.903 4.597a6.48 6.48 0 0 1-4.596 1.901z"/><path fill="#434A4F" d="M60.37 125.477a.983.983 0 0 1 .92-1.06h.01a.989.989 0 0 1 1.06.92c.04.55-.38 1.031-.93 1.071h-.07a.988.988 0 0 1-.99-.931zm4.76 1.2a.997.997 0 1 1 .42-1.95 1 1 0 0 1 .77 1.181c-.11.469-.52.79-.98.79-.07 0-.14-.011-.21-.021zm-8.601-.08a.993.993 0 0 1 .591-1.279.984.984 0 0 1 1.28.59.99.99 0 0 1-.58 1.279 1.004 1.004 0 0 1-1.291-.59zm12.061 1.38c-.48-.269-.66-.88-.39-1.359a.984.984 0 0 1 1.35-.401c.49.271.67.87.4 1.361a1.008 1.008 0 0 1-1.36.399zm-15.42.78a.994.994 0 0 1 .2-1.4 1.005 1.005 0 0 1 1.4.2c.33.441.24 1.07-.2 1.401a.97.97 0 0 1-.6.2.986.986 0 0 1-.8-.401zm18.37 1.43a1.008 1.008 0 0 1 0-1.42.996.996 0 0 1 1.41 0c.39.391.39 1.03 0 1.42a1.001 1.001 0 0 1-1.41 0zm-21 1.591c-.44-.341-.53-.96-.19-1.41a.992.992 0 0 1 1.4-.191c.44.33.529.96.19 1.401a.987.987 0 0 1-.8.399c-.21 0-.42-.069-.6-.199zm23.22 1.369a.994.994 0 0 1 .4-1.359.993.993 0 0 1 1.35.399c.27.48.09 1.091-.39 1.36-.16.08-.32.12-.48.12-.36 0-.7-.19-.88-.52zm-24.88 2.261a1.002 1.002 0 1 1 1.29-.59h-.01a.98.98 0 0 1-.93.649c-.12 0-.23-.019-.35-.059zm26.17 1.21c-.12-.54.229-1.071.77-1.191a.996.996 0 0 1 1.19.76c.11.54-.231 1.08-.77 1.19a.764.764 0 0 1-.211.031c-.459 0-.879-.321-.979-.79zm-26.74 2.739a.998.998 0 0 1-.93-1.069v.009a.998.998 0 0 1 1.07-.929c.55.04.97.519.93 1.069-.04.521-.48.931-1 .931-.02 0-.05 0-.07-.011zm27.93 2.02c-.55-.04-.97-.52-.93-1.07.04-.55.52-.97 1.07-.93.55.04.97.52.93 1.071-.04.529-.48.929-1 .929h-.07zm-28.56 1.17a.999.999 0 0 1 .77-1.179.996.996 0 0 1 1.19.759c.11.54-.23 1.071-.77 1.191-.07.019-.14.019-.21.019-.46 0-.881-.32-.98-.79zm27.43 2.661a.994.994 0 0 1-.581-1.281.995.995 0 0 1 1.281-.59 1.002 1.002 0 1 1-.35 1.941.929.929 0 0 1-.35-.07zm-25.94 1.349a1.002 1.002 0 0 1 1.76-.96c.26.49.08 1.09-.401 1.361a1.01 1.01 0 0 1-1.359-.401zm23.78 2.011c-.44-.33-.53-.961-.2-1.401.33-.44.96-.53 1.4-.2.44.33.53.96.2 1.401-.2.269-.5.399-.8.399a.962.962 0 0 1-.6-.199zm-21.22 1.409a1.008 1.008 0 0 1 0-1.42c.39-.39 1.03-.39 1.42 0a.999.999 0 0 1-.01 1.42 1.001 1.001 0 0 1-1.41 0zm18.2 1.21a1.002 1.002 0 0 1 .2-1.399 1 1 0 0 1 1.2 1.599c-.18.141-.39.2-.6.2-.3 0-.6-.139-.8-.4zm-14.78 1.351h-.01a.999.999 0 0 1-.39-1.361.997.997 0 0 1 1.36-.389h-.01c.49.259.67.87.4 1.349a.98.98 0 0 1-.88.521.9.9 0 0 1-.47-.12zm11.14.309c-.19-.519.08-1.09.59-1.29.52-.189 1.1.08 1.29.59a1.003 1.003 0 0 1-.94 1.351c-.4 0-.78-.25-.94-.651zm-7.14 1.191a1.012 1.012 0 0 1-.77-1.191 1.002 1.002 0 0 1 1.96.42c-.11.471-.52.79-.98.79-.07 0-.14-.01-.21-.019zm3.19-.63a.984.984 0 0 1 .93-1.061.988.988 0 0 1 1.06.92.997.997 0 0 1-.92 1.07h-.08c-.52 0-.95-.4-.99-.929z"/><path fill="#FACD60" d="M90.97 94.788a2 2 0 1 1-4 0 2 2 0 0 1 4 0m8 72a2 2 0 1 1-4 0 2 2 0 0 1 4 0m52 4h-2 2m28 20a2 2 0 1 1 4 0 2 2 0 0 1-4 0m-32 14a2 2 0 1 1 4 0 2 2 0 0 1-4 0m-54-4a2 2 0 1 1-4 0 2 2 0 0 1 4 0m62-15a1 1 0 1 1 2 0 1 1 0 0 1-2 0m0 10a1 1 0 1 1 2 0 1 1 0 0 1-2 0m-54 8a1 1 0 1 1 2 0 1 1 0 0 1-2 0m-10-20v-1 1"/><path fill="#434A4F" d="M212.97 196.788h2v-4h-2zM212.97 206.788h2v-4h-2zM216.97 200.788h4v-2h-4zM206.97 200.788h4v-2h-4zM58.97 76.788h2v-4h-2zM58.97 86.788h2v-4h-2zM62.97 80.788h4v-2h-4zM52.97 80.788h4v-2h-4z"/><path fill="#42494E" d="M193.229 71.788c-5.923 0-10.741 4.818-10.741 10.741s4.818 10.741 10.741 10.741 10.741-4.818 10.741-10.741-4.818-10.741-10.741-10.741zm0 23.482c-7.026 0-12.741-5.716-12.741-12.741 0-7.026 5.715-12.741 12.741-12.741 7.025 0 12.741 5.715 12.741 12.741 0 7.025-5.716 12.741-12.741 12.741z"/><path fill="#42494E" d="M193.228 71.788c-2.885 0-5.322 4.918-5.322 10.741 0 5.822 2.437 10.741 5.322 10.741 2.885 0 5.322-4.919 5.322-10.741 0-5.823-2.437-10.741-5.322-10.741zm0 23.482c-4.106 0-7.322-5.597-7.322-12.741 0-7.145 3.216-12.741 7.322-12.741s7.322 5.596 7.322 12.741c0 7.144-3.216 12.741-7.322 12.741z"/><path fill="#42494E" d="M181.488 83.529h23.482v-2h-23.482z"/></g></svg>