<?xml version="1.0" encoding="utf-8"?><svg xmlns="http://www.w3.org/2000/svg" width="250" height="250" viewBox="0 0 250 250"><g fill="none" fill-rule="evenodd"><path fill="#FFD15D" d="M129.347 161.995l.002.009-.002-.009zm45.331 0zm2.139 12.155c.006-2.09.011-5.359.016-6.7.007-1.837 1.055-2.152 1.69-4.341.055-.191-.012-4.208-.012-4.208l2.983-3.101-1.55-3.1c0-1.335.855-2.681 2.121-3.103h3.862c1.297 0 2.591-.491 3.424-1.485 1.096-1.309 1.307-3.068.618-4.544-2.047-4.385-7.349-16.044-9.896-24.469-.591-1.954-.739-3.593-.708-4.907l-.003-16.273a47.278 47.278 0 0 0-1.8-12.909l-.02-.072c-1.948-6.858-5.321-13.279-10.161-18.513a59.931 59.931 0 0 0-3.336-3.333 58.335 58.335 0 0 0-2.207-2.029 60.064 60.064 0 0 0-9.826-6.916 60.013 60.013 0 0 0-9.825 6.916 56.837 56.837 0 0 0-2.207 2.029 59.931 59.931 0 0 0-3.336 3.333c-4.841 5.234-8.213 11.655-10.161 18.513l-.021.072a47.315 47.315 0 0 0-1.799 12.909l-.004 16.273c.031 1.314-.116 2.953-.707 4.907-2.547 8.425-7.85 20.084-9.897 24.469-.689 1.476-.478 3.235.619 4.544.833.994 2.127 1.485 3.424 1.485h3.861c1.267.422 2.121 1.768 2.121 3.103l-1.549 3.1 2.983 3.101s-.068 4.017-.013 4.208c.635 2.189 1.683 2.504 1.69 4.341.005 1.341.011 4.61.017 6.7.012 4.333 3.528 7.853 7.861 7.853h33.887c4.333 0 7.849-3.52 7.861-7.853z"/><path fill="#5FE0ED" d="M74.021 129.894c-8.218-15.914-8.521-34.428-.807-49.525a53.91 53.91 0 0 1 12.729-16.283c10.145-8.799 23.154-13.645 36.636-13.645 13.48 0 26.491 4.846 36.636 13.644a54.969 54.969 0 0 1 2.116 1.949 55.289 55.289 0 0 1 3.111 3.109c4.205 4.546 7.404 10.387 9.271 16.96.185.654.333 1.316.488 1.977h8.185a52.259 52.259 0 0 0-.995-4.235c-2.188-7.708-6.017-14.67-11.072-20.138a63.604 63.604 0 0 0-3.494-3.494 61.194 61.194 0 0 0-2.365-2.174c-11.601-10.062-26.475-15.603-41.881-15.603-15.407 0-30.281 5.541-41.881 15.603-6.036 5.236-10.952 11.523-14.613 18.689-8.884 17.389-8.576 38.637.825 56.84 2.704 5.236 5.181 12.46 7.269 20.8h8.257c-2.341-9.756-5.214-18.276-8.415-24.474"/><path fill="#475059" d="M146.394 212.563l-3.112-24.356c0-3.972 3.232-7.203 7.203-7.203h18.471c3.773 0 6.851-3.075 6.86-6.857l.017-6.701c.006-1.302.449-2.044.878-2.759.289-.483.587-.981.826-1.77.019-.431.002-2.317-.026-3.999l-.007-.412 2.78-2.891-1.34-2.678v-.237c0-1.806 1.18-3.511 2.805-4.053l.154-.05h4.024c1.088 0 2.056-.411 2.657-1.127.833-.994 1.017-2.327.479-3.479-2.139-4.58-7.391-16.147-9.948-24.603-.538-1.778-.79-3.534-.75-5.219l-.004-16.25a46.31 46.31 0 0 0-1.76-12.636c-1.997-7.026-5.432-13.288-9.955-18.179a58.62 58.62 0 0 0-3.28-3.278 56.183 56.183 0 0 0-2.183-2.007c-10.692-9.273-24.401-14.381-38.604-14.381s-27.913 5.108-38.604 14.381C78.428 66.63 73.908 72.412 70.54 79.004c-8.152 15.956-7.848 35.495.814 52.267 8.336 16.142 14.394 48.56 14.403 77.083l.102 4.057-2 .051-.102-4.082c-.009-28.268-5.973-60.3-14.18-76.191-8.957-17.343-9.264-37.566-.818-54.095 3.485-6.822 8.164-12.806 13.905-17.786 11.055-9.588 25.23-14.869 39.914-14.869 14.685 0 28.86 5.281 39.915 14.869a57.908 57.908 0 0 1 2.245 2.063 61.076 61.076 0 0 1 3.377 3.375c4.736 5.121 8.327 11.663 10.389 18.918a48.447 48.447 0 0 1 1.857 13.255l.004 16.273c-.035 1.497.189 3.043.664 4.618 2.52 8.331 7.726 19.794 9.847 24.336.869 1.863.579 4.012-.759 5.609-.982 1.171-2.51 1.842-4.19 1.842h-3.68c-.691.299-1.214 1.064-1.292 1.887l1.749 3.5-3.186 3.314c.059 3.765.012 3.928-.034 4.087-.316 1.091-.727 1.777-1.057 2.329-.368.615-.591.986-.594 1.74l-.017 6.699c-.013 4.88-3.988 8.851-8.86 8.851h-18.471a5.21 5.21 0 0 0-5.203 5.142l3.096 24.164-1.984.253"/><path fill="#2B2B2B" d="M174.675 162.004"/><path fill="#48515A" d="M213 189.437h2v-4h-2zM213 199.437h2v-4h-2zM217 193.437h4v-2h-4zM207 193.437h4v-2h-4zM35 141.437h2v-4h-2zM35 151.437h2v-4h-2zM39 145.437h4v-2h-4zM29 145.437h4v-2h-4zM191 41.436h2v-4h-2zM191 51.436h2v-4h-2zM195 45.436h4v-2h-4zM185 45.436h4v-2h-4z"/><path fill="#5FE0ED" d="M210.317 133.709a3.317 3.317 0 1 1-6.634 0 3.317 3.317 0 0 1 6.634 0m-154.5-68.286a3.317 3.317 0 1 1-6.634 0 3.317 3.317 0 0 1 6.634 0"/><path fill="#F58E70" d="M164.835 198.437a1 1 0 1 1-2 0 1 1 0 0 1 2 0m-110.335-13a2 2 0 1 1-4 0 2 2 0 0 1 4 0"/></g></svg>