<?xml version="1.0" encoding="utf-8"?><svg xmlns="http://www.w3.org/2000/svg" width="250" height="250" viewBox="0 0 250 250"><g fill="none" fill-rule="evenodd"><path fill="#5FE0ED" d="M190.694 87.148c-15.103 0-27.347-12.244-27.347-27.347 0-7.771 3.247-14.78 8.451-19.759H40.463v98h34v-10h20.764l.637-16.167.834-8.462a14.161 14.161 0 0 1 8.921-11.325l.098-.035 5.875-2.044h-6.886V65.332c.001-10.583 8.796-19.346 19.607-19.534 5.558-.103 10.745 1.95 14.624 5.762 3.688 3.625 5.719 8.422 5.719 13.511v24.938h-8.157l.321.308.02.045 5.616 1.711a14.175 14.175 0 0 1 8.961 11.34l.017.158.674 8.357.768 16.114h20.587v10h37V78.686c-4.979 5.21-11.992 8.462-19.769 8.462"/><path fill="#DFE0E0" d="M81.422 141.042l2 12h81l1.961-12H81.422"/><path fill="#48515A" d="M214.463 142.042h-40v-2h38v-53h2v55M73.463 142.042h-37v-106h127v2h-125v102h35v2"/><path fill="#48515A" d="M78.463 140.042h91v-8h-91v8zm-2 2h95v-12h-95v12z"/><path fill="#48515A" d="M158.408 193.195l-1.971-.34 8.759-50.813H82.61l8.798 50.791-1.971.342-9.203-53.133h87.336l-9.162 53.153M86.463 131.042h-2V94.339l16.555-8.234.89 1.791-15.445 7.682v35.464"/><path fill="#48515A" d="M97.09 91.126a2 2 0 0 1-.896-3.79l4.334-2.166a2 2 0 1 1 1.788 3.578l-4.334 2.166a1.978 1.978 0 0 1-.892.212M164.463 131.042h-2V95.578l-15.445-7.682.89-1.791 16.555 8.234v36.703"/><path fill="#48515A" d="M152.792 91.126c-.3 0-.605-.068-.892-.212l-4.334-2.166a2 2 0 1 1 1.788-3.578l4.334 2.166a2.001 2.001 0 0 1-.896 3.79"/><path fill="#F58E70" d="M212.502 203.042H164.5c-3.314 0-6.037 2.853-6.037 6.167v11.833h60v-11.833c0-3.314-2.647-6.167-5.961-6.167"/><path fill="#48515A" d="M181.463 184.042a1 1 0 0 1-1-1v-3.292a1 1 0 0 1 2 0v3.292a1 1 0 0 1-1 1m13 .624a1 1 0 0 1-1-1v-3.601a1 1 0 0 1 2 0v3.601a1 1 0 0 1-1 1"/><path fill="#48515A" d="M161.5 197.716l-1.999-.047.028-1.175c-.001-3.083 2.272-3.951 4.278-4.716l13.201-4.422 2.417-4.314h17.624l2.748 4.337 13.21 4.33c1.973.725 4.388 1.614 4.388 4.821l-.024 1.163-2-.041.024-1.143c0-1.541-.723-2.057-3.045-2.911l-13.858-4.542-2.543-4.014h-15.352l-2.222 3.965-13.895 4.654c-2.314.884-2.952 1.342-2.952 2.856l-.028 1.199"/><path fill="#48515A" d="M182.463 190.042h12v-2h-12zM219.463 221.042h-2v-18.083c0-2.757-2.161-4.917-4.919-4.917h-48.002c-2.801 0-5.079 2.205-5.079 4.917v18.083h-2v-18.083c0-3.814 3.175-6.917 7.079-6.917h48.002c3.88 0 6.919 3.038 6.919 6.917v18.083"/><path fill="#F58E70" d="M147.963 203.042H99.961c-3.314 0-6.498 2.853-6.498 6.167v11.833h60v-11.833c0-3.314-2.186-6.167-5.5-6.167"/><path fill="#48515A" d="M130.463 184.833a1 1 0 0 1-1-1v-4.463c0-.77.551-1.32.994-1.761.13-.13.327-.325.374-.406l2.694-5.618 2.868-1.448.592-2.88a.16.16 0 0 0-.048-.097c-.055-.058-.179-.118-.359-.118h-1.714l.125-1.111c.095-.853.197-1.495.282-2.038.111-.706.192-1.216.192-1.798v-.483c0-1.462-.296-2.906-.861-4.275l-.245-.489c-.032-.073-.07-.144-.108-.216l-.098-.191a11.79 11.79 0 0 0-3.246-3.986c-2.108-1.662-4.371-2.479-6.917-2.496-2.956.024-5.792 1.147-7.946 3.287-2.275 2.259-3.579 5.409-3.579 8.643v.206c0 .454-.045.861-.087 1.255-.075.69-.153 1.404-.037 2.595l.107 1.097h-1.624c-.092 0-.366.017-.432.217l.859 2.95 2.54 1.434 2.631 5.546c.115.298.538.734.848 1.053.227.233.833.738.837.742l.358.3v3.758a1 1 0 0 1-2 0v-2.831a12.506 12.506 0 0 1-.602-.547c-.555-.572-1.054-1.085-1.281-1.698l-2.326-4.893-2.697-1.523-1.181-4.197c0-1.142.79-2.04 1.908-2.26-.019-.828.047-1.44.104-1.959.038-.351.075-.677.075-1.039v-.206c0-3.763 1.519-7.43 4.169-10.062 2.536-2.518 5.879-3.888 9.369-3.868 2.967.02 5.706 1.005 8.143 2.926a13.802 13.802 0 0 1 3.741 4.553h.023l.299.579c.822 1.771 1.256 3.672 1.256 5.498v.58c0 .739-.096 1.344-.216 2.11-.042.267-.089.559-.136.89.488.099.931.331 1.261.671.414.426.633.998.616 1.607l-.02.173-.81 3.941-3.124 1.576-2.379 4.954c-.13.356-.464.688-.786 1.009-.127.126-.328.327-.406.441v4.366a1 1 0 0 1-1 1"/><path fill="#48515A" d="M96.962 197.716l-1.999-.047.027-1.175c0-3.083 2.273-3.951 4.278-4.716l13.201-4.422 2.417-4.314h17.625l2.748 4.337 13.209 4.33c1.974.725 4.388 1.614 4.388 4.821l-.023 1.163-2-.041.023-1.143c0-1.541-.723-2.057-3.044-2.911l-13.858-4.542-2.544-4.014h-15.352l-2.222 3.965-13.894 4.654c-2.315.884-2.952 1.342-2.952 2.856l-.028 1.199"/><path fill="#48515A" d="M117.463 190.042h12v-2h-12zM155.463 221.042h-2v-18.083c0-2.619-2.55-4.917-5.458-4.917h-48.002c-2.673 0-4.54 2.022-4.54 4.917v18.083h-2v-18.083c0-4.008 2.75-6.917 6.54-6.917h48.002c4.043 0 7.458 3.167 7.458 6.917v18.083"/><path fill="#F58E70" d="M83.425 203.042H35.422c-3.313 0-5.959 2.853-5.959 6.167v11.833h60v-11.833c0-3.314-2.725-6.167-6.038-6.167"/><path fill="#48515A" d="M65.463 184.666a1 1 0 0 1-1-1v-4.853l.474-.293c.754-.467.956-.876 1.111-1.289l.042-.096 2.792-5.558 2.92-1.447.616-2.878c-.009-.066-.036-.092-.048-.106-.064-.065-.187-.104-.331-.104h-1.713l.124-1.111c.145-1.296.099-2.046.055-2.771a16.689 16.689 0 0 1-.042-1.065v-.483c0-2.039-.267-3.519-.84-4.753l-.66-1.421h.034a11.472 11.472 0 0 0-2.659-2.983 11.547 11.547 0 0 0-7.134-2.496l-.077-.001c-3.008 0-5.875 1.204-8.08 3.394-2.277 2.263-3.584 5.374-3.584 8.537v.206c0 .718.063 1.294.169 2.248.049.446.107.965.168 1.602l.107 1.097h-1.623c-.092 0-.367.017-.432.217l.858 2.95 2.54 1.434 2.631 5.546c.169.442.325.75.646 1.082.242.248.724.865.724.865l.214.271-.002 3.635a1 1 0 0 1-2 0v-2.944a7.956 7.956 0 0 0-.371-.434 4.66 4.66 0 0 1-1.051-1.698l-2.326-4.893-2.697-1.523-1.181-4.197c0-1.127.77-2.017 1.866-2.251l-.059-.54c-.109-.986-.181-1.638-.181-2.467v-.206c0-3.692 1.521-7.321 4.175-9.955 2.605-2.588 6.003-3.969 9.58-3.975a13.528 13.528 0 0 1 8.358 2.926 13.567 13.567 0 0 1 3.771 4.669c.061.123.104.245.144.369.011.035.021.071.037.105l.633 1.41h-.196c.338 1.174.498 2.503.498 4.077v.58c0 .329.019.629.038.943.035.564.073 1.183.026 2.047.497.091.939.32 1.277.667a2.21 2.21 0 0 1 .616 1.621l-.021.181-.843 3.94-3.186 1.578-2.47 4.916c-.228.591-.586 1.261-1.437 1.908v3.77a1 1 0 0 1-1 1"/><path fill="#48515A" d="M32.423 197.716l-1.999-.047.027-1.175c0-3.083 2.273-3.951 4.278-4.716l13.202-4.422 2.417-4.314h17.624l2.748 4.337 13.21 4.33c1.973.725 4.387 1.614 4.387 4.821l-.023 1.163-2-.041.023-1.143c0-1.541-.722-2.057-3.044-2.911l-13.859-4.542-2.542-4.014H51.52l-2.222 3.965-13.895 4.654c-2.315.884-2.952 1.342-2.952 2.856l-.028 1.199"/><path fill="#48515A" d="M53.463 190.042h12v-2h-12zM90.463 221.042h-2v-18.083c0-2.757-2.194-4.917-4.996-4.917H35.464c-2.804 0-5.001 2.16-5.001 4.917v18.083h-2v-18.083c0-3.814 3.141-6.917 7.001-6.917h48.003c3.857 0 6.996 3.103 6.996 6.917v18.083"/><path fill="#5FE0ED" d="M210.463 40.915v-.873h-.872c.297.285.588.575.872.873"/><path fill="#48515A" d="M190.506 30.958c-16.007 0-29.03 13.023-29.03 29.031 0 11.697 7.04 22.171 17.934 26.682l.68.282-.066.733a7.99 7.99 0 0 1-2.609 5.223c3.082-.419 5.839-1.82 7.907-4.048l.359-.386.521.077c1.374.204 2.846.393 4.304.393 16.008 0 29.031-13.007 29.031-28.994 0-7.752-3.019-15.035-8.502-20.509-5.481-5.471-12.772-8.484-20.529-8.484zm-15.074 64.084h-3.631v-2c3.017 0 5.533-2.032 6.125-4.831-11.235-4.979-18.45-15.972-18.45-28.222 0-17.111 13.92-31.031 31.03-31.031 8.291 0 16.083 3.221 21.942 9.069 5.861 5.851 9.089 13.637 9.089 21.924 0 17.09-13.92 30.994-31.031 30.994-1.402 0-2.784-.156-4.087-.34-2.855 2.866-6.735 4.437-10.987 4.437z"/><path fill="#48515A" d="M173.463 56.042h34v-2h-34zM173.463 61.042h34v-2h-34zM173.463 65.042h34v-2h-34z"/><path fill="#475059" d="M63.934 94.82c-5.923 0-10.742 4.819-10.742 10.741 0 5.923 4.819 10.742 10.742 10.742 5.922 0 10.741-4.819 10.741-10.742 0-5.922-4.819-10.741-10.741-10.741zm0 23.483c-7.026 0-12.742-5.716-12.742-12.742 0-7.025 5.716-12.741 12.742-12.741 7.025 0 12.741 5.716 12.741 12.741 0 7.026-5.716 12.742-12.741 12.742z"/><path fill="#475059" d="M63.933 94.82c-2.885 0-5.323 4.919-5.323 10.741 0 5.823 2.438 10.742 5.323 10.742 2.884 0 5.322-4.919 5.322-10.742 0-5.822-2.438-10.741-5.322-10.741zm0 23.483c-4.106 0-7.323-5.597-7.323-12.742 0-7.144 3.217-12.741 7.323-12.741s7.322 5.597 7.322 12.741c0 7.145-3.216 12.742-7.322 12.742z"/><path fill="#475059" d="M52.463 107.042h23v-2h-23z"/><path fill="#48515A" d="M78.463 65.042h2v-4h-2zM78.463 75.042h2v-4h-2zM82.463 69.042h4v-2h-4zM72.463 69.042h4v-2h-4zM188.463 115.042h2v-4h-2zM188.463 125.042h2v-4h-2zM192.463 119.042h4v-2h-4zM182.463 119.042h4v-2h-4z"/><path fill="#FFD15D" d="M213.422 151.959a3 3 0 1 1-6 0 3 3 0 0 1 6 0m-174-3a2 2 0 1 1-4 0 2 2 0 0 1 4 0m116 26a2 2 0 1 1-4 0 2 2 0 0 1 4 0"/><path fill="#48515A" d="M99.221 128.27l-1.998-.078.627-16.062.826-8.416a12.175 12.175 0 0 1 7.665-9.761l8.33-2.897.658 1.888-8.298 2.886c-3.423 1.326-5.876 4.44-6.368 8.115l-.819 8.322-.623 16.003m49.661.008l-.763-16.062-.672-8.323c-.487-3.623-2.94-6.737-6.395-8.074l-8.544-2.798.623-1.9 8.594 2.815c4.185 1.619 7.12 5.345 7.71 9.743l.679 8.409.766 16.096-1.998.094"/><path fill="#FFD15D" d="M124.365 48.797c-9.303.162-16.659 7.634-16.659 16.535v21.677h11.215l-.03-2.828c-1.028-1.004-2.15-2.26-3.094-3.718-2.326-3.594-3.241-8.272-3.241-12.824v-.353h10.406l-.11-4.743c3.399 3.047 7.882 4.743 12.541 4.743h1.854v.353c0 4.57-1.122 9.209-3.474 12.798-1.554 2.371-3.704 4.241-5.043 5.33l1.912 1.242h11.014V65.071c0-9.09-7.75-16.439-17.291-16.274"/><path fill="#FFD15D" d="M130.938 86.009h9.718V65.071c0-4.007-1.606-7.792-4.523-10.658-3.108-3.055-7.294-4.707-11.751-4.616-8.643.15-15.675 7.119-15.676 15.535v20.677h9.204l-.015-1.407c-1.163-1.171-2.15-2.379-2.937-3.596-2.812-4.343-3.402-9.666-3.402-13.367v-1.353h10.382l-.14-6.03 1.721 1.543c3.228 2.893 7.445 4.487 11.874 4.487h2.854v1.353c0 5.027-1.292 9.767-3.638 13.347-1.026 1.565-2.408 3.103-4.204 4.676l.533.347zm11.718 2h-12.311l-3.31-2.151 1.064-.866c.792-.644 3.2-2.604 4.838-5.103 2.035-3.105 3.198-7.205 3.302-11.603h-.846c-4.172 0-8.178-1.276-11.492-3.627l.084 3.627h-10.422c.066 3.383.684 7.941 3.074 11.633.773 1.195 1.766 2.388 2.952 3.547l.297.29.046 4.253h-13.226V65.332c.001-9.5 7.915-17.366 17.641-17.535 5.001-.087 9.694 1.756 13.188 5.19 3.302 3.245 5.121 7.536 5.121 12.084v22.938z"/><path fill="#EAEAE9" d="M118.884 92.492l-3.529 5.484 8.378 11.388h.89l-5.739-16.872M130.615 88.433l3.7 3.638 3.535 8.011h-.882l-2.203-2.106h-.882l-3.528-5.484.26-4.059"/><path fill="#EAEAE9" d="M130.633 90.669v-6.075l-2.387 1.411a4.215 4.215 0 0 1-2.144.582h-2.661a4.193 4.193 0 0 1-2.603-.897l-1.949-1.545.001 2.391 11.743 4.133"/><path fill="#48515A" d="M125.969 87.69h-2.732c-1.199 0-2.258-.368-3.147-1.094-1.466-1.199-3.548-3.142-5.132-5.59-2.812-4.343-3.402-9.666-3.402-13.367v-.353h2v.353c0 3.431.535 8.347 3.081 12.28 1.444 2.231 3.363 4.02 4.719 5.128.522.427 1.155.643 1.881.643h2.732c.842 0 1.52-.203 2.014-.603.814-.658 3.291-2.661 4.954-5.198 2.134-3.257 3.31-7.608 3.31-12.25v-.353h2v.353c0 5.027-1.292 9.767-3.638 13.347-1.834 2.798-4.494 4.949-5.368 5.656-.86.695-1.96 1.048-3.272 1.048"/><path fill="#48515A" d="M117.883 88.643h2v-4.482h-2zM129.347 88.907h2v-4.429h-2z"/><path fill="#48515A" d="M114.073 96.975h1.808l6.847 9.941-4.844-14.259v-2.042l-2.134 2.041-2.064 4.69.387-.371zm11.938 13.389h-3.337l-7.826-11.363-2.178 2.081h-2.815l4.225-9.596 5.804-5.552v6.393l6.127 18.037z"/><path fill="#48515A" d="M131.354 90.619v2.038L126.55 106.8l6.809-9.825h1.807l.381.365-2.067-4.684-2.126-2.037zm-4.841 19.745h-3.286l6.127-18.037V85.93l5.796 5.556 4.234 9.596h-2.817L134.389 99l-7.876 11.364z"/><path fill="#5FE0ED" d="M204.674 181.005l.001-20.938c0-9.09-7.75-16.439-17.292-16.273-9.302.161-16.658 7.633-16.658 16.534v20.677h33.949"/></g></svg>