<?xml version="1.0" encoding="utf-8"?><svg xmlns="http://www.w3.org/2000/svg" xmlns:xlink="http://www.w3.org/1999/xlink" width="193" height="148" viewBox="0 0 193 148"><defs><path id="rba" d="M.026.04h123.936V148H.026z"/></defs><g fill="none" fill-rule="evenodd"><path fill="#DEDEDD" d="M109.986 73l9.309 54h34.699l1.848-49.852A4.001 4.001 0 0 0 151.844 73h-41.858M111.177 127l-9.309-54H90.12l-9.309 54h30.366M82.003 73H40.144a4 4 0 0 0-3.997 4.148L37.994 127h34.7l9.309-54"/><path fill="#475059" d="M80.993 127.936h30.002v-2H80.993zM108.041 148H83.947l-2.259-8h-2.695v-2h4.209l2.259 8h21.066l2.259-8h4.542v2H110.3l-2.259 8"/><path fill="#DEDEDD" d="M123.994 144h-6.843l-.142-.83-14.904-86.453a23.184 23.184 0 0 1-.336-3.937 16.514 16.514 0 0 1 11.927-15.813l9.208-2.631c7.671-2.192 12.113-10.188 9.921-17.859A14.446 14.446 0 0 0 118.936 6H73.053c-7.979 0-14.446 6.468-14.446 14.447a14.447 14.447 0 0 0 10.477 13.889l9.208 2.631A16.515 16.515 0 0 1 90.22 52.78c0 1.32-.113 2.637-.337 3.937L74.837 144h-7.844v-2h6.158l14.761-85.623a21.15 21.15 0 0 0 .308-3.597 14.508 14.508 0 0 0-10.477-13.89l-9.208-2.631c-8.733-2.495-13.79-11.598-11.295-20.331A16.446 16.446 0 0 1 73.053 4h45.883c9.082 0 16.445 7.363 16.445 16.446a16.446 16.446 0 0 1-11.928 15.813l-9.208 2.631a14.506 14.506 0 0 0-10.476 13.89c0 1.206.103 2.409.307 3.597L118.837 142h5.157v2"/><g transform="translate(34)"><mask id="rbb" fill="#fff"><use xlink:href="#rba"/></mask><path fill="#475059" d="M91.994 148H79.782l-.142-.83-15.476-89.773a27.068 27.068 0 0 1-.395-4.617 20.531 20.531 0 0 1 14.829-19.659l9.208-2.631A10.447 10.447 0 1 0 84.936 10H39.053c-5.769 0-10.446 4.678-10.446 10.447a10.448 10.448 0 0 0 7.576 10.043l9.208 2.631A20.532 20.532 0 0 1 60.22 52.78c0 1.548-.132 3.093-.396 4.618L44.206 148H32.993v-2h9.528l15.333-88.942a25.24 25.24 0 0 0 .366-4.278 18.523 18.523 0 0 0-13.378-17.736l-9.208-2.631A12.447 12.447 0 1 1 39.053 8h45.883c6.873 0 12.445 5.573 12.445 12.446 0 5.557-3.684 10.44-9.027 11.967l-9.208 2.631A18.522 18.522 0 0 0 65.769 52.78c0 1.433.122 2.864.366 4.277L81.468 146h10.526v2" mask="url(#rbb)"/><path fill="#475059" d="M2.026 146h29.857l2.258-8h1.641l1.736-10.064H2.026V146zm90.079 0h29.857v-18.064H86.471L88.206 138h1.642l2.257 8zm31.857 2h-33.37l-2.258-8h-1.813L72.047 56.037a19.225 19.225 0 0 1-.278-3.257 12.498 12.498 0 0 1 9.026-11.967l9.208-2.631c9.795-2.799 15.467-13.009 12.668-22.804A18.446 18.446 0 0 0 84.936 2H39.053c-10.188 0-18.446 8.259-18.446 18.447a18.446 18.446 0 0 0 13.378 17.735l9.208 2.631A12.499 12.499 0 0 1 52.22 52.78a19.332 19.332 0 0 1-.279 3.258L37.468 140h-1.814l-2.258 8H.026v-22.064h37.836l12.109-70.238a17.4 17.4 0 0 0 .249-2.918 10.49 10.49 0 0 0-7.575-10.044l-9.208-2.631c-10.858-3.102-17.145-14.419-14.043-25.276A20.446 20.446 0 0 1 39.053 0h45.883c11.291 0 20.445 9.154 20.445 20.446a20.446 20.446 0 0 1-14.829 19.659l-9.208 2.631a10.489 10.489 0 0 0-7.575 10.044c0 .977.083 1.953.249 2.917l12.108 70.239h37.836V148z" mask="url(#rbb)"/></g><path fill="#48515A" d="M184.107 134.004h2v-4h-2zM184.107 144.004h2v-4h-2zM188.107 138.004h4v-2h-4zM178.107 138.004h4v-2h-4zM125.994 53.956h2v-4h-2zM125.994 63.956h2v-4h-2zM129.994 57.956h4v-2h-4zM119.994 57.956h4v-2h-4zM6 93.98h2v-4H6zM6 103.98h2v-4H6zM10 97.98h4v-2h-4zM0 97.98h4v-2H0z"/><path fill="#5FE0ED" d="M35.953 43.03a4 4 0 1 1 0 8 4 4 0 0 1 0-8"/><path fill="#F58E70" d="M11.97 114.976a2 2 0 1 1 .001 3.999 2 2 0 0 1-.001-3.999m166.024-38a2 2 0 1 1 .001 3.999 2 2 0 0 1-.001-3.999"/><path fill="#475059" d="M147.033 94h20V73.414L159.619 66h-12.586v28zm22 2h-24V64h15.414l8.586 8.586V96z"/><path fill="#475059" d="M168.033 74h-9v-9h2v7h7v2M150.033 78h4v-2h-4zM150.033 82h14v-2h-14zM150.033 86h14v-2h-14zM150.033 90h8v-2h-8z"/><path fill="#48515A" d="M129.821 110h52.25a3 3 0 1 0 0-6h-52.25l-6.507 3 6.507 3zm52.25 2h-52.689l-10.843-5 10.843-5h52.689a5 5 0 1 1 0 10z"/><path fill="#48515A" d="M174.092 111h2v-8h-2z"/><path fill="#48515A" d="M129.994 108h45.098v-2h-45.098z"/></g></svg>