<?xml version="1.0" encoding="utf-8"?><svg xmlns="http://www.w3.org/2000/svg" width="250" height="250" viewBox="0 0 250 250"><g fill="none" fill-rule="evenodd"><path fill="#5FE0ED" d="M121.634 109.452c-11.771.217-21.079 10.22-21.079 22.138v29.023h14.191l-.038-3.786c-1.301-1.344-2.72-3.026-3.915-4.978-2.943-4.812-4.101-11.076-4.101-17.17v-.473h13.167l-.139-6.35a23.056 23.056 0 0 0 15.869 6.35h2.347v.473c0 6.119-1.42 12.33-4.396 17.135-1.967 3.174-4.688 5.678-6.381 7.136l2.418 1.663h13.938V131.24c0-12.17-9.807-22.01-21.881-21.788"/><path fill="#EAEAE9" d="M105.214 178.686h7.252l-2.301-3.389h-1.185l-3.766 3.389M138.27 178.686h-7.252l2.301-3.389h1.185l3.766 3.389M114.699 167.953l-4.465 7.343 10.601 15.248h1.126l-7.262-22.591"/><path fill="#EAEAE9" d="M129.544 162.519l4.682 4.871 4.473 10.727h-1.116l-2.788-2.821h-1.116l-4.465-7.343.33-5.434"/><path fill="#EAEAE9" d="M129.567 165.513v-8.134l-3.021 1.889a5.116 5.116 0 0 1-2.714.781h-3.367a5.133 5.133 0 0 1-3.294-1.202l-2.465-2.068.001 3.2 14.86 5.534"/><path fill="#48515A" d="M123.665 161.185h-3.457c-1.466 0-2.756-.473-3.835-1.406-1.841-1.591-4.45-4.168-6.433-7.409-3.511-5.738-4.248-12.788-4.248-17.691v-.473h2v.473c0 4.646.686 11.306 3.954 16.647 1.849 3.022 4.302 5.442 6.035 6.94.705.61 1.555.919 2.527.919h3.457c1.117 0 2.023-.291 2.694-.864 1.039-.89 4.202-3.598 6.331-7.034 2.738-4.42 4.246-10.318 4.246-16.608v-.473h2v.473c0 6.657-1.615 12.929-4.546 17.662-2.292 3.7-5.633 6.559-6.73 7.499-1.043.893-2.388 1.345-3.995 1.345"/><path fill="#48515A" d="M113.698 162.802h2v-6.001h-2zM128.204 163.155h2v-5.931h-2zM157.552 202.3l-4.976-19.059c-.669-5.043-3.992-9.316-8.673-11.15l-10.029-3.765.703-1.872 10.042 3.769c5.353 2.098 9.148 6.955 9.931 12.693l4.937 18.878-1.935.506m-69.268-.092l-1.974-.322 3.085-18.937c.759-5.735 4.563-10.621 9.921-12.721l10.008-3.773.706 1.871-9.996 3.769c-4.669 1.83-7.993 6.103-8.661 11.146l-3.089 18.967"/><path fill="#48515A" d="M108.701 174.296h2.055l9.156 13.168-6.213-19.511v-3.211l-3.174 3.212-3.231 7.764 1.407-1.422zm14.621 17.248h-3.009l-10.602-15.248h-.175l-2.789 2.82h-3.033l5.115-12.29 6.87-6.954v7.925l7.623 23.747z"/><path fill="#48515A" d="M130.214 164.745l-.048 3.514L124 187.464l9.156-13.168h2.056l1.401 1.417-3.236-7.759-3.163-3.209zm-6.614 26.799h-3.01l7.624-23.747v-7.929l6.86 6.958 5.126 12.29h-3.034l-2.789-2.82h-.176L123.6 191.544z"/><path fill="#5FE0ED" d="M188.947 135.375l.425 2.957.612-.545a23.584 23.584 0 0 0 5.133-15.89c-4.676 2.379-7.305 7.694-6.196 13.326l.026.152m.455 30.801l-.634 2.247c5.09-3.321 8.644-8.367 9.808-14.078a11.541 11.541 0 0 0-5.336 2.889c-2.318 2.205-3.675 5.257-3.822 8.594l-.016.348m-12 27.905c6.209-.041 11.738-2.121 15.863-5.922-4.839-2.288-10.762-1.007-14.502 3.481l-2.07 2.344.709.097m-18.312 15.6l-2.57 1.396.908.429a23.61 23.61 0 0 0 16.834.561c-3.736-3.89-10.022-5.049-15.172-2.386m16.926-107.894c-.865 3.058-.489 6.352 1.057 9.284l1.609 2.693.101-.273a23.584 23.584 0 0 0 .36-16.917 11.538 11.538 0 0 0-3.127 5.213"/><path fill="#48515A" d="M196.838 119.101c-7.064 1.923-11.363 8.975-9.88 16.508l.965 6.693 3.516-3.133a25.584 25.584 0 0 0 5.399-20.068zm-10.364 27.171l-1.486-10.327c-1.761-8.93 3.708-17.315 12.458-19.039l.981-.193.193.981a27.584 27.584 0 0 1-5.679 22.799l-.111.116-6.356 5.663zm14.446 5.765c-3.408.091-6.592 1.402-9.058 3.748-2.695 2.563-4.272 6.099-4.442 9.955l-.037.228-1.806 6.397c8.417-3.523 14.245-10.94 15.256-19.469.034-.284.063-.571.087-.859zm-18.37 23.686l2.877-10.189c.22-4.33 2.012-8.303 5.056-11.198 3.109-2.957 7.204-4.479 11.547-4.287l.998.044-.044.998c-.029.68-.085 1.366-.165 2.041-1.116 9.415-7.619 17.57-16.971 21.282l-3.298 1.309zm-9.83 19.736l4.55.622c7.738-.013 14.526-2.967 19.177-8.334-5.955-4.42-14.255-3.347-19.22 2.613l-4.507 5.099zm4.496 2.622h-.014l-.136-.009-8.319-1.138 6.962-7.876c5.841-7.014 15.797-8.056 22.647-2.353l.539.449-.499 1.386-.114.136c-5.053 6.065-12.535 9.405-21.066 9.405zm-20.601 15.252a25.605 25.605 0 0 0 20.836-.402c-3.866-6.242-12.446-8.562-19.28-5.026l-6.075 3.299 4.519 2.129zm9.969 4.02a27.68 27.68 0 0 1-10.766-2.185l-.037-.017-8.109-3.82 9.563-5.194c8.129-4.205 18.425-1.104 22.496 6.764l.465.9-.9.451a27.667 27.667 0 0 1-12.712 3.101zm13.392-123.952c-2.886 1.815-4.958 4.566-5.885 7.841-1.012 3.58-.568 7.426 1.25 10.831l3.779 6.326 1.503-4.119c2.767-6.797 2.517-14.337-.647-20.879zm-.417 29.632l-5.958-9.977c-2.087-3.905-2.588-8.279-1.434-12.358 1.168-4.129 3.92-7.529 7.75-9.574l.882-.471.472.882A27.586 27.586 0 0 1 182.488 115l-2.929 8.033zM162.919 104.496l-9.761-6.454 1.103-1.668 6.211 4.106-.981-9.05 1.988-.216 1.44 13.282"/><path fill="#48515A" d="M137.28 214.401l-.365-1.967c29.065-5.401 49.907-30.812 49.556-60.423-.231-19.489-9.908-37.817-25.885-49.027l1.148-1.638c16.504 11.58 26.498 30.511 26.737 50.642.362 30.585-21.167 56.834-51.191 62.413"/><path fill="#5FE0ED" d="M55.342 135.375l-.426 2.957-.611-.545a23.584 23.584 0 0 1-5.133-15.89c4.676 2.379 7.305 7.694 6.196 13.326l-.026.152m-.456 30.801l.635 2.247c-5.09-3.321-8.644-8.367-9.808-14.078a11.541 11.541 0 0 1 5.336 2.889c2.317 2.205 3.675 5.257 3.822 8.594l.015.348m12.001 27.905c-6.21-.041-11.738-2.121-15.863-5.922 4.839-2.288 10.762-1.007 14.502 3.481l2.07 2.344-.709.097m18.312 15.6l2.57 1.396-.909.429a23.608 23.608 0 0 1-16.833.561c3.736-3.89 10.021-5.049 15.172-2.386M68.273 101.787c.865 3.058.489 6.352-1.058 9.284l-1.608 2.693-.102-.273a23.594 23.594 0 0 1-.36-16.917 11.53 11.53 0 0 1 3.128 5.213m25.787-20.85c1.59 4.998-.347 10.603-5.135 13.768l-2.652 1.753.053-.476a23.582 23.582 0 0 1 7.734-15.045"/><path fill="#48515A" d="M52.85 139.169l3.516 3.133.956-6.642c1.491-7.582-2.807-14.636-9.871-16.559a25.58 25.58 0 0 0 5.399 20.068zm4.965 7.103l-6.467-5.779a27.59 27.59 0 0 1-5.68-22.799l.193-.981.982.193c8.75 1.724 14.219 10.109 12.449 19.09l-1.477 10.276zm-14.446 5.765c.024.288.053.575.087.859 1.011 8.529 6.839 15.947 15.256 19.469l-1.843-6.625c-.17-3.856-1.747-7.392-4.442-9.955-2.466-2.346-5.651-3.657-9.058-3.748zm18.37 23.685l-3.298-1.308c-9.352-3.712-15.855-11.867-16.971-21.282a28.134 28.134 0 0 1-.166-2.04l-.044-.999.999-.044c4.338-.191 8.438 1.33 11.547 4.287 3.043 2.895 4.836 6.868 5.056 11.198l2.877 10.188zm-13.897 12.025c4.65 5.367 11.44 8.32 19.177 8.334l4.549-.622-4.487-5.077c-4.984-5.981-13.283-7.054-19.239-2.635zm19.231 10.334c-8.532 0-16.013-3.34-21.067-9.405l-.113-.136-.499-1.386.539-.449c6.848-5.703 16.805-4.66 22.666 2.375l6.943 7.854-8.455 1.147h-.014zm-.235 14.85a25.613 25.613 0 0 0 20.836.402l4.519-2.129-6.093-3.309c-6.819-3.525-15.397-1.207-19.262 5.036zm10.866 4.422a27.65 27.65 0 0 1-12.711-3.101l-.9-.451.465-.9c4.071-7.868 14.364-10.97 22.479-6.773l9.58 5.203-8.146 3.837a27.68 27.68 0 0 1-10.767 2.185zM64.313 93.401a25.588 25.588 0 0 0-.66 20.845l1.516 4.153 3.802-6.368c3.594-6.733 1.538-14.731-4.658-18.63zm.417 29.632l-2.942-8.067a27.561 27.561 0 0 1 1.231-23.431l.471-.882.882.471c3.83 2.045 6.582 5.445 7.75 9.574 1.153 4.079.653 8.453-1.41 12.317l-5.982 10.018zm30.111-45.286a25.585 25.585 0 0 0-10.503 18.017l-.518 4.714 6.208-4.104c6.405-4.235 8.405-12.247 4.813-18.627zm-13.475 26.751l.984-8.952A27.582 27.582 0 0 1 94.592 75.49l.834-.551.551.834c4.918 7.439 2.79 17.221-4.846 22.269l-9.765 6.456z"/><path fill="#48515A" d="M107.009 214.401c-30.025-5.579-51.554-31.828-51.191-62.413.239-20.132 10.233-39.063 26.737-50.642l1.148 1.638c-15.977 11.21-25.654 29.538-25.885 49.027-.351 29.611 20.49 55.022 49.557 60.423l-.366 1.967"/><path fill="#5FE0ED" d="M165.181 87.923a4 4 0 1 1 8 0 4 4 0 0 1-8 0"/><path fill="#48515A" d="M143 113.061h-2v-46h12.573l-31.586-31.586-31.586 31.586H103v41h-2v-39H85.573l36.414-36.414 36.414 36.414H143v44"/><path fill="#48515A" d="M152 118.061h-2v-32h4.247l-11.608-10.446-12.616 11.446H134v13h-2v-11h-7.157l17.79-16.141 16.826 15.141H152v30M151.03 122.473c-.06 0-.13-.01-.19-.02a.697.697 0 0 1-.19-.06.538.538 0 0 1-.17-.091c-.06-.029-.11-.079-.15-.119a.986.986 0 0 1-.29-.71.986.986 0 0 1 .29-.71c.04-.04.09-.08.15-.12.05-.04.11-.07.17-.091a.73.73 0 0 1 .19-.059c.13-.03.26-.03.39 0 .06.01.13.03.19.059.06.021.12.051.17.091.05.04.11.08.15.12.09.1.17.21.22.33.05.12.07.25.07.38s-.02.26-.07.38c-.05.13-.13.23-.22.33-.04.04-.1.09-.15.119a.538.538 0 0 1-.17.091c-.06.03-.13.05-.19.06-.06.01-.13.02-.2.02m-18.01-18.01a1.009 1.009 0 0 1-.83-.45c-.03-.05-.06-.11-.09-.17l-.06-.18c-.01-.07-.02-.131-.02-.2 0-.26.11-.52.3-.71.37-.37 1.04-.37 1.41 0 .19.19.29.45.29.71 0 .069 0 .13-.02.2-.01.06-.03.119-.05.18-.03.06-.06.12-.09.17a1.014 1.014 0 0 1-.84.45m-31.02 8.08c-.27 0-.52-.11-.71-.29-.18-.19-.29-.451-.29-.71 0-.261.11-.52.29-.71.23-.23.57-.33.9-.27.07.01.13.03.19.06.06.02.12.05.17.09.06.04.11.08.16.12.18.19.29.449.29.71 0 .259-.11.52-.29.71-.05.04-.1.09-.16.12a.95.95 0 0 1-.17.1c-.06.02-.12.04-.19.05-.06.02-.13.02-.19.02m0-4.482a1 1 0 0 1-1-1v-19a1 1 0 0 1 2 0v19a1 1 0 0 1-1 1m4 8.482c-.26 0-.52-.1-.71-.29-.18-.19-.29-.44-.29-.71 0-.261.11-.52.29-.7.24-.24.58-.34.91-.28l.18.06.18.09c.05.04.1.08.15.13.19.18.29.439.29.7 0 .27-.1.52-.29.71-.05.049-.1.09-.15.13l-.18.09c-.06.02-.12.04-.18.05-.07.02-.14.02-.2.02m0-4.482a1 1 0 0 1-1-1v-19a1 1 0 0 1 2 0v19a1 1 0 0 1-1 1m6.01-7.608c-.14 0-.27-.02-.39-.07-.12-.06-.23-.13-.32-.22-.19-.19-.3-.45-.3-.71 0-.26.11-.52.3-.71a1.007 1.007 0 0 1 1.41 0c.19.19.29.45.29.71a1.007 1.007 0 0 1-.61.93c-.13.05-.25.07-.38.07m-.01-4.392a1 1 0 0 1-1-1v-9a1 1 0 0 1 2 0v9a1 1 0 0 1-1 1M213 185.061h2v-4h-2zM213 175.061h2v-4h-2zM207 179.061h4v-2h-4zM217 179.061h4v-2h-4zM158 155.061h2v-4h-2zM158 145.061h2v-4h-2zM152 149.061h4v-2h-4zM162 149.061h4v-2h-4zM117.99 103.923a1 1 0 0 1-.71-.3 1.02 1.02 0 0 1-.22-.321.98.98 0 0 1-.07-.379c0-.27.1-.53.29-.71.37-.37 1.04-.37 1.41 0a.982.982 0 0 1 0 1.41c-.18.19-.44.3-.7.3m.01-7.862a1 1 0 0 1-1-1v-24a1 1 0 0 1 2 0v24a1 1 0 0 1-1 1m-42.211 58.795l2.454.797.467-1.436a3.805 3.805 0 0 1 3.672-2.671h.002a3.805 3.805 0 0 1 3.673 2.668l.467 1.436 2.454-.798-.467-1.437c-.528-1.62.023-3.316 1.402-4.318 1.378-1.003 3.161-1.003 4.541-.002l1.222.887 1.511-2.082-1.212-.868c-1.384-1.004-1.935-2.694-1.411-4.308.525-1.618 1.967-2.663 3.674-2.663h1.51v-3h-1.511c-1.724 0-3.171-1.024-3.686-2.609-.505-1.553.05-3.198 1.414-4.189l1.198-.816-1.44-1.954-1.225.905c-1.387 1.01-3.173 1.01-4.552.008-1.376-.999-1.925-2.689-1.4-4.308l.465-1.43-2.453-.795-.467 1.439a3.807 3.807 0 0 1-3.672 2.671h-.002a3.805 3.805 0 0 1-3.673-2.667l-.467-1.436-2.454.798.467 1.437c.528 1.621-.022 3.316-1.401 4.319-1.379 1.003-3.161 1.003-4.541.001l-1.222-.886-1.516 2.088 1.222.887a3.806 3.806 0 0 1 1.405 4.318 3.804 3.804 0 0 1-3.673 2.67l-1.51.001.001 2.581 1.51-.001h.001c1.705 0 3.147 1.047 3.674 2.667a3.804 3.804 0 0 1-1.402 4.319l-1.221.889 1.471 2.023 1.222-.888c1.378-1.003 3.161-1.003 4.541-.001 1.379 1.001 1.93 2.697 1.404 4.318l-.466 1.436zm3.739 3.317l-6.259-2.032 1.083-3.339c.309-.949-.147-1.698-.677-2.082-.529-.384-1.383-.585-2.19 0l-2.839 2.065-3.823-5.258 2.839-2.065c.807-.587.878-1.46.676-2.082-.202-.622-.774-1.287-1.772-1.287l-3.51.001-.003-6.58 3.51-.002c.999 0 1.57-.665 1.772-1.288.202-.622.129-1.495-.678-2.082l-2.841-2.062 3.866-5.325 2.84 2.062c.807.585 1.661.384 2.19-.001.53-.385.985-1.134.676-2.082l-1.086-3.339 6.258-2.036 1.086 3.338c.309.948 1.117 1.286 1.771 1.286h.001c.654 0 1.463-.339 1.771-1.288l1.083-3.34 6.261 2.027-1.085 3.334c-.306.944.146 1.69.673 2.072.529.386 1.385.585 2.195-.003l2.83-2.091 3.858 5.238-2.889 1.966c-.644.469-.901 1.2-.662 1.936.193.593.763 1.227 1.784 1.227h3.51l.002 7h-3.511c-1 0-1.571.661-1.772 1.281-.2.616-.127 1.483.679 2.068l2.844 2.036-3.87 5.33-2.84-2.063c-.808-.586-1.661-.384-2.19.001-.529.385-.985 1.134-.676 2.083l1.085 3.338-6.257 2.036-1.086-3.339c-.309-.948-1.117-1.286-1.772-1.286-.654 0-1.463.339-1.771 1.288l-1.084 3.339z"/><path fill="#F58E70" d="M82.405 137.018a1.735 1.735 0 0 0-1.418.722c-.274.378-.384.84-.31 1.301a1.746 1.746 0 1 0 1.728-2.023zm-.009 5.492c-.762 0-1.53-.231-2.193-.711a3.72 3.72 0 0 1-1.501-2.443 3.718 3.718 0 0 1 .666-2.789 3.715 3.715 0 0 1 2.442-1.501 3.719 3.719 0 0 1 2.789.666 3.751 3.751 0 0 1 .836 5.231 3.745 3.745 0 0 1-3.039 1.547z"/><path fill="#48515A" d="M80.19 128.353a1.002 1.002 0 1 1 1.11.88h-.11c-.5 0-.94-.37-1-.88zm4.63 1.12a.996.996 0 0 1-.72-1.22c.14-.53.69-.86 1.22-.721.54.141.86.691.72 1.221a1.012 1.012 0 0 1-1.22.72zm-8.24.37a1 1 0 0 1 .42-1.35c.49-.25 1.09-.06 1.35.42.26.49.07 1.1-.42 1.35a.987.987 0 0 1-1.35-.42zm11.45 1.15l-.02-.02a.995.995 0 0 1-.23-1.39c.32-.45.95-.551 1.4-.23l.01.01c.01 0 .01.01.02.01.44.32.54.95.22 1.4a1 1 0 0 1-.81.41c-.21 0-.41-.06-.59-.19zm-14.27 1.559a.997.997 0 0 1-.1-1.409c.36-.42.99-.46 1.41-.1.41.37.46 1 .1 1.41-.2.23-.48.349-.76.349a.961.961 0 0 1-.65-.25zm16.7.991a.993.993 0 0 1 .3-1.38c.46-.3 1.08-.16 1.38.3.3.46.17 1.08-.3 1.38-.16.11-.35.16-.54.16-.33 0-.65-.16-.84-.46zm-18.37 2.55a.998.998 0 0 1-.6-1.28c.19-.52.76-.79 1.28-.6.52.19.79.76.6 1.28-.14.41-.53.66-.94.66-.11 0-.22-.02-.34-.06zm19.71.72a.988.988 0 0 1 .77-1.18c.54-.12 1.07.23 1.19.77.11.54-.24 1.07-.78 1.18-.07.02-.14.03-.2.03-.47 0-.88-.331-.98-.8zm-21 2.2c-.01-.55.43-1.01.98-1.02.55-.01 1.01.43 1.02.98a.988.988 0 0 1-.97 1.02h-.03c-.54 0-.98-.43-1-.98zm21.89 2.47a.999.999 0 1 1 1.15-.82c-.08.49-.5.84-.98.84-.06 0-.11-.01-.17-.02zm-21.01 1.7a.993.993 0 0 1 .54-1.3c.51-.21 1.1.03 1.31.54.21.51-.04 1.1-.55 1.31-.12.049-.25.069-.38.069a.991.991 0 0 1-.92-.619zm19.34 1.83a.99.99 0 0 1-.36-1.36c.29-.48.9-.64 1.37-.36a1 1 0 0 1 .35 1.38.99.99 0 0 1-.86.49c-.17 0-.34-.05-.5-.15zM74 146.763c-.38-.4-.37-1.04.03-1.41a1 1 0 0 1 1.42.03c.37.399.36 1.03-.04 1.41-.19.19-.44.28-.69.28-.26 0-.53-.11-.72-.31zm14.18.95c-.35-.44-.27-1.07.16-1.411.44-.339 1.06-.27 1.41.171a.992.992 0 0 1-.17 1.4c-.18.15-.4.22-.62.22-.29 0-.58-.13-.78-.38zm-10.73 1.54c-.5-.23-.71-.83-.48-1.33.24-.5.84-.71 1.34-.47v-.01c.49.24.71.839.47 1.339a.996.996 0 0 1-.9.571c-.15 0-.29-.03-.43-.1zm7.11-.06a.997.997 0 0 1 .66-1.25.99.99 0 0 1 1.25.66c.16.53-.14 1.09-.66 1.25-.1.03-.2.04-.3.04-.43 0-.82-.27-.95-.7zm-2.99 1.14a.997.997 0 0 1-.92-1.07.982.982 0 0 1 1.06-.92c.56.04.97.51.93 1.06-.04.53-.48.93-1 .93h-.07zM35 185.061h2v-4h-2zM35 175.061h2v-4h-2zM29 179.061h4v-2h-4zM39 179.061h4v-2h-4zM42 106.061h2v-4h-2zM42 96.061h2v-4h-2zM36 100.061h4v-2h-4zM46 100.061h4v-2h-4z"/></g></svg>