<?xml version="1.0" encoding="utf-8"?><svg xmlns="http://www.w3.org/2000/svg" width="250" height="250" viewBox="0 0 250 250"><g fill="none" fill-rule="evenodd"><path fill="#DEDEDD" d="M100.999 69.251h4v-10h-4v10zm-8 0h4v-10h-4v10zm-8 0h4v-10h-4v10zm-8 0h4v-10h-4v10zm-12.997 27h53.997V56.25H64.002v40.001z"/><path fill="#DEDEDD" d="M120.999 99.25H109v6h-8v3.999H81v-3.999h-8v-6H61.001v-46h59.998v46zm-66.998 18H128v-72.5H54.001v72.5z"/><path fill="#475059" d="M77.999 68.251h2v-8h-2v8zm-2 2h6v-12h-6v12zm10-2h2v-8h-2v8zm-2 2h6v-12h-6v12zm10-2h2v-8h-2v8zm-2 2h6v-12h-6v12zm10-2h2v-8h-2v8zm-2 2h6v-12h-6v12z"/><path fill="#475059" d="M82 108.249h18v-3.999h8v-6h11.999v-44H62.001v44H74v6h8v3.999zm20 2H80v-3.999h-8v-6H60.001v-48h61.998v48H110v6h-8v3.999z"/><path fill="#DEDEDD" d="M168.002 213.25h9.996v-54.001h-9.996z"/><path fill="#475059" d="M181.999 213.25h-2v-53h-13.998v53h-2v-55h17.998v55"/><path fill="#DEDEDD" d="M183.047 68.227h4v-10h-4v10zm-8 0h4v-10h-4v10zm-8 0h4v-10h-4v10zm-8 0h4v-10h-4v10zm-8.995 28.024h45.993V55.242h-45.993v41.009z"/><path fill="#FFF" d="M179.999 93.248h-13.998v-8.999h-10V73.25H160v8.001h10v8.999h6v-8.999h10V73.25h3.999v10.999h-10v8.999"/><path fill="#475059" d="M160.047 67.227h2v-8h-2v8zm-2 2h6v-12h-6v12zm10-2h2v-8h-2v8zm-2 2h6v-12h-6v12zm10-2h2v-8h-2v8zm-2 2h6v-12h-6v12zm10-2h2v-8h-2v8zm-2 2h6v-12h-6v12z"/><path fill="#475059" d="M148.052 98.243h49.992V54.242a1 1 0 0 0-1-1h-9.998v-6H159.05v6h-9.998a1 1 0 0 0-1 1v44.001zm51.992 2h-53.992V54.242c0-1.654 1.345-3 3-3h7.998v-6h31.996v6h7.998c1.654 0 3 1.346 3 3v46.001z"/><path fill="#FFD15D" d="M199 160.251h-52a4 4 0 0 1-4-4V98.249h60v58.002a4 4 0 0 1-4 4"/><path fill="#475059" d="M158 100.25v11c0 8.271 6.729 15 15 15s15-6.729 15-15v-11h-30zm15 28c-9.374 0-17-7.626-17-17v-13h34v13c0 9.374-7.626 17-17 17zM161.001 53.251h23.998v-2h-23.998zM152 148.25h42v-14h-42v14zm-2 2h46v-18h-46v18zM180 94.25h-14v-8.999h-10V73.25h2v10.001h10v8.999h10v-8.999h10V73.25h2v12.001h-10v8.999"/><path fill="#48515A" d="M35 149.25h2v-4h-2zM35 159.25h2v-4h-2zM39 153.25h4v-2h-4zM29 153.25h4v-2h-4zM213 177.25h2v-4h-2zM213 187.25h2v-4h-2zM217 181.25h4v-2h-4zM207 181.25h4v-2h-4z"/><path fill="#FFD15D" d="M143 39.688a2.437 2.437 0 1 1-4.874 0 2.437 2.437 0 0 1 4.874 0"/><path fill="#FFD15D" d="M140.563 37.75a1.94 1.94 0 0 0-1.938 1.938 1.94 1.94 0 0 0 1.938 1.937 1.94 1.94 0 0 0 1.937-1.937 1.94 1.94 0 0 0-1.937-1.938zm0 4.875a2.94 2.94 0 0 1-2.938-2.937 2.94 2.94 0 0 1 2.938-2.938 2.94 2.94 0 0 1 2.937 2.938 2.94 2.94 0 0 1-2.937 2.937z"/><path fill="#5FE0ED" d="M111.875 139.688a2.437 2.437 0 1 1-4.874 0 2.437 2.437 0 0 1 4.874 0M41 66.812a2.437 2.437 0 1 1-4.875.001A2.437 2.437 0 0 1 41 66.812"/><path fill="#DEDEDD" d="M153 187.25a2 2 0 1 1-3.999.001 2 2 0 0 1 3.999-.001m-18 14a2 2 0 1 1-3.999.001 2 2 0 0 1 3.999-.001"/><path fill="#48515A" d="M76 158.25h6v-6.605l-1.516-1.395H76v8zm8 2H74v-12h7.266L84 150.768v9.482zM52 143.25h-2v-7.001h-1v-2h3v9.001"/><path fill="#48515A" d="M49 144.25h4v-2h-4zM125 130.249a1 1 0 0 0-1 1v4.001a1 1 0 0 0 2 0v-4.001a1 1 0 0 0-1-1zm0 8.001c-1.654 0-3-1.346-3-3v-4.001c0-1.654 1.346-3 3-3s3 1.346 3 3v4.001c0 1.654-1.346 3-3 3zm-16 30a1 1 0 0 0-1 1v4.001a1 1 0 0 0 2 0v-4.001a1 1 0 0 0-1-1zm0 8.001c-1.654 0-3-1.346-3-3v-4.001c0-1.654 1.346-3 3-3s3 1.346 3 3v4.001c0 1.654-1.346 3-3 3z"/></g></svg>