<?xml version="1.0" encoding="utf-8"?><svg xmlns="http://www.w3.org/2000/svg" width="250" height="250" viewBox="0 0 250 250"><g fill="none" fill-rule="evenodd"><path fill="#FFD15D" d="M117.008 194.423a4.125 4.125 0 0 0-4.125-4.125h-62v-14.577h-6v17.952h4.5v.75h67.625"/><path fill="#475059" d="M121.878 197.673h-2v-3.01c.009-3.862-3.124-7.01-6.984-7.018l-62.999-.159.005-2 62.999.159c4.962.01 8.99 4.057 8.979 9.02v3.008"/><path fill="#475059" d="M117.883 194.574h-2c0-1.654-1.346-3-3-3h-63v-2h63c2.756 0 5 2.243 5 5"/><path fill="#475059" d="M125.883 194.663h-2c0-6.065-4.935-11-11-11H49.869v-15.952h63.014c7.168 0 13 5.832 13 13h-2c0-6.065-4.935-11-11-11H51.869v11.952h61.014c7.168 0 13 5.832 13 13"/><path fill="#475059" d="M123.883 194.663h2v-13.952h-2z"/><path fill="#475059" d="M124.879 199.063a11.254 11.254 0 0 1-8.175-3.489H43.88l.003-20.863h7v2h-5l-.003 16.863h71.72l.299.343a9.224 9.224 0 0 0 5.984 3.093v-3.337h2v5.39h-1.004"/><path fill="#FFD15D" d="M132.803 194.423a4.125 4.125 0 0 1 4.125-4.125h62v-14.577h6v17.952h-4.5v.75h-67.625"/><path fill="#475059" d="M129.933 197.673h-2v-3.01a8.936 8.936 0 0 1 2.624-6.365 8.932 8.932 0 0 1 6.356-2.653l62.998-.159.006 2-62.999.159a6.95 6.95 0 0 0-4.944 2.064 6.952 6.952 0 0 0-2.041 4.952v3.012"/><path fill="#475059" d="M133.928 194.574h-2c0-2.757 2.244-5 5-5h62.999v2h-62.999c-1.654 0-3 1.346-3 3"/><path fill="#475059" d="M125.928 194.663h-2c0-7.168 5.832-13 13-13h61.014v-11.952h-61.014c-6.065 0-11 4.935-11 11h-2c0-7.168 5.832-13 13-13h63.014v15.952h-63.014c-6.065 0-11 4.935-11 11"/><path fill="#475059" d="M123.928 194.663h2v-13.952h-2z"/><path fill="#475059" d="M124.932 199.063h-1.004v-5.39h2v3.337a9.208 9.208 0 0 0 5.983-3.093l.299-.343h71.72l-.002-16.863h-5v-2h7l.002 20.863h-72.823a11.252 11.252 0 0 1-8.175 3.489"/><path fill="#FFD15D" d="M117.008 194.423a4.125 4.125 0 0 0-4.125-4.125h-62v-14.577h-6v17.952h4.5v.75h67.625"/><path fill="#475059" d="M121.878 197.673h-2v-3.01c.009-3.862-3.124-7.01-6.984-7.018l-62.999-.159.005-2 62.999.159c4.962.01 8.99 4.057 8.979 9.02v3.008"/><path fill="#475059" d="M117.883 194.574h-2c0-1.654-1.346-3-3-3h-63v-2h63c2.756 0 5 2.243 5 5"/><path fill="#475059" d="M125.883 194.663h-2c0-6.065-4.935-11-11-11H49.869v-15.952h63.014c7.168 0 13 5.832 13 13h-2c0-6.065-4.935-11-11-11H51.869v11.952h61.014c7.168 0 13 5.832 13 13"/><path fill="#475059" d="M123.883 194.663h2v-13.952h-2z"/><path fill="#475059" d="M124.879 199.063a11.254 11.254 0 0 1-8.175-3.489H43.88l.003-20.863h7v2h-5l-.003 16.863h71.72l.299.343a9.224 9.224 0 0 0 5.984 3.093v-3.337h2v5.39h-1.004"/><path fill="#FFD15D" d="M132.803 194.423a4.125 4.125 0 0 1 4.125-4.125h62v-14.577h6v17.952h-4.5v.75h-67.625"/><path fill="#475059" d="M129.933 197.673h-2v-3.01a8.936 8.936 0 0 1 2.624-6.365 8.932 8.932 0 0 1 6.356-2.653l62.998-.159.006 2-62.999.159a6.95 6.95 0 0 0-4.944 2.064 6.952 6.952 0 0 0-2.041 4.952v3.012"/><path fill="#475059" d="M133.928 194.574h-2c0-2.757 2.244-5 5-5h62.999v2h-62.999c-1.654 0-3 1.346-3 3"/><path fill="#475059" d="M125.928 194.663h-2c0-7.168 5.832-13 13-13h61.014v-11.952h-61.014c-6.065 0-11 4.935-11 11h-2c0-7.168 5.832-13 13-13h63.014v15.952h-63.014c-6.065 0-11 4.935-11 11"/><path fill="#475059" d="M123.928 194.663h2v-13.952h-2z"/><path fill="#475059" d="M124.932 199.063h-1.004v-5.39h2v3.337a9.208 9.208 0 0 0 5.983-3.093l.299-.343h71.72l-.002-16.863h-5v-2h7l.002 20.863h-72.823a11.252 11.252 0 0 1-8.175 3.489M89.096 82.438a2.22 2.22 0 0 0-2.219 2.219c0 1.223.995 2.219 2.219 2.219a2.222 2.222 0 0 0 2.219-2.219 2.22 2.22 0 0 0-2.219-2.219zm0 6.438a4.224 4.224 0 0 1-4.219-4.219 4.224 4.224 0 0 1 4.219-4.219 4.224 4.224 0 0 1 4.219 4.219 4.224 4.224 0 0 1-4.219 4.219z"/><path fill="#475059" d="M88.002 81.438h2v-1h-2zM107.993 52.966c-.337-.019-.696-.019-1.016-.029-.291 0-.58.008-.866.023l-.103-1.997a19.26 19.26 0 0 1 2.098.006l-.113 1.997zm-5.586.599l-.54-1.926c.671-.188 1.361-.34 2.053-.453l.322 1.974c-.618.101-1.236.237-1.835.405zm9.286.028a17.005 17.005 0 0 0-1.833-.417l.334-1.971c.69.116 1.38.273 2.049.465l-.55 1.923zm-12.764 1.38l-.951-1.76a19.333 19.333 0 0 1 1.9-.895l.75 1.855c-.577.233-1.149.502-1.699.8zm16.234.048a16.783 16.783 0 0 0-1.696-.811l.762-1.85a19.24 19.24 0 0 1 1.895.907l-.961 1.754zM95.845 57.11l-1.313-1.508a18.792 18.792 0 0 1 1.657-1.289l1.139 1.643c-.513.356-1.012.744-1.483 1.154zm22.392.068a17.434 17.434 0 0 0-1.478-1.163l1.149-1.637c.569.399 1.124.836 1.65 1.299l-1.321 1.501zM93.3 59.872l-1.61-1.186c.413-.561.862-1.106 1.335-1.62l1.471 1.355c-.423.46-.825.948-1.196 1.451zm27.464.084a17.07 17.07 0 0 0-1.187-1.458l1.478-1.347c.469.514.915 1.062 1.327 1.628l-1.618 1.177zm-29.342 3.168l-1.832-.803c.28-.639.599-1.27.948-1.875l1.733 1a17.13 17.13 0 0 0-.849 1.678zm31.198.091a16.971 16.971 0 0 0-.837-1.681l1.737-.99c.345.605.66 1.237.937 1.879l-1.837.792zm-32.312 3.492l-1.964-.378c.132-.684.304-1.369.511-2.038l1.91.593c-.186.597-.34 1.211-.457 1.823zm33.406.097a17.277 17.277 0 0 0-.446-1.825l1.913-.582c.203.667.371 1.354.499 2.041l-1.966.366zm-33.712 3.675h-2v-.541c0-.515.02-1.024.06-1.528l1.994.159a17.23 17.23 0 0 0-.054 1.369v.541zm36 .106h-2v-.647c.001-.428-.015-.851-.046-1.269l1.994-.148c.035.469.053.942.052 1.418v.646zm-38 3.878h2v-1.992h-2v1.992zm36 .106h2v-1.992h-2v1.992zm-36 3.878h2v-1.992h-2v1.992zm36 .106h2v-1.992h-2v1.992zm0 3.983h2v-1.992h-2v1.992zm0 3.983h2v-1.992h-2v1.992zm0 3.984h2v-1.992h-2v1.992zm0 3.984h2v-1.992h-2v1.992zm0 3.983h2v-1.992h-2v1.992zm0 3.984h2v-1.993h-2v1.993zm0 3.983h2v-1.992h-2v1.992zm0 3.983h2v-1.991h-2v1.991zm0 3.984h2v-1.992h-2v1.992zm0 3.984h2v-1.992h-2v1.992zm0 3.983h2v-1.992h-2v1.992zm0 3.983h2v-1.991h-2v1.991zm0 3.984h2v-1.991h-2v1.991zm0 3.983h2v-1.991h-2v1.991zm0 3.984h2v-1.992h-2v1.992zm0 3.984h2v-1.992h-2v1.992zm0 3.983h2v-1.992h-2v1.992zm0 3.984h2v-1.992h-2v1.992zm0 3.983h2v-1.992h-2v1.992zm0 3.984v-1.993h2v1.958l-2 .035zm37.78 2.862l-1.977-.303c.094-.615.156-1.244.181-1.87l1.998.082a18.97 18.97 0 0 1-.202 2.091zm-37.313 1.308a18.997 18.997 0 0 1-.349-2.073l1.988-.22c.069.621.174 1.244.312 1.851l-1.951.442zm36.222 2.743l-1.861-.731c.228-.584.427-1.184.589-1.785l1.931.52a19.02 19.02 0 0 1-.659 1.996zm-34.847 1.223a19.019 19.019 0 0 1-.799-1.946l1.889-.654c.205.589.446 1.174.715 1.737l-1.805.863zm32.889 2.487l-1.654-1.123c.351-.519.678-1.06.969-1.611l1.767.934a18.693 18.693 0 0 1-1.082 1.8zm-30.676 1.076a19.756 19.756 0 0 1-1.205-1.72l1.7-1.056c.328.528.691 1.046 1.08 1.542l-1.575 1.234zm27.953 2.114l-1.37-1.457c.458-.431.895-.889 1.298-1.361l1.522 1.299a19.218 19.218 0 0 1-1.45 1.519zm-25.011.88a18.704 18.704 0 0 1-1.554-1.416l1.428-1.4c.439.447.906.873 1.387 1.265l-1.261 1.551zm21.656 1.64l-1.018-1.721c.541-.32 1.068-.672 1.563-1.045l1.203 1.598c-.555.418-1.143.81-1.748 1.168zm-18.136.638a18.928 18.928 0 0 1-1.824-1.042l1.086-1.679c.525.34 1.075.654 1.633.932l-.895 1.789zm14.308 1.083l-.611-1.904c.59-.189 1.181-.417 1.754-.675l.821 1.824c-.642.289-1.302.542-1.964.755zm-10.369.364a18.789 18.789 0 0 1-2.01-.615l.689-1.877c.586.215 1.191.4 1.797.548l-.476 1.944zm6.256.47l-.178-1.992a16.81 16.81 0 0 0 1.859-.27l.399 1.961c-.681.137-1.38.239-2.08.301zm-2.098.073a19.358 19.358 0 0 1-2.093-.158l.258-1.982c.615.08 1.246.127 1.876.14l-.041 2zM160.002 156.888h2v-1h-2zM89.002 106.509c-9.374 0-17 7.626-17 17 0 9.374 7.626 17 17 17 9.374 0 17-7.626 17-17 0-9.374-7.626-17-17-17zm0 36c-10.477 0-19-8.524-19-19 0-10.477 8.523-19 19-19 10.476 0 19 8.523 19 19 0 10.476-8.524 19-19 19zM88.002 101.062h2v-4h-2z"/><path fill="#475059" d="M84.152 148.386c.269.08.554.123.85.123l4.796-.013a25.81 25.81 0 0 0 1.966-.135c11.961-1.28 21.063-10.555 22.135-22.555.942-10.552-4.625-20.31-14.184-24.859l-.471-.224-1.946-11.702H80.706l-1.947 11.702-.471.224c-8.678 4.131-14.286 12.986-14.286 22.562 0 10.471 6.555 19.786 16.202 23.409a5.006 5.006 0 0 1 4.798-6.409h4v2h-4a3 3 0 1 0-1.557 5.563l.707.314zm.85 2.123a4.962 4.962 0 0 1-2.469-.654l-.692-.307c-11.685-3.205-19.839-13.902-19.839-26.039 0-10.168 5.853-19.584 14.955-24.137l2.054-12.351h19.981l2.055 12.351c10.032 5.005 15.846 15.392 14.844 26.611-1.157 12.964-10.992 22.984-23.915 24.367-.713.076-1.43.125-2.132.146l-.827.013h-4.015z"/><path fill="#475059" d="M89.002 106.509H77.001v-7.32h2v5.32h10.001v2M89.002 94.062a1.001 1.001 0 0 0 0 2c.551 0 1-.449 1-1 0-.551-.449-1-1-1zm0 4c-1.655 0-3-1.346-3-3s1.345-3 3-3c1.654 0 3 1.346 3 3s-1.346 3-3 3z"/><path fill="#DFE0E0" d="M111.907 125.628c-.986 11.037-9.356 19.567-20.354 20.744-.612.066-1.228.107-1.787.124l-4.764.013a.924.924 0 0 1-.191-.019l-.408-.18a1 1 0 0 1 .599-1.801h4c11.579 0 21-9.421 21-21s-9.421-21-21-21h-8.001v-3.07l1.4-8.419h3.681c-1.254.91-2.08 2.377-2.08 4.041 0 1.628.793 3.061 2 3.975v2.026h6v-2.026c1.207-.914 2-2.347 2-3.975 0-1.664-.826-3.131-2.081-4.041h3.681l1.84 11.061 1.413.673c8.795 4.185 13.919 13.164 13.052 22.874zm-45.905-2.119c0-7.17 3.42-13.901 8.999-18.206v2.599c-4.284 3.847-6.999 9.409-6.999 15.607 0 7.955 4.447 14.892 10.986 18.454a6.954 6.954 0 0 0-.782 1.863c-7.375-3.927-12.204-11.694-12.204-20.317z"/><path fill="#475059" d="M161.045 97.02c-9.374 0-17 7.627-17 17.001 0 9.374 7.626 17 17 17 9.374 0 17-7.627 17-17.001 0-9.374-7.626-17-17-17zm0 36.001c-10.477 0-19-8.524-19-19 0-10.477 8.523-19.001 19-19.001 10.476 0 19 8.523 19 19s-8.524 19.001-19 19.001zM160.045 140.468h2v-4h-2z"/><path fill="#475059" d="M152.75 148.509h16.591l1.947-11.703.471-.225c8.678-4.129 14.286-12.985 14.286-22.561 0-10.472-6.555-19.786-16.202-23.409a5.004 5.004 0 0 1-4.798 6.409h-4v-2h4c1.654 0 3-1.346 3-3a3.003 3.003 0 0 0-1.443-2.564l-.709-.314a3.002 3.002 0 0 0-.848-.122l-4.796.013a26.09 26.09 0 0 0-1.965.135c-11.962 1.281-21.065 10.556-22.136 22.556-.942 10.551 4.625 20.309 14.184 24.857l.47.225 1.948 11.703zm18.286 2h-19.982l-2.053-12.352c-10.034-5.005-15.847-15.392-14.845-26.611 1.157-12.963 10.991-22.983 23.915-24.366.71-.076 1.428-.126 2.132-.147l.826-.013h4.016c.897 0 1.74.238 2.468.653l.693.307c11.684 3.206 19.839 13.903 19.839 26.04 0 10.168-5.853 19.584-14.954 24.137l-2.055 12.352z"/><path fill="#475059" d="M173.046 138.34h-2v-5.319h-10.001v-2h12.001v7.319M161.045 141.468a1 1 0 1 0 0 2 1 1 0 0 0 0-2zm0 4c-1.655 0-3-1.346-3-3 0-1.655 1.345-3 3-3 1.654 0 3 1.345 3 3 0 1.654-1.346 3-3 3z"/><path fill="#DFE0E0" d="M138.14 111.901c.986-11.037 9.356-19.567 20.353-20.744a24.222 24.222 0 0 1 1.787-.124l4.765-.013c.065 0 .129.006.19.019l.408.18a1 1 0 0 1-.598 1.801h-4c-11.579 0-21 9.421-21 21.001 0 11.579 9.421 21 21 21h8.001v3.069l-1.4 8.419h-3.682a4.985 4.985 0 0 0 2.081-4.041c0-1.627-.793-3.061-2-3.975v-2.025h-6v2.025c-1.207.914-2 2.348-2 3.975 0 1.664.826 3.132 2.081 4.041h-3.682l-1.839-11.061-1.414-.673c-8.794-4.185-13.919-13.164-13.051-22.874zm45.905 2.119c0 7.17-3.42 13.901-8.999 18.207v-2.6c4.284-3.847 6.999-9.409 6.999-15.607 0-7.955-4.448-14.892-10.987-18.454a6.975 6.975 0 0 0 .783-1.863c7.375 3.927 12.204 11.694 12.204 20.317z"/><path fill="#475059" d="M161.108 150.45a2.222 2.222 0 0 0-2.219 2.219c0 1.224.996 2.219 2.219 2.219a2.22 2.22 0 0 0 2.219-2.219 2.22 2.22 0 0 0-2.219-2.219zm0 6.438a4.224 4.224 0 0 1-4.219-4.219 4.224 4.224 0 0 1 4.219-4.219 4.224 4.224 0 0 1 4.219 4.219 4.224 4.224 0 0 1-4.219 4.219z"/><path fill="#48515A" d="M34.984 148.099h2v-4h-2zM34.984 158.099h2v-4h-2zM38.984 152.099h4v-2h-4zM28.984 152.099h4v-2h-4zM203.965 85.949h2v-4h-2zM203.965 95.949h2v-4h-2zM207.965 89.949h4v-2h-4zM197.965 89.949h4v-2h-4z"/><path fill="#DFE0E0" d="M137.002 144.063a2 2 0 1 1-4.001-.001 2 2 0 0 1 4.001.001m-44 17a1 1 0 1 1 1.998-.002 1 1 0 0 1-1.998.002m-22-66.997a2 2 0 1 1-4 0 2 2 0 0 1 4 0"/><path fill="#48515A" d="M205.016 161.108h14v-2h-14v2zm-2 2h18v-6h-18v6zm5.574-14h8.096v-2h-1.945v-12h1.945v-2h-8.096v2h2.096v12h-2.096v2zm10.096 2H206.59v-6h2.096v-8h-2.096v-6h12.096v6h-1.945v8h1.945v6z"/><path fill="#48515A" d="M215.741 137.108h-6.055a1 1 0 1 1 0-2h6.055a1 1 0 1 1 0 2m0 10h-6.055a1 1 0 1 1 0-2h6.055a1 1 0 1 1 0 2m-6.724-5h-20a1 1 0 1 1 0-2h20a1 1 0 1 1 0 2"/><path fill="#475059" d="M37.006 77.192v.118c0 .799.312 1.551.877 2.116a2.974 2.974 0 0 0 2.113.874h.006l.729-.001a2.996 2.996 0 0 0 2.985-2.991v-.116l-3.355-9.373-3.355 9.373zm2.99 5.108a4.955 4.955 0 0 1-3.525-1.459 4.955 4.955 0 0 1-1.465-3.531v-.465l5.355-14.962 5.355 14.962v.463a4.999 4.999 0 0 1-4.982 4.991l-.729.001h-.009z"/><path fill="#475059" d="M36.012 78.019h8.703v-2h-8.703zM51.048 63.712l-3.367-3.792H35.005v-2h13.576l2.467 2.78 2.466-2.78h13.491v2H54.414l-3.366 3.792M47.072 90.018h-2V87.67l3.003-3.002V66.695h2v18.801l-3.003 3.002v1.52M56.944 90.018h-2v-1.523l-2.998-2.999-.001-18.801h2l.001 17.973 2.998 2.999v2.351"/><path fill="#475059" d="M47.619 63.824h6.782v-2h-6.782zM58.3 77.175a2.97 2.97 0 0 0 .874 1.961 2.966 2.966 0 0 0 2.112.874h.006l.729-.001a2.995 2.995 0 0 0 2.981-2.834l-3.351-9.683-3.351 9.683zm2.986 4.835a4.955 4.955 0 0 1-3.525-1.458 4.957 4.957 0 0 1-1.465-3.532v-.168l5.355-15.476 5.355 15.475v.168a4.998 4.998 0 0 1-4.981 4.99l-.73.001h-.009z"/><path fill="#475059" d="M57.303 78.019h8.704v-2h-8.704zM47.619 67.695h6.782v-2h-6.782zM49.075 86.082h3.871v-2h-3.871z"/></g></svg>