<?xml version="1.0" encoding="utf-8"?><svg xmlns="http://www.w3.org/2000/svg" width="250" height="250" viewBox="0 0 250 250"><g fill="none" fill-rule="evenodd"><path fill="#DBDBD5" d="M138.76 101.874c-2.787 8.051 2.433 16.393 10.458 17.801a13.48 13.48 0 0 1 .54-6.794S165 76.911 165 65.911c0-9.736-5.57-18.167-13.694-22.295a24.887 24.887 0 0 1 2.696 11.289c0 11-15.242 46.969-15.242 46.969M180.002 130.911v10.994H91v11.006h100v-12h6v-10h-16.998"/><path fill="#434A4F" d="M75.002 128.905h110v-8h-33.403c-4.779 0-9.11-2.233-11.882-6.126-2.772-3.893-3.465-8.716-1.902-13.232.175-.421 15.187-35.97 15.187-46.642 0-13.234-10.767-24-24-24s-24 10.766-24 24c0 10.911 15.517 46.21 15.674 46.565 1.593 4.593.899 9.416-1.872 13.309-2.773 3.893-7.104 6.126-11.882 6.126h-31.92v8zm112 2h-114v-12h33.92c4.123 0 7.86-1.927 10.252-5.286 2.392-3.359 2.991-7.521 1.642-11.418-.617-1.389-15.814-35.966-15.814-47.296 0-14.337 11.663-26 26-26s26 11.663 26 26c0 11.075-14.696 45.883-15.321 47.359-1.325 3.834-.727 7.996 1.666 11.355 2.391 3.359 6.129 5.286 10.252 5.286h35.403v12z"/><path fill="#434A4F" d="M181.002 142.905h-102v-13h2v11h98v-11h2v13"/><path fill="#75C7D0" d="M83.001 138.905h94.001v-6H83.001z"/><path fill="#434A4F" d="M107.999 55.912a1 1 0 0 1-1-1c0-12.131 9.869-22 22-22a1 1 0 1 1 0 2c-11.028 0-20 8.972-20 20a1 1 0 0 1-1 1"/><path fill="#434A4F" d="M129.95 34.939v-.01a.99.99 0 0 1-.95-1.04.99.99 0 0 1 1.04-.95c.55.02.981.49.96 1.04-.029.54-.47.96-1 .96h-.05zm3.76.53a1.003 1.003 0 0 1-.729-1.21c.129-.53.669-.86 1.21-.73h-.01a1 1 0 0 1 .739 1.21 1.002 1.002 0 0 1-1.21.73zm3.601 1.24v.01a1.003 1.003 0 0 1-.5-1.33c.229-.5.83-.72 1.33-.49.5.23.719.82.489 1.32-.17.37-.529.59-.909.59a.882.882 0 0 1-.41-.1zm3.29 1.91a1.007 1.007 0 0 1-.241-1.4c.331-.45.951-.55 1.4-.23.45.32.551.95.23 1.4-.19.27-.5.41-.809.41-.2 0-.401-.06-.58-.18zm2.87 2.49a.995.995 0 0 1 .039-1.41.997.997 0 1 1 1.381 1.44 1.003 1.003 0 0 1-1.42-.03zm2.359 2.99a.993.993 0 0 1 .3-1.38.993.993 0 0 1 1.38.3 1 1 0 0 1-.84 1.54.988.988 0 0 1-.84-.46zm1.74 3.38c-.2-.51.05-1.09.56-1.3a.999.999 0 0 1 1.301.55c.199.52-.051 1.1-.561 1.3-.12.05-.25.08-.37.08-.399 0-.769-.24-.93-.63zm1.071 3.65a.995.995 0 0 1 .8-1.17.984.984 0 0 1 1.16.79 1 1 0 0 1-1.96.38zm.359 3.78c0-.55.45-1 1-1s1 .45 1 1-.45 1-1 1-1-.45-1-1zM90.023 189.297l28.809 28.964 55.359-55.519-9.359-9.36-46.001 46.002-19.447-19.447-9.361 9.36zm28.807 31.798l-31.631-31.802 12.185-12.185 19.447 19.448 46.001-46.002 12.186 12.186-58.188 58.355zm47.905-115.234l2.455.797.466-1.437c.526-1.621 1.967-2.669 3.672-2.67h.002c1.704 0 3.147 1.047 3.674 2.667l.467 1.437 2.453-.799-.467-1.435c-.527-1.622.024-3.317 1.402-4.32 1.379-1.001 3.163-1.002 4.541-.001l1.222.887 1.517-2.088-1.223-.887c-1.379-1.002-1.931-2.697-1.404-4.319a3.805 3.805 0 0 1 3.673-2.67l1.51-.001-.002-2.58-1.509.001h-.001c-1.704 0-3.147-1.047-3.674-2.668-.527-1.621.023-3.317 1.402-4.319l1.221-.888-1.473-2.026-1.22.888a3.803 3.803 0 0 1-4.541.003c-1.38-1.002-1.932-2.697-1.406-4.319l.467-1.436-2.455-.797-.466 1.437c-.526 1.622-1.969 2.67-3.674 2.671h-.001c-1.704 0-3.145-1.048-3.672-2.668l-.467-1.436-2.454.798.467 1.436c.528 1.622-.023 3.317-1.402 4.32-1.377 1.003-3.16 1.003-4.541.001l-1.222-.887-1.516 2.089 1.222.887c1.379 1.001 1.932 2.696 1.406 4.317-.527 1.622-1.968 2.671-3.673 2.671l-1.511.001.002 2.58h1.511a3.807 3.807 0 0 1 3.674 2.667c.527 1.621-.024 3.316-1.403 4.32l-1.221.888 1.471 2.023 1.222-.888c1.379-1.003 3.162-1.004 4.541-.002 1.38 1.002 1.931 2.697 1.404 4.318l-.466 1.437zm3.74 3.316l-6.259-2.031 1.083-3.339c.309-.949-.148-1.698-.677-2.082-.53-.385-1.384-.585-2.19 0l-2.839 2.065-3.823-5.259 2.838-2.064c.807-.587.878-1.461.676-2.083-.202-.622-.774-1.286-1.771-1.286h-.001l-3.51.001-.002-6.58 3.51-.002c.998 0 1.569-.665 1.771-1.288.202-.622.13-1.496-.677-2.082l-2.841-2.062 3.866-5.325 2.841 2.062c.806.585 1.659.384 2.189-.001s.985-1.134.676-2.083l-1.087-3.338 6.259-2.036 1.086 3.339c.308.948 1.117 1.286 1.77 1.286.656-.001 1.464-.339 1.773-1.288l1.083-3.339 6.26 2.031-1.084 3.339c-.308.949.148 1.698.677 2.082.531.385 1.383.587 2.191-.001l2.838-2.065 3.826 5.261-2.84 2.064c-.807.587-.878 1.461-.676 2.083.202.622.774 1.287 1.772 1.287h.001l3.509-.002.002 6.581-3.51.001c-.997 0-1.569.666-1.771 1.288-.202.622-.13 1.496.678 2.083l2.84 2.062-3.866 5.324-2.841-2.062c-.806-.586-1.659-.384-2.19.001-.529.385-.984 1.134-.676 2.083l1.086 3.338-6.257 2.035-1.086-3.338c-.309-.948-1.118-1.286-1.772-1.286h-.001c-.654 0-1.463.339-1.77 1.287l-1.084 3.339z"/><path fill="#E9886C" d="M173.351 88.024a1.749 1.749 0 0 0-1.728 2.021c.073.461.322.865.7 1.139a1.75 1.75 0 0 0 2.439-.39 1.75 1.75 0 0 0-.39-2.439 1.739 1.739 0 0 0-1.021-.331zm-.008 5.491c-.762 0-1.53-.231-2.193-.711a3.721 3.721 0 0 1-1.502-2.443 3.722 3.722 0 0 1 .666-2.789 3.753 3.753 0 0 1 5.232-.836 3.745 3.745 0 1 1-2.203 6.779z"/><path fill="#434A4F" d="M171.141 79.359a.994.994 0 0 1 .88-1.11c.549-.06 1.04.33 1.109.88.061.55-.34 1.04-.88 1.11h-.12c-.5 0-.93-.37-.989-.88zm4.63 1.12c-.54-.14-.861-.69-.721-1.22a.997.997 0 0 1 1.221-.72c.529.14.849.69.71 1.22a.993.993 0 0 1-1.21.72zm-8.241.37a.997.997 0 0 1 .42-1.35c.481-.25 1.09-.06 1.35.42a1.011 1.011 0 0 1-.89 1.47c-.36 0-.71-.2-.88-.54zm11.451 1.15c-.01-.01-.01-.01-.021-.01 0-.01 0-.01-.01-.01a.983.983 0 0 1-.219-1.39.992.992 0 0 1 1.389-.23h.01c0 .01.011.01.02.02.01 0 .01.01.02.01.431.33.521.94.21 1.38-.199.27-.51.42-.819.42a.976.976 0 0 1-.58-.19zm-14.281 1.56a.997.997 0 0 1-.099-1.41c.37-.42 1-.46 1.409-.1.421.36.461 1 .1 1.41a.961.961 0 0 1-.75.34c-.24 0-.469-.08-.66-.24zm16.71.99a1 1 0 1 1 1.68-1.08 1 1 0 0 1-.84 1.54.988.988 0 0 1-.84-.46zm-18.37 2.55a1 1 0 0 1 .681-1.88c.519.19.789.76.599 1.28a.998.998 0 0 1-1.28.6zm19.7.72c-.11-.54.241-1.07.781-1.19a1 1 0 0 1 .41 1.96c-.071.02-.141.02-.21.02-.461 0-.881-.32-.981-.79zm-20.99 2.2a.997.997 0 0 1 .981-1.02c.549-.01 1 .42 1.019.98.01.55-.43 1.01-.979 1.02h-.021c-.54 0-.99-.43-1-.98zm21.891 2.47a.992.992 0 0 1-.821-1.15.998.998 0 1 1 1.97.33c-.08.49-.51.84-.99.84a.865.865 0 0 1-.159-.02zm-21.021 1.7a.998.998 0 0 1 .55-1.3.994.994 0 0 1 1.301.54c.21.51-.03 1.1-.54 1.31-.131.05-.261.07-.381.07-.4 0-.77-.23-.93-.62zm19.34 1.84c-.47-.29-.63-.9-.35-1.38.281-.47.89-.63 1.371-.35.479.28.629.9.349 1.37a.99.99 0 0 1-.859.49 1.02 1.02 0 0 1-.511-.13zm-17.019 1.74c-.38-.4-.361-1.04.04-1.42a.996.996 0 0 1 1.41.04c.38.4.369 1.03-.031 1.41-.2.18-.45.28-.69.28-.27 0-.529-.11-.729-.31zm14.179.95c-.34-.44-.269-1.07.17-1.41a.993.993 0 0 1 1.401.17 1 1 0 0 1-1.571 1.24zm-10.72 1.54a.998.998 0 0 1-.48-1.33c.23-.5.83-.71 1.33-.48.5.24.71.83.481 1.33a.994.994 0 0 1-.911.58.898.898 0 0 1-.42-.1zm7.1-.07a1 1 0 0 1 .66-1.24.99.99 0 0 1 1.25.66.997.997 0 0 1-.66 1.25 1.005 1.005 0 0 1-1.25-.67zm-2.979 1.15a.999.999 0 0 1-.931-1.07c.04-.55.52-.97 1.07-.93.55.04.97.52.93 1.07-.04.53-.48.93-1 .93h-.069z"/><path fill="#42494E" d="M197 165.912c-1.654 0-3 1.345-3 3 0 1.654 1.346 3 3 3s3-1.346 3-3c0-1.655-1.346-3-3-3zm0 8c-2.757 0-5-2.244-5-5 0-2.757 2.243-5 5-5s5 2.243 5 5c0 2.756-2.243 5-5 5zm-119-4c-1.102 0-2 .897-2 2s.898 2 2 2c1.103 0 2-.897 2-2s-.897-2-2-2zm0 6c-2.206 0-4-1.795-4-4 0-2.206 1.794-4 4-4s4 1.794 4 4c0 2.205-1.794 4-4 4zm105 26a1 1 0 1 0 0 2 1 1 0 0 0 0-2zm0 4c-1.654 0-3-1.346-3-3 0-1.655 1.346-3 3-3s3 1.345 3 3c0 1.654-1.346 3-3 3z"/><path fill="#434A4F" d="M85 92.912h2v-4h-2zM85 102.912h2v-4h-2zM89 96.912h4v-2h-4zM79 96.912h4v-2h-4zM169 188.912h2v-4h-2zM169 198.912h2v-4h-2zM173 192.912h4v-2h-4zM163 192.912h4v-2h-4z"/><path fill="#75C7D0" d="M51 142.911a2 2 0 1 1-3.999.001 2 2 0 0 1 3.999-.001m152-26a2 2 0 1 1-3.999.001 2 2 0 0 1 3.999-.001m-4 28a2 2 0 1 1-3.999.001 2 2 0 0 1 3.999-.001M92.848 189.3l25.985 26.127 52.532-52.683-6.533-6.533-46.001 46.002-19.448-19.448-6.535 6.535"/></g></svg>