<?xml version="1.0" encoding="utf-8"?><svg xmlns="http://www.w3.org/2000/svg" xmlns:xlink="http://www.w3.org/1999/xlink" width="193" height="161" viewBox="0 0 193 161"><defs><path id="iba" d="M.039.883h86V160.94h-86z"/><path id="ibc" d="M.039.883h86V160.94h-86z"/></defs><g fill="none" fill-rule="evenodd"><path fill="#F58E70" d="M172.057 96.948v-2h-6v2h-2v-2h-6v2h-2v6h2v2h2v2h2v2h2v2h2v-2h2v-2h2v-2h2v-2h2v-6h-2M41.979 136.972v-2h-6v2h-2v-2h-6v2h-2v6h2v2h2v2h2v2h2v2h2v-2h2v-2h2v-2h2v-2h2v-6h-2M34.033 30.942a2 2 0 1 1 .001 3.999 2 2 0 0 1-.001-3.999m124 110a2 2 0 1 1 .001 3.999 2 2 0 0 1-.001-3.999m-108-30a2 2 0 1 1 .001 3.999 2 2 0 0 1-.001-3.999"/><path fill="#FFD15D" d="M72.966 98.189l7-7 7 7-7 7-7-7"/><path fill="#DFE0E0" d="M67.039 157h76c.552 0 .999-.448 1-1v-13.243h-78V156a1 1 0 0 0 1 1"/><g transform="translate(62)"><mask id="ibb" fill="#fff"><use xlink:href="#iba"/></mask><path fill="#DFE0E0" d="M82.039 5.883c-.001-.552-.448-1-1-1h-76a1 1 0 0 0-1 1v11.061h78V5.883" mask="url(#ibb)"/><path fill="#475059" d="M81.039 161h-76a5.006 5.006 0 0 1-5-5V95.941h2V156a3.004 3.004 0 0 0 3 3h76a3.004 3.004 0 0 0 3-3V5.883a3.004 3.004 0 0 0-3-3h-76a3.004 3.004 0 0 0-3 3v44.059h-2V5.883a5.006 5.006 0 0 1 5-5h76a5.006 5.006 0 0 1 5 5V156a5.006 5.006 0 0 1-5 5" mask="url(#ibb)"/></g><path fill="#475059" d="M99.039 12.942h12v-2h-12zM103.039 146.941c-.552 0-.999.448-1 1v4c.001.552.448.999 1 1h4c.552-.001 1-.448 1-1v-4a1 1 0 0 0-1-1h-4zm4 8h-4a3.004 3.004 0 0 1-3-3v-4a3.002 3.002 0 0 1 3-3h4a3.002 3.002 0 0 1 3 3v4a3.004 3.004 0 0 1-3 3zM103.041 8.94h3.995v-2h-3.995z"/><path fill="#48515A" d="M40.413 90.938h-8.034v-2h6.034l-.001-35.998h-6.033v-2h8.033l.001 39.998"/><path fill="#475059" d="M80.896 94.102l-27.146-.134a4.992 4.992 0 0 1-4.098-2.172l-4.391-4.525-5.872-.14.047-1.999 6.69.159 5.143 5.323a2.991 2.991 0 0 0 2.491 1.354l25.136.124a6.35 6.35 0 0 0-6-6.355h-7.645v-2h32a3 3 0 1 0 0-6h-26v-2h8.443a3 3 0 1 0 0-6h-8.443v-2h8.443a3 3 0 1 0 0-6h-8.443v-2h4.443a3 3 0 1 0 0-6H54.189a6.555 6.555 0 0 0-3.897 1.295 8.572 8.572 0 0 1-5.095 1.693l-6.463-.001v-2l6.463.001a6.555 6.555 0 0 0 3.898-1.295 8.565 8.565 0 0 1 5.094-1.693h21.505a4.998 4.998 0 0 1 3.998 8h.002a5 5 0 0 1 2.997 9 4.994 4.994 0 0 1 1.001 7h13.559a5 5 0 0 1 0 10H78.023a8.532 8.532 0 0 1 2.873 6.361v2.004"/><path fill="#F58E70" d="M130.98 24.628a3.62 3.62 0 0 0-2.107.679 3.62 3.62 0 0 0-2.107-.679 3.808 3.808 0 0 0-3.727 3.878c.002.884.295 1.742.835 2.442l4.999 5.991 5.001-5.992.133-.198c.389-.69.627-1.455.7-2.243a3.808 3.808 0 0 0-3.727-3.878M83.311 40.626a3.636 3.636 0 0 0-2.107.679 3.626 3.626 0 0 0-2.106-.679 3.81 3.81 0 0 0-3.728 3.879c.002.884.296 1.742.835 2.442l4.999 5.991 5.001-5.992.134-.198a5.64 5.64 0 0 0 .7-2.244 3.81 3.81 0 0 0-3.728-3.878m31.503.316a3.62 3.62 0 0 0-2.107.679 3.62 3.62 0 0 0-2.107-.679 3.808 3.808 0 0 0-3.727 3.878c.002.884.295 1.742.835 2.442l4.999 5.991 5.001-5.992.133-.198c.389-.69.627-1.455.7-2.243a3.808 3.808 0 0 0-3.727-3.878m.333 50.664a3.622 3.622 0 0 0-2.107.679 3.62 3.62 0 0 0-2.107-.679 3.808 3.808 0 0 0-3.727 3.878c.002.884.296 1.742.835 2.442l4.999 5.992 5.001-5.992.134-.199c.388-.69.627-1.454.699-2.243a3.808 3.808 0 0 0-3.727-3.878m-.167 16.667a3.62 3.62 0 0 0-2.107.679 3.62 3.62 0 0 0-2.107-.679 3.808 3.808 0 0 0-3.727 3.878c.002.884.295 1.742.835 2.442l4.999 5.991 5.001-5.992.133-.198c.389-.69.627-1.455.7-2.243a3.808 3.808 0 0 0-3.727-3.878m.331 16.875a3.622 3.622 0 0 0-2.107.679 3.62 3.62 0 0 0-2.107-.679 3.808 3.808 0 0 0-3.727 3.878c.002.884.296 1.742.835 2.442l4.999 5.991 5.001-5.992.134-.198a5.64 5.64 0 0 0 .7-2.243 3.81 3.81 0 0 0-3.728-3.878"/><path fill="#FFD15D" d="M74.164 30.941l7-7 7 7-7 7-7-7M89.872 62.566l7-7 7.001 7-7.001 7-7-7M106.206 79.897l7-7 7 7-7 7-7-7M123.039 79.942l7-7 7 7-7 7-7-7M122.038 47.942l7-7 7 7-7 7-7-7M122.996 98.189l7-7 7 7-7 7-7-7M122.996 114.942l7-7 7 7-7 7-7-7M89.039 131.942l7-7 7 7-7 7-7-7"/><path fill="#5FE0ED" d="M92.039 35.942h10v-10h-10zM108.039 67.817h10v-10h-10zM92.039 103.817h10v-10h-10zM124.039 136.817h10v-10h-10z"/><path fill="#DFE0E0" d="M108.63 26.699a6 6 0 1 1 8.485 8.485 6 6 0 0 1-8.485-8.485m-15.834 16a6 6 0 1 1 8.485 8.485 6 6 0 0 1-8.485-8.485m32 16a6 6 0 1 1 8.485 8.485 6 6 0 0 1-8.485-8.485m-32 52a6 6 0 1 1 8.485 8.485 6 6 0 0 1-8.485-8.485m-17.001-.125a6.001 6.001 0 0 1 8.486 8.485 6.001 6.001 0 0 1-8.486-8.485"/><g transform="translate(62)"><mask id="ibd" fill="#fff"><use xlink:href="#ibc"/></mask><path fill="#FFD15D" mask="url(#ibd)" d="M11.039 131.942l7-7 7 7-7 7-7-7"/><path fill="#475059" d="M81.039 161h-76a5.006 5.006 0 0 1-5-5V95.941h2V156a3.004 3.004 0 0 0 3 3h76a3.004 3.004 0 0 0 3-3V5.883a3.004 3.004 0 0 0-3-3h-76a3.004 3.004 0 0 0-3 3v44.059h-2V5.883a5.006 5.006 0 0 1 5-5h76a5.006 5.006 0 0 1 5 5V156a5.006 5.006 0 0 1-5 5" mask="url(#ibd)"/></g><path fill="#475059" d="M99.039 12.942h12v-2h-12z"/><path fill="#DFE0E0" d="M142.038 150.653h2V14.984h-2zM65.992 49.941h2V14.984h-2zM65.992 150.653h2V95.942h-2z"/><path fill="#48515A" d="M184.106 24.907h2v-4h-2zM184.106 34.907h2v-4h-2zM188.106 28.907h4v-2h-4zM178.106 28.907h4v-2h-4zM174.101 134.973h2v-4h-2zM174.101 144.973h2v-4h-2zM178.101 138.973h4v-2h-4zM168.101 138.973h4v-2h-4zM6 104.955h2v-4H6zM6 114.955h2v-4H6zM10 108.955h4v-2h-4zM0 108.955h4v-2H0zM176.033 79.942a1 1 0 1 0 0 2 1 1 0 0 0 0-2zm0 4a3 3 0 1 1 0-6 3 3 0 0 1 0 6zm-18-22a3 3 0 1 0 0 6 3 3 0 0 0 0-6zm0 8a5 5 0 1 1 5-5 5.006 5.006 0 0 1-5 5zm-146 4a1 1 0 1 0 0 2 1 1 0 0 0 0-2zm0 4a3 3 0 1 1 0-6 3 3 0 0 1 0 6z"/><path fill="#FFD15D" d="M32.033 104.942a4 4 0 1 1 0 8 4 4 0 0 1 0-8"/><path fill="#FFD15D" d="M32.033 114.942a6 6 0 1 1 6-6 6.007 6.007 0 0 1-6 6zm0-14a8 8 0 1 0 0 16 8 8 0 0 0 0-16zM172.033 53.301l3 2.924-.708 4.129 3.708-1.949 3.708 1.949-.708-4.129 3-2.924-4.146-.603-1.854-3.756-1.854 3.756zM10.033 29.888l3 2.924-.708 4.13 3.708-1.95 3.708 1.95-.708-4.13 3-2.924-4.146-.602-1.854-3.757-1.854 3.757z"/></g></svg>