<?xml version="1.0" encoding="utf-8"?><svg xmlns="http://www.w3.org/2000/svg" width="250" height="250" viewBox="0 0 250 250"><g fill="none" fill-rule="evenodd"><path fill="#FACD60" d="M96.331 145.375c-.552 0-1 .449-1 1v31.056a1 1 0 0 0 1 1l57.334.001c.551 0 1-.449 1-1v-31.057c0-.551-.449-1-1-1H96.331"/><path fill="#DBDBD5" d="M82.264 133.461c0 1.526.594 2.96 1.673 4.039a5.677 5.677 0 0 0 4.038 1.673h74.045a5.718 5.718 0 0 0 5.711-5.712v-1.293H82.264v1.293"/><path fill="#42494E" d="M115.527 75.807h18v-4.302h-18v4.302zm20 2h-22v-6.302c0-1.102.897-2 2-2h18c1.103 0 2 .898 2 2v6.302zm26.493 117.692l-74.045-.001c-5.354 0-9.711-4.357-9.711-9.711V85.609h2v100.178c0 4.252 3.459 7.711 7.711 7.711l74.045.001c4.252 0 7.711-3.46 7.711-7.712V85.609h2v100.178c0 5.355-4.356 9.712-9.711 9.712"/><path fill="#42494E" d="M113.152 130.165h25.125v-2h-25.125zM112.277 143.375h26.252v-2h-26.252z"/><path fill="#42494E" d="M153.664 182.431H96.331c-2.757 0-5-2.243-5-5v-31.056c0-2.756 2.243-5 5-5h6.323v2h-6.323c-1.655 0-3 1.346-3 3v31.056c0 1.654 1.345 3 3 3h57.333c1.655 0 3-1.346 3-3v-31.056c0-1.654-1.345-3-3-3h-5.514v-2h5.514c2.757 0 5 2.244 5 5v31.056c0 2.757-2.243 5-5 5m8.356-52.266h-13.369v-2h13.369c4.252 0 7.711-3.459 7.711-7.711V85.609c0-4.252-3.459-7.711-7.711-7.711l-24.493-.047v-6.617c0-1.8-1.464-3.265-3.265-3.265h-19.47a3.27 3.27 0 0 0-3.265 3.265v6.619l-23.552.045c-4.252 0-7.711 3.459-7.711 7.711v34.845c0 4.252 3.459 7.711 7.711 7.711h14.679v2H87.975c-5.354 0-9.711-4.357-9.711-9.711V85.609c0-5.355 4.357-9.711 9.711-9.711l21.552-.045v-4.619a5.272 5.272 0 0 1 5.265-5.265h19.47a5.271 5.271 0 0 1 5.265 5.265v4.621l22.495.043c5.353 0 9.709 4.356 9.709 9.711v34.845c0 5.354-4.356 9.711-9.711 9.711m-95.804 38.846h-4.708v-16.777c0-3.309 2.691-6 6-6h11.775v2H67.508c-2.206 0-4 1.794-4 4v14.777h2.708v2"/><path fill="#42494E" d="M92.349 195.498H74.927c-5.355 0-9.711-4.357-9.711-9.711v-33.844c0-1.103.897-2 2-2h12.048v2H67.216v33.844c0 4.252 3.459 7.711 7.711 7.711h17.422v2m82.756.001h-13.067v-2h13.067c4.252 0 7.711-3.46 7.711-7.712v-33.844h-12.085v-2h12.085c1.103 0 2 .897 2 2v33.844c0 5.355-4.356 9.712-9.711 9.712m-68.518-66.998c0-.549.45-1 1-1s1 .451 1 1c0 .56-.45 1-1 1s-1-.44-1-1zm0 4c0-.549.45-.99 1-.99a.995.995 0 1 1 0 1.99c-.55 0-1-.44-1-1zm0 4c0-.549.45-1 1-1s1 .451 1 1c0 .56-.45 1-1 1s-1-.44-1-1zm0 4c0-.549.45-1 1-1s1 .451 1 1c0 .56-.45 1-1 1s-1-.44-1-1zm0 4c0-.549.45-1 1-1s1 .451 1 1c0 .56-.45 1.01-1 1.01s-1-.45-1-1.01zM115.252 125.534H99.763v-13.043h2.247V99.07h2v15.421h-2.247v9.043h11.489v-9.043h-2.11V99.07h2v13.421h2.11v13.043"/><path fill="#42494E" d="M103.01 114.491h9.268v-2h-9.268zM106.587 124.647h2v-6.624h-2z"/><path fill="#42494E" d="M107.587 152.042a5.582 5.582 0 0 1-5.577-5.577v-22.062h2v22.062a3.58 3.58 0 0 0 3.577 3.577 3.58 3.58 0 0 0 3.577-3.577v-22.062h2v22.062a5.583 5.583 0 0 1-5.577 5.577m35.02-23.541c0-.549.45-1 1-1s1 .451 1 1c0 .56-.45 1-1 1s-1-.44-1-1zm0 4c0-.549.45-.99 1-.99a.995.995 0 1 1 0 1.99c-.55 0-1-.44-1-1zm0 4c0-.549.45-1 1-1s1 .451 1 1c0 .56-.45 1-1 1s-1-.44-1-1zm0 4c0-.549.45-1 1-1s1 .451 1 1c0 .56-.45 1-1 1s-1-.44-1-1zm0 4c0-.549.45-1 1-1s1 .451 1 1c0 .56-.45 1.01-1 1.01s-1-.45-1-1.01zM151.273 125.534h-15.488v-13.043h2.246V99.07h2v15.421h-2.246v9.043h11.488v-9.043h-2.11V99.07h2v13.421h2.11v13.043"/><path fill="#42494E" d="M139.031 114.491h9.269v-2h-9.269zM142.609 124.647h2v-6.624h-2z"/><path fill="#42494E" d="M143.609 152.042a5.583 5.583 0 0 1-5.578-5.577v-22.062h2v22.062a3.581 3.581 0 0 0 3.578 3.577 3.58 3.58 0 0 0 3.577-3.577v-22.062h2v22.062a5.583 5.583 0 0 1-5.577 5.577m44.738 16.969h-4.708v-2h2.708v-14.777c0-2.206-1.794-4-4-4h-11.774v-2h11.774c3.309 0 6 2.691 6 6v16.777m-89.47-72.24c0-.55.45-1 1-1s1 .45 1 1-.45 1-1 1-1-.45-1-1zm4 0c0-.55.45-1 1-1s1 .45 1 1-.45 1-1 1-1-.45-1-1zm4 0c0-.55.45-1 1-1s1 .45 1 1-.45 1-1 1-1-.45-1-1zm4 0c0-.55.45-1 1-1s1 .45 1 1-.45 1-1 1-1-.45-1-1zm4 0c0-.55.45-1 1-1s1 .45 1 1-.45 1-1 1-1-.45-1-1zm20.02 0c0-.55.45-1 1-1s1 .45 1 1-.45 1-1 1-1-.45-1-1zm4 0c0-.55.45-1 1-1s1 .45 1 1-.45 1-1 1-1-.45-1-1zm4 0c0-.55.45-1 1-1s1 .45 1 1-.45 1-1 1-1-.45-1-1zm4 0c0-.55.45-1 1-1s1 .45 1 1-.45 1-1 1-1-.45-1-1zm4 0c0-.55.45-1 1-1s1 .45 1 1-.45 1-1 1-1-.45-1-1zm-47.37 64.73c0-.549.45-.99 1-.99s1 .441 1 .99c0 .56-.45 1.01-1 1.01s-1-.45-1-1.01zm4 0c0-.549.45-.99 1-.99s1 .441 1 .99c0 .56-.45 1.01-1 1.01s-1-.45-1-1.01zm4 0c0-.549.45-.99 1-.99s1 .441 1 .99c0 .56-.45 1.01-1 1.01s-1-.45-1-1.01zm4 0c0-.549.45-.99 1-.99s1 .441 1 .99c0 .56-.45 1.01-1 1.01s-1-.45-1-1.01zm4 0c0-.549.45-.99 1-.99s1 .441 1 .99c0 .56-.45 1.01-1 1.01s-1-.45-1-1.01zm4 0c0-.549.45-.99 1-.99s1 .441 1 .99c0 .56-.45 1.01-1 1.01s-1-.45-1-1.01zm4 0c0-.549.45-.99 1-.99s1 .441 1 .99c0 .56-.45 1.01-1 1.01s-1-.45-1-1.01zm4 0c0-.549.45-.99 1-.99s1 .441 1 .99c0 .56-.45 1.01-1 1.01s-1-.45-1-1.01zm4 0c0-.549.45-.99 1-.99s1 .441 1 .99c0 .56-.45 1.01-1 1.01s-1-.45-1-1.01zm4 0c0-.549.45-.99 1-.99s1 .441 1 .99c0 .56-.45 1.01-1 1.01s-1-.45-1-1.01zm4 0c0-.549.45-.99 1-.99s1 .441 1 .99c0 .56-.45 1.01-1 1.01s-1-.45-1-1.01zm4 0c0-.549.45-.99 1-.99s1 .441 1 .99c0 .56-.45 1.01-1 1.01s-1-.45-1-1.01zm4 0c0-.549.45-.99 1-.99s1 .441 1 .99c0 .56-.45 1.01-1 1.01s-1-.45-1-1.01zm-54-1.996v7a1.001 1.001 0 0 0 2 0v-7h-2zm1 10c-1.654 0-3-1.345-3-3v-9h6v9c0 1.655-1.346 3-3 3z"/><path fill="#42494E" d="M96.527 163.505h4v-2h-4zM105.527 163.511c0-.559.45-1 1-1s1 .441 1 1c0 .55-.45 1-1 1s-1-.45-1-1zm4 0c0-.559.45-1 1-1s1 .441 1 1c0 .55-.45 1-1 1s-1-.45-1-1zm4 0c0-.559.45-1 1-1s1 .441 1 1c0 .55-.45 1-1 1s-1-.45-1-1zm4 0c0-.559.45-1 1-1s1 .441 1 1c0 .55-.45 1-1 1s-1-.45-1-1zm4 0c0-.559.45-1 1-1s1 .441 1 1c0 .55-.45 1-1 1s-1-.45-1-1zm4 0c0-.559.45-1 1-1s1 .441 1 1c0 .55-.45 1-1 1s-1-.45-1-1zm4 0c0-.559.45-1 1-1s1 .441 1 1c0 .55-.45 1-1 1s-1-.45-1-1zm4 0c0-.559.45-1 1-1s1 .441 1 1c0 .55-.45 1-1 1s-1-.45-1-1zm4 0c0-.559.45-1 1-1s1 .441 1 1c0 .55-.45 1-1 1s-1-.45-1-1zm4 0c0-.559.45-1 1-1s1 .441 1 1c0 .55-.45 1-1 1s-1-.45-1-1zm4 0c0-.559.45-1 1-1s1 .441 1 1c0 .55-.45 1-1 1s-1-.45-1-1zm4 0c0-.559.45-1 1-1s1 .441 1 1c0 .55-.45 1-1 1s-1-.45-1-1zM100.526 159.507h54.003v-2h-54.003zM107.527 76.505h-2v-14c0-.551-.449-1-1-1h-10c-.551 0-1 .449-1 1v14h-2v-14c0-1.654 1.346-3 3-3h10c1.654 0 3 1.346 3 3v14m50 0h-2v-14c0-.551-.449-1-1-1h-10c-.551 0-1 .449-1 1v14h-2v-14c0-1.654 1.346-3 3-3h10c1.654 0 3 1.346 3 3v14"/><path fill="#FACD60" d="M180.816 185.787a5.718 5.718 0 0 1-5.711 5.711h-2.871a11.623 11.623 0 0 0 1.497-5.711v-31.844h7.085v31.844zm-111.6 0v-31.845l7.048.001v31.844c0 2.074.548 4.02 1.497 5.711h-2.834a5.718 5.718 0 0 1-5.711-5.711zM95.527 73.505h8v-10h-8zM145.527 73.505h8v-10h-8z"/><path fill="#42494E" d="M47.386 102.598c-1.654 0-3 1.346-3 3s1.346 3 3 3H87.9l6.506-3-6.506-3H47.386zm40.952 8H47.386c-2.756 0-5-2.243-5-5s2.244-5 5-5h40.952l10.844 5-10.844 5z"/><path fill="#42494E" d="M52.996 109.598h2V102h-2z"/><path fill="#42494E" d="M53.996 106.569H87.35v-2H53.996zM207.212 116.98v2h3v18.083h-32.083V118.98h3v-2h-5v22.083h36.083V116.98h-5"/><path fill="#42494E" d="M182.129 133.063h10.648l1.432 1.562 1.594-1.562h10.409V114.98h-9.592l-2.464 2.414-2.365-2.414h-9.662v18.083zm12.003 4.437l-2.235-2.437h-11.768V112.98h12.503l1.553 1.586 1.618-1.586h12.409v22.083H196.62l-2.488 2.437z"/><path fill="#FFFFFE" d="M184.024 118.063h6.125"/><path fill="#42494E" d="M184.024 119.063h6.125v-2h-6.125z"/><path fill="#FFFFFE" d="M184.024 122.063h6.125"/><path fill="#42494E" d="M184.024 123.063h6.125v-2h-6.125z"/><path fill="#FFFFFE" d="M184.024 126.063h6.125"/><path fill="#42494E" d="M184.024 127.063h6.125v-2h-6.125z"/><path fill="#FFFFFE" d="M198.024 118.063h6.125"/><path fill="#42494E" d="M198.024 119.063h6.125v-2h-6.125z"/><path fill="#FFFFFE" d="M198.024 122.063h6.125"/><path fill="#42494E" d="M198.024 123.063h6.125v-2h-6.125z"/><path fill="#FFFFFE" d="M198.024 126.063h6.125"/><path fill="#42494E" d="M198.024 127.063h6.125v-2h-6.125z"/><path fill="#FFFFFE" d="M194.17 119.251v9.812"/><path fill="#42494E" d="M193.17 129.063h2v-9.813h-2z"/><path fill="#FFFFFE" d="M184.024 130.063h6.125"/><path fill="#42494E" d="M184.024 131.063h6.125v-2h-6.125z"/><path fill="#FFFFFE" d="M198.024 130.063h6.125"/><path fill="#42494E" d="M198.024 131.063h6.125v-2h-6.125z"/><path fill="#434A4F" d="M212.553 163.544h2v-4h-2zM212.553 173.544h2v-4h-2zM216.553 167.544h4v-2h-4zM206.553 167.544h4v-2h-4zM35.447 73.49h2v-4h-2zM35.447 83.49h2v-4h-2zM39.447 77.49h4v-2h-4zM29.447 77.49h4v-2h-4zM35.447 143.532h2v-4h-2zM35.447 153.532h2v-4h-2zM39.447 147.532h4v-2h-4zM29.447 147.532h4v-2h-4z"/><path fill="#FACD60" d="M180.527 82.501a2 2 0 1 1-3.999.001 2 2 0 0 1 3.999-.001m6 21a1 1 0 1 1-1.998.002 1 1 0 0 1 1.998-.002m-52-19a2 2 0 1 1 4.001.001 2 2 0 0 1-4.001-.001m-72-28a2 2 0 1 1-3.999.001 2 2 0 0 1 3.999-.001m6 69a1 1 0 1 1 2 0 1 1 0 0 1-2 0m-10 11a2 2 0 1 1-3.999.001 2 2 0 0 1 3.999-.001m-16-14a2 2 0 1 1 4.001.001 2 2 0 0 1-4.001-.001m160 29a1 1 0 1 1-1.998.002 1 1 0 0 1 1.998-.002"/></g></svg>