<?xml version="1.0" encoding="utf-8"?><svg xmlns="http://www.w3.org/2000/svg" width="250" height="250" viewBox="0 0 250 250"><g fill="none" fill-rule="evenodd"><path fill="#75C7D0" d="M96.818 57.395l-2.361 4.247a14.161 14.161 0 0 0-1.764 7.607l1.792 36.741h23.11l-.004-.001-.894-25.206a39.294 39.294 0 0 0-7.139-21.172l-1.75-2.353-.001-.018h-10.97l-.019.155"/><path fill="#DBDBD5" d="M114.486 112.99l-2.875 7.375 17.499 7.875.126 31.25 1.166.334-.041 5.166h20.875l-.16-4-9.59-2v-39.625l-27-6.375"/><path fill="#434A4F" d="M30.486 219h-2v-19h48v-18h48v-18h48.028v-18.011h49v2h-47v17.695l-.819.306-.209.01h-47v18h-48v18h-48v17"/><path fill="#434A4F" d="M97.68 181.991h18.806v-2.215l-9.534-2.334v-5.017l1.694-24.743 1.509-26.522 3.431-8.897 1.866.721-2.512 6.511 17.327 7.987.146 30.76h.857v5.749h18.805v-2.188l-9.589-2v-40.699l-23.873-12.499-.915-25.787a38.194 38.194 0 0 0-6.958-20.631l-1.911-2.57-.334-5.235 7.062-.344V40.519a7.52 7.52 0 0 0-7.52-7.52h-1.735c-4.493 0-8.148 3.656-8.148 8.149a8.2 8.2 0 0 0 2.431 5.806l.316.311-.083 1.967-1.031 8.478-2.456 4.418a13.155 13.155 0 0 0-1.639 7.07l1.8 36.901-1.006 3.691v8.895l2.333 4.739v52.818h.861v5.749zm20.806 2H95.68v-5.749h-.861v-54.353l-2.333-4.739.035-9.757.958-3.513-1.785-36.582a15.142 15.142 0 0 1 1.889-8.141l2.266-4.077.977-8.011.041-1.014a10.216 10.216 0 0 1-2.713-6.907c0-5.596 4.552-10.149 10.148-10.149h1.735a9.52 9.52 0 0 1 9.52 9.52v13.423l-6.937.339.167 2.617 1.574 2.116a40.23 40.23 0 0 1 7.336 21.732l.874 24.627 23.915 12.52v40.285l9.589 2v5.813H129.27v-5.749h-.847l-.15-31.477-16.054-7.4-.086.222-1.491 26.22-1.692 24.687.002 3.378 9.534 2.334v5.785z"/><path fill="#42494E" d="M99.994 120.196a4.462 4.462 0 0 1-3.129-1.279 4.47 4.47 0 0 1-1.358-3.166l-.022-1.805c0-2.3.352-4.587 1.046-6.811l1.909.596a20.79 20.79 0 0 0-.955 6.203l.022 1.793a2.498 2.498 0 0 0 2.533 2.469h4.014v-2.265h2v.238c0 .581.413 1.067.96 1.179v-4.078c0-1.227-.41-2.437-1.156-3.411l-1.555-2.438-.82-18.366 1.414-16.867 1.993.168-1.403 16.738.791 17.704 1.218 1.915c.961 1.25 1.518 2.894 1.518 4.557v6.103h-1.757c-.425 0-.831-.083-1.203-.235v1.058H99.994"/><path fill="#42494E" d="M102.485 107.991h-5.758l-2.711-2.805 1.439-1.391 2.121 2.196h4.909v2"/><path fill="#434A4F" d="M110.532 107.323l-.093-1.998 7.106-.335.093 1.998-7.106.335M96.68 178.242h6.679v-2H96.68zM129.486 160.116h6.375v-2h-6.375z"/><path fill="#42494E" d="M184.243 184.015c-4.962 0-9 4.037-9 9s4.038 9 9 9c4.963 0 9-4.037 9-9s-4.037-9-9-9zm0 20c-6.065 0-11-4.934-11-11 0-6.065 4.935-11 11-11 6.066 0 11 4.935 11 11 0 6.066-4.934 11-11 11zm0-26c-8.271 0-15 6.729-15 15 0 8.272 6.729 15 15 15s15-6.728 15-15c0-8.271-6.729-15-15-15zm0 32c-9.374 0-17-7.626-17-17 0-9.374 7.626-17 17-17 9.374 0 17 7.626 17 17 0 9.374-7.626 17-17 17z"/><path fill="#42494E" d="M184.243 190.015c-1.654 0-3 1.346-3 3s1.346 3 3 3c1.655 0 3-1.346 3-3s-1.345-3-3-3zm0 8c-2.756 0-5-2.243-5-5s2.244-5 5-5c2.757 0 5 2.243 5 5s-2.243 5-5 5z"/><path fill="#E9886C" d="M184.243 189.015a4 4 0 1 0 0 8 4 4 0 0 0 0-8"/><path fill="#E9886C" d="M184.243 190.015c-1.654 0-3 1.346-3 3s1.346 3 3 3c1.655 0 3-1.346 3-3s-1.345-3-3-3zm0 8c-2.756 0-5-2.243-5-5s2.244-5 5-5c2.757 0 5 2.243 5 5s-2.243 5-5 5z"/><path fill="#42494E" d="M157.245 194.015h26.998v-2h-26.998z"/><path fill="#42494E" d="M150.658 196.015h3.172l3-3-3-3h-3.172l3 3-3 3zm4 2h-8.828l5-5-5-5h8.828l5 5-5 5z"/><path fill="#434A4F" d="M142.957 98.864l2.454.797.467-1.437a3.804 3.804 0 0 1 3.673-2.67h.001c1.705 0 3.146 1.047 3.673 2.667l.468 1.437 2.453-.798-.467-1.437c-.527-1.621.023-3.316 1.402-4.318 1.379-1.003 3.161-1.003 4.541-.003l1.222.888 1.516-2.088-1.222-.887c-1.379-1.002-1.931-2.696-1.405-4.318.527-1.622 1.968-2.67 3.673-2.671h1.51v-2.581l-1.51.001h-.002a3.804 3.804 0 0 1-3.673-2.668c-.527-1.621.023-3.317 1.402-4.318l1.221-.889-1.472-2.026-1.222.888c-1.379 1.004-3.16 1.005-4.541.002-1.379-1.001-1.931-2.696-1.404-4.317l.465-1.437-2.454-.797-.466 1.437c-.526 1.622-1.968 2.67-3.673 2.671h-.002c-1.704 0-3.145-1.047-3.673-2.667l-.467-1.437-2.454.798.468 1.437c.527 1.621-.023 3.316-1.401 4.318-1.379 1.004-3.162 1.004-4.542.003l-1.222-.888-1.516 2.089 1.222.887c1.38 1.002 1.931 2.696 1.406 4.318a3.807 3.807 0 0 1-3.673 2.67l-1.511.001.001 2.581 1.511-.001h.001a3.805 3.805 0 0 1 3.673 2.668c.528 1.621-.023 3.316-1.401 4.318l-1.222.889 1.472 2.023 1.221-.888c1.379-1.004 3.161-1.002 4.54-.002 1.38 1.002 1.932 2.696 1.406 4.318l-.467 1.437zm3.74 3.316l-6.259-2.031 1.083-3.339c.308-.949-.148-1.698-.677-2.083-.529-.384-1.383-.585-2.19.001l-2.839 2.065-3.824-5.258 2.839-2.065c.807-.587.879-1.461.676-2.083-.202-.622-.774-1.286-1.771-1.286l-3.511.001-.003-6.581 3.511-.001c.998 0 1.569-.665 1.771-1.287.202-.623.13-1.496-.678-2.082l-2.84-2.063 3.866-5.325 2.84 2.062c.807.587 1.661.383 2.19-.001.529-.385.984-1.134.676-2.082l-1.086-3.339 6.257-2.036 1.087 3.339c.308.948 1.116 1.286 1.77 1.286h.001c.654 0 1.464-.339 1.772-1.288l1.083-3.339 6.259 2.031-1.083 3.339c-.308.949.148 1.697.677 2.082.529.383 1.383.584 2.19-.001l2.839-2.064 3.825 5.26-2.839 2.065c-.807.587-.879 1.461-.676 2.083.202.622.773 1.286 1.771 1.286h.001l3.51-.001.002 6.581h-3.511c-.997 0-1.568.666-1.771 1.288-.201.623-.129 1.496.678 2.082l2.84 2.062-3.866 5.327-2.84-2.065c-.807-.585-1.661-.383-2.19.002-.529.385-.985 1.134-.676 2.082l1.086 3.339-6.258 2.036-1.086-3.339c-.308-.948-1.117-1.286-1.771-1.286-.655 0-1.464.338-1.772 1.287l-1.083 3.339z"/><path fill="#E9886C" d="M149.573 81.026a1.736 1.736 0 0 0-1.417.722 1.748 1.748 0 0 0 .389 2.439 1.75 1.75 0 0 0 2.439-.39c.273-.378.383-.839.31-1.299a1.736 1.736 0 0 0-.7-1.139 1.73 1.73 0 0 0-1.021-.333zm-.008 5.491c-.762 0-1.531-.23-2.193-.711a3.75 3.75 0 0 1-.837-5.231 3.716 3.716 0 0 1 2.443-1.501 3.712 3.712 0 0 1 2.789.666 3.719 3.719 0 0 1 1.502 2.442 3.744 3.744 0 0 1-3.704 4.335z"/><path fill="#434A4F" d="M147.365 72.356a.997.997 0 0 1 1.979-.23.994.994 0 0 1-.879 1.11c-.03.01-.07.01-.11.01-.5 0-.94-.38-.99-.89zm4.62 1.119a.997.997 0 1 1 1.22-.71c-.12.45-.52.75-.97.75a.762.762 0 0 1-.25-.04zm-8.24.381c-.25-.49-.06-1.091.42-1.351a.995.995 0 0 1 1.35.42c.26.49.07 1.09-.421 1.351a.913.913 0 0 1-.459.109c-.36 0-.71-.189-.89-.529zm11.46 1.14c-.01 0-.02-.01-.03-.01a.997.997 0 0 1-.22-1.401.983.983 0 0 1 1.38-.229h.009c.021.01.031.02.041.029.439.33.53.95.209 1.391a.987.987 0 0 1-.81.409.957.957 0 0 1-.579-.189zm-14.28 1.57c-.42-.37-.46-1-.101-1.42a1 1 0 0 1 1.411-.091c.42.36.46.99.1 1.41a1.008 1.008 0 0 1-1.41.101zm16.7.989a1 1 0 1 1 1.686-1.079 1 1 0 0 1-1.686 1.079zm-18.36 2.54a.997.997 0 0 1-.6-1.279.998.998 0 0 1 1.28-.601c.52.191.79.771.6 1.29v-.009a.998.998 0 0 1-1.28.599zm19.7.721c-.11-.54.24-1.07.78-1.181a.996.996 0 0 1 1.18.78 1.002 1.002 0 0 1-.78 1.18c-.071.011-.13.021-.2.021-.46 0-.88-.33-.98-.8zm-20.99 2.21a.997.997 0 0 1 .98-1.021c.55-.019 1 .42 1.02.97.01.551-.43 1.011-.98 1.03h-.02a.998.998 0 0 1-1-.979zm21.89 2.47c-.55-.09-.92-.611-.831-1.151a.99.99 0 0 1 1.151-.819c.55.08.92.6.83 1.149-.08.481-.51.83-.99.83-.05 0-.11 0-.16-.009zm-21.021 1.7a1 1 0 0 1 .551-1.311.99.99 0 0 1 1.3.55.994.994 0 0 1-.54 1.301c-.13.05-.26.08-.38.08-.4 0-.77-.24-.931-.62zm19.341 1.83a.995.995 0 0 1-.35-1.37.996.996 0 0 1 1.37-.351c.47.28.63.891.349 1.37a1.01 1.01 0 0 1-.859.49c-.18 0-.351-.049-.51-.139zm-17.02 1.739a.994.994 0 0 1 .03-1.409 1.008 1.008 0 0 1 1.42.029c.38.401.36 1.04-.041 1.42a.994.994 0 0 1-.689.271.987.987 0 0 1-.72-.311zm14.179.95a.99.99 0 0 1 .171-1.399.99.99 0 0 1 1.4.159.998.998 0 1 1-.78 1.62c-.3 0-.59-.13-.791-.38zm-10.729 1.55c-.5-.239-.71-.84-.47-1.34.23-.49.83-.71 1.33-.469.5.229.71.83.48 1.33a1.023 1.023 0 0 1-1.34.479zm7.11-.069c-.16-.531.14-1.09.66-1.25.53-.16 1.09.139 1.25.66a.998.998 0 0 1-.66 1.25c-.1.029-.2.05-.29.05-.43 0-.83-.28-.96-.71zm-2.98 1.149v-.01a.992.992 0 0 1-.93-1.07c.04-.54.52-.96 1.07-.92.55.04.959.521.919 1.07a.993.993 0 0 1-.989.93h-.07zM49.116 130.461h2v-4h-2zM49.116 140.461h2v-4h-2zM53.116 134.461h4v-2h-4zM43.116 134.461h4v-2h-4zM189.2 80.432h2v-4h-2zM189.2 90.432h2v-4h-2zM193.2 84.432h4v-2h-4zM183.2 84.432h4v-2h-4zM70.129 90.438h2v-4h-2zM70.129 100.438h2v-4h-2zM74.129 94.438h4v-2h-4zM64.129 94.438h4v-2h-4z"/><path fill="#E9886C" d="M72.152 160.324a2.666 2.666 0 1 1-5.332 0 2.666 2.666 0 0 1 5.332 0"/><path fill="#E9886C" d="M69.486 158.657a1.67 1.67 0 0 0-1.667 1.667 1.67 1.67 0 0 0 1.667 1.667c.918 0 1.666-.748 1.666-1.667s-.748-1.667-1.666-1.667zm0 5.334a3.671 3.671 0 0 1-3.667-3.667 3.67 3.67 0 0 1 3.667-3.667 3.67 3.67 0 0 1 3.666 3.667 3.67 3.67 0 0 1-3.666 3.667zm120.012-60.34a1.667 1.667 0 1 1-3.334-.002 1.667 1.667 0 0 1 3.334.002"/><path fill="#75C7D0" d="M133.486 57.324a2.334 2.334 0 1 1-4.668-.002 2.334 2.334 0 0 1 4.668.002"/></g></svg>