<?xml version="1.0" encoding="utf-8"?><svg xmlns="http://www.w3.org/2000/svg" width="250" height="250" viewBox="0 0 250 250"><g fill="none" fill-rule="evenodd"><path fill="#DEDEDD" d="M75.461 209.52h105.023v-4.002H75.461zM209.522 114.535H42.139v-9.433l83.692-38.199 83.691 38.199v9.433zm-83.691-52.029L38.139 102.53v16.005h175.383V102.53l-87.691-40.024z"/><path fill="#DEDEDD" d="M205.522 107.674L125.831 71.3l-79.692 36.374v2.861h15.653l64.039-29.23 64.038 29.23h15.653v-2.861"/><path fill="#475059" d="M39.139 212.52h173.384v-10.002H39.139v10.002zm-2 2h177.384v-14.002H37.139v14.002z"/><path fill="#475059" d="M76.461 204.52h103.023v-2.002H76.461v2.002zm-2 2h107.023v-6.002H74.461v6.002zm2 6h103.023v-2.002H76.461v2.002zm-2 2h107.023v-6.002H74.461v6.002zM210.523 115.535H41.139v-10.433h2v8.433h165.384v-7.791l-83.107-37.932.83-1.819 84.277 38.466v11.076"/><path fill="#F58E70" d="M136.551 45.479h3.995v-6h-11.999v6h8.004"/><path fill="#F58E70" d="M147.549 43.481h-5.003v3.998h-5.995v2.002h10.998l-2.002-2.94 2.002-3.06"/><path fill="#475059" d="M134.546 51.48h17.133l-3.334-5 3.334-5h-11.133v-4h-14v10h8v4zm20.869 2h-22.869v-4h-8v-14h18v4h12.869l-4.666 7 4.666 7z"/><path fill="#475059" d="M124.546 62.48h2v-14h-2z"/><path fill="#DEDEDD" d="M205.547 126.681l-13.028 13.027v-21.173h13.815l-.787 8.146"/><path fill="#DEDEDD" d="M195.519 118.533h-12.994v6h1.997v3.998h-1.997v6h1.997v5.001h-.003v40.989h.003v4.999h-1.997v6h1.997v3.997h-1.997v6h12.994v-82.984M208.507 124.533v-6h-3.993v82.984h3.993v-6h-1.996v-3.997h1.996v-6h-1.996v-4.999h.002v-40.989h-.002v-5.001h1.996v-6h-1.996v-3.998h1.996"/><path fill="#475059" d="M183.525 123.534h23.982v-4h-23.982v4zm-2 2h27.982v-8h-27.982v8zm2 7.997h23.982v-4h-23.982v4zm-2 2h27.982v-8h-27.982v8zm2 54.989h23.982v-4h-23.982v4zm-2 2h27.982v-8h-27.982v8zm2 7.998h23.982v-4h-23.982v4zm-2 2h27.982v-8h-27.982v8zm11.995-22.997h3.998v-38.989h-3.998v38.989zm-2 2h7.998v-42.989h-7.998v42.989zM189.518 181.521h-4.998v-2h2.998v-38.989h-2.998v-2h4.998v42.989M206.513 181.521h-4.997v-42.989h4.997v2h-2.997v38.989h2.997v2"/><path fill="#DEDEDD" d="M137.677 126.681l-13.027 13.027v-21.173h13.815l-.788 8.146"/><path fill="#DEDEDD" d="M125.477 118.533h-12.994v6h1.997v3.998h-1.997v6h1.997v5.001h-.003v40.989h.003v4.999h-1.997v6h1.997v3.997h-1.997v6h12.994v-82.984M138.465 124.533v-6h-3.993v82.984h3.993v-6h-1.996v-3.997h1.996v-6h-1.996v-4.999h.002v-40.989h-.002v-5.001h1.996v-6h-1.996v-3.998h1.996"/><path fill="#475059" d="M113.483 123.534h23.982v-4h-23.982v4zm-2 2h27.982v-8h-27.982v8zm2 7.997h23.982v-4h-23.982v4zm-2 2h27.982v-8h-27.982v8zm2 54.989h23.982v-4h-23.982v4zm-2 2h27.982v-8h-27.982v8zm2 7.998h23.982v-4h-23.982v4zm-2 2h27.982v-8h-27.982v8zm11.995-22.997h3.998v-38.989h-3.998v38.989zm-2 2h7.998v-42.989h-7.998v42.989zM119.476 181.521h-4.998v-2h2.998v-38.989h-2.998v-2h4.998v42.989M136.471 181.521h-4.997v-42.989h4.997v2h-2.997v38.989h2.997v2"/><path fill="#DEDEDD" d="M65.639 126.681l-13.028 13.027v-21.173h13.816l-.788 8.146"/><path fill="#DEDEDD" d="M55.435 118.533H42.441v6h1.996v3.998h-1.996v6h1.996v5.001h-.002v40.989h.002v4.999h-1.996v6h1.996v3.997h-1.996v6h12.994v-82.984M68.423 124.533v-6H64.43v82.984h3.993v-6h-1.996v-3.997h1.996v-6h-1.996v-4.999h.002v-40.989h-.002v-5.001h1.996v-6h-1.996v-3.998h1.996"/><path fill="#475059" d="M43.441 123.534h23.982v-4H43.441v4zm-2 2h27.982v-8H41.441v8zm2 7.997h23.982v-4H43.441v4zm-2 2h27.982v-8H41.441v8zm2 54.989h23.982v-4H43.441v4zm-2 2h27.982v-8H41.441v8zm2 7.998h23.982v-4H43.441v4zm-2 2h27.982v-8H41.441v8zm11.994-22.997h3.999v-38.989h-3.999v38.989zm-2 2h7.999v-42.989h-7.999v42.989zM49.434 181.521h-4.999v-2h2.999v-38.989h-2.999v-2h4.999v42.989M66.429 181.521h-4.997v-42.989h4.997v2h-2.997v38.989h2.997v2M38.554 103.44l-.83-1.82 23.274-10.622.83 1.819-23.274 10.623zm174.553 0L125.83 63.605 95.614 77.397l-.83-1.82 31.046-14.17 88.108 40.213-.831 1.82zm-2.584 12.095H41.139v-11.076l20.747-9.469.83 1.819-19.577 8.936v7.79h165.384v-7.791l-82.692-37.742L97.24 81.051l-.83-1.819 29.421-13.429 84.692 38.656v11.076z"/><path fill="#475059" d="M125.974 89.537c-4.135 0-7.498 3.364-7.498 7.498 0 4.135 3.363 7.498 7.498 7.498 4.134 0 7.498-3.363 7.498-7.498 0-4.134-3.364-7.498-7.498-7.498zm0 16.996c-5.238 0-9.498-4.261-9.498-9.498 0-5.237 4.26-9.498 9.498-9.498 5.237 0 9.498 4.261 9.498 9.498 0 5.237-4.261 9.498-9.498 9.498zm-50.472 38.972c-1.654 0-3 1.345-3 3 0 1.654 1.346 3 3 3h94.201l6.506-3-6.506-3H75.502zm94.641 8H75.502c-2.757 0-5-2.244-5-5 0-2.757 2.243-5 5-5h94.641l10.841 5-10.841 5z"/><path fill="#475059" d="M81.112 152.103h2v-7.598h-2z"/><path fill="#475059" d="M169.154 149.534l-87.042-.001v-2l87.042.001v2M64.301 84.611v.117c0 .8.312 1.552.878 2.117.566.565 1.288.89 2.118.874l.728-.002a2.994 2.994 0 0 0 2.986-2.99v-.116l-3.355-9.373-3.355 9.373zm2.991 5.108a4.958 4.958 0 0 1-3.526-1.459 4.954 4.954 0 0 1-1.465-3.532v-.464l5.355-14.962 5.355 14.962v.463a4.997 4.997 0 0 1-4.982 4.99l-.728.002h-.009z"/><path fill="#475059" d="M63.308 85.438h8.703v-2h-8.703zM78.343 71.132l-3.365-3.793H62.301v-2h13.575l2.467 2.78 2.468-2.78h13.49v2H81.709l-3.366 3.793M74.367 97.437h-2v-2.348l3.003-3.002V74.114h2v18.801l-3.003 3.003v1.519M84.239 97.437h-2v-1.524l-2.999-2.998V74.114h2v17.973l2.999 2.998v2.352"/><path fill="#475059" d="M74.914 71.243h6.782v-2h-6.782zM85.596 84.594c.038.742.344 1.433.874 1.961a2.966 2.966 0 0 0 2.112.874h.005l.728-.001a2.996 2.996 0 0 0 2.983-2.834l-3.352-9.683-3.35 9.683zm2.986 4.835a4.955 4.955 0 0 1-3.525-1.458 4.956 4.956 0 0 1-1.465-3.532v-.168l5.354-15.476 5.356 15.475v.168a5 5 0 0 1-4.983 4.99l-.728.001h-.009z"/><path fill="#475059" d="M84.598 85.438h8.704v-2h-8.704zM74.914 75.114h6.782v-2h-6.782zM76.37 93.501h3.87v-2h-3.87z"/><path fill="#48515A" d="M156.478 193.604h14v-2h-14v2zm-2 2h18v-6h-18v6zm5.573-14h8.097v-2h-1.946v-12h1.946v-2h-8.097v2h2.097v12h-2.097v2zm10.097 2h-12.097v-6h2.097v-8h-2.097v-6h12.097v6h-1.946v8h1.946v6z"/><path fill="#48515A" d="M167.202 169.604h-6.054a1 1 0 1 1 0-2h6.054a1 1 0 1 1 0 2m0 10h-6.054a1 1 0 1 1 0-2h6.054a1 1 0 1 1 0 2m-6.723-4.999h-20a1 1 0 1 1 0-2h20a1 1 0 1 1 0 2M213.49 67.537h2v-4h-2zM213.49 77.537h2v-4h-2zM217.49 71.537h4v-2h-4zM207.49 71.537h4v-2h-4z"/><path fill="#FFD15D" d="M221.49 147.165a3.984 3.984 0 1 1-7.969 0 3.984 3.984 0 0 1 7.969 0M36.492 90.037a3.5 3.5 0 1 1-7 0 3.5 3.5 0 0 1 7 0"/><path fill="#5FE0ED" d="M28.51 192.513v-29.968l62-.039v30.007h-62"/><path fill="#48515A" d="M62.163 184.392h-5.616c-1.771 0-3.212-1.448-3.212-3.23h2c0 .679.544 1.23 1.212 1.23h5.616c.845 0 1.533-.694 1.533-1.549v-.959c0-.846-.688-1.534-1.533-1.534h-5.537a3.539 3.539 0 0 1-3.534-3.534v-.961a3.538 3.538 0 0 1 3.534-3.533h5.951a2.788 2.788 0 0 1 2.785 2.785h-2a.786.786 0 0 0-.785-.785h-5.951c-.846 0-1.534.688-1.534 1.533v.961c0 .846.688 1.534 1.534 1.534h5.537a3.537 3.537 0 0 1 3.533 3.534v.959c0 1.957-1.585 3.549-3.533 3.549"/><path fill="#48515A" d="M58 187h2v-18h-2zM69.523 178.483h5.969v-2h-5.969zM69.461 182.514h5.969v-2h-5.969zM69.492 174.489h5.969v-2h-5.969zM43.527 178.621h5.969v-2h-5.969zM43.59 174.59h5.969v-2H43.59zM43.559 182.615h5.969v-2h-5.969z"/><path fill="#48515A" d="M32.492 188.514h54v-22h-54v22zm-2 2h58v-26h-58v26z"/><path fill="#FFD15D" d="M193.305 77.43a2.085 2.085 0 1 1 4.17 0 2.085 2.085 0 0 1-4.17 0m3.187-17.916c0-9.941-8.059-18-18-18s-18 8.059-18 18c0 9.942 8.059 18 18 18s18-8.058 18-18"/><path fill="#475059" d="M178.494 74.514h-.018a14.904 14.904 0 0 1-10.603-4.406 14.903 14.903 0 0 1-4.381-10.611c.011-8.265 6.739-14.983 15-14.983h.018c1.508.002 2.994.227 4.419.667l1.007.417a1 1 0 0 1-.772 1.845l-.917-.384a13.029 13.029 0 0 0-3.739-.545h-.016c-7.161 0-12.991 5.822-13 12.985a12.918 12.918 0 0 0 3.797 9.197 12.918 12.918 0 0 0 9.189 3.818h.016c3.466 0 6.726-1.348 9.18-3.797a12.914 12.914 0 0 0 3.818-9.188 13.012 13.012 0 0 0-2.958-8.272 1 1 0 1 1 1.543-1.271 15.018 15.018 0 0 1 3.415 9.545 14.905 14.905 0 0 1-4.405 10.602 14.903 14.903 0 0 1-10.593 4.381"/><path fill="#475059" d="M180.985 66.488h-5.558c-1.759 0-3.191-1.439-3.191-3.208a1 1 0 0 1 2 0c0 .666.535 1.208 1.191 1.208h5.558c.832 0 1.509-.684 1.509-1.524v-.95a1.51 1.51 0 0 0-1.509-1.508h-5.48a3.512 3.512 0 0 1-3.508-3.508v-.951a3.512 3.512 0 0 1 3.508-3.509h5.892a2.77 2.77 0 0 1 2.766 2.767 1 1 0 1 1-2 0 .768.768 0 0 0-.766-.767h-5.892a1.51 1.51 0 0 0-1.508 1.509v.951a1.51 1.51 0 0 0 1.508 1.508h5.48a3.513 3.513 0 0 1 3.509 3.508v.95a3.52 3.52 0 0 1-3.509 3.524"/><path fill="#475059" d="M178 69.514a1 1 0 0 1-1-1v-18a1 1 0 1 1 2 0v18a1 1 0 0 1-1 1m8.502-19.99a.996.996 0 0 1-.381-.08.994.994 0 0 1 0-1.84.958.958 0 0 1 .771 0c.059.02.11.05.17.09.049.03.099.08.15.12.09.1.17.2.22.33.05.12.07.25.07.38s-.02.26-.07.38-.13.229-.22.33c-.051.04-.101.09-.15.12a.719.719 0 0 1-.17.09.83.83 0 0 1-.191.06c-.069.01-.13.02-.199.02"/></g></svg>