<?xml version="1.0" encoding="utf-8"?><svg xmlns="http://www.w3.org/2000/svg" width="250" height="250" viewBox="0 0 250 250"><g fill="none" fill-rule="evenodd"><path fill="#FACD60" d="M122.213 58.104v24.003H104.19v89.998H56.212V58.104h66.001M178.99 85.011v20h20"/><path fill="#DDDED9" d="M148.155 88.011h10.991l-.012 98.992h-48.979v-8.992h38s-.166-89.833 0-90"/><path fill="#434A4F" d="M175.093 81.079a.995.995 0 0 1-.707-.293l-5.432-5.43h15.449c4.582 0 8.309-3.728 8.309-8.31 0-4.582-3.727-8.31-8.309-8.31a1 1 0 1 1 0-2c5.684 0 10.309 4.625 10.309 10.31 0 5.685-4.625 10.31-10.309 10.31h-10.619l2.016 2.016a.999.999 0 0 1-.707 1.707m-13.034-3.724c-5.685 0-10.31-4.625-10.31-10.31 0-5.685 4.625-10.31 10.309-10.31l10.62.001-2.016-2.017a.999.999 0 1 1 1.414-1.414l5.43 5.431-15.448-.001c-4.582 0-8.309 3.728-8.309 8.31 0 4.582 3.728 8.31 8.31 8.31a1 1 0 1 1 0 2m-16.069 98.656h-21a1 1 0 1 1 0-2h19V75.425l-19.414-19.414H53.99v118h45a1 1 0 1 1 0 2h-47v-122h73.414l20.586 20.586v101.414"/><path fill="#434A4F" d="M144.99 76.011h-21v-21a1 1 0 1 1 2 0v19h19a1 1 0 0 1 0 2m55 130h-94v-122h15a1 1 0 0 1 0 2h-13v118h90v-98.586l-19.414-19.414H152.99a1 1 0 1 1 0-2h26.414l20.586 20.586v101.414"/><path fill="#434A4F" d="M119.226 175.011l4.764 2.382v-4.764l-4.764 2.382zm6.764 5.618l-11.237-5.618 11.237-5.618v11.236zm-4-98v4.764l4.763-2.382-4.763-2.382zm-2 8V79.393l11.236 5.618-11.236 5.618zm29-4.618c-.13 0-.26-.02-.38-.08-.13-.05-.231-.12-.33-.21-.181-.19-.29-.44-.29-.71 0-.13.03-.26.08-.38s.12-.23.21-.33c.099-.09.2-.16.33-.21.18-.08.38-.1.569-.06.071.01.13.03.191.06.059.02.12.05.179.09.05.03.101.08.151.12.09.1.16.21.21.33.049.12.08.25.08.38 0 .07-.01.13-.021.2a.633.633 0 0 1-.059.18.797.797 0 0 1-.09.18l-.12.15-.151.12a.751.751 0 0 1-.179.09.61.61 0 0 1-.191.06c-.059.01-.13.02-.189.02m-46 90c-.13 0-.26-.03-.38-.08-.13-.05-.231-.12-.33-.21-.09-.101-.16-.21-.21-.33a.826.826 0 0 1-.08-.38c0-.13.03-.26.08-.38s.12-.23.21-.33a1.005 1.005 0 0 1 1.09-.21c.059.02.12.05.179.09.05.03.101.08.151.12.179.19.29.45.29.71 0 .13-.021.26-.08.38-.05.12-.12.229-.21.33-.101.09-.21.16-.33.21-.12.05-.25.08-.38.08m12.025-68.992c-1.102 0-2 .897-2 2v2c0 1.103.898 2 2 2 1.103 0 2-.897 2-2v-2c0-1.103-.897-2-2-2zm0 8c-2.206 0-4-1.795-4-4v-2c0-2.206 1.794-4 4-4s4 1.794 4 4v2c0 2.205-1.794 4-4 4zm9 0a1 1 0 0 1-1-1v-7h-1a1 1 0 1 1 0-2h3v9a1 1 0 0 1-1 1m6 0a1 1 0 0 1-1-1v-7h-1a1 1 0 1 1 0-2h3v9a1 1 0 0 1-1 1m7-8c-1.102 0-2 .897-2 2v2c0 1.103.898 2 2 2 1.103 0 2-.897 2-2v-2c0-1.103-.897-2-2-2zm0 8c-2.206 0-4-1.795-4-4v-2c0-2.206 1.794-4 4-4s4 1.794 4 4v2c0 2.205-1.794 4-4 4zm-16 5c-1.102 0-2 .897-2 2v2.001c0 1.102.898 2 2 2 1.103 0 2-.898 2-2v-2.001c0-1.103-.897-2-2-2zm0 8.001c-2.206 0-4-1.794-4-4v-2.001c0-2.205 1.794-4 4-4s4 1.795 4 4v2.001c0 2.206-1.794 4-4 4zm9 0a1 1 0 0 1-1-1v-7.001h-1a1 1 0 1 1 0-2h3v9.001a1 1 0 0 1-1 1m7-8.001c-1.102 0-2 .897-2 2v2.001c0 1.102.898 2 2 2 1.103 0 2-.898 2-2v-2.001c0-1.103-.897-2-2-2zm0 8.001c-2.206 0-4-1.794-4-4v-2.001c0-2.205 1.794-4 4-4s4 1.795 4 4v2.001c0 2.206-1.794 4-4 4zm-23 0a1 1 0 0 1-1-1v-7.001h-1a1 1 0 1 1 0-2h3v9.001a1 1 0 0 1-1 1m7.004 5.015c-1.102 0-2 .897-2 2v2c0 1.102.898 2 2 2 1.103 0 2-.898 2-2v-2c0-1.103-.897-2-2-2zm0 8c-2.206 0-4-1.794-4-4v-2c0-2.207 1.794-4 4-4s4 1.793 4 4v2c0 2.206-1.794 4-4 4zm-7.01 0a1 1 0 0 1-1-1v-7h-1a1 1 0 0 1 0-2h3v9a1 1 0 0 1-1 1m25.012 0a1 1 0 0 1-1-1v-7h-1a1 1 0 1 1 0-2h3v9a1 1 0 0 1-1 1m-8.009-8c-1.102 0-2 .897-2 2v2c0 1.102.898 2 2 2 1.103 0 2-.898 2-2v-2c0-1.103-.897-2-2-2zm0 8c-2.206 0-4-1.794-4-4v-2c0-2.207 1.794-4 4-4s4 1.793 4 4v2c0 2.206-1.794 4-4 4zm-5.99 5.007c-1.103 0-2 .898-2 2v2c0 1.103.897 2 2 2s2-.897 2-2v-2c0-1.102-.897-2-2-2zm0 8c-2.206 0-4-1.794-4-4v-2c0-2.206 1.794-4 4-4s4 1.794 4 4v2c0 2.206-1.794 4-4 4zm-10.007-8c-1.102 0-2 .898-2 2v2c0 1.103.898 2 2 2 1.103 0 2-.897 2-2v-2c0-1.102-.897-2-2-2zm0 8c-2.206 0-4-1.794-4-4v-2c0-2.206 1.794-4 4-4s4 1.794 4 4v2c0 2.206-1.794 4-4 4zm18.002 0a1 1 0 0 1-1-1v-7h-1a1 1 0 1 1 0-2h3v9a1 1 0 0 1-1 1m6.004 0a1 1 0 0 1-1-1v-7h-1a1 1 0 1 1 0-2h3v9a1 1 0 0 1-1 1M162.99 134.011h24v-2h-24zM162.99 138.011h24v-2h-24zM162.99 142.011h24v-2h-24zM162.99 158.011h24v-2h-24zM162.99 162.011h24v-2h-24zM162.99 166.011h24v-2h-24z"/><path fill="#42494E" d="M94.303 180.684l-1.902-.619.329-1.012-1.274-.415a3.618 3.618 0 0 1-2.534-3.493 3.615 3.615 0 0 1 2.54-3.487l1.276-.414-.7-2.162-1.276.413c-1.542.499-3.151-.025-4.101-1.336a3.615 3.615 0 0 1 .004-4.315l.79-1.085-1.838-1.337-.789 1.085c-.955 1.31-2.569 1.827-4.105 1.329a3.617 3.617 0 0 1-2.533-3.493l.002-1.342-2.273-.002v1.342a3.618 3.618 0 0 1-2.54 3.487 3.617 3.617 0 0 1-4.102-1.336l-.787-1.086-1.839 1.334.787 1.085c.951 1.312.948 3.005-.005 4.315-.954 1.31-2.563 1.827-4.103 1.329l-1.277-.416-.328 1.01-1.902-.619.949-2.912 3.177 1.035c.849.276 1.521-.13 1.867-.604.346-.474.528-1.24.003-1.965l-1.963-2.704 5.079-3.681 1.961 2.705c.524.724 1.307.787 1.867.608.558-.181 1.155-.692 1.156-1.587l.002-3.342 6.273.006-.004 3.342c-.001.895.595 1.407 1.153 1.589.557.185 1.342.119 1.867-.605l1.967-2.7 5.071 3.691-1.966 2.702c-.527.722-.347 1.488-.002 1.963.343.474 1.015.883 1.865.608l3.18-1.03 1.932 5.968-3.178 1.029c-.852.275-1.156 1-1.157 1.587 0 .586.302 1.311 1.153 1.589l3.177 1.036-.949 2.912"/><path fill="#42494E" d="M85.099 177.76l-1.902-.619c1.106-3.396-.755-7.059-4.15-8.164a6.44 6.44 0 0 0-4.942.383 6.433 6.433 0 0 0-3.222 3.765l-1.902-.619a8.422 8.422 0 0 1 4.218-4.929 8.423 8.423 0 0 1 6.467-.502c4.444 1.448 6.881 6.242 5.433 10.685"/><path fill="#42494E" d="M77.072 183.545a8.49 8.49 0 0 1-2.637-.422c-4.444-1.449-6.88-6.243-5.432-10.686l1.903.619a6.482 6.482 0 0 0 4.148 8.165 6.481 6.481 0 0 0 8.165-4.148l1.903.619a8.427 8.427 0 0 1-4.219 4.929 8.436 8.436 0 0 1-3.831.924"/><path fill="#42494E" d="M80.179 193.201l-6.271-.007.003-3.341c.001-.896-.595-1.408-1.153-1.59-.558-.181-1.342-.118-1.867.606l-1.968 2.7-5.069-3.692 1.966-2.702c.526-.723.346-1.488.002-1.963-.344-.474-1.012-.885-1.866-.608l-3.179 1.028-1.932-5.967 3.179-1.028c.851-.275 1.155-1.001 1.155-1.587.001-.587-.302-1.312-1.152-1.591l-3.176-1.035 1.065-3.269 1.903.619-.446 1.369 1.274.415a3.616 3.616 0 0 1 2.532 3.494 3.615 3.615 0 0 1-2.54 3.487l-1.274.413.699 2.163 1.276-.413c1.542-.499 3.151.025 4.102 1.336a3.618 3.618 0 0 1-.005 4.315l-.79 1.085 1.837 1.338.79-1.085c.953-1.309 2.564-1.833 4.104-1.329a3.614 3.614 0 0 1 2.533 3.493l-.001 1.341 2.271.003.002-1.342a3.616 3.616 0 0 1 2.54-3.488 3.616 3.616 0 0 1 4.101 1.338l.788 1.086 1.84-1.334-.788-1.086a3.612 3.612 0 0 1 .005-4.313c.953-1.31 2.562-1.83 4.104-1.33l1.275.416.495-1.517 1.902.621-1.115 3.417-3.176-1.035c-.86-.28-1.524.131-1.868.605-.346.474-.528 1.239-.003 1.963l1.962 2.705-5.079 3.681-1.961-2.705c-.525-.723-1.307-.789-1.866-.609-.558.18-1.155.692-1.156 1.587l-.004 3.342"/><path fill="#42494E" d="M76.997 172.199c-1.655 0-3 1.345-3 3 0 1.654 1.345 3 3 3 1.654 0 3-1.346 3-3 0-1.655-1.346-3-3-3zm0 8c-2.757 0-5-2.244-5-5 0-2.757 2.243-5 5-5 2.756 0 5 2.243 5 5 0 2.756-2.244 5-5 5z"/><path fill="#FACD60" d="M92.99 200.011a3 3 0 1 1-6 0 3 3 0 0 1 6 0m-46-36a3 3 0 1 1-6 0 3 3 0 0 1 6 0m148-81a2 2 0 1 0 3.999.001 2 2 0 0 0-3.999-.001"/><path fill="#434A4F" d="M67.991 102.011h24v-2h-24zM67.991 106.011h24v-2h-24zM67.991 110.011h24v-2h-24zM67.991 126.011h24v-2h-24zM67.991 130.011h24v-2h-24zM67.991 134.011h24v-2h-24zM34.947 130.017h2v-4h-2zM34.947 140.017h2v-4h-2zM38.947 134.017h4v-2h-4zM28.947 134.017h4v-2h-4zM213.053 120.011h2v-4h-2zM213.053 130.011h2v-4h-2zM217.053 124.011h4v-2h-4zM207.053 124.011h4v-2h-4z"/><path fill="#FACD60" d="M204.996 103.023a2 2 0 1 0 3.999.001 2 2 0 0 0-3.999-.001"/><path fill="#434A4F" d="M183.036 189.052h2v-4h-2zM183.036 199.052h2v-4h-2zM187.036 193.052h4v-2h-4zM177.036 193.052h4v-2h-4z"/><path fill="#FACD60" d="M114.942 45.989a2 2 0 1 0 4 0 2 2 0 0 0-4 0"/></g></svg>