<?xml version="1.0" encoding="utf-8"?><svg xmlns="http://www.w3.org/2000/svg" width="250" height="250" viewBox="0 0 250 250"><g fill="none" fill-rule="evenodd"><path fill="#FACD60" d="M44.5 137.24c0-9.941 8.059-18 18-18s18 8.059 18 18-8.059 18-18 18-18-8.059-18-18"/><path fill="#42494E" d="M62.5 152.24c-8.264 0-14.991-6.717-15.001-14.983a15.028 15.028 0 0 1 3.415-9.546 1 1 0 1 1 1.544 1.272 13.014 13.014 0 0 0-2.958 8.272c.008 7.162 5.838 12.985 13 12.985h.015c7.168-.008 12.993-5.847 12.984-13.016-.008-7.162-5.839-12.984-13-12.984h-.015a13.059 13.059 0 0 0-3.83.577l-.825.351a1 1 0 0 1-.773-1.843l.917-.385a15.022 15.022 0 0 1 4.508-.7h.018c8.263 0 14.991 6.717 15 14.982.01 8.272-6.711 15.008-14.982 15.018H62.5"/><path fill="#42494E" d="M65.487 144.213h-5.558a3.202 3.202 0 0 1-3.191-3.207 1 1 0 0 1 2 0 1.2 1.2 0 0 0 1.191 1.207h5.558c.832 0 1.508-.683 1.508-1.523v-.95a1.51 1.51 0 0 0-1.508-1.508h-5.481a3.512 3.512 0 0 1-3.508-3.508v-.952a3.512 3.512 0 0 1 3.508-3.508h5.892a2.77 2.77 0 0 1 2.767 2.768 1 1 0 0 1-2 0 .769.769 0 0 0-.767-.768h-5.892a1.51 1.51 0 0 0-1.508 1.508v.952a1.51 1.51 0 0 0 1.508 1.508h5.481a3.512 3.512 0 0 1 3.508 3.508v.95c0 1.942-1.574 3.523-3.508 3.523"/><path fill="#42494E" d="M63 147.24a1 1 0 0 1-1-1v-18a1 1 0 1 1 2 0v18a1 1 0 0 1-1 1m-8.51-19.99c-.27 0-.52-.1-.71-.291a.986.986 0 0 1-.29-.709c0-.13.02-.26.07-.38.05-.13.13-.231.22-.33.37-.371 1.04-.371 1.41 0 .1.099.17.21.22.33.05.12.08.25.08.38 0 .259-.11.52-.3.709a.964.964 0 0 1-.7.291"/><path fill="#75C7D0" d="M140.501 138.239L122.5 156.24l-18.001-18.001H60.5v60.001h124v-60.001h-43.999"/><path fill="#434A4F" d="M128.325 181.404h-11.048c-2.951 0-5.353-2.416-5.353-5.387h2c0 1.867 1.505 3.387 3.353 3.387h11.048c2.197 0 3.985-1.802 3.985-4.016V173.5a3.99 3.99 0 0 0-3.985-3.985h-10.893a5.991 5.991 0 0 1-5.985-5.984v-1.891c0-3.3 2.685-5.984 5.985-5.984h11.709a4.517 4.517 0 0 1 4.512 4.511h-2a2.515 2.515 0 0 0-2.512-2.511h-11.709a3.99 3.99 0 0 0-3.985 3.984v1.891a3.99 3.99 0 0 0 3.985 3.984h10.893c3.3 0 5.985 2.685 5.985 5.985v1.888c0 3.318-2.685 6.016-5.985 6.016"/><path fill="#434A4F" d="M122.5 156.24v30h2v-32l-2 2M142.5 165.24h14v-2h-14zM142.5 169.24h14v-2h-14zM142.5 173.24h14v-2h-14zM92.5 165.24h14v-2h-14zM92.5 169.24h14v-2h-14zM92.5 173.24h14v-2h-14zM164.5 194.259h-2c0-9.925 8.074-18 18-18v2c-8.823 0-16 7.178-16 16M64.44 160.238v-2c8.822 0 16-7.178 16-16h2c0 9.925-8.075 18-18 18m18 34.021h-2c0-8.822-7.178-16-16-16v-2c9.925 0 18 8.075 18 18"/><path fill="#434A4F" d="M137.501 141.239l-2 2H179.5v50.001h-114v-50.001h43.999l-2-2H63.5v54.001h118v-54.001h-43.999"/><path fill="#FACD60" d="M157.5 197.24c0-13.254 10.745-24 24-24s24 10.746 24 24c0 13.255-10.745 24-24 24s-24-10.745-24-24"/><path fill="#42494E" d="M181.499 216.907a19.535 19.535 0 0 1-13.89-5.744 19.537 19.537 0 0 1-5.776-13.901 19.695 19.695 0 0 1 4.476-12.515.999.999 0 1 1 1.544 1.271 17.692 17.692 0 0 0-4.02 11.242 17.553 17.553 0 0 0 5.188 12.487 17.553 17.553 0 0 0 12.478 5.16h.021c9.741-.012 17.657-7.947 17.646-17.688a17.557 17.557 0 0 0-5.189-12.486 17.553 17.553 0 0 0-12.477-5.16h-.021a17.696 17.696 0 0 0-5.205.785l-1.131.479a1 1 0 0 1-.772-1.845l1.222-.512a19.714 19.714 0 0 1 5.883-.907h.023a19.535 19.535 0 0 1 13.89 5.744 19.54 19.54 0 0 1 5.777 13.9c.012 10.844-8.8 19.676-19.644 19.69h-.023"/><path fill="#42494E" d="M185.483 206.205h-7.412c-2.161 0-3.92-1.769-3.92-3.944a1 1 0 0 1 2 0c0 1.072.862 1.944 1.92 1.944h7.412c1.292 0 2.344-1.062 2.344-2.366v-1.266a2.347 2.347 0 0 0-2.344-2.344h-7.308a4.349 4.349 0 0 1-4.344-4.344v-1.268a4.35 4.35 0 0 1 4.344-4.345h7.855a3.36 3.36 0 0 1 3.357 3.356 1 1 0 1 1-2 0c0-.748-.609-1.356-1.357-1.356h-7.855a2.347 2.347 0 0 0-2.344 2.345v1.268a2.347 2.347 0 0 0 2.344 2.344h7.308a4.349 4.349 0 0 1 4.344 4.344v1.266c0 2.408-1.949 4.366-4.344 4.366"/><path fill="#42494E" d="M182 210.24a1 1 0 0 1-1-1v-24a1 1 0 1 1 2 0v24a1 1 0 0 1-1 1m-11.19-26.651a.993.993 0 0 1-.7-.299.97.97 0 0 1-.29-.701 1.013 1.013 0 0 1 .61-.929c.25-.101.52-.101.77 0 .12.049.23.13.32.219.19.191.3.441.3.71 0 .26-.11.51-.3.701a.998.998 0 0 1-.71.299"/><path fill="#434A4F" d="M122.5 157.654L86.086 121.24H101.5V34.239h2v89.001H90.914l31.586 31.586 31.586-31.586H141.5V34.239h2v87.001h15.414L122.5 157.654M142.5 32.24c-.13 0-.26-.03-.38-.08s-.23-.12-.33-.21c-.09-.101-.16-.21-.21-.33a1 1 0 0 1-.08-.38c0-.26.11-.521.29-.71a1.033 1.033 0 0 1 1.42 0c.18.189.29.45.29.71 0 .13-.02.259-.08.38-.05.12-.12.229-.21.33a.994.994 0 0 1-.71.29m-40 0c-.13 0-.26-.03-.38-.08s-.23-.12-.33-.21c-.09-.101-.16-.21-.21-.33a1 1 0 0 1-.08-.38c0-.13.03-.26.08-.38.05-.13.12-.231.21-.33.1-.09.2-.16.33-.21a.991.991 0 0 1 .76 0c.13.05.24.12.33.21.18.189.29.45.29.71 0 .13-.02.259-.08.38-.05.12-.12.229-.21.33-.1.09-.21.16-.33.21-.12.05-.25.08-.38.08"/><path fill="#434A4F" d="M143.156 116.589l-17.828-15.949h7.218V71.237h2v31.403h-3.983l12.579 11.254 11.646-10.639h-4.023V71.852h2v29.403h7.178l-16.787 15.334"/><path fill="#434A4F" d="M151.55 69.24c-.13 0-.26-.03-.39-.08a.966.966 0 0 1-.32-.22.954.954 0 0 1-.29-.7.986.986 0 0 1 .29-.71c.37-.37 1.04-.37 1.41 0 .1.09.17.2.22.33.05.12.08.25.08.38a.98.98 0 0 1-.3.7.995.995 0 0 1-.7.3m-18.01 0c-.27 0-.52-.111-.71-.3a.954.954 0 0 1-.29-.7.986.986 0 0 1 .29-.71c.37-.37 1.04-.37 1.41 0 .1.09.17.2.22.33a.963.963 0 0 1-.22 1.08c-.19.189-.44.3-.7.3m-37.03 13c-.14 0-.26-.03-.38-.08a.933.933 0 0 1-.33-.21c-.09-.101-.17-.21-.22-.33a.99.99 0 0 1-.07-.38c0-.13.02-.26.07-.38s.13-.231.22-.33a.997.997 0 0 1 1.09-.21.988.988 0 0 1 .54.54c.05.12.08.25.08.38a1 1 0 0 1-.08.38c-.05.12-.12.229-.22.33a.954.954 0 0 1-.7.29m-.002 31.479a1 1 0 0 1-1-1V89.11a1 1 0 1 1 2 0v23.609a1 1 0 0 1-1 1m6.002-42.559a.987.987 0 0 1-.38-.071 1.165 1.165 0 0 1-.33-.219c-.09-.1-.16-.201-.21-.33a1 1 0 0 1-.08-.38c0-.13.03-.26.08-.38s.12-.231.21-.32c.37-.38 1.05-.38 1.42 0 .09.089.16.2.21.32a.995.995 0 0 1 .01.76c-.05.129-.13.23-.22.33-.1.09-.2.17-.33.219a.953.953 0 0 1-.38.071m.001 31.481a1 1 0 0 1-1-1V78.032a1 1 0 1 1 2 0v23.609a1 1 0 0 1-1 1M156.54 62.24a.97.97 0 0 1-.7-.29c-.19-.191-.3-.441-.3-.71 0-.26.11-.521.3-.71.09-.09.2-.16.32-.21a.993.993 0 0 1 1.09.21c.19.189.29.45.29.71a.993.993 0 0 1-1 1m.003 28.394a1 1 0 0 1-1-1V66.025a1 1 0 1 1 2 0v23.609a1 1 0 0 1-1 1M92.5 69.16a.988.988 0 0 1-.92-.62 1 1 0 0 1-.08-.38.995.995 0 0 1 .3-.7c.27-.291.72-.371 1.09-.22.12.05.23.12.32.22.1.089.17.2.22.32.05.12.08.25.08.38a1 1 0 0 1-.08.38.994.994 0 0 1-.93.62m.005 31.48a1 1 0 0 1-1-1V76.031a1 1 0 1 1 2 0V99.64a1 1 0 0 1-1 1M88.5 86.169c-.13 0-.26-.03-.38-.08a.973.973 0 0 1-.33-.21 1.029 1.029 0 0 1-.29-.71c0-.259.11-.519.29-.709.28-.27.73-.361 1.1-.211.12.05.23.121.32.211.09.099.17.209.22.33.05.12.07.25.07.379a.986.986 0 0 1-1 1m.003 31.482a1 1 0 0 1-1-1V93.04a1 1 0 0 1 2 0v23.611a1 1 0 0 1-1 1M106.51 67.16a.97.97 0 0 1-.7-.29c-.1-.1-.17-.21-.22-.33a1 1 0 0 1-.08-.38c0-.13.03-.26.08-.38s.12-.231.22-.33c.37-.37 1.04-.37 1.41 0 .09.099.17.21.22.33.05.12.07.25.07.38a.99.99 0 0 1-.07.38c-.05.12-.13.23-.22.33a.994.994 0 0 1-.71.29m.004 31.479a1 1 0 0 1-1-1V74.03a1 1 0 1 1 2 0v23.609a1 1 0 0 1-1 1M129.53 60.24a1.046 1.046 0 0 1-.71-.29.993.993 0 0 1-.29-.71c0-.13.02-.26.07-.38.06-.12.13-.231.22-.33a1.016 1.016 0 0 1 1.09-.21c.12.05.23.12.33.21.09.099.16.21.21.33.05.12.08.25.08.38 0 .269-.11.519-.29.71-.19.189-.45.29-.71.29m-.003 28.393a1 1 0 0 1-1-1v-23.61a1 1 0 1 1 2 0v23.61a1 1 0 0 1-1 1M58.706 98.508h2v-4h-2zM58.706 108.508h2v-4h-2zM52.706 102.508h4v-2h-4zM62.706 102.508h4v-2h-4zM182.5 118.521h2v-4h-2zM182.5 128.521h2v-4h-2zM176.5 122.521h4v-2h-4zM186.5 122.521h4v-2h-4zM168.772 78.497h2v-4h-2zM168.772 88.497h2v-4h-2zM162.772 82.497h4v-2h-4zM172.772 82.497h4v-2h-4z"/><path fill="#75C7D0" d="M165.694 101.788a4 4 0 1 0 8 0 4 4 0 0 0-8 0"/><path fill="#FACD60" d="M45.293 174.129a2.03 2.03 0 1 0 4.06 0 2.03 2.03 0 0 0-4.06 0"/><path fill="#434A4F" d="M118.5 34.759a.977.977 0 0 1-.38-.08c-.12-.05-.23-.12-.33-.21a.986.986 0 0 1-.21-1.09c.05-.12.12-.229.21-.33.1-.089.2-.16.33-.21.36-.149.81-.069 1.09.21.09.101.16.21.21.33a.995.995 0 0 1-.21 1.09.986.986 0 0 1-.71.29m0 31.481a1 1 0 0 1-1-1V41.63a1 1 0 0 1 2 0v23.61a1 1 0 0 1-1 1m20-24c-.13 0-.26-.03-.38-.08s-.23-.12-.33-.21c-.09-.101-.16-.21-.21-.33a1 1 0 0 1-.08-.38c0-.13.03-.26.08-.38.05-.13.12-.231.21-.33a.997.997 0 0 1 1.09-.21c.12.05.23.12.33.21.18.189.29.45.29.71 0 .269-.1.519-.29.71-.19.189-.45.29-.71.29m0 31.479a1 1 0 0 1-1-1V49.11a1 1 0 1 1 2 0v23.609a1 1 0 0 1-1 1m-42-42.96a.986.986 0 0 1-.71-.29c-.09-.099-.16-.21-.21-.33a.991.991 0 0 1-.08-.38c0-.13.03-.26.08-.38s.12-.229.21-.33l.15-.12c.06-.04.12-.069.18-.09a.956.956 0 0 1 .76 0c.12.05.23.121.33.21.18.191.29.45.29.71 0 .13-.02.261-.08.38-.05.12-.12.231-.21.33a.986.986 0 0 1-.71.29m0 31.481a1 1 0 0 1-1-1V37.63a1 1 0 0 1 2 0v23.61a1 1 0 0 1-1 1"/></g></svg>