<?xml version="1.0" encoding="utf-8"?><svg xmlns="http://www.w3.org/2000/svg" width="250" height="250" viewBox="0 0 250 250"><g fill="none" fill-rule="evenodd"><path fill="#5FE0ED" d="M195.054 123.929h.01-.01zm-139.013 9.002h138.012v-9.002H56.041v9.002zm133.012-44.002h8V61.927a4 4 0 0 0-4-4h-68.012L56.174 73.231a4.001 4.001 0 0 0-3.133 3.905v11.793h136.012"/><path fill="#5FE0ED" d="M195.053 120.929H55.041a2 2 0 0 0-2 2v13.002h144.012v-13.002a2 2 0 0 0-2-2m19.482 11.486a2 2 0 1 1-3.999.001 2 2 0 0 1 3.999-.001M104.469 42.361a2 2 0 1 1-3.999.001 2 2 0 0 1 3.999-.001"/><path fill="#DEDEDD" d="M61.041 100.929h128.011v-12H61.041z"/><path fill="#475059" d="M190.053 101.929H81.042v-2h107.011v-10H62.042v11h-2v-13h130.011v14"/><path fill="#475059" d="M62.042 120.929h-2v-21h22v1c0 3.86 3.14 7 6.999 7h21.001v4h80.011v8.998h-2v-6.998h-80.011v-4H89.041c-4.624 0-8.445-3.506-8.944-8H62.042v19M41.502 203.381h-2v-19.914l48.634-41.085h121.369v23.977h-2v-21.977H88.867l-47.365 40.013v18.986"/><path fill="#475059" d="M89.502 184.931h-49v-2h47v-39.549h2v41.549"/><path fill="#475059" d="M82.042 177.931h-2v-3h-10v3h-2v-5h14v5M43.502 182.381h-2v-38h43.999v2H43.502v36M98.505 175.385h52v-2h-52zM162.505 175.385h14v-2h-14zM70.505 196.381h106v-2h-106zM70.505 200.381h106v-2h-106z"/><path fill="#FFD15D" d="M45.502 148.381v27.51l32.346-27.51H45.502"/><path fill="#475059" d="M40.505 207.391c-.13 0-.26-.03-.38-.08s-.23-.12-.33-.21c-.09-.101-.16-.21-.21-.33a.995.995 0 0 1-.08-.38c0-.13.03-.26.08-.38.05-.13.12-.23.21-.33.24-.23.58-.34.91-.27.06.01.12.03.18.06.06.02.12.05.17.09.06.03.11.08.16.12.09.1.16.2.21.33.05.12.08.25.08.38s-.03.26-.08.38-.12.229-.21.33a.99.99 0 0 1-.71.29m168-37.02a1 1 0 0 1-.92-.621.99.99 0 0 1-.08-.379c0-.13.03-.26.08-.39.05-.12.12-.231.21-.32.24-.23.58-.34.9-.27.07.01.13.03.19.05.06.03.12.059.17.1.06.03.11.07.16.12.09.089.16.2.21.32.06.13.08.26.08.39 0 .129-.02.26-.08.379a1 1 0 0 1-.92.621M70.505 204.39h106v-2h-106zM206.534 212.544h12v-20h-12v20zm-2 2h16v-24h-16v24z"/><path fill="#475059" d="M205.534 210.544h-5v-24h16v5h-2v-3h-12v20h3v2"/><path fill="#475059" d="M201.534 206.544h-5v-24h16v5h-2v-3h-12v20h3v2M172.509 40.456H152.51v-5h2v3h15.999v-3h2v5"/><path fill="#475059" d="M163.509 67.462a3 3 0 0 1-2.529-1.386 3.002 3.002 0 0 1-4.471-2.615V62.29a3.002 3.002 0 0 1-4-2.83V45.323c0-.973.32-1.937.901-2.716.326-.436.505-.975.505-1.519v-1.543h2v1.543c0 .973-.321 1.938-.903 2.716a2.563 2.563 0 0 0-.503 1.519V59.46a1 1 0 0 0 2 0v-7.004h2v11.005a1 1 0 0 0 2 0V52.456h2v12.006a1 1 0 0 0 2 0V52.456h2v9.937a1.032 1.032 0 0 0 2.063 0l-.005-14.34 3.095.004 1.542 3.32c.325.7.908 1.219 1.64 1.462.423.14.862.176 1.286.112l-4.37-9.228-2.284-2.405v-1.857h2v1.058l2.023 2.204 5.319 11.232-.834.451a4.788 4.788 0 0 1-3.769.332 4.785 4.785 0 0 1-2.825-2.519l-.818-1.763v11.937a3.034 3.034 0 0 1-4.157 2.814 3.005 3.005 0 0 1-2.906 2.255"/><path fill="#48515A" d="M35.466 64.403h2v-4h-2zM35.466 74.403h2v-4h-2zM39.466 68.403h4v-2h-4zM29.466 68.403h4v-2h-4zM211.56 97.433h2v-4h-2zM211.56 107.433h2v-4h-2zM215.56 101.433h4v-2h-4zM205.56 101.433h4v-2h-4z"/><path fill="#FFD15D" d="M35.428 212.463a2 2 0 1 1-3.999.001 2 2 0 0 1 3.999-.001"/><path fill="#475059" d="M67.505 45.545a3.85 3.85 0 0 0-3.846 3.846 3.85 3.85 0 0 0 3.846 3.846 3.85 3.85 0 0 0 3.846-3.846 3.85 3.85 0 0 0-3.846-3.846zm0 9.692a5.853 5.853 0 0 1-5.846-5.846 5.853 5.853 0 0 1 5.846-5.846 5.852 5.852 0 0 1 5.846 5.846 5.852 5.852 0 0 1-5.846 5.846z"/><path fill="#475059" d="M67.505 59.391a9.92 9.92 0 0 1-7.205-3.065 9.933 9.933 0 0 1-2.788-7.324c.198-5.188 4.416-9.407 9.605-9.603 2.746-.097 5.346.885 7.323 2.787a9.92 9.92 0 0 1 3.065 7.205v2.77a3.08 3.08 0 0 1-3.077 3.077 3.081 3.081 0 0 1-3.077-3.077v-7.616h2v7.616a1.08 1.08 0 0 0 1.077 1.077c.594 0 1.077-.484 1.077-1.077v-2.77a7.936 7.936 0 0 0-2.453-5.765 7.927 7.927 0 0 0-5.859-2.229c-4.081.155-7.527 3.601-7.681 7.682a7.94 7.94 0 0 0 2.23 5.86 7.933 7.933 0 0 0 5.763 2.452 7.951 7.951 0 0 0 5.035-1.782l1.26 1.553a9.956 9.956 0 0 1-6.295 2.229"/></g></svg>