<?xml version="1.0" encoding="utf-8"?><svg xmlns="http://www.w3.org/2000/svg" width="250" height="250" viewBox="0 0 250 250"><g fill="none" fill-rule="evenodd"><path fill="#5FE0ED" d="M29 187h21v-46H29z"/><path fill="#DEDEDD" d="M94.94 182h-.003l.003-.158a3.921 3.921 0 1 0 0-7.842h-3.954a3.982 3.982 0 0 1 3.954 3.997c0 2.21-1.791 5.003-4 5.003h-7.995A4.236 4.236 0 0 1 79 178.685v.002c.08 1.456.301 2.9.66 4.313H69.483a8.173 8.173 0 0 1-5.039-1.62 6.558 6.558 0 0 0-4.001-1.38H55v4h-5v2H29v16h21v-3h5v-4h5.443a6.671 6.671 0 0 1 3.944 1.336A8.578 8.578 0 0 0 69.435 198H90.94a4.139 4.139 0 0 0 4.004-4.156A4.673 4.673 0 0 0 93 190.273V190h1.94a4 4 0 1 0 0-8"/><path fill="#5FE0ED" d="M126.003 86.011a3 3 0 1 1 0 6 3 3 0 0 1 0-6"/><path fill="#FFD15D" d="M59.993 205a2 2 0 1 1 .001 3.999 2 2 0 0 1-.001-3.999"/><path fill="#48515A" d="M56 185h-6v-2h4v-37h-4v-2h6v41M46 181a1 1 0 0 1-1-.999V176a1 1 0 0 1 2 0v4a1 1 0 0 1-.999 1H46"/><path fill="#48515A" d="M45.626 181.292a1 1 0 1 0 0 2 1 1 0 0 0 0-2zm0 4a3 3 0 1 1 0-6 3 3 0 0 1 0 6zm19.313-21.819a1 1 0 0 1 0-2 6.976 6.976 0 0 0 6.671-5.079L73.681 149h14.462A5.8 5.8 0 0 0 94 143.259v-.119l-25.065.123c-.985.01-1.898.52-2.421 1.354L61.467 152h-6.086a1 1 0 0 1 0-2h5.031l4.441-6.497a4.847 4.847 0 0 1 4.072-2.24L96 141.13v2.004A7.778 7.778 0 0 1 88.143 151H75.198l-1.663 5.935a8.984 8.984 0 0 1-8.596 6.538M83 175a3 3 0 1 0 0 6h8a3 3 0 1 0 0-6h-8zm8 8h-8a5 5 0 0 1 0-10h8a5 5 0 0 1 0 10z"/><path fill="#48515A" d="M83 167a3 3 0 1 0 0 6h12a3 3 0 1 0 0-6H83zm12 8H83a5 5 0 0 1 0-10h12a5 5 0 0 1 0 10z"/><path fill="#48515A" d="M83 159a3 3 0 1 0 0 6h12a3 3 0 1 0 0-6H83zm12 8H83a5 5 0 0 1 0-10h12a5 5 0 0 1 0 10z"/><path fill="#48515A" d="M83 151a3 3 0 1 0 0 6h12a3 3 0 1 0 0-6H83zm12 8H83a5 5 0 0 1 0-10h12a5 5 0 0 1 0 10zm-26.349 24.002a6.748 6.748 0 0 1-4.31-1.077 6.232 6.232 0 0 0-3.898-.925H54v-2h6.443a8.129 8.129 0 0 1 5.095 1.322c.925.691 2.119.684 3.5.679L83 181v2l-13.952.001-.397.001M69 137h32v-26H69v26zm-2 2h36v-30H67v30z"/><path fill="#48515A" d="M162 163h-5.218l-55.213-24.334.807-1.831L157.204 161H160V87h-2.795l-54.827 24.288-.811-1.829L156.781 85H162v78M72 115h26v-2H72zM74 143h2v-5h-2zM79 173h-5v-22h2v20h3v2M86 142h2v-4h-2zM68 134H58v-19h9v2h-7v15h8v2"/><path fill="#DEDEDD" d="M157.63 159h.37v-51.499l-53 12v16.05L157.63 159"/><path fill="#FFD15D" d="M103.475 96.501a1.5 1.5 0 1 1 .001 2.999 1.5 1.5 0 0 1-.001-2.999m59.384-35.948l2.094 4.243 4.683.681a1.579 1.579 0 0 1 .875 2.694l-3.388 3.304.8 4.663a1.58 1.58 0 0 1-2.292 1.666l-4.189-2.202-4.188 2.202a1.58 1.58 0 0 1-2.292-1.666l.799-4.663-3.388-3.304a1.578 1.578 0 0 1 .875-2.694l4.683-.681 2.095-4.243a1.578 1.578 0 0 1 2.833 0m-2.812 110.486l1.279 2.592 2.861.416a.964.964 0 0 1 .535 1.646l-2.07 2.018.488 2.849a.964.964 0 0 1-1.4 1.017l-2.559-1.345-2.559 1.345a.965.965 0 0 1-1.4-1.017l.489-2.849-2.07-2.018a.965.965 0 0 1 .534-1.646l2.861-.416 1.28-2.592a.965.965 0 0 1 1.731 0"/><path fill="#FFF" d="M142.48 186.604l-25.466-10.914 11.121 26.93 4.396-8.841 7.376 7.377 2.573-2.573-7.487-7.487 7.487-4.492"/><path fill="#48515A" d="M118.875 177.576l9.344 22.628 4.035-8.115 7.653 7.653 1.158-1.159-7.685-7.685 6.908-4.145-21.413-9.177zm9.176 27.459l-12.897-31.23 29.517 12.65-8.067 4.84 7.29 7.288-3.987 3.987-7.1-7.1-4.756 9.565zM47.021 90a3 3 0 1 0 0 6h35.152l6.507-3-6.507-3H47.021zm35.591 8H47.021a5 5 0 1 1 0-10h35.591l10.843 5-10.843 5z"/><path fill="#48515A" d="M53 97h2v-8h-2z"/><path fill="#48515A" d="M54 94h28v-2H54zM177.006 180.989h2v-4h-2zM177.006 190.989h2v-4h-2zM181.006 184.989h4v-2h-4zM171.006 184.989h4v-2h-4zM140.988 51h2v-4h-2zM140.988 61h2v-4h-2zM144.988 55h4v-2h-4zM134.988 55h4v-2h-4zM115.886 68.563h-4.364a1.568 1.568 0 0 1-1.566-1.566v-5.868a1.567 1.567 0 0 1 1.566-1.565h3.528v1.999h-3.094v5h3.93v2"/><path fill="#48515A" d="M120.886 76.563h-4.25v-2h2.25v-5a1.002 1.002 0 0 0-1-1h-3.212l-.692-9.524a1.268 1.268 0 0 0-1.259-1.183h-7.027v-2.14a.133.133 0 0 0-.133-.132l-13.413-.02h-.001c-.697 0-1.263.565-1.263 1.263v17.736h3.05v2h-5.05V56.827a3.262 3.262 0 0 1 3.263-3.263h.004l13.414.021a2.134 2.134 0 0 1 2.129 2.131v.14h5.028a3.275 3.275 0 0 1 3.253 3.042l.556 7.665h1.353a3.004 3.004 0 0 1 3 3v7"/><path fill="#48515A" d="M98.392 76.564h13.697v-2H98.392z"/><path fill="#48515A" d="M96.363 73.609a1.477 1.477 0 1 0 0 2.955 1.477 1.477 0 0 0 0-2.955zm0 4.954a3.477 3.477 0 1 1 0-6.953 3.477 3.477 0 0 1 0 6.953zm18.011-4.954a1.478 1.478 0 0 0-.001 2.954 1.478 1.478 0 0 0 .001-2.954zm0 4.954a3.478 3.478 0 0 1-.001-6.954 3.478 3.478 0 0 1 3.478 3.477 3.482 3.482 0 0 1-3.477 3.477zM105.696 75.563h2V56.856h-2z"/><path fill="#FFD15D" d="M192.958 74.943a2.528 2.528 0 1 1 0-5.056 2.528 2.528 0 0 1 0 5.056zm0-14.232c-6.37-.001-11.535 5.162-11.536 11.531 0 2.026.533 4.016 1.546 5.77l1.004 1.843.013.022a88.442 88.442 0 0 1 8.269 18.581l.702 2.253.703-2.253a88.232 88.232 0 0 1 8.177-18.578l1.11-1.865c3.187-5.515 1.3-12.57-4.215-15.757a11.538 11.538 0 0 0-5.773-1.547z"/><path fill="#F58E70" d="M168.982 111.254h4.078v-8.004h-4.078zM202.052 105.759v5.495h6v-5.505l-6 .01M213.052 111.254h3.93v-8.004h-3.93zM178.059 111.254h6v-5.505h-6zM190.06 105.749h-.008v5.505h6.007l-.003-5.505h-5.996"/><path fill="#DEDEDD" d="M217.981 116.47c-1.454-.208-3.999-1.455-3.999-2.967a3 3 0 1 1-6 0 3 3 0 1 1-6 0 3 3 0 1 1-6 0 3 3 0 1 1-6 0 3 3 0 1 1-6 0 3 3 0 1 1-6 0 3 3 0 1 1-6 0 2.99 2.99 0 0 1-3.752 2.902v2.838h49.751v-2.773M172.482 136.508h25.989v-3.254h-25.989z"/><path fill="#48515A" d="M216.981 143.259h2v-27.757h-2zM166.981 143.259h2v-27.757h-2z"/><path fill="#48515A" d="M202.97 141.253h10.011v-17.997H202.97v17.997zm-2 2h14.011v-21.997H200.97v21.997zm-27.996-8.003h24.02v-11.994h-24.02v11.994zm-2 2h28.02v-15.994h-28.02v15.994zm46.007-19.747a3.995 3.995 0 0 1-3-1.357 3.993 3.993 0 0 1-6 0 3.993 3.993 0 0 1-6 0 3.993 3.993 0 0 1-6 0 3.993 3.993 0 0 1-6 0 3.993 3.993 0 0 1-6 0 3.993 3.993 0 0 1-6 0 3.993 3.993 0 0 1-6 0 3.998 3.998 0 0 1-7-2.643V99.25h8.001v2h-6.001v12.253a2 2 0 0 0 4 0h2a2 2 0 0 0 4 0h2a2 2 0 0 0 4 0h2a2 2 0 0 0 4 0h2a2 2 0 0 0 4 0h2a2 2 0 0 0 4 0h2a2 2 0 0 0 4 0h2a2 2 0 0 0 4 0h2a2 2 0 0 0 4 0V101.25h-5.925v-2h7.925v14.253a4.003 4.003 0 0 1-4 4"/><path fill="#48515A" d="M176.982 104.249h31.999V93.25h-31.999v10.999zm-2 2h35.999V91.25h-35.999v14.999z"/><path fill="#5FE0ED" d="M204.982 133.254h6v-4h-6z"/><path fill="#48515A" d="M206.981 129.254h2v-4h-2z"/><path fill="#FFD15D" d="M188.975 150.986l-10 12.003 10 12.002h23.006v-24.005h-23.006"/><path fill="#48515A" d="M196.981 167.098a1 1 0 1 0 0 2 1 1 0 0 0 0-2zm0 4a3 3 0 1 1 0-6 3 3 0 0 1 0 6zm8-14a1 1 0 1 0 0 2 1 1 0 0 0 0-2zm0 4a3 3 0 1 1 0-6 3 3 0 0 1 0 6zM194.222 156.749l1.518-1.301 12 14-1.518 1.301-12-14"/></g></svg>