<?xml version="1.0" encoding="utf-8"?><svg xmlns="http://www.w3.org/2000/svg" width="250" height="250" viewBox="0 0 250 250"><g fill="none" fill-rule="evenodd"><path fill="#FACD60" d="M161.866 47c0-9.941-8.059-18-18-18s-18 8.059-18 18 8.059 18 18 18 18-8.059 18-18"/><path fill="#42494E" d="M143.867 62h-.018c-8.271-.01-14.992-6.746-14.983-15.017.01-8.266 6.738-14.983 15.001-14.983h.017c1.508.002 2.994.226 4.418.667l1.008.417a1 1 0 1 1-.773 1.844l-.917-.383a13.017 13.017 0 0 0-3.738-.545h-.016c-7.161 0-12.991 5.822-13 12.985-.008 7.168 5.817 13.006 12.985 13.015h.016c3.467 0 6.727-1.348 9.181-3.797a12.911 12.911 0 0 0 3.818-9.188 13.016 13.016 0 0 0-2.958-8.272 1 1 0 0 1 1.544-1.272 15.026 15.026 0 0 1 3.414 9.546 14.901 14.901 0 0 1-4.405 10.602A14.904 14.904 0 0 1 143.867 62"/><path fill="#42494E" d="M146.36 53.974h-5.559c-1.759 0-3.19-1.439-3.19-3.208a1 1 0 1 1 2 0 1.2 1.2 0 0 0 1.19 1.208h5.559c.831 0 1.508-.684 1.508-1.524v-.95a1.51 1.51 0 0 0-1.508-1.508h-5.481a3.512 3.512 0 0 1-3.508-3.508v-.952a3.512 3.512 0 0 1 3.508-3.508h5.891a2.77 2.77 0 0 1 2.767 2.767 1 1 0 1 1-2 0 .768.768 0 0 0-.767-.767h-5.891a1.51 1.51 0 0 0-1.508 1.508v.952a1.51 1.51 0 0 0 1.508 1.508h5.481a3.512 3.512 0 0 1 3.508 3.508v.95c0 1.943-1.574 3.524-3.508 3.524"/><path fill="#42494E" d="M144 57a1 1 0 0 1-1-1V38a1 1 0 0 1 2 0v18a1 1 0 0 1-1 1m7.876-19.991c-.06 0-.13-.009-.19-.02a.556.556 0 0 1-.19-.06.553.553 0 0 1-.17-.089c-.06-.03-.11-.081-.15-.121-.19-.19-.3-.449-.3-.71 0-.129.03-.259.08-.379.05-.13.12-.23.22-.331.04-.04.09-.089.15-.12.05-.04.11-.069.17-.09a.972.972 0 0 1 .77 0c.12.05.23.121.32.21.09.101.17.201.22.331.05.12.07.25.07.379 0 .261-.1.52-.29.71a.957.957 0 0 1-.32.21c-.13.051-.26.08-.39.08"/><path fill="#FACD60" d="M122.866 82c0-13.255-10.745-24-24-24s-24 10.745-24 24 10.745 24 24 24 24-10.745 24-24"/><path fill="#42494E" d="M98.868 101.666h-.024a19.533 19.533 0 0 1-13.899-5.776A19.536 19.536 0 0 1 79.2 81.977a19.532 19.532 0 0 1 5.777-13.9 19.537 19.537 0 0 1 13.888-5.744h.024c1.975.002 3.925.297 5.793.874l1.314.546a1 1 0 1 1-.774 1.844L104 65.085a17.667 17.667 0 0 0-5.113-.752h-.021a17.55 17.55 0 0 0-12.477 5.16A17.551 17.551 0 0 0 81.2 81.979a17.551 17.551 0 0 0 5.16 12.498 17.549 17.549 0 0 0 12.486 5.189h.022c4.711 0 9.141-1.831 12.476-5.159a17.551 17.551 0 0 0 5.189-12.487 17.685 17.685 0 0 0-4.02-11.241 1 1 0 0 1 1.544-1.272 19.693 19.693 0 0 1 4.476 12.515 19.531 19.531 0 0 1-5.776 13.9 19.535 19.535 0 0 1-13.889 5.744"/><path fill="#42494E" d="M102.191 90.964H94.78c-2.162 0-3.921-1.769-3.921-3.943a1 1 0 0 1 2 0c0 1.072.861 1.943 1.921 1.943h7.411a2.356 2.356 0 0 0 2.344-2.364v-1.267a2.346 2.346 0 0 0-2.344-2.344h-7.308a4.35 4.35 0 0 1-4.344-4.344v-1.269a4.35 4.35 0 0 1 4.344-4.344h7.855a3.36 3.36 0 0 1 3.356 3.356 1 1 0 1 1-2 0c0-.748-.608-1.356-1.356-1.356h-7.855a2.347 2.347 0 0 0-2.344 2.344v1.269a2.347 2.347 0 0 0 2.344 2.344h7.308a4.35 4.35 0 0 1 4.344 4.344V86.6c0 2.407-1.949 4.364-4.344 4.364"/><path fill="#42494E" d="M99 95a1 1 0 0 1-1-1V70a1 1 0 0 1 2 0v24a1 1 0 0 1-1 1m10.546-26.651c-.26 0-.52-.11-.7-.3a.965.965 0 0 1-.29-.7c0-.13.02-.26.07-.389.05-.121.13-.23.22-.321.37-.369 1.04-.369 1.41 0 .09.091.17.2.22.321.05.129.08.259.08.389 0 .261-.111.52-.3.7-.09.101-.2.17-.32.221-.13.05-.25.079-.39.079"/><path fill="#434A4F" d="M93.866 116c-1.103 0-2 .897-2 2s.897 2 2 2 2-.897 2-2-.897-2-2-2zm0 6c-2.206 0-4-1.795-4-4 0-2.206 1.794-4 4-4s4 1.794 4 4c0 2.205-1.794 4-4 4zm10 4c-1.103 0-2 .897-2 2 0 1.102.897 2 2 2s2-.898 2-2c0-1.103-.897-2-2-2zm0 6c-2.206 0-4-1.794-4-4s1.794-4 4-4c2.205 0 4 1.794 4 4s-1.795 4-4 4zM92.572 130.709l-1.414-1.414 14-14 1.414 1.414-14 14M180.866 63h2v-4h-2zM180.866 73h2v-4h-2zM184.866 67h4v-2h-4zM174.866 67h4v-2h-4z"/><path fill="#FACD60" d="M136.866 128a3 3 0 1 1-6 0 3 3 0 0 1 6 0"/><path fill="#FACD60" d="M133.866 125.5a2.502 2.502 0 0 0-2.5 2.5c0 1.379 1.121 2.5 2.5 2.5 1.378 0 2.5-1.121 2.5-2.5s-1.122-2.5-2.5-2.5zm0 6c-1.93 0-3.5-1.571-3.5-3.5 0-1.93 1.57-3.5 3.5-3.5s3.5 1.57 3.5 3.5c0 1.929-1.57 3.5-3.5 3.5zm-23-79.5a3 3 0 1 1-6 0 3 3 0 0 1 6 0"/><path fill="#FACD60" d="M107.866 49.5a2.502 2.502 0 0 0-2.5 2.5c0 1.378 1.121 2.5 2.5 2.5 1.378 0 2.5-1.122 2.5-2.5 0-1.379-1.122-2.5-2.5-2.5zm0 6c-1.93 0-3.5-1.571-3.5-3.5 0-1.93 1.57-3.5 3.5-3.5s3.5 1.57 3.5 3.5c0 1.929-1.57 3.5-3.5 3.5zm-39 43.5a4 4 0 1 1-8 0 4 4 0 0 1 8 0"/><path fill="#FACD60" d="M64.866 95.5c-1.93 0-3.5 1.57-3.5 3.5 0 1.929 1.57 3.5 3.5 3.5s3.5-1.571 3.5-3.5c0-1.93-1.57-3.5-3.5-3.5zm0 8a4.505 4.505 0 0 1-4.5-4.5c0-2.482 2.018-4.5 4.5-4.5 2.481 0 4.5 2.018 4.5 4.5 0 2.481-2.019 4.5-4.5 4.5z"/><path fill="#75C7D0" d="M137.884 113.999V84.031l62-.039v30.007h-62"/><path fill="#434A4F" d="M171.536 105.878h-5.614c-1.772 0-3.213-1.449-3.213-3.23h2c0 .678.544 1.23 1.213 1.23h5.614c.846 0 1.534-.695 1.534-1.549v-.96c0-.845-.688-1.533-1.534-1.533H166a3.538 3.538 0 0 1-3.534-3.534v-.961A3.537 3.537 0 0 1 166 91.808h5.951a2.789 2.789 0 0 1 2.786 2.785h-2a.787.787 0 0 0-.786-.785H166c-.846 0-1.534.688-1.534 1.533v.961c0 .846.688 1.534 1.534 1.534h5.536a3.537 3.537 0 0 1 3.534 3.533v.96a3.545 3.545 0 0 1-3.534 3.549"/><path fill="#434A4F" d="M168 108h2V90h-2zM178.897 99.969h5.969v-2h-5.969zM178.835 104h5.968v-2h-5.968zM178.866 95.975h5.969v-2h-5.969zM152.901 100.107h5.969v-2h-5.969zM158.933 96.076l-5.969-.001v-2l5.969.001v2M152.932 104.101h5.969v-2h-5.969z"/><path fill="#434A4F" d="M141.866 110h54V88h-54v22zm-2 2h58V86h-58v26zm-61.001 88a1 1 0 0 1-1-1v-7.267l-25.727-19.071a5.026 5.026 0 0 1-2.022-4.018v-28.818h1c7.842 0 8.749 6.261 8.749 10.97v12.263l3.177 2.827a1 1 0 1 1-1.33 1.495l-3.847-3.425v-13.16c0-5.909-1.681-8.573-5.749-8.928v26.776c0 .947.454 1.847 1.214 2.411l26.535 19.67V199a1 1 0 0 1-1 1"/><path fill="#434A4F" d="M66.52 165.633a.993.993 0 0 1-.657-.247l-4.107-3.591v-22.726c0-5.984-1.6-8.582-5.642-8.929v10.873a1 1 0 1 1-2 0v-12.914h1c7.66 0 8.642 5.863 8.642 10.97v21.817l3.423 2.995a1 1 0 0 1-.659 1.752"/><path fill="#434A4F" d="M70.523 163.633a.995.995 0 0 1-.658-.248l-4.107-3.591v-23.727c0-5.984-1.6-8.582-5.642-8.929v2.044a1 1 0 1 1-2 0v-4.085h1c7.66 0 8.642 5.863 8.642 10.97v22.818l3.423 2.995a1 1 0 0 1-.658 1.753M114.708 211h-2v-11H75.71v11h-2v-13h40.998v13"/><path fill="#75C7D0" d="M68.71 221h48.12v-12.995H68.71z"/><path fill="#434A4F" d="M82.709 216H78.71a1 1 0 0 1 0-2h3.999a1 1 0 1 1 0 2"/><path fill="#434A4F" d="M76.71 214a1.001 1.001 0 0 0 0 2 1.001 1.001 0 0 0 0-2zm0 4c-1.654 0-3-1.346-3-3 0-1.655 1.346-3 3-3s3 1.345 3 3c0 1.654-1.346 3-3 3zm33.859-18h-.006a1 1 0 0 1-.994-1.005l.289-54.519a6.007 6.007 0 0 0-5.993 6v11.701a7.686 7.686 0 0 1-3.418 6.4 7.695 7.695 0 0 1-7.219.72l-17.095-7.195-6.372-5.296v-20.739c0-6.455-1.862-8.97-6.642-8.97a1 1 0 1 1 0-2c7.66 0 8.642 5.863 8.642 10.97v19.802l5.535 4.598 16.699 6.982c1.785.738 3.732.542 5.34-.534a5.615 5.615 0 0 0 2.53-4.738v-11.701c0-4.411 3.589-8 8-8h2.004l-.3 56.529c-.003.55-.451.995-1 .995m56.559 0a1 1 0 0 1-1-1v-8.275l26.535-19.671a3.01 3.01 0 0 0 1.213-2.41v-26.776c-4.067.355-5.748 3.019-5.748 8.928v13.16l-3.847 3.425a1 1 0 1 1-1.33-1.495l3.177-2.827v-12.263c0-4.709.907-10.97 8.748-10.97h1v28.818a5.023 5.023 0 0 1-2.022 4.017l-25.726 19.072V199a1 1 0 0 1-1 1"/><path fill="#434A4F" d="M179.473 165.633a1 1 0 0 1-.659-1.752l3.423-2.995v-21.817c0-5.107.982-10.97 8.642-10.97h1v12.914a1 1 0 1 1-2 0V130.14c-4.042.347-5.642 2.945-5.642 8.929v22.726l-4.106 3.591a.997.997 0 0 1-.658.247"/><path fill="#434A4F" d="M175.47 163.633a.999.999 0 0 1-.658-1.753l3.422-2.995v-22.818c0-5.107.982-10.97 8.642-10.97h1v4.085a1 1 0 1 1-2 0v-2.044c-4.042.347-5.642 2.945-5.642 8.929v23.727l-4.106 3.591a.995.995 0 0 1-.658.248M172.282 211h-2v-11h-36.998v11h-2v-13h40.998v13"/><path fill="#75C7D0" d="M129.163 221h48.12v-12.995h-48.12z"/><path fill="#434A4F" d="M167.282 216h-3.998a1 1 0 0 1 0-2h3.998a1 1 0 1 1 0 2"/><path fill="#434A4F" d="M169.282 214a1.001 1.001 0 0 0 0 2 1.001 1.001 0 0 0 0-2zm0 4c-1.654 0-3-1.346-3-3 0-1.655 1.346-3 3-3 1.655 0 3 1.345 3 3 0 1.654-1.345 3-3 3zm-33.858-18a1 1 0 0 1-1-.995l-.3-56.529h2.004c4.411 0 8 3.589 8 8v11.701c0 1.935.922 3.663 2.53 4.739a5.62 5.62 0 0 0 5.344.531l16.694-6.98 5.536-4.598v-19.802c0-5.107.982-10.97 8.642-10.97a1 1 0 0 1 0 2c-4.78 0-6.642 2.515-6.642 8.97v20.739l-6.626 5.45-16.837 7.039a7.696 7.696 0 0 1-7.223-.717 7.69 7.69 0 0 1-3.418-6.401v-11.701a6.007 6.007 0 0 0-5.994-6l.29 54.519a1 1 0 0 1-.995 1.005h-.005"/></g></svg>