<?xml version="1.0" encoding="utf-8"?><svg xmlns="http://www.w3.org/2000/svg" width="250" height="250" viewBox="0 0 250 250"><g fill="none" fill-rule="evenodd"><path fill="#5FE0ED" d="M183.284 80.209c-3.43-7.592-8.318-14.355-14.531-20.102a60.618 60.618 0 0 0-2.312-2.123C154.929 47.999 140.17 42.5 124.881 42.5c-5.875 0-11.671.82-17.236 2.387l-.078.023a63.203 63.203 0 0 0-3.22 1.01c-.348.118-.694.238-1.039.361a63.98 63.98 0 0 0-2.208.848c-1.028.41-2.041.853-3.046 1.317-.212.099-.427.191-.638.292-5.143 2.444-9.979 5.56-14.341 9.343-5.564 4.826-10.162 10.558-13.713 17.037a64.058 64.058 0 0 0-8.847 32.559v57.234c0 8.843 2.991 20.14 3.051 21.043H99.65l-1.163-4.657a131.358 131.358 0 0 0-7.583-21.922c-4.848-11.96-10.243-22.466-13.953-29.651l-.231-.449a57.202 57.202 0 0 1-4.199-10.67c-3.68-12.99-2.579-26.753 3.398-38.452a54.21 54.21 0 0 1 4.258-6.975 53.307 53.307 0 0 1 8.366-9.175 55.564 55.564 0 0 1 2.849-2.293c.185-.14.369-.281.555-.419a55.813 55.813 0 0 1 2.913-2.01c.163-.105.33-.205.495-.308.961-.603 1.929-1.198 2.933-1.726.096-.05.189-.107.284-.158a56.226 56.226 0 0 1 3.837-1.867 56.373 56.373 0 0 1 3.328-1.352c.111-.04.223-.075.333-.115a55.995 55.995 0 0 1 3.303-1.07c.141-.041.28-.086.421-.125a55.8 55.8 0 0 1 3.505-.862c.198-.042.397-.081.596-.121a55.183 55.183 0 0 1 3.651-.621 55.758 55.758 0 0 1 7.335-.487c13.371 0 26.276 4.806 36.338 13.535l.162.141-.031.037.064.053.04.034a.12.12 0 0 0 .018.015l.011.009.031.027.05.043.029.025c.59.505 1.158 1.023 1.722 1.545 5.44 5.024 9.715 10.931 12.706 17.555 3.176 7.037 4.055 14.969 2.629 22.625h8.072c1.352-8.79.209-17.826-3.438-25.904"/><path fill="#475059" d="M99.323 212.5h-2v-5.312c-.01-27.177-16.91-59.9-25.032-75.626-8.888-17.209-9.191-37.274-.812-53.676 3.459-6.769 8.101-12.707 13.798-17.648 10.969-9.514 25.034-14.754 39.604-14.754s28.635 5.24 39.604 14.754a58.711 58.711 0 0 1 2.221 2.041c5.93 5.479 10.592 11.925 13.857 19.159 4.828 10.693 4.981 23.194.42 34.298a16.532 16.532 0 0 0-1.262 6.306c0 1.067.115 2.175.342 3.292a16.468 16.468 0 0 0 2.603 6.134l6.983 10.084c.52.618.836 1.491.836 2.388a3.837 3.837 0 0 1-2.627 3.645l-5.184 1.728a2.074 2.074 0 0 0-1.42 1.97c0 .846.196 2.05 1.128 2.982l.292.293v2.011c0 1.662-1.111 2.842-2.906 3.184.048 1.043.065 2.258-.081 2.758-.393 1.355-1.313 2.119-2.054 2.734-.713.591-1.004.875-1.005 1.299l-.017 6.646c-.013 4.846-3.96 8.789-8.798 8.789h-15.246a5.16 5.16 0 0 0-5.154 5.093l3.079 24.099v1.328h-2v-1.265l-3.079-24.101a7.162 7.162 0 0 1 7.154-7.154h15.246c3.738 0 6.788-3.048 6.798-6.795l.017-6.648c.006-1.401.961-2.193 1.728-2.83.611-.508 1.189-.987 1.411-1.752.068-.314.031-1.826-.05-3.032l-.071-1.052 1.055-.015c.9-.012 1.973-.246 1.973-1.286v-1.207c-.919-1.077-1.42-2.508-1.42-4.079a4.07 4.07 0 0 1 2.788-3.867l5.184-1.728a1.84 1.84 0 0 0 .832-2.927l-7.037-10.154a18.446 18.446 0 0 1-2.917-6.875 18.556 18.556 0 0 1-.383-3.69c0-2.408.475-4.785 1.412-7.066 4.353-10.597 4.21-22.521-.393-32.715-3.156-6.991-7.664-13.222-13.399-18.52a65.4 65.4 0 0 0-1.809-1.622l-.026-.021-.235-.201.031-.037-.127-.111c-10.606-9.199-24.205-14.265-38.294-14.265-14.089 0-27.689 5.066-38.294 14.265a56.415 56.415 0 0 0-13.326 17.047c-8.087 15.828-7.785 35.211.807 51.848 8.194 15.866 25.245 48.881 25.255 76.543v5.313"/><path fill="#DEDEDD" d="M155.002 122.484H94.999v-6h24l6.001 2.5 6.001-2.5h24.001v6"/><path fill="#475059" d="M96.998 116.484H121c1.634 0 3.087.788 4 2.003a4.997 4.997 0 0 1 4-2.003h24.002V70.479H129c-1.654 0-3 1.346-3 3h-2c0-1.654-1.346-3-3-3H96.998v46.005zm29.002 5h-2c0-1.654-1.346-3-3-3H94.998V68.479H121c1.634 0 3.087.788 4 2.003a4.997 4.997 0 0 1 4-2.003h26.002v50.005H129c-1.654 0-3 1.346-3 3z"/><path fill="#475059" d="M159.002 126.484H90.998V76.479h5v2h-3v46.005h64.004V78.479h-3v-2h5v50.005"/><path fill="#475059" d="M124 122.481h2v-1.997h-2zM124 115.484h2V75.479h-2zM101.998 84.482H119v-2h-17.002zM101.998 88.482H119v-2h-17.002zM101.998 92.482H119v-2h-17.002zM101.998 96.482H119v-2h-17.002zM101.998 100.482H119v-2h-17.002zM101.998 104.482H119v-2h-17.002zM131 84.482h17.002v-2H131zM131 88.482h17.002v-2H131zM131 92.482h17.002v-2H131zM131 96.482h17.002v-2H131zM131 100.482h17.002v-2H131zM131 104.482h17.002v-2H131z"/><path fill="#48515A" d="M213 189.5h2v-4h-2zM213 199.5h2v-4h-2zM217 193.5h4v-2h-4zM207 193.5h4v-2h-4zM35 141.5h2v-4h-2zM35 151.5h2v-4h-2zM39 145.5h4v-2h-4zM29 145.5h4v-2h-4zM191 41.5h2v-4h-2zM191 51.5h2v-4h-2zM195 45.5h4v-2h-4zM185 45.5h4v-2h-4z"/><path fill="#5FE0ED" d="M210.317 133.773a3.317 3.317 0 1 1-6.634 0 3.317 3.317 0 0 1 6.634 0m-154.5-68.286a3.317 3.317 0 1 1-6.634 0 3.317 3.317 0 0 1 6.634 0"/><path fill="#F58E70" d="M164.835 198.5a1 1 0 1 1-2 0 1 1 0 0 1 2 0M54.5 185.5a2 2 0 1 1-3.999.001 2 2 0 0 1 3.999-.001"/><path fill="#5FE0ED" d="M210.317 133.773a3.317 3.317 0 1 1-6.634 0 3.317 3.317 0 0 1 6.634 0m-154.5-68.286a3.317 3.317 0 1 1-6.634 0 3.317 3.317 0 0 1 6.634 0"/><path fill="#F58E70" d="M164.835 198.5a1 1 0 1 1-2 0 1 1 0 0 1 2 0M54.5 185.5a2 2 0 1 1-3.999.001 2 2 0 0 1 3.999-.001"/></g></svg>