<?xml version="1.0" encoding="utf-8"?><svg xmlns="http://www.w3.org/2000/svg" width="250" height="250" viewBox="0 0 250 250"><g fill="none" fill-rule="evenodd"><path fill="#DDDED9" d="M187.416 67.501l.39.753V169.15c5.614 0 10.165 4.551 10.165 10.165 0 5.614-4.551 10.165-10.165 10.165h-5.39V67.501h5m-136.445 0l-.391.753V169.15c-5.614 0-10.164 4.551-10.164 10.165 0 5.614 4.55 10.165 10.164 10.165h5.391V67.501h-5"/><path fill="#FACD60" d="M187.97 52.26c5.699-.003 10.333 5.21 10.333 10.826v116.896c0-5.283-4.988-10.289-10.333-10.783V52.26m-136.998 0c-5.699-.003-11.001 4.543-11.001 10.159v116.896c0-5.283 5.655-9.622 11.001-10.116V52.26"/><path fill="#434A4F" d="M187.471 68.501h-136.5a1 1 0 1 1 0-2h136.5a1 1 0 1 1 0 2"/><path fill="#434A4F" d="M41.415 62.419c0-2.883 1.062-5.502 2.915-7.186 1.432-1.301 3.233-1.977 5.251-1.979v114.94a11.178 11.178 0 0 0-8.166 4.751V62.419zm9.166 126.06c-5.054 0-9.166-4.111-9.166-9.165 0-5.052 4.112-9.164 9.166-9.164h1V51.393l-.906-.086c-2.961-.287-5.619.563-7.691 2.447-2.268 2.061-3.568 5.22-3.568 8.665v116.895c0 6.157 5.008 11.165 11.165 11.165h11.42v-2h-11.42zm146.39-15.534a11.174 11.174 0 0 0-8.165-4.751V53.451c4.46.939 8.165 5.13 8.165 9.495v109.999zm-9.078-121.647l-1.087-.095V170.15h1c5.054 0 9.165 4.112 9.165 9.164 0 5.054-4.111 9.165-9.165 9.165H98.252v2h89.554c6.156 0 11.165-5.008 11.165-11.165V62.946c0-5.793-5.073-11.127-11.078-11.648z"/><path fill="#42494E" d="M63.009 217.011h34v-50h-34v50zm-2 2h38v-54h-38v54z"/><path fill="#42494E" d="M67.009 189.011h2v-2h-2v2zm-2 2h6v-6h-6v6zm2 6h2v-2h-2v2zm-2 2h6v-6h-6v6zm2 6h2v-2h-2v2zm-2 2h6v-6h-6v6zm2 6h2v-2h-2v2zm-2 2h6v-6h-6v6zm10-26h2v-2h-2v2zm-2 2h6v-6h-6v6zm2 6h2v-2h-2v2zm-2 2h6v-6h-6v6zm2 6h2v-2h-2v2zm-2 2h6v-6h-6v6zm2 6h2v-2h-2v2zm-2 2h6v-6h-6v6zm10-26h2v-2h-2v2zm-2 2h6v-6h-6v6zm2 6h2v-2h-2v2zm-2 2h6v-6h-6v6zm2 6h2v-2h-2v2zm-2 2h6v-6h-6v6zm2 6h2v-2h-2v2zm-2 2h6v-6h-6v6zm10-26h2v-2h-2v2zm-2 2h6v-6h-6v6zm2 6h2v-2h-2v2zm-2 2h6v-6h-6v6zm2 14h2v-10h-2v10zm-2 2h6v-14h-6v14zM62.009 183.011h36v-2h-36zM67.009 177.011h26v-6h-26v6zm-2 2h30v-10h-30v10z"/><path fill="#42494E" d="M69.009 175.011h2v-2h-2v2zm4 0h2v-2h-2v2zm4 0h2v-2h-2v2zm4 0h2v-2h-2v2zm4 0h2v-2h-2v2zm4 0h2v-2h-2v2z"/><path fill="#434A4F" d="M42.303 199.001h2v-4h-2zM42.303 209.001h2v-4h-2zM46.303 203.001h4v-2h-4zM36.303 203.001h4v-2h-4z"/><path fill="#FACD60" d="M66.303 46.001a3 3 0 1 1-6 0 3 3 0 0 1 6 0m46 149a2 2 0 1 1-3.999.001 2 2 0 0 1 3.999-.001"/><path fill="#434A4F" d="M124.721 219h50.683v-50.589L124.721 219zm52.683 2h-57.518l57.518-57.411V221z"/><path fill="#434A4F" d="M150.289 208.288h14.402v-14.083l-14.402 14.083zm16.402 2h-21.307l21.307-20.837v20.837z"/><path fill="#42494E" d="M110.302 37c-4.962 0-9 4.037-9 9s4.038 9 9 9c4.963 0 9-4.037 9-9s-4.037-9-9-9zm0 20c-6.065 0-11-4.935-11-11s4.935-11 11-11c6.066 0 11 4.935 11 11s-4.934 11-11 11zm0-26c-8.271 0-15 6.729-15 15s6.729 15 15 15 15-6.729 15-15-6.729-15-15-15zm0 32c-9.374 0-17-7.626-17-17 0-9.374 7.626-17 17-17 9.374 0 17 7.626 17 17 0 9.374-7.626 17-17 17z"/><path fill="#42494E" d="M110.302 43c-1.654 0-3 1.346-3 3s1.346 3 3 3c1.655 0 3-1.346 3-3s-1.345-3-3-3zm0 8c-2.757 0-5-2.243-5-5s2.243-5 5-5 5 2.243 5 5-2.243 5-5 5z"/><path fill="#E9886C" d="M110.302 42a4 4 0 1 0 0 8 4 4 0 0 0 0-8"/><path fill="#E9886C" d="M110.302 43c-1.654 0-3 1.346-3 3s1.346 3 3 3c1.655 0 3-1.346 3-3s-1.345-3-3-3zm0 8c-2.757 0-5-2.243-5-5s2.243-5 5-5 5 2.243 5 5-2.243 5-5 5z"/><path fill="#42494E" d="M83.304 47h26.998v-2H83.304z"/><path fill="#42494E" d="M76.717 49h3.172l3-3-3-3h-3.172l3 3-3 3zm4 2h-8.828l5-5-5-5h8.828l5 5-5 5zm56.527-9.998c-1.655 0-3 1.346-3 3s1.345 3 3 3h65.171l6.505-3-6.505-3h-65.171zm65.61 8h-65.61c-2.757 0-5-2.243-5-5s2.243-5 5-5h65.609l10.844 5-10.843 5z"/><path fill="#42494E" d="M142.854 48.002h2v-7.599h-2z"/><path fill="#42494E" d="M143.854 44.973h58.011v-2h-58.011z"/><path fill="#DDDED9" d="M145.43 116.201l4.69-1.518.723 2.233 1.698-2.334-7.27-5.293-2.901 3.984a5.592 5.592 0 0 1-2.301 1.862c1.366 1.179 3.288 1.738 5.361 1.066M95.733 146.58l-3.709 1.201 2.048 6.323 1.201-1.651c1.398-1.919 1.367-4.129.46-5.873m62.955-10.801l4.688-1.519-2.77-8.556-4.69 1.519c-2.921.946-5.561-.528-6.735-2.783l-.98.317c-5.18 1.678-5.187 9.004-.01 10.692l4.686 1.528-2.742 8.408-4.685-1.528c-5.177-1.688-9.49 4.234-6.294 8.643l2.893 3.99-7.282 5.279-2.893-3.991c-3.196-4.408-10.166-2.152-10.172 3.293l-.005 4.929-8.993-.009.005-4.929c.004-4.351-4.44-6.664-7.863-5.176 2.048 1.769 2.836 4.949.914 7.589l-2.902 3.984 7.27 5.294 2.902-3.984c3.205-4.402 10.171-2.13 10.165 3.315l-.005 4.929 8.993.009.005-4.929c.006-5.445 6.976-7.702 10.172-3.293l2.893 3.991 7.282-5.279-2.893-3.99c-3.196-4.409 1.117-10.332 6.294-8.643l4.685 1.527 2.742-8.408-4.686-1.527c-5.177-1.688-5.17-9.015.011-10.692"/><path fill="#42494E" d="M133.105 135.261l-1.901-.619c2.519-7.727-1.718-16.063-9.445-18.581a14.641 14.641 0 0 0-11.246.873 14.643 14.643 0 0 0-7.335 8.57l-1.901-.619a16.632 16.632 0 0 1 8.329-9.734 16.637 16.637 0 0 1 12.773-.993c8.775 2.862 13.587 12.328 10.726 21.103"/><path fill="#E9886C" d="M117.214 121.5c-4.687 0-8.5 3.813-8.5 8.5 0 4.687 3.813 8.5 8.5 8.5 4.687 0 8.5-3.813 8.5-8.5 0-4.687-3.813-8.5-8.5-8.5zm0 20c-6.341 0-11.5-5.159-11.5-11.5s5.159-11.5 11.5-11.5c6.342 0 11.5 5.159 11.5 11.5s-5.158 11.5-11.5 11.5z"/><path fill="#434A4F" d="M118.167 110.021c-.551-.03-.98-.5-.951-1.05.03-.55.49-.97 1.05-.95.55.03.97.5.95 1.049-.029.531-.47.951-1 .951h-.049zm-4.931-.67a1 1 0 1 1 .99.86 1 1 0 0 1-.99-.86zm8.701 1.21a1 1 0 0 1-.741-1.21c.13-.54.67-.871 1.21-.741.531.131.86.671.73 1.21-.11.461-.52.771-.969.771a.842.842 0 0 1-.23-.03zm-12.541-.09c-.18-.52.1-1.09.62-1.27.52-.18 1.09.1 1.27.619a.989.989 0 0 1-.61 1.271.959.959 0 0 1-.33.059c-.42 0-.8-.259-.95-.679zm16.13 1.33a1 1 0 1 1 .83-1.821c.5.231.72.831.49 1.331a.995.995 0 0 1-1.32.49zm-19.68.51c-.28-.48-.11-1.09.37-1.371a.997.997 0 0 1 1.36.371.987.987 0 0 1-.36 1.36c-.16.1-.33.14-.5.14-.35 0-.68-.18-.87-.5zm22.97 1.39v.01a.997.997 0 0 1-.23-1.4.993.993 0 0 1 1.39-.23c.45.319.55.94.23 1.39-.19.27-.5.42-.81.42-.2 0-.4-.06-.58-.19zm-26.11 1.08a.998.998 0 0 1 .1-1.41.998.998 0 0 1 1.41.1c.36.42.32 1.05-.1 1.41-.19.17-.42.25-.65.25-.279 0-.56-.12-.76-.35zm28.981 1.42c-.381-.4-.361-1.03.039-1.42a.996.996 0 0 1 1.41.039.996.996 0 0 1-.03 1.41.979.979 0 0 1-.689.281c-.271 0-.531-.111-.73-.31zm-31.601 1.6a.991.991 0 0 1-.16-1.401.993.993 0 0 1 1.4-.17c.43.34.51.971.17 1.411a1.004 1.004 0 0 1-1.41.16zm33.96 1.389a.988.988 0 0 1 .3-1.379.993.993 0 0 1 1.38.299c.3.46.16 1.08-.3 1.381-.17.1-.36.159-.54.159-.33 0-.65-.17-.84-.46zm-35.96 2.071c-.49-.25-.68-.861-.43-1.35.25-.49.86-.681 1.35-.431.49.261.681.861.43 1.351-.18.35-.53.54-.89.54-.16 0-.31-.03-.46-.11zm37.7 1.3c-.2-.51.05-1.09.56-1.29a.998.998 0 0 1 1.3.549c.2.511-.05 1.101-.56 1.301a.97.97 0 0 1-.37.069.99.99 0 0 1-.93-.629zm-39.01 2.48c-.53-.16-.83-.71-.68-1.24.16-.53.71-.83 1.25-.68.531.16.83.71.67 1.239a.984.984 0 0 1-.96.721.98.98 0 0 1-.28-.04zm40.08 1.17c-.1-.54.25-1.061.79-1.17a.995.995 0 0 1 1.17.8 1 1 0 0 1-.79 1.17c-.06.01-.13.01-.19.01a.996.996 0 0 1-.98-.81zm-40.64 2.79c-.55-.061-.96-.54-.9-1.09a.986.986 0 0 1 1.09-.9 1 1 0 0 1 .9 1.09c-.05.509-.49.9-1 .9h-.09zm41 1c0-.55.451-1 1-1 .55 0 1 .45 1 1s-.45 1-1 1c-.549 0-1-.45-1-1zm-41.9 2.09a.992.992 0 0 1 .9-1.09 1 1 0 1 1 .19 1.99h-.1a.99.99 0 0 1-.99-.9zm42.33 2.87c-.54-.11-.89-.63-.79-1.18v.01a.999.999 0 1 1 .98 1.18c-.06 0-.12 0-.19-.01zm-41.55 1.24c-.15-.53.15-1.091.68-1.24a.986.986 0 0 1 1.24.68c.16.52-.15 1.08-.68 1.24-.09.019-.18.04-.28.04-.429 0-.83-.29-.96-.72zm40.25 2.529a.998.998 0 0 1-.56-1.299 1.004 1.004 0 0 1 1.86.75.997.997 0 0 1-.93.62c-.12 0-.25-.02-.37-.071zm-38.69 1.351a1.01 1.01 0 0 1 .43-1.351 1.01 1.01 0 0 1 1.35.431c.251.489.06 1.1-.43 1.35a1.014 1.014 0 0 1-1.35-.43zm36.69 2.109a.99.99 0 0 1-.3-1.379 1 1 0 1 1 .84 1.54c-.19 0-.38-.05-.54-.161zm-34.43 1.411c-.34-.44-.26-1.06.17-1.411a1.004 1.004 0 1 1 1.24 1.581c-.18.14-.4.209-.62.209-.3 0-.59-.129-.79-.379zm31.81 1.61a.995.995 0 0 1-.039-1.41 1.006 1.006 0 0 1 1.419-.03c.4.379.41 1.01.03 1.41a.983.983 0 0 1-.719.31c-.25 0-.5-.091-.691-.28zm-28.92 1.42v-.01a.998.998 0 0 1-.1-1.41c.36-.41.99-.46 1.41-.101a1 1 0 0 1 .1 1.411c-.2.23-.48.35-.76.35-.23 0-.46-.08-.65-.24zm25.77 1.059c-.32-.449-.21-1.08.24-1.399a.996.996 0 0 1 1.39.24c.33.44.22 1.07-.23 1.39a.98.98 0 0 1-.58.189c-.31 0-.62-.149-.82-.42zm-22.36 1.361a.989.989 0 0 1-.37-1.361c.28-.479.89-.639 1.37-.37.48.281.64.891.36 1.37a.988.988 0 0 1-1.36.361zm18.81.47a1 1 0 0 1 .5-1.32v-.011a1 1 0 0 1 1.32.5c.23.5.01 1.101-.49 1.331a1.002 1.002 0 0 1-1.33-.5zm-15.01 1.27v.01c-.52-.191-.8-.76-.62-1.28.18-.52.75-.8 1.271-.621.52.191.799.75.619 1.281-.14.41-.53.67-.94.67a.96.96 0 0 1-.33-.06zm11.18-.141a1 1 0 0 1 .741-1.21.996.996 0 0 1 1.199.741.991.991 0 0 1-.969 1.23c-.451 0-.861-.31-.971-.761zm-7.11 1.131c-.55-.08-.93-.591-.85-1.131a.995.995 0 0 1 1.13-.849c.551.07.93.58.85 1.13a1 1 0 0 1-.99.86c-.05 0-.09-.01-.14-.01zm3.13-.76a.991.991 0 0 1 .951-1.041 1.005 1.005 0 0 1 1.049.951.998.998 0 0 1-.96 1.04h.01c-.02.009-.04.009-.05.009a.994.994 0 0 1-1-.959z"/><path fill="#434A4F" d="M122.696 167.001l-10.993-.011.005-5.928c.003-2.476-1.645-3.896-3.188-4.399-1.542-.503-3.711-.328-5.168 1.673l-3.49 4.793-8.079-5.883 1.178-1.617 6.462 4.705 2.312-3.176c1.72-2.361 4.625-3.306 7.406-2.396 2.777.906 4.57 3.38 4.567 6.301l-.003 3.929 6.993.007.004-3.929c.003-2.922 1.801-5.391 4.581-6.292 2.781-.897 5.686.048 7.401 2.413l2.306 3.181 5.662-4.104-2.306-3.181c-1.715-2.366-1.712-5.421.008-7.783 1.721-2.364 4.626-3.303 7.406-2.398l3.735 1.218 2.121-6.507-3.735-1.217c-2.778-.906-4.572-3.379-4.569-6.301.003-2.923 1.801-5.393 4.581-6.293l3.738-1.21-2.154-6.654-3.739 1.21c-2.78.902-5.684-.045-7.4-2.412-1.715-2.366-1.712-5.421.008-7.784l2.312-3.176-6.462-4.704 1.177-1.617 8.079 5.882-3.489 4.793c-1.457 2.001-.959 4.118-.005 5.432.952 1.315 2.811 2.448 5.164 1.684l5.641-1.827 3.387 10.46-5.641 1.825c-2.355.763-3.196 2.77-3.197 4.393-.001 1.623.835 3.63 3.189 4.397l5.637 1.838-3.362 10.31-5.636-1.837c-2.352-.771-4.213.36-5.169 1.672-.955 1.312-1.458 3.428-.006 5.432l3.48 4.8-8.901 6.452-3.479-4.8c-1.453-2.005-3.621-2.185-5.166-1.683-1.544.5-3.194 1.916-3.197 4.39l-.006 5.929m-41.14-42.98c-.14 0-.26-.02-.39-.081a.857.857 0 0 1-.32-.21.986.986 0 0 1-.29-.709c0-.26.1-.52.29-.71.37-.371 1.05-.371 1.41 0 .19.19.3.45.3.71 0 .27-.11.52-.3.709a.964.964 0 0 1-.7.291m3.49 1.19c-.52-.17-.81-.731-.64-1.26.17-.52.73-.81 1.26-.64.53.169.81.73.64 1.259-.139.421-.53.691-.95.691-.1 0-.21-.02-.31-.05zm2.97 1.649a.997.997 0 0 1 .111-1.409.998.998 0 0 1 1.409.11c.36.41.31 1.04-.11 1.41-.19.16-.42.24-.65.24-.28 0-.56-.12-.76-.351zm1.1 3.031c0-.55.45-1 1-1s1 .45 1 1c0 .549-.45 1-1 1s-1-.451-1-1zm-.989 4.44a.988.988 0 0 1-.101-1.41c.35-.42.99-.47 1.41-.11.41.36.46.99.1 1.41a1 1 0 0 1-1.409.11zm-3.721 1.5a1.005 1.005 0 0 1 1.91-.62.999.999 0 0 1-.65 1.26c-.1.03-.2.05-.31.05-.42 0-.81-.27-.95-.69zm-2.87 1.93a1.003 1.003 0 0 1-.71-1.71c.38-.37 1.05-.37 1.42 0 .191.19.29.44.29.71 0 .26-.099.52-.29.7-.19.189-.44.3-.71.3m.44 3.58a.997.997 0 1 1 1.9-.611c.17.521-.12 1.09-.64 1.261-.11.03-.21.05-.31.05-.43 0-.82-.27-.95-.7m2.33 4.97a.95.95 0 0 1-.7-.29.996.996 0 0 1-.3-.701c0-.139.03-.259.08-.389.05-.12.12-.23.22-.321.36-.38 1.04-.38 1.41 0 .09.091.17.201.22.321.05.13.07.25.07.389 0 .131-.02.261-.07.381-.05.119-.13.23-.22.32a.99.99 0 0 1-.71.29"/><path fill="#434A4F" d="M91.796 144.621a.995.995 0 0 1-.74-1.2 1 1 0 0 1 1.2-.75c.54.13.87.67.75 1.21-.11.46-.53.769-.98.769a.972.972 0 0 1-.23-.029zm-4.63-.23a.993.993 0 0 1 .64-1.26c.52-.17 1.09.12 1.26.64a1.002 1.002 0 0 1-.95 1.31c-.42 0-.82-.27-.95-.69zm7.3 2.03a.984.984 0 0 1 .221-1.39.995.995 0 0 1 1.399.22c.32.439.22 1.069-.22 1.399a1.08 1.08 0 0 1-.59.191.999.999 0 0 1-.81-.42zm1.81 4.18c-.55-.05-.96-.531-.92-1.08.05-.55.53-.96 1.08-.92.55.049.96.53.92 1.08-.05.52-.49.92-1 .92h-.08zm-2.13 3.4c-.45-.33-.54-.95-.22-1.4.33-.451.951-.54 1.4-.22.45.32.54.95.22 1.4a1.009 1.009 0 0 1-1.4.22zm-1.77 3.439a.989.989 0 0 1-.39-.08.86.86 0 0 1-.32-.219.878.878 0 0 1-.22-.321.991.991 0 0 1-.08-.38c0-.259.11-.519.3-.71a.61.61 0 0 1 .15-.12c.05-.04.11-.069.17-.099.06-.02.13-.04.19-.05.13-.03.261-.03.39 0 .061.01.13.03.19.05.06.03.121.059.17.099.06.031.11.071.15.12.19.191.301.451.301.71 0 .13-.031.261-.081.38a.878.878 0 0 1-.22.321.976.976 0 0 1-.7.299m3.04 2.451a1.014 1.014 0 0 1-.22-1.4c.33-.44.95-.54 1.4-.21.45.32.55.949.22 1.39a1.002 1.002 0 0 1-1.4.22m4.23 2.839a.983.983 0 0 1-.709-.29.982.982 0 0 1-.291-.71c0-.129.02-.259.07-.379.05-.121.13-.23.221-.33a.958.958 0 0 1 .319-.21.997.997 0 0 1 1.31.54c.05.12.08.25.08.379 0 .13-.03.261-.08.38a.994.994 0 0 1-.22.33.945.945 0 0 1-.7.29m8.87-6.069a.998.998 0 1 1 .61-1.9c.53.17.82.73.65 1.26-.14.419-.54.69-.96.69-.1 0-.2-.021-.3-.05zm-4.53-.431a.994.994 0 0 1 .53-1.309c.51-.21 1.1.03 1.31.54a.995.995 0 0 1-.53 1.31c-.129.049-.26.08-.39.08-.39 0-.76-.241-.92-.621zm7.07 2.411a1 1 0 1 1 1.37.33.989.989 0 0 1-1.37-.33zm-9.65.67a1.014 1.014 0 0 1-.219-1.4.995.995 0 0 1 1.399-.221c.45.321.54.951.22 1.391-.2.27-.5.42-.81.42-.2 0-.41-.07-.59-.19zm11.3 3.66c-.55 0-1-.45-1-1s.45-1 1-1 1 .45 1 1-.45 1-1 1zm0 4.02c-.14 0-.26-.02-.39-.07-.12-.061-.23-.13-.32-.22-.09-.1-.17-.21-.22-.33a.986.986 0 0 1-.07-.38c0-.131.02-.261.07-.381.06-.13.13-.229.22-.329a.99.99 0 0 1 .32-.211.99.99 0 0 1 .77 0 .99.99 0 0 1 .54.54c.05.12.08.25.08.381 0 .13-.03.26-.08.38s-.12.23-.22.33c-.09.09-.2.159-.32.22-.12.05-.25.07-.38.07m3.49-1c0-.551.45-1 1.01-.99.55 0 .99.439.99.99 0 .56-.44 1-1 1-.55 0-1-.44-1-1m5.5 1.01a1 1 0 0 1-.38-.08c-.12-.05-.23-.12-.33-.22a.999.999 0 0 1-.21-.32.995.995 0 0 1-.08-.38c0-.07.01-.13.02-.2.01-.06.03-.12.06-.18.02-.06.05-.12.09-.181l.12-.149c.05-.04.1-.09.16-.12.05-.04.11-.07.17-.101.06-.019.121-.039.19-.049.19-.041.39-.02.57.049.13.061.24.131.33.221.04.05.09.1.12.149.04.061.07.121.09.181.03.06.051.12.06.18.011.07.02.13.02.2 0 .13-.02.26-.07.38a1.027 1.027 0 0 1-.55.54c-.12.05-.25.08-.38.08m2.93-10.96a.999.999 0 0 1 .65-1.26.993.993 0 0 1 1.25.64.997.997 0 0 1-.95 1.309c-.42 0-.81-.269-.95-.689zm4.48.74a.985.985 0 0 1-.53-1.301.994.994 0 0 1 1.3-.54c.51.21.75.801.541 1.311a1 1 0 0 1-.921.609.908.908 0 0 1-.39-.079zm-7.13 2.22c-.47-.29-.62-.9-.33-1.38.28-.471.9-.62 1.37-.33.47.279.62.899.34 1.37-.189.31-.52.48-.86.48-.18 0-.36-.04-.52-.14zm9.62.1c-.32-.451-.22-1.07.22-1.4.45-.32 1.08-.221 1.4.22.32.45.221 1.08-.22 1.399a.983.983 0 0 1-.59.191 1 1 0 0 1-.81-.41zm-9.9 3.9c-.55 0-1-.45-.99-1 0-.561.44-1 1-1 .55 0 1 .45.99 1 0 .55-.44 1-.99 1h-.01zm13.07-.23a1 1 0 0 1-.92-.621.99.99 0 0 1-.08-.379c0-.13.03-.26.08-.38.05-.13.12-.23.21-.33.1-.09.2-.161.33-.21.24-.11.52-.11.76 0 .13.049.24.12.33.21.09.089.16.2.211.33.049.12.079.25.079.38 0 .129-.02.26-.079.379a1 1 0 0 1-.921.621m2.83-3.05c-.32-.45-.22-1.08.23-1.401a.986.986 0 0 1 1.39.221 1.003 1.003 0 0 1-.81 1.59c-.31 0-.61-.151-.81-.41m4.45-2.23a.99.99 0 0 1-.92-.62.995.995 0 0 1-.08-.38 1 1 0 0 1 .3-.71c.091-.091.2-.16.321-.22.239-.1.52-.1.77 0a1.005 1.005 0 0 1 .609.93c0 .13-.02.26-.07.38s-.13.23-.22.33c-.19.18-.44.29-.71.29m-.62-13.56a.996.996 0 0 1 .741-1.201 1.002 1.002 0 0 1 1.209.741c.12.54-.209 1.08-.75 1.21-.07.02-.15.02-.23.02a.992.992 0 0 1-.97-.77zm4.58 1.16c-.53-.17-.819-.74-.65-1.26.17-.53.74-.81 1.26-.641a1 1 0 1 1-.61 1.901zm-7.44 1.62c-.45-.33-.54-.95-.22-1.4a.994.994 0 0 1 1.4-.22c.441.32.54.95.22 1.4-.2.26-.5.409-.81.409a.987.987 0 0 1-.59-.189zm-1.48 3.04a.992.992 0 0 1 .91-1.08.998.998 0 0 1 1.08.91c.04.55-.37 1.029-.92 1.08h-.08c-.52 0-.95-.39-.99-.91zm1.81 4.09a.998.998 0 0 1 .22-1.401 1.003 1.003 0 0 1 1.39.221.995.995 0 0 1-.22 1.4.987.987 0 0 1-.58.19.989.989 0 0 1-.81-.41zm11.24-7.46a.99.99 0 0 1-.71-.29 1.029 1.029 0 0 1-.29-.71c0-.13.031-.26.08-.38.05-.12.12-.23.21-.32.09-.1.2-.17.33-.22.37-.15.81-.061 1.09.22.091.09.16.2.21.32.05.12.08.25.08.38 0 .14-.03.269-.08.39a.972.972 0 0 1-.92.61m1.06-4.25a.999.999 0 1 1 1.26-.64c-.14.42-.53.69-.95.69-.1 0-.21-.02-.31-.05m1.68-4.16c-.27 0-.52-.1-.709-.29a.981.981 0 0 1-.211-1.09c.05-.12.12-.231.211-.32.369-.371 1.049-.371 1.419 0a1.045 1.045 0 0 1 .29.709.984.984 0 0 1-.62.92.968.968 0 0 1-.38.071m-4.76-13.19c-.17-.52.12-1.091.64-1.26.53-.161 1.09.12 1.26.65.171.519-.12 1.09-.64 1.26-.11.03-.209.049-.31.049-.42 0-.81-.269-.95-.699zm-3.12 2.4a1 1 0 0 1-.11-1.41c.36-.411.99-.46 1.41-.1a.998.998 0 0 1-.65 1.76.97.97 0 0 1-.65-.25zm-1.68 2.929c-.01-.559.44-1 .99-1 .56 0 1 .441 1.01 1 0 .551-.45 1-1 1-.56 0-1-.449-1-1zm1.58 4.33a.997.997 0 0 1 .1-1.409c.421-.36 1.05-.31 1.41.1.36.42.32 1.05-.1 1.41-.19.17-.42.25-.65.25-.28 0-.56-.12-.76-.351zm3.87 2.25a.996.996 0 0 1-.64-1.259.997.997 0 0 1 1.26-.65c.52.18.81.74.64 1.26a.992.992 0 0 1-.95.689c-.1 0-.21-.009-.31-.04zm4.12-12.449a.995.995 0 0 1-.699-.301.953.953 0 0 1-.301-.699 1.012 1.012 0 0 1 1.39-.93 1.005 1.005 0 0 1 .61.93c0 .13-.02.26-.07.38s-.12.23-.22.319c-.09.101-.2.17-.32.221-.12.05-.25.08-.39.08m-2.33-4.97c-.17-.53.12-1.09.64-1.26.53-.17 1.09.12 1.26.639.17.531-.12 1.091-.64 1.261-.11.029-.21.05-.31.05a.998.998 0 0 1-.95-.69m-.44-3.59c-.13 0-.26-.031-.38-.071a.997.997 0 0 1-.319-.219.996.996 0 0 1-.301-.71c0-.13.03-.26.08-.38a.982.982 0 0 1 .54-.54c.37-.151.81-.06 1.09.21.091.099.17.21.22.33.05.12.07.25.07.38a.99.99 0 0 1-.07.38.99.99 0 0 1-.93.62m-11.01-8.071a.983.983 0 0 1-.22-1.389c.32-.45.95-.55 1.39-.22.45.319.55.95.22 1.39-.19.27-.5.42-.809.42a.966.966 0 0 1-.581-.201zm-1.12 3.781a.999.999 0 0 1-.91-1.08c.04-.55.52-.96 1.07-.911.55.04.96.521.92 1.071-.04.52-.48.92-1 .92h-.08zm.36 3.35v.01a.995.995 0 0 1 .22-1.4.985.985 0 0 1 1.39.219.996.996 0 0 1-.22 1.401c-.17.12-.38.19-.58.19-.31 0-.62-.15-.81-.42zm7.01 1.48c-.16-.52.12-1.09.65-1.26.52-.17 1.09.12 1.26.649.171.521-.12 1.08-.65 1.261-.1.029-.199.04-.3.04-.42 0-.82-.261-.96-.69zm-3.18 1.099c-.54-.13-.88-.67-.75-1.199.13-.54.66-.87 1.2-.75.541.13.87.67.75 1.199a1.01 1.01 0 0 1-.97.781c-.08 0-.16-.01-.23-.031zm-.12-12.759a.99.99 0 0 1-1-1c0-.26.111-.52.29-.71.091-.09.2-.161.33-.21.241-.1.52-.1.761 0 .119.049.23.12.329.21.09.089.16.2.21.33.05.12.08.25.08.38 0 .129-.03.259-.08.379-.05.121-.12.231-.21.331-.099.089-.21.16-.329.209a.983.983 0 0 1-.381.081m-4.22-2.84a.996.996 0 1 1 1.17-1.611c.45.321.55.951.22 1.391-.19.27-.5.41-.809.41a.96.96 0 0 1-.581-.19m-3.05-2.451a.998.998 0 0 1-.71-.299 1.02 1.02 0 0 1-.22-.321.982.982 0 0 1-.07-.38.88.88 0 0 1 .08-.389.993.993 0 0 1 .21-.32c.23-.241.57-.35.9-.28.07.02.13.039.191.06.059.03.119.059.169.09.06.04.11.08.15.13.19.19.3.44.3.709 0 .261-.11.511-.3.701-.09.099-.2.17-.319.219a.982.982 0 0 1-.381.08m-14.07-1.25c0-.549.451-1 1-1 .56 0 1 .451 1 1 0 .55-.45 1-1 1-.549 0-1-.45-1-1zm11.12 4.291a1.015 1.015 0 0 1-.22-1.4c.33-.44.95-.54 1.4-.221.45.331.55.951.22 1.401-.19.269-.5.41-.81.41-.2 0-.41-.061-.59-.19zm-10.169.089a1.001 1.001 0 1 1 1.709-1.04c.28.471.13 1.08-.34 1.37a.972.972 0 0 1-.52.151c-.34 0-.67-.17-.849-.481zm6.929 2.141c-.21-.51.03-1.101.54-1.311a1 1 0 0 1 1.31.531c.21.51-.029 1.099-.54 1.309a.997.997 0 0 1-1.31-.529zm-3.3.7c-.53-.18-.81-.74-.65-1.261.18-.529.74-.819 1.271-.639.52.16.809.729.639 1.26-.139.42-.53.69-.95.69-.1 0-.21-.02-.31-.05zm-3.57-10.23c-.27 0-.52-.111-.71-.3-.09-.09-.17-.2-.22-.32a.99.99 0 0 1-.07-.38c0-.13.02-.26.07-.39.05-.12.13-.23.22-.32s.2-.17.32-.22c.37-.15.82-.061 1.09.22.1.09.17.2.22.32.05.13.08.26.08.39a1 1 0 0 1-.3.7c-.09.1-.2.17-.32.22-.12.049-.25.08-.38.08m-4.5-.01c-.55 0-1-.44-1-1 0-.55.45-1 1-1s1 .45 1 1c0 .56-.45 1-1 1m-4.5 0c-.13 0-.26-.03-.38-.08a.988.988 0 0 1-.54-.54.995.995 0 0 1-.08-.38c0-.13.03-.26.08-.38.05-.13.12-.24.22-.33.27-.28.72-.37 1.09-.221.12.061.23.131.321.221a.967.967 0 0 1 .289.71c0 .13-.02.26-.07.38s-.13.229-.219.33a1.046 1.046 0 0 1-.711.29m-1 3c0-.55.45-1 1-1s1 .45 1 1-.45 1-1 1-1-.45-1-1zm-10.52 4.069a1.013 1.013 0 0 1 .22-1.399c.45-.32 1.08-.22 1.4.229.32.441.22 1.071-.22 1.391a.987.987 0 0 1-.59.189.997.997 0 0 1-.81-.41zm10.2.641a.995.995 0 0 1-.33-1.37c.29-.481.9-.63 1.37-.34.471.29.63.899.34 1.37-.19.31-.52.489-.86.489-.17 0-.35-.049-.52-.149zm-6.86 2.35c-.51-.22-.75-.8-.54-1.31.21-.51.8-.75 1.31-.54.51.21.75.8.54 1.31a1.023 1.023 0 0 1-1.31.54zm3.34-.491a1.01 1.01 0 0 1 .65-1.259 1.003 1.003 0 1 1-.65 1.259zm-8.23-5.34a.985.985 0 0 1-.38-.069c-.12-.051-.23-.13-.32-.221a.994.994 0 0 1-.22-.33.991.991 0 0 1-.08-.38c0-.129.03-.259.08-.379.05-.121.12-.23.22-.331.09-.089.2-.16.32-.209a.949.949 0 0 1 .77 0c.06.02.11.049.17.089l.15.12c.19.191.29.451.29.71a.986.986 0 0 1-1 1m-4.45 2.231a1.001 1.001 0 1 1 1.62-1.18.995.995 0 0 1-.22 1.4 1.002 1.002 0 0 1-1.4-.22m-2.83 3.05c-.27 0-.52-.111-.71-.29-.09-.1-.16-.21-.21-.33a.995.995 0 0 1-.08-.38c0-.26.11-.52.29-.71a1.035 1.035 0 0 1 1.42 0c.19.19.291.45.291.71a.99.99 0 0 1-.291.71c-.1.09-.2.16-.33.21-.12.049-.25.08-.38.08m1.54 2.83c-.32-.45-.22-1.08.22-1.401.45-.319 1.08-.229 1.4.221.32.449.23 1.069-.22 1.4a1.002 1.002 0 0 1-1.4-.22zm1.44 3.08a.998.998 0 1 1 1.99-.16v-.01c.04.55-.36 1.04-.91 1.08-.03 0-.059.01-.09.01a1 1 0 0 1-.99-.92zm-.68 4.49c-.44-.32-.54-.95-.22-1.4.33-.441.95-.54 1.4-.22.45.33.55.95.22 1.399a1.01 1.01 0 0 1-1.4.221zm-6.88 1.9c-.52-.17-.81-.73-.64-1.26.17-.53.74-.81 1.26-.64.53.17.81.739.64 1.26a.995.995 0 0 1-1.26.64zm3.25-.29c-.12-.541.21-1.07.75-1.201a.996.996 0 0 1 1.2.741c.13.54-.21 1.08-.74 1.21-.08.01-.16.02-.24.02-.45 0-.86-.311-.97-.77zm-6.75-.9c-.27 0-.52-.11-.71-.301-.09-.09-.17-.199-.22-.319a.986.986 0 0 1-.07-.38c0-.261.1-.52.29-.71.38-.37 1.04-.37 1.41 0 .19.19.3.449.3.71a.995.995 0 0 1-.3.699.995.995 0 0 1-.7.301m-1.68 4.15a.99.99 0 0 1-.64-1.26.984.984 0 0 1 1.26-.64c.52.17.81.73.64 1.26a1.005 1.005 0 0 1-1.26.64M154.376 92h-2v-5h-31.414l-3.586-3.586L113.791 87H82.376v5h-2v-7h32.586l4.414-4.414L121.791 85h32.585v7"/><path fill="#E9886C" d="M113.376 77h8v-2h-8zM174.303 98a2 2 0 1 1-3.999.001 2 2 0 0 1 3.999-.001"/><path fill="#434A4F" d="M170.376 220.002h2v-3.001h-2zM166.374 220.002h2v-3.001h-2zM162.376 220.002h2v-3.001h-2zM158.376 220.002h2v-3.001h-2zM154.376 220.002h2v-3.001h-2zM150.376 220.002h2v-3.001h-2zM146.376 220.002h2v-3.001h-2zM142.376 220.002h2v-3.001h-2zM138.376 220.002h2v-3.001h-2zM134.376 220.002h2v-3.001h-2zM130.376 220.002h2v-3.001h-2zM173.376 176.001h3.001v-2h-3.001zM173.376 180.003h3.001v-2h-3.001zM173.376 184.001h3.001v-2h-3.001zM173.376 188.001h3.001v-2h-3.001zM173.376 192.001h3.001v-2h-3.001zM173.376 196.001h3.001v-2h-3.001zM173.376 200.001h3.001v-2h-3.001zM173.376 204.001h3.001v-2h-3.001zM173.376 208.001h3.001v-2h-3.001zM173.376 212.001h3.001v-2h-3.001zM173.376 216.001h3.001v-2h-3.001z"/></g></svg>