<?xml version="1.0" encoding="utf-8"?><svg xmlns="http://www.w3.org/2000/svg" width="250" height="250" viewBox="0 0 250 250"><g fill="none" fill-rule="evenodd"><path fill="#DEDEDD" d="M124.96 205c-44.182 0-80-35.817-80-80s35.818-80 80-80c44.183 0 80 35.817 80 80s-35.817 80-80 80zm0-170c-49.705 0-90 40.294-90 90s40.295 90 90 90c49.706 0 90-40.294 90-90s-40.294-90-90-90z"/><path fill="#5FE0ED" d="M85.964 185h77.993v-66H85.964z"/><path fill="#DEDEDD" d="M117.96 43.999h14v-7h-14z"/><path fill="#48515A" d="M115.96 42.999h18v-8h-18v8zm-2 2h22v-12h-22v12zM154.957 217H92.964c-1.103 0-2-.896-2-2v-5h2v5h61.993v-5h2v5c0 1.104-.897 2-2 2"/><path fill="#DEDEDD" d="M94.964 213h57.993v-2.001H94.964z"/><path fill="#48515A" d="M86.964 44.999c-1.654 0-3 1.346-3 3V206c0 1.654 1.346 3 3 3h75.993c1.654 0 3-1.346 3-3V47.999c0-1.654-1.346-3-3-3H86.964zM162.957 211H86.964c-2.757 0-5-2.244-5-5V47.999c0-2.756 2.243-5 5-5h75.993c2.757 0 5 2.244 5 5V206c0 2.756-2.243 5-5 5z"/><path fill="#48515A" d="M82.964 83.332h83.993v-2H82.964zM82.964 188.995h83.993v-2H82.964z"/><path fill="#DEDEDD" d="M85.964 90.999h77.993v-6H85.964z"/><path fill="#48515A" d="M82.964 94.339h83.993v-2H82.964z"/><path fill="#FFD15D" d="M134.96 202.08l-19.999.002v-6l19.999-.002v6zm-48.996-11.086v15.005c0 .552.449 1 1 1h75.993c.551 0 1-.448 1-1v-15.005H85.964z"/><path fill="#48515A" d="M115.96 197.083v3.999l18-.002v-3.999l-18 .002zm-2 5.999v-7.999l22-.002v7.999l-22 .002z"/><path fill="#FFD15D" d="M134.96 66.999l-7 .001v6.999h-6V67l-6.999.001v-6h6.999v-7.002h6V61l7-.001v6zm27.997-20H86.964c-.551 0-1 .449-1 1v31.333h77.993V47.999c0-.551-.449-1-1-1z"/><path fill="#48515A" d="M122.96 72.999h4V66l7-.001v-4l-7 .001v-7.001h-4v7.002h-7v4l7-.001v6.999zm6 2h-8v-6.998h-7v-8l7-.001v-7.001h8V60h7v7.999l-7 .001v6.999z"/><path fill="#5FE0ED" d="M79.96 144.085A48.6 48.6 0 0 1 76.078 125a48.6 48.6 0 0 1 3.882-19.085V71.437c-15.271 12.852-25 32.089-25 53.563 0 21.474 9.729 40.711 25 53.563v-34.478m90-72.649v34.476A48.611 48.611 0 0 1 173.843 125c0 6.77-1.385 13.221-3.883 19.088v34.475c15.272-12.851 25-32.088 25-53.563s-9.728-40.713-25-53.564"/><path fill="#48515A" d="M34.947 100h2v-3.999h-2zM34.947 110h2v-4h-2zM38.947 104h4v-2h-4zM28.947 104h4v-2h-4zM213.053 130.019h2v-4h-2zM213.053 140.019h2v-4h-2zM217.053 134.019h4v-2h-4zM207.053 134.019h4v-2h-4z"/><path fill="#FFD15D" d="M190.96 200a3 3 0 1 1-6 0 3 3 0 0 1 6 0m-142-11a2 2 0 1 1-3.999.001A2 2 0 0 1 48.96 189m140-147a3 3 0 1 0 6 0 3 3 0 0 0-6 0m-144 21a2 2 0 1 1-3.999.001A2 2 0 0 1 44.96 63m10 35a3 3 0 1 1-6 0 3 3 0 0 1 6 0m-14 53a2 2 0 1 0 4 0 2 2 0 0 0-4 0"/></g></svg>