<?xml version="1.0" encoding="utf-8"?><svg xmlns="http://www.w3.org/2000/svg" width="250" height="250" viewBox="0 0 250 250"><g fill="none" fill-rule="evenodd"><path fill="#DEDEDD" d="M169.742 108.799L125 96.016v108.811l44.742 12.783M80.258 108.799L38.516 96.873v108.811l41.742 11.926V108.799"/><path fill="#FFD15D" d="M124.999 73.717a7.99 7.99 0 1 1 0-15.979 7.99 7.99 0 0 1 0 15.979zM125 28.73c-20.107 0-36.465 16.358-36.465 36.464a36.45 36.45 0 0 0 4.887 18.227l3.174 5.825.039.069c11.013 18.664 19.807 38.424 26.139 58.734l2.22 7.122 2.221-7.122c6.545-20.992 15.243-40.753 25.849-58.726l3.509-5.895a36.441 36.441 0 0 0 4.891-18.234c0-20.106-16.357-36.464-36.464-36.464z"/><path fill="#FFD15D" d="M124.999 58.238c-4.13 0-7.49 3.359-7.49 7.489s3.36 7.49 7.49 7.49c4.13 0 7.49-3.36 7.49-7.49 0-4.13-3.36-7.489-7.49-7.489zm0 15.979c-4.681 0-8.49-3.808-8.49-8.49 0-4.681 3.809-8.489 8.49-8.489s8.49 3.808 8.49 8.489c0 4.682-3.809 8.49-8.49 8.49zM125 29.23c-19.831 0-35.964 16.134-35.964 35.964a35.95 35.95 0 0 0 4.819 17.976l3.18 5.837c11.064 18.751 19.874 38.547 26.216 58.893l1.744 5.592 1.743-5.592c6.556-21.028 15.268-40.822 25.895-58.831l3.51-5.897a35.931 35.931 0 0 0 4.821-17.977c0-19.831-16.133-35.965-35.964-35.965zm-.005 127.621l-2.699-8.654c-6.319-20.272-15.098-39.997-26.091-58.628l-3.222-5.909a36.936 36.936 0 0 1-4.947-18.466c0-20.382 16.582-36.964 36.964-36.964 20.382 0 36.964 16.582 36.964 36.965a36.93 36.93 0 0 1-4.959 18.484l-3.511 5.9c-10.587 17.941-19.268 37.664-25.801 58.618l-2.698 8.654z"/><path fill="#48515A" d="M36.516 207.193l43.742 12.497L125 206.907l.275.078 44.467 12.705 43.742-12.497V94.222l-43.742 12.497-.275-.078L125 93.936l-44.742 12.783-.275-.078-43.467-12.419v112.971zm133.226 14.577l-.275-.078L125 208.987 80.258 221.77l-.275-.078-45.467-12.991V91.57l45.742 13.069L125 91.856l.275.078 44.467 12.705 45.742-13.069v117.131l-45.742 13.069z"/><path fill="#475059" d="M124.98 146.737c-4.735 0-8.588 3.852-8.588 8.588 0 4.734 3.853 8.587 8.588 8.587 4.735 0 8.587-3.853 8.587-8.587 0-4.736-3.852-8.588-8.587-8.588zm0 19.175c-5.838 0-10.588-4.749-10.588-10.587s4.75-10.588 10.588-10.588c5.838 0 10.587 4.75 10.587 10.588 0 5.838-4.749 10.587-10.587 10.587z"/><path fill="#48515A" d="M190.069 182.763h2v-4h-2zM190.069 192.763h2v-4h-2zM194.069 186.763h4v-2h-4zM184.069 186.763h4v-2h-4zM57.946 66.751h2v-4h-2zM57.946 76.75h2v-4h-2zM61.946 70.751h4v-2h-4zM51.946 70.751h4v-2h-4zM196.995 73.726h2v-4h-2zM196.995 83.726h2v-4h-2zM200.995 77.726h4v-2h-4zM190.995 77.726h4v-2h-4z"/><path fill="#DEDEDD" d="M191.211 152.938l-15.565-6.671-2.673 1.604 8.232 8.233-2.828 2.828-8.111-8.111-1.624 3.267 6.797 16.459 4.833-9.72 8.111 8.111 2.828-2.829-8.232-8.232 8.232-4.939"/><path fill="#48515A" d="M155.065 132.818l10.452 25.307 4.473-8.995 8.387 8.388 1.414-1.415-8.431-8.43 7.654-4.592-23.949-10.263zm10.283 30.14l-14.003-33.912 32.051 13.738-8.81 5.286 8.033 8.033-4.242 4.243-7.835-7.835-5.194 10.447z"/><path fill="#475059" d="M98.697 181.6l-1.902-.619.329-1.012-1.274-.415c-1.54-.503-2.535-1.873-2.533-3.493a3.614 3.614 0 0 1 2.539-3.487l1.276-.414-.699-2.161-1.277.413a3.616 3.616 0 0 1-4.102-1.337 3.617 3.617 0 0 1 .005-4.315l.789-1.085-1.837-1.337-.79 1.085c-.952 1.31-2.563 1.829-4.103 1.329a3.614 3.614 0 0 1-2.533-3.493l.001-1.342-2.272-.001-.002 1.341a3.615 3.615 0 0 1-2.539 3.488c-1.541.497-3.151-.026-4.102-1.337l-.787-1.086-1.839 1.334.787 1.085a3.615 3.615 0 0 1-.005 4.315c-.954 1.31-2.567 1.827-4.104 1.329l-1.275-.416-.329 1.01-1.902-.619.949-2.912 3.177 1.035c.85.278 1.523-.131 1.867-.605.346-.473.528-1.239.003-1.963l-1.962-2.705 5.078-3.681 1.961 2.705c.525.724 1.309.785 1.867.608.558-.18 1.155-.692 1.155-1.587l.004-3.341 6.272.005-.003 3.342c-.002.895.594 1.407 1.152 1.589.557.183 1.341.118 1.867-.604l1.968-2.701 5.07 3.691-1.966 2.702c-.527.723-.346 1.487-.002 1.963.344.474 1.016.883 1.866.608l3.179-1.03 1.932 5.968-3.178 1.029c-.851.275-1.156 1.001-1.156 1.587-.001.587.302 1.312 1.153 1.589l3.176 1.036-.949 2.912"/><path fill="#475059" d="M89.493 178.676l-1.902-.619c.536-1.645.4-3.4-.384-4.942a6.426 6.426 0 0 0-3.766-3.222 6.43 6.43 0 0 0-4.942.383 6.432 6.432 0 0 0-3.222 3.766l-1.901-.62a8.415 8.415 0 0 1 4.218-4.929 8.435 8.435 0 0 1 6.467-.502 8.424 8.424 0 0 1 4.929 4.217 8.424 8.424 0 0 1 .503 6.468"/><path fill="#475059" d="M81.466 184.461c-.885 0-1.773-.14-2.637-.421-4.443-1.45-6.88-6.244-5.431-10.687l1.901.619a6.483 6.483 0 0 0 4.15 8.165 6.483 6.483 0 0 0 8.165-4.148l1.901.619a8.427 8.427 0 0 1-4.218 4.93 8.448 8.448 0 0 1-3.831.923"/><path fill="#475059" d="M84.574 194.117l-6.272-.007.003-3.341c.001-.894-.595-1.408-1.153-1.59-.558-.182-1.341-.119-1.867.605l-1.967 2.702-5.07-3.694 1.966-2.701c.527-.722.347-1.488.003-1.963-.344-.474-1.016-.882-1.867-.608l-3.179 1.028-1.932-5.966 3.18-1.029c.85-.275 1.154-1.001 1.155-1.587 0-.587-.302-1.312-1.153-1.591l-3.176-1.035 1.066-3.269 1.902.619-.446 1.369 1.274.415a3.617 3.617 0 0 1 2.533 3.494 3.616 3.616 0 0 1-2.54 3.488l-1.276.413.7 2.162 1.276-.413a3.618 3.618 0 0 1 4.102 1.337 3.614 3.614 0 0 1-.005 4.314l-.789 1.084 1.836 1.338.79-1.085c.954-1.31 2.563-1.83 4.104-1.328a3.614 3.614 0 0 1 2.533 3.493l-.001 1.341 2.272.003.001-1.342a3.615 3.615 0 0 1 2.54-3.487 3.615 3.615 0 0 1 4.101 1.338l.788 1.085 1.84-1.334-.788-1.085a3.615 3.615 0 0 1 .004-4.314c.955-1.309 2.566-1.827 4.106-1.33l1.274.416.495-1.517 1.901.622-1.114 3.416-3.177-1.035c-.849-.278-1.523.13-1.868.605-.345.474-.527 1.239-.002 1.963l1.962 2.705-5.078 3.681-1.962-2.705c-.526-.724-1.309-.789-1.867-.609-.558.181-1.154.692-1.155 1.587l-.003 3.342"/><path fill="#475059" d="M81.391 173.115c-1.654 0-3 1.345-3 3 0 1.654 1.346 3 3 3s3-1.346 3-3c0-1.655-1.346-3-3-3zm0 8c-2.757 0-5-2.243-5-5s2.243-5 5-5 5 2.243 5 5-2.243 5-5 5z"/><path fill="#FEDE31" d="M173.621 62.169a1.94 1.94 0 1 1-3.878.002 1.94 1.94 0 0 1 3.878-.002m6.305 27.024a2.462 2.462 0 1 1-4.926 0 2.463 2.463 0 0 1 4.926 0M67.75 91.095a1.902 1.902 0 1 1-3.804 0 1.902 1.902 0 0 1 3.804 0"/></g></svg>