<?xml version="1.0" encoding="utf-8"?><svg xmlns="http://www.w3.org/2000/svg" xmlns:xlink="http://www.w3.org/1999/xlink" width="190" height="174" viewBox="0 0 190 174"><defs><path id="nha" d="M.999.998h82.002V25.94H.999z"/><path id="nhc" d="M.999.654h90.002V74.94H.999z"/><path id="nhe" d="M.06.998H14v2H.06z"/><path id="nhg" d="M.999.998H49V15.94H.999z"/></defs><g fill="none" fill-rule="evenodd"><g transform="translate(52 148)"><mask id="nhb" fill="#fff"><use xlink:href="#nha"/></mask><path fill="#FFD15D" d="M19.001 20.998H64v-2H19.001v2zM.999 26h82.002V.998H.999V26z" mask="url(#nhb)"/></g><path fill="#F58E70" d="M121.038 148.998h8.002V109.25l-8.002-2.824v42.572"/><path fill="#DFE0E0" d="M109.062 98.248l.013-7.371v-6.741l.003-.257c-2.027 1.977-4.609 4.064-6.439 5.626-1.708 1.459-3.892 2.493-6.138 2.493h-6.489a8.607 8.607 0 0 1-5.669-2.107c-1.415-1.236-3.419-2.825-5.267-4.456v2.826l25.048 25.048c3.329-1.792 6.261-4.524 8.367-8.208l2.488-4.353-5.917-2.5"/><path fill="#48515A" d="M29.951 173.774l-2-.004.107-49.882c0-5.975 3.772-7.875 9.101-9.909L78.075 97.49V85.998h2V98.84L37.89 115.842c-5.33 2.033-7.832 3.486-7.832 8.048l-.107 49.884m130.084-.002h-2l.014-49.762c0-4.454-2.345-6.035-7.952-8.098l-42.035-17.244.013-14.866.179-.257c.407-.587.897-1.163 1.371-1.72.678-.797 1.379-1.621 1.615-2.248l6.033-12.654 6.902-3.511 1.576-7.935a2.657 2.657 0 0 0-.75-1.8c-.426-.438-.959-.679-1.502-.679h-2.386v-5h2v3h.386c1.088 0 2.131.457 2.936 1.285a4.624 4.624 0 0 1 1.315 3.327l-.02.166-1.782 8.978-7.163 3.643-5.707 11.963c-.325.875-1.104 1.791-1.931 2.761-.37.436-.751.884-1.072 1.316l-.012 12.891 40.758 16.721c5.213 1.916 9.228 3.876 9.228 9.961l-.014 49.762"/><path fill="#48515A" d="M96.075 92.998h-6.066c-2.298 0-4.7-.971-6.763-2.732-.558-.478-1.186-.994-1.847-1.536-3.212-2.639-6.855-5.632-7.843-8.282l-5.641-11.969-6.175-3.592-2.535-9.273c0-2.502 1.999-4.616 4.365-4.616h.214v-3h2v5H63.57c-1.2 0-2.296 1.172-2.362 2.491l2.241 8.078 6.01 3.496 5.938 12.61c.832 2.222 4.554 5.279 7.272 7.513.671.55 1.309 1.074 1.876 1.558 1.701 1.453 3.642 2.254 5.464 2.254h6.066v2"/><g transform="translate(48 99)"><mask id="nhd" fill="#fff"><use xlink:href="#nhc"/></mask><path fill="#48515A" d="M46.062 17.992c-10.069 0-18.88-6.443-21.925-16.034a1 1 0 0 1 1.906-.605c2.78 8.756 10.825 14.639 20.019 14.639 9.022 0 17.02-5.738 19.903-14.279a1 1 0 1 1 1.894.639 22.985 22.985 0 0 1-21.797 15.64M91.001 74.998h-2v-27H2.999v27h-2v-29h90.002v29" mask="url(#nhd)"/></g><path fill="#475059" d="M124.967 36.634c-.86-14.68-12.036-26.885-26.577-29.018l.291-1.979c15.473 2.271 27.368 15.258 28.282 30.88l-1.996.117M61.616 45.98v-2l64.405-.001v2l-64.405.001M62.676 36.539l-1.996-.123C61.656 20.538 73.813 7.557 89.588 5.55l.252 1.985C75.018 9.42 63.594 21.618 62.676 36.539"/><path fill="#475059" d="M98.978 28.521h-2V2.998h-6.319v25.523h-2V.998h10.319v27.523M56.121 45.98V35.527h23.11v2h-21.11v6.453l21.11-.001v2l-23.11.001M131.879 45.979h-23.11v-2h21.11v-6.453h-21.11v-2h23.11v10.453"/><path fill="#475059" d="M93.818 28.537c-4.257 0-7.721 3.464-7.721 7.721 0 4.258 3.464 7.721 7.721 7.721s7.721-3.463 7.721-7.721-3.464-7.721-7.721-7.721zm0 17.442c-5.36 0-9.721-4.36-9.721-9.721 0-5.36 4.361-9.721 9.721-9.721 5.361 0 9.721 4.361 9.721 9.721 0 5.361-4.36 9.721-9.721 9.721z"/><path fill="#FFD15D" d="M86.659 26.998c-2.769 2.146-4.562 5.494-4.562 9.26 0 2.078.549 4.027 1.501 5.721H60.121v-2.453h19.11v-6H65.042c1.945-11.365 10.46-20.549 21.617-23.354v16.826m6-22h2.319v19.598a11.7 11.7 0 0 0-1.16-.059c-.391 0-.777.021-1.159.059V4.998"/><path fill="#5FE0ED" d="M93.818 41.979a5.727 5.727 0 0 1-5.721-5.721 5.728 5.728 0 0 1 5.721-5.721 5.728 5.728 0 0 1 5.721 5.721 5.727 5.727 0 0 1-5.721 5.721"/><path fill="#FFD15D" d="M127.879 41.979h-23.841a11.64 11.64 0 0 0 1.501-5.721c0-3.766-1.793-7.114-4.561-9.26V10.181c11.133 2.814 19.648 12.04 21.599 23.345h-13.808v6h19.11v2.453"/><path fill="#48515A" d="M6 63.998h2v-4H6zM6 73.998h2v-4H6z"/><g transform="translate(0 65)"><mask id="nhf" fill="#fff"><use xlink:href="#nhe"/></mask><path fill="#48515A" mask="url(#nhf)" d="M10 2.998h4v-2h-4zM.06 2.998H4v-2H.06z"/></g><path fill="#48515A" d="M182 99.998h2v-4h-2zM182 109.998h2v-4h-2zM186 103.998h4v-2h-4zM176 103.998h4v-2h-4zM148 15.998h2v-4h-2zM148 25.998h2v-4h-2zM152 19.998h4v-2h-4zM142 19.998h4v-2h-4z"/><path fill="#FFD15D" d="M140 78.998a3 3 0 1 1-6 0 3 3 0 0 1 6 0m-108 24a3 3 0 1 1-6 0 3 3 0 0 1 6 0"/><path fill="#DEDEDD" d="M44 18.998a3 3 0 1 1-6 0 3 3 0 0 1 6 0"/><path fill="#48515A" d="M63.002 160.997a1 1 0 1 0 0 2 1 1 0 0 0 0-2zm0 4c-1.654 0-3-1.346-3-3s1.346-3 3-3 3 1.346 3 3-1.346 3-3 3zM71.002 152.998H55v-45h2v43h12.002v-49.004h2v51.004"/><path fill="#48515A" d="M64.72 160.998h-3.441L55 156.513v-4.515h2v3.485l4.92 3.515h2.159l4.92-3.515v-3.485h2v4.515l-6.279 4.485M125.039 160.997a1 1 0 1 0 0 2 1 1 0 0 0 0-2zm0 4c-1.654 0-3-1.346-3-3s1.346-3 3-3 3 1.346 3 3-1.346 3-3 3zM133.04 152.998h-16.003V101.68h2v49.318h12.003v-43h2v45"/><path fill="#48515A" d="M126.743 160.998h-3.446l-6.296-4.484v-4.516h2v3.484l4.935 3.516h2.168l4.936-3.516v-3.484h2v4.516l-6.297 4.484"/><g transform="translate(69 158)"><mask id="nhh" fill="#fff"><use xlink:href="#nhg"/></mask><path fill="#475059" d="M3.001 2.998h2v-2h-2v2zm4 0h2v-2h-2v2zm4 0h2v-2h-2v2zm4 0h2v-2h-2v2zm4 0h2v-2h-2v2zm4 0h2v-2h-2v2zm4 0h2v-2h-2v2zm4 0h2v-2h-2v2zm4 0h2v-2h-2v2zm4 0h1.995v-2h-1.995v2z" mask="url(#nhh)"/><path fill="#48515A" mask="url(#nhh)" d="M47 15.94h2v-4.943h-2zM2.999 15.998h-2v-9h40.564v2H2.999v7"/></g><path fill="#475059" d="M69.999 162.999h2v-2h-2v2zm4 0h2v-2h-2v2zm4 0h2v-2h-2v2zm4 0h2v-2h-2v2zm4 0h2v-2h-2v2zm4 0h2v-2h-2v2zm4 0h2v-2h-2v2zm4 0h2v-2h-2v2zm4 0h2v-2h-2v2zm4 0h2v-2h-2v2zm4 0h1.998v-2h-1.998v2z"/><path fill="#48515A" d="M113.999 160.998v3a1 1 0 0 0 2 0v-3h-2zm1 6c-1.654 0-3-1.346-3-3v-5h6v5c0 1.654-1.346 3-3 3z"/><path fill="#F58E70" d="M59 148.998h8.002v-43.001L59 109.028v39.97"/></g></svg>