<?xml version="1.0" encoding="utf-8"?><svg xmlns="http://www.w3.org/2000/svg" width="250" height="250" viewBox="0 0 250 250"><g fill="none" fill-rule="evenodd"><path fill="#DFE0E0" d="M104.978 181.021h-26l-10.006-14h26l10.006 14M183.497 181.021h-15.034l-10.006-14h15.034l10.006 14M143.853 181.021h-8.464l-6.108 2.901-4.346 5.115.921-14.853 3.797-4.513 4.194-2.65 10.006 14"/><path fill="#FFD15D" d="M174.938 115.194l-.137-13.147 3.019-.031.826 15.231.945 5.857h4.548l-3.539-21.117h.007l-1.383-7.708a5.272 5.272 0 0 0-5.042-3.763l-2.147.001-6.057 15.897-6.104-15.898h-1.505a5.262 5.262 0 0 0-5.057 3.814l-4.821 28.774h4.548l.945-5.857.826-15.22 2.491.052-.304 13.116 17.941-.001"/><path fill="#5FE0ED" d="M85.058 167.018V138.31h-6v28.708h-9.491l2.4-.004-.04-27.34h1.517l3.175-5.404v-1.278h11.258v1.18l2.795 5.502h2.114v27.344h-7.728"/><path fill="#DFE0E0" d="M114.755 152.64h20.985v-4.624h-20.985zM175.46 159.644h-18.984l-1.001-11.628h20.985l-1 11.628M162.325 83.666l1.722 1.228h4.296l1.625-1.722v4.345l-4 9.749-4-10.458.357-3.142M120.713 119.26h7.982v-4.027h-7.982zM76.918 79.776v2.24h9.795l.044-3.339v-2.191c.186-.184.377-.381.548-.58a2.187 2.187 0 0 0-.162.154c-.684.735-1.721 1.506-2.423 2.106a3.108 3.108 0 0 1-1.987.744h-2.111a3.108 3.108 0 0 1-1.987-.744c-.67-.572-1.645-1.301-2.327-2.006-.02-.021-.044-.042-.066-.063.204.218.438.438.688.658-.006.003-.012.005-.012.012v3.009"/><path fill="#48515A" d="M67.967 167.021l-.054-36.805-1.891-4.002V99.038h2v26.727l1.89 4.002.055 37.25-2 .004M102.745 136.038h-6.959a1 1 0 0 1 0-2h6.131l1.051-1.051V89.854l-17.244-8.146v-5.647l.298-.294c.474-.468.751-.802.823-.992l2.137-4.369 2.151-1.076.42-2.081-.494-.056H89.87l.204-1.172c.171-.982.258-1.86.258-2.609v-.366a8.133 8.133 0 0 0-.741-3.493 8.664 8.664 0 0 0-2.529-3.242 8.494 8.494 0 0 0-5.242-1.836h-.057c-2.208 0-4.314.884-5.935 2.494-1.677 1.666-2.639 3.957-2.639 6.287v.156c0 .768.074 1.654.222 2.632l.173 1.149h-1.556a.095.095 0 0 0-.072.033l.605 2.115 1.9 1.098 2.021 4.274c.222.586 1.407 1.549 2.115 2.124.246.201.481.392.687.568.375.32.854.5 1.35.506h2.104a1 1 0 1 1 0 2h-2.116a4.132 4.132 0 0 1-2.637-.986 36.653 36.653 0 0 0-.649-.535c-1.085-.883-2.315-1.883-2.695-2.899l-1.72-3.632-2.061-1.19-.927-3.382c0-.9.57-1.668 1.367-1.964a17.91 17.91 0 0 1-.111-1.911v-.156c0-2.858 1.177-5.668 3.23-7.706 2.015-2.003 4.615-3.072 7.415-3.075 2.372.017 4.608.8 6.466 2.266a10.687 10.687 0 0 1 3.11 3.982c.611 1.317.932 2.793.922 4.257v.432c0 .578-.044 1.214-.129 1.9.292.103.559.274.782.505.391.401.597.931.581 1.492l-.019.169-.646 3.203-2.42 1.211-1.803 3.677c-.157.426-.532.883-.954 1.321v3.551l17.244 8.145v45.229l-2.223 2.223"/><path fill="#48515A" d="M68.929 130.992h26.585v-2H68.929zM81.058 167.019h2V138.31h-2z"/><path fill="#48515A" d="M96.786 167.019h-2v-37.224l1.636-4.002V99.038h2v27.148l-1.636 4.002v36.831"/><path fill="#48515A" d="M99.473 145.856h-3.687v-2h2.859l1.05-1.051v-7.767h2v8.595l-2.222 2.223M72.299 137.674h-3.641v-2h2.496l1.465-2.493v-3.469h2v4.014l-2.32 3.948M95.581 137.674h-3.682l-2.022-3.981v-4.031h2v3.552l1.25 2.46h2.454v2M68.15 136.038h-6.96l-2.223-2.223V88.588l16.951-8.065v-3.756h2v5.02l-16.951 8.065v43.135l1.051 1.051h6.132v2"/><path fill="#48515A" d="M68.15 145.856h-3.687l-2.222-2.223v-8.595h1.999v7.767l1.051 1.051h2.859v2"/><path fill="#475059" d="M151.968 135.016h-6.001v-9h2v7h4.001v2M157.544 88.081a14.644 14.644 0 0 1-2.576-8.314v-7.751c0-6.065 4.934-11 11-11 6.065 0 11 4.935 11 11v8.706c0 2.311-.555 4.62-1.604 6.679l-.291.569-1.781-.908.29-.569a12.765 12.765 0 0 0 1.386-5.771v-8.706c0-4.963-4.038-9-9-9-4.963 0-9 4.037-9 9v7.751c0 2.575.77 5.06 2.226 7.184l-1.65 1.13"/><path fill="#475059" d="M160.968 88.016h2v-5h-2z"/><path fill="#475059" d="M170.968 88.016h-2v-5.252l.605-.612c.439-.438.938-.934 1.265-1.431.379-.576.717-1.285 1.006-2.106l.111-.32 1.013-.665v-1.071a3.004 3.004 0 0 1-2-2.829v-.714h-10v.714a3.006 3.006 0 0 1-2 2.829v1.071l1.012.665.112.32c.289.821.627 1.53 1.006 2.107.89 1.354 2.125 2.442 2.782 2.97.255.205.584.32.928.324h2.331v2h-2.343a3.527 3.527 0 0 1-2.169-.765c-.914-.736-2.212-1.927-3.2-3.431a11.262 11.262 0 0 1-1.104-2.22l-1.355-.89v-3.98h1c.551 0 1-.448 1-1v-2.714h14v2.714a1 1 0 0 0 1 1h1v3.98l-1.355.89a11.317 11.317 0 0 1-1.104 2.22c-.441.67-1.017 1.243-1.525 1.75l-.016.015v4.431M114.545 168.026l-1.466-20.046-.111-13.956 2-.016.109 13.891 1.463 19.98-1.995.147"/><path fill="#475059" d="M107.246 145.941l-3.333-1.059-4.654.953-.401-1.959 5.164-1.058 2.998.953 3.242-1.838 2.899-4.462 1.677 1.09-3.165 4.872-4.427 2.508"/><path fill="#475059" d="M101.437 140.306l-1.023-1.719 5.518-3.281 8.064-16.127 5.703-1.67.011-1.875-1.324-1.372a5.973 5.973 0 0 1-1.683-4.187l.018-5.142a7.897 7.897 0 0 1 2.349-5.611 7.895 7.895 0 0 1 5.596-2.306h.066a7.89 7.89 0 0 1 5.588 2.306 7.895 7.895 0 0 1 2.349 5.611l.018 5.141a5.974 5.974 0 0 1-1.683 4.188l-1.324 1.372.011 1.875 5.694 1.667 7.052 13.575 4.16-1.664.743 1.858-5.842 2.336-7.493-14.425-6.306-1.847-.024-4.177 1.89-1.958a3.987 3.987 0 0 0 1.122-2.793l-.018-5.14a5.906 5.906 0 0 0-1.758-4.199 5.902 5.902 0 0 0-4.187-1.726h-.05a5.907 5.907 0 0 0-4.195 1.726 5.906 5.906 0 0 0-1.758 4.199l-.018 5.141a3.986 3.986 0 0 0 1.122 2.792l1.89 1.958-.024 4.177-6.297 1.844-7.936 15.873-6.021 3.58"/><path fill="#475059" d="M134.842 168.058l-1.989-.211 2.115-19.884v-13.947h2l-.006 14.106-2.12 19.936"/><path fill="#475059" d="M142.203 143.016h-4.012l-3.255-4.406 1.609-1.188 2.654 3.594h2.533l3.517-1.759 1.002-1.754 3.589-1.759.88 1.795-3.037 1.49-.997 1.746-4.483 2.241M155.968 149.016h20v-2h-20z"/><path fill="#475059" d="M164.968 167.018h2v-19.002h-2zM186.968 135.016h-5v-2h3v-7h2v9"/><path fill="#475059" d="M189.163 127.016h-9.195v-2h6.804l-5.606-31.236c-.839-3.064-3.719-5.264-6.984-5.264l-3.526.001-4.685 12.298-4.722-12.299h-2.88a7.264 7.264 0 0 0-7.024 5.424l-5.197 31.076h5.82v2h-8.182l5.606-33.494c1.083-4.161 4.767-7.006 8.977-7.006h4.254l3.341 8.701 3.315-8.7 4.903-.001a9.28 9.28 0 0 1 8.933 6.824l6.048 33.676"/><path fill="#475059" d="M157.498 167.588l-2.409-18.572h-7.797l5.677-31.1.332-15.92 2 .041-.35 16.159-5.261 28.82h7.156l2.635 20.315-1.983.257M174.484 167.585l-1.985-.252 2.588-20.317h8.163l-6.282-28.989-.167-16 2-.022.166 15.899 6.765 31.112h-8.884l-2.364 18.569"/><path fill="#48515A" d="M156.972 118.02c0-.561.44-1 1-1 .55 0 1 .439 1 1 0 .55-.45 1-1 1-.56 0-1-.45-1-1zm4 0c0-.561.44-1 1-1 .55 0 1 .439 1 1 0 .55-.45 1-1 1-.56 0-1-.45-1-1zm4 0c0-.561.44-1 1-1 .55 0 1 .439 1 1 0 .55-.45 1-1 1-.56 0-1-.45-1-1zm4 0c0-.561.44-1 1-1 .55 0 1 .439 1 1 0 .55-.45 1-1 1-.56 0-1-.45-1-1zm4 0c0-.561.44-1 .99-1 .56 0 1.01.439 1.01 1 0 .55-.45 1-1.01 1-.55 0-.99-.45-.99-1z"/><path fill="#475059" d="M114.077 148.907h21.891v-2h-21.891zM123.967 175.958h2V152.64h-2zM123.969 117.016c-.078 0-.157-.009-.235-.027l-3.255-.783a1.002 1.002 0 0 1-.739-1.207c.13-.538.672-.865 1.207-.739l3.254.783a1.001 1.001 0 0 1-.232 1.973"/><path fill="#FFD15D" d="M117.06 192.886a4.125 4.125 0 0 0-4.125-4.125h-62v-14.577h-6v17.952h4.5v.75h67.625"/><path fill="#475059" d="M121.93 196.136h-2v-3.011a6.957 6.957 0 0 0-2.042-4.954 6.954 6.954 0 0 0-4.942-2.063l-62.999-.159.004-2 62.999.159a8.935 8.935 0 0 1 6.355 2.652 8.942 8.942 0 0 1 2.625 6.367v3.009"/><path fill="#475059" d="M117.935 193.038h-2c0-1.655-1.346-3-3-3h-63v-2h63c2.757 0 5 2.243 5 5"/><path fill="#475059" d="M125.935 193.125h-2c0-6.065-4.935-11-11-11H49.921v-15.952h63.014c7.168 0 13 5.832 13 13h-2c0-6.065-4.935-11-11-11H51.921v11.952h61.014c7.168 0 13 5.833 13 13"/><path fill="#475059" d="M123.935 193.125h2v-13.952h-2z"/><path fill="#475059" d="M124.927 197.525a11.252 11.252 0 0 1-8.171-3.487H43.932l.003-20.864h7v2h-5l-.003 16.864h71.721l.298.342a9.216 9.216 0 0 0 5.984 3.092v-3.336h2v5.388l-1 .001h-.008"/><path fill="#FFD15D" d="M132.855 192.886a4.125 4.125 0 0 1 4.125-4.125h62v-14.577h6v17.952h-4.5v.75h-67.625"/><path fill="#475059" d="M129.985 196.136h-2v-3.011c-.011-4.959 4.017-9.006 8.979-9.017l63-.159.005 2-63 .159a6.95 6.95 0 0 0-4.942 2.063 6.957 6.957 0 0 0-2.042 4.953v3.012"/><path fill="#475059" d="M133.98 193.038h-2c0-2.757 2.243-5 5-5h63v2h-63c-1.654 0-3 1.345-3 3"/><path fill="#475059" d="M125.98 193.125h-2c0-7.167 5.832-13 13-13h61.014v-11.952H136.98c-6.065 0-11 4.935-11 11h-2c0-7.168 5.832-13 13-13h63.014v15.952H136.98c-6.065 0-11 4.935-11 11"/><path fill="#475059" d="M123.98 193.125h2v-13.952h-2z"/><path fill="#475059" d="M124.988 197.525h-.008l-1-.001v-5.388h2v3.336a9.219 9.219 0 0 0 5.984-3.092l.298-.342h71.721l-.003-16.864h-5v-2h7l.003 20.864h-72.824a11.258 11.258 0 0 1-8.171 3.487"/><path fill="#FFD15D" d="M117.06 192.886a4.125 4.125 0 0 0-4.125-4.125h-62v-14.577h-6v17.952h4.5v.75h67.625"/><path fill="#475059" d="M121.93 196.136h-2v-3.011a6.957 6.957 0 0 0-2.042-4.954 6.954 6.954 0 0 0-4.942-2.063l-62.999-.159.004-2 62.999.159a8.935 8.935 0 0 1 6.355 2.652 8.942 8.942 0 0 1 2.625 6.367v3.009"/><path fill="#475059" d="M117.935 193.038h-2c0-1.655-1.346-3-3-3h-63v-2h63c2.757 0 5 2.243 5 5"/><path fill="#475059" d="M125.935 193.125h-2c0-6.065-4.935-11-11-11H49.921v-15.952h63.014c7.168 0 13 5.832 13 13h-2c0-6.065-4.935-11-11-11H51.921v11.952h61.014c7.168 0 13 5.833 13 13"/><path fill="#475059" d="M123.935 193.125h2v-13.952h-2z"/><path fill="#475059" d="M124.927 197.525a11.252 11.252 0 0 1-8.171-3.487H43.932l.003-20.864h7v2h-5l-.003 16.864h71.721l.298.342a9.216 9.216 0 0 0 5.984 3.092v-3.336h2v5.388l-1 .001h-.008"/><path fill="#FFD15D" d="M132.855 192.886a4.125 4.125 0 0 1 4.125-4.125h62v-14.577h6v17.952h-4.5v.75h-67.625"/><path fill="#475059" d="M129.985 196.136h-2v-3.011c-.011-4.959 4.017-9.006 8.979-9.017l63-.159.005 2-63 .159a6.95 6.95 0 0 0-4.942 2.063 6.957 6.957 0 0 0-2.042 4.953v3.012"/><path fill="#475059" d="M133.98 193.038h-2c0-2.757 2.243-5 5-5h63v2h-63c-1.654 0-3 1.345-3 3"/><path fill="#475059" d="M125.98 193.125h-2c0-7.167 5.832-13 13-13h61.014v-11.952H136.98c-6.065 0-11 4.935-11 11h-2c0-7.168 5.832-13 13-13h63.014v15.952H136.98c-6.065 0-11 4.935-11 11"/><path fill="#475059" d="M123.98 193.125h2v-13.952h-2z"/><path fill="#475059" d="M124.988 197.525h-.008l-1-.001v-5.388h2v3.336a9.219 9.219 0 0 0 5.984-3.092l.298-.342h71.721l-.003-16.864h-5v-2h7l.003 20.864h-72.824a11.258 11.258 0 0 1-8.171 3.487M110.931 75.248v.117c0 .8.311 1.551.877 2.116a2.975 2.975 0 0 0 2.113.874h.006l.729-.001a2.995 2.995 0 0 0 2.985-2.99v-.116l-3.355-9.375-3.355 9.375zm2.99 5.107a4.955 4.955 0 0 1-3.525-1.459 4.952 4.952 0 0 1-1.465-3.531V74.9l5.355-14.962 5.355 14.962v.464a4.998 4.998 0 0 1-4.982 4.99l-.729.001h-.009z"/><path fill="#475059" d="M109.938 76.074h8.703v-2h-8.703zM124.973 61.768l-3.367-3.793H108.93v-2h13.576l2.467 2.779 2.467-2.779h13.49v2h-12.591l-3.366 3.793M120.997 88.074h-2v-2.349L122 82.723V64.751h2v18.8l-3.003 3.002v1.521M130.869 88.074h-2v-1.525l-2.999-2.998v-18.8h2v17.972l2.999 2.998v2.353"/><path fill="#475059" d="M121.544 61.879h6.782v-2h-6.782zM132.225 75.231c.038.741.345 1.433.874 1.961a2.975 2.975 0 0 0 2.113.874h.005l.728-.002a2.996 2.996 0 0 0 2.982-2.834l-3.351-9.683-3.351 9.684zm2.988 4.835a4.96 4.96 0 0 1-3.527-1.459 4.953 4.953 0 0 1-1.465-3.531v-.168l5.355-15.476 5.355 15.474v.168a4.998 4.998 0 0 1-4.982 4.99l-.728.002h-.008z"/><path fill="#475059" d="M131.228 76.074h8.703v-2h-8.703zM121.544 65.75h6.782v-2h-6.782zM123 84.137h3.87v-2H123z"/><path fill="#48515A" d="M213.053 136.974h2v-4h-2zM213.053 146.974h2v-4h-2zM217.053 140.974h4v-2h-4zM207.053 140.974h4v-2h-4zM34.946 86.944h2v-4h-2zM34.946 96.944h2v-4h-2zM38.946 90.944h4v-2h-4zM28.946 90.944h4v-2h-4z"/><path fill="#FFD15D" d="M214.39 163.449a2.396 2.396 0 1 1-4.793 0 2.396 2.396 0 0 1 4.793 0m-19.566-24.843a1.932 1.932 0 1 0 3.864.002 1.932 1.932 0 0 0-3.864-.002"/><path fill="#5FE0ED" d="M42.614 134.808a1.834 1.834 0 1 1-3.667-.001 1.834 1.834 0 0 1 3.667.001m9.665-19.956a1.165 1.165 0 1 1-2.33-.001 1.165 1.165 0 0 1 2.33.001"/><path fill="#475059" d="M220.014 94.968h-2c0-6.494-6.149-11.582-14-11.582-7.85 0-14 5.088-14 11.582h-2c0-7.616 7.028-13.582 16-13.582 8.973 0 16 5.966 16 13.582"/><path fill="#475059" d="M195.963 95.444h-2c0-1.103-.897-2-2-2s-2 .897-2 2h-2c0-2.206 1.794-4 4-4 2.205 0 4 1.794 4 4"/><path fill="#475059" d="M204.963 95.444h-2c0-.946-1.437-2-3.5-2-2.063 0-3.5 1.054-3.5 2h-2c0-2.243 2.416-4 5.5-4s5.5 1.757 5.5 4m15.009 0h-2c0-1.103-.897-2-2-2s-2 .897-2 2h-2c0-2.206 1.794-4 4-4 2.205 0 4 1.794 4 4"/><path fill="#475059" d="M213.972 95.444h-2c0-.946-1.438-2-3.5-2-2.063 0-3.5 1.054-3.5 2h-2c0-2.243 2.416-4 5.5-4s5.5 1.757 5.5 4"/><path fill="#475059" d="M213.963 93.444h-2c0-5.514-3.589-10-8-10s-8 4.486-8 10h-2c0-6.617 4.485-12 10-12 5.514 0 10 5.383 10 12"/><path fill="#475059" d="M205.941 111.444a2.938 2.938 0 0 1-2.934-2.935V93.831c.048-3.694.097-9.574.041-10.99l-.041-.041v-3.356h2l-.012 2.942c.123.99.116 3.606.012 11.459v14.664c0 .516.419.935.934.935a.935.935 0 0 0 .934-.935h2a2.938 2.938 0 0 1-2.934 2.935"/></g></svg>