<?xml version="1.0" encoding="utf-8"?><svg xmlns="http://www.w3.org/2000/svg" width="250" height="250" viewBox="0 0 250 250"><g fill="none" fill-rule="evenodd"><path fill="#FACD60" d="M211.127 158.06a3 3 0 1 1-6 0 3 3 0 0 1 6 0"/><path fill="#434A4F" d="M181.371 90.256l3.852 1.251.715-2.203c.651-2.008 2.437-3.305 4.547-3.306h.002c2.109 0 3.894 1.296 4.547 3.303l.716 2.202 3.852-1.252-.717-2.203c-.652-2.008.03-4.106 1.737-5.347 1.707-1.241 3.913-1.24 5.62-.001l1.874 1.361 2.38-3.279-1.874-1.361c-1.707-1.239-2.391-3.338-1.74-5.344.652-2.008 2.437-3.306 4.548-3.307h2.316l-.002-4.051-2.316.001h-.001c-2.11 0-3.895-1.296-4.548-3.303-.652-2.006.029-4.105 1.736-5.346l1.874-1.362-2.323-3.194-1.874 1.361c-1.707 1.243-3.914 1.242-5.621.002-1.708-1.239-2.39-3.338-1.739-5.344l.715-2.203-3.854-1.25-.714 2.203c-.651 2.007-2.436 3.304-4.546 3.305h-.002c-2.111 0-3.895-1.296-4.547-3.302l-.717-2.202-3.851 1.253.716 2.202c.653 2.007-.029 4.106-1.735 5.347-1.708 1.24-3.915 1.243-5.621.002l-1.874-1.36-2.38 3.278 1.874 1.36c1.708 1.24 2.391 3.338 1.739 5.346-.651 2.007-2.435 3.304-4.547 3.305l-2.315.001.002 4.051 2.316-.001h.002c2.11 0 3.894 1.296 4.546 3.302.653 2.007-.028 4.106-1.735 5.347l-1.873 1.362 2.321 3.192 1.873-1.362c1.706-1.24 3.914-1.243 5.622-.002 1.707 1.24 2.39 3.338 1.738 5.345l-.714 2.203zm5.137 3.77l-7.657-2.485 1.332-4.105c.46-1.417-.221-2.535-1.011-3.109-.791-.575-2.065-.877-3.271.001l-3.49 2.538-4.673-6.428 3.49-2.538c1.205-.876 1.312-2.181 1.01-3.11-.303-.929-1.156-1.921-2.645-1.921h-.002l-4.316.002-.002-8.051 4.315-.002c1.491 0 2.343-.993 2.645-1.923.302-.929.194-2.234-1.012-3.109l-3.492-2.535 4.729-6.516 3.493 2.536c1.204.875 2.479.573 3.269-.001.79-.575 1.471-1.694 1.01-3.111l-1.336-4.104 7.656-2.491 1.336 4.104c.46 1.417 1.668 1.921 2.645 1.921h.001c.977 0 2.184-.506 2.644-1.922l1.332-4.106 7.659 2.484-1.333 4.106c-.459 1.417.221 2.535 1.012 3.109.789.574 2.065.875 3.271-.001l3.49-2.538 4.675 6.429-3.491 2.539c-1.206.876-1.312 2.181-1.01 3.11.302.928 1.156 1.921 2.646 1.921h.001l4.316-.002.002 8.051-4.316.002c-1.49 0-2.344.993-2.645 1.923-.301.929-.194 2.234 1.012 3.109l3.492 2.536-4.73 6.514-3.493-2.535c-1.202-.874-2.479-.574-3.269.001-.79.574-1.47 1.693-1.009 3.111l1.334 4.104-7.656 2.49-1.335-4.105c-.46-1.416-1.668-1.921-2.645-1.921-.978.001-2.186.506-2.646 1.923l-1.332 4.105z"/><path fill="#42494E" d="M181.167 75.65c-3.758-5.168-2.611-12.43 2.557-16.187a11.526 11.526 0 0 1 8.624-2.074 11.51 11.51 0 0 1 7.564 4.631l-1.618 1.176a9.52 9.52 0 0 0-6.258-3.832 9.532 9.532 0 0 0-7.136 1.716c-4.275 3.109-5.225 9.118-2.116 13.395l-1.617 1.175"/><path fill="#E9886C" d="M190.514 65.295a3.498 3.498 0 0 0-3.461 4.052 3.502 3.502 0 0 0 6.29 1.5c.549-.757.77-1.682.622-2.605a3.471 3.471 0 0 0-1.402-2.282 3.478 3.478 0 0 0-2.049-.665zm-.014 9.997a6.46 6.46 0 0 1-3.804-1.234 6.462 6.462 0 0 1-2.606-4.238 6.46 6.46 0 0 1 1.156-4.839c2.102-2.904 6.175-3.553 9.077-1.451a6.456 6.456 0 0 1 2.605 4.239 6.453 6.453 0 0 1-1.155 4.838 6.497 6.497 0 0 1-5.273 2.685z"/><path fill="#434A4F" d="M191.246 55.816c-.55-.03-.97-.51-.94-1.06.03-.55.5-.97 1.05-.94a1 1 0 1 1-.05 2h-.06zm-4.89-.43a1 1 0 0 1 .75-1.2.998.998 0 0 1 1.2.74c.13.54-.21 1.08-.75 1.21-.07.01-.15.02-.23.02-.45 0-.86-.31-.97-.77zm8.52 1.16c-.52-.191-.79-.76-.61-1.28a1 1 0 0 1 1.28-.601c.52.181.79.75.61 1.271-.15.41-.54.669-.949.669a.984.984 0 0 1-.331-.059zm-12.13.55a1 1 0 0 1 .38-1.36v-.01a.993.993 0 0 1 1.36.39 1 1 0 0 1-.87 1.489c-.35 0-.68-.19-.87-.509zm15.39 1.17a.983.983 0 0 1-.219-1.39.995.995 0 0 1 1.389-.231c.45.331.55.951.23 1.401a1.004 1.004 0 0 1-1.4.22zm-18.37 1.49a.987.987 0 0 1-.02-1.41.987.987 0 0 1 1.41-.02c.4.38.41 1.009.03 1.41a1.015 1.015 0 0 1-1.42.02zm21.03 1.09c-.339-.44-.26-1.07.18-1.41a.992.992 0 0 1 1.4.18.99.99 0 0 1-.18 1.4 1.002 1.002 0 0 1-1.4-.17zm-23.14 2.299a.996.996 0 1 1 .93-1.759c.49.25.68.86.42 1.35-.18.34-.53.53-.89.53-.15 0-.31-.04-.46-.121zm24.96.921a1.004 1.004 0 0 1 1.87-.731.998.998 0 0 1-.58 1.291.886.886 0 0 1-.36.07c-.4 0-.77-.24-.93-.63zm-26.03 2.93c-.54-.11-.89-.63-.79-1.17v-.01a1.001 1.001 0 1 1 .99 1.2c-.07 0-.14 0-.2-.02zm26.871.669a.997.997 0 0 1 .909-1.08.993.993 0 0 1 1.08.911.99.99 0 0 1-.9 1.08h-.089c-.511 0-.951-.39-1-.911zm-27.891 2.42a.992.992 0 0 1 .91-1.079.998.998 0 1 1 .17 1.99h-.09a.992.992 0 0 1-.99-.911zm28.47 2.461c-.54-.11-.89-.64-.78-1.18.11-.54.63-.89 1.17-.79.55.11.9.64.79 1.18-.1.48-.509.81-.98.81-.069 0-.13-.01-.2-.02zm-27.51 1.7h.01c-.21-.52.05-1.1.56-1.3.52-.2 1.1.06 1.3.57.2.52-.06 1.1-.57 1.3-.119.039-.24.07-.36.07-.4 0-.78-.25-.94-.64zm25.91 1.95a.997.997 0 0 1-.42-1.35c.25-.491.86-.67 1.35-.42.49.26.67.87.42 1.36v-.01c-.18.34-.53.54-.89.54a.93.93 0 0 1-.46-.12zm-23.8 1.77c-.34-.44-.26-1.07.18-1.41.43-.33 1.06-.25 1.4.18a1.003 1.003 0 0 1-.79 1.619c-.3 0-.6-.139-.79-.389zm21.23 1.3a1.01 1.01 0 0 1-.03-1.42.999.999 0 0 1 1.42-.02 1.005 1.005 0 0 1-.7 1.72c-.25 0-.5-.1-.69-.28zm-18.17 1.67h.011a1.007 1.007 0 0 1-.231-1.4c.33-.44.95-.54 1.4-.22a1 1 0 1 1-.59 1.81c-.2 0-.41-.06-.59-.19zm14.84.54c-.27-.48-.1-1.09.381-1.371a.999.999 0 0 1 1.359.381c.27.48.1 1.09-.38 1.369-.15.081-.32.121-.49.121-.35 0-.69-.18-.87-.5zm-11.06 1.45a.997.997 0 0 1-.61-1.27.994.994 0 0 1 1.28-.61c.521.18.79.76.61 1.28a1 1 0 0 1-1.28.6zm7.24-.27a.992.992 0 0 1 .75-1.2c.53-.13 1.07.209 1.201.74.119.54-.21 1.08-.75 1.21-.081.009-.151.02-.231.02-.45 0-.86-.31-.97-.77zm-3.049 1.12v-.01a.998.998 0 0 1-.951-1.05c.04-.551.51-.97 1.06-.94.55.03.97.5.94 1.05a1 1 0 0 1-1 .95h-.049zM213.053 125.173h2v-4h-2zM213.053 135.173h2v-4h-2zM217.053 129.173h4v-2h-4zM207.053 129.173h4v-2h-4z"/><path fill="#42494E" d="M47.278 152.829c-5.923 0-10.741 4.818-10.741 10.741 0 5.922 4.818 10.741 10.741 10.741s10.741-4.818 10.741-10.741-4.818-10.741-10.741-10.741zm0 23.482c-7.026 0-12.741-5.716-12.741-12.741 0-7.026 5.715-12.741 12.741-12.741 7.025 0 12.741 5.715 12.741 12.741 0 7.025-5.716 12.741-12.741 12.741z"/><path fill="#42494E" d="M47.277 152.829c-2.885 0-5.322 4.919-5.322 10.741s2.437 10.741 5.322 10.741c2.885 0 5.322-4.919 5.322-10.741s-2.437-10.741-5.322-10.741zm0 23.482c-4.107 0-7.322-5.597-7.322-12.741 0-7.145 3.216-12.741 7.322-12.741 4.105 0 7.322 5.596 7.322 12.741 0 7.144-3.217 12.741-7.322 12.741z"/><path fill="#42494E" d="M35.537 164.57h23.482v-2H35.537z"/><path fill="#FACD60" d="M53.109 188.109a3 3 0 1 1-6 0 3 3 0 0 1 6 0"/><path fill="#E9886C" d="M43.181 118.87a2 2 0 1 1-4 0 2 2 0 0 1 4 0"/><path fill="#42494E" d="M109.052 198.994c-1.654 0-3 1.346-3 3a3.005 3.005 0 0 0 3.001 3h100.549l6.506-3-6.507-3H109.052zm100.99 8H109.053c-2.756 0-5-2.243-5.001-4.999a5.006 5.006 0 0 1 5-5.001h100.989l10.842 5-10.841 5z"/><path fill="#42494E" d="M114.663 205.994h2v-7.598h-2z"/><path fill="#42494E" d="M115.663 202.965h93.389v-2h-93.389z"/><path fill="#434A4F" d="M34.947 85.149h2v-4h-2zM34.947 95.149h2v-4h-2zM38.947 89.149h4v-2h-4zM28.947 89.149h4v-2h-4zM183.144 188.061H76.03v-18.012a1 1 0 1 1 2 0v16.012h103.114v-18.942a1 1 0 1 1 2 0v20.942m-20.18-82.153c-15.99 0-29 13.009-29 29s13.01 29 29 29c15.991 0 29-13.009 29-29s-13.009-29-29-29zm0 60c-17.093 0-31-13.907-31-31s13.907-31 31-31c17.094 0 31 13.907 31 31s-13.906 31-31 31z"/><path fill="#434A4F" d="M162.964 109.908c-13.785 0-25 11.215-25 25s11.215 25 25 25c13.786 0 25-11.215 25-25s-11.214-25-25-25zm0 52c-14.887 0-27-12.112-27-27 0-14.887 12.113-27 27-27 14.888 0 27 12.113 27 27 0 14.888-12.112 27-27 27z"/><path fill="#434A4F" d="M141.964 134.908h-2a22.944 22.944 0 0 1 8.345-17.727l1.275 1.541a20.95 20.95 0 0 0-7.62 16.186m8.982-17.902c-.13 0-.26-.03-.38-.08-.12-.051-.23-.12-.33-.21-.04-.05-.09-.1-.12-.15a.757.757 0 0 1-.09-.18.636.636 0 0 1-.06-.18c-.009-.07-.02-.14-.02-.2 0-.26.11-.52.29-.71.1-.09.21-.16.33-.211.36-.159.81-.069 1.09.211.18.19.29.45.29.71 0 .26-.11.52-.29.71l-.15.119a.762.762 0 0 1-.18.091.625.625 0 0 1-.18.06c-.07.01-.13.02-.2.02m-9.98 21.9a.99.99 0 0 1-.71-.29 1.033 1.033 0 0 1-.22-1.09 1.019 1.019 0 0 1 1.31-.54c.12.05.23.119.321.22a.995.995 0 0 1 .299.7c0 .07-.009.13-.02.199a.771.771 0 0 1-.06.191.719.719 0 0 1-.09.17c-.04.05-.08.1-.129.15-.091.09-.201.17-.321.219a.968.968 0 0 1-.38.071M190.507 163.865l-7.042-7.041 1.414-1.414 7.042 7.041-1.414 1.414"/><path fill="#434A4F" d="M190.43 165.218l23.3 23.301c.78.78 2.049.778 2.829 0a2.004 2.004 0 0 0 0-2.829l-23.3-23.3-2.829 2.828zm24.714 25.884a3.992 3.992 0 0 1-2.828-1.169l-24.714-24.715 5.657-5.656 24.714 24.714a4.006 4.006 0 0 1 0 5.657 3.992 3.992 0 0 1-2.829 1.169z"/><path fill="#434A4F" d="M211.607 187.813l-1.414-1.414 4.244-4.245 1.414 1.414-4.244 4.245M192.541 168.746l-1.415-1.414 4.245-4.244 1.414 1.414-4.244 4.244M92.144 127.908h20v-2h-20zM92.144 131.908h20v-2h-20zM92.144 135.908h20v-2h-20zM92.144 139.908h20v-2h-20zM92.144 143.908h20v-2h-20zM92.144 147.908h20v-2h-20zM92.144 151.908h20v-2h-20zM92.144 155.908h20v-2h-20zM120.144 127.908h14v-2h-14zM120.144 131.908h13.001v-2h-13.001zM120.144 135.908h13.001v-2h-13.001zM120.144 139.908h12.996v-2h-12.996zM120.144 143.908h13.997v-2h-13.997zM120.144 147.908h14.997v-2h-14.997zM120.144 151.908h16.999v-2h-16.999zM120.144 155.908h20v-2h-20zM183.144 137.909h2v-6h-2zM184.146 141.906a.99.99 0 0 1-.71-.29.789.789 0 0 1-.12-.15 1.6 1.6 0 0 1-.1-.17 1.19 1.19 0 0 1-.049-.191c-.021-.069-.021-.129-.021-.199 0-.26.1-.52.29-.71.28-.27.72-.361 1.09-.21.06.02.12.05.17.09a1.017 1.017 0 0 1 .45.83c0 .27-.11.53-.3.71-.04.05-.09.09-.15.12a.89.89 0 0 1-.17.099.968.968 0 0 1-.38.071m0-12c-.27 0-.52-.11-.71-.301a.98.98 0 0 1-.29-.699c0-.14.021-.27.07-.39a1.016 1.016 0 0 1 1.48-.45c.06.039.11.08.15.13.1.09.17.2.22.32a.973.973 0 0 1-.22 1.089.62.62 0 0 1-.15.131c-.05.03-.11.06-.17.09-.12.05-.25.08-.38.08m-2 34.02c-.07 0-.13-.01-.2-.02a4.39 4.39 0 0 0-.19-.06c-.06-.03-.11-.06-.17-.09-.05-.04-.1-.08-.15-.13a.967.967 0 0 1-.29-.7c0-.27.1-.53.29-.71.05-.05.1-.09.15-.131.06-.029.11-.059.17-.089.07-.02.13-.04.19-.05.13-.03.261-.03.39 0 .07.01.13.03.19.05.06.03.12.06.17.089.06.041.11.081.15.131.1.09.17.2.22.32.05.12.08.25.08.39a.995.995 0 0 1-.3.7c-.04.05-.09.09-.15.13-.05.03-.11.06-.17.09-.06.02-.12.04-.19.06-.06.01-.129.02-.19.02M150.144 171.908h20v-2h-20zM150.144 175.908h12v-2h-12z"/><path fill="#FACD60" d="M135.623 44.006v23.842h23.843"/><path fill="#434A4F" d="M77.03 170.801a1 1 0 0 1-1-1v-49.502c0-2.481-2.019-4.5-4.5-4.5a4.505 4.505 0 0 0-4.499 4.5v17c0 3.584-2.916 6.5-6.5 6.5h-.897a6.507 6.507 0 0 1-6.499-6.5V43.006h17.69a1 1 0 0 1 0 2h-15.69v92.293c0 2.482 2.019 4.5 4.499 4.5h.897c2.481 0 4.5-2.018 4.5-4.5v-17c0-3.584 2.915-6.5 6.499-6.5 3.584 0 6.5 2.916 6.5 6.5v49.502a1 1 0 0 1-1 1m82.436-66.687a1 1 0 0 1-1-1V68.262l-23.257-23.256H80.344a1 1 0 1 1 0-2h55.694l24.428 24.428v35.68a1 1 0 0 1-1 1m-83.89-59.108c-.13 0-.26-.02-.38-.08-.13-.05-.23-.12-.33-.21-.18-.19-.29-.45-.29-.71a1 1 0 0 1 .08-.381c.05-.119.12-.23.21-.329.1-.09.2-.16.33-.211a.94.94 0 0 1 .57-.059c.07.01.13.03.19.059.06.02.12.051.171.091.059.04.109.08.159.12.09.099.16.21.21.329a1 1 0 0 1 .08.381c0 .26-.11.52-.29.71-.05.04-.1.09-.159.119a.554.554 0 0 1-.171.091c-.06.03-.12.05-.19.06-.06.01-.13.02-.19.02"/><path fill="#434A4F" d="M69.466 79.908h20v-2h-20zM69.466 83.908h20v-2h-20zM69.466 87.908h20v-2h-20zM69.466 91.908h20v-2h-20zM69.466 95.908h20v-2h-20zM69.466 99.908h20v-2h-20zM69.466 103.908h20v-2h-20zM69.466 107.908h20v-2h-20zM97.466 79.908h20v-2h-20zM97.466 83.908h20v-2h-20zM97.466 87.908h20v-2h-20zM97.466 91.908h20v-2h-20zM97.466 95.908h20v-2h-20zM97.466 99.908h20v-2h-20zM97.466 103.908h20v-2h-20zM97.466 107.908h20v-2h-20zM125.466 79.908h20v-2h-20zM125.466 83.908h20v-2h-20zM125.466 87.908h20v-2h-20zM125.466 91.908h20v-2h-20zM125.466 95.908h20v-2h-20zM125.466 99.908h20v-2h-20zM69.466 63.908h34v-2h-34zM69.466 67.908h20v-2h-20zM134.031 115.799H71.53a1 1 0 1 1 0-2h62.501a1 1 0 0 1 0 2m-57.334 28H60.531a1 1 0 1 1 0-2h16.166a1 1 0 0 1 0 2"/><path fill="#75C7D0" d="M48.184 65.838a2 2 0 1 1-3.999.001 2 2 0 0 1 3.999-.001"/><path fill="#FACD60" d="M68.656 139.799h5.36l.014-1.123v-18.377c0-1.378-1.122-2.5-2.5-2.5a2.503 2.503 0 0 0-2.499 2.5v17c0 .87-.132 1.709-.375 2.5"/><path fill="#434A4F" d="M174.947 126.257c0 3.188-1.242 6.186-3.497 8.44l-3.387 3.388a10.761 10.761 0 0 0-3.173 7.66v.261h-4v-.261c0-3.962 1.543-7.687 4.344-10.488l3.388-3.388a7.885 7.885 0 0 0 2.325-5.612v-.314c0-4.377-3.561-7.937-7.937-7.937-4.377 0-7.937 3.56-7.937 7.937l-.004.17a7.824 7.824 0 0 0 .954 3.935l-3.507 1.923a11.817 11.817 0 0 1-1.446-5.953l.003-.123c0-6.534 5.354-11.889 11.937-11.889 6.582 0 11.937 5.355 11.937 11.937v.314zm-11.938-13.251c-7.133 0-12.936 5.782-12.936 12.865l-.003.124a12.827 12.827 0 0 0 1.568 6.457l.481.877 5.261-2.884-.48-.877a6.82 6.82 0 0 1-.831-3.432l.004-.193a6.944 6.944 0 0 1 6.936-6.937c3.825 0 6.938 3.112 6.938 6.937v.314a6.893 6.893 0 0 1-2.032 4.905l-3.388 3.388a15.729 15.729 0 0 0-4.637 11.195v1.261h6v-1.261a9.767 9.767 0 0 1 2.88-6.953l3.388-3.388a12.854 12.854 0 0 0 3.789-9.147v-.314c0-7.133-5.804-12.937-12.938-12.937z"/><path fill="#434A4F" d="M173.947 126.257c0 2.921-1.138 5.667-3.203 7.733l-3.388 3.388a11.74 11.74 0 0 0-3.443 7.628h-2.003a13.727 13.727 0 0 1 4.031-9.042l3.388-3.388a8.878 8.878 0 0 0 2.618-6.319v-.314c0-4.928-4.01-8.937-8.938-8.937-4.927 0-8.936 4.009-8.936 8.914l-.004.17a8.857 8.857 0 0 0 .647 3.535l-1.763.966a10.83 10.83 0 0 1-.883-4.549l.003-.147c0-6.004 4.906-10.889 10.936-10.889 6.032 0 10.938 4.906 10.938 10.937v.314zm-10.937-12.251c-6.583 0-11.937 5.355-11.937 11.889l-.003.123a11.817 11.817 0 0 0 1.446 5.953l3.507-1.923a7.824 7.824 0 0 1-.954-3.935l.004-.17c0-4.377 3.56-7.937 7.937-7.937 4.376 0 7.937 3.56 7.937 7.937v.314c0 2.12-.826 4.113-2.325 5.612l-3.388 3.388a14.736 14.736 0 0 0-4.344 10.488v.261h4v-.261c0-2.894 1.127-5.614 3.173-7.66l3.387-3.388a11.856 11.856 0 0 0 3.497-8.44v-.314c0-6.582-5.355-11.937-11.937-11.937zm.083 42a3 3 0 1 1 0-6 3 3 0 0 1 0 6zm0-7c-2.206 0-4 1.794-4 4 0 2.205 1.794 4 4 4s4-1.795 4-4c0-2.206-1.794-4-4-4z"/><path fill="#434A4F" d="M163.093 155.006c-1.102 0-2-.897-2-2s.898-2 2-2c1.103 0 2 .897 2 2s-.897 2-2 2zm0-5a3 3 0 1 0 0 6 3 3 0 0 0 0-6z"/></g></svg>