<?xml version="1.0" encoding="utf-8"?><svg xmlns="http://www.w3.org/2000/svg" width="250" height="250" viewBox="0 0 250 250"><g fill="none" fill-rule="evenodd"><path fill="#434A4F" d="M199.888 57.662h-2v-3.995c0-3.308-2.691-6-6-6v-2c4.411 0 8 3.589 8 8v3.995M101.27 65.662h104.618v-2H101.27zM87.27 47.667h104.618v-2H87.27z"/><path fill="#FACD60" d="M195.888 53.667v.995l-90.618-.001v3c0 2.206-1.794 4-4 4s-4-1.794-4-4v-3.994a9.946 9.946 0 0 0-.835-4h95.453c2.206 0 4 1.795 4 4M100.322 168.617v29.011l8-4.003 8 4.003v-29.011l-7.875 3.128-8.125-3.128"/><path fill="#434A4F" d="M108.821 148.121c-6.065 0-10.999 4.934-10.999 11 0 6.065 4.934 11 10.999 11 6.066 0 11-4.935 11-11 0-6.066-4.934-11-11-11zm0 24c-7.168 0-12.999-5.832-12.999-13s5.831-13 12.999-13c7.169 0 13 5.832 13 13s-5.831 13-13 13z"/><path fill="#FACD60" d="M116.822 159.12a8 8 0 0 1-8 8 8 8 0 0 1-8-8 8 8 0 1 1 16 0"/><path fill="#434A4F" d="M139.237 151.625h29.082v-2h-29.082zM139.32 155.542h20.999v-2H139.32zM145.319 170.541c-3.309 0-6-2.692-6-5.999-.001-1.575.631-3.075 1.779-4.222 1.148-1.148 2.647-1.779 4.221-1.779 3.309 0 6 2.691 6 6v2.001a1 1 0 0 0 2 0c0-1.655 1.346-3 2.999-3a3.004 3.004 0 0 1 3.001 3 1 1 0 0 0 .999 1 1 1 0 1 1 0 2 3.003 3.003 0 0 1-2.999-3 1 1 0 0 0-2 0c0 1.654-1.346 3-3 3s-3-1.346-3-3v-2.001c0-2.207-1.794-4-4-4-1.04 0-2.037.423-2.807 1.193-.77.769-1.193 1.766-1.193 2.808a4.004 4.004 0 0 0 4 3.999 1 1 0 1 1 0 2m19-.998c-.27 0-.52-.11-.71-.29a1.011 1.011 0 0 1 0-1.42c.28-.28.721-.37 1.091-.219.119.059.229.13.33.219.18.19.289.44.289.71 0 .26-.1.51-.289.71-.19.18-.45.29-.711.29m-29 4.081a.99.99 0 0 1-.999-1c0-.26.109-.521.29-.71.37-.371 1.039-.371 1.409 0 .191.189.3.45.3.71a.995.995 0 0 1-.3.709 1.2 1.2 0 0 1-.319.22.988.988 0 0 1-.381.071m3-1c0-.55.45-1 1-1 .551 0 1 .45 1 1 0 .549-.449 1-1 1-.55 0-1-.451-1-1zm4 0c0-.55.45-1 1-1 .551 0 1 .45 1 1 0 .549-.449 1-1 1-.55 0-1-.451-1-1zm4 0c0-.55.45-1 1-1 .551 0 1 .45 1 1 0 .549-.449 1-1 1-.55 0-1-.451-1-1zm4 0c0-.55.44-1 1-1 .551 0 1 .45 1 1 0 .549-.449 1-1 1-.56 0-1-.451-1-1zm4 0c0-.55.44-1 1-1 .551 0 1 .45 1 1 0 .549-.449 1-1 1-.56 0-1-.451-1-1zm4 0c0-.55.44-1 1-1 .551 0 1 .45 1 1 0 .549-.449 1-1 1-.56 0-1-.451-1-1zm4 0c0-.55.45-1 1-1 .551 0 1 .45 1 1 0 .549-.449 1-1 1-.55 0-1-.451-1-1zm4 0c0-.55.45-1 1-1 .551 0 1 .45 1 1 0 .549-.449 1-1 1-.55 0-1-.451-1-1zm5 1a.99.99 0 0 1-1-1c0-.26.11-.521.29-.71.381-.371 1.051-.361 1.41 0 .191.189.3.45.3.71a.995.995 0 0 1-.3.709.948.948 0 0 1-.7.291"/><path fill="#E9886C" d="M139.322 147.625h8.999v-2h-8.999z"/><path fill="#434A4F" d="M97.322 87.657h17.999v-2H97.322zM97.322 91.657h17.999v-2H97.322zM103.321 102.664h66.001v-2h-66.001zM97.322 106.664h72.001v-2H97.322zM97.322 110.664h72.001v-2H97.322zM97.322 114.664h60.001v-2H97.322zM157.322 86.654h12v-2h-12zM74.254 184.671c-4.412 0-8-3.588-8-8v-3.593a6.412 6.412 0 0 0-6.404-6.405v-2c4.634 0 8.404 3.771 8.404 8.405v3.593c0 3.309 2.691 6 6 6v2"/><path fill="#434A4F" d="M66.937 173.677H52.254v-1c0-4.411 3.588-8 8-8h19.5a1 1 0 0 1 0 2h-19.5a6.01 6.01 0 0 0-5.917 5h12.6a1 1 0 0 1 0 2"/><path fill="#434A4F" d="M107.27 56.662v1c0 3.308-2.692 6-6 6s-6-2.692-6-6v-3.995c0-4.411-3.589-8-8-8s-8 3.589-8 8l.01 23.003h1.998l-.008-20.006v-2.997c0-3.308 2.691-6 6-6 3.308 0 6 2.692 6 6v3.995c0 4.411 3.589 8 8 8 4.072 0 7.444-3.06 7.938-7h102.597a6.01 6.01 0 0 1-5.917 5h-20.499l-.119 110.004v2.991a6.007 6.007 0 0 1-6.002 5.999l-100.701.001c1.688-1.467 2.754-3.614 2.754-6l-.03-69.986h-1.997l.027 59.991v9.995c0 3.307-2.743 5.999-6.115 5.999a1 1 0 1 0 0 2c.105 0 .21-.002.314-.006l105.302.007.448-.001c4.411 0 8-3.588 8-7.999l.117-110.995h18.501c4.411 0 8-3.589 8-8v-1H107.27"/><path fill="#42494E" d="M81.261 82.587v2h3v18.083H52.178V84.587h3v-2h-5v22.083h36.083V82.587h-5"/><path fill="#42494E" d="M56.178 98.67h10.648l1.432 1.563 1.595-1.563h10.408V80.587h-9.592l-2.464 2.414-2.365-2.414h-9.662V98.67zm12.003 4.438l-2.234-2.438H54.178V78.587h12.503l1.554 1.586 1.618-1.586h12.408v22.083H70.669l-2.488 2.438z"/><path fill="#FFFFFE" d="M58.074 83.671h6.125"/><path fill="#42494E" d="M58.074 84.67h6.125v-2h-6.125z"/><path fill="#FFFFFE" d="M58.074 87.671h6.125"/><path fill="#42494E" d="M58.074 88.67h6.125v-2h-6.125z"/><path fill="#FFFFFE" d="M58.074 91.671h6.125"/><path fill="#42494E" d="M58.074 92.67h6.125v-2h-6.125z"/><path fill="#FFFFFE" d="M72.074 83.671h6.125"/><path fill="#42494E" d="M72.074 84.67h6.125v-2h-6.125z"/><path fill="#FFFFFE" d="M72.074 87.671h6.125"/><path fill="#42494E" d="M72.074 88.67h6.125v-2h-6.125z"/><path fill="#FFFFFE" d="M72.074 91.671h6.125"/><path fill="#42494E" d="M72.074 92.67h6.125v-2h-6.125z"/><path fill="#FFFFFE" d="M68.22 84.858v9.813"/><path fill="#42494E" d="M67.22 94.671h2v-9.813h-2z"/><path fill="#FFFFFE" d="M58.074 95.671h6.125"/><path fill="#42494E" d="M58.074 96.67h6.125v-2h-6.125z"/><path fill="#FFFFFE" d="M72.074 95.671h6.125"/><path fill="#42494E" d="M72.074 96.67h6.125v-2h-6.125zM170.132 142.664h55.165c1.654 0 3-1.346 3-3 0-1.655-1.346-3-3-3h-55.165l-6.507 3 6.507 3zm55.165 2h-55.605l-10.843-5 10.843-5h55.605c2.756 0 5 2.243 5 5 0 2.756-2.244 5-5 5z"/><path fill="#42494E" d="M217.686 143.664h2v-7.599h-2z"/><path fill="#42494E" d="M170.68 140.635h48.006v-2H170.68z"/><path fill="#434A4F" d="M211.36 162.669h2v-4h-2zM211.36 172.669h2v-4h-2zM215.36 166.669h4v-2h-4zM205.36 166.669h4v-2h-4zM44.26 132.652h2v-4h-2zM44.26 142.652h2v-4h-2zM48.26 136.652h4v-2h-4zM38.26 136.652h4v-2h-4zM200.353 82.622h2v-4h-2zM200.353 92.622h2v-4h-2zM204.353 86.622h4v-2h-4zM194.353 86.622h4v-2h-4z"/><path fill="#DBDBD5" d="M200.77 111.164a3 3 0 1 1-6 0 3 3 0 0 1 6 0"/><path fill="#E9886C" d="M206.27 190.664a4 4 0 1 1-8 0 4 4 0 0 1 8 0"/><path fill="#42494E" d="M169.442 196.336c-.768 0-1.537.293-2.122.877a3.006 3.006 0 0 0 0 4.244 3.005 3.005 0 0 0 4.243 0 3.006 3.006 0 0 0 0-4.244 2.994 2.994 0 0 0-2.121-.877zm0 7.997a4.988 4.988 0 0 1-3.536-1.462 5.01 5.01 0 0 1 0-7.072 5.006 5.006 0 0 1 7.071 0 5.01 5.01 0 0 1 0 7.072 4.986 4.986 0 0 1-3.535 1.462z"/><path fill="#E9886C" d="M64.77 121.164a2 2 0 1 1-4.001-.001 2 2 0 0 1 4.001.001"/><path fill="#FACD60" d="M69.271 168.677c.626 1.337.976 2.829.976 4.4l.001 3.595a4.006 4.006 0 0 0 3.417 3.958c2.021-.233 3.65-1.958 3.65-3.974v-7.979h-8.044"/><path fill="#434A4F" d="M103.321 120.664h66.001v-2h-66.001zM97.322 124.664h72.001v-2H97.322zM97.322 128.664h72.001v-2H97.322zM97.322 132.664h60.001v-2H97.322z"/></g></svg>