<?xml version="1.0" encoding="utf-8"?><svg xmlns="http://www.w3.org/2000/svg" width="250" height="250" viewBox="0 0 250 250"><g fill="none" fill-rule="evenodd"><path fill="#DFE0E0" d="M104.978 181.02h-26l-10.006-14h26l10.006 14M183.497 181.02h-15.034l-10.006-14h15.034l10.006 14M143.853 181.02h-8.465l-6.107 2.902-4.347 5.115.922-14.854 3.797-4.512 4.194-2.651 10.006 14"/><path fill="#FFD15D" d="M174.938 115.193l-.137-13.146 3.019-.032.826 15.231.945 5.857h4.548l-3.54-21.117h.008l-1.383-7.708a5.272 5.272 0 0 0-5.042-3.763l-2.147.001-6.057 15.897-6.104-15.898h-1.505a5.262 5.262 0 0 0-5.057 3.814l-4.821 28.774h4.548l.945-5.857.826-15.22 2.49.052-.304 13.117 17.942-.002"/><path fill="#5FE0ED" d="M85.058 167.017v-28.708h-6v28.708h-9.491l2.4-.004-.04-27.339h1.516l3.176-5.405v-1.278h11.258v1.181l2.795 5.502h2.114v27.343h-7.728"/><path fill="#DFE0E0" d="M136.875 152.64H112.75l2.005-4.624h20.985l1.135 4.624M175.46 159.644h-18.984l-1.001-11.628h20.985l-1 11.628M162.325 83.666l1.722 1.227h4.296l1.625-1.721v4.344l-4 9.75-4-10.459.357-3.141M120.712 119.26h7.983v-4.028h-7.983zM76.918 79.775v2.241h9.795l.044-3.339v-2.192c.186-.184.377-.381.548-.58a2.417 2.417 0 0 0-.162.154c-.684.735-1.721 1.507-2.423 2.106a3.114 3.114 0 0 1-1.987.745h-2.111a3.114 3.114 0 0 1-1.987-.745c-.67-.572-1.645-1.301-2.327-2.005-.021-.022-.044-.043-.067-.064.205.218.439.439.688.658-.005.003-.011.006-.011.012v3.009"/><path fill="#48515A" d="M67.967 167.021l-.054-36.805-1.891-4.003V99.037h2v26.727l1.89 4.003.055 37.25-2 .004M102.745 136.037h-6.959a1 1 0 1 1 0-2h6.131l1.051-1.051V89.853l-17.244-8.146v-5.648l.298-.294c.59-.58.773-.858.822-.99l2.138-4.369 2.152-1.077.419-2.081-.494-.056H89.87l.204-1.172c.171-.98.257-1.857.257-2.609v-.365a8.094 8.094 0 0 0-.741-3.493 8.648 8.648 0 0 0-2.528-3.243 8.487 8.487 0 0 0-5.242-1.835c-2.215-.017-4.359.87-5.992 2.494-1.678 1.665-2.64 3.957-2.64 6.286v.156c0 .768.075 1.654.223 2.631l.173 1.15h-1.557a.094.094 0 0 0-.071.033l.605 2.116 1.9 1.098 2.021 4.273c.222.585 1.405 1.548 2.112 2.123.247.202.483.393.691.571.375.319.854.499 1.348.504h2.105a1 1 0 1 1 0 2h-2.115a4.133 4.133 0 0 1-2.637-.984c-.197-.168-.42-.349-.654-.54-1.084-.882-2.312-1.881-2.691-2.896l-1.72-3.631-2.061-1.192-.926-3.38c0-.9.569-1.668 1.366-1.965a17.925 17.925 0 0 1-.112-1.911v-.156c0-2.858 1.178-5.667 3.23-7.705 2.016-2.003 4.662-3.079 7.416-3.075 2.371.016 4.607.799 6.467 2.265a10.676 10.676 0 0 1 3.109 3.983c.611 1.316.932 2.792.922 4.256l-.001.432c0 .579-.042 1.215-.128 1.9.292.104.559.274.782.504.391.402.597.933.581 1.493l-.019.169-.646 3.203-2.42 1.212-1.803 3.676c-.157.428-.533.884-.954 1.321v3.551l17.244 8.145v45.229l-2.223 2.223"/><path fill="#48515A" d="M68.929 130.992h26.585v-2H68.929zM81.058 167.019h2v-28.71h-2z"/><path fill="#48515A" d="M96.786 167.019h-2v-37.224l1.636-4.003V99.037h2v27.148l-1.636 4.003v36.831"/><path fill="#48515A" d="M99.473 145.855h-3.687v-2h2.859l1.05-1.051v-7.767h2v8.595l-2.222 2.223M72.299 137.673h-3.641v-2h2.496l1.465-2.493v-3.469h2v4.014l-2.32 3.948M95.581 137.673h-3.682l-2.023-3.981v-4.031h2.001v3.552l1.25 2.46h2.454v2M68.149 136.037H61.19l-2.222-2.223V88.587l16.949-8.064v-3.757h2.001v5.021l-16.95 8.064v43.135l1.05 1.051h6.131v2"/><path fill="#48515A" d="M68.149 145.855h-3.687l-2.222-2.223v-8.595h2v7.767l1.05 1.051h2.859v2"/><path fill="#475059" d="M151.968 135.016h-6.001v-9h2v7h4.001v2M157.544 88.082a14.65 14.65 0 0 1-2.576-8.315v-7.751c0-6.065 4.934-11 11-11 6.065 0 11 4.935 11 11v8.706c0 2.31-.555 4.618-1.604 6.678l-.291.57-1.782-.908.291-.57a12.78 12.78 0 0 0 1.386-5.77v-8.706c0-4.963-4.038-9-9-9-4.963 0-9 4.037-9 9v7.751c0 2.575.77 5.059 2.226 7.184l-1.65 1.131"/><path fill="#475059" d="M160.968 88.016h2v-5.001h-2z"/><path fill="#475059" d="M170.968 88.016h-2v-5.254l.6-.606c.441-.439.941-.937 1.269-1.436.379-.576.718-1.285 1.006-2.106l.112-.32 1.013-.665v-1.071a3.006 3.006 0 0 1-2-2.829v-.713h-10v.713a3.006 3.006 0 0 1-2 2.829v1.071l1.012.665.112.32c.288.821.627 1.53 1.006 2.107.889 1.354 2.125 2.442 2.782 2.97.256.206.584.32.926.324h2.334v2h-2.344a3.52 3.52 0 0 1-2.17-.766c-.914-.735-2.211-1.926-3.199-3.43a11.318 11.318 0 0 1-1.105-2.22l-1.354-.889v-3.981h1c.551 0 1-.448 1-1v-2.713h14v2.713c0 .552.449 1 1 1h1v3.981l-1.355.889a11.318 11.318 0 0 1-1.105 2.22c-.441.672-1.019 1.247-1.529 1.755l-.011.011v4.431M115.546 168.032l-.792-9.826 1.993-.161.793 9.827-1.994.16M113.077 147.915l-.109-13.891 2-.016.109 13.891-2 .016"/><path fill="#475059" d="M107.246 145.94l-3.333-1.059-4.654.953-.401-1.959 5.164-1.058 2.998.953 3.242-1.838 2.899-4.461 1.676 1.09-3.164 4.871-4.427 2.508M101.437 140.305l-1.022-1.719 5.517-3.28 5.072-10.145a15.391 15.391 0 0 1 8.695-7.633l.011-1.895-1.324-1.372a5.966 5.966 0 0 1-1.683-4.199l.01-1.734 2 .011-.01 1.734a3.982 3.982 0 0 0 1.122 2.8l1.89 1.958-.025 4.179-.714.209a13.38 13.38 0 0 0-8.183 6.836l-5.335 10.671-6.021 3.579m40.061-5.024l-4.869-9.373a13.401 13.401 0 0 0-8.088-6.652l-.842-.247-.024-4.178 1.897-1.965a3.962 3.962 0 0 0 1.115-2.782l-.01-1.704 2-.011.01 1.703a5.943 5.943 0 0 1-1.676 4.182l-1.331 1.379.01 1.889a15.407 15.407 0 0 1 8.713 7.464l4.035 7.765 4.159-1.664.743 1.858-5.842 2.336M133.841 168.056l-1.989-.209 1.028-9.826 1.989.209-1.028 9.826M134.968 148.016h2v-14h-2z"/><path fill="#475059" d="M142.204 143.016h-4.014l-3.254-4.406 1.608-1.188 2.655 3.594h2.533l3.518-1.759 1-1.754 3.59-1.759.881 1.795-3.038 1.49-.997 1.746-4.482 2.241M155.968 149.016h20v-2h-20z"/><path fill="#475059" d="M164.968 167.017h2v-19.001h-2zM186.968 135.016h-5v-2h3v-7h2v9"/><path fill="#475059" d="M189.163 127.016h-9.195v-2h6.804l-5.606-31.237c-.839-3.064-3.719-5.263-6.984-5.263h-3.525l-4.685 12.299-4.723-12.299h-2.88a7.264 7.264 0 0 0-7.024 5.424l-5.197 31.076h5.82v2h-8.182l5.606-33.494c1.083-4.161 4.767-7.006 8.977-7.006h4.254l3.341 8.701 3.315-8.701h4.903a9.28 9.28 0 0 1 8.933 6.823l6.048 33.677"/><path fill="#475059" d="M157.498 167.587l-2.409-18.571h-7.797l5.678-31.1.331-15.92 2 .041-.349 16.159-5.262 28.82h7.157l2.634 20.314-1.983.257M174.483 167.584l-1.984-.251 2.588-20.317h8.163l-6.282-28.989-.167-16 2-.022.166 15.899 6.764 31.112h-8.882l-2.366 18.568"/><path fill="#48515A" d="M156.97 118.019c0-.56.45-1 1-1s1 .44 1 1c0 .55-.45 1-1 1s-1-.45-1-1zm4 0c0-.56.45-1 1-1s1 .44 1 1c0 .55-.45 1-1 1s-1-.45-1-1zm4 0c0-.56.45-1 1-1s1 .44 1 1c0 .55-.45 1-1 1s-1-.45-1-1zm4 0c0-.56.45-1 1-1s1 .44 1 1c0 .55-.45 1-1 1s-1-.45-1-1zm4 0c0-.56.44-1 1-1 .55 0 1 .44 1 1 0 .55-.45 1-1 1-.56 0-1-.45-1-1z"/><path fill="#475059" d="M114.077 148.907h21.891v-2h-21.891zM123.967 175.957h2v-18.082h-2zM123.969 117.016c-.078 0-.156-.009-.236-.027l-3.255-.784a1.001 1.001 0 0 1 .469-1.946l3.255.784a1.001 1.001 0 0 1-.233 1.973"/><path fill="#FFD15D" d="M117.059 192.885a4.125 4.125 0 0 0-4.125-4.125h-62v-14.577h-6v17.952h4.5v.75h67.625"/><path fill="#475059" d="M121.93 196.135h-2v-3.01a6.958 6.958 0 0 0-2.042-4.955 6.954 6.954 0 0 0-4.943-2.063l-62.999-.158.005-2 62.999.158a8.937 8.937 0 0 1 6.355 2.652 8.942 8.942 0 0 1 2.625 6.367v3.009"/><path fill="#475059" d="M117.935 193.037h-2c0-1.655-1.346-3-3-3h-63v-2h63c2.756 0 5 2.243 5 5"/><path fill="#475059" d="M125.935 193.125h-2c0-6.066-4.935-11-11-11H49.921v-15.952h63.014c7.168 0 13 5.832 13 13h-2c0-6.065-4.935-11-11-11H51.921v11.952h61.014c7.168 0 13 5.832 13 13"/><path fill="#475059" d="M123.935 193.125h2v-13.952h-2z"/><path fill="#475059" d="M124.931 197.525a11.255 11.255 0 0 1-8.175-3.488H43.932l.003-20.864h7v2h-5l-.003 16.864h71.72l.3.342a9.217 9.217 0 0 0 5.983 3.093v-3.337h2v5.39h-1.004"/><path fill="#FFD15D" d="M132.855 192.885a4.125 4.125 0 0 1 4.125-4.125h62v-14.577h6v17.952h-4.5v.75h-67.625"/><path fill="#475059" d="M129.985 196.135h-2v-3.01a8.936 8.936 0 0 1 2.624-6.366 8.937 8.937 0 0 1 6.355-2.652l62.999-.158.005 2-62.999.158a6.954 6.954 0 0 0-4.943 2.063 6.956 6.956 0 0 0-2.041 4.953v3.012"/><path fill="#475059" d="M133.98 193.037h-2c0-2.757 2.243-5 5-5h62.999v2H136.98c-1.654 0-3 1.345-3 3"/><path fill="#475059" d="M125.98 193.125h-2c0-7.168 5.832-13 13-13h61.014v-11.952H136.98c-6.065 0-11 4.935-11 11h-2c0-7.168 5.832-13 13-13h63.014v15.952H136.98c-6.065 0-11 4.934-11 11"/><path fill="#475059" d="M123.98 193.125h2v-13.952h-2z"/><path fill="#475059" d="M124.983 197.525h-1.003v-5.39h2v3.337a9.21 9.21 0 0 0 5.983-3.093l.299-.342h71.72l-.002-16.864h-5v-2h7l.002 20.864h-72.823a11.26 11.26 0 0 1-8.176 3.488"/><path fill="#FFD15D" d="M117.059 192.885a4.125 4.125 0 0 0-4.125-4.125h-62v-14.577h-6v17.952h4.5v.75h67.625"/><path fill="#475059" d="M121.93 196.135h-2v-3.01a6.958 6.958 0 0 0-2.042-4.955 6.954 6.954 0 0 0-4.943-2.063l-62.999-.158.005-2 62.999.158a8.937 8.937 0 0 1 6.355 2.652 8.942 8.942 0 0 1 2.625 6.367v3.009"/><path fill="#475059" d="M117.935 193.037h-2c0-1.655-1.346-3-3-3h-63v-2h63c2.756 0 5 2.243 5 5"/><path fill="#475059" d="M125.935 193.125h-2c0-6.066-4.935-11-11-11H49.921v-15.952h63.014c7.168 0 13 5.832 13 13h-2c0-6.065-4.935-11-11-11H51.921v11.952h61.014c7.168 0 13 5.832 13 13"/><path fill="#475059" d="M123.935 193.125h2v-13.952h-2z"/><path fill="#475059" d="M124.931 197.525a11.255 11.255 0 0 1-8.175-3.488H43.932l.003-20.864h7v2h-5l-.003 16.864h71.72l.3.342a9.217 9.217 0 0 0 5.983 3.093v-3.337h2v5.39h-1.004"/><path fill="#FFD15D" d="M132.855 192.885a4.125 4.125 0 0 1 4.125-4.125h62v-14.577h6v17.952h-4.5v.75h-67.625"/><path fill="#475059" d="M129.985 196.135h-2v-3.01a8.936 8.936 0 0 1 2.624-6.366 8.937 8.937 0 0 1 6.355-2.652l62.999-.158.005 2-62.999.158a6.954 6.954 0 0 0-4.943 2.063 6.956 6.956 0 0 0-2.041 4.953v3.012"/><path fill="#475059" d="M133.98 193.037h-2c0-2.757 2.243-5 5-5h62.999v2H136.98c-1.654 0-3 1.345-3 3"/><path fill="#475059" d="M125.98 193.125h-2c0-7.168 5.832-13 13-13h61.014v-11.952H136.98c-6.065 0-11 4.935-11 11h-2c0-7.168 5.832-13 13-13h63.014v15.952H136.98c-6.065 0-11 4.934-11 11"/><path fill="#475059" d="M123.98 193.125h2v-13.952h-2z"/><path fill="#475059" d="M124.983 197.525h-1.003v-5.39h2v3.337a9.21 9.21 0 0 0 5.983-3.093l.299-.342h71.72l-.002-16.864h-5v-2h7l.002 20.864h-72.823a11.26 11.26 0 0 1-8.176 3.488M110.931 75.247v.117c0 .8.312 1.551.878 2.116a2.968 2.968 0 0 0 2.112.874h.006l.729-.001a2.996 2.996 0 0 0 2.985-2.99v-.116l-3.355-9.374-3.355 9.374zm2.99 5.107a4.959 4.959 0 0 1-3.525-1.458 4.956 4.956 0 0 1-1.465-3.532v-.465l5.355-14.961 5.355 14.961v.464a4.998 4.998 0 0 1-4.982 4.99l-.729.001h-.009z"/><path fill="#475059" d="M109.938 76.073h8.703v-2h-8.703zM124.973 61.766l-3.366-3.791H108.93v-2h13.575l2.468 2.779 2.467-2.779h13.49v2h-12.592l-3.365 3.791M120.997 88.073h-2v-2.348L122 82.722V64.749h2V83.55l-3.003 3.003v1.52M130.869 88.073h-2v-1.524l-2.998-2.999V64.749h2v17.973l2.998 2.999v2.352"/><path fill="#475059" d="M121.544 61.878h6.782v-2h-6.782zM132.225 75.23c.038.741.345 1.433.874 1.961a2.974 2.974 0 0 0 2.112.874h.006l.729-.001a2.995 2.995 0 0 0 2.981-2.835l-3.351-9.683-3.351 9.684zm2.986 4.835a4.955 4.955 0 0 1-3.525-1.459 4.953 4.953 0 0 1-1.465-3.531v-.168l5.355-15.476 5.355 15.474v.168a4.998 4.998 0 0 1-4.981 4.991l-.73.001h-.009z"/><path fill="#475059" d="M131.228 76.073h8.703v-2h-8.703zM121.544 65.749h6.782v-2h-6.782zM123 84.136h3.871v-2H123z"/><path fill="#48515A" d="M213.053 136.973h2v-4h-2zM213.053 146.973h2v-4h-2zM217.053 140.973h4v-2h-4zM207.053 140.973h4v-2h-4zM34.947 86.943h2v-4h-2zM34.947 96.943h2v-4h-2zM38.947 90.943h4v-2h-4zM28.947 90.943h4v-2h-4z"/><path fill="#FFD15D" d="M214.39 163.448a2.397 2.397 0 1 1-4.793-.001 2.397 2.397 0 0 1 4.793.001m-19.566-24.842a1.932 1.932 0 1 0 3.864 0 1.932 1.932 0 0 0-3.864 0"/><path fill="#5FE0ED" d="M42.614 134.807a1.834 1.834 0 1 1-3.668 0 1.834 1.834 0 0 1 3.668 0m9.665-19.956a1.166 1.166 0 1 1-2.331-.001 1.166 1.166 0 0 1 2.331.001"/><path fill="#475059" d="M220.015 94.968h-2c0-6.494-6.15-11.582-14-11.582-7.851 0-14 5.088-14 11.582h-2c0-7.616 7.027-13.582 16-13.582 8.972 0 16 5.966 16 13.582"/><path fill="#475059" d="M195.963 95.444h-2c0-1.103-.897-2-2-2s-2 .897-2 2h-2c0-2.206 1.794-4 4-4 2.205 0 4 1.794 4 4"/><path fill="#475059" d="M204.963 95.444h-2c0-.946-1.438-2-3.5-2-2.063 0-3.5 1.054-3.5 2h-2c0-2.243 2.416-4 5.5-4s5.5 1.757 5.5 4m15.009 0h-2c0-1.103-.897-2-2-2s-2 .897-2 2h-2c0-2.206 1.795-4 4-4 2.206 0 4 1.794 4 4"/><path fill="#475059" d="M213.972 95.444h-2c0-.946-1.437-2-3.5-2-2.063 0-3.5 1.054-3.5 2h-2c0-2.243 2.416-4 5.5-4s5.5 1.757 5.5 4"/><path fill="#475059" d="M213.963 93.444h-2c0-5.514-3.589-10-8-10s-8 4.486-8 10h-2c0-6.617 4.486-12 10-12s10 5.383 10 12"/><path fill="#475059" d="M205.941 111.444a2.939 2.939 0 0 1-2.935-2.935V93.832c.049-3.695.098-9.575.041-10.991l-.041-.041v-3.357h2l-.011 2.943c.123.99.115 3.606.011 11.459v14.664a.935.935 0 0 0 1.869 0h2a2.938 2.938 0 0 1-2.934 2.935m-90.816.556H111.5v-2.5c0-2.756 2.243-5 5-5h.234a7.889 7.889 0 0 1 2.336-5.179 7.886 7.886 0 0 1 5.662-2.305c2.103 0 4.089.817 5.588 2.306a7.885 7.885 0 0 1 2.335 5.178h.26c2.757 0 5 2.244 5 5h-2c0-1.654-1.346-3-3-3h-2.247v-1.564a5.899 5.899 0 0 0-1.757-4.195c-1.127-1.118-2.637-1.711-4.212-1.725h-.027a5.901 5.901 0 0 0-4.193 1.725 5.906 5.906 0 0 0-1.758 4.199v1.56H116.5c-1.654 0-3 1.346-3 3v.5h1.625v2"/><path fill="#475059" d="M120.333 106.417v-2a3.339 3.339 0 0 0 3.334-3.334h2a5.34 5.34 0 0 1-5.334 5.334"/><path fill="#475059" d="M129 106.417a5.34 5.34 0 0 1-5.333-5.334h2a3.338 3.338 0 0 0 3.333 3.334v2M137.915 112.042h-3.373v-2h1.373v-.542h2v2.542M139.999 159h-29.997v-3.205l3-7.001V145h2v4.205l-3 7.001V157h25.997v-.794L135 149.205V145h2v3.794l2.999 7.001V159"/></g></svg>