<?xml version="1.0" encoding="utf-8"?><svg xmlns="http://www.w3.org/2000/svg" width="250" height="250" viewBox="0 0 250 250"><g fill="none" fill-rule="evenodd"><path fill="#DBDBD5" d="M78.267 168.245l23.417 23.417H78.267l-2.166-12.833 2.166-10.584"/><path fill="#FACD60" d="M78.267 192.087v-23.842H54.425"/><path fill="#434A4F" d="M78.681 191.088h80.075V50.033H55.425v117.798l23.256 23.257zm82.075 2H77.853l-24.428-24.429V48.033h107.331v145.055z"/><path fill="#42494E" d="M179.706 81.864a11.517 11.517 0 0 1-.687-8.843 11.51 11.51 0 0 1 5.766-6.739c5.696-2.894 12.686-.616 15.582 5.08l-1.783.906c-2.394-4.713-8.178-6.598-12.893-4.203a9.528 9.528 0 0 0-4.771 5.576 9.524 9.524 0 0 0 .569 7.317l-1.783.906"/><path fill="#E9886C" d="M190.014 73.069a3.49 3.49 0 0 0-2.476 1.024 3.505 3.505 0 0 0 0 4.95 3.504 3.504 0 0 0 4.95-.001 3.504 3.504 0 0 0 0-4.95 3.49 3.49 0 0 0-2.474-1.023zm-.001 9.995a6.482 6.482 0 0 1-4.596-1.9 6.509 6.509 0 0 1 0-9.193c2.532-2.534 6.656-2.534 9.192 0a6.507 6.507 0 0 1 0 9.193 6.476 6.476 0 0 1-4.596 1.9z"/><path fill="#434A4F" d="M186.484 93.489c.26 0 .525.021.791.063 2.083.333 3.642 1.894 3.97 3.979l.36 2.288 4.002-.629-.361-2.288c-.327-2.085.676-4.05 2.558-5.006 1.88-.956 4.06-.607 5.551.885l1.635 1.64 2.868-2.861-1.636-1.64c-1.491-1.494-1.834-3.673-.873-5.553.96-1.88 2.933-2.881 5.01-2.546l2.288.364.637-4-2.286-.365c-2.085-.332-3.643-1.894-3.971-3.979-.328-2.084.676-4.049 2.557-5.005l2.065-1.049-1.79-3.521-2.064 1.049c-1.883.956-4.062.608-5.552-.885-1.49-1.494-1.834-3.673-.874-5.552l1.054-2.063-3.607-1.843-1.053 2.063c-.961 1.88-2.936 2.874-5.012 2.547-2.084-.332-3.643-1.894-3.971-3.979l-.359-2.288-4.002.63.36 2.288c.328 2.085-.675 4.05-2.557 5.006-1.882.956-4.06.609-5.551-.884l-1.636-1.64-2.867 2.862 1.637 1.638c1.49 1.495 1.833 3.675.873 5.554-.96 1.879-2.925 2.881-5.011 2.546l-2.287-.364-.638 4 2.287.365c2.084.332 3.643 1.894 3.971 3.978.328 2.085-.676 4.05-2.557 5.006l-2.064 1.05 1.788 3.518 2.065-1.05c1.882-.955 4.059-.608 5.55.886 1.491 1.493 1.833 3.673.873 5.553l-1.052 2.062 3.606 1.843 1.054-2.063c.838-1.64 2.442-2.61 4.221-2.61zm3.457 8.617l-.672-4.264c-.232-1.472-1.345-2.161-2.31-2.315-.96-.153-2.237.156-2.915 1.482l-1.964 3.843-7.169-3.662 1.963-3.843c.678-1.327.183-2.539-.508-3.231-.688-.691-1.899-1.189-3.228-.514l-3.848 1.955-3.6-7.084 3.847-1.956c1.328-.675 1.639-1.947 1.488-2.912-.153-.965-.839-2.08-2.31-2.314l-4.264-.68 1.269-7.95 4.262.68c1.463.23 2.469-.611 2.915-1.482.444-.87.544-2.176-.508-3.231l-3.049-3.054 5.697-5.687 3.05 3.054c1.053 1.055 2.358.959 3.229.515.871-.442 1.719-1.44 1.487-2.912l-.671-4.264 7.953-1.251.672 4.264c.231 1.471 1.345 2.16 2.309 2.314.968.155 2.238-.154 2.916-1.482l1.962-3.843 7.17 3.661-1.964 3.844c-.677 1.327-.181 2.538.509 3.23.689.691 1.899 1.192 3.23.515l3.847-1.956 3.602 7.088-3.848 1.955c-1.328.675-1.639 1.946-1.487 2.912.151.965.838 2.08 2.31 2.315l4.262.679-1.268 7.95-4.262-.679c-1.48-.234-2.471.611-2.916 1.481-.444.87-.544 2.176.509 3.23l3.048 3.056-5.7 5.686-3.047-3.055c-1.052-1.055-2.359-.958-3.229-.515-.871.443-1.72 1.44-1.487 2.912l.669 4.264-7.951 1.251z"/><path fill="#434A4F" d="M188.029 62.673c-.04-.551.38-1.031.93-1.071.55-.04 1.03.38 1.07.93.03.55-.379 1.03-.93 1.07h-.07c-.52 0-.96-.4-1-.929zm4.76 1.189a.99.99 0 0 1-.76-1.189.997.997 0 0 1 1.19-.761c.54.12.88.65.76 1.19-.1.47-.51.79-.97.79a.78.78 0 0 1-.22-.03zm-8.59-.069c-.2-.52.07-1.1.59-1.29h-.01a1.002 1.002 0 1 1 .35 1.94 1 1 0 0 1-.93-.65zm12.06 1.369c-.49-.27-.66-.869-.4-1.36.27-.48.88-.66 1.36-.4.48.27.66.88.4 1.36-.19.33-.53.52-.88.52-.16 0-.33-.04-.48-.12zm-15.43.79c-.33-.449-.24-1.07.2-1.4.44-.33 1.07-.24 1.4.201a.993.993 0 0 1-.2 1.399c-.18.13-.39.2-.6.2-.3 0-.6-.14-.8-.4zm18.38 1.42a.978.978 0 0 1 0-1.41.996.996 0 1 1 1.41 1.41.977.977 0 0 1-1.41 0zm-21 1.59c-.44-.33-.53-.959-.2-1.4.34-.44.96-.53 1.4-.19.44.33.531.96.2 1.401-.2.259-.5.389-.8.389-.21 0-.42-.06-.6-.2zm23.22 1.37a.984.984 0 0 1 .4-1.35.984.984 0 0 1 1.35.4c.27.48.09 1.09-.4 1.35-.15.09-.31.13-.47.13-.36 0-.7-.189-.88-.53zm-24.88 2.27c-.52-.2-.78-.77-.59-1.29.191-.519.77-.78 1.29-.59a1.003 1.003 0 0 1-.7 1.88zm26.17 1.2a.997.997 0 0 1 .76-1.19c.54-.109 1.08.23 1.19.77a.996.996 0 0 1-.76 1.19c-.08.01-.15.02-.219.02a.992.992 0 0 1-.971-.79zm-26.74 2.75c-.55-.04-.97-.52-.93-1.07a.998.998 0 0 1 1.07-.92 1 1 0 0 1 .93 1.07c-.04.52-.48.92-1 .92h-.07zm27.93 2.02a1.004 1.004 0 0 1-.93-1.069.999.999 0 1 1 1.99.139.988.988 0 0 1-1 .93h-.06zm-28.56 1.17c-.12-.54.23-1.07.77-1.19.531-.11 1.071.23 1.19.77.11.54-.23 1.07-.77 1.19a1.003 1.003 0 0 1-1.19-.77zm27.43 2.66c-.52-.19-.78-.77-.589-1.29a1 1 0 0 1 1.289-.58c.52.19.78.761.59 1.28-.15.4-.53.65-.94.65-.12 0-.229-.019-.35-.06zm-25.94 1.351a.996.996 0 0 1 .4-1.361.992.992 0 0 1 1.35.401.988.988 0 0 1-.39 1.349.966.966 0 0 1-.48.131 1 1 0 0 1-.88-.52zm23.78 2.009c-.44-.33-.53-.96-.2-1.4.33-.44.96-.53 1.4-.2.44.33.53.96.2 1.4-.2.26-.5.4-.8.4-.21 0-.42-.07-.6-.2zm-21.219 1.4a.993.993 0 0 1 0-1.409.993.993 0 0 1 1.409 0 .995.995 0 0 1 0 1.409c-.19.2-.45.3-.7.3-.26 0-.52-.1-.709-.3zm18.199 1.22c-.33-.44-.24-1.07.2-1.4a.994.994 0 0 1 1.4.2 1.002 1.002 0 0 1-.799 1.6c-.301 0-.601-.14-.801-.4zm-14.79 1.35c-.48-.27-.659-.87-.39-1.36a1 1 0 0 1 1.35-.4c.49.27.66.88.4 1.36a.996.996 0 0 1-.88.52c-.16 0-.32-.04-.48-.12zm11.15.3a.995.995 0 0 1 .59-1.279c.52-.191 1.09.069 1.29.589a.993.993 0 0 1-.59 1.28.857.857 0 0 1-.349.07.998.998 0 0 1-.941-.66zm-7.14 1.19c-.54-.12-.89-.65-.77-1.19.12-.54.65-.88 1.19-.759.54.109.88.65.77 1.189-.109.47-.52.791-.98.791a.763.763 0 0 1-.21-.031zm3.19-.62a.997.997 0 0 1 .92-1.07c.55-.04 1.03.38 1.07.93a.998.998 0 0 1-.93 1.07h-.06a.99.99 0 0 1-1-.93z"/><path fill="#FACD60" d="M97.974 119.72l-.007-7.57 2-.002.007 7.57-2 .002M192.932 116.779l-93.962-.074.002-2 93.962.074-.002 2"/><path fill="#42494E" d="M92.378 112.743c-.796 0-1.544.31-2.107.872a2.958 2.958 0 0 0-.872 2.109 2.997 2.997 0 0 0 2.99 2.99l101.094.08 6.47-2.979-6.478-2.992-101.095-.08h-.002zm101.542 8.051h-.22l-101.313-.08a5 5 0 0 1-4.988-4.988 4.952 4.952 0 0 1 1.457-3.525 4.952 4.952 0 0 1 3.522-1.458h.003l101.533.08 10.815 4.994-10.809 4.977z"/><path fill="#FACD60" d="M72.434 75.983l-7.071-7.071 7.071-7.071 7.071 7.071-7.071 7.071M63.434 80.912h88.001v-2H63.434z"/><path fill="#434A4F" d="M65.434 88.912h32v-2h-32zM65.434 92.912h32v-2h-32z"/><path fill="#FACD60" d="M189.271 194.066l-4.904-4.904 4.904-4.904 4.904 4.904-4.904 4.904"/><path fill="#434A4F" d="M105.425 203.963h96v-42h-96v42zm-2 2h100v-46h-100v46z"/><path fill="#434A4F" d="M186.839 178.912h-66.828l-16.293-16.293 1.414-1.414 15.707 15.707h65.172l15.707-15.707 1.414 1.414-16.293 16.293M167.425 188.912h12v-2h-12zM167.425 192.912h12v-2h-12z"/><path fill="#FACD60" d="M151.424 156.963h52v-30h-52z"/><path fill="#434A4F" d="M160.838 142.058l3.49 3.49 3.49-3.49-3.49-3.49-3.49 3.49zm3.49 6.319l-6.318-6.319 6.318-6.318 6.319 6.318-6.319 6.319zM177.424 139.963h16v-2h-16zM177.424 143.963h12v-2h-12zM58.425 193.033h2v-4h-2zM58.425 203.033h2v-4h-2zM62.425 197.033h4v-2h-4zM52.425 197.033h4v-2h-4zM114.429 32.962h2v-4h-2zM114.429 42.962h2v-4h-2zM118.429 36.962h4.001v-2h-4.001zM108.429 36.962h4v-2h-4z"/><path fill="#75C7D0" d="M38.455 161.006a2.016 2.016 0 1 0-4.031 0 2.016 2.016 0 0 0 4.031 0"/><path fill="#FACD60" d="M180.43 218.037a3.001 3.001 0 0 0-6 0 3 3 0 1 0 6 0"/><path fill="#E9886C" d="M46.659 102.502a1.766 1.766 0 1 0 0 3.533 1.766 1.766 0 0 0 0-3.533"/><path fill="#434A4F" d="M78.437 143.003h2v-4h-2zM78.437 153.003h2v-4h-2zM82.437 147.003h4v-2h-4zM72.437 147.003h4v-2h-4z"/></g></svg>