<?xml version="1.0" encoding="utf-8"?><svg xmlns="http://www.w3.org/2000/svg" width="250" height="250" viewBox="0 0 250 250"><g fill="none" fill-rule="evenodd"><path fill="#DEDEDD" d="M108 70.992h34v-8h-34v8zm0 12.007h34v-8h-34v8zm0 12.008h34v-8h-34v8zm14.999 9.984a2 2 0 1 1 3.999-.001 2 2 0 0 1-3.999.001zM108 122.975h34v-8h-34v8zm0 12.008h34v-8h-34v8zm0 12.007h34v-8h-34v8zm35.999-88.999H106c-.551 0-1 .449-1 1v122.018c0 .551.449 1 1 1h37.999c.551 0 1-.449 1-1V58.991c0-.551-.449-1-1-1z"/><path fill="#475059" d="M137 187.01h6v-3.001h3.999V58.991c0-1.654-1.346-3-3-3H106c-1.654 0-3 1.346-3 3v125.018h4v3.001h6v-3.001h24v3.001zm8 2h-10v-3.001h-20v3.001h-10v-3.001h-4V58.991c0-2.757 2.244-5 5-5h37.999c2.756 0 5 2.243 5 5v127.018H145v3.001z"/><path fill="#DEDEDD" d="M109.999 68.993H140v-4.001h-30.001zM109.999 81H140v-4.001h-30.001zM109.999 93.007H140v-4.001h-30.001zM109.999 144.99H140v-4.001h-30.001zM109.999 132.983H140v-4.001h-30.001zM109.999 120.976H140v-4.001h-30.001zM53.967 70.992h34v-8h-34v8zm0 12.007h34v-8h-34v8zm0 12.008h34v-8h-34v8zm14.999 9.984a2 2 0 1 1 4 0 2 2 0 0 1-4 0zm-14.999 17.984h34v-8h-34v8zm0 12.008h34v-8h-34v8zm0 12.007h34v-8h-34v8zm35.999-88.999H51.968c-.551 0-1 .449-1 1v122.018c0 .551.449 1 1 1h37.998c.551 0 1-.449 1-1V58.991c0-.551-.449-1-1-1z"/><path fill="#475059" d="M82.967 187.01h6v-3.001h3.999V58.991c0-1.654-1.345-3-3-3H51.968c-1.654 0-3 1.346-3 3v125.018h3.999v3.001h6v-3.001h24v3.001zm8 2h-10v-3.001h-20v3.001h-10v-3.001h-3.999V58.991c0-2.757 2.243-5 5-5h37.998c2.757 0 5 2.243 5 5v127.018h-3.999v3.001z"/><path fill="#DEDEDD" d="M55.966 68.993h30.001v-4.001H55.966zM55.966 81h30.001v-4.001H55.966zM55.966 93.007h30.001v-4.001H55.966zM55.966 144.99h30.001v-4.001H55.966zM55.966 132.983h30.001v-4.001H55.966zM55.966 120.976h30.001v-4.001H55.966zM162.032 70.992h34v-8h-34v8zm0 12.007h34v-8h-34v8zm0 12.008h34v-8h-34v8zm14.999 9.984a2 2 0 1 1 4 0 2 2 0 0 1-4 0zm-14.999 17.984h34v-8h-34v8zm0 12.008h34v-8h-34v8zm0 12.007h34v-8h-34v8zm35.999-88.999h-37.998c-.551 0-1 .449-1 1v122.018c0 .551.449 1 1 1h37.998c.551 0 1-.449 1-1V58.991c0-.551-.449-1-1-1z"/><path fill="#475059" d="M191.032 187.01h6v-3.001h3.999V58.991c0-1.654-1.346-3-3-3h-37.998c-1.655 0-3 1.346-3 3v125.018h3.999v3.001h6v-3.001h24v3.001zm8 2h-10v-3.001h-20v3.001h-10v-3.001h-3.999V58.991c0-2.757 2.243-5 5-5h37.998c2.757 0 5 2.243 5 5v127.018h-3.999v3.001z"/><path fill="#DEDEDD" d="M164.031 68.993h30.002v-4.001h-30.002zM164.031 81h30.002v-4.001h-30.002zM164.031 93.007h30.002v-4.001h-30.002zM164.031 144.99h30.002v-4.001h-30.002zM164.031 132.983h30.002v-4.001h-30.002zM164.031 120.976h30.002v-4.001h-30.002z"/><path fill="#475059" d="M117 198H78.999c-3.859 0-7-3.141-7-7v-2.99h2V191c0 2.757 2.244 5 5 5H117c2.756 0 5-2.243 5-5v-3.001h2V191c0 3.859-3.141 7-7 7m54 0h-38c-3.86 0-7-3.141-7-7v-2.99h2V191c0 2.757 2.243 5 5 5h38c2.756 0 5-2.243 5-5v-3.001h2V191c0 3.859-3.141 7-7 7m43.998 0H187c-3.86 0-7-3.141-7-7v-2.99h2V191c0 2.757 2.243 5 5 5h27.998v2m-151.999 0H35.001v-2h27.998c2.757 0 5-2.243 5-5v-3.001h2V191c0 3.859-3.14 7-7 7"/><path fill="#48515A" d="M213 157h2v-4h-2zM213 167h2v-4h-2zM217 161h4v-2h-4zM207 161h4v-2h-4zM34.999 167h2v-4h-2zM34.999 177h2v-4h-2zM39 171h4v-2h-4zM28.999 171h4v-2h-4z"/><path fill="#FFD15D" d="M157.875 45.438a2.438 2.438 0 1 1-4.875-.001 2.438 2.438 0 0 1 4.875.001"/><path fill="#FFD15D" d="M155.437 43.5a1.94 1.94 0 0 0-1.937 1.938 1.94 1.94 0 0 0 1.937 1.937 1.94 1.94 0 0 0 1.938-1.937 1.94 1.94 0 0 0-1.938-1.938zm0 4.875a2.94 2.94 0 0 1-2.937-2.937 2.94 2.94 0 0 1 2.937-2.938 2.94 2.94 0 0 1 2.938 2.938 2.94 2.94 0 0 1-2.938 2.937z"/><path fill="#5FE0ED" d="M215.875 184.562a2.438 2.438 0 1 1-4.876 0 2.438 2.438 0 0 1 4.876 0"/><path fill="#FFD15D" d="M72.999 202.562a2.437 2.437 0 1 1-4.874.002 2.437 2.437 0 0 1 4.874-.002"/><path fill="#FFD15D" d="M70.562 200.625a1.94 1.94 0 0 0-1.938 1.938 1.94 1.94 0 0 0 1.938 1.937 1.94 1.94 0 0 0 1.937-1.937 1.94 1.94 0 0 0-1.937-1.938zm0 4.875a2.94 2.94 0 0 1-2.938-2.937 2.94 2.94 0 0 1 2.938-2.938 2.94 2.94 0 0 1 2.937 2.938 2.94 2.94 0 0 1-2.937 2.937z"/><path fill="#5FE0ED" d="M155 192a1 1 0 1 1-2 0 1 1 0 0 1 2 0"/><path fill="#DEDEDD" d="M211 143a2 2 0 1 1-4 0 2 2 0 0 1 4 0M98.999 51a2 2 0 1 1-3.999.001A2 2 0 0 1 99 51m0 141a1 1 0 1 1-2 0 1 1 0 0 1 2 0m-62-82a1 1 0 1 1-1.999.001 1 1 0 0 1 1.999-.001"/><path fill="#48515A" d="M120 38c-1.103 0-2 .897-2 2 0 1.102.897 2 2 2 1.102 0 2-.898 2-2 0-1.103-.898-2-2-2zm0 6c-2.207 0-4-1.794-4-4s1.793-4 4-4c2.206 0 4 1.794 4 4s-1.794 4-4 4zM37.999 129H36v-7.001h-1.001v-2h3V129"/><path fill="#48515A" d="M34.999 130h4v-2h-4zM214 121h-2v-7.001h-1v-2h3V121"/><path fill="#48515A" d="M211 122h4v-2h-4zM40.999 57.999c-.551 0-1 .448-1 1V63A1.001 1.001 0 0 0 42 63v-4.001c0-.552-.449-1-1.001-1zm0 8.001c-1.654 0-3-1.346-3-3v-4.001c0-1.654 1.346-3 3-3 1.655 0 3 1.346 3 3V63c0 1.654-1.345 3-3 3zM211 72a1 1 0 0 0-1 1v4.001a1 1 0 0 0 2 0V73c0-.552-.449-1-1-1zm0 8.001c-1.655 0-3-1.346-3-3V73c0-1.654 1.345-3 3-3 1.654 0 3 1.346 3 3v4.001c0 1.654-1.346 3-3 3zm-92 125.998a1 1 0 0 0-1 1V211a1 1 0 0 0 2 0v-4.001c0-.552-.449-1-1-1zm0 8.001c-1.655 0-3-1.346-3-3v-4.001c0-1.654 1.345-3 3-3 1.654 0 3 1.346 3 3V211c0 1.654-1.346 3-3 3z"/></g></svg>