<?xml version="1.0" encoding="utf-8"?><svg xmlns="http://www.w3.org/2000/svg" width="250" height="250" viewBox="0 0 250 250"><g fill="none" fill-rule="evenodd"><path fill="#42494E" d="M179.166 83.871h1.99v-32.76c0-5.024-4.087-9.111-9.111-9.111-5.024 0-9.112 4.087-9.112 9.111v11.438c0 3.927-3.195 7.121-7.121 7.121-3.927 0-7.123-3.194-7.123-7.121V51.111c0-5.024-4.086-9.111-9.111-9.111-5.024 0-9.112 4.088-9.112 9.112v11.437c0 3.927-3.195 7.121-7.121 7.121a7.128 7.128 0 0 1-7.121-7.121V51.112c0-5.024-4.088-9.112-9.113-9.112C102.087 42 98 46.088 98 51.112v32.759h1.99V51.112c0-3.926 3.195-7.122 7.121-7.122 3.927 0 7.122 3.196 7.122 7.122v11.437c0 5.024 4.087 9.112 9.112 9.112 5.024 0 9.112-4.088 9.112-9.112V51.112c0-3.926 3.194-7.122 7.121-7.122 3.927 0 7.121 3.195 7.121 7.121v11.438c0 5.024 4.088 9.112 9.113 9.112 5.024 0 9.111-4.088 9.111-9.112V51.111c0-3.926 3.195-7.121 7.122-7.121s7.121 3.195 7.121 7.121v32.76zm3.99 2h-5.99v-34.76a5.126 5.126 0 0 0-5.121-5.121 5.127 5.127 0 0 0-5.122 5.121v11.438c0 6.127-4.985 11.112-11.111 11.112-6.127 0-11.113-4.985-11.113-11.112V51.111a5.126 5.126 0 0 0-5.121-5.121 5.127 5.127 0 0 0-5.121 5.122v11.437c0 6.127-4.985 11.112-11.112 11.112s-11.112-4.985-11.112-11.112V51.112a5.128 5.128 0 0 0-5.122-5.122 5.127 5.127 0 0 0-5.121 5.122v34.759H96V51.112C96 44.985 100.984 40 107.111 40c6.127 0 11.113 4.985 11.113 11.112v11.437a5.126 5.126 0 0 0 5.121 5.121 5.126 5.126 0 0 0 5.121-5.121V51.112c0-6.127 4.985-11.112 11.112-11.112s11.111 4.984 11.111 11.111v11.438a5.128 5.128 0 0 0 5.123 5.121 5.126 5.126 0 0 0 5.121-5.121V51.111c0-6.127 4.985-11.111 11.112-11.111s11.111 4.984 11.111 11.111v34.76z"/><path fill="#42494E" d="M94 100h10V86H94v14zm-2 2h14V84H92v18zm83.002-2h10V86h-10v14zm-2 2h14V84h-14v18z"/><path fill="#42494E" d="M87 94a1 1 0 0 0 0 2h3v18.861l-.793.168c-22.692 4.811-38.314 25.165-37.145 48.401 1.208 24.056 21.02 43.619 45.102 44.535 12.911.493 25.142-4.161 34.428-13.101C140.883 185.92 146 173.894 146 161c0-22.067-15.648-41.401-37.207-45.971l-.793-.168V96h3a1 1 0 0 0 0-2H87zm12.02 116a52.04 52.04 0 0 1-1.932-.037c-25.108-.955-45.764-21.351-47.025-46.434C48.859 139.58 64.771 118.564 88 113.247V98h-1c-1.654 0-3-1.346-3-3s1.346-3 3-3h24c1.654 0 3 1.346 3 3s-1.346 3-3 3h-1v15.247c22.068 5.066 38 25.018 38 47.753 0 13.442-5.335 25.98-15.021 35.306-9.217 8.872-21.212 13.693-33.959 13.694zM167 94a1 1 0 0 0 0 2h3v99.635c0 5.616 4.401 10.264 9.813 10.363 2.687.065 5.262-.967 7.192-2.862A9.923 9.923 0 0 0 190 196V96h3a1 1 0 0 0 0-2h-26zm13.003 114l-.228-.002c-6.493-.118-11.775-5.665-11.775-12.363V98h-1c-1.654 0-3-1.346-3-3s1.346-3 3-3h26c1.654 0 3 1.346 3 3s-1.346 3-3 3h-1v98c0 3.247-1.276 6.288-3.594 8.563a11.91 11.91 0 0 1-8.403 3.437z"/><path fill="#42494E" d="M102 113.414l-6-6V101h2v5.586l2 2V101h2v12.414M182.999 113.414l-6-6V101h2v5.586l2 2V101h2v12.414"/><path fill="#75C7D0" d="M120 173a1 1 0 1 1 0-2 1 1 0 0 1 0 2zm0 8a1 1 0 1 1 0-2 1 1 0 0 1 0 2zm-10-16a1 1 0 1 1 0-2 1 1 0 0 1 0 2zm0 28a1 1 0 1 1 0-2 1 1 0 0 1 0 2zm-17-22a2 2 0 1 1 0-4 2 2 0 0 1 0 4zm0 24a2 2 0 1 1 0-4 2 2 0 0 1 0 4zm-6-12a2 2 0 1 1 0-4 2 2 0 0 1 0 4zm-19-18a1 1 0 1 1 0-2 1 1 0 0 1 0 2zm73.828-14h-85.69a44.662 44.662 0 0 0-1.081 12.278c1.133 22.519 19.678 40.831 42.221 41.689 12.096.459 23.54-3.895 32.233-12.264C138.209 184.329 143 173.07 143 161c0-3.422-.41-6.77-1.172-10zM103 141a2 2 0 1 1-4 0 2 2 0 0 1 4 0m16 3a1 1 0 1 0 2 0 1 1 0 0 0-2 0m-8 2a1 1 0 1 1-2 0 1 1 0 0 1 2 0m-18 0a1 1 0 1 0 2 0 1 1 0 0 0-2 0m-16-15a2 2 0 1 1-4 0 2 2 0 0 1 4 0m42-3a1 1 0 1 1-2 0 1 1 0 0 1 2 0m16 17a2 2 0 1 1-4 0 2 2 0 0 1 4 0m-14-9a1 1 0 1 1-2 0 1 1 0 0 1 2 0m-16-4a1 1 0 1 1-2 0 1 1 0 0 1 2 0"/><path fill="#FACD60" d="M179 131a2 2 0 1 1-4 0 2 2 0 0 1 4 0m8-8a2 2 0 1 1-4 0 2 2 0 0 1 4 0m-8-3a1 1 0 1 1-2 0 1 1 0 0 1 2 0m4 14a1 1 0 1 1 2 0 1 1 0 0 1-2 0m-1 17a1 1 0 1 1 0-2 1 1 0 0 1 0 2zm0 22a1 1 0 1 1 0-2 1 1 0 0 1 0 2zm-1 10a2 2 0 1 1 0-4 2 2 0 0 1 0 4zm-2 14a2 2 0 1 1 0-4 2 2 0 0 1 0 4zm-4-30a2 2 0 1 1 3.999-.001A2 2 0 0 1 175 167zm1-24a1 1 0 1 1 0 2 1 1 0 0 1 0-2zm4 16a1 1 0 1 1 0 2 1 1 0 0 1 0-2zm-8-20v56.635c0 4.533 3.521 8.285 7.849 8.364a7.927 7.927 0 0 0 5.755-2.29A7.94 7.94 0 0 0 188 196v-57h-16z"/><path fill="#42494E" d="M37 138c-1.654 0-3 1.346-3 3s1.346 3 3 3h43.715l6.507-3-6.507-3H37zm44.154 8H37c-2.757 0-5-2.243-5-5s2.243-5 5-5h44.154l10.843 5-10.843 5z"/><path fill="#42494E" d="M42.609 145h2v-7.599h-2z"/><path fill="#42494E" d="M43.609 141.972h36.557v-2H43.609zM140.266 118.144l-.526-3.343c-.142-.909-.831-1.335-1.427-1.43-.597-.096-1.383.096-1.801.915l-1.539 3.014-5.655-2.889 1.539-3.014c.419-.819.113-1.567-.314-1.995-.427-.426-1.175-.734-1.995-.317l-3.017 1.533-1.404-2.764 1.783-.907.498.982 1.234-.627c1.462-.745 3.157-.474 4.317.688a3.664 3.664 0 0 1 .68 4.318l-.629 1.232 2.092 1.068.628-1.232c.747-1.461 2.271-2.234 3.898-1.98a3.665 3.665 0 0 1 3.089 3.094l.215 1.366 2.32-.364-.216-1.368a3.666 3.666 0 0 1 1.989-3.893 3.662 3.662 0 0 1 4.318.689l.976.979 1.663-1.66-.977-.979a3.664 3.664 0 0 1-.68-4.318c.747-1.462 2.279-2.241 3.898-1.981l1.366.218.37-2.321-1.366-.217a3.665 3.665 0 0 1-3.088-3.095 3.664 3.664 0 0 1 1.988-3.893l1.234-.627-.499-.98 1.783-.906 1.405 2.763-3.017 1.533c-.82.418-1.012 1.204-.919 1.799.094.597.518 1.285 1.427 1.431l3.341.532-.999 6.27-3.341-.532c-.908-.143-1.527.378-1.802.916-.274.538-.335 1.343.315 1.996l2.39 2.393-4.494 4.487-2.39-2.396c-.65-.651-1.458-.592-1.995-.317-.538.273-1.063.889-.919 1.798l.526 3.343-6.273.988"/><path fill="#E9886C" d="M140.55 108.041a8.625 8.625 0 0 1-7.693-4.709l1.784-.906a6.62 6.62 0 0 0 8.89 2.898 6.618 6.618 0 0 0 2.898-8.889l1.783-.907a8.558 8.558 0 0 1 .511 6.572 8.56 8.56 0 0 1-4.285 5.007 8.56 8.56 0 0 1-3.888.934"/><path fill="#E9886C" d="M132.891 103.397a8.555 8.555 0 0 1-.51-6.571 8.554 8.554 0 0 1 4.286-5.008c4.232-2.149 9.427-.457 11.579 3.777l-1.783.906a6.619 6.619 0 0 0-8.89-2.899 6.568 6.568 0 0 0-3.291 3.844 6.566 6.566 0 0 0 .392 5.045l-1.783.906"/><path fill="#42494E" d="M124.337 108.268l-1.649-3.247 3.016-1.533c.82-.417 1.013-1.202.919-1.799-.094-.595-.518-1.285-1.427-1.429l-3.341-.533.999-6.27 3.342.532c.911.148 1.527-.378 1.801-.915s.337-1.344-.313-1.996l-2.391-2.394 4.495-4.486 2.39 2.396c.649.65 1.458.592 1.995.317.538-.273 1.062-.89.919-1.799l-.527-3.342 6.273-.988.527 3.344c.143.909.83 1.335 1.427 1.43.596.095 1.383-.096 1.801-.915l1.539-3.014 5.655 2.889-1.54 3.013c-.419.82-.112 1.568.314 1.995.426.428 1.175.738 1.995.319l3.016-1.533 1.579 3.106-1.783.906-.673-1.323-1.233.627c-1.464.742-3.158.474-4.317-.69-1.16-1.162-1.425-2.856-.679-4.317l.63-1.232-2.093-1.069-.629 1.233c-.747 1.461-2.274 2.231-3.897 1.98-1.622-.259-2.832-1.473-3.088-3.095l-.215-1.367-2.321.365.215 1.368a3.662 3.662 0 0 1-1.989 3.892c-1.465.744-3.159.474-4.317-.688l-.978-.98-1.663 1.66.979.98a3.663 3.663 0 0 1 .678 4.318c-.746 1.461-2.281 2.241-3.896 1.98l-1.367-.218-.37 2.32 1.367.219a3.663 3.663 0 0 1 3.087 3.094 3.662 3.662 0 0 1-1.989 3.892l-1.233.627.743 1.463-1.783.907"/><path fill="#FACD60" d="M137.639 102.232a4.074 4.074 0 0 1 5.76-5.76 4.074 4.074 0 0 1-5.76 5.76"/><path fill="#FACD60" d="M140.519 95.779a3.55 3.55 0 0 0-2.527 1.047 3.578 3.578 0 0 0 0 5.052c1.351 1.35 3.704 1.35 5.053 0a3.547 3.547 0 0 0 1.047-2.525c0-.956-.372-1.852-1.047-2.527a3.548 3.548 0 0 0-2.526-1.047zm0 8.146a4.545 4.545 0 0 1-3.234-1.34 4.579 4.579 0 0 1 0-6.466 4.545 4.545 0 0 1 3.234-1.34 4.54 4.54 0 0 1 3.233 1.34 4.541 4.541 0 0 1 1.34 3.234 4.54 4.54 0 0 1-1.34 3.232 4.54 4.54 0 0 1-3.233 1.34z"/><path fill="#434A4F" d="M213 121.007h2v-4h-2zM213 131.007h2v-4h-2zM217 125.007h4v-2h-4zM207 125.007h4v-2h-4zM35 167h2v-4h-2zM35 177h2v-4h-2zM39 171h4v-2h-4zM29 171h4v-2h-4zM59 83h2v-4h-2zM59 93h2v-4h-2zM63 87h4v-2h-4zM53 87h4v-2h-4z"/><path fill="#75C7D0" d="M153 187a2 2 0 1 1-4 0 2 2 0 0 1 4 0m2-44a2 2 0 1 1-4 0 2 2 0 0 1 4 0m46 14a2 2 0 1 1-4 0 2 2 0 0 1 4 0M71 107a2 2 0 1 1-4 0 2 2 0 0 1 4 0m2-47a3 3 0 1 1-6 0 3 3 0 0 1 6 0M55 99a2 2 0 1 0 3.999.001A2 2 0 0 0 55 99m150 44a2 2 0 1 1-4 0 2 2 0 0 1 4 0m-44 20a2 2 0 1 0-4 0 2 2 0 0 0 4 0"/></g></svg>