<?xml version="1.0" encoding="utf-8"?><svg xmlns="http://www.w3.org/2000/svg" width="250" height="250" viewBox="0 0 250 250"><g fill="none" fill-rule="evenodd"><path fill="#DFE0E0" d="M199.02 125c0-40.869-33.131-74-74-74s-74 33.131-74 74c0 1.007.036 2.005.076 3.002 1.606-39.665 34.227-70.995 73.924-70.998 39.698.003 72.319 31.333 73.924 70.998.04-.997.076-1.995.076-3.002"/><path fill="#48515A" d="M125.02 48c-42.525 0-77 34.474-77 77 0 42.525 34.474 77 76.999 77 42.526 0 77.001-34.474 77.001-76.999V125c-.048-42.506-34.494-76.952-77-77zm0 156c-43.628.386-79.309-34.673-79.695-78.302-.385-43.629 34.67-79.309 78.299-79.695.465-.004.931-.004 1.396-.003 43.631 0 79 35.37 79 79 0 43.631-35.369 79-79 79z"/><path fill="#48515A" d="M123.113 80.679h2V60.55h-2zM122.926 189.857h2v-20.129h-2zM169.704 124.063h20.128v-2h-20.128zM59.601 126H79.73v-2H59.601zM171.875 96.498l8.717-5.032 1 1.733-8.717 5.031-1-1.732M67.449 155.135l8.716-5.032 1 1.733-8.716 5.031-1-1.732M152.79 77.77l5.032-8.717 1.732 1-5.031 8.717-1.733-1M92.195 181.061l5.031-8.717 1.733 1-5.032 8.717-1.732-1M92.382 69.126l1.732-1 5.032 8.717-1.732 1-5.032-8.717M152.623 172.272l1.732-1 5.033 8.716-1.733 1-5.032-8.716M69.49 91.407l1-1.733 8.717 5.033-1.001 1.732-8.716-5.032M173.709 150.106l1-1.732 8.716 5.032-1 1.732-8.716-5.032M123.019 120.001h2V85h-2z"/><path fill="#48515A" d="M123.061 62.03L123 60.031a64.606 64.606 0 0 1 2.02-.031h.161v2h-.161c-.655 0-1.308.01-1.959.03zm6.034.1a63.422 63.422 0 0 0-1.959-.095l.068-1.999c.675.023 1.348.055 2.018.098l-.127 1.996zm-9.944.14l-.184-1.992c.668-.062 1.34-.113 2.015-.154l.122 1.996c-.654.04-1.305.09-1.953.15zm13.843.229a62.28 62.28 0 0 0-1.947-.215l.189-1.991c.673.064 1.343.138 2.009.222l-.251 1.984zm-17.73.252l-.308-1.977a66 66 0 0 1 2.002-.279l.246 1.985c-.65.08-1.296.17-1.94.271zm21.599.36a67.637 67.637 0 0 0-1.931-.336l.315-1.976c.667.107 1.33.222 1.989.347l-.373 1.965zm-25.448.362l-.431-1.953c.657-.145 1.317-.28 1.98-.404l.369 1.966c-.643.121-1.282.251-1.918.391zm29.271.49a60.014 60.014 0 0 0-1.905-.456l.435-1.952c.66.147 1.315.304 1.966.47l-.496 1.938zm-33.069.471l-.552-1.923c.646-.185 1.297-.36 1.952-.526l.49 1.938c-.634.161-1.264.331-1.89.511zm36.832.618c-.62-.2-1.245-.392-1.873-.574l.556-1.921c.649.188 1.293.386 1.933.593l-.616 1.902zm-40.567.581l-.672-1.884a66.74 66.74 0 0 1 1.922-.65l.611 1.904a64.55 64.55 0 0 0-1.861.63zm44.253.742a62.779 62.779 0 0 0-1.833-.69l.676-1.883c.635.229 1.266.466 1.892.713l-.735 1.86zm-47.911.692l-.788-1.838a63.56 63.56 0 0 1 1.875-.769l.73 1.862c-.61.239-1.216.487-1.817.745zm51.497.855a62.018 62.018 0 0 0-1.782-.801l.792-1.837c.618.266 1.231.542 1.839.827l-.849 1.811zm-55.055.804l-.901-1.786c.602-.304 1.21-.599 1.822-.884l.846 1.812a62.56 62.56 0 0 0-1.767.858zm58.54.963a58.04 58.04 0 0 0-1.729-.911l.905-1.784c.6.304 1.195.617 1.784.94l-.96 1.755zm-61.986.913l-1.01-1.725a63.298 63.298 0 0 1 1.762-.996l.956 1.757c-.574.313-1.144.634-1.708.964zm65.357 1.068a65.739 65.739 0 0 0-1.67-1.017l1.013-1.724c.581.341 1.156.691 1.724 1.05l-1.067 1.691zm-68.678 1.02l-1.116-1.66c.56-.376 1.125-.743 1.696-1.103l1.064 1.694a65.06 65.06 0 0 0-1.644 1.069zm71.92 1.168a63.845 63.845 0 0 0-1.605-1.119l1.119-1.657c.559.376 1.11.761 1.656 1.154l-1.17 1.622zm-75.103 1.121l-1.218-1.587a61.438 61.438 0 0 1 1.624-1.206l1.167 1.624c-.531.381-1.055.771-1.573 1.169zm78.206 1.265a66.485 66.485 0 0 0-1.533-1.217l1.218-1.586c.535.411 1.062.83 1.582 1.256l-1.267 1.547zm-81.241 1.214l-1.314-1.507a64.238 64.238 0 0 1 1.547-1.305l1.264 1.549a60.16 60.16 0 0 0-1.497 1.263zm84.191 1.361a58.23 58.23 0 0 0-1.454-1.31l1.313-1.508c.509.443 1.009.893 1.503 1.352l-1.362 1.466zm-87.067 1.303l-1.403-1.425c.48-.473.968-.938 1.462-1.396l1.358 1.468c-.479.443-.951.895-1.417 1.353zm89.855 1.449a67.018 67.018 0 0 0-1.372-1.398l1.405-1.423c.479.474.951.954 1.415 1.442l-1.448 1.379zm-92.559 1.385l-1.488-1.336a66.27 66.27 0 0 1 1.371-1.483l1.448 1.38c-.451.473-.894.952-1.331 1.439zm95.171 1.536c-.42-.5-.848-.994-1.284-1.481l1.491-1.334c.449.503.891 1.012 1.325 1.528l-1.532 1.287zM75.579 85.95l-1.568-1.241c.418-.528.843-1.049 1.277-1.564l1.53 1.288a62.035 62.035 0 0 0-1.239 1.517zm100.122 1.62a64.71 64.71 0 0 0-1.191-1.558l1.57-1.239c.418.53.827 1.065 1.228 1.607l-1.607 1.19zM73.248 89.092l-1.643-1.14c.384-.554.777-1.101 1.178-1.641l1.606 1.192a61.99 61.99 0 0 0-1.141 1.589zm104.686 1.702a59.266 59.266 0 0 0-1.092-1.629l1.644-1.14c.384.554.76 1.114 1.127 1.681l-1.679 1.088zM71.115 92.373l-1.709-1.038c.35-.575.708-1.145 1.073-1.709l1.677 1.09c-.355.547-.702 1.1-1.041 1.657zm108.848 1.777a62.36 62.36 0 0 0-.989-1.695l1.712-1.034c.349.577.689 1.16 1.02 1.748l-1.743.981zM69.194 95.777l-1.771-.929c.313-.597.634-1.187.965-1.771l1.741.983c-.32.567-.632 1.139-.935 1.717zm112.586 1.852a63.805 63.805 0 0 0-.881-1.754l1.772-.926c.313.598.616 1.201.91 1.81l-1.801.87zM67.487 99.291l-1.826-.816c.275-.615.559-1.224.853-1.828l1.798.874a64.953 64.953 0 0 0-.825 1.77zm115.889 1.924a61.107 61.107 0 0 0-.77-1.805l1.827-.814c.274.616.54 1.237.795 1.864l-1.852.755zM66.002 102.91l-1.873-.702c.237-.632.483-1.259.738-1.881l1.851.758a61.083 61.083 0 0 0-.716 1.825zm118.744 1.988a61.528 61.528 0 0 0-.656-1.852l1.874-.698c.236.633.462 1.27.678 1.912l-1.896.638zm-120.002 1.721l-1.913-.583c.196-.647.403-1.288.619-1.925l1.894.643c-.21.617-.41 1.239-.6 1.865zm121.136 2.035a63.3 63.3 0 0 0-.537-1.883l1.914-.58c.196.645.38 1.293.554 1.946l-1.931.517zM63.72 110.4l-1.945-.463c.156-.656.321-1.309.497-1.958l1.931.522a59.936 59.936 0 0 0-.483 1.899zm123.054 2.067a58.072 58.072 0 0 0-.418-1.913l1.948-.457c.153.655.297 1.313.431 1.975l-1.961.395zm-123.838 1.77l-1.971-.34c.115-.666.24-1.327.374-1.985l1.96.399a61.665 61.665 0 0 0-.363 1.926zm124.493 2.093a64.953 64.953 0 0 0-.298-1.936l1.972-.335c.113.663.215 1.329.307 1.998l-1.981.273zm-125.037 1.786l-1.988-.216a65.77 65.77 0 0 1 .249-2.006l1.981.277a62.202 62.202 0 0 0-.242 1.945zm125.45 2.109a62.591 62.591 0 0 0-.177-1.952l1.99-.21c.07.668.131 1.339.181 2.012l-1.994.15zm-125.753 1.798l-1.998-.094c.032-.676.074-1.348.126-2.017l1.994.155a62.964 62.964 0 0 0-.122 1.956zm125.926 2.116a63.427 63.427 0 0 0-.057-1.958l1.998-.089c.03.671.05 1.344.058 2.02l-1.999.027zm-127.988 1.829a61.287 61.287 0 0 1 .002-2.019l2 .031a69.125 69.125 0 0 0-.002 1.961l-2 .027zm129.918 2.185l-1.998-.096c.032-.65.053-1.303.064-1.958l2 .034a67.567 67.567 0 0 1-.066 2.02zM60.21 130.006a64.013 64.013 0 0 1-.122-2.017l1.998-.091c.03.654.069 1.306.118 1.956l-1.994.152zm129.418 2.176l-1.988-.219c.071-.647.133-1.297.184-1.95l1.994.157a63.41 63.41 0 0 1-.19 2.012zm-128.986 1.843a63.178 63.178 0 0 1-.247-2.007l1.988-.213c.07.651.15 1.299.24 1.944l-1.981.276zm128.42 2.159l-1.971-.343c.112-.642.214-1.287.305-1.935l1.98.281a63.298 63.298 0 0 1-.314 1.997zm-127.74 1.824a68.863 68.863 0 0 1-.371-1.987l1.971-.336c.11.644.23 1.286.36 1.924l-1.96.399zm126.925 2.134l-1.945-.465c.151-.633.293-1.271.425-1.911l1.959.402c-.136.662-.282 1.32-.439 1.974zm-125.997 1.8a68.407 68.407 0 0 1-.494-1.959l1.946-.46c.15.637.31 1.271.48 1.9l-1.932.519zm124.936 2.1l-1.912-.585c.19-.624.371-1.251.543-1.882l1.93.525a63.547 63.547 0 0 1-.561 1.942zm-123.759 1.776a60.396 60.396 0 0 1-.62-1.933l1.914-.58c.191.628.391 1.252.6 1.871l-1.894.642zm122.457 2.05l-1.872-.703c.229-.611.45-1.226.661-1.846l1.892.647a68.093 68.093 0 0 1-.681 1.902zm-121.041 1.747a65.335 65.335 0 0 1-.739-1.888l1.875-.699c.228.614.467 1.224.715 1.829l-1.851.758zm119.503 1.985l-1.825-.819c.267-.593.524-1.191.772-1.793l1.85.761a63.249 63.249 0 0 1-.797 1.851zm-117.849 1.715a60.12 60.12 0 0 1-.856-1.837l1.826-.815c.267.598.543 1.191.828 1.779l-1.798.873zm116.084 1.909l-1.77-.931c.303-.576.597-1.157.883-1.744l1.798.877a67.258 67.258 0 0 1-.911 1.798zm-114.207 1.678a59.732 59.732 0 0 1-.967-1.78l1.771-.927c.304.58.616 1.154.938 1.723l-1.742.984zm112.219 1.832l-1.709-1.039c.338-.557.669-1.119.991-1.687l1.739.987a65.375 65.375 0 0 1-1.021 1.739zm-110.12 1.629a64.725 64.725 0 0 1-1.076-1.714l1.71-1.037c.339.559.687 1.113 1.043 1.661l-1.677 1.09zm107.917 1.752l-1.642-1.143c.373-.535.737-1.076 1.094-1.623l1.676 1.092a74.159 74.159 0 0 1-1.128 1.674zm-105.608 1.571a61.518 61.518 0 0 1-1.181-1.644l1.643-1.141c.373.537.754 1.068 1.143 1.593l-1.605 1.192zm103.197 1.669l-1.567-1.243c.405-.511.803-1.028 1.193-1.552l1.604 1.194c-.402.54-.812 1.074-1.23 1.601zm-100.69 1.502a66.116 66.116 0 0 1-1.278-1.567l1.568-1.24c.405.513.819 1.019 1.24 1.519l-1.53 1.288zm98.084 1.583l-1.487-1.337c.437-.486.866-.978 1.287-1.477l1.528 1.291a64.022 64.022 0 0 1-1.328 1.523zm-95.385 1.426a66.407 66.407 0 0 1-1.373-1.484l1.489-1.335c.436.487.88.966 1.331 1.438l-1.447 1.381zm92.593 1.494l-1.402-1.426c.466-.458.924-.923 1.375-1.395l1.446 1.382c-.465.487-.939.967-1.419 1.439zm-89.714 1.342a68.722 68.722 0 0 1-1.461-1.395l1.403-1.425c.465.458.938.909 1.417 1.353l-1.359 1.467zm86.745 1.4l-1.312-1.509c.494-.429.981-.865 1.461-1.308l1.356 1.469c-.495.457-.997.907-1.505 1.348zm-83.698 1.252a71.256 71.256 0 0 1-1.544-1.302l1.313-1.509c.492.428.991.849 1.497 1.262l-1.266 1.549zm80.564 1.304l-1.215-1.589a62.126 62.126 0 0 0 1.538-1.215l1.265 1.55a66.21 66.21 0 0 1-1.588 1.254zm-77.36 1.153a63.567 63.567 0 0 1-1.622-1.204l1.218-1.587c.517.397 1.041.787 1.571 1.168l-1.167 1.623zm74.072 1.204l-1.114-1.661a61.655 61.655 0 0 0 1.612-1.118l1.164 1.626a65.55 65.55 0 0 1-1.662 1.153zm-70.725 1.049a66.996 66.996 0 0 1-1.691-1.1l1.117-1.659c.541.364 1.088.719 1.64 1.067l-1.066 1.692zm67.296 1.1l-1.009-1.727a66.233 66.233 0 0 0 1.679-1.016l1.061 1.695c-.571.358-1.148.707-1.731 1.048zm-63.814.941a61.476 61.476 0 0 1-1.756-.993l1.011-1.725c.562.329 1.129.65 1.702.963l-.957 1.755zm60.256.991l-.899-1.786a65.189 65.189 0 0 0 1.739-.91l.954 1.758a63.51 63.51 0 0 1-1.794.938zm-56.658.828a60.658 60.658 0 0 1-1.814-.882l.903-1.785c.58.294 1.166.579 1.757.855l-.846 1.812zm52.984.879l-.786-1.839a65.603 65.603 0 0 0 1.794-.799l.843 1.814c-.612.283-1.229.558-1.851.824zm-49.282.712a64.994 64.994 0 0 1-1.864-.766l.79-1.838c.597.256 1.199.504 1.806.743l-.732 1.861zm45.506.762l-.668-1.884c.618-.22 1.231-.448 1.84-.686l.729 1.862c-.629.246-1.263.482-1.901.708zm-41.7.599a67.245 67.245 0 0 1-1.914-.651l.674-1.883c.613.219 1.231.429 1.854.63l-.614 1.904zm37.845.635l-.55-1.923c.629-.18 1.254-.369 1.874-.568l.611 1.905c-.642.205-1.287.401-1.936.586h.001zm-33.96.484a65.015 65.015 0 0 1-1.951-.53l.553-1.921c.626.18 1.256.351 1.891.512l-.493 1.939zm30.04.503l-.428-1.954a60.66 60.66 0 0 0 1.906-.449l.489 1.94c-.652.164-1.308.319-1.968.463h.001zm-26.094.371a68.094 68.094 0 0 1-1.981-.406l.433-1.953c.636.141 1.275.272 1.919.394l-.371 1.965zm22.12.369l-.306-1.977a63.78 63.78 0 0 0 1.932-.328l.366 1.965c-.661.123-1.325.237-1.992.34zm-18.128.257a60.608 60.608 0 0 1-2.002-.282l.31-1.976c.644.101 1.29.192 1.939.273l-.247 1.985zm14.116.235l-.181-1.993c.651-.059 1.3-.129 1.947-.208l.244 1.986c-.667.081-1.337.153-2.01.215zm-10.093.142a63.327 63.327 0 0 1-2.014-.158l.186-1.991c.648.061 1.299.112 1.954.153l-.126 1.996zm6.06.1l-.059-1.999c.655-.02 1.308-.049 1.958-.088l.119 1.996c-.67.041-1.343.071-2.018.091zm-2.02.028a67.773 67.773 0 0 1-2.021-.033l.064-1.999c.65.02 1.304.031 1.96.032l-.003 2z"/><path fill="#48515A" d="M125.02 52c-40.316 0-73 32.683-73 73 0 40.316 32.683 73 72.999 73 40.317 0 73.001-32.683 73.001-72.999V125c-.046-40.298-32.702-72.954-73-73zm0 148c-41.42.25-75.201-33.127-75.451-74.547-.25-41.421 33.126-75.202 74.546-75.452.302-.002.603-.002.905-.001 41.422 0 75 33.579 75 75s-33.578 75-75 75z"/><path fill="#48515A" d="M124.019 121a4 4 0 1 0 0 8 4 4 0 0 0 0-8zm0 10a6 6 0 1 1 6.001-6 6.008 6.008 0 0 1-6.001 6z"/><path fill="#DFE0E0" d="M125.02 203c-41.326-.003-75.477-32.24-77.861-73.497a79.009 79.009 0 0 0-.139 4.502v.001c0 43.078 34.922 77.999 78 77.999s78-34.921 78-77.999v-.001c0-1.512-.054-3.011-.138-4.502-2.384 41.257-36.535 73.494-77.862 73.497"/><path fill="#48515A" d="M203.88 129.56l-1.997-.114a78.04 78.04 0 0 0 .137-4.446h2c0 1.411-.046 2.903-.14 4.56m-157.72 0a80.174 80.174 0 0 1-.14-4.56h2c0 1.373.045 2.827.137 4.446l-1.997.114"/><path fill="#48515A" d="M125.02 204c-41.854-.01-76.439-32.657-78.86-74.44l1.997-.114c2.451 42.45 38.85 74.877 81.3 72.426 39.028-2.253 70.173-33.397 72.426-72.426l1.997.114c-2.421 41.783-37.006 74.43-78.86 74.44M206.042 70.988h2v-4h-2zM206.042 80.988h2v-4h-2zM210.042 74.988h4v-2h-4zM200.042 74.988h4v-2h-4zM212.046 171.048h2v-4h-2zM212.046 181.048h2v-4h-2zM216.046 175.048h4v-2h-4zM206.046 175.048h4v-2h-4zM42.945 174.05h2v-4h-2zM42.945 184.05h2v-4h-2zM46.945 178.05h4v-2h-4zM36.945 178.05h4v-2h-4z"/><path fill="#F58E70" d="M169 49a2 2 0 1 1 .001 3.999A2 2 0 0 1 169 49m37.02 52a1 1 0 1 1 0 2 1 1 0 0 1 0-2m-171-22a2 2 0 1 1 .001 3.999A2 2 0 0 1 35.02 79M179 201a2 2 0 1 1 .001 3.999A2 2 0 0 1 179 201M31.02 143a2 2 0 1 1 .001 3.999A2 2 0 0 1 31.02 143m27 48a1 1 0 1 1 0 2 1 1 0 0 1 0-2m18 18a1 1 0 1 1 0 2 1 1 0 0 1 0-2m48-86a2 2 0 1 1 0 4 2 2 0 0 1 0-4"/><path fill="#48515A" d="M123.019 137.011h2v-6.984h-2zM150.002 113c-6.075 0-11 4.924-11 11 0 6.075 4.925 10.999 11 10.999s11-4.924 11-10.999c-.007-6.073-4.928-10.994-11-11zm0 23.999c-7.18 0-13-5.82-13-12.999 0-7.18 5.82-13 13-13s13 5.82 13 13c-.008 7.176-5.824 12.992-13 12.999z"/><path fill="#48515A" d="M148.999 125h2v-10h-2zM99.972 113c-6.076 0-11 4.924-11 11 0 6.075 4.924 10.999 11 10.999 6.075 0 11-4.924 11-10.999-.007-6.073-4.928-10.994-11-11zm0 23.999c-7.18 0-13-5.82-13-12.999 0-7.18 5.82-13 13-13 7.179 0 13 5.82 13 13-.008 7.176-5.824 12.992-13 12.999z"/><path fill="#48515A" d="M98.969 125h2v-10h-2zM117 155.001h14v-2h-14zM64.192 76.92l-4.949-4.949 12.728-12.728 4.949 4.949-1.414 1.414-3.535-3.535-9.9 9.9 3.535 3.535-1.414 1.414"/><path fill="#48515A" d="M56.414 69.142l2.829 2.829 12.728-12.728-2.829-2.829-12.728 12.728zm2.829 5.657l-5.657-5.657 15.556-15.556 5.657 5.657-15.556 15.556zM185.808 76.92l-1.414-1.414 3.535-3.535-9.9-9.9-3.535 3.535-1.414-1.414 4.949-4.949 12.728 12.728-4.949 4.949"/><path fill="#48515A" d="M178.029 59.243l12.728 12.728 2.829-2.829-12.728-12.728-2.829 2.829zm12.728 15.556l-15.556-15.556 5.657-5.657 15.556 15.556-5.657 5.657z"/></g></svg>