<?xml version="1.0" encoding="utf-8"?><svg xmlns="http://www.w3.org/2000/svg" width="250" height="250" viewBox="0 0 250 250"><g fill="none" fill-rule="evenodd"><path fill="#DBDBD5" d="M124.704 61.785a62.668 62.668 0 0 0-30.6 7.979c-4.254 2.663-4.373 2.716-4.609 2.821-6.999 3.097-13.227 7.347-18.513 12.633l-7.909 7.908c-.475.475-.558 1.402-.164 1.837.301.333.653.409.895.415.164.01.447-.022.732-.206l4.726-4.684 4.233 4.252-4.491 4.491a7.239 7.239 0 0 1-.503.458l-6.088 6.033c-.521.521-.621 1.355-.213 1.849a1.295 1.295 0 0 0 1.922.101L75.275 96.52l4.243 4.242-13.823 13.823c-.466.466-.569 1.42-.2 1.857.268.318.668.511 1.097.529.214.012.619-.021.926-.328l2.498-2.498.047-.048 11.395-11.394 4.242 4.243-11.417 11.417c-.52.541-.629 1.367-.244 1.894.304.418.691.531.962.552a1.28 1.28 0 0 0 1.018-.375l18.382-18.382 4.242 4.243-5.086 5.086a1.263 1.263 0 0 0-.371.897c0 .197.048.574.372.898a1.267 1.267 0 0 0 1.8-.003l4.03-4.068c3.718-3.6 4.456-6.226 4.456-9.309l.009-.235.671-8.516-.002-.058c-.325-9.487 4.808-11.678 7.205-12.182.319-.091 8.793-1.968 10.807-2.421a7.277 7.277 0 0 1-.107-1.885 7.315 7.315 0 0 1 4.066-5.984 7.395 7.395 0 0 1-.241-2.211 7.546 7.546 0 0 1 1.99-4.785l-3.538.266m46.259 61.332c.023-.011.046-.025.07-.037a20.327 20.327 0 0 0-.145-.891c.025.391.05.71.075.928"/><path fill="#DBDBD5" d="M171.002 123.384c.094.408.1.21.031-.304-.024.012-.047.026-.07.037.013.119.026.211.039.267m5.63-33.924c-3.096-6.997-7.346-13.226-12.632-18.512l-7.908-7.908c-.475-.475-1.403-.558-1.837-.165-.333.301-.41.653-.416.895a1.3 1.3 0 0 0 .207.733l4.683 4.725-4.252 4.233-4.49-4.491a7.002 7.002 0 0 1-.458-.502l-6.033-6.088c-.521-.521-1.355-.621-1.849-.213a1.295 1.295 0 0 0-.113 1.91l11.163 11.165-2.212 2.212.091.091-.091-.091-2.03 2.03-11.152-11.153a.37.37 0 0 1-.028-.028l-2.642-2.642c-.466-.465-1.421-.568-1.858-.2-.318.268-.51.668-.528 1.097-.01.214.021.619.328.926l2.516 2.517.03.029 11.394 11.395-2.213 2.212.091.091-.091-.091-2.03 2.03-11.408-11.408c-.54-.529-1.373-.641-1.904-.254-.417.304-.53.691-.551.962-.018.223.008.651.375 1.019l18.381 18.381-2.212 2.213.091.091-.091-.091-2.03 2.03-5.086-5.086a1.264 1.264 0 0 0-.898-.372c-.196 0-.574.048-.898.372a1.267 1.267 0 0 0 .004 1.8l4.067 4.03c3.601 3.718 6.227 4.456 9.31 4.456l.235.01 8.516.67.058-.002c9.488-.325 11.678 4.809 12.182 7.206.082.286.284 7.52.475 10.495.064.346.112.653.145.891a7.277 7.277 0 0 1 3.685-.687 7.317 7.317 0 0 1 5.984 4.066 7.273 7.273 0 0 1 2.212-.24 7.544 7.544 0 0 1 4.501 1.744c-.19-10.618-2.927-24.917-7.962-33.893-2.663-4.253-2.716-4.373-2.821-4.61m-50.064 83.34l.143-.032c-.011-.059-.018-.118-.03-.177-.37.203-.484.295-.113.209m54.18-23.304l6.09-6.034c.521-.521.621-1.355.213-1.849a1.278 1.278 0 0 0-.944-.479 1.271 1.271 0 0 0-.978.378l-11.153 11.152-2.03-2.03-.091.091.091-.091-2.212-2.212 13.822-13.823c.466-.466.569-1.421.2-1.858a1.516 1.516 0 0 0-1.097-.528c-.213-.01-.619.021-.926.328l-13.94 13.94-4.242-4.242 11.394-11.395c.54-.54.657-1.382.267-1.917a1.286 1.286 0 0 0-.962-.552 1.287 1.287 0 0 0-1.018.375l-18.382 18.382-2.03-2.03-.091.091.091-.091-2.212-2.213 5.086-5.086a1.27 1.27 0 0 0-.001-1.796c-.324-.324-.7-.348-.9-.371-.197 0-.576.049-.9.375l-4.03 4.068c-3.718 3.6-4.456 6.226-4.456 9.309l-.009.235-.671 8.516.002.059c.325 9.486-4.808 11.677-7.205 12.181-.333.096-9.37 2.064-10.813 2.389.119.625.164 1.268.113 1.917a7.316 7.316 0 0 1-4.066 5.984c.19.712.273 1.457.241 2.211a7.542 7.542 0 0 1-1.753 4.51c1.162.017 3.874.062 4.073.06 10.38-.126 20.676-2.896 29.828-8.03 4.254-2.663 4.373-2.716 4.61-2.821 6.998-3.097 13.227-7.347 18.512-12.632l7.909-7.909c.475-.475.558-1.402.164-1.837a1.223 1.223 0 0 0-.895-.416 1.316 1.316 0 0 0-.732.208l-4.726 4.683-4.233-4.253 4.491-4.49c.16-.16.328-.313.501-.457m-60.281 23.703l-18.382-18.383 4.243-4.242.002.002 5.084 5.084a1.27 1.27 0 1 0 1.792-1.8l-4.067-4.03c-3.601-3.718-6.226-4.456-9.309-4.456l-.236-.009-8.516-.671-.058.002c-9.487.313-11.678-4.809-12.182-7.206-.085-.298-1.627-8.153-2.178-10.853a7.204 7.204 0 0 1-2.127.154 7.32 7.32 0 0 1-5.984-4.066 7.401 7.401 0 0 1-2.212.241 7.543 7.543 0 0 1-4.518-1.761c0 1.172.003 3.999.006 4.261a62.672 62.672 0 0 0 7.973 29.648c2.664 4.253 2.716 4.373 2.821 4.61 3.096 6.998 7.346 13.226 12.632 18.512l7.908 7.908c.475.475 1.403.558 1.838.165.332-.301.409-.653.415-.896a1.301 1.301 0 0 0-.207-.732l-4.683-4.725 4.252-4.233 4.491 4.491c.16.16.313.328.457.502l6.033 6.088c.522.521 1.355.622 1.849.213a1.29 1.29 0 0 0 .479-.944 1.277 1.277 0 0 0-.366-.966l-11.163-11.164 4.242-4.243 11.153 11.153a.727.727 0 0 1 .027.028l2.642 2.642c.466.465 1.421.568 1.858.2a1.52 1.52 0 0 0 .529-1.097c.009-.215-.022-.619-.329-.926l-13.94-13.94 4.243-4.243 11.394 11.394c.54.54 1.382.657 1.918.268.417-.304.53-.691.551-.962a1.279 1.279 0 0 0-.375-1.018"/><path fill="#434A4F" d="M116.399 177.362l.009-.016c-.051-.046-.108-.082-.156-.131l.147.147M116.252 177.215l-11.394-11.394 11.394 11.394M72.185 116.401l-.014.014h.002l.012-.014"/><path fill="#434A4F" d="M72.185 116.401l-.012.014h-.002l.014-.014M77.396 98.824l-11.152 11.152 11.152-11.152M177.067 133.148l.16-.16-.018-.009c-.05.054-.09.116-.142.169m-24.247 11.954l1.213-1.213-1.213 1.213"/><path fill="#434A4F" d="M177.067 133.148c.052-.053.092-.115.142-.169l.018.009-.16.16m13.366-7.295a1 1 0 0 1-1-1 64.667 64.667 0 0 0-8.271-31.642c-2.6-4.15-2.665-4.298-2.701-4.377-3.196-7.225-7.586-13.657-13.046-19.118l-7.909-7.908c-1.227-1.228-3.375-1.337-4.594-.232a3.223 3.223 0 0 0-1.072 2.327 3.264 3.264 0 0 0 .671 2.074l4.798 4.841-1.417 1.411-4.491-4.49a5.337 5.337 0 0 1-.384-.428l-6.101-6.156c-1.258-1.259-3.255-1.413-4.543-.348a3.273 3.273 0 0 0-1.203 2.391 3.303 3.303 0 0 0 .961 2.488l11.152 11.152-1.414 1.414-13.822-13.822c-1.202-1.202-3.334-1.351-4.561-.315a3.522 3.522 0 0 0-1.238 2.541c-.04.935.285 1.797.913 2.425l2.519 2.519a.65.65 0 0 0 .027.026L145.1 83.021l-1.414 1.414-11.415-11.415c-1.239-1.22-3.163-1.414-4.488-.449a3.274 3.274 0 0 0-1.368 2.423 3.29 3.29 0 0 0 .955 2.588l18.381 18.381-1.414 1.414-5.086-5.085c-1.235-1.235-3.388-1.235-4.624 0-.62.62-.96 1.443-.958 2.319.002.877.346 1.7.969 2.316l4.067 4.03c3.512 3.628 6.513 5.036 10.716 5.036l8.748.685.13-.009c7.832-.274 9.75 3.477 10.18 5.735v-.002c.004 0 .327 1.108.574 2.179a.999.999 0 1 1-1.948.45c-.243-1.049-.568-2.159-.568-2.159-.709-3.698-4.834-4.317-8.169-4.204l-.278.007-8.747-.685h-.013c-4.666 0-8.18-1.632-12.048-5.627l-4.052-4.015a5.236 5.236 0 0 1-1.561-3.732 5.232 5.232 0 0 1 1.544-3.738 5.23 5.23 0 0 1 3.115-1.509l-10.372-10.373a5.287 5.287 0 0 1-1.535-4.159 5.315 5.315 0 0 1 2.185-3.883 5.203 5.203 0 0 1 2.691-.975 5.283 5.283 0 0 1-1.047-3.408 5.526 5.526 0 0 1 1.947-3.986c1.921-1.619 5.045-1.511 7.002.186a5.321 5.321 0 0 1 1.901-3.506c2.074-1.713 5.253-1.504 7.233.479l3.547 3.578a5.206 5.206 0 0 1 1.689-3.229c2.005-1.817 5.371-1.678 7.351.301l7.909 7.908c5.635 5.635 10.164 12.271 13.462 19.722a507.2 507.2 0 0 0 2.59 4.166 66.704 66.704 0 0 1 8.552 32.663 1 1 0 0 1-1 1m-83.57 65.589a5.593 5.593 0 0 1-3.946-1.637l-3.546-3.578a5.203 5.203 0 0 1-1.689 3.228c-2.005 1.816-5.371 1.68-7.351-.3l-7.909-7.908c-5.635-5.636-10.164-12.272-13.462-19.723-.109-.192-1.65-2.665-2.59-4.166a66.7 66.7 0 0 1-8.552-32.662 1 1 0 0 1 2 0c0 11.08 2.86 22.022 8.271 31.641 2.601 4.153 2.666 4.301 2.701 4.38 3.196 7.222 7.586 13.655 13.046 19.116l7.909 7.908c1.228 1.229 3.375 1.336 4.594.232a3.222 3.222 0 0 0 1.073-2.328 3.268 3.268 0 0 0-.673-2.074l-4.797-4.841 1.418-1.411 4.49 4.491c.136.136.264.279.384.428l6.101 6.156c1.257 1.258 3.253 1.412 4.543.348a3.27 3.27 0 0 0 1.203-2.391 3.305 3.305 0 0 0-.956-2.483l-11.157-11.157 1.414-1.414 13.822 13.822c1.203 1.203 3.334 1.35 4.562.315a3.523 3.523 0 0 0 1.237-2.541c.039-.936-.284-1.797-.912-2.425l-13.94-13.94 1.414-1.414 11.394 11.394c1.238 1.238 3.177 1.44 4.509.47a3.274 3.274 0 0 0 1.368-2.423 3.292 3.292 0 0 0-.954-2.588L103.5 153.585l1.414-1.414 5.086 5.086a3.275 3.275 0 0 0 4.625 0c.619-.62.959-1.444.957-2.32a3.245 3.245 0 0 0-.969-2.315l-4.067-4.03c-3.512-3.628-6.512-5.036-10.716-5.036l-8.748-.685-.13.008c-7.83.271-9.75-3.477-10.18-5.734v.001c-.004 0-.326-1.107-.574-2.178a1 1 0 0 1 1.948-.451c.243 1.046.566 2.151.568 2.16.709 3.698 4.832 4.317 8.169 4.204l.278-.007 8.747.685h.013c4.667 0 8.181 1.632 12.048 5.627l4.052 4.015a5.234 5.234 0 0 1 1.561 3.731 5.24 5.24 0 0 1-1.543 3.739 5.247 5.247 0 0 1-3.119 1.506l10.376 10.376a5.29 5.29 0 0 1 1.534 4.158 5.317 5.317 0 0 1-2.185 3.884 5.203 5.203 0 0 1-2.69.975 5.287 5.287 0 0 1 1.046 3.408 5.525 5.525 0 0 1-1.946 3.985c-1.921 1.62-5.047 1.513-7.002-.185a5.329 5.329 0 0 1-1.902 3.506 5.139 5.139 0 0 1-3.288 1.158m-31.759-66.447a5.319 5.319 0 0 1-4.299-2.201 5.2 5.2 0 0 1-.975-2.69 5.293 5.293 0 0 1-3.408 1.046 5.53 5.53 0 0 1-3.986-1.947c-1.62-1.921-1.511-5.046.186-7.002a5.324 5.324 0 0 1-3.506-1.901c-1.714-2.074-1.503-5.252.479-7.234l3.578-3.546a5.206 5.206 0 0 1-3.228-1.689c-1.817-2.005-1.68-5.371.3-7.352l7.908-7.908c5.635-5.635 12.271-10.164 19.723-13.462.19-.108 2.664-1.65 4.165-2.59a66.704 66.704 0 0 1 32.663-8.552 1 1 0 0 1 0 2c-11.08 0-22.022 2.86-31.641 8.271-4.151 2.6-4.299 2.665-4.378 2.7-7.225 3.198-13.658 7.587-19.118 13.047l-7.908 7.909c-1.228 1.228-1.337 3.375-.232 4.594a3.225 3.225 0 0 0 2.328 1.072 3.168 3.168 0 0 0 2.072-.67l4.842-4.799 1.412 1.417-4.491 4.491c-.137.137-.28.266-.431.386l-6.153 6.099c-1.258 1.257-1.412 3.254-.348 4.543a3.27 3.27 0 0 0 2.392 1.203 3.331 3.331 0 0 0 2.487-.961l11.152-11.152 1.414 1.414-13.822 13.822c-1.203 1.203-1.35 3.334-.315 4.561a3.52 3.52 0 0 0 2.541 1.238c.921.031 1.797-.284 2.425-.912l2.502-2.502.044-.045L82.872 104.3l1.414 1.414-11.429 11.43c-1.207 1.239-1.396 3.153-.435 4.473a3.296 3.296 0 0 0 5.011.413l18.382-18.382 1.414 1.415-5.086 5.086a3.247 3.247 0 0 0-.957 2.312c0 .873.34 1.694.958 2.312a3.245 3.245 0 0 0 2.312.958h.007a3.248 3.248 0 0 0 2.315-.968l4.03-4.068c3.628-3.512 5.036-6.513 5.036-10.716l.685-8.748-.008-.132c-.268-7.854 3.478-9.748 5.734-10.178h-.002c-.015 0 1.101-.325 2.179-.574a.998.998 0 1 1 .45 1.948c-1.049.243-2.159.568-2.159.568-3.697.709-4.317 4.831-4.203 8.168l.006.279-.685 8.747c.003 4.672-1.628 8.19-5.627 12.061l-4.015 4.052a5.234 5.234 0 0 1-3.731 1.561h-.012a5.235 5.235 0 0 1-3.727-1.544 5.23 5.23 0 0 1-1.509-3.115l-10.373 10.372a5.286 5.286 0 0 1-3.743 1.551"/><path fill="#434A4F" d="M124.579 191.637a1 1 0 0 1 0-2c10.995 0 21.926-2.879 31.609-8.326 4.151-2.601 4.299-2.665 4.378-2.701 7.224-3.196 13.656-7.586 19.118-13.047l7.908-7.908c1.228-1.228 1.337-3.375.232-4.594a3.22 3.22 0 0 0-2.327-1.073 3.29 3.29 0 0 0-2.075.673l-4.84 4.797-1.412-1.418 4.491-4.49c.136-.136.279-.264.428-.384l6.156-6.101c1.258-1.257 1.412-3.254.348-4.543a3.27 3.27 0 0 0-2.391-1.203 3.28 3.28 0 0 0-2.488.961l-11.152 11.152-1.414-1.414 13.822-13.822c1.203-1.203 1.35-3.334.315-4.562a3.523 3.523 0 0 0-2.541-1.237c-.94-.041-1.797.284-2.425.912l-13.94 13.94-1.414-1.414 11.394-11.394c1.239-1.238 1.44-3.177.47-4.509a3.298 3.298 0 0 0-5.011-.414l-13.273 13.274a.488.488 0 0 1-.023.022l-5.085 5.086-1.415-1.414 5.103-5.103a3.275 3.275 0 0 0-.017-4.608 3.251 3.251 0 0 0-2.312-.957h-.007c-.877.002-1.7.346-2.316.969l-4.03 4.067c-3.628 3.512-5.036 6.513-5.036 10.716l-.685 8.748.008.13c.27 7.855-3.477 9.749-5.734 10.179h.002c.015 0-1.101.326-2.179.575a.999.999 0 1 1-.451-1.948c1.046-.243 2.152-.566 2.16-.568 3.698-.71 4.318-4.832 4.204-8.169l-.007-.278.685-8.747c-.003-4.672 1.628-8.189 5.627-12.061l4.015-4.052a5.232 5.232 0 0 1 3.732-1.561h.012c1.408 0 2.73.548 3.726 1.543a5.241 5.241 0 0 1 1.506 3.119l10.376-10.376a5.297 5.297 0 0 1 4.159-1.534 5.317 5.317 0 0 1 3.883 2.185 5.2 5.2 0 0 1 .975 2.69 5.273 5.273 0 0 1 3.408-1.046 5.525 5.525 0 0 1 3.985 1.946c1.621 1.922 1.512 5.047-.185 7.002a5.329 5.329 0 0 1 3.506 1.902c1.714 2.075 1.503 5.252-.479 7.233l-3.578 3.547a5.204 5.204 0 0 1 3.229 1.689c1.816 2.005 1.679 5.372-.301 7.351l-7.908 7.909c-5.637 5.635-12.272 10.165-19.723 13.461-.19.109-2.664 1.651-4.166 2.591-10.022 5.639-21.292 8.607-32.63 8.607m-47.76-97.673c-.26 0-.52-.099-.711-.289-.039-.051-.089-.1-.119-.151a.63.63 0 0 1-.091-.179.706.706 0 0 1-.06-.18c-.009-.07-.019-.13-.019-.201 0-.259.11-.52.289-.699.381-.38 1.051-.38 1.421 0 .18.179.29.44.29.699 0 .071-.01.131-.02.201-.01.06-.03.12-.06.18a.605.605 0 0 1-.091.179l-.119.151c-.191.19-.45.289-.71.289m6 6c-.26 0-.52-.099-.711-.289a1.04 1.04 0 0 1-.289-.711c0-.259.11-.52.289-.699.371-.38 1.04-.38 1.421 0 .18.179.29.44.29.699 0 .27-.11.52-.29.711-.191.19-.45.289-.71.289m6 6c-.26 0-.52-.099-.711-.289a1.04 1.04 0 0 1-.289-.711.84.84 0 0 1 .079-.38c.051-.12.121-.23.21-.319.381-.38 1.051-.38 1.421 0a.99.99 0 0 1 .21.319 1 1 0 0 1 .08.38c0 .27-.11.52-.29.711-.191.19-.45.289-.71.289m16 56c-.131 0-.26-.02-.381-.069a1.311 1.311 0 0 1-.33-.22c-.039-.05-.089-.1-.119-.151a.605.605 0 0 1-.091-.179.706.706 0 0 1-.06-.18c-.009-.07-.019-.13-.019-.201 0-.259.11-.52.289-.699a1.003 1.003 0 0 1 1.711.699c0 .071-.01.131-.02.201-.01.06-.03.12-.06.18a.605.605 0 0 1-.091.179l-.119.151c-.1.09-.21.159-.33.22-.12.049-.25.069-.38.069m-6 6c-.26 0-.52-.099-.711-.289a1.026 1.026 0 0 1-.289-.711c0-.259.11-.52.289-.699.371-.38 1.051-.38 1.421 0 .18.179.29.44.29.699 0 .131-.03.261-.08.39-.051.121-.12.23-.21.321-.05.05-.1.09-.16.119a.953.953 0 0 1-.17.101c-.06.02-.12.04-.18.049-.07.02-.13.02-.2.02m-4 6c-.26 0-.52-.099-.711-.289a1.04 1.04 0 0 1-.289-.711c0-.259.11-.52.289-.699.381-.38 1.04-.38 1.421 0 .18.179.29.44.29.699 0 .27-.11.52-.29.711-.191.19-.45.289-.71.289m-6 6c-.26 0-.52-.099-.711-.289a1.058 1.058 0 0 1-.289-.711c0-.259.11-.52.289-.699.101-.1.201-.17.33-.221.371-.149.81-.06 1.091.221.18.179.29.44.29.699 0 .261-.11.52-.29.711-.191.19-.45.289-.71.289m-18-92c-.26 0-.52-.099-.711-.289l-.119-.151a.722.722 0 0 1-.091-.17.908.908 0 0 1-.06-.189c-.009-.07-.019-.13-.019-.201 0-.059.01-.129.019-.19a.663.663 0 0 1 .06-.189.557.557 0 0 1 .091-.17.945.945 0 0 1 .449-.371 1.003 1.003 0 0 1 1.091.221c.04.04.079.089.119.15.04.049.071.109.091.17.03.06.05.12.06.189.01.061.02.131.02.19 0 .071-.01.131-.02.201-.01.06-.03.12-.06.189a.687.687 0 0 1-.091.17l-.119.151c-.191.19-.45.289-.71.289m74 2c-.26 0-.52-.099-.711-.289a1.02 1.02 0 0 1-.289-.711c0-.259.11-.52.289-.699.371-.38 1.051-.38 1.421 0 .179.179.29.44.29.699 0 .27-.111.52-.29.711-.191.19-.45.289-.71.289m6-6c-.26 0-.52-.099-.711-.289a1.04 1.04 0 0 1-.289-.711c0-.259.11-.52.289-.699.371-.38 1.04-.38 1.421 0 .179.179.29.44.29.699 0 .261-.111.52-.29.711-.191.19-.45.289-.71.289m6-6a.993.993 0 0 1-.711-.289c-.089-.09-.159-.2-.21-.321a.902.902 0 0 1-.079-.39c0-.259.11-.52.289-.699.371-.38 1.051-.38 1.421 0 .179.179.29.44.29.699 0 .131-.03.261-.08.39a.998.998 0 0 1-.21.321c-.191.19-.45.289-.71.289m6-4a.993.993 0 0 1-.711-.289 1.04 1.04 0 0 1-.289-.711c0-.129.019-.259.079-.379a1.19 1.19 0 0 1 .21-.331c.281-.27.721-.359 1.091-.21.12.051.23.121.33.21.179.19.29.451.29.71 0 .071-.01.131-.02.201-.01.06-.03.12-.06.189a.687.687 0 0 1-.091.17l-.119.151c-.1.09-.21.17-.33.22-.12.049-.25.069-.38.069"/><path fill="#434A4F" d="M158.819 145.964a.993.993 0 0 1-.711-.289 1.04 1.04 0 0 1-.289-.711c0-.259.11-.52.289-.699a1.004 1.004 0 0 1 1.421 0c.04.04.079.089.119.15.04.049.071.109.091.169a.62.62 0 0 1 .06.19c.01.06.02.131.02.19 0 .071-.01.131-.02.201-.01.06-.03.12-.06.189a.687.687 0 0 1-.091.17l-.119.151c-.1.09-.21.17-.33.22-.12.049-.25.069-.38.069m6 6c-.26 0-.52-.099-.711-.289a.972.972 0 0 1-.21-.33 1.014 1.014 0 0 1-.079-.381 1.018 1.018 0 0 1 .289-.699 1.003 1.003 0 0 1 1.421 0 .99.99 0 0 1 .21.319 1 1 0 0 1 .08.38c0 .131-.03.261-.08.381a.957.957 0 0 1-.21.33c-.1.09-.21.17-.33.22-.12.049-.25.069-.38.069m6 6c-.07 0-.131 0-.2-.02-.06-.009-.12-.029-.181-.049a1.618 1.618 0 0 1-.179-.101.748.748 0 0 1-.151-.119l-.119-.151a.687.687 0 0 1-.091-.17.767.767 0 0 1-.06-.189c-.009-.07-.019-.13-.019-.201 0-.259.11-.52.289-.699.051-.051.1-.09.151-.13l.179-.091.181-.06a1.024 1.024 0 0 1 .91.281c.179.179.29.44.29.699 0 .071-.01.131-.02.201a.69.69 0 0 1-.06.189.687.687 0 0 1-.091.17l-.119.151c-.1.09-.21.17-.33.22-.12.049-.25.069-.38.069m6 6c-.131 0-.26-.02-.381-.069-.129-.05-.23-.13-.33-.22-.039-.05-.089-.1-.119-.151a.605.605 0 0 1-.091-.179.706.706 0 0 1-.06-.18c-.009-.07-.019-.13-.019-.201a1.018 1.018 0 0 1 .289-.699c.091-.1.201-.17.33-.221.181-.08.381-.1.571-.06a.66.66 0 0 1 .19.06c.06.02.12.06.17.091a1.01 1.01 0 0 1 .45.829c0 .071-.01.131-.02.201-.01.06-.03.12-.06.18a.605.605 0 0 1-.091.179l-.119.151c-.05.05-.1.09-.16.119a.953.953 0 0 1-.17.101c-.06.02-.12.04-.19.049-.06.02-.131.02-.19.02m-8-44a.974.974 0 0 1-.711-.289c-.039-.05-.089-.1-.119-.151a.687.687 0 0 1-.091-.17.767.767 0 0 1-.06-.189c-.009-.07-.019-.13-.019-.201 0-.259.11-.52.289-.699.091-.1.201-.17.33-.221a1.003 1.003 0 0 1 1.091.221c.04.04.079.089.119.15.04.049.071.109.091.169a.62.62 0 0 1 .06.19c.01.06.02.131.02.19 0 .071-.01.131-.02.201-.01.06-.03.12-.06.189a.687.687 0 0 1-.091.17l-.119.151c-.1.09-.21.17-.33.22-.12.049-.25.069-.38.069m21 10a.974.974 0 0 1-.921-.61.767.767 0 0 1-.06-.189c-.009-.07-.019-.13-.019-.201 0-.059.01-.13.019-.19a.68.68 0 0 1 .06-.19c.02-.06.051-.12.091-.169.03-.061.08-.11.119-.15.091-.1.201-.17.33-.221.361-.149.811-.06 1.091.221.04.04.079.089.119.15.04.049.071.109.091.169a.62.62 0 0 1 .06.19c.01.06.02.131.02.19 0 .071-.01.131-.02.201a.69.69 0 0 1-.06.189.687.687 0 0 1-.091.17c-.04.051-.079.111-.119.151-.191.19-.45.289-.71.289m-59.04 40.031a1.02 1.02 0 0 1-.381-.08.874.874 0 0 1-.319-.221.62.62 0 0 1-.13-.15c-.031-.049-.071-.109-.091-.169a5.557 5.557 0 0 1-.059-.19c-.01-.06-.02-.13-.02-.19a1 1 0 0 1 .3-.71c.089-.091.2-.16.319-.221.371-.149.81-.06 1.091.221.19.19.29.44.29.71 0 .06 0 .13-.02.19-.01.069-.03.129-.051.19a.856.856 0 0 1-.1.169.42.42 0 0 1-.119.15.996.996 0 0 1-.71.301m-10 21.009c-.27 0-.52-.109-.71-.29a1 1 0 0 1-.29-.71c0-.129.02-.259.07-.379.06-.121.13-.23.22-.331.05-.04.099-.08.15-.119.06-.04.11-.071.179-.091a.712.712 0 0 1 .181-.06c.33-.069.67.04.91.27.09.101.159.21.21.331.05.12.08.25.08.379 0 .261-.111.52-.29.71-.19.181-.45.29-.71.29m-40.031-59.04c-.129 0-.259-.02-.379-.069-.121-.05-.23-.13-.32-.22-.051-.04-.09-.1-.13-.151a1.896 1.896 0 0 1-.09-.17l-.06-.189c-.01-.07-.021-.13-.021-.201 0-.259.11-.52.301-.699.37-.37 1.039-.38 1.41 0 .189.179.289.44.289.699 0 .071 0 .131-.019.201-.01.06-.03.129-.05.189-.031.061-.06.121-.1.17a.555.555 0 0 1-.12.151c-.09.09-.2.17-.32.22-.13.049-.261.069-.391.069m-22.009-10c-.26 0-.52-.11-.71-.289-.091-.1-.16-.211-.21-.33a.996.996 0 0 1-.08-.381c0-.259.11-.52.29-.71.05-.04.099-.089.15-.119.06-.04.12-.071.179-.091a.666.666 0 0 1 .191-.06c.19-.04.389-.02.57.06.129.051.23.121.33.21.179.19.29.451.29.71a.84.84 0 0 1-.08.381c-.051.119-.12.23-.21.33-.1.09-.201.159-.33.21a.994.994 0 0 1-.38.079m60.04-40.02c-.14 0-.26-.029-.39-.079a1.05 1.05 0 0 1-.32-.22 1.01 1.01 0 0 1-.22-.32 1.04 1.04 0 0 1-.07-.39c0-.26.099-.52.29-.701.09-.099.2-.17.32-.219.37-.15.81-.06 1.09.219.05.04.09.091.129.151.031.05.071.11.091.17.03.06.04.13.06.19.01.06.02.129.02.19 0 .14-.03.259-.08.39a.895.895 0 0 1-.22.32.976.976 0 0 1-.7.299m9-22.019c-.26 0-.52-.1-.71-.29a1.036 1.036 0 0 1-.29-.71c0-.131.03-.26.079-.381.051-.119.121-.23.211-.33.099-.089.21-.159.329-.21.371-.15.81-.06 1.091.21.09.1.159.211.21.33.06.121.08.25.08.381 0 .26-.111.519-.29.71-.19.19-.45.29-.71.29M45.28 105.989a.999.999 0 0 1-.97-1.243c8.919-35.498 40.675-61.286 77.227-62.715a.999.999 0 1 1 .078 1.998c-35.67 1.394-66.662 26.562-75.366 61.204a1 1 0 0 1-.969.756zm3.722 1.617a1 1 0 0 1-.973-1.235c8.198-33.851 38.208-58.653 72.978-60.313l.811-.001a1 1 0 1 1 0 2h-.763c-33.842 1.616-63.092 25.79-71.082 58.785a1 1 0 0 1-.971.764zm-.183 4.358c-.131 0-.26-.02-.381-.069a1.519 1.519 0 0 1-.33-.22 1.04 1.04 0 0 1-.289-.711 1.018 1.018 0 0 1 .289-.699 1.003 1.003 0 0 1 1.421 0 .99.99 0 0 1 .21.319 1 1 0 0 1 .08.38c0 .27-.111.52-.29.711-.1.09-.21.159-.33.22-.12.049-.25.069-.38.069m-4-2c-.26 0-.52-.099-.711-.289a1.04 1.04 0 0 1-.289-.711 1.018 1.018 0 0 1 .289-.699c.281-.281.73-.37 1.091-.221a.99.99 0 0 1 .54.54 1 1 0 0 1 .08.38c0 .27-.11.52-.29.711-.1.09-.21.17-.33.22-.12.049-.25.069-.38.069"/><path fill="#434A4F" d="M116.819 52.968a.999.999 0 0 1-.659-1.753l7.071-6.188-7.013-5.26a.999.999 0 1 1 1.2-1.6l8.987 6.74-8.928 7.813a.998.998 0 0 1-.658.248m90.935 69.762a1 1 0 0 1-.999-.96c-1.394-35.67-26.562-66.662-61.203-75.366a1 1 0 1 1 .488-1.94c35.496 8.919 61.285 40.676 62.713 77.227a.999.999 0 0 1-.96 1.038l-.039.001zm-4.026.243a1 1 0 0 1-1-1v-.764c-1.617-33.841-25.79-63.091-58.785-71.082a1 1 0 1 1 .471-1.943c33.851 8.198 58.653 38.208 60.313 72.978l.001.811a1 1 0 0 1-1 1zm-63.909-72.998a1.02 1.02 0 0 1-.381-.08.966.966 0 0 1-.33-.21 1.057 1.057 0 0 1-.289-.71c0-.261.11-.52.289-.71a.937.937 0 0 1 .33-.21.998.998 0 0 1 1.091.21c.179.19.29.449.29.71 0 .259-.111.52-.29.71-.191.18-.45.29-.71.29m2-4c-.26 0-.52-.11-.711-.3a1.014 1.014 0 0 1-.289-.7c0-.27.11-.52.289-.71a.937.937 0 0 1 .33-.21c.371-.15.811-.071 1.091.21.179.19.29.44.29.71 0 .259-.111.52-.29.7-.191.19-.45.3-.71.3"/><path fill="#434A4F" d="M205.878 126.56l-7.814-8.928a1.001 1.001 0 0 1 1.505-1.318l6.189 7.072 5.26-7.013a1 1 0 1 1 1.6 1.2l-6.74 8.987m-77.06 78.318a1 1 0 0 1 0-2h.764c33.841-1.617 63.09-25.791 71.082-58.785a1 1 0 0 1 1.943.471c-8.198 33.851-38.208 58.653-72.978 60.313l-.811.001zm.242 4.026a1 1 0 0 1-.039-1.999c35.67-1.393 66.661-26.561 75.366-61.203a1 1 0 0 1 1.939.487c-8.919 35.498-40.676 61.287-77.227 62.714l-.039.001zm72.759-67.94c-.26 0-.52-.099-.711-.289a1.04 1.04 0 0 1-.289-.711.84.84 0 0 1 .079-.38c.051-.12.121-.23.21-.319.371-.38 1.051-.37 1.421 0a.99.99 0 0 1 .21.319 1 1 0 0 1 .08.38c0 .27-.111.52-.29.711-.05.05-.1.09-.16.13-.05.029-.11.06-.17.09-.06.02-.12.04-.19.049-.06.02-.131.02-.19.02m4 2c-.26 0-.52-.099-.711-.289a1.04 1.04 0 0 1-.289-.711c0-.259.11-.52.289-.699.371-.38 1.051-.37 1.421 0 .179.179.29.44.29.699 0 .27-.111.52-.29.711-.191.19-.45.289-.71.289"/><path fill="#434A4F" d="M133.817 212.968a.994.994 0 0 1-.599-.2l-8.987-6.74 8.928-7.813a1 1 0 0 1 1.318 1.505l-7.072 6.188 7.013 5.26a1 1 0 0 1-.601 1.8m-27.362-10.131a1.01 1.01 0 0 1-.237-.028c-33.851-8.199-58.653-38.208-60.313-72.978l-.001-.812a1 1 0 0 1 2 0v.764c1.617 33.842 25.791 63.091 58.785 71.082a.999.999 0 0 1-.234 1.972zm-1.618 3.721c-.081 0-.163-.01-.244-.03-35.497-8.919-61.286-40.676-62.714-77.227a.999.999 0 0 1 .96-1.038.997.997 0 0 1 1.038.96c1.394 35.67 26.562 66.661 61.203 75.365a1 1 0 0 1-.243 1.97zm5.982-3.543c-.27 0-.53-.1-.711-.29a.974.974 0 0 1-.289-.71c0-.06 0-.13.01-.19.02-.06.04-.131.06-.19.029-.06.06-.12.09-.171.04-.059.08-.11.129-.15.04-.049.1-.089.151-.129.05-.03.11-.06.17-.09.06-.02.13-.04.19-.06.33-.06.67.049.9.279a.983.983 0 0 1 0 1.411.969.969 0 0 1-.7.29m-2 4c-.27 0-.53-.1-.711-.29a.974.974 0 0 1-.289-.71c0-.261.099-.52.289-.701.371-.37 1.04-.37 1.411 0a.983.983 0 0 1 0 1.411.969.969 0 0 1-.7.29"/><path fill="#434A4F" d="M38.813 135.019a.998.998 0 0 1-.798-1.6l6.739-8.987 7.814 8.928a1 1 0 1 1-1.505 1.318l-6.189-7.072-5.26 7.013a.997.997 0 0 1-.801.4m78.708 7.761l2.856.928.539-1.658c.562-1.733 2.102-2.852 3.923-2.853h.002c1.821 0 3.361 1.119 3.925 2.851l.539 1.656 2.856-.929-.539-1.657c-.563-1.732.024-3.543 1.497-4.614 1.474-1.071 3.378-1.072 4.852-.002l1.41 1.023 1.765-2.43-1.41-1.023c-1.474-1.071-2.063-2.882-1.501-4.614.562-1.732 2.103-2.853 3.924-2.853l1.742-.001-.001-3.002h-1.743c-1.821 0-3.361-1.119-3.925-2.85-.563-1.732.025-3.544 1.498-4.615l1.409-1.025-1.717-2.362-1.409 1.025c-1.474 1.072-3.378 1.071-4.852.002-1.474-1.07-2.063-2.881-1.501-4.613l.538-1.658-2.857-.926-.538 1.657c-.562 1.732-2.102 2.852-3.923 2.853h-.002c-1.821 0-3.361-1.119-3.925-2.851l-.539-1.656-2.856.93.539 1.656c.564 1.732-.024 3.543-1.497 4.615-1.473 1.071-3.377 1.072-4.852.002l-1.41-1.023-1.764 2.43 1.41 1.023c1.474 1.071 2.063 2.882 1.501 4.615-.563 1.732-2.103 2.852-3.924 2.852l-1.742.001.001 3.003h1.744c1.82 0 3.36 1.118 3.924 2.85.564 1.732-.024 3.543-1.498 4.614l-1.408 1.025 1.715 2.359 1.41-1.024c1.473-1.072 3.377-1.072 4.852-.001 1.473 1.07 2.062 2.881 1.5 4.613l-.538 1.657zm4.142 3.447l-6.662-2.162 1.155-3.559c.352-1.084-.168-1.939-.773-2.378-.605-.439-1.579-.67-2.501.001l-3.026 2.2-4.068-5.595 3.026-2.2c.922-.67 1.003-1.668.772-2.379-.231-.71-.884-1.468-2.022-1.468h-.001l-3.742.001-.003-7.003 3.742-.002c1.14 0 1.792-.76 2.023-1.47.23-.711.148-1.709-.774-2.379l-3.029-2.198 4.115-5.667 3.028 2.198c.922.669 1.895.438 2.501-.001.604-.439 1.124-1.295.771-2.378l-1.157-3.559 6.659-2.166 1.158 3.558c.353 1.083 1.276 1.469 2.023 1.469h.001c.747 0 1.67-.387 2.022-1.47l1.155-3.56 6.661 2.161-1.154 3.56c-.352 1.083.168 1.938.773 2.377.604.44 1.579.67 2.501 0l3.026-2.201 4.07 5.597-3.027 2.2c-.921.67-1.003 1.668-.772 2.379.232.71.884 1.469 2.023 1.469h.001l3.741-.001.003 7.003-3.742.001c-1.139 0-1.792.76-2.023 1.471-.23.71-.148 1.708.774 2.378l3.027 2.198-4.114 5.667-3.028-2.198c-.923-.671-1.896-.438-2.501.001-.604.439-1.124 1.295-.771 2.378l1.157 3.559-6.66 2.166-1.157-3.558c-.353-1.084-1.276-1.47-2.023-1.47h-.001c-.747 0-1.671.387-2.022 1.47l-1.155 3.56z"/><path fill="#E9886C" d="M124.863 123.145a1.999 1.999 0 0 0-1.176 3.619 2.002 2.002 0 0 0 2.793-.447 2.004 2.004 0 0 0-.446-2.793 1.991 1.991 0 0 0-1.171-.379zm-.009 5.997a3.97 3.97 0 0 1-2.34-.759 4.005 4.005 0 0 1-.893-5.586 4.005 4.005 0 0 1 5.586-.893v.001a4.006 4.006 0 0 1 .893 5.585 4 4 0 0 1-3.246 1.652z"/><path fill="#434A4F" d="M123.009 113.675a.998.998 0 0 1 .92-1.071c.55-.04 1.029.371 1.08.92a1.013 1.013 0 0 1-.93 1.071h-.07c-.52 0-.96-.401-1-.92zm4.73 1.289c-.54-.15-.85-.71-.7-1.239a1.002 1.002 0 1 1 1.93.549c-.131.44-.531.721-.96.721-.091 0-.18-.011-.27-.031zm-8.54.031c-.23-.511 0-1.1.5-1.32a.992.992 0 0 1 1.32.5.996.996 0 0 1-.911 1.409.99.99 0 0 1-.909-.589zm11.87 1.58c-.02 0-.03-.011-.04-.02a1.003 1.003 0 0 1 1.179-1.62c.011.009.011.009.021.02h.01v.009c.449.321.55.941.219 1.39a.983.983 0 0 1-.81.411.958.958 0 0 1-.579-.19zm-15 .969a1.006 1.006 0 0 1 .019-1.419 1.01 1.01 0 0 1 1.421.02c.38.399.369 1.03-.02 1.419-.2.181-.45.281-.7.281-.26 0-.52-.1-.72-.301zm17.55 1.67a.998.998 0 0 1 .27-1.389.999.999 0 0 1 1.39.27.999.999 0 0 1-.83 1.56 1 1 0 0 1-.83-.441zm-19.62 1.79a.999.999 0 0 1-.46-1.339c.24-.5.83-.701 1.33-.46.5.239.71.839.469 1.33h-.009a.982.982 0 0 1-.891.569.962.962 0 0 1-.439-.1zm21.12 1.56a.992.992 0 0 1 .73-1.21 1 1 0 0 1 1.21.73 1.004 1.004 0 0 1-.971 1.241.993.993 0 0 1-.969-.761zm-21.88 2.4a.994.994 0 0 1-.89-1.089.991.991 0 0 1 1.089-.9c.551.06.951.549.9 1.1-.059.509-.489.9-1 .9-.029 0-.069-.011-.099-.011zm23.04 2.361c-.55-.051-.95-.54-.901-1.091.06-.549.551-.949 1.101-.9.55.061.95.551.89 1.101a.998.998 0 0 1-.991.899c-.04 0-.069 0-.099-.009zm-23.611.9c-.139-.54.19-1.08.721-1.221.54-.129 1.08.19 1.219.73a.994.994 0 0 1-.73 1.21.995.995 0 0 1-1.21-.719zm22.17 2.87a.993.993 0 0 1-.46-1.33.998.998 0 0 1 1.33-.471c.5.25.71.841.471 1.341a.998.998 0 0 1-.9.559.98.98 0 0 1-.441-.099zm-20.389 1.11a.989.989 0 0 1 .27-1.38.998.998 0 1 1 .56 1.82.986.986 0 0 1-.83-.44zm17.759 1.95a1.01 1.01 0 0 1 .011-1.421c.4-.38 1.03-.369 1.42.02.38.401.37 1.031-.02 1.421-.201.19-.451.28-.701.28a.982.982 0 0 1-.71-.3zm-14.709 1.179a.995.995 0 0 1-.23-1.39c.33-.449.95-.549 1.399-.23.44.33.551.951.221 1.401-.19.27-.5.409-.81.409a.955.955 0 0 1-.58-.19zm11.18.781c-.221-.5 0-1.091.509-1.321.5-.219 1.091 0 1.321.511a1.004 1.004 0 0 1-.91 1.409.997.997 0 0 1-.92-.599zm-7.25 1.13a.989.989 0 0 1-.69-1.23.989.989 0 0 1 1.23-.69c.53.15.84.699.69 1.23-.13.44-.531.73-.96.73a.867.867 0 0 1-.27-.04zm3.27-.48a.998.998 0 0 1 .92-1.071c.56-.039 1.029.37 1.08.921.03.55-.38 1.03-.93 1.07h-.07c-.52 0-.96-.4-1-.92zm-4.532-5.143c-3.572-2.588-4.373-7.6-1.785-11.171 2.588-3.573 7.599-4.373 11.171-1.786l-1.173 1.62a6.005 6.005 0 0 0-8.378 1.339 6.006 6.006 0 0 0 1.338 8.378l-1.173 1.62M34.901 66.967h2v-4h-2zM34.901 76.967h2v-4h-2zM38.901 70.967h4v-2h-4zM28.901 70.967h4v-2h-4zM213.008 163.025h2v-4h-2zM213.008 173.025h2v-4h-2zM217.008 167.025h4v-2h-4zM207.008 167.025h4v-2h-4zM91.935 211.053h2v-4h-2zM91.935 221.053h2v-4h-2zM95.935 215.053h4v-2h-4zM85.935 215.053h4v-2h-4zM160.977 32.947h2v-4h-2zM160.977 42.947h2v-4h-2zM164.977 36.947h4v-2h-4zM154.977 36.947h4v-2h-4z"/><path fill="#42494E" d="M192.361 188.792c-5.923 0-10.741 4.819-10.741 10.742 0 5.923 4.818 10.741 10.741 10.741s10.741-4.818 10.741-10.741-4.818-10.742-10.741-10.742zm0 23.483c-7.026 0-12.741-5.716-12.741-12.741 0-7.026 5.715-12.742 12.741-12.742 7.025 0 12.741 5.716 12.741 12.742 0 7.025-5.716 12.741-12.741 12.741z"/><path fill="#42494E" d="M192.36 188.792c-2.885 0-5.322 4.919-5.322 10.742 0 5.822 2.437 10.741 5.322 10.741 2.885 0 5.322-4.919 5.322-10.741 0-5.823-2.437-10.742-5.322-10.742zm0 23.483c-4.106 0-7.322-5.597-7.322-12.741 0-7.145 3.216-12.742 7.322-12.742 4.105 0 7.322 5.597 7.322 12.742 0 7.144-3.217 12.741-7.322 12.741z"/><path fill="#42494E" d="M180.62 200.534h23.482v-2H180.62zM154.651 87.647a3.003 3.003 0 0 0-2.999 3c0 1.655 1.346 3 3 3h55.165l6.506-3-6.506-3h-55.166zm55.604 8h-55.603c-2.757 0-5-2.243-5-5 0-2.756 2.243-5 4.999-5h55.604l10.844 5-10.844 5z"/><path fill="#42494E" d="M160.262 94.647h2v-7.598h-2z"/><path fill="#42494E" d="M161.262 91.619h48.006v-2h-48.006z"/><path fill="#FACD60" d="M48.705 196.895a4 4 0 1 1-8 0 4 4 0 0 1 8 0M192.818 54.3a2 2 0 1 1-3.999.001 2 2 0 0 1 3.999-.001m15.334 135.667a3.666 3.666 0 1 1 7.333-.001 3.666 3.666 0 0 1-7.333.001"/></g></svg>