<?xml version="1.0" encoding="utf-8"?><svg xmlns="http://www.w3.org/2000/svg" width="250" height="250" viewBox="0 0 250 250"><g fill="none" fill-rule="evenodd"><path fill="#E9886C" d="M132.944 208.443s-2.7-50.252-4.049-55.651a2.025 2.025 0 0 0 2.025-2.024v-5.062l-5.146-6.077-4.978 6.077v5.062c0 1.118.907 2.024 2.025 2.024-1.349 5.399-4.049 55.651-4.049 55.651h14.172"/><path fill="#DDDED9" d="M110.288 124.453v4.423l15.317 8.605 15.185-8.352.136-8.096v-6.824a30.676 30.676 0 0 0 1.708-1.806 6.908 6.908 0 0 0-.506.48c-2.129 2.288-5.357 4.69-7.543 6.557a9.69 9.69 0 0 1-6.189 2.319h-6.572a9.692 9.692 0 0 1-6.189-2.319c-2.086-1.782-5.123-4.051-7.246-6.245-.064-.066-.138-.131-.207-.197a31.918 31.918 0 0 0 2.142 2.049c-.017.008-.036.016-.036.036v9.37"/><path fill="#434A4F" d="M110.288 129.75a1 1 0 0 1-1-1v-13.667a1 1 0 1 1 2 0v13.667a1 1 0 0 1-1 1"/><path fill="#434A4F" d="M140.825 129.498a1 1 0 0 1-1-1V113.77l.298-.294c1.189-1.174 2.612-2.671 3.055-3.849l6.262-12.78 6.984-3.494 1.595-7.916a2.269 2.269 0 0 0-.648-1.585 2.277 2.277 0 0 0-1.645-.695h-2.59l.203-1.171c.553-3.179.833-6.035.833-8.49l.002-1.374a27.115 27.115 0 0 0-2.507-11.53 28.19 28.19 0 0 0-.478-1.014 29.101 29.101 0 0 0-8.002-9.853c-5.064-3.993-11.157-6.127-17.619-6.171-7.545-.017-14.672 2.924-20.164 8.381-5.62 5.581-8.843 13.264-8.843 21.076v.485c0 2.497.241 5.361.717 8.511l.173 1.15H95.06a2.41 2.41 0 0 0-2.404 2.279l2.266 7.929 6.087 3.515 6.012 12.712c.823 2.199 4.34 5.058 7.166 7.356.752.611 1.468 1.193 2.098 1.731a8.71 8.71 0 0 0 5.55 2.08h6.576a1 1 0 0 1 0 2h-6.587a10.727 10.727 0 0 1-6.838-2.558 106.13 106.13 0 0 0-2.061-1.701c-3.171-2.579-6.765-5.5-7.746-8.13L99.468 98.3l-6.247-3.607-2.568-9.129a4.412 4.412 0 0 1 4.407-4.407h.075c-.382-2.802-.574-5.374-.574-7.661v-.485c0-8.342 3.438-16.541 9.434-22.495 5.823-5.784 13.41-8.963 21.382-8.963l.205.001c6.911.047 13.426 2.329 18.843 6.601a31.106 31.106 0 0 1 9.063 11.608 29.12 29.12 0 0 1 2.686 12.374l-.002 1.359c0 2.26-.224 4.833-.669 7.661h.223c1.17 0 2.264.462 3.079 1.3a4.26 4.26 0 0 1 1.213 3.115l-.019.169-1.807 8.964-7.254 3.628-5.927 12.087c-.501 1.344-1.803 2.801-3.186 4.184v13.894a1 1 0 0 1-1 1m-35.408-6.05l-5.56 10.302-24.435 8.328c.358.565.598 1.202.718 1.868l25.104-8.555 5.366-9.943h3.22v-2h-4.413m-44.908 40.526c-.508 0-.972-.069-1.399-.183l-.053 40.648 2 .002.052-40.499c-.193.02-.393.032-.6.032"/><path fill="#434A4F" d="M125.859 138.754l-16.049-8.988a.999.999 0 0 1-.384-1.36.997.997 0 0 1 1.361-.384l15.072 8.439 14.48-8.108a.998.998 0 0 1 1.361.384.999.999 0 0 1-.384 1.36l-15.457 8.657m66.8 65.687l-2-.002.055-49.834c0-4.86-3.045-6.332-8.059-8.177l-32.238-10.943-6.128-10.037h-3.247v-2h4.37l6.335 10.377 31.575 10.717c5.332 1.962 9.392 3.943 9.392 10.064l-.055 49.835"/><path fill="#434A4F" d="M134.969 150.755a.994.994 0 0 1-.743-.331l-8.367-9.297-8.369 9.297a1 1 0 0 1-1.487-1.338l9.856-10.949 9.853 10.949a1 1 0 0 1-.743 1.669"/><path fill="#E9886C" d="M181.162 89.323c-12.683 0-23 10.317-23 23 0 12.682 10.317 23 23 23 12.682 0 23-10.318 23-23 0-12.683-10.318-23-23-23zm0 48c-13.786 0-25-11.215-25-25s11.214-25 25-25c13.785 0 25 11.215 25 25s-11.215 25-25 25z"/><path fill="#434A4F" d="M182.116 124.456h-2v-13.022h7.887v2h-5.887v11.022M181.161 133.767a1 1 0 0 1-1-1v-3.556a1 1 0 1 1 2 0v3.556a1 1 0 0 1-1 1m-16.447-20.444h-3.555a1 1 0 1 1 0-2h3.555a1 1 0 1 1 0 2"/><path fill="#434A4F" d="M181.161 133.767a1 1 0 0 1-1-1v-3.556a1 1 0 1 1 2 0v3.556a1 1 0 0 1-1 1m-16.447-20.444h-3.555a1 1 0 1 1 0-2h3.555a1 1 0 1 1 0 2m6.283 17.483a1 1 0 0 1-.866-1.5l1.778-3.079a1 1 0 1 1 1.732 1l-1.777 3.079c-.186.32-.522.5-.867.5m-7.43-7.675a.999.999 0 0 1-.501-1.866l3.079-1.777a1 1 0 1 1 1 1.732l-3.079 1.778c-.157.09-.329.133-.499.133"/><path fill="#434A4F" d="M181.171 133.767a1 1 0 0 1-1-1v-3.556a1 1 0 0 1 2 0v3.556a1 1 0 0 1-1 1m20.001-20.444h-3.555a1 1 0 1 1 0-2h3.555a1 1 0 1 1 0 2m-9.838 17.483c-.345 0-.681-.18-.867-.5l-1.777-3.079a1 1 0 0 1 1.732-1l1.778 3.079a1 1 0 0 1-.866 1.5m7.431-7.675c-.17 0-.342-.043-.499-.133l-3.079-1.778a1 1 0 1 1 1-1.732l3.079 1.777a.999.999 0 0 1-.501 1.866m-17.604-26.265a1 1 0 0 1-1-1v-3.555a1 1 0 1 1 2 0v3.555a1 1 0 0 1-1 1"/><path fill="#434A4F" d="M181.161 96.866a1 1 0 0 1-1-1v-3.555a1 1 0 1 1 2 0v3.555a1 1 0 0 1-1 1m-8.385 2.484a1 1 0 0 1-.867-.5l-1.778-3.079a1 1 0 0 1 1.733-1l1.777 3.079a1 1 0 0 1-.865 1.5m-6.132 6.374a.992.992 0 0 1-.499-.134l-3.079-1.778a.999.999 0 0 1-.366-1.366.998.998 0 0 1 1.366-.366l3.079 1.778a.999.999 0 0 1-.501 1.866"/><path fill="#434A4F" d="M181.171 96.866a1 1 0 0 1-1-1v-3.555a1 1 0 1 1 2 0v3.555a1 1 0 0 1-1 1m8.384 2.484a1 1 0 0 1-.865-1.5l1.777-3.079a1 1 0 1 1 1.733 1l-1.778 3.079a1 1 0 0 1-.867.5m6.133 6.374a.999.999 0 0 1-.501-1.866l3.079-1.778a.998.998 0 0 1 1.366.366.999.999 0 0 1-.366 1.366l-3.079 1.778a.992.992 0 0 1-.499.134"/><path fill="#42494E" d="M43.254 185.412a3.003 3.003 0 0 0-2.999 3c0 1.654 1.346 3 3 3h100.549l6.506-3-6.506-3H43.254zm100.99 8H43.255c-2.757 0-5-2.244-5-5 0-2.757 2.243-5 4.999-5h100.99l10.841 5-10.841 5z"/><path fill="#42494E" d="M48.865 192.412h2v-7.599h-2z"/><path fill="#42494E" d="M49.865 189.382h93.39v-2h-93.39z"/><path fill="#434A4F" d="M191.662 208.447a1 1 0 0 1-.71-.3.984.984 0 0 1-.29-.7c0-.14.02-.27.07-.39s.13-.23.22-.32c.37-.37 1.04-.38 1.41 0 .1.09.17.2.221.32.049.12.069.25.069.39 0 .26-.1.51-.29.7-.19.19-.44.3-.7.3m-131.61 0a.996.996 0 0 1-.7-.3.994.994 0 0 1-.3-.7c0-.14.03-.27.08-.39s.12-.23.22-.32c.36-.37 1.04-.38 1.41 0 .1.09.17.2.22.32.05.12.07.25.07.39 0 .26-.1.51-.29.7-.09.1-.2.17-.32.22-.12.05-.25.08-.39.08"/><path fill="#42494E" d="M54.512 146.206a6.135 6.135 0 0 0 3.933 7.704 6.082 6.082 0 0 0 4.675-.364 6.08 6.08 0 0 0 3.049-3.561 6.088 6.088 0 0 0-.384-4.611 6.086 6.086 0 0 0-3.563-3.048 6.092 6.092 0 0 0-4.676.362 6.088 6.088 0 0 0-3.034 3.518zm5.826 10.006a8.114 8.114 0 0 1-2.513-.4c-4.239-1.383-6.573-5.939-5.229-10.181l-.001-.001.017-.047.005-.017h.001a8.072 8.072 0 0 1 4.022-4.661 8.077 8.077 0 0 1 6.202-.482c4.26 1.389 6.597 5.986 5.208 10.245h-.001c-1.135 3.39-4.309 5.544-7.711 5.544z"/><path fill="#42494E" d="M59.291 163.416l2.073.002.002-1.232a3.492 3.492 0 0 1 2.452-3.369 3.49 3.49 0 0 1 3.963 1.292l.723.998 1.678-1.217-.722-.997a3.49 3.49 0 0 1 .004-4.168 3.5 3.5 0 0 1 3.965-1.284l1.171.383.322-.988h-.001l.3-.919-1.172-.382a3.491 3.491 0 0 1-2.445-3.374 3.492 3.492 0 0 1 2.453-3.369l1.172-.379-.639-1.972-1.173.379a3.495 3.495 0 0 1-3.961-1.291 3.492 3.492 0 0 1 .004-4.168l.725-.996-1.676-1.22-.724.996c-.921 1.266-2.475 1.771-3.965 1.283-1.489-.484-2.448-1.808-2.447-3.374v-1.231l-2.072-.002-.001 1.231a3.493 3.493 0 0 1-2.454 3.37 3.491 3.491 0 0 1-3.962-1.292l-.722-.998-1.679 1.217.723.997a3.495 3.495 0 0 1-.003 4.169c-.921 1.264-2.474 1.768-3.965 1.283l-1.172-.381-.62 1.904 1.17.381a3.494 3.494 0 0 1 2.447 3.375 3.495 3.495 0 0 1-2.453 3.369l-1.172.38.638 1.97 1.172-.378a3.489 3.489 0 0 1 3.962 1.293 3.492 3.492 0 0 1-.004 4.167l-.725.996 1.676 1.219.724-.996a3.495 3.495 0 0 1 3.966-1.283 3.49 3.49 0 0 1 2.445 3.374l-.001 1.232zm4.071 2.004l-6.072-.006.003-3.232c0-.828-.55-1.303-1.066-1.471-.517-.167-1.241-.108-1.728.56l-1.903 2.613-4.91-3.575 1.903-2.613c.488-.669.321-1.377.002-1.816-.318-.44-.936-.816-1.727-.564l-3.075.996-1.87-5.777 3.075-.995c.787-.255 1.068-.926 1.069-1.469 0-.543-.279-1.215-1.066-1.471l-3.073-1.002 1.861-5.707 3.072 1.001c.788.259 1.409-.12 1.728-.559.32-.438.489-1.146.002-1.817L47.69 135.9l4.917-3.565 1.896 2.618c.487.671 1.21.732 1.727.562.517-.167 1.069-.64 1.07-1.469l.003-3.231 6.072.006-.002 3.231c-.001.828.55 1.303 1.067 1.471.516.17 1.241.109 1.727-.56l1.903-2.613 4.908 3.575-1.901 2.614c-.488.669-.321 1.377-.002 1.815.318.44.941.816 1.726.563l3.076-.996 1.871 5.779-3.076.995c-.787.255-1.068.926-1.068 1.468-.001.543.279 1.214 1.065 1.47l3.074 1.003-.786 2.406h.002l-1.078 3.303-3.073-1.003c-.783-.256-1.407.12-1.727.56-.32.439-.489 1.147-.002 1.817l1.896 2.616-4.916 3.565-1.897-2.617c-.488-.671-1.213-.728-1.728-.564-.516.168-1.067.641-1.068 1.469l-.004 3.232z"/><path fill="#434A4F" d="M34.947 124.454h2v-4h-2zM34.947 134.454h2v-4h-2zM38.947 128.454h4v-2h-4zM28.947 128.454h4v-2h-4zM193.042 64.417h2v-4h-2zM193.042 74.417h2v-4h-2zM197.042 68.417h4v-2h-4zM187.042 68.417h4v-2h-4zM213.053 172.429h2v-4h-2zM213.053 182.429h2v-4h-2zM217.053 176.429h4v-2h-4zM207.053 176.429h4v-2h-4z"/><path fill="#E9886C" d="M91.152 164.429a2 2 0 1 1-4 0 2 2 0 0 1 4 0m-24-43a1 1 0 1 1-2 0 1 1 0 0 1 2 0"/><path fill="#FACD60" d="M203.152 134.429a2 2 0 1 1-4 0 2 2 0 0 1 4 0"/></g></svg>