<?xml version="1.0" encoding="utf-8"?><svg xmlns="http://www.w3.org/2000/svg" xmlns:xlink="http://www.w3.org/1999/xlink" width="193" height="167" viewBox="0 0 193 167"><defs><path id="hka" d="M.106 0h2v13.94h-2z"/></defs><g fill="none" fill-rule="evenodd"><path fill="#DEDEDD" d="M133.117 88.026c.005-.177.012-.354.012-.532.017-21.548-17.438-39.03-38.987-39.047-21.548-.017-39.03 17.438-39.047 38.986v.061c0 .168.007.334.012.5-.002.168-.012.333-.012.501 0 .156.007.31.011.465-.004.156-.011.31-.011.466l.001.035-.001.034c0 .157.007.311.011.466-.004.155-.011.31-.011.466 0 .168.01.333.012.5-.005.167-.012.333-.012.501-.018 21.531 17.423 38.999 38.954 39.017a38.988 38.988 0 0 0 23.53-7.878v-3.933l-1.203-1.597c-15.998 12.106-38.738 9.211-51.191-6.519l3.054-2.036c9.435 14.292 28.67 18.229 42.962 8.794a31.007 31.007 0 0 0 13.924-25.883c0-.143-.008-.285-.015-.427.004-.191.015-.381.015-.573 0-.133-.008-.265-.014-.398.005-.178.014-.355.014-.534l-.001-.029.001-.04c0-.133-.008-.265-.014-.397.005-.178.014-.355.014-.534 0-.143-.013-.284-.015-.427.006-.191.015-.382.015-.574a31.02 31.02 0 0 0-16.205-27.256l-.957 1.757v3.933A28.996 28.996 0 0 1 122.68 86.46h-5.585c-.552-12.694-11.289-22.538-23.983-21.986-12.307.534-22.009 10.668-22.008 22.986 0 .168.008.334.012.501-.003.166-.012.332-.012.5 0 .156.007.31.011.465-.004.156-.011.31-.011.466v.069c0 .156.007.311.011.466-.004.155-.011.31-.011.466 0 .168.009.333.012.5-.004.167-.012.333-.012.5.014 12.702 10.306 22.995 23.007 23.009v-5.933c-10.822-.022-19.855-8.267-20.863-19.042 1.027-11.498 11.18-19.986 22.677-18.959a20.905 20.905 0 0 1 10.544 3.995l-2.18 2.004c-6.057-5.634-15.535-5.291-21.168.766a14.976 14.976 0 0 0-3.437 6.095v3.934l1.923.549a13.025 13.025 0 0 1 6.768-8.067l1.102 2.485c-.107.092-.214.181-.315.282a6.958 6.958 0 0 0-2.015 5.394 6.967 6.967 0 0 0 0 1.001c-.002.022-.001.044-.002.066-.01.152-.015.303-.014.455-.001.152.004.303.014.455.001.022 0 .044.002.066a6.967 6.967 0 0 0 0 1.001 6.988 6.988 0 0 0 11.915 5.395V92.41l-1.415-1.414a5.006 5.006 0 0 1-7.071 0 4.952 4.952 0 0 1-1.046-1.569 4.987 4.987 0 0 1 8.117-1.569l1.415-1.414v-3.933a6.95 6.95 0 0 0-4.95-2.05c-.478 0-.954.049-1.422.146l-.877-1.978a12.402 12.402 0 0 1 2.298-.239 13.007 13.007 0 0 1 12.834 11.037c-1.08 7.094-7.707 11.97-14.801 10.89a12.997 12.997 0 0 1-10.494-9.124l-1.916.573v3.933c2.38 7.939 10.744 12.446 18.684 10.067a15.007 15.007 0 0 0 10.698-14.373c0-.179-.014-.355-.023-.533.004-.156.023-.309.023-.467 0-.167-.014-.331-.022-.497.009-.144.022-.288.022-.435l-.001-.039.001-.03c0-.148-.013-.292-.019-.439l-.003-.061c.009-.143.022-.286.022-.431 0-.192-.014-.38-.022-.57.009-.143.022-.285.022-.431 0-2.485-.624-4.931-1.813-7.113l2.786-2.56a20.898 20.898 0 0 1 4.907 11.728 20.95 20.95 0 0 1-12.765 17.328v3.933l.774 1.845a22.953 22.953 0 0 0 14.078-20.228h5.598c-2.714 15.781-17.707 26.375-33.488 23.661-13.18-2.266-23.099-13.253-24.012-26.595 1.074-15.993 14.91-28.087 30.903-27.013a28.96 28.96 0 0 1 5.916 1.02l.543-1.925v-3.933c-16.501-4.643-33.641 4.97-38.284 21.47a31.02 31.02 0 0 0-1.16 8.416c0 .145.008.288.014.432-.003.19-.014.378-.014.569 0 .135.007.268.013.402-.005.176-.013.352-.013.529l.001.032-.001.037c0 .136.007.269.013.402-.005.177-.013.352-.013.53 0 .154.011.304.013.457-.005.181-.013.361-.013.544a30.666 30.666 0 0 0 2.614 12.401l-3.533 2.356a36.75 36.75 0 0 1-5.003-16.866c1.132-20.398 18.585-36.017 38.983-34.885 18.894 1.048 33.951 16.186 34.897 35.085a36.97 36.97 0 0 1-8.836 22.03v3.933l1.517 1.302a38.975 38.975 0 0 0 9.391-25.356c0-.158-.007-.314-.012-.47.002-.177.012-.354.012-.531 0-.147-.006-.292-.011-.437.004-.165.011-.329.011-.495l-.001-.032.001-.037c0-.146-.006-.291-.011-.437.004-.165.011-.329.011-.494 0-.157-.01-.312-.012-.469"/><path fill="#48515A" d="M94.111 126.443c-21.558-.004-39.031-17.483-39.027-39.041.004-21.553 17.475-39.023 39.027-39.027v2c-20.453-.026-37.055 16.534-37.081 36.987-.025 20.454 16.535 37.055 36.988 37.081a37.031 37.031 0 0 0 22.358-7.475l1.203 1.597a38.69 38.69 0 0 1-23.468 7.878"/><path fill="#48515A" d="M123.738 112.782l-1.517-1.302c13.303-15.525 11.501-38.894-4.024-52.197a37.017 37.017 0 0 0-24.086-8.908v-2c21.549 0 39.018 17.469 39.018 39.018a39.017 39.017 0 0 1-9.391 25.389"/><path fill="#48515A" d="M94.111 118.405c-17.128-.016-31-13.914-30.984-31.042.016-17.127 13.913-31 31.041-30.984 2.832.003 5.649.393 8.375 1.16L102 59.464c-15.425-4.363-31.465 4.605-35.828 20.029-4.363 15.425 4.604 31.466 20.029 35.829 15.425 4.363 31.466-4.605 35.828-20.03 3.692-13.052-2.149-26.921-14.066-33.399l.957-1.757c15.051 8.18 20.62 27.013 12.44 42.064a31.02 31.02 0 0 1-27.249 16.205"/><path fill="#48515A" d="M94.111 110.401c-12.696-.011-22.98-10.313-22.969-23.009.01-12.697 10.312-22.981 23.008-22.97 12.697.011 22.981 10.312 22.97 23.009a22.99 22.99 0 0 1-14.115 21.188l-.774-1.845c10.711-4.477 15.764-16.79 11.287-27.501-4.478-10.711-16.791-15.764-27.502-11.287-10.711 4.478-15.764 16.791-11.286 27.502a21.02 21.02 0 0 0 19.381 12.913v2"/><path fill="#48515A" d="M94.111 102.396a15.097 15.097 0 0 1-14.377-10.698l1.916-.574c2.061 6.881 9.309 10.789 16.191 8.729 6.881-2.061 10.789-9.309 8.728-16.19-2.06-6.882-9.309-10.789-16.19-8.729a13.006 13.006 0 0 0-8.772 8.875l-1.923-.549c2.281-7.968 10.589-12.578 18.557-10.296 7.967 2.281 12.577 10.589 10.295 18.557a15.005 15.005 0 0 1-14.425 10.875"/><path fill="#48515A" d="M94.112 94.392a7 7 0 1 1 4.95-11.95l-1.415 1.414a5.001 5.001 0 1 0 0 7.072l1.415 1.414a6.954 6.954 0 0 1-4.95 2.05"/><path fill="#48515A" d="M87.961 74.81l1.828-.811 3.253 7.333-1.828.811-3.253-7.333M103.237 77.365l6.26-5.753 1.353 1.472-6.26 5.754-1.353-1.473M116.977 88.392h7.148v-2h-7.148zM61.54 106.543l6-4 1.109 1.664-6 4-1.109-1.664"/><path fill="#F58E70" d="M65.18 24.302v-2h-6v2h-2v-2h-6v2h-2v6h2v2h2v2h2v2h2v2h2v-2h2v-2h2v-2h2v-2h2v-6h-2M137.223 145.375v-2h-6v2h-2v-2h-6v2h-2v6h2v2h2v2h2v2h2v2h2v-2h2v-2h2v-2h2v-2h2v-6h-2M134.18 57.321h2v-6h-2zM136.18 51.321h6v-2h-6zM142.18 53.321h2v-2h-2zM144.18 51.321h6v-2h-6zM150.18 57.321h2v-6h-2zM136.18 59.321h2v-2h-2zM138.18 61.321h2v-2h-2zM140.18 63.321h2v-2h-2zM142.18 65.321h2v-2h-2zM144.18 63.321h2v-2h-2zM146.18 61.321h2v-2h-2zM148.18 59.321h2v-2h-2z"/><path fill="#DFE0E0" d="M164.235 29.353l.868.253v100.896c5.485.002 9.929 4.45 9.927 9.935-.002 5.485-4.45 9.93-9.935 9.927-.157 0-.313-.003-.469-.011h-5.523v-121h5.132m-136.444 0l-.688.253v100.896a10.234 10.234 0 0 0-10.016 9.926c.09 5.572 4.681 10.017 10.254 9.926l.059-.001h5.703v-121h-5.312"/><path fill="#FFD15D" d="M165.103 13.612c5-.003 10 5.21 10 10.826v116.896c0-5.283-5-10.289-10-10.782V13.612m-137 0c-6-.003-11 4.543-11 10.159v116.896c0-5.283 5-9.622 11-10.115V13.612"/><path fill="#48515A" d="M26.103 14.605a7.43 7.43 0 0 0-5.092 1.925 9.7 9.7 0 0 0-2.908 7.241v110.637a11.299 11.299 0 0 1 8-4.855V14.605zm140 114.949a11.137 11.137 0 0 1 8 5.053V24.298c0-4.618-4.026-8.542-8-9.476v114.732zm-1.477 21.799H27.4c-6.335 0-11.297-4.694-11.297-10.686h-.016c0-.19.005-.38.016-.568V23.771a11.703 11.703 0 0 1 3.563-8.722 9.542 9.542 0 0 1 7.532-2.391l.905.087v118.757h-1a9.484 9.484 0 0 0-9 8.646v.519c0 4.87 4.084 8.686 9.297 8.686h137.226c5.314 0 9.477-3.816 9.477-8.686h-.148c0-4.797-4.22-9.165-8.852-9.165h-1V12.549l1.092.101c5.811.54 10.908 5.983 10.908 11.648v116.369c0 5.992-5.041 10.686-11.477 10.686z"/><path fill="#475059" d="M26.526 30.353h137.577v-2H26.526z"/><path fill="#48515A" d="M126.072 4.909h2v-4h-2zM126.072 14.909h2v-4h-2zM130.072 8.909h4v-2h-4zM120.072 8.909h4v-2h-4zM6 143.992h2v-4H6zM6 153.992h2v-4H6zM10 147.992h4v-2h-4zM0 147.992h4v-2H0z"/><g transform="translate(184 153)"><mask id="hkb" fill="#fff"><use xlink:href="#hka"/></mask><path fill="#48515A" mask="url(#hkb)" d="M.106 4h2V0h-2zM.106 13.94h2V10h-2z"/></g><path fill="#48515A" d="M188.106 161h4v-2h-4zM178.106 161h4v-2h-4z"/><path fill="#5FE0ED" d="M137.107 110.386a3.317 3.317 0 1 1 0 6.634 3.317 3.317 0 0 1 0-6.634"/><path fill="#FFD15D" d="M143.095 36.925a1 1 0 1 1 0 2 1 1 0 0 1 0-2m5 52a4 4 0 1 1 0 8 4 4 0 0 1 0-8"/><path fill="#FFD15D" d="M148.095 98.925a6 6 0 1 1 6-6 6.007 6.007 0 0 1-6 6zm0-14a8 8 0 0 0-8 8 8 8 0 1 0 16 0 8 8 0 0 0-8-8zM48.107 131.854l3 2.924-.708 4.129 3.708-1.95 3.708 1.95-.708-4.129 3-2.924-4.146-.603-1.854-3.757-1.854 3.757zM86.107 13.878l3 2.924-.708 4.129 3.708-1.95 3.708 1.95-.708-4.129 3-2.924-4.146-.603-1.854-3.757-1.854 3.757zM36.077 63.908l3 2.924-.708 4.129 3.708-1.95 3.708 1.95-.708-4.129 3-2.924-4.146-.603-1.854-3.757-1.854 3.757z"/></g></svg>