<?xml version="1.0" encoding="utf-8"?><svg xmlns="http://www.w3.org/2000/svg" width="250" height="250" viewBox="0 0 250 250"><g fill="none" fill-rule="evenodd"><path fill="#FFD15D" d="M71.938 78.054l-9.814 4.908a6.512 6.512 0 0 0-3.621 5.859v1.8l1.081 5.404a4.982 4.982 0 0 0 3.919 1.893h3.033c.495-7.474 6.493-13.455 13.967-13.951v-5.913h-8.565M190.492 89.52a8.05 8.05 0 0 0-.45-2.602h-2.544a10 10 0 0 1-9.19-6.058c-8.28-.976-19.935-2.347-23.83-2.806h-13.98v6.864c0 6.066-4.935 11-11 11H96.184c.134.654.24 1.318.285 2h56.062c.517-7.806 7.032-14 14.967-14 7.934 0 14.45 6.194 14.967 14h7.033c.551 0 1-.449 1-1l-.006-7.398m-54.557-14.602h-20.431a2 2 0 0 1-2-2v-22a2 2 0 0 1 2-2h7.435c1.56 0 2.978.907 3.631 2.324l10.273 22.257a1 1 0 0 1-.908 1.419zm-26.431-2a2 2 0 0 1-2 2H84.175a1 1 0 0 1-.852-1.524l12.496-23.417a2 2 0 0 1 1.765-1.059h9.92a2 2 0 0 1 2 2v22zm40.389 2h-7.115a2 2 0 0 1-1.816-1.162l-10.809-23.419a1 1 0 0 1 .908-1.419h1.433a2.979 2.979 0 0 0-2.207-1H92.9a3.013 3.013 0 0 0-2.572 1.456L76.931 75.481l-.571.299h74.107l-.574-.862z"/><path fill="#475059" d="M153.498 75.918h-10.721a3.01 3.01 0 0 1-2.724-1.743l-10.808-23.419a1.993 1.993 0 0 1 .131-1.916c.37-.577.999-.922 1.685-.922h5.438v2h-5.438l10.809 23.419c.162.352.519.581.907.581h10.721v2m-37.994-26c-.551 0-1 .448-1 1v22c0 .552.449 1 1 1h20.431l-10.273-22.257a3.01 3.01 0 0 0-2.724-1.743h-7.434zm20.431 26h-20.431c-1.654 0-3-1.346-3-3v-22c0-1.654 1.346-3 3-3h7.434a5.018 5.018 0 0 1 4.541 2.905L137.75 73.08a1.99 1.99 0 0 1-.13 1.916c-.37.577-.999.922-1.685.922zm-38.351-26a.998.998 0 0 0-.882.529L84.206 73.865l23.298.053c.551 0 1-.448 1-1v-22c0-.552-.449-1-1-1h-9.92zm9.92 26H84.175a2 2 0 0 1-1.703-3.048l12.465-23.364a2.995 2.995 0 0 1 2.647-1.588h9.92c1.654 0 3 1.346 3 3v22c0 1.654-1.346 3-3 3zm85.994 12h-6c-6.065 0-11-4.935-11-11h2c0 4.963 4.038 9 9 9h6v2m-116.671-12h-5.699v-2h5.699l12.885-23.999-3.209-.001v-2h3.209c.71 0 1.352.363 1.717.973s.382 1.347.046 1.973L78.56 74.915c-.396.647-1.033 1.003-1.733 1.003m112.671 26h-10v-2h10c1.654 0 3-1.346 3-3h2c0 2.757-2.243 5-5 5M93.503 101.918h61.995v-2H93.503z"/><path fill="#475059" d="M69.503 101.918h-6a8.968 8.968 0 0 1-7.577-4.142l1.682-1.08a6.98 6.98 0 0 0 5.895 3.222h6v2m122.995-10.995l-.006-1.411c-.005-3.997-2.388-7.638-6.072-9.28-.884-.393-1.873-.65-3.022-.786a146689.1 146689.1 0 0 0-30.017-3.535l-.459-.054-18.475-27.712a4.988 4.988 0 0 0-4.16-2.227H92.9a5.028 5.028 0 0 0-4.288 2.428L72.21 75.683l-10.98 5.49a8.503 8.503 0 0 0-4.727 7.648v2.097h-2v-2.097c0-4.022 2.235-7.638 5.832-9.437l10.46-5.231 16.102-26.837a7.039 7.039 0 0 1 6.003-3.398h37.387a6.986 6.986 0 0 1 5.824 3.117l17.963 26.944c3.121.367 21.359 2.513 29.559 3.481 1.351.16 2.529.469 3.6.945 4.405 1.963 7.253 6.32 7.259 11.101l.006 1.407-2 .01"/><path fill="#475059" d="M167.498 87.918c-6.065 0-11 4.934-11 11 0 6.065 4.935 11 11 11s11-4.935 11-11c0-6.066-4.935-11-11-11zm0 24c-7.168 0-13-5.832-13-13s5.832-13 13-13c7.169 0 13 5.832 13 13s-5.831 13-13 13zm-85.995-24c-6.065 0-11 4.934-11 11 0 6.065 4.935 11 11 11s11-4.935 11-11c0-6.066-4.935-11-11-11zm0 24c-7.168 0-13-5.832-13-13s5.832-13 13-13 13 5.832 13 13-5.832 13-13 13zm104.995-16h10v-4h-10v4zm-2 2h14v-8h-14v8zm-130.996-2h10v-4h-10v4zm-2 2h14v-8h-14v8z"/><path fill="#DEDEDD" d="M160.498 98.918a7 7 0 1 1 14 0 7 7 0 0 1-14 0m-85.995 0a7 7 0 1 1 14 0 7 7 0 0 1-14 0"/><path fill="#475059" d="M115.504 49.918c-.551 0-1 .448-1 1v22c0 .552.449 1 1 1h20.431l-10.273-22.257a3.01 3.01 0 0 0-2.724-1.743h-7.434zm20.431 26h-20.431c-1.654 0-3-1.346-3-3v-22c0-1.654 1.346-3 3-3h7.434a5.018 5.018 0 0 1 4.541 2.905L137.75 73.08a1.99 1.99 0 0 1-.13 1.916c-.37.577-.999.922-1.685.922zm-38.351-26a.998.998 0 0 0-.882.529L84.206 73.865l23.298.053c.551 0 1-.448 1-1v-22c0-.552-.449-1-1-1h-9.92zm9.92 26H84.175a2 2 0 0 1-1.703-3.048l12.465-23.364a2.995 2.995 0 0 1 2.647-1.588h9.92c1.654 0 3 1.346 3 3v22c0 1.654-1.346 3-3 3z"/><path fill="#475059" d="M192.498 90.923l-.006-1.411c-.005-3.997-2.388-7.638-6.072-9.28-.884-.393-1.873-.65-3.022-.786a146689.1 146689.1 0 0 0-30.017-3.535l-.459-.054-18.475-27.712a4.988 4.988 0 0 0-4.16-2.227H92.9a5.028 5.028 0 0 0-4.288 2.428L72.21 75.683l-10.98 5.49a8.503 8.503 0 0 0-4.727 7.648v2.097h-2v-2.097c0-4.022 2.235-7.638 5.832-9.437l10.46-5.231 16.102-26.837a7.039 7.039 0 0 1 6.003-3.398h37.387a6.986 6.986 0 0 1 5.824 3.117l17.963 26.944c3.121.367 21.359 2.513 29.559 3.481 1.351.16 2.529.469 3.6.945 4.405 1.963 7.253 6.32 7.259 11.101l.006 1.407-2 .01"/><path fill="#475059" d="M189.498 101.918h-11v-3c0-6.066-4.935-11-11-11s-11 4.934-11 11v3H92.503v-3c0-6.066-4.935-11-11-11s-11 4.934-11 11v3h-7a8.967 8.967 0 0 1-7.577-4.142l1.682-1.08a6.98 6.98 0 0 0 5.895 3.222h5v-1c0-7.168 5.832-13 13-13s13 5.832 13 13v1h59.995v-1c0-7.168 5.832-13 13-13 7.169 0 13 5.832 13 13v1h9c1.654 0 3-1.346 3-3h2c0 2.757-2.243 5-5 5m4-14h-6c-6.065 0-11-4.935-11-11h2c0 4.963 4.038 9 9 9h6v2m-40-12h-10.721a3.01 3.01 0 0 1-2.724-1.743l-10.808-23.419a1.993 1.993 0 0 1 .131-1.916c.37-.577.999-.922 1.685-.922h5.438v2h-5.438l10.809 23.419c.162.352.519.581.907.581h10.721v2m-76.671 0h-5.699v-2h5.699l12.885-23.999-3.209-.001v-2h3.209c.71 0 1.352.363 1.717.973s.382 1.347.046 1.973L78.56 74.915c-.396.647-1.033 1.003-1.733 1.003"/><path fill="#5FE0ED" d="M98.183 51.918l-5.336 10h13.657v-10h-8.321M128.162 61.849l-4.315-9.35a1.004 1.004 0 0 0-.908-.581h-6.435v9.931h11.658"/><path fill="#FFD15D" d="M110.504 78.054H82.503v5.913c6.079.403 11.176 4.434 13.134 9.951h14.867V78.054m18.994 15.864c4.962 0 9-4.037 9-9v-6.864h-25.994v15.864h16.994"/><path fill="#48515A" d="M121.649 150.946h9.694l-1.881-13.168 1.034-2.068v-.764h-7.999v.764l1.033 2.068-1.881 13.168zm12 2h-14.306l2.119-14.832-.965-1.931v-3.237h11.999v3.237l-.966 1.931 2.119 14.832z"/><path fill="#FFD15D" d="M110.496 169.007v11.933h31.002l-.001-11.998-11.863-15.815-2.24-15.683.248-.497h-2.292l.249.496-2.25 15.745-12.853 15.819"/><path fill="#48515A" d="M108.497 182.939l35 .001v-14.666l-11.501-15.333h-11.024l-12.475 15.356v14.642zm37 2.001l-39-.001v-17.353l13.523-16.645h12.976l12.501 16.667v17.332z"/><path fill="#48515A" d="M125.497 182.941h2v-10h-2v10zm-2 2h6v-14h-6v14zm12 14h2v-14h-2v14zm-2 2h6v-18h-6v18zm-18-2h2v-14h-2v14zm-2 2h6v-18h-6v18zm13.501-67.97h-2v-4.053c0-2.757 2.243-5 5-5h21.999c1.654 0 3-1.346 3-3s-1.346-3-3-3h-50c-2.757 0-5-2.243-5-5s2.243-5 5-5h20c1.654 0 3-1.346 3-3v-4h2v4c0 2.757-2.243 5-5 5h-20c-1.654 0-3 1.346-3 3s1.346 3 3 3h50c2.757 0 5 2.243 5 5s-2.243 5-5 5h-21.999c-1.655 0-3 1.346-3 3v4.053M84.705 212.354l-1.415-1.415 11.596-11.608v7.074l8.198-8.194 1.415 1.414-11.613 11.606v-7.068l-8.181 8.191M169.291 212.354l-8.204-8.195v7.074l-11.602-11.608 1.415-1.414 8.187 8.192v-7.068l11.617 11.604-1.413 1.415M103.084 153.625l-8.198-8.193v7.073L83.29 140.896l1.415-1.414 8.181 8.191v-7.068l11.613 11.606-1.415 1.414M150.9 153.625l-1.415-1.414 11.602-11.607v7.073l8.204-8.195 1.413 1.414-11.617 11.605v-7.067l-8.187 8.191M213 75.646h2v-4h-2zM213 85.646h2v-4h-2zM217 79.646h4v-2h-4zM207 79.646h4v-2h-4zM35 51.646h2v-4h-2zM35 61.646h2v-4h-2zM39 55.646h4v-2h-4zM29 55.646h4v-2h-4zM57 123.646h2v-4h-2zM57 133.646h2v-4h-2zM61 127.646h4v-2h-4zM51 127.646h4v-2h-4z"/><path fill="#5FE0ED" d="M199 151.646a2 2 0 1 1-3.999.001 2 2 0 0 1 3.999-.001m-138 0a2 2 0 1 1-3.999.001 2 2 0 0 1 3.999-.001m108-111a3 3 0 1 0 6 0 3 3 0 0 0-6 0m-84 142a3 3 0 1 1-6 0 3 3 0 0 1 6 0m112-69a2 2 0 1 0 3.999.001 2 2 0 0 0-3.999-.001m-164 0a2 2 0 1 1-3.999.001 2 2 0 0 1 3.999-.001"/></g></svg>