<?xml version="1.0" encoding="utf-8"?><svg xmlns="http://www.w3.org/2000/svg" xmlns:xlink="http://www.w3.org/1999/xlink" width="192" height="192" viewBox="0 0 192 192"><defs><path id="pua" d="M0 0h106v37.94H0z"/></defs><g fill="none" fill-rule="evenodd"><path fill="#48515A" d="M49.9 6.774a1.406 1.406 0 1 0-.002 2.812 1.406 1.406 0 0 0 .002-2.812zm0 4.813a3.406 3.406 0 1 1-.001-6.813 3.408 3.408 0 0 1 3.408 3.406v.001a3.41 3.41 0 0 1-3.407 3.406zm9.627-4.813a1.406 1.406 0 1 0-.002 2.812 1.406 1.406 0 0 0 .002-2.812zm0 4.813a3.406 3.406 0 1 1-.001-6.813 3.408 3.408 0 0 1 3.408 3.406v.001a3.41 3.41 0 0 1-3.407 3.406zm9.627-4.813a1.406 1.406 0 1 0 0 2.812 1.406 1.406 0 0 0 0-2.812zm0 4.813a3.406 3.406 0 1 1 0-6.813 3.406 3.406 0 0 1 0 6.813z"/><path fill="#DEDEDD" d="M43 15h106V1H43zM170 101.724l-3.396-3.395L170 96.292v-4.975l-23.163-9.927L159.064 111l4.833-9.721 6.103 6.102v-5.657"/><path fill="#5FE0ED" d="M179.02 26a3 3 0 1 1 0 6 3 3 0 0 1 0-6"/><path fill="#DEDEDD" d="M42 111.993V34H23.318L42 111.993M149 111.993V34h18.972L149 111.993M21 114.983v13.157c0 1.329 1.096 2.86 2.425 2.86h144.188c1.33 0 2.387-1.531 2.387-2.86v-12.935l-149-.222"/><path fill="#DEDEDD" d="M79 145h34v-14H79z"/><path fill="#48515A" d="M22 56h-2V36.192a3.242 3.242 0 0 1 3.286-3.197c.046.001.093.002.139.005H42v2H23.425A1.276 1.276 0 0 0 22 36.192V56m145.613 76H23.425c-1.96 0-3.425-2.038-3.425-3.86V92h2v36.14c0 .887.746 1.86 1.425 1.86h144.188c.661 0 1.387-.973 1.387-1.86V36.064a1.4 1.4 0 0 0-1.379-1.415l-18.752.119-.012-2 18.758-.119A3.403 3.403 0 0 1 171 36.064v92.076c0 1.822-1.448 3.86-3.387 3.86M69 146h53v-2H69z"/><path fill="#48515A" d="M78 145h2v-14h-2zM111 145h2v-14h-2zM150 115h-2V2H44v113h-2V0h108v115"/><g transform="translate(30 154)"><mask id="pub" fill="#fff"><use xlink:href="#pua"/></mask><path fill="#DEDEDD" d="M3 1h100a2 2 0 0 1 2 2v32a2 2 0 0 1-2 2H3a2 2 0 0 1-2-2V3a2 2 0 0 1 2-2" mask="url(#pub)"/><path fill="#48515A" d="M3 2c-.552.001-1 .448-1 1v32c.001.552.448.999 1 1h100a1.002 1.002 0 0 0 1-1V3a1.002 1.002 0 0 0-1-1H3zm100 36H3a3.004 3.004 0 0 1-3-3V3a3.004 3.004 0 0 1 3-3h100a3.004 3.004 0 0 1 3 3v32a3.004 3.004 0 0 1-3 3z" mask="url(#pub)"/></g><path fill="#FFF" d="M36 162h6v-2h-6v2zm-2 2h10v-6H34v6zm14-2h2v-2h-2v2zm-2 2h6v-6h-6v6zm10-2h2v-2h-2v2zm-2 2h6v-6h-6v6zm10-2h2v-2h-2v2zm-2 2h6v-6h-6v6zm10-2h2v-2h-2v2zm-2 2h6v-6h-6v6zm10-2h2v-2h-2v2zm-2 2h6v-6h-6v6zm10-2h2v-2h-2v2zm-2 2h6v-6h-6v6zm10-2h2v-2h-2v2zm-2 2h6v-6h-6v6zm10-2h2v-2h-2v2zm-2 2h6v-6h-6v6zm10-2h2v-2h-2v2zm-2 2h6v-6h-6v6zm10-2h2v-2h-2v2zm-2 2h6v-6h-6v6zm10-2h2v-2h-2v2zm-2 2h6v-6h-6v6zm-90 6h2v-2h-2v2zm-2 2h6v-6h-6v6zm10-2h2v-2h-2v2zm-2 2h6v-6h-6v6zm10-2h2v-2h-2v2zm-2 2h6v-6h-6v6zm10-2h2v-2h-2v2zm-2 2h6v-6h-6v6zm10-2h2v-2h-2v2zm-2 2h6v-6h-6v6zm10-2h2v-2h-2v2zm-2 2h6v-6h-6v6zm10-2h2v-2h-2v2zm-2 2h6v-6h-6v6zm10-2h2v-2h-2v2zm-2 2h6v-6h-6v6zm10-2h2v-2h-2v2zm-2 2h6v-6h-6v6zm10-2h2v-2h-2v2zm-2 2h6v-6h-6v6zm10-2h2v-2h-2v2zm-2 2h6v-6h-6v6zm10-2h6v-2h-6v2zm-2 2h10v-6h-10v6zm-86 6h6v-2h-6v2zm-2 2h10v-6H34v6zm14-2h2v-2h-2v2zm-2 2h6v-6h-6v6zm10-2h2v-2h-2v2zm-2 2h6v-6h-6v6zm10-2h2v-2h-2v2zm-2 2h6v-6h-6v6zm10-2h2v-2h-2v2zm-2 2h6v-6h-6v6zm10-2h2v-2h-2v2zm-2 2h6v-6h-6v6zm10-2h2v-2h-2v2zm-2 2h6v-6h-6v6zm10-2h2v-2h-2v2zm-2 2h6v-6h-6v6zm10-2h2v-2h-2v2zm-2 2h6v-6h-6v6zm10-2h2v-2h-2v2zm-2 2h6v-6h-6v6zm10-2h2v-2h-2v2zm-2 2h6v-6h-6v6zm10-2h2v-2h-2v2zm-2 2h6v-6h-6v6zm-90 6h2v-2h-2v2zm-2 2h6v-6h-6v6zm10-2h2v-2h-2v2zm-2 2h6v-6h-6v6zm10-2h2v-2h-2v2zm-2 2h6v-6h-6v6zm10-2h2v-2h-2v2zm-2 2h6v-6h-6v6zm10-2h38v-2H68v2zm-2 2h42v-6H66v6zm46-2h2v-2h-2v2zm-2 2h6v-6h-6v6zm10-2h2v-2h-2v2zm-2 2h6v-6h-6v6zm10-2h2v-2h-2v2zm-2 2h6v-6h-6v6z"/><path fill="#48515A" d="M80 154v-.008A5.02 5.02 0 0 1 85.039 149h85.011a3 3 0 1 0 0-6h-32a5.035 5.035 0 0 1-5.05-5.008V130h2v7.992a3.033 3.033 0 0 0 3.05 3.008h32a5 5 0 0 1 0 10H85.039A3.02 3.02 0 0 0 82 153.992L80 154"/><path fill="#DEDEDD" d="M150 158h12a4 4 0 0 1 4 4v22a4 4 0 0 1-4 4h-12a4 4 0 0 1-4-4v-22a4 4 0 0 1 4-4"/><path fill="#48515A" d="M155 166h2v-8h-2z"/><path fill="#48515A" d="M150 159a3.004 3.004 0 0 0-3 3v22a3.004 3.004 0 0 0 3 3h12a3.004 3.004 0 0 0 3-3v-22a3.004 3.004 0 0 0-3-3h-12zm12 30h-12a5.006 5.006 0 0 1-5-5v-22a5.006 5.006 0 0 1 5-5h12a5.006 5.006 0 0 1 5 5v22a5.006 5.006 0 0 1-5 5z"/><path fill="#FFF" d="M164.831 83.384l-28-12 12.227 29.609 4.834-9.72 8.11 8.111 2.829-2.829-8.232-8.232 8.232-4.939"/><path fill="#48515A" d="M138.691 73.269l10.452 25.309 4.472-8.996 8.387 8.388 1.415-1.415-8.432-8.431 7.655-4.591-23.949-10.264zm10.284 30.14l-14.004-33.911 32.051 13.737-8.811 5.286 8.034 8.034-4.243 4.243-7.834-7.835-5.193 10.446z"/><path fill="#FFF" d="M76.424 111H9.023a3.918 3.918 0 0 0-3.999 3.835l-.001.068v.048a4.042 4.042 0 0 0 4 4.049h67.401l8.675-4-8.675-4"/><path fill="#48515A" d="M9.023 112a2.921 2.921 0 0 0-2.999 2.841l-.001.062A3.04 3.04 0 0 0 9.004 118H76.205l6.506-3-6.506-3H9.023zm67.622 8H9.023a5.03 5.03 0 0 1-5-5.048 4.911 4.911 0 0 1 5-4.952h67.622l10.841 5-10.841 5z"/><path fill="#48515A" d="M15 119h2v-8h-2z"/><path fill="#48515A" d="M16 116h60v-2H16zM17.021 15a2 2 0 1 0-.001 3.999A2 2 0 0 0 17.02 15zm0 6a4 4 0 1 1-.001-8 4 4 0 0 1 .001 8z"/><path fill="#FFD15D" d="M19.02 138a5 5 0 1 1 0 10 5 5 0 0 1 0-10"/><path fill="#48515A" d="M184 158h2v-4h-2zM184 168h2v-4h-2zM188 162h4v-2h-4zM178 162h4v-2h-4zM6 40h2v-4H6zM6 50h2v-4H6zM10 44h4v-2h-4zM0 44h4v-2H0z"/><path fill="#475059" d="M18.912 88.068h3.577l1.775-4.023 3.295-1.902 4.371.475 1.789-3.099-2.597-3.548v-3.805l2.597-3.548-1.789-3.099-4.371.475-3.295-1.902-1.775-4.024h-3.577l-1.774 4.024-3.296 1.902-4.371-.475-1.789 3.099 2.596 3.548v3.805l-2.596 3.548 1.789 3.099 4.371-.476 3.296 1.903 1.774 4.023zm4.882 2h-6.187l-2.036-4.618-2.163-1.249-5.017.546-3.094-5.357 2.981-4.073v-2.498l-2.981-4.072 3.094-5.357 5.017.546 2.163-1.249 2.036-4.619h6.187l2.036 4.619 2.162 1.249 5.018-.546 3.093 5.357-2.981 4.072v2.498l2.981 4.073-3.093 5.357-5.018-.546-2.162 1.249-2.036 4.618z"/><path fill="#475059" d="M20.7 72.068a2 2 0 1 0 .001 4.001 2 2 0 0 0-.001-4.001zm0 6a4 4 0 1 1 0-8 4 4 0 0 1 0 8z"/><path fill="#475059" d="M20.7 68.068a6 6 0 1 0 6 6 6.007 6.007 0 0 0-6-6zm0 14a8 8 0 1 1 0-16 8 8 0 0 1 8 8 8.01 8.01 0 0 1-8 8z"/><path fill="#48515A" d="M65.774 81.498l12.729 12.728 17.678-17.677 17.676 17.677 12.729-12.728-17.678-17.678 17.678-17.677-12.729-12.729-17.676 17.678-17.678-17.678-12.729 12.729L83.452 63.82 65.774 81.498zm48.083 15.557L96.181 79.377 78.503 97.055 62.946 81.498 80.624 63.82 62.946 46.143l15.557-15.557 17.678 17.678 17.676-17.678 15.557 15.557-17.678 17.677 17.678 17.678-15.557 15.557z"/><path fill="#F58E70" d="M68.603 81.498l9.9 9.9L96.181 73.72l17.676 17.678 9.901-9.9L106.08 63.82l17.678-17.677-9.901-9.9L96.181 53.92 78.503 36.243l-9.9 9.9L86.28 63.82 68.603 81.498"/></g></svg>