<?xml version="1.0" encoding="utf-8"?><svg xmlns="http://www.w3.org/2000/svg" width="192" height="164" viewBox="0 0 192 164"><g fill="none" fill-rule="evenodd"><path fill="#DFE0E0" d="M187.59 19.944V8.883a1 1 0 0 0-1-1h-76a1 1 0 0 0-1 1v9.101h-.046v9.942h2v-7.982h74.045v125.812h-74.045v-26.802h-2v34.699h.046V159c0 .552.448.999 1 1h76c.552-.001 1-.448 1-1v-13.244h-.001V19.944h.001"/><path fill="#FFD15D" d="M77.992 24.144c-22.504.11-41.227 17.327-43.221 39.742l-.195 2.341-2.319.373c-12.158 1.969-20.418 13.422-18.448 25.58 1.75 10.799 11.074 18.735 22.014 18.735h84.338c15.109.002 27.36-12.245 27.361-27.355.002-14.421-11.191-26.367-25.582-27.304l-2.035-.13-.627-1.941c-5.756-17.933-22.452-30.082-41.286-30.041M15.008 53.44a2 2 0 1 1 0 4 2 2 0 0 1 0-4"/><path fill="#FFD15D" d="M15.008 53.94a1.5 1.5 0 1 0 0 3 1.5 1.5 0 0 0 0-3zm0 4a2.5 2.5 0 1 1 0-5 2.5 2.5 0 0 1 0 5z"/><path fill="#475059" d="M11.522 88.614h-2c-.053-12.63 8.921-23.495 21.333-25.829 2.618-26.037 25.848-45.021 51.884-42.403a47.382 47.382 0 0 1 40.134 31.933 31.3 31.3 0 0 1 19.56 9.165l-1.42 1.408a29.3 29.3 0 0 0-18.945-8.627l-.678-.044-.209-.647c-7.707-23.849-33.289-36.935-57.138-29.227a45.383 45.383 0 0 0-31.266 39.378l-.064.78-.774.124c-11.795 1.859-20.467 12.048-20.417 23.989m108.639 26.301h-15.569v-2h17.516a29.475 29.475 0 0 0 13.65-4.405l1.06 1.695a31.508 31.508 0 0 1-14.645 4.708l-2.012.002M34.561 114.915h40.03v-2h-40.03zM15.551 120.94h3.578l1.774-4.023 3.296-1.903 4.371.476 1.788-3.1-2.597-3.547v-3.806l2.597-3.547-1.788-3.1-4.371.476-3.296-1.902-1.774-4.024h-3.578l-1.774 4.024-3.296 1.902-4.371-.476-1.788 3.1 2.597 3.547v3.806l-2.597 3.547 1.788 3.1 4.371-.476 3.296 1.903 1.774 4.023zm4.882 2h-6.186l-2.036-4.618-2.163-1.249-5.018.545-3.093-5.356 2.982-4.073v-2.498l-2.982-4.073 3.093-5.356 5.018.545 2.163-1.249 2.036-4.618h6.186l2.036 4.618 2.163 1.249 5.018-.545 3.093 5.356-2.982 4.073v2.498l2.982 4.072-3.093 5.357-5.017-.545-2.164 1.249-2.036 4.618z"/><path fill="#475059" d="M17.34 104.94a2 2 0 1 0 0 4 2 2 0 0 0 0-4zm0 6a4 4 0 1 1 0-8 4 4 0 0 1 0 8z"/><path fill="#475059" d="M17.34 100.94a6 6 0 1 0 6 6 6.007 6.007 0 0 0-6-6zm0 14a8 8 0 0 1-8-8 8 8 0 1 1 16 0 8.01 8.01 0 0 1-8 8z"/><path fill="#5FE0ED" d="M87.027.895a4 4 0 1 1 0 8 4 4 0 0 1 0-8"/><path fill="#48515A" d="M171.983 55.941h2v-4h-2zM171.983 65.941h2v-4h-2zM175.983 59.941h4v-2h-4zM165.983 59.941h4v-2h-4zM63.929 143.935h2v-4h-2zM63.929 153.935h2v-4h-2zM67.929 147.935h4v-2h-4zM57.929 147.935h4v-2h-4z"/><path fill="#475059" d="M186.59 164h-76a5.005 5.005 0 0 1-5-5v-40.047h2V159a3.002 3.002 0 0 0 3 3h76a3.004 3.004 0 0 0 3-3V8.883a3.003 3.003 0 0 0-3-3h-76a3.002 3.002 0 0 0-3 3v19.043h-2V8.883a5.005 5.005 0 0 1 5-5h76a5.006 5.006 0 0 1 5 5V159a5.006 5.006 0 0 1-5 5"/><path fill="#475059" d="M142.59 15.942h12v-2h-12zM146.59 149.94c-.552.001-1 .448-1 1v4a1 1 0 0 0 1 1h4c.552 0 .999-.448 1-1v-4a1.002 1.002 0 0 0-1-1h-4zm4 8h-4a3.002 3.002 0 0 1-3-3v-4a3.002 3.002 0 0 1 3-3h4a3.004 3.004 0 0 1 3 3v4a3.004 3.004 0 0 1-3 3zM146.593 11.939h3.995v-2h-3.995z"/><path fill="#475059" d="M186.59 164h-76a5.005 5.005 0 0 1-5-5v-40.047h2V159a3.002 3.002 0 0 0 3 3h76a3.004 3.004 0 0 0 3-3V8.883a3.003 3.003 0 0 0-3-3h-76a3.002 3.002 0 0 0-3 3v19.043h-2V8.883a5.005 5.005 0 0 1 5-5h76a5.006 5.006 0 0 1 5 5V159a5.006 5.006 0 0 1-5 5"/><path fill="#475059" d="M142.59 15.942h12v-2h-12zM169.57 87.709l-1.998-.099a20.376 20.376 0 0 0-5.931-15.393c-7.94-7.94-20.814-7.941-28.754 0l-1.415-1.414c8.723-8.721 22.864-8.721 31.585.002a22.332 22.332 0 0 1 6.513 16.904m-22.306 21.22c-12.043-.001-21.918-9.55-22.321-21.587l1.998-.067c.376 11.224 9.78 20.018 21.004 19.642a20.334 20.334 0 0 0 13.697-5.944l1.414 1.414a22.191 22.191 0 0 1-15.792 6.542"/><path fill="#475059" d="M168.589 90.342l-4.707-4.707 1.414-1.414 3.293 3.293 3.293-3.293 1.414 1.414-4.707 4.707M129.298 91.637l-3.293-3.293-3.293 3.293-1.414-1.414 4.707-4.707 4.707 4.707-1.414 1.414M78.591 128.941h22v-20.586l-7.415-7.414H78.591v28zm24 2h-26v-32h17.414l8.586 8.586v23.414z"/><path fill="#475059" d="M101.591 108.941h-9v-9h2v7h7v2"/><path fill="#DFE0E0" d="M2 85.459a2 2 0 1 1 0 4 2 2 0 0 1 0-4"/></g></svg>