<?xml version="1.0" encoding="utf-8"?><svg xmlns="http://www.w3.org/2000/svg" width="250" height="250" viewBox="0 0 250 250"><g fill="none" fill-rule="evenodd"><path fill="#75C7D0" d="M149 104.601c0-12.672-4.453-24.299-11.871-33.418C114.079 76.935 97 97.77 97 122.601c0 12.665 4.449 24.288 11.861 33.405C131.914 150.259 149 129.434 149 104.601"/><path fill="#DDDED9" d="M161 116.601c0-17.699-8.684-33.36-22.014-42.986A52.741 52.741 0 0 1 149 104.601c0 24.831-17.079 45.666-40.129 51.418a53.259 53.259 0 0 0 13.261 11.662c22.407-6.187 38.868-26.705 38.868-51.08"/><path fill="#434A4F" d="M92.159 52.756a52.089 52.089 0 0 1 3.659-.155c14.393-.045 27.8 5.661 37.75 16.068l1.445-1.382c-10.332-10.807-24.255-16.732-39.201-16.686a54.699 54.699 0 0 0-4.324.202c.254.636.478 1.287.671 1.953m47.533 20.132l-1.617 1.176c6.445 8.87 9.871 19.374 9.905 30.375.087 28.081-21.815 50.968-49.862 52.106a.994.994 0 0 0-.787.438c-5.188 7.649-13.736 12.27-22.918 12.409 4.745-2.694 7.945-7.802 7.927-13.636v-.222a.999.999 0 0 0-.725-.957c-22.087-6.34-37.563-26.823-37.635-49.814-.038-12.488 4.354-23.974 11.69-32.972a20.942 20.942 0 0 1-1.214-1.664c-7.819 9.403-12.517 21.485-12.476 34.642.074 23.62 15.806 44.692 38.352 51.514-.252 7.266-6.23 13.112-13.562 13.135a1 1 0 1 0 .006 2l7.307-.023c9.803-.03 18.967-4.833 24.616-12.875 28.886-1.431 51.371-25.094 51.281-54.088-.036-11.424-3.593-22.331-10.288-31.544"/><path fill="#434A4F" d="M181.278 188.601h-7.305c-9.411 0-18.369-4.477-24.072-12-15.016-.028-29.459-6.379-39.637-17.434l1.472-1.355c9.822 10.67 23.769 16.789 38.264 16.789l.389-.01c.31-.001.625.149.815.41 5.241 7.172 13.607 11.49 22.432 11.598-4.753-2.68-7.97-7.777-7.97-13.611 0-.432.276-.89.686-1.026A51.91 51.91 0 0 0 202 122.601a51.759 51.759 0 0 0-3.609-19.074 50.784 50.784 0 0 0-29.357-29.176l-4.388-1.663c-5.713-1.68-11.747-2.359-17.855-1.991-26.718 1.603-48.144 23.849-48.776 50.645-.271 11.464 3.117 22.413 9.796 31.664l-1.622 1.17c-6.937-9.607-10.455-20.978-10.173-32.881.656-27.827 22.907-50.93 50.656-52.594 6.344-.379 12.603.324 18.61 2.093l4.461 1.687a52.78 52.78 0 0 1 30.511 30.319A53.74 53.74 0 0 1 204 122.601a53.904 53.904 0 0 1-36.316 51.021c.368 7.25 6.325 12.979 13.594 12.979a1 1 0 1 1 0 2M71 91.601c-6.065 0-11 4.934-11 11 0 6.065 4.935 11 11 11s11-4.935 11-11c0-6.066-4.935-11-11-11zm0 24c-7.169 0-13-5.832-13-13 0-7.169 5.831-13 13-13s13 5.831 13 13c0 7.168-5.831 13-13 13z"/><path fill="#434A4F" d="M82.5 115.101a.997.997 0 0 1-.707-.293l-6-6a.999.999 0 1 1 1.414-1.414l6 6a.999.999 0 0 1-.707 1.707m104.501 23.5a1 1 0 0 1-.911-.586L177 118.017l-9.09 19.998a.996.996 0 0 1-1.324.496 1 1 0 0 1-.496-1.324l10-22a.998.998 0 0 1 1.82 0l10 22a1 1 0 0 1-.909 1.414"/><path fill="#434A4F" d="M183 130.601h-12a1 1 0 1 1 0-2h12a1 1 0 1 1 0 2m20.557-46.396l-1.957-.41c3.09-14.746.924-26.341-6.265-33.53l1.414-1.414c7.69 7.69 10.044 19.915 6.808 35.354"/><path fill="#42494E" d="M89.198 64.085l-1.902-.62.33-1.01-1.275-.416a3.616 3.616 0 0 1-2.533-3.492 3.615 3.615 0 0 1 2.539-3.488l1.277-.414-.7-2.161-1.276.413a3.615 3.615 0 0 1-4.102-1.337 3.614 3.614 0 0 1 .004-4.315l.789-1.084-1.837-1.337-.789 1.084a3.614 3.614 0 0 1-4.105 1.329 3.617 3.617 0 0 1-2.532-3.493l.001-1.341-2.272-.002-.001 1.341a3.616 3.616 0 0 1-2.539 3.488c-1.542.501-3.152-.025-4.103-1.337l-.787-1.086-1.839 1.333.787 1.086a3.617 3.617 0 0 1-.004 4.315c-.953 1.309-2.563 1.833-4.105 1.329l-1.275-.416-.329 1.011-1.902-.621.95-2.911 3.176 1.035c.849.279 1.523-.129 1.868-.605.345-.474.527-1.238.002-1.963l-1.961-2.705 5.078-3.681 1.96 2.705c.526.724 1.308.789 1.868.608.558-.18 1.154-.693 1.155-1.587l.003-3.341 6.272.006-.003 3.341c-.001.895.595 1.408 1.152 1.59.558.18 1.342.117 1.868-.605l1.967-2.701 5.07 3.691-1.966 2.701c-.527.724-.346 1.489-.002 1.963.344.475 1.015.884 1.867.609l3.178-1.029 1.932 5.967-3.178 1.029c-.851.276-1.155 1.001-1.156 1.588 0 .586.302 1.312 1.153 1.589l3.176 1.036-.949 2.911"/><path fill="#E9886C" d="M79.994 61.162l-1.901-.62c.536-1.645.4-3.4-.384-4.942a6.434 6.434 0 0 0-3.767-3.222 6.428 6.428 0 0 0-4.941.384 6.43 6.43 0 0 0-3.223 3.766l-1.901-.62a8.422 8.422 0 0 1 4.218-4.929 8.413 8.413 0 0 1 6.467-.503 8.427 8.427 0 0 1 4.93 4.218 8.42 8.42 0 0 1 .502 6.468"/><path fill="#E9886C" d="M71.967 66.946c-.884 0-1.772-.14-2.637-.422a8.425 8.425 0 0 1-4.929-4.218 8.42 8.42 0 0 1-.502-6.468l1.902.62c-.536 1.645-.4 3.4.384 4.942a6.432 6.432 0 0 0 3.765 3.223 6.43 6.43 0 0 0 4.942-.384 6.434 6.434 0 0 0 3.223-3.766l1.902.62a8.427 8.427 0 0 1-4.219 4.929 8.436 8.436 0 0 1-3.831.924"/><path fill="#42494E" d="M75.075 76.602l-6.272-.007.003-3.341c.001-.894-.594-1.408-1.152-1.589-.559-.184-1.342-.119-1.868.604l-1.967 2.701-5.07-3.692 1.967-2.701c.527-.723.346-1.488.002-1.963-.345-.475-1.017-.883-1.866-.609l-3.18 1.029-1.931-5.967 3.178-1.029c.851-.276 1.155-1 1.156-1.587.001-.586-.302-1.312-1.152-1.589l-3.177-1.036 1.067-3.271 1.901.62-.446 1.37 1.275.415a3.614 3.614 0 0 1 2.532 3.493 3.616 3.616 0 0 1-2.539 3.488l-1.277.413.7 2.162 1.276-.413a3.614 3.614 0 0 1 4.102 1.337 3.617 3.617 0 0 1-.004 4.315l-.79 1.084 1.837 1.337.789-1.084a3.616 3.616 0 0 1 4.105-1.329 3.614 3.614 0 0 1 2.532 3.493l-.001 1.341 2.272.003.001-1.342a3.616 3.616 0 0 1 2.54-3.487 3.615 3.615 0 0 1 4.102 1.337l.787 1.087 1.84-1.334-.787-1.086a3.614 3.614 0 0 1 .004-4.314 3.62 3.62 0 0 1 4.105-1.329l1.275.416.494-1.517 1.901.621-1.114 3.417-3.177-1.036c-.849-.278-1.522.13-1.867.605-.346.474-.527 1.239-.002 1.963l1.961 2.705-5.079 3.681-1.96-2.705c-.526-.725-1.31-.789-1.867-.608-.558.18-1.155.692-1.156 1.586l-.003 3.342"/><path fill="#FACD60" d="M75.892 58.6a4 4 0 1 1-8 0 4 4 0 0 1 8 0"/><path fill="#FACD60" d="M71.893 55.1c-1.93 0-3.5 1.571-3.5 3.5 0 1.93 1.57 3.5 3.5 3.5 1.929 0 3.5-1.57 3.5-3.5 0-1.929-1.571-3.5-3.5-3.5zm0 8a4.504 4.504 0 0 1-4.5-4.5c0-2.481 2.018-4.5 4.5-4.5 2.481 0 4.5 2.019 4.5 4.5 0 2.482-2.019 4.5-4.5 4.5zM43 75.601a2 2 0 1 1-4 0 2 2 0 0 1 4 0m150 104a4 4 0 1 1 8 0 4 4 0 0 1-8 0m-50 18a2 2 0 1 1 3.999-.001 2 2 0 0 1-3.999.001"/><path fill="#434A4F" d="M35 135.601h2v-4h-2zM35 145.601h2v-4h-2zM39 139.601h4v-2h-4zM29 139.601h4v-2h-4zM125 199.601h2v-4h-2zM125 209.601h2v-4h-2zM129 203.601h4v-2h-4zM119 203.601h4v-2h-4z"/><path fill="#FACD60" d="M213 133.601a4 4 0 1 1 8 0 4 4 0 0 1-8 0"/><path fill="#434A4F" d="M202 88.601c-.13 0-.26-.03-.38-.08-.12-.051-.23-.12-.33-.21-.181-.19-.29-.45-.29-.71 0-.26.109-.52.29-.71.1-.091.21-.16.33-.211a1 1 0 0 1 1.09.211c.18.19.29.45.29.71 0 .26-.11.52-.29.71-.19.18-.44.29-.71.29m-148.3 48.63a.994.994 0 0 1-.48-1.33 1 1 0 0 1 1.33-.481c.5.231.71.83.48 1.33a1 1 0 0 1-.91.571c-.14 0-.28-.031-.42-.09zm-1.6 3.66a.992.992 0 0 1-.53-1.311.994.994 0 0 1 1.31-.519c.51.21.75.8.53 1.309a.99.99 0 0 1-.92.601.925.925 0 0 1-.39-.08zm-1.48 3.72a.993.993 0 0 1-.57-1.29c.2-.52.78-.77 1.29-.571.52.2.77.771.57 1.29a.99.99 0 0 1-1.29.571zm-1.34 3.77c-.52-.181-.8-.75-.62-1.27.18-.52.75-.8 1.27-.621.52.18.8.75.62 1.271-.14.409-.53.67-.95.67-.1 0-.21-.011-.32-.05zm-1.19 3.819a.993.993 0 0 1-.67-1.24c.16-.529.72-.829 1.25-.67.52.151.83.71.67 1.241a1.005 1.005 0 0 1-1.25.669zm-1.01 3.871c-.53-.13-.86-.68-.73-1.21.14-.54.68-.861 1.22-.73.53.13.86.68.72 1.21a.992.992 0 0 1-1.21.73zm-.81 3.919a.995.995 0 0 1-.79-1.179h-.01c.11-.54.64-.891 1.18-.79.54.11.89.63.79 1.179-.1.47-.51.8-.98.8-.07 0-.13 0-.19-.01zm-.6 3.951c-.54-.071-.93-.58-.86-1.12a1.004 1.004 0 0 1 1.99.259c-.07.5-.5.87-.99.87-.05 0-.09 0-.14-.009zm-.33 3.99a1.003 1.003 0 0 1 .13-2c.55.04.97.51.93 1.069a.99.99 0 0 1-1 .931h-.06zm-1.05 3.01c0-.55.44-1.01.99-1.01a.987.987 0 0 1 1.01.979.998.998 0 0 1-.98 1.021h-.01c-.55 0-1-.441-1.01-.99zm.24 4.08c-.06-.55.34-1.04.89-1.101.55-.05 1.04.351 1.1.901a.996.996 0 0 1-.89 1.089c-.04.01-.07.01-.11.01a.99.99 0 0 1-.99-.899z"/><path fill="#42494E" d="M68.045 184.184a5.742 5.742 0 0 1-.212 2h3.188v18.084H38.937v-18.084h3.313a5.74 5.74 0 0 1-.209-2h-5.104v22.084h36.084v-22.084h-4.976"/><path fill="#42494E" d="M42.938 200.268h10.648l1.432 1.562 1.594-1.562h10.409v-18.084h-9.592l-2.465 2.414-2.364-2.414h-9.662v18.084zm12.002 4.437l-2.234-2.437H40.937v-22.084h12.504l1.553 1.586 1.618-1.586h12.409v22.084H57.429l-2.489 2.437z"/><path fill="#42494E" d="M44.833 186.268h6.125v-2h-6.125zM44.833 190.268h6.125v-2h-6.125zM44.833 194.268h6.125v-2h-6.125zM58.834 186.268h6.125v-2h-6.125zM58.834 190.268h6.125v-2h-6.125zM58.834 194.268h6.125v-2h-6.125zM53.979 196.268h2v-9.813h-2zM44.833 198.268h6.125v-2h-6.125zM58.834 198.268h6.125v-2h-6.125z"/><path fill="#434A4F" d="M142.75 48.131c-.51.22-.75.81-.521 1.319a1.002 1.002 0 0 0 1.311.52 1 1 0 0 0 .52-1.319.994.994 0 0 0-1.31-.52m19.189-6.201c-.54.111-.889.641-.779 1.181a1.004 1.004 0 0 0 1.18.78c.54-.111.889-.64.78-1.18-.11-.54-.641-.89-1.181-.781m-22.87 7.861a1.004 1.004 0 0 0 .431 1.909 1 1 0 0 0 .899-1.429c-.229-.5-.83-.71-1.33-.48M158 42.831h-.01a1.01 1.01 0 0 0-.72 1.219c.12.451.52.75.97.75a.998.998 0 0 0 .97-1.239 1.004 1.004 0 0 0-1.21-.73m-3.9 1.099a.993.993 0 0 0-.67 1.241 1.013 1.013 0 0 0 1.25.67c.53-.161.83-.72.67-1.25a.99.99 0 0 0-1.25-.661m-25.72 11.481c-.481.28-.64.889-.37 1.369.19.321.52.5.87.5.17 0 .34-.049.5-.139.479-.27.64-.89.36-1.361a.998.998 0 0 0-1.36-.369m7.07-3.85c-.49.25-.68.86-.43 1.35.169.349.52.55.89.55a1.01 1.01 0 0 0 .89-1.46 1.01 1.01 0 0 0-1.35-.44m-10.53 5.909a1.007 1.007 0 0 0 .52 1.861c.18 0 .36-.051.53-.151.469-.289.61-.909.33-1.38-.29-.469-.91-.62-1.38-.33m6.97-4.029a.99.99 0 0 0-.4 1.359c.18.331.52.521.88.521.16 0 .319-.041.48-.121.48-.27.66-.869.4-1.359a1.014 1.014 0 0 0-1.36-.4m38.089-12.64a.997.997 0 0 0-.919 1.07c.04.52.48.92 1 .92h.07c.55-.04.96-.52.92-1.071a.99.99 0 0 0-1.071-.919m22.201 5.6a.994.994 0 0 0 .23 1.39c.18.13.38.19.58.19.31 0 .619-.15.82-.42.32-.45.21-1.08-.241-1.4a.994.994 0 0 0-1.389.24m-14.04-5.57a.998.998 0 0 0-1.09.9c-.05.549.36 1.04.91 1.09h.09c.51 0 .95-.391.99-.91a.99.99 0 0 0-.9-1.08m8.049 1.63a.997.997 0 0 0-1.269.63 1.009 1.009 0 0 0 .95 1.32 1.003 1.003 0 0 0 .319-1.95m10.561 6.39a1.008 1.008 0 0 0-1.42 0 .993.993 0 0 0 0 1.409c.2.201.46.301.71.301.26 0 .51-.1.71-.29.39-.4.39-1.03 0-1.42m-6.74-4.821a.994.994 0 0 0-1.34.451c-.25.489-.04 1.09.45 1.34.14.07.3.1.449.1a.994.994 0 0 0 .891-.55.992.992 0 0 0-.45-1.341m-15.96-3.389c-.55 0-1 .45-1 1s.45 1 1 1 1-.441 1-1c0-.55-.45-1-1-1m8.15.77a1 1 0 0 0-1.18.789 1.007 1.007 0 0 0 .98 1.191c.47 0 .89-.33.979-.8a.995.995 0 0 0-.779-1.18m-16.261-.17a1 1 0 1 0 .141 1.99c.05 0 .1 0 .14-.011a.993.993 0 0 0 .849-1.129.994.994 0 0 0-1.13-.85m-18.774 7.218a1.892 1.892 0 0 1 .146-1.805 1.908 1.908 0 0 1 1.599-.872 1.908 1.908 0 0 1 1.808 1.325c.06.185.101.379.101.584a1.91 1.91 0 0 1-1.909 1.909c-.779 0-1.449-.47-1.745-1.141zm1.745-4.677a3.913 3.913 0 0 0-3.909 3.909 3.913 3.913 0 0 0 3.909 3.909 3.913 3.913 0 0 0 3.909-3.909 3.913 3.913 0 0 0-3.909-3.909zm-39.299 146.443c-12.584 5.978-24.485 9.157-34.528 9.109v1.893l.074.002c10.415 0 22.672-3.281 35.573-9.415-.455-.462-.832-1-1.119-1.589m53.241-34.007l-5.555-3.307 7.356-4.012-1.801 7.319zm-9.644-3.354l4.328 2.781c-12.074 11.934-24.872 21.712-37.334 28.975a5.94 5.94 0 0 1 .688 1.851c12.916-7.454 26.155-17.561 38.588-29.934l4.67 2.781 3.533-14.349-14.473 7.895z"/><path fill="#434A4F" d="M115 182.601c-2.757 0-5 2.243-5 5s2.243 5 5 5 5-2.243 5-5-2.243-5-5-5zm0 12c-3.86 0-7-3.141-7-7 0-3.86 3.14-7 7-7s7 3.14 7 7c0 3.859-3.14 7-7 7z"/></g></svg>