<?xml version="1.0" encoding="utf-8"?><svg xmlns="http://www.w3.org/2000/svg" width="250" height="250" viewBox="0 0 250 250"><g fill="none" fill-rule="evenodd"><path fill="#48515A" d="M66.564 163.247h2v-4h-2zM66.564 173.247h2v-4h-2zM70.564 167.247h4v-2h-4zM60.564 167.247h4v-2h-4z"/><path fill="#FFD15D" d="M180.528 105.241a2 2 0 1 1-4 0 2 2 0 0 1 4 0M58.552 125.253a2 2 0 1 1-4 0 2 2 0 0 1 4 0"/><path fill="#5FE0ED" d="M90.563 198.251a2 2 0 1 1-4 0 2 2 0 0 1 4 0"/><path fill="#48515A" d="M164.516 182.239h2v-4h-2zM164.516 192.239h2v-4h-2zM168.516 186.239h4v-2h-4zM158.516 186.239h4v-2h-4zM126.493 32.583L95.811 62.587c-4.979 4.979-7.725 11.609-7.725 18.66 0 7.052 2.746 13.681 7.733 18.668l30.688 30.612 29.918-29.996c4.987-4.987 7.733-11.617 7.734-18.668 0-7.052-2.746-13.682-7.732-18.668l-29.934-30.612zm.018 100.772L94.406 101.33c-5.366-5.365-8.32-12.497-8.32-20.083 0-7.586 2.954-14.718 8.319-20.082l32.12-31.41 31.324 32.033c5.356 5.357 8.31 12.489 8.31 20.075-.001 7.586-2.955 14.717-8.319 20.081l-31.329 31.411z"/><path fill="#5FE0ED" d="M102.509 83.864h-2v-2h2c10.331 0 19.195 6.311 22.999 15.27V80.298c-.006-9.622-7.836-17.449-17.461-17.449h-1.538v-2h1.538c7.671 0 14.295 4.473 17.461 10.937V36.343L97.209 64.016c-4.585 4.585-7.123 10.713-7.123 17.231a24.242 24.242 0 0 0 7.147 17.254l28.275 28.205V106.84c-.013-12.672-10.324-22.976-22.999-22.976m52.504-19.256l-27.505-28.126v35.097c3.152-6.506 9.81-11.01 17.511-11.01v2c-9.628 0-17.461 7.833-17.461 17.461v1.539h-.05v15.567c3.804-8.961 12.669-15.273 23.001-15.273v2c-12.683 0-23 10.317-23 23v2h-.001v17.827l27.502-27.571c9.516-9.517 9.516-24.996.003-34.511"/><path fill="#48515A" d="M125.509 153.251h2v-21.31h-2zM130.353 135.57l13.336 13.302c4.497 4.497 11.814 4.498 16.311.001l13.618-13.316-13.344-13.647c-4.49-4.49-11.808-4.488-16.303.008l-13.618 13.652zm21.495 18.675a13.49 13.49 0 0 1-9.572-3.958l-14.751-14.713 15.031-15.069c5.277-5.278 13.862-5.278 19.14-.001l14.751 15.084-15.04 14.707a13.477 13.477 0 0 1-9.559 3.95z"/><path fill="#5FE0ED" d="M153.532 126.062l2-.017v.017c0 3.372-1.63 6.364-4.138 8.249h18.209l-10.759-11.002c-3.692-3.693-9.741-3.692-13.459.022l-10.951 10.98h11.89c4.063-.553 7.208-4.036 7.208-8.249m-2.128 10.415c2.511 1.885 4.142 4.878 4.142 8.252l-2 .016v-.016c0-4.22-3.156-7.71-7.231-8.252h-12.219l11.005 10.978c3.723 3.721 9.768 3.72 13.485.004l11.23-10.982h-18.412"/><path fill="#48515A" d="M79.322 135.557l13.611 13.308c4.504 4.504 11.82 4.505 16.318.008l13.337-13.303-13.619-13.653c-4.497-4.496-11.812-4.496-16.31.001l-13.337 13.639zm21.774 18.687a13.485 13.485 0 0 1-9.569-3.957l-15.033-14.699 14.744-15.076c5.285-5.285 13.871-5.284 19.146-.008l15.032 15.07-14.752 14.714a13.486 13.486 0 0 1-9.568 3.956z"/><path fill="#5FE0ED" d="M99.409 126.062l-2-.017v.017c0 3.372 1.63 6.364 4.138 8.249H83.338l10.759-11.002c3.692-3.693 9.741-3.692 13.459.022l10.951 10.98h-11.89c-4.063-.553-7.208-4.036-7.208-8.249m2.127 10.415c-2.51 1.885-4.141 4.878-4.141 8.252l2 .016v-.016c0-4.22 3.156-7.71 7.231-8.252h12.219l-11.005 10.978c-3.723 3.721-9.768 3.72-13.485.004l-11.23-10.982h18.411m-28.375-26.202l-3.465-3.457a3.024 3.024 0 0 1 0-4.277l3.465-3.388 3.38 3.456a3.024 3.024 0 0 1 0 4.277l-3.38 3.389m118.021 30.682l-3.465-3.457a3.024 3.024 0 0 1 0-4.277l3.465-3.389 3.38 3.457a3.024 3.024 0 0 1 0 4.277l-3.38 3.389"/><path fill="#48515A" d="M121.693 170.25h9.693l-1.881-13.168 1.033-2.068v-.764h-7.999v.764l1.035 2.068-1.881 13.168zm12 2h-14.307l2.119-14.832-.966-1.932v-3.236h11.999v3.236l-.964 1.931 2.119 14.833z"/><path fill="#FFD15D" d="M110.539 188.31v11.934l31.001-.001v-11.998l-11.863-15.814-2.24-15.684.248-.497h-2.292l.248.496-2.249 15.746-12.853 15.818"/><path fill="#48515A" d="M108.539 202.243h35.001v-14.664l-11.501-15.334h-11.024L108.539 187.6v14.643zm37.001 2h-39.001V186.89l13.525-16.645h12.975l12.501 16.667v17.331z"/><path fill="#48515A" d="M125.539 202.245h2v-10h-2v10zm-2 2h6v-14h-6v14zm12 14h2v-14h-2v14zm-2 2h6v-18h-6v18zm-18-2h2v-14h-2v14zm-2 2h6v-18h-6v18z"/></g></svg>