<?xml version="1.0" encoding="utf-8"?><svg xmlns="http://www.w3.org/2000/svg" width="250" height="250" viewBox="0 0 250 250"><g fill="none" fill-rule="evenodd"><path fill="#48515A" d="M124.268 55.427c-38.047 0-69 30.953-69 69s30.953 69 69 69 69.001-30.953 69.001-69-30.954-69-69.001-69zm0 140c-39.149 0-71-31.85-71-71 0-39.149 31.851-71 71-71 39.15 0 71.001 31.851 71.001 71 0 39.15-31.851 71-71.001 71z"/><path fill="#48515A" d="M94.72 195.014a21.078 21.078 0 0 1 14.856 6.131l1.485 1.481c7.401 7.384 19.44 7.383 26.839 0l1.485-1.481a21.069 21.069 0 0 1 18.093-5.878l2.071.325c10.328 1.617 20.067-5.454 21.714-15.775l.33-2.071a21.068 21.068 0 0 1 11.182-15.391l1.868-.954c9.307-4.757 13.028-16.207 8.294-25.526l-.951-1.869a21.07 21.07 0 0 1 0-19.025l.951-1.87c4.734-9.318 1.013-20.769-8.294-25.525l-1.868-.954a21.068 21.068 0 0 1-11.182-15.391l-.33-2.071c-1.647-10.323-11.399-17.402-21.714-15.776l-2.071.326a21.065 21.065 0 0 1-18.093-5.879l-1.485-1.48c-7.399-7.383-19.439-7.383-26.839 0l-1.485 1.48a21.077 21.077 0 0 1-18.093 5.879l-2.071-.326c-10.33-1.622-20.067 5.454-21.714 15.776l-.33 2.07a21.07 21.07 0 0 1-11.182 15.392l-1.868.954c-9.308 4.756-13.028 16.207-8.294 25.525l.95 1.87a21.07 21.07 0 0 1 0 19.025l-.95 1.869c-4.734 9.319-1.014 20.77 8.294 25.526l1.868.954a21.07 21.07 0 0 1 11.182 15.391l.33 2.071c1.647 10.321 11.388 17.403 21.714 15.775l2.071-.325c1.078-.17 2.16-.253 3.237-.253zm29.76 15.148c-5.372.001-10.742-2.039-14.832-6.12l-1.484-1.481a19.063 19.063 0 0 0-16.37-5.319l-2.072.326c-11.411 1.795-22.178-6.028-23.999-17.436l-.33-2.071a19.062 19.062 0 0 0-10.118-13.925l-1.867-.954c-10.287-5.257-14.4-17.913-9.167-28.213l.95-1.869a19.062 19.062 0 0 0 0-17.213l-.95-1.869c-5.233-10.3-1.12-22.956 9.167-28.213l1.867-.954a19.063 19.063 0 0 0 10.118-13.926l.33-2.07c1.82-11.408 12.582-19.234 23.999-17.436l2.072.325a19.073 19.073 0 0 0 16.37-5.318l1.484-1.482c8.177-8.16 21.486-8.161 29.664 0l1.485 1.482a19.07 19.07 0 0 0 16.37 5.318l2.071-.325c11.417-1.791 22.18 6.028 23.999 17.436l.33 2.071a19.067 19.067 0 0 0 10.119 13.925l1.867.954c10.287 5.257 14.399 17.913 9.167 28.213l-.95 1.869a19.056 19.056 0 0 0 0 17.213l.95 1.869c5.232 10.299 1.12 22.955-9.167 28.213l-1.867.954a19.065 19.065 0 0 0-10.119 13.925l-.33 2.071c-1.819 11.408-12.583 19.235-23.999 17.436l-2.071-.326a19.058 19.058 0 0 0-16.37 5.319l-1.485 1.481c-4.088 4.08-9.46 6.12-14.832 6.12z"/><path fill="#48515A" d="M125.11 59.433a.994.994 0 0 1-.98-1.01c0-.56.46-1 1.01-.99.55.01.99.46.99 1.01-.01.55-.46.99-1 .99h-.02zm-4.98-.88c-.03-.56.4-1.03.95-1.05.55-.03 1.02.4 1.05.95.02.55-.4 1.02-.96 1.05h-.05c-.53 0-.97-.42-.99-.95zm8.92 1.05c-.55-.04-.97-.52-.93-1.07.04-.55.52-.97 1.069-.93.551.04.971.52.931 1.07-.04.53-.48.93-1 .93h-.07zm-12.9-.69a1 1 0 1 1 1.1.89h-.11c-.5 0-.94-.38-.99-.89zm16.81 1.09h.01c-.55-.07-.94-.58-.87-1.12.08-.55.58-.94 1.129-.86.551.07.931.57.861 1.12-.07.5-.5.87-.99.87-.05 0-.09 0-.14-.01zm-20.76-.48a1 1 0 1 1 1.97-.34c.09.55-.28 1.06-.82 1.16-.06.01-.11.01-.17.01-.48 0-.9-.34-.98-.83zm24.65 1.12a.999.999 0 0 1-.79-1.17c.1-.55.629-.9 1.169-.79.541.1.901.63.791 1.17a.995.995 0 0 1-1.17.79zm-28.56-.28c-.13-.53.21-1.07.75-1.2.53-.12 1.07.21 1.2.75a1 1 0 0 1-.75 1.2c-.08.02-.15.03-.23.03a1 1 0 0 1-.97-.78zm32.399 1.15a.985.985 0 0 1-.719-1.21 1.001 1.001 0 1 1 1.94.5c-.12.45-.53.75-.971.75a.73.73 0 0 1-.25-.04zm-36.249-.06c-.16-.53.14-1.09.67-1.25.53-.15 1.09.15 1.25.68a1.006 1.006 0 0 1-.96 1.28c-.43 0-.83-.28-.96-.71zm40.03 1.17a.984.984 0 0 1-.64-1.26c.17-.52.73-.81 1.26-.64.519.17.809.74.639 1.26a.994.994 0 0 1-.959.69c-.1 0-.201-.01-.3-.05zm-43.81.14a.998.998 0 0 1 .6-1.28.998.998 0 0 1 1.28.6.993.993 0 0 1-.6 1.28c-.11.04-.22.06-.34.06-.4 0-.79-.25-.94-.66zm47.52 1.2a.994.994 0 0 1-.571-1.29c.21-.52.79-.77 1.301-.57.52.2.77.79.56 1.3a.997.997 0 0 1-1.29.56zm-51.2.34c-.22-.5.01-1.09.52-1.31a.99.99 0 0 1 1.31.51c.23.51-.01 1.1-.51 1.32-.13.06-.27.08-.4.08-.39 0-.76-.22-.92-.6zm54.82 1.22a.998.998 0 0 1-.49-1.33c.24-.5.83-.71 1.33-.48.5.24.719.83.48 1.33a.99.99 0 0 1-.9.58c-.14 0-.29-.03-.42-.1zm-58.4.55c-.25-.5-.06-1.1.43-1.35.5-.25 1.1-.06 1.35.44a.998.998 0 0 1-.89 1.45c-.36 0-.72-.2-.89-.54zm61.91 1.23a.997.997 0 1 1 .96-1.75c.49.26.66.87.4 1.35-.18.34-.53.53-.88.53-.16 0-.33-.04-.48-.13zm-65.38.74a.998.998 0 1 1 1.72-1.01.995.995 0 0 1-.86 1.5.98.98 0 0 1-.86-.49zm68.79 1.25c-.47-.29-.611-.91-.321-1.38.29-.46.911-.61 1.381-.31.47.29.61.91.31 1.38-.191.3-.51.46-.84.46-.19 0-.37-.04-.53-.15zm-72.14.94a.999.999 0 0 1 .27-1.39.999.999 0 0 1 1.39.27.999.999 0 0 1-.83 1.56c-.32 0-.64-.16-.83-.44zm75.41 1.25a.993.993 0 0 1-.23-1.39c.32-.45.94-.56 1.389-.23.451.32.561.94.241 1.39-.201.27-.51.42-.821.42a.98.98 0 0 1-.579-.19zm-78.62 1.13c-.33-.44-.25-1.07.19-1.4a.992.992 0 0 1 1.4.18c.33.44.25 1.07-.19 1.4-.18.14-.39.21-.6.21-.3 0-.6-.13-.8-.39zm81.76 1.26c-.43-.35-.5-.98-.151-1.41.351-.43.981-.49 1.411-.15.42.35.49.98.14 1.41-.19.25-.48.37-.78.37-.22 0-.44-.07-.62-.22zm-84.82 1.31c-.36-.42-.31-1.05.1-1.41a.998.998 0 0 1 1.41.1c.36.42.32 1.05-.1 1.41-.19.17-.42.25-.65.25-.28 0-.56-.12-.76-.35zm87.799 1.26a.998.998 0 0 1-.059-1.41c.37-.41 1-.44 1.41-.07.41.38.439 1.01.07 1.42-.2.21-.47.32-.74.32-.24 0-.48-.09-.681-.26zm-90.699 1.49a.996.996 0 0 1 .02-1.41.996.996 0 0 1 1.41.01c.39.4.38 1.03-.01 1.42a1.015 1.015 0 0 1-1.42-.02zm93.529 1.25a.988.988 0 0 1 .021-1.41.987.987 0 0 1 1.41.02c.39.39.38 1.03-.02 1.41a.978.978 0 0 1-1.411-.02zm-96.259 1.68a1.01 1.01 0 0 1-.07-1.42c.37-.41 1-.44 1.41-.07.41.37.44 1.01.07 1.42-.19.21-.47.32-.74.32-.24 0-.48-.08-.67-.25zm98.91 1.23a.998.998 0 0 1 .11-1.41.998.998 0 0 1 1.409.11.998.998 0 0 1-.759 1.65c-.281 0-.56-.12-.76-.35zm-101.46 1.85c-.43-.35-.5-.98-.15-1.41.34-.43.97-.5 1.4-.15a1 1 0 0 1-.62 1.78c-.22 0-.44-.08-.63-.22zm103.939 1.21a.993.993 0 0 1 .191-1.4c.44-.33 1.059-.25 1.4.19.33.44.25 1.07-.19 1.4a.982.982 0 0 1-1.401-.19zM69.77 87.173a.997.997 0 0 1-.24-1.39c.32-.46.95-.56 1.4-.25.45.32.55.95.24 1.4-.2.27-.51.42-.82.42-.2 0-.4-.06-.58-.18zm108.58 1.19c-.3-.46-.18-1.08.28-1.39a.988.988 0 0 1 1.38.28.988.988 0 0 1-.27 1.38.942.942 0 0 1-.551.17c-.33 0-.639-.15-.839-.44zm-110.74 2.18a1.003 1.003 0 0 1 1.06-1.7 1 1 0 0 1 .32 1.37 1 1 0 0 1-1.38.33zm112.829 1.15a.987.987 0 0 1 .361-1.36c.47-.28 1.09-.12 1.37.35.269.48.11 1.09-.36 1.37a.993.993 0 0 1-1.371-.36zM65.66 94.033a.996.996 0 0 1-.41-1.35c.27-.49.87-.67 1.36-.41a1.001 1.001 0 0 1-.95 1.76zm116.659 1.12a.996.996 0 0 1 .441-1.34.99.99 0 0 1 1.34.44 1 1 0 0 1-.89 1.45c-.36 0-.72-.2-.891-.55zM63.92 97.643c-.5-.23-.72-.83-.49-1.33h.01c.23-.5.82-.72 1.32-.49.5.23.72.83.49 1.33-.17.37-.53.58-.91.58-.14 0-.28-.03-.42-.09zm120.059 1.07c-.209-.51.021-1.1.531-1.31.5-.22 1.09.01 1.309.52a.992.992 0 0 1-.92 1.39 1 1 0 0 1-.92-.6zm-121.569 2.63a.993.993 0 0 1-.57-1.29c.2-.51.78-.77 1.29-.57a1 1 0 0 1 .57 1.3.995.995 0 0 1-1.29.56zm123.02 1.02a.998.998 0 0 1 .6-1.28c.52-.18 1.09.09 1.28.61.19.51-.081 1.09-.6 1.28-.11.04-.231.05-.34.05-.41 0-.79-.25-.94-.66zm-124.31 2.78c-.52-.17-.81-.73-.64-1.26.17-.53.73-.82 1.25-.65a1.003 1.003 0 0 1-.61 1.91zm125.529.97a.995.995 0 0 1 .681-1.24.985.985 0 0 1 1.239.68c.16.52-.149 1.08-.679 1.24-.09.02-.19.04-.281.04-.429 0-.829-.29-.96-.72zm-126.579 2.89c-.53-.14-.86-.68-.72-1.22.14-.53.68-.86 1.22-.72.53.14.86.68.72 1.22a1.003 1.003 0 0 1-1.22.72zm127.57.92c-.12-.54.219-1.08.759-1.2a.995.995 0 0 1 1.191.75.992.992 0 0 1-.75 1.2.839.839 0 0 1-.22.03c-.46 0-.87-.32-.98-.78zm-128.38 2.99c-.54-.1-.9-.63-.79-1.17.1-.54.62-.9 1.17-.79.54.1.89.63.79 1.17a.995.995 0 0 1-1.17.79zm129.139.87c-.089-.54.281-1.06.821-1.15a.998.998 0 0 1 .33 1.97c-.06.01-.111.02-.17.02a.997.997 0 0 1-.981-.84zm-129.709 3.09c-.55-.07-.94-.57-.87-1.12.08-.55.58-.94 1.12-.86.55.07.94.57.87 1.12-.07.5-.5.87-.99.87-.05 0-.09 0-.13-.01zm130.23.81a1 1 0 1 1 1.1.9h-.1c-.51 0-.941-.38-1-.9zm-130.56 3.17a.99.99 0 0 1-.93-1.06.99.99 0 0 1 1.06-.93 1 1 0 0 1 .93 1.07c-.03.52-.47.93-.99.93-.03 0-.05-.01-.07-.01zm130.85.76a.988.988 0 0 1 .95-1.04c.56-.03 1.02.4 1.05.95.019.56-.41 1.02-.96 1.05h-.04a.994.994 0 0 1-1-.96zm-130.95 3.24c-.55 0-.99-.46-.99-1.01s.46-.99 1.01-.99c.55.01.99.46.99 1.01s-.45.99-1 .99h-.01zm131.01-.43c0-.55.45-.99 1-.99a.995.995 0 1 1 0 1.99c-.55 0-1-.44-1-1zm-131.91 3.48a.996.996 0 0 1 .94-1.05c.56-.03 1.03.4 1.05.95a.996.996 0 0 1-.94 1.05h-.05c-.53 0-.98-.41-1-.95zm132.73 1.52c-.55-.03-.97-.51-.941-1.06.031-.55.511-.97 1.061-.94.55.04.97.51.939 1.06a.997.997 0 0 1-1 .94h-.059zm-132.41 2.52h.01a.99.99 0 0 1 .88-1.1.992.992 0 0 1 1.1.88c.06.55-.33 1.05-.88 1.11h-.11c-.5 0-.94-.37-1-.89zm131.99 1.45a.986.986 0 0 1-.87-1.11.986.986 0 0 1 1.11-.87c.55.07.94.56.87 1.11-.06.51-.49.88-.99.88-.04 0-.08 0-.12-.01zm-131.41 2.57a.99.99 0 0 1 .81-1.15 1 1 0 1 1 .35 1.97c-.06.01-.12.01-.18.01-.48 0-.9-.34-.98-.83zm130.75 1.38a.997.997 0 0 1-.8-1.16c.1-.55.62-.91 1.16-.81.55.1.9.62.81 1.16-.09.49-.51.82-.991.82-.059 0-.12 0-.179-.01zm-129.94 2.6a1 1 0 0 1 .75-1.2c.53-.13 1.07.2 1.2.74a1.003 1.003 0 0 1-.97 1.23c-.46 0-.87-.31-.98-.77zm129.039 1.29a1.003 1.003 0 0 1-.729-1.21h.01c.13-.53.67-.86 1.2-.73.54.14.87.68.74 1.21a1.001 1.001 0 0 1-1.221.73zm-127.979 2.63c-.16-.53.14-1.09.67-1.25a.993.993 0 0 1 1.24.67.997.997 0 0 1-.66 1.25c-.1.02-.2.04-.29.04-.43 0-.83-.28-.96-.71zm126.849 1.21a1 1 0 0 1-.649-1.25h-.011c.171-.53.731-.82 1.261-.66.52.16.819.73.66 1.25-.14.43-.53.7-.96.7-.1 0-.2-.01-.301-.04zm-125.559 2.63c-.19-.51.08-1.09.59-1.28.52-.19 1.1.07 1.29.59a.993.993 0 0 1-.59 1.28c-.11.05-.23.07-.35.07-.4 0-.79-.25-.94-.66zm124.2 1.13a.99.99 0 0 1-.58-1.29.993.993 0 0 1 1.29-.57c.51.19.77.77.569 1.29-.149.39-.529.64-.929.64a.84.84 0 0 1-.35-.07zm-122.67 2.63c-.23-.51 0-1.1.51-1.32.5-.22 1.09.01 1.32.51a1.006 1.006 0 0 1-.92 1.41c-.38 0-.75-.23-.91-.6zm121.07 1.05a1 1 0 1 1 .83-1.82c.5.22.719.82.49 1.32a.992.992 0 0 1-1.32.5zm-119.32 2.61a.997.997 0 0 1 .43-1.35.986.986 0 0 1 1.34.43 1 1 0 0 1-.89 1.46c-.36 0-.71-.2-.88-.54zm117.5.96c-.48-.26-.67-.87-.41-1.36a.999.999 0 0 1 1.35-.41c.49.26.67.86.42 1.35-.18.34-.53.53-.89.53-.16 0-.32-.04-.47-.11zm-115.54 2.58c-.28-.47-.12-1.09.35-1.37a.995.995 0 0 1 1.37.35c.29.47.13 1.09-.34 1.37-.16.09-.34.14-.51.14-.35 0-.68-.18-.87-.49zm113.52.87c-.47-.29-.62-.9-.34-1.38.29-.47.91-.62 1.38-.33.469.28.62.9.33 1.37-.191.31-.52.48-.85.48-.18 0-.36-.04-.52-.14zm-111.34 2.55a.999.999 0 0 1 .27-1.39.999.999 0 0 1 1.39.27c.31.45.19 1.07-.27 1.38-.17.12-.36.18-.56.18a1 1 0 0 1-.83-.44zm109.099.77a1.009 1.009 0 0 1-.25-1.39.99.99 0 0 1 1.391-.25c.46.31.569.93.26 1.39-.2.28-.51.43-.83.43-.191 0-.39-.06-.571-.18zm-106.709 2.51a.993.993 0 0 1 .18-1.4.993.993 0 0 1 1.4.18.99.99 0 0 1-.18 1.4c-.18.15-.4.21-.61.21-.3 0-.6-.13-.79-.39zm104.29.67c-.44-.34-.51-.97-.17-1.41a.99.99 0 0 1 1.4-.16c.439.34.51.97.17 1.4a1.004 1.004 0 0 1-1.4.17zm-101.71 2.47a.988.988 0 0 1 .09-1.41.989.989 0 0 1 1.41.09c.36.42.32 1.05-.09 1.41a.996.996 0 0 1-1.41-.09zm99.089.55a.999.999 0 1 1 1.411-.08.979.979 0 0 1-.75.34c-.23 0-.47-.09-.661-.26zm-96.329 2.42a.987.987 0 0 1 .01-1.41.987.987 0 0 1 1.41.01 1.001 1.001 0 1 1-.71 1.7c-.26 0-.52-.1-.71-.3zm93.539.45a1.01 1.01 0 0 1 0-1.42 1.01 1.01 0 0 1 1.421.01c.39.39.38 1.02-.01 1.41-.19.2-.451.29-.701.29-.259 0-.519-.1-.71-.29zm-90.609 2.36a1.01 1.01 0 0 1-.07-1.42c.37-.41 1-.44 1.41-.07.41.37.44 1 .08 1.41-.2.22-.48.33-.75.33-.24 0-.48-.08-.67-.25zm87.649.33a.989.989 0 0 1 .091-1.41.996.996 0 0 1 1.409.08c.361.42.33 1.05-.089 1.42-.19.16-.43.25-.661.25-.279 0-.549-.12-.75-.34zm-84.549 2.29c-.43-.35-.5-.98-.16-1.41.34-.43.97-.5 1.41-.16.43.34.5.97.16 1.41a1.025 1.025 0 0 1-1.41.16zm81.43.21a.992.992 0 0 1 .18-1.4 1 1 0 0 1 1.399.17 1.01 1.01 0 0 1-.17 1.41c-.189.14-.399.21-.62.21-.299 0-.59-.14-.789-.39zm-78.17 2.22a1 1 0 1 1 1.14-1.64c.46.32.57.94.25 1.39-.2.28-.51.43-.82.43-.2 0-.4-.06-.57-.18zm74.91.09a1.01 1.01 0 0 1 .26-1.39c.46-.31 1.079-.19 1.39.26.32.46.2 1.08-.25 1.39a1 1 0 0 1-1.4-.26zm-71.52 2.13a.992.992 0 0 1-.33-1.37c.29-.47.91-.62 1.38-.33.47.29.62.91.33 1.38-.19.3-.52.47-.86.47-.18 0-.36-.04-.52-.15zm68.13-.01c-.28-.48-.13-1.09.34-1.38h.009a1 1 0 1 1 .511 1.86c-.341 0-.671-.17-.86-.48zm-64.61 2.04c-.48-.26-.67-.87-.41-1.36.26-.48.87-.67 1.36-.41.48.26.67.87.41 1.36-.18.33-.53.52-.88.52-.16 0-.32-.03-.48-.11zm61.1-.14a.993.993 0 0 1 .42-1.35.994.994 0 0 1 1.35.42c.259.49.07 1.1-.42 1.35a.99.99 0 0 1-.46.12c-.37 0-.71-.2-.89-.54zm-57.45 1.94c-.5-.23-.73-.82-.5-1.33.23-.5.83-.72 1.33-.49a1 1 0 1 1-.83 1.82zm53.83-.26a.996.996 0 0 1 1.819-.81c.231.5 0 1.09-.5 1.32a.964.964 0 0 1-.409.08c-.38 0-.75-.22-.91-.59zm-50.08 1.84c-.52-.2-.78-.78-.58-1.3a1.001 1.001 0 0 1 1.87.72c-.16.4-.54.65-.94.64-.12 0-.24-.02-.35-.06zm46.36-.38c-.19-.52.07-1.09.59-1.29.51-.19 1.09.07 1.29.59.19.52-.07 1.09-.591 1.29a1.02 1.02 0 0 1-.349.06c-.41 0-.79-.25-.94-.65zm-42.53 1.72a.988.988 0 0 1-.65-1.25c.17-.53.73-.82 1.26-.65.52.16.81.73.65 1.25-.14.43-.53.7-.96.7-.1 0-.2-.01-.3-.05zm38.729-.49a.99.99 0 0 1 .661-1.24.99.99 0 0 1 1.25.66.997.997 0 0 1-.661 1.25c-.099.03-.199.04-.299.04-.42 0-.821-.28-.951-.71zm-34.819 1.6a.992.992 0 0 1-.73-1.21 1 1 0 0 1 1.21-.73c.54.14.86.68.73 1.22a.994.994 0 0 1-1.21.72zm30.949-.6a.997.997 0 1 1 1.201.74.914.914 0 0 1-.23.03c-.45 0-.86-.31-.971-.77zm-26.989 1.47c-.54-.1-.9-.62-.8-1.17.1-.54.63-.9 1.17-.8a1.004 1.004 0 1 1-.18 1.99c-.06 0-.13-.01-.19-.02zm23.06-.71c-.1-.54.27-1.06.81-1.16.54-.09 1.07.27 1.159.81a.986.986 0 0 1-.809 1.16v.01c-.06.01-.111.01-.17.01-.481 0-.9-.34-.99-.83zm-19.05 1.34a1.002 1.002 0 1 1 1.12-.87c-.06.5-.5.87-1 .87h-.12zm15.09-.81a.994.994 0 0 1 .88-1.11.985.985 0 0 1 1.1.87.987.987 0 0 1-.87 1.11c-.04.01-.08.01-.12.01-.5 0-.93-.38-.99-.88zm-11.05 1.18v.01c-.55-.04-.97-.52-.93-1.07a.99.99 0 0 1 1.06-.93c.55.03.97.51.93 1.06-.03.53-.47.94-.99.94-.02 0-.05 0-.07-.01zm7.059-.9c-.029-.55.391-1.03.941-1.06.55-.03 1.03.39 1.059.94.031.56-.399 1.03-.949 1.06h-.051a1 1 0 0 1-1-.94zm-2.999 1.04c-.56 0-1-.45-1-1s.45-1 1.01-1c.55.01.99.46.99 1.01s-.45.99-1 .99z"/><path fill="#F58E70" d="M124.268 197.427c-40.252 0-73-32.747-73-73 0-40.252 32.748-73 73-73 40.253 0 73 32.748 73 73 0 40.253-32.747 73-73 73zm75.935-62.515a23.078 23.078 0 0 1 0-20.837l.95-1.869c4.236-8.338.907-18.583-7.421-22.839l-1.867-.954a23.074 23.074 0 0 1-12.247-16.857l-.331-2.07c-1.473-9.237-10.188-15.569-19.427-14.116l-2.072.326a23.076 23.076 0 0 1-19.816-6.439l-1.485-1.481c-6.62-6.606-17.393-6.606-24.014 0l-1.484 1.481c-5.18 5.168-12.588 7.58-19.817 6.439l-2.071-.326c-9.239-1.45-17.954 4.88-19.428 14.115l-.33 2.071a23.077 23.077 0 0 1-12.247 16.857l-1.868.954c-8.328 4.256-11.657 14.501-7.421 22.839l.95 1.869a23.072 23.072 0 0 1 0 20.837l-.95 1.869c-4.236 8.338-.907 18.583 7.421 22.839l1.868.954a23.075 23.075 0 0 1 12.247 16.857l.33 2.07c1.474 9.235 10.19 15.566 19.428 14.116l2.071-.326a22.772 22.772 0 0 1 3.545-.277 23.084 23.084 0 0 1 16.272 6.716l1.484 1.481c6.621 6.605 17.394 6.604 24.014 0l1.484-1.481c5.181-5.168 12.589-7.579 19.817-6.439l2.072.326c9.24 1.446 17.954-4.88 19.427-14.116l.331-2.071a23.073 23.073 0 0 1 12.247-16.856l1.867-.954c8.329-4.256 11.658-14.501 7.421-22.839l-.95-1.869z"/><path fill="#48515A" d="M119.012 71.058l-.919-8.953a63.14 63.14 0 0 1 2.143-.184l.618 8.979c-.617.042-1.23.095-1.842.158zm12.898.201a52.168 52.168 0 0 0-1.834-.215l.901-8.955c.716.072 1.429.156 2.138.251l-1.205 8.919zm-23.708 2.05l-2.743-8.572a60.15 60.15 0 0 1 2.069-.621l2.435 8.665c-.591.166-1.179.342-1.761.528zm34.447.547a51.85 51.85 0 0 0-1.747-.585l2.707-8.583c.689.216 1.37.445 2.046.685l-3.006 8.483zm-44.582 3.879l-4.436-7.831a61.822 61.822 0 0 1 1.897-1.031l4.161 7.98c-.546.285-1.087.579-1.622.882zm54.559.861a52.552 52.552 0 0 0-1.593-.931l4.41-7.846c.625.352 1.244.713 1.855 1.085l-4.672 7.692zm-63.581 5.542l-5.929-6.772c.54-.472 1.087-.935 1.641-1.389l5.7 6.965a55.38 55.38 0 0 0-1.412 1.196zm72.391 1.135c-.45-.419-.907-.831-1.37-1.234l5.907-6.79c.543.472 1.076.953 1.601 1.443l-6.138 6.581zM81.51 92.234l-7.176-5.431c.432-.572.874-1.136 1.326-1.693l6.989 5.67c-.387.478-.767.963-1.139 1.454zm87.206 1.37a56.956 56.956 0 0 0-1.094-1.49l7.162-5.45a61.42 61.42 0 0 1 1.276 1.737l-7.344 5.203zm-92.933 8.076l-8.133-3.855c.307-.648.624-1.289.952-1.924l7.998 4.127a53.865 53.865 0 0 0-.817 1.652zm98.364 1.553a55.343 55.343 0 0 0-.765-1.68l8.123-3.874c.309.649.609 1.305.896 1.966l-8.254 3.588zm-102.041 8.865l-8.75-2.106c.168-.699.348-1.395.539-2.086l8.673 2.407c-.164.59-.318 1.186-.462 1.785zm105.386 1.675a56.591 56.591 0 0 0-.405-1.801l8.744-2.128c.17.695.327 1.396.474 2.1l-8.813 1.829zm-106.854 9.281l-8.995-.282c.022-.719.057-1.435.103-2.147l8.981.582c-.04.613-.07 1.229-.089 1.847zm116.974 1.717h-9c0-.618-.009-1.234-.03-1.847l8.994-.304c.025.714.036 1.431.036 2.151zm-.541 8.28l-8.922-1.177c.08-.607.15-1.218.208-1.831l8.959.867c-.07.718-.151 1.431-.245 2.141zm-124.526 2.58a64.965 64.965 0 0 1-.333-2.128l8.915-1.236c.085.611.18 1.219.285 1.823l-8.867 1.541zm121.541 9.968l-8.494-2.973c.202-.578.395-1.161.578-1.748l8.594 2.672a62.17 62.17 0 0 1-.678 2.049zm-118.029 2.456a61.347 61.347 0 0 1-.766-2.022l8.472-3.038c.209.581.426 1.157.654 1.729l-8.36 3.331zm112.54 9.211l-7.705-4.651a51.42 51.42 0 0 0 .923-1.592l7.862 4.382c-.35.627-.71 1.248-1.08 1.861zm-106.561 2.226a64.583 64.583 0 0 1-1.162-1.821l7.673-4.705c.322.524.652 1.043.992 1.555l-7.503 4.971zm98.812 8.073l-6.608-6.112a55.9 55.9 0 0 0 1.235-1.379l6.804 5.89a64.035 64.035 0 0 1-1.431 1.601zm-90.64 1.898a64.343 64.343 0 0 1-1.502-1.544l6.559-6.163c.421.448.851.889 1.287 1.323l-6.344 6.384zm80.96 6.623l-5.231-7.324c.502-.359.999-.725 1.489-1.101l5.472 7.145c-.57.437-1.146.863-1.73 1.28zm-70.939 1.484a61.714 61.714 0 0 1-1.78-1.206l5.172-7.365c.503.353 1.012.697 1.527 1.034l-4.919 7.537zm59.719 4.898l-3.621-8.239a54.232 54.232 0 0 0 1.677-.772l3.908 8.106c-.649.314-1.304.615-1.964.905zm-48.257 1.003a60.893 60.893 0 0 1-1.988-.817l3.562-8.265c.562.243 1.129.475 1.7.698l-3.274 8.384zm35.968 2.946l-1.855-8.806a52.546 52.546 0 0 0 1.798-.412l2.158 8.738c-.697.172-1.397.332-2.101.48zm-23.531.486c-.711-.12-1.417-.25-2.119-.393l1.792-8.82c.601.122 1.205.234 1.813.336l-1.486 8.877zm10.712.868l-.033-9a56.605 56.605 0 0 0 1.847-.038l.338 8.994c-.715.026-1.432.041-2.152.044z"/><path fill="#F58E70" d="M129.756 176.259s-2.5-33.422-3.249-36.42v-.083l.184-.042c.621.001 1.309-.544 1.309-1.165v-2.81l-3.047-3.375-2.953 3.375v2.81c0 .621.508 1.124 1.129 1.124h.003l.001.166c-.749 2.998-3.248 36.42-3.248 36.42h9.871"/><path fill="#DFE0E0" d="M116 123.938v2.456l8.592 4.778 8.382-4.638.026-4.495v-3.789c1-.318.746-.658 1.042-1.003-.101.089-.151.177-.234.267-1.182 1.27-2.951 2.513-4.165 3.549-.96.82-2.151 1.196-3.413 1.196h-3.649c-1.263 0-2.476-.376-3.437-1.196-1.158-.989-2.844-2.204-4.023-3.421-.035-.037-.077-.051-.115-.087.354.376.671.769 1.102 1.149-.01.004-.108.02-.108.032v5.202"/><path fill="#48515A" d="M116 127.259a1 1 0 0 1-1-1v-8a1 1 0 0 1 2 0v8a1 1 0 0 1-1 1"/><path fill="#48515A" d="M133 127.259a1 1 0 0 1-1-1v-8.497l.37-.3c1.078-.874 1.456-1.581 1.586-1.924l.041-.094 3.586-7.188 3.814-1.932.835-4.184a.995.995 0 0 0-.28-.631.78.78 0 0 0-.547-.25h-2.115l.377-1.282c.202-.689.333-2.389.333-4.333v-.758c0-2.267-.438-4.36-1.302-6.219l-.586-1.263a15.726 15.726 0 0 0-3.945-4.609 15.392 15.392 0 0 0-9.51-3.331h-.103c-4.012 0-7.836 1.603-10.775 4.523-3.037 3.017-4.779 7.168-4.779 11.388v.269c0 1.399.142 3.467.372 4.369l.316 1.246h-1.968c-.432 0-.828.402-.885.87l1.189 4.241 3.341 1.918 3.398 7.161c.421 1.12 2.359 2.682 3.773 3.822.451.363.882.711 1.258 1.032.733.625 1.696.956 2.787.956H126a1 1 0 1 1 0 2h-3.419c-1.573 0-2.986-.496-4.086-1.436-.363-.31-.779-.644-1.214-.995-1.772-1.428-3.78-3.046-4.359-4.601l-3.095-6.516-3.508-2.014-1.49-5.455c0-1.442 1.053-2.684 2.393-2.936a31.682 31.682 0 0 1-.222-3.662v-.269c0-4.75 1.957-9.417 5.369-12.807 3.346-3.322 7.742-5.157 12.302-5.104a17.373 17.373 0 0 1 10.734 3.761 17.694 17.694 0 0 1 5.162 6.612l.632 1.409h-.112c.606 1.746.913 3.636.913 5.64v.758c0 .768-.021 2.353-.18 3.648a2.785 2.785 0 0 1 1.567.823c.559.576.868 1.36.845 2.15l-.019.167-1.044 5.237-4.092 2.072-3.269 6.553c-.317.807-.937 1.631-1.808 2.407v7.558a1 1 0 0 1-1 1m-44.675 32.268a1 1 0 0 1-1-1l-.004-17.874c0-3.862 2.744-4.909 5.397-5.921l17.365-5.838 3.13-5.635H116a1 1 0 0 1 0 2h-1.61l-2.935 5.283-18.061 6.072c-2.884 1.101-4.073 1.779-4.073 4.039l.004 17.874a1 1 0 0 1-1 1"/><path fill="#48515A" d="M124.821 132.388l-9.128-5.111a1 1 0 0 1 .977-1.746l8.151 4.565 7.823-4.381a.999.999 0 1 1 .976 1.745l-8.799 4.928"/><path fill="#48515A" d="M161.23 159.527h-.008a1.001 1.001 0 0 1-.992-1.009l.157-17.806c0-2.305-1.211-2.98-4.184-4.074L138.17 130.6l-3.357-5.341H133a1 1 0 1 1 0-2h2.919l3.563 5.671 17.384 5.822c2.603.957 5.521 2.03 5.521 5.969l-.157 17.815a1 1 0 0 1-1 .991m-41.469-20.54a.999.999 0 0 1-.742-1.669l5.802-6.446 5.801 6.446a1 1 0 0 1-1.486 1.338l-4.315-4.795-4.316 4.795a.998.998 0 0 1-.744.331M159 106.259h2v-4h-2zM159 116.259h2v-4h-2zM163 110.259h4v-2h-4zM153 110.259h4v-2h-4zM35 71.259h2v-4h-2zM35 81.259h2v-4h-2zM39 75.259h4v-2h-4zM29 75.259h4v-2h-4zM213 187.259h2v-4h-2zM213 197.259h2v-4h-2zM217 191.259h4v-2h-4zM207 191.259h4v-2h-4z"/><path fill="#F58E70" d="M52.959 177.176a2 2 0 1 1-3.999.001 2 2 0 0 1 3.999-.001m96 32a2 2 0 1 1-3.999.001 2 2 0 0 1 3.999-.001m40-149a1 1 0 1 1-2 0 1 1 0 0 1 2 0"/></g></svg>