<?xml version="1.0" encoding="utf-8"?><svg xmlns="http://www.w3.org/2000/svg" width="250" height="250" viewBox="0 0 250 250"><g fill="none" fill-rule="evenodd"><path fill="#475059" d="M33.041 180.254h2v-6h-2z"/><path fill="#48515A" d="M35.002 73.963h4v-2h-4z"/><path fill="#FFD15D" d="M50.21 46.232a3 3 0 1 1-6 0 3 3 0 0 1 6 0"/><path fill="#FFD15D" d="M47.21 44.232c-1.103 0-2 .898-2 2 0 1.103.897 2 2 2s2-.897 2-2c0-1.102-.897-2-2-2zm0 6c-2.206 0-4-1.793-4-4 0-2.206 1.794-4 4-4s4 1.794 4 4c0 2.207-1.794 4-4 4z"/><path fill="#475059" d="M47.21 40.232c-3.309 0-6 2.692-6 6 0 3.309 2.691 6 6 6s6-2.691 6-6c0-3.308-2.691-6-6-6zm0 14c-4.411 0-8-3.588-8-8 0-4.411 3.589-8 8-8s8 3.589 8 8c0 4.412-3.589 8-8 8z"/><path fill="#FFD15D" d="M200.282 46.232a3 3 0 1 0 6 0 3 3 0 0 0-6 0"/><path fill="#FFD15D" d="M203.282 44.232c-1.103 0-2 .898-2 2 0 1.103.897 2 2 2s2-.897 2-2c0-1.102-.897-2-2-2zm0 6c-2.205 0-4-1.793-4-4 0-2.206 1.795-4 4-4 2.206 0 4 1.794 4 4 0 2.207-1.794 4-4 4z"/><path fill="#475059" d="M203.282 40.232c-3.308 0-6 2.692-6 6 0 3.309 2.692 6 6 6 3.309 0 6-2.691 6-6 0-3.308-2.691-6-6-6zm0 14c-4.411 0-8-3.588-8-8 0-4.411 3.589-8 8-8s8 3.589 8 8c0 4.412-3.589 8-8 8zM37.96 195.251h58.012v-4.003c0-4.072 3.059-7.443 6.999-7.936v-2.063H30.96v2.063c3.94.493 7 3.864 7 7.936v4.003zm60.012 2H35.96v-6.003a6.006 6.006 0 0 0-6-5.999h-.999l-.002-6h76.012v6h-1a6.006 6.006 0 0 0-5.999 5.999v6.003zM101.053 172.254h-2v-.889L71.46 48.768l1.951-.44 27.642 122.815v1.111"/><path fill="#FFD15D" d="M39.96 193.251h54.012v-2.003a9.988 9.988 0 0 1 4.006-7.999H35.954a9.988 9.988 0 0 1 4.006 7.999v2.003"/><path fill="#475059" d="M44.041 199.254h46.012v-2H44.041v2zm-2 2h50.012v-6H42.041v6zM35.04 172.245h-2l.027-1.234L65.178 38.232h5.557l1.443 5.444-1.933.512-1.049-3.956h-2.444L35.04 171.365v.88M99.137 180.254h2v-5.993h-2zM154.03 196.252h58.012v-4.003c0-4.072 3.059-7.444 6.999-7.937v-2.063h-72.012v2.063c3.942.493 7.001 3.864 7.001 7.937v4.003zm60.012 2H152.03v-6.003c0-3.309-2.692-6-6-6h-.999l-.003-6h76.013v6h-1a6.006 6.006 0 0 0-5.999 6v6.003zM217.123 173.254h-2v-.889L187.529 48.766l1.952-.436 27.642 123.815v1.109"/><path fill="#FFD15D" d="M156.03 194.252h54.012v-2.004a9.989 9.989 0 0 1 4.005-7.999h-62.024a9.99 9.99 0 0 1 4.007 7.999v2.004"/><path fill="#475059" d="M160.111 200.254h46.012v-2h-46.012v2zm-2 2h50.012v-6h-50.012v6zM151.109 173.246h-2l.028-1.233 32.11-133.781h5.558l1.443 5.444-1.934.512-1.048-3.956h-2.442l-31.715 132.132v.882M149.11 181.254h2v-6h-2zM215.207 181.254h2v-5.992h-2z"/><path fill="#DFE0E0" d="M73.621 95.782l1.771 3.185a10.615 10.615 0 0 1 1.323 5.705l-1.344 27.556h.001-17.333l.003-.001.67-18.904a29.483 29.483 0 0 1 5.354-15.88l1.313-1.764.001-.013h8.227l.014.116"/><path fill="#475059" d="M71.232 143.132h-4.788v-.697a2.69 2.69 0 0 1-.652.081h-1.568v-4.828c0-1.302.436-2.588 1.228-3.623l.828-1.308.59-13.196-1.052-12.538 1.994-.168 1.061 12.666-.619 13.858-1.164 1.831c-.576.759-.866 1.613-.866 2.478v2.664a.651.651 0 0 0 .22-.489v-.179h2v1.448h2.751c.432.02.858-.157 1.169-.461.311-.303.486-.709.491-1.145l.017-1.353a15.33 15.33 0 0 0-.706-4.565l1.91-.595a17.35 17.35 0 0 1 .796 5.173l-.017 1.366a3.602 3.602 0 0 1-1.095 2.552 3.601 3.601 0 0 1-2.528 1.028"/><path fill="#475059" d="M73.796 133.979h-4.424v-2h3.575l1.517-1.571 1.439 1.391-2.107 2.18"/><path fill="#48515A" d="M66.401 180.317l-1.141-16.651-3.337-19.546-1.646-2.73 1.713-1.034 1.841 3.055 3.421 20.068 1.144 16.702-1.995.136M75.321 180.315l-1.963-35.044 1.763-3.581v-6.579l-.756-2.774.008-.158 1.343-27.556a9.603 9.603 0 0 0-1.198-5.171l-1.865-3.354-.775-6.349-.073-1.665.316-.312a5.895 5.895 0 0 0 1.749-4.176 5.867 5.867 0 0 0-5.861-5.861h-1.302a5.391 5.391 0 0 0-5.39 5.39v8.4l5.313.26-.272 4.253-1.489 2.002a28.374 28.374 0 0 0-5.157 15.319l-.636 17.915 4.342.205-.094 1.999-6.317-.299.706-19.892a30.394 30.394 0 0 1 5.536-16.42l1.151-1.548.105-1.635-5.188-.254V83.125a7.39 7.39 0 0 1 7.39-7.39h1.302c4.335 0 7.861 3.527 7.861 7.861 0 1.94-.735 3.837-2.03 5.272l.03.718.72 5.881 1.676 3.013a11.61 11.61 0 0 1 1.448 6.244l-1.336 27.394.743 2.86v7.177l-1.737 3.529 1.934 34.52-1.997.111"/><path fill="#48515A" d="M60.841 180.412l-2.958-19.262-.841-28.894 1.999-.059.839 28.833 2.938 19.077-1.977.305"/><path fill="#DFE0E0" d="M191.357 162.235h-9.75v-7.5h10.5l-.75 7.5M187.952 136.083l-2.782.543-1.724-4.978 4.467-1.587.933 3.525-1.051.805.157 1.692zm2.28-24.747l2.907-4.115-7.032-7.986-4.5 1.288h-.578c-1.59 0-2.925 1.2-3.094 2.781l-4.203 51.431h25.5l-9-43.399z"/><path fill="#475059" d="M190.134 181.352l-1.99-.196 2.682-27.422h7.178l-8.839-42.62 2.693-3.814-5.553-6.104-1.573-1.944v-5.604h1c1.93 0 3.5-1.57 3.5-3.5V87.56c0-3.584-2.916-6.5-6.5-6.5-3.548 0-6.125 2.596-6.125 6.174v19.5h-2v-19.5c0-4.736 3.417-8.174 8.125-8.174 4.687 0 8.5 3.813 8.5 8.5v2.588a5.51 5.51 0 0 1-4.5 5.41v2.987l1.091 1.35 6.596 7.247-3.119 4.416 9.161 44.176h-7.822l-2.505 25.618"/><path fill="#475059" d="M180.548 181.266l-.304-25.532h-7.597l4.291-52.51a4.112 4.112 0 0 1 8.203.411v12.112l4.555 14.741-7.611 2.704-3.399-10.999 1.911-.589 2.783 9.006 3.839-1.364-4.078-13.348v-12.263a2.114 2.114 0 0 0-2.112-2.112 2.109 2.109 0 0 0-2.1 1.888l-4.112 50.323h7.404l.327 27.508-2 .024"/><path fill="#475059" d="M178.515 181.323l-1.995-.138 1.898-27.451h13.314v2h-11.448l-1.769 25.589M184.509 137.773l-2.008-5.797 1.89-.655 1.44 4.158 1.042-.205-.125-1.341.961-.736-.762-2.881 1.933-.511 1.103 4.17-1.141.874.19 2.043-4.523.881"/><path fill="#DFE0E0" d="M116.011 70.312h18v-5.165h-18z"/><path fill="#475059" d="M54.241 45.229l-.031-2.001 55.585-.86.031 2-55.585.861M196.249 45.229l-56.198-1.001.035-2.001 56.198 1.001-.035 2.001M109.794 50.089l-55.584-.86.031-2.001 55.585.861-.032 2M140.085 50.195l-.034-2 56.199-.967.034 2.001-56.199.966M132.012 118.479h-2V75.727l.332-.298a8.01 8.01 0 0 0 2.667-5.95v-5.333h4.19v-4.667h-24.857v4.667h4.667v5.333c0 2.261.972 4.43 2.668 5.95l.333.299v42.751h-2V76.606a10.002 10.002 0 0 1-3.001-7.127v-3.333h-4.667v-8.667h28.857v8.667h-4.19v3.333c0 2.677-1.088 5.248-2.999 7.126v41.874"/><path fill="#475059" d="M116.011 66.146h18v-2h-18z"/><path fill="#FFD15D" d="M213.135 69.609a2.143 2.143 0 1 1-4.286 0 2.143 2.143 0 0 1 4.286 0M101.939 108.92a1.98 1.98 0 1 1-3.96.002 1.98 1.98 0 0 1 3.96-.002m-64.363 2.514a2.513 2.513 0 1 0 5.026 0 2.513 2.513 0 0 0-5.026 0m108.453 87.78a2.04 2.04 0 1 1 4.08 0 2.04 2.04 0 0 1-4.08 0m-3.871-63.566a.978.978 0 1 1-1.956 0 .978.978 0 0 1 1.956 0"/><path fill="#475059" d="M111.078 53.511l11.813.002c.84 0 1.606.328 2.174.864a3.164 3.164 0 0 1 2.173-.862l11.816.003V35.954l-11.816-.003c-.647 0-1.174.526-1.174 1.174h-2c0-.648-.526-1.176-1.173-1.176l-11.813-.002v17.564zm14.986 3.178h-2c0-.649-.526-1.176-1.173-1.176l-13.813-.002V33.947l13.813.002c.84 0 1.606.328 2.174.865a3.16 3.16 0 0 1 2.173-.863l13.816.003v21.564l-13.816-.003c-.647 0-1.174.526-1.174 1.174z"/><path fill="#475059" d="M124.064 58.689h2V36.123h-2z"/><path fill="#475059" d="M141.057 59.689h-32v-5.178h2v3.178h28v-3.171h2v5.171M114.057 41.689h6v-2h-6zM114.057 45.688h6v-2h-6zM114.057 49.689h6v-2h-6zM130.057 41.689h6v-2h-6zM130.057 45.688h6v-2h-6zM130.057 49.689h6v-2h-6z"/><path fill="#48515A" d="M41.002 69.963h2v-4h-2zM41.002 79.963h2v-4h-2zM45.002 73.963h4v-2h-4zM213.014 101.956h2v-4h-2zM213.014 111.956h2v-4h-2zM217.014 105.956h4v-2h-4zM207.014 105.956h4v-2h-4z"/><path fill="#F58E70" d="M137.147 176l2.401-.001V173l2-1.25v-5.483a46.465 46.465 0 0 0-3.556-17.825 14.34 14.34 0 0 0-8.695-7.151l-.127-.037h-8a14.334 14.334 0 0 0-8.795 7.349 57.94 57.94 0 0 0-2.946 21.352l.119 2.378 2 .667v2.999h2l1.004-5.098h21.891l.704 5.099"/><path fill="#475059" d="M118.904 214.051h5.628a2.828 2.828 0 0 0-2.814-2.589 2.829 2.829 0 0 0-2.814 2.589zm7.638 2h-9.647v-1.765a4.83 4.83 0 0 1 4.823-4.824 4.83 4.83 0 0 1 4.824 4.824v1.765z"/><path fill="#475059" d="M129.723 211.462a2.827 2.827 0 0 0-2.813 2.591l5.628-.003a2.83 2.83 0 0 0-2.815-2.588zm-4.823 4.591v-1.766a4.83 4.83 0 0 1 4.822-4.825 4.83 4.83 0 0 1 4.825 4.822v1.766l-9.647.003z"/><path fill="#DFE0E0" d="M137.351 175.635h-24.125l2.005-4.624h20.985l1.135 4.624M121.188 142.255h7.982v-4.028h-7.982z"/><path fill="#475059" d="M118.556 211.127l-3.322-25.875 1.984-.254 3.321 25.875-1.983.254M113.552 170.909l-.109-13.89 2-.016.109 13.891-2 .015"/><path fill="#475059" d="M113.547 176.999h-3v-3.278l-1.964-.656-.153-3.06a58.71 58.71 0 0 1 2.997-21.721l.053-.129a15.394 15.394 0 0 1 8.695-7.633l.011-1.893-1.325-1.372a5.97 5.97 0 0 1-1.682-4.199l.009-1.736 2 .012-.009 1.734a3.98 3.98 0 0 0 1.122 2.8l1.889 1.958-.024 4.178-.715.21a13.377 13.377 0 0 0-8.151 6.774 56.745 56.745 0 0 0-2.873 20.917l.085 1.696 2.035.678v2.72h1v2m27 0h-3v-2h1v-2.554l2-1.25v-4.927a45.22 45.22 0 0 0-3.479-17.442c-1.631-3.134-4.58-5.558-8.052-6.575l-.841-.248-.025-4.177 1.897-1.966a3.951 3.951 0 0 0 1.115-2.782l-.01-1.702 2-.012.01 1.702a5.943 5.943 0 0 1-1.675 4.183l-1.332 1.38.011 1.888a15.418 15.418 0 0 1 8.713 7.464c2.446 5.877 3.668 12.003 3.668 18.287v6.037l-2 1.25v3.444M132.542 211.107l-1.989-.214 2.803-25.875 1.988.214-2.802 25.875"/><path fill="#475059" d="M135.443 171.011h2v-14h-2z"/><path fill="#475059" d="M114.552 171.901h21.891v-2h-21.891zM124.442 213h2v-28.125h-2zM124.444 140.011c-.077 0-.156-.009-.235-.028l-3.255-.783a1 1 0 0 1 .468-1.945l3.255.783a1.002 1.002 0 0 1-.233 1.973m-8.843-5.017h-3.625v-2.499c0-2.757 2.243-5 5-5h.234a7.89 7.89 0 0 1 2.335-5.179 7.894 7.894 0 0 1 5.596-2.305h.067c2.103 0 4.088.818 5.587 2.305a7.883 7.883 0 0 1 2.336 5.179h.26c2.756 0 5 2.243 5 5h-2c0-1.654-1.346-3-3-3h-2.247v-1.563a5.91 5.91 0 0 0-1.757-4.196 5.923 5.923 0 0 0-4.213-1.725h-.025a5.912 5.912 0 0 0-4.195 1.725 5.91 5.91 0 0 0-1.757 4.2v1.559h-2.221c-1.655 0-3 1.346-3 3v.499h1.625v2"/><path fill="#475059" d="M120.809 129.411v-2a3.337 3.337 0 0 0 3.333-3.333h2a5.339 5.339 0 0 1-5.333 5.333"/><path fill="#475059" d="M129.476 129.411a5.34 5.34 0 0 1-5.334-5.333h2a3.337 3.337 0 0 0 3.334 3.333v2M138.391 135.036h-3.374v-2h1.374v-.541h2v2.541M139.474 186h-27.926l.015-3.173 1.915-10.92v-3.913h2l-.016 4.173-1.914 10.92V184h23.926v-.91l-1.999-11.096v-4h2v3.91L139.474 183v3"/><path fill="#475059" d="M113.73 169.901h23.585l.704 5.099.528-.001v-2.554l2-1.25v-4.927a45.22 45.22 0 0 0-3.479-17.442c-1.63-3.131-4.574-5.554-8.042-6.572h-7.71a13.384 13.384 0 0 0-8.016 6.734 56.745 56.745 0 0 0-2.873 20.917l.085 1.696 2.035.678v2.72h.178l1.005-5.098zM136.276 177l-.704-5.099h-20.197l-1.005 5.098h-3.823v-3.278l-1.964-.656-.153-3.06a58.71 58.71 0 0 1 2.997-21.721l.053-.129a15.39 15.39 0 0 1 9.41-7.861l.28-.04 8.409.078a15.408 15.408 0 0 1 9.3 7.649c2.446 5.877 3.668 12.003 3.668 18.287v6.037l-2 1.25v3.444l-4.271.001z"/></g></svg>