<?xml version="1.0" encoding="utf-8"?><svg xmlns="http://www.w3.org/2000/svg" width="250" height="250" viewBox="0 0 250 250"><g fill="none" fill-rule="evenodd"><path fill="#DDDED9" d="M143.685 93.357c-9.312 0-16.98 6.974-18.106 15.981a28.55 28.55 0 0 0 1.116 5.622c2.665-6.786 9.259-11.597 16.99-11.597h39.065a28.544 28.544 0 0 0-3.03-10.006h-36.035m-36.528 0H71.172a28.522 28.522 0 0 0-3.029 10.006h39.014c7.761 0 14.374 4.849 17.019 11.675a28.539 28.539 0 0 0 1.119-5.49c-1.03-9.109-8.753-16.191-18.138-16.191"/><path fill="#42494E" d="M45.76 179.96c-1.654 0-3 1.346-3 3s1.346 3 3 3h153.782l6.506-3-6.506-3H45.76zm154.221 8H45.76c-2.757 0-5-2.243-5-5s2.243-5 5-5h154.221l10.843 5-10.843 5z"/><path fill="#42494E" d="M51.371 186.96h2v-7.598h-2z"/><path fill="#42494E" d="M52.371 183.932h146.622v-2H52.371z"/><path fill="#DDDED9" d="M154.187 135.297a28.609 28.609 0 0 1-16.034-4.885l-12.732 12.41-12.703-12.396a28.607 28.607 0 0 1-16.011 4.87c-13.992 0-25.644-10-28.212-23.241a28.844 28.844 0 0 0-.533 5.503c.001 15.875 12.87 28.745 28.745 28.745a28.608 28.608 0 0 0 16.011-4.871l12.703 12.396 12.732-12.41a28.609 28.609 0 0 0 16.034 4.885c15.875 0 28.744-12.869 28.744-28.744 0-1.883-.187-3.721-.533-5.503-2.568 13.241-14.219 23.241-28.211 23.241"/><path fill="#FACD60" d="M125.447 120.037a31.703 31.703 0 0 1-8.336 10.828l8.298 7.822 8.28-7.899a31.754 31.754 0 0 1-8.242-10.751"/><path fill="#42494E" d="M90.847 167.805c-6.345-10.685-11.883-29.865-12.909-38.373l1.986-.241c1.005 8.339 6.43 27.129 12.642 37.592l-1.719 1.022m34.606 36.585l-5.531-3.971c-5.012-3.598-10.874-8.606-14.93-12.759l1.429-1.398c3.984 4.077 9.741 8.997 14.667 12.532l4.361 3.131 4.302-3.112c5.347-3.867 10.512-8.867 13.903-12.379l1.439 1.388c-3.447 3.572-8.704 8.658-14.17 12.612l-5.47 3.956m28.731-125.581c-7.41 0-14.376 2.885-19.616 8.126-5.24 5.24-8.126 12.207-8.126 19.617 0 15.299 12.446 27.745 27.745 27.745 7.411 0 14.378-2.886 19.618-8.126 5.24-5.24 8.125-12.207 8.125-19.618 0-15.298-12.446-27.744-27.744-27.744h-.002zm.003 57.488c-16.401 0-29.745-13.344-29.745-29.745 0-7.945 3.094-15.414 8.712-21.032 5.617-5.618 13.087-8.711 21.03-8.711h.002c16.401 0 29.744 13.342 29.744 29.744 0 7.945-3.093 15.414-8.711 21.032s-13.087 8.712-21.032 8.712z"/><path fill="#42494E" d="M96.706 78.808c-15.297 0-27.744 12.446-27.744 27.744s12.447 27.744 27.744 27.744c15.298 0 27.745-12.446 27.745-27.744s-12.447-27.744-27.745-27.744zm0 57.488c-16.401 0-29.744-13.343-29.744-29.744 0-16.402 13.343-29.744 29.744-29.744 16.402 0 29.745 13.342 29.745 29.744 0 16.401-13.343 29.744-29.745 29.744z"/><path fill="#42494E" d="M126.421 111.621h-2c0-9.519-7.745-17.265-17.264-17.265H60.193v-2h46.964c10.623 0 19.264 8.642 19.264 19.265"/><path fill="#42494E" d="M126.421 111.621h-2c0-10.622 8.642-19.264 19.264-19.264h46.965v2h-46.965c-9.519 0-17.264 7.745-17.264 17.264"/><path fill="#42494E" d="M154.108 94.357a5.53 5.53 0 0 0-5.524 5.523 5.53 5.53 0 0 0 5.524 5.522 5.528 5.528 0 0 0 5.522-5.522 5.529 5.529 0 0 0-5.522-5.523zm0 13.045c-4.149 0-7.524-3.375-7.524-7.522 0-4.148 3.375-7.523 7.524-7.523 4.147 0 7.522 3.375 7.522 7.523 0 4.147-3.375 7.522-7.522 7.522zM96.706 94.356a5.53 5.53 0 0 0-5.522 5.524 5.529 5.529 0 0 0 5.522 5.522 5.53 5.53 0 0 0 5.524-5.522 5.53 5.53 0 0 0-5.524-5.524zm0 13.046c-4.147 0-7.522-3.375-7.522-7.522 0-4.149 3.375-7.524 7.522-7.524 4.149 0 7.524 3.375 7.524 7.524 0 4.147-3.375 7.522-7.524 7.522zM125.422 144.19l-13.742-12.803 1.363-1.463 12.375 11.528 12.351-11.577 1.367 1.459-13.714 12.856"/><path fill="#42494E" d="M126.442 103.943h-2V90.965c0-15.275-12.426-27.7-27.7-27.7H62.414l17.495 19.763-1.498 1.326-20.439-23.089h38.77c16.377 0 29.7 13.323 29.7 29.7v12.978"/><path fill="#42494E" d="M126.421 103.943h-2V90.965c0-16.377 13.324-29.7 29.701-29.7h38.769l-20.438 23.089-1.498-1.326 17.495-19.763h-34.328c-15.275 0-27.701 12.425-27.701 27.7v12.978"/><path fill="#42494E" d="M151.731 62.804c-5.364-9.372-15.397-15.194-26.183-15.194h-.326c-10.726 0-20.732 5.775-26.112 15.07l-1.731-1.002c5.737-9.911 16.406-16.068 27.843-16.068h.326c11.501 0 22.2 6.207 27.919 16.2l-1.736.994M76.562 169.545L69.198 159.3c-6.179-8.596-9.632-18.42-9.986-28.41a51.46 51.46 0 0 1-.034-1.886v-4.12c0-5.564 3.289-10.61 8.38-12.856l.807 1.83a12.058 12.058 0 0 0-7.187 11.026v4.12c0 .606.011 1.21.032 1.814.34 9.595 3.663 19.04 9.611 27.314l7.364 10.245-1.623 1.168m83.535-1.74l-1.719-1.022c6.212-10.463 11.637-29.253 12.642-37.592l1.986.241c-1.026 8.508-6.564 27.688-12.909 38.373"/><path fill="#4E6576" d="M125.447 106.731c0-.06.004-.119.004-.179s-.004-.119-.004-.178c-.001.059-.005.118-.005.178s.004.119.005.179"/><path fill="#42494E" d="M125.449 106.552h-.002.004-.002zm-.002.178l-.264-.009-.736.009v-.357h2l.004.195-.005.107.001.039-1 .016z"/><path fill="#DDDED9" d="M174.199 90.357a25.645 25.645 0 0 0-20.013-9.549c-9.648 0-18.099 5.368-22.504 13.275a21.16 21.16 0 0 1 12.003-3.726h30.514m-77.493-9.549a25.647 25.647 0 0 0-20.013 9.549h30.464c4.466 0 8.636 1.38 12.078 3.756-4.399-7.917-12.863-13.305-22.529-13.305"/><path fill="#FACD60" d="M166.829 178.868c.991-4.125 3.475-6.907 6.535-6.907 3.991 0 7 4.729 7 11s-3.009 11-7 11c-.662 0-1.296-.13-1.895-.376-1.453-.596-1.682-2.563-.409-3.482.543-.392 1.27-.537 1.875-.249.149.071.293.107.429.107 1.195 0 3-2.792 3-7s-1.805-7-3-7c-.746 0-1.731 1.091-2.365 2.936"/><path fill="#42494E" d="M173.365 194.961a5.945 5.945 0 0 1-2.276-.451 2.962 2.962 0 0 1-1.839-2.424 2.97 2.97 0 0 1 1.223-2.793c.885-.638 1.991-.769 2.891-.343.458-.109 2.001-2.148 2.001-5.989 0-3.841-1.543-5.88-2.032-6.003-.133.05-.844.678-1.389 2.264l-1.891-.651c.765-2.226 2.034-3.61 3.312-3.61 2.131 0 4 3.738 4 8 0 4.262-1.869 8-4 8-.288 0-.578-.069-.863-.206-.228-.108-.575-.044-.858.159a.987.987 0 0 0-.408.937.98.98 0 0 0 .612.809c.487.199.997.301 1.517.301 3.421 0 6-4.299 6-10s-2.579-10-6-10c-2.484 0-4.667 2.41-5.564 6.141l-1.945-.467c1.138-4.734 4.015-7.674 7.509-7.674 4.56 0 8 5.159 8 12s-3.44 12-8 12"/><path fill="#FACD60" d="M157.823 178.868c.992-4.125 3.475-6.907 6.536-6.907 3.991 0 7 4.729 7 11s-3.009 11-7 11a4.95 4.95 0 0 1-1.895-.376c-1.453-.596-1.683-2.563-.41-3.482.544-.392 1.27-.537 1.876-.249a.998.998 0 0 0 .429.107c1.194 0 3-2.792 3-7s-1.806-7-3-7c-.747 0-1.732 1.091-2.366 2.936"/><path fill="#42494E" d="M164.359 194.961a5.945 5.945 0 0 1-2.276-.451 2.965 2.965 0 0 1-1.839-2.425 2.97 2.97 0 0 1 1.225-2.792c.883-.638 1.99-.769 2.89-.343.457-.109 2-2.148 2-5.989 0-3.841-1.543-5.88-2.032-6.003-.132.05-.843.678-1.388 2.264l-1.891-.651c.765-2.226 2.034-3.61 3.311-3.61 2.131 0 4 3.738 4 8 0 4.262-1.869 8-4 8-.287 0-.577-.069-.861-.206-.228-.108-.575-.044-.859.159a.99.99 0 0 0-.409.936.98.98 0 0 0 .613.81c.487.199.996.301 1.516.301 3.421 0 6-4.299 6-10s-2.579-10-6-10c-2.483 0-4.666 2.41-5.563 6.141l-1.945-.467c1.138-4.734 4.015-7.674 7.508-7.674 4.56 0 8 5.159 8 12s-3.44 12-8 12"/><path fill="#FACD60" d="M155.354 171.961c-2.83 0-5.164 2.381-6.284 6h4.305c.606-1.266 1.37-2 1.979-2 1.194 0 3 2.792 3 7s-1.806 7-3 7c-.137 0-.281-.036-.43-.107-.605-.288-1.332-.143-1.875.249-1.273.919-1.043 2.886.409 3.482a4.96 4.96 0 0 0 1.896.376c3.99 0 7-4.729 7-11s-3.01-11-7-11"/><path fill="#42494E" d="M155.353 194.961a5.935 5.935 0 0 1-2.274-.451 2.963 2.963 0 0 1-1.84-2.424 2.97 2.97 0 0 1 1.223-2.793c.885-.638 1.991-.769 2.891-.343.457-.109 2-2.148 2-5.989 0-3.841-1.543-5.88-2.032-6.003-.132.05-.843.678-1.388 2.264l-1.891-.651c.765-2.226 2.034-3.61 3.311-3.61 2.131 0 4 3.738 4 8 0 4.262-1.869 8-4 8-.287 0-.577-.069-.861-.206-.228-.108-.575-.044-.859.159a.992.992 0 0 0-.408.937.983.983 0 0 0 .612.809c.488.199.996.301 1.516.301 3.421 0 6-4.299 6-10s-2.579-10-6-10c-2.482 0-4.666 2.41-5.562 6.141l-1.946-.467c1.138-4.734 4.015-7.674 7.508-7.674 4.561 0 8 5.159 8 12s-3.439 12-8 12"/><path fill="#FACD60" d="M81.138 178.897c-.634-1.845-1.62-2.936-2.366-2.936-1.195 0-3 2.792-3 7s1.805 7 3 7c.136 0 .28-.036.429-.107.606-.288 1.332-.143 1.876.249 1.273.919 1.043 2.886-.41 3.482a4.954 4.954 0 0 1-1.895.376c-3.991 0-7-4.729-7-11s3.009-11 7-11c3.061 0 5.544 2.782 6.535 6.907"/><path fill="#42494E" d="M78.772 194.961c-4.561 0-8-5.159-8-12s3.439-12 8-12c3.493 0 6.37 2.94 7.508 7.674l-1.945.467c-.897-3.731-3.081-6.141-5.563-6.141-3.421 0-6 4.299-6 10s2.579 10 6 10c.519 0 1.029-.102 1.516-.301a.985.985 0 0 0 .613-.809.994.994 0 0 0-.41-.937c-.281-.204-.629-.268-.862-.157a1.97 1.97 0 0 1-.857.204c-2.131 0-4-3.738-4-8 0-4.262 1.869-8 4-8 1.277 0 2.546 1.384 3.31 3.61l-1.89.651c-.545-1.586-1.256-2.214-1.453-2.264-.424.123-1.967 2.162-1.967 6.003s1.543 5.88 2.032 6.003c.868-.441 1.975-.309 2.858.329a2.969 2.969 0 0 1 1.224 2.793 2.962 2.962 0 0 1-1.839 2.424c-.727.3-1.493.451-2.275.451"/><path fill="#FACD60" d="M90.143 178.897c-.634-1.845-1.619-2.936-2.366-2.936-1.194 0-3 2.792-3 7s1.806 7 3 7a.998.998 0 0 0 .429-.107c.606-.288 1.332-.143 1.876.249 1.273.919 1.043 2.886-.409 3.482a4.96 4.96 0 0 1-1.896.376c-3.991 0-7-4.729-7-11s3.009-11 7-11c3.061 0 5.544 2.782 6.536 6.907"/><path fill="#42494E" d="M87.777 194.961c-4.561 0-8-5.159-8-12s3.439-12 8-12c3.494 0 6.371 2.94 7.509 7.674l-1.946.467c-.896-3.731-3.08-6.141-5.563-6.141-3.421 0-6 4.299-6 10s2.579 10 6 10c.519 0 1.029-.102 1.516-.301a.982.982 0 0 0 .613-.809.99.99 0 0 0-.409-.937c-.284-.204-.629-.267-.862-.157a1.97 1.97 0 0 1-.858.204c-2.131 0-4-3.738-4-8 0-4.262 1.869-8 4-8 1.277 0 2.547 1.384 3.311 3.61l-1.89.651c-.545-1.586-1.256-2.214-1.453-2.264-.425.123-1.968 2.162-1.968 6.003s1.543 5.88 2.032 6.003c.87-.441 1.976-.309 2.859.329a2.968 2.968 0 0 1 1.224 2.793 2.962 2.962 0 0 1-1.841 2.424c-.726.3-1.492.451-2.274.451"/><path fill="#FACD60" d="M96.783 171.961c2.829 0 5.163 2.381 6.283 6h-4.305c-.606-1.266-1.37-2-1.978-2-1.195 0-3 2.792-3 7s1.805 7 3 7c.136 0 .28-.036.429-.107.605-.288 1.332-.143 1.875.249 1.273.919 1.044 2.886-.409 3.482a4.954 4.954 0 0 1-1.895.376c-3.991 0-7-4.729-7-11s3.009-11 7-11"/><path fill="#42494E" d="M96.783 194.961c-4.561 0-8-5.159-8-12s3.439-12 8-12c3.493 0 6.37 2.94 7.508 7.674l-1.946.467c-.896-3.731-3.08-6.141-5.562-6.141-3.421 0-6 4.299-6 10s2.579 10 6 10c.519 0 1.029-.102 1.515-.301a.982.982 0 0 0 .614-.81.991.991 0 0 0-.41-.936c-.283-.204-.629-.268-.862-.157a1.97 1.97 0 0 1-.857.204c-2.131 0-4-3.738-4-8 0-4.262 1.869-8 4-8 1.277 0 2.546 1.384 3.31 3.61l-1.89.651c-.545-1.586-1.256-2.214-1.454-2.264-.423.123-1.966 2.162-1.966 6.003s1.543 5.88 2.032 6.003c.867-.441 1.975-.309 2.857.329a2.969 2.969 0 0 1 1.226 2.792 2.965 2.965 0 0 1-1.84 2.425c-.727.3-1.493.451-2.275.451M73.863 96.94c-.5-.229-.71-.83-.48-1.33.24-.5.829-.71 1.329-.479.5.24.721.83.481 1.33a.99.99 0 0 1-.9.58.921.921 0 0 1-.43-.101zm-1.24 3.801a.997.997 0 0 1 .54-1.921c.54.151.839.7.69 1.231a.993.993 0 0 1-1.23.69zm-.61 3.949a.983.983 0 0 1-.88-1.099c.06-.55.55-.95 1.1-.88.55.06.95.56.88 1.109-.06.5-.49.881-.99.881-.041 0-.08 0-.11-.011zm49.4 3.471a.996.996 0 0 1-.97-1.02 1 1 0 1 1 2 .049.998.998 0 0 1-1 .971h-.03zm-50.42-.42a.988.988 0 0 1 .95-1.04.99.99 0 0 1 1.04.949.989.989 0 0 1-.95 1.04h-.05c-.53 0-.97-.41-.99-.949zm49.85 4.38c-.54-.1-.9-.63-.801-1.17.101-.54.621-.9 1.17-.801.54.101.901.621.801 1.17a.997.997 0 0 1-.98.811c-.06 0-.12 0-.19-.01zm-49.33-.261a.994.994 0 0 1 .77-1.179c.54-.12 1.07.23 1.19.77.109.54-.23 1.07-.77 1.19-.07.009-.14.02-.21.02-.47 0-.88-.33-.98-.801zm48.13 4.071a1 1 0 0 1-.601-1.281.995.995 0 0 1 1.281-.599c.52.19.79.76.599 1.28a.995.995 0 0 1-1.279.6zm-46.94-.08a.984.984 0 0 1 .57-1.29.991.991 0 0 1 1.29.57 1.002 1.002 0 0 1-.93 1.36.99.99 0 0 1-.93-.64zm45.13 3.64a.993.993 0 0 1-.39-1.36.997.997 0 0 1 1.36-.38c.489.27.659.88.39 1.359a1.01 1.01 0 0 1-.87.511c-.17 0-.34-.04-.49-.13zm-43.32.1a.998.998 0 0 1 .36-1.37c.47-.281 1.08-.12 1.37.349a.998.998 0 0 1-.36 1.37.928.928 0 0 1-.51.141c-.34 0-.67-.17-.86-.49zm40.949 3.13a1.01 1.01 0 0 1-.159-1.41h.01c.34-.43.97-.5 1.399-.15a1 1 0 1 1-1.25 1.56zm-38.549.27a.998.998 0 0 1 1.53-1.28.99.99 0 0 1-.13 1.41.95.95 0 0 1-.63.23.979.979 0 0 1-.77-.36zm35.71 2.539a.986.986 0 0 1 .06-1.409.988.988 0 0 1 1.41.06c.38.41.35 1.04-.06 1.41a.976.976 0 0 1-.68.269.957.957 0 0 1-.73-.33zm-32.81.431a.999.999 0 1 1 1.41-.101.987.987 0 0 1-1.41.101zm29.55 1.89c-.3-.46-.17-1.08.29-1.39a.993.993 0 0 1 1.38.3.988.988 0 0 1-.83 1.54c-.33 0-.65-.16-.84-.45zm-26.21.58c-.47-.29-.61-.91-.321-1.38.291-.46.911-.611 1.38-.321.471.291.611.911.321 1.38-.19.301-.52.471-.85.471-.181 0-.36-.051-.53-.15zm22.62 1.179c-.22-.509.01-1.099.51-1.319.509-.221 1.1.01 1.32.51a1.006 1.006 0 0 1-.91 1.41c-.39 0-.75-.231-.92-.601zm-18.93.721a.99.99 0 0 1-.53-1.31c.21-.5.79-.75 1.3-.541.51.221.75.8.54 1.311a.992.992 0 0 1-1.31.54zm15.1.43c-.14-.531.19-1.08.72-1.22a1.01 1.01 0 0 1 1.22.72 1.002 1.002 0 0 1-.97 1.25c-.44 0-.85-.3-.97-.75zm-11.14.849a.995.995 0 0 1-.74-1.199c.12-.54.66-.87 1.2-.74v-.01a1 1 0 0 1 .739 1.21 1 1 0 0 1-.969.77c-.08 0-.15-.01-.23-.031zm7.18-.33a.983.983 0 0 1 .9-1.079 1 1 0 0 1 1.09.9c.05.549-.36 1.04-.91 1.089h-.09a.99.99 0 0 1-.99-.91zm-3.07.95a.997.997 0 0 1 .14-1.989c.55.039.96.51.93 1.06-.04.53-.481.929-1 .929h-.07zm30.536-25.678h-.002.004-.002zm-.002.178l-.264-.009-.736.009v-.357h2l.004.195-.005.107.001.039-1 .016zm28.661-12.373a5.53 5.53 0 0 0-5.524 5.523 5.53 5.53 0 0 0 5.524 5.522 5.528 5.528 0 0 0 5.522-5.522 5.529 5.529 0 0 0-5.522-5.523zm0 13.045c-4.149 0-7.524-3.375-7.524-7.522 0-4.148 3.375-7.523 7.524-7.523 4.147 0 7.522 3.375 7.522 7.523 0 4.147-3.375 7.522-7.522 7.522zM96.706 94.356a5.53 5.53 0 0 0-5.522 5.524 5.529 5.529 0 0 0 5.522 5.522 5.53 5.53 0 0 0 5.524-5.522 5.53 5.53 0 0 0-5.524-5.524zm0 13.046c-4.147 0-7.522-3.375-7.522-7.522 0-4.149 3.375-7.524 7.522-7.524 4.149 0 7.524 3.375 7.524 7.524 0 4.147-3.375 7.522-7.524 7.522z"/><path fill="#75C7D0" d="M154.108 96.357a3.526 3.526 0 0 0-3.523 3.523 3.527 3.527 0 0 0 3.523 3.523 3.528 3.528 0 0 0 3.523-3.523 3.527 3.527 0 0 0-3.523-3.523m-57.401 0a3.526 3.526 0 0 0-3.523 3.523 3.526 3.526 0 0 0 3.523 3.522 3.526 3.526 0 0 0 3.522-3.522 3.526 3.526 0 0 0-3.522-3.523"/><path fill="#42494E" d="M176.983 100.121a.99.99 0 0 1 .7-1.23.996.996 0 0 1 .529 1.92.814.814 0 0 1-.259.04c-.44 0-.84-.29-.97-.73zm.729 3.79h.011a.985.985 0 0 1 .88-1.1.985.985 0 0 1 1.1.879.993.993 0 0 1-.88 1.101c-.04.01-.071.01-.111.01-.509 0-.939-.38-1-.89zm1.071 4.909a.996.996 0 0 1-.95-1.049 1 1 0 0 1 1.05-.951c.55.031.97.5.95 1.051-.03.529-.48.949-1.01.949h-.04zm-50.08 1.901h.009a.99.99 0 0 1 .821-1.14.998.998 0 1 1 .32 1.97c-.05.01-.11.01-.16.01-.481 0-.91-.35-.99-.84zm49.39 2.059a1.001 1.001 0 1 1 .42-1.96 1.003 1.003 0 0 1-.21 1.981c-.07 0-.14 0-.21-.021zm-48.381 2a.984.984 0 0 1 .631-1.259c.52-.18 1.09.1 1.26.629a.99.99 0 0 1-.63 1.261.84.84 0 0 1-.31.05c-.42 0-.81-.26-.951-.681zm47.051 1.801a.995.995 0 0 1-.56-1.301c.2-.509.78-.759 1.299-.559.511.2.761.78.561 1.3-.16.39-.54.629-.94.629-.121 0-.24-.029-.36-.069zm-45.4 2.05a1.007 1.007 0 0 1 .42-1.36 1.003 1.003 0 1 1-.42 1.36zm43.47 1.479c-.47-.29-.63-.899-.34-1.38.28-.469.9-.62 1.37-.339.47.29.63.9.34 1.37a.993.993 0 0 1-1.37.349zm-41.2 2.04a1.002 1.002 0 0 1 .18-1.409 1 1 0 0 1 1.399.19.99.99 0 0 1-.179 1.4c-.18.14-.4.21-.611.21a1 1 0 0 1-.789-.391zm38.73 1.13a.999.999 0 0 1-.12-1.409c.36-.42.99-.471 1.41-.12.42.359.47.99.12 1.41a.995.995 0 0 1-.771.36.96.96 0 0 1-.639-.241zm-35.941 1.981v-.01a.997.997 0 0 1-.029-1.41.995.995 0 0 1 1.41-.04c.4.38.42 1.01.04 1.42-.2.2-.46.309-.73.309-.24 0-.49-.09-.691-.269zm32.991.76a1 1 0 1 1 .759.35.977.977 0 0 1-.759-.35zm-29.73 1.86a.991.991 0 0 1-.261-1.39 1 1 0 0 1 1.391-.27c.45.309.57.94.26 1.389a.988.988 0 0 1-.83.441c-.19 0-.39-.05-.56-.17zm26.37.36a1.002 1.002 0 0 1 .34-1.37.991.991 0 0 1 1.37.33c.29.48.14 1.09-.33 1.38-.16.1-.34.14-.52.14-.34 0-.67-.17-.86-.48zm-22.73 1.699c-.5-.229-.72-.83-.49-1.33.24-.5.83-.719 1.33-.489.5.23.72.83.49 1.33a.994.994 0 0 1-.91.579c-.14 0-.281-.029-.42-.09zm19.07-.049a.998.998 0 0 1 .55-1.3c.51-.2 1.099.05 1.3.559a.999.999 0 0 1-.55 1.301c-.13.05-.25.07-.38.07a.991.991 0 0 1-.92-.63zm-15.141 1.49a1.012 1.012 0 0 1-.699-1.231.994.994 0 0 1 1.23-.699c.54.14.85.69.7 1.23a.994.994 0 0 1-.96.73c-.09 0-.18-.011-.271-.03zm11.241-.45c-.12-.54.219-1.08.759-1.201a1.025 1.025 0 0 1 1.201.761c.12.539-.23 1.079-.76 1.199-.08.011-.151.021-.22.021-.46 0-.87-.32-.98-.78zm-7.13 1.219h.01a1 1 0 0 1 .2-1.989h.01c.54.06.94.55.879 1.1a.996.996 0 0 1-.989.9c-.04 0-.07-.011-.11-.011zm3.13-.839a.995.995 0 0 1 .94-1.05 1.004 1.004 0 0 1 1.06.94c.03.55-.4 1.02-.951 1.05l.011.01h-.06a1 1 0 0 1-1-.95zm22.04-34.27a.994.994 0 0 1-1-1c0-.261.11-.521.29-.71.05-.04.099-.09.15-.12.06-.04.12-.07.18-.101.059-.019.12-.04.18-.049.33-.07.669.04.91.27.179.189.29.439.29.71a.99.99 0 0 1-1 1"/><path fill="#E9886C" d="M125.548 49.61h-.326c-8.5 0-16.514 3.883-21.815 10.363 9.774 2.104 17.87 8.742 22.022 17.551 4.139-8.79 12.204-15.414 21.948-17.536-5.3-6.491-13.313-10.378-21.829-10.378"/><path fill="#42494E" d="M174.337 169.513l.045.032.024-.032h-.069M189.766 124.884v4.12a47.027 47.027 0 0 1-1.166 10.507h2.044a49.076 49.076 0 0 0 1.122-10.507v-4.12c0-5.564-3.289-10.61-8.38-12.856l-.806 1.83a12.057 12.057 0 0 1 7.186 11.026M173.06 167.958l-.301.419.301.217v-.636M206.06 145.43v2h3v18.083h-32.083V147.43h3v-2h-5v22.083h36.083V145.43h-5"/><path fill="#42494E" d="M180.977 161.513h10.648l1.432 1.562 1.595-1.562h10.408V143.43h-9.592l-2.464 2.414-2.364-2.414h-9.663v18.083zm12.004 4.437l-2.235-2.437h-11.769V141.43h12.503l1.554 1.586 1.618-1.586h12.408v22.083h-11.592l-2.487 2.437z"/><path fill="#FFFFFE" d="M182.873 146.513h6.125"/><path fill="#42494E" d="M182.873 147.513h6.125v-2h-6.125z"/><path fill="#FFFFFE" d="M182.873 150.513h6.125"/><path fill="#42494E" d="M182.873 151.513h6.125v-2h-6.125z"/><path fill="#FFFFFE" d="M182.873 154.513h6.125"/><path fill="#42494E" d="M182.873 155.513h6.125v-2h-6.125z"/><path fill="#FFFFFE" d="M196.873 146.513h6.125"/><path fill="#42494E" d="M196.873 147.513h6.125v-2h-6.125z"/><path fill="#FFFFFE" d="M196.873 150.513h6.125"/><path fill="#42494E" d="M196.873 151.513h6.125v-2h-6.125z"/><path fill="#FFFFFE" d="M196.873 154.513h6.125"/><path fill="#42494E" d="M196.873 155.513h6.125v-2h-6.125z"/><path fill="#FFFFFE" d="M193.019 147.7v9.813"/><path fill="#42494E" d="M192.019 157.513h2V147.7h-2z"/><path fill="#FFFFFE" d="M182.873 158.513h6.125"/><path fill="#42494E" d="M182.873 159.513h6.125v-2h-6.125z"/><path fill="#FFFFFE" d="M196.873 158.513h6.125"/><path fill="#42494E" d="M196.873 159.513h6.125v-2h-6.125z"/><path fill="#434A4F" d="M35.447 146.968h2v-4h-2zM35.447 156.968h2v-4h-2zM39.447 150.968h4v-2h-4zM29.447 150.968h4v-2h-4zM212.553 191.994h2v-4h-2zM212.553 201.994h2v-4h-2zM216.553 195.994h4v-2h-4zM206.553 195.994h4v-2h-4zM202.547 101.94h2v-4h-2zM202.547 111.94h2v-4h-2zM206.547 105.94h4v-2h-4zM196.547 105.94h4v-2h-4z"/><path fill="#75C7D0" d="M51.373 97.461a2 2 0 1 1-4 0 2 2 0 0 1 4 0m152.5-23.5a2 2 0 1 1-4 0 2 2 0 0 1 4 0m-7.5 56a2 2 0 1 1 4 0 2 2 0 0 1-4 0m-141.5 34a2 2 0 1 1-3.999.001 2 2 0 0 1 3.999-.001m94 35.75a1.75 1.75 0 1 1 3.5 0 1.75 1.75 0 0 1-3.5 0m-103-77.25a3 3 0 1 1-6 0 3 3 0 0 1 6 0"/></g></svg>