<?xml version="1.0" encoding="utf-8"?><svg xmlns="http://www.w3.org/2000/svg" width="250" height="250" viewBox="0 0 250 250"><g fill="none" fill-rule="evenodd"><path fill="#42494E" d="M123.319 48.06a.983.983 0 0 1-.699-.29.898.898 0 0 1-.221-.32 1.059 1.059 0 0 1-.069-.39c0-.13.02-.26.069-.38.051-.12.131-.23.221-.33.04-.04.1-.08.15-.121a.548.548 0 0 1 .169-.089.67.67 0 0 1 .191-.06c.2-.04.4-.02.58.06a.982.982 0 0 1 .54.54c.05.12.08.25.08.38 0 .14-.03.259-.08.39a.883.883 0 0 1-.22.32.99.99 0 0 1-.711.29m-4 0a.99.99 0 0 1-.38-.07 1.045 1.045 0 0 1-.319-.22.898.898 0 0 1-.221-.32 1.07 1.07 0 0 1-.08-.39 1.024 1.024 0 0 1 .301-.71c.27-.27.72-.36 1.09-.21.06.02.12.049.17.089l.15.121c.09.1.17.21.22.33.05.12.069.25.069.38 0 .14-.019.259-.069.39-.05.119-.13.23-.22.32a.99.99 0 0 1-.711.29m4-3a.99.99 0 0 1-.989-1c0-.26.1-.52.29-.71l.15-.121a.548.548 0 0 1 .169-.089c.25-.1.531-.1.771 0 .12.049.229.12.32.21.19.19.3.45.3.71a1 1 0 0 1-.3.71c-.18.19-.44.29-.711.29m-4 0a.982.982 0 0 1-.38-.081.855.855 0 0 1-.319-.209 1 1 0 0 1-.301-.71c0-.26.111-.52.301-.71a1.013 1.013 0 0 1 1.41 0c.19.19.289.45.289.71a.989.989 0 0 1-1 1m4.011 162.1c-.27 0-.52-.1-.71-.301a.947.947 0 0 1-.29-.699c0-.27.1-.52.29-.71.37-.37 1.04-.381 1.41 0 .19.19.289.44.289.71 0 .26-.099.51-.289.699a.995.995 0 0 1-.7.301m-4.011 0a.95.95 0 0 1-.699-.301.973.973 0 0 1 0-1.409c.359-.37 1.04-.37 1.41 0 .05.05.09.1.13.15.029.06.06.11.09.17.02.07.04.129.06.19.009.07.02.13.02.2 0 .26-.11.51-.3.699a.958.958 0 0 1-.711.301"/><path fill="#DBDBD5" d="M83.514 165l-3.5-2.833-10.5 7.583 3.333 3L83.514 165M83.514 90.333l-3.5-2.833-10.5 7.583 3.333 3 10.667-7.75"/><path fill="#42494E" d="M88.27 162.808l-1.179-1.616 24.86-18.137c6.606-4.822 10.243-11.263 10.243-18.137 0-6.874-3.637-13.314-10.243-18.136L68.059 74.741l1.179-1.615 43.893 32.041c7.135 5.208 11.063 12.222 11.063 19.751 0 7.529-3.928 14.544-11.063 19.752L88.27 162.808M59.668 68.615l-2.75-2.007c-2.464-1.798-4.496-3.844-6.038-6.081l1.646-1.134c1.414 2.049 3.289 3.934 5.572 5.6L60.848 67l-1.18 1.615M47.999 54.222a17.29 17.29 0 0 1-.502-4.234l2 .012a15.346 15.346 0 0 0 .443 3.743l-1.941.479"/><path fill="#42494E" d="M97.09 100.886L54.56 69.84c-7.179-5.24-11.108-12.299-11.063-19.875l2 .012c-.041 6.916 3.597 13.396 10.242 18.248L98.27 99.27l-1.18 1.616m17.411 13.822c-1.32-1.702-2.972-3.281-4.908-4.695l-2.245-1.639 1.179-1.615 2.245 1.638c2.088 1.525 3.874 3.236 5.309 5.084l-1.58 1.227m5.171 14.425l-1.94-.487a15.312 15.312 0 0 0 .111-6.984l1.953-.428a17.225 17.225 0 0 1-.124 7.899m-11.156 13.947l-1.176-1.617 2.255-1.64c1.993-1.455 3.681-3.084 5.018-4.841l1.592 1.211c-1.454 1.911-3.282 3.676-5.433 5.246l-2.256 1.641M84.602 160.476l-1.176-1.618 12.651-9.203 1.176 1.617-12.651 9.204M88.186 88.058l-1.179-1.616 24.944-18.217c6.646-4.852 10.283-11.332 10.243-18.248l2-.012c.044 7.576-3.885 14.635-11.063 19.875L88.186 88.058"/><path fill="#42494E" d="M84.604 85.725l-1.18-1.616 26.169-19.116c5.579-4.073 8.634-9.397 8.601-14.993l2-.012c.036 6.256-3.31 12.158-9.422 16.62L84.604 85.725m35.586 114.236l-2-.043c.121-5.68-2.933-11.086-8.597-15.221l-40.418-29.431-14.607-10.59c-7.14-5.212-11.072-12.229-11.072-19.758 0-7.528 3.929-14.543 11.064-19.752l25.109-18.554 1.189 1.61-25.114 18.556c-6.61 4.826-10.248 11.267-10.248 18.14 0 6.874 3.64 13.316 10.249 18.141l14.606 10.588 40.42 29.434c6.208 4.532 9.553 10.526 9.419 16.88"/><path fill="#42494E" d="M124.189 200.046l-2-.043c.149-7.025-3.488-13.609-10.24-18.538l-38.031-27.69-16.997-12.335c-6.079-4.437-9.425-10.304-9.425-16.522 0-6.218 3.346-12.085 9.422-16.521l26.175-19.039 1.176 1.618-26.173 19.038c-5.545 4.048-8.6 9.341-8.6 14.904 0 5.562 3.055 10.856 8.602 14.905l16.996 12.334 38.034 27.692c7.296 5.326 11.224 12.499 11.061 20.197"/><path fill="#42494E" d="M43.497 199.82c-.078-7.611 3.851-14.704 11.063-19.969l24.86-18.323 1.187 1.61-24.864 18.325c-6.681 4.878-10.318 11.389-10.246 18.336l-2 .021"/><path fill="#42494E" d="M47.497 199.779c-.064-6.285 3.281-12.215 9.421-16.697l2.045-1.616 1.24 1.568-2.075 1.64c-5.635 4.115-8.69 9.464-8.631 15.084l-2 .021M69.293 176.374l-1.17-1.623 14.889-10.73 1.17 1.624-14.889 10.729M49.638 133.014h31.713v-2H49.638zM65.345 147.076h16.006v-2H65.345zM64.614 104.791H81.35v-2H64.614zM49.699 119H81.35v-2H49.699zM86.479 133.014h35.374v-2H86.479zM86.479 147.076h22.874v-2H86.479zM86.479 104.791h22.707v-2H86.479zM86.479 119h35.207v-2H86.479zM81.351 179.791l-23.33-.001v-2l23.33.001v2"/><path fill="#42494E" d="M81.351 194l-35.08-.001v-2l35.08.001v2M86.479 179.791h16.736v-2H86.479zM86.479 194h31.2v-2h-31.2zM45.854 58.014h35.497v-2H45.854zM58.021 72.076h23.33v-2h-23.33zM86.479 58.014h30.713v-2H86.479zM86.479 72.076h16.007v-2H86.479zM48.58 48.13c-.141 0-.27-.03-.391-.08a.871.871 0 0 1-.319-.22c-.09-.09-.17-.2-.221-.32a.976.976 0 0 1 .221-1.09c.27-.28.72-.37 1.09-.22a.87.87 0 0 1 .32.22.975.975 0 0 1 .22 1.09c-.05.12-.12.23-.22.32a.995.995 0 0 1-.7.3m-4.011 0a1 1 0 0 1-.699-.3.89.89 0 0 1-.221-.32.976.976 0 0 1 .221-1.09.86.86 0 0 1 .319-.22c.371-.15.811-.06 1.091.22.19.18.289.439.289.7 0 .14-.019.27-.069.39s-.13.23-.22.32a1 1 0 0 1-.711.3m4.011-3.01a.99.99 0 0 1-.71-.29.89.89 0 0 1-.221-.32c-.049-.13-.08-.25-.08-.39 0-.13.031-.261.08-.38.051-.12.131-.23.221-.32a.86.86 0 0 1 .319-.22c.371-.15.811-.06 1.091.22.1.09.17.2.22.32.05.119.08.25.08.38 0 .14-.03.26-.08.39-.05.12-.12.23-.22.32-.091.09-.2.17-.32.22-.12.05-.25.07-.38.07m-4.011 0a.99.99 0 0 1-.38-.07c-.12-.05-.229-.13-.319-.22a.89.89 0 0 1-.221-.32c-.049-.13-.08-.25-.08-.39 0-.13.031-.261.08-.38a.89.89 0 0 1 .221-.32.99.99 0 0 1 .9-.28c.06.02.129.03.19.06.06.02.109.06.17.09.05.04.099.08.15.13.09.09.159.2.22.32.05.119.069.25.069.38 0 .14-.019.26-.069.39a1.016 1.016 0 0 1-.931.61m4.011 162.1a.99.99 0 0 1-1-1c0-.13.02-.26.069-.38a1.2 1.2 0 0 1 .221-.33c.09-.09.199-.16.319-.21a.998.998 0 0 1 1.311.54c.05.12.069.25.069.38a.989.989 0 0 1-.989 1m-4.011 0a.972.972 0 0 1-.38-.071.992.992 0 0 1-.319-.219 1 1 0 0 1-.301-.71c0-.13.031-.26.08-.38.051-.12.121-.231.221-.33a.99.99 0 0 1 1.09-.21c.06.019.109.05.17.09l.15.12c.19.19.289.45.289.71a.989.989 0 0 1-1 1m4.042-3.367c-.26 0-.51-.11-.699-.29a1.02 1.02 0 0 1-.29-.71c0-.259.099-.519.29-.71a.921.921 0 0 1 .149-.12c.05-.04.111-.07.17-.089a.67.67 0 0 1 .191-.06c.2-.04.4-.021.58.06.12.049.229.12.32.209.1.09.17.201.22.331.049.12.08.25.08.379a1 1 0 0 1-.3.71c-.181.18-.44.29-.711.29m-4 0c-.13 0-.26-.03-.38-.08a.968.968 0 0 1-.319-.21 1.012 1.012 0 0 1-.301-.71c0-.129.03-.259.08-.379a.84.84 0 0 1 .221-.331c.359-.37 1.04-.37 1.41 0a.96.96 0 0 1 .289.71.99.99 0 0 1-.289.71.982.982 0 0 1-.32.21c-.121.05-.25.08-.391.08m78.75-.059c-.26 0-.51-.11-.699-.301a.976.976 0 0 1-.29-.699c0-.271.099-.521.29-.71.04-.051.099-.091.149-.131.05-.029.111-.06.17-.09.061-.019.13-.04.191-.05.2-.04.4-.019.58.05.12.051.229.13.32.221.1.09.17.199.22.319.049.13.08.25.08.391 0 .26-.111.51-.3.699a.981.981 0 0 1-.711.301m-4 0a.995.995 0 0 1-.699-.301.987.987 0 0 1-.301-.699c0-.141.03-.261.08-.391a.874.874 0 0 1 .221-.319c.269-.28.72-.37 1.09-.221.12.051.229.13.32.221.09.09.17.199.22.319.049.13.069.25.069.391 0 .26-.1.51-.289.699a.873.873 0 0 1-.32.221c-.12.05-.25.08-.391.08"/><path fill="#DBDBD5" d="M164.02 127.25l3.5-2.833 10.5 7.583-3.333 3-10.667-7.75"/><path fill="#42494E" d="M131.958 170.514h30.712v-2h-30.712zM146.664 184.576h16.006v-2h-16.006zM145.934 142.291h16.736v-2h-16.736zM132.019 156.5h30.651v-2h-30.651zM167.799 184.576h22.222v-2h-22.222zM127.021 95.514h35.649v-2h-35.649zM139.771 109.576h22.899v-2h-22.899zM167.799 95.514h30.713v-2h-30.713zM167.799 109.576h17.007v-2h-17.007z"/><path fill="#42494E" d="M155.726 196.519l-19.837-14.342c-7.142-5.213-11.074-12.23-11.074-19.759s3.929-14.543 11.064-19.751l55.033-40.174c5.253-3.834 8.3-8.838 8.579-14.091l.019-.982c.12-5.683-2.934-11.088-8.598-15.222L170.613 57.42l1.178-1.617 20.3 14.779c6.208 4.531 9.553 10.525 9.419 16.879l-.02 1.015c-.314 5.898-3.651 11.437-9.398 15.632l-55.033 40.174c-6.606 4.822-10.244 11.262-10.244 18.136 0 6.874 3.64 13.316 10.249 18.141l19.833 14.338-1.171 1.622"/><path fill="#42494E" d="M158.557 193.726l-20.319-14.786c-6.077-4.436-9.423-10.303-9.423-16.522 0-6.219 3.346-12.085 9.422-16.521l55.034-40.172c6.645-4.852 10.283-11.332 10.243-18.248l-.001-.129c.003-.279.001-.539-.007-.798l-.052-.989c-.493-6.267-4.11-12.161-10.185-16.595l-20.301-14.78 1.178-1.618 20.301 14.782c6.26 4.57 10.105 10.624 10.907 17.132h.089l.063 2.032c.008.263.01.549.007.837l.001.112c.044 7.578-3.886 14.637-11.064 19.877l-55.033 40.173c-5.547 4.049-8.602 9.342-8.602 14.905 0 5.563 3.055 10.857 8.602 14.906l20.317 14.784-1.177 1.618"/><path fill="#42494E" d="M163.963 122.888l-14.853-10.842 1.18-1.615 14.853 10.841-1.18 1.616M140.507 105.765l-2.27-1.657c-2.279-1.664-4.191-3.543-5.684-5.584l1.615-1.179c1.37 1.873 3.136 3.605 5.249 5.148l2.27 1.656-1.18 1.616m-11.302-14.536a17.367 17.367 0 0 1-.39-3.745l.001-.22a17.217 17.217 0 0 1 .28-3.256l1.967.357a15.444 15.444 0 0 0-.247 2.893l-.001.237c-.006 1.109.11 2.224.345 3.313l-1.955.421m4.678-13.486l-1.643-1.141c1.536-2.21 3.554-4.236 5.997-6.02l2.041-1.489 1.18 1.615-2.041 1.489c-2.264 1.653-4.125 3.519-5.534 5.546M150.889 63.823l-1.18-1.615 8.776-6.406 1.18 1.615-8.776 6.406"/><path fill="#42494E" d="M161.12 125.765l-25.241-18.425c-7.178-5.24-11.108-12.299-11.064-19.875l.001-.189c-.079-7.578 3.851-14.66 11.063-19.924l20.248-14.781 1.18 1.615-20.248 14.781c-6.677 4.874-10.315 11.374-10.243 18.303l-.001.206c-.04 6.917 3.598 13.397 10.244 18.249l25.241 18.424-1.18 1.616M171.268 194.14l-1.18-1.616 8.684-6.338 1.18 1.615-8.684 6.339"/><path fill="#42494E" d="M139.146 67.291h23.524v-2h-23.524zM127.271 81.5h35.399v-2h-35.399zM167.799 67.291h16.736v-2h-16.736zM167.799 81.5h30.651v-2h-30.651zM159.02 52c-.27 0-.52-.11-.71-.29a.99.99 0 0 1-.21-1.09c.049-.12.12-.23.21-.33.049-.04.1-.09.16-.12.05-.04.11-.07.17-.09a.64.64 0 0 1 .179-.06.947.947 0 0 1 .58.06c.121.05.231.12.33.21.09.1.161.21.21.33a.987.987 0 0 1-.21 1.09c-.099.09-.209.16-.33.21a.99.99 0 0 1-.379.08m2.79 3.75c-.13 0-.26-.03-.38-.08s-.23-.12-.33-.21c-.18-.19-.29-.44-.29-.71 0-.26.11-.521.29-.71.23-.23.58-.34.91-.27.059.01.12.03.179.06.061.02.121.05.181.09.05.03.1.08.15.12.18.189.29.45.29.71a.99.99 0 0 1-1 1m9.009-3.75c-.139 0-.269-.03-.389-.08s-.23-.12-.321-.21a.994.994 0 0 1-.29-.71c0-.13.021-.26.071-.38.049-.12.13-.23.219-.33.091-.09.201-.16.321-.21a.999.999 0 1 1 .389 1.92m-2.789 3.75a1.002 1.002 0 0 1-1.01-1c0-.26.11-.521.299-.71.091-.09.201-.16.321-.21.37-.16.81-.07 1.089.21.191.189.301.45.301.71 0 .27-.11.52-.301.71a.984.984 0 0 1-.699.29m-9.43 143.13c-.14 0-.26-.03-.39-.08a.866.866 0 0 1-.32-.22c-.09-.09-.17-.2-.22-.32a.986.986 0 0 1-.07-.38c0-.14.02-.26.08-.39.049-.12.12-.23.21-.32.38-.38 1.04-.37 1.41 0 .099.09.17.2.22.32.049.119.08.25.08.39 0 .13-.031.26-.08.38a.887.887 0 0 1-.22.32c-.09.1-.2.17-.321.22-.12.05-.25.08-.379.08m2.79-3.76a.99.99 0 0 1-1-.99c0-.271.11-.53.29-.71.23-.231.58-.34.91-.28l.18.06c.06.029.12.06.169.09.061.04.111.08.161.13.18.18.29.439.29.71 0 .26-.1.51-.29.7-.1.1-.21.17-.33.22a.99.99 0 0 1-.38.07m9.009 3.76a1.005 1.005 0 0 1-.71-.3.997.997 0 0 1-.299-.7c0-.14.03-.26.08-.39.05-.12.13-.23.219-.32.04-.05.091-.09.151-.13.05-.03.11-.061.17-.09.059-.02.13-.04.19-.06.13-.02.26-.02.39 0 .059.02.13.04.19.06.06.029.119.06.17.09.06.04.11.08.15.13.19.189.299.439.299.71 0 .26-.109.51-.299.7-.19.19-.44.3-.701.3m-2.799-3.76c-.13 0-.26-.02-.38-.07a.887.887 0 0 1-.321-.22.997.997 0 0 1-.299-.7c0-.271.11-.521.299-.71.231-.231.58-.34.901-.28.059.02.13.04.19.06.06.029.11.06.17.09.05.04.1.08.15.13.19.18.29.439.29.71a.99.99 0 0 1-1 .99M167.799 170.514h10.909v-2h-10.909zM167.799 140.291v2h15.96l-2.74-2h-13.22M184.535 140.291h-.124l.124.09v-.09M167.799 156.5h10.909v-2h-10.909z"/><path fill="#42494E" d="M184.535 140.381v1.91h-.776l.346.253h3.393l-2.963-2.163M165.67 126.61l-1.18 1.616 16.529 12.065h3.392L165.67 126.61"/><path fill="#42494E" d="M184.535 140.381l-.124-.09h-3.392l2.74 2h.776v-1.91M190.912 177.324l-3.477 2.538 1.179 1.616 3.478-2.539c2.222-1.622 4.099-3.453 5.579-5.441l-1.282-.953h-.518c-1.33 1.733-2.991 3.343-4.959 4.779M169.202 124.236l-1.18 1.616 22.867 16.692h3.392l-25.079-18.308M193.271 180.555l-20.825 15.201 1.18 1.615 20.824-15.201c3.785-2.763 6.658-6.038 8.53-9.625h-2.286c-1.73 2.959-4.225 5.675-7.423 8.01M211.708 148.462v2h3v18.083h-32.083v-18.083h3v-2h-5v22.083h36.083v-22.083h-5"/><path fill="#42494E" d="M186.625 164.545h10.649l1.432 1.562 1.594-1.562h10.408v-18.083h-9.592l-2.464 2.414-2.364-2.414h-9.663v18.083zm12.003 4.437l-2.234-2.437h-11.769v-22.083h12.503l1.554 1.586 1.618-1.586h12.408v22.083h-11.592l-2.488 2.437z"/><path fill="#FFFFFE" d="M188.521 149.545h6.125"/><path fill="#42494E" d="M188.521 150.545h6.125v-2h-6.125z"/><path fill="#FFFFFE" d="M188.521 153.545h6.125"/><path fill="#42494E" d="M188.521 154.545h6.125v-2h-6.125z"/><path fill="#FFFFFE" d="M188.521 157.545h6.125"/><path fill="#42494E" d="M188.521 158.545h6.125v-2h-6.125z"/><path fill="#FFFFFE" d="M202.521 149.545h6.125"/><path fill="#42494E" d="M202.521 150.545h6.125v-2h-6.125z"/><path fill="#FFFFFE" d="M202.521 153.545h6.125"/><path fill="#42494E" d="M202.521 154.545h6.125v-2h-6.125z"/><path fill="#FFFFFE" d="M202.521 157.545h6.125"/><path fill="#42494E" d="M202.521 158.545h6.125v-2h-6.125z"/><path fill="#FFFFFE" d="M198.667 150.733v9.812"/><path fill="#42494E" d="M197.667 160.545h2v-9.813h-2z"/><path fill="#FFFFFE" d="M188.521 161.545h6.125"/><path fill="#42494E" d="M188.521 162.545h6.125v-2h-6.125z"/><path fill="#FFFFFE" d="M202.521 161.545h6.125"/><path fill="#42494E" d="M202.521 162.545h6.125v-2h-6.125z"/><path fill="#434A4F" d="M35.025 162.024h2v-4h-2zM35.025 172.024h2v-4h-2zM39.025 166.024h4v-2h-4zM29.025 166.024h4v-2h-4zM203.047 117.052h2v-4h-2zM203.047 127.052h2v-4h-2zM207.047 121.052h4v-2h-4zM197.047 121.052h4v-2h-4zM213.054 187.094h2v-4h-2zM213.054 197.094h2v-4h-2zM217.054 191.094h4v-2h-4zM207.054 191.094h4v-2h-4z"/><path fill="#FACD60" d="M139.029 128.103a3 3 0 1 1-6 0 3 3 0 0 1 6 0m60.036 70.042a3 3 0 1 1-6 0 3 3 0 0 1 6 0m-150.09-50.03a3 3 0 1 1-6 0 3 3 0 0 1 6 0m98.059-100.06a3 3 0 1 1-6 0 3 3 0 0 1 6 0"/></g></svg>