<?xml version="1.0" encoding="utf-8"?><svg xmlns="http://www.w3.org/2000/svg" width="250" height="250" viewBox="0 0 250 250"><g fill="none" fill-rule="evenodd"><path fill="#DDDED9" d="M137.493 97.174c2.874 7.858 8.029 14.613 14.663 19.473a10.116 10.116 0 0 0 2.736-6.039 42.14 42.14 0 0 1-17.399-13.434m72.913-39.798a41.922 41.922 0 0 1 2.54 14.417c0 23.195-18.804 42-42 42-2.116 0-4.194-.161-6.226-.463a20.304 20.304 0 0 1-9.034 5.641 41.814 41.814 0 0 0 5.205 2.598c-.471 5.171-4.813 9.223-10.107 9.223h5.077c5.876 0 11.154-2.509 14.858-6.501 2.032.302 4.11.463 6.226.463 23.195 0 42-18.804 42-42a41.813 41.813 0 0 0-8.539-25.378M105.75 109.364a7.408 7.408 0 0 1 .026 3.597l-4.643 19.141a5.078 5.078 0 0 0 5.077 5.077h10.006a5.077 5.077 0 0 1-5.077-5.077l4.643-19.141a7.408 7.408 0 0 0-.026-3.597l-2.078-8.046a13.108 13.108 0 0 0-12.692-9.832v4.655a13.07 13.07 0 0 1 2.686 5.177l2.078 8.046m37.959 43.046h.434a7.616 7.616 0 0 0 7.604-8.025c-.215-4.118-3.912-7.206-8.035-7.206h-10.006c4.123 0 7.82 3.088 8.035 7.206a7.616 7.616 0 0 1-7.604 8.025h-.434c4.123 0 7.82 3.088 8.035 7.206a7.616 7.616 0 0 1-6.852 7.988c-.247.024-3.038 0-3.292 0 4.663 0 8.347 4.234 7.491 9.049-.647 3.634-4.042 6.123-7.724 6.21v.39a7.615 7.615 0 0 1 5.226 7.643c-.215 4.118-3.912 7.206-8.035 7.206h5.003c4.123 0 7.82-3.088 8.035-7.206a7.616 7.616 0 0 0-7.604-8.025h7.183c3.758.001 7.263-2.518 7.922-6.218.856-4.815-2.828-9.049-7.491-9.049.254 0 3.044.024 3.292 0a7.616 7.616 0 0 0 6.852-7.988c-.215-4.118-3.912-7.206-8.035-7.206"/><path fill="#434A4F" d="M144.143 153.41h-12.696a1 1 0 0 1 0-2h12.696a1 1 0 1 1 0 2m-.003 15.231h-12.693a1 1 0 0 1 0-2h12.693a1 1 0 1 1 0 2m-10.154 15.231h-2.539a1 1 0 0 1 0-2h2.539a1 1 0 1 1 0 2m-9.692-38.47c-.26 0-.519-.1-.71-.29-.179-.19-.29-.44-.29-.71 0-.26.111-.52.29-.7.37-.38 1.05-.38 1.42 0 .181.18.29.44.29.7 0 .27-.109.52-.29.71-.189.19-.45.29-.71.29m0 15.23c-.26 0-.519-.1-.71-.29-.179-.18-.29-.44-.29-.71 0-.26.111-.52.29-.7.37-.38 1.05-.38 1.42 0a1.004 1.004 0 0 1 0 1.41c-.189.19-.45.29-.71.29m0 15.23c-.26 0-.519-.1-.71-.29-.179-.18-.29-.44-.29-.71 0-.13.03-.26.08-.38s.12-.23.21-.32c.37-.37 1.05-.37 1.42 0 .09.09.16.2.21.32.05.12.08.25.08.38 0 .27-.109.53-.29.71-.189.19-.45.29-.71.29"/><path fill="#75C7D0" d="M29.055 203.791h33.889v-69.137H29.055z"/><path fill="#434A4F" d="M153.946 62.708h34v-2h-34zM153.946 66.858h34v-2h-34zM124.294 190.872c-.26 0-.519-.1-.71-.29-.179-.18-.29-.44-.29-.71 0-.26.111-.52.29-.7.37-.37 1.05-.38 1.42 0 .181.18.29.44.29.7 0 .27-.109.52-.29.71-.189.19-.45.29-.71.29m-67.929-.078c-1.102 0-2 .897-2 2s.898 2 2 2c1.103 0 2-.897 2-2s-.897-2-2-2zm0 6c-2.206 0-4-1.794-4-4s1.794-4 4-4c2.207 0 4 1.794 4 4s-1.793 4-4 4z"/><path fill="#434A4F" d="M56.364 190.5a1 1 0 0 1-1-1v-8.706a1 1 0 0 1 2 0v8.706a1 1 0 0 1-1 1M170.946 30.792c-22.608 0-41 18.393-41 41 0 16.648 9.942 31.521 25.329 37.893a1 1 0 0 1 .613 1.014 11.101 11.101 0 0 1-4.628 8.083c4.872-.345 9.35-2.491 12.727-6.132.225-.241.555-.357.879-.309 2.017.3 4.062.451 6.08.451 22.607 0 41-18.392 41-41 0-22.607-18.393-41-41-41zm-21.083 90.039h-5.078a1 1 0 0 1 0-2 9.098 9.098 0 0 0 9.018-7.598c-15.734-6.84-25.857-22.237-25.857-39.441 0-23.71 19.29-43 43-43 23.709 0 43 19.29 43 43 0 23.711-19.291 43-43 43-1.944 0-3.912-.134-5.857-.399-3.997 4.098-9.516 6.438-15.226 6.438z"/><path fill="#434A4F" d="M153.946 70.861h34v-2h-34zM179.146 86.185l-3.8-3.799 1.414-1.414 2.386 2.385 9.092-9.092 1.415 1.414-10.507 10.506M165.238 86.494l-8-8 1.415-1.414 8 8-1.415 1.414"/><path fill="#434A4F" d="M158.653 86.494l-1.415-1.414 8-8 1.415 1.414-8 8"/><path fill="#434A4F" d="M155.945 87.787h12v-12h-12v12zm-2 2h16v-16h-16v16zM187.945 89.787h-16v-16h12.833v2h-10.833v12h12v-6.916h2v8.916"/><path fill="#42494E" d="M166.381 184.068l1.498 9.042-.162.301a16.97 16.97 0 0 0-2.031 7.455 17.018 17.018 0 0 0 4.544 12.302 17.024 17.024 0 0 0 11.913 5.487c9.449.377 17.421-7.015 17.789-16.457.366-9.441-7.016-17.422-16.457-17.789a17 17 0 0 0-7.59 1.446l-.293.13-9.211-1.917zm16.438 36.6c-.25 0-.502-.005-.754-.015a19.003 19.003 0 0 1-13.303-6.127 19 19 0 0 1-5.074-13.738c.11-2.827.819-5.523 2.107-8.02l-1.865-11.252 11.444 2.381a18.896 18.896 0 0 1 8.179-1.486c10.543.41 18.787 9.321 18.377 19.865-.401 10.291-8.901 18.391-19.111 18.392z"/><path fill="#E9886C" d="M191.679 202.676a5.43 5.43 0 0 0 1.201-3.411 5.458 5.458 0 0 0-9.949-3.097 5.458 5.458 0 0 0-9.95 3.097 5.43 5.43 0 0 0 1.201 3.411l.008.011c.202.251 8.741 9.033 8.741 9.033s8.538-8.782 8.74-9.033l.008-.011"/><path fill="#E9886C" d="M178.439 194.807c-2.458 0-4.458 2-4.458 4.458 0 1.023.339 1.985.981 2.785.255.289 4.666 4.837 7.969 8.236 3.263-3.358 7.607-7.838 7.969-8.235l-.001-.001c.642-.8.981-1.762.981-2.785 0-2.458-2-4.458-4.458-4.458a4.459 4.459 0 0 0-3.668 1.929l-.823 1.191-.822-1.191a4.464 4.464 0 0 0-3.67-1.929zm4.492 18.348l-.717-.738c-3.201-3.292-8.601-8.853-8.803-9.102a6.493 6.493 0 0 1-1.43-4.05 6.465 6.465 0 0 1 6.458-6.458 6.46 6.46 0 0 1 4.492 1.821 6.452 6.452 0 0 1 4.491-1.821 6.465 6.465 0 0 1 6.458 6.458 6.474 6.474 0 0 1-1.421 4.037l-.002-.001c-.441.502-5.678 5.895-8.809 9.116l-.717.738z"/><path fill="#FACD60" d="M94.826 52.717l2.652 5.373 5.929.861c1.64.239 2.295 2.255 1.108 3.412l-4.29 4.181 1.013 5.905c.28 1.634-1.435 2.88-2.902 2.109l-5.303-2.788-5.303 2.788c-1.467.771-3.182-.475-2.902-2.109l1.013-5.905-4.29-4.181c-1.187-1.157-.532-3.173 1.108-3.412l5.929-.861 2.652-5.373c.733-1.486 2.853-1.486 3.586 0"/><path fill="#FACD60" d="M93.033 52.102c-.584 0-1.086.313-1.345.837l-2.768 5.608-6.188.899a1.473 1.473 0 0 0-1.212 1.021c-.18.555-.038 1.13.38 1.538l4.478 4.365-1.056 6.164a1.472 1.472 0 0 0 .596 1.467 1.469 1.469 0 0 0 1.579.114l5.536-2.91 5.536 2.91c.516.272 1.107.23 1.579-.114.472-.343.695-.892.596-1.467l-1.056-6.164 4.479-4.365c.417-.408.56-.983.379-1.538a1.474 1.474 0 0 0-1.212-1.021l-6.188-.899-2.768-5.608a1.473 1.473 0 0 0-1.345-.837zM86.797 75.29a2.496 2.496 0 0 1-1.467-.48 2.485 2.485 0 0 1-.995-2.445l.969-5.646-4.102-3.998a2.484 2.484 0 0 1-.632-2.563 2.483 2.483 0 0 1 2.017-1.702l5.669-.823 2.535-5.137a2.484 2.484 0 0 1 2.242-1.394c.958 0 1.818.534 2.242 1.394l2.535 5.137 5.669.823c.948.138 1.721.79 2.018 1.702a2.485 2.485 0 0 1-.633 2.563l-4.102 3.998.969 5.646a2.485 2.485 0 0 1-.995 2.445 2.484 2.484 0 0 1-2.632.19l-5.071-2.665L87.962 75a2.5 2.5 0 0 1-1.165.29z"/><path fill="#E9886C" d="M202.445 143.792c-9.098 0-16.5 7.402-16.5 16.5 0 9.098 7.402 16.5 16.5 16.5 9.097 0 16.5-7.402 16.5-16.5 0-9.098-7.403-16.5-16.5-16.5zm0 35c-10.202 0-18.5-8.299-18.5-18.5s8.298-18.5 18.5-18.5c10.201 0 18.5 8.299 18.5 18.5s-8.299 18.5-18.5 18.5z"/><path fill="#656665" d="M198.09 155.351a2.089 2.089 0 0 0-1.816-1.059 2.09 2.09 0 0 0-1.817 1.059l-1.728-1.006a4.123 4.123 0 0 1 3.545-2.053c1.449 0 2.807.787 3.545 2.053l-1.729 1.006m12.342.001a2.092 2.092 0 0 0-1.818-1.06c-.751 0-1.43.396-1.816 1.059l-1.728-1.006a4.122 4.122 0 0 1 3.544-2.053c1.45 0 2.808.787 3.546 2.052l-1.728 1.008m-16.933 6.94c.499 4.494 4.32 8 8.945 8s8.445-3.506 8.944-8h-17.889zm8.945 10c-6.066 0-11-4.935-11-11v-1h22v1c0 6.065-4.935 11-11 11z"/><path fill="#42494E" d="M78.249 110.276l-1.902-.62.33-1.01-1.275-.416a3.615 3.615 0 0 1-2.533-3.493 3.614 3.614 0 0 1 2.54-3.488l1.275-.413-.699-2.162-1.277.413c-1.542.501-3.151-.026-4.101-1.336a3.615 3.615 0 0 1 .004-4.315l.789-1.084-1.837-1.338-.789 1.085c-.955 1.31-2.566 1.829-4.106 1.329a3.615 3.615 0 0 1-2.531-3.493l.001-1.341-2.272-.003-.002 1.342a3.614 3.614 0 0 1-2.539 3.487 3.61 3.61 0 0 1-4.101-1.337l-.788-1.085-1.839 1.333.787 1.086a3.615 3.615 0 0 1-.004 4.314c-.953 1.309-2.562 1.833-4.104 1.33L46 98.645l-.329 1.01-1.902-.62.95-2.912 3.176 1.036c.856.277 1.523-.131 1.868-.605.346-.474.527-1.239.002-1.963l-1.961-2.705 5.077-3.681 1.962 2.704c.525.726 1.31.789 1.866.609.558-.181 1.154-.693 1.155-1.587l.004-3.342 6.272.007-.003 3.341c-.001.894.595 1.408 1.152 1.589.558.182 1.341.12 1.868-.605l1.966-2.701 5.072 3.692-1.967 2.701c-.527.723-.347 1.489-.002 1.963.343.475 1.012.884 1.867.609l3.179-1.029 1.931 5.966-3.177 1.029c-.852.276-1.157 1.001-1.157 1.588-.001.587.302 1.312 1.153 1.59l3.176 1.035-.949 2.912"/><path fill="#E9886C" d="M69.045 107.353l-1.902-.621a6.428 6.428 0 0 0-.384-4.941 6.432 6.432 0 0 0-3.765-3.223 6.48 6.48 0 0 0-8.165 4.15l-1.902-.62c1.449-4.443 6.24-6.883 10.686-5.432a8.419 8.419 0 0 1 4.929 4.218 8.422 8.422 0 0 1 .503 6.469"/><path fill="#E9886C" d="M61.018 113.137a8.49 8.49 0 0 1-2.637-.422c-4.443-1.449-6.879-6.243-5.432-10.686l1.903.62a6.484 6.484 0 0 0 4.149 8.164c3.393 1.107 7.058-.753 8.164-4.149l1.903.62a8.427 8.427 0 0 1-4.219 4.929 8.436 8.436 0 0 1-3.831.924"/><path fill="#42494E" d="M64.126 122.792l-6.272-.006.003-3.341c.001-.895-.595-1.408-1.153-1.59-.554-.18-1.34-.118-1.867.605l-1.967 2.701-5.071-3.692 1.968-2.701c.526-.723.347-1.488.002-1.963-.345-.475-1.013-.885-1.867-.609l-3.179 1.029-1.932-5.967 3.18-1.029c.85-.275 1.154-1 1.155-1.587 0-.586-.302-1.312-1.152-1.59l-3.177-1.035 1.067-3.271 1.902.62-.447 1.369 1.274.416a3.614 3.614 0 0 1 2.533 3.494 3.616 3.616 0 0 1-2.54 3.487l-1.275.413.699 2.162 1.276-.414a3.613 3.613 0 0 1 4.102 1.338 3.615 3.615 0 0 1-.004 4.314l-.79 1.084 1.837 1.338.789-1.084c.954-1.311 2.567-1.833 4.104-1.329a3.615 3.615 0 0 1 2.533 3.493l-.001 1.341 2.272.003.001-1.342a3.616 3.616 0 0 1 2.54-3.488 3.613 3.613 0 0 1 4.102 1.338l.787 1.086 1.84-1.334-.787-1.086a3.612 3.612 0 0 1 .004-4.314 3.615 3.615 0 0 1 4.104-1.329l1.275.416.495-1.516 1.902.62-1.115 3.418-3.177-1.036c-.85-.278-1.523.13-1.867.605-.346.474-.528 1.238-.002 1.963l1.961 2.705-5.078 3.681-1.961-2.705c-.525-.724-1.31-.79-1.867-.609-.558.181-1.155.693-1.156 1.587l-.003 3.341"/><path fill="#FACD60" d="M64.943 104.791a4 4 0 1 1-8 0 4 4 0 0 1 8 0"/><path fill="#FACD60" d="M60.944 101.291c-1.93 0-3.5 1.57-3.5 3.5s1.57 3.5 3.5 3.5c1.929 0 3.5-1.57 3.5-3.5s-1.571-3.5-3.5-3.5zm0 8a4.505 4.505 0 0 1-4.5-4.5c0-2.481 2.018-4.5 4.5-4.5 2.481 0 4.5 2.019 4.5 4.5s-2.019 4.5-4.5 4.5z"/><path fill="#434A4F" d="M54.945 48.792h2v-4h-2zM54.945 58.792h2v-4h-2zM58.945 52.792h4v-2h-4zM48.945 52.792h4v-2h-4zM91.298 194.883a98.179 98.179 0 0 1-10.304-2.806 1.001 1.001 0 0 0-.316-.052h-9.153v2h8.991a99.855 99.855 0 0 0 11.712 3.109l-.93-2.251m61.445-35.32c-.159-3.024-2.044-5.669-4.706-7.076a8.682 8.682 0 0 0 2.357-1.763 8.55 8.55 0 0 0 2.352-6.391c-.236-4.497-4.288-8.154-9.034-8.154h-27.496a4.08 4.08 0 0 1-4.074-3.964l4.612-19.018a8.42 8.42 0 0 0-.03-4.083l-2.078-8.046a14.106 14.106 0 0 0-13.66-10.582 1 1 0 0 0-1 1v15.046l-11.373 29.571a4.1 4.1 0 0 1-3.805 2.613H71.525v2h13.283a6.115 6.115 0 0 0 5.672-3.896l11.439-29.744a.998.998 0 0 0 .067-.359v-14.19a12.11 12.11 0 0 1 10.724 9.041l2.078 8.047a6.43 6.43 0 0 1 .023 3.11l-4.643 19.141a1.036 1.036 0 0 0-.028.236 6.083 6.083 0 0 0 6.076 6.077h27.496c3.699 0 6.856 2.807 7.036 6.258a6.567 6.567 0 0 1-1.805 4.91 6.558 6.558 0 0 1-4.8 2.063h-.434a1 1 0 1 0 0 2c3.699 0 6.856 2.807 7.036 6.258.187 3.546-2.427 6.595-5.934 6.939-.245.016-2.158.004-2.788-.001l-.328-.002c-.583-.013-1.095.417-1.095 1a1 1 0 0 0 1 1h.073a6.592 6.592 0 0 1 4.986 2.374 6.708 6.708 0 0 1 1.448 5.5c-.548 3.075-3.531 5.394-6.938 5.394h-7.183a1 1 0 1 0 0 2c1.833 0 3.538.732 4.799 2.062a6.564 6.564 0 0 1 1.806 4.91c-.18 3.451-3.336 6.259-7.036 6.259h-21.592a97.86 97.86 0 0 1-4.849-.134l4.978 2.134h21.463c4.747 0 8.799-3.658 9.034-8.154a8.55 8.55 0 0 0-2.352-6.391 8.857 8.857 0 0 0-.729-.686h1.661c4.362 0 8.192-3.028 8.906-7.044a8.704 8.704 0 0 0-1.882-7.135 8.704 8.704 0 0 0-1.523-1.428 8.608 8.608 0 0 0 6.073-8.702"/><path fill="#434A4F" d="M90.805 191.067l10.451 25.309 4.473-8.995 8.387 8.387 1.414-1.414-8.43-8.431 7.653-4.592-23.948-10.264zm10.283 30.141l-14.004-33.911 32.052 13.736-8.812 5.287 8.035 8.034-4.243 4.242-7.835-7.834-5.193 10.446z"/><path fill="#75C7D0" d="M178.945 135.792a3 3 0 1 1-6 0 3 3 0 0 1 6 0m34-15a2 2 0 1 1-4 0 2 2 0 0 1 4 0"/><path fill="#434A4F" d="M190.945 122.792h2v-4h-2zM190.945 132.792h2v-4h-2zM194.945 126.792h4v-2h-4zM184.945 126.792h4v-2h-4zM120.945 38.792h2v-4h-2zM120.945 48.792h2v-4h-2zM124.945 42.792h4v-2h-4zM114.945 42.792h4v-2h-4zM165.254 160.614a1 1 0 0 1 .466.115l2.846 1.496 1.091-.246-.985.169-.544-3.169a1 1 0 0 1 .287-.885l2.303-2.244.103-1.115-.143.99-3.182-.462a1 1 0 0 1-.753-.547l-1.422-2.883c-.009-.018-.021-.041-.067-.041l-1.488 2.924a1 1 0 0 1-.753.547l-3.182.462-.738.841.698-.716 2.302 2.244a1 1 0 0 1 .287.885l-.543 3.169.106.077 2.845-1.496a1 1 0 0 1 .466-.115zm-3.347 3.622c-.427 0-.853-.134-1.216-.398a2.061 2.061 0 0 1-.825-2.028l.455-2.651-1.926-1.876a2.062 2.062 0 0 1-.525-2.126 2.06 2.06 0 0 1 1.674-1.411l2.661-.387 1.191-2.411a2.058 2.058 0 0 1 1.858-1.156c.796 0 1.508.443 1.859 1.156l1.191 2.411 2.661.387a2.06 2.06 0 0 1 1.674 1.411 2.06 2.06 0 0 1-.525 2.125l-1.926 1.877.455 2.651a2.06 2.06 0 0 1-.824 2.027 2.063 2.063 0 0 1-2.184.159l-2.381-1.252-2.38 1.252c-.306.16-.637.24-.967.24zM71.945 199.792h-9.001v-2h7.001v-60.167h-7.001v-2h9.001v64.167"/></g></svg>