<?xml version="1.0" encoding="utf-8"?><svg xmlns="http://www.w3.org/2000/svg" width="250" height="250" viewBox="0 0 250 250"><g fill="none" fill-rule="evenodd"><path fill="#FFD15D" d="M167.813 180.979c4.299 0 7.787-3.493 7.799-7.792.005-2.074.011-5.317.016-6.647.007-1.823 2.469-2.136 3.099-4.307.174-.601-.013-3.378-.013-3.378 1.667-.023 2.96-.736 2.96-2.286v-1.597c-.978-.978-1.42-2.305-1.42-3.689 0-1.324.847-2.5 2.104-2.919l5.184-1.728a2.843 2.843 0 0 0 1.284-4.515l-6.982-10.083a17.566 17.566 0 0 1-2.761-6.504 17.563 17.563 0 0 1-.362-3.491c0-2.296.465-4.564 1.337-6.687 4.407-10.728 4.398-22.867-.406-33.507-3.121-6.914-7.671-13.335-13.632-18.843a57.406 57.406 0 0 0-2.19-2.012 59.455 59.455 0 0 0-12.375-8.262 59.48 59.48 0 0 0-12.375 8.262 57.406 57.406 0 0 0-2.19 2.012c-5.961 5.508-10.511 11.929-13.632 18.843-4.803 10.64-4.813 22.779-.406 33.507a17.603 17.603 0 0 1 1.337 6.687c0 1.179-.13 2.347-.362 3.491a17.566 17.566 0 0 1-2.761 6.504l-6.982 10.083a2.84 2.84 0 0 0 1.284 4.515l5.184 1.728a3.077 3.077 0 0 1 2.104 2.919c0 1.384-.442 2.711-1.42 3.689v1.597c0 1.55 1.293 2.263 2.96 2.286 0 0-.187 2.777-.013 3.378.63 2.171 3.092 2.484 3.099 4.307.005 1.33.011 4.573.017 6.647.011 4.299 3.499 7.792 7.798 7.792h15.246c.38 0 .751.039 1.112.105a6.174 6.174 0 0 1 1.112-.105h15.246"/><path fill="#5FE0ED" d="M183.284 80.209c-3.43-7.592-8.318-14.355-14.531-20.102a60.618 60.618 0 0 0-2.312-2.123C154.929 47.999 140.17 42.5 124.881 42.5c-5.875 0-11.671.82-17.236 2.387l-.078.023a63.203 63.203 0 0 0-3.22 1.01c-.348.118-.694.238-1.039.361a63.98 63.98 0 0 0-2.208.848c-1.028.41-2.041.853-3.046 1.317-.212.099-.427.191-.638.292-5.143 2.444-9.979 5.56-14.341 9.343-5.564 4.826-10.162 10.558-13.713 17.037a64.058 64.058 0 0 0-8.847 32.559v57.234c0 8.843 2.991 20.14 3.051 21.043H99.65l-1.163-4.657a131.358 131.358 0 0 0-7.583-21.922c-4.848-11.96-10.243-22.466-13.953-29.651l-.231-.449a57.202 57.202 0 0 1-4.199-10.67c-3.68-12.99-2.579-26.753 3.398-38.452a54.21 54.21 0 0 1 4.258-6.975 53.307 53.307 0 0 1 8.366-9.175 55.564 55.564 0 0 1 2.849-2.293c.185-.14.369-.281.555-.419a55.813 55.813 0 0 1 2.913-2.01c.163-.105.33-.205.495-.308.961-.603 1.929-1.198 2.933-1.726.096-.05.189-.107.284-.158a56.226 56.226 0 0 1 3.837-1.867 56.373 56.373 0 0 1 3.328-1.352c.111-.04.223-.075.333-.115a55.995 55.995 0 0 1 3.303-1.07c.141-.041.28-.086.421-.125a55.8 55.8 0 0 1 3.505-.862c.198-.042.397-.081.596-.121a55.183 55.183 0 0 1 3.651-.621 55.758 55.758 0 0 1 7.335-.487c13.371 0 26.276 4.806 36.338 13.535l.162.141-.031.037.064.053.04.034a.12.12 0 0 0 .018.015l.011.009.031.027.05.043.029.025c.59.505 1.158 1.023 1.722 1.545 5.44 5.024 9.715 10.931 12.706 17.555 3.176 7.037 4.055 14.969 2.629 22.625h8.072c1.352-8.79.209-17.826-3.438-25.904"/><path fill="#475059" d="M99.323 212.5h-2v-5.312c-.01-27.18-16.91-59.901-25.032-75.626-8.888-17.209-9.19-37.275-.812-53.676 3.459-6.77 8.101-12.707 13.797-17.648 10.97-9.514 25.036-14.754 39.605-14.754 14.569 0 28.635 5.24 39.604 14.754a57.892 57.892 0 0 1 2.22 2.04c5.93 5.479 10.592 11.925 13.858 19.16 4.828 10.694 4.981 23.195.419 34.298a16.55 16.55 0 0 0-1.261 6.306c0 1.067.115 2.175.342 3.292a16.48 16.48 0 0 0 2.603 6.134l6.982 10.084c.521.618.837 1.491.837 2.388a3.836 3.836 0 0 1-2.627 3.645l-5.183 1.728a2.074 2.074 0 0 0-1.421 1.97c0 .846.195 2.05 1.128 2.982l.293.293v2.011c0 1.662-1.111 2.842-2.907 3.184.048 1.043.064 2.259-.081 2.759-.393 1.354-1.314 2.118-2.054 2.733-.713.591-1.003.875-1.005 1.299l-.017 6.646c-.013 4.846-3.96 8.789-8.798 8.789h-15.247a5.16 5.16 0 0 0-5.153 5.093l3.078 24.099v1.328h-2v-1.264l-3.078-24.102c0-3.945 3.209-7.154 7.153-7.154h15.247c3.738 0 6.789-3.048 6.798-6.795l.017-6.648c.005-1.401.96-2.193 1.727-2.83.612-.508 1.189-.987 1.412-1.752.069-.315.031-1.826-.05-3.032l-.071-1.052 1.055-.015c.901-.012 1.974-.246 1.974-1.286v-1.207c-.919-1.077-1.421-2.508-1.421-4.079a4.07 4.07 0 0 1 2.789-3.867l5.183-1.728a1.84 1.84 0 0 0 .832-2.927l-7.037-10.154a18.437 18.437 0 0 1-2.917-6.874 18.574 18.574 0 0 1-.383-3.691c0-2.408.474-4.785 1.412-7.066 4.352-10.596 4.21-22.52-.393-32.715-3.156-6.992-7.664-13.222-13.399-18.52a62.667 62.667 0 0 0-1.851-1.657l-.013-.011-.076-.065-.031-.026a7.48 7.48 0 0 1-.099-.085l.031-.037-.127-.111c-10.606-9.199-24.206-14.265-38.294-14.265-14.088 0-27.689 5.066-38.294 14.265-5.502 4.771-9.985 10.507-13.326 17.047-8.087 15.828-7.785 35.21.807 51.848 8.195 15.865 25.245 48.878 25.255 76.543v5.313"/><path fill="#48515A" d="M213 189.5h2v-4h-2zM213 199.5h2v-4h-2zM217 193.5h4v-2h-4zM207 193.5h4v-2h-4zM35 141.5h2v-4h-2zM35 151.5h2v-4h-2zM39 145.5h4v-2h-4zM29 145.5h4v-2h-4zM191 41.5h2v-4h-2zM191 51.5h2v-4h-2zM195 45.5h4v-2h-4zM185 45.5h4v-2h-4z"/><path fill="#5FE0ED" d="M210.317 133.773a3.317 3.317 0 1 1-6.634 0 3.317 3.317 0 0 1 6.634 0m-154.5-68.286a3.317 3.317 0 1 1-6.634 0 3.317 3.317 0 0 1 6.634 0"/><path fill="#F58E70" d="M164.835 198.5a1 1 0 1 1-2 0 1 1 0 0 1 2 0M54.5 185.5a2 2 0 1 1-3.999.001 2 2 0 0 1 3.999-.001"/></g></svg>