<?xml version="1.0" encoding="utf-8"?><svg xmlns="http://www.w3.org/2000/svg" width="250" height="250" viewBox="0 0 250 250"><g fill="none" fill-rule="evenodd"><path fill="#E9886C" d="M128.502 195.683s-1.499-25.68-2.248-28.678a1.123 1.123 0 0 0 1.124-1.123v-2.811l-2.858-3.375-2.763 3.375v2.811c0 .62.503 1.124 1.124 1.123-.749 2.998-2.248 28.678-2.248 28.678"/><path fill="#DDDED9" d="M115.922 151.27v2.456l8.505 4.778 8.431-4.637.076-4.496v-3.789c.322-.318.652-.658.948-1.002a3.81 3.81 0 0 0-.281.266c-1.182 1.271-2.974 2.604-4.188 3.641a5.375 5.375 0 0 1-3.436 1.287h-3.65a5.375 5.375 0 0 1-3.436-1.287c-1.158-.989-2.844-2.25-4.023-3.467-.036-.037-.077-.074-.115-.11.354.376.758.758 1.189 1.138-.009.004-.02.009-.02.02v5.202"/><path fill="#434A4F" d="M115.922 154.655a1 1 0 0 1-1-1v-7.588a1 1 0 0 1 2 0v7.588a1 1 0 0 1-1 1"/><path fill="#434A4F" d="M132.877 154.516a1 1 0 0 1-1-1v-8.365l.299-.293c.368-.364 1.348-1.329 1.591-1.975l3.561-7.272 3.818-1.909.833-4.134a.821.821 0 0 0-.234-.532.82.82 0 0 0-.593-.251h-1.968l.204-1.172c.303-1.738.456-3.298.456-4.636l.001-.766a14.616 14.616 0 0 0-1.351-6.212 17.272 17.272 0 0 0-.261-.556 15.728 15.728 0 0 0-4.319-5.316 15.397 15.397 0 0 0-9.511-3.33h-.102c-4.014 0-7.837 1.603-10.777 4.523-3.037 3.017-4.779 7.167-4.779 11.387v.27c0 1.365.133 2.933.393 4.659l.173 1.149h-1.844a.894.894 0 0 0-.885.778l1.187 4.151 3.344 1.931 3.397 7.183c.43 1.144 2.413 2.755 3.86 3.932.42.341.819.666 1.171.966a4.381 4.381 0 0 0 2.798 1.048h3.646a1 1 0 0 1 0 2h-3.658a6.392 6.392 0 0 1-4.085-1.528c-.34-.29-.727-.604-1.133-.933-1.806-1.469-3.853-3.133-4.44-4.709l-3.096-6.54-3.505-2.022-1.493-5.365a2.898 2.898 0 0 1 2.432-2.856 31.3 31.3 0 0 1-.262-3.844v-.27c0-4.749 1.957-9.417 5.37-12.806 3.345-3.324 7.736-5.101 12.302-5.104a17.371 17.371 0 0 1 10.735 3.76 17.71 17.71 0 0 1 5.163 6.613 16.625 16.625 0 0 1 1.53 7.056l-.001.751c0 1.147-.102 2.433-.303 3.835a2.796 2.796 0 0 1 1.639.831c.537.552.821 1.281.799 2.051l-.019.169-1.047 5.191-4.087 2.044-3.225 6.577c-.275.744-.969 1.547-1.724 2.31v7.531a1 1 0 0 1-1 1m-43.846 41.168l-1.999-.002.036-27.738c0-3.902 2.867-4.996 5.397-5.962l17.357-5.914 3.13-5.8h2.716v2h-1.523l-2.936 5.441-18.065 6.154c-2.824 1.078-4.076 1.796-4.076 4.082l-.037 27.739"/><path fill="#434A4F" d="M124.568 159.721l-9.129-5.113a1 1 0 1 1 .978-1.744l8.151 4.564 7.822-4.38a1 1 0 1 1 .978 1.744l-8.8 4.929"/><path fill="#434A4F" d="M162.103 195.684l-2-.002.031-27.67c0-2.339-1.275-3.053-4.184-4.122l-18.042-6.125-3.356-5.497h-1.553v-2h2.675l3.563 5.836 17.38 5.9c2.471.909 5.517 2.029 5.517 6.009l-.031 27.671m-42.595-29.365a1 1 0 0 1-.743-1.669l5.803-6.447 5.801 6.447a1 1 0 1 1-1.486 1.338l-4.315-4.795-4.316 4.795a.996.996 0 0 1-.744.331m77.377-47.423c-7.063 1.923-11.363 8.975-9.879 16.508l.964 6.694 3.517-3.133a25.587 25.587 0 0 0 5.398-20.069zm-10.364 27.171l-1.486-10.327c-1.76-8.93 3.708-17.316 12.458-19.04l.982-.193.193.981a27.59 27.59 0 0 1-5.68 22.8l-.111.116-6.356 5.663zm14.446 5.766c-3.407.09-6.592 1.4-9.058 3.746-2.694 2.564-4.272 6.1-4.442 9.956l-.037.228-1.806 6.396c8.417-3.522 14.245-10.939 15.256-19.469.034-.283.063-.57.087-.857zm-18.37 23.686l2.877-10.19c.221-4.33 2.013-8.304 5.057-11.198 3.107-2.957 7.209-4.474 11.546-4.287l.999.045-.044.998a27.58 27.58 0 0 1-.166 2.04c-1.116 9.415-7.619 17.57-16.971 21.282l-3.298 1.31zm-9.83 19.735l4.55.622c7.738-.013 14.526-2.967 19.177-8.334-5.955-4.421-14.255-3.346-19.22 2.612l-4.507 5.1zm4.498 2.622h-.016l-.135-.009-8.32-1.138 6.962-7.876c5.843-7.013 15.798-8.057 22.648-2.353l.538.448-.499 1.387-.113.135c-5.053 6.066-12.535 9.406-21.065 9.406zm-20.603 15.252a25.624 25.624 0 0 0 20.836-.401c-3.865-6.245-12.446-8.563-19.279-5.027l-6.076 3.299 4.519 2.129zm9.97 4.019c-3.65 0-7.308-.725-10.767-2.185l-.037-.017-8.109-3.819 9.563-5.193c8.13-4.204 18.424-1.104 22.496 6.762l.465.901-.899.451a27.665 27.665 0 0 1-12.712 3.1zm13.391-123.952c-2.886 1.816-4.958 4.567-5.885 7.842-1.012 3.579-.568 7.426 1.251 10.831l3.779 6.325 1.502-4.118c2.767-6.798 2.517-14.338-.647-20.88zm-.417 29.633l-5.958-9.976c-2.087-3.906-2.588-8.28-1.434-12.359 1.168-4.129 3.921-7.529 7.75-9.574l.882-.472.472.883a27.586 27.586 0 0 1 1.217 23.465l-2.929 8.033zM162.967 104.291l-9.762-6.454 1.103-1.668 6.212 4.106-.982-9.05 1.989-.215 1.44 13.281"/><path fill="#434A4F" d="M137.327 214.195l-.365-1.966c29.066-5.401 49.907-30.812 49.556-60.422-.231-19.491-9.907-37.819-25.885-49.029l1.148-1.636c16.504 11.578 26.499 30.509 26.737 50.641.363 30.585-21.166 56.833-51.191 62.412"/><path fill="#75C7D0" d="M188.994 135.17l.426 2.957.611-.545a23.584 23.584 0 0 0 5.133-15.89c-4.676 2.379-7.305 7.694-6.196 13.326l.026.152m.456 30.801l-.635 2.247c5.091-3.321 8.644-8.367 9.808-14.078a11.546 11.546 0 0 0-5.336 2.889c-2.317 2.205-3.675 5.257-3.822 8.594l-.015.348m-12.001 27.905c6.21-.041 11.738-2.121 15.863-5.922-4.839-2.288-10.762-1.007-14.501 3.481l-2.071 2.344.709.097m-18.312 15.6l-2.57 1.396.909.429a23.608 23.608 0 0 0 16.833.561c-3.735-3.891-10.021-5.049-15.172-2.386m16.926-107.894c-.865 3.057-.489 6.352 1.058 9.283l1.608 2.694.102-.273a23.597 23.597 0 0 0 .36-16.918 11.557 11.557 0 0 0-3.128 5.214"/><path fill="#434A4F" d="M52.897 138.965l3.516 3.132.956-6.642c1.492-7.582-2.807-14.636-9.871-16.559a25.587 25.587 0 0 0 5.399 20.069zm4.966 7.102l-6.468-5.779a27.586 27.586 0 0 1-5.679-22.8l.193-.981.981.193c8.75 1.724 14.219 10.11 12.45 19.091l-1.477 10.276zm-14.447 5.766c.024.287.054.574.087.857 1.011 8.53 6.839 15.947 15.256 19.469l-1.843-6.624c-.17-3.856-1.747-7.392-4.442-9.956-2.465-2.346-5.651-3.655-9.058-3.746zm18.37 23.686l-3.297-1.31c-9.353-3.712-15.856-11.866-16.972-21.282a28.134 28.134 0 0 1-.166-2.04l-.044-.998.999-.045c4.336-.188 8.438 1.329 11.547 4.287 3.043 2.894 4.836 6.868 5.056 11.198l2.877 10.19zm-13.897 12.023c4.651 5.366 11.44 8.32 19.177 8.334l4.55-.622-4.487-5.077c-4.985-5.983-13.284-7.056-19.24-2.635zm19.229 10.334c-8.53 0-16.01-3.34-21.064-9.406l-.113-.135-.499-1.387.538-.448c6.851-5.703 16.806-4.661 22.666 2.375l6.944 7.854-8.455 1.147h-.017zm-.233 14.851a25.62 25.62 0 0 0 20.836.401l4.519-2.129-6.093-3.309c-6.819-3.526-15.396-1.206-19.262 5.037zm10.867 4.42a27.662 27.662 0 0 1-12.712-3.1l-.9-.451.465-.901c4.071-7.866 14.365-10.969 22.479-6.772l9.58 5.203-8.146 3.836a27.658 27.658 0 0 1-10.766 2.185zM64.36 93.195a25.594 25.594 0 0 0-.66 20.846l1.516 4.152 3.803-6.367c3.594-6.733 1.537-14.73-4.659-18.631zm.418 29.633l-2.943-8.067a27.561 27.561 0 0 1 1.231-23.431l.471-.883.882.472c7.867 4.2 10.652 13.816 6.34 21.891l-5.981 10.018zm30.11-45.286a25.588 25.588 0 0 0-10.503 18.017l-.518 4.714 6.208-4.104c6.405-4.235 8.406-12.248 4.813-18.627zm-13.474 26.751l.983-8.953a27.588 27.588 0 0 1 12.242-20.055l.834-.552.551.834c4.919 7.439 2.79 17.221-4.846 22.27l-9.764 6.456z"/><path fill="#434A4F" d="M107.056 214.195c-30.024-5.579-51.553-31.827-51.191-62.412.239-20.132 10.233-39.063 26.737-50.641l1.148 1.636c-15.977 11.21-25.654 29.539-25.885 49.029-.351 29.61 20.491 55.021 49.557 60.422l-.366 1.966"/><path fill="#75C7D0" d="M55.389 135.17l-.425 2.957-.612-.545a23.583 23.583 0 0 1-5.132-15.89c4.675 2.379 7.304 7.694 6.195 13.326l-.026.152m-.455 30.801l.634 2.247c-5.09-3.321-8.644-8.367-9.807-14.078a11.538 11.538 0 0 1 5.335 2.889c2.318 2.205 3.675 5.257 3.822 8.594l.016.348m12 27.905c-6.209-.041-11.738-2.121-15.863-5.922 4.84-2.288 10.762-1.007 14.502 3.481l2.071 2.344-.71.097m18.312 15.6l2.571 1.396-.909.429a23.61 23.61 0 0 1-16.834.561c3.736-3.891 10.022-5.049 15.172-2.386M68.32 101.582c.865 3.057.489 6.352-1.057 9.283l-1.609 2.694-.101-.273a23.586 23.586 0 0 1-.36-16.918 11.546 11.546 0 0 1 3.127 5.214m25.787-20.85c1.59 4.998-.347 10.603-5.135 13.768l-2.651 1.753.052-.476a23.582 23.582 0 0 1 7.734-15.045"/><path fill="#434A4F" d="M143.035 113.241h-2V67.267h12.586l-31.586-31.586-31.586 31.586h12.586v40.971h-2V69.267H85.621l36.414-36.414 36.414 36.414h-15.414v43.974"/><path fill="#434A4F" d="M152.3 117.653h-2V86.25h4.023l-11.646-10.639-12.579 11.254h3.983v13.393h-2V88.865h-7.218l17.828-15.949 16.787 15.334H152.3v29.403M151.087 122.271a1.007 1.007 0 0 1-1-1c0-.271.1-.521.29-.71.09-.091.2-.161.32-.221.37-.15.81-.06 1.09.221.19.189.29.439.29.71 0 .259-.1.509-.29.699a.995.995 0 0 1-.7.301m-18.01-18.011c-.27 0-.53-.11-.71-.3a.88.88 0 0 1-.22-.319.987.987 0 0 1-.07-.381.986.986 0 0 1 .29-.71c.09-.09.2-.17.32-.22.37-.149.81-.059 1.09.22a.965.965 0 0 1 .29.71c0 .131-.02.261-.07.381-.05.119-.13.229-.22.319-.19.19-.44.3-.7.3m-31.03 8.08a1 1 0 0 1-.71-.3c-.09-.09-.17-.2-.22-.32a.982.982 0 0 1-.07-.38c0-.26.11-.52.29-.71.38-.37 1.04-.37 1.42 0 .18.19.29.45.29.71 0 .27-.1.52-.29.7a.99.99 0 0 1-.33.22.977.977 0 0 1-.38.08m-.001-4.869a1 1 0 0 1-1-1V87.864a1 1 0 1 1 2 0v18.607a1 1 0 0 1-1 1m4.001 8.869c-.13 0-.26-.02-.38-.069-.12-.051-.23-.13-.33-.221-.18-.19-.29-.44-.29-.71 0-.13.03-.26.08-.38s.12-.23.21-.33c.1-.09.21-.16.33-.21a1 1 0 0 1 1.09.21c.09.1.16.21.21.33.06.12.08.25.08.38a.99.99 0 0 1-1 1m.001-4.866a1 1 0 0 1-1-1V91.866a1 1 0 1 1 2 0v18.608a1 1 0 0 1-1 1m5.999-7.224c-.13 0-.26-.03-.38-.08a.988.988 0 0 1-.54-.54.995.995 0 0 1-.08-.38c0-.13.03-.26.08-.38s.12-.229.22-.33c.09-.09.2-.16.32-.21.37-.16.81-.07 1.09.21.09.101.17.21.22.33.05.12.07.25.07.38a.986.986 0 0 1-.29.71c-.09.09-.2.16-.32.21-.12.05-.25.08-.39.08m.005-4.784a1 1 0 0 1-1-1v-8.601a1 1 0 1 1 2 0v8.601a1 1 0 0 1-1 1M213.053 185.051h2v-4h-2zM213.053 175.051h2v-4h-2zM207.053 179.051h4v-2h-4zM217.053 179.051h4v-2h-4zM158.301 155.033h2v-4h-2zM158.301 145.033h2v-4h-2zM152.301 149.033h4v-2h-4zM162.301 149.033h4v-2h-4z"/><path fill="#75C7D0" d="M165.229 87.718a4 4 0 1 1 8 0 4 4 0 0 1-8 0"/><path fill="#434A4F" d="M118.037 103.71a.99.99 0 0 1-1-1c0-.26.11-.52.29-.7.05-.05.1-.09.15-.13.06-.029.12-.069.18-.09.06-.03.12-.04.18-.06.2-.04.4-.02.58.06.12.05.23.12.33.22.18.18.29.44.29.7 0 .27-.11.52-.29.71-.1.09-.21.17-.33.221-.12.049-.25.069-.38.069m-.002-7.866a1 1 0 0 1-1-1v-23.61a1 1 0 0 1 2 0v23.61a1 1 0 0 1-1 1m-42.199 58.807l2.454.797.467-1.436c.526-1.622 1.968-2.671 3.673-2.671h.001a3.805 3.805 0 0 1 3.673 2.668l.468 1.435 2.453-.798-.467-1.435a3.806 3.806 0 0 1 1.402-4.319c1.379-1.003 3.162-1.002 4.541-.002l1.222.887 1.516-2.088-1.222-.887a3.805 3.805 0 0 1-1.405-4.318c.526-1.622 1.968-2.67 3.673-2.671h1.51v-2.581l-1.511.001c-1.705 0-3.147-1.047-3.674-2.669-.527-1.621.023-3.316 1.402-4.318l1.221-.888-1.473-2.025-1.221.888c-1.38 1.003-3.161 1.001-4.54.002-1.38-1.002-1.932-2.697-1.406-4.319l.466-1.436-2.454-.796-.466 1.436c-.526 1.621-1.968 2.67-3.672 2.67h-.002c-1.705 0-3.146-1.047-3.674-2.667l-.467-1.435-2.454.798.468 1.435c.527 1.622-.023 3.318-1.402 4.32-1.379 1.001-3.161 1-4.541.001l-1.222-.887-1.516 2.089 1.222.886a3.807 3.807 0 0 1 1.405 4.319 3.805 3.805 0 0 1-3.672 2.671l-1.511.001.001 2.58 1.511-.001h.001a3.805 3.805 0 0 1 3.673 2.668c.528 1.621-.023 3.316-1.402 4.318l-1.221.889 1.471 2.023 1.222-.888c1.378-1.003 3.16-1.002 4.54-.002 1.38 1.002 1.932 2.697 1.405 4.319l-.466 1.436zm3.739 3.317l-6.258-2.031 1.083-3.339c.308-.95-.148-1.699-.678-2.083-.529-.383-1.381-.585-2.189.001l-2.839 2.063-3.824-5.258 2.839-2.064c.807-.587.879-1.461.676-2.083-.202-.622-.774-1.286-1.771-1.286h-.001l-3.51.001-.003-6.58 3.511-.001c.998 0 1.569-.665 1.771-1.288.202-.623.13-1.497-.678-2.082l-2.84-2.063 3.866-5.325 2.84 2.061c.808.587 1.661.385 2.19 0 .529-.384.984-1.133.676-2.083l-1.086-3.338 6.257-2.036 1.086 3.338c.309.948 1.118 1.286 1.772 1.286h.001c.654 0 1.462-.338 1.771-1.287l1.083-3.339 6.259 2.031-1.083 3.338c-.308.95.148 1.699.678 2.083.529.384 1.381.586 2.189 0l2.839-2.066 3.825 5.262-2.839 2.063c-.807.587-.879 1.461-.676 2.083.202.622.774 1.287 1.772 1.287l3.51-.001.002 6.581h-3.51c-.998 0-1.569.666-1.772 1.289-.201.622-.13 1.495.678 2.081l2.841 2.063-3.867 5.324-2.84-2.061c-.808-.587-1.662-.385-2.191.001-.528.384-.984 1.134-.675 2.082l1.086 3.338-6.258 2.036-1.086-3.338c-.308-.949-1.117-1.287-1.771-1.287h-.001c-.654 0-1.463.339-1.771 1.288l-1.084 3.339z"/><path fill="#E9886C" d="M82.452 136.813a1.732 1.732 0 0 0-1.418.723 1.735 1.735 0 0 0-.31 1.3 1.747 1.747 0 1 0 2.749-1.69h-.001a1.73 1.73 0 0 0-1.02-.333zm-.012 5.495a3.712 3.712 0 0 1-2.189-.714 3.719 3.719 0 0 1-1.502-2.443 3.718 3.718 0 0 1 .666-2.789 3.724 3.724 0 0 1 2.442-1.502 3.734 3.734 0 0 1 2.789.666 3.723 3.723 0 0 1 1.502 2.443 3.727 3.727 0 0 1-.666 2.789 3.723 3.723 0 0 1-2.442 1.502c-.2.031-.401.048-.6.048z"/><path fill="#434A4F" d="M80.247 128.141a.986.986 0 0 1 .87-1.101.988.988 0 0 1 1.11.88 1 1 0 0 1-.88 1.101c-.03.009-.07.009-.11.009-.5 0-.94-.38-.99-.889zm4.62 1.13a.996.996 0 0 1-.71-1.221c.13-.54.68-.86 1.21-.72a1 1 0 0 1-.25 1.97c-.08 0-.17-.01-.25-.029zm-8.24.37a.997.997 0 0 1 .42-1.351.996.996 0 0 1 1.35.42c.26.49.07 1.09-.42 1.351-.15.08-.31.12-.46.12-.36 0-.71-.201-.89-.54zm11.45 1.149c0-.01-.01-.01-.01-.019h-.01a1.007 1.007 0 0 1-.23-1.401c.33-.439.95-.55 1.4-.22.01.01.03.02.04.031.43.329.53.939.21 1.38-.2.269-.5.419-.81.419-.21 0-.41-.06-.59-.19zm-14.27 1.55a.997.997 0 1 1 1.31-1.5c.42.36.46.99.1 1.41-.2.22-.48.34-.76.34-.23 0-.46-.08-.65-.25zm16.7 1a.993.993 0 0 1 .3-1.38.993.993 0 0 1 1.38.3c.3.46.17 1.08-.3 1.381a.997.997 0 0 1-1.38-.301zm-18.37 2.54a.988.988 0 0 1-.59-1.279v.009c.18-.53.75-.79 1.28-.61.51.19.78.76.59 1.29a.99.99 0 0 1-.93.65c-.12 0-.23-.02-.35-.06zm19.71.721c-.11-.54.23-1.061.77-1.181.54-.109 1.07.24 1.19.78.11.54-.24 1.071-.78 1.18-.07.02-.14.02-.2.02-.47 0-.88-.32-.98-.799zm-21 2.21c-.01-.551.43-1.011.98-1.021a.989.989 0 0 1 1.02.97.996.996 0 0 1-.97 1.03h-.02c-.55 0-.99-.439-1.01-.979zm21.89 2.469a.998.998 0 1 1 .33-1.969.99.99 0 0 1 .82 1.149c-.08.49-.5.83-.98.83-.06 0-.11 0-.17-.01zm-21.01 1.7c-.21-.51.03-1.1.54-1.31.51-.21 1.1.04 1.31.55a.999.999 0 0 1-.55 1.301c-.12.049-.25.08-.38.08a.993.993 0 0 1-.92-.621zm19.33 1.831a1.006 1.006 0 0 1-.35-1.371c.29-.47.9-.629 1.37-.35.48.28.64.9.35 1.37a.98.98 0 0 1-.86.49c-.17 0-.35-.04-.51-.139zm-17.01 1.739a.996.996 0 1 1 1.44-1.38 1 1 0 0 1-.03 1.42.997.997 0 0 1-.69.27.97.97 0 0 1-.72-.31zm14.18.95a.989.989 0 0 1 .16-1.399 1.002 1.002 0 0 1 1.41.17.99.99 0 0 1-.17 1.399 1.003 1.003 0 0 1-1.4-.17zm-10.73 1.55c-.5-.239-.71-.83-.48-1.33.24-.5.84-.72 1.34-.48h-.01a.997.997 0 0 1-.42 1.901c-.15 0-.29-.031-.43-.091zm7.1-.07a1.004 1.004 0 0 1 1.92-.58c.16.52-.14 1.08-.67 1.25a1.014 1.014 0 0 1-1.25-.67zm-2.98 1.15a.997.997 0 0 1-.92-1.069.99.99 0 0 1 1.06-.931c.55.04.97.52.93 1.07-.04.53-.48.93-1 .93h-.07zM34.946 185.051h2v-4h-2zM34.946 175.051h2v-4h-2zM28.946 179.051h4v-2h-4zM38.946 179.051h4v-2h-4zM42.231 106.004h2v-4h-2zM42.231 96.004h2v-4h-2zM36.231 100.004h4v-2h-4zM46.231 100.004h4v-2h-4z"/><path fill="#75C7D0" d="M156.666 90.158h-3.134v2.83a13.28 13.28 0 0 0 1.879 1.512l2.652 1.753-.053-.476a23.67 23.67 0 0 0-1.344-5.619"/></g></svg>