<?xml version="1.0" encoding="utf-8"?><svg xmlns="http://www.w3.org/2000/svg" width="250" height="250" viewBox="0 0 250 250"><g fill="none" fill-rule="evenodd"><path fill="#FFD15D" d="M75.077 131h100v-2h-100v2zm80 4h14v-2h-14v2zm-74 0h14v-2h-14v2zm-9.998 4.008h107.997v-58H71.079v58z"/><path fill="#475059" d="M119.328 48.971h12v-12h-12v12zm-2 2h16v-16h-16v16z"/><path fill="#475059" d="M125.327 67.969c-3.859 0-7-3.14-7-7h2c0 2.757 2.244 5 5 5 2.757 0 5-2.243 5-5s-2.243-5-5-5h-1v-5.998h2v4.069c3.388.487 6 3.408 6 6.929 0 3.86-3.14 7-7 7M121.077 35.97h2v-6.968h-2zM127.077 35.97h2v-6.968h-2z"/><path fill="#475059" d="M155.078 80.971h-2v-1.407l-27.754-15.123-28.246 15.128v1.402h-2v-2.599l30.254-16.205 29.746 16.21v2.594"/><path fill="#48515A" d="M75.078 130.998h99.999V85.001H75.078v45.997zm-2 2h103.999V83.001H73.078v49.997z"/><path fill="#48515A" d="M80.082 132.998a1 1 0 0 1-1-1V84a1 1 0 0 1 2 0v47.998a1 1 0 0 1-1 1m6.002 0a1 1 0 0 1-1-1V84a1 1 0 0 1 2 0v47.998a1 1 0 0 1-1 1m6.002 0a1 1 0 0 1-1-1V84a1 1 0 0 1 2 0v47.998a1 1 0 0 1-1 1m6.002 0a1 1 0 0 1-1-1V84a1 1 0 0 1 2 0v47.998a1 1 0 0 1-1 1m6.006 0a1 1 0 0 1-1-1V84a1 1 0 0 1 2 0v47.998a1 1 0 0 1-1 1m6.003 0a1 1 0 0 1-1-1V84a1 1 0 0 1 2 0v47.998a1 1 0 0 1-1 1m6.002 0a1 1 0 0 1-1-1V84a1 1 0 0 1 2 0v47.998a1 1 0 0 1-1 1m6.006 0a1 1 0 0 1-1-1V84a1 1 0 0 1 2 0v47.998a1 1 0 0 1-1 1m6.003 0a1 1 0 0 1-1-1V84a.999.999 0 1 1 2 0v47.998a1 1 0 0 1-1 1m6.002 0a1 1 0 0 1-1-1V84a.999.999 0 1 1 2 0v47.998a1 1 0 0 1-1 1m6.006 0a1 1 0 0 1-1-1V84a1 1 0 0 1 2 0v47.998a1 1 0 0 1-1 1m6.002 0a1 1 0 0 1-1-1V84a1 1 0 0 1 2 0v47.998a1 1 0 0 1-1 1m6.002 0a1 1 0 0 1-1-1V84a1 1 0 0 1 2 0v47.998a1 1 0 0 1-1 1m6.004 0a1 1 0 0 1-1-1V84a1 1 0 0 1 2 0v47.998a1 1 0 0 1-1 1m6.007 0a1 1 0 0 1-1-1V84a.999.999 0 1 1 2 0v47.998a1 1 0 0 1-1 1m6.002 0a1 1 0 0 1-1-1V84a.999.999 0 1 1 2 0v47.998a1 1 0 0 1-1 1M80.952 136.997h14.125v-2H80.952zM154.997 136.997h14.079v-2h-14.079zM107.647 210.998h-2v-11H68.649v11h-2v-13h40.998v13"/><path fill="#5FE0ED" d="M61.649 220.998h48.119v-12.995H61.649z"/><path fill="#48515A" d="M75.648 215.998h-3.999a1 1 0 0 1 0-2h3.999a1 1 0 1 1 0 2"/><path fill="#48515A" d="M69.649 213.998a1.001 1.001 0 0 0 0 2 1.001 1.001 0 0 0 0-2zm0 4c-1.654 0-3-1.346-3-3 0-1.655 1.346-3 3-3s3 1.345 3 3c0 1.654-1.346 3-3 3z"/><path fill="#DEDEDD" d="M52.87 137.471v15.793l11.028 9.525a12.427 12.427 0 0 0 8.943 3.638l3.322-.042-12.286-10.545v-10.364c0-2.983-1.071-5.619-3.002-7.246v-.759c0-4.945-2.926-8.955-7.872-8.955v1.073c-1.12-.684-2.463-1.073-4.002-1.073v1.073c2.48 1.514 3.869 4.476 3.869 7.882"/><path fill="#475059" d="M76.162 167.385a.998.998 0 0 1-.651-.241l-12.634-10.845v-10.823c0-2.702-.965-5.064-2.646-6.481l-.356-.3v-1.223c0-3.96-2.125-7.956-6.872-7.956h-3.002v.073a1 1 0 1 1-2 0v-2.073h5.002c5.224 0 8.872 4.094 8.872 9.956v.311c1.913 1.814 3.002 4.588 3.002 7.693v9.904l11.937 10.246a1 1 0 0 1-.652 1.759"/><path fill="#475059" d="M100.953 199.398a1 1 0 0 1-1-1v-21.856a9.122 9.122 0 0 0-2.689-6.492l-23.513-23.513c-2.564 3.33-2.2 8.435.995 11.63l9.629 9.114-11.521.146c-3.568.039-7.119-1.387-9.663-3.931l-11.321-9.775v-16.249c0-3.67-1.825-7.371-5.872-7.893v29.396l27.978 26.666v12.674a1 1 0 0 1-2 0v-11.818l-27.978-26.666v-32.315h1c5.224 0 8.872 4.094 8.872 9.956v15.334l10.681 9.226a11.618 11.618 0 0 0 8.277 3.395l6.591-.083-6.067-5.744c-1.989-1.989-3.174-4.749-3.268-7.592-.097-2.949.937-5.662 2.914-7.638l.707-.707 24.973 24.973a11.108 11.108 0 0 1 3.275 7.906v21.856a1 1 0 0 1-1 1"/><path fill="#48515A" d="M180.131 210.998h-2v-11h-36.998v11h-2v-13h40.998v13"/><path fill="#5FE0ED" d="M137.011 220.998h48.12v-12.995h-48.12z"/><path fill="#48515A" d="M175.131 215.998h-3.999a1 1 0 0 1 0-2h3.999a1 1 0 1 1 0 2"/><path fill="#48515A" d="M177.131 213.998a1 1 0 1 0 0 2 1 1 0 0 0 0-2zm0 4c-1.655 0-3-1.346-3-3 0-1.655 1.345-3 3-3 1.654 0 3 1.345 3 3 0 1.654-1.346 3-3 3z"/><path fill="#DEDEDD" d="M193.91 137.471v15.793l-11.028 9.525a12.43 12.43 0 0 1-8.943 3.638l-3.322-.042 12.286-10.545v-10.364c0-2.983 1.071-5.619 3.002-7.246v-.759c0-4.945 2.926-8.955 7.872-8.955v1.073c1.12-.684 2.463-1.073 4.002-1.073v1.073c-2.481 1.514-3.869 4.476-3.869 7.882"/><path fill="#475059" d="M170.617 167.385a1 1 0 0 1-.651-1.759l11.937-10.246v-9.904c0-3.105 1.088-5.879 3.002-7.693v-.311c0-5.862 3.648-9.956 8.872-9.956h5.002v2.073a1 1 0 1 1-2 0v-.073h-3.002c-4.747 0-6.872 3.996-6.872 7.956v1.223l-.356.3c-1.682 1.417-2.646 3.779-2.646 6.481v10.823l-12.635 10.845a.994.994 0 0 1-.651.241"/><path fill="#475059" d="M145.827 199.398a1 1 0 0 1-1-1v-21.856c0-2.987 1.163-5.794 3.275-7.906l24.973-24.973.707.707c1.977 1.976 3.011 4.689 2.914 7.638-.095 2.843-1.279 5.603-3.248 7.573l-6.087 5.763 6.59.083c3.092.014 6.059-1.181 8.224-3.345l10.734-9.276v-15.334c0-5.862 3.649-9.956 8.872-9.956h1v32.315l-27.977 26.666v11.818a1 1 0 0 1-2 0v-12.674l27.977-26.666v-29.396c-4.046.522-5.872 4.223-5.872 7.893v16.249l-11.373 9.824c-2.49 2.494-6.004 3.929-9.61 3.882l-11.521-.146 9.648-9.133c3.177-3.177 3.541-8.282.976-11.611l-23.513 23.513a9.12 9.12 0 0 0-2.689 6.492v21.856a1 1 0 0 1-1 1"/><path fill="#FFD15D" d="M74.577 53.375a1.375 1.375 0 1 1-2.75 0 1.375 1.375 0 0 1 2.75 0m-13.5 31.375a1.5 1.5 0 1 1-3 0 1.5 1.5 0 0 1 3 0m13.75-14a1.75 1.75 0 1 1 3.501.001 1.75 1.75 0 0 1-3.501-.001m113.75 36.875a1.874 1.874 0 1 1-3.749.001 1.874 1.874 0 0 1 3.749-.001M167.077 142a1 1 0 1 1 2 0 1 1 0 0 1-2 0m-51.75 9.125a2.625 2.625 0 1 1-5.25 0 2.625 2.625 0 0 1 5.25 0"/><path fill="#5FE0ED" d="M173.577 61.75a.5.5 0 1 1 1 0 .5.5 0 0 1-1 0"/><path fill="#48515A" d="M213.053 130.039h2v-4h-2zM213.053 140.039h2v-4h-2zM217.053 134.039h4v-2h-4zM207.053 134.039h4v-2h-4zM34.946 100.021h2v-4h-2zM34.946 110.021h2v-4h-2zM38.946 104.021h4v-2h-4zM28.946 104.021h4v-2h-4zM206.077 66c-1.103 0-2 .897-2 2s.897 2 2 2 2-.897 2-2-.897-2-2-2zm0 6c-2.205 0-4-1.795-4-4 0-2.206 1.795-4 4-4 2.206 0 4 1.794 4 4 0 2.205-1.794 4-4 4z"/></g></svg>