<?xml version="1.0" encoding="utf-8"?><svg xmlns="http://www.w3.org/2000/svg" width="250" height="250" viewBox="0 0 250 250"><g fill="none" fill-rule="evenodd"><path fill="#5FE0ED" d="M221 193.666a2 2 0 1 1-4 0 2 2 0 0 1 4 0"/><path fill="#FFD15D" d="M69.58 94.405l-3.02-3.721H50v97.323a4.682 4.682 0 0 0 4.677 4.677h.557a4.009 4.009 0 0 0 3.926-3.234l10.506-53.844-.086-41.201m9.891 22.279l-3.804 19.496v.106l-.083.427h41.119l-5.523 28.304H70.05l-4.998 25.567-.003.015v.001c-.066.334-.151.659-.248.98-.03.099-.066.195-.099.293-.075.221-.155.44-.245.654-.021.051-.036.106-.058.157H183.23a4.007 4.007 0 0 0 3.926-3.234l14.199-72.766H79.471"/><path fill="#F58E70" d="M174.038 161.76L163 157.029l14.724 35.655h5.506a4.007 4.007 0 0 0 3.926-3.234l3.311-16.97-6.556 13.187-9.873-23.907"/><path fill="#475059" d="M48 187.684h-2v-101h22.465l4.889 6.023-1.552 1.261-4.289-5.284H48v99M183.23 196.684H54.5v-2h128.73a6.012 6.012 0 0 0 5.89-4.851l3.731-19.126 1.963.382-3.732 19.126a8.015 8.015 0 0 1-7.852 6.469"/><path fill="#475059" d="M55.234 196.684h-.557c-4.784 0-8.677-3.893-8.677-8.677V99.684h2v88.323a6.685 6.685 0 0 0 6.677 6.677h.557c2.863 0 5.34-2.04 5.889-4.851l15.053-77.149H206.21l-7.327 37.552-1.963-.383 6.863-35.169H77.824l-14.738 75.531a8.017 8.017 0 0 1-7.852 6.469"/><path fill="#48515A" d="M191.308 56.329h-2v-3.994c0-3.309-2.691-6-6-6v-2.001c4.411 0 8 3.589 8 8.001v3.994M93.69 64.329h103.618v-2H93.69zM79.69 46.334h103.618v-2H79.69z"/><path fill="#FFD15D" d="M187.308 52.335v.994H97.69v3c0 2.205-1.794 4-4 4-2.205 0-4-1.795-4-4v-3.994a9.939 9.939 0 0 0-.835-4h94.453c2.205 0 4 1.794 4 4"/><path fill="#48515A" d="M72.742 135.332c-.553 0-1-.447-1-.999l-.052-81.998c0-4.412 3.589-8.001 8-8.001s8 3.589 8 8.001v3.994c0 3.309 2.692 6 6 6 3.309 0 6-2.691 6-6v-1h105.618v1c0 4.411-3.589 8-8 8h-18.502l-.116 49.339a1.001 1.001 0 0 1-1 .998h-.002a1 1 0 0 1-.998-1.003l.12-51.334h20.498a6.009 6.009 0 0 0 5.916-5H101.628c-.494 3.941-3.865 7-7.938 7-4.411 0-8-3.589-8-8v-3.994c0-3.309-2.691-6-6-6-3.308 0-6 2.691-6 6v2.996l.052 79.001a1 1 0 0 1-1 1"/><path fill="#475059" d="M68.167 160.357h-6.204c-4.231 0-7.673-3.442-7.673-7.673s3.442-7.673 7.673-7.673h26.692a4.342 4.342 0 0 1 4.337 4.337 4.341 4.341 0 0 1-4.337 4.336H61.998v-2h26.657a2.339 2.339 0 0 0 2.337-2.336 2.34 2.34 0 0 0-2.337-2.337H61.963a5.68 5.68 0 0 0-5.673 5.673 5.679 5.679 0 0 0 5.673 5.673h6.204v2"/><path fill="#475059" d="M112.004 166.017H67v-2h43.356l5.133-26.304H72.523v-2h45.394l-5.913 30.304M89 74.665c-1.654 0-3 1.346-3 3v4c0 1.655 1.346 3 3 3s3-1.345 3-3v-4c0-1.654-1.346-3-3-3zm0 12c-2.757 0-5-2.243-5-5v-4c0-2.756 2.243-5 5-5s5 2.244 5 5v4c0 2.757-2.243 5-5 5zM100.998 85.665h-2v-11h-1.999v-2h3.999v13"/><path fill="#475059" d="M96.999 86.665h5.999v-2h-5.999zM111 74.665c-1.654 0-3 1.346-3 3v4c0 1.655 1.346 3 3 3s3-1.345 3-3v-4c0-1.654-1.346-3-3-3zm0 12c-2.757 0-5-2.243-5-5v-4c0-2.756 2.243-5 5-5s5 2.244 5 5v4c0 2.757-2.243 5-5 5zM122.998 85.665h-2v-11h-1.999v-2h3.999v13"/><path fill="#475059" d="M118.999 86.665h5.999v-2h-5.999zM133.002 74.665c-1.654 0-3 1.346-3 3v4c0 1.655 1.346 3 3 3 1.655 0 3-1.345 3-3v-4c0-1.654-1.345-3-3-3zm0 12c-2.757 0-5-2.243-5-5v-4c0-2.756 2.243-5 5-5s5 2.244 5 5v4c0 2.757-2.243 5-5 5zM145.001 85.665h-2v-11h-2v-2h4v13"/><path fill="#475059" d="M141.001 86.665H147v-2h-5.999zM155.002 74.665c-1.654 0-3 1.346-3 3v4c0 1.655 1.346 3 3 3 1.655 0 3-1.345 3-3v-4c0-1.654-1.345-3-3-3zm0 12c-2.757 0-5-2.243-5-5v-4c0-2.756 2.243-5 5-5s5 2.244 5 5v4c0 2.757-2.243 5-5 5zM167.001 85.665h-2v-11h-2v-2h4v13"/><path fill="#475059" d="M163.001 86.665H169v-2h-5.999zM165 92.665c-1.654 0-3 1.346-3 3v4a3.004 3.004 0 0 0 3 3.001c1.654 0 3-1.346 3-3.001v-4c0-1.654-1.346-3-3-3zm0 12.001c-2.757 0-5-2.244-5-5.001v-4c0-2.756 2.243-5 5-5s5 2.244 5 5v4a5.007 5.007 0 0 1-5 5.001zM88.998 103.666h-2V92.665h-1.999v-2h3.999v13.001"/><path fill="#475059" d="M84.999 104.666h5.999v-2h-5.999zM99 92.665c-1.654 0-3 1.346-3 3v4a3.004 3.004 0 0 0 3 3.001c1.654 0 3-1.346 3-3.001v-4c0-1.654-1.346-3-3-3zm0 12.001c-2.757 0-5-2.244-5-5.001v-4c0-2.756 2.243-5 5-5s5 2.244 5 5v4a5.007 5.007 0 0 1-5 5.001zM110.998 103.666h-2V92.665h-1.999v-2h3.999v13.001"/><path fill="#475059" d="M106.999 104.666h5.999v-2h-5.999zM121.002 92.665c-1.654 0-3 1.346-3 3v4a3.004 3.004 0 0 0 3 3.001c1.655 0 3-1.346 3-3.001v-4c0-1.654-1.345-3-3-3zm0 12.001c-2.757 0-5-2.244-5-5.001v-4c0-2.756 2.243-5 5-5s5 2.244 5 5v4a5.007 5.007 0 0 1-5 5.001zM133.001 103.666h-2V92.665h-2v-2h4v13.001"/><path fill="#475059" d="M129.001 104.666H135v-2h-5.999zM143.002 92.665c-1.654 0-3 1.346-3 3v4a3.004 3.004 0 0 0 3 3.001c1.655 0 3-1.346 3-3.001v-4c0-1.654-1.345-3-3-3zm0 12.001c-2.757 0-5-2.244-5-5.001v-4c0-2.756 2.243-5 5-5s5 2.244 5 5v4a5.007 5.007 0 0 1-5 5.001zM155.001 103.666h-2V92.665h-2v-2h4v13.001"/><path fill="#475059" d="M151.001 104.666H157v-2h-5.999z"/><path fill="#DFE0E0" d="M54.5 195.684h.177c-.06 0-.118-.008-.178-.009l.001.009"/><path fill="#48515A" d="M164.86 136.917l19.135 46.335 7.904-15.898 14.147 14.146 3.423-3.422-14.277-14.277 13.5-8.099-43.832-18.785zm18.966 51.166l-22.686-54.937 51.935 22.258-14.657 8.794 13.879 13.88-6.251 6.251-13.594-13.595-8.626 17.349z"/><path fill="#475059" d="M196.708 83.807a3.851 3.851 0 0 0-3.846 3.846 3.85 3.85 0 0 0 3.846 3.846 3.85 3.85 0 0 0 3.847-3.846 3.851 3.851 0 0 0-3.847-3.846zm0 9.692a5.853 5.853 0 0 1-5.846-5.846 5.853 5.853 0 0 1 5.846-5.846 5.853 5.853 0 0 1 5.847 5.846 5.853 5.853 0 0 1-5.847 5.846z"/><path fill="#475059" d="M196.708 97.653a9.914 9.914 0 0 1-7.204-3.065 9.925 9.925 0 0 1-2.788-7.323c.197-5.189 4.415-9.407 9.604-9.604a9.94 9.94 0 0 1 7.323 2.788 9.914 9.914 0 0 1 3.065 7.204v2.77a3.08 3.08 0 0 1-3.076 3.077 3.08 3.08 0 0 1-3.077-3.077v-7.615h2v7.615c0 .594.483 1.077 1.077 1.077.593 0 1.076-.483 1.076-1.077v-2.77a7.933 7.933 0 0 0-2.452-5.763c-1.581-1.522-3.679-2.331-5.86-2.23-4.081.154-7.526 3.6-7.681 7.681a7.936 7.936 0 0 0 2.23 5.86 7.933 7.933 0 0 0 5.763 2.452 7.94 7.94 0 0 0 5.035-1.782l1.26 1.554a10.014 10.014 0 0 1-2.402 1.442 9.924 9.924 0 0 1-3.893.786m-149.313 8.018c-5.923 0-10.741 4.819-10.741 10.742 0 5.922 4.818 10.741 10.741 10.741s10.742-4.819 10.742-10.741c0-5.923-4.819-10.742-10.742-10.742zm0 23.483c-7.025 0-12.741-5.716-12.741-12.741 0-7.026 5.716-12.742 12.741-12.742 7.026 0 12.742 5.716 12.742 12.742 0 7.025-5.716 12.741-12.742 12.741z"/><path fill="#475059" d="M47.394 105.671c-2.885 0-5.322 4.919-5.322 10.742 0 5.822 2.437 10.741 5.322 10.741 2.885 0 5.322-4.919 5.322-10.741 0-5.823-2.437-10.742-5.322-10.742zm0 23.483c-4.106 0-7.322-5.597-7.322-12.741 0-7.145 3.216-12.742 7.322-12.742s7.322 5.597 7.322 12.742c0 7.144-3.216 12.741-7.322 12.741z"/><path fill="#475059" d="M35.654 117.413h23.482v-2H35.654z"/><path fill="#F58E70" d="M54.661 67.647a2 2 0 1 1-4 0 2 2 0 0 1 4 0"/><path fill="#F58E70" d="M52.661 66.647a1.001 1.001 0 1 0 .999 1 1 1 0 0 0-.999-1zm0 4a3.003 3.003 0 0 1-3.001-3c0-1.654 1.346-3 3.001-3 1.654 0 3 1.346 3 3 0 1.655-1.346 3-3 3z"/><path fill="#48515A" d="M35 49.665h2v-4h-2zM35 59.665h2v-4h-2zM39 53.665h4v-2h-4zM29 53.665h4v-2h-4z"/><path fill="#FFD15D" d="M199 203.666a2 2 0 1 1-4 0 2 2 0 0 1 4 0"/></g></svg>