<?xml version="1.0" encoding="utf-8"?><svg xmlns="http://www.w3.org/2000/svg" width="250" height="250" viewBox="0 0 250 250"><g fill="none" fill-rule="evenodd"><path fill="#5FE0ED" d="M65 206.5h114v-150H65v150zm-8 8h130v-166H57v166zm150-75.03a3 3 0 1 1-6 0 3 3 0 0 1 6 0"/><path fill="#DEDEDD" d="M77 124.5h14v-14H77v14zm-8 6h106v-70H69v70zM65 198.5h114v-10H65z"/><path fill="#48515A" d="M180 207.5H64v-19h2v17h112v-17h2v19M116 51.5h18v-5c0-4.963-4.037-9-9-9s-9 4.037-9 9v5zm20 2h-22v-7c0-6.065 4.935-11 11-11s11 4.935 11 11v7z"/><path fill="#48515A" d="M124.999 43.5c-1.103 0-2 .897-2 2 0 1.102.897 2 2 2s2-.898 2-2c0-1.103-.897-2-2-2zm0 6c-2.206 0-4-1.794-4-4s1.794-4 4-4 4 1.794 4 4-1.794 4-4 4zM106 53.5v11c0 1.654 1.346 3 3 3h32c1.654 0 3-1.346 3-3v-11h-38zm35 16h-32c-2.757 0-5-2.243-5-5v-13h42v13c0 2.757-2.243 5-5 5z"/><path fill="#48515A" d="M110 71.5h30v-2h-30v2zm-2 2h34v-6h-34v6z"/><path fill="#48515A" d="M204.539 189.5H39.461L64 134.288V55.5h41v2H66v77.212l-.086.194L42.539 187.5h158.922L178 134.712V122.5h2v11.788l24.539 55.212M180 110.5h-2v-53h-33v-2h35v55"/><path fill="#FFF" d="M69 134.5h62"/><path fill="#48515A" d="M67.999 134.5c0-.55.45-1 1-1s1 .45 1 1-.45 1-1 1-1-.45-1-1zm4 0c0-.55.45-1 1-1s1 .45 1 1-.45 1-1 1-1-.45-1-1zm4 0c0-.55.45-1 1-1s1 .45 1 1-.45 1-1 1-1-.45-1-1zm4 0c0-.55.45-1 1-1s1 .45 1 1-.45 1-1 1-1-.45-1-1zm4 0c0-.55.45-1 1-1s1 .45 1 1-.45 1-1 1-1-.45-1-1zm4 0c0-.55.45-1 1-1s1 .45 1 1-.45 1-1 1-1-.45-1-1zm4 0c0-.55.45-1 1-1s1 .45 1 1-.45 1-1 1-1-.45-1-1zm4 0c0-.55.45-1 1-1s1 .45 1 1-.45 1-1 1-1-.45-1-1zm4 0c0-.55.45-1 1-1s1 .45 1 1-.45 1-1 1-1-.45-1-1zm4 0c0-.55.45-1 1-1s1 .45 1 1-.45 1-1 1-1-.45-1-1zm4 0c0-.55.45-1 1-1s1 .45 1 1-.45 1-1 1-1-.45-1-1zm4 0c0-.55.45-1 1-1s1 .45 1 1-.45 1-1 1-1-.45-1-1zm4 0c0-.55.45-1 1-1s1 .45 1 1-.45 1-1 1-1-.45-1-1zm4 0c0-.55.45-1 1-1s1 .45 1 1-.45 1-1 1-1-.45-1-1zm4 0c0-.55.45-1 1-1s1 .45 1 1-.45 1-1 1-1-.45-1-1zm4 0c0-.55.45-1 1-1s1 .45 1 1-.45 1-1 1-1-.45-1-1zM65 203.5h114v-2H65z"/><path fill="#475059" d="M99 81.5h68v-2H99zM99 87.5h68v-2H99zM99 93.5h40v-2H99zM101 111.5h52v-2h-52zM101 117.5h48v-2h-48zM101 123.5h44v-2h-44z"/><path fill="#48515A" d="M213 194.5h2v-4h-2zM213 204.5h2v-4h-2zM217 198.5h4v-2h-4zM207 198.5h4v-2h-4zM35 98.5h2v-4h-2zM35 108.5h2v-4h-2zM39 102.5h4v-2h-4zM29 102.5h4v-2h-4z"/><path fill="#FFD15D" d="M51 77.5a3 3 0 1 1-6 0 3 3 0 0 1 6 0"/><path fill="#F58E70" d="M46 197.5a2 2 0 1 1-4 0 2 2 0 0 1 4 0"/><path fill="#48515A" d="M78 123.5h12v-12H78v12zm-2 2h16v-16H76v16z"/><path fill="#5FE0ED" d="M77 94.5h14v-14H77z"/><path fill="#48515A" d="M83.2 91.898l-3.8-3.799 1.414-1.414L83.2 89.07l9.093-9.093 1.414 1.415L83.2 91.898"/><path fill="#48515A" d="M91.999 95.5h-16v-16h12.832v2H77.999v12h12v-6.917h2V95.5"/><path fill="#FFD15D" d="M133.804 149.212l1.414 1.414 1.586-1.585h5.657l32.415-32.415-7.071-7.071-32.415 32.414v5.657l-1.586 1.586M134.511 154.163l-2.829 2.828-5.657-2.828 4.243-4.243"/><path fill="#475059" d="M130.976 149.212l4.242 4.243 2.415-2.415h5.656l34.415-34.414-9.899-9.899-34.415 34.414v5.657l-2.414 2.414zm4.242 7.071l-7.071-7.071 3.243-3.242v-5.657l36.415-36.415 12.727 12.728-36.415 36.414h-5.656l-3.243 3.243z"/><path fill="#475059" d="M146.533 149.212l-11.49-11.49 1.414-1.414 11.49 11.49-1.414 1.414"/><path fill="#FFD15D" d="M121 156.5H67l2-4h52v4M155 168.5h-54l2-4h50l2 4"/><path fill="#475059" d="M69 167.5h28v-2H69zM65 175.5h44v-2H65zM157 167.5h20v-2h-20zM151 155.5h20v-2h-20z"/><path fill="#FFF" d="M167 134.5h6.666"/><path fill="#48515A" d="M165.999 134.5c0-.55.45-1 1-1s1 .45 1 1-.45 1-1 1-1-.45-1-1zm4 0c0-.55.45-1 1-1s1 .45 1 1-.45 1-1 1-1-.45-1-1z"/></g></svg>