<?xml version="1.0" encoding="utf-8"?><svg xmlns="http://www.w3.org/2000/svg" width="250" height="250" viewBox="0 0 250 250"><g fill="none" fill-rule="evenodd"><path fill="#DFE0E0" d="M102.973 166.031h-9.375l-8.552 14h9.375l8.552-14M159.991 166.031h-9.375l8.552 14h9.375l-8.552-14M123.556 180.031h8v-14h-8z"/><path fill="#DEDEDD" d="M43.056 66.031h168v-10h-168z"/><path fill="#48515A" d="M212.557 167.031h-170v-111h2v109h166v-109h2v111"/><path fill="#48515A" d="M218.557 57.031h-84.669v-2h82.669v-8h-80.244v-2h82.244v12M99.722 57.031H36.557v-12h61.331v2H38.557v8h61.165v2M193.184 32.968h2v-4h-2zM193.184 42.968h2v-4h-2zM197.184 36.968h4v-2h-4zM187.184 36.968h4v-2h-4zM83.205 77.057h2v-4h-2zM83.205 87.057h2v-4h-2zM87.205 81.057h4v-2h-4zM77.205 81.057h4v-2h-4zM37.579 185.035h2v-4h-2zM37.579 195.035h2v-4h-2zM41.579 189.035h4v-2h-4zM31.579 189.035h4v-2h-4zM62.987 219.032h7.043l31.177-52.001h-7.043l-31.177 52.001zm8.176 2H59.456l33.575-56.001h11.707l-33.575 56.001zm112.396-2h7.043l-31.177-52.001h-7.043l31.177 52.001zm10.574 2h-11.707l-33.575-56.001h11.707l33.575 56.001zm-69.576-2h6v-52.001h-6v52.001zm-2 2h10v-56.001h-10v56.001z"/><path fill="#5FE0ED" d="M177.344 155.507l-21.051-48.548-17.616 40.626c-4.458 10.283-11.688 10.283-16.146 0l-6.199-14.295-6.198 14.295c-4.459 10.283-11.688 10.283-16.147 0l-6.02-13.883-9.455 21.805h98.832"/><path fill="#FFD15D" d="M87.967 133.702l-6.199-14.295c-4.458-10.283-11.688-10.283-16.146 0l-15.654 36.1h28.544l9.455-21.805m50.71 13.883l17.616-40.626-6.198-14.295c-4.459-10.283-11.688-10.283-16.147 0l-17.616 40.626 6.199 14.295c4.458 10.283 11.688 10.283 16.146 0"/><path fill="#F58E70" d="M110.134 147.585l6.198-14.295-6.02-13.883c-4.459-10.283-11.688-10.283-16.147 0l-6.198 14.295 6.02 13.883c4.459 10.283 11.688 10.283 16.147 0m95.754 7.922l-27.249-62.843c-4.459-10.283-11.688-10.283-16.147 0l-6.199 14.295 21.051 48.548h28.544"/><path fill="#48515A" d="M177.224 92.027c-1.103 0-2 .897-2 2s.897 2 2 2c1.102 0 2-.897 2-2s-.898-2-2-2zm0 6c-2.206 0-4-1.795-4-4 0-2.206 1.794-4 4-4s4 1.794 4 4c0 2.205-1.794 4-4 4zm9.999 3.999c-1.103 0-2 .897-2 2s.897 2 2 2c1.102 0 2-.897 2-2s-.898-2-2-2zm0 6c-2.206 0-4-1.795-4-4 0-2.206 1.794-4 4-4s4 1.794 4 4c0 2.205-1.794 4-4 4zM174.931 107.734l-1.414-1.414 16-16 1.414 1.414-16 16"/><path fill="#475059" d="M186.351 128.805l.003 55.163c0 1.654 1.346 3 3 3a3.005 3.005 0 0 0 3-3.001l-.003-55.163-3-6.505-3 6.506zm3.003 60.163c-2.757 0-5-2.243-5-5l-.003-55.602 5-10.844 5 10.843.003 55.602c0 2.757-2.243 5-5 5.001z"/><path fill="#475059" d="M185.755 178.358h7.599v-2h-7.599z"/><path fill="#475059" d="M188.324 177.358l-.002-48.004h2l.002 48.004h-2"/><path fill="#F58E70" d="M50.443 72.9c-9.374 0-17 7.626-17 17 0 9.374 7.626 17 17 17 9.374 0 17-7.626 17-17 0-9.374-7.626-17-17-17zm0 36c-10.476 0-19-8.523-19-19 0-10.476 8.524-19 19-19 10.477 0 19 8.524 19 19 0 10.477-8.523 19-19 19z"/><path fill="#48515A" d="M50.443 99.901a1 1 0 0 1-1-1V88.9a1 1 0 0 1 1-1h7a1 1 0 1 1 0 2h-6v9.001a1 1 0 0 1-1 1m.001-22.997c-.13 0-.259-.03-.389-.08a.866.866 0 0 1-.321-.22 1.011 1.011 0 0 1-.29-.7.92.92 0 0 1 .08-.389c.05-.12.121-.23.21-.321.37-.37 1.04-.37 1.411 0a.896.896 0 0 1 .219.321.974.974 0 0 1-.219 1.089c-.18.19-.441.3-.701.3m0 28a1.011 1.011 0 0 1-1-1c0-.27.111-.529.29-.71a1 1 0 0 1 .321-.219c.25-.1.53-.1.769 0a1 1 0 0 1 .321.219.983.983 0 0 1 0 1.41c-.18.19-.441.3-.701.3m-7-26.13c-.269 0-.519-.109-.71-.29a.983.983 0 0 1-.29-.71c0-.259.101-.52.29-.71.37-.37 1.05-.37 1.411 0 .19.19.299.451.299.71 0 .13-.03.261-.08.38a.828.828 0 0 1-.219.33c-.18.181-.441.29-.701.29m14 24.25c-.269 0-.519-.109-.71-.29a1.054 1.054 0 0 1-.29-.71c0-.259.111-.52.29-.71a1.024 1.024 0 0 1 1.411 0c.19.19.299.451.299.71 0 .261-.109.52-.299.71a.995.995 0 0 1-.151.12.525.525 0 0 1-.17.09.55.55 0 0 1-.189.06c-.061.011-.13.02-.191.02m-19.13-19.12a.98.98 0 0 1-.7-.3.979.979 0 0 1-.3-.7c0-.069.01-.13.021-.199.019-.06.029-.131.06-.19.019-.06.059-.12.089-.171.04-.05.08-.11.13-.15a1 1 0 0 1 .901-.27c.059.011.13.031.189.051.061.029.11.06.17.089.051.04.101.081.15.13.05.04.09.1.121.15a.93.93 0 0 1 .099.171c.021.059.04.13.051.19.019.069.019.13.019.199 0 .261-.099.52-.29.7-.049.05-.099.09-.15.13-.06.031-.109.06-.17.09-.059.02-.13.04-.189.06a1.14 1.14 0 0 1-.201.02m24.25 14c-.059 0-.129-.009-.19-.02-.069-.02-.13-.04-.189-.06-.061-.03-.121-.059-.17-.09a.625.625 0 0 1-.151-.13.979.979 0 0 1 0-1.41c.04-.049.09-.09.151-.12a.881.881 0 0 1 .17-.099c.059-.02.12-.04.189-.051.2-.04.391-.02.58.051.12.049.231.129.32.219.191.19.29.44.29.71 0 .261-.099.52-.29.7a.855.855 0 0 1-.32.22c-.13.05-.26.08-.39.08m-26.12-7a1.011 1.011 0 0 1-1-1c0-.139.021-.259.08-.389.05-.12.12-.23.21-.321.37-.37 1.04-.37 1.411 0a.896.896 0 0 1 .219.321.974.974 0 0 1-.219 1.089c-.18.19-.441.3-.701.3m28 0c-.269 0-.519-.11-.71-.3-.089-.089-.16-.2-.219-.319a.988.988 0 0 1-.071-.381c0-.139.021-.259.071-.389.059-.12.13-.23.219-.321.37-.37 1.05-.37 1.411 0a.896.896 0 0 1 .219.321c.05.13.08.25.08.389a.996.996 0 0 1-.299.7c-.18.19-.441.3-.701.3m-26.13 7a.98.98 0 0 1-.7-.3.868.868 0 0 1-.219-.319.997.997 0 0 1-.081-.381c0-.27.111-.53.3-.71.37-.37 1.04-.37 1.41 0 .191.18.29.44.29.71a.969.969 0 0 1-.07.381c-.05.119-.13.23-.22.319-.049.05-.099.09-.15.13-.06.031-.109.06-.17.09-.059.02-.13.04-.189.06a1.14 1.14 0 0 1-.201.02m24.25-14c-.059 0-.129-.009-.19-.02-.069-.02-.13-.04-.189-.06-.061-.03-.121-.059-.17-.09a.625.625 0 0 1-.151-.13.979.979 0 0 1 0-1.41c.04-.049.09-.09.151-.13.049-.029.109-.06.17-.089.059-.02.12-.04.189-.051.2-.04.391-.02.58.051.12.049.231.129.32.219.191.18.29.44.29.71 0 .261-.099.52-.29.7a.855.855 0 0 1-.32.22c-.13.05-.26.08-.39.08m-19.12 19.12c-.269 0-.519-.109-.71-.29a1.01 1.01 0 0 1-.29-.71c0-.129.021-.259.071-.379.059-.121.13-.23.219-.331.37-.37 1.04-.37 1.411 0 .099.101.169.21.219.331.05.12.08.25.08.379a1.007 1.007 0 0 1-1 1m14-24.25c-.269 0-.519-.109-.71-.29a1.054 1.054 0 0 1-.29-.71c0-.259.111-.52.29-.71.231-.229.58-.33.901-.27.069.011.13.03.189.06.061.02.12.05.17.09.061.04.11.08.151.12.19.19.299.451.299.71a1.007 1.007 0 0 1-1 1m58.01-17.787h2v-4.025l.834-.141a10.842 10.842 0 0 0 4.531-1.874l.69-.491 2.845 2.845 1.415-1.414-2.845-2.845.49-.689a10.849 10.849 0 0 0 1.874-4.532l.141-.834h4.025v-2h-4.025l-.141-.834a10.84 10.84 0 0 0-1.874-4.531l-.491-.689 2.846-2.845-1.415-1.415-2.845 2.846-.69-.491a10.832 10.832 0 0 0-4.531-1.874l-.834-.141v-4.026h-2v4.026l-.834.141a10.837 10.837 0 0 0-4.531 1.874l-.69.491-2.844-2.846-1.414 1.415 2.845 2.845-.491.689a10.844 10.844 0 0 0-1.875 4.531l-.141.834h-4.025v2h4.025l.141.834a10.848 10.848 0 0 0 1.875 4.532l.49.689-2.844 2.845 1.414 1.414 2.844-2.845.69.491a10.848 10.848 0 0 0 4.531 1.874l.834.141v4.025zm4 2h-6v-4.361a12.806 12.806 0 0 1-3.816-1.579l-3.083 3.082-4.242-4.242 3.083-3.083a12.78 12.78 0 0 1-1.581-3.817h-4.361v-6h4.361a12.8 12.8 0 0 1 1.581-3.816l-3.083-3.083 4.242-4.243 3.083 3.083a12.759 12.759 0 0 1 3.816-1.579v-4.362h6v4.362c1.357.319 2.635.847 3.817 1.579l3.083-3.083 4.243 4.243-3.083 3.083a12.811 12.811 0 0 1 1.579 3.816h4.361v6h-4.361a12.817 12.817 0 0 1-1.579 3.817l3.083 3.083-4.243 4.242-3.083-3.082a12.812 12.812 0 0 1-3.817 1.579v4.361z"/><path fill="#48515A" d="M116.454 42.987c-1.654 0-3 1.346-3 3 0 1.655 1.346 3 3 3s3-1.345 3-3c0-1.654-1.346-3-3-3zm0 8c-2.757 0-5-2.243-5-5s2.243-5 5-5 5 2.243 5 5-2.243 5-5 5z"/></g></svg>