<?xml version="1.0" encoding="utf-8"?><svg xmlns="http://www.w3.org/2000/svg" width="250" height="250" viewBox="0 0 250 250"><g fill="none" fill-rule="evenodd"><path fill="#FFD15D" d="M45.705 70.667a2.037 2.037 0 1 1 .001 4.075 2.037 2.037 0 0 1-.001-4.075"/><path fill="#DEDEDD" d="M119.999 139.849a57.407 57.407 0 0 1-47.053-33.078c4.032 23.501 23.316 41.382 47.053 43.631v-10.553m43.898-15.101a57.088 57.088 0 0 1-33.898 15.093v10.55a52.667 52.667 0 0 0 36.427-19.919l-2.529-5.724"/><path fill="#5FE0ED" d="M220.059 165.628L194.925 141v12.062l-65.124-.094v24.219h65.124L195 189l25.059-23.372"/><path fill="#F58E70" d="M29.741 165.628L54.876 141v12.062l65.123-.094v24.219H54.876L55 189l-25.259-23.372"/><path fill="#DEDEDD" d="M120.431 143.976h9.047v-9.047h-9.047z"/><path fill="#48515A" d="M124.955 136.546c-29.674-.023-53.711-24.098-53.688-53.772.023-29.674 24.098-53.711 53.773-53.688 29.674.023 53.711 24.098 53.687 53.772a53.722 53.722 0 0 1-4.226 20.847l-1.842-.78c11.162-26.36-1.159-56.777-27.518-67.938-26.36-11.162-56.777 1.158-67.939 27.518-11.162 26.36 1.159 56.777 27.518 67.939a51.831 51.831 0 0 0 56.755-10.973l1.41 1.418a53.427 53.427 0 0 1-37.93 15.657"/><path fill="#48515A" d="M124.955 220.999a6.006 6.006 0 0 1-6-6V135.45h2v79.549a4 4 0 1 0 8 0V135.45h2v79.549a6.006 6.006 0 0 1-6 6"/><path fill="#DEDEDD" d="M86.159 66.459c21.368-21.368 56.013-21.368 77.381 0a54.731 54.731 0 0 1 11.31 16.466c0-27.614-22.386-50-50.001-50-27.614.001-49.999 22.386-49.999 50.001a54.557 54.557 0 0 1 11.309-16.467"/><path fill="#5FE0ED" d="M151.792 58.339a29.944 29.944 0 0 0-7.007-9.693 29.331 29.331 0 0 0-1.115-1.024 30.618 30.618 0 0 0-28.353-6.316l-.038.011a31.365 31.365 0 0 0-4.587 1.706c-.102.047-.206.092-.307.14a30.535 30.535 0 0 0-6.916 4.506 29.768 29.768 0 0 0-6.613 8.215 30.89 30.89 0 0 0-4.266 15.701v27.6c0 4.264 1.442 9.712 1.471 10.147h17.401l-.561-2.246a63.406 63.406 0 0 0-3.657-10.571c-2.338-5.767-4.939-10.834-6.728-14.299a27.642 27.642 0 0 1-2.136-5.361 25.486 25.486 0 0 1 1.638-18.543 26.079 26.079 0 0 1 6.088-7.787 25.85 25.85 0 0 1 1.374-1.106c.089-.068.177-.136.267-.202a26.77 26.77 0 0 1 1.405-.97c.079-.051.159-.099.238-.148.464-.291.931-.578 1.415-.832l.137-.077a26.465 26.465 0 0 1 1.85-.9 26.813 26.813 0 0 1 1.605-.652c.053-.019.107-.036.161-.056a27.6 27.6 0 0 1 1.592-.516c.068-.019.135-.041.203-.06a25.574 25.574 0 0 1 1.691-.415c.095-.021.191-.04.287-.059a26.707 26.707 0 0 1 1.76-.299 26.774 26.774 0 0 1 21.139 6.36l-.015.018.031.025.019.017.009.007.005.004.015.013.024.021.014.012c.285.243.559.493.83.745a26.08 26.08 0 0 1 6.127 8.466 18.372 18.372 0 0 1 1.268 10.91h3.893c.665-4.237.09-8.576-1.658-12.492"/><path fill="#5FE0ED" d="M95.242 107.881h14.363l-.111-.444a62.114 62.114 0 0 0-3.573-10.329c-2.387-5.884-5.083-11.107-6.693-14.227l-.112-.215a29.156 29.156 0 0 1-2.132-5.416 26.84 26.84 0 0 1 1.743-19.597 27.632 27.632 0 0 1 2.167-3.551 27.266 27.266 0 0 1 4.261-4.673c.47-.408.956-.793 1.449-1.166l.281-.212c.485-.358.979-.699 1.482-1.024l.251-.155c.446-.281.967-.602 1.513-.889l.141-.079c.521-.28 1.071-.548 1.626-.801l.31-.14a28.335 28.335 0 0 1 1.691-.687l.121-.042a29.34 29.34 0 0 1 1.726-.56l.219-.065c.584-.164 1.179-.31 1.778-.437l.305-.062a28.506 28.506 0 0 1 1.852-.315 28.297 28.297 0 0 1 22.202 6.635l1.17 1.018-.028.033a27.511 27.511 0 0 1 6.366 8.843 19.572 19.572 0 0 1 1.619 10.056h.941c.354-3.57-.232-7.17-1.699-10.444a28.542 28.542 0 0 0-6.67-9.226c-.365-.35-.716-.677-1.08-.992a29.169 29.169 0 0 0-28.526-5.542l-.482.168a29.86 29.86 0 0 0-1.01.388c-.476.19-.941.394-1.403.607l-.287.131a29.1 29.1 0 0 0-6.594 4.294 28.31 28.31 0 0 0-6.291 7.817 29.607 29.607 0 0 0-4.088 15.004v27.6a45.068 45.068 0 0 0 1.202 8.696zm18.076 2.901H92.706l-.091-1.353c-.011-.049-.069-.304-.148-.666a48.811 48.811 0 0 1-1.327-9.578v-27.6a32.462 32.462 0 0 1 4.466-16.436 31.168 31.168 0 0 1 6.913-8.576 32.011 32.011 0 0 1 7.244-4.719l.316-.146a34.736 34.736 0 0 1 2.654-1.093l.527-.183a32.063 32.063 0 0 1 31.36 6.095c.4.347.788.707 1.17 1.073a31.355 31.355 0 0 1 7.323 10.142v.001a23.553 23.553 0 0 1 1.771 13.308l-.19 1.23h-6.883l.32-1.716a16.811 16.811 0 0 0-1.163-10.048 24.655 24.655 0 0 0-5.789-7.997 26.892 26.892 0 0 0-.773-.694l-.353-.3-.892-.758.002-.001a25.381 25.381 0 0 0-18.881-5.097c-.559.075-1.114.173-1.665.284l-.269.055c-.54.115-1.075.244-1.602.393l-.192.057c-.506.147-1.008.31-1.507.488l-.098.034c-.566.207-1.071.415-1.571.635l-.272.123a24.65 24.65 0 0 0-1.476.728l-.166.091c-.437.23-.871.498-1.303.769l-.226.14c-.451.29-.893.596-1.328.917l-.248.187c-.447.339-.882.684-1.303 1.049a24.336 24.336 0 0 0-3.808 4.175 24.828 24.828 0 0 0-1.939 3.177 23.952 23.952 0 0 0-1.534 17.487 26.252 26.252 0 0 0 1.917 4.875l.11.213c1.636 3.168 4.37 8.464 6.786 14.423a64.798 64.798 0 0 1 3.721 10.764l1.009 4.048z"/><path fill="#48515A" d="M111.821 122.133h-2v-2.562c-.004-12.976-8.114-28.683-12.012-36.231-6.377-11.722-3.719-26.303 6.382-35.022 11.16-9.656 27.716-9.656 38.875 0 .373.324.733.659 1.087.998a28.982 28.982 0 0 1 6.798 9.403 21.5 21.5 0 0 1 .21 16.949 7.484 7.484 0 0 0 .759 7.095l3.367 4.862c.325.412.5.922.495 1.447a2.368 2.368 0 0 1-1.62 2.249l-2.5.833a.482.482 0 0 0-.331.459c-.016.395.125.78.392 1.071l.293.293v1.185a1.988 1.988 0 0 1-1.388 1.925c.032.363.008.729-.073 1.084a3.172 3.172 0 0 1-1.157 1.573 2.208 2.208 0 0 0-.314.29l.011 1.844-.003 1.301a4.774 4.774 0 0 1-4.761 4.754h-7.351a1.97 1.97 0 0 0-1.967 1.91l1.483 11.649v.64h-2v-.576l-1.484-11.656a3.97 3.97 0 0 1 3.968-3.967h7.351a2.77 2.77 0 0 0 2.761-2.76l.009-3.207c.041-.716.42-1.37 1.02-1.761.287-.239.453-.384.514-.59.01-.112-.011-.786-.044-1.284l-.07-1.052 1.054-.015a.842.842 0 0 0 .457-.096l-.009-.397a3.552 3.552 0 0 1-.692-2.158 2.482 2.482 0 0 1 1.698-2.357l2.5-.833a.37.37 0 0 0 .167-.588l-3.421-4.933a9.434 9.434 0 0 1-.963-8.994 19.498 19.498 0 0 0-.183-15.366 27.011 27.011 0 0 0-6.341-8.764 31.294 31.294 0 0 0-.873-.782l-.013-.01-.002-.002-.033-.028-.059-.05.015-.019-.067-.059c-10.408-9.003-25.846-9.003-36.254 0-9.404 8.115-11.869 21.693-5.916 32.594 3.97 7.689 12.231 23.687 12.235 37.149v2.562m86.787-.2l-1.477-11.598a3.94 3.94 0 0 1 3.936-3.936h8.744a2.73 2.73 0 0 0 2.722-2.721l.008-3.172a2.817 2.817 0 0 1 .49-1.576c.132-.205.239-.425.319-.655a83.088 83.088 0 0 0-.015-1.796l-.007-.412 1.209-1.257-.523-1.048v-.236a2.553 2.553 0 0 1 1.687-2.418l.154-.051 1.991.001c.321.013.633-.113.854-.346.26-.3.32-.725.154-1.085a104.297 104.297 0 0 1-4.737-11.718 8.422 8.422 0 0 1-.377-2.638l-.002-7.678a21.423 21.423 0 0 0-.814-5.838 20.662 20.662 0 0 0-4.592-8.393 27.011 27.011 0 0 0-1.524-1.522c-.342-.329-.676-.64-1.021-.94-10.295-8.905-25.566-8.905-35.861 0a26.314 26.314 0 0 0-2.246 2.197l-1.481-1.344a28.508 28.508 0 0 1 2.416-2.363c11.047-9.558 27.435-9.558 38.483 0 .372.322.731.656 1.083.995.55.508 1.1 1.057 1.62 1.619a22.636 22.636 0 0 1 5.037 9.17c.596 2.088.899 4.247.9 6.418l.002 7.704a6.461 6.461 0 0 0 .291 2.034 102.424 102.424 0 0 0 4.635 11.451 2.991 2.991 0 0 1-.433 3.216 3.089 3.089 0 0 1-2.387 1.061l-1.607-.001a.603.603 0 0 0-.196.292l.914 1.83-1.615 1.679a7.503 7.503 0 0 1-.041 1.876 4.82 4.82 0 0 1-.554 1.223.889.889 0 0 0-.206.556l-.008 3.171a4.734 4.734 0 0 1-4.722 4.715h-8.744a1.938 1.938 0 0 0-1.935 1.879l1.461 11.401-1.985.254"/><path fill="#2B2B2B" d="M212.519 97.931l.002-.004-.002.004"/><path fill="#48515A" d="M39.135 122.158l-.048-1.928c-.005-13.292-2.797-28.32-6.639-35.758-6.298-11.578-3.673-25.981 6.305-34.593 11.022-9.536 27.374-9.536 38.396 0 .372.322.731.655 1.082.995.553.51 1.102 1.059 1.616 1.615.383.415.754.85 1.099 1.293l-1.578 1.23c-.31-.399-.643-.791-.99-1.165a26.887 26.887 0 0 0-1.52-1.519 25.085 25.085 0 0 0-1.019-.937c-10.27-8.885-25.505-8.885-35.776-.001-9.28 8.007-11.712 21.407-5.837 32.164 3.97 7.688 6.856 23.102 6.861 36.651l.048 1.904-2 .049m29.541.102l-1.474-11.571a3.934 3.934 0 0 1 3.93-3.93h7.328v2h-7.328a1.932 1.932 0 0 0-1.929 1.872l1.457 11.375-1.984.254"/><path fill="#2B2B2B" d="M82.558 98.312l.001-.004-.001.004"/><path fill="#48515A" d="M63.037 131.001h2v-4h-2zM63.037 141.001h2v-4h-2zM67.037 135.001h4v-2h-4zM57.037 135.001h4v-2h-4zM175.083 191.013h2v-4h-2zM175.083 201.013h2v-4h-2zM179.083 195.013h4v-2h-4zM169.083 195.013h4v-2h-4z"/><path fill="#DEDEDD" d="M123 139h4v76a2 2 0 1 1-4 0v-76M194.988 121.982l-15.565-6.671-2.673 1.604 8.232 8.232-2.828 2.828-8.111-8.111-1.625 3.267 6.797 16.46 4.834-9.72 8.111 8.111 2.828-2.829-8.232-8.232 8.232-4.939"/><path fill="#48515A" d="M158.843 101.861l10.451 25.308 4.473-8.995 8.386 8.388 1.415-1.415-8.431-8.431 7.654-4.591-23.948-10.264zm10.283 30.14L155.122 98.09l32.052 13.737-8.812 5.286 8.034 8.034-4.243 4.243-7.834-7.835-5.193 10.446zm-92.159 35.182a2.93 2.93 0 1 0 2.929 2.929v-.001a2.932 2.932 0 0 0-2.929-2.928zm0 7.857a4.93 4.93 0 1 1-.001-9.859 4.93 4.93 0 0 1 .001 9.859zm11.002 3.145a2.928 2.928 0 1 0-.001 5.857 2.928 2.928 0 0 0 .001-5.857zm0 7.857a4.93 4.93 0 1 1 4.928-4.929 4.934 4.934 0 0 1-4.928 4.929zM73.117 183.549l17.287-17.287 1.414 1.414-17.287 17.287-1.414-1.414"/><path fill="#FFD15D" d="M206.715 137.57a1.715 1.715 0 1 1 .001 3.43 1.715 1.715 0 0 1-.001-3.43m-98.275 51.437a2.16 2.16 0 1 1 0 4.322 2.16 2.16 0 0 1 0-4.322M69.62 58.983a1.417 1.417 0 1 1 0 2.835 1.417 1.417 0 0 1 0-2.835"/></g></svg>