<?xml version="1.0" encoding="utf-8"?><svg xmlns="http://www.w3.org/2000/svg" xmlns:xlink="http://www.w3.org/1999/xlink" width="192" height="179" viewBox="0 0 192 179"><defs><path id="pka" d="M0 .225h99.831V95H0z"/><path id="pkc" d="M.006 0h85.988v41.94H.006z"/></defs><g fill="none" fill-rule="evenodd"><path fill="#FFD15D" d="M96.47 4.228c-22.504.111-41.227 17.328-43.221 39.743l-.195 2.341-2.319.372c-12.158 1.97-20.418 13.423-18.448 25.581C34.036 83.064 43.361 91 54.301 91h84.338c15.109.001 27.359-12.246 27.361-27.355.002-14.422-11.191-26.368-25.582-27.304l-2.035-.13-.627-1.941C132 16.336 115.304 4.187 96.47 4.228"/><path fill="#DEDEDD" d="M178.745 89.243l-28-12 12.227 29.61 4.833-9.721 7.081 7.081 2.923-2.734-7.297-7.296 8.233-4.94"/><g transform="translate(28)"><mask id="pkb" fill="#fff"><use xlink:href="#pka"/></mask><path fill="#475059" mask="url(#pkb)" d="M26.301 95h31.694v-2H26.301zM2 68.698H0C-.054 56.069 8.92 45.203 21.333 42.87 23.946 16.838 47.167-2.147 73.199.465a47.38 47.38 0 0 1 26.632 11.632l-1.325 1.498C79.725-2.994 51.053-1.218 34.464 17.563a45.362 45.362 0 0 0-11.208 26.242l-.065.78-.773.124C10.622 46.568 1.949 56.758 2 68.698"/></g><path fill="#475059" d="M167.729 75.377l-1.854-.749c5.007-12.441.957-26.694-9.844-34.643l1.185-1.61c11.537 8.49 15.863 23.714 10.513 37.002M138.639 95h-32.636v-2h32.636c2.96.002 5.904-.443 8.731-1.321l.594 1.91A31.37 31.37 0 0 1 138.639 95"/><path fill="#FFD15D" d="M33.486 33.525a2 2 0 1 1 0 4 2 2 0 0 1 0-4"/><path fill="#FFD15D" d="M33.486 34.024a1.5 1.5 0 1 0 0 3 1.5 1.5 0 0 0 0-3zm0 4a2.5 2.5 0 1 1 0-5 2.5 2.5 0 0 1 0 5z"/><path fill="#5FE0ED" d="M188.567 119.147a2.437 2.437 0 1 1 0 4.874 2.437 2.437 0 0 1 0-4.874"/><path fill="#FFF" d="M168.739 79.237l-28-12 12.227 29.61 4.833-9.721 8.111 8.111 2.829-2.828-8.233-8.232 8.233-4.94"/><path fill="#48515A" d="M142.599 69.123l10.451 25.309 4.473-8.996 8.387 8.387 1.415-1.414-8.431-8.431 7.653-4.592-23.948-10.263zm10.282 30.14l-14.003-33.911 32.052 13.736-8.811 5.288 8.034 8.033-4.243 4.242-7.834-7.834-5.195 10.446zm-64.88-42.271a1.002 1.002 0 0 0-1 1v4.001a1 1 0 1 0 2 0v-4.001a1.002 1.002 0 0 0-1-1zm0 8.001a3.004 3.004 0 0 1-3-3v-4.001a3 3 0 1 1 6 0v4.001a3.004 3.004 0 0 1-3 3zM95 51.992h-2v-7.001h-1v-2h3v9.001"/><path fill="#48515A" d="M92 52.992h4v-2h-4zM103 62.994h-2v-7.002h-1v-2h3v9.002"/><path fill="#48515A" d="M100 63.994h4v-2h-4zM84 40.992a1.002 1.002 0 0 0-1 1v4.001a1 1 0 1 0 2 0v-4.001a1.002 1.002 0 0 0-1-1zm0 8.001a3.004 3.004 0 0 1-3-3v-4.001a3 3 0 1 1 6 0v4.001a3.004 3.004 0 0 1-3 3zM103 39.991h-2v-7.002h-1v-2h3v9.002"/><path fill="#48515A" d="M100 40.991h4v-2h-4zM92 28.991a1.002 1.002 0 0 0-1 1v4.001a1 1 0 1 0 2 0v-4.001a1.002 1.002 0 0 0-1-1zm0 8.001a3.004 3.004 0 0 1-3-3v-4.001a3 3 0 1 1 6 0v4.001a3.004 3.004 0 0 1-3 3zm16 7.999a1.002 1.002 0 0 0-1 1v4.001a1 1 0 1 0 2 0v-4.001a1.002 1.002 0 0 0-1-1zm0 8.001a3.004 3.004 0 0 1-3-3v-4.001a3 3 0 1 1 6 0v4.001a3.004 3.004 0 0 1-3 3zm-7.995-36.008a1.002 1.002 0 0 0-1 1v4.001a1 1 0 0 0 2 0v-4.001a1.002 1.002 0 0 0-1-1zm0 8.001a3.004 3.004 0 0 1-3-3v-4.001a3 3 0 1 1 6 0v4.001a3.004 3.004 0 0 1-3 3zM83.989 27.984h-2v-7.002h-1v-2h3v9.002"/><path fill="#48515A" d="M80.989 28.984h4v-2h-4zM77.985 60.003h-2v-7.001h-1v-2h3v9.001"/><path fill="#48515A" d="M74.985 61.003h4v-2h-4zM111.005 33.987h-2v-7.001h-1v-2h3v9.001"/><path fill="#48515A" d="M108.005 34.987h4v-2h-4zM118.009 57.991h-2v-7.002h-1v-2h3v9.002"/><path fill="#48515A" d="M115.009 58.991h4v-2h-4z"/><path fill="#475059" d="M95.014 92.978h2v-2h-2zM95.014 88.978h2v-2h-2zM95.014 84.971h2v-2h-2zM95.014 80.971h2v-2h-2zM95.014 76.971h2v-2h-2zM95.014 101h2v-2.001h-2zM95.014 96.992h2v-2h-2zM95.014 72.966h2v-2h-2zM95.014 68.966h2v-2h-2zM89.01 92.978h2v-2h-2zM89.01 88.978h2v-2h-2zM89.01 84.971h2v-2h-2zM89.01 80.971h2v-2h-2zM89.01 76.971h2v-2h-2zM89.01 101h2v-2.001h-2zM89.01 96.992h2v-2h-2zM89.01 72.966h2v-2h-2zM101.018 92.978h2v-2h-2zM101.018 88.978h2v-2h-2zM101.018 84.971h2v-2h-2zM101.018 80.971h2v-2h-2zM101.018 76.971h2v-2h-2zM101.018 101h2v-2.001h-2zM101.018 96.992h2v-2h-2zM101.018 72.966h2v-2h-2zM105.02 72.968h2v-2h-2zM109.022 72.968h2v-2h-2zM113.024 72.968h2v-2h-2zM77.003 72.968h2v-2h-2zM81.005 72.968h2v-2h-2zM85.008 72.968h2v-2h-2zM34.029 100.058h3.578l1.774-4.024 3.295-1.902 4.372.475 1.789-3.099-2.598-3.547v-3.806l2.598-3.548-1.789-3.099-4.372.475-3.295-1.902-1.774-4.023h-3.578l-1.774 4.023-3.296 1.902-4.371-.475-1.789 3.099 2.597 3.548v3.805l-2.597 3.548 1.789 3.099 4.371-.475 3.296 1.902 1.774 4.024zm4.882 2h-6.186l-2.037-4.618-2.162-1.249-5.018.545-3.093-5.357 2.981-4.073v-2.497l-2.981-4.073 3.093-5.357 5.018.546 2.162-1.249 2.037-4.618h6.186l2.036 4.618 2.163 1.249 5.018-.546 3.093 5.357-2.982 4.073v2.497l2.982 4.073-3.093 5.357-5.018-.546-2.163 1.249-2.036 4.619z"/><path fill="#475059" d="M35.818 84.058a2 2 0 1 0-.001 3.999 2 2 0 0 0 .001-3.999zm0 6a4 4 0 1 1 0-8 4 4 0 0 1 0 8z"/><path fill="#475059" d="M35.818 80.058a6 6 0 1 0 0 12 6 6 0 0 0 0-12zm0 14a8 8 0 1 1 8-8 8.01 8.01 0 0 1-8 8z"/><path fill="#5FE0ED" d="M159.08 12.959a4 4 0 1 1 0 8 4 4 0 0 1 0-8"/><path fill="#48515A" d="M6 102.005h2v-4H6zM6 112.005h2v-4H6zM10 106.005h4v-2h-4zM0 106.005h4v-2H0zM184 68.005h2v-4h-2zM184 78.005h2v-4h-2zM188 72.005h4v-2h-4zM178 72.005h4v-2h-4zM166 135.987h2v-4h-2zM166 145.987h2v-4h-2zM170 139.987h4v-2h-4zM160 139.987h4v-2h-4z"/><path fill="#475059" d="M58.006 105a3.002 3.002 0 0 0-3 3v14a3.004 3.004 0 0 0 3 3h75.988a3.004 3.004 0 0 0 3-3v-14a3.002 3.002 0 0 0-3-3H58.006zm75.988 22H58.006a5.006 5.006 0 0 1-5-5v-14a5.005 5.005 0 0 1 5-5h75.988a5.005 5.005 0 0 1 5 5v14a5.006 5.006 0 0 1-5 5z"/><path fill="#DEDEDD" d="M58.006 106.999a1.002 1.002 0 0 0-1 1v14c.001.552.448 1 1 1h75.988c.552 0 .999-.448 1-1v-14a1.002 1.002 0 0 0-1-1H58.006"/><path fill="#475059" d="M128.994 113a2 2 0 1 0 0 4 2 2 0 0 0 0-4zm0 6a4 4 0 1 1 0-8 4 4 0 0 1 0 8zm-10-6a2 2 0 1 0 0 4 2 2 0 0 0 0-4zm0 6a4 4 0 1 1 0-8 4 4 0 0 1 0 8zm-10-6a2 2 0 1 0 0 4 2 2 0 0 0 0-4zm0 6a4 4 0 1 1 0-8 4 4 0 0 1 0 8zm-50.988 12a3.002 3.002 0 0 0-3 3v14a3.004 3.004 0 0 0 3 3h75.988a3.004 3.004 0 0 0 3-3v-14a3.002 3.002 0 0 0-3-3H58.006zm75.988 22H58.006a5.006 5.006 0 0 1-5-5v-14a5.005 5.005 0 0 1 5-5h75.988a5.005 5.005 0 0 1 5 5v14a5.006 5.006 0 0 1-5 5z"/><path fill="#DEDEDD" d="M58.006 132.999a1.002 1.002 0 0 0-1 1v14c.001.552.448 1 1 1h75.988c.552 0 .999-.448 1-1v-14a1.002 1.002 0 0 0-1-1H58.006"/><path fill="#475059" d="M128.994 139a2 2 0 1 0 0 4 2 2 0 0 0 0-4zm0 6a4 4 0 1 1 0-8 4 4 0 0 1 0 8zm-10-6a2 2 0 1 0 0 4 2 2 0 0 0 0-4zm0 6a4 4 0 1 1 0-8 4 4 0 0 1 0 8z"/><g transform="translate(53 137)"><mask id="pkd" fill="#fff"><use xlink:href="#pkc"/></mask><path fill="#475059" d="M55.994 2a2 2 0 1 0 0 4 2 2 0 0 0 0-4zm0 6a4 4 0 1 1 0-8 4 4 0 0 1 0 8zM5.006 20a3.002 3.002 0 0 0-3 3v14a3.004 3.004 0 0 0 3 3h75.988a3.004 3.004 0 0 0 3-3V23a3.002 3.002 0 0 0-3-3H5.006zm75.988 22H5.006a5.006 5.006 0 0 1-5-5V23a5.005 5.005 0 0 1 5-5h75.988a5.005 5.005 0 0 1 5 5v14a5.006 5.006 0 0 1-5 5z" mask="url(#pkd)"/></g><path fill="#DEDEDD" d="M58.006 158.999a1.002 1.002 0 0 0-1 1v14c.001.552.448 1 1 1h75.988c.552 0 .999-.448 1-1v-14a1.002 1.002 0 0 0-1-1H58.006"/><path fill="#475059" d="M128.994 165a2 2 0 1 0 0 4 2 2 0 0 0 0-4zm0 6a4 4 0 1 1 0-8 4 4 0 0 1 0 8zm-10-6a2 2 0 1 0 0 4 2 2 0 0 0 0-4zm0 6a4 4 0 1 1 0-8 4 4 0 0 1 0 8zm-10-6a2 2 0 1 0 0 4 2 2 0 0 0 0-4zm0 6a4 4 0 1 1 0-8 4 4 0 0 1 0 8zM143.02 44.948a7 7 0 0 1 4.847-11.949l3.159-.001-2.157 4.438-1.799-.874.759-1.562a5 5 0 0 0-3.395 8.534l-1.414 1.414m3.325 2.05h-1.747l2.509-4.274 1.725 1.013-.74 1.261a4.724 4.724 0 0 0 3.413-1.233 4.986 4.986 0 0 0 .008-7.052l-.007-.007 1.413-1.415a6.985 6.985 0 0 1 .009 9.879l-.01.01a6.638 6.638 0 0 1-4.847 1.818h-1.726"/><path fill="#475059" d="M138.959 46.998h-13v-32h17.414l8.586 8.586v5.414h-2v-4.586l-7.414-7.414h-14.586v28h11v2"/><path fill="#475059" d="M150.959 24.998h-9v-9h2v7h7v2"/></g></svg>