<?xml version="1.0" encoding="utf-8"?><svg xmlns="http://www.w3.org/2000/svg" width="250" height="250" viewBox="0 0 250 250"><g fill="none" fill-rule="evenodd"><path fill="#DBDBD5" d="M158.983 121.525H151v52h22.999v-9h-15.016v-43"/><path fill="#FACD60" d="M58.009 199.634a3 3 0 1 1-6 0 3 3 0 0 1 6 0"/><path fill="#E9886C" d="M33 111.525a2 2 0 1 1-4.001-.001 2 2 0 0 1 4.001.001"/><path fill="#434A4F" d="M49 86.669h2v-4h-2zM49 96.669h2v-4h-2zM53 90.669h4v-2h-4zM43 90.669h4v-2h-4z"/><path fill="#FACD60" d="M149.677 45.525v23.842h23.842"/><path fill="#434A4F" d="M174.651 184.699H68.189V44.525h16.689a1 1 0 1 1 0 2H70.189v136.174h102.462v-11.19a1 1 0 0 1 2 0v13.19m-1.131-76.174a1 1 0 0 1-1-1v-20a1 1 0 1 1 2 0v20a1 1 0 0 1-1 1M174.52 79.511h-2v-9.729l-23.257-23.257H94.398v-2h55.693l24.429 24.429v10.557M89.63 46.525a.99.99 0 0 1-1-1c0-.26.109-.521.29-.71a.916.916 0 0 1 .33-.21c.369-.15.809-.07 1.09.21.089.1.16.2.209.33.05.12.081.25.081.38a.997.997 0 0 1-.29.71.997.997 0 0 1-.71.29"/><path fill="#434A4F" d="M83.519 65.427h34v-2h-34zM83.519 69.427h20v-2h-20zM168.997 188.701H64.187V49.527a1 1 0 1 1 2 0v137.174h102.81a1 1 0 1 1 0 2"/><path fill="#434A4F" d="M164.995 192.704H60.184V53.53a1 1 0 1 1 2 0v137.174h102.811a1 1 0 1 1 0 2"/><path fill="#42494E" d="M96.09 197.475c-1.654 0-3 1.346-3 3s1.346 3 3 3h100.549l6.507-3-6.507-3H96.09zm100.988 8H96.09c-2.757 0-5-2.243-5-5s2.243-5 5-5h100.988l10.843 5-10.843 5z"/><path fill="#42494E" d="M101.7 204.475h2v-7.598h-2z"/><path fill="#42494E" d="M102.7 201.447h93.39v-2H102.7z"/><path fill="#434A4F" d="M87.522 157.473h64.026v-2H87.522zM87.522 161.475h64.026v-2H87.522zM87.522 165.478h64.026v-2H87.522zM85.521 175.484h24.002v-2H85.521zM173.52 83.513a1 1 0 0 1-1-1v-.137a1 1 0 1 1 2 0v.137a1 1 0 0 1-1 1m0 85.051a1 1 0 0 1-1-1v-.138a1 1 0 1 1 2 0v.138a1 1 0 0 1-1 1M213 142.703h2v-4h-2zM213 152.703h2v-4h-2zM217 146.703h4v-2h-4zM207 146.703h4v-2h-4z"/><path fill="#E9886C" d="M127.282 106.607l-5.804-5.769 5.769-5.804-2.837-2.82-5.769 5.804-5.804-5.769-2.82 2.837 5.804 5.769-5.769 5.805 2.837 2.819 5.769-5.804 5.805 5.769 2.819-2.837M148.914 109.594h-17.163l8.977-13.242h-9.331v-4h16.876l-8.977 13.242h9.618v4"/><path fill="#E9886C" d="M100.983 83.525l-3.418 15.241-2.773-6.551H87.26v3.999h4.882l6.606 15.61 5.425-24.299h44.81v-4h-48M127.365 149.387l-18.444-.055 12.273-13.119c1.261-1.425 1.893-2.712 1.897-3.893l.001-.504a4.45 4.45 0 0 0-1.303-3.173 4.454 4.454 0 0 0-3.165-1.322l-.894-.003a4.477 4.477 0 0 0-4.495 4.466l-4-.014c.017-4.674 3.833-8.432 8.507-8.452l.894.003a8.427 8.427 0 0 1 5.99 2.502 8.427 8.427 0 0 1 2.466 6.005l-.001.503c-.007 2.198-.968 4.349-2.939 6.574l-6.038 6.455 9.263.027-.012 4M86.846 118.421h62.068v-4H86.846z"/><path fill="#42494E" d="M159.984 163.525h34v-50h-34v50zm-2 2h38v-54h-38v54z"/><path fill="#42494E" d="M163.984 135.525h2v-2h-2v2zm-2 2h6v-6h-6v6zm2 6h2v-2h-2v2zm-2 2h6v-6h-6v6zm2 6h2v-2h-2v2zm-2 2h6v-6h-6v6zm2 6h2v-2h-2v2zm-2 2h6v-6h-6v6zm10-26h2v-2h-2v2zm-2 2h6v-6h-6v6zm2 6h2v-2h-2v2zm-2 2h6v-6h-6v6zm2 6h2v-2h-2v2zm-2 2h6v-6h-6v6zm2 6h2v-2h-2v2zm-2 2h6v-6h-6v6zm10-26h2v-2h-2v2zm-2 2h6v-6h-6v6zm2 6h2v-2h-2v2zm-2 2h6v-6h-6v6zm2 6h2v-2h-2v2zm-2 2h6v-6h-6v6zm2 6h2v-2h-2v2zm-2 2h6v-6h-6v6zm10-26h2v-2h-2v2zm-2 2h6v-6h-6v6zm2 6h2v-2h-2v2zm-2 2h6v-6h-6v6z"/><path fill="#E9886C" d="M187.984 159.525h2v-10h-2v10zm-2 2h6v-14h-6v14z"/><path fill="#42494E" d="M158.984 129.525h36v-2h-36z"/><path fill="#75C7D0" d="M162.983 124.525h28v-8h-28z"/><path fill="#42494E" d="M165.984 121.525h2v-2h-2v2zm4 0h2v-2h-2v2zm4 0h2v-2h-2v2zm4 0h2v-2h-2v2zm4 0h2v-2h-2v2zm4 0h2v-2h-2v2z"/></g></svg>