<?xml version="1.0" encoding="utf-8"?><svg xmlns="http://www.w3.org/2000/svg" width="250" height="250" viewBox="0 0 250 250"><g fill="none" fill-rule="evenodd"><path fill="#DEDEDD" d="M197 105.002a6 6 0 0 1-6-6 6 6 0 1 1-12 0 6 6 0 1 1-12 0 6 6 0 1 1-12 0 6 6 0 1 1-12 0 6 6 0 1 1-12 0 6 6 0 1 1-12 0 6 6 0 1 1-12 0 6 6 0 1 1-12 0 6 6 0 1 1-12 0 6 6 0 1 1-12 0 6 6 0 1 1-12 0 5.978 5.978 0 0 1-7.503 5.803V111h147.031v-6.202a5.977 5.977 0 0 1-1.528.204"/><path fill="#F58E70" d="M59 57.002h-9v42a3 3 0 1 0 6 0h6a3 3 0 1 0 6 0h6a3 3 0 1 0 6 0h6a3 3 0 1 0 6 0h6a3 3 0 1 0 6 0h6a3 3 0 1 0 6 0h6a3 3 0 1 0 6 0h6a3 3 0 1 0 6 0h6a3 3 0 1 0 6 0h6a3 3 0 1 0 6 0h6a3 3 0 1 0 6 0h6a3 3 0 1 0 6 0h6a3 3 0 1 0 6 0v-42h-9v34.499h-12V67h-12v24.501h-12V67h-12v24.501h-12V67h-12v24.501h-12V67H95v24.501H83V67H71v24.501H59V57.002"/><path fill="#DEDEDD" d="M60.001 168h92.001v-7.497H60.001z"/><path fill="#48515A" d="M197 181.503h2V177h-2zM197 143h2v-37.998h-2zM51 181.503h2v-76.501h-2zM61 167h90v-49.998H61V167zm-2 2h94v-53.998H59V169zM191 181.002h-32V115h32v32h-2v-30h-28v62.002h28V173h2v8.002M204 71h-2V55.002h-11v-2h13V71"/><path fill="#48515A" d="M197 106.002a7.003 7.003 0 0 1-6-3.397 6.997 6.997 0 0 1-12 0 6.997 6.997 0 0 1-12 0 6.997 6.997 0 0 1-12 0 6.997 6.997 0 0 1-12 0 6.997 6.997 0 0 1-12 0 6.997 6.997 0 0 1-12 0 6.997 6.997 0 0 1-12 0 6.997 6.997 0 0 1-12 0 6.997 6.997 0 0 1-12 0 6.997 6.997 0 0 1-12 0 6.997 6.997 0 0 1-12 0 7 7 0 0 1-13-3.603v-46h13v2H48v44a5 5 0 0 0 10 0h2a5 5 0 0 0 10 0h2a5 5 0 0 0 10 0h2a5 5 0 0 0 10 0h2a5 5 0 0 0 10 0h2a5 5 0 0 0 10 0h2a5 5 0 0 0 10 0h2a5 5 0 0 0 10 0h2a5 5 0 0 0 10 0h2a5 5 0 0 0 10 0h2a5 5 0 0 0 10 0h2a5 5 0 0 0 10 0h2a5 5 0 0 0 10 0V85h2v14.002a7.008 7.008 0 0 1-7 7"/><path fill="#48515A" d="M189 64.999h-68v-2h66V30.997H63v32.002h25.833v2H61V28.997h128v36.002M101 187.002h120v-2H101zM29 187.002h32.003v-2H29z"/><path fill="#5FE0ED" d="M165.497 154.498h18V142.5h-18z"/><path fill="#48515A" d="M173.499 142.5h2v-6.998h-2z"/><path fill="#48515A" d="M174.499 130.003a2 2 0 1 0-.001 3.999 2 2 0 0 0 .001-3.999zm0 6a4 4 0 1 1 0-8 4 4 0 0 1 0 8z"/><path fill="#DEDEDD" d="M136.996 151.5h3v-3h-3v3zm0 6h3v-3h-3v3zm-6-6h3v-3h-3v3zm0 6h3v-3h-3v3zm-6-6h3v-3h-3v3zm0 6h3v-3h-3v3zm-6-6h3v-3h-3v3zm0 6h3v-3h-3v3zm-3-12h-6a3 3 0 1 0 3 3h3v15h24l3-12v-6h-27zM98 151.5h3v-3h-3v3zm0 6h3v-3h-3v3zm-6-6h3v-3h-3v3zm0 6h3v-3h-3v3zm-6-6h3v-3h-3v3zm0 6h3v-3h-3v3zm-6-6h3v-3h-3v3zm0 6h3v-3h-3v3zm-3-12h-6a3 3 0 1 0 3 3h3v15h24l3-12v-6H77zm63 57.25h27v-3h-27v3zm-54 0h27v-3H86v3zm-54 0h27v-3H32v3zM29 189v32h192v-18.25h-27v-3h27V189H29z"/><path fill="#48515A" d="M34.968 116.988h2v-4h-2zM34.968 126.988h2v-4h-2zM38.968 120.988h4v-2h-4zM28.968 120.988h4v-2h-4zM209.034 33.002h2v-4h-2zM209.034 43.002h2v-4h-2zM213.034 37.002h4v-2h-4zM203.034 37.002h4v-2h-4zM180.895 81.005h35.153a3.032 3.032 0 0 0 3-3.056 2.927 2.927 0 0 0-2.907-2.945l-.093.001h-35.153l-6.506 3 6.506 3zm35.153 2h-35.592l-10.844-5 10.844-5h35.592a4.894 4.894 0 0 1 4.999 4.784l.001.105a5.047 5.047 0 0 1-4.981 5.111h-.019z"/><path fill="#48515A" d="M208.844 82.005h2v-8h-2z"/><path fill="#48515A" d="M181.844 79.005h28v-2h-28zM191.018 166.507l14.002 7.052 14.001-7.052v-13.876l-14.001-7.051-14.002 7.051v13.876zm14.002 9.291l-16.002-8.058v-16.342l16.002-8.057 16.001 8.057v16.342l-16.001 8.058z"/><path fill="#48515A" d="M205.02 160.689l-15.452-7.781.9-1.786 14.552 7.328 14.552-7.328.899 1.786-15.451 7.781"/><path fill="#48515A" d="M204.02 174.678h2v-15.109h-2zM213.536 160.471h-2v-4.184l-14.452-7.278.899-1.786 15.553 7.832v5.416M89.971 49.923a3 3 0 1 0 0 6 3 3 0 0 0 0-6zm0 8a5 5 0 1 1 0-10 5 5 0 0 1 0 10zm0 14a3 3 0 1 0 0 6 3 3 0 0 0 0-6zm0 8a5 5 0 1 1 0-10 5 5 0 0 1 0 10z"/><path fill="#48515A" d="M87.019 70.888l26.332-20.751 1.239 1.571L88.257 72.46l-1.238-1.572"/><path fill="#48515A" d="M86.852 56.834l1.238-1.571 26.5 20.875-1.238 1.571-26.5-20.875M102.971 64.922h2v-2h-2v2zm4 0h2v-2h-2v2zm4 0h2v-2h-2v2zm4 0h2v-2h-2v2zM64.973 194.966h2v-18h-2zM68.973 194.965h4v-17.966h-4zM74.973 194.966h2v-18h-2zM78.973 194.966h2v-18h-2zM82.973 194.965h4v-17.999h-4zM88.973 194.966h2v-18h-2zM92.973 194.965h4v-17.999h-4z"/></g></svg>