<?xml version="1.0" encoding="utf-8"?><svg xmlns="http://www.w3.org/2000/svg" width="250" height="250" viewBox="0 0 250 250"><g fill="none" fill-rule="evenodd"><path fill="#F58E70" d="M77.54 158.78c-.342 1.37-1.13 8.698-2.067 18.298l4.596 10.565 4.712-10.995c-.952-9.388-1.746-16.519-2.083-17.868.949 0 1.719-.769 1.719-1.718v-4.298l-4.369-5.161-4.227 5.161v4.298c0 .949.77 1.718 1.719 1.718"/><path fill="#DFE0E0" d="M69.075 137.359v3.23l10.936 6.283 11.026-6.098.038-5.912v-4.983c0-.418.795-.866 1.185-1.318-.133.116-.292.233-.401.35-1.555 1.671-3.927 3.55-5.523 4.913-1.263 1.078-2.875 1.819-4.535 1.819h-4.799c-1.66 0-3.256-.741-4.519-1.819-1.523-1.301-3.74-3.021-5.29-4.622-.047-.048-.101-.128-.152-.176.466.495 1.246.982 1.813 1.481-.013.006.221-.004.221.011v6.841"/><path fill="#48515A" d="M69.075 141.643a1 1 0 0 1-1.001-1v-9a1 1 0 0 1 2.001 0v9a1 1 0 0 1-1 1m22 0a1 1 0 0 1-1.001-1v-11.175l.271-.289c.902-.961 1.808-1.963 2.096-2.729l4.52-9.427 5.068-2.515 1.131-5.579a1.25 1.25 0 0 0-.358-.864 1.438 1.438 0 0 0-1.045-.422h-2.235l.229-1.189c.407-2.111.468-4.855.468-6.302v-.997a1 1 0 1 1 2 0v.997c0 1.527-.06 3.602-.313 5.494a3.41 3.41 0 0 1 2.331 1.026c.621.639.948 1.487.922 2.389l-.019.17-1.346 6.634-5.327 2.644-4.189 8.726c-.352.944-1.227 1.97-2.204 3.023v10.385a1 1 0 0 1-.999 1"/><path fill="#48515A" d="M82.075 136.643h-5.073c-1.779 0-3.614-.731-5.168-2.059-.418-.357-.89-.743-1.385-1.15-2.391-1.961-5.101-4.184-5.853-6.202l-4.126-8.748-4.581-2.661-1.917-6.768c0-1.835 1.409-3.288 3.249-3.405-.157-1.591-.152-3.342-.148-4.808l.002-1.044a1 1 0 1 1 2 0l-.002 1.05c-.005 1.757-.012 3.943.27 5.63l.195 1.165H57.46c-.804 0-1.421.545-1.482 1.288l1.61 5.566 4.425 2.571 4.425 9.389c.596 1.589 3.303 3.81 5.279 5.431.507.415.988.811 1.416 1.176 1.192 1.018 2.566 1.579 3.869 1.579h5.073a.999.999 0 1 1 0 2M62.345 145.373l-1.752-.964 4.274-7.766h3.207v2h-2.025l-3.704 6.73M79.949 148.11l-11.851-6.635a1.001 1.001 0 0 1 .978-1.746l10.873 6.089 10.44-5.847a1 1 0 0 1 .978 1.745l-11.418 6.394M107.713 149.578l-10.018-3.811-4.435-7.124h-2.185v-2h3.296l4.665 7.494 9.388 3.571-.711 1.87"/><path fill="#48515A" d="M74.068 156.643a1 1 0 0 1-.774-1.633l6.639-8.13 6.897 8.115a.999.999 0 1 1-1.523 1.295l-5.343-6.286-5.121 6.271a.999.999 0 0 1-.775.368m26.001-62.998a1 1 0 0 1-1-1v-6.75a8.196 8.196 0 0 0-2.416-5.834 8.19 8.19 0 0 0-5.833-2.416 1 1 0 0 1 0-2c2.738 0 5.312 1.065 7.248 3.001a10.184 10.184 0 0 1 3.001 7.249v6.75a1 1 0 0 1-1 1m-42 0a1 1 0 0 1-1-1v-6.75a10.18 10.18 0 0 1 3.001-7.249 10.182 10.182 0 0 1 7.248-3.001 1 1 0 1 1 0 2 8.192 8.192 0 0 0-5.833 2.416 8.192 8.192 0 0 0-2.416 5.834v6.75a1 1 0 0 1-1 1m58.822 76.926c-1.103 0-2 .897-2 2s.897 2 2 2 2-.897 2-2-.897-2-2-2zm0 6c-2.206 0-4-1.794-4-4 0-2.205 1.794-4 4-4 2.205 0 4 1.795 4 4 0 2.206-1.795 4-4 4zM38.064 88.654h2v-4h-2zM38.064 98.654h2v-4h-2zM42.064 92.654h4v-2h-4zM32.064 92.654h4v-2h-4zM79.069 74.643c-5.515 0-10 4.485-10 10 0 5.514 4.485 10 10 10 5.514 0 10-4.486 10-10 0-5.515-4.486-10-10-10zm0 22c-6.617 0-12-5.384-12-12 0-6.617 5.383-12 12-12 6.616 0 12 5.383 12 12 0 6.616-5.384 12-12 12z"/><path fill="#48515A" d="M104.068 99.645H55.069v-8h16.002a1 1 0 1 1 0 2H57.069v4h44.999v-4H86.942a1 1 0 0 1 0-2h17.126v8"/><path fill="#475059" d="M59.755 187.231h-.228v-2h.228a4.535 4.535 0 0 0 4.53-4.53v-14.689c0-5.163-4.2-9.363-9.363-9.363-5.163 0-9.363 4.2-9.363 9.363v14.689a4.536 4.536 0 0 0 4.531 4.53l.099 2h-.099a6.538 6.538 0 0 1-6.531-6.53v-14.689c0-6.266 5.098-11.363 11.363-11.363 6.266 0 11.363 5.097 11.363 11.363v14.689a6.537 6.537 0 0 1-6.53 6.53"/><path fill="#475059" d="M54.074 155.668l-.012-9.641a5.843 5.843 0 0 1 1.606-4.061 5.418 5.418 0 0 1 3.941-1.709l3.831-.003.001 2-3.831.003a3.43 3.43 0 0 0-2.494 1.089 3.85 3.85 0 0 0-1.054 2.679l.012 9.642-2 .001"/><path fill="#48515A" d="M80.075 190.165L60.552 145.29a1 1 0 0 1 1.834-.798l17.676 40.628 17.385-40.562a.999.999 0 1 1 1.837.788l-19.209 44.819"/><path fill="#F58E70" d="M201.066 133.643h6v-22h-6z"/><path fill="#F58E70" d="M193.067 125.643h21.999v-6h-21.999z"/><path fill="#48515A" d="M189.067 137.643h30v-30h-30v30zm-2 2h34v-34h-34v34zM30.933 212.42l-2-.003.106-49.884c0-5.975 3.773-7.875 9.102-9.908l23.35-9.411.748 1.856-23.368 9.417c-5.329 2.033-7.832 3.486-7.832 8.048l-.106 49.885M79.069 211.309h2v-23.666h-2z"/><path fill="#475059" d="M98.982 67.684h11.99V39.579h-11.99v28.105zm-2 2.001h15.99V37.58h-15.99v32.105z"/><path fill="#475059" d="M97.982 69.684h-8.995V45.575h8.995v2h-6.995v20.109h6.995v2M120.968 69.684h-8.996v-2h6.996V47.575h-6.996v-2h8.996v24.109"/><path fill="#475059" d="M92.985 51.575h2v-2h-2v2zm0 4h2v-2h-2v2zm0 4h2v-2h-2v2zm0 4h2v-2h-2v2zm21.983-12h2v-2h-2v2zm0 4h2v-2h-2v2zm0 4h2v-2h-2v2zm0 4h2v-2h-2v2zM101.101 59.767h7.933v-2h-7.933zM109.04 68.684h-2v-5h-4v5h-2v-7h8v7M104.04 50.685h2v-8h-2z"/><path fill="#475059" d="M101.04 47.685h8v-2h-8z"/><path fill="#48515A" d="M208.166 68.643h2v-4h-2zM208.166 78.643h2v-4h-2zM212.166 72.643h4v-2h-4zM202.166 72.643h4v-2h-4z"/><path fill="#F58E70" d="M110.052 132.644a1.666 1.666 0 1 1-3.332 0 1.666 1.666 0 0 1 3.332 0M59.68 69.067a1.834 1.834 0 1 1-3.667 0 1.834 1.834 0 0 1 3.667 0M210.112 92.62a1.666 1.666 0 1 1-3.332 0 1.666 1.666 0 0 1 3.332 0"/><path fill="#48515A" d="M198.065 62.643c-1.103 0-2 .897-2 2s.897 2 2 2c1.102 0 2-.897 2-2s-.898-2-2-2zm0 6c-2.206 0-4-1.795-4-4 0-2.206 1.794-4 4-4s4 1.794 4 4c0 2.205-1.794 4-4 4zm-142.001-18c-1.103 0-2 .897-2 2s.897 2 2 2 2-.897 2-2-.897-2-2-2zm0 6c-2.205 0-4-1.795-4-4 0-2.206 1.795-4 4-4 2.206 0 4 1.794 4 4 0 2.205-1.794 4-4 4z"/><path fill="#5FE0ED" d="M153.488 38.447c-21.098.388-37.782 18.318-37.782 39.679v52.02h25.435l-.068-6.786c-2.332-2.41-4.875-5.424-7.016-8.923-5.276-8.624-7.351-19.852-7.351-30.774v-.849h23.6l-.25-11.381c7.71 7.312 17.879 11.381 28.444 11.381h4.206v.849c0 10.967-2.544 22.099-7.879 30.712-3.525 5.689-8.402 10.177-11.437 12.79l4.335 2.981h24.981V77.499c0-21.813-17.578-39.45-39.218-39.052"/><path fill="#EAEAE9" d="M124.056 162.538h12.999l-4.124-6.073h-2.125l-6.75 6.073M183.305 162.538h-12.999l4.124-6.073h2.125l6.75 6.073M141.057 143.302l-8.003 13.16 19.002 27.33h2.018l-13.017-40.49"/><path fill="#EAEAE9" d="M167.665 133.562l8.391 8.731 8.018 19.225h-2l-4.998-5.056h-2l-8.003-13.16.592-9.74"/><path fill="#EAEAE9" d="M167.706 138.928v-14.579l-5.414 3.386a9.165 9.165 0 0 1-4.864 1.399h-6.035a9.187 9.187 0 0 1-5.904-2.154l-4.42-3.707.003 5.736 26.634 9.919"/><path fill="#48515A" d="M157.127 130.379h-6.196c-2.431 0-4.569-.783-6.357-2.328-3.253-2.813-7.867-7.367-11.37-13.093-6.198-10.129-7.499-22.609-7.499-31.295v-.849h2v.849c0 8.429 1.25 20.52 7.204 30.252 3.37 5.505 7.828 9.903 10.974 12.623 1.413 1.221 3.111 1.841 5.048 1.841h6.196c2.198 0 3.996-.586 5.344-1.74 1.886-1.614 7.622-6.522 11.505-12.791 4.984-8.046 7.729-18.766 7.729-30.185v-.849h2v.849c0 11.786-2.851 22.88-8.028 31.238-4.047 6.533-9.962 11.594-11.905 13.257-1.721 1.474-3.956 2.221-6.645 2.221"/><path fill="#48515A" d="M140.056 134.068h2v-10.755h-2zM166.056 134.701h2v-10.629h-2zM215.984 211.331h-2v-1.044l-4.255-39.713c-1.234-9.301-7.38-17.202-16.039-20.595l-17.986-6.75.703-1.872 17.999 6.755c9.35 3.663 15.976 12.177 17.308 22.224l4.27 39.898v1.097m-121.773 0h-2l.006-1.204 4.261-39.766c1.335-10.072 7.962-18.586 17.298-22.244l17.927-6.76.705 1.872-17.915 6.755c-8.647 3.388-14.793 11.289-16.029 20.615l-4.253 39.688v1.044"/><path fill="#48515A" d="M152.578 182.792h.107l-12.628-39.333v-7.842l-7.152 7.24-7.35 17.661h.083l4.998-5.056h2.94l19.002 27.33zm2.849 2h-3.894l-19.002-27.33h-1.059l-4.998 5.056h-3.917l8.65-20.789 10.85-10.982v12.399l13.37 41.646z"/><path fill="#48515A" d="M155.446 182.792h.106l19.001-27.33h2.94l4.999 5.056h.081l-7.366-17.661-7.134-7.236-.047 7.987-12.58 39.184zm1.151 2h-3.894l13.37-41.646v-12.403l10.832 10.986.074.179 8.596 20.61h-3.919l-4.999-5.056h-1.059l-19.001 27.33z"/></g></svg>