<?xml version="1.0" encoding="utf-8"?><svg xmlns="http://www.w3.org/2000/svg" xmlns:xlink="http://www.w3.org/1999/xlink" width="172" height="193" viewBox="0 0 172 193"><defs><path id="hua" d="M.06.635H18v16H.06z"/><path id="huc" d="M.639.625h52.242V192.94H.639z"/></defs><g fill="none" fill-rule="evenodd"><g transform="translate(0 142)"><mask id="hub" fill="#fff"><use xlink:href="#hua"/></mask><path fill="#F58E70" mask="url(#hub)" d="M16 2.635v-2h-6v2H8v-2H2v2H0v6h2v2h2v2h2v2h2v2h2v-2h2v-2h2v-2h2v-2h2v-6h-2"/></g><path fill="#F58E70" d="M13.815 45.607h2v-6h-2zM21.815 37.607v2h-2v-2h2M19.815 37.607v2h-2v-2h2M15.815 39.607h2v-2h-2zM21.815 41.607h2v-2h-2zM29.815 37.607v2h-2v-2h2M27.815 37.607v2h-2v-2h2M23.815 39.607h2v-2h-2zM29.815 45.607h2v-6h-2zM15.815 47.607h2v-2h-2zM17.815 49.607h2v-2h-2zM19.815 51.607h2v-2h-2zM21.815 53.607h2v-2h-2zM23.815 51.607h2v-2h-2zM25.815 49.607h2v-2h-2zM27.815 47.607h2v-2h-2zM169.815 105.606a2 2 0 1 1 0 4 2 2 0 0 1 0-4m-162-43.999a2 2 0 1 1 .001 3.999 2 2 0 0 1-.001-3.999"/><path fill="#DEDEDD" d="M163.503 101.844l-28-11.999 12.227 29.609 4.833-9.72 8.111 8.11 2.829-2.828-8.233-8.232 8.233-4.94"/><path fill="#48515A" d="M33.33 92.651h-2V54.494h1c10.985-.013 19.887-8.915 19.9-19.901v-.875l10.908-1.455a189.311 189.311 0 0 1 15.824-1.434l.096 1.998c-5.214.251-10.481.729-15.656 1.419l-9.19 1.225c-.469 11.353-9.532 20.467-20.882 21v36.18m66.522 72.927l-1.043-1.707c20.946-12.8 36.079-31.998 41.521-52.67a82.078 82.078 0 0 0 2.471-18.587l-.001-36.143c-11.35-.533-20.413-9.647-20.883-21l-9.189-1.225a187.185 187.185 0 0 0-15.772-1.425l.096-1.998c5.309.253 10.672.738 15.94 1.44l10.908 1.455v.875c.012 10.986 8.915 19.888 19.9 19.901h1v38.157a83.943 83.943 0 0 1-2.537 19.059c-5.57 21.166-21.029 40.801-42.411 53.868m-23.574 0a101.684 101.684 0 0 1-31.01-29.238l1.654-1.124a99.673 99.673 0 0 0 30.399 28.655l-1.043 1.707"/><path fill="#FFD15D" d="M85.063 43.46v3.992-3.992M112.189 45.03l-.28-.038a180.69 180.69 0 0 0-14.846-1.332v3.798l14.973.003-.001 12.167-13.155-.003-.004 90.773c15.188-11.185 26.365-26.522 30.491-42.198a71.193 71.193 0 0 0 2.124-16.125V65.202a36.402 36.402 0 0 1-19.302-20.172"/><g transform="translate(44)"><mask id="hud" fill="#fff"><use xlink:href="#huc"/></mask><path fill="#FFD15D" d="M32.88 53.62l-.002 6-12.784-.003.001-12.167 14.968.004v-3.793c-4.96.247-9.913.675-14.843 1.331l-.279.038A36.402 36.402 0 0 1 .639 65.202v26.873a71.185 71.185 0 0 0 2.124 16.124c4.091 15.545 15.119 30.752 30.112 41.911l.005-96.49" mask="url(#hud)"/><path fill="#475059" d="M50.882 7.625h-2a5.006 5.006 0 0 0-5-5h-.001a5 5 0 0 0-5 4.998h-2a7 7 0 0 1 7-6.998h.001a7.008 7.008 0 0 1 7 7" mask="url(#hud)"/><path fill="#DEDEDD" mask="url(#hud)" d="M48.88 59.623l-10.001-.001-.006 122.722 5.001 5 5-4.997.006-122.724"/><path fill="#475059" d="M36.874 183.172l7 7 7.001-6.997.006-125.551-14.001-.003-.006 125.551zm7 9.828l-9-9 .006-128.379 18.001.003-.006 128.38L43.874 193z" mask="url(#hud)"/></g><path fill="#475059" d="M83.063 49.454l10 .003.002-36.832-10-.003-.002 36.832zm12 2.003l-14-.003.002-40.832 14 .003-.002 40.832z"/><path fill="#FFF" d="M86.877 181.589h2V61.626h-2z"/><path fill="#475059" d="M110.035 57.628l-11.155-.003v-2l9.155.003.001-4.168-39.941-.008-.001 4.167 8.784.002v2l-10.784-.003.001-8.166 43.941.008-.001 8.168M79.065 10.621l18 .004V8.626l-18-.004v1.999zm20 2.004l-22-.004V6.622l22 .004v5.999z"/><path fill="#FFD15D" d="M91.065 14.624l-6-.001-.002 32.832 6 .001.002-32.832"/><path fill="#48515A" d="M126.044 168.605h2v-4h-2zM126.044 178.605h2v-4h-2zM120.044 172.605h4v-2h-4zM130.044 172.605h4v-2h-4zM7.821 82.539h2v-4h-2zM7.821 92.539h2v-4h-2zM1.821 86.539h4v-2h-4zM11.821 86.539h4v-2h-4zM160.079 67.636h2v-4h-2zM160.079 77.636h2v-4h-2zM154.079 71.636h4v-2h-4zM164.079 71.636h4v-2h-4zM21.963 103.013c-6.541 8.205-5.193 20.159 3.012 26.701 8.204 6.542 20.158 5.194 26.7-3.011 6.542-8.205 5.194-20.159-3.01-26.7-8.209-6.529-20.153-5.183-26.702 3.01zm14.815 32.848c-11.6-.025-20.983-9.45-20.958-21.05a21.012 21.012 0 0 1 4.579-13.045c7.23-9.069 20.443-10.559 29.512-3.328 9.069 7.23 10.559 20.443 3.329 29.512a21 21 0 0 1-14.068 7.776c-.795.09-1.594.135-2.394.135z"/><path fill="#48515A" d="M33.825 126.539h6v-9.001h9.001v-6.001l-9.001.001v-8.999h-6v8.999l-8.999.001v6l8.999-.001v9.001zm8 2h-10v-9.001l-8.999.001v-10l8.999-.001v-8.999h10v8.999l9.001-.001v10.001h-9.001v9.001z"/><path fill="#48515A" d="M35.827 106.54h2v-2h-2zM35.827 124.551h2v-2h-2zM26.821 115.545h2v-2h-2zM44.832 115.545h2v-2h-2zM36.827 113.539a1 1 0 1 0-.002 1.998 1 1 0 0 0 .002-1.998zm0 4a3 3 0 1 1 0-6 3 3 0 0 1 0 6zm120.739 10.08l-10.729 7.387a.972.972 0 0 0-.413.807l.04 11.711a.97.97 0 0 0 .419.804l10.78 7.314.51-.002 10.728-7.388a.967.967 0 0 0 .414-.806l-.04-11.712a.973.973 0 0 0-.42-.804l-10.778-7.313-.511.002zm-.515 30.025l-11.291-7.661a2.97 2.97 0 0 1-1.296-2.452l-.04-11.712a2.97 2.97 0 0 1 1.279-2.46l11.238-7.738 1.747-.006 11.292 7.661a2.972 2.972 0 0 1 1.295 2.45l.04 11.713a2.972 2.972 0 0 1-1.279 2.461l-11.238 7.738-1.747.006z"/><path fill="#48515A" d="M157.891 144.42l-12.917-8.371 1.088-1.678 11.796 7.644 11.846-8.157 1.134 1.648-12.947 8.914"/><path fill="#48515A" d="M156.875 143.221l2-.007.045 13.301-2 .007-.045-13.301M148.877 143.671l2-.008.007 2-2 .008-.007-2M152.883 145.647l2-.007.008 2-2 .007-.008-2M162.878 144.613l2-.008.008 2-2 .008-.008-2M152.841 133.647l2-.007.008 2-2 .007-.008-2M156.841 133.634l2-.008.008 2-2 .008-.008-2M160.841 133.62l2-.008.008 2-2 .008-.008-2M37.329 92.237h-2V57.983l.839-.136A24.082 24.082 0 0 0 55.99 37.649l.107-.75 7.569-1.009c4.82-.643 9.726-1.1 14.584-1.358l.105 1.997c-4.804.255-9.657.707-14.426 1.343l-6.078.811a26.124 26.124 0 0 1-20.522 20.988v32.566zm38.205 67.798a97.07 97.07 0 0 1-26.685-25.827l1.649-1.131a95.044 95.044 0 0 0 26.134 25.286l-1.098 1.672zm24.158.586l-1.08-1.684c19.06-12.226 32.856-30.119 37.849-49.092A78.142 78.142 0 0 0 138.8 92.2l-.001-32.53a26.123 26.123 0 0 1-20.521-20.987l-6.079-.811a183.164 183.164 0 0 0-15.277-1.386l.098-1.998c5.141.249 10.337.721 15.442 1.402l7.57 1.009.107.75a24.082 24.082 0 0 0 19.821 20.198l.839.136v34.254a80.006 80.006 0 0 1-2.405 18.117c-5.118 19.452-19.225 37.773-38.702 50.267z"/><path fill="#FFF" d="M153.497 89.837l-28-12 12.227 29.61 4.833-9.72 8.111 8.11 2.829-2.828-8.233-8.232 8.233-4.94"/><path fill="#48515A" d="M127.357 79.723l10.451 25.309 4.473-8.996 8.388 8.387 1.414-1.414-8.432-8.431 7.654-4.592-23.948-10.263zm10.283 30.14l-14.004-33.911 32.052 13.737-8.812 5.286 8.035 8.034-4.243 4.242-7.835-7.834-5.193 10.446z"/><path fill="#FFD15D" d="M42.815 172.856a3 3 0 1 1 0 6 3 3 0 0 1 0-6m-3-21.25a4 4 0 1 1 0 8 4 4 0 0 1 0-8"/><path fill="#FFD15D" d="M39.815 161.606a6 6 0 1 1 0-12 6 6 0 0 1 0 12zm0-14a8 8 0 1 0 0 16 8 8 0 0 0 0-16zm106-117.999a4 4 0 1 1 0 8 4 4 0 0 1 0-8"/><path fill="#FFD15D" d="M145.815 39.607a6 6 0 1 1 6-6 6.007 6.007 0 0 1-6 6zm0-14a8 8 0 1 0 0 16 8 8 0 0 0 0-16zM7.815 173.966l3 2.924-.708 4.129 3.708-1.949 3.708 1.949-.708-4.129 3-2.924-4.146-.603-1.854-3.757-1.854 3.757zM109.815 14.553l3 2.924-.708 4.13 3.708-1.95 3.708 1.95-.708-4.13 3-2.924-4.146-.602-1.854-3.757-1.854 3.757z"/></g></svg>