<?xml version="1.0" encoding="utf-8"?><svg xmlns="http://www.w3.org/2000/svg" width="250" height="250" viewBox="0 0 250 250"><g fill="none" fill-rule="evenodd"><path fill="#DEDEDD" d="M77.001 55.999h96v-8h-96z"/><path fill="#475059" d="M195.001 181h-140c-2.757 0-5-2.243-5-5V83.999c0-2.757 2.243-5 5-5h22v2h-22c-1.655 0-3 1.346-3 3V176c0 1.654 1.345 3 3 3h140c1.654 0 3-1.346 3-3V83.999c0-1.654-1.346-3-3-3h-22v-2h22c2.757 0 5 2.243 5 5V176c0 2.757-2.243 5-5 5"/><path fill="#475059" d="M106 201.001h38.001v-.834L141 182v-1h-31.998l-.013.995L106 200.166v.835zm40.001 2H104l.013-3.079 2.989-18.171V179H143v2.918l3.001 18.167v2.916z"/><path fill="#475059" d="M99.001 203h52v-2h-52z"/><path fill="#DEDEDD" d="M108.219 199.001h33.562L139.125 183H110.85l-2.631 16.001M54.001 164v12c0 .551.449 1 1 1h140c.551 0 1-.449 1-1v-12h-142"/><path fill="#475059" d="M174.001 164h-2V48.999h-94V164h-2V46.999h98V164"/><path fill="#DEDEDD" d="M58 82.999h16V162L58 82.999M192.071 82.999h-16V162l16-79.001"/><path fill="#48515A" d="M213.002 161h2v-4h-2zM213.002 171h2v-4h-2zM217.002 165h4v-2h-4zM207.002 165h4v-2h-4zM34.998 89h2v-4h-2zM34.998 99h2v-4h-2zM38.998 93h4v-2h-4zM28.998 93h4v-2h-4zM49.001 190.013h2v-4h-2zM49.001 200.013h2v-4h-2zM53.001 194.013h4v-2h-4zM43.001 194.013h4v-2h-4z"/><path fill="#FFD15D" d="M196.87 70.499a2.437 2.437 0 1 1-4.875.001 2.437 2.437 0 0 1 4.875-.001"/><path fill="#FFD15D" d="M194.432 68.561a1.94 1.94 0 0 0-1.937 1.938 1.94 1.94 0 0 0 1.937 1.937 1.94 1.94 0 0 0 1.938-1.937 1.94 1.94 0 0 0-1.938-1.938zm0 4.875a2.94 2.94 0 0 1-2.937-2.937 2.941 2.941 0 0 1 2.937-2.938 2.941 2.941 0 0 1 2.938 2.938 2.94 2.94 0 0 1-2.938 2.937z"/><path fill="#5FE0ED" d="M67.907 57.939a2.438 2.438 0 1 1-4.875-.001 2.438 2.438 0 0 1 4.875.001"/><path fill="#FFD15D" d="M91.182 194.198a2.438 2.438 0 1 1-4.876 0 2.438 2.438 0 0 1 4.876 0"/><path fill="#FFD15D" d="M88.744 192.261a1.94 1.94 0 0 0-1.938 1.937 1.94 1.94 0 0 0 1.938 1.938 1.94 1.94 0 0 0 1.938-1.938 1.94 1.94 0 0 0-1.938-1.937zm0 4.875a2.941 2.941 0 0 1-2.938-2.938 2.94 2.94 0 0 1 2.938-2.937 2.94 2.94 0 0 1 2.938 2.937 2.941 2.941 0 0 1-2.938 2.938z"/><path fill="#5FE0ED" d="M176.018 196.01a1 1 0 1 1-2 0 1 1 0 0 1 2 0"/><path fill="#DEDEDD" d="M70.006 85.981a2 2 0 1 1-3.999.001 2 2 0 0 1 3.999-.001m114.995-29.035a2 2 0 1 1-4 0 2 2 0 0 1 4 0m31.014 138.07a2 2 0 1 1-4.001-.001 2 2 0 0 1 4.001.001M39.001 122a1 1 0 1 1-2 0 1 1 0 0 1 2 0"/><path fill="#48515A" d="M207.01 132.018c-1.104 0-2 .897-2 2 0 1.102.896 2 2 2 1.103 0 2-.898 2-2 0-1.103-.897-2-2-2zm0 6c-2.206 0-4-1.794-4-4s1.794-4 4-4c2.205 0 4 1.794 4 4s-1.795 4-4 4zM44.999 145h-2v-7.001h-1v-2h3V145"/><path fill="#48515A" d="M41.999 146h4v-2h-4zM37.995 168.999c-.551 0-1 .448-1 1v4.002a1.001 1.001 0 0 0 2 0v-4.002c0-.552-.449-1-1-1zm0 8.002c-1.654 0-3-1.346-3-3v-4.002c0-1.654 1.346-3 3-3s3 1.346 3 3v4.002c0 1.654-1.346 3-3 3zM176.853 198.636h-2v-7.002h-1v-2h3v9.002"/><path fill="#48515A" d="M173.853 199.636h4v-2h-4zM158.801 186.516c-.551 0-1 .448-1 1v4.002c0 .551.449 1 1 1 .551 0 1-.449 1-1v-4.002c0-.552-.449-1-1-1zm0 8.002c-1.654 0-3-1.346-3-3v-4.002c0-1.655 1.346-3 3-3s3 1.345 3 3v4.002c0 1.654-1.346 3-3 3z"/></g></svg>