<?xml version="1.0" encoding="utf-8"?><svg xmlns="http://www.w3.org/2000/svg" width="250" height="250" viewBox="0 0 250 250"><g fill="none" fill-rule="evenodd"><path fill="#5FE0ED" d="M72.34 168.441l3.652-3.648v-12.284h-10v15.455c.138.155.269.314.393.477h5.955m17.652-15.556v-8.376h-10v16.288l3.669-3.665a19.921 19.921 0 0 1 6.331-4.247m14-1.608v-14.768h-10v15.158a19.51 19.51 0 0 1 3.711-.365l6.289-.025M117.992 128.509h-10v22.752l10-.04v-22.712M131.992 120.509h-10v30.696l10-.04v-30.656M145.992 112.509h-10v38.64l10-.04v-38.6M149.992 167h10v-64.491h-10zM173.992 94.509h-10V167l10-5.181v-67.31M187.992 155.999v-69.49h-10V161l10-5.001M201.992 155.563V78.509h-10v75.802c2.5-1.537 9.055.89 10 1.252m-140 9.927v-4.539h-10v4.249l7.906.008a8.185 8.185 0 0 1 2.094.282"/><path fill="#48515A" d="M56.478 165.486l-1.414-1.414 39.419-39.42 7.779 7.779 40.482-40.483 11.994 11.994 41.258-41.288 1.415 1.414-42.672 42.703-11.995-11.995-40.482 40.483-7.779-7.779-38.005 38.006"/><path fill="#48515A" d="M197.704 75.356h-2V64.361h-10.995v-2h12.995v12.995M80.54 99.748h4.43l2.452 2.717 2.85-1.181-.187-3.655 3.133-3.132 3.655.186 1.181-2.849-2.717-2.453v-4.43l2.717-2.453-1.181-2.85-3.655.187-3.133-3.132.187-3.656-2.85-1.18-2.452 2.716h-4.43l-2.453-2.716-2.85 1.18.187 3.656-3.133 3.132-3.655-.187-1.18 2.85 2.716 2.453v4.43l-2.716 2.453 1.18 2.849 3.654-.187 3.134 3.133-.187 3.655 2.85 1.181 2.453-2.717zm6.344 5.105l-2.803-3.104h-2.653l-2.802 3.104-5.458-2.261.213-4.177-1.876-1.876-4.176.213-2.261-5.457 3.104-2.802v-2.654l-3.104-2.802 2.261-5.458 4.176.213 1.876-1.876-.213-4.176 5.458-2.261 2.802 3.104h2.653l2.802-3.104 5.458 2.261-.213 4.176 1.875 1.876 4.178-.213 2.26 5.458-3.104 2.802v2.654l3.104 2.802-2.26 5.458-4.177-.213-1.876 1.875.213 4.177-5.457 2.261z"/><path fill="#48515A" d="M82.754 84.587a2.579 2.579 0 1 0 .001 5.157 2.579 2.579 0 0 0-.001-5.157zm0 7.158a4.58 4.58 0 0 1 .001-9.158 4.579 4.579 0 1 1-.001 9.158z"/><path fill="#DEDEDD" d="M61.833 204.311v.002a1.88 1.88 0 0 1-1.989 1.989h-.002l-7.009.163v-14.174l7.059.007a2.157 2.157 0 0 1 1.529.64c.383.411.582.96.552 1.522l-.14 9.851"/><path fill="#48515A" d="M85.892 203.302H64.834v-2H85.7l77.128-14.947 43.53-26.697c-5.758-5.159-12.763-6.109-18.955-2.5l-27.261 13.144h-46.774v-2h18.315c7.617.201 14.058-5.598 14.655-13.195l-48.631.195a15.984 15.984 0 0 0-11.219 4.659l-20.834 20.814-1.413-1.415 20.833-20.814a17.991 17.991 0 0 1 12.629-5.244l50.67-.202v1.004a15.962 15.962 0 0 1-8.534 14.198h19.846l26.781-12.908c7.292-4.256 15.629-2.875 22.233 3.728l.897.897-46.032 28.231-.178.035-77.494 15.017"/><path fill="#48515A" d="M145.977 162.847l-.919-1.775 31.302-16.217a25.23 25.23 0 0 1 6.636-2.053c3.936-.691 7.985.21 11.255 2.507a14.259 14.259 0 0 1 3.471 3.608l.549.823-10.807 7.38-1.128-1.651 9.14-6.242a12.375 12.375 0 0 0-2.404-2.303 13.046 13.046 0 0 0-9.754-2.149 23.23 23.23 0 0 0-6.075 1.873l-31.266 16.199m-95.144 45.652l8.997.009h.004a4.17 4.17 0 0 0 4.172-4.156v-.001l.056-30.978a4.187 4.187 0 0 0-4.168-4.165l-9.061-.009v39.3zm9.002 2.009h-.007l-10.995-.011v-43.3l11.063.011a6.186 6.186 0 0 1 6.166 6.168l-.056 30.979a6.173 6.173 0 0 1-6.171 6.153z"/><path fill="#DEDEDD" d="M113.368 165.302h23.443a10.444 10.444 0 0 0 7.203-8h-4.792c-2.096 2-4.691 2-7.539 2h-12.315a6 6 0 0 0-6 6m83.522-8l-34.798 20.208-76.583 14.792H68.028l-.013 7h17.494l76.583-14.779 40.741-24.941c-2.419-1.571-3.344-2.28-5.943-2.28"/><path fill="#DEDEDD" d="M152.708 169.33l.058-.028h-15.808c-.219.062 15.75.028 15.75.028m-15.897-4.028a10.444 10.444 0 0 0 7.203-8h-4.792c-2.096 2-4.691 2-7.539 2h-11.85v6h16.978m-23.443 0h6.465v-6h-.465a6 6 0 0 0-6 6"/><path fill="#48515A" d="M191 185h2v-4h-2zM191 195h2v-4h-2zM195 189h4v-2h-4zM185 189h4v-2h-4zM34.993 132.468h2v-4h-2zM34.993 142.468h2v-4h-2zM38.993 136.468h4v-2h-4zM28.993 136.468h4v-2h-4z"/><path fill="#DEDEDD" d="M202.748 159.526c-.671-.436-1.226-.798-1.737-1.102.633.307 1.246.656 1.834 1.043l-.097.059zm-12.977-12.142c.104.041.213.074.315.119-.102-.045-.211-.078-.315-.119z"/><path fill="#48515A" d="M114.04 52.42h2v-4h-2zM114.04 62.42h2v-4h-2zM118.04 56.42h4v-2h-4zM108.04 56.42h4v-2h-4zM208.227 105.105c-5.933 0-10.742 4.809-10.742 10.741 0 5.932 4.809 10.741 10.742 10.741 5.932 0 10.741-4.809 10.741-10.741-.007-5.93-4.812-10.735-10.741-10.741zm0 23.482c-7.037 0-12.742-5.704-12.742-12.741s5.705-12.741 12.742-12.741c7.036 0 12.741 5.704 12.741 12.741-.009 7.033-5.708 12.733-12.741 12.741z"/><path fill="#48515A" d="M208.225 105.105c-2.885 0-5.322 4.918-5.322 10.741 0 5.822 2.437 10.741 5.322 10.741 2.885 0 5.322-4.919 5.322-10.741 0-5.823-2.437-10.741-5.322-10.741zm0 23.482c-4.105 0-7.322-5.597-7.322-12.741 0-7.145 3.217-12.741 7.322-12.741 4.106 0 7.322 5.596 7.322 12.741 0 7.144-3.216 12.741-7.322 12.741z"/><path fill="#48515A" d="M196.779 117.296h23v-2h-23z"/><path fill="#FFF" d="M159 123.914L133.535 113l11.12 26.93 4.396-8.841 7.377 7.376 2.572-2.572-7.487-7.487 7.487-4.492"/><path fill="#48515A" d="M135.395 114.885l9.345 22.629 4.034-8.116 7.654 7.653 1.158-1.158-7.686-7.686 6.909-4.144-21.414-9.178zm9.176 27.461l-12.897-31.231 29.517 12.65-8.065 4.839 7.288 7.289-3.986 3.986-7.101-7.1-4.756 9.567z"/></g></svg>