<?xml version="1.0" encoding="utf-8"?><svg xmlns="http://www.w3.org/2000/svg" width="250" height="250" viewBox="0 0 250 250"><g fill="none" fill-rule="evenodd"><path fill="#5FE0ED" d="M183.284 80.209c-3.43-7.592-8.318-14.355-14.531-20.102a60.618 60.618 0 0 0-2.312-2.123C154.929 47.999 140.17 42.5 124.881 42.5c-5.875 0-11.671.82-17.236 2.387l-.078.023a63.203 63.203 0 0 0-3.22 1.01c-.348.118-.694.238-1.039.361a63.98 63.98 0 0 0-2.208.848c-1.028.41-2.041.853-3.046 1.317-.212.099-.427.191-.638.292-5.143 2.444-9.979 5.56-14.341 9.343-5.564 4.826-10.162 10.558-13.713 17.037a64.058 64.058 0 0 0-8.847 32.559v57.234c0 8.843 2.991 20.14 3.051 21.043H99.65l-1.163-4.657a131.358 131.358 0 0 0-7.583-21.922c-4.848-11.96-10.243-22.466-13.953-29.651l-.231-.449a57.202 57.202 0 0 1-4.199-10.67c-3.68-12.99-2.579-26.753 3.398-38.452a54.21 54.21 0 0 1 4.258-6.975 53.307 53.307 0 0 1 8.366-9.175 55.564 55.564 0 0 1 2.849-2.293c.185-.14.369-.281.555-.419a55.813 55.813 0 0 1 2.913-2.01c.163-.105.33-.205.495-.308.961-.603 1.929-1.198 2.933-1.726.096-.05.189-.107.284-.158a56.226 56.226 0 0 1 3.837-1.867 56.373 56.373 0 0 1 3.328-1.352c.111-.04.223-.075.333-.115a55.995 55.995 0 0 1 3.303-1.07c.141-.041.28-.086.421-.125a55.8 55.8 0 0 1 3.505-.862c.198-.042.397-.081.596-.121a55.183 55.183 0 0 1 3.651-.621 55.758 55.758 0 0 1 7.335-.487c13.371 0 26.276 4.806 36.338 13.535l.162.141-.031.037.064.053.04.034a.12.12 0 0 0 .018.015l.011.009.031.027.05.043.029.025c.59.505 1.158 1.023 1.722 1.545 5.44 5.024 9.715 10.931 12.706 17.555 3.176 7.037 4.055 14.969 2.629 22.625h8.072c1.352-8.79.209-17.826-3.438-25.904"/><path fill="#475059" d="M99.323 212.5h-2v-5.312c-.01-27.18-16.91-59.901-25.032-75.626-8.888-17.209-9.19-37.275-.812-53.676 3.459-6.77 8.101-12.707 13.797-17.648 10.97-9.514 25.036-14.754 39.605-14.754 14.569 0 28.635 5.24 39.604 14.754a57.892 57.892 0 0 1 2.22 2.04c5.93 5.479 10.592 11.925 13.858 19.16 4.828 10.694 4.981 23.195.419 34.298a16.55 16.55 0 0 0-1.261 6.306c0 1.067.115 2.175.342 3.292a16.48 16.48 0 0 0 2.603 6.134l6.982 10.084c.521.618.837 1.491.837 2.388a3.836 3.836 0 0 1-2.627 3.645l-5.183 1.728a2.074 2.074 0 0 0-1.421 1.97c0 .846.195 2.05 1.128 2.982l.293.293v2.011c0 1.662-1.111 2.842-2.907 3.184.048 1.043.064 2.259-.081 2.759-.393 1.354-1.314 2.118-2.054 2.733-.713.591-1.003.875-1.005 1.299l-.017 6.646c-.013 4.846-3.96 8.789-8.798 8.789h-15.247a5.16 5.16 0 0 0-5.153 5.093l3.078 24.099v1.328h-2v-1.264l-3.078-24.102c0-3.945 3.209-7.154 7.153-7.154h15.247c3.738 0 6.789-3.048 6.798-6.795l.017-6.648c.005-1.401.96-2.193 1.727-2.83.612-.508 1.189-.987 1.412-1.752.069-.315.031-1.826-.05-3.032l-.071-1.052 1.055-.015c.901-.012 1.974-.246 1.974-1.286v-1.207c-.919-1.077-1.421-2.508-1.421-4.079a4.07 4.07 0 0 1 2.789-3.867l5.183-1.728a1.84 1.84 0 0 0 .832-2.927l-7.037-10.154a18.437 18.437 0 0 1-2.917-6.874 18.574 18.574 0 0 1-.383-3.691c0-2.408.474-4.785 1.412-7.066 4.352-10.596 4.21-22.52-.393-32.715-3.156-6.992-7.664-13.222-13.399-18.52a62.667 62.667 0 0 0-1.851-1.657l-.013-.011-.076-.065-.031-.026a7.48 7.48 0 0 1-.099-.085l.031-.037-.127-.111c-10.606-9.199-24.206-14.265-38.294-14.265-14.088 0-27.689 5.066-38.294 14.265-5.502 4.771-9.985 10.507-13.326 17.047-8.087 15.828-7.785 35.21.807 51.848 8.195 15.865 25.245 48.878 25.255 76.543v5.313"/><path fill="#DFE0E0" d="M133.941 90.716c.165.64.17 1.311.015 1.953l-2.522 10.343c0 1.522 1.235 2.706 2.757 2.706h5.433c-1.522 0-2.756-1.184-2.756-2.706l2.521-10.368a3.96 3.96 0 0 0-.015-1.941l-1.404-4.363c-.812-3.142-3.64-5.332-7.169-5.332v2.528c1.176.798 1.461 1.748 1.735 2.811l1.405 4.369m20.612 23.236h.235a4.121 4.121 0 0 0 4.13-4.34c-.118-2.236-2.125-3.894-4.364-3.894h-5.433c2.239 0 4.246 1.658 4.363 3.894a4.12 4.12 0 0 1-4.129 4.34h-.236c2.24 0 4.247 1.745 4.364 3.981.117 2.246-1.557 4.16-3.721 4.372-.134.013-1.65.018-1.788.018 2.532 0 4.243 2.307 3.778 4.922-.351 1.973-2.131 3.333-4.484 3.381v.211c2.353.564 3.229 2.098 3.128 4.027-.117 2.236-1.834 3.789-4.074 3.789h2.717c2.239 0 4.246-1.659 4.363-3.895a4.119 4.119 0 0 0-4.129-4.339h3.9c2.041 0 3.944-1.262 4.302-3.271.465-2.615-1.535-4.861-4.068-4.861.138 0 1.654.04 1.788.026 2.164-.212 3.839-2.148 3.721-4.393-.117-2.236-2.124-3.968-4.363-3.968"/><path fill="#5FE0ED" d="M91.985 141.005h22.349v-37.639H91.985z"/><path fill="#48515A" d="M149.039 139.653h-11.724c-6.042 0-11.648-.808-16.676-2.402a1.009 1.009 0 0 1-.312.049h-5.993a1 1 0 1 1 0-2h5.391l.017-.013a1 1 0 0 1 .902-.138c4.983 1.662 10.592 2.504 16.671 2.504h11.724c1.771 0 3.279-1.322 3.364-2.947a3.085 3.085 0 0 0-.847-2.31 3.118 3.118 0 0 0-2.283-.977 1 1 0 0 1 0-2h3.901c1.431 0 3.03-.84 3.316-2.447.167-.94-.069-1.85-.666-2.563a3.138 3.138 0 0 0-2.288-1.119l-.129-.003h-.001a1 1 0 0 1-.008-2h.002.007c.067 0 .133.002.199.004l.246.004c.451.01 1.126.025 1.283.02 1.605-.158 2.87-1.659 2.782-3.343-.087-1.665-1.597-3.02-3.364-3.02a1 1 0 1 1 0-2h.235c.874 0 1.686-.348 2.283-.978a3.08 3.08 0 0 0 .848-2.309c-.085-1.625-1.594-2.947-3.364-2.947h-14.931c-2.106 0-3.756-1.628-3.756-3.706 0-.08.01-.159.028-.237l2.521-10.368a2.95 2.95 0 0 0-.011-1.452l-1.128-4.364c-.618-2.393-2.902-4.247-5.477-4.544v7.231c0 .104-.017.207-.048.306l-1.401 4.364-2.934 8.17-1.378 3.525c-.533 1.386-1.864 2.251-3.471 2.251h-8.235a1 1 0 1 1 0-2h8.235c.37 0 1.268-.095 1.606-.975l1.372-3.507 2.91-8.105 1.344-4.185v-8.114a1 1 0 0 1 .987-1l.277-.003c3.817 0 7.239 2.559 8.149 6.085l1.128 4.363c.209.803.215 1.62.018 2.427l-2.489 10.238c.055.905.806 1.6 1.753 1.6h14.931c2.864 0 5.219 2.127 5.362 4.842a5.07 5.07 0 0 1-1.395 3.791 5.07 5.07 0 0 1-.758.655c1.233.901 2.069 2.297 2.151 3.862a5.191 5.191 0 0 1-2.852 4.934 5.116 5.116 0 0 1 1.396 4.521c-.413 2.321-2.548 4.02-5.111 4.094a5.066 5.066 0 0 1 1.053 3.394c-.142 2.715-2.498 4.842-5.362 4.842"/><path fill="#48515A" d="M154.326 114.952h-5.882a1 1 0 0 1 0-2h5.882a1 1 0 1 1 0 2m0 8.234h-5.882a1 1 0 0 1 0-2h5.882a1 1 0 1 1 0 2m-4.705 8.233h-1.177a1 1 0 0 1 0-2h1.177a1 1 0 1 1 0 2m-5.611-20.679c-.06 0-.13 0-.191-.02-.069-.01-.13-.03-.189-.05a.916.916 0 0 1-.17-.1.594.594 0 0 1-.16-.12c-.18-.19-.29-.44-.29-.71 0-.13.03-.26.08-.38s.12-.23.21-.33c.05-.04.099-.08.16-.12.05-.03.109-.07.17-.09.059-.03.12-.05.189-.06.33-.06.671.04.901.27.09.1.16.21.21.33.06.12.08.25.08.38 0 .27-.111.52-.29.71-.19.19-.45.29-.71.29m0 8.27c-.06 0-.13 0-.191-.02-.069-.01-.13-.03-.189-.05a.967.967 0 0 1-.54-.54c-.05-.13-.08-.26-.08-.39a1.009 1.009 0 0 1 .45-.83c.05-.03.109-.06.17-.09.059-.02.12-.04.189-.06.33-.06.671.05.901.28.179.18.29.44.29.7 0 .13-.02.26-.08.39-.05.12-.12.23-.21.32-.19.19-.45.29-.71.29m0 8.27c-.06 0-.13 0-.191-.02-.069-.01-.13-.03-.189-.05a.967.967 0 0 1-.33-.22c-.18-.18-.29-.44-.29-.71a1.009 1.009 0 0 1 .45-.83c.05-.03.109-.06.17-.09.059-.02.12-.04.189-.06.33-.06.671.04.901.28.179.18.29.44.29.7 0 .27-.111.53-.29.71-.19.19-.45.29-.71.29m0 8.15c-.06 0-.13 0-.191-.02-.069-.01-.13-.03-.189-.05a.967.967 0 0 1-.54-.54c-.05-.13-.08-.26-.08-.39a1.009 1.009 0 0 1 .45-.83c.05-.03.109-.06.17-.09.059-.02.12-.04.189-.06.321-.06.66.04.901.28.179.18.29.44.29.7 0 .13-.02.26-.08.39-.05.12-.12.23-.21.32-.19.19-.45.29-.71.29M113.334 141.005h2v-37.639h-2zM213 189.5h2v-4h-2zM213 199.5h2v-4h-2zM217 193.5h4v-2h-4zM207 193.5h4v-2h-4zM35 141.5h2v-4h-2zM35 151.5h2v-4h-2zM39 145.5h4v-2h-4zM29 145.5h4v-2h-4zM191 41.5h2v-4h-2zM191 51.5h2v-4h-2zM195 45.5h4v-2h-4zM185 45.5h4v-2h-4z"/><path fill="#5FE0ED" d="M210.317 133.773a3.317 3.317 0 1 1-6.634 0 3.317 3.317 0 0 1 6.634 0m-154.5-68.286a3.317 3.317 0 1 1-6.634 0 3.317 3.317 0 0 1 6.634 0"/><path fill="#F58E70" d="M164.835 198.5a1 1 0 1 1-2 0 1 1 0 0 1 2 0M54.5 185.5a2 2 0 1 1-3.999.001 2 2 0 0 1 3.999-.001"/></g></svg>