<?xml version="1.0" encoding="utf-8"?><svg xmlns="http://www.w3.org/2000/svg" width="250" height="250" viewBox="0 0 250 250"><g fill="none" fill-rule="evenodd"><path fill="#FFD15D" d="M49.976 208h147.026v-30.332H49.976z"/><path fill="#DEDEDD" d="M180.035 151.012h16.884v-2h-16.884z"/><path fill="#48515A" d="M198.922 207.999h2V176.02h-2zM45.91 207.999h2V175.02h-2z"/><path fill="#48515A" d="M200.922 176.02H45.911v-36.009h21.884v2H47.911v32.009h151.011v-32.009h-18.887v-2h20.887v36.009"/><path fill="#DEDEDD" d="M49.42 163.019h147.499v-2H49.42zM49.42 167.021h147.499v-2H49.42zM49.42 171.024h147.499v-2H49.42zM49.42 159.016h147.499v-2H49.42zM49.42 151.012h18.375v-2H49.42z"/><path fill="#48515A" d="M190.043 53.994h-2V50c0-3.308-2.691-6-6-6v-2c4.411 0 8 3.589 8 8v3.994M91.426 61.994h104.617v-2H91.426zM77.425 44h104.618v-2H77.425z"/><path fill="#FFD15D" d="M186.043 50v.995H95.425v3c0 2.205-1.794 4-4 4-2.205 0-4-1.795-4-4V50a9.946 9.946 0 0 0-.835-4l95.453.001c2.206 0 4 1.794 4 3.999"/><path fill="#48515A" d="M177.425 156.993l-2-.002.119-96.997h20.499a6.01 6.01 0 0 0 5.917-4.999H99.362c-.493 3.94-3.864 6.999-7.936 6.999-4.411 0-8-3.588-8.001-8V50c0-3.308-2.692-6-6-6-3.309 0-6 2.692-6 6v2.996l.052 103.995-2 .002L69.425 50c0-4.411 3.589-8 8-8s8 3.589 8 8v3.994a6.008 6.008 0 0 0 6.001 6 6.006 6.006 0 0 0 5.999-6v-.999h106.618v.999c0 4.412-3.589 8-8 8h-18.501l-.117 94.999"/><path fill="#DEDEDD" d="M180.035 155.014h16.884v-2h-16.884zM49.42 155.014h18.375v-2H49.42zM180.035 147.009h16.884v-2h-16.884zM49.42 147.009h18.375v-2H49.42z"/><path fill="#475059" d="M58.44 92.024a6.015 6.015 0 0 1-6.007-6.009 5.968 5.968 0 0 1 1.758-4.249 5.966 5.966 0 0 1 4.249-1.761l11.435-.006.002 2-11.436.006a3.982 3.982 0 0 0-2.836 1.175 4.012 4.012 0 0 0 2.835 6.844l23.443-.006c1.105 0 2.005-.9 2.005-2.007 0-1.105-.9-2.005-2.005-2.005l-24.445.006v-2l24.445-.006a4.01 4.01 0 0 1 4.005 4.005 4.011 4.011 0 0 1-4.005 4.007l-23.443.006"/><path fill="#475059" d="M101.913 104.004h-31v-2h29v-28h-29v-2h31v32"/><path fill="#48515A" d="M92.973 200.542h64.007v-13.003h-2v11.003H94.973v-11.003h-2v13.003zm66.007 2H90.973v-17.003h6v11.003h56.007v-11.003h6v17.003z"/><path fill="#DFE0E0" d="M119.927 99.057v2.241h9.795l.044-3.339v-2.191c.186-.185.377-.381.548-.58a2.187 2.187 0 0 0-.162.154c-.684.735-1.721 1.506-2.423 2.105a3.103 3.103 0 0 1-1.987.745h-2.111a3.103 3.103 0 0 1-1.987-.745c-.67-.572-1.645-1.301-2.327-2.005l-.067-.064c.205.218.439.439.688.659-.005.002-.011.005-.011.011v3.009"/><path fill="#48515A" d="M109.031 123.572h2v-5.253h-2zM147.977 123.572h-2v-12.535c0-1.155-.675-2.22-1.719-2.713l-15.525-7.334v-5.647l.297-.294c.475-.469.752-.802.823-.991l2.138-4.37 2.152-1.076.419-2.081-.494-.056h-1.189l.204-1.172c.171-.98.258-1.858.258-2.609v-.366a8.126 8.126 0 0 0-.741-3.493 8.643 8.643 0 0 0-2.529-3.242c-1.641-1.295-3.698-1.929-5.807-1.822-4.524.259-8.067 4.139-8.067 8.834 0 .853.075 1.739.223 2.721l.172 1.149h-1.556a.094.094 0 0 0-.071.033l.604 2.115 1.901 1.098 2.021 4.273c.222.586 1.407 1.55 2.115 2.126.247.201.481.391.687.567.375.32.854.5 1.35.505h2.104v2h-2.115a4.133 4.133 0 0 1-2.637-.984c-.196-.167-.418-.347-.65-.537-1.085-.882-2.316-1.883-2.695-2.899l-1.721-3.631-2.061-1.189-.926-3.383c0-.9.57-1.668 1.368-1.964a17.754 17.754 0 0 1-.113-1.911c0-5.843 4.371-10.601 9.952-10.919a10.596 10.596 0 0 1 7.161 2.248 10.662 10.662 0 0 1 3.108 3.979c.612 1.32.933 2.795.923 4.259v.433c0 .579-.043 1.215-.129 1.9.293.104.559.275.783.505.391.402.596.933.58 1.492l-.019.168-.646 3.204-2.421 1.211-1.802 3.676c-.156.425-.532.883-.954 1.322v3.55l14.379 6.793a5.022 5.022 0 0 1 2.865 4.522v12.535"/><path fill="#48515A" d="M139.431 123.572h2v-5.253h-2zM103.977 123.572h-2v-12.543a5.024 5.024 0 0 1 2.851-4.516l14.099-6.708v-3.757h2v5.021l-15.239 7.251a3.011 3.011 0 0 0-1.711 2.709v12.543m-7.505 25.435h16v-16h-16v16zm-2 2h20v-20h-20v20z"/><path fill="#48515A" d="M102.485 145.408l-3.681-3.682 1.414-1.414 2.267 2.267 6.279-6.278 1.414 1.414-7.693 7.693M118.482 139.028h35.999v-2h-35.999zM118.482 143.013h35.999v-2h-35.999zM118.482 147.033h35.999v-2h-35.999zM34.985 111.031h2v-4h-2zM34.985 121.031h2v-4h-2zM38.985 115.031h4v-2h-4zM28.985 115.031h4v-2h-4zM213.015 146.06h2v-4h-2zM213.015 156.06h2v-4h-2zM217.015 150.06h4v-2h-4zM207.015 150.06h4v-2h-4zM193.002 76.018h2v-4h-2zM193.002 86.018h2v-4h-2zM197.002 80.018h4v-2h-4zM187.002 80.018h4v-2h-4z"/><path fill="#FFD15D" d="M204.136 99.731a1.567 1.567 0 1 1-3.134 0 1.567 1.567 0 0 1 3.134 0M35.985 151.56a2.5 2.5 0 1 1-5 0 2.5 2.5 0 0 1 5 0M51.11 57.435a2.1 2.1 0 1 1-4.2 0 2.1 2.1 0 0 1 4.2 0"/></g></svg>