<?xml version="1.0" encoding="utf-8"?><svg xmlns="http://www.w3.org/2000/svg" width="250" height="250" viewBox="0 0 250 250"><g fill="none" fill-rule="evenodd"><path fill="#DBDBD5" d="M166.05 145.582v38.595l8 8v-48.594l4-4v-4h-16v4l4 4v1.999M136.032 145.582v26.588l8 8v-36.587l4-4v-4h-16v4l4 4v1.999M106.014 145.582v13.58l8 8v-23.579l4-4v-4h-16v4l4 4v1.999M75.996 145.582v3.574l8 8v-13.573l4-4v-4h-16v4l4 4v1.999"/><path fill="#DBDBD5" d="M63.996 135.583h122v-8h-122z"/><path fill="#42494E" d="M74.916 186.708h2v-38.126h-2zM84.916 145.583h-2v-2.415l4-4v-2.585h-14v2.585l4 4v2.415h-2v-1.586l-4-4v-5.414h18v5.414l-4 4v1.586M82.916 186.645h2v-38.062h-2zM88.916 200.583h-18v-5.415l4-4v-2.397h2v3.226l-4 4v2.586h14v-2.586l-4-4v-3.101h2v2.272l4 4v5.415"/><path fill="#42494E" d="M85.915 190.583H73.916a1 1 0 0 1 0-2h11.999a1 1 0 1 1 0 2m0-41.025H73.916a1 1 0 1 1 0-2h11.999a1 1 0 1 1 0 2"/><path fill="#42494E" d="M78.916 186.583h2v-38.002h-2zM104.934 186.708h2v-38.126h-2zM114.934 145.583h-2v-2.415l4-4v-2.585h-14v2.585l4 4v2.415h-2v-1.586l-4-4v-5.414h18v5.414l-4 4v1.586M112.934 186.645h2v-38.062h-2zM118.934 200.583h-18v-5.415l4-4v-2.397h2v3.226l-4 4v2.586h14v-2.586l-4-4v-3.101h2v2.272l4 4v5.415"/><path fill="#42494E" d="M115.933 190.583h-11.999a1 1 0 0 1 0-2h11.999a1 1 0 1 1 0 2m0-41.025h-11.999a1 1 0 1 1 0-2h11.999a1 1 0 1 1 0 2"/><path fill="#42494E" d="M108.934 186.583h2v-38.002h-2zM134.952 186.708h2v-38.126h-2zM144.952 145.583h-2v-2.415l4-4v-2.585h-14v2.585l4 4v2.415h-2v-1.586l-4-4v-5.414h18v5.414l-4 4v1.586M142.952 186.645h2v-38.062h-2zM148.952 200.583h-18v-5.415l4-4v-2.397h2v3.226l-4 4v2.586h14v-2.586l-4-4v-3.101h2v2.272l4 4v5.415"/><path fill="#42494E" d="M145.951 190.583h-11.999a1 1 0 0 1 0-2h11.999a1 1 0 1 1 0 2m0-41.025h-11.999a1 1 0 1 1 0-2h11.999a1 1 0 1 1 0 2"/><path fill="#42494E" d="M138.952 186.583h2v-38.002h-2zM164.971 186.708h2v-38.126h-2zM174.971 145.583h-2v-2.415l4-4v-2.585h-14v2.585l4 4v2.415h-2v-1.586l-4-4v-5.414h18v5.414l-4 4v1.586M172.971 186.645h2v-38.062h-2zM178.971 200.583h-18v-5.415l4-4v-2.397h2v3.226l-4 4v2.586h14v-2.586l-4-4v-3.101h2v2.272l4 4v5.415"/><path fill="#42494E" d="M175.969 190.583h-11.998a1 1 0 1 1 0-2h11.998a1 1 0 1 1 0 2m0-41.025h-11.998a1 1 0 1 1 0-2h11.998a1 1 0 1 1 0 2"/><path fill="#42494E" d="M168.971 186.583h2v-38.002h-2zM186.997 207.583h-2v-7h-120v7h-2v-9h124v9"/><path fill="#42494E" d="M97.997 204.583h54.001v-2H97.997zM93.997 208.583h65.005v-2H93.997zM89.997 212.583h70.006v-2H89.997z"/><path fill="#42494E" d="M90.997 212.583h-2v-6h4v-4h4v-3h2v5h-4v4h-4v4M161.034 212.583h-2v-4h-4v-4h-4v-5h2v3h4v4h4v6M186.997 136.583h-6v-2h4v-6h-120v6h4v2h-6v-10h124v10"/><path fill="#42494E" d="M90.997 136.583h8v-2h-8zM121.015 136.583h8.001v-2h-8.001zM151.033 136.583h8v-2h-8zM67.995 132.583a.996.996 0 0 1-.38-.081.991.991 0 0 1-.62-.919c0-.26.11-.521.29-.71a.999.999 0 0 1 1.09-.21c.13.049.24.12.33.21.19.189.29.45.29.71 0 .269-.1.519-.29.7-.1.099-.2.17-.33.219a.996.996 0 0 1-.38.081m2.93-1c0-.55.45-1 1-1 .56 0 1 .45 1 1 0 .549-.44 1-1 1-.55 0-1-.451-1-1zm3.94 0a.994.994 0 1 1 1.99 0 .994.994 0 1 1-1.99 0zm3.92 0c0-.55.45-1 1-1 .559 0 1 .45 1 1 0 .549-.441 1-1 1-.55 0-1-.451-1-1zm3.94 0c0-.55.44-1 1-1 .55 0 1 .45 1 1 0 .549-.45 1-1 1-.56 0-1-.451-1-1zm3.93 0c0-.55.439-1 1-1 .55 0 .999.45.999 1 0 .549-.449 1-.999 1-.561 0-1-.451-1-1zm3.93 0c0-.55.45-1 1-1 .549 0 1 .45 1 1 0 .549-.451 1-1 1-.55 0-1-.451-1-1zm3.93 0c0-.55.45-1 1-1s1 .45 1 1c0 .549-.45 1-1 1s-1-.451-1-1zm3.93 0c0-.55.45-1 1-1s1 .45 1 1c0 .549-.45 1-1 1s-1-.451-1-1zm3.93 0c0-.55.449-1 1-1 .55 0 1 .45 1 1 0 .549-.45 1-1 1-.551 0-1-.451-1-1zm3.929 0c0-.55.451-1 1-1 .551 0 1 .45 1 1 0 .549-.449 1-1 1-.549 0-1-.451-1-1zm3.931 0c0-.55.45-1 1-1 .56 0 1 .45 1 1 0 .549-.44 1-1 1-.55 0-1-.451-1-1zm3.93 0a1.005 1.005 0 0 1 2.01 0 1.006 1.006 0 0 1-2.01 0zm3.94 0c0-.55.44-1 1-1 .55 0 1 .45 1 1 0 .549-.45 1-1 1-.56 0-1-.451-1-1zm3.93 0c0-.55.44-1 1-1 .55 0 1 .45 1 1 0 .549-.45 1-1 1-.56 0-1-.451-1-1zm3.93 0c0-.55.44-1 1-1 .55 0 1 .45 1 1 0 .549-.45 1-1 1-.56 0-1-.451-1-1zm3.93 0c0-.55.439-1 1-1 .55 0 1 .45 1 1 0 .549-.45 1-1 1-.561 0-1-.451-1-1zm3.929 0c0-.55.451-1 1-1 .55 0 1 .45 1 1 0 .549-.45 1-1 1-.549 0-1-.451-1-1zm3.931 0c0-.55.449-1 1-1 .55 0 1 .45 1 1 0 .549-.45 1-1 1-.551 0-1-.451-1-1zm3.93 0c0-.55.45-1 1-1s1 .45 1 1c0 .549-.45 1-1 1s-1-.451-1-1zm3.93 0c0-.55.45-1 1-1 .549 0 1 .45 1 1 0 .549-.451 1-1 1-.55 0-1-.451-1-1zm3.929 0c0-.55.45-1 1-1 .551 0 1 .45 1 1 0 .549-.449 1-1 1-.55 0-1-.451-1-1zm3.931 0c0-.55.45-1 1-1 .559 0 1 .45 1 1 0 .549-.441 1-1 1-.55 0-1-.451-1-1zm3.939 0c0-.55.441-1 1-1 .551 0 1 .45 1 1 0 .549-.449 1-1 1-.559 0-1-.451-1-1zm3.931 0c0-.55.439-1 1-1 .55 0 1 .45 1 1 0 .549-.45 1-1 1-.561 0-1-.451-1-1zm3.93 0c0-.55.45-1 1-1 .549 0 1 .45 1 1 0 .549-.451 1-1 1-.55 0-1-.451-1-1zm3.929 0c0-.55.451-1 1-1 .551 0 1 .45 1 1 0 .549-.449 1-1 1-.549 0-1-.451-1-1zm3.931 0c0-.55.449-1 1-1 .55 0 1 .45 1 1 0 .549-.45 1-1 1-.551 0-1-.451-1-1zm3.93 0c0-.55.45-1 1-1s1 .45 1 1c0 .549-.45 1-1 1s-1-.451-1-1zm4.929 1a.996.996 0 0 1-.379-.081.876.876 0 0 1-.321-.219.967.967 0 0 1-.3-.7c0-.26.111-.521.3-.71a1.016 1.016 0 0 1 1.41 0 1 1 0 0 1 .29.71.95.95 0 0 1-.29.7.86.86 0 0 1-.319.219c-.13.05-.25.081-.391.081m-56.998-30c-3.86 0-7 3.14-7 7 0 3.859 3.14 7 7 7s7-3.141 7-7c0-3.86-3.14-7-7-7zm0 16c-4.962 0-9-4.038-9-9 0-4.963 4.038-9 9-9 4.963 0 9 4.037 9 9 0 4.962-4.037 9-9 9z"/><path fill="#42494E" d="M126.475 106.972a.996.996 0 0 1-.38-1.37.988.988 0 0 1 1.359-.37.998.998 0 1 1-.979 1.74zm-4.37-.33a.998.998 0 0 1 .36-1.37 1.01 1.01 0 0 1 1.37.351 1.008 1.008 0 0 1-.86 1.509c-.35 0-.68-.179-.87-.49zm5.889 2.941v-.041c-.009-.549.441-1 .991-1.009.549 0 1 .439 1.009.989v.061c0 .549-.45 1-1 1-.549 0-1-.451-1-1zm-7.999.03c0-.551.44-1 1-1.011.55 0 1 .44 1 1 .01.55-.441 1-.99 1a.995.995 0 0 1-1.01-.989zm6.14 3.929a1.005 1.005 0 0 1 .359-1.36h.011a.985.985 0 0 1 1.36.36c.28.48.12 1.09-.36 1.36-.16.1-.33.14-.5.14-.341 0-.681-.179-.87-.5zm-3.62.38a.992.992 0 0 1-.37-1.36.993.993 0 0 1 1.36-.38 1.002 1.002 0 0 1-.99 1.74z"/><path fill="#E9886C" d="M136 74.581h3.995v-6h-11.999v6H136"/><path fill="#E9886C" d="M146.998 72.583h-5.003v3.998H136v2.002h10.998l-2.002-2.94 2.002-3.06"/><path fill="#42494E" d="M133.995 80.582h17.133l-3.334-5 3.334-5h-11.133v-4h-14.001v10h8.001v4zm20.87 2h-22.87v-4h-8v-14h18v4h12.87l-4.667 7 4.667 7z"/><path fill="#42494E" d="M123.995 91.582h1.999v-14h-1.999zM54.997 118.928v9.655h9v-2h-7v-6.346l25.334-11.084h-4.99l-22.344 9.775"/><path fill="#42494E" d="M130.398 90.666l-.192-.084h-10.418l-17.12 7.49v2.184l17.538-7.674h9.582l63.209 27.655v6.346h-7v2h9v-9.655l-64.599-28.262"/><path fill="#42494E" d="M121.043 96.582h7.908l59.429 26.001H61.614l30.697-13.43h-4.99l-28.324 12.391v3.039h132v-3.039l-61.628-26.962h-8.744l-17.957 7.857v2.183l18.375-8.04M28.995 211.592c0-.559.45-1 1-1s1 .441 1 1c0 .55-.45 1-1 1s-1-.45-1-1zm4 0c0-.559.45-1 1-1s1 .441 1 1c0 .55-.45 1-1 1s-1-.45-1-1zm4 0c0-.559.45-1 1-1s1 .441 1 1c0 .55-.45 1-1 1s-1-.45-1-1zm4 0c0-.559.45-1 1-1s1 .441 1 1c0 .55-.45 1-1 1s-1-.45-1-1zm4 0c0-.559.45-1 1-1s1 .441 1 1c0 .55-.45 1-1 1s-1-.45-1-1zm4 0c0-.559.45-1 1-1s1 .441 1 1c0 .55-.45 1-1 1s-1-.45-1-1zm4 0c0-.559.45-1 1-1s1 .441 1 1c0 .55-.45 1-1 1s-1-.45-1-1zm4 0c0-.559.45-1 1-1s1 .441 1 1c0 .55-.45 1-1 1s-1-.45-1-1zm4 0c0-.559.45-1 1-1s1 .441 1 1c0 .55-.45 1-1 1s-1-.45-1-1zm4 0c0-.559.45-1 1-1s1 .441 1 1c0 .55-.45 1-1 1s-1-.45-1-1zm4 0c0-.559.45-1 1-1s1 .441 1 1c0 .55-.45 1-1 1s-1-.45-1-1zm4 0c0-.559.45-1 1-1s1 .441 1 1c0 .55-.45 1-1 1s-1-.45-1-1zm4 0c0-.559.45-1 1-1s1 .441 1 1c0 .55-.45 1-1 1s-1-.45-1-1zm4 0c0-.559.45-1 1-1s1 .441 1 1c0 .55-.45 1-1 1s-1-.45-1-1zm4 0c0-.559.45-1 1-1s1 .441 1 1c0 .55-.45 1-1 1s-1-.45-1-1zm77.999 0c0-.559.451-1 1-1 .55 0 1 .441 1 1 0 .55-.45 1-1 1-.549 0-1-.45-1-1zm4 0c0-.559.451-1 1-1a.99.99 0 0 1 1 1c0 .55-.439 1-1 1-.549 0-1-.45-1-1zm4 0c0-.559.451-1 1-1 .55 0 1 .441 1 1 0 .55-.45 1-1 1-.549 0-1-.45-1-1zm4 0c0-.559.451-1 1-1a.99.99 0 0 1 1 1c0 .55-.439 1-1 1-.549 0-1-.45-1-1zm4 0c0-.559.451-1 1-1 .55 0 1 .441 1 1 0 .55-.45 1-1 1-.549 0-1-.45-1-1zm4 0c0-.559.451-1 1-1a.99.99 0 0 1 1 1c0 .55-.439 1-1 1-.549 0-1-.45-1-1zm4 0c0-.559.451-1 1-1 .55 0 1 .441 1 1 0 .55-.45 1-1 1-.549 0-1-.45-1-1zm4 0c0-.559.451-1 1-1a.99.99 0 0 1 1 1c0 .55-.439 1-1 1-.549 0-1-.45-1-1zm4 0c0-.559.451-1 1-1 .55 0 1 .441 1 1 0 .55-.45 1-1 1-.549 0-1-.45-1-1zm4 0c0-.559.451-1 1-1a.99.99 0 0 1 1 1c0 .55-.439 1-1 1-.549 0-1-.45-1-1zm4 0c0-.559.451-1 1-1 .55 0 1 .441 1 1 0 .55-.45 1-1 1-.549 0-1-.45-1-1zm4 0c0-.559.451-1 1-1a.99.99 0 0 1 1 1c0 .55-.439 1-1 1-.549 0-1-.45-1-1zm4 0c0-.559.451-1 1-1 .55 0 1 .441 1 1 0 .55-.45 1-1 1-.549 0-1-.45-1-1zm4 0c0-.559.451-1 1-1a.99.99 0 0 1 1 1c0 .55-.439 1-1 1-.549 0-1-.45-1-1zm4 0c0-.559.451-1 1-1 .55 0 1 .441 1 1 0 .55-.45 1-1 1-.549 0-1-.45-1-1zm-19.737-52.943c-5.923 0-10.741 4.818-10.741 10.74 0 5.923 4.818 10.741 10.741 10.741s10.741-4.818 10.741-10.74c0-5.923-4.818-10.741-10.741-10.741zm0 23.481c-7.025 0-12.741-5.715-12.741-12.741 0-7.025 5.716-12.74 12.741-12.74 7.025 0 12.741 5.716 12.741 12.741 0 7.026-5.716 12.74-12.741 12.74z"/><path fill="#42494E" d="M199.256 158.649c-2.885 0-5.322 4.918-5.322 10.74s2.437 10.741 5.322 10.741c2.885 0 5.322-4.918 5.322-10.74s-2.437-10.741-5.322-10.741zm0 23.481c-4.105 0-7.322-5.596-7.322-12.741 0-7.144 3.217-12.74 7.322-12.74 4.106 0 7.322 5.597 7.322 12.741 0 7.145-3.216 12.74-7.322 12.74z"/><path fill="#42494E" d="M210.998 170.39l-23.482-.001v-2l23.482.001v2M98.668 88.07v2h3v18.083H69.584V90.07h3v-2h-5v22.083h36.084V88.07h-5"/><path fill="#42494E" d="M73.584 104.153h10.649l1.432 1.562 1.594-1.562h10.409V86.07h-9.593l-2.463 2.414-2.365-2.414h-9.663v18.083zm12.004 4.437l-2.235-2.437H71.584V84.07h12.504l1.553 1.586 1.618-1.586h12.409v22.083H88.075l-2.487 2.437z"/><path fill="#FFFFFE" d="M75.48 89.153h6.125"/><path fill="#42494E" d="M75.48 90.153h6.125v-2H75.48z"/><path fill="#FFFFFE" d="M75.48 93.153h6.125"/><path fill="#42494E" d="M75.48 94.153h6.125v-2H75.48z"/><path fill="#FFFFFE" d="M75.48 97.153h6.125"/><path fill="#42494E" d="M75.48 98.153h6.125v-2H75.48z"/><path fill="#FFFFFE" d="M89.48 89.153h6.125"/><path fill="#42494E" d="M89.48 90.153h6.125v-2H89.48z"/><path fill="#FFFFFE" d="M89.48 93.153h6.125"/><path fill="#42494E" d="M89.48 94.153h6.125v-2H89.48z"/><path fill="#FFFFFE" d="M89.48 97.153h6.125"/><path fill="#42494E" d="M89.48 98.153h6.125v-2H89.48z"/><path fill="#FFFFFE" d="M85.626 90.34v9.813"/><path fill="#42494E" d="M84.626 100.153h2V90.34h-2z"/><path fill="#FFFFFE" d="M75.48 101.153h6.125"/><path fill="#42494E" d="M75.48 102.153h6.125v-2H75.48z"/><path fill="#FFFFFE" d="M89.48 101.153h6.125"/><path fill="#42494E" d="M89.48 102.153h6.125v-2H89.48z"/><path fill="#75C7D0" d="M220.005 88.264h-5.778c-1.098-3.622-4.394-6.285-8.341-6.42.113-.707.175-1.432.175-2.171 0-7.435-5.982-13.469-13.395-13.561h-.171c-6.715.083-12.255 5.042-13.239 11.501a14.248 14.248 0 0 0-8.558 6.25 14.166 14.166 0 0 0-1.795 4.401h-6.898"/><path fill="#42494E" d="M189.559 79.872c-3.358-1.948-7.58-2.295-11.206-.937l-.701-1.873c4.182-1.564 9.041-1.166 12.911 1.079l-1.004 1.731"/><path fill="#42494E" d="M220.005 89.263h-6.52l-.215-.71a8.042 8.042 0 0 0-7.418-5.71l-1.133-.038.18-1.119c.107-.672.162-1.349.162-2.013 0-6.842-5.566-12.476-12.407-12.561h-.16a12.506 12.506 0 0 0-12.25 10.651l-.099.656-.643.163a13.17 13.17 0 0 0-7.956 5.812 13.143 13.143 0 0 0-1.668 4.09l-.177.779h-7.696a1 1 0 1 1 0-2h6.119a15.15 15.15 0 0 1 10.256-10.445c1.331-6.737 7.161-11.62 14.102-11.706h.184c7.943.098 14.395 6.631 14.395 14.561 0 .419-.019.843-.056 1.268a10.043 10.043 0 0 1 7.935 6.322h5.065a1 1 0 1 1 0 2"/><path fill="#75C7D0" d="M94.556 51.678h3.62a5.03 5.03 0 0 1 4.833-4.53 7.535 7.535 0 0 1 7.344-8.741h.096a7.54 7.54 0 0 1 7.355 6.39 7.922 7.922 0 0 1 5.659 5.501c.127.445.215.906.261 1.38h3.522"/><path fill="#42494E" d="M127.246 52.678h-3.522a1 1 0 0 1-.995-.902 6.797 6.797 0 0 0-.228-1.205 6.92 6.92 0 0 0-4.943-4.804 1.003 1.003 0 0 1-.743-.819 6.506 6.506 0 0 0-6.379-5.54c-3.629.044-6.524 2.974-6.524 6.534 0 .348.028.699.084 1.047a.998.998 0 0 1-.953 1.158 4.038 4.038 0 0 0-3.872 3.629 1 1 0 0 1-.996.902h-3.619a1 1 0 1 1 0-2h2.783a6.058 6.058 0 0 1 4.58-4.399 7.577 7.577 0 0 1-.007-.337c0-4.649 3.781-8.477 8.429-8.534h.107a8.502 8.502 0 0 1 8.223 6.602 8.926 8.926 0 0 1 5.913 6.668h2.662a1 1 0 1 1 0 2"/><path fill="#75C7D0" d="M44.526 73.691h3.62a5.03 5.03 0 0 1 4.833-4.53 7.535 7.535 0 0 1 7.344-8.74h.096a7.537 7.537 0 0 1 7.355 6.389 7.922 7.922 0 0 1 5.921 6.881h3.521"/><path fill="#42494E" d="M77.216 74.691h-3.521a.999.999 0 0 1-.995-.901 6.919 6.919 0 0 0-5.172-6.01c-.39-.1-.683-.422-.743-.82a6.508 6.508 0 0 0-6.379-5.54c-3.629.044-6.524 2.975-6.524 6.535 0 .345.028.698.084 1.047a1.002 1.002 0 0 1-.953 1.158 4.04 4.04 0 0 0-3.872 3.629 1 1 0 0 1-.995.902h-3.62a1 1 0 1 1 0-2h2.783a6.064 6.064 0 0 1 4.579-4.4 9.413 9.413 0 0 1-.006-.336c0-4.649 3.781-8.477 8.429-8.535h.108a8.503 8.503 0 0 1 8.222 6.603 8.932 8.932 0 0 1 5.913 6.668h2.662a1 1 0 1 1 0 2"/></g></svg>