<?xml version="1.0" encoding="utf-8"?><svg xmlns="http://www.w3.org/2000/svg" xmlns:xlink="http://www.w3.org/1999/xlink" width="193" height="173" viewBox="0 0 193 173"><defs><path id="hwa" d="M.971.001h62V34.94h-62z"/></defs><g fill="none" fill-rule="evenodd"><path fill="#F58E70" d="M153.997 63.966V3.846L79.72 3.837c-2.761 0-4.725 1.602-4.725 3.04v57.996a15.022 15.022 0 0 1 4.726-.916l74.276.009"/><path fill="#F58E70" d="M106.325 81.962h-26.55c-5.892 0-10.686-4.036-10.686-9.02l-.205-44.98h-45.72l17.482 30-17.483 30h83.162c2.762 0 4.686-1.562 4.686-3s-1.924-3-4.686-3"/><path fill="#48515A" d="M72.995 8.066v60.677a9.558 9.558 0 0 1 6.773-2.63l76.23.041V2.035l-76.23-.009c-3.71 0-6.729 2.261-6.729 5.04l-.044 1zM19.688 89.962h86.637c3.749 0 6.686-2.138 6.686-4.868 0-2.85-2.999-5.132-6.685-5.132H79.775c-4.72 0-8.45-2.851-8.675-6.554a.998.998 0 0 1-.105-.446v-47H19.688l18.645 32-18.645 32zm86.637 2H16.208l19.81-34-19.809-34h54.786V6.066h.132c.603-3.41 4.249-6.04 8.641-6.04l78.23.009v68.12l-78.23-.042c-3.668 0-6.655 2.228-6.679 4.974.024 2.736 2.952 4.875 6.686 4.875h26.551c4.789 0 8.685 3.179 8.685 7.086 0 3.897-3.815 6.914-8.686 6.914z"/><path fill="#48515A" d="M156.998 100.962c-.553 0-1-.447-1-.999V66.962a1 1 0 1 1 2 0v33a1 1 0 0 1-1 1m-5 0a.998.998 0 0 1-1-.999V67.962a1 1 0 1 1 2 0v32.001a1 1 0 0 1-1 .999"/><path fill="#48515A" d="M135.025 121.995h-1v-1a1.053 1.053 0 0 1 1.229-1.004 6.806 6.806 0 0 0 6.442-4.928l2.08-7.101h14.451c3.128 0 5.772-2.952 5.774-6.447l-25.023.124a2.815 2.815 0 0 0-2.379 1.353l-5.027 7.659-7.502.16h-.022a1 1 0 0 1-.021-2l6.451-.138 4.449-6.778a4.822 4.822 0 0 1 4.041-2.256l27.033-.134v2.004c0 4.582-3.56 8.453-7.774 8.453h-12.953l-1.656 5.654a8.799 8.799 0 0 1-8.593 6.379"/><path fill="#475059" d="M153.001 133.962a3 3 0 0 0 0 6h8a3 3 0 1 0 0-6h-8zm8 8h-8a5 5 0 0 1 0-10h8a5 5 0 1 1 0 10z"/><path fill="#475059" d="M153.001 125.962a3 3 0 0 0 0 6h12a3 3 0 1 0 0-6h-12zm12 8h-12a5 5 0 0 1 0-10h12a5 5 0 1 1 0 10z"/><path fill="#475059" d="M153.001 117.962a3 3 0 0 0 0 6h12a3 3 0 1 0 0-6h-12zm12 8h-12a5 5 0 0 1 0-10h12a5 5 0 1 1 0 10z"/><path fill="#475059" d="M153.001 109.962a3 3 0 0 0 0 6h12a3 3 0 1 0 0-6h-12zm12 8h-12a5 5 0 0 1 0-10h12a5 5 0 1 1 0 10zm-12 24h-13.48a8.383 8.383 0 0 1-3.496-.786v.241l-1.599-1.177a6.46 6.46 0 0 0-3.898-1.278h-6.527v-2h6.527a8.547 8.547 0 0 1 3.497.736v-.255l1.599 1.178a6.575 6.575 0 0 0 3.897 1.341h13.48v2"/><path fill="#48515A" d="M6 102.962h2v-4H6zM6 112.962h2v-4H6zM10 106.962h4v-2h-4zM0 106.962h4v-2H0zM184 132.962h2v-4h-2zM184 142.962h2v-4h-2zM188 136.962h4v-2h-4zM178 136.962h4v-2h-4z"/><path fill="#DEDEDD" d="M61.295 135h-6.626a14.938 14.938 0 0 1-3.643 13.104A6 6 0 0 1 55.162 151h5.618a6 6 0 0 1 4.155-2.9 14.934 14.934 0 0 1-3.64-13.1m13.531 17.942l2.795 13.285a3.739 3.739 0 0 0 7.35-.966l.001-15.274a14.902 14.902 0 0 1-8.979 3.014c-.394 0-.781-.03-1.167-.059m1.167-5.941a9.004 9.004 0 0 0 8.98-8.615v-.086c.004-.111.01-.22.018-.331a8.934 8.934 0 0 0-.602-3.183c-.038-.099-.069-.201-.112-.3-.021-.05-.048-.097-.071-.147a9.074 9.074 0 0 0-2.001-2.827l-.16-.153a8.95 8.95 0 0 0-9.492-1.672l-.008.003a9.055 9.055 0 0 0-1.288.672 9.053 9.053 0 0 0-2.835 2.8l-.101.157a8.981 8.981 0 0 0 7.672 13.682m-31.286-16.639a8.933 8.933 0 0 0-1.289-.672l-.007-.003a8.95 8.95 0 0 0-9.538 1.714l-.129.124a8.946 8.946 0 0 0-2.59 4.665c-.043.212-.07.428-.098.645-.011.084-.03.165-.038.249a9 9 0 1 0 17.953.917 8.927 8.927 0 0 0-1.328-4.682l-.101-.157a9.053 9.053 0 0 0-2.835-2.8m-13.736 19.61v15.289a3.739 3.739 0 0 0 7.359.929l2.808-13.248c-.386.029-.773.059-1.167.059a14.902 14.902 0 0 1-9-3.029"/><path fill="#48515A" d="M33.938 138.962h12v-2h-12z"/><path fill="#48515A" d="M38.94 143.961h2v-11.998h-2z"/><path fill="#48515A" d="M39.971 127.001c-6.075 0-11 4.925-11 11s4.925 11 11 11 11-4.925 11-11c-.007-6.072-4.928-10.993-11-11zm0 24c-7.18 0-13-5.82-13-13s5.82-13 13-13 13 5.82 13 13c-.008 7.176-5.823 12.992-13 13zm36.022-24c-6.076 0-11 4.925-11 11s4.924 11 11 11c6.075 0 11-4.925 11-11-.007-6.072-4.928-10.993-11-11zm0 24c-7.18 0-13-5.82-13-13s5.82-13 13-13c7.179 0 13 5.82 13 13-.008 7.176-5.824 12.992-13 13z"/><path fill="#48515A" d="M50.804 133h14.667v-2H50.804zM49.971 149a5 5 0 1 0 0 10 5 5 0 0 0 0-10zm0 12a7 7 0 1 1 7-7 7.008 7.008 0 0 1-7 7z"/><g transform="translate(26 138)"><mask id="hwb" fill="#fff"><use xlink:href="#hwa"/></mask><path fill="#48515A" d="M39.971 11a5 5 0 1 0 0 10 5 5 0 0 0 0-10zm0 12a7 7 0 1 1 7-7 7.008 7.008 0 0 1-7 7zM8.71 35a7.748 7.748 0 0 1-7.739-7.739V.001h2v27.26a5.74 5.74 0 0 0 11.306 1.392l2.725-12.861 1.956.415-2.733 12.896A7.737 7.737 0 0 1 8.71 35" mask="url(#hwb)"/><path fill="#48515A" d="M55.232 35a7.726 7.726 0 0 1-7.507-5.862l-2.721-12.933 1.957-.411 2.712 12.896a5.74 5.74 0 1 0 11.298-1.429V.001h2v27.26A7.748 7.748 0 0 1 55.232 35" mask="url(#hwb)"/></g><path fill="#48515A" d="M32.971 129h-2v-5.414L33.557 121h8.829l2.585 2.585v2.414h-2v-1.585L41.557 123h-7.172l-1.414 1.414V129M84.971 128.999h-2v-4.585L81.557 123h-7.172l-1.414 1.414v1.585h-2v-2.413L73.557 121h8.829l2.585 2.585v5.414M55.971 155h4v-2h-4zM73.001 138.015a1 1 0 1 0-.002 1.998 1 1 0 0 0 .002-1.998zm0 4a3 3 0 1 1 0-6 3 3 0 0 1 0 6zm6-8a1 1 0 1 0-.002 1.998 1 1 0 0 0 .002-1.998zm0 4a3 3 0 1 1 0-6 3 3 0 0 1 0 6zM56.001 147.015h4v-2h-4zM31.055999999999997 136.835c.028-.217.055-.433.098-.645-.043.212-.07.429-.098.645m53.15-2.496c.023.05.05.097.071.147-.021-.05-.048-.097-.071-.147m.785 3.627a8.785 8.785 0 0 0-.602-3.18 8.934 8.934 0 0 1 .602 3.183v-.003M113.011 84.962h2v-18h-2z"/><path fill="#48515A" d="M125.001 142.962H90.988v-2h32.013v-34l-69.99.014a2 2 0 0 0 0 4h14a4 4 0 0 1 0 8h-14a2 2 0 0 0 0 4h2a4.004 4.004 0 0 1 4 4v5h-2v-5a2.002 2.002 0 0 0-2-2h-2a4 4 0 0 1 0-8h14a2 2 0 0 0 0-4h-14a4 4 0 0 1 0-8l71.99-.014v38"/><path fill="#DEDEDD" d="M135.7 154.219l-28-12 12.228 29.61 4.833-9.721 8.111 8.111 2.828-2.828-8.232-8.233 8.232-4.939"/><path fill="#FFF" d="M125.694 142.212l-28-12 12.228 29.61 4.833-9.721 8.111 8.111 2.828-2.829-8.232-8.232 8.232-4.939"/><path fill="#48515A" d="M99.554 132.097l10.451 25.309 4.473-8.995 8.388 8.387 1.414-1.415-8.432-8.431 7.654-4.591-23.948-10.264zm10.283 30.14l-14.003-33.91 32.051 13.736-8.811 5.287 8.034 8.033-4.242 4.243-7.835-7.834-5.194 10.445z"/><path fill="#5FE0ED" d="M176.769 87.708a4 4 0 1 1 0 8 4 4 0 0 1 0-8M15.672 129.732a2 2 0 1 1 .001 3.999 2 2 0 0 1-.001-3.999m150.09 30.018a2 2 0 1 1 .001 3.999 2 2 0 0 1-.001-3.999"/><path fill="#FFD15D" d="M12.011 143.976a4 4 0 1 1 0 8 4 4 0 0 1 0-8"/><path fill="#FFD15D" d="M12.011 153.976a6 6 0 1 1 6-6 6.007 6.007 0 0 1-6 6zm0-14a8 8 0 1 0 0 16 8 8 0 0 0 0-16zm118-62a4 4 0 1 1 0 8 4 4 0 0 1 0-8"/><path fill="#FFD15D" d="M130.011 87.976a6 6 0 1 1 6-6 6.007 6.007 0 0 1-6 6zm0-14a8 8 0 1 0 0 16 8 8 0 0 0 8-8 8 8 0 0 0-8-8zM168.011 34.335l3 2.924-.708 4.129 3.708-1.949 3.708 1.949-.708-4.129 3-2.924-4.146-.603-1.854-3.756-1.854 3.756z"/></g></svg>