<?xml version="1.0" encoding="utf-8"?><svg xmlns="http://www.w3.org/2000/svg" width="250" height="250" viewBox="0 0 250 250"><g fill="none" fill-rule="evenodd"><path fill="#DEDEDD" d="M180.806 143.232c2.88-.521 5.848.122 8.253 1.789.183.135.361.273.534.417l-7.064 5-32.654 15.374s-15.97.034-15.75-.027c1.389-.39 45.262-22.321 46.681-22.553M59 200.794v.002a1.882 1.882 0 0 1-1.989 1.989h-.002l-7.009.163v-14.174l7.059.007a2.156 2.156 0 0 1 1.528.639c.384.411.583.961.552 1.522L59 200.794"/><path fill="#48515A" d="M83.059 199.785H62v-2h20.867l77.127-14.947 43.531-26.697c-5.757-5.16-12.763-6.11-18.955-2.5l-27.261 13.144h-46.775v-2h18.316c7.617.2 14.058-5.598 14.655-13.195l-48.631.195a15.972 15.972 0 0 0-11.219 4.659l-20.834 20.814-1.413-1.415 20.833-20.814a17.987 17.987 0 0 1 12.629-5.244l50.67-.203v1.004a15.967 15.967 0 0 1-8.535 14.199h19.847l26.78-12.909c7.292-4.254 15.631-2.875 22.234 3.729l.896.896-46.032 28.232-.177.035-77.494 15.017"/><path fill="#48515A" d="M143.144 159.33l-.92-1.776 31.303-16.217a25.191 25.191 0 0 1 6.636-2.052 15.042 15.042 0 0 1 11.255 2.506 14.31 14.31 0 0 1 3.471 3.608l.549.823-10.808 7.381-1.127-1.652 9.14-6.241a12.415 12.415 0 0 0-2.405-2.304 13.048 13.048 0 0 0-9.754-2.148 23.211 23.211 0 0 0-6.074 1.873l-31.266 16.199M48 204.982l8.997.009H57a4.171 4.171 0 0 0 4.173-4.157v-.001l.056-30.978a4.173 4.173 0 0 0-4.168-4.164L48 165.682v39.3zm9 2.009h-.005L46 206.98v-43.3l11.062.011a6.174 6.174 0 0 1 6.167 6.167l-.056 30.979A6.174 6.174 0 0 1 57 206.991z"/><path fill="#DEDEDD" d="M110.534 161.785h23.443a10.443 10.443 0 0 0 7.203-8h-4.792c-2.095 2-4.69 2-7.538 2h-12.316a6 6 0 0 0-6 6m83.523-8l-34.798 20.208-76.584 14.792h-17.48l-.013 7h17.493l76.584-14.78L200 156.065c-2.419-1.571-3.344-2.281-5.943-2.28"/><path fill="#48515A" d="M63.002 138.989h2v-4h-2zM63.002 148.989h2v-4h-2zM67.002 142.989h4v-2h-4zM57.002 142.989h4v-2h-4zM34.985 91.453h2v-4h-2zM34.985 101.453h2v-4h-2zM38.985 95.453h4v-2h-4zM28.985 95.453h4v-2h-4z"/><path fill="#FFD15D" d="M197.744 121.739a3 3 0 1 1 0 6 3 3 0 0 1 0-6"/><path fill="#5FE0ED" d="M101 44.951v17.887h75.567a4.778 4.778 0 0 1 4.778 4.777v35.376l23.655.001V44.951H101"/><path fill="#48515A" d="M188.336 98.992H185v-2h1.373c.322-6.798 5.825-12.201 12.627-12.399V63.835a13.4 13.4 0 0 1-12.631-12.844H118.96c-.532 7.33-6.686 12.975-14.035 12.874l-.01-2c6.567.104 11.974-5.134 12.079-11.701l.001-.173v-1l71.342-.001v1c-.202 6.356 4.787 11.672 11.143 11.874.173.005.347.007.52.005h1l.001 24.694h-1c-6.742 0-11.647 4.808-11.663 11.432l-.002.997M201 54.992h-2v-4h-4v-2h6v6M201 98.991h-6v-2h4v-3.999h2v5.999M107 54.992h-2v-6h6v2h-4v4"/><path fill="#DEDEDD" d="M80.811 121.213V68.657a4.777 4.777 0 0 1 4.777-4.778h-4.777a4.778 4.778 0 0 0-4.778 4.778v52.556a4.778 4.778 0 0 0 4.778 4.778h4.777a4.778 4.778 0 0 1-4.777-4.778m48.972-26.278c6.596 0 11.944 5.348 11.944 11.945s-5.348 11.944-11.944 11.944c-6.597 0-11.945-5.347-11.945-11.944s5.348-11.945 11.945-11.945m47.778-31.056h-36.435c-6.584 21.454 5.47 44.184 26.924 50.768a40.639 40.639 0 0 0 11.9 1.788c.802 0 1.598-.029 2.389-.075V68.657a4.778 4.778 0 0 0-4.778-4.778"/><path fill="#48515A" d="M86.782 64.879a3.784 3.784 0 0 0-3.778 3.778v52.556a3.783 3.783 0 0 0 3.778 3.778h90.434a3.781 3.781 0 0 0 3.778-3.778s.003-47.339.005-52.558a3.774 3.774 0 0 0-3.773-3.776H86.782zm90.434 62.112H86.782a5.785 5.785 0 0 1-5.778-5.778V68.657a5.786 5.786 0 0 1 5.778-5.778h90.44a5.775 5.775 0 0 1 5.777 5.772v.005c-.002 5.216-.005 52.494-.005 52.557a5.783 5.783 0 0 1-5.778 5.778z"/><path fill="#FFD15D" d="M93 80.992h14a2 2 0 0 1 2 2v9.943a2 2 0 0 1-2 2H93a2 2 0 0 1-2-2v-9.943a2 2 0 0 1 2-2"/><path fill="#48515A" d="M91.56 105.491h14.334v-2H91.56zM110.671 105.491h14.334v-2h-14.334zM129.783 105.491h14.333v-2h-14.333zM148.894 105.491h14.333v-2h-14.333zM91.56 115.046h21.5v-2h-21.5zM117.838 115.046h9.556v-2h-9.556zM79.623 126.991h-4.786a5.783 5.783 0 0 1-5.777-5.778V68.657a5.784 5.784 0 0 1 5.777-5.778h4.786v2h-4.786a3.782 3.782 0 0 0-3.777 3.778v52.556a3.781 3.781 0 0 0 3.777 3.778h4.786v2M213.025 113.014h2v-4h-2zM213.025 123.014h2v-4h-2zM217.025 117.014h4v-2h-4zM207.025 117.014h4v-2h-4z"/><path fill="#FFD15D" d="M58.661 50.697a4 4 0 1 1 0 8 4 4 0 0 1 0-8m38.023 83.049a2 2 0 1 1 0 4 2 2 0 0 1 0-4"/></g></svg>