<?xml version="1.0" encoding="utf-8"?><svg xmlns="http://www.w3.org/2000/svg" width="250" height="250" viewBox="0 0 250 250"><g fill="none" fill-rule="evenodd"><path fill="#DBDBD5" d="M158.034 142.013l-2.829 2.828-8.111-8.111-4.833 9.721-7.248-17.553-2.758 5.545-12.227-29.609 28 12-7.505 4.502 17.511 7.505-8.232 4.939 8.232 8.233zm28.414-13.452c-1.248-1.798-15.74-22.605-25.412-32.624l-3.247 5.054-11.683-21.419 21.376 5.262-3.37 5.661c10.737 10.533 18.127 20.316 22.607 26.989-2.071-32.368-28.965-57.984-61.856-57.984-34.242 0-62 27.758-62 62 0 31.15 22.975 56.928 52.903 61.329a8.945 8.945 0 0 1 9.425.663 63.584 63.584 0 0 0 3.394-.113c10.457-6.556 20.873-14.727 30.705-24.218l-5.054-3.246 21.419-11.683-4.573 18.58c8.332-9.316 13.88-21.166 15.366-34.251z"/><path fill="#DBDBD5" d="M164.731 162.238c-6.985 6.854-14.285 13.073-21.71 18.554 10.031-3.069 18.975-8.615 26.132-15.923l-4.422-2.631"/><path fill="#AEAEA8" d="M140.523 121.336l-.728.437 8.233 8.232-2.829 2.829-8.111-8.111-2.075 4.175 7.248 17.553 4.833-9.721 8.111 8.111 2.829-2.828-8.232-8.233 8.232-4.939-17.511-7.505"/><path fill="#434A4F" d="M140.884 58.503c28.118 7.154 48.979 32.683 48.979 62.997 0 .523-.028 1.04-.04 1.56a396.676 396.676 0 0 1 1.89 2.695c.089-1.408.15-2.824.15-4.255 0-36.945-30.056-67-67-67 .306 0 .609.032.912.065 5.285.268 10.364 1.628 15.109 3.938M124.863 54.5c-.192 0-.381.013-.573.014.084.001.166.007.25.009.108-.004.214-.023.323-.023m-20.59 128.638c-25.776-8.634-44.41-32.993-44.41-61.638 0-28.645 18.634-53.005 44.41-61.638 5.164-2.958 10.772-4.777 16.648-5.237C85.806 56.674 57.863 85.88 57.863 121.5c0 32.441 23.177 59.563 53.84 65.695a9.44 9.44 0 0 1 .297-.616 41.521 41.521 0 0 1-7.727-3.441m32.106 2.32a175.362 175.362 0 0 1-3.991 2.608c28.515-3.203 51.657-24.368 57.835-51.886a453.17 453.17 0 0 1-1.448-2.909c-4.871 26.502-25.858 47.42-52.396 52.187"/><path fill="#434A4F" d="M167.322 93.941a168.892 168.892 0 0 1 3.284 3.806 78.075 78.075 0 0 0-4.123-11.235l-1.246 2.093a75.364 75.364 0 0 1 2.085 5.336m-54.127 90.921c-21.347-6.589-37.332-32.487-37.332-63.362 0-33.461 18.77-61.089 42.799-64.612.039-.031.077-.064.116-.094a64.42 64.42 0 0 0-14.505 3.068c-17.861 10.231-30.41 34.005-30.41 61.638 0 27.632 12.549 51.407 30.41 61.638a64.53 64.53 0 0 0 8.518 2.22c.129-.17.263-.336.404-.496m58.668-63.362c0 7.409-.914 14.678-2.718 21.603-.139.535.182 1.08.716 1.22a1.007 1.007 0 0 0 1.22-.716c1.845-7.09 2.782-14.528 2.782-22.107 0-3.78-.247-7.482-.698-11.093a336.372 336.372 0 0 0-2.482-3.181 87.164 87.164 0 0 1 1.18 14.274m-48-67c-.988 0-1.967.049-2.942.125a68.338 68.338 0 0 1 3.369-.111c-.143-.001-.284-.014-.427-.014m1.729 2.059c-.243-.027-.485-.059-.729-.059-.1 0-.198.019-.297.024.343.007.685.019 1.026.035m6.068.812c12.819 2.849 23.938 12.597 31.214 26.328l2.565.632c-5.88-11.771-14.464-20.918-24.555-25.828a64.568 64.568 0 0 0-9.936-1.709c.239.184.477.372.712.577"/><path fill="#434A4F" d="M140.884 58.503c-4.745-2.31-9.824-3.67-15.109-3.938 1.789.194 3.52.956 5.173 2.229 3.393.317 6.713.888 9.936 1.709m-36.611 124.635a41.521 41.521 0 0 0 7.727 3.441c.229-.43.497-.836.791-1.221a64.53 64.53 0 0 1-8.518-2.22m14.505-126.344c1.833-1.413 3.763-2.195 5.762-2.271-.084-.002-.166-.008-.25-.009-1.13.01-2.253.046-3.369.111-5.876.46-11.484 2.279-16.648 5.237a64.42 64.42 0 0 1 14.505-3.068M68.863 94.5h6a1 1 0 1 0 0-2h-6a1 1 0 1 0 0 2m16 0h16a1 1 0 1 0 0-2h-16a1 1 0 1 0 0 2m96-2h-8a1 1 0 1 0 0 2h8a1 1 0 1 0 0-2m-106 56h-6a1 1 0 1 0 0 2h6a1 1 0 1 0 0-2m26 0h-18a1 1 0 1 0 0 2h18a1 1 0 1 0 0-2m8-54h32a1 1 0 1 0 0-2h-32a1 1 0 1 0 0 2m32 54h-32a1 1 0 1 0 0 2h32a1 1 0 1 0 0-2m40 0h-3.998a1 1 0 1 0 0 2h3.998a1 1 0 1 0 0-2"/><path fill="#434A4F" d="M145.744 114.767l2.029.87c-.796-27.969-7.247-50.543-16.113-58.266a36 36 0 0 0-6.068-.812c10.333 1.158 19.049 26.736 20.152 58.208m.092 2.215l-.033-.014.001.034.032-.02m.027 4.518c0 1.633-.028 3.25-.068 4.858l1.955 1.954a206.065 206.065 0 0 0 .084-10.196l-1.99 1.194c.009.729.019 1.456.019 2.19m-44 0c0 27.854 5.555 51.22 13.684 61.45a8.908 8.908 0 0 1 1.915-.801c-7.858-9.492-13.599-33.432-13.599-60.649 0-34.926 9.451-64.463 20.703-64.976-.093-.002-.185-.008-.278-.01-1.09.01-2.173.045-3.248.107-.798.063-1.591.151-2.378.267-9.791 7.703-16.799 33.326-16.799 64.612m32.063 58.392c1.307-.89 2.61-1.807 3.912-2.746 5.175-10.138 8.793-26.294 9.764-45.301l-2.15 2.151c-1.318 19.999-5.712 37.013-11.526 45.896m12.688-49.887l-.907-.907c-.025.633-.049 1.267-.081 1.895l.988-.988"/><path fill="#434A4F" d="M123.863 56.5c-.949 0-1.889.048-2.823.121a67.107 67.107 0 0 1 3.248-.107c-.142-.001-.283-.014-.425-.014m1.912-1.935a8.417 8.417 0 0 0-.912-.065c-.109 0-.215.019-.323.023.413.007.825.021 1.235.042m-.912 1.935c.244 0 .486.032.729.059a36 36 0 0 1 6.068.812 14.867 14.867 0 0 0-.712-.577 65.456 65.456 0 0 0-6.085-.294m0 0c-.193 0-.383.013-.575.014.093.002.185.008.278.01.099-.005.197-.024.297-.024m-3.823.121c-.758.045-1.512.103-2.262.173-.039.03-.077.063-.116.094.787-.116 1.58-.204 2.378-.267"/><path fill="#434A4F" d="M123.863 56.5c.142 0 .283.013.425.014.192-.001.382-.014.575-.014 2.053 0 4.08.107 6.085.294-1.653-1.273-3.384-2.035-5.173-2.229-.41-.021-.822-.035-1.235-.042-1.999.076-3.929.858-5.762 2.271.75-.07 1.504-.128 2.262-.173a36.185 36.185 0 0 1 2.823-.121m36.998 92h-11.998a1 1 0 1 0 0 2h11.998a1 1 0 1 0 0-2m-11.998-56a1 1 0 1 0 0 2h5.386l-1.091-2h-4.295m52.84-39.04c-.201.189-.46.29-.71.29-.26 0-.51-.101-.71-.29l-.002-.002-.04.041c7.189 7.188 9.355 18.782 6.265 33.529l1.957.41c3.196-15.252.928-27.359-6.54-35.063a1.01 1.01 0 0 1-.22 1.085m4.54 36.63c-.09.089-.17.2-.22.32a.967.967 0 0 0-.07.38.989.989 0 0 0 1 1 1.007 1.007 0 0 0 1-1c0-.13-.031-.26-.08-.38a.878.878 0 0 0-.22-.32c-.37-.38-1.05-.38-1.41 0M58.552 142.42a.992.992 0 0 0 .321-1.63c-.041-.04-.09-.09-.151-.12a.525.525 0 0 0-.17-.09.956.956 0 0 0-.769 0 .992.992 0 0 0-.321 1.63.992.992 0 0 0 1.09.21m-9.109 26.439c-.04.551.359 1.03.91 1.08h.09c.51 0 .95-.389 1-.909a1.005 1.005 0 0 0-2-.171m3.21-7.79a1.003 1.003 0 0 0-.771-1.189.993.993 0 0 0-1.179.769.995.995 0 0 0 .769 1.191c.07.009.141.019.21.019.461 0 .87-.319.971-.79m-.731 3.961a.987.987 0 0 0-.84-1.131 1 1 0 0 0-1.139.83c-.08.54.29 1.061.84 1.141a1 1 0 0 0 1.139-.84m1.681-7.891c.14-.53-.181-1.08-.71-1.219a.989.989 0 0 0-1.221.7.993.993 0 0 0 .701 1.229c.089.021.179.031.259.031.441 0 .851-.29.971-.741m1.13-3.879a.998.998 0 1 0-1.901-.611 1 1 0 0 0 .651 1.261.986.986 0 0 0 1.25-.65m1.59 38.61a.995.995 0 0 0-1.391-.24.995.995 0 0 0-.239 1.389c.2.281.51.431.819.431.2 0 .401-.061.57-.19a.995.995 0 0 0 .241-1.39m-4.43-10.88a.984.984 0 0 0-1.16-.801.99.99 0 0 0-.801 1.16c.091.481.511.821.981.821.059 0 .12-.01.179-.021a.989.989 0 0 0 .801-1.159m.97 3.84a1.006 1.006 0 0 0-1.26-.65 1 1 0 0 0-.641 1.259.99.99 0 0 0 .951.691c.099 0 .2-.01.299-.04.531-.17.821-.741.651-1.26m3.179-35.41c.18-.521-.08-1.09-.599-1.281a.994.994 0 0 0-1.28.601.996.996 0 0 0 .599 1.279c.111.04.221.061.341.061.399 0 .79-.25.939-.66m.521-3.151c.399 0 .769-.239.93-.63a.997.997 0 0 0-.55-1.299.99.99 0 0 0-1.3.549.988.988 0 0 0 .55 1.3c.12.051.25.08.37.08m-6.33 27.761h.01c.549 0 .99-.44 1-.99 0-.55-.441-1.01-.991-1.01a.99.99 0 0 0-1.009.989c-.01.55.439 1 .99 1.011m2.76 14a.999.999 0 0 0 .439 1.9c.15 0 .301-.031.441-.1.49-.25.7-.84.459-1.34-.249-.5-.839-.7-1.339-.46m-2.531-9.921c.55-.04.96-.519.911-1.069a.99.99 0 0 0-1.071-.92 1 1 0 0 0-.92 1.08c.04.52.481.92 1 .92.021 0 .05-.011.08-.011m8.08 16.551a1.014 1.014 0 0 0-1.099.22c-.181.179-.29.439-.29.71 0 .259.109.509.29.7l.004.003 1.414-1.415a.882.882 0 0 0-.319-.218M182.903 46.01h.099c.51 0 .941-.39.991-.901a1.008 1.008 0 0 0-.901-1.09h-.009a1 1 0 0 0-.18 1.991m-3.901-.18c.55 0 1-.441 1-.99 0-.56-.45-1.01-1-1.01-.549 0-1 .45-1 1 0 .559.451 1 1 1m-3.99.149h.071a.996.996 0 0 0 .919-1.069.989.989 0 0 0-1.07-.92.99.99 0 0 0-.92 1.069c.04.531.481.92 1 .92m-3.979.441c.05 0 .09 0 .139-.01.55-.08.92-.58.851-1.13a1 1 0 0 0-1.13-.85.995.995 0 0 0-.851 1.129c.071.5.5.861.991.861m-3.941.679c.061 0 .13-.009.191-.019h.009c.541-.11.88-.641.781-1.181a1 1 0 1 0-.981 1.2m19.67-.54a.996.996 0 0 0 1.17-.779 1 1 0 1 0-1.96-.391.99.99 0 0 0 .79 1.17m-38.67 6.681c.13 0 .271-.03.401-.08.5-.221.74-.811.519-1.32a.993.993 0 0 0-1.309-.521h-.01c-.511.221-.74.811-.521 1.32.17.371.531.601.92.601m15.101-5.25c.08 0 .16-.011.239-.03h.011c.529-.141.849-.68.72-1.21a1.016 1.016 0 0 0-1.22-.731c-.53.141-.86.691-.721 1.221.12.449.521.75.971.75m34.75 3.18a1.007 1.007 0 0 0 .58-1.821v.01a.987.987 0 0 0-1.391.231.984.984 0 0 0 .231 1.389c.17.13.38.191.58.191m-53.49 3.719a.94.94 0 0 0 .42-.099c.5-.231.719-.83.48-1.33-.23-.5-.83-.71-1.33-.481-.5.241-.721.84-.481 1.33.17.371.531.58.911.58m46.049-7.339c.111.03.21.049.321.049.41 0 .809-.269.95-.689a1.006 1.006 0 0 0-.641-1.261.992.992 0 0 0-1.259.631c-.18.529.11 1.09.629 1.27"/><path fill="#434A4F" d="M201.655 52.085c.093.093.176.195.268.29a1.006 1.006 0 0 0-1.64-.335 1.008 1.008 0 0 0-.002 1.418l1.374-1.373m-7.582-3.075a.97.97 0 0 0 .439.099c.37 0 .721-.199.901-.55.24-.5.04-1.089-.451-1.339a.994.994 0 0 0-1.339.45.993.993 0 0 0 .45 1.34m-34.731.059a.99.99 0 0 0 .95-1.289.983.983 0 0 0-1.24-.66.997.997 0 0 0-.67 1.239c.13.441.531.71.96.71"/><path fill="#434A4F" d="M200.281 53.458l.002.002c.2.189.45.29.71.29.25 0 .509-.101.71-.29a1.01 1.01 0 0 0 .22-1.085c-.092-.095-.175-.197-.268-.29l-1.374 1.373m-49.418-2.378a.995.995 0 0 1 .559-1.3.993.993 0 0 1 .838.064 1.907 1.907 0 0 1 1.598-.871c.254 0 .496.052.718.143a.97.97 0 0 1 .636-.736h-.009a.995.995 0 0 1 1.28.61.996.996 0 0 1-.61 1.27c-.07.025-.138.028-.207.037.06.186.101.38.101.586a1.911 1.911 0 0 1-1.909 1.909c-.78 0-1.451-.472-1.747-1.145a.923.923 0 0 1-.319.063.994.994 0 0 1-.929-.63zm2.995 3.712a3.914 3.914 0 0 0 3.909-3.909 3.914 3.914 0 0 0-3.909-3.91 3.914 3.914 0 0 0-3.909 3.91 3.914 3.914 0 0 0 3.909 3.909z"/><path fill="#434A4F" d="M155.666 50.297c.069-.009.137-.012.207-.037.52-.18.79-.75.61-1.27a.995.995 0 0 0-1.28-.61h.009a.97.97 0 0 0-.636.736c.518.211.915.646 1.09 1.181m-3.555 1.35a1.891 1.891 0 0 1 .149-1.803.993.993 0 0 0-.838-.064.995.995 0 0 0-.559 1.3c.149.39.53.63.929.63a.923.923 0 0 0 .319-.063M55.332 53.53c.39.39.39 1.02 0 1.409l-.003.003.044.044c2.886-2.886 6.505-4.945 10.772-6.196a3.884 3.884 0 0 1-.287-1.453c0-.193.03-.378.057-.564-4.601 1.295-8.513 3.477-11.67 6.54a1 1 0 0 1 1.087.217m18.33-6.053c4.626-.321 9.742.091 15.241 1.244l.41-1.957c-5.806-1.217-11.215-1.631-16.113-1.257.294.549.476 1.165.476 1.83 0 .048-.012.092-.014.14m18.3 1.502a.977.977 0 0 0 1.411 0c.089-.09.169-.199.219-.319a.968.968 0 0 0 .071-.38c0-.27-.1-.52-.29-.711-.371-.369-1.041-.369-1.411 0a1.006 1.006 0 0 0-.299.711.995.995 0 0 0 .299.699m52.121 147.37c-.371-.37-1.05-.37-1.42 0a.924.924 0 0 0-.21.331c-.05.12-.08.25-.08.379 0 .13.03.26.08.38.049.12.12.231.21.33.19.191.44.29.71.29a1.025 1.025 0 0 0 .71-.29c.089-.099.169-.21.219-.33a.968.968 0 0 0 .071-.38.967.967 0 0 0-.071-.379 1.463 1.463 0 0 0-.219-.331m26.82 7.441a.99.99 0 0 0-1.08.899c-.05.551.359 1.04.91 1.091h.09c.51 0 .95-.391.99-.91a.991.991 0 0 0-.91-1.08m4.01.189c-.55 0-1 .441-1.01.991a.996.996 0 0 0 .99 1.009h.01a1 1 0 0 0 .01-2m4-.13a1.002 1.002 0 0 0 .08 2c.019 0 .049 0 .08-.009.55-.04.96-.521.91-1.071a.992.992 0 0 0-1.07-.92m3.95-.519c-.55.1-.901.62-.8 1.17.09.479.51.809.979.809.061 0 .121 0 .191-.019a.99.99 0 0 0 .79-1.17.99.99 0 0 0-1.16-.79m-15.95-.03a.998.998 0 0 0-1.14.839c-.091.541.29 1.05.83 1.141.05.01.1.01.149.01.491 0 .92-.351.991-.851a.995.995 0 0 0-.83-1.139m-11.781-2.81a.983.983 0 0 0-1.25.649.998.998 0 0 0 .651 1.26c.099.031.2.04.3.04.419 0 .82-.269.95-.699a.992.992 0 0 0-.651-1.25m3.88 1.13a1.002 1.002 0 1 0-.25 1.97c.441 0 .841-.29.96-.741.141-.54-.17-1.08-.71-1.229m27.691.739a1 1 0 0 0-.651 1.261c.141.42.531.689.96.689.101 0 .2-.009.301-.04.529-.17.819-.739.649-1.259a.998.998 0 0 0-1.259-.651m-23.76.21a.99.99 0 0 0-1.181.771.998.998 0 0 0 .761 1.19 1.002 1.002 0 0 0 1.189-.77 1.01 1.01 0 0 0-.769-1.191m-11.641-3.38a1.01 1.01 0 0 0-1.29.601 1.005 1.005 0 0 0 .941 1.34c.41 0 .799-.26.94-.66a.998.998 0 0 0-.591-1.281m-3.79-1.46a.997.997 0 0 0-1.3.551c-.21.52.04 1.1.55 1.31.12.049.25.07.381.07.39 0 .77-.23.92-.62a1.006 1.006 0 0 0-.551-1.311m46.231 1.17a.996.996 0 0 0-.241 1.391c.201.279.51.43.821.43.2 0 .399-.06.58-.19.45-.32.559-.94.24-1.391-.32-.45-.95-.559-1.4-.24m-3.38 2a.996.996 0 1 0 .439 1.891 1 1 0 0 0 .901-1.441.997.997 0 0 0-1.34-.45m6.389-4.529a.969.969 0 0 0-.29.699c0 .271.101.521.29.711.09.09.201.17.321.22a1 1 0 0 0 .389.069c.13 0 .26-.019.38-.069s.231-.13.321-.22l.002-.003-1.41-1.409-.003.002M49.842 91.79a1 1 0 0 0-1.219-.721.986.986 0 0 0-.72 1.211 1.003 1.003 0 0 0 1.21.73c.54-.14.859-.691.729-1.22m-1.67-2.681a.987.987 0 0 0 .781-1.17c-.111-.54-.63-.899-1.17-.779-.55.1-.901.63-.79 1.17.099.479.519.8.979.8.07 0 .131 0 .2-.021m1.781 7.78c.089 0 .19-.019.29-.049a.998.998 0 0 0-.58-1.911 1.002 1.002 0 0 0 .29 1.96m-2.521-11.7c.551-.08.931-.59.851-1.139a1.01 1.01 0 0 0-1.13-.85c-.55.08-.931.59-.851 1.14a1 1 0 0 0 .99.849h.14m-.729-7.969c.559 0 1-.44 1.009-.991 0-.559-.45-1-1-1.009-.559 0-1 .45-1 1a.99.99 0 0 0 .991 1m.229 4c.551-.05.961-.531.921-1.081a.997.997 0 1 0-1.99.151c.04.529.479.93.99.93h.079m6.78 25c-.5.21-.74.799-.519 1.31a1.01 1.01 0 0 0 1.319.52c.511-.22.74-.81.521-1.321-.22-.5-.811-.729-1.321-.509m-1.49-3.71a.993.993 0 0 0-.569 1.29c.16.389.529.639.93.639.129 0 .249-.029.37-.069.509-.2.769-.79.57-1.301-.21-.51-.79-.769-1.301-.559m-4.96-33.26c.07.019.131.019.2.019a1 1 0 0 0 .191-1.979 1.009 1.009 0 0 0-1.181.79c-.099.54.25 1.069.79 1.17m3.601 29.49c-.521.18-.8.75-.611 1.279.141.411.531.67.941.67.109 0 .22-.019.33-.059.52-.18.8-.75.609-1.271h.011c-.19-.529-.761-.8-1.28-.619"/><path fill="#434A4F" d="M54.623 55.24c.258 0 .506-.1.706-.298l-1.37-1.37c.091-.091.193-.17.286-.259a.948.948 0 0 0-.323.217h-.009a.995.995 0 0 0 0 1.409c.2.2.46.301.71.301m.24 55.96a.99.99 0 0 0 1.33.48c.5-.23.71-.831.479-1.331h-.009c-.231-.5-.831-.71-1.331-.479a.993.993 0 0 0-.469 1.33m-6.7-45.851c.099.04.2.061.309.061.421 0 .811-.271.95-.69a.997.997 0 0 0-.639-1.26.99.99 0 0 0-1.26.63.996.996 0 0 0 .64 1.259m3.88-7.069c.31 0 .62-.141.81-.421a.994.994 0 0 0-.23-1.389.993.993 0 0 0-1.39.23.995.995 0 0 0 .229 1.399c.17.121.38.181.581.181m-5.25 14.949h.089a1 1 0 0 0 1-.91.999.999 0 0 0-.899-1.09 1.008 1.008 0 0 0-1.09.91 1.01 1.01 0 0 0 .9 1.09m2.749-11.63a.982.982 0 0 0 1.34-.45v.011c.25-.5.05-1.101-.45-1.351a1.01 1.01 0 0 0-1.34.451c-.239.5-.04 1.099.45 1.339"/><path fill="#434A4F" d="M55.329 54.942l.003-.003a.995.995 0 0 0 0-1.409 1 1 0 0 0-1.087-.217c-.093.089-.195.168-.286.259l1.37 1.37m14.438-9.514c.402 0 .774.126 1.082.339.43-.058.848-.131 1.287-.176.35-.036.709-.056 1.064-.084-.659-1.231-1.942-2.079-3.433-2.079-1.962 0-3.576 1.458-3.852 3.345a34.259 34.259 0 0 1 2.318-.562 1.903 1.903 0 0 1 1.534-.783m1.875 2.248a1.909 1.909 0 0 1-1.875 1.57 1.901 1.901 0 0 1-1.65-.967c-.673.151-1.329.323-1.972.511a3.91 3.91 0 0 0 3.622 2.456c2.107 0 3.819-1.68 3.895-3.769-.444.031-.888.059-1.323.104-.238.024-.462.067-.697.095"/><path fill="#434A4F" d="M66.145 48.79c.643-.188 1.299-.36 1.972-.511a1.887 1.887 0 0 1-.259-.942c0-.422.142-.809.375-1.126-.791.164-1.564.35-2.318.562-.027.186-.057.371-.057.564 0 .514.106 1.003.287 1.453m4.704-3.023c.499.345.827.919.827 1.57a1.9 1.9 0 0 1-.034.339c.235-.028.459-.071.697-.095.435-.045.879-.073 1.323-.104.002-.048.014-.092.014-.14 0-.665-.182-1.281-.476-1.83-.355.028-.714.048-1.064.084-.439.045-.857.118-1.287.176m79.37 70.918l-2.446-1.048c.024.824.048 1.647.061 2.479l2.385-1.431m-.777 13.32l-1.692-1.693c-.04 1.188-.089 2.367-.148 3.533l1.84-1.84m-3.735-.907c.036-.908.064-1.822.088-2.74l-4.386-4.386 4.435-2.662c-.009-.773-.022-1.542-.04-2.308l-7.622 4.573 7.525 7.523"/><path fill="#434A4F" d="M132.171 136.859l5.194-10.446 7.835 7.835.252-.252c.065-.995.124-1.995.174-3.003l-.426.427-8.388-8.388-4.473 8.995-10.451-25.307 23.915 10.248c-.017-.735-.034-1.472-.059-2.201l-27.577-11.819 14.004 33.911"/><path fill="#434A4F" d="M145.803 116.968l.033.014-.032.02c.018.766.031 1.535.04 2.308l1.99-1.194c-.013-.832-.037-1.655-.061-2.479l-2.029-.87c.025.729.042 1.466.059 2.201m-.096 12.13l.907.907-.988.988a191.78 191.78 0 0 1-.174 3.003l2.15-2.151c.059-1.166.108-2.345.148-3.533l-1.955-1.954c-.024.918-.052 1.832-.088 2.74M34.947 115.632h2v-4h-2zM34.947 125.632h2v-4h-2zM38.947 119.632h4v-2h-4zM28.947 119.632h4v-2h-4zM213.053 125.638h2v-4h-2zM213.053 135.638h2v-4h-2zM217.053 129.638h4v-2h-4zM207.053 129.638h4v-2h-4zM74.971 183.673h2v-4h-2zM74.971 193.673h2v-4h-2zM78.971 187.673h4v-2h-4zM68.971 187.673h4v-2h-4z"/><path fill="#42494E" d="M193.173 163.949a6.088 6.088 0 0 0 .378 4.628 6.083 6.083 0 0 0 3.564 3.049c3.192 1.044 6.645-.697 7.71-3.882a6.085 6.085 0 0 0-.37-4.653 6.087 6.087 0 0 0-3.563-3.049 6.133 6.133 0 0 0-7.719 3.907zm5.849 9.983a8.158 8.158 0 0 1-2.528-.404c-4.239-1.383-6.573-5.938-5.228-10.18h-.001a.066.066 0 0 0 .005-.015l.017-.052.001.001c1.414-4.218 5.986-6.52 10.223-5.143a8.079 8.079 0 0 1 4.727 4.045 8.079 8.079 0 0 1 .502 6.136l.001.001-.017.047a.133.133 0 0 0-.005.019h-.001a8.076 8.076 0 0 1-4.022 4.66 8.096 8.096 0 0 1-3.674.885z"/><path fill="#42494E" d="M197.961 181.133l2.073.002.001-1.232a3.493 3.493 0 0 1 2.453-3.369c1.495-.482 3.046.026 3.963 1.292l.723.997 1.678-1.216-.723-.998a3.492 3.492 0 0 1 .004-4.167 3.495 3.495 0 0 1 3.965-1.285l1.172.383.621-1.906-1.171-.381a3.494 3.494 0 0 1-2.446-3.375 3.49 3.49 0 0 1 2.452-3.369l1.172-.38-.639-1.971-1.172.379a3.497 3.497 0 0 1-3.962-1.292 3.494 3.494 0 0 1 .004-4.168l.726-.996-1.676-1.22-.725.996c-.921 1.265-2.48 1.773-3.965 1.284-1.489-.484-2.448-1.809-2.447-3.374l.001-1.232-2.072-.002-.001 1.232a3.494 3.494 0 0 1-2.453 3.37c-1.491.485-3.044-.026-3.963-1.292l-.723-.997-1.678 1.216.723.997a3.494 3.494 0 0 1-.003 4.167 3.492 3.492 0 0 1-3.965 1.286l-1.172-.383-.621 1.904 1.172.383a3.491 3.491 0 0 1 2.446 3.373 3.492 3.492 0 0 1-2.454 3.369l-1.172.38.639 1.972 1.172-.379a3.492 3.492 0 0 1 3.962 1.291 3.495 3.495 0 0 1-.005 4.169l-.724.995 1.675 1.219.725-.996a3.495 3.495 0 0 1 3.965-1.283 3.493 3.493 0 0 1 2.446 3.374l-.001 1.233zm4.071 2.004l-6.073-.006.003-3.233c.001-.827-.549-1.302-1.066-1.47-.515-.167-1.24-.109-1.728.559l-1.903 2.613-4.909-3.575 1.902-2.612c.489-.67.322-1.378.003-1.817-.318-.44-.942-.816-1.726-.563l-3.077.996-1.869-5.778 3.075-.995c.787-.255 1.068-.926 1.069-1.469 0-.543-.279-1.214-1.066-1.47l-3.074-1.003 1.862-5.707 3.073 1.003c.789.258 1.408-.122 1.727-.56.32-.439.488-1.147.002-1.817l-1.897-2.616 4.916-3.564 1.897 2.616c.487.67 1.21.731 1.728.563.516-.168 1.068-.641 1.069-1.468l.003-3.233 6.072.006-.003 3.232c0 .828.55 1.303 1.066 1.471.516.167 1.24.11 1.728-.56l1.904-2.612 4.908 3.573-1.901 2.614c-.488.669-.321 1.377-.002 1.816.318.44.941.815 1.726.564l3.075-.996 1.871 5.777-3.075.995c-.787.255-1.068.926-1.068 1.469-.001.543.279 1.215 1.066 1.471l3.073 1.001-1.862 5.709-3.073-1.003c-.787-.256-1.409.122-1.728.561-.319.438-.487 1.146-.001 1.816l1.896 2.618-4.916 3.563-1.897-2.616c-.486-.67-1.209-.729-1.728-.564-.517.168-1.068.642-1.069 1.469l-.003 3.232zm-87.836-139.97a1 1 0 1 0 0 2 1 1 0 0 0 0-2zm0 4c-1.654 0-3-1.346-3-3 0-1.655 1.346-3 3-3s3 1.345 3 3c0 1.654-1.346 3-3 3z"/><path fill="#4193A9" d="M200.196 79.833a4.333 4.333 0 1 1-8.666 0 4.333 4.333 0 0 1 8.666 0"/><path fill="#75C7D0" d="M63.529 165.833a1.666 1.666 0 1 1-3.333.001 1.666 1.666 0 0 1 3.333-.001"/><path fill="#4193A9" d="M140.863 204.833a4 4 0 1 1-8 0 4 4 0 0 1 8 0"/><path fill="#75C7D0" d="M158.184 88.724l-.29-.072.159.292.131-.22"/><path fill="#434A4F" d="M114.576 193.385c-3.849 1.823-7.672 3.42-11.438 4.733-19.622 6.839-35.348 5.689-44.276-3.24l-1.414 1.414c5.469 5.471 13.245 8.228 22.75 8.228 7.005 0 14.949-1.499 23.598-4.513 3.926-1.368 7.911-3.042 11.922-4.955a4.706 4.706 0 0 1-1.142-1.667m53.223-33.976l-5.554-3.307 7.356-4.012-1.802 7.319zm-9.643-3.354l4.329 2.782c-11.96 11.821-24.847 21.744-37.689 29.168.296.625.465 1.313.507 2.012 13.348-7.65 26.744-17.968 39.122-30.289l4.671 2.781 3.532-14.349-14.472 7.895zm46.149 21.126c-.374 7.974-2.885 14.517-7.553 19.184l1.415 1.414c4.824-4.824 7.516-11.455 8.08-19.475a4.371 4.371 0 0 1-1.942-1.123m-46.328-84.199l-4.013-7.356 7.32 1.802-3.307 5.554zm42.553 56.351c.198 0 .39.01.576.028-7.22-19.429-21.15-40.121-39.503-58.559l2.78-4.671-14.348-3.532 7.894 14.472 2.782-4.329c17.735 17.943 31.22 37.969 38.325 56.799a5.34 5.34 0 0 1 1.494-.208z"/><path fill="#434A4F" d="M119.948 185.792c-2.757 0-5 2.243-5 5s2.243 5 5 5 5-2.243 5-5-2.243-5-5-5zm0 12c-3.86 0-7-3.141-7-7 0-3.86 3.14-7 7-7 3.859 0 7 3.14 7 7 0 3.859-3.141 7-7 7z"/></g></svg>