<?xml version="1.0" encoding="utf-8"?><svg xmlns="http://www.w3.org/2000/svg" width="250" height="250" viewBox="0 0 250 250"><g fill="none" fill-rule="evenodd"><path fill="#DDDED9" d="M124.03 198.76c-15.73.091-30.048 6.132-40.817 15.991h20c5.492-9.859 12.794-15.9 20.817-15.991m.358-.009c-.039 0-.077.003-.116.003 8.071.029 15.42 6.087 20.941 15.997h20.351c-10.851-9.935-25.304-16-41.176-16"/><path fill="#75C7D0" d="M184.964 99.669c-8.863-33.075-42.86-52.703-75.934-43.841-33.075 8.863-52.704 42.86-43.841 75.934 8.862 33.075 42.859 52.703 75.934 43.841 33.075-8.862 52.703-42.859 43.841-75.934"/><path fill="#434A4F" d="M125.062 50.708c-5.555 0-11.195.719-16.809 2.223-16.771 4.493-30.787 15.249-39.468 30.285-8.681 15.036-10.988 32.553-6.494 49.323 4.494 16.771 15.249 30.787 30.285 39.469 15.036 8.68 32.552 10.988 49.323 6.493 34.62-9.276 55.239-44.989 45.963-79.608-7.773-29.006-34.105-48.185-62.8-48.185zm-.095 132.037c-11.611 0-23.067-3.045-33.391-9.006-15.498-8.948-26.585-23.395-31.217-40.682-4.631-17.287-2.255-35.343 6.694-50.841 8.948-15.499 23.396-26.585 40.682-31.217 17.287-4.633 35.343-2.255 50.841 6.693 15.499 8.948 26.586 23.396 31.217 40.683 9.562 35.685-11.691 72.495-47.376 82.058a67.4 67.4 0 0 1-17.45 2.312z"/><path fill="#434A4F" d="M131.629 181.979c-23.692.003-47.418-21.726-55.815-53.064-4.618-17.234-3.972-34.785 1.82-49.42 5.833-14.737 16.18-24.766 29.136-28.237a.997.997 0 0 1 1.224.707.998.998 0 0 1-.707 1.224c-12.329 3.304-22.2 12.908-27.793 27.042-5.635 14.239-6.256 31.344-1.748 48.166 8.157 30.443 31.062 51.585 53.853 51.587 3.127 0 6.25-.398 9.335-1.224a.996.996 0 0 1 1.224.707.998.998 0 0 1-.707 1.224 37.837 37.837 0 0 1-9.822 1.288m-67.892-77.815a1 1 0 0 1-.258-1.966l5.795-1.553a.998.998 0 0 1 1.225.707.998.998 0 0 1-.707 1.224l-5.795 1.554a1.015 1.015 0 0 1-.26.034"/><path fill="#434A4F" d="M79.192 100.022a.998.998 0 0 1-.258-1.965l15.454-4.141a1 1 0 0 1 .518 1.932l-15.455 4.14a.965.965 0 0 1-.259.034m85.001-22.776a1 1 0 0 1-.258-1.966l7.728-2.07a1 1 0 1 1 .517 1.932l-7.727 2.07a1.015 1.015 0 0 1-.26.034m-85.962 81.01a1 1 0 0 1-.258-1.966l5.795-1.554a1 1 0 0 1 .518 1.932l-5.796 1.554a1.007 1.007 0 0 1-.259.034m13.523-3.624a1 1 0 0 1-.258-1.966l17.386-4.658a.996.996 0 0 1 1.225.707.998.998 0 0 1-.707 1.224l-17.387 4.659a1.013 1.013 0 0 1-.259.034m10.62-60.821a.998.998 0 0 1-.965-.742.998.998 0 0 1 .707-1.224l30.909-8.282a.997.997 0 0 1 1.225.707.998.998 0 0 1-.707 1.224l-30.91 8.282a.967.967 0 0 1-.259.035m14.494 54.091a.998.998 0 0 1-.258-1.965l30.91-8.283a1 1 0 1 1 .517 1.932l-30.91 8.282a.96.96 0 0 1-.259.034m65.685-17.599a1 1 0 0 1-.258-1.966l3.861-1.035a.998.998 0 0 1 1.225.707.998.998 0 0 1-.707 1.224l-3.861 1.036a1.015 1.015 0 0 1-.26.034"/><path fill="#434A4F" d="M109.994 52.705c-.596 0-1.175.074-1.741.226-5.151 1.38-8.535 9.323-9.284 21.793-.781 13.011 1.287 29.5 5.823 46.427 8.65 32.282 24.386 57.573 35.366 57.576.596 0 1.175-.075 1.741-.226 5.152-1.38 8.536-9.323 9.284-21.793.781-13.012-1.287-29.5-5.822-46.428-8.65-32.281-24.386-57.575-35.367-57.575zm30.195 128.018c-12.231 0-28.171-24.88-37.329-59.054-4.59-17.13-6.681-33.845-5.887-47.065.815-13.581 4.637-21.964 10.762-23.605 12.46-3.333 29.834 22.476 39.557 58.764 4.59 17.13 6.681 33.844 5.888 47.065-.816 13.581-4.638 21.964-10.763 23.605a8.605 8.605 0 0 1-2.228.29zm15.316-43.173a.999.999 0 0 1-.258-1.966l11.588-3.105a.996.996 0 0 1 1.225.707.998.998 0 0 1-.707 1.224l-11.589 3.106a1.007 1.007 0 0 1-.259.034m-14.494-54.092a1 1 0 0 1-.258-1.966l15.455-4.14a.994.994 0 0 1 1.224.707.998.998 0 0 1-.707 1.224l-15.454 4.141a1.015 1.015 0 0 1-.26.034"/><path fill="#434A4F" d="M141.011 83.458a1 1 0 0 1-.258-1.966l15.455-4.14a.994.994 0 0 1 1.224.707.998.998 0 0 1-.707 1.224l-15.454 4.141a1.015 1.015 0 0 1-.26.034"/><path fill="#434A4F" d="M141.192 180.726a.998.998 0 0 1-.965-.742.998.998 0 0 1 .707-1.224c12.329-3.304 22.199-12.907 27.793-27.042 5.635-14.239 6.255-31.344 1.748-48.167-9.277-34.62-37.624-57.207-63.188-50.362a.997.997 0 0 1-1.224-.707.998.998 0 0 1 .707-1.224c26.629-7.14 56.075 16.091 65.637 51.775 4.618 17.235 3.971 34.786-1.82 49.421-5.833 14.737-16.18 24.766-29.136 28.237a.967.967 0 0 1-.259.035"/><path fill="#FFFFFE" d="M174.307 138.562l-.247-.07.241-.229.006.299M148.779 75.432l-.069.247-.23-.24.299-.007"/><path fill="#42494E" d="M168.137 215.751H80.639l1.898-1.737a61.897 61.897 0 0 1 39.675-16.208v-7.158c-32.601-1.265-61.127-23.973-69.58-55.521-5.06-18.883-2.598-38.712 6.932-55.834 9.35-16.798 24.486-29.196 42.699-35.002l-2.275-8.489 5.795-1.553 4.525 16.887-1.932.517-4.007-14.955-1.932.518 2.256 8.419-.924.282c-18.125 5.524-33.204 17.724-42.457 34.349-9.276 16.666-11.673 35.965-6.749 54.343 8.31 31.012 36.55 53.246 68.675 54.072l.974.025v11.055l-.981.018a59.9 59.9 0 0 0-37.359 13.972h77.033c-10.043-8.41-22.633-13.336-35.738-13.934l-.955-.044V188.7l.972-.028a72.998 72.998 0 0 0 14.339-1.855l.942-.217 1.856 6.926 1.932-.517-3.543-13.224c-.646.256-1.275.473-1.896.653l1.134 4.232-1.01.232c-17.936 4.119-36.541 1.154-52.387-8.349-15.887-9.53-27.272-24.609-32.055-42.461-4.784-17.853-2.465-36.604 6.53-52.8 8.972-16.154 23.601-28.024 41.193-33.425l1.079-.331.899 5.039-1.969.352-.5-2.807C87.114 55.516 73.31 66.895 64.775 82.263c-8.742 15.74-10.996 33.963-6.348 51.311 4.649 17.349 15.713 32.003 31.153 41.263 15.104 9.059 32.784 12.004 49.898 8.341l-1.124-4.194 1.008-.233c1.156-.268 2.336-.675 3.606-1.246l1.072-.482 4.662 17.4-5.795 1.553-1.875-6.997a75.18 75.18 0 0 1-12.82 1.658v7.233a62.024 62.024 0 0 1 38.027 16.144l1.898 1.737"/><path fill="#434A4F" d="M59.212 180.751h2v-4h-2zM59.212 190.751h2v-4h-2zM63.212 184.751h4v-2h-4zM53.212 184.751h4v-2h-4zM35.212 72.751h2v-4h-2zM35.212 82.751h2v-4h-2zM39.212 76.751h4v-2h-4zM29.212 76.751h4v-2h-4z"/><path fill="#E9886C" d="M209.213 82.751a4 4 0 1 1-8 0 4 4 0 0 1 8 0"/><path fill="#DBDBD5" d="M49.213 141.751a3 3 0 1 1-6 0 3 3 0 0 1 6 0m144 28a3 3 0 1 1-6 0 3 3 0 0 1 6 0"/><path fill="#434A4F" d="M209.219 117.346a1 1 0 0 1-1-.999l-.007-7.572c0-.552.447-1 .999-1.001h.001a1 1 0 0 1 1 .999l.007 7.572a1 1 0 0 1-.999 1.001h-.001"/><path fill="#434A4F" d="M209.216 113.789h-.002l-42.594-.074a1 1 0 0 1 .002-2h.002l42.594.074a1 1 0 0 1-.002 2"/><path fill="#434A4F" d="M166.08 115.671l49.727.08h.003c.795 0 1.543-.31 2.106-.872a2.965 2.965 0 0 0 .872-2.109 2.998 2.998 0 0 0-2.991-2.99l-49.726-.08-6.47 2.979 6.479 2.992zm49.729 2.08h-.005l-49.946-.08a.987.987 0 0 1-.418-.092l-8.647-3.993a1 1 0 1 1 .001-1.816l8.641-3.978a.984.984 0 0 1 .418-.092h.001l49.946.08a5.001 5.001 0 0 1 4.988 4.988 4.947 4.947 0 0 1-1.458 3.525 4.948 4.948 0 0 1-3.521 1.458z"/><path fill="#42494E" d="M206.15 38.669v2h3v18.083h-32.083V40.669h3v-2h-5v22.083h36.083V38.669h-5"/><path fill="#42494E" d="M181.067 54.752h10.648l1.432 1.562 1.595-1.562h10.408V36.669h-9.592l-2.464 2.414-2.365-2.414h-9.662v18.083zm12.003 4.437l-2.235-2.437h-11.768V34.669h12.503l1.553 1.586 1.619-1.586h12.408v22.083h-11.592l-2.488 2.437z"/><path fill="#FFFFFE" d="M182.963 39.752h6.125"/><path fill="#42494E" d="M182.962 40.752h6.125v-2h-6.125z"/><path fill="#FFFFFE" d="M182.963 43.752h6.125"/><path fill="#42494E" d="M182.962 44.752h6.125v-2h-6.125z"/><path fill="#FFFFFE" d="M182.963 47.752h6.125"/><path fill="#42494E" d="M182.962 48.752h6.125v-2h-6.125z"/><path fill="#FFFFFE" d="M196.963 39.752h6.125"/><path fill="#42494E" d="M196.962 40.752h6.125v-2h-6.125z"/><path fill="#FFFFFE" d="M196.963 43.752h6.125"/><path fill="#42494E" d="M196.962 44.752h6.125v-2h-6.125z"/><path fill="#FFFFFE" d="M196.963 47.752h6.125"/><path fill="#42494E" d="M196.962 48.752h6.125v-2h-6.125z"/><path fill="#FFFFFE" d="M193.108 40.94v9.812"/><path fill="#42494E" d="M192.108 50.752h2v-9.813h-2z"/><path fill="#FFFFFE" d="M182.963 51.752h6.125"/><path fill="#42494E" d="M182.962 52.752h6.125v-2h-6.125z"/><path fill="#FFFFFE" d="M196.963 51.752h6.125"/><path fill="#42494E" d="M196.962 52.752h6.125v-2h-6.125z"/></g></svg>