<?xml version="1.0" encoding="utf-8"?><svg xmlns="http://www.w3.org/2000/svg" width="250" height="250" viewBox="0 0 250 250"><g fill="none" fill-rule="evenodd"><path fill="#5FE0ED" d="M143.247 61.5c-10.477 0-19 8.523-19 18.999 0 10.477 8.523 19 19 19s19-8.522 19-18.999c0-10.476-8.523-19-19-19M72.497 122c-8.133 0-14.75 6.617-14.75 14.75s6.617 14.75 14.75 14.75c8.134 0 14.75-6.617 14.75-14.75S80.631 122 72.497 122"/><path fill="#F58E70" d="M162.752 125.497c-16.266 0-29.5 13.234-29.5 29.5 0 16.267 13.234 29.5 29.5 29.5s29.5-13.233 29.5-29.5c0-16.266-13.234-29.5-29.5-29.5"/><path fill="#48515A" d="M123.247 76.5c-27.018 0-49 21.981-49 49s21.982 49 49 49c27.019 0 49-21.981 49-49s-21.981-49-49-49zm0 100c-28.121 0-51-22.879-51-51s22.879-51 51-51c28.122 0 51 22.879 51 51s-22.878 51-51 51z"/><path fill="#48515A" d="M162.113 93.648l-1.639-1.144a20.869 20.869 0 0 0 3.773-12.004c0-11.579-9.42-21-21-21-9.836 0-18.248 6.686-20.456 16.261l-1.95-.45c2.42-10.487 11.634-17.811 22.406-17.811 12.682 0 23 10.317 23 23 0 4.729-1.429 9.276-4.134 13.148"/><path fill="#475059" d="M112.251 140.515c-5.516 0-10.004-4.489-10.004-10.005v-9.005c0-5.517 4.488-10.004 10.004-10.004 5.517 0 10.005 4.487 10.005 10.004h-2c0-4.413-3.59-8.004-8.005-8.004-4.413 0-8.004 3.591-8.004 8.004v9.005c0 4.414 3.591 8.005 8.004 8.005 4.415 0 8.005-3.591 8.005-8.005h2c0 5.516-4.488 10.005-10.005 10.005m20.996-27.014c-3.86 0-7 3.141-7 7v11.014c0 3.859 3.14 7 7 7h2.009c3.86 0 7-3.141 7-7v-11.014c0-3.859-3.14-7-7-7h-2.009zm2.009 27.014h-2.009c-4.962 0-9-4.037-9-9v-11.014c0-4.963 4.038-9 9-9h2.009c4.963 0 9 4.037 9 9v11.014c0 4.963-4.037 9-9 9zm18.992-.759h-8.286l6.152-8.054a2.161 2.161 0 0 0-1.891-3.202c-1.191 0-2.16.969-2.16 2.159h-2a4.165 4.165 0 0 1 4.16-4.159 4.163 4.163 0 0 1 3.589 6.262l-.068.101-3.737 4.893h4.241v2"/><path fill="#48515A" d="M162.752 188.497c-10.828 0-21.044-5.284-27.326-14.134l1.631-1.158c5.908 8.323 15.514 13.292 25.695 13.292 17.37 0 31.5-14.131 31.5-31.5a31.488 31.488 0 0 0-20.45-29.497h-1.555c0-.273-.009-.544-.018-.814l-.05-1.866 1.358.461a33.488 33.488 0 0 1 22.715 31.716c0 18.472-15.027 33.5-33.5 33.5M72.498 155.5c-10.339 0-18.75-8.411-18.75-18.75S62.159 118 72.498 118c.339 0 .672.022 1.006.046l.235.016-.13 1.996-.244-.017c-.287-.02-.575-.041-.867-.041-9.236 0-16.75 7.514-16.75 16.75s7.514 16.75 16.75 16.75a16.77 16.77 0 0 0 8.067-2.072l.965 1.752a18.78 18.78 0 0 1-9.032 2.32"/><path fill="#5FE0ED" d="M119.247 89.5a2 2 0 1 1-3.999.001 2 2 0 0 1 3.999-.001m18 13a1 1 0 1 1-2 0 1 1 0 0 1 2 0m-10-1a2 2 0 1 1-3.999.001 2 2 0 0 1 3.999-.001m-36 20a2 2 0 1 1-3.999.001 2 2 0 0 1 3.999-.001m-8-2a2 2 0 1 1-3.999.001 2 2 0 0 1 3.999-.001m4 28a2 2 0 1 1 4 0 2 2 0 0 1-4 0m12-7a3 3 0 1 1-6 0 3 3 0 0 1 6 0"/><path fill="#F58E70" d="M129.247 151.5a2 2 0 1 1-3.999.001 2 2 0 0 1 3.999-.001m0 9a1 1 0 1 1 2 0 1 1 0 0 1-2 0m20-39a2 2 0 1 1-3.999.001 2 2 0 0 1 3.999-.001m8 1a1 1 0 1 1-2 0 1 1 0 0 1 2 0m-20 26a3 3 0 1 1-6 0 3 3 0 0 1 6 0m14-43a2 2 0 1 1 4 0 2 2 0 0 1-4 0"/><path fill="#475059" d="M125.073 80.536a48.149 48.149 0 0 0-1.826-.036l-.141.001v-2l.12-.001c.681.045 1.293.013 1.926.038l-.079 1.998zm-5.884.144l-.179-1.993c.678-.06 1.359-.106 2.044-.138l.093 1.998c-.656.03-1.309.074-1.958.133zm9.793.182a46.161 46.161 0 0 0-1.951-.206l.166-1.992a46.96 46.96 0 0 1 2.037.214l-.252 1.984zm-13.682.337l-.351-1.969c.67-.12 1.345-.224 2.025-.315l.265 1.982c-.651.087-1.297.188-1.939.302zm17.548.327a47.07 47.07 0 0 0-1.925-.375l.338-1.97c.676.115 1.346.246 2.012.39l-.425 1.955zm-21.377.531l-.521-1.932c.657-.177 1.32-.341 1.987-.491l.44 1.951c-.64.144-1.276.301-1.906.472zm25.171.47a43.868 43.868 0 0 0-1.886-.542l.51-1.933a47.85 47.85 0 0 1 1.97.565l-.594 1.91zm-28.908.718l-.691-1.877a48.169 48.169 0 0 1 1.94-.665l.606 1.906c-.624.199-1.242.411-1.855.636zm32.607.615a44.525 44.525 0 0 0-1.834-.708l.678-1.881c.646.233 1.286.479 1.918.74l-.762 1.849zm-36.219.894l-.851-1.811a48.804 48.804 0 0 1 1.868-.829l.774 1.844c-.604.254-1.201.519-1.791.796zm39.786.759a46.453 46.453 0 0 0-1.764-.866l.84-1.814c.623.288 1.238.59 1.844.904l-.92 1.776zm-43.254 1.06l-1.005-1.728a50.026 50.026 0 0 1 1.789-.991l.932 1.77c-.58.305-1.152.621-1.716.949zm46.66.897c-.551-.35-1.112-.69-1.681-1.016l.997-1.734c.594.341 1.18.695 1.757 1.062l-1.073 1.688zm-49.958 1.219l-1.153-1.634a45.039 45.039 0 0 1 1.7-1.143l1.078 1.684c-.55.352-1.092.717-1.625 1.093zm53.18 1.026a43.98 43.98 0 0 0-1.585-1.157l1.143-1.641c.562.392 1.114.794 1.657 1.21l-1.215 1.588zm-56.285 1.371l-1.289-1.529c.522-.44 1.053-.869 1.594-1.287l1.221 1.584c-.518.4-1.026.81-1.526 1.232zm59.3 1.146a46.456 46.456 0 0 0-1.479-1.291l1.281-1.535c.525.438 1.04.887 1.545 1.348l-1.347 1.478zm-62.186 1.511l-1.417-1.412c.482-.483.974-.957 1.477-1.42l1.354 1.471c-.481.443-.953.897-1.414 1.361zm64.968 1.256a44.279 44.279 0 0 0-1.361-1.414l1.41-1.418c.485.482.959.974 1.422 1.477l-1.471 1.355zm-67.616 1.642l-1.533-1.284c.438-.523.888-1.038 1.348-1.543l1.478 1.348c-.441.483-.872.977-1.293 1.479zm70.148 1.353a45.07 45.07 0 0 0-1.233-1.524l1.528-1.291c.44.52.87 1.051 1.288 1.592l-1.583 1.223zm-72.534 1.765l-1.639-1.145c.392-.561.795-1.113 1.211-1.655l1.588 1.215c-.398.52-.785 1.049-1.16 1.585zm74.795 1.438a42.723 42.723 0 0 0-1.095-1.625l1.633-1.154c.394.557.776 1.123 1.146 1.699l-1.684 1.08zm-76.902 1.876l-1.733-.998c.341-.594.696-1.179 1.063-1.756l1.687 1.075a43.03 43.03 0 0 0-1.017 1.679zm78.875 1.508a43.878 43.878 0 0 0-.949-1.713l1.728-1.008c.344.589.674 1.187.992 1.791l-1.771.93zm-80.685 1.982l-1.814-.844c.289-.621.59-1.236.905-1.843l1.776.922c-.302.58-.591 1.169-.867 1.765zm82.355 1.56a44.739 44.739 0 0 0-.795-1.788l1.808-.854c.291.617.569 1.24.832 1.871l-1.845.771zm-83.854 2.074l-1.88-.679c.233-.646.48-1.285.741-1.916l1.848.761a47.608 47.608 0 0 0-.709 1.834zm85.209 1.603c-.2-.625-.412-1.244-.638-1.857l1.877-.691c.236.64.458 1.286.666 1.938l-1.905.61zm-86.38 2.146l-1.933-.511c.175-.664.365-1.32.568-1.97l1.909.596a46.236 46.236 0 0 0-.544 1.885zm87.406 1.638c-.143-.64-.3-1.274-.471-1.904l1.93-.524c.179.657.344 1.322.494 1.99l-1.953.438zm-88.243 2.195l-1.971-.34c.117-.675.248-1.346.393-2.011l1.954.426a45.438 45.438 0 0 0-.376 1.925zm88.936 1.668a43.915 43.915 0 0 0-.303-1.938l1.968-.354c.12.671.226 1.346.318 2.027l-1.983.265zm-89.435 2.224l-1.993-.168c.057-.684.129-1.362.216-2.037l1.983.254a44.567 44.567 0 0 0-.206 1.951zm89.789 1.683a43.762 43.762 0 0 0-.134-1.958l1.992-.179c.061.677.108 1.358.14 2.044l-1.998.093zm-91.95 2.24v-.094c0-.654.014-1.304.04-1.952l1.998.08a46.532 46.532 0 0 0-.038 1.872l-2 .094zm93.957 1.955l-1.998-.086c.027-.65.041-1.306.041-1.963v-.179l2-.015v.194c0 .687-.015 1.369-.043 2.049zm-93.772 2.14a47.32 47.32 0 0 1-.137-2.043l1.999-.09c.029.656.073 1.308.13 1.958l-1.992.175zm93.419 1.941l-1.983-.258a46.34 46.34 0 0 0 .211-1.951l1.992.172a45.446 45.446 0 0 1-.22 2.037zm-92.882 2.121a50.158 50.158 0 0 1-.313-2.025l1.983-.264c.086.65.186 1.298.3 1.939l-1.97.35zm92.175 1.916l-1.953-.432c.141-.635.267-1.277.381-1.924l1.97.345a47.639 47.639 0 0 1-.398 2.011zm-91.284 2.085a46.25 46.25 0 0 1-.488-1.991l1.952-.434c.142.641.298 1.276.468 1.905l-1.932.52zm90.227 1.874l-1.908-.6c.196-.623.379-1.252.548-1.884l1.932.515a46.354 46.354 0 0 1-.572 1.969zm-88.988 2.033a45.686 45.686 0 0 1-.663-1.941l1.907-.604c.198.626.409 1.244.634 1.858l-1.878.687zm87.584 1.829l-1.848-.765c.25-.605.488-1.216.712-1.833l1.88.683a48.615 48.615 0 0 1-.744 1.915zm-86.012 1.945a48.062 48.062 0 0 1-.828-1.871l1.847-.768c.251.603.515 1.2.791 1.789l-1.81.85zm84.274 1.774l-1.774-.924c.303-.581.593-1.169.871-1.762l1.812.845c-.29.621-.593 1.235-.909 1.841zm-82.378 1.849a47.85 47.85 0 0 1-.987-1.791l1.772-.928c.303.579.619 1.151.946 1.717l-1.731 1.002zm80.322 1.705l-1.685-1.076c.352-.552.692-1.112 1.02-1.679l1.732 1.002a45.712 45.712 0 0 1-1.067 1.753zm-78.114 1.744a46.225 46.225 0 0 1-1.141-1.7l1.684-1.078c.353.551.718 1.093 1.093 1.627l-1.636 1.151zm75.759 1.612l-1.587-1.217c.398-.52.786-1.047 1.163-1.585l1.637 1.151a49.956 49.956 0 0 1-1.213 1.651zm-73.26 1.632a46.017 46.017 0 0 1-1.286-1.597l1.586-1.218c.399.518.809 1.027 1.229 1.526l-1.529 1.289zm70.623 1.508l-1.475-1.352c.442-.482.874-.974 1.295-1.475l1.532 1.285a47.164 47.164 0 0 1-1.352 1.542zm-67.852 1.509a48.227 48.227 0 0 1-1.418-1.478l1.473-1.353a46.5 46.5 0 0 0 1.358 1.417l-1.413 1.414zm64.954 1.388l-1.352-1.474c.483-.443.956-.896 1.418-1.358l1.414 1.414a46.05 46.05 0 0 1-1.48 1.418zm-61.931 1.379a44.854 44.854 0 0 1-1.544-1.353l1.354-1.473c.482.442.974.873 1.475 1.293l-1.285 1.533zm58.795 1.255l-1.219-1.586a45.106 45.106 0 0 0 1.529-1.228l1.286 1.531c-.523.439-1.055.867-1.596 1.283zm-55.541 1.24a46.485 46.485 0 0 1-1.655-1.214l1.22-1.585c.518.399 1.046.786 1.582 1.161l-1.147 1.638zm52.188 1.112l-1.075-1.686a43.549 43.549 0 0 0 1.628-1.091l1.149 1.637c-.558.393-1.126.772-1.702 1.14zm-48.727 1.092a45.725 45.725 0 0 1-1.755-1.064l1.075-1.688c.551.352 1.111.693 1.679 1.02l-.999 1.732zm45.187.958l-.927-1.773c.58-.303 1.153-.618 1.717-.944l1.002 1.73c-.59.342-1.187.671-1.792.987zm-41.547.936a46.238 46.238 0 0 1-1.842-.908l.925-1.774c.58.303 1.168.592 1.762.869l-.845 1.813zm37.843.796l-.768-1.846a46.285 46.285 0 0 0 1.791-.791l.847 1.811c-.616.289-1.24.564-1.87.826zm-34.047.773a45.13 45.13 0 0 1-1.915-.743l.765-1.848c.604.25 1.216.488 1.833.712l-.683 1.879zm30.201.63l-.603-1.906a45.098 45.098 0 0 0 1.858-.633l.685 1.879c-.64.233-1.287.454-1.94.66zm-26.284.6a44.917 44.917 0 0 1-1.969-.571l.598-1.908c.622.195 1.25.377 1.884.545l-.513 1.934zm22.326.463l-.434-1.953a44.511 44.511 0 0 0 1.906-.467l.519 1.931c-.659.177-1.322.339-1.991.489zm-18.324.416a47.317 47.317 0 0 1-2.011-.396l.429-1.953c.636.14 1.278.266 1.925.378l-.343 1.971zm14.289.293l-.262-1.983c.65-.086 1.297-.185 1.94-.299l.346 1.971c-.67.117-1.346.221-2.024.311zm-10.224.231a43.92 43.92 0 0 1-2.038-.219l.257-1.982c.646.084 1.296.153 1.95.209l-.169 1.992zm6.142.127l-.09-1.998a45.29 45.29 0 0 0 1.96-.129l.173 1.992c-.677.059-1.358.104-2.043.135zm-2.051.045h-.047c-.67 0-1.337-.014-1.999-.042l.084-1.998c.635.026 1.273.04 1.915.04l.047 2z"/><path fill="#F58E70" d="M188.247 100.5a6 6 0 1 1-12 0 6 6 0 0 1 12 0"/><path fill="#475059" d="M182.247 106.409a4.278 4.278 0 0 1-4.273-4.272v-3.274a4.278 4.278 0 0 1 4.273-4.272 4.278 4.278 0 0 1 4.273 4.272h-2a2.275 2.275 0 0 0-2.273-2.272 2.275 2.275 0 0 0-2.273 2.272v3.274a2.275 2.275 0 0 0 2.273 2.272 2.275 2.275 0 0 0 2.273-2.272h2a4.278 4.278 0 0 1-4.273 4.272"/><path fill="#475059" d="M182.247 92.5c-4.411 0-8 3.589-8 8s3.589 8 8 8 8-3.589 8-8-3.589-8-8-8zm0 18c-5.514 0-10-4.486-10-10s4.486-10 10-10 10 4.486 10 10-4.486 10-10 10z"/><path fill="#5FE0ED" d="M76.247 80.5a6 6 0 1 1-12 0 6 6 0 0 1 12 0"/><path fill="#475059" d="M70.247 76.591a2.275 2.275 0 0 0-2.273 2.272v3.274a2.275 2.275 0 0 0 2.273 2.272 2.275 2.275 0 0 0 2.273-2.272v-3.274a2.275 2.275 0 0 0-2.273-2.272zm0 9.818a4.278 4.278 0 0 1-4.273-4.272v-3.274a4.278 4.278 0 0 1 4.273-4.272 4.278 4.278 0 0 1 4.273 4.272v3.274a4.278 4.278 0 0 1-4.273 4.272z"/><path fill="#475059" d="M70.247 72.5c-4.411 0-8 3.589-8 8s3.589 8 8 8 8-3.589 8-8-3.589-8-8-8zm0 18c-5.514 0-10-4.486-10-10s4.486-10 10-10 10 4.486 10 10-4.486 10-10 10z"/><path fill="#5FE0ED" d="M94.247 182.5a6 6 0 1 1-12 0 6 6 0 0 1 12 0"/><path fill="#475059" d="M88.247 178.591a2.275 2.275 0 0 0-2.273 2.272v3.274a2.275 2.275 0 0 0 2.273 2.272 2.275 2.275 0 0 0 2.273-2.272v-3.274a2.275 2.275 0 0 0-2.273-2.272zm0 9.818a4.278 4.278 0 0 1-4.273-4.272v-3.274a4.278 4.278 0 0 1 4.273-4.272 4.278 4.278 0 0 1 4.273 4.272v3.274a4.278 4.278 0 0 1-4.273 4.272z"/><path fill="#475059" d="M88.247 174.5c-4.411 0-8 3.589-8 8s3.589 8 8 8 8-3.589 8-8-3.589-8-8-8zm0 18c-5.514 0-10-4.486-10-10s4.486-10 10-10 10 4.486 10 10-4.486 10-10 10z"/><path fill="#48515A" d="M35 103h2v-4h-2zM35 113h2v-4h-2zM39 107h4v-2h-4zM29 107h4v-2h-4zM213 163h2v-4h-2zM213 173h2v-4h-2zM217 167h4v-2h-4zM207 167h4v-2h-4zM201 67h2v-4h-2zM201 77h2v-4h-2zM205 71h4v-2h-4zM195 71h4v-2h-4zM206 128c-1.103 0-2 .897-2 2s.897 2 2 2 2-.897 2-2-.897-2-2-2zm0 6c-2.206 0-4-1.794-4-4s1.794-4 4-4 4 1.794 4 4-1.794 4-4 4zM44 166c-1.103 0-2 .897-2 2s.897 2 2 2 2-.897 2-2-.897-2-2-2zm0 6c-2.206 0-4-1.794-4-4s1.794-4 4-4 4 1.794 4 4-1.794 4-4 4zM92 62c-1.103 0-2 .897-2 2 0 1.102.897 2 2 2s2-.898 2-2c0-1.103-.897-2-2-2zm0 6c-2.206 0-4-1.794-4-4s1.794-4 4-4 4 1.794 4 4-1.794 4-4 4z"/></g></svg>