<?xml version="1.0" encoding="utf-8"?><svg xmlns="http://www.w3.org/2000/svg" width="250" height="250" viewBox="0 0 250 250"><g fill="none" fill-rule="evenodd"><path fill="#48515A" d="M66.5 160.5a.999.999 0 0 1-.707-1.707l28.5-28.5a.999.999 0 1 1 1.414 1.414l-28.5 28.5a.999.999 0 0 1-.707.293"/><path fill="#DFE0E0" d="M125 65c-33.084 0-60 26.916-60 60s26.916 60 60 60c33.083 0 60-26.916 60-60s-26.916-60-60-60zm0 132c-39.702 0-72-32.299-72-72s32.298-72 72-72 72 32.299 72 72-32.298 72-72 72z"/><path fill="#5FE0ED" d="M125 185c-33.084 0-60-26.916-60-60H53c0 39.701 32.298 72 72 72s72-32.299 72-72h-12c0 33.084-26.917 60-60 60"/><path fill="#F58E70" d="M125 209c-46.318 0-84-37.682-84-84s37.682-84 84-84V29c-52.935 0-96 43.066-96 96s43.065 96 96 96 96-43.066 96-96h-12c0 46.318-37.682 84-84 84"/><path fill="#FFD15D" d="M125 197c-39.702 0-72-32.299-72-72 0-19.85 8.075-37.851 21.112-50.888l-8.481-8.481C50.421 80.841 41 101.841 41 125c0 46.318 37.682 84 84 84s84-37.682 84-84h-12c0 39.701-32.298 72-72 72"/><path fill="#48515A" d="M105.5 142.5a.997.997 0 0 1-.707-.293L95 132.414l-9.793 9.793a.999.999 0 1 1-1.414-1.414l10.5-10.5a.999.999 0 0 1 1.414 0l9.793 9.793 39.793-39.793a.999.999 0 0 1 1.414 0L158 111.586l56.293-56.293a.999.999 0 1 1 1.414 1.414l-57 57a.999.999 0 0 1-1.414 0L146 102.414l-39.793 39.793a1 1 0 0 1-.707.293"/><path fill="#48515A" d="M215 69a1 1 0 0 1-1-1V57h-11a1 1 0 1 1 0-2h12a1 1 0 0 1 1 1v12a1 1 0 0 1-1 1m-89.983 127.991c-31.781.001-60.939-21.237-69.547-53.361-4.976-18.572-2.422-37.97 7.191-54.621 9.614-16.652 25.137-28.562 43.709-33.539 28.603-7.664 59.509 3.283 76.903 27.24a1 1 0 0 1-1.619 1.175c-16.909-23.291-46.957-33.933-74.767-26.483C88.831 62.24 73.74 73.82 64.393 90.009c-9.346 16.188-11.829 35.048-6.991 53.104 9.988 37.273 48.437 59.473 85.711 49.485 37.272-9.988 59.472-48.437 49.485-85.711a70.15 70.15 0 0 0-7.13-17.151 1.001 1.001 0 0 1 1.729-1.007 72.192 72.192 0 0 1 7.333 17.641c10.272 38.338-12.562 77.887-50.9 88.16a71.896 71.896 0 0 1-18.613 2.461"/><path fill="#48515A" d="M132.087 196.183c-21.688 0-43.804-16.925-55.385-43.73a1 1 0 1 1 1.836-.793c13.068 30.245 39.789 47.58 63.536 41.216a.999.999 0 1 1 .517 1.932 40.516 40.516 0 0 1-10.504 1.375m-56.888-49.325a.998.998 0 0 1-.943-.67 97.277 97.277 0 0 1-2.164-7.011c-4.962-18.52-4.268-37.38 1.954-53.104 6.264-15.827 17.375-26.597 31.285-30.324a1 1 0 0 1 .517 1.932C92.565 61.24 81.931 71.585 75.906 86.809c-6.066 15.328-6.733 33.742-1.882 51.85a95.973 95.973 0 0 0 2.118 6.868 1 1 0 0 1-.943 1.331M59.03 112.501a1.001 1.001 0 0 1-.258-1.966l6.233-1.671a1 1 0 0 1 .518 1.932l-6.233 1.67a.974.974 0 0 1-.26.035"/><path fill="#48515A" d="M75.651 108.047a1 1 0 0 1-.258-1.966l16.622-4.454a1 1 0 1 1 .518 1.932l-16.622 4.454a1.015 1.015 0 0 1-.26.034m91.419-24.495a1 1 0 0 1-.258-1.967l8.311-2.227a.999.999 0 1 1 .517 1.932l-8.31 2.227a1.016 1.016 0 0 1-.26.035m-92.452 87.124a1 1 0 0 1-.258-1.966l6.233-1.67a.999.999 0 1 1 .518 1.931l-6.233 1.671a1.015 1.015 0 0 1-.26.034m14.544-3.897a1 1 0 0 1-.258-1.966l18.699-5.011a1 1 0 0 1 .518 1.932l-18.7 5.011a1.002 1.002 0 0 1-.259.034m11.422-65.412a1 1 0 0 1-.258-1.967l33.243-8.907a1 1 0 1 1 .518 1.931l-33.244 8.908a1.009 1.009 0 0 1-.259.035m15.588 58.175a1 1 0 0 1-.258-1.966l33.243-8.908a.999.999 0 1 1 .517 1.932l-33.243 8.907a.972.972 0 0 1-.259.035m70.643-18.929a1 1 0 0 1-.258-1.967l4.154-1.112a1 1 0 1 1 .517 1.931l-4.153 1.113a.974.974 0 0 1-.26.035"/><path fill="#48515A" d="M102.933 134.989a1 1 0 0 1-.961-.728 207.39 207.39 0 0 1-.793-2.878c-10.447-38.988-8.167-72.334 5.191-75.913 10.722-2.876 25.282 14.7 36.227 43.725a1 1 0 1 1-1.871.706c-10.399-27.574-24.309-45.049-33.839-42.499-11.865 3.179-13.594 36.822-3.776 73.463.257.957.519 1.907.785 2.851a1 1 0 0 1-.963 1.273m38.351 59.846c-11.069 0-25.314-19.267-35.556-48.645a1 1 0 0 1 1.889-.658c10.451 29.98 25.361 49.775 35.496 47.066 11.864-3.18 13.594-36.821 3.775-73.463a211.751 211.751 0 0 0-3.011-10.214 1 1 0 0 1 1.904-.614 215.407 215.407 0 0 1 3.039 10.31c10.447 38.989 8.168 72.334-5.19 75.913a9.048 9.048 0 0 1-2.346.305m16.441-46.427a1.001 1.001 0 0 1-.258-1.967l12.464-3.339a1 1 0 1 1 .518 1.931l-12.464 3.34a1.016 1.016 0 0 1-.26.035m-15.588-58.176a1.001 1.001 0 0 1-.257-1.966l16.621-4.454a1 1 0 0 1 .517 1.932l-16.621 4.454a1.015 1.015 0 0 1-.26.034"/><path fill="#48515A" d="M142.137 90.232a1.001 1.001 0 0 1-.257-1.966l16.621-4.454a1 1 0 0 1 .517 1.932l-16.621 4.454a1.015 1.015 0 0 1-.26.034m.195 104.611a1 1 0 0 1-.258-1.967c27.536-7.378 41.812-43.705 31.825-80.979a95.823 95.823 0 0 0-2.679-8.419 1 1 0 0 1 1.875-.695 97.434 97.434 0 0 1 2.736 8.597c10.273 38.338-4.638 75.764-33.24 83.428a.962.962 0 0 1-.259.035"/><path fill="#48515A" d="M169.493 97.677a.997.997 0 0 1-.91-.583c-6.433-14.046-16.2-25.731-27.501-32.905-11.559-7.337-23.744-9.588-35.234-6.508a1 1 0 1 1-.517-1.932c24.395-6.541 51.153 10.123 65.07 40.512a1 1 0 0 1-.908 1.416"/><path fill="#FFF" d="M177.947 149.571l-.265-.075.259-.247.006.322M150.492 81.676l-.075.265-.246-.259.321-.006"/><path fill="#48515A" d="M38.826 190.024h2v-4h-2zM38.826 200.024h2v-4h-2zM42.826 194.024h4v-2h-4zM32.826 194.024h4v-2h-4zM208.928 200.03h2v-4h-2zM208.928 210.03h2v-4h-2zM212.928 204.03h4v-2h-4zM202.928 204.03h4v-2h-4zM168.904 49.94h2v-4h-2zM168.904 59.94h2v-4h-2zM172.904 53.94h4v-2h-4zM162.904 53.94h4v-2h-4z"/><path fill="#FFD15D" d="M206.928 91.232a2 2 0 1 1-4 0 2 2 0 0 1 4 0m3.09 19.57a1.545 1.545 0 1 1-3.09 0 1.545 1.545 0 0 1 3.09 0m-62.422-62.827a1.965 1.965 0 1 1-3.93 0 1.965 1.965 0 0 1 3.93 0"/><path fill="#5FE0ED" d="M191.423 53.637a2.303 2.303 0 1 1-4.606 0 2.303 2.303 0 0 1 4.606 0m-12.546-11.778a.598.598 0 1 1-1.197 0 .598.598 0 0 1 1.197 0"/></g></svg>