<?xml version="1.0" encoding="utf-8"?><svg xmlns="http://www.w3.org/2000/svg" width="250" height="250" viewBox="0 0 250 250"><g fill="none" fill-rule="evenodd"><path fill="#48515A" d="M32.521 192.712h-3.413v-2h2.583l19.852-19.903 9.493 9.491 3.976-3.976 1.414 1.414-5.39 5.39-9.491-9.489-19.024 19.073"/><path fill="#FFD15D" d="M134.051 181.22h-17.994v-15.005c-6.622-4.964-7.966-14.356-3.002-20.978a14.99 14.99 0 0 1 11.999-5.997h.002c8.279.001 14.991 6.713 14.991 14.992a15.045 15.045 0 0 1-5.996 11.981v15.007zm-64.963 23.779h113.911v-89.998H69.088v89.998z"/><path fill="#DEDEDD" d="M85.024 111.257h1.996V83.773c0-20.976 17.004-37.98 37.981-37.98 19.619 0 36.01 14.944 37.818 34.48h2.004c-1.933-21.993-21.33-38.255-43.323-36.322-20.642 1.815-36.475 19.101-36.476 39.822v27.484"/><path fill="#48515A" d="M132.051 179.219h-13.994v-14.048c-6.045-3.86-7.815-11.89-3.955-17.935a12.987 12.987 0 0 1 10.952-5.996c2.038-.006 4.05.472 5.867 1.396l-.904 1.784a10.878 10.878 0 0 0-4.963-1.18c-6.068-.004-10.99 4.913-10.994 10.981a10.99 10.99 0 0 0 5.498 9.524l.499.289v13.185h9.994v-13.187l.499-.289c5.165-2.979 7.011-9.534 4.159-14.77l1.756-.959c3.263 5.99 1.335 13.484-4.414 17.155v14.05zM187 208.999H65.088v-97.998H187v2H67.088v93.998h117.911V123h2l.001 85.999z"/><path fill="#48515A" d="M132.051 179.219h-13.994v-14.048c-6.045-3.86-7.815-11.89-3.955-17.935a12.987 12.987 0 0 1 10.952-5.996v2c-6.068-.004-10.99 4.913-10.994 10.981a10.99 10.99 0 0 0 5.498 9.524l.499.288v13.186h9.994v-13.187l.499-.289a11.035 11.035 0 0 0 5.497-9.511h2a13.042 13.042 0 0 1-5.996 10.937v14.05"/><path fill="#48515A" d="M125.071 155.662l-8.484-8.484 1.414-1.414 7.07 7.069 33.922-33.921 11.993 11.993 47.809-47.839 1.414 1.414-49.223 49.254-11.993-11.994-33.922 33.922"/><path fill="#48515A" d="M220.502 95.767h-2V84.773h-10.993v-2h12.993v12.994M91.02 111.255h-2V83.773c-.001-19.871 16.108-35.98 35.98-35.98 19.288 0 35.145 15.209 35.949 34.48h6c-.829-23.167-20.281-41.277-43.449-40.448-22.584.808-40.475 19.35-40.476 41.948v27.482h-2V83.773c.001-24.287 19.69-43.975 43.977-43.974 24.087 0 43.691 19.378 43.972 43.463l.011 1.011h-9.994l-.013-.985c-.27-18.765-15.7-33.759-34.465-33.489-18.574.266-33.491 15.399-33.492 33.974v27.482m60.852 77.675h55.165a3.014 3.014 0 0 0 3-3.021 2.953 2.953 0 0 0-2.924-2.98l-.076.001h-55.165l-6.507 3 6.507 3zm55.165 2h-55.604l-10.843-5 10.843-5h55.604a5 5 0 1 1 0 10z"/><path fill="#48515A" d="M198.996 189.93h2v-8h-2z"/><path fill="#48515A" d="M151.996 186.93h48v-2h-48zM35.044 126.989h2v-4h-2zM35.044 136.989h2v-4h-2zM39.044 130.989h4v-2h-4zM29.044 130.989h4v-2h-4zM181.056 50.983h2v-4h-2zM181.056 60.983h2v-4h-2zM185.056 54.983h4v-2h-4zM175.056 54.983h4v-2h-4zM213.055 155.001h2v-4h-2zM213.055 165.001h2v-4h-2zM217.055 159.001h4v-2h-4zM207.055 159.001h4v-2h-4z"/><path fill="#DEDEDD" d="M145.903 87.048l-15.564-6.671-2.674 1.604 8.232 8.232-2.828 2.828-8.111-8.111-1.624 3.267 6.797 16.46 4.833-9.72 8.111 8.111 2.828-2.829-8.232-8.232 8.232-4.939"/><path fill="#48515A" d="M109.758 66.927l10.451 25.309 4.473-8.996 8.387 8.387 1.414-1.414-8.43-8.431 7.653-4.592-23.948-10.263zm10.282 30.14l-14.003-33.911 32.052 13.737-8.812 5.287 8.034 8.033-4.242 4.243-7.835-7.835-5.194 10.446z"/></g></svg>