<?xml version="1.0" encoding="utf-8"?><svg xmlns="http://www.w3.org/2000/svg" width="250" height="250" viewBox="0 0 250 250"><g fill="none" fill-rule="evenodd"><path fill="#48515A" d="M78.9 35.774a1.407 1.407 0 1 0 0 2.814 1.407 1.407 0 0 0 0-2.814zm0 4.813a3.406 3.406 0 1 1-.001-6.813 3.406 3.406 0 0 1 .001 6.813zm9.627-4.813a1.406 1.406 0 1 0 0 2.812 1.406 1.406 0 0 0 0-2.812zm0 4.813a3.406 3.406 0 1 1 0-6.812 3.406 3.406 0 0 1 0 6.812zm9.627-4.813a1.406 1.406 0 1 0 0 2.812 1.406 1.406 0 0 0 0-2.812zm0 4.813a3.406 3.406 0 1 1 0-6.812 3.406 3.406 0 0 1 0 6.812z"/><path fill="#DEDEDD" d="M126.949 131.025h44.004v-26h-44.004zM78.946 131.025h44.003v-26H78.946z"/><path fill="#FFD45C" d="M78.951 101.003h92.1V78.005h-92.1z"/><path fill="#5FE0ED" d="M208.02 55a3 3 0 1 1 0 6 3 3 0 0 1 0-6"/><path fill="#DEDEDD" d="M181.824 93.372l-28-12 12.227 29.61 4.833-9.721 7.081 7.081 2.923-2.734-7.297-7.297 8.233-4.939M71 140.993V63H52.318L71 140.993"/><path fill="#DEDEDD" d="M178 140.993V63h18.972L178 140.993M50 143.983v13.157c0 1.329 1.096 2.86 2.425 2.86h144.188c1.33 0 2.387-1.531 2.387-2.86v-12.936l-149-.221"/><path fill="#DEDEDD" d="M108 174h34v-14h-34zM72 44h106V30H72z"/><path fill="#48515A" d="M196.613 161H52.425c-1.96 0-3.425-2.038-3.425-3.86V65.192A3.242 3.242 0 0 1 52.425 62H71v2H52.425a1.276 1.276 0 0 0-1.418 1.118c-.003.025-.006.049-.007.074v91.948c0 .887.746 1.86 1.425 1.86h144.188c.661 0 1.387-.973 1.387-1.86V65.064a1.4 1.4 0 0 0-1.379-1.415l-18.751.119-.013-2 18.758-.118A3.401 3.401 0 0 1 200 65.064v92.076c0 1.822-1.448 3.86-3.387 3.86M98 175h53v-2H98z"/><path fill="#48515A" d="M107 174h2v-14h-2zM140 174h2v-14h-2zM179 144h-2V31H73v113h-2V29h108v115"/><path fill="#DEDEDD" d="M62 184h100a2 2 0 0 1 2 2v32a2 2 0 0 1-2 2H62a2 2 0 0 1-2-2v-32a2 2 0 0 1 2-2"/><path fill="#48515A" d="M62 185a1.002 1.002 0 0 0-1 1v32c.001.552.448.999 1 1h100a1.002 1.002 0 0 0 1-1v-32a1.002 1.002 0 0 0-1-1H62zm100 36H62a3.004 3.004 0 0 1-3-3v-32a3.004 3.004 0 0 1 3-3h100a3.004 3.004 0 0 1 3 3v32a3.004 3.004 0 0 1-3 3z"/><path fill="#FFF" d="M65 191h6v-2h-6v2zm-2 2h10v-6H63v6zm14-2h2v-2h-2v2zm-2 2h6v-6h-6v6zm10-2h2v-2h-2v2zm-2 2h6v-6h-6v6zm10-2h2v-2h-2v2zm-2 2h6v-6h-6v6zm10-2h2v-2h-2v2zm-2 2h6v-6h-6v6zm10-2h2v-2h-2v2zm-2 2h6v-6h-6v6zm10-2h2v-2h-2v2zm-2 2h6v-6h-6v6zm10-2h2v-2h-2v2zm-2 2h6v-6h-6v6zm10-2h2v-2h-2v2zm-2 2h6v-6h-6v6zm10-2h2v-2h-2v2zm-2 2h6v-6h-6v6zm10-2h2v-2h-2v2zm-2 2h6v-6h-6v6zm10-2h2v-2h-2v2zm-2 2h6v-6h-6v6zm-90 6h2v-2h-2v2zm-2 2h6v-6h-6v6zm10-2h2v-2h-2v2zm-2 2h6v-6h-6v6zm10-2h2v-2h-2v2zm-2 2h6v-6h-6v6zm10-2h2v-2h-2v2zm-2 2h6v-6h-6v6zm10-2h2v-2h-2v2zm-2 2h6v-6h-6v6zm10-2h2v-2h-2v2zm-2 2h6v-6h-6v6zm10-2h2v-2h-2v2zm-2 2h6v-6h-6v6zm10-2h2v-2h-2v2zm-2 2h6v-6h-6v6zm10-2h2v-2h-2v2zm-2 2h6v-6h-6v6zm10-2h2v-2h-2v2zm-2 2h6v-6h-6v6zm10-2h2v-2h-2v2zm-2 2h6v-6h-6v6zm10-2h6v-2h-6v2zm-2 2h10v-6h-10v6zm-86 6h6v-2h-6v2zm-2 2h10v-6H63v6zm14-2h2v-2h-2v2zm-2 2h6v-6h-6v6zm10-2h2v-2h-2v2zm-2 2h6v-6h-6v6zm10-2h2v-2h-2v2zm-2 2h6v-6h-6v6zm10-2h2v-2h-2v2zm-2 2h6v-6h-6v6zm10-2h2v-2h-2v2zm-2 2h6v-6h-6v6zm10-2h2v-2h-2v2zm-2 2h6v-6h-6v6zm10-2h2v-2h-2v2zm-2 2h6v-6h-6v6zm10-2h2v-2h-2v2zm-2 2h6v-6h-6v6zm10-2h2v-2h-2v2zm-2 2h6v-6h-6v6zm10-2h2v-2h-2v2zm-2 2h6v-6h-6v6zm10-2h2v-2h-2v2zm-2 2h6v-6h-6v6zm-90 6h2v-2h-2v2zm-2 2h6v-6h-6v6zm10-2h2v-2h-2v2zm-2 2h6v-6h-6v6zm10-2h2v-2h-2v2zm-2 2h6v-6h-6v6zm10-2h2v-2h-2v2zm-2 2h6v-6h-6v6zm10-2h38v-2H97v2zm-2 2h42v-6H95v6zm46-2h2v-2h-2v2zm-2 2h6v-6h-6v6zm10-2h2v-2h-2v2zm-2 2h6v-6h-6v6zm10-2h2v-2h-2v2zm-2 2h6v-6h-6v6z"/><path fill="#48515A" d="M109 183v-.008a5.02 5.02 0 0 1 5.039-4.992h85.011a3 3 0 1 0 0-6h-32a5.035 5.035 0 0 1-5.05-5.008V159h2v7.992a3.033 3.033 0 0 0 3.05 3.008h32a5 5 0 1 1 0 10h-85.011a3.019 3.019 0 0 0-3.039 2.992l-2 .008"/><path fill="#DEDEDD" d="M179 187h12a4 4 0 0 1 4 4v22a4 4 0 0 1-4 4h-12a4 4 0 0 1-4-4v-22a4 4 0 0 1 4-4"/><path fill="#48515A" d="M184 195h2v-8h-2z"/><path fill="#48515A" d="M179 188a3.004 3.004 0 0 0-3 3v22a3.004 3.004 0 0 0 3 3h12a3.004 3.004 0 0 0 3-3v-22a3.004 3.004 0 0 0-3-3h-12zm12 30h-12a5.006 5.006 0 0 1-5-5v-22a5.006 5.006 0 0 1 5-5h12a5.006 5.006 0 0 1 5 5v22a5.006 5.006 0 0 1-5 5z"/><path fill="#FFF" d="M171.818 83.366l-28-12 12.227 29.61 4.833-9.721 8.111 8.111 2.829-2.828-8.233-8.233 8.233-4.939"/><path fill="#48515A" d="M145.678 73.251l10.451 25.31 4.473-8.996 8.387 8.387 1.414-1.414-8.43-8.431 7.653-4.592-23.948-10.264zm10.282 30.141l-14.003-33.911 32.052 13.736-8.811 5.287 8.033 8.034-4.242 4.242-7.834-7.834-5.195 10.446z"/><path fill="#FFF" d="M105.424 140H38.023a3.918 3.918 0 0 0-3.999 3.835l-.001.068v.048a4.042 4.042 0 0 0 4 4.049h67.401l8.675-4-8.675-4"/><path fill="#48515A" d="M38.023 141a2.92 2.92 0 0 0-2.999 2.841l-.001.062A3.04 3.04 0 0 0 38.004 147H105.205l6.506-3-6.506-3H38.023zm67.62 8h-67.62a5.03 5.03 0 0 1-5-5.048 4.911 4.911 0 0 1 5-4.952h67.621l10.843 5-10.844 5z"/><path fill="#48515A" d="M44 148h2v-8h-2z"/><path fill="#48515A" d="M45 145h60v-2H45zM46.02 44a2 2 0 1 0-.001 3.999A2 2 0 0 0 46.02 44zm0 6a4 4 0 1 1 0-8 4 4 0 0 1 0 8z"/><path fill="#FFD15D" d="M48.02 167a5 5 0 1 1 0 10 5 5 0 0 1 0-10"/><path fill="#48515A" d="M213 187h2v-4h-2zM213 197h2v-4h-2zM217 191h4v-2h-4zM207 191h4v-2h-4zM35 69h2v-4h-2zM35 79h2v-4h-2zM39 73h4v-2h-4zM29 73h4v-2h-4z"/><path fill="#5FE0ED" d="M127.971 49.98a1 1 0 0 1-1 1h-24.005a1 1 0 1 1 0-2h24.005a1 1 0 0 1 1 1zm-52.999 3.001h100.005v-6.104H74.972v6.104z"/><path fill="#48515A" d="M78.961 64.994h50v-2h-50zM78.961 60.992h39.995v-2H78.961zM78.961 72.999h50v-2h-50zM78.961 68.997h39.995v-2H78.961z"/><path fill="#FFD15D" d="M71.968 95.508c9.941 0 18 8.059 18 18s-8.059 18-18 18-18-8.059-18-18 8.059-18 18-18"/><path fill="#48515A" d="M74.461 120.481h-5.558a3.204 3.204 0 0 1-3.191-3.207h2a1.2 1.2 0 0 0 1.191 1.207h5.558a1.517 1.517 0 0 0 1.508-1.523v-.951a1.51 1.51 0 0 0-1.508-1.508H68.98a3.512 3.512 0 0 1-3.508-3.508v-.951a3.512 3.512 0 0 1 3.508-3.508h5.892a2.77 2.77 0 0 1 2.767 2.767h-2a.768.768 0 0 0-.767-.767H68.98a1.51 1.51 0 0 0-1.508 1.508v.951a1.51 1.51 0 0 0 1.508 1.508h5.481a3.512 3.512 0 0 1 3.508 3.508v.951a3.52 3.52 0 0 1-3.508 3.523"/><path fill="#48515A" d="M71.001 122.507h2v-18h-2z"/><path fill="#FFD15D" d="M178.031 44.477c9.941 0 18 8.059 18 18s-8.059 18-18 18-18-8.059-18-18 8.059-18 18-18"/><path fill="#48515A" d="M180.525 69.451h-5.559a3.203 3.203 0 0 1-3.19-3.208h2a1.2 1.2 0 0 0 1.19 1.208h5.559a1.518 1.518 0 0 0 1.508-1.524v-.95a1.51 1.51 0 0 0-1.508-1.508h-5.481a3.512 3.512 0 0 1-3.508-3.509v-.951a3.512 3.512 0 0 1 3.508-3.508h5.892a2.771 2.771 0 0 1 2.767 2.767h-2a.768.768 0 0 0-.767-.767h-5.892a1.51 1.51 0 0 0-1.508 1.508v.951a1.51 1.51 0 0 0 1.508 1.509h5.481a3.512 3.512 0 0 1 3.508 3.508v.95a3.52 3.52 0 0 1-3.508 3.524"/><path fill="#48515A" d="M177.065 71.477h2v-18h-2z"/></g></svg>