<?xml version="1.0" encoding="utf-8"?><svg xmlns="http://www.w3.org/2000/svg" width="250" height="250" viewBox="0 0 250 250"><g fill="none" fill-rule="evenodd"><path fill="#DBDBD5" d="M135.766 124.809h5.352l-.003 10.076h-.593l8.126 20.011h12.479l.003-10.075h-5.352l3.05-13.521-15.766-38.834-7.296 32.343M104.091 200.256l21.293-10.555 21.293 10.555h-42.586zm64.052 10.64h26.238l-63.388-31.42-11.33.055-2.102 1.042-5.296 2.626-55.878 27.697h26.237l12.758-6.323h60.004l12.757 6.323z"/><path fill="#434A4F" d="M59.917 48.273h.01-.01zm-3.677-7.878a4.172 4.172 0 0 0-2.97 1.231 4.206 4.206 0 0 0 0 5.94 4.206 4.206 0 0 0 5.94 0 4.205 4.205 0 0 0 0-5.94 4.17 4.17 0 0 0-2.97-1.231zm0 10.398a6.18 6.18 0 0 1-4.384-1.813 6.208 6.208 0 0 1 0-8.768 6.16 6.16 0 0 1 4.384-1.816 6.16 6.16 0 0 1 4.384 1.816 6.206 6.206 0 0 1 0 8.768 6.178 6.178 0 0 1-4.384 1.813z"/><path fill="#434A4F" d="M61.463 45.597h57.596v-2H61.463zM195.428 40.395a4.168 4.168 0 0 0-2.969 1.231 4.204 4.204 0 0 0 0 5.94 4.206 4.206 0 0 0 5.94 0 4.206 4.206 0 0 0 0-5.94 4.176 4.176 0 0 0-2.971-1.231zm0 10.398a6.177 6.177 0 0 1-4.383-1.813 6.206 6.206 0 0 1 0-8.768 6.157 6.157 0 0 1 4.383-1.816 6.16 6.16 0 0 1 4.385 1.816 6.208 6.208 0 0 1 0 8.768 6.182 6.182 0 0 1-4.385 1.813z"/><path fill="#434A4F" d="M131.609 45.597h59.022v-2h-59.022zM148.163 159.025l-12.839-31.621-.771 3.418 10.639 26.203h-39.616l10.614-26.141h-.073l-.718-3.369-12.794 31.51h45.558"/><path fill="#434A4F" d="M131.544 53.469l-.861.349 13.613 33.808-.372 1.653 48.971 120.617h-24.079l-12.757-31.419H94.708l-12.757 31.419H57.872l49.24-121.276-.212-.994 13.101-33.521-.888-.36-64.211 158.151h28.396l12.757-31.419h58.659l12.756 31.419h28.396L131.544 53.469"/><path fill="#434A4F" d="M116.926 129.884h16.813l9.514-42.174-17.618-43.753h-.594L107.94 87.711l8.986 42.173zm18.413 2h-20.032l-9.448-44.343 17.817-45.584h3.31l18.355 45.585-10.002 44.342z"/><path fill="#434A4F" d="M132.609 48.564h-2v-8.461h-10.55v8.461h-2v-10.46h14.55v10.46M125.129 90.895c-1.103 0-2 .898-2 2 0 1.103.897 2 2 2 1.102 0 2-.897 2-2 0-1.102-.898-2-2-2zm0 6c-2.205 0-4-1.793-4-4 0-2.206 1.795-4 4-4 2.206 0 4 1.794 4 4 0 2.207-1.794 4-4 4z"/><path fill="#434A4F" d="M124.129 90.895h2V41.957h-2z"/><path fill="#42494E" d="M63.775 124.537l-1.902-.621.3-.918-1.171-.381a3.493 3.493 0 0 1-2.447-3.375 3.493 3.493 0 0 1 2.454-3.369l1.171-.38-.638-1.972-1.172.379a3.49 3.49 0 0 1-3.963-1.292 3.492 3.492 0 0 1 .004-4.167l.725-.996-1.675-1.219-.725.996a3.493 3.493 0 0 1-3.966 1.283 3.492 3.492 0 0 1-2.446-3.373l.001-1.233-2.072-.002-.001 1.233a3.494 3.494 0 0 1-2.453 3.369c-1.49.481-3.045-.024-3.963-1.292l-.723-.997-1.678 1.216.723.998a3.492 3.492 0 0 1-.004 4.167 3.499 3.499 0 0 1-3.965 1.285l-1.172-.383-.299.919-1.901-.619.919-2.821 3.073 1.003c.785.254 1.408-.122 1.728-.561.319-.438.488-1.146.002-1.816l-1.897-2.618 4.916-3.563 1.897 2.616c.487.671 1.211.732 1.727.563.517-.167 1.069-.641 1.07-1.468l.003-3.232 6.072.005-.003 3.233c-.001.827.55 1.302 1.066 1.47.517.167 1.241.109 1.729-.56l1.902-2.611 4.909 3.573-1.902 2.613c-.487.669-.32 1.376-.002 1.816.319.439.94.814 1.728.563l3.075-.996 1.87 5.778-3.074.995c-.788.255-1.069.926-1.07 1.469 0 .543.28 1.215 1.067 1.471l3.073 1.002-.92 2.82"/><path fill="#42494E" d="M55.001 121.75l-1.902-.619a6.083 6.083 0 0 0-.363-4.676 6.087 6.087 0 0 0-3.563-3.049 6.077 6.077 0 0 0-4.675.364 6.082 6.082 0 0 0-3.049 3.562l-1.901-.619a8.071 8.071 0 0 1 4.044-4.727 8.083 8.083 0 0 1 6.201-.482 8.074 8.074 0 0 1 4.726 4.045 8.07 8.07 0 0 1 .482 6.201"/><path fill="#42494E" d="M47.289 127.293a8.123 8.123 0 0 1-2.513-.4c-4.26-1.391-6.596-5.987-5.207-10.247l1.902.62a6.132 6.132 0 0 0 3.925 7.724 6.134 6.134 0 0 0 7.725-3.925l1.901.62c-1.117 3.426-4.309 5.608-7.733 5.608"/><path fill="#42494E" d="M50.314 136.501l-6.073-.006.003-3.232c.001-.828-.55-1.303-1.066-1.471-.515-.168-1.241-.109-1.729.56l-1.902 2.613-4.909-3.575 1.903-2.614c.487-.669.32-1.377.002-1.815-.319-.44-.941-.818-1.728-.565l-3.074.997-1.871-5.778 3.075-.995c.788-.255 1.069-.926 1.069-1.469.001-.543-.279-1.214-1.066-1.47l-3.072-1.002 1.031-3.162 1.901.619-.411 1.261 1.171.381a3.494 3.494 0 0 1 2.446 3.375 3.49 3.49 0 0 1-2.453 3.369l-1.172.38.639 1.971 1.172-.379a3.492 3.492 0 0 1 3.962 1.293 3.494 3.494 0 0 1-.004 4.167l-.726.996 1.676 1.22.725-.996c.922-1.264 2.478-1.769 3.965-1.283a3.49 3.49 0 0 1 2.446 3.374l-.001 1.232 2.073.002.001-1.231a3.495 3.495 0 0 1 2.454-3.371c1.489-.477 3.044.027 3.962 1.293l.723.998 1.678-1.217-.723-.997a3.492 3.492 0 0 1 .004-4.168c.922-1.266 2.478-1.767 3.966-1.285l1.17.383.457-1.4 1.901.619-1.076 3.303-3.073-1.003c-.784-.255-1.408.12-1.728.56-.319.439-.488 1.147-.002 1.817l1.897 2.616-4.917 3.564-1.897-2.616c-.486-.671-1.21-.733-1.727-.563-.516.167-1.068.64-1.069 1.469l-.003 3.231"/><path fill="#FACD60" d="M215.604 140.875a8.501 8.501 0 1 1-17.002 0 8.501 8.501 0 0 1 17.002 0"/><path fill="#434A4F" d="M213.405 158.233a1 1 0 0 1-1-1v-3.032c0-2.004.828-3.902 2.332-5.345a10.904 10.904 0 0 0 3.393-7.937 10.92 10.92 0 0 0-3.441-8 10.91 10.91 0 0 0-8.187-3.006c-5.656.302-10.229 4.977-10.411 10.642a11.013 11.013 0 0 0 3.44 8.352c1.47 1.391 2.279 3.215 2.279 5.138v3.188a1 1 0 1 1-2 0v-3.188c0-1.367-.587-2.676-1.654-3.685a13.008 13.008 0 0 1-4.063-9.87c.214-6.694 5.619-12.218 12.301-12.575 3.621-.189 7.052 1.068 9.671 3.552a12.907 12.907 0 0 1 4.065 9.452c0 3.571-1.424 6.902-4.008 9.381-1.108 1.061-1.717 2.447-1.717 3.901v3.032a1 1 0 0 1-1 1"/><path fill="#434A4F" d="M207.197 165.391a1 1 0 0 1-.009-2l2.689-.025a2.924 2.924 0 0 0 1.675-.828c.55-.55.853-1.279.853-2.057v-3.138a1 1 0 1 1 2 0v3.138a4.878 4.878 0 0 1-1.438 3.472 4.937 4.937 0 0 1-2.91 1.405l-.105.007-2.746.026h-.009"/><path fill="#434A4F" d="M215.698 158.231h-17.001a1 1 0 1 1 0-2h17.001a1 1 0 1 1 0 2"/><path fill="#434A4F" d="M207.197 165.391h-2.478a4.876 4.876 0 0 1-3.471-1.439 4.942 4.942 0 0 1-1.438-3.471v-2.825a1 1 0 0 1 2 0v2.825c0 .767.311 1.516.852 2.056.55.551 1.28.854 2.057.854h2.478a1 1 0 1 1 0 2M210.212 157.233h-2v-7.332l5.212-9.918v-1.17h2v1.665l-5.212 9.918v6.837M205.962 157.233h-2v-6.837l-5.211-9.918v-1.665h2v1.17l5.211 9.918v7.332M202.29 139.526c0-.56.449-1 1-1 .559 0 1 .44 1 1 0 .55-.441 1-1 1-.551 0-1-.45-1-1zm4 0c0-.56.449-1 1-1 .55 0 1 .44 1 1 0 .55-.45 1-1 1-.551 0-1-.45-1-1zm4 0c0-.56.449-1 1-1 .55 0 1 .44 1 1 0 .55-.45 1-1 1-.551 0-1-.45-1-1zM54.13 153.896h2v-4h-2zM54.13 163.896h2v-4h-2zM58.13 157.896h4v-2h-4zM48.13 157.896h4v-2h-4zM171.13 72.896h2v-4h-2zM171.13 82.896h2v-4h-2zM175.13 76.896h4v-2h-4zM165.13 76.896h4v-2h-4zM195.13 108.896h2v-4h-2zM195.13 118.896h2v-4h-2zM199.13 112.896h4v-2h-4zM189.13 112.896h4v-2h-4z"/><path fill="#E9886C" d="M57.13 191.896a3.001 3.001 0 0 0-6 0 3 3 0 1 0 6 0"/><path fill="#FACD60" d="M165.13 107.896a3.001 3.001 0 0 0-6 0 3 3 0 1 0 6 0m-96-24a3.001 3.001 0 0 0-6 0 3 3 0 1 0 6 0"/><path fill="#75C7D0" d="M211.13 179.896a3.001 3.001 0 0 0-6 0 3 3 0 1 0 6 0"/><path fill="#E9886C" d="M109.454 134.834l31.758.001.003-9.435h-31.759l-.002 9.434"/><path fill="#434A4F" d="M142.206 136.115l-33.759-.001.003-12.075 33.759.001-.003 12.075zm-31.758-2.001l29.758.001.003-8.075-29.76-.001-.001 8.075z"/></g></svg>