<?xml version="1.0" encoding="utf-8"?><svg xmlns="http://www.w3.org/2000/svg" width="250" height="250" viewBox="0 0 250 250"><g fill="none" fill-rule="evenodd"><path fill="#FACD60" d="M130.431 81.119v3.061l35.222 21.33 39.652-24.422-74.874.031"/><path fill="#FACD60" d="M172.478 127.071h21.557v-6h-21.557v6zm-6.852-20.875L130.431 84.09v46.051h76.205V79.946l-41.01 26.25z"/><path fill="#434A4F" d="M104.417 221.067c-.059 0-.129 0-.19-.02-.069-.01-.13-.03-.189-.05a2.194 2.194 0 0 1-.17-.09.625.625 0 0 1-.151-.13.872.872 0 0 1-.219-.32c-.05-.13-.081-.25-.081-.39 0-.13.031-.26.081-.38.049-.12.12-.23.219-.32.271-.28.721-.37 1.08-.22l.18.09c.051.04.101.08.15.13.18.18.29.44.29.7 0 .27-.11.52-.29.71a.986.986 0 0 1-.71.29m8.01.01a.986.986 0 0 1-.71-.3.98.98 0 0 1 0-1.41c.04-.05.101-.09.151-.13.049-.03.109-.06.17-.09.059-.02.129-.04.189-.06.32-.06.671.04.9.28a.978.978 0 0 1 0 1.41.973.973 0 0 1-.7.3M103.419 217.072h2v-50.98h-2zM111.419 217.072h2v-50.98h-2z"/><path fill="#DDDED9" d="M104.419 167.042h8v-23.964h-8z"/><path fill="#434A4F" d="M103.419 143.32v23.722h2v-23.703c-.667-.007-1.334-.016-2-.019m8 .184v23.538h2v-23.745c-.632.228-1.309.24-2 .207"/><path fill="#434A4F" d="M118.428 144.071h-20v-6.625h2v4.625h16v-4.625h2v6.625"/><path fill="#E9886C" d="M126.419 136.074v1m0 0v-1h-89V81.899c0-14.24 11.585-25.825 25.825-25.825h82.747a26.86 26.86 0 0 1 7.252-1c.338 0 .667.032 1.001.044v-1.044h-91c-15.343 0-27.825 12.482-27.825 27.825v56.175"/><path fill="#E9886C" d="M101.412 99.074a4 4 0 1 1 0-8 4 4 0 0 1 0 8zm-38.169-44c-14.814 0-26.824 12.01-26.824 26.825v55.175h90V81.899c0-14.815 12.01-26.825 26.824-26.825h-90z"/><path fill="#434A4F" d="M181.068 138.074h-55.649V81.899c0-15.343 12.482-27.825 27.825-27.825a27.877 27.877 0 0 1 17.629 6.297l-1.268 1.547a25.869 25.869 0 0 0-16.361-5.844c-14.24 0-25.825 11.585-25.825 25.825v54.175h51.649v-3.128h2v5.128"/><path fill="#434A4F" d="M153.244 220.074c-15.343 0-27.825-12.481-27.825-27.824v-56.176h55.649v5.243h-2v-3.243h-51.649v54.176c0 14.24 11.585 25.824 25.825 25.824a25.788 25.788 0 0 0 23.795-15.772l1.841.779a27.782 27.782 0 0 1-25.636 16.993"/><path fill="#FFFFFE" d="M126.419 133.074h54"/><path fill="#434A4F" d="M126.419 134.074h54v-2h-54z"/><path fill="#DDDED9" d="M131.43 131.821V78.06h44.315c-1.83-10.764-11.224-18.986-22.502-18.986-12.585 0-22.824 10.239-22.824 22.825v51.175l1.011-1.253"/><path fill="#434A4F" d="M210.792 134.052h-80.327v-2h78.327v-27.838h2v29.838M210.792 99.285h-2v-20.08h-5.115v-2h7.115v22.08M130.465 79.205h35.088v-2h-35.088z"/><path fill="#434A4F" d="M165.627 107.364L129.993 84.89l1.066-1.691 34.566 21.799 43.631-27.638 1.071 1.69-44.7 28.314M204.761 129.012a1 1 0 0 1-.769-.36l-22.977-27.567a1 1 0 0 1 1.537-1.28l22.977 27.567a1 1 0 0 1-.768 1.64m5.086-26.335a.993.993 0 0 1-1-1c0-.26.101-.52.29-.7.38-.37 1.04-.37 1.41 0a.978.978 0 0 1 0 1.41.964.964 0 0 1-.7.29"/><path fill="#42494E" d="M175.04 125.072h11.763v-2H175.04z"/><path fill="#434A4F" d="M130.833 123.719a1 1 0 0 1-.768-1.64l18.564-22.274a1.002 1.002 0 0 1 1.538 1.28l-18.565 22.274a1 1 0 0 1-.769.36"/><path fill="#434A4F" d="M131.419 133.074h-2V81.899c0-13.137 10.688-23.825 23.825-23.825v2c-12.035 0-21.825 9.791-21.825 21.825v51.175M50.395 180.85h42.261v-25.482H50.395v25.482zm-2 2h46.261v-29.482H48.395v29.482z"/><path fill="#434A4F" d="M71.525 169.386a.993.993 0 0 1-.537-.157l-16.123-10.275 1.074-1.686 15.584 9.931 14.949-9.59 1.08 1.683-15.487 9.936a1.007 1.007 0 0 1-.54.158M89.496 178.921l-8.923-10.706 1.537-1.28 8.923 10.706-1.537 1.28M53.555 178.921l-1.537-1.28 8.923-10.706 1.537 1.28-8.923 10.706M72.376 198.782h2v-14.036h-2zM73.377 203.127c-.269 0-.519-.11-.71-.29a.657.657 0 0 1-.12-.16.89.89 0 0 1-.099-.17.978.978 0 0 1-.05-.19c-.021-.06-.021-.13-.021-.19 0-.07 0-.13.021-.2a1.1 1.1 0 0 1 .05-.18c.029-.06.059-.12.099-.18.031-.05.071-.1.12-.15a1.001 1.001 0 0 1 1.26-.12c.061.03.111.08.151.12.189.19.299.45.299.71 0 .26-.11.52-.299.71-.04.04-.09.08-.151.12a.545.545 0 0 1-.17.09.597.597 0 0 1-.189.06c-.061.01-.13.02-.191.02M81.068 190.085h2v-5.339h-2zM82.068 194.427a.982.982 0 0 1-.38-.07c-.12-.05-.231-.13-.33-.22-.04-.05-.091-.1-.12-.15a.535.535 0 0 1-.09-.17.7.7 0 0 1-.061-.19 1.004 1.004 0 0 1 .601-1.12 1 1 0 0 1 1.38.92c0 .07-.011.14-.021.2a.694.694 0 0 1-.059.19.737.737 0 0 1-.09.17l-.12.15c-.101.09-.21.17-.33.22-.12.05-.25.07-.38.07M63.678 192.984h2v-8.238h-2zM64.677 197.327c-.26 0-.519-.11-.71-.29l-.12-.15a.797.797 0 0 1-.09-.18.603.603 0 0 1-.059-.18c-.01-.07-.021-.13-.021-.2 0-.13.03-.26.08-.38s.12-.23.21-.32c.37-.37 1.05-.38 1.42 0 .09.09.16.2.21.32.061.12.08.25.08.38 0 .07 0 .13-.019.2a.639.639 0 0 1-.061.18.721.721 0 0 1-.09.18c-.03.05-.08.1-.12.15-.189.18-.449.29-.71.29"/><path fill="#E9886C" d="M80.41 41.069h22.003V29.068H80.41z"/><path fill="#434A4F" d="M100.413 91.893h2V29.067h-2z"/><path fill="#434A4F" d="M101.413 92.074c-1.655 0-3 1.346-3 3 0 1.655 1.345 3 3 3 1.654 0 3-1.345 3-3 0-1.654-1.346-3-3-3zm0 8c-2.757 0-5-2.243-5-5 0-2.756 2.243-5 5-5 2.756 0 5 2.244 5 5 0 2.757-2.244 5-5 5zM41.428 45.071h2v-4h-2zM41.428 55.071h2v-4h-2zM45.428 49.071h4v-2h-4zM35.428 49.071h4v-2h-4z"/><path fill="#FACD60" d="M189.999 148.356a2.715 2.715 0 1 1 5.43.001 2.715 2.715 0 0 1-5.43-.001"/><path fill="#434A4F" d="M36.428 146.071c-1.102 0-2 .897-2 2s.898 2 2 2c1.103 0 2-.897 2-2s-.897-2-2-2zm0 6c-2.206 0-4-1.795-4-4 0-2.206 1.794-4 4-4s4 1.794 4 4c0 2.205-1.794 4-4 4zm119.999-92.004c-.26 0-.519-.1-.71-.29-.179-.19-.29-.44-.29-.71 0-.13.031-.26.08-.38.05-.12.12-.23.21-.32.37-.38 1.05-.38 1.42 0 .09.09.16.2.21.32.051.12.08.25.08.38 0 .27-.109.52-.29.71-.189.19-.449.29-.71.29m10.415-10.297l29.883 29.883 18.019-18.019-29.883-29.883-18.019 18.019zm29.883 32.711L164.014 49.77l20.847-20.847 32.711 32.711-20.847 20.847z"/><path fill="#434A4F" d="M208.361 60.8l-17.977-3.925a1 1 0 0 1-.763-.76l-4.136-18.667 1.953-.433 3.997 18.043 17.352 3.788-.426 1.954M197.847 76.236l-1.992-.181 1.261-13.88 1.992.181-1.261 13.88M170.441 50.64l-.182-1.992 13.88-1.261.182 1.993-13.88 1.26M171.12 79.407l-1.414-1.414 9.924-9.925 1.414 1.414-9.924 9.925M168.047 82.067c-.259 0-.519-.11-.71-.29-.089-.1-.16-.21-.21-.33-.049-.12-.08-.25-.08-.38s.031-.26.08-.38c.05-.13.121-.24.21-.33.281-.28.72-.37 1.09-.22.13.05.231.13.33.22.09.09.16.2.21.33.05.12.08.25.08.38s-.03.26-.08.38-.12.23-.21.33c-.099.09-.2.16-.33.21-.12.05-.25.08-.38.08M183.416 79.403l-1.415-1.414 3.776-3.775 1.414 1.414-3.775 3.775M180.337 82.067a.98.98 0 0 1-.7-.3.98.98 0 0 1 0-1.41c.37-.37 1.04-.37 1.41 0 .191.18.29.44.29.71 0 .26-.099.52-.29.7a.979.979 0 0 1-.71.3M169.07 69.157l-1.414-1.414 5.825-5.825 1.414 1.414-5.825 5.825M165.998 71.817c-.071 0-.13-.01-.201-.02a.63.63 0 0 1-.179-.06c-.061-.02-.12-.06-.18-.09a1.482 1.482 0 0 1-.15-.13c-.18-.18-.29-.44-.29-.7 0-.13.03-.26.08-.39.049-.12.12-.23.21-.32.37-.37 1.04-.37 1.42 0 .089.09.16.2.209.32.05.13.081.26.081.39 0 .26-.111.52-.29.7-.191.19-.451.3-.71.3m12.792 74.677a7.673 7.673 0 0 1 2.33 5.509v.989c0 .443-.291.832-.715.959a22.351 22.351 0 0 0-12.381 9.26c-3.368 5.2-4.422 11.383-2.967 17.407 1.453 6.022 5.222 11.047 10.611 14.149 10.003 5.758 23.348 2.612 29.745-7.012a22.336 22.336 0 0 0 1.022-23.091l-.199-.347a22.6 22.6 0 0 0-6.02-6.825l-1.301-.92a22.337 22.337 0 0 0-10.614-3.512 1 1 0 0 1-.801-.501 12.404 12.404 0 0 0-8.71-6.065zm7.957 53.233c-4.12 0-8.283-1.043-12.077-3.227-5.869-3.379-9.973-8.852-11.557-15.412-1.585-6.564-.437-13.299 3.231-18.964a24.357 24.357 0 0 1 12.776-9.865v-.256a5.674 5.674 0 0 0-5.676-5.676 1 1 0 1 1 0-2l3.338.001c4.948 0 9.565 2.584 12.178 6.778a24.382 24.382 0 0 1 11.077 3.81l1.36.962a24.616 24.616 0 0 1 6.572 7.442l.205.357c.005.006.008.014.012.021a24.329 24.329 0 0 1-1.107 25.164c-4.663 7.013-12.417 10.865-20.332 10.865z"/><path fill="#E9886C" d="M186.836 158.782c-9.097 0-16.5 7.402-16.5 16.5 0 9.099 7.403 16.5 16.5 16.5 9.098 0 16.5-7.401 16.5-16.5 0-9.098-7.402-16.5-16.5-16.5zm0 35c-10.201 0-18.5-8.298-18.5-18.5 0-10.201 8.299-18.5 18.5-18.5 10.202 0 18.5 8.299 18.5 18.5 0 10.202-8.298 18.5-18.5 18.5z"/><path fill="#656665" d="M182.483 170.342a2.09 2.09 0 0 0-1.817-1.06 2.09 2.09 0 0 0-1.817 1.06l-1.728-1.006a4.121 4.121 0 0 1 3.545-2.054c1.45 0 2.809.788 3.545 2.054l-1.728 1.006m12.341 0a2.09 2.09 0 0 0-1.817-1.06c-.752 0-1.431.396-1.817 1.06l-1.729-1.006a4.125 4.125 0 0 1 3.546-2.054c1.451 0 2.809.788 3.545 2.054l-1.728 1.006m-16.932 6.94c.499 4.494 4.319 8 8.944 8 4.625 0 8.446-3.506 8.945-8h-17.889zm8.944 10c-6.065 0-11-4.934-11-11v-1h22v1c0 6.066-4.934 11-11 11z"/></g></svg>