<?xml version="1.0" encoding="utf-8"?><svg xmlns="http://www.w3.org/2000/svg" width="250" height="250" viewBox="0 0 250 250"><g fill="none" fill-rule="evenodd"><path fill="#DEDEDD" d="M165.024 106.083c.005-.177.012-.354.012-.532 0-21.532-17.503-39.05-39.018-39.05-21.513 0-39.016 17.518-39.016 39.05 0 .168.007.334.013.501-.003.167-.013.332-.013.5 0 .156.007.311.012.466-.005.155-.012.309-.012.466l.001.034-.001.035c0 .156.007.31.012.465-.005.155-.012.31-.012.466 0 .168.01.333.013.5-.006.167-.013.333-.013.501 0 21.514 17.503 39.017 39.016 39.017 8.518 0 16.633-2.724 23.468-7.878v-3.933l-1.203-1.597c-6.486 4.89-14.185 7.474-22.265 7.474-11.707 0-22.14-5.48-28.926-13.993l3.054-2.036c5.556 8.383 15.077 13.925 25.872 13.925 17.101 0 31.014-13.913 31.014-31.013 0-.144-.008-.285-.014-.428.003-.191.014-.381.014-.573 0-.133-.008-.265-.013-.398.005-.177.013-.355.013-.534l-.001-.029.001-.04c0-.133-.008-.265-.013-.397.005-.178.013-.355.013-.534 0-.143-.012-.284-.014-.427.005-.191.014-.381.014-.574a31.02 31.02 0 0 0-16.205-27.256l-.957 1.757v3.934a28.993 28.993 0 0 1 14.717 20.565h-5.585c-.526-12.224-10.631-22.008-22.984-22.008-12.686 0-23.007 10.321-23.007 23.008 0 .168.008.334.012.501-.003.167-.012.332-.012.5 0 .156.007.31.011.466-.004.155-.011.309-.011.465v.069c0 .157.007.311.011.466-.004.155-.011.31-.011.466 0 .168.009.333.012.5-.004.167-.012.333-.012.501 0 12.687 10.321 23.008 23.007 23.008v-5.933c-10.916 0-19.864-8.383-20.863-19.042.999-10.659 9.947-19.042 20.863-19.042 4.627 0 8.887 1.529 12.358 4.078l-2.18 2.004c-2.678-2.48-6.248-4.011-10.178-4.011-6.665 0-12.597 4.471-14.427 10.872v3.934l1.923.549c1.027-3.593 3.551-6.475 6.768-8.067l1.102 2.485c-.106.092-.214.181-.315.282-1.478 1.478-2.139 3.456-2.015 5.394a7.115 7.115 0 0 0 0 1.001c-.002.022-.001.044-.002.066a7.68 7.68 0 0 0 0 .91c.001.022 0 .044.002.066a7.115 7.115 0 0 0 0 1.001c-.124 1.938.537 3.916 2.015 5.394a6.973 6.973 0 0 0 4.95 2.047 6.982 6.982 0 0 0 4.95-2.046v-3.934l-1.414-1.414a5.007 5.007 0 0 1-7.072 0c-.463-.463-.803-1-1.046-1.569a4.957 4.957 0 0 1 1.046-1.569 4.97 4.97 0 0 1 3.536-1.464c1.335 0 2.591.52 3.536 1.464l1.414-1.414v-3.933a6.956 6.956 0 0 0-4.95-2.05c-.483 0-.959.05-1.422.146l-.877-1.978c.751-.14 1.515-.239 2.298-.239 6.501 0 11.881 4.799 12.834 11.037-.953 6.238-6.333 11.038-12.834 11.038-5.704 0-10.828-3.813-12.461-9.272l-1.916.573v3.933c1.884 6.299 7.796 10.699 14.377 10.699 8.274 0 15.005-6.731 15.005-15.004 0-.18-.014-.356-.023-.534.004-.156.023-.309.023-.467 0-.167-.014-.331-.022-.496.009-.145.022-.289.022-.436l-.001-.039.001-.03c0-.148-.013-.292-.019-.439l-.003-.061c.009-.143.022-.286.022-.431 0-.192-.014-.38-.022-.569.009-.144.022-.286.022-.432 0-2.575-.664-4.994-1.813-7.113l2.786-2.56a20.89 20.89 0 0 1 4.907 11.728 20.949 20.949 0 0 1-12.764 17.328v3.933l.773 1.845a22.951 22.951 0 0 0 14.078-20.227h5.598c-2.35 13.653-14.255 24.079-28.57 24.079-15.335 0-27.914-11.95-28.93-27.014 1.016-15.1 13.595-27.078 28.93-27.078 2.68 0 5.334.365 7.889 1.085l.543-1.925v-3.933a31.068 31.068 0 0 0-8.432-1.16c-17.1 0-31.012 13.927-31.012 31.046 0 .145.008.289.014.432-.003.19-.014.378-.014.569 0 .135.007.268.013.402-.005.176-.013.352-.013.53l.001.031-.001.038c0 .135.007.268.013.402-.005.176-.013.352-.013.529 0 .154.011.304.014.457-.006.181-.014.361-.014.544 0 4.411.94 8.602 2.614 12.402l-3.533 2.355c-2.935-4.994-4.703-10.739-5.003-16.866 1.098-19.45 17.232-34.942 36.934-34.942 19.77 0 35.947 15.598 36.946 35.142a36.969 36.969 0 0 1-8.836 22.03v3.933l1.517 1.302a38.971 38.971 0 0 0 9.391-25.356c0-.158-.007-.314-.012-.47.002-.177.012-.354.012-.531 0-.146-.006-.291-.011-.437.004-.165.011-.329.011-.494l-.001-.033.001-.036c0-.147-.006-.292-.011-.438.004-.164.011-.329.011-.494 0-.157-.01-.312-.012-.469"/><path fill="#475059" d="M126.019 144.5c-21.514 0-39.017-17.503-39.017-39.017 0-21.533 17.503-39.051 39.017-39.051v2c-20.412 0-37.017 16.621-37.017 37.051 0 20.412 16.605 37.017 37.017 37.017 8.079 0 15.778-2.585 22.264-7.476l1.203 1.598c-6.835 5.153-14.95 7.878-23.467 7.878"/><path fill="#475059" d="M155.645 130.84l-1.518-1.303a36.968 36.968 0 0 0 8.909-24.054c0-20.43-16.606-37.051-37.017-37.051v-2c21.514 0 39.017 17.518 39.017 39.051a38.976 38.976 0 0 1-9.391 25.357"/><path fill="#475059" d="M126.019 136.462c-17.101 0-31.013-13.897-31.013-30.979 0-17.119 13.912-31.047 31.013-31.047 2.865 0 5.702.39 8.431 1.16l-.543 1.925a29.096 29.096 0 0 0-7.888-1.085c-15.998 0-29.013 13.031-29.013 29.047 0 15.979 13.015 28.979 29.013 28.979 15.998 0 29.012-13.015 29.012-29.013a29.023 29.023 0 0 0-15.161-25.5l.957-1.756a31.02 31.02 0 0 1 16.204 27.256c0 17.101-13.912 31.013-31.012 31.013"/><path fill="#475059" d="M126.019 128.457c-12.687 0-23.008-10.321-23.008-23.008s10.321-23.009 23.008-23.009 23.008 10.322 23.008 23.009c0 9.298-5.541 17.63-14.116 21.227l-.773-1.844a20.972 20.972 0 0 0 12.889-19.383c0-11.584-9.424-21.009-21.008-21.009s-21.008 9.425-21.008 21.009 9.424 21.008 21.008 21.008v2"/><path fill="#475059" d="M126.019 120.453c-6.581 0-12.494-4.399-14.377-10.699l1.916-.572c1.632 5.459 6.756 9.271 12.461 9.271 7.17 0 13.004-5.834 13.004-13.004 0-7.171-5.834-13.005-13.004-13.005-5.777 0-10.918 3.875-12.504 9.422l-1.924-.549c1.83-6.402 7.763-10.873 14.428-10.873 8.273 0 15.004 6.732 15.004 15.005 0 8.274-6.731 15.004-15.004 15.004"/><path fill="#475059" d="M126.02 112.449a6.952 6.952 0 0 1-4.951-2.051c-2.728-2.728-2.728-7.169 0-9.899 2.728-2.728 7.17-2.729 9.9 0l-1.414 1.414a5.008 5.008 0 0 0-7.072 0 5.006 5.006 0 0 0 0 7.071 4.969 4.969 0 0 0 3.537 1.465c1.334 0 2.59-.52 3.535-1.465l1.414 1.414a6.95 6.95 0 0 1-4.949 2.051"/><path fill="#475059" d="M123.121 100.2l-3.253-7.333 1.828-.81 3.253 7.333-1.828.81M136.497 96.895l-1.353-1.473 6.26-5.753 1.354 1.473-6.261 5.753M148.884 106.449h7.147v-2h-7.147zM94.557 126.264l-1.11-1.664 6-4 1.11 1.664-6 4"/><path fill="#F58E70" d="M164.835 198.5a1 1 0 1 1-2 0 1 1 0 0 1 2 0"/><path fill="#48515A" d="M191 41.5h2v-4h-2zM191 51.5h2v-4h-2zM195 45.5h4v-2h-4zM185 45.5h4v-2h-4z"/><path fill="#5FE0ED" d="M183.284 80.209c-3.43-7.592-8.318-14.355-14.531-20.102a60.618 60.618 0 0 0-2.312-2.123C154.929 47.999 140.17 42.5 124.881 42.5c-5.875 0-11.671.82-17.236 2.387l-.078.023a63.203 63.203 0 0 0-3.22 1.01c-.348.118-.694.238-1.039.361a63.98 63.98 0 0 0-2.208.848c-1.028.41-2.041.853-3.046 1.317-.212.099-.427.191-.638.292-5.143 2.444-9.979 5.56-14.341 9.343-5.564 4.826-10.162 10.558-13.713 17.037a64.058 64.058 0 0 0-8.847 32.559v57.234c0 8.843 2.991 20.14 3.051 21.043H99.65l-1.163-4.657a131.358 131.358 0 0 0-7.583-21.922c-4.848-11.96-10.243-22.466-13.953-29.651l-.231-.449a57.202 57.202 0 0 1-4.199-10.67c-3.68-12.99-2.579-26.753 3.398-38.452a54.21 54.21 0 0 1 4.258-6.975 53.307 53.307 0 0 1 8.366-9.175 55.564 55.564 0 0 1 2.849-2.293c.185-.14.369-.281.555-.419a55.813 55.813 0 0 1 2.913-2.01c.163-.105.33-.205.495-.308.961-.603 1.929-1.198 2.933-1.726.096-.05.189-.107.284-.158a56.226 56.226 0 0 1 3.837-1.867 56.373 56.373 0 0 1 3.328-1.352c.111-.04.223-.075.333-.115a55.995 55.995 0 0 1 3.303-1.07c.141-.041.28-.086.421-.125a55.8 55.8 0 0 1 3.505-.862c.198-.042.397-.081.596-.121a55.183 55.183 0 0 1 3.651-.621 55.758 55.758 0 0 1 7.335-.487c13.371 0 26.276 4.806 36.338 13.535l.162.141-.031.037.064.053.04.034a.12.12 0 0 0 .018.015l.011.009.031.027.05.043.029.025c.59.505 1.158 1.023 1.722 1.545 5.44 5.024 9.715 10.931 12.706 17.555 3.176 7.037 4.055 14.969 2.629 22.625h8.072c1.352-8.79.209-17.826-3.438-25.904"/><path fill="#475059" d="M99.323 212.5h-2v-5.312c-.01-27.181-16.91-59.902-25.032-75.626-8.888-17.209-9.19-37.275-.812-53.676 3.459-6.769 8.1-12.706 13.797-17.649 10.97-9.513 25.036-14.753 39.605-14.753 14.569 0 28.635 5.24 39.604 14.753a60.086 60.086 0 0 1 2.221 2.042c5.929 5.479 10.591 11.924 13.857 19.159 4.828 10.694 4.981 23.195.419 34.297a16.563 16.563 0 0 0-1.261 6.308c0 1.066.115 2.174.342 3.291a16.489 16.489 0 0 0 2.603 6.135l6.982 10.083c.521.618.837 1.492.837 2.388a3.834 3.834 0 0 1-2.627 3.644l-5.183 1.729a2.075 2.075 0 0 0-1.421 1.97c0 .846.195 2.05 1.128 2.982l.293.293v2.011c0 1.662-1.112 2.842-2.907 3.185.048 1.042.064 2.257-.081 2.758-.393 1.353-1.314 2.118-2.054 2.733-.713.592-1.003.875-1.005 1.299l-.017 6.646c-.013 4.846-3.96 8.789-8.798 8.789h-15.247a5.16 5.16 0 0 0-5.153 5.092l3.078 24.1v1.327h-2v-1.264l-3.078-24.101c0-3.945 3.209-7.154 7.153-7.154h15.247c3.738 0 6.789-3.048 6.798-6.794l.017-6.649c.005-1.4.96-2.193 1.727-2.83.612-.508 1.189-.987 1.412-1.752.069-.315.031-1.826-.05-3.031l-.071-1.053 1.055-.015c.901-.012 1.974-.246 1.974-1.286v-1.207c-.919-1.077-1.421-2.508-1.421-4.079a4.07 4.07 0 0 1 2.788-3.867l5.184-1.728a1.841 1.841 0 0 0 .832-2.926l-7.037-10.155a18.448 18.448 0 0 1-2.917-6.875 18.554 18.554 0 0 1-.383-3.689c0-2.408.474-4.785 1.412-7.067 4.352-10.596 4.21-22.521-.393-32.716-3.156-6.991-7.665-13.222-13.399-18.519a65.439 65.439 0 0 0-1.857-1.663l-.213-.181.031-.038-.128-.111c-10.606-9.198-24.205-14.264-38.293-14.264-14.088 0-27.688 5.066-38.294 14.265-5.502 4.772-9.985 10.508-13.326 17.047-8.087 15.828-7.785 35.211.807 51.848 8.195 15.865 25.245 48.877 25.255 76.544v5.312"/><path fill="#48515A" d="M213 189.5h2v-4h-2zM213 199.5h2v-4h-2zM217 193.5h4v-2h-4zM207 193.5h4v-2h-4zM35 141.5h2v-4h-2zM35 151.5h2v-4h-2zM39 145.5h4v-2h-4zM29 145.5h4v-2h-4zM191 41.5h2v-4h-2zM191 51.5h2v-4h-2zM195 45.5h4v-2h-4zM185 45.5h4v-2h-4z"/><path fill="#5FE0ED" d="M210.317 133.773a3.317 3.317 0 1 1-6.634 0 3.317 3.317 0 0 1 6.634 0m-154.5-68.286a3.317 3.317 0 1 1-6.634 0 3.317 3.317 0 0 1 6.634 0"/><path fill="#F58E70" d="M164.835 198.5a1 1 0 1 1-2 0 1 1 0 0 1 2 0M54.5 185.5a2 2 0 1 1-3.999.001 2 2 0 0 1 3.999-.001"/></g></svg>