<?xml version="1.0" encoding="utf-8"?><svg xmlns="http://www.w3.org/2000/svg" width="250" height="250" viewBox="0 0 250 250"><g fill="none" fill-rule="evenodd"><path fill="#DEDEDD" d="M138.605 147.953l-21.998.039L51.54 128.22v10.006l65.067 19.772 21.998-.039 64.277-19.756v-10.006l-64.277 19.756"/><path fill="#5FE0ED" d="M104.544 47h44V31h-44z"/><path fill="#48515A" d="M201.801 174.664h2v-43.002h-2zM195.873 205.895H50.348V181h2v22.895h143.525v2M50.348 145.125h2v-14.13h-2zM116.235 148.615l-68.691-20.874v-29.74h159.063v29.738l-67.789 20.835-.588-1.912 66.377-20.401v-26.26H49.544v26.258l67.273 20.442-.582 1.914"/><path fill="#48515A" d="M97.541 201c0-.55.45-1 1-1 .56 0 1 .45 1 1s-.44 1-1 1c-.55 0-1-.45-1-1zm4 0c0-.55.45-1 1-1 .56 0 1 .45 1 1s-.44 1-1 1c-.55 0-1-.45-1-1zm4 0c0-.55.45-1 1-1s1 .45 1 1-.45 1-1 1-1-.45-1-1zm4 0c0-.55.45-1 1-1s1 .45 1 1-.45 1-1 1-1-.45-1-1zm4 0c0-.55.45-1 1-1 .56 0 1 .45 1 1s-.44 1-1 1c-.55 0-1-.45-1-1zm4 0c0-.55.45-1 1-1 .56 0 1 .45 1 1s-.44 1-1 1c-.55 0-1-.45-1-1zm4 0c0-.55.45-1 1-1s1 .45 1 1-.45 1-1 1-1-.45-1-1zm4 0c0-.55.45-1 1-1s1 .45 1 1-.45 1-1 1-1-.45-1-1zm4 0c0-.55.45-1 1-1 .56 0 1 .45 1 1s-.44 1-1 1c-.55 0-1-.45-1-1zm4 0c0-.55.45-1 1-1s1 .45 1 1-.45 1-1 1-1-.45-1-1zm4 0c0-.55.45-1 1-1s1 .45 1 1-.45 1-1 1-1-.45-1-1zm4 0c0-.55.45-1 1-1 .56 0 1 .45 1 1s-.44 1-1 1c-.55 0-1-.45-1-1zm4 0c0-.55.45-1 1-1 .56 0 1 .45 1 1s-.44 1-1 1c-.55 0-1-.45-1-1zm4 0c0-.55.45-1 1-1s1 .45 1 1-.45 1-1 1-1-.45-1-1zm4 0c0-.55.45-1 1-1s1 .45 1 1-.45 1-1 1-1-.45-1-1zM138.559 43.001h-3.999a1 1 0 1 1 0-2.001h3.999a1 1 0 0 1 0 2.001"/><path fill="#48515A" d="M140.559 41a1.001 1.001 0 1 0 .002 2.002 1.001 1.001 0 0 0-.002-2.002zm0 4c-1.655 0-3-1.345-3-3 0-1.654 1.345-3 3-3 1.654 0 3 1.346 3 3 0 1.655-1.346 3-3 3z"/><path fill="#475059" d="M113.526 161.948H87.895l-10.843-5 10.843-5h25.631v2H88.335l-6.507 3 6.507 3h25.191v2M171.517 161.948h-29.991v-2h29.991c1.654 0 3-1.345 3-3 0-1.654-1.346-3-3-3h-29.991v-2h29.991c2.756 0 5 2.243 5 5s-2.244 5-5 5"/><path fill="#475059" d="M163.906 160.948h2v-7.598h-2z"/><path fill="#475059" d="M141.526 157.92h23.38v-2h-23.38zM88.884 157.92h24.642v-2H88.884z"/><path fill="#48515A" d="M76.317 58.997h2v-4h-2zM76.317 68.997h2v-4h-2zM80.317 62.997h4v-2h-4zM70.317 62.997h4v-2h-4zM186.384 115.03h2v-4h-2zM186.384 125.03h2v-4h-2zM190.384 119.03h4v-2h-4zM180.384 119.03h4v-2h-4zM36.544 209h2v-4h-2zM36.544 219h2v-4h-2zM40.544 213h4v-2h-4zM30.544 213h4v-2h-4z"/><path fill="#F58E70" d="M49.414 52.978a4 4 0 1 1-8 0 4 4 0 0 1 8 0"/><path fill="#48515A" d="M50.46 106.018h2v-4.026l.834-.14a10.839 10.839 0 0 0 4.531-1.875l.689-.49 2.845 2.845 1.415-1.415-2.845-2.845.49-.689a10.824 10.824 0 0 0 1.874-4.531l.141-.834h4.026v-2h-4.026l-.141-.834a10.833 10.833 0 0 0-1.874-4.532l-.49-.689 2.845-2.844-1.415-1.415-2.845 2.845-.689-.49a10.844 10.844 0 0 0-4.531-1.875l-.834-.14v-4.026h-2v4.026l-.835.14a10.86 10.86 0 0 0-4.531 1.875l-.689.49-2.844-2.845-1.415 1.415 2.845 2.844-.49.689a10.859 10.859 0 0 0-1.875 4.532l-.141.834H36.46v2h4.025l.141.834a10.855 10.855 0 0 0 1.874 4.531l.491.689-2.845 2.845 1.415 1.415 2.844-2.845.689.49a10.85 10.85 0 0 0 4.531 1.875l.835.14v4.026zm4 2h-6v-4.362a12.81 12.81 0 0 1-3.817-1.578l-3.082 3.082-4.243-4.243 3.082-3.082a12.812 12.812 0 0 1-1.579-3.817H34.46v-6h4.361a12.812 12.812 0 0 1 1.579-3.817l-3.082-3.082 4.243-4.243 3.082 3.082a12.812 12.812 0 0 1 3.817-1.579v-4.361h6v4.361c1.356.319 2.634.848 3.816 1.579l3.083-3.082 4.243 4.243-3.082 3.082a12.81 12.81 0 0 1 1.578 3.817h4.362v6h-4.362a12.81 12.81 0 0 1-1.578 3.817l3.082 3.082-4.243 4.243-3.083-3.082a12.793 12.793 0 0 1-3.816 1.578v4.362z"/><path fill="#48515A" d="M51.46 88.018c-1.654 0-3 1.346-3 3s1.346 3 3 3 3-1.346 3-3-1.346-3-3-3zm0 8c-2.757 0-5-2.243-5-5s2.243-5 5-5 5 2.243 5 5-2.243 5-5 5zM145.545 52h-38v-5h2v3h34v-3h2v5"/><path fill="#475059" d="M125.848 85.407h-2V78.97a2.972 2.972 0 0 0-2.97-2.969c-1.646 0-3.035 1.359-3.035 2.969v6.437h-2V78.97c0-2.74 2.259-4.969 5.035-4.969 2.74 0 4.97 2.229 4.97 4.969v6.437"/><path fill="#475059" d="M109.974 87.834h-2V78.97a4.975 4.975 0 0 1 4.97-4.969c2.747 0 4.899 2.183 4.899 4.969v6.437h-2V78.97c0-1.665-1.274-2.969-2.899-2.969a2.973 2.973 0 0 0-2.97 2.969v8.864"/><path fill="#475059" d="M125.848 88.082c0 1.371.801 2.603 1.949 2.996.968.331 1.982.193 2.785-.38a3.014 3.014 0 0 0 1.266-2.444v-8.253h-4v-1a8.99 8.99 0 0 1 3.543-7.153c-3.163-.672-5.543-3.487-5.543-6.847h2c0 2.756 2.243 5 5 5h9.917V72h-5.917c-3.521 0-6.443 2.613-6.929 6h16.216l.471-1.371c1.371-3.979 1.19-8.187-.496-11.544a14.517 14.517 0 0 0-1.45-2.32l-5.662-7.393c-.695-.73-1.213-2.004-1.213-2.998v-.373l-23.655-.002v1.039c0 .2-.048.408-.16.696-2.652 6.86-3.996 13.985-3.996 21.176v12.918c0 1.577 1.072 2.926 2.494 3.139.867.13 1.698-.102 2.338-.653A3.04 3.04 0 0 0 115.843 88v-5.071h2v5.027c0 1.628 1.187 3.017 2.704 3.161a3.15 3.15 0 0 0 2.428-.8c.561-.509.871-1.173.873-1.871v-.354V82.929h2v5.153zm8-.115c0 1.385 1.123 2.965 2.357 3.313.921.261 1.809.115 2.502-.41.729-.551 1.164-1.473 1.164-2.465v-8.404h-6.023v7.966zm3.249 5.443a5.29 5.29 0 0 1-1.437-.205c-1.076-.305-2.051-1.07-2.745-2.052a5.006 5.006 0 0 1-1.17 1.172c-1.334.953-3.009 1.188-4.597.645a4.732 4.732 0 0 1-2.302-1.729 4.934 4.934 0 0 1-.528.557 5.178 5.178 0 0 1-3.961 1.31c-1.435-.137-2.694-.924-3.515-2.062a4.874 4.874 0 0 1-.731.783c-1.088.937-2.483 1.335-3.94 1.116-2.393-.358-4.197-2.558-4.197-5.117V74.91c0-7.438 1.389-14.806 4.131-21.898l.025-.066v-2.947l27.655.001v2.374c0 .492.329 1.287.678 1.635l.087.099 5.698 7.441a16.506 16.506 0 0 1 1.649 2.638c1.926 3.835 2.145 8.608.6 13.094l-.936 2.72h-5.69v8.404c0 1.615-.731 3.133-1.958 4.06a4.618 4.618 0 0 1-2.816.945z"/><path fill="#48515A" d="M117.524 169.959l19.878.039v-35.957l-19.878-.039v35.957zm21.878 2.043l-23.878-.047v-39.957l23.878.047v39.957z"/><path fill="#FFD15D" d="M119.524 168.001h16.001v-22.002h-16.001zM119.524 140.001h16.001v-4h-16.001z"/><path fill="#48515A" d="M116.524 144h22v-2h-22zM127.524 154a1.001 1.001 0 0 0 0 2 1 1 0 0 0 0-2zm0 4c-1.654 0-3-1.346-3-3s1.346-3 3-3c1.655 0 3 1.346 3 3s-1.345 3-3 3z"/><path fill="#48515A" d="M126.524 161.251h2V157h-2zM95.539 92.848l-.013-8.673a5.96 5.96 0 0 1 1.755-4.248 5.956 5.956 0 0 1 4.245-1.761h7.448v2.001h-7.448a3.97 3.97 0 0 0-2.83 1.173 3.97 3.97 0 0 0-1.17 2.832l.013 8.673-2 .003"/><path fill="#48515A" d="M103.545 93h-2v-5.998c0-1.654 1.346-3 3-3h4.429v2h-4.429c-.552 0-1 .449-1 1V93"/><path fill="#48515A" d="M93.521 98h12.002v-4H93.521v4zm-2 2h16.001v-8H91.521v8zm65.017-7.152l-2-.003.013-8.673a3.972 3.972 0 0 0-1.17-2.832 3.972 3.972 0 0 0-2.83-1.173h-9.68v-2.001h9.68c1.604 0 3.111.625 4.245 1.761a5.96 5.96 0 0 1 1.755 4.248l-.013 8.673"/><path fill="#48515A" d="M150.532 93h-2v-5.998c0-.551-.448-1-1-1h-6.661v-2h6.661c1.655 0 3 1.346 3 3V93"/><path fill="#48515A" d="M146.554 98h12.001v-4h-12.001v4zm-2 2h16.001v-8h-16.001v8z"/><path fill="#F58E70" d="M200.459 38.93c-9.374 0-17 7.626-17 17 0 9.374 7.626 17 17 17 9.374 0 17-7.626 17-17 0-9.374-7.626-17-17-17zm0 36c-10.477 0-19-8.523-19-19 0-10.476 8.523-19 19-19s19 8.524 19 19c0 10.477-8.523 19-19 19z"/><path fill="#48515A" d="M200.459 65.931a1 1 0 0 1-1-1V54.93a1 1 0 0 1 1-1h7a1 1 0 1 1 0 2h-6v9.001a1 1 0 0 1-1 1m.002-23.001c-.07 0-.13-.01-.2-.02a.636.636 0 0 1-.18-.06.782.782 0 0 1-.181-.09l-.149-.12c-.09-.1-.16-.2-.22-.33a.967.967 0 0 1-.07-.38c0-.26.1-.52.29-.71.37-.37 1.04-.37 1.41 0 .19.19.3.45.3.71 0 .13-.03.26-.08.38-.05.13-.12.23-.22.33-.181.18-.44.29-.7.29m0 28c-.07 0-.13-.01-.2-.02a.636.636 0 0 1-.18-.06.782.782 0 0 1-.181-.09l-.149-.12c-.19-.19-.29-.45-.29-.71 0-.13.019-.26.07-.38.06-.12.13-.23.22-.33l.149-.12a.782.782 0 0 1 .181-.09c.06-.03.12-.05.18-.06a.99.99 0 0 1 1.12.6c.05.12.08.25.08.38s-.03.26-.08.38c-.05.13-.12.23-.22.33-.181.18-.44.29-.7.29m-7-26.12a.996.996 0 0 1-.71-.3c-.09-.09-.16-.2-.22-.32a.967.967 0 0 1-.07-.38c0-.14.019-.26.07-.39.06-.12.13-.23.22-.32.05-.05.1-.09.149-.13.061-.03.111-.06.171-.09.07-.02.13-.04.19-.05.13-.03.26-.03.389 0 .071.01.131.03.191.05.059.03.12.06.17.09.06.04.11.08.15.13a1 1 0 0 1 .3.71.995.995 0 0 1-.3.7c-.181.19-.44.3-.7.3m14 24.25c-.07 0-.13-.01-.2-.02a4.39 4.39 0 0 0-.19-.06c-.06-.03-.11-.06-.171-.09-.049-.04-.099-.08-.149-.13a.967.967 0 0 1-.29-.7c0-.07 0-.14.019-.2.011-.06.031-.13.051-.19a.95.95 0 0 1 .1-.17c.03-.06.07-.11.12-.15.37-.37 1.04-.38 1.41 0 .05.04.09.09.13.15.03.05.06.11.09.17l.059.19c.011.06.021.13.021.2 0 .26-.11.51-.3.7-.181.19-.44.3-.7.3m-19.13-19.13c-.06 0-.13-.01-.19-.02a.603.603 0 0 1-.19-.06.556.556 0 0 1-.17-.09.983.983 0 0 1-.15-.12c-.1-.1-.17-.2-.22-.33a.977.977 0 0 1-.08-.38 1.013 1.013 0 0 1 .45-.83c.05-.04.11-.07.17-.09.06-.03.12-.05.19-.06.13-.02.259-.02.39 0 .06.01.119.03.19.06a.7.7 0 0 1 .17.09l.15.12c.189.19.29.45.29.71 0 .13-.02.26-.07.38-.05.13-.13.23-.22.33l-.15.12a.7.7 0 0 1-.17.09.84.84 0 0 1-.19.06c-.07.01-.131.02-.2.02m24.25 14c-.13 0-.26-.03-.38-.08s-.23-.12-.33-.21c-.181-.19-.29-.45-.29-.71 0-.06.01-.13.02-.2.009-.06.03-.12.06-.18.02-.06.05-.12.09-.18l.12-.15c.1-.09.21-.16.33-.21.18-.08.38-.1.58-.06.06.01.119.03.18.06.06.02.12.05.18.09.049.03.1.08.15.12.05.05.09.1.12.15.04.06.069.12.1.18a1.209 1.209 0 0 1 .07.38c0 .26-.101.52-.29.71-.05.04-.101.09-.15.12-.06.04-.12.07-.18.09a.646.646 0 0 1-.18.06c-.07.01-.131.02-.2.02m-26.12-7c-.271 0-.521-.11-.71-.29-.09-.1-.16-.2-.22-.33a.967.967 0 0 1-.07-.38c0-.26.1-.52.29-.71.229-.23.58-.34.899-.27.071.01.131.03.191.06.059.02.12.05.17.09a1.017 1.017 0 0 1 .45.83c0 .13-.03.26-.08.38-.05.13-.12.23-.22.33-.04.04-.09.09-.15.12a.568.568 0 0 1-.17.09c-.06.03-.12.05-.191.06a1.2 1.2 0 0 1-.189.02m28 0c-.13 0-.26-.03-.39-.08a.988.988 0 0 1-.32-.21.789.789 0 0 1-.12-.15c-.04-.06-.07-.12-.1-.18-.02-.06-.04-.12-.051-.18-.019-.07-.019-.13-.019-.2a.967.967 0 0 1 .29-.71c.09-.09.2-.16.32-.21.19-.08.39-.1.579-.06.071.01.131.03.191.06.059.02.12.05.17.09.06.03.11.08.15.12.1.1.17.2.22.33.05.12.08.25.08.38 0 .07-.01.13-.021.2a.603.603 0 0 1-.059.18c-.021.06-.06.12-.09.18-.04.05-.08.1-.13.15-.04.04-.09.09-.15.12a.568.568 0 0 1-.17.09c-.06.03-.12.05-.191.06a1.2 1.2 0 0 1-.189.02m-26.13 7c-.06 0-.13-.01-.19-.02a.603.603 0 0 1-.19-.06.556.556 0 0 1-.17-.09.609.609 0 0 1-.15-.12.995.995 0 0 1-.3-.71c0-.13.029-.26.08-.38.05-.12.12-.23.22-.33.04-.04.09-.09.15-.12.05-.04.11-.07.17-.09.06-.03.12-.05.19-.06.13-.03.259-.03.39 0 .06.01.119.03.19.06a.7.7 0 0 1 .17.09c.049.03.1.08.15.12.09.1.17.21.22.33.05.12.07.25.07.38 0 .27-.101.52-.29.71-.05.04-.101.09-.15.12a.7.7 0 0 1-.17.09.84.84 0 0 1-.19.06c-.07.01-.131.02-.2.02m24.25-14c-.13 0-.26-.03-.38-.08s-.23-.12-.33-.21c-.181-.19-.29-.45-.29-.71 0-.26.109-.52.29-.71.1-.09.21-.16.33-.21.18-.08.38-.1.58-.06.06.01.119.03.18.06.06.02.12.05.18.09l.15.12a1.011 1.011 0 0 1 0 1.42l-.15.12c-.06.04-.12.07-.18.09a.646.646 0 0 1-.18.06c-.07.01-.131.02-.2.02m-19.12 19.13c-.07 0-.13-.01-.2-.02a4.39 4.39 0 0 0-.19-.06c-.06-.03-.11-.06-.171-.09-.049-.04-.099-.08-.149-.13a.566.566 0 0 1-.12-.15.95.95 0 0 1-.1-.17c-.02-.06-.04-.13-.051-.19a1.359 1.359 0 0 1-.019-.2c0-.26.1-.52.29-.7.05-.05.1-.09.149-.13.061-.03.111-.06.171-.09.07-.02.13-.04.19-.05.13-.03.26-.03.389 0 .071.01.131.03.191.05.059.03.12.06.17.09.06.04.11.08.15.13.05.04.09.09.13.15.04.05.069.11.09.17.03.06.05.13.059.19.011.06.021.13.021.19 0 .07-.01.14-.021.2a.661.661 0 0 1-.059.19.578.578 0 0 1-.09.17c-.04.05-.08.11-.13.15-.04.05-.09.09-.15.13-.05.03-.111.06-.17.09-.06.02-.12.04-.191.06a1.2 1.2 0 0 1-.189.02m14-24.25c-.07 0-.13-.01-.2-.02-.06-.02-.12-.04-.19-.06-.06-.03-.11-.06-.171-.09-.049-.04-.099-.08-.149-.13a.967.967 0 0 1-.29-.7c0-.27.1-.53.29-.71.37-.37 1.04-.37 1.41 0 .05.04.09.1.13.15.03.05.06.11.09.17l.059.19c.011.07.021.13.021.2 0 .26-.11.52-.3.7-.181.19-.44.3-.7.3m-7.563 162.885h14v-2h-14v2zm-2 2h18v-6h-18v6zm5.574-14h8.096v-2h-1.945v-12h1.945v-2h-8.096v2h2.096v12h-2.096v2zm10.096 2h-12.096v-6h2.096v-8h-2.096v-6h12.096v6h-1.945v8h1.945v6z"/><path fill="#48515A" d="M210.623 183.695h-6.055a1 1 0 1 1 0-2h6.055a1 1 0 1 1 0 2m0 10h-6.055a1 1 0 1 1 0-2h6.055a1 1 0 1 1 0 2m-6.724-4.999h-20a1 1 0 1 1 0-2h20a1 1 0 1 1 0 2"/><path fill="#475059" d="M32.542 166.178v.116c0 .8.312 1.552.877 2.117a2.97 2.97 0 0 0 2.113.874h.005l.729-.002a2.995 2.995 0 0 0 2.985-2.99v-.115l-3.355-9.374-3.354 9.374zm2.991 5.107a4.956 4.956 0 0 1-3.527-1.459 4.957 4.957 0 0 1-1.464-3.532v-.464l5.354-14.962 5.355 14.962v.463a4.997 4.997 0 0 1-4.981 4.99l-.728.002h-.009z"/><path fill="#475059" d="M31.548 167.004h8.704v-2h-8.704zM46.583 152.698l-3.366-3.793H30.541v-2h13.575l2.467 2.78 2.467-2.78h13.491v2H49.95l-3.367 3.793M42.608 179.003h-2v-2.348l3.002-3.003V155.68h2v18.8l-3.002 3.003v1.52M52.479 179.003h-2v-1.524l-2.998-2.999v-18.8h2v17.972l2.998 2.999v2.352"/><path fill="#475059" d="M43.154 152.809h6.782v-2h-6.782zM53.836 166.16a2.97 2.97 0 0 0 .873 1.961 2.97 2.97 0 0 0 2.113.874h.006l.729-.001a2.996 2.996 0 0 0 2.981-2.834l-3.351-9.683-3.351 9.683zm2.986 4.835a4.951 4.951 0 0 1-3.525-1.459 4.952 4.952 0 0 1-1.465-3.531v-.168l5.355-15.477 5.354 15.476v.168a4.997 4.997 0 0 1-4.981 4.99l-.729.001h-.009z"/><path fill="#475059" d="M52.838 167.004h8.703v-2h-8.703zM43.154 156.68h6.782v-2h-6.782zM44.61 175.066h3.871v-2H44.61z"/></g></svg>