<?xml version="1.0" encoding="utf-8"?><svg xmlns="http://www.w3.org/2000/svg" width="193" height="178" viewBox="0 0 193 178"><g fill="none" fill-rule="evenodd"><path fill="#FFD15D" d="M161.056 156.432h17V4.769h-17z"/><path fill="#48515A" d="M158.055 17.399h8.002v-2h-8.002zM158.055 29.399h6v-2h-6zM158.055 41.399h8.002v-2h-8.002zM158.055 53.399h6v-2h-6zM158.055 65.399h8.002v-2h-8.002zM158.055 77.399h6v-2h-6zM158.055 89.399h8.002v-2h-8.002zM157.8 101.4h6.255v-2H157.8z"/><path fill="#48515A" d="M182.056 160.4h-25.001V74.019h2V158.4h21.001V97.958h2V160.4M182.056 91.832h-2V2.769h-21.001v55.084h-2V.769h25.001v91.063"/><path fill="#48515A" d="M157.717 125.4h6.338v-2h-6.338zM158.055 137.4h8.002v-2h-8.002zM158.055 149.4h6v-2h-6zM171.055 146.4c-1.102 0-2 .897-2 2 0 1.102.898 2 2 2 1.103 0 2-.898 2-2 0-1.103-.897-2-2-2zm0 6c-2.206 0-4-1.794-4-4s1.794-4 4-4 4 1.794 4 4-1.794 4-4 4zM158.055 113.414h8.002v-2h-8.002z"/><path fill="#FFD15D" d="M42.502 145.769H25.056v-17.173l17.446 17.173zm-28.446-27.866v38.866h53.98l-10.703-10.713-32.625-32.595-10.652-10.693v15.135z"/><path fill="#DEDEDD" d="M112.102 157.264h16v-12.025a4.953 4.953 0 0 1-2.999 1.025c-2.757 0-5-2.243-5-5s2.243-5 5-5c1.129 0 2.161.39 2.999 1.025v-15.025h-16v35M134.105 45.652l12 10.5V34.264h-12v11.388"/><path fill="#475059" d="M150.105 63.351h-2V32.264h-16v15h-2v-17h20v33.087"/><path fill="#F58E70" d="M159.105 70.263l-62-54.016-62 54.016-3.976-4.26L97.105 8.274l65.976 57.729-3.976 4.26"/><path fill="#5FE0ED" d="M57.092 139.294h6a6 6 0 0 0 6-6v-14h-12v20m34.013 0h-6a6 6 0 0 1-6-6v-14h12v20m12.014-50.03h6a6 6 0 0 0 6-6v-14h-12v20m34.014 0h-6a6 6 0 0 1-6-6v-14h12v20m-80.041 0h6a6 6 0 0 0 6-6v-14h-12v20m34.013 0h-6a6 6 0 0 1-6-6v-14h12v20"/><path fill="#475059" d="M44.105 103.024h2V61.733h-2zM44.105 159.264h2v-52.118h-2zM132.101 159.264h-2v-39h-20v39h-2v-41h24v41M148.105 159.769h2v-52.671h-2zM148.105 102.769h2V62.757h-2z"/><path fill="#475059" d="M35.755 71.025l-1.3-1.521 62.65-53.556 62.65 53.555-1.299 1.52-61.351-52.444-61.35 52.446"/><path fill="#475059" d="M58.105 92.264h32V70.263h-32v22.001zm-2 2.001h36V68.264h-36v26.001zm48-2.001h32V70.263h-32v22.001zm-2 2.001h36V68.264h-36v26.001zm-44 47.999h32v-22h-32v22zm-2 2h36v-26h-36v26zm68.997-4a1 1 0 1 0 0 2 1 1 0 0 0 0-2zm0 4c-1.654 0-3-1.346-3-3s1.346-3 3-3c1.655 0 3 1.346 3 3s-1.345 3-3 3zm-82.006-38.492h107.006v-2.002H43.096v2.002zm-2 2h111.006v-6.002H41.096v6.002z"/><path fill="#48515A" d="M184.102 91.769h2v-4h-2zM184.102 101.769h2v-4h-2zM188.102 95.769h4v-2h-4zM178.102 95.769h4v-2h-4zM25.056 87.799h2v-4h-2zM25.056 97.799h2v-4h-2zM29.056 91.799h4v-2h-4zM19.007 91.799h4v-2h-4z"/><path fill="#F58E70" d="M151.117 19.775a2 2 0 1 1-3.999.001 2 2 0 0 1 3.999-.001m40.939 107.994a2 2 0 1 1-4 0 2 2 0 0 1 4 0"/><path fill="#DEDEDD" d="M51.117 31.739a2 2 0 1 1-3.999.001 2 2 0 0 1 3.999-.001"/><path fill="#48515A" d="M0 160.769h192v-2H0z"/><path fill="#DEDEDD" d="M0 162.611v15.158L192 178v-15.158l-192-.231"/><path fill="#48515A" d="M35.118 42.818c-1.682 0-3 1.275-3 2.903 0 1.729 1.346 3.097 3 3.097H102.3l6.506-3-6.506-3H35.118zm67.621 8H35.118c-2.757 0-5-2.265-5-5.049 0-2.797 2.196-4.951 5-4.951h67.621l10.843 5-10.843 5z"/><path fill="#48515A" d="M41.095 49.818h2v-8h-2z"/><path fill="#48515A" d="M42.095 46.818h59.999v-2H42.095zM125.116 11.753h2v-4h-2zM125.116 21.753h2v-4h-2zM129.116 15.753h4v-2h-4zM119.116 15.753h4v-2h-4z"/></g></svg>