<?xml version="1.0" encoding="utf-8"?><svg xmlns="http://www.w3.org/2000/svg" width="250" height="250" viewBox="0 0 250 250"><g fill="none" fill-rule="evenodd"><path fill="#FACD60" d="M87.432 53.091c0-11.307-9.166-20.473-20.472-20.473-11.307 0-20.473 9.166-20.473 20.473 0 11.306 9.166 20.472 20.473 20.472 11.306 0 20.472-9.166 20.472-20.472"/><path fill="#DBDBD5" d="M128.46 154.175h-.003l.003-.002a4 4 0 0 0 0-8h-3.954a3.997 3.997 0 0 1-.046 7.995h-7.995a4 4 0 0 1-4-3.997v.001c0 .849.265 2.851.715 4.996h-10.177c-1.807 0-3.614-.502-5.039-1.613a6.55 6.55 0 0 0-4.001-1.374H88v4.785H73.139v2.999H69.5v15.009h3.639v-2.999h13.007v-4.785h7.817c1.425 0 2.796.484 3.944 1.329a8.566 8.566 0 0 0 5.048 1.658h20.558l.018-.002h.929a4 4 0 0 0 4-4 3.984 3.984 0 0 0-1.947-3.416v-.584h1.947a4 4 0 1 0 0-8"/><path fill="#75C7D0" d="M69.5 160.777h13.639v-46.118H69.5z"/><path fill="#42494E" d="M162.5 121.05v75.123c0 3.86-3.141 7-7 7h-84c-3.859 0-7-3.14-7-7v-136c0-3.859 3.141-7 7-7h84c3.859 0 7 3.141 7 7v11.491a4.417 4.417 0 0 1 2-1.039V60.173c0-4.963-4.037-9-9-9h-84c-4.963 0-9 4.037-9 9v136c0 4.963 4.037 9 9 9h84c4.963 0 9-4.037 9-9v-74.086a4.414 4.414 0 0 1-2-1.037"/><path fill="#42494E" d="M156.5 197.173h-86v-138h86v14.741a4.417 4.417 0 0 1 2-1.039V57.173h-90v142h90v-79.086a4.414 4.414 0 0 1-2-1.037v78.123m-74 22h62v-14h-62v14zm-2 2h66v-18h-66v18z"/><path fill="#42494E" d="M45.488 221.173h140.027v-2H45.488z"/><path fill="#FACD60" d="M95.513 179.486a2 2 0 1 1-3.999.001 2 2 0 0 1 3.999-.001"/><path fill="#434A4F" d="M89.179 157.779h-6.033v-2h4.033v-36.998h-4.033v-2h6.033v40.998M79.146 153.779a1 1 0 0 1-1-1v-3.999a1 1 0 1 1 2 0v3.999a1 1 0 0 1-1 1"/><path fill="#434A4F" d="M79.146 153.779a1.001 1.001 0 0 0 0 2 1.001 1.001 0 0 0 0-2zm0 4c-1.654 0-3-1.346-3-3 0-1.655 1.346-3 3-3 1.655 0 3 1.345 3 3 0 1.654-1.345 3-3 3zm19.313-21.787a1 1 0 1 1 0-2 6.962 6.962 0 0 0 6.672-5.045l2.073-7.327h14.458a6.006 6.006 0 0 0 6-5.994l-25.137.123a2.995 2.995 0 0 0-2.491 1.354l-5.027 7.657-6.805.161c-.593-.006-1.011-.425-1.023-.976a1 1 0 0 1 .976-1.024l5.756-.136 4.451-6.78a4.995 4.995 0 0 1 4.153-2.256l27.147-.132v2.003c0 4.412-3.589 8-8 8h-12.946l-1.661 5.872c-1.083 3.828-4.619 6.5-8.596 6.5"/><path fill="#42494E" d="M116.465 147.981c-1.655 0-3 1.345-3 3 0 1.654 1.345 3 3 3h7.995c1.654 0 3-1.346 3-3 0-1.655-1.346-3-3-3h-7.995zm7.995 8h-7.995c-2.757 0-5-2.243-5-5s2.243-5 5-5h7.995c2.757 0 5 2.243 5 5s-2.243 5-5 5z"/><path fill="#42494E" d="M116.465 139.981c-1.655 0-3 1.345-3 3 0 1.654 1.345 3 3 3h11.995c1.654 0 3-1.346 3-3 0-1.655-1.346-3-3-3h-11.995zm11.995 8h-11.995c-2.757 0-5-2.243-5-5s2.243-5 5-5h11.995c2.757 0 5 2.243 5 5s-2.243 5-5 5z"/><path fill="#42494E" d="M116.465 131.981c-1.655 0-3 1.345-3 3 0 1.654 1.345 3 3 3h11.995c1.654 0 3-1.346 3-3 0-1.655-1.346-3-3-3h-11.995zm11.995 8h-11.995c-2.757 0-5-2.243-5-5s2.243-5 5-5h11.995c2.757 0 5 2.243 5 5s-2.243 5-5 5z"/><path fill="#42494E" d="M116.465 123.981c-1.655 0-3 1.345-3 3 0 1.654 1.345 3 3 3h11.995c1.654 0 3-1.346 3-3 0-1.655-1.346-3-3-3h-11.995zm11.995 8h-11.995c-2.757 0-5-2.243-5-5s2.243-5 5-5h11.995c2.757 0 5 2.243 5 5s-2.243 5-5 5zm-11.995 24h-13.51a8.579 8.579 0 0 1-5.095-1.693 6.55 6.55 0 0 0-3.897-1.295H87.5v-2h6.463c1.825 0 3.635.601 5.095 1.693a6.555 6.555 0 0 0 3.897 1.295h13.51v2m-13.973-46.994h32V83.984h-32v25.003zm-2 2h36V81.984h-36v29.003z"/><path fill="#42494E" d="M195.514 134.987h-5.209l-55.212-24.083.798-1.834 54.832 23.917h2.791V59.984h-2.791l-54.832 23.917-.798-1.834 55.212-24.083h5.209v77.003M104.49 86.981c0-.55.449-1 1-1 .55 0 1 .45 1 1s-.45 1-1 1c-.551 0-1-.45-1-1zm4 0c0-.55.449-1 1-1 .55 0 1 .45 1 1s-.45 1-1 1c-.551 0-1-.45-1-1zm4 0c0-.55.449-1 1-1 .55 0 1 .45 1 1s-.45 1-1 1c-.551 0-1-.45-1-1zm4 0c0-.55.449-1 1-1 .55 0 1 .45 1 1s-.45 1-1 1c-.551 0-1-.45-1-1zm4 0c0-.55.449-1 1-1 .55 0 1 .45 1 1s-.45 1-1 1c-.551 0-1-.45-1-1zm4 0c0-.55.449-1 1-1 .55 0 1 .45 1 1s-.45 1-1 1c-.551 0-1-.45-1-1zm4 0c0-.55.449-1 1-1 .55 0 1 .45 1 1s-.45 1-1 1c-.551 0-1-.45-1-1zM107.491 114.987h2v-5h-2zM112.465 145.004h-4.974v-22.01h2v20.01h2.974v2M119.491 113.987h2v-4h-2zM101.158 106.154h-9.667V86.987h9v2h-7v15.167h7.667v2"/><path fill="#DBDBD5" d="M191.15 130.987h.363v-51l-53.021 12v16.05l52.658 22.95"/><path fill="#434A4F" d="M199.492 63.988a.999.999 0 0 1-.448-1.895l8.009-4a1 1 0 0 1 .894 1.789l-8.009 4a1.004 1.004 0 0 1-.446.106m8.007 70c-.15 0-.303-.035-.446-.106l-8.009-4a1.001 1.001 0 0 1 .894-1.789l8.009 4a1.001 1.001 0 0 1-.448 1.895m.001-37h-8.009a1 1 0 1 1 0-2h8.009a1 1 0 1 1 0 2m-8.009-16.5a1 1 0 0 1-.298-1.955l8.009-2.5a1 1 0 0 1 .596 1.909l-8.009 2.5a.995.995 0 0 1-.298.046m8.009 35.5a.995.995 0 0 1-.298-.046l-8.009-2.5a.999.999 0 1 1 .596-1.908l8.009 2.5a1 1 0 1 1-.298 1.954"/><path fill="#FACD60" d="M138.495 70.487a1.5 1.5 0 1 1-3 0 1.5 1.5 0 0 1 3 0"/><path fill="#75C7D0" d="M179.5 53.173a3 3 0 1 1-6 0 3 3 0 0 1 6 0"/><path fill="#434A4F" d="M179.5 162.173h2v-4h-2zM179.5 172.173h2v-4h-2zM183.5 166.173h4v-2h-4zM173.5 166.173h4v-2h-4zM177.5 196.173h2v-4h-2zM177.5 206.173h2v-4h-2zM181.5 200.173h4v-2h-4zM171.5 200.173h4v-2h-4z"/><path fill="#75C7D0" d="M59.5 207.161a3 3 0 1 1-6 0 3 3 0 0 1 6 0"/><path fill="#434A4F" d="M47.225 63.832l.201.349a22.592 22.592 0 0 0 6.018 6.822l1.301.92a22.348 22.348 0 0 0 10.614 3.512c.334.022.635.211.802.501a12.4 12.4 0 0 0 8.71 6.065 7.686 7.686 0 0 1-2.33-5.509v-.99a1 1 0 0 1 .715-.958 22.357 22.357 0 0 0 12.381-9.26c3.368-5.201 4.421-11.383 2.965-17.409-1.453-6.02-5.222-11.045-10.611-14.147-10.001-5.758-23.346-2.613-29.744 7.012a22.335 22.335 0 0 0-1.022 23.092zm32.991 20.335h-3.337c-4.948 0-9.566-2.583-12.179-6.777a24.388 24.388 0 0 1-11.076-3.811l-1.36-.962a24.604 24.604 0 0 1-6.574-7.441l-.206-.359-.01-.019a24.333 24.333 0 0 1 1.107-25.165c7.09-10.661 21.325-14.017 32.408-7.638 5.869 3.378 9.974 8.851 11.558 15.411 1.585 6.564.437 13.299-3.231 18.965a24.362 24.362 0 0 1-12.775 9.865v.256a5.674 5.674 0 0 0 2.217 4.5 5.615 5.615 0 0 0 3.458 1.175 1 1 0 0 1 0 2z"/><path fill="#DBDBD5" d="M84.502 213.231H142.5v-5.999H84.502z"/><path fill="#42494E" d="M42.5 221.231a.95.95 0 0 1-.38-.071.989.989 0 0 1-.62-.929 1 1 0 0 1 .29-.71c.37-.37 1.05-.37 1.42 0 .04.05.08.099.12.16.04.05.069.109.09.17.03.059.05.12.059.189a.997.997 0 0 1-.269.901.997.997 0 0 1-.71.29m146.09 0a.999.999 0 0 1-.39-.071.997.997 0 0 1-.32-.219.989.989 0 0 1-.29-.71 1 1 0 0 1 .29-.71c.09-.09.2-.16.32-.21a.996.996 0 0 1 1.09.21c.189.189.3.45.3.71 0 .269-.111.519-.3.71a.958.958 0 0 1-.7.29"/></g></svg>