<?xml version="1.0" encoding="utf-8"?><svg xmlns="http://www.w3.org/2000/svg" width="250" height="250" viewBox="0 0 250 250"><g fill="none" fill-rule="evenodd"><path fill="#F58E70" d="M187.882 170.883s-3.206-35.638-3.779-37.931a.858.858 0 0 0 .86-.859v-2.149l-2.185-2.58-2.113 2.58v2.149c0 .475.385.86.86.859-.573 2.293-3.643 37.931-3.643 37.931l5.001 6 4.999-6"/><path fill="#48515A" d="M164.571 220.857l-.065-38.143h-2.002v-38.833h2v36.833h1.998l.069 40.139-2 .004M208.296 188.881h-8.413v-2h7.585l1.415-1.415v-52.947l-16.057-7.488-2.511-4.112h-1.054v-2h2.177l2.781 4.554 16.664 7.771v55.05l-2.587 2.587"/><path fill="#DFE0E0" d="M176.821 120.338v1.736l6.012 3.378 5.96-3.278.054-3.178v-2.678c.228-.225.461-.466.67-.709-.071.062-.14.125-.198.188-.836.898-2.103 1.841-2.961 2.574-.679.579-1.537.9-2.429.91h-2.58a3.805 3.805 0 0 1-2.429-.91c-.819-.7-2.01-1.59-2.844-2.451-.025-.026-.054-.052-.081-.078.25.266.536.536.841.804-.007.004-.015.007-.015.015v3.677"/><path fill="#48515A" d="M176.821 123.025a1 1 0 0 1-1-1v-5.364a1 1 0 0 1 2 0v5.364a1 1 0 0 1-1 1"/><path fill="#48515A" d="M188.807 122.926a1 1 0 0 1-1-1v-6.035l.297-.294c.225-.221.909-.895 1.058-1.292l2.571-5.253 2.66-1.331.552-2.739a.285.285 0 0 0-.08-.156.288.288 0 0 0-.209-.089h-1.74l.204-1.171c.211-1.214.318-2.3.318-3.228l.001-.547a10.02 10.02 0 0 0-.927-4.262 10.803 10.803 0 0 0-3.154-4.044 10.591 10.591 0 0 0-6.544-2.291c-2.751-.003-5.441 1.085-7.482 3.113-2.092 2.077-3.291 4.935-3.291 7.841v.19c0 .947.093 2.04.275 3.25l.173 1.149h-1.644a.337.337 0 0 0-.324.244l.787 2.753 2.339 1.351 2.442 5.161c.284.755 1.703 1.909 2.642 2.672.301.245.587.478.838.693a2.815 2.815 0 0 0 1.792.67h2.574a1 1 0 0 1 0 2h-2.585a4.818 4.818 0 0 1-3.079-1.15c-.241-.205-.515-.428-.801-.661-1.304-1.06-2.781-2.261-3.223-3.447l-2.141-4.518-2.5-1.444-1.098-3.987c0-1.064.715-1.964 1.689-2.246a22.065 22.065 0 0 1-.156-2.49v-.19c0-3.435 1.415-6.81 3.882-9.261 2.422-2.404 5.577-3.699 8.905-3.693 2.849.019 5.535.96 7.769 2.721a12.81 12.81 0 0 1 3.734 4.784 12.024 12.024 0 0 1 1.108 5.11l-.001.529c0 .749-.06 1.579-.179 2.479a2.28 2.28 0 0 1 1.041.614c.435.449.666 1.039.648 1.664l-.019.169-.769 3.809-2.929 1.465-2.236 4.56c-.192.524-.665 1.086-1.188 1.624v5.204a1 1 0 0 1-1 1m-9.861 8.737a1 1 0 0 1-.743-1.669l4.611-5.124 4.611 5.124a1 1 0 0 1-1.487 1.338l-3.124-3.472-3.125 3.472a.996.996 0 0 1-.743.331m-8.059 50.05c0-.55.439-1 1-1 .55 0 1 .45 1 1s-.45 1-1 1c-.561 0-1-.45-1-1zm4 0c0-.55.439-1 .99-1 .56 0 1.01.45 1.01 1s-.45 1-1.01 1a.994.994 0 0 1-.99-1zm4 0c0-.55.439-1 1-1 .55 0 1 .45 1 1s-.45 1-1 1c-.561 0-1-.45-1-1zm4 0c0-.55.439-1 1-1 .55 0 1 .45 1 1s-.45 1-1 1c-.561 0-1-.45-1-1zm4 0c0-.55.439-1 1-1 .55 0 1 .45 1 1s-.45 1-1 1c-.561 0-1-.45-1-1zm4 0c0-.55.439-1 1-1 .55 0 1 .45 1 1s-.45 1-1 1c-.561 0-1-.45-1-1zm4 0c0-.55.439-1 1-1 .55 0 1 .45 1 1s-.45 1-1 1c-.561 0-1-.45-1-1zM180.881 220.855h2v-28.974h-2zM200.883 220.855h-2v-40.141h2v-36.833h2v38.833h-2v38.141"/><path fill="#48515A" d="M204.297 200.881h-4.414v-2h3.586l1.414-1.414v-9.586h2v10.414l-2.586 2.586M169.826 190.881h-4.322v-2h3.178l1.884-3.209v-1.854h2v2.398l-2.74 4.665M199.633 190.881h-4.363l-2.387-4.698v-2.427h2v1.949l1.613 3.176h3.137v2M164.882 188.881h-8.414l-2.586-2.587v-55.05l16.664-7.771 2.779-4.554h2.562v2h-1.439l-2.51 4.112-16.056 7.488v52.947l1.414 1.415h7.586v2"/><path fill="#48515A" d="M164.882 200.881h-4.414l-2.586-2.586v-10.414h2v9.586l1.414 1.414h3.586v2"/><path fill="#FFF" d="M58.789 68.164h20.083v-28H58.789z"/><path fill="#475059" d="M59.789 67.164h18.083v-26H59.789v26zm-2 2h22.083v-30H57.789v30z"/><path fill="#FFF" d="M62.789 48.164h12.083v-4H62.789z"/><path fill="#475059" d="M63.789 47.164h10.083v-2H63.789v2zm-2 2h14.083v-6H61.789v6z"/><path fill="#FFF" d="M62.873 51.122v14.042"/><path fill="#475059" d="M61.872 53.122h2v-2h-2v2zm0 4h2v-2h-2v2zm0 4h2v-2h-2v2zm0 4h2v-2h-2v2z"/><path fill="#FFF" d="M66.872 51.122v14.042"/><path fill="#475059" d="M65.872 53.122h2v-2h-2v2zm0 4h2v-2h-2v2zm0 4h2v-2h-2v2zm0 4h2v-2h-2v2z"/><path fill="#FFF" d="M70.872 51.122v14.042"/><path fill="#475059" d="M69.872 53.122h2v-2h-2v2zm0 4h2v-2h-2v2zm0 4h2v-2h-2v2zm0 4h2v-2h-2v2z"/><path fill="#FFF" d="M74.872 51.122v6.042"/><path fill="#475059" d="M73.872 53.122h2v-2h-2v2zm0 4h2v-2h-2v2z"/><path fill="#FFF" d="M74.872 59.122v6.042"/><path fill="#475059" d="M73.872 65.164h2v-6.042h-2z"/><path fill="#48515A" d="M69.306 31.912a21.733 21.733 0 0 0-15.469 6.407 21.731 21.731 0 0 0-6.407 15.468c0 10.521 7.496 19.561 17.825 21.496l.382.071 3.669 4.892 3.669-4.892.381-.071c10.33-1.935 17.826-10.975 17.826-21.495 0-12.062-9.814-21.876-21.876-21.876zm0 51.667l-4.805-6.406C53.426 74.911 45.43 65.139 45.43 53.787a23.716 23.716 0 0 1 6.993-16.882c4.51-4.509 10.505-6.993 16.882-6.993h.001c13.165 0 23.876 10.711 23.876 23.876 0 11.351-7.996 21.123-19.072 23.385l-4.804 6.406z"/><path fill="#475059" d="M140.919 58.753l-1.902-.619.34-1.046-1.314-.429a3.662 3.662 0 0 1-2.566-3.54c.002-1.641 1.011-3.028 2.573-3.533l1.315-.426-.723-2.236-1.318.426c-1.559.508-3.191-.026-4.155-1.354a3.662 3.662 0 0 1 .004-4.371l.814-1.119-1.899-1.383-.814 1.118c-.966 1.327-2.595 1.856-4.159 1.347a3.665 3.665 0 0 1-2.566-3.539l.002-1.384-2.35-.002-.002 1.385a3.663 3.663 0 0 1-2.571 3.533c-1.563.504-3.193-.026-4.157-1.355l-.813-1.12-1.902 1.379.812 1.12a3.663 3.663 0 0 1-.004 4.371 3.664 3.664 0 0 1-4.159 1.347l-1.315-.429-.342 1.046-1.901-.62.962-2.947 3.215 1.049c.876.286 1.568-.135 1.923-.623.356-.488.542-1.275.002-2.02l-1.986-2.74 5.141-3.726 1.986 2.739c.54.745 1.348.81 1.921.626.574-.186 1.187-.712 1.188-1.633l.004-3.384 6.35.006-.004 3.384c-.001.92.612 1.449 1.186 1.636.573.185 1.38.122 1.922-.623l1.991-2.735 5.134 3.737-1.992 2.736c-.542.744-.356 1.531-.002 2.02.356.489 1.05.91 1.92.626l3.221-1.043 1.956 6.041-3.22 1.042c-.875.284-1.188 1.03-1.188 1.633-.001.604.31 1.351 1.185 1.637l3.217 1.048-.96 2.947"/><path fill="#F58E70" d="M131.548 55.777l-1.902-.62a6.62 6.62 0 0 0-4.237-8.335 6.569 6.569 0 0 0-5.046.392 6.566 6.566 0 0 0-3.289 3.845l-1.902-.62a8.556 8.556 0 0 1 4.285-5.008 8.556 8.556 0 0 1 6.571-.511c4.515 1.472 6.991 6.342 5.52 10.857"/><path fill="#F58E70" d="M123.392 61.654a8.611 8.611 0 0 1-2.679-.429c-4.515-1.471-6.99-6.342-5.519-10.857l1.903.62c-1.13 3.466.769 7.206 4.235 8.336a6.578 6.578 0 0 0 5.046-.392 6.566 6.566 0 0 0 3.29-3.844l1.902.62a8.553 8.553 0 0 1-4.286 5.007 8.564 8.564 0 0 1-3.892.939"/><path fill="#475059" d="M126.538 71.485l-6.35-.007.003-3.384c.001-.92-.611-1.448-1.185-1.635-.572-.186-1.381-.123-1.922.622l-1.992 2.735-5.133-3.737 1.992-2.736c.542-.744.357-1.531.002-2.02-.355-.489-1.045-.912-1.921-.626l-3.219 1.042-1.955-6.041 3.219-1.042c.875-.283 1.188-1.029 1.189-1.633 0-.604-.311-1.35-1.186-1.636l-3.217-1.049 1.081-3.312 1.902.62-.461 1.411 1.315.429a3.665 3.665 0 0 1 2.566 3.539 3.665 3.665 0 0 1-2.573 3.534l-1.317.426.724 2.235 1.317-.426c1.557-.506 3.191.026 4.155 1.355a3.662 3.662 0 0 1-.004 4.371l-.814 1.119 1.898 1.383.815-1.118a3.67 3.67 0 0 1 4.159-1.347 3.662 3.662 0 0 1 2.565 3.539l-.001 1.384 2.35.003.001-1.384a3.665 3.665 0 0 1 2.573-3.534 3.663 3.663 0 0 1 4.157 1.356l.812 1.12 1.902-1.379-.812-1.121a3.662 3.662 0 0 1 .004-4.37 3.665 3.665 0 0 1 4.159-1.347l1.316.429.508-1.561 1.903.62-1.129 3.462-3.217-1.049c-.876-.285-1.568.134-1.923.623-.356.488-.542 1.274-.002 2.019l1.986 2.74-5.14 3.727-1.987-2.74c-.539-.745-1.346-.811-1.921-.626-.574.186-1.188.712-1.189 1.633l-.003 3.384"/><path fill="#FFD15D" d="M127.388 53.175a4.072 4.072 0 1 1-8.144 0 4.072 4.072 0 0 1 8.144 0"/><path fill="#FFD15D" d="M123.315 49.602a3.576 3.576 0 0 0-3.572 3.573 3.576 3.576 0 0 0 3.572 3.572 3.577 3.577 0 0 0 3.574-3.572 3.577 3.577 0 0 0-3.574-3.573zm0 8.145a4.577 4.577 0 0 1-4.572-4.572 4.577 4.577 0 0 1 4.572-4.573 4.578 4.578 0 0 1 4.574 4.573 4.578 4.578 0 0 1-4.574 4.572z"/><path fill="#48515A" d="M123.742 30.911c-12.061 0-21.875 9.814-21.875 21.876 0 10.52 7.496 19.56 17.823 21.494l.383.072 3.669 4.892 3.669-4.891.382-.072c10.329-1.935 17.825-10.975 17.825-21.495 0-12.062-9.813-21.876-21.876-21.876zm0 51.668l-4.804-6.407c-11.075-2.262-19.071-12.034-19.071-23.385 0-13.165 10.71-23.876 23.875-23.876s23.876 10.711 23.876 23.876c0 11.351-7.996 21.123-19.071 23.386l-4.805 6.406z"/><path fill="#FFD15D" d="M188.343 48.367a8.5 8.5 0 1 1-8.5-8.501 8.5 8.5 0 0 1 8.5 8.501"/><path fill="#48515A" d="M186.145 65.725a1 1 0 0 1-1-1v-3.032c0-2.005.828-3.903 2.332-5.345a10.906 10.906 0 0 0 3.392-7.938c0-3.055-1.222-5.897-3.44-8a10.964 10.964 0 0 0-8.188-3.006c-5.656.302-10.228 4.977-10.411 10.643a11.012 11.012 0 0 0 3.441 8.352c1.469 1.39 2.279 3.215 2.279 5.137v3.189a1 1 0 1 1-2 0v-3.189c0-1.367-.587-2.675-1.654-3.684a13.01 13.01 0 0 1-4.064-9.87c.215-6.695 5.619-12.218 12.302-12.574 3.617-.189 7.051 1.067 9.671 3.551a12.902 12.902 0 0 1 4.064 9.451 12.89 12.89 0 0 1-4.008 9.382c-1.107 1.061-1.716 2.446-1.716 3.901v3.032a1 1 0 0 1-1 1"/><path fill="#48515A" d="M179.937 72.882a1 1 0 0 1-.009-2l2.688-.025a2.916 2.916 0 0 0 1.676-.827c.55-.549.853-1.28.853-2.057v-3.139a1 1 0 1 1 2 0v3.139a4.878 4.878 0 0 1-1.439 3.472 4.926 4.926 0 0 1-2.909 1.405l-.106.007-2.746.025h-.008"/><path fill="#48515A" d="M188.438 65.724l-17.001-.001a1 1 0 1 1 0-2l17.001.001a1 1 0 0 1 0 2"/><path fill="#48515A" d="M179.937 72.882h-2.478a4.878 4.878 0 0 1-3.472-1.438 4.877 4.877 0 0 1-1.437-3.471v-2.825a1 1 0 1 1 2 0v2.825c0 .778.303 1.508.851 2.056.55.55 1.281.853 2.058.853h2.478a1 1 0 0 1 0 2M182.952 64.725h-2v-7.332l5.211-9.917v-1.17h2v1.663l-5.211 9.917v6.839M178.701 64.725h-2v-6.839l-5.211-9.917v-1.664h2v1.171l5.211 9.917v7.332M175.036 47.013c0-.55.441-1 1-1 .551 0 1 .45 1 1s-.449 1-1 1c-.559 0-1-.45-1-1zm4 0a.994.994 0 1 1 1.99 0 .994.994 0 1 1-1.99 0zm4 0c0-.55.441-1 1-1 .551 0 1 .45 1 1s-.449 1-1 1c-.559 0-1-.45-1-1z"/><path fill="#48515A" d="M179.992 31.912a21.73 21.73 0 0 0-15.468 6.407 21.735 21.735 0 0 0-6.407 15.468c0 10.521 7.496 19.561 17.824 21.496l.382.071 3.669 4.892 3.669-4.892.382-.071c10.329-1.935 17.825-10.975 17.825-21.495 0-12.062-9.813-21.876-21.876-21.876zm0 51.667l-4.804-6.406c-11.075-2.262-19.071-12.034-19.071-23.386a23.72 23.72 0 0 1 6.993-16.882 23.718 23.718 0 0 1 16.881-6.993h.001c13.165 0 23.876 10.711 23.876 23.876 0 11.351-7.996 21.123-19.071 23.385l-4.805 6.406zM151.796 103.187h2v-4h-2zM151.796 113.187h2v-4h-2zM155.796 107.187h4v-2h-4zM145.796 107.187h4v-2h-4zM91.76 83.175h2v-4h-2zM91.76 93.175h2v-4h-2zM95.76 87.175h4v-2h-4zM85.76 87.175h4v-2h-4z"/><path fill="#FFD15D" d="M85.864 114.187a1 1 0 1 1-2 0 1 1 0 0 1 2 0m16-15a2 2 0 1 1-4 0 2 2 0 0 1 4 0m46-10a2 2 0 1 1 4 0 2 2 0 0 1-4 0m58 29a1 1 0 1 1 2 0 1 1 0 0 1-2 0m-50-26a1 1 0 1 1 2 0 1 1 0 0 1-2 0m4 23a2 2 0 1 1 4 0 2 2 0 0 1-4 0"/><path fill="#5FE0ED" d="M123.336 84.729c-7.933.146-14.206 6.888-14.206 14.92v19.56h9.564l-.026-2.551c-.877-.906-1.833-2.04-2.638-3.356-1.984-3.242-2.764-7.464-2.764-11.571v-.319h8.874l-.094-4.28a15.539 15.539 0 0 0 10.695 4.28h1.582v.319c0 4.124-.957 8.31-2.963 11.548-1.325 2.14-3.159 3.827-4.3 4.81l1.63 1.12h9.393V99.413c0-8.202-6.609-14.834-14.747-14.684"/><path fill="#EAEAE9" d="M112.269 131.39h4.888l-1.55-2.284h-.799l-2.539 2.284M134.548 131.39h-4.888l1.551-2.284h.799l2.538 2.284M118.662 124.156l-3.009 4.949 7.145 10.276h.759l-4.895-15.225"/><path fill="#EAEAE9" d="M128.667 120.494l3.155 3.283 3.015 7.229h-.752l-1.879-1.901h-.752l-3.009-4.949.222-3.662"/><path fill="#EAEAE9" d="M128.682 122.511v-5.481l-2.035 1.273a3.448 3.448 0 0 1-1.829.526h-2.269a3.46 3.46 0 0 1-2.221-.81l-1.661-1.394.001 2.157 10.014 3.729"/><path fill="#48515A" d="M124.705 119.921h-2.33a4.223 4.223 0 0 1-2.798-1.026c-1.258-1.089-3.042-2.851-4.399-5.071-2.407-3.932-2.912-8.747-2.912-12.093v-.319h2v.319c0 3.089.454 7.514 2.617 11.05 1.224 2 2.851 3.605 4.002 4.6.421.363.908.54 1.49.54h2.33c.673 0 1.213-.17 1.604-.504.69-.591 2.792-2.39 4.202-4.665 1.812-2.927 2.811-6.841 2.811-11.021v-.319h2v.319c0 4.547-1.105 8.835-3.111 12.074-1.573 2.539-3.853 4.49-4.602 5.131-.763.654-1.741.985-2.904.985"/><path fill="#48515A" d="M117.661 120.684h2v-4.044h-2zM127.438 120.922h2v-3.996h-2zM149.262 187.247h-7.067v-2h4.934l-3.27-50.811a9.026 9.026 0 0 0-5.633-7.188l-6.755-2.535.703-1.872 6.767 2.54c3.736 1.463 6.377 4.856 6.908 8.859l3.413 53.007m-43.068 0h-7.041l2.121-52.916c.539-4.094 3.18-7.487 6.903-8.945l6.748-2.544.705 1.871-6.736 2.54c-3.033 1.188-5.195 3.968-5.629 7.25l-2.03 50.744h4.959v2"/><path fill="#48515A" d="M114.56 128.105h1.616l5.022 7.224-3.536-11.173v-1.37l-1.536 1.555-1.566 3.764zm10.361 12.276h-2.646l-7.067-10.165-1.769 1.79h-2.668l3.658-8.793 5.233-5.297V124l5.259 16.381z"/><path fill="#48515A" d="M129.444 122.789l-.048 1.673-3.489 10.868 5.025-7.225h1.612l-1.57-3.764-1.53-1.552zm-4.613 17.592h-2.645L127.444 124v-6.088l5.227 5.301 3.667 8.793h-2.671l-1.768-1.789-7.068 10.164zm-16.63 80.708l-3-30.246-.007-11.86c0-1.957.65-3.885 1.831-5.442l4.855-9.408-3.651-13.627 1.932-.517 3.852 14.373-5.35 10.331a7.03 7.03 0 0 0-1.469 4.29l.002 11.761 2.995 30.147-1.99.198M123.028 220.406h2v-33.992h-2zM139.957 221.089l-1.99-.198 3-30.246-.003-11.593a7.025 7.025 0 0 0-1.536-4.376l-.101-.153-5.408-10.101 2.289-14.332 1.975.315-2.182 13.668 5.048 9.427a9.046 9.046 0 0 1 1.915 5.552l-.002 11.692-3.005 30.345"/><path fill="#48515A" d="M144.609 195.247h-2.414v-2h1.586l1.414-1.414v-5.586h2v6.414l-2.586 2.586M106.194 195.247h-2.414l-2.586-2.586v-6.414h2v5.586l1.414 1.414h1.586v2M112.946 165.247h22.014v-2h-22.014z"/><path fill="#FFD15D" d="M63.3 84.729c-7.933.146-14.207 6.888-14.207 14.92v19.56h9.565l-.026-2.551c-.877-.906-1.833-2.04-2.638-3.356-1.984-3.242-2.764-7.464-2.764-11.571v-.319h8.874l-.094-4.28a15.539 15.539 0 0 0 10.695 4.28h1.582v.319c0 4.124-.957 8.31-2.963 11.548-1.325 2.14-3.159 3.827-4.3 4.81l1.63 1.12h9.393V99.413c0-8.202-6.61-14.834-14.747-14.684"/><path fill="#EAEAE9" d="M52.233 131.39h4.888l-1.55-2.284h-.8l-2.538 2.284M74.512 131.39h-4.888l1.551-2.284h.799l2.538 2.284M58.626 124.156l-3.009 4.949 7.145 10.276h.759l-4.895-15.225"/><path fill="#EAEAE9" d="M68.631 120.494l3.155 3.283 3.015 7.229h-.752l-1.879-1.901h-.752l-3.009-4.949.222-3.662"/><path fill="#EAEAE9" d="M68.646 122.511v-5.481l-2.035 1.273a3.448 3.448 0 0 1-1.829.526h-2.269a3.456 3.456 0 0 1-2.22-.81l-1.662-1.394.001 2.157 10.014 3.729"/><path fill="#48515A" d="M64.669 119.921h-2.33a4.223 4.223 0 0 1-2.798-1.026c-1.258-1.089-3.042-2.851-4.399-5.071-2.408-3.932-2.913-8.747-2.913-12.093v-.319h2v.319c0 3.089.455 7.514 2.618 11.05 1.224 2 2.851 3.605 4.002 4.6.421.363.908.54 1.49.54h2.33c.673 0 1.213-.17 1.603-.504.691-.591 2.792-2.39 4.203-4.665 1.813-2.928 2.812-6.843 2.812-11.021v-.319h2v.319c0 4.546-1.105 8.834-3.112 12.074-1.573 2.539-3.853 4.49-4.602 5.131-.763.654-1.741.985-2.904.985"/><path fill="#48515A" d="M57.625 120.684h2v-4.044h-2zM67.402 120.922h2v-3.996h-2zM89.226 187.247h-7.067v-2h4.934l-3.27-50.811a9.03 9.03 0 0 0-5.634-7.188l-6.754-2.535.703-1.872 6.767 2.54c3.736 1.463 6.377 4.856 6.908 8.859l3.413 53.007m-43.068 0h-7.041l2.121-52.916c.539-4.095 3.181-7.487 6.903-8.945l6.748-2.544.705 1.871-6.737 2.54c-3.032 1.188-5.193 3.967-5.628 7.25l-2.03 50.744h4.959v2"/><path fill="#48515A" d="M54.523 128.105h1.617l5.022 7.224-3.536-11.173v-1.37l-1.536 1.555-1.567 3.764zm10.362 12.276h-2.646l-7.067-10.164-1.769 1.789h-2.669l3.659-8.793 5.233-5.297V124l5.259 16.381z"/><path fill="#48515A" d="M69.409 122.79l-.048 1.672-3.489 10.867 5.024-7.224h1.612l-1.571-3.764-1.528-1.551zm-4.614 17.591h-2.646L67.409 124v-6.088l5.226 5.301 3.667 8.793h-2.671l-1.768-1.789-7.068 10.164zm-16.63 80.708l-3-30.246-.007-11.86c0-1.955.65-3.884 1.831-5.441l4.856-9.409-3.652-13.627 1.932-.517 3.853 14.373-5.351 10.33a7.038 7.038 0 0 0-1.469 4.291l.002 11.761 2.995 30.147-1.99.198M62.992 220.406h2v-33.992h-2zM79.922 221.089l-1.99-.198 3-30.246-.004-11.593a7.025 7.025 0 0 0-1.536-4.376l-.101-.153-5.408-10.101 2.289-14.332 1.974.315-2.181 13.668 5.048 9.427a9.046 9.046 0 0 1 1.915 5.552l-.001 11.692-3.005 30.345"/><path fill="#48515A" d="M84.573 195.247h-2.414v-2h1.586l1.414-1.414v-5.586h2v6.414l-2.586 2.586M46.158 195.247h-2.414l-2.586-2.586v-6.414h2v5.586l1.414 1.414h1.586v2M52.911 165.247h22.013v-2H52.911z"/></g></svg>