<?xml version="1.0" encoding="utf-8"?><svg xmlns="http://www.w3.org/2000/svg" width="250" height="250" viewBox="0 0 250 250"><g fill="none" fill-rule="evenodd"><path fill="#5FE0ED" d="M74.021 129.894c-8.218-15.914-8.521-34.428-.807-49.525a53.91 53.91 0 0 1 12.729-16.283c10.145-8.799 23.154-13.645 36.636-13.645 13.48 0 26.491 4.846 36.636 13.644a54.969 54.969 0 0 1 2.116 1.949 55.289 55.289 0 0 1 3.111 3.109c4.205 4.546 7.404 10.387 9.271 16.96.185.654.333 1.316.488 1.977h8.185a52.259 52.259 0 0 0-.995-4.235c-2.188-7.708-6.017-14.67-11.072-20.138a63.604 63.604 0 0 0-3.494-3.494 61.194 61.194 0 0 0-2.365-2.174c-11.601-10.062-26.475-15.603-41.881-15.603-15.407 0-30.281 5.541-41.881 15.603-6.036 5.236-10.952 11.523-14.613 18.689-8.884 17.389-8.576 38.637.825 56.84 2.704 5.236 5.181 12.46 7.269 20.8h8.257c-2.341-9.756-5.214-18.276-8.415-24.474"/><path fill="#475059" d="M146.394 212.563l-3.112-24.356c0-3.972 3.232-7.204 7.203-7.204h18.471c3.773 0 6.851-3.075 6.86-6.856l.017-6.701c.006-1.303.449-2.043.878-2.759.288-.483.587-.981.826-1.77.019-.431.002-2.317-.026-3.999l-.007-.413 2.78-2.89-1.34-2.679v-.236c0-1.806 1.18-3.511 2.805-4.052l.154-.051h4.024c1.089 0 2.057-.411 2.657-1.127.833-.994 1.017-2.327.479-3.479-2.139-4.582-7.392-16.153-9.948-24.603-.538-1.778-.79-3.534-.75-5.22l-.004-16.248a46.316 46.316 0 0 0-1.76-12.637c-1.997-7.027-5.431-13.288-9.955-18.179a58.604 58.604 0 0 0-3.28-3.277 58.377 58.377 0 0 0-2.183-2.009c-10.692-9.273-24.402-14.38-38.604-14.38-14.203 0-27.913 5.107-38.604 14.38A56.908 56.908 0 0 0 70.54 79.003c-8.152 15.957-7.848 35.497.814 52.268 8.336 16.141 14.394 48.559 14.403 77.083l.102 4.058-2 .049-.102-4.082c-.009-28.267-5.973-60.299-14.18-76.19-8.957-17.343-9.262-37.566-.818-54.096a58.882 58.882 0 0 1 13.905-17.785c11.056-9.589 25.231-14.87 39.914-14.87 14.685 0 28.86 5.281 39.915 14.87a58.469 58.469 0 0 1 2.245 2.064 60.733 60.733 0 0 1 3.377 3.375c4.736 5.12 8.327 11.662 10.389 18.917a48.452 48.452 0 0 1 1.857 13.255l.004 16.273c-.035 1.497.189 3.043.664 4.617 2.518 8.326 7.725 19.793 9.847 24.336.87 1.864.579 4.013-.759 5.609-.981 1.171-2.509 1.843-4.19 1.843h-3.68c-.691.298-1.214 1.064-1.292 1.887l1.749 3.5-3.186 3.313c.059 3.765.012 3.929-.034 4.087-.316 1.091-.727 1.778-1.057 2.33-.368.615-.591.986-.594 1.74l-.017 6.699c-.013 4.88-3.988 8.85-8.86 8.85h-18.471a5.21 5.21 0 0 0-5.203 5.143l3.096 24.164-1.984.253"/><path fill="#2B2B2B" d="M174.675 162.004"/><path fill="#DEDEDD" d="M131.999 103.687a5 5 0 0 1 10 0c0 1.564-.732 2.943-1.856 3.86l.606 7.638h-7.499l.606-7.638c-1.124-.917-1.857-2.296-1.857-3.86M154.988 114.436h16v-8.999h-16z"/><path fill="#DEDEDD" d="M170.988 106.436H99.417l-6.417-4h77.988v4"/><path fill="#2B2B2B" d="M86.058 109.867l-.053 1.486c-.005 3.943 3.136 7.084 6.995 7.084s7-3.141 7-7c0-3.86-3.141-7-7-7v-2c3.859 0 7-3.141 7-7.001 0-3.859-3.141-7-7-7s-7 3.141-7 7l.058 1.569-1.295-.335C80.117 95.464 76 99.005 76 103.437c0 4.433 4.154 7.961 8.762 6.766l1.296-.336zM93 120.437c-4.647 0-8.482-3.541-8.952-8.065-5.401.659-10.048-3.627-10.048-8.935 0-5.309 4.634-9.592 10.048-8.936.47-4.524 4.305-8.065 8.952-8.065 4.963 0 9 4.038 9 9a9.01 9.01 0 0 1-4.879 8.001 9.007 9.007 0 0 1 4.879 8c0 4.962-4.037 9-9 9zM144.066 104.437h26.922v-2h-26.922z"/><path fill="#2B2B2B" d="M93 104.437h49.004v-2H93zM161.917 112.436h2v-8.999h-2z"/><path fill="#2B2B2B" d="M171 112.437h-3v-4h-10v4h-3.083v-2H156v-4h14v4h1v2M105.917 107.437h2v-8.001h-2zM140.749 116.185h-8.582l.653-8.224a5.947 5.947 0 0 1-1.821-4.273 6.004 6.004 0 0 1 6-6.001v2a4.004 4.004 0 0 0-4 4.001c0 1.187.543 2.312 1.489 3.083l.407.332-.562 7.082h6.416v2"/><path fill="#48515A" d="M213 189.437h2v-4h-2zM213 199.437h2v-4h-2zM217 193.437h4v-2h-4zM207 193.437h4v-2h-4zM35 141.437h2v-4h-2zM35 151.437h2v-4h-2zM39 145.437h4v-2h-4zM29 145.437h4v-2h-4zM191 41.436h2v-4h-2zM191 51.436h2v-4h-2zM195 45.436h4v-2h-4zM185 45.436h4v-2h-4z"/><path fill="#5FE0ED" d="M210.317 133.709a3.317 3.317 0 1 1-6.634 0 3.317 3.317 0 0 1 6.634 0m-154.5-68.286a3.317 3.317 0 1 1-6.634 0 3.317 3.317 0 0 1 6.634 0"/><path fill="#F58E70" d="M164.835 198.437a1 1 0 1 1-2 0 1 1 0 0 1 2 0m-110.335-13a2 2 0 1 1-4 0 2 2 0 0 1 4 0"/></g></svg>