<?xml version="1.0" encoding="utf-8"?><svg xmlns="http://www.w3.org/2000/svg" width="250" height="250" viewBox="0 0 250 250"><g fill="none" fill-rule="evenodd"><path fill="#FFD15D" d="M101 206.5h45v-2h-45v2zm-18.002 5.001h82.003v-25.002H82.998v25.002z"/><path fill="#F58E70" d="M151.037 186.499h8.003v-39.748l-8.003-2.823v42.571"/><path fill="#DFE0E0" d="M139.062 135.749l.013-7.371v-6.741l.003-.257c-2.027 1.977-4.609 4.064-6.439 5.626-1.708 1.459-3.892 2.493-6.138 2.493h-6.489a8.611 8.611 0 0 1-5.669-2.106c-1.416-1.237-3.419-2.826-5.268-4.456v2.825l25.048 25.048c3.33-1.792 6.262-4.524 8.367-8.207l2.489-4.354-5.917-2.5"/><path fill="#48515A" d="M59.951 211.276l-2-.004.106-49.883c0-5.975 3.772-7.876 9.102-9.909l40.916-16.49v-11.491h2v12.842L67.89 153.342c-5.33 2.033-7.833 3.487-7.833 8.049l-.106 49.885m130.083-.001l-2-.001.014-49.763c0-4.454-2.345-6.035-7.953-8.098l-42.034-17.243.014-14.867.179-.256c.407-.588.897-1.164 1.371-1.721.678-.797 1.379-1.621 1.615-2.248l6.033-12.654 6.902-3.511 1.576-7.935a2.657 2.657 0 0 0-.752-1.801c-.425-.437-.958-.678-1.5-.678h-2.386v-5h2v3h.386c1.087 0 2.129.456 2.935 1.284a4.625 4.625 0 0 1 1.316 3.328l-.02.166-1.784 8.978-7.161 3.644-5.707 11.962c-.325.875-1.104 1.791-1.931 2.761-.37.436-.751.884-1.072 1.316l-.012 12.891 40.757 16.72c5.213 1.917 9.228 3.878 9.228 9.962l-.014 49.764"/><path fill="#48515A" d="M126.075 130.499h-6.066c-2.298 0-4.699-.97-6.763-2.732-.558-.476-1.184-.991-1.844-1.533-3.214-2.641-6.858-5.634-7.846-8.285l-5.641-11.969-6.175-3.592-2.535-9.273c0-2.502 1.999-4.616 4.365-4.616h.214v-3h2v5H93.57c-1.2 0-2.296 1.172-2.362 2.491l2.241 8.078 6.01 3.496 5.938 12.61c.832 2.223 4.556 5.281 7.275 7.515.67.55 1.307 1.073 1.873 1.557 1.701 1.453 3.642 2.253 5.464 2.253h6.066v2m-2.012 23.994c-10.072 0-18.882-6.444-21.926-16.034a1 1 0 1 1 1.906-.605c2.779 8.756 10.824 14.639 20.02 14.639a20.987 20.987 0 0 0 19.902-14.279.995.995 0 0 1 1.266-.628.999.999 0 0 1 .628 1.267 22.985 22.985 0 0 1-21.796 15.64M169.001 211.499h-2v-27H80.998v27h-2v-29h90.003v29"/><path fill="#475059" d="M154.966 74.135c-.859-14.68-12.035-26.884-26.577-29.018l.291-1.979c15.474 2.271 27.369 15.258 28.282 30.88l-1.996.117M91.616 83.481h64.404v-2H91.616zM92.676 74.04l-1.996-.123c.976-15.878 13.133-28.859 28.907-30.866l.252 1.985c-14.821 1.885-26.245 14.083-27.163 29.004"/><path fill="#475059" d="M128.978 66.022h-2V40.499h-6.32v25.523h-2V38.499h10.32v27.523M86.12 83.481V73.028h23.111v2H88.12v6.453h21.111v2H86.12M161.879 83.481h-23.11v-2h21.11v-6.454h-21.11v-2h23.11v10.454"/><path fill="#475059" d="M123.817 66.038c-4.256 0-7.72 3.464-7.72 7.721 0 4.258 3.464 7.722 7.72 7.722 4.258 0 7.722-3.464 7.722-7.722 0-4.257-3.464-7.721-7.722-7.721zm0 17.443c-5.36 0-9.72-4.361-9.72-9.722 0-5.36 4.36-9.721 9.72-9.721 5.361 0 9.722 4.361 9.722 9.721 0 5.361-4.361 9.722-9.722 9.722z"/><path fill="#FFD15D" d="M116.659 64.499c-2.769 2.146-4.563 5.494-4.563 9.26 0 2.078.55 4.027 1.502 5.722H90.121v-2.454h19.11v-6H95.042c1.944-11.364 10.46-20.549 21.617-23.354v16.826m6-22h2.318v19.598a11.68 11.68 0 0 0-1.159-.059c-.391 0-.778.021-1.159.059V42.499"/><path fill="#5FE0ED" d="M123.818 79.481a5.729 5.729 0 0 1-5.722-5.722 5.728 5.728 0 0 1 5.722-5.721 5.728 5.728 0 0 1 5.721 5.721 5.728 5.728 0 0 1-5.721 5.722"/><path fill="#FFD15D" d="M157.879 79.481h-23.842a11.636 11.636 0 0 0 1.502-5.722c0-3.766-1.793-7.114-4.562-9.26V47.682c11.133 2.814 19.648 12.04 21.599 23.345h-13.808v6h19.111v2.454"/><path fill="#48515A" d="M36 101.499h2v-4h-2zM36 111.499h2v-4h-2zM40 105.499h4v-2h-4zM30 105.499h4v-2h-4zM212 137.499h2v-4h-2zM212 147.499h2v-4h-2zM216 141.499h4v-2h-4zM206 141.499h4v-2h-4zM178 53.499h2v-4h-2zM178 63.499h2v-4h-2zM182 57.499h4v-2h-4zM172 57.499h4v-2h-4z"/><path fill="#FFD15D" d="M170 116.499a3 3 0 1 1-6 0 3 3 0 0 1 6 0m-108 24a3 3 0 1 1-6 0 3 3 0 0 1 6 0"/><path fill="#DEDEDD" d="M74 56.499a3 3 0 1 1-6 0 3 3 0 0 1 6 0"/><path fill="#48515A" d="M93.001 198.498a1.001 1.001 0 0 0 0 2 1.001 1.001 0 0 0 0-2zm0 4c-1.654 0-3-1.346-3-3s1.346-3 3-3 3 1.346 3 3-1.346 3-3 3zM101.002 190.499H85v-45h2v43h12.002v-49.003h2v51.003"/><path fill="#48515A" d="M94.72 198.499h-3.441L85 194.014v-4.515h2v3.485l4.92 3.515h2.159l4.92-3.515v-3.485h2v4.515l-6.279 4.485M155.039 198.498a1.001 1.001 0 0 0 0 2 1.001 1.001 0 0 0 0-2zm0 4c-1.654 0-3-1.346-3-3s1.346-3 3-3 3 1.346 3 3-1.346 3-3 3zM163.039 190.499h-16.002v-51.318h2v49.318h12.002v-43h2v45"/><path fill="#48515A" d="M156.743 198.499h-3.446l-6.296-4.484v-4.516h2v3.485l4.935 3.515h2.168l4.935-3.515v-3.485h2v4.516l-6.296 4.484"/><path fill="#475059" d="M102 198.499h2v-2h-2v2zm4 0h2v-2h-2v2zm4 0h2v-2h-2v2zm4 0h2v-2h-2v2zm4 0h2v-2h-2v2zm4 0h2v-2h-2v2zm4 0h2v-2h-2v2zm4 0h2v-2h-2v2zm4 0h2v-2h-2v2zm4 0h1.995v-2H138v2z"/><path fill="#48515A" d="M146 211.499h2v-5h-2zM101.998 211.499h-2v-9h40.565v2h-38.565v7"/><path fill="#475059" d="M99.999 200.5h2v-2h-2v2zm4 0h2v-2h-2v2zm4 0h2v-2h-2v2zm4 0h2v-2h-2v2zm4 0h2v-2h-2v2zm4 0h2v-2h-2v2zm4 0h2v-2h-2v2zm4 0h2v-2h-2v2zm4 0h2v-2h-2v2zm4 0h2v-2h-2v2zm4 0h1.998v-2h-1.998v2z"/><path fill="#48515A" d="M143.999 198.499v3a1.001 1.001 0 0 0 2 0v-3h-2zm1 6c-1.654 0-3-1.346-3-3v-5h6v5c0 1.654-1.346 3-3 3z"/><path fill="#F58E70" d="M89 186.499h8.002v-43.001L89 146.529v39.97"/></g></svg>