<?xml version="1.0" encoding="utf-8"?><svg xmlns="http://www.w3.org/2000/svg" width="250" height="250" viewBox="0 0 250 250"><g fill="none" fill-rule="evenodd"><path fill="#475059" d="M41 59.477c-.551 0-1 .449-1 1v46.002c0 .551.449 1 1 1h70c.551 0 1-.449 1-1V60.477c0-.551-.449-1-1-1H41zm70 50.002H41c-1.654 0-3-1.346-3-3V60.477c0-1.654 1.346-3 3-3h70c1.654 0 3 1.346 3 3v46.002c0 1.654-1.346 3-3 3z"/><path fill="#475059" d="M67.02 118.479h17.96l-1.481-9H68.501l-1.481 9zm19.981 2H64.999l.014-2.121 1.488-9.045v-1.834h18.998v1.917l1.502 9.125v1.958z"/><path fill="#475059" d="M63 120.479h26v-2H63z"/><path fill="#DEDEDD" d="M42.002 100.478v4.501a.5.5 0 0 0 .5.5h66.997a.5.5 0 0 0 .5-.5v-4.501H42.002M69.376 116.479H82.62l-.83-5H70.198l-.822 5"/><path fill="#475059" d="M139 131.521c-.552 0-1 .449-1 1v46a1 1 0 0 0 1 1h70a1 1 0 0 0 1-1v-46c0-.551-.448-1-1-1h-70zm70 50h-70c-1.654 0-3-1.345-3-3v-46c0-1.654 1.346-3 3-3h70c1.654 0 3 1.346 3 3v46c0 1.655-1.346 3-3 3z"/><path fill="#475059" d="M165.021 190.522h17.958l-1.48-9.001h-14.998l-.014.08-1.466 8.921zm19.979 2h-22l.014-2.121 1.487-9.045v-1.835h18.998v1.918l1.501 9.124v1.959z"/><path fill="#475059" d="M161 192.521h26v-2h-26z"/><path fill="#DEDEDD" d="M140.002 172.522v4.5a.5.5 0 0 0 .5.5h66.997a.5.5 0 0 0 .5-.5v-4.5h-67.997M167.376 188.522h13.244l-.83-5h-11.592l-.822 5"/><path fill="#475059" d="M170 93.449h6v-6h-6v6zm-2 2h10v-10h-10v10zM172 99.549h2v-2h-2zM172 103.549h2v-2h-2zM172 107.549h2v-2h-2zM172 111.549h2v-2h-2zM172 115.549h2v-2h-2zM172 119.549h2v-2h-2zM172 123.549h2v-2h-2zM172 127.549h2v-2h-2zM164.001 91.548h2v-2h-2zM160.001 91.548h2v-2h-2zM156.001 91.548h2v-2h-2zM152.001 91.548h2v-2h-2zM148.001 91.548h2v-2h-2zM144.001 91.548h2v-2h-2zM140.001 91.548h2v-2h-2zM136.001 91.548h2v-2h-2zM132.001 91.548h2v-2h-2zM128.001 91.548h2v-2h-2zM123.993 91.548h2v-2h-2zM119.993 91.548h2v-2h-2zM115.993 91.548h2v-2h-2zM73.968 162.565h6v-6h-6v6zm-2 2h10v-10h-10v10zM75.968 152.467h2v-2h-2zM75.968 148.467h2v-2h-2zM75.968 144.467h2v-2h-2zM75.968 140.467h2v-2h-2zM75.968 136.467h2v-2h-2zM75.968 132.467h2v-2h-2zM75.968 128.467h2v-2h-2zM75.968 124.467h2v-2h-2zM83.967 160.467h2v-2h-2zM87.967 160.467h2v-2h-2zM91.967 160.467h2v-2h-2zM95.967 160.467h2v-2h-2zM99.967 160.467h2v-2h-2zM103.967 160.467h2v-2h-2zM107.967 160.467h2v-2h-2zM111.967 160.467h2v-2h-2zM115.967 160.467h2v-2h-2zM119.967 160.467h2v-2h-2zM123.974 160.467h2v-2h-2zM127.975 160.467h2v-2h-2zM131.975 160.467h2v-2h-2z"/><path fill="#48515A" d="M35 135h2v-4h-2zM35 145h2v-4h-2zM39 139h4v-2h-4zM29 139h4v-2h-4zM213 101h2v-4h-2zM213 111h2v-4h-2zM217 105h4v-2h-4zM207 105h4v-2h-4z"/><path fill="#FFD15D" d="M194.562 86.562a2 2 0 1 1-3.999.001 2 2 0 0 1 3.999-.001"/><path fill="#FFD15D" d="M192.563 85.062a1.5 1.5 0 1 0 0 3 1.5 1.5 0 0 0 0-3zm0 4.001a2.503 2.503 0 0 1-2.5-2.5 2.503 2.503 0 0 1 2.5-2.501c1.378 0 2.5 1.122 2.5 2.501 0 1.378-1.122 2.5-2.5 2.5z"/><path fill="#5FE0ED" d="M50.562 161.438a2 2 0 1 1-4 0 2 2 0 0 1 4 0m20-28a2 2 0 1 1-4 0 2 2 0 0 1 4 0"/><path fill="#FFD15D" d="M88.438 172.562a1 1 0 1 1-2 0 1 1 0 0 1 2 0"/><path fill="#FFD15D" d="M87.438 172.063a.501.501 0 0 0 0 1 .5.5 0 0 0 0-1zm0 2a1.502 1.502 0 0 1-1.501-1.5 1.501 1.501 0 0 1 3.001 0c0 .827-.673 1.5-1.5 1.5z"/><path fill="#DEDEDD" d="M133 73a2 2 0 1 1-3.999.001A2 2 0 0 1 133 73m42-2a2 2 0 1 1-3.999.001A2 2 0 0 1 175 71"/><path fill="#48515A" d="M198 70c-1.103 0-2 .897-2 2s.897 2 2 2 2-.897 2-2-.897-2-2-2zm0 6c-2.206 0-4-1.794-4-4s1.794-4 4-4 4 1.794 4 4-1.794 4-4 4zM150 73h-2v-7.001h-1v-2h3V73"/><path fill="#48515A" d="M147 74h4v-2h-4zM190 121h-2v-7.001h-1v-2h3V121"/><path fill="#48515A" d="M187 122h4v-2h-4zM59 140c-.551 0-1 .448-1 1v4.001a1.001 1.001 0 0 0 2 0V141c0-.552-.449-1-1-1zm0 8.001c-1.654 0-3-1.346-3-3V141c0-1.654 1.346-3 3-3s3 1.346 3 3v4.001c0 1.654-1.346 3-3 3z"/></g></svg>