<?xml version="1.0" encoding="utf-8"?><svg xmlns="http://www.w3.org/2000/svg" width="250" height="250" viewBox="0 0 250 250"><g fill="none" fill-rule="evenodd"><path fill="#48515A" d="M201.097 218.041H40.081v-87.013h2.001v85.013h157.015v-84.013h2v86.013"/><path fill="#FFD15D" d="M77.56 220.041h-12l.5-88.986h12l-.5 88.986"/><path fill="#FFD15D" d="M66.063 219.541h11l.494-87.985h-11l-.494 87.985zm11.994 1h-13l.506-89.985h13l-.506 89.985z"/><path fill="#48515A" d="M82.56 181.54h-22v-14h5v2h-3v10h18v-10h-3v-2h5v14"/><path fill="#48515A" d="M70.56 180.54h2v-6h-2z"/><path fill="#48515A" d="M78.56 221.041h-14v-90.537h2v88.537h10v-88.537h2v90.537"/><path fill="#48515A" d="M61.56 190.535h20v-2h-20z"/><path fill="#FFD15D" d="M164.119 220.543h12v-89.488h-12z"/><path fill="#FFD15D" d="M164.619 220.043h11v-88.487h-11v88.487zm-1 1h13v-90.487h-13v90.487z"/><path fill="#48515A" d="M180.619 181.54h-22v-14h5v2h-3v10h18v-10h-3v-2h5v14"/><path fill="#48515A" d="M168.619 180.54h2v-6h-2z"/><path fill="#48515A" d="M176.619 221.043h-14v-90.539h2v88.539h10v-88.539h2v90.539"/><path fill="#48515A" d="M159.619 190.535h20v-2h-20z"/><path fill="#DEDEDD" d="M190.58 111.023h7.016v-2h-7.016z"/><path fill="#48515A" d="M87.58 213.042c0-.561.449-1 1-1 .549 0 1 .439 1 1 0 .55-.451 1-1 1-.551 0-1-.45-1-1zm4 0c0-.561.449-1 1-1 .549 0 1 .439 1 1 0 .55-.451 1-1 1-.551 0-1-.45-1-1zm4 0c0-.561.449-1 1-1 .549 0 1 .439 1 1 0 .55-.451 1-1 1-.551 0-1-.45-1-1zm4 0c0-.561.449-1 1-1 .549 0 1 .439 1 1 0 .55-.451 1-1 1-.551 0-1-.45-1-1zm4 0c0-.561.449-1 1-1 .549 0 1 .439 1 1 0 .55-.451 1-1 1-.551 0-1-.45-1-1zm4 0c0-.561.449-1 1-1 .549 0 1 .439 1 1 0 .55-.451 1-1 1-.551 0-1-.45-1-1zm4 0c0-.561.449-1 1-1 .549 0 1 .439 1 1 0 .55-.451 1-1 1-.551 0-1-.45-1-1zm4 0c0-.561.449-1 1-1 .549 0 1 .439 1 1 0 .55-.451 1-1 1-.551 0-1-.45-1-1zm4 0c0-.561.449-1 1-1 .549 0 1 .439 1 1 0 .55-.451 1-1 1-.551 0-1-.45-1-1zm4 0c0-.561.449-1 1-1 .549 0 1 .439 1 1 0 .55-.451 1-1 1-.551 0-1-.45-1-1zm4 0c0-.561.449-1 1-1 .549 0 1 .439 1 1 0 .55-.451 1-1 1-.551 0-1-.45-1-1zm4 0c0-.561.449-1 1-1 .549 0 1 .439 1 1 0 .55-.451 1-1 1-.551 0-1-.45-1-1zm4 0c0-.561.449-1 1-1 .549 0 1 .439 1 1 0 .55-.451 1-1 1-.551 0-1-.45-1-1zm4 0c0-.561.449-1 1-1 .549 0 1 .439 1 1 0 .55-.451 1-1 1-.551 0-1-.45-1-1zm4 0c0-.561.449-1 1-1 .549 0 1 .439 1 1 0 .55-.451 1-1 1-.551 0-1-.45-1-1zm4 0c0-.561.449-1 1-1 .549 0 1 .439 1 1 0 .55-.451 1-1 1-.551 0-1-.45-1-1z"/><path fill="#DEDEDD" d="M44.092 111.023h6.984v-2h-6.984z"/><path fill="#48515A" d="M201.095 106.025h-2v-56.08l-26.179-18.902-105.838-.086L42.083 49.93v56.095h-1.999V48.938l26.322-19.981h.337l106.819.086 27.533 19.879v57.103"/><path fill="#48515A" d="M201.097 132.028H40.084v-27.003h7.507v2h-5.508v23.003h157.014v-23.003h-6.002v-2h8.002v27.003"/><path fill="#DEDEDD" d="M43.591 119.028h153.504v-2H43.591zM43.591 123.03h153.504v-2H43.591zM43.591 127.033h153.504v-2H43.591zM43.591 115.025h153.504v-2H43.591z"/><path fill="#5FE0ED" d="M58.575 113.016h115.503V87.028H58.575z"/><path fill="#475059" d="M183.079 113.017h-2V80.028H51.575v32.989h-2V78.028h133.504v34.989"/><path fill="#475059" d="M187.079 113.017h-2V76.028H55.575v3h-2v-5h133.504v38.989"/><path fill="#475059" d="M191.079 113.017h-2V72.028H59.575v3h-2v-5h133.504v42.989"/><path fill="#475059" d="M174.086 101.069l-24.444-.006c-4.418 0-8.012-3.596-8.011-8.014 0-2.141.833-4.153 2.347-5.666a7.954 7.954 0 0 1 5.663-2.346h.002l23.442.006a6.017 6.017 0 0 1 6.008 6.011 5.97 5.97 0 0 1-1.76 4.249 5.97 5.97 0 0 1-4.247 1.758h-.002l-23.442-.005a4.01 4.01 0 0 1-4.005-4.006c0-1.071.417-2.076 1.173-2.833a3.98 3.98 0 0 1 2.831-1.172h.003l24.442.006v2l-24.443-.006h-.002a1.99 1.99 0 0 0-1.417.587 2.008 2.008 0 0 0 1.418 3.424l23.442.005h.002a3.98 3.98 0 0 0 2.833-1.172 3.983 3.983 0 0 0 1.174-2.835 4.015 4.015 0 0 0-4.008-4.011l-23.442-.006h-.002a5.97 5.97 0 0 0-4.249 1.76 5.972 5.972 0 0 0-1.761 4.252 6.02 6.02 0 0 0 6.011 6.014l24.444.006v2"/><path fill="#48515A" d="M74.554 48.002h2v-4h-2zM74.554 58.002h2v-4h-2zM78.554 52.002h4v-2h-4zM68.471 52.002h4v-2h-4z"/><path fill="#FFD15D" d="M209.634 140.039a1.499 1.499 0 1 1-2.998 0 1.499 1.499 0 0 1 2.998 0"/><path fill="#FFD15D" d="M208.135 139.04a1 1 0 1 0 0 2 1 1 0 0 0 0-2zm0 2.998c-1.102 0-2-.896-2-1.999 0-1.102.898-1.999 2-1.999a2 2 0 0 1 1.999 1.999 2 2 0 0 1-1.999 1.999zM33.519 120.543a1.498 1.498 0 1 1-2.995-.001 1.498 1.498 0 0 1 2.995.001"/><path fill="#FFD15D" d="M32.021 119.546a.998.998 0 1 0 .002 1.996.998.998 0 0 0-.002-1.996zm0 2.994a1.998 1.998 0 0 1 0-3.994c1.102 0 1.998.895 1.998 1.997a1.999 1.999 0 0 1-1.998 1.997zm19.055 58.294a1.746 1.746 0 1 1-3.491 0 1.746 1.746 0 0 1 3.491 0"/><path fill="#FFD15D" d="M49.331 179.588a1.247 1.247 0 1 0 0 2.494 1.247 1.247 0 0 0 0-2.494zm0 3.492a2.248 2.248 0 0 1-2.246-2.246 2.248 2.248 0 0 1 2.246-2.246 2.25 2.25 0 0 1 2.246 2.246 2.25 2.25 0 0 1-2.246 2.246z"/><path fill="#475059" d="M90.588 58.022c-1.654 0-3 1.33-3 2.964 0 1.683 1.346 3.036 3 3.036h118.107l6.506-3-6.507-3H90.588zm118.546 8H90.588c-2.757 0-5-2.251-5-5.017 0-2.756 2.243-4.983 5-4.983h118.545l10.843 5-10.842 5z"/><path fill="#475059" d="M96.636 65.022h2v-8h-2z"/><path fill="#475059" d="M97.636 62.022h107.952v-2H97.636z"/><path fill="#48515A" d="M187.622 197.091h2v-4h-2zM187.622 207.091h2v-4h-2zM191.622 201.091h4v-2h-4zM181.622 201.091h4v-2h-4z"/><path fill="#FFD15D" d="M212.636 120.027a1.499 1.499 0 1 1-2.998 0 1.499 1.499 0 0 1 2.998 0"/><path fill="#FFD15D" d="M211.137 119.027a1 1 0 1 0 0 0zm0 2.999c-1.102 0-2-.896-2-1.999 0-1.102.898-2 2-2a2 2 0 0 1 0 3.999z"/></g></svg>