<?xml version="1.0" encoding="utf-8"?><svg xmlns="http://www.w3.org/2000/svg" width="250" height="250" viewBox="0 0 250 250"><g fill="none" fill-rule="evenodd"><path fill="#DDDED9" d="M100.214 52.006l43.167 21.833 8.999-3.333-2.511-18.996-24.655 4.746-25-4.25"/><path fill="#434A4F" d="M35.447 141.496h2v-4h-2zM35.447 151.496h2v-4h-2zM39.447 145.496h4v-2h-4zM29.447 145.496h4v-2h-4z"/><path fill="#E9886C" d="M129.88 171.339l-1.555-12.853a2 2 0 0 0 2-1.999v-5.001l-5.083-6.003-4.917 6.003v5.001a2 2 0 0 0 2 1.999l-1.445 12.52 4.5 4.5 4.5-4.167"/><path fill="#DDDED9" d="M109.945 130.492v4.369l15.13 8.5 15-8.25.135-7.997v-6.741a30.59 30.59 0 0 0 1.688-1.784c-.18.157-.353.315-.5.473-2.103 2.261-5.293 4.634-7.452 6.478a9.573 9.573 0 0 1-6.113 2.291h-6.492a9.576 9.576 0 0 1-6.114-2.291c-2.061-1.76-5.06-4.002-7.158-6.169-.063-.065-.136-.13-.205-.195.63.67 1.35 1.349 2.117 2.024-.017.008-.036.016-.036.036v9.256"/><path fill="#434A4F" d="M109.945 135.735a1 1 0 0 1-1-1v-13.499a1 1 0 1 1 2 0v13.499a1 1 0 0 1-1 1m48.137-43.679h.01-.01zm-17.972 43.431a1 1 0 0 1-1-1v-14.553l.297-.294c1.175-1.159 2.579-2.636 3.016-3.797l6.189-12.63 6.897-3.45 1.574-7.814a2.227 2.227 0 0 0-.637-1.555 2.232 2.232 0 0 0-1.616-.683h-2.573l.203-1.172c.547-3.138.823-5.958.823-8.384l.002-1.356a26.515 26.515 0 0 0-1.794-9.782 1 1 0 0 1 1.865-.723 28.494 28.494 0 0 1 1.929 10.518l-.002 1.343c0 2.232-.221 4.769-.658 7.556h.205c1.16 0 2.243.458 3.051 1.289a4.213 4.213 0 0 1 1.2 3.084l-.019.169-1.785 8.861-7.167 3.585-5.853 11.937c-.496 1.327-1.782 2.766-3.147 4.132v13.719a1 1 0 0 1-1 1z"/><path fill="#434A4F" d="M127.847 128.831h-6.506a10.616 10.616 0 0 1-6.763-2.53c-.612-.524-1.308-1.089-2.038-1.682-3.133-2.548-6.683-5.435-7.652-8.035l-5.64-11.918-6.172-3.563-2.539-9.027a4.37 4.37 0 0 1 4.365-4.365h.06c-.374-2.761-.564-5.298-.564-7.556v-.479c0-3.697.658-7.339 1.958-10.824a1 1 0 0 1 1.874.699 28.88 28.88 0 0 0-1.832 10.125v.479c0 2.469.237 5.297.707 8.406l.173 1.15h-2.376a2.369 2.369 0 0 0-2.362 2.237l2.237 7.826 6.012 3.472 5.94 12.561c.812 2.169 4.283 4.992 7.073 7.26.744.604 1.452 1.18 2.075 1.712a8.596 8.596 0 0 0 5.475 2.052h6.495a1 1 0 1 1 0 2m-66.522 80.676l-2-.002.064-49.349c0-5.946 3.772-7.844 9.101-9.878l31.142-10.611 5.493-10.18h4.367v2h-3.173l-5.3 9.821-31.849 10.851c-5.279 2.015-7.781 3.465-7.781 7.998l-.064 49.35m64.001-64.874l-15.859-8.882a.999.999 0 1 1 .978-1.744l14.881 8.333 14.298-8.006a1 1 0 1 1 .977 1.744l-15.275 8.555m65.999 64.874l-2-.002.055-49.228c0-4.794-3.004-6.245-7.953-8.066l-31.85-10.812-6.051-9.912h-3.201v-2h4.323l6.258 10.252 31.188 10.586c5.272 1.94 9.286 3.899 9.286 9.953l-.055 49.229"/><path fill="#434A4F" d="M116.325 156.486a1 1 0 0 1-.743-1.669l9.744-10.826 9.743 10.826a1 1 0 0 1-1.487 1.338l-8.256-9.174-8.257 9.174a.996.996 0 0 1-.744.331"/><path fill="#434A4F" d="M125.381 176.871l-35.676-32.627 1.35-1.476 34.326 31.392 34.324-31.392 1.35 1.476-35.674 32.627"/><path fill="#434A4F" d="M125.55 192.861l-47.848-44.145 1.356-1.471 46.503 42.905 46.876-42.496 1.344 1.483-48.231 43.724M124.981 82.218l-28.71-11.069 3.011-19.789 1.977.301-2.769 18.201 26.488 10.211 26.308-10.215-2.408-18.216 1.982-.262 2.614 19.773-28.493 11.065"/><path fill="#434A4F" d="M87.463 48.921l38.378 6.396 34.114-6.396-34.114-6.397-38.378 6.397zm38.399 8.428l-50.564-8.428 50.564-8.428.173.033 44.771 8.395-44.944 8.428z"/><path fill="#434A4F" d="M160.381 59.507h2V49.506h-2z"/><path fill="#E9886C" d="M161.38 57.506a3 3 0 0 0-3 3v7.001h6v-7.001a3 3 0 0 0-3-3"/><path fill="#434A4F" d="M203.548 171.514h2v-4h-2zM203.548 181.514h2v-4h-2zM207.548 175.514h4v-2h-4zM197.548 175.514h4v-2h-4zM212.553 110.478h2v-4h-2zM212.553 120.478h2v-4h-2zM216.553 114.478h4v-2h-4zM206.553 114.478h4v-2h-4zM182.375 90.538h22v-2h-22zM165.476 120.538a5.009 5.009 0 0 0 4.899 4h17.106a6.979 6.979 0 0 1-2.034-4h-19.971zm26.899 6h-22c-3.86 0-7-3.141-7-7v-1h24v1c0 2.757 2.243 5 5 5s5-2.243 5-5v-24h2v24c0 3.859-3.14 7-7 7z"/><path fill="#434A4F" d="M177.375 119.538h-2v-24c0-3.859 3.14-7 7-7 3.521 0 6.442 2.612 6.929 6h19.971a5.01 5.01 0 0 0-4.9-4v-2c3.86 0 7 3.141 7 7v1h-24v-1c0-2.757-2.243-5-5-5s-5 2.243-5 5v24"/><path fill="#42494E" d="M155.209 198.454h55.165c1.655 0 3-1.346 3-3s-1.345-3-3-3h-55.165l-6.506 3 6.506 3zm55.165 2H154.77l-10.843-5 10.844-5h55.603c2.757 0 5 2.243 5 5s-2.243 5-5 5z"/><path fill="#42494E" d="M202.764 199.454h2v-7.599h-2z"/><path fill="#42494E" d="M155.759 196.425h48.005v-2h-48.005zM78.414 73.443v2h3v18.084H49.331V75.443h3v-2h-5v22.084h36.083V73.443h-5"/><path fill="#42494E" d="M53.331 89.527H63.98l1.431 1.563 1.595-1.563h10.408V71.443h-9.592l-2.464 2.414-2.365-2.414h-9.662v18.084zm12.003 4.438L63.1 91.527H51.331V69.443h12.503l1.553 1.586 1.619-1.586h12.408v22.084H67.822l-2.488 2.438z"/><path fill="#FFFFFE" d="M55.227 74.527h6.125"/><path fill="#42494E" d="M55.227 75.527h6.125v-2h-6.125z"/><path fill="#FFFFFE" d="M55.227 78.527h6.125"/><path fill="#42494E" d="M55.227 79.527h6.125v-2h-6.125z"/><path fill="#FFFFFE" d="M55.227 82.527h6.125"/><path fill="#42494E" d="M55.227 83.527h6.125v-2h-6.125z"/><path fill="#FFFFFE" d="M69.227 74.527h6.125"/><path fill="#42494E" d="M69.227 75.527h6.125v-2h-6.125z"/><path fill="#FFFFFE" d="M69.227 78.527h6.125"/><path fill="#42494E" d="M69.227 79.527h6.125v-2h-6.125z"/><path fill="#FFFFFE" d="M69.227 82.527h6.125"/><path fill="#42494E" d="M69.227 83.527h6.125v-2h-6.125z"/><path fill="#FFFFFE" d="M65.373 75.715v9.812"/><path fill="#42494E" d="M64.373 85.528h2v-9.813h-2z"/><path fill="#FFFFFE" d="M55.227 86.527h6.125"/><path fill="#42494E" d="M55.227 87.527h6.125v-2h-6.125z"/><path fill="#FFFFFE" d="M69.227 86.527h6.125"/><path fill="#42494E" d="M69.227 87.527h6.125v-2h-6.125z"/></g></svg>