<?xml version="1.0" encoding="utf-8"?><svg xmlns="http://www.w3.org/2000/svg" width="250" height="250" viewBox="0 0 250 250"><g fill="none" fill-rule="evenodd"><path fill="#48515A" d="M60.024 145.26c-.405 0-.786-.248-.937-.649a72.468 72.468 0 0 1-2.125-6.632c-10.13-37.806 12.387-76.805 50.193-86.935 37.805-10.129 76.804 12.385 86.935 50.192 2.821 10.528 3.204 21.251 1.139 31.872a.999.999 0 1 1-1.963-.382c2.007-10.32 1.635-20.74-1.107-30.972-9.846-36.741-47.749-58.622-84.487-48.779-36.74 9.845-58.622 47.745-48.778 84.487a70.152 70.152 0 0 0 2.066 6.446 1 1 0 0 1-.936 1.352"/><path fill="#48515A" d="M77.824 144.901a1 1 0 0 1-.929-.629 95.643 95.643 0 0 1-3.545-10.684c-4.894-18.262-4.209-36.858 1.928-52.364 6.176-15.609 17.133-26.23 30.852-29.906a.999.999 0 0 1 1.225.707 1.002 1.002 0 0 1-.707 1.225c-13.092 3.508-23.572 13.704-29.511 28.71-5.979 15.109-6.639 33.26-1.855 51.111a93.94 93.94 0 0 0 3.47 10.459 1 1 0 0 1-.928 1.371m-17.339-37.602a1 1 0 0 1-.258-1.967l6.145-1.646a.999.999 0 1 1 .518 1.931l-6.146 1.647a1.009 1.009 0 0 1-.259.035"/><path fill="#48515A" d="M76.872 102.908a.999.999 0 0 1-.257-1.966l16.387-4.392a1 1 0 0 1 .518 1.932l-16.388 4.391a.974.974 0 0 1-.26.035m90.131-24.151a1.001 1.001 0 0 1-.258-1.966l8.194-2.196a1 1 0 0 1 .517 1.932l-8.193 2.195a.974.974 0 0 1-.26.035m-65.55 17.564a.999.999 0 0 1-.257-1.966l32.775-8.782a1 1 0 1 1 .518 1.932l-32.776 8.781a.974.974 0 0 1-.26.035m45.396 49.311a1 1 0 0 1-.258-1.967l2.748-.736a.998.998 0 0 1 1.225.707 1.002 1.002 0 0 1-.707 1.225l-2.748.736a1.016 1.016 0 0 1-.26.035m39.622-10.617a1 1 0 0 1-.258-1.966l4.095-1.098a1 1 0 1 1 .518 1.932l-4.095 1.097a.974.974 0 0 1-.26.035"/><path fill="#48515A" d="M108.797 144.895a1 1 0 0 1-.937-.652 204.795 204.795 0 0 1-5.832-18.339c-10.302-38.447-8.05-71.33 5.127-74.86 13.185-3.53 31.568 23.821 41.87 62.267 2.786 10.4 4.697 20.582 5.68 30.264a1.001 1.001 0 0 1-1.99.203c-.972-9.577-2.863-19.653-5.622-29.949-9.679-36.118-27.73-63.985-39.421-60.854-11.689 3.133-13.391 36.293-3.713 72.411a202.843 202.843 0 0 0 5.776 18.16 1.001 1.001 0 0 1-.938 1.349m48.993-2.196a1 1 0 0 1-.257-1.966l9.503-2.546a1 1 0 0 1 .518 1.931l-9.504 2.547a1.015 1.015 0 0 1-.26.034m-15.368-57.355a1 1 0 0 1-.258-1.966l16.388-4.391a1 1 0 1 1 .518 1.931l-16.388 4.391a.974.974 0 0 1-.26.035"/><path fill="#48515A" d="M142.422 85.344a1 1 0 0 1-.258-1.966l16.388-4.391a1 1 0 1 1 .518 1.931l-16.388 4.391a.974.974 0 0 1-.26.035"/><path fill="#48515A" d="M177.828 133.916l-.033-.001a.999.999 0 0 1-.967-1.031c.277-8.652-.767-17.464-3.105-26.19-9.845-36.74-39.931-60.716-67.075-53.444a1 1 0 1 1-.518-1.932c28.206-7.558 59.394 17.051 69.525 54.858 2.388 8.916 3.456 17.923 3.171 26.772a.998.998 0 0 1-.998.968"/><path fill="#FFF" d="M177.728 143.833l-.262-.074.255-.243.007.317M150.659 76.894l-.073.261-.244-.255.317-.006"/><path fill="#5FE0ED" d="M33.05 216.889h111.799V205.89H33.05z"/><path fill="#5FE0ED" d="M144.849 158.889h12.222v-12h-124v62.003h111.778v-50.003"/><path fill="#48515A" d="M144.85 203.89H36.071v-54.001h118v9h-2v-7h-114v50.001H144.85v2"/><path fill="#48515A" d="M100.896 190.055H89.848c-2.951 0-5.353-2.417-5.353-5.387h2c0 1.867 1.504 3.387 3.353 3.387h11.048c2.197 0 3.984-1.802 3.984-4.016v-1.888a3.99 3.99 0 0 0-3.984-3.985H90.002a5.99 5.99 0 0 1-5.984-5.985v-1.89a5.99 5.99 0 0 1 5.984-5.985h11.709a4.517 4.517 0 0 1 4.513 4.512h-2a2.515 2.515 0 0 0-2.513-2.512H90.002a3.99 3.99 0 0 0-3.984 3.985v1.89a3.988 3.988 0 0 0 3.984 3.985h10.894c3.3 0 5.984 2.685 5.984 5.985v1.888c0 3.317-2.684 6.016-5.984 6.016"/><path fill="#48515A" d="M95.05 194.89h2v-36h-2zM115.071 173.89h14v-2h-14zM115.071 177.89h14v-2h-14zM115.071 181.89h14v-2h-14zM65.071 173.89h14v-2h-14zM65.071 177.89h14v-2h-14zM65.071 181.89h14v-2h-14zM137.07 202.91h-2c0-5.666 2.718-11.069 7.271-14.455l1.193 1.606c-4.108 3.054-6.464 7.738-6.464 12.849M37.011 168.889v-2c8.822 0 16-7.178 16-16h2c0 9.925-8.075 18-18 18m18 34.021h-2c0-8.822-7.178-16-16-16v-2c9.925 0 18 8.075 18 18M33.05 210.892h111.8v-2H33.05zM33.05 216.892h111.8v-2H33.05zM142.927 165.761a18.006 18.006 0 0 1-7.857-14.872h2a16.007 16.007 0 0 0 6.986 13.221l-1.129 1.651"/><path fill="#FFD15D" d="M146.849 216.889h22v-56h-22zM170.849 216.889h22v-80h-22zM194.849 216.889h22v-34h-22z"/><path fill="#5FE0ED" d="M52.027 119.608c0-40.391 32.75-73.267 73.09-73.49V33.113c-47.508.223-86.09 38.936-86.09 86.495 0 .094.003.188.004.282h13.003c0-.094-.007-.187-.007-.282"/><path fill="#DFE0E0" d="M56.517 144.89a73.125 73.125 0 0 1-4.483-25H39.031a86.193 86.193 0 0 0 3.78 25h13.706"/><path fill="#48515A" d="M203.031 45.621h2v-4h-2zM203.031 55.621h2v-4h-2zM207.031 49.621h4v-2h-4zM197.031 49.621h4v-2h-4zM42.934 65.633h2v-4h-2zM42.934 75.633h2v-4h-2zM46.934 69.633h4v-2h-4zM36.934 69.633h4v-2h-4z"/><path fill="#5FE0ED" d="M188.992 120.663a3 3 0 1 1-6 0 3 3 0 0 1 6 0"/><path fill="#FFD15D" d="M125.527 33.108c-.137 0-.273.004-.41.005v13.005c.137 0 .273-.01.41-.01 40.528 0 73.5 32.972 73.5 73.5 0 .095-.007.188-.007.282h12.748v-6.992c-3.436-44.573-40.803-79.79-86.241-79.79"/><path fill="#F58E70" d="M194.849 171.248c9.578-12.835 15.69-28.404 16.919-45.308v-6.05H199.02a73.16 73.16 0 0 1-4.171 24.087v27.271"/><path fill="#FFD15D" d="M216.95 169.639a2 2 0 1 1-4 0 2 2 0 0 1 4 0m-30-124a2 2 0 1 1-4 0 2 2 0 0 1 4 0m16 17a1 1 0 1 1-2 0 1 1 0 0 1 2 0m-42 3a2 2 0 1 1-4 0 2 2 0 0 1 4 0"/><path fill="#5FE0ED" d="M58.95 51.639a2 2 0 1 1-4 0 2 2 0 0 1 4 0m8-9a1 1 0 1 1-2 0 1 1 0 0 1 2 0m22 35a2 2 0 1 1-4 0 2 2 0 0 1 4 0"/></g></svg>