<?xml version="1.0" encoding="utf-8"?><svg xmlns="http://www.w3.org/2000/svg" width="250" height="250" viewBox="0 0 250 250"><g fill="none" fill-rule="evenodd"><path fill="#5FE0ED" d="M74.021 129.894c-8.218-15.914-8.521-34.428-.807-49.525a53.91 53.91 0 0 1 12.729-16.283c10.145-8.799 23.154-13.645 36.636-13.645 13.48 0 26.491 4.846 36.636 13.644a54.969 54.969 0 0 1 2.116 1.949 55.289 55.289 0 0 1 3.111 3.109c4.205 4.546 7.404 10.387 9.271 16.96.185.654.333 1.316.488 1.977h8.185a52.259 52.259 0 0 0-.995-4.235c-2.188-7.708-6.017-14.67-11.072-20.138a63.604 63.604 0 0 0-3.494-3.494 61.194 61.194 0 0 0-2.365-2.174c-11.601-10.062-26.475-15.603-41.881-15.603-15.407 0-30.281 5.541-41.881 15.603-6.036 5.236-10.952 11.523-14.613 18.689-8.884 17.389-8.576 38.637.825 56.84 2.704 5.236 5.181 12.46 7.269 20.8h8.257c-2.341-9.756-5.214-18.276-8.415-24.474"/><path fill="#475059" d="M146.394 212.563l-3.112-24.356c0-3.972 3.232-7.204 7.203-7.204h18.471c3.773 0 6.851-3.075 6.86-6.856l.017-6.701c.006-1.303.449-2.043.878-2.759.288-.483.587-.981.826-1.77.019-.431.002-2.317-.026-3.999l-.007-.413 2.78-2.89-1.34-2.679v-.236c0-1.806 1.18-3.511 2.805-4.052l.154-.051h4.024c1.089 0 2.057-.411 2.657-1.127.833-.994 1.017-2.327.479-3.479-2.139-4.582-7.392-16.153-9.948-24.603-.538-1.778-.79-3.534-.75-5.22l-.004-16.248a46.316 46.316 0 0 0-1.76-12.637c-1.997-7.027-5.431-13.288-9.955-18.179a58.604 58.604 0 0 0-3.28-3.277 58.377 58.377 0 0 0-2.183-2.009c-10.692-9.273-24.402-14.38-38.604-14.38-14.203 0-27.913 5.107-38.604 14.38A56.908 56.908 0 0 0 70.54 79.003c-8.152 15.957-7.848 35.497.814 52.268 8.336 16.141 14.394 48.559 14.403 77.083l.102 4.058-2 .049-.102-4.082c-.009-28.267-5.973-60.299-14.18-76.19-8.957-17.343-9.262-37.566-.818-54.096a58.882 58.882 0 0 1 13.905-17.785c11.056-9.589 25.231-14.87 39.914-14.87 14.685 0 28.86 5.281 39.915 14.87a58.469 58.469 0 0 1 2.245 2.064 60.733 60.733 0 0 1 3.377 3.375c4.736 5.12 8.327 11.662 10.389 18.917a48.452 48.452 0 0 1 1.857 13.255l.004 16.273c-.035 1.497.189 3.043.664 4.617 2.518 8.326 7.725 19.793 9.847 24.336.87 1.864.579 4.013-.759 5.609-.981 1.171-2.509 1.843-4.19 1.843h-3.68c-.691.298-1.214 1.064-1.292 1.887l1.749 3.5-3.186 3.313c.059 3.765.012 3.929-.034 4.087-.316 1.091-.727 1.778-1.057 2.33-.368.615-.591.986-.594 1.74l-.017 6.699c-.013 4.88-3.988 8.85-8.86 8.85h-18.471a5.21 5.21 0 0 0-5.203 5.143l3.096 24.164-1.984.253"/><path fill="#2B2B2B" d="M174.675 162.004"/><path fill="#DFE0E0" d="M131.941 141.231c.165-.64.17-1.311.015-1.953l-2.522-10.343c0-1.523 1.235-2.706 2.757-2.706h5.433c-1.522 0-2.756 1.183-2.756 2.706l2.521 10.368c.156.642.151 1.3-.015 1.94l-1.404 4.363c-.812 3.143-3.64 5.332-7.169 5.332v-2.527c1.176-.798 1.461-1.748 1.735-2.811l1.405-4.369m20.612-23.236h.235a4.12 4.12 0 0 1 4.13 4.339c-.118 2.236-2.125 3.895-4.364 3.895h-5.433c2.239 0 4.246-1.659 4.363-3.895a4.119 4.119 0 0 0-4.129-4.339h-.236c2.24 0 4.247-1.746 4.364-3.982.117-2.245-1.557-4.159-3.721-4.372a81.747 81.747 0 0 0-1.788-.017c2.532 0 4.243-2.307 3.778-4.922-.351-1.973-2.131-3.334-4.484-3.381v-.211c2.353-.565 3.229-2.099 3.128-4.027-.117-2.236-1.834-3.789-4.074-3.789h2.717c2.239 0 4.246 1.658 4.363 3.894a4.12 4.12 0 0 1-4.129 4.34h3.9c2.041 0 3.944 1.262 4.302 3.271.465 2.615-1.535 4.861-4.068 4.861.138 0 1.654-.04 1.788-.027 2.164.213 3.839 2.148 3.721 4.394-.117 2.236-2.124 3.968-4.363 3.968"/><path fill="#5FE0ED" d="M89.985 128.581h22.349V90.942H89.985z"/><path fill="#48515A" d="M129.078 151.941l-.288-.003a.999.999 0 0 1-.989-1v-8.113l-1.354-4.215-2.908-8.098-1.362-3.479c-.34-.886-1.238-.981-1.608-.981h-8.235a1 1 0 1 1 0-2h8.235c1.607 0 2.938.865 3.473 2.258l1.368 3.496 2.932 8.163 1.411 4.393c.031.099.048.202.048.306v7.232c2.57-.294 4.858-2.149 5.477-4.544l1.128-4.363c.125-.482.128-.971.011-1.453l-2.521-10.369a1.036 1.036 0 0 1-.028-.236c0-2.079 1.65-3.706 3.756-3.706h14.931c1.77 0 3.279-1.322 3.364-2.947a3.08 3.08 0 0 0-.848-2.309 3.113 3.113 0 0 0-2.283-.978h-.235a1 1 0 1 1 0-2c1.767 0 3.277-1.355 3.364-3.021.088-1.683-1.177-3.184-2.819-3.346-.124.004-.797.014-1.246.023l-.246.005c-.066.002-.132.004-.199.004a1 1 0 1 1 0-2l.128-.003a3.139 3.139 0 0 0 2.289-1.119c.597-.713.833-1.623.666-2.564-.286-1.606-1.885-2.446-3.316-2.446h-3.901a1 1 0 0 1 0-2c.874 0 1.685-.347 2.283-.977a3.087 3.087 0 0 0 .847-2.31c-.085-1.625-1.593-2.947-3.364-2.947h-11.724c-6.079 0-11.688.842-16.671 2.503-.306.1-.641.051-.902-.137l-.017-.014h-5.391a1 1 0 1 1 0-2h5.993c.109 0 .213.018.312.05 5.028-1.594 10.634-2.402 16.676-2.402h11.724c2.864 0 5.22 2.127 5.362 4.842a5.067 5.067 0 0 1-1.053 3.394c2.563.074 4.698 1.773 5.111 4.094a5.116 5.116 0 0 1-1.396 4.521 5.191 5.191 0 0 1 2.852 4.934c-.082 1.564-.918 2.96-2.151 3.861.272.192.527.412.758.656a5.069 5.069 0 0 1 1.395 3.79c-.143 2.716-2.498 4.843-5.362 4.843h-14.931c-.948 0-1.698.694-1.753 1.6l2.489 10.238a4.916 4.916 0 0 1-.018 2.428l-1.128 4.362c-.91 3.525-4.332 6.084-8.136 6.084"/><path fill="#48515A" d="M152.326 118.995h-5.882a1 1 0 0 1 0-2h5.882a1 1 0 1 1 0 2m0-8.234h-5.882a1 1 0 0 1 0-2h5.882a1 1 0 1 1 0 2m-4.705-8.233h-1.177a1 1 0 0 1 0-2h1.177a1 1 0 1 1 0 2m-5.611 20.679a1.006 1.006 0 0 1-1-1c0-.27.11-.531.29-.71a.578.578 0 0 1 .16-.121c.05-.04.109-.07.17-.1.059-.02.12-.04.18-.049a.83.83 0 0 1 .39 0c.07.009.13.029.19.049.06.03.12.06.17.1.06.03.11.07.16.121.179.19.29.44.29.71a1.01 1.01 0 0 1-.45.829c-.05.03-.11.07-.17.09-.06.03-.12.05-.19.061-.06.009-.131.02-.19.02m0-8.27c-.26 0-.52-.111-.71-.301a.977.977 0 0 1-.21-.32.994.994 0 0 1-.08-.379c0-.27.11-.531.29-.71.37-.371 1.05-.371 1.42 0 .04.049.09.099.12.149.04.061.07.11.09.17.03.06.049.13.06.19.01.07.02.13.02.201 0 .129-.031.259-.08.379a.977.977 0 0 1-.37.45c-.05.03-.11.07-.17.09-.06.03-.12.05-.19.061-.06.009-.131.02-.19.02m0-8.27c-.26 0-.52-.111-.71-.301a.977.977 0 0 1-.21-.32.994.994 0 0 1-.08-.379c0-.271.11-.531.29-.71.23-.23.58-.341.9-.27.07.009.13.029.19.049.06.03.12.06.17.09.06.04.11.08.16.131.179.189.29.439.29.71 0 .129-.031.259-.08.379a.977.977 0 0 1-.21.32c-.19.19-.45.301-.71.301m0-8.151a1.009 1.009 0 0 1-1-1c0-.13.03-.26.08-.39.05-.12.12-.23.21-.32.05-.05.099-.09.16-.12.05-.04.109-.07.17-.1.059-.02.12-.04.18-.05.129-.03.27-.03.39 0 .07.01.13.03.19.05.06.03.12.06.17.1.06.03.11.07.16.12.09.09.16.2.21.32.049.13.08.26.08.39 0 .26-.111.52-.29.7-.19.19-.45.3-.71.3M111.334 128.581h2v-37.64h-2zM213 189.437h2v-4h-2zM213 199.437h2v-4h-2zM217 193.437h4v-2h-4zM207 193.437h4v-2h-4zM35 141.437h2v-4h-2zM35 151.437h2v-4h-2zM39 145.437h4v-2h-4zM29 145.437h4v-2h-4zM191 41.436h2v-4h-2zM191 51.436h2v-4h-2zM195 45.436h4v-2h-4zM185 45.436h4v-2h-4z"/><path fill="#5FE0ED" d="M210.317 133.709a3.317 3.317 0 1 1-6.634 0 3.317 3.317 0 0 1 6.634 0m-154.5-68.286a3.317 3.317 0 1 1-6.634 0 3.317 3.317 0 0 1 6.634 0"/><path fill="#F58E70" d="M164.835 198.437a1 1 0 1 1-2 0 1 1 0 0 1 2 0m-110.335-13a2 2 0 1 1-4 0 2 2 0 0 1 4 0"/></g></svg>