<?xml version="1.0" encoding="utf-8"?><svg xmlns="http://www.w3.org/2000/svg" width="192" height="158" viewBox="0 0 192 158"><g fill="none" fill-rule="evenodd"><path fill="#F58E70" d="M161.004 145.514h2v-6h-2zM163.004 139.514h6v-2h-6zM169.004 141.514h2v-2h-2zM171.004 139.514h6v-2h-6zM177.004 145.514h2v-6h-2zM163.004 147.514h2v-2h-2zM165.004 149.514h2v-2h-2zM167.004 151.514h2v-2h-2zM169.004 153.514h2v-2h-2zM171.004 151.514h2v-2h-2zM173.004 149.514h2v-2h-2zM175.004 147.514h2v-2h-2zM96 78.484a6.058 6.058 0 0 0 6.052-6.052v-12.95H89.948v12.95A6.058 6.058 0 0 0 96 78.484"/><path fill="#5FE0ED" d="M117.994 52.504a6 6 0 1 1 6-6 6.007 6.007 0 0 1-6 6zm-9.942 9.976v9.952c-.005 6.657-5.405 12.048-12.062 12.043-6.648-.005-12.037-5.394-12.042-12.043V62.316a3 3 0 1 1 0-5.665v-.167h24.104v.003a2.997 2.997 0 0 1 0 5.993zm-36.049-9.976a6 6 0 1 1 6-6 6.007 6.007 0 0 1-6 6zM96 26.484c-24.84.028-44.971 20.158-44.999 44.999L51 132.486v10.508a3.5 3.5 0 1 0 7-.005 9.508 9.508 0 0 1 19.016 0 3.5 3.5 0 0 0 3.495 3.495h2.011a3.5 3.5 0 0 0 3.496-3.495c.006-5.248 4.259-9.502 9.507-9.508h1a9.518 9.518 0 0 1 9.508 9.508 3.5 3.5 0 0 0 3.495 3.495h2.011a3.5 3.5 0 0 0 3.496-3.495c-.004-5.251 4.251-9.51 9.501-9.513a9.507 9.507 0 0 1 9.514 9.501v.012a3.492 3.492 0 0 0 6.95.497V71.484c-.028-24.841-20.158-44.972-45-45z"/><path fill="#475059" d="M87.948 60.484v11.948a8.052 8.052 0 1 0 16.104.016V60.484H87.948zm8.052 22c-5.549-.006-10.046-4.503-10.052-10.052V58.484h20.104v13.948c-.006 5.549-4.503 10.046-10.052 10.052z"/><path fill="#475059" d="M82 60.484h28v-2H82z"/><path fill="#475059" d="M95 75.484h2v-16h-2z"/><path fill="#475059" d="M124.542 135.481a7.516 7.516 0 0 1 7.508 7.507 5.5 5.5 0 0 0 11 0v-4.504l-.05-1v-66c0-25.957-21.042-47-46.999-47s-46.999 21.042-47 46.999L49 142.988a5.5 5.5 0 0 0 11 0 7.507 7.507 0 0 1 7.513-7.502 7.508 7.508 0 0 1 7.503 7.502 5.5 5.5 0 0 0 5.495 5.496h2.011a5.502 5.502 0 0 0 5.496-5.496 7.515 7.515 0 0 1 7.507-7.507h1a7.516 7.516 0 0 1 7.508 7.507 5.503 5.503 0 0 0 5.495 5.496h2.011a5.502 5.502 0 0 0 5.496-5.496 7.516 7.516 0 0 1 7.507-7.507zm13.013 15.003a7.506 7.506 0 0 1-7.505-7.496 5.508 5.508 0 0 0-11.015 0 7.504 7.504 0 0 1-7.496 7.496h-2.011a7.505 7.505 0 0 1-7.495-7.496 5.513 5.513 0 0 0-5.508-5.507h-1a5.513 5.513 0 0 0-5.507 5.507 7.504 7.504 0 0 1-7.496 7.496h-2.011a7.503 7.503 0 0 1-7.495-7.496 5.508 5.508 0 0 0-11.016 0 7.5 7.5 0 0 1-15 0l.001-71.505c.001-27.061 21.938-48.999 49-48.999S145 44.422 145 71.484v65h.05v6.504a7.503 7.503 0 0 1-7.495 7.496z"/><path fill="#475059" d="M72.003 44.504a2 2 0 1 0 0 4 2 2 0 0 0 0-4zm0 6a4 4 0 1 1 0-8 4 4 0 0 1 0 8zm45.991-6a2 2 0 1 0 .001 4.001 2 2 0 0 0-.001-4.001zm0 6a4 4 0 1 1 0-8 4 4 0 0 1 0 8z"/><path fill="#F58E70" d="M170.096 88.52a3 3 0 1 1 0 6 3 3 0 0 1 0-6M133 12.483v-2h-6v2h-2v-2h-6v2h-2v6h2v2h2v2h2v2h2v2h2v-2h2v-2h2v-2h2v-2h2v-6h-2M32.94 122.549v-2h-6v2h-2v-2h-6v2h-2v6h2v2h2v2h2v2h2v2h2v-2h2v-2h2v-2h2v-2h2v-6h-2M160.09 59.502a2 2 0 1 1 0 4 2 2 0 0 1 0-4"/><path fill="#48515A" d="M6 92.673h2v-4H6zM6 102.673h2v-4H6zM10 96.673h4v-2h-4zM0 96.673h4v-2H0zM184 126.466h2v-4h-2zM184 136.466h2v-4h-2zM188 130.466h4v-2h-4zM178 130.466h4v-2h-4zM29.915 8.484h2v-4h-2zM29.915 18.484h2v-4h-2zM33.915 12.484h4v-2h-4zM23.915 12.484h4v-2h-4z"/><path fill="#5FE0ED" d="M10 48.496a3 3 0 1 1 0 6 3 3 0 0 1 0-6"/><path fill="#FFD15D" d="M30.012 78.514a3 3 0 1 1 0 6 3 3 0 0 1 0-6"/><path fill="#48515A" d="M162.941 8.733c-10.493 0-19 8.507-19 19 0 10.494 8.507 19 19 19s19-8.506 19-19c-.012-10.488-8.512-18.988-19-19zm0 40c-11.598 0-21-9.402-21-21s9.402-21 21-21 21 9.402 21 21c-.013 11.593-9.407 20.987-21 21z"/><path fill="#48515A" d="M159.946 39.414h6v-9.001l9.002-.001v-6h-9.002v-8.998h-6v8.999h-8.999v6h8.999v9.001zm8 2h-10v-9.001h-8.999v-10h8.999v-8.999h10v8.998h9.002v10l-9.002.001v9.001z"/><path fill="#48515A" d="M161.948 19.415h2v-2h-2zM161.948 37.426h2v-2h-2zM152.943 28.42h2v-2h-2zM170.954 28.42h2v-2h-2zM162.948 26.413a1 1 0 1 0 0 2 1 1 0 0 0 0-2zm0 4a3 3 0 1 1 0-6 3 3 0 0 1 0 6z"/><path fill="#FFD15D" d="M28 38a4 4 0 1 1 0 8 4 4 0 0 1 0-8"/><path fill="#FFD15D" d="M28 48a6 6 0 1 1 6-6 6.007 6.007 0 0 1-6 6zm0-14a8 8 0 1 0 0 16 8 8 0 0 0 0-16zm134 76a4 4 0 1 1 0 8 4 4 0 0 1 0-8"/><path fill="#FFD15D" d="M162 120a6 6 0 1 1 6-6 6.007 6.007 0 0 1-6 6zm0-14a8 8 0 1 0 0 16 8 8 0 0 0 0-16zM60 4.946l3 2.925L62.292 12 66 10.05 69.708 12 69 7.871l3-2.925-4.146-.602L66 .587l-1.854 3.757zM8 150.946l3 2.925-.708 4.129L14 156.05l3.708 1.95-.708-4.129 3-2.925-4.146-.602L14 146.587l-1.854 3.757z"/></g></svg>