<?xml version="1.0" encoding="utf-8"?><svg xmlns="http://www.w3.org/2000/svg" width="250" height="250" viewBox="0 0 250 250"><g fill="none" fill-rule="evenodd"><path fill="#F58E70" d="M56.95 143.999V127a2 2 0 0 0-2-2H51v18.999h5.95"/><path fill="#5FE0ED" d="M179.796 83.003h-4.779V115h7.177l-2.398-31.997"/><path fill="#48515A" d="M28.999 168.999h192v-2h-192zM203.33 144.111h-2v-7.887c0-9.336-7.641-17.223-16.685-17.223h-3.097l-3.942-44.066a6.553 6.553 0 0 0-6.546-5.925l-118.008-.011a4.059 4.059 0 0 0-4.053 4.053v71.029h-2V73.052a6.06 6.06 0 0 1 6.053-6.053l118.008.011a8.55 8.55 0 0 1 8.538 7.739l3.779 42.252h1.268c10.128 0 18.685 8.803 18.685 19.223v7.887"/><path fill="#48515A" d="M178.9 139.001c-6.628.052-11.958 5.467-11.905 12.094.052 6.628 5.467 11.958 12.095 11.906 6.59-.053 11.905-5.41 11.905-12-.034-6.651-5.445-12.019-12.095-12zm0 26c-7.732-.053-13.958-6.363-13.905-14.095.052-7.732 6.363-13.958 14.095-13.905 7.695.052 13.905 6.304 13.905 14-.035 7.754-6.341 14.017-14.095 14z"/><path fill="#DEDEDD" d="M179.059 143c4.45 0 8.058 3.582 8.058 8s-3.608 8-8.058 8c-4.451 0-8.059-3.582-8.059-8s3.608-8 8.059-8"/><path fill="#48515A" d="M201.211 132.722h-2.527c-5.433-.007-9.836-4.409-9.842-9.843v-4.053h2v4.052a7.853 7.853 0 0 0 7.842 7.844h2.527v2m-138.212 11.42H61V78.667a1.529 1.529 0 0 0-1.527-1.526h-11.84v-2h11.84a3.53 3.53 0 0 1 3.526 3.526v65.475"/><path fill="#FFD15D" d="M131.735 103.97l-21.436-21.437v7.504H67.317v27.792h42.982v7.577l21.436-21.436"/><path fill="#48515A" d="M135.791 146.878h2V72.353h-2zM82.904 139.001c-6.627.052-11.957 5.467-11.905 12.094.052 6.628 5.468 11.958 12.095 11.906 6.59-.053 11.905-5.41 11.905-12-.033-6.651-5.444-12.019-12.095-12zm0 26c-7.732-.053-13.957-6.363-13.905-14.095.053-7.732 6.363-13.958 14.095-13.905 7.695.052 13.905 6.304 13.905 14-.035 7.754-6.34 14.017-14.095 14z"/><path fill="#DEDEDD" d="M83.063 143c4.451 0 8.058 3.582 8.058 8s-3.607 8-8.058 8-8.059-3.582-8.059-8 3.608-8 8.059-8"/><path fill="#48515A" d="M143.999 81.003a1.002 1.002 0 0 0-1 1V116c.001.552.448.999 1 1h20c.552-.001 1-.448 1-1V82.003c0-.552-.448-.999-1-1h-20zm20 37.997h-20a3.004 3.004 0 0 1-3-3V82.003a3.004 3.004 0 0 1 3-3h20a3.002 3.002 0 0 1 3 3V116a3.002 3.002 0 0 1-3 3z"/><path fill="#5FE0ED" d="M144.999 114.999h18V83.003h-18z"/><path fill="#48515A" d="M183.011 119h-8.993a3.002 3.002 0 0 1-3-3V82.003a3.002 3.002 0 0 1 3-3h4.99v2h-4.99c-.552.001-1 .448-1 1V116c0 .552.448.999 1 1h8.993v2M34.979 49h2v-4h-2zM34.979 59h2v-4h-2zM38.978 53h4v-2h-4zM28.979 53h4v-2h-4zM213 86.994h2v-4h-2zM213 96.994h2v-4h-2zM217 90.994h4v-2h-4zM207 90.994h4v-2h-4z"/><path fill="#DEDEDD" d="M184.908 181.166h30.17v-2h-30.17v2zm-50.03 0h30.17v-2h-30.17v2zm-50.03 0h30.17v-2h-30.17v2zm-50.03 0h30.17v-2h-30.17v2zm-5.819-10.324V195l192 .231v-24.159l-192-.23z"/><path fill="#FFD15D" d="M190.996 88.003a2 2 0 1 1 .001 3.999 2 2 0 0 1-.001-3.999M36 139a3 3 0 1 1 0 6 3 3 0 0 1 0-6m76-90a3 3 0 1 1 0 6 3 3 0 0 1 0-6"/><path fill="#48515A" d="M196.999 157.005h5.475c.842 0 1.525-.683 1.526-1.526v-8.841a1.529 1.529 0 0 0-1.526-1.527H196c.661 1.894.997 3.884.995 5.89l.004 6.004zM162.805 160H99.001l-.002-8.999c-.052-8.89-7.302-16.053-16.191-16-8.814.053-15.946 7.185-15.999 16h-2c.053-9.994 8.198-18.053 18.191-18 9.919.053 17.947 8.081 17.999 18L101 158h59.805v-6.999c.061-10.003 8.219-18.061 18.221-18a18.111 18.111 0 0 1 16.137 10.11h7.311a3.531 3.531 0 0 1 3.526 3.527v8.841a3.53 3.53 0 0 1-3.526 3.526H195l-.005-8.004c-.053-8.889-7.302-16.052-16.191-15.999-8.814.052-15.947 7.184-15.999 15.999V160z"/><path fill="#48515A" d="M47 145.001V155a2.003 2.003 0 0 0 2.001 2h15.793v-11.999H47zM66.794 159H49.001A4.006 4.006 0 0 1 45 155v-11.999h21.794V159zM182.557 47.139l10.451 25.309 4.473-8.995 8.387 8.387 1.415-1.414-8.431-8.431 7.653-4.592-23.948-10.264zm10.282 30.14l-14.003-33.91 32.052 13.736-8.811 5.287 8.034 8.034-4.243 4.242-7.834-7.835-5.195 10.446z"/></g></svg>