<?xml version="1.0" encoding="utf-8"?><svg xmlns="http://www.w3.org/2000/svg" width="250" height="250" viewBox="0 0 250 250"><g fill="none" fill-rule="evenodd"><path fill="#48515A" d="M44.417 140.833c-8.514-.004-15.413-6.909-15.409-15.424.004-8.508 6.901-15.405 15.409-15.409 3.869 0 19.871 5.298 26.947 8.069l-.728 1.862C62.82 116.872 47.649 112 44.417 112c-7.41.004-13.413 6.015-13.409 13.424.004 7.404 6.005 13.405 13.409 13.409v2"/><path fill="#FFD15D" d="M158.715 155c-16.569 0-30-13.432-30-30 0-16.568 13.431-30 30-30 16.568 0 30 13.432 30 30 0 16.568-13.432 30-30 30zm-46.253-80l-48.75 50 48.75 50h100.505V75H112.462z"/><path fill="#48515A" d="M84.967 120.999a4 4 0 1 0 0 8 4 4 0 0 0 0-8zm0 10a6 6 0 1 1 6-6 6.007 6.007 0 0 1-6 6zm62.991-22.5a4.526 4.526 0 1 0 0 9.051 4.526 4.526 0 0 0 0-9.051zm0 11.052a6.526 6.526 0 1 1 6.526-6.526 6.533 6.533 0 0 1-6.526 6.526zm21.48 11.678a4.525 4.525 0 1 0 .001 9.052 4.526 4.526 0 1 0-.001-9.052zm0 11.052a6.526 6.526 0 1 1 6.527-6.526 6.534 6.534 0 0 1-6.527 6.526zM141.758 139.325l32.5-32.5 1.414 1.414-32.5 32.5-1.414-1.414"/><path fill="#48515A" d="M44.417 140.833c-8.51-.009-15.406-6.906-15.416-15.416h2c.008 7.406 6.01 13.408 13.416 13.416 7.657 0 39.845-14.596 40.169-14.743l.828 1.82c-1.34.61-32.91 14.923-40.997 14.923M127.072 54.982h2v-4h-2zM127.072 64.981h2v-4h-2zM131.072 58.982h4v-2h-4zM121.072 58.982h4v-2h-4zM45.022 155.042h2v-4h-2zM45.022 165.042h2v-4h-2zM49.022 159.042h4v-2h-4zM39.022 159.042h4v-2h-4zM185.055 187.981h2v-4h-2zM185.055 197.981h2v-4h-2zM189.055 191.981h4v-2h-4zM179.055 191.981h4v-2h-4zM82.999 100.93h2v-18h-2zM86.999 100.93h4V82.964h-4zM92.999 100.93h2v-18h-2zM96.999 100.93h2v-18h-2zM100.999 100.93h4V82.931h-4zM106.999 100.93h2v-18h-2zM110.999 100.93h4V82.931h-4zM91.936 159.931a3 3 0 1 0 0 6 3 3 0 0 0 0-6zm0 8a5 5 0 1 1 5-5 5.007 5.007 0 0 1-5 5zm0 14a3 3 0 1 0 0 6 3 3 0 0 0 0-6zm0 8a5 5 0 1 1 5-5 5.007 5.007 0 0 1-5 5z"/><path fill="#48515A" d="M88.983 180.896l26.333-20.752 1.238 1.571-26.333 20.752-1.238-1.571"/><path fill="#48515A" d="M88.817 166.841l1.237-1.571 26.5 20.875-1.237 1.571-26.5-20.875M104.935 174.93h2v-2h-2v2zm4 0h2v-2h-2v2zm4 0h2v-2h-2v2zm4 0h2v-2h-2v2zm78.066-104.953h24v-6.001h-24v6.001zm-2 2h28V61.976h-28v10.001z"/><path fill="#48515A" d="M219.001 85.977h-24V70.616h2v13.361h20V70.616h2v15.361M203.001 70.616h2v-8h-2z"/><path fill="#48515A" d="M202.999 84.615h2V68.616h-2zM209.001 70.616h2v-8h-2z"/><path fill="#48515A" d="M209.001 84.615h2V68.616h-2zM198.949 57.976a2.001 2.001 0 0 0 .052 4h6.019a39.516 39.516 0 0 0-6.071-4zm11.978 6h-11.926a4 4 0 0 1 0-8c1.313 0 5.952 3.376 9.612 6.209l2.314 1.791z"/><path fill="#48515A" d="M208.981 61.976h6.02a2 2 0 0 0 .052-4 39.574 39.574 0 0 0-6.072 4zm6.02 2h-11.926l2.314-1.791c3.66-2.833 8.297-6.209 9.612-6.209a4 4 0 1 1 0 8z"/></g></svg>