<?xml version="1.0" encoding="utf-8"?><svg xmlns="http://www.w3.org/2000/svg" width="250" height="250" viewBox="0 0 250 250"><g fill="none" fill-rule="evenodd"><path fill="#F58E70" d="M163.023 204.986h-29.667a1 1 0 0 1 0-2h29.667a1 1 0 1 1 0 2m34.666 0h-29.666a1 1 0 0 1 0-2h29.666a1 1 0 1 1 0 2m4.333 0c-.259 0-.519-.11-.709-.29-.18-.19-.291-.45-.291-.71 0-.27.111-.52.291-.71.37-.37 1.049-.37 1.419 0 .181.19.29.44.29.71 0 .26-.109.52-.29.71-.189.18-.449.29-.71.29m4 0c-.259 0-.519-.11-.709-.29a.92.92 0 0 1-.21-.33.996.996 0 0 1-.081-.38c0-.26.111-.52.291-.71.37-.37 1.049-.37 1.419 0 .181.19.29.45.29.71 0 .26-.109.52-.29.71-.189.18-.449.29-.71.29m-72-6c-.259 0-.519-.11-.709-.29-.18-.19-.291-.44-.291-.71 0-.13.031-.26.081-.38.049-.13.12-.23.21-.33.37-.37 1.049-.37 1.419 0 .181.19.29.45.29.71 0 .07-.009.13-.019.2-.01.06-.03.12-.061.18a.717.717 0 0 1-.089.18l-.121.15c-.189.18-.449.29-.71.29m4 2c-.259 0-.519-.11-.709-.29-.041-.05-.09-.1-.121-.16a.553.553 0 0 1-.089-.17.606.606 0 0 1-.06-.18c-.01-.07-.021-.13-.021-.2 0-.26.111-.52.291-.71.379-.37 1.04-.37 1.419 0 .181.19.29.45.29.71 0 .07-.009.13-.019.2-.01.06-.03.12-.061.18a.532.532 0 0 1-.089.17c-.04.06-.081.11-.121.16-.189.18-.449.29-.71.29m0-4c-.259 0-.519-.11-.709-.29-.18-.19-.291-.45-.291-.71 0-.13.031-.26.081-.38.049-.12.12-.23.21-.33.379-.37 1.04-.37 1.419 0 .09.1.161.21.21.33.051.12.08.25.08.38 0 .26-.109.52-.29.71-.189.18-.449.29-.71.29m4 2c-.069 0-.129-.01-.2-.02a.64.64 0 0 1-.179-.06.545.545 0 0 1-.17-.09 2.02 2.02 0 0 1-.16-.12c-.18-.19-.291-.44-.291-.71 0-.26.111-.52.291-.71.049-.04.1-.08.16-.12.049-.04.11-.07.17-.09a.64.64 0 0 1 .179-.06c.2-.04.401-.02.58.06.12.05.231.12.33.21.181.19.29.45.29.71 0 .27-.109.52-.29.71-.099.09-.21.16-.33.21a.991.991 0 0 1-.38.08m4-2c-.259 0-.519-.11-.709-.29l-.121-.15a.752.752 0 0 1-.089-.18.606.606 0 0 1-.06-.18c-.021-.07-.021-.13-.021-.2 0-.13.021-.26.081-.38.049-.12.12-.23.21-.33.37-.37 1.049-.37 1.419 0 .09.1.161.21.21.33.051.12.08.25.08.38 0 .26-.109.52-.29.71l-.149.12a.763.763 0 0 1-.181.09.62.62 0 0 1-.179.06c-.071.01-.13.02-.201.02"/><path fill="#48515A" d="M92.025 204.014h2v-4h-2zM92.025 214.014h2v-4h-2zM96.025 208.014h4v-2h-4zM86.025 208.014h4v-2h-4z"/><path fill="#475059" d="M124.001 206.171l-38.978-77.72V47.986h2v79.991l37.023 73.824 38.977-73.834V47.986h2v80.476l-.115.219-40.907 77.49"/><path fill="#475059" d="M142.021 171.05l-35-.064.003-2 35.001.064-.004 2M111.023 129.484l-12.974-10.145-11.379 9.638-1.293-1.526 12.621-10.691 13.025 10.185 12.996-10.161 13.045 10.036 15.032-10.02 12.574 10.651-1.293 1.526-11.426-9.678-14.971 9.98-12.952-9.964-13.005 10.169M86.022 44.986c-.259 0-.519-.11-.71-.29l-.12-.15a.752.752 0 0 1-.089-.18.606.606 0 0 1-.06-.18c-.01-.07-.021-.13-.021-.2 0-.26.111-.52.29-.71.101-.09.21-.16.331-.21.24-.1.52-.1.759 0 .131.05.231.12.33.21.181.19.29.45.29.71 0 .07-.009.13-.019.2-.01.06-.03.12-.061.18a.717.717 0 0 1-.089.18l-.121.15c-.099.09-.21.16-.33.21a.991.991 0 0 1-.38.08m78 0c-.059 0-.129-.01-.189-.02a.603.603 0 0 1-.19-.06.545.545 0 0 1-.17-.09c-.06-.03-.111-.08-.16-.12-.18-.19-.291-.45-.291-.71 0-.06 0-.13.021-.2.01-.06.029-.12.06-.18.02-.06.049-.12.089-.18l.121-.15c.049-.04.1-.09.16-.12.049-.04.11-.07.17-.09.06-.03.12-.05.19-.06.319-.07.67.04.899.27.181.19.29.44.29.71 0 .26-.109.52-.29.71-.189.18-.449.29-.71.29"/><path fill="#FFD15D" d="M98.023 35.986v78.255l13.001 10.165 12.984-10.153.015.012V55.998l-26-20.012M152.023 35.986v78.458l.216-.143 8.784 7.44V45.992l-9-10.006"/><path fill="#F58E70" d="M111.842 173.004l12.25 24.426 12.878-24.395-25.128-.031"/><path fill="#48515A" d="M34.991 56.925h2v-4h-2zM34.991 66.925h2v-4h-2zM38.991 60.925h4v-2h-4zM28.991 60.925h4v-2h-4z"/><path fill="#FFD15D" d="M190.023 91.986a2 2 0 1 0 4 0 2 2 0 0 0-4 0M49.939 162.028a2 2 0 1 0 4 0 2 2 0 0 0-4 0"/><path fill="#48515A" d="M175.109 174.031a5.01 5.01 0 0 0 4.9 4h17.105a6.994 6.994 0 0 1-2.034-4h-19.971zm26.9 6h-22c-3.86 0-7-3.141-7-7v-1h24v1c0 2.756 2.243 5 5 5s5-2.244 5-5v-24h2v24c0 3.859-3.141 7-7 7z"/><path fill="#48515A" d="M198.938 148.031h19.97a5.008 5.008 0 0 0-4.899-4h-17.106a6.983 6.983 0 0 1 2.035 4zm-11.929 25h-2v-24c0-3.86 3.14-7 7-7h22c3.859 0 7 3.14 7 7v1h-24v-1c0-2.757-2.243-5-5-5s-5 2.243-5 5v24z"/><path fill="#475059" d="M39.929 133.057h12.504l9.544-11.453 3.677-16.547H53.37l-9.55 11.459-3.891 16.541zm13.441 2H37.901l.027-2.229 4.054-17.23 10.451-12.541h15.715l-4.323 19.454-10.455 12.546z"/><path fill="#475059" d="M57.67 116.698l-1.537-1.281 10-12 1.537 1.281-10 12"/><path fill="#475059" d="M53.901 134.057h-2l.028-1.327 3.708-15.673H42.901v-2h15.265l-4.265 18.02v.98M179.023 74.152h21.999v-6.519a10.241 10.241 0 0 1-3.881-8.007 10.24 10.24 0 0 1 3.881-8.007V46.07h-21.999v5.549a10.237 10.237 0 0 1 3.882 8.007c0 3.117-1.442 6.072-3.882 8.007v6.519zm23.999 2h-25.999v-9.534l.42-.299a8.239 8.239 0 0 0 3.462-6.693 8.24 8.24 0 0 0-3.462-6.694l-.42-.299V44.07h25.999v8.563l-.419.299a8.238 8.238 0 0 0-3.462 6.694 8.237 8.237 0 0 0 3.462 6.693l.419.299v9.534z"/><path fill="#475059" d="M187.023 46.195v20.873c0 1.654 1.346 3 3 3 1.655 0 3-1.346 3-3V46.195h-6zm3 25.873c-2.756 0-5-2.243-5-5V44.195h10v22.873c0 2.757-2.243 5-5 5z"/></g></svg>