<?xml version="1.0" encoding="utf-8"?><svg xmlns="http://www.w3.org/2000/svg" width="250" height="250" viewBox="0 0 250 250"><g fill="none" fill-rule="evenodd"><path fill="#F58E70" d="M75.994 96.844c-.11.439-.262 1.239-.402 2.239h3.23l-.398-2.239c.475 0 .733-.426.733-.901v-2.149l-2.036-2.58-1.964 2.58v2.149c0 .475.363.901.837.901"/><path fill="#DFE0E0" d="M70.157 84.771v1.878l6.75 3.653 6.819-3.545.431-3.437v-2.898c0-.243.249-.503.476-.766-.078.067-.276.135-.339.203-.904.972-2.337 2.219-3.265 3.012-.734.627-1.725 1.212-2.69 1.212h-2.79c-.965 0-1.893-.585-2.628-1.212-.885-.756-2.174-1.834-3.076-2.765-.027-.028-.058-.113-.088-.141.271.288.333.551.663.842-.008.003-.263-.022-.263-.013v3.977"/><path fill="#48515A" d="M70.157 87.348a1 1 0 0 1-1-1v-5.265a1 1 0 1 1 2 0v5.265a1 1 0 0 1-1 1"/><path fill="#48515A" d="M83.157 87.083a1 1 0 0 1-1-1v-6.226l.473-.294c.862-.534 1.107-.981 1.216-1.272l.055-.119 2.961-5.528 2.87-1.404.605-2.942a.171.171 0 0 0-.049-.103c-.068-.07-.197-.112-.346-.112h-1.713l.124-1.111c.124-1.109.352-1.884.535-2.507.156-.532.269-.917.269-1.327v-.482c0-1.577-.714-3.112-1.403-4.596l-.284-.576c-.751-1.513-1.881-2.892-3.269-3.986-2.019-1.592-4.572-2.478-7.188-2.496-3.069-.006-6.009 1.204-8.27 3.451-2.279 2.263-3.586 5.354-3.586 8.479v.206c0 .491.082.924.197 1.522.112.586.251 1.316.349 2.327l.107 1.096h-1.623c-.093 0-.368.018-.433.229l.86 2.91 2.546 1.497 2.627 5.615c.338.898 2.019 2.3 3.131 3.228l.653.549c.745.636 1.43.972 1.978.972h2.608a1 1 0 0 1 0 2h-2.608c-1.046 0-2.149-.488-3.277-1.451l-.635-.534c-1.814-1.513-3.237-2.768-3.693-3.991l-2.333-4.978-2.691-1.584-1.18-4.135c0-1.127.76-2.02 1.845-2.262-.064-.421-.132-.78-.196-1.112-.124-.653-.232-1.218-.232-1.898v-.206c0-3.654 1.522-7.262 4.176-9.899 2.62-2.602 6.027-4.031 9.602-4.031h.091c3.059.021 6.047 1.06 8.413 2.926 1.62 1.276 2.941 2.891 3.823 4.668l.305.621c.745 1.603 1.59 3.42 1.59 5.341v.58c0 .698-.17 1.277-.35 1.89-.098.333-.203.691-.295 1.114.469.101.886.326 1.21.659.415.427.634 1 .617 1.614l-.02.173-.825 4.016-3.174 1.553-2.628 4.905c-.284.713-.789 1.333-1.535 1.882v5.139a1 1 0 0 1-1 1M49.099 96.403l-.663-1.887 17.393-6.111 2.422-4.322h1.906v2h-.735l-2.217 3.959-18.106 6.361"/><path fill="#48515A" d="M77.262 91.502l-7.094-3.973a1 1 0 1 1 .977-1.745l6.117 3.426 5.866-3.285a1 1 0 1 1 .977 1.745l-6.843 3.832"/><path fill="#48515A" d="M105.602 95.666l-18.278-5.558-2.55-4.025h-1.149v-2h2.25l2.741 4.328 17.568 5.342-.582 1.913M73.393 96.513a1 1 0 0 1-.743-1.669l4.612-5.123 4.611 5.123a1 1 0 0 1-1.487 1.338l-3.124-3.472-3.125 3.472a1 1 0 0 1-.744.331"/><path fill="#48515A" d="M85.114 110.766l-.466-1.945C99.41 105.286 109.72 92.201 109.72 77c0-18.042-14.679-32.72-32.72-32.72-18.042 0-32.72 14.678-32.72 32.72 0 14.747 9.93 27.736 24.146 31.585l-.522 1.93C52.817 106.43 42.28 92.649 42.28 77c0-19.144 15.575-34.72 34.72-34.72S111.72 57.856 111.72 77c0 16.13-10.941 30.015-26.606 33.766"/><path fill="#F58E70" d="M171.994 96.844a24.299 24.299 0 0 0-.402 2.239h3.339c-.14-1-.397-1.8-.507-2.239.475 0 .733-.426.733-.901v-2.149l-2.036-2.58-1.964 2.58v2.149c0 .475.363.901.837.901"/><path fill="#DFE0E0" d="M166.157 84.771v1.878l6.75 3.653 6.819-3.545.431-3.437v-2.898c0-.243.249-.503.476-.766-.078.067-.276.135-.34.203-.903.972-2.336 2.219-3.264 3.012-.734.627-1.725 1.212-2.69 1.212h-2.79c-.965 0-1.893-.585-2.627-1.212-.886-.756-2.175-1.834-3.077-2.765-.027-.028-.058-.113-.088-.141.271.288.333.551.662.842-.007.003-.262-.022-.262-.013v3.977"/><path fill="#48515A" d="M166.157 87.348a1 1 0 0 1-1-1v-5.265a1 1 0 1 1 2 0v5.265a1 1 0 0 1-1 1"/><path fill="#48515A" d="M179.157 87.083a1 1 0 0 1-1-1v-6.226l.473-.294c.862-.534 1.107-.981 1.216-1.272l.055-.119 2.961-5.528 2.87-1.404.605-2.942a.171.171 0 0 0-.049-.103c-.068-.07-.197-.112-.346-.112h-1.713l.124-1.111c.124-1.109.352-1.884.535-2.507.156-.532.269-.917.269-1.327v-.482c0-1.292-.315-2.609-.985-4.175h-.229l-.266-.589c-.032-.072-.071-.144-.109-.216l-.098-.192c-.751-1.513-1.881-2.892-3.269-3.986-2.019-1.592-4.572-2.478-7.188-2.496-3.051-.006-6.009 1.204-8.27 3.451-2.279 2.263-3.586 5.354-3.586 8.479v.206c0 .491.082.924.197 1.522.112.586.251 1.316.349 2.327l.107 1.096h-1.623c-.093 0-.368.018-.433.229l.86 2.91 2.546 1.497 2.627 5.615c.338.898 2.019 2.3 3.131 3.228l.653.549c.745.636 1.429.972 1.978.972h2.608a1 1 0 0 1 0 2h-2.608c-1.046 0-2.149-.488-3.277-1.451l-.635-.534c-1.814-1.513-3.237-2.768-3.693-3.991l-2.333-4.978-2.691-1.584-1.18-4.135c0-1.127.76-2.02 1.845-2.262-.064-.421-.132-.78-.196-1.112-.124-.653-.232-1.218-.232-1.898v-.206c0-3.654 1.522-7.262 4.176-9.899a13.766 13.766 0 0 1 9.693-4.031c3.059.021 6.047 1.06 8.413 2.926 1.584 1.248 2.884 2.821 3.765 4.553h.255l.269.579c.975 2.099 1.429 3.846 1.429 5.498v.58c0 .698-.17 1.277-.35 1.89-.098.333-.203.691-.295 1.114.469.101.886.326 1.21.659.415.427.634 1 .617 1.614l-.02.173-.825 4.016-3.174 1.553-2.628 4.905c-.284.713-.789 1.333-1.535 1.882v5.139a1 1 0 0 1-1 1M145.099 96.403l-.663-1.887 17.393-6.111 2.421-4.322h1.907v2h-.735l-2.217 3.959-18.106 6.361"/><path fill="#48515A" d="M173.262 91.502l-7.095-3.973a1 1 0 0 1 .978-1.745l6.117 3.426 5.866-3.285a1 1 0 1 1 .977 1.745l-6.843 3.832M201.602 95.666l-18.278-5.558-2.55-4.025h-.617v-2h1.718l2.741 4.328 17.568 5.342-.582 1.913"/><path fill="#48515A" d="M169.393 96.513a1 1 0 0 1-.743-1.669l4.612-5.123 4.611 5.123a1 1 0 0 1-1.487 1.338l-3.124-3.472-3.125 3.472a1 1 0 0 1-.744.331"/><path fill="#48515A" d="M165.553 110.919C149.75 107.465 138.28 93.199 138.28 77c0-19.144 15.575-34.72 34.72-34.72S207.72 57.856 207.72 77c0 16.28-11.066 30.195-26.909 33.837l-.449-1.949c14.93-3.432 25.358-16.545 25.358-31.888 0-18.042-14.678-32.72-32.72-32.72-18.042 0-32.72 14.678-32.72 32.72 0 15.267 10.808 28.71 25.7 31.965l-.427 1.954"/><path fill="#F58E70" d="M80.27 207.083s-1.146-11.807-1.719-14.099v-.091l-.127-.045c.475 0 .733-.43.733-.905v-2.149l-2.036-2.58-1.964 2.58v2.149c0 .475.363.86.837.859h-.011l-.005.182c-.573 2.292-1.725 14.099-1.725 14.099h6.017"/><path fill="#DFE0E0" d="M70.157 180.771v1.878l6.75 3.653 6.819-3.545.431-3.438v-2.897c0-.243.249-.503.476-.766-.078.067-.276.135-.339.203-.904.972-2.337 2.219-3.265 3.012-.734.627-1.725 1.212-2.69 1.212h-2.79c-.965 0-1.893-.585-2.628-1.212-.885-.756-2.174-1.834-3.076-2.765-.027-.028-.058-.113-.088-.141.271.288.333.551.663.842-.008.003-.263-.022-.263-.013v3.977"/><path fill="#48515A" d="M70.157 183.182a1 1 0 0 1-1-1v-5.099a1 1 0 1 1 2 0v5.099a1 1 0 0 1-1 1m13-.099a1 1 0 0 1-1-1v-6.226l.473-.294c.862-.534 1.107-.981 1.216-1.272l.055-.119 2.961-5.528 2.87-1.404.605-2.942a.171.171 0 0 0-.049-.103c-.068-.07-.197-.112-.346-.112h-1.713l.124-1.111c.124-1.108.352-1.884.535-2.507.156-.532.269-.917.269-1.327v-.482c0-1.446-.394-2.923-1.24-4.746a13.37 13.37 0 0 1-.313-.566c-.443-.894-1.088-1.746-1.972-2.604a1 1 0 1 1 1.393-1.435c1.05 1.02 1.825 2.051 2.371 3.151.065.133.291.526.293.529 1.014 2.174 1.468 3.921 1.468 5.573v.58c0 .698-.17 1.277-.35 1.89-.098.333-.203.691-.295 1.114.469.101.886.326 1.21.659.415.427.634 1.001.617 1.614l-.02.173-.825 4.016-3.174 1.553-2.628 4.905c-.284.713-.789 1.333-1.535 1.882v5.139a1 1 0 0 1-1 1"/><path fill="#48515A" d="M78.157 181.083h-2.608c-1.046 0-2.149-.488-3.277-1.451l-.635-.534c-1.814-1.513-3.237-2.768-3.693-3.991l-2.333-4.978-2.691-1.584-1.18-4.135c0-1.128.76-2.02 1.845-2.262-.064-.421-.132-.78-.196-1.112-.124-.653-.232-1.218-.232-1.898v-.206c0-3.95 1.733-7.756 4.754-10.442a1 1 0 0 1 1.329 1.496c-2.595 2.306-4.083 5.566-4.083 8.946v.206c0 .491.082.924.197 1.522.112.586.251 1.316.349 2.327l.107 1.096h-1.623c-.093 0-.368.018-.433.229l.86 2.91 2.546 1.497 2.627 5.615c.338.898 2.019 2.3 3.131 3.228l.653.549c.745.636 1.43.972 1.978.972h2.608a1 1 0 0 1 0 2M49.099 192.403l-.663-1.887 17.393-6.11 2.422-4.323h1.906v2h-.735l-2.217 3.959-18.106 6.361"/><path fill="#48515A" d="M77.262 187.502l-7.094-3.972a1 1 0 0 1 .977-1.746l6.117 3.426 5.866-3.285a1 1 0 0 1 .977 1.745l-6.843 3.832"/><path fill="#48515A" d="M105.602 191.666l-18.278-5.558-2.55-4.025h-.617v-2h1.718l2.741 4.328 17.568 5.342-.582 1.913M73.393 192.513a1 1 0 0 1-.743-1.669l4.612-5.123 4.611 5.123a1 1 0 0 1-1.487 1.338l-3.124-3.472-3.125 3.472a1 1 0 0 1-.744.331m35.737-25.727c-2.492-12.968-12.877-23.378-25.84-25.902l.382-1.963c13.757 2.679 24.777 13.725 27.422 27.487l-1.964.378"/><path fill="#48515A" d="M77 207.719c-19.145 0-34.72-15.575-34.72-34.719 0-15.971 10.809-29.824 26.284-33.687l.485 1.94C54.465 144.893 44.28 157.948 44.28 173c0 18.041 14.678 32.719 32.72 32.719 14.844 0 27.854-10.01 31.638-24.344l1.934.51c-4.016 15.211-17.821 25.834-33.572 25.834"/><path fill="#F58E70" d="M176.27 207.083s-1.146-11.807-1.719-14.099v-.091l-.127-.045c.475 0 .733-.43.733-.905v-2.149l-2.036-2.58-1.964 2.58v2.149c0 .475.363.86.837.859h-.011l-.005.182c-.573 2.292-1.725 14.099-1.725 14.099h6.017"/><path fill="#DFE0E0" d="M166.157 180.771v1.878l6.75 3.653 6.819-3.545.431-3.438v-2.897c0-.243.249-.503.476-.766-.078.067-.276.135-.34.203-.903.972-2.336 2.219-3.264 3.012-.734.627-1.725 1.212-2.69 1.212h-2.79c-.965 0-1.893-.585-2.627-1.212-.886-.756-2.175-1.834-3.077-2.765-.027-.028-.058-.113-.088-.141.271.288.333.551.662.842-.007.003-.262-.022-.262-.013v3.977"/><path fill="#48515A" d="M166.157 183.015a1 1 0 0 1-1-1v-4.932a1 1 0 1 1 2 0v4.932a1 1 0 0 1-1 1m21.182-18.628h.01-.01zm-8.182 18.696a1 1 0 0 1-1-1v-6.226l.473-.294c.862-.534 1.107-.981 1.216-1.272l.055-.119 2.961-5.528 2.87-1.404.605-2.942a.171.171 0 0 0-.049-.103c-.068-.07-.197-.112-.346-.112h-1.713l.124-1.111c.124-1.108.352-1.884.535-2.507.156-.532.269-.917.269-1.327v-.482c0-1.448-.395-2.928-1.243-4.753a1.001 1.001 0 0 1 1.814-.843c.975 2.099 1.429 3.846 1.429 5.498v.58c0 .698-.17 1.277-.35 1.89-.098.333-.203.691-.295 1.114.469.101.886.326 1.21.659.415.427.634 1.001.617 1.614l-.02.173-.825 4.016-3.174 1.553-2.628 4.905c-.284.713-.789 1.333-1.535 1.882v5.139a1 1 0 0 1-1 1z"/><path fill="#48515A" d="M174.157 181.083h-2.608c-1.046 0-2.149-.488-3.277-1.451l-.635-.534c-1.814-1.513-3.237-2.768-3.693-3.991l-2.333-4.978-2.691-1.584-1.18-4.135c0-1.128.76-2.02 1.845-2.262-.064-.421-.132-.78-.196-1.112-.124-.653-.232-1.218-.232-1.898v-.206c0-4.484 2.226-8.744 5.955-11.398a1 1 0 0 1 1.159 1.63c-3.202 2.279-5.114 5.93-5.114 9.768v.206c0 .491.082.924.197 1.522.112.586.251 1.316.349 2.327l.107 1.096h-1.623c-.093 0-.368.018-.433.229l.86 2.91 2.546 1.497 2.627 5.615c.338.898 2.019 2.3 3.131 3.228l.653.549c.745.636 1.429.972 1.978.972h2.608a1 1 0 0 1 0 2M145.099 192.403l-.663-1.887 17.393-6.11 2.421-4.323h1.907v2h-.735l-2.217 3.959-18.106 6.361"/><path fill="#48515A" d="M173.262 187.502l-7.095-3.972a1.001 1.001 0 0 1 .978-1.746l6.117 3.426 5.866-3.285a1 1 0 0 1 .977 1.745l-6.843 3.832"/><path fill="#48515A" d="M201.602 191.666l-18.278-5.558-2.55-4.025h-.617v-2h1.718l2.741 4.328 17.568 5.342-.582 1.913M169.393 192.513a1 1 0 0 1-.743-1.669l4.612-5.123 4.611 5.123a1 1 0 0 1-1.487 1.338l-3.124-3.472-3.125 3.472a1 1 0 0 1-.744.331m-28.53-25.692l-1.965-.375c2.572-13.456 12.857-24.157 26.203-27.263l.453 1.948c-12.576 2.927-22.268 13.01-24.691 25.69"/><path fill="#48515A" d="M173 207.719c-15.833 0-29.656-10.692-33.616-26.001l1.937-.501c3.731 14.426 16.758 24.502 31.679 24.502 18.042 0 32.72-14.678 32.72-32.719 0-15.33-10.417-28.441-25.333-31.882l.449-1.949c15.829 3.652 26.884 17.564 26.884 33.831 0 19.144-15.575 34.719-34.72 34.719M97.157 82.083h33v-2h-33z"/><path fill="#48515A" d="M100.293 85.707L95.586 81l4.707-4.707 1.414 1.414L98.414 81l3.293 3.293-1.414 1.414M132.16 81.082c0-.551.44-1 1-1 .55 0 1 .449 1 1 0 .55-.45 1-1 1-.56 0-1-.45-1-1zm4 0c0-.551.44-1 1-1 .55 0 1 .449 1 1 0 .55-.45 1-1 1-.56 0-1-.45-1-1zm4 0c0-.551.44-1 1-1 .55 0 1 .449 1 1 0 .55-.45 1-1 1-.56 0-1-.45-1-1zm4 0c0-.551.44-1 1-1 .55 0 1 .449 1 1 0 .55-.45 1-1 1-.56 0-1-.45-1-1zm4 0c0-.551.44-1 1-1 .55 0 1 .449 1 1 0 .55-.45 1-1 1-.56 0-1-.45-1-1zm4 0c0-.551.44-1 1-1 .55 0 1 .449 1 1 0 .55-.45 1-1 1-.56 0-1-.45-1-1zM120.157 74.083h33v-2h-33z"/><path fill="#48515A" d="M149.707 77.707l-1.414-1.414L151.586 73l-3.293-3.293 1.414-1.414L154.414 73l-4.707 4.707M96.16 73.082c0-.551.44-1 1-1 .55 0 1 .449 1 1 0 .55-.45 1-1 1-.56 0-1-.45-1-1zm4 0c0-.551.44-1 1-1 .55 0 1 .449 1 1 0 .55-.45 1-1 1-.56 0-1-.45-1-1zm4 0c0-.551.44-1 1-1 .55 0 1 .449 1 1 0 .55-.45 1-1 1-.56 0-1-.45-1-1zm4 0c0-.551.44-1 1-1 .55 0 1 .449 1 1 0 .55-.45 1-1 1-.56 0-1-.45-1-1zm4 0c0-.551.44-1 1-1 .55 0 1 .449 1 1 0 .55-.45 1-1 1-.56 0-1-.45-1-1zm4 0c0-.551.44-1 1-1 .55 0 1 .449 1 1 0 .55-.45 1-1 1-.56 0-1-.45-1-1zM97.157 179.083h33v-2h-33z"/><path fill="#48515A" d="M100.293 182.765l-4.707-4.707 4.707-4.707 1.414 1.414-3.293 3.293 3.293 3.293-1.414 1.414M132.16 178.082c0-.551.44-1 1-1 .55 0 1 .449 1 1 0 .55-.45 1-1 1-.56 0-1-.45-1-1zm4 0c0-.551.44-1 1-1 .55 0 1 .449 1 1 0 .55-.45 1-1 1-.56 0-1-.45-1-1zm4 0c0-.551.44-1 1-1 .55 0 1 .449 1 1 0 .55-.45 1-1 1-.56 0-1-.45-1-1zm4 0c0-.551.44-1 1-1 .55 0 1 .449 1 1 0 .55-.45 1-1 1-.56 0-1-.45-1-1zm4 0c0-.551.44-1 1-1 .55 0 1 .449 1 1 0 .55-.45 1-1 1-.56 0-1-.45-1-1zm4 0c0-.551.44-1 1-1 .55 0 1 .449 1 1 0 .55-.45 1-1 1-.56 0-1-.45-1-1zM120.157 171.083h33v-2h-33z"/><path fill="#48515A" d="M149.707 174.765l-1.414-1.414 3.293-3.293-3.293-3.293 1.414-1.414 4.707 4.707-4.707 4.707M96.16 170.082c0-.551.44-1 1-1 .55 0 1 .449 1 1 0 .55-.45 1-1 1-.56 0-1-.45-1-1zm4 0c0-.551.44-1 1-1 .55 0 1 .449 1 1 0 .55-.45 1-1 1-.56 0-1-.45-1-1zm4 0c0-.551.44-1 1-1 .55 0 1 .449 1 1 0 .55-.45 1-1 1-.56 0-1-.45-1-1zm4 0c0-.551.44-1 1-1 .55 0 1 .449 1 1 0 .55-.45 1-1 1-.56 0-1-.45-1-1zm4 0c0-.551.44-1 1-1 .55 0 1 .449 1 1 0 .55-.45 1-1 1-.56 0-1-.45-1-1zm4 0c0-.551.44-1 1-1 .55 0 1 .449 1 1 0 .55-.45 1-1 1-.56 0-1-.45-1-1zM168.157 127.083h2v-26h-2z"/><path fill="#48515A" d="M172.822 106.239l-3.293-3.293-3.293 3.293-1.414-1.415 4.707-4.707 4.707 4.707-1.414 1.415M168.16 130.082c0-.551.44-1 1-1 .55 0 1 .449 1 1 0 .55-.45 1-1 1-.56 0-1-.45-1-1zm0 4c0-.551.44-1 1-1 .55 0 1 .449 1 1 0 .55-.45 1-1 1-.56 0-1-.45-1-1zm0 4c0-.551.44-1 1-1 .55 0 1 .449 1 1 0 .55-.45 1-1 1-.56 0-1-.45-1-1zm0 4c0-.551.44-1 1-1 .55 0 1 .449 1 1 0 .55-.45 1-1 1-.56 0-1-.45-1-1zm0 4c0-.551.44-1 1-1 .55 0 1 .449 1 1 0 .55-.45 1-1 1-.56 0-1-.45-1-1zm0 4c0-.551.44-1 1-1 .55 0 1 .449 1 1 0 .55-.45 1-1 1-.56 0-1-.45-1-1zM176.157 150.083h2v-26h-2z"/><path fill="#48515A" d="M177.529 151.942l-4.707-4.707 1.414-1.414 3.293 3.293 3.293-3.293 1.414 1.414-4.707 4.707M176.16 101.082c0-.551.44-1 1-1 .55 0 1 .449 1 1 0 .55-.45 1-1 1-.56 0-1-.45-1-1zm0 4c0-.551.44-1 1-1 .55 0 1 .449 1 1 0 .55-.45 1-1 1-.56 0-1-.45-1-1zm0 4c0-.551.44-1 1-1 .55 0 1 .449 1 1 0 .55-.45 1-1 1-.56 0-1-.45-1-1zm0 4c0-.551.44-1 1-1 .55 0 1 .449 1 1 0 .55-.45 1-1 1-.56 0-1-.45-1-1zm0 4c0-.551.44-1 1-1 .55 0 1 .449 1 1 0 .55-.45 1-1 1-.56 0-1-.45-1-1zm0 4c0-.551.44-1 1-1 .55 0 1 .449 1 1 0 .55-.45 1-1 1-.56 0-1-.45-1-1zM71.157 126.083h2v-24.318h-2z"/><path fill="#48515A" d="M75.472 106.239l-3.293-3.293-3.293 3.293-1.414-1.415 4.707-4.707 4.707 4.707-1.414 1.415M71.16 129.082c0-.551.44-1 1-1 .55 0 1 .449 1 1 0 .55-.45 1-1 1-.56 0-1-.45-1-1zm0 4c0-.551.44-1 1-1 .55 0 1 .449 1 1 0 .55-.45 1-1 1-.56 0-1-.45-1-1zm0 4c0-.551.44-1 1-1 .55 0 1 .449 1 1 0 .55-.45 1-1 1-.56 0-1-.45-1-1zm0 4c0-.551.44-1 1-1 .55 0 1 .449 1 1 0 .55-.45 1-1 1-.56 0-1-.45-1-1zm0 4c0-.551.44-1 1-1 .55 0 1 .449 1 1 0 .55-.45 1-1 1-.56 0-1-.45-1-1zm0 4c0-.551.44-1 1-1 .55 0 1 .449 1 1 0 .55-.45 1-1 1-.56 0-1-.45-1-1zM79.157 149.083h2v-25h-2z"/><path fill="#48515A" d="M80.471 150.941l-4.707-4.707 1.414-1.414 3.293 3.293 3.293-3.293 1.414 1.414-4.707 4.707M79.16 101.082c0-.551.44-1 1-1 .55 0 1 .449 1 1 0 .55-.45 1-1 1-.56 0-1-.45-1-1zm0 4c0-.551.44-1 1-1 .55 0 1 .449 1 1 0 .55-.45 1-1 1-.56 0-1-.45-1-1zm0 4c0-.551.44-1 1-1 .55 0 1 .449 1 1 0 .55-.45 1-1 1-.56 0-1-.45-1-1zm0 4c0-.551.44-1 1-1 .55 0 1 .449 1 1 0 .55-.45 1-1 1-.56 0-1-.45-1-1zm0 4c0-.551.44-1 1-1 .55 0 1 .449 1 1 0 .55-.45 1-1 1-.56 0-1-.45-1-1zm0 4c0-.551.44-1 1-1 .55 0 1 .449 1 1 0 .55-.45 1-1 1-.56 0-1-.45-1-1zM109.737 149.364l-1.414-1.415 23.335-23.334 1.414 1.414-23.335 23.335"/><path fill="#48515A" d="M115.157 150.083h-7v-7h2v5h5v2M145.09 112.592a.996.996 0 0 1 0-1.41c.39-.39 1.03-.39 1.42 0 .39.39.39 1.02 0 1.41a.992.992 0 0 1-1.42 0zm-2.83 2.83a.996.996 0 0 1 0-1.41c.39-.39 1.03-.39 1.42 0a.996.996 0 0 1-.71 1.7c-.26 0-.51-.09-.71-.29zm-2.82 2.83c-.39-.39-.39-1.03 0-1.42a.996.996 0 0 1 1.41 0c.39.39.39 1.03 0 1.42a1.001 1.001 0 0 1-1.41 0zm-2.83 2.83c-.39-.39-.39-1.03 0-1.42a.996.996 0 0 1 1.41 0c.39.39.39 1.03 0 1.42a1.001 1.001 0 0 1-1.41 0zm-2.83 2.83c-.39-.4-.39-1.03 0-1.42a.996.996 0 0 1 1.41 0c.39.39.39 1.02 0 1.42a1.001 1.001 0 0 1-1.41 0zM120.343 127.444l-1.414-1.414 23.335-23.335 1.414 1.414-23.335 23.335"/><path fill="#48515A" d="M144.157 109.083h-2v-5h-5v-2h7v7M116.81 129.562a.996.996 0 1 1 1.41-1.41c.39.39.39 1.02 0 1.41a.96.96 0 0 1-.7.29c-.26 0-.52-.09-.71-.29zm-2.83 2.83a.996.996 0 1 1 1.41-1.41c.39.39.39 1.02 0 1.41a.96.96 0 0 1-.7.29c-.26 0-.52-.09-.71-.29zm-2.83 2.83a.996.996 0 0 1 0-1.41.99.99 0 0 1 1.42 0 .996.996 0 0 1-.71 1.7c-.26 0-.51-.09-.71-.29zm-2.83 2.83c-.39-.39-.39-1.03 0-1.42.39-.39 1.03-.39 1.42 0 .39.39.39 1.03 0 1.42-.2.19-.45.29-.71.29-.26 0-.51-.1-.71-.29zm-2.83 2.83c-.39-.39-.39-1.03 0-1.42.39-.39 1.03-.39 1.42 0 .39.39.39 1.03 0 1.42-.2.19-.45.29-.71.29-.25 0-.51-.1-.71-.29zM192.157 116.083h2v-4h-2zM192.157 126.083h2v-4h-2zM196.157 120.083h4v-2h-4zM186.157 120.083h4v-2h-4zM129.116 52c-1.103 0-2 .897-2 2s.897 2 2 2 2-.897 2-2-.897-2-2-2zm0 6c-2.206 0-4-1.795-4-4 0-2.206 1.794-4 4-4 2.205 0 4 1.794 4 4 0 2.205-1.795 4-4 4zm69 78a1 1 0 1 0 0 2 1 1 0 0 0 0-2zm0 4c-1.655 0-3-1.346-3-3 0-1.655 1.345-3 3-3 1.654 0 3 1.345 3 3 0 1.654-1.346 3-3 3zm-148-22a1 1 0 1 0 0 2 1 1 0 0 0 0-2zm0 4c-1.655 0-3-1.346-3-3 0-1.655 1.345-3 3-3 1.654 0 3 1.345 3 3 0 1.654-1.346 3-3 3z"/></g></svg>