<?xml version="1.0" encoding="utf-8"?><svg xmlns="http://www.w3.org/2000/svg" width="250" height="250" viewBox="0 0 250 250"><g fill="none" fill-rule="evenodd"><path fill="#5FE0ED" d="M124.903 60.25c-34.462 0-62.5 28.037-62.5 62.5s28.038 62.5 62.5 62.5c34.463 0 62.5-28.037 62.5-62.5s-28.037-62.5-62.5-62.5zm0 152c-49.35 0-89.5-40.149-89.5-89.5s40.15-89.5 89.5-89.5c49.351 0 89.5 40.149 89.5 89.5s-40.149 89.5-89.5 89.5z"/><path fill="#FFD15D" d="M175.9 71.031h-54.46l6.702-18.37c.549-1.557 2.066-2.63 3.758-2.63h40c2.206 0 4 1.794 4 4v17zm-2.75-23.535h-43.077a5.009 5.009 0 0 0-4.718 3.341l-.037.1-7.88 20.086H98.82l-27.164 18.59v107.391c0 2.757 2.243 5 5 5h96.494c2.757 0 5-2.243 5-5V52.496c0-2.757-2.243-5-5-5z"/><path fill="#48515A" d="M69.656 88.559v108.445c0 3.859 3.141 7 7 7h96.494c3.86 0 7-3.141 7-7V52.496c0-3.859-3.14-7-7-7h-43.077a7.01 7.01 0 0 0-6.604 4.678l-7.395 18.849H98.202L69.656 88.559zM173.15 206.004H76.656c-4.963 0-9-4.037-9-9v-109.5l29.927-20.481h17.128l6.884-17.546c1.253-3.564 4.665-5.981 8.478-5.981h43.077c4.963 0 9 4.037 9 9v144.508c0 4.963-4.037 9-9 9z"/><path fill="#48515A" d="M127.156 67.031H171.9v-13h-40l-.093.249-4.651 12.751zm46.744 2h-49.601l5.719-15.677a2 2 0 0 1 1.882-1.323h40c1.103 0 2 .898 2 2v15zM73.048 84.967l-3.376-4.897 19.646-13.547 3.406 4.941-1.647 1.135-2.27-3.294-16.354 11.277 2.241 3.25-1.646 1.135"/><path fill="#48515A" d="M73.667 78.756l-4.183-6.067 13.114-9.042 4.182 6.068-1.646 1.135-3.048-4.421-9.82 6.771 3.047 4.421-1.646 1.135M119.9 163.03h-11.997c-3.859 0-7-3.14-7-7v-34c0-3.859 3.141-7 7-7h11.83v2h-11.83c-2.757 0-5 2.243-5 5v34c0 2.757 2.243 5 5 5H119.9v2m22.003 0H129.9v-2h12.003c2.757 0 5-2.243 5-5v-34c0-2.757-2.243-5-5-5H129.9v-2h12.003c3.86 0 7 3.141 7 7v34c0 3.86-3.14 7-7 7M150.754 114.552l-1.707-1.043 22-36 1.707 1.043-22 36M171.076 196.598l-22-32.001 1.649-1.133 22 32.001-1.649 1.133M99.047 114.552L83.16 88.557l1.707-1.043 15.887 25.995-1.707 1.043M78.725 196.598l-1.649-1.133 22-32.001 1.649 1.133-22 32.001"/><path fill="#48515A" d="M124.884 117.351l-13.309 13.611a11.467 11.467 0 0 0-3.385 8.163c0 3.08 1.2 5.977 3.378 8.154l13.303 13.338 13.653-13.62c4.496-4.496 4.496-11.812-.002-16.309l-13.638-13.337zm-.017 46.094l-14.714-14.753a13.445 13.445 0 0 1-3.963-9.567c0-3.615 1.408-7.014 3.963-9.569l14.7-15.034 15.076 14.744c5.285 5.284 5.285 13.87.009 19.146l-15.071 15.033z"/><path fill="#FFF" d="M134.379 137.438l.017-2h-.017c-3.372 0-6.364 1.629-8.249 4.137v-18.209l11.002 10.759c3.693 3.693 3.692 9.742-.022 13.459l-10.98 10.952v-11.891c.553-4.063 4.036-7.207 8.249-7.207m-10.415 2.127c-1.885-2.511-4.878-4.142-8.252-4.142l-.016 2h.016c4.22 0 7.71 3.157 8.252 7.231v12.22l-10.978-11.005c-3.721-3.723-3.72-9.769-.004-13.486l10.982-11.23v18.412"/><path fill="#48515A" d="M34.946 160.805h2v-4h-2zM34.946 170.805h2v-4h-2zM38.946 164.805h4v-2h-4zM28.946 164.805h4v-2h-4zM213.054 180.816h2v-4h-2zM213.054 190.816h2v-4h-2zM217.054 184.816h4v-2h-4zM207.054 184.816h4v-2h-4zM82.976 40.732h2v-4h-2zM82.976 50.732h2v-4h-2zM86.976 44.732h4v-2h-4zM76.976 44.732h4v-2h-4z"/><path fill="#FFD15D" d="M194.903 144.75a2 2 0 1 1-3.999.001 2 2 0 0 1 3.999-.001m14-13a1 1 0 1 1-2 0 1 1 0 0 1 2 0m-14 49a2 2 0 1 1-3.999.001 2 2 0 0 1 3.999-.001m-138-72a2 2 0 1 1-3.999.001 2 2 0 0 1 3.999-.001m-14 76a2 2 0 1 1-3.999.001 2 2 0 0 1 3.999-.001m152-134a2 2 0 1 1-3.999.001 2 2 0 0 1 3.999-.001m-66 163a3 3 0 1 1-6 0 3 3 0 0 1 6 0"/></g></svg>