<?xml version="1.0" encoding="utf-8"?><svg xmlns="http://www.w3.org/2000/svg" width="250" height="250" viewBox="0 0 250 250"><g fill="none" fill-rule="evenodd"><path fill="#5FE0ED" d="M211.448 152.618l-35.357-14.505-.172.564c-2.935 8.697-11.161 14.96-20.849 14.96-9.828 0-18.15-6.444-20.973-15.337l-.02-.07-35.554 14.328c-5.1 1.946-8.459 3.615-8.459 8.976l-.106 49.883h130.084l.014-49.762c0-5.418-3.43-7.132-8.608-9.037"/><path fill="#DFE0E0" d="M170.069 135.893l.013-7.371v-6.741l.003-.257c-2.027 1.977-4.609 4.063-6.439 5.626-1.708 1.459-3.892 2.493-6.138 2.493h-6.489a8.607 8.607 0 0 1-5.669-2.107c-1.416-1.236-3.419-2.825-5.268-4.456v2.826l25.048 25.048c3.33-1.792 6.262-4.524 8.368-8.208l2.488-4.353-5.917-2.5"/><path fill="#F58E70" d="M77.541 158.78c-.342 1.37-1.131 8.698-2.068 18.299l4.596 10.564 4.712-10.995c-.952-9.388-1.745-16.519-2.083-17.868a1.717 1.717 0 0 0 1.719-1.718v-4.298l-4.369-5.161-4.226 5.161v4.298c0 .949.77 1.719 1.719 1.718"/><path fill="#DFE0E0" d="M69.075 137.359v3.23l10.936 6.283 11.026-6.099.038-5.911v-4.983c0-.418.796-.866 1.185-1.319-.133.117-.292.233-.401.351-1.554 1.671-3.927 3.55-5.523 4.913-1.263 1.078-2.874 1.818-4.535 1.818h-4.798c-1.66 0-3.257-.74-4.519-1.818-1.523-1.301-3.741-3.021-5.291-4.622-.047-.049-.101-.128-.151-.176.465.495 1.245.981 1.812 1.481-.013.006.221-.004.221.011v6.841"/><path fill="#48515A" d="M69.075 141.643a1 1 0 0 1-1-1v-9a1 1 0 0 1 2 0v9a1 1 0 0 1-1 1m22 0a1 1 0 0 1-1-1v-11.175l.271-.288c.902-.961 1.807-1.964 2.095-2.729l4.521-9.427 5.067-2.515 1.132-5.58a1.252 1.252 0 0 0-.358-.863 1.439 1.439 0 0 0-1.046-.423h-2.235l.229-1.189c.387-2.003.468-4.532.468-6.301v-.998a1 1 0 1 1 2 0v.998c0 1.528-.06 3.603-.312 5.493a3.409 3.409 0 0 1 2.33 1.026c.621.639.949 1.487.923 2.389l-.02.17-1.345 6.634-5.328 2.644-4.189 8.726c-.351.944-1.225 1.97-2.203 3.024v10.384a1 1 0 0 1-1 1"/><path fill="#48515A" d="M82.075 136.643h-5.072c-1.779 0-3.615-.731-5.169-2.058a93.54 93.54 0 0 0-1.384-1.15c-2.391-1.961-5.101-4.184-5.853-6.202l-4.126-8.748-4.581-2.661-1.917-6.769c0-1.834 1.408-3.287 3.248-3.404-.157-1.591-.152-3.342-.147-4.807l.001-1.045a1 1 0 0 1 2 0l-.001 1.051c-.005 1.756-.012 3.942.27 5.628l.194 1.165H57.46c-.803 0-1.42.545-1.482 1.288l1.61 5.566 4.426 2.572 4.425 9.388c.596 1.59 3.303 3.811 5.279 5.432.506.415.988.81 1.415 1.175 1.192 1.018 2.567 1.579 3.87 1.579h5.072a1 1 0 0 1 0 2M62.345 145.373l-1.752-.964 4.273-7.766h3.209v2h-2.026l-3.704 6.73M79.949 148.11l-11.851-6.636a1.001 1.001 0 0 1-.384-1.361c.27-.482.88-.652 1.362-.384l10.873 6.089 10.441-5.848a1 1 0 0 1 .977 1.745l-11.418 6.395M107.714 149.578l-10.019-3.811-4.435-7.124h-2.185v-2h3.297l4.665 7.494 9.388 3.572-.711 1.869"/><path fill="#48515A" d="M74.069 156.643a.998.998 0 0 1-.774-1.632l6.638-8.13 6.898 8.115a.999.999 0 1 1-1.523 1.294l-5.343-6.285-5.121 6.27a.994.994 0 0 1-.775.368m26-62.998a1 1 0 0 1-1-1v-6.75c0-4.55-3.7-8.25-8.249-8.25a1 1 0 0 1 0-2c5.651 0 10.249 4.597 10.249 10.25v6.75a1 1 0 0 1-1 1m-41.999 0a1 1 0 0 1-1-1v-6.75a10.178 10.178 0 0 1 3.001-7.249 10.182 10.182 0 0 1 7.248-3.001 1 1 0 1 1 0 2 8.192 8.192 0 0 0-5.833 2.416 8.19 8.19 0 0 0-2.416 5.834v6.75a1 1 0 0 1-1 1m32.888 117.774l-2-.004.106-49.883c0-5.975 3.773-7.876 9.102-9.908l40.917-16.491v-11.491h2v12.842l-42.187 17.001c-5.329 2.033-7.832 3.487-7.832 8.049l-.106 49.885"/><path fill="#48515A" d="M221.041 211.418l-2-.001.014-49.763c0-4.453-2.345-6.034-7.953-8.098l-42.035-17.243.015-14.866.179-.257c.407-.587.896-1.163 1.37-1.719.678-.797 1.379-1.622 1.614-2.249l6.034-12.655 6.903-3.511 1.576-7.935a2.655 2.655 0 0 0-.752-1.8c-.425-.437-.958-.678-1.501-.678h-2.573l.254-1.46c.501-2.88.896-5.155.896-7.62l-.061-1.356c.026-3.817-.851-7.755-2.536-11.386a28.126 28.126 0 0 0-.471-1 28.738 28.738 0 0 0-7.901-9.73c-5.002-3.943-11.016-6.049-17.395-6.093-7.388-.037-14.483 2.887-19.905 8.273-5.548 5.511-8.731 13.097-8.731 20.813v.479c0 2.347.202 4.644.697 7.931l.173 1.149h-2.375c-1.2 0-2.297 1.171-2.363 2.491l2.242 8.078 6.01 3.495 5.938 12.61c.832 2.223 4.556 5.282 7.275 7.515.67.55 1.306 1.074 1.873 1.558 1.701 1.452 3.641 2.253 5.464 2.253h6.066v2h-6.066c-2.298 0-4.7-.971-6.763-2.733-.558-.476-1.185-.991-1.844-1.533-3.215-2.641-6.858-5.634-7.847-8.284l-5.64-11.97-6.176-3.592-2.535-9.272c0-2.503 1.999-4.616 4.366-4.616h.058c-.39-2.801-.553-4.913-.553-7.08v-.479c0-8.245 3.397-16.349 9.322-22.232 5.802-5.764 13.385-8.912 21.327-8.854 6.828.046 13.267 2.302 18.621 6.523a30.72 30.72 0 0 1 8.953 11.469c1.783 3.844 2.723 8.026 2.717 12.095l.06.355v1.123c0 2.362-.345 4.588-.773 7.08h.196c1.088 0 2.13.456 2.935 1.284a4.621 4.621 0 0 1 1.317 3.327l-.02.167-1.784 8.978-7.162 3.643-5.707 11.962c-.324.875-1.105 1.792-1.93 2.763-.371.435-.752.883-1.072 1.315l-.013 12.89 40.758 16.72c5.213 1.918 9.228 3.879 9.228 9.963l-.014 49.763m-104.15-40.847c-1.103 0-2 .897-2 2s.897 2 2 2 2-.897 2-2-.897-2-2-2m0 6c-2.206 0-4-1.794-4-4s1.794-4 4-4 4 1.794 4 4-1.794 4-4 4M38.064 88.655h2v-4h-2zM38.064 98.655h2v-4h-2zM42.064 92.655h4v-2h-4zM32.064 92.655h4v-2h-4zM79.069 74.643c-5.514 0-10 4.486-10 10s4.486 10 10 10 10-4.486 10-10-4.486-10-10-10m0 22c-6.617 0-12-5.383-12-12s5.383-12 12-12 12 5.383 12 12-5.383 12-12 12"/><path fill="#48515A" d="M104.068 99.645H55.069v-8h16.002a1 1 0 1 1 0 2H57.069v4h44.999v-4H86.942a1 1 0 0 1 0-2h17.126v8"/><path fill="#475059" d="M59.755 187.231h-.228v-2h.228a4.535 4.535 0 0 0 4.53-4.53v-14.69c0-5.162-4.2-9.363-9.363-9.363-5.162 0-9.362 4.201-9.362 9.363v14.69a4.535 4.535 0 0 0 4.53 4.53l.1 2h-.1a6.538 6.538 0 0 1-6.53-6.53v-14.69c0-6.265 5.097-11.363 11.362-11.363 6.266 0 11.363 5.098 11.363 11.363v14.69c0 3.6-2.929 6.53-6.53 6.53"/><path fill="#475059" d="M54.075 155.669l-.013-9.642c-.004-3.178 2.485-5.767 5.548-5.771l3.83-.002.001 2-3.831.002c-1.957.003-3.551 1.693-3.547 3.769l.012 9.641-2 .003"/><path fill="#48515A" d="M94.263 155.523a1 1 0 0 1-.918-1.395l4.102-9.571a1 1 0 0 1 1.837.788l-4.102 9.572a1 1 0 0 1-.919.606m-14.187 34.642L60.552 145.29a1 1 0 0 1 1.834-.798l17.676 40.628 8.856-20.662a1 1 0 0 1 1.838.789l-10.68 24.918m74.994-35.528c-10.071 0-18.882-6.444-21.926-16.035a1 1 0 1 1 1.906-.605c2.78 8.757 10.825 14.64 20.02 14.64 9.021 0 17.02-5.739 19.902-14.28a1 1 0 1 1 1.895.64 22.985 22.985 0 0 1-21.797 15.64"/><path fill="#48515A" d="M30.933 212.42l-2-.004.106-49.883c0-5.974 3.772-7.875 9.102-9.908l23.35-9.411.748 1.855-23.368 9.418c-5.33 2.033-7.832 3.487-7.832 8.048l-.106 49.885M79.069 211.309h2v-23.667h-2z"/><path fill="#475059" d="M98.983 67.684h11.99V39.58h-11.99v28.104zm-2 2h15.99V37.58h-15.99v32.104z"/><path fill="#475059" d="M97.983 69.684h-8.996V45.575h8.996v2h-6.996v20.109h6.996v2M120.968 69.684h-8.995v-2h6.995V47.575h-6.995v-2h8.995v24.109"/><path fill="#475059" d="M92.985 51.575h2v-2h-2v2zm0 4h2v-2h-2v2zm0 4h2v-2h-2v2zm0 4h2v-2h-2v2zm21.983-12h2v-2h-2v2zm0 4h2v-2h-2v2zm0 4h2v-2h-2v2zm0 4h2v-2h-2v2zM101.101 59.767h7.933v-2h-7.933zM109.041 68.684h-2v-5h-4v5h-2v-7h8v7M104.04 50.685h2v-8h-2z"/><path fill="#475059" d="M101.04 47.685h8v-2h-8z"/><path fill="#48515A" d="M208.166 78.649h2v-4h-2zM208.166 88.649h2v-4h-2zM212.166 82.649h4v-2h-4zM202.166 82.649h4v-2h-4z"/><path fill="#F58E70" d="M110.053 132.644a1.667 1.667 0 1 1-3.334 0 1.667 1.667 0 0 1 3.334 0M59.68 69.068a1.833 1.833 0 1 1-3.666 0 1.833 1.833 0 0 1 3.666 0"/><path fill="#48515A" d="M198.065 62.643c-1.103 0-2 .897-2 2s.897 2 2 2 2-.897 2-2-.897-2-2-2m0 6c-2.206 0-4-1.794-4-4s1.794-4 4-4 4 1.794 4 4-1.794 4-4 4m-142-18c-1.103 0-2 .897-2 2s.897 2 2 2 2-.897 2-2-.897-2-2-2m0 6c-2.206 0-4-1.794-4-4s1.794-4 4-4 4 1.794 4 4-1.794 4-4 4"/><path fill="#475059" d="M200.951 123.845h-2c0-2.206-1.794-4-4-4s-4 1.794-4 4h-2c0-3.309 2.691-6 6-6s6 2.691 6 6"/><path fill="#475059" d="M210.951 123.845h-2c0-2.206-1.794-4-4-4s-4 1.794-4 4h-2c0-3.309 2.691-6 6-6s6 2.691 6 6"/><path fill="#475059" d="M220.951 123.845h-2c0-2.206-1.794-4-4-4s-4 1.794-4 4h-2c0-3.309 2.691-6 6-6s6 2.691 6 6"/><path fill="#475059" d="M188.951 122.845c0-8.823 7.178-16.001 16-16.001s16 7.178 16 16h-2c0-7.72-6.28-14-14-14s-14 6.28-14 14l-2 .001"/><path fill="#475059" d="M201.451 136.846a4.505 4.505 0 0 1-4.5-4.5h2c0 1.378 1.121 2.5 2.5 2.5s2.5-1.122 2.5-2.5v-13.5h2v13.5c0 2.481-2.019 4.5-4.5 4.5M203.951 107.845h2v-2.998h-2z"/></g></svg>