<?xml version="1.0" encoding="utf-8"?><svg xmlns="http://www.w3.org/2000/svg" width="250" height="250" viewBox="0 0 250 250"><g fill="none" fill-rule="evenodd"><path fill="#5FE0ED" d="M124.391 42.563c-21.098.389-37.783 18.319-37.783 39.68v52.019h25.436l-.068-6.785c-2.332-2.41-4.875-5.424-7.016-8.924-5.277-8.623-7.352-19.851-7.352-30.774v-.848h23.601l-.25-11.381c7.71 7.312 17.879 11.381 28.444 11.381h4.205v.848c0 10.968-2.543 22.1-7.878 30.712-3.525 5.69-8.402 10.178-11.437 12.791l4.334 2.98h24.981V81.616c0-21.813-17.577-39.451-39.217-39.053"/><path fill="#EAEAE9" d="M94.959 166.655h12.999l-4.124-6.073h-2.125l-6.75 6.073M154.208 166.655h-12.999l4.124-6.073h2.125l6.75 6.073M111.959 147.419l-8.002 13.16 19.002 27.33h2.018l-13.018-40.49"/><path fill="#EAEAE9" d="M138.568 137.679l8.391 8.731 8.018 19.225h-2l-4.998-5.056h-2l-8.003-13.16.592-9.74"/><path fill="#EAEAE9" d="M138.608 143.044v-14.578l-5.413 3.386a9.175 9.175 0 0 1-4.865 1.399h-6.034a9.182 9.182 0 0 1-5.904-2.155l-4.42-3.706.003 5.736 26.633 9.918"/><path fill="#48515A" d="M128.031 134.496h-6.198c-2.43 0-4.569-.783-6.356-2.328-3.255-2.815-7.87-7.371-11.37-13.093-6.197-10.128-7.498-22.609-7.498-31.295v-.849h2v.849c0 8.429 1.25 20.52 7.203 30.251 3.367 5.503 7.826 9.902 10.974 12.624 1.413 1.221 3.111 1.841 5.047 1.841h6.198c2.196 0 3.994-.586 5.344-1.74 1.885-1.615 7.624-6.527 11.505-12.791 4.984-8.046 7.729-18.766 7.729-30.185v-.849h2v.849c0 11.786-2.852 22.88-8.028 31.238-4.045 6.528-9.961 11.593-11.906 13.257-1.721 1.474-3.958 2.221-6.644 2.221"/><path fill="#48515A" d="M110.958 138.185h2v-10.756h-2zM136.958 138.818h2v-10.629h-2zM186.886 207.443h-2v-1.031l-4.252-31.695c-1.236-9.327-7.383-17.228-16.042-20.621l-17.985-6.75.703-1.872 17.999 6.755c9.35 3.663 15.976 12.177 17.308 22.224l4.269 31.892v1.098m-121.772 0h-2l.009-1.23 4.261-31.761c1.332-10.046 7.959-18.56 17.294-22.218l17.928-6.76.705 1.871-17.915 6.756c-8.647 3.387-14.793 11.289-16.029 20.615l-4.253 31.696v1.031"/><path fill="#48515A" d="M123.481 186.909h.106l-12.628-39.333v-7.842l-7.152 7.24-7.35 17.661h.083l5-5.056h2.94l19.001 27.33zm2.849 2h-3.894l-19.001-27.33h-1.06l-4.998 5.056H93.46l8.65-20.789 10.849-10.983v12.399l13.371 41.647z"/><path fill="#48515A" d="M126.348 186.909h.107l19.002-27.33h2.94l4.998 5.056h.081l-7.366-17.661-7.134-7.236-.048 7.987-12.58 39.184zm1.152 2h-3.894l13.37-41.647V134.86l10.831 10.986.074.179 8.597 20.61h-3.919l-4.998-5.056h-1.06l-19.001 27.33z"/></g></svg>