<?xml version="1.0" encoding="utf-8"?><svg xmlns="http://www.w3.org/2000/svg" width="250" height="250" viewBox="0 0 250 250"><g fill="none" fill-rule="evenodd"><path fill="#FACD60" d="M211.127 158.06a3 3 0 1 1-6 0 3 3 0 0 1 6 0"/><path fill="#434A4F" d="M181.37 90.256l3.852 1.251.716-2.203c.652-2.008 2.437-3.305 4.547-3.306h.001c2.11 0 3.895 1.296 4.547 3.303l.717 2.202 3.851-1.252-.716-2.203c-.653-2.007.029-4.106 1.736-5.347 1.707-1.241 3.914-1.241 5.621-.001l1.874 1.361 2.38-3.279-1.875-1.361c-1.707-1.239-2.39-3.338-1.738-5.345.651-2.007 2.436-3.305 4.546-3.305l2.317-.001-.002-4.05h-2.317c-2.11 0-3.895-1.296-4.547-3.303-.654-2.006.028-4.105 1.735-5.346l1.873-1.362-2.323-3.194-1.873 1.361c-1.706 1.242-3.914 1.243-5.62.003-1.708-1.239-2.392-3.338-1.741-5.345l.715-2.203-3.852-1.25-.715 2.203c-.652 2.007-2.436 3.304-4.546 3.305h-.003c-2.109 0-3.894-1.296-4.547-3.301l-.716-2.203-3.852 1.253.717 2.203c.653 2.006-.029 4.105-1.735 5.346-1.708 1.241-3.912 1.242-5.622.002l-1.874-1.36-2.38 3.278 1.874 1.36c1.708 1.24 2.392 3.338 1.74 5.346-.651 2.007-2.435 3.305-4.545 3.306h-2.318l.003 4.051 2.316-.001h.002c2.109 0 3.893 1.296 4.546 3.302.654 2.007-.028 4.106-1.735 5.347l-1.873 1.362 2.321 3.192 1.873-1.362c1.707-1.242 3.914-1.241 5.621-.002 1.708 1.241 2.391 3.339 1.739 5.346l-.715 2.202zm5.138 3.77l-7.658-2.485 1.332-4.105c.46-1.417-.22-2.535-1.01-3.109-.79-.574-2.066-.876-3.271.001l-3.49 2.538-4.673-6.428 3.49-2.537c1.205-.877 1.312-2.182 1.009-3.111-.302-.929-1.155-1.921-2.644-1.921h-.002l-4.316.002-.003-8.051 4.317-.001c1.489-.001 2.342-.994 2.644-1.924.301-.929.194-2.234-1.013-3.109l-3.492-2.535 4.73-6.515 3.492 2.535c1.206.875 2.48.573 3.27-.001.79-.575 1.47-1.694 1.009-3.11l-1.334-4.105 7.656-2.491 1.334 4.105c.461 1.416 1.668 1.92 2.646 1.92h.001c.977 0 2.185-.506 2.645-1.922l1.332-4.106 7.657 2.484-1.332 4.106c-.46 1.417.221 2.535 1.012 3.109.789.574 2.064.875 3.27-.001l3.49-2.538 4.675 6.43-3.49 2.538c-1.205.876-1.312 2.181-1.01 3.11.303.929 1.156 1.921 2.646 1.921l4.317-.001.002 8.05-4.317.002c-1.489 0-2.342.994-2.644 1.923-.302.929-.194 2.234 1.012 3.109l3.492 2.536-4.73 6.514-3.493-2.535c-1.204-.875-2.478-.573-3.269.001-.79.575-1.471 1.693-1.01 3.111l1.336 4.104-7.656 2.49-1.336-4.104c-.46-1.417-1.668-1.921-2.645-1.921h-.001c-.976 0-2.184.505-2.644 1.922l-1.333 4.105z"/><path fill="#42494E" d="M181.167 75.651c-3.758-5.168-2.612-12.43 2.557-16.188 5.167-3.758 12.43-2.611 16.188 2.557l-1.617 1.176c-3.11-4.277-9.118-5.224-13.395-2.116a9.533 9.533 0 0 0-3.832 6.259 9.528 9.528 0 0 0 1.716 7.135l-1.617 1.177"/><path fill="#E9886C" d="M190.513 65.295a3.495 3.495 0 0 0-2.838 1.446 3.476 3.476 0 0 0-.623 2.605 3.503 3.503 0 0 0 6.292 1.502 3.484 3.484 0 0 0 .622-2.606 3.484 3.484 0 0 0-1.404-2.282 3.478 3.478 0 0 0-2.049-.665zm-.017 10.001a6.447 6.447 0 0 1-3.8-1.238 6.457 6.457 0 0 1-2.605-4.238 6.45 6.45 0 0 1 1.154-4.839 6.45 6.45 0 0 1 4.238-2.605 6.455 6.455 0 0 1 4.839 1.154c2.902 2.103 3.554 6.175 1.451 9.077a6.452 6.452 0 0 1-4.238 2.606 6.635 6.635 0 0 1-1.039.083z"/><path fill="#434A4F" d="M190.304 54.761c.031-.551.5-.971 1.061-.95v.01c.55.03.97.5.939 1.05-.029.55-.509.97-1.059.94a.997.997 0 0 1-.941-1.05zm-3.939.62a.995.995 0 1 1 1.939-.45.992.992 0 0 1-.75 1.2.82.82 0 0 1-.219.03c-.46 0-.87-.31-.97-.78zm8.51 1.159a.996.996 0 0 1-.611-1.269c.191-.521.761-.8 1.281-.61.52.19.79.76.61 1.28a.998.998 0 0 1-1.28.599zm-12.13.551a1 1 0 0 1 1.74-.98.984.984 0 0 1-.38 1.36h.01a1.01 1.01 0 0 1-1.37-.38zm15.39 1.17v.01a.995.995 0 0 1-.22-1.4c.32-.45.95-.55 1.389-.22.451.32.551.95.231 1.389-.2.271-.5.42-.811.42a.995.995 0 0 1-.589-.199zm-18.371 1.5a1.018 1.018 0 0 1-.019-1.42.996.996 0 0 1 1.41-.02.995.995 0 0 1 .029 1.409.98.98 0 0 1-.719.31c-.25 0-.5-.099-.701-.279zm21.031 1.08a.992.992 0 0 1 .179-1.4.993.993 0 0 1 1.401.18c.34.43.26 1.06-.18 1.399a.98.98 0 0 1-.61.21c-.3 0-.59-.139-.79-.389zm-23.14 2.31a.998.998 0 0 1-.42-1.35 1 1 0 1 1 1.77.929c-.18.341-.531.531-.89.531a.981.981 0 0 1-.46-.11zm24.96.909c-.2-.509.06-1.089.569-1.29.511-.199 1.101.051 1.29.561h.011a1.01 1.01 0 0 1-.94 1.37 1 1 0 0 1-.93-.641zm-26.03 2.941c-.54-.11-.89-.64-.781-1.18a.989.989 0 0 1 1.17-.781c.54.111.901.631.79 1.181a1.012 1.012 0 0 1-1.179.78zm26.87.67c-.05-.55.36-1.04.91-1.09.55-.041 1.04.36 1.09.91.04.549-.361 1.04-.91 1.09h-.09a1 1 0 0 1-1-.91zm-27.89 2.41a.998.998 0 1 1 1.989-.17.991.991 0 0 1-.909 1.08c-.03.01-.06.01-.091.01a1 1 0 0 1-.989-.92zm28.47 2.459a1 1 0 0 1-.78-1.179c.11-.54.63-.89 1.17-.78.549.11.9.64.79 1.18-.1.469-.51.8-.98.8-.07 0-.13-.01-.2-.021zm-27.5 1.701a.996.996 0 1 1 1.86-.72 1.002 1.002 0 0 1-.93 1.36c-.4 0-.781-.24-.93-.64zm25.899 1.96a.998.998 0 0 1-.42-1.35.995.995 0 0 1 1.351-.42c.49.26.67.859.42 1.35-.18.34-.53.53-.89.53-.16 0-.31-.03-.461-.11zm-23.799 1.759a.99.99 0 0 1 .18-1.399.993.993 0 0 1 1.4.18.994.994 0 0 1-.18 1.4c-.18.14-.4.21-.61.21-.3 0-.6-.13-.79-.391zm21.23 1.301a.996.996 0 0 1-.03-1.41c.389-.4 1.02-.41 1.42-.03a.999.999 0 0 1-.701 1.719c-.25 0-.5-.089-.689-.279zm-18.17 1.67a.997.997 0 1 1 1.18-1.61v-.01c.44.33.54.95.219 1.399a.999.999 0 0 1-.809.411c-.2 0-.41-.06-.59-.19zm14.84.54a.998.998 0 1 1 1.36.38.946.946 0 0 1-.49.129.982.982 0 0 1-.87-.509zm-11.061 1.46a1.01 1.01 0 0 1-.609-1.28c.189-.52.76-.79 1.28-.611.52.19.789.761.61 1.281-.15.409-.531.67-.951.67a.969.969 0 0 1-.33-.06zm7.241-.28c-.121-.53.21-1.07.75-1.2.54-.12 1.07.21 1.2.75.12.54-.21 1.07-.75 1.2a.865.865 0 0 1-.231.03 1.01 1.01 0 0 1-.969-.78zm-3.05 1.119a1.002 1.002 0 0 1-.95-1.049c.04-.56.509-.98 1.06-.95.55.03.97.499.94 1.06a.998.998 0 0 1-1 .939h-.05zM213.053 125.174h2v-4h-2zM213.053 135.174h2v-4h-2zM217.053 129.174h4v-2h-4zM207.053 129.174h4v-2h-4z"/><path fill="#42494E" d="M47.278 152.829c-5.923 0-10.741 4.818-10.741 10.741s4.818 10.741 10.741 10.741 10.741-4.818 10.741-10.741-4.818-10.741-10.741-10.741zm0 23.482c-7.025 0-12.741-5.716-12.741-12.741 0-7.026 5.716-12.741 12.741-12.741 7.026 0 12.741 5.715 12.741 12.741 0 7.025-5.715 12.741-12.741 12.741z"/><path fill="#42494E" d="M47.277 152.829c-2.885 0-5.322 4.919-5.322 10.741 0 2.973.615 5.753 1.732 7.828.996 1.852 2.305 2.913 3.59 2.913 2.884 0 5.322-4.919 5.322-10.741s-2.438-10.741-5.322-10.741zm0 23.482c-2.074 0-3.975-1.408-5.352-3.965-1.271-2.361-1.971-5.477-1.97-8.776 0-7.145 3.216-12.741 7.322-12.741s7.322 5.596 7.322 12.741c0 7.144-3.216 12.741-7.322 12.741z"/><path fill="#42494E" d="M35.537 164.57h23.482v-2H35.537z"/><path fill="#FACD60" d="M53.109 188.109a3 3 0 1 1-6 0 3 3 0 0 1 6 0"/><path fill="#E9886C" d="M43.181 118.87a2 2 0 1 1-3.999.001 2 2 0 0 1 3.999-.001"/><path fill="#42494E" d="M109.052 198.994c-1.654 0-3 1.346-3 3s1.346 3 3 3h100.549l6.507-3-6.507-3H109.052zm100.989 8H109.052c-2.756 0-5-2.243-5-5s2.244-5 5-5h100.989l10.843 5-10.843 5z"/><path fill="#42494E" d="M114.662 205.994h2v-7.598h-2z"/><path fill="#42494E" d="M115.662 202.965h93.39v-2h-93.39z"/><path fill="#434A4F" d="M34.946 85.15h2v-4h-2zM34.946 95.15h2v-4h-2zM38.946 89.15h4v-2h-4zM28.946 89.15h4v-2h-4zM183.144 188.061H76.03v-18.012a1 1 0 0 1 2 0v16.012h103.114v-18.942a1 1 0 1 1 2 0v20.942m-7.18-36.152a1 1 0 0 1-.929-.629l-12.11-30.276-12.359 30.014a1 1 0 0 1-1.849-.762l13.296-32.292c.155-.374.52-.619.925-.619h.005a1 1 0 0 1 .924.629l13.025 32.563a1 1 0 0 1-.928 1.372"/><path fill="#434A4F" d="M171.719 142.142h-17.502a1 1 0 1 1 0-2h17.502a1 1 0 1 1 0 2"/><path fill="#434A4F" d="M162.965 105.909c-15.991 0-29 13.009-29 29 0 15.99 13.009 29 29 29 15.99 0 29-13.01 29-29 0-15.991-13.01-29-29-29zm0 60c-17.094 0-31-13.907-31-31 0-17.094 13.906-31 31-31 17.093 0 31 13.906 31 31 0 17.093-13.907 31-31 31z"/><path fill="#434A4F" d="M162.965 109.909c-13.786 0-25 11.215-25 25s11.214 25 25 25c13.785 0 25-11.215 25-25s-11.215-25-25-25zm0 52c-14.888 0-27-12.113-27-27 0-14.888 12.112-27 27-27 14.887 0 27 12.112 27 27 0 14.887-12.113 27-27 27z"/><path fill="#434A4F" d="M141.965 134.909h-2c0-12.682 10.317-23 23-23v2c-11.58 0-21 9.42-21 21m24-20.998c-.26 0-.52-.11-.71-.29-.04-.05-.09-.1-.12-.161a.52.52 0 0 1-.09-.169.586.586 0 0 1-.06-.19c-.02-.06-.02-.13-.02-.19 0-.13.02-.26.08-.38a.92.92 0 0 1 .21-.33c.37-.37 1.04-.37 1.42 0 .089.09.16.2.21.33.049.12.08.25.08.38 0 .06-.01.13-.02.19a.64.64 0 0 1-.06.19.54.54 0 0 1-.09.169c-.04.061-.08.111-.12.161-.19.18-.451.29-.71.29m-25 25c-.07 0-.13-.01-.201-.02a.64.64 0 0 1-.179-.06.757.757 0 0 1-.18-.09l-.15-.12c-.18-.19-.29-.45-.29-.71 0-.26.11-.52.29-.71.049-.04.1-.09.15-.12.06-.04.12-.07.18-.09a.61.61 0 0 1 .179-.06.86.86 0 0 1 .391 0c.069.01.13.029.189.06.061.02.121.05.17.09.061.03.111.08.161.12.18.19.29.44.29.71 0 .26-.11.52-.29.71-.05.04-.1.08-.161.12a.534.534 0 0 1-.17.09.597.597 0 0 1-.189.06c-.061.01-.13.02-.19.02M190.508 163.866l-7.042-7.042 1.414-1.414 7.042 7.042-1.414 1.414"/><path fill="#434A4F" d="M190.43 165.219l23.3 23.3c.756.754 2.072.754 2.828 0 .378-.378.586-.881.586-1.415s-.208-1.036-.586-1.414l-23.299-23.3-2.829 2.829zm24.714 25.885a3.976 3.976 0 0 1-2.828-1.171l-24.714-24.714 5.657-5.657 24.713 24.714a3.971 3.971 0 0 1 1.172 2.828 3.975 3.975 0 0 1-1.172 2.829 3.97 3.97 0 0 1-2.828 1.171z"/><path fill="#434A4F" d="M211.607 187.813l-1.414-1.414 4.244-4.245 1.414 1.414-4.244 4.245M192.541 168.747l-1.414-1.414 4.244-4.245 1.414 1.414-4.244 4.245M92.144 127.909h20v-2h-20zM92.144 131.909h20v-2h-20zM92.144 135.909h20v-2h-20zM92.144 139.909h20v-2h-20zM92.144 143.909h20v-2h-20zM92.144 147.909h20v-2h-20zM92.144 151.909h20v-2h-20zM92.144 155.909h20v-2h-20zM120.144 127.909h14v-2h-14zM120.144 131.909h13.001v-2h-13.001zM120.144 135.909h13.001v-2h-13.001zM120.144 139.909h12.996v-2h-12.996zM120.144 143.909h13.996v-2h-13.996zM120.144 147.909h14.997v-2h-14.997zM120.144 151.909h16.998v-2h-16.998zM120.144 155.909h20v-2h-20zM183.144 137.909h2v-6h-2zM184.145 141.911c-.07 0-.131-.01-.2-.02a.652.652 0 0 1-.181-.06.77.77 0 0 1-.179-.09l-.151-.12c-.09-.1-.159-.21-.219-.33a.986.986 0 0 1-.07-.38c0-.13.02-.26.07-.38.06-.13.129-.24.219-.33a.825.825 0 0 1 .151-.12c.06-.04.12-.07.179-.101a1.25 1.25 0 0 1 .181-.049c.2-.04.399-.02.58.049.12.061.23.131.33.221.18.19.29.44.29.71 0 .13-.03.26-.08.38-.051.12-.12.23-.21.33-.19.18-.45.29-.71.29m0-12.01c-.07 0-.131 0-.2-.02a.652.652 0 0 1-.181-.06.738.738 0 0 1-.179-.091c-.05-.029-.1-.079-.151-.119-.09-.09-.159-.2-.219-.33a.986.986 0 0 1-.07-.38c0-.26.11-.52.289-.71l.151-.12c.06-.04.12-.071.179-.091a.683.683 0 0 1 .181-.059c.319-.06.67.039.91.27l.119.15c.04.06.071.119.091.18.029.06.05.12.06.189.01.061.02.131.02.191 0 .26-.11.52-.29.71-.19.18-.45.29-.71.29m-2 34.02c-.07 0-.131-.01-.2-.02a.652.652 0 0 1-.181-.06.594.594 0 0 1-.179-.091c-.05-.029-.1-.079-.151-.119a.993.993 0 0 1-.289-.71c0-.26.1-.52.289-.711.37-.369 1.04-.369 1.41 0 .191.191.301.451.301.711 0 .26-.11.52-.301.71-.179.18-.439.29-.699.29M150.144 171.909h20v-2h-20zM150.144 175.909h12v-2h-12z"/><path fill="#FACD60" d="M135.623 44.006v23.842h23.843"/><path fill="#434A4F" d="M77.03 170.801a1 1 0 0 1-1-1v-49.502c0-2.481-2.019-4.5-4.5-4.5a4.505 4.505 0 0 0-4.499 4.5V137.3a6.507 6.507 0 0 1-6.501 6.499h-.896a6.506 6.506 0 0 1-6.499-6.499V43.006h17.69a1 1 0 0 1 0 2h-15.69V137.3a4.504 4.504 0 0 0 4.499 4.499h.896a4.505 4.505 0 0 0 4.501-4.499v-17.001c0-3.584 2.915-6.5 6.499-6.5 3.584 0 6.5 2.916 6.5 6.5v49.502a1 1 0 0 1-1 1m82.436-66.687a1 1 0 0 1-1-1V68.263l-23.257-23.257H80.344a1 1 0 0 1 0-2h55.693l24.429 24.429v35.679a1 1 0 0 1-1 1M75.575 45c-.13 0-.26-.02-.38-.069-.12-.05-.23-.13-.33-.221-.18-.179-.29-.44-.29-.71 0-.259.11-.52.29-.699.1-.091.21-.17.33-.22.37-.15.81-.061 1.09.22.18.179.29.44.29.699 0 .27-.11.531-.29.71-.19.191-.45.29-.71.29"/><path fill="#434A4F" d="M69.466 79.909h20v-2h-20zM69.466 83.909h20v-2h-20zM69.466 87.909h20v-2h-20zM69.466 91.909h20v-2h-20zM69.466 95.909h20v-2h-20zM69.466 99.909h20v-2h-20zM69.466 103.909h20v-2h-20zM69.466 107.909h20v-2h-20zM97.466 79.909h20v-2h-20zM97.466 83.909h20v-2h-20zM97.466 87.909h20v-2h-20zM97.466 91.909h20v-2h-20zM97.466 95.909h20v-2h-20zM97.466 99.909h20v-2h-20zM97.466 103.909h20v-2h-20zM97.466 107.909h20v-2h-20zM125.466 79.909h20v-2h-20zM125.466 83.909h20v-2h-20zM125.466 87.909h20v-2h-20zM125.466 91.909h20v-2h-20zM125.466 95.909h20v-2h-20zM125.466 99.909h20v-2h-20zM69.466 63.909h34v-2h-34zM69.466 67.909h20v-2h-20zM134.03 115.799h-62.5a1 1 0 1 1 0-2h62.5a1 1 0 1 1 0 2m-57.333 28H60.53a1 1 0 1 1 0-2h16.167a1 1 0 0 1 0 2"/><path fill="#75C7D0" d="M48.184 65.838a2 2 0 1 1-3.999.001 2 2 0 0 1 3.999-.001"/><path fill="#FACD60" d="M68.655 139.799h5.361l.014-1.122v-18.378c0-1.378-1.122-2.5-2.5-2.5a2.503 2.503 0 0 0-2.5 2.5V137.3c0 .869-.131 1.709-.375 2.499"/></g></svg>