<?xml version="1.0" encoding="utf-8"?><svg xmlns="http://www.w3.org/2000/svg" width="250" height="250" viewBox="0 0 250 250"><g fill="none" fill-rule="evenodd"><path fill="#434A4F" d="M95.024 172.05h54.774v-13.692c0-7.691 3.259-15.01 9.176-20.608a53.18 53.18 0 0 0 16.602-40.314c-.881-27.344-22.951-49.905-50.246-51.362-14.777-.788-28.809 4.362-39.51 14.506-10.706 10.149-16.603 23.861-16.603 38.609 0 14.586 5.815 28.193 16.373 38.315 6.083 5.832 9.434 13.489 9.434 21.559v12.987zm56.774 2H93.024v-14.987c0-7.52-3.132-14.664-8.818-20.115-10.955-10.503-16.989-24.623-16.989-39.759 0-15.302 6.118-29.529 17.227-40.061 11.102-10.524 25.66-15.871 40.993-15.051 28.322 1.512 51.224 24.922 52.138 53.295a55.184 55.184 0 0 1-17.227 41.832c-5.514 5.215-8.55 12.018-8.55 19.154v15.692z"/><path fill="#FACD60" d="M112.604 201.996h18c8.284 0 15-6.716 15-15v-3h-48v3c0 8.284 6.716 15 15 15"/><path fill="#FACD60" d="M98.104 184.496v2.5c0 7.995 6.505 14.5 14.5 14.5h18c7.995 0 14.5-6.505 14.5-14.5v-2.5h-47zm32.5 18h-18c-8.547 0-15.5-6.953-15.5-15.5v-3.5h49v3.5c0 8.547-6.953 15.5-15.5 15.5z"/><path fill="#E9886C" d="M190.396 140.062c-12.683 0-23 10.318-23 23s10.317 23 23 23c12.682 0 23-10.318 23-23s-10.318-23-23-23zm0 48c-13.786 0-25-11.215-25-25s11.214-25 25-25c13.785 0 25 11.215 25 25s-11.215 25-25 25z"/><path fill="#434A4F" d="M173.997 164.062h-3.556a1 1 0 0 1 0-2h3.556a1 1 0 0 1 0 2"/><path fill="#434A4F" d="M173.997 164.062h-3.556a1 1 0 0 1 0-2h3.556a1 1 0 0 1 0 2m6.282 17.484a1 1 0 0 1-.865-1.5l1.778-3.079a1 1 0 1 1 1.732 1l-1.778 3.079a.998.998 0 0 1-.867.5m-4.02-25.928a.992.992 0 0 1-.499-.134l-3.079-1.778a1 1 0 1 1 1-1.732l3.079 1.777a1.002 1.002 0 0 1-.501 1.867m-3.41 18.253a1 1 0 0 1-.501-1.866l3.079-1.778a1 1 0 1 1 1 1.732l-3.079 1.778a.992.992 0 0 1-.499.134m9.483-24.465c-.346 0-.682-.179-.868-.5l-1.777-3.079a1 1 0 1 1 1.732-1l1.778 3.079a1 1 0 0 1-.865 1.5M191.442 175.195h-2v-12.022h-7.889v-2h9.889v14.022M190.398 147.173a1 1 0 0 1-1-1v-3.555a1 1 0 1 1 2 0v3.555a1 1 0 0 1-1 1m-.001 37.334a1 1 0 0 1-1-1v-3.556a1 1 0 0 1 2 0v3.556a1 1 0 0 1-1 1m20.001-20.445h-3.555a1 1 0 0 1 0-2h3.555a1 1 0 1 1 0 2"/><path fill="#434A4F" d="M190.398 147.173a1 1 0 0 1-1-1v-3.555a1 1 0 1 1 2 0v3.555a1 1 0 0 1-1 1m-.001 37.334a1 1 0 0 1-1-1v-3.556a1 1 0 0 1 2 0v3.556a1 1 0 0 1-1 1m20.001-20.445h-3.555a1 1 0 0 1 0-2h3.555a1 1 0 1 1 0 2m-9.837 17.484a.998.998 0 0 1-.867-.5l-1.778-3.079a1 1 0 0 1 1.732-1l1.778 3.079a1 1 0 0 1-.865 1.5m4.02-25.928a1 1 0 0 1-.501-1.867l3.079-1.777a1 1 0 1 1 1 1.732l-3.079 1.778a.995.995 0 0 1-.499.134m3.41 18.253a.992.992 0 0 1-.499-.134l-3.079-1.778a1 1 0 1 1 1-1.732l3.079 1.778a1 1 0 0 1-.501 1.866m-9.483-24.465a1 1 0 0 1-.865-1.5l1.778-3.079a1 1 0 1 1 1.732 1l-1.778 3.079a.998.998 0 0 1-.867.5"/><path fill="#DBDBD5" d="M94.217 180.996h56v-8h-56z"/><path fill="#DBDBD5" d="M95.217 179.996h54v-6h-54v6zm-2 2h58v-10h-58v10z"/><path fill="#434A4F" d="M90.217 174.05h64v-2h-64zM131.387 205.996l-21.284-.007c-4.073-.469-7.992-2.404-11.036-5.447a18.503 18.503 0 0 1-5.454-13.168v-6.324h2v6.324c0 4.44 1.729 8.614 4.868 11.753 2.712 2.712 6.188 4.439 9.795 4.869h21.111c4.44 0 8.613-1.729 11.753-4.869a16.511 16.511 0 0 0 4.869-11.753v-6.324h2v6.324a18.5 18.5 0 0 1-5.455 13.168 18.499 18.499 0 0 1-13.167 5.454M90.217 178.05h64v-2h-64z"/><path fill="#434A4F" d="M90.217 182.05h64v-2h-64z"/><path fill="#75C7D0" d="M186.604 50.996a4 4 0 1 0 8 0 4 4 0 0 0-8 0"/><path fill="#434A4F" d="M185.604 195.996c-2.205 0-4 1.794-4 4 0 2.205 1.795 4 4 4 2.206 0 4-1.795 4-4 0-2.206-1.794-4-4-4zm0 10c-3.308 0-6-2.692-6-6 0-3.309 2.692-6 6-6 3.309 0 6 2.691 6 6 0 3.308-2.691 6-6 6z"/><path fill="#FACD60" d="M154.604 210.996a4 4 0 1 1 8 0 4 4 0 0 1-8 0"/><path fill="#434A4F" d="M70.604 32.996h2v-4h-2zM70.604 42.996h2v-4h-2zM64.604 36.996h4v-2h-4zM74.604 36.996h4v-2h-4zM40.604 152.246h2v-4h-2zM40.604 162.246h2v-4h-2zM34.604 156.246h4v-2h-4zM44.604 156.246h4v-2h-4zM196.604 120.996h2v-4h-2zM196.604 130.996h2v-4h-2zM190.604 124.996h4v-2h-4zM200.604 124.996h4v-2h-4zM207.604 89.996c-1.103 0-2 .897-2 2s.897 2 2 2c1.104 0 2-.897 2-2s-.896-2-2-2zm0 6c-2.205 0-4-1.795-4-4 0-2.206 1.795-4 4-4 2.206 0 4 1.794 4 4 0 2.205-1.794 4-4 4z"/><path fill="#42494E" d="M62.604 189.998c-1.654 0-3 1.346-3 3s1.346 3 3 3h45.16l6.506-3-6.506-3h-45.16zm45.598 8H62.604c-2.756 0-5-2.243-5-5s2.244-5 5-5h45.598l10.844 5-10.844 5z"/><path fill="#42494E" d="M68.214 196.998h2V189.4h-2z"/><path fill="#42494E" d="M69.214 193.969h38v-2h-38z"/><path fill="#434A4F" d="M90.604 210.996h2v-4h-2zM90.604 220.996h2v-4h-2zM84.604 214.996h4v-2h-4zM94.604 214.996h4v-2h-4z"/><path fill="#75C7D0" d="M38.604 86.996a4 4 0 1 0 8 0 4 4 0 0 0-8 0"/><path fill="#434A4F" d="M123.398 212.991h2v-7.995h-2zM117.398 212.991h2v-7.995h-2zM124.398 217.002a1 1 0 0 1-1-1c0-.552.448-1.004 1-1.004s1 .442 1 .995v.009a1 1 0 0 1-1 1m-6 0a1 1 0 0 1-1-1c0-.552.448-1.004 1-1.004s1 .442 1 .995v.009a1 1 0 0 1-1 1m6 4.002a1 1 0 0 1-1-1c0-.552.448-1.004 1-1.004s1 .443 1 .995v.009a1 1 0 0 1-1 1m-6 0a1 1 0 0 1-1-1c0-.552.448-1.004 1-1.004s1 .443 1 .995v.009a1 1 0 0 1-1 1"/><path fill="#42494E" d="M134.815 104.148l-.92-2.82 3.073-1.002c.787-.257 1.067-.928 1.066-1.471 0-.542-.282-1.213-1.069-1.468l-3.074-.996 1.87-5.777 3.075.996c.787.253 1.409-.124 1.727-.564.319-.439.486-1.147-.001-1.816l-1.903-2.613 4.91-3.574 1.902 2.613c.487.67 1.213.73 1.728.559.516-.168 1.067-.643 1.067-1.47l-.004-3.232 6.073-.006.003 3.232c.001.827.553 1.301 1.069 1.468.515.167 1.241.109 1.727-.562l1.898-2.617 4.916 3.564-1.897 2.617c-.486.67-.318 1.378.002 1.816.32.439.943.815 1.728.56l3.073-1.002.919 2.821-1.901.62-.3-.919-1.172.381a3.491 3.491 0 0 1-3.964-1.283 3.492 3.492 0 0 1-.004-4.168l.723-.997-1.678-1.217-.724.997a3.496 3.496 0 0 1-3.962 1.292 3.49 3.49 0 0 1-2.453-3.369l-.001-1.232-2.073.002.002 1.232a3.493 3.493 0 0 1-2.447 3.374 3.493 3.493 0 0 1-3.965-1.284l-.726-.996-1.675 1.22.726.996a3.494 3.494 0 0 1 .004 4.168 3.494 3.494 0 0 1-3.963 1.291l-1.172-.379-.639 1.972 1.172.379a3.492 3.492 0 0 1 2.453 3.37 3.492 3.492 0 0 1-2.446 3.374l-1.171.381.299.919-1.901.62"/><path fill="#42494E" d="M143.589 101.361a8.07 8.07 0 0 1 .482-6.201 8.07 8.07 0 0 1 4.725-4.044c4.26-1.39 8.857.947 10.246 5.207l-1.901.62a6.134 6.134 0 0 0-7.724-3.926 6.081 6.081 0 0 0-3.563 3.049 6.086 6.086 0 0 0-.364 4.675l-1.901.62"/><path fill="#42494E" d="M151.286 106.908a8.097 8.097 0 0 1-3.674-.886 8.074 8.074 0 0 1-4.045-4.726l1.902-.62a6.084 6.084 0 0 0 3.049 3.563 6.095 6.095 0 0 0 4.675.363 6.081 6.081 0 0 0 3.563-3.049c.742-1.459.87-3.12.363-4.676l1.902-.62a8.082 8.082 0 0 1-.482 6.202 8.07 8.07 0 0 1-4.726 4.044 8.123 8.123 0 0 1-2.527.405"/><path fill="#42494E" d="M148.276 116.112l-.004-3.232c-.001-.827-.552-1.3-1.069-1.468-.515-.166-1.241-.106-1.727.563l-1.897 2.617-4.916-3.564 1.897-2.617c.485-.67.317-1.377-.002-1.816-.32-.439-.943-.815-1.729-.56l-3.072 1.002-1.077-3.302 1.902-.62.456 1.401 1.171-.382a3.493 3.493 0 0 1 3.965 1.283 3.492 3.492 0 0 1 .005 4.168l-.723.998 1.678 1.216.723-.998a3.493 3.493 0 0 1 3.962-1.292 3.492 3.492 0 0 1 2.453 3.369l.002 1.232 2.073-.002-.002-1.232a3.494 3.494 0 0 1 2.447-3.374c1.49-.484 3.044.019 3.965 1.284l.725.996 1.675-1.22-.725-.996a3.492 3.492 0 0 1-.004-4.168 3.49 3.49 0 0 1 3.962-1.292l1.172.379.639-1.971-1.173-.38a3.493 3.493 0 0 1-2.453-3.369 3.493 3.493 0 0 1 2.446-3.374l1.171-.382-.411-1.261 1.902-.621 1.031 3.163-3.072 1.002c-.788.257-1.067.928-1.067 1.471.001.543.282 1.214 1.07 1.468l3.074.996-1.87 5.777-3.075-.996c-.787-.254-1.408.124-1.727.564-.318.439-.485 1.147.002 1.817l1.902 2.612-4.909 3.575-1.902-2.613c-.488-.67-1.212-.728-1.728-.56-.516.169-1.068.643-1.067 1.472l.004 3.231-6.073.006M92.62 79.197l-.918-2.82 3.068-1.002c.785-.256 1.064-.928 1.063-1.471 0-.543-.281-1.214-1.066-1.468l-3.07-.996 1.867-5.777 3.073.996c.783.253 1.402-.123 1.719-.561.32-.44.488-1.149 0-1.82l-1.899-2.612 4.904-3.575 1.9 2.615c.485.667 1.207.726 1.721.559.516-.168 1.066-.642 1.065-1.471l-.003-3.232 6.066-.006.003 3.232c.001.829.552 1.302 1.068 1.469.512.164 1.236.106 1.72-.563l1.895-2.619 4.91 3.566-1.893 2.616c-.486.672-.317 1.381.003 1.82.318.438.941.813 1.721.557l3.07-1.002.918 2.821-1.901.619-.299-.918-1.167.382a3.486 3.486 0 0 1-3.958-1.281 3.494 3.494 0 0 1-.007-4.17l.722-.999-1.673-1.215-.721.996c-.917 1.266-2.469 1.775-3.956 1.293a3.491 3.491 0 0 1-2.452-3.37l-.001-1.232-2.066.002.001 1.232c.002 1.566-.958 2.891-2.445 3.374-1.486.486-3.039-.021-3.959-1.285l-.723-.994-1.671 1.219.725.996a3.495 3.495 0 0 1 .001 4.171c-.918 1.265-2.471 1.771-3.955 1.288l-1.168-.379-.638 1.972 1.17.379a3.495 3.495 0 0 1 2.45 3.369c.001 1.565-.958 2.89-2.443 3.375l-1.169.381.299.92-1.901.619"/><path fill="#42494E" d="M101.378 76.41c-1.386-4.26.947-8.856 5.2-10.245a8.05 8.05 0 0 1 6.193.482 8.063 8.063 0 0 1 4.038 4.726l-1.901.619a6.084 6.084 0 0 0-3.044-3.563 6.069 6.069 0 0 0-4.665-.363c-3.206 1.047-4.964 4.513-3.919 7.725l-1.902.619"/><path fill="#42494E" d="M109.064 81.956a8.05 8.05 0 0 1-3.668-.886 8.066 8.066 0 0 1-4.039-4.725l1.902-.619a6.085 6.085 0 0 0 3.044 3.562 6.07 6.07 0 0 0 4.665.363c3.206-1.047 4.964-4.513 3.918-7.725l1.902-.619c1.387 4.26-.946 8.856-5.199 10.245a8.105 8.105 0 0 1-2.525.404"/><path fill="#42494E" d="M106.058 91.162l-.003-3.232c-.001-.829-.553-1.303-1.069-1.47-.516-.167-1.236-.105-1.72.564l-1.894 2.619-4.911-3.567 1.893-2.615c.487-.672.317-1.381-.003-1.82-.319-.437-.936-.813-1.721-.557l-3.07 1.002-1.075-3.303 1.901-.619.456 1.4 1.167-.381a3.486 3.486 0 0 1 3.958 1.279 3.497 3.497 0 0 1 .008 4.172l-.723.998 1.673 1.215.721-.996a3.487 3.487 0 0 1 3.955-1.294 3.493 3.493 0 0 1 2.454 3.371l.001 1.232 2.066-.003-.002-1.232c-.001-1.566.959-2.891 2.446-3.375a3.485 3.485 0 0 1 3.958 1.285l.723.994 1.67-1.219-.724-.996a3.495 3.495 0 0 1-.001-4.171 3.483 3.483 0 0 1 3.955-1.288l1.168.378.637-1.971-1.169-.379a3.491 3.491 0 0 1-2.45-3.369c-.001-1.565.957-2.889 2.442-3.375l1.169-.381-.41-1.262 1.901-.619 1.03 3.162-3.069 1.002c-.785.256-1.063.928-1.063 1.471s.281 1.214 1.067 1.469l3.07.995-1.868 5.778-3.072-.997c-.78-.252-1.402.123-1.719.561-.32.44-.488 1.149 0 1.82l1.898 2.612-4.902 3.576-1.901-2.615c-.485-.668-1.208-.726-1.72-.559-.516.168-1.067.642-1.066 1.471l.004 3.232-6.066.007m6.914 36.109c-1.815 0-3.615-.431-5.276-1.283-5.686-2.916-7.94-9.914-5.024-15.6l1.78.913c-2.412 4.704-.548 10.494 4.157 12.907a9.524 9.524 0 0 0 7.314.595 9.522 9.522 0 0 0 5.593-4.751l1.779.913a11.512 11.512 0 0 1-6.759 5.742 11.64 11.64 0 0 1-3.564.564"/><path fill="#E9886C" d="M112.96 112.223c-.892 0-1.784.338-2.465 1.015a3.504 3.504 0 0 0-.018 4.95 3.505 3.505 0 0 0 4.949.018 3.505 3.505 0 0 0 .018-4.951 3.492 3.492 0 0 0-2.484-1.032zm0 9.995a6.48 6.48 0 0 1-4.612-1.916 6.509 6.509 0 0 1 .033-9.193 6.507 6.507 0 0 1 9.192.033 6.508 6.508 0 0 1-.032 9.192h-.001a6.479 6.479 0 0 1-4.58 1.884z"/><path fill="#434A4F" d="M107.285 138.324l3.999.644.368-2.287c.335-2.083 1.9-3.639 3.985-3.964 2.082-.323 4.049.682 5.002 2.565l1.046 2.067 3.614-1.83-1.046-2.066c-.953-1.883-.602-4.061.893-5.55 1.497-1.487 3.677-1.828 5.555-.864l2.061 1.056 1.802-3.514-2.061-1.057c-1.878-.963-2.875-2.931-2.539-5.015.336-2.084 1.9-3.64 3.985-3.965l2.288-.356-.623-4.002-2.289.356c-2.087.32-4.049-.682-5.002-2.565-.953-1.883-.602-4.061.894-5.549l1.642-1.634-2.857-2.872-1.642 1.634c-1.496 1.489-3.676 1.828-5.554.865-1.878-.963-2.875-2.931-2.539-5.014l.368-2.287-3.999-.644-.368 2.287c-.336 2.083-1.9 3.639-3.985 3.964-2.085.325-4.05-.682-5.002-2.565l-1.046-2.066-3.614 1.829 1.046 2.067c.953 1.882.603 4.061-.894 5.55-1.496 1.487-3.675 1.827-5.553.864l-2.061-1.056-1.801 3.511 2.061 1.057c1.877.963 2.874 2.932 2.538 5.016-.335 2.083-1.9 3.639-3.985 3.964l-2.288.356.623 4.002 2.288-.356c2.084-.324 4.049.682 5.002 2.565.953 1.883.602 4.061-.894 5.55l-1.642 1.633 2.857 2.872 1.642-1.633c1.496-1.489 3.675-1.828 5.554-.865 1.878.963 2.874 2.932 2.539 5.015l-.368 2.287zm5.655 2.937l-7.948-1.281.686-4.261c.237-1.471-.607-2.471-1.476-2.917-.87-.446-2.175-.548-3.232.503l-3.06 3.043-5.677-5.707 3.06-3.044c1.056-1.051.961-2.357.52-3.228-.441-.872-1.439-1.726-2.91-1.493l-4.265.665-1.238-7.956 4.265-.664c1.472-.229 2.162-1.341 2.317-2.305.156-.965-.151-2.238-1.477-2.918l-3.84-1.969 3.626-7.071 3.841 1.969c1.327.679 2.539.186 3.231-.503.693-.689 1.193-1.899.52-3.229l-1.95-3.851 7.183-3.636 1.949 3.851c.673 1.33 1.945 1.643 2.91 1.492.965-.15 2.081-.836 2.318-2.306l.686-4.262 7.949 1.28-.687 4.262c-.237 1.47.608 2.471 1.478 2.917.869.445 2.175.547 3.23-.504l3.06-3.044 5.678 5.707-3.059 3.045c-1.057 1.05-.961 2.356-.521 3.228.442.872 1.437 1.722 2.911 1.492l4.264-.664 1.239 7.954-4.264.665c-1.472.229-2.163 1.341-2.318 2.306-.156.965.151 2.237 1.477 2.918l3.84 1.968-3.627 7.075-3.841-1.97c-1.325-.679-2.538-.186-3.231.503-.692.689-1.193 1.899-.52 3.228l1.949 3.851-7.182 3.636-1.95-3.85c-.672-1.33-1.944-1.641-2.909-1.493-.966.151-2.082.835-2.319 2.307l-.686 4.261z"/><path fill="#434A4F" d="M113.927 102.755a.997.997 0 1 1 1.07-.92c-.04.52-.48.92-1 .92h-.07zm-4.88-.52a.987.987 0 0 1 .77-1.179c.54-.12 1.07.23 1.19.77a.994.994 0 0 1-.77 1.179.763.763 0 0 1-.21.031c-.47 0-.88-.33-.98-.801zm8.5 1.321c-.52-.201-.78-.77-.59-1.29.2-.52.77-.781 1.29-.58.51.189.78.77.58 1.279a1 1 0 0 1-1.28.591zm-12.14.329a.99.99 0 0 1 .4-1.349.994.994 0 0 1 1.36.4c.26.48.08 1.089-.4 1.35-.16.079-.32.119-.48.119-.36 0-.7-.19-.88-.52zm15.38 1.45a.993.993 0 0 1-.2-1.399.992.992 0 0 1 1.4-.19c.44.33.53.949.2 1.4-.2.259-.5.39-.8.39-.21 0-.42-.06-.6-.201zm-18.41 1.161a.997.997 0 0 1 .01-1.411.996.996 0 0 1 1.41 0c.39.391.39 1.03 0 1.42-.2.19-.45.29-.71.29-.25 0-.51-.1-.71-.299zm21.02 1.469c-.33-.44-.24-1.069.2-1.4.44-.33 1.07-.239 1.4.201.33.449.24 1.069-.2 1.4a.962.962 0 0 1-.6.199c-.3 0-.61-.139-.8-.4zm-23.19 1.89a.993.993 0 0 1-.39-1.359.992.992 0 0 1 1.35-.401c.49.27.66.881.4 1.361-.19.33-.53.52-.88.52-.16 0-.33-.04-.48-.121zm24.95 1.36a.991.991 0 0 1 .59-1.279c.52-.19 1.1.069 1.29.589a1 1 0 0 1-.6 1.281.844.844 0 0 1-.34.069c-.41 0-.79-.25-.94-.66zm-26.09 2.471a.997.997 0 0 1-.76-1.19c.12-.54.65-.881 1.19-.77.54.119.88.659.77 1.199-.11.46-.52.781-.98.781-.07 0-.14-.011-.22-.02zm26.86 1.149a.998.998 0 0 1 .93-1.06.997.997 0 1 1 .14 1.991h-.07c-.52 0-.96-.401-1-.931zm-27.93 1.92a.998.998 0 1 1 1.99-.14.99.99 0 0 1-.93 1.06c-.02.011-.04.011-.07.011a.996.996 0 0 1-.99-.931zm28.42 2.971a1.008 1.008 0 0 1-.76-1.201c.12-.529.65-.879 1.19-.759a1 1 0 0 1 .76 1.19c-.1.469-.52.79-.98.79-.07 0-.14-.011-.21-.02zm-27.53 1.199a.991.991 0 0 1 .59-1.279c.52-.19 1.09.069 1.29.589.19.52-.08 1.091-.59 1.281-.12.04-.24.06-.35.06-.41 0-.79-.25-.94-.651zm25.86 2.42a.99.99 0 0 1-.4-1.349c.27-.491.88-.661 1.36-.401.49.27.66.881.4 1.361-.19.33-.53.52-.88.52a.93.93 0 0 1-.48-.131zm-23.82 1.33a.988.988 0 0 1 .2-1.389c.45-.33 1.07-.241 1.4.199a1.003 1.003 0 0 1-.8 1.6c-.3 0-.6-.14-.8-.41zm21.19 1.69c-.39-.4-.39-1.03 0-1.42a1 1 0 0 1 1.42.011.995.995 0 0 1-.01 1.409 1.003 1.003 0 0 1-1.41 0zm-18.18 1.341c-.44-.331-.53-.96-.2-1.4a1.004 1.004 0 0 1 1.6 1.21.978.978 0 0 1-.8.389c-.21 0-.42-.06-.6-.199zm14.83.799a.994.994 0 0 1 .4-1.359 1 1 0 0 1 1.35.399.992.992 0 0 1-.4 1.36.995.995 0 0 1-1.35-.4zm-11.09 1.261a.999.999 0 0 1-.58-1.29.997.997 0 0 1 1.29-.58c.52.189.78.77.58 1.279a.986.986 0 0 1-.93.651c-.12 0-.24-.02-.36-.06zm7.25-.151a.987.987 0 0 1 .77-1.179.987.987 0 0 1 1.18.77.986.986 0 0 1-.76 1.179c-.07.02-.14.02-.21.02-.47 0-.88-.32-.98-.79zm-3.07 1.06c-.55-.04-.97-.52-.93-1.07a.997.997 0 0 1 1.07-.919c.55.04.97.52.93 1.069-.04.531-.48.931-1 .931-.02 0-.05 0-.07-.011zm12.75-90.849a.998.998 0 0 1-.97-1.031.997.997 0 0 1 1.03-.969c.55.019.98.48.97 1.029-.02.541-.47.971-1.01.971h-.02zm-4.98-.961c-.02-.55.41-1.02.97-1.039a1.01 1.01 0 0 1 1.03.969c.02.55-.42 1.011-.97 1.031-.01.009-.02.009-.03.009-.54 0-.98-.43-1-.97zm8.91 1.211a.993.993 0 0 1-.9-1.091.986.986 0 0 1 1.09-.89 1 1 0 0 1 .9 1.091c-.05.509-.49.899-1 .899-.03 0-.06 0-.09-.009zm-12.9-.881a.985.985 0 0 1 .89-1.09 1 1 0 0 1 1.1.891c.05.549-.35 1.04-.9 1.099h-.1a.99.99 0 0 1-.99-.9zm16.8 1.4c-.54-.09-.91-.61-.82-1.15.09-.54.61-.909 1.15-.82a1 1 0 0 1 .82 1.15c-.08.491-.5.83-.98.83-.06 0-.11 0-.17-.01zm-20.76-.8a.995.995 0 0 1 .82-1.149.996.996 0 0 1 1.15.819c.09.54-.28 1.06-.82 1.15-.06.01-.11.01-.17.01-.48 0-.9-.339-.98-.83zm24.62 1.58a.994.994 0 0 1-.74-1.2c.13-.54.66-.88 1.2-.75.54.131.87.67.75 1.21a1.004 1.004 0 0 1-1.21.74zm-28.54-.72c-.12-.53.21-1.07.75-1.199a.995.995 0 0 1 1.2.739c.13.54-.2 1.08-.74 1.201v.009c-.08.01-.15.02-.23.02-.45 0-.87-.31-.98-.77zm32.34 1.75c-.52-.159-.82-.72-.66-1.25.16-.53.72-.82 1.25-.659.53.159.83.719.66 1.25a.994.994 0 0 1-.95.71c-.1 0-.2-.021-.3-.051zm-36.18-.619a.997.997 0 0 1 .66-1.25.99.99 0 0 1 1.25.65.997.997 0 0 1-.66 1.249.77.77 0 0 1-.3.05c-.42 0-.82-.27-.95-.699zm39.91 1.909a.997.997 0 0 1-.57-1.29c.19-.52.77-.77 1.29-.579a1.004 1.004 0 1 1-.36 1.94c-.12 0-.24-.02-.36-.071zm-43.67-.53a1 1 0 0 1 .57-1.3c.51-.2 1.09.06 1.29.58a.992.992 0 0 1-.57 1.29.906.906 0 0 1-.36.071c-.4 0-.78-.25-.93-.641zm47.3 2.07c-.5-.23-.71-.83-.48-1.33.23-.5.82-.72 1.32-.49a1.002 1.002 0 1 1-.84 1.82zm-50.96-.449a.996.996 0 0 1 .49-1.321.983.983 0 0 1 1.32.48c.24.5.02 1.091-.48 1.33-.14.06-.28.09-.42.09-.38 0-.74-.21-.91-.579zm54.48 2.23a1.004 1.004 0 0 1 .96-1.761c.49.27.67.88.4 1.36-.18.33-.52.52-.88.52-.16 0-.32-.04-.48-.119zm-58.02-.361a.99.99 0 0 1 .4-1.349c.48-.27 1.09-.091 1.36.389.26.48.08 1.091-.4 1.361a1.009 1.009 0 0 1-1.36-.401zm61.42 2.37h-.01c-.46-.299-.6-.92-.3-1.38.3-.47.92-.609 1.38-.31.47.3.6.92.31 1.38a1.014 1.014 0 0 1-1.38.31zm-64.83-.259a1.015 1.015 0 0 1 .31-1.391c.46-.29 1.08-.16 1.38.31a1.001 1.001 0 0 1-.84 1.541c-.33 0-.65-.17-.85-.46zm68.08 2.489a.998.998 0 1 1 1.18-1.609c.45.319.54.949.21 1.39a.98.98 0 0 1-.8.409c-.21 0-.42-.06-.59-.19zm-71.34-.17c-.32-.44-.23-1.069.21-1.399.45-.331 1.07-.23 1.4.209.33.45.24 1.07-.21 1.4-.18.13-.39.201-.59.201a1 1 0 0 1-.81-.411zm74.43 2.61a1 1 0 1 1 1.41-.119c-.2.23-.48.349-.77.349-.22 0-.45-.07-.64-.23zm-77.53-.07a1.01 1.01 0 0 1 .12-1.41.991.991 0 0 1 1.41.12c.36.42.3 1.05-.12 1.4a.958.958 0 0 1-.64.241c-.29 0-.57-.121-.77-.351zm80.45 2.71c-.39-.379-.4-1.02-.02-1.42.38-.39 1.02-.399 1.41-.019.4.379.41 1.019.03 1.41a1.008 1.008 0 0 1-1.42.029zm-83.37.03c-.38-.4-.37-1.03.02-1.42.4-.38 1.03-.369 1.42.02.38.4.37 1.031-.03 1.42a.963.963 0 0 1-.69.28c-.26 0-.52-.1-.72-.3zm86.12 2.8a.997.997 0 0 1 .07-1.41c.4-.38 1.04-.34 1.41.071.37.4.34 1.039-.07 1.409-.19.17-.43.261-.67.261a.967.967 0 0 1-.74-.331zm-88.86.121a.998.998 0 1 1 1.41-.071.977.977 0 0 1-.74.33c-.24 0-.48-.08-.67-.259zm91.41 2.879a.98.98 0 0 1 .16-1.399.999.999 0 0 1 1.4.159 1 1 0 0 1-.78 1.62.97.97 0 0 1-.78-.38zm-93.95.22a1 1 0 0 1-.16-1.4.99.99 0 0 1 1.4-.159c.44.339.51.969.17 1.4a1.003 1.003 0 0 1-1.41.159zm96.29 2.95a.995.995 0 0 1 .25-1.39.996.996 0 0 1 1.39.25c.32.46.2 1.08-.25 1.4-.18.111-.37.171-.57.171a.985.985 0 0 1-.82-.431zm-98.61.32a.996.996 0 0 1-.26-1.389.999.999 0 1 1 1.65 1.129c-.2.291-.51.44-.83.44a.98.98 0 0 1-.56-.18zm100.73 2.991a.999.999 0 1 1 1.72-1.02.998.998 0 0 1-.86 1.509c-.34 0-.67-.17-.86-.489zm-102.84.419c-.47-.279-.63-.89-.35-1.37.28-.469.9-.63 1.37-.35.48.29.64.901.35 1.37a.98.98 0 0 1-.86.491.96.96 0 0 1-.51-.141zm104.74 3.03c-.25-.49-.05-1.09.44-1.349a.998.998 0 0 1 1.34.439c.25.501.06 1.101-.43 1.351a1.003 1.003 0 0 1-1.35-.441zm-106.61.52a.998.998 0 0 1-.44-1.34c.25-.5.85-.69 1.35-.44a.998.998 0 1 1-.91 1.78zm108.28 3.05c-.22-.51.01-1.1.52-1.32a1 1 0 0 1 1.31.531.987.987 0 0 1-.52 1.31.91.91 0 0 1-.39.08.99.99 0 0 1-.92-.601zm-109.9.621c-.52-.221-.75-.81-.54-1.31.22-.511.81-.75 1.32-.54.5.219.74.81.53 1.319-.17.38-.54.61-.92.61-.14 0-.27-.03-.39-.079zm111.32 3.04a.988.988 0 0 1 .61-1.27.993.993 0 0 1 1.27.619.996.996 0 0 1-.61 1.27.947.947 0 0 1-.33.051c-.41 0-.8-.25-.94-.67zm-112.7.73a1.01 1.01 0 0 1-.62-1.281.989.989 0 0 1 1.27-.61c.52.18.8.75.62 1.27-.15.41-.53.67-.95.67-.11 0-.22-.02-.32-.049zm113.87 3.029a.996.996 0 0 1 .7-1.23c.53-.14 1.08.17 1.23.701a1.012 1.012 0 0 1-.97 1.27.99.99 0 0 1-.96-.741zm-114.99.81a1 1 0 0 1-.71-1.23c.15-.53.7-.839 1.23-.7a1.003 1.003 0 0 1-.26 1.97c-.09 0-.18-.02-.26-.04zm115.9 3.02c-.11-.539.24-1.07.78-1.18a1 1 0 0 1 .4 1.96c-.06.02-.13.02-.2.02-.46 0-.88-.319-.98-.8zm-116.77.9c-.54-.109-.89-.64-.78-1.18.11-.55.64-.9 1.18-.79.54.111.89.64.78 1.18a.987.987 0 0 1-.98.801c-.06 0-.13 0-.2-.011zm117.43 2.991a1.01 1.01 0 0 1 .86-1.131 1 1 0 0 1 1.12.861c.08.549-.31 1.049-.85 1.129h-.14a1 1 0 0 1-.99-.859zm-118.02.969a1.01 1.01 0 0 1-.86-1.13c.07-.54.58-.93 1.12-.859.55.079.94.579.86 1.129-.06.5-.49.871-.99.871-.04 0-.09-.011-.13-.011zm118.42 2.951c-.04-.551.38-1.031.93-1.071a.99.99 0 0 1 1.06.93c.04.55-.38 1.03-.93 1.07h-.06a.996.996 0 0 1-1-.929zm-118.75 1.04a.997.997 0 0 1-.93-1.06.997.997 0 0 1 1.06-.94c.55.04.97.52.93 1.069a.996.996 0 0 1-.99.931h-.07zm118.88 2.899c0-.56.45-1.01 1-1.01s1 .45 1 1c0 .551-.44 1-.99 1a.997.997 0 0 1-1.01-.99zm-119.95.331c0-.04.01-.081.01-.111 0-.04-.01-.079-.01-.119 0-.551.45-.991 1.01-.991.55 0 .99.44.99.991v.219a.991.991 0 0 1-.99 1.011c-.55 0-1-.451-1.01-1zm120.77 4.67c-.56-.041-.97-.52-.94-1.071.04-.55.51-.97 1.06-.929.55.029.97.509.94 1.06-.04.529-.48.94-1 .94h-.06zm-120.62-.601c-.03-.549.38-1.029.93-1.069a1.01 1.01 0 0 1 1.07.929c.04.551-.38 1.031-.93 1.071h-.07c-.52 0-.96-.401-1-.931zm120.16 4.581a1.011 1.011 0 0 1-.86-1.13c.07-.54.57-.931 1.12-.861a1 1 0 0 1 .86 1.12v.011c-.06.5-.49.86-.99.86h-.13zm-119.74-.531c-.07-.55.31-1.05.86-1.13a1 1 0 0 1 1.12.86c.08.551-.31 1.051-.85 1.131-.05 0-.09.009-.14.009-.49 0-.92-.37-.99-.87zm119.02 4.47c-.54-.109-.89-.64-.78-1.18a.993.993 0 0 1 1.17-.78c.54.101.9.63.79 1.17-.1.48-.52.81-.98.81-.07 0-.13-.01-.2-.02zm-118.33-.45c-.11-.55.23-1.079.78-1.179a.987.987 0 0 1 1.18.77 1 1 0 0 1-.78 1.179c-.07.02-.14.02-.2.02-.47 0-.88-.32-.98-.79zm117.35 4.33c-.53-.139-.85-.69-.71-1.23.15-.529.7-.85 1.23-.699.53.15.85.69.71 1.23-.13.44-.53.739-.97.739a.758.758 0 0 1-.26-.04zm-116.4-.38c-.14-.529.17-1.08.7-1.23.53-.14 1.08.17 1.23.701a.996.996 0 0 1-.7 1.23.87.87 0 0 1-.27.04c-.43 0-.83-.29-.96-.741zm115.16 4.19a.993.993 0 0 1-.62-1.27c.18-.52.75-.799 1.27-.62.52.18.8.75.62 1.27-.15.41-.53.671-.95.671a.86.86 0 0 1-.32-.051zm-113.94-.299a.996.996 0 0 1 .61-1.27.995.995 0 0 1 1.28.609.996.996 0 0 1-.61 1.27.962.962 0 0 1-.33.061c-.42 0-.8-.261-.95-.67zm112.44 4.02a.992.992 0 0 1-.53-1.31 1 1 0 1 1 .92 1.39.91.91 0 0 1-.39-.08zm-110.96-.23a.998.998 0 0 1 .52-1.31c.51-.221 1.1.02 1.32.52.21.509-.02 1.1-.53 1.319a.997.997 0 0 1-1.31-.529zm109.22 3.849c-.5-.25-.7-.86-.45-1.349a1.002 1.002 0 1 1 1.79.9c-.18.35-.53.549-.9.549-.15 0-.3-.029-.44-.1zm-107.5-.159c-.25-.5-.05-1.101.44-1.351s1.1-.06 1.35.44a.998.998 0 0 1-.44 1.34.91.91 0 0 1-.45.111c-.37 0-.72-.201-.9-.54zm105.51 3.639c-.47-.28-.63-.889-.35-1.369.28-.471.9-.631 1.37-.351a1.001 1.001 0 1 1-1.02 1.72zm-103.53-.079a.992.992 0 0 1 .34-1.37.994.994 0 0 1 1.37.339.994.994 0 0 1-.85 1.511c-.34 0-.68-.17-.86-.48zm101.32 3.429c-.45-.32-.57-.94-.26-1.389a.99.99 0 0 1 1.39-.261c.46.31.57.931.26 1.391a.986.986 0 0 1-.82.429c-.2 0-.39-.059-.57-.17zm-99.12-.009c-.31-.46-.2-1.081.25-1.391a.996.996 0 0 1 1.39.25.989.989 0 0 1-.25 1.391 1 1 0 0 1-1.39-.25zm96.7 3.199c-.44-.34-.51-.969-.17-1.409a.99.99 0 0 1 1.4-.161c.44.34.51.971.17 1.4a1.004 1.004 0 0 1-1.4.17zm-94.27.071c-.35-.431-.27-1.06.16-1.411a1 1 0 0 1 1.24 1.57c-.18.14-.4.211-.62.211-.29 0-.59-.12-.78-.37zm91.63 2.949a.996.996 0 0 1-.07-1.409c.37-.42 1-.451 1.41-.08.41.37.44 1.009.07 1.419h.01c-.2.21-.47.331-.75.331-.24 0-.48-.09-.67-.261zm-88.99.151a.996.996 0 0 1 .06-1.41 1 1 0 0 1 1.42.06.996.996 0 0 1-.07 1.409c-.19.18-.43.27-.67.27-.28 0-.55-.11-.74-.329zm86.16 2.69a1.005 1.005 0 0 1 1.44-1.401c.38.401.38 1.03-.02 1.421a1.018 1.018 0 0 1-1.42-.02zm-83.32.23c-.4-.381-.41-1.02-.03-1.42a.996.996 0 0 1 1.41-.02c.4.38.41 1.009.03 1.409-.2.201-.46.31-.72.31-.25 0-.5-.1-.69-.279zm80.32 2.409a.998.998 0 0 1 .11-1.409 1.008 1.008 0 0 1 1.41.119 1 1 0 0 1-.12 1.41.958.958 0 0 1-.64.241.957.957 0 0 1-.76-.361zm-77.29.31a.999.999 0 0 1-.13-1.409 1 1 0 1 1 1.53 1.29.974.974 0 0 1-1.4.119zm74.11 2.131a.997.997 0 0 1 .21-1.401.993.993 0 0 1 1.39.21c.33.441.24 1.071-.2 1.401-.18.13-.39.199-.6.199a.97.97 0 0 1-.8-.409zm-70.91.389c-.45-.33-.54-.949-.22-1.4a1.004 1.004 0 1 1 1.62 1.19 1.015 1.015 0 0 1-1.4.21zm67.57 1.83a1.01 1.01 0 0 1 .3-1.379 1.01 1.01 0 0 1 1.39.299.997.997 0 0 1-.84 1.54c-.33 0-.66-.16-.85-.46zm-64.21.471a.999.999 0 0 1-.3-1.381.991.991 0 0 1 1.37-.309h.01c.46.299.6.92.3 1.38a.998.998 0 0 1-.84.469c-.18 0-.37-.05-.54-.159zm60.74 1.529a.997.997 0 0 1 .39-1.359.997.997 0 0 1 1.36.39c.27.48.09 1.09-.39 1.36-.15.08-.32.12-.48.12a1 1 0 0 1-.88-.511zm-57.23.54h.01c-.49-.259-.67-.87-.41-1.359.27-.48.88-.661 1.36-.391.49.26.67.871.4 1.351-.18.33-.52.52-.88.52-.16 0-.32-.04-.48-.121zm53.63 1.21a.994.994 0 0 1 .49-1.319.996.996 0 0 1 1.33.48c.23.5.02 1.089-.49 1.33a1.013 1.013 0 0 1-1.33-.491zm-49.98.621a.988.988 0 0 1-.49-1.321c.23-.51.82-.73 1.33-.49.5.23.72.82.49 1.32-.18.37-.54.591-.92.591a.868.868 0 0 1-.41-.1zm46.28.89a.997.997 0 1 1 1.86-.721.995.995 0 0 1-.56 1.3c-.12.04-.25.06-.37.06-.4 0-.78-.239-.93-.639zm-42.52.699a1.004 1.004 0 0 1-.58-1.299.994.994 0 0 1 1.29-.571c.52.191.77.77.58 1.29-.15.401-.54.64-.94.64-.12 0-.24-.02-.35-.06zm38.72.56a1 1 0 0 1 .65-1.25c.53-.16 1.09.13 1.26.661a.998.998 0 0 1-.66 1.25c-.1.029-.2.049-.3.049a1 1 0 0 1-.95-.71zm-34.87.761c-.52-.16-.82-.721-.66-1.25a.996.996 0 0 1 1.25-.66c.53.16.83.719.66 1.25a.993.993 0 0 1-.95.709c-.1 0-.2-.02-.3-.049zm30.99.25c-.13-.54.2-1.08.74-1.211.53-.13 1.07.2 1.2.74a.987.987 0 0 1-.74 1.201.906.906 0 0 1-.23.029c-.45 0-.86-.31-.97-.759zm-27.05.809a.998.998 0 0 1-.75-1.199.991.991 0 0 1 1.2-.741 1 1 0 0 1 .75 1.201c-.11.459-.52.77-.98.77a.834.834 0 0 1-.22-.031zm23.11-.079a.998.998 0 1 1 1.97-.33.995.995 0 0 1-.82 1.149.878.878 0 0 1-.17.021c-.47 0-.9-.351-.98-.84zm-19.12.88a1 1 0 0 1 .33-1.971c.54.08.91.6.82 1.14-.08.49-.5.84-.98.84-.06 0-.11 0-.17-.009zm15.14-.4c-.05-.551.34-1.04.9-1.1a1.01 1.01 0 0 1 1.09.89.994.994 0 0 1-.89 1.099c-.04.011-.07.011-.1.011-.51 0-.95-.391-1-.9zm-11.1.929c-.55-.06-.95-.549-.9-1.1a1 1 0 0 1 1.09-.9c.55.06.95.551.9 1.1-.05.511-.49.9-.99.9h-.1zm7.1-.719c-.02-.551.41-1.02.96-1.04a.998.998 0 0 1 1.04.969.995.995 0 0 1-.96 1.031h-.04c-.54 0-.98-.42-1-.96zm-3.04.969a1.01 1.01 0 0 1-.97-1.029c.02-.551.48-.98 1.03-.971.56.02.99.48.97 1.031a.996.996 0 0 1-1 .969h-.03z"/></g></svg>