<?xml version="1.0" encoding="utf-8"?><svg xmlns="http://www.w3.org/2000/svg" width="250" height="250" viewBox="0 0 250 250"><g fill="none" fill-rule="evenodd"><path fill="#5FE0ED" d="M85.5 35.92a4 4 0 1 1-8 0 4 4 0 0 1 8 0"/><path fill="#48515A" d="M156.439 158.003h-2v-14.721c0-7.443 3.427-14.954 9.402-20.607 11.181-10.578 17.315-25.271 16.83-40.314-.881-27.345-22.943-49.906-50.224-51.363l-7.008.001c-27.229 1.456-49.29 24.017-50.172 51.362-.484 15.043 5.65 29.736 16.83 40.314 5.976 5.653 9.403 13.164 9.403 20.607v14.721h-2v-14.721c0-6.896-3.199-13.877-8.777-19.154-11.596-10.971-17.958-26.218-17.455-41.832.915-28.373 23.808-51.784 52.118-53.295l7.114-.002c28.363 1.513 51.255 24.924 52.17 53.297.503 15.614-5.859 30.861-17.455 41.832-5.577 5.277-8.776 12.258-8.776 19.154v14.721"/><path fill="#FFD15D" d="M137.261 186.503h-18c-8.284 0-15.261-6.298-15.261-14.583v-3.417h48v3.417c0 8.285-6.454 14.583-14.739 14.583"/><path fill="#FFD15D" d="M104.5 169.003v2.918c0 7.765 6.622 14.082 14.761 14.082h18c8.117 0 14.239-6.054 14.239-14.082v-2.918h-47zm32.761 18h-18c-8.691 0-15.761-6.766-15.761-15.082v-3.918h49v3.918c0 8.457-6.694 15.082-15.239 15.082z"/><path fill="#DEDEDD" d="M96.167 157.836l1.333 2.834c.499.378 2.374 3.42 3.118 4.05.467.395.853.857 1.152 1.357.425.183.761.517.976.926H152.5c.428-.662 6.782-6.603 7.334-7.167l1-1.833-64.667-.167"/><path fill="#48515A" d="M94.5 159.003H162v-2H94.5zM98.25 163.003h59.625v-2H98.25zM102.25 167.003h51.25v-2h-51.25zM138.536 191.003h-21.058a18.81 18.81 0 0 1-9.48-2.585l1.01-1.727a16.797 16.797 0 0 0 8.47 2.312h21.058c2.956 0 5.885-.799 8.471-2.312l1.01 1.727a18.814 18.814 0 0 1-9.481 2.585M50.5 106.003h2v-4h-2zM50.5 116.003h2v-4h-2zM54.5 110.003h4v-2h-4zM44.5 110.003h4v-2h-4zM51.266 64.914c-1.103 0-2 .897-2 2s.897 2 2 2 2-.897 2-2-.897-2-2-2zm0 6c-2.205 0-4-1.795-4-4 0-2.206 1.795-4 4-4 2.206 0 4 1.794 4 4 0 2.205-1.794 4-4 4z"/><path fill="#48515A" d="M123.5 198.003h2v-8h-2zM129.5 198.003h2v-8h-2zM124.501 202.003c-.26 0-.52-.11-.71-.29-.09-.1-.16-.2-.211-.33a.85.85 0 0 1-.079-.38c0-.26.11-.52.29-.71.28-.28.72-.37 1.09-.21.12.05.23.12.33.21.179.19.29.45.29.71 0 .26-.111.52-.29.71-.19.18-.45.29-.71.29m6 0c-.26 0-.52-.11-.71-.29-.09-.1-.16-.2-.211-.33a.85.85 0 0 1-.079-.38c0-.26.11-.52.29-.71.28-.28.72-.37 1.09-.21.12.05.23.12.33.21.179.19.29.45.29.71 0 .26-.111.52-.29.71-.19.18-.45.29-.71.29m-6 4c-.26 0-.52-.11-.71-.29-.18-.19-.29-.45-.29-.71 0-.13.03-.26.079-.38.051-.12.121-.23.211-.33.38-.37 1.039-.37 1.42 0 .09.1.159.21.21.33.05.12.08.25.08.38 0 .26-.111.52-.29.71-.19.18-.45.29-.71.29m6 0c-.26 0-.52-.11-.71-.29-.18-.19-.29-.45-.29-.71 0-.13.02-.26.079-.38.051-.12.121-.23.211-.33.38-.37 1.039-.37 1.42 0 .09.1.159.21.21.33.05.12.08.25.08.38 0 .26-.111.52-.29.71-.19.18-.45.29-.71.29M115.379 211.001h-2v-11H76.381v11h-2v-13h40.998v13"/><path fill="#5FE0ED" d="M69.381 221.001H117.5v-12.995H69.381z"/><path fill="#48515A" d="M83.38 216.001h-3.999a1 1 0 1 1 0-2h3.999a1 1 0 1 1 0 2"/><path fill="#48515A" d="M77.381 214.001a1 1 0 1 0 0 2 1 1 0 0 0 0-2zm0 4c-1.655 0-3-1.346-3-3 0-1.655 1.345-3 3-3 1.654 0 3 1.345 3 3 0 1.654-1.346 3-3 3z"/><path fill="#DEDEDD" d="M60.602 137.475v15.792l11.028 9.525a12.427 12.427 0 0 0 8.943 3.638l3.322-.042-12.286-10.545v-10.364c0-2.983-1.071-5.618-3.002-7.246v-.758c0-4.946-2.926-8.956-7.872-8.956v1.073c-1.121-.684-2.463-1.073-4.002-1.073v1.073c2.48 1.514 3.869 4.476 3.869 7.883"/><path fill="#475059" d="M83.894 167.388a.998.998 0 0 1-.651-.241l-12.634-10.845v-10.823c0-2.701-.965-5.064-2.647-6.481l-.355-.3v-1.223c0-3.96-2.125-7.956-6.872-7.956h-3.002v.074a1 1 0 0 1-2 0v-2.074h5.002c5.224 0 8.872 4.094 8.872 9.956v.311c1.913 1.815 3.002 4.588 3.002 7.693v9.905l11.937 10.246a1 1 0 0 1-.652 1.758"/><path fill="#475059" d="M108.685 199.402a1 1 0 0 1-1-1v-21.857a9.122 9.122 0 0 0-2.689-6.492L81.482 146.54c-2.564 3.33-2.199 8.435.996 11.63l9.629 9.114-11.522.146c-3.557.02-7.118-1.387-9.662-3.931l-11.321-9.775v-16.249c0-3.67-1.825-7.371-5.872-7.893v29.396l27.977 26.666v12.674a1 1 0 1 1-2 0V186.5L51.73 159.834v-32.315h1c5.224 0 8.872 4.094 8.872 9.956v15.334l10.682 9.226a11.617 11.617 0 0 0 8.276 3.395l6.591-.083-6.068-5.744c-4.232-4.232-4.385-11.198-.353-15.23l.707-.708 24.973 24.974a11.108 11.108 0 0 1 3.275 7.906v21.857a1 1 0 0 1-1 1"/><path fill="#48515A" d="M181.849 211.001h-2v-11h-36.998v11h-2v-13h40.998v13"/><path fill="#5FE0ED" d="M138.73 221.001h48.12v-12.995h-48.12z"/><path fill="#48515A" d="M176.849 216.001h-3.998a1 1 0 0 1 0-2h3.998a1 1 0 1 1 0 2"/><path fill="#48515A" d="M178.849 214.001a1.001 1.001 0 0 0 0 2 1.001 1.001 0 0 0 0-2zm0 4c-1.654 0-3-1.346-3-3 0-1.655 1.346-3 3-3 1.655 0 3 1.345 3 3 0 1.654-1.345 3-3 3z"/><path fill="#DEDEDD" d="M195.628 137.475v15.792l-11.027 9.525a12.43 12.43 0 0 1-8.943 3.638l-3.322-.042 12.286-10.545v-10.364c0-2.983 1.071-5.618 3.002-7.246v-.758c0-4.946 2.926-8.956 7.871-8.956v1.073c1.121-.684 2.464-1.073 4.003-1.073v1.073c-2.481 1.514-3.87 4.476-3.87 7.883"/><path fill="#475059" d="M172.336 167.388a1 1 0 0 1-.652-1.758l11.938-10.246v-9.905c0-3.105 1.088-5.879 3.001-7.693v-.311c0-5.862 3.649-9.956 8.872-9.956h5.003v2.074a1 1 0 0 1-2 0v-.074h-3.003c-4.747 0-6.872 3.996-6.872 7.956v1.223l-.355.3c-1.682 1.417-2.646 3.78-2.646 6.481v10.823l-12.635 10.845a.994.994 0 0 1-.651.241"/><path fill="#475059" d="M147.546 199.402a1 1 0 0 1-1-1v-21.857c0-2.987 1.163-5.794 3.275-7.906l24.973-24.973.707.707c1.976 1.976 3.011 4.689 2.913 7.638-.094 2.843-1.278 5.603-3.248 7.573l-6.087 5.763 6.591.083a11.444 11.444 0 0 0 8.224-3.345l10.734-9.276v-15.334c0-5.862 3.649-9.956 8.872-9.956h1v32.315L176.523 186.5v11.818a1 1 0 0 1-2 0v-12.674l27.977-26.666v-29.396c-4.046.522-5.872 4.223-5.872 7.893v16.249l-11.373 9.825c-2.491 2.493-6.017 3.919-9.61 3.881l-11.521-.146 9.648-9.133c3.177-3.177 3.54-8.282.976-11.611l-23.513 23.513a9.122 9.122 0 0 0-2.689 6.492v21.857a1 1 0 0 1-1 1"/><path fill="#5FE0ED" d="M205.5 107.003a4 4 0 1 1-8 0 4 4 0 0 1 8 0"/><path fill="#48515A" d="M193.5 59.003h2v-4h-2zM193.5 69.003h2v-4h-2zM197.5 63.003h4v-2h-4zM187.5 63.003h4v-2h-4z"/><path fill="#DEDEDD" d="M169.5 86.189v-1.186h-10.714c0 17.251-14.035 31.285-31.286 31.285s-31.285-14.034-31.285-31.285H85.5v1.186l9.55 2.39 2.56 9.552-7.076 6.845 1.186 2.054 9.466-2.706 6.992 6.994-2.705 9.465 2.055 1.186 6.844-7.074 9.552 2.557 2.39 9.551h2.372l2.391-9.551 9.551-2.557 6.845 7.074 2.055-1.186-2.706-9.465 6.993-6.994 9.465 2.706 1.186-2.054-7.075-6.845 2.559-9.552 9.55-2.39"/><path fill="#DEDEDD" d="M136.827 85.574c0 .046.007.09.007.136 0 5.147-4.187 9.334-9.334 9.334-5.146 0-9.333-4.187-9.333-9.334 0-.046.006-.09.007-.136h-4.67c-.001.045-.004.091-.004.136 0 7.72 6.281 14 14 14 7.72 0 14-6.28 14-14l-.003-.136h-4.67"/><path fill="#475059" d="M124.753 129.003h5.494l2.484-9.922 7.278-1.95 7.112 7.351 4.759-2.747-2.811-9.835 5.328-5.328 9.835 2.811 2.747-4.759-7.351-7.112 1.95-7.278 9.922-2.484v-5.494l-9.922-2.483-1.95-7.279 7.351-7.112-2.747-4.758-9.835 2.81-5.328-5.327 2.811-9.835-4.759-2.747-7.112 7.351-7.278-1.95-2.484-9.923h-5.494l-2.484 9.923-7.278 1.95-7.111-7.351-4.759 2.747 2.81 9.835-5.328 5.327-9.835-2.81-2.747 4.758 7.352 7.112-1.95 7.279-9.923 2.483v5.494l9.923 2.484 1.95 7.278-7.352 7.112 2.747 4.759 9.835-2.811 5.328 5.328-2.81 9.835 4.759 2.747 7.111-7.351 7.278 1.95 2.484 9.922zm7.056 2h-8.617l-2.577-10.295-5.005-1.341-7.379 7.628-7.462-4.309 2.916-10.204-3.664-3.664-10.204 2.916-4.308-7.462 7.627-7.379-1.34-5.005L81.5 89.312v-8.617l10.296-2.577 1.34-5.005-7.627-7.379 4.308-7.462 10.204 2.916 3.664-3.663-2.916-10.205 7.463-4.308 7.378 7.627 5.005-1.34 2.577-10.296h8.617l2.576 10.296 5.005 1.34 7.379-7.627 7.462 4.308-2.916 10.205 3.664 3.663 10.204-2.916 4.309 7.462-7.628 7.379 1.341 5.005 10.295 2.577v8.617l-10.295 2.576-1.341 5.005 7.628 7.379-4.309 7.462-10.204-2.916-3.664 3.664 2.916 10.204-7.462 4.309-7.379-7.628-5.005 1.341-2.576 10.295z"/><path fill="#F58E70" d="M127.5 106.86c-12.052 0-21.857-9.805-21.857-21.857s9.805-21.857 21.857-21.857c12.053 0 21.857 9.805 21.857 21.857s-9.804 21.857-21.857 21.857zm0-50.143c-15.622 0-28.285 12.664-28.285 28.286 0 15.622 12.663 28.286 28.285 28.286s28.286-12.664 28.286-28.286c0-15.622-12.664-28.286-28.286-28.286z"/><path fill="#475059" d="M124.753 129.003h5.494l2.484-9.922 7.278-1.95 7.112 7.351 4.759-2.747-2.811-9.835 5.328-5.328 9.835 2.811 2.747-4.759-7.351-7.112 1.95-7.278 9.922-2.484v-5.494l-9.922-2.484-1.95-7.278 7.351-7.112-2.747-4.758-9.835 2.81-5.328-5.328 2.811-9.834-4.759-2.747-7.112 7.351-7.278-1.95-2.484-9.923h-5.494l-2.484 9.923-7.277 1.95-7.112-7.351-4.759 2.747 2.81 9.834-5.328 5.328-9.835-2.81-2.747 4.758 7.352 7.112-1.951 7.278-9.922 2.484v5.494l9.922 2.484 1.951 7.278-7.352 7.112 2.747 4.759 9.835-2.811 5.328 5.328-2.81 9.835 4.759 2.747 7.112-7.351 7.277 1.95 2.484 9.922zm7.056 2h-8.617l-2.577-10.295-5.004-1.341-7.38 7.627-7.462-4.308 2.916-10.204-3.664-3.664-10.204 2.916-4.308-7.462 7.627-7.379-1.341-5.005L81.5 89.312v-8.617l10.295-2.577 1.341-5.005-7.627-7.379 4.308-7.462 10.204 2.916 3.664-3.664-2.916-10.204 7.462-4.308 7.38 7.627 5.004-1.34 2.577-10.296h8.617l2.576 10.296 5.005 1.34 7.379-7.627 7.462 4.308-2.916 10.204 3.664 3.664 10.204-2.916 4.309 7.462-7.628 7.379 1.341 5.005 10.295 2.577v8.617l-10.295 2.576-1.341 5.005 7.628 7.379-4.309 7.462-10.204-2.916-3.664 3.664 2.916 10.204-7.462 4.308-7.379-7.627-5.005 1.341-2.576 10.295z"/><path fill="#475059" d="M127.5 57.717c-15.045 0-27.285 12.241-27.285 27.286 0 15.046 12.24 27.286 27.285 27.286 15.046 0 27.286-12.24 27.286-27.286 0-15.045-12.24-27.286-27.286-27.286zm0 56.572c-16.148 0-29.285-13.138-29.285-29.286 0-16.148 13.137-29.286 29.285-29.286s29.286 13.138 29.286 29.286c0 16.148-13.138 29.286-29.286 29.286z"/><path fill="#475059" d="M127.5 80.003c-2.757 0-5 2.243-5 5s2.243 5 5 5 5-2.243 5-5-2.243-5-5-5zm0 12c-3.86 0-7-3.14-7-7s3.14-7 7-7 7 3.14 7 7-3.14 7-7 7z"/><path fill="#475059" d="M127.5 75.717c-5.12 0-9.285 4.166-9.285 9.286 0 5.12 4.165 9.286 9.285 9.286s9.286-4.166 9.286-9.286c0-5.12-4.166-9.286-9.286-9.286zm0 20.572c-6.223 0-11.285-5.063-11.285-11.286s5.062-11.286 11.285-11.286 11.286 5.063 11.286 11.286-5.063 11.286-11.286 11.286z"/><path fill="#475059" d="M127.501 68.646c-9.02 0-16.358 7.338-16.358 16.357 0 9.019 7.338 16.357 16.358 16.357 9.019 0 16.357-7.338 16.357-16.357 0-9.019-7.338-16.357-16.357-16.357zm0 34.714c-10.123 0-18.358-8.235-18.358-18.357s8.235-18.357 18.358-18.357c10.122 0 18.357 8.235 18.357 18.357s-8.235 18.357-18.357 18.357z"/></g></svg>