<?xml version="1.0" encoding="utf-8"?><svg xmlns="http://www.w3.org/2000/svg" width="250" height="250" viewBox="0 0 250 250"><g fill="none" fill-rule="evenodd"><path fill="#5FE0ED" d="M169.003 74.866a3 3 0 1 1-6 0 3 3 0 0 1 6 0m-119 67.75a3 3 0 1 1-6 0 3 3 0 0 1 6 0"/><path fill="#DFE0E0" d="M150.17 124.95h-13.533c-6.556 0-11.871-3-11.871-9h-15.722v.074c0 5.32-3.439 9.992-8.559 11.436-1.793.46-3.441-.895-3.441-2.746v5.003c0 1.851 1.648 3.206 3.441 2.746 5.12-1.444 8.559-6.116 8.559-11.436v-.077h15.722c0 6 5.315 9 11.871 9h21.033l-7.5-5M55.003 131.866l6.751 2.751 23.999-38-6.75-4.751-24 40M193.003 131.033l-6.168 4.084-23.998-38 6.749-4.751 23.417 38.667"/><path fill="#48515A" d="M99.325 128.548a3.049 3.049 0 0 1-1.892-.633c-.882-.685-1.389-1.851-1.389-3.201v-12.1c0-.756.283-1.309.843-1.644l15.046-9.02h43.111a1 1 0 1 1 0 2h-42.558l-14.442 8.658v12.106c0 .716.23 1.322.615 1.62.281.219.65.27 1.095.157l.249-.032h.288c4.572-1.351 7.753-5.623 7.753-10.435v-1l1-.074h16.722v1c0 5.898 5.616 8 10.871 8h13.407a1 1 0 1 1 0 2h-13.407c-7.381 0-12.297-3.498-12.824-9h-13.807c-.41 5.4-4.12 10.011-9.302 11.472l-.271.037h-.313c-.27.06-.536.089-.795.089m-18.526 11.069a.998.998 0 0 1-.909-.583l-2.248-4.895-3.656-2.068a1 1 0 0 1 .986-1.74l4.218 2.386 2.517 5.483a1.001 1.001 0 0 1-.908 1.417m45.883 31.221a7.312 7.312 0 0 1-3.928-1.146l-2.998-1.766a1 1 0 0 1 1.016-1.722l3.025 1.782a5.353 5.353 0 0 0 4.073.72 5.331 5.331 0 0 0 3.358-2.364 5.325 5.325 0 0 0 .704-4.046 5.33 5.33 0 0 0-2.363-3.358l-3.824-2.423a1 1 0 1 1 1.07-1.689l3.824 2.423a7.312 7.312 0 0 1 3.245 4.61 7.32 7.32 0 0 1-.966 5.554 7.321 7.321 0 0 1-4.61 3.245 7.44 7.44 0 0 1-1.626.18"/><path fill="#48515A" d="M139.769 164.06a7.32 7.32 0 0 1-3.928-1.146l-10.096-6.399a1 1 0 1 1 1.07-1.689l10.097 6.398a5.311 5.311 0 0 0 4.045.703 5.326 5.326 0 0 0 3.359-2.363 5.33 5.33 0 0 0 .703-4.046 5.326 5.326 0 0 0-2.363-3.358l-10.096-6.399a1 1 0 0 1 1.071-1.689l10.095 6.398a7.313 7.313 0 0 1 3.245 4.611 7.31 7.31 0 0 1-.966 5.553 7.315 7.315 0 0 1-4.61 3.245 7.441 7.441 0 0 1-1.626.181"/><path fill="#48515A" d="M152.857 157.282a7.317 7.317 0 0 1-3.929-1.148l-16.368-10.373a1 1 0 0 1 1.071-1.689l16.368 10.373a5.342 5.342 0 0 0 4.046.704 5.33 5.33 0 0 0 3.358-2.363 5.326 5.326 0 0 0 .704-4.046 5.336 5.336 0 0 0-2.363-3.359l-16.369-10.374a1 1 0 0 1 1.071-1.689l16.368 10.374a7.318 7.318 0 0 1 3.245 4.61 7.32 7.32 0 0 1-.966 5.554 7.323 7.323 0 0 1-4.611 3.245 7.426 7.426 0 0 1-1.625.181"/><path fill="#48515A" d="M171.291 146.61h.01-.01zm-5.381 3.898a7.335 7.335 0 0 1-3.947-1.146l-22.589-14.356a.999.999 0 1 1 1.073-1.687l22.589 14.355c2.476 1.575 5.787.863 7.399-1.583l.019-.029a5.354 5.354 0 0 0 .745-4.116 5.352 5.352 0 0 0-2.42-3.411l-19.443-12.079a1 1 0 0 1 1.056-1.7l19.442 12.079a7.336 7.336 0 0 1 3.317 4.677 7.34 7.34 0 0 1-.989 5.592l-.033.052c-1.412 2.168-3.794 3.352-6.219 3.352zM50.486 126.635l17.703 11.539 24.17-35.97-17.703-11.539-24.17 35.97zm18.263 14.291l-21.054-13.722 26.4-39.29 21.055 13.721-26.401 39.291z"/><path fill="#48515A" d="M169 138.327a1 1 0 0 1-.901-1.432l2.003-4.183 3.671-2.076a1 1 0 0 1 .984 1.74l-3.123 1.768-1.731 3.614a1 1 0 0 1-.903.569m-85.827.87c-1.666 0-3.3.823-4.261 2.329a5.052 5.052 0 0 0 1.538 6.968l.283.18a5.053 5.053 0 0 0 6.968-1.538 5.053 5.053 0 0 0-1.539-6.968l-.283-.18a5.017 5.017 0 0 0-2.706-.791zm.263 12.267a7.003 7.003 0 0 1-3.779-1.104h.001l-.284-.181c-3.274-2.091-4.237-6.455-2.147-9.729a7.052 7.052 0 0 1 9.729-2.148l.283.181c3.274 2.091 4.238 6.455 2.147 9.729a7.046 7.046 0 0 1-5.95 3.252zm31.066 7.727c-.364 0-.732.04-1.097.121a5.01 5.01 0 0 0-3.165 2.212 5.014 5.014 0 0 0-.674 3.802 5.013 5.013 0 0 0 2.212 3.165l.283.18a5.012 5.012 0 0 0 3.803.674 5.01 5.01 0 0 0 3.165-2.212 5.012 5.012 0 0 0 .674-3.801 5.01 5.01 0 0 0-2.213-3.165l-.283-.181a5.002 5.002 0 0 0-2.705-.795zm.26 12.275a6.992 6.992 0 0 1-3.776-1.109l-.283-.181a6.995 6.995 0 0 1-3.09-4.419 6.999 6.999 0 0 1 .942-5.309 6.996 6.996 0 0 1 4.419-3.089 7 7 0 0 1 5.31.941l.283.181a6.992 6.992 0 0 1 3.088 4.419 6.994 6.994 0 0 1-.941 5.309 6.996 6.996 0 0 1-4.42 3.089 7.063 7.063 0 0 1-1.532.168z"/><path fill="#48515A" d="M96.696 141.042a5.214 5.214 0 0 0-4.402 2.407l-2.912 4.561a5.182 5.182 0 0 0-.696 3.929 5.176 5.176 0 0 0 2.286 3.27 5.22 5.22 0 0 0 7.199-1.588l2.911-4.562a5.182 5.182 0 0 0 .697-3.929 5.18 5.18 0 0 0-2.286-3.27 5.178 5.178 0 0 0-2.797-.818zm-2.931 16.985a7.17 7.17 0 0 1-3.87-1.132 7.164 7.164 0 0 1-3.162-4.524 7.168 7.168 0 0 1 .964-5.437l2.911-4.561c2.14-3.352 6.609-4.338 9.961-2.199a7.163 7.163 0 0 1 3.162 4.525 7.16 7.16 0 0 1-.963 5.436l-2.912 4.562a7.216 7.216 0 0 1-6.091 3.33z"/><path fill="#48515A" d="M108.993 144.872c-.377 0-.757.041-1.134.125a5.173 5.173 0 0 0-3.27 2.285l-4.733 7.415a5.179 5.179 0 0 0-.696 3.928 5.176 5.176 0 0 0 2.286 3.27 5.162 5.162 0 0 0 3.928.696 5.175 5.175 0 0 0 3.271-2.285l4.732-7.414a5.182 5.182 0 0 0 .697-3.929 5.18 5.18 0 0 0-2.286-3.27 5.176 5.176 0 0 0-2.795-.821zm-4.756 19.844a7.155 7.155 0 0 1-3.867-1.135 7.164 7.164 0 0 1-3.163-4.525 7.163 7.163 0 0 1 .964-5.435l4.732-7.415a7.167 7.167 0 0 1 4.526-3.163 7.162 7.162 0 0 1 5.435.964 7.168 7.168 0 0 1 3.163 4.525 7.166 7.166 0 0 1-.964 5.436l-4.733 7.414a7.161 7.161 0 0 1-4.524 3.162 7.223 7.223 0 0 1-1.569.172zm7.807-60.766h-18a1 1 0 0 1 0-2h18a1 1 0 1 1 0 2m44.172-1.738l24.17 35.971 16.877-10.743-24.169-35.97-16.878 10.742zm23.597 38.705l-26.401-39.291 20.254-12.89 26.401 39.29-20.254 12.891zM131.953 137.83a.998.998 0 0 1-.7-.3.87.87 0 0 1-.22-.321.994.994 0 0 1-.08-.379c0-.13.03-.26.08-.38.05-.13.12-.231.22-.33.09-.09.2-.161.32-.22.24-.091.52-.101.77 0 .12.059.23.13.32.22.09.099.17.2.22.33.05.12.07.25.07.38 0 .129-.02.259-.07.379-.05.121-.13.231-.22.321-.09.099-.2.17-.32.22-.13.049-.25.08-.39.08M125.343 148.219a.986.986 0 0 1-.71-.29c-.09-.099-.16-.21-.21-.33a.991.991 0 0 1-.08-.38c0-.13.03-.26.08-.38s.12-.229.21-.33c.1-.09.2-.16.33-.21a1 1 0 0 1 1.09.21c.09.101.16.21.21.33.05.12.08.25.08.38s-.03.261-.08.38c-.05.12-.12.231-.21.33a.986.986 0 0 1-.71.29"/><path fill="#475059" d="M71.426 154.698c-5.923 0-10.741 4.818-10.741 10.741s4.818 10.741 10.741 10.741 10.741-4.818 10.741-10.741-4.818-10.741-10.741-10.741zm0 23.482c-7.026 0-12.742-5.716-12.742-12.741 0-7.025 5.716-12.741 12.742-12.741 7.025 0 12.741 5.716 12.741 12.741 0 7.025-5.716 12.741-12.741 12.741z"/><path fill="#475059" d="M71.425 154.698c-2.885 0-5.323 4.919-5.323 10.741s2.438 10.741 5.323 10.741c2.885 0 5.322-4.919 5.322-10.741s-2.437-10.741-5.322-10.741zm0 23.482c-4.106 0-7.323-5.597-7.323-12.741 0-7.145 3.217-12.741 7.323-12.741s7.322 5.596 7.322 12.741c0 7.144-3.216 12.741-7.322 12.741z"/><path fill="#475059" d="M60.044 165.95h23v-2h-23z"/><path fill="#FFD15D" d="M163.003 159.866a2 2 0 1 1-3.999.001 2 2 0 0 1 3.999-.001"/><path fill="#5FE0ED" d="M193.624 137.149l27.373-19.423-30.635-45.576-27.372 19.423 30.634 45.576M55.562 136.335l-26.559-18.609L59.638 72.15l26.559 18.609-30.635 45.576"/><path fill="#48515A" d="M147.044 175.95h2v-4h-2zM147.044 185.95h2v-4h-2zM151.044 179.95h4v-2h-4zM141.044 179.95h4v-2h-4z"/><path fill="#475059" d="M168.915 188.965h18.083v-26h-18.083v26zm-2 2h22.083v-30h-22.083v30z"/><path fill="#475059" d="M172.915 168.965h10.083v-2h-10.083v2zm-2 2h14.083v-6h-14.083v6zm.083 3.958h2v-2h-2v2zm0 4h2v-2h-2v2zm0 4h2v-2h-2v2zm0 4h2v-2h-2v2zm4-12h2v-2h-2v2zm0 4h2v-2h-2v2zm0 4h2v-2h-2v2zm0 4h2v-2h-2v2zm4-12h2v-2h-2v2zm0 4h2v-2h-2v2zm0 4h2v-2h-2v2zm0 4h2v-2h-2v2zm4-12h2v-2h-2v2zm0 4h2v-2h-2v2z"/><path fill="#FFF" d="M183.998 180.924v6.041"/><path fill="#475059" d="M182.998 186.965h2v-6.042h-2z"/><path fill="#48515A" d="M127.03 61.035h22v-2h-22zM110.13 91.035a5.01 5.01 0 0 0 4.9 4h17.105a6.994 6.994 0 0 1-2.034-4H110.13zm26.9 6h-22c-3.86 0-7-3.141-7-7v-1h24v1c0 2.756 2.243 5 5 5s5-2.244 5-5v-24h2v24c0 3.859-3.14 7-7 7z"/><path fill="#48515A" d="M122.03 90.035h-2v-24c0-3.86 3.14-7 7-7 3.52 0 6.442 2.612 6.928 6h19.971a5.008 5.008 0 0 0-4.899-4v-2c3.86 0 7 3.14 7 7v1h-24v-1c0-2.757-2.243-5-5-5s-5 2.243-5 5v24"/></g></svg>