<?xml version="1.0" encoding="utf-8"?><svg xmlns="http://www.w3.org/2000/svg" width="192" height="188" viewBox="0 0 192 188"><g fill="none" fill-rule="evenodd"><path fill="#475059" d="M15 167.023h160v-90H15v90zm-2 2h164v-94H13v94z"/><path fill="#FFD15D" d="M17 165.023h156v-86H17z"/><path fill="#475059" d="M23 159.023h144v-74H23v74zm-2 2h148v-78H21v78z"/><path fill="#475059" d="M33 159.023h4v-74h-4v74zm-2 2h8v-78h-8v78zm26-2h4v-74h-4v74zm-2 2h8v-78h-8v78zm26-2h4v-74h-4v74zm-2 2h8v-78h-8v78zm26-2h4v-74h-4v74zm-2 2h8v-78h-8v78zm26-2h4v-74h-4v74zm-2 2h8v-78h-8v78zm26-2h4v-74h-4v74zm-2 2h8v-78h-8v78zM89.25 27h12V15h-12v12zm-2 2h16V13h-16v16z"/><path fill="#475059" d="M95.249 45.998a7.008 7.008 0 0 1-7-7h2a5 5 0 1 0 5-5h-1V28h2v4.069a7 7 0 0 1-1 13.929M90.667 14h2V0h-2zM97.333 14h2V0h-2z"/><path fill="#475059" d="M173 76.023h-2v-1.339L95.249 42.42 19 74.686v1.337h-2V73.36l78.251-33.113L173 73.362v2.661"/><path fill="#DEDEDD" d="M91.268 25.009h8v-8h-8z"/><path fill="#475059" d="M152.422 49.023h3.577l1.774-4.024 3.296-1.902 4.371.475 1.789-3.099-2.596-3.548V33.12l2.596-3.548-1.789-3.099-4.371.476-3.296-1.903-1.774-4.023h-3.577l-1.774 4.023-3.295 1.903-4.372-.476-1.789 3.099 2.597 3.548v3.805l-2.597 3.548 1.789 3.099 4.372-.475 3.295 1.902 1.774 4.024zm4.882 2h-6.187l-2.035-4.618-2.163-1.25-5.018.546-3.093-5.357 2.981-4.072v-2.498l-2.981-4.073 3.093-5.357 5.018.546 2.163-1.249 2.035-4.618h6.187l2.036 4.618 2.163 1.249 5.017-.546 3.094 5.357-2.981 4.072v2.499l2.981 4.072-3.094 5.357-5.017-.546-2.163 1.25-2.036 4.618z"/><path fill="#475059" d="M154.211 33.023a2 2 0 1 0-.001 3.999 2 2 0 0 0 .001-3.999zm0 6a4 4 0 1 1 0-8 4 4 0 0 1 0 8z"/><path fill="#475059" d="M154.211 29.023a6 6 0 1 0 6 6 6.007 6.007 0 0 0-6-6zm0 14a8 8 0 1 1 8-8 8.01 8.01 0 0 1-8 8z"/><path fill="#48515A" d="M184 54.023h2v-4h-2zM184 64.023h2v-4h-2zM188 58.023h4v-2h-4zM178 58.023h4v-2h-4zM6 170.023h2v-4H6zM6 180.023h2v-4H6zM10 174.023h4v-2h-4zM0 174.023h4v-2H0zM172 178h2v-4h-2zM172 188h2v-4h-2zM176 182h4v-2h-4zM166 182h4v-2h-4z"/><path fill="#F58E70" d="M184 144a2 2 0 1 1 .001 3.999A2 2 0 0 1 184 144m-72-84a2 2 0 1 1 .001 3.999A2 2 0 0 1 112 60M28 180a2 2 0 1 1 .001 3.999A2 2 0 0 1 28 180"/><path fill="#475059" d="M16 57a3 3 0 1 0 0 6h65.171l6.507-3-6.507-3H16zm65.61 8H16a5 5 0 0 1 0-10h65.61l10.843 5-10.843 5z"/><path fill="#475059" d="M22.039 64h2v-8h-2z"/><path fill="#475059" d="M23.039 61h58v-2h-58z"/></g></svg>