<?xml version="1.0" encoding="utf-8"?><svg xmlns="http://www.w3.org/2000/svg" xmlns:xlink="http://www.w3.org/1999/xlink" width="172" height="159" viewBox="0 0 172 159"><defs><path id="sba" d="M.06.487H14v2H.06z"/></defs><g fill="none" fill-rule="evenodd"><path fill="#475059" d="M102.863 156.48h67.003V79.477H92.277l10.586 10.586v66.417zm69.003 2h-71.003V90.892L87.449 77.477h84.417v81.003z"/><path fill="#FFF" d="M53.519 78.437V75.18h3.257V62.151l13.028-9.771V23.811a57.076 57.076 0 0 0-39.593 43.346l13.536 11.28h9.772"/><path fill="#FFF" d="M53.518 78.436v19.543l22.8 22.8h3.257v-45.6h-22.8v3.257h-3.257"/><path fill="#48515A" d="M6 138.487h2v-4H6zM6 148.487h2v-4H6z"/><g transform="translate(0 140)"><mask id="sbb" fill="#fff"><use xlink:href="#sba"/></mask><path fill="#48515A" mask="url(#sbb)" d="M10 2.487h4v-2h-4zM.06 2.487H4v-2H.06z"/></g><path fill="#48515A" d="M159.078 4.457h2v-4h-2zM159.078 14.457h2v-4h-2zM163.078 8.457h4v-2h-4zM153.078 8.457h4v-2h-4z"/><path fill="#FFD15D" d="M35.512 1.489a1.5 1.5 0 1 1-.001 3.001 1.5 1.5 0 0 1 .001-3.001"/><path fill="#FFD15D" d="M35.512 1.989a1 1 0 1 0 0 2 1 1 0 0 0 0-2zm0 3A2 2 0 1 1 35.511.99a2 2 0 0 1 .001 3.999zM19.006 154.487a2.006 2.006 0 1 1-.001 4.013 2.006 2.006 0 0 1 .001-4.013"/><path fill="#FFD15D" d="M19.006 154.987a1.507 1.507 0 1 0 1.506 1.507v-.001a1.508 1.508 0 0 0-1.506-1.506zm0 4.013a2.507 2.507 0 1 1 0-5.014 2.507 2.507 0 0 1 0 5.014zM6.67 14.486a4.326 4.326 0 1 1 0 8.652 4.326 4.326 0 0 1 0-8.652"/><path fill="#FFD15D" d="M6.67 14.986a3.826 3.826 0 1 0 0 7.652 3.826 3.826 0 0 0 0-7.652zm0 8.653a4.827 4.827 0 1 1 4.826-4.827 4.832 4.832 0 0 1-4.826 4.827z"/><path fill="#DEDEDD" d="M157.385 107.012l-4-3.002v-6.998h4v10"/><path fill="#475059" d="M161.397 107.36h-2V95.011h-8.011v4.999h-2v-6.999h12.011v14.349"/><path fill="#F58E70" d="M165.398 113.511l-28.999-26.008-28.999 26.008-1.988-2.13 30.987-27.864 30.986 27.864-1.987 2.13"/><path fill="#5FE0ED" d="M119.394 136.331h3a3 3 0 0 0 3-3v-5.304h-6v8.304m14.005 0h-3a3 3 0 0 1-3-3v-5.304h6v8.304m6.007-16.319h3a3 3 0 0 0 3-3v-5h-6v8m14.005 0h-3a3 3 0 0 1-3-3v-5h6v8m-34.017 0h3a3 3 0 0 0 3-3v-5h-6v8m14.005 0h-3a3 3 0 0 1-3-3v-5h6v8"/><path fill="#475059" d="M111.4 144.011h2v-34.499h-2zM152.396 144.01h-2v-14.999h-6.999v14.999h-2v-16.999h10.999v16.999M159.397 144.083h2v-34.324h-2z"/><path fill="#475059" d="M108.06 114.263l-1.32-1.502 29.659-26.082 29.658 26.081-1.32 1.502-28.338-24.919-28.339 24.92"/><path fill="#475059" d="M120.401 121.012h11.998v-8h-11.998v8zm-2 2h15.998v-12h-15.998v12zm21.998-2h11.998v-8h-11.998v8zm-2 2h15.998v-12h-15.998v12zm-17.998 14.304h11.998v-8.304h-11.998v8.304zm-2 2h15.998v-12.304h-15.998v12.304z"/><path fill="#48515A" d="M108.37 148.013h55.998v-2H108.37z"/><path fill="#DEDEDD" d="M108.37 149.455v3.885l55.998.115v-3.885l-55.998-.115"/><path fill="#475059" d="M146.367 139.012h2v-2h-2zM86.09 139.437c-33.689.002-61.001-27.308-61.002-60.998-.001-33.689 27.308-61 60.998-61.001 32.521-.002 59.324 25.51 60.928 57.992l-1.998.097c-1.626-32.525-29.311-57.575-61.837-55.949-32.526 1.625-57.575 29.311-55.95 61.836 1.626 32.526 29.311 57.576 61.837 55.95a58.9 58.9 0 0 0 8.515-1.051l.389 1.963a61.222 61.222 0 0 1-11.88 1.161"/><g transform="translate(8)"><path fill="#5FE0ED" d="M74.621 75.477h12.787l-2.804-2.803V55.637h29.314V36.094h-3.257l-6.514 6.514 3.257 3.257-3.257 3.258-3.257-3.258h-6.514l-6.515 6.515h-3.257V32.837h16.286v-3.258H87.861l5.934-5.933a56.998 56.998 0 0 0-31.991.165V52.38l-13.028 9.771V75.18h22.8v45.6h-3.258l-22.8-22.8V78.437h-9.771l-13.536-11.28c-6.245 30.839 13.693 60.902 44.532 67.147a56.97 56.97 0 0 0 24.119-.326V91.719L74.621 75.477"/><path fill="#FFD15D" d="M90.863 142.831c-35.574 7.049-70.128-16.076-77.176-51.65-7.049-35.575 16.075-70.128 51.65-77.177 35.575-7.049 70.128 16.075 77.177 51.65a65.685 65.685 0 0 1 1.186 9.823h12.057C154.145 32.55 118.038-.942 75.11.67 32.183 2.283-1.309 38.39.303 81.317c1.613 42.928 37.72 76.42 80.647 74.807a77.54 77.54 0 0 0 9.913-1.011v-12.282"/></g></g></svg>