<?xml version="1.0" encoding="utf-8"?><svg xmlns="http://www.w3.org/2000/svg" xmlns:xlink="http://www.w3.org/1999/xlink" width="192" height="174" viewBox="0 0 192 174"><defs><path id="psa" d="M.996 0H181v173.94H.996z"/></defs><g fill="none" fill-rule="evenodd"><path fill="#DEDEDD" d="M189.703 106.24l-28-12 12.227 29.609 4.833-9.72 7.081 7.08 2.923-2.733-7.297-7.297 8.233-4.939"/><g transform="translate(5)"><mask id="psb" fill="#fff"><use xlink:href="#psa"/></mask><path fill="#FFD15D" d="M87.601 0C57.535 0 32.033 23.891 29.543 53.827l-.261 3.144-3.116.501C9.834 60.118-1.26 75.502 1.386 91.834 3.736 106.34 16.261 117 30.957 117h113.289c20.296.002 36.752-16.449 36.754-36.746.002-19.371-15.033-35.418-34.364-36.676l-2.734-.175-.842-2.607C135.376 16.609 112.978.133 87.601 0" mask="url(#psb)"/><path fill="#475059" d="M84.46 172h13.081l4.527-12.732 11.369-4.708 12.204 5.8 9.25-9.249-5.802-12.204 4.709-11.369 12.732-4.528v-13.081l-12.732-4.527-4.709-11.369 5.802-12.204-9.25-9.25-12.204 5.801-11.369-4.709-4.527-12.731H84.46l-4.528 12.731-11.369 4.709-12.204-5.801-9.25 9.25 5.802 12.204-4.709 11.369-12.732 4.527v13.081l12.732 4.528 4.709 11.369-5.802 12.204 9.25 9.249 12.204-5.8 11.369 4.708L84.46 172zm14.492 2H83.048l-4.703-13.224-9.726-4.029-12.676 6.025-11.246-11.245 6.026-12.676-4.029-9.726-13.224-4.704v-15.903l13.224-4.703 4.029-9.726-6.026-12.676 11.246-11.246 12.676 6.026 9.726-4.029 4.703-13.224h15.904l4.703 13.224 9.726 4.029 12.676-6.026 11.246 11.246-6.026 12.676 4.029 9.726 13.224 4.703v15.903l-13.224 4.704-4.029 9.726 6.026 12.676-11.246 11.245-12.676-6.025-9.726 4.029L98.952 174z" mask="url(#psb)"/></g><path fill="#475059" d="M96 103.463c-7.184-.004-13.011 5.815-13.015 12.999-.004 7.184 5.816 13.011 12.999 13.015 7.184.004 13.011-5.816 13.015-12.999a13.008 13.008 0 0 0-.989-4.983A13.029 13.029 0 0 0 96 103.463zm0 28.015c-8.287.002-15.006-6.714-15.008-15.001-.002-8.287 6.714-15.006 15.001-15.008a15.004 15.004 0 0 1 13.865 9.26c3.165 7.667-.484 16.447-8.15 19.612A15.004 15.004 0 0 1 96 131.478z"/><path fill="#475059" d="M96 99.46c-9.41-.016-17.052 7.599-17.068 17.009-.017 9.411 7.599 17.052 17.009 17.069 9.41.016 17.052-7.599 17.068-17.009A17.037 17.037 0 0 0 96 99.46zm.024 36.01c-10.494.015-19.013-8.481-19.028-18.976C76.982 106 85.478 97.48 95.972 97.466c10.495-.014 19.014 8.481 19.028 18.976a19 19 0 0 1-18.976 19.028z"/><path fill="#DEDEDD" d="M149.531 121.599v-5.197c-2.044.397-4.12.597-6.201.598h-13.341c-.279 18.771-15.722 33.762-34.493 33.482-18.378-.273-33.209-15.105-33.483-33.482H42.628c-.053 0-.105-.004-.158-.004v4.603l12.239 4.352 5.39 13.012-5.577 11.732 7.253 7.253 11.732-5.577 13.012 5.389L90.871 170h10.258l4.352-12.239 13.012-5.39 11.732 5.577 7.253-7.253-5.577-11.733 5.39-13.011 12.24-4.352"/><path fill="#DEDEDD" d="M116.977 117c-.261 11.584-9.863 20.763-21.447 20.502-11.217-.253-20.249-9.286-20.502-20.502h-5.016c.288 14.353 12.156 25.755 26.508 25.468 13.948-.28 25.189-11.52 25.468-25.468h-5.011"/><path fill="#F58E70" d="M85.025 117c.285 6.061 5.429 10.744 11.49 10.459A10.987 10.987 0 0 0 106.974 117H85.025"/><path fill="#48515A" d="M16 118.903h2v-4h-2zM16 128.903h2v-4h-2zM20 122.903h4v-2h-4zM10 122.903h4v-2h-4zM184 76.897h2v-4h-2zM184 86.897h2v-4h-2zM188 80.897h4v-2h-4zM178 80.897h4v-2h-4zM6 44.921h2v-4H6zM6 54.921h2v-4H6zM10 48.921h4v-2h-4zM0 48.921h4v-2H0z"/><path fill="#475059" d="M123 60.111h3.578l1.774-4.024 3.295-1.902 4.372.476 1.789-3.1-2.598-3.547v-3.806l2.598-3.547-1.789-3.1-4.372.476-3.295-1.903-1.774-4.023H123l-1.774 4.023-3.296 1.903-4.371-.476-1.789 3.1 2.597 3.547v3.806l-2.597 3.547 1.789 3.1 4.371-.476 3.296 1.902L123 60.111zm4.881 2h-6.185l-2.037-4.618-2.163-1.249-5.017.546-3.093-5.357 2.981-4.073v-2.498l-2.981-4.072 3.093-5.357 5.017.545 2.163-1.249 2.037-4.618h6.185l2.037 4.618 2.163 1.249 5.018-.545 3.092 5.356-2.981 4.073v2.498l2.981 4.073-3.092 5.356-5.018-.545-2.163 1.249-2.037 4.618z"/><path fill="#475059" d="M124.789 44.111a2 2 0 1 0-.001 3.999 2 2 0 0 0 .001-3.999zm0 6a4 4 0 1 1 0-8 4 4 0 0 1 0 8z"/><path fill="#475059" d="M124.789 40.111a6 6 0 1 0 0 12 6 6 0 0 0 0-12zm0 14a8 8 0 0 1-8-8 8 8 0 1 1 16 0 8.01 8.01 0 0 1-8 8z"/><path fill="#5FE0ED" d="M162.551 125.143a2.439 2.439 0 1 1-.001 4.877 2.439 2.439 0 0 1 .001-4.877"/><path fill="#F58E70" d="M39.358 138.06a2.437 2.437 0 1 1 .001 4.875 2.437 2.437 0 0 1-.001-4.875"/><path fill="#FFD15D" d="M156.547 25.083a2.438 2.438 0 1 1 0 4.876 2.438 2.438 0 0 1 0-4.876"/><path fill="#FFF" d="M179.697 96.234l-28-12 12.227 29.609 4.833-9.72 8.111 8.111 2.829-2.829-8.233-8.232 8.233-4.939"/><path fill="#48515A" d="M153.557 86.119l10.451 25.309 4.473-8.995 8.387 8.387 1.415-1.415-8.431-8.431 7.653-4.591-23.948-10.264zm10.282 30.14l-14.003-33.91 32.052 13.736-8.811 5.287 8.034 8.033-4.243 4.243-7.834-7.834-5.195 10.445z"/></g></svg>