<?xml version="1.0" encoding="utf-8"?><svg xmlns="http://www.w3.org/2000/svg" width="192" height="178" viewBox="0 0 192 178"><g fill="none" fill-rule="evenodd"><path fill="#48515A" d="M66.013 171.995h66v-16h-66v16zm-2 2h70v-20h-70v20z"/><path fill="#FFD15D" d="M34.013 39.995v25c.022 18.932 15.077 34.423 34 34.987V39.995h-34zm-2 25v-27h38v64h-1c-20.425-.023-36.977-16.575-37-37z"/><path fill="#48515A" d="M38.013 43.995v21c.098 14.645 10.353 27.257 24.669 30.342a37.208 37.208 0 0 1-.669-7.008V43.995h-24zm27.274 53.818l-1.472-.234c-15.961-2.65-27.697-16.405-27.802-32.584v-23h28v46.334c.001 2.704.314 5.4.933 8.033l.341 1.451zm70.726-53.818v44.334c0 2.352-.224 4.698-.669 7.008 14.317-3.085 24.571-15.697 24.669-30.342v-21h-24zm-3.273 53.818l.341-1.451c.619-2.633.932-5.329.932-8.033V41.995h28v23c-.105 16.179-11.841 29.933-27.802 32.584l-1.471.234zm-55.794 56.182h44.135l-3.027-4.278-16.042-5.662v-20.871l.89-.099a34.931 34.931 0 0 0 27.16-18.601l.265-.509.573-.028c20.794-.978 37.141-18.135 37.113-38.952v-29h-34v-5.001h-70v5.001h-34v29c-.028 20.816 16.319 37.974 37.112 38.952l.574.028.265.509a34.932 34.932 0 0 0 27.158 18.601l.89.098v20.873l-16.039 5.661-3.027 4.278zm48 2H73.081l5.626-7.952 15.305-5.402v-17.678a36.925 36.925 0 0 1-27.553-19.049c-21.622-1.32-38.474-19.256-38.446-40.919v-31h34v-5.001h74v5.001h34v31c.028 21.663-16.824 39.599-38.447 40.919a36.92 36.92 0 0 1-27.554 19.049v17.677l15.307 5.403 5.627 7.952z"/><path fill="#FFD15D" d="M68.013 169.995h62v-12h-62zM98.013 145.471v-8.475l2 2v6.475l16.775 5.921.427.604H80.81l.427-.604 16.776-5.921M131.99 99.865c18.099-1.566 32-16.703 32.023-34.87v-25h-30.001v-2h32.001v27c-.024 19.61-15.327 35.804-34.904 36.937l.881-2.067m-14.145-85.869a2 2 0 1 1 .001 3.999 2 2 0 0 1-.001-3.999m-29.017 2.002a3 3 0 1 1 0 6 3 3 0 0 1 0-6M103.837.988a2 2 0 1 1 .001 3.999 2 2 0 0 1-.001-3.999M77.821 7.992a1 1 0 1 1 .002 1.998 1 1 0 0 1-.002-1.998"/><path fill="#48515A" d="M98.949 49.31c-10.493 0-19 8.506-19 19 0 10.493 8.507 19 19 19 10.494 0 19-8.507 19-19-.012-10.489-8.511-18.988-19-19zm0 40c-11.598 0-21-9.402-21-21s9.402-21 21-21 21 9.402 21 21c-.013 11.592-9.407 20.987-21 21z"/><path fill="#48515A" d="M95.955 79.99h6v-9.001h9.001v-6.001l-9.001.001V55.99h-6v8.999l-8.999.001v6l8.999-.001v9.001zm8 2h-10v-9.001l-8.999.001v-10l8.999-.001V53.99h10v8.999l9.001-.001v10.001h-9.001v9.001z"/><path fill="#48515A" d="M97.956 59.991h2v-2h-2zM97.956 78.002h2v-2h-2zM88.951 68.997h2v-2h-2zM106.962 68.997h2v-2h-2zM98.956 66.99a1 1 0 1 0 0 2 1 1 0 0 0 0-2zm0 4a3 3 0 1 1 0-6 3 3 0 0 1 0 6z"/><path fill="#FFD15D" d="M98.95 91.31c-12.703.002-23.002-10.293-23.005-22.996-.002-12.703 10.293-23.002 22.996-23.004a23.001 23.001 0 0 1 20.239 12.065V32.994H66.013v55.335c.083 15.718 11.18 29.223 26.583 32.353 15.404-3.13 26.5-16.635 26.584-32.353v-9.085A23.02 23.02 0 0 1 98.95 91.31"/><path fill="#5FE0ED" d="M175.763 73.414a4.333 4.333 0 1 1 0 8.667 4.333 4.333 0 0 1 0-8.667M33.02 135.65a1.667 1.667 0 1 1 0 3.334 1.667 1.667 0 0 1 0-3.334m119.75 22.167a4 4 0 1 1 0 8 4 4 0 0 1 0-8"/><path fill="#FFF" d="M137.66 127.793l-.22-.131.292-.159-.072.29zm-12.267-.394l5.054 3.246a188.1 188.1 0 0 1-32.763 25.509 8.983 8.983 0 0 0-15.356 8.085c-2.921 1.302-5.823 2.476-8.69 3.475-18.859 6.573-33.848 5.591-42.205-2.766l-4.242 4.242c5.855 5.856 14.115 8.81 24.163 8.81 7.237 0 15.402-1.534 24.258-4.621 3.285-1.145 6.611-2.501 9.957-4.022a8.986 8.986 0 0 0 14.536-7.081c0-.193-.017-.381-.029-.57a194.555 194.555 0 0 0 35.813-27.984l5.662 3.37 5.261-21.377-21.419 11.684z"/><path fill="#48515A" d="M133.402 127.586l5.555 3.307 1.802-7.319-7.357 4.012zm-82.047 48.418c-9.505 0-17.28-2.757-22.75-8.228l1.414-1.414c8.93 8.93 24.654 10.08 44.277 3.24 19.559-6.817 40.595-20.747 59.346-39.282l-4.33-2.781 14.473-7.894-3.531 14.347-4.671-2.78c-19.093 19.004-40.608 33.301-60.629 40.279-8.649 3.014-16.594 4.513-23.599 4.513zM179.62 58.922l-1.957-.41c3.091-14.745.924-26.339-6.265-33.529l1.415-1.414c7.689 7.69 10.043 19.915 6.807 35.353"/><path fill="#FFF" d="M91.105 156.276a6 6 0 1 1 0 12 6 6 0 0 1 0-12"/><path fill="#48515A" d="M91.105 157.276a5 5 0 1 0 0 10 5 5 0 0 0 0-10zm0 12a7 7 0 1 1 7-7 7.007 7.007 0 0 1-7 7zm86.996-105.999a1.104 1.104 0 0 1-.19-.02.638.638 0 0 1-.19-.06.553.553 0 0 1-.17-.089.995.995 0 0 1-.37-.451.982.982 0 0 1-.07-.38.99.99 0 0 1 .29-.71.624.624 0 0 1 .15-.12.553.553 0 0 1 .17-.089.703.703 0 0 1 .19-.061 1.01 1.01 0 0 1 1.12 1.36 1.183 1.183 0 0 1-.22.33c-.19.186-.444.29-.71.29m-148.79 104.79a.99.99 0 1 1 .71-.29 1.026 1.026 0 0 1-.71.29m5.35-64.39a.997.997 0 0 1-.301-1.378l.001-.002a1.001 1.001 0 0 1 1.38-.299c.466.296.604.913.31 1.379a1.004 1.004 0 0 1-1.39.3zm-2.09 3.491a1.007 1.007 0 0 1-.35-1.371.987.987 0 0 1 1.347-.363l.023.013a.986.986 0 0 1 .357 1.348l-.007.013a1.004 1.004 0 0 1-.86.5 1.064 1.064 0 0 1-.51-.14zm-2 3.529a1.002 1.002 0 0 1-.39-1.36 1.009 1.009 0 0 1 1.37-.379.999.999 0 0 1-.5 1.87.941.941 0 0 1-.48-.131zm-1.84 3.631a1.01 1.01 0 0 1-.51-1.321.989.989 0 0 1 1.32-.509c.503.225.731.814.51 1.319a1.005 1.005 0 0 1-.92.59.947.947 0 0 1-.4-.079zm-1.54 3.75a1 1 0 0 1-.561-1.298l.001-.003a.999.999 0 0 1 1.3-.55v.001c.512.205.763.786.56 1.299a.996.996 0 0 1-.93.621.955.955 0 0 1-.37-.07zm-1.41 3.809a.997.997 0 0 1-.601-1.276l.001-.004a.99.99 0 0 1 1.28-.6.995.995 0 0 1 .604 1.27l-.004.011c-.146.393-.52.656-.94.659a.986.986 0 0 1-.34-.06zm-1.25 3.861a.998.998 0 0 1-.661-1.246l.001-.004c.168-.528.73-.822 1.26-.661.523.168.813.726.65 1.25v.011a1.004 1.004 0 0 1-.95.699 1.052 1.052 0 0 1-.3-.049zm-1.08 3.909a.998.998 0 0 1-.711-1.217l.001-.002a1 1 0 0 1 1.22-.71 1.001 1.001 0 0 1-.25 1.969.768.768 0 0 1-.26-.04zm-.88 3.971a1.01 1.01 0 0 1-.78-1.19 1 1 0 0 1 1.18-.77c.539.106.889.63.782 1.169l-.002.011a1.006 1.006 0 0 1-1.18.779v.001zm-.67 4a1.005 1.005 0 0 1-.84-1.141c.085-.545.594-.92 1.14-.839.545.08.922.588.841 1.133l-.001.007a1 1 0 0 1-1.14.839v.001zm-.4 4.04c-.55-.05-.959-.53-.92-1.081a.998.998 0 0 1 1.078-.91h.002a1 1 0 0 1 .92 1.075v.005a1.002 1.002 0 0 1-1 .911h-.08zm-.11 4.06a1.004 1.004 0 0 1-.99-1.011.987.987 0 0 1 .986-.989h.014c.551.001.998.448 1 1a1.01 1.01 0 0 1-1 1h-.01zm-.84 3.129c-.039-.55.37-1.03.92-1.08a1.013 1.013 0 0 1 1.08.92 1.012 1.012 0 0 1-.92 1.08h-.08a1.002 1.002 0 0 1-1-.92zm.57 4.13a.994.994 0 0 1 .79-1.17.994.994 0 0 1 1.168.781l.002.009a.994.994 0 0 1-.781 1.169l-.009.001a.995.995 0 0 1-1.17-.79zm1.03 4.051a1.003 1.003 0 0 1 .64-1.261 1.017 1.017 0 0 1 1.27.64h-.01a.994.994 0 0 1-.629 1.257l-.011.003c-.1.032-.205.049-.31.051a1.007 1.007 0 0 1-.95-.69zm1.58 3.889a1.003 1.003 0 0 1 .45-1.34 1 1 0 0 1 1.34.46c.239.495.039 1.09-.45 1.34a1.03 1.03 0 0 1-.45.1.984.984 0 0 1-.89-.56zm2.15 3.62a.995.995 0 0 1 .238-1.388l.002-.002a.995.995 0 0 1 1.388.227l.002.003a1.015 1.015 0 0 1-.23 1.401 1.042 1.042 0 0 1-.58.179.972.972 0 0 1-.82-.42zm11.63-64.049a.99.99 0 0 1-1-.981v-.019c.002-.265.106-.52.29-.71a1.047 1.047 0 0 1 1.42 0c.184.19.288.445.29.71a.991.991 0 0 1-.981 1h-.019m111.65-84.181a1.004 1.004 0 0 1 1-1c.552.002.998.449 1 1a1.002 1.002 0 0 1-1 1 .996.996 0 0 1-1-.992v-.008zm-4 .23a1.022 1.022 0 0 1 .93-1.08 1.006 1.006 0 0 1 1.07.931.996.996 0 0 1-.919 1.069h-.081a1.002 1.002 0 0 1-1-.92zm8.9.951a1 1 0 0 1-.9-1.09v-.001a.983.983 0 0 1 1.08-.9v-.009c.552.051.958.538.91 1.089-.05.516-.483.909-1 .911h-.09zm-12.86-.451a.99.99 0 0 1 .828-1.128l.012-.001a1.004 1.004 0 0 1 1.14.848v.002a1.017 1.017 0 0 1-.85 1.13c-.05 0-.1.009-.14.009a1 1 0 0 1-.99-.86zm16.71 1a1.002 1.002 0 0 1-.78-1.179.992.992 0 0 1 1.166-.781h.004a.992.992 0 0 1 .793 1.156l-.003.014a1.002 1.002 0 0 1-1.18.79zm-20.64-.259a.997.997 0 0 1 .774-1.179l.006-.002a1.003 1.003 0 0 1 1.18.78 1.016 1.016 0 0 1-.99 1.2.993.993 0 0 1-.97-.799zm24.39 1.239a.992.992 0 0 1-.633-1.251l.003-.008c.172-.524.735-.81 1.26-.64a1.002 1.002 0 0 1-.32 1.95.821.821 0 0 1-.31-.051zm-28.28-.299a.996.996 0 0 1 .71-1.218l.01-.003a1.009 1.009 0 0 1 1.22.721 1.008 1.008 0 0 1-.97 1.25.996.996 0 0 1-.97-.75zm-3.84 1.12a1.005 1.005 0 0 1 .66-1.25 1.003 1.003 0 0 1 .59 1.92 1.007 1.007 0 0 1-1.25-.67zm35.69.65a.994.994 0 0 1-.455-1.33l.005-.011a.988.988 0 0 1 1.319-.46l.021.011c.492.247.693.845.45 1.339a1.006 1.006 0 0 1-1.34.451zm-39.48.639a1.003 1.003 0 1 1 .94.671.997.997 0 0 1-.94-.671zm42.77 1.33a.997.997 0 0 1-.24-1.389 1.006 1.006 0 0 1 1.4-.24c.449.323.552.949.23 1.399a.984.984 0 0 1-.81.411c-.207 0-.41-.063-.58-.181zm-46.5.1a.994.994 0 0 1 .55-1.295l.01-.004a1.01 1.01 0 0 1 1.3.56 1.008 1.008 0 0 1-.93 1.369.995.995 0 0 1-.93-.63zm-3.69 1.551a.993.993 0 0 1 .514-1.307l.006-.003a1 1 0 0 1 1.318.516l.002.004a.998.998 0 0 1-.52 1.309.97.97 0 0 1-.4.091 1 1 0 0 1-.92-.61zm53.11.82a.998.998 0 0 1-.001-1.41l.001-.001a.995.995 0 0 1 1.408-.001l.002.001a.997.997 0 0 1 .002 1.409l-.002.002a.97.97 0 0 1-.7.299.973.973 0 0 1-.71-.299zm-56.74.859a.997.997 0 0 1 .474-1.327l.006-.003a1.006 1.006 0 0 1 1.33.48c.232.5.018 1.094-.48 1.33a1.084 1.084 0 0 1-.43.101 1.008 1.008 0 0 1-.9-.581z"/><path fill="#FFF" d="M125.015 19.457a2.908 2.908 0 1 1 .001 5.817 2.908 2.908 0 0 1-.001-5.817"/><path fill="#48515A" d="M125.015 20.457a1.91 1.91 0 1 0 0 3.819 1.91 1.91 0 0 0 0-3.819zm0 5.818a3.909 3.909 0 1 1 0-7.818 3.909 3.909 0 0 1 0 7.818z"/><path fill="#FFF" d="M129.341 60.208l-.131.22-.159-.291.29.071zm-.394 12.267l3.246-5.054c10.114 10.477 25.509 32.764 25.509 32.764s7.452 15.497 8.085 15.356c1.302 2.92 2.476 5.823 3.475 8.69 6.573 18.859 5.591 33.847-2.766 42.204l4.242 4.243c5.856-5.856 8.81-14.116 8.81-24.163 0-7.237-1.534-15.403-4.621-24.259-1.145-3.285-4.022-9.957-4.022-9.957l-7.651-14.507s-16.822-24.436-27.984-35.813l3.37-5.661-21.377-5.262 11.684 21.419z"/><path fill="#48515A" d="M125.122 57.109l4.012 7.357 3.307-5.555-7.319-1.802zm44.202 112.154l-1.414-1.414c8.929-8.929 10.08-24.654 3.24-44.277-6.817-19.559-20.747-40.594-39.282-59.346l-2.781 4.33-7.894-14.473 14.348 3.531-2.781 4.671c19.004 19.093 33.301 40.609 40.279 60.629 7.106 20.387 5.787 36.848-3.715 46.349zM26.531 26.47l-1.414-1.414c4.527-4.528 10.643-7.213 18.176-7.981a56.437 56.437 0 0 1 17.177 1.173l-.41 1.957a54.49 54.49 0 0 0-16.563-1.141c-7.064.721-12.772 3.212-16.966 7.406m37.29-5.702a1.345 1.345 0 0 1-.19-.02c-.07-.02-.13-.04-.19-.061-.06-.03-.12-.059-.17-.089a.649.649 0 0 1-.15-.131.978.978 0 0 1 0-1.409.649.649 0 0 1 .15-.131c.05-.029.11-.059.17-.09a1.02 1.02 0 0 1 .19-.049.83.83 0 0 1 .39 0c.061.012.121.028.18.049.07.031.12.061.18.09a1.216 1.216 0 0 1 .37.451.998.998 0 0 1 .07.39.962.962 0 0 1-.29.699c-.047.047-.098.09-.15.131-.06.03-.11.059-.18.089l-.18.061a1.489 1.489 0 0 1-.2.02m71.87 155.63a1.026 1.026 0 0 1-1-1c.002-.134.03-.267.08-.391a.882.882 0 0 1 .22-.319 1.032 1.032 0 0 1 1.41 0c.093.091.168.199.22.319.047.125.071.257.07.391a.97.97 0 0 1-.29.7 1 1 0 0 1-.71.3m29.15-4.741a.985.985 0 0 1 .214-1.378l.016-.011a.994.994 0 0 1 1.388.227l.002.003a.994.994 0 0 1-.23 1.389.96.96 0 0 1-.58.191.97.97 0 0 1-.81-.421zm-3.4 1.89a.986.986 0 0 1 .421-1.33l.019-.009a.986.986 0 0 1 1.332.413l.008.016a.998.998 0 0 1-.44 1.35 1.018 1.018 0 0 1-.45.111.994.994 0 0 1-.89-.551zm-3.64 1.38a1.007 1.007 0 0 1 .63-1.27 1.001 1.001 0 0 1 1.27.62 1.001 1.001 0 0 1-.62 1.27.931.931 0 0 1-.33.06 1.028 1.028 0 0 1-.95-.68zm-3.77.91a.988.988 0 0 1 .754-1.176l.016-.004a.99.99 0 0 1 1.177.754l.003.016a.988.988 0 0 1-.753 1.177l-.017.003a.75.75 0 0 1-.2.03 1.003 1.003 0 0 1-.98-.8zm-14.62 1.161a1.003 1.003 0 0 1-.87-1.12v-.001c.069-.549.57-.938 1.119-.87h.001a.99.99 0 0 1 .86 1.12.992.992 0 0 1-.98.88c-.05 0-.09-.009-.13-.009zm10.76-.661a1.001 1.001 0 0 1 .889-1.1h.001a1.008 1.008 0 0 1 1.1.89.998.998 0 0 1-.888 1.1l-.002.001a.336.336 0 0 1-.1.009c-.514 0-.946-.388-1-.9zm-6.83 1.031a1.006 1.006 0 0 1-.94-1.06.997.997 0 0 1 1.058-.931h.002a1 1 0 0 1 .94 1.054v.007a.99.99 0 0 1-1 .93h-.06zm2.95-.89a.989.989 0 0 1 .967-1.01l.013-.001a1.004 1.004 0 0 1 1.02.98 1.004 1.004 0 0 1-.989 1.02h-.011a1 1 0 0 1-1-.989z"/><path fill="#48515A" d="M168.621 169.558a1.342 1.342 0 0 1-.2-.02.738.738 0 0 1-.19-.06.547.547 0 0 1-.17-.091 1.91 1.91 0 0 1-.15-.119 1.01 1.01 0 0 1-.29-.71.966.966 0 0 1 .44-.83.559.559 0 0 1 .17-.091.666.666 0 0 1 .19-.059.961.961 0 0 1 .58.059.99.99 0 0 1 .32.211c.099.09.174.203.22.329a1 1 0 0 1 .08.381c-.004.55-.449.996-1 1M25.071 26.427a.995.995 0 0 1-.002-1.407l.002-.002a1.008 1.008 0 0 1 1.42 0 .995.995 0 0 1 .001 1.408l-.001.001a.98.98 0 0 1-.71.29.98.98 0 0 1-.71-.29zm-2.45 3.161a1.007 1.007 0 0 1-.23-1.4.993.993 0 0 1 1.385-.234l.005.004a.994.994 0 0 1 .23 1.39.972.972 0 0 1-.81.42 1.02 1.02 0 0 1-.58-.181v.001zm-1.92 3.5a.997.997 0 0 1-.453-1.334l.003-.006c.25-.49.845-.69 1.34-.45a.992.992 0 0 1 .45 1.339 1 1 0 0 1-.89.56 1.023 1.023 0 0 1-.45-.11v.001zm-1.39 3.75a.992.992 0 0 1-.633-1.252l.003-.008a.998.998 0 0 1 1.256-.642l.004.002c.526.175.813.742.64 1.27a.995.995 0 0 1-.95.679.872.872 0 0 1-.32-.05v.001zm-.89 3.899a1.01 1.01 0 0 1-.79-1.179c.111-.541.639-.89 1.18-.781a.992.992 0 0 1 .781 1.165l-.001.005a.994.994 0 0 1-1.17.79zm-.46 3.971a.99.99 0 0 1-.911-1.065l.001-.015v-.01a1.007 1.007 0 0 1 1.09-.901 1 1 0 0 1 .9 1.091.998.998 0 0 1-.99.909.273.273 0 0 1-.09-.009zm-1.09 3a.996.996 0 0 1 .993-1h.007a.987.987 0 0 1 .99.985v.015a.992.992 0 0 1-.981 1h-.019a.988.988 0 0 1-.99-.986v-.014zm.15 4.069a.996.996 0 0 1 .919-1.069h.001a.997.997 0 0 1 1.07.919v.001a.996.996 0 0 1-.919 1.069h-.001a.2.2 0 0 1-.08.011 1.002 1.002 0 0 1-.99-.931zm.44 4.04a1 1 0 1 1 1.139.849l-.009.002a1 1 0 0 1-1.13-.851zm.69 4a1.002 1.002 0 0 1 .78-1.18 1.005 1.005 0 0 1 1.18.79.988.988 0 0 1-.765 1.168l-.015.003a.708.708 0 0 1-.2.02.995.995 0 0 1-.98-.801zm.91 3.951a.997.997 0 0 1 .709-1.218l.011-.003a1.002 1.002 0 0 1 .49 1.94.992.992 0 0 1-1.21-.719zm1.09 3.889a.99.99 0 0 1 .657-1.238l.003-.001a.998.998 0 0 1 1.249.656l.001.004a.996.996 0 0 1-.656 1.248l-.004.002a1.053 1.053 0 0 1-.3.04.99.99 0 0 1-.95-.711zm1.26 3.841v.009a.994.994 0 0 1 .61-1.279.996.996 0 0 1 1.27.609v.001a.995.995 0 0 1-.61 1.28.972.972 0 0 1-.33.05.985.985 0 0 1-.94-.67zm1.4 3.79a1.004 1.004 0 1 1 1.87-.73 1.002 1.002 0 0 1-.94 1.359 1.006 1.006 0 0 1-.93-.629zm1.54 3.73a1.011 1.011 0 0 1 .52-1.321 1.003 1.003 0 1 1 .804 1.839l-.004.002a1.118 1.118 0 0 1-.4.08 1.028 1.028 0 0 1-.92-.6zm1.66 3.67a1.006 1.006 0 0 1 .48-1.33.993.993 0 0 1 1.325.469l.005.011a.993.993 0 0 1-.47 1.33 1.096 1.096 0 0 1-.43.089 1.021 1.021 0 0 1-.91-.569z"/><path fill="#FFF" d="M40.924 15.911a2.91 2.91 0 1 1 0 5.819 2.91 2.91 0 0 1 0-5.819"/><path fill="#48515A" d="M40.924 16.912a1.909 1.909 0 1 0 0 3.818 1.909 1.909 0 0 0 0-3.818zm0 5.818a3.909 3.909 0 1 1 0-7.818 3.909 3.909 0 0 1 0 7.818zM6 86.984h2v-4H6zM6 96.984h2v-4H6zM10 90.984h4v-2h-4zM0 90.984h4v-2H0zM184 96.984h2v-4h-2zM184 106.984h2v-4h-2zM188 100.984h4v-2h-4zM178 100.984h4v-2h-4zM46 154.984h2v-4h-2zM46 164.984h2v-4h-2zM50 158.984h4v-2h-4zM40 158.984h4v-2h-4z"/><path fill="#DEDEDD" d="M75.634 134.241l-28-12 12.228 29.61 4.833-9.721 8.111 8.111 2.828-2.828-8.232-8.233 8.232-4.939"/><path fill="#FFF" d="M65.628 122.234l-28-12 12.228 29.61 4.833-9.721 8.111 8.111 2.828-2.829-8.232-8.232 8.232-4.939"/><path fill="#48515A" d="M39.488 112.119l10.452 25.309 4.473-8.995 8.387 8.387 1.414-1.415-8.431-8.431 7.654-4.591-23.949-10.264zm10.283 30.14l-14.003-33.91 32.051 13.736-8.81 5.287 8.033 8.033-4.242 4.243-7.835-7.835-5.194 10.446z"/><path fill="#FFD15D" d="M156.011 132.998a4 4 0 1 1 0 8 4 4 0 0 1 0-8"/><path fill="#FFD15D" d="M156.011 142.998a6 6 0 1 1 6-6 6.007 6.007 0 0 1-6 6zm0-14a8 8 0 1 0 0 16 8 8 0 0 0 8-8 8 8 0 0 0-8-8zM6.011 117.944l3 2.924-.708 4.13 3.708-1.95 3.708 1.95-.708-4.13 3-2.924-4.146-.602-1.854-3.757-1.854 3.757zM176.011 115.944l3 2.924-.708 4.13 3.708-1.95 3.708 1.95-.708-4.13 3-2.924-4.146-.602-1.854-3.757-1.854 3.757z"/></g></svg>