<?xml version="1.0" encoding="utf-8"?><svg xmlns="http://www.w3.org/2000/svg" width="250" height="250" viewBox="0 0 250 250"><g fill="none" fill-rule="evenodd"><path fill="#5FE0ED" d="M163.502 175.037h-1.967v-33.275l-11.925 13.163-10.836.117-23.27-22.118-11.532 11.966c.218.658.339 1.359.339 2.089a6.665 6.665 0 0 1-6.657 6.657 6.664 6.664 0 0 1-6.657-6.657c0-.726.12-1.423.336-2.078l-6.229-6.229a6.532 6.532 0 0 1-4.143-.001l-25.426 25.444v12.922h107.969l-.002-2m-.967-67.188l-7.727 7.439c.208.644.314 1.33.314 2.042 0 3.67-2.99 6.657-6.661 6.657-3.671 0-6.659-2.987-6.659-6.657 0-.726.12-1.423.336-2.078l-2.18-2.179a6.619 6.619 0 0 1-2.078.337 6.617 6.617 0 0 1-2.097-.344l-4.189 4.108a12.077 12.077 0 0 1 2.138 4.874l10.373 10.374 15.409-16.106 3.021-1.024v-7.443"/><path fill="#FFF" d="M123.801 133.702a29.697 29.697 0 0 1-7.223-5.295l-1.716-1.759a4.768 4.768 0 0 1 .086-6.744l1.927-1.848-5.552-5.677c-.656-.656-.856-1.684-.398-2.492a2.007 2.007 0 0 1 3.178-.458l8.804 8.804-1.646-1.645a3.001 3.001 0 0 1 0-4.243l.729-.729 6.329 6.328a9 9 0 0 1 2.558 5.182l.441 3.327"/><path fill="#475059" d="M123.336 134.588a30.677 30.677 0 0 1-7.465-5.474l-1.725-1.768a5.727 5.727 0 0 1-1.638-4.1 5.728 5.728 0 0 1 1.742-4.058l1.204-1.155-4.846-4.955c-.989-.989-1.22-2.507-.552-3.684a3.016 3.016 0 0 1 2.227-1.524 2.995 2.995 0 0 1 2.527.852l4.71 4.71a3.982 3.982 0 0 1 1.034-1.794l1.436-1.436 7.036 7.035a10.048 10.048 0 0 1 2.842 5.757l.442 3.328-1.983.262-.441-3.327a8.046 8.046 0 0 0-2.274-4.606l-5.622-5.621-.022.022a2.003 2.003 0 0 0-.023 2.805l1.669 1.669-1.414 1.414-1.646-1.645-.033-.034-7.125-7.125a.997.997 0 0 0-.844-.284 1.016 1.016 0 0 0-.757.529c-.221.39-.122.933.235 1.291l6.265 6.407-2.655 2.547a3.742 3.742 0 0 0-1.133 2.645 3.744 3.744 0 0 0 1.071 2.678l1.716 1.759a28.638 28.638 0 0 0 6.971 5.108l-.929 1.772"/><path fill="#48515A" d="M106.535 111.036h-2a1 1 0 1 1 0-2h2a1 1 0 0 1 0 2m5-5a1 1 0 0 1-1-1v-2a1 1 0 1 1 2 0v2a1 1 0 0 1-1 1m-4.693 10.081a.999.999 0 0 1-.707-1.707l1.127-1.127a.999.999 0 1 1 1.414 1.414l-1.127 1.127a.993.993 0 0 1-.707.293m8.877-8.877a.999.999 0 0 1-.707-1.707l1.022-1.022a.999.999 0 1 1 1.414 1.414l-1.022 1.022a.997.997 0 0 1-.707.293m-7.552.303c-.256 0-.512-.098-.708-.293l-1.325-1.325a1 1 0 0 1 1.414-1.414l1.326 1.325a1 1 0 0 1-.707 1.707M66.535 113.036h2v-4h-2zM66.535 123.036h2v-4h-2zM70.535 117.036h4v-2h-4zM60.535 117.036h4v-2h-4zM69.535 83.036h23v-2h-23zM209.535 117.036h-2v-48h-25v-2h27v50"/><path fill="#48515A" d="M163.535 181.036h-112v-114h60v2h-58v110h110v2"/><path fill="#F58E70" d="M190.5 160.976s-3.207-35.639-3.779-37.931h-.023a.84.84 0 0 0 .837-.859v-2.149l-2.036-2.58-1.964 2.58v2.149c0 .475.258.859.733.859h-.095c-.572 2.292-3.658 37.931-3.658 37.931l4.993 6 4.992-6"/><path fill="#48515A" d="M165.521 221.081l-.021-48.045h-1.965v-36.469l-14.822 16.367-9.148.099-18.506-17.894 11.686-11.247 11.393 11.394 16.467-17.229 13.389-4.556 2.417-4.465h2.124v2h-.933l-2.222 4.106-13.668 4.651-17.542 18.354-11.452-11.453-8.778 8.448 16.425 15.883 7.453-.081 17.717-19.565v39.657h1.964l.022 50.044-2 .001M210.918 179.036h-8.383v-2h7.546l1.454-1.473v-52.951l-16.072-7.475-2.527-4.101h-1.401v-2h2.517l2.799 4.541 16.684 7.76v55.046l-2.617 2.653"/><path fill="#DFE0E0" d="M179.535 110.431v1.736l5.964 3.377 5.971-3.278.065-3.177v-2.679c0-.225.426-.465.635-.709-.072.063-.158.126-.216.189-.836.898-2.112 1.672-2.97 2.405-.678.579-1.545.742-2.438.742h-2.579c-.893 0-1.751-.163-2.429-.742-.819-.699-2.011-1.506-2.844-2.367-.025-.026-.055-.009-.082-.035.251.266.584.557.889.825-.007.003.034.028.034.035v3.678"/><path fill="#48515A" d="M179.535 113.036a1 1 0 0 1-1-1v-5a1 1 0 1 1 2 0v5a1 1 0 0 1-1 1"/><path fill="#48515A" d="M191.535 113.036a1 1 0 0 1-1-1v-5.634c0-.756.543-1.271.979-1.685.119-.113.298-.283.343-.354l2.492-5.195 2.664-1.308.549-2.681a.12.12 0 0 0-.032-.06c-.039-.04-.127-.083-.257-.083h-1.778l.249-1.202c.075-.363.198-.794.329-1.25.217-.752.462-1.604.462-2.154v-.445c0-1.385-.445-2.702-.911-3.785h-.242l-.266-.589c-.036-.082-.078-.164-.119-.245l-.065-.129a10.82 10.82 0 0 0-2.988-3.659 10.779 10.779 0 0 0-6.574-2.292h-.072c-2.778 0-5.428 1.115-7.471 3.143-2.092 2.078-3.292 4.925-3.292 7.811v.19c0 .917.203 2.372.394 3.429l.212 1.177h-1.679c-.085 0-.263.015-.32.138l.777 2.625 2.343 1.333 2.442 5.119c.271.716 1.559 1.738 2.499 2.484.353.28.692.549.984.799.401.343.967.502 1.78.502h2.568a1 1 0 0 1 0 2h-2.568c-1.299 0-2.305-.32-3.079-.981a34.016 34.016 0 0 0-.929-.753c-1.309-1.04-2.663-2.115-3.094-3.271l-2.137-4.471-2.499-1.422-1.104-3.878c0-1.041.677-1.872 1.657-2.136-.12-.811-.247-1.868-.247-2.694v-.19c0-3.415 1.415-6.779 3.882-9.23 2.442-2.424 5.663-3.722 8.966-3.724 2.828.019 5.598.986 7.8 2.722a12.86 12.86 0 0 1 3.466 4.192h.261l.269.58c.631 1.36 1.356 3.171 1.356 5.115v.535c0 .831-.287 1.828-.54 2.707l-.001.003c.371.112.703.31.97.585.405.416.618.972.6 1.566l-.02.172-.769 3.759-2.923 1.436-2.18 4.539c-.129.352-.461.667-.782.971-.107.102-.276.261-.355.362v5.506a1 1 0 0 1-1 1m-2.235 8.719a.998.998 0 0 1-.744-.331l-3.124-3.472-3.125 3.472a1 1 0 0 1-1.487-1.338l4.612-5.123 4.61 5.123a.999.999 0 0 1-.742 1.669m-19.77 50.285c0-.56.45-1 1.01-1 .55 0 .99.44.99 1 0 .55-.44 1-.99 1-.56 0-1.01-.45-1.01-1zm4 0c0-.56.45-1 1.01-1 .55 0 .99.44.99 1 0 .55-.44 1-.99 1-.56 0-1.01-.45-1.01-1zm4.01 0c0-.56.44-1 .99-1 .56 0 1.01.44 1.01 1 0 .55-.45 1-1.01 1-.55 0-.99-.45-.99-1zm4 0c0-.56.44-1 .99-1 .56 0 1.01.44 1.01 1 0 .55-.45 1-1.01 1-.55 0-.99-.45-.99-1zm4 0c0-.56.44-1 .99-1 .56 0 1.01.44 1.01 1 0 .55-.45 1-1.01 1-.55 0-.99-.45-.99-1zm4 0c0-.56.44-1 .99-1 .56 0 1.01.44 1.01 1 0 .55-.45 1-1.01 1-.55 0-.99-.45-.99-1zm4 0c0-.56.44-1 .99-1 .56 0 1.01.44 1.01 1 0 .55-.45 1-1.01 1-.55 0-.99-.45-.99-1zm4 0c0-.56.44-1 1-1 .55 0 .99.44.99 1a.994.994 0 1 1-1.99 0zM183.535 221.036h2v-39h-2zM203.535 221.036h-2v-50h2v-37h2v39h-2v48"/><path fill="#48515A" d="M206.918 191.036h-4.383v-2h3.546l1.454-1.473v-9.527h2v10.347l-2.617 2.653M170.83 181.036h-4.295v-2h3.134l1.866-3.265v-1.735h2v2.266l-2.705 4.734M202.535 181.036h-4.659l-2.341-4.767v-2.233h2v1.768l1.588 3.232h3.412v2M151.293 115.574a1 1 0 0 1-.684-1.729l11.535-10.809h-7.609a1 1 0 1 1 0-2h10.138a1 1 0 1 1 .684 1.73l-13.38 12.538a.996.996 0 0 1-.684.27m-5.655-.063a.996.996 0 0 1-.707-.292l-5.168-5.169a1 1 0 1 1 1.414-1.415l5.168 5.169a1 1 0 0 1-.707 1.707m-15.138-.538a1 1 0 0 1-.695-1.72l4.562-4.401a1 1 0 0 1 1.388 1.439l-4.561 4.402a.997.997 0 0 1-.694.28m-30.256 30.416a.998.998 0 0 1-.711-1.703l14.256-14.416a.999.999 0 1 1 1.421 1.406l-14.255 14.416a.998.998 0 0 1-.711.297m-5.105.076a.997.997 0 0 1-.707-.293l-9.218-9.218a.999.999 0 1 1 1.414-1.414l9.218 9.218a.999.999 0 0 1-.707 1.707M56.95 159.423a.999.999 0 0 1-.707-1.707l23.555-23.556a1 1 0 0 1 1.414 1.414L57.657 159.13a.999.999 0 0 1-.707.293"/><path fill="#48515A" d="M83.025 129.695a2.659 2.659 0 0 0-2.656 2.656 2.66 2.66 0 0 0 2.656 2.658 2.66 2.66 0 0 0 2.658-2.658 2.66 2.66 0 0 0-2.658-2.656zm0 7.314a4.662 4.662 0 0 1-4.656-4.658 4.66 4.66 0 0 1 4.656-4.656 4.662 4.662 0 0 1 4.658 4.656 4.664 4.664 0 0 1-4.658 4.658zm14.628 7.314a2.66 2.66 0 0 0-2.657 2.656 2.66 2.66 0 0 0 2.657 2.657 2.66 2.66 0 0 0 2.657-2.657 2.66 2.66 0 0 0-2.657-2.656zm0 7.313a4.662 4.662 0 0 1-4.657-4.657 4.661 4.661 0 0 1 4.657-4.656 4.661 4.661 0 0 1 4.657 4.656 4.662 4.662 0 0 1-4.657 4.657zm40.227-47.54a2.66 2.66 0 0 0-2.657 2.657 2.66 2.66 0 0 0 2.657 2.657 2.66 2.66 0 0 0 2.657-2.657 2.66 2.66 0 0 0-2.657-2.657zm0 7.314a4.662 4.662 0 0 1-4.657-4.657 4.662 4.662 0 0 1 4.657-4.657 4.662 4.662 0 0 1 4.657 4.657 4.662 4.662 0 0 1-4.657 4.657zm10.577 3.263a2.66 2.66 0 0 0-2.657 2.657 2.66 2.66 0 0 0 2.657 2.657 2.66 2.66 0 0 0 2.657-2.657 2.66 2.66 0 0 0-2.657-2.657zm0 7.314a4.662 4.662 0 0 1-4.657-4.657 4.662 4.662 0 0 1 4.657-4.657 4.662 4.662 0 0 1 4.657 4.657 4.662 4.662 0 0 1-4.657 4.657zM69.535 87.036h23v-2h-23zM69.535 91.036h23v-2h-23z"/><path fill="#475059" d="M135.488 192.629c-4.963 0-9 4.037-9 9 0 4.962 4.037 9 9 9 4.962 0 9-4.038 9-9 0-4.963-4.038-9-9-9zm0 20c-6.066 0-11-4.935-11-11 0-6.066 4.934-11 11-11 6.065 0 11 4.934 11 11 0 6.065-4.935 11-11 11zm0-26c-8.271 0-15 6.729-15 15s6.729 15 15 15 15-6.729 15-15-6.729-15-15-15zm0 32c-9.374 0-17-7.626-17-17 0-9.374 7.626-17 17-17 9.374 0 17 7.626 17 17 0 9.374-7.626 17-17 17z"/><path fill="#475059" d="M135.488 198.629c-1.655 0-3 1.345-3 3 0 1.654 1.345 3 3 3 1.654 0 3-1.346 3-3 0-1.655-1.346-3-3-3zm0 8c-2.757 0-5-2.244-5-5 0-2.757 2.243-5 5-5s5 2.243 5 5c0 2.756-2.243 5-5 5z"/><path fill="#F58E70" d="M135.488 197.629a4 4 0 1 0 0 8 4 4 0 0 0 0-8"/><path fill="#F58E70" d="M135.488 198.629c-1.655 0-3 1.345-3 3 0 1.654 1.345 3 3 3 1.654 0 3-1.346 3-3 0-1.655-1.346-3-3-3zm0 8c-2.757 0-5-2.244-5-5 0-2.757 2.243-5 5-5s5 2.243 5 5c0 2.756-2.243 5-5 5z"/><path fill="#475059" d="M108.535 203.036h27v-2h-27z"/><path fill="#475059" d="M101.903 205.036h3.172l3-3-3-3h-3.172l3 3-3 3zm4 2h-8.828l5-5-5-5h8.828l5 5-5 5z"/><path fill="#FFF" d="M119.027 59.761c0-15.103 12.244-27.347 27.348-27.347s27.347 12.244 27.347 27.348c0 15.103-12.243 27.347-27.347 27.347-15.104 0-27.348-12.244-27.348-27.348"/><path fill="#48515A" d="M151.389 88.452l.358.387c2.076 2.237 4.836 3.643 7.914 4.064a8.014 8.014 0 0 1-2.616-5.24l-.066-.733.68-.281c10.895-4.512 17.934-14.991 17.934-26.7 0-16.007-13.023-29.03-29.03-29.03-16.008 0-29.031 13.008-29.031 28.997 0 15.99 13.023 28.998 29.031 28.999 1.509 0 3.022-.195 4.304-.385l.522-.078zm13.879 6.584h-3.63c-4.244 0-8.125-1.577-10.989-4.454-1.238.175-2.649.333-4.086.333-17.11-.001-31.031-13.907-31.031-30.999s13.921-30.997 31.031-30.997 31.03 13.92 31.03 31.03c0 12.261-7.216 23.26-18.449 28.239.591 2.809 3.107 4.848 6.124 4.848v2z"/><path fill="#48515A" d="M129.535 56.036h34v-2h-34zM129.535 61.036h34v-2h-34zM129.535 65.036h34v-2h-34zM76.535 193.036h2v-4h-2zM76.535 203.036h2v-4h-2zM80.535 197.036h4v-2h-4zM70.535 197.036h4v-2h-4z"/><path fill="#F58E70" d="M61.465 39.012c-12.682 0-23 10.318-23 23s10.318 23 23 23 23-10.318 23-23-10.318-23-23-23zm0 48c-13.785 0-25-11.215-25-25s11.215-25 25-25c13.786 0 25 11.215 25 25s-11.214 25-25 25z"/><path fill="#48515A" d="M81.535 63.036h-4a1 1 0 1 1 0-2h4a1 1 0 0 1 0 2"/><path fill="#48515A" d="M81.535 63.036h-4a1 1 0 1 1 0-2h4a1 1 0 0 1 0 2m-9.953 17.46a.998.998 0 0 1-.867-.5l-1.778-3.079a1 1 0 1 1 1.732-1l1.778 3.079a1 1 0 0 1-.865 1.5m4.02-25.928a1 1 0 0 1-.501-1.867l3.079-1.777a.999.999 0 1 1 1 1.732l-3.079 1.778a.995.995 0 0 1-.499.134m3.41 18.253a.992.992 0 0 1-.499-.134l-3.079-1.778a1 1 0 1 1 1-1.732l3.079 1.778a1 1 0 0 1-.501 1.866m-9.483-24.465a1 1 0 0 1-.865-1.5l1.778-3.079a1 1 0 1 1 1.732 1l-1.778 3.079a.998.998 0 0 1-.867.5M62.535 74.036h-2v-14h10v2h-8v12M61.535 46.036a1 1 0 0 1-1-1v-3a1 1 0 1 1 2 0v3a1 1 0 0 1-1 1m0 37a1 1 0 0 1-1-1v-3a1 1 0 1 1 2 0v3a1 1 0 0 1-1 1m-17-20h-3a1 1 0 1 1 0-2h3a1 1 0 0 1 0 2"/><path fill="#48515A" d="M61.535 46.036a1 1 0 0 1-1-1v-3a1 1 0 1 1 2 0v3a1 1 0 0 1-1 1m0 37a1 1 0 0 1-1-1v-3a1 1 0 1 1 2 0v3a1 1 0 0 1-1 1m-17-20h-3a1 1 0 1 1 0-2h3a1 1 0 0 1 0 2m6.765 17.46a1 1 0 0 1-.865-1.5l1.777-3.079a1 1 0 1 1 1.733 1l-1.778 3.079a1 1 0 0 1-.867.5m-4.02-25.928a.992.992 0 0 1-.499-.134l-3.079-1.778a1 1 0 1 1 1-1.732l3.079 1.777a1.002 1.002 0 0 1-.501 1.867m-3.41 18.253a1 1 0 0 1-.501-1.866l3.079-1.778a1 1 0 0 1 1 1.732l-3.079 1.778a.992.992 0 0 1-.499.134m9.482-24.465a1 1 0 0 1-.867-.5l-1.778-3.079a1 1 0 1 1 1.733-1l1.778 3.079a1 1 0 0 1-.866 1.5M179.49 68.949a.963.963 0 0 1-.7-.29.993.993 0 0 1-.3-.699c0-.27.11-.531.3-.71.37-.37 1.04-.381 1.41 0 .19.179.29.44.29.71 0 .259-.1.509-.29.699a.97.97 0 0 1-.71.29m-66.04 0a.963.963 0 0 1-.7-.29.974.974 0 0 1 0-1.409c.37-.381 1.04-.37 1.41 0 .19.179.29.44.29.699 0 .27-.1.52-.29.71a.97.97 0 0 1-.71.29"/></g></svg>