<?xml version="1.0" encoding="utf-8"?><svg xmlns="http://www.w3.org/2000/svg" width="250" height="250" viewBox="0 0 250 250"><g fill="none" fill-rule="evenodd"><path fill="#FFD15D" d="M93.022 149h64v-36h-64v36zm-34.008 42.008h132.017V62.994H59.014v128.014z"/><path fill="#48515A" d="M98.006 135.002h2V119h-2zM102.006 135.002h4V119h-4zM108.006 135.002h2V119h-2zM112.006 135.002h2V119h-2zM116.006 135.002h4V119h-4zM122.006 135.002h2V119h-2zM126.006 135.002h2V119h-2zM130.006 135.002h4V119h-4zM136.014 135.002h2V119h-2zM140.014 135.002h2V119h-2zM144.014 135.002h4V119h-4zM150.022 135.002h2V119h-2zM98.022 140h28.999v-2H98.022zM98.022 144.002h22.996v-2H98.022zM141.022 93.997h-4.414l-2.586-2.586-2.585 2.586h-3.829l-2.586-2.586-2.585 2.586h-3.829l-2.586-2.586-2.585 2.586h-4.415v-31h2v29h1.586l3.414-3.414 3.415 3.414h2.171l3.414-3.414 3.415 3.414h2.171l3.414-3.414 3.415 3.414h1.585v-29h2v31M146.878 104.935h55.165a3.013 3.013 0 0 0 3-3.02 2.952 2.952 0 0 0-2.924-2.98h-55.241l-6.507 3 6.507 3zm55.165 2h-55.605l-10.842-5 10.842-5h55.605a5 5 0 0 1 0 10z"/><path fill="#48515A" d="M194.002 105.935h2v-8h-2z"/><path fill="#48515A" d="M147.002 102.935h48v-2h-48zM34.97 138.001h2v-4h-2zM34.97 148.001h2v-4h-2zM38.97 142.001h4v-2h-4zM28.97 142.001h4v-2h-4zM200.069 57.953h2v-4h-2zM200.069 67.953h2v-4h-2zM204.069 61.953h4v-2h-4zM194.069 61.953h4v-2h-4zM213.077 178.024h2v-4h-2zM213.077 188.024h2v-4h-2zM217.077 182.024h4v-2h-4zM207.077 182.024h4v-2h-4zM68.904 92.629H64.54a1.567 1.567 0 0 1-1.565-1.566v-5.868c0-.864.701-1.565 1.565-1.566h3.527v2h-3.092v5h3.929v2"/><path fill="#48515A" d="M73.904 100.629h-4.25v-2h2.25v-5c0-.552-.448-.999-1-1h-3.212L67 83.105a1.269 1.269 0 0 0-1.26-1.183h-7.026v-2.14a.133.133 0 0 0-.133-.132l-13.412-.021h-.001c-.697 0-1.263.565-1.264 1.262v17.738h3.049v2h-5.049V80.893a3.265 3.265 0 0 1 3.263-3.264h.005l13.413.021a2.136 2.136 0 0 1 2.129 2.132v.14h5.027a3.272 3.272 0 0 1 3.254 3.043l.557 7.664h1.352a3.004 3.004 0 0 1 3 3v7"/><path fill="#48515A" d="M51.409 100.63h13.697v-2H51.409z"/><path fill="#48515A" d="M49.381 97.675a1.477 1.477 0 1 0 0 2.955 1.477 1.477 0 0 0 0-2.955zm0 4.954a3.477 3.477 0 1 1 0-6.954 3.477 3.477 0 0 1 0 6.954zm18.011-4.954a1.477 1.477 0 1 0 0 2.955 1.477 1.477 0 0 0 0-2.955zm0 4.954a3.477 3.477 0 1 1 0-6.954 3.477 3.477 0 0 1 0 6.954zM58.714 99.629h2V80.922h-2zM141.563 145.163l10.451 25.309 4.473-8.995 8.387 8.387 1.414-1.414-8.43-8.431 7.653-4.592-23.948-10.264zm10.283 30.14l-14.004-33.91 32.052 13.736-8.811 5.287 8.033 8.034-4.242 4.242-7.834-7.835-5.194 10.446z"/><path fill="#FFD15D" d="M155.817 35.525l2.094 4.244 4.683.68a1.58 1.58 0 0 1 .875 2.695l-3.388 3.303.8 4.664a1.58 1.58 0 0 1-2.292 1.665l-4.189-2.202-4.188 2.202a1.58 1.58 0 0 1-2.293-1.665l.8-4.664-3.388-3.303a1.58 1.58 0 0 1 .875-2.695l4.683-.68 2.095-4.244a1.58 1.58 0 0 1 2.833 0m23.104 168.523a2 2 0 1 1 .001 3.999 2 2 0 0 1-.001-3.999M44.97 116a2 2 0 1 1 0 3.998 2 2 0 0 1 0-3.998m83.942-70.021l1.28 2.592 2.86.416a.965.965 0 0 1 .535 1.646l-2.07 2.018.489 2.849a.965.965 0 0 1-1.4 1.017l-2.559-1.345-2.559 1.345a.964.964 0 0 1-1.4-1.017l.488-2.849-2.07-2.018a.966.966 0 0 1 .535-1.646l2.861-.416 1.279-2.592a.966.966 0 0 1 1.731 0"/><path fill="#48515A" d="M74.994 211.044h2v-4h-2zM74.994 221.044h2v-4h-2zM78.994 215.044h4v-2h-4zM68.994 215.044h4v-2h-4z"/><path fill="#FFD15D" d="M110.5 33.315l.686 1.39 1.534.223a.518.518 0 0 1 .287.883l-1.11 1.082.262 1.527a.518.518 0 0 1-.751.546l-1.372-.721-1.372.721a.518.518 0 0 1-.751-.546l.262-1.527-1.11-1.082a.517.517 0 0 1 .287-.883l1.534-.223.686-1.39a.517.517 0 0 1 .928 0"/></g></svg>