<?xml version="1.0" encoding="utf-8"?><svg xmlns="http://www.w3.org/2000/svg" width="250" height="250" viewBox="0 0 250 250"><g fill="none" fill-rule="evenodd"><path fill="#434A4F" d="M124.269 30.508a.995.995 0 0 1-.979-1.019.994.994 0 0 1 1.009-.981c.56.01 1 .47.991 1.021-.011.539-.46.979-1 .979h-.021zm-4.979-.95a.99.99 0 0 1 .969-1.029 1 1 0 1 1 .06 2h-.029a.997.997 0 0 1-1-.971zm8.929 1.11a1.011 1.011 0 0 1-.94-1.06.998.998 0 0 1 1.06-.94c.55.031.98.51.94 1.06a.998.998 0 0 1-1 .94h-.06zm-12.92-.879a.983.983 0 0 1 .92-1.061.998.998 0 0 1 1.071.92c.04.551-.38 1.03-.931 1.07h-.06a.99.99 0 0 1-1-.929zm16.861 1.2a.992.992 0 0 1-.891-1.091c.061-.55.55-.949 1.101-.89.549.05.949.54.889 1.09a.997.997 0 0 1-.99.901c-.04 0-.069 0-.109-.01zm-20.841-.78a.997.997 0 0 1 .881-1.111 1 1 0 0 1 1.109.88.992.992 0 0 1-.88 1.101v.01h-.12c-.5 0-.93-.371-.99-.88zm24.761 1.29c-.54-.09-.92-.601-.84-1.141.09-.55.599-.93 1.139-.84.55.08.92.59.84 1.13a1 1 0 0 1-.99.86c-.04 0-.1-.009-.149-.009zm-28.721-.701c-.08-.549.29-1.059.83-1.15a.997.997 0 0 1 1.15.83.997.997 0 0 1-.83 1.141.97.97 0 0 1-.16.019c-.479 0-.91-.349-.99-.84zm32.62 1.37a.998.998 0 1 1 .391-1.959h-.011c.551.099.9.63.79 1.169a.995.995 0 0 1-1.17.79zm-36.54-.61c-.109-.54.24-1.069.78-1.179a.993.993 0 0 1 1.18.769c.11.551-.239 1.07-.779 1.191-.071.009-.13.019-.201.019-.469 0-.879-.329-.98-.8zm40.4 1.46a.997.997 0 1 1 .47-1.939c.54.13.87.67.74 1.21a1.002 1.002 0 0 1-1.21.729zm-44.29-.519a1.01 1.01 0 0 1 .73-1.22 1 1 0 0 1 1.211.729.994.994 0 0 1-.971 1.241c-.45 0-.85-.3-.97-.75zm48.111 1.54a1.004 1.004 0 0 1-.681-1.241 1 1 0 1 1 .681 1.241zm-51.95-.431a1.002 1.002 0 1 1 1.919-.579c.15.529-.139 1.09-.669 1.25a1.01 1.01 0 0 1-.291.039c-.429 0-.83-.279-.959-.71zm55.719 1.62a.991.991 0 0 1-.62-1.26.984.984 0 0 1 1.26-.629c.53.179.81.75.631 1.269a.998.998 0 0 1-.95.681.913.913 0 0 1-.321-.061zm-59.51-.34a1 1 0 0 1 .621-1.269.995.995 0 0 1 1.269.609 1.01 1.01 0 0 1-.609 1.28c-.111.031-.221.05-.33.05-.41 0-.801-.25-.951-.67zm63.23 1.71a.999.999 0 0 1-.56-1.3 1.003 1.003 0 0 1 1.29-.57c.52.21.77.78.571 1.301-.16.389-.531.63-.931.63-.12 0-.25-.021-.37-.061zM88.2 36.339a.998.998 0 0 1 .549-1.3c.51-.2 1.1.05 1.3.559a.998.998 0 0 1-.55 1.3 1.003 1.003 0 0 1-1.299-.559zm70.609 1.78a1 1 0 0 1-.51-1.321c.23-.5.821-.73 1.321-.509.5.229.729.819.509 1.33-.17.37-.53.59-.92.59a.987.987 0 0 1-.4-.09zm-74.26-.16a1 1 0 1 1 1.821-.83.993.993 0 0 1-.5 1.32.86.86 0 0 1-.41.09.994.994 0 0 1-.911-.58zm77.84 1.849a1.011 1.011 0 0 1-.45-1.34c.25-.49.851-.689 1.351-.45.489.25.689.851.439 1.34a.999.999 0 0 1-.89.56c-.15 0-.31-.04-.45-.11zm-81.41-.08a.986.986 0 0 1 .431-1.34 1.006 1.006 0 0 1 1.349.43 1.01 1.01 0 0 1-.889 1.461.98.98 0 0 1-.891-.551zm84.92 1.931a.997.997 0 0 1-.39-1.361c.26-.48.87-.66 1.361-.389.479.269.649.88.389 1.359-.19.33-.53.521-.88.521-.16 0-.33-.05-.48-.13zm-88.42 0a1.001 1.001 0 0 1 .38-1.361 1 1 0 0 1 .98 1.741h.01a1.006 1.006 0 0 1-1.37-.38zm91.83 2c-.47-.29-.62-.91-.33-1.38.29-.471.91-.611 1.38-.32.471.29.62.899.33 1.37-.189.309-.52.479-.859.479-.17 0-.351-.05-.521-.149zm-95.229.09a.99.99 0 0 1 .309-1.38c.47-.29 1.09-.151 1.38.319.29.46.15 1.08-.319 1.37a.92.92 0 0 1-.531.16c-.33 0-.65-.17-.839-.469zm98.559 2.059a.997.997 0 0 1-.269-1.389.999.999 0 0 1 1.389-.271v.011c.46.309.58.93.26 1.389a.98.98 0 0 1-.819.43.95.95 0 0 1-.561-.17zm-101.87.17a.989.989 0 0 1 .25-1.389 1 1 0 0 1 1.391.259 1.01 1.01 0 0 1-.25 1.391 1.047 1.047 0 0 1-.571.179.971.971 0 0 1-.82-.44zm105.09 2.12c-.44-.33-.529-.95-.21-1.389a1.001 1.001 0 1 1 .81 1.589.961.961 0 0 1-.6-.2zm-108.3.26a.992.992 0 0 1 .19-1.399c.44-.331 1.07-.25 1.4.189.33.441.25 1.07-.189 1.41-.191.13-.401.2-.611.2-.3 0-.6-.139-.79-.4zm111.42 2.181a1.002 1.002 0 0 1-.14-1.41.989.989 0 0 1 1.401-.14c.429.35.489.979.149 1.409-.2.24-.49.36-.78.36a.994.994 0 0 1-.63-.219zm-114.529.349a1.008 1.008 0 0 1 .13-1.41h.009a.982.982 0 0 1 1.401.13.988.988 0 0 1-.131 1.4v.01a.998.998 0 0 1-.64.231c-.28 0-.57-.13-.769-.361zm117.54 2.22a.987.987 0 0 1-.08-1.409c.359-.42 1-.45 1.409-.08.41.359.45 1 .08 1.41a1 1 0 0 1-.75.329.965.965 0 0 1-.659-.25zm-120.521.431a.997.997 0 1 1 1.47-1.351 1 1 0 0 1-.73 1.681.97.97 0 0 1-.74-.33zm123.41 2.269a.997.997 0 0 1 1.39-1.429c.4.379.4 1.019.021 1.41-.201.2-.46.3-.721.3-.25 0-.5-.09-.69-.281zm-126.28.521a1.008 1.008 0 0 1 0-1.42.997.997 0 0 1 1.42.01.995.995 0 0 1-.01 1.41 1.005 1.005 0 0 1-1.41 0zm129.04 2.299c-.37-.4-.349-1.03.05-1.41a.989.989 0 0 1 1.41.05.996.996 0 0 1-.729 1.681c-.261 0-.531-.11-.731-.321zm-131.78.6a.989.989 0 0 1-.06-1.41.998.998 0 0 1 1.411-.05.996.996 0 0 1-.681 1.731.97.97 0 0 1-.67-.271zm134.42 2.351a.999.999 0 0 1 .11-1.41.997.997 0 0 1 1.41.099.998.998 0 0 1-.11 1.41.954.954 0 0 1-.649.241c-.281 0-.561-.111-.761-.34zm-137.039.689a1.01 1.01 0 0 1-.12-1.42c.359-.42.989-.469 1.409-.12.421.361.48.99.12 1.42-.199.23-.48.351-.77.351-.219 0-.45-.081-.639-.231zm139.55 2.36a.992.992 0 0 1 .169-1.4.992.992 0 0 1 1.4.17.99.99 0 0 1-.17 1.4 1 1 0 0 1-1.399-.17zm-142.021.781a1.006 1.006 0 0 1-.189-1.41.991.991 0 0 1 1.399-.181c.44.341.521.971.19 1.4-.2.26-.5.39-.799.39-.21 0-.42-.06-.601-.199zm144.391 2.38v.009a1.003 1.003 0 0 1 .229-1.4 1.01 1.01 0 0 1 1.401.23 1.01 1.01 0 0 1-.241 1.401c-.17.119-.37.18-.58.18a.97.97 0 0 1-.809-.42zm-146.731.87a1.02 1.02 0 0 1-.25-1.401c.32-.45.95-.559 1.401-.24a.998.998 0 0 1 .239 1.391c-.19.279-.5.43-.82.43-.2 0-.4-.06-.57-.18zm148.96 2.399a1.002 1.002 0 0 1 .29-1.389 1.001 1.001 0 0 1 1.09 1.679 1.002 1.002 0 0 1-1.38-.29zm-151.149.95a.994.994 0 0 1-.311-1.38c.3-.469.92-.61 1.38-.31.47.301.601.91.311 1.381a.995.995 0 0 1-.851.46c-.18 0-.37-.051-.529-.151zm153.219 2.411a1 1 0 0 1 .36-1.371.998.998 0 1 1 1.011 1.72c-.161.09-.33.141-.511.141-.34 0-.67-.181-.86-.49zM44.2 75.449a1.009 1.009 0 0 1-.37-1.37 1.006 1.006 0 0 1 1.37-.361c.479.271.639.89.359 1.371a.98.98 0 0 1-.859.49c-.171 0-.341-.04-.5-.13zm157.189 2.409c-.26-.489-.07-1.09.41-1.35a1.002 1.002 0 1 1 .941 1.771.99.99 0 0 1-.461.109 1 1 0 0 1-.89-.53zm-159.08 1.12a.982.982 0 0 1-.42-1.34.99.99 0 0 1 1.351-.429c.489.25.679.859.42 1.349-.181.34-.521.54-.891.54a.993.993 0 0 1-.46-.12zm160.851 2.41a.993.993 0 0 1 .479-1.33.996.996 0 0 1 1.33.471 1 1 0 0 1-.479 1.329.903.903 0 0 1-.421.101.998.998 0 0 1-.909-.571zm-162.571 1.21c-.5-.229-.719-.83-.49-1.33.231-.5.83-.72 1.33-.489.5.239.72.829.49 1.329-.17.37-.53.58-.91.58-.139 0-.28-.029-.42-.09zm164.18 2.391c-.21-.511.03-1.101.54-1.311a.997.997 0 0 1 1.311.531 1.004 1.004 0 0 1-.54 1.309.9.9 0 0 1-.391.08.997.997 0 0 1-.92-.609zm-165.74 1.3c-.51-.21-.76-.79-.55-1.311.21-.51.8-.75 1.311-.54.509.21.75.79.54 1.301a.995.995 0 0 1-.92.619.986.986 0 0 1-.381-.069zm167.19 2.37a1.004 1.004 0 0 1 .59-1.29c.521-.191 1.09.08 1.29.59a1.012 1.012 0 0 1-.59 1.29c-.12.04-.24.059-.349.059-.41 0-.79-.25-.941-.649zm-168.59 1.389a.997.997 0 0 1-.6-1.28.997.997 0 0 1 1.28-.599c.521.179.79.75.601 1.269a1 1 0 0 1-.941.66.981.981 0 0 1-.34-.05zm169.88 2.35a.999.999 0 0 1 .651-1.26.992.992 0 0 1 1.25.651c.17.519-.12 1.089-.641 1.259-.109.031-.21.041-.31.041a.998.998 0 0 1-.95-.691zM36.41 93.858a.99.99 0 0 1-.661-1.25h-.009c.17-.529.729-.819 1.25-.659.529.17.829.729.67 1.25-.141.429-.531.71-.96.71a.92.92 0 0 1-.29-.051zm172.219 2.33a.997.997 0 0 1 .701-1.229 1.007 1.007 0 0 1 1.229.71v-.01a.998.998 0 0 1-.71 1.229.723.723 0 0 1-.26.04c-.44 0-.839-.3-.96-.74zm-173.28 1.53a.997.997 0 1 1 .51-1.929c.53.139.85.679.71 1.219a.982.982 0 0 1-.96.741 1.1 1.1 0 0 1-.26-.031zm174.22 2.311c-.119-.54.221-1.08.761-1.2a1.01 1.01 0 0 1 1.199.76h-.01a.99.99 0 0 1-.75 1.19.931.931 0 0 1-.22.029c-.46 0-.87-.319-.98-.779zm-175.09 1.59a.99.99 0 0 1-.77-1.181c.11-.54.64-.89 1.18-.769.54.11.89.639.771 1.189-.101.46-.511.79-.971.79a.805.805 0 0 1-.21-.029zm175.87 2.279a.996.996 0 0 1 .811-1.159 1.01 1.01 0 0 1 1.159.819.997.997 0 0 1-.81 1.151c-.059.009-.12.019-.179.019a.988.988 0 0 1-.981-.83zm-176.57 1.66c-.55-.09-.92-.609-.829-1.149.09-.551.609-.91 1.159-.821a1 1 0 0 1 .82 1.151.998.998 0 0 1-.99.829c-.05 0-.109 0-.16-.01zm177.171 2.25a.987.987 0 0 1 .859-1.12.996.996 0 0 1 1.12.86.995.995 0 0 1-.86 1.121c-.04.009-.09.009-.13.009-.489 0-.92-.37-.989-.87zm-177.701 1.71a.986.986 0 0 1-.87-1.109.986.986 0 0 1 1.111-.87.99.99 0 0 1 .869 1.109.994.994 0 0 1-.989.881c-.04 0-.08 0-.121-.011zm178.13 2.221a.999.999 0 0 1 1.991-.171.993.993 0 0 1-.911 1.08c-.03 0-.06.011-.089.011-.511 0-.951-.401-.991-.92zm-178.48 1.769c-.55-.049-.96-.53-.92-1.07v-.01c.04-.55.52-.96 1.07-.92.55.05.96.531.92 1.08a1 1 0 0 1-.99.92h-.08zm178.73 2.18a.998.998 0 0 1 .96-1.04.997.997 0 0 1 1.04.96c.02.551-.41 1.011-.96 1.04h-.04c-.53 0-.98-.42-1-.96zm-178.91 1.811a.997.997 0 0 1-.96-1.031.984.984 0 0 1 1.031-.96c.549.01.979.47.969 1.031v-.01a.996.996 0 0 1-1 .97h-.04zm178.99 2.139c0-.55.451-1 1-1 .55.01 1 .45 1 1.01 0 .551-.45 1-1 1-.56-.01-1-.449-1-1.01zm-179.999.87c0-.549.439-1 .99-1.009a.996.996 0 0 1 1.009.99.99.99 0 0 1-.99 1.01c-.55 0-1-.441-1.009-.991zm180.859 4.13a.994.994 0 0 1-.949-1.04c.019-.55.489-.979 1.04-.96.549.031.979.5.949 1.05a.99.99 0 0 1-.989.95h-.051zm-180.72-.09a.99.99 0 0 1 .941-1.049.994.994 0 0 1 1.049.939.999.999 0 0 1-.94 1.061h-.05a.995.995 0 0 1-1-.951zm180.41 4.08c-.55-.049-.96-.54-.91-1.089a1 1 0 0 1 1.09-.901.99.99 0 0 1 .9 1.08.99.99 0 0 1-.99.91h-.09zm-180.099-.049a.983.983 0 0 1 .889-1.09c.55-.051 1.04.349 1.1.899.051.54-.35 1.04-.9 1.09-.03 0-.07.011-.1.011a.998.998 0 0 1-.989-.91zm179.609 4.019c-.55-.08-.93-.58-.859-1.13v.01c.069-.55.58-.939 1.119-.87.551.08.94.58.86 1.131a1 1 0 0 1-.99.869c-.04 0-.09-.01-.13-.01zm-179.13 0a.998.998 0 0 1 .851-1.13.99.99 0 0 1 1.13.84h.009c.071.55-.31 1.061-.85 1.13a.71.71 0 0 1-.14.021c-.5 0-.92-.361-1-.861zm178.46 3.95a.998.998 0 0 1-.8-1.16.986.986 0 0 1 1.16-.809.99.99 0 0 1 .8 1.16.988.988 0 0 1-.98.819c-.06 0-.119 0-.18-.01zm-177.79.04a.995.995 0 0 1 .8-1.169.983.983 0 0 1 1.16.79.988.988 0 0 1-.79 1.169.995.995 0 0 1-1.17-.79zm176.95 3.871a.996.996 0 0 1-.75-1.191.997.997 0 0 1 1.191-.76c.54.12.88.661.759 1.201-.11.46-.52.769-.98.769-.069 0-.149 0-.22-.019zm-176.11.08a1.003 1.003 0 0 1 1.95-.471 1.002 1.002 0 1 1-1.95.471zm175.091 3.79a1.002 1.002 0 0 1-.7-1.231h.009a.996.996 0 1 1 1.92.53.99.99 0 0 1-1.229.701zm-174.071.109a1.003 1.003 0 0 1 1.93-.54 1.005 1.005 0 0 1-.97 1.271c-.429 0-.83-.291-.96-.731zm172.89 3.71a.991.991 0 0 1-.649-1.25.998.998 0 0 1 1.259-.649c.531.17.81.729.65 1.259-.14.42-.54.691-.96.691a.793.793 0 0 1-.3-.051zm-171.7.15a1 1 0 0 1 .631-1.259 1.01 1.01 0 0 1 1.269.63c.18.53-.11 1.089-.63 1.269-.11.03-.21.051-.32.051-.42 0-.81-.271-.95-.691zm170.341 3.621a1.005 1.005 0 0 1-.591-1.291c.2-.52.77-.78 1.29-.58.52.191.78.77.58 1.281h.011a1.014 1.014 0 0 1-1.29.59zm-168.971.189c-.2-.52.05-1.1.57-1.29a.99.99 0 0 1 1.29.57.996.996 0 0 1-.57 1.29.922.922 0 0 1-.359.071c-.401 0-.781-.25-.931-.641zm167.44 3.511c-.5-.221-.74-.811-.52-1.311a.99.99 0 0 1 1.31-.529c.5.21.741.8.531 1.309-.171.38-.54.611-.931.611-.13 0-.26-.03-.39-.08zm-165.91.229v-.01a.993.993 0 0 1 .52-1.309.993.993 0 0 1 1.31.519.993.993 0 0 1-.52 1.31.91.91 0 0 1-.39.091c-.389 0-.76-.231-.92-.601zm164.22 3.401c-.5-.241-.7-.84-.47-1.34h.01c.231-.49.83-.7 1.33-.471a1.005 1.005 0 0 1-.43 1.91c-.15 0-.299-.04-.44-.099zm-162.519.259a.987.987 0 0 1 .45-1.33.997.997 0 1 1 .88 1.79.967.967 0 0 1-.441.1.97.97 0 0 1-.889-.56zm160.679 3.29a.996.996 0 0 1-.41-1.36c.261-.479.86-.67 1.351-.409.489.26.67.869.41 1.359-.181.33-.531.521-.881.521a.96.96 0 0 1-.47-.111zm-158.82.3h-.01c-.26-.479-.08-1.09.401-1.359a1.008 1.008 0 0 1 1.359.399.996.996 0 0 1-.88 1.481.995.995 0 0 1-.87-.521zm156.81 3.16a.999.999 0 1 1 1.02-1.719c.48.279.63.889.351 1.37a1.019 1.019 0 0 1-.861.489c-.17 0-.349-.05-.51-.14zm-154.799.34c-.281-.47-.13-1.08.339-1.37.47-.29 1.09-.13 1.38.34.281.471.13 1.08-.34 1.37a.968.968 0 0 1-.52.15c-.34 0-.67-.179-.859-.49zm152.639 3.03a.998.998 0 0 1-.28-1.389.987.987 0 0 1 1.38-.28.997.997 0 0 1-.55 1.83 1 1 0 0 1-.55-.161zm-150.46.38a.988.988 0 0 1 .27-1.38.999.999 0 1 1 1.11 1.661c-.17.109-.36.17-.55.17a.999.999 0 0 1-.83-.451zm148.16 2.89a1.005 1.005 0 0 1-.23-1.399.995.995 0 0 1 1.4-.22c.451.319.55.939.23 1.39-.199.269-.51.419-.819.419-.201 0-.401-.07-.581-.19zm-145.839.42a.99.99 0 0 1 .21-1.39.995.995 0 0 1 1.399.21c.33.441.23 1.071-.21 1.401-.18.13-.39.189-.6.189a.98.98 0 0 1-.799-.41zm143.389 2.74a.999.999 0 0 1-.16-1.399.999.999 0 0 1 1.4-.17c.44.349.51.979.17 1.409a.998.998 0 0 1-1.41.16zm-140.929.471a1 1 0 0 1 .149-1.41 1 1 0 0 1 1.41.149c.34.431.28 1.061-.149 1.41-.191.151-.41.22-.631.22-.29 0-.579-.13-.779-.369zm138.349 2.59c-.42-.37-.46-1-.099-1.41a1 1 0 0 1 1.41-.111c.409.37.46 1 .099 1.42-.2.221-.48.34-.759.34-.231 0-.46-.079-.651-.239zm-135.74.5a.988.988 0 0 1 .091-1.41.987.987 0 0 1 1.409.089c.36.411.32 1.04-.09 1.411a.994.994 0 0 1-1.41-.09zm133.02 2.429a.997.997 0 0 1-.04-1.41 1.01 1.01 0 0 1 1.42-.04c.401.38.42 1.01.04 1.41-.2.21-.469.321-.73.321-.25 0-.489-.101-.69-.281zm-130.29.55c-.38-.399-.37-1.04.031-1.42a1.007 1.007 0 0 1 1.42.031.996.996 0 0 1-.031 1.41.988.988 0 0 1-.69.279c-.27 0-.529-.1-.73-.3zm127.451 2.271a1.017 1.017 0 0 1 .019-1.42 1.008 1.008 0 0 1 1.42.029c.38.391.37 1.021-.019 1.41h-.01a.968.968 0 0 1-.691.281c-.259 0-.52-.101-.719-.3zM60 185.438a.994.994 0 0 1-.031-1.409.985.985 0 0 1 1.41-.03.996.996 0 1 1-1.379 1.439zm121.62 2.11a.998.998 0 0 1 .08-1.41.988.988 0 0 1 1.409.09c.37.41.33 1.04-.08 1.41a.997.997 0 0 1-1.409-.09zm-118.63.621c-.41-.371-.461-1-.091-1.411a.99.99 0 0 1 1.41-.099c.41.359.46.989.101 1.409a1 1 0 0 1-.761.341c-.23 0-.47-.08-.659-.24zm115.55 1.929a.994.994 0 0 1 .139-1.399 1 1 0 0 1 1.41.139c.35.43.281 1.06-.15 1.411a.971.971 0 0 1-.63.219c-.29 0-.58-.12-.769-.37zm-112.441.651a1 1 0 1 1 1.25-1.562 1 1 0 0 1-1.25 1.562zm3.22 2.45a.997.997 0 0 1-.22-1.401c.32-.44.95-.54 1.4-.219.44.319.541.95.22 1.399-.2.271-.5.41-.809.41a.99.99 0 0 1-.591-.189zm3.33 2.3a1 1 0 0 1-.29-1.38c.31-.46.931-.59 1.39-.29a1 1 0 0 1 .28 1.389.997.997 0 0 1-.829.451c-.191 0-.381-.061-.551-.17z"/><path fill="#434A4F" d="M141.136 106.36l2.887 2.768 71.439-74.523-2.886-2.768-71.44 74.523zm2.947 5.597l-5.775-5.537 74.207-77.412 5.776 5.536-74.208 77.413z"/><path fill="#434A4F" d="M151.241 103.384l-4.331-4.151 1.384-1.443 4.331 4.151-1.384 1.443M143.39 52.996h.01-.01zm4.826-7.521l-4.162 8.435-9.308 1.352 6.735 6.567-1.59 9.269 8.325-4.377 8.326 4.377-1.59-9.27 6.735-6.565-9.308-1.353-4.163-8.435zm8.327 27.625c-.317 0-.636-.077-.932-.232l-7.395-3.887-7.393 3.887a1.992 1.992 0 0 1-2.109-.153 1.988 1.988 0 0 1-.794-1.956l1.413-8.233-5.983-5.831a1.99 1.99 0 0 1-.506-2.051 1.987 1.987 0 0 1 1.614-1.36l8.268-1.202 3.697-7.492a1.988 1.988 0 0 1 1.793-1.115 1.99 1.99 0 0 1 1.794 1.115l3.698 7.492 8.266 1.202a1.985 1.985 0 0 1 1.614 1.359c.238.73.044 1.516-.504 2.051l-5.984 5.833 1.412 8.233a1.984 1.984 0 0 1-.795 1.955 1.99 1.99 0 0 1-1.174.385z"/><path fill="#FACD60" d="M148.216 49.995l-2.834 5.743-6.338.921 4.586 4.471-1.082 6.312 5.668-2.98 5.669 2.98-1.082-6.312 4.586-4.471-6.338-.921-2.835-5.743"/><path fill="#E9886C" d="M87.07 143.131c0-2.077 15.867-3.76 35.44-3.76 19.572 0 35.439 1.683 35.439 3.76v-15.009c0-2.077-15.867-3.76-35.439-3.76-19.573 0-35.44 1.683-35.44 3.76v15.009"/><path fill="#434A4F" d="M122.509 221.492c-13.944 0-27.059-.662-36.931-1.864-16.126-1.963-16.126-4.423-16.126-5.474 0-.134.027-.267.079-.391l2.573-6.066c6.108-14.396 10.264-29.633 12.352-45.288a178.64 178.64 0 0 0 1.559-23.517v-11.176a1 1 0 1 1 2 0v11.176c0 7.928-.53 15.929-1.577 23.78-2.111 15.833-6.315 31.245-12.492 45.806l-2.435 5.74c.35.351 2.596 2.07 15.222 3.534 9.682 1.122 22.388 1.74 35.776 1.74 13.388 0 26.094-.618 35.777-1.74 12.449-1.444 14.806-3.134 15.212-3.557l-2.426-5.717c-6.179-14.562-10.381-29.974-12.491-45.806a180.497 180.497 0 0 1-1.579-23.78v-11.176a1 1 0 0 1 2 0v11.176c0 7.842.526 15.754 1.561 23.517 2.087 15.653 6.241 30.89 12.351 45.288l2.574 6.066c.052.124.079.257.079.391 0 1.051 0 3.511-16.127 5.474-9.871 1.202-22.987 1.864-36.931 1.864"/><path fill="#434A4F" d="M159.123 133.193a1 1 0 0 1-.077-1.997c22.806-1.776 25.944-3.662 26.346-4.248a1 1 0 0 1 1.997.079c0 2.008-2.177 4.139-28.188 6.163a1.036 1.036 0 0 1-.078.003m21.203-8.111a.96.96 0 0 1-.225-.026c-3.116-.716-7.332-1.363-12.531-1.927a1 1 0 1 1 .215-1.988c5.277.571 9.572 1.233 12.763 1.966a1 1 0 0 1-.222 1.975m-120.709 1.945h.009-.009zm25.996 6.145l-.079-.002c-25.762-2.022-27.917-4.144-27.917-6.143a1 1 0 0 1 1.997-.079c.401.582 3.514 2.457 26.076 4.227a1 1 0 0 1-.077 1.997zm-14.828-9.207a1.001 1.001 0 0 1-.147-1.989c7.703-1.147 18.26-2.003 30.531-2.472.521-.037 1.017.409 1.038.961a1 1 0 0 1-.961 1.038c-12.2.466-22.681 1.314-30.313 2.452-.05.007-.099.01-.148.01"/><path fill="#434A4F" d="M187.389 127.027h-2v-3.875c-.919-2.445-25.64-8.127-62.886-8.127s-61.967 5.682-62.893 8.18l.007 3.822h-2v-3.875c0-2.609 6.58-4.959 19.557-6.984 12.988-2.027 29.085-3.143 45.329-3.143 16.245 0 32.342 1.116 45.329 3.143 12.977 2.025 19.557 4.375 19.557 6.984v3.875"/><path fill="#434A4F" d="M105.29 121.108a.951.951 0 0 1-.701-.29.998.998 0 0 1-.299-.71c0-.26.109-.52.299-.71.37-.369 1.04-.369 1.411 0 .089.101.16.21.209.33.06.12.081.25.081.38a.988.988 0 0 1-.071.381c-.05.119-.13.229-.219.329-.101.091-.21.16-.331.211a.993.993 0 0 1-.379.079m-38.33 3.45a.985.985 0 0 1-.38-.069 1.085 1.085 0 0 1-.331-.221.986.986 0 0 1-.289-.71c0-.26.099-.519.289-.7.371-.38 1.041-.38 1.42 0 .18.181.291.44.291.7 0 .13-.031.26-.081.38-.049.13-.12.231-.21.33a.985.985 0 0 1-.709.29m96.125-1.864a1 1 0 0 1-1-1c0-.553.448-1.031 1-1.031.553 0 1 .416 1 .968v.063a1 1 0 0 1-1 1"/><path fill="#FACD60" d="M177.801 99.198l-.842-1.707-.842 1.707-1.883.273 1.362 1.329-.321 1.876 1.684-.886 1.685.886-.322-1.876 1.363-1.329-1.884-.273"/><path fill="#434A4F" d="M174.125 96.456h.009-.009zm1.937-3.926l.896.442-2.169 4.398-4.854.705 3.512 3.424-.829 4.833 4.341-2.283 4.34 2.283-.828-4.833 3.512-3.424-4.854-.705-2.17-4.398-.897-.442zm-3.445 15.804c-.413 0-.824-.13-1.174-.384a1.988 1.988 0 0 1-.796-1.956l.651-3.798-2.758-2.69a1.982 1.982 0 0 1-.506-2.048 1.987 1.987 0 0 1 1.614-1.362l3.812-.554 1.706-3.455a1.987 1.987 0 0 1 1.792-1.115c.768 0 1.455.428 1.794 1.115l1.706 3.455 3.812.554c.759.11 1.378.631 1.614 1.361a1.983 1.983 0 0 1-.505 2.049l-2.759 2.69.651 3.798a1.988 1.988 0 0 1-.796 1.956 1.986 1.986 0 0 1-2.106.151l-3.41-1.792-3.411 1.792a2 2 0 0 1-.931.233zm-70.868-5.527c.26 0 .524.021.79.064 2.084.332 3.642 1.893 3.97 3.978l.36 2.288 4.001-.629-.36-2.288c-.327-2.085.677-4.05 2.559-5.007 1.88-.956 4.058-.608 5.55.886l1.636 1.64 2.868-2.861-1.637-1.64c-1.49-1.493-1.834-3.673-.874-5.552.961-1.881 2.933-2.884 5.012-2.547l2.287.365.637-4.001-2.286-.365c-2.085-.332-3.643-1.894-3.971-3.979-.328-2.084.676-4.049 2.557-5.005l2.065-1.05-1.789-3.52-2.065 1.049c-1.882.956-4.06.61-5.552-.885-1.49-1.495-1.833-3.674-.873-5.553l1.053-2.063-3.606-1.841-1.054 2.062c-.96 1.879-2.927 2.874-5.011 2.547-2.084-.332-3.643-1.894-3.972-3.978l-.359-2.289-4.002.63.36 2.288c.329 2.084-.674 4.05-2.556 5.006-1.883.955-4.061.609-5.552-.886L90.3 68.033l-2.868 2.861 1.637 1.64c1.49 1.493 1.834 3.673.874 5.552-.961 1.879-2.928 2.883-5.012 2.547l-2.287-.364-.638 4 2.288.364c2.083.332 3.642 1.895 3.97 3.98.328 2.084-.676 4.05-2.557 5.006l-2.064 1.049 1.788 3.517 2.065-1.049c1.881-.956 4.06-.608 5.55.886 1.491 1.493 1.834 3.673.874 5.553l-1.053 2.062 3.607 1.842 1.053-2.062c.838-1.64 2.442-2.61 4.222-2.61zm3.456 8.617l-.672-4.264c-.232-1.472-1.345-2.16-2.31-2.315-.96-.152-2.237.156-2.915 1.482l-1.963 3.843-7.17-3.662 1.964-3.843c.678-1.328.182-2.539-.509-3.231-.689-.691-1.898-1.189-3.228-.515l-3.848 1.956-3.6-7.084 3.847-1.956c1.328-.674 1.639-1.947 1.488-2.912-.153-.964-.839-2.08-2.31-2.315l-4.262-.679 1.267-7.951 4.262.681c1.47.228 2.47-.612 2.916-1.483.444-.87.544-2.175-.509-3.23l-3.049-3.054 5.698-5.687 3.049 3.054c1.052 1.055 2.359.958 3.23.515.871-.442 1.718-1.439 1.486-2.912l-.669-4.263 7.951-1.253.672 4.265c.231 1.472 1.345 2.16 2.31 2.314.974.155 2.238-.156 2.915-1.482l1.963-3.844 7.169 3.662-1.962 3.844c-.678 1.326-.183 2.538.507 3.23.689.691 1.899 1.19 3.23.515L126 70.894l3.602 7.087-3.848 1.956c-1.328.675-1.639 1.946-1.487 2.911.151.966.838 2.08 2.31 2.316l4.262.679-1.268 7.95-4.262-.679c-1.473-.228-2.472.612-2.916 1.481-.444.87-.544 2.176.509 3.231l3.049 3.053-5.7 5.688-3.048-3.056c-1.054-1.054-2.358-.956-3.229-.514-.871.443-1.72 1.44-1.487 2.913l.67 4.262-7.952 1.252z"/><path fill="#42494E" d="M94.97 91.182a11.518 11.518 0 0 1-.687-8.843 11.514 11.514 0 0 1 5.767-6.739c5.699-2.896 12.687-.615 15.582 5.08l-1.783.907c-2.397-4.715-8.181-6.599-12.892-4.204a9.523 9.523 0 0 0-4.772 5.576 9.528 9.528 0 0 0 .568 7.317l-1.783.906"/><path fill="#E9886C" d="M105.278 82.385c-.936 0-1.815.365-2.476 1.026a3.505 3.505 0 0 0 0 4.95 3.505 3.505 0 0 0 4.95 0 3.475 3.475 0 0 0 1.026-2.476c0-.934-.364-1.813-1.026-2.474a3.478 3.478 0 0 0-2.474-1.026zm0 9.997a6.478 6.478 0 0 1-4.597-1.9c-2.534-2.535-2.534-6.659 0-9.192a6.456 6.456 0 0 1 4.597-1.905c1.736 0 3.368.676 4.596 1.905a6.453 6.453 0 0 1 1.904 4.595c0 1.737-.676 3.37-1.904 4.597a6.48 6.48 0 0 1-4.596 1.9z"/><path fill="#434A4F" d="M103.299 71.989c-.04-.551.38-1.03.93-1.07a.996.996 0 0 1 1.061.929 1 1 0 0 1-.92 1.071h-.071a.991.991 0 0 1-1-.93zm4.76 1.199a1.002 1.002 0 1 1 1.191-.769 1.006 1.006 0 0 1-1.191.769zm-8.599-.08c-.191-.519.069-1.1.589-1.29a.995.995 0 0 1 1.281.591 1.004 1.004 0 0 1-.58 1.29c-.121.04-.241.059-.351.059-.409 0-.79-.25-.939-.65zm12.059 1.37a.998.998 0 0 1-.39-1.359.99.99 0 0 1 1.35-.391c.49.261.67.87.4 1.351a.976.976 0 0 1-.879.519c-.161 0-.321-.04-.481-.12zm-15.42.79a1.002 1.002 0 0 1 .2-1.399 1.004 1.004 0 0 1 1.401.199 1.004 1.004 0 0 1-.801 1.601c-.3 0-.609-.14-.8-.401zm18.37 1.42v0zm0 0a.996.996 0 0 1 0-1.409 1.006 1.006 0 0 1 1.42 0c.38.39.38 1.019 0 1.42-.2.189-.46.29-.71.29a.994.994 0 0 1-.71-.301zm-20.99 1.591a.985.985 0 0 1-.2-1.4.992.992 0 0 1 1.4-.191c.441.33.531.95.191 1.401a.975.975 0 0 1-.79.389.967.967 0 0 1-.601-.199zm23.21 1.369a.984.984 0 0 1 .4-1.35 1 1 0 0 1 1.361.401 1 1 0 0 1-.401 1.349c-.15.09-.32.13-.48.13a.998.998 0 0 1-.88-.53zm-24.88 2.271a.996.996 0 0 1-.58-1.29.991.991 0 0 1 1.28-.59c.52.189.781.769.59 1.29a1.011 1.011 0 0 1-1.29.59zm26.17 1.2a.989.989 0 0 1 .771-1.181.996.996 0 0 1 1.189.761 1.01 1.01 0 0 1-.77 1.189c-.07.021-.14.021-.21.021-.459 0-.879-.32-.98-.79zm-26.739 2.75a1.006 1.006 0 0 1-.931-1.071h.01a.988.988 0 0 1 1.07-.92c.55.031.96.51.92 1.06-.04.53-.479.931-.99.931h-.079zm27.929 2.019a1.005 1.005 0 0 1-.929-1.07c.039-.55.519-.97 1.069-.93.55.04.97.521.931 1.071-.04.53-.481.929-1 .929h-.071zm-28.549 1.17a.994.994 0 0 1 .759-1.189 1.008 1.008 0 0 1 1.19.769c.12.54-.23 1.071-.77 1.191-.07.01-.139.019-.21.019a.99.99 0 0 1-.969-.79zm27.429 2.66a.995.995 0 0 1-.59-1.29c.19-.51.77-.78 1.281-.58.519.191.779.76.59 1.281a.987.987 0 0 1-.931.65c-.12 0-.239-.021-.35-.061zm-25.95 1.34l.01.01a.997.997 0 1 1 1.75-.96c.261.481.08 1.091-.399 1.36a1 1 0 0 1-1.361-.41zm23.78 2.021c-.44-.33-.53-.96-.2-1.401.33-.439.96-.53 1.401-.2.439.33.529.96.199 1.401a.987.987 0 0 1-.8.4c-.21 0-.42-.07-.6-.2zM94.66 96.478a.994.994 0 0 1 0-1.41 1.008 1.008 0 0 1 1.42 0 .998.998 0 0 1 0 1.41.99.99 0 0 1-1.42 0zm18.199 1.221a1.005 1.005 0 0 1 .2-1.401 1 1 0 0 1 1.2 1.6c-.179.131-.389.2-.599.2-.301 0-.601-.139-.801-.399zM98.08 99.048a1.003 1.003 0 0 1-.401-1.36 1 1 0 0 1 1.361-.39c.479.26.66.871.389 1.35a.993.993 0 0 1-1.349.4zm11.149.31c-.2-.519.07-1.1.58-1.29a1.003 1.003 0 0 1 .7 1.881 1 1 0 0 1-1.28-.591zm-7.149 1.181a.994.994 0 0 1-.761-1.191.98.98 0 0 1 1.181-.759h.009c.531.12.88.65.76 1.19a.992.992 0 0 1-.979.779c-.071 0-.141 0-.21-.019zm3.189-.62c-.04-.55.38-1.031.931-1.071.55-.04 1.029.38 1.069.931.03.55-.38 1.029-.93 1.069h-.07c-.519 0-.96-.399-1-.929z"/><path fill="#FACD60" d="M114.764 46.166l-.843-1.707-.842 1.707-1.883.274 1.362 1.328-.321 1.876 1.684-.886 1.685.886-.322-1.876 1.363-1.328-1.883-.274"/><path fill="#434A4F" d="M113.025 39.498h.01-.01zm.896 11.52l4.341 2.282-.829-4.835 3.512-3.422-4.853-.704-2.171-4.398-2.17 4.398-4.853.704 3.512 3.422-.829 4.834 4.34-2.281zm-4.342 4.284c-.413 0-.824-.13-1.174-.384a1.99 1.99 0 0 1-.795-1.958l.651-3.795-2.76-2.69a1.988 1.988 0 0 1-.505-2.051 1.989 1.989 0 0 1 1.615-1.36l3.812-.554 1.704-3.455a1.99 1.99 0 0 1 1.794-1.115 1.99 1.99 0 0 1 1.794 1.115l1.705 3.455 3.812.554c.759.11 1.378.632 1.615 1.36.237.73.043 1.516-.506 2.051l-2.759 2.69.651 3.796a1.989 1.989 0 0 1-.795 1.957c-.619.45-1.425.51-2.106.152l-3.411-1.792-3.411 1.792a2 2 0 0 1-.931.232z"/><path fill="#75C7D0" d="M151.933 102.663l-4.331-4.152"/><path fill="#42494E" d="M114.644 165.499c-1.654 0-3 1.345-3 3 0 1.654 1.346 3 3 3h65.171l6.507-3-6.507-3h-65.171zm65.61 8h-65.61c-2.757 0-5-2.244-5-5 0-2.757 2.243-5 5-5h65.61l10.843 5-10.843 5z"/><path fill="#42494E" d="M120.254 172.499h2V164.9h-2z"/><path fill="#42494E" d="M121.254 169.47h58.012v-2h-58.012z"/></g></svg>