<?xml version="1.0" encoding="utf-8"?><svg xmlns="http://www.w3.org/2000/svg" width="250" height="250" viewBox="0 0 250 250"><g fill="none" fill-rule="evenodd"><path fill="#5FE0ED" d="M123.355 45.314c-21.098.388-37.782 18.319-37.782 39.679v52.02h25.436l-.069-6.786c-2.331-2.41-4.874-5.424-7.016-8.923-5.276-8.624-7.351-19.851-7.351-30.774v-.848h23.601l-.25-11.381c7.709 7.312 17.878 11.381 28.443 11.381h4.206v.848c0 10.967-2.544 22.1-7.879 30.712-3.525 5.69-8.402 10.178-11.437 12.791l4.335 2.98h24.981V84.367c0-21.814-17.577-39.451-39.218-39.053"/><path fill="#EAEAE9" d="M93.924 169.406h12.999l-4.124-6.074h-2.125l-6.75 6.074M153.173 169.406h-13l4.125-6.074h2.125l6.75 6.074M110.924 150.17l-8.002 13.16 19.002 27.33h2.017l-13.017-40.49"/><path fill="#EAEAE9" d="M137.532 140.43l8.391 8.73 8.018 19.226h-2l-4.998-5.056h-2l-8.002-13.16.591-9.74"/><path fill="#EAEAE9" d="M137.573 145.795v-14.579l-5.413 3.387a9.176 9.176 0 0 1-4.865 1.398h-6.035a9.187 9.187 0 0 1-5.904-2.154l-4.419-3.706.002 5.736 26.634 9.918"/><path fill="#48515A" d="M126.995 137.246h-6.197c-2.431 0-4.569-.783-6.356-2.328-3.254-2.813-7.868-7.368-11.37-13.092-6.198-10.129-7.499-22.61-7.499-31.296v-.848h2v.848c0 8.429 1.25 20.52 7.205 30.252 3.368 5.505 7.825 9.903 10.972 12.624 1.413 1.221 3.112 1.84 5.048 1.84h6.197c2.197 0 3.995-.585 5.344-1.74 1.885-1.614 7.623-6.524 11.505-12.79 4.984-8.047 7.729-18.767 7.729-30.186v-.848h2v.848c0 11.786-2.852 22.88-8.029 31.239-4.046 6.531-9.961 11.593-11.905 13.257-1.72 1.473-3.956 2.22-6.644 2.22"/><path fill="#48515A" d="M109.923 140.936h2V130.18h-2zM135.923 141.568h2v-10.629h-2zM185.851 221.2h-2v-1.097l-4.256-42.668c-1.232-9.294-7.379-17.195-16.038-20.588l-17.985-6.751.703-1.872 17.999 6.756c9.349 3.663 15.976 12.177 17.307 22.224l4.265 42.8.005 1.196m-121.773 0h-2v-1.097l4.266-42.866c1.336-10.08 7.963-18.594 17.299-22.252l17.928-6.76.706 1.871-17.916 6.755c-8.647 3.389-14.794 11.29-16.03 20.616l-4.257 42.735.004.998"/><path fill="#48515A" d="M122.446 189.659h.106l-12.628-39.333v-7.842l-7.152 7.24-7.349 17.662h.083l4.998-5.056h2.94l19.002 27.329zm2.849 2h-3.894l-19.002-27.329h-1.06l-4.998 5.056h-3.916l8.65-20.79 10.849-10.982v12.399l13.371 41.646z"/><path fill="#48515A" d="M125.313 189.659h.106l19.002-27.329h2.94l4.998 5.056h.082l-7.366-17.662-7.134-7.236-.048 7.987-12.58 39.184zm1.151 2h-3.893l13.37-41.646v-12.402l10.831 10.985 8.67 20.79h-3.918l-4.998-5.056h-1.06l-19.002 27.329zM32.52 136.882h42v-26h-42v26zm-2 2h46v-30h-46v30z"/><path fill="#48515A" d="M53.614 125.059a.996.996 0 0 1-.538-.157l-16.123-10.275a1 1 0 1 1 1.075-1.686l15.584 9.931 14.949-9.591a1 1 0 0 1 1.08 1.684l-15.487 9.936a1.007 1.007 0 0 1-.54.158m18.739 9.895a.999.999 0 0 1-.768-.36l-8.924-10.706a1 1 0 0 1 1.537-1.28l8.923 10.706a1 1 0 0 1-.768 1.64m-37.479 0a.999.999 0 0 1-.767-1.64l8.923-10.706a1 1 0 1 1 1.536 1.28l-8.923 10.706a1 1 0 0 1-.769.36M54.52 154.882h2v-14h-2zM55.459 157.795c-.26 0-.52-.1-.7-.29a.973.973 0 0 1-.29-.71c0-.26.1-.52.29-.7.37-.37 1.04-.37 1.41 0 .19.18.29.44.29.7 0 .27-.1.53-.29.71-.18.19-.44.29-.71.29M63.52 145.882h2v-5h-2zM64.159 149.105c-.27 0-.53-.11-.71-.3a.967.967 0 0 1-.29-.7c0-.27.1-.52.29-.71.28-.28.72-.37 1.09-.22.12.06.23.13.32.22.19.19.3.45.3.71 0 .06-.01.13-.02.19-.01.07-.03.13-.06.19-.02.06-.06.12-.09.17-.04.06-.08.11-.13.15a.995.995 0 0 1-.7.3M45.52 148.882h2v-8h-2zM46.769 152.005c-.26 0-.52-.11-.71-.3a.967.967 0 0 1-.29-.7c0-.27.1-.53.29-.71.37-.37 1.04-.37 1.42 0 .18.19.29.44.29.71 0 .26-.11.51-.29.7-.19.19-.45.3-.71.3M195.52 184.882h2v-4h-2zM195.52 194.882h2v-4h-2zM199.52 188.882h4v-2h-4zM189.52 188.882h4v-2h-4zM64.52 78.882h2v-4h-2zM64.52 88.882h2v-4h-2zM68.52 82.882h4v-2h-4zM58.52 82.882h4v-2h-4z"/><path fill="#475059" d="M42.408 201.882c-1.682 0-3 1.299-3 2.959 0 1.686 1.346 3.041 3 3.041h55.166l6.505-3-6.506-3H42.408zm55.604 8H42.408c-2.757 0-5-2.252-5-5.021 0-2.754 2.243-4.979 5-4.979h55.603l10.844 5-10.843 5z"/><path fill="#475059" d="M47.52 208.882h2v-8h-2z"/><path fill="#475059" d="M48.52 205.882h49v-2h-49zM173.479 131.799c-1.103 0-2 .897-2 2s.897 2 2 2 2-.897 2-2-.897-2-2-2zm0 6c-2.205 0-4-1.795-4-4 0-2.206 1.795-4 4-4 2.206 0 4 1.794 4 4 0 2.205-1.794 4-4 4z"/><path fill="#FFD45C" d="M215.701 63.047c0-16.827-13.641-30.468-30.468-30.468-16.827 0-30.468 13.641-30.468 30.468 0 16.827 13.641 30.467 30.468 30.467 16.827 0 30.468-13.64 30.468-30.467"/><path fill="#48515A" d="M185.024 30.8c-17.897 0-32.457 14.56-32.457 32.456 0 13.288 7.87 25.132 20.051 30.176l.68.281-.066.734a9.37 9.37 0 0 1-3.333 6.334c3.501-.427 6.868-2.173 9.433-4.937l.358-.387.522.078c1.58.235 3.246.267 4.812.267 17.896 0 32.456-14.58 32.456-32.501S202.92 30.8 185.024 30.8zm-16.795 72.082h-4.045v-2c3.385 0 6.314-2.542 6.956-5.907-12.525-5.515-20.573-17.88-20.573-31.719 0-18.999 15.457-34.456 34.457-34.456 18.999 0 34.456 15.477 34.456 34.501 0 19.024-15.457 34.501-34.456 34.501-1.477 0-3.045-.028-4.588-.218-3.313 3.373-7.733 5.298-12.207 5.298z"/><path fill="#48515A" d="M165.522 58.882h38v-2h-38zM165.522 63.882h38v-2h-38zM165.522 67.882h38v-2h-38z"/><path fill="#475059" d="M201.968 137.69c-5.923 0-10.742 4.819-10.742 10.741 0 5.923 4.819 10.742 10.742 10.742 5.922 0 10.741-4.819 10.741-10.742 0-5.922-4.819-10.741-10.741-10.741zm0 23.483c-7.026 0-12.742-5.716-12.742-12.742 0-7.025 5.716-12.741 12.742-12.741 7.025 0 12.741 5.716 12.741 12.741 0 7.026-5.716 12.742-12.741 12.742z"/><path fill="#475059" d="M201.967 137.69c-2.885 0-5.323 4.919-5.323 10.741 0 5.823 2.438 10.742 5.323 10.742 2.884 0 5.322-4.919 5.322-10.742 0-5.822-2.438-10.741-5.322-10.741zm0 23.483c-4.106 0-7.323-5.597-7.323-12.742 0-7.144 3.217-12.741 7.323-12.741s7.322 5.597 7.322 12.741c0 7.145-3.216 12.742-7.322 12.742z"/><path fill="#475059" d="M190.52 149.882h23v-2h-23z"/></g></svg>