<?xml version="1.0" encoding="utf-8"?><svg xmlns="http://www.w3.org/2000/svg" xmlns:xlink="http://www.w3.org/1999/xlink" width="193" height="173" viewBox="0 0 193 173"><defs><path id="rca" d="M.994 0h118v11.94h-118z"/></defs><g fill="none" fill-rule="evenodd"><g transform="translate(33 1)"><path fill="#DEDEDD" d="M.994 140h124v-8h-124z"/><path fill="#475059" d="M50.352 99.355h25.096v-17.62a32.747 32.747 0 0 1 9.656-23.309l.189-.189c13.014-13.014 13.378-33.92.811-46.602C73.458-1.128 52.86-1.223 40.097 11.422l-.212.213c-12.568 12.682-12.203 33.588.811 46.603a32.745 32.745 0 0 1 9.656 23.309v17.808zm27.096 1.999H48.352V81.547a30.765 30.765 0 0 0-9.07-21.895c-13.791-13.791-14.158-35.963-.817-49.425 13.423-13.548 35.287-13.648 48.834-.225.075.074.15.149.224.225 13.341 13.462 12.974 35.634-.817 49.425l-.189.189a30.761 30.761 0 0 0-9.069 21.894v19.619z"/></g><path fill="#475059" d="M29.994 132.354h132v-13a7.008 7.008 0 0 0-7-7h-118a7.009 7.009 0 0 0-7 7v13zm134 2h-136v-15a9.011 9.011 0 0 1 9-9h118c4.968.006 8.995 4.032 9 9v15z"/><path fill="#475059" d="M54.994 110.354h82v-7c0-.552-.448-.999-1-1h-80a1.002 1.002 0 0 0-1 1v7zm84 2h-86v-9a3.002 3.002 0 0 1 3-2.999h80a3.002 3.002 0 0 1 3 2.999v9z"/><path fill="#DEDEDD" d="M56.994 108.354h78v-4h-78zM85.352 98.355h21.096v-15.62a34.739 34.739 0 0 1 10.241-24.723l.192-.191c12.235-12.236 12.597-31.876.802-43.778-11.867-11.979-31.198-12.069-43.176-.202-.067.067-.135.134-.201.202-11.795 11.902-11.434 31.542.804 43.781a34.734 34.734 0 0 1 10.242 24.723v15.808"/><path fill="#F58E70" d="M154.994 114.354h-118a5.006 5.006 0 0 0-5 5v11h128v-11a5.006 5.006 0 0 0-5-5"/><path fill="#5FE0ED" d="M35.994 157h32v-4h-32zM71.994 157h70v-4h-70z"/><g transform="translate(37 161)"><mask id="rcb" fill="#fff"><use xlink:href="#rca"/></mask><path fill="#5FE0ED" mask="url(#rcb)" d="M34.994 4h84V0h-84zM34.994 11.94h64V8h-64zM6.994 0a6 6 0 1 1 0 12 6 6 0 0 1 0-12m14 0a6 6 0 1 1 0 12 6 6 0 0 1 0-12"/></g><path fill="#48515A" d="M184.107 105h2v-4h-2zM184.107 115h2v-4h-2zM188.107 109h4v-2h-4zM178.107 109h4v-2h-4zM6 123h2v-4H6zM6 133h2v-4H6zM10 127h4v-2h-4zM0 127h4v-2H0zM29.994 51.001h2v-4h-2zM29.994 61.001h2v-4h-2zM33.994 55.001h4v-2h-4zM23.994 55.001h4v-2h-4z"/><path fill="#5FE0ED" d="M48.953 71.055a4 4 0 1 1 0 8 4 4 0 0 1 0-8"/><path fill="#F58E70" d="M24.97 143a2 2 0 1 1 0 4 2 2 0 0 1 0-4"/><path fill="#475059" d="M145.819 83.998a6.007 6.007 0 0 1-4.251-10.255l16.58-16.573a4.007 4.007 0 0 1 5.665 5.666l-17.289 17.28-1.414-1.415 17.289-17.28a2.005 2.005 0 0 0-2.837-2.835l-16.58 16.571a4.01 4.01 0 0 0 5.671 5.67l16.58-16.572a6.013 6.013 0 1 0-8.505-8.503l-17.288 17.28-1.414-1.415 17.288-17.279a8.014 8.014 0 0 1 11.333 11.332l-16.58 16.572a5.998 5.998 0 0 1-4.248 1.756"/></g></svg>