<?xml version="1.0" encoding="utf-8"?><svg xmlns="http://www.w3.org/2000/svg" width="250" height="250" viewBox="0 0 250 250"><g fill="none" fill-rule="evenodd"><path fill="#F58E70" d="M161.739 123.174V150.5h5.001v8l19.499.005v-35.331h-24.5M161.739 197.5h24.5v-31.662h-24.5z"/><path fill="#475059" d="M188.239 200.5h2v-32.163h-2zM188.239 158.338h2v-32.163h-2zM188.239 116.84h2V84.512h-2z"/><path fill="#475059" d="M159.782 83.512h32.957v-2h-32.957v2zm-2 2h36.957v-6h-36.957v6zM194.739 205.5h-27.952v-2h25.952v-2h-25.952v-2h27.952v6M194.739 166.838h-33.438v-2h31.438v-2h-31.438v-2h33.438v6M194.739 124.507h-33v-2h31v-2h-31v-2h33v6"/><path fill="#475059" d="M167.239 79.512h18v-2h-18v2zm-2 2h22v-6h-22v6z"/><path fill="#475059" d="M171.239 75.512h10v-3c0-.551-.448-1-1-1h-8c-.551 0-1 .449-1 1v3zm12 2h-14v-5c0-1.654 1.346-3 3-3h8c1.655 0 3 1.346 3 3v5z"/><path fill="#F58E70" d="M159.221 87.513V104.5h6.518v11.007h20.5V87.513h-27.018"/><path fill="#475059" d="M59.739 104.833h2V64.5h-2zM59.739 150.5h2v-36.333h-2zM59.739 200.5h2v-39.833h-2z"/><path fill="#FFD15D" d="M104.743 111.167v8.333h16.996v24h-16.996v7h50.996v-39.333h-50.996M63.739 104.5h19.504v-38H63.739zM63.739 150.5h19.504v-39.333H63.739zM63.739 197.5h19.504v-39.667H63.739zM104.743 103.5h50.996V67.501h-50.996zM104.743 197.5h50.996v-39.667h-50.996z"/><path fill="#475059" d="M157.739 200.5h2v-40.167h-2zM157.739 150.333h2v-36.166h-2zM157.739 104.833h2V64.5h-2z"/><path fill="#475059" d="M57.239 63.5h105v-2h-105v2zm-2 2h109v-6h-109v6zm2 138h105v-2h-105v2zm-2 2h109v-6h-109v6zm2-48.667h105v-2h-105v2zm-2 2h109v-6h-109v6zm2-48.333h105v-2h-105v2zm-2 2h109v-6h-109v6zm54.738 15.634c-1.245 2.424-2.657 5.192-2.785 5.49a3.002 3.002 0 0 0 2.786 4.11 3.003 3.003 0 0 0 2.783-4.117c-.12-.274-1.536-3.049-2.784-5.483zm.001 11.6a5.005 5.005 0 0 1-4.999-4.999c0-.646.122-1.275.362-1.867.175-.434 2.913-5.758 3.748-7.38l.89-1.727.888 1.728c.84 1.634 3.593 6.995 3.748 7.38.24.595.362 1.222.362 1.866a5.005 5.005 0 0 1-4.999 4.999z"/><path fill="#475059" d="M98.739 143.5h22v-22h-22v22zm-2 2h26v-26h-26v26zm40-86h18v-2h-18v2zm-2 2h22v-6h-22v6z"/><path fill="#475059" d="M140.739 55.5h10v-3c0-.551-.448-1-1-1h-8c-.551 0-1 .449-1 1v3zm12 2h-14v-5c0-1.654 1.346-3 3-3h8c1.655 0 3 1.346 3 3v5z"/><path fill="#48515A" d="M213.011 178.524h2v-4h-2zM213.011 188.524h2v-4h-2zM217.011 182.524h4v-2h-4zM207.011 182.524h4v-2h-4zM48.989 51.5h2v-4h-2zM48.989 61.5h2v-4h-2zM52.989 55.5h4v-2h-4zM42.989 55.5h4v-2h-4zM34.989 141.5h2v-4h-2zM34.989 151.5h2v-4h-2zM38.989 145.5h4v-2h-4zM28.989 145.5h4v-2h-4z"/><path fill="#FFD15D" d="M113.864 47.938a2.437 2.437 0 1 1-4.874 0 2.437 2.437 0 0 1 4.874 0m-66 55.124a2.437 2.437 0 1 1-4.874.002 2.437 2.437 0 0 1 4.874-.002"/><path fill="#F58E70" d="M201.864 191.062a2.437 2.437 0 1 1-4.874.002 2.437 2.437 0 0 1 4.874-.002m11.125-33.124a2.437 2.437 0 1 1-4.874 0 2.437 2.437 0 0 1 4.874 0"/><path fill="#475059" d="M48.989 166.5c-1.654 0-3 1.346-3 3s1.346 3 3 3c1.655 0 3-1.346 3-3s-1.345-3-3-3zm0 8c-2.757 0-5-2.243-5-5s2.243-5 5-5 5 2.243 5 5-2.243 5-5 5zm147-114c-1.102 0-2 .897-2 2s.898 2 2 2c1.103 0 2-.897 2-2s-.897-2-2-2zm0 6c-2.206 0-4-1.794-4-4s1.794-4 4-4 4 1.794 4 4-1.794 4-4 4z"/></g></svg>