<?xml version="1.0" encoding="utf-8"?><svg xmlns="http://www.w3.org/2000/svg" width="250" height="250" viewBox="0 0 250 250"><g fill="none" fill-rule="evenodd"><path fill="#48515A" d="M107.47 210.832h-2v-11H68.472v11h-2v-13h40.998v13"/><path fill="#5FE0ED" d="M61.472 220.832h48.12v-12.995h-48.12z"/><path fill="#48515A" d="M75.471 215.832h-3.999a1 1 0 1 1 0-2h3.999a1 1 0 1 1 0 2"/><path fill="#48515A" d="M69.472 213.832a1.001 1.001 0 0 0 0 2 1.001 1.001 0 0 0 0-2zm0 4c-1.654 0-3-1.346-3-3s1.346-3 3-3 3 1.346 3 3-1.346 3-3 3z"/><path fill="#DEDEDD" d="M52.693 137.306v15.792l11.028 9.525a12.42 12.42 0 0 0 8.943 3.638l3.322-.041L63.7 155.674v-10.363c0-2.984-1.071-5.619-3.002-7.247v-.758c0-4.946-2.926-8.955-7.872-8.955v1.073c-1.12-.684-2.463-1.073-4.002-1.073v1.073c2.48 1.513 3.869 4.475 3.869 7.882"/><path fill="#475059" d="M75.986 167.22a.992.992 0 0 1-.651-.241L62.7 156.134v-10.823c0-2.702-.964-5.065-2.646-6.482l-.355-.3v-1.223c0-3.96-2.125-7.955-6.872-7.955h-3.003v.072a1 1 0 1 1-2 0v-2.072h5.003c5.223 0 8.872 4.093 8.872 9.955v.312c1.913 1.814 3.001 4.587 3.001 7.693v9.904l11.937 10.246a1 1 0 0 1-.651 1.759"/><path fill="#475059" d="M100.776 199.233a1 1 0 0 1-1-1v-21.857a9.12 9.12 0 0 0-2.689-6.491l-23.513-23.514c-2.565 3.33-2.2 8.435.996 11.63l9.628 9.115-11.521.145c-3.585.028-7.12-1.387-9.663-3.931l-11.32-9.774v-16.25c0-3.67-1.825-7.371-5.872-7.893v29.396l27.977 26.666v12.674a1 1 0 1 1-2 0v-11.817l-27.977-26.666v-32.315h1c5.223 0 8.872 4.093 8.872 9.955v15.335l10.68 9.225c2.218 2.215 5.166 3.439 8.278 3.395l6.591-.083-6.068-5.743c-1.989-1.989-3.173-4.749-3.267-7.592-.099-2.949.936-5.662 2.913-7.639l.706-.706 24.975 24.973a11.107 11.107 0 0 1 3.274 7.905v21.857a1 1 0 0 1-1 1"/><path fill="#48515A" d="M179.954 210.832h-2v-11h-36.998v11h-2v-13h40.998v13"/><path fill="#5FE0ED" d="M136.835 220.832h48.119v-12.995h-48.119z"/><path fill="#48515A" d="M174.954 215.832h-3.998a1 1 0 1 1 0-2h3.998a1 1 0 0 1 0 2"/><path fill="#48515A" d="M176.954 213.832a1.001 1.001 0 0 0 0 2c.551 0 1-.449 1-1 0-.551-.449-1-1-1zm0 4c-1.655 0-3-1.346-3-3s1.345-3 3-3c1.654 0 3 1.346 3 3s-1.346 3-3 3z"/><path fill="#DEDEDD" d="M193.733 137.306v15.792l-11.028 9.525a12.42 12.42 0 0 1-8.943 3.638l-3.322-.041 12.286-10.546v-10.363c0-2.984 1.071-5.619 3.002-7.247v-.758c0-4.946 2.926-8.955 7.872-8.955v1.073c1.12-.684 2.463-1.073 4.002-1.073v1.073c-2.48 1.513-3.869 4.475-3.869 7.882"/><path fill="#475059" d="M170.44 167.22a1 1 0 0 1-.651-1.759l11.937-10.246v-9.904c0-3.105 1.089-5.879 3.002-7.693v-.312c0-5.862 3.648-9.955 8.872-9.955h5.002v2.072a1 1 0 1 1-2 0v-.072H193.6c-4.747 0-6.872 3.995-6.872 7.955v1.223l-.355.3c-1.682 1.418-2.647 3.78-2.647 6.482v10.823l-12.635 10.845a.994.994 0 0 1-.651.241"/><path fill="#475059" d="M145.65 199.233a1 1 0 0 1-1-1v-21.857c0-2.987 1.163-5.794 3.275-7.906l24.972-24.973.708.707c1.977 1.977 3.012 4.69 2.914 7.639-.095 2.843-1.278 5.603-3.248 7.573l-6.087 5.762 6.591.083a11.488 11.488 0 0 0 8.224-3.345l10.734-9.275v-15.335c0-5.862 3.648-9.955 8.872-9.955h1v32.315l-27.978 26.666v11.817a1 1 0 1 1-2 0v-12.674l27.978-26.666v-29.396c-4.047.522-5.872 4.223-5.872 7.893v16.25l-11.374 9.824a13.332 13.332 0 0 1-9.609 3.881l-11.521-.145 9.647-9.134c3.177-3.177 3.541-8.281.976-11.61l-23.513 23.513a9.118 9.118 0 0 0-2.689 6.491v21.857a1 1 0 0 1-1 1"/><path fill="#DFE0E0" d="M139.847 115.063l.013-7.371v-6.741l.003-.257c-2.027 1.976-4.609 4.063-6.439 5.626-1.708 1.459-3.892 2.493-6.138 2.493h-6.489a8.607 8.607 0 0 1-5.669-2.107c-1.415-1.236-3.419-2.825-5.268-4.456v2.826l25.049 25.048c3.329-1.793 6.261-4.524 8.367-8.208l2.488-4.353-5.917-2.5"/><path fill="#48515A" d="M64.94 134.096l-.746-1.856 44.667-17.937v-11.49h2v12.843l-45.921 18.44"/><path fill="#48515A" d="M180.846 132.713l-42-17.23.015-14.866.179-.257c.407-.587.896-1.162 1.369-1.718.678-.798 1.38-1.622 1.616-2.25l6.033-12.654 6.902-3.511 1.577-7.936a2.66 2.66 0 0 0-.751-1.799c-.426-.438-.959-.679-1.502-.679h-2.574l.253-1.459c.502-2.88.898-5.156.898-7.621l-.061-1.355c.025-3.821-.852-7.758-2.537-11.386a23.832 23.832 0 0 0-.471-1 28.695 28.695 0 0 0-7.901-9.73c-5-3.943-11.015-6.05-17.394-6.094h-.189c-7.346 0-14.34 2.933-19.716 8.272-5.548 5.511-8.731 13.098-8.731 20.814v.479c0 2.35.202 4.647.697 7.931l.173 1.149h-2.375c-1.2 0-2.297 1.172-2.363 2.491l2.241 8.078 6.01 3.495 5.938 12.61c.832 2.222 4.554 5.28 7.272 7.513.671.551 1.308 1.075 1.876 1.56 1.701 1.453 3.642 2.253 5.464 2.253h6.067v2h-6.067c-2.297 0-4.7-.97-6.763-2.732a131.54 131.54 0 0 0-1.847-1.536c-3.214-2.64-6.856-5.633-7.844-8.282l-5.64-11.97-6.175-3.591-2.535-9.273c0-2.502 1.999-4.616 4.366-4.616h.058c-.391-2.798-.553-4.911-.553-7.08v-.479c0-8.245 3.397-16.349 9.322-22.233 5.753-5.714 13.248-8.853 21.125-8.853h.202c6.828.047 13.267 2.303 18.619 6.523a30.71 30.71 0 0 1 8.954 11.47c1.783 3.84 2.723 8.023 2.718 12.093l.06.356v1.123c0 2.362-.345 4.588-.774 7.08h.197c1.088 0 2.13.456 2.935 1.285a4.622 4.622 0 0 1 1.317 3.326l-.02.167-1.784 8.977-7.162 3.644-5.707 11.962c-.325.876-1.106 1.792-1.931 2.763-.37.436-.751.883-1.071 1.315l-.013 12.891 40.758 16.72-.76 1.85"/><path fill="#48515A" d="M124.848 133.807c-10.07 0-18.882-6.444-21.927-16.035a1 1 0 1 1 1.907-.605c2.78 8.756 10.825 14.64 20.02 14.64a20.988 20.988 0 0 0 19.902-14.28 1 1 0 0 1 1.895.64 22.988 22.988 0 0 1-21.797 15.64M34.988 115.846h2v-4h-2zM34.988 125.846h2v-4h-2zM38.988 119.846h4v-2h-4zM28.988 119.846h4v-2h-4zM213.012 160.888h2v-4h-2zM213.012 170.888h2v-4h-2zM217.012 164.888h4v-2h-4zM207.012 164.888h4v-2h-4zM182.995 50.822h2v-4h-2zM182.995 60.822h2v-4h-2zM186.995 54.822h4v-2h-4zM176.995 54.822h4v-2h-4zM41.851 64.8h22v-2h-22zM58.746 98.8h17.105a5.01 5.01 0 0 0 4.9-4H60.78a6.994 6.994 0 0 1-2.034 4zm17.105 2h-22c-3.859 0-7-3.14-7-7v-24h2v24c0 2.757 2.243 5 5 5s5-2.243 5-5v-1h24v1c0 3.86-3.141 7-7 7z"/><path fill="#48515A" d="M70.851 93.8h-2v-24c0-2.757-2.243-5-5-5s-5 2.243-5 5v1h-24v-1c0-3.86 3.141-7 7-7v2a5.008 5.008 0 0 0-4.899 4h19.97c.487-3.388 3.409-6 6.929-6 3.859 0 7 3.14 7 7v24"/><path fill="#475059" d="M184.848 97.88h-2c0-2.205-1.794-4-4-4s-4 1.795-4 4h-2c0-3.308 2.692-6 6-6 3.309 0 6 2.692 6 6"/><path fill="#475059" d="M194.848 97.88h-2c0-2.205-1.794-4-4-4s-4 1.795-4 4h-2c0-3.308 2.692-6 6-6 3.309 0 6 2.692 6 6"/><path fill="#475059" d="M204.848 97.88h-2c0-2.205-1.794-4-4-4s-4 1.795-4 4h-2c0-3.308 2.692-6 6-6 3.309 0 6 2.692 6 6"/><path fill="#475059" d="M172.848 96.88c0-8.822 7.178-16 16-16s16 7.178 16 16h-2c0-7.72-6.28-14-14-14s-14 6.28-14 14h-2"/><path fill="#475059" d="M185.348 110.881a4.505 4.505 0 0 1-4.5-4.5h2c0 1.379 1.121 2.5 2.5 2.5s2.5-1.121 2.5-2.5V92.88h2v13.501c0 2.482-2.018 4.5-4.5 4.5M187.848 81.88h2v-2.998h-2z"/></g></svg>