<?xml version="1.0" encoding="utf-8"?><svg xmlns="http://www.w3.org/2000/svg" width="192" height="188" viewBox="0 0 192 188"><g fill="none" fill-rule="evenodd"><path fill="#DEDEDD" d="M103.923 150.992h2V74h-2zM131.922 150.992h2V74h-2zM61.922 150.992h2V74h-2zM75.922 150.992h2V74h-2zM89.922 150.992h2V74h-2zM117.922 150.992h2V74h-2zM145.922 150.992h2V74h-2zM159.925 150.992h2V74h-2z"/><path fill="#DEDEDD" d="M52.929 133.99h110.993v-2H52.929zM48.426 118.99h116.995v-2H48.426zM45.426 103.99h121.496v-2H45.426zM41.42 88.99h125.502v-2H41.42z"/><path fill="#DEDEDD" d="M47.921 120.473h2V74h-2zM158.922 25.982l-4-6.003v-5.997h4v12"/><path fill="#48515A" d="M56.714 149.992h105.258l3.894-74.985H39.184l17.53 74.985zm107.156 2H55.128L36.663 73.007h131.311l-4.104 78.985z"/><path fill="#48515A" d="M154.301 176.001H59.934a7.005 7.005 0 1 1 0-14.009h88.988a5 5 0 0 0 0-10h-30v-2h30a7 7 0 1 1 0 14H59.934a5.004 5.004 0 1 0 0 10.009h94.367v2"/><path fill="#48515A" d="M154.922 176a5 5 0 1 0 0 10 5 5 0 0 0 5-5 5.006 5.006 0 0 0-5-5zm0 12a7 7 0 1 1 7-7 7.009 7.009 0 0 1-7 7zM26.924 75h12v-2h-12z"/><path fill="#48515A" d="M21.924 69.999a4 4 0 1 0 0 8 4 4 0 0 0 0-8zm0 10a6 6 0 1 1 6-6 6.007 6.007 0 0 1-6 6zM64.868 176a5 5 0 1 0 0 10 5 5 0 0 0 0-10zm0 12a7 7 0 1 1 7-7 7.008 7.008 0 0 1-7 7zM6 90.996h2v-4H6zM6 100.996h2v-4H6zM10 94.996h4v-2h-4zM0 94.996h4v-2H0zM183.982 51.001h2v-4h-2zM183.982 61.001h2v-4h-2zM187.982 55.001h4v-2h-4zM177.982 55.001h4v-2h-4zM183.926 140.015h2v-4h-2zM183.926 150.015h2v-4h-2zM187.926 144.015h4v-2h-4zM177.926 144.015h4v-2h-4z"/><path fill="#FFD15D" d="M32.971 105.924l10 12.003-10 12.002H9.965v-24.005h23.006"/><path fill="#5FE0ED" d="M127.873 55.505l.026 9.198c.55.514 1.275.801 2.029.802h3v-10h-5.055"/><path fill="#475059" d="M162.928 28.534h-2V11.983h-8.001v6.507h-2V9.983h12.001v18.551"/><path fill="#5FE0ED" d="M138.935 41.186h3a3 3 0 0 0 3-3v-7h-6v10m17.007 0h-3a3 3 0 0 1-3-3v-7h6v10"/><path fill="#475059" d="M153.926 74.185h-2V56.49h-9v17.695h-2V54.49h13v19.695M160.928 74.258h2v-46.02h-2zM139.928 42.186h15v-10h-15v10zm-2 2h19v-14h-19v14z"/><path fill="#F58E70" d="M135.928.996L125.84 9.823l.951 3.12 9.137-7.961 31 27.009 1.988-2.131L135.928.996"/><path fill="#475059" d="M147.897 68.185h2v-2h-2zM127.911 50.186h36.986v-2h-36.986z"/><path fill="#5FE0ED" d="M130.922 31.186v6.957h-3.098l.006 2.184a2.988 2.988 0 0 0 2.098.859h3v-10h-2.006"/><path fill="#475059" d="M133.928 44.186h-6.09v-2h4.09v-10h-1.005v-2h3.005v14M133.928 68.49h-6.022v-2h4.022v-10h-4.055v-2h6.055v14M166.278 32.751l-30.35-25.945-8.419 7.197-1.299-1.52 9.718-8.308 31.649 27.056-1.299 1.52"/><path fill="#F58E70" d="M43.908 32.143h81.014v-4.81L118.91 7.94H49.919l-6.011 19.544v4.659"/><path fill="#5FE0ED" d="M101.938 53.94h12v-8h-12zM53.909 53.94h12v-8h-12z"/><path fill="#475059" d="M41.908 34.143h85.014v-7.054L120.475 5.94H48.357l-6.449 21.3v6.903zm87.014 2H39.908l.043-9.342L46.873 3.94h75.082l6.967 23v9.203z"/><path fill="#475059" d="M123.816 35.145l2-.005.106 38.753-2 .005-.106-38.753M41.909 73.896h2V35.09h-2zM93.813 73.895h-2V51.94a8 8 0 0 0-16 0v21.955h-2V51.94c0-5.523 4.477-10 10-10s10 4.477 10 10v21.955m6.094-17.955h16v-12h-16v12zm-2 2h20v-16h-20v16z"/><path fill="#475059" d="M106.908 56.94h2v-14h-2zM51.909 55.94h16v-12h-16v12zm-2 2h20v-16h-20v16z"/><path fill="#475059" d="M58.91 56.94h2v-14h-2zM46.909 28.941h2.138v-2h-2.138v2zm4.275 0h2.138v-2h-2.138v2zm4.275 0h2.138v-2h-2.138v2zm4.276 0h2.138v-2h-2.138v2zm4.276 0h2.138v-2h-2.138v2zm4.275 0h2.138v-2h-2.138v2zm4.275 0h2.138v-2h-2.138v2zm4.276 0h2.138v-2h-2.138v2zm4.275 0h2.138v-2h-2.138v2zm4.276 0h2.138v-2h-2.138v2zm4.276 0h2.138v-2h-2.138v2zm4.275 0h2.138v-2h-2.138v2zm4.276 0h2.138v-2h-2.138v2zm4.275 0h2.138v-2h-2.138v2zm4.276 0h2.137v-2h-2.137v2zm4.275 0h2.138v-2h-2.138v2zm4.275 0h2.138v-2h-2.138v2zm6.413 0h-2.137v-2h2.138l-.001 2z"/><path fill="#5FE0ED" d="M8.355 50.096a2.437 2.437 0 1 1 .002 4.874 2.437 2.437 0 0 1-.002-4.874m157.144 114.898a2.437 2.437 0 1 1 .002 4.874 2.437 2.437 0 0 1-.002-4.874"/><path fill="#FFD15D" d="M180.93 85.977a2 2 0 1 1 0 4 2 2 0 0 1 0-4"/></g></svg>