<?xml version="1.0" encoding="utf-8"?><svg xmlns="http://www.w3.org/2000/svg" width="250" height="250" viewBox="0 0 250 250"><g fill="none" fill-rule="evenodd"><path fill="#FACD60" d="M211.127 158.061a3 3 0 1 1-6 0 3 3 0 0 1 6 0"/><path fill="#434A4F" d="M181.371 90.257l3.852 1.251.715-2.203c.651-2.008 2.437-3.305 4.547-3.306h.002c2.109 0 3.894 1.296 4.547 3.303l.716 2.202 3.852-1.253-.717-2.202c-.652-2.008.03-4.106 1.737-5.347 1.707-1.241 3.913-1.241 5.62-.001l1.874 1.36 2.38-3.278-1.874-1.361c-1.707-1.239-2.391-3.337-1.74-5.344.652-2.008 2.437-3.306 4.548-3.307h2.316l-.002-4.051-2.316.001h-.001c-2.11 0-3.895-1.296-4.548-3.302-.652-2.007.029-4.106 1.736-5.347l1.873-1.362-2.322-3.194-1.874 1.361c-1.707 1.243-3.914 1.242-5.621.002-1.708-1.239-2.39-3.338-1.739-5.344l.715-2.203-3.854-1.251-.714 2.204c-.651 2.007-2.436 3.304-4.546 3.305h-.002c-2.111 0-3.895-1.296-4.547-3.302l-.717-2.202-3.851 1.253.716 2.202c.653 2.007-.029 4.106-1.735 5.347-1.708 1.24-3.915 1.242-5.621.002l-1.874-1.36-2.38 3.278 1.874 1.36c1.708 1.24 2.391 3.338 1.739 5.346-.651 2.007-2.435 3.304-4.547 3.305l-2.315.001.002 4.051 2.316-.001h.002c2.11 0 3.894 1.296 4.546 3.302.653 2.007-.028 4.106-1.735 5.347l-1.873 1.362 2.321 3.192 1.873-1.362c1.706-1.24 3.914-1.243 5.622-.001 1.707 1.239 2.39 3.337 1.738 5.344l-.714 2.203zm5.137 3.77l-7.657-2.484 1.332-4.106c.46-1.417-.221-2.535-1.011-3.109-.791-.575-2.065-.877-3.271.001l-3.49 2.538-4.673-6.428 3.49-2.538c1.205-.876 1.312-2.181 1.01-3.111-.303-.928-1.156-1.92-2.645-1.92h-.002l-4.316.002-.002-8.051 4.315-.002c1.491 0 2.343-.993 2.645-1.923.302-.929.194-2.234-1.012-3.109l-3.492-2.536 4.729-6.515 3.493 2.536c1.204.875 2.479.573 3.269-.002.79-.574 1.471-1.693 1.01-3.11l-1.336-4.104 7.656-2.491 1.336 4.104c.46 1.417 1.668 1.921 2.645 1.921h.001c.977 0 2.184-.505 2.644-1.923l1.332-4.105 7.659 2.484-1.333 4.106c-.459 1.417.221 2.535 1.012 3.109.789.574 2.065.875 3.271-.001l3.49-2.538 4.676 6.43-3.492 2.538c-1.206.876-1.312 2.181-1.01 3.11.302.929 1.156 1.921 2.646 1.921h.001l4.316-.002.002 8.051-4.316.001c-1.49.001-2.344.994-2.645 1.924-.301.929-.194 2.234 1.012 3.109l3.492 2.536-4.73 6.514-3.493-2.535c-1.202-.874-2.479-.574-3.269.001-.79.574-1.47 1.693-1.009 3.111l1.334 4.104-7.656 2.49-1.335-4.105c-.46-1.416-1.668-1.921-2.645-1.921-.978 0-2.186.506-2.646 1.923l-1.332 4.105z"/><path fill="#42494E" d="M181.167 75.651c-3.758-5.168-2.611-12.429 2.557-16.187a11.526 11.526 0 0 1 8.624-2.074 11.51 11.51 0 0 1 7.564 4.631l-1.618 1.176a9.52 9.52 0 0 0-6.258-3.832 9.523 9.523 0 0 0-7.136 1.716c-4.275 3.11-5.225 9.118-2.116 13.395l-1.617 1.175"/><path fill="#E9886C" d="M190.517 65.294a3.52 3.52 0 0 0-.559.045 3.477 3.477 0 0 0-2.283 1.403 3.477 3.477 0 0 0-.622 2.606 3.502 3.502 0 0 0 6.29 1.5c.549-.757.77-1.682.622-2.605a3.471 3.471 0 0 0-1.402-2.282 3.47 3.47 0 0 0-2.046-.667zm-.017 9.998a6.452 6.452 0 0 1-3.804-1.233 6.464 6.464 0 0 1-2.606-4.238 6.46 6.46 0 0 1 1.156-4.839 6.456 6.456 0 0 1 4.238-2.606 6.471 6.471 0 0 1 4.839 1.155 6.459 6.459 0 0 1 2.605 4.239 6.453 6.453 0 0 1-1.155 4.838 6.496 6.496 0 0 1-5.273 2.684z"/><path fill="#434A4F" d="M191.246 55.815a.999.999 0 0 1-.94-1.06c.03-.55.5-.97 1.05-.94.55.03.98.51.95 1.06-.03.53-.48.94-1.01.94h-.05zm-4.89-.43a1 1 0 0 1 .75-1.2.997.997 0 0 1 1.2.75.997.997 0 0 1-.75 1.2c-.07.01-.15.02-.23.02-.45 0-.86-.31-.97-.77zm8.52 1.16c-.52-.18-.79-.76-.61-1.28a.998.998 0 0 1 1.28-.6c.52.18.79.75.61 1.28-.15.4-.53.66-.94.66-.12 0-.23-.02-.34-.06zm-12.13.55a1 1 0 0 1 1.74-.98 1 1 0 0 1-1.74.98zm15.39 1.17a.982.982 0 0 1-.219-1.39.994.994 0 0 1 1.389-.23c.45.33.55.95.23 1.4-.2.27-.51.41-.82.41-.2 0-.4-.06-.58-.19zm-18.37 1.49a.987.987 0 0 1-.02-1.41.987.987 0 0 1 1.41-.02c.4.38.41 1.01.03 1.41a1.015 1.015 0 0 1-1.42.02zm21.03 1.09c-.339-.44-.26-1.07.18-1.41a1.01 1.01 0 0 1 1.4.18 1.004 1.004 0 0 1-.79 1.62c-.3 0-.59-.14-.79-.39zm-23.14 2.3a.995.995 0 1 1 .93-1.76.996.996 0 1 1-.93 1.76zm24.96.92c-.199-.52.051-1.1.57-1.3.51-.2 1.1.06 1.3.57.2.52-.06 1.1-.58 1.3-.11.04-.239.07-.36.07-.4 0-.77-.25-.93-.64zm-26.03 2.93c-.54-.1-.89-.63-.79-1.17.11-.54.64-.9 1.18-.79.54.11.89.64.78 1.18-.089.48-.51.8-.97.8-.07 0-.14 0-.2-.02zm26.871.67a.996.996 0 0 1 .909-1.08.991.991 0 0 1 1.08.91.99.99 0 0 1-.9 1.08c-.03 0-.06.01-.089.01-.511 0-.951-.4-1-.92zm-27.891 2.42a.998.998 0 1 1 1.99-.17.998.998 0 0 1-.91 1.08h-.09c-.51 0-.95-.39-.99-.91zm28.47 2.46c-.54-.11-.89-.64-.78-1.18.11-.54.63-.89 1.17-.78.55.1.9.63.79 1.17-.1.48-.509.81-.98.81-.069 0-.13-.01-.2-.02zm-27.51 1.7h.01c-.21-.52.05-1.1.56-1.3.52-.2 1.1.06 1.3.57a1.008 1.008 0 0 1-.93 1.37c-.4 0-.78-.24-.94-.64zm25.91 1.96a1 1 0 0 1-.42-1.35v-.01a.99.99 0 0 1 1.35-.41c.49.25.67.86.42 1.35-.18.34-.53.53-.89.53-.16 0-.32-.04-.46-.11zm-23.8 1.76c-.34-.44-.26-1.07.18-1.41.43-.33 1.06-.25 1.4.19.34.43.26 1.06-.18 1.4-.18.14-.4.21-.61.21a1 1 0 0 1-.79-.39zm21.23 1.3a1.01 1.01 0 0 1-.03-1.42c.39-.39 1.02-.4 1.42-.02.39.38.4 1.02.02 1.42-.2.2-.46.3-.72.3-.25 0-.5-.09-.69-.28zm-18.17 1.67h.011a1.005 1.005 0 0 1-.231-1.4c.33-.44.95-.54 1.4-.22.45.33.541.95.22 1.4a1.01 1.01 0 0 1-1.4.22zm14.84.54a.999.999 0 0 1 .381-1.36.99.99 0 0 1 1.359.38 1 1 0 0 1-1.74.98zm-11.06 1.45a.997.997 0 0 1-.61-1.27 1.003 1.003 0 0 1 1.89.67.998.998 0 0 1-1.28.6zm7.24-.27a.992.992 0 0 1 .75-1.2c.53-.13 1.07.21 1.201.75a1.01 1.01 0 0 1-.75 1.2c-.081.01-.151.02-.231.02-.45 0-.86-.31-.97-.77zm-3.049 1.12a1.013 1.013 0 0 1-.951-1.06c.04-.55.51-.97 1.06-.94.55.03.97.5.94 1.05a1 1 0 0 1-1 .95h-.049zM213.053 125.174h2v-4h-2zM213.053 135.174h2v-4h-2zM217.053 129.174h4v-2h-4zM207.053 129.174h4v-2h-4z"/><path fill="#42494E" d="M47.278 152.83c-5.923 0-10.741 4.818-10.741 10.741s4.818 10.741 10.741 10.741 10.741-4.818 10.741-10.741-4.818-10.741-10.741-10.741zm0 23.482c-7.026 0-12.741-5.716-12.741-12.741 0-7.026 5.715-12.741 12.741-12.741 7.025 0 12.741 5.715 12.741 12.741 0 7.025-5.716 12.741-12.741 12.741z"/><path fill="#42494E" d="M47.277 152.83c-2.885 0-5.322 4.919-5.322 10.741s2.437 10.741 5.322 10.741c2.885 0 5.322-4.919 5.322-10.741s-2.437-10.741-5.322-10.741zm0 23.482c-4.106 0-7.322-5.597-7.322-12.741 0-7.145 3.216-12.741 7.322-12.741 4.105 0 7.322 5.596 7.322 12.741 0 7.144-3.217 12.741-7.322 12.741z"/><path fill="#42494E" d="M35.537 164.571h23.482v-2H35.537z"/><path fill="#FACD60" d="M53.109 188.11a3 3 0 1 1-6 0 3 3 0 0 1 6 0"/><path fill="#E9886C" d="M43.181 118.871a2 2 0 1 1-4 0 2 2 0 0 1 4 0"/><path fill="#42494E" d="M109.052 198.995c-1.654 0-3 1.346-3 3a3.005 3.005 0 0 0 3.001 3h100.549l6.506-3-6.507-3H109.052zm100.99 8H109.053c-2.756 0-5-2.243-5.001-4.999a5.006 5.006 0 0 1 5-5.001h100.989l10.842 5-10.841 5z"/><path fill="#42494E" d="M114.663 205.995h2v-7.598h-2z"/><path fill="#42494E" d="M115.663 202.966h93.389v-2h-93.389z"/><path fill="#434A4F" d="M34.947 85.15h2v-4h-2zM34.947 95.15h2v-4h-2zM38.947 89.15h4v-2h-4zM28.947 89.15h4v-2h-4zM183.144 188.062H76.03V170.05a1 1 0 1 1 2 0v16.012h103.114V167.12a1 1 0 1 1 2 0v20.942m-20.18-82.153c-15.99 0-29 13.009-29 29s13.01 29 29 29c15.991 0 29-13.009 29-29s-13.009-29-29-29zm0 60c-17.093 0-31-13.907-31-31s13.907-31 31-31c17.094 0 31 13.907 31 31s-13.906 31-31 31z"/><path fill="#434A4F" d="M162.964 109.909c-13.785 0-25 11.215-25 25s11.215 25 25 25c13.786 0 25-11.215 25-25s-11.214-25-25-25zm0 52c-14.887 0-27-12.112-27-27s12.113-27 27-27c14.888 0 27 12.112 27 27s-12.112 27-27 27z"/><path fill="#434A4F" d="M141.964 134.909h-2c0-12.682 10.318-23 23-23v2c-11.579 0-21 9.421-21 21m24.002-20.994c-.07 0-.13-.01-.2-.02l-.18-.06-.18-.09c-.05-.04-.1-.08-.15-.13a.929.929 0 0 1-.12-.15.556.556 0 0 1-.09-.17.697.697 0 0 1-.06-.19c-.01-.07-.02-.13-.02-.2 0-.26.11-.52.29-.7.37-.37 1.05-.38 1.411 0a.995.995 0 0 1 .299.7c0 .27-.11.53-.299.71a.98.98 0 0 1-.701.3m-25 24.99a.99.99 0 0 1-1-.99c0-.27.11-.53.29-.71.05-.05.1-.09.15-.13l.18-.09.18-.06c.191-.03.401-.02.58.06.12.05.23.12.321.22a.985.985 0 0 1 .129 1.26c-.04.05-.08.11-.129.15-.091.09-.201.17-.321.22-.12.05-.25.07-.38.07M190.507 163.866l-7.042-7.041 1.414-1.414 7.042 7.041-1.414 1.414"/><path fill="#434A4F" d="M190.43 165.219l23.3 23.301c.78.78 2.049.778 2.829 0a2.004 2.004 0 0 0 0-2.829l-23.3-23.3-2.829 2.828zm24.714 25.884a3.992 3.992 0 0 1-2.828-1.169l-24.714-24.715 5.657-5.656 24.714 24.714a4.006 4.006 0 0 1 0 5.657 3.992 3.992 0 0 1-2.829 1.169z"/><path fill="#434A4F" d="M211.607 187.814l-1.414-1.414 4.244-4.245 1.414 1.414-4.244 4.245M192.541 168.747l-1.415-1.414 4.245-4.244 1.414 1.414-4.244 4.244M183.144 137.91h2v-6h-2zM184.146 141.905a.99.99 0 0 1-1-1c0-.26.1-.52.29-.7.28-.28.72-.37 1.09-.22.06.03.12.06.17.09.06.04.11.08.15.13a.995.995 0 0 1 .3.7c0 .14-.03.26-.08.39-.05.12-.12.23-.22.32-.04.05-.09.09-.15.13-.05.03-.11.06-.17.09-.12.05-.25.07-.38.07m0-12c-.26 0-.52-.11-.71-.3a.967.967 0 0 1-.29-.7c0-.13.021-.26.07-.39a1.016 1.016 0 0 1 1.31-.54c.06.03.12.06.17.1.06.03.11.07.15.12.1.09.17.2.22.32.05.13.08.25.08.39a.995.995 0 0 1-.3.7c-.04.05-.09.09-.15.13-.05.03-.11.07-.17.09-.12.05-.25.08-.38.08m-2 34.02c-.07 0-.13-.01-.2-.02a.824.824 0 0 1-.19-.06.7.7 0 0 1-.17-.09l-.15-.12c-.05-.05-.09-.1-.13-.16-.03-.05-.06-.11-.09-.17-.02-.06-.04-.12-.049-.19-.021-.06-.021-.13-.021-.19 0-.13.021-.26.07-.39a1.016 1.016 0 0 1 .37-.44c.06-.04.11-.07.17-.1.07-.02.13-.04.19-.05.13-.03.261-.03.39 0 .07.01.13.03.19.05.06.03.12.06.17.1.06.03.11.07.15.12.1.09.17.2.22.32.05.13.08.26.08.39 0 .06-.01.13-.02.19-.02.07-.03.13-.06.19s-.06.12-.09.17a.983.983 0 0 1-.28.28c-.05.04-.11.07-.17.09-.06.03-.12.05-.19.06-.06.01-.129.02-.19.02"/><path fill="#FACD60" d="M135.623 44.007v23.842h23.843"/><path fill="#434A4F" d="M77.03 170.802a1 1 0 0 1-1-1V120.3c0-2.481-2.019-4.5-4.5-4.5a4.505 4.505 0 0 0-4.499 4.5v17c0 3.584-2.916 6.5-6.5 6.5h-.897a6.507 6.507 0 0 1-6.499-6.5V43.007h17.69a1 1 0 0 1 0 2h-15.69V137.3c0 2.482 2.019 4.5 4.499 4.5h.897c2.481 0 4.5-2.018 4.5-4.5v-17c0-3.584 2.915-6.5 6.499-6.5 3.584 0 6.5 2.916 6.5 6.5v49.502a1 1 0 0 1-1 1m82.436-66.687a1 1 0 0 1-1-1V68.263l-23.257-23.256H80.344a1 1 0 1 1 0-2h55.694l24.428 24.428v35.68a1 1 0 0 1-1 1m-83.89-59.11c-.13 0-.26-.02-.38-.07-.13-.06-.23-.13-.33-.22-.18-.19-.29-.44-.29-.71 0-.13.03-.26.08-.38s.12-.23.21-.33c.09-.09.2-.16.33-.21.181-.08.38-.1.57-.06.07.01.13.03.19.06.06.02.12.05.171.09.059.04.109.08.159.12.09.1.16.21.21.33.05.12.08.25.08.38 0 .27-.11.52-.29.71-.05.05-.1.09-.159.12a.995.995 0 0 1-.171.1c-.06.02-.12.04-.19.05-.06.02-.13.02-.19.02"/><path fill="#434A4F" d="M134.031 115.8H71.53a1 1 0 1 1 0-2h62.501a1 1 0 0 1 0 2m-57.334 28H60.531a1 1 0 1 1 0-2h16.166a1 1 0 0 1 0 2"/><path fill="#75C7D0" d="M48.184 65.839a2 2 0 1 1-3.999.001 2 2 0 0 1 3.999-.001"/><path fill="#FACD60" d="M68.656 139.8h5.36l.014-1.123V120.3c0-1.378-1.122-2.5-2.5-2.5a2.503 2.503 0 0 0-2.499 2.5v17c0 .87-.132 1.709-.375 2.5"/><path fill="#75C7D0" d="M196.69 115.131l-4.243-4.242-28.636 28.636-12.622-12.622-4.242 4.243 16.849 16.849.015-.015.014.015 32.865-32.864"/><path fill="#434A4F" d="M148.361 131.146l15.45 15.45 31.465-31.465-2.829-2.828-28.637 28.635-12.621-12.621-2.828 2.829zm15.449 18.249l-.722-.693-17.555-17.556 5.656-5.657 12.621 12.621 28.637-28.635 5.657 5.656-34.256 34.256-.015-.015-.023.023zM74.591 66.891h.01-.01zm4.828 13.725l8.325 4.377-1.59-9.27 6.734-6.565-9.307-1.353-4.162-8.434-4.164 8.434-9.307 1.353 6.734 6.565-1.59 9.27 8.327-4.377zm-8.328 6.379c-.413 0-.823-.129-1.174-.384-.62-.45-.925-1.2-.795-1.956l1.412-8.234-5.983-5.831a1.988 1.988 0 0 1-.506-2.05 1.99 1.99 0 0 1 1.616-1.362l8.266-1.201 3.697-7.491a1.988 1.988 0 0 1 1.794-1.115c.767 0 1.454.427 1.793 1.114l3.698 7.492 8.267 1.201a1.987 1.987 0 0 1 1.614 1.362 1.985 1.985 0 0 1-.505 2.05l-5.983 5.831 1.412 8.234a1.986 1.986 0 0 1-.795 1.956c-.62.45-1.425.51-2.107.152l-7.393-3.887-7.396 3.887a2 2 0 0 1-.932.232z"/><path fill="#FACD60" d="M79.418 63.89l-2.834 5.743-6.338.921 4.586 4.47-1.083 6.313 5.669-2.98 5.669 2.98-1.083-6.313 4.587-4.47-6.338-.921-2.835-5.743"/><path fill="#434A4F" d="M69.947 96.995h4v-4h-4v4zm-2 2h8v-8h-8v8zM78.947 95.996h63.995v-2H78.947zM69.947 107.001h4v-4h-4v4zm-2 2h8v-8h-8v8zM78.947 106.002h63.995v-2H78.947zM88.957 131.016h4v-4h-4v4zm-2 2h8v-8h-8v8zM97.957 130.016h31.977v-2H97.957zM88.957 141.021h4v-4h-4v4zm-2 2h8v-8h-8v8zM97.957 140.022h31.977v-2H97.957zM88.957 151.027h4v-4h-4v4zm-2 2h8v-8h-8v8zM97.957 150.028h31.977v-2H97.957zM88.957 161.034h4v-4h-4v4zm-2 2h8v-8h-8v8zM97.957 160.034h40.981v-2H97.957zM88.957 171.04h4v-4h-4v4zm-2 2h8v-8h-8v8zM97.957 170.04h66.998v-2H97.957z"/></g></svg>