<?xml version="1.0" encoding="utf-8"?><svg xmlns="http://www.w3.org/2000/svg" width="193" height="147" viewBox="0 0 193 147"><g fill="none" fill-rule="evenodd"><path fill="#DEDEDD" d="M148.053 30.743v-6h-6v-6h-6v-6h-6v-6h-32v6h-6v6h-6v6h-6v6h-6v6.999h80v-6.999h-6M155.726 95.688L63.01 63.61 38.143 38.74h-20.09v-2h20.918l25.128 25.13 92.281 31.928-.654 1.89M86.235 113.74a9.192 9.192 0 0 1-9.182-9.182V70.743h2v33.815a7.183 7.183 0 0 0 11.491 5.746l29.863-25.323 1.293 1.525-29.91 25.361a9.267 9.267 0 0 1-5.555 1.873"/><path fill="#475059" d="M86.235 116.74c-6.725-.008-12.174-5.457-12.182-12.182V69.742h2v34.816c0 5.623 4.558 10.182 10.182 10.182 2.203 0 4.346-.714 6.109-2.036l31.063-26.287 1.292 1.527-31.109 26.323a12.287 12.287 0 0 1-7.355 2.473"/><path fill="#475059" d="M86.235 110.74a6.19 6.19 0 0 1-6.182-6.182V71.742h2v32.816a4.182 4.182 0 0 0 6.64 3.384l27.994-23.74 1.293 1.526-28.053 23.786a6.271 6.271 0 0 1-3.692 1.226m49.57-26.152l-1.873-.702 10.175-27.134a16.045 16.045 0 0 1 13.946-9.98V38.74h-90v4.436l7.929 20.202-1.861.731-8.068-20.555V36.74h94v12h-1a14.046 14.046 0 0 0-13.073 8.714l-10.175 27.134M35.053 47.743h-6v-7h2v5h2v-16h-2v5h-2v-7h6v20"/><path fill="#DEDEDD" d="M156.053 76.743a17.99 17.99 0 0 0-15.792 9.362l16.773 5.803a3 3 0 1 1-1.962 5.67l-16.755-5.797c-1.63 9.801 4.994 19.068 14.795 20.698 9.8 1.63 19.067-4.994 20.697-14.794 1.631-9.801-4.993-19.068-14.794-20.698a17.92 17.92 0 0 0-2.962-.244"/><path fill="#475059" d="M156.053 102.743a7.965 7.965 0 0 1-7.963-7.226l1.991-.192a6.001 6.001 0 0 0 6.554 5.393 6 6 0 0 0 5.393-6.554 6.001 6.001 0 0 0-10.244-3.636l-1.424-1.406a8 8 0 1 1 5.693 13.621"/><path fill="#475059" d="M62.466 64.48l92.933 32.153a2.03 2.03 0 0 0 2.544-1.236 2 2 0 0 0-1.235-2.544L64.643 61 39.386 35.74H18.053a2 2 0 0 0 0 4h19.676l24.737 24.74zm93.587 34.264c-.445 0-.887-.075-1.307-.221L61.377 66.219 36.901 41.74H18.053a4 4 0 0 1 0-8h22.161l25.518 25.521 91.629 31.702a4 4 0 0 1-1.308 7.781z"/><path fill="#F58E70" d="M77.337 61.355l55.746 19.099 9.151-24.404a18 18 0 0 1 13.819-11.056V40.74h-86v2.057l7.284 18.558"/><path fill="#475059" d="M156.053 116.743c-12.161-.011-22.01-9.877-22-22.038.001-1.427.141-2.851.418-4.251l1.962.388c-2.156 10.834 4.88 21.365 15.714 23.521 10.835 2.156 21.366-4.879 23.522-15.714 2.156-10.835-4.88-21.365-15.714-23.521a19.971 19.971 0 0 0-3.902-.385 19.92 19.92 0 0 0-17.857 10.982l-1.784-.903c5.478-10.846 18.712-15.198 29.558-9.72 10.847 5.478 15.199 18.712 9.721 29.558a22.004 22.004 0 0 1-19.638 12.083"/><path fill="#48515A" d="M56.053 120.768h135.972v-2H56.053zM.025 120.768h24.028v-2H.025z"/><path fill="#DEDEDD" d="M.026 122.61v24.159l192 .231v-24.159l-192-.231"/><path fill="#475059" d="M38.053 133.743h3.578l1.774-4.023 3.296-1.903 4.371.475 1.789-3.098-2.597-3.548v-3.806l2.597-3.548-1.789-3.098-4.371.475-3.296-1.903-1.774-4.023h-3.578l-1.774 4.023-3.295 1.903-4.372-.475-1.789 3.098 2.598 3.548v3.806l-2.598 3.548 1.789 3.098 4.372-.475 3.295 1.903 1.774 4.023zm4.882 2H36.75l-2.037-4.618-2.163-1.249-5.018.545-3.093-5.356 2.982-4.073v-2.498l-2.982-4.073 3.093-5.356 5.018.545 2.163-1.249 2.037-4.618h6.185l2.037 4.618 2.162 1.249 5.018-.545 3.093 5.356-2.981 4.073v2.498l2.981 4.073-3.093 5.356-5.018-.545-2.162 1.249-2.037 4.618z"/><path fill="#475059" d="M39.842 117.743a2 2 0 1 0 0 4 2 2 0 0 0 0-4zm0 6a4 4 0 1 1 0-8 4 4 0 0 1 0 8z"/><path fill="#475059" d="M39.842 113.743a6 6 0 1 0 6 6 6.007 6.007 0 0 0-6-6zm0 14a8 8 0 1 1 8-8 8.01 8.01 0 0 1-8 8z"/><path fill="#48515A" d="M6 69.748h2v-4H6zM6 79.748h2v-4H6zM10 73.748h4v-2h-4zM0 73.748h4v-2H0zM184.1 6.743h2v-4h-2zM184.1 16.743h2v-4h-2zM188.1 10.743h4v-2h-4zM178.1 10.743h4v-2h-4zM174.094 58.743h2v-4h-2zM174.094 68.743h2v-4h-2zM178.094 62.743h4v-2h-4zM168.094 62.743h4v-2h-4z"/><path fill="#F58E70" d="M78.053.743a2 2 0 1 1 .001 3.999 2 2 0 0 1-.001-3.999m81.994 62.006a2 2 0 1 1 .001 3.999 2 2 0 0 1-.001-3.999"/><path fill="#5FE0ED" d="M30.053 78.743a4 4 0 1 1 0 8 4 4 0 0 1 0-8"/></g></svg>