<?xml version="1.0" encoding="utf-8"?><svg xmlns="http://www.w3.org/2000/svg" width="193" height="192" viewBox="0 0 193 192"><g fill="none" fill-rule="evenodd"><path fill="#DEDEDD" d="M164.982 128.49l-28-12 12.227 29.61 4.834-9.72 7.08 7.08 2.923-2.734-7.296-7.296 8.232-4.94M133.056 37.895l12 10.5V26.506h-12v11.389"/><path fill="#475059" d="M149.056 55.593h-2V24.506h-16v15h-2v-17h20v33.087"/><path fill="#F58E70" d="M158.056 62.506l-62-54.016-62 54.016-3.976-4.261L96.056.517l65.975 57.728-3.975 4.261"/><path fill="#475059" d="M43.056 95.267h2V53.976h-2zM43.056 151.507h2V99.389h-2zM147.056 152.037h2V99.341h-2zM147.056 95.011h2V55h-2z"/><path fill="#475059" d="M34.706 63.267l-1.3-1.52 62.65-53.556 62.649 53.555-1.299 1.52-61.35-52.444-61.35 52.445"/><path fill="#48515A" d="M161.089 110.024h2v-4h-2zM161.089 120.024h2v-4h-2zM165.089 114.024h4v-2h-4zM155.089 114.024h4v-2h-4zM155.085 10h2V6h-2zM155.085 20h2v-4h-2zM159.085 14h4v-2h-4zM149.085 14h4v-2h-4zM24.007 80.042h2v-4h-2zM24.007 90.042h2v-4h-2zM28.007 84.042h4v-2h-4zM18.007 84.042h4v-2h-4z"/><path fill="#F58E70" d="M128.056.012a2 2 0 1 1 .001 3.999 2 2 0 0 1-.001-3.999m38 68a2 2 0 1 1 .001 3.999 2 2 0 0 1-.001-3.999"/><path fill="#5FE0ED" d="M32.067 118.012a4 4 0 1 1 0 8 4 4 0 0 1 0-8"/><path fill="#DEDEDD" d="M48.068 21.982a2 2 0 1 1 .001 3.999 2 2 0 0 1-.001-3.999"/><path fill="#48515A" d="M101.056 153.012H192v-2h-90.944zM0 153.012h91.055v-2H0zM34.069 35.06a2.921 2.921 0 0 0-2.999 2.842l-.001.061a3.04 3.04 0 0 0 2.981 3.097H101.251l6.506-3-6.507-3H34.069zm67.621 8H34.069a5.03 5.03 0 0 1-5-5.048 4.909 4.909 0 0 1 4.867-4.952h67.753l10.843 5-10.842 5z"/><path fill="#48515A" d="M40.046 42.06h2v-8h-2z"/><path fill="#48515A" d="M41.046 39.06h60v-2h-60z"/><path fill="#475059" d="M74.057 100.015h-34.01v-6.003h34.01v2h-32.01v2.003h32.01v2M151.054 100.015h-32.996v-2h30.996v-2.003h-30.996v-2h32.996v6.003M91.055 95.143h-2V83.018a1 1 0 0 0-2 0v12.125h-2V83.018a3 3 0 1 1 6 0v12.125"/><g fill="#475059" transform="translate(93 80)"><path d="M14.058 15.143h-2V3.018a1 1 0 0 0-2 0v12.125h-2V3.018a3 3 0 1 1 6 0v12.125M4.056 111.94h2V65.162h-2zM.056 111.94h2V65.16h-2z"/></g><path fill="#DEDEDD" d="M96.056 56.026c10.241.006 18.983 7.402 20.685 17.501 2.002-11.425-5.636-22.308-17.06-24.31-11.424-2.002-22.308 5.636-24.31 17.06a21.016 21.016 0 0 0 0 7.25c1.702-10.099 10.444-17.495 20.685-17.501"/><path fill="#FFD15D" d="M94.056 91.027h4v-9.001h-4zM94.056 58.027h4v-9.001h-4z"/><path fill="#475059" d="M96.056 92.027a22.08 22.08 0 0 1-6.115-.861l.555-1.922a20.222 20.222 0 0 0 11.077.012l.551 1.923c-1.973.564-4.016.85-6.068.848"/><path fill="#475059" d="M85.664 89.422c-10.71-5.739-14.738-19.073-8.999-29.783 5.74-10.709 19.074-14.737 29.783-8.998 10.709 5.739 14.738 19.074 8.998 29.783a21.999 21.999 0 0 1-8.651 8.808l-.979-1.745c9.64-5.391 13.084-17.576 7.693-27.216s-17.576-13.084-27.216-7.693S73.209 70.154 78.6 79.794a19.996 19.996 0 0 0 8.01 7.866l-.946 1.762"/><path fill="#475059" d="M88.056 68.026a2 2 0 1 0 .001 4.001 2 2 0 0 0-.001-4.001zm0 6a4 4 0 1 1 0-8 4 4 0 0 1 0 8zm16-6a2 2 0 1 0 0 4 2 2 0 0 0 0-4zm0 6a4 4 0 1 1 0-8 4 4 0 0 1 0 8z"/><path fill="#FFD15D" d="M80.055 98.033l.001 11.998 11.863 15.815 2.169 15.185h2.937l3.031-15.246 12-15.819V98.033H80.055"/><path fill="#48515A" d="M91.058 144.027h9.997v-.764l-1.031-2.063 1.744-13.173H90.21l1.881 13.167-1.033 2.069v.764zm11.997 2H89.058v-3.236l.965-1.932-2.119-14.832h16.147l-1.964 14.827.968 1.937v3.236z"/><path fill="#48515A" d="M89.557 126.032h12.856l11.643-15.336V96.034h-36v14.664l11.501 15.334zm13.848 2H88.557l-12.501-16.667V94.034h40v17.335l-12.651 16.663z"/><path fill="#DEDEDD" d="M0 170.056h91.057v-15.158H0zM101.057 154.954v15.157l90.943.131v-15.157l-90.943-.131"/><path fill="#FFF" d="M154.976 118.484l-28-12 12.227 29.61 4.834-9.72 8.11 8.11 2.829-2.828-8.232-8.232 8.232-4.94"/><path fill="#48515A" d="M128.836 108.37l10.451 25.309 4.473-8.996 8.387 8.387 1.415-1.414-8.431-8.431 7.653-4.592-23.948-10.263zm10.283 30.14l-14.004-33.911 32.052 13.736-8.812 5.287 8.035 8.034-4.243 4.242-7.835-7.834-5.193 10.446z"/></g></svg>