<?xml version="1.0" encoding="utf-8"?><svg xmlns="http://www.w3.org/2000/svg" width="250" height="250" viewBox="0 0 250 250"><g fill="none" fill-rule="evenodd"><path fill="#FACD60" d="M173.073 129.501c0 26.51-21.491 48-48 48-26.51 0-48-21.49-48-48s21.49-48 48-48c26.509 0 48 21.49 48 48"/><path fill="#42494E" d="M109.073 190.501c-1.655 0-3 1.346-3 3s1.345 3 3 3h100.549l6.506-3-6.506-3H109.073zm100.988 8H109.073c-2.757 0-5-2.243-5-5s2.243-5 5-5h100.988l10.843 5-10.843 5z"/><path fill="#42494E" d="M114.683 197.501h2v-7.599h-2z"/><path fill="#42494E" d="M115.683 194.473h93.39v-2h-93.39z"/><path fill="#434A4F" d="M90.582 132.702l-.003-2 69.493-.168.004 2-69.494.168M168.173 132.702h10.624v-2h-10.624z"/><path fill="#434A4F" d="M177.797 137.153h2v-10.902h-2zM61.607 184.116l1.45-14.52-1.061-3.624 49.007-87.873 1.747.974-48.6 87.141.936 3.192-.547 5.48 31.951-56.385h4.473l18.004-32.295 1.746.975-18.574 33.32h-4.483l-36.049 63.615M188.539 184.117l-36.049-63.616h-4.484l-18.574-33.32 1.746-.975 18.004 32.295h4.474l31.951 56.384-.548-5.479.937-3.192-48.502-86.965 1.746-.975 48.91 87.698-1.062 3.624 1.451 14.521"/><path fill="#434A4F" d="M125.073 60.501c-7.168 0-13 5.832-13 13s5.832 13 13 13 13-5.832 13-13-5.832-13-13-13zm0 28c-8.272 0-15-6.729-15-15 0-8.272 6.728-15 15-15 8.271 0 15 6.728 15 15 0 8.271-6.729 15-15 15z"/><path fill="#E9886C" d="M135.073 73.501c0 5.522-4.478 10-10.001 10-5.522 0-9.999-4.477-9.999-10s4.477-10 10-10 10 4.477 10 10"/><path fill="#434A4F" d="M125.073 78.501a1 1 0 0 1-1-1v-8a1 1 0 1 1 2 0v8a1 1 0 0 1-1 1"/><path fill="#434A4F" d="M129.073 74.501h-8a1 1 0 1 1 0-2h8a1 1 0 1 1 0 2m-.001-15h-2V39.499c0-1.103-.898-2-2-2-1.103 0-2 .897-2 2v20.002h-2V39.499c0-2.206 1.794-4 4-4s4 1.794 4 4v20.002m-3.999 155c-24.657 0-48.255-10.528-64.744-28.885l1.488-1.336c16.11 17.935 39.166 28.221 63.256 28.221 24.09 0 47.146-10.286 63.256-28.222l1.488 1.336c-16.489 18.358-40.087 28.886-64.744 28.886m86-86a.852.852 0 0 1-.38-.08c-.12-.05-.231-.12-.33-.21-.09-.101-.16-.21-.21-.33a.826.826 0 0 1-.08-.38c0-.13.019-.26.08-.38.05-.13.12-.23.21-.33.099-.09.2-.16.33-.21.37-.15.809-.07 1.09.21.179.189.29.45.29.71a.994.994 0 0 1-1 1m-74.16-85.17c-.55-.07-.93-.58-.861-1.13.08-.54.59-.92 1.13-.85.551.08.931.58.86 1.129-.07.5-.5.861-.99.861-.05 0-.099 0-.139-.01zm3.87.64a1.005 1.005 0 0 1-.8-1.17 1.003 1.003 0 0 1 1.97.37c-.09.479-.521.809-.991.809-.059 0-.12 0-.179-.009zm3.84.8a.988.988 0 0 1-.741-1.201.994.994 0 0 1 1.201-.739c.53.12.87.66.74 1.2-.111.46-.521.77-.97.77-.08 0-.15-.01-.23-.03zm3.799.99a.99.99 0 0 1-.689-1.23.987.987 0 0 1 1.229-.69.997.997 0 0 1-.269 1.96.848.848 0 0 1-.271-.04zm3.741 1.17v-.01a1 1 0 0 1-.63-1.26c.179-.52.75-.81 1.269-.63.521.17.801.739.63 1.26a1.003 1.003 0 0 1-1.269.64zm3.679 1.33h.011a1.006 1.006 0 0 1-.58-1.3c.199-.51.779-.771 1.3-.57.51.2.769.78.569 1.299a1.012 1.012 0 0 1-.93.641c-.12 0-.25-.03-.37-.07zm3.62 1.5a.99.99 0 0 1-.509-1.321c.219-.509.809-.729 1.32-.509.5.219.729.82.51 1.32-.17.37-.531.6-.92.6a.988.988 0 0 1-.401-.09zm3.55 1.67h-.01a.998.998 0 0 1-.439-1.34c.239-.5.84-.7 1.34-.45.489.24.689.839.439 1.339a.99.99 0 0 1-.889.551.98.98 0 0 1-.441-.1zm3.46 1.83a.996.996 0 0 1-.389-1.361c.27-.479.879-.659 1.36-.389.479.27.66.88.39 1.36-.191.33-.531.52-.88.52a.941.941 0 0 1-.481-.13zm3.37 1.99a1.002 1.002 0 1 1 1.38-.32 1.012 1.012 0 0 1-1.38.32zm3.29 2.14a.987.987 0 0 1-.259-1.39c.309-.45.929-.57 1.389-.26.45.32.571.94.261 1.39a1 1 0 0 1-.83.439.98.98 0 0 1-.561-.179zm3.181 2.299c-.44-.339-.53-.96-.2-1.399.34-.45.96-.53 1.399-.2.441.33.53.96.2 1.4-.2.26-.5.4-.799.4-.21 0-.42-.071-.6-.201zm3.069 2.431a.99.99 0 0 1-.13-1.4.991.991 0 0 1 1.411-.13.997.997 0 1 1-1.281 1.53zm2.96 2.58a.997.997 0 0 1-.069-1.41 1.01 1.01 0 0 1 1.42-.07c.399.38.43 1.009.059 1.42-.2.21-.469.32-.74.32-.239 0-.479-.09-.67-.26zm2.84 2.71a1.008 1.008 0 0 1 0-1.42.996.996 0 0 1 1.41 0c.391.39.391 1.029 0 1.42a1.003 1.003 0 0 1-1.41 0zm2.71 2.84a.987.987 0 0 1 .061-1.41.988.988 0 0 1 1.41.059h.01a.998.998 0 0 1-.071 1.411.956.956 0 0 1-.67.259.993.993 0 0 1-.74-.319zm2.58 2.96a1 1 0 0 1 .12-1.41.99.99 0 0 1 1.41.13.992.992 0 0 1-.129 1.41c-.18.15-.411.229-.64.229-.28 0-.57-.13-.761-.359zm2.441 3.07h-.01c-.33-.44-.24-1.07.2-1.4a.993.993 0 0 1 1.399.2 1.001 1.001 0 0 1-.799 1.6c-.3 0-.6-.14-.79-.4zm2.29 3.19a.996.996 0 0 1 .259-1.39.996.996 0 1 1 1.13 1.64.999.999 0 0 1-1.389-.25zm2.15 3.28a.992.992 0 0 1 .319-1.37.993.993 0 0 1 1.38.32 1.007 1.007 0 0 1-.849 1.529.986.986 0 0 1-.85-.479zm1.989 3.39a.995.995 0 0 1 .391-1.36.998.998 0 0 1 1.359.38c.271.48.09 1.09-.389 1.359a1 1 0 0 1-1.361-.379zm1.84 3.469h-.01c-.24-.489-.04-1.09.46-1.34a.994.994 0 0 1 1.34.451c.24.49.04 1.09-.449 1.34-.141.07-.301.1-.45.1-.361 0-.72-.2-.891-.551zm1.671 3.561a.996.996 0 0 1 .51-1.32c.5-.22 1.09 0 1.319.509.221.5-.01 1.091-.51 1.321-.13.049-.269.08-.41.08a.99.99 0 0 1-.909-.59zm1.5 3.63h.01c-.21-.52.05-1.1.569-1.3a1 1 0 0 1 1.29.569c.2.521-.059 1.101-.569 1.301-.12.04-.24.069-.361.069-.4 0-.78-.25-.939-.639zm1.34 3.69a.991.991 0 0 1 .63-1.261 1 1 0 0 1 1.269.63 1.015 1.015 0 0 1-.63 1.271 1.004 1.004 0 0 1-1.269-.64zm1.16 3.76a.997.997 0 0 1 .689-1.23.996.996 0 0 1 1.241.69h-.01a.99.99 0 0 1-.96 1.269c-.431 0-.83-.29-.96-.729zm.98 3.8a.998.998 0 0 1 .75-1.2.994.994 0 0 1 1.2.74c.13.54-.21 1.08-.741 1.21-.08.01-.16.019-.229.019-.46 0-.87-.309-.98-.769zm.809 3.84a.994.994 0 0 1 .801-1.161.985.985 0 0 1 1.16.791l.01.01a.997.997 0 0 1-.811 1.159.993.993 0 0 1-.179.021c-.47 0-.89-.34-.981-.82zm.631 3.87a.98.98 0 0 1 .85-1.12.994.994 0 0 1 1.129.85c.071.55-.309 1.05-.86 1.13-.039 0-.09.01-.13.01-.5 0-.929-.37-.989-.87zm.439 3.9a1.01 1.01 0 0 1 .911-1.091 1 1 0 0 1 1.08.91.984.984 0 0 1-.901 1.081.3.3 0 0 1-.09.009c-.509 0-.95-.389-1-.909zm.271 3.909a1 1 0 0 1 .949-1.039c.551-.02 1.021.4 1.051.949.019.551-.4 1.021-.96 1.051h-.04c-.53 0-.981-.421-1-.961zm-76.91-80.689a.987.987 0 0 1-1-1c0-.13.03-.26.08-.38s.12-.231.21-.32c.24-.241.58-.35.899-.281.071.021.13.04.191.061l.179.09c.05.04.101.08.151.13.09.089.16.2.21.32a.997.997 0 0 1-.21 1.09.993.993 0 0 1-.71.29m-16 0a.987.987 0 0 1-1-1c0-.13.03-.26.08-.38s.12-.231.21-.32c.05-.05.099-.09.149-.13l.181-.09.18-.061c.129-.019.259-.019.389 0 .071.021.13.04.191.061l.179.09c.05.04.101.08.151.13.09.089.16.2.21.32a.997.997 0 0 1-.21 1.09.993.993 0 0 1-.71.29m-4.941-.401a1.005 1.005 0 0 1 .861-1.129 1.003 1.003 0 0 1 1.13.85c.07.55-.31 1.05-.861 1.13-.04.01-.09.01-.13.01-.5 0-.929-.361-1-.861zm-3.91.681a1.004 1.004 0 0 1 .801-1.17c.54-.1 1.069.26 1.17.8a1.005 1.005 0 0 1-.99 1.189c-.47 0-.89-.339-.981-.819zm-3.869.86c-.131-.53.21-1.07.739-1.201.54-.13 1.08.211 1.21.75a1.01 1.01 0 0 1-.979 1.231 1.01 1.01 0 0 1-.97-.78zm-3.83 1.049a.994.994 0 0 1 .689-1.239.998.998 0 1 1 .271 1.96.982.982 0 0 1-.96-.721zm-3.79 1.221a1.006 1.006 0 0 1 .63-1.271 1.016 1.016 0 0 1 1.269.63 1.01 1.01 0 0 1-.63 1.271c-.11.03-.219.05-.32.05a.995.995 0 0 1-.949-.68zm-3.721 1.399a1.001 1.001 0 0 1 .57-1.299.993.993 0 0 1 1.291.57 1 1 0 0 1-.571 1.3v-.01a.995.995 0 0 1-1.29-.561zm-3.659 1.571c-.221-.51.01-1.1.51-1.33.51-.22 1.099.009 1.319.509a.989.989 0 0 1-.51 1.321.98.98 0 0 1-.399.09c-.391 0-.75-.22-.92-.59zm-3.58 1.73a1.01 1.01 0 0 1 .449-1.341.99.99 0 0 1 1.341.451.997.997 0 0 1-.44 1.339 1.04 1.04 0 0 1-.451.101c-.37 0-.719-.2-.899-.55zm-3.49 1.9a1.002 1.002 0 0 1 1.75-.98.992.992 0 0 1-.391 1.359h.011a1.009 1.009 0 0 1-1.37-.379zm-3.401 2.06a1.008 1.008 0 0 1 .33-1.381.994.994 0 0 1 1.37.321 1.002 1.002 0 0 1-.839 1.53c-.34 0-.67-.17-.861-.47zm-3.29 2.21a.996.996 0 1 1 1.641-1.13.993.993 0 0 1-.82 1.56.989.989 0 0 1-.821-.43zm-3.2 2.36a.996.996 0 1 1 1.591-1.201.994.994 0 0 1-.79 1.601 1 1 0 0 1-.801-.4zm-3.079 2.51a.998.998 0 0 1 .13-1.41 1.01 1.01 0 0 1 1.41.13 1.01 1.01 0 0 1-.131 1.41c-.189.15-.42.23-.639.23a.989.989 0 0 1-.77-.36zm-28.971 50.63c-.54-.1-.899-.62-.8-1.17a1.002 1.002 0 0 1 1.97.369.997.997 0 0 1-.989.811c-.061 0-.12 0-.181-.01zm-.59 3.92a1.002 1.002 0 0 1-.86-1.12h.011c.069-.55.58-.93 1.13-.86.54.08.92.58.849 1.129a1 1 0 0 1-.99.861c-.05 0-.09 0-.14-.01zm-.41 3.95a.999.999 0 1 1 .191-1.99c.549.05.95.54.899 1.09a1 1 0 0 1-1 .91c-.029 0-.059 0-.09-.01zm-.219 3.97c-.56-.03-.981-.5-.96-1.05.03-.551.5-.98 1.049-.95.55.02.97.49.951 1.04-.021.54-.47.96-1 .96h-.04zm-.05 4a.99.99 0 0 1-1-1c0-.26.109-.521.29-.71.099-.09.2-.16.33-.21.18-.08.38-.101.569-.06.07.01.13.03.191.06.059.02.12.05.17.09.059.03.11.08.16.12.09.1.16.2.21.33a.995.995 0 0 1-.21 1.09.997.997 0 0 1-.71.29"/><path fill="#434A4F" d="M210.993 131.421a1.004 1.004 0 0 1-.97-1.03 1.01 1.01 0 0 1 1.04-.97c.54.019.979.479.96 1.04a.996.996 0 0 1-1 .96h-.03zm-.271 3.99a.99.99 0 0 1-.92-1.07.991.991 0 0 1 1.071-.92.99.99 0 0 1 .919 1.07.992.992 0 0 1-.99.92h-.08zm-12.639 37.569a1.003 1.003 0 0 1-.331-1.379.992.992 0 0 1 1.371-.33c.469.29.62.9.33 1.37-.18.31-.51.48-.85.48a.959.959 0 0 1-.52-.141zm-2.201 3.34a1.005 1.005 0 0 1-.269-1.389.998.998 0 0 1 1.389-.27 1 1 0 0 1-.559 1.83.995.995 0 0 1-.561-.171zm-2.34 3.241a.995.995 0 0 1-.209-1.4c.33-.44.959-.54 1.4-.21.439.33.529.96.199 1.4a.966.966 0 0 1-.8.41.983.983 0 0 1-.59-.2zm-2.5 3.12a.99.99 0 0 1-.139-1.4c.349-.43.979-.5 1.41-.15.42.349.489.979.14 1.41-.201.24-.491.37-.781.37a.967.967 0 0 1-.63-.23zm-2.639 3.009a.995.995 0 0 1-.07-1.409c.37-.41 1-.45 1.41-.08.41.369.439 1 .07 1.409v.011c-.19.21-.471.33-.74.33-.24 0-.481-.091-.67-.261zm-150.33-58.189c0-.55.45-1 1-1s1 .45 1 1-.45 1-1 1-1-.45-1-1zm.09 4.04a.995.995 0 0 1 .95-1.04.999.999 0 0 1 1.05.95c.019.55-.401 1.02-.951 1.05h-.049c-.531 0-.97-.42-1-.96zm.28 4.04a.998.998 0 1 1 1.989-.181.988.988 0 0 1-.899 1.08c-.04.011-.071.011-.101.011a.997.997 0 0 1-.989-.91zm.46 4.02c-.071-.55.309-1.06.859-1.13a.985.985 0 0 1 1.12.849.996.996 0 0 1-.849 1.131c-.04.01-.09.01-.141.01a1 1 0 0 1-.989-.86zm.649 3.99a1.002 1.002 0 1 1 1.17.8c-.059.009-.119.02-.18.02-.479 0-.9-.341-.99-.82zm.84 3.96c-.119-.54.211-1.08.74-1.2.54-.13 1.08.2 1.21.74.12.54-.21 1.08-.75 1.21-.069.01-.149.019-.229.019-.45 0-.861-.309-.971-.769zm1.021 3.92c-.151-.54.16-1.09.69-1.241a1.005 1.005 0 0 1 1.239.691.995.995 0 0 1-.689 1.229.924.924 0 0 1-.28.04c-.43 0-.83-.29-.96-.719zm1.21 3.86h-.01c-.17-.52.109-1.09.639-1.27a.996.996 0 0 1 1.26.629 1.006 1.006 0 0 1-.63 1.271.992.992 0 0 1-1.259-.63zm1.379 3.8c-.2-.51.05-1.09.571-1.29a.997.997 0 0 1 1.29.559 1.004 1.004 0 0 1-.931 1.371.992.992 0 0 1-.93-.64zm1.561 3.74a.992.992 0 0 1 .5-1.32.99.99 0 0 1 1.319.5h.01a1.005 1.005 0 0 1-.92 1.41.99.99 0 0 1-.909-.59zm1.729 3.65a.994.994 0 0 1 .451-1.34.992.992 0 0 1 1.339.45v-.01c.25.5.05 1.1-.45 1.35a.985.985 0 0 1-.45.099c-.359 0-.71-.199-.89-.549zm1.901 3.58a1 1 0 1 1 1.739-.991h.011a1.006 1.006 0 0 1-.391 1.37c-.149.081-.319.13-.489.13-.341 0-.681-.189-.87-.509zm2.069 3.469a.99.99 0 0 1 .311-1.369 1 1 0 0 1 1.38.31 1.003 1.003 0 0 1-.84 1.53.98.98 0 0 1-.851-.471zm2.221 3.381a1 1 0 0 1 .26-1.39c.45-.31 1.07-.201 1.389.25v.009a1 1 0 0 1-.259 1.391 1.012 1.012 0 0 1-1.39-.26zm2.38 3.27c-.33-.43-.25-1.06.189-1.401a1.003 1.003 0 0 1 1.401.191 1 1 0 0 1-.191 1.4.97.97 0 0 1-.599.21c-.31 0-.6-.141-.8-.4zm2.529 3.17a1 1 0 1 1 1.41.12 1.015 1.015 0 0 1-1.41-.12z"/><path fill="#42494E" d="M198.073 166.501h18.083l.002-26h-18.084l-.001 26zm20.083 2h-22.083l.001-30h22.084l-.002 30z"/><path fill="#42494E" d="M202.073 146.501h10.083v-2h-10.083v2zm-2 2h14.083v-6h-14.083v6zm.083 3.958h2v-2h-2v2zm0 4h2v-2h-2v2zm0 4h2v-2h-2v2zm0 4h2v-2h-2v2zm4-12h2v-2h-2v2zm0 4h2v-2h-2v2zm0 4h2v-2h-2v2zm0 4h2v-2h-2v2zm4-12h2v-2h-2v2zm0 4h2v-2h-2v2zm0 4h2v-2h-2v2zm0 4h2v-2h-2v2zm4-12h2v-2h-2v2zm0 4h2v-2h-2v2zM212.156 164.501h2v-6.042h-2z"/><path fill="#434A4F" d="M51.127 102.818c.261 0 .525.021.79.063 2.084.333 3.643 1.894 3.971 3.979l.36 2.287 4-.628-.359-2.289c-.327-2.084.676-4.049 2.558-5.005 1.883-.956 4.059-.609 5.551.885l1.635 1.64 2.868-2.861-1.636-1.64c-1.492-1.494-1.834-3.674-.873-5.554.96-1.88 2.932-2.884 5.01-2.546l2.288.365.637-4-2.286-.365c-2.084-.332-3.643-1.894-3.971-3.978-.328-2.085.675-4.05 2.557-5.007l2.064-1.049-1.789-3.52-2.064 1.049c-1.883.956-4.061.608-5.552-.886-1.49-1.493-1.833-3.673-.873-5.552l1.053-2.062-3.608-1.842-1.052 2.062c-.961 1.879-2.925 2.881-5.011 2.546-2.085-.332-3.644-1.893-3.972-3.978l-.359-2.287-4.001.628.359 2.288c.329 2.084-.674 4.05-2.556 5.006-1.881.957-4.06.611-5.552-.884l-1.635-1.639-2.868 2.861 1.637 1.64c1.49 1.493 1.834 3.673.874 5.552-.96 1.88-2.925 2.885-5.012 2.548l-2.287-.365-.638 4 2.287.365c2.084.332 3.643 1.894 3.971 3.978.328 2.085-.676 4.05-2.557 5.006l-2.064 1.05 1.788 3.517 2.064-1.049c1.883-.956 4.061-.609 5.551.885 1.491 1.494 1.834 3.673.874 5.553l-1.053 2.062 3.607 1.843 1.053-2.062c.838-1.64 2.442-2.61 4.221-2.61zm3.456 8.617l-.671-4.264c-.232-1.472-1.345-2.161-2.31-2.315-.961-.152-2.237.155-2.915 1.482l-1.963 3.844-7.17-3.663 1.964-3.844c.678-1.326.182-2.538-.509-3.23-.69-.692-1.902-1.187-3.228-.514l-3.848 1.955-3.601-7.084 3.848-1.956c1.328-.675 1.639-1.947 1.487-2.911-.151-.966-.838-2.081-2.309-2.316l-4.262-.679 1.267-7.951 4.261.681c1.47.226 2.471-.612 2.917-1.482.444-.871.544-2.176-.509-3.231l-3.049-3.054 5.698-5.687 3.049 3.055c1.052 1.053 2.359.956 3.23.513.871-.442 1.718-1.439 1.486-2.912l-.669-4.263 7.951-1.252.672 4.264c.231 1.472 1.345 2.16 2.309 2.315.966.154 2.238-.155 2.916-1.482l1.962-3.844 7.17 3.662-1.963 3.844c-.677 1.326-.182 2.538.508 3.23.69.69 1.902 1.188 3.23.514l3.847-1.955 3.602 7.087-3.848 1.955c-1.328.675-1.639 1.948-1.487 2.912.151.966.838 2.08 2.31 2.316l4.262.679-1.268 7.951-4.262-.681c-1.479-.229-2.472.612-2.916 1.481-.444.871-.544 2.176.509 3.232l3.048 3.054-5.698 5.687-3.05-3.056c-1.051-1.052-2.357-.958-3.228-.514-.871.442-1.72 1.44-1.487 2.912l.67 4.263-7.953 1.252z"/><path fill="#42494E" d="M44.349 91.192a11.515 11.515 0 0 1-.687-8.842 11.514 11.514 0 0 1 5.767-6.739 11.508 11.508 0 0 1 8.843-.687 11.51 11.51 0 0 1 6.738 5.766l-1.783.907a9.524 9.524 0 0 0-5.575-4.772 9.52 9.52 0 0 0-7.317.57 9.525 9.525 0 0 0-4.772 5.575 9.522 9.522 0 0 0 .569 7.316l-1.783.906"/><path fill="#E9886C" d="M54.657 82.397c-.897 0-1.793.342-2.476 1.024a3.505 3.505 0 0 0 0 4.95c1.322 1.321 3.628 1.323 4.95 0a3.478 3.478 0 0 0 1.026-2.475c0-.935-.365-1.814-1.026-2.475a3.489 3.489 0 0 0-2.474-1.024zm0 9.999a6.453 6.453 0 0 1-4.597-1.904c-2.534-2.533-2.534-6.657 0-9.192a6.508 6.508 0 0 1 9.192 0 6.452 6.452 0 0 1 1.905 4.596 6.454 6.454 0 0 1-1.905 4.596 6.453 6.453 0 0 1-4.595 1.904z"/><path fill="#434A4F" d="M52.672 72.001c-.04-.55.38-1.03.931-1.07.55-.04 1.029.38 1.069.929a1.011 1.011 0 0 1-.929 1.071h-.071c-.519 0-.96-.411-1-.93zm4.76 1.189a.997.997 0 1 1 .431-1.949c.54.11.88.65.769 1.19a1.01 1.01 0 0 1-.979.79.852.852 0 0 1-.221-.031zm-8.59-.069c-.2-.52.071-1.1.59-1.29a.995.995 0 0 1 1.28.59c.191.519-.07 1.09-.589 1.29a1 1 0 0 1-1.281-.59zm12.061 1.37c-.481-.27-.67-.881-.401-1.36.271-.481.88-.66 1.361-.401.479.271.66.88.399 1.361a1.007 1.007 0 0 1-1.359.4zm-15.431.79c-.33-.45-.239-1.07.2-1.4a1.003 1.003 0 0 1 1.401.2 1.003 1.003 0 0 1-.8 1.6c-.301 0-.601-.14-.801-.4zm18.37 1.42h.011a.988.988 0 0 1-.011-1.41 1.006 1.006 0 0 1 1.42 0 .994.994 0 0 1 0 1.41.993.993 0 0 1-.71.3c-.25 0-.51-.101-.71-.3zm-20.989 1.59c-.44-.33-.53-.96-.2-1.4.33-.44.96-.531 1.399-.201.441.341.53.96.2 1.401-.2.26-.5.4-.799.4-.21 0-.42-.06-.6-.2zm23.22 1.37a.984.984 0 0 1 .399-1.351.986.986 0 0 1 1.351.401.984.984 0 0 1-.401 1.35.905.905 0 0 1-.469.129.984.984 0 0 1-.88-.529zm-24.88 2.26a.996.996 0 0 1-.59-1.28.997.997 0 1 1 1.869.7.997.997 0 0 1-.929.65.836.836 0 0 1-.35-.07zm26.17 1.21a.996.996 0 0 1 .76-1.191c.54-.109 1.07.231 1.19.771a.996.996 0 0 1-.761 1.189c-.08.011-.149.021-.22.021a.991.991 0 0 1-.969-.79zm-26.74 2.75a.996.996 0 1 1 .139-1.99.99.99 0 0 1 .931 1.06c-.04.529-.481.93-1 .93h-.07zM68.552 87.9a.997.997 0 0 1-.929-1.069.999.999 0 1 1 1.99.14h.01c-.041.53-.481.929-1 .929h-.071zm-28.559 1.17a1.002 1.002 0 1 1 1.959-.42 1.002 1.002 0 0 1-1.959.42zm27.429 2.66a1.004 1.004 0 0 1-.59-1.29h.01a.99.99 0 0 1 1.281-.58c.519.191.78.761.589 1.281a.987.987 0 0 1-.939.65c-.12 0-.23-.021-.351-.061zm-25.939 1.34a.99.99 0 0 1 .399-1.349.985.985 0 0 1 1.351.4.989.989 0 0 1-.391 1.35.986.986 0 0 1-1.359-.401zm23.779 2.021a1.005 1.005 0 0 1-.199-1.401c.329-.439.96-.529 1.399-.199.441.329.531.96.201 1.4-.201.259-.5.4-.8.4-.21 0-.42-.07-.601-.2zm-21.22 1.4a.998.998 0 1 1 1.411 0 .978.978 0 0 1-1.411 0zm18.201 1.22a1.002 1.002 0 0 1 .2-1.4.992.992 0 0 1 1.399.2c.33.44.24 1.07-.2 1.4-.18.13-.39.199-.6.199-.299 0-.599-.139-.799-.399zm-14.79 1.35c-.481-.27-.66-.88-.39-1.36a.988.988 0 0 1 1.35-.39c.49.259.669.87.4 1.35a.999.999 0 0 1-.881.52c-.159 0-.329-.04-.479-.12zm11.15.299a.994.994 0 0 1 .59-1.279c.519-.19 1.09.069 1.29.59a.993.993 0 0 1-.591 1.28.901.901 0 0 1-.349.07.997.997 0 0 1-.94-.661zm-7.141 1.191a1.003 1.003 0 0 1-.769-1.191.994.994 0 0 1 1.189-.759c.54.11.88.65.76 1.19-.1.46-.51.779-.97.779-.069 0-.139-.009-.21-.019zm3.191-.62a.998.998 0 0 1 .92-1.071c.55-.04 1.03.381 1.069.931.04.55-.38 1.029-.93 1.069h-.07a.986.986 0 0 1-.989-.929z"/><path fill="#FACD60" d="M61.073 139.501a2 2 0 1 1-4 0 2 2 0 0 1 4 0m122-32a2 2 0 1 1 3.999-.001 2 2 0 0 1-3.999.001"/><path fill="#434A4F" d="M198.073 120.501a.99.99 0 0 1-.92-1.38c.05-.13.12-.23.21-.33.05-.04.099-.09.149-.12.061-.04.12-.07.181-.09.059-.03.12-.05.189-.06a.86.86 0 0 1 .391 0c.06.01.119.03.18.06.059.02.12.05.17.09.059.03.11.08.16.12.09.1.16.2.21.33.049.12.08.25.08.38s-.031.26-.08.38c-.05.12-.12.229-.21.33a.997.997 0 0 1-.71.29M193.073 125.501h10v-2h-10zM198.073 130.501a.99.99 0 0 1-1-1c0-.26.109-.521.29-.71.09-.09.21-.16.33-.21.059-.03.12-.05.189-.06a.86.86 0 0 1 .391 0c.06.01.119.03.18.06.059.02.12.05.179.09.05.03.101.08.151.12.179.189.29.45.29.71a.994.994 0 0 1-1 1m-139 31a.997.997 0 0 1-.707-.293l-7-7a.999.999 0 1 1 1.414-1.414l7 7a1 1 0 0 1-.707 1.707"/><path fill="#434A4F" d="M52.073 161.501a.999.999 0 0 1-.707-1.707l7-7a.999.999 0 1 1 1.414 1.414l-7 7a.999.999 0 0 1-.707.293M165.073 69.501h2v-10h-2z"/><path fill="#434A4F" d="M161.073 65.501h10v-2h-10z"/></g></svg>