<?xml version="1.0" encoding="utf-8"?><svg xmlns="http://www.w3.org/2000/svg" width="250" height="250" viewBox="0 0 250 250"><g fill="none" fill-rule="evenodd"><path fill="#5FE0ED" d="M185.032 140.015a3 3 0 1 1-6 0 3 3 0 0 1 6 0"/><path fill="#48515A" d="M31.026 152.078h42v-26h-42v26zm-2 2h46v-30h-46v30z"/><path fill="#48515A" d="M52.105 140.227a.999.999 0 0 1-.538-.157l-16.123-10.275a1 1 0 0 1 1.076-1.687l15.583 9.932 14.949-9.591a1 1 0 0 1 1.08 1.684l-15.487 9.936a1.004 1.004 0 0 1-.54.158m18.74 9.895a1 1 0 0 1-.769-.36l-8.923-10.706a1 1 0 1 1 1.536-1.28l8.923 10.705a1 1 0 0 1-.767 1.641m-37.479 0a1.001 1.001 0 0 1-.768-1.641l8.923-10.705a1 1 0 0 1 1.537 1.28l-8.924 10.706a.997.997 0 0 1-.768.36M53.026 170.078h2v-14h-2zM53.96 172.97a1 1 0 0 1-.71-.3.967.967 0 0 1-.29-.7c0-.27.1-.52.29-.71.37-.37 1.04-.37 1.41 0a.982.982 0 0 1 0 1.41c-.18.19-.44.3-.7.3M62.026 161.078h2v-5h-2zM62.65 164.27c-.27 0-.52-.11-.71-.29-.18-.19-.29-.45-.29-.71 0-.13.02-.26.08-.38.05-.12.12-.23.21-.33.37-.37 1.04-.37 1.42 0 .09.1.16.21.21.33.05.12.08.25.08.38 0 .26-.11.52-.29.71-.19.18-.45.29-.71.29M44.026 164.078h2v-8h-2zM45.26 167.17c-.27 0-.52-.11-.71-.29-.19-.19-.29-.45-.29-.71 0-.26.1-.52.29-.71.37-.37 1.04-.37 1.42 0 .18.19.29.44.29.71 0 .13-.03.26-.08.38s-.12.23-.21.33c-.19.18-.45.29-.71.29"/><path fill="#5FE0ED" d="M110.986 155.88l.333-18 27-5.5-.333 23.333 8.928 3.5 16.112 6.21V95.828c0-21.31-17.189-38.586-38.5-38.586-21.31 0-38.5 17.276-38.5 38.586v69.515l14.64-5.63 10.32-3.833"/><path fill="#EAEAE9" d="M138.026 156.511v-14.402l-26.636-1.063.002 5.667 26.634 9.798"/><path fill="#48515A" d="M182.646 190.078h-10.62v-2h10.62c.833 0 1.625-.372 2.174-1.021a2.943 2.943 0 0 0 .663-2.391c-2.473-7.009-7.876-12.568-14.837-15.263l-24.06-9.191.714-1.868 24.063 9.193c7.549 2.921 13.395 8.962 16.045 16.573l.051.235a4.94 4.94 0 0 1-1.112 4.004 4.844 4.844 0 0 1-3.701 1.729m-124.62 32h-2l.01-1.219 4.261-31.375a27.456 27.456 0 0 1 17.298-21.958l22.72-8.705.716 1.867-22.718 8.705a25.454 25.454 0 0 0-16.034 20.358l-4.253 31.311v1.016"/><path fill="#48515A" d="M124.608 209.84l-.764-.898c-1.094-1.287-26.818-31.663-26.818-43.987v-.109c0-3.02 1.787-5.629 4.553-6.645l8.447-3.135v-21.627l29-5.4v27.032l8.597 3.264a7.118 7.118 0 0 1 4.563 6.62c0 4.302-3.103 11.221-9.222 20.565l-1.673-1.096c5.819-8.886 8.895-15.618 8.895-19.469a5.105 5.105 0 0 0-3.273-4.749l-9.887-3.755v-26.005l-25 4.656v21.355l-9.754 3.62c-1.973.725-3.246 2.596-3.246 4.769v.109c0 10.468 21.25 36.573 25.579 41.781a298.598 298.598 0 0 0 4.125-5.09l1.566 1.244c-2.887 3.639-4.907 6.027-4.927 6.051l-.761.899"/><path fill="#FFF" d="M133.442 145.122c3.011-2.545 8.081-7.086 11.706-12.866 5.335-8.508 7.878-19.505 7.878-30.34v-.838h-23.861c-7.374 0-13.139-6.209-13.139-13.584v-3.675 3.675c0 7.375-6.192 13.584-13.566 13.584h-5.434v.838c0 10.791 2.075 21.882 7.352 30.401 3.553 5.736 8.223 10.184 11.171 12.702 1.627 1.389 3.563 2.059 5.702 2.059h6.197c2.194 0 4.319-.539 5.994-1.956"/><path fill="#48515A" d="M98.026 102.078c.017 8.317 1.288 20.164 7.202 29.713 3.367 5.436 7.824 9.78 10.971 12.468 1.414 1.207 3.113 1.819 5.052 1.819h6.197c2.2 0 3.999-.578 5.348-1.72h.001c1.885-1.594 7.622-6.444 11.503-12.633 4.959-7.908 7.7-18.431 7.726-29.647h-22.861c-5.985 0-11.113-3.855-13.173-9.285-2.168 5.376-7.492 9.285-13.532 9.285h-4.434zm29.422 46h-6.197c-2.428 0-4.564-.773-6.351-2.298-3.254-2.78-7.87-7.281-11.372-12.937-6.2-10.01-7.502-22.343-7.502-30.926v-1.839h6.434c6.811 0 12.566-5.763 12.566-12.584v-3.675h2v3.675c0 6.939 5.446 12.584 12.139 12.584h24.861v1.839c0 11.647-2.852 22.61-8.031 30.87-4.047 6.453-9.963 11.455-11.907 13.098-1.72 1.455-3.954 2.193-6.64 2.193zm62.654-118.156c-15.92 0-28.872 12.952-28.872 28.871 0 11.759 7.001 22.256 17.836 26.743l.681.281-.067.733a8.295 8.295 0 0 1-2.709 5.392c3.004-.439 5.835-1.925 7.97-4.226l.358-.386.521.077c1.307.194 2.707.288 4.282.288 15.919 0 28.872-12.959 28.872-28.886 0-15.929-12.953-28.887-28.872-28.887zm-14.996 64.156h-3.61v-2c2.942 0 5.491-2.146 6.087-5.003-11.176-4.956-18.353-15.973-18.353-28.282 0-17.022 13.849-30.871 30.872-30.871s30.872 13.856 30.872 30.887c0 17.03-13.849 30.886-30.872 30.886a31.78 31.78 0 0 1-4.06-.239c-2.919 2.944-6.875 4.622-10.936 4.622z"/><path fill="#48515A" d="M173.026 47.078h34v-2h-34zM173.026 51.078h34v-2h-34zM173.026 55.078h34v-2h-34zM198.225 70.453l-3.8-3.8 1.414-1.414 2.386 2.385 9.092-9.092 1.414 1.414-10.506 10.507M184.317 70.761l-8-8 1.414-1.414 8 8-1.414 1.414"/><path fill="#48515A" d="M177.731 70.761l-1.414-1.414 8-8 1.414 1.414-8 8"/><path fill="#48515A" d="M175.026 72.078h12v-12h-12v12zm-2 2h16v-16h-16v16zM207.026 74.078h-16v-16h13v2h-11v12h12v-7h2v9M90.317 103.013a55.768 55.768 0 0 1-.291-5.393v-.479c0-9.298 3.831-18.435 10.511-25.069 6.575-6.53 15.127-10.085 24.183-10.017 7.726.052 15.013 2.605 21.072 7.381 4 3.154 7.307 7.226 9.563 11.775.196.396.385.796.566 1.2 2.013 4.334 3.071 9.1 3.057 13.781l.048.331v1.097c0 1.775-.192 3.712-.38 5.374l-1.988-.226c.182-1.606.368-3.473.368-5.148l-.048-1.33c.028-4.423-.966-8.935-2.876-13.049a32.743 32.743 0 0 0-9.549-12.234c-5.706-4.499-12.569-6.903-19.848-6.952-8.505-.063-16.565 3.285-22.759 9.436-6.304 6.261-9.92 14.882-9.92 23.65v.479c0 1.551.095 3.3.281 5.197l-1.99.196"/><path fill="#FFF" d="M92.974 123.382l6.843-1.575a2 2 0 0 0 1.475-2.382l-3.519-15.61a2 2 0 0 0-2.426-1.503l-6.772 1.557a4 4 0 0 0-3.022 4.782l2.639 11.709a4 4 0 0 0 4.782 3.022"/><path fill="#48515A" d="M95.825 103.254c-.08 0-.161.01-.24.029l-6.786 1.561a3.006 3.006 0 0 0-2.271 3.588l2.64 11.708a3.002 3.002 0 0 0 3.584 2.267l6.841-1.574c.512-.126.843-.66.724-1.188l-3.519-15.611a.998.998 0 0 0-.973-.78zm-3.731 21.227a5.01 5.01 0 0 1-4.878-3.902l-2.639-11.708a5.005 5.005 0 0 1 3.778-5.977l6.768-1.557a2.968 2.968 0 0 1 2.279.367 2.98 2.98 0 0 1 1.347 1.89l3.519 15.611a3.014 3.014 0 0 1-2.214 3.573l-6.86 1.58a5.006 5.006 0 0 1-1.1.123z"/><path fill="#48515A" d="M93.162 110.153c-1.103 0-2 .897-2 2s.897 2 2 2 2-.897 2-2-.897-2-2-2zm0 6c-2.206 0-4-1.795-4-4 0-2.206 1.794-4 4-4s4 1.794 4 4c0 2.205-1.794 4-4 4z"/><path fill="#FFF" d="M156.563 123.566l-7.383-1.759a2 2 0 0 1-1.475-2.382l3.519-15.61a2 2 0 0 1 2.426-1.503l7.312 1.741a4 4 0 0 1 3.023 4.782l-2.64 11.708a4 4 0 0 1-4.782 3.023"/><path fill="#48515A" d="M156.789 122.591a2.977 2.977 0 0 0 2.257-.391 2.988 2.988 0 0 0 1.324-1.877l2.639-11.708a3.004 3.004 0 0 0-2.266-3.587l-7.325-1.743a.997.997 0 0 0-1.219.75l-3.519 15.61a1.005 1.005 0 0 0 .737 1.191l7.372 1.755zm.664 2.075c-.369 0-.741-.042-1.11-.125l-.011-.003-7.383-1.758a3.016 3.016 0 0 1-2.22-3.575l3.519-15.61a2.979 2.979 0 0 1 1.347-1.891 2.976 2.976 0 0 1 2.293-.363l7.306 1.739a4.958 4.958 0 0 1 3.115 2.203 4.965 4.965 0 0 1 .651 3.771l-2.639 11.709a4.967 4.967 0 0 1-2.207 3.127 4.96 4.96 0 0 1-2.661.776z"/><path fill="#48515A" d="M155.834 110.153c-1.103 0-2 .897-2 2s.897 2 2 2 2-.897 2-2-.897-2-2-2zm0 6c-2.205 0-4-1.795-4-4 0-2.206 1.795-4 4-4 2.206 0 4 1.794 4 4 0 2.205-1.794 4-4 4zm-33.808 14.925c-.551 0-1 .449-1 1 0 .551.449 1 1 1h6a1.001 1.001 0 0 0 0-2h-6zm6 4h-6c-1.654 0-3-1.346-3-3s1.346-3 3-3h6c1.655 0 3 1.346 3 3s-1.345 3-3 3z"/><path fill="#48515A" d="M134.786 133.078h-4.76v-2h4.636l15.677-1.955 3.189-6.225 1.78.912-3.671 7.166-16.851 2.102M91.504 109.072l-1.166-5.965 1.963-.384 1.166 5.965-1.963.384M157.471 109.387l-1.97-.348 1.12-6.332 1.969.348-1.119 6.332M164.974 222.078h-21.839c-3.368 0-6.109-2.819-6.109-6.284v-.998c0-3.313 2.57-5.718 6.109-5.718h7.999c2.22 0 4.168-2.078 4.168-4.446v-.278c0-2.318-1.909-4.276-4.168-4.276h-23.671c-3.549 0-6.437-2.669-6.437-5.951 0-3.341 2.888-6.049 6.437-6.049h14.563v2h-14.563c-2.405 0-4.437 1.849-4.437 4.037 0 2.191 1.991 3.963 4.437 3.963h23.671c3.401 0 6.168 2.815 6.168 6.276v.278c0 3.494-2.824 6.446-6.168 6.446h-7.999c-2.419 0-4.109 1.529-4.109 3.718v.998c0 2.362 1.844 4.284 4.109 4.284h21.839c2.739 0 5.052-2.343 5.052-5.116v-3.407l4.118-4.225 1.432 1.395-3.55 3.644v2.593c0 3.857-3.229 7.116-7.052 7.116m3.836-32.128a1 1 0 0 1-.71-.3.967.967 0 0 1-.29-.7c0-.26.1-.52.29-.71.28-.28.72-.37 1.09-.22.12.05.23.13.33.22.18.19.29.45.29.71a1.009 1.009 0 0 1-1 1m-20.72-1c0-.56.44-1 1-1 .55 0 .99.44.99 1a.994.994 0 1 1-1.99 0zm3.94 0c0-.56.45-1 1-1s1 .44 1 1c0 .55-.45 1-1 1s-1-.45-1-1zm3.94 0c0-.56.45-1 1.01-1 .55 0 .99.44.99 1 0 .55-.44 1-.99 1-.56 0-1.01-.45-1.01-1zm3.95 0c0-.56.45-1 1-1s1 .44 1 1c0 .55-.45 1-1 1s-1-.45-1-1zm3.94 0c0-.56.45-1 1-1 .56 0 1 .44 1 1 0 .55-.44 1-1 1-.55 0-1-.45-1-1z"/><path fill="#48515A" d="M145.14 189.95c-.13 0-.26-.03-.38-.08s-.23-.12-.33-.22c-.18-.18-.29-.44-.29-.7 0-.26.11-.52.29-.71.1-.09.21-.17.33-.22.18-.07.38-.09.58-.05.06.01.12.03.18.05.06.03.12.06.18.1.05.03.1.07.15.12.09.09.16.2.21.32.06.13.08.26.08.39s-.02.26-.08.38a1 1 0 0 1-.92.62"/><path fill="#475059" d="M182.296 195.118c-.339 0-.676.129-.934.385l-8.014 7.993c-.251.251-.39.585-.39.94-.001.356.137.69.388.941l4.186 4.042c.134.12.621.302 1.052.402 3.091-.053 5.973-.486 8.569-1.284 15.106-4.651 26.65-16.519 30.88-31.749.523-1.884.789-3.982.792-6.235a3.635 3.635 0 0 0-1.069-2.59l-3.501-3.356a1.338 1.338 0 0 0-1.898-.018l-8.013 7.993a1.332 1.332 0 0 0-.003 1.881l4.411 4.251-.096.527a25.292 25.292 0 0 1-18.887 20.05l-2.077.505-4.435-4.276a1.351 1.351 0 0 0-.961-.402zm-3.906 16.707l-.106-.022c-.353-.072-1.553-.354-2.156-.959l-4.185-4.041a3.317 3.317 0 0 1-.985-2.369c0-.89.348-1.726.978-2.354l8.014-7.993a3.335 3.335 0 0 1 4.709.006l3.629 3.5 1.007-.246a23.291 23.291 0 0 0 17.293-17.941l-3.649-3.517a3.336 3.336 0 0 1-.007-4.723l8.013-7.993a3.335 3.335 0 0 1 4.71.006l3.501 3.356a5.637 5.637 0 0 1 1.669 4.02c-.003 2.434-.294 4.711-.866 6.768-4.413 15.89-16.457 28.273-32.217 33.125-2.81.865-5.92 1.327-9.244 1.375l-.108.002z"/><path fill="#475059" d="M209.604 176.782l-1.412-1.416 4.249-4.238 1.412 1.416-4.249 4.238M215.272 171.129l-1.412-1.416 1.414-1.411 1.413 1.416-1.415 1.411M178.432 207.872l-1.412-1.416 7.083-7.064 1.412 1.416-7.083 7.064"/><path fill="#48515A" d="M193.974 168.962h-2c0-8.822 7.178-16 16-16v2c-7.72 0-14 6.28-14 14"/><path fill="#48515A" d="M189.974 168.962h-2c0-11.028 8.972-20 20-20v2c-9.925 0-18 8.075-18 18"/><path fill="#48515A" d="M185.974 168.962h-2c0-13.233 10.767-24 24-24v2c-12.131 0-22 9.869-22 22m12 0h-2c0-6.617 5.383-12 12-12v2c-5.514 0-10 4.486-10 10M189.026 116.078h2v-4h-2zM189.026 126.078h2v-4h-2zM193.026 120.078h4v-2h-4zM183.026 120.078h4v-2h-4z"/></g></svg>