<?xml version="1.0" encoding="utf-8"?><svg xmlns="http://www.w3.org/2000/svg" width="250" height="250" viewBox="0 0 250 250"><g fill="none" fill-rule="evenodd"><path fill="#F58E70" d="M142.035 146.344l-.512-10.78-.452-5.609a7.487 7.487 0 0 0-4.719-5.991l-5.096-1.889 2.27 5.377-1.981-1.414h-.566l-5.11 7.643h-1.407l-5.593-7.254-1.768 1.025-.774.142 2.292-5.584-4.892 1.954a7.489 7.489 0 0 0-4.719 5.991l-.551 5.608-.422 10.281"/><path fill="#F58E70" d="M141.036 146.391l-.512-10.78-.45-5.576c-.309-2.295-1.876-4.284-4.083-5.138l-2.914-1.08 2.745 6.501-4.402-3.141-5.017 7.504h-2.433l-5.358-6.949-1.16.672-2.746.504 2.091-5.093-2.699 1.078a6.491 6.491 0 0 0-4.098 5.195l-.548 5.574-.418 10.223-1.998-.083.422-10.279.555-5.666a8.504 8.504 0 0 1 5.353-6.826l7.075-2.826-2.238 5.452.923-.535 5.827 7.559h.382l5.11-7.643h.977l-1.987-4.705 7.264 2.694a8.494 8.494 0 0 1 5.363 6.795l.457 5.661.515 10.813-1.998.095"/><path fill="#48515A" d="M153.9 207.971l-7.212-.989-.473-34.752a4.914 4.914 0 0 1 1.425-3.541 4.907 4.907 0 0 1 3.52-1.471h2.25v2h-2.25c-.794 0-1.539.311-2.096.876a2.922 2.922 0 0 0-.849 2.109l.449 33.031 3.509.482 4.328-33.708 1.985.254-4.586 35.709"/><path fill="#FFD15D" d="M176.66 123.219l-6.625 7.25 3.125 4.75 2 14-6.707 9.07-19.209 9.346 16.917 11.584v-8.642l22.367-2.788L191 152.784v-23.149l-3.84-9.908-8.333-2.258-2.167 5.75"/><path fill="#5FE0ED" d="M72.062 116.533l.003 1.166.759 1.319a31.111 31.111 0 0 1 4.452 15.089l.839 22.661 24.598 10.625c1.37.672 2.287 2.073 2.287 3.6v35.791l-9.979.749H93v-30.749l-16.374-6.207-15.13-2.788L59 152.784v-28l2.145-8.251h10.917m-25.078 72.768a3 3 0 1 1-6 0 3 3 0 0 1 6 0"/><path fill="#48515A" d="M84 179.532H50v-8.244c0-2.711 2.158-4.756 5.021-4.756H65v2h-9.979c-1.722 0-3.021 1.185-3.021 2.756v6.244h30v-5h2v7m-20.292-61.833l-1.979-.29 1.204-8.211-1.236-.994a8.62 8.62 0 0 1-2.554-5.985l-.003-.128c0-4.719 3.835-8.558 8.548-8.558h4.736c2.264 0 4.034.798 5.564 2.512l.239.217C79.404 97.599 80 99.384 80 101.567v11.088l-8 1.926v2.951h-2v-4.527l8-1.926v-9.512c0-1.652-.414-2.975-1.23-3.933l-.236-.213c-1.164-1.324-2.393-1.888-4.11-1.888h-4.736c-3.582 0-6.502 2.896-6.547 6.475l.001.091c0 1.732.7 3.422 1.923 4.645l2.013 1.609-1.37 9.346"/><path fill="#FFD15D" d="M120 212.533h9v-60h-9z"/><path fill="#48515A" d="M85.021 208.719a1.001 1.001 0 0 0 0 2 1.001 1.001 0 0 0 0-2zm0 4c-1.654 0-3-1.346-3-3 0-1.655 1.346-3 3-3s3 1.345 3 3c0 1.654-1.346 3-3 3z"/><path fill="#FFF" d="M71.021 162.283l1.759 3.122a2.015 2.015 0 0 0 2.41.916l3.997-1.372.5-2.916-2.666-1.75"/><path fill="#48515A" d="M74.536 167.431a3.015 3.015 0 0 1-2.627-1.536l-1.759-3.122 1.742-.981 1.759 3.122c.241.427.751.622 1.214.462l3.436-1.18.29-1.687-2.119-1.391 1.098-1.671 3.213 2.109-.711 4.147-4.558 1.564a2.997 2.997 0 0 1-.978.164M50 155.532h7.021c.485 0 .979-.63.979-1.25v-30c0-.676-.684-.75-.979-.75H50v32zm.009 15.016L48 156.282v-34.75h9.021c1.726 0 2.979 1.157 2.979 2.75v30c0 1.538-1.223 3.25-2.979 3.25h-6.834l1.803 12.735-1.981.281zM86 207.532h-2v-.923l-11.683-4.077H61.7L50 206.609v.923h-2v-2.344l13.361-4.656h11.295L86 205.188v2.344M66 188.532h2v-10h-2zM75 185.532h4v-2h-4v2zm-2 2h8v-6h-8v6z"/><path fill="#48515A" d="M76 182.532h2v-4h-2zM51 175.532h32v-2H51zM52 156.532h2v-34h-2zM61.126 159.277l-.209-1.989 7.125-.75.209 1.989-7.125.75"/><path fill="#48515A" d="M70.505 163.506L62 146.519v-9.987a1 1 0 1 1 2 0v9.514l7.516 15.013 4.224-1.409L70 142.445v-16.163c0-1.593-1.253-2.75-2.979-2.75H65a1 1 0 1 1 0-2h2.021c2.839 0 4.979 2.042 4.979 4.75v15.838l6.27 18.795-7.765 2.591M65 200.532h4v-10h-4v10zm-2 2h8v-14h-8v14zm-13.979 6.187a1.001 1.001 0 0 0 0 2 1.001 1.001 0 0 0 0-2zm0 4c-1.654 0-3-1.346-3-3 0-1.655 1.346-3 3-3s3 1.345 3 3c0 1.654-1.346 3-3 3zm24-4a1.001 1.001 0 0 0 0 2 1.001 1.001 0 0 0 0-2zm0 4c-1.654 0-3-1.346-3-3 0-1.655 1.346-3 3-3s3 1.345 3 3c0 1.654-1.346 3-3 3zm-12-4a1.001 1.001 0 0 0 0 2 1.001 1.001 0 0 0 0-2zm0 4c-1.654 0-3-1.346-3-3 0-1.655 1.346-3 3-3s3 1.345 3 3c0 1.654-1.346 3-3 3z"/><path fill="#48515A" d="M62 207.532h-2v-2.575l3.194-4.36 1.613 1.182L62 205.612v1.92M74 207.532h-2v-1.92l-2.806-3.833 1.614-1.182 3.192 4.36v2.575M119.998 147.532a1 1 0 0 1-1-1v-5h2.606l2-2h10.259l-.567-3.92a1 1 0 1 1 1.979-.287l.898 6.207h-11.741l-2 2h-1.434v3a1 1 0 0 1-1 1"/><path fill="#FFF" d="M111.998 146.533v-2.25l6.02-1.75h1.98v4"/><path fill="#48515A" d="M120.998 146.532h-2v-3h-.837l-5.163 1.501v1.499h-2v-3l7.02-2h2.98v5"/><path fill="#48515A" d="M88 151.532h73v-4H88v4zm-2 2h77v-8H86v8zm10.021 57H112v-.568l-7.749-3.035-8.231.935.001 2.668zm17.979 2H94.021l-.001-6.455 10.498-1.191L114 208.6v3.932zm86-33h-34v-7h2v5h30v-6.244c0-1.597-1.23-2.756-2.925-2.756H185v-2h10.075c2.808 0 4.925 2.045 4.925 4.756v8.244"/><path fill="#FFF" d="M179.075 162.283l-1.759 3.122a2.014 2.014 0 0 1-2.409.916l-3.997-1.372-.5-2.916 2.665-1.75"/><path fill="#48515A" d="M175.56 167.431c-.326 0-.655-.053-.978-.164l-4.558-1.564-.711-4.147 3.214-2.109 1.097 1.671-2.118 1.391.289 1.687 3.436 1.18c.464.158.973-.036 1.215-.463l1.758-3.121 1.743.981-1.759 3.122a3.019 3.019 0 0 1-2.628 1.536m17.515-43.899c-.399 0-1.075.159-1.075.75v30c0 .596.563 1.25 1.075 1.25H200v-32h-6.925zm6.915 47.016l-1.98-.281 1.804-12.735h-6.739c-1.609 0-3.075-1.548-3.075-3.25v-30c0-1.567 1.323-2.75 3.075-2.75H202l-.01 34.891-2 14.125zM202 207.532h-2v-.925l-11.605-4.075h-10.616L166 206.61v.922h-2v-2.346l13.443-4.654h11.294L202 205.189v2.343M182 188.532h2v-10h-2zM171 185.532h4v-2h-4v2zm-2 2h8v-6h-8v6z"/><path fill="#48515A" d="M172 182.532h2v-4h-2zM167 175.532h32v-2h-32zM196 156.532h2v-34h-2zM188.971 159.277l-7.125-.75.209-1.989 7.125.75-.209 1.989"/><path fill="#48515A" d="M179.546 163.505l-7.792-2.589L178 142.121v-15.839c0-2.663 2.23-4.75 5.075-4.75H185a1 1 0 1 1 0 2h-1.925c-1.752 0-3.075 1.183-3.075 2.75v16.162l-5.717 17.205 4.246 1.411L186 146.048v-9.516a1 1 0 0 1 2 0v9.985l-8.454 16.988M181 200.532h4v-10h-4v10zm-2 2h8v-14h-8v14zm22.075 6.187a1.001 1.001 0 0 0 0 2 1.001 1.001 0 0 0 0-2zm0 4c-1.654 0-3-1.346-3-3 0-1.655 1.346-3 3-3 1.655 0 3 1.345 3 3 0 1.654-1.345 3-3 3zm-24-4a1.001 1.001 0 0 0 0 2 1.001 1.001 0 0 0 0-2zm0 4c-1.654 0-3-1.346-3-3 0-1.655 1.346-3 3-3 1.655 0 3 1.345 3 3 0 1.654-1.345 3-3 3zm12-4a1.001 1.001 0 0 0 0 2 1.001 1.001 0 0 0 0-2zm0 4c-1.654 0-3-1.346-3-3 0-1.655 1.346-3 3-3 1.655 0 3 1.345 3 3 0 1.654-1.345 3-3 3z"/><path fill="#48515A" d="M190 207.532h-2v-1.92l-2.807-3.833 1.613-1.182 3.194 4.36v2.575M178 207.532h-2v-2.575l3.193-4.36 1.613 1.182-2.806 3.833v1.92M165.069 208.719a1 1 0 1 0 0 2 1 1 0 0 0 0-2zm0 4c-1.655 0-3-1.346-3-3 0-1.655 1.345-3 3-3 1.654 0 3 1.345 3 3 0 1.654-1.346 3-3 3zM145.37 212.532h-6.368v-3.902l8.548-3.764 6.525 1.282-.001 6.071h-2l.001-4.426-4.294-.843-6.779 2.984v.598h3.948l2.96-1.3v-.847h2v2.153l-4.54 1.994M100 182.532h42v-25h-42v25zm-2 2h46v-29H98v29z"/><path fill="#48515A" d="M120.89 171.551c-.187 0-.374-.053-.538-.157l-16.123-10.275 1.075-1.687 15.584 9.932 14.949-9.591 1.08 1.684-15.487 9.935a1 1 0 0 1-.54.159M138.861 181.086l-8.924-10.706 1.536-1.281 8.924 10.706-1.536 1.281M102.919 181.086l-1.536-1.281 8.923-10.706 1.536 1.281-8.923 10.706M35 102.532h2v-3.999h-2zM35 112.532h2v-4h-2zM29 106.532h4v-2h-4zM39 106.532h4v-2h-4zM213 162.532h2v-4h-2zM213 172.532h2v-4h-2zM207 166.532h4v-2h-4zM217 166.532h4v-2h-4zM153 101.532h-2v-6.999h5v2h-3v4.999"/><path fill="#F58E70" d="M152.02 83.283c-6.617 0-12 5.383-12 12 0 6.616 5.383 11.999 12 11.999s12-5.383 12-11.999c0-6.617-5.383-12-12-12zm0 25.999c-7.719 0-14-6.28-14-13.999 0-7.72 6.281-14 14-14 7.72 0 14 6.28 14 14 0 7.719-6.28 13.999-14 13.999z"/><path fill="#48515A" d="M149.071 86.718a.993.993 0 0 1 .759-1.189h-.009a.99.99 0 0 1 1.199.75c.12.54-.22 1.079-.76 1.199-.069.01-.149.02-.22.02-.46 0-.87-.32-.969-.78zm4.75.77c-.54-.13-.871-.66-.75-1.2a.996.996 0 0 1 1.199-.75c.54.12.881.66.75 1.2a1 1 0 0 1-.97.77c-.08 0-.149-.01-.229-.02zm-8.171 1.36a.989.989 0 0 1 .16-1.399v-.011c.43-.34 1.06-.27 1.41.17.34.43.27 1.06-.17 1.4a.96.96 0 0 1-.62.22c-.29 0-.58-.13-.78-.38zm11.37.19a1 1 0 0 1-.15-1.41.99.99 0 0 1 1.4-.15c.43.35.5.98.16 1.41a1.008 1.008 0 0 1-1.41.15zm-13.53 3.21c-.5-.25-.71-.84-.47-1.34.25-.5.84-.7 1.34-.459.5.239.71.839.46 1.339-.17.35-.53.56-.9.56a.952.952 0 0 1-.43-.1zm15.75-.42c-.24-.5-.03-1.1.46-1.34.5-.23 1.1-.02 1.34.47a1.004 1.004 0 0 1-.9 1.44c-.38 0-.73-.21-.9-.57zm-17.22 3.451v-.011-.03c0-.55.45-.99 1-.99.56 0 1 .451 1 1v.031c0 .56-.45 1-1 1s-1-.44-1-1zm19 1.02c-.56 0-1-.451-1-1 0-.551.45-1 1-1 .551 0 1 .449 1 1 0 .559-.449 1-1 1zm-18.01 3.319a.998.998 0 0 1 .46-1.33c.5-.239 1.1-.03 1.34.46a1.005 1.005 0 0 1-.9 1.44c-.37 0-.73-.21-.9-.57zm16.681.48a.996.996 0 0 1-.471-1.33.999.999 0 1 1 1.8.87c-.17.36-.53.56-.9.56-.14 0-.29-.03-.429-.1zm-13.911 3c-.43-.339-.5-.98-.16-1.41.35-.429.98-.5 1.411-.15.429.34.5.971.149 1.4a.971.971 0 0 1-.779.381.963.963 0 0 1-.621-.221zm11.06-.15a.99.99 0 0 1 .16-1.399.982.982 0 0 1 1.401.159.982.982 0 0 1-.161 1.4c-.18.151-.4.22-.62.22a.986.986 0 0 1-.78-.38zm-7.05 2.081a.996.996 0 0 1-.759-1.19 1.01 1.01 0 0 1 1.199-.761c.54.13.881.661.75 1.201-.1.46-.51.779-.97.779a.842.842 0 0 1-.22-.029zm3.25-.75a.99.99 0 0 1 .75-1.19c.54-.12 1.071.21 1.2.75a1.005 1.005 0 0 1-.76 1.199c-.07.011-.14.02-.22.02-.45 0-.87-.31-.97-.779z"/><path fill="#FFF" d="M59 76.533h20v-28H59z"/><path fill="#475059" d="M60 75.533h18v-26H60v26zm-2 2h22v-30H58v30z"/><path fill="#FFF" d="M63 56.533h12v-4H63z"/><path fill="#475059" d="M64 55.533h10v-2H64v2zm-2 2h14v-6H62v6z"/><path fill="#FFF" d="M63 59.533v14"/><path fill="#475059" d="M62 61.533h2v-2h-2v2zm0 4h2v-2h-2v2zm0 4h2v-2h-2v2zm0 4h2v-2h-2v2z"/><path fill="#FFF" d="M67 59.533v14"/><path fill="#475059" d="M66 61.533h2v-2h-2v2zm0 4h2v-2h-2v2zm0 4h2v-2h-2v2zm0 4h2v-2h-2v2z"/><path fill="#FFF" d="M71 59.533v14"/><path fill="#475059" d="M70 61.533h2v-2h-2v2zm0 4h2v-2h-2v2zm0 4h2v-2h-2v2zm0 4h2v-2h-2v2z"/><path fill="#FFF" d="M75 59.533v6"/><path fill="#475059" d="M74 61.533h2v-2h-2v2zm0 4h2v-2h-2v2z"/><path fill="#FFF" d="M75 67.533v6"/><path fill="#475059" d="M74 73.533h2v-6h-2z"/><path fill="#48515A" d="M69.458 40.282c-12.062 0-21.876 9.814-21.876 21.876 0 10.519 7.496 19.559 17.824 21.494l.383.072 3.669 4.892 3.669-4.892.382-.072c10.329-1.935 17.825-10.975 17.825-21.494 0-12.062-9.814-21.876-21.876-21.876zm0 51.667l-4.805-6.407c-11.075-2.261-19.071-12.034-19.071-23.384 0-13.166 10.711-23.876 23.876-23.876 13.165 0 23.876 10.71 23.876 23.876 0 11.35-7.996 21.123-19.071 23.385l-4.805 6.406z"/><path fill="#475059" d="M142.071 67.124l-1.901-.62.34-1.047-1.315-.428a3.665 3.665 0 0 1-2.566-3.539c.002-1.642 1.011-3.029 2.573-3.534l1.316-.427-.723-2.235-1.317.427c-1.561.507-3.193-.027-4.156-1.355a3.665 3.665 0 0 1 .004-4.372l.814-1.119-1.899-1.383-.814 1.119c-.966 1.327-2.599 1.857-4.159 1.347a3.664 3.664 0 0 1-2.566-3.539l.001-1.384-2.349-.002-.002 1.384a3.66 3.66 0 0 1-2.572 3.533c-1.563.507-3.193-.025-4.157-1.354l-.812-1.121-1.903 1.38.813 1.12a3.663 3.663 0 0 1-.004 4.371 3.663 3.663 0 0 1-4.159 1.347l-1.315-.429-.341 1.046-1.902-.62.961-2.948 3.217 1.049c.876.287 1.567-.134 1.922-.622s.542-1.275.002-2.02l-1.987-2.74 5.141-3.727 1.986 2.74c.541.746 1.348.812 1.921.626.575-.186 1.188-.713 1.189-1.633l.004-3.384 6.349.006-.003 3.384c-.001.921.612 1.448 1.185 1.635.575.188 1.38.122 1.923-.622l1.992-2.736 5.132 3.738-1.991 2.735c-.542.745-.356 1.532-.002 2.021.354.489 1.046.91 1.921.626l3.219-1.042 1.956 6.04-3.219 1.042c-.876.284-1.188 1.03-1.189 1.634 0 .603.311 1.35 1.186 1.635l3.217 1.049-.961 2.948"/><path fill="#F58E70" d="M132.7 64.147l-1.901-.62a6.566 6.566 0 0 0-.393-5.045 6.566 6.566 0 0 0-3.844-3.29 6.574 6.574 0 0 0-5.046.392 6.57 6.57 0 0 0-3.29 3.844l-1.901-.62a8.554 8.554 0 0 1 4.285-5.007 8.55 8.55 0 0 1 6.572-.511 8.554 8.554 0 0 1 5.007 4.285 8.554 8.554 0 0 1 .511 6.572"/><path fill="#F58E70" d="M124.529 70.02c-.883 0-1.78-.137-2.664-.425a8.553 8.553 0 0 1-5.007-4.286 8.556 8.556 0 0 1-.51-6.571l1.901.62a6.57 6.57 0 0 0 .392 5.045 6.57 6.57 0 0 0 3.845 3.291c3.465 1.128 7.205-.77 8.336-4.236l1.901.62c-1.184 3.63-4.567 5.942-8.194 5.942"/><path fill="#475059" d="M127.691 79.855l-6.35-.007.003-3.383c.001-.921-.611-1.449-1.185-1.637-.574-.186-1.38-.122-1.922.623l-1.992 2.735-5.133-3.737 1.992-2.736c.542-.744.356-1.531.002-2.02-.354-.489-1.046-.909-1.921-.626l-3.219 1.042-1.956-6.04 3.219-1.043c.876-.284 1.189-1.03 1.19-1.633 0-.604-.311-1.35-1.186-1.636l-3.217-1.049 1.08-3.313 1.901.62-.46 1.412 1.316.429a3.665 3.665 0 0 1 2.566 3.539 3.662 3.662 0 0 1-2.574 3.533l-1.316.427.724 2.235 1.316-.426c1.565-.503 3.193.027 4.156 1.355.963 1.329.962 3.045-.004 4.371l-.815 1.119 1.899 1.383.815-1.119a3.668 3.668 0 0 1 4.159-1.346 3.663 3.663 0 0 1 2.565 3.54l-.001 1.383 2.35.003.001-1.384a3.663 3.663 0 0 1 2.574-3.534c1.56-.504 3.193.027 4.155 1.355l.813 1.121 1.902-1.38-.812-1.12a3.665 3.665 0 0 1 .004-4.371 3.664 3.664 0 0 1 4.159-1.346l1.316.429.509-1.561 1.901.62-1.129 3.462-3.217-1.049c-.874-.286-1.567.134-1.922.622s-.542 1.275-.002 2.021l1.986 2.739-5.141 3.727-1.986-2.74c-.54-.746-1.345-.811-1.92-.626-.575.186-1.189.712-1.19 1.633l-.003 3.384"/><path fill="#FFD15D" d="M128.541 61.544a4.072 4.072 0 1 1-8.144.002 4.072 4.072 0 0 1 8.144-.002"/><path fill="#FFD15D" d="M124.469 57.972a3.577 3.577 0 0 0-3.573 3.573c0 .954.371 1.851 1.046 2.526a3.553 3.553 0 0 0 2.527 1.046 3.576 3.576 0 0 0 3.572-3.572 3.576 3.576 0 0 0-3.572-3.573zm0 8.145a4.546 4.546 0 0 1-3.234-1.339 4.541 4.541 0 0 1-1.339-3.233 4.578 4.578 0 0 1 4.573-4.573 4.577 4.577 0 0 1 4.572 4.573 4.577 4.577 0 0 1-4.572 4.572z"/><path fill="#48515A" d="M124.895 39.281c-12.062 0-21.875 9.814-21.875 21.876 0 10.52 7.496 19.56 17.824 21.495l.382.071 3.669 4.892 3.669-4.892.383-.071c10.328-1.935 17.824-10.975 17.824-21.495 0-12.062-9.814-21.876-21.876-21.876zm0 51.668l-4.805-6.407c-11.074-2.262-19.07-12.034-19.07-23.385 0-13.165 10.71-23.876 23.875-23.876s23.876 10.711 23.876 23.876c0 11.351-7.996 21.123-19.071 23.385l-4.805 6.407z"/><path fill="#FFD15D" d="M188.495 56.737a8.5 8.5 0 0 1-8.5 8.5 8.501 8.501 0 1 1 8.5-8.5"/><path fill="#48515A" d="M186 74.533a1 1 0 0 1-1-1v-3.47c0-1.887.905-3.834 2.482-5.345 2.234-2.143 3.466-4.962 3.466-7.938 0-3.066-1.222-5.914-3.44-8.016a10.899 10.899 0 0 0-8.151-2.99c-5.646.302-10.21 4.976-10.393 10.642-.099 3.052 1.213 6.097 3.599 8.353 1.571 1.487 2.437 3.311 2.437 5.137v3.627a1 1 0 1 1-2 0v-3.627c0-1.252-.66-2.595-1.812-3.684-2.801-2.65-4.339-6.247-4.222-9.87.215-6.695 5.61-12.219 12.283-12.575 3.624-.189 7.029 1.064 9.635 3.535a12.927 12.927 0 0 1 4.064 9.468c0 3.475-1.489 6.895-4.083 9.382-1.185 1.136-1.865 2.557-1.865 3.901v3.47a1 1 0 0 1-1 1"/><path fill="#48515A" d="M179.921 81.416a1 1 0 0 1-.064-1.998l2.876-.19a2.667 2.667 0 0 0 1.239-.489l.324-.339c.467-.467.704-1.159.704-2.057v-2.81a1 1 0 1 1 2 0v2.81c0 .645-.086 1.233-.257 1.764h.674l-1.633 1.707a4.813 4.813 0 0 1-2.872 1.406l-2.924.194c-.022.002-.044.002-.067.002"/><path fill="#48515A" d="M189 74.533h-17a1 1 0 0 1 0-2h17a1 1 0 1 1 0 2"/><path fill="#48515A" d="M180.471 81.533h-2.86c-1.19 0-2.365-.546-3.397-1.579l-.522-.522.108-.205c-.531-.778-.8-1.744-.8-2.884v-2.81a1 1 0 1 1 2 0v2.81c0 .899.237 1.591.703 2.058l.522.522-.047.087c.402.289.895.523 1.433.523h2.129a1 1 0 0 1 1.165 1.612l-.434.388M183 73.533h-2v-7.761l5-9.917v-1.322h2v1.797l-5 9.917v7.286M179 73.533h-2v-7.286l-5-9.917v-1.797h2v1.321l5 9.918v7.761M175 55.529c0-.551.45-1 1-1s1 .449 1 1c0 .56-.45 1-1 1s-1-.44-1-1zm4 0c0-.551.45-1 1-1s1 .449 1 1c0 .56-.45 1-1 1s-1-.44-1-1zm4 0c0-.551.45-1 1-1s1 .449 1 1c0 .56-.45 1-1 1s-1-.44-1-1z"/><path fill="#48515A" d="M180.145 40.282c-12.063 0-21.876 9.814-21.876 21.876 0 10.519 7.496 19.559 17.824 21.494l.382.072 3.67 4.892 3.669-4.892.382-.072c10.328-1.935 17.824-10.974 17.824-21.494 0-12.062-9.814-21.876-21.875-21.876zm0 51.667l-4.806-6.406c-11.074-2.262-19.07-12.035-19.07-23.385 0-13.166 10.711-23.876 23.876-23.876 13.165 0 23.875 10.71 23.875 23.876 0 11.35-7.996 21.123-19.071 23.385l-4.804 6.406zM94.02 109.282c-1.103 0-2 .897-2 2s.897 2 2 2 2-.897 2-2-.897-2-2-2zm0 6c-2.205 0-4-1.794-4-4 0-2.205 1.795-4 4-4 2.206 0 4 1.795 4 4 0 2.206-1.794 4-4 4z"/><path fill="#FFD15D" d="M205.02 197.283a3 3 0 1 1-6 0 3 3 0 0 1 6 0"/><path fill="#48515A" d="M117 194.532h2v-4h-2zM117 204.532h2v-4h-2zM111 198.532h4v-2h-4zM121 198.532h4v-2h-4z"/><path fill="#475059" d="M171.843 103.052a8.973 8.973 0 0 0-.403 2.667v3.452c0 2.756 2.243 5 5 5l1.053.029v-11.148h-5.65zm.903-2h6.747v13.42a3.254 3.254 0 0 0 3.25 3.25h7.323l-1.122-12.345c-.004-5.055-3.579-8.658-8.504-8.658a9.006 9.006 0 0 0-7.694 4.333zm19.509 18.67h-9.512a5.259 5.259 0 0 1-4.954-3.513l-1.378-.039h-.001c-3.831 0-6.97-3.14-6.97-6.999v-3.452c0-6.065 4.934-11 11-11 6.084 0 10.5 4.444 10.5 10.567l1.315 14.436z"/><path fill="#475059" d="M185.159 119.727h2v-1.005h-2z"/><path fill="#FFD15D" d="M125.581 93.031c-6.243.109-11.18 5.124-11.18 11.098v14.548h7.527l-.02-1.897c-.69-.674-1.443-1.517-2.076-2.496-1.562-2.412-2.176-5.552-2.176-8.607v-.237h6.984l-.074-3.183c2.281 2.045 5.291 3.183 8.417 3.183h1.244v.237c0 3.068-.752 6.181-2.331 8.59-1.043 1.591-2.486 2.846-3.384 3.577l1.282.833h7.392l.001-14.724c0-6.1-5.202-11.033-11.606-10.922"/><path fill="#EAEAE9" d="M121.903 122.357l-2.368 3.681 5.623 7.643h.597l-3.852-11.324M129.777 119.633l2.483 2.442 2.372 5.377h-.592l-1.479-1.414h-.591l-2.368-3.681.175-2.724"/><path fill="#EAEAE9" d="M129.789 121.134v-4.078l-1.602.947a2.83 2.83 0 0 1-1.44.391h-1.786a2.818 2.818 0 0 1-1.747-.602l-1.307-1.037v1.605l7.882 2.774"/><path fill="#48515A" d="M126.658 119.463h-1.834a3.62 3.62 0 0 1-2.319-.808c-1.002-.819-2.425-2.148-3.513-3.828-1.931-2.982-2.336-6.622-2.336-9.15v-.237h2v.237c0 2.259.35 5.491 2.015 8.063.946 1.462 2.208 2.638 3.099 3.366.295.24.639.357 1.054.357h1.834c.488 0 .873-.111 1.145-.331.537-.434 2.169-1.754 3.256-3.413 1.398-2.133 2.168-4.989 2.168-8.042v-.237h2v.237c0 3.438-.886 6.683-2.495 9.138-1.259 1.921-3.074 3.389-3.671 3.871-.637.516-1.445.777-2.403.777"/><path fill="#48515A" d="M120.903 119.775h2v-3.009h-2zM128.596 119.951h2v-2.972h-2z"/><path fill="#48515A" d="M119.028 125.037h1.032l3.348 4.861-2.505-7.376v-.655l-.829.793-1.046 2.377zm8.117 9.644h-2.871l-5.132-7.451-1.277 1.221h-2.526l3.066-6.961 4.498-4.304v5.006l4.242 12.489z"/><path fill="#48515A" d="M130.601 121.87v.652l-2.487 7.323 3.332-4.807h1.028l-1.049-2.378-.824-.79zm-3.405 12.811h-2.837l4.242-12.489v-5.009l4.493 4.307 3.072 6.961h-2.527l-1.278-1.222-5.165 7.452z"/></g></svg>