<?xml version="1.0" encoding="utf-8"?><svg xmlns="http://www.w3.org/2000/svg" width="250" height="250" viewBox="0 0 250 250"><g fill="none" fill-rule="evenodd"><path fill="#DEDEDD" d="M68.257 203.247a9.72 9.72 0 0 1-6.919-2.866 9.723 9.723 0 0 1-2.866-6.92 9.724 9.724 0 0 1 2.866-6.919 9.716 9.716 0 0 1 6.919-2.861c2.631 0 5.091 1.011 6.926 2.847l.168.138c3.685 3.8 3.619 9.921-.175 13.715a9.722 9.722 0 0 1-6.919 2.866zm0-126.897a9.718 9.718 0 0 1 6.919 2.861c3.815 3.815 3.815 10.023 0 13.838a9.722 9.722 0 0 1-6.919 2.866 9.72 9.72 0 0 1-6.919-2.866 9.72 9.72 0 0 1-2.866-6.919 9.72 9.72 0 0 1 2.866-6.919 9.718 9.718 0 0 1 6.919-2.861zm123.767-5.78h-2.415c-13.258 0-25.722 5.162-35.097 14.537l-50.225 50.226h-.314l-33.578-33.578a15.66 15.66 0 0 0 9.024-4.463c6.154-6.155 6.154-16.169 0-22.324a15.684 15.684 0 0 0-11.162-4.623c-4.216 0-8.18 1.642-11.162 4.623-6.154 6.155-6.154 16.169 0 22.324l42.616 42.616-40.944 40.945.009.01c-.583.439-1.151.906-1.681 1.437a15.682 15.682 0 0 0-4.623 11.162c0 4.216 1.642 8.18 4.623 11.161a15.682 15.682 0 0 0 11.162 4.624c4.216 0 8.18-1.642 11.162-4.624 6.154-6.154 6.154-16.169 0-22.323a15.678 15.678 0 0 0-8.836-4.427l29.299-29.298h8.496l46.134 46.134c9.375 9.375 21.839 14.538 35.097 14.538h2.415l-69.373-69.339 69.373-69.338z"/><path fill="#F58E70" d="M149.576 134.906h-5.993V221l9-8 9 8V112.314l-12.007 22.592"/><path fill="#DEDEDD" d="M94.786 117.319l52.549 52.549c6.72 6.72 15.167 11.086 24.341 12.684l-65.265-65.233H94.786"/><path fill="#475059" d="M58.25 157.67c-3.53 0-7.059 1.343-9.747 4.03-5.374 5.375-5.374 14.121 0 19.496 5.375 5.374 14.12 5.374 19.496 0a13.696 13.696 0 0 0 4.037-9.748c0-3.681-1.434-7.143-4.037-9.747a13.748 13.748 0 0 0-9.749-4.031zm.001 29.557a15.735 15.735 0 0 1-11.162-4.617c-6.154-6.155-6.154-16.169 0-22.324 6.155-6.154 16.17-6.153 22.324.001a15.683 15.683 0 0 1 4.623 11.161c0 4.217-1.642 8.181-4.623 11.162a15.735 15.735 0 0 1-11.162 4.617zm0-136.896a13.7 13.7 0 0 0-9.748 4.038 13.699 13.699 0 0 0-4.037 9.748c0 3.682 1.434 7.144 4.037 9.747a13.696 13.696 0 0 0 9.748 4.038c3.682 0 7.144-1.434 9.748-4.038a13.696 13.696 0 0 0 4.037-9.748c0-3.681-1.434-7.143-4.037-9.747a13.7 13.7 0 0 0-9.748-4.038zm0 29.571a15.68 15.68 0 0 1-11.162-4.624 15.681 15.681 0 0 1-4.623-11.161c0-4.217 1.642-8.181 4.623-11.162a15.686 15.686 0 0 1 11.162-4.624c4.217 0 8.18 1.643 11.162 4.624a15.681 15.681 0 0 1 4.623 11.161c0 4.217-1.642 8.181-4.623 11.162a15.682 15.682 0 0 1-11.162 4.624z"/><path fill="#475059" d="M182.018 187.233h-2.415c-13.258 0-25.722-5.163-35.097-14.537L47.089 75.278l1.414-1.414 97.417 97.418c8.411 8.41 19.412 13.288 31.205 13.889l-69.886-69.852H93.138L56.896 79.077l1.414-1.414 35.657 35.656h14.1l73.951 73.914"/><path fill="#475059" d="M59.273 157.165l-1.414-1.414 31.188-31.189h9.889v2h-9.061l-30.602 30.603M111.949 118.591l-1.414-1.414 66.59-66.558c-11.793.601-22.794 5.479-31.205 13.889L95.519 114.91l-1.414-1.414 50.401-50.402c9.375-9.374 21.839-14.537 35.097-14.537h2.415l-70.069 70.034M50.175 160.254l-1.414-1.414 41.594-41.594 1.414 1.414-41.594 41.594M102.603 119.37a1.001 1.001 0 0 0 0 2 1 1 0 0 0 0-2zm0 4c-1.654 0-3-1.346-3-3s1.346-3 3-3c1.655 0 3 1.346 3 3s-1.345 3-3 3zM58.251 54.337a9.717 9.717 0 0 0-6.919 2.86 9.723 9.723 0 0 0-2.866 6.92 9.722 9.722 0 0 0 2.866 6.919 9.717 9.717 0 0 0 6.919 2.866 9.72 9.72 0 0 0 6.919-2.866c3.816-3.815 3.816-10.023.001-13.839a9.718 9.718 0 0 0-6.92-2.86zm0 21.565a11.703 11.703 0 0 1-8.333-3.452 11.705 11.705 0 0 1-3.452-8.333 11.71 11.71 0 0 1 3.452-8.334 11.706 11.706 0 0 1 8.333-3.446c3.152 0 6.112 1.224 8.334 3.446a11.706 11.706 0 0 1 3.446 8.334c0 3.151-1.224 6.11-3.447 8.333a11.703 11.703 0 0 1-8.333 3.452zm0 85.766a9.722 9.722 0 0 0-6.919 2.861 9.722 9.722 0 0 0-2.866 6.919 9.719 9.719 0 0 0 2.866 6.919 9.717 9.717 0 0 0 6.919 2.866 9.72 9.72 0 0 0 6.919-2.866c3.794-3.794 3.86-9.914.175-13.714l-.168-.138c-1.836-1.836-4.295-2.847-6.926-2.847zm0 21.565a11.703 11.703 0 0 1-8.333-3.452 11.705 11.705 0 0 1-3.452-8.333c0-3.147 1.226-6.107 3.452-8.333a11.707 11.707 0 0 1 8.333-3.447c3.109 0 6.022 1.176 8.222 3.316l.003.001.178.147a11.59 11.59 0 0 1 3.412 8.331 11.803 11.803 0 0 1-3.482 8.318 11.703 11.703 0 0 1-8.333 3.452z"/><path fill="#DEDEDD" d="M111.745 113.179l59.931-59.898c-9.174 1.598-17.621 5.964-24.341 12.684l-45.131 45.131h7.482l2.059 2.083m-16.959 4.14l52.549 52.549c6.72 6.72 15.167 11.086 24.341 12.684l-65.265-65.233H94.786"/><path fill="#475059" d="M58.25 157.67c-3.53 0-7.059 1.343-9.747 4.03-5.374 5.375-5.374 14.121 0 19.496 5.375 5.374 14.12 5.374 19.496 0a13.696 13.696 0 0 0 4.037-9.748c0-3.681-1.434-7.143-4.037-9.747a13.748 13.748 0 0 0-9.749-4.031zm.001 29.557a15.735 15.735 0 0 1-11.162-4.617c-6.154-6.155-6.154-16.169 0-22.324 6.155-6.154 16.17-6.153 22.324.001a15.683 15.683 0 0 1 4.623 11.161c0 4.217-1.642 8.181-4.623 11.162a15.735 15.735 0 0 1-11.162 4.617zm0-136.896a13.7 13.7 0 0 0-9.748 4.038 13.699 13.699 0 0 0-4.037 9.748c0 3.682 1.434 7.144 4.037 9.747a13.696 13.696 0 0 0 9.748 4.038c3.682 0 7.144-1.434 9.748-4.038a13.696 13.696 0 0 0 4.037-9.748c0-3.681-1.434-7.143-4.037-9.747a13.7 13.7 0 0 0-9.748-4.038zm0 29.571a15.68 15.68 0 0 1-11.162-4.624 15.681 15.681 0 0 1-4.623-11.161c0-4.217 1.642-8.181 4.623-11.162a15.686 15.686 0 0 1 11.162-4.624c4.217 0 8.18 1.643 11.162 4.624a15.681 15.681 0 0 1 4.623 11.161c0 4.217-1.642 8.181-4.623 11.162a15.682 15.682 0 0 1-11.162 4.624z"/><path fill="#475059" d="M182.018 187.233h-2.415c-13.258 0-25.722-5.163-35.097-14.537L47.089 75.278l1.414-1.414 97.417 97.418c8.411 8.41 19.412 13.288 31.205 13.889l-69.886-69.852H93.138L56.896 79.077l1.414-1.414 35.657 35.656h14.1l73.951 73.914"/><path fill="#475059" d="M59.273 157.165l-1.414-1.414 31.188-31.189h9.889v2h-9.061l-30.602 30.603M111.949 118.591l-1.414-1.414 66.59-66.558c-11.793.601-22.794 5.479-31.205 13.889L95.519 114.91l-1.414-1.414 50.401-50.402c9.375-9.374 21.839-14.537 35.097-14.537h2.415l-70.069 70.034M50.175 160.254l-1.414-1.414 41.594-41.594 1.414 1.414-41.594 41.594M102.603 119.37a1.001 1.001 0 0 0 0 2 1 1 0 0 0 0-2zm0 4c-1.654 0-3-1.346-3-3s1.346-3 3-3c1.655 0 3 1.346 3 3s-1.345 3-3 3zM58.251 54.337a9.717 9.717 0 0 0-6.919 2.86 9.723 9.723 0 0 0-2.866 6.92 9.722 9.722 0 0 0 2.866 6.919 9.717 9.717 0 0 0 6.919 2.866 9.72 9.72 0 0 0 6.919-2.866c3.816-3.815 3.816-10.023.001-13.839a9.718 9.718 0 0 0-6.92-2.86zm0 21.565a11.703 11.703 0 0 1-8.333-3.452 11.705 11.705 0 0 1-3.452-8.333 11.71 11.71 0 0 1 3.452-8.334 11.706 11.706 0 0 1 8.333-3.446c3.152 0 6.112 1.224 8.334 3.446a11.706 11.706 0 0 1 3.446 8.334c0 3.151-1.224 6.11-3.447 8.333a11.703 11.703 0 0 1-8.333 3.452zm0 85.766a9.722 9.722 0 0 0-6.919 2.861 9.722 9.722 0 0 0-2.866 6.919 9.719 9.719 0 0 0 2.866 6.919 9.717 9.717 0 0 0 6.919 2.866 9.72 9.72 0 0 0 6.919-2.866c3.794-3.794 3.86-9.914.175-13.714l-.168-.138c-1.836-1.836-4.295-2.847-6.926-2.847zm0 21.565a11.703 11.703 0 0 1-8.333-3.452 11.705 11.705 0 0 1-3.452-8.333c0-3.147 1.226-6.107 3.452-8.333a11.707 11.707 0 0 1 8.333-3.447c3.109 0 6.022 1.176 8.222 3.316l.003.001.178.147a11.59 11.59 0 0 1 3.412 8.331 11.803 11.803 0 0 1-3.482 8.318 11.703 11.703 0 0 1-8.333 3.452z"/><path fill="#DEDEDD" d="M111.745 113.179l59.931-59.898c-9.174 1.598-17.621 5.964-24.341 12.684l-45.131 45.131h7.482l2.059 2.083"/><path fill="#48515A" d="M107.603 67.307h2v-4h-2zM107.603 77.307h2v-4h-2zM111.603 71.307h4v-2h-4zM101.603 71.307h4v-2h-4zM193.534 153h2v-4h-2zM193.534 163h2v-4h-2zM197.534 157h4v-2h-4zM187.534 157h4v-2h-4z"/><path fill="#FEDE31" d="M150.576 111.796h-.999l-5.994 22.148v.962h6.994l11.006-22.592v-.517l-11.007-.001"/><path fill="#F58E70" d="M140.577 37.001l-9-8.001v105.945h18V29l-9 8.001"/><path fill="#48515A" d="M85.534 195h2v-4h-2zM85.534 205h2v-4h-2zM89.534 199h4v-2h-4zM79.534 199h4v-2h-4z"/><path fill="#F58E70" d="M189.034 96c-9.098 0-16.5 7.402-16.5 16.5 0 9.098 7.402 16.5 16.5 16.5 9.099 0 16.5-7.402 16.5-16.5 0-9.098-7.401-16.5-16.5-16.5zm0 35c-10.201 0-18.5-8.299-18.5-18.5s8.299-18.5 18.5-18.5c10.202 0 18.5 8.299 18.5 18.5s-8.298 18.5-18.5 18.5z"/><path fill="#4F4F4F" d="M184.68 107.56a2.088 2.088 0 0 0-1.816-1.06c-.752 0-1.431.396-1.817 1.06l-1.729-1.006a4.123 4.123 0 0 1 3.546-2.054c1.449 0 2.808.787 3.545 2.054l-1.729 1.006m12.341 0a2.088 2.088 0 0 0-1.817-1.06c-.751 0-1.43.396-1.816 1.06l-1.729-1.006a4.123 4.123 0 0 1 3.545-2.054c1.45 0 2.808.787 3.546 2.054l-1.729 1.006M180.103 115c.539 3.96 4.181 8 8.931 8 4.749 0 8.392-4.04 8.931-8h-17.862zm8.931 10c-5.86 0-11-5.141-11-11v-1h22v1c0 5.859-5.14 11-11 11z"/></g></svg>