<?xml version="1.0" encoding="utf-8"?><svg xmlns="http://www.w3.org/2000/svg" xmlns:xlink="http://www.w3.org/1999/xlink" width="192" height="184" viewBox="0 0 192 184"><defs><path id="pfa" d="M39.749.001c-21.539 0-39 17.461-39 39s17.461 39 39 39c21.54 0 39.001-17.461 39.001-39-.025-21.529-17.471-38.976-39.001-39"/><path id="pfc" d="M.749.04H126.75V128H.749z"/></defs><g fill="none" fill-rule="evenodd"><path fill="#DEDEDD" d="M42.729 90.021h-2v-11H38.73v-2h3.999v13"/><path fill="#DEDEDD" d="M38.729 91.021h6v-2h-6zM49.731 79.021a1.002 1.002 0 0 0-1 1v8c.001.552.448.999 1 1h4a1.002 1.002 0 0 0 1-1v-8a1.002 1.002 0 0 0-1-1h-4zm4 12h-4a3.004 3.004 0 0 1-3-3v-8a3.004 3.004 0 0 1 3-3h4a3.004 3.004 0 0 1 3 3v8a3.004 3.004 0 0 1-3 3zM62.729 90.021h-2v-11H58.73v-2h3.999v13"/><path fill="#DEDEDD" d="M58.729 91.021h6v-2h-6zM69.731 79.021a1.002 1.002 0 0 0-1 1v8c.001.552.448.999 1 1h4a1.002 1.002 0 0 0 1-1v-8a1.002 1.002 0 0 0-1-1h-4zm4 12h-4a3.004 3.004 0 0 1-3-3v-8a3.004 3.004 0 0 1 3-3h4a3.004 3.004 0 0 1 3 3v8a3.004 3.004 0 0 1-3 3zM82.729 90.021h-2v-11H78.73v-2h3.999v13"/><path fill="#DEDEDD" d="M78.729 91.021h6v-2h-6zM90.731 90.021h-2v-11h-1.999v-2h3.999v13"/><path fill="#DEDEDD" d="M86.731 91.021h6v-2h-6zM98.736 90.021h-1.999v-11h-1.999v-2h3.998v13"/><path fill="#DEDEDD" d="M94.736 91.021h6v-2h-6zM105.752 79.021a1.002 1.002 0 0 0-1 1v8c.001.552.448.999 1 1h4c.552-.001 1-.448 1-1v-8c0-.552-.448-.999-1-1h-4zm4 12h-4a3.004 3.004 0 0 1-3-3v-8a3.004 3.004 0 0 1 3-3h4a3.002 3.002 0 0 1 3 3v8a3.002 3.002 0 0 1-3 3zm8.008-12c-.552.001-1 .448-1 1v8c0 .552.448.999 1 1h4a1.002 1.002 0 0 0 1-1v-8a1.002 1.002 0 0 0-1-1h-4zm4 12h-4a3.004 3.004 0 0 1-3-3v-8a3.004 3.004 0 0 1 3-3h4a3.004 3.004 0 0 1 3 3v8a3.004 3.004 0 0 1-3 3zM130.759 90.021h-2v-11h-1.999v-2h3.999v13"/><path fill="#DEDEDD" d="M126.758 91.021h6v-2h-6zM137.772 79.021c-.552.001-1 .448-1 1v8c0 .552.448.999 1 1h4a1.002 1.002 0 0 0 1-1v-8a1.002 1.002 0 0 0-1-1h-4zm4 12h-4a3.002 3.002 0 0 1-3-3v-8a3.002 3.002 0 0 1 3-3h4a3.004 3.004 0 0 1 3 3v8a3.004 3.004 0 0 1-3 3zM150.771 90.021h-2v-11h-2v-2h4v13"/><path fill="#DEDEDD" d="M146.77 91.021h6v-2h-6zM42.717 108.032h-2v-11h-1.999v-2h3.999v13"/><path fill="#DEDEDD" d="M38.717 109.032h6v-2h-6zM58.717 97.032a1.002 1.002 0 0 0-1 1v8c.001.552.448.999 1 1h4c.552-.001 1-.448 1-1v-8c0-.552-.448-.999-1-1h-4zm4 12h-4a3.004 3.004 0 0 1-3-3v-8a3.004 3.004 0 0 1 3-3h4a3.004 3.004 0 0 1 3 3v8a3.004 3.004 0 0 1-3 3zM51.719 108.032h-2v-11H47.72v-2h3.999v13"/><path fill="#DEDEDD" d="M47.719 109.032h6v-2h-6zM70.72 108.032h-2v-11h-2v-2h4v13"/><path fill="#DEDEDD" d="M66.72 109.032h6v-2h-6zM78.726 108.032h-2.001v-11h-2v-2h4.001v13"/><path fill="#DEDEDD" d="M74.724 109.032h6v-2h-6zM85.741 97.032c-.552.001-1 .448-1 1v8c0 .552.448.999 1 1h4a1.002 1.002 0 0 0 1-1v-8a1.002 1.002 0 0 0-1-1h-4zm4 12h-4a3.004 3.004 0 0 1-3-3v-8a3.004 3.004 0 0 1 3-3h4a3.004 3.004 0 0 1 3 3v8a3.004 3.004 0 0 1-3 3zm8.006-12a1.002 1.002 0 0 0-1 1v8c.001.552.449.999 1 1h4.001a1.002 1.002 0 0 0 1-1v-8a1.002 1.002 0 0 0-1-1h-4.001zm4.001 12h-4.001a3.004 3.004 0 0 1-3-3v-8a3.004 3.004 0 0 1 3-3h4.001a3.004 3.004 0 0 1 3 3v8a3.004 3.004 0 0 1-3 3zM110.747 108.032h-2v-11h-1.999v-2h3.999v13"/><path fill="#DEDEDD" d="M106.746 109.032h6v-2h-6zM117.76 97.032c-.552.001-1 .448-1 1v8c0 .552.448.999 1 1h4a1.002 1.002 0 0 0 1-1v-8a1.002 1.002 0 0 0-1-1h-4zm4 12h-4a3.004 3.004 0 0 1-3-3v-8a3.004 3.004 0 0 1 3-3h4a3.004 3.004 0 0 1 3 3v8a3.004 3.004 0 0 1-3 3zM130.759 108.032h-2v-11h-1.999v-2h3.999v13"/><path fill="#DEDEDD" d="M126.758 109.032h6v-2h-6zM137.796 97.032a1.002 1.002 0 0 0-1 1v8c.001.552.448.999 1 1h4a1.002 1.002 0 0 0 1-1v-8a1.002 1.002 0 0 0-1-1h-4zm4 12h-4a3.004 3.004 0 0 1-3-3v-8a3.004 3.004 0 0 1 3-3h4a3.004 3.004 0 0 1 3 3v8a3.004 3.004 0 0 1-3 3zM150.795 108.032h-2v-11h-2v-2h4v13"/><path fill="#DEDEDD" d="M146.794 109.032h6v-2h-6zM54.725 72.01h-2v-11h-2v-2h4v13"/><path fill="#DEDEDD" d="M50.724 73.01h6v-2h-6zM62.729 72.01h-2v-11H58.73v-2h3.999v13"/><path fill="#DEDEDD" d="M58.729 73.01h6v-2h-6zM70.734 72.01h-2v-11h-1.999v-2h3.999v13"/><path fill="#DEDEDD" d="M66.734 73.01h6v-2h-6zM78.739 72.01H76.74v-11h-2v-2h3.999v13"/><path fill="#DEDEDD" d="M74.739 73.01h6v-2h-6zM41.695 61.01c-.552.001-1 .448-1 1v8a1 1 0 0 0 1 1h4c.552 0 .999-.448 1-1v-8a1.002 1.002 0 0 0-1-1h-4zm4 12h-4a3.004 3.004 0 0 1-3-3v-8a3.004 3.004 0 0 1 3-3h4a3.004 3.004 0 0 1 3 3v8a3.004 3.004 0 0 1-3 3zm48.062-12a1.002 1.002 0 0 0-1 1v8c.001.552.448 1 1 1h4a1 1 0 0 0 1-1v-8c0-.552-.448-.999-1-1h-4zm4 12h-4a3.004 3.004 0 0 1-3-3v-8a3.004 3.004 0 0 1 3-3h4a3.003 3.003 0 0 1 3 3v8a3.003 3.003 0 0 1-3 3zM106.757 72.01h-2v-11h-2v-2h4v13"/><path fill="#DEDEDD" d="M102.755 73.01h6v-2h-6zM114.761 72.01h-2v-11h-1.999v-2h3.999v13"/><path fill="#DEDEDD" d="M110.76 73.01h6v-2h-6zM121.774 61.01a1.002 1.002 0 0 0-1 1v8c.001.552.448 1 1 1h4c.552 0 .999-.448 1-1v-8a1.002 1.002 0 0 0-1-1h-4zm4 12h-4a3.004 3.004 0 0 1-3-3v-8a3.004 3.004 0 0 1 3-3h4a3.004 3.004 0 0 1 3 3v8a3.004 3.004 0 0 1-3 3zM134.773 72.01h-2v-11h-1.999v-2h3.999v13"/><path fill="#DEDEDD" d="M130.772 73.01h6v-2h-6zM150.783 72.01h-2v-11h-1.999v-2h3.999v13"/><path fill="#DEDEDD" d="M146.782 73.01h6v-2h-6zM142.778 72.01h-2v-11h-1.999v-2h3.999v13"/><path fill="#DEDEDD" d="M138.777 73.01h6v-2h-6zM42.695 43c-.552 0-.999.448-1 1v8c.001.551.448.999 1 1h4c.552-.001 1-.449 1-1v-8a1 1 0 0 0-1-1h-4zm4 12h-4a3.004 3.004 0 0 1-3-3v-8a3.002 3.002 0 0 1 3-3h4a3.002 3.002 0 0 1 3 3v8a3.004 3.004 0 0 1-3 3zM55.694 54h-2V43h-2v-2h4v13"/><path fill="#DEDEDD" d="M51.694 55h6v-2h-6zM69.731 43c-.552 0-.999.448-1 1v8c.001.551.448.999 1 1h4a1.002 1.002 0 0 0 1-1v-8c-.001-.552-.448-1-1-1h-4zm4 12h-4a3.004 3.004 0 0 1-3-3v-8a3.002 3.002 0 0 1 3-3h4a3.002 3.002 0 0 1 3 3v8a3.004 3.004 0 0 1-3 3zM82.729 54h-2V43H78.73v-2h3.999v13"/><path fill="#DEDEDD" d="M78.729 55h6v-2h-6zM89.767 43c-.552 0-.999.448-1 1v8c.001.551.448.999 1 1h4a1.002 1.002 0 0 0 1-1v-8c-.001-.552-.448-1-1-1h-4zm4 12h-4a3.004 3.004 0 0 1-3-3v-8a3.002 3.002 0 0 1 3-3h4a3.002 3.002 0 0 1 3 3v8a3.004 3.004 0 0 1-3 3zM102.766 54h-2V43h-2v-2h4v13"/><path fill="#DEDEDD" d="M98.765 55h6v-2h-6zM109.767 43c-.552 0-.999.448-1 1v8c.001.551.448.999 1 1h4a1.002 1.002 0 0 0 1-1v-8c-.001-.552-.448-1-1-1h-4zm4 12h-4a3.004 3.004 0 0 1-3-3v-8a3.002 3.002 0 0 1 3-3h4a3.002 3.002 0 0 1 3 3v8a3.004 3.004 0 0 1-3 3zM122.766 54h-2V43h-1.999v-2h3.999v13"/><path fill="#DEDEDD" d="M118.765 55h6v-2h-6zM129.767 43c-.552 0-.999.448-1 1v8c.001.551.448.999 1 1h4a1.002 1.002 0 0 0 1-1v-8c-.001-.552-.448-1-1-1h-4zm4 12h-4a3.004 3.004 0 0 1-3-3v-8a3.002 3.002 0 0 1 3-3h4a3.002 3.002 0 0 1 3 3v8a3.004 3.004 0 0 1-3 3zM142.766 54h-2V43h-1.999v-2h3.999v13"/><path fill="#DEDEDD" d="M138.765 55h6v-2h-6zM150.769 54h-2V43h-2v-2h4v13"/><path fill="#DEDEDD" d="M146.768 55h6v-2h-6zM42.705 35.989h-2v-11h-1.999v-2h3.999v13"/><path fill="#DEDEDD" d="M38.705 36.989h6v-2h-6zM49.719 24.989c-.552.001-1 .448-1 1v8c0 .552.448.999 1 1h4a1.002 1.002 0 0 0 1-1v-8a1.002 1.002 0 0 0-1-1h-4zm4 12h-4a3.004 3.004 0 0 1-3-3v-8a3.004 3.004 0 0 1 3-3h4a3.004 3.004 0 0 1 3 3v8a3.004 3.004 0 0 1-3 3zM62.717 35.989h-2v-11h-1.999v-2h3.999v13"/><path fill="#DEDEDD" d="M58.717 36.989h6v-2h-6zM69.755 24.989a1.002 1.002 0 0 0-1 1v8c.001.552.448.999 1 1h4a1.002 1.002 0 0 0 1-1v-8a1.002 1.002 0 0 0-1-1h-4zm4 12h-4a3.004 3.004 0 0 1-3-3v-8a3.004 3.004 0 0 1 3-3h4a3.004 3.004 0 0 1 3 3v8a3.004 3.004 0 0 1-3 3zM82.753 35.989h-2v-11h-1.999v-2h3.999v13"/><path fill="#DEDEDD" d="M78.753 36.989h6v-2h-6zM89.755 24.989a1.002 1.002 0 0 0-1 1v8c.001.552.448.999 1 1h4a1.002 1.002 0 0 0 1-1v-8a1.002 1.002 0 0 0-1-1h-4zm4 12h-4a3.004 3.004 0 0 1-3-3v-8a3.004 3.004 0 0 1 3-3h4a3.004 3.004 0 0 1 3 3v8a3.004 3.004 0 0 1-3 3zM102.754 35.989h-2v-11h-1.999v-2h3.999v13"/><path fill="#DEDEDD" d="M98.753 36.989h6v-2h-6zM109.755 24.989a1.002 1.002 0 0 0-1 1v8c.001.552.448.999 1 1h4a1.002 1.002 0 0 0 1-1v-8a1.002 1.002 0 0 0-1-1h-4zm4 12h-4a3.004 3.004 0 0 1-3-3v-8a3.004 3.004 0 0 1 3-3h4a3.004 3.004 0 0 1 3 3v8a3.004 3.004 0 0 1-3 3zM122.754 35.989h-2v-11h-1.999v-2h3.999v13"/><path fill="#DEDEDD" d="M118.753 36.989h6v-2h-6zM130.757 35.989h-2v-11h-2v-2h4v13"/><path fill="#DEDEDD" d="M126.755 36.989h6v-2h-6zM138.761 35.989h-2v-11h-1.999v-2h3.999v13"/><path fill="#DEDEDD" d="M134.76 36.989h6v-2h-6zM145.776 24.989a1.002 1.002 0 0 0-1 1v8c.001.552.448.999 1 1h4c.552-.001 1-.448 1-1v-8c0-.552-.448-.999-1-1h-4zm4 12h-4a3.004 3.004 0 0 1-3-3v-8a3.004 3.004 0 0 1 3-3h4a3.003 3.003 0 0 1 3 3v8a3.003 3.003 0 0 1-3 3zM45.726 18.978h-4a3.004 3.004 0 0 1-3-3v-3.977h2v3.977c.001.552.448.999 1 1h4a1.002 1.002 0 0 0 1-1v-3.977h2v3.977a3.004 3.004 0 0 1-3 3M52.725 17.978h2v-5.977h-2z"/><path fill="#DEDEDD" d="M50.724 18.978h6v-2h-6zM60.729 17.978h2v-5.977h-2z"/><path fill="#DEDEDD" d="M58.729 18.978h6v-2h-6zM68.747 17.978h2v-5.977h-2z"/><path fill="#DEDEDD" d="M66.746 18.978h6v-2h-6zM81.747 18.978h-4a3.004 3.004 0 0 1-3-3v-3.977h2v3.977c.001.552.448.999 1 1h4c.552-.001 1-.448 1-1v-3.977h2v3.977a3.002 3.002 0 0 1-3 3M88.747 17.978h2v-5.977h-2z"/><path fill="#DEDEDD" d="M86.746 18.978h6v-2h-6zM96.752 17.978h2v-5.977h-2z"/><path fill="#DEDEDD" d="M94.751 18.978h5.999v-2h-5.999zM104.756 17.978h2v-5.977h-2z"/><path fill="#DEDEDD" d="M102.755 18.978h6v-2h-6zM112.761 17.978h2v-5.977h-2z"/><path fill="#DEDEDD" d="M110.76 18.978h6v-2h-6zM125.774 18.978h-4a3.004 3.004 0 0 1-3-3v-3.977h2v3.977c.001.552.448.999 1 1h4a1.002 1.002 0 0 0 1-1v-3.977h2v3.977a3.004 3.004 0 0 1-3 3M132.773 17.978h2v-5.977h-2z"/><path fill="#DEDEDD" d="M130.772 18.978h6v-2h-6zM148.783 17.978h2v-5.977h-2z"/><path fill="#DEDEDD" d="M146.782 18.978h6v-2h-6zM140.778 17.978h2v-5.977h-2z"/><path fill="#DEDEDD" d="M138.777 18.978h6v-2h-6zM42.705 126.042h-2v-11h-1.999v-2h3.999v13"/><path fill="#DEDEDD" d="M38.705 127.042h6v-2h-6zM50.707 126.042h-2v-11h-1.999v-2h3.999v13"/><path fill="#DEDEDD" d="M46.707 127.042h6v-2h-6zM58.712 126.042h-2v-11h-1.999v-2h3.999v13"/><path fill="#DEDEDD" d="M54.712 127.042h6v-2h-6zM65.729 115.042a1 1 0 0 0-1 1v8a1 1 0 0 0 1 1h3.999c.553 0 1-.448 1.001-1v-8a1.002 1.002 0 0 0-1.001-1h-3.999zm3.999 12h-3.999a3.003 3.003 0 0 1-3.001-3v-8a3.004 3.004 0 0 1 3.001-3h3.999a3.002 3.002 0 0 1 3 3v8a3.001 3.001 0 0 1-3 3zm8.008-12a1.002 1.002 0 0 0-1 1v8c.001.552.448 1 1 1h4c.552 0 .999-.448 1-1v-8a1.002 1.002 0 0 0-1-1h-4zm4 12h-4a3.002 3.002 0 0 1-3-3v-8a3.004 3.004 0 0 1 3-3h4a3.004 3.004 0 0 1 3 3v8a3.002 3.002 0 0 1-3 3zM90.734 126.042h-2v-11h-1.999v-2h3.999v13"/><path fill="#DEDEDD" d="M86.734 127.042h6v-2h-6zM97.747 115.042a1.002 1.002 0 0 0-1 1v8c.001.552.449 1 1 1h4.001c.551 0 .999-.448 1-1v-8a1.002 1.002 0 0 0-1-1h-4.001zm4.001 12h-4.001a3.002 3.002 0 0 1-3-3v-8a3.004 3.004 0 0 1 3-3h4.001a3.004 3.004 0 0 1 3 3v8a3.002 3.002 0 0 1-3 3zM110.747 126.042h-2v-11h-1.999v-2h3.999v13"/><path fill="#DEDEDD" d="M106.746 127.042h6v-2h-6zM117.784 115.042c-.552.001-1 .448-1 1v8a1 1 0 0 0 1 1h4c.552 0 .999-.448 1-1v-8a1.002 1.002 0 0 0-1-1h-4zm4 12h-4a3.002 3.002 0 0 1-3-3v-8a3.003 3.003 0 0 1 3-3h4a3.004 3.004 0 0 1 3 3v8a3.002 3.002 0 0 1-3 3zM130.783 126.042h-2v-11h-1.999v-2h3.999v13"/><path fill="#DEDEDD" d="M126.782 127.042h6v-2h-6zM137.784 115.042c-.552.001-1 .448-1 1v8a1 1 0 0 0 1 1h4c.552 0 .999-.448 1-1v-8a1.002 1.002 0 0 0-1-1h-4zm4 12h-4a3.002 3.002 0 0 1-3-3v-8a3.003 3.003 0 0 1 3-3h4a3.004 3.004 0 0 1 3 3v8a3.002 3.002 0 0 1-3 3zM150.783 126.042h-2v-11h-1.999v-2h3.999v13"/><path fill="#DEDEDD" d="M146.782 127.042h6v-2h-6zM86.744 72.01h-2v-11h-2v-2h4v13"/><path fill="#DEDEDD" d="M82.744 73.01h6v-2h-6zM63.718 54h-2V43h-2v-2h4v13"/><path fill="#DEDEDD" d="M59.718 55h6v-2h-6z"/><path fill="#475059" d="M89.999 147h-64.5a5.005 5.005 0 0 1-5-5V50a5.005 5.005 0 0 1 5-5h5.084v2h-5.084a3.002 3.002 0 0 0-3 3v92a3.002 3.002 0 0 0 3 3h64.5v2m75.5 0H101.75v-2h63.749a3.002 3.002 0 0 0 3-3V50a3.002 3.002 0 0 0-3-3h-4.75v-2h4.75a5.005 5.005 0 0 1 5 5v92a5.005 5.005 0 0 1-5 5"/><path fill="#475059" d="M89.832 169.002H74.498l.013-3.08 2.988-18.17V145h12.083v2H79.499l-.012.996-2.989 18.17v.836h13.334v2M116.5 169.002h-14.75v-2h12.75v-.835L111.498 148v-1h-9.831v-2h11.831v2.918l3.002 18.167v2.917"/><path fill="#475059" d="M101.832 169h19.667v-2h-19.667zM69.499 169h20.5v-2h-20.5z"/><path fill="#DEDEDD" d="M78.717 165.002h33.562l-2.656-16.001H81.349l-2.632 16.001M24.499 130.001v12c.001.552.448.999 1 1h140a1.002 1.002 0 0 0 1-1v-12h-142"/><path fill="#48515A" d="M6 85.001h2v-4H6zM6 95.001h2v-4H6zM10 89.001h4v-2h-4zM0 89.001h4v-2H0zM183.499 151h2v-4h-2zM183.499 161h2v-4h-2zM187.499 155h4v-2h-4zM177.499 155h4v-2h-4zM183.499 87.001h2v-4h-2zM183.499 97.001h2v-4h-2zM187.499 91.001h4v-2h-4zM177.499 91.001h4v-2h-4z"/><path fill="#FFD15D" d="M9.936 62.137a2.438 2.438 0 1 1 0 4.876 2.438 2.438 0 0 1 0-4.876"/><path fill="#FFD15D" d="M9.937 62.637a1.938 1.938 0 1 0 0 3.876 1.938 1.938 0 0 0 0-3.876zm0 4.876a2.938 2.938 0 1 1-.001-5.875 2.938 2.938 0 0 1 .001 5.875z"/><path fill="#5FE0ED" d="M167.312 25a2.438 2.438 0 1 1 0 4.876 2.438 2.438 0 0 1 0-4.876"/><path fill="#DEDEDD" d="M15.466 119.055a2 2 0 1 1 .001 3.999 2 2 0 0 1-.001-3.999m126.033 37.946a2 2 0 1 1 0 4 2 2 0 0 1 0-4"/><path fill="#48515A" d="M158.499 162a2 2 0 1 0 0 4 2 2 0 0 0 0-4zm0 6a4 4 0 1 1 0-8 4 4 0 0 1 0 8zM46.499 167h-2v-7h-1v-2h3v9"/><path fill="#48515A" d="M43.499 168h4v-2h-4zM182.5 49h-2v-7h-1v-2h3v9"/><path fill="#48515A" d="M179.499 50.001h4v-2h-4zM55.499 152.001c-.552 0-.999.448-1 1v4.001a1 1 0 0 0 2 0v-4.001c-.001-.552-.448-1-1-1.001v.001zm0 8.001a3.004 3.004 0 0 1-3-3v-4.001a3 3 0 1 1 6 0v4.001a3.004 3.004 0 0 1-3 3zm121.995-33.967a1.002 1.002 0 0 0-1 1v4.002a1 1 0 0 0 2 0v-4.002a1.002 1.002 0 0 0-1-1zm0 8.002a3.004 3.004 0 0 1-3-3v-4.002a3 3 0 1 1 6 0v4.002a3.004 3.004 0 0 1-3 3z"/><path fill="#DEDEDD" d="M36.75 10.001h118v-6h-118z"/><path fill="#48515A" d="M95.749 29.001c-22.643 0-41 18.356-41 41s18.357 41 41 41c22.644 0 41.001-18.356 41.001-41-.026-22.633-18.367-40.974-41.001-41zm0 84c-23.748 0-43-19.252-43-43s19.252-43 43-43c23.749 0 43.001 19.252 43.001 43-.027 23.737-19.263 42.973-43.001 43z"/><path fill="#48515A" d="M96.749 135.029h2V112h-2zM92.749 135.029h2V112h-2z"/><path fill="#48515A" d="M93.749 136.029V180a2 2 0 0 0 4 0v-43.971h-4zm2 47.971a4.005 4.005 0 0 1-4-4v-45.971h8V180a4.004 4.004 0 0 1-4 4z"/><g transform="translate(56 31)"><mask id="pfb" fill="#fff"><use xlink:href="#pfa"/></mask><path fill="#48515A" mask="url(#pfb)" d="M6.729 59.021h-2v-11H2.73v-2h3.999v13"/><path fill="#48515A" mask="url(#pfb)" d="M2.729 60.021h6v-2h-6zM13.731 48.021a1.002 1.002 0 0 0-1 1v8c.001.552.448.999 1 1h4a1.002 1.002 0 0 0 1-1v-8a1.002 1.002 0 0 0-1-1h-4zm4 12h-4a3.004 3.004 0 0 1-3-3v-8a3.004 3.004 0 0 1 3-3h4a3.004 3.004 0 0 1 3 3v8a3.004 3.004 0 0 1-3 3zM26.729 59.021h-2v-11H22.73v-2h3.999v13"/><path fill="#48515A" mask="url(#pfb)" d="M22.729 60.021h6v-2h-6zM34.731 59.021h-2v-11h-1.999v-2h3.999v13"/><path fill="#48515A" mask="url(#pfb)" d="M30.731 60.021h6v-2h-6zM42.736 59.021h-1.999v-11h-1.999v-2h3.998v13"/><path fill="#48515A" mask="url(#pfb)" d="M38.736 60.021h6v-2h-6zM49.752 48.021a1.002 1.002 0 0 0-1 1v8c.001.552.448.999 1 1h4c.552-.001 1-.448 1-1v-8c0-.552-.448-.999-1-1h-4zm4 12h-4a3.004 3.004 0 0 1-3-3v-8a3.004 3.004 0 0 1 3-3h4a3.002 3.002 0 0 1 3 3v8a3.002 3.002 0 0 1-3 3zm8.008-12c-.552.001-1 .448-1 1v8c0 .552.448.999 1 1h4a1.002 1.002 0 0 0 1-1v-8a1.002 1.002 0 0 0-1-1h-4zm4 12h-4a3.004 3.004 0 0 1-3-3v-8a3.004 3.004 0 0 1 3-3h4a3.004 3.004 0 0 1 3 3v8a3.004 3.004 0 0 1-3 3zM74.759 59.021h-2v-11H70.76v-2h3.999v13"/><path fill="#48515A" mask="url(#pfb)" d="M70.758 60.021h6v-2h-6zM14.72 77.032h-2v-11h-2v-2h4v13"/><path fill="#48515A" mask="url(#pfb)" d="M10.72 78.001h6v-1.969h-6zM22.726 77.032h-2.001v-11h-2v-2h4.001v13"/><path fill="#48515A" mask="url(#pfb)" d="M18.724 78.001h6v-1.969h-6zM29.741 66.032c-.552.001-1 .448-1 1v8c0 .552.448.999 1 1h4a1.002 1.002 0 0 0 1-1v-8a1.002 1.002 0 0 0-1-1h-4zm4 12h-4a3.004 3.004 0 0 1-3-3v-8a3.004 3.004 0 0 1 3-3h4a3.004 3.004 0 0 1 3 3v8a3.004 3.004 0 0 1-3 3zm8.006-12a1.002 1.002 0 0 0-1 1v8c.001.552.449.999 1 1h4.001a1.002 1.002 0 0 0 1-1v-8a1.002 1.002 0 0 0-1-1h-4.001zm4.001 12h-4.001a3.004 3.004 0 0 1-3-3v-8a3.004 3.004 0 0 1 3-3h4.001a3.004 3.004 0 0 1 3 3v8a3.004 3.004 0 0 1-3 3zM54.747 79.033h-2V66.032h-1.999v-2h3.999v15.001M61.76 66.032c-.552.001-1 .448-1 1v8c0 .552.448.999 1 1h4a1.002 1.002 0 0 0 1-1v-8a1.002 1.002 0 0 0-1-1h-4zm4 12h-4a3.004 3.004 0 0 1-3-3v-8a3.004 3.004 0 0 1 3-3h4a3.004 3.004 0 0 1 3 3v8a3.004 3.004 0 0 1-3 3zM6.729 41.01h-2v-11H2.73v-2h3.999v13"/><path fill="#48515A" mask="url(#pfb)" d="M2.729 42.01h6v-2h-6zM14.734 41.01h-2v-11h-1.999v-2h3.999v13"/><path fill="#48515A" mask="url(#pfb)" d="M10.734 42.01h6v-2h-6zM22.739 41.01H20.74v-11h-2v-2h3.999v13"/><path fill="#48515A" mask="url(#pfb)" d="M18.739 42.01h6v-2h-6zM37.757 30.01a1.002 1.002 0 0 0-1 1v8c.001.552.448 1 1 1h4a1 1 0 0 0 1-1v-8c0-.552-.448-.999-1-1h-4zm4 12h-4a3.004 3.004 0 0 1-3-3v-8a3.004 3.004 0 0 1 3-3h4a3.003 3.003 0 0 1 3 3v8a3.003 3.003 0 0 1-3 3zM50.757 41.01h-2v-11h-2v-2h4v13"/><path fill="#48515A" mask="url(#pfb)" d="M46.755 42.01h6v-2h-6zM58.761 41.01h-2v-11h-1.999v-2h3.999v13"/><path fill="#48515A" mask="url(#pfb)" d="M54.76 42.01h6v-2h-6zM65.774 30.01a1.002 1.002 0 0 0-1 1v8c.001.552.448 1 1 1h4c.552 0 .999-.448 1-1v-8a1.002 1.002 0 0 0-1-1h-4zm4 12h-4a3.004 3.004 0 0 1-3-3v-8a3.004 3.004 0 0 1 3-3h4a3.004 3.004 0 0 1 3 3v8a3.004 3.004 0 0 1-3 3zM78.773 41.01h-2v-11h-1.999v-2h3.999v13"/><path fill="#48515A" mask="url(#pfb)" d="M74.772 42.01h3.978v-2h-3.978zM13.731 12c-.552 0-.999.448-1 1v8c.001.551.448.999 1 1h4a1.002 1.002 0 0 0 1-1v-8c-.001-.552-.448-1-1-1h-4zm4 12h-4a3.004 3.004 0 0 1-3-3v-8a3.002 3.002 0 0 1 3-3h4a3.002 3.002 0 0 1 3 3v8a3.004 3.004 0 0 1-3 3zM26.729 23h-2V12H22.73v-2h3.999v13"/><path fill="#48515A" mask="url(#pfb)" d="M22.729 24h6v-2h-6zM33.767 12c-.552 0-.999.448-1 1v8c.001.551.448.999 1 1h4a1.002 1.002 0 0 0 1-1v-8c-.001-.552-.448-1-1-1h-4zm4 12h-4a3.004 3.004 0 0 1-3-3v-8a3.002 3.002 0 0 1 3-3h4a3.002 3.002 0 0 1 3 3v8a3.004 3.004 0 0 1-3 3zM46.766 23h-2V12h-2v-2h4v13"/><path fill="#48515A" mask="url(#pfb)" d="M42.765 24h6v-2h-6zM53.767 12c-.552 0-.999.448-1 1v8c.001.551.448.999 1 1h4a1.002 1.002 0 0 0 1-1v-8c-.001-.552-.448-1-1-1h-4zm4 12h-4a3.004 3.004 0 0 1-3-3v-8a3.002 3.002 0 0 1 3-3h4a3.002 3.002 0 0 1 3 3v8a3.004 3.004 0 0 1-3 3zM66.766 23h-2V12h-1.999v-2h3.999v13"/><path fill="#48515A" mask="url(#pfb)" d="M62.765 24h6v-2h-6zM73.767 12c-.552 0-.999.448-1 1v8c.001.551.448.999 1 1h4a1.002 1.002 0 0 0 1-1v-8c-.001-.552-.448-1-1-1h-4zm4 12h-4a3.004 3.004 0 0 1-3-3v-8a3.002 3.002 0 0 1 3-3h4a3.002 3.002 0 0 1 3 3v8a3.004 3.004 0 0 1-3 3zM13.755-6.011a1.002 1.002 0 0 0-1 1v8c.001.552.448.999 1 1h4a1.002 1.002 0 0 0 1-1v-8a1.002 1.002 0 0 0-1-1h-4zm4 12h-4a3.004 3.004 0 0 1-3-3v-8a3.004 3.004 0 0 1 3-3h4a3.004 3.004 0 0 1 3 3v8a3.004 3.004 0 0 1-3 3zM26.753 4.989h-2v-11h-1.999v-2h3.999v13"/><path fill="#48515A" mask="url(#pfb)" d="M22.753 5.989h6v-2h-6zM33.755-6.011a1.002 1.002 0 0 0-1 1v8c.001.552.448.999 1 1h4a1.002 1.002 0 0 0 1-1v-8a1.002 1.002 0 0 0-1-1h-4zm4 12h-4a3.004 3.004 0 0 1-3-3v-8a3.004 3.004 0 0 1 3-3h4a3.004 3.004 0 0 1 3 3v8a3.004 3.004 0 0 1-3 3zM46.754 4.989h-2v-11h-1.999v-2h3.999v13"/><path fill="#48515A" mask="url(#pfb)" d="M42.753 5.989h6v-2h-6zM53.755-6.011a1.002 1.002 0 0 0-1 1v8c.001.552.448.999 1 1h4a1.002 1.002 0 0 0 1-1v-8a1.002 1.002 0 0 0-1-1h-4zm4 12h-4a3.004 3.004 0 0 1-3-3v-8a3.004 3.004 0 0 1 3-3h4a3.004 3.004 0 0 1 3 3v8a3.004 3.004 0 0 1-3 3zM30.744 41.01h-2v-11h-2v-2h4v13"/><path fill="#48515A" mask="url(#pfb)" d="M26.744 42.01h6v-2h-6zM7.718 23h-2V12h-2v-2h4v13"/><path fill="#48515A" mask="url(#pfb)" d="M3.718 24h6v-2h-6z"/></g><g transform="translate(32)"><mask id="pfd" fill="#fff"><use xlink:href="#pfc"/></mask><path fill="#475059" mask="url(#pfd)" d="M126.75 128h-2V2H2.749v126h-2V0H126.75v128"/></g><path fill="#F58E70" d="M24.187 157a2.438 2.438 0 1 1 0 4.876 2.438 2.438 0 0 1 0-4.876"/></g></svg>