<?xml version="1.0" encoding="utf-8"?><svg xmlns="http://www.w3.org/2000/svg" width="250" height="250" viewBox="0 0 250 250"><g fill="none" fill-rule="evenodd"><path fill="#2B2B2B" d="M174.675 162.068"/><path fill="#DFE0E0" d="M135.944 141.294c.165-.64.17-1.311.014-1.953l-2.521-10.343c0-1.522 1.234-2.706 2.757-2.706h5.433c-1.523 0-2.757 1.184-2.757 2.706l2.521 10.368a3.972 3.972 0 0 1-.014 1.941l-1.405 4.363c-.811 3.143-3.64 5.332-7.169 5.332v-2.528c1.177-.798 1.461-1.748 1.736-2.81l1.405-4.37m20.611-23.235h.236a4.12 4.12 0 0 1 4.129 4.339c-.117 2.236-2.124 3.894-4.363 3.894h-5.434c2.24 0 4.247-1.658 4.364-3.894a4.12 4.12 0 0 0-4.129-4.339h-.236c2.239 0 4.246-1.746 4.363-3.982.118-2.245-1.557-4.16-3.721-4.372a81.656 81.656 0 0 0-1.787-.017c2.532 0 4.243-2.308 3.777-4.922-.351-1.974-2.131-3.334-4.483-3.381v-.212c2.352-.564 3.228-2.098 3.127-4.027-.117-2.236-1.834-3.788-4.073-3.788h2.716c2.24 0 4.247 1.658 4.364 3.894a4.12 4.12 0 0 1-4.129 4.339h3.9c2.04 0 3.944 1.262 4.301 3.272.466 2.614-1.535 4.86-4.067 4.86.138 0 1.653-.039 1.788-.026 2.163.212 3.838 2.148 3.72 4.393-.117 2.236-2.124 3.969-4.363 3.969"/><path fill="#5FE0ED" d="M93.988 128.645h22.348v-37.64H93.988z"/><path fill="#48515A" d="M133.08 152.005l-.287-.003a1 1 0 0 1-.989-1v-8.114l-1.354-4.214-2.908-8.098-1.363-3.48c-.327-.853-1.148-.98-1.607-.98h-8.236a1 1 0 1 1 0-2h8.236c1.607 0 2.937.864 3.472 2.257l1.369 3.497 2.932 8.162 1.411 4.394c.031.098.048.202.048.305v7.233c2.57-.295 4.858-2.15 5.477-4.544l1.128-4.363c.124-.482.127-.972.011-1.455l-2.522-10.368a1.036 1.036 0 0 1-.028-.236c0-2.078 1.651-3.706 3.757-3.706h14.93c1.77 0 3.279-1.322 3.364-2.947a3.085 3.085 0 0 0-.847-2.31 3.117 3.117 0 0 0-2.283-.976h-.236a1 1 0 1 1 0-2c1.768 0 3.278-1.356 3.364-3.021.089-1.684-1.176-3.184-2.819-3.346-.134-.003-.803.013-1.25.023l-.239.005a4.433 4.433 0 0 1-.201.004 1 1 0 1 1 0-2l.13-.003a3.134 3.134 0 0 0 2.285-1.118c.598-.714.835-1.624.668-2.566-.286-1.605-1.886-2.446-3.317-2.446h-3.901a1 1 0 1 1 0-2c.874 0 1.685-.347 2.283-.977a3.09 3.09 0 0 0 .848-2.31c-.085-1.624-1.594-2.947-3.365-2.947h-11.724c-6.079 0-11.688.842-16.671 2.503a1 1 0 0 1-.902-.136l-.017-.014h-5.391a1 1 0 1 1 0-2h5.993a.98.98 0 0 1 .312.05c5.028-1.595 10.634-2.403 16.676-2.403h11.724c2.865 0 5.221 2.127 5.363 4.842a5.07 5.07 0 0 1-1.054 3.395c2.564.073 4.699 1.772 5.112 4.094a5.124 5.124 0 0 1-1.397 4.52 5.192 5.192 0 0 1 2.852 4.935c-.082 1.564-.917 2.96-2.15 3.861.272.192.526.411.757.655a5.07 5.07 0 0 1 1.395 3.791c-.143 2.715-2.498 4.842-5.362 4.842h-14.93c-.948 0-1.698.694-1.754 1.6l2.49 10.238c.196.808.19 1.624-.017 2.427l-1.129 4.363c-.91 3.525-4.332 6.085-8.137 6.085"/><path fill="#48515A" d="M156.328 119.059h-5.881a1 1 0 0 1 0-2h5.881a1 1 0 1 1 0 2m0-8.234h-5.881a1 1 0 1 1 0-2h5.881a1 1 0 1 1 0 2m-4.705-8.234h-1.176a1 1 0 1 1 0-2h1.176a1 1 0 1 1 0 2m-5.603 20.679c-.27 0-.52-.11-.71-.291a.995.995 0 0 1-.3-.709c0-.13.03-.26.08-.39.05-.12.12-.231.22-.32.089-.09.2-.17.32-.22a1.02 1.02 0 0 1 1.09.22c.19.19.3.45.3.71 0 .129-.03.26-.081.379a1.137 1.137 0 0 1-.219.33c-.09.09-.2.161-.321.21-.129.051-.25.081-.379.081m-.01-8.27c-.13 0-.26-.03-.38-.08a.866.866 0 0 1-.32-.22.995.995 0 0 1-.3-.7c0-.13.03-.26.08-.391a.88.88 0 0 1 .22-.319c.04-.05.089-.09.15-.12.05-.04.109-.07.17-.101.059-.019.12-.039.189-.049a1 1 0 0 1 .901.27c.09.09.17.2.219.319.051.131.071.25.071.391 0 .13-.02.26-.071.38-.049.12-.129.229-.219.32a1 1 0 0 1-.71.3m0-8.271a.976.976 0 0 1-.7-.299.878.878 0 0 1-.22-.321.991.991 0 0 1-.08-.38c0-.129.03-.259.08-.389.05-.12.12-.231.22-.32.37-.371 1.04-.371 1.41 0 .09.089.17.2.219.32.051.13.071.26.071.389 0 .13-.02.261-.071.38a1 1 0 0 1-.219.321.998.998 0 0 1-.71.299m.01-8.149c-.14 0-.27-.03-.39-.08a.866.866 0 0 1-.32-.22.994.994 0 0 1-.3-.7 1 1 0 0 1 .3-.71c.089-.09.2-.17.32-.221.37-.149.809-.059 1.09.221.19.19.29.44.29.71 0 .26-.1.51-.29.7-.19.19-.44.3-.7.3M115.336 128.645h2v-37.64h-2z"/><path fill="#F58E70" d="M164.835 198.5a1 1 0 1 1-2 0 1 1 0 0 1 2 0"/><path fill="#5FE0ED" d="M183.284 80.209c-3.43-7.592-8.318-14.355-14.531-20.102a60.618 60.618 0 0 0-2.312-2.123C154.929 47.999 140.17 42.5 124.881 42.5c-5.875 0-11.671.82-17.236 2.387l-.078.023a63.203 63.203 0 0 0-3.22 1.01c-.348.118-.694.238-1.039.361a63.98 63.98 0 0 0-2.208.848c-1.028.41-2.041.853-3.046 1.317-.212.099-.427.191-.638.292-5.143 2.444-9.979 5.56-14.341 9.343-5.564 4.826-10.162 10.558-13.713 17.037a64.058 64.058 0 0 0-8.847 32.559v57.234c0 8.843 2.991 20.14 3.051 21.043H99.65l-1.163-4.657a131.358 131.358 0 0 0-7.583-21.922c-4.848-11.96-10.243-22.466-13.953-29.651l-.231-.449a57.202 57.202 0 0 1-4.199-10.67c-3.68-12.99-2.579-26.753 3.398-38.452a54.21 54.21 0 0 1 4.258-6.975 53.307 53.307 0 0 1 8.366-9.175 55.564 55.564 0 0 1 2.849-2.293c.185-.14.369-.281.555-.419a55.813 55.813 0 0 1 2.913-2.01c.163-.105.33-.205.495-.308.961-.603 1.929-1.198 2.933-1.726.096-.05.189-.107.284-.158a56.226 56.226 0 0 1 3.837-1.867 56.373 56.373 0 0 1 3.328-1.352c.111-.04.223-.075.333-.115a55.995 55.995 0 0 1 3.303-1.07c.141-.041.28-.086.421-.125a55.8 55.8 0 0 1 3.505-.862c.198-.042.397-.081.596-.121a55.183 55.183 0 0 1 3.651-.621 55.758 55.758 0 0 1 7.335-.487c13.371 0 26.276 4.806 36.338 13.535l.162.141-.031.037.064.053.04.034a.12.12 0 0 0 .018.015l.011.009.031.027.05.043.029.025c.59.505 1.158 1.023 1.722 1.545 5.44 5.024 9.715 10.931 12.706 17.555 3.176 7.037 4.055 14.969 2.629 22.625h8.072c1.352-8.79.209-17.826-3.438-25.904"/><path fill="#475059" d="M99.323 212.5h-2v-5.312c-.01-27.181-16.91-59.902-25.032-75.626-8.888-17.209-9.19-37.275-.812-53.676 3.459-6.769 8.1-12.706 13.797-17.649 10.97-9.513 25.036-14.753 39.605-14.753 14.569 0 28.635 5.24 39.604 14.753a60.086 60.086 0 0 1 2.221 2.042c5.929 5.479 10.591 11.924 13.857 19.159 4.828 10.694 4.981 23.195.419 34.297a16.563 16.563 0 0 0-1.261 6.308c0 1.066.115 2.174.342 3.291a16.489 16.489 0 0 0 2.603 6.135l6.982 10.083c.521.618.837 1.492.837 2.388a3.834 3.834 0 0 1-2.627 3.644l-5.183 1.729a2.075 2.075 0 0 0-1.421 1.97c0 .846.195 2.05 1.128 2.982l.293.293v2.011c0 1.662-1.112 2.842-2.907 3.185.048 1.042.064 2.257-.081 2.758-.393 1.353-1.314 2.118-2.054 2.733-.713.592-1.003.875-1.005 1.299l-.017 6.646c-.013 4.846-3.96 8.789-8.798 8.789h-15.247a5.16 5.16 0 0 0-5.153 5.092l3.078 24.1v1.327h-2v-1.264l-3.078-24.101c0-3.945 3.209-7.154 7.153-7.154h15.247c3.738 0 6.789-3.048 6.798-6.794l.017-6.649c.005-1.4.96-2.193 1.727-2.83.612-.508 1.189-.987 1.412-1.752.069-.315.031-1.826-.05-3.031l-.071-1.053 1.055-.015c.901-.012 1.974-.246 1.974-1.286v-1.207c-.919-1.077-1.421-2.508-1.421-4.079a4.07 4.07 0 0 1 2.788-3.867l5.184-1.728a1.841 1.841 0 0 0 .832-2.926l-7.037-10.155a18.448 18.448 0 0 1-2.917-6.875 18.554 18.554 0 0 1-.383-3.689c0-2.408.474-4.785 1.412-7.067 4.352-10.596 4.21-22.521-.393-32.716-3.156-6.991-7.665-13.222-13.399-18.519a65.439 65.439 0 0 0-1.857-1.663l-.213-.181.031-.038-.128-.111c-10.606-9.198-24.205-14.264-38.293-14.264-14.088 0-27.688 5.066-38.294 14.265-5.502 4.772-9.985 10.508-13.326 17.047-8.087 15.828-7.785 35.211.807 51.848 8.195 15.865 25.245 48.877 25.255 76.544v5.312"/><path fill="#48515A" d="M213 189.5h2v-4h-2zM213 199.5h2v-4h-2zM217 193.5h4v-2h-4zM207 193.5h4v-2h-4zM35 141.5h2v-4h-2zM35 151.5h2v-4h-2zM39 145.5h4v-2h-4zM29 145.5h4v-2h-4zM191 41.5h2v-4h-2zM191 51.5h2v-4h-2zM195 45.5h4v-2h-4zM185 45.5h4v-2h-4z"/><path fill="#5FE0ED" d="M210.317 133.773a3.317 3.317 0 1 1-6.634 0 3.317 3.317 0 0 1 6.634 0m-154.5-68.286a3.317 3.317 0 1 1-6.634 0 3.317 3.317 0 0 1 6.634 0"/><path fill="#F58E70" d="M164.835 198.5a1 1 0 1 1-2 0 1 1 0 0 1 2 0M54.5 185.5a2 2 0 1 1-3.999.001 2 2 0 0 1 3.999-.001"/></g></svg>