<?xml version="1.0" encoding="utf-8"?><svg xmlns="http://www.w3.org/2000/svg" width="250" height="250" viewBox="0 0 250 250"><g fill="none" fill-rule="evenodd"><path fill="#FACD60" d="M130.081 168.995h-10V215a5 5 0 1 0 10 0v-46.005"/><path fill="#75C7D0" d="M124 53.001c-21.504 0-39 17.495-39 39 0 21.504 17.496 39 39 39 21.505 0 39-17.496 39-39 0-21.505-17.495-39-39-39"/><path fill="#434A4F" d="M124.08 36c-30.878 0-56 25.122-56 56s25.122 56 56 56 56-25.122 56-56-25.122-56-56-56zm0 114c-31.981 0-58-26.019-58-58s26.019-58 58-58c31.982 0 58 26.019 58 58s-26.018 58-58 58z"/><path fill="#434A4F" d="M122.08 161.968h2v-12.961h-2zM126.08 161.968h2v-12.961h-2z"/><path fill="#434A4F" d="M121.081 162.996V215c0 2.206 1.794 4 4 4 2.205 0 4-1.794 4-4v-52.004h-8zm4 58.004c-3.309 0-6-2.691-6-6v-54.004h12V215c0 3.309-2.692 6-6 6zM124.08 42c-27.57 0-50 22.43-50 50 0 13.355 5.201 25.912 14.645 35.355 9.444 9.444 22 14.645 35.355 14.645 27.57 0 50-22.43 50-50s-22.43-50-50-50zm0 102c-13.889 0-26.948-5.409-36.769-15.23C77.489 118.948 72.08 105.89 72.08 92c0-28.673 23.327-52 52-52s52 23.327 52 52-23.327 52-52 52z"/><path fill="#434A4F" d="M172.08 92h-2c0-25.364-20.636-46-46-46v-2c26.467 0 48 21.533 48 48m-1 4c-.26 0-.52-.11-.71-.29-.18-.19-.29-.45-.29-.71 0-.26.11-.52.29-.71.38-.37 1.04-.37 1.42 0 .18.19.29.45.29.71 0 .26-.11.52-.29.71-.19.18-.45.29-.71.29m-50.03-50.03c-.26 0-.52-.11-.71-.29-.18-.19-.29-.44-.29-.71 0-.26.11-.52.29-.71.38-.37 1.04-.37 1.42 0 .18.19.29.45.29.71 0 .27-.11.52-.29.71-.19.18-.44.29-.71.29M120.081 170h10v-2h-10z"/><path fill="#434A4F" d="M124 51c-22.607 0-41 18.393-41 41.001C83 114.608 101.393 133 124 133s41-18.392 41-40.999C165 69.393 146.607 51 124 51zm0 84c-23.71 0-43-19.289-43-42.999 0-23.711 19.29-43 43-43s43 19.289 43 43c0 23.71-19.29 42.999-43 42.999z"/><path fill="#434A4F" d="M124 51c-18.196 0-33 18.393-33 41.001C91 114.608 105.804 133 124 133c18.196 0 33-18.392 33-40.999C157 69.393 142.196 51 124 51zm0 84c-19.299 0-35-19.289-35-42.999 0-23.711 15.701-43 35-43s35 19.289 35 43c0 23.71-15.701 42.999-35 42.999z"/><path fill="#434A4F" d="M123 51c-7.589 0-14 18.776-14 41.001 0 22.224 6.411 40.999 14 40.999s14-18.775 14-40.999C137 69.776 130.589 51 123 51zm0 84c-8.972 0-16-18.887-16-42.999 0-24.113 7.028-43 16-43 8.972 0 16 18.887 16 43 0 24.112-7.028 42.999-16 42.999z"/><path fill="#434A4F" d="M82 93.001h84v-2H82zM88 71h72v-2H88zM88 115h72v-2H88zM64 155h2v-4h-2zM64 165h2v-4h-2zM68 159h4v-2h-4zM58 159h4v-2h-4zM184 191h2v-4h-2zM184 201h2v-4h-2zM188 195h4v-2h-4zM178 195h4v-2h-4zM172 33h2v-4h-2zM172 43h2v-4h-2zM176 37h4v-2h-4zM166 37h4v-2h-4zM84.887 205.527c.26 0 .525.02.79.063 2.084.332 3.643 1.894 3.97 3.979l.361 2.288 4.001-.63-.36-2.288c-.328-2.084.676-4.049 2.557-5.005 1.88-.955 4.061-.609 5.552.885l1.636 1.639 2.867-2.861-1.636-1.639c-1.491-1.494-1.834-3.674-.874-5.554.961-1.878 2.928-2.879 5.012-2.546l2.287.365.638-4-2.287-.365c-2.085-.333-3.643-1.895-3.971-3.979-.328-2.085.676-4.05 2.557-5.006l2.065-1.049-1.79-3.521-2.064 1.05c-1.882.956-4.06.608-5.552-.886-1.49-1.493-1.833-3.673-.873-5.552l1.054-2.063-3.608-1.842-1.054 2.063c-.959 1.879-2.924 2.882-5.011 2.547-2.084-.333-3.642-1.894-3.97-3.979l-.361-2.288-4.001.63.36 2.288c.328 2.084-.676 4.049-2.557 5.006-1.88.954-4.06.608-5.551-.885l-1.636-1.64-2.867 2.862 1.636 1.639c1.491 1.494 1.834 3.674.874 5.553-.959 1.88-2.923 2.883-5.011 2.547l-2.287-.364-.638 4 2.287.365c2.084.332 3.643 1.893 3.971 3.978.328 2.085-.676 4.049-2.557 5.006l-2.064 1.049 1.788 3.518 2.064-1.049c1.883-.955 4.061-.608 5.551.885 1.491 1.494 1.834 3.674.874 5.553l-1.054 2.062 3.607 1.843 1.054-2.063c.838-1.639 2.442-2.609 4.221-2.609zm3.456 8.616l-.671-4.264c-.232-1.471-1.345-2.16-2.31-2.314-.965-.152-2.237.155-2.915 1.481l-1.964 3.844-7.169-3.662 1.964-3.844c.678-1.327.182-2.538-.508-3.23-.691-.693-1.903-1.191-3.23-.515l-3.847 1.956-3.601-7.085 3.848-1.955c1.328-.676 1.639-1.947 1.487-2.912-.152-.965-.838-2.08-2.309-2.315l-4.263-.679 1.268-7.95 4.262.679c1.476.234 2.47-.612 2.915-1.482.445-.87.544-2.175-.509-3.23l-3.049-3.055 5.699-5.687 3.049 3.055c1.054 1.056 2.36.959 3.229.515.871-.443 1.719-1.44 1.487-2.912l-.671-4.264 7.953-1.251.671 4.263c.232 1.472 1.345 2.161 2.31 2.315.966.154 2.237-.155 2.915-1.482l1.964-3.844 7.169 3.662-1.963 3.844c-.678 1.326-.182 2.538.509 3.23.689.691 1.901 1.19 3.229.514l3.847-1.955 3.602 7.087-3.847 1.955c-1.329.675-1.64 1.947-1.488 2.912.152.965.838 2.08 2.31 2.315l4.262.68-1.268 7.95-4.262-.68c-1.47-.234-2.471.611-2.915 1.481-.445.871-.545 2.176.508 3.231l3.048 3.055-5.698 5.687-3.049-3.055c-1.052-1.054-2.358-.959-3.23-.515-.87.442-1.718 1.44-1.487 2.912l.67 4.263-7.952 1.251z"/><path fill="#42494E" d="M78.109 193.901c-2.896-5.695-.617-12.685 5.079-15.581 5.699-2.896 12.688-.616 15.583 5.079l-1.784.907c-2.396-4.713-8.179-6.6-12.892-4.203-4.714 2.396-6.599 8.179-4.203 12.892l-1.783.906"/><path fill="#E9886C" d="M88.416 185.105c-.935 0-1.813.364-2.475 1.025a3.477 3.477 0 0 0-1.025 2.475c0 .935.364 1.814 1.025 2.475 1.323 1.322 3.628 1.322 4.951 0a3.505 3.505 0 0 0 0-4.95 3.48 3.48 0 0 0-2.476-1.025zm0 10a6.457 6.457 0 0 1-4.596-1.904 6.455 6.455 0 0 1-1.904-4.596c0-1.736.676-3.369 1.904-4.596a6.457 6.457 0 0 1 4.596-1.904c1.737 0 3.369.676 4.597 1.904a6.508 6.508 0 0 1 0 9.192 6.457 6.457 0 0 1-4.597 1.904z"/><path fill="#434A4F" d="M86.44 174.71a.997.997 0 0 1 .92-1.07c.55-.04 1.03.38 1.07.93.04.55-.38 1.03-.93 1.07h-.06a.99.99 0 0 1-1-.93zm4.76 1.19a.998.998 0 1 1 .42-1.95c.54.12.88.65.77 1.19-.11.47-.52.79-.98.79-.07 0-.14-.01-.21-.03zm-8.6-.07c-.19-.52.07-1.1.59-1.29a.993.993 0 0 1 1.28.59.999.999 0 1 1-1.87.7zm12.06 1.37a1 1 0 0 1-.39-1.36c.26-.48.87-.66 1.35-.39.49.26.66.87.4 1.35-.18.34-.52.52-.88.52-.16 0-.33-.04-.48-.12zm-15.42.79c-.33-.45-.24-1.07.2-1.4.44-.33 1.06-.24 1.4.2.33.44.24 1.07-.2 1.4-.18.13-.39.2-.6.2-.31 0-.61-.14-.8-.4zm18.37 1.42a.996.996 0 1 1 1.41-1.41c.39.39.39 1.02 0 1.41a.976.976 0 0 1-1.41 0zm-21 1.59a.992.992 0 0 1-.19-1.4c.33-.44.95-.53 1.4-.2.44.34.52.96.19 1.4-.19.26-.49.4-.8.4-.21 0-.42-.06-.6-.2zm23.22 1.37a.984.984 0 0 1 .4-1.35.997.997 0 1 1 .96 1.75.988.988 0 0 1-1.36-.4zm-24.88 2.26a.993.993 0 0 1-.59-1.28 1.003 1.003 0 0 1 1.88.7c-.16.4-.54.65-.94.65-.12 0-.24-.02-.35-.07zm26.17 1.21c-.12-.54.23-1.07.77-1.19.54-.11 1.07.23 1.19.77.11.54-.23 1.07-.77 1.19-.07.01-.14.02-.21.02-.46 0-.88-.32-.98-.79zm-26.74 2.75c-.55-.04-.97-.52-.93-1.07.04-.55.52-.96 1.07-.93.55.04.97.52.93 1.07-.04.53-.48.93-1 .93h-.07zm27.93 2.01a.996.996 0 0 1-.93-1.06c.04-.55.52-.97 1.07-.93.55.04.97.52.93 1.07-.04.53-.48.93-1 .93-.02 0-.05 0-.07-.01zm-28.55 1.18a.996.996 0 1 1 1.95-.42c.12.54-.23 1.07-.77 1.19-.07.01-.14.02-.21.02-.46 0-.87-.32-.97-.79zm27.43 2.66a.995.995 0 0 1-.59-1.29c.19-.52.77-.78 1.28-.58.52.19.79.76.59 1.28a1.002 1.002 0 0 1-1.28.59zm-25.95 1.34a1 1 0 0 1 1.76-.95 1 1 0 0 1-.4 1.35c-.15.09-.32.13-.48.13-.35 0-.7-.19-.88-.53zm23.78 2.02c-.44-.33-.53-.96-.2-1.4.33-.44.96-.53 1.4-.2.44.33.53.96.2 1.4-.19.26-.49.4-.8.4-.21 0-.42-.07-.6-.2zm-21.22 1.4a.996.996 0 0 1 0-1.41c.39-.39 1.03-.39 1.42 0 .39.39.39 1.02 0 1.41a.992.992 0 0 1-1.42 0zm18.2 1.22c-.33-.44-.24-1.07.2-1.4.44-.33 1.07-.24 1.4.2.33.44.24 1.07-.2 1.4-.18.13-.39.2-.6.2-.3 0-.6-.14-.8-.4zm-14.78 1.35c-.49-.27-.66-.87-.4-1.36.26-.48.87-.66 1.36-.4a1.003 1.003 0 0 1-.96 1.76zm11.15.3c-.2-.51.07-1.09.59-1.28a.996.996 0 1 1 .69 1.87c-.11.05-.23.07-.35.07-.4 0-.78-.25-.93-.66zm-7.15 1.19a1.01 1.01 0 0 1-.77-1.19c.12-.54.65-.88 1.19-.76.54.11.89.65.77 1.19-.1.46-.52.78-.98.78-.07 0-.14 0-.21-.02zm3.19-.62c-.04-.55.38-1.03.93-1.07.55-.04 1.03.38 1.07.93.03.55-.38 1.03-.93 1.07h-.07c-.52 0-.96-.4-1-.93z"/><path fill="#42494E" d="M127.936 184c-1.654 0-3 1.345-3 3 0 1.654 1.346 3 3 3h43.17l6.506-3-6.506-3h-43.17zm43.609 8h-43.609c-2.757 0-5-2.244-5-5 0-2.757 2.243-5 5-5h43.609l10.843 5-10.843 5z"/><path fill="#42494E" d="M133.546 190.598h2V183h-2z"/><path fill="#42494E" d="M170.557 188.029l-36.011-.001v-2l36.011.001v2"/><path fill="#434A4F" d="M148 155h2v-4h-2zM148 165h2v-4h-2zM152 159h4v-2h-4zM142 159h4v-2h-4zM179 144c-1.103 0-2 .897-2 2s.897 2 2 2 2-.897 2-2-.897-2-2-2zm0 6c-2.206 0-4-1.794-4-4s1.794-4 4-4 4 1.794 4 4-1.794 4-4 4z"/><path fill="#FACD60" d="M62 125a2 2 0 1 1-3.999.001A2 2 0 0 1 62 125m128-64a4 4 0 1 1-8 0 4 4 0 0 1 8 0"/><path fill="#75C7D0" d="M168 151a2 2 0 1 1-3.999.001A2 2 0 0 1 168 151"/></g></svg>