<?xml version="1.0" encoding="utf-8"?><svg xmlns="http://www.w3.org/2000/svg" width="250" height="250" viewBox="0 0 250 250"><g fill="none" fill-rule="evenodd"><path fill="#5FE0ED" d="M210.843 109.744a2 2 0 1 1-4 0 2 2 0 0 1 4 0"/><path fill="#DEDEDD" d="M171.676 96.715l-7.795-18.877-11.038-4.73 18.666 45.672.167-10.018V96.715"/><path fill="#48515A" d="M154.704 52.995l19.133 46.335 7.906-15.898 14.146 14.147 3.423-3.423-14.276-14.277 13.499-8.099-43.831-18.785zm18.965 51.166l-22.686-54.936 51.934 22.257-14.657 8.794 13.88 13.88-6.251 6.251-13.594-13.594-8.626 17.348z"/><path fill="#FFD15D" d="M188.843 119.744a2 2 0 1 1-4 0 2 2 0 0 1 4 0"/><path fill="#475059" d="M94.884 51.499h-25v-2h23V30.224h2v21.275M161.887 148.492H80.842v-2h79.045V71.278h2v77.214"/><path fill="#475059" d="M70.884 143.113h-2V50.034l24.634-20.81h68.369v25.304h-2V31.224H94.251L70.884 50.963v92.15"/><path fill="#FFD15D" d="M78.085 47.498h12.8V36.685l-12.8 10.813"/><path fill="#475059" d="M91.175 159.777h61.334v-2H91.175zM170.901 141.447h2V97.778h-2zM172.901 59.278h-2V42.51h-7.027v-2h9.027v18.768M88.102 74.857h-2v-11h-2v-2h4v13"/><path fill="#475059" d="M84.102 75.857h5.999v-2h-5.999zM98.103 63.857c-1.654 0-3 1.346-3 3v4c0 1.654 1.346 3 3 3s3-1.346 3-3v-4c0-1.654-1.346-3-3-3zm0 12c-2.757 0-5-2.243-5-5v-4c0-2.757 2.243-5 5-5s5 2.243 5 5v4c0 2.757-2.243 5-5 5zM110.102 74.857h-2v-11h-2v-2h4v13"/><path fill="#475059" d="M106.102 75.857h5.999v-2h-5.999zM120.106 63.857c-1.654 0-3 1.346-3 3v4c0 1.654 1.346 3 3 3s3-1.346 3-3v-4c0-1.654-1.346-3-3-3zm0 12c-2.757 0-5-2.243-5-5v-4c0-2.757 2.243-5 5-5s5 2.243 5 5v4c0 2.757-2.243 5-5 5zM132.104 74.857h-2v-11h-1.999v-2h3.999v13"/><path fill="#475059" d="M128.105 75.857h5.998v-2h-5.998zM142.106 63.857c-1.654 0-3 1.346-3 3v4c0 1.654 1.346 3 3 3s3-1.346 3-3v-4c0-1.654-1.346-3-3-3zm0 12c-2.757 0-5-2.243-5-5v-4c0-2.757 2.243-5 5-5s5 2.243 5 5v4c0 2.757-2.243 5-5 5zm-56.003 6c-1.654 0-3 1.346-3 3v4c0 1.654 1.346 3 3 3s3-1.346 3-3v-4c0-1.654-1.346-3-3-3zm0 12c-2.757 0-5-2.243-5-5v-4c0-2.757 2.243-5 5-5s5 2.243 5 5v4c0 2.757-2.243 5-5 5zM98.102 92.857h-2v-11h-2v-2h4v13"/><path fill="#475059" d="M94.102 93.857h5.999v-2h-5.999zM108.106 81.857c-1.654 0-3 1.346-3 3v4c0 1.654 1.346 3 3 3s3-1.346 3-3v-4c0-1.654-1.346-3-3-3zm0 12c-2.757 0-5-2.243-5-5v-4c0-2.757 2.243-5 5-5s5 2.243 5 5v4c0 2.757-2.243 5-5 5zM120.104 92.857h-2v-11h-1.999v-2h3.999v13"/><path fill="#475059" d="M116.105 93.857h5.998v-2h-5.998zM130.106 81.857c-1.654 0-3 1.346-3 3v4c0 1.654 1.346 3 3 3s3-1.346 3-3v-4c0-1.654-1.346-3-3-3zm0 12c-2.757 0-5-2.243-5-5v-4c0-2.757 2.243-5 5-5s5 2.243 5 5v4c0 2.757-2.243 5-5 5zM142.104 92.857h-2v-11h-1.999v-2h3.999v13"/><path fill="#475059" d="M138.105 93.857h5.998v-2h-5.998zM88.102 109.876h-2v-11h-2v-2h4v13"/><path fill="#475059" d="M84.102 110.876h5.999v-2h-5.999zM98.103 98.876c-1.654 0-3 1.346-3 3v4c0 1.654 1.346 3 3 3s3-1.346 3-3v-4c0-1.654-1.346-3-3-3zm0 12c-2.757 0-5-2.243-5-5v-4c0-2.757 2.243-5 5-5s5 2.243 5 5v4c0 2.757-2.243 5-5 5zM110.102 109.876h-2v-11h-2v-2h4v13"/><path fill="#475059" d="M106.102 110.876h5.999v-2h-5.999zM120.106 98.876c-1.654 0-3 1.346-3 3v4c0 1.654 1.346 3 3 3s3-1.346 3-3v-4c0-1.654-1.346-3-3-3zm0 12c-2.757 0-5-2.243-5-5v-4c0-2.757 2.243-5 5-5s5 2.243 5 5v4c0 2.757-2.243 5-5 5zM132.104 109.876h-2v-11h-1.999v-2h3.999v13"/><path fill="#475059" d="M128.105 110.876h5.998v-2h-5.998zM142.106 98.876c-1.654 0-3 1.346-3 3v4c0 1.654 1.346 3 3 3s3-1.346 3-3v-4c0-1.654-1.346-3-3-3zm0 12c-2.757 0-5-2.243-5-5v-4c0-2.757 2.243-5 5-5s5 2.243 5 5v4c0 2.757-2.243 5-5 5zm-56.003 6c-1.654 0-3 1.346-3 3v4c0 1.654 1.346 3 3 3s3-1.346 3-3v-4c0-1.654-1.346-3-3-3zm0 12c-2.757 0-5-2.243-5-5v-4c0-2.757 2.243-5 5-5s5 2.243 5 5v4c0 2.757-2.243 5-5 5zM98.102 127.876h-2v-11h-2v-2h4v13"/><path fill="#475059" d="M94.102 128.876h5.999v-2h-5.999zM108.106 116.876c-1.654 0-3 1.346-3 3v4c0 1.654 1.346 3 3 3s3-1.346 3-3v-4c0-1.654-1.346-3-3-3zm0 12c-2.757 0-5-2.243-5-5v-4c0-2.757 2.243-5 5-5s5 2.243 5 5v4c0 2.757-2.243 5-5 5zM120.104 127.876h-2v-11h-1.999v-2h3.999v13"/><path fill="#475059" d="M116.105 128.876h5.998v-2h-5.998zM130.106 116.876c-1.654 0-3 1.346-3 3v4c0 1.654 1.346 3 3 3s3-1.346 3-3v-4c0-1.654-1.346-3-3-3zm0 12c-2.757 0-5-2.243-5-5v-4c0-2.757 2.243-5 5-5s5 2.243 5 5v4c0 2.757-2.243 5-5 5zM142.104 127.876h-2v-11h-1.999v-2h3.999v13"/><path fill="#475059" d="M138.105 128.876h5.998v-2h-5.998z"/><path fill="#48515A" d="M107.412 210.776h-2v-11H68.414v11h-2v-13h40.998v13"/><path fill="#5FE0ED" d="M61.414 220.776h48.119v-12.995H61.414z"/><path fill="#48515A" d="M75.413 215.776h-3.999a1 1 0 1 1 0-2h3.999a1 1 0 0 1 0 2"/><path fill="#48515A" d="M69.414 213.776a1.001 1.001 0 0 0 0 2c.551 0 1-.449 1-1 0-.551-.449-1-1-1zm0 4c-1.655 0-3-1.346-3-3s1.345-3 3-3c1.654 0 3 1.346 3 3s-1.346 3-3 3z"/><path fill="#DEDEDD" d="M52.635 137.25v15.792l11.027 9.525a12.423 12.423 0 0 0 8.944 3.638l3.322-.042-12.286-10.545v-10.363c0-2.984-1.071-5.619-3.002-7.247v-.758c0-4.946-2.926-8.955-7.872-8.955v1.072c-1.121-.683-2.463-1.072-4.002-1.072v1.072c2.48 1.514 3.869 4.476 3.869 7.883"/><path fill="#475059" d="M75.928 167.164a.995.995 0 0 1-.651-.242l-12.635-10.844v-10.824c0-2.701-.965-5.064-2.646-6.481l-.356-.3v-1.223c0-3.96-2.125-7.956-6.872-7.956h-3.002v.074a1 1 0 1 1-2 0v-2.074h5.002c5.224 0 8.872 4.094 8.872 9.956v.312c1.913 1.814 3.002 4.587 3.002 7.692v9.905l11.938 10.246a1.001 1.001 0 0 1-.652 1.759"/><path fill="#475059" d="M100.718 199.177a1 1 0 0 1-1-1V176.32a9.121 9.121 0 0 0-2.689-6.491l-23.514-23.514c-2.563 3.33-2.198 8.435.996 11.63l9.628 9.115-11.52.146c-3.59.023-7.12-1.389-9.663-3.932l-11.321-9.775V137.25c0-3.67-1.825-7.371-5.872-7.893v29.396l27.978 26.666v12.674a1 1 0 1 1-2 0v-11.818l-27.978-26.666v-32.315h1c5.224 0 8.872 4.094 8.872 9.956v15.334l10.681 9.226c2.219 2.215 5.206 3.436 8.277 3.396l6.591-.084-6.067-5.744c-4.233-4.232-4.386-11.197-.355-15.23l.706-.707 24.975 24.974a11.104 11.104 0 0 1 3.275 7.905v21.857a1 1 0 0 1-1 1"/><path fill="#48515A" d="M179.896 210.776h-2v-11h-36.999v11h-2v-13h40.999v13"/><path fill="#5FE0ED" d="M136.776 220.776h48.12v-12.995h-48.12z"/><path fill="#48515A" d="M174.896 215.776h-3.999a1 1 0 1 1 0-2h3.999a1 1 0 1 1 0 2"/><path fill="#48515A" d="M176.896 213.776a1.001 1.001 0 0 0 0 2 1.001 1.001 0 0 0 0-2zm0 4c-1.654 0-3-1.346-3-3s1.346-3 3-3 3 1.346 3 3-1.346 3-3 3z"/><path fill="#DEDEDD" d="M193.674 137.25v15.792l-11.027 9.525a12.422 12.422 0 0 1-8.943 3.638l-3.322-.042 12.286-10.545v-10.363c0-2.984 1.071-5.619 3.002-7.247v-.758c0-4.946 2.926-8.955 7.871-8.955v1.072c1.121-.683 2.464-1.072 4.003-1.072v1.072c-2.481 1.514-3.87 4.476-3.87 7.883"/><path fill="#475059" d="M170.381 167.164a1 1 0 0 1-.651-1.759l11.937-10.246v-9.905c0-3.105 1.089-5.878 3.002-7.692v-.312c0-5.862 3.649-9.956 8.873-9.956h5.001v2.074a1 1 0 1 1-2 0v-.074h-3.001c-4.748 0-6.873 3.996-6.873 7.956v1.223l-.355.3c-1.682 1.417-2.647 3.78-2.647 6.481v10.824l-12.634 10.844a.997.997 0 0 1-.652.242"/><path fill="#475059" d="M145.591 199.177a1 1 0 0 1-1-1V176.32a11.1 11.1 0 0 1 3.276-7.905l24.974-24.974.706.707c4.032 4.033 3.878 10.998-.335 15.211l-6.087 5.763 6.591.084a11.468 11.468 0 0 0 8.224-3.346l10.734-9.276V137.25c0-5.862 3.649-9.956 8.872-9.956h1v32.315l-27.977 26.666v11.818a1 1 0 1 1-2 0v-12.674l27.977-26.666v-29.396c-4.046.522-5.872 4.223-5.872 7.893v16.249l-11.374 9.825c-2.452 2.455-5.905 3.883-9.444 3.883l-.165-.001-11.521-.146 9.648-9.134c3.177-3.177 3.541-8.281.976-11.611l-23.513 23.514a9.118 9.118 0 0 0-2.69 6.491v21.857a1 1 0 0 1-1 1M55.808 97.257a3.851 3.851 0 0 0-3.846 3.846 3.851 3.851 0 0 0 3.846 3.847 3.851 3.851 0 0 0 3.846-3.847 3.851 3.851 0 0 0-3.846-3.846zm0 9.693a5.853 5.853 0 0 1-5.846-5.847 5.853 5.853 0 0 1 5.846-5.846 5.853 5.853 0 0 1 5.846 5.846 5.853 5.853 0 0 1-5.846 5.847z"/><path fill="#475059" d="M55.808 111.103a9.916 9.916 0 0 1-7.205-3.065 9.924 9.924 0 0 1-2.787-7.324c.196-5.188 4.415-9.406 9.603-9.604a9.958 9.958 0 0 1 7.324 2.788 9.922 9.922 0 0 1 3.065 7.205v2.77a3.081 3.081 0 0 1-3.077 3.077 3.081 3.081 0 0 1-3.077-3.077v-7.616h2v7.616c0 .593.483 1.077 1.077 1.077s1.077-.484 1.077-1.077v-2.77a7.937 7.937 0 0 0-2.452-5.764c-1.58-1.521-3.662-2.33-5.86-2.23-4.081.155-7.527 3.601-7.682 7.682a7.943 7.943 0 0 0 2.23 5.86 7.937 7.937 0 0 0 5.764 2.452 7.94 7.94 0 0 0 5.034-1.782l1.26 1.553a9.96 9.96 0 0 1-6.294 2.229"/><path fill="#FFD15D" d="M57.764 79.72a2 2 0 1 1-3.999.001 2 2 0 0 1 3.999-.001"/><path fill="#48515A" d="M34.947 68.89h2v-4h-2zM34.947 78.89h2v-4h-2zM38.947 72.89h4v-2h-4zM28.947 72.89h4v-2h-4zM213.053 169.951h2v-4h-2zM213.053 179.951h2v-4h-2zM217.053 173.951h4v-2h-4zM207.053 173.951h4v-2h-4z"/></g></svg>