<?xml version="1.0" encoding="utf-8"?><svg xmlns="http://www.w3.org/2000/svg" xmlns:xlink="http://www.w3.org/1999/xlink" width="192" height="168" viewBox="0 0 192 168"><defs><path id="fha" d="M.423.993h15.999V48.94H.423z"/></defs><g fill="none" fill-rule="evenodd"><path fill="#DEDEDD" d="M115.792 25.639c.672-1.229 1.38-2.435 2.093-3.639H13a1 1 0 0 0 0 2h8a1 1 0 0 1 0 2H5a1 1 0 0 0 0 2h26a1 1 0 0 1 0 2H15a1 1 0 0 0 0 2h22a1 1 0 0 1 0 2H11a1 1 0 0 0 0 2h16a1 1 0 0 1 0 2H1a1 1 0 0 0 0 2h22a1 1 0 0 1 0 2h-8a1 1 0 0 0 0 2h10a1 1 0 0 1 0 2H11a1 1 0 0 0 0 2h18a1 1 0 0 1 0 2H7a1 1 0 0 0 0 2h28a1 1 0 0 1 0 2h-8a1 1 0 0 0 0 2h4a1 1 0 0 1 0 2H19a1 1 0 0 0 0 2h6a1 1 0 0 1 0 2H13a1 1 0 0 0 0 2h16a1 1 0 0 1 0 2h-6a1 1 0 0 0 0 2h16a1 1 0 0 1 0 2H7a1 1 0 0 0 0 2h28a1 1 0 0 1 0 2H13a1 1 0 0 0 0 2h28a1 1 0 0 1 0 2H9a1 1 0 0 0 0 2h22a1 1 0 0 1 0 2H17a1 1 0 0 0 0 2h75.665a256.547 256.547 0 0 1 23.127-58.361m20.627 1.438a127.07 127.07 0 0 0-8.997-14.095 127.215 127.215 0 0 0-8.997 14.095 253.405 253.405 0 0 0-24.406 63.922l1.279.001 24.115-2 2-.006 3.009.004V87a3 3 0 1 1 6 0v2.004l5.249.006L159.547 91l1.278-.001a253.405 253.405 0 0 0-24.406-63.922"/><path fill="#DEDEDD" d="M136.422 116.986h-2v-8.987a3.004 3.004 0 0 0-3-3 5.006 5.006 0 0 1-5-5V87.001h2v12.998a3.004 3.004 0 0 0 3 3 5.006 5.006 0 0 1 5 5v8.987"/><path fill="#475059" d="M133.422 115.986h4v-7.987a6.008 6.008 0 0 0-5.987-6 2.013 2.013 0 0 1-2.013-2V87a2 2 0 1 0-4 0v12.999a6.01 6.01 0 0 0 5.988 6 2.01 2.01 0 0 1 2.012 2v7.987zm6 2h-8v-9.987a8.016 8.016 0 0 1-8-8V87a4 4 0 0 1 8 0v12.999a8.015 8.015 0 0 1 8 8v9.987z"/><path fill="#475059" d="M131.423 123.993h8v-6.001h-8v6.001zm-2 2h12v-10.001h-12v10.001z"/><g transform="translate(127 119)"><mask id="fhb" fill="#fff"><use xlink:href="#fha"/></mask><path fill="#DEDEDD" mask="url(#fhb)" d="M6.422 2.992h4V.993h-4z"/><path fill="#475059" d="M2.423 6.992V41a6 6 0 0 0 11.999 0V6.992H2.423zM8.422 49a8.008 8.008 0 0 1-7.999-8V4.992h15.999V41a8.01 8.01 0 0 1-8 8z" mask="url(#fhb)"/></g><path fill="#F58E70" d="M131.423 127.992V160a4 4 0 0 0 7.999 0v-32.008h-7.999"/><path fill="#475059" d="M159.422 95l-24.083-2.003-2.087-.003.006-2 2.167.006 24.08 2.003 3.828-.003a255.375 255.375 0 0 0-25.158-66.882A130.917 130.917 0 0 0 127.422 9.64a130.948 130.948 0 0 0-10.752 16.478 255.407 255.407 0 0 0-25.159 66.881l3.911.001 23.917-1.997 2.08-.009.006 2-2 .006-23.92 1.997-6.48.002.264-1.213a257.428 257.428 0 0 1 25.626-68.627 133.657 133.657 0 0 1 11.717-17.772l.79-1.018.79 1.018a133.763 133.763 0 0 1 11.718 17.772 257.426 257.426 0 0 1 25.625 68.627l.264 1.213-6.397.001m-79 55.952H84l1.774-4.023 3.295-1.903 4.372.475 1.789-3.099-2.598-3.547v-3.806l2.598-3.548-1.789-3.099-4.372.476-3.295-1.902L84 122.952h-3.578l-1.774 4.024-3.295 1.902-4.372-.476-1.789 3.099 2.598 3.548v3.806l-2.598 3.547 1.789 3.099 4.372-.475 3.295 1.903 1.774 4.023zm4.882 2h-6.186l-2.037-4.618-2.162-1.25-5.018.546-3.093-5.357 2.982-4.072v-2.498l-2.982-4.073 3.093-5.357 5.018.546 2.162-1.249 2.037-4.618h6.186l2.036 4.618 2.163 1.249 5.018-.546 3.093 5.357-2.982 4.073v2.498l2.982 4.072-3.093 5.357-5.018-.546-2.163 1.25-2.036 4.618z"/><path fill="#475059" d="M82.211 134.952a2 2 0 1 0 0 4 2 2 0 0 0 0-4zm0 6a4 4 0 1 1 0-8 4 4 0 0 1 0 8z"/><path fill="#475059" d="M82.211 130.952a6 6 0 1 0 6 6 6.007 6.007 0 0 0-6-6zm0 14a8 8 0 1 1 8-8 8.01 8.01 0 0 1-8 8z"/><path fill="#48515A" d="M172 120h2v-4h-2zM172 130h2v-4h-2zM176 124h4v-2h-4zM166 124h4v-2h-4zM46 96h2v-4h-2zM46 106h2v-4h-2zM50 100h4v-2h-4zM40 100h4v-2h-4z"/><path fill="#475059" d="M153.005 7.171A3.003 3.003 0 0 0 151 10v18.001a4.94 4.94 0 0 1 2.005-.899V7.171zM162.362 37h-8.36A5.007 5.007 0 0 1 149 32V10a4.999 4.999 0 0 1 4.998-4.997l1.002.001.005.999v23h-1.001a2.999 2.999 0 0 0-.007 5.997h8.365v2zm13.642 0h-13.642v-2h13.637a2.998 2.998 0 0 0 .004-5.997h-.002l-1 .001-.005-1.001v-23h1.002a5 5 0 0 1 5.003 4.993V10l-2 .001a3.004 3.004 0 0 0-2.005-2.83v19.932a4.999 4.999 0 0 1-.992 9.897"/><path fill="#475059" d="M179.001 32h2V10h-2zM176.004 15h-22.002l-.005-2h22.002l.005 2M160 30.001h10v-10h-10v10zm-2 2h14v-14h-14v14z"/><path fill="#475059" d="M164 22.999h2v-3.998h-2zM159 27.001h7v-2h-7z"/><path fill="#48515A" d="M184 60h2v-4h-2zM184 70h2v-4h-2zM188 64h4v-2h-4zM178 64h4v-2h-4z"/><path fill="#5FE0ED" d="M26 114a4 4 0 1 1 0 8 4 4 0 0 1 0-8"/><path fill="#F58E70" d="M155.994 110.006a2 2 0 1 1 .001 3.999 2 2 0 0 1-.001-3.999"/><path fill="#DEDEDD" d="M76 106a2 2 0 1 1 .001 3.999A2 2 0 0 1 76 106"/><path fill="#F58E70" d="M86 0a2 2 0 1 1 .001 3.999A2 2 0 0 1 86 0"/></g></svg>