<?xml version="1.0" encoding="utf-8"?><svg xmlns="http://www.w3.org/2000/svg" width="250" height="250" viewBox="0 0 250 250"><g fill="none" fill-rule="evenodd"><path fill="#DEDEDD" d="M84.081 192.7l.168.139c3.685 3.8 3.619 9.921-.175 13.714a9.72 9.72 0 0 1-6.919 2.866 9.72 9.72 0 0 1-6.92-2.866 9.72 9.72 0 0 1-2.866-6.919 9.722 9.722 0 0 1 2.866-6.919 9.718 9.718 0 0 1 6.919-2.861c2.631 0 5.091 1.011 6.927 2.846zM70.235 99.222a9.722 9.722 0 0 1-2.866-6.919 9.725 9.725 0 0 1 2.866-6.92 9.724 9.724 0 0 1 6.92-2.86 9.721 9.721 0 0 1 6.919 2.86c3.815 3.816 3.815 10.023 0 13.839a9.725 9.725 0 0 1-6.92 2.866 9.724 9.724 0 0 1-6.919-2.866zm60.265 26.282h21.636l48.785-48.762h-2.415c-13.257 0-25.721 5.163-35.096 14.538l-50.225 50.225h-.315l-33.578-33.578a15.646 15.646 0 0 0 9.024-4.462c6.155-6.155 6.155-16.17 0-22.324a15.677 15.677 0 0 0-11.161-4.623 15.678 15.678 0 0 0-11.162 4.623c-6.155 6.155-6.155 16.169 0 22.324l42.616 42.616-40.945 40.945.009.009c-.582.439-1.15.907-1.68 1.437a15.682 15.682 0 0 0-4.624 11.162c0 4.217 1.642 8.181 4.624 11.162 2.982 2.982 6.945 4.708 11.162 4.708 4.216 0 8.18-1.727 11.161-4.708 6.155-6.154 6.155-16.169 0-22.324a15.677 15.677 0 0 0-8.835-4.426l29.298-29.298h8.496l13.225 13.225v-42.469z"/><path fill="#5FE0ED" d="M130.75 138.927l-15.441-15.435h-11.625l27.066 27.067v-11.632M120.494 172.54a2 2 0 1 1-3.999.001 2 2 0 0 1 3.999-.001m.149-53.188l59.93-59.898c-9.174 1.597-17.62 5.963-24.341 12.684l-45.13 45.131h7.482l2.059 2.083"/><path fill="#475059" d="M67.149 163.835a13.697 13.697 0 0 0-9.748 4.039 13.696 13.696 0 0 0-4.038 9.747 13.7 13.7 0 0 0 4.038 9.748 13.7 13.7 0 0 0 9.748 4.038c3.682 0 7.144-1.435 9.747-4.038a13.695 13.695 0 0 0 4.038-9.747c0-3.683-1.434-7.145-4.038-9.748a13.693 13.693 0 0 0-9.747-4.039zm0 29.572a15.683 15.683 0 0 1-11.162-4.624 15.685 15.685 0 0 1-4.623-11.162c0-4.216 1.642-8.18 4.623-11.162a15.683 15.683 0 0 1 11.162-4.624c4.216 0 8.18 1.643 11.161 4.624a15.683 15.683 0 0 1 4.624 11.163c0 4.215-1.642 8.179-4.624 11.161a15.682 15.682 0 0 1-11.161 4.624zm0-136.896a13.74 13.74 0 0 0-9.748 4.031c-5.374 5.375-5.374 14.121 0 19.496 5.375 5.374 14.12 5.375 19.495 0 5.375-5.375 5.375-14.121 0-19.496a13.744 13.744 0 0 0-9.747-4.031zm0 29.556a15.737 15.737 0 0 1-11.162-4.615c-6.154-6.156-6.154-16.169 0-22.325 6.154-6.154 16.169-6.154 22.323 0 6.155 6.156 6.155 16.169 0 22.325a15.734 15.734 0 0 1-11.161 4.615z"/><path fill="#475059" d="M190.915 193.407H188.5c-13.258 0-25.721-5.163-35.096-14.538L55.987 81.452l1.414-1.414 97.417 97.417c8.41 8.411 19.412 13.289 31.204 13.889l-69.885-69.851h-14.101L65.793 85.249l1.414-1.414 35.657 35.658h14.101l73.95 73.914"/><path fill="#475059" d="M68.17 163.337l-1.414-1.414 31.189-31.188h9.889v2h-9.061L68.17 163.337M120.847 124.763l-1.414-1.414 66.589-66.557c-11.792.6-22.794 5.478-31.204 13.889l-50.402 50.402-1.414-1.415 50.402-50.401c9.375-9.375 21.838-14.538 35.096-14.538h2.415l-70.068 70.034M59.072 166.427l-1.414-1.414 41.594-41.595 1.414 1.415-41.594 41.594M111.501 125.542a1.001 1.001 0 1 0 1 1c0-.551-.449-1-1-1zm0 4c-1.654 0-3-1.345-3-3 0-1.654 1.346-3 3-3 1.655 0 3 1.346 3 3 0 1.655-1.345 3-3 3zM67.149 60.509a9.721 9.721 0 0 0-6.92 2.862 9.718 9.718 0 0 0-2.865 6.919 9.717 9.717 0 0 0 2.865 6.918 9.72 9.72 0 0 0 6.919 2.867 9.722 9.722 0 0 0 6.92-2.867c3.815-3.815 3.815-10.022 0-13.837a9.72 9.72 0 0 0-6.919-2.862zm-.001 21.566a11.709 11.709 0 0 1-8.333-3.452 11.709 11.709 0 0 1-3.452-8.333 11.71 11.71 0 0 1 3.452-8.334 11.707 11.707 0 0 1 8.334-3.447c3.151 0 6.11 1.225 8.333 3.447a11.7 11.7 0 0 1 3.446 8.334c0 3.151-1.224 6.11-3.446 8.333a11.71 11.71 0 0 1-8.334 3.452zm0 85.766a9.718 9.718 0 0 0-6.919 2.861 9.718 9.718 0 0 0-2.865 6.919 9.722 9.722 0 0 0 2.865 6.92 9.725 9.725 0 0 0 6.92 2.866 9.724 9.724 0 0 0 6.919-2.866c3.794-3.794 3.86-9.916.174-13.715l-.168-.139c-1.834-1.835-4.294-2.846-6.926-2.846zm.001 21.566a11.71 11.71 0 0 1-8.334-3.452 11.71 11.71 0 0 1-3.452-8.334c0-3.148 1.226-6.108 3.452-8.333a11.703 11.703 0 0 1 8.333-3.447c3.11 0 6.023 1.176 8.222 3.316l.004.001.177.146a11.59 11.59 0 0 1 3.412 8.331 11.802 11.802 0 0 1-3.481 8.32 11.709 11.709 0 0 1-8.333 3.452z"/><path fill="#475059" d="M67.149 163.835a13.697 13.697 0 0 0-9.748 4.039 13.696 13.696 0 0 0-4.038 9.747 13.7 13.7 0 0 0 4.038 9.748 13.7 13.7 0 0 0 9.748 4.038c3.682 0 7.144-1.435 9.747-4.038a13.695 13.695 0 0 0 4.038-9.747c0-3.683-1.434-7.145-4.038-9.748a13.693 13.693 0 0 0-9.747-4.039zm0 29.572a15.683 15.683 0 0 1-11.162-4.624 15.685 15.685 0 0 1-4.623-11.162c0-4.216 1.642-8.18 4.623-11.162a15.683 15.683 0 0 1 11.162-4.624c4.216 0 8.18 1.643 11.161 4.624a15.683 15.683 0 0 1 4.624 11.163c0 4.215-1.642 8.179-4.624 11.161a15.682 15.682 0 0 1-11.161 4.624zm0-136.896a13.74 13.74 0 0 0-9.748 4.031c-5.374 5.375-5.374 14.121 0 19.496 5.375 5.374 14.12 5.375 19.495 0 5.375-5.375 5.375-14.121 0-19.496a13.744 13.744 0 0 0-9.747-4.031zm0 29.556a15.737 15.737 0 0 1-11.162-4.615c-6.154-6.156-6.154-16.169 0-22.325 6.154-6.154 16.169-6.154 22.323 0 6.155 6.156 6.155 16.169 0 22.325a15.734 15.734 0 0 1-11.161 4.615z"/><path fill="#475059" d="M190.915 193.407H188.5c-13.258 0-25.721-5.163-35.096-14.538L55.987 81.452l1.414-1.414 97.417 97.417c8.41 8.411 19.412 13.289 31.204 13.889l-69.885-69.851h-14.101L65.793 85.249l1.414-1.414 35.657 35.658h14.101l73.95 73.914"/><path fill="#475059" d="M68.17 163.337l-1.414-1.414 31.189-31.188h9.889v2h-9.061L68.17 163.337M120.847 124.763l-1.414-1.414 66.589-66.557c-11.792.6-22.794 5.478-31.204 13.889l-50.402 50.402-1.414-1.415 50.402-50.401c9.375-9.375 21.838-14.538 35.096-14.538h2.415l-70.068 70.034M59.072 166.427l-1.414-1.414 41.594-41.595 1.414 1.415-41.594 41.594M111.501 125.542a1.001 1.001 0 1 0 1 1c0-.551-.449-1-1-1zm0 4c-1.654 0-3-1.345-3-3 0-1.654 1.346-3 3-3 1.655 0 3 1.346 3 3 0 1.655-1.345 3-3 3zM67.149 60.509a9.721 9.721 0 0 0-6.92 2.862 9.718 9.718 0 0 0-2.865 6.919 9.717 9.717 0 0 0 2.865 6.918 9.72 9.72 0 0 0 6.919 2.867 9.722 9.722 0 0 0 6.92-2.867c3.815-3.815 3.815-10.022 0-13.837a9.72 9.72 0 0 0-6.919-2.862zm-.001 21.566a11.709 11.709 0 0 1-8.333-3.452 11.709 11.709 0 0 1-3.452-8.333 11.71 11.71 0 0 1 3.452-8.334 11.707 11.707 0 0 1 8.334-3.447c3.151 0 6.11 1.225 8.333 3.447a11.7 11.7 0 0 1 3.446 8.334c0 3.151-1.224 6.11-3.446 8.333a11.71 11.71 0 0 1-8.334 3.452zm0 85.766a9.718 9.718 0 0 0-6.919 2.861 9.718 9.718 0 0 0-2.865 6.919 9.722 9.722 0 0 0 2.865 6.92 9.725 9.725 0 0 0 6.92 2.866 9.724 9.724 0 0 0 6.919-2.866c3.794-3.794 3.86-9.916.174-13.715l-.168-.139c-1.834-1.835-4.294-2.846-6.926-2.846zm.001 21.566a11.71 11.71 0 0 1-8.334-3.452 11.71 11.71 0 0 1-3.452-8.334c0-3.148 1.226-6.108 3.452-8.333a11.703 11.703 0 0 1 8.333-3.447c3.11 0 6.023 1.176 8.222 3.316l.004.001.177.146a11.59 11.59 0 0 1 3.412 8.331 11.802 11.802 0 0 1-3.481 8.32 11.709 11.709 0 0 1-8.333 3.452z"/><path fill="#48515A" d="M116.5 73.479h2v-4h-2zM116.5 83.479h2v-4h-2zM120.5 77.479h4v-2h-4zM110.5 77.479h4v-2h-4zM212.5 182.542h2v-4h-2zM212.5 192.542h2v-4h-2zM216.5 186.542h4v-2h-4zM206.5 186.542h4v-2h-4zM94.5 178.542h2v-4h-2zM94.5 188.542h2v-4h-2zM98.5 182.542h4v-2h-4zM88.5 182.542h4v-2h-4z"/><path fill="#475059" d="M129.5 93.542h2V29.504h-2zM131.5 220.496h-2v-96.954h23l18.981-1-19.033-1H129.5v-8h2v6h21l38.053 2.001v1.999l-38 2H131.5v94.954"/><path fill="#DEDEDD" d="M200.921 76.742h-2.415c-13.257 0-25.721 5.164-35.096 14.538l-27.086 27.086h22.954l41.643-41.624"/><path fill="#475059" d="M193.5 122.544c0-.549.45-1 1-1s1 .451 1 1c0 .55-.45 1-1 1s-1-.45-1-1zm4 0c0-.549.45-1 1-1s1 .451 1 1c0 .55-.45 1-1 1s-1-.45-1-1zm4 0c0-.549.45-1 1-1s1 .451 1 1c0 .55-.45 1-1 1s-1-.45-1-1zm4 0c0-.549.45-1 1-1s1 .451 1 1c0 .55-.45 1-1 1s-1-.45-1-1zm4 0c0-.549.45-1 1-1s1 .451 1 1c0 .55-.45 1-1 1s-1-.45-1-1zm4 0c0-.549.45-1 1-1s1 .451 1 1c0 .55-.45 1-1 1s-1-.45-1-1zm4 0c0-.549.45-1 1-1s1 .451 1 1c0 .55-.45 1-1 1s-1-.45-1-1zm-15.968 32.96h-.002l-23.442-.005a6.018 6.018 0 0 1-6.008-6.01 6.016 6.016 0 0 1 6.009-6.009l23.442.006a4.012 4.012 0 0 1 4.005 4.007 3.983 3.983 0 0 1-1.173 2.832 3.976 3.976 0 0 1-2.83 1.172h-.002l-24.444-.006v-2l24.444.006h.001c.536 0 1.038-.208 1.416-.587a1.99 1.99 0 0 0 .588-1.417 2.01 2.01 0 0 0-2.005-2.007l-23.443-.006a4.013 4.013 0 0 0-4.008 4.009 4.015 4.015 0 0 0 4.009 4.01l23.442.005h.001a5.971 5.971 0 0 0 4.249-1.759 5.97 5.97 0 0 0 1.761-4.251 6.02 6.02 0 0 0-6.011-6.015l-24.444-.006v-2l24.444.006c4.418.001 8.012 3.597 8.011 8.015 0 2.14-.833 4.152-2.346 5.665a7.96 7.96 0 0 1-5.664 2.345"/><path fill="#FFD15D" d="M204.5 206.504a3 3 0 1 1-6 0 3 3 0 0 1 6 0m-28 3.005c0 .003-.002.005-.005.005-.002 0-.005-.002-.005-.005 0-.002.003-.005.005-.005.003 0 .005.003.005.005m30-165.005a3 3 0 1 1-6 0 3 3 0 0 1 6 0"/><path fill="#48515A" d="M35.5 123.504h2v-4h-2zM35.5 133.504h2v-4h-2zM39.5 127.504h4v-2h-4zM29.5 127.504h4v-2h-4z"/></g></svg>