<?xml version="1.0" encoding="utf-8"?><svg xmlns="http://www.w3.org/2000/svg" width="250" height="250" viewBox="0 0 250 250"><g fill="none" fill-rule="evenodd"><path fill="#DEDEDD" d="M163.998 107.609v-1.185h-10.714c0 17.251-14.035 31.285-31.286 31.285s-31.285-14.034-31.285-31.285H79.998v1.185L89.549 110l2.559 9.552-7.076 6.845 1.186 2.053 9.466-2.705 6.992 6.993-2.705 9.466 2.055 1.186 6.844-7.074 9.552 2.557 2.39 9.551h2.372l2.391-9.551 9.551-2.557 6.845 7.074 2.055-1.186-2.706-9.466 6.993-6.993 9.465 2.705 1.186-2.053-7.075-6.845 2.559-9.552 9.55-2.391"/><path fill="#DEDEDD" d="M131.325 106.994c0 .046.007.091.007.137 0 5.147-4.187 9.334-9.334 9.334-5.146 0-9.333-4.187-9.333-9.334 0-.046.006-.091.007-.137h-4.67c-.001.046-.004.091-.004.137 0 7.72 6.281 14 14 14 7.72 0 14-6.28 14-14 0-.046-.003-.091-.003-.137h-4.67"/><path fill="#475059" d="M119.251 150.424h5.494l2.484-9.922 7.278-1.95 7.112 7.35 4.758-2.747-2.81-9.835 5.328-5.327 9.835 2.811 2.747-4.759-7.351-7.112 1.95-7.279 9.922-2.483v-5.494l-9.922-2.484-1.95-7.278 7.351-7.111-2.747-4.759-9.835 2.81-5.328-5.328 2.81-9.835-4.758-2.748-7.112 7.352-7.278-1.95-2.484-9.922h-5.494l-2.483 9.922-7.279 1.95-7.112-7.351-4.758 2.747 2.81 9.835-5.327 5.328-9.835-2.81-2.747 4.759 7.351 7.111-1.951 7.278-9.922 2.484v5.494l9.922 2.483 1.951 7.279-7.351 7.112 2.747 4.759 9.835-2.811 5.327 5.327-2.81 9.835 4.758 2.747 7.112-7.35 7.279 1.95 2.483 9.922zm7.056 2h-8.618l-2.576-10.295-5.005-1.341-7.379 7.628-7.457-4.307.209-.753 2.702-9.454-3.663-3.663-10.205 2.916-4.308-7.462 7.627-7.38-1.34-5.004-10.296-2.578v-8.615l10.296-2.577 1.34-5.005-7.627-7.379 4.308-7.462 10.205 2.916 3.663-3.664-2.916-10.204 7.462-4.309 7.379 7.628 5.005-1.341 2.576-10.295h8.618l2.576 10.295 5.005 1.341 7.379-7.627 7.462 4.308-2.916 10.204 3.664 3.664 10.204-2.916 4.309 7.462-7.628 7.379 1.341 5.005 10.295 2.577v8.615l-10.295 2.578-1.341 5.004 7.628 7.38-4.308 7.462-10.205-2.916-3.664 3.663 2.916 10.204-7.457 4.306-.548-.558-6.836-7.066-5.005 1.341-2.576 10.295z"/><path fill="#F58E70" d="M121.998 128.281c-12.052 0-21.857-9.805-21.857-21.857s9.805-21.857 21.857-21.857c12.053 0 21.857 9.805 21.857 21.857s-9.804 21.857-21.857 21.857zm0-50.143c-15.622 0-28.285 12.664-28.285 28.286 0 15.622 12.663 28.286 28.285 28.286s28.286-12.664 28.286-28.286c0-15.622-12.664-28.286-28.286-28.286z"/><path fill="#475059" d="M119.251 150.424h5.494l2.484-9.922 7.278-1.95 7.112 7.35 4.758-2.747-2.81-9.835 5.328-5.327 9.835 2.811 2.747-4.759-7.352-7.112 1.951-7.279 9.922-2.482v-5.495l-9.922-2.484-1.951-7.278 7.352-7.111-2.747-4.759-9.835 2.81-5.328-5.328 2.81-9.835-4.758-2.747-7.112 7.352-7.278-1.951-2.484-9.922h-5.494l-2.483 9.922-7.279 1.951-7.112-7.352-4.758 2.747 2.81 9.835-5.327 5.328-9.835-2.81-2.747 4.759 7.351 7.111-1.951 7.278-9.922 2.484v5.495l9.922 2.482 1.951 7.279-7.351 7.112 2.747 4.759 9.835-2.811 5.327 5.327-2.81 9.835 4.758 2.747 7.112-7.35 7.279 1.95 2.483 9.922zm7.056 2h-8.618l-2.576-10.295-5.005-1.341-7.379 7.628-7.457-4.307.209-.753 2.702-9.454-3.663-3.663-10.205 2.916-4.308-7.462 7.627-7.38-1.34-5.004-10.296-2.577v-8.616l10.296-2.577 1.34-5.005-7.627-7.379 4.308-7.462 10.205 2.916 3.663-3.664-2.916-10.204 7.462-4.309 7.379 7.629 5.005-1.342 2.576-10.295h8.618l2.576 10.295 5.005 1.342 7.379-7.629 7.462 4.309-2.916 10.204 3.664 3.664 10.204-2.916 4.309 7.462-7.628 7.379 1.341 5.005 10.295 2.577v8.616l-10.295 2.577-1.341 5.004 7.628 7.38-4.308 7.462-10.205-2.916-3.664 3.663 2.916 10.204-7.457 4.306-.548-.558-6.836-7.066-5.005 1.341-2.576 10.295z"/><path fill="#475059" d="M121.998 79.139c-15.045 0-27.286 12.24-27.286 27.285 0 15.046 12.241 27.286 27.286 27.286 15.045 0 27.286-12.24 27.286-27.286 0-15.045-12.241-27.285-27.286-27.285zm0 56.571c-16.148 0-29.286-13.138-29.286-29.286 0-16.148 13.138-29.285 29.286-29.285 16.148 0 29.286 13.137 29.286 29.285s-13.138 29.286-29.286 29.286z"/><path fill="#475059" d="M121.998 101.424c-2.757 0-5 2.243-5 5s2.243 5 5 5 5-2.243 5-5-2.243-5-5-5zm0 12c-3.86 0-7-3.141-7-7 0-3.86 3.14-7 7-7s7 3.14 7 7c0 3.859-3.14 7-7 7z"/><path fill="#475059" d="M121.998 90.066c-9.019 0-16.357 7.338-16.357 16.358 0 9.018 7.338 16.356 16.357 16.356 9.02 0 16.357-7.338 16.357-16.356 0-9.02-7.337-16.358-16.357-16.358zm0 34.714c-10.122 0-18.357-8.234-18.357-18.356 0-10.122 8.235-18.358 18.357-18.358 10.123 0 18.357 8.236 18.357 18.358s-8.234 18.356-18.357 18.356z"/><path fill="#5FE0ED" d="M74.021 129.894c-8.218-15.914-8.521-34.428-.807-49.525a53.91 53.91 0 0 1 12.729-16.283c10.145-8.799 23.154-13.645 36.636-13.645 13.48 0 26.491 4.846 36.636 13.644a54.969 54.969 0 0 1 2.116 1.949 55.289 55.289 0 0 1 3.111 3.109c4.205 4.546 7.404 10.387 9.271 16.96.185.654.333 1.316.488 1.977h8.185a52.259 52.259 0 0 0-.995-4.235c-2.188-7.708-6.017-14.67-11.072-20.138a63.604 63.604 0 0 0-3.494-3.494 61.194 61.194 0 0 0-2.365-2.174c-11.601-10.062-26.475-15.603-41.881-15.603-15.407 0-30.281 5.541-41.881 15.603-6.036 5.236-10.952 11.523-14.613 18.689-8.884 17.389-8.576 38.637.825 56.84 2.704 5.236 5.181 12.46 7.269 20.8h8.257c-2.341-9.756-5.214-18.276-8.415-24.474"/><path fill="#475059" d="M146.394 212.563l-3.112-24.356c0-3.972 3.232-7.203 7.203-7.203h18.471c3.773 0 6.85-3.076 6.861-6.857l.016-6.701c.005-1.302.449-2.044.877-2.76.29-.483.588-.981.827-1.77.019-.431.002-2.316-.026-3.998l-.007-.412 2.78-2.891-1.34-2.678v-.237c0-1.806 1.18-3.511 2.806-4.053l.153-.05h4.024c1.088 0 2.057-.411 2.657-1.127.833-.994 1.017-2.327.479-3.479-2.141-4.586-7.396-16.164-9.947-24.603-.538-1.78-.791-3.535-.75-5.22l-.004-16.249a46.267 46.267 0 0 0-1.762-12.636c-1.996-7.027-5.431-13.289-9.954-18.179a58.96 58.96 0 0 0-3.28-3.278 55.653 55.653 0 0 0-2.183-2.007c-10.691-9.273-24.401-14.381-38.604-14.381-14.204 0-27.913 5.108-38.604 14.381-5.547 4.81-10.067 10.592-13.435 17.185-8.152 15.956-7.848 35.496.814 52.267 8.336 16.141 14.394 48.559 14.403 77.083l.102 4.057-1.999.051-.102-4.082c-.01-28.268-5.974-60.3-14.181-76.191-8.957-17.343-9.263-37.566-.818-54.095 3.486-6.823 8.164-12.807 13.906-17.786 11.054-9.588 25.229-14.869 39.914-14.869 14.684 0 28.859 5.281 39.914 14.869a57.44 57.44 0 0 1 2.245 2.063 60.73 60.73 0 0 1 3.377 3.375c4.735 5.12 8.327 11.662 10.388 18.918a48.357 48.357 0 0 1 1.859 13.255l.004 16.273c-.036 1.496.187 3.041.664 4.618 2.514 8.314 7.723 19.789 9.845 24.336.871 1.863.58 4.012-.758 5.609-.982 1.171-2.509 1.842-4.19 1.842h-3.68c-.691.299-1.213 1.064-1.292 1.887l1.75 3.5-3.187 3.313c.06 3.767.011 3.932-.035 4.092-.315 1.086-.726 1.772-1.056 2.324-.368.615-.591.986-.594 1.741l-.016 6.699c-.014 4.88-3.989 8.851-8.861 8.851h-18.471a5.208 5.208 0 0 0-5.202 5.142l3.094 24.164-1.983.253"/><path fill="#2B2B2B" d="M174.675 162.004"/><path fill="#48515A" d="M213 189.437h2v-4h-2zM213 199.437h2v-4h-2zM217 193.437h4v-2h-4zM207 193.437h4v-2h-4zM35 141.437h2v-4h-2zM35 151.437h2v-4h-2zM39 145.437h4v-2h-4zM29 145.437h4v-2h-4zM191 41.436h2v-4h-2zM191 51.436h2v-4h-2zM195 45.436h4v-2h-4zM185 45.436h4v-2h-4z"/><path fill="#5FE0ED" d="M210.317 133.709a3.317 3.317 0 1 1-6.634 0 3.317 3.317 0 0 1 6.634 0m-154.5-68.286a3.317 3.317 0 1 1-6.634 0 3.317 3.317 0 0 1 6.634 0"/><path fill="#F58E70" d="M164.835 198.437a1 1 0 1 1-2 0 1 1 0 0 1 2 0m-110.335-13a2 2 0 1 1-4 0 2 2 0 0 1 4 0"/></g></svg>