<?xml version="1.0" encoding="utf-8"?><svg xmlns="http://www.w3.org/2000/svg" width="250" height="250" viewBox="0 0 250 250"><g fill="none" fill-rule="evenodd"><path fill="#F58E70" d="M132.019 201.498s-2.668-34.179-4-39.513h-.009a1.99 1.99 0 0 0 1.992-1.998v-5.001l-5.083-6.004-4.917 6.004v5.001c0 1.104.904 1.999 2.008 1.998h.007c-1.333 5.334-3.999 39.513-3.999 39.513"/><path fill="#DFE0E0" d="M110.002 133.992v4.369l14.949 8.5 14.958-8.25.093-7.998v-6.741c0-.566 1.111-1.171 1.638-1.784-.18.157-.377.315-.524.474-2.103 2.261-5.305 4.461-7.464 6.305-1.708 1.459-3.88 2.119-6.126 2.119h-6.492c-2.246 0-4.406-.66-6.114-2.119-2.061-1.76-5.06-3.916-7.158-6.082-.063-.065-.136-.087-.205-.153.631.67 1.532 1.371 2.299 2.046-.017.008.146.038.146.058v9.256"/><path fill="#48515A" d="M110.002 138.986a1 1 0 0 1-1-1v-13a1 1 0 1 1 2 0v13a1 1 0 0 1-1 1m47.773-43.543h.01-.01zm-17.773 43.543a1 1 0 0 1-1-1v-14.448l.179-.257c.42-.606.933-1.195 1.429-1.764.677-.776 1.376-1.579 1.606-2.188l6.084-12.641 6.901-3.48 1.575-7.869c-.005-.576-.253-1.155-.685-1.601-.458-.47-1.07-.74-1.68-.74a1 1 0 1 1 0-2c1.147 0 2.281.491 3.113 1.346.828.851 1.283 1.991 1.251 3.128l-.019.168-1.785 8.916-7.163 3.612-5.755 11.947c-.323.865-1.106 1.764-1.935 2.716-.388.444-.786.902-1.116 1.343v13.812a1 1 0 0 1-1 1z"/><path fill="#48515A" d="M128.002 131.986h-6.968c-2.618 0-4.957-.816-6.763-2.359-.654-.557-1.402-1.16-2.186-1.791-3.069-2.473-6.55-5.276-7.505-7.839l-5.639-11.873-6.173-3.543-2.539-9.128c0-2.422 2-4.467 4.367-4.467a1 1 0 0 1 0 2c-1.242 0-2.297 1.059-2.364 2.34l2.239 7.926 6.009 3.449 5.941 12.518c.797 2.128 4.191 4.862 6.919 7.059.8.644 1.563 1.26 2.229 1.829 1.44 1.229 3.329 1.879 5.465 1.879h6.968a1 1 0 1 1 0 2m-67.075 71.516l-2-.008.155-39.841c0-5.943 3.772-7.841 9.102-9.874l31.141-10.612 5.493-10.181h4.184v2h-2.99l-5.3 9.82-31.85 10.854c-5.277 2.013-7.78 3.464-7.78 7.997l-.155 39.845m64.093-55.37l-15.86-8.881a1 1 0 1 1 .977-1.745l14.883 8.334 14.297-8.007a1 1 0 1 1 .977 1.745l-15.274 8.554m65.991 55.368l-2-.003.062-39.721c0-4.794-3.005-6.245-7.953-8.065l-31.849-10.812-6.052-9.913h-3.217v-2h4.34l6.259 10.252 31.186 10.588c5.272 1.939 9.286 3.897 9.286 9.952l-.062 39.722"/><path fill="#48515A" d="M134.019 159.986a1 1 0 0 1-.744-.331l-8.255-9.175-8.258 9.175a1 1 0 0 1-1.487-1.338l9.745-10.826 9.742 10.826a1 1 0 0 1-.743 1.669"/><path fill="#5FE0ED" d="M153.902 92.081h-4.538l-5.299-17.131-17.295-.148a9.06 9.06 0 0 1-8.981-9.153h-5.656a9.075 9.075 0 0 0-9.075 9.075v4.593L99.45 91.998h-4.538V70.186c0-12.53 10.158-22.688 22.688-22.688h19.134a8.14 8.14 0 0 1 8.14 8.14v.935l.973.01a8.141 8.141 0 0 1 8.055 8.14v27.358"/><path fill="#5FE0ED" d="M150.102 91.081h2.799V64.723c0-3.896-3.169-7.099-7.064-7.14l-1.963-.02v-1.925c0-3.937-3.203-7.14-7.141-7.14h-19.132c-11.959 0-21.689 9.729-21.689 21.688v20.812h2.782l3.364-11.821v-4.453c0-5.555 4.519-10.076 10.075-10.076h6.667l-.011 1.011a8.006 8.006 0 0 0 2.307 5.728 8.005 8.005 0 0 0 5.683 2.415l18.026.154 5.297 17.125zm4.799 2h-6.274l-5.301-17.137-16.564-.142a9.994 9.994 0 0 1-7.094-3.014 9.981 9.981 0 0 1-2.84-6.14h-4.695c-4.453 0-8.075 3.623-8.075 8.076l-.038 4.867-3.816 13.407h-6.292V70.186c0-13.062 10.627-23.688 23.689-23.688h19.132c5.023 0 9.112 4.071 9.141 9.085 4.98.062 9.027 4.158 9.027 9.14v28.358z"/></g></svg>