<?xml version="1.0" encoding="utf-8"?><svg xmlns="http://www.w3.org/2000/svg" width="250" height="250" viewBox="0 0 250 250"><g fill="none" fill-rule="evenodd"><path fill="#FFD15D" d="M151.113 108.847l22.803-13.496-49.013-28.678-22.813 13.5 49.023 28.674M100.09 81.328L76 95.476l49.013 28.68 24.1-14.154-49.023-28.674M124.013 125.888L75 97.208v56.923l49.013 28.679v-56.922M165 146.723l-30 17.54v-15.667l30-17.54v15.667zm-38.987-20.836v56.923l48.904-28.804V97.083l-48.904 28.804z"/><path fill="#414A52" d="M139.149 133.717v2.794l21.022-12.136v-2.794l-21.022 12.136M132.143 143.371v2.794l35.069-20.246v-2.795l-35.069 20.247"/><path fill="#48515A" d="M58.07 196.999h133.531v-2H58.07zM58.413 54.999h133.416v-2H58.413zM195.001 139h2V58.278h-2zM198.653 200.028l1.414-1.414 12.66 12.659-1.414 1.414-12.66-12.659"/><path fill="#48515A" d="M212.999 213H205v-2h5.999v-6h2v8M192.999 199.001h6v-6h-6v6zm-2 2h10v-10h-10v10zM37.23 211.304l12.66-12.659 1.414 1.414-12.659 12.659-1.415-1.414"/><path fill="#48515A" d="M45 212.99h-8.083V205h2v5.99H45v2M50.917 198.99h6v-6h-6v6zm-2 2h10v-10h-10v10z"/><path fill="#48515A" d="M52.999 192.001h2V58.278h-2zM198.653 49.881l12.66-12.659 1.414 1.414-12.66 12.659-1.414-1.414"/><path fill="#48515A" d="M212.999 45h-2v-6.092H205v-2h7.999V45M192.999 56.908h6v-6h-6v6zm-2 2h10v-10h-10v10zM35.366 38.653l1.311-1.51 14.575 12.659-1.311 1.51-14.575-12.659"/><path fill="#48515A" d="M37.001 45h-2v-8.082H43v2h-5.999V45M50.917 56.918h6v-6h-6v6zm-2 2.001h10v-10h-10v10zM73 71h2v-4h-2zM73 81h2v-4h-2zM77 75h4v-2h-4zM67 75h4v-2h-4zM175 173h2v-4h-2zM175 183h2v-4h-2zM179 177h4v-2h-4zM169 177h4v-2h-4z"/><path fill="#DEDEDD" d="M209 155.391l-15.565-6.671-2.673 1.604 8.232 8.232-2.828 2.828-8.111-8.111-1.625 3.268L193.227 173l4.834-9.72 8.111 8.111 2.828-2.829-8.232-8.232 8.232-4.939"/><path fill="#48515A" d="M172.854 135.27l10.452 25.309 4.472-8.996 8.388 8.387 1.414-1.414-8.431-8.431 7.654-4.592-23.949-10.263zm10.284 30.14l-14.004-33.911 32.052 13.736-8.812 5.287 8.034 8.034-4.242 4.242-7.835-7.834-5.193 10.446zM195.001 192.001h2V165h-2zM94.069 131.141a2.929 2.929 0 1 0 2.929 2.929v-.001a2.932 2.932 0 0 0-2.929-2.928zm0 7.858a4.93 4.93 0 1 1 4.929-4.93 4.936 4.936 0 0 1-4.929 4.93zm11.002 3.144a2.928 2.928 0 1 0 0 5.856 2.928 2.928 0 0 0 0-5.856zm0 7.857a4.928 4.928 0 1 1 0-9.857 4.928 4.928 0 0 1 0 9.857zM90.22 147.507l17.287-17.287 1.414 1.414-17.287 17.287-1.414-1.414"/><path fill="#FFD15D" d="M31 143a2 2 0 1 1 .001 3.999A2 2 0 0 1 31 143m187 40a3 3 0 1 1 0 6 3 3 0 0 1 0-6M87 173a2 2 0 1 1 .001 3.999A2 2 0 0 1 87 173m84-108a2 2 0 1 1 .001 3.999A2 2 0 0 1 171 65"/><path fill="#48515A" d="M34.001 102a2.948 2.948 0 0 0-3 2.894v.065A3.018 3.018 0 0 0 33.996 108H89.165l6.507-3-6.507-3H34.001zm55.603 8H34.001a5 5 0 0 1 0-10h55.603l10.843 5-10.843 5z"/><path fill="#48515A" d="M40.041 109h2v-8h-2z"/><path fill="#48515A" d="M41.041 106h48v-2h-48zM212.996 102.958h2v-4.001h-2zM212.996 112.958h2v-4h-2zM216.996 106.958h4v-2h-4zM206.996 106.958h4v-2h-4z"/></g></svg>