<?xml version="1.0" encoding="utf-8"?><svg xmlns="http://www.w3.org/2000/svg" width="250" height="250" viewBox="0 0 250 250"><g fill="none" fill-rule="evenodd"><path fill="#DFE0E0" d="M126.874 132.814l-5.165-4.061 7.915-7.605-2.75 11.666"/><path fill="#475059" d="M147.373 163.148h-15.916v-4.898l-5.153-24.954-13.956-10.774 1.222-1.583 14.543 11.227 5.344 25.982v3h11.916v-.369l-6.442-3.074-2.765-29.24-21.209-18.989 1.334-1.49 21.793 19.511.036.39 2.696 28.501 6.557 3.129v3.631"/><path fill="#DFE0E0" d="M114.458 139.564l-11.167.334-.071-6.431h11.999l-.761 6.097"/><path fill="#FFD15D" d="M109.845 109.264l-3.71.725-2.299-6.638 5.957-2.116 1.244 4.7-1.402 1.074.21 2.255zm3.04-32.996l3.875-5.487-9.375-10.648-6 1.718h-.77a4.15 4.15 0 0 0-4.126 3.709l-.866 42.671-2.665 25.833 22-.083 14.833-13.083-12.167-16-4.739-28.63z"/><path fill="#475059" d="M118.385 181.133h-15.999v-5l-.292-24.553 2-.024.292 27.577h11.999v-.369l-6.563-3.132 4.105-41.983 14.345-12.881-11.846-15.633-4.592-29.112 3.646-5.162-7.585-8.337-2.01-2.486v-7.02h1c2.757 0 5-2.243 5-5v-3.452c0-4.962-4.038-9-9-9-4.925 0-8.5 3.603-8.5 8.567v26h-2v-26c0-6.123 4.416-10.567 10.5-10.567 6.065 0 11 4.935 11 11v3.452c0 3.521-2.612 6.442-6 6.929v4.384l1.528 1.892 8.627 9.48-4.104 5.81 4.387 27.814 12.654 16.7-15.134 13.591-3.895 39.813 6.437 3.071v3.631"/><path fill="#475059" d="M102.094 151.58l-.196-16.447H91.775l2.855-26.841.859-42.752c.286-2.71 2.487-4.688 5.126-4.688A5.153 5.153 0 0 1 105.763 66v16.201l5.995 19.397-9.52 3.383-4.43-14.334 1.911-.591 3.813 12.342 5.748-2.043-5.517-18.003V66a3.151 3.151 0 0 0-3.148-3.148 3.143 3.143 0 0 0-3.132 2.813l-.859 42.752-2.626 24.716h9.877l.219 18.423-2 .024"/><path fill="#475059" d="M105.474 111.136l-2.582-7.457 1.889-.655 2.015 5.816 1.969-.384-.177-1.906 1.312-1.004-1.074-4.056 1.934-.511 1.414 5.344-1.492 1.143.242 2.606-5.45 1.064"/><path fill="#5FE0ED" d="M133.43 54.686a2.332 2.332 0 1 1-4.665.001 2.332 2.332 0 0 1 4.665-.001"/><path fill="#48515A" d="M30.5 216.434h-2v-19h48v-18h48v-18h48v-18h49v2h-47v17.288l-.61.712h-47.391v18H78.5v18h-48v17"/><path fill="#FFF" d="M161.445 89.899c-.513 0-.951-.393-.996-.913a3.573 3.573 0 0 1 3.244-3.865 1 1 0 0 1 .173 1.992 1.57 1.57 0 0 0-1.424 1.699 1 1 0 0 1-.997 1.087"/><path fill="#475059" d="M184.188 181.377c-4.963 0-9 4.038-9 9s4.037 9 9 9 9-4.038 9-9-4.037-9-9-9zm0 20c-6.066 0-11-4.935-11-11s4.934-11 11-11c6.065 0 11 4.935 11 11s-4.935 11-11 11zm0-26c-8.272 0-15 6.729-15 15s6.728 15 15 15c8.271 0 15-6.729 15-15s-6.729-15-15-15zm0 32c-9.374 0-17-7.626-17-17 0-9.374 7.626-17 17-17 9.374 0 17 7.626 17 17 0 9.374-7.626 17-17 17z"/><path fill="#475059" d="M184.188 187.377c-1.655 0-3 1.346-3 3s1.345 3 3 3c1.654 0 3-1.346 3-3s-1.346-3-3-3zm0 8c-2.757 0-5-2.243-5-5s2.243-5 5-5 5 2.243 5 5-2.243 5-5 5z"/><path fill="#F58E70" d="M184.188 186.377a4 4 0 1 0 0 8 4 4 0 0 0 0-8"/><path fill="#F58E70" d="M184.188 187.377c-1.655 0-3 1.346-3 3s1.345 3 3 3c1.654 0 3-1.346 3-3s-1.346-3-3-3zm0 8c-2.757 0-5-2.243-5-5s2.243-5 5-5 5 2.243 5 5-2.243 5-5 5z"/><path fill="#475059" d="M157.5 191.434h27v-2h-27z"/><path fill="#475059" d="M150.604 193.434h3.172l3-3-3-3h-3.172l3 3-3 3zm4 2h-8.828l5-5-5-5h8.828l5 5-5 5z"/><path fill="#48515A" d="M142.902 96.226l2.455.797.466-1.437a3.804 3.804 0 0 1 3.673-2.67h.001a3.805 3.805 0 0 1 3.673 2.668l.467 1.436 2.454-.798-.468-1.437c-.527-1.621.024-3.316 1.403-4.319a3.806 3.806 0 0 1 4.541-.001l1.221.887 1.512-2.082-1.212-.866c-1.384-1.005-1.935-2.694-1.411-4.308.525-1.617 1.967-2.662 3.674-2.662h1.511l-.001-3h-1.511c-1.724 0-3.171-1.025-3.687-2.61-.505-1.554.05-3.199 1.414-4.19l1.198-.816-1.439-1.955-1.225.905c-1.387 1.009-3.171 1.011-4.552.008-1.376-.999-1.925-2.69-1.4-4.308l.465-1.43-2.453-.795-.467 1.439c-.526 1.621-1.967 2.67-3.673 2.67h-.001c-1.705 0-3.146-1.046-3.673-2.666l-.467-1.437-2.454.799.468 1.437a3.806 3.806 0 0 1-1.402 4.319c-1.379 1.002-3.161 1.004-4.542.001l-1.221-.886-1.516 2.088 1.223.887a3.807 3.807 0 0 1 1.404 4.318c-.527 1.621-1.968 2.67-3.673 2.67l-1.511.001.002 2.58H133.68c1.704 0 3.145 1.047 3.673 2.668a3.806 3.806 0 0 1-1.402 4.319l-1.221.888 1.471 2.023 1.222-.888c1.379-1.003 3.162-1.004 4.541-.001a3.803 3.803 0 0 1 1.404 4.318l-.466 1.436zm3.74 3.316l-6.26-2.031 1.084-3.339c.309-.949-.147-1.698-.677-2.082-.531-.384-1.383-.586-2.19 0l-2.839 2.065-3.823-5.259 2.839-2.064c.806-.586.878-1.46.675-2.083-.202-.622-.774-1.286-1.771-1.286h-.001l-3.511.001-.002-6.58 3.511-.002c.997 0 1.568-.665 1.771-1.287.202-.623.129-1.496-.678-2.083l-2.84-2.062 3.865-5.326 2.841 2.063c.807.586 1.661.383 2.189-.001.53-.385.985-1.134.676-2.082l-1.085-3.339 6.257-2.036 1.086 3.337c.309.949 1.117 1.286 1.771 1.286h.001c.654 0 1.463-.338 1.771-1.288l1.084-3.339 6.26 2.026-1.084 3.334c-.307.946.145 1.691.672 2.073.529.384 1.385.586 2.195-.003l2.829-2.091 3.858 5.239-2.888 1.966c-.645.469-.902 1.2-.662 1.937.193.593.762 1.228 1.784 1.228h3.511l.001 7h-3.511c-1 0-1.57.661-1.772 1.279-.2.617-.127 1.483.679 2.068l2.845 2.034-3.871 5.33-2.841-2.062c-.807-.586-1.66-.383-2.19.001-.529.385-.984 1.134-.675 2.083l1.085 3.338-6.257 2.035-1.086-3.338c-.309-.948-1.117-1.286-1.772-1.286-.654 0-1.463.338-1.771 1.288l-1.083 3.338z"/><path fill="#F58E70" d="M149.518 78.388a1.74 1.74 0 0 0-.279.023 1.731 1.731 0 0 0-1.139.699c-.274.378-.384.84-.31 1.301.074.46.323.864.7 1.138a1.75 1.75 0 0 0 2.439-.39c.273-.377.384-.839.31-1.3a1.738 1.738 0 0 0-.701-1.138 1.726 1.726 0 0 0-1.02-.333zm-.009 5.491c-.762 0-1.53-.231-2.192-.711a3.717 3.717 0 0 1-1.502-2.442 3.723 3.723 0 0 1 .666-2.789 3.723 3.723 0 0 1 2.442-1.502 3.728 3.728 0 0 1 2.789.667 3.717 3.717 0 0 1 1.502 2.442 3.744 3.744 0 0 1-3.705 4.335z"/><path fill="#48515A" d="M147.304 69.721a1.002 1.002 0 1 1 1.11.88h-.12c-.5 0-.929-.37-.99-.88zm4.63 1.12a.996.996 0 1 1 .5-1.93c.54.14.86.68.721 1.22a1.004 1.004 0 0 1-1.221.71zm-8.24.38a.993.993 0 0 1 .421-1.35.996.996 0 0 1 1.349.42c.26.49.07 1.09-.42 1.35-.15.07-.31.11-.47.11-.36 0-.7-.19-.88-.53zm11.45 1.14c-.01 0-.02-.01-.02-.01-.45-.33-.55-.95-.23-1.4.32-.45.95-.55 1.4-.23a1.009 1.009 0 0 1 .25 1.42 1 1 0 0 1-.81.41c-.21 0-.41-.06-.59-.19zm-14.27 1.56a.99.99 0 0 1-.1-1.41c.36-.41.99-.46 1.41-.1.41.37.46 1 .1 1.41-.2.23-.48.35-.76.35-.23 0-.47-.08-.65-.25zm16.7 1a1.002 1.002 0 0 1 1.68-1.09c.3.46.17 1.08-.3 1.38a1.001 1.001 0 0 1-1.38-.29zm-18.37 2.54a.998.998 0 0 1-.6-1.28.998.998 0 0 1 1.28-.6c.521.19.79.76.6 1.28a.998.998 0 0 1-1.28.6zm19.71.72a.988.988 0 0 1 .77-1.18.997.997 0 0 1 1.181.77c.109.54-.231 1.07-.771 1.19-.07.01-.14.02-.21.02-.46 0-.88-.33-.97-.8zm-21 2.21c-.009-.56.43-1.01.98-1.03.55-.01 1.011.43 1.02.98a.997.997 0 0 1-.98 1.02h-.02c-.54 0-.98-.43-1-.97zm21.89 2.47a1.004 1.004 0 0 1 .33-1.98c.54.09.91.61.82 1.15-.08.49-.51.84-.99.84-.05 0-.099 0-.16-.01zm-21.02 1.69a.998.998 0 0 1 .55-1.3.993.993 0 0 1 1.3.54c.22.51-.03 1.1-.54 1.31-.13.05-.25.08-.38.08-.39 0-.77-.24-.93-.63zm19.34 1.84c-.469-.28-.63-.9-.35-1.37a.99.99 0 0 1 1.37-.35c.48.28.63.89.35 1.37-.18.31-.52.49-.86.49-.17 0-.35-.05-.51-.14zm-17.02 1.74a.996.996 0 0 1 .04-1.41.996.996 0 1 1 1.38 1.44c-.19.19-.44.28-.69.28-.26 0-.53-.1-.73-.31zm14.18.95c-.34-.44-.26-1.06.17-1.41.44-.34 1.06-.26 1.411.17.339.43.259 1.06-.171 1.41-.18.14-.4.21-.62.21-.3 0-.59-.13-.79-.38zm-10.72 1.54c-.5-.23-.71-.83-.48-1.33.24-.5.83-.71 1.33-.47.5.23.71.83.48 1.33a1 1 0 0 1-.91.57c-.14 0-.28-.03-.42-.1zm7.1-.06c-.16-.53.14-1.09.67-1.25a.997.997 0 1 1 .58 1.91.93.93 0 0 1-.29.05c-.43 0-.82-.28-.96-.71zm-2.98 1.14a.998.998 0 0 1 .14-1.99c.55.04.97.52.93 1.07-.04.52-.48.93-1 .93-.02 0-.05 0-.07-.01zM49.5 127.434h2v-4h-2zM49.5 137.434h2v-4h-2zM53.5 131.434h4v-2h-4zM43.5 131.434h4v-2h-4zM189.5 77.434h2v-4h-2zM189.5 87.434h2v-4h-2zM193.5 81.434h4v-2h-4zM183.5 81.434h4v-2h-4zM70.5 87.434h2v-4h-2zM70.5 97.434h2v-4h-2zM74.5 91.434h4v-2h-4zM64.5 91.434h4v-2h-4z"/><path fill="#F58E70" d="M72.097 157.686a2.667 2.667 0 1 1-5.334 0 2.667 2.667 0 0 1 5.334 0"/><path fill="#F58E70" d="M69.43 156.019a1.67 1.67 0 0 0-1.667 1.667 1.67 1.67 0 0 0 1.667 1.667 1.67 1.67 0 0 0 1.667-1.667 1.67 1.67 0 0 0-1.667-1.667zm0 5.334a3.671 3.671 0 0 1-3.667-3.667 3.671 3.671 0 0 1 3.667-3.667 3.671 3.671 0 0 1 3.667 3.667 3.671 3.671 0 0 1-3.667 3.667zm120.012-60.34a1.666 1.666 0 1 1-3.332 0 1.666 1.666 0 0 1 3.332 0"/><path fill="#475059" d="M108.958 97.897h7v-2h-7zM102.886 135.133h11.999v-2h-11.999z"/></g></svg>