<?xml version="1.0" encoding="utf-8"?><svg xmlns="http://www.w3.org/2000/svg" width="250" height="250" viewBox="0 0 250 250"><g fill="none" fill-rule="evenodd"><path fill="#FACD60" d="M162.187 171.581a4.687 4.687 0 0 1-4.687 4.688h-9.18a4.687 4.687 0 0 1-4.687-4.688v-49.414a4.687 4.687 0 0 1 4.687-4.688h9.18a4.687 4.687 0 0 1 4.687 4.688v49.414zm-33.188-2.505a9 9 0 1 1 0-18 9 9 0 0 1 0 18zm-9.015-44.37a2.345 2.345 0 0 1 2.344-2.344h9.375a2.344 2.344 0 0 1 2.344 2.344v18.75a2.344 2.344 0 0 1-2.344 2.344h-9.375a2.345 2.345 0 0 1-2.344-2.344v-18.75zm-9.156 18.75a2.344 2.344 0 0 1-2.343 2.344H99.11a2.344 2.344 0 0 1-2.344-2.344v-18.75a2.344 2.344 0 0 1 2.344-2.344h9.375a2.344 2.344 0 0 1 2.343 2.344v18.75zm-23.827 0a2.345 2.345 0 0 1-2.344 2.344h-9.375a2.345 2.345 0 0 1-2.344-2.344v-18.75a2.345 2.345 0 0 1 2.344-2.344h9.375a2.345 2.345 0 0 1 2.344 2.344v18.75zm103.39 19.492v.012h-20.493a4.717 4.717 0 0 0-4.711 4.711h-2a6.719 6.719 0 0 1 6.711-6.711h17.432v-1.015a2.873 2.873 0 0 0-2.87-2.869h-10.496v.001h-1.059a2.343 2.343 0 0 1-2.343-2.343v-34.862a2.344 2.344 0 0 1 2.343-2.344h3.791l-.303-4.87c-.225-3.311-3.016-5.921-6.352-5.925l-106.285-.111h-.007a6.332 6.332 0 0 0-4.505 1.865 6.334 6.334 0 0 0-1.869 4.51v9.219h4.472a2 2 0 0 1 2 2V143.8a2 2 0 0 1-2 2h-4.472v34.512h4.941c1.415-7.341 7.924-12.905 15.715-12.905 7.791 0 14.3 5.564 15.715 12.905h.54c1.415-7.341 7.923-12.905 15.714-12.905s14.3 5.564 15.715 12.905h39.726c1.415-7.341 7.924-12.905 15.715-12.905 7.52 0 13.845 5.184 15.549 12.146V169.32a6.38 6.38 0 0 0-6.314-6.372z"/><path fill="#75C7D0" d="M99 83.761h-5.778c-1.098-3.622-4.394-6.285-8.342-6.42a13.62 13.62 0 0 0 .175-2.171c.001-7.434-5.981-13.469-13.394-13.56h-.171c-6.715.083-12.255 5.042-13.239 11.5a14.25 14.25 0 0 0-8.558 6.251 14.15 14.15 0 0 0-1.795 4.4H41"/><path fill="#42494E" d="M191 176.022h8.705v-2H191zM110 175.377c-4.411 0-8 3.56-8 7.935s3.589 7.935 8 7.935 8-3.56 8-7.935-3.589-7.935-8-7.935zm0 17.87c-5.514 0-10-4.457-10-9.935 0-5.478 4.486-9.935 10-9.935s10 4.457 10 9.935c0 5.478-4.486 9.935-10 9.935zm-31.969-17.87c-4.411 0-8 3.56-8 7.935s3.589 7.935 8 7.935 8-3.56 8-7.935-3.589-7.935-8-7.935zm0 17.87c-5.514 0-10-4.457-10-9.935 0-5.478 4.486-9.935 10-9.935s10 4.457 10 9.935c0 5.478-4.486 9.935-10 9.935zm103.942-38.171h-8.067a3.348 3.348 0 0 1-3.344-3.344v-31.86c0-1.844 1.5-3.344 3.344-3.344h5.773v2h-5.773c-.741 0-1.344.602-1.344 1.344v31.86c0 .741.603 1.344 1.344 1.344h8.067v2"/><path fill="#42494E" d="M29 193.674h192v-2H29z"/><path fill="#42494E" d="M181.156 175.377c-4.411 0-8 3.56-8 7.935s3.589 7.935 8 7.935 8-3.56 8-7.935-3.589-7.935-8-7.935zm0 17.87c-5.514 0-10-4.457-10-9.935 0-5.478 4.486-9.935 10-9.935s10 4.457 10 9.935c0 5.478-4.486 9.935-10 9.935zm-32.836-74.768a3.692 3.692 0 0 0-3.688 3.688v49.414a3.692 3.692 0 0 0 3.688 3.687h9.18a3.691 3.691 0 0 0 3.687-3.687v-49.414a3.691 3.691 0 0 0-3.687-3.688h-9.18zm9.18 58.789h-9.18a5.695 5.695 0 0 1-5.688-5.687v-49.414a5.695 5.695 0 0 1 5.688-5.688h9.18a5.694 5.694 0 0 1 5.687 5.688v49.414a5.694 5.694 0 0 1-5.687 5.687zm-95.653-30.469h-8.41v-2h8.41c.551 0 1-.448 1-1v-19.584c0-.551-.449-1-1-1h-7.472v-2h7.472c1.654 0 3 1.346 3 3v19.584c0 1.655-1.346 3-3 3"/><path fill="#42494E" d="M161.187 167.675c0-4.808 3.908-8.716 8.711-8.716h20.493v2h-20.493a6.72 6.72 0 0 0-6.711 6.711l-2 .005"/><path fill="#42494E" d="M161.187 183.312h2V167.67h-2zM118 156.026c-.13 0-.26-.021-.38-.07a1.19 1.19 0 0 1-.33-.22.993.993 0 0 1-.29-.71.84.84 0 0 1 .08-.381.994.994 0 0 1 .21-.319c.28-.281.72-.37 1.09-.22a.99.99 0 0 1 .54.539.996.996 0 0 1-.21 1.091.994.994 0 0 1-.71.29m-56.62-1c0-.551.44-1 1-1 .55 0 1 .449 1 1 0 .55-.45 1-1 1-.56 0-1-.45-1-1zm3.97 0c0-.551.45-1 1-1s1 .449 1 1c0 .55-.45 1-1 1s-1-.45-1-1zm3.97 0c0-.551.45-1 1-1 .56 0 1 .449 1 1 0 .55-.44 1-1 1-.55 0-1-.45-1-1zm3.98 0a.996.996 0 1 1 1.99 0 .994.994 0 1 1-1.99 0zm3.97 0c0-.551.45-1 1-1s1 .449 1 1c0 .55-.45 1-1 1s-1-.45-1-1zm3.97 0c0-.551.45-1 1-1s1 .449 1 1c0 .55-.45 1-1 1s-1-.45-1-1zm3.97 0c0-.551.45-1 1-1 .56 0 1 .449 1 1 0 .55-.44 1-1 1-.55 0-1-.45-1-1zm3.98 0c0-.551.44-1 1-1 .55 0 1 .449 1 1 0 .55-.45 1-1 1-.56 0-1-.45-1-1zm3.97 0c0-.551.45-1 1-1s1 .449 1 1c0 .55-.45 1-1 1s-1-.45-1-1zm3.97 0c0-.551.45-1 1-1 .56 0 1 .449 1 1 0 .55-.44 1-1 1-.55 0-1-.45-1-1zm3.98 0c0-.551.44-1 1-1 .55 0 1 .449 1 1 0 .55-.45 1-1 1-.56 0-1-.45-1-1zm3.97 0c0-.551.45-1 1-1s1 .449 1 1c0 .55-.45 1-1 1s-1-.45-1-1zm3.97 0c0-.551.45-1 1-1s1 .449 1 1c0 .55-.45 1-1 1s-1-.45-1-1zm3.97 0a1.004 1.004 0 0 1 2.01 0 1.005 1.005 0 0 1-2.01 0zm-54.61 1a.994.994 0 0 1-1-1c0-.131.02-.261.07-.381a.88.88 0 0 1 .22-.319c.09-.101.2-.17.32-.22a1.019 1.019 0 0 1 1.31.539c.05.12.08.25.08.381 0 .269-.11.519-.3.71a.988.988 0 0 1-.7.29m59.59 9.38c-.13 0-.26-.031-.38-.08a.834.834 0 0 1-.33-.22c-.09-.091-.17-.2-.22-.32a.986.986 0 0 1-.07-.38c0-.13.02-.261.07-.38.06-.131.13-.24.22-.33a1 1 0 0 1 1.09-.221c.12.051.23.131.33.221.09.09.16.199.21.33.05.119.08.25.08.38s-.03.26-.08.38a.999.999 0 0 1-.92.62m-56.62-1c0-.561.44-1 1-1 .55 0 1 .439 1 1 0 .55-.45 1-1 1-.56 0-1-.45-1-1zm3.97 0c0-.561.45-1 1-1s1 .439 1 1c0 .55-.45 1-1 1s-1-.45-1-1zm3.97 0c0-.561.45-1 1-1 .56 0 1 .439 1 1 0 .55-.44 1-1 1-.55 0-1-.45-1-1zm3.98 0c0-.561.44-1 1-1 .55 0 1 .439 1 1 0 .55-.45 1-1 1-.56 0-1-.45-1-1zm3.97 0c0-.561.45-1 1-1s1 .439 1 1c0 .55-.45 1-1 1s-1-.45-1-1zm3.97 0c0-.561.45-1 1-1s1 .439 1 1c0 .55-.45 1-1 1s-1-.45-1-1zm3.97 0c0-.561.45-1 1.01-1 .55 0 .99.439.99 1 0 .55-.44 1-.99 1-.56 0-1.01-.45-1.01-1zm3.98 0c0-.561.45-1 1-1s1 .439 1 1c0 .55-.45 1-1 1s-1-.45-1-1zm3.97 0c0-.561.45-1 1-1s1 .439 1 1c0 .55-.45 1-1 1s-1-.45-1-1zm3.97 0c0-.561.45-1 1-1 .56 0 1 .439 1 1 0 .55-.44 1-1 1-.55 0-1-.45-1-1zm3.98 0c0-.561.45-1 1-1s1 .439 1 1c0 .55-.45 1-1 1s-1-.45-1-1zm3.97 0c0-.561.45-1 1-1s1 .439 1 1c0 .55-.45 1-1 1s-1-.45-1-1zm3.97 0c0-.561.45-1 1-1 .56 0 1 .439 1 1 0 .55-.44 1-1 1-.55 0-1-.45-1-1zm3.98 0c0-.561.44-1 .99-1 .56 0 1.01.439 1.01 1 0 .55-.45 1-1.01 1-.55 0-.99-.45-.99-1zm-54.63 1a.998.998 0 0 1-.7-.3.883.883 0 0 1-.22-.32.986.986 0 0 1-.07-.38c0-.13.02-.261.07-.38.05-.131.12-.24.22-.33.37-.37 1.04-.37 1.41 0a.982.982 0 0 1 .29.71c0 .13-.02.26-.07.38a.883.883 0 0 1-.22.32c-.19.189-.44.3-.71.3m10.154-90.037c-3.361-1.948-7.587-2.29-11.206-.937l-.702-1.873c4.175-1.561 9.037-1.165 12.911 1.079l-1.003 1.731"/><path fill="#42494E" d="M99 84.761h-6.52l-.215-.71a8.043 8.043 0 0 0-7.419-5.711l-1.133-.038.18-1.12c.108-.67.163-1.347.163-2.012 0-6.84-5.566-12.475-12.407-12.56h-.16a12.506 12.506 0 0 0-12.25 10.651l-.1.657-.643.163a13.16 13.16 0 0 0-7.955 5.81 13.119 13.119 0 0 0-1.667 4.091l-.177.779H41v-2h6.119a15.145 15.145 0 0 1 10.256-10.445c1.331-6.737 7.162-11.62 14.102-11.706h.184c7.943.098 14.395 6.63 14.395 14.56 0 .42-.019.844-.057 1.268a10.046 10.046 0 0 1 7.936 6.323H99v2m96.12 97.551h3.585V169.32c0-4.618-3.757-8.375-8.375-8.375h-1v-1a4.874 4.874 0 0 0-4.87-4.869h-3.427l-2.644-42.541c-.297-4.368-3.964-7.798-8.347-7.802l-106.283-.11h-.01a8.318 8.318 0 0 0-5.918 2.449 8.321 8.321 0 0 0-2.457 5.926v69.314h8.692c.518-7.203 6.583-12.905 13.965-12.905 7.381 0 13.447 5.702 13.964 12.905h4.041c.517-7.203 6.583-12.905 13.964-12.905s13.447 5.702 13.964 12.905h43.227c.518-7.203 6.583-12.905 13.965-12.905 7.381 0 13.447 5.702 13.964 12.905zm5.585 2h-7.549v-1c0-6.564-5.384-11.905-12-11.905-6.617 0-12 5.341-12 11.905v1H122v-1c0-6.564-5.383-11.905-12-11.905s-12 5.341-12 11.905v1h-7.969v-1c0-6.564-5.384-11.905-12-11.905-6.617 0-12 5.341-12 11.905v1H53.374v-71.314c0-2.774 1.081-5.381 3.043-7.341a10.308 10.308 0 0 1 7.332-3.034h.012l106.283.11c5.43.006 9.972 4.254 10.341 9.671l2.528 40.672h1.547c3.463 0 6.335 2.575 6.803 5.911 5.285.472 9.442 4.927 9.442 10.333v14.992z"/><path fill="#42494E" d="M122.328 123.362c-.741 0-1.344.602-1.344 1.344v18.75c0 .741.603 1.343 1.344 1.343h9.375c.741 0 1.344-.602 1.344-1.343v-18.75c0-.742-.603-1.344-1.344-1.344h-9.375zm9.375 23.437h-9.375a3.347 3.347 0 0 1-3.344-3.343v-18.75c0-1.844 1.5-3.344 3.344-3.344h9.375c1.844 0 3.344 1.5 3.344 3.344v18.75c0 1.843-1.5 3.343-3.344 3.343z"/><path fill="#42494E" d="M126.016 146.076h2v-24h-2zM99.11 123.362c-.741 0-1.344.602-1.344 1.344v18.75c0 .741.603 1.343 1.344 1.343h9.375c.741 0 1.344-.602 1.344-1.343v-18.75c0-.742-.603-1.344-1.344-1.344H99.11zm9.375 23.437H99.11a3.347 3.347 0 0 1-3.344-3.343v-18.75c0-1.844 1.5-3.344 3.344-3.344h9.375c1.844 0 3.344 1.5 3.344 3.344v18.75c0 1.843-1.5 3.343-3.344 3.343z"/><path fill="#42494E" d="M102.797 146.076h2v-24h-2zM75.282 123.362c-.741 0-1.344.602-1.344 1.344v18.75c0 .741.603 1.343 1.344 1.343h9.375c.74 0 1.344-.602 1.344-1.343v-18.75c0-.742-.604-1.344-1.344-1.344h-9.375zm9.375 23.437h-9.375a3.347 3.347 0 0 1-3.344-3.343v-18.75c0-1.844 1.5-3.344 3.344-3.344h9.375c1.844 0 3.344 1.5 3.344 3.344v18.75c0 1.843-1.5 3.343-3.344 3.343z"/><path fill="#42494E" d="M78.969 146.076h2v-24h-2zM152 175.951h2v-58.25h-2zM78.031 179.367c-2.206 0-4 1.769-4 3.945s1.794 3.945 4 3.945c2.205 0 4-1.769 4-3.945s-1.795-3.945-4-3.945zm0 9.89c-3.309 0-6-2.667-6-5.945 0-3.278 2.691-5.945 6-5.945 3.308 0 6 2.667 6 5.945 0 3.278-2.692 5.945-6 5.945zM110 179.348c-2.206 0-4 1.778-4 3.964s1.794 3.964 4 3.964 4-1.778 4-3.964-1.794-3.964-4-3.964zm0 9.928c-3.309 0-6-2.676-6-5.964 0-3.288 2.691-5.964 6-5.964s6 2.676 6 5.964c0 3.288-2.691 5.964-6 5.964zm71.156-9.928c-2.206 0-4 1.778-4 3.964s1.794 3.964 4 3.964c2.205 0 4-1.778 4-3.964s-1.795-3.964-4-3.964zm0 9.928c-3.309 0-6-2.676-6-5.964 0-3.288 2.691-5.964 6-5.964 3.308 0 6 2.676 6 5.964 0 3.288-2.692 5.964-6 5.964zm-5.876-75.271c-.13 0-.26-.03-.38-.08s-.23-.12-.33-.219c-.18-.18-.29-.441-.29-.701 0-.269.11-.519.29-.71.38-.37 1.05-.37 1.42 0 .19.191.29.441.29.71 0 .26-.1.521-.29.701a.884.884 0 0 1-.32.219c-.13.05-.25.08-.39.08m-113.84-1c0-.559.44-1 .99-1 .56 0 1 .441 1 1a.994.994 0 1 1-1.99 0zm4.03 0c0-.559.44-1 .99-1 .56 0 1 .441 1 1a.994.994 0 1 1-1.99 0zm4.03 0c0-.559.44-1 .99-1a1 1 0 1 1 0 2c-.55 0-.99-.45-.99-1zm4.03 0c0-.559.44-1 .99-1a1 1 0 1 1 0 2c-.55 0-.99-.45-.99-1zm4.03 0c0-.559.44-1 .99-1a1 1 0 1 1 0 2c-.55 0-.99-.45-.99-1zm4.03 0c0-.559.44-1 .99-1a1 1 0 1 1 0 2c-.55 0-.99-.45-.99-1zm4.03 0c0-.559.44-1 1-1 .55 0 1 .441 1 1 0 .55-.45 1-1 1-.56 0-1-.45-1-1zm4.03 0c0-.559.44-1 1-1 .55 0 1 .441 1 1 0 .55-.45 1-1 1-.56 0-1-.45-1-1zm4.03 0c0-.559.44-1 1-1 .55 0 1 .441 1 1 0 .55-.45 1-1 1-.56 0-1-.45-1-1zm4.03 0c0-.559.44-1 1-1 .55 0 1 .441 1 1 0 .55-.45 1-1 1-.56 0-1-.45-1-1zm4.03 0c0-.559.44-1 1-1 .55 0 1 .441 1 1 0 .55-.45 1-1 1-.56 0-1-.45-1-1zm4.03 0c0-.559.44-1 1-1 .55 0 1 .441 1 1 0 .55-.45 1-1 1-.56 0-1-.45-1-1zm4.03 0c0-.559.45-1 1-1s1 .441 1 1c0 .55-.45 1-1 1s-1-.45-1-1zm4.03 0c0-.559.45-1 1-1s1 .441 1 1c0 .55-.45 1-1 1s-1-.45-1-1zm4.03 0c0-.559.45-1 1-1s1 .441 1 1c0 .55-.45 1-1 1s-1-.45-1-1zm4.03 0c0-.559.45-1 1-1s1 .441 1 1c0 .55-.45 1-1 1s-1-.45-1-1zm4.03 0c0-.559.45-1 1-1s1 .441 1 1c0 .55-.45 1-1 1s-1-.45-1-1zm4.03 0c0-.559.45-1 1-1s1 .441 1 1c0 .55-.45 1-1 1s-1-.45-1-1zm4.03 0c0-.559.45-1 1-1s1 .441 1 1c0 .55-.45 1-1 1s-1-.45-1-1zm4.03 0c0-.559.45-1 1-1s1 .441 1 1c0 .55-.45 1-1 1s-1-.45-1-1zm4.03 0c0-.559.45-1 1-1s1 .441 1 1c0 .55-.45 1-1 1s-1-.45-1-1zm4.03 0c0-.559.45-1 1-1s1 .441 1 1c0 .55-.45 1-1 1s-1-.45-1-1zm4.03 0c0-.559.45-1 1-1s1 .441 1 1c0 .55-.45 1-1 1s-1-.45-1-1zm4.03 0c0-.559.45-1 1-1s1 .441 1 1c0 .55-.45 1-1 1s-1-.45-1-1zm4.03 0c0-.559.45-1 1-1s1 .441 1 1c0 .55-.45 1-1 1s-1-.45-1-1zm4.03 0c0-.559.45-1 1-1s1 .441 1 1c0 .55-.45 1-1 1s-1-.45-1-1zm4.03 0c0-.559.45-1 1-1s1 .441 1 1c0 .55-.45 1-1 1s-1-.45-1-1zm4.03 0c0-.559.45-1 1-1 .56 0 1 .441 1 1 0 .55-.44 1-1 1-.55 0-1-.45-1-1zm-111.85 1a.995.995 0 0 1-.7-.299.979.979 0 0 1 0-1.411c.09-.089.2-.16.32-.219.37-.151.81-.061 1.09.219.19.191.29.441.29.71 0 .26-.1.521-.29.701a1.006 1.006 0 0 1-.71.299M32 197.076c0-.55.45-1 1-1s1 .45 1 1c0 .549-.45 1-1 1s-1-.451-1-1zm4 0c0-.55.45-1 1-1s1 .45 1 1c0 .549-.45 1-1 1s-1-.451-1-1zm4 0c0-.55.45-1 1-1s1 .45 1 1c0 .549-.45 1-1 1s-1-.451-1-1zm4 0c0-.55.45-1 1-1s1 .45 1 1c0 .549-.45 1-1 1s-1-.451-1-1zm4 0c0-.55.45-1 1-1s1 .45 1 1c0 .549-.45 1-1 1s-1-.451-1-1zm4 0c0-.55.45-1 1-1s1 .45 1 1c0 .549-.45 1-1 1s-1-.451-1-1zm4 0c0-.55.45-1 1-1s1 .45 1 1c0 .549-.45 1-1 1s-1-.451-1-1zm4 0c0-.55.45-1 1-1s1 .45 1 1c0 .549-.45 1-1 1s-1-.451-1-1zm4 0c0-.55.45-1 1-1s1 .45 1 1c0 .549-.45 1-1 1s-1-.451-1-1zm4 0c0-.55.45-1 1-1s1 .45 1 1c0 .549-.45 1-1 1s-1-.451-1-1zm4 0c0-.55.45-1 1-1s1 .45 1 1c0 .549-.45 1-1 1s-1-.451-1-1zm4 0c0-.55.45-1 1-1s1 .45 1 1c0 .549-.45 1-1 1s-1-.451-1-1zm4 0c0-.55.45-1 1-1s1 .45 1 1c0 .549-.45 1-1 1s-1-.451-1-1zm4 0c0-.55.45-1 1-1s1 .45 1 1c0 .549-.45 1-1 1s-1-.451-1-1zm4 0c0-.55.45-1 1-1s1 .45 1 1c0 .549-.45 1-1 1s-1-.451-1-1zm4 0c0-.55.45-1 1-1s1 .45 1 1c0 .549-.45 1-1 1s-1-.451-1-1zm4 0c0-.55.45-1 1-1s1 .45 1 1c0 .549-.45 1-1 1s-1-.451-1-1zm4 0c0-.55.45-1 1-1s1 .45 1 1c0 .549-.45 1-1 1s-1-.451-1-1zm4 0c0-.55.45-1 1-1s1 .45 1 1c0 .549-.45 1-1 1s-1-.451-1-1zm4 0c0-.55.45-1 1-1s1 .45 1 1c0 .549-.45 1-1 1s-1-.451-1-1zm4 0c0-.55.45-1 1-1s1 .45 1 1c0 .549-.45 1-1 1s-1-.451-1-1zm4 0c0-.55.45-1 1-1s1 .45 1 1c0 .549-.45 1-1 1s-1-.451-1-1zm4 0c0-.55.45-1 1-1s1 .45 1 1c0 .549-.45 1-1 1s-1-.451-1-1zm4 0c0-.55.45-1 1-1s1 .45 1 1c0 .549-.45 1-1 1s-1-.451-1-1zm4 0c0-.55.45-1 1-1s1 .45 1 1c0 .549-.45 1-1 1s-1-.451-1-1zm4 0c0-.55.45-1 1-1s1 .45 1 1c0 .549-.45 1-1 1s-1-.451-1-1zm4 0c0-.55.45-1 1-1s1 .45 1 1c0 .549-.45 1-1 1s-1-.451-1-1zm4 0c0-.55.45-1 1-1s1 .45 1 1c0 .549-.45 1-1 1s-1-.451-1-1zm4 0c0-.55.45-1 1-1s1 .45 1 1c0 .549-.45 1-1 1s-1-.451-1-1zm4 0c0-.55.45-1 1-1s1 .45 1 1c0 .549-.45 1-1 1s-1-.451-1-1zm4 0c0-.55.45-1 1-1s1 .45 1 1c0 .549-.45 1-1 1s-1-.451-1-1zm4 0c0-.55.45-1 1-1s1 .45 1 1c0 .549-.45 1-1 1s-1-.451-1-1zm4 0c0-.55.45-1 1-1s1 .45 1 1c0 .549-.45 1-1 1s-1-.451-1-1zm4 0c0-.55.45-1 1-1s1 .45 1 1c0 .549-.45 1-1 1s-1-.451-1-1zm4 0c0-.55.45-1 1-1s1 .45 1 1c0 .549-.45 1-1 1s-1-.451-1-1zm4 0c0-.55.45-1 1-1s1 .45 1 1c0 .549-.45 1-1 1s-1-.451-1-1zm4 0c0-.55.45-1 1-1s1 .45 1 1c0 .549-.45 1-1 1s-1-.451-1-1zm4 0c0-.55.45-1 1-1s1 .45 1 1c0 .549-.45 1-1 1s-1-.451-1-1zm4 0c0-.55.45-1 1-1s1 .45 1 1c0 .549-.45 1-1 1s-1-.451-1-1zm4 0c0-.55.45-1 1-1s1 .45 1 1c0 .549-.45 1-1 1s-1-.451-1-1zm4 0c0-.55.45-1 1-1s1 .45 1 1c0 .549-.45 1-1 1s-1-.451-1-1zm4 0c0-.55.45-1 1-1s1 .45 1 1c0 .549-.45 1-1 1s-1-.451-1-1zm4 0c0-.55.45-1 1-1s1 .45 1 1c0 .549-.45 1-1 1s-1-.451-1-1zm4 0c0-.55.45-1 1-1s1 .45 1 1c0 .549-.45 1-1 1s-1-.451-1-1zm4 0c0-.55.45-1 1-1s1 .45 1 1c0 .549-.45 1-1 1s-1-.451-1-1zm4 0c0-.55.45-1 1-1s1 .45 1 1c0 .549-.45 1-1 1s-1-.451-1-1zm4 0c0-.55.45-1 1-1s1 .45 1 1c0 .549-.45 1-1 1s-1-.451-1-1zm-186 3c0-.55.45-1 1-1s1 .45 1 1c0 .549-.45 1-1 1s-1-.451-1-1zm4 0c0-.55.45-1 1-1s1 .45 1 1c0 .549-.45 1-1 1s-1-.451-1-1zm4 0c0-.55.45-1 1-1s1 .45 1 1c0 .549-.45 1-1 1s-1-.451-1-1zm4 0c0-.55.45-1 1-1s1 .45 1 1c0 .549-.45 1-1 1s-1-.451-1-1zm4 0c0-.55.45-1 1-1s1 .45 1 1c0 .549-.45 1-1 1s-1-.451-1-1zm4 0c0-.55.45-1 1-1s1 .45 1 1c0 .549-.45 1-1 1s-1-.451-1-1zm4 0c0-.55.45-1 1-1s1 .45 1 1c0 .549-.45 1-1 1s-1-.451-1-1zm4 0c0-.55.45-1 1-1s1 .45 1 1c0 .549-.45 1-1 1s-1-.451-1-1zm4 0c0-.55.45-1 1-1s1 .45 1 1c0 .549-.45 1-1 1s-1-.451-1-1zm4 0c0-.55.45-1 1-1s1 .45 1 1c0 .549-.45 1-1 1s-1-.451-1-1zm4 0c0-.55.45-1 1-1s1 .45 1 1c0 .549-.45 1-1 1s-1-.451-1-1zm4 0c0-.55.45-1 1-1s1 .45 1 1c0 .549-.45 1-1 1s-1-.451-1-1zm4 0c0-.55.45-1 1-1s1 .45 1 1c0 .549-.45 1-1 1s-1-.451-1-1zm4 0c0-.55.45-1 1-1s1 .45 1 1c0 .549-.45 1-1 1s-1-.451-1-1zm4 0c0-.55.45-1 1-1s1 .45 1 1c0 .549-.45 1-1 1s-1-.451-1-1zm4 0c0-.55.45-1 1-1s1 .45 1 1c0 .549-.45 1-1 1s-1-.451-1-1zm4 0c0-.55.45-1 1-1s1 .45 1 1c0 .549-.45 1-1 1s-1-.451-1-1zm4 0c0-.55.45-1 1-1s1 .45 1 1c0 .549-.45 1-1 1s-1-.451-1-1zm4 0c0-.55.45-1 1-1s1 .45 1 1c0 .549-.45 1-1 1s-1-.451-1-1zm4 0c0-.55.45-1 1-1s1 .45 1 1c0 .549-.45 1-1 1s-1-.451-1-1zm4 0c0-.55.45-1 1-1s1 .45 1 1c0 .549-.45 1-1 1s-1-.451-1-1zm4 0c0-.55.45-1 1-1s1 .45 1 1c0 .549-.45 1-1 1s-1-.451-1-1zm4 0c0-.55.45-1 1-1s1 .45 1 1c0 .549-.45 1-1 1s-1-.451-1-1zm4 0c0-.55.45-1 1-1s1 .45 1 1c0 .549-.45 1-1 1s-1-.451-1-1zm4 0c0-.55.45-1 1-1s1 .45 1 1c0 .549-.45 1-1 1s-1-.451-1-1zm4 0c0-.55.45-1 1-1s1 .45 1 1c0 .549-.45 1-1 1s-1-.451-1-1zm4 0c0-.55.45-1 1-1s1 .45 1 1c0 .549-.45 1-1 1s-1-.451-1-1zm4 0c0-.55.45-1 1-1s1 .45 1 1c0 .549-.45 1-1 1s-1-.451-1-1zm4 0c0-.55.45-1 1-1s1 .45 1 1c0 .549-.45 1-1 1s-1-.451-1-1zm4 0c0-.55.45-1 1-1s1 .45 1 1c0 .549-.45 1-1 1s-1-.451-1-1zm4 0c0-.55.45-1 1-1s1 .45 1 1c0 .549-.45 1-1 1s-1-.451-1-1zm4 0c0-.55.45-1 1-1s1 .45 1 1c0 .549-.45 1-1 1s-1-.451-1-1zm4 0c0-.55.45-1 1-1s1 .45 1 1c0 .549-.45 1-1 1s-1-.451-1-1zm4 0c0-.55.45-1 1-1s1 .45 1 1c0 .549-.45 1-1 1s-1-.451-1-1zm4 0c0-.55.45-1 1-1s1 .45 1 1c0 .549-.45 1-1 1s-1-.451-1-1zm4 0c0-.55.45-1 1-1s1 .45 1 1c0 .549-.45 1-1 1s-1-.451-1-1zm4 0c0-.55.45-1 1-1s1 .45 1 1c0 .549-.45 1-1 1s-1-.451-1-1zm4 0c0-.55.45-1 1-1s1 .45 1 1c0 .549-.45 1-1 1s-1-.451-1-1zm4 0c0-.55.45-1 1-1s1 .45 1 1c0 .549-.45 1-1 1s-1-.451-1-1zm4 0c0-.55.45-1 1-1s1 .45 1 1c0 .549-.45 1-1 1s-1-.451-1-1zm4 0c0-.55.45-1 1-1s1 .45 1 1c0 .549-.45 1-1 1s-1-.451-1-1zm4 0c0-.55.45-1 1-1s1 .45 1 1c0 .549-.45 1-1 1s-1-.451-1-1zm4 0c0-.55.45-1 1-1s1 .45 1 1c0 .549-.45 1-1 1s-1-.451-1-1zm4 0c0-.55.45-1 1-1s1 .45 1 1c0 .549-.45 1-1 1s-1-.451-1-1zm4 0c0-.55.45-1 1-1s1 .45 1 1c0 .549-.45 1-1 1s-1-.451-1-1zm4 0c0-.55.45-1 1-1s1 .45 1 1c0 .549-.45 1-1 1s-1-.451-1-1zm4 0c0-.55.45-1 1-1s1 .45 1 1c0 .549-.45 1-1 1s-1-.451-1-1z"/><path fill="#75C7D0" d="M159 94.076h-5.778c-1.098-3.622-4.394-6.285-8.342-6.42.114-.707.176-1.432.176-2.171 0-7.435-5.982-13.469-13.395-13.561h-.172c-6.714.083-12.254 5.042-13.238 11.501a14.246 14.246 0 0 0-8.558 6.251 14.15 14.15 0 0 0-1.795 4.4H101"/><path fill="#42494E" d="M128.554 85.683c-3.361-1.946-7.587-2.29-11.206-.936l-.702-1.874c4.175-1.56 9.037-1.165 12.911 1.08l-1.003 1.73"/><path fill="#42494E" d="M159 95.076h-6.52l-.215-.71a8.043 8.043 0 0 0-7.419-5.711l-1.133-.038.18-1.12c.108-.67.163-1.347.163-2.012 0-6.841-5.566-12.476-12.407-12.561h-.16a12.508 12.508 0 0 0-12.25 10.652l-.1.656-.643.163a13.167 13.167 0 0 0-7.955 5.811 13.137 13.137 0 0 0-1.667 4.09l-.177.78H101v-2h6.119a15.156 15.156 0 0 1 10.256-10.446c1.332-6.737 7.162-11.62 14.102-11.706h.184c7.943.099 14.395 6.63 14.395 14.561 0 .42-.019.844-.056 1.267a10.044 10.044 0 0 1 7.935 6.324H159v2"/><path fill="#75C7D0" d="M203 72.076h-5.778c-1.098-3.622-4.394-6.285-8.342-6.42.114-.707.176-1.432.176-2.171 0-7.435-5.982-13.469-13.395-13.561h-.172c-6.714.083-12.254 5.042-13.238 11.501a14.246 14.246 0 0 0-8.558 6.251 14.15 14.15 0 0 0-1.795 4.4H145"/><path fill="#42494E" d="M172.554 63.683c-3.361-1.946-7.587-2.29-11.206-.936l-.702-1.873c4.175-1.562 9.037-1.166 12.911 1.079l-1.003 1.73"/><path fill="#42494E" d="M203 73.076h-6.52l-.215-.71a8.043 8.043 0 0 0-7.419-5.711l-1.133-.038.18-1.12c.108-.67.163-1.347.163-2.012 0-6.841-5.566-12.476-12.407-12.561h-.16a12.507 12.507 0 0 0-12.25 10.652l-.1.656-.643.163a13.167 13.167 0 0 0-7.955 5.811 13.137 13.137 0 0 0-1.667 4.09l-.177.78H145v-2h6.119a15.156 15.156 0 0 1 10.256-10.446c1.332-6.737 7.162-11.62 14.102-11.706h.184c7.943.099 14.395 6.63 14.395 14.561 0 .42-.019.844-.056 1.267a10.044 10.044 0 0 1 7.935 6.324H203v2"/><path fill="#434A4F" d="M213 96.076h2v-4h-2zM213 106.076h2v-4h-2zM217 100.076h4v-2h-4zM207 100.076h4v-2h-4zM105 60.076h2v-4h-2zM105 70.076h2v-4h-2zM109 64.076h4v-2h-4zM99 64.076h4v-2h-4zM39 96.076h2v-4h-2zM39 106.076h2v-4h-2zM43 100.076h4v-2h-4zM33 100.076h4v-2h-4zM36 137.076c-1.103 0-2 .897-2 2 0 1.102.897 2 2 2s2-.898 2-2c0-1.103-.897-2-2-2zm0 6c-2.206 0-4-1.794-4-4s1.794-4 4-4 4 1.794 4 4-1.794 4-4 4z"/><path fill="#FACD60" d="M193 123.076a1 1 0 1 1-2 0 1 1 0 0 1 2 0m-18-33a2 2 0 1 0 4.001-.001 2 2 0 0 0-4.001.001m22 54a2 2 0 1 1 4 0 2 2 0 0 1-4 0m-154 16a2 2 0 1 1-4 0 2 2 0 0 1 4 0"/><path fill="#E9886C" d="M122.498 160.076a6.5 6.5 0 1 0 13 0 6.5 6.5 0 0 0-13 0"/></g></svg>