<?xml version="1.0" encoding="utf-8"?><svg xmlns="http://www.w3.org/2000/svg" width="250" height="250" viewBox="0 0 250 250"><g fill="none" fill-rule="evenodd"><path fill="#DEDEDD" d="M125 186.976c-33.137 0-60-26.863-60-60 0-33.138 26.863-60.001 60-60.001s60 26.863 60 60.001c0 33.137-26.863 60-60 60zm0-125.001c-35.841 0-65 29.159-65 65.001 0 35.841 29.159 65 65 65s65-29.159 65-65c0-35.842-29.159-65.001-65-65.001z"/><path fill="#5FE0ED" d="M159.407 152.816c-13.668 13.669-35.829 13.669-49.497 0-13.669-13.668-13.669-35.829 0-49.497 13.668-13.669 35.829-13.669 49.497 0 13.669 13.668 13.669 35.829 0 49.497zm-34.408-82.84c-31.48 0-57 25.52-57 57s25.52 57 57 57c31.481 0 57-25.52 57-57s-25.519-57-57-57z"/><path fill="#475059" d="M125 187.976c-8.249 0-12.323-20.228-13.691-28.925l1.975-.31c2.604 16.544 7.203 27.235 11.716 27.235 3.771 0 7.636-7.411 10.338-19.824l1.955.426c-1.74 7.991-5.651 21.398-12.293 21.398m-12.155-89.787l-1.981-.274c1.032-7.492 5.104-31.939 14.136-31.939 7.052 0 11.03 14.863 12.774 23.723l-1.962.387c-2.685-13.638-6.828-22.11-10.812-22.11-5.52 0-10.083 15.174-12.155 30.213M65 127.976h31.625v-2H65zM173.083 127.976H185v-2h-11.917z"/><path fill="#48515A" d="M35 150.976h2v-4h-2zM35 160.976h2v-4h-2zM39 154.976h4v-2h-4zM29 154.976h4v-2h-4zM213 78.976h2v-4h-2zM213 88.976h2v-4h-2zM217 82.976h4v-2h-4zM207 82.976h4v-2h-4z"/><path fill="#FFD15D" d="M185 55.413a2.438 2.438 0 1 1-4.876 0 2.438 2.438 0 0 1 4.876 0"/><path fill="#FFD15D" d="M182.563 53.476a1.94 1.94 0 0 0-1.938 1.937 1.94 1.94 0 0 0 1.938 1.938 1.94 1.94 0 0 0 1.937-1.938 1.94 1.94 0 0 0-1.937-1.937zm0 4.875a2.94 2.94 0 0 1-2.938-2.938 2.94 2.94 0 0 1 2.938-2.937 2.94 2.94 0 0 1 2.937 2.937 2.94 2.94 0 0 1-2.937 2.938z"/><path fill="#DEDEDD" d="M37.875 107.413a2.438 2.438 0 1 1-4.875 0 2.438 2.438 0 0 1 4.875 0"/><path fill="#5FE0ED" d="M83.875 45.413a2.438 2.438 0 1 1-4.875 0 2.438 2.438 0 0 1 4.875 0"/><path fill="#FFD15D" d="M99.875 193.413a2.438 2.438 0 1 1-4.875 0 2.438 2.438 0 0 1 4.875 0"/><path fill="#FFD15D" d="M97.438 191.476a1.94 1.94 0 0 0-1.938 1.937 1.94 1.94 0 0 0 1.938 1.938 1.94 1.94 0 0 0 1.937-1.938 1.94 1.94 0 0 0-1.937-1.937zm0 4.875a2.941 2.941 0 0 1-2.938-2.938 2.94 2.94 0 0 1 2.938-2.937 2.94 2.94 0 0 1 2.937 2.937 2.941 2.941 0 0 1-2.937 2.938z"/><path fill="#DEDEDD" d="M203 174.976a2 2 0 1 1-4 0 2 2 0 0 1 4 0"/><path fill="#48515A" d="M125 187.976c-33.636 0-61-27.365-61-61 0-33.636 27.364-61 61-61 33.636 0 61 27.364 61 61 0 11.784-3.366 23.221-9.735 33.072l-1.68-1.086c6.159-9.527 9.415-20.588 9.415-31.986 0-32.533-26.468-59-59-59-32.533 0-59 26.467-59 59 0 32.532 26.467 59 59 59 15.779 0 30.609-6.151 41.758-17.32l1.416 1.413c-11.527 11.547-26.86 17.907-43.174 17.907"/><path fill="#48515A" d="M125 187.976c-24.813 0-45-27.365-45-61 0-33.636 20.187-61 45-61 19.413 0 36.573 16.751 42.7 41.683l-1.941.477c-5.905-24.021-22.284-40.16-40.759-40.16-23.71 0-43 26.467-43 59 0 32.532 19.29 59 43 59 13.66 0 26.208-8.625 34.426-23.663l1.756.959c-8.454 15.469-21.981 24.704-36.182 24.704"/><path fill="#475059" d="M73.985 95.976h41.89v-2h-41.89zM153 95.976h23.001v-2H153zM73.985 157.976H110.5v-2H73.985zM68.128 185.098a83.926 83.926 0 0 1-1.44-1.422l1.422-1.406c.463.469.932.931 1.407 1.389l-1.389 1.439zm112.131 1.509l-1.348-1.478c.486-.443.967-.893 1.443-1.349l1.384 1.444c-.487.467-.981.928-1.479 1.383zm-109.148 1.226a80.167 80.167 0 0 1-1.508-1.349l1.352-1.474c.485.445.975.884 1.472 1.317l-1.316 1.506zm106.092 1.428l-1.275-1.541c.508-.42 1.01-.846 1.51-1.278l1.308 1.512c-.509.442-1.023.878-1.543 1.307zm-102.977 1.158a77.318 77.318 0 0 1-1.573-1.273l1.277-1.539c.507.421 1.019.835 1.535 1.243l-1.239 1.569zm99.793 1.344l-1.198-1.602a75.734 75.734 0 0 0 1.569-1.202l1.236 1.572a79.49 79.49 0 0 1-1.607 1.232zm-96.557 1.086c-.55-.391-1.094-.79-1.634-1.195l1.201-1.599c.526.395 1.058.783 1.594 1.166l-1.161 1.628zm93.254 1.257l-1.117-1.659a76.74 76.74 0 0 0 1.625-1.123l1.158 1.631c-.55.39-1.106.774-1.666 1.151zm-89.902 1.01a86.354 86.354 0 0 1-1.69-1.113l1.121-1.657a78.09 78.09 0 0 0 1.649 1.086l-1.08 1.684zm86.485 1.167l-1.033-1.712a82.427 82.427 0 0 0 1.679-1.042l1.075 1.686c-.57.363-1.143.719-1.721 1.068zm-83.024.931a79.606 79.606 0 0 1-1.743-1.027l1.037-1.71c.562.34 1.129.674 1.7 1.002l-.994 1.735zm79.505 1.076l-.947-1.762a85.452 85.452 0 0 0 1.73-.957l.99 1.737c-.586.335-1.178.662-1.773.982zm-75.947.849a80.226 80.226 0 0 1-1.791-.94l.951-1.76c.578.313 1.161.619 1.748.918l-.908 1.782zm72.333.98l-.859-1.806a80.822 80.822 0 0 0 1.774-.871l.904 1.784c-.603.306-1.209.603-1.819.893zm-68.685.765a80.248 80.248 0 0 1-1.834-.85l.863-1.804c.593.284 1.19.56 1.791.83l-.82 1.824zm64.984.885l-.768-1.847a78.69 78.69 0 0 0 1.815-.782l.814 1.827c-.617.275-1.237.542-1.861.802zm-61.252.678a80.654 80.654 0 0 1-1.875-.758l.772-1.845c.606.254 1.216.5 1.829.739l-.726 1.864zm57.472.785l-.676-1.883a78.937 78.937 0 0 0 1.852-.691l.723 1.865c-.63.244-1.263.48-1.899.709zm-53.669.589a79.865 79.865 0 0 1-1.911-.664l.681-1.881c.617.224 1.237.439 1.862.647l-.632 1.898zm49.821.685l-.582-1.914c.632-.192 1.26-.391 1.885-.598l.629 1.899c-.641.212-1.285.416-1.932.613zm-45.955.499a81.84 81.84 0 0 1-1.94-.568l.585-1.912c.627.192 1.258.376 1.892.553l-.537 1.927zm42.047.581l-.485-1.94c.64-.16 1.278-.328 1.912-.503l.534 1.927c-.651.18-1.304.352-1.961.516zm-38.129.409a85.145 85.145 0 0 1-1.965-.471l.49-1.939c.636.161 1.276.314 1.918.46l-.443 1.95zm34.172.476l-.389-1.962a77.244 77.244 0 0 0 1.936-.408l.437 1.952c-.659.147-1.32.287-1.984.418zm-30.21.319a85.793 85.793 0 0 1-1.985-.373l.392-1.961c.644.129 1.289.25 1.938.364l-.345 1.97zm26.213.368l-.291-1.979c.654-.096 1.305-.2 1.955-.311l.338 1.971a82.59 82.59 0 0 1-2.002.319zm-22.219.23a87.418 87.418 0 0 1-2-.275l.296-1.978c.649.097 1.3.186 1.953.268l-.249 1.985zm18.19.258l-.191-1.991a75.764 75.764 0 0 0 1.967-.214l.242 1.986c-.671.081-1.343.155-2.018.219zm-14.166.144a83.816 83.816 0 0 1-2.016-.177l.198-1.99c.654.065 1.31.123 1.969.172l-.151 1.995zm10.119.145l-.093-1.998c.661-.031 1.32-.07 1.977-.117l.141 1.995a84.63 84.63 0 0 1-2.025.12zm-6.076.06a79.705 79.705 0 0 1-2.023-.078l.102-1.997a80.7 80.7 0 0 0 1.973.076l-.052 1.999zm2.216.029h-.19v-2h.19c.598 0 1.193-.006 1.788-.019l.043 1.999c-.608.014-1.219.02-1.831.02zm-1.657-161.985l-.039-2a86.87 86.87 0 0 1 1.615-.016l.408.001-.007 2-.401-.001c-.526 0-1.052.006-1.576.016zm5.923.1a80.765 80.765 0 0 0-1.974-.082l.059-1.999c.675.02 1.35.047 2.022.084l-.107 1.997zm-9.869.073l-.137-1.995a84.607 84.607 0 0 1 2.021-.114l.088 1.998c-.659.029-1.317.066-1.972.111zm13.807.233a73.976 73.976 0 0 0-1.966-.176l.155-1.995c.673.052 1.346.113 2.016.182l-.205 1.989zm-17.739.134l-.235-1.987c.669-.079 1.34-.15 2.013-.213l.186 1.992c-.657.061-1.311.13-1.964.208zm21.657.366a83.637 83.637 0 0 0-1.956-.275l.254-1.983c.67.086 1.338.179 2.003.28l-.301 1.978zm-25.567.194l-.332-1.973a87.682 87.682 0 0 1 2.001-.311l.283 1.98a78.47 78.47 0 0 0-1.952.304zm29.455.497a71.373 71.373 0 0 0-1.939-.369l.35-1.97c.666.118 1.329.245 1.989.379l-.4 1.96zm-33.33.257l-.432-1.953a76.53 76.53 0 0 1 1.983-.411l.382 1.963a76.94 76.94 0 0 0-1.933.401zm37.179.627a70.62 70.62 0 0 0-1.919-.466l.448-1.95c.659.152 1.315.311 1.968.478l-.497 1.938zm-41.014.318l-.528-1.928a77.199 77.199 0 0 1 1.96-.51l.479 1.942c-.64.157-1.276.323-1.911.496zm44.814.755a74.968 74.968 0 0 0-1.893-.56l.543-1.925c.651.184 1.298.375 1.942.575l-.592 1.91zm-48.609.385l-.624-1.9a79.305 79.305 0 0 1 1.939-.609l.575 1.916a74.06 74.06 0 0 0-1.89.593zm-3.733 1.327l-.716-1.868a83.269 83.269 0 0 1 1.904-.704l.67 1.885c-.623.221-1.242.45-1.858.687zm-3.66 1.51l-.808-1.829c.618-.274 1.24-.54 1.866-.797l.763 1.848c-.611.252-1.218.511-1.821.778zm-3.578 1.689l-.9-1.786c.604-.304 1.212-.6 1.825-.889l.853 1.809c-.597.281-1.19.57-1.778.866zm-3.491 1.865l-.986-1.741c.588-.333 1.18-.658 1.777-.977l.942 1.764c-.582.311-1.159.629-1.733.954zm-3.39 2.033l-1.072-1.688a82.399 82.399 0 0 1 1.726-1.065l1.028 1.716c-.565.339-1.126.685-1.682 1.037zm-3.287 2.199l-1.153-1.635a85.144 85.144 0 0 1 1.67-1.147l1.113 1.662a76.95 76.95 0 0 0-1.63 1.12zm-3.173 2.355l-1.232-1.576c.532-.415 1.07-.824 1.612-1.227l1.192 1.606c-.529.393-1.053.792-1.572 1.197zm-3.053 2.509l-1.307-1.514a83.346 83.346 0 0 1 1.548-1.304l1.27 1.545c-.509.418-1.013.843-1.511 1.273zm-2.925 2.654l-1.38-1.447c.488-.466.983-.926 1.482-1.379l1.344 1.481c-.487.443-.97.891-1.446 1.345zm-2.79 2.795l-1.449-1.379c.465-.49.936-.973 1.412-1.449l1.415 1.413c-.465.466-.924.937-1.378 1.415zm-2.65 2.925l-1.514-1.306c.44-.511.886-1.016 1.339-1.515l1.482 1.341c-.441.488-.876.981-1.307 1.48zm-2.502 3.053l-1.577-1.231a83.91 83.91 0 0 1 1.263-1.579l1.547 1.268a80.782 80.782 0 0 0-1.233 1.542zM59.51 80.06l-1.636-1.15c.389-.552.783-1.099 1.184-1.639l1.607 1.19a83.23 83.23 0 0 0-1.155 1.599zm-2.187 3.28l-1.691-1.069c.36-.569.727-1.134 1.1-1.694l1.664 1.11a79.188 79.188 0 0 0-1.073 1.653zM55.3 86.722l-1.741-.984c.331-.587.67-1.169 1.016-1.746l1.716 1.027c-.337.563-.667 1.13-.991 1.703zm-1.852 3.476l-1.788-.896c.302-.603.611-1.201.927-1.794l1.765.941c-.308.579-.61 1.161-.904 1.749zm-1.677 3.562l-1.83-.808c.272-.616.551-1.227.837-1.835l1.809.851a80.492 80.492 0 0 0-.816 1.792zm-1.501 3.645l-1.867-.716c.242-.631.491-1.258.747-1.881l1.85.761a78.749 78.749 0 0 0-.73 1.836zm-1.32 3.721l-1.901-.622c.21-.642.428-1.28.653-1.916l1.885.669c-.22.62-.432 1.243-.637 1.869zm-1.133 3.783l-1.93-.525c.177-.653.363-1.301.557-1.947l1.916.573c-.189.63-.37 1.262-.543 1.899zm-.945 3.834l-1.953-.43c.145-.66.298-1.317.459-1.971l1.943.478a81.389 81.389 0 0 0-.449 1.923zm-.752 3.878l-1.973-.332c.112-.668.233-1.332.362-1.993l1.963.382a76.495 76.495 0 0 0-.352 1.943zm-.561 3.91l-1.987-.237c.08-.671.168-1.339.263-2.005l1.98.283c-.093.65-.178 1.303-.256 1.959zm-.368 3.931l-1.995-.136c.046-.675.101-1.348.164-2.018l1.991.186c-.061.654-.115 1.31-.16 1.968zm-.176 3.946l-1.999-.046.012-.512c.014-.505.032-1.007.054-1.508l1.998.089c-.021.489-.039.98-.053 1.472l-.012.505zm-1.983 4.008a85.29 85.29 0 0 1-.033-2.026l2.001-.007c.002.659.013 1.318.031 1.975l-1.999.058zm.214 4.042a84.181 84.181 0 0 1-.132-2.02l1.997-.106c.035.659.078 1.316.129 1.971l-1.994.155zm.413 4.029a78.906 78.906 0 0 1-.232-2.013l1.989-.203c.068.656.143 1.31.226 1.962l-1.983.254zm.61 4.002a81.55 81.55 0 0 1-.331-1.998l1.978-.301c.099.652.207 1.302.322 1.949l-1.969.35zm.81 3.97a77.43 77.43 0 0 1-.43-1.98l1.96-.399c.131.646.27 1.289.419 1.929l-1.949.45zm1.005 3.922a76.1 76.1 0 0 1-.527-1.956l1.937-.496c.164.638.335 1.274.514 1.906l-1.924.546zm1.198 3.868a83.234 83.234 0 0 1-.623-1.927l1.91-.593c.195.63.398 1.257.608 1.88l-1.895.64zm1.391 3.803a78.362 78.362 0 0 1-.719-1.893l1.878-.687c.227.619.46 1.235.701 1.846l-1.86.734zm1.401 3.338a75.984 75.984 0 0 1-.636-1.463l1.842-.78c.202.478.409.954.62 1.427l-1.826.816zm124.77-95.946a73.78 73.78 0 0 0-1.559-1.213l1.209-1.593c.537.407 1.07.822 1.598 1.242l-1.248 1.564zm3.025 2.537a87.482 87.482 0 0 0-1.497-1.288l1.285-1.532c.518.434 1.029.874 1.534 1.319l-1.322 1.501zm2.899 2.684c-.472-.459-.95-.912-1.432-1.359l1.357-1.468c.496.458.986.923 1.469 1.393l-1.394 1.434zm2.762 2.822a79.872 79.872 0 0 0-1.364-1.428l1.43-1.399c.472.482.938.97 1.397 1.464l-1.463 1.363zm2.62 2.956a75.916 75.916 0 0 0-1.292-1.494l1.496-1.327c.449.504.89 1.015 1.326 1.531l-1.53 1.29zm2.475 3.08a79.3 79.3 0 0 0-1.218-1.555l1.559-1.253c.424.527.84 1.058 1.249 1.596l-1.59 1.212zm2.319 3.2a79.38 79.38 0 0 0-1.139-1.614l1.619-1.174c.396.546.786 1.098 1.169 1.655l-1.649 1.133zm2.16 3.31a75.749 75.749 0 0 0-1.059-1.668l1.674-1.095c.37.566.732 1.137 1.087 1.712l-1.702 1.051zm1.995 3.413a80.782 80.782 0 0 0-.976-1.719l1.727-1.009c.34.583.674 1.17 1.001 1.762l-1.752.966zm1.822 3.508a74.691 74.691 0 0 0-.891-1.765l1.776-.923c.311.6.615 1.203.912 1.811l-1.797.877zm1.648 3.594a72.814 72.814 0 0 0-.801-1.806l1.818-.835c.281.614.556 1.233.821 1.854l-1.838.787zm1.467 3.673a78.993 78.993 0 0 0-.711-1.846l1.858-.741c.25.627.493 1.258.728 1.892l-1.875.695zm1.282 3.742a79.43 79.43 0 0 0-.618-1.88l1.893-.647c.219.638.429 1.28.634 1.925l-1.909.602zm1.095 3.802a81.278 81.278 0 0 0-.523-1.908l1.922-.553c.186.649.366 1.301.537 1.956l-1.936.505zm.905 3.853a81.876 81.876 0 0 0-.428-1.932l1.947-.457c.154.657.301 1.317.438 1.981l-1.957.408zm.711 3.895a72.799 72.799 0 0 0-.331-1.951l1.967-.361c.122.665.235 1.332.341 2.002l-1.977.31zm.519 3.928a80.034 80.034 0 0 0-.235-1.968l1.983-.261c.088.67.168 1.342.24 2.016l-1.988.213zm.321 3.936a75.724 75.724 0 0 0-.138-1.97l1.995-.164c.054.672.101 1.345.139 2.02l-1.996.114zm.128 3.949a86.242 86.242 0 0 0-.04-1.976l1.998-.065c.023.673.036 1.347.042 2.023l-2 .018zm1.934 4.031l-1.998-.082a85.423 85.423 0 0 0 .055-1.972l2 .028a62.822 62.822 0 0 1-.057 2.026zm-.26 4.032l-1.992-.177c.057-.653.108-1.31.151-1.969l1.996.132a94.831 94.831 0 0 1-.155 2.014zm-.459 4.018l-1.981-.277c.091-.649.174-1.301.248-1.956l1.987.226a77.987 77.987 0 0 1-.254 2.007zm-.655 3.99l-1.965-.373c.122-.645.237-1.292.343-1.942l1.974.322a76.774 76.774 0 0 1-.352 1.993zm-.851 3.954l-1.943-.47c.154-.638.3-1.278.438-1.923l1.955.419a76.302 76.302 0 0 1-.45 1.974zm-1.047 3.907l-1.918-.565c.185-.63.363-1.263.534-1.9l1.932.518a80.093 80.093 0 0 1-.548 1.947zm-1.239 3.852l-1.889-.66c.218-.62.427-1.243.628-1.87l1.904.611a83.018 83.018 0 0 1-.643 1.919zm-1.431 3.786l-1.851-.755c.247-.608.487-1.22.719-1.836l1.872.705a76.797 76.797 0 0 1-.74 1.886zm-1.616 3.709l-1.812-.845a80.92 80.92 0 0 0 .81-1.8l1.834.8c-.27.619-.547 1.234-.832 1.845zm-1.798 3.625l-1.769-.933c.306-.581.606-1.167.898-1.757l1.793.888c-.3.605-.607 1.206-.922 1.802zm-1.977 3.533l-1.721-1.021c.336-.565.664-1.135.985-1.71l1.746.976a82.22 82.22 0 0 1-1.01 1.755zm-2.148 3.429l-1.668-1.102a88.95 88.95 0 0 0 1.071-1.663l1.693 1.065a86.3 86.3 0 0 1-1.096 1.7zm-2.315 3.321l-1.612-1.184a82.27 82.27 0 0 0 1.15-1.606l1.64 1.144a83.319 83.319 0 0 1-1.178 1.646zm-56.477-80.446c-9.081 0-17.619 3.537-24.041 9.959-6.422 6.422-9.959 14.96-9.959 24.042 0 9.081 3.537 17.62 9.959 24.041 13.256 13.256 34.827 13.256 48.083 0s13.256-34.826 0-48.083c-6.422-6.422-14.96-9.959-24.042-9.959zm0 69.983c-9.219 0-18.437-3.508-25.455-10.527-14.037-14.036-14.037-36.875 0-50.911 6.799-6.8 15.839-10.545 25.455-10.545 9.616 0 18.657 3.745 25.456 10.545 14.036 14.036 14.036 36.875 0 50.911-7.018 7.019-16.237 10.527-25.456 10.527z"/><path fill="#DEDEDD" d="M114.553 115.501c8.263-13.219 25.677-17.237 38.896-8.975a28.124 28.124 0 0 1 8.998 9.008 30.34 30.34 0 0 0-11.631-13.316c-14.276-8.924-33.084-4.584-42.007 9.692-8.924 14.276-4.584 33.084 9.692 42.007a30.334 30.334 0 0 0 17.066 4.621 28.122 28.122 0 0 1-12.04-4.142c-13.219-8.263-17.236-25.677-8.974-38.895"/><path fill="#475059" d="M134.197 94.111c-18.748 0-34 15.252-34 34 0 18.747 15.252 34 34 34 18.748 0 34-15.253 34-34 0-18.748-15.252-34-34-34zm0 70c-19.85 0-36-16.15-36-36 0-19.851 16.15-36 36-36 19.851 0 36 16.149 36 36 0 19.85-16.149 36-36 36z"/><path fill="#DEDEDD" d="M111.094 133.441c-3.504-15.19 5.968-30.344 21.158-33.849a28.109 28.109 0 0 1 12.732.007 30.341 30.341 0 0 0-17.64-1.192c-16.405 3.785-26.635 20.152-22.85 36.557 3.784 16.405 20.152 26.635 36.556 22.85a30.332 30.332 0 0 0 15.335-8.8 28.114 28.114 0 0 1-11.442 5.585c-15.19 3.504-30.344-5.968-33.849-21.158"/><path fill="#475059" d="M171.836 170.017l-15.45-15.451 1.414-1.414 15.45 15.451-1.414 1.414M174.51 167.035l-15.296-15.297 1.414-1.414 15.296 15.297-1.414 1.414"/><path fill="#475059" d="M173.197 169.938l25.846 25.847c.756.755 2.072.755 2.828 0a2.002 2.002 0 0 0 0-2.827l-25.846-25.848-2.828 2.828zm27.26 28.433a3.971 3.971 0 0 1-2.828-1.172l-27.26-27.261 5.656-5.656 27.26 27.261a4.005 4.005 0 0 1 0 5.656 3.973 3.973 0 0 1-2.828 1.172z"/><path fill="#48515A" d="M122.835 139.088c-.554-.554-.835-1.319-.835-2.274 0-3.26 3.384-8.745 8.62-13.972 5.977-5.967 13.48-10.548 16.266-7.768l-1.414 1.415c-1.153-1.153-6.96 1.301-13.44 7.768-5.272 5.264-8.032 10.303-8.032 12.558 0 .404.083.693.249.858l-1.414 1.415"/><path fill="#48515A" d="M146.875 139.139l-1.416-1.413c1.152-1.155-1.303-6.972-7.773-13.458-5.268-5.28-10.306-8.043-12.561-8.042-.404 0-.693.083-.857.248l-1.416-1.412c.553-.555 1.318-.836 2.273-.836 3.261-.001 8.747 3.387 13.977 8.629 5.967 5.983 10.553 13.498 7.773 16.284"/><path fill="#48515A" d="M122.835 139.088c-.554-.554-.835-1.319-.835-2.274 0-3.26 3.384-8.745 8.62-13.972 5.977-5.967 13.48-10.548 16.266-7.768l-1.414 1.415c-1.153-1.153-6.96 1.301-13.44 7.768-5.272 5.264-8.032 10.303-8.032 12.558 0 .404.083.693.249.858l-1.414 1.415"/><path fill="#FFD15D" d="M145.003 126.928c0 5.522-4.477 10-10 10s-10-4.478-10-10c0-5.523 4.477-10 10-10s10 4.477 10 10"/><path fill="#48515A" d="M125.103 139.922c-.92 0-1.694-.26-2.268-.834l1.414-1.415c1.153 1.151 6.961-1.301 13.439-7.768 5.273-5.264 8.032-10.302 8.033-12.557 0-.405-.084-.694-.249-.859l1.414-1.415c.553.554.835 1.32.835 2.274-.001 3.261-3.385 8.745-8.62 13.972-4.744 4.736-10.453 8.601-13.998 8.602"/><path fill="#48515A" d="M144.602 139.976c-3.261 0-8.748-3.388-13.976-8.631-5.968-5.982-10.555-13.496-7.774-16.283l1.416 1.412c-1.153 1.155 1.303 6.972 7.774 13.459 5.266 5.28 10.305 8.043 12.56 8.043.404 0 .692-.084.857-.249l1.416 1.412c-.554.555-1.318.837-2.273.837"/><path fill="#F58E70" d="M157 130.976a2 2 0 1 1-4 0 2 2 0 0 1 4 0m-22 15a1 1 0 1 1-2 0 1 1 0 0 1 2 0m-16-23a2 2 0 1 1-4 0 2 2 0 0 1 4 0"/><path fill="#DEDEDD" d="M213.875 106.538a2.438 2.438 0 1 1-4.875 0 2.438 2.438 0 0 1 4.875 0"/><path fill="#5FE0ED" d="M191.875 201.413a2.438 2.438 0 1 1-4.875 0 2.438 2.438 0 0 1 4.875 0"/><path fill="#48515A" d="M56.15 179.976h.473l1.137-3.197 2.193-.909 3.064 1.457.335-.334-1.458-3.065.909-2.193L66 170.599v-.473l-3.196-1.137-.91-2.193 1.458-3.064-.335-.335-3.064 1.457-2.193-.908-1.137-3.196h-.473l-1.137 3.196-2.193.908-3.064-1.457-.334.335 1.456 3.064-.907 2.193-3.197 1.137v.473l3.197 1.137.907 2.192-1.456 3.065.334.334 3.065-1.457 2.193.909 1.136 3.197zm1.885 2h-3.296l-1.312-3.689-.551-.229-3.536 1.681-2.33-2.33 1.681-3.536-.228-.551-3.689-1.312v-3.295l3.689-1.313.228-.55-1.681-3.536 2.33-2.331 3.536 1.682.551-.229 1.312-3.688h3.296l1.312 3.688.55.229 3.536-1.682 2.331 2.331-1.682 3.536.229.55L68 168.715v3.295l-3.689 1.312-.228.551 1.681 3.536-2.331 2.33-3.536-1.68-.55.228-1.312 3.689z"/><path fill="#DEDEDD" d="M58.825 170.362a2.438 2.438 0 1 1-4.876 0 2.438 2.438 0 0 1 4.876 0"/><path fill="#48515A" d="M56.387 168.925a1.44 1.44 0 0 0-1.438 1.437 1.44 1.44 0 0 0 1.438 1.438 1.44 1.44 0 0 0 1.438-1.438 1.44 1.44 0 0 0-1.438-1.437zm0 4.875a3.442 3.442 0 0 1-3.438-3.438 3.441 3.441 0 0 1 3.438-3.437 3.442 3.442 0 0 1 3.438 3.437 3.442 3.442 0 0 1-3.438 3.438zM162.15 63.976h.473l1.138-3.197 2.191-.909 3.066 1.457.334-.334-1.456-3.065.907-2.193L172 54.599v-.473l-3.197-1.137-.907-2.193 1.456-3.064-.334-.335-3.065 1.457-2.192-.908-1.138-3.197h-.473l-1.136 3.197-2.194.908-3.063-1.457-.335.335 1.457 3.065-.908 2.192-3.198 1.137v.473l3.198 1.136.909 2.193-1.458 3.065.335.334 3.063-1.457 2.194.909 1.136 3.197zm1.885 2h-3.297l-1.31-3.689-.551-.229-3.536 1.681-2.331-2.33 1.681-3.536-.228-.551-3.69-1.312v-3.295l3.69-1.313.228-.55-1.681-3.537 2.331-2.33 3.536 1.681.551-.227 1.31-3.69h3.297l1.312 3.69.549.227 3.538-1.681 2.33 2.331-1.681 3.536.228.551L174 52.715v3.295l-3.689 1.312-.228.55 1.681 3.537-2.33 2.33-3.537-1.68-.55.228-1.312 3.689z"/><path fill="#DEDEDD" d="M164.824 54.362a2.437 2.437 0 1 1-4.874.002 2.437 2.437 0 0 1 4.874-.002"/><path fill="#48515A" d="M162.387 52.925a1.44 1.44 0 0 0-1.438 1.437 1.439 1.439 0 1 0 1.438-1.437zm0 4.875a3.442 3.442 0 0 1-3.438-3.438 3.441 3.441 0 0 1 3.438-3.437 3.441 3.441 0 0 1 3.437 3.437 3.441 3.441 0 0 1-3.437 3.438z"/></g></svg>