<?xml version="1.0" encoding="utf-8"?><svg xmlns="http://www.w3.org/2000/svg" width="250" height="250" viewBox="0 0 250 250"><g fill="none" fill-rule="evenodd"><path fill="#475059" d="M123.187 80.953c-24.262 0-44.001 19.739-44.001 44 0 24.262 19.739 44 44.001 44 24.261 0 44-19.738 44-44 0-24.261-19.739-44-44-44zm0 90c-25.365 0-46-20.635-46-46 0-25.364 20.635-46 46-46 25.364 0 46 20.636 46 46 0 25.365-20.636 46-46 46z"/><path fill="#FFF" d="M100.911 124.953h2.227v-2.227h-2.227z"/><path fill="#5FE0ED" d="M143.679 139.695v-9.573h-6.277l-9.415-9.415v-12.554h21.6v-14.4h-2.4l-4.8 4.8 2.4 2.4-2.4 2.4-2.4-2.4h-4.8l-4.8 4.8h-2.4v-14.4h12v-2.4h-9.6l4.372-4.372a42.01 42.01 0 0 0-23.572.121v21.051l-9.601 7.2.001 9.6h16.8v33.6h-2.4l-16.8-16.8v-14.4h-7.201l-9.974-8.311a42.216 42.216 0 0 0-.826 8.311c0 23.196 18.805 42 42.001 42 14.269 0 26.868-7.122 34.459-18h-4.709l-9.258-9.258m15.692-9.573v16.149a41.712 41.712 0 0 0 4.561-11.116l-4.561-5.033"/><path fill="#FFF" d="M99.187 124.953v-2.4h2.4l-.001-9.6 9.601-7.2V84.702c-14.753 4.392-26.108 16.664-29.175 31.94l9.974 8.311h7.201M99.187 124.953v14.4l16.8 16.8h2.4v-33.6h-16.8v2.4h-2.4"/><path fill="#475059" d="M159.956 162.723a1 1 0 0 1-.707-1.708c19.885-19.884 19.885-52.24 0-72.124a1 1 0 1 1 1.414-1.415c20.665 20.665 20.665 54.289 0 74.954a.997.997 0 0 1-.707.293m-73.539 0a.997.997 0 0 1-.707-.293c-10.011-10.01-15.524-23.32-15.524-37.477 0-14.156 5.513-27.466 15.524-37.477a1 1 0 0 1 1.414 1.415c-9.633 9.632-14.938 22.44-14.938 36.062 0 13.623 5.305 26.43 14.938 36.063a.999.999 0 0 1-.707 1.707"/><path fill="#475059" d="M165.512 162.996h-7v-7a1 1 0 1 1 2 0v5h5a1 1 0 0 1 0 2M86.505 95.001a1 1 0 0 1-1-1v-5h-5a1 1 0 1 1 0-2h7v7a1 1 0 0 1-1 1m2.478 70.467a1 1 0 0 1-.707-.293l-1.471-1.472a.999.999 0 1 1 1.414-1.414l1.471 1.472a.999.999 0 0 1-.707 1.707m69.732-77.644a.997.997 0 0 1-.707-.293l-1.472-1.472a1 1 0 0 1 1.414-1.414l1.472 1.472a.999.999 0 0 1-.707 1.707M79.212 218.411h18.314l71.414-13.838 40.221-24.668c-5.294-4.699-11.717-5.553-17.395-2.241l-25.269 12.184h-43.339v-2h16.964c7.239 0 12.982-5.229 13.494-12.077H108.65c-3.723 0-7.49 1.632-10.335 4.477l-19.004 18.987-.099 19.176zm18.506 2H77.201l.113-22.009 19.587-19.568c3.217-3.217 7.5-5.063 11.749-5.063h47.003v1c0 5.659-3.055 10.496-7.688 13.077h18.075l24.788-11.949c6.678-3.897 14.627-2.582 20.677 3.468l.896.897-42.725 26.203-.177.035-71.781 13.909z"/><path fill="#475059" d="M152.936 183.047a1 1 0 0 1-.461-1.887l28.992-15.02a23.431 23.431 0 0 1 6.168-1.909c3.786-.618 7.603.234 10.48 2.335a13.29 13.29 0 0 1 3.232 3.36l.549.823-10.07 6.877a1 1 0 1 1-1.128-1.652l8.4-5.735a11.426 11.426 0 0 0-2.163-2.058c-2.446-1.787-5.718-2.505-8.978-1.977a21.442 21.442 0 0 0-5.607 1.729l-28.955 15.002a.996.996 0 0 1-.459.112m-73.729 37.451H57.216a1 1 0 0 1 0-2h19.991v-30.985H57.216a1 1 0 0 1 0-2h21.991v34.985"/><path fill="#5FE0ED" d="M40.724 220.996h20.991v-41.977H40.724z"/><path fill="#DEDEDD" d="M148.857 177.771c-2.028 3.071-5.591 5.075-9.736 5.075h-15.963v3.002h16.963c5.38 0 9.791-3.368 11.121-8.077h-2.385m53.37.424l-35.025 21.481-70.869 13.734H81.238l-.015 3.001h16.111l70.869-13.733 37.41-22.944a13.724 13.724 0 0 0-3.386-1.539m-37.645 4.651h-6.667l-3.369 1.745c-.308.434-.632.855-.98 1.257h12.017l24.173-11.652 6.211-4.241-.212-.16c-.863-.63-1.86-1.087-2.927-1.382l-4.073 2.781-24.173 11.652"/><path fill="#475059" d="M169.201 51.181h.009-.009zM38.352 70.096c5.293 4.697 11.714 5.549 17.395 2.24l25.269-12.184h43.339v2h-16.963c-7.24 0-12.983 5.229-13.496 12.077h44.967c3.722 0 7.49-1.632 10.335-4.477l19.005-18.987.098-19.177h-18.314l-71.414 13.84-40.221 24.668zm10.333 6.215c-4.453 0-8.929-1.93-12.677-5.678l-.896-.896 42.725-26.204.178-.035 71.78-13.91h20.517l-.113 22.01-19.587 19.568c-3.218 3.218-7.5 5.063-11.749 5.063H91.859v-1c0-5.658 3.056-10.496 7.688-13.077H81.473L56.685 74.101c-2.541 1.482-5.266 2.21-8 2.21z"/><path fill="#475059" d="M57.459 85.966c-2.953 0-5.798-.88-8.061-2.532a13.306 13.306 0 0 1-3.232-3.36l-.549-.824 10.07-6.876a1 1 0 1 1 1.127 1.652l-8.398 5.736c.62.77 1.344 1.46 2.162 2.057 2.447 1.787 5.719 2.507 8.978 1.976a21.41 21.41 0 0 0 5.608-1.728l28.954-15.002a1 1 0 0 1 .92 1.776l-28.992 15.02a23.429 23.429 0 0 1-6.168 1.908c-.808.132-1.617.197-2.419.197m132.838-21.479h-21.99V29.502h21.99a1 1 0 0 1 0 2h-19.99v30.985h19.99a1 1 0 0 1 0 2"/><path fill="#5FE0ED" d="M185.798 70.981h20.991V29.004h-20.991z"/><path fill="#DEDEDD" d="M98.656 72.229c2.029-3.071 5.591-5.075 9.736-5.075h15.963v-3.002h-16.963c-5.38 0-9.791 3.368-11.121 8.077h2.385m-53.37-.424l35.025-21.481L151.18 36.59h15.095l.016-3.001h-16.112L79.31 47.322 41.9 70.266a13.74 13.74 0 0 0 3.386 1.539m37.645-4.651h6.668l3.368-1.745c.308-.434.632-.855.98-1.257H81.93L57.757 75.804l-6.211 4.241.212.16c.863.63 1.86 1.087 2.927 1.382l4.073-2.781 24.173-11.652"/><path fill="#48515A" d="M57.505 152.002h2v-4h-2zM57.505 162.002h2v-4h-2zM61.505 156.002h4v-2h-4zM51.505 156.002h4v-2h-4z"/><path fill="#5FE0ED" d="M42.494 114.978a4 4 0 1 1-8 0 4 4 0 0 1 8 0m170.102 30.018a4 4 0 1 1-8 0 4 4 0 0 1 8 0"/><path fill="#F58E70" d="M196.506 81.333c-9.374 0-17 7.626-17 17 0 9.374 7.626 17 17 17 9.374 0 17-7.626 17-17 0-9.374-7.626-17-17-17zm0 36c-10.476 0-19-8.523-19-19 0-10.476 8.524-19 19-19 10.477 0 19 8.524 19 19 0 10.477-8.523 19-19 19z"/><path fill="#48515A" d="M196.506 108.334a1 1 0 0 1-1-1V97.333a1 1 0 0 1 1-1h7.001a1 1 0 0 1 0 2h-6.001v9.001a1 1 0 0 1-1 1m-.004-22.998c-.26 0-.52-.11-.7-.3-.1-.09-.17-.2-.22-.32a.986.986 0 0 1-.07-.38c0-.13.02-.26.07-.39.05-.12.12-.23.22-.32.09-.09.2-.17.32-.22.25-.099.52-.099.77 0 .12.05.23.13.32.22s.17.2.22.32c.05.13.07.26.07.39s-.02.26-.07.38-.13.23-.22.32a1 1 0 0 1-.71.3m0 28a.995.995 0 0 1-.7-.3c-.1-.09-.17-.2-.22-.32a.986.986 0 0 1-.07-.38c0-.13.02-.26.07-.39.05-.12.12-.23.22-.32.09-.09.2-.17.32-.22.25-.1.52-.1.77 0 .12.05.23.13.32.22s.17.2.22.32c.05.13.07.26.07.39s-.02.26-.07.38-.13.23-.22.32c-.09.1-.2.17-.32.22-.13.05-.25.08-.39.08m-6.99-26.13c-.27 0-.53-.1-.71-.29a1 1 0 0 1-.3-.71c0-.26.11-.52.3-.71.37-.37 1.04-.37 1.41 0 .19.19.29.45.29.71a.99.99 0 0 1-.99 1m13.99 24.25c-.06 0-.13-.01-.19-.02a.603.603 0 0 1-.19-.06.556.556 0 0 1-.17-.09c-.06-.03-.11-.08-.15-.12-.19-.19-.3-.45-.3-.71 0-.26.11-.52.3-.71.27-.27.72-.36 1.09-.21.12.05.23.12.32.21.09.1.17.21.22.33.05.12.07.25.07.38a.986.986 0 0 1-.29.71c-.09.09-.2.16-.32.21a.88.88 0 0 1-.39.08m-19.12-19.12a.977.977 0 0 1-.38-.08.911.911 0 0 1-.33-.22c-.18-.18-.29-.44-.29-.7 0-.27.11-.52.29-.71.09-.09.2-.17.33-.22.37-.15.81-.06 1.09.22.18.19.29.44.29.71a1.009 1.009 0 0 1-1 1m24.25 14c-.26 0-.52-.11-.71-.3a.443.443 0 0 1-.12-.15.95.95 0 0 1-.1-.17c-.02-.06-.04-.12-.05-.19-.02-.06-.02-.13-.02-.19 0-.07 0-.13.02-.2.01-.06.03-.13.05-.19.03-.06.06-.11.1-.17.03-.05.07-.11.12-.15.23-.23.58-.34.9-.27.07.01.13.03.19.05.06.03.12.06.17.1.06.03.11.07.15.12.05.04.09.1.13.15a.7.7 0 0 1 .09.17c.03.06.05.13.06.19.01.07.02.13.02.2 0 .26-.11.52-.3.7-.04.05-.09.09-.15.13-.05.03-.11.07-.17.09-.06.03-.12.05-.19.06-.06.01-.13.02-.19.02m-26.13-7a.977.977 0 0 1-.38-.08.875.875 0 0 1-.32-.22.976.976 0 0 1 0-1.41c.09-.09.2-.17.32-.22.37-.15.81-.06 1.09.22.19.19.3.45.3.71 0 .06-.01.13-.02.19-.02.07-.04.13-.06.19-.03.06-.06.12-.09.17-.04.06-.08.11-.13.15a1 1 0 0 1-.71.3m28 0c-.26 0-.52-.11-.7-.3a.967.967 0 0 1-.29-.7c0-.13.02-.26.07-.39.05-.12.12-.23.22-.32a.99.99 0 0 1 .9-.27c.06.01.13.03.19.05.06.03.12.06.17.09.05.04.1.08.15.13.09.09.17.2.22.32.05.13.07.26.07.39 0 .26-.1.52-.29.7-.05.05-.1.09-.15.13-.05.03-.11.07-.17.09-.06.03-.13.04-.19.06-.06.01-.13.02-.2.02m-26.12 7c-.13 0-.26-.03-.38-.08a.911.911 0 0 1-.33-.22c-.18-.18-.29-.44-.29-.7 0-.27.11-.52.29-.71.1-.09.2-.17.33-.22.37-.15.81-.06 1.09.22.18.19.29.44.29.71a1.009 1.009 0 0 1-1 1m24.25-14c-.13 0-.26-.029-.39-.08a.875.875 0 0 1-.32-.22.967.967 0 0 1-.29-.7 1.007 1.007 0 0 1 .61-.93c.19-.07.39-.09.58-.05.07.01.13.03.19.05.06.03.12.06.17.09.06.04.11.08.15.13a.976.976 0 0 1 0 1.41c-.04.05-.09.09-.15.13-.05.03-.11.07-.17.09-.06.03-.12.04-.19.06-.06.01-.13.02-.19.02m-19.12 19.12c-.27 0-.53-.11-.71-.29a1 1 0 0 1-.3-.71c0-.26.11-.52.3-.71.37-.37 1.04-.37 1.41 0 .19.19.29.45.29.71a.99.99 0 0 1-.99 1m13.99-24.25c-.06 0-.13 0-.19-.02-.07-.01-.13-.03-.19-.05-.06-.03-.12-.06-.17-.1a.443.443 0 0 1-.15-.12c-.05-.05-.09-.1-.13-.15-.03-.06-.06-.11-.09-.18l-.06-.18c-.01-.07-.02-.13-.02-.2 0-.26.11-.52.3-.71.27-.27.72-.36 1.09-.21.12.05.23.12.32.21.09.1.17.21.22.33.05.12.07.25.07.38a1.016 1.016 0 0 1-.61.93c-.13.05-.25.07-.39.07"/></g></svg>