<?xml version="1.0" encoding="utf-8"?><svg xmlns="http://www.w3.org/2000/svg" width="250" height="250" viewBox="0 0 250 250"><g fill="none" fill-rule="evenodd"><path fill="#475059" d="M54.75 72.999c-1.655 0-3 1.345-3 3V168c0 1.654 1.345 3 3 3h140c1.654 0 3-1.346 3-3V75.999c0-1.655-1.346-3-3-3h-140zM194.75 173h-140a5.007 5.007 0 0 1-5.001-5V75.999a5.007 5.007 0 0 1 5.001-5.001h140c2.756 0 5 2.244 5 5.001V168c0 2.756-2.244 5-5 5z"/><path fill="#475059" d="M105.749 193h38.001v-.833L140.749 174v-1H108.75l-.013.995-2.988 18.171V193zm40.001 2h-42.001l.013-3.079 2.988-18.171V171h35.999v2.917l3.001 18.167V195z"/><path fill="#475059" d="M98.749 195h52.001v-2H98.749z"/><path fill="#DEDEDD" d="M107.967 191h33.562l-2.655-16h-28.275l-2.632 16M53.749 156v12c0 .551.449 1 1.001 1h140c.551 0 1-.449 1-1v-12H53.749"/><path fill="#48515A" d="M35.25 111h2v-4h-2zM35.25 121h2v-4h-2zM39.251 115h4v-2h-4zM29.25 115h4v-2h-4zM212.75 177h2v-4h-2zM212.75 187h2v-4h-2zM216.75 181h4v-2h-4zM206.75 181h4v-2h-4zM212.75 113h2v-4h-2zM212.75 123h2v-4h-2zM216.75 117h4v-2h-4zM206.75 117h4v-2h-4z"/><path fill="#FFD15D" d="M41.625 70.562a2.438 2.438 0 1 1-4.875-.001 2.438 2.438 0 0 1 4.875.001"/><path fill="#FFD15D" d="M39.187 68.624c-1.068 0-1.938.87-1.938 1.938a1.94 1.94 0 0 0 1.938 1.937 1.94 1.94 0 0 0 1.937-1.937 1.94 1.94 0 0 0-1.937-1.938zm0 4.875a2.94 2.94 0 0 1-2.938-2.937 2.941 2.941 0 0 1 2.938-2.938 2.94 2.94 0 0 1 2.937 2.938 2.94 2.94 0 0 1-2.937 2.937z"/><path fill="#5FE0ED" d="M131.625 65.437a2.439 2.439 0 1 1-4.877-.001 2.439 2.439 0 0 1 4.877.001"/><path fill="#DEDEDD" d="M100.75 57a2 2 0 1 1-4-.002 2 2 0 0 1 4 .002m72 128a2 2 0 1 1-4.001-.001 2 2 0 0 1 4.001.001"/><path fill="#48515A" d="M187.75 188c-1.103 0-2 .897-2 2 0 1.102.897 2 2 2 1.102 0 2-.898 2-2 0-1.103-.898-2-2-2zm0 6c-2.207 0-4-1.794-4-4 0-2.207 1.793-4 4-4 2.206 0 4 1.793 4 4 0 2.206-1.794 4-4 4zm-16-134c-1.103 0-2 .897-2 1.999 0 1.103.897 2 2 2 1.102 0 2-.897 2-2a2.002 2.002 0 0 0-2-1.999zm0 5.999c-2.207 0-4-1.793-4-4 0-2.205 1.793-4 4-4 2.206 0 4 1.795 4 4 0 2.207-1.794 4-4 4zM75.749 193h-2v-7.001h-1v-2h3V193"/><path fill="#48515A" d="M72.749 194h4v-2h-4zM211.75 74.999h-2v-7.001h-1v-2h3v9.001"/><path fill="#48515A" d="M208.75 75.999h4v-2h-4zM84.749 178c-.551 0-1 .448-1 1v4a1.001 1.001 0 0 0 2 0v-4a1 1 0 0 0-1-1zm0 8c-1.654 0-3-1.345-3-3v-4c0-1.655 1.346-3 3-3 1.655 0 3 1.345 3 3v4c0 1.655-1.345 3-3 3zM214.75 91.998c-.552 0-1 .449-1 1v4.001a1 1 0 0 0 2 0v-4.001c0-.551-.449-1-1-1zm0 8.001c-1.655 0-3-1.345-3-3v-4.001c0-1.654 1.345-3 3-3 1.654 0 3 1.346 3 3v4.001c0 1.655-1.346 3-3 3z"/></g></svg>