<?xml version="1.0" encoding="utf-8"?><svg xmlns="http://www.w3.org/2000/svg" width="250" height="250" viewBox="0 0 250 250"><g fill="none" fill-rule="evenodd"><path fill="#DDDED9" d="M150.17 136.49h-13.533c-6.556 0-11.871-3.246-11.871-9.802H109.03v.392c0 5.32-3.536 9.992-8.657 11.436a2.834 2.834 0 0 1-3.538-2.746v5.003a2.834 2.834 0 0 0 3.538 2.746 11.882 11.882 0 0 0 8.657-11.436v-.392h15.736c0 6.556 5.315 9.802 11.871 9.802h21.033l-7.5-5.003M55.003 142.923l6.751 2.75 23.999-38-6.75-4.75-24 40M193.003 142.089l-6.168 4.084-23.998-38 6.749-4.75 23.417 38.666"/><path fill="#FACD60" d="M156.582 77.404c0-11.216-9.093-20.309-20.309-20.309-11.216 0-20.309 9.092-20.309 20.308s9.093 20.308 20.309 20.309c11.216 0 20.309-9.092 20.309-20.308"/><path fill="#434A4F" d="M99.658 139.604c-.844 0-1.66-.277-2.34-.804a3.812 3.812 0 0 1-1.483-3.03v-12.1c0-.681.363-1.321.948-1.671l15.15-9.046h42.881a1 1 0 1 1 0 2h-42.329l-14.677 8.764.027 12.053a1.833 1.833 0 0 0 2.29 1.777c4.645-1.31 7.905-5.616 7.905-10.467v-1.392h17.736v1c0 6.49 5.616 8.803 10.871 8.803h13.227a1 1 0 1 1 0 2h-13.227c-7.414 0-12.341-3.813-12.831-9.803h-13.79c-.262 5.491-4.041 10.287-9.371 11.79-.33.085-.661.126-.987.126m-18.859 11.069a.998.998 0 0 1-.909-.583l-2.248-4.894-3.656-2.069a1 1 0 0 1 .986-1.74l4.218 2.387 2.517 5.481a1 1 0 0 1-.908 1.418m45.883 31.222c-1.38 0-2.734-.39-3.928-1.147l-2.998-1.765a1 1 0 0 1 1.015-1.724l3.025 1.782a5.354 5.354 0 0 0 4.074.721 5.332 5.332 0 0 0 3.359-2.363 5.373 5.373 0 0 0-1.66-7.405l-3.824-2.423a1 1 0 0 1 1.07-1.69l3.824 2.424c3.431 2.174 4.453 6.733 2.279 10.164a7.315 7.315 0 0 1-4.61 3.245 7.435 7.435 0 0 1-1.626.181"/><path fill="#434A4F" d="M139.772 175.112a7.326 7.326 0 0 1-3.931-1.142l-10.096-6.399a1 1 0 0 1 1.07-1.69l10.097 6.399a5.372 5.372 0 0 0 7.404-1.66 5.371 5.371 0 0 0-1.66-7.404l-10.096-6.399a1 1 0 1 1 1.07-1.689l10.097 6.398a7.315 7.315 0 0 1 3.244 4.611 7.315 7.315 0 0 1-.966 5.554 7.368 7.368 0 0 1-6.233 3.421"/><path fill="#434A4F" d="M152.857 168.338c-1.38 0-2.734-.39-3.928-1.147l-16.369-10.374a1 1 0 1 1 1.07-1.689l16.369 10.373a5.335 5.335 0 0 0 4.046.704 5.334 5.334 0 0 0 3.358-2.363 5.335 5.335 0 0 0 .704-4.046 5.333 5.333 0 0 0-2.363-3.359l-16.369-10.373a1.001 1.001 0 0 1 1.071-1.69l16.368 10.374a7.318 7.318 0 0 1 3.245 4.61 7.32 7.32 0 0 1-.966 5.554 7.32 7.32 0 0 1-4.611 3.245 7.433 7.433 0 0 1-1.625.181"/><path fill="#434A4F" d="M165.909 161.565a7.332 7.332 0 0 1-3.947-1.147l-22.587-14.355a1 1 0 1 1 1.072-1.688l22.588 14.356c2.485 1.578 5.812.855 7.418-1.611a5.356 5.356 0 0 0 .746-4.118 5.36 5.36 0 0 0-2.42-3.412l-19.443-12.078a1 1 0 1 1 1.056-1.699l19.442 12.078a7.336 7.336 0 0 1 3.317 4.677 7.34 7.34 0 0 1-1.021 5.642c-1.412 2.169-3.796 3.355-6.221 3.355M50.485 137.692l17.704 11.538 24.17-35.97-17.703-11.538-24.171 35.97zm18.264 14.29L47.694 138.26l26.401-39.29 21.055 13.721-26.401 39.291z"/><path fill="#434A4F" d="M169 149.382a1 1 0 0 1-.901-1.432l2.003-4.181 3.671-2.077a1 1 0 0 1 .984 1.741l-3.123 1.767-1.731 3.614a1 1 0 0 1-.903.568m-85.826.868c-.364 0-.732.04-1.097.12a5.017 5.017 0 0 0-3.165 2.212 5.052 5.052 0 0 0 1.538 6.968l.283.18a5.052 5.052 0 0 0 6.968-1.538 5.052 5.052 0 0 0-1.539-6.967l-.283-.18a5.002 5.002 0 0 0-2.705-.795zm.262 12.271a7.004 7.004 0 0 1-3.779-1.105h.001l-.284-.18c-3.274-2.091-4.238-6.455-2.147-9.73a6.997 6.997 0 0 1 4.419-3.089 7.001 7.001 0 0 1 5.309.942l.283.18c3.274 2.09 4.238 6.455 2.148 9.729a7.045 7.045 0 0 1-5.95 3.253zm31.065 7.729a5.047 5.047 0 0 0-4.261 2.33 5.052 5.052 0 0 0 1.538 6.967l.284.181a5.017 5.017 0 0 0 3.801.674 5.01 5.01 0 0 0 3.166-2.213 5.012 5.012 0 0 0 .673-3.801 5.01 5.01 0 0 0-2.212-3.165l-.284-.182a5.014 5.014 0 0 0-2.705-.791zm.261 12.273a6.996 6.996 0 0 1-3.777-1.11l-.282-.18c-3.275-2.091-4.239-6.455-2.148-9.729a7.051 7.051 0 0 1 9.728-2.148l.284.181a6.999 6.999 0 0 1 3.088 4.419 6.994 6.994 0 0 1-.941 5.309 6.993 6.993 0 0 1-4.419 3.089 7.087 7.087 0 0 1-1.533.169z"/><path fill="#434A4F" d="M90.972 166.266a5.22 5.22 0 0 0 7.199-1.59l2.912-4.561a5.22 5.22 0 0 0-1.59-7.199 5.19 5.19 0 0 0-3.929-.696 5.18 5.18 0 0 0-3.27 2.285l-2.912 4.562a5.22 5.22 0 0 0 1.59 7.199zm2.79 2.821a7.162 7.162 0 0 1-3.866-1.135c-3.352-2.141-4.339-6.609-2.199-9.961l2.911-4.562a7.17 7.17 0 0 1 4.525-3.163 7.163 7.163 0 0 1 5.436.964 7.166 7.166 0 0 1 3.162 4.525 7.16 7.16 0 0 1-.963 5.436l-2.912 4.561a7.166 7.166 0 0 1-4.525 3.163 7.279 7.279 0 0 1-1.569.172z"/><path fill="#434A4F" d="M108.993 155.928c-.377 0-.757.041-1.134.125a5.173 5.173 0 0 0-3.27 2.285l-4.733 7.414a5.22 5.22 0 0 0 1.59 7.2 5.182 5.182 0 0 0 3.929.696 5.178 5.178 0 0 0 3.27-2.286l4.732-7.414a5.182 5.182 0 0 0 .697-3.929 5.182 5.182 0 0 0-2.286-3.27 5.173 5.173 0 0 0-2.795-.821zm-4.757 19.845a7.155 7.155 0 0 1-3.866-1.136 7.168 7.168 0 0 1-3.163-4.525 7.166 7.166 0 0 1 .964-5.436l4.732-7.414c2.14-3.352 6.609-4.339 9.961-2.199 3.353 2.14 4.339 6.608 2.199 9.961l-4.732 7.414a7.17 7.17 0 0 1-4.525 3.163 7.295 7.295 0 0 1-1.57.172zm7.973-60.82H93.754a1 1 0 0 1 0-2h18.455a1 1 0 1 1 0 2m44.007-1.685l24.169 35.971 16.878-10.743-24.169-35.97-16.878 10.742zm23.597 38.705l-26.401-39.291 20.254-12.891 26.401 39.291-20.254 12.891zM131.954 148.88c-.13 0-.26-.02-.38-.07s-.23-.13-.32-.22c-.05-.04-.09-.1-.13-.15-.03-.05-.061-.11-.09-.17-.03-.06-.04-.13-.06-.19-.01-.06-.02-.13-.02-.2 0-.06.01-.13.02-.19.02-.06.03-.13.06-.19.029-.06.06-.12.09-.17.04-.05.08-.11.13-.15.09-.09.2-.17.32-.22.25-.1.52-.1.77 0 .12.05.23.13.32.22.05.04.09.1.12.15.04.05.07.11.1.17.02.06.04.13.05.19.02.06.02.13.02.19 0 .07 0 .14-.02.2-.01.06-.03.13-.05.19a.95.95 0 0 1-.1.17c-.03.05-.07.11-.12.15-.09.09-.2.17-.32.22-.13.05-.261.07-.39.07M125.344 159.28a.991.991 0 0 1-.38-.08 1.19 1.19 0 0 1-.33-.22c-.18-.18-.29-.44-.29-.7a1.046 1.046 0 0 1 .29-.71c.1-.09.21-.17.33-.22.369-.15.809-.06 1.09.22a1.025 1.025 0 0 1 .29.71c0 .13-.031.26-.08.38-.05.12-.12.23-.21.32-.19.19-.45.3-.71.3"/><path fill="#75C7D0" d="M55.562 147.392l-26.559-18.61 30.635-45.576 26.559 18.609-30.635 45.577M193.624 148.205l27.373-19.423-30.635-45.576-27.372 19.423 30.634 45.576"/><path fill="#434A4F" d="M195.421 134.59a2.145 2.145 0 0 0-2.143 2.142c0 1.182.961 2.143 2.143 2.143a2.145 2.145 0 0 0 2.143-2.143 2.145 2.145 0 0 0-2.143-2.142zm0 6.285a4.148 4.148 0 0 1-4.143-4.143 4.147 4.147 0 0 1 4.143-4.142 4.147 4.147 0 0 1 4.143 4.142 4.147 4.147 0 0 1-4.143 4.143zm-141.92-6.285a2.145 2.145 0 0 0-2.143 2.142c0 1.182.961 2.143 2.143 2.143a2.145 2.145 0 0 0 2.143-2.143 2.145 2.145 0 0 0-2.143-2.142zm0 6.285a4.148 4.148 0 0 1-4.143-4.143 4.147 4.147 0 0 1 4.143-4.142 4.147 4.147 0 0 1 4.143 4.142 4.147 4.147 0 0 1-4.143 4.143z"/><path fill="#42494E" d="M133.906 74.633H78.741c-1.655 0-3 1.346-3 3s1.345 3 3 3h55.165l6.506-3-6.506-3zm.438 8H78.741c-2.757 0-5-2.243-5-5s2.243-5 5-5h55.603l10.844 5-10.844 5z"/><path fill="#42494E" d="M84.351 81.633h2v-7.598h-2z"/><path fill="#42494E" d="M85.351 78.604h48.005v-2H85.351zM209.592 180.563l-1.902-.62.414-1.27-1.569-.511c-1.688-.55-2.778-2.053-2.776-3.829.002-1.776 1.095-3.276 2.783-3.822l1.571-.509-.874-2.698-1.571.508c-1.691.548-3.454-.028-4.496-1.465-1.042-1.437-1.04-3.294.005-4.729l.972-1.335-2.294-1.669-.971 1.334c-1.046 1.435-2.812 2.006-4.498 1.457-1.688-.55-2.778-2.053-2.776-3.828l.001-1.651-2.836-.002-.002 1.65c-.002 1.775-1.094 3.276-2.783 3.823-1.691.547-3.453-.028-4.496-1.466l-.969-1.336-2.296 1.665.969 1.336c1.042 1.438 1.04 3.294-.005 4.729-1.045 1.436-2.812 2.007-4.499 1.457l-1.569-.512-.414 1.27-1.901-.62 1.033-3.171 3.471 1.131c1.029.335 1.844-.158 2.262-.732.418-.574.639-1.501.003-2.378l-2.143-2.956 5.535-4.012 2.142 2.955c.637.878 1.586.955 2.261.737.676-.219 1.398-.838 1.399-1.922l.004-3.65 6.836.006-.003 3.65c-.001 1.084.72 1.706 1.396 1.926.674.219 1.624.143 2.261-.733l2.149-2.951 5.527 4.023-2.149 2.952c-.638.876-.419 1.803-.002 2.378.417.575 1.23 1.07 2.26.737l3.474-1.125 2.105 6.504-3.472 1.124c-1.031.334-1.399 1.212-1.4 1.922-.001.711.366 1.59 1.396 1.926l3.47 1.131-1.033 3.171"/><path fill="#42494E" d="M199.172 177.253l-1.901-.62a7.415 7.415 0 0 0-.443-5.695 7.413 7.413 0 0 0-4.34-3.714c-3.91-1.275-8.133.87-9.409 4.783l-1.901-.62a9.397 9.397 0 0 1 4.709-5.503 9.405 9.405 0 0 1 7.221-.561c4.961 1.617 7.682 6.969 6.064 11.93"/><path fill="#42494E" d="M190.194 183.706c-.97 0-1.956-.15-2.927-.467-4.961-1.618-7.681-6.97-6.063-11.931l1.901.621c-1.276 3.912.869 8.133 4.782 9.409 3.911 1.276 8.134-.869 9.409-4.782l1.902.62c-1.302 3.99-5.018 6.53-9.004 6.53"/><path fill="#42494E" d="M193.597 194.641l-6.836-.007.004-3.651c.001-1.083-.72-1.705-1.395-1.925-.676-.22-1.624-.144-2.263.733l-2.149 2.951-5.526-4.025 2.149-2.951c.638-.876.419-1.802.002-2.377-.416-.575-1.231-1.071-2.26-.738l-3.473 1.125-2.106-6.504 3.473-1.124c1.031-.334 1.399-1.212 1.4-1.923 0-.71-.366-1.588-1.396-1.924l-3.471-1.132 1.167-3.577 1.901.62-.546 1.676 1.569.511c1.688.551 2.777 2.053 2.776 3.828-.002 1.776-1.095 3.276-2.784 3.823l-1.57.509.874 2.698 1.57-.508c1.689-.546 3.454.028 4.496 1.466 1.042 1.438 1.04 3.294-.006 4.729l-.971 1.334 2.293 1.67.971-1.334c1.045-1.436 2.811-2.008 4.5-1.457 1.687.55 2.777 2.053 2.775 3.828l-.002 1.651 2.836.003.002-1.651c.002-1.775 1.094-3.276 2.784-3.822 1.689-.547 3.454.029 4.495 1.466l.969 1.336 2.297-1.665-.969-1.336c-1.042-1.437-1.04-3.293.005-4.729 1.045-1.435 2.809-2.009 4.499-1.456l1.569.511.601-1.841 1.901.62-1.221 3.743-3.47-1.132c-1.029-.336-1.844.158-2.262.732-.418.575-.638 1.501-.003 2.378l2.142 2.955-5.534 4.013-2.143-2.955c-.637-.878-1.586-.957-2.261-.738-.675.219-1.398.839-1.399 1.922l-.004 3.651"/><path fill="#434A4F" d="M116.662 88.14l.2.349a22.58 22.58 0 0 0 6.018 6.822l1.301.92a22.348 22.348 0 0 0 10.614 3.512 1 1 0 0 1 .802.501 12.404 12.404 0 0 0 8.711 6.066 7.66 7.66 0 0 1-2.331-5.509v-.99c0-.443.291-.832.715-.959a22.356 22.356 0 0 0 12.381-9.259c3.368-5.201 4.421-11.384 2.966-17.409-1.454-6.021-5.222-11.045-10.611-14.147-10.002-5.758-23.346-2.612-29.745 7.012a22.336 22.336 0 0 0-1.021 23.091zm32.99 20.336h-3.337c-4.948 0-9.566-2.584-12.179-6.778a24.384 24.384 0 0 1-11.076-3.811l-1.36-.961a24.618 24.618 0 0 1-6.573-7.442l-.206-.359-.011-.019a24.329 24.329 0 0 1 1.108-25.164c7.089-10.663 21.324-14.017 32.408-7.638 5.869 3.378 9.973 8.851 11.557 15.411 1.585 6.564.438 13.298-3.231 18.965a24.356 24.356 0 0 1-12.775 9.864v.257a5.678 5.678 0 0 0 2.216 4.499 5.623 5.623 0 0 0 3.459 1.176 1 1 0 1 1 0 2z"/><path fill="#75C7D0" d="M169.003 85.923a3 3 0 1 1-6 0 3 3 0 0 1 6 0m-119 67.75a3 3 0 1 1-6 0 3 3 0 0 1 6 0"/><path fill="#42494E" d="M71.425 165.754a10.666 10.666 0 0 0-7.594 3.146 10.67 10.67 0 0 0-3.146 7.595c0 5.923 4.818 10.741 10.741 10.741s10.741-4.818 10.741-10.741c0-5.922-4.818-10.741-10.741-10.741h-.001zm.001 23.482c-7.026 0-12.741-5.716-12.741-12.741 0-3.403 1.325-6.603 3.731-9.009a12.656 12.656 0 0 1 9.009-3.732h.001c7.025 0 12.741 5.716 12.741 12.741 0 7.025-5.716 12.741-12.741 12.741z"/><path fill="#42494E" d="M71.425 165.754c-2.885 0-5.323 4.919-5.323 10.741s2.438 10.741 5.323 10.741c2.885 0 5.322-4.919 5.322-10.741s-2.437-10.741-5.322-10.741zm0 23.482c-4.106 0-7.322-5.596-7.322-12.741s3.216-12.741 7.322-12.741 7.322 5.596 7.322 12.741-3.216 12.741-7.322 12.741z"/><path fill="#42494E" d="M59.685 177.495h23.482v-2H59.685z"/><path fill="#FACD60" d="M163.003 170.923a2 2 0 1 1-4 0 2 2 0 0 1 4 0"/><path fill="#42494E" d="M112.253 100.458c-.669 0-1.214.545-1.214 1.215 0 .669.545 1.214 1.214 1.214.67 0 1.215-.545 1.215-1.214 0-.67-.545-1.215-1.215-1.215zm0 4.429a3.218 3.218 0 0 1-3.214-3.214 3.218 3.218 0 0 1 3.214-3.215 3.218 3.218 0 0 1 3.215 3.215 3.218 3.218 0 0 1-3.215 3.214z"/><path fill="#434A4F" d="M147.003 186.923h2v-4h-2zM147.003 196.923h2v-4h-2zM151.003 190.923h4v-2h-4zM141.003 190.923h4v-2h-4zM185.003 66.923h2v-4h-2zM185.003 76.923h2v-4h-2zM189.003 70.923h4v-2h-4zM179.003 70.923h4v-2h-4z"/></g></svg>