<?xml version="1.0" encoding="utf-8"?><svg xmlns="http://www.w3.org/2000/svg" width="250" height="250" viewBox="0 0 250 250"><g fill="none" fill-rule="evenodd"><path fill="#DBDBD5" d="M144.178 70.33h10.583l5.958 5.958s-11.041 1.959-16.541-5.958m33.182 84.423h-48.764s4.875 5.785 7.875 7.41l-3.75 6.75h36.625l8.014-14.16M70.932 163.83l6.552 10.967h25.612l5.333-5.317-3-5.65H70.932M89.979 119.112v6.003h11.342l-.001-6.003H89.979M173.659 100.85c-5.702-6.237-11.47-8.504-16.218-9.051a9.74 9.74 0 0 0-.502-.043c-5.754-.341-11.102 2.999-13.607 8.192l-1.611 3.34c.142-.039 7.807-3.928 7.959-3.966 4.856-1.233 14.51-1.826 23.979 8.533.434.475.709.772.709.772l9.427-8.318v-7.004l-9.427 8.318s-.275-.297-.709-.773M146.463 198.159v7.004h43.361l-.001-7.004h-43.36M62.963 205.163h25.35v-6.003h-25.35z"/><path fill="#E9886C" d="M130.991 187.777v-3.159l-7.293-7.768a3 3 0 0 1-.419-3.541l5.328-9.334c-11.24-10.171-17.636-24.528-17.636-39.781v-4.931a3 3 0 0 1 3-3h1.952a2.587 2.587 0 0 0 2.584-2.584 2.587 2.587 0 0 0-2.584-2.584h-2.537a2.999 2.999 0 0 1-1.662-5.498 19.438 19.438 0 0 0 2.98-2.443 19.207 19.207 0 0 0 5.664-13.673 19.207 19.207 0 0 0-5.992-13.993c-4.614 7.501-7.037 16.099-7.037 25.056v54.181l7.411 12.983a2.998 2.998 0 0 1-.377 3.495l-9.014 10.002v3.454c0 6.536-4.719 11.991-10.929 13.136v4.368h45.254v-3.083c-4.999-1.328-8.693-5.892-8.693-11.303"/><path fill="#E9886C" d="M139.684 202.163H94.43v-4.368c6.21-1.145 10.929-6.6 10.929-13.136v-3.454l9.014-10.002a2.998 2.998 0 0 0 .377-3.495l-7.411-12.983v-54.181c0-8.957 2.423-17.555 7.037-25.056a19.207 19.207 0 0 1 5.992 13.993 19.207 19.207 0 0 1-5.664 13.673 19.438 19.438 0 0 1-2.98 2.443 3 3 0 0 0 1.662 5.498h2.537a2.587 2.587 0 0 1 2.584 2.584 2.587 2.587 0 0 1-2.584 2.584h-1.952a3 3 0 0 0-3 3v4.931c0 15.253 6.396 29.61 17.636 39.781l-5.328 9.334a3 3 0 0 0 .419 3.541l7.293 7.768v3.159c0 5.411 3.694 9.975 8.693 11.303v3.083"/><path fill="#434A4F" d="M92.43 204.164h96.393v-8.191c-5.796-.508-10.357-5.388-10.357-11.314v-4.762l-10.062-9.992a1.002 1.002 0 0 1-.163-1.206l7.965-13.941-31.015-53.32a1 1 0 0 1 .351-1.361l1.724-1.032c.055-.033.113-.061.173-.083a21.501 21.501 0 0 1 1.994-.609c5.123-1.301 15.175-1.882 24.964 8.827l.044.049 8.354-7.371v-8.042l-27.774-34.142h-7.726a1 1 0 0 1-1-1v-9.951l-23.473 15.919c-11.083 9.21-17.483 23.046-17.483 37.902v54.712l7.674 13.444a1 1 0 0 1-.125 1.165l-9.529 10.572v4.222c0 6.119-4.865 11.124-10.929 11.35v8.155zm97.393 2H91.43a1 1 0 0 1-1-1v-10.147a1 1 0 0 1 1-1h.572c5.16 0 9.357-4.198 9.357-9.358v-4.606c0-.247.092-.486.257-.67l9.302-10.32-7.447-13.046a.993.993 0 0 1-.132-.496v-54.977c0-15.452 6.664-29.849 18.283-39.499l25.111-17.036a1 1 0 0 1 1.562.827v10.838h7.202c.301 0 .586.136.775.369L184.57 90.83a.994.994 0 0 1 .225.631v8.849c0 .287-.123.56-.339.75l-9.427 8.317a1 1 0 0 1-1.394-.07l-.714-.778c-9.088-9.941-18.308-9.429-22.995-8.238-.592.15-1.17.326-1.717.52l-.792.475 30.808 52.965c.179.308.18.689.004.999l-7.872 13.776 9.814 9.745c.188.188.295.443.295.71v5.178c0 5.16 4.197 9.358 9.357 9.358a1 1 0 0 1 1 1v10.147a1 1 0 0 1-1 1z"/><path fill="#434A4F" d="M168.758 196.017h-15.887a1 1 0 1 1 0-2h15.887a1 1 0 1 1 0 2m10.358.004c-.07 0-.13-.01-.2-.02l-.18-.06-.18-.09c-.05-.04-.1-.08-.15-.13a.988.988 0 0 1-.21-.32.838.838 0 0 1-.08-.38c0-.14.02-.27.08-.39.05-.12.12-.23.21-.32.05-.05.1-.09.15-.13l.18-.09.18-.06c.33-.06.67.05.91.28a1.046 1.046 0 0 1 .29.71c0 .13-.03.26-.08.38s-.12.23-.21.32c-.19.19-.45.3-.71.3M145.862 170.195h23.633v-2h-23.633zM142.166 170.121c-.27 0-.53-.1-.71-.29a.99.99 0 0 1-.29-.71.986.986 0 0 1 .29-.71c.37-.37 1.04-.37 1.41 0a.986.986 0 0 1 .29.71c0 .27-.1.52-.29.71-.18.19-.44.29-.7.29m-.442-65.207a1 1 0 0 1-.567-1.825l4.375-3a1 1 0 1 1 1.131 1.649l-4.375 3a.993.993 0 0 1-.564.176m-85.915 101.25H30.094a1 1 0 1 1 0-2h25.715a1 1 0 1 1 0 2M77.484 175.797h16.621v-2H77.484zM97.216 175.741c-.14 0-.27-.03-.39-.08a.875.875 0 0 1-.32-.22.967.967 0 0 1-.29-.7c0-.27.1-.53.29-.71.09-.09.2-.17.32-.22.18-.07.38-.1.58-.06.06.02.13.04.19.06.06.03.12.06.17.09.05.04.11.08.15.13.189.18.29.44.29.71a.97.97 0 0 1-.29.7c-.04.05-.1.09-.15.13-.05.03-.11.06-.17.09-.06.02-.13.04-.19.06-.06.01-.13.02-.19.02m2.63-55.478H93.22a1 1 0 1 1 0-2h6.626a1 1 0 0 1 0 2"/><path fill="#434A4F" d="M142.684 206.164H60.098a1 1 0 0 1-1-1v-8.694a1 1 0 0 1 1-1h.48c4.242 0 7.693-3.451 7.693-7.693v-3.867a1 1 0 0 1 .257-.669l7.73-8.576-6.194-10.85a1 1 0 0 1 .233-1.268c11.504-9.472 18.101-23.452 18.101-38.353v-3.825l-2.303-.107h-.002c-3.584.001-6.536-2.953-6.536-6.583a6.59 6.59 0 0 1 6.584-6.584 1 1 0 0 1 0 2 4.589 4.589 0 0 0-4.584 4.584 4.589 4.589 0 0 0 4.584 4.584l3.303.152a1 1 0 0 1 .954.999v4.78c0 15.219-6.616 29.515-18.182 39.356l6.137 10.751a1 1 0 0 1-.125 1.165l-7.957 8.828v3.483c0 5.171-4.069 9.409-9.173 9.68v6.707h80.586v-6.745c-4.876-.502-8.693-4.635-8.693-9.642v-3.951l-7.835-8.344a1 1 0 0 1-.139-1.181l6.136-10.751c-11.566-9.841-18.182-24.136-18.182-39.356v-4.931a1 1 0 0 1 1-1h1.952a4.59 4.59 0 0 0 4.584-4.584 4.59 4.59 0 0 0-4.584-4.584l-2.298.068-.03.001a1 1 0 0 1-.029-2l2.328-.069c3.66 0 6.613 2.953 6.613 6.584a6.59 6.59 0 0 1-6.584 6.584h-.952v3.931c0 14.902 6.597 28.881 18.101 38.353a1 1 0 0 1 .233 1.268l-6.186 10.836 7.601 8.095c.175.185.271.43.271.684v4.347c0 4.242 3.451 7.693 7.693 7.693a1 1 0 0 1 1 1v8.694a1 1 0 0 1-1 1"/><path fill="#434A4F" d="M99.846 109.095h-7.625a1 1 0 1 1 0-2h7.625a1 1 0 0 1 0 2"/><path fill="#434A4F" d="M113.387 109.095a.998.998 0 0 1-.555-1.832 21.576 21.576 0 0 0 3.287-2.695c8.319-8.319 8.319-21.855 0-30.174a21.199 21.199 0 0 0-15.088-6.249 21.198 21.198 0 0 0-15.087 6.249c-8.319 8.319-8.319 21.855 0 30.174a21.532 21.532 0 0 0 2.742 2.32c.451.32.556.945.237 1.395-.321.45-.945.554-1.395.235a23.413 23.413 0 0 1-2.998-2.536c-9.098-9.098-9.098-23.903 0-33.002a23.183 23.183 0 0 1 16.501-6.835 23.183 23.183 0 0 1 16.502 6.835c9.099 9.099 9.099 23.904 0 33.002a23.46 23.46 0 0 1-3.594 2.946.992.992 0 0 1-.552.167m46.127-32.348a.997.997 0 0 1-.707-.293l-4.957-4.957h-9.087a1 1 0 1 1 0-2h9.501a1 1 0 0 1 .707.293l5.25 5.25a1 1 0 0 1-.707 1.707m60.392 129.417h-26.715a1 1 0 0 1 0-2h26.715a1 1 0 1 1 0 2"/><path fill="#434A4F" d="M86.595 109.039a1 1 0 0 1-.071-1.998l1.802-.129a1.01 1.01 0 0 1 1.069.925 1 1 0 0 1-.926 1.07l-1.802.129a.867.867 0 0 1-.072.003"/><path fill="#42494E" d="M219.446 137.721l-1.902-.619.329-1.011-1.274-.416a3.617 3.617 0 0 1-2.534-3.493 3.616 3.616 0 0 1 2.54-3.488l1.276-.413-.7-2.161-1.276.413a3.612 3.612 0 0 1-4.101-1.337c-.951-1.312-.95-3.006.004-4.315l.789-1.084-1.837-1.337-.789 1.084c-.953 1.309-2.564 1.833-4.105 1.329a3.617 3.617 0 0 1-2.533-3.493l.002-1.341-2.272-.002-.001 1.341a3.616 3.616 0 0 1-2.541 3.488 3.612 3.612 0 0 1-4.101-1.338l-.787-1.086-1.84 1.334.788 1.086a3.618 3.618 0 0 1-.005 4.315c-.953 1.309-2.563 1.832-4.103 1.328l-1.276-.415-.329 1.01-1.902-.619.948-2.913 3.178 1.036c.848.276 1.522-.13 1.868-.604.345-.475.526-1.24.002-1.964L189 119.331l5.078-3.682 1.961 2.706c.525.724 1.31.789 1.866.608.559-.181 1.156-.692 1.157-1.587l.002-3.341 6.273.006-.004 3.341c-.001.895.595 1.408 1.153 1.59.559.181 1.342.118 1.868-.605l1.966-2.701 5.072 3.691-1.967 2.701c-.527.724-.347 1.489-.002 1.964.345.475 1.014.883 1.865.608l3.18-1.03 1.932 5.968-3.179 1.029c-.851.276-1.155 1-1.156 1.587 0 .587.302 1.312 1.153 1.589l3.177 1.036-.949 2.912"/><path fill="#E9886C" d="M210.242 134.798l-1.902-.62a6.485 6.485 0 0 0-4.15-8.165 6.445 6.445 0 0 0-4.942.385 6.43 6.43 0 0 0-3.222 3.765l-1.902-.62a8.425 8.425 0 0 1 4.218-4.929 8.42 8.42 0 0 1 6.468-.502c4.443 1.448 6.879 6.242 5.432 10.686"/><path fill="#E9886C" d="M202.199 140.579a8.425 8.425 0 0 1-2.621-.419c-4.444-1.449-6.88-6.243-5.432-10.686l1.903.62a6.483 6.483 0 0 0 4.148 8.165 6.483 6.483 0 0 0 8.165-4.15l1.903.621c-1.166 3.573-4.495 5.848-8.066 5.849"/><path fill="#42494E" d="M205.322 150.237l-6.271-.006.003-3.341c.001-.895-.595-1.408-1.153-1.59-.555-.179-1.339-.118-1.867.605l-1.968 2.701-5.069-3.692 1.966-2.701c.527-.723.347-1.488.002-1.963-.344-.476-1.018-.888-1.866-.609l-3.179 1.029-1.933-5.967 3.18-1.029c.851-.276 1.155-1.001 1.155-1.588.001-.586-.301-1.311-1.151-1.588l-3.177-1.037 1.066-3.27 1.902.62-.446 1.369 1.275.416a3.615 3.615 0 0 1 2.531 3.493 3.614 3.614 0 0 1-2.54 3.488l-1.275.413.7 2.161 1.276-.413c1.538-.5 3.151.026 4.102 1.338a3.617 3.617 0 0 1-.005 4.314l-.79 1.085 1.837 1.337.79-1.084a3.613 3.613 0 0 1 4.105-1.329 3.614 3.614 0 0 1 2.532 3.493l-.001 1.341 2.271.002.002-1.341a3.614 3.614 0 0 1 2.539-3.487 3.614 3.614 0 0 1 4.102 1.337l.788 1.086 1.84-1.333-.788-1.086a3.615 3.615 0 0 1 .005-4.315 3.614 3.614 0 0 1 4.105-1.328l1.274.415.496-1.515 1.9.62-1.114 3.417-3.176-1.036c-.855-.278-1.523.131-1.868.604-.346.475-.528 1.24-.003 1.964l1.962 2.705-5.078 3.681-1.962-2.704c-.525-.725-1.308-.791-1.867-.61-.558.181-1.154.693-1.155 1.588l-.004 3.34"/><path fill="#FACD60" d="M206.14 132.236a4 4 0 1 1-8 0 4 4 0 0 1 8 0"/><path fill="#FACD60" d="M202.14 128.736c-1.93 0-3.5 1.57-3.5 3.5s1.57 3.5 3.5 3.5c1.929 0 3.5-1.57 3.5-3.5s-1.571-3.5-3.5-3.5zm0 8a4.505 4.505 0 0 1-4.5-4.5c0-2.482 2.018-4.5 4.5-4.5 2.481 0 4.5 2.018 4.5 4.5 0 2.481-2.019 4.5-4.5 4.5z"/><path fill="#42494E" d="M47.089 184.174c-1.654 0-3 1.346-3 3 0 1.655 1.346 3 3 3h36.153l6.506-3-6.506-3H47.089zm0 8c-2.757 0-5-2.243-5-5 0-2.756 2.243-5 5-5h36.593l10.843 5-10.843 5H47.089z"/><path fill="#42494E" d="M52.699 191.174h2v-7.598h-2z"/><path fill="#42494E" d="M53.699 188.146h28.994v-2H53.699z"/><path fill="#FACD60" d="M213.343 176.187a3 3 0 1 1-6 0 3 3 0 0 1 6 0m-150.09-30.018a3 3 0 1 1-6 0 3 3 0 0 1 6 0"/><path fill="#434A4F" d="M62.275 126.139c-1.102 0-2 .897-2 2s.898 2 2 2c1.103 0 2-.897 2-2s-.897-2-2-2zm0 6c-2.206 0-4-1.794-4-4 0-2.205 1.794-4 4-4s4 1.795 4 4c0 2.206-1.794 4-4 4zm140.084-46.024c-1.102 0-2 .897-2 2s.898 2 2 2c1.103 0 2-.897 2-2s-.897-2-2-2zm0 6c-2.206 0-4-1.794-4-4 0-2.205 1.794-4 4-4s4 1.795 4 4c0 2.206-1.794 4-4 4zm-33.601 103.902h-15.887a1 1 0 1 1 0-2h15.887a1 1 0 1 1 0 2M58.184 83.133h2v-4h-2zM58.184 93.133h2v-4h-2zM62.184 87.133h4v-2h-4zM52.184 87.133h4v-2h-4zM48.178 155.176h2v-4h-2zM48.178 165.176h2v-4h-2zM52.178 159.176h4v-2h-4zM42.178 159.176h4v-2h-4zM190.263 164.181h2v-4h-2zM190.263 174.181h2v-4h-2zM194.263 168.181h4v-2h-4zM184.263 168.181h4v-2h-4z"/></g></svg>