<?xml version="1.0" encoding="utf-8"?><svg xmlns="http://www.w3.org/2000/svg" width="250" height="250" viewBox="0 0 250 250"><g fill="none" fill-rule="evenodd"><path fill="#FFD15D" d="M136.983 173.22v-59.14l-6.5-5.082-6.493 5.076-.007-.005v59.151h13M108.483 173.22v-60.573l-.108.071-4.392-3.72v64.222h4.5"/><path fill="#F58E70" d="M132.483 88.112l-8.5-17-9 16.968 17.5.032"/><path fill="#475059" d="M143.983 173.22h-2v-63.985L123.96 73.297l-18.977 35.949v63.974h-2v-64.47l.115-.219 20.907-39.604 19.978 39.834v64.459"/><path fill="#475059" d="M132.482 89.112l-17.501-.032.003-2 17.501.032-.003 2M137.008 115.369l-6.525-5.101-6.496 5.078-6.545-5.036-7.532 5.02-6.574-5.569 1.293-1.526 5.426 4.596 7.47-4.98 6.453 4.964 6.505-5.087 6.474 5.063 5.379-4.556 1.293 1.526-6.621 5.608"/><path fill="#5FE0ED" d="M58.744 50.936a4 4 0 1 1-8 0 4 4 0 0 1 8 0m120.213 107.637a4 4 0 1 1-8 0 4 4 0 0 1 8 0"/><path fill="#48515A" d="M151.983 174.019H93.982v-15.721c0-6.897-3.199-13.879-8.776-19.155-11.595-10.969-17.957-26.215-17.454-41.831.914-28.374 23.807-51.784 52.116-53.296 13.044-.697 25.928 3.233 36.274 11.065l-1.207 1.595c-9.97-7.547-22.387-11.335-34.959-10.662C92.693 47.47 70.632 70.032 69.75 97.376c-.483 15.044 5.65 29.738 16.831 40.314 5.975 5.652 9.401 13.163 9.401 20.608v13.721h54.001v-13.016c0-7.849 3.501-15.707 9.604-21.559 10.614-10.174 16.459-23.781 16.459-38.315h2c0 15.084-6.063 29.204-17.074 39.759-5.713 5.477-8.989 12.808-8.989 20.115v15.016"/><path fill="#FFD15D" d="M132.745 201.519h-18c-8.285 0-15.262-6.299-15.262-14.583v-3.417h48v3.417c0 8.284-6.454 14.583-14.738 14.583"/><path fill="#FFD15D" d="M99.982 184.019v2.917c0 7.766 6.623 14.083 14.762 14.083h18c8.117 0 14.239-6.054 14.239-14.083v-2.917H99.982zm32.762 18h-18c-8.691 0-15.762-6.766-15.762-15.083v-3.917h49.001v3.917c0 8.457-6.694 15.083-15.239 15.083z"/><path fill="#DEDEDD" d="M94.983 181.019h56v-8h-56z"/><path fill="#DEDEDD" d="M95.982 180.019h54.001v-6H95.982v6zm-2 2h58.001v-10H93.982v10z"/><path fill="#48515A" d="M90.982 174.019h64.001v-2H90.982zM135.256 206.019h-21.294c-4.872 0-9.646-1.955-13.129-5.369l-.002-.001-.216-.168c-3.58-3.579-5.633-8.379-5.633-13.167v-6.295h2v6.295c0 4.208 1.794 8.438 4.926 11.631l.211.164a16.87 16.87 0 0 0 11.843 4.91h21.043c3.314-.85 7.058-2.106 9.862-4.91l.225-.225.118-.02c3.037-3.15 4.773-7.341 4.773-11.55v-6.295h2v6.295c0 4.836-2.034 9.643-5.579 13.188l-.224.225-.129.022c-3.149 3.02-7.153 4.344-10.674 5.239l-.121.031M90.982 178.019h64.001v-2H90.982z"/><path fill="#48515A" d="M90.982 182.019h64.001v-2H90.982zM189.822 185.93c-2.206 0-4 1.794-4 4 0 2.205 1.794 4 4 4s4-1.795 4-4c0-2.206-1.794-4-4-4zm0 10c-3.308 0-6-2.692-6-6 0-3.309 2.692-6 6-6 3.309 0 6 2.691 6 6 0 3.308-2.691 6-6 6zM205.984 142.054h2v-4h-2zM205.984 152.054h2v-4h-2zM209.984 146.054h4v-2h-4zM199.984 146.054h4v-2h-4zM46.982 121.019h2v-4h-2zM46.982 131.019h2v-4h-2zM50.982 125.019h4v-2h-4zM40.982 125.019h4v-2h-4zM47.75 79.93c-1.102 0-2 .897-2 2s.898 2 2 2c1.103 0 2-.897 2-2s-.897-2-2-2zm0 6c-2.206 0-4-1.795-4-4 0-2.206 1.794-4 4-4s4 1.794 4 4c0 2.205-1.794 4-4 4zM152.983 211.019h2v-4h-2zM152.983 221.019h2v-4h-2zM156.983 215.019h4v-2h-4zM146.983 215.019h4v-2h-4zM119.983 213.019h2v-8h-2zM125.983 213.019h2v-8h-2zM120.984 217.017c-.069 0-.129 0-.2-.02a1.32 1.32 0 0 1-.189-.05c-.12-.06-.231-.13-.32-.22a.99.99 0 0 1-.291-.71c0-.26.101-.52.291-.71.04-.04.1-.08.15-.12a.666.666 0 0 1 .17-.09.69.69 0 0 1 .189-.06c.33-.06.671.04.901.27.19.19.299.45.299.71 0 .27-.109.52-.299.71-.04.05-.09.09-.151.12a.916.916 0 0 1-.17.1c-.059.02-.119.04-.189.05-.061.02-.13.02-.191.02m6 0a.99.99 0 0 1-1-1c0-.26.101-.52.291-.7.37-.38 1.04-.38 1.41 0 .19.18.299.44.299.7 0 .27-.109.52-.299.71-.18.19-.44.29-.701.29m-6 4c-.069 0-.129-.01-.2-.02a1.32 1.32 0 0 1-.189-.05 1.348 1.348 0 0 1-.17-.1.566.566 0 0 1-.15-.12 1.1 1.1 0 0 1-.22-.33.987.987 0 0 1-.071-.38c0-.26.101-.52.291-.71.04-.04.1-.08.15-.12a.666.666 0 0 1 .17-.09.992.992 0 0 1 1.09.21c.19.19.299.45.299.71 0 .13-.029.26-.08.38a.832.832 0 0 1-.219.33c-.18.18-.44.29-.701.29m6 0a.99.99 0 0 1-1-1c0-.26.101-.52.291-.71.37-.37 1.04-.37 1.41 0 .19.19.299.45.299.71 0 .13-.029.26-.08.38a.832.832 0 0 1-.219.33c-.18.19-.44.29-.701.29m28.741-171.14c-.06 0-.13-.01-.191-.02a.597.597 0 0 1-.189-.06.545.545 0 0 1-.17-.09c-.061-.03-.11-.08-.15-.12-.19-.19-.3-.45-.3-.71a1.017 1.017 0 0 1 .45-.83c.05-.04.109-.07.17-.09.059-.03.12-.05.189-.06.321-.06.671.04.901.27.19.19.29.45.29.71 0 .26-.1.52-.29.71-.19.18-.44.29-.71.29m-34.93-10.92c0-.55.439-1.01.989-1.01a.988.988 0 0 1 1.011.98.989.989 0 0 1-.98 1.01h-.02c-.54 0-.99-.43-1-.98zm3.989 0c.031-.55.5-.97 1.051-.94.55.02.98.49.949 1.04-.029.56-.5.98-1.05.95a1 1 0 0 1-.95-1.05zm-7.969.26c-.04-.55.37-1.04.919-1.08a1 1 0 0 1 1.081.92c.04.54-.371 1.03-.92 1.07-.02 0-.05.01-.08.01-.51 0-.951-.4-1-.92zm12.83 1.12a1.002 1.002 0 1 1 1.11-.88c-.061.51-.49.89-.99.89-.04 0-.08-.01-.12-.01zm-16.781-.6c-.08-.55.301-1.06.841-1.14h.01a1 1 0 0 1 .29 1.98c-.05.01-.101.01-.15.01-.491 0-.911-.36-.991-.85zm20.661 1.19h-.01c-.54-.1-.901-.63-.8-1.17.109-.54.63-.9 1.17-.8.54.1.899.63.8 1.17-.09.48-.51.81-.98.81-.06 0-.12 0-.18-.01zm-24.57-.41c-.12-.54.23-1.07.77-1.19a.996.996 0 0 1 1.19.76c.11.54-.23 1.08-.77 1.19a.767.767 0 0 1-.21.03c-.46 0-.87-.32-.98-.79zm28.39 1.25v.01c-.53-.14-.861-.69-.72-1.22a1 1 0 0 1 1.22-.72c.53.14.86.68.72 1.22-.121.45-.52.75-.97.75-.08 0-.16-.01-.25-.04zm-32.24-.21c-.15-.53.16-1.09.69-1.24a.99.99 0 0 1 1.23.69.984.984 0 0 1-.68 1.23 1.004 1.004 0 0 1-1.24-.68zm36 1.32a.996.996 0 0 1-.63-1.26c.17-.53.74-.81 1.259-.64.521.17.811.74.641 1.26a1.006 1.006 0 0 1-1.27.64zm-39.76-.02a.992.992 0 0 1 .59-1.28c.52-.19 1.099.08 1.29.6.179.52-.09 1.09-.611 1.28h.011c-.12.04-.23.06-.35.06a.974.974 0 0 1-.93-.66zm43.439 1.37a1 1 0 1 1 .761-1.85h-.011c.521.21.761.79.561 1.3-.16.39-.54.63-.93.63-.131 0-.25-.03-.381-.08zm-47.13.18c-.219-.51.011-1.1.521-1.32h-.01c.51-.22 1.1 0 1.319.51a.992.992 0 0 1-.91 1.4c-.389 0-.75-.22-.92-.59zm50.71 1.42a1.01 1.01 0 0 1-.46-1.34c.241-.5.841-.7 1.341-.46.489.24.699.84.46 1.34a1.006 1.006 0 0 1-1.341.46zm-54.269.37a.993.993 0 0 1 .42-1.35.995.995 0 0 1 1.349.42c.25.49.071 1.09-.42 1.35a.967.967 0 0 1-.46.11c-.37 0-.71-.19-.889-.53zm57.74 1.46c-.48-.27-.641-.89-.37-1.37.269-.47.88-.64 1.359-.37.481.28.651.89.381 1.37-.19.32-.52.5-.87.5-.17 0-.34-.04-.5-.13zm-61.181.56a.993.993 0 0 1 .33-1.37.995.995 0 0 1 1.371.33c.29.47.14 1.08-.331 1.37a.991.991 0 0 1-1.37-.33zm-3.299 2.25c-.321-.45-.21-1.08.24-1.4a.997.997 0 0 1 1.389.25.996.996 0 0 1-.809 1.57 1 1 0 0 1-.82-.42zm-3.14 2.46c-.351-.43-.28-1.06.149-1.41a.99.99 0 0 1 1.401.15c.349.43.28 1.06-.151 1.41h.011c-.19.15-.41.22-.641.22a.998.998 0 0 1-.769-.37zm-2.97 2.66a.996.996 0 0 1 .05-1.41c.41-.38 1.04-.35 1.42.05.37.41.35 1.04-.061 1.41v.01a1 1 0 0 1-1.409-.06zm-2.79 2.85a.995.995 0 0 1-.04-1.41c.38-.4 1.02-.42 1.42-.04.399.38.41 1.01.029 1.41a.978.978 0 0 1-1.409.04zm-2.591 3.03a.999.999 0 0 1 1.271-1.54 1 1 0 0 1 .139 1.41c-.2.24-.49.36-.769.36a.954.954 0 0 1-.641-.23zm-2.389 3.2a.995.995 0 0 1-.22-1.4.993.993 0 0 1 1.39-.23c.45.33.549.95.23 1.4-.2.27-.5.42-.82.42-.2 0-.401-.07-.58-.19zm-2.17 3.34a.99.99 0 0 1-.31-1.38.992.992 0 0 1 1.369-.32 1.001 1.001 0 1 1-1.059 1.7zm-1.941 3.48c-.489-.26-.67-.87-.409-1.36.26-.48.869-.67 1.36-.41.48.27.669.87.4 1.36a.99.99 0 0 1-1.351.41zm-1.71 3.6c-.5-.23-.719-.82-.489-1.33.23-.5.819-.72 1.319-.49a1 1 0 1 1-.83 1.82zm-1.46 3.7a1.009 1.009 0 0 1-.58-1.29 1 1 0 0 1 1.29-.58.997.997 0 0 1-.359 1.93c-.11 0-.23-.02-.351-.06zm-1.21 3.8c-.529-.16-.83-.72-.669-1.25.16-.52.719-.83 1.25-.67a1.002 1.002 0 1 1-.581 1.92zm-.95 3.87a.993.993 0 0 1-.75-1.2h-.01a1.006 1.006 0 0 1 1.96.45c-.109.46-.519.78-.979.78-.07 0-.15-.01-.221-.03zm-.699 3.93c-.54-.09-.92-.6-.83-1.15.09-.54.6-.92 1.149-.83.54.09.911.6.83 1.15-.08.49-.509.84-.989.84-.051 0-.1-.01-.16-.01zm-.431 3.96a1 1 0 0 1-.899-1.09.993.993 0 0 1 1.09-.9c.54.05.95.54.9 1.09a1 1 0 0 1-.99.91c-.04 0-.07-.01-.101-.01zm-.17 3.98a.988.988 0 0 1-.969-1.02c.009-.55.47-.99 1.019-.98.561.02.991.48.981 1.03-.02.54-.46.97-1 .97h-.031zm-.939 3.03a.99.99 0 0 1 .96-1.04.993.993 0 0 1 1.029.96.99.99 0 0 1-.96 1.04h-.04a.993.993 0 0 1-.989-.96zm.29 4.05v-.01a1 1 0 0 1 .89-1.1c.55-.05 1.04.34 1.099.89a.998.998 0 0 1-.889 1.1c-.04.01-.071.01-.111.01-.5 0-.939-.38-.989-.89zm.56 4.01c-.09-.55.27-1.06.81-1.16a1 1 0 0 1 1.159.81.993.993 0 0 1-.809 1.16c-.06.01-.12.02-.17.02-.481 0-.901-.34-.99-.83zm.839 3.97a.989.989 0 0 1 .731-1.21c.53-.13 1.069.19 1.21.73a1.002 1.002 0 0 1-.97 1.24c-.45 0-.86-.31-.971-.76zm117.291 1a.996.996 0 0 1-.75-1.2c.12-.54.66-.88 1.19-.75.54.12.88.66.75 1.2a.995.995 0 0 1-.97.77c-.07 0-.15-.01-.22-.02zm-116.201 2.9c-.159-.52.131-1.09.651-1.25a1.003 1.003 0 0 1 .61 1.91c-.101.03-.2.04-.301.04-.429 0-.819-.27-.96-.7zm115.101.93c-.53-.16-.83-.72-.67-1.25a.99.99 0 0 1 1.25-.66c.529.16.83.72.67 1.25-.141.43-.53.7-.96.7a.92.92 0 0 1-.29-.04zm-113.74 2.9a.999.999 0 0 1 .57-1.3c.51-.2 1.09.05 1.3.57a1 1 0 0 1-.941 1.36c-.399 0-.769-.24-.929-.63zm112.36.84a1 1 0 0 1-.57-1.29c.2-.52.78-.77 1.29-.57.519.2.769.78.57 1.29a.99.99 0 0 1-1.29.57zm-110.74 2.88a.992.992 0 0 1 .469-1.33c.5-.24 1.101-.02 1.34.48.231.5.021 1.09-.479 1.33-.14.06-.29.1-.43.1a.995.995 0 0 1-.9-.58zm109.099.76a.991.991 0 0 1-.469-1.33.994.994 0 1 1 1.799.85c-.169.36-.529.58-.899.58-.15 0-.29-.03-.431-.1zm-107.25 2.85a1.004 1.004 0 0 1 .391-1.36 1.002 1.002 0 0 1 .97 1.75c-.151.08-.321.12-.491.12a.986.986 0 0 1-.87-.51zm105.361.66a.994.994 0 0 1-.39-1.36h.01a.982.982 0 0 1 1.36-.38 1 1 0 0 1 .38 1.36c-.19.32-.53.51-.88.51-.16 0-.33-.04-.48-.13zm-103.27 2.82a1 1 0 0 1 .3-1.39.993.993 0 0 1 1.38.3c.3.46.17 1.08-.3 1.38a.951.951 0 0 1-.54.16c-.33 0-.65-.16-.84-.45zm101.119.54a.998.998 0 0 1-.279-1.39c.3-.46.92-.58 1.39-.28.45.31.58.93.28 1.39h-.01a.998.998 0 0 1-.83.45c-.19 0-.381-.06-.551-.17zm-98.809 2.78a.996.996 0 0 1 .21-1.4c.44-.33 1.07-.23 1.4.21a.997.997 0 0 1-.21 1.4c-.181.13-.39.2-.591.2a1 1 0 0 1-.809-.41zm96.429.42a.993.993 0 0 1-.179-1.4c.34-.44.96-.52 1.4-.18.44.34.52.96.18 1.4-.2.26-.49.39-.79.39-.21 0-.43-.07-.611-.21zm-93.899 2.76a1.01 1.01 0 0 1 .109-1.42 1.01 1.01 0 0 1 1.411.12.999.999 0 1 1-1.52 1.3zm91.33.29a.998.998 0 0 1-.11-1.41v.01a.99.99 0 0 1 1.41-.11c.42.36.47.99.109 1.41-.199.23-.479.35-.759.35-.23 0-.46-.08-.65-.25zm-88.6 2.7a.987.987 0 0 1 .02-1.41.987.987 0 0 1 1.41.02c.39.39.38 1.03-.02 1.41a.972.972 0 0 1-.691.28c-.26 0-.519-.1-.719-.3zm85.86.2a.997.997 0 0 1-.021-1.41 1 1 0 0 1 1.42-.02c.391.39.401 1.02.011 1.42-.19.2-.45.3-.71.3a1 1 0 0 1-.7-.29zm-82.941 2.61c-.41-.37-.45-1-.069-1.41.359-.41 1-.44 1.409-.07a.997.997 0 0 1-.67 1.74.964.964 0 0 1-.67-.26zm80.011.1a.998.998 0 0 1 .079-1.41.997.997 0 0 1 1.41.07c.371.42.331 1.05-.08 1.42a.987.987 0 0 1-.659.25 1 1 0 0 1-.75-.33zm-76.921 2.52c-.429-.35-.5-.97-.159-1.41a.99.99 0 0 1 1.4-.16c.44.34.509.97.169 1.4-.2.25-.489.38-.79.38-.21 0-.429-.07-.62-.21zm73.821-.01c-.34-.44-.26-1.07.17-1.41.44-.34 1.06-.26 1.41.17.33.44.259 1.07-.18 1.41a1.004 1.004 0 0 1-1.4-.17zm-70.55 2.41a.996.996 0 1 1 1.13-1.64v-.01c.45.32.57.94.259 1.4-.2.28-.509.43-.83.43a.98.98 0 0 1-.559-.18zm67.29-.12a.994.994 0 0 1 .26-1.38.987.987 0 0 1 1.389.26c.321.46.2 1.08-.259 1.39a.97.97 0 0 1-.56.17.986.986 0 0 1-.83-.44zm-63.88 2.31a1 1 0 1 1 1.02-1.721 1 1 0 0 1-1.02 1.721zm60.47-.23a1 1 0 0 1 .36-1.37.998.998 0 0 1 1.37.36 1 1 0 0 1-.36 1.37.996.996 0 0 1-.5.14c-.34 0-.68-.18-.87-.5zm-56.92 2.18a.99.99 0 0 1-.441-1.34.99.99 0 0 1 1.341-.44c.5.25.69.85.44 1.34a.993.993 0 0 1-1.34.44zm53.389-.33a.993.993 0 0 1 .441-1.34c.5-.25 1.099-.05 1.349.44.241.5.041 1.1-.45 1.34a.993.993 0 0 1-1.34-.44zm-49.719 2.04a.993.993 0 0 1-.531-1.31c.221-.51.801-.74 1.311-.53.51.22.75.81.529 1.32a.987.987 0 0 1-.92.6.905.905 0 0 1-.389-.08zm46.07-.44a.983.983 0 0 1 .529-1.3 1 1 0 1 1 .391 1.92.991.991 0 0 1-.92-.62zm-42.3 1.91c-.52-.19-.79-.76-.61-1.28a1.001 1.001 0 0 1 1.89.66c-.15.41-.53.67-.951.67-.109 0-.219-.02-.329-.05zm38.539-.55c-.17-.52.101-1.09.631-1.27.52-.18 1.09.1 1.27.62.179.53-.1 1.1-.62 1.28a1.016 1.016 0 0 1-1.281-.63zm-34.67 1.76c-.529-.15-.839-.7-.699-1.23a1 1 0 0 1 1.239-.7c.531.14.841.7.691 1.23a.994.994 0 0 1-.96.73c-.09 0-.18-.01-.271-.03zm30.841-.65c-.14-.54.17-1.08.71-1.23a.995.995 0 0 1 1.22.71.996.996 0 0 1-.7 1.22c-.09.03-.18.04-.26.04-.441 0-.851-.3-.97-.74zm-26.89 1.59a.988.988 0 0 1-.781-1.18 1.002 1.002 0 0 1 1.961.4 1.012 1.012 0 0 1-1.18.78zm22.99-.75a.993.993 0 0 1 .79-1.17.987.987 0 0 1 1.17.78c.11.54-.24 1.07-.781 1.18-.069.01-.129.02-.2.02-.469 0-.88-.33-.979-.81zm-19 1.42h.01a.988.988 0 0 1-.86-1.12c.07-.55.57-.93 1.119-.86.551.08.931.58.861 1.13-.071.5-.5.86-.991.86-.04 0-.089 0-.139-.01zm15.059-.83a.988.988 0 0 1 .861-1.12v-.01c.54-.07 1.05.32 1.12.87.07.55-.32 1.05-.861 1.12-.049 0-.089.01-.129.01-.5 0-.93-.37-.991-.87zm-11.019 1.24a.996.996 0 0 1-.93-1.06.99.99 0 0 1 1.06-.93c.55.03.969.51.929 1.06a.988.988 0 0 1-1 .93h-.059zm7.04-.92a.99.99 0 0 1 .93-1.06.99.99 0 0 1 1.06.93.99.99 0 0 1-.931 1.06h-.069c-.52 0-.96-.4-.99-.93zm-2.99 1.06c-.55 0-1-.45-1-1 0-.56.45-1 1-1 .549 0 1 .45 1 1s-.451 1-1 1zm59.19-49.54a1.004 1.004 0 0 1-1-1c0-.27.109-.52.29-.71.37-.37 1.05-.37 1.42 0 .09.09.16.2.21.32.05.13.08.26.08.39a1.009 1.009 0 0 1-1 1m28.26-40.275h.01-.01zm-24.07-39.048c-4.394 0-8.805 1.086-12.769 3.367-6.378 3.67-10.836 9.61-12.554 16.724-1.689 6.998-.478 14.159 3.41 20.164 3.457 5.34 8.391 9.083 14.268 10.826a1 1 0 0 1 .716.959v1.149c0 1.229-.101 2.821-.889 4.241-.565 1.021-1.169 1.802-1.877 2.422a14.573 14.573 0 0 0 10.892-7.224 1 1 0 0 1 .802-.501 26.142 26.142 0 0 0 12.448-4.135l1.506-1.067a26.388 26.388 0 0 0 7.011-7.959l.233-.405a26.11 26.11 0 0 0-1.194-26.996c-4.945-7.437-13.437-11.565-22.003-11.565zM174.63 93.027h-3.878a1 1 0 1 1 0-2c1.455 0 2.806-.472 4.015-1.404.644-.496 1.166-1.14 1.691-2.089.447-.805.638-1.784.638-3.271v-.413c-6.026-1.965-11.083-5.906-14.663-11.434-4.19-6.47-5.494-14.184-3.675-21.72 1.849-7.653 6.642-14.041 13.5-17.989 12.8-7.367 29.245-3.493 37.436 8.824a28.106 28.106 0 0 1 1.279 29.069l-.01.019-.238.416a28.414 28.414 0 0 1-7.567 8.578l-1.564 1.109a28.192 28.192 0 0 1-12.91 4.434c-3 4.868-8.336 7.871-14.054 7.871z"/><path fill="#48515A" d="M202.096 54.027h-32a1 1 0 1 1 0-2h32a1 1 0 1 1 0 2m0 4h-32a1 1 0 1 1 0-2h32a1 1 0 1 1 0 2m-5 4h-27a1 1 0 1 1 0-2h27a1 1 0 1 1 0 2"/><path fill="#FFD15D" d="M80.534 170.676c0-11.307-9.165-20.473-20.472-20.473-11.306 0-20.472 9.166-20.472 20.473 0 11.306 9.166 20.472 20.472 20.472 11.307 0 20.472-9.166 20.472-20.472"/><path fill="#48515A" d="M40.315 181.478l.201.348a22.6 22.6 0 0 0 6.018 6.824l1.301.92a22.348 22.348 0 0 0 10.614 3.512 1 1 0 0 1 .802.501 12.403 12.403 0 0 0 8.69 6.062 7.696 7.696 0 0 1-1.381-1.788c-.648-1.168-.99-2.453-.99-3.718v-.99a1 1 0 0 1 .707-.956c5.165-1.582 9.577-4.871 12.419-9.262 3.375-5.212 4.432-11.404 2.975-17.435-1.451-6.011-5.212-11.025-10.589-14.121-10-5.756-23.346-2.613-29.744 7.013a22.334 22.334 0 0 0-1.023 23.09zm32.992 20.336h-3.338c-4.948 0-9.566-2.584-12.179-6.777a24.384 24.384 0 0 1-11.076-3.811l-1.359-.961a24.631 24.631 0 0 1-6.574-7.442l-.206-.358a24.327 24.327 0 0 1 1.097-25.185c7.09-10.662 21.325-14.016 32.408-7.638 5.858 3.372 9.954 8.835 11.535 15.384 1.587 6.57.437 13.315-3.239 18.992-2.969 4.584-7.496 8.063-12.806 9.86v.261c0 .926.256 1.877.74 2.748.365.66.892 1.266 1.522 1.752a5.722 5.722 0 0 0 3.475 1.175 1 1 0 0 1 0 2z"/></g></svg>