<?xml version="1.0" encoding="utf-8"?><svg xmlns="http://www.w3.org/2000/svg" width="250" height="250" viewBox="0 0 250 250"><g fill="none" fill-rule="evenodd"><path fill="#DDDED9" d="M49.804 136.999v18l23.197 14H177l24.257-14v-17.333L177 152.999H73.001l-23.197-16"/><path fill="#FACD60" d="M157 204.999h12V93.836h-12z"/><path fill="#FACD60" d="M157.5 204.499h11V94.336h-11v110.163zm-1 1h13V93.336h-13v112.163zM81.001 204.999h12V93.998h-12z"/><path fill="#FACD60" d="M81.501 204.499h11v-110h-11v110zm-1 1h13V93.498h-13v112.001z"/><path fill="#434A4F" d="M202.257 203.894h-33.252v-2h31.252v-64.228h2v66.228M92.996 203.894h64.009v-2H92.996zM80.996 203.894H48.804v-66.895h2v64.895h30.192v2"/><path fill="#434A4F" d="M72.353 153.19l-26.352-17.065V96h34.833v2H48v37.037l24.944 16.153 7.721-.005v2l-8.312.005M93.332 98h63.836v-2H93.332zM168.671 153.111l-.002-2 8.642-.006 25.752-16.079V98h-33.397v-2h35.397v40.136l-27.178 16.969-9.214.006M93.662 153.169l-.001-2 63.344-.043.002 2-63.345.043M159.297 94.242l-9.107-16.077H147v-2h4.356l9.682 17.091-1.741.986M91.706 94.489l-1.744-.98 9.741-17.344H111v2h-10.126l-9.168 16.324"/><path fill="#434A4F" d="M102 76.999h-2V62.321a13 13 0 0 1 1.853-6.688L109 43.722v-2.723h2v3a.994.994 0 0 1-.143.514l-7.289 12.15A10.99 10.99 0 0 0 102 62.321v14.678m21.501 17.993a5.509 5.509 0 0 1-5.366-4.294 5.213 5.213 0 0 1-3.508 1.298h-.133c-3.031-.004-5.495-2.467-5.495-5.491L109 64.998a1 1 0 1 1 2 0l-.001 21.507a3.5 3.5 0 0 0 3.496 3.491h.139c.9 0 1.744-.35 2.38-.984a3.347 3.347 0 0 0 .988-2.384L118 71.007a1.002 1.002 0 0 1 1-1c.552 0 1.002.448 1.002 1v18.486a3.503 3.503 0 0 0 3.499 3.499c1.93 0 3.5-1.57 3.5-3.499V70.999a1 1 0 0 1 2 0v15.496a3.504 3.504 0 0 0 3.5 3.499c1.93 0 3.499-1.57 3.499-3.499V70.999a1 1 0 0 1 2 0v14c0 1.93 1.571 3.5 3.5 3.5 1.93 0 3.5-1.57 3.5-3.5V70.997a61.043 61.043 0 0 0-4.384-22.768l-1.544-3.859a1.004 1.004 0 0 1-.072-.371v-3h2v2.807l1.473 3.679A63.048 63.048 0 0 1 147 70.997v14.002c0 3.033-2.467 5.5-5.5 5.5a5.484 5.484 0 0 1-3.995-1.724 5.508 5.508 0 0 1-5.004 3.219 5.48 5.48 0 0 1-3.619-1.361 5.509 5.509 0 0 1-5.381 4.359M97.996 169.999h-22v-14h5v2h-3v10h18v-10h-3v-2h5v14"/><path fill="#434A4F" d="M81.996 178.278l5 1.667 5-1.667V94.975h-10v83.303zm5 3.775l-7-2.333V92.975h14v86.745l-7 2.333z"/><path fill="#434A4F" d="M85.996 168.999h2v-6h-2zM93.996 205.999h-14v-27h2v25h10v-25h2v27M87.001 175.999c-.271 0-.531-.11-.711-.29-.1-.1-.17-.21-.22-.33a.995.995 0 0 1-.08-.38c0-.13.03-.26.08-.38s.12-.23.22-.33c.37-.37 1.04-.37 1.41 0 .09.1.17.21.22.33.05.12.07.25.07.38s-.02.26-.07.38-.13.23-.22.33c-.04.04-.1.08-.15.12a.545.545 0 0 1-.17.09.686.686 0 0 1-.19.06c-.06.01-.129.02-.189.02m0-20c-.271 0-.531-.11-.711-.29-.19-.19-.3-.45-.3-.71 0-.26.11-.52.3-.71.37-.37 1.04-.37 1.41 0 .19.19.29.45.29.71 0 .26-.1.52-.29.71-.18.18-.44.29-.699.29"/><path fill="#434A4F" d="M76.996 185.998h20v-2h-20zM76.996 127.963h20v-2h-20zM174.005 169.999h-22v-14h5v2h-3v10h18v-10h-3v-2h5v14"/><path fill="#434A4F" d="M158.005 178.278l5 1.667 5-1.667V94.975h-10v83.303zm5 3.775l-7-2.333V92.975h14v86.745l-7 2.333z"/><path fill="#434A4F" d="M162.005 168.999h2v-6h-2zM170.005 205.999h-14v-27h2v25h10v-25h2v27M163 175.999a.99.99 0 0 1-.99-1 .987.987 0 0 1 .29-.71c.37-.37 1.04-.37 1.41 0 .09.1.17.21.22.33.05.12.08.25.08.38 0 .26-.11.52-.3.71-.19.18-.44.29-.71.29m0-20a.99.99 0 0 1-.99-1c0-.13.021-.26.071-.38.049-.13.12-.24.219-.33.37-.37 1.04-.37 1.41 0 .19.19.3.45.3.71 0 .07-.01.13-.03.2a1.1 1.1 0 0 1-.05.18l-.09.18a1.033 1.033 0 0 1-.84.44"/><path fill="#434A4F" d="M153.005 185.998h20v-2h-20zM153.005 127.963h20v-2h-20zM104 156.999c0-.55.45-1 1-1s1 .45 1 1-.45 1-1 1-1-.45-1-1zm4 0c0-.55.45-1 1-1s1 .45 1 1-.45 1-1 1-1-.45-1-1zm4 0c0-.55.45-1 1-1s1 .45 1 1-.45 1-1 1-1-.45-1-1zm4 0c0-.55.45-1 1-1s1 .45 1 1-.45 1-1 1-1-.45-1-1zm4 0c0-.55.45-1 1-1s1 .45 1 1-.45 1-1 1-1-.45-1-1zm4 0c0-.55.45-1 1-1s1 .45 1 1-.45 1-1 1-1-.45-1-1zm4 0c0-.55.451-1 1-1 .55 0 1 .45 1 1s-.45 1-1 1c-.549 0-1-.45-1-1zm4 0c0-.55.451-1 1-1 .55 0 1 .45 1 1s-.45 1-1 1c-.549 0-1-.45-1-1zm4 0c0-.55.451-1 1-1 .55 0 1 .45 1 1s-.45 1-1 1c-.549 0-1-.45-1-1zm4 0c0-.55.451-1 1-1 .55 0 1 .45 1 1s-.45 1-1 1c-.549 0-1-.45-1-1zm4 0c0-.55.451-1 1-1 .55 0 1 .45 1 1s-.45 1-1 1c-.549 0-1-.45-1-1zm-47.999 42c0-.55.449-1 1-1 .549 0 1 .45 1 1s-.451 1-1 1c-.551 0-1-.45-1-1zm3.999 0c0-.55.45-1 1-1s1 .45 1 1-.45 1-1 1-1-.45-1-1zm4 0c0-.55.45-1 1-1s1 .45 1 1-.45 1-1 1-1-.45-1-1zm4 0c0-.55.45-1 1-1s1 .45 1 1-.45 1-1 1-1-.45-1-1zm4 0c0-.55.45-1 1-1s1 .45 1 1-.45 1-1 1-1-.45-1-1zm4 0c0-.55.45-1 1-1s1 .45 1 1-.45 1-1 1-1-.45-1-1zm4 0c0-.55.45-1 1-1s1 .45 1 1-.45 1-1 1-1-.45-1-1zm4 0c0-.55.45-1 1-1s1 .45 1 1-.45 1-1 1-1-.45-1-1zm4 0c0-.55.451-1 1-1 .55 0 1 .45 1 1s-.45 1-1 1c-.549 0-1-.45-1-1zm4 0c0-.55.451-1 1-1 .55 0 1 .45 1 1s-.45 1-1 1c-.549 0-1-.45-1-1zm4 0c0-.55.451-1 1-1 .55 0 1 .45 1 1s-.45 1-1 1c-.549 0-1-.45-1-1zm4 0c0-.55.451-1 1-1 .55 0 1 .45 1 1s-.45 1-1 1c-.549 0-1-.45-1-1zm4 0c0-.55.451-1 1-1 .55 0 1 .45 1 1s-.45 1-1 1c-.549 0-1-.45-1-1zm4 0c0-.55.451-1 1-1 .55 0 1 .45 1 1s-.45 1-1 1c-.549 0-1-.45-1-1zm4 0c0-.55.451-1 1-1 .55 0 1 .45 1 1s-.45 1-1 1c-.549 0-1-.45-1-1zm-2-101.997h-2V84.999c0-.551-.448-1-1-1v-2c1.655 0 3 1.346 3 3v12.003m-46 0h-2V84.999c0-1.654 1.346-3 3-3h4v2h-4c-.551 0-1 .449-1 1v12.003m-16.999 48.997c-.271 0-.531-.11-.711-.29-.1-.1-.17-.21-.22-.33a.995.995 0 0 1-.08-.38c0-.13.03-.26.08-.38s.12-.23.22-.33c.37-.37 1.04-.37 1.41 0 .09.1.17.21.22.33.05.12.07.25.07.38s-.02.26-.07.38-.13.23-.22.33c-.04.04-.1.08-.15.12a.545.545 0 0 1-.17.09.686.686 0 0 1-.19.06c-.06.01-.129.02-.189.02m75.999 0c-.259 0-.52-.11-.7-.29a.987.987 0 0 1-.29-.71c0-.26.1-.52.29-.71.37-.37 1.04-.37 1.41 0 .05.05.09.1.13.16.031.05.06.11.09.17.021.06.04.12.05.19.02.06.03.13.03.19 0 .26-.11.52-.3.71-.19.18-.44.29-.71.29"/><path fill="#75C7D0" d="M103 36.999h44v-8h-44z"/><path fill="#434A4F" d="M137.015 32.999h-3.999a1 1 0 1 1 0-2h3.999a1 1 0 1 1 0 2"/><path fill="#434A4F" d="M139.015 30.999a1.001 1.001 0 0 0 0 2 1 1 0 0 0 0-2zm0 4c-1.654 0-3-1.345-3-3 0-1.654 1.346-3 3-3s3 1.346 3 3c0 1.655-1.346 3-3 3z"/><path fill="#42494E" d="M132.818 219.001H216c1.654 0 3-1.346 3-3s-1.346-3-3-3h-83.181l-6.507 3 6.506 3zm83.182 2h-83.622l-10.842-5 10.843-5H216c2.756 0 5 2.243 5 5s-2.244 5-5 5z"/><path fill="#42494E" d="M208.39 220.001h2v-7.599h-2z"/><path fill="#42494E" d="M133.368 216.972h76.022v-2h-76.022z"/><path fill="#434A4F" d="M74.773 56.996h2v-4h-2zM74.773 66.996h2v-4h-2zM78.773 60.996h4v-2h-4zM68.773 60.996h4v-2h-4zM184.839 113.029h2v-4h-2zM184.839 123.029h2v-4h-2zM188.839 117.029h4v-2h-4zM178.839 117.029h4v-2h-4zM35 206.999h2v-4h-2zM35 216.999h2v-4h-2zM39 210.999h4v-2h-4zM29.001 210.999h4v-2h-4z"/><path fill="#E9886C" d="M47.87 50.977a4 4 0 1 1-8 0 4 4 0 0 1 8 0m5.003 34.993c-9.375 0-17 7.626-17 17 0 9.374 7.625 17 17 17 9.374 0 17-7.626 17-17 0-9.374-7.626-17-17-17zm0 36c-10.477 0-19-8.523-19-19 0-10.476 8.523-19 19-19 10.476 0 19 8.524 19 19 0 10.477-8.524 19-19 19z"/><path fill="#434A4F" d="M52.873 112.971a1 1 0 0 1-1-1V101.97a1 1 0 0 1 1-1h7a1 1 0 1 1 0 2h-6v9.001a1 1 0 0 1-1 1m-.003-23.002c-.13 0-.26-.02-.38-.08a.988.988 0 0 1-.32-.21c-.19-.19-.3-.45-.3-.71 0-.26.11-.52.3-.71a1 1 0 0 1 1.08-.21c.13.05.24.12.33.21.09.1.16.21.22.33.05.12.07.25.07.38 0 .27-.099.52-.29.71-.09.09-.2.16-.33.21-.12.06-.25.08-.38.08m0 28c-.13 0-.26-.03-.38-.08a.988.988 0 0 1-.32-.21c-.19-.19-.3-.45-.3-.71 0-.06.01-.13.02-.19.01-.07.03-.13.06-.19.02-.06.051-.12.09-.17a.988.988 0 0 1 .45-.37c.37-.16.81-.07 1.09.21.05.05.09.1.12.16.04.05.071.11.1.17.02.06.04.12.05.19.02.06.02.13.02.19 0 .13-.02.26-.07.38-.06.13-.13.24-.22.33-.09.09-.2.16-.33.21-.12.05-.25.08-.38.08m-7-26.12c-.13 0-.26-.03-.38-.08s-.23-.12-.33-.22a.988.988 0 0 1-.21-.32.995.995 0 0 1-.08-.38c0-.13.03-.26.08-.39.05-.12.12-.23.21-.32.38-.37 1.05-.37 1.42 0 .09.09.16.2.22.32.05.13.07.26.07.39s-.02.26-.07.38c-.06.12-.13.23-.22.32-.09.1-.2.17-.33.22a.991.991 0 0 1-.38.08m14 24.25c-.13 0-.26-.03-.38-.08s-.23-.12-.33-.22c-.18-.18-.29-.44-.29-.7 0-.27.11-.53.29-.71.1-.09.21-.17.33-.22a1 1 0 0 1 1.09.22c.19.18.29.44.29.71 0 .26-.1.52-.29.7-.09.1-.2.17-.33.22-.12.05-.25.08-.38.08m-19.119-19.13a.996.996 0 0 1-.381-.08.933.933 0 0 1-.33-.21.789.789 0 0 1-.12-.15c-.04-.06-.07-.12-.1-.18-.02-.06-.04-.12-.049-.18-.021-.07-.021-.13-.021-.2 0-.26.1-.52.29-.71.09-.09.2-.16.33-.21a1 1 0 0 1 .76 0c.12.05.23.12.33.21.18.19.29.45.29.71 0 .07-.01.13-.02.2-.01.06-.03.12-.06.18-.02.06-.05.12-.09.18l-.12.15c-.1.09-.21.16-.33.21-.12.05-.25.08-.379.08m24.25 14c-.271 0-.531-.11-.711-.29-.19-.19-.289-.45-.289-.71 0-.26.099-.52.289-.71.04-.04.1-.08.15-.12.061-.04.11-.07.17-.09a.99.99 0 0 1 1.09.21c.19.19.301.45.301.71a1.006 1.006 0 0 1-1 1m-26.131-7c-.059 0-.13-.01-.19-.02a.603.603 0 0 1-.19-.06.556.556 0 0 1-.17-.09c-.06-.03-.11-.08-.15-.12-.1-.09-.17-.2-.22-.33a.995.995 0 0 1-.08-.38 1.017 1.017 0 0 1 .45-.83c.05-.04.11-.07.17-.09.06-.03.12-.05.19-.06.19-.04.39-.02.571.06.129.05.239.12.329.21.191.19.29.45.29.71 0 .26-.099.52-.29.71-.09.09-.2.16-.329.21a.845.845 0 0 1-.381.08m28 0c-.13 0-.26-.02-.38-.08-.12-.05-.23-.12-.33-.21-.18-.19-.29-.45-.29-.71 0-.26.11-.52.29-.71a1.037 1.037 0 0 1 1.42 0c.191.19.29.45.29.71 0 .26-.099.52-.29.71-.18.18-.44.29-.71.29m-26.119 7a.987.987 0 0 1-.381-.07 1.12 1.12 0 0 1-.33-.22c-.09-.09-.16-.2-.22-.33-.049-.12-.07-.25-.07-.38 0-.06 0-.13.021-.19a.978.978 0 0 1 .049-.19.95.95 0 0 1 .1-.17.61.61 0 0 1 .12-.16c.09-.09.2-.16.33-.21.36-.15.8-.07 1.09.21.041.05.08.1.12.16.04.05.07.11.09.17.03.06.05.12.06.19.01.06.02.13.02.19 0 .13-.03.26-.08.38-.05.13-.12.24-.21.33-.19.19-.45.29-.709.29m24.25-14c-.271 0-.531-.11-.711-.29-.19-.19-.289-.45-.289-.71 0-.26.099-.52.289-.71.37-.37 1.04-.37 1.41 0 .19.19.301.45.301.71a1.006 1.006 0 0 1-1 1m-19.131 19.13c-.13 0-.26-.03-.38-.08s-.23-.12-.33-.22a1.013 1.013 0 0 1-.27-.9c.02-.06.03-.13.06-.19.02-.06.05-.12.091-.17.039-.05.079-.11.119-.15.38-.38 1.05-.37 1.42 0 .04.04.09.1.12.15.04.05.071.11.1.17.02.06.04.13.05.19a1.009 1.009 0 0 1-.27.9c-.09.1-.2.17-.33.22a.991.991 0 0 1-.38.08m14-24.25c-.13 0-.26-.03-.38-.08s-.23-.12-.33-.22c-.18-.18-.29-.44-.29-.7 0-.13.03-.26.08-.39.05-.12.12-.23.21-.32.1-.09.21-.17.33-.22a1 1 0 0 1 1.09.22c.09.09.17.2.22.32.05.13.07.26.07.39 0 .26-.1.52-.29.7-.09.1-.2.17-.33.22-.12.05-.25.08-.38.08M190 73.999h2v-4.025l.834-.141a10.843 10.843 0 0 0 4.532-1.875l.689-.49 2.845 2.845 1.414-1.415-2.844-2.845.49-.689a10.84 10.84 0 0 0 1.874-4.531l.141-.834H206v-2h-4.025l-.141-.834a10.828 10.828 0 0 0-1.875-4.531l-.491-.689 2.846-2.845-1.414-1.415-2.845 2.845-.689-.49a10.843 10.843 0 0 0-4.532-1.875l-.834-.141v-4.025h-2v4.025l-.833.141c-1.65.277-3.174.908-4.532 1.875l-.689.49-2.845-2.845-1.414 1.415 2.846 2.845-.491.689a10.828 10.828 0 0 0-1.875 4.531l-.141.834H176v2h4.026l.141.834a10.84 10.84 0 0 0 1.874 4.531l.49.689-2.844 2.845 1.414 1.415 2.845-2.845.689.49a10.843 10.843 0 0 0 4.532 1.875l.833.141v4.025zm4 2h-6v-4.361a12.822 12.822 0 0 1-3.816-1.579l-3.083 3.082-4.242-4.243 3.082-3.082a12.775 12.775 0 0 1-1.579-3.817H174v-6h4.362a12.765 12.765 0 0 1 1.579-3.817l-3.082-3.082 4.242-4.243 3.083 3.082A12.822 12.822 0 0 1 188 46.36v-4.361h6v4.361c1.357.32 2.635.848 3.817 1.579l3.083-3.082 4.242 4.243-3.082 3.082a12.765 12.765 0 0 1 1.579 3.817H208v6h-4.361a12.775 12.775 0 0 1-1.579 3.817l3.082 3.082-4.242 4.243-3.083-3.082A12.817 12.817 0 0 1 194 71.638v4.361z"/><path fill="#434A4F" d="M191 55.999c-1.654 0-3 1.346-3 3s1.346 3 3 3c1.655 0 3-1.346 3-3s-1.345-3-3-3zm0 8c-2.756 0-5-2.243-5-5s2.244-5 5-5c2.757 0 5 2.243 5 5s-2.243 5-5 5zM144 41.999h-38v-5h2v3h34v-3h2v5"/></g></svg>