<?xml version="1.0" encoding="utf-8"?><svg xmlns="http://www.w3.org/2000/svg" width="250" height="250" viewBox="0 0 250 250"><g fill="none" fill-rule="evenodd"><path fill="#F58E70" d="M148.452 87.883l-.008-.238a21.918 21.918 0 0 0-3.663-11.437c-1.22-1.707-4.033-6.284-3.681-11.665l.23-2.675c-.694.447-1.339.951-1.922 1.506l-2.801 2.668-1.887-3.378a37.507 37.507 0 0 1-4.596-21.605 40.16 40.16 0 0 0-8.852 23.788l-.4 11.103-5.243-9.796c-.885-1.653-2.305-3.1-4.052-4.202.131.824.226 1.687.285 2.591.352 5.381-2.461 9.958-3.687 11.676a21.892 21.892 0 0 0-3.657 11.413l-.008.251c-.005.172-.007.343-.007.51 0 5.477 1.985 10.648 5.614 14.691l3.503 3.882a22.01 22.01 0 0 0 25.526.157l.224-.157 3.475-3.882c3.629-4.043 5.614-9.214 5.614-14.691 0-.167-.002-.338-.007-.51"/><path fill="#475059" d="M109.886 108.477l-1.748-1.67c-4.929-4.93-7.635-11.464-7.635-18.414 0-.202.003-.41.008-.617l.01-.289a25.892 25.892 0 0 1 4.331-13.497l.066-.093c.977-1.369 3.221-4.994 2.952-9.093-.196-3.008-.837-5.406-1.958-7.333l-1.081-1.856 2.117.368c4.196.729 8.008 2.879 10.524 5.831 1.231-12.185 7.421-23.283 17.266-30.784l2.831-2.156-1.293 3.315a33.543 33.543 0 0 0 1.352 27.429c2.332-1.892 5.246-3.216 8.337-3.772l2.113-.38-1.069 1.862a14.338 14.338 0 0 0-1.666 4.509l-.253 2.988c-.266 4.072 1.976 7.7 2.953 9.069l.058.084a25.908 25.908 0 0 1 4.34 13.519l.01.284c.006.2.008.409.008.612 0 6.951-2.705 13.485-7.618 18.398l-1.58 1.483-1.369-1.458 1.557-1.461c4.513-4.513 7.01-10.545 7.01-16.962 0-.184-.002-.373-.008-.561l-.005-.178c-.154-4.548-1.536-8.859-4.001-12.555-1.132-1.588-3.659-5.691-3.35-10.425l.269-3.107a16.73 16.73 0 0 1 .948-3.264c-2.385.737-4.567 1.988-6.283 3.622l-.934.89-.628-1.126a35.521 35.521 0 0 1-3.177-26.867 42.168 42.168 0 0 0-14.017 29.953l-.134 3.702-1.747-3.266c-1.678-3.136-4.952-5.627-8.808-6.789.703 1.79 1.126 3.855 1.282 6.252.311 4.741-2.219 8.842-3.321 10.385a23.928 23.928 0 0 0-4.025 12.505l-.01.265a23.868 23.868 0 0 0 7.025 17.548l1.732 1.653-1.381 1.447"/><path fill="#FFD15D" d="M86.368 58.482a1.125 1.125 0 1 1-2.25 0 1.125 1.125 0 0 1 2.25 0m88.25 27.506a1.376 1.376 0 1 1-2.751-.001 1.376 1.376 0 0 1 2.751.001m-22.5-37.256a1.625 1.625 0 1 1 3.25 0 1.625 1.625 0 0 1-3.25 0"/><path fill="#F58E70" d="M172.124 59.125a2 2 0 1 1-4 0 2 2 0 0 1 4 0m-76.012-9.006a1 1 0 1 1 2 0 1 1 0 0 1-2 0m-2.991 23.988a3 3 0 1 1 6 0 3 3 0 0 1-6 0m66.997 0a1 1 0 1 1 2 0 1 1 0 0 1-2 0"/><path fill="#475059" d="M124.062 168.124h2v-8h-2z"/><path fill="#F58E70" d="M100.635 161.125H83.037l10.081-23.342h-3.235l13.883-31.405 13.883 31.405h-3.235l10.082 23.342h-23.861"/><path fill="#5FE0ED" d="M154.177 161.125h-21.141l12.11-28.041h-3.885l6.952-15.728h-2.726l6.055-14.021h-1.943l8.339-18.864 8.339 18.864h-1.943l6.056 14.021h-2.727l6.953 15.728h-3.886l12.111 28.042h-21.039l-7.625-.001"/><path fill="#48515A" d="M212.052 209.179h2v-4h-2zM212.052 219.179h2v-4h-2zM216.052 213.179h4v-2h-4zM206.052 213.179h4v-2h-4z"/><path fill="#FFD15D" d="M185.031 119.108a2 2 0 1 0 4 0 2 2 0 0 0-4 0"/><path fill="#475059" d="M128.064 168.124h2v-8h-2zM107.055 172.316h2v-2h-2v2zm4 0h2v-2h-2v2zm4 0h2v-2h-2v2zm4 0h2v-2h-2v2zm4 0h2v-2h-2v2zm4 0h2v-2h-2v2zm4 0h2v-2h-2v2zm4 0h2v-2h-2v2zm4 0h2v-2h-2v2zm-30.002 3.001h2v-2h-2v2zm4 0h2v-2h-2v2zm4 0h2v-2h-2v2zm4 0h2v-2h-2v2zm4 0h2v-2h-2v2zm4 0h2v-2h-2v2zm4 0h2v-2h-2v2zm4 0h2v-2h-2v2zm4 0h1.976v-2h-1.976v2z"/><path fill="#48515A" d="M178.099 66.1h22v-2h-22zM194.994 100.1h17.105a5.01 5.01 0 0 0 4.9-4h-19.971a6.994 6.994 0 0 1-2.034 4zm17.105 2h-22c-3.859 0-7-3.14-7-7v-24h2v24c0 2.757 2.244 5 5 5 2.757 0 5-2.243 5-5v-1h24v1c0 3.86-3.14 7-7 7z"/><path fill="#48515A" d="M207.099 95.1h-2v-24c0-2.757-2.243-5-5-5-2.756 0-5 2.243-5 5v1h-24v-1c0-3.86 3.141-7 7-7v2a5.008 5.008 0 0 0-4.899 4h19.971c.486-3.388 3.408-6 6.928-6 3.86 0 7 3.14 7 7v24"/><path fill="#475059" d="M62.977 101.091h-2c0-2.206-1.795-4-4-4-2.206 0-4 1.794-4 4h-2c0-3.309 2.691-6 6-6 3.308 0 6 2.691 6 6"/><path fill="#475059" d="M72.977 101.091h-2c0-2.206-1.795-4-4-4-2.206 0-4 1.794-4 4h-2c0-3.309 2.691-6 6-6 3.308 0 6 2.691 6 6"/><path fill="#475059" d="M82.977 101.091h-2c0-2.206-1.795-4-4-4-2.206 0-4 1.794-4 4h-2c0-3.309 2.691-6 6-6 3.308 0 6 2.691 6 6"/><path fill="#475059" d="M50.977 100.091c0-8.823 7.178-16.001 16-16.001s16 7.178 16 16h-2c0-7.72-6.28-14-14-14s-14 6.28-14 14l-2 .001"/><path fill="#475059" d="M63.477 114.092a4.505 4.505 0 0 1-4.5-4.5h2c0 1.378 1.121 2.5 2.5 2.5 1.378 0 2.5-1.122 2.5-2.5V96.091h2v13.501c0 2.481-2.019 4.5-4.5 4.5M65.977 85.09h2v-2.998h-2zM107.055 178.319h2v-2h-2v2zm4 0h2v-2h-2v2zm4 0h2v-2h-2v2zm4 0h2v-2h-2v2zm4 0h2v-2h-2v2zm4 0h2v-2h-2v2zm4 0h2v-2h-2v2zm4 0h2v-2h-2v2zm4 0h2v-2h-2v2zm-30.002 3.002h2v-2h-2v2zm4 0h2v-2h-2v2zm4 0h2v-2h-2v2zm4 0h2v-2h-2v2zm4 0h2v-2h-2v2zm4 0h2v-2h-2v2zm4 0h2v-2h-2v2zm4 0h2v-2h-2v2zm4 0h1.976v-2h-1.976v2zm-33.998 3.001h2v-2h-2v2zm4 0h2v-2h-2v2zm4 0h2v-2h-2v2zm4 0h2v-2h-2v2zm4 0h2v-2h-2v2zm4 0h2v-2h-2v2zm4 0h2v-2h-2v2zm4 0h2v-2h-2v2zm4 0h2v-2h-2v2z"/><path fill="#FFD15D" d="M85.678 161.126H64.537l12.11-28.042h-3.885l16.677-37.728 16.678 37.728h-3.886l12.111 28.042H85.678"/><path fill="#48515A" d="M35.948 109.12h2v-4h-2zM35.948 119.12h2v-4h-2zM39.947 113.12h4v-2h-4zM29.948 113.12h4v-2h-4zM108.647 211.126h-2v-11H69.649v11h-2v-13h40.998v13"/><path fill="#5FE0ED" d="M62.648 221.126h48.119v-12.994H62.648z"/><path fill="#48515A" d="M76.647 216.126h-3.998a1 1 0 1 1 0-2h3.998a1 1 0 1 1 0 2"/><path fill="#48515A" d="M70.649 214.126a1.001 1.001 0 0 0 0 2c.551 0 1-.449 1-1 0-.551-.449-1-1-1zm0 4c-1.655 0-3-1.345-3-3 0-1.654 1.345-3 3-3 1.654 0 3 1.346 3 3 0 1.655-1.346 3-3 3z"/><path fill="#DEDEDD" d="M53.87 137.6v15.792l11.027 9.525a12.427 12.427 0 0 0 8.943 3.639l3.322-.042-12.286-10.545v-10.364c0-2.984-1.071-5.619-3.002-7.246v-.759c0-4.946-2.925-8.955-7.871-8.955v1.073c-1.121-.684-2.464-1.073-4.003-1.073v1.073c2.481 1.514 3.87 4.475 3.87 7.882"/><path fill="#475059" d="M77.162 167.514a.996.996 0 0 1-.651-.241l-12.635-10.845v-10.823c0-2.702-.964-5.064-2.646-6.482l-.355-.3V137.6c0-3.96-2.125-7.955-6.872-7.955H51v.073a1 1 0 1 1-2 0v-2.073h5.003c5.223 0 8.872 4.094 8.872 9.955v.312c1.913 1.814 3.001 4.588 3.001 7.693v9.904l11.938 10.246a1 1 0 0 1-.652 1.759"/><path fill="#475059" d="M101.952 199.527a1 1 0 0 1-1-1v-21.856a9.12 9.12 0 0 0-2.689-6.492L74.75 146.665c-2.564 3.33-2.199 8.436.996 11.631l9.628 9.114-11.521.146c-3.569.04-7.119-1.388-9.663-3.932l-11.32-9.774V137.6c0-3.67-1.826-7.371-5.872-7.893v29.396l27.977 26.666v12.675a1 1 0 1 1-2 0v-11.818L44.998 159.96v-32.315h1c5.223 0 8.872 4.094 8.872 9.955v15.335l10.681 9.225c2.218 2.215 5.209 3.44 8.277 3.396l6.59-.084-6.067-5.743c-1.989-1.989-3.173-4.749-3.267-7.592-.098-2.949.937-5.662 2.913-7.639l.707-.707 24.973 24.974a11.106 11.106 0 0 1 3.275 7.906v21.856a1 1 0 0 1-1 1"/><path fill="#48515A" d="M181.131 211.126h-2v-11h-36.999v11h-2v-13h40.999v13"/><path fill="#5FE0ED" d="M138.011 221.126h48.119v-12.994h-48.119z"/><path fill="#48515A" d="M176.131 216.126h-3.999a1 1 0 1 1 0-2h3.999a1 1 0 0 1 0 2"/><path fill="#48515A" d="M178.131 214.126a1.001 1.001 0 0 0 0 2c.551 0 1-.449 1-1 0-.551-.449-1-1-1zm0 4c-1.655 0-3-1.345-3-3 0-1.654 1.345-3 3-3 1.654 0 3 1.346 3 3 0 1.655-1.346 3-3 3z"/><path fill="#DEDEDD" d="M194.909 137.6v15.792l-11.027 9.525a12.428 12.428 0 0 1-8.944 3.639l-3.322-.042 12.286-10.545v-10.364c0-2.984 1.072-5.619 3.002-7.246v-.759c0-4.946 2.926-8.955 7.872-8.955v1.073c1.121-.684 2.463-1.073 4.002-1.073v1.073c-2.48 1.514-3.869 4.475-3.869 7.882"/><path fill="#475059" d="M171.616 167.514a1 1 0 0 1-.651-1.759l11.937-10.246v-9.904c0-3.105 1.089-5.879 3.002-7.693v-.312c0-5.861 3.648-9.955 8.872-9.955h5.002v2.073a1 1 0 1 1-2 0v-.073h-3.002c-4.747 0-6.872 3.995-6.872 7.955v1.223l-.355.3c-1.682 1.418-2.647 3.781-2.647 6.482v10.823l-12.635 10.845a.994.994 0 0 1-.651.241"/><path fill="#475059" d="M146.826 199.527a1 1 0 0 1-1-1v-21.856c0-2.986 1.163-5.794 3.275-7.906l24.975-24.973.706.706c4.031 4.033 3.878 10.999-.335 15.212l-6.087 5.762 6.591.084a11.483 11.483 0 0 0 8.224-3.346l10.734-9.275V137.6c0-5.861 3.648-9.955 8.872-9.955h1v32.315l-27.978 26.666v11.818a1 1 0 1 1-2 0v-12.675l27.978-26.666v-29.396c-4.047.522-5.872 4.223-5.872 7.893v16.25l-11.374 9.824c-2.452 2.456-5.905 3.883-9.444 3.883l-.165-.001-11.521-.146 9.647-9.133c3.177-3.178 3.542-8.282.977-11.612l-23.514 23.514a9.122 9.122 0 0 0-2.689 6.492v21.856a1 1 0 0 1-1 1m-46.227-40.405h51.745l-9.828-22.231h7.336l-12.11-28.042h3.872l-15.143-34.254-15.142 34.254h3.871l-12.11 28.042h7.337l-9.828 22.231zm54.815 2H97.529l9.827-22.231h-7.308l12.11-28.042h-3.899l18.212-41.2 18.213 41.2h-3.899l12.11 28.042h-7.308l9.827 22.231z"/></g></svg>