<?xml version="1.0" encoding="utf-8"?><svg xmlns="http://www.w3.org/2000/svg" width="250" height="250" viewBox="0 0 250 250"><g fill="none" fill-rule="evenodd"><path fill="#FFD15D" d="M90.919 124.007c-9.941 0-18-8.059-18-18s8.059-18 18-18 18 8.059 18 18-8.059 18-18 18zM92 57.191c-25.957 0-47 21.042-47 47 0 25.957 21.043 47 47 47 25.958 0 47-21.043 47-47 0-25.958-21.042-47-47-47z"/><path fill="#FFD15D" d="M208.39 119.055h-10.413l-.358-.216-73.395-44.364 1.553-2.568 73.036 44.148h9.577c4.415 0 8.008-3.593 8.008-8.009s-3.593-8.008-8.008-8.008v-3c6.069 0 11.008 4.938 11.008 11.008 0 6.071-4.939 11.009-11.008 11.009"/><path fill="#475059" d="M90.919 92.068c-7.686 0-13.939 6.253-13.939 13.939s6.253 13.939 13.939 13.939c7.685 0 13.938-6.253 13.938-13.939s-6.253-13.939-13.938-13.939zm0 29.878c-8.789 0-15.939-7.151-15.939-15.939 0-8.789 7.15-15.939 15.939-15.939 8.787 0 15.938 7.15 15.938 15.939 0 8.788-7.151 15.939-15.938 15.939zm-.017-49.796c-8.752 0-16.989 3.288-23.351 9.356-6.764 6.454-10.49 15.156-10.49 24.501v69.184c0 4.94 4.02 8.959 8.96 8.959H200v-64.659c-7.566.513-14 6.79-14 13.904 0 17.314-13.33 30.878-30.347 30.878-17.026 0-30.877-13.852-30.877-30.878v-26.403c0-18.665-14.152-33.952-32.22-34.803a35.235 35.235 0 0 0-1.654-.039zM202 186.15H66.021c-6.043 0-10.96-4.916-10.96-10.959v-69.184c0-9.897 3.945-19.113 11.109-25.947 7.161-6.831 16.563-10.329 26.48-9.869 19.136.901 34.126 17.066 34.126 36.801v26.403c0 15.924 12.954 28.878 28.877 28.878 15.895 0 28.347-12.685 28.347-28.878 0-8.49 7.945-15.938 17-15.938h1v68.693z"/><path fill="#48515A" d="M35 147.191h2v-4h-2zM35 157.191h2v-4h-2zM39 151.191h4v-2h-4zM29.001 151.191h4v-2h-4zM205 35.191h2v-4h-2zM205 45.191h2v-4h-2zM209 39.191h4v-2h-4zM199 39.191h4v-2h-4zM181.857 83.714a2.146 2.146 0 0 0-2.143 2.144c0 1.182.961 2.143 2.143 2.143A2.145 2.145 0 0 0 184 85.858a2.146 2.146 0 0 0-2.143-2.144zm0 6.287a4.148 4.148 0 0 1-4.143-4.143 4.148 4.148 0 0 1 4.143-4.144A4.148 4.148 0 0 1 186 85.858a4.148 4.148 0 0 1-4.143 4.143z"/><path fill="#F58E70" d="M157 141.191a2 2 0 1 1 4 0 2 2 0 0 1-4 0"/><path fill="#DEDEDD" d="M39 186.191a3 3 0 1 1 6 0 3 3 0 0 1-6 0"/><path fill="#F58E70" d="M101 47.191a2 2 0 1 1-3.999.001 2 2 0 0 1 3.999-.001"/><path fill="#FFD15D" d="M178 60.809v5.588a2.797 2.797 0 0 0 2.794 2.794h8.312a4.77 4.77 0 0 1-.9-2.794v-5.654l-1.226.555-1.98-.989-2 1-2-1-2 1-1-.5zm15 10.382h-12.206A4.8 4.8 0 0 1 176 66.397v-8.824l3 1.5 2-1 2 1 2-1 2.021 1.01 3.185-1.444v8.758A2.797 2.797 0 0 0 193 69.191v2zm10 7.882l2 1 2-1 1 .5v-5.588a2.797 2.797 0 0 0-2.794-2.794h-8.312c.566.787.9 1.753.9 2.795v5.654l1.228-.557 1.978.99 2-1zm7 3.736l-3-1.5-2 1-2-1-2 1-2.021-1.011-3.185 1.444v-8.756A2.797 2.797 0 0 0 193 71.191v-2h12.206A4.8 4.8 0 0 1 210 73.985v8.824zm-109.106 82.382h8.312a2.797 2.797 0 0 0 2.794-2.794v-5.588l-1 .5-2-1-2 1-2-1-1.978.989-1.228-.556v5.655a4.77 4.77 0 0 1-.9 2.794zm8.312 2H97.001v-2a2.796 2.796 0 0 0 2.793-2.794v-8.757l3.185 1.443 2.021-1.01 2 1 2-1 2 1 3-1.5v8.824a4.8 4.8 0 0 1-4.794 4.794zm-22.205 7.882l2 1 1.979-.99 1.226.556v-5.653c0-1.042.334-2.008.901-2.795h-8.313a2.796 2.796 0 0 0-2.793 2.794v5.588l1-.5 2 1 2-1zm-7 3.736v-8.824a4.798 4.798 0 0 1 4.793-4.794h12.207v2a2.798 2.798 0 0 0-2.795 2.795v8.757l-3.185-1.445-2.02 1.011-2-1-2 1-2-1-3 1.5zm108.999 18v5.588a2.797 2.797 0 0 0 2.794 2.794h8.312a4.773 4.773 0 0 1-.9-2.795v-5.654l-1.228.556-1.978-.989-2 1-2-1-2 1-1-.5zm15 10.382h-12.206a4.8 4.8 0 0 1-4.794-4.794v-8.824l3 1.5 2-1 2 1 2-1 2.021 1.01 3.185-1.443v8.756a2.797 2.797 0 0 0 2.794 2.795v2zm10 7.882l2 1 2-1 1 .5v-5.588a2.797 2.797 0 0 0-2.794-2.794h-8.312c.566.787.9 1.752.9 2.794v5.654l1.226-.556 1.98.99 2-1zm7 3.736l-3-1.5-2 1-2-1-2 1-2.021-1.011-3.185 1.445v-8.758a2.797 2.797 0 0 0-2.794-2.794v-2h12.206a4.8 4.8 0 0 1 4.794 4.794v8.824z"/></g></svg>