<?xml version="1.0" encoding="utf-8"?><svg xmlns="http://www.w3.org/2000/svg" width="193" height="165" viewBox="0 0 193 165"><g fill="none" fill-rule="evenodd"><path fill="#F58E70" d="M50.053 8.454h2v-6h-2zM56.053 2.454h2v-2h-2zM54.053 2.454h2v-2h-2zM52.053 2.454h2v-2h-2zM58.053 4.454h2v-2h-2zM64.053 2.454h2v-2h-2zM62.053 2.454h2v-2h-2zM60.053 2.454h2v-2h-2zM66.053 8.454h2v-6h-2zM52.053 10.454h2v-2h-2zM54.053 12.454h2v-2h-2zM56.053 14.454h2v-2h-2zM58.053 16.454h2v-2h-2zM60.053 14.454h2v-2h-2zM62.053 12.454h2v-2h-2zM64.053 10.454h2v-2h-2zM160.053 95.453v-2h-6v2h-2v-2h-6v2h-2v6h2v2h2v2h2v2h2v2h2v-2h2v-2h2v-2h2v-2h2v-6h-2M5.946 44.997a2 2 0 1 1 .001 3.999 2 2 0 0 1-.001-3.999m123.982-26a2 2 0 1 1 .001 3.999 2 2 0 0 1-.001-3.999m30.018 122a4 4 0 1 1 0 8 4 4 0 0 1 0-8m14.107-53.536a2 2 0 1 1 .001 3.999 2 2 0 0 1-.001-3.999M64.996 117.466v-2h-6v2h-2v-2h-6v2h-2v6h2v2h2v2h2v2h2v2h2v-2h2v-2h2v-2h2v-2h2v-6h-2"/><path fill="#DEDEDD" d="M33.864 137V11h-.933c-4.968.005-8.994 4.032-9 9v120.007a14.92 14.92 0 0 1 9-3.007h.933"/><path fill="#475059" d="M148.931 165H32.932c-7.177-.008-12.992-5.824-13-13V20c.008-7.177 5.823-12.992 13-13h116.999v133h-2V9H32.932c-6.073.007-10.994 4.927-11 11v132c.006 6.072 4.927 10.993 11 11h115.999v2"/><path fill="#475059" d="M21.932 152h-2c.008-7.177 5.823-12.992 13-13h115.999v2H32.932c-6.073.007-10.994 4.927-11 11"/><path fill="#475059" d="M148.931 165H32.932c-7.18 0-13-5.821-13-13 0-7.18 5.82-13 13-13h116.999v2H32.932c-6.075 0-11 4.925-11 11s4.925 11 11 11h115.999v2"/><path fill="#475059" d="M147.931 161H32.932a9 9 0 0 1 0-18h114.999v2H32.932a7 7 0 1 0 0 14h114.999v2"/><path fill="#475059" d="M146.93 157H32.932a5 5 0 1 1 0-10H146.93v2H32.932a3 3 0 1 0 0 6H146.93v2"/><path fill="#475059" d="M32.932 153h113.166v-2H32.932zM39.933 17.003a1 1 0 0 1 .997-1h.013a.988.988 0 0 1 .99.986v.014a.994.994 0 0 1-.988 1h-.002a1.005 1.005 0 0 1-1.01-.999v-.001zm0 4a1 1 0 0 1 .997-1h.013a.988.988 0 0 1 .99.986v.014a.994.994 0 0 1-.988 1h-.002a1.005 1.005 0 0 1-1.01-.999v-.001zm0 4a1 1 0 0 1 .997-1h.013a.988.988 0 0 1 .99.986v.014a.994.994 0 0 1-.988 1h-.002a1.005 1.005 0 0 1-1.01-.999v-.001zm0 4a1 1 0 0 1 .997-1h.013a.988.988 0 0 1 .99.986v.014a.994.994 0 0 1-.988 1h-.002a1.005 1.005 0 0 1-1.01-.999v-.001zm0 4a1 1 0 0 1 .997-1h.013a.988.988 0 0 1 .99.986v.014a.994.994 0 0 1-.988 1h-.002a1.005 1.005 0 0 1-1.01-.999v-.001zm0 4a1 1 0 0 1 .997-1h.013a.988.988 0 0 1 .99.986v.014a.994.994 0 0 1-.988 1h-.002a1.005 1.005 0 0 1-1.01-.999v-.001zm0 4a1 1 0 0 1 .997-1h.013a.988.988 0 0 1 .99.986v.014a.994.994 0 0 1-.988 1h-.002a1.005 1.005 0 0 1-1.01-.999v-.001zm0 4a1 1 0 0 1 .997-1h.013a.988.988 0 0 1 .99.986v.014a.994.994 0 0 1-.988 1h-.002a1.005 1.005 0 0 1-1.01-.999v-.001zm0 4a1 1 0 0 1 .997-1h.013a.988.988 0 0 1 .99.986v.014a.994.994 0 0 1-.988 1h-.002a1.005 1.005 0 0 1-1.01-.999v-.001zm0 4a1 1 0 0 1 .997-1h.013a.988.988 0 0 1 .99.986v.014a.994.994 0 0 1-.988 1h-.002a1.005 1.005 0 0 1-1.01-.999v-.001zm0 4a1 1 0 0 1 .997-1h.013a.988.988 0 0 1 .99.986v.014a.994.994 0 0 1-.988 1h-.002a1.005 1.005 0 0 1-1.01-.999v-.001zm0 4a1 1 0 0 1 .997-1h.013a.988.988 0 0 1 .99.986v.014a.994.994 0 0 1-.988 1h-.002a1.005 1.005 0 0 1-1.01-.999v-.001zm0 4a1 1 0 0 1 .997-1h.013a.988.988 0 0 1 .99.986v.014a.994.994 0 0 1-.988 1h-.002a1.005 1.005 0 0 1-1.01-.999v-.001zm0 4a1 1 0 0 1 .997-1h.013a.988.988 0 0 1 .99.986v.014a.994.994 0 0 1-.988 1h-.002a1.005 1.005 0 0 1-1.01-.999v-.001zm0 4a1 1 0 0 1 .997-1h.013a.988.988 0 0 1 .99.986v.014a.994.994 0 0 1-.988 1h-.002a1.005 1.005 0 0 1-1.01-.999v-.001zm0 4a1 1 0 0 1 .997-1h.013a.988.988 0 0 1 .99.986v.014a.994.994 0 0 1-.988 1h-.002a1.005 1.005 0 0 1-1.01-.999v-.001zm0 4a1 1 0 0 1 .997-1h.013a.988.988 0 0 1 .99.986v.014a.994.994 0 0 1-.988 1h-.002a1.005 1.005 0 0 1-1.01-.999v-.001zm0 4a1 1 0 0 1 .997-1h.013a.988.988 0 0 1 .99.986v.014a.994.994 0 0 1-.988 1h-.002a1.005 1.005 0 0 1-1.01-.999v-.001zm0 4a1 1 0 0 1 .997-1h.013a.988.988 0 0 1 .99.986v.014a.994.994 0 0 1-.988 1h-.002a1.005 1.005 0 0 1-1.01-.999v-.001zm0 4a1 1 0 0 1 .997-1h.013a.988.988 0 0 1 .99.986v.014a.994.994 0 0 1-.988 1h-.002a1.005 1.005 0 0 1-1.01-.999v-.001zm0 4a1 1 0 0 1 .997-1h.013a.988.988 0 0 1 .99.986v.014a.994.994 0 0 1-.988 1h-.002a1.005 1.005 0 0 1-1.01-.999v-.001zm0 4a1 1 0 0 1 .997-1h.013a.988.988 0 0 1 .99.986v.014a.994.994 0 0 1-.988 1h-.002a1.005 1.005 0 0 1-1.01-.999v-.001zm0 4a1 1 0 0 1 .997-1h.013a.988.988 0 0 1 .99.986v.014a.994.994 0 0 1-.988 1h-.002a1.005 1.005 0 0 1-1.01-.999v-.001zm0 4a1 1 0 0 1 .997-1h.013a.988.988 0 0 1 .99.986v.014a.994.994 0 0 1-.988 1h-.002a1.005 1.005 0 0 1-1.01-.999v-.001zm0 4a1 1 0 0 1 .997-1h.013a.988.988 0 0 1 .99.986v.014a.994.994 0 0 1-.988 1h-.002a1.005 1.005 0 0 1-1.01-.999v-.001zm0 4a1 1 0 0 1 .997-1h.013a.988.988 0 0 1 .99.986v.014a.994.994 0 0 1-.988 1h-.002a1.005 1.005 0 0 1-1.01-.999v-.001zm0 4a1 1 0 0 1 .997-1h.013a.988.988 0 0 1 .99.986v.014a.994.994 0 0 1-.988 1h-.002a1.005 1.005 0 0 1-1.01-.999v-.001zm0 4a1 1 0 0 1 .997-1h.013a.988.988 0 0 1 .99.986v.014a.994.994 0 0 1-.988 1h-.002a1.005 1.005 0 0 1-1.01-.999v-.001zm0 4a1 1 0 0 1 .997-1h.013a.988.988 0 0 1 .99.986v.014a.994.994 0 0 1-.988 1h-.002a1.005 1.005 0 0 1-1.01-.999v-.001zm0 4a1 1 0 0 1 .997-1h.013a.988.988 0 0 1 .99.986v.014a.994.994 0 0 1-.988 1h-.002a1.005 1.005 0 0 1-1.01-.999v-.001z"/><path fill="#48515A" d="M163.094 10.907h2v-4h-2zM163.094 20.907h2v-4h-2zM167.094 14.907h4v-2h-4zM157.094 14.907h4v-2h-4zM184.107 140.985h2v-4h-2zM184.107 150.985h2v-4h-2zM188.107 144.985h4v-2h-4zM178.107 144.985h4v-2h-4zM6 110.967h2v-4H6zM6 120.967h2v-4H6zM10 114.967h4v-2h-4zM0 114.967h4v-2H0z"/><path fill="#F58E70" d="M78.932 55.332l22-22 4.242 4.242-22 22-4.242-4.242"/><path fill="#F58E70" d="M78.932 37.574l4.242-4.242 22 22-4.242 4.242-22-22"/><path fill="#475059" d="M92.053 24.453c-12.15 0-22 9.85-22 22 0 12.151 9.85 22 22 22s22-9.849 22-22c-.013-12.144-9.855-21.986-22-22zm0 46c-13.255 0-24-10.745-24-24s10.745-24 24-24 24 10.745 24 24c-.015 13.249-10.751 23.985-24 24z"/><path fill="#5FE0ED" d="M90.242 113.506l-12.683-12.684 4.242-4.242 8.441 8.441 23.69-23.689 4.242 4.242-27.932 27.932"/><path fill="#475059" d="M92.053 78.453c-12.15 0-22 9.85-22 22 0 12.151 9.85 22 22 22s22-9.849 22-22c-.013-12.144-9.855-21.986-22-22zm0 46c-13.255 0-24-10.745-24-24s10.745-24 24-24 24 10.745 24 24c-.015 13.249-10.751 23.985-24 24z"/><path fill="#48515A" d="M167.309 41.437l-10.727 7.387a.973.973 0 0 0-.415.807l.04 11.711a.974.974 0 0 0 .419.804l10.78 7.314.51-.002 10.728-7.387a.97.97 0 0 0 .414-.807l-.04-11.712a.97.97 0 0 0-.42-.804l-10.778-7.313-.511.002zm-.515 30.025l-11.291-7.661a2.973 2.973 0 0 1-1.295-2.451l-.04-11.713a2.97 2.97 0 0 1 1.279-2.46l11.237-7.738 1.747-.006 11.292 7.661a2.974 2.974 0 0 1 1.295 2.451l.04 11.713a2.972 2.972 0 0 1-1.279 2.46l-11.237 7.738-1.748.006z"/><path fill="#48515A" d="M167.635 58.238l-12.918-8.37 1.088-1.679 11.797 7.644 11.845-8.156 1.134 1.647-12.946 8.914"/><path fill="#48515A" d="M166.619 57.039l2-.007.045 13.301-2 .007-.045-13.301M158.62 57.489l2-.008.007 2-2 .008-.007-2M162.626 59.466l2-.008.008 2-2 .008-.008-2M172.622 58.431l2-.008.007 2-2 .008-.007-2M162.584 47.466l2-.008.008 2-2 .008-.008-2M166.584 47.452l2-.008.008 2-2 .008-.008-2M170.584 47.438l2-.008.008 2-2 .008-.008-2"/><path fill="#FFD15D" d="M178.053 107.453a4 4 0 1 1 0 8 4 4 0 0 1 0-8"/><path fill="#FFD15D" d="M178.053 117.453a6 6 0 1 1 0-12 6 6 0 0 1 0 12zm0-14a8 8 0 1 0 0 16 8 8 0 0 0 0-16zm-118-38a4 4 0 1 1 0 8 4 4 0 0 1 0-8"/><path fill="#FFD15D" d="M60.053 75.453a6 6 0 1 1 0-12 6 6 0 0 1 0 12zm0-14a8 8 0 1 0 0 16 8 8 0 0 0 0-16zM128.053 52.4l3 2.924-.708 4.129 3.708-1.949 3.708 1.949-.708-4.129 3-2.924-4.146-.603-1.854-3.756-1.854 3.756zM120.053 119.813l3 2.924-.708 4.129 3.708-1.949 3.708 1.949-.708-4.129 3-2.924-4.146-.603-1.854-3.757-1.854 3.757z"/></g></svg>