<?xml version="1.0" encoding="utf-8"?><svg xmlns="http://www.w3.org/2000/svg" xmlns:xlink="http://www.w3.org/1999/xlink" width="193" height="162" viewBox="0 0 193 162"><defs><path id="rga" d="M.998 0H78.99v103.94H.998z"/></defs><g fill="none" fill-rule="evenodd"><path fill="#48515A" d="M6 121h2v-4H6zM6 131h2v-4H6zM10 125h4v-2h-4zM0 125h4v-2H0z"/><path fill="#DEDEDD" d="M124.553 71h.857l2.08-14h-8.071l-.009 8h6l-.857 6"/><path fill="#5FE0ED" d="M66.995 71h1.999V17.995h-1.999z"/><path fill="#FFD15D" d="M90.994 71h16V4h-16z"/><path fill="#48515A" d="M88.994 71h-2V0h24v23h-2V2h-20v69"/><path fill="#48515A" d="M98.994 10a2 2 0 1 0 0 4 2 2 0 0 0 0-4zm0 6a4 4 0 1 1 0-8 4 4 0 0 1 0 8zM87.994 24h6v-2h-6zM87.994 36h6v-2h-6zM87.994 48h6v-2h-6z"/><g transform="translate(56 58)"><mask id="rgb" fill="#fff"><use xlink:href="#rga"/></mask><path fill="#48515A" mask="url(#rgb)" d="M31.994 2h6V0h-6zM74.934 104H5.054L3.856 83.058l1.996-.115L6.942 102h66.104l3.946-69.057-.001-.943H2.998v1l1.826 31.943-1.996.114-1.828-32L.998 30H78.99v3l-4.056 71"/></g><path fill="#48515A" d="M58.998 84h73.992V72H58.998v12zm-2 2h77.992V70H56.998v16z"/><path fill="#475059" d="M72.975 71.064h-2l.001-55.069h-6v55.069h-2V13.995h10l-.001 57.069"/><path fill="#475059" d="M60.994 52.999h-2V23.995h13v2h-11v27.004M84.994 71.064h-2V23a3 3 0 1 0-6 0v48.064h-2V23a5 5 0 0 1 10 0v48.064"/><path fill="#475059" d="M76.396 30.61h7.599v-2h-7.599z"/><path fill="#475059" d="M78.966 71.064h2V29.61h-2z"/><path fill="#48515A" d="M120.413 56h6.601c.809-.773 2.374-2.344 4.017-3.996 2.243-2.254 4.564-4.585 5.382-5.304a7.591 7.591 0 0 0 2.581-5.7v-6.416A7.592 7.592 0 0 0 131.41 27h-3.402a7.593 7.593 0 0 0-7.585 7.584v17.353c0 .642-.006 2.778-.01 4.063zm7.387 2h-9.393l.003-1.003s.013-4.124.013-5.06V34.584c.006-5.291 4.294-9.578 9.585-9.584h3.402a9.594 9.594 0 0 1 9.584 9.584V41a9.59 9.59 0 0 1-3.261 7.202c-.768.675-3.168 3.086-5.284 5.213-1.879 1.887-3.652 3.669-4.362 4.322L127.8 58z"/><path fill="#48515A" d="M128.007 32a2.587 2.587 0 0 0-2.584 2.584v10.737a2.599 2.599 0 0 0 1.283 2.232 2.745 2.745 0 0 0 2.706-.014c1.136-1.051 1.225-1.175 3.232-3.983l.386-.542a3.792 3.792 0 0 0 .964-2.014v-6.416A2.587 2.587 0 0 0 131.41 32h-3.403zM128 49.909a4.532 4.532 0 0 1-2.304-.63 4.605 4.605 0 0 1-2.273-3.958V34.584A4.589 4.589 0 0 1 128.007 30h3.403a4.589 4.589 0 0 1 4.584 4.584V41a5.438 5.438 0 0 1-1.338 3.179l-.385.539c-2.05 2.87-2.218 3.104-3.593 4.374l-.19.138a5.07 5.07 0 0 1-2.488.679zM111.806 56h6.601c-.004-1.285-.011-3.421-.011-4.063V34.584A7.592 7.592 0 0 0 110.812 27h-3.402a7.593 7.593 0 0 0-7.584 7.584V41c0 2.183.941 4.259 2.581 5.7.818.718 3.132 3.044 5.37 5.292 1.649 1.657 3.218 3.234 4.029 4.008zm8.607 2h-9.392l-.287-.263c-.713-.654-2.491-2.441-4.375-4.334-2.111-2.122-4.505-4.527-5.272-5.2A9.594 9.594 0 0 1 97.826 41v-6.416A9.595 9.595 0 0 1 107.41 25h3.402a9.594 9.594 0 0 1 9.584 9.584v17.353c0 .936.014 5.06.014 5.06l.003 1.003z"/><path fill="#48515A" d="M109.407 47.539a2.74 2.74 0 0 0 2.706.014 2.599 2.599 0 0 0 1.283-2.232V34.584A2.587 2.587 0 0 0 110.812 32h-3.402a2.588 2.588 0 0 0-2.584 2.584V41c.112.753.448 1.455.964 2.014l.388.543c2.006 2.807 2.094 2.931 3.229 3.982zm1.412 2.37a5.07 5.07 0 0 1-2.488-.679l-.189-.138c-1.374-1.27-1.542-1.504-3.592-4.373l-.386-.54A5.445 5.445 0 0 1 102.826 41v-6.416A4.59 4.59 0 0 1 107.41 30h3.402a4.588 4.588 0 0 1 4.584 4.584v10.737a4.605 4.605 0 0 1-2.273 3.958 4.532 4.532 0 0 1-2.304.63zM114.54 70h9.146l.571-4h-5.847v-8h-5.897l2.027 12zm10.88 2h-12.571l-2.702-16h10.263v8h6.153l-1.143 8zm-76.259 69.445a2.23 2.23 0 0 0-1.576 3.806 2.284 2.284 0 0 0 3.153 0 2.23 2.23 0 0 0-1.577-3.806zm0 6.459a4.23 4.23 0 1 1 0-8.459 4.23 4.23 0 0 1 0 8.459z"/><path fill="#48515A" d="M48.941 141.309l-1.414-1.414 21.698-21.698c1.38-1.381 3.188-1.348 5.475-1.308.409.007.841.015 1.294.015h1v2.352l-13.23 13.23-1.414-1.414 12.185-12.186c-2.049-.034-3.166-.005-3.896.725l-21.698 21.698m.22-23.309a2.23 2.23 0 0 0-1.576 3.806 2.284 2.284 0 0 0 3.153 0A2.23 2.23 0 0 0 49.161 118zm0 6.459a4.23 4.23 0 1 1 0-8.459 4.23 4.23 0 0 1 0 8.459z"/><path fill="#48515A" d="M74.352 146.911c-2.058 0-3.938-.11-5.034-1.206l-21.367-21.367 1.414-1.414 21.367 21.367c.573.573 2.16.618 3.791.62l-15.446-15.447 1.414-1.414 16.441 16.44v2.414l-1.806.003c-.26.002-.519.004-.774.004"/><path fill="#475059" d="M145.819 158.006a6.006 6.006 0 0 1-4.251-10.256l16.58-16.571a4.007 4.007 0 0 1 5.665 5.665l-17.289 17.281-1.414-1.415 17.289-17.281a2.004 2.004 0 0 0 0-2.835 2.01 2.01 0 0 0-2.837-.001l-16.58 16.572a4.01 4.01 0 0 0 5.671 5.67l16.58-16.572a6.014 6.014 0 1 0-8.505-8.503l-17.288 17.28-1.414-1.415 17.288-17.28a8.013 8.013 0 0 1 11.333.021 8.013 8.013 0 0 1 0 11.312l-16.58 16.572a5.998 5.998 0 0 1-4.248 1.756M144.994 114h20V93.414L157.58 86h-12.586v28zm22 2h-24V84h15.414l8.586 8.586V116z"/><path fill="#475059" d="M165.994 94h-9v-9h2v7h7v2M147.994 98h4v-2h-4zM147.994 102h14v-2h-14zM147.994 106h14v-2h-14zM147.994 110h8v-2h-8z"/><path fill="#48515A" d="M184.107 67h2v-4h-2zM184.107 77h2v-4h-2zM188.107 71h4v-2h-4zM178.107 71h4v-2h-4zM29.994 49h2v-4h-2zM29.994 59h2v-4h-2zM33.994 53h4v-2h-4zM23.994 53h4v-2h-4z"/><path fill="#5FE0ED" d="M45.951 71.064a4 4 0 1 1 0 8 4 4 0 0 1 0-8"/><path fill="#F58E70" d="M24.97 141a2 2 0 1 1 .001 3.999A2 2 0 0 1 24.97 141"/><path fill="#DEDEDD" d="M103.997 81.999h26.997v-8h-26.997zM103.996 92v66h23.161l3.771-66h-26.932"/><path fill="#48515A" d="M58.999 89h2v-4h-2zM131.042 89h2v-4h-2z"/><path fill="#475059" d="M24.941 96.798l-1.7 1.804a2.325 2.325 0 0 0 .048 3.254c.397.426.949.674 1.531.688h.005a2.14 2.14 0 0 0 1.522-.68l.142-.14a2.322 2.322 0 0 0 .153-3.122l-1.701-1.804zm-.116 7.746h-.01a4.176 4.176 0 0 1-2.94-1.273 4.318 4.318 0 0 1-.089-6.042l3.155-3.346 3.156 3.346a4.328 4.328 0 0 1-.318 6.042l-.168.15a4.116 4.116 0 0 1-2.786 1.123zm-.853-11h-2v-3.126a4.005 4.005 0 0 1-2.999-3.873V72.544h2v14.001a2 2 0 0 0 1.999 1.999h1v5m4 0h-2v-5h1a2.002 2.002 0 0 0 2.001-1.999V72.544h2v14.001a4.005 4.005 0 0 1-3 3.873l-.001 3.126"/><path fill="#475059" d="M19.971 78.544h10v-2h-10z"/><path fill="#5FE0ED" d="M146.012 59.055a2 2 0 1 1-.001 4.001 2 2 0 0 1 .001-4.001"/></g></svg>