<?xml version="1.0" encoding="utf-8"?><svg xmlns="http://www.w3.org/2000/svg" width="250" height="250" viewBox="0 0 250 250"><g fill="none" fill-rule="evenodd"><path fill="#475059" d="M74.554 66.276h2v-24h-2zM75.471 40.273c-.06 0-.13 0-.189-.02-.071-.01-.13-.03-.191-.05-.059-.03-.12-.06-.169-.1a.437.437 0 0 1-.151-.12 1 1 0 0 1-.3-.71.995.995 0 0 1 .3-.7c.04-.05.09-.09.151-.13.049-.03.11-.07.169-.09.061-.02.12-.04.191-.06.189-.04.39-.02.569.06.13.05.24.12.33.22.09.09.16.2.221.32.049.12.069.25.069.38 0 .07-.01.13-.02.2-.009.06-.029.13-.049.19-.031.06-.061.11-.101.17a.955.955 0 0 1-.45.37c-.12.05-.25.07-.38.07M78.554 66.276h2V53.277h-2zM79.471 51.273c-.06 0-.13 0-.19-.02-.07-.01-.129-.03-.19-.05-.059-.03-.12-.06-.169-.1a.615.615 0 0 1-.161-.12c-.089-.09-.16-.2-.21-.32-.05-.13-.08-.26-.08-.39 0-.06.01-.13.02-.19.01-.07.03-.13.06-.19.021-.06.06-.12.09-.17.04-.06.08-.11.12-.15.28-.28.72-.37 1.09-.22.13.05.24.12.33.22.05.04.09.09.12.15.04.05.07.11.101.17.02.06.04.12.049.19a.99.99 0 0 1-.98 1.19M70.554 66.276h2V49.277h-2zM71.471 47.273c-.13 0-.26-.02-.38-.07s-.229-.13-.33-.22c-.18-.19-.29-.44-.29-.71 0-.26.11-.52.29-.7a1 1 0 0 1 1.09-.22c.13.05.24.12.33.22.19.18.29.44.29.7 0 .07 0 .13-.02.2-.009.06-.029.13-.049.19-.031.06-.061.11-.101.17a.955.955 0 0 1-.45.37c-.12.05-.25.07-.38.07"/><path fill="#5FE0ED" d="M44.614 100.325V70.356l62-.039v30.008h-62"/><path fill="#48515A" d="M78.304 92.325h-5.615c-1.741 0-3.212-1.507-3.212-3.291h2c0 .688.566 1.291 1.212 1.291h5.615c.851 0 1.309-.861 1.309-1.671v-.96c0-.87-.477-1.369-1.309-1.369h-5.536c-1.828 0-3.155-1.555-3.155-3.698v-.961c0-1.999 1.268-3.341 3.155-3.341h5.951c1.562 0 2.785 1.194 2.785 2.719h-2c0-.417-.33-.719-.785-.719h-5.951c-.316 0-1.154 0-1.154 1.341v.961c0 .587.241 1.698 1.154 1.698h5.536c1.949 0 3.309 1.385 3.309 3.369v.96c0 2.058-1.453 3.671-3.309 3.671"/><path fill="#48515A" d="M74.614 94.325h2v-18h-2zM85.613 86.325h6v-2h-6zM85.613 90.325h6v-2h-6zM85.613 82.325h6v-2h-6zM59.614 86.325h6v-2h-6zM59.614 82.325h6v-2h-6zM59.614 90.325h6v-2h-6z"/><path fill="#48515A" d="M78.825 98.325H46.613v-26h58v7.423h-2v-5.423H48.614v22h30.211v2"/><path fill="#F58E70" d="M139.17 136.375c0 4.891-3.979 8.87-8.869 8.87l-3.414.019v6.224h-6v-6.19l-3.578.02c-4.498 0-8.143-3.679-8.143-8.203h6c0 1.194.973 2.203 2.126 2.203l3.595-.02v-9.333h-3.413c-4.891 0-8.87-3.978-8.87-8.869v-3.54c0-4.891 3.979-8.87 8.87-8.87h3.413v-5.74h6v5.74h4.374c3.935 0 7.136 3.202 7.136 7.136h-6c0-.626-.509-1.136-1.136-1.136h-4.374v9.279h3.414c4.89 0 8.869 3.979 8.869 8.87v3.54zm-25.526-40.921h20v-4h-20v4zm72.096 20.82a9.31 9.31 0 0 1-.654-.031c-.096-.006-.211-.004-.342-.004h-.017c-1.913-.003-6.995-.01-9.945-6.598a41.908 41.908 0 0 0-8.33-12.35 84.532 84.532 0 0 1-.573 2.075l-5.757-1.69c.008-.029.686-2.348 1.253-4.87l-.015-.012.365-1.664.013-.064h.001l1.423-6.491c.211-.703.272-1.718.132-2.087-.866-.408-3.638.585-5.146 1.125-.355.127-.704.252-1.044.369-.63.219-2.245.823-6.341 2.451l-.976.388-1.004-.305a41.639 41.639 0 0 0-7.422-1.533c-.15-.015-18.663-1.838-31.819.522l-.159.031c-.478.092-.955.183-1.425.295-18.188 4.294-31.361 20.282-32.054 38.888v.064l.133 4.111c.644 10.889 5.584 21.024 13.906 28.458l1.001.894v4.464c.84-.108 1.688-.182 2.55-.182h52.67v3c0 4.818-1.791 9.149-4.769 12.397h13.612l2.564-1.259-.044-13.816 1.567-.856c.112-.062 11.898-6.705 16.229-20.266 1.43-5.352 2.47-7.002 3.673-8.912 2.113-3.354 5.493-5.065 7.807-5.889v-10.653h-1.063z"/><path fill="#F58E70" d="M130.301 129.965h-3.414v9.299l3.397-.019a2.877 2.877 0 0 0 2.886-2.87v-3.54a2.873 2.873 0 0 0-2.869-2.87m-15.697-12.409v3.54a2.872 2.872 0 0 0 2.87 2.869h3.413v-9.279h-3.413a2.873 2.873 0 0 0-2.87 2.87"/><path fill="#DEDEDD" d="M179.43 157.876c3.015-.491 6.023.161 8.253 1.789.183.134.361.273.534.417l-7.064 5-17.592 8.641-.023-7.424c1.653-1.087 4.408-3.1 7.331-6.091l2.548-.85a38.876 38.876 0 0 1 6.013-1.482M57.797 215.438v.002a2.165 2.165 0 0 1-2.162 2.159h-.002l-6.989-.007v-14.174l7.049.007a2.14 2.14 0 0 1 1.523.639c.411.412.636.953.636 1.522l-.055 9.852"/><path fill="#475059" d="M81.682 214.478h-20.83v-2h20.639l77.127-14.909 43.529-26.66c-5.714-5.107-12.718-6.012-18.953-2.376l-27.257 13.392h-46.779v-2h18.315c7.894 0 14.15-5.808 14.658-13.397H93.493a15.674 15.674 0 0 0-11.157 4.621l-20.777 20.777-1.414-1.414 20.777-20.777a17.659 17.659 0 0 1 12.571-5.207h50.671v1c0 6.283-3.425 11.637-8.58 14.397h19.888l26.777-13.154c7.24-4.222 15.785-2.855 22.24 3.601l.897.897-46.032 28.194-.178.035-77.494 14.98"/><path fill="#475059" d="M182.691 168.669a1 1 0 0 1-.578-1.817l9.164-6.485a12.383 12.383 0 0 0-2.415-2.317c-2.66-1.942-6.215-2.727-9.753-2.148l-3.305.538a.998.998 0 0 1-1.147-.826.999.999 0 0 1 .826-1.147l3.304-.538c4.062-.662 8.166.25 11.255 2.506a14.274 14.274 0 0 1 3.47 3.608 1 1 0 0 1-.253 1.372l-9.991 7.07a.998.998 0 0 1-.577.184M46.644 219.625l8.987.01h.004a4.167 4.167 0 0 0 4.162-4.157v-.001l.055-30.978a4.167 4.167 0 0 0-4.157-4.165l-9.051-.008v39.299zm8.991 2.01h-.006l-10.985-.012v-43.299l11.052.01a6.17 6.17 0 0 1 6.156 6.168l-.055 30.979a6.17 6.17 0 0 1-6.162 6.154z"/><path fill="#475059" d="M159.577 178.755l-.047-14.719.522-.287c.126-.069 12.625-7.062 17.199-21.481 1.348-5.07 2.317-6.607 3.438-8.387 2.29-3.636 6.359-5.033 8.114-5.485v-14.122h-3.063c-.087-.002-.252-.005-.496-.025-.139-.011-.312-.01-.514-.01-1.706-.002-5.702-.008-8.123-5.415a43.89 43.89 0 0 0-12.551-16.422l-.479-.388 1.471-6.753c.032-.118.989-3.382-.594-4.411-1.608-1.045-4.462-.023-6.981.88-.347.124-.69.246-1.023.362-.95.33-3.112 1.165-6.425 2.483l-.326.129-.335-.102a43.698 43.698 0 0 0-7.779-1.606c-.177-.017-18.954-1.869-32.396.54l-.189.037c-.503.097-1.007.194-1.502.311-19.079 4.504-32.893 21.289-33.595 40.817l.001.083.134 4.173c.677 11.475 5.853 22.099 14.572 29.887l.334.297v6.312a1 1 0 1 1-2 0v-5.419c-8.914-8.114-14.202-19.1-14.904-30.985l-.136-4.385c.734-20.461 15.182-38.016 35.134-42.726a37.57 37.57 0 0 1 1.582-.329l.202-.039c13.733-2.462 32.784-.582 32.976-.563a45.726 45.726 0 0 1 7.811 1.581c3.159-1.255 5.24-2.057 6.186-2.386.328-.113.663-.233 1.004-.355 2.957-1.059 6.308-2.258 8.745-.674 2.88 1.872 1.495 6.408 1.435 6.6l-1.187 5.466a45.888 45.888 0 0 1 12.643 16.775c1.89 4.219 4.649 4.223 6.298 4.225.264 0 .491.002.673.017.177.014.297.017.35.018h5.047v17.77l-.836.14c-.051.009-5.158.91-7.549 4.706-1.114 1.766-1.965 3.116-3.248 7.938-4.345 13.704-15.103 20.849-17.636 22.373l.043 12.211c.002.553-1.998 1.894-2 1.343"/><path fill="#475059" d="M133.644 95.454h-20a1 1 0 1 1 0-2h20a1 1 0 0 1 0 2m-72.399 35.514c-.68 0-1.364-.052-2.049-.158-5.908-.908-9.975-6.453-9.067-12.36.742-4.836 5.285-8.164 10.117-7.422a7.247 7.247 0 0 1 4.775 2.897 7.248 7.248 0 0 1 1.329 5.424 5.996 5.996 0 0 1-2.397 3.952 5.986 5.986 0 0 1-4.488 1.099l.303-1.976a4.022 4.022 0 0 0 3.002-.736 4.008 4.008 0 0 0 1.603-2.642 5.26 5.26 0 0 0-.965-3.938 5.263 5.263 0 0 0-3.466-2.103 6.877 6.877 0 0 0-7.836 5.748c-.741 4.818 2.576 9.34 7.394 10.081a11.226 11.226 0 0 0 8.4-2.058 11.221 11.221 0 0 0 4.485-7.395l1.977.304a13.212 13.212 0 0 1-5.279 8.704 13.206 13.206 0 0 1-7.838 2.579M163.96 98.802l-1.919-.563c.011-.037 1.059-3.62 1.662-6.801l1.965.372c-.621 3.28-1.664 6.842-1.708 6.992m5.277 14.778a1 1 0 0 1-.944-.669c-.981-2.795-1.964-4.934-2.769-6.023a1 1 0 0 1 1.609-1.189c1.179 1.597 2.308 4.443 3.047 6.55a.999.999 0 0 1-.943 1.331m-51.939 29.738c-3.384 0-6.132-2.782-6.132-6.203h2c0 2.317 1.851 4.203 4.126 4.203l13.003-.073a4.876 4.876 0 0 0 4.875-4.87v-3.54a4.874 4.874 0 0 0-4.869-4.869h-12.828c-3.787 0-6.869-3.082-6.869-6.87v-3.54c0-3.788 3.082-6.87 6.869-6.87h13.788a5.142 5.142 0 0 1 5.136 5.136h-2a3.14 3.14 0 0 0-3.136-3.136h-13.788a4.875 4.875 0 0 0-4.869 4.87v3.54a4.875 4.875 0 0 0 4.869 4.87h12.828a6.876 6.876 0 0 1 6.869 6.869v3.54a6.877 6.877 0 0 1-6.869 6.87l-13.003.073"/><path fill="#475059" d="M122.887 151.488h2v-48.542h-2z"/><path fill="#DEDEDD" d="M109.158 176.9h23.443c3.587-1.51 6.27-4.571 7.203-8.372h-4.792c-2.096 1.492-4.69 2.372-7.539 2.372h-12.315a6 6 0 0 0-6 6m81.854-8.541l-33.129 20.29-76.584 14.805H63.818l-.012 7.024h17.493l76.584-14.804 40.741-24.953c-2.419-1.571-5.013-2.362-7.612-2.362"/><path fill="#FFD15D" d="M201.714 65.347c0-9.941-8.059-18-18-18s-18 8.059-18 18 8.059 18 18 18 18-8.059 18-18"/><path fill="#475059" d="M186.208 72.32h-5.559c-1.759 0-3.19-1.439-3.19-3.207a1 1 0 1 1 2 0 1.2 1.2 0 0 0 1.19 1.207h5.559c.832 0 1.508-.683 1.508-1.524v-.95a1.51 1.51 0 0 0-1.508-1.508h-5.481a3.512 3.512 0 0 1-3.508-3.508v-.951a3.513 3.513 0 0 1 3.508-3.509h5.891a2.771 2.771 0 0 1 2.768 2.768 1 1 0 0 1-2 0 .769.769 0 0 0-.768-.768h-5.891a1.51 1.51 0 0 0-1.508 1.509v.951a1.51 1.51 0 0 0 1.508 1.508h5.481a3.512 3.512 0 0 1 3.508 3.508v.95c0 1.943-1.574 3.524-3.508 3.524"/><path fill="#475059" d="M183.748 75.346a1 1 0 0 1-1-1v-18a1 1 0 0 1 2 0v18a1 1 0 0 1-1 1M182.715 43.34h2V32.348h-2zM183.632 30.353c-.261 0-.52-.11-.71-.3a.975.975 0 0 1-.211-.32.994.994 0 0 1 .211-1.09c.379-.37 1.049-.37 1.42 0 .189.18.29.44.29.71 0 .13-.02.26-.071.38-.05.12-.13.23-.219.32a1 1 0 0 1-.71.3M186.715 43.341h2v-6.996h-2zM187.632 34.343c-.261 0-.52-.11-.71-.29a.922.922 0 0 1-.211-.33.994.994 0 0 1-.079-.38c0-.26.109-.52.29-.71.239-.23.579-.33.909-.27.06.01.12.03.18.06.061.02.121.05.181.09l.15.12c.189.19.29.45.29.71 0 .13-.02.26-.071.38-.06.13-.13.23-.219.33-.051.04-.101.09-.15.12-.06.04-.12.07-.181.09-.06.03-.12.05-.18.06-.07.02-.13.02-.199.02M178.715 43.341h2v-7.994h-2zM179.632 33.343c-.261 0-.52-.1-.71-.29a1.004 1.004 0 0 1 0-1.41c.379-.37 1.049-.38 1.42 0 .189.18.29.44.29.7a.994.994 0 0 1-1 1"/><path fill="#FFD15D" d="M121.668 72.828a2.5 2.5 0 1 1-5 0 2.5 2.5 0 0 1 5 0m33.022-12.032a5.495 5.495 0 1 1-10.99 0 5.495 5.495 0 0 1 10.99 0m-25.495-16.72a3.748 3.748 0 1 1-7.496 0 3.748 3.748 0 0 1 7.496 0m-64.563 95.77a2.5 2.5 0 1 1-5 0 2.5 2.5 0 0 1 5 0"/></g></svg>