<?xml version="1.0" encoding="utf-8"?><svg xmlns="http://www.w3.org/2000/svg" width="250" height="250" viewBox="0 0 250 250"><g fill="none" fill-rule="evenodd"><path fill="#475059" d="M143 185.424c-1.654 0-3 1.331-3 2.968 0 1.679 1.346 3.032 3 3.032h55.166l6.506-3-6.506-3H143zm55.605 8H143c-2.756 0-5-2.25-5-5.016 0-2.756 2.244-4.984 5-4.984h55.605l10.843 5-10.843 5z"/><path fill="#475059" d="M148.353 192.424h2v-8h-2z"/><path fill="#475059" d="M149.353 189.424h48v-2h-48z"/><path fill="#48515A" d="M194.442 75.268l2.454.796.467-1.437c.526-1.621 1.969-2.669 3.674-2.67 1.705 0 3.146 1.048 3.673 2.669l.467 1.436 2.454-.798-.467-1.437a3.804 3.804 0 0 1 1.402-4.319c1.379-1.001 3.162-1.003 4.541-.001l1.222.887 1.516-2.089-1.222-.89c-1.38-1.002-1.931-2.698-1.404-4.321.527-1.622 1.968-2.67 3.672-2.67h1.511l-.002-3h-1.51c-1.726 0-3.174-1.021-3.687-2.602-.502-1.544.052-3.183 1.415-4.172l1.194-.807-1.435-1.944-1.225.907c-1.39 1.01-3.174 1.011-4.554.009-1.375-.998-1.924-2.689-1.398-4.307l.465-1.43-2.454-.793-.466 1.438a3.805 3.805 0 0 1-3.672 2.671h-.003c-1.704 0-3.146-1.046-3.673-2.667l-.467-1.436-2.454.799.468 1.436a3.806 3.806 0 0 1-1.402 4.319c-1.379 1.003-3.162 1.003-4.542.002l-1.221-.887-1.516 2.088 1.223.887c1.379 1.002 1.931 2.697 1.404 4.319a3.805 3.805 0 0 1-3.673 2.67l-1.51.001.001 2.58h1.513a3.804 3.804 0 0 1 3.672 2.667c.527 1.621-.022 3.317-1.401 4.319l-1.222.888 1.472 2.024 1.221-.888c1.379-1.004 3.161-1.002 4.539-.002a3.804 3.804 0 0 1 1.407 4.318l-.467 1.437zm3.739 3.316l-6.259-2.031 1.084-3.339c.308-.949-.148-1.698-.677-2.083-.531-.383-1.38-.585-2.19.001l-2.839 2.065-3.823-5.259 2.839-2.064c.807-.587.878-1.461.675-2.084-.202-.621-.774-1.285-1.77-1.285h-.001l-3.512.001-.001-6.58 3.51-.002c.997 0 1.569-.665 1.771-1.287.202-.623.13-1.497-.678-2.083l-2.84-2.062 3.865-5.326 2.841 2.063c.808.586 1.661.383 2.19-.002.529-.384.984-1.133.676-2.082l-1.085-3.339 6.256-2.035 1.086 3.337c.309.948 1.118 1.286 1.771 1.286h.002c.654 0 1.463-.339 1.77-1.288l1.084-3.34 6.26 2.026-1.084 3.333c-.307.945.146 1.69.671 2.072.529.384 1.387.585 2.196-.004l2.828-2.093 3.863 5.234-2.895 1.953c-.64.466-.897 1.19-.661 1.917.192.59.762 1.22 1.786 1.22h3.51l.002 7h-3.511c-.997 0-1.568.665-1.77 1.288-.203.623-.131 1.498.677 2.085l2.84 2.067-3.866 5.324-2.841-2.063c-.806-.586-1.659-.383-2.189 0-.53.385-.985 1.135-.676 2.084l1.085 3.338-6.257 2.035-1.086-3.338c-.308-.949-1.117-1.287-1.771-1.287-.655.001-1.463.339-1.772 1.288l-1.084 3.339z"/><path fill="#F58E70" d="M201.057 57.431a1.746 1.746 0 1 0 1.722 1.47 1.732 1.732 0 0 0-.7-1.139 1.735 1.735 0 0 0-1.022-.331zm-.008 5.491a3.73 3.73 0 0 1-2.193-.711 3.752 3.752 0 0 1-.835-5.232 3.723 3.723 0 0 1 2.442-1.502 3.71 3.71 0 0 1 2.789.665v.001a3.716 3.716 0 0 1 1.501 2.443 3.714 3.714 0 0 1-.666 2.789 3.742 3.742 0 0 1-3.038 1.547z"/><path fill="#48515A" d="M198.847 48.764a.995.995 0 0 1 .88-1.11c.55-.06 1.04.33 1.11.881.06.549-.339 1.04-.879 1.109h-.121c-.5 0-.929-.37-.99-.88zm4.62 1.12a.997.997 0 1 1 .51-1.93c.53.13.851.68.71 1.21a1 1 0 0 1-1.22.72zm-8.24.37c-.25-.48-.06-1.09.42-1.35v.01c.49-.26 1.101-.07 1.36.42.25.48.06 1.09-.42 1.351h-.009a1.058 1.058 0 0 1-.46.109.995.995 0 0 1-.891-.54zm11.49 1.17c-.009-.01-.02-.01-.03-.02-.01 0-.01-.01-.02-.01l-.009-.01a.99.99 0 0 1-.221-1.389.994.994 0 0 1 1.391-.231c.009.01.019.01.029.021.45.319.551.949.221 1.399-.191.27-.5.41-.811.41a1.01 1.01 0 0 1-.55-.17zm-14.309 1.54a.996.996 0 0 1-.101-1.409.998.998 0 1 1 1.51 1.309.986.986 0 0 1-.75.35c-.239 0-.47-.09-.659-.25zm16.71.99a.996.996 0 0 1 .29-1.379.988.988 0 0 1 1.38.299.991.991 0 0 1-.83 1.54.985.985 0 0 1-.84-.46zm-18.37 2.55a.999.999 0 1 1 1.279-.6.997.997 0 0 1-1.279.6zm19.699.721c-.11-.54.24-1.071.78-1.181a.99.99 0 0 1 1.181.77c.109.54-.231 1.07-.771 1.19-.07.01-.139.02-.21.02-.46 0-.88-.33-.98-.799zm-20.989 2.199a.995.995 0 0 1 .979-1.02c.55-.01 1 .421 1.021.98a1.004 1.004 0 0 1-.981 1.02h-.019a.992.992 0 0 1-1-.98zm21.889 2.47a.98.98 0 0 1-.82-1.14h-.01a1.004 1.004 0 0 1 1.981.321 1.009 1.009 0 0 1-.991.839.886.886 0 0 1-.16-.02zm-21.019 1.7a.99.99 0 0 1 .549-1.3.994.994 0 0 1 1.3.54c.21.51-.03 1.1-.54 1.31-.13.05-.26.07-.38.07-.4 0-.77-.23-.929-.62zm19.339 1.84a1 1 0 0 1-.35-1.37.987.987 0 0 1 1.37-.35c.471.28.63.89.351 1.37-.191.31-.521.491-.861.491-.17 0-.349-.051-.51-.141zm-17.02 1.74a.997.997 0 0 1 .04-1.41.987.987 0 0 1 1.41.03c.38.4.37 1.031-.03 1.41a.998.998 0 0 1-.69.28c-.27 0-.53-.11-.73-.31zm14.181.95a1 1 0 1 1 1.57-1.241 1 1 0 0 1-1.57 1.241zm-10.721 1.54a.985.985 0 0 1-.48-1.33c.23-.5.831-.71 1.331-.48.5.24.709.84.479 1.33a.99.99 0 0 1-1.33.48zm7.101-.06a1.002 1.002 0 0 1 .669-1.25h-.009a1 1 0 1 1 .59 1.91c-.101.03-.201.041-.291.041-.43 0-.83-.27-.959-.701zm-2.981 1.14c-.55-.04-.97-.519-.93-1.07.04-.55.52-.96 1.071-.92.549.031.96.51.929 1.06-.04.53-.48.93-1 .93h-.07zm-3.041 60.584c-1.103 0-2 .897-2 2s.897 2 2 2 2-.897 2-2-.897-2-2-2zm0 6c-2.206 0-4-1.794-4-4s1.794-4 4-4 4 1.794 4 4-1.794 4-4 4z"/><path fill="#FFD15D" d="M105.108 92.322a3 3 0 1 1-6 0 3 3 0 0 1 6 0"/><path fill="#48515A" d="M107.353 50.424h2v-4h-2zM107.353 60.424h2v-4h-2zM111.353 54.424h4v-2h-4zM101.353 54.424h4v-2h-4z"/><path fill="#DFE0E0" d="M103.353 139.602v1.94l6.593 3.775 6.504-3.664-.097-3.551v-2.993c0-.252.609-.521.843-.793-.08.07-.109.14-.175.211-.934 1.004-2.327 2.059-3.285 2.878-.759.648-1.694 1.019-2.692 1.019h-2.883a4.186 4.186 0 0 1-2.714-1.019c-.915-.782-2.247-1.778-3.179-2.74-.028-.029-.061-.058-.091-.087.28.297.726.598 1.066.898-.007.004.11.007.11.016v4.11"/><path fill="#48515A" d="M102.353 141.424h2v-6h-2z"/><path fill="#48515A" d="M116.353 142.424a1 1 0 0 1-1-1v-6.872l.461-.295c.751-.48.95-.887 1.118-1.332l.043-.099 2.889-5.713 2.982-1.447.628-3.035c-.008-.056-.029-.077-.04-.089-.054-.054-.19-.118-.401-.118h-1.738l.129-1.115c.142-1.228.071-2.03.001-2.806a13.995 13.995 0 0 1-.072-1.253v-.599c0-1.494-.1-3.235-.838-4.825l-.19-.392c-.898-1.81-1.949-3.174-3.212-4.17-2.093-1.65-4.74-2.568-7.457-2.587h-.08c-3.16 0-6.179 1.271-8.508 3.585-2.362 2.344-3.715 5.543-3.715 8.775v.213c0 .514.101 1.025.228 1.672.122.624.274 1.401.375 2.402l.11 1.1h-1.645c-.16 0-.414.03-.478.212l.888 2.953 2.632 1.52 2.712 5.736c.326.865 1.932 2.17 2.993 3.033.332.271.649.528.928.766.589.503 1.322.78 2.066.78h3.191a1 1 0 1 1 0 2h-3.191a5.196 5.196 0 0 1-3.365-1.259c-.267-.228-.571-.475-.89-.735-1.449-1.177-3.089-2.512-3.573-3.809l-2.412-5.092-2.778-1.605-1.217-4.193c0-1.147.772-2.024 1.904-2.25-.069-.436-.144-.819-.213-1.174-.143-.724-.265-1.349-.265-2.057v-.213c0-3.761 1.569-7.477 4.306-10.194 2.707-2.689 6.225-4.166 9.916-4.166h.094c3.159.022 6.243 1.093 8.682 3.016 1.502 1.184 2.733 2.771 3.766 4.853l.207.426c.913 1.966 1.029 4.067 1.029 5.679v.599c0 .363.032.707.064 1.076.052.577.113 1.256.079 2.133.54.086 1.017.324 1.373.69.409.421.625.99.607 1.602l-.02.174-.85 4.11-3.262 1.583-2.56 5.064c-.242.626-.594 1.285-1.431 1.936v5.806a1 1 0 0 1-1 1M89.717 147.911l-.607-1.905 9.026-2.882 2.488-4.7h2.729v2h-1.524l-2.306 4.357-9.806 3.13"/><path fill="#48515A" d="M109.931 146.518l-7.313-4.095a1 1 0 1 1 .976-1.745l6.337 3.548 6.078-3.403a1 1 0 1 1 .977 1.745l-7.055 3.95"/><path fill="#48515A" d="M122.396 145.507l-2.067-.686-2.633-4.397h-1.343v-2h2.476l2.834 4.733 1.362.452-.629 1.898M37.353 60.412h2v-4h-2zM37.353 70.412h2v-4h-2zM41.353 64.412h4v-2h-4zM31.353 64.412h4v-2h-4z"/><path fill="#FFD15D" d="M59.929 76.705c-15.937.293-28.541 13.838-28.541 29.974v53.212l5.469-2.187 6.52-1.979 7.226-7.168-.052-7.708c-1.761-1.82-3.682-4.097-5.3-6.741-3.986-6.514-5.553-14.996-5.553-23.247v-.641h17.828l-.189-8.597c5.824 5.524 13.506 8.597 21.487 8.597h3.177v.641c0 8.285-1.922 16.695-5.952 23.201-2.663 4.298-6.347 7.688-8.639 9.662l3.093 5.499 6.5 6.25 12.552 4.25v-53.518c0-16.478-13.278-29.801-29.626-29.5"/><path fill="#EAEAE9" d="M82.454 170.445h-9.82l3.116-4.588h1.605l5.099 4.588"/><path fill="#EAEAE9" d="M70.639 148.556l6.339 6.595 6.057 14.523h-1.511l-3.776-3.819h-1.511l-6.045-9.941.447-7.358"/><path fill="#EAEAE9" d="M70.67 152.609v-11.013l-4.09 2.558a6.923 6.923 0 0 1-3.674 1.057h-4.559a6.937 6.937 0 0 1-4.46-1.628l-3.338-2.8.001 4.334 20.12 7.492"/><path fill="#48515A" d="M62.679 146.396h-4.681c-1.897 0-3.566-.612-4.961-1.818-2.472-2.137-5.977-5.598-8.638-9.948-4.712-7.7-5.701-17.176-5.701-23.769v-.64h2v.64c0 6.337.938 15.423 5.406 22.725 2.527 4.131 5.877 7.434 8.241 9.479 1.022.883 2.25 1.331 3.653 1.331h4.681c1.6 0 2.904-.422 3.877-1.256 1.417-1.213 5.73-4.903 8.644-9.605 3.74-6.039 5.801-14.091 5.801-22.674v-.64h2v.64c0 8.95-2.168 17.376-6.102 23.727-3.076 4.967-7.566 8.809-9.042 10.072-1.346 1.152-3.088 1.736-5.178 1.736"/><path fill="#48515A" d="M51.42 149.362l-2-.027.118-8.535 2 .027-.118 8.535M69.178 149.416h2v-8.029h-2zM90.223 161.19l-13.597-5.103.704-1.872 13.596 5.103-.703 1.872"/><path fill="#48515A" d="M71.192 150.707l-.041 5.491-7.347 24.815 11.929-16.158h2.433l3.071 3.106-5.108-12.246-4.937-5.008zm-28.768 14.148h2.456l11.112 16.236-6.594-25.177v-5.207l-4.938 5.008-5.107 12.247 3.071-3.107zm19.493 22.535H57.65l-.144-.544-13.68-19.991h-.566l-3.776 3.819h-3.43l6.709-16.087 8.635-8.757v9.955l7.793 29.605h1.231l8.77-29.621v-9.939l8.635 8.757 6.709 16.087h-3.43l-3.775-3.819h-.588l-14.615 19.819-.211.716z"/><path fill="#48515A" d="M30.301 161.19l-.703-1.872 13.597-5.103.703 1.872-13.597 5.103"/><path fill="#5FE0ED" d="M153.726 37.06c-21.098.388-37.783 18.319-37.783 39.68v52.019h25.436l-.068-6.785c-2.332-2.41-4.875-5.424-7.016-8.924-5.277-8.624-7.352-19.851-7.352-30.774v-.848h23.601l-.25-11.381c7.71 7.312 17.879 11.381 28.444 11.381h4.205v.848c0 10.968-2.543 22.1-7.878 30.712-3.525 5.69-8.402 10.178-11.437 12.791l4.334 2.98h24.981V76.113c0-21.813-17.577-39.451-39.217-39.053"/><path fill="#EAEAE9" d="M124.294 161.152h12.999l-4.124-6.074h-2.125l-6.75 6.074M183.543 161.152h-12.999l4.124-6.074h2.125l6.75 6.074M141.294 141.916l-8.002 13.16 19.002 27.33h2.018l-13.018-40.49"/><path fill="#EAEAE9" d="M167.903 132.176l8.391 8.731 8.018 19.225h-2l-4.998-5.056h-2l-8.003-13.16.592-9.74"/><path fill="#EAEAE9" d="M167.943 137.541v-14.578l-5.413 3.386a9.175 9.175 0 0 1-4.865 1.399h-6.034a9.182 9.182 0 0 1-5.904-2.155l-4.42-3.706.003 5.736 26.633 9.918"/><path fill="#48515A" d="M157.366 128.993h-6.198c-2.43 0-4.569-.784-6.356-2.329-3.255-2.814-7.87-7.37-11.37-13.092-6.197-10.128-7.498-22.609-7.498-31.296v-.848h2v.848c0 8.43 1.25 20.522 7.203 30.252 3.367 5.503 7.826 9.902 10.974 12.624 1.413 1.221 3.111 1.841 5.047 1.841h6.198c2.197 0 3.995-.586 5.343-1.741 1.886-1.613 7.624-6.524 11.506-12.791 4.984-8.046 7.729-18.765 7.729-30.185v-.848h2v.848c0 11.787-2.852 22.881-8.028 31.239-4.047 6.53-9.962 11.593-11.906 13.257-1.721 1.473-3.957 2.221-6.644 2.221"/><path fill="#48515A" d="M140.293 132.682h2v-10.756h-2zM166.293 133.314h2v-10.629h-2zM216.221 212.946h-2v-1.097l-4.256-42.668c-1.232-9.294-7.379-17.195-16.038-20.588l-17.985-6.75.703-1.872 17.999 6.755c9.35 3.663 15.976 12.177 17.308 22.224l4.264 42.8.005 1.196m-121.772 0h-2v-1.097l4.266-42.867c1.336-10.079 7.963-18.593 17.298-22.251l17.928-6.76.705 1.871-17.915 6.756c-8.647 3.387-14.793 11.289-16.029 20.615l-4.258 42.735.005.998"/><path fill="#48515A" d="M152.816 181.406h.106l-12.628-39.333v-7.843l-7.152 7.241-7.35 17.661h.083l5-5.056h2.94l19.001 27.33zm2.849 2h-3.894l-19.001-27.33h-1.06l-4.999 5.056h-3.917l8.651-20.789 10.849-10.983v12.399l13.371 41.647z"/><path fill="#48515A" d="M155.683 181.406h.107l19.002-27.33h2.94l4.998 5.056h.081l-7.366-17.661-7.134-7.237-.048 7.988-12.58 39.184zm1.151 2h-3.893l13.37-41.647v-12.403l10.831 10.987.074.179 8.597 20.61h-3.919l-4.998-5.056h-1.06l-19.002 27.33z"/></g></svg>