<?xml version="1.0" encoding="utf-8"?><svg xmlns="http://www.w3.org/2000/svg" width="250" height="250" viewBox="0 0 250 250"><g fill="none" fill-rule="evenodd"><path fill="#FFD15D" d="M208.013 121.912a35.229 35.229 0 0 1-.238 3.286c.166-.886.261-1.785.261-2.699 0-.197-.016-.392-.023-.587"/><path fill="#FFD15D" d="M173.037 99.999H79.123c-14.262 0-26.892 5.44-32.334 13.89v20.502c5.441 13.146 18.072 21.608 32.334 21.608h93.914c17.877 0 32.656-13.476 34.738-30.801.13-1.081.209-2.177.238-3.286-.488-12.136-15.984-21.913-34.976-21.913"/><path fill="#475059" d="M86.123 81.999h11.995v-2H86.123v2zm-2 2h15.996v-6H84.123v6z"/><path fill="#475059" d="M82.123 77.999h19.996v-1.998c0-1.654-1.346-3-3-3H85.123c-1.654 0-3 1.346-3 3v1.998zm21.996 2H80.123v-3.998c0-2.757 2.244-5 5-5h13.996c2.756 0 5 2.243 5 5v3.998zm-26.997 8h2v-2h-2v2zm0 4h2v-2h-2v2zm0 4h2v-2h-2v2zm0 4h2v-2h-2v2zm0 4h2v-2h-2v2zm0 4h2v-2h-2v2zm0 4h2v-2h-2v2zm0 4h2v-2h-2v2zm0 4h2v-2h-2v2zm0 4h2v-2h-2v2zm0 4h2v-2h-2v2zm0 4h2v-2h-2v2zm0 4h2v-2h-2v2zm0 4h2v-2h-2v2zm0 4h2v-2h-2v2zm0 4h2v-2h-2v2zm0 4h2v-2h-2v2zm0 3.998h2v-1.998h-2v1.998zm96.058-67.998h2v-2h-2v2zm0 4h2v-2h-2v2zm0 4h2v-2h-2v2zm0 4h2v-2h-2v2zm0 4h2v-2h-2v2zm0 4h2v-2h-2v2zm0 4h2v-2h-2v2zm0 4h2v-2h-2v2zm0 4h2v-2h-2v2zm0 4h2v-2h-2v2zm0 4h2v-2h-2v2zm0 4h2v-2h-2v2zm0 4h2v-2h-2v2zm0 4h2v-2h-2v2zm0 4h2v-2h-2v2zm0 4h2v-2h-2v2zm0 4h2v-2h-2v2zm0 3.998h2v-1.998h-2v1.998zM119.322 159.998h2V67.001h-2zM133.322 159.998h2V67.001h-2z"/><path fill="#475059" d="M120.29 121.999h14.834v-2H120.29zM120.29 112.499h14.834v-2H120.29zM120.29 102.999h14.834v-2H120.29zM120.29 93.499h14.834v-2H120.29zM120.29 150.499h14.834v-2H120.29zM120.29 140.999h14.834v-2H120.29zM120.29 131.499h14.834v-2H120.29zM120.29 73.993h14.834v-2H120.29zM120.29 83.999h14.834v-2H120.29zM120.29 159.999h14.834v-2H120.29zM84.396 168.271h-5.417l-4.773-4.773v-4.083h2v3.255l3.602 3.601h4.588v2M100.375 167.999v-2l51.625-.001v2l-51.625.001M173.789 167.749h-5.417v-2h4.589l3.163-3.162v-3.646h2v4.474l-4.335 4.334M88.123 181.999h8v-30h-8v30zm-2 2h12v-34h-12v34z"/><path fill="#475059" d="M88.123 149.999h8v-5a1 1 0 0 0-1-1h-6c-.551 0-1 .448-1 1v5zm10 2h-12v-7c0-1.654 1.346-3 3-3h6c1.655 0 3 1.346 3 3v7zm58.001 30h8v-30h-8v30zm-2 2h12v-34h-12v34z"/><path fill="#475059" d="M156.124 149.999h8v-5a1 1 0 0 0-1-1h-6a1 1 0 0 0-1 1v5zm10 2h-12v-7c0-1.654 1.346-3 3-3h6c1.654 0 3 1.346 3 3v7z"/><path fill="#475059" d="M173.037 159.999h-4.913v-2h4.913c20.401 0 36.999-16.598 36.999-37 0-20.401-16.598-36.999-36.999-36.999H79.123c-15.211 0-28.667 9.106-34.334 23.216v27.567c5.667 14.11 19.123 23.216 34.334 23.216h5.126v2h-5.126c-16.101 0-30.335-9.678-36.264-24.655l-.07-.178v-28.333l.07-.178C48.788 91.678 63.022 82 79.123 82h93.914c21.504 0 38.999 17.495 38.999 38.999 0 21.505-17.495 39-38.999 39"/><path fill="#475059" d="M100.123 159.999H152v-2h-51.877zM44.124 126.999c-3.309 0-6-2.691-6-6s2.691-6 6-6v2c-2.206 0-4 1.794-4 4s1.794 4 4 4v2"/><path fill="#475059" d="M44.124 130.999c-5.514 0-10-4.486-10-10s4.486-10 10-10v2c-4.411 0-8 3.589-8 8s3.589 8 8 8v2"/><path fill="#48515A" d="M213.054 159.949h2v-4h-2zM213.054 169.949h2v-4h-2zM217.054 163.949h4v-2h-4zM207.054 163.949h4v-2h-4zM34.947 93.909h2v-4h-2zM34.947 103.909h2v-4h-2zM38.947 97.909h4v-2h-4zM28.947 97.909h4v-2h-4zM205.049 76.899h2v-4h-2zM205.049 86.899h2v-4h-2zM209.049 80.899h4v-2h-4zM199.049 80.899h4v-2h-4z"/><path fill="#FFD15D" d="M45.1 155a2 2 0 1 1-3.999.001A2 2 0 0 1 45.1 155m170.024-60.001a2 2 0 1 1-4.001-.001 2 2 0 0 1 4.001.001m-18 65a1 1 0 1 1-2 0 1 1 0 0 1 2 0m-132-84a1 1 0 1 1-2 0 1 1 0 0 1 2 0m-18 9a2 2 0 1 1-4.001-.001 2 2 0 0 1 4.001.001m2 0h-4 4m138 82a2 2 0 1 1 3.999-.001 2 2 0 0 1-3.999.001"/></g></svg>