<?xml version="1.0" encoding="utf-8"?><svg xmlns="http://www.w3.org/2000/svg" width="250" height="250" viewBox="0 0 250 250"><g fill="none" fill-rule="evenodd"><path fill="#48515A" d="M195.959 57.662h-2v-3.995a6.006 6.006 0 0 0-6-5.999v-2c4.412 0 8 3.588 8 7.999v3.995M103.344 65.662h98.615v-2h-98.615zM187.959 47.668l-98.615-.001v-2l98.615.001v2"/><path fill="#FFD15D" d="M191.959 53.668v.994h-90.618v3c0 2.205 4.209 4 2.004 4-2.206 0-4-1.795-4-4v-3.995a9.946 9.946 0 0 0-.836-4l89.45.001c2.206 0 4 1.794 4 4"/><path fill="#48515A" d="M135.308 151.625h29.082v-2h-29.082zM135.391 155.541h20.999v-2h-20.999zM141.39 170.541c-3.308 0-6-2.692-6-6-.001-1.574.631-3.073 1.779-4.221 1.148-1.147 2.647-1.779 4.221-1.779 3.309 0 6 2.692 6 6v2a1 1 0 0 0 2 0c0-1.654 1.346-3 2.999-3a3.005 3.005 0 0 1 3.001 3 1 1 0 0 0 .999 1 1 1 0 1 1 0 2 3.003 3.003 0 0 1-2.999-3 1.001 1.001 0 0 0-2 0c0 1.655-1.346 3-3 3s-3-1.345-3-3v-2c0-2.205-1.795-4-4-4-1.04 0-2.037.424-2.807 1.194-.77.769-1.193 1.766-1.193 2.806 0 2.206 1.794 4 4 4a1 1 0 1 1 0 2m19-.997c-.069 0-.13-.011-.199-.02a.675.675 0 0 1-.181-.06.751.751 0 0 1-.179-.09 1.004 1.004 0 0 1-.361-.45.855.855 0 0 1-.08-.38c0-.07 0-.13.021-.2a.804.804 0 0 1 .059-.19.742.742 0 0 1 .091-.17c.029-.05.079-.1.119-.15a.785.785 0 0 1 .151-.12c.059-.04.12-.07.179-.1.061-.02.12-.041.181-.05a.83.83 0 0 1 .39 0c.07.009.129.03.19.05.06.03.119.06.17.1.059.03.109.069.16.12l.119.15c.04.06.071.11.091.17a.86.86 0 0 1 .06.19c.009.07.019.13.019.2 0 .13-.029.259-.079.38-.051.12-.12.23-.21.32-.19.19-.45.3-.711.3m-29 4.08c-.269 0-.519-.111-.71-.29-.189-.19-.29-.45-.29-.71 0-.13.021-.26.07-.38.05-.12.13-.231.22-.33.37-.37 1.04-.37 1.421 0 .09.099.159.21.21.33.05.12.079.25.079.38 0 .26-.109.52-.289.71-.19.179-.45.29-.711.29m3-1c0-.551.45-1 1-1 .551 0 1 .449 1 1 0 .55-.449 1-1 1-.55 0-1-.45-1-1zm4 0c0-.551.45-1 1-1 .551 0 1 .449 1 1 0 .55-.449 1-1 1-.55 0-1-.45-1-1zm4 0c0-.551.45-1 1-1 .551 0 1 .449 1 1 0 .55-.449 1-1 1-.55 0-1-.45-1-1zm4 0c0-.551.45-1 1-1 .551 0 1 .449 1 1 0 .55-.449 1-1 1-.55 0-1-.45-1-1zm4 0c0-.551.45-1 1-1 .551 0 1 .449 1 1 0 .55-.449 1-1 1-.55 0-1-.45-1-1zm4 0c0-.551.45-1 1-1 .551 0 1 .449 1 1 0 .55-.449 1-1 1-.55 0-1-.45-1-1zm4 0c0-.551.45-1 1-1 .551 0 1 .449 1 1 0 .55-.449 1-1 1-.55 0-1-.45-1-1zm4 0c0-.551.45-1 1-1 .551 0 1 .449 1 1 0 .55-.449 1-1 1-.55 0-1-.45-1-1zm5 1c-.269 0-.519-.111-.71-.29a.994.994 0 0 1-.29-.71c0-.13.021-.26.07-.38.05-.12.13-.231.22-.33.231-.23.58-.33.901-.27.07.01.129.03.19.06.06.02.119.05.17.09a.997.997 0 0 1 .37.45c.05.12.079.25.079.38a1.01 1.01 0 0 1-1 1"/><path fill="#F58E70" d="M135.393 147.625h8.999v-2h-8.999z"/><path fill="#48515A" d="M99.396 87.657h11.997v-2H99.396zM99.396 91.657h11.997v-2H99.396zM105.396 102.664h59.997v-2h-59.997zM99.396 106.664h65.997v-2H99.396zM99.396 110.664h65.997v-2H99.396zM99.396 114.664h53.997v-2H99.396z"/><path fill="#48515A" d="M75.281 184.656v-2c3.372 0 6.115-2.691 6.115-6l-.025-72.999 2-.001.025 73c0 4.412-3.641 8-8.115 8m108.117-61.49l-2-.002.062-59.502h20.499a6.01 6.01 0 0 0 5.917-5H105.409c.107.832.324 1.63.522 2.358.398 1.461.74 2.723-.001 3.694-.65.85-1.787.948-2.586.948-4.411 0-8-3.589-8-8v-3.995c0-3.308-2.691-6-6-6-3.308 0-6 2.692-6 6l.017 28.948-2 .002-.017-28.95c0-4.411 3.589-8 8-8s8 3.589 8 8v3.995c0 3.309 2.692 6 6 6 .815 0 .996-.163.998-.165.127-.23-.155-1.266-.342-1.952-.292-1.08-.659-2.424-.659-3.883v-1h106.618v1c0 4.411-3.588 8-8 8h-18.501l-.06 57.504"/><path fill="#48515A" d="M175.341 184.656H75.594v-2h99.747c3.309 0 6-2.691 6-6l.02-21.04 2 .002-.02 21.038c0 4.412-3.589 8-8 8"/><path fill="#48515A" d="M76.329 184.672c-4.412 0-8-3.589-8-8v-3.595a6.412 6.412 0 0 0-6.405-6.404v-2c4.634 0 8.405 3.77 8.405 8.404v3.595c0 3.309 2.691 6 6 6v2"/><path fill="#48515A" d="M69.011 173.677H54.329v-1c0-4.411 3.588-8 8-8h19.5a1 1 0 0 1 0 2h-19.5a6.01 6.01 0 0 0-5.917 5h12.599a1 1 0 1 1 0 2M207.431 162.67h2v-4h-2zM207.431 172.67h2v-4h-2zM211.431 166.67h4v-2h-4zM201.431 166.67h4v-2h-4zM46.335 132.652h2v-4h-2zM46.335 142.652h2v-4h-2zM50.334 136.652h4v-2h-4zM40.335 136.652h4v-2h-4zM196.424 82.622h2v-4h-2zM196.424 92.622h2v-4h-2zM200.424 86.622h4v-2h-4zM190.424 86.622h4v-2h-4z"/><path fill="#DEDEDD" d="M196.841 111.164a3 3 0 1 1-6 0 3 3 0 0 1 6 0"/><path fill="#F58E70" d="M202.341 190.664a4 4 0 1 1-8 0 4 4 0 0 1 8 0"/><path fill="#475059" d="M165.513 196.337c-.768 0-1.537.293-2.122.877a3.005 3.005 0 0 0 0 4.243 3.005 3.005 0 0 0 4.243 0 3.005 3.005 0 0 0 0-4.243 2.994 2.994 0 0 0-2.121-.877zm0 7.996a4.988 4.988 0 0 1-3.536-1.462 5.006 5.006 0 0 1 0-7.071 5.006 5.006 0 0 1 7.071 0 5.005 5.005 0 0 1 0 7.071 4.986 4.986 0 0 1-3.535 1.462z"/><path fill="#F58E70" d="M66.845 121.164a2 2 0 1 1-4.001-.001 2 2 0 0 1 4.001.001"/><path fill="#FFD15D" d="M71.345 168.677c.627 1.337.977 2.829.977 4.4v3.595a4.007 4.007 0 0 0 3.418 3.958c2.021-.233 3.649-1.958 3.649-3.974v-7.979h-8.044"/><path fill="#48515A" d="M105.396 120.664h59.997v-2h-59.997zM99.396 124.664h65.997v-2H99.396zM99.396 128.664h65.997v-2H99.396zM99.396 132.664h53.997v-2H99.396zM114.173 153.747l6.074.844 7.344-2.973-7.344-2.972-6.074.844v4.257zm6.327 2.898l-8.327-1.157v-7.74l8.327-1.157 9.275 3.753v2.547l-9.275 3.754z"/><path fill="#48515A" d="M119.174 152.618h9.6v-2h-9.6zM83.757 153.617h28.416v-3.998H83.757v3.998zm-2 2h32.416v-7.998H81.757v7.998z"/><path fill="#48515A" d="M38.569 155.619c-2.206 0-4-1.795-4-4 0-2.206 1.794-4 4-4h44.193v2H38.569c-1.103 0-2 .897-2 2s.897 2 2 2l44.268-.002v2l-44.268.002m140.752-24.559v4.329c0 7.698 3.928 14.727 10.538 18.922 6.611-4.195 10.539-11.225 10.539-18.923v-4.328l-10.539-4.216-10.538 4.216zm10.538 25.592l-.515-.308c-7.528-4.517-12.023-12.351-12.023-20.955v-5.683l12.538-5.016 12.539 5.016v5.682c0 8.605-4.495 16.438-12.024 20.956l-.515.308z"/><path fill="#48515A" d="M188.859 154.83h2v-29.063h-2z"/><path fill="#48515A" d="M178.321 140.767h23.001v-2h-23.001z"/><path fill="#475059" d="M67.325 100.663h-2c0-2.206-1.794-4-4-4s-4 1.794-4 4h-2c0-3.309 2.691-6 6-6 3.308 0 6 2.691 6 6"/><path fill="#475059" d="M77.325 100.663h-2c0-2.206-1.794-4-4-4s-4 1.794-4 4h-2c0-3.309 2.691-6 6-6 3.308 0 6 2.691 6 6"/><path fill="#475059" d="M87.325 100.663h-2c0-2.206-1.794-4-4-4s-4 1.794-4 4h-2c0-3.309 2.691-6 6-6 3.308 0 6 2.691 6 6"/><path fill="#475059" d="M55.325 99.663c0-8.823 7.177-16.001 16-16.001 8.822 0 16 7.178 16 16h-2c0-7.72-6.281-14-14-14-7.72 0-14 6.28-14 14l-2 .001"/><path fill="#475059" d="M67.825 113.663a4.504 4.504 0 0 1-4.5-4.5h2c0 1.379 1.121 2.5 2.5 2.5s2.5-1.121 2.5-2.5v-13.5h2v13.5c0 2.482-2.019 4.5-4.5 4.5M70.325 84.662h2v-2.998h-2z"/></g></svg>