<?xml version="1.0" encoding="utf-8"?><svg xmlns="http://www.w3.org/2000/svg" width="250" height="250" viewBox="0 0 250 250"><g fill="none" fill-rule="evenodd"><path fill="#FACD60" d="M125.731 126.984c-11.661 0-21.114-9.453-21.114-21.114.001-11.661 9.454-21.114 21.115-21.114 11.661 0 21.114 9.453 21.114 21.114-.001 11.661-9.454 21.114-21.115 21.114M76.09 48.014c.267 40.595 16.775 79.361 41.249 92.203l.448.256.323.323a27.08 27.08 0 0 1 6.977 11.912v.09l.014-.045.014.045v-.09a27.072 27.072 0 0 1 6.978-11.912l.322-.323.448-.256c24.474-12.842 40.983-51.608 41.249-92.203H76.09"/><path fill="#F9E1C7" d="M125.115 152.798l-.009-.03.009.03m-.028 0l.014-.045-.014.045m0-.09a27.08 27.08 0 0 0-6.977-11.912l-.323-.323-.184-.105.184.105.323.323a27.08 27.08 0 0 1 6.977 11.912m7.491-12.328l.285-.163c7.606-3.991 14.444-10.487 20.263-18.763-5.819 8.276-12.657 14.772-20.263 18.763l-.285.163m4.279-16.562l.132-.169c1.837-2.365 4.928-4.256 6.567-6.93 1.622-2.648 1.821-6.064 3.209-8.997-.591 6.801-4.406 12.678-9.908 16.096"/><path fill="#F5BF5E" d="M125.087 152.798v-.09a27.08 27.08 0 0 0-6.977-11.912l-.323-.323-.184-.105.263-.151c7.059-3.704 13.456-9.315 18.991-16.399 5.502-3.418 9.317-9.295 9.908-16.096l.042-.086c7.686-15.911 12.17-35.619 12.308-56.62l14.997-3.002c-.184 27.978-8.082 55.088-20.986 73.44-5.819 8.276-12.657 14.772-20.263 18.763l-.285.163-.163.093-.323.323a27.08 27.08 0 0 0-6.977 11.912v.09l-.009-.03-.005-.015-.014.045"/><path fill="#42494E" d="M154.271 177.819H82.877c-2.757 0-5-2.243-5-5s2.243-5 5-5h57.386v2H82.877c-1.654 0-3 1.346-3 3s1.346 3 3 3h71.394v2"/><path fill="#42494E" d="M88.487 176.819h2v-7.598h-2z"/><path fill="#42494E" d="M89.487 173.79h77.024v-2H89.487z"/><path fill="#42494E" d="M168.499 177.819h-22.584v-2h22.145l6.506-3-6.506-3h-29.112v-2h29.551l10.843 5-10.843 5"/><path fill="#FACD60" d="M189.146 54.623l-4.393 4.393h-9.163v-3h7.92l3.515-3.514c4.394-4.394 9.906-7.199 15.983-8.141.493-.076.993-.108 1.491-.116l.967-.013-.333 3h-.999c-5.658.73-10.887 3.29-14.988 7.391m-128.315 0l4.393 4.393h9.164v-3h-7.921l-3.515-3.514c-4.394-4.394-9.906-7.199-15.983-8.141a10.934 10.934 0 0 0-1.491-.116l-.967-.013.333 3h.999c5.658.73 10.887 3.29 14.988 7.391"/><path fill="#FACD60" d="M149.756 130.198c31.011-11.176 53.126-39.045 56.795-72.066l1.337-14.116.246-2.754 3.337-.246-1.939 17.447c-3.972 35.748-28.521 65.339-62.766 75.896l-.587-.975 3.417-3.125s-.035.01.16-.061m-48.926 0c-31.011-11.176-53.125-39.045-56.795-72.066l-1.337-14.116-.246-2.754-3.337-.246 1.939 17.447c3.972 35.748 28.521 65.339 62.766 75.896l.587-.975-3.417-3.125s.036.01-.16-.061"/><path fill="#434A4F" d="M90.115 219.02h70v-18.004h-70v18.004zm-2 2h74v-22.004h-74v22.004zm-12-165.004c0-.551.45-1 1-1s1 .449 1 1c0 .549-.45 1-1 1s-1-.451-1-1zm4 0c0-.551.45-1 1-1s1 .449 1 1c0 .549-.45 1-1 1s-1-.451-1-1zm4 0c0-.551.45-1 1-1s1 .449 1 1c0 .549-.45 1-1 1s-1-.451-1-1zm4 0c0-.551.45-1 1-1s1 .449 1 1c0 .549-.45 1-1 1s-1-.451-1-1zm4 0c0-.551.45-1 1-1s1 .449 1 1c0 .549-.45 1-1 1s-1-.451-1-1zm4 0c0-.551.45-1 1-1s1 .449 1 1c0 .549-.45 1-1 1s-1-.451-1-1zm4 0c0-.551.45-1 1-1s1 .449 1 1c0 .549-.45 1-1 1s-1-.451-1-1zm4 0c0-.551.45-1 1-1s1 .449 1 1c0 .549-.45 1-1 1s-1-.451-1-1zm4 0c0-.551.45-1 1-1s1 .449 1 1c0 .549-.45 1-1 1s-1-.451-1-1zm4 0c0-.551.45-1 1-1s1 .449 1 1c0 .549-.45 1-1 1s-1-.451-1-1zm4 0c0-.551.45-1 1-1s1 .449 1 1c0 .549-.45 1-1 1s-1-.451-1-1zm4 0c0-.551.441-1 1-1 .55 0 1 .449 1 1 0 .549-.45 1-1 1-.559 0-1-.451-1-1zm4 0c0-.551.45-1 1-1s1 .449 1 1c0 .549-.45 1-1 1s-1-.451-1-1zm4 0c0-.551.45-1 1-1s1 .449 1 1c0 .549-.45 1-1 1s-1-.451-1-1zm4 0c0-.551.45-1 1-1s1 .449 1 1c0 .549-.45 1-1 1s-1-.451-1-1zm4 0c0-.551.45-1 1-1s1 .449 1 1c0 .549-.45 1-1 1s-1-.451-1-1zm4 0c0-.551.45-1 1-1s1 .449 1 1c0 .549-.45 1-1 1s-1-.451-1-1zm4 0c0-.551.441-1 1-1 .55 0 1 .449 1 1 0 .549-.45 1-1 1-.559 0-1-.451-1-1zm4 0c0-.551.45-1 1-1s1 .449 1 1c0 .549-.45 1-1 1s-1-.451-1-1zm4 0c0-.551.45-1 1-1s1 .449 1 1c0 .549-.45 1-1 1s-1-.451-1-1zm4 0c0-.551.45-1 1-1s1 .449 1 1c0 .549-.45 1-1 1s-1-.451-1-1zm4 0c0-.551.45-1 1-1s1 .449 1 1c0 .549-.45 1-1 1s-1-.451-1-1zm4 0c0-.551.45-1 1-1s1 .449 1 1c0 .549-.45 1-1 1s-1-.451-1-1zm4 0c0-.551.45-1 1-1s1 .449 1 1c0 .549-.45 1-1 1s-1-.451-1-1zm-50 85.999c0-.55.45-1 1-1s1 .45 1 1-.45 1-1 1-1-.45-1-1zm4 0c0-.55.45-1 1-1s1 .45 1 1-.45 1-1 1-1-.45-1-1zm4 0c0-.55.45-1 1-1s1 .45 1 1-.45 1-1 1-1-.45-1-1zm4 0c0-.55.45-1 1-1s1 .45 1 1-.45 1-1 1-1-.45-1-1z"/><path fill="#434A4F" d="M202.982 57.801h.01-.01zm-25.199 2.215c-1.538 23.771-8.478 45.552-19.677 61.915 24.497-12.735 40.798-36.48 43.882-64.241l1.031-9.271c-4.986.902-9.508 3.275-13.143 6.911l-4.687 4.686h-7.406zm-25.499 66.47l1.904-2.526c12.481-16.564 20.171-39.649 21.657-65.003l.054-.941h8.462l4.101-4.1c4.256-4.257 9.639-6.911 15.566-7.676l1.263-.163-1.314 11.834c-3.305 29.743-21.426 54.987-48.473 67.526l-.21.076-3.01.973zM46.98 48.419l1.032 9.271c3.099 27.897 19.545 51.739 44.242 64.427-11.275-16.382-18.263-38.235-19.808-62.101h-7.635l-4.687-4.686c-3.636-3.636-8.158-6.009-13.144-6.911zm51.05 78.168l-3.535-1.15c-27.047-12.54-45.167-37.783-48.472-67.526l-1.315-11.834 1.263.163c5.927.765 11.31 3.419 15.567 7.676l4.101 4.1h8.691l.055.941c1.489 25.411 9.208 48.531 21.734 65.101l1.911 2.529zm51.086 74.429h-48.002v-6h1c10.387 0 18.86-8.45 18.887-18.835l.069-16.069c.027-6.104-2.413-12.082-6.699-16.425-3.957-2.102-6.878-4.801-10.253-7.92l-.439-.405-.154-.047C68.968 124.661 44.056 94.539 40.06 58.574l-2.062-18.558h4.469c8.806 0 17.087 3.43 23.313 9.657l2.344 2.343h4.012c-.012-.665-.021-1.331-.021-2 0-.433.009-.863.017-1.293l.013-.72c.006-.552.508-.998 1.012-.987.553.007.994.461.988 1.013l-.013.733c-.009.417-.017.834-.017 1.254 0 .998.02 1.989.039 2.98l.02 1.02h-6.878l-2.93-2.929c-5.849-5.849-13.627-9.071-21.899-9.071h-2.235l1.816 16.337c3.901 35.113 28.189 64.532 61.895 74.997l.476-.026 1.056.974c3.311 3.059 6.17 5.7 9.963 7.69l.242.179c4.726 4.726 7.42 11.27 7.39 17.953l-.069 16.067c-.03 11.149-8.861 20.282-19.887 20.805v2.024h44.002v-2.019c-11.106-.466-20-9.648-20-20.868v-16.074c0-6.742 2.625-13.079 7.391-17.845l.286-.221c3.787-1.988 6.643-4.625 9.949-7.68l1.059-.976.259.017c33.706-10.466 57.99-39.884 61.891-74.997l1.817-16.337h-2.236c-8.272 0-16.05 3.222-21.899 9.071l-2.929 2.929h-6.647l.019-1.02c.02-.991.039-1.982.039-2.98 0-.42-.008-.837-.016-1.254l-.013-.733a1 1 0 0 1 .987-1.013c.585-.033 1.006.435 1.013.987l.013.72c.007.43.016.86.016 1.293 0 .669-.009 1.335-.02 2h3.781l2.343-2.343c6.226-6.227 14.507-9.657 23.313-9.657h4.47l-2.063 18.558c-3.989 35.899-28.814 65.977-63.273 76.681l-.566.524c-3.372 3.114-6.29 5.808-10.241 7.908-4.363 4.415-6.743 10.208-6.743 16.368v16.074c0 10.414 8.473 18.887 18.887 18.887h1.113v6zm-47.001 11.991h46v-6h-46v6zm-2 2h50v-10h-50v10z"/><path fill="#FACD60" d="M125.058 182.639c-1.908 6.412-6.561 11.657-12.585 14.37h25.162c-6.024-2.713-10.671-7.957-12.577-14.37m18.673-76.769c0 9.941-8.059 18-18 18s-18-8.059-18-18c.001-9.941 8.06-18 18.001-18s18 8.059 17.999 18"/><path fill="#75C7D0" d="M125.863 67.102l-.037.284-20.963-27.572.25-.315h41.375l.209.398-20.834 27.205zm23.904-37.122h-47.889l-8.765 9.717 27.178 35.563h11.063l27.178-35.563-8.765-9.717z"/><path fill="#434A4F" d="M125.73 113.908a1 1 0 0 1-1-1V99.832h-3.221a1 1 0 1 1 0-2h4.221a1 1 0 0 1 1 1v14.076a1 1 0 0 1-1 1"/><path fill="#434A4F" d="M129.952 113.908h-8.443a1 1 0 1 1 0-2h8.443a1 1 0 1 1 0 2"/><path fill="#434A4F" d="M125.731 121.952a15.974 15.974 0 0 1-11.371-4.711 15.97 15.97 0 0 1-4.71-11.371 1.001 1.001 0 0 1 2 0c0 3.761 1.464 7.297 4.124 9.957a13.99 13.99 0 0 0 9.957 4.125c4.083 0 7.962-1.771 10.642-4.859a1 1 0 1 1 1.51 1.31 16.082 16.082 0 0 1-12.152 5.549m-22.085-14.847h.009c-.04-.549.391-1.02.941-1.06.55-.03 1.019.401 1.05.95a.996.996 0 0 1-.941 1.05h-.059a.997.997 0 0 1-1-.94zm.629 4.13a.994.994 0 0 1 .731-1.21c.529-.13 1.069.19 1.21.73.13.531-.2 1.08-.731 1.21l-.24.03a.993.993 0 0 1-.97-.76zm1.39 3.95a1.005 1.005 0 0 1 1.82-.85h-.009a.994.994 0 0 1-.901 1.42c-.38 0-.739-.21-.91-.57zm2.12 3.61a.995.995 0 0 1 .221-1.4 1.006 1.006 0 0 1 1.399.23.995.995 0 0 1-.229 1.39.96.96 0 0 1-.58.19.988.988 0 0 1-.811-.41zm2.75 3.14a.997.997 0 1 1 1.37-1.45h.01c.4.381.41 1.01.03 1.41a.978.978 0 0 1-1.41.04zm3.29 2.58h.011a.995.995 0 0 1-.311-1.379.994.994 0 0 1 1.38-.31c.47.299.601.919.311 1.379-.191.3-.521.46-.851.46-.179 0-.37-.049-.54-.15zm3.731 1.911a.995.995 0 0 1-.561-1.301c.2-.52.78-.77 1.301-.56.51.2.76.781.559 1.301-.16.389-.54.629-.929.629-.13 0-.25-.02-.37-.069zm4.009 1.17a1 1 0 0 1-.79-1.17 1 1 0 0 1 1.17-.801 1 1 0 0 1-.189 1.98l-.191-.009zm3.17-.611c0-.55.441-1 1-1 .55 0 1 .45 1 1 0 .551-.45 1-1 1-.559 0-1-.449-1-1z"/><path fill="#434A4F" d="M104.617 106.869a1 1 0 0 1-1-1c0-12.193 9.921-22.113 22.114-22.113a1 1 0 1 1 0 2c-11.09 0-20.114 9.023-20.114 20.113a1 1 0 0 1-1 1m21.115 21.115h-.001a1 1 0 0 1 0-2 19.982 19.982 0 0 0 14.223-5.891 19.979 19.979 0 0 0 5.892-14.223 1 1 0 1 1 2 0c0 5.907-2.3 11.46-6.478 15.637a21.969 21.969 0 0 1-15.636 6.477m5.622-51.723h-11.063a1 1 0 0 1-.795-.393L92.318 40.304a1 1 0 0 1 .053-1.277l8.765-9.717a1 1 0 1 1 1.484 1.34l-8.208 9.099 26.373 34.512h10.569a1 1 0 1 1 0 2m27.178-35.564a.998.998 0 0 1-.742-.33l-8.765-9.717a1 1 0 0 1 1.485-1.34l8.764 9.717a.999.999 0 0 1-.742 1.67"/><path fill="#434A4F" d="M131.354 76.261h-4.269a1 1 0 1 1 0-2h4.269a1 1 0 1 1 0 2"/><path fill="#42494E" d="M93.476 40.499h64.241v-2H93.476z"/><path fill="#434A4F" d="M125.544 77.606c-.789 0-1.431.642-1.431 1.431a1.433 1.433 0 0 0 2.863 0c0-.789-.643-1.431-1.432-1.431zm0 4.862a3.435 3.435 0 0 1-3.431-3.431 3.435 3.435 0 0 1 3.431-3.431 3.435 3.435 0 0 1 3.432 3.431 3.435 3.435 0 0 1-3.432 3.431zm-5.182-6.863a1 1 0 0 1-.796-1.604l26.333-34.709a1 1 0 0 1 1.594 1.209L121.16 75.21a.999.999 0 0 1-.798.395"/><path fill="#42494E" d="M199.28 151.578l-1.902-.62.33-1.011-1.274-.415a3.618 3.618 0 0 1-2.534-3.494 3.616 3.616 0 0 1 2.54-3.487l1.276-.413-.7-2.162-1.277.413a3.612 3.612 0 0 1-4.101-1.337 3.614 3.614 0 0 1 .004-4.314l.79-1.085-1.837-1.337-.789 1.084c-.953 1.309-2.565 1.833-4.105 1.329a3.615 3.615 0 0 1-2.533-3.492l.002-1.342-2.273-.002-.001 1.342c-.001 1.619-.999 2.988-2.539 3.488-1.542.498-3.152-.026-4.102-1.338l-.787-1.086-1.84 1.334.787 1.086a3.615 3.615 0 0 1-.004 4.314 3.618 3.618 0 0 1-4.104 1.329l-1.276-.415-.329 1.01-1.902-.62.95-2.912 3.176 1.036c.853.278 1.524-.131 1.868-.605.346-.474.527-1.239.002-1.964l-1.961-2.704 5.078-3.682 1.961 2.705c.524.724 1.308.789 1.867.609.558-.181 1.155-.693 1.155-1.587l.003-3.342 6.273.006-.004 3.342c-.001.894.595 1.407 1.153 1.589.558.182 1.341.118 1.867-.605l1.967-2.701 5.07 3.692-1.966 2.701c-.527.723-.347 1.488-.002 1.963.343.474 1.012.883 1.867.609l3.179-1.03 1.932 5.968-3.179 1.028c-.851.276-1.155 1.001-1.156 1.587 0 .587.302 1.313 1.153 1.59l3.176 1.036-.949 2.912"/><path fill="#E9886C" d="M190.077 148.654l-1.902-.62a6.484 6.484 0 0 0-4.15-8.164 6.438 6.438 0 0 0-4.942.384 6.426 6.426 0 0 0-3.222 3.766l-1.902-.62a8.422 8.422 0 0 1 4.218-4.929 8.414 8.414 0 0 1 6.468-.502c4.443 1.448 6.88 6.241 5.432 10.685"/><path fill="#E9886C" d="M182.049 154.438a8.47 8.47 0 0 1-2.637-.422 8.42 8.42 0 0 1-4.929-4.218 8.428 8.428 0 0 1-.502-6.468l1.903.621a6.427 6.427 0 0 0 .383 4.941 6.435 6.435 0 0 0 3.765 3.223c1.647.537 3.402.4 4.943-.383a6.432 6.432 0 0 0 3.222-3.766l1.903.62a8.428 8.428 0 0 1-4.22 4.929 8.445 8.445 0 0 1-3.831.923"/><path fill="#42494E" d="M185.157 164.094l-6.272-.006.004-3.342c.001-.894-.595-1.407-1.153-1.589-.555-.183-1.341-.119-1.868.605l-1.967 2.701-5.069-3.693 1.966-2.7c.527-.724.347-1.489.002-1.964-.344-.475-1.012-.885-1.866-.609l-3.179 1.03-1.933-5.968 3.18-1.028c.851-.276 1.155-1.001 1.155-1.588.001-.586-.302-1.312-1.151-1.589l-3.178-1.036 1.067-3.271 1.902.62-.447 1.37 1.275.415a3.616 3.616 0 0 1 2.532 3.494 3.616 3.616 0 0 1-2.54 3.487l-1.275.414.7 2.161 1.276-.413a3.614 3.614 0 0 1 4.101 1.337 3.617 3.617 0 0 1-.004 4.315l-.79 1.084 1.837 1.337.789-1.084a3.613 3.613 0 0 1 4.106-1.328 3.615 3.615 0 0 1 2.532 3.492l-.002 1.342 2.272.002.001-1.341a3.616 3.616 0 0 1 2.54-3.488c1.541-.498 3.152.026 4.102 1.337l.787 1.087 1.84-1.334-.787-1.086c-.952-1.312-.949-3.005.004-4.315.955-1.308 2.563-1.831 4.104-1.328l1.276.416.494-1.516 1.902.619-1.114 3.418-3.177-1.036c-.855-.278-1.524.131-1.867.605-.346.474-.529 1.239-.003 1.964l1.961 2.705-5.078 3.681-1.961-2.706c-.524-.723-1.308-.79-1.867-.608-.558.181-1.155.692-1.156 1.587l-.003 3.341"/><path fill="#FACD60" d="M185.975 146.093a4 4 0 1 1-8 0 4 4 0 0 1 8 0"/><path fill="#FACD60" d="M181.975 142.593c-1.93 0-3.5 1.57-3.5 3.5 0 1.929 1.57 3.5 3.5 3.5 1.929 0 3.5-1.571 3.5-3.5 0-1.93-1.571-3.5-3.5-3.5zm0 8a4.505 4.505 0 0 1-4.5-4.5c0-2.482 2.018-4.5 4.5-4.5 2.481 0 4.5 2.018 4.5 4.5 0 2.481-2.019 4.5-4.5 4.5zm-92.86-.573a3 3 0 1 1-6 0 3 3 0 0 1 6 0"/><path fill="#434A4F" d="M70.127 190.026c-1.103 0-2 .897-2 2s.897 2 2 2c1.102 0 2-.897 2-2s-.898-2-2-2zm0 6c-2.206 0-4-1.795-4-4 0-2.206 1.794-4 4-4s4 1.794 4 4c0 2.205-1.794 4-4 4z"/><path fill="#FACD60" d="M189.175 200.05a3 3 0 1 1-6 0 3 3 0 0 1 6 0"/></g></svg>