<?xml version="1.0" encoding="utf-8"?><svg xmlns="http://www.w3.org/2000/svg" width="250" height="250" viewBox="0 0 250 250"><g fill="none" fill-rule="evenodd"><path fill="#F58E70" d="M145 101.542h57v-4.149l13.375 13.375L202 124.206v-4.664h-57v-18"/><path fill="#48515A" d="M198 133.895v-10.353h-26v-2h28v7.508l18.201-18.285L200 92.564v6.977h-28v-2h26v-9.805l23.025 23.026L198 133.895"/><path fill="#F58E70" d="M105 119.542H48v4.664l-13.375-13.438L48 97.393v4.149h57v18"/><path fill="#48515A" d="M52 133.895l-23.025-23.133L52 87.736v9.805h27v2H50v-6.977l-18.201 18.201L50 129.05v-7.508h29v2H52v10.353"/><path fill="#DFE0E0" d="M119.232 76.603l5.998 4.648 5.125-4.313.902-4.355c.228-.225-1.631 1.318-2.489 2.051a3.745 3.745 0 0 1-2.429.908h-2.567a3.685 3.685 0 0 1-2.402-.874l-1.952-1.419-.186 3.354"/><path fill="#48515A" d="M126 76.541h-2.24a4.755 4.755 0 0 1-3.078-1.146 42.468 42.468 0 0 0-.801-.661c-1.304-1.06-2.781-2.261-3.224-3.447l-2.139-4.517-2.51-1.45-1.09-4.211c0-.962.603-2.011 1.537-2.405l-.004-.013c-.212-.608-.451-1.296-.451-2.088 0-.552.447-1.031 1-1.031.553 0 1 .417 1 .97 0 .515.157.968.34 1.493.145.417.295.848.382 1.33l.211 1.177h-1.678c-.083.01-.282.229-.327.471l.799 2.99 2.332 1.347 2.44 5.16c.284.755 1.704 1.909 2.644 2.672.299.244.586.476.837.691a2.751 2.751 0 0 0 1.78.669H126a.999.999 0 1 1 0 1.999m-16 60.999c0-.55.45-1 1-1s1 .45 1 1-.45 1-1 1-1-.45-1-1zm4 0c0-.55.45-1 1-1s1 .45 1 1-.45 1-1 1-1-.45-1-1zm4 0c0-.55.45-1 1-1s1 .45 1 1-.45 1-1 1-1-.45-1-1zm4 0c0-.55.45-1 1-1s1 .45 1 1-.45 1-1 1-1-.45-1-1zm4 0c0-.55.45-1 1-1s1 .45 1 1-.45 1-1 1-1-.45-1-1zm4 0c0-.55.45-1 1-1s1 .45 1 1-.45 1-1 1-1-.45-1-1zm4 0c0-.55.45-1 1-1s1 .45 1 1-.45 1-1 1-1-.45-1-1zm4 0c0-.55.45-1 1-1s1 .45 1 1-.45 1-1 1-1-.45-1-1zM124 206.542h2v-58h-2zM111.492 147.542H107v-2h3.246l1.754-3.565v-1.435h2v1.899l-2.508 5.101M143 147.542h-4.505L136 142.44v-1.898h2v1.436l1.743 3.564H143v2"/><path fill="#48515A" d="M137.577 60.174l-1.971-.343c.203-1.163.394-2.262.394-3.228v-.446c0-1.309-.26-2.576-.772-3.835l-.311-.54a9.477 9.477 0 0 0-.174-.367l1.086-.546v-.496h.639l.344.579c.788 1.699 1.188 3.42 1.188 5.115v.536c0 1.139-.215 2.375-.423 3.571m-25.054-.022c-.058-.386-.134-.77-.208-1.147-.155-.792-.315-1.611-.315-2.402v-.19c0-3.363 1.415-6.697 3.884-9.148 2.493-2.478 5.706-3.798 9.129-3.807 2.848.02 5.535.961 7.768 2.722l-1.238 1.57a10.603 10.603 0 0 0-6.544-2.292h-.071c-2.83 0-5.539 1.144-7.635 3.226C115.2 50.762 114 53.58 114 56.413v.19c0 .597.135 1.288.278 2.018.079.405.159.816.222 1.231l-1.977.3"/><path fill="#F58E70" d="M130.278 127.148s-3.207-35.638-3.779-37.931h-.179c.474.001.68-.384.68-.859v-2.149l-2.036-2.58-1.964 2.58v2.149c0 .475.415.86.89.859h.022c-.572 2.293-3.638 37.931-3.638 37.931l5.003 6 5.001-6"/><path fill="#48515A" d="M94.383 112.614l9.617 9.673v-19.661l-9.617 9.988zm11.804 51.587l-.065-25.659H104V125.24l-7.95 7.965-15.252-15.657c-3.392-3.479-3.377-9.129.032-12.593l20.395-20.729 12.408-4.389 2.586-4.296H118v-3h2v5.001h-2.65l-2.373 3.941-12.651 4.474-20.07 20.4c-2.652 2.695-2.663 7.089-.027 9.795l13.838 14.204 6.581-6.593-11.064-11.126L106 97.665v38.877h2.116l.071 27.654-2 .005zM106.186 206.459l-.036-36 2-.001.036 36-2 .001M146 102.611v19.849l9.718-9.838L146 102.611zm-3.91 103.866l-.008-69.935H144V97.68l14.517 14.955-10.996 11.131 6.598 6.603 13.845-14.195a6.939 6.939 0 0 0-.023-9.772L147.87 86.044l-12.635-4.559-2.511-3.943H130v-5.547l.503-.289c.667-.381.785-.696.948-1.132l.058-.134 2.638-5.177 2.651-1.38.558-2.868c-.023-.222-.207-.454-.296-.474l-1.774.001.25-1.204c.05-.237.103-.468.155-.696.165-.723.309-1.346.309-2.039v-.446h2v.446c0 .75-.121 1.418-.263 2.057.315.112.609.303.861.563a2.69 2.69 0 0 1 .76 1.906l-.018.163-.763 3.919-2.937 1.531-2.325 4.556c-.19.507-.464 1.183-1.315 1.816v2.427h1.821l2.735 4.294 12.42 4.482 20.39 20.682c3.46 3.517 3.473 9.039.03 12.571l-15.259 15.645-8.137-8.142v13.469h-1.918l.008 67.935h-2zM121.342 87.928a1 1 0 0 1-.743-1.669l4.611-5.124 4.61 5.124a1 1 0 0 1-1.486 1.338l-3.124-3.472-3.125 3.472a.998.998 0 0 1-.743.331"/><path fill="#48515A" d="M103.347 135.542h-2.863l-3.297-3.525 1.461-1.367 2.704 2.892h1.137l1.704-1.793 1.45 1.377-2.296 2.416M149.514 135.542h-2.857l-2.171-2.267 1.446-1.383 1.579 1.65h1.143l2.788-2.938 1.452 1.376-3.38 3.562M80 153.542h2v-4h-2zM80 163.542h2v-4h-2zM84 157.542h4v-2h-4zM74 157.542h4v-2h-4zM161 63.542h2v-4h-2zM161 73.541h2v-4h-2zM165 67.542h4v-2h-4zM155 67.542h4v-2h-4zM155 189.542h2v-4h-2zM155 199.542h2v-4h-2zM159 193.542h4v-2h-4zM149 193.542h4v-2h-4z"/><path fill="#F58E70" d="M66.292 84.458a.999.999 0 1 1-2 0 1 1 0 0 1 2 0m147.352 100.018a1.333 1.333 0 1 1-2.667.001 1.333 1.333 0 0 1 2.667-.001M65.631 144.107a1.333 1.333 0 1 0 2.667 0 1.333 1.333 0 0 0-2.667 0"/><path fill="#48515A" d="M170.404 185.75l3.853 1.251.715-2.203c.651-2.007 2.436-3.305 4.547-3.306h.001c2.11 0 3.895 1.297 4.547 3.303l.716 2.203 3.853-1.253-.717-2.203c-.653-2.006.028-4.105 1.735-5.346 1.706-1.242 3.913-1.242 5.621-.002l1.972 1.386 2.38-3.278-1.959-1.378c-1.72-1.248-2.403-3.346-1.752-5.353.651-2.008 2.437-3.305 4.548-3.306l2.315-.001-.002-4.05h-2.316c-2.11 0-3.896-1.296-4.548-3.302-.652-2.007.028-4.106 1.735-5.347l1.873-1.361-2.322-3.195-1.873 1.362c-1.707 1.242-3.914 1.241-5.621.002-1.708-1.24-2.391-3.338-1.739-5.345l.715-2.203-3.854-1.25-.715 2.203c-.65 2.007-2.435 3.305-4.546 3.305h-.002c-2.11 0-3.894-1.295-4.546-3.302l-.717-2.202-3.852 1.254.717 2.201c.652 2.008-.029 4.107-1.736 5.348-1.705 1.24-3.912 1.242-5.621.001l-1.873-1.36-2.38 3.278 1.874 1.361c1.708 1.24 2.39 3.338 1.739 5.345-.651 2.007-2.436 3.305-4.547 3.306h-2.315l.002 4.051 2.316-.001h.002c2.109 0 3.894 1.296 4.546 3.302.653 2.007-.028 4.106-1.735 5.347l-1.874 1.362 2.322 3.192 1.873-1.361c1.707-1.242 3.913-1.243 5.622-.002 1.707 1.239 2.39 3.338 1.738 5.345l-.715 2.202zm5.138 3.771l-7.657-2.485 1.332-4.105c.46-1.418-.221-2.536-1.012-3.11-.79-.575-2.064-.875-3.27.001l-3.491 2.538-4.673-6.427 3.491-2.538c1.205-.877 1.311-2.182 1.009-3.111-.302-.929-1.156-1.921-2.644-1.921h-.002l-4.316.002-.002-8.051 4.315-.001c1.49-.001 2.343-.994 2.645-1.923.301-.93.194-2.235-1.012-3.11l-3.492-2.535 4.729-6.516 3.492 2.536c1.204.875 2.478.573 3.27-.001.79-.575 1.471-1.694 1.01-3.111l-1.336-4.104 7.656-2.49 1.336 4.104c.46 1.416 1.668 1.92 2.644 1.92h.001c.978 0 2.185-.505 2.645-1.922l1.332-4.106 7.658 2.485-1.332 4.105c-.46 1.417.221 2.535 1.012 3.109.789.574 2.064.875 3.27-.001l3.491-2.538 4.675 6.43-3.492 2.538c-1.205.876-1.311 2.181-1.01 3.11.303.929 1.157 1.921 2.647 1.921h.001l4.315-.001.002 8.05-4.315.002c-1.49 0-2.344.993-2.646 1.923-.3.929-.193 2.234 1.013 3.109l3.607 2.537-4.73 6.515-3.596-2.528c-1.216-.884-2.492-.583-3.282-.008s-1.47 1.693-1.009 3.11l1.334 4.105-7.655 2.49-1.335-4.104c-.46-1.417-1.668-1.922-2.645-1.922-.978.001-2.186.506-2.646 1.923l-1.332 4.106z"/><path fill="#475059" d="M170.2 171.145c-3.758-5.168-2.61-12.43 2.558-16.188 5.17-3.758 12.43-2.611 16.187 2.557l-1.617 1.176c-3.109-4.275-9.117-5.227-13.394-2.115-4.276 3.109-5.225 9.117-2.117 13.394l-1.617 1.176"/><path fill="#F58E70" d="M179.551 160.788a3.475 3.475 0 0 0-2.842 1.447 3.473 3.473 0 0 0-.622 2.606 3.476 3.476 0 0 0 1.402 2.282 3.504 3.504 0 0 0 4.888-.781 3.48 3.48 0 0 0 .622-2.606 3.473 3.473 0 0 0-1.402-2.282 3.478 3.478 0 0 0-2.046-.666zm-.022 10.002a6.451 6.451 0 0 1-3.8-1.238 6.457 6.457 0 0 1-2.605-4.238 6.465 6.465 0 0 1 1.155-4.839 6.459 6.459 0 0 1 4.239-2.605 6.463 6.463 0 0 1 4.838 1.154 6.456 6.456 0 0 1 2.606 4.239 6.465 6.465 0 0 1-1.155 4.839 6.459 6.459 0 0 1-4.239 2.605 6.625 6.625 0 0 1-1.039.083z"/><path fill="#48515A" d="M180.28 151.31c-.551-.03-.97-.51-.94-1.06.03-.55.5-.97 1.05-.94.549.03.98.5.95 1.05-.03.54-.481.95-1 .95h-.06zm-4.89-.43a1 1 0 0 1 .75-1.2 1.002 1.002 0 0 1 .45 1.95c-.07.01-.151.02-.22.02-.46 0-.87-.31-.98-.77zm8.52 1.16c-.52-.19-.79-.76-.61-1.28.19-.52.76-.79 1.28-.6.52.18.79.75.609 1.27-.149.41-.529.67-.939.67-.12 0-.23-.02-.34-.06zm-12.13.55a1 1 0 0 1 .38-1.36.99.99 0 0 1 1.36.38 1 1 0 0 1-1.74.98zm15.39 1.17a.995.995 0 0 1-.22-1.4 1 1 0 0 1 1.619 1.18c-.199.27-.509.41-.819.41-.2 0-.4-.06-.58-.19zm-18.37 1.49a.986.986 0 0 1-.02-1.41.998.998 0 0 1 1.43 1.39h.01a1.015 1.015 0 0 1-1.42.02zm21.03 1.08a.992.992 0 0 1 .18-1.4.993.993 0 0 1 1.4.18.99.99 0 0 1-.181 1.4.92.92 0 0 1-.609.21.983.983 0 0 1-.79-.39zm-23.141 2.31a.997.997 0 0 1-.419-1.35c.26-.49.86-.67 1.35-.42.489.26.68.87.42 1.36a.993.993 0 0 1-1.351.41zm24.96.92c-.199-.52.051-1.1.571-1.3.509-.2 1.09.05 1.3.57.2.51-.06 1.09-.581 1.29a.88.88 0 0 1-.359.07c-.4 0-.77-.24-.931-.63zm-26.029 2.93c-.54-.11-.9-.63-.79-1.18v.01a1 1 0 0 1 1.18-.79c.54.11.889.64.79 1.18-.1.48-.52.8-.99.8-.06 0-.13 0-.19-.02zm26.87.67a.991.991 0 0 1 .909-1.08.991.991 0 0 1 1.08.91.988.988 0 0 1-.899 1.08h-.09c-.511 0-.95-.39-1-.91zm-27.89 2.42a.992.992 0 0 1 .91-1.08.998.998 0 1 1 .17 1.99h-.09c-.51 0-.95-.39-.99-.91zm28.469 2.46a1.002 1.002 0 0 1-.779-1.18c.109-.54.63-.89 1.17-.79a1.004 1.004 0 1 1-.19 1.99c-.07 0-.13-.01-.201-.02zm-27.509 1.7c-.201-.52.06-1.1.57-1.3a1.01 1.01 0 0 1 1.3.57c.2.52-.06 1.1-.571 1.3-.119.04-.239.06-.359.06-.4 0-.78-.24-.94-.63zm25.91 1.95a.993.993 0 0 1-.42-1.35.99.99 0 0 1 1.349-.41c.491.25.67.86.42 1.35a1.02 1.02 0 0 1-.889.53.926.926 0 0 1-.46-.12zm-23.8 1.77a.99.99 0 0 1 .18-1.4 1 1 0 0 1 1.4.17 1.003 1.003 0 0 1-.79 1.62c-.3 0-.601-.14-.79-.39zm21.229 1.29a.997.997 0 1 1 1.391-1.43c.399.38.41 1.01.02 1.41a.982.982 0 0 1-1.411.02zm-18.17 1.68c-.439-.33-.54-.95-.219-1.4.33-.44.95-.55 1.4-.22.449.32.54.95.22 1.4a1 1 0 0 1-.811.41c-.199 0-.409-.06-.59-.19zm14.84.54a1.015 1.015 0 0 1 .381-1.37 1 1 0 0 1 1.36.38c.27.48.1 1.09-.38 1.37-.15.08-.321.13-.491.13-.349 0-.689-.19-.87-.51zm-11.059 1.45c-.52-.18-.79-.75-.611-1.28a1 1 0 0 1 1.281-.6c.52.18.79.76.61 1.28a1 1 0 0 1-1.28.6zm7.24-.27a1 1 0 1 1 1.95-.45.995.995 0 0 1-.75 1.19c-.08.02-.15.03-.23.03a1 1 0 0 1-.97-.77zm-3.05 1.12c-.551-.04-.98-.51-.95-1.06.03-.55.51-.97 1.06-.94.549.03.97.5.94 1.05-.03.53-.47.95-1 .95h-.05z"/><path fill="#F58E70" d="M44.953 164.119a2 2 0 1 0 3.999.001 2 2 0 0 0-3.999-.001"/><path fill="#475059" d="M86.688 53.377c-4.962 0-9 4.038-9 9s4.038 9 9 9c4.963 0 9-4.038 9-9s-4.037-9-9-9zm0 20c-6.065 0-11-4.935-11-11 0-6.066 4.935-11 11-11 6.066 0 11 4.934 11 11 0 6.065-4.934 11-11 11zm0-26c-8.271 0-15 6.729-15 15s6.729 15 15 15c8.272 0 15-6.729 15-15s-6.728-15-15-15zm0 32c-9.374 0-17-7.626-17-17 0-9.374 7.626-17 17-17 9.374 0 17 7.626 17 17 0 9.374-7.626 17-17 17z"/><path fill="#475059" d="M86.688 59.377c-1.654 0-3 1.346-3 3s1.346 3 3 3c1.655 0 3-1.346 3-3s-1.345-3-3-3zm0 8c-2.756 0-5-2.243-5-5s2.244-5 5-5c2.757 0 5 2.243 5 5s-2.243 5-5 5z"/><path fill="#F58E70" d="M86.688 58.377a4 4 0 1 0 0 8 4 4 0 0 0 0-8"/><path fill="#F58E70" d="M86.688 59.377c-1.654 0-3 1.346-3 3s1.346 3 3 3c1.655 0 3-1.346 3-3s-1.345-3-3-3zm0 8c-2.756 0-5-2.243-5-5s2.244-5 5-5c2.757 0 5 2.243 5 5s-2.243 5-5 5z"/><path fill="#475059" d="M60 63.542h27v-2H60z"/><path fill="#475059" d="M53.104 65.542h3.171l3-3-3-3h-3.171l3 3-3 3zm4 1.999h-8.829l5-4.999-5-5h8.829l5 5-5 4.999z"/><path fill="#48515A" d="M106.96 168.46c-.07 0-.13-.01-.2-.02a.636.636 0 0 1-.18-.06.782.782 0 0 1-.181-.09l-.149-.12c-.19-.19-.29-.45-.29-.71 0-.13.019-.26.07-.38.06-.13.13-.24.22-.33.05-.04.1-.09.149-.12a.782.782 0 0 1 .181-.09c.06-.03.12-.05.18-.06.2-.04.4-.02.58.06.12.05.229.12.33.21.09.09.16.2.21.33.05.12.08.25.08.38 0 .26-.11.52-.29.71-.101.09-.21.16-.33.21-.12.05-.25.08-.38.08m27.25-118.63c-.26 0-.521-.1-.71-.29-.181-.19-.29-.44-.29-.71 0-.26.109-.52.29-.7.37-.38 1.04-.37 1.42 0 .18.18.29.44.29.7 0 .27-.11.53-.29.71-.191.19-.45.29-.71.29m34.664 50.128l-.044-.001c-.552-.023-1.003-.491-.978-1.043a.99.99 0 0 1 1.019-.957l.045.003a.999.999 0 0 1-.042 1.998M169 123.54c-.13 0-.26-.02-.38-.07-.13-.06-.23-.13-.33-.22a.933.933 0 0 1-.21-.33.995.995 0 0 1-.08-.38c0-.26.109-.52.29-.71.1-.09.2-.16.33-.21.18-.08.38-.1.58-.06.06.01.119.03.18.06.059.02.12.05.18.09l.15.12c.18.19.29.45.29.71 0 .13-.03.26-.08.38-.05.13-.12.24-.21.33-.05.04-.101.09-.15.12-.06.04-.121.07-.18.1-.061.02-.12.04-.18.05-.07.02-.131.02-.2.02M81.821 99.958l-.045-.001c-.551-.024-1.002-.492-.976-1.044.024-.553.509-.97 1.02-.956l.044.003a.999.999 0 0 1-.043 1.998M82 123.54c-.271 0-.521-.11-.71-.29-.181-.19-.29-.44-.29-.71 0-.26.109-.52.29-.71.23-.23.58-.34.91-.27.06.01.119.03.18.06.059.02.12.05.18.09l.15.12c.18.19.29.45.29.71 0 .26-.11.52-.29.71-.05.04-.101.09-.15.12a.776.776 0 0 1-.18.09.646.646 0 0 1-.18.06c-.07.01-.131.02-.2.02"/></g></svg>