<?xml version="1.0" encoding="utf-8"?><svg xmlns="http://www.w3.org/2000/svg" xmlns:xlink="http://www.w3.org/1999/xlink" width="192" height="193" viewBox="0 0 192 193"><defs><path id="fea" d="M.993.997h126.015V53.94H.993z"/></defs><g fill="none" fill-rule="evenodd"><path fill="#DEDEDD" d="M181.007 90h-6.04v-6h6.04a3 3 0 0 1 0 6zm0-8h-65.61l-10.844 5 10.844 5h65.61a5 5 0 0 0 0-10z"/><path fill="#475059" d="M181.006 92h-33.999v-2h33.999a3 3 0 1 0 .001-6h-34v-2h34a5 5 0 0 1-.001 10"/><path fill="#475059" d="M172.967 91h2v-8h-2z"/><path fill="#475059" d="M147.007 88h26.96v-2h-26.96z"/><path fill="#FFD15D" d="M47.466 103.999H30.02V86.827l17.446 17.172zM19.02 76.134v38.865h53.979l-10.702-10.713-32.625-32.594L19.02 60.999v15.135z"/><path fill="#DEDEDD" d="M122.006 164.999h16v-20h-16v20zm-45.999 0h16v-20h-16v20zm-23 0h18v-20h-18v20zm-3.014-22.001v34.001h44.014v-32h26v32h21v-34.001H49.993z"/><path fill="#DEDEDD" d="M100.007 176.999h14v-26h-14z"/><path fill="#475059" d="M145.007 135.997h-2V18.999H47.993v116.998h-2V17h99.014v118.997"/><g transform="translate(33 139)"><mask id="feb" fill="#fff"><use xlink:href="#fea"/></mask><path fill="#475059" mask="url(#feb)" d="M112.007 41.999H12.993V.997h2v39.002h95.014V.997h2v41.002M2.993 52h122.015v-3.999H2.993V52zm-2 2h126.015v-7.999H.993V54z"/></g><path fill="#475059" d="M39.995 184.997h111.009v-3.998H39.995v3.998zm-2 2h115.009v-7.998H37.995v7.998zm41.998-61.998h8v-16.304a12.385 12.385 0 0 0-8 0v16.304zm10 2h-12v-19.677l.628-.251a14.388 14.388 0 0 1 10.743 0l.629.251v19.677z"/><path fill="#475059" d="M74.993 126.998h18v-2h-18zM103.007 124.999h8v-16.304a12.385 12.385 0 0 0-8 0v16.304zm10 2h-12v-19.677l.628-.251a14.388 14.388 0 0 1 10.743 0l.629.251v19.677z"/><path fill="#475059" d="M98.007 126.998h18v-2h-18zM126.021 124.999h8v-16.304a12.385 12.385 0 0 0-8 0v16.304zm10 2h-12v-19.677l.628-.251a14.388 14.388 0 0 1 10.743 0l.629.251v19.677z"/><path fill="#475059" d="M121.021 126.998h18v-2h-18zM44.993 138.997h101.014v-2H44.993v2zm-2 2h105.014v-6H42.993v6zm37 24.029h8v-16.304a12.385 12.385 0 0 0-8 0v16.304zm10 2h-12V147.35l.628-.252a14.388 14.388 0 0 1 10.743 0l.629.252v19.676z"/><path fill="#475059" d="M74.993 167.025h18v-2h-18zM126.021 165.026h8v-16.304a12.385 12.385 0 0 0-8 0v16.304zm10 2h-12V147.35l.628-.252a14.388 14.388 0 0 1 10.743 0l.629.252v19.676z"/><path fill="#475059" d="M121.021 167.025h18v-2h-18zM108.01 179.035h8v-30.009h-8v30.009zm-2 2h12v-34.009h-12v34.009z"/><path fill="#475059" d="M98.003 179.035h8v-30.009h-8v30.009zm-2 2h12v-34.009h-12v34.009z"/><path fill="#DEDEDD" d="M49.993 132.999h91.014v-4H49.993z"/><path fill="#475059" d="M79.993 96.982h8V80.678a12.385 12.385 0 0 0-8 0v16.304zm10 2h-12V79.305l.628-.251a14.388 14.388 0 0 1 10.743 0l.629.251v19.677z"/><path fill="#475059" d="M74.993 98.981h18v-2h-18zM103.007 96.982h8V80.678a12.385 12.385 0 0 0-8 0v16.304zm10 2h-12V79.305l.628-.251a14.388 14.388 0 0 1 10.743 0l.629.251v19.677z"/><path fill="#475059" d="M98.007 98.981h18v-2h-18zM126.021 96.982h8V80.678a12.385 12.385 0 0 0-8 0v16.304zm10 2h-12V79.305l.628-.251a14.388 14.388 0 0 1 10.743 0l.629.251v19.677z"/><path fill="#475059" d="M121.021 98.981h18v-2h-18z"/><path fill="#DEDEDD" d="M79.007 104.983h62v-4h-62z"/><path fill="#475059" d="M79.993 68.965h8V52.661a12.385 12.385 0 0 0-8 0v16.304zm10 2h-12V51.289l.628-.252a14.388 14.388 0 0 1 10.743 0l.629.252v19.676z"/><path fill="#475059" d="M74.993 70.964h18v-2h-18zM103.007 68.965h8V52.661a12.385 12.385 0 0 0-8 0v16.304zm10 2h-12V51.289l.628-.252a14.388 14.388 0 0 1 10.743 0l.629.252v19.676z"/><path fill="#475059" d="M98.007 70.964h18v-2h-18zM126.021 68.965h8V52.661a12.385 12.385 0 0 0-8 0v16.304zm10 2h-12V51.289l.628-.252a14.388 14.388 0 0 1 10.743 0l.629.252v19.676z"/><path fill="#475059" d="M121.021 70.964h18v-2h-18z"/><path fill="#DEDEDD" d="M49.993 76.966h91.014v-4H49.993z"/><path fill="#475059" d="M79.993 40.949h8V24.645a12.385 12.385 0 0 0-8 0v16.304zm10 2h-12V23.272l.628-.251a14.388 14.388 0 0 1 10.743 0l.629.251v19.677z"/><path fill="#475059" d="M74.993 42.947h18v-2h-18zM103.007 40.949h8V24.645a12.371 12.371 0 0 0-8 0v16.304zm10 2h-12V23.272l.628-.251a14.388 14.388 0 0 1 10.743 0l.629.251v19.677z"/><path fill="#475059" d="M98.007 42.947h18v-2h-18zM126.021 40.949h8V24.645a12.385 12.385 0 0 0-8 0v16.304zm10 2h-12V23.272l.628-.251a14.388 14.388 0 0 1 10.743 0l.629.251v19.677z"/><path fill="#475059" d="M121.021 42.947h18v-2h-18z"/><path fill="#DEDEDD" d="M49.993 48.949h91.014v-4H49.993z"/><path fill="#475059" d="M44.274 16.999h102.453l-3.503-14H47.776l-3.502 14zm105.014 2H41.712l4.503-18h98.571l4.502 18z"/><path fill="#F58E70" d="M46.836 14.999h97.328l-2.501-10H49.337l-2.501 10"/><path fill="#475059" d="M56.979 124.999h8v-16.304a12.385 12.385 0 0 0-8 0v16.304zm10 2h-12v-19.677l.628-.251a14.391 14.391 0 0 1 10.744 0l.628.251v19.677z"/><path fill="#475059" d="M51.979 126.998h18v-2h-18zM56.979 96.982h8V80.678a12.385 12.385 0 0 0-8 0v16.304zm10 2h-12V79.305l.628-.251a14.391 14.391 0 0 1 10.744 0l.628.251v19.677z"/><path fill="#475059" d="M51.979 98.981h18v-2h-18zM56.979 68.965h8V52.661a12.385 12.385 0 0 0-8 0v16.304zm10 2h-12V51.289l.628-.252a14.391 14.391 0 0 1 10.744 0l.628.252v19.676z"/><path fill="#475059" d="M51.979 70.964h18v-2h-18zM56.979 40.949h8V24.645a12.385 12.385 0 0 0-8 0v16.304zm10 2h-12V23.272l.628-.251a14.391 14.391 0 0 1 10.744 0l.628.251v19.677z"/><path fill="#475059" d="M51.979 42.947h18v-2h-18zM57.979 165.026h8v-16.304a12.385 12.385 0 0 0-8 0v16.304zm10 2h-12V147.35l.629-.252a14.388 14.388 0 0 1 10.743 0l.628.252v19.676z"/><path fill="#475059" d="M52.979 167.025h18v-2h-18zM169.024 153.012h3.579l1.773-4.023 3.296-1.903 4.371.476 1.79-3.099-2.598-3.548v-3.805l2.598-3.548-1.79-3.099-4.371.475-3.296-1.902-1.773-4.024h-3.579l-1.773 4.024-3.296 1.902-4.371-.475-1.789 3.099 2.597 3.548v3.804l-2.597 3.549 1.789 3.098 4.371-.475 3.296 1.903 1.773 4.023zm4.882 2h-6.185l-2.036-4.618-2.164-1.249-5.017.545-3.093-5.356 2.981-4.073v-2.498l-2.981-4.073 3.093-5.356 5.017.545 2.164-1.249 2.036-4.618h6.185l2.037 4.618 2.163 1.249 5.018-.545 3.092 5.356-2.981 4.073v2.498l2.981 4.073-3.092 5.356-5.018-.545-2.163 1.249-2.037 4.618z"/><path fill="#475059" d="M170.813 137.012a2 2 0 1 0 .001 4.001 2 2 0 0 0-.001-4.001zm0 6a4 4 0 1 1 0-8 4 4 0 0 1 0 8z"/><path fill="#475059" d="M170.813 133.012a6 6 0 1 0 6 6 6.006 6.006 0 0 0-6-6zm0 14a8 8 0 1 1 8-8 8.009 8.009 0 0 1-8 8z"/><path fill="#48515A" d="M184 48.999h2v-4h-2zM184 58.999h2v-4h-2zM188 52.999h4v-2h-4zM178 52.999h4v-2h-4zM6 132.999h2v-4H6zM6 142.999h2v-4H6zM10 136.999h4v-2h-4zM0 136.999h4v-2H0z"/><path fill="#F58E70" d="M156 40.999a2 2 0 1 1 0 4 2 2 0 0 1 0-4m-142 44a2 2 0 1 1 0 4 2 2 0 0 1 0-4"/><path fill="#5FE0ED" d="M26 153.029a4 4 0 1 1 0 8 4 4 0 0 1 0-8"/></g></svg>