<?xml version="1.0" encoding="utf-8"?><svg xmlns="http://www.w3.org/2000/svg" width="250" height="250" viewBox="0 0 250 250"><g fill="none" fill-rule="evenodd"><path fill="#DFE0E0" d="M126.969 212.267h25.007v-5.997h-25.007zM126.969 218.266h29.995v-5.998h-29.995zM136.979 202.268a2 2 0 0 1-2-2v-7h-8.01v12h16.01v-3h-6M126.387 193.031V64.512l5.166.005v128.52l-5.166-.006"/><path fill="#DFE0E0" d="M118.972 70.091h11.997v-5.165h-11.997zM139.977 56.186v2.999h-2.998a2 2 0 0 0-2 2v2.998h-20.015v-2.998a2 2 0 0 0-2-2h-2.998v-2.999h30.011"/><path fill="#FFD15D" d="M50.163 43.018a3 3 0 1 1-6 0 3 3 0 0 1 6 0"/><path fill="#FFD15D" d="M47.163 41.018c-1.103 0-2 .897-2 2 0 1.102.897 2 2 2s2-.898 2-2c0-1.103-.897-2-2-2zm0 6c-2.206 0-4-1.794-4-4 0-2.207 1.794-4 4-4s4 1.793 4 4c0 2.206-1.794 4-4 4z"/><path fill="#475059" d="M47.163 37.018c-3.309 0-6 2.691-6 6 0 3.308 2.691 6 6 6s6-2.692 6-6c0-3.309-2.691-6-6-6zm0 14c-4.411 0-8-3.589-8-8 0-4.412 3.589-8 8-8s8 3.588 8 8c0 4.411-3.589 8-8 8z"/><path fill="#FFD15D" d="M200.235 43.018a3 3 0 1 0 6 0 3 3 0 0 0-6 0"/><path fill="#FFD15D" d="M203.235 41.018c-1.103 0-2 .897-2 2 0 1.102.897 2 2 2 1.102 0 2-.898 2-2 0-1.103-.898-2-2-2zm0 6c-2.206 0-4-1.794-4-4 0-2.207 1.794-4 4-4s4 1.793 4 4c0 2.206-1.794 4-4 4z"/><path fill="#475059" d="M203.235 37.018c-3.309 0-6 2.691-6 6 0 3.308 2.691 6 6 6 3.308 0 6-2.692 6-6 0-3.309-2.692-6-6-6zm0 14c-4.411 0-8-3.589-8-8 0-4.412 3.589-8 8-8s8 3.588 8 8c0 4.411-3.589 8-8 8zM37.913 192.036h58.012v-4.003c0-4.072 3.059-7.443 6.999-7.936v-2.063H30.912v2.063c3.942.493 7.001 3.864 7.001 7.936v4.003zm60.012 2H35.913v-6.003a6.006 6.006 0 0 0-5.999-5.999h-1l-.002-6h76.012v6h-1a6.006 6.006 0 0 0-5.999 5.999v6.003zM101.006 169.039h-2v-.889L71.413 45.554l1.951-.44 27.642 122.814v1.111"/><path fill="#FFD15D" d="M39.913 190.037h54.012v-2.004a9.99 9.99 0 0 1 4.006-7.999H35.907a9.99 9.99 0 0 1 4.006 7.999v2.004"/><path fill="#475059" d="M43.995 196.039h46.012v-2H43.995v2zm-2 2h50.012v-6H41.995v6zM34.993 169.03h-2l.028-1.234 32.11-132.778h5.557l1.443 5.443-1.934.512-1.048-3.955h-2.443L34.993 168.15v.88M32.994 177.039h2v-6h-2zM99.09 177.039h2v-5.993h-2zM153.983 193.037h58.012v-4.003c0-4.072 3.058-7.443 6.999-7.936v-2.063h-72.012v2.063c3.941.493 7.001 3.864 7.001 7.936v4.003zm60.012 2h-62.012v-6.003a6.006 6.006 0 0 0-6-5.999h-1l-.001-6h76.012v6h-1a6.006 6.006 0 0 0-5.999 5.999v6.003zM217.076 170.039h-2v-.889L187.482 45.552l1.951-.436 27.643 123.814v1.109"/><path fill="#FFD15D" d="M155.983 191.038h54.012v-2.004a9.988 9.988 0 0 1 4.005-7.999h-62.024a9.99 9.99 0 0 1 4.007 7.999v2.004"/><path fill="#475059" d="M160.064 197.039h46.012v-2h-46.012v2zm-2 2h50.012v-6h-50.012v6zM151.062 170.031h-2l.027-1.232L181.2 35.018h5.557l1.444 5.443-1.934.512-1.049-3.955h-2.442L151.062 169.15v.881M149.064 178.039h2v-6h-2zM215.16 178.039h2v-5.992h-2z"/><path fill="#DFE0E0" d="M73.574 92.567l1.771 3.186a10.615 10.615 0 0 1 1.323 5.705l-1.344 27.555.001.001H57.992l.003-.002.67-18.904a29.477 29.477 0 0 1 5.354-15.879l1.313-1.765.001-.013h8.227l.014.116"/><path fill="#475059" d="M71.183 139.918h-4.785v-.698a2.71 2.71 0 0 1-.653.081h-1.568v-4.827c0-1.303.436-2.589 1.228-3.623l.827-1.309.59-13.195-1.051-12.538 1.994-.168 1.061 12.667-.619 13.856-1.165 1.831c-.575.759-.865 1.613-.865 2.479v2.663a.65.65 0 0 0 .221-.489v-.179h1.999v1.449h2.751c.465.028.857-.158 1.169-.462.311-.303.485-.71.491-1.144l.016-1.353c0-1.526-.237-3.066-.705-4.565l1.909-.596a17.32 17.32 0 0 1 .796 5.174l-.016 1.365a3.608 3.608 0 0 1-1.095 2.552 3.6 3.6 0 0 1-2.53 1.029"/><path fill="#475059" d="M73.748 130.764h-4.424v-2H72.9l1.517-1.571 1.438 1.391-2.107 2.18"/><path fill="#48515A" d="M66.354 177.103l-1.142-16.652-3.336-19.545-1.646-2.731 1.713-1.033 1.842 3.055 3.419 20.068 1.145 16.701-1.995.137"/><path fill="#48515A" d="M75.274 177.101l-1.963-35.043 1.763-3.581v-6.581l-.756-2.773.007-.158 1.344-27.556a9.605 9.605 0 0 0-1.198-5.171l-1.866-3.355-.774-6.348-.073-1.666.316-.311a5.895 5.895 0 0 0 1.749-4.176 5.868 5.868 0 0 0-5.861-5.862H66.66a5.392 5.392 0 0 0-5.39 5.39v8.401l5.312.259-.271 4.253-1.49 2.002a28.399 28.399 0 0 0-5.156 15.321l-.636 17.915 4.342.204-.094 1.998-6.317-.298.706-19.892a30.407 30.407 0 0 1 5.535-16.42l1.152-1.549.104-1.635-5.187-.254V79.91a7.389 7.389 0 0 1 7.39-7.39h1.302c4.335 0 7.861 3.527 7.861 7.862a7.914 7.914 0 0 1-2.03 5.271l.03.719.72 5.88 1.676 3.015a11.605 11.605 0 0 1 1.448 6.243l-1.336 27.394.743 2.859v7.178l-1.737 3.529 1.934 34.519-1.997.112"/><path fill="#48515A" d="M60.794 177.197l-2.958-19.26-.841-28.895 1.999-.059.839 28.833 2.938 19.077-1.977.304"/><path fill="#DFE0E0" d="M191.31 159.02h-9.75v-7.5h10.5l-.75 7.5M187.905 132.868l-2.782.543-1.724-4.977 4.467-1.588.933 3.525-1.051.805.157 1.692zm2.28-24.747l2.906-4.115-7.031-7.986-4.5 1.289h-.578a3.112 3.112 0 0 0-3.094 2.781l-4.203 51.43h25.5l-9-43.399z"/><path fill="#475059" d="M190.086 178.137l-1.99-.196 2.682-27.42h7.179l-8.839-42.622 2.693-3.814-5.553-6.104-1.573-1.944v-5.603h1c1.93 0 3.5-1.571 3.5-3.5v-2.589c0-3.584-2.916-6.5-6.5-6.5-3.549 0-6.125 2.597-6.125 6.176v19.5h-2v-19.5c0-4.738 3.417-8.176 8.125-8.176 4.687 0 8.5 3.813 8.5 8.5v2.589a5.51 5.51 0 0 1-4.5 5.409v2.987l1.091 1.351 6.596 7.246-3.12 4.416 9.162 44.178h-7.822l-2.506 25.616"/><path fill="#475059" d="M180.5 178.052l-.303-25.531H172.6l4.291-52.512a4.11 4.11 0 0 1 8.203.411v12.112l4.555 14.741-7.611 2.706-3.399-11 1.91-.59 2.784 9.007 3.839-1.365-4.078-13.347V100.42a2.114 2.114 0 0 0-2.112-2.111 2.109 2.109 0 0 0-2.1 1.887l-4.112 50.325h7.403l.327 27.507-2 .024"/><path fill="#475059" d="M178.468 178.109l-1.996-.138 1.899-27.45h13.314v2h-11.447l-1.77 25.588M184.461 134.559l-2.007-5.798 1.89-.655 1.44 4.158 1.042-.204-.125-1.341.962-.737-.763-2.88 1.933-.512 1.103 4.17-1.142.875.19 2.042-4.523.882M54.194 42.014l-.031-2 55.585-.861.031 2-55.585.861M196.202 42.014l-56.199-1.001.036-2 56.198 1.001-.035 2M109.748 46.875l-55.585-.861.031-2 55.585.861-.031 2M140.039 46.98l-.036-2 56.199-.966.035 2-56.198.966M117.964 193.311h2V63.954h-2zM129.964 193.311h2V63.953h-2z"/><path fill="#48515A" d="M38.984 63.225h2v-4h-2zM38.984 73.225h2v-4h-2zM42.555 67.225h3.429v-2h-3.429zM33.984 67.225h3.428v-2h-3.428zM214.088 116.256h2v-4h-2zM214.088 126.256h2v-4h-2zM217.66 120.256h3.428v-2h-3.428zM209.088 120.256h3.429v-2h-3.429z"/><path fill="#FFD15D" d="M215.089 86.407a2.144 2.144 0 1 1-4.287-.001 2.144 2.144 0 0 1 4.287.001m-113.197 19.299a1.98 1.98 0 1 1-3.96.002 1.98 1.98 0 0 1 3.96-.002m-64.364 2.513a2.515 2.515 0 1 0 5.03-.001 2.515 2.515 0 0 0-5.03.001m108.454 87.78a2.04 2.04 0 1 1 4.08 0 2.04 2.04 0 0 1-4.08 0m-3.871-63.565a.977.977 0 1 1-1.955 0 .977.977 0 0 1 1.955 0"/><path fill="#475059" d="M111.031 50.296l11.813.002a3.17 3.17 0 0 1 2.174.864 3.164 3.164 0 0 1 2.173-.862l11.816.003V32.739l-11.816-.002c-.648 0-1.174.527-1.174 1.174h-2c0-.648-.526-1.176-1.173-1.176l-11.813-.003v17.564zm14.986 3.178h-2c0-.648-.527-1.175-1.174-1.176l-13.812-.002V30.732l13.813.003c.841 0 1.606.329 2.174.865a3.16 3.16 0 0 1 2.173-.863l13.816.002v21.564l-13.816-.003c-.648 0-1.174.526-1.174 1.174z"/><path fill="#475059" d="M124.017 55.475h2V32.908h-2z"/><path fill="#475059" d="M141.01 56.474h-32v-5.178h2v3.178h28v-3.171h2v5.171M114.01 38.474h6v-2h-6zM114.01 42.474h6v-2h-6zM114.01 46.474h6v-2h-6zM130.01 38.474h6v-2h-6zM130.01 42.474h6v-2h-6zM130.01 46.474h6v-2h-6zM87.964 217.268h74v-4h-74v4zm-2 2h78v-8h-78v8z"/><path fill="#475059" d="M93.964 211.269h62v-3.999h-62v3.999zm-2 2h66v-7.999h-66v7.999zm52.015-8.001h-2v-1.999h-5c-1.654 0-3-1.346-3-3v-6.001h-18.015v6.001c0 1.654-1.345 3-3 3h-5v1.999h-2v-3.999h7c.552 0 1-.449 1-1v-8.001h22.015v8.001c0 .551.448 1 1 1h7v3.999m-8-140.085h-22.015v-3.998a1 1 0 0 0-1-1h-3.998v-3.999h2v1.999h1.998c1.655 0 3 1.345 3 3v1.998h18.015v-1.998c0-1.655 1.346-3 3-3h1.998v-1.999h2v3.999h-3.998a1 1 0 0 0-1 1v3.998"/></g></svg>