<?xml version="1.0" encoding="utf-8"?><svg xmlns="http://www.w3.org/2000/svg" width="250" height="250" viewBox="0 0 250 250"><g fill="none" fill-rule="evenodd"><path fill="#DBDBD5" d="M170.568 178.858l-15.565-6.67-2.673 1.604 8.232 8.232-2.829 2.828-8.11-8.111-1.625 3.267 6.797 16.46 4.834-9.721 7.08 7.081 2.923-2.734-7.296-7.296 8.232-4.94M146.82 72.346a8 8 0 0 1-8-8 8 8 0 1 1 16 0 8 8 0 0 1-8 8m10.705-15.933a22.17 22.17 0 0 0-16.294-7.166h-31.6c-10.02 0-19.007 6.318-21.854 15.366a22.506 22.506 0 0 0-.918 4.439l44.764 44.764a23.094 23.094 0 0 1 4.129-5.724l20.552-20.552c4.036-4.037 6.503-9.085 6.946-14.215.543-6.289-1.49-12.295-5.725-16.912"/><path fill="#FACD60" d="M115.281 106.68c4.321 4.38 6.714 9.982 7.184 15.716a2.122 2.122 0 0 0 2.116 1.95 2.121 2.121 0 0 0 2.116-1.951c.47-5.732 2.861-11.331 7.178-15.707l.141-.142 20.42-20.42c2.578-2.579 4.438-5.599 5.478-8.767-21.674 13.829-49.636 13.49-70.998-1.02a20.038 20.038 0 0 0 5.254 9.229l21.111 21.112m24.705 91.073c5.57 0 10.779-2.134 14.594-5.65l-29.846-29.846-30.062 30.062c3.707 3.46 8.615 5.434 13.714 5.434h31.6"/><path fill="#434A4F" d="M109.177 47.246c-10.884 0-20.655 6.895-23.762 16.766-2.724 8.661-.454 18.004 5.926 24.384l21.109 21.109c8.152 8.265 8.152 21.725-.009 29.998l-.121.122-20.421 20.421c-4.369 4.37-7.041 9.859-7.525 15.456-.591 6.854 1.627 13.402 6.246 18.437a24.169 24.169 0 0 0 17.766 7.814h31.6c10.885 0 20.656-6.894 23.762-16.765 2.725-8.66.455-18.004-5.926-24.385l-21.095-21.095c-8.165-8.278-8.165-21.738-.005-30.011l.122-.123 20.42-20.42c4.369-4.369 7.041-9.858 7.526-15.457.591-6.854-1.626-13.401-6.246-18.436a24.172 24.172 0 0 0-17.767-7.815h-31.6m30.809 156.507h-31.6a26.177 26.177 0 0 1-19.241-8.462c-5.002-5.453-7.403-12.542-6.763-19.961.523-6.066 3.401-11.996 8.103-16.698l20.421-20.421.823.59-.712-.702c7.272-7.372 7.272-19.826 0-27.198l-.111-.113L89.927 89.81c-6.909-6.909-9.369-17.024-6.42-26.398 3.366-10.696 13.922-18.166 25.67-18.166h31.6a26.18 26.18 0 0 1 19.242 8.463c5.002 5.453 7.403 12.542 6.763 19.96-.525 6.068-3.403 11.998-8.104 16.699l-20.532 20.534c-7.27 7.371-7.27 19.825 0 27.197l21.09 21.09c6.91 6.91 9.37 17.026 6.42 26.399-3.365 10.695-13.921 18.165-25.67 18.165"/><path fill="#434A4F" d="M64.011 203.753a2.194 2.194 0 0 0-2.191 2.192v.206c0 1.209.983 2.192 2.191 2.192h121.141a2.194 2.194 0 0 0 2.191-2.192v-.206a2.194 2.194 0 0 0-2.191-2.192H64.011zm121.141 6.59H64.011a4.196 4.196 0 0 1-4.191-4.192v-.206a4.197 4.197 0 0 1 4.191-4.192h121.141a4.197 4.197 0 0 1 4.191 4.192v.206a4.196 4.196 0 0 1-4.191 4.192zM63.615 41.657c-.99 0-1.795.805-1.795 1.795 0 .989.805 1.794 1.795 1.794h121.934a1.796 1.796 0 0 0 0-3.589H63.615zm121.934 5.589H63.615a3.799 3.799 0 0 1-3.795-3.794 3.8 3.8 0 0 1 3.795-3.795h121.934a3.8 3.8 0 0 1 3.794 3.795 3.798 3.798 0 0 1-3.794 3.794zm-60.351 41.246c-12.665 0-25.319-3.648-36.276-10.922a1 1 0 1 1 1.106-1.666c20.771 13.79 47.838 14.138 68.957.884a1 1 0 1 1 1.062 1.695c-10.641 6.679-22.751 10.009-34.849 10.009m29.624 104.852a.996.996 0 0 1-.707-.292l-29.381-29.381-29.295 29.295a1 1 0 0 1-1.414-1.414l30.709-30.709 30.795 30.794a1.002 1.002 0 0 1-.707 1.707m-30.242-41.76c-.13 0-.26-.02-.38-.07a1.19 1.19 0 0 1-.33-.22.991.991 0 0 1-.21-1.09c.05-.12.12-.23.21-.32.38-.38 1.04-.38 1.421 0 .089.09.159.2.209.32.06.119.08.25.08.38 0 .27-.11.53-.289.71a.994.994 0 0 1-.711.29m0-11.59c-.26 0-.52-.11-.71-.3a.988.988 0 0 1-.21-.32.995.995 0 0 1-.08-.38c0-.13.03-.26.08-.39.05-.12.12-.23.21-.32.1-.09.21-.16.33-.22.37-.15.81-.06 1.091.22.089.09.159.2.209.32.06.13.08.26.08.39s-.02.26-.08.38c-.05.12-.12.23-.209.32-.191.19-.451.3-.711.3"/><path fill="#E1C9AF" d="M129.848 112.041l-.001-.001a25.072 25.072 0 0 1 .001.001m3.821-5.143l.012-.012-.012.012m.048-.049a.1.1 0 0 0 .01-.011l-.01.011m.029-.03l.007-.008-.007.008m.024-.024l.006-.007-.006.007m.052-.054l.005-.005-.005.005m.024-.024l.005-.006-.005.006"/><path fill="#F5BF5E" d="M129.847 112.04l-27.725-27.724a65.74 65.74 0 0 0 23.076 4.176 65.519 65.519 0 0 0 34.129-9.564c-1.092 2.593-2.742 5.049-4.891 7.198l-20.42 20.42-.141.142-.024.023-.005.006-.019.019-.005.005-.023.024-.023.023-.006.007-.017.016-.007.008-.019.019a.1.1 0 0 1-.01.011l-.014.015a.057.057 0 0 0-.011.011l-.011.011-.012.012-.005.006a25.072 25.072 0 0 0-3.817 5.136"/><path fill="#726453" d="M125.198 88.492a65.74 65.74 0 0 1-23.076-4.176l-1.826-1.827a64.62 64.62 0 0 0 24.91 4.987 64.472 64.472 0 0 0 34.708-10.117 20.5 20.5 0 0 1-.587 1.569 65.519 65.519 0 0 1-34.129 9.564"/><path fill="#434A4F" d="M71.62 202.35h-2v-69.412c-3.451-1.315-5.8-4.669-5.8-8.407 0-3.736 2.349-7.09 5.8-8.406V46.529h2V117.6l-.726.207a7.025 7.025 0 0 0-5.074 6.724 7.027 7.027 0 0 0 5.074 6.726l.726.207v70.886m4 0h-2v-70.825l.775-.179a6.961 6.961 0 0 0 5.425-6.815 6.96 6.96 0 0 0-5.425-6.814l-.775-.179V46.529h2v69.454a8.945 8.945 0 0 1 6.2 8.548 8.948 8.948 0 0 1-6.2 8.55v69.269"/><path fill="#434A4F" d="M72.82 117.531c-3.86 0-7 3.141-7 7 0 3.86 3.14 7 7 7 3.859 0 7-3.14 7-7 0-3.859-3.141-7-7-7zm0 16c-4.963 0-9-4.037-9-9 0-4.962 4.037-9 9-9s9 4.038 9 9c0 4.963-4.037 9-9 9zm102.862 68.819h-2v-69.412c-3.45-1.315-5.8-4.669-5.8-8.407 0-3.737 2.35-7.091 5.8-8.406V46.529h2V117.6l-.725.207a7.025 7.025 0 0 0-5.075 6.724 7.026 7.026 0 0 0 5.075 6.726l.725.207v70.886m4 0h-2v-70.825l.776-.179a6.96 6.96 0 0 0 5.424-6.815 6.96 6.96 0 0 0-5.424-6.814l-.776-.179V46.529h2v69.454a8.944 8.944 0 0 1 6.2 8.548 8.947 8.947 0 0 1-6.2 8.55v69.269"/><path fill="#434A4F" d="M176.882 117.531c-3.859 0-7 3.141-7 7 0 3.86 3.141 7 7 7 3.86 0 7-3.14 7-7 0-3.859-3.14-7-7-7zm0 16c-4.963 0-9-4.037-9-9 0-4.962 4.037-9 9-9s9 4.038 9 9c0 4.963-4.037 9-9 9zM213.053 129.439h2v-4h-2zM213.053 139.439h2v-4h-2zM217.053 133.439h4v-2h-4zM207.053 133.439h4v-2h-4zM52.958 179.469h2v-4h-2zM52.958 189.469h2v-4h-2zM56.957 183.469h4v-2h-4zM46.957 183.469h4v-2h-4zM34.947 89.415h2v-4h-2zM34.947 99.415h2v-4h-2zM38.947 93.415h4v-2h-4zM28.947 93.415h4v-2h-4zM134.422 158.738l10.452 25.309 4.472-8.996 8.388 8.387 1.414-1.414-8.431-8.431 7.654-4.592-23.949-10.263zm10.284 30.14l-14.004-33.911 32.051 13.736-8.811 5.287 8.034 8.034-4.242 4.242-7.835-7.834-5.193 10.446zm50.154 7.4l2.454.796.466-1.436c.526-1.622 1.969-2.67 3.674-2.67h.001c1.704 0 3.145 1.046 3.672 2.667l.467 1.437 2.454-.799-.466-1.435a3.805 3.805 0 0 1 1.401-4.32c1.38-1.002 3.162-1.003 4.542-.001l1.222.887 1.515-2.088-1.222-.888a3.806 3.806 0 0 1-1.405-4.318 3.808 3.808 0 0 1 3.674-2.67h1.51l-.001-2.581-1.511.001h-.001c-1.704 0-3.145-1.047-3.673-2.668a3.806 3.806 0 0 1 1.403-4.319l1.22-.888-1.472-2.026-1.222.888c-1.378 1.003-3.16 1.004-4.54.002s-1.932-2.696-1.405-4.318l.466-1.437-2.455-.796-.465 1.437a3.808 3.808 0 0 1-3.674 2.671h-.001a3.805 3.805 0 0 1-3.673-2.668l-.468-1.436-2.454.798.468 1.436c.527 1.621-.023 3.317-1.402 4.319a3.804 3.804 0 0 1-4.541.002l-1.222-.887-1.516 2.088 1.223.888c1.379 1.001 1.93 2.696 1.404 4.317-.525 1.622-1.968 2.67-3.672 2.671l-1.51.001.001 2.58 1.51-.001h.001c1.705 0 3.147 1.047 3.674 2.668.527 1.621-.023 3.317-1.402 4.319l-1.222.888 1.472 2.023 1.221-.887c1.379-1.002 3.162-1.003 4.541-.001 1.38 1.001 1.931 2.696 1.405 4.317l-.466 1.437zm3.739 3.316l-6.259-2.031 1.083-3.339c.309-.949-.147-1.698-.676-2.082-.529-.385-1.384-.587-2.191 0l-2.839 2.064-3.823-5.258 2.839-2.064c.807-.587.878-1.461.676-2.083-.202-.622-.774-1.287-1.772-1.287h-.001l-3.51.002-.001-6.58 3.509-.002c.997 0 1.569-.665 1.771-1.288.202-.622.13-1.496-.678-2.082l-2.84-2.062 3.865-5.325 2.841 2.062c.809.586 1.66.384 2.191-.001.528-.385.984-1.134.674-2.083l-1.084-3.338 6.256-2.036 1.087 3.338c.309.949 1.116 1.287 1.771 1.287h.001c.654 0 1.463-.339 1.771-1.289l1.083-3.338 6.259 2.03-1.083 3.339c-.309.949.148 1.698.678 2.083.53.384 1.384.585 2.189-.001l2.839-2.065 3.826 5.261-2.84 2.064c-.806.587-.878 1.461-.675 2.083.202.622.773 1.287 1.77 1.287h.001l3.511-.002.001 6.581-3.51.001c-.998 0-1.569.665-1.771 1.288-.203.622-.13 1.496.677 2.082l2.84 2.062-3.865 5.326-2.841-2.063c-.807-.586-1.661-.384-2.189.001-.53.385-.985 1.134-.676 2.083l1.086 3.337-6.259 2.036-1.086-3.338c-.308-.949-1.117-1.286-1.771-1.286-.655 0-1.463.338-1.772 1.287l-1.083 3.339z"/><path fill="#E9886C" d="M201.475 178.44a1.736 1.736 0 0 0-1.418.722 1.747 1.747 0 0 0 2.829 2.049c.274-.378.384-.839.31-1.3a1.728 1.728 0 0 0-.7-1.138v-.001a1.734 1.734 0 0 0-1.021-.332zm-.011 5.494a3.713 3.713 0 0 1-2.19-.714 3.717 3.717 0 0 1-1.502-2.442 3.727 3.727 0 0 1 .666-2.789 3.714 3.714 0 0 1 2.442-1.501 3.713 3.713 0 0 1 2.789.665 3.719 3.719 0 0 1 1.502 2.442 3.724 3.724 0 0 1-.666 2.79 3.722 3.722 0 0 1-2.442 1.501c-.2.032-.4.048-.599.048z"/><path fill="#434A4F" d="M199.26 169.774a1.002 1.002 0 1 1 1.11.88h-.11c-.5 0-.94-.37-1-.88zm4.63 1.12a.996.996 0 1 1 .5-1.93c.54.13.86.68.72 1.21-.12.46-.52.75-.97.75l-.25-.03zm-8.24.38c-.25-.49-.07-1.1.42-1.36v.01a1 1 0 1 1 .93 1.77c-.15.07-.3.11-.459.11-.361 0-.711-.19-.891-.53zm11.45 1.14l-.02-.01v-.01a.994.994 0 0 1-.23-1.39c.32-.45.95-.55 1.4-.23l.02.02h.01c.44.33.54.95.22 1.4a1 1 0 0 1-.81.41c-.21 0-.41-.06-.59-.19zm-14.27 1.56a.99.99 0 0 1-.1-1.41c.36-.42.99-.46 1.41-.1.42.359.46 1 .1 1.41-.199.23-.48.35-.76.35-.23 0-.46-.08-.65-.25zm16.7 1a1.001 1.001 0 0 1 1.68-1.09c.3.46.17 1.08-.3 1.38-.16.11-.35.16-.54.16-.329 0-.65-.16-.84-.45zm-18.37 2.54a.998.998 0 0 1-.6-1.28h.01c.18-.52.76-.79 1.27-.6.52.189.79.76.6 1.28a.989.989 0 0 1-.94.659c-.11 0-.23-.019-.34-.059zm19.71.72a.988.988 0 0 1 .77-1.18.988.988 0 0 1 1.18.769c.12.541-.23 1.071-.77 1.191l-.21.02c-.46 0-.88-.33-.97-.8zm-21 2.2c-.01-.55.43-1.01.98-1.02.55-.01 1.01.43 1.02.98a.995.995 0 0 1-.97 1.02h-.03c-.54 0-.99-.43-1-.98zm21.89 2.47a.999.999 0 0 1 .33-1.97c.54.09.91.61.82 1.15-.08.489-.5.84-.98.84l-.17-.02zm-21.01 1.7a.985.985 0 0 1 .541-1.3.992.992 0 0 1 1.299.54c.22.51-.03 1.1-.54 1.31-.12.05-.25.07-.38.07-.39 0-.76-.23-.92-.62zm19.33 1.84c-.47-.29-.63-.9-.35-1.371a.987.987 0 0 1 1.37-.349c.48.28.64.89.35 1.37-.18.31-.52.49-.86.49-.17 0-.35-.05-.51-.14zm-17.01 1.74a.996.996 0 1 1 1.44-1.38c.39.4.37 1.03-.03 1.41a.964.964 0 0 1-.689.28c-.261 0-.531-.11-.721-.31zm14.17.95c-.34-.43-.26-1.061.17-1.41.44-.34 1.06-.26 1.41.17a1 1 0 0 1-.17 1.4c-.18.15-.4.22-.62.22-.29 0-.59-.13-.79-.38zm-10.72 1.54a1 1 0 0 1-.479-1.33.991.991 0 0 1 1.329-.47.997.997 0 1 1-.42 1.9c-.15 0-.29-.03-.43-.1zm7.1-.06c-.16-.53.14-1.09.671-1.25a.998.998 0 0 1 1.25.66c.159.53-.141 1.09-.671 1.25-.09.03-.19.04-.29.04-.43 0-.82-.27-.96-.7zm-2.98 1.14c-.55-.04-.96-.51-.93-1.07a1.003 1.003 0 0 1 2 .139c-.04.531-.48.931-1 .931h-.07zm-49.82-74.408a1.001 1.001 0 0 0 0 2 1 1 0 0 0 0-2zm0 4c-1.654 0-3-1.345-3-3 0-1.654 1.346-3 3-3s3 1.346 3 3c0 1.655-1.346 3-3 3z"/><path fill="#FACD60" d="M168.82 147.346a3 3 0 1 1-6 0 3 3 0 0 1 6 0m30-32a1 1 0 1 1 2 0 1 1 0 0 1-2 0m-150 35a2 2 0 1 1-4 0 2 2 0 0 1 4 0m16-61a3 3 0 1 1-6 0 3 3 0 0 1 6 0"/><path fill="#42494E" d="M48.21 103.346c-1.655 0-3 1.346-3 3 0 1.655 1.345 3 3 3h65.775l6.506-3-6.506-3H48.21zm0 8c-2.757 0-5-2.243-5-5 0-2.756 2.243-5 5-5h66.214l10.842 5-10.842 5H48.21z"/><path fill="#42494E" d="M53.82 110.346h2v-7.598h-2z"/><path fill="#42494E" d="M54.82 107.318h58.616v-2H54.82z"/></g></svg>