<?xml version="1.0" encoding="utf-8"?><svg xmlns="http://www.w3.org/2000/svg" width="192" height="158" viewBox="0 0 192 158"><g fill="none" fill-rule="evenodd"><path fill="#48515A" d="M183.106 91.997h2v-4h-2zM183.106 101.997h2v-4h-2zM187.106 95.997h4v-2h-4zM177.106 95.997h4v-2h-4z"/><path fill="#F58E70" d="M183.108 141.997a2 2 0 1 1 .001 3.999 2 2 0 0 1-.001-3.999"/><path fill="#475059" d="M46.1 150.997h37.009v-2H46.1zM120.092 150.997h8.998v-2h-8.998z"/><path fill="#DEDEDD" d="M36.097 145a2 2 0 1 0 .001 4.001 2 2 0 0 0-.001-4.001zm0 10a8 8 0 1 1 0-16 8 8 0 0 1 8 8 8.009 8.009 0 0 1-8 8z"/><path fill="#475059" d="M36.097 138a9 9 0 1 0 9 9 9.011 9.011 0 0 0-9-9zm0 20c-6.075 0-11-4.924-11-11 0-6.075 4.925-11 11-11s11 4.925 11 11c-.007 6.073-4.928 10.994-11 11zm59.009-30.003c-7.732 0-14 6.269-14 14 0 7.732 6.268 14 14 14s14-6.268 14-14c-.008-7.728-6.271-13.991-14-14zm0 30c-8.836 0-16-7.163-16-16 0-8.836 7.164-16 16-16 8.837 0 16 7.164 16 16-.01 8.833-7.167 15.99-16 16z"/><path fill="#DEDEDD" d="M105.113 115.423L90.277 41.236H36.329l-9.414 9.434.116 54.326-2 .003-.118-55.154 10.586-10.609h56.419l.16.804 14.996 74.99-1.961.393"/><path fill="#475059" d="M27.072 150.997H13.11v-41.188l5.582-5.582h42.821l17.514 17.774 20.1.156.167-7.931H116.1v2h-14.847l-.167 7.946-22.903-.178-17.508-17.767H19.52l-4.41 4.411v38.359h11.962v2"/><path fill="#475059" d="M129.106 148.997h3.986v-52h-3.986v52zm29.981 2h-31.981v-56h7.986v54h23.995v2zm-41.981-2h6v-146h-6v146zm-2 2h10v-150h-10v150zm-20-13a4 4 0 1 0 0 8 4 4 0 0 0 0-8zm0 10a6 6 0 1 1 0-12 6 6 0 0 1 0 12zM36.097 143a4 4 0 1 0 0 8 4 4 0 0 0 0-8zm0 10a6 6 0 1 1 0-12 6 6 0 0 1 0 12zm12-74.003h7.588l3.414-3.414v-2.586H48.097v6zm8.416 2H46.097v-10h15.002v5.414l-4.586 4.586z"/><path fill="#475059" d="M48.096 105.497h-2v-26.5h10.416l4.586 4.586v21.578h-2v-20.75l-3.414-3.414h-7.588v24.5M74.323 100.12l1.414 1.415 9.9-9.9-1.414-1.414-9.9 9.899zm1.414 4.243l-4.242-4.243 12.728-12.727 4.242 4.242-12.728 12.728z"/><path fill="#475059" d="M81.394 98.707l3.792 3.793 1.415-1.414-3.793-3.794-1.414 1.415zm3.792 6.621l-6.621-6.621 4.243-4.243 6.621 6.622-4.243 4.242z"/><path fill="#475059" d="M84.102 121.997h10V99.999h-3.586l-6.414 6.414v15.584zm12 2h-14v-18.412l7.585-7.586h6.415v25.998z"/><path fill="#475059" d="M102.08 115.553L87.819 44.236H37.574l-7.655 7.672.115 54.081-8 .017-.123-57.4 12.344-12.37h60.122l15.789 78.795-1.954.432-.331-1.499-15.143-75.728H35.086L23.913 49.432l.117 54.57 4-.009-.113-52.91 8.827-8.847h52.715l14.582 72.924-1.961.393"/><path fill="#DEDEDD" d="M95.106 134.497a7.5 7.5 0 1 0 7.5 7.5 7.51 7.51 0 0 0-7.5-7.5zm0 20c-6.904 0-12.5-5.596-12.5-12.499 0-6.904 5.596-12.501 12.5-12.501s12.5 5.597 12.5 12.5c-.008 6.901-5.6 12.493-12.5 12.5z"/><path fill="#FFD15D" d="M113.106 140.747v-22.521h-9.896l-.16 7.644a18.02 18.02 0 0 1 10.011 14.877h.045"/><path fill="#DEDEDD" d="M119.106 146.997h2v-142h-2z"/><path fill="#475059" d="M41.106 138.997h2v-34h-2z"/><path fill="#FFD15D" d="M39.106 108.227H20.349l-3.238 3.239v35.531h5.986c-.024-7.153 5.755-12.972 12.908-12.997 1.045-.003 2.086.12 3.101.366v-26.139m47.66 17.834l-9.427-.073-17.5-17.761H45.106v29.422a12.955 12.955 0 0 1 3.991 9.348h28.73a17.921 17.921 0 0 1 8.939-20.936"/><path fill="#475059" d="M139.106 144.997h36v-36h-36v36zm-2 2h40v-40h-40v40z"/><path fill="#F58E70" d="M141.106 142.997h32v-32h-32z"/><path fill="#475059" d="M156.105 145.997h2v-38h-2z"/><path fill="#48515A" d="M6 91.939h2v-4H6zM6 101.939h2v-4H6zM10 95.939h4v-2h-4zM0 95.939h4v-2H0z"/><path fill="#F58E70" d="M51.108 57.997a2 2 0 1 1 .001 3.999 2 2 0 0 1-.001-3.999"/><path fill="#475059" d="M155.109 90.997h3.578l1.773-4.023 3.296-1.903 4.371.475 1.789-3.098-2.597-3.549v-3.804l2.597-3.549-1.789-3.098-4.371.475-3.296-1.903-1.773-4.023h-3.578l-1.774 4.023-3.296 1.903-4.371-.475-1.789 3.098 2.597 3.549v3.804l-2.597 3.549 1.789 3.098 4.371-.475 3.296 1.903 1.774 4.023zm4.882 2h-6.186l-2.036-4.618-2.164-1.249-5.017.545-3.094-5.356 2.982-4.073v-2.498l-2.982-4.073 3.094-5.356 5.017.545 2.164-1.249 2.036-4.618h6.186l2.035 4.618 2.163 1.249 5.018-.545 3.094 5.356-2.982 4.073v2.498l2.982 4.073-3.094 5.356-5.018-.545-2.163 1.249-2.035 4.618z"/><path fill="#475059" d="M156.897 74.997a2 2 0 1 0 0 4 2 2 0 0 0 0-4zm0 6a4 4 0 1 1 0-8 4 4 0 0 1 0 8z"/><path fill="#475059" d="M156.897 70.997a6 6 0 1 0 6 6 6.006 6.006 0 0 0-6-6zm0 14a8 8 0 1 1 8-8 8.009 8.009 0 0 1-8 8z"/></g></svg>