<?xml version="1.0" encoding="utf-8"?><svg xmlns="http://www.w3.org/2000/svg" xmlns:xlink="http://www.w3.org/1999/xlink" width="192" height="175" viewBox="0 0 192 175"><defs><path id="sua" d="M.877 0h152.246v61.94H.877z"/></defs><g fill="none" fill-rule="evenodd"><g transform="translate(20 113)"><mask id="sub" fill="#fff"><use xlink:href="#sua"/></mask><path fill="#DFE0E0" mask="url(#sub)" d="M150.958 10L152 1H2l1.042 9h147.916"/><path fill="#475059" d="M3.123 2l3.656 31.579C8.047 48.462 20.458 59.922 35.396 60h83.208c14.926-.074 27.333-11.516 28.613-26.387L150.877 2H3.123zm115.481 60H35.396C19.43 61.921 6.159 49.681 4.79 33.774L.877 0h152.246l-3.916 33.809C147.825 49.703 134.558 61.925 118.604 62z" mask="url(#sub)"/></g><path fill="#475059" d="M19 113h156v-2H19v2zm-2 2h160v-6H17v6zm86.998-84.001h28v-4h-28v4zm-2 2h32v-8h-32v8z"/><path fill="#475059" d="M150.998 109h2V20.999c0-9.941-8.059-18-18-18-9.942 0-18 8.059-18 18v4h2v-4c0-8.837 7.163-16 16-16 8.836 0 16 7.163 16 16V109zm4 2h-6V20.999c0-7.732-6.268-14-14-14s-14 6.268-14 14v6h-6v-6c0-11.046 8.954-20 20-20 11.045 0 20 8.954 20 20V111z"/><path fill="#475059" d="M141.001 109H145v-5.999h-3.999V109zm-2 2H147v-9.999h-7.999V111zm20.011-2h3.999v-5.999h-3.999V109zm-2 2h7.999v-9.999h-7.999V111z"/><path fill="#5FE0ED" d="M106 35a2 2 0 0 1 2 2v34a2 2 0 1 1-4 0V37a2 2 0 0 1 2-2m6 22a2 2 0 0 1 2 2v34a2 2 0 1 1-4 0V59a2 2 0 0 1 2-2m6-22a2 2 0 0 1 2 2v34a2 2 0 1 1-4 0V37a2 2 0 0 1 2-2m6 28a2 2 0 0 1 2 2v34a2 2 0 1 1-4 0V65a2 2 0 0 1 2-2m6-12a2 2 0 0 1 2 2v34a2 2 0 1 1-4 0V53a2 2 0 0 1 2-2m-2-4a2 2 0 1 0 4 0V35h-4v12m-6 12a2 2 0 1 0 4 0V35h-4v24m-12-6a2 2 0 1 0 4 0V35h-4v18m22 40a2 2 0 1 0-4 0v14h4V93m-6 12a2 2 0 1 0-4 0v2h4v-2m-6-28a2 2 0 1 0-4 0v30h4V77m-6 30v-8a2 2 0 1 0-4 0v8h4m-6 0V77a2 2 0 1 0-4 0v30h4"/><path fill="#48515A" d="M6 139h2v-4H6zM6 149h2v-4H6zM10 143h4v-2h-4zM0 143h4v-2H0zM172 79h2v-4h-2zM172 89h2v-4h-2zM176 83h4v-2h-4zM166 83h4v-2h-4zM184 151h2v-4h-2zM184 161h2v-4h-2zM188 155h4v-2h-4zM178 155h4v-2h-4z"/><path fill="#FFD15D" d="M49.5 87a1.5 1.5 0 1 1-.001 3.001A1.5 1.5 0 0 1 49.5 87"/><path fill="#FFD15D" d="M49.5 87.5a1 1 0 1 0 0 2 1 1 0 0 0 0-2zm0 3a2 2 0 1 1 .001-4.001A2 2 0 0 1 49.5 90.5z"/><path fill="#5FE0ED" d="M95.5 98a1.5 1.5 0 1 1-.001 3.001A1.5 1.5 0 0 1 95.5 98m-7 4a1.5 1.5 0 1 1-.001 3.001A1.5 1.5 0 0 1 88.5 102m-7-11a1.5 1.5 0 1 1-.001 3.001A1.5 1.5 0 0 1 81.5 91m58-2a1.5 1.5 0 1 1-.001 3.001A1.5 1.5 0 0 1 139.5 89m30 8a1.5 1.5 0 1 1-.001 3.001A1.5 1.5 0 0 1 169.5 97"/><path fill="#F58E70" d="M69.5 65a1.5 1.5 0 1 1-.001 3.001A1.5 1.5 0 0 1 69.5 65"/><path fill="#5FE0ED" d="M60.5 131a1.5 1.5 0 1 1-.001 3.001A1.5 1.5 0 0 1 60.5 131"/></g></svg>