<?xml version="1.0" encoding="utf-8"?><svg xmlns="http://www.w3.org/2000/svg" width="250" height="250" viewBox="0 0 250 250"><g fill="none" fill-rule="evenodd"><path fill="#5FE0ED" d="M220.095 185.661a2 2 0 1 1-4 0 2 2 0 0 1 4 0m-95.761-74.908c-11.294 0-20.482 9.189-20.482 20.483s9.188 20.482 20.482 20.482c11.294 0 20.483-9.188 20.483-20.482 0-11.294-9.189-20.483-20.483-20.483"/><path fill="#5FE0ED" d="M124.334 151.718c-11.294 0-20.482-9.188-20.482-20.482 0-11.294 9.188-20.483 20.482-20.483 11.294 0 20.483 9.189 20.483 20.483s-9.189 20.482-20.483 20.482"/><path fill="#FFD15D" d="M199.99 139l-75-32-76 32 .03 76h151l-.03-76"/><path fill="#DFE0E0" d="M176 131.643h16.066a12.925 12.925 0 0 1-2.05-7v-21.976c0-3.86-3.14-7-7-7-3.887 0-7.027 3.14-7.027 7l.011 28.976"/><path fill="#475059" d="M124.993 172.091l-74.4-32.173.794-1.836 73.6 31.827 72.602-31.825.803 1.832-73.399 32.175"/><path fill="#475059" d="M192.376 212.132a.997.997 0 0 1-.553-.167l-63.155-42a1 1 0 0 1 1.107-1.666l63.156 42a1 1 0 0 1-.555 1.833m-136.069.296a1 1 0 0 1-.549-1.837l64.232-42.076a1.001 1.001 0 0 1 1.096 1.673l-64.232 42.077a1 1 0 0 1-.547.163"/><path fill="#FFF" d="M109 201h28"/><path fill="#48515A" d="M108 201c0-.55.45-1 1-1s1 .45 1 1-.45 1-1 1-1-.45-1-1zm4 0c0-.55.45-1 1-1s1 .45 1 1-.45 1-1 1-1-.45-1-1zm4 0c0-.55.45-1 1-1s1 .45 1 1-.45 1-1 1-1-.45-1-1zm4 0c0-.55.45-1 1-1s1 .45 1 1-.45 1-1 1-1-.45-1-1zm4 0c0-.55.45-1 1-1s1 .45 1 1-.45 1-1 1-1-.45-1-1zm4 0c0-.55.45-1 1-1s1 .45 1 1-.45 1-1 1-1-.45-1-1zm4 0c0-.55.45-1 1-1s1 .45 1 1-.45 1-1 1-1-.45-1-1zm4 0c0-.55.45-1 1-1s1 .45 1 1-.45 1-1 1-1-.45-1-1z"/><path fill="#475059" d="M173.989 149.642h-2v-46.975c0-6.065 4.934-11 11-11 6.093 0 11.027 4.935 11.027 11v21.976c0 4.962 4.037 9 9 9s9-4.038 9-9v-32h2v32c0 6.065-4.934 11-11 11-6.065 0-11-4.935-11-11v-21.976c0-4.963-4.037-9-9-9-4.99 0-9.027 4.037-9.027 9v46.975"/><path fill="#475059" d="M75.989 148.91h-2v-46.267c0-6.066 4.934-11 11-11h98.027v2h-98c-4.99 0-9.027 4.037-9.027 9v46.267"/><path fill="#475059" d="M214.012 124.91h-2V37.357h-72.643l-23.367 19.738v35.548h-2V56.167l24.634-20.81h75.376v89.553"/><path fill="#475059" d="M140.002 57.631h-25v-2h23V36.357h2v21.274"/><path fill="#475059" d="M117.002 55.856h-2v-19.5h22.5v2h-20.5v17.5M151.016 59.643h26v-2h-26z"/><path fill="#FFD15D" d="M123.202 53.631h12.8V42.818l-12.8 10.813"/><path fill="#475059" d="M137.016 65.643h54v-2h-54zM131.016 71.643h66v-2h-66zM137.016 77.643h54v-2h-54zM131.016 83.643h66v-2h-66zM124.993 172.091L48.47 139l26.474-11.448.794 1.836L53.509 139l71.478 30.909L195.499 139l-7.123-3.122.803-1.832L200.481 139l-75.488 33.091"/><path fill="#475059" d="M173.016 135.643h30v-2h-30zM124.334 108.753c-12.397 0-22.482 10.086-22.482 22.482 0 12.397 10.085 22.483 22.482 22.483 12.397 0 22.483-10.086 22.483-22.483 0-12.396-10.086-22.482-22.483-22.482zm0 46.965c-13.5 0-24.482-10.983-24.482-24.483s10.982-24.482 24.482-24.482c13.499 0 24.483 10.982 24.483 24.482s-10.984 24.483-24.483 24.483z"/><path fill="#475059" d="M124.332 108.753c-6.312 0-11.644 10.296-11.644 22.482 0 12.187 5.332 22.483 11.644 22.483s11.644-10.296 11.644-22.483c0-12.186-5.332-22.482-11.644-22.482zm0 46.965c-7.651 0-13.644-10.754-13.644-24.483 0-13.728 5.993-24.482 13.644-24.482s13.644 10.754 13.644 24.482c0 13.729-5.993 24.483-13.644 24.483z"/><path fill="#475059" d="M100.852 132.235h46.965v-2h-46.965z"/><path fill="#48515A" d="M49.909 70.215h42.26V44.733h-42.26v25.482zm-2 1.999h46.26V42.732h-46.26v29.482z"/><path fill="#48515A" d="M71.039 58.75c-.187 0-.374-.052-.538-.156L54.378 48.319l1.075-1.687 15.584 9.932 14.949-9.591 1.08 1.683-15.487 9.936a1.007 1.007 0 0 1-.54.158M89.01 68.286L80.086 57.58l1.537-1.281 8.923 10.706-1.536 1.281M53.068 68.286l-1.536-1.281 8.923-10.706 1.536 1.281-8.923 10.706M71.889 87.145h2V74.11h-2zM72.885 92.492a.99.99 0 0 1-.699-.3.995.995 0 0 1-.301-.7 1.015 1.015 0 0 1 1.39-.93c.121.06.23.13.32.22.191.191.29.441.29.71 0 .13-.02.26-.07.38a.984.984 0 0 1-.22.32c-.09.1-.199.17-.32.22-.12.05-.25.08-.39.08M80.581 78.448h2V74.11h-2zM81.585 83.792c-.14 0-.27-.02-.39-.069a.987.987 0 0 1-.319-.221.99.99 0 0 1-.291-.71c0-.13.02-.26.07-.38a1.03 1.03 0 0 1 .221-.319c.37-.381 1.039-.381 1.41 0 .19.179.299.439.299.699 0 .27-.109.52-.299.71a1.018 1.018 0 0 1-.321.221c-.12.049-.25.069-.38.069M63.192 81.347h2V74.11h-2zM64.195 86.692c-.139 0-.27-.03-.389-.07a1.18 1.18 0 0 1-.321-.22.99.99 0 0 1-.29-.71c0-.129.02-.259.071-.38.049-.12.13-.23.219-.33a1 1 0 0 1 1.09-.21c.12.05.231.121.321.21.189.191.299.451.299.71 0 .26-.11.51-.299.71a.98.98 0 0 1-.701.29"/><path fill="#475059" d="M49.274 176.666l35.38.022 5.466-3.481-5.851-3.534-49.486-.03h-.003c-.937 0-1.817.364-2.479 1.025a3.478 3.478 0 0 0-1.027 2.478 3.52 3.52 0 0 0 3.513 3.511l14.487.009zm35.962 2.022l-50.451-.031a5.523 5.523 0 0 1-5.511-5.511 5.464 5.464 0 0 1 1.614-3.894 5.473 5.473 0 0 1 3.892-1.609h.005l50.042.03 9.087 5.489-8.678 5.526z"/><path fill="#475059" d="M40.55 177.663l-.002-9.014h2l.002 9.014h-2M83.945 177.428h2v-8.486h-2z"/><path fill="#475059" d="M41.617 174.185H84.46v-2H41.617z"/><path fill="#F58E70" d="M47.992 95.607a2 2 0 1 1-4.001-.001 2 2 0 0 1 4.001.001m150.09-41.025a2 2 0 1 1-4.001-.001 2 2 0 0 1 4.001.001"/><path fill="#48515A" d="M213.053 197.663h2v-4h-2zM213.053 207.663h2v-4h-2zM217.053 201.663h4v-2h-4zM207.053 201.663h4v-2h-4zM34.947 117.615h2v-4h-2zM34.947 127.615h2v-4h-2zM38.947 121.615h4v-2h-4zM28.947 121.615h4v-2h-4z"/></g></svg>