<?xml version="1.0" encoding="utf-8"?><svg xmlns="http://www.w3.org/2000/svg" width="250" height="250" viewBox="0 0 250 250"><g fill="none" fill-rule="evenodd"><path fill="#DBDBD5" d="M113.04 130.498a8 8 0 0 1 8-8c1.8 0 3.456.602 4.793 1.606l33.519-19.352-5-8.661-81.396 46.994 5 8.661 35.146-20.292a8.15 8.15 0 0 1-.062-.956"/><path fill="#75C7D0" d="M178.684 60.259l16.866 29.213a25.41 25.41 0 0 0-2.909-17.796 25.41 25.41 0 0 0-13.957-11.417"/><path fill="#DBDBD5" d="M67.76 146.085l-25.981 15-2-3.464 25.981-15 2 3.464M73.956 144.817l-5.196 3 2 3.465 5.196-3-2-3.465M189.25 80.561l-32.898 18.994 5 8.661 32.898-18.994-5-8.661"/><path fill="#42494E" d="M39.646 155.39l4 6.928 24.248-14-4-6.928-24.248 14zm3.267 9.66l-6-10.392 27.714-16 6 10.392-27.714 16z"/><path fill="#42494E" d="M62.626 135.194l10 17.32 3.464-2-10-17.32-3.464 2zm9.268 20.052l-12-20.785 6.928-4 12 20.785-6.928 4z"/><path fill="#42494E" d="M79.09 155.71l-16-27.713 83.128-47.994 16 27.713-33.668 19.439-1-1.733 31.936-18.438-14-24.248-79.664 45.994 14 24.248 34.024-19.644 1 1.733L79.09 155.71"/><path fill="#42494E" d="M145.218 78.272l18 31.177 31.167-17.995-18-31.176-31.167 17.994zm17.268 33.909l-20-34.642 34.631-19.994 20 34.642-34.631 19.994zm-41.446 11.317c-3.86 0-7 3.141-7 7 0 3.86 3.14 7 7 7s7-3.14 7-7c0-3.859-3.14-7-7-7zm0 16c-4.962 0-9-4.037-9-9s4.038-9 9-9 9 4.037 9 9-4.038 9-9 9z"/><path fill="#42494E" d="M121.04 123.498c-3.86 0-7 3.141-7 7 0 3.86 3.14 7 7 7s7-3.14 7-7c0-3.859-3.14-7-7-7zm0 16c-4.962 0-9-4.037-9-9s4.038-9 9-9 9 4.037 9 9-4.038 9-9 9zM118.04 194.498h2v-4h-2zM122.04 194.498h2v-4h-2zM94.656 195.094l-1.606-1.191 2.968-4 1.606 1.191-2.968 4M147.424 195.094l-2.968-4 1.607-1.191 2.967 4-1.606 1.191M119.04 154.837h4v-2h-4z"/><path fill="#42494E" d="M98.808 189.498h19.232v-20h-4.394l-14.838 20zm21.232 2H94.834l17.806-24h7.4v24zm4-2h19.232l-14.839-20h-4.393v20zm23.207 2H122.04v-24h7.4l17.807 24zm22.793 30h-6v-3.554l-5.22-7.492-11.096-14.954H124.04v26h-6v-26H94.356l-11.113 14.979-5.203 7.467v3.554h-6v-5.991l.197-.265 45.803-61.735v-15.004h2v15.664l-.197.266-45.803 61.734v3.331h2v-2.183l5.58-8.005 11.73-15.812h26.69v26h2v-26h26.69l11.713 15.787 5.597 8.03v2.183h2v-3.331l-46-62v-15.664h2v15.004l46 62v5.991z"/><path fill="#42494E" d="M108.04 169.498h26v-2h-26z"/><path fill="#DBDBD5" d="M195.04 49.498a3 3 0 1 1-6 0 3 3 0 0 1 6 0"/><path fill="#E9886C" d="M212.039 58.498a4 4 0 1 1-8 0 4 4 0 0 1 8 0"/><path fill="#42494E" d="M125.04 30.5a2.99 2.99 0 0 0-2.122.877 3.005 3.005 0 0 0 0 4.243c1.134 1.132 3.109 1.134 4.243 0a3.003 3.003 0 0 0 0-4.243 2.99 2.99 0 0 0-2.121-.877zm0 7.999a4.97 4.97 0 0 1-3.536-1.464 5.008 5.008 0 0 1 0-7.072 5.007 5.007 0 0 1 7.071 0 5.006 5.006 0 0 1 0 7.072 4.967 4.967 0 0 1-3.535 1.464zm55 86.999c-6.617 0-12 5.383-12 12 0 6.618 5.383 12 12 12s12-5.382 12-12c0-6.617-5.383-12-12-12zm0 26c-7.72 0-14-6.28-14-14 0-7.719 6.28-14 14-14s14 6.281 14 14c0 7.72-6.28 14-14 14z"/><path fill="#42494E" d="M180.04 141.498c-6.717 0-13.037-.314-17.797-.885-7.569-.909-8.203-2.084-8.203-3.115 0-.913 0-2.613 12.927-3.56l.147 1.994c-6.166.452-9.266 1.112-10.529 1.575 2.468.927 10.9 1.991 23.455 1.991 12.555 0 20.987-1.064 23.455-1.991-1.263-.463-4.363-1.123-10.529-1.575l.147-1.994c12.927.947 12.927 2.647 12.927 3.56 0 1.031-.634 2.206-8.203 3.115-4.76.571-11.08.885-17.797.885m-97-42a1.001 1.001 0 1 0 1 1c0-.551-.449-1-1-1zm0 4c-1.654 0-3-1.345-3-3 0-1.654 1.346-3 3-3s3 1.346 3 3c0 1.655-1.346 3-3 3z"/><path fill="#E9886C" d="M91.04 67.498a3 3 0 1 1-6 0 3 3 0 0 1 6 0m56-19.999a2 2 0 1 1-3.999.001 2 2 0 0 1 3.999-.001"/><path fill="#434A4F" d="M205.087 120.529h2v-4h-2zM205.087 130.529h2v-4h-2zM209.087 124.529h4v-2h-4zM199.087 124.529h4v-2h-4z"/><path fill="#FACD60" d="M195.061 108.486a1 1 0 1 1-2 0 1 1 0 0 1 2 0"/><path fill="#434A4F" d="M183.074 180.565h2v-4h-2zM183.074 190.565h2v-4h-2zM187.074 184.565h4v-2h-4zM177.074 184.565h4v-2h-4zM56.998 71.499h2v-4h-2zM56.998 81.499h2v-4h-2zM60.998 75.499h4v-2h-4zM50.998 75.499h4v-2h-4z"/></g></svg>