<?xml version="1.0" encoding="utf-8"?><svg xmlns="http://www.w3.org/2000/svg" width="250" height="250" viewBox="0 0 250 250"><g fill="none" fill-rule="evenodd"><path fill="#FFD15D" d="M174.002 172.725h7.995v-20.989h-7.995zM200.128 135.727h-16v36.998h5.003v-23.998h11.001l-.004-13"/><path fill="#FFD15D" d="M192.133 172.725h16v-19.988h-16z"/><path fill="#48515A" d="M193.133 172.725h-2v-21.989h17v2h-15v19.989"/><path fill="#475059" d="M102.604 48.901l23.4 29.84 23.401-29.84h-46.801zm23.4 33.081L98.493 46.901h55.022l-27.511 35.081zm-85.109 52.794h38v-4.003c0-4.072 3.059-7.443 6.999-7.937v-2.062h-52v2.062c3.941.494 7.001 3.865 7.001 7.937v4.003zm40 2h-42v-6.003a6.006 6.006 0 0 0-6-5.999h-1l-.001-6h56v6h-1a6.006 6.006 0 0 0-5.999 5.999v6.003zM83.976 111.779h-2v-.874L66.65 51.149l1.938-.497 15.388 60.001v1.126"/><path fill="#DEDEDD" d="M42.895 132.777h34v-2.004a9.988 9.988 0 0 1 4.005-7.999H38.888a9.99 9.99 0 0 1 4.007 7.999v2.004"/><path fill="#475059" d="M46.976 138.779h26v-2h-26v2zm-2 2h30v-6h-30v6zM37.974 111.771h-2l.037-1.271 22.125-78.71h5.528l1.442 5.443-1.933.513-1.048-3.956h-2.473l-21.678 77.119v.862M35.976 119.779h2v-6h-2zM82.06 119.779h2v-4.046h-2zM170.973 186.808h38v-4.003c0-4.073 3.058-7.444 6.999-7.938v-2.062h-52v2.062c3.942.494 7.001 3.865 7.001 7.938v4.003zm40 2h-42v-6.003c0-3.308-2.692-6-6-6h-.999l-.003-6h56.001v6h-1a6.006 6.006 0 0 0-5.999 6v6.003zM214.054 163.81h-2v-.873l-14.994-58.465 1.937-.497 15.057 58.71v1.125"/><path fill="#DEDEDD" d="M172.973 184.808h34v-2.004a9.987 9.987 0 0 1 4.006-7.999h-42.013a9.99 9.99 0 0 1 4.007 7.999v2.004"/><path fill="#475059" d="M177.054 190.81h26v-2h-26v2zm-2 2h30v-6h-30v6zM168.052 163.802h-2l.037-1.27 22.125-78.711h5.527l1.919 7.238-1.933.513-1.525-5.751h-2.472l-21.678 77.119v.862M166.054 171.81h2v-6h-2zM212.138 171.81h2v-5.993h-2z"/><path fill="#DEDEDD" d="M109.006 216.898h33.996V88.904h-33.996z"/><path fill="#475059" d="M99.007 218.899h53.995v-4h-8v-10h8v-4h-8v-95.994h8v-4h-8v-10h8v-4H99.007v4h8v10h-8v4h8v95.994h-8v4h8v10h-8v4zm55.995 2H97.007v-8h8v-6h-8v-8h8v-91.994h-8v-8h8v-6h-8v-8h57.995v8h-8v6h8v8h-8v91.994h8v8h-8v6h8v8z"/><path fill="#475059" d="M99.007 90.905h53.995v-4H99.007v4zm-2 2h57.995v-8H97.007v8zm2 12h53.995v-4H99.007v4zm-2 2h57.995v-8H97.007v8zm2 97.994h53.995v-4H99.007v4zm-2 2h57.995v-8H97.007v8zm2 12h53.995v-4H99.007v4zm-2 2h57.995v-8H97.007v8zm25.997-27h6v-81.994h-6v81.994zm-2 2h10v-85.994h-10v85.994zm-14-2h6v-81.994h-6v81.994zm-2 2h10v-85.994h-10v85.994zm34-2h6v-81.994h-6v81.994zm-2 2h10v-85.994h-10v85.994z"/><path fill="#F58E70" d="M106.713 50.901l19.291 24.6 19.291-24.599-38.582-.001"/><path fill="#48515A" d="M196.004 204.912h2v-4h-2zM196.004 214.912h2v-4h-2zM200.004 208.912h4v-2h-4zM190.004 208.912h4v-2h-4zM184.004 56.899h2v-4h-2zM184.004 66.899h2v-4h-2zM188.004 60.899h4v-2h-4zM178.004 60.899h4v-2h-4z"/><path fill="#F58E70" d="M80.004 178.899a2 2 0 1 0 4 0 2 2 0 0 0-4 0"/><path fill="#475059" d="M203.954 99.337l-52.488-22.241-13.813-5.185.703-1.872 13.852 5.2 52.526 22.256-.78 1.842M202.491 103.06l-51.554-19.744-17.88-6.882.718-1.867 17.878 6.882 51.553 19.743-.715 1.868"/><path fill="#FFD15D" d="M207.319 101.776a3.001 3.001 0 0 0 5.565 2.244 3 3 0 0 0-5.565-2.244"/><path fill="#FFD15D" d="M208.246 102.15a2.003 2.003 0 0 0 1.108 2.603 2.003 2.003 0 0 0 2.603-1.107 2.003 2.003 0 0 0-1.108-2.603 2.002 2.002 0 0 0-2.603 1.107zm1.85 4.748a3.973 3.973 0 0 1-1.49-.29 4.006 4.006 0 0 1-2.215-5.205l.001-.001a4.003 4.003 0 0 1 5.205-2.214 4.005 4.005 0 0 1 2.214 5.206 4.006 4.006 0 0 1-3.715 2.504z"/><path fill="#475059" d="M210.101 96.895c-.797 0-1.593.161-2.348.482a5.956 5.956 0 0 0-3.216 3.278 5.963 5.963 0 0 0 .043 4.592 5.969 5.969 0 0 0 3.278 3.216 6.01 6.01 0 0 0 7.809-3.321 6.008 6.008 0 0 0-5.566-8.247zm-.009 14.003a7.957 7.957 0 0 1-2.982-.581 7.94 7.94 0 0 1-4.37-4.288 7.943 7.943 0 0 1-.058-6.122 7.946 7.946 0 0 1 4.288-4.37 7.95 7.95 0 0 1 6.123-.058 7.946 7.946 0 0 1 4.37 4.288 7.95 7.95 0 0 1 .058 6.123c-1.255 3.113-4.261 5.008-7.429 5.008zM104.041 58.035L53.818 38.804l.715-1.868 50.222 19.231-.714 1.868M109.63 66.662l-6.492-2.618L52.29 42.5l.78-1.841 50.832 21.537 6.477 2.611-.749 1.855"/><path fill="#FFD15D" d="M49.702 38.227a3 3 0 1 1-5.565-2.243 3 3 0 0 1 5.565 2.243"/><path fill="#FFD15D" d="M46.922 35.105c-.792 0-1.543.474-1.857 1.252a2.002 2.002 0 0 0 1.107 2.603 2.005 2.005 0 0 0 2.603-1.107c.2-.496.194-1.039-.015-1.53a1.983 1.983 0 0 0-1.092-1.072 1.985 1.985 0 0 0-.746-.146zm-.007 6a4.004 4.004 0 0 1-3.705-5.496 4.005 4.005 0 0 1 5.206-2.213 3.98 3.98 0 0 1 2.185 2.143c.418.984.428 2.071.028 3.062a4.005 4.005 0 0 1-3.714 2.504z"/><path fill="#475059" d="M46.919 31.102c-.797 0-1.593.161-2.348.482a5.963 5.963 0 0 0-3.216 3.278 6.007 6.007 0 0 0 3.321 7.808 6.01 6.01 0 0 0 7.809-3.321 6.01 6.01 0 0 0-5.566-8.247zm-.009 14.003a7.96 7.96 0 0 1-2.982-.58c-4.091-1.65-6.077-6.32-4.427-10.411a7.94 7.94 0 0 1 4.288-4.37 7.943 7.943 0 0 1 6.122-.058c4.091 1.649 6.078 6.32 4.429 10.411-1.256 3.114-4.262 5.008-7.43 5.008z"/><path fill="#5FE0ED" d="M164.553 102.971a2 2 0 1 1-3.71-1.498 2 2 0 0 1 3.71 1.498"/><path fill="#FFD15D" d="M208.004 62.899a2 2 0 1 1 4.001.001 2 2 0 0 1-4.001-.001m-142 136a2 2 0 1 1-3.999.001 2 2 0 0 1 3.999-.001"/><path fill="#475059" d="M86.458 115.899h-.002l-23.443-.005a6.018 6.018 0 0 1-6.008-6.011 5.975 5.975 0 0 1 1.761-4.249 5.966 5.966 0 0 1 4.246-1.759h.003l23.442.006a4.01 4.01 0 0 1 4.005 4.006 3.983 3.983 0 0 1-1.174 2.833 3.978 3.978 0 0 1-2.831 1.172h-.001l-24.444-.006v-2l24.444.006h.001c.535 0 1.039-.208 1.417-.587a1.99 1.99 0 0 0 .588-1.418c0-1.106-.9-2.006-2.006-2.006l-23.442-.006h-.001a3.98 3.98 0 0 0-2.833 1.174 3.98 3.98 0 0 0-1.174 2.834 4.015 4.015 0 0 0 4.008 4.011l23.443.005h.001a5.973 5.973 0 0 0 4.249-1.759 5.978 5.978 0 0 0 1.761-4.252 6.021 6.021 0 0 0-6.012-6.014l-24.443-.006v-2l24.444.005c4.417.001 8.011 3.597 8.011 8.015 0 2.14-.834 4.153-2.347 5.666a7.96 7.96 0 0 1-5.663 2.345"/><path fill="#48515A" d="M45.914 164.887h2v-4h-2zM45.914 174.887h2v-4h-2zM49.914 168.887h4v-2h-4zM39.914 168.887h4v-2h-4z"/></g></svg>