<?xml version="1.0" encoding="utf-8"?><svg xmlns="http://www.w3.org/2000/svg" width="250" height="250" viewBox="0 0 250 250"><g fill="none" fill-rule="evenodd"><path fill="#475059" d="M125 65.949c-32.533 0-59 26.467-59 59s26.467 59 59 59 59-26.467 59-59-26.467-59-59-59zm0 120c-33.636 0-61-27.364-61-61 0-33.636 27.364-61 61-61 33.636 0 61 27.364 61 61 0 33.636-27.364 61-61 61z"/><path fill="#FFF" d="M94.858 124.949h3.014v-3.014h-3.014zM170.445 155.092v-3.369a52.445 52.445 0 0 1-2.167 3.369h2.167"/><path fill="#5FE0ED" d="M152.811 144.957v-12.992h-8.519l-12.778-12.778v-17.038h29.315V82.606h-3.258l-6.514 6.515 3.257 3.257-3.257 3.257-3.257-3.257h-6.514l-6.515 6.514h-3.257V79.349H147.8v-3.257h-13.029l5.934-5.934a56.995 56.995 0 0 0-31.991.165v28.569l-13.028 9.772v13.028h22.8v45.6h-3.258l-22.8-22.8v-19.543h-9.771l-13.536-11.28A57.27 57.27 0 0 0 68 124.949c0 31.48 25.52 57 57 57 19.366 0 36.465-9.666 46.766-24.428h-6.391l-12.564-12.564m21.297-12.992v21.915a56.66 56.66 0 0 0 6.19-15.085l-6.19-6.83"/><path fill="#FFF" d="M92.428 124.949v-3.257h3.258v-13.028l13.028-9.772V70.323c-20.02 5.961-35.431 22.615-39.593 43.346l13.536 11.28h9.771M92.428 124.949v19.543l22.8 22.8h3.258v-45.6h-22.8v3.257h-3.258M180.298 138.795A57.13 57.13 0 0 0 182 124.949c0-26.03-17.456-47.969-41.295-54.791l-5.934 5.934H147.8v3.257h-16.286v19.543h3.257l6.515-6.514h6.514l3.257 3.257 3.257-3.257-3.257-3.257 6.514-6.515h3.258v19.543h-29.315v17.038l12.778 12.778h8.519v12.992l12.564 12.564h6.391a57.37 57.37 0 0 0 2.342-3.641v-21.915l6.19 6.83"/><path fill="#FFD15D" d="M125 59.264c-36.219 0-65.686 29.466-65.686 65.685 0 36.22 29.467 65.686 65.686 65.686 36.219 0 65.685-29.466 65.685-65.686 0-36.219-29.466-65.685-65.685-65.685zm0 143.428c-42.868 0-77.743-34.875-77.743-77.743 0-42.867 34.875-77.742 77.743-77.742 42.867 0 77.742 34.875 77.742 77.742 0 42.868-34.875 77.743-77.742 77.743z"/><path fill="#FFD15D" d="M125 59.764c-35.943 0-65.186 29.242-65.186 65.185 0 35.944 29.243 65.186 65.186 65.186 35.943 0 65.186-29.242 65.186-65.186 0-35.943-29.243-65.185-65.186-65.185zm0 131.371c-36.495 0-66.186-29.691-66.186-66.186 0-36.494 29.691-66.185 66.186-66.185 36.495 0 66.186 29.691 66.186 66.185 0 36.495-29.691 66.186-66.186 66.186zm0-143.428c-42.592 0-77.243 34.651-77.243 77.242 0 42.592 34.651 77.243 77.243 77.243 42.591 0 77.242-34.651 77.242-77.243 0-42.591-34.651-77.242-77.242-77.242zm0 155.485c-43.143 0-78.243-35.1-78.243-78.243 0-43.143 35.1-78.242 78.243-78.242 43.143 0 78.242 35.099 78.242 78.242 0 43.143-35.099 78.243-78.242 78.243z"/><path fill="#475059" d="M88.829 31c-4.435 0-8.043 3.608-8.043 8.042 0 4.436 3.608 8.043 8.043 8.043 4.435 0 8.043-3.607 8.043-8.043 0-4.434-3.608-8.042-8.043-8.042zm0 18.085c-5.538 0-10.043-4.505-10.043-10.043C78.786 33.505 83.291 29 88.829 29c5.538 0 10.043 4.505 10.043 10.042 0 5.538-4.505 10.043-10.043 10.043zm0 153.83c-4.435 0-8.043 3.607-8.043 8.043 0 4.434 3.608 8.042 8.043 8.042 4.435 0 8.043-3.608 8.043-8.042 0-4.436-3.608-8.043-8.043-8.043zm0 18.085c-5.538 0-10.043-4.505-10.043-10.042 0-5.538 4.505-10.043 10.043-10.043 5.538 0 10.043 4.505 10.043 10.043 0 5.537-4.505 10.042-10.043 10.042zM210.957 80.736c-4.435 0-8.042 3.608-8.042 8.042 0 4.435 3.607 8.043 8.042 8.043S219 93.213 219 88.778c0-4.434-3.608-8.042-8.043-8.042zm0 18.085c-5.538 0-10.042-4.505-10.042-10.043 0-5.537 4.504-10.042 10.042-10.042S221 83.241 221 88.778c0 5.538-4.505 10.043-10.043 10.043zM39.042 80.736c-4.434 0-8.042 3.608-8.042 8.042 0 4.435 3.608 8.043 8.042 8.043 4.436 0 8.043-3.608 8.043-8.043 0-4.434-3.607-8.042-8.043-8.042zm0 18.085C33.505 98.821 29 94.316 29 88.778c0-5.537 4.505-10.042 10.042-10.042 5.538 0 10.043 4.505 10.043 10.042 0 5.538-4.505 10.043-10.043 10.043z"/><path fill="#475059" d="M46.449 83.426l-1.414-1.414L82.036 45.01l1.414 1.414-37.001 37.002M38.094 152.08h2V97.821h-2zM82.087 204.94l-37.056-37.057 1.414-1.414 37.056 37.057-1.414 1.414M97.869 211.855h54.258v-2H97.869zM167.912 204.94l-1.414-1.414 37.053-37.053 1.414 1.414-37.053 37.053M209.906 152.079h2V98.323h-2zM203.555 83.43l-37.003-37.004 1.414-1.414 37.003 37.004-1.414 1.414M97.872 40.043h54.256v-2H97.872z"/><path fill="#475059" d="M210.957 153.078c-4.435 0-8.042 3.608-8.042 8.042 0 4.435 3.607 8.043 8.042 8.043S219 165.555 219 161.12c0-4.434-3.608-8.042-8.043-8.042zm0 18.085c-5.538 0-10.042-4.505-10.042-10.043 0-5.537 4.504-10.042 10.042-10.042S221 155.583 221 161.12c0 5.538-4.505 10.043-10.043 10.043zM39.042 153.078c-4.434 0-8.042 3.608-8.042 8.042 0 4.435 3.608 8.043 8.042 8.043 4.436 0 8.043-3.608 8.043-8.043 0-4.434-3.607-8.042-8.043-8.042zm0 18.085c-5.537 0-10.042-4.505-10.042-10.043 0-5.537 4.505-10.042 10.042-10.042 5.538 0 10.043 4.505 10.043 10.042 0 5.538-4.505 10.043-10.043 10.043zm122.129 31.752c-4.435 0-8.043 3.607-8.043 8.043 0 4.434 3.608 8.042 8.043 8.042 4.434 0 8.042-3.608 8.042-8.042 0-4.436-3.608-8.043-8.042-8.043zm0 18.085c-5.538 0-10.043-4.505-10.043-10.042 0-5.538 4.505-10.043 10.043-10.043 5.537 0 10.042 4.505 10.042 10.043 0 5.537-4.505 10.042-10.042 10.042zm0-190c-4.435 0-8.043 3.608-8.043 8.042 0 4.436 3.608 8.043 8.043 8.043 4.434 0 8.042-3.607 8.042-8.043 0-4.434-3.608-8.042-8.042-8.042zm0 18.085c-5.538 0-10.043-4.505-10.043-10.043 0-5.537 4.505-10.042 10.043-10.042 5.537 0 10.042 4.505 10.042 10.042 0 5.538-4.505 10.043-10.042 10.043z"/><path fill="#48515A" d="M44.91 185h2v-4h-2zM44.91 195h2v-4h-2zM48.91 189h4v-2h-4zM38.91 189h4v-2h-4zM195 195.006h2v-4h-2zM195 205.006h2v-4h-2zM199 199.006h4v-2h-4zM189 199.006h4v-2h-4zM197.988 50.97h2v-4h-2zM197.988 60.97h2v-4h-2zM201.988 54.97h4v-2h-4zM191.988 54.97h4v-2h-4z"/><path fill="#FFD15D" d="M55.91 49.502a1.5 1.5 0 1 1-3-.001 1.5 1.5 0 0 1 3 .001"/><path fill="#FFD15D" d="M54.41 48.502a1 1 0 1 0 0 2 1 1 0 0 0 0-2zm0 2.999c-1.103 0-2-.897-2-2 0-1.102.897-1.999 2-1.999s2 .897 2 1.999c0 1.103-.897 2-2 2zm5.512 151.505a2.006 2.006 0 1 1-4.013-.001 2.006 2.006 0 0 1 4.013.001"/><path fill="#FFD15D" d="M57.915 201.5a1.507 1.507 0 0 0 0 3.012 1.507 1.507 0 0 0 0-3.012zm0 4.012a2.508 2.508 0 0 1-2.505-2.506 2.508 2.508 0 0 1 2.505-2.506 2.509 2.509 0 0 1 2.506 2.506 2.509 2.509 0 0 1-2.506 2.506zM49.906 65.325a4.326 4.326 0 1 1-8.652 0 4.326 4.326 0 0 1 8.652 0"/><path fill="#FFD15D" d="M45.58 61.499a3.83 3.83 0 0 0-3.826 3.826 3.83 3.83 0 0 0 3.826 3.826 3.83 3.83 0 0 0 3.826-3.826 3.83 3.83 0 0 0-3.826-3.826zm0 8.652a4.832 4.832 0 0 1-4.826-4.826 4.832 4.832 0 0 1 4.826-4.826 4.832 4.832 0 0 1 4.826 4.826 4.832 4.832 0 0 1-4.826 4.826zm163.055 117.666a2.818 2.818 0 1 1-5.637 0 2.818 2.818 0 0 1 5.637 0"/><path fill="#FFD15D" d="M205.817 185.5a2.32 2.32 0 0 0-2.317 2.317 2.32 2.32 0 0 0 2.317 2.318 2.32 2.32 0 0 0 2.318-2.318 2.32 2.32 0 0 0-2.318-2.317zm0 5.635a3.322 3.322 0 0 1-3.317-3.318 3.32 3.32 0 0 1 3.317-3.317 3.322 3.322 0 0 1 3.318 3.317 3.322 3.322 0 0 1-3.318 3.318z"/></g></svg>