<?xml version="1.0" encoding="utf-8"?><svg xmlns="http://www.w3.org/2000/svg" width="250" height="250" viewBox="0 0 250 250"><g fill="none" fill-rule="evenodd"><path fill="#FFD15D" d="M70.969 82.525c9.941 0 18 8.059 18 18s-8.059 18-18 18-18-8.059-18-18 8.059-18 18-18m110.066-50.03c9.942 0 18 8.059 18 18s-8.058 18-18 18c-9.941 0-18-8.059-18-18s8.059-18 18-18"/><path fill="#48515A" d="M183.529 57.469h-5.558a3.204 3.204 0 0 1-3.191-3.208h2a1.201 1.201 0 0 0 1.191 1.208h5.558a1.518 1.518 0 0 0 1.508-1.524v-.95a1.51 1.51 0 0 0-1.508-1.509h-5.481a3.511 3.511 0 0 1-3.508-3.508v-.951a3.511 3.511 0 0 1 3.508-3.508h5.891a2.77 2.77 0 0 1 2.768 2.767h-2a.77.77 0 0 0-.768-.767h-5.891a1.51 1.51 0 0 0-1.508 1.508v.951a1.51 1.51 0 0 0 1.508 1.508h5.481a3.512 3.512 0 0 1 3.508 3.509v.95a3.52 3.52 0 0 1-3.508 3.524"/><path fill="#48515A" d="M180.069 59.495h2v-18h-2z"/><path fill="#5FE0ED" d="M65.768 43.421a4 4 0 1 1 0 8 4 4 0 0 1 0-8m106.205 117.644a4 4 0 1 1 0 8 4 4 0 0 1 0-8"/><path fill="#FFD15D" d="M100.501 180.005h48v3.417c0 8.054-6.529 14.583-14.582 14.583h-18.835c-8.054 0-14.583-6.529-14.583-14.583v-3.417"/><path fill="#FFD15D" d="M101.001 180.505v2.917c0 7.766 6.622 14.083 14.762 14.083h18c7.646.215 14.019-5.809 14.234-13.455.006-.209.008-.419.004-.628v-2.917h-47zm32.762 18h-18c-8.692 0-15.762-6.766-15.762-15.083v-3.917h49v3.917c.047 8.284-6.631 15.038-14.915 15.085-.108 0-.216 0-.323-.002z"/><path fill="#DEDEDD" d="M96.001 177.505h56v-8h-56z"/><path fill="#DEDEDD" d="M97.001 176.505h54v-6h-54v6zm-2 2h58v-10h-58v10z"/><path fill="#48515A" d="M92.001 170.505h64v-2h-64zM136.274 202.505h-21.295a18.88 18.88 0 0 1-13.129-5.371l-.003-.001-.213-.166a18.848 18.848 0 0 1-5.633-13.167v-6.295h2v6.295a16.824 16.824 0 0 0 4.928 11.633l.208.162a16.866 16.866 0 0 0 11.842 4.91h21.044c3.315-.85 7.058-2.106 9.862-4.91l.225-.226.119-.02a16.806 16.806 0 0 0 4.772-11.549v-6.295h2v6.295a18.848 18.848 0 0 1-5.578 13.188l-.226.225-.13.022c-3.146 3.02-7.151 4.344-10.672 5.239l-.121.031M92.001 174.505h64v-2h-64z"/><path fill="#48515A" d="M92.001 178.505h64v-2h-64zM198.845 142.392a4 4 0 1 0 0 8 4 4 0 0 0 0-8zm0 10a6 6 0 1 1 6-6 6.007 6.007 0 0 1-6 6zM213.007 78.504h2v-4h-2zM213.007 88.504h2v-4h-2zM217.007 82.504h4v-2h-4zM207.007 82.504h4v-2h-4zM34.993 137.517h2v-4h-2zM34.993 147.517h2v-4h-2zM38.993 141.517h4v-2h-4zM28.993 141.517h4v-2h-4zM38.763 76.415a2 2 0 1 0 0 4 2 2 0 0 0 0-4zm0 6a4 4 0 1 1 0-8 4 4 0 0 1 0 8zM154.001 207.505h2v-4h-2zM154.001 217.505h2v-4h-2zM158.001 211.505h4v-2h-4zM148.001 211.505h4v-2h-4zM121.001 209.505h2v-8h-2zM127.001 209.505h2v-8h-2zM122 213.51a1.018 1.018 0 0 1-.71-.3 1.042 1.042 0 0 1-.29-.7c.002-.134.029-.267.08-.39a.993.993 0 0 1 .21-.32 1.02 1.02 0 0 1 1.09-.22.837.837 0 0 1 .33.22c.09.092.161.2.21.32a.886.886 0 0 1 .08.39.846.846 0 0 1-.08.38c-.049.119-.12.228-.21.32a1.018 1.018 0 0 1-.71.3m6 0a1.006 1.006 0 0 1-.71-1.71 1.67 1.67 0 0 1 .149-.13l.181-.09c.06-.02.12-.04.189-.06.328-.057.663.047.901.28a1.006 1.006 0 0 1-.71 1.71m-6 4a1.006 1.006 0 0 1-.71-1.71 1.02 1.02 0 0 1 1.09-.22 1.001 1.001 0 0 1 0 1.85 1.01 1.01 0 0 1-.38.08m6 0a1.006 1.006 0 0 1-1-1.01 1.01 1.01 0 0 1 .08-.38.993.993 0 0 1 .21-.32 1.67 1.67 0 0 1 .149-.13l.181-.09c.06-.02.12-.04.19-.06.327-.057.662.047.9.28.09.092.161.2.21.32a.843.843 0 0 1 .08.38c0 .266-.104.52-.29.71a1 1 0 0 1-.71.3m-7.12-182.09a.995.995 0 0 1 .958-1.03h.002a.992.992 0 0 1 1.03.953v.017a.996.996 0 0 1-.96 1.03h-.04a.989.989 0 0 1-.99-.97zm4.97.97a.99.99 0 0 1-.96-1.03 1.003 1.003 0 0 1 1.03-.97v.01c.551.018.984.478.97 1.03-.022.536-.464.96-1 .96h-.04zm-8.97-.64a.992.992 0 0 1 .884-1.089l.016-.001a.99.99 0 0 1 1.089.881l.001.009c.05.55-.351 1.04-.9 1.1h-.1a.997.997 0 0 1-.99-.9zm12.91.91a.999.999 0 1 1 .198-1.99h.002a.992.992 0 0 1 .891 1.083l-.001.007a1 1 0 0 1-1 .9h-.09zm-16.88-.32a1.003 1.003 0 0 1 .829-1.15h.001a1.009 1.009 0 0 1 1.15.82.998.998 0 0 1-.822 1.148l-.008.002a.875.875 0 0 1-.161.02 1.007 1.007 0 0 1-.989-.84zm20.779.84a1.004 1.004 0 0 1-.819-1.15.996.996 0 0 1 1.144-.821l.006.001a.984.984 0 0 1 .824 1.122l-.004.028a.99.99 0 0 1-.981.83 1.085 1.085 0 0 1-.17-.01zm-24.699.02a1.015 1.015 0 0 1 .75-1.21 1.008 1.008 0 0 1 1.199.75.995.995 0 0 1-.735 1.199l-.004.001a1.004 1.004 0 0 1-1.21-.74zm28.57.76a1 1 0 0 1-.751-1.199l.001-.001a1 1 0 0 1 1.205-.741l.005.001a.995.995 0 0 1 .74 1.197v.003a1.003 1.003 0 0 1-.97.77.89.89 0 0 1-.23-.03zm-32.42.35a1.005 1.005 0 0 1 .66-1.25 1.005 1.005 0 0 1 .593 1.919l-.003.001a.92.92 0 0 1-.29.04c-.441 0-.831-.288-.96-.71zm36.219.7a1.006 1.006 0 0 1-.659-1.25.998.998 0 0 1 1.25-.66c.527.162.822.72.66 1.246l-.001.004a.993.993 0 0 1-.949.7 1.06 1.06 0 0 1-.301-.04zm-39.989.68a.997.997 0 0 1 .569-1.29 1.009 1.009 0 0 1 1.301.57 1.014 1.014 0 0 1-.58 1.3c-.116.039-.238.06-.36.06a.989.989 0 0 1-.93-.64zm43.71.61a1 1 0 0 1-.57-1.29.992.992 0 0 1 1.281-.573l.009.003c.515.197.774.774.58 1.29a1.014 1.014 0 0 1-.941.64.922.922 0 0 1-.359-.07zM97.7 41.32a.998.998 0 0 1 .481-1.326l.008-.004a.994.994 0 0 1 1.32.489l.001.001a.99.99 0 0 1-.474 1.317l-.006.003v.01a1.012 1.012 0 0 1-1.33-.49zm51.01.52a.996.996 0 0 1-.49-1.32 1 1 0 0 1 1.33-.49c.5.233.719.827.49 1.33a1.02 1.02 0 0 1-.91.58.903.903 0 0 1-.42-.1zm-54.561 1.35a1.001 1.001 0 0 1 .39-1.36h.001a.994.994 0 0 1 1.352.386l.007.014a.982.982 0 0 1-.377 1.338l-.022.012a.912.912 0 0 1-.48.13.997.997 0 0 1-.871-.52zm58.071.44a1.007 1.007 0 0 1-.401-1.36.998.998 0 0 1 1.352-.405l.009.005c.484.266.663.873.4 1.36a1.023 1.023 0 0 1-.88.52 1.044 1.044 0 0 1-.48-.12zm-61.491 1.66a1 1 0 0 1 1.681-1.081v.001a1.012 1.012 0 0 1-.301 1.39c-.163.097-.35.149-.54.15a.991.991 0 0 1-.84-.46zm64.88.35a.997.997 0 0 1-.314-1.373l.005-.007c.3-.466.919-.604 1.389-.31.463.299.597.915.301 1.38a.994.994 0 0 1-.85.46c-.188 0-.371-.052-.531-.15zM87.46 47.62a.994.994 0 0 1 .197-1.391l.013-.009a1.003 1.003 0 0 1 1.399.21 1.006 1.006 0 0 1-.219 1.4.972.972 0 0 1-.59.19.998.998 0 0 1-.8-.4zm71.39.25a1.012 1.012 0 0 1-.21-1.4 1.004 1.004 0 0 1 1.4-.21 1.006 1.006 0 0 1-.59 1.81 1.029 1.029 0 0 1-.6-.2zm-74.5 2.28a.993.993 0 0 1 .106-1.399l.014-.011a1.009 1.009 0 0 1 1.41.12 1.01 1.01 0 0 1-.12 1.41.986.986 0 0 1-1.41-.12zm77.6.17a1 1 0 0 1-.121-1.409l.001-.001a1 1 0 0 1 1.409-.121l.001.001c.418.358.471.986.119 1.41a1.013 1.013 0 0 1-.769.35.95.95 0 0 1-.64-.23zm-80.53 2.57a.988.988 0 0 1 .019-1.41.987.987 0 0 1 1.411.02 1 1 0 0 1-.012 1.413l-.008.007a.99.99 0 0 1-1.41-.03zm83.45.07a.988.988 0 0 1-.035-1.396l.015-.014a.986.986 0 0 1 1.41-.02.986.986 0 0 1 .02 1.41.982.982 0 0 1-1.41.02zm-86.2 2.85a.997.997 0 0 1-.072-1.408l.002-.002a1.008 1.008 0 0 1 1.42-.07 1.01 1.01 0 0 1 .07 1.42h-.01a.99.99 0 0 1-.74.32.961.961 0 0 1-.67-.26zm88.939-.01a.998.998 0 0 1 .07-1.41h.001a1.01 1.01 0 0 1 1.42.07h-.01a.996.996 0 0 1-.07 1.41.996.996 0 0 1-1.411-.07zM76.13 58.92a1.002 1.002 0 0 1-.161-1.409v-.001a1 1 0 0 1 1.561 1.25.992.992 0 0 1-.78.37 1.007 1.007 0 0 1-.62-.21zm94.03-.11a.992.992 0 0 1 .149-1.393l.01-.007a1.001 1.001 0 0 1 1.408.156l.002.004a1.004 1.004 0 0 1-.169 1.41 1.01 1.01 0 0 1-.621.21.995.995 0 0 1-.779-.38zM73.8 62.18a1 1 0 0 1-.261-1.389l.001-.001a1.009 1.009 0 0 1 1.399-.26c.45.316.562.936.25 1.39a.98.98 0 0 1-.819.44.994.994 0 0 1-.57-.18zm98.7-.19a.996.996 0 0 1 .254-1.386l.006-.004a.996.996 0 0 1 1.387.246l.002.004a.997.997 0 0 1-.253 1.386l-.006.004a.977.977 0 0 1-.56.18c-.33 0-.64-.16-.83-.43zm-100.811 3.6a.996.996 0 0 1-.339-1.37.987.987 0 0 1 1.349-.357l.011.007a.989.989 0 0 1 .36 1.352l-.01.018a.982.982 0 0 1-.86.49 1.068 1.068 0 0 1-.511-.14zm102.941-.28a.995.995 0 0 1 .342-1.366l.007-.004a.998.998 0 0 1 1.368.346l.003.004a1.004 1.004 0 0 1-.35 1.37.963.963 0 0 1-.51.14.98.98 0 0 1-.86-.49zM69.819 69.13a.99.99 0 0 1-.446-1.326l.007-.014a.989.989 0 0 1 1.34-.44.998.998 0 0 1-.901 1.78zm106.711-.36a.998.998 0 0 1 1.773-.914l.007.014a1 1 0 0 1-.89 1.45.982.982 0 0 1-.89-.55zM68.18 72.79a1.001 1.001 0 0 1-.52-1.31.992.992 0 0 1 1.295-.537l.015.007c.506.217.743.802.53 1.31a1.02 1.02 0 0 1-.92.61 1.163 1.163 0 0 1-.4-.08zm110.009-.44a.992.992 0 0 1 .517-1.304l.014-.006a.992.992 0 0 1 1.305.516l.005.014a.99.99 0 0 1-.516 1.304l-.014.006a1 1 0 0 1-1.311-.53zM66.8 76.55a1.013 1.013 0 0 1-.611-1.28 1.001 1.001 0 0 1 1.891.66 1.012 1.012 0 0 1-.95.67 1.268 1.268 0 0 1-.33-.05zm112.809-.52a.995.995 0 0 1 .611-1.267l.009-.003a1.003 1.003 0 0 1 1.271.62 1.002 1.002 0 0 1-.62 1.27.958.958 0 0 1-.33.06.995.995 0 0 1-.941-.68zM65.67 80.39a.996.996 0 1 1 .53-1.92.98.98 0 0 1 .699 1.22.99.99 0 0 1-1.229.7zm115.1-.59a1.009 1.009 0 0 1 .71-1.23.995.995 0 0 1 1.22.7.987.987 0 0 1-.674 1.223L182 80.5a.794.794 0 0 1-.26.04 1.024 1.024 0 0 1-.97-.74zM64.81 84.31a1.017 1.017 0 0 1-.79-1.18h.01a1.001 1.001 0 0 1 1.96.4 1.015 1.015 0 0 1-1.18.78zm116.879-.67a.995.995 0 0 1 .769-1.178l.012-.002a1.005 1.005 0 0 1 1.179.78 1.008 1.008 0 0 1-.989 1.2.996.996 0 0 1-.971-.8zM64.2 88.27a.981.981 0 0 1-.854-1.093l.004-.027a.994.994 0 0 1 1.112-.861l.008.001c.548.077.931.581.86 1.13a1 1 0 0 1-1.13.85zm118.14-.74a.996.996 0 0 1 .843-1.129l.006-.001c.55-.075 1.055.31 1.13.859v.001a1.01 1.01 0 0 1-.859 1.13h-.13a.986.986 0 0 1-.99-.86zM63.859 92.27a1.012 1.012 0 0 1-.929-1.07c.044-.55.52-.963 1.07-.93.551.04.967.518.93 1.07a.988.988 0 0 1-.991.93h-.08zm118.87-.82a.99.99 0 0 1 .917-1.059l.014-.001a.99.99 0 0 1 1.059.917l.001.013a.997.997 0 0 1-.928 1.06h-.063a.991.991 0 0 1-1-.93zM63.79 96.28a.988.988 0 0 1-.99-.987v-.013a.996.996 0 0 1 .994-1h.006c.549.002.993.45.99.999v.001a.995.995 0 0 1-.989 1h-.011zm120.06.33a1.003 1.003 0 0 1-1-1c0-.04.009-.07.009-.11 0-.04-.009-.07-.009-.11h.009a.997.997 0 0 1 .994-1h.006a.995.995 0 0 1 .991.998v.002h.009c0 .04-.009.08-.009.12v.11a.995.995 0 0 1-.999.99h-.001zM62.92 99.35a.997.997 0 0 1 .929-1.06h.001a1.005 1.005 0 0 1 1.07.93 1.02 1.02 0 0 1-.941 1.07h-.059a1.005 1.005 0 0 1-1-.94zm120.72 1.27a1.005 1.005 0 0 1-.93-1.07c.04-.552.518-.967 1.07-.93.55.043.963.519.93 1.07h-.01a.995.995 0 0 1-.99.93h-.07zm-120.321 2.79h-.009c-.069-.55.32-1.051.869-1.12h.001a.993.993 0 0 1 1.118.849l.002.011a1.003 1.003 0 0 1-.99 1.13.996.996 0 0 1-.991-.87zm119.841 1.19a.995.995 0 0 1-.852-1.119l.002-.011a.985.985 0 0 1 1.104-.852l.016.002a1 1 0 0 1 .86 1.12 1.01 1.01 0 0 1-.99.87c-.05 0-.09-.01-.14-.01zm-119.181 2.83a1.003 1.003 0 0 1 .781-1.18.995.995 0 0 1 1.176.773l.003.017a.985.985 0 0 1-.763 1.167l-.016.003a.674.674 0 0 1-.2.02.997.997 0 0 1-.981-.8zm118.441 1.11a1 1 0 1 1 1.18-.78 1.004 1.004 0 0 1-1.18.78zM64.91 111.4a1.017 1.017 0 0 1 .71-1.23 1.012 1.012 0 0 1 1.23.7 1.008 1.008 0 0 1-.71 1.23.768.768 0 0 1-.26.04 1.024 1.024 0 0 1-.97-.74zm116.5 1.02a.998.998 0 0 1-.691-1.229l.001-.001a1.001 1.001 0 0 1 1.23-.7c.529.151.84.698.699 1.23v.01c-.125.431-.52.729-.969.73a.85.85 0 0 1-.27-.04zM66.109 115.3a1.01 1.01 0 0 1 .62-1.28 1.003 1.003 0 0 1 1.271.62.989.989 0 0 1-.601 1.263l-.019.007a.922.922 0 0 1-.32.06 1.013 1.013 0 0 1-.951-.67zm114.04.93a1.003 1.003 0 0 1-.609-1.28.995.995 0 0 1 1.269-.61h.001a.988.988 0 0 1 .615 1.255l-.005.015a.985.985 0 0 1-.941.67 1.28 1.28 0 0 1-.33-.05zm-112.58 2.88a1.008 1.008 0 0 1 .531-1.31 1.002 1.002 0 0 1 1.317.524l.003.006a1.004 1.004 0 0 1-1.851.78zm111.071.82a.997.997 0 0 1-.534-1.303l.003-.007a1.004 1.004 0 0 1 1.311-.53c.507.222.743.809.53 1.32a.99.99 0 0 1-.92.6.889.889 0 0 1-.39-.08zm-109.35 2.88a.999.999 0 0 1 .439-1.34.998.998 0 0 1 1.34.44c.25.494.054 1.097-.439 1.35-.14.067-.295.102-.45.1a.982.982 0 0 1-.89-.55zm107.58.72a.994.994 0 0 1-.431-1.339v-.001a.991.991 0 0 1 1.341-.44.997.997 0 0 1 .445 1.339l-.005.011c-.174.33-.516.538-.89.54a1.08 1.08 0 0 1-.46-.11zm-105.63 2.86a1 1 0 1 1 1.73-1.01 1.01 1.01 0 0 1-.361 1.37 1.018 1.018 0 0 1-.509.13.993.993 0 0 1-.86-.49zm103.63.61a1 1 0 0 1-.34-1.37.994.994 0 0 1 1.362-.344l.007.004c.473.283.629.894.351 1.37a1.016 1.016 0 0 1-.86.49.977.977 0 0 1-.52-.15zm-101.431 2.84a1.003 1.003 0 0 1 .253-1.395l.008-.005a.995.995 0 0 1 1.38.26.995.995 0 0 1-.244 1.386l-.006.004a1.011 1.011 0 0 1-.57.18.987.987 0 0 1-.821-.43zm99.21.5a1 1 0 0 1-.25-1.39.997.997 0 0 1 1.391-.26c.45.321.561.943.25 1.4v-.01a1.006 1.006 0 0 1-.82.44.997.997 0 0 1-.571-.18zm-96.799 2.78a.991.991 0 0 1 .162-1.394l.008-.006a.998.998 0 0 1 1.4.16 1.01 1.01 0 0 1-.16 1.41 1.06 1.06 0 0 1-.62.21 1.003 1.003 0 0 1-.79-.38zm94.36.4a.995.995 0 0 1-.172-1.396l.012-.014a.998.998 0 1 1 1.56 1.249l-.001.001a1.01 1.01 0 0 1-1.399.16zm-91.731 2.72a.997.997 0 0 1 .069-1.408l.002-.002a.996.996 0 0 1 1.41.07.997.997 0 0 1-.068 1.408l-.002.002a.996.996 0 0 1-1.411-.07zm89.081.29a1.008 1.008 0 0 1-.07-1.42 1.004 1.004 0 0 1 1.409-.06.998.998 0 0 1 .073 1.408l-.002.002a.996.996 0 0 1-1.41.07zm-86.25 2.64a.987.987 0 0 1-.034-1.396l.014-.014a.987.987 0 0 1 1.396-.034l.014.014a.989.989 0 0 1 .033 1.397l-.013.013a.982.982 0 0 1-1.41.02zm83.4.18a.996.996 0 0 1 .028-1.408l.002-.002a.994.994 0 0 1 1.409.03.995.995 0 0 1-.017 1.408l-.002.002c-.189.18-.44.28-.7.28a.99.99 0 0 1-.72-.31zm-80.391 2.57a1 1 0 0 1-.111-1.408l.002-.002a.99.99 0 0 1 1.41-.12c.42.358.469.988.111 1.408l-.002.002a.99.99 0 0 1-.759.35.997.997 0 0 1-.651-.23zm77.37.07a.991.991 0 0 1 .107-1.398l.014-.012a1 1 0 0 1 1.41.12 1.01 1.01 0 0 1-.12 1.41 1.013 1.013 0 0 1-.65.24 1.008 1.008 0 0 1-.761-.36zm-74.169 2.46a.995.995 0 0 1-.21-1.4 1.012 1.012 0 0 1 1.4-.21v.01c.439.326.53.946.203 1.385l-.003.005a.971.971 0 0 1-.801.41.972.972 0 0 1-.589-.2zm70.97-.03a.994.994 0 0 1 .208-1.391l.012-.009a.99.99 0 0 1 1.386.206l.004.004a1.004 1.004 0 0 1-.21 1.4 1.02 1.02 0 0 1-1.4-.21zm-67.62 2.35a.993.993 0 0 1-.307-1.37l.006-.01a1.003 1.003 0 0 1 1.381-.31c.466.299.602.919.303 1.385l-.003.005c-.185.284-.5.457-.84.46a1.066 1.066 0 0 1-.54-.16zm64.27-.15a.98.98 0 0 1 .31-1.37v-.01a1.004 1.004 0 0 1 1.38.31.99.99 0 0 1-.295 1.37l-.015.01a.96.96 0 0 1-.53.16 1.014 1.014 0 0 1-.85-.47zm-60.77 2.23a.983.983 0 0 1-.391-1.35.993.993 0 0 1 1.345-.403l.006.003c.484.266.663.874.399 1.36a1.018 1.018 0 0 1-.879.52.93.93 0 0 1-.48-.13zm57.279-.24a1.002 1.002 0 0 1 .398-1.359l.003-.001a.998.998 0 1 1 .96 1.75.973.973 0 0 1-.48.13 1 1 0 0 1-.881-.52zM98 150.7a1.007 1.007 0 0 1-.49-1.33 1.004 1.004 0 0 1 1.82.85 1.02 1.02 0 0 1-.91.58.903.903 0 0 1-.42-.1zm50.03-.35a1.005 1.005 0 0 1 .49-1.33 1.006 1.006 0 0 1 1.33.49c.229.502.01 1.096-.491 1.33a1.012 1.012 0 0 1-1.329-.49zm-46.29 1.95a1 1 0 0 1-.57-1.29.992.992 0 0 1 1.281-.573l.009.003h.01c.51.203.76.779.56 1.29a.992.992 0 0 1-1.29.57zm42.57-.45c-.2-.519.059-1.1.577-1.299l.003-.001a1.014 1.014 0 0 1 1.29.58 1.008 1.008 0 0 1-.94 1.36 1.004 1.004 0 0 1-.93-.64zm-38.72 1.8a1.001 1.001 0 0 1-.66-1.25c.168-.528.73-.822 1.259-.66h-.009a1.003 1.003 0 1 1-.29 1.96 1.053 1.053 0 0 1-.3-.05zm34.9-.56a.998.998 0 0 1 .656-1.249l.003-.001a.997.997 0 0 1 1.249.655l.001.005a.998.998 0 0 1-.656 1.249l-.003.001a1.05 1.05 0 0 1-.301.04.993.993 0 0 1-.949-.7zm-30.971 1.64a.986.986 0 0 1-.744-1.178l.005-.022a.995.995 0 0 1 1.196-.741l.003.001c.539.131.873.67.75 1.21a1.01 1.01 0 0 1-.979.76.904.904 0 0 1-.231-.03zm27.081-.66a.993.993 0 0 1 .734-1.199l.006-.001a1 1 0 0 1 1.209.736l.001.004a1.001 1.001 0 0 1-.749 1.2h-.001a.898.898 0 0 1-.231.03 1.003 1.003 0 0 1-.969-.77zm-23.09 1.48a1.005 1.005 0 0 1-.821-1.15 1.005 1.005 0 0 1 1.981.33 1.015 1.015 0 0 1-.99.84 1.08 1.08 0 0 1-.17-.02zm19.139-.76a1 1 0 0 1 .823-1.149l.007-.001a1.004 1.004 0 0 1 1.151.82 1.004 1.004 0 0 1-.83 1.15 1.009 1.009 0 0 1-1.151-.82zm-15.099 1.31a.99.99 0 0 1-.893-1.075l.003-.025a1.002 1.002 0 0 1 1.1-.89h-.01c.55.06.95.549.899 1.1a1.007 1.007 0 0 1-1 .9.366.366 0 0 1-.099-.01zm11.12-.86a1.007 1.007 0 0 1 .899-1.1 1.005 1.005 0 0 1 1.091.9c.05.551-.351 1.04-.9 1.1h-.1a.997.997 0 0 1-.99-.9zm-7.05 1.14a.998.998 0 0 1-.971-1.023v-.007c.02-.555.486-.989 1.04-.97.552.023.981.488.96 1.04a.994.994 0 0 1-1 .96h-.029zm3.04-.96a1.01 1.01 0 0 1 .97-1.03 1.005 1.005 0 0 1 1.03.97.99.99 0 0 1-.971 1.03h-.029a1.004 1.004 0 0 1-1-.97z"/><path fill="#48515A" d="M97.001 168.505h54v-13.016a30.252 30.252 0 0 1 9.604-21.558 52.639 52.639 0 0 0 16.377-38.316v-.102c-.033-29.257-23.742-52.967-53-53l-3.045-.012C91.711 44.048 69.273 68.994 70.82 98.219a52.988 52.988 0 0 0 16.78 35.957c5.974 5.653 9.401 13.164 9.401 20.608v13.721zm55 2h-56a1 1 0 0 1-1-1v-14.721c0-6.896-3.199-13.878-8.776-19.155-22.207-20.718-23.415-55.515-2.696-77.723a54.996 54.996 0 0 1 37.358-17.404l3.099.011c30.36.036 54.963 24.64 54.996 55v.102a54.62 54.62 0 0 1-16.992 39.759 28.243 28.243 0 0 0-8.989 20.115v14.016a1 1 0 0 1-1 1z"/><path fill="#48515A" d="M135.427 121.436h-22.236c-5.407-.025-9.773-4.423-9.76-9.83h2a7.803 7.803 0 0 0 7.76 7.83h22.236a9.074 9.074 0 0 0 9.032-9.095v-3.801a9.042 9.042 0 0 0-9.032-9.032h-21.924c-6.09-.007-11.025-4.942-11.032-11.032V82.67c.007-6.09 4.942-11.025 11.032-11.032h23.565a8.08 8.08 0 0 1 8.07 8.069h-2a6.077 6.077 0 0 0-6.07-6.069h-23.565a9.042 9.042 0 0 0-9.032 9.032v3.806a9.042 9.042 0 0 0 9.032 9.032h21.924c6.09.007 11.025 4.942 11.032 11.032v3.801c.01 6.107-4.925 11.071-11.032 11.095"/><path fill="#48515A" d="M124.586 132.54h2v-72h-2z"/><path fill="#FFD15D" d="M51.901 151.059a4 4 0 1 1 0 8 4 4 0 0 1 0-8"/><path fill="#FFD15D" d="M51.901 151.559a3.5 3.5 0 1 0 0 7 3.5 3.5 0 0 0 0-7zm0 8a4.5 4.5 0 1 1 0-9 4.5 4.5 0 0 1 0 9z"/></g></svg>