<?xml version="1.0" encoding="utf-8"?><svg xmlns="http://www.w3.org/2000/svg" width="250" height="250" viewBox="0 0 250 250"><g fill="none" fill-rule="evenodd"><path fill="#5FE0ED" d="M171.392 140.112c.357-1.58.961-3.067 1.796-4.4a14.243 14.243 0 0 1 8.557-6.25c.984-6.459 6.524-11.418 13.239-11.501h.171c7.413.092 13.395 6.126 13.395 13.561 0 .739-.062 1.464-.175 2.171 3.948.135 7.243 2.798 8.341 6.419h-45.324"/><path fill="#48515A" d="M38.997 152.038h2v-4h-2zM38.997 162.038h2v-4h-2zM42.997 156.038h4v-2h-4zM32.997 156.038h4v-2h-4zM86.997 42.043h2v-4h-2zM86.997 52.043h2v-4h-2zM90.997 46.043h4v-2h-4zM80.997 46.043h4v-2h-4z"/><path fill="#FFD15D" d="M154.997 52.037a2 2 0 1 1-3.999.001 2 2 0 0 1 3.999-.001m-88 108a2 2 0 1 1-3.999.001 2 2 0 0 1 3.999-.001m28-17a1 1 0 1 1-1.998.002 1 1 0 0 1 1.998-.002"/><path fill="#5FE0ED" d="M119.313 78.798a14.15 14.15 0 0 1 1.795-4.4 14.246 14.246 0 0 1 8.558-6.251c.984-6.459 6.524-11.417 13.239-11.501h.171c7.413.092 13.395 6.127 13.395 13.561 0 .74-.062 1.464-.175 2.171 3.947.135 7.243 2.798 8.341 6.42h-45.324m-74.044 44.026a14.16 14.16 0 0 1 1.795-4.4 14.242 14.242 0 0 1 8.557-6.25c.985-6.459 6.525-11.418 13.239-11.501h.172c7.413.092 13.394 6.126 13.394 13.561 0 .739-.061 1.464-.175 2.171 3.948.134 7.244 2.798 8.342 6.419H45.269"/><path fill="#48515A" d="M204.997 176.062h2v-4h-2zM204.997 186.062h2v-4h-2zM208.997 180.062h4v-2h-4zM198.997 180.062h4v-2h-4z"/><path fill="#DEDEDD" d="M180.804 148.198c3.015-.491 6.023.161 8.252 1.789.183.134.362.273.535.417l-7.065 5-32.654 15.374s-15.969.034-15.75-.028c1.39-.389 45.262-22.321 46.682-22.552M58.997 205.759v.003c0 1.191-.798 1.988-1.989 1.988h-.001l-7.01.164V193.74l7.059.007c.572 0 1.118.227 1.528.639.411.411.553.953.553 1.522l-.14 9.851"/><path fill="#475059" d="M83.056 204.75H61.997v-2h20.868l77.126-14.946 43.531-26.698c-5.758-5.16-12.763-6.109-18.955-2.5l-27.261 13.144h-46.775v-2h18.316c7.888 0 14.14-5.718 14.656-13.194l-48.632.194c-4.171 0-8.258 1.699-11.219 4.659l-20.834 20.814-1.413-1.415 20.833-20.813c3.333-3.333 7.936-5.245 12.629-5.245l50.67-.202v1.004c0 6.189-3.404 11.465-8.534 14.198h19.846l26.781-12.908c7.291-4.254 15.63-2.876 22.233 3.728l.897.897-46.032 28.231-.178.035-77.494 15.017"/><path fill="#475059" d="M142.682 164.408a1 1 0 0 1-.461-1.888l31.303-16.217a25.233 25.233 0 0 1 6.636-2.053c4.066-.664 8.167.251 11.255 2.507a14.26 14.26 0 0 1 3.471 3.608 1 1 0 0 1-.268 1.381l-9.99 6.822a1 1 0 1 1-1.128-1.651l9.14-6.242a12.398 12.398 0 0 0-2.404-2.303c-2.659-1.942-6.215-2.723-9.754-2.148a23.169 23.169 0 0 0-6.075 1.873l-31.266 16.198a.985.985 0 0 1-.459.113m-94.685 45.539l8.997.01h.004a4.17 4.17 0 0 0 4.172-4.157v-.001l.056-30.978a4.172 4.172 0 0 0-4.168-4.165l-9.061-.009v39.3zm9.001 2.01h-.006l-10.995-.012v-43.3l11.063.011c3.403.004 6.169 2.77 6.166 6.168l-.056 30.979c-.004 3.394-2.772 6.154-6.172 6.154z"/><path fill="#DEDEDD" d="M110.532 166.75h23.443c3.587-1 6.27-4 7.203-8h-4.792c-2.096 2-4.691 2-7.539 2h-12.315a6 6 0 0 0-6 6m81.853-8.069l-33.129 20.278-76.583 14.791H65.192l-.013 7h17.494l76.583-14.779 40.741-24.94c-2.419-1.572-5.013-2.351-7.612-2.35M65.003 88.493L54.332 60.037h2.367l27.067 29H65.003v-.544M157.003 114.037v4.001h-6.608l-3.673-.766 5.778-3.235h4.503M91.003 99.112v-2.075H215.697c.381.339.752.688 1.112 1.049.146.146.194.261.194.383 0 .451-.25.858-.651 1.063a37.836 37.836 0 0 1-11.162 3.652l-2.254.365c-.988.161-1.986.281-2.988.362 0 0-7.152.126-4.946.126h-28.999v-3h-42v1.092l-1.273 1.908h-17.228c-4.709 0-9.401-.629-13.946-1.868l-5.027-1.371 4.474-1.686"/><path fill="#475059" d="M196.88 108.037h-37.878v-2h37.878c2.13 0 4.275-.173 6.377-.514l2.253-.364a39.806 39.806 0 0 0 11.751-3.846 3.176 3.176 0 0 0 1.742-2.843 2.44 2.44 0 0 0-.721-1.739 28.731 28.731 0 0 0-11.207-6.949 33.904 33.904 0 0 0-10.752-1.745H85.568l-28-30h-6.122l11.557 30.818v2.962l-8 2v.456l7.263 1.981-.527 1.93-8.736-2.384v-3.544l8-2v-1.038L48.56 56.037h9.877l28 30h109.886c3.877 0 7.707.621 11.384 1.847a30.667 30.667 0 0 1 11.93 7.373c.902.901 1.366 2.021 1.366 3.212a5.17 5.17 0 0 1-2.832 4.625 41.8 41.8 0 0 1-12.341 4.039l-2.254.365c-2.207.357-4.46.539-6.696.539"/><path fill="#475059" d="M104.113 130.037h11.629l49.261-27.586v-.414h-40v1.302l-4.168 6.252-16.722 20.446zm12.15 2H99.892l19.337-23.634 3.774-5.669v-2.697h44v3.586l-50.74 28.414zM207.002 95.038h10v-2h-10z"/><path fill="#475059" d="M199.002 94.035l-4 .002v6h4v-6.002zm0 8.002h-4c-1.103 0-2-.897-2-2v-6c0-1.103.897-2 2-2h4c1.103 0 2 .897 2 2v6c0 1.103-.897 2-2 2zm-40.999 20.001l-8.121-.021-11.828-2.464.409-1.958 11.726 2.443h7.814c.551 0 1-.449 1-1v-6.001c0-.552-.449-1-1-1h-6v-2h6c1.654 0 3 1.345 3 3v6.001c0 1.654-1.346 3-3 3m-37.528-36.001h30.979l-35.712-19.999h-11.629l16.362 19.999zm38.644 2h-39.591L99.892 64.038h16.371l42.856 23.999zm-106.559 20h7.223l16.936-7.841.039.011 10.245-3.862v-.308H64.002v1.438L52.56 108.037zm7.663 2H47.445l14.557-13.438v-2.562h27.001v3.692l-8.955 3.375 10.983 2.995a55.009 55.009 0 0 0 14.471 1.938h15.5v2h-15.5a57.007 57.007 0 0 1-14.998-2.009l-13.607-3.711-16.674 7.72zM82.997 131.038h14v-2h-14zM78.997 131.038h2v-2h-2zM94.997 127.038h6v-2h-6zM90.997 127.038h2v-2h-2zM84.997 123.038h18v-2h-18zM80.997 123.038h2v-2h-2zM44.997 105.038h6v-2h-6zM40.997 105.038h2v-2h-2zM42.997 85.038h12v-2h-12zM38.997 85.038h2v-2h-2zM32.997 89.038h18v-2h-18zM28.997 89.038h2v-2h-2zM92.997 69.038h6v-2h-6zM88.997 69.038h2v-2h-2zM94.997 75.038h10v-2h-10zM90.997 75.038h2v-2h-2z"/><path fill="#DEDEDD" d="M172.997 74.037a2 2 0 1 1-3.999.001 2 2 0 0 1 3.999-.001"/><path fill="#F58E70" d="M162.997 132.037a2 2 0 1 1-3.999.001 2 2 0 0 1 3.999-.001"/><path fill="#DEDEDD" d="M108.997 56.037a2 2 0 1 1-3.999.001 2 2 0 0 1 3.999-.001"/></g></svg>