<?xml version="1.0" encoding="utf-8"?><svg xmlns="http://www.w3.org/2000/svg" width="250" height="250" viewBox="0 0 250 250"><g fill="none" fill-rule="evenodd"><path fill="#5FE0ED" d="M130.031 185.573c-14.36 0-26-11.641-26-26 0-14.36 11.64-26 26-26 14.359 0 26 11.64 26 26 0 14.359-11.641 26-26 26zm0-60c-18.778 0-34 15.222-34 34 0 18.777 15.222 34 34 34 18.777 0 34-15.223 34-34 0-18.778-15.223-34-34-34z"/><path fill="#5FE0ED" d="M130.031 197.573c-20.987 0-38-17.014-38-38 0-20.987 17.013-38 38-38 20.986 0 38 17.013 38 38 0 20.986-17.014 38-38 38zm38.112-60.068l-4.112-7.548c-13.861-23.49-25.515-49.188-33.994-76.384-8.479 27.196-19.764 52.894-33.625 76.384l-4.506 7.57A43.81 43.81 0 0 0 86 159.542c0 24.317 19.713 44.031 44.031 44.031 24.317 0 44.03-19.714 44.03-44.031a43.813 43.813 0 0 0-5.918-22.037z"/><path fill="#48515A" d="M130.037 46.853l-1.909 6.125c-8.464 27.146-19.712 52.7-33.432 75.952l-4.528 7.606A45.997 45.997 0 0 0 84 159.542c0 25.382 20.649 46.031 46.031 46.031 25.381 0 46.03-20.649 46.03-46.031 0-8.074-2.133-16.03-6.169-23.007l-4.146-7.607c-14.237-24.127-25.611-49.684-33.799-75.95l-1.91-6.125zm-.006 160.72c-26.484 0-48.031-21.547-48.031-48.031a48.009 48.009 0 0 1 6.443-24.018l4.532-7.614c13.64-23.116 24.826-48.528 33.244-75.528l3.818-12.248 3.819 12.248c8.143 26.12 19.454 51.535 33.619 75.542l.058.101 4.103 7.531a47.983 47.983 0 0 1 6.425 23.986c0 26.484-21.547 48.031-48.03 48.031z"/><path fill="#475059" d="M130.031 131.573c-15.44 0-28 12.56-28 28 0 15.439 12.56 28 28 28 15.439 0 28-12.561 28-28 0-15.44-12.561-28-28-28zm0 58c-16.542 0-30-13.458-30-30s13.458-30 30-30 30 13.458 30 30-13.458 30-30 30z"/><path fill="#475059" d="M130.031 131.573c-6.234 0-11.5 12.822-11.5 28 0 15.177 5.266 28 11.5 28 6.233 0 11.5-12.823 11.5-28 0-15.178-5.267-28-11.5-28zm0 58c-7.571 0-13.5-13.178-13.5-30 0-16.823 5.929-30 13.5-30 7.57 0 13.5 13.177 13.5 30 0 16.822-5.93 30-13.5 30z"/><path fill="#475059" d="M101.031 161.032h58v-2h-58zM106.03 145.033h48.001v-2H106.03zM106.03 176.052h48.001v-2H106.03z"/><path fill="#5FE0ED" d="M194.818 141.463l-.545-1a48.17 48.17 0 0 1-4.504-10.121c-1.124 3.603-2.619 7.009-4.456 10.121l-.597 1.003a5.834 5.834 0 1 0 10.102-.003M90.04 88.223l-.545-1.001a48.147 48.147 0 0 1-4.504-10.121c-1.124 3.604-2.619 7.009-4.456 10.121l-.597 1.003a5.834 5.834 0 1 0 10.102-.002"/><path fill="#48515A" d="M156.019 33.001h2v-4h-2zM156.019 43.001h2v-4h-2zM160.019 37.001h4v-2h-4zM150.019 37.001h4v-2h-4zM76.99 210.999h2v-4h-2zM76.99 220.999h2v-4h-2zM80.99 214.999h4v-2h-4zM70.99 214.999h4v-2h-4zM56.96 108.007h2v-4h-2zM56.96 118.007h2v-4h-2zM60.96 112.007h4v-2h-4zM50.96 112.007h4v-2h-4zM191.04 196.059h2v-4h-2zM191.04 206.059h2v-4h-2zM195.04 200.059h4v-2h-4zM185.04 200.059h4v-2h-4z"/><path fill="#5FE0ED" d="M180.934 128.636a1.937 1.937 0 1 1-3.873 0 1.937 1.937 0 0 1 3.873 0m-87.928-16.663a1.005 1.005 0 1 1-2.01 0 1.005 1.005 0 0 1 2.01 0m-19.014 69.905a1.512 1.512 0 1 1-3.025 0 1.512 1.512 0 0 1 3.025 0m89.033-93.336a1.503 1.503 0 1 1-3.006 0 1.503 1.503 0 0 1 3.006 0M154.032 211.5a2.5 2.5 0 1 1 4.998 0 2.5 2.5 0 0 1-4.998 0m33.008-39.961a2.5 2.5 0 1 1 5 0 2.5 2.5 0 0 1-5 0m-8.043-73.195a2.35 2.35 0 1 0 4.701 0 2.35 2.35 0 0 0-4.701 0M66.364 147.825a4 4 0 1 1-8 0 4 4 0 0 1 8 0"/></g></svg>