<?xml version="1.0" encoding="utf-8"?><svg xmlns="http://www.w3.org/2000/svg" width="250" height="250" viewBox="0 0 250 250"><g fill="none" fill-rule="evenodd"><path fill="#F58E70" d="M125 53V29c-24.29 0-46.497 9.072-63.423 24H125M45 71.997C34.897 87.196 29 105.421 29 125h16V71.997"/><path fill="#5FE0ED" d="M47.341 125.016h107.797v-10.999H47.341z"/><path fill="#5FE0ED" d="M155.138 67.016h12.221v-12H47.362v62.003h107.776V67.016"/><path fill="#48515A" d="M155.138 112.018H50.361V58.017h113.998v9h-2v-7H52.361v50.001h102.777v2"/><path fill="#48515A" d="M113.186 98.182h-11.048c-2.951 0-5.353-2.417-5.353-5.388h2c0 1.868 1.504 3.388 3.353 3.388h11.048c2.197 0 3.984-1.802 3.984-4.016v-1.889a3.988 3.988 0 0 0-3.984-3.984h-10.894a5.99 5.99 0 0 1-5.984-5.984v-1.892a5.99 5.99 0 0 1 5.984-5.984h11.709a4.518 4.518 0 0 1 4.513 4.512h-2a2.515 2.515 0 0 0-2.513-2.512h-11.709a3.988 3.988 0 0 0-3.984 3.984v1.892a3.988 3.988 0 0 0 3.984 3.984h10.894a5.992 5.992 0 0 1 5.984 5.984v1.889c0 3.317-2.685 6.016-5.984 6.016"/><path fill="#48515A" d="M107.34 103.018h2v-36h-2zM127.36 82.018h11.999v-2H127.36zM127.36 86.018h11.999v-2H127.36zM127.36 90.018h11.999v-2H127.36zM79.361 82.018H91.36v-2H79.361zM79.361 86.018H91.36v-2H79.361zM79.361 90.018H91.36v-2H79.361zM147.358 111.036h-2c0-5.666 2.719-11.069 7.272-14.454l1.193 1.605c-4.108 3.054-6.465 7.738-6.465 12.849m-96.056-34.02v-2c8.822 0 16-7.178 16-16h2c0 9.924-8.075 18-18 18m18 34.02h-2c0-8.822-7.178-16-16-16v-2c9.925 0 18 8.075 18 18M47.342 119.019h107.796v-2H47.342zM47.342 125.019h107.796v-2H47.342zM153.216 73.888a18.006 18.006 0 0 1-7.858-14.872h2a16 16 0 0 0 6.987 13.219l-1.129 1.653"/><path fill="#FFD15D" d="M181.138 83.266v41.75h13.861L195 125c0-15.129-4.889-29.699-13.862-41.734M181.138 51h22v-5.984h-22zM203.138 54.19l-5.309 5.31a99.321 99.321 0 0 1 5.309 6.441V54.19m-24 26.52c-.378-.461-.748-.927-1.138-1.38l-8.499 8.498V69.016h-12.363v56h22V80.71"/><path fill="#DEDEDD" d="M180.81 138.394c3.015-.491 6.023.161 8.252 1.789.184.134.362.273.535.417l-7.065 5-32.653 15.374s-15.97.034-15.75-.027c1.389-.39 45.261-22.321 46.681-22.553M59.004 195.956v.002c0 1.191-.798 1.989-1.989 1.989h-.002l-7.009.163v-14.174l7.058.007a2.161 2.161 0 0 1 1.529.639c.41.412.552.953.552 1.522l-.139 9.852"/><path fill="#475059" d="M83.063 194.946H62.004v-2h20.867L159.998 178l43.53-26.697c-5.756-5.158-12.761-6.111-18.954-2.5l-27.261 13.143h-46.775v-2h18.316c7.887 0 14.138-5.717 14.655-13.194l-48.632.194c-4.17 0-8.258 1.699-11.219 4.659l-20.833 20.814-1.414-1.414 20.833-20.814c3.333-3.333 7.937-5.245 12.629-5.245l50.67-.202v1.004c0 6.19-3.404 11.465-8.534 14.198h19.846l26.781-12.908c7.295-4.255 15.633-2.874 22.233 3.729l.897.896-46.032 28.232-.177.034-77.494 15.017"/><path fill="#475059" d="M142.688 154.604a.999.999 0 0 1-.46-1.887l31.302-16.218a25.281 25.281 0 0 1 6.636-2.053c4.064-.661 8.166.252 11.256 2.507a14.31 14.31 0 0 1 3.471 3.608 1.001 1.001 0 0 1-.269 1.381l-9.99 6.823a1 1 0 1 1-1.127-1.653l9.139-6.241a12.398 12.398 0 0 0-2.404-2.303c-2.659-1.942-6.218-2.725-9.754-2.147a23.265 23.265 0 0 0-6.075 1.872l-31.266 16.199a.996.996 0 0 1-.459.112m-94.684 45.54l8.996.009h.005a4.146 4.146 0 0 0 2.941-1.221 4.125 4.125 0 0 0 1.231-2.936v-.001l.054-30.977a4.124 4.124 0 0 0-1.224-2.938 4.141 4.141 0 0 0-2.943-1.227l-9.06-.009v39.3zm9.001 2.009h-.007l-10.994-.011v-43.3l11.062.011a6.13 6.13 0 0 1 4.355 1.812 6.113 6.113 0 0 1 1.81 4.356l-.054 30.978a6.112 6.112 0 0 1-1.821 4.351 6.132 6.132 0 0 1-4.351 1.803z"/><path fill="#DEDEDD" d="M110.538 156.947h23.443c3.587-1 6.27-4 7.203-8h-4.792c-2.096 2-4.69 2-7.539 2h-12.315a6 6 0 0 0-6 6m81.854-8.07l-33.129 20.278-76.584 14.792H65.198l-.012 7h17.493l76.584-14.78 40.741-24.94c-2.419-1.571-5.013-2.35-7.612-2.35"/><path fill="#5FE0ED" d="M195.059 59.441L201.501 53h-30v30l6.584-6.584C189.824 89.231 197 106.292 197 125c0 4.559-.445 9.014-1.259 13.34.287.359.559.728.815 1.111l1.647 2.469-1.763 1.204c3.858.877 7.586 2.972 10.843 6.229l2.691 2.689-28.407 17.422C168.373 186.214 147.929 197 125 197v24c52.935 0 96-43.065 96-96 0-25.325-9.862-48.386-25.941-65.559"/><path fill="#FFD15D" d="M44.004 156.84l13.064.013a8.11 8.11 0 0 1 3.889.997 71.527 71.527 0 0 1-7.877-29.683H45V125H29c0 18.928 5.509 36.593 15.004 51.48v-19.64m39.251 40.106H65.121a8.06 8.06 0 0 1-.705 2.464C80.951 212.898 102.046 221 125 221v-24a71.624 71.624 0 0 1-22.808-3.724l-18.937 3.67"/></g></svg>