<?xml version="1.0" encoding="utf-8"?><svg xmlns="http://www.w3.org/2000/svg" width="250" height="250" viewBox="0 0 250 250"><g fill="none" fill-rule="evenodd"><path fill="#DEDEDD" d="M188.926 152.918v-16.335a6.81 6.81 0 0 0 4.475-4.544h16.404c-.988 11.096-9.783 19.891-20.879 20.879zm-1.944-20.199a2.72 2.72 0 1 1 0-5.44 2.72 2.72 0 0 1 0 5.44zm-2.135 20.199c-11.096-.988-19.891-9.783-20.879-20.879h16.526a6.814 6.814 0 0 0 4.353 4.413v16.466zm0-45.837v16.526a6.815 6.815 0 0 0-4.413 4.352h-16.466c.988-11.095 9.783-19.89 20.879-20.878zm4.079 0c11.096.988 19.891 9.783 20.879 20.879H193.47a6.813 6.813 0 0 0-4.544-4.475v-16.404zm32.095 24.763l.004-3.627-5.83-.906-.543-3.452 5.269-2.653-1.118-3.451-5.824.94-1.584-3.115 4.191-4.152-2.128-2.936-5.25 2.693-2.468-2.473 2.703-5.244-2.932-2.134-4.16 4.183-3.112-1.589.95-5.823-3.448-1.124-2.663 5.265-3.451-.55-.896-5.831-3.627-.004-.906 5.83-3.452.543-2.653-5.269-3.45 1.118.939 5.824-3.115 1.584-4.152-4.192-2.936 2.13 2.693 5.249-2.473 2.468-5.244-2.703-2.134 2.932 4.183 4.16-1.589 3.112-5.823-.95-1.124 3.448 5.265 2.663-.55 3.451-5.832.896-.003 3.627 5.83.906.543 3.452-5.269 2.654 1.118 3.45 5.824-.94 1.584 3.115-4.192 4.152 2.129 2.936 5.25-2.693 2.468 2.473-2.703 5.244 2.932 2.134 4.16-4.183 3.112 1.589-.95 5.823 3.448 1.124 2.663-5.265 3.451.55.896 5.832 3.626.003.907-5.83 3.452-.543 2.653 5.269 3.451-1.118-.94-5.824 3.115-1.584 4.152 4.192 2.936-2.129-2.693-5.249 2.473-2.469 5.244 2.703 2.134-2.932-4.183-4.16 1.589-3.112 5.823.95 1.124-3.448-5.265-2.663.55-3.451 5.831-.896zM77.93 182h-.003l.003-.158a3.921 3.921 0 1 0 0-7.842h-3.954a3.983 3.983 0 0 1 3.954 3.997c0 2.21-1.791 5.003-4 5.003h-7.995a4.236 4.236 0 0 1-3.945-4.315v.002c.079 1.456.3 2.9.66 4.313H52.473a8.173 8.173 0 0 1-5.039-1.62 6.56 6.56 0 0 0-4.001-1.38H37.99v4H29v11h14.433a6.671 6.671 0 0 1 3.944 1.336A8.578 8.578 0 0 0 52.425 198H73.93a4.139 4.139 0 0 0 4.004-4.156 4.673 4.673 0 0 0-1.944-3.571V190h1.94a4 4 0 0 0 0-8"/><path fill="#48515A" d="M38.99 185H29v-2h7.99v-37H29v-2h9.99v41"/><path fill="#48515A" d="M47.929 163.473v-2a6.976 6.976 0 0 0 6.671-5.08L56.671 149h14.461a5.8 5.8 0 0 0 5.858-5.741v-.119l-25.066.123c-.984.01-1.897.52-2.42 1.354L44.457 152H38.37v-2h5.031l4.441-6.497a4.849 4.849 0 0 1 4.073-2.24l27.075-.133v2.004A7.78 7.78 0 0 1 71.132 151H58.188l-1.663 5.935a8.984 8.984 0 0 1-8.596 6.538M65.99 175a3 3 0 1 0 0 6h8a3 3 0 1 0 0-6h-8zm8 8h-8a5 5 0 1 1 0-10h8a5 5 0 0 1 0 10z"/><path fill="#48515A" d="M65.99 167a3 3 0 1 0 0 6h12a3 3 0 1 0 0-6h-12zm12 8h-12a5 5 0 1 1 0-10h12a5 5 0 0 1 0 10z"/><path fill="#48515A" d="M65.99 159a3 3 0 1 0 0 6h12a3 3 0 1 0 0-6h-12zm12 8h-12a5 5 0 1 1 0-10h12a5 5 0 0 1 0 10z"/><path fill="#48515A" d="M65.99 151a3 3 0 1 0 0 6h12a3 3 0 1 0 0-6h-12zm12 8h-12a5 5 0 1 1 0-10h12a5 5 0 0 1 0 10zm-26.348 24.002a6.75 6.75 0 0 1-4.311-1.077 6.233 6.233 0 0 0-3.898-.925H36.99v-2h6.443a8.121 8.121 0 0 1 5.094 1.322c.926.691 2.116.681 3.501.679l.397-.001H65.99v2l-13.952.001-.396.001M51.99 137h32v-26h-32v26zm-2 2h36v-30h-36v30z"/><path fill="#48515A" d="M144.99 163h-5.218l-55.213-24.334.806-1.831L140.193 161h2.797V87h-2.796l-54.827 24.288-.81-1.829L139.771 85h5.219v78M54.99 115h2v-2h-2v2zm4 0h2v-2h-2v2zm4 0h2v-2h-2v2zm4 0h2v-2h-2v2zm4 0h2v-2h-2v2zm4 0h2v-2h-2v2zm4 0h2v-2h-2v2zM56.99 143h2v-5h-2zM61.99 173h-5v-22h2v20h3v2M68.99 142h2v-4h-2zM50.99 134h-10v-19h9v2h-7v15h8v2"/><path fill="#DEDEDD" d="M140.62 159h.37v-51.499l-53 12v16.05L140.62 159"/><path fill="#FFF" d="M125.469 186.604l-25.465-10.914 11.121 26.93 4.395-8.841 7.377 7.377 2.572-2.573-7.487-7.487 7.487-4.492"/><path fill="#48515A" d="M101.864 177.576l9.345 22.628 4.035-8.115 7.653 7.653 1.158-1.159-7.685-7.685 6.908-4.145-21.414-9.177zm9.176 27.459l-12.896-31.23 29.517 12.65-8.066 4.84 7.288 7.288-3.986 3.987-7.1-7.1-4.757 9.565zM51 90a3 3 0 1 0 0 6h35.153l6.506-3-6.506-3H51zm35.592 8H51a5 5 0 0 1 0-10h35.592l10.843 5-10.843 5z"/><path fill="#48515A" d="M56.98 97h2v-8h-2z"/><path fill="#48515A" d="M57.98 94h28v-2h-28z"/><path fill="#F58E70" d="M146.983 54.644c-15.621-.001-28.285 12.661-28.286 28.282 0 3.049.493 6.078 1.459 8.97l6.162-1.86c-3.923-11.414 2.149-23.848 13.564-27.771 11.414-3.924 23.848 2.149 27.771 13.563 3.923 11.415-2.149 23.848-13.564 27.772a21.868 21.868 0 0 1-7.089 1.187v6.428c15.622-.027 28.263-12.713 28.236-28.335-.027-15.59-12.664-28.218-28.253-28.236"/><path fill="#DEDEDD" d="M160.979 83.5h-4.67c.001.046.007.091.007.137-.006 5.152-4.181 9.328-9.333 9.333v4.667c7.728-.009 13.991-6.271 14-14 0-.046-.003-.091-.004-.137"/><path fill="#48515A" d="M147 128.93v-2h1.729l-1.729 2zm1.729 0h.052v-2h-.052v2zm2.562 0h-2.51l1.018-1.178-.259-.065 2.673-10.679 7.279-1.951 7.111 7.352 4.759-2.747-2.811-9.835 5.328-5.328 9.835 2.81 2.747-4.759-7.351-7.112 1.951-7.277 9.921-2.484v-5.494l-9.921-2.484-1.951-7.278 7.351-7.112-2.747-4.759-9.835 2.811-5.328-5.328 2.811-9.835-4.758-2.747-7.112 7.351-7.279-1.95-2.484-9.922h-5.494l-2.483 9.922-7.278 1.95-7.112-7.351-4.759 2.747 2.81 9.835-5.327 5.328-9.835-2.811-2.747 4.759 7.351 7.112-1.95 7.278-9.923 2.484v5.494l9.923 2.484 1.479 5.519-1.932.517-1.174-4.382-10.296-2.577v-8.617l10.296-2.576 1.341-5.005-7.628-7.379 4.309-7.462 10.204 2.916 3.663-3.664-2.916-10.204 7.462-4.309 7.38 7.628 5.005-1.341 2.576-10.295h8.617l2.577 10.295 5.004 1.341 7.379-7.628 7.462 4.309-2.916 10.204 3.664 3.664 10.204-2.916 4.309 7.462-7.627 7.379 1.341 5.005 10.294 2.576v8.617l-10.294 2.577-1.341 5.004 7.627 7.38-4.309 7.462-10.204-2.916-3.664 3.664 2.916 10.204-7.462 4.308-7.379-7.628-5.004 1.342-2.577 10.295z"/><path fill="#48515A" d="M146.982 112.215v-2c15.055-.015 27.246-12.231 27.231-27.285-.016-15.055-12.232-27.246-27.286-27.231-15.054.016-27.246 12.232-27.23 27.286a27.259 27.259 0 0 0 1.424 8.667l-1.896.638c-5.173-15.327 3.06-31.946 18.387-37.118 15.328-5.173 31.946 3.059 37.119 18.387 5.172 15.327-3.06 31.946-18.387 37.119a29.3 29.3 0 0 1-9.362 1.537"/><path fill="#48515A" d="M146.982 89.93v-2a5 5 0 1 0-5-5h-2a7 7 0 1 1 7 7"/><path fill="#48515A" d="M146.982 94.215v-2a9.285 9.285 0 0 0 9.286-9.285 9.285 9.285 0 0 0-9.286-9.286 9.285 9.285 0 0 0-9.285 9.286h-2c0-6.233 5.052-11.286 11.285-11.286 6.233-.001 11.286 5.052 11.287 11.285 0 6.233-5.053 11.286-11.286 11.286h-.001"/><path fill="#48515A" d="M146.982 101.287v-2c9.024-.011 16.33-7.334 16.319-16.357-.01-9.024-7.333-16.33-16.356-16.319-9.024.01-16.33 7.333-16.319 16.356.001 1.325.164 2.644.483 3.928l-1.94.484c-2.459-9.837 3.523-19.805 13.36-22.263 9.837-2.459 19.804 3.522 22.263 13.359 2.459 9.838-3.523 19.805-13.36 22.264-1.455.364-2.95.548-4.45.548"/><path fill="#DEDEDD" d="M116.29 93.063l.999-.301a31.145 31.145 0 0 1-1.592-9.832h-10.714v1.185l9.55 2.391 1.757 6.557"/><path fill="#48515A" d="M185.198 161.571l-2-.002c-.001-8.136-6.588-14.736-14.724-14.753-8.14-.008-14.745 6.584-14.753 14.724l-2-.002c.008-9.238 7.5-16.722 16.738-16.722h.017c9.24.02 16.72 7.515 16.722 16.755"/><path fill="#F58E70" d="M168.468 152.975a8.513 8.513 0 1 0-.041 17.027 8.513 8.513 0 0 0 .041-17.027zm-.021 20.01c-6.37.006-11.539-5.152-11.546-11.522-.006-6.37 5.153-11.539 11.523-11.546 6.37-.006 11.539 5.153 11.545 11.522a11.535 11.535 0 0 1-11.522 11.546z"/><path fill="#48515A" d="M165.88 140.61a.998.998 0 0 1 .919-1.07h.001a.99.99 0 0 1 1.068.905l.002.015a.998.998 0 0 1-.919 1.07h-.081a.993.993 0 0 1-.99-.92zm4.87.99a.99.99 0 0 1-.87-1.096v-.004a.997.997 0 1 1 .87 1.1zm-8.78-.12a1.01 1.01 0 0 1 .71-1.23.996.996 0 0 1 1.22.7.99.99 0 0 1-.681 1.224l-.019.006a.794.794 0 0 1-.26.04 1.024 1.024 0 0 1-.97-.74zm12.5.92a.994.994 0 0 1-.653-1.243l.003-.007a.997.997 0 0 1 1.252-.652l.008.002h-.01c.527.162.823.72.661 1.247l-.001.003a1.005 1.005 0 0 1-.96.7 1.053 1.053 0 0 1-.3-.05zm-16.17.66a1 1 0 0 1 .46-1.33.991.991 0 0 1 1.331.442l.009.018a.992.992 0 0 1-.454 1.327l-.006.003a.995.995 0 0 1-.44.11 1.008 1.008 0 0 1-.9-.57zm19.67.83a1.012 1.012 0 0 1-.4-1.36 1 1 0 0 1 1.76.95.988.988 0 0 1-.88.53 1.07 1.07 0 0 1-.48-.12zM155 145.32a1.002 1.002 0 0 1 .2-1.4.994.994 0 0 1 1.4.19c.329.442.24 1.068-.2 1.4a.975.975 0 0 1-.6.21 1.014 1.014 0 0 1-.8-.4zm26.13.68a.998.998 0 0 1 1.268-1.542l.002.002a.99.99 0 0 1 .146 1.392l-.006.008a1 1 0 0 1-.77.37.973.973 0 0 1-.64-.23zm-28.94 2.16a1.019 1.019 0 0 1-.08-1.42 1.01 1.01 0 0 1 1.42-.07c.408.369.44 1 .072 1.408l-.002.002a.996.996 0 0 1-.74.33.998.998 0 0 1-.67-.25zm31.65.52a.999.999 0 0 1 .118-1.408l.002-.002a.999.999 0 0 1 1.41.13.992.992 0 0 1-.116 1.398l-.014.012c-.18.149-.407.23-.64.23a.97.97 0 0 1-.76-.36zm-33.88 2.8a1.005 1.005 0 0 1-.34-1.37.997.997 0 0 1 1.368-.347l.012.007c.469.286.621.897.34 1.37a1.022 1.022 0 0 1-1.38.34zm36.02.34a1.003 1.003 0 0 1 .39-1.36 1.003 1.003 0 0 1 1.36.4 1.003 1.003 0 0 1-.39 1.36 1.072 1.072 0 0 1-.48.12.995.995 0 0 1-.88-.52zm-37.58 3.34a1.012 1.012 0 0 1-.59-1.29 1.012 1.012 0 0 1 1.29-.59c.515.197.778.771.59 1.29-.147.391-.522.65-.94.65a1.128 1.128 0 0 1-.35-.06zm39.08.14a1.001 1.001 0 0 1 .64-1.26 1.001 1.001 0 0 1 1.26.64.993.993 0 0 1-.629 1.256l-.011.004a1.005 1.005 0 0 1-1.26-.64zm-39.91 3.77a1 1 0 0 1-.832-1.142l.002-.008a.995.995 0 0 1 1.145-.821l.005.001a.998.998 0 0 1 .831 1.141l-.001.009a1.008 1.008 0 0 1-1.15.82zm40.74-.06a.988.988 0 0 1 .87-1.11.988.988 0 0 1 1.109.848l.001.012a1.002 1.002 0 0 1-.86 1.12c-.05 0-.09.01-.13.01a.995.995 0 0 1-.99-.88zm-41.85 3.09a.992.992 0 0 1 .951-1.03h.019a1.003 1.003 0 0 1 1.03.97 1.003 1.003 0 0 1-.97 1.03h-.03a1.004 1.004 0 0 1-1-.97zm42.89 1.78a1.002 1.002 0 1 1 1.07-.93 1.011 1.011 0 0 1-1 .93h-.07zm-42.37 2.37a1.005 1.005 0 0 1 .76-1.2.996.996 0 0 1 1.19.76 1.011 1.011 0 0 1-.76 1.2 1.005 1.005 0 0 1-1.19-.76zm41.54 1.54a1.001 1.001 0 0 1-.721-1.218l.001-.002a1.006 1.006 0 0 1 1.23-.72c.534.145.851.695.71 1.23a1.003 1.003 0 0 1-1.22.71zm-40.25 2.43a.994.994 0 0 1 .514-1.308l.006-.002a1.001 1.001 0 0 1 1.319.517l.001.003a1.015 1.015 0 0 1-.53 1.32.997.997 0 0 1-1.31-.53zm38.69 1.25a.996.996 0 0 1-.472-1.327l.002-.003a.992.992 0 0 1 1.321-.474l.009.004a.993.993 0 0 1 .474 1.322l-.004.008a.999.999 0 0 1-.9.57.94.94 0 0 1-.43-.1zm-36.67 2.42a.996.996 0 0 1 .254-1.386l.006-.004a1.005 1.005 0 0 1 1.39.26 1.005 1.005 0 0 1-.82 1.57 1.01 1.01 0 0 1-.83-.44zm34.44.9a1.004 1.004 0 0 1-.21-1.4 1.013 1.013 0 0 1 1.4-.21.996.996 0 0 1 .216 1.392l-.006.008a.999.999 0 0 1-.8.41 1.029 1.029 0 0 1-.6-.2zm-31.76 2.31a.987.987 0 0 1-.024-1.396l.014-.014a.996.996 0 0 1 1.408-.012l.002.002a1 1 0 0 1 .018 1.412l-.008.008a1.007 1.007 0 0 1-.71.29.963.963 0 0 1-.7-.29zm28.95.53a.997.997 0 0 1 .058-1.409l.002-.001a.996.996 0 0 1 1.41.06.986.986 0 0 1-.045 1.395l-.015.015a.975.975 0 0 1-.67.27.996.996 0 0 1-.74-.33zm-25.72 2.12a1.008 1.008 0 0 1-.27-1.39 1 1 0 0 1 1.386-.273l.004.003a1 1 0 0 1 .272 1.387l-.002.003a1.014 1.014 0 0 1-.83.44 1.052 1.052 0 0 1-.56-.17zm22.42.14a1.005 1.005 0 0 1 .33-1.38.994.994 0 0 1 1.367.325l.003.005a1.003 1.003 0 0 1-.32 1.38.944.944 0 0 1-.53.14.991.991 0 0 1-.85-.47zm-18.74 1.85a1.011 1.011 0 0 1-.53-1.31.997.997 0 0 1 1.31-.53.99.99 0 0 1 .536 1.295l-.006.015a.998.998 0 0 1-1.31.53zm15.07-.26a1.007 1.007 0 0 1 .58-1.29.99.99 0 0 1 1.29.58.995.995 0 0 1-.569 1.286l-.011.004a1.159 1.159 0 0 1-.35.06.993.993 0 0 1-.94-.64zM163.87 183a.996.996 0 0 1-.761-1.186l.001-.004a.993.993 0 0 1 1.177-.77h.003c.541.116.885.649.77 1.19a1.004 1.004 0 0 1-1.19.77zm7.18-.65a.995.995 0 0 1 .797-1.158l.013-.002a1.007 1.007 0 0 1 1.16.81 1 1 0 0 1-.814 1.158l-.006.002a.882.882 0 0 1-.17.01.996.996 0 0 1-.98-.82zm-3.02 1.13a1.003 1.003 0 0 1-.98-1.02 1.003 1.003 0 0 1 1.02-.98c.551.012.989.468.98 1.02a1.006 1.006 0 0 1-1 .98h-.02z"/><path fill="#48515A" d="M176.107 197.887l-1.827-5.64a4.504 4.504 0 0 0-4.391-3.198h-.005a4.505 4.505 0 0 0-4.393 3.188l-1.839 5.637-10.451-3.408 1.838-5.637a4.622 4.622 0 0 0-7.106-5.174l-4.8 3.48-6.453-8.901 4.8-3.479a4.62 4.62 0 0 0-2.707-8.362l-5.93-.007.011-3.837 2 .006-.005 1.833 3.926.005a6.62 6.62 0 0 1 3.879 11.981l-3.181 2.306 4.105 5.662 3.181-2.306a6.621 6.621 0 0 1 10.181 7.413l-1.218 3.735 6.649 2.168 1.218-3.735a6.522 6.522 0 0 1 6.294-4.568h.008a6.522 6.522 0 0 1 6.292 4.581l1.21 3.739 6.654-2.155-1.21-3.737a6.62 6.62 0 0 1 10.196-7.392l3.176 2.313 4.117-5.654-3.176-2.312a6.622 6.622 0 0 1 3.896-11.974h.008l3.929.004.007-6.844-3.929-.004a6.62 6.62 0 0 1-3.879-11.981l3.18-2.306-4.105-5.662-3.181 2.307a6.622 6.622 0 0 1-10.181-7.413l1.217-3.735-6.649-2.168-1.218 3.736a6.52 6.52 0 0 1-6.294 4.568h-.007a6.521 6.521 0 0 1-6.292-4.581l-1.211-3.738-6.653 2.155 1.21 3.738a6.62 6.62 0 0 1-10.196 7.392l1.177-1.617a4.62 4.62 0 0 0 7.117-5.159l-1.827-5.64 10.458-3.387 1.827 5.64a4.507 4.507 0 0 0 4.392 3.197h.005a4.505 4.505 0 0 0 4.393-3.189l1.838-5.636 10.452 3.408-1.838 5.636a4.621 4.621 0 0 0 7.106 5.174l4.8-3.481 6.453 8.9-4.8 3.48a4.622 4.622 0 0 0 2.708 8.362l5.929.006-.011 10.844-5.929-.006h-.006a4.622 4.622 0 0 0-2.718 8.356l4.792 3.49-6.471 8.887-4.793-3.489a4.62 4.62 0 0 0-7.117 5.158l1.826 5.641-10.458 3.386M35 65h2v-4h-2zM35 75h2v-4h-2zM39 69h4v-2h-4zM29 69h4v-2h-4zM213 169h2v-4h-2zM213 179h2v-4h-2zM217 173h4v-2h-4zM207 173h4v-2h-4z"/></g></svg>