<?xml version="1.0" encoding="utf-8"?><svg xmlns="http://www.w3.org/2000/svg" width="250" height="250" viewBox="0 0 250 250"><g fill="none" fill-rule="evenodd"><path fill="#DEDEDD" d="M186.887 80.94h-16.145c10.611 11.28 17.133 26.449 17.133 43.121 0 17.457-7.196 33.993-19.856 45.893l19.868-.002h4V85.94c0-2.757-2.243-5-5-5M61.875 124.061c0-16.672 6.522-31.841 17.133-43.121H62.887c-2.757 0-5 2.243-5 5v84.023h4l19.852-.002c-12.664-11.898-19.864-28.439-19.864-45.9"/><path fill="#5FE0ED" d="M173.982 131.077v21.915a56.629 56.629 0 0 0 6.191-15.085l-6.191-6.83"/><path fill="#FFF" d="M92.303 124.061v-3.257h3.258v-13.028l13.028-9.772V69.435c-20.02 5.961-35.431 22.615-39.593 43.346l13.536 11.28h9.771"/><path fill="#FFF" d="M92.303 124.061v19.543l22.8 22.8h3.258v-45.6h-22.8l-7.511-5.682 4.253 8.939M180.173 137.907a57.13 57.13 0 0 0 1.702-13.846c0-26.03-17.456-47.969-41.295-54.791l-5.934 5.934h13.029v3.257h-16.286v19.543h3.257l6.515-6.514h6.514l3.257 3.257 3.257-3.257-3.257-3.257 6.514-6.514h3.257v19.542h-29.314v17.038l12.778 12.778h8.519v12.992l12.564 12.564h6.391a56.917 56.917 0 0 0 2.341-3.641v-21.915l6.191 6.83"/><path fill="#5FE0ED" d="M91.073 169.953h67.558a57.36 57.36 0 0 0 13.01-13.32h-6.391l-12.564-12.564v-12.992h-8.519l-12.778-12.778v-17.038h29.314V81.718h-3.257l-6.514 6.515 3.257 3.257-3.257 3.257-3.257-3.257h-6.514l-6.515 6.514h-3.257V78.461h16.286v-3.257h-13.029l5.934-5.934a56.995 56.995 0 0 0-31.991.165v28.569l-13.028 9.772v13.028h22.8v45.6h-3.258l-22.8-22.8v-19.542h-9.771l-13.536-11.281a57.272 57.272 0 0 0-1.121 11.281c0 18.824 9.13 35.511 23.198 45.891"/><path fill="#FFD15D" d="M162.885 77.894h8V66.897h-8zM78.884 77.894h8V66.897h-8z"/><path fill="#48515A" d="M195.887 170.121h-2V85.94c0-3.859-3.141-7-7-7h-24.002v-2h24.002c4.963 0 9 4.037 9 9v84.181m-140-.333h-2V85.94c0-4.963 4.037-9 9-9h23.997v2H62.887c-3.86 0-7 3.141-7 7v83.848m88-102.975h-2v-2.924c0-1.654-1.346-3-3-3h-28c-1.655 0-3 1.346-3 3v2.917h-2v-2.917c0-2.757 2.243-5 5-5h28c2.757 0 5 2.243 5 5v2.924"/><path fill="#48515A" d="M151.887 69.986h-2v-6.097c0-6.065-4.935-11-11-11h-28c-6.066 0-11 4.935-11 11v6.075h-2v-6.075c0-7.168 5.832-13 13-13h28c7.168 0 13 5.832 13 13v6.097"/><path fill="#FFD15D" d="M103.887 67.885v-3.996c0-3.859 3.14-7 7-7h28c3.86 0 7 3.141 7 7v3.996h2v-3.996c0-4.962-4.038-9-9-9h-28c-4.963 0-9 4.038-9 9v3.996h2"/><path fill="#48515A" d="M212.884 143.158h2v-4h-2zM212.884 153.158h2v-4h-2zM216.884 147.158h4v-2h-4zM206.884 147.158h4v-2h-4zM35.116 104.104h2v-4h-2zM35.116 114.104h2v-4h-2zM39.116 108.104h4v-2h-4zM29.116 108.104h4v-2h-4zM154.884 198.119h2v-4h-2zM154.884 208.119h2v-4h-2zM158.884 202.119h4v-2h-4zM148.884 202.119h4v-2h-4z"/><path fill="#475059" d="M203.867 49.12c-4.963 0-9 4.037-9 9s4.037 9 9 9 9-4.037 9-9-4.037-9-9-9zm0 20c-6.065 0-11-4.935-11-11 0-6.066 4.935-11 11-11 6.066 0 11 4.934 11 11 0 6.065-4.934 11-11 11zm0-26c-8.271 0-15 6.728-15 15 0 8.271 6.729 15 15 15 8.272 0 15-6.729 15-15 0-8.272-6.728-15-15-15zm0 32c-9.374 0-17-7.626-17-17 0-9.374 7.626-17 17-17 9.374 0 17 7.626 17 17 0 9.374-7.626 17-17 17z"/><path fill="#475059" d="M203.867 55.12c-1.654 0-3 1.345-3 3 0 1.654 1.346 3 3 3s3-1.346 3-3c0-1.655-1.346-3-3-3zm0 8c-2.757 0-5-2.244-5-5 0-2.757 2.243-5 5-5s5 2.243 5 5c0 2.756-2.243 5-5 5z"/><path fill="#F58E70" d="M203.867 54.12a4 4 0 1 0 0 8 4 4 0 0 0 0-8"/><path fill="#F58E70" d="M203.867 55.12c-1.654 0-3 1.345-3 3 0 1.654 1.346 3 3 3s3-1.346 3-3c0-1.655-1.346-3-3-3zm0 8c-2.757 0-5-2.244-5-5 0-2.757 2.243-5 5-5s5 2.243 5 5c0 2.756-2.243 5-5 5z"/><path fill="#475059" d="M176.908 59.539h27v-2h-27z"/><path fill="#475059" d="M170.282 61.539h3.172l3-3-3-3h-3.172l3 3-3 3zm4 2h-8.828l5-5-5-5h8.828l5 5-5 5zm4.604 123.58H43.885c-1.655 0-3-1.346-3-3V172.12c0-1.655 1.345-3 3-3H205.89c1.654 0 3 1.345 3 3l-.005 3.002-2-.004.005-3a1 1 0 0 0-1-.998H43.885a1 1 0 0 0-1 1v11.999c0 .551.448 1 1 1h135.001v2"/><path fill="#FFD15D" d="M72.884 181.119h16v-6h-16zM160.89 181.119h16v-6h-16z"/><path fill="#48515A" d="M164.155 170.717l-1.289-1.529c13.352-11.253 21.009-27.701 21.009-45.127 0-32.532-26.468-59-59-59s-59 26.468-59 59c0 17.427 7.657 33.875 21.008 45.127l-1.289 1.529c-13.803-11.633-21.719-28.638-21.719-46.656 0-33.636 27.364-61 61-61 33.636 0 61 27.364 61 61 0 18.017-7.917 35.022-21.72 46.656"/><path fill="#F58E70" d="M52.758 40.474c-9.374 0-17 7.626-17 17 0 9.374 7.626 17 17 17 9.374 0 17-7.626 17-17 0-9.374-7.626-17-17-17zm0 36c-10.477 0-19-8.523-19-19 0-10.476 8.523-19 19-19 10.476 0 19 8.524 19 19 0 10.477-8.524 19-19 19z"/><path fill="#48515A" d="M52.758 67.475a1 1 0 0 1-1-1V56.473a1 1 0 0 1 1-1h7.001a1 1 0 1 1 0 2h-6.001v9.002a1 1 0 0 1-1 1m-.004-23.004a.976.976 0 0 1-.7-.29.899.899 0 0 1-.22-.33.977.977 0 0 1-.08-.38c0-.13.029-.26.08-.38a.87.87 0 0 1 .22-.32c.09-.1.2-.17.32-.22a1.025 1.025 0 0 1 1.31.54c.049.12.07.25.07.38a.99.99 0 0 1-1 1m0 28a.981.981 0 0 1-.38-.069 1.035 1.035 0 0 1-.32-.221.992.992 0 0 1-.3-.71c0-.26.109-.519.3-.7a.993.993 0 0 1 1.259-.13c.05.04.101.08.151.13.09.091.17.2.22.32.049.12.07.25.07.38a.99.99 0 0 1-1 1m-7-26.12a.97.97 0 0 1-.7-.3.952.952 0 0 1-.22-1.08c.05-.13.119-.24.22-.33.37-.37 1.04-.37 1.41 0 .09.09.17.2.22.33.049.12.07.25.07.38a.951.951 0 0 1-.29.7.999.999 0 0 1-.71.3m14 24.25a.952.952 0 0 1-.7-.3.863.863 0 0 1-.22-.32.973.973 0 0 1 .22-1.09c.04-.05.09-.09.149-.12.051-.04.11-.069.171-.1.06-.019.119-.04.189-.059.13-.021.26-.021.39 0 .061.019.12.04.191.059.059.031.11.06.169.1.05.03.101.07.151.12.189.19.29.44.29.71 0 .13-.021.261-.07.38-.05.12-.13.23-.22.32-.09.101-.2.17-.32.22a.992.992 0 0 1-.39.08m-19.12-19.13a.982.982 0 0 1-.71-.29c-.09-.099-.16-.2-.21-.33a.995.995 0 0 1-.08-.38c0-.26.109-.519.29-.7.37-.38 1.04-.38 1.42 0 .179.181.29.44.29.7 0 .13-.031.26-.08.38-.05.13-.12.231-.21.33a.989.989 0 0 1-.71.29m24.25 14a1.04 1.04 0 0 1-.391-.069 1.043 1.043 0 0 1-.319-.221.972.972 0 0 1-.29-.71c0-.059 0-.13.019-.189.011-.071.031-.13.05-.191.03-.059.061-.12.101-.17.03-.059.07-.11.12-.15.09-.1.2-.17.319-.22.37-.149.82-.07 1.091.22.05.04.09.091.13.15.029.05.069.111.09.17.03.061.05.12.059.191.011.059.021.13.021.189 0 .13-.03.26-.08.38-.05.13-.12.24-.22.33a.95.95 0 0 1-.7.29m-26.12-7a.966.966 0 0 1-.71-.29.899.899 0 0 1-.22-.33.937.937 0 0 1 0-.76.87.87 0 0 1 .22-.32c.09-.1.2-.17.32-.22a1.021 1.021 0 0 1 1.31.54c.049.12.07.25.07.38a.99.99 0 0 1-.99 1m27.99 0a.944.944 0 0 1-.7-.29.899.899 0 0 1-.22-.33.937.937 0 0 1 0-.76.87.87 0 0 1 .22-.32c.36-.38 1.04-.38 1.41 0 .09.091.17.2.22.32.049.12.08.25.08.38 0 .141-.031.26-.08.38a1.06 1.06 0 0 1-.54.551c-.121.05-.25.069-.39.069m-26.12 7a.982.982 0 0 1-.71-.29.933.933 0 0 1-.21-.33.826.826 0 0 1-.08-.38c0-.059.01-.13.019-.189a.638.638 0 0 1 .061-.191.546.546 0 0 1 .09-.17c.03-.059.08-.11.12-.15.24-.239.58-.35.899-.279.071.009.13.029.191.059.059.021.12.05.17.09.059.04.11.08.15.13.05.04.09.091.13.15.04.05.069.111.09.17.03.061.049.12.059.191.011.059.021.13.021.189 0 .13-.031.26-.08.38-.05.13-.12.24-.22.33a.95.95 0 0 1-.7.29m24.25-14a1.04 1.04 0 0 1-.391-.069 1.163 1.163 0 0 1-.319-.221c-.09-.099-.17-.2-.221-.33a.985.985 0 0 1-.069-.38c0-.26.099-.519.29-.7.279-.279.72-.369 1.09-.22.12.05.229.12.32.22a.954.954 0 0 1 .22 1.08.903.903 0 0 1-.22.33.965.965 0 0 1-.7.29m-19.12 19.13a.985.985 0 0 1-.39-.08.863.863 0 0 1-.32-.22.863.863 0 0 1-.22-.32.973.973 0 0 1 .22-1.09c.04-.05.09-.09.149-.12.051-.04.11-.069.171-.1.06-.019.119-.04.189-.059a1.006 1.006 0 0 1 1.121 1.369c-.05.12-.13.23-.22.32a.993.993 0 0 1-.7.3m13.99-24.25a.952.952 0 0 1-.7-.3.97.97 0 0 1-.3-.7c0-.13.029-.26.08-.38.05-.13.119-.24.22-.33a.988.988 0 0 1 .899-.269c.061.009.131.03.191.049.059.031.11.06.169.1.05.03.101.08.151.12.09.09.17.2.22.33.049.12.07.25.07.38a.968.968 0 0 1-.29.7.999.999 0 0 1-.71.3"/><path fill="#475059" d="M215.497 199.009l-1.902-.621.33-1.01-1.276-.415c-1.54-.503-2.534-1.873-2.532-3.493a3.614 3.614 0 0 1 2.54-3.488l1.275-.413-.7-2.161-1.275.413a3.619 3.619 0 0 1-4.103-1.337 3.618 3.618 0 0 1 .004-4.316l.789-1.084-1.836-1.336-.79 1.085a3.621 3.621 0 0 1-4.104 1.328 3.614 3.614 0 0 1-2.532-3.493l.001-1.341-2.272-.002-.002 1.341a3.614 3.614 0 0 1-2.539 3.488 3.615 3.615 0 0 1-4.101-1.337l-.788-1.086-1.839 1.333.787 1.086a3.617 3.617 0 0 1-.004 4.315c-.954 1.309-2.564 1.829-4.105 1.329l-1.275-.416-.329 1.011-1.902-.621.95-2.911 3.176 1.035c.857.278 1.523-.131 1.868-.604.345-.475.527-1.24.002-1.964l-1.961-2.705 5.077-3.681 1.962 2.705c.525.725 1.306.786 1.866.608.558-.18 1.154-.693 1.155-1.587l.004-3.341 6.272.006-.003 3.341c-.001.895.594 1.408 1.152 1.589.558.186 1.342.119 1.867-.604l1.967-2.702 5.071 3.692-1.966 2.701c-.527.724-.347 1.488-.002 1.964.344.475 1.012.882 1.867.608l3.179-1.03 1.931 5.968-3.179 1.028c-.85.277-1.155 1.001-1.155 1.588-.001.587.302 1.313 1.152 1.589l3.177 1.036-.949 2.912"/><path fill="#475059" d="M206.293 196.085l-1.902-.619a6.484 6.484 0 0 0-4.15-8.165c-3.387-1.108-7.056.754-8.164 4.15l-1.902-.619c1.45-4.445 6.248-6.877 10.686-5.433 4.445 1.45 6.88 6.244 5.432 10.686"/><path fill="#475059" d="M198.266 201.871a8.519 8.519 0 0 1-2.637-.422c-4.443-1.449-6.879-6.243-5.432-10.687l1.903.619c-1.107 3.396.754 7.059 4.149 8.165 3.392 1.107 7.058-.753 8.164-4.148l1.902.619a8.427 8.427 0 0 1-4.218 4.93 8.45 8.45 0 0 1-3.831.924"/><path fill="#475059" d="M201.374 211.526l-6.272-.007.002-3.341c.001-.895-.594-1.408-1.152-1.59-.556-.179-1.341-.118-1.867.605l-1.967 2.701-5.071-3.692 1.968-2.702c.526-.722.346-1.487.002-1.962-.344-.475-1.013-.883-1.868-.609l-3.178 1.029-1.932-5.967 3.18-1.029c.85-.275 1.154-1.001 1.155-1.587 0-.586-.302-1.312-1.152-1.589l-3.177-1.036 1.066-3.272 1.903.621-.448 1.369 1.275.415a3.619 3.619 0 0 1 2.533 3.494 3.616 3.616 0 0 1-2.54 3.488l-1.275.413.699 2.162 1.276-.413c1.541-.499 3.152.025 4.102 1.337a3.615 3.615 0 0 1-.004 4.314l-.79 1.084 1.837 1.337.789-1.084c.954-1.31 2.567-1.832 4.104-1.328a3.614 3.614 0 0 1 2.532 3.493v1.341l2.272.003.001-1.342a3.616 3.616 0 0 1 2.539-3.487c1.542-.499 3.152.025 4.103 1.337l.787 1.086 1.84-1.333-.788-1.086a3.617 3.617 0 0 1 .004-4.315c.954-1.31 2.567-1.828 4.105-1.329l1.275.416.494-1.516 1.903.621-1.116 3.417-3.175-1.035c-.855-.277-1.523.13-1.869.604-.345.474-.527 1.238-.001 1.963l1.96 2.705-5.078 3.681-1.961-2.705c-.524-.725-1.307-.788-1.867-.609-.557.181-1.154.693-1.155 1.587l-.003 3.342"/><path fill="#475059" d="M198.191 190.524c-1.654 0-3 1.346-3 3s1.346 3 3 3c1.655 0 3-1.346 3-3s-1.345-3-3-3zm0 8c-2.756 0-5-2.243-5-5s2.244-5 5-5c2.757 0 5 2.243 5 5s-2.243 5-5 5z"/></g></svg>