<?xml version="1.0" encoding="utf-8"?><svg xmlns="http://www.w3.org/2000/svg" width="250" height="250" viewBox="0 0 250 250"><g fill="none" fill-rule="evenodd"><path fill="#475059" d="M54.488 56.539c-1.654 0-3 1.346-3 3v125.523c0 1.654 1.346 3 3 3h78.022c1.655 0 3-1.346 3-3V59.539c0-1.654-1.345-3-3-3H54.488zm78.022 133.523H54.488c-2.757 0-5-2.244-5-5V59.539c0-2.757 2.243-5 5-5h78.022c2.757 0 5 2.243 5 5v125.523c0 2.756-2.243 5-5 5z"/><path fill="#475059" d="M91.489 184.539h6v-2h-6zM91.499 62.539h1.989v-2h-1.989z"/><path fill="#5FE0ED" d="M53.499 178.592h80V66.069h-80z"/><path fill="#475059" d="M148.488 94.408c-1.654 0-3 1.346-3 3v88.053c0 1.654 1.346 3 3 3h43.023c1.654 0 3-1.346 3-3V97.408c0-1.654-1.346-3-3-3h-43.023zm43.023 96.053h-43.023c-2.757 0-5-2.243-5-5V97.408c0-2.757 2.243-5 5-5h43.023c2.757 0 5 2.243 5 5v88.053c0 2.757-2.243 5-5 5z"/><path fill="#475059" d="M167 184.938h6v-2h-6zM169.005 100.408h1.989v-2h-1.989z"/><path fill="#5FE0ED" d="M147.499 178.992H192.5v-75.053h-45.001z"/><path fill="#48515A" d="M211 158.5h2v-4h-2zM211 168.5h2v-4h-2zM215 162.5h4v-2h-4zM205 162.5h4v-2h-4zM36.999 90.488h2v-4h-2zM36.999 100.488h2v-4h-2zM40.999 94.488h4v-2h-4zM30.999 94.488h4v-2h-4zM39 178.5h2v-4h-2zM39 188.5h2v-4h-2zM42.999 182.5h4v-2h-4zM33 182.5h4v-2h-4z"/><path fill="#FFD15D" d="M80.999 196.938a2.437 2.437 0 1 1-4.874 0 2.437 2.437 0 0 1 4.874 0"/><path fill="#FFD15D" d="M78.562 195a1.94 1.94 0 0 0-1.938 1.938 1.94 1.94 0 0 0 1.938 1.937 1.94 1.94 0 0 0 1.937-1.937A1.94 1.94 0 0 0 78.562 195zm0 4.875a2.94 2.94 0 0 1-2.938-2.937A2.94 2.94 0 0 1 78.562 194a2.94 2.94 0 0 1 2.937 2.938 2.94 2.94 0 0 1-2.937 2.937z"/><path fill="#5FE0ED" d="M107 46.938a2.438 2.438 0 1 1-4.875-.001 2.438 2.438 0 0 1 4.875.001"/><path fill="#FFD15D" d="M181.875 66.938a2.438 2.438 0 1 1-4.875-.001 2.438 2.438 0 0 1 4.875.001"/><path fill="#FFD15D" d="M179.437 65a1.94 1.94 0 0 0-1.937 1.937 1.94 1.94 0 0 0 1.937 1.938 1.94 1.94 0 0 0 1.938-1.938A1.94 1.94 0 0 0 179.437 65zm0 4.875a2.94 2.94 0 0 1-2.937-2.938A2.94 2.94 0 0 1 179.437 64a2.94 2.94 0 0 1 2.938 2.937 2.94 2.94 0 0 1-2.938 2.938z"/><path fill="#5FE0ED" d="M171 199.5a1 1 0 1 1-2 0 1 1 0 0 1 2 0"/><path fill="#DEDEDD" d="M40.999 68.5a2 2 0 1 1-3.998.002 2 2 0 0 1 3.998-.002M151 84.5a2 2 0 1 1-4 0 2 2 0 0 1 4 0m42-10a2 2 0 1 1-4 0 2 2 0 0 1 4 0m14 66a2 2 0 1 1-4 0 2 2 0 0 1 4 0m-30 35a1 1 0 1 1-2 0 1 1 0 0 1 2 0m-140.007-37a2 2 0 1 1-3.999.001 2 2 0 0 1 3.999-.001"/><path fill="#48515A" d="M162 73.5c-1.104 0-2 .897-2 2 0 1.102.896 2 2 2 1.103 0 2-.898 2-2 0-1.103-.897-2-2-2zm0 6c-2.206 0-4-1.794-4-4s1.794-4 4-4c2.205 0 4 1.794 4 4s-1.795 4-4 4zM206 118.501h-2V111.5h-1v-2h3v9.001"/><path fill="#48515A" d="M203 119.501h4v-2h-4zM142 202.499h-2v-7.001h-1v-2h3v9.001"/><path fill="#48515A" d="M139 203.499h4v-2h-4zM205 187.499a1 1 0 0 0-1 1v4.001a1 1 0 0 0 2 0v-4.001c0-.552-.449-1-1-1zm0 8.001c-1.655 0-3-1.346-3-3v-4.001c0-1.654 1.345-3 3-3 1.654 0 3 1.346 3 3v4.001c0 1.654-1.346 3-3 3zm-78 1.999a1 1 0 0 0-1 1v4.001a1 1 0 0 0 2 0v-4.001c0-.552-.449-1-1-1zm0 8.001c-1.655 0-3-1.346-3-3v-4.001c0-1.654 1.345-3 3-3 1.654 0 3 1.346 3 3v4.001c0 1.654-1.346 3-3 3z"/></g></svg>