<?xml version="1.0" encoding="utf-8"?><svg xmlns="http://www.w3.org/2000/svg" width="250" height="250" viewBox="0 0 250 250"><g fill="none" fill-rule="evenodd"><path fill="#DEDEDD" d="M71.352 92.839A11.03 11.03 0 0 1 63.1 91.05a10.904 10.904 0 0 1-.534-.417l7.064-4.999 32.654-15.374s15.97-.035 15.75.027c-1.39.389-45.262 22.321-46.682 22.552m121.807-57.561v-.002a1.88 1.88 0 0 1 1.989-1.989h.002l7.009-.163v14.174l-7.059-.007a2.153 2.153 0 0 1-1.528-.64 2.06 2.06 0 0 1-.552-1.521l.139-9.852"/><path fill="#48515A" d="M59.846 86.628c-4.743 0-9.478-2.086-13.553-6.161l-.897-.896 46.033-28.232.177-.035 77.495-15.017h21.058v2h-20.867L92.165 53.233 48.634 79.931c5.757 5.159 12.762 6.109 18.955 2.5L94.85 69.287h46.775v2H123.31c-7.618-.201-14.059 5.598-14.657 13.194l48.632-.194a15.978 15.978 0 0 0 11.219-4.659l20.834-20.814 1.414 1.415-20.834 20.813a17.988 17.988 0 0 1-12.629 5.245l-50.67.202v-1.004a15.964 15.964 0 0 1 8.534-14.198H95.307l-26.78 12.909a17.133 17.133 0 0 1-8.681 2.432"/><path fill="#48515A" d="M69.398 96.998c-3.1.031-6.131-.92-8.657-2.717a14.296 14.296 0 0 1-3.471-3.609l-.549-.822 10.808-7.381 1.127 1.652-9.139 6.241a12.376 12.376 0 0 0 2.404 2.303 13.047 13.047 0 0 0 9.753 2.148 23.18 23.18 0 0 0 6.075-1.873l31.266-16.198.92 1.776-31.303 16.216a25.23 25.23 0 0 1-6.636 2.053c-.859.14-1.728.211-2.598.211m125.759-65.917a4.186 4.186 0 0 0-4.171 4.157v.001l-.055 30.977a4.185 4.185 0 0 0 4.168 4.165l9.06.009v-39.3l-8.997-.009h-.005zm11.002 41.311l-11.062-.011a6.185 6.185 0 0 1-6.166-6.168l.055-30.978a6.173 6.173 0 0 1 6.171-6.154h.007l10.995.011v43.3z"/><path fill="#DEDEDD" d="M141.624 74.287h-23.442a10.44 10.44 0 0 0-7.203 8h4.792c2.095-2 4.69-2 7.538-2h12.315a6 6 0 0 0 6-6m-83.522 8L92.9 62.079l76.583-14.792h17.481l.013-7h-17.494L92.9 55.066 52.159 80.007c2.419 1.571 3.344 2.28 5.943 2.28"/><path fill="#48515A" d="M183.042 221h2v-4h-2zM187.042 215h4v-2h-4zM177.042 215h4v-2h-4zM62.97 32.893h2v-4h-2zM62.97 42.893h2v-4h-2zM66.97 36.893h4v-2h-4zM56.97 36.893h4v-2h-4zM32.952 142.959h2v-4h-2zM32.952 152.959h2v-4h-2zM36.952 146.959h4v-2h-4zM26.952 146.959h4v-2h-4z"/><path fill="#5FE0ED" d="M141.964 88.348a34.506 34.506 0 0 1-29.364 22.587v-22.47l-6.115.025v22.445c-15.373-1.373-27.964-12.789-30.83-27.955l-6.158 2.968a19.557 19.557 0 0 1-6.614 2.379l-2.853 1.437 1.675 5.172 8.73-1.409 2.373 4.669-6.282 6.223 3.191 4.4 7.868-4.036 3.7 3.707-4.051 7.86 4.394 3.198 6.235-6.27 4.664 2.382-1.424 8.728 5.168 1.684 3.993-7.89 5.172.824 1.342 8.74 5.436.005 1.358-8.738 5.174-.814 3.978 7.897 5.171-1.675-1.408-8.73 4.668-2.373 6.224 6.282 4.4-3.191-4.037-7.868 3.707-3.7 7.86 4.052 3.199-4.395-6.27-6.235 2.382-4.664 8.727 1.424 1.684-5.168-3.088-1.563-13.979.056"/><path fill="#48515A" d="M109.802 104.522c-14.298.03-26.307-10.749-27.816-24.967l1.989-.213c1.547 14.265 14.366 24.575 28.631 23.028a25.979 25.979 0 0 0 20.544-14.43l1.797.879a27.812 27.812 0 0 1-25.145 15.703"/><path fill="#DEDEDD" d="M187.811 157.048a11.03 11.03 0 0 1 8.252 1.789c.183.134.361.273.534.416l-7.064 5-32.654 15.374s-15.969.034-15.75-.027c1.39-.39 45.262-22.321 46.682-22.552M66.004 214.609v.002a1.882 1.882 0 0 1-1.989 1.989h-.002l-7.009.163v-14.174l7.059.007a2.156 2.156 0 0 1 1.528.639c.384.411.583.961.552 1.522l-.139 9.852"/><path fill="#48515A" d="M90.062 213.6H69.004v-2h20.867l77.127-14.947 43.531-26.697c-5.758-5.161-12.764-6.109-18.954-2.5L164.313 180.6h-46.775v-2h18.316c7.617.201 14.058-5.598 14.656-13.195l-48.632.195a15.976 15.976 0 0 0-11.219 4.659l-20.834 20.814-1.414-1.415 20.834-20.814a17.991 17.991 0 0 1 12.629-5.244l50.67-.202v1.003a15.966 15.966 0 0 1-8.534 14.199h19.846l26.781-12.909c7.293-4.255 15.63-2.874 22.233 3.729l.897.896-46.033 28.232-.177.035L90.062 213.6"/><path fill="#48515A" d="M150.148 173.145l-.919-1.775 31.302-16.218a25.228 25.228 0 0 1 6.636-2.052 15.042 15.042 0 0 1 11.255 2.506c1.36.989 2.535 2.21 3.471 3.608l.55.823-10.807 7.381-1.129-1.651 9.139-6.242a12.319 12.319 0 0 0-2.404-2.303 13.043 13.043 0 0 0-9.753-2.149 23.23 23.23 0 0 0-6.075 1.873l-31.266 16.199m-95.144 45.652l8.997.009h.005a4.186 4.186 0 0 0 4.171-4.157v-.001l.055-30.978a4.185 4.185 0 0 0-4.168-4.164l-9.06-.009v39.3zm9.002 2.009h-.007l-10.995-.011v-43.3l11.062.011a6.184 6.184 0 0 1 6.166 6.167l-.055 30.979a6.186 6.186 0 0 1-6.171 6.154z"/><path fill="#DEDEDD" d="M117.539 175.6h23.442a10.445 10.445 0 0 0 7.204-8h-4.792c-2.096 2-4.691 2-7.539 2h-12.315a6 6 0 0 0-6 6m83.522-8l-34.798 20.208L89.68 202.6H72.199l-.013 7H89.68l76.583-14.78 40.741-24.94c-2.419-1.571-3.344-2.28-5.943-2.28"/><path fill="#F58E70" d="M117.199 161.539a34.506 34.506 0 0 1 29.364-22.587v22.47l6.115-.025v-22.445c15.373 1.373 27.964 12.789 30.83 27.955l6.158-2.968a19.557 19.557 0 0 1 6.614-2.379l2.853-1.437-1.675-5.172-8.73 1.409-2.373-4.669 6.282-6.223-3.191-4.4-7.868 4.036-3.7-3.707 4.051-7.86-4.394-3.198-6.235 6.27-4.664-2.382 1.424-8.728-5.168-1.684-3.992 7.89-5.173-.824-1.342-8.74-5.436-.005-1.358 8.738-5.174.814-3.977-7.897-5.172 1.675 1.409 8.73-4.669 2.373-6.223-6.282-4.401 3.191 4.037 7.867-3.707 3.701-7.86-4.052-3.199 4.395 6.271 6.235-2.383 4.664-8.727-1.424-1.684 5.168 3.088 1.562 13.979-.055"/><path fill="#48515A" d="M175.188 170.544c-1.547-14.265-14.366-24.575-28.631-23.027a25.977 25.977 0 0 0-20.544 14.429l-1.797-.879c6.781-13.886 23.535-19.645 37.421-12.864a27.982 27.982 0 0 1 15.54 22.128l-1.989.213M183.042 210.994h2v-4h-2zM73.204 134.939h-.005c-5.932.001-10.74 4.811-10.738 10.744.001 5.932 4.812 10.74 10.744 10.738h.006c5.932-.002 10.74-4.812 10.738-10.745-.002-5.932-4.813-10.739-10.745-10.737zm.001 23.482c-7.037.002-12.743-5.701-12.745-12.737-.002-7.037 5.7-12.743 12.737-12.745h.007c7.037-.003 12.743 5.7 12.746 12.736.002 7.037-5.7 12.744-12.737 12.746h-.008z"/><path fill="#48515A" d="M73.199 134.939h-.001c-1.285 0-2.593 1.063-3.589 2.915a16.844 16.844 0 0 0-1.727 7.829c.004 5.821 2.443 10.738 5.327 10.738h.001c1.285-.001 2.593-1.063 3.589-2.915a16.85 16.85 0 0 0 1.727-7.829c-.004-5.822-2.443-10.738-5.327-10.738zm.01 23.482c-4.105 0-7.323-5.594-7.327-12.737a18.861 18.861 0 0 1 1.967-8.778c1.375-2.557 3.274-3.967 5.347-3.967h.003c4.105 0 7.323 5.593 7.327 12.737a18.869 18.869 0 0 1-1.966 8.777c-1.375 2.558-3.275 3.967-5.348 3.968h-.003z"/><path fill="#48515A" d="M61.758 147.13h23v-2h-23zM185.552 111.7h4.429l2.454 2.717 2.848-1.181-.186-3.655 3.133-3.133 3.656.187 1.179-2.849-2.716-2.453v-4.43l2.716-2.453-1.179-2.849-3.656.187-3.133-3.134.186-3.655-2.848-1.18-2.454 2.717h-4.429l-2.453-2.717-2.849 1.18.186 3.655-3.133 3.134-3.655-.187-1.18 2.849 2.717 2.453v4.43l-2.717 2.453 1.18 2.849 3.655-.187 3.133 3.133-.186 3.655 2.849 1.181 2.453-2.717zm6.343 5.105l-2.802-3.105h-2.653l-2.802 3.105-5.458-2.261.214-4.177-1.876-1.876-4.178.214-2.261-5.458 3.105-2.803v-2.653l-3.105-2.802 2.261-5.458 4.178.214 1.876-1.876-.214-4.177 5.458-2.261 2.802 3.105h2.653l2.802-3.105 5.459 2.261-.214 4.177 1.876 1.876 4.176-.214 2.262 5.458-3.105 2.802v2.653l3.105 2.803-2.262 5.458-4.176-.214-1.876 1.876.214 4.177-5.459 2.261z"/><path fill="#48515A" d="M187.767 96.539a2.579 2.579 0 1 0 0 5.158 2.579 2.579 0 0 0 0-5.158zm0 7.158a4.579 4.579 0 1 1 0-9.158 4.579 4.579 0 0 1 0 9.158z"/></g></svg>