<?xml version="1.0" encoding="utf-8"?><svg xmlns="http://www.w3.org/2000/svg" width="250" height="250" viewBox="0 0 250 250"><g fill="none" fill-rule="evenodd"><path fill="#5FE0ED" d="M204.5 63.419a2 2 0 1 0 3.999.001 2 2 0 0 0-3.999-.001m-160-10a2 2 0 1 1-3.999.001 2 2 0 0 1 3.999-.001m6 103a3 3 0 1 1-6 0 3 3 0 0 1 6 0m75.391-103.255a.98.98 0 0 0-.672.259.99.99 0 0 0-.328.74v40.655a8.622 8.622 0 0 0 2.818 6.36c1.813 1.651 4.163 2.432 6.619 2.202 4.354-.41 7.764-4.32 7.764-8.902V50.084c0-4.435-1.766-8.579-4.972-11.666a16.08 16.08 0 0 0-11.857-4.523c-8.587.324-15.574 7.799-15.574 16.661v20.065h2V50.084c0-3.984 1.694-7.811 4.648-10.501a14.263 14.263 0 0 1 10.913-3.636c7.202.677 12.842 7.031 12.842 14.465v44.406c0 1.99-.886 3.855-2.431 5.115a6.606 6.606 0 0 1-5.527 1.348c-3.038-.622-5.243-3.383-5.243-6.566V54.336c0-.587-.409-1.121-.892-1.167a.999.999 0 0 0-.108-.005m29.403 17.791h2V54.59c0-.586-.409-1.12-.892-1.166a1 1 0 0 0-1.108.994v16.537"/><path fill="#DFE0E0" d="M155.503 122.752h-46V98.919h7.33l3.667 9.167h23.667l5.333-9.167h6.003v23.833"/><path fill="#FFD15D" d="M155.503 98.791V76.752h-10.411v17.699c0 6.038-4.472 11.323-10.482 11.888-6.898.649-12.719-4.782-12.719-11.548V76.752h-12.388v22.039a28.293 28.293 0 0 0 6.997 18.628h46a28.293 28.293 0 0 1-6.997-18.628"/><path fill="#DFE0E0" d="M78.505 77.419h-4l.092 57.725 5.911 29.74v47.177h93.997v-8.142h-85.75v-46.75l-10.5-30.25v-42l.25-7.5"/><path fill="#FFD15D" d="M132.736 98.315a3.607 3.607 0 0 0 4.356-3.524V76.752h-7.201v17.936c0 1.718 1.161 3.282 2.845 3.627"/><path fill="#DFE0E0" d="M121.891 53.539c0-.122.025-.237.036-.356a19.908 19.908 0 0 0-7.238 15.346v5.231h7.202V53.539m46.403 18.518a4 4 0 0 0-8 0v1.703h8v-1.703m-8 1.703H99.838m65.541 0h2.915m0 0h-8m-32.695-23.825a3.992 3.992 0 0 1 2.292 3.604v4.069a11.18 11.18 0 0 1 5.079-.702 10.72 10.72 0 0 1 2.122.419v-7.537c0-.224-.018-.445-.03-.667a19.308 19.308 0 0 0-3.912-.251 18.598 18.598 0 0 0-5.551 1.065m24.695 12.695a19.239 19.239 0 0 0-7.202-10.132V73.76h7.202V62.63m-15.202 7.13a3.983 3.983 0 0 0-3.201-1.624 4 4 0 0 0-4 4v1.624h7.201v-4m-11.201-20.221c-2.088 0-3.782 1.604-3.964 3.644 1.681-1.385 3.585-2.504 5.672-3.248a3.98 3.98 0 0 0-1.708-.396"/><path fill="#DFE0E0" d="M129.891 57.608v-4.069a3.992 3.992 0 0 0-2.292-3.604c-2.087.744-3.991 1.863-5.672 3.248-.011.119-.036.234-.036.356v40.655c0 1.478.292 2.886.798 4.187V68.057c0-4.766 2.998-8.834 7.202-10.449"/><path fill="#48515A" d="M133.473 107.393c-3.14 0-6.106-1.143-8.457-3.284a12.63 12.63 0 0 1-4.126-9.318V54.136c0-2.757 2.244-5 5.001-5s5 2.243 5 5v40.552c0 1.291.86 2.404 2.045 2.647.802.162 1.58-.024 2.196-.528.61-.498.96-1.233.96-2.016V50.385c0-5.392-4.048-9.997-9.216-10.483-2.913-.27-5.696.655-7.846 2.612a10.222 10.222 0 0 0-3.341 7.543v23.536h-2V50.057a12.23 12.23 0 0 1 3.995-9.022c2.572-2.342 5.902-3.454 9.38-3.124 6.184.582 11.028 6.061 11.028 12.474v44.406a4.589 4.589 0 0 1-1.695 3.566 4.626 4.626 0 0 1-3.862.937c-2.112-.432-3.644-2.369-3.644-4.606V54.136c0-1.654-1.346-3-3-3a3.005 3.005 0 0 0-3.001 3v40.655c0 2.973 1.266 5.83 3.473 7.839 2.233 2.034 5.124 2.999 8.153 2.713 5.37-.505 9.576-5.29 9.576-10.892V50.057c0-4.984-1.983-9.639-5.585-13.107-3.599-3.464-8.31-5.276-13.32-5.081-9.648.365-17.498 8.736-17.498 18.66v23.064h-2V50.529c0-10.986 8.713-20.254 19.423-20.659 5.528-.201 10.789 1.794 14.782 5.639 3.997 3.849 6.198 9.016 6.198 14.548v44.394c0 6.623-5.003 12.283-11.389 12.884-.412.038-.823.058-1.23.058m27.821-33.8h-2V54.057c0-1.654-1.346-3-3-3s-3 1.346-3 3v19.536h-2V54.057c0-2.757 2.243-5 5-5s5 2.243 5 5v19.536"/><path fill="#48515A" d="M194.239 205.337H87.424v-48.016l-9.913-29.739v-.161l-.095-54.726h39.172v2H79.42l.09 52.561 9.914 29.741v46.34h102.815v-46.016l-9.914-29.739v-.161l-.09-52.726h-33.48v-2h35.476l.094 54.561 9.914 29.741v48.34"/><path fill="#FFF" d="M82.513 127.419h98.078"/><path fill="#48515A" d="M81.509 127.419c0-.55.451-1 1-1 .561 0 1 .45 1 1s-.439 1-1 1c-.549 0-1-.45-1-1zm4 0c0-.55.451-1 1-1 .561 0 1 .45 1 1s-.439 1-1 1c-.549 0-1-.45-1-1zm4 0c0-.55.451-1 1-1 .561 0 1 .45 1 1s-.439 1-1 1c-.549 0-1-.45-1-1zm4 0c0-.55.451-1 1-1 .561 0 1 .45 1 1s-.439 1-1 1c-.549 0-1-.45-1-1zm4 0c0-.55.451-1 1-1 .55 0 1 .45 1 1s-.45 1-1 1c-.549 0-1-.45-1-1zm4.001 0c0-.55.45-1 1-1 .549 0 1 .45 1 1s-.451 1-1 1c-.55 0-1-.45-1-1zm4 0c0-.55.45-1 1-1 .56 0 1 .45 1 1s-.44 1-1 1c-.55 0-1-.45-1-1zm4 0c0-.55.45-1 1-1 .56 0 1 .45 1 1s-.44 1-1 1c-.55 0-1-.45-1-1zm4 0c0-.55.45-1 1-1 .56 0 1 .45 1 1s-.44 1-1 1c-.55 0-1-.45-1-1zm4 0c0-.55.45-1 1-1 .56 0 1 .45 1 1s-.44 1-1 1c-.55 0-1-.45-1-1zm4 0c0-.55.45-1 1-1 .56 0 1 .45 1 1s-.44 1-1 1c-.55 0-1-.45-1-1zm4 0c0-.55.449-1 1-1 .55 0 1 .45 1 1s-.45 1-1 1c-.551 0-1-.45-1-1zm4 0c0-.55.449-1 1-1 .56 0 1 .45 1 1s-.44 1-1 1c-.551 0-1-.45-1-1zm4 0c0-.55.449-1 1-1 .56 0 1 .45 1 1s-.44 1-1 1c-.551 0-1-.45-1-1zm4 0c0-.55.449-1 1-1 .56 0 1 .45 1 1s-.44 1-1 1c-.551 0-1-.45-1-1zm4 0c0-.55.449-1 1-1 .56 0 1 .45 1 1s-.44 1-1 1c-.551 0-1-.45-1-1zm4 0c0-.55.449-1 1-1 .55 0 1 .45 1 1s-.45 1-1 1c-.551 0-1-.45-1-1zm4 0c0-.55.449-1 1-1 .55 0 1 .45 1 1s-.45 1-1 1c-.551 0-1-.45-1-1zm4 0c0-.55.449-1 1-1 .55 0 1 .45 1 1s-.45 1-1 1c-.551 0-1-.45-1-1zm4 0c0-.55.449-1 1-1 .56 0 1 .45 1 1s-.44 1-1 1c-.551 0-1-.45-1-1zm4 0c0-.55.449-1 1-1 .56 0 1 .45 1 1s-.44 1-1 1c-.551 0-1-.45-1-1zm4 0c0-.55.449-1 1-1 .56 0 1 .45 1 1s-.44 1-1 1c-.551 0-1-.45-1-1zm4 0c0-.55.449-1 1-1 .55 0 1 .45 1 1s-.45 1-1 1c-.551 0-1-.45-1-1zm4 0c0-.55.449-1 1-1 .55 0 1 .45 1 1s-.45 1-1 1c-.551 0-1-.45-1-1zm4 0c0-.55.449-1 1-1 .55 0 1 .45 1 1s-.45 1-1 1c-.551 0-1-.45-1-1z"/><path fill="#FFF" d="M92.505 156.436h99.617"/><path fill="#48515A" d="M91.5 156.439c0-.55.449-1 1.009-1 .55 0 .991.45.991 1s-.441 1-.991 1c-.56 0-1.009-.45-1.009-1zm4 0a1.005 1.005 0 0 1 2.009 0 1.005 1.005 0 0 1-2.009 0zm4 0c0-.55.45-1 1.01-1 .549 0 .99.45.99 1s-.441 1-.99 1c-.56 0-1.01-.45-1.01-1zm4 0a1.006 1.006 0 0 1 2.01 0 1.006 1.006 0 0 1-2.01 0zm4 0c0-.55.449-1 1.01-1 .549 0 .99.45.99 1s-.441 1-.99 1c-.561 0-1.01-.45-1.01-1zm4 0a1.006 1.006 0 0 1 2.01 0 1.006 1.006 0 0 1-2.01 0zm4 0c0-.55.449-1 1.01-1 .549 0 .99.45.99 1s-.441 1-.99 1c-.561 0-1.01-.45-1.01-1zm4.01 0a.994.994 0 1 1 1.99 0 .994.994 0 1 1-1.99 0zm3.99 0c0-.55.449-1 1.01-1 .549 0 .989.45.989 1s-.44 1-.989 1c-.561 0-1.01-.45-1.01-1zm3.999 0c0-.55.45-1 1-1 .561 0 1 .45 1 1s-.439 1-1 1c-.55 0-1-.45-1-1zm4 0c0-.55.45-1 1-1 .561 0 1 .45 1 1s-.439 1-1 1c-.55 0-1-.45-1-1zm4 0c0-.55.45-1 1-1s1 .45 1 1-.45 1-1 1-1-.45-1-1zm4 0c0-.55.45-1 1-1 .561 0 1 .45 1 1s-.439 1-1 1c-.55 0-1-.45-1-1zm4 0c0-.55.45-1 1-1 .561 0 1 .45 1 1s-.439 1-1 1c-.55 0-1-.45-1-1zm4 0c0-.55.45-1 1-1 .561 0 1 .45 1 1s-.439 1-1 1c-.55 0-1-.45-1-1zm4 0c0-.55.45-1 1-1 .561 0 1 .45 1 1s-.439 1-1 1c-.55 0-1-.45-1-1zm4 0c0-.55.45-1 1-1 .561 0 1 .45 1 1s-.439 1-1 1c-.55 0-1-.45-1-1zm4 0c0-.55.45-1 1-1 .561 0 1 .45 1 1s-.439 1-1 1c-.55 0-1-.45-1-1zm4 0c0-.55.45-1 1-1 .561 0 1 .45 1 1s-.439 1-1 1c-.55 0-1-.45-1-1zm4 0c0-.55.45-1 1-1 .561 0 1 .45 1 1s-.439 1-1 1c-.55 0-1-.45-1-1zm4 0c0-.55.45-1 1-1 .561 0 1 .45 1 1s-.439 1-1 1c-.55 0-1-.45-1-1zm4 0c0-.55.45-1 1-1 .561 0 1 .45 1 1s-.439 1-1 1c-.55 0-1-.45-1-1zm4 0c0-.55.45-1 1-1 .561 0 1 .45 1 1s-.439 1-1 1c-.55 0-1-.45-1-1zm4 0c0-.55.45-1 1-1 .561 0 1 .45 1 1s-.439 1-1 1c-.55 0-1-.45-1-1zm4 0c0-.55.45-1 1-1 .561 0 1 .45 1 1s-.439 1-1 1c-.55 0-1-.45-1-1zM144.245 74.695h8.093v-2h-8.093zM129.911 74.695h8.094v-2h-8.094zM114.745 74.695h8.093v-2h-8.093z"/><path fill="#48515A" d="M175.505 220.144H68.771V76.419h9.734v2h-7.734v139.725h102.734v-14.725h2v16.725"/><path fill="#475059" d="M160.412 181.419h55.164c1.655 0 3-1.346 3-3s-1.345-3-3-3h-55.164l-6.506 3 6.506 3zm55.164 2h-55.603l-10.843-5 10.843-5h55.603c2.757 0 5 2.243 5 5s-2.243 5-5 5z"/><path fill="#475059" d="M207.967 182.419h2v-7.598h-2z"/><path fill="#475059" d="M160.961 179.39h48.006v-2h-48.006z"/><path fill="#48515A" d="M34.5 125.419h2v-4h-2zM34.5 135.419h2v-4h-2zM38.5 129.419h4v-2h-4zM28.5 129.419h4v-2h-4zM207.496 204.472h2v-4h-2zM207.496 214.472h2v-4h-2zM211.496 208.472h4v-2h-4zM201.496 208.472h4v-2h-4zM48.5 170.419h22v-2h-22zM31.6 200.419a5.01 5.01 0 0 0 4.9 4h17.105a6.99 6.99 0 0 1-2.034-4H31.6zm26.9 6h-22c-3.86 0-7-3.14-7-7v-1h24v1c0 2.757 2.243 5 5 5s5-2.243 5-5v-24h2v24c0 3.86-3.14 7-7 7z"/><path fill="#48515A" d="M43.5 199.419h-2v-24c0-3.86 3.14-7 7-7 3.52 0 6.442 2.612 6.929 6h19.97a5.009 5.009 0 0 0-4.899-4v-2c3.86 0 7 3.14 7 7v1h-24v-1c0-2.757-2.243-5-5-5s-5 2.243-5 5v24m133.74-89.276h42.26V84.661h-42.26v25.482zm-2 2h46.26V82.661h-46.26v29.482z"/><path fill="#48515A" d="M198.369 98.679a.995.995 0 0 1-.537-.157l-16.123-10.275 1.074-1.687 15.584 9.932 14.95-9.591 1.08 1.684-15.488 9.936a1.004 1.004 0 0 1-.54.158M216.34 108.214l-8.923-10.706 1.537-1.28 8.923 10.705-1.537 1.281M180.399 108.214l-1.537-1.281 8.923-10.705 1.538 1.28-8.924 10.706M199.22 127.074h2v-13.036h-2zM200.22 132.419c-.261 0-.521-.11-.71-.29-.181-.19-.29-.45-.29-.71 0-.26.109-.52.29-.71.279-.28.72-.36 1.09-.21.12.05.229.12.33.21.18.19.29.45.29.71 0 .26-.11.52-.29.71-.101.09-.21.16-.33.21-.12.05-.25.08-.38.08M207.912 118.377h2v-4.339h-2zM208.909 123.729a.98.98 0 0 1-.7-.3.98.98 0 0 1-.3-.7 1.007 1.007 0 0 1 .3-.71c.37-.37 1.04-.37 1.41 0 .191.18.29.44.29.71a.98.98 0 0 1-.29.7c-.049.05-.099.09-.149.13l-.181.09-.179.06c-.071.01-.13.02-.201.02M190.523 121.276h2v-7.238h-2zM191.52 126.619c-.26 0-.521-.1-.7-.29-.1-.09-.17-.2-.22-.33a.977.977 0 0 1-.08-.38c0-.06.01-.13.019-.19.01-.07.031-.13.061-.19.019-.06.05-.12.09-.17.04-.06.08-.11.13-.15.089-.1.2-.17.32-.22a.956.956 0 0 1 .769 0c.061.02.111.05.17.09.05.04.101.08.151.13.05.04.09.09.12.15.04.05.069.11.099.17.021.06.041.12.05.19.021.06.021.13.021.19 0 .26-.101.52-.29.71a.793.793 0 0 1-.151.12.666.666 0 0 1-.17.09.818.818 0 0 1-.189.06c-.07.02-.131.02-.2.02"/><path fill="#475059" d="M44.417 103.419H62.5v-26H44.417v26zm-2 2H64.5v-30H42.417v30z"/><path fill="#475059" d="M48.417 83.419H58.5v-2H48.417v2zm-2 2H60.5v-6H46.417v6zm.083 3.959h2v-2h-2v2zm0 4h2v-2h-2v2zm0 4h2v-2h-2v2zm0 4h2v-2h-2v2zm4-12h2v-2h-2v2zm0 4h2v-2h-2v2zm0 4h2v-2h-2v2zm0 4h2v-2h-2v2zm4-12h2v-2h-2v2zm0 4h2v-2h-2v2zm0 4h2v-2h-2v2zm0 4h2v-2h-2v2zm4-12h2v-2h-2v2zm0 4h2v-2h-2v2z"/><path fill="#FFF" d="M59.5 95.377v6.042"/><path fill="#475059" d="M58.5 101.419h2v-6.041h-2z"/></g></svg>