<?xml version="1.0" encoding="utf-8"?><svg xmlns="http://www.w3.org/2000/svg" width="193" height="171" viewBox="0 0 193 171"><g fill="none" fill-rule="evenodd"><path fill="#FFD15D" d="M146.604 125.762h41.457v-22h-41.457l-7.857 11 7.857 11"/><path fill="#48515A" d="M168.612 121.743h-5.559a3.204 3.204 0 0 1-3.19-3.208h2a1.201 1.201 0 0 0 1.19 1.208h5.559a1.518 1.518 0 0 0 1.508-1.525v-.95a1.51 1.51 0 0 0-1.508-1.508h-5.481a3.511 3.511 0 0 1-3.508-3.508v-.951a3.513 3.513 0 0 1 3.508-3.509h5.891a2.771 2.771 0 0 1 2.768 2.768h-2a.77.77 0 0 0-.768-.768h-5.891a1.511 1.511 0 0 0-1.508 1.509v.951a1.51 1.51 0 0 0 1.508 1.508h5.481a3.512 3.512 0 0 1 3.508 3.508v.95a3.521 3.521 0 0 1-3.508 3.525"/><path fill="#48515A" d="M165.152 123.768h2v-18h-2z"/><path fill="#DEDEDD" d="M93.046 149.264h16v-11.025a4.954 4.954 0 0 1-2.999 1.025 5 5 0 1 1 0-10 4.946 4.946 0 0 1 2.999 1.024v-15.024h-16v34M115.049 38.652l12 10.5V27.264h-12v11.388"/><path fill="#475059" d="M131.049 56.35h-2V25.264h-16v15h-2v-17h20V56.35"/><path fill="#F58E70" d="M140.049 63.263l-62-54.016-62 54.016-3.975-4.26L78.049 1.274l65.976 57.729-3.976 4.26"/><path fill="#5FE0ED" d="M38.036 132.294h6a6 6 0 0 0 6-6v-14h-12v20m34.013 0h-6a6 6 0 0 1-6-6v-14h12v20m12.015-50.03h6a6 6 0 0 0 6-6v-14h-12v20m34.013 0h-6a6 6 0 0 1-6-6v-14h12v20m-80.041 0h6a6 6 0 0 0 6-6v-14h-12v20m34.013 0h-6a6 6 0 0 1-6-6v-14h12v20"/><path fill="#475059" d="M25.049 96.024h2V54.733h-2zM25.049 152.264h2v-52.118h-2zM113.046 152.264h-2v-39h-20v39h-2v-41h24v41M129.049 111.77h2v-11.672h-2zM129.049 95.768h2V55.757h-2z"/><path fill="#475059" d="M16.699 64.024l-1.3-1.52 62.65-53.555 62.65 53.554-1.3 1.52-61.35-52.443-61.35 52.444"/><path fill="#475059" d="M39.049 85.264h32v-22h-32v22zm-2 2h36v-26h-36v26zm48-2h32v-22h-32v22zm-2 2h36v-26h-36v26zm-44 48h32v-22h-32v22zm-2 2h36v-26h-36v26zm68.998-4a1 1 0 1 0 0 2 1 1 0 0 0 0-2zm0 4a3 3 0 1 1 0-6 3 3 0 0 1 0 6zM24.04 98.772h107.007V96.77H24.04v2.002zm-2 2h111.007V94.77H22.04v6.002z"/><path fill="#48515A" d="M184.107 80.763h2v-4h-2zM184.107 90.763h2v-4h-2zM188.107 84.763h4v-2h-4zM178.107 84.763h4v-2h-4zM137.079 10.757h2v-4h-2zM137.079 20.757h2v-4h-2zM141.079 14.757h4v-2h-4zM131.079 14.757h4v-2h-4zM6 80.799h2v-4H6zM6 90.799h2v-4H6zM10 84.799h4v-2h-4zM0 84.799h4v-2H0z"/><path fill="#F58E70" d="M110.049.769a2 2 0 1 1 .001 3.999 2 2 0 0 1-.001-3.999m38 68a2 2 0 1 1 .001 3.999 2 2 0 0 1-.001-3.999"/><path fill="#5FE0ED" d="M14.06 118.769a4 4 0 1 1 0 8 4 4 0 0 1 0-8"/><path fill="#DEDEDD" d="M30.061 22.739a2 2 0 1 1 .001 3.999 2 2 0 0 1-.001-3.999"/><path fill="#48515A" d="M.004 153.769h192v-2h-192z"/><path fill="#DEDEDD" d="M.004 155.611v15.158l192 .231v-15.158l-192-.231"/><path fill="#48515A" d="M145.575 127.762h44.486v-26h-44.486l-9.285 13 9.285 13zm46.486 2h-47.515l-10.714-15 10.714-15h47.515v30zM129.06 152.769h2v-15.003h-2zM133.059 145.769h2.001v-2h-2.001z"/><path fill="#48515A" d="M147.06 145.769h-10v-2h10a4 4 0 0 0 0-8h-21.003c-6.075 0-11-4.925-11-11s4.925-11 11-11h8.999v2h-8.999a9 9 0 0 0-9 9 9 9 0 0 0 9 9h21.003a6 6 0 1 1 0 12"/><path fill="#475059" d="M129.06 131.77h2v-14.002h-2zM145.059 113.768a1 1 0 1 0 0 2 1 1 0 0 0 0-2zm0 4a3 3 0 1 1 0-6 3 3 0 0 1 0 6z"/><path fill="#DEDEDD" d="M182.054 52.201l-28-12 12.228 29.61 4.833-9.721 7.08 7.081 2.924-2.734-7.297-7.297 8.232-4.939"/><path fill="#FFF" d="M172.048 42.195l-28-12 12.228 29.61 4.833-9.721 8.111 8.111 2.828-2.828-8.232-8.233 8.232-4.939"/><path fill="#48515A" d="M145.908 32.08l10.452 25.309 4.473-8.995 8.387 8.387 1.414-1.414-8.431-8.431 7.653-4.593-23.948-10.263zm10.283 30.141l-14.003-33.912 32.051 13.737-8.81 5.286 8.033 8.035-4.242 4.242-7.835-7.834-5.194 10.446zM16.062 35.818a2.921 2.921 0 0 0-2.999 2.84v.062a3.038 3.038 0 0 0 2.981 3.097l.018.001h67.182l6.506-3-6.506-3H16.062zm67.621 8H16.062a5.03 5.03 0 0 1-4.999-5.049 4.91 4.91 0 0 1 4.999-4.951h67.621l10.843 5-10.843 5z"/><path fill="#48515A" d="M22.039 42.818h2v-8h-2z"/><path fill="#48515A" d="M23.039 39.818h60v-2h-60z"/></g></svg>