<?xml version="1.0" encoding="utf-8"?><svg xmlns="http://www.w3.org/2000/svg" width="250" height="250" viewBox="0 0 250 250"><g fill="none" fill-rule="evenodd"><path fill="#DEDEDD" d="M111.494 54h3a6 6 0 1 1 0 12h-3 21a6 6 0 0 1 0-12h-21"/><path fill="#48515A" d="M213.011 158.512h2v-4h-2zM213.011 168.512h2v-4h-2zM217.011 162.512h4v-2h-4zM207.011 162.512h4v-2h-4zM34.989 141.5h2v-4h-2zM34.989 151.5h2v-4h-2zM38.989 145.5h4v-2h-4zM28.989 145.5h4v-2h-4z"/><path fill="#5FE0ED" d="M47.864 103.062a2.437 2.437 0 1 1-4.874.002 2.437 2.437 0 0 1 4.874-.002m154 88a2.437 2.437 0 1 1-4.874.002 2.437 2.437 0 0 1 4.874-.002m-8.887-93.16a2.437 2.437 0 1 1-4.874 0 2.437 2.437 0 0 1 4.874 0"/><path fill="#475059" d="M56.994 176.506c-1.654 0-3 1.346-3 3s1.346 3 3 3 3-1.346 3-3-1.346-3-3-3zm0 8c-2.757 0-5-2.243-5-5s2.243-5 5-5 5 2.243 5 5-2.243 5-5 5zm118.983-114c-1.103 0-2 .897-2 2 0 1.102.897 2 2 2s2-.898 2-2c0-1.103-.897-2-2-2zm0 6c-2.206 0-4-1.794-4-4s1.794-4 4-4 4 1.794 4 4-1.794 4-4 4z"/><path fill="#DEDEDD" d="M123.648 122.952a9.239 9.239 0 0 0-.462-.936c.57.102 1.129.265 1.677.459-.415.134-.821.293-1.215.477M96.494 75h20.5c-11.579 0-21 9.421-21 21v72c0 11.579 9.421 21 21 21h-20.5c-11.579 0-21-9.421-21-21V96c0-11.579 9.421-21 21-21m41 117v6.397a7.003 7.003 0 0 0-6-3.397h3.009-3.009a7.01 7.01 0 0 0-6.324 4h-19.351a7.01 7.01 0 0 0-6.325-4 7.003 7.003 0 0 0-6 3.397V192h44"/><path fill="#475059" d="M96.494 73c-12.682 0-23 10.317-23 23v72c0 12.683 10.318 23 23 23h38c12.682 0 23-10.317 23-23V96c0-12.683-10.318-23-23-23h-38zm38 120h-38c-13.785 0-25-11.215-25-25V96c0-13.785 11.215-25 25-25h38c13.785 0 25 11.215 25 25v72c0 13.785-11.215 25-25 25z"/><path fill="#475059" d="M92.494 71h43v-4h-23c-3.86 0-7-3.141-7-7s3.14-7 7-7h23v-4h-43v4h2c3.86 0 7 3.141 7 7s-3.14 7-7 7h-2v4zm45 2h-47v-8h4c2.757 0 5-2.243 5-5s-2.243-5-5-5h-4v-8h47v8h-25c-2.757 0-5 2.243-5 5s2.243 5 5 5h25v8z"/><path fill="#475059" d="M132.494 67c-3.86 0-7-3.141-7-7s3.14-7 7-7v2c-2.757 0-5 2.243-5 5s2.243 5 5 5v2m-18 0h-3v-2h3c2.757 0 5-2.243 5-5s-2.243-5-5-5h-3v-2h3c3.86 0 7 3.141 7 7s-3.14 7-7 7m27 136h-7v-1c0-1.654-1.346-3-3-3s-3 1.346-3 3v1h-26v-1c0-1.654-1.346-3-3-3s-3 1.346-3 3v1h-7v-12h2v10h3.101a5.009 5.009 0 0 1 4.899-4 5.01 5.01 0 0 1 4.9 4h22.201a5.009 5.009 0 0 1 4.899-4 5.01 5.01 0 0 1 4.9 4h3.1v-10h2v12M75.494 95h80v-2h-80zM75.494 171h80v-2h-80zM106.393 123.617c.276.919.449 1.942.524 3.082.194 2.981-1.383 5.537-2.07 6.498a13.963 13.963 0 0 0-2.342 7.289l-.009.485c-.002 7.749 6.278 14.029 13.998 14.029s14-6.28 14-14l-.008-.512a13.967 13.967 0 0 0-2.334-7.28c-.696-.975-2.273-3.532-2.078-6.509l.162-1.873c.081-.441.184-.863.31-1.268a8.994 8.994 0 0 0-2.839 1.806l-.935.891-.628-1.127a21.716 21.716 0 0 1-2.272-15.105 24.923 24.923 0 0 0-7.306 16.778l-.133 3.702-1.748-3.267c-.847-1.582-2.411-2.878-4.292-3.619zM116.494 157c-8.822 0-16-7.178-16-16l.013-.593a15.941 15.941 0 0 1 2.667-8.308c.608-.852 1.9-2.932 1.746-5.269-.113-1.742-.48-3.125-1.122-4.228l-1.08-1.856 2.115.367c2.297.4 4.411 1.485 5.956 2.994.945-7.087 4.654-13.508 10.423-17.904l2.83-2.156-1.292 3.315a19.738 19.738 0 0 0 .581 15.713 11.629 11.629 0 0 1 4.794-2.044l2.114-.38-1.07 1.863a8.228 8.228 0 0 0-.954 2.583l-.147 1.754c-.151 2.312 1.14 4.394 1.702 5.181a16.016 16.016 0 0 1 2.715 8.386l.005.171c.004.126.006.256.006.382l-.002.029c0 8.822-7.178 16-16 16z"/><path fill="#475059" d="M106.393 123.617c.276.919.449 1.942.524 3.082.194 2.981-1.383 5.537-2.07 6.498a13.963 13.963 0 0 0-2.342 7.289l-.009.485c-.002 7.749 6.278 14.029 13.998 14.029s14-6.28 14-14l-.008-.512a13.967 13.967 0 0 0-2.334-7.28c-.696-.975-2.273-3.532-2.078-6.509l.162-1.873c.081-.441.184-.863.31-1.268a8.994 8.994 0 0 0-2.839 1.806l-.935.891-.628-1.127a21.716 21.716 0 0 1-2.272-15.105 24.923 24.923 0 0 0-7.306 16.778l-.133 3.702-1.748-3.267c-.847-1.582-2.411-2.878-4.292-3.619zM116.494 157c-8.822 0-16-7.178-16-16l.013-.593a15.941 15.941 0 0 1 2.667-8.308c.608-.852 1.9-2.932 1.746-5.269-.113-1.742-.48-3.125-1.122-4.228l-1.08-1.856 2.115.367c2.297.4 4.411 1.485 5.956 2.994.945-7.087 4.654-13.508 10.423-17.904l2.83-2.156-1.292 3.315a19.738 19.738 0 0 0 .581 15.713 11.629 11.629 0 0 1 4.794-2.044l2.114-.38-1.07 1.863a8.228 8.228 0 0 0-.954 2.583l-.147 1.754c-.151 2.312 1.14 4.394 1.702 5.181a16.016 16.016 0 0 1 2.715 8.386l.005.171c.004.126.006.256.006.382l-.002.029c0 8.822-7.178 16-16 16z"/><path fill="#5FE0ED" d="M108.891 128.123c-.267 2.916-1.723 5.265-2.415 6.234a11.93 11.93 0 0 0-1.972 6.197l-.011.546c.001 6.517 5.385 11.9 12.001 11.9 6.617 0 12-5.383 12-12l-.007-.438a11.972 11.972 0 0 0-1.999-6.245c-.695-.971-2.238-3.465-2.414-6.542l-1.791 1.707-1.886-3.379a23.732 23.732 0 0 1-2.924-9.634 22.948 22.948 0 0 0-2.908 10.404l-.401 11.105-5.242-9.798a1.035 1.035 0 0 1-.031-.057"/><path fill="#DEDEDD" d="M143.494 192v7h8.692a7.01 7.01 0 0 1 6.324-4 7.003 7.003 0 0 1 6 3.397V192h-21.016m-9.137-34.027c.139-.321.289-.635.462-.936-.571.102-1.129.265-1.677.459.415.134.82.293 1.215.477"/><path fill="#475059" d="M161.511 193h-21.016v-2h21.016c12.682 0 23-10.317 23-23v-36.979c0-12.682-10.318-23-23-23h-2.979v-2h2.979c13.785 0 25 11.215 25 25V168c0 13.785-11.215 25-25 25"/><path fill="#475059" d="M164.511 108.021h-6.517v-2h4.517v-4h-4.184v-2h6.184v8M164.511 90.021h-7.017v-2h5.017v-4h-7.683v-2h9.683v8M168.511 203h-7v-1c0-1.654-1.346-3-3-3-1.655 0-3 1.346-3 3v1h-16.017v-2h14.117a5.01 5.01 0 0 1 4.9-4 5.009 5.009 0 0 1 4.899 4h3.101v-10h2v12M158.544 130.021h23.967v-2h-23.967zM158.544 171h23.967v-2h-23.967z"/><path fill="#48515A" d="M192.999 58.452h2v-4h-2zM192.999 68.452h2v-4h-2zM196.999 62.452h4v-2h-4zM186.999 62.452h4v-2h-4z"/></g></svg>