<?xml version="1.0" encoding="utf-8"?><svg xmlns="http://www.w3.org/2000/svg" width="250" height="250" viewBox="0 0 250 250"><g fill="none" fill-rule="evenodd"><path fill="#DEDEDD" d="M205.093 171.683l1-3.408-48.902-87.719c.569-1.519.902-3.154.902-4.873 0-6.701-4.711-12.295-11.001-13.669V41.682a3 3 0 1 0-6 0v20.332c-6.288 1.374-10.999 6.968-10.999 13.669 0 1.755.339 3.426.928 4.973l-48.928 87.619.999 3.408-.999 10 34-60h4.479l18.423-32.981c1.583.621 3.295.981 5.098.981 1.821 0 3.551-.368 5.147-1.001l18.374 33.001h4.479l34 60-1-10"/><path fill="#48515A" d="M89.59 134.885l-.003-2 69.493-.168.004 2-69.494.168M167.181 134.885h10.625v-2h-10.625z"/><path fill="#48515A" d="M176.806 139.336h2v-10.902h-2zM60.614 186.3l1.452-14.522-1.063-3.624 49.008-87.873 1.746.975-48.599 87.14.937 3.193-.547 5.478 31.95-56.383h4.474l18.003-32.295 1.746.974-18.573 33.321h-4.484L60.614 186.3M187.547 186.3l-36.049-63.616h-4.484l-18.573-33.321 1.746-.974 18.003 32.295h4.474l31.951 56.383-.548-5.478.937-3.193-48.501-86.964 1.746-.975 48.909 87.697-1.062 3.624 1.451 14.522"/><path fill="#48515A" d="M124.081 62.684c-7.168 0-13 5.832-13 13s5.832 13 13 13 13-5.832 13-13-5.832-13-13-13zm0 28c-8.272 0-15-6.729-15-15 0-8.272 6.728-15 15-15 8.271 0 15 6.728 15 15 0 8.271-6.729 15-15 15z"/><path fill="#F58E70" d="M134.081 75.683c0 5.523-4.478 10-10 10-5.523 0-10-4.477-10-10s4.477-10 10-10 10 4.477 10 10"/><path fill="#48515A" d="M124.081 80.684a1 1 0 0 1-1-1v-8a1 1 0 1 1 2 0v8a1 1 0 0 1-1 1"/><path fill="#48515A" d="M128.081 76.684h-8a1 1 0 1 1 0-2h8a1 1 0 1 1 0 2m0-15h-2V41.682c0-1.103-.898-2-2-2-1.103 0-2 .897-2 2v20.002h-2V41.682c0-2.206 1.794-4 4-4s4 1.794 4 4v20.002"/><path fill="#FFD15D" d="M60.081 141.683a2 2 0 1 1-3.999.001 2 2 0 0 1 3.999-.001m111.994-32a2 2 0 1 1 4 0 2 2 0 0 1-4 0"/><path fill="#475059" d="M125.383 212.318c-36.234 0-69.801-16.419-92.096-45.046l1.578-1.228c21.913 28.137 54.905 44.274 90.518 44.274s68.605-16.137 90.518-44.274l1.578 1.228c-22.295 28.627-55.862 45.046-92.096 45.046m-93.374-47.66a.993.993 0 0 1-.71-.29c-.189-.19-.29-.45-.29-.71 0-.26.111-.52.29-.71.09-.09.201-.16.331-.22.179-.07.379-.09.57-.05.07.01.13.03.189.05.061.03.12.06.17.1.061.03.111.08.16.12.181.19.29.45.29.71 0 .13-.029.26-.08.38-.049.12-.12.23-.21.33-.099.09-.21.16-.33.21a.991.991 0 0 1-.38.08m186.111 0c-.13 0-.26-.03-.38-.08a.977.977 0 0 1-.54-.54.995.995 0 0 1-.08-.38c0-.26.11-.52.3-.71.219-.23.57-.34.9-.27.06.01.12.03.18.05.059.03.12.06.179.1.051.03.101.08.151.12.179.19.29.45.29.71 0 .13-.031.26-.08.38-.05.12-.12.23-.21.33-.1.09-.21.16-.33.21-.12.05-.25.08-.38.08M54.878 104.855h27.07V77.786l-27.07 27.069zm29.07 2h-32v-1.897L82.05 74.855h1.898v32z"/><path fill="#475059" d="M68.911 99.049h7.23v-7.231l-7.23 7.231zm9.23 2H64.083L78.141 86.99v14.059z"/><path fill="#FFF" d="M199.152 131.787v2"/><path fill="#475059" d="M198.152 133.786h2v-2h-2z"/><path fill="#FFF" d="M199.152 135.787v2"/><path fill="#475059" d="M198.152 137.786h2v-2h-2z"/><path fill="#FFF" d="M199.152 139.787v2"/><path fill="#475059" d="M198.152 141.786h2v-2h-2z"/><path fill="#FFF" d="M199.152 143.787v2"/><path fill="#475059" d="M198.152 145.786h2v-2h-2z"/><path fill="#FFF" d="M203.152 131.787v2"/><path fill="#475059" d="M202.152 133.786h2v-2h-2z"/><path fill="#FFF" d="M203.152 135.787v2"/><path fill="#475059" d="M202.152 137.786h2v-2h-2z"/><path fill="#FFF" d="M203.152 139.787v2"/><path fill="#475059" d="M202.152 141.786h2v-2h-2z"/><path fill="#FFF" d="M203.152 143.787v2"/><path fill="#475059" d="M202.152 145.786h2v-2h-2z"/><path fill="#FFF" d="M207.152 131.787v2"/><path fill="#475059" d="M206.152 133.786h2v-2h-2z"/><path fill="#FFF" d="M207.152 135.787v2"/><path fill="#475059" d="M206.152 137.786h2v-2h-2z"/><path fill="#FFF" d="M207.152 139.787v2"/><path fill="#475059" d="M206.152 141.786h2v-2h-2z"/><path fill="#FFF" d="M207.152 143.787v2"/><path fill="#475059" d="M206.152 145.786h2v-2h-2z"/><path fill="#FFF" d="M211.152 131.787v2"/><path fill="#475059" d="M210.152 133.786h2v-2h-2z"/><path fill="#FFF" d="M211.152 135.787v2"/><path fill="#475059" d="M210.152 137.786h2v-2h-2z"/><path fill="#FFF" d="M211.152 139.787v6"/><path fill="#475059" d="M210.152 145.786h2v-6h-2z"/><path fill="#475059" d="M196.152 147.787h18v-28.004h-18v28.004zm-2 2h22v-32.004h-22v32.004z"/><path fill="#475059" d="M200.152 127.786h10v-4h-10v4zm-2 2h14v-8h-14v8z"/><path fill="#48515A" d="M183.079 71.575h2v-4h-2zM183.079 81.575h2v-4h-2zM187.079 75.575h4v-2h-4zM177.079 75.575h4v-2h-4zM34.99 141.617h2v-4h-2zM34.99 151.617h2v-4h-2zM38.99 145.617h4v-2h-4zM28.99 145.617h4v-2h-4z"/><path fill="#F58E70" d="M221.01 185.658a3 3 0 1 1-6 0 3 3 0 0 1 6 0m-150-127a2 2 0 1 1-3.999.001 2 2 0 0 1 3.999-.001m6 149a1 1 0 1 1-2 0 1 1 0 0 1 2 0"/><path fill="#DEDEDD" d="M205.01 188.658a2 2 0 1 1 4.001.001 2 2 0 0 1-4.001-.001"/></g></svg>