<?xml version="1.0" encoding="utf-8"?><svg xmlns="http://www.w3.org/2000/svg" xmlns:xlink="http://www.w3.org/1999/xlink" width="193" height="159" viewBox="0 0 193 159"><defs><path id="qba" d="M0 .878h165.108V159H0z"/></defs><g fill="none" fill-rule="evenodd"><path fill="#48515A" d="M6 44.012h2v-4H6z"/><g transform="translate(6)"><mask id="qbb" fill="#fff"><use xlink:href="#qba"/></mask><path fill="#48515A" mask="url(#qbb)" d="M0 54.012h2v-4H0z"/><path fill="#475059" d="M59.362 96.513l50.719 25.877-.203.778c-3.806 14.452 4.824 29.253 19.276 33.059 14.452 3.806 29.253-4.824 33.059-19.276 3.806-14.452-4.824-29.253-19.276-33.059a27.061 27.061 0 0 0-27.788 8.975l-.51.621-50.72-25.877.204-.779a27.039 27.039 0 0 0 0-13.665l-.204-.778 50.72-25.876.51.62c9.454 11.458 26.406 13.083 37.864 3.63 11.458-9.453 13.084-26.405 3.63-37.863C147.19 1.441 130.238-.184 118.78 9.269a26.895 26.895 0 0 0-8.902 27.563l.203.778-50.719 25.878-.51-.62c-9.463-11.525-26.476-13.198-38.001-3.736-11.525 9.462-13.197 26.476-3.735 38.001 9.462 11.525 26.475 13.197 38 3.735a26.969 26.969 0 0 0 3.736-3.735l.51-.62zM136 159c-16.019-.003-29.003-12.992-29-29.011 0-2.203.252-4.398.749-6.544L59.875 99.019c-10.504 12.091-28.821 13.378-40.912 2.874C6.872 91.389 5.586 73.072 16.09 60.981c10.504-12.091 28.821-13.377 40.912-2.873a28.965 28.965 0 0 1 2.873 2.873l47.874-24.426c-3.652-15.627 6.055-31.256 21.682-34.908 15.627-3.652 31.256 6.055 34.908 21.682 3.653 15.627-6.055 31.256-21.682 34.908a29.055 29.055 0 0 1-28.531-9.218L66.251 73.445a29.049 29.049 0 0 1 0 13.11l47.875 24.426c10.507-12.084 28.821-13.362 40.905-2.855 12.083 10.507 13.362 28.82 2.855 40.904A28.994 28.994 0 0 1 136 159z" mask="url(#qbb)"/></g><path fill="#FFD15D" d="M44 55c-13.807 0-25 11.193-25 25s11.193 25 25 25 25-11.193 25-25c-.016-13.801-11.199-24.985-25-25m98-50c-13.807 0-25 11.193-25 25s11.193 25 25 25 25-11.193 25-25c-.016-13.801-11.199-24.985-25-25m0 100c-13.807 0-25 11.193-25 25s11.193 25 25 25 25-11.193 25-25c-.016-13.801-11.199-24.985-25-25"/><path fill="#FFD15D" d="M143.008 31.601l-.881-1.796 1.433-.703.88 1.796-1.432.703zm-3.592 1.76l-.881-1.796 1.796-.88.881 1.795-1.796.881zm-3.592 1.761l-.881-1.796 1.796-.881.881 1.796-1.796.881zm-3.592 1.76l-.88-1.796 1.795-.88.881 1.796-1.796.88zm-3.591 1.761l-.881-1.796 1.796-.88.881 1.796-1.796.88zm-3.592 1.76l-.881-1.796 1.796-.88.881 1.796-1.796.88zm-3.592 1.761l-.881-1.796 1.796-.88.881 1.796-1.796.88zm-3.591 1.761l-.881-1.796 1.795-.881.881 1.796-1.795.881zm-3.592 1.76l-.88-1.795 1.795-.881.881 1.796-1.796.88zm-3.591 1.761l-.881-1.796 1.796-.88.881 1.796-1.796.88zm-3.592 1.76l-.881-1.795 1.796-.881.881 1.796-1.796.88zm-3.592 1.761l-.881-1.796 1.796-.88.881 1.796-1.796.88zm-3.592 1.761l-.881-1.796 1.796-.88.881 1.796-1.796.88zm-3.592 1.76l-.88-1.796 1.795-.88.881 1.796-1.796.88zm-3.591 1.761l-.88-1.796 1.796-.88.88 1.796-1.796.88zm-3.592 1.761l-.88-1.796 1.796-.881.88 1.796-1.796.881zm-3.592 1.76l-.88-1.795 1.796-.881.88 1.796-1.796.88zm-3.592 1.761l-.88-1.796 1.796-.88.88 1.796-1.796.88zm-3.591 1.76l-.88-1.795 1.796-.881.88 1.796-1.796.88zm-3.592 1.761l-.88-1.796 1.796-.88.88 1.796-1.796.88zm-3.592 1.761l-.879-1.796 1.795-.88.88 1.796-1.796.88zm-3.592 1.761l-.879-1.796 1.796-.881.879 1.796-1.796.881zm-3.591 1.76l-.88-1.796 1.796-.88.88 1.796-1.796.88zm-3.592 1.761l-.879-1.796 1.795-.881.88 1.796-1.796.881zm-3.591 1.76l-.88-1.796 1.796-.88.88 1.796-1.796.88zm-3.592 1.761l-.88-1.796 1.796-.88.88 1.796-1.796.88zm-3.592 1.76l-.879-1.796 1.795-.879.88 1.795-1.796.88zm-3.591 1.761l-.88-1.796 1.796-.88.88 1.796-1.796.88zm-3.592 1.761l-.88-1.796 1.796-.88.88 1.795-1.796.881z"/><path fill="#FFD15D" d="M43.356 81.778l-1.796-.88.88-1.796 1.796.88-.88 1.796zm3.592 1.761l-1.796-.88.88-1.796 1.796.88-.88 1.796zm3.591 1.76l-1.795-.88.879-1.796 1.796.88-.88 1.796zm3.592 1.761l-1.796-.881.88-1.795 1.796.88-.88 1.796zm3.592 1.761l-1.796-.881.88-1.796 1.796.881-.88 1.796zm3.591 1.76l-1.795-.88.879-1.796 1.796.881-.88 1.795zm3.592 1.761l-1.796-.88.88-1.796 1.796.88-.88 1.796zm3.592 1.76l-1.796-.88.879-1.796 1.796.881-.879 1.795zm3.591 1.761l-1.795-.88.879-1.796 1.796.88-.88 1.796zm3.592 1.761l-1.796-.88.88-1.796 1.796.88-.88 1.796zm3.592 1.761l-1.796-.881.88-1.796 1.796.881-.88 1.796zm3.591 1.76l-1.796-.881.88-1.795 1.796.88-.88 1.796zm3.592 1.761l-1.796-.881.88-1.796 1.796.881-.88 1.796zm3.592 1.76l-1.796-.88.88-1.796 1.796.88-.88 1.796zm3.592 1.761l-1.796-.88.88-1.796 1.796.88-.88 1.796zm3.59 1.76l-1.795-.88.88-1.795 1.796.879-.881 1.796zm3.592 1.761l-1.796-.88.881-1.796 1.796.88-.881 1.796zm3.592 1.761l-1.796-.881.881-1.795 1.796.88-.881 1.796zm3.592 1.761l-1.796-.881.881-1.796 1.796.881-.881 1.796zm3.592 1.76l-1.796-.88.881-1.796 1.796.88-.881 1.796zm3.591 1.761l-1.795-.881.88-1.796 1.796.881-.881 1.796zm3.591 1.76l-1.795-.88.881-1.796 1.795.88-.881 1.796zm3.592 1.761l-1.796-.88.881-1.796 1.796.88-.881 1.796zm3.592 1.76l-1.796-.88.881-1.795 1.796.879-.881 1.796zm3.592 1.761l-1.796-.88.881-1.796 1.796.88-.881 1.796zm3.591 1.761l-1.795-.881.88-1.795 1.796.88-.881 1.796zm3.592 1.761l-1.796-.881.881-1.796 1.796.881-.881 1.796zm3.592 1.76l-1.796-.88.881-1.796 1.796.88-.881 1.796zm3.229 1.583l-1.433-.703.881-1.796 1.432.703-.88 1.796z"/><path fill="#475059" d="M114.022 93.04h3.578l1.774-4.024 3.296-1.902 4.371.476 1.789-3.099-2.598-3.548v-3.806l2.598-3.547-1.789-3.099-4.371.475-3.296-1.903-1.774-4.023h-3.578l-1.774 4.023-3.295 1.903-4.372-.475-1.788 3.099 2.597 3.548v3.805l-2.597 3.548 1.788 3.099 4.372-.476 3.295 1.902 1.774 4.024zm4.882 2h-6.186l-2.036-4.618-2.162-1.249-5.019.546-3.093-5.357 2.982-4.073v-2.498l-2.982-4.072 3.093-5.357 5.019.546 2.162-1.25 2.036-4.618h6.186l2.036 4.618 2.164 1.25 5.017-.546 3.094 5.357-2.983 4.072v2.498l2.983 4.073-3.094 5.357-5.017-.546-2.164 1.249-2.036 4.618z"/><path fill="#475059" d="M115.812 77.04a2 2 0 1 0-.001 3.999 2 2 0 0 0 .001-3.999zm0 6a4 4 0 1 1 0-8 4 4 0 0 1 0 8z"/><path fill="#475059" d="M115.812 73.04a6 6 0 1 0 0 12 6 6 0 0 0 0-12zm0 14a8 8 0 0 1-8-8 8 8 0 1 1 16 0 8.01 8.01 0 0 1-8 8z"/><path fill="#48515A" d="M10 48.012h4v-2h-4zM0 48.012h4v-2H0zM184.106 94.042h2v-4h-2zM184.106 104.042h2v-4h-2zM188.106 98.042h4v-2h-4zM178.106 98.042h4v-2h-4zM64.035 144.072h2v-4h-2zM64.035 154.072h2v-4h-2zM68.035 148.072h4v-2h-4zM58.035 148.072h4v-2h-4z"/><path fill="#FFD15D" d="M33.029 112.994a5 5 0 1 1-.001 10.001 5 5 0 0 1 .001-10.001"/><path fill="#5FE0ED" d="M84.964 31.013a3 3 0 1 1 0 6 3 3 0 0 1 0-6"/><path fill="#F58E70" d="M163.771 92.022a2 2 0 1 1 0 4 2 2 0 0 1 0-4"/><path fill="#F58E70" d="M163.771 93.021a1 1 0 1 0 0 2 1 1 0 0 0 0-2zm0 4a3 3 0 1 1 0-6 3 3 0 0 1 0 6z"/><path fill="#475059" d="M44 68c-6.627 0-12 5.372-12 12 0 6.627 5.373 12 12 12s12-5.373 12-12c-.008-6.624-5.376-11.993-12-12zm0 26c-7.732 0-14-6.268-14-14s6.268-14 14-14 14 6.268 14 14c-.009 7.728-6.272 13.991-14 14zm97.999-75.998c-6.627 0-12 5.373-12 12 0 6.628 5.373 12 12 12s12-5.372 12-12c-.007-6.624-5.376-11.992-12-12zm0 26c-7.732 0-14-6.268-14-14s6.268-14 14-14 14 6.268 14 14c-.009 7.729-6.272 13.992-14 14zm-.003 74.011c-6.627 0-12 5.373-12 12s5.373 12 12 12c6.628 0 12-5.373 12-12-.007-6.624-5.376-11.993-12-12zm0 26c-7.732 0-14-6.268-14-14s6.268-14 14-14 14 6.268 14 14c-.009 7.728-6.272 13.991-14 14z"/></g></svg>