<?xml version="1.0" encoding="utf-8"?><svg xmlns="http://www.w3.org/2000/svg" width="250" height="250" viewBox="0 0 250 250"><g fill="none" fill-rule="evenodd"><path fill="#48515A" d="M214 60.96c-1.103 0-2 .898-2 2 0 1.103.897 2 2 2s2-.897 2-2c0-1.102-.897-2-2-2zm0 6c-2.206 0-4-1.793-4-4 0-2.206 1.794-4 4-4s4 1.794 4 4c0 2.207-1.794 4-4 4z"/><path fill="#475059" d="M54.5 45.881c-1.654 0-3 1.346-3 3v92.001c0 1.655 1.346 3 3 3h140c1.654 0 3-1.345 3-3V48.881c0-1.654-1.346-3-3-3h-140zm140 100.001h-140c-2.757 0-5-2.243-5-5V48.881c0-2.757 2.243-5 5-5h140c2.757 0 5 2.243 5 5v92.001c0 2.757-2.243 5-5 5z"/><path fill="#475059" d="M105.5 165.883h38.001v-.834l-3.002-18.167v-1h-31.997l-.014.996-2.988 18.17v.835zm40.001 2H103.5l.014-3.079 2.988-18.17v-2.752h35.997v2.918l3.002 18.167v2.916z"/><path fill="#475059" d="M98.5 167.882h52v-2h-52z"/><path fill="#DEDEDD" d="M107.718 163.883h33.562l-2.656-16.001H110.35l-2.632 16.001M53.5 128.882v12c0 .552.449 1 1 1h140a1 1 0 0 0 1-1v-12h-142m105.964 59.158h6v-6h-6v6zm-4 8h10v-6h-10v6zm4 8h6v-6h-6v6zm0 8h6v-6h-6v6zm-8-8h6v-6h-6v6zm0 8h6v-6h-6v6zm-8-8h6v-6h-6v6zm0 8h6v-6h-6v6zm-8-8h6v-6h-6v6zm-36 8h42v-6h-42v6zm-8 0h6v-6h-6v6zm-8 0h6v-6h-6v6zm-8 0h6v-6h-6v6zm-8 0h6v-6h-6v6zm0-8h10v-6h-10v6zm0-8h6v-6h-6v6zm0-8h10v-6h-10v6zm12 0h6v-6h-6v6zm8 0h6v-6h-6v6zm8 0h6v-6h-6v6zm8 0h6v-6h-6v6zm8 0h6v-6h-6v6zm8 0h6v-6h-6v6zm8 0h6v-6h-6v6zm4 8h6v-6h-6v6zm-4 8h6v-6h-6v6zm-4-8h6v-6h-6v6zm-4 8h6v-6h-6v6zm-4-8h6v-6h-6v6zm-4 8h6v-6h-6v6zm-4-8h6v-6h-6v6zm-4 8h6v-6h-6v6zm-4-8h6v-6h-6v6zm-4 8h6v-6h-6v6zm-4-8h6v-6h-6v6zm-4 8h6v-6h-6v6zm-4-8h6v-6h-6v6zm-8 0h6v-6h-6v6zm4 8h6v-6h-6v6zm56-16h6v-6h-6v6zm4 8h6v-6h-6v6zm4-8h6v-6h-6v6zm4 8h6v-6h-6v6zm4-8h6v-6h-6v6zm15-9h-100a2 2 0 0 0-2 2v32a2 2 0 0 0 2 2h100a2 2 0 0 0 2-2v-32a2 2 0 0 0-2-2z"/><path fill="#48515A" d="M66.464 180.04a1 1 0 0 0-1 1v32c0 .551.448 1 1 1h100c.552 0 1-.449 1-1v-32a1 1 0 0 0-1-1h-100zm100 36h-100c-1.654 0-3-1.346-3-3v-32c0-1.655 1.346-3 3-3h100c1.654 0 3 1.345 3 3v32c0 1.654-1.346 3-3 3zm17.037-32.133c-1.654 0-3 1.345-3 3v22c0 1.654 1.346 3 3 3H195.5c1.654 0 3-1.346 3-3v-22c0-1.655-1.346-3-3-3h-11.999zm11.999 30h-11.999c-2.757 0-5-2.243-5-5v-22c0-2.757 2.243-5 5-5H195.5c2.757 0 5 2.243 5 5v22c0 2.757-2.243 5-5 5z"/><path fill="#DEDEDD" d="M195.5 185.906h-5v7h-2v-7h-4.999c-.552 0-1 .449-1 1v22a1 1 0 0 0 1 1H195.5c.551 0 1-.448 1-1v-22c0-.551-.449-1-1-1"/><path fill="#48515A" d="M45 187.96h2v-4h-2zM45 197.96h2v-4h-2zM49 191.96h4v-2h-4zM39 191.96h4v-2h-4zM213 155.96h2v-4h-2zM213 165.96h2v-4h-2zM217 159.96h4v-2h-4zM207 159.96h4v-2h-4zM35 83.96h2v-4h-2zM35 93.96h2v-4h-2zM39 87.96h4v-2h-4zM29 87.96h4v-2h-4z"/><path fill="#FFD15D" d="M213.875 102.398a2.438 2.438 0 1 1-4.875 0 2.438 2.438 0 0 1 4.875 0"/><path fill="#FFD15D" d="M211.438 100.46a1.94 1.94 0 0 0-1.938 1.938 1.94 1.94 0 0 0 1.938 1.937 1.94 1.94 0 0 0 1.937-1.937 1.94 1.94 0 0 0-1.937-1.938zm0 4.875a2.94 2.94 0 0 1-2.938-2.937 2.94 2.94 0 0 1 2.938-2.938 2.94 2.94 0 0 1 2.937 2.938 2.94 2.94 0 0 1-2.937 2.937zM209 41.523a2.437 2.437 0 1 1-4.874 0 2.437 2.437 0 0 1 4.874 0"/><path fill="#FFD15D" d="M206.563 39.585a1.94 1.94 0 0 0-1.938 1.938 1.94 1.94 0 0 0 1.938 1.937 1.94 1.94 0 0 0 1.937-1.937 1.94 1.94 0 0 0-1.937-1.938zm0 4.875a2.94 2.94 0 0 1-2.938-2.937 2.94 2.94 0 0 1 2.938-2.938 2.94 2.94 0 0 1 2.937 2.938 2.94 2.94 0 0 1-2.937 2.937z"/><path fill="#5FE0ED" d="M45 65.523a2.437 2.437 0 1 1-4.874 0 2.437 2.437 0 0 1 4.874 0"/><path fill="#DEDEDD" d="M39 107.96a2 2 0 1 1-3.999.001A2 2 0 0 1 39 107.96m148 54a2 2 0 1 1-3.999.001 2 2 0 0 1 3.999-.001m-38-126a2 2 0 1 1-3.999.001A2 2 0 0 1 149 35.96"/><path fill="#48515A" d="M40 49.961h-2V42.96h-1v-2h3v9.001"/><path fill="#48515A" d="M37 50.961h4v-2h-4zM166 157.961h-2v-7.001h-1v-2h3v9.001"/><path fill="#48515A" d="M163 158.961h4v-2h-4zM209 128.959c-.552 0-1 .449-1 1v4.001a1 1 0 0 0 2 0v-4.001c0-.551-.448-1-1-1zm0 8.001c-1.654 0-3-1.345-3-3v-4.001c0-1.654 1.346-3 3-3s3 1.346 3 3v4.001c0 1.655-1.346 3-3 3zm-132 22c-.552 0-1 .449-1 1v4.001a1 1 0 0 0 2 0v-4.001c0-.551-.448-1-1-1zm0 8.001c-1.654 0-3-1.345-3-3v-4.001c0-1.654 1.346-3 3-3s3 1.346 3 3v4.001c0 1.655-1.346 3-3 3z"/></g></svg>