<?xml version="1.0" encoding="utf-8"?><svg xmlns="http://www.w3.org/2000/svg" width="250" height="250" viewBox="0 0 250 250"><g fill="none" fill-rule="evenodd"><path fill="#DEDEDD" d="M140.542 132.735c-.019.077-.028.153-.049.23-1.908 7.121-8.363 11.818-15.406 11.842l-.049.098v-.098c-7.042-.024-13.498-4.721-15.406-11.842-.02-.077-.03-.153-.049-.23l-7.733 2.072c.019.076.034.152.055.228 2.865 10.692 12.559 17.762 23.133 17.786v-.069l.049.069c10.574-.024 20.269-7.094 23.133-17.786.021-.076.036-.152.056-.228l-7.734-2.072"/><path fill="#48515A" d="M213.054 128.589h2v-4h-2zM213.054 138.589h2v-4h-2zM217.054 132.589h4v-2h-4zM207.054 132.589h4v-2h-4zM34.946 106.576h2v-4h-2zM34.946 116.576h2v-4h-2zM38.946 110.576h4v-2h-4zM28.946 110.576h4v-2h-4zM44.952 186.624h2v-4h-2zM44.952 196.624h2v-4h-2zM48.952 190.624h4v-2h-4zM38.952 190.624h4v-2h-4z"/><path fill="#F58E70" d="M55.49 85.227a2 2 0 1 1-4 0 2 2 0 0 1 4 0m152.091 73.044a2 2 0 1 1-4.001-.001 2 2 0 0 1 4.001.001"/><path fill="#FFD15D" d="M145.544 66.216a2 2 0 1 1-4.001-.001 2 2 0 0 1 4.001.001"/><path fill="#F58E70" d="M158.236 121.297l1.456-1.423-1.456 1.423M150.529 95.482a9.67 9.67 0 0 1 1.86.153 9.665 9.665 0 0 0-1.733-.162c-.043 0-.084.009-.127.009m10.805 31.177c-.7.699-1.455 1.309-2.246 1.846.139 15.114-9.901 29.039-25.159 33.149-18.103 4.876-36.797-5.886-41.672-23.988a33.88 33.88 0 0 1-1.164-9.033 15.586 15.586 0 0 1-2.451-1.998l-6.681-6.532a43.801 43.801 0 0 0 .64 20.164c6.32 23.464 30.464 37.362 53.929 31.043 22.603-6.088 36.322-28.717 31.649-51.345l-6.845 6.694"/><path fill="#48515A" d="M124.038 140.197h2v-33.323h-2zM128.882 110.503l13.336 13.302c4.498 4.497 11.815 4.499 16.311.002l13.618-13.317-13.344-13.646a11.448 11.448 0 0 0-8.147-3.37 11.458 11.458 0 0 0-8.155 3.377l-13.619 13.652zm21.495 18.676a13.492 13.492 0 0 1-9.572-3.959l-14.751-14.713 15.032-15.069a13.444 13.444 0 0 1 9.57-3.964c3.615 0 7.013 1.407 9.569 3.963l14.751 15.084-15.04 14.708a13.477 13.477 0 0 1-9.559 3.95z"/><path fill="#5FE0ED" d="M152.061 100.995l2-.016v.016c0 3.373-1.629 6.364-4.137 8.249h18.208l-10.759-11.002c-3.692-3.693-9.741-3.692-13.459.023l-10.951 10.979h11.891c4.063-.552 7.207-4.036 7.207-8.249m-2.127 10.416c2.511 1.884 4.142 4.877 4.142 8.251l-2 .017v-.017c0-4.22-3.157-7.709-7.232-8.251h-12.219l11.005 10.978c3.723 3.721 9.769 3.72 13.486.004l11.23-10.982h-18.412"/><path fill="#48515A" d="M77.852 110.49l13.61 13.309c4.505 4.505 11.821 4.504 16.318.007l13.337-13.303-13.619-13.653c-4.497-4.496-11.812-4.494-16.31.002L77.852 110.49zm21.773 18.688a13.49 13.49 0 0 1-9.569-3.957l-15.033-14.7 14.744-15.076c5.284-5.284 13.87-5.284 19.146-.008l15.032 15.07-14.752 14.714a13.487 13.487 0 0 1-9.568 3.957z"/><path fill="#5FE0ED" d="M97.939 100.995l-2-.016v.016c0 3.373 1.629 6.364 4.137 8.249H81.867l10.759-11.002c3.693-3.693 9.741-3.692 13.459.023l10.951 10.979h-11.89c-4.063-.552-7.207-4.036-7.207-8.249m2.127 10.416c-2.511 1.884-4.142 4.877-4.142 8.251l2 .017v-.017c0-4.22 3.157-7.709 7.231-8.251h12.219l-11.005 10.978c-3.722 3.721-9.768 3.72-13.485.004l-11.23-10.982h18.412"/><path fill="#48515A" d="M124.921 41.671l-19.689 20.135a17.135 17.135 0 0 0-5.057 12.199c0 4.605 1.793 8.935 5.05 12.191l19.682 19.734 20.195-20.144c6.72-6.722 6.72-17.66-.002-24.382l-20.179-19.733zm-.018 67.087L103.81 87.609a19.109 19.109 0 0 1-5.635-13.604c0-5.139 2.001-9.971 5.636-13.606l21.079-21.556 21.616 21.139c7.511 7.51 7.511 19.717.009 27.219l-21.612 21.557z"/><path fill="#5FE0ED" d="M111.162 70.868h-.23v-2h.23c5.472 0 10.25 2.984 12.825 7.402l.001-30.791-17.604 18.004c-5.965 5.965-5.966 15.634-.023 21.577l17.626 17.671V83.272c-.236-6.878-5.89-12.404-12.825-12.404m27.743-1.966h.23v2h-.23a12.758 12.758 0 0 0-9.084 3.762 12.759 12.759 0 0 0-3.763 9.085h-.071v18.28l17.424-17.381c5.94-5.94 5.94-15.609-.003-21.552l-17.421-17.035v30.382a14.921 14.921 0 0 1 2.419-3.194 14.75 14.75 0 0 1 10.499-4.347"/><path fill="#475059" d="M124.087 211.157h2v-27.469h-2zM125.099 173.829c-19.846.001-38.062-13.246-43.464-33.302-1.832-6.801-2.052-13.74-.655-20.623l1.961.398c-1.336 6.576-1.126 13.206.625 19.704 6.166 22.895 29.804 36.507 52.705 30.338 21.933-5.907 35.519-27.948 30.928-50.177l1.959-.404c4.804 23.264-9.413 46.33-32.368 52.513a44.916 44.916 0 0 1-11.691 1.553"/><path fill="#475059" d="M112.856 199.043l-12.114-3.23.251-16.399-7.553-4.348-14.054 8.454-8.877-8.853 8.417-14.078-4.366-7.541-16.4.293-3.261-12.105 14.328-7.983-.01-8.714-14.349-7.946 3.229-12.114 16.4.25 4.347-7.551-8.452-14.056 8.852-8.876 14.077 8.417 3.692-2.137 1.002 1.73-4.709 2.727-13.747-8.219-6.65 6.665 8.255 13.727-5.52 9.591-16.016-.244-2.426 9.097 14.013 7.759.014 11.068-13.992 7.796 2.449 9.09 16.014-.285 5.546 9.577-8.22 13.748 6.666 6.648 13.727-8.255 9.592 5.521-.245 16.016 9.096 2.425 7.761-14.013 11.066-.014 7.797 13.993 9.091-2.448-.287-16.016 9.578-5.545 13.748 8.219 6.649-6.665-8.255-13.727 5.52-9.592 16.016.245 2.426-9.097-14.013-7.76-.015-11.067 13.993-7.797-2.449-9.09-16.014.286-5.546-9.578 8.219-13.748-6.666-6.648-13.726 8.255-4.59-2.642.998-1.733 3.57 2.055 14.055-8.453 8.877 8.853-8.417 14.078 4.366 7.54 16.4-.292 3.26 12.105-14.328 7.983.011 8.713 14.349 7.947-3.229 12.113-16.4-.25-4.347 7.552 8.452 14.055-8.853 8.876-14.076-8.416-7.541 4.366.292 16.4-12.104 3.26-7.984-14.328-8.713.011-7.947 14.349"/><path fill="#475059" d="M125.041 156.835c-4.852 0-9.64-1.272-13.954-3.763-6.478-3.74-11.11-9.778-13.046-17.002a28.301 28.301 0 0 1-.849-4.875l1.993-.172c.133 1.554.399 3.078.788 4.529 1.798 6.709 6.099 12.315 12.114 15.788 6.016 3.473 13.023 4.392 19.729 2.597 10.556-2.828 18.265-12.043 19.184-22.93l1.992.168c-.988 11.724-9.291 21.648-20.658 24.694-2.412.646-4.86.966-7.293.966"/><path fill="#475059" d="M125.099 173.829c-19.846.001-38.062-13.246-43.464-33.302-1.832-6.801-2.052-13.74-.655-20.623l1.961.398c-1.336 6.576-1.126 13.206.625 19.704 6.166 22.895 29.804 36.507 52.705 30.338 21.933-5.907 35.519-27.948 30.928-50.177l1.959-.404c4.804 23.264-9.413 46.33-32.368 52.513a44.916 44.916 0 0 1-11.691 1.553"/><path fill="#475059" d="M125.059 145.832c-2.946 0-5.853-.773-8.472-2.286a16.885 16.885 0 0 1-7.921-10.322 16.946 16.946 0 0 1-.546-5.351l1.996.112a14.95 14.95 0 0 0 .482 4.721 14.9 14.9 0 0 0 6.989 9.108 14.901 14.901 0 0 0 11.382 1.499c6.768-1.813 11.435-8.207 11.096-15.202l1.998-.096c.384 7.928-4.905 15.174-12.577 17.23a17.153 17.153 0 0 1-4.427.587"/><path fill="#475059" d="M125.041 156.835c-4.852 0-9.64-1.272-13.954-3.763-6.478-3.74-11.11-9.778-13.046-17.002a28.301 28.301 0 0 1-.849-4.875l1.993-.172c.133 1.554.399 3.078.788 4.529 1.798 6.709 6.099 12.315 12.114 15.788 6.016 3.473 13.023 4.392 19.729 2.597 10.556-2.828 18.265-12.043 19.184-22.93l1.992.168c-.988 11.724-9.291 21.648-20.658 24.694-2.412.646-4.86.966-7.293.966"/><path fill="#475059" d="M125.059 145.832c-2.946 0-5.853-.773-8.472-2.286a16.885 16.885 0 0 1-7.921-10.322 16.946 16.946 0 0 1-.546-5.351l1.996.112a14.95 14.95 0 0 0 .482 4.721 14.9 14.9 0 0 0 6.989 9.108 14.901 14.901 0 0 0 11.382 1.499c6.768-1.813 11.435-8.207 11.096-15.202l1.998-.096c.384 7.928-4.905 15.174-12.577 17.23a17.153 17.153 0 0 1-4.427.587"/><path fill="#475059" d="M125.065 141.83c-2.252 0-4.475-.591-6.478-1.748a12.917 12.917 0 0 1-6.057-7.894 12.99 12.99 0 0 1 1.812-10.664l1.654 1.123a10.997 10.997 0 0 0-1.534 9.024 10.927 10.927 0 0 0 5.125 6.679 10.925 10.925 0 0 0 8.347 1.099 10.925 10.925 0 0 0 6.679-5.125 10.926 10.926 0 0 0 1.099-8.347 11.061 11.061 0 0 0-1.233-2.871l1.709-1.038a13.053 13.053 0 0 1 1.456 3.391 12.916 12.916 0 0 1-1.298 9.865 12.919 12.919 0 0 1-7.895 6.057c-1.12.3-2.257.449-3.386.449"/><path fill="#475059" d="M125.065 141.83c-2.252 0-4.475-.591-6.478-1.748a12.917 12.917 0 0 1-6.057-7.894 12.99 12.99 0 0 1 1.812-10.664l1.654 1.123a10.997 10.997 0 0 0-1.534 9.024 10.927 10.927 0 0 0 5.125 6.679 10.925 10.925 0 0 0 8.347 1.099 10.925 10.925 0 0 0 6.679-5.125 10.926 10.926 0 0 0 1.099-8.347 11.061 11.061 0 0 0-1.233-2.871l1.709-1.038a13.053 13.053 0 0 1 1.456 3.391 12.916 12.916 0 0 1-1.298 9.865 12.919 12.919 0 0 1-7.895 6.057c-1.12.3-2.257.449-3.386.449"/><path fill="#DEDEDD" d="M188.915 149.286l.879-3.265-19.318-5.202c-.02.076-.034.152-.055.228-5.636 20.926-24.631 34.744-45.334 34.771l-.049.018v-.018c-20.703-.027-39.698-13.845-45.334-34.771-.02-.076-.035-.152-.055-.228l-19.318 5.202.879 3.265 15.632-.279 6.724 11.614-8.022 13.418L80 178.482l13.397-8.057 11.63 6.696-.237 15.632 6.079 1.62 7.574-13.676 6.595-.009v-.02l.049.02 6.595.009 7.574 13.676 6.08-1.62-.238-15.632 11.631-6.696 13.396 8.057 4.456-4.443-8.022-13.418 6.724-11.614 15.632.279"/></g></svg>