<?xml version="1.0" encoding="utf-8"?><svg xmlns="http://www.w3.org/2000/svg" xmlns:xlink="http://www.w3.org/1999/xlink" width="181" height="190" viewBox="0 0 181 190"><defs><path id="rza" d="M0 .809h180.96V114H0z"/></defs><g fill="none" fill-rule="evenodd"><path fill="#DEDEDD" d="M135.226 94.038L90.483 81.255v91.802l44.743 12.783"/><g transform="translate(0 76)"><mask id="rzb" fill="#fff"><use xlink:href="#rza"/></mask><path fill="#DEDEDD" mask="url(#rzb)" d="M45.742 18.038L4 6.113v91.801l41.742 11.926V18.038"/><path fill="#48515A" d="M90.483 99.137l44.743 12.783 43.741-12.497V3.461l-43.741 12.497L90.483 3.175 45.741 15.958 2 3.461v95.962l43.741 12.497 44.742-12.783zM135.226 114l-44.743-12.783L45.741 114 0 100.931V.809l45.741 13.069L90.483 1.095l44.743 12.783L180.967.809v100.122L135.226 114z" mask="url(#rzb)"/></g><path fill="#FFD15D" d="M116.483 24.549V48.96h-.025c-.549 14.346-12.623 25.53-26.969 24.981-13.575-.52-24.461-11.406-24.98-24.981h-.026V24.548a34.54 34.54 0 0 0-3.969 40.1l3.012 5.529.038.065a265.266 265.266 0 0 1 24.807 55.742l2.107 6.76 2.108-6.76a264.818 264.818 0 0 1 24.532-55.734l3.33-5.594a34.536 34.536 0 0 0-3.965-40.107"/><path fill="#DEDEDD" d="M111.487 24.455l-4-3.002v-6.998h4v10"/><path fill="#475059" d="M115.5 24.803h-2V12.455h-8.012v4.998h-2v-6.998H115.5v14.348"/><path fill="#F58E70" d="M119.499 30.954L90.501 4.946 61.502 30.954l-1.988-2.13L90.501.96l30.986 27.864-1.988 2.13"/><path fill="#5FE0ED" d="M73.496 53.774h3a3 3 0 0 0 3-3V45.47h-6v8.304m14.005 0h-3a3 3 0 0 1-3-3V45.47h6v8.304m6.007-16.319h3a3 3 0 0 0 3-3v-5h-6v8m14.005 0h-3a3 3 0 0 1-3-3v-5h6v8m-34.017 0h3a3 3 0 0 0 3-3v-5h-6v8m14.005 0h-3a3 3 0 0 1-3-3v-5h6v8"/><path fill="#475059" d="M65.502 61.453h2V26.954h-2zM106.498 61.453h-2V46.455h-6.999v14.998h-2V44.455h10.999v16.998M113.5 61.525h2V27.201h-2z"/><path fill="#475059" d="M62.162 31.706l-1.321-1.502 29.66-26.081 29.659 26.08-1.321 1.502L90.501 6.787 62.162 31.706"/><path fill="#475059" d="M74.503 38.455h11.998v-8H74.503v8zm-2 2h15.998v-12H72.503v12zm21.998-2h11.998v-8H94.501v8zm-2 2h15.998v-12H92.501v12zM74.503 54.759h11.998v-8.304H74.503v8.304zm-2 2h15.998V44.455H72.503v12.304zM100.469 56.454h2v-2h-2zM90.463 121.96a8.587 8.587 0 0 0-8.587 8.588 8.587 8.587 0 0 0 17.175 0 8.597 8.597 0 0 0-8.588-8.588zm0 19.175c-5.847 0-10.587-4.741-10.587-10.588 0-5.847 4.741-10.587 10.588-10.587 5.847 0 10.587 4.741 10.587 10.588-.007 5.845-4.743 10.581-10.588 10.587z"/><path fill="#48515A" d="M155.553 150.993h2v-4h-2zM155.553 160.993h2v-4h-2zM159.553 154.993h4v-2h-4zM149.553 154.993h4v-2h-4zM23.43 36.981h2v-4h-2zM23.43 46.98h2v-4h-2zM27.43 40.98h4v-2h-4zM17.43 40.98h4v-2h-4zM162.479 43.956h2v-4h-2zM162.479 53.956h2v-4h-2zM166.479 47.956h4v-2h-4zM156.479 47.956h4v-2h-4z"/><path fill="#DEDEDD" d="M156.694 123.168l-15.565-6.671-2.673 1.604 8.232 8.233-2.828 2.828-8.111-8.111-1.624 3.267 6.797 16.459 4.833-9.72 8.111 8.111 2.828-2.829-8.232-8.232 8.232-4.939"/><path fill="#48515A" d="M120.549 103.048L131 128.356l4.473-8.996 8.387 8.388 1.414-1.415-8.431-8.43 7.654-4.592-23.948-10.263zm10.283 30.14l-14.004-33.912 32.052 13.738-8.811 5.286 8.034 8.033-4.243 4.243-7.835-7.835-5.193 10.447z"/><path fill="#475059" d="M64.181 149.83l-1.903-.619.33-1.012-1.275-.415a3.67 3.67 0 0 1 .008-6.98l1.275-.414-.7-2.161-1.275.413a3.67 3.67 0 0 1-4.099-5.652l.79-1.085-1.838-1.337-.789 1.085a3.67 3.67 0 0 1-6.637-2.164l.001-1.341-2.271-.002-.002 1.341a3.67 3.67 0 0 1-6.641 2.151l-.788-1.086-1.839 1.334.787 1.085a3.67 3.67 0 0 1-4.108 5.644l-1.275-.416-.329 1.011-1.903-.621.95-2.911 3.176 1.035a1.67 1.67 0 0 0 1.87-2.568l-1.961-2.705 5.077-3.681 1.962 2.705a1.67 1.67 0 0 0 3.022-.979l.004-3.341 6.271.005-.003 3.342a1.67 1.67 0 0 0 3.02.985l1.967-2.701 5.07 3.691-1.966 2.702a1.67 1.67 0 0 0 1.865 2.571l3.179-1.03 1.931 5.968-3.177 1.029a1.67 1.67 0 0 0-.005 3.176l3.178 1.036-.949 2.912"/><path fill="#475059" d="M54.977 146.906l-1.903-.619a6.474 6.474 0 0 0-4.149-8.164 6.475 6.475 0 0 0-8.164 4.149l-1.903-.62a8.477 8.477 0 0 1 16.119 5.254"/><path fill="#475059" d="M46.949 152.691a8.489 8.489 0 0 1-8.068-11.108l1.902.619a6.476 6.476 0 0 0 12.314 4.017l1.902.619a8.488 8.488 0 0 1-8.05 5.853"/><path fill="#475059" d="M50.058 162.347l-6.273-.007.003-3.341a1.67 1.67 0 0 0-3.019-.985l-1.967 2.702-5.072-3.693 1.968-2.702a1.67 1.67 0 0 0-1.865-2.571l-3.179 1.028-1.931-5.966 3.179-1.029a1.67 1.67 0 0 0 .002-3.178l-3.175-1.035 1.067-3.27 1.9.621-.446 1.368 1.275.415a3.67 3.67 0 0 1-.007 6.981l-1.276.414.699 2.162 1.277-.413a3.67 3.67 0 0 1 4.097 5.651l-.79 1.084 1.837 1.338.789-1.085a3.67 3.67 0 0 1 6.637 2.165l-.001 1.341 2.273.003.001-1.342a3.67 3.67 0 0 1 6.641-2.15l.787 1.086 1.84-1.334-.787-1.086a3.67 3.67 0 0 1 4.108-5.643l1.276.416.494-1.517 1.902.621-1.115 3.418-3.176-1.036a1.67 1.67 0 0 0-1.87 2.568l1.961 2.705-5.078 3.681-1.961-2.705a1.67 1.67 0 0 0-3.022.978l-.003 3.342"/><path fill="#475059" d="M46.875 141.345a3 3 0 1 0 0 6 3 3 0 0 0 0-6zm0 8a5 5 0 1 1 5-5 5.006 5.006 0 0 1-5 5z"/><path fill="#FEDE31" d="M137.165 30.46a1.94 1.94 0 1 1 0 3.878 1.94 1.94 0 0 1 0-3.878m5.782 26.5a2.463 2.463 0 1 1 0 4.927 2.463 2.463 0 0 1 0-4.927M31.331 59.423a1.902 1.902 0 1 1 0 3.804 1.902 1.902 0 0 1 0-3.804"/></g></svg>