<?xml version="1.0" encoding="utf-8"?><svg xmlns="http://www.w3.org/2000/svg" width="250" height="250" viewBox="0 0 250 250"><g fill="none" fill-rule="evenodd"><path fill="#434A4F" d="M80.007 178.351c-4.411 0-8-3.589-8-8V42.874h109.992v113.48h-2V44.874H74.007v125.477c0 3.309 2.692 6 6 6 3.309 0 6-2.691 6-6v-6.997c0-4.411 3.589-8 8-8 4.073 0 7.444 3.06 7.938 7h105.971a6.01 6.01 0 0 0-5.917-5v-2c4.411 0 8 3.589 8 8v1H100.007v-1c0-3.308-2.691-6-6-6-3.308 0-6 2.692-6 6v6.997c0 4.411-3.588 8-8 8"/><path fill="#DBDBD5" d="M110.001 35.865h30.018a4 4 0 0 1 4 3.999v12.999h-30.018V39.864a4 4 0 0 0-4-3.999"/><path fill="#75C7D0" d="M65.004 42.874h-7l.001 166.99h114.992v-7.01H65.004V42.874"/><path fill="#434A4F" d="M178.997 203.864H68.005V42.874h22.94v2h-20.94v156.99h106.992l.01-20.998 2 .001-.01 22.997M187.999 178.351v-2c3.309 0 6-2.691 6-6v-6.997h2v6.997c0 4.411-3.589 8-8 8"/><path fill="#434A4F" d="M94.007 157.354h107.991v-2H94.007zM80.007 178.351h107.992v-2H80.007z"/><path fill="#DBDBD5" d="M72.004 180.353v6.002a4 4 0 0 0 4 4h99v-10.002h-103"/><path fill="#434A4F" d="M173.997 203.864H64.005V42.874h22.94v2h-20.94v156.99h107.992v2"/><path fill="#FACD60" d="M191.999 170.351v-3.996H98.007v-3c0-2.206-1.794-4-4-4-2.205 0-4 1.794-4 4v6.996a9.946 9.946 0 0 1-.835 4h98.827c2.205 0 4-1.795 4-4"/><path fill="#434A4F" d="M115.001 51.863h28.018V39.864c0-1.654-1.346-3-3-3h-26.021a4.979 4.979 0 0 1 1.003 3v11.999zm30.018 2h-32.018V39.864c0-1.654-1.346-3-3-3-1.655 0-3 1.346-3 3v4h-2v-4c0-2.757 2.243-5 5-5h30.018c2.757 0 5 2.243 5 5v13.999zM48.369 211.053h2v-4h-2zM48.369 221.053h2v-4h-2zM52.369 215.053h4v-2h-4zM42.369 215.053h4v-2h-4zM185.451 32.947h2v-4h-2zM185.451 42.947h2v-4h-2zM189.451 36.947h4v-2h-4zM179.451 36.947h4v-2h-4zM197.458 133.007h2v-4h-2zM197.458 143.007h2v-4h-2zM201.458 137.007h4v-2h-4zM191.458 137.007h4v-2h-4z"/><path fill="#FACD60" d="M46.001 134.861a3 3 0 1 1-6 0 3 3 0 0 1 6 0m144-17a2 2 0 1 1-4.001-.001 2 2 0 0 1 4.001.001m-6 94a2 2 0 1 1-4.001-.001 2 2 0 0 1 4.001.001"/><path fill="#42494E" d="M136.001 188.861c-1.654 0-3 1.346-3 3s1.346 3 3 3h55.164l6.507-3-6.507-3h-55.164zm55.604 8h-55.604c-2.757 0-5-2.243-5-5s2.243-5 5-5h55.604l10.842 5-10.842 5z"/><path fill="#42494E" d="M141.61 195.861h2v-7.598h-2z"/><path fill="#42494E" d="M142.61 192.832h48.006v-2H142.61z"/><path fill="#DDDED9" d="M156.055 86.127l4.689-1.519.723 2.233 1.699-2.333-7.271-5.294-2.901 3.985a5.577 5.577 0 0 1-2.301 1.861c1.367 1.18 3.289 1.738 5.362 1.067m-49.698 30.378l-3.708 1.201 2.047 6.323 1.202-1.65c1.398-1.92 1.367-4.13.459-5.874m62.955-10.801l4.689-1.518-2.771-8.556-4.689 1.518c-2.921.946-5.562-.528-6.735-2.783l-.98.318c-5.181 1.677-5.188 9.004-.011 10.691l4.686 1.528-2.741 8.408-4.686-1.528c-5.177-1.688-9.49 4.235-6.294 8.643l2.893 3.991-7.281 5.278-2.893-3.99c-3.196-4.409-10.167-2.152-10.172 3.293l-.006 4.929-8.993-.01.005-4.929c.005-4.351-4.44-6.664-7.863-5.176 2.049 1.769 2.836 4.949.914 7.589l-2.901 3.985 7.27 5.294 2.901-3.985c3.205-4.402 10.171-2.13 10.165 3.315l-.005 4.929 8.993.009.006-4.929c.005-5.445 6.976-7.701 10.172-3.293l2.893 3.991 7.281-5.279-2.893-3.99c-3.196-4.409 1.117-10.331 6.294-8.643l4.686 1.528 2.741-8.409-4.686-1.527c-5.177-1.688-5.17-9.014.011-10.692"/><path fill="#42494E" d="M143.731 105.186l-1.903-.62a14.64 14.64 0 0 0-.874-11.247 14.639 14.639 0 0 0-8.57-7.334c-7.729-2.519-16.063 1.718-18.582 9.445l-1.901-.62c2.861-8.775 12.328-13.586 21.102-10.727a16.63 16.63 0 0 1 9.734 8.33 16.629 16.629 0 0 1 .994 12.773"/><path fill="#E9886C" d="M127.839 91.426c-4.687 0-8.5 3.813-8.5 8.5 0 4.687 3.813 8.5 8.5 8.5 4.687 0 8.5-3.813 8.5-8.5 0-4.687-3.813-8.5-8.5-8.5zm0 20c-6.341 0-11.5-5.159-11.5-11.5s5.159-11.5 11.5-11.5 11.5 5.159 11.5 11.5-5.159 11.5-11.5 11.5z"/><path fill="#434A4F" d="M128.791 79.947a.995.995 0 0 1-.951-1.04c.02-.56.49-.98 1.04-.96.561.03.98.5.96 1.05-.03.53-.47.95-1 .95h-.049zm-4.931-.67c-.08-.55.3-1.05.851-1.13a.995.995 0 0 1 1.129.85 1 1 0 0 1-.85 1.13c-.049.01-.089.01-.14.01a1 1 0 0 1-.99-.86zm8.69 1.21a1.004 1.004 0 0 1 .471-1.95c.54.13.87.67.74 1.21a1.003 1.003 0 0 1-1.211.74zm-12.529-.09a1 1 0 1 1 1.27.62c-.1.04-.211.06-.321.06-.42 0-.799-.26-.949-.68zm16.13 1.33a.998.998 0 0 1-.5-1.32c.229-.51.83-.73 1.33-.5.5.23.719.83.49 1.33-.171.36-.53.58-.91.58a.972.972 0 0 1-.41-.09zm-19.681.51c-.279-.48-.11-1.09.37-1.37a.996.996 0 0 1 1.36.37.986.986 0 0 1-.36 1.36c-.16.09-.33.14-.5.14-.35 0-.68-.18-.87-.5zm22.971 1.4a.998.998 0 0 1-.231-1.4.995.995 0 0 1 1.391-.23c.449.32.55.94.229 1.39-.189.28-.5.42-.809.42-.201 0-.401-.06-.58-.18zm-26.111 1.07a.998.998 0 0 1 .1-1.41.998.998 0 0 1 1.41.1c.36.42.32 1.05-.1 1.41-.19.17-.42.25-.65.25-.28 0-.56-.12-.76-.35zm28.981 1.42c-.38-.4-.361-1.04.04-1.42a.996.996 0 0 1 1.41.04c.38.4.369 1.03-.03 1.41a.989.989 0 0 1-.691.28 1.03 1.03 0 0 1-.729-.31zm-31.6 1.6a.999.999 0 0 1-.17-1.4c.349-.44.98-.51 1.409-.17.431.34.511.97.17 1.4a.982.982 0 0 1-.79.39.978.978 0 0 1-.619-.22zm33.959 1.39a1.002 1.002 0 1 1 1.681-1.09c.3.47.16 1.09-.301 1.39-.17.1-.359.16-.539.16-.33 0-.651-.17-.841-.46zm-35.959 2.07a.998.998 0 0 1 .92-1.77.995.995 0 0 1-.46 1.88.94.94 0 0 1-.46-.11zm37.699 1.31c-.21-.52.04-1.1.561-1.31.51-.2 1.09.05 1.3.56.2.51-.05 1.1-.561 1.3-.12.05-.25.07-.37.07a.997.997 0 0 1-.93-.62zm-39.009 2.47a1.006 1.006 0 0 1-.681-1.24c.161-.53.721-.83 1.241-.68.529.16.839.71.679 1.24h.011a1.006 1.006 0 0 1-1.25.68zm40.08 1.17c-.101-.54.25-1.06.79-1.17a1.01 1.01 0 0 1 1.179.8c.1.54-.259 1.06-.799 1.17-.061.01-.13.01-.191.01-.47 0-.89-.33-.979-.81zm-40.641 2.79a.992.992 0 0 1-.899-1.09.988.988 0 0 1 1.08-.9 1 1 0 0 1 .909 1.09v-.01c-.049.52-.489.91-1 .91h-.09zm41 1c0-.55.45-1 1-1 .551 0 1 .45 1 1s-.449 1-1 1c-.55 0-1-.45-1-1zm-41.899 2.09a.992.992 0 0 1 .899-1.09.999.999 0 1 1 .181 1.99c-.031 0-.06.01-.091.01a.997.997 0 0 1-.989-.91zm42.33 2.87a1.01 1.01 0 0 1-.79-1.18v.01a1 1 0 0 1 1.17-.8c.54.1.899.63.799 1.17-.099.48-.519.81-.99.81-.059 0-.12 0-.189-.01zm-41.551 1.24c-.15-.53.15-1.09.681-1.25.529-.15 1.089.15 1.239.68a.994.994 0 0 1-.679 1.24.879.879 0 0 1-.281.05c-.429 0-.83-.29-.96-.72zm40.251 2.53a.995.995 0 1 1 .739-1.85c.511.2.761.78.561 1.3a1.007 1.007 0 0 1-1.3.55zm-38.691 1.35c-.25-.49-.06-1.09.431-1.35a1.008 1.008 0 0 1 1.349.43c.25.49.06 1.1-.429 1.35a1.014 1.014 0 0 1-1.351-.43zm36.68 2.11a.995.995 0 0 1-.29-1.38c.29-.46.91-.6 1.38-.3.461.3.601.92.301 1.39a1.021 1.021 0 0 1-1.391.29zm-34.419 1.41a1.01 1.01 0 0 1 .17-1.41 1 1 0 0 1 1.399.17c.351.43.271 1.06-.16 1.41-.179.14-.4.21-.62.21a1 1 0 0 1-.789-.38zm31.81 1.61a.995.995 0 0 1-.04-1.41c.38-.4 1.019-.41 1.42-.03.399.38.41 1.01.03 1.41-.2.21-.461.31-.721.31-.25 0-.5-.09-.689-.28zm-28.921 1.41a.998.998 0 0 1-.1-1.41c.361-.41.99-.46 1.41-.1a1 1 0 0 1 .1 1.41.988.988 0 0 1-1.41.1zm25.77 1.07c-.32-.45-.21-1.08.241-1.4.45-.32 1.07-.21 1.389.23a1.005 1.005 0 0 1-.809 1.59c-.311 0-.62-.15-.821-.42zm-22.36 1.36a.988.988 0 0 1-.37-1.36c.281-.48.89-.64 1.37-.37.48.28.641.89.36 1.37a.99.99 0 0 1-.86.5.996.996 0 0 1-.5-.14zm18.811.47a.99.99 0 0 1 .5-1.32.995.995 0 0 1 1.32.49c.229.5.01 1.1-.49 1.33a1.001 1.001 0 0 1-1.33-.5zm-15.011 1.27a1 1 0 0 1-.619-1.27c.19-.52.75-.8 1.27-.62a1 1 0 0 1 .619 1.28.995.995 0 0 1-.94.67.964.964 0 0 1-.33-.06zm11.18-.14c-.129-.54.201-1.08.73-1.21.54-.13 1.08.2 1.211.74.13.53-.2 1.07-.74 1.2a.865.865 0 0 1-.231.03c-.45 0-.859-.31-.97-.76zm-7.109 1.13a1 1 0 1 1 .139.01c-.05 0-.09-.01-.139-.01zm3.129-.76a.99.99 0 0 1 .951-1.04c.549-.03 1.019.4 1.049.95a.997.997 0 0 1-.96 1.04h-.04c-.54 0-.98-.41-1-.95z"/><path fill="#434A4F" d="M133.32 136.927l-10.993-.012.006-5.929c.003-2.475-1.645-3.895-3.188-4.398-1.544-.503-3.711-.327-5.168 1.673l-3.491 4.793-8.079-5.882 1.178-1.617 6.462 4.705 2.313-3.176c1.719-2.362 4.628-3.304 7.405-2.397 2.778.906 4.571 3.379 4.568 6.301l-.004 3.929 6.993.008.004-3.929c.003-2.923 1.802-5.392 4.582-6.292 2.781-.898 5.685.047 7.4 2.413l2.306 3.181 5.662-4.105-2.305-3.181c-1.715-2.366-1.712-5.421.008-7.783 1.719-2.363 4.63-3.304 7.405-2.397l3.735 1.217 2.121-6.507-3.734-1.217c-2.778-.906-4.572-3.379-4.569-6.301.002-2.922 1.8-5.392 4.58-6.293l3.738-1.21-2.154-6.654-3.739 1.211c-2.779.901-5.684-.047-7.4-2.413-1.715-2.366-1.712-5.421.008-7.783l2.312-3.176-6.462-4.705 1.178-1.617 8.079 5.882-3.49 4.793c-1.457 2.001-.958 4.118-.006 5.432s2.806 2.445 5.166 1.684l5.641-1.826 3.387 10.458-5.642 1.827c-2.355.763-3.195 2.769-3.196 4.392-.002 1.623.835 3.63 3.188 4.397l5.637 1.838-3.361 10.31-5.636-1.838c-2.354-.769-4.215.361-5.17 1.673-.955 1.312-1.458 3.428-.005 5.432l3.479 4.8-8.9 6.453-3.48-4.8c-1.452-2.003-3.618-2.185-5.164-1.685-1.544.5-3.196 1.916-3.199 4.392l-.006 5.929m-41.14-42.98c-.13 0-.259-.03-.389-.08a.992.992 0 0 1-.321-.21c-.19-.19-.29-.45-.29-.71 0-.26.1-.52.29-.71.09-.09.201-.16.321-.21.25-.11.519-.11.769 0 .12.05.231.12.321.21.049.05.089.1.129.15.031.06.07.12.09.18.03.06.05.12.06.18.011.07.02.13.02.2a.992.992 0 0 1-.62.92.991.991 0 0 1-.38.08m3.491 1.19a.997.997 0 0 1-.641-1.26.998.998 0 0 1 1.261-.64c.529.17.809.73.639 1.26-.139.42-.53.69-.949.69-.1 0-.21-.02-.31-.05zm2.969 1.65a.998.998 0 0 1 .111-1.41.998.998 0 0 1 1.409.11c.361.41.31 1.04-.11 1.41-.19.16-.419.24-.65.24-.28 0-.56-.12-.76-.35zm1.1 3.03c0-.55.451-1 1-1 .551 0 1 .45 1 1s-.449 1-1 1c-.549 0-1-.45-1-1zm-.989 4.44a1 1 0 1 1 1.299-1.52.998.998 0 0 1-.65 1.76c-.229 0-.459-.08-.649-.24zm-3.721 1.5c-.17-.53.12-1.09.641-1.26.529-.17 1.089.12 1.27.64a1 1 0 0 1-.65 1.26c-.1.03-.201.05-.31.05-.421 0-.81-.27-.951-.69zm-2.87 1.93c-.26 0-.52-.11-.71-.3-.179-.18-.29-.44-.29-.7 0-.14.031-.26.08-.39.051-.12.12-.23.21-.32.281-.28.73-.37 1.091-.22a.972.972 0 0 1 .539.54c.06.13.08.25.08.39 0 .26-.1.52-.29.7-.19.19-.449.3-.71.3m.44 3.58a.998.998 0 1 1 1.901-.61c.17.52-.12 1.09-.641 1.26-.109.03-.21.04-.31.04a.976.976 0 0 1-.95-.69m2.33 4.97c-.06 0-.13 0-.19-.02-.069-.01-.13-.03-.19-.05a.907.907 0 0 1-.169-.1.433.433 0 0 1-.15-.12 1 1 0 0 1-.301-.71c0-.26.111-.52.301-.7.369-.38 1.04-.38 1.409 0a.42.42 0 0 1 .12.15c.04.05.07.11.1.17.021.06.04.12.05.19.02.06.02.13.02.19 0 .26-.1.52-.29.71-.19.19-.449.29-.71.29"/><path fill="#434A4F" d="M102.421 114.547a.996.996 0 0 1-.741-1.2 1 1 0 0 1 1.201-.75c.54.13.87.67.75 1.21-.11.46-.521.77-.98.77a.963.963 0 0 1-.23-.03zm-4.63-.23a1 1 0 0 1 1.9-.62 1.003 1.003 0 0 1-.951 1.31.995.995 0 0 1-.949-.69zm7.299 2.03v.01c-.319-.45-.23-1.08.22-1.4a.997.997 0 0 1 1.401.22c.319.45.219 1.07-.221 1.4-.18.12-.39.19-.589.19a.996.996 0 0 1-.811-.42zm1.811 4.18c-.551-.05-.96-.53-.92-1.08.049-.55.529-.96 1.079-.92.55.05.961.53.921 1.08-.04.53-.48.92-1 .92h-.08zm-2.13 3.4c-.451-.33-.54-.95-.221-1.4.331-.45.951-.54 1.4-.22.451.33.54.95.221 1.4-.201.27-.5.41-.811.41a.985.985 0 0 1-.589-.19zm-1.77 3.44a.98.98 0 0 1-.71-.3c-.091-.09-.171-.2-.221-.32a1.004 1.004 0 0 1-.069-.38c0-.27.099-.52.29-.71.23-.23.579-.34.9-.27.069.01.129.03.19.05.06.03.12.06.169.09.06.04.11.08.15.13a1 1 0 0 1 .301.71c0 .13-.031.26-.08.38-.051.12-.13.23-.221.32-.04.05-.09.09-.15.13-.049.03-.109.06-.169.09-.061.02-.121.04-.19.06-.06.01-.131.02-.19.02m3.04 2.45c-.441-.32-.54-.95-.221-1.39.331-.45.951-.55 1.4-.23.451.33.54.96.221 1.4-.201.27-.5.41-.81.41a.986.986 0 0 1-.59-.19m4.23 2.84c-.27 0-.531-.11-.711-.29-.09-.1-.17-.21-.22-.33a1.004 1.004 0 0 1-.069-.38c0-.07 0-.13.02-.2.009-.06.029-.12.049-.18l.09-.18c.04-.05.08-.1.13-.15a1 1 0 0 1 1.091-.21c.12.05.23.12.319.21.051.05.09.1.13.15l.091.18.06.18c.009.07.02.13.02.2a1.024 1.024 0 0 1-.301.71.973.973 0 0 1-.319.21.841.841 0 0 1-.38.08m8.869-6.07c-.53-.17-.82-.74-.65-1.26.181-.53.741-.82 1.261-.65h.009c.52.18.81.74.641 1.27-.141.42-.531.69-.951.69-.11 0-.21-.02-.31-.05zm-4.53-.43c-.209-.51.021-1.1.53-1.31.511-.21 1.1.03 1.31.54a.994.994 0 0 1-.529 1.31c-.13.05-.261.07-.391.07a1 1 0 0 1-.92-.61zm7.07 2.41c-.29-.48-.139-1.09.33-1.38.48-.28 1.09-.14 1.38.34.29.47.14 1.08-.34 1.37-.16.1-.339.15-.52.15-.33 0-.66-.18-.85-.48zm-9.65.66a.997.997 0 1 1 1.181-1.61c.449.32.549.95.219 1.39-.199.27-.5.42-.81.42-.199 0-.409-.07-.59-.2zm10.3 2.67c0-.55.45-1 1-1 .551 0 1 .45 1 1s-.449 1-1 1c-.55 0-1-.45-1-1zm1 5.02c-.07 0-.13-.01-.199-.02a.686.686 0 0 1-.19-.06.682.682 0 0 1-.17-.09l-.151-.12c-.19-.19-.29-.45-.29-.71 0-.07 0-.13.02-.2.01-.06.031-.12.051-.18.029-.06.06-.12.1-.18.029-.05.069-.1.119-.15a1.015 1.015 0 0 1 1.41 0c.05.05.09.1.13.15.031.06.071.12.091.18l.059.18c.01.07.02.13.02.2a1.009 1.009 0 0 1-1 1m3.49-1c0-.55.451-1 1.01-1 .55 0 .99.45.99 1.01 0 .55-.44.99-1 .99-.549 0-1-.45-1-1m5.5 1.01c-.059 0-.129-.01-.19-.02a.597.597 0 0 1-.189-.06.534.534 0 0 1-.17-.09c-.061-.04-.111-.08-.161-.12-.179-.19-.29-.45-.29-.71 0-.13.02-.26.081-.38.049-.13.12-.24.209-.33.05-.04.1-.09.161-.12a.534.534 0 0 1 .17-.09c.059-.03.12-.05.189-.06.19-.04.391-.02.57.06.061.02.12.05.18.09.051.03.101.08.15.12.09.09.161.2.21.33.06.12.08.25.08.38 0 .26-.11.52-.29.71l-.15.12a.739.739 0 0 1-.18.09c-.12.05-.25.08-.38.08m2.93-10.96c-.17-.53.12-1.09.641-1.26.529-.17 1.09.11 1.269.64a1.003 1.003 0 0 1-1.91.62zm4.481.74a.982.982 0 0 1-.531-1.3c.21-.51.79-.75 1.3-.54a.997.997 0 1 1-.769 1.84zm-7.13 2.22c-.471-.29-.62-.9-.34-1.38h.01a.991.991 0 0 1 1.37-.33c.469.28.62.9.34 1.37-.191.31-.521.48-.861.48a.968.968 0 0 1-.519-.14zm9.62.1c-.32-.45-.221-1.07.22-1.4.45-.32 1.08-.22 1.399.22.32.45.23 1.08-.22 1.4a1.005 1.005 0 0 1-1.399-.22zm-10.891 2.9a.994.994 0 1 1 1.99 0c0 .55-.44 1-1 1-.549 0-1-.45-.99-1zm14.061.77c-.061 0-.13-.01-.191-.02a.59.59 0 0 1-.189-.06c-.061-.02-.12-.06-.181-.09a1.73 1.73 0 0 1-.149-.13c-.181-.18-.29-.44-.29-.7 0-.27.109-.52.29-.71.05-.05.099-.09.149-.12.061-.04.12-.07.181-.1.059-.02.119-.04.189-.05.13-.03.26-.03.39 0 .061.01.12.03.181.05.059.03.12.06.179.1.05.03.1.07.151.12.179.18.29.44.29.71 0 .26-.111.52-.29.7-.191.19-.45.3-.71.3m2.83-3.05c-.32-.45-.221-1.08.22-1.4.45-.32 1.08-.23 1.399.22.33.45.221 1.07-.22 1.4a.986.986 0 0 1-.59.19c-.309 0-.61-.15-.809-.41m4.449-2.23c-.26 0-.519-.11-.71-.29-.18-.19-.29-.45-.29-.71 0-.27.11-.52.29-.71.24-.23.58-.34.91-.27.061.01.12.03.18.05a1.09 1.09 0 0 1 .33.22c.19.19.29.44.29.71 0 .26-.1.52-.29.71l-.149.12a.626.626 0 0 1-.181.09.625.625 0 0 1-.18.06c-.07.01-.13.02-.2.02m-.62-13.56c-.13-.53.2-1.07.74-1.2.54-.13 1.08.21 1.21.74.12.54-.21 1.08-.75 1.21h.011c-.08.02-.16.02-.24.02-.451 0-.861-.31-.971-.77zm4.58 1.16a.998.998 0 0 1-.64-1.27.988.988 0 0 1 1.26-.63c.521.17.811.73.641 1.26-.141.42-.531.69-.95.69-.111 0-.21-.02-.311-.05zm-7.439 1.62c-.441-.33-.55-.95-.22-1.4a.994.994 0 0 1 1.399-.22 1.001 1.001 0 0 1-1.179 1.62zm-1.481 3.04h-.01a1 1 0 0 1 .92-1.08.997.997 0 0 1 1.08.91c.04.55-.37 1.03-.92 1.08h-.08a.992.992 0 0 1-.99-.91zm1.801 4.09a1.002 1.002 0 0 1 1.619-1.18.996.996 0 0 1-.81 1.59.998.998 0 0 1-.809-.41zm11.25-7.46c-.261 0-.521-.1-.711-.29-.09-.09-.159-.2-.21-.32-.05-.13-.079-.26-.079-.39s.029-.26.079-.38c.051-.12.12-.23.21-.32.37-.38 1.051-.38 1.421 0 .09.09.159.2.21.32.05.12.08.25.08.38s-.03.26-.08.39c-.051.12-.12.23-.21.32-.191.19-.45.29-.71.29m1.059-4.25a.993.993 0 0 1-.639-1.26.993.993 0 0 1 1.26-.64c.519.17.809.73.639 1.26-.139.42-.53.69-.95.69-.1 0-.21-.02-.31-.05m1.68-4.15c-.26 0-.519-.11-.71-.3-.04-.04-.08-.1-.12-.15a.578.578 0 0 1-.09-.17.661.661 0 0 1-.059-.19c-.01-.06-.021-.13-.021-.19 0-.27.11-.53.29-.71.101-.1.21-.17.33-.22.37-.15.811-.06 1.09.22a1.004 1.004 0 0 1 0 1.41c-.05.05-.1.09-.149.13l-.181.09-.18.06c-.07.01-.13.02-.2.02m-4.76-13.2c-.17-.52.12-1.09.64-1.26a1 1 0 0 1 1.261.65c.17.52-.12 1.08-.641 1.26-.099.03-.21.05-.309.05-.42 0-.811-.27-.951-.7zm-3.12 2.4a.999.999 0 0 1-.109-1.41.988.988 0 0 1 1.409-.1c.42.35.471.99.11 1.41a1.01 1.01 0 0 1-1.41.1zm-1.679 2.93c-.01-.56.439-1 .99-1 .559 0 1 .44 1 1 0 .55-.441.99-1 1a.994.994 0 0 1-.99-1zm1.58 4.33a.998.998 0 1 1 1.509-1.31.997.997 0 0 1-.099 1.41.969.969 0 0 1-.651.25c-.28 0-.559-.12-.759-.35zm3.87 2.24a.985.985 0 0 1-.641-1.26c.17-.52.731-.81 1.261-.64.519.18.809.74.64 1.26a.994.994 0 0 1-.951.69.8.8 0 0 1-.309-.05zm4.12-12.44a.973.973 0 0 1-.7-.3.639.639 0 0 1-.13-.15c-.03-.05-.061-.11-.091-.17a4.39 4.39 0 0 1-.06-.19.995.995 0 0 1 .281-.9c.37-.37 1.04-.37 1.41 0 .189.19.29.44.29.71a.97.97 0 0 1-.29.7.986.986 0 0 1-.71.3m-2.33-4.97a.993.993 0 0 1 .639-1.26c.52-.17 1.09.12 1.26.64.17.53-.12 1.09-.639 1.26a.995.995 0 0 1-1.26-.64m-.441-3.59a1.003 1.003 0 0 1-1-1c0-.26.111-.52.3-.71.37-.37 1.04-.37 1.41 0 .191.19.29.45.29.71 0 .27-.099.52-.29.71-.189.18-.439.29-.71.29m-11.019-8.06c-.441-.33-.54-.95-.221-1.4.33-.45.95-.54 1.401-.22.45.33.549.95.219 1.4a1.008 1.008 0 0 1-1.399.22zm-1.111 3.77a1 1 0 0 1-.919-1.08c.049-.55.53-.95 1.08-.91.549.04.96.53.92 1.08-.04.52-.481.92-1 .92-.031 0-.05 0-.081-.01zm.361 3.36c-.33-.45-.231-1.07.21-1.4a.994.994 0 0 1 1.399.22.995.995 0 0 1-.22 1.4.955.955 0 0 1-.58.19.984.984 0 0 1-.809-.41zm7.019 1.47a.991.991 0 0 1 .64-1.26c.521-.17 1.091.12 1.261.65a.992.992 0 0 1-.651 1.25c-.099.04-.2.05-.299.05a.988.988 0 0 1-.951-.69zm-3.2 1.1a1 1 0 0 1-.74-1.2c.131-.54.66-.87 1.2-.75.54.13.87.67.75 1.21a1.002 1.002 0 0 1-1.21.74zm-.109-12.76c-.261 0-.521-.11-.71-.29-.181-.19-.29-.45-.29-.71 0-.26.109-.52.29-.71.369-.37 1.04-.37 1.42 0 .179.19.29.45.29.71 0 .26-.111.52-.29.71-.191.18-.45.29-.71.29m-4.231-2.84c-.439-.33-.54-.95-.219-1.4.33-.44.95-.54 1.399-.22.45.33.54.95.221 1.4a1.01 1.01 0 0 1-1.401.22m-3.04-2.45a1 1 0 0 1-.38-.08.841.841 0 0 1-.33-.22.988.988 0 0 1-.29-.7c0-.27.101-.52.29-.71.09-.1.201-.17.33-.22.18-.07.38-.09.571-.06.069.02.13.04.189.06.061.03.12.06.17.09.061.04.11.08.15.13a.976.976 0 0 1 0 1.41.62.62 0 0 1-.15.13c-.05.03-.109.06-.17.09-.059.02-.12.04-.189.06-.061.01-.13.02-.191.02m-14.07-1.25c0-.55.45-1 1-1 .551 0 1 .45 1 1 0 .56-.449 1-1 1-.55 0-1-.45-1-1zm11.131 4.29c-.45-.33-.551-.95-.231-1.4.33-.45.951-.54 1.401-.22.449.33.55.95.219 1.4-.19.27-.5.41-.81.41a.958.958 0 0 1-.579-.19zm-10.181.09c-.29-.48-.139-1.09.33-1.38.47-.28 1.09-.13 1.37.34.29.47.14 1.09-.33 1.37-.16.1-.34.15-.519.15a.978.978 0 0 1-.851-.48zm6.931 2.14c-.21-.51.029-1.1.54-1.31a.977.977 0 0 1 1.3.54.985.985 0 0 1-.531 1.3.996.996 0 0 1-1.309-.53zm-3.301.7a.991.991 0 0 1-.64-1.26 1 1 0 0 1 1.26-.65c.521.18.811.74.641 1.27-.141.42-.53.69-.95.69-.101 0-.21-.02-.311-.05zm-3.569-10.23a.996.996 0 0 1-.71-.3.963.963 0 0 1-.29-.7.958.958 0 0 1 .439-.83c.061-.04.111-.07.17-.1.061-.02.13-.04.191-.05a.852.852 0 0 1 .389 0c.07.01.13.03.191.05.059.03.12.06.17.1.059.03.11.07.149.12a1 1 0 0 1 .301.71c0 .26-.111.52-.301.7-.18.19-.44.3-.699.3m-4.501-.01c-.55 0-1-.45-1-1s.45-1 1-1c.551 0 1 .45 1 1s-.449 1-1 1m-4.5 0c-.059 0-.13-.01-.19-.02a.603.603 0 0 1-.19-.06.556.556 0 0 1-.17-.09.971.971 0 0 1-.279-.28c-.031-.05-.071-.11-.091-.17-.029-.06-.04-.12-.06-.19-.01-.06-.02-.13-.02-.19 0-.13.031-.26.08-.38.051-.13.12-.24.221-.33a.994.994 0 0 1 1.089-.21c.12.05.23.12.32.21.191.19.29.45.29.71 0 .06 0 .13-.02.19-.01.07-.03.13-.05.19a.894.894 0 0 1-.1.17.589.589 0 0 1-.12.16c-.19.18-.44.29-.71.29m0 4c-.55 0-1-.45-1-1s.45-1 1-1c.551 0 1 .45 1 1s-.449 1-1 1zm-11.52 3.07c-.32-.45-.22-1.07.22-1.4a1.005 1.005 0 0 1 1.4.23c.33.44.23 1.07-.219 1.39a.993.993 0 0 1-.591.19 1 1 0 0 1-.81-.41zm10.2.64a.994.994 0 0 1-.33-1.37c.29-.48.9-.63 1.37-.34.471.28.621.9.34 1.37a1.02 1.02 0 0 1-1.38.34zm-6.859 2.35c-.511-.22-.75-.8-.54-1.31.209-.51.799-.75 1.31-.54.509.21.75.8.54 1.31-.161.38-.54.61-.931.61a.984.984 0 0 1-.379-.07zm3.35-.48c-.171-.53.11-1.1.639-1.27v.01a.99.99 0 0 1 1.261.64c.169.52-.121 1.09-.641 1.26a.995.995 0 0 1-1.259-.64zm-8.241-5.35c-.06 0-.129-.01-.19-.02a.606.606 0 0 1-.189-.06.534.534 0 0 1-.17-.09.615.615 0 0 1-.151-.12.924.924 0 0 1-.22-.33.995.995 0 0 1-.08-.38c0-.06.011-.13.02-.2l.06-.18c.03-.06.061-.12.09-.17.04-.06.08-.11.13-.16.04-.04.091-.08.151-.12a.534.534 0 0 1 .17-.09c.06-.03.12-.05.189-.06.19-.04.391-.02.581.06a.973.973 0 0 1 .449.37c.031.05.06.11.091.17l.06.18c.009.07.009.14.009.2 0 .13-.02.26-.069.38a1.08 1.08 0 0 1-.221.33.973.973 0 0 1-.319.21.914.914 0 0 1-.391.08m-4.45 2.23a1.002 1.002 0 1 1 1.62-1.18c.33.45.23 1.08-.219 1.4a.993.993 0 0 1-.591.19 1 1 0 0 1-.81-.41m-2.829 3.05c-.261 0-.52-.11-.71-.29-.091-.1-.16-.21-.211-.33a.994.994 0 0 1-.079-.38c0-.26.109-.52.29-.71a1.015 1.015 0 0 1 1.269-.12c.05.03.1.08.151.12.19.19.29.45.29.71 0 .13-.02.26-.071.38-.06.12-.13.23-.219.33l-.151.12a.682.682 0 0 1-.17.09c-.06.03-.13.05-.19.06-.069.01-.13.02-.199.02m1.54 2.83a1.012 1.012 0 0 1 .219-1.4c.451-.32 1.08-.23 1.4.22.321.45.221 1.07-.219 1.4a.993.993 0 0 1-.591.19c-.309 0-.61-.15-.809-.41zm1.44 3.08a.996.996 0 0 1 .909-1.08.997.997 0 0 1 1.08.91c.04.55-.36 1.04-.91 1.08-.03.01-.059.01-.09.01a1 1 0 0 1-.989-.92zm-.681 4.49c-.44-.33-.54-.95-.22-1.4.33-.44.95-.54 1.401-.22.449.33.54.95.219 1.4-.199.27-.5.41-.81.41-.199 0-.409-.06-.59-.19zm-6.879 1.9a.998.998 0 1 1 .62-1.9c.529.17.819.74.65 1.26a1.02 1.02 0 0 1-.96.69c-.1 0-.201-.02-.31-.05zm3.25-.29c-.121-.53.21-1.07.75-1.2a.995.995 0 0 1 1.199.74c.131.54-.21 1.08-.739 1.21-.081.01-.161.02-.23.02-.46 0-.871-.31-.98-.77zm-6.75-.9c-.13 0-.261-.03-.391-.08a.863.863 0 0 1-.319-.22.967.967 0 0 1-.29-.7c0-.27.1-.53.29-.71a1 1 0 0 1 .319-.22c.25-.1.52-.1.77 0 .121.05.23.13.32.22.19.18.301.44.301.71 0 .06-.011.13-.021.19-.019.07-.04.13-.06.19-.03.06-.06.12-.089.17a.62.62 0 0 1-.131.15c-.09.1-.199.17-.32.22-.12.05-.25.08-.379.08m-1.681 4.15a.991.991 0 0 1-.64-1.26.994.994 0 0 1 1.26-.64c.521.17.811.73.641 1.26-.141.42-.531.69-.951.69-.109 0-.21-.02-.31-.05"/></g></svg>