<?xml version="1.0" encoding="utf-8"?><svg xmlns="http://www.w3.org/2000/svg" width="192" height="177" viewBox="0 0 192 177"><g fill="none" fill-rule="evenodd"><path fill="#5FE0ED" d="M82.999 4.999v62h-24v-62H50v88h92v-88H82.999M168 93.011a2 2 0 1 1 .001 3.999A2 2 0 0 1 168 93.01M34 140.999a2 2 0 1 1 .001 3.999 2 2 0 0 1-.001-3.999"/><path fill="#FFF" d="M19.988 16.999a4 4 0 1 1 0 8 4 4 0 0 1 0-8"/><path fill="#48515A" d="M19.988 17.999a3 3 0 1 0 0 6 3 3 0 0 0 0-6zm0 8a5 5 0 1 1 5-5 5.006 5.006 0 0 1-5 5zM6 126.999h2v-4H6zM6 136.999h2v-4H6zM10 130.999h4v-2h-4zM0 130.999h4v-2H0zM184 115.035h2v-4h-2zM184 125.035h2v-4h-2zM188 119.035h4v-2h-4zM178 119.035h4v-2h-4z"/><path fill="#475059" d="M179.049 168.01H147v-30.002h15v2h-13v26.002h28.049v-26.002h-2.05v-2h4.05v30.002"/><path fill="#475059" d="M152.049 153.01h22v-2h-22zM152.049 157.01h22v-2h-22zM152.049 161.007h14v-2h-14zM168.998 142.762l3 2.25v-7.001h-6v7.001l3-2.25zm5 6.25l-5-3.75-5 3.75v-13.001h10v13.001z"/><path fill="#FFD15D" d="M82 148.999v28h2l26-12v-16H82"/><path fill="#475059" d="M114 156.999H78v-18.675l-32-44V.997h2v92.677l32 44v17.325h32v-17.325l32-44V.997h2v93.327l-32 44v18.675"/><path fill="#FFD15D" d="M77.999 177H10.006v-2.001l2.244-1.998H80v1.873L77.999 177"/><path fill="#48515A" d="M117.101 53.987a5.008 5.008 0 0 0 4.899 4h17.105a6.995 6.995 0 0 1-2.034-4h-19.97zm26.899 6h-22a7.009 7.009 0 0 1-7-7v-1h24v1a5 5 0 0 0 10 0v-24h2v24a7.009 7.009 0 0 1-7 7z"/><path fill="#48515A" d="M140.929 27.987h19.97a5.007 5.007 0 0 0-4.899-4h-17.105a6.989 6.989 0 0 1 2.034 4zm-11.929 25h-2v-24a7.008 7.008 0 0 1 7-7h22a7.008 7.008 0 0 1 7 7v1h-24v-1a5 5 0 1 0-10 0v24z"/><path fill="#FFF" d="M131.055 147.077a4 4 0 1 1 0 8 4 4 0 0 1 0-8"/><path fill="#48515A" d="M131.055 148.077a3 3 0 1 0 0 6 3 3 0 0 0 0-6zm0 8a5 5 0 1 1 0-10 5 5 0 0 1 5 5 5.006 5.006 0 0 1-5 5zM23.904 54.999h2v-4h-2zM23.904 64.999h2v-4h-2zM27.904 58.999h4v-2h-4zM17.904 58.999h4v-2h-4zM63 62.998h4v-60h-4v60zm-2 2.001h8v-64h-8v64zm14-2.001h4v-60h-4v60zm-2 2.001h8v-64h-8v64z"/><path fill="#FFD15D" d="M6 176.999L4.002 177 4 174.999l2-2h2v2l-2 2"/></g></svg>