<?xml version="1.0" encoding="utf-8"?><svg xmlns="http://www.w3.org/2000/svg" width="192" height="182" viewBox="0 0 192 182"><g fill="none" fill-rule="evenodd"><path fill="#475059" d="M83.997 48.927h-64a3.004 3.004 0 0 1-3-3V3.994a3.004 3.004 0 0 1 3-3h64a3.004 3.004 0 0 1 3 3v17h-2v-17a1.002 1.002 0 0 0-1-1h-64a1.002 1.002 0 0 0-1 1v41.933c.001.552.448.999 1 1h64a1.002 1.002 0 0 0 1-1V26.993h2v18.934a3.004 3.004 0 0 1-3 3"/><path fill="#475059" d="M46.017 57.927h11.96l-1.48-9h-9l-1.48 9zm13.98 2h-16l.013-2.121 1.488-9.044v-1.835h12.999v1.917l1.5 9.125v1.958z"/><path fill="#475059" d="M41.997 59.927h20v-2h-20z"/><path fill="#DEDEDD" d="M20.999 39.927v4.5a.5.5 0 0 0 .5.5h60.997a.5.5 0 0 0 .5-.5v-4.5H20.999M48.373 55.927h7.244l-.83-5h-5.592l-.822 5"/><path fill="#475059" d="M172.003 48.927h-64a3.004 3.004 0 0 1-3-3V27.493h2v18.434c0 .552.448.999 1 1h64a1.002 1.002 0 0 0 1-1V3.994a1.002 1.002 0 0 0-1-1h-64c-.552.001-1 .448-1 1v17.168h-2V3.994a3.004 3.004 0 0 1 3-3h64a3.004 3.004 0 0 1 3 3v41.933a3.004 3.004 0 0 1-3 3"/><path fill="#475059" d="M134.023 57.927h11.959l-1.48-9h-8.998l-.014.078-1.467 8.922zm13.98 2h-16l.014-2.121 1.487-9.044v-1.835h12.998v1.917l1.501 9.125v1.958z"/><path fill="#475059" d="M130.003 59.927h20v-2h-20z"/><path fill="#DEDEDD" d="M109.005 39.927v4.5a.5.5 0 0 0 .5.5h60.997a.5.5 0 0 0 .5-.5v-4.5h-61.997M136.379 55.927h7.244l-.83-5h-5.592l-.822 5"/><path fill="#475059" d="M49.998 25.995h4v-4h-4v4zm-2 2h8v-8h-8v8zm89.053-2h4v-4h-4v4zm-2 2h8v-8h-8v8zm-75.887-3h2v-2h-2v2zm4 0h2v-2h-2v2zm4 0h2v-2h-2v2zm4 0h2v-2h-2v2zm4 0h2v-2h-2v2zm4 0h2v-2h-2v2zm4 0h2v-2h-2v2zm4 0h2v-2h-2v2zm6.861 1h4v-4h-4v4zm-2 2h8v-8h-8v8zm11.165-3h2v-2h-2v2zm4 0h2v-2h-2v2zm4 0h2v-2h-2v2zm4 0h2v-2h-2v2zm4 0h2v-2h-2v2zm4 0h2v-2h-2v2zm4 0h2v-2h-2v2zm4 0h2v-2h-2v2zm-36.1 7.01h1.999v-2H95.09v2zm0 4h1.999v-2H95.09v2zm0 4h1.999v-2H95.09v2zm0 4h1.999v-2H95.09v2zm0 4h1.999v-2H95.09v2zm0 4h1.999v-2H95.09v2zm0 4h1.999v-2H95.09v2zm0 4h1.999v-2H95.09v2zm0 4h1.999v-2H95.09v2zm0 4h1.999v-2H95.09v2zm0 4h1.999v-2H95.09v2zm0 4h1.999v-2H95.09v2zm0 4h1.999v-2H95.09v2zm-1.065 10.983h4v-4h-4v4zm-2 2h8v-8h-8v8z"/><path fill="#48515A" d="M6 92.005h2v-4H6zM6 102.005h2v-4H6zM10 96.005h4v-2h-4zM0 96.005h4v-2H0zM184 67.995h2v-4h-2zM184 77.995h2v-4h-2zM188 71.995h4v-2h-4zM178 71.995h4v-2h-4z"/><path fill="#FFD15D" d="M163.562 53.557a2 2 0 1 1 0 4 2 2 0 0 1 0-4"/><path fill="#FFD15D" d="M163.563 54.057a1.5 1.5 0 1 0 0 3 1.5 1.5 0 0 0 0-3zm0 4a2.5 2.5 0 1 1 0-5 2.5 2.5 0 0 1 0 5zM34 106.005a2 2 0 1 1 0 4 2 2 0 0 1 0-4"/><path fill="#FFD15D" d="M34 106.505a1.5 1.5 0 1 0 .001 3.001 1.5 1.5 0 0 0-.001-3.001zm0 4a2.5 2.5 0 1 1 0-5 2.5 2.5 0 0 1 0 5z"/><path fill="#5FE0ED" d="M120.438 111.13a2.437 2.437 0 1 1 0 4.874 2.437 2.437 0 0 1 0-4.874"/><path fill="#FFD15D" d="M8.438 137.13a2.437 2.437 0 1 1 0 4.874 2.437 2.437 0 0 1 0-4.874"/><path fill="#FFD15D" d="M8.438 137.63a1.938 1.938 0 1 0 0 3.876 1.938 1.938 0 0 0 0-3.876zm0 4.875a2.937 2.937 0 1 1-.001-5.875 2.937 2.937 0 0 1 .001 5.875z"/><path fill="#DEDEDD" d="M160 163.995a2 2 0 1 1 .001 3.999 2 2 0 0 1-.001-3.999m22-22a2 2 0 1 1 .001 3.999 2 2 0 0 1-.001-3.999"/><path fill="#48515A" d="M85 66.005h-2v-7.001h-1v-2h3v9.001"/><path fill="#48515A" d="M82 67.005h4v-2h-4zM30 59.004a1.002 1.002 0 0 0-1 1v4.001a1 1 0 0 0 2 0v-4.001a1.002 1.002 0 0 0-1-1zm0 8.001a3.004 3.004 0 0 1-3-3v-4.001a3 3 0 1 1 6 0v4.001a3.004 3.004 0 0 1-3 3z"/><path fill="#475059" d="M59.952 101.005h22V80.419l-7.414-7.414H59.952v28zm24 2h-26v-32h17.414l8.586 8.586v23.414z"/><path fill="#475059" d="M82.952 81.005h-9v-9h2v7h7v2M109.982 101.005h22V80.419l-7.414-7.414h-14.586v28zm24 2h-26v-32h17.414l8.586 8.586v23.414z"/><path fill="#475059" d="M132.982 81.005h-9v-9h2v7h7v2M83.997 171h-64a3.004 3.004 0 0 1-3-3v-41.933a3.004 3.004 0 0 1 3-3h64a3.004 3.004 0 0 1 3 3v17h-2v-17a1.002 1.002 0 0 0-1-1h-64a1.002 1.002 0 0 0-1 1V168c.001.552.448.999 1 1h64a1.002 1.002 0 0 0 1-1v-18.934h2V168a3.004 3.004 0 0 1-3 3"/><path fill="#475059" d="M46.017 180h11.96l-1.48-9h-9l-1.48 9zm13.98 2h-16l.013-2.12 1.488-9.045V169h12.999v1.917l1.5 9.125V182z"/><path fill="#475059" d="M41.997 182h20v-2h-20z"/><path fill="#DEDEDD" d="M20.999 162v4.5a.5.5 0 0 0 .5.5h60.997a.5.5 0 0 0 .5-.5V162H20.999M48.373 178h7.244l-.83-5h-5.592l-.822 5"/><path fill="#475059" d="M172.003 171h-64a3.004 3.004 0 0 1-3-3v-18.433h2V168c0 .552.448.999 1 1h64a1.002 1.002 0 0 0 1-1v-41.933a1.002 1.002 0 0 0-1-1h-64c-.552.001-1 .448-1 1v17.168h-2v-17.168a3.004 3.004 0 0 1 3-3h64a3.004 3.004 0 0 1 3 3V168a3.004 3.004 0 0 1-3 3"/><path fill="#475059" d="M134.023 180h11.959l-1.48-9h-8.998l-.014.078-1.467 8.922zm13.98 2h-16l.014-2.12 1.487-9.045V169h12.998v1.917l1.501 9.125V182z"/><path fill="#475059" d="M130.003 182h20v-2h-20z"/><path fill="#DEDEDD" d="M109.005 162v4.5a.5.5 0 0 0 .5.5h60.997a.5.5 0 0 0 .5-.5V162h-61.997M136.379 178h7.244l-.83-5h-5.592l-.822 5"/><path fill="#475059" d="M49.998 148.069h4v-4h-4v4zm-2 2h8v-8h-8v8zm89.053-2h4v-4h-4v4zm-2 2h8v-8h-8v8zm-75.887-3h2v-2h-2v2zm4 0h2v-2h-2v2zm4 0h2v-2h-2v2zm4 0h2v-2h-2v2zm4 0h2v-2h-2v2zm4 0h2v-2h-2v2zm4 0h2v-2h-2v2zm4 0h2v-2h-2v2zm6.861 1h4v-4h-4v4zm-2 2h8v-8h-8v8zm11.165-3h2v-2h-2v2zm4 0h2v-2h-2v2zm4 0h2v-2h-2v2zm4 0h2v-2h-2v2zm4 0h2v-2h-2v2zm4 0h2v-2h-2v2zm4 0h2v-2h-2v2zm4 0h2v-2h-2v2zm-36.1-47.064h1.999v-2H95.09v2zm0 4h1.999v-2H95.09v2zm0 4h1.999v-2H95.09v2zm0 4h1.999v-2H95.09v2zm0 4h1.999v-2H95.09v2zm0 4h1.999v-2H95.09v2zm0 4h1.999v-2H95.09v2zm0 4h1.999v-2H95.09v2zm0 4h1.999v-2H95.09v2zm0 4h1.999v-2H95.09v2zm0 4h1.999v-2H95.09v2z"/><path fill="#DEDEDD" d="M182.745 98.011l-28-12 12.227 29.61 4.833-9.721 7.081 7.081 2.923-2.734-7.297-7.296 8.233-4.94"/><path fill="#FFF" d="M172.739 88.005l-28-12 12.227 29.61 4.833-9.721 8.111 8.111 2.829-2.828-8.233-8.232 8.233-4.94"/><path fill="#48515A" d="M146.599 77.89l10.451 25.31 4.472-8.996 8.388 8.387 1.414-1.414-8.43-8.431 7.653-4.592-23.948-10.264zm10.283 30.141L142.878 74.12l32.052 13.736-8.812 5.287 8.034 8.034-4.242 4.242-7.835-7.834-5.193 10.446zM49 90.005h-2v-7.001h-1v-2h3v9.001"/><path fill="#48515A" d="M46 91.005h4v-2h-4zM144 109.004a1.002 1.002 0 0 0-1 1v4.001a1 1 0 1 0 2 0v-4.001a1.002 1.002 0 0 0-1-1zm0 8.001a3.004 3.004 0 0 1-3-3v-4.001a3 3 0 1 1 6 0v4.001a3.004 3.004 0 0 1-3 3z"/></g></svg>