<?xml version="1.0" encoding="utf-8"?><svg xmlns="http://www.w3.org/2000/svg" width="250" height="250" viewBox="0 0 250 250"><g fill="none" fill-rule="evenodd"><path fill="#434A4F" d="M197.674 123.646h2v-4h-2zM197.674 133.646h2v-4h-2zM201.674 127.646h4v-2h-4zM191.674 127.646h4v-2h-4z"/><path fill="#FACD60" d="M154.175 60.647V84.49h23.842"/><path fill="#434A4F" d="M72.687 116.527a1 1 0 0 1-1-1v-55.88h17.689a1 1 0 1 1 0 2h-15.69v53.88c0 .553-.447 1-.999 1m21.437-54.88a.954.954 0 0 1-.7-.29 1 1 0 0 1-.3-.71c0-.261.11-.521.3-.71.37-.37 1.04-.37 1.41 0 .19.189.29.449.29.71 0 .13-.02.26-.07.38s-.13.229-.22.33a.994.994 0 0 1-.71.29"/><path fill="#E9886C" d="M162.748 102.53c0 8.285-6.716 15-15 15-8.285 0-15-6.715-15-15 0-8.284 6.715-14.999 15-14.999 8.284 0 15 6.715 15 14.999"/><path fill="#434A4F" d="M144.193 101.51l4.949.018c1.564-.215 2.779-1.697 2.779-3.486 0-1.936-1.423-3.511-3.172-3.511h-4.556v6.979zm0 9.021h5.939c1.749 0 3.172-1.575 3.172-3.512 0-1.924-1.423-3.488-3.172-3.488l-.875-.003a5.008 5.008 0 0 1-.508.026h-4.556v6.977zm5.939 2h-6.939a1 1 0 0 1-1-1v-18a1 1 0 0 1 1-1h5.556c2.852 0 5.172 2.472 5.172 5.513a5.67 5.67 0 0 1-1.614 3.996c1.767.873 2.997 2.776 2.997 4.979 0 3.039-2.321 5.512-5.172 5.512z"/><path fill="#FACD60" d="M117.732 102.036c0 8.557-6.937 15.494-15.494 15.494-8.558 0-15.495-6.937-15.495-15.494 0-8.558 6.937-15.495 15.495-15.495 8.557 0 15.494 6.937 15.494 15.495"/><path fill="#434A4F" d="M109.513 112.036c-.397 0-.772-.238-.929-.629l-6.285-15.712-6.412 15.572a1 1 0 0 1-1.849-.762l7.35-17.85a.999.999 0 0 1 .925-.619h.004a1 1 0 0 1 .924.629l7.2 18a1 1 0 0 1-.928 1.371"/><path fill="#434A4F" d="M107.166 106.637h-9.675a1 1 0 1 1 0-2h9.675a1 1 0 1 1 0 2m-19.422 28.896v.001-.001zm0 2.001c-1.103 0-2-.898-2-2 0-1.103.897-2 2-2s2 .897 2 2c0 1.102-.897 2-2 2zm30-1h-24a1 1 0 1 1 0-2h24a1 1 0 1 1 0 2m-30 7.004v.001-.001zm0 2.001c-1.103 0-2-.898-2-2 0-1.103.897-2 2-2s2 .897 2 2c0 1.102-.897 2-2 2zm30-1h-24a1 1 0 1 1 0-2h24a1 1 0 1 1 0 2m-30 7.003v.001-.001zm0 2.001c-1.103 0-2-.897-2-2 0-1.102.897-2 2-2s2 .898 2 2c0 1.103-.897 2-2 2zm30-1h-24a1 1 0 1 1 0-2h24a1 1 0 0 1 0 2m-30 7.004v.001-.001zm0 2.001c-1.103 0-2-.897-2-2 0-1.102.897-2 2-2s2 .898 2 2c0 1.103-.897 2-2 2zm30-1h-24a1 1 0 1 1 0-2h24a1 1 0 0 1 0 2m-30 15.008h.01-.01zm0 0h.01-.01zm0 0h.01-.01zm0 0h.01-.01zm0 .001h.01-.01zm0 0h.01-.01zm0 0h.01-.01zm0 0h.01-.01zm0 2c-1.103 0-2-.897-2-2 0-1.102.897-2 2-2s2 .898 2 2c0 1.103-.897 2-2 2zm30-.999h-24a1 1 0 1 1 0-2h24a1 1 0 1 1 0 2m-30-9.007h.01-.01zm0 0h.01-.01zm0 0h.01-.01zm0 0h.01-.01zm0 .001h.01-.01zm0 0h.01-.01zm0 0h.01-.01zm0 0h.01-.01zm0 2c-1.103 0-2-.897-2-2 0-1.102.897-2 2-2s2 .898 2 2c0 1.103-.897 2-2 2zm30-.999h-24a1 1 0 1 1 0-2h24a1 1 0 1 1 0 2m16.027-33.021v.002-.002zm0 2.002c-1.102 0-2-.898-2-2 0-1.103.898-2 2-2 1.103 0 2 .897 2 2 0 1.102-.897 2-2 2zm30-1h-24a1 1 0 0 1 0-2h24a1 1 0 1 1 0 2m-30 7.003v.002-.002zm0 2.002c-1.102 0-2-.898-2-2 0-1.103.898-2 2-2 1.103 0 2 .897 2 2 0 1.102-.897 2-2 2zm30-1h-24a1 1 0 0 1 0-2h24a1 1 0 1 1 0 2m-30 7.003v.001-.001zm0 2.001c-1.102 0-2-.897-2-2 0-1.102.898-2 2-2 1.103 0 2 .898 2 2 0 1.103-.897 2-2 2zm30-1h-24a1 1 0 1 1 0-2h24a1 1 0 1 1 0 2m-30 7.003v.002-.002zm0 2.002c-1.102 0-2-.897-2-2 0-1.102.898-2 2-2 1.103 0 2 .898 2 2 0 1.103-.897 2-2 2zm30-1h-24a1 1 0 1 1 0-2h24a1 1 0 1 1 0 2m-30 15.008v.001-.001zm0 2.001c-1.102 0-2-.897-2-2 0-1.102.898-2 2-2 1.103 0 2 .898 2 2 0 1.103-.897 2-2 2zm30-.999h-24a1 1 0 1 1 0-2h24a1 1 0 1 1 0 2m-30-9.007v.001-.001zm0 2.001c-1.102 0-2-.897-2-2 0-1.102.898-2 2-2 1.103 0 2 .898 2 2 0 1.103-.897 2-2 2zm30-.999h-24a1 1 0 1 1 0-2h24a1 1 0 1 1 0 2"/><path fill="#434A4F" d="M98.896 61.647h54.865l23.257 23.257v81.95h2V84.076l-24.429-24.429H98.896a1 1 0 1 0 0 2m78.122 132.689v8.366H73.686v-49.175a.999.999 0 1 0-1.999 0v51.175h107.331v-10.366h-2"/><path fill="#434A4F" d="M189.824 34.473c-15.92 0-28.872 12.951-28.872 28.871 0 11.723 7.001 22.196 17.837 26.684a1 1 0 0 1 .613 1.014 8.19 8.19 0 0 1-2.633 5.331c3.015-.432 5.768-1.874 7.894-4.166.226-.241.557-.354.88-.308 1.423.211 2.863.317 4.281.317 15.92 0 28.872-12.952 28.872-28.872s-12.952-28.871-28.872-28.871zm-14.995 64.038h-3.611a1 1 0 1 1 0-2 6.183 6.183 0 0 0 6.088-4.943 30.788 30.788 0 0 1-18.354-28.224c0-17.022 13.85-30.871 30.872-30.871 17.023 0 30.872 13.849 30.872 30.871 0 17.023-13.849 30.872-30.872 30.872-1.345 0-2.708-.09-4.06-.267a15.47 15.47 0 0 1-10.935 4.562z"/><path fill="#434A4F" d="M172.746 51.526h34v-2h-34zM172.746 55.676h34v-2h-34zM172.746 59.679h34v-2h-34zM197.947 75.003l-3.8-3.799 1.415-1.414 2.385 2.385 9.093-9.092 1.414 1.414-10.507 10.506M184.039 75.312l-8-8 1.414-1.414 8 8-1.414 1.414"/><path fill="#434A4F" d="M177.453 75.312l-1.414-1.414 8-8 1.414 1.414-8 8"/><path fill="#434A4F" d="M174.746 76.605h12v-12h-12v12zm-2 2h16v-16h-16v16zM206.746 78.605h-16v-16h12.833v2h-10.833v12h12v-6.916h2v8.916M171.731 193.336h42.261v-25.482h-42.261v25.482zm-2 2h46.261v-29.482h-46.261v29.482z"/><path fill="#434A4F" d="M192.862 181.873a.995.995 0 0 1-.537-.157l-16.124-10.275 1.074-1.688 15.585 9.933 14.95-9.592 1.08 1.684-15.488 9.936a.994.994 0 0 1-.54.159M210.832 191.408l-8.923-10.706 1.537-1.282 8.923 10.706-1.537 1.282M174.892 191.408l-1.538-1.282 8.923-10.706 1.537 1.282-8.922 10.706M193.713 211.268h2v-14.036h-2zM194.714 215.617c-.27 0-.52-.111-.71-.3-.09-.09-.17-.2-.22-.32a.99.99 0 0 1-.07-.38c0-.14.02-.26.08-.39.05-.12.12-.23.21-.32.23-.231.58-.34.9-.271.07.011.13.031.19.051.06.029.12.06.17.09.06.04.11.08.15.13.1.09.17.2.22.32.05.13.08.25.08.39a1 1 0 0 1-.3.7c-.09.1-.2.17-.32.22-.12.049-.25.08-.38.08M202.404 202.571h2v-5.339h-2zM203.404 206.917c-.27 0-.52-.1-.71-.291a.986.986 0 0 1-.29-.709c0-.26.11-.52.29-.71l.15-.121c.06-.04.12-.069.18-.089.06-.031.12-.05.18-.06.33-.07.68.04.91.27.18.19.29.45.29.71 0 .27-.1.52-.29.709-.1.09-.21.17-.33.22a.968.968 0 0 1-.38.071M185.016 205.47h2v-8.238h-2zM186.014 209.817c-.13 0-.26-.03-.38-.08s-.23-.12-.33-.21a.995.995 0 0 1-.21-1.09c.05-.13.12-.24.21-.33.37-.37 1.05-.37 1.42 0 .18.189.29.439.29.71 0 .269-.1.519-.29.71-.19.18-.44.29-.71.29"/><path fill="#42494E" d="M44.557 136.95a11.518 11.518 0 0 1-.687-8.843 11.516 11.516 0 0 1 5.767-6.738 11.508 11.508 0 0 1 8.843-.688 11.511 11.511 0 0 1 6.739 5.767l-1.784.906a9.52 9.52 0 0 0-5.575-4.771 9.533 9.533 0 0 0-7.317.569 9.525 9.525 0 0 0-4.772 5.575 9.53 9.53 0 0 0 .569 7.316l-1.783.907"/><path fill="#E9886C" d="M54.865 128.155c-.897 0-1.793.342-2.475 1.023a3.474 3.474 0 0 0-1.025 2.476c0 .934.363 1.813 1.025 2.474 1.322 1.323 3.628 1.323 4.949 0a3.473 3.473 0 0 0 1.026-2.474 3.496 3.496 0 0 0-3.5-3.499zm0 9.999a6.462 6.462 0 0 1-4.597-1.904 6.46 6.46 0 0 1-1.903-4.596 6.46 6.46 0 0 1 1.903-4.597c2.535-2.533 6.659-2.535 9.193 0a6.457 6.457 0 0 1 1.904 4.597 6.46 6.46 0 0 1-1.904 4.596 6.46 6.46 0 0 1-4.596 1.904z"/><path fill="#434A4F" d="M51.336 148.576c.26 0 .523.02.789.062 2.085.332 3.643 1.895 3.971 3.98l.36 2.287 4.002-.629-.36-2.288c-.328-2.084.675-4.049 2.556-5.005 1.883-.958 4.061-.609 5.552.885l1.636 1.639 2.867-2.861-1.636-1.64c-1.491-1.494-1.834-3.673-.873-5.553.961-1.879 2.926-2.881 5.011-2.546l2.287.364.638-4-2.287-.364c-2.084-.332-3.643-1.895-3.971-3.979-.328-2.085.676-4.05 2.558-5.007l2.064-1.048-1.79-3.521-2.064 1.049c-1.881.955-4.061.61-5.551-.885-1.491-1.493-1.834-3.673-.874-5.553l1.054-2.062-3.608-1.842-1.053 2.063c-.961 1.878-2.928 2.882-5.011 2.545-2.084-.332-3.643-1.893-3.971-3.978l-.361-2.287-4.001.629.36 2.289c.328 2.084-.675 4.049-2.556 5.005-1.882.956-4.06.61-5.552-.885l-1.636-1.639-2.866 2.862 1.636 1.639c1.49 1.493 1.833 3.673.874 5.552-.96 1.88-2.927 2.885-5.011 2.548l-2.288-.364-.637 4 2.286.364c2.085.332 3.643 1.894 3.972 3.979.327 2.085-.677 4.049-2.558 5.005l-2.064 1.05 1.788 3.518 2.064-1.049c1.881-.955 4.061-.61 5.551.885 1.491 1.494 1.834 3.673.874 5.553l-1.053 2.062 3.607 1.843 1.053-2.063c.838-1.64 2.442-2.609 4.222-2.609zm3.455 8.616l-.67-4.264c-.232-1.471-1.346-2.161-2.31-2.314-.963-.155-2.237.154-2.915 1.481l-1.964 3.844-7.17-3.663 1.964-3.843c.678-1.327.182-2.539-.508-3.23-.691-.694-1.902-1.19-3.229-.515l-3.848 1.955-3.599-7.084 3.846-1.956c1.328-.675 1.639-1.946 1.488-2.911-.152-.965-.838-2.08-2.311-2.316l-4.261-.678 1.267-7.951 4.263.68c1.467.232 2.47-.611 2.914-1.482.445-.87.544-2.176-.508-3.231l-3.049-3.053 5.698-5.688 3.049 3.055c1.054 1.054 2.358.957 3.23.514.871-.443 1.719-1.44 1.487-2.912l-.671-4.263 7.953-1.252.67 4.263c.232 1.472 1.346 2.162 2.31 2.315.963.153 2.238-.153 2.916-1.482l1.963-3.843 7.169 3.662-1.963 3.844c-.677 1.327-.182 2.538.509 3.229.689.692 1.899 1.189 3.229.515l3.847-1.955 3.602 7.087-3.847 1.955c-1.329.674-1.64 1.947-1.488 2.913.152.965.838 2.079 2.31 2.314l4.262.679-1.268 7.951-4.262-.681c-1.469-.227-2.471.612-2.915 1.482-.445.87-.545 2.176.508 3.231l3.048 3.054-5.698 5.687-3.049-3.055c-1.053-1.055-2.357-.956-3.229-.515-.871.443-1.719 1.441-1.488 2.912l.671 4.265-7.953 1.25z"/><path fill="#434A4F" d="M52.884 117.756c-.04-.549.38-1.029.93-1.069.55-.04 1.03.38 1.07.93.03.55-.38 1.03-.93 1.07h-.07c-.52 0-.96-.4-1-.931zm4.76 1.201v-.01a.993.993 0 0 1-.76-1.191.99.99 0 0 1 1.19-.759 1.003 1.003 0 1 1-.22 1.98c-.07 0-.14-.011-.21-.02zm-8.6-.081c-.19-.519.08-1.099.59-1.29.52-.189 1.1.071 1.29.59.19.521-.07 1.091-.59 1.29-.12.04-.23.061-.35.061-.41 0-.79-.25-.94-.651zm12.07 1.371a.996.996 0 0 1-.4-1.361 1 1 0 0 1 1.36-.389c.48.259.66.87.39 1.349a.973.973 0 0 1-.87.521c-.17 0-.33-.04-.48-.12zm-15.43.79a1.003 1.003 0 0 1 .2-1.401 1.005 1.005 0 0 1 1.4.2c.33.441.24 1.071-.2 1.401-.18.13-.39.2-.6.2-.3 0-.6-.141-.8-.4zm18.37 1.429a1.008 1.008 0 0 1 0-1.42 1.01 1.01 0 0 1 1.42 0c.39.391.39 1.021 0 1.42-.2.191-.45.29-.71.29-.26 0-.51-.099-.71-.29zm-20.99 1.58c-.44-.33-.53-.96-.2-1.399.33-.44.96-.53 1.4-.2.44.34.53.96.2 1.41v-.011c-.2.271-.5.401-.8.401-.21 0-.42-.06-.6-.201zm23.21 1.38a1.009 1.009 0 0 1 .4-1.359.995.995 0 0 1 1.36.399.993.993 0 0 1-.4 1.351c-.15.09-.31.13-.48.13-.35 0-.69-.191-.88-.521zm-24.87 2.261a.999.999 0 0 1-.59-1.29.995.995 0 0 1 1.28-.59 1.003 1.003 0 0 1-.35 1.94c-.11 0-.23-.02-.34-.06zm26.16 1.199a.994.994 0 0 1 .77-1.179.995.995 0 0 1 1.19.759c.12.54-.23 1.071-.77 1.191-.07.019-.14.019-.21.019-.46 0-.87-.319-.98-.79zm-26.74 2.75a.996.996 0 1 1 .15-1.989c.55.04.96.51.92 1.069a.985.985 0 0 1-.99.92h-.08zm27.93 2.011a.983.983 0 0 1-.92-1.061.997.997 0 1 1 1.99.141.995.995 0 0 1-.99.93c-.03 0-.05 0-.08-.01zm-28.55 1.18c-.12-.54.23-1.071.77-1.191a.997.997 0 0 1 1.18.771.995.995 0 0 1-.97 1.21c-.46 0-.88-.321-.98-.79zm27.43 2.66a.997.997 0 0 1-.59-1.28v-.01a1.002 1.002 0 0 1 1.88.7 1.013 1.013 0 0 1-1.29.59zm-25.94 1.349a.991.991 0 0 1 .4-1.359.983.983 0 0 1 1.35.399.985.985 0 0 1-.4 1.351c-.15.09-.31.13-.48.13-.35 0-.69-.19-.87-.521zm23.78 2.01a.984.984 0 0 1-.2-1.399c.33-.441.96-.53 1.4-.2.44.33.53.96.2 1.4-.2.26-.5.399-.8.399a.957.957 0 0 1-.6-.2zm-21.22 1.41a1.008 1.008 0 0 1 0-1.42.998.998 0 0 1 1.41 0c.39.391.39 1.031 0 1.42-.2.191-.45.29-.71.29a.997.997 0 0 1-.7-.29zm18.2 1.21a.993.993 0 0 1 .2-1.399c.44-.33 1.06-.24 1.4.2.33.44.24 1.069-.2 1.4-.18.129-.39.2-.6.2-.31 0-.61-.14-.8-.401zm-14.79 1.351c-.48-.271-.66-.87-.4-1.36.27-.48.88-.661 1.36-.4.49.27.66.88.4 1.36a1.009 1.009 0 0 1-1.36.4zm11.15.309c-.19-.519.07-1.099.59-1.29a.994.994 0 0 1 1.28.59c.2.521-.07 1.091-.58 1.29-.12.04-.24.061-.35.061-.41 0-.79-.25-.94-.651zm-7.15 1.181a.996.996 0 0 1-.76-1.19c.11-.54.65-.88 1.19-.76a.99.99 0 0 1 .76 1.189c-.1.471-.51.79-.97.79a.831.831 0 0 1-.22-.029zm3.19-.62c-.04-.551.38-1.03.93-1.07.55-.031 1.03.38 1.07.929.04.55-.38 1.031-.93 1.071h-.07c-.52 0-.96-.401-1-.93z"/><path fill="#42494E" d="M72.969 176.431c-5.923 0-10.741 4.819-10.741 10.741 0 5.923 4.818 10.742 10.741 10.742s10.741-4.819 10.741-10.742c0-5.922-4.818-10.741-10.741-10.741zm0 23.483c-7.026 0-12.741-5.716-12.741-12.742 0-7.025 5.715-12.741 12.741-12.741 7.025 0 12.741 5.716 12.741 12.741 0 7.026-5.716 12.742-12.741 12.742z"/><path fill="#42494E" d="M72.968 176.431c-2.885 0-5.323 4.919-5.323 10.741 0 5.823 2.438 10.742 5.323 10.742 2.884 0 5.322-4.919 5.322-10.742 0-5.822-2.438-10.741-5.322-10.741zm0 23.483c-4.106 0-7.322-5.597-7.322-12.742 0-7.144 3.216-12.741 7.322-12.741s7.322 5.597 7.322 12.741c0 7.145-3.216 12.742-7.322 12.742z"/><path fill="#42494E" d="M61.227 188.172h23.482v-2H61.227z"/><path fill="#434A4F" d="M56.589 206.696h2v-4h-2zM56.589 216.696h2v-4h-2zM60.589 210.696h4v-2h-4zM50.589 210.696h4v-2h-4zM56.589 76.618h2v-4h-2zM56.589 86.618h2v-4h-2zM60.589 80.618h4v-2h-4zM50.589 80.618h4v-2h-4z"/><path fill="#FACD60" d="M190.744 148.527a3 3 0 1 1-6 0 3 3 0 0 1 6 0m-128-52a3 3 0 1 1-6 0 3 3 0 0 1 6 0"/><path fill="#E9886C" d="M120.744 213.527a4 4 0 1 1-8 0 4 4 0 0 1 8 0"/></g></svg>