<?xml version="1.0" encoding="utf-8"?><svg xmlns="http://www.w3.org/2000/svg" width="250" height="250" viewBox="0 0 250 250"><g fill="none" fill-rule="evenodd"><path fill="#DEDEDD" d="M103.182 150.355v16.714h4.785l3.426-1.94-.062-.228 9.079-4.877 8.844 4.39-.104.456 3.965 2.199h4.886l.001-16.714-.001 16.714h41.303l-.685-4.63-40.743-12.256h-34.603l-40.239 12.209-.651 4.677h40.799v-16.714"/><path fill="#475059" d="M195.577 170.15h14v-2h-14v2zm-2 2h18v-6h-18v6zm5.573-14h8.097v-2h-1.945v-12h1.945v-2h-8.097v2h2.097v12h-2.097v2zm10.097 2H197.15v-6h2.097v-8h-2.097v-6h12.097v6h-1.945v8h1.945v6z"/><path fill="#475059" d="M200.247 146.15h6.055v-2h-6.055zM200.247 156.15h6.055v-2h-6.055zM179.578 151.151h20v-2h-20z"/><path fill="#F58E70" d="M129.254 164.414l-3.666 16.052 7.261 39.528h-24.514l7.182-39.528-4.186-15.565 9.079-4.876 8.844 4.389"/><path fill="#475059" d="M56.167 218.995h129.808l-8.252-55.782-39.994-12.03h-34.308l-39.485 11.981-7.769 55.831zm132.126 2H53.869l8.263-59.374 41.141-12.438h34.75l.141.042 41.352 12.44 8.777 59.33z"/><path fill="#475059" d="M102.182 171.493v-21.138h2v17.708l16.223-9.185 16.597 9.202v-17.725h2v21.121l-18.588-10.305-18.232 10.322"/><path fill="#FFD15D" d="M179.223 60.483v72.292h-46.93a4.125 4.125 0 0 0-4.125 4.125h52.555v-.75h4.5V60.483h-6m-66.68 76.417a4.124 4.124 0 0 0-4.125-4.125H62.401V60.483h-6v75.667h4.5v.75h51.642"/><path fill="#475059" d="M117.413 140.15h-2v-3.011a6.95 6.95 0 0 0-2.041-4.954 6.95 6.95 0 0 0-4.943-2.063l-47.017-.159.007-2 47.016.159a8.93 8.93 0 0 1 6.354 2.652 8.937 8.937 0 0 1 2.624 6.367v3.009"/><path fill="#475059" d="M113.418 137.051h-2c0-1.654-1.345-3-3-3H61.402v-2h47.016c2.757 0 5 2.243 5 5m12 3.1l-2-.002.005-3.011a8.935 8.935 0 0 1 2.624-6.364 8.935 8.935 0 0 1 6.355-2.652l47.924-.069.003 2-47.923.069c-3.859.008-6.992 3.155-6.983 7.015l-.005 3.014"/><path fill="#475059" d="M129.418 137.051h-2c0-2.757 2.243-5 5-5h47.909v2h-47.909c-1.654 0-3 1.346-3 3"/><path fill="#475059" d="M120.352 141.54h-.002a11.175 11.175 0 0 1-8.11-3.489H55.399l.002-78.578h7v2h-5l-.002 74.578h55.737l.299.343a9.174 9.174 0 0 0 6.915 3.146h.002a9.185 9.185 0 0 0 6.921-3.146l.299-.343h56.775V61.473h-5v-2h7v78.578h-57.879a11.182 11.182 0 0 1-8.116 3.489"/><path fill="#475059" d="M63.387 124.139h45.031c5.397 0 10.037 3.307 12 8 1.963-4.693 6.603-8 12-8h45.943V54.473h-45.943c-6.065 0-11 4.935-11 11h-2c0-6.065-4.934-11-11-11H63.387v69.666zm58.031 13h-2c0-6.065-4.934-11-11-11h-47.03V52.473h47.03c5.397 0 10.037 3.307 12 8 1.963-4.693 6.603-8 12-8h47.943v73.666h-47.943c-6.065 0-11 4.935-11 11z"/><path fill="#475059" d="M119.418 133.139h2V65.473h-2z"/><path fill="#475059" d="M121.396 135.201h-2a19.598 19.598 0 0 0-14.749-18.996l-28.251-7.227V32.914l28.747 7.353a21.596 21.596 0 0 1 16.253 20.934h-2a19.598 19.598 0 0 0-14.749-18.996L78.396 35.49v71.935l26.747 6.842a21.596 21.596 0 0 1 16.253 20.934"/><path fill="#475059" d="M121.397 135.201h-2a21.596 21.596 0 0 1 16.253-20.934l26.747-6.842V35.49l-26.251 6.715a19.598 19.598 0 0 0-14.749 18.996h-2a21.596 21.596 0 0 1 16.253-20.934l28.747-7.353v76.064l-28.251 7.227a19.598 19.598 0 0 0-14.749 18.996"/><path fill="#475059" d="M143.841 87.771l6.506 2.999 53.163-.002c1.654 0 3-1.346 3-3s-1.346-3-3-3l-53.163.002-6.506 3.001zm6.067 4.999l-10.843-4.999 10.842-5.001 53.603-.002c2.757 0 5 2.243 5 5s-2.243 5-5 5l-53.602.002z"/><path fill="#475059" d="M195.901 91.367l-.001-7.598h2l.001 7.598h-2"/><path fill="#475059" d="M150.896 88.799v-2l46.004-.002v2l-46.004.002"/><path fill="#DEDEDD" d="M67.736 191.995a8 8 0 0 1-8 8 8 8 0 0 1-8-8 8 8 0 1 1 16 0"/><path fill="#475059" d="M56.433 201.978a2.329 2.329 0 0 1 2.217 1.597l.73 2.192a.333.333 0 0 0 .317.229c.221 0 .349-.092.394-.229l.731-2.192a2.33 2.33 0 0 1 1.61-1.517 2.325 2.325 0 0 1 2.153.509l1.729 1.533a.332.332 0 0 0 .388.039c.192-.111.256-.254.227-.394l-.463-2.265a2.323 2.323 0 0 1 .637-2.118 2.326 2.326 0 0 1 2.118-.636l2.263.463a.344.344 0 0 0 .357-.16c.11-.192.094-.348-.001-.456l-1.534-1.728a2.328 2.328 0 0 1-.507-2.155 2.327 2.327 0 0 1 1.517-1.608l2.191-.731a.334.334 0 0 0 .229-.317c0-.221-.092-.348-.228-.393l-.001-.001-2.192-.731a2.329 2.329 0 0 1-1.517-1.611 2.324 2.324 0 0 1 .508-2.151l1.534-1.73a.335.335 0 0 0 .04-.388c-.112-.193-.257-.26-.397-.227l-2.263.463a2.328 2.328 0 0 1-2.119-.637 2.326 2.326 0 0 1-.635-2.117l.463-2.264a.333.333 0 0 0-.16-.357c-.191-.11-.347-.095-.456.001l-1.728 1.533a2.32 2.32 0 0 1-2.154.508 2.323 2.323 0 0 1-1.609-1.515l-.731-2.193a.332.332 0 0 0-.317-.228c-.221 0-.349.091-.394.228l-.73 2.193a2.327 2.327 0 0 1-1.61 1.515 2.32 2.32 0 0 1-2.153-.508l-1.73-1.533a.33.33 0 0 0-.388-.039c-.192.11-.256.253-.227.394l.463 2.265c.158.77-.08 1.562-.635 2.117a2.326 2.326 0 0 1-2.119.637l-2.264-.464a.344.344 0 0 0-.356.16c-.111.193-.095.348.001.456l1.533 1.73c.522.588.712 1.393.508 2.151a2.326 2.326 0 0 1-1.516 1.611l-2.193.731a.333.333 0 0 0-.228.317c0 .221.091.348.228.394l2.193.732a2.326 2.326 0 0 1 1.516 1.607c.204.76.014 1.565-.508 2.154l-1.534 1.73a.335.335 0 0 0-.039.389c.111.191.254.251.395.226l2.264-.463a2.322 2.322 0 0 1 2.117.636c.557.555.795 1.347.637 2.118l-.463 2.264a.333.333 0 0 0 .16.356c.191.112.348.096.456 0l1.728-1.533a2.327 2.327 0 0 1 1.547-.589zm3.341 6.018c-1.083 0-1.973-.642-2.291-1.596l-.731-2.192a.324.324 0 0 0-.23-.218.328.328 0 0 0-.308.073l-1.729 1.533a2.333 2.333 0 0 1-2.716.276c-.938-.542-1.388-1.543-1.186-2.53l.463-2.262a.33.33 0 0 0-.091-.304.33.33 0 0 0-.302-.091l-2.266.463a2.329 2.329 0 0 1-2.488-1.119c-.542-.939-.432-2.03.235-2.782l1.534-1.73a.327.327 0 0 0 .073-.309.322.322 0 0 0-.216-.228l-2.194-.732a2.33 2.33 0 0 1-1.595-2.214c0-1.085.642-1.975 1.597-2.291l2.191-.731c.149-.05.2-.166.217-.231a.328.328 0 0 0-.072-.308l-1.534-1.729a2.33 2.33 0 0 1-.275-2.715c.54-.938 1.539-1.386 2.526-1.188l2.266.465a.318.318 0 0 0 .303-.092.323.323 0 0 0 .091-.302l-.463-2.265a2.33 2.33 0 0 1 1.119-2.489c.938-.54 2.03-.431 2.782.237l1.73 1.533a.32.32 0 0 0 .308.072.32.32 0 0 0 .23-.216l.731-2.193a2.33 2.33 0 0 1 2.214-1.595c1.084 0 1.973.641 2.291 1.595l.731 2.193a.32.32 0 0 0 .23.216.322.322 0 0 0 .309-.072l1.729-1.533a2.328 2.328 0 0 1 2.715-.275c.938.541 1.389 1.542 1.186 2.528l-.463 2.264a.336.336 0 0 0 .395.394l2.263-.464a2.328 2.328 0 0 1 2.49 1.121c.542.937.431 2.028-.236 2.781l-1.535 1.729a.328.328 0 0 0-.072.308.326.326 0 0 0 .218.231l2.192.732a2.328 2.328 0 0 1 1.596 2.213c0 1.083-.642 1.973-1.596 2.291l-2.192.731a.325.325 0 0 0-.218.23.328.328 0 0 0 .073.309l1.533 1.728c.668.753.778 1.844.276 2.715-.542.94-1.543 1.391-2.529 1.187l-2.263-.463a.337.337 0 0 0-.304.091.33.33 0 0 0-.091.304l.463 2.263a2.33 2.33 0 0 1-1.119 2.49c-.939.542-2.029.432-2.782-.237l-1.729-1.533a.327.327 0 0 0-.308-.073.323.323 0 0 0-.231.218l-.731 2.192a2.33 2.33 0 0 1-2.214 1.596z"/><path fill="#475059" d="M59.736 189.996c-1.103 0-2 .897-2 2 0 1.102.897 2 2 2s2-.898 2-2c0-1.103-.897-2-2-2zm0 6c-2.206 0-4-1.794-4-4s1.794-4 4-4c2.205 0 4 1.794 4 4s-1.795 4-4 4z"/><path fill="#48515A" d="M185.416 33.005h2v-4h-2zM185.416 43.005h2v-4h-2zM189.416 37.005h4v-2h-4zM179.416 37.005h4v-2h-4zM44.423 146.046h2v-4h-2zM44.423 156.046h2v-4h-2zM48.423 150.046h4v-2h-4zM38.423 150.046h4v-2h-4zM164.494 196.077h2v-4h-2zM164.494 206.077h2v-4h-2zM168.494 200.077h4v-2h-4zM158.494 200.077h4v-2h-4z"/><path fill="#FFD15D" d="M196.901 185.738a1.743 1.743 0 1 1-3.486-.002 1.743 1.743 0 0 1 3.486.002M62.736 149.16a1.5 1.5 0 1 1-3 0 1.5 1.5 0 0 1 3 0m136.842-23.999a2.5 2.5 0 1 1-5 0 2.5 2.5 0 0 1 5 0"/></g></svg>