<?xml version="1.0" encoding="utf-8"?><svg xmlns="http://www.w3.org/2000/svg" width="250" height="250" viewBox="0 0 250 250"><g fill="none" fill-rule="evenodd"><path fill="#DEDEDD" d="M113.04 130.499a8 8 0 0 1 8-8c1.8 0 3.456.601 4.793 1.605l33.519-19.352-5-8.66-81.396 46.994 5 8.66 35.146-20.292a8.133 8.133 0 0 1-.062-.955"/><path fill="#5FE0ED" d="M178.684 60.259l16.866 29.213a25.406 25.406 0 0 0-2.909-17.795 25.407 25.407 0 0 0-13.957-11.418"/><path fill="#DEDEDD" d="M67.76 146.086l-25.981 15-2-3.465 25.981-15 2 3.465M73.956 144.818l-5.196 3 2 3.464 5.196-3-2-3.464M189.25 80.562l-32.898 18.994 5 8.66 32.898-18.994-5-8.66"/><path fill="#475059" d="M39.646 155.39l4 6.928 24.248-14-4-6.928-24.248 14zm3.268 9.66l-6-10.392 27.713-16 6 10.392-27.713 16z"/><path fill="#475059" d="M62.626 135.194l10 17.32 3.464-2-10-17.32-3.464 2zm9.268 20.053l-12-20.786 6.929-4 12 20.786-6.929 4z"/><path fill="#475059" d="M79.09 155.71l-16-27.712 83.128-47.995 16 27.713-33.668 19.439-1-1.733 31.936-18.438-14-24.248-79.663 45.994 14 24.248 34.023-19.644 1 1.733L79.09 155.71"/><path fill="#475059" d="M145.218 78.272l18 31.177 31.166-17.994-18-31.177-31.166 17.994zm17.268 33.909l-20-34.641 34.631-19.995 20 34.642-34.631 19.994zm-41.446 11.318c-3.86 0-7 3.14-7 7 0 3.859 3.14 7 7 7 3.859 0 7-3.141 7-7 0-3.86-3.141-7-7-7zm0 16c-4.963 0-9-4.038-9-9 0-4.963 4.037-9 9-9 4.962 0 9 4.037 9 9 0 4.962-4.038 9-9 9z"/><path fill="#475059" d="M121.04 123.499c-3.86 0-7 3.14-7 7 0 3.859 3.14 7 7 7 3.859 0 7-3.141 7-7 0-3.86-3.141-7-7-7zm0 16c-4.963 0-9-4.038-9-9 0-4.963 4.037-9 9-9 4.962 0 9 4.037 9 9 0 4.962-4.038 9-9 9zM118.04 194.499h2v-4h-2zM122.04 194.499h2v-4h-2zM94.656 195.094l-1.606-1.191 2.968-4 1.605 1.191-2.967 4M147.424 195.094l-2.967-4 1.605-1.191 2.968 4-1.606 1.191M119.04 154.837h4v-2h-4z"/><path fill="#475059" d="M98.808 189.499h19.232v-20h-4.394l-14.838 20zm21.232 2H94.834l17.806-24h7.4v24zm4-2h19.232l-14.838-20h-4.394v20zm23.207 2H122.04v-24h7.4l17.807 24zm22.793 30h-6v-3.555l-5.22-7.491-11.096-14.954H124.04v26h-6v-26H94.356l-11.113 14.978-5.203 7.467v3.555h-6v-5.992l46-62v-15.004h2v15.664l-46 62v3.332h2v-2.184l5.58-8.006 11.73-15.81h26.69v26h2v-26h26.69l11.713 15.787 5.597 8.029v2.184h2v-3.332l-46-62v-15.664h2v15.004l46 62v5.992z"/><path fill="#475059" d="M108.04 169.499h26v-2h-26z"/><path fill="#DEDEDD" d="M195.04 49.499a3 3 0 1 1-6 0 3 3 0 0 1 6 0"/><path fill="#475059" d="M125.041 30.5c-.769 0-1.538.293-2.123.877a3.008 3.008 0 0 0 0 4.244 3.004 3.004 0 0 0 4.244 0 3.006 3.006 0 0 0 0-4.244 2.996 2.996 0 0 0-2.121-.877zm-.001 7.997a4.988 4.988 0 0 1-3.536-1.462 5.01 5.01 0 0 1 0-7.072 5.008 5.008 0 0 1 7.072 0 5.01 5.01 0 0 1 0 7.072 4.988 4.988 0 0 1-3.536 1.462zM71.966 99.498a1.002 1.002 0 0 0 0 2.001 1.001 1.001 0 0 0 0-2.001zm0 4.001c-1.654 0-3-1.346-3-3a3.004 3.004 0 0 1 3-3.001c1.655 0 3 1.346 3 3.001 0 1.654-1.345 3-3 3z"/><path fill="#F58E70" d="M147.04 47.499a2 2 0 1 1-3.999.001 2 2 0 0 1 3.999-.001"/><path fill="#48515A" d="M205.086 120.529h2v-4h-2zM205.086 130.529h2v-4h-2zM209.086 124.529h4v-2h-4zM199.086 124.529h4v-2h-4z"/><path fill="#FFD15D" d="M195.061 108.487a1 1 0 1 1-2 0 1 1 0 0 1 2 0"/><path fill="#48515A" d="M183.074 180.565h2v-4h-2zM183.074 190.565h2v-4h-2zM187.074 184.565h4v-2h-4zM177.074 184.565h4v-2h-4zM49.966 80.498h2v-4h-2zM49.966 90.499h2v-4h-2zM53.966 84.498h4v-2h-4zM43.966 84.498h4v-2h-4z"/><path fill="#FFD15D" d="M189.966 144.499c0-9.942-8.059-18-18-18s-18 8.058-18 18c0 9.941 8.059 18 18 18s18-8.059 18-18"/><path fill="#475059" d="M174.46 151.472h-5.559c-1.759 0-3.19-1.439-3.19-3.208a1 1 0 1 1 2 0 1.2 1.2 0 0 0 1.19 1.208h5.559c.832 0 1.508-.683 1.508-1.524v-.95a1.51 1.51 0 0 0-1.508-1.508h-5.481a3.511 3.511 0 0 1-3.508-3.508v-.951a3.512 3.512 0 0 1 3.508-3.509h5.892a2.77 2.77 0 0 1 2.767 2.768 1 1 0 1 1-2 0 .77.77 0 0 0-.767-.768h-5.892a1.51 1.51 0 0 0-1.508 1.509v.951a1.51 1.51 0 0 0 1.508 1.508h5.481a3.511 3.511 0 0 1 3.508 3.508v.95c0 1.943-1.573 3.524-3.508 3.524"/><path fill="#475059" d="M172 154.498a1 1 0 0 1-1-1v-18a1 1 0 1 1 2 0v18a1 1 0 0 1-1 1"/><path fill="#5FE0ED" d="M73.966 78.498V48.53l62-.039v30.007h-62"/><path fill="#48515A" d="M107.657 70.498h-5.615c-1.741 0-3.212-1.506-3.212-3.291h2c0 .688.566 1.291 1.212 1.291h5.615c.85 0 1.309-.861 1.309-1.67v-.96c0-.87-.477-1.37-1.309-1.37h-5.536c-1.829 0-3.155-1.554-3.155-3.697v-.961c0-1.999 1.268-3.341 3.155-3.341h5.951c1.561 0 2.785 1.194 2.785 2.719h-2c0-.472-.395-.719-.785-.719h-5.951c-.316 0-1.155 0-1.155 1.341v.961c0 .631.243 1.697 1.155 1.697h5.536c1.948 0 3.309 1.386 3.309 3.37v.96c0 2.058-1.454 3.67-3.309 3.67"/><path fill="#48515A" d="M103.966 72.499h2v-18h-2zM114.966 64.498h6v-2h-6zM114.966 68.498h6v-2h-6zM114.966 60.499h6v-2h-6zM88.966 64.498h6v-2h-6zM88.966 60.499h6v-2h-6zM88.966 68.498h6v-2h-6z"/><path fill="#48515A" d="M77.966 74.499h54v-22h-54v22zm-2 2h58v-26h-58v26z"/><path fill="#FFD15D" d="M211.966 57.993a5.495 5.495 0 1 1-10.99 0 5.495 5.495 0 0 1 10.99 0"/></g></svg>