<?xml version="1.0" encoding="utf-8"?><svg xmlns="http://www.w3.org/2000/svg" width="250" height="250" viewBox="0 0 250 250"><g fill="none" fill-rule="evenodd"><path fill="#475059" d="M106 184.751h38v-.834l-3.001-18.167v-1h-31.998l-.013.995L106 183.916v.835zm40 2h-42l.013-3.079 2.988-18.171v-2.751h35.998v2.918L146 183.835v2.916z"/><path fill="#475059" d="M99 186.75h52v-2H99z"/><path fill="#DEDEDD" d="M108.218 182.751h33.562l-2.656-16.001H110.85l-2.632 16.001"/><path fill="#475059" d="M195 164.75h-4.024v-2H195c1.654 0 3-1.346 3-3V67.749c0-1.654-1.346-3-3-3H55c-1.654 0-3 1.346-3 3v92.001c0 1.654 1.346 3 3 3h101.976v2H55c-2.757 0-5-2.243-5-5V67.749c0-2.757 2.243-5 5-5h140c2.757 0 5 2.243 5 5v92.001c0 2.757-2.243 5-5 5"/><path fill="#DEDEDD" d="M156.976 147.75H54v12c0 .551.449 1 1 1h101.976v-13m34 0v13H195c.551 0 1-.449 1-1v-12h-5.024"/><path fill="#475059" d="M160.976 136.735c-1.654 0-3 1.346-3 3v56c0 1.655 1.346 3 3 3h26c1.654 0 3-1.345 3-3v-56c0-1.654-1.346-3-3-3h-26zm26 64h-26c-2.757 0-5-2.243-5-5v-56c0-2.756 2.243-5 5-5h26c2.757 0 5 2.244 5 5v56c0 2.757-2.243 5-5 5z"/><path fill="#475059" d="M170.976 196.735h6v-2h-6zM172.976 140.735h2v-2h-2z"/><path fill="#5FE0ED" d="M159.977 192.756h28v-50h-28z"/><path fill="#48515A" d="M35 158.75h2v-4h-2zM35 168.75h2v-4h-2zM39 162.75h4v-2h-4zM29 162.75h4v-2h-4zM213 60.75h2v-4h-2zM213 70.75h2v-4h-2zM217 64.75h4v-2h-4zM207 64.75h4v-2h-4z"/><path fill="#FFD15D" d="M143 54.312a2.437 2.437 0 1 1-4.875.001 2.437 2.437 0 0 1 4.875-.001"/><path fill="#FFD15D" d="M140.563 52.375a1.94 1.94 0 0 0-1.938 1.938 1.94 1.94 0 0 0 1.938 1.937 1.94 1.94 0 0 0 1.937-1.937 1.94 1.94 0 0 0-1.937-1.938zm0 4.875a2.94 2.94 0 0 1-2.938-2.937 2.94 2.94 0 0 1 2.938-2.938 2.94 2.94 0 0 1 2.937 2.938 2.94 2.94 0 0 1-2.937 2.937zM127 200.312a2.437 2.437 0 1 1-4.875.001 2.437 2.437 0 0 1 4.875-.001"/><path fill="#FFD15D" d="M124.563 198.375a1.94 1.94 0 0 0-1.938 1.938 1.94 1.94 0 0 0 1.938 1.937 1.94 1.94 0 0 0 1.937-1.937 1.94 1.94 0 0 0-1.937-1.938zm0 4.875a2.94 2.94 0 0 1-2.938-2.937 2.94 2.94 0 0 1 2.938-2.938 2.94 2.94 0 0 1 2.937 2.938 2.94 2.94 0 0 1-2.937 2.937z"/><path fill="#5FE0ED" d="M73.875 49.188a2.437 2.437 0 1 1-4.874 0 2.437 2.437 0 0 1 4.874 0m-30 82a2.437 2.437 0 1 1-4.874 0 2.437 2.437 0 0 1 4.874 0"/><path fill="#DEDEDD" d="M143 192.75a2 2 0 1 1-3.999.001 2 2 0 0 1 3.999-.001m-62-18a2 2 0 1 1-3.999.001A2 2 0 0 1 81 174.75"/><path fill="#48515A" d="M210 113.75c-1.103 0-2 .897-2 2s.897 2 2 2 2-.897 2-2-.897-2-2-2zm0 6c-2.206 0-4-1.794-4-4s1.794-4 4-4 4 1.794 4 4-1.794 4-4 4zM204 184.751h-2v-7.001h-1v-2h3v9.001"/><path fill="#48515A" d="M201 185.751h4v-2h-4zM35 89.75c-.551 0-1 .448-1 1v4.001a1.001 1.001 0 0 0 2 0V90.75c0-.552-.449-1-1-1zm0 8.001c-1.654 0-3-1.346-3-3V90.75c0-1.654 1.346-3 3-3s3 1.346 3 3v4.001c0 1.654-1.346 3-3 3z"/></g></svg>