<?xml version="1.0" encoding="utf-8"?><svg xmlns="http://www.w3.org/2000/svg" width="250" height="250" viewBox="0 0 250 250"><g fill="none" fill-rule="evenodd"><path fill="#434A4F" d="M38.078 126.632a1 1 0 0 1 .9-1.09.984.984 0 0 1 1.09.89.999.999 0 0 1-.89 1.099h-.1a1 1 0 0 1-1-.899zm.95 4.12a.997.997 0 0 1 .6-1.28.997.997 0 0 1 1.28.599.995.995 0 0 1-.6 1.281c-.12.04-.23.06-.34.06a.989.989 0 0 1-.94-.66zm1.83 3.769a.994.994 0 0 1 .33-1.37.986.986 0 0 1 1.37.33.997.997 0 0 1-.33 1.371.989.989 0 0 1-.52.15 1 1 0 0 1-.85-.481zm2.46 3.351a1.013 1.013 0 0 1 .11-1.421 1 1 0 1 1 .65 1.761c-.28 0-.56-.11-.76-.34zm2.89 2.94a1.01 1.01 0 0 1-.07-1.42.995.995 0 0 1 1.41-.06c.411.359.44 1 .07 1.409a.991.991 0 0 1-1.41.071zm3.16 2.589c-.44-.33-.53-.96-.2-1.399.33-.44.95-.53 1.4-.2a1.002 1.002 0 0 1-.6 1.8c-.21 0-.42-.06-.6-.201zm29.46 13.011a.993.993 0 0 1-.71-1.23.997.997 0 0 1 1.22-.71c.53.139.85.69.71 1.229-.12.441-.52.74-.97.74-.08 0-.17-.009-.25-.029zm3.91.97a.997.997 0 0 1 .45-1.941c.54.121.87.661.75 1.201-.11.46-.519.77-.979.77a.878.878 0 0 1-.221-.03zm3.931.87a1.001 1.001 0 0 1 .399-1.96c.54.12.89.649.78 1.189-.1.47-.51.79-.98.79-.07 0-.13 0-.199-.019zm123.329-33.25c0-.561.45-1 1-1s1 .439 1 1c0 .55-.45 1-1 1s-1-.45-1-1zm.24 4.899a.987.987 0 0 1-.71-1.21.985.985 0 0 1 1.21-.719c.54.139.86.679.72 1.219-.12.451-.52.75-.97.75a.704.704 0 0 1-.25-.04zm-1.65 3.641a.998.998 0 0 1-.42-1.351.994.994 0 0 1 1.34-.429c.49.25.69.86.43 1.349-.18.34-.52.54-.88.54-.16 0-.32-.04-.47-.109zm-14.81 13.08a.996.996 0 0 1 .37-1.36.984.984 0 0 1 1.36.36c.28.48.11 1.09-.36 1.369a1.009 1.009 0 0 1-1.37-.369zm-3.55 1.85c-.25-.5-.05-1.1.45-1.35a.993.993 0 0 1 1.34.449.994.994 0 0 1-.45 1.341 1 1 0 0 1-.44.109c-.37 0-.72-.209-.9-.549zm-3.64 1.66c-.22-.51.01-1.101.51-1.32a.99.99 0 0 1 1.32.509c.22.5 0 1.091-.51 1.321a1.017 1.017 0 0 1-1.32-.51zm-3.71 1.5c-.2-.521.06-1.101.57-1.3.51-.2 1.09.05 1.29.569a.988.988 0 0 1-.56 1.29.924.924 0 0 1-.36.071c-.41 0-.78-.241-.94-.63zm-3.76 1.349a.995.995 0 0 1 .61-1.269.998.998 0 0 1 1.28.609c.18.521-.1 1.091-.62 1.281v-.01a.959.959 0 0 1-.33.059c-.41 0-.8-.259-.94-.67zm-3.81 1.22a.99.99 0 0 1 .66-1.25h-.01c.53-.17 1.09.131 1.26.66a.997.997 0 0 1-.66 1.25 1 1 0 0 1-.3.04.992.992 0 0 1-.95-.7zm-3.85 1.101a.996.996 0 0 1 .7-1.231.996.996 0 0 1 1.23.7c.15.531-.17 1.081-.7 1.231-.09.019-.18.029-.26.029-.44 0-.85-.29-.97-.729zm-19.61 3.91c-.08-.55.3-1.05.85-1.13.55-.08 1.05.3 1.13.85.08.54-.3 1.049-.85 1.13-.04.009-.09.009-.14.009a1 1 0 0 1-.99-.859zm-50.99 1.359a1.016 1.016 0 0 1-.88-1.12c.07-.55.57-.939 1.12-.869.55.069.94.56.87 1.109-.06.51-.49.88-.99.88h-.12zm47.02-.859c-.06-.55.33-1.05.88-1.11a.992.992 0 0 1 1.11.87.995.995 0 0 1-.87 1.11c-.04.01-.08.01-.12.01-.5 0-.94-.37-1-.88zm-43.03 1.3a1 1 0 0 1-.89-1.1.986.986 0 0 1 1.09-.891.997.997 0 1 1-.09 1.991h-.11zm39.05-.88c-.05-.55.35-1.04.9-1.101a1 1 0 0 1 1.09.901.999.999 0 0 1-.89 1.099h-.1c-.51 0-.94-.38-1-.899zm-35.04 1.24c-.55-.051-.96-.53-.92-1.08.05-.551.53-.96 1.08-.92.55.05.96.529.92 1.079-.05.521-.49.921-1 .921h-.08zm31.06-.91a.984.984 0 0 1 .92-1.07h-.01a.992.992 0 0 1 1.08.91c.04.55-.37 1.04-.92 1.08h-.08a1 1 0 0 1-.99-.92zm-27.05 1.18a.997.997 0 0 1-.94-1.05.992.992 0 0 1 1.06-.941c.55.031.97.5.94 1.05a1 1 0 0 1-1 .95c-.02 0-.04-.009-.06-.009zm23.05-.93c-.03-.55.39-1.021.94-1.061.55-.029 1.03.391 1.06.951a.995.995 0 0 1-.94 1.049h-.06c-.52 0-.97-.41-1-.939zm-19.03 1.13c-.55-.021-.98-.49-.96-1.04a.994.994 0 0 1 1.03-.96c.56.019.99.49.97 1.04-.03.54-.47.96-1.01.96h-.03zm15.04-.96a.995.995 0 0 1 .96-1.03c.55-.031 1.01.41 1.04.96.02.549-.42 1.009-.97 1.03-.01 0-.02.01-.04.01-.53 0-.97-.43-.99-.97zm-11.02 1.08a.992.992 0 0 1-.98-1.021.987.987 0 0 1 1.01-.979c.56.01 1 .46.99 1.019-.02.54-.46.981-1 .981h-.02zm7.02-.981c-.01-.549.43-1.009.98-1.019.55-.011 1.01.43 1.02.979.01.55-.43 1.01-.99 1.021h-.02a.998.998 0 0 1-.99-.981zm-4 .021a.983.983 0 0 1 1-1c.55 0 1 .439 1 1 0 .55-.45 1-1 1-.56-.011-1.01-.45-1-1z"/><path fill="#DBDBD5" d="M189 173.006l-17.511-7.505-.727.437 8.232 8.232-2.828 2.829-8.111-8.111-2.076 4.175 7.248 17.553 4.834-9.721 8.111 8.111 2.828-2.829-8.232-8.232 8.232-4.939"/><path fill="#75C7D0" d="M125.633 150.744c-13.757 0-24.909-11.152-24.909-24.909 0-13.756 11.152-24.908 24.909-24.908 13.756 0 24.908 11.152 24.908 24.908 0 13.757-11.152 24.909-24.908 24.909zm43.784-24.162c0-24.301-19.7-44-44-44-24.301 0-44 19.699-44 44s19.699 44 44 44c11.666 0 22.265-4.549 30.14-11.96l-4.146-10.04 9.458 4.054a43.795 43.795 0 0 0 8.548-26.054z"/><path fill="#434A4F" d="M125.216 102.344c-13.183 0-23.908 10.725-23.908 23.908 0 13.183 10.725 23.908 23.908 23.908 13.183 0 23.909-10.725 23.909-23.908 0-13.183-10.726-23.908-23.909-23.908zm0 49.816c-14.286 0-25.908-11.622-25.908-25.908 0-14.286 11.622-25.908 25.908-25.908 14.286 0 25.909 11.622 25.909 25.908 0 14.286-11.623 25.908-25.909 25.908zM78 74.682c-2.206 0-4 1.794-4 4s1.794 4 4 4 4-1.794 4-4-1.794-4-4-4zm0 10c-3.309 0-6-2.692-6-6 0-3.309 2.691-6 6-6s6 2.691 6 6c0 3.308-2.691 6-6 6zm118 91.317c-1.103 0-2 .897-2 2s.897 2 2 2 2-.897 2-2-.897-2-2-2zm0 6c-2.206 0-4-1.794-4-4s1.794-4 4-4 4 1.794 4 4-1.794 4-4 4z"/><path fill="#434A4F" d="M39 125.999a1 1 0 0 1-1-1c0-10.045 9.164-19.413 25.803-26.379C80.165 91.771 101.899 87.999 125 87.999c9.651 0 19.128.661 28.167 1.964a1.001 1.001 0 0 1-.285 1.98c-8.945-1.29-18.326-1.944-27.882-1.944-46.869 0-85 15.701-85 35a1 1 0 0 1-1 1m172 0a1 1 0 0 1-1-1c0-13.101-18.514-25.394-47.167-31.317a1.001 1.001 0 0 1 .405-1.959C193.315 97.942 212 110.692 212 124.999a1 1 0 0 1-1 1"/><path fill="#434A4F" d="M90.298 101.962a.995.995 0 0 1-.87-1.11c.07-.55.57-.94 1.12-.871.54.061.93.561.871 1.111-.061.51-.5.88-.991.88-.05 0-.09 0-.13-.01zm-.41 3.979a.985.985 0 0 1-.9-1.089 1 1 0 0 1 1.09-.901c.55.061.95.551.9 1.101a1 1 0 0 1-1 .899c-.03 0-.059 0-.09-.01zm-.34 3.991c-.55-.04-.96-.531-.92-1.071a.995.995 0 0 1 1.081-.92c.549.04.96.521.919 1.071-.05.53-.49.92-1 .92h-.08zm-.26 3.99a.996.996 0 0 1-.94-1.05 1.01 1.01 0 0 1 1.06-.94c.551.03.97.5.94 1.049a1 1 0 0 1-1 .951c-.02 0-.04 0-.06-.01zm-.17 4c-.55-.021-.98-.49-.96-1.04.02-.55.49-.981 1.04-.96.55.019.98.49.96 1.04-.03.54-.47.96-1 .96h-.04zm-.1 4c-.55-.01-.99-.471-.98-1.021.01-.549.47-.989 1.02-.979.55.01.99.47.98 1.019a.993.993 0 0 1-1 .981h-.02zm-1.02 3c0-.55.45-1 1-1s1 .45 1 1-.45 1-1 1-1-.45-1-1zm.04 4.019c-.01-.549.43-1.009.98-1.019.55-.01 1.01.43 1.02.979.01.55-.43 1.011-.98 1.021h-.02a.993.993 0 0 1-1-.981zm.11 4.021c-.02-.55.41-1.021.96-1.04a.996.996 0 0 1 1.04.96c.021.55-.41 1.019-.96 1.04h-.04c-.53 0-.979-.42-1-.96zm.2 4.01a.982.982 0 0 1 .94-1.05.996.996 0 0 1 1.05.939c.03.551-.39 1.021-.94 1.061h-.06c-.52 0-.96-.41-.99-.95zm.27 4.019c-.04-.55.37-1.04.92-1.079a.997.997 0 0 1 1.07.92.983.983 0 0 1-.92 1.069c-.019.011-.05.011-.08.011a1 1 0 0 1-.99-.921zm.35 4a1 1 0 0 1 .9-1.09 1 1 0 1 1 .2 1.991h-.1c-.51 0-.94-.38-1-.901zm.44 4a1 1 0 0 1 .88-1.109.997.997 0 0 1 .24 1.979c-.04.011-.08.011-.12.011-.5 0-.93-.37-1-.881zm.53 3.99a1 1 0 0 1 1.981-.28 1.003 1.003 0 0 1-.851 1.131c-.05.01-.09.01-.14.01-.49 0-.92-.361-.99-.861zm.61 3.981c-.089-.55.28-1.061.83-1.16a1.003 1.003 0 0 1 .33 1.979 1.017 1.017 0 0 1-1.16-.819zm.72 3.96a.994.994 0 0 1 .79-1.17.994.994 0 0 1 1.17.79 1 1 0 0 1-.99 1.189c-.47 0-.88-.33-.97-.809zm.8 3.939c-.12-.54.23-1.069.77-1.189.53-.11 1.07.229 1.19.769.11.54-.23 1.071-.77 1.191-.07.01-.14.019-.21.019-.46 0-.879-.319-.98-.79zm.91 3.931c-.13-.54.2-1.08.731-1.21a.987.987 0 0 1 1.21.73 1 1 0 0 1-1.941.48zm1.02 3.899a.994.994 0 0 1 .7-1.229.997.997 0 0 1 1.23.689c.15.531-.17 1.08-.7 1.231-.09.03-.18.04-.26.04-.44 0-.85-.29-.97-.731zm1.14 3.871c-.17-.531.13-1.09.66-1.26.52-.16 1.08.13 1.25.66a.996.996 0 0 1-.66 1.25c-.1.029-.2.05-.3.05-.419 0-.82-.281-.95-.7zm1.26 3.83c-.18-.52.09-1.09.62-1.281.52-.179 1.09.101 1.27.62a.997.997 0 0 1-.61 1.271.956.956 0 0 1-.33.06c-.42 0-.8-.26-.95-.67zm1.41 3.79c-.21-.52.05-1.1.56-1.3.51-.2 1.091.05 1.301.559a1.009 1.009 0 0 1-.931 1.371.997.997 0 0 1-.93-.63zm1.55 3.73c-.22-.511 0-1.1.51-1.32.51-.231 1.1 0 1.32.51a.998.998 0 0 1-.51 1.31c-.13.06-.27.09-.41.09-.38 0-.74-.221-.91-.59zm1.73 3.659a.995.995 0 0 1 .44-1.34c.5-.25 1.1-.049 1.35.441.24.49.04 1.09-.45 1.34a.991.991 0 0 1-1.34-.441zm1.92 3.571a.998.998 0 0 1 .37-1.361.986.986 0 0 1 1.36.361.999.999 0 0 1-.36 1.37c-.16.09-.33.13-.5.13-.35 0-.68-.18-.87-.5zm2.15 3.46a.999.999 0 0 1 .27-1.39.998.998 0 0 1 1.39.269c.31.46.18 1.081-.27 1.391-.17.109-.37.17-.56.17-.32 0-.64-.16-.83-.44zm2.41 3.29a.991.991 0 0 1 .16-1.401.99.99 0 0 1 1.4.151c.35.429.28 1.059-.15 1.41-.19.139-.41.21-.63.21-.29 0-.58-.12-.78-.37zm2.72 3.07c-.39-.4-.38-1.03.01-1.42a.995.995 0 0 1 1.41.01.996.996 0 0 1-.71 1.7c-.25 0-.51-.101-.71-.29zm3.09 2.729a.99.99 0 0 1-.18-1.399.991.991 0 0 1 1.4-.181c.44.33.52.96.19 1.401a1.005 1.005 0 0 1-1.41.179zm3.51 2.25a1.007 1.007 0 0 1-.43-1.349c.25-.49.86-.68 1.35-.43.49.25.68.859.43 1.35-.18.34-.53.54-.89.54-.16 0-.31-.04-.46-.111zm3.92 1.521a1.002 1.002 0 0 1 .5-1.941c.54.141.86.68.72 1.22a1.012 1.012 0 0 1-1.22.721zm3.19-.46c0-.561.45-1 1-1s1 .439 1 1c0 .55-.45 1-1 1s-1-.45-1-1zm-1.46-171.84a1 1 0 0 1 .91-1.091c.54-.05 1.03.351 1.09.901a1 1 0 0 1-.91 1.089c-.03.01-.06.01-.09.01-.51 0-.95-.389-1-.909zm-3.83 1.109c-.18-.519.09-1.089.61-1.28.52-.18 1.09.091 1.28.611a1.011 1.011 0 0 1-.94 1.339c-.42 0-.8-.259-.95-.67zm-3.5 1.92a1.006 1.006 0 0 1 .33-1.38 1.01 1.01 0 0 1 1.38.34.997.997 0 0 1-.34 1.37.972.972 0 0 1-.52.151 1 1 0 0 1-.85-.481zm-3.13 2.491a1 1 0 0 1 .11-1.411.998.998 0 0 1 1.41.101c.36.42.31 1.05-.11 1.42v-.011c-.19.16-.42.24-.65.24a.997.997 0 0 1-.76-.339zm-2.77 2.879a1.008 1.008 0 0 1-.07-1.419.996.996 0 0 1 1.41-.06c.41.369.44 1 .07 1.409a.993.993 0 0 1-1.41.07zm-2.47 3.14a.99.99 0 0 1-.2-1.39c.33-.45.96-.54 1.4-.209a.998.998 0 1 1-.6 1.799.957.957 0 0 1-.6-.2zm-2.2 3.341a1 1 0 0 1 1.07-1.69c.47.299.61.919.31 1.389-.19.29-.51.46-.84.46-.19 0-.37-.05-.54-.159zm-1.97 3.479a.99.99 0 0 1-.4-1.349c.27-.49.88-.67 1.36-.401.48.26.66.871.4 1.361-.19.33-.53.519-.88.519-.16 0-.33-.04-.48-.13zm-1.78 3.59c-.49-.239-.7-.84-.47-1.34l.01.01a.99.99 0 0 1 1.33-.47c.5.231.71.831.47 1.331a1 1 0 0 1-1.34.469zm-1.59 3.67a1.01 1.01 0 0 1-.54-1.309c.22-.51.81-.75 1.31-.54.51.219.75.799.54 1.309-.17.381-.54.62-.93.62a1.178 1.178 0 0 1-.38-.08zm-1.45 3.731a1.003 1.003 0 0 1-.58-1.29c.191-.521.77-.781 1.29-.59.51.2.77.769.58 1.29-.15.399-.53.649-.94.649-.11 0-.23-.019-.35-.059zm-1.3 3.78a.994.994 0 0 1-.629-1.271.999.999 0 0 1 1.259-.629c.53.179.81.74.63 1.27a.992.992 0 0 1-1.26.63zm-1.18 3.819a.987.987 0 0 1-.67-1.239c.16-.53.721-.83 1.25-.671.52.151.83.711.67 1.24-.13.441-.53.721-.96.721-.09 0-.19-.02-.29-.051zm-1.05 3.861c-.53-.14-.85-.691-.71-1.22.14-.53.69-.851 1.22-.71.54.14.85.689.71 1.22a1 1 0 0 1-.96.75c-.09 0-.17-.021-.26-.04zm-.94 3.889c-.54-.13-.88-.67-.75-1.199.13-.54.67-.87 1.2-.75.54.13.87.67.75 1.21-.11.46-.52.77-.98.77-.07 0-.15-.01-.22-.031zm-.85 3.91a.994.994 0 0 1-.77-1.179c.11-.54.64-.891 1.18-.781.54.111.89.64.78 1.191-.1.47-.52.79-.98.79-.069 0-.14 0-.21-.021z"/><path fill="#75C7D0" d="M196.922 141.763a6.131 6.131 0 1 0 11.67-3.763 6.131 6.131 0 0 0-11.67 3.763m-137.73-39.508a3.956 3.956 0 1 0 7.53-2.427 3.956 3.956 0 0 0-7.53 2.427"/><path fill="#434A4F" d="M156.52 162.381a.996.996 0 0 0-.193.402c-5.92 28.683-18.217 47.216-31.327 47.216a1 1 0 1 0 0 2c13.951 0 26.416-17.765 32.794-46.532l-1.274-3.086"/><path fill="#434A4F" d="M152.854 150.885l10.452 25.307 4.472-8.995 8.388 8.388 1.414-1.415-8.431-8.43 7.654-4.593-23.949-10.262zm10.283 30.139l-14.003-33.911 32.052 13.738-8.811 5.286 8.033 8.033-4.242 4.243-7.835-7.835-5.194 10.446z"/><path fill="#42494E" d="M59.334 146.785a6.079 6.079 0 0 0 .37 4.654 6.081 6.081 0 0 0 3.563 3.049 6.086 6.086 0 0 0 4.675-.362 6.08 6.08 0 0 0 3.038-3.531 6.081 6.081 0 0 0-.374-4.642 6.084 6.084 0 0 0-3.562-3.048 6.084 6.084 0 0 0-4.676.363 6.086 6.086 0 0 0-3.034 3.517zm5.841 10.01a8.169 8.169 0 0 1-2.529-.404 8.072 8.072 0 0 1-4.725-4.045 8.067 8.067 0 0 1-.502-6.135h-.001l.016-.05a.098.098 0 0 0 .005-.016v.001a8.075 8.075 0 0 1 4.023-4.662 8.073 8.073 0 0 1 6.202-.481 8.07 8.07 0 0 1 4.725 4.044 8.072 8.072 0 0 1 .503 6.137l-.01.031-.011.033a8.067 8.067 0 0 1-4.023 4.661 8.096 8.096 0 0 1-3.673.886z"/><path fill="#42494E" d="M64.113 163.995l2.073.003.001-1.232a3.494 3.494 0 0 1 2.454-3.37 3.492 3.492 0 0 1 3.962 1.292l.723.999 1.678-1.217-.723-.997a3.494 3.494 0 0 1 .005-4.169 3.495 3.495 0 0 1 3.965-1.283l1.171.381.621-1.905-1.171-.383a3.489 3.489 0 0 1-2.446-3.374 3.49 3.49 0 0 1 2.453-3.368l1.172-.38-.639-1.971-1.172.378a3.493 3.493 0 0 1-3.963-1.291 3.495 3.495 0 0 1 .004-4.169l.726-.995-1.676-1.219-.725.996a3.49 3.49 0 0 1-3.965 1.283 3.493 3.493 0 0 1-2.447-3.374l.002-1.232-2.073-.002-.001 1.232a3.492 3.492 0 0 1-2.454 3.37c-1.49.483-3.043-.025-3.962-1.292l-.723-.998-1.678 1.217.723.997a3.492 3.492 0 0 1-.004 4.168c-.921 1.265-2.478 1.766-3.965 1.284l-1.171-.382-.621 1.904 1.171.382a3.494 3.494 0 0 1 2.447 3.374 3.492 3.492 0 0 1-2.454 3.369l-1.172.38.639 1.971 1.172-.379c1.487-.483 3.043.025 3.962 1.292a3.49 3.49 0 0 1-.005 4.168l-.724.996 1.675 1.22.726-.996a3.485 3.485 0 0 1 3.964-1.283 3.492 3.492 0 0 1 2.447 3.374l-.002 1.231zM68.184 166l-6.073-.007.004-3.231c.001-.828-.551-1.303-1.067-1.471-.515-.167-1.24-.11-1.728.56l-1.903 2.611-4.908-3.573 1.902-2.614c.487-.669.32-1.377.002-1.816-.319-.439-.941-.817-1.727-.563l-3.075.996-1.87-5.778 3.074-.995c.788-.255 1.069-.926 1.07-1.469 0-.543-.28-1.214-1.067-1.47l-3.072-1.003 1.86-5.706 3.073 1.001c.789.259 1.409-.12 1.728-.559.32-.439.488-1.147.002-1.817l-1.897-2.617 4.916-3.564 1.898 2.617c.485.669 1.209.731 1.727.563.516-.167 1.068-.641 1.069-1.469l.003-3.231 6.073.005-.004 3.232c-.001.828.551 1.303 1.067 1.471.515.168 1.241.11 1.728-.56l1.903-2.613 4.909 3.575-1.903 2.612c-.487.669-.32 1.378-.002 1.818.319.438.94.813 1.728.562l3.074-.996 1.871 5.776-3.074.997c-.788.255-1.069.926-1.069 1.468-.001.543.279 1.215 1.066 1.471l3.072 1.003-1.861 5.708-3.072-1.001c-.786-.26-1.409.12-1.729.558-.319.439-.487 1.147-.002 1.818l1.897 2.616-4.916 3.564-1.897-2.617c-.486-.67-1.212-.73-1.728-.563-.516.168-1.068.641-1.069 1.469L68.184 166z"/><path fill="#434A4F" d="M213 74.999h2v-4h-2zM213 84.999h2v-4h-2zM217 78.999h4v-2h-4zM207 78.999h4v-2h-4zM35 162.999h2v-4h-2zM35 172.999h2v-4h-2zM39 166.999h4v-2h-4zM29 166.999h4v-2h-4zM203 198.999h2v-4h-2zM203 208.999h2v-4h-2zM207 202.999h4v-2h-4zM197 202.999h4v-2h-4z"/><path fill="#E9886C" d="M124.084 137.667c-.074.297-2.186 12.344-2.281 13.004h5.834c-.095-.66-1.734-12.707-1.808-13.004a.58.58 0 0 0 .581-.581v-1.454l-1.478-1.746-1.429 1.746v1.454c0 .321.26.581.581.581"/><path fill="#DDDED9" d="M120.485 129.528v1.271l4.399 2.471 4.361-2.399.039-2.325v-1.96c.167-.164.337-.34.49-.518a1.92 1.92 0 0 0-.145.137c-.611.658-1.539 1.348-2.166 1.884a2.788 2.788 0 0 1-1.778.666h-1.887a2.783 2.783 0 0 1-1.777-.666c-.6-.512-1.472-1.164-2.081-1.794l-.06-.057c.183.195.392.393.615.589-.005.002-.01.005-.01.01v2.691"/><path fill="#434A4F" d="M120.485 131.762a1 1 0 0 1-1-1v-3.924a1 1 0 1 1 2 0v3.924a1 1 0 0 1-1 1"/><path fill="#434A4F" d="M129.254 131.689a1 1 0 0 1-1-1v-4.528l.299-.293c.541-.533.677-.761.711-.848l1.93-3.95 1.91-.955.36-1.787-.333.053h-1.189l.204-1.172c.152-.87.229-1.648.229-2.315v-.327a7.168 7.168 0 0 0-.653-3.079 7.64 7.64 0 0 0-2.23-2.861 7.488 7.488 0 0 0-4.624-1.619 7.529 7.529 0 0 0-5.284 2.2c-1.48 1.47-2.329 3.491-2.329 5.547v.139c0 .68.067 1.467.198 2.337l.173 1.15h-1.447l.499 1.746 1.692.977 1.821 3.851c.192.507 1.239 1.358 1.864 1.865.22.18.43.351.615.508.316.271.721.422 1.14.427h1.879a1 1 0 1 1 0 2h-1.891a3.807 3.807 0 0 1-2.427-.905c-.174-.149-.371-.309-.578-.478-1.029-.837-2.094-1.702-2.443-2.641l-1.521-3.208-1.852-1.068-.844-3.096c0-.82.502-1.525 1.215-1.825a15.71 15.71 0 0 1-.093-1.64v-.139c0-2.584 1.064-5.123 2.92-6.967 1.807-1.794 4.164-2.78 6.643-2.78h.064a9.462 9.462 0 0 1 5.848 2.049 9.674 9.674 0 0 1 2.812 3.602 9.068 9.068 0 0 1 .833 3.85v.385c0 .499-.036 1.044-.106 1.629.245.101.47.251.66.448.37.38.565.882.55 1.411l-.019.169-.588 2.916-2.179 1.09-1.596 3.256c-.14.38-.47.788-.843 1.177v3.699a1 1 0 0 1-1 1M103.793 138.446l-.67-1.884 13.868-4.941 1.67-3.095h1.692v2h-.499l-1.468 2.722-14.593 5.198"/><path fill="#434A4F" d="M124.957 134.452L120 131.676a1 1 0 1 1 .976-1.744l3.981 2.227 3.81-2.133a1 1 0 0 1 .977 1.745l-4.787 2.681"/><path fill="#434A4F" d="M147.072 138.363l-15.533-5.069-1.689-2.768h-.533v-2h1.655l1.889 3.096 14.831 4.841-.62 1.9M122.339 137.795a.999.999 0 0 1-.742-1.669l3.36-3.733 3.359 3.733a1 1 0 1 1-1.486 1.338l-1.873-2.081-1.874 2.081a.995.995 0 0 1-.744.331"/><path fill="#FACD60" d="M137.297 200.747a6.131 6.131 0 1 0 11.67-3.763 6.131 6.131 0 0 0-11.67 3.763"/><path fill="#434A4F" d="M158.164 152.072l1.908.817c1.278-8.959 1.928-18.34 1.928-27.891 0-23.101-3.772-44.834-10.622-61.197-6.965-16.639-16.333-25.803-26.378-25.803a1 1 0 1 0 0 2c19.299 0 35 38.131 35 85 0 9.267-.621 18.368-1.836 27.074"/></g></svg>