<?xml version="1.0" encoding="utf-8"?><svg xmlns="http://www.w3.org/2000/svg" width="250" height="250" viewBox="0 0 250 250"><g fill="none" fill-rule="evenodd"><path fill="#4E7684" d="M51.953 155.003V39.009h-.933c-4.962 0-9 4.037-9 9V158.01a14.928 14.928 0 0 1 9-3.007h.933"/><path fill="#475059" d="M129.166 183.003H51.021c-7.169 0-13-5.832-13-13V48.009c0-7.168 5.831-13 13-13h108.995v122.994h-2V37.009H51.021c-6.066 0-11 4.934-11 11v121.994c0 6.065 4.934 11 11 11h78.145v2"/><path fill="#475059" d="M40.021 170.003h-2c0-7.168 5.831-13 13-13h107.995v2H51.021c-6.066 0-11 4.935-11 11"/><path fill="#475059" d="M129.166 183.003H51.021c-7.169 0-13-5.832-13-13s5.831-13 13-13h108.994v2H51.021c-6.066 0-11 4.935-11 11s4.934 11 11 11h78.145v2"/><path fill="#475059" d="M129.166 179.003H51.021c-4.963 0-9-4.037-9-9s4.037-9 9-9h106.994v2H51.021c-3.86 0-7 3.141-7 7s3.14 7 7 7h78.145v2"/><path fill="#475059" d="M129.166 175.003H51.021c-2.757 0-5-2.243-5-5s2.243-5 5-5h105.993v2H51.021c-1.655 0-3 1.346-3 3s1.345 3 3 3h78.145v2"/><path fill="#475059" d="M51.021 171.003h78.145v-2H51.021zM99.104 68.006l5.15 7.269 5.15-7.269h-10.3zm5.15 10.73l-9.017-12.73h18.034l-9.017 12.73z"/><path fill="#475059" d="M82.066 76.409l-2.367-2.403h-3.612v-2h4.45l1.572 1.596 1.671-1.596h17.641v2H84.582l-2.516 2.403"/><path fill="#475059" d="M76.912 114.006H87.26a2.975 2.975 0 0 1 2.796-1.969h.031v-4.874l-8-24.88-8 24.88v4.905h.063c1.268 0 2.352.809 2.762 1.938zm12.175 2h-14v-1a.938.938 0 0 0-.937-.938h-2.063l.048-7.368 9.952-30.95 10 31.256v7.031h-2.031a.97.97 0 0 0-.969.969v1z"/><path fill="#475059" d="M73.1 108.006h17.987v-2H73.1zM125.963 76.421l-2.276-2.415h-16.6v-2h17.463l1.494 1.585 1.676-1.585h4.451v2h-3.655l-2.553 2.415M97.087 126.006h14.016v-2H97.087zM99.087 84.006h2v-2h-2v2zm4 0h2v-2h-2v2zm4 0h2v-2h-2v2z"/><path fill="#475059" d="M99.095 125.006v-38h2v38h-2M107.095 125.006h2v-38h-2zM103.095 125.006h2v-38h-2zM97.087 80.006h14.016v-2H97.087zM120.912 114.006h10.348a2.975 2.975 0 0 1 2.796-1.969h.031v-4.874l-8-24.88-8 24.88v4.905h.063c1.268 0 2.352.809 2.762 1.938zm12.175 2h-14v-1a.938.938 0 0 0-.937-.938h-2.063l.048-7.368 9.952-30.95 10 31.256v7.031h-2.031a.97.97 0 0 0-.969.969v1z"/><path fill="#475059" d="M117.1 108.006h17.987v-2H117.1zM97.087 88.006h14.016v-2H97.087zM94.087 130.006h20.016v-2H94.087zM77.087 112.006h2v-2h-2v2zm4 0h2v-2h-2v2zm4 0h2v-2h-2v2zm36 0h2v-2h-2v2zm4 0h2v-2h-2v2zm4 0h2v-2h-2v2z"/><path fill="#4E7684" d="M104.087 142.005c-24.853 0-45-20.147-45-45 0-24.852 20.147-45 45-45s45 20.148 45 45c0 24.853-20.147 45-45 45zm-50.003 12.999h102.001V39.009H54.084v115.995z"/><path fill="#48515A" d="M189.105 175.986h2v-4h-2zM189.105 185.986h2v-4h-2zM193.105 179.986h4v-2h-4zM183.105 179.986h4v-2h-4z"/><path fill="#F58E70" d="M108.953 195.044a2 2 0 1 1-4 0 2 2 0 0 1 4 0m90.054-74.045a2 2 0 1 1-3.999.001 2 2 0 0 1 3.999-.001"/><path fill="#DEDEDD" d="M174.021 85.004a5 5 0 0 0-5 5v45.992l-2 14h-2v6h2v11.997h-2v6h9V85.004M190.02 207.991h6.631v-32.623h-6.631zM152.021 207.991h6v-31.998h-6zM132.021 211.991h6v-39.998h-6z"/><path fill="#DEDEDD" d="M196.02 211.991h6v-39.998h-6z"/><path fill="#475059" d="M166.021 172.993h16v-4h-2v-13.997h2v-4h-1.867l-2.133-15V90.004c0-2.206-1.795-4-4-4-2.206 0-4 1.794-4 4l-.011 46.134-2.122 14.858h-1.867v4h2v13.997h-2v4zm18 2h-20v-8h2v-9.997h-2v-8h2.133l1.867-13.071V90.004c0-3.309 2.691-6 6-6 3.308 0 6 2.691 6 6v45.921l1.867 13.071h2.133v8h-2v9.997h2v8z"/><path fill="#475059" d="M167.021 168.993h14v-2h-14zM167.021 156.996h14v-2h-14zM167.021 150.996h14v-2h-14z"/><path fill="#4E7684" d="M159.02 209.991l.001-35.998h30v35.998H159.02"/><path fill="#4E7684" d="M160.02 208.991h28l.001-33.998h-28l-.001 33.998zm30 2h-32l.001-37.998h32l-.001 37.998z"/><path fill="#475059" d="M203.02 212.991h6v-2h5c.551 0 1-.448 1-1v-35.998c0-.552-.449-1-1-1h-5v-2h-6v2h-5c-.551 0-1 .448-1 1v35.998c0 .552.449 1 1 1h5v2zm8 2h-10v-2h-3c-1.655 0-3-1.345-3-3v-35.998c0-1.654 1.345-3 3-3h3v-2h10v2h3c1.654 0 3 1.346 3 3v35.998c0 1.655-1.346 3-3 3h-3v2z"/><path fill="#475059" d="M209.02 211.991h2v-39.998h-2zM201.02 211.991h2v-39.998h-2zM139.021 212.991h6v-2h5a1 1 0 0 0 1-1v-35.998a1 1 0 0 0-1-1h-5v-2h-6v2h-5c-.551 0-1 .448-1 1v35.998c0 .552.449 1 1 1h5v2zm8 2h-10v-2h-3c-1.654 0-3-1.345-3-3v-35.998c0-1.654 1.346-3 3-3h3v-2h10v2h3c1.655 0 3 1.346 3 3v35.998c0 1.655-1.345 3-3 3h-3v2z"/><path fill="#475059" d="M145.021 211.991h2v-39.998h-2zM137.021 211.991h2v-39.998h-2zM189.02 211.991h2v-39.998h-2zM157.021 211.991h2v-39.998h-2z"/><path fill="#475059" d="M190.02 176.993h6v-2h-6zM190.02 208.991h6v-2h-6zM152.021 176.993h6v-2h-6zM152.021 208.991h6v-2h-6z"/><path fill="#48515A" d="M213.053 145.953h2v-4h-2zM213.053 155.953h2v-4h-2zM217.053 149.953h4v-2h-4zM207.053 149.953h4v-2h-4zM34.946 185.977h2v-4h-2zM34.946 195.977h2v-4h-2zM38.946 189.977h4v-2h-4zM28.946 189.977h4v-2h-4z"/><path fill="#F58E70" d="M211.006 88.966a2 2 0 1 1-4 0 2 2 0 0 1 4 0"/><path fill="#475059" d="M131.018 50.959l69.498.031h.003a3.49 3.49 0 0 0 2.479-1.024 3.482 3.482 0 0 0 1.027-2.479 3.52 3.52 0 0 0-3.513-3.511l-69.879-.031-5.466 3.481 5.851 3.533zm69.501 2.031h-.005l-70.054-.031-9.087-5.488 8.678-5.526 70.462.031a5.522 5.522 0 0 1 5.512 5.511 5.468 5.468 0 0 1-1.614 3.894 5.473 5.473 0 0 1-3.892 1.609z"/><path fill="#475059" d="M192.751 51.983l-.002-9.013h2l.002 9.013h-2M129.342 51.69h2v-8.485h-2z"/><path fill="#475059" d="M130.827 48.448h62.855v-2h-62.855z"/></g></svg>