<?xml version="1.0" encoding="utf-8"?><svg xmlns="http://www.w3.org/2000/svg" width="250" height="250" viewBox="0 0 250 250"><g fill="none" fill-rule="evenodd"><path fill="#FACD60" d="M135.797 201.996h-18c-8.284 0-15-6.716-15-15v-3h48v3c0 8.284-6.715 15-15 15"/><path fill="#FACD60" d="M103.297 184.497v2.5c0 7.995 6.505 14.5 14.5 14.5h18c7.995 0 14.5-6.505 14.5-14.5v-2.5h-47zm32.5 18h-18c-8.547 0-15.5-6.954-15.5-15.5v-3.5h49v3.5c0 8.546-6.953 15.5-15.5 15.5z"/><path fill="#DBDBD5" d="M98.184 180.996h56v-8h-56z"/><path fill="#DBDBD5" d="M99.184 179.996h54v-6h-54v6zm-2 2h58v-10h-58v10z"/><path fill="#434A4F" d="M94.184 174.049h64v-2h-64zM138.242 205.996h-21.228c-4.974 0-9.65-1.937-13.167-5.454a18.501 18.501 0 0 1-5.454-13.168v-6.325h2v6.325c0 4.44 1.729 8.614 4.868 11.753a16.51 16.51 0 0 0 11.753 4.869h21.111c3.606-.43 7.083-2.158 9.795-4.869a16.513 16.513 0 0 0 4.868-11.753v-6.325h2v6.325c0 4.974-1.937 9.651-5.454 13.168-3.044 3.043-6.963 4.978-11.035 5.447l-.057.007M94.184 178.049h64v-2h-64z"/><path fill="#434A4F" d="M94.184 182.049h64v-2h-64z"/><path fill="#75C7D0" d="M61.797 50.995a4 4 0 1 1-8 0 4 4 0 0 1 8 0"/><path fill="#434A4F" d="M192.875 185.99c-2.206 0-4 1.794-4 4s1.794 4 4 4 4-1.794 4-4-1.794-4-4-4zm0 10c-3.309 0-6-2.692-6-6 0-3.309 2.691-6 6-6s6 2.691 6 6c0 3.308-2.691 6-6 6z"/><path fill="#FACD60" d="M86.023 200.99a4 4 0 1 0-8 0 4 4 0 0 0 8 0"/><path fill="#434A4F" d="M175.797 32.996h2v-4h-2zM175.797 42.996h2v-4h-2zM179.797 36.996h4v-2h-4zM169.797 36.996h4v-2h-4zM205.797 82.926h2v-4h-2zM205.797 92.926h2v-4h-2zM209.797 86.926h4v-2h-4zM199.797 86.926h4v-2h-4zM49.797 120.996h2v-4h-2zM49.797 130.996h2v-4h-2zM53.797 124.996h4v-2h-4zM43.797 124.996h4v-2h-4zM50.803 79.99c-1.103 0-2 .897-2 2s.897 2 2 2 2-.897 2-2-.897-2-2-2zm0 6c-2.206 0-4-1.795-4-4 0-2.206 1.794-4 4-4 2.205 0 4 1.794 4 4 0 2.205-1.795 4-4 4zM155.797 210.996h2v-4h-2zM155.797 220.996h2v-4h-2zM159.797 214.996h4v-2h-4zM149.797 214.996h4v-2h-4z"/><path fill="#75C7D0" d="M172.004 188.651a4 4 0 1 1-8 0 4 4 0 0 1 8 0"/><path fill="#434A4F" d="M123.003 212.991h2v-7.995h-2zM129.003 212.991h2v-7.995h-2zM124.003 217.002a1 1 0 0 1-1-1c0-.552.448-1.004 1-1.004.553 0 1 .442 1 .995v.009a1 1 0 0 1-1 1m6 0a1 1 0 0 1-1-1c0-.552.448-1.004 1-1.004.553 0 1 .442 1 .995v.009a1 1 0 0 1-1 1m-6 4.002a1 1 0 0 1-1-1c0-.552.448-1.004 1-1.004.553 0 1 .442 1 .995v.009a1 1 0 0 1-1 1m6 0a1 1 0 0 1-1-1c0-.552.448-1.004 1-1.004.553 0 1 .442 1 .995v.009a1 1 0 0 1-1 1"/><path fill="#E9886C" d="M57.005 150.068c-12.682 0-23 10.317-23 23 0 12.682 10.318 23 23 23s23-10.318 23-23c0-12.683-10.318-23-23-23zm0 48c-13.785 0-25-11.215-25-25s11.215-25 25-25 25 11.215 25 25-11.215 25-25 25z"/><path fill="#434A4F" d="M76.959 174.068h-3.556a1 1 0 1 1 0-2h3.556a1 1 0 1 1 0 2"/><path fill="#434A4F" d="M76.959 174.068h-3.556a1 1 0 1 1 0-2h3.556a1 1 0 1 1 0 2m-9.837 17.484a1 1 0 0 1-.868-.5l-1.777-3.079a1 1 0 1 1 1.732-1l1.778 3.079a1 1 0 0 1-.865 1.5m4.02-25.928a1.002 1.002 0 0 1-.501-1.867l3.079-1.777a1.001 1.001 0 0 1 1 1.732l-3.079 1.778a.997.997 0 0 1-.499.134m3.409 18.252c-.169 0-.341-.043-.499-.133l-3.079-1.778a1 1 0 0 1 1-1.732l3.079 1.777a1.001 1.001 0 1 1-.501 1.866m-9.482-24.463a1 1 0 0 1-.865-1.5l1.777-3.08a1 1 0 1 1 1.733 1l-1.778 3.08a1 1 0 0 1-.867.5M57.958 185.201h-2v-14.022h9.89v2h-7.89v12.022M57.002 157.179a1 1 0 0 1-1-1v-3.555a1 1 0 1 1 2 0v3.555a1 1 0 0 1-1 1m.001 37.333a1 1 0 0 1-1-1v-3.555a1 1 0 1 1 2 0v3.555a1 1 0 0 1-1 1m-16.445-20.444h-3.556a1 1 0 1 1 0-2h3.556a1 1 0 1 1 0 2"/><path fill="#434A4F" d="M57.002 157.179a1 1 0 0 1-1-1v-3.555a1 1 0 1 1 2 0v3.555a1 1 0 0 1-1 1m.001 37.333a1 1 0 0 1-1-1v-3.555a1 1 0 1 1 2 0v3.555a1 1 0 0 1-1 1m-16.445-20.444h-3.556a1 1 0 1 1 0-2h3.556a1 1 0 1 1 0 2m6.282 17.484a1 1 0 0 1-.865-1.5l1.777-3.079a1 1 0 0 1 1.733 1l-1.778 3.079a.997.997 0 0 1-.867.5m-4.021-25.928a.997.997 0 0 1-.499-.134l-3.079-1.778a1 1 0 0 1 1-1.732l3.079 1.777c.478.277.642.888.367 1.367-.186.32-.522.5-.868.5m-3.409 18.252a1 1 0 0 1-.501-1.866l3.079-1.777a1.001 1.001 0 0 1 1 1.732l-3.079 1.778c-.158.09-.33.133-.499.133m9.482-24.463a1 1 0 0 1-.867-.5l-1.778-3.08a1 1 0 1 1 1.732-1l1.778 3.08a1 1 0 0 1-.865 1.5M125.904 39.99c-.55 0-.99-.45-.99-1s.45-1 1-1c.55.009 1 .45 1 1.009 0 .551-.45.991-1 .991h-.01zm-5-.81c-.03-.55.39-1.02.94-1.06a1.003 1.003 0 0 1 .13 2h-.07c-.52 0-.96-.41-1-.94zm8.95.95a.998.998 0 0 1-.94-1.06c.04-.55.52-.97 1.07-.93.55.04.97.51.93 1.06a.99.99 0 0 1-1 .93h-.06zm-12.93-.49c-.07-.55.32-1.05.86-1.12a.989.989 0 0 1 1.12.86.992.992 0 0 1-.86 1.119c-.04 0-.08.011-.13.011-.49 0-.92-.37-.99-.87zm16.85.89a.987.987 0 0 1-.86-1.12 1 1 0 0 1 1.12-.86h.01c.539.08.92.58.85 1.13a1 1 0 0 1-.99.86c-.04 0-.09 0-.13-.01zm-20.79-.17c-.11-.54.24-1.07.78-1.18a.997.997 0 0 1 1.18.79.992.992 0 0 1-.78 1.17c-.07.02-.14.02-.2.02-.47 0-.89-.33-.98-.8zm24.67.84c-.54-.12-.89-.64-.78-1.18a1 1 0 1 1 .98 1.2c-.07 0-.13-.01-.2-.02zm-28.55.14a.995.995 0 1 1 1.92-.52.988.988 0 0 1-.7 1.22c-.09.03-.17.04-.26.04-.44 0-.85-.29-.96-.74zm32.38.78a.995.995 0 0 1-.7-1.23c.15-.53.7-.84 1.23-.7.53.15.85.7.7 1.24-.12.44-.53.73-.97.73-.08 0-.17-.01-.26-.04zm-36.2.46c-.18-.52.1-1.09.62-1.27a1.001 1.001 0 0 1 .66 1.89h-.01c-.1.04-.21.06-.32.06-.42 0-.8-.261-.95-.68zm39.95.72a.996.996 0 0 1-.61-1.27c.18-.52.75-.801 1.28-.62.52.19.79.76.61 1.28-.15.41-.53.67-.95.67a.96.96 0 0 1-.33-.06zm-43.67.78a.994.994 0 0 1 .53-1.31c.51-.22 1.1.02 1.31.53.22.51-.02 1.1-.53 1.31a.998.998 0 0 1-1.31-.53zm47.34.649a.998.998 0 0 1-.53-1.309c.22-.51.81-.74 1.32-.53.5.22.74.81.52 1.32-.16.38-.53.6-.92.6-.13 0-.26-.02-.39-.081zm-50.95 1.091a.994.994 0 1 1 1.78-.89c.25.49.05 1.09-.44 1.34-.14.07-.3.1-.45.1a.98.98 0 0 1-.89-.55zm54.51.59c-.49-.26-.68-.86-.43-1.35a1 1 0 0 1 1.78.91c-.18.35-.53.55-.89.55-.16 0-.31-.041-.46-.11zm-58 1.4c-.28-.48-.12-1.09.35-1.37a.99.99 0 0 1 1.37.35c.28.47.12 1.09-.351 1.37-.159.089-.339.14-.509.14-.34 0-.68-.18-.86-.49zm61.45.5c-.47-.28-.63-.89-.35-1.37a1.001 1.001 0 1 1 1.72 1.03c-.19.31-.52.48-.86.48a.96.96 0 0 1-.51-.14zm-64.8 1.71c-.31-.46-.19-1.08.259-1.39a1 1 0 1 1 1.131 1.65c-.17.12-.37.17-.56.17a1 1 0 0 1-.83-.43zm68.11.43c-.45-.32-.57-.94-.25-1.4.31-.45.94-.56 1.39-.25.45.31.57.94.25 1.39-.19.28-.5.43-.82.43a1 1 0 0 1-.57-.17zm-71.3 1.99a.99.99 0 0 1 .17-1.4.992.992 0 0 1 1.4.17.992.992 0 0 1-.17 1.4c-.18.15-.4.22-.61.22-.3 0-.591-.14-.79-.39zm74.47.35a.99.99 0 0 1-.16-1.4c.34-.43.97-.51 1.4-.161.43.341.51.971.16 1.401-.19.25-.49.38-.78.38-.22 0-.44-.07-.62-.22zm-77.49 2.29a.997.997 0 1 1 1.48-1.34c.37.41.34 1.04-.07 1.41-.191.17-.43.26-.67.26a.98.98 0 0 1-.74-.33zm80.49.26a.997.997 0 0 1-.07-1.41 1.01 1.01 0 0 1 1.42-.07c.41.369.44 1.01.07 1.42-.2.21-.47.32-.75.32a.959.959 0 0 1-.67-.26zm-83.33 2.57a.999.999 0 0 1-.02-1.42c.38-.39 1.01-.4 1.41-.02.39.39.4 1.02.02 1.42-.2.2-.46.3-.72.3-.25 0-.5-.09-.69-.28zm86.16.18a.996.996 0 0 1 .03-1.41.987.987 0 0 1 1.41.02c.39.4.38 1.029-.02 1.41a1.015 1.015 0 0 1-1.42-.02zm-88.81 2.83a1.01 1.01 0 0 1-.12-1.41c.36-.42.99-.47 1.41-.12.43.359.48.99.12 1.41a.987.987 0 0 1-.76.36c-.23-.01-.46-.08-.65-.24zm91.46.09a.986.986 0 0 1 .11-1.4.997.997 0 0 1 1.41.11.999.999 0 0 1-.76 1.65.988.988 0 0 1-.76-.36zm-93.9 3.08a.983.983 0 0 1-.21-1.39.995.995 0 0 1 1.4-.21c.44.33.54.95.209 1.4-.199.26-.5.4-.799.4a.97.97 0 0 1-.6-.2zm96.34.02c-.33-.45-.231-1.07.21-1.4a.994.994 0 0 1 1.4.21c.33.44.23 1.07-.21 1.4a1.018 1.018 0 0 1-1.4-.21zm-98.56 3.32c-.47-.3-.6-.92-.3-1.38.3-.47.91-.6 1.38-.301a1.001 1.001 0 0 1-.54 1.841c-.19 0-.37-.05-.54-.16zm100.8-.08c-.3-.46-.16-1.08.3-1.38a1 1 0 0 1 1.38.31c.3.46.16 1.08-.3 1.38-.17.1-.351.16-.54.16-.33 0-.65-.17-.84-.47zm-102.8 3.55a1 1 0 1 1 1.36-.39.994.994 0 0 1-1.36.39zm104.81-.16a.992.992 0 0 1 .4-1.35c.48-.27 1.09-.09 1.36.39.259.49.08 1.09-.4 1.36-.15.08-.32.12-.48.12a1 1 0 0 1-.88-.52zm-106.57 3.759a1 1 0 0 1-.48-1.329c.24-.5.83-.72 1.33-.48a.997.997 0 1 1-.42 1.9c-.14 0-.29-.03-.43-.091zm108.36-.239a.996.996 0 0 1 .479-1.33c.5-.23 1.101-.01 1.331.49a1 1 0 0 1-.91 1.42.99.99 0 0 1-.9-.58zM69.484 78.2a.998.998 0 0 1-.57-1.29 1.001 1.001 0 1 1 1.87.72 1 1 0 0 1-1.3.57zm111.41-.31c-.2-.51.06-1.09.57-1.29.52-.2 1.1.06 1.29.57.21.52-.05 1.1-.57 1.29a.99.99 0 0 1-1.29-.57zm-112.67 4.12a.988.988 0 0 1-.65-1.25.997.997 0 0 1 1.25-.66c.53.17.82.73.65 1.25h.01c-.14.43-.54.71-.96.71-.1 0-.2-.02-.3-.05zm113.96-.39c-.16-.53.14-1.09.66-1.25a.989.989 0 0 1 1.25.66c.17.52-.13 1.08-.66 1.25-.09.03-.19.04-.29.04-.43 0-.82-.27-.96-.7zm-114.96 4.27c-.54-.13-.87-.67-.74-1.21.13-.53.67-.86 1.21-.73a1.001 1.001 0 1 1-.24 1.97.902.902 0 0 1-.23-.03zm116-.47a.994.994 0 0 1 .74-1.2c.54-.13 1.08.2 1.21.74a1.007 1.007 0 0 1-.97 1.23c-.46 0-.871-.31-.98-.77zm-116.74 4.41c-.54-.09-.91-.61-.82-1.15a.99.99 0 0 1 1.15-.82c.55.09.91.61.82 1.15-.08.489-.5.83-.98.83-.06 0-.11 0-.17-.01zm117.52-.55a.999.999 0 1 1 1.15.82c-.06.01-.11.02-.17.02a.996.996 0 0 1-.98-.84zm.51 3.91c-.05-.55.35-1.04.9-1.1a1 1 0 0 1 1.09.9c.06.55-.35 1.04-.9 1.1h-.09c-.51 0-.95-.39-1-.9zm.25 3.93c-.01-.55.42-1.01.97-1.03a.997.997 0 0 1 1.03.97c.02.55-.42 1.01-.97 1.03h-.03c-.54 0-.98-.43-1-.97zm.96 4.98a.998.998 0 0 1-.96-1.04c.02-.55.48-.98 1.03-.96.55.02.98.48.97 1.03-.02.54-.47.97-1 .97h-.04zm-.34 3.99a.999.999 0 0 1-.89-1.09c.05-.55.55-.95 1.1-.9.54.06.95.55.89 1.1-.05.51-.49.9-.99.9-.04 0-.07 0-.11-.01zm-119.77 2.87c-.09-.55.28-1.06.82-1.16a1.004 1.004 0 0 1 .33 1.98c-.06.01-.11.01-.17.01-.48 0-.9-.35-.98-.83zm119.17 1.1c-.54-.1-.91-.61-.82-1.16a1 1 0 0 1 1.16-.81c.54.09.91.6.82 1.15-.09.489-.51.83-.99.83-.05 0-.11 0-.17-.01zm-118.37 2.89a.998.998 0 0 1 .74-1.2c.54-.13 1.08.2 1.21.74a1 1 0 0 1-.75 1.2c-.07.02-.15.03-.23.03-.45 0-.86-.31-.97-.77zm117.49 1.18c-.54-.12-.88-.66-.76-1.2.01-.02.01-.05.02-.07.01-.03.01-.06.02-.09a.995.995 0 0 1 1.2-.74c.54.12.87.66.74 1.199 0 .021-.01.041-.01.061-.01.03-.01.05-.02.08-.1.46-.511.78-.97.78-.08 0-.15-.01-.22-.02zm-116.42 2.76c-.16-.53.139-1.09.66-1.25a.99.99 0 0 1 1.25.66.994.994 0 0 1-.66 1.25c-.09.03-.19.04-.29.04-.43 0-.821-.27-.96-.7zm115.33 1.1a1.003 1.003 0 0 1 .58-1.92c.53.159.83.72.67 1.24-.13.44-.53.72-.96.72-.09 0-.19-.02-.29-.04zm-113.99 2.75a1 1 0 1 1 1.87-.71h-.01c.2.51-.05 1.09-.57 1.29-.11.04-.241.06-.36.06a.99.99 0 0 1-.93-.64zm112.63 1.01c-.51-.19-.77-.771-.58-1.29.2-.51.78-.77 1.3-.57.51.19.77.77.57 1.29a.99.99 0 0 1-1.29.57zm-111.04 2.75c-.23-.5-.01-1.1.49-1.33a.987.987 0 0 1 1.32.49h.01c.23.5.01 1.09-.49 1.319a.913.913 0 0 1-.42.101c-.38 0-.74-.22-.91-.58zm109.41.92c-.5-.23-.71-.83-.48-1.33.23-.5.83-.72 1.33-.48a.997.997 0 1 1-.42 1.9c-.15 0-.29-.031-.43-.09zm-107.57 2.72c-.26-.49-.09-1.1.4-1.36a.99.99 0 0 1 1.35.389.999.999 0 0 1-.39 1.361c-.16.09-.32.13-.48.13a1 1 0 0 1-.88-.52zm105.68.81a.999.999 0 1 1 .98-1.741c.48.26.65.871.38 1.361-.18.32-.52.51-.87.51-.17 0-.33-.04-.49-.13zm-103.6 2.69c-.3-.46-.16-1.08.3-1.381a1 1 0 0 1 1.38.311c.3.46.16 1.08-.3 1.38a1.1 1.1 0 0 1-.54.16c-.33 0-.65-.17-.84-.47zm101.46.699a.987.987 0 0 1-.28-1.38h-.01c.31-.459.93-.589 1.39-.29.46.3.59.92.29 1.391-.2.29-.52.449-.84.449-.19 0-.38-.059-.55-.17zM76.634 135v.009a1.001 1.001 0 0 1 1.61-1.189.993.993 0 0 1-.8 1.59 1 1 0 0 1-.81-.41zm96.78.57c-.44-.34-.52-.97-.19-1.401.34-.439.97-.529 1.41-.189.44.34.52.97.18 1.399a.993.993 0 0 1-.79.401c-.21 0-.43-.071-.61-.21zm-94.26 2.639c-.35-.429-.3-1.059.12-1.41a1 1 0 1 1 1.29 1.531.972.972 0 0 1-.64.23c-.29 0-.57-.12-.77-.351zm91.69.431c-.42-.35-.47-.98-.12-1.41a.998.998 0 0 1 1.41-.11 1 1 0 0 1 .12 1.41c-.2.229-.48.349-.76.349-.23 0-.46-.08-.65-.239zm-88.96 2.6a1.008 1.008 0 0 1 .03-1.42.996.996 0 0 1 1.41.03c.38.4.37 1.029-.03 1.409a.964.964 0 0 1-.69.281c-.26 0-.52-.1-.72-.3zm86.21.32a.996.996 0 0 1-.02-1.41c.39-.4 1.02-.4 1.41-.021.4.38.41 1.021.02 1.411-.19.2-.45.31-.71.31-.25 0-.51-.1-.7-.29zm-83.29 2.52a1.01 1.01 0 0 1-.07-1.42c.37-.401 1.01-.43 1.41-.06.41.369.44 1 .07 1.409a.993.993 0 0 1-1.41.071zm80.35.21a.999.999 0 0 1 .08-1.411.99.99 0 0 1 1.41.08.99.99 0 0 1-.08 1.411 1.005 1.005 0 0 1-1.41-.08zm-77.25 2.429a1 1 0 0 1-.16-1.409c.34-.431.97-.5 1.4-.15.44.34.51.969.16 1.4-.2.25-.49.38-.78.38-.22 0-.44-.07-.62-.221zm74.14.101c-.34-.43-.26-1.061.17-1.401a.993.993 0 0 1 1.4.17.991.991 0 0 1-.16 1.401c-.19.139-.41.21-.621.21-.299 0-.589-.13-.789-.38zm-70.88 2.33a1.007 1.007 0 0 1-.25-1.391 1 1 0 0 1 1.39-.25 1 1 0 0 1 .26 1.391c-.2.28-.51.43-.83.43-.19 0-.39-.06-.57-.18zm67.61-.01a.997.997 0 0 1 .26-1.39.988.988 0 0 1 1.39.259c.31.45.19 1.08-.26 1.391-.17.12-.37.17-.56.17-.32 0-.64-.151-.83-.43zm-64.19 2.22c-.47-.28-.62-.901-.34-1.37.29-.47.9-.63 1.37-.34a.997.997 0 1 1-1.03 1.71zm60.77-.13c-.28-.48-.12-1.09.35-1.37.48-.28 1.09-.12 1.37.349.28.481.12 1.09-.35 1.38v-.009c-.16.1-.34.139-.51.139-.34 0-.68-.17-.86-.489zm-57.21 2.109c-.49-.25-.68-.849-.43-1.349.25-.49.85-.68 1.35-.43.49.25.68.859.43 1.35-.18.34-.53.54-.89.54a.947.947 0 0 1-.46-.111zm53.66-.25a.997.997 0 0 1 1.779-.899c.25.5.051 1.1-.439 1.34-.15.08-.3.11-.45.11a.98.98 0 0 1-.89-.551zm-49.971 1.991a1.016 1.016 0 0 1-.529-1.321c.22-.5.81-.739 1.32-.519.51.219.74.809.52 1.309a.998.998 0 0 1-.92.611c-.13 0-.26-.031-.391-.08zm46.301-.371a.99.99 0 0 1 .53-1.309.99.99 0 0 1 1.31.53 1 1 0 1 1-1.84.779zm-42.51 1.851a.993.993 0 0 1-.61-1.27c.18-.531.75-.8 1.27-.621a1.005 1.005 0 0 1-.33 1.951.96.96 0 0 1-.33-.06zm38.74-.48c-.18-.531.1-1.1.62-1.281.52-.179 1.09.101 1.27.62.18.531-.1 1.101-.62 1.281v-.01a.96.96 0 0 1-.33.06c-.41 0-.8-.26-.94-.67zm-34.86 1.71c-.53-.15-.84-.701-.69-1.241.15-.529.7-.84 1.23-.689.53.149.84.7.7 1.229-.13.441-.53.731-.97.731-.09 0-.18-.01-.27-.03zm31-.6a1.002 1.002 0 0 1 1.93-.53.995.995 0 0 1-.7 1.23.81.81 0 0 1-.26.04c-.44 0-.85-.301-.97-.74zm-27.03 1.56a1.01 1.01 0 0 1-.78-1.19.987.987 0 0 1 1.18-.77c.54.11.89.64.78 1.179-.1.471-.52.801-.98.801-.07 0-.14-.011-.2-.02zm23.109-.72c-.099-.54.25-1.061.791-1.17a.987.987 0 0 1 1.17.78c.11.54-.24 1.069-.78 1.18-.07.01-.13.019-.2.019-.46 0-.88-.33-.981-.809zm-19.099 1.4v.01a.995.995 0 0 1-.85-1.13.993.993 0 1 1 1.97.27c-.06.5-.49.86-.98.86-.05 0-.09 0-.14-.01zm15.14-.81a.988.988 0 0 1 .86-1.12.995.995 0 0 1 1.12.86c.07.55-.32 1.05-.86 1.12-.05.01-.09.01-.13.01-.5 0-.93-.37-.99-.87zm-11.09 1.23a.992.992 0 0 1-.92-1.07c.03-.55.51-.96 1.06-.93v.01c.55.03.97.51.93 1.059-.04.531-.48.931-1 .931h-.07zm7.09-.91a.991.991 0 0 1 .93-1.061.991.991 0 0 1 1.06.931.99.99 0 0 1-.93 1.06h-.07a.988.988 0 0 1-.99-.93zm-3.02 1.05c-.55 0-.99-.45-.99-1s.45-1 1-1c.55.01 1 .45 1 1.01 0 .549-.45.99-1 .99h-.01z"/><path fill="#42494E" d="M141.685 104.864l-1.901-.62a14.648 14.648 0 0 0-.874-11.247 14.64 14.64 0 0 0-8.571-7.334c-7.723-2.516-16.062 1.717-18.582 9.444l-1.901-.62c2.861-8.775 12.327-13.586 21.103-10.726a16.625 16.625 0 0 1 9.733 8.33 16.624 16.624 0 0 1 .993 12.773"/><path fill="#E9886C" d="M125.794 91.103c-4.687 0-8.5 3.813-8.5 8.5 0 4.687 3.813 8.5 8.5 8.5 4.687 0 8.5-3.813 8.5-8.5 0-4.687-3.813-8.5-8.5-8.5zm0 20c-6.341 0-11.5-5.159-11.5-11.5s5.159-11.5 11.5-11.5 11.5 5.159 11.5 11.5-5.159 11.5-11.5 11.5z"/><path fill="#434A4F" d="M126.744 79.62a.99.99 0 0 1-.95-1.04c.02-.55.49-.98 1.05-.95.55.02.97.49.95 1.04-.03.54-.47.96-1 .96-.02 0-.03 0-.05-.01zm-4.93-.67a1 1 0 0 1 .85-1.13c.54-.071 1.05.31 1.13.85.08.55-.3 1.059-.85 1.14v-.01a1 1 0 0 1-1.13-.85zm8.69 1.21c-.53-.13-.86-.67-.73-1.21a.997.997 0 1 1 1.94.47 1.001 1.001 0 0 1-1.21.74zm-12.53-.08c-.18-.52.1-1.09.62-1.27a.993.993 0 0 1 1.27.62.996.996 0 0 1-.61 1.27c-.11.029-.22.049-.33.049-.42 0-.8-.259-.95-.669zm16.13 1.32v.01c-.5-.23-.72-.83-.49-1.33.219-.5.82-.72 1.32-.49.5.23.72.82.49 1.32-.16.37-.53.58-.91.58-.13 0-.28-.02-.41-.09zm-19.68.52c-.27-.48-.11-1.1.37-1.37a.985.985 0 0 1 1.36.36.999.999 0 0 1-.36 1.37 1.02 1.02 0 0 1-1.37-.36zm22.97 1.39a.995.995 0 0 1-.23-1.39c.32-.46.94-.56 1.39-.24.45.319.56.95.24 1.4-.2.27-.51.41-.82.41-.2 0-.4-.06-.58-.18zm-26.11 1.08c-.36-.42-.31-1.05.1-1.411a.99.99 0 0 1 1.41.101.99.99 0 0 1-.1 1.41c-.19.16-.42.239-.65.239-.28 0-.56-.119-.76-.339zm28.98 1.41a.996.996 0 0 1 .04-1.41.996.996 0 0 1 1.41.03c.38.4.369 1.03-.03 1.42a1.02 1.02 0 0 1-1.42-.04zm-31.6 1.61c-.43-.34-.51-.97-.16-1.411a.99.99 0 0 1 1.4-.159c.429.34.51.97.17 1.4-.2.25-.491.38-.79.38-.22 0-.43-.07-.62-.21zm33.96 1.38a.993.993 0 0 1 .3-1.38.993.993 0 0 1 1.38.3 1.002 1.002 0 0 1-.84 1.539.986.986 0 0 1-.84-.459zm-35.96 2.08c-.49-.26-.68-.86-.43-1.35.25-.49.86-.68 1.349-.43.491.25.681.86.431 1.35-.181.34-.53.539-.89.539-.16 0-.31-.039-.46-.109zm37.7 1.3a1.004 1.004 0 0 1 1.86-.75c.2.52-.04 1.1-.56 1.3-.12.05-.24.08-.37.08-.39 0-.77-.24-.93-.63zm-39.01 2.48a.993.993 0 0 1-.67-1.24c.149-.53.7-.84 1.23-.681.53.151.84.711.68 1.241-.12.43-.52.72-.96.72-.09 0-.18-.02-.28-.04zm40.08 1.17a.994.994 0 0 1 .8-1.17.999.999 0 0 1 1.17.79 1 1 0 0 1-.8 1.17c-.06.01-.12.02-.18.02-.48 0-.9-.34-.99-.81zm-40.64 2.78a.993.993 0 0 1-.9-1.09 1 1 0 1 1 1.99.19 1 1 0 0 1-.99.91c-.04 0-.07 0-.1-.01zm41 1c0-.55.45-1 1-1s1 .45 1 1c0 .56-.45 1-1 1s-1-.44-1-1zm-41.9 2.1v-.01c-.05-.55.35-1.03.9-1.09.55-.05 1.039.36 1.09.91.05.54-.35 1.03-.9 1.09h-.1c-.51 0-.94-.39-.99-.9zm42.34 2.86c-.55-.11-.901-.63-.8-1.17.1-.54.63-.9 1.17-.79.55.1.9.62.8 1.17-.1.48-.51.81-.98.81-.07 0-.13-.01-.19-.02zm-41.55 1.24a.993.993 0 0 1 .67-1.24c.53-.15 1.09.15 1.24.68a.991.991 0 0 1-.96 1.28c-.43 0-.83-.28-.95-.72zm40.24 2.54c-.51-.21-.76-.79-.56-1.3.21-.52.79-.76 1.3-.561.52.211.76.791.56 1.301a1.005 1.005 0 0 1-1.3.56zm-38.69 1.35c-.25-.5-.06-1.1.43-1.35s1.09-.06 1.35.43c.25.49.06 1.09-.431 1.35-.149.07-.309.109-.459.109-.36 0-.71-.199-.89-.539zm36.69 2.11c-.47-.3-.6-.92-.3-1.38a1 1 0 1 1 .3 1.38zm-34.42 1.4a.99.99 0 0 1 .16-1.4c.44-.34 1.07-.27 1.41.17.34.43.259 1.06-.17 1.4-.18.14-.4.21-.62.21a.97.97 0 0 1-.78-.38zm31.8 1.62c-.4-.38-.42-1.02-.04-1.42.39-.4 1.02-.41 1.42-.03.399.38.41 1.01.03 1.42-.19.2-.46.3-.72.3-.25 0-.5-.09-.69-.27zm-28.92 1.409a.999.999 0 1 1 1.31-1.509c.42.36.47.99.1 1.41-.2.23-.47.34-.75.34-.24 0-.47-.08-.66-.241zm25.78 1.061a.994.994 0 0 1 .23-1.39c.45-.32 1.07-.22 1.4.23.32.45.21 1.07-.24 1.39v.01c-.17.12-.38.18-.58.18a.97.97 0 0 1-.81-.42zm-22.37 1.37a1.01 1.01 0 0 1-.37-1.37c.28-.48.89-.64 1.37-.36a.996.996 0 0 1-.5 1.86c-.17 0-.34-.04-.5-.13zm18.82.47c-.23-.51-.01-1.1.49-1.33a.99.99 0 0 1 1.32.5.995.995 0 1 1-1.81.83zm-15.02 1.27a.988.988 0 0 1-.61-1.27c.18-.52.75-.8 1.27-.62.52.18.79.75.62 1.27-.15.41-.53.67-.95.67-.11 0-.22-.01-.33-.05zm11.18-.15c-.13-.54.2-1.08.74-1.21a.996.996 0 0 1 1.2.74 1.002 1.002 0 0 1-.97 1.24c-.45 0-.86-.31-.97-.77zm-7.11 1.13a1 1 0 1 1 .14.01c-.05 0-.09 0-.14-.01zm3.13-.75c-.03-.56.4-1.02.95-1.05.55-.03 1.02.399 1.05.95.02.56-.4 1.02-.95 1.05h-.05c-.53 0-.97-.42-1-.95z"/><path fill="#434A4F" d="M123.818 134.594l6.994.008.004-3.929c.003-2.923 1.802-5.392 4.581-6.292 2.782-.901 5.686.048 7.4 2.413l2.307 3.181 5.662-4.104-2.306-3.182c-1.715-2.365-1.712-5.42.008-7.783 1.72-2.362 4.626-3.304 7.405-2.397l3.735 1.218 2.121-6.507-3.734-1.218c-2.779-.905-4.572-3.379-4.569-6.301.003-2.922 1.801-5.392 4.581-6.292l3.738-1.211-2.155-6.653-3.738 1.21c-2.782.9-5.685-.047-7.4-2.412-1.716-2.366-1.713-5.421.007-7.783l2.313-3.177-5.654-4.116-2.312 3.176c-1.721 2.362-4.628 3.302-7.405 2.398-2.778-.905-4.572-3.379-4.569-6.301l.003-3.929-6.993-.007-.004 3.929c-.003 2.922-1.801 5.392-4.581 6.292-2.781.902-5.685-.046-7.4-2.412l-2.306-3.181-5.662 4.105 2.306 3.181c1.715 2.366 1.712 5.42-.007 7.783-1.721 2.362-4.626 3.304-7.406 2.398l-3.735-1.218-2.12 6.502 3.736 1.218c2.777.906 4.571 3.38 4.568 6.302-.003 2.922-1.802 5.392-4.582 6.292l-3.738 1.21 2.155 6.654 3.737-1.21c2.78-.902 5.686.047 7.401 2.413 1.714 2.366 1.712 5.421-.009 7.783l-2.313 3.176 5.654 4.116 2.313-3.176c1.72-2.362 4.628-3.304 7.405-2.397 2.778.906 4.571 3.38 4.568 6.302l-.004 3.928zm8.992 2.01l-10.994-.012.006-5.928c.003-2.476-1.645-3.895-3.188-4.398-1.543-.503-3.712-.328-5.168 1.673l-3.49 4.793-8.888-6.472 3.49-4.793c1.458-2.001.959-4.117.006-5.431-.952-1.315-2.809-2.445-5.165-1.685l-5.64 1.826-3.386-10.459 5.64-1.825c2.355-.763 3.196-2.769 3.198-4.392.001-1.624-.835-3.631-3.188-4.399l-5.637-1.837 3.36-10.305 5.636 1.838c2.354.767 4.214-.362 5.168-1.674.956-1.312 1.459-3.428.006-5.432l-3.48-4.8 8.9-6.453 3.48 4.8c1.452 2.003 3.619 2.183 5.165 1.684 1.544-.5 3.195-1.917 3.197-4.392l.006-5.929 10.993.011-.005 5.929c-.002 2.475 1.646 3.894 3.189 4.397 1.543.505 3.71.328 5.167-1.673l3.49-4.793 8.888 6.471-3.49 4.793c-1.457 2.001-.958 4.118-.005 5.432.952 1.314 2.809 2.444 5.165 1.684l5.64-1.827 3.387 10.459-5.64 1.826c-2.355.763-3.196 2.769-3.197 4.392-.002 1.623.835 3.63 3.189 4.398l5.636 1.837-3.361 10.311-5.637-1.839c-2.353-.768-4.213.361-5.168 1.673-.956 1.313-1.459 3.429-.006 5.433l3.48 4.8-8.901 6.452-3.48-4.8c-1.453-2.004-3.619-2.186-5.164-1.684-1.544.5-3.196 1.916-3.198 4.391l-.006 5.929z"/><path fill="#434A4F" d="M163.957 59.128c-11.102-10.525-25.655-15.869-40.993-15.051-26.267 1.402-47.858 21.644-51.584 47.207h2.022c3.71-24.501 24.453-43.864 49.669-45.21 14.777-.789 28.81 4.362 39.51 14.506 10.707 10.15 16.603 23.861 16.603 38.609 0 14.586-5.815 28.193-16.373 38.315-6.083 5.831-9.434 13.489-9.434 21.559v12.986H98.603v-13.691c0-7.692-3.258-15.011-9.175-20.608a53.184 53.184 0 0 1-15.462-27.627h-2.043a55.192 55.192 0 0 0 16.131 29.081c5.513 5.214 8.549 12.017 8.549 19.154v15.691h58.774v-14.986c0-7.521 3.132-14.664 8.818-20.115 10.955-10.503 16.989-24.623 16.989-39.759 0-15.302-6.118-29.529-17.227-40.061"/><path fill="#42494E" d="M37.684 96.979c-1.655 0-3 1.346-3 3 0 1.655 1.345 3 3 3h45.159l6.506-3-6.506-3H37.684zm0 8c-2.757 0-5-2.243-5-5 0-2.756 2.243-5 5-5h45.597l10.844 5-10.844 5H37.684z"/><path fill="#42494E" d="M43.294 103.979h2v-7.598h-2z"/><path fill="#42494E" d="M44.293 100.951h38v-2h-38zM200.995 150.66c-4.962 0-9 4.037-9 9s4.038 9 9 9c4.963 0 9-4.037 9-9s-4.037-9-9-9zm0 20c-6.065 0-11-4.935-11-11 0-6.066 4.935-11 11-11 6.066 0 11 4.934 11 11 0 6.065-4.934 11-11 11zm0-26c-8.271 0-15 6.728-15 15 0 8.271 6.729 15 15 15s15-6.729 15-15c0-8.272-6.729-15-15-15zm0 32c-9.374 0-17-7.626-17-17 0-9.374 7.626-17 17-17 9.374 0 17 7.626 17 17 0 9.374-7.626 17-17 17z"/><path fill="#42494E" d="M200.995 156.66c-1.654 0-3 1.345-3 3 0 1.654 1.346 3 3 3s3-1.346 3-3c0-1.655-1.346-3-3-3zm0 8c-2.757 0-5-2.243-5-5s2.243-5 5-5 5 2.243 5 5-2.243 5-5 5z"/><path fill="#E9886C" d="M200.995 155.66a4 4 0 1 0 0 8 4 4 0 0 0 0-8"/><path fill="#E9886C" d="M200.995 156.66c-1.654 0-3 1.345-3 3 0 1.654 1.346 3 3 3s3-1.346 3-3c0-1.655-1.346-3-3-3zm0 8c-2.757 0-5-2.243-5-5s2.243-5 5-5 5 2.243 5 5-2.243 5-5 5z"/><path fill="#42494E" d="M173.997 160.66h26.998v-2h-26.998z"/><path fill="#42494E" d="M167.41 162.66h3.172l3-3-3-3h-3.172l3 3-3 3zm4 2h-8.828l5-5-5-5h8.828l5 5-5 5z"/></g></svg>