<?xml version="1.0" encoding="utf-8"?><svg xmlns="http://www.w3.org/2000/svg" width="250" height="250" viewBox="0 0 250 250"><g fill="none" fill-rule="evenodd"><path fill="#DEDEDD" d="M172.055 189.001H77.946L74.944 185h100.113l-3.002 4.001"/><path fill="#48515A" d="M83.939 127.992h80v-2h10v-61c0-1.654-1.345-3-3-3h-92c-1.654 0-3 1.346-3 3v61h8v2zm82 2h-84v-2h-8v-63c0-2.757 2.244-5 5-5h92c2.757 0 5 2.243 5 5v63h-10v2z"/><path fill="#DEDEDD" d="M77.939 123.992h94v-60h-94z"/><path fill="#48515A" d="M170.936 189.999H78.943c-2.757 0-5-2.243-5-5l-.004-58.007h2l.004 58.007c0 1.654 1.346 3 3 3h91.993c1.654 0 3-1.346 3-3l.003-58.007h2l-.003 58.007c0 2.757-2.244 5-5 5"/><path fill="#DEDEDD" d="M139.939 182.999h-30a1 1 0 0 1-1-1v-19.004a1 1 0 0 1 1-1h30a1 1 0 0 1 1 1v19.004a1 1 0 0 1-1 1M156.939 156.993h6v-6h-6zM148.939 156.993h6v-6h-6zM140.939 156.993h6v-6h-6zM132.939 156.993h6v-6h-6zM124.939 156.993h6v-6h-6zM116.939 156.993h6v-6h-6zM108.939 156.993h6v-6h-6zM100.939 156.993h6v-6h-6zM92.939 156.993h6v-6h-6zM84.939 156.993h6v-6h-6zM152.939 148.993h6v-6h-6zM144.939 148.993h6v-6h-6zM136.939 148.993h6v-6h-6zM128.939 148.993h6v-6h-6zM120.939 148.993h6v-6h-6zM112.939 148.993h6v-6h-6zM104.939 148.993h6v-6h-6zM96.939 148.993h6v-6h-6zM88.939 148.993h6v-6h-6zM80.939 148.993h6v-6h-6zM160.939 148.993h6v-6h-6zM156.939 140.993h6v-6h-6zM148.939 140.993h6v-6h-6zM140.939 140.993h6v-6h-6zM132.939 140.993h6v-6h-6zM124.939 140.993h6v-6h-6zM116.939 140.993h6v-6h-6zM108.939 140.993h6v-6h-6zM100.939 140.993h6v-6h-6zM92.939 140.993h6v-6h-6zM84.939 140.993h6v-6h-6zM172.055 189.001H77.946L74.944 185h100.113l-3.002 4.001"/><path fill="#48515A" d="M83.939 127.992h80v-2h10v-61c0-1.654-1.345-3-3-3h-92c-1.654 0-3 1.346-3 3v61h8v2zm82 2h-84v-2h-8v-63c0-2.757 2.244-5 5-5h92c2.757 0 5 2.243 5 5v63h-10v2z"/><path fill="#5FE0ED" d="M77.939 123.992h94v-60h-94z"/><path fill="#48515A" d="M170.936 189.999H78.943c-2.757 0-5-2.243-5-5l-.004-58.007h2l.004 58.007c0 1.654 1.346 3 3 3h91.993c1.654 0 3-1.346 3-3l.003-58.007h2l-.003 58.007c0 2.757-2.244 5-5 5"/><path fill="#DEDEDD" d="M139.939 182.999h-30a1 1 0 0 1-1-1v-19.004a1 1 0 0 1 1-1h30a1 1 0 0 1 1 1v19.004a1 1 0 0 1-1 1M156.939 156.993h6v-6h-6zM148.939 156.993h6v-6h-6zM140.939 156.993h6v-6h-6zM132.939 156.993h6v-6h-6zM124.939 156.993h6v-6h-6zM116.939 156.993h6v-6h-6zM108.939 156.993h6v-6h-6zM100.939 156.993h6v-6h-6zM92.939 156.993h6v-6h-6zM84.939 156.993h6v-6h-6zM152.939 148.993h6v-6h-6zM144.939 148.993h6v-6h-6zM136.939 148.993h6v-6h-6zM128.939 148.993h6v-6h-6zM120.939 148.993h6v-6h-6zM112.939 148.993h6v-6h-6zM104.939 148.993h6v-6h-6zM96.939 148.993h6v-6h-6zM88.939 148.993h6v-6h-6zM80.939 148.993h6v-6h-6zM160.939 148.993h6v-6h-6zM156.939 140.993h6v-6h-6zM148.939 140.993h6v-6h-6zM140.939 140.993h6v-6h-6zM132.939 140.993h6v-6h-6zM124.939 140.993h6v-6h-6zM116.939 140.993h6v-6h-6zM108.939 140.993h6v-6h-6zM100.939 140.993h6v-6h-6zM92.939 140.993h6v-6h-6zM84.939 140.993h6v-6h-6z"/><path fill="#48515A" d="M35 148h2v-4h-2zM35 158h2v-4h-2zM39 152h4v-2h-4zM29 152h4v-2h-4zM189 54h2v-4h-2zM189 64h2v-4h-2zM193 58h4v-2h-4zM183 58h4v-2h-4zM213 128h2v-4h-2zM213 138h2v-4h-2zM217 132h4v-2h-4zM207 132h4v-2h-4z"/><path fill="#FFD15D" d="M65.875 85.562a2.437 2.437 0 1 1-4.874.002 2.437 2.437 0 0 1 4.874-.002"/><path fill="#FFD15D" d="M63.437 83.625a1.94 1.94 0 0 0-1.937 1.938 1.94 1.94 0 0 0 1.937 1.937 1.94 1.94 0 0 0 1.938-1.937 1.94 1.94 0 0 0-1.938-1.938zm0 4.875a2.94 2.94 0 0 1-2.937-2.937 2.94 2.94 0 0 1 2.937-2.938 2.94 2.94 0 0 1 2.938 2.938 2.94 2.94 0 0 1-2.938 2.937zM53 141.562a2.437 2.437 0 1 1-4.875.001 2.437 2.437 0 0 1 4.875-.001"/><path fill="#FFD15D" d="M50.562 139.625a1.94 1.94 0 0 0-1.937 1.938 1.94 1.94 0 0 0 1.937 1.937 1.94 1.94 0 0 0 1.938-1.937 1.94 1.94 0 0 0-1.938-1.938zm0 4.875a2.94 2.94 0 0 1-2.937-2.937 2.94 2.94 0 0 1 2.937-2.938 2.94 2.94 0 0 1 2.938 2.938 2.94 2.94 0 0 1-2.938 2.937zm115.307 53.939a2.437 2.437 0 1 1-4.874 0 2.437 2.437 0 0 1 4.874 0"/><path fill="#FFD15D" d="M163.432 196.501a1.94 1.94 0 0 0-1.938 1.937 1.94 1.94 0 0 0 1.938 1.938 1.94 1.94 0 0 0 1.937-1.938 1.94 1.94 0 0 0-1.937-1.937zm0 4.875a2.94 2.94 0 0 1-2.938-2.938 2.94 2.94 0 0 1 2.938-2.937 2.94 2.94 0 0 1 2.937 2.937 2.94 2.94 0 0 1-2.937 2.938z"/><path fill="#5FE0ED" d="M189.875 88.438a2.437 2.437 0 1 1-4.874 0 2.437 2.437 0 0 1 4.874 0m-140 12a2.437 2.437 0 1 1-4.874 0 2.437 2.437 0 0 1 4.874 0"/><path fill="#DEDEDD" d="M71 196a2 2 0 1 1-3.999.001A2 2 0 0 1 71 196m32 4a2 2 0 1 1-3.999.001A2 2 0 0 1 103 200M77 52a2 2 0 1 1-3.999.001A2 2 0 0 1 77 52m48-2a2 2 0 1 1-3.999.001A2 2 0 0 1 125 50"/><path fill="#48515A" d="M44 124.001h-2V117h-1v-2h3v9.001"/><path fill="#48515A" d="M41 125.001h4v-2h-4zM60.915 172h-1.999v-7.001h-1.001v-2h3V172"/><path fill="#48515A" d="M57.915 173h4v-2h-4zM37 81c-.551 0-1 .448-1 1v4.001a1.001 1.001 0 0 0 2 0V82c0-.552-.449-1-1-1zm0 8.001c-1.654 0-3-1.346-3-3V82c0-1.654 1.346-3 3-3s3 1.346 3 3v4.001c0 1.654-1.346 3-3 3zm154 39.998a1 1 0 0 0-1 1V134a1 1 0 0 0 2 0v-4.001a1 1 0 0 0-1-1zm0 8.001c-1.654 0-3-1.346-3-3v-4.001c0-1.654 1.346-3 3-3s3 1.346 3 3V134c0 1.654-1.346 3-3 3z"/></g></svg>