<?xml version="1.0" encoding="utf-8"?><svg xmlns="http://www.w3.org/2000/svg" width="250" height="250" viewBox="0 0 250 250"><g fill="none" fill-rule="evenodd"><path fill="#48515A" d="M35.447 153.623h2v-4h-2zM35.447 163.623h2v-4h-2zM39.447 157.623h4v-2h-4zM29.447 157.623h4v-2h-4z"/><path fill="#DFE0E0" d="M100.214 55.127l43.167 21.834 8.999-3.333-2.511-18.996-24.655 4.745-25-4.25"/><path fill="#F58E70" d="M153.521 150.492l7.646 3.182-35.964 51.212-36.536-51.378 7.842-3.439 28.547 41.278 28.465-40.855"/><path fill="#5FE0ED" d="M124.554 58.614c-17.864.328-31.991 15.51-31.991 33.596v44.046H114.1l-.058-5.746c-1.974-2.04-4.128-4.592-5.941-7.555-4.467-7.302-6.224-16.808-6.224-26.057v-.718h19.983l-.212-9.636c6.528 6.191 15.138 9.636 24.084 9.636h3.561v.718c0 9.286-2.154 18.712-6.671 26.004-2.985 4.818-7.114 8.618-9.684 10.83l3.67 2.524h21.152V91.68c0-18.47-14.883-33.403-33.206-33.066"/><path fill="#EAEAE9" d="M114.028 147.396l-6.776 11.142 16.089 23.141h1.709l-11.022-34.283M136.558 139.149l7.104 7.392 6.789 16.278h-1.693l-4.232-4.281h-1.693l-6.776-11.142.501-8.247"/><path fill="#EAEAE9" d="M136.592 143.692v-12.344l-4.584 2.867a7.765 7.765 0 0 1-4.119 1.184h-5.109a7.777 7.777 0 0 1-4.999-1.824l-3.742-3.138.002 4.857 22.551 8.398"/><path fill="#48515A" d="M127.636 136.607h-5.248c-2.095 0-3.939-.676-5.481-2.008-2.764-2.391-6.683-6.26-9.658-11.122-5.267-8.607-6.372-19.205-6.372-26.579v-.718h2v.718c0 7.118 1.054 17.325 6.078 25.535 2.84 4.643 6.603 8.356 9.26 10.652 1.168 1.01 2.572 1.522 4.173 1.522h5.248c1.822 0 3.311-.483 4.425-1.437 1.592-1.363 6.437-5.51 9.71-10.794 4.206-6.789 6.521-15.836 6.521-25.478v-.718h2v.718c0 10.008-2.422 19.431-6.82 26.531-3.437 5.549-8.46 9.848-10.111 11.26-1.486 1.273-3.413 1.918-5.725 1.918"/><path fill="#48515A" d="M113.027 139.577h2v-9.107h-2zM135.042 140.113h2v-9h-2zM177.108 198.8h-2v-.873l-3.087-27.418c-1.037-7.821-6.204-14.465-13.483-17.317l-15.227-5.715.703-1.872 15.24 5.72c7.97 3.123 13.618 10.379 14.752 18.941l3.102 27.605v.929m-102.591 6.196h-2l.006-1.036 3.608-33.669c1.137-8.587 6.785-15.843 14.742-18.961l15.181-5.725.706 1.872-15.169 5.72c-7.268 2.847-12.436 9.491-13.475 17.331l-3.599 33.592v.876"/><path fill="#48515A" d="M105.142 157.539h2.633l15.716 22.604-10.463-32.591v-6.29l-5.773 5.843-5.96 14.324 3.847-3.89zm21.264 25.14h-3.587l-16.089-23.14h-.753l-4.232 4.28h-3.61l7.424-17.842 9.469-9.585v10.847l11.378 35.44z"/><path fill="#48515A" d="M137.057 141.265l-.048 6.436-10.415 32.442 15.716-22.604h2.633l3.844 3.887-5.973-14.321-5.757-5.84zm-9.791 41.414h-3.587l11.378-35.44v-10.851l9.454 9.589 7.441 17.842h-3.612l-4.232-4.28h-.753l-16.089 23.14zM124.981 85.34l-28.71-11.068 3.011-19.79 1.977.301-2.769 18.201 26.489 10.211 26.307-10.215-2.409-18.217 1.983-.262 2.615 19.775-28.494 11.064"/><path fill="#48515A" d="M87.463 52.043l38.378 6.396 34.114-6.396-34.114-6.397-38.378 6.397zm38.399 8.427l-50.564-8.427 50.564-8.428 44.945 8.428-44.945 8.427z"/><path fill="#48515A" d="M160.381 62.628h2V52.627h-2z"/><path fill="#F58E70" d="M161.38 60.627a3 3 0 0 0-3 3v7.002h6v-7.002a3 3 0 0 0-3-3"/><path fill="#48515A" d="M203.548 183.641h2v-4h-2zM203.548 193.641h2v-4h-2zM207.548 187.641h4v-2h-4zM197.548 187.641h4v-2h-4zM212.553 122.604h2v-4h-2zM212.553 132.604h2v-4h-2zM216.553 126.604h4v-2h-4zM206.553 126.604h4v-2h-4zM182.375 102.665h22v-2h-22zM165.476 132.665a5.009 5.009 0 0 0 4.899 4h17.106a6.985 6.985 0 0 1-2.034-4h-19.971zm26.899 6h-22c-3.859 0-7-3.14-7-7v-1h24v1c0 2.757 2.244 5 5 5 2.757 0 5-2.243 5-5v-24h2v24c0 3.86-3.14 7-7 7z"/><path fill="#48515A" d="M177.375 131.665h-2v-24c0-3.86 3.141-7 7-7 3.521 0 6.442 2.612 6.929 6h19.971a5.009 5.009 0 0 0-4.9-4v-2c3.86 0 7 3.14 7 7v1h-24v-1c0-2.757-2.243-5-5-5-2.756 0-5 2.243-5 5v24"/><path fill="#475059" d="M154.695 204.385h55.165c1.654 0 3-1.346 3-3 0-1.655-1.346-3-3-3h-55.165l-6.506 3 6.506 3zm55.165 2h-55.604l-10.843-5 10.843-5h55.604c2.757 0 5 2.243 5 5s-2.243 5-5 5z"/><path fill="#475059" d="M202.25 205.385h2v-7.599h-2z"/><path fill="#475059" d="M155.244 202.356h48.006v-2h-48.006z"/><path fill="#FFF" d="M85.477 79.653h-36.06v4.003h-4.003v25.998h40.063V79.653"/><path fill="#FFF" d="M48.331 106.654h34.083V86.571H48.331z"/><path fill="#475059" d="M49.331 105.654h32.083V87.571H49.331v18.083zm-2 2h36.084V85.571H47.331v22.083z"/><path fill="#FFF" d="M78.414 102.654h-11l-2.041 2-1.833-2H52.331V82.571h11.083l1.959 2 2.041-2h11v20.083"/><path fill="#475059" d="M53.331 101.654h10.648l1.432 1.562 1.595-1.562h10.409V83.571h-9.593l-2.464 2.414-2.364-2.414h-9.663v18.083zm12.003 4.438l-2.234-2.438H51.331V81.571h12.503l1.553 1.586 1.619-1.586h12.409v22.083H67.822l-2.488 2.438z"/><path fill="#FFF" d="M55.227 86.654h6.125"/><path fill="#475059" d="M55.227 87.654h6.125v-2h-6.125z"/><path fill="#FFF" d="M55.227 90.654h6.125"/><path fill="#475059" d="M55.227 91.654h6.125v-2h-6.125z"/><path fill="#FFF" d="M55.227 94.654h6.125"/><path fill="#475059" d="M55.227 95.654h6.125v-2h-6.125z"/><path fill="#FFF" d="M69.227 86.654h6.125"/><path fill="#475059" d="M69.227 87.654h6.125v-2h-6.125z"/><path fill="#FFF" d="M69.227 90.654h6.125"/><path fill="#475059" d="M69.227 91.654h6.125v-2h-6.125z"/><path fill="#FFF" d="M69.227 94.654h6.125"/><path fill="#475059" d="M69.227 95.654h6.125v-2h-6.125z"/><path fill="#FFF" d="M65.373 87.842v9.812"/><path fill="#475059" d="M64.373 97.655h2v-9.813h-2z"/><path fill="#FFF" d="M55.227 98.654h6.125"/><path fill="#475059" d="M55.227 99.654h6.125v-2h-6.125z"/><path fill="#FFF" d="M69.227 98.654h6.125"/><path fill="#475059" d="M69.227 99.654h6.125v-2h-6.125z"/></g></svg>