<?xml version="1.0" encoding="utf-8"?><svg xmlns="http://www.w3.org/2000/svg" width="250" height="250" viewBox="0 0 250 250"><g fill="none" fill-rule="evenodd"><path fill="#5FE0ED" d="M185.068 111.055a3 3 0 1 1-6 0 3 3 0 0 1 6 0m35.942 23.964a2 2 0 1 1-3.999.001 2 2 0 0 1 3.999-.001"/><path fill="#48515A" d="M30.99 123.02h42v-26h-42v26zm-2 2h46v-30h-46v30z"/><path fill="#48515A" d="M52.141 111.268c-.186 0-.373-.053-.537-.157L35.48 100.836a1 1 0 0 1 1.075-1.687l15.584 9.932 14.949-9.591a1.002 1.002 0 0 1 1.081 1.684l-15.488 9.935a.994.994 0 0 1-.54.159m18.739 9.895a.999.999 0 0 1-.768-.36l-8.923-10.706a1 1 0 1 1 1.536-1.281l8.923 10.706a1 1 0 0 1-.768 1.641m-37.479 0a1 1 0 0 1-.767-1.641l8.923-10.706a1.001 1.001 0 0 1 1.536 1.281l-8.923 10.706a1 1 0 0 1-.769.36M52.99 141.02h2v-14h-2zM53.99 144.01a1.009 1.009 0 0 1-1-1c0-.26.11-.52.29-.71.38-.37 1.05-.37 1.42 0 .09.09.16.2.21.32.06.13.08.26.08.39a1.009 1.009 0 0 1-1 1M61.99 132.02h2v-5h-2zM62.68 135.31c-.13 0-.26-.02-.38-.07-.12-.06-.23-.13-.32-.22-.19-.19-.3-.45-.3-.71 0-.26.11-.52.3-.71.09-.09.2-.16.32-.21.37-.15.81-.06 1.09.21.19.19.29.45.29.71a.99.99 0 0 1-1 1M43.99 135.02h2v-8h-2zM45.29 138.21a1.009 1.009 0 0 1-1-1c0-.26.11-.52.3-.71a.99.99 0 0 1 1.09-.21c.06.02.12.05.17.09.05.03.11.08.15.12.19.19.29.45.29.71 0 .26-.1.52-.29.71-.04.04-.1.08-.15.12-.05.04-.11.07-.17.09-.06.03-.13.05-.19.06-.07.01-.13.02-.2.02m110.52-37.944a1 1 0 0 1-.982-1.197l1.75-8.75a.999.999 0 1 1 1.961.393l-1.75 8.75a1 1 0 0 1-.979.804"/><path fill="#F58E70" d="M132.004 187.019s-2.667-18.768-4-24.101v.041l-.007.021a1.975 1.975 0 0 0 1.993-1.978v-5.001l-5.083-6.003-4.917 6.003v5.001c0 1.104.903 2 2.007 1.999h.004l.001-.083c-1.332 5.333-3.998 24.101-3.998 24.101h14"/><path fill="#DFE0E0" d="M109.99 135.007v4.369l14.947 8.5 14.959-8.25.094-7.997v-6.741c0-.566 1.11-1.172 1.637-1.784-.18.157-.378.315-.525.473-2.103 2.261-5.305 4.471-7.464 6.315-1.708 1.458-3.881 2.127-6.126 2.127h-6.493c-2.245 0-4.405-.669-6.113-2.127-2.061-1.76-5.061-3.921-7.158-6.087-.063-.065-.137-.09-.205-.155.63.67 1.533 1.37 2.3 2.045-.017.008.147.037.147.056v9.256"/><path fill="#48515A" d="M109.99 140.02a1 1 0 0 1-1-1v-13a1 1 0 1 1 2 0v13a1 1 0 0 1-1 1M95.042 86.836a.999.999 0 0 1-.997-.954l-.055-1.691c0-8.229 3.398-16.324 9.323-22.209 5.817-5.778 13.426-8.952 21.375-8.877 6.761.047 13.39 2.363 18.666 6.523a30.743 30.743 0 0 1 8.854 11.242l.102.217a28.818 28.818 0 0 1 2.668 12.241l.01.166.002 1.526a1 1 0 0 1-2 0l-.011-1.645a26.915 26.915 0 0 0-2.223-10.867h-.001l-.268-.591a28.712 28.712 0 0 0-8.372-10.718c-4.928-3.886-11.122-6.051-17.441-6.094-7.394-.049-14.514 2.896-19.952 8.296-5.55 5.512-8.732 13.09-8.732 20.79v.479l.053 1.12a1 1 0 0 1-.954 1.045l-.047.001m44.948 53.184a1 1 0 0 1-1-1v-14.466l.178-.257c.423-.61.939-1.199 1.438-1.769.672-.769 1.368-1.564 1.596-2.17l5.884-11.898a1 1 0 1 1 1.792.888l-5.844 11.806c-.316.855-1.097 1.747-1.924 2.691-.389.445-.789.903-1.12 1.345v13.83a1 1 0 0 1-1 1"/><path fill="#48515A" d="M127.99 133.02h-6.97c-2.612 0-4.951-.819-6.764-2.368-.649-.555-1.394-1.154-2.173-1.783-3.075-2.478-6.56-5.286-7.517-7.852l-5.522-11.867a1 1 0 1 1 1.813-.843l5.553 11.939c.795 2.124 4.195 4.864 6.927 7.066.796.641 1.555 1.253 2.218 1.819 1.447 1.236 3.336 1.889 5.465 1.889h6.97a1 1 0 1 1 0 2m-67 76h-2v-25.018l.071-19.331c0-5.939 3.775-7.838 9.109-9.873l31.141-10.608 5.493-10.17h4.186v2h-2.993l-5.3 9.811-31.849 10.849c-5.283 2.015-7.787 3.466-7.787 7.995l-.071 19.331v25.014m64.015-59.873l-15.859-8.88a1 1 0 0 1 .977-1.746l14.882 8.334 14.298-8.007a1 1 0 0 1 .977 1.745l-15.275 8.554m40.005 71.873h-21.839c-3.408 0-6.181-2.767-6.181-6.168v-.998c0-3.326 2.658-5.834 6.181-5.834h7.999c2.22 0 4.167-2.064 4.167-4.417v-.25c0-2.349-1.908-4.333-4.167-4.333h-44.683c-3.583 0-6.497-2.618-6.497-5.835 0-3.348 2.975-6.165 6.497-6.165h35.503v2h-35.503c-2.396 0-4.497 1.94-4.497 4.152 0 2.382 2.334 3.848 4.497 3.848h44.683c3.343 0 6.167 2.9 6.167 6.333v.25c0 3.478-2.824 6.417-6.167 6.417h-7.999c-2.422 0-4.181 1.612-4.181 3.834v.998c0 2.298 1.876 4.168 4.181 4.168h21.839c2.746 0 4.98-2.244 4.98-5v-3.403l4.112-4.283 1.442 1.385-3.554 3.703v2.598c0 3.859-3.131 7-6.98 7m3.83-32.02c-.26 0-.52-.1-.7-.29a.976.976 0 0 1 0-1.41c.37-.37 1.03-.37 1.41 0 .19.18.29.44.29.7 0 .27-.1.52-.29.71-.09.1-.2.17-.32.22-.13.05-.26.07-.39.07m-20.72-1c0-.55.45-.99 1-.99a.994.994 0 1 1 0 1.99c-.55 0-1-.44-1-1zm3.95 0c0-.55.44-.99 1-.99.55 0 .99.44.99.99 0 .56-.44 1-.99 1-.56 0-1-.44-1-1zm3.94 0c0-.55.45-.99 1-.99a.994.994 0 1 1 0 1.99c-.55 0-1-.44-1-1zm3.94 0c0-.55.45-.99 1-.99.56 0 1.01.44 1.01.99 0 .56-.45 1-1.01 1-.55 0-1-.44-1-1zm3.95 0c0-.55.45-.99 1-.99a.994.994 0 1 1 0 1.99c-.55 0-1-.44-1-1z"/><path fill="#48515A" d="M145.18 189c-.13 0-.26-.02-.39-.07a.875.875 0 0 1-.32-.22.984.984 0 0 1-.29-.7c0-.14.02-.26.07-.39.05-.12.13-.23.22-.32s.2-.17.32-.22c.37-.15.81-.06 1.09.22.1.09.17.2.22.32.05.13.08.25.08.39 0 .26-.11.51-.3.7-.09.1-.2.17-.32.22-.12.05-.25.07-.38.07m38.879.02H171.99v-2h12.069c2.719 0 4.931-2.25 4.931-5.015V171.02h2v10.985c0 3.868-3.109 7.015-6.931 7.015M182.34 157.477l-33.086-11.558-6.049-9.899h-3.215v-2h4.337l6.261 10.247 32.411 11.322-.659 1.888M134.004 161.001a.994.994 0 0 1-.743-.331l-8.256-9.174-8.258 9.174a.999.999 0 1 1-1.486-1.337l9.744-10.826 9.742 10.826a.999.999 0 0 1-.743 1.668M90.317 90.063c-.162-1.642-.327-3.567-.327-5.393v-.479c0-9.274 3.844-18.411 10.547-25.068 6.575-6.531 15.176-10.064 24.2-10.018 7.733.053 15.023 2.605 21.081 7.382a34.753 34.753 0 0 1 10.137 12.974 32.7 32.7 0 0 1 3.021 13.893l.012.159.002 1.157c0 1.48-.115 3.188-.362 5.374l-1.988-.225c.238-2.109.35-3.745.35-5.149l-.012-1.262a30.82 30.82 0 0 0-2.843-13.117 32.758 32.758 0 0 0-9.555-12.234c-5.706-4.498-12.573-6.902-19.857-6.952-8.49-.038-16.583 3.285-22.777 9.437-6.327 6.284-9.956 14.904-9.956 23.649v.479c0 1.739.16 3.603.317 5.197l-1.99.196"/><path fill="#48515A" d="M95.861 90.305c-.08 0-.161.009-.24.028l-6.786 1.561a3.005 3.005 0 0 0-2.271 3.588l2.64 11.708a2.978 2.978 0 0 0 1.323 1.876 2.98 2.98 0 0 0 2.262.392l6.84-1.575c.512-.125.843-.66.724-1.188l-3.519-15.61a.993.993 0 0 0-.449-.63.983.983 0 0 0-.524-.15zm-3.74 21.227a4.965 4.965 0 0 1-2.662-.775 4.965 4.965 0 0 1-2.206-3.128l-2.64-11.708a5.006 5.006 0 0 1 3.778-5.977l6.768-1.556a2.967 2.967 0 0 1 2.279.366 2.978 2.978 0 0 1 1.347 1.891l3.519 15.61a3.015 3.015 0 0 1-2.214 3.574l-6.86 1.579c-.369.083-.74.124-1.109.124z"/><path fill="#48515A" d="M93.259 100.266a1 1 0 0 1-.979-.804l-1.75-8.75a1 1 0 1 1 1.961-.393l1.75 8.75a1 1 0 0 1-.982 1.197"/><path fill="#48515A" d="M93.198 97.203c-1.103 0-2 .897-2 2s.897 2 2 2 2-.897 2-2-.897-2-2-2zm0 6c-2.205 0-4-1.794-4-4 0-2.205 1.795-4 4-4 2.206 0 4 1.795 4 4 0 2.206-1.794 4-4 4zm63.627 6.439a2.983 2.983 0 0 0 2.257-.392 2.982 2.982 0 0 0 1.324-1.876l2.639-11.709a3.002 3.002 0 0 0-2.267-3.586l-7.323-1.744a.993.993 0 0 0-.771.12.99.99 0 0 0-.449.63l-3.519 15.61a1.006 1.006 0 0 0 .738 1.192l7.371 1.755zm.664 2.074c-.369 0-.741-.042-1.11-.125l-.011-.003-7.383-1.757a3.017 3.017 0 0 1-2.22-3.576l3.519-15.61a2.974 2.974 0 0 1 1.347-1.891 2.985 2.985 0 0 1 2.293-.363l7.306 1.739c2.678.604 4.373 3.285 3.766 5.975l-2.639 11.708a4.964 4.964 0 0 1-2.207 3.127 4.96 4.96 0 0 1-2.661.776z"/><path fill="#48515A" d="M155.871 97.203c-1.103 0-2 .897-2 2s.897 2 2 2 2-.897 2-2-.897-2-2-2zm0 6c-2.206 0-4-1.794-4-4 0-2.205 1.794-4 4-4 2.205 0 4 1.795 4 4 0 2.206-1.795 4-4 4zM121.99 118.02a1.001 1.001 0 0 0 0 2h6a1.001 1.001 0 0 0 0-2h-6zm6 4h-6c-1.654 0-3-1.346-3-3 0-1.655 1.346-3 3-3h6c1.654 0 3 1.345 3 3 0 1.654-1.346 3-3 3z"/><path fill="#48515A" d="M134.822 120.02h-4.832v-2h4.709l15.658-1.93 3.17-6.196 1.781.911-3.654 7.141-16.832 2.074M190.138 30.98c-15.92 0-28.872 12.953-28.872 28.872a28.798 28.798 0 0 0 17.836 26.684l.68.281-.066.733a8.192 8.192 0 0 1-2.634 5.332c3.016-.433 5.768-1.874 7.895-4.166l.359-.386.521.077c1.419.21 2.859.317 4.281.317 15.92 0 28.871-12.952 28.871-28.872 0-15.919-12.951-28.872-28.871-28.872zm-14.995 64.04h-3.612v-2a6.185 6.185 0 0 0 6.089-4.944 30.786 30.786 0 0 1-18.354-28.224c0-17.022 13.849-30.872 30.872-30.872 17.022 0 30.871 13.85 30.871 30.872 0 17.023-13.849 30.872-30.871 30.872-1.348 0-2.712-.09-4.061-.267a15.47 15.47 0 0 1-10.934 4.563z"/><path fill="#48515A" d="M172.99 48.02h34v-2h-34zM172.99 52.02h34v-2h-34zM172.99 56.02h34v-2h-34zM198.261 71.511l-3.8-3.8 1.414-1.414 2.386 2.386 9.093-9.093 1.414 1.414-10.507 10.507M184.353 71.819l-8-8 1.414-1.414 8 8-1.414 1.414"/><path fill="#48515A" d="M177.767 71.819l-1.414-1.414 8-8 1.414 1.414-8 8"/><path fill="#48515A" d="M174.99 73.02h12v-12h-12v12zm-2 2h16v-16h-16v16zM206.99 75.02h-16v-16h13v2h-11v12h12v-7h2v9"/><path fill="#475059" d="M182.332 194.175c-.34 0-.677.129-.934.386l-8.014 7.993c-.251.251-.39.585-.39.94-.001.355.137.69.388.941l4.186 4.042c.133.118.628.303 1.052.402 3.091-.053 5.973-.486 8.57-1.285 15.104-4.65 26.648-16.519 30.879-31.749.522-1.882.789-3.979.792-6.235a3.637 3.637 0 0 0-1.069-2.589l-3.501-3.356a1.339 1.339 0 0 0-1.898-.019l-8.013 7.993a1.332 1.332 0 0 0-.002 1.882l4.41 4.251-.096.527a25.292 25.292 0 0 1-18.888 20.049l-2.076.505-4.435-4.276a1.359 1.359 0 0 0-.961-.402zm-3.906 16.707l-.106-.022c-.354-.071-1.552-.354-2.155-.958l-4.186-4.042a3.316 3.316 0 0 1-.985-2.369 3.306 3.306 0 0 1 .978-2.353l8.013-7.993a3.335 3.335 0 0 1 4.71.006l3.629 3.499 1.007-.245a23.294 23.294 0 0 0 17.293-17.941l-3.648-3.518a3.337 3.337 0 0 1-.008-4.723l8.013-7.993a3.31 3.31 0 0 1 2.352-.972h.004c.89.001 1.726.349 2.353.979l3.502 3.355a5.64 5.64 0 0 1 1.669 4.02c-.004 2.436-.295 4.713-.865 6.768-4.414 15.891-16.458 28.274-32.218 33.125-2.81.866-5.92 1.328-9.244 1.376l-.108.001z"/><path fill="#475059" d="M209.64 175.839l-1.412-1.416 4.249-4.237 1.412 1.416-4.249 4.237M215.308 170.187l-1.412-1.416 1.415-1.412 1.412 1.416-1.415 1.412M178.468 206.929l-1.412-1.416 7.082-7.064 1.412 1.416-7.082 7.064"/><path fill="#48515A" d="M60.99 59.02h2v-4h-2zM60.99 69.02h2v-4h-2zM64.99 63.02h4v-2h-4zM54.99 63.02h4v-2h-4zM188.99 127.02h2v-4h-2zM188.99 137.02h2v-4h-2zM192.99 131.02h4v-2h-4zM182.99 131.02h4v-2h-4zM60.01 213.02c-.27 0-.52-.11-.71-.29-.18-.19-.29-.45-.29-.71 0-.27.11-.52.29-.71.37-.37 1.05-.37 1.42 0 .18.19.29.44.29.71 0 .26-.11.52-.29.71-.19.18-.45.29-.71.29"/><path fill="#FFD15D" d="M87.01 131.067a2 2 0 1 1-3.999.001 2 2 0 0 1 3.999-.001"/><path fill="#48515A" d="M194.01 168.02h-2c0-8.823 7.178-16 16-16v2c-7.719 0-14 6.28-14 14"/><path fill="#48515A" d="M190.01 168.02h-2c0-11.028 8.972-20 20-20v2c-9.925 0-18 8.074-18 18"/><path fill="#48515A" d="M186.01 168.02h-2c0-13.234 10.767-24 24-24v2c-12.131 0-22 9.869-22 22m12 0h-2c0-6.617 5.384-12 12-12v2c-5.514 0-10 4.485-10 10"/></g></svg>