<?xml version="1.0" encoding="utf-8"?><svg xmlns="http://www.w3.org/2000/svg" width="250" height="250" viewBox="0 0 250 250"><g fill="none" fill-rule="evenodd"><path fill="#FACD60" d="M135.797 201.996h-18c-8.284 0-15-6.715-15-15v-3h48v3c0 8.285-6.715 15-15 15"/><path fill="#FACD60" d="M103.298 184.496v2.5c0 7.995 6.505 14.5 14.5 14.5h18c7.995 0 14.5-6.505 14.5-14.5v-2.5h-47zm32.5 18h-18c-8.547 0-15.5-6.953-15.5-15.5v-3.5h49v3.5c0 8.547-6.953 15.5-15.5 15.5z"/><path fill="#DBDBD5" d="M98.184 180.996h56v-8h-56z"/><path fill="#DBDBD5" d="M99.184 179.995h54v-6h-54v6zm-2 2h58v-10h-58v10z"/><path fill="#434A4F" d="M94.184 174.05h64v-2h-64zM138.241 205.995h-21.226a18.494 18.494 0 0 1-13.168-5.454 18.493 18.493 0 0 1-5.454-13.167v-6.324h2v6.324c0 4.44 1.728 8.614 4.868 11.753a16.509 16.509 0 0 0 11.754 4.868h21.11c3.607-.429 7.083-2.156 9.795-4.868a16.508 16.508 0 0 0 4.868-11.753v-6.324h2v6.324c0 4.974-1.936 9.651-5.454 13.167-3.043 3.044-6.963 4.979-11.036 5.448l-.057.006M94.184 178.05h64v-2h-64z"/><path fill="#434A4F" d="M94.184 182.05h64v-2h-64z"/><path fill="#75C7D0" d="M61.797 50.996a4 4 0 1 1-8 0 4 4 0 0 1 8 0"/><path fill="#434A4F" d="M192.875 185.99c-2.206 0-4 1.793-4 4 0 2.206 1.794 4 4 4s4-1.794 4-4c0-2.207-1.794-4-4-4zm0 10c-3.309 0-6-2.692-6-6 0-3.309 2.691-6 6-6s6 2.691 6 6c0 3.308-2.691 6-6 6z"/><path fill="#FACD60" d="M86.023 200.99a4 4 0 1 0-8 0 4 4 0 0 0 8 0"/><path fill="#434A4F" d="M175.797 32.996h2v-4h-2zM175.797 42.996h2v-4h-2zM179.797 36.996h4v-2h-4zM169.797 36.996h4v-2h-4zM205.797 82.926h2v-4h-2zM205.797 92.926h2v-4h-2zM209.797 86.926h4v-2h-4zM199.797 86.926h4v-2h-4zM49.797 120.996h2v-4h-2zM49.797 130.995h2v-4h-2zM53.797 124.996h4v-2h-4zM43.797 124.996h4v-2h-4zM50.803 79.99c-1.103 0-2 .897-2 2 0 1.102.897 2 2 2 1.102 0 2-.898 2-2 0-1.103-.898-2-2-2zm0 6c-2.206 0-4-1.795-4-4 0-2.206 1.794-4 4-4s4 1.794 4 4c0 2.205-1.794 4-4 4zM155.797 210.995h2v-4h-2zM155.797 220.995h2v-4h-2zM159.797 214.995h4v-2h-4zM149.797 214.995h4v-2h-4z"/><path fill="#75C7D0" d="M172.004 188.651a4 4 0 1 1-8 0 4 4 0 0 1 8 0"/><path fill="#434A4F" d="M123.003 212.99h2v-7.995h-2zM129.003 212.99h2v-7.995h-2zM124.003 217.002a1.003 1.003 0 0 1 0-2.005c.553 0 1 .443 1 .995v.01a1 1 0 0 1-1 1m6 0a1.003 1.003 0 0 1 0-2.005c.553 0 1 .443 1 .995v.01a1 1 0 0 1-1 1m-6 4.002a1.003 1.003 0 0 1 0-2.005c.553 0 1 .444 1 .996v.009a1 1 0 0 1-1 1m6 0a1.003 1.003 0 0 1 0-2.005c.553 0 1 .444 1 .996v.009a1 1 0 0 1-1 1"/><path fill="#E9886C" d="M57.005 150.069c-12.683 0-23 10.317-23 23 0 12.682 10.317 23 23 23 12.682 0 23-10.318 23-23 0-12.683-10.318-23-23-23zm0 48c-13.785 0-25-11.215-25-25 0-13.786 11.215-25 25-25s25 11.214 25 25c0 13.785-11.215 25-25 25z"/><path fill="#434A4F" d="M76.959 174.069h-3.556a1 1 0 0 1 0-2h3.556a1 1 0 1 1 0 2"/><path fill="#434A4F" d="M76.959 174.069h-3.556a1 1 0 0 1 0-2h3.556a1 1 0 1 1 0 2m-9.838 17.483a1 1 0 0 1-.867-.5l-1.777-3.079a1.001 1.001 0 0 1 1.732-1l1.777 3.079a.998.998 0 0 1-.865 1.5m4.021-25.929a1.001 1.001 0 0 1-.501-1.866l3.079-1.777a1 1 0 0 1 1 1.732l-3.079 1.778c-.158.09-.329.133-.499.133m3.41 18.254a.992.992 0 0 1-.499-.134l-3.079-1.778a1 1 0 1 1 1-1.732l3.079 1.778a1 1 0 0 1-.501 1.866m-9.483-24.465a1.002 1.002 0 0 1-.865-1.5l1.777-3.079a1.002 1.002 0 0 1 1.733 1l-1.777 3.079c-.186.321-.522.5-.868.5M57.959 185.2h-2v-14.021h9.889v2h-7.889V185.2M57.003 157.179a1 1 0 0 1-1-1v-3.555a1 1 0 1 1 2 0v3.555a1 1 0 0 1-1 1m.001 37.334a1 1 0 0 1-1-1v-3.556a1 1 0 1 1 2 0v3.556a1 1 0 0 1-1 1m-16.446-20.444h-3.556a1 1 0 1 1 0-2h3.556a1 1 0 1 1 0 2"/><path fill="#434A4F" d="M57.003 157.179a1 1 0 0 1-1-1v-3.555a1 1 0 1 1 2 0v3.555a1 1 0 0 1-1 1m.001 37.334a1 1 0 0 1-1-1v-3.556a1 1 0 1 1 2 0v3.556a1 1 0 0 1-1 1m-16.446-20.444h-3.556a1 1 0 1 1 0-2h3.556a1 1 0 1 1 0 2m6.282 17.483a.998.998 0 0 1-.865-1.5l1.777-3.079a1 1 0 0 1 1.732 1l-1.777 3.079c-.186.32-.521.5-.867.5m-4.021-25.929c-.17 0-.342-.043-.499-.133l-3.079-1.778a1 1 0 0 1 1-1.732l3.079 1.777a1 1 0 0 1-.501 1.866m-3.409 18.254a1 1 0 0 1-.501-1.866l3.079-1.778a1 1 0 1 1 1 1.732l-3.079 1.778a.992.992 0 0 1-.499.134m9.483-24.465a1 1 0 0 1-.868-.5l-1.778-3.079a1 1 0 0 1 1.732-1l1.779 3.079a1.002 1.002 0 0 1-.865 1.5m76.012-120.419c.01-.55.45-1 1.01-1 .551 0 1 .45.99 1 0 .55-.45 1-1 1s-1-.45-1-1zm-4 .19a.998.998 0 0 1 .941-1.06.995.995 0 0 1 1.059.93c.031.55-.389 1.03-.939 1.06-.021 0-.04.01-.061.01-.53 0-.96-.41-1-.94zm8.941.95a1 1 0 0 1-.931-1.07c.04-.55.521-.96 1.07-.93.55.04.97.52.93 1.07-.04.53-.479.93-1 .93h-.069zm-12.92-.5a.999.999 0 0 1 1.979-.26c.071.55-.309 1.05-.86 1.13v-.01c-.04.01-.09.01-.13.01-.5 0-.92-.36-.989-.87zm16.84.9a.996.996 0 0 1-.851-1.13c.07-.54.58-.93 1.12-.85a1 1 0 0 1 .861 1.12c-.071.51-.5.87-.991.87-.05 0-.09 0-.139-.01zm-20.781-.18a.992.992 0 0 1 .781-1.17 1 1 0 0 1 1.179.78c.111.54-.25 1.07-.79 1.18h.01a.995.995 0 0 1-1.18-.79zm24.661.84a.988.988 0 0 1-.771-1.18.989.989 0 0 1 1.181-.77c.54.11.889.64.779 1.18-.1.47-.52.79-.98.79-.07 0-.139 0-.209-.02zm-28.55.15a1.001 1.001 0 0 1 1.929-.53.998.998 0 0 1-.7 1.23c-.09.02-.179.04-.26.04-.44 0-.849-.3-.969-.74zm32.389.78a.996.996 0 0 1-.7-1.23c.151-.53.7-.84 1.231-.7.529.15.849.7.7 1.23-.131.45-.53.74-.971.74-.08 0-.17-.02-.26-.04zm-36.2.46c-.18-.52.101-1.09.62-1.27.521-.18 1.09.1 1.271.62.179.52-.101 1.09-.62 1.27a.9.9 0 0 1-.321.05c-.42 0-.809-.26-.95-.67zm39.95.72c-.519-.18-.79-.75-.61-1.28a.997.997 0 0 1 1.271-.61c.519.19.799.76.609 1.28a.996.996 0 0 1-.94.67.964.964 0 0 1-.33-.06zm-43.67.78a.992.992 0 0 1 .531-1.31.994.994 0 0 1 1.309.53 1.002 1.002 0 0 1-.92 1.39 1 1 0 0 1-.92-.61zm47.34.65a.999.999 0 0 1-.53-1.31c.221-.51.811-.75 1.32-.53a1.002 1.002 0 0 1-.79 1.84zm-50.96 1.09a.993.993 0 0 1 .451-1.34.997.997 0 0 1 1.339.44c.25.5.05 1.1-.44 1.34a.93.93 0 0 1-.449.11c-.37 0-.721-.2-.901-.55zm54.521.58a.995.995 0 0 1-.431-1.34.998.998 0 0 1 1.34-.44c.49.25.69.86.44 1.35a1.01 1.01 0 0 1-1.349.43zm-58.011 1.4a1.002 1.002 0 0 1 1.731-1.01c.28.47.12 1.08-.351 1.37-.159.09-.34.14-.51.14-.34 0-.679-.18-.87-.5zm61.46.51a1 1 0 0 1 1.021-1.72c.479.29.629.9.349 1.38-.189.31-.519.48-.859.48a.936.936 0 0 1-.511-.14zm-64.8 1.7c-.309-.45-.2-1.07.26-1.39.45-.31 1.08-.19 1.391.26a1.007 1.007 0 0 1-.83 1.57.984.984 0 0 1-.821-.44zm68.111.43a.993.993 0 0 1-.25-1.39.993.993 0 0 1 1.389-.25c.45.31.571.93.25 1.39-.189.28-.5.43-.82.43-.199 0-.39-.06-.569-.18zm-71.3 2a1.001 1.001 0 1 1 1.399.17 1.005 1.005 0 0 1-1.399-.17zm74.47.35a.982.982 0 0 1-.161-1.4c.34-.44.97-.51 1.401-.17.429.35.5.98.159 1.41a.996.996 0 0 1-.779.38.957.957 0 0 1-.62-.22zm-77.501 2.28a.997.997 0 0 1 .081-1.41.998.998 0 0 1 1.41.08.997.997 0 0 1-.071 1.41c-.2.17-.44.25-.67.25-.28 0-.549-.11-.75-.33zm80.501.27a.997.997 0 1 1 1.41-.07.984.984 0 0 1-.741.33c-.24 0-.48-.08-.669-.26zm-83.34 2.56a1 1 0 1 1 1.399-1.43c.391.38.4 1.02.021 1.41-.201.2-.46.31-.721.31-.25 0-.5-.1-.699-.29zm86.17.18v.01c-.38-.4-.371-1.03.019-1.42.401-.38 1.04-.37 1.42.03.38.4.37 1.03-.029 1.41a.972.972 0 0 1-.691.28.985.985 0 0 1-.719-.31zm-88.811 2.83a1 1 0 0 1-.12-1.41c.36-.42.99-.47 1.41-.11.42.36.471.99.12 1.41-.2.23-.479.35-.769.35a.983.983 0 0 1-.641-.24zm91.46.1a1 1 0 0 1 .11-1.41c.42-.36 1.05-.3 1.411.12a.992.992 0 0 1-.121 1.41.96.96 0 0 1-.639.24c-.281 0-.571-.13-.761-.36zm-93.899 3.08a.994.994 0 0 1-.21-1.4c.33-.44.96-.53 1.399-.2.44.33.53.95.2 1.39h.01c-.199.27-.5.41-.81.41-.21 0-.41-.06-.589-.2zm96.339.01c-.33-.44-.23-1.07.21-1.4a1.006 1.006 0 0 1 1.401.22.993.993 0 0 1-.21 1.39.96.96 0 0 1-.591.2c-.31 0-.609-.14-.81-.41zm-98.57 3.33c-.46-.3-.599-.92-.29-1.39.29-.46.91-.59 1.38-.3.46.3.591.92.301 1.39-.191.29-.521.46-.851.46-.18 0-.37-.06-.54-.16zm100.811-.08a.993.993 0 0 1 .299-1.38 1 1 0 0 1 1.38.3c.3.47.161 1.09-.299 1.39-.17.1-.361.15-.54.15a.985.985 0 0 1-.84-.46zm-102.801 3.55c-.48-.27-.659-.88-.39-1.36.26-.48.87-.66 1.361-.39.479.26.649.87.389 1.36a.998.998 0 0 1-.88.51c-.16 0-.33-.04-.48-.12zm104.81-.16c-.27-.48-.089-1.09.39-1.36a1 1 0 0 1 1.36.4c.27.48.09 1.09-.389 1.36-.151.08-.321.12-.481.12-.36 0-.7-.19-.88-.52zm-106.57 3.76c-.5-.24-.71-.83-.479-1.33.229-.5.83-.72 1.33-.48.5.23.71.82.479 1.32-.17.37-.53.58-.91.58-.14 0-.279-.03-.42-.09zm108.351-.24a1.005 1.005 0 0 1 1.819-.85c.231.51.011 1.1-.489 1.34a1.009 1.009 0 0 1-1.33-.49zm-109.861 3.94a.994.994 0 0 1-.57-1.29c.2-.52.78-.77 1.29-.57.521.2.771.78.57 1.29a.99.99 0 0 1-1.29.57zm111.411-.31a.996.996 0 0 1 .57-1.29.988.988 0 0 1 1.289.57c.2.51-.05 1.09-.569 1.29a.988.988 0 0 1-1.29-.57zm-112.67 4.12a1.012 1.012 0 0 1-.661-1.26c.17-.52.73-.82 1.26-.65a1 1 0 0 1-.599 1.91zm113.96-.4c-.161-.52.129-1.08.66-1.25a.998.998 0 1 1 .59 1.91c-.101.03-.201.05-.29.05-.43 0-.821-.28-.96-.71zm-114.96 4.28c-.54-.13-.871-.67-.741-1.21.13-.54.67-.87 1.201-.74a1.003 1.003 0 1 1-.231 1.98.84.84 0 0 1-.229-.03zm116-.47a1.001 1.001 0 1 1 1.2.74.865.865 0 0 1-.231.03 1 1 0 0 1-.969-.77zm-116.741 4.4a.992.992 0 0 1-.82-1.15c.09-.54.61-.91 1.15-.82.55.1.911.61.821 1.16-.08.48-.511.83-.981.83a.89.89 0 0 1-.17-.02zm117.52-.54a.999.999 0 1 1 1.15.82c-.059.01-.12.01-.17.01-.48 0-.9-.34-.98-.83zm.511 3.9a.998.998 0 1 1 1.989-.19.999.999 0 0 1-.9 1.09c-.03 0-.06.01-.1.01-.5 0-.94-.39-.989-.91zm.25 3.94a.99.99 0 0 1 .969-1.03.998.998 0 0 1 1.031.97c.019.55-.42 1.01-.971 1.03h-.029c-.54 0-.981-.43-1-.97zm.96 4.97a.998.998 0 0 1-.971-1.03c.02-.55.48-.98 1.04-.97.551.02.98.49.96 1.04-.02.54-.46.97-1 .97-.01 0-.02 0-.029-.01zm-.34 4a.997.997 0 0 1-.891-1.09c.05-.56.54-.96 1.09-.9.551.05.95.55.9 1.09v.01c-.049.51-.49.9-1 .9-.03 0-.059-.01-.099-.01zm-.601 3.96c-.54-.09-.91-.61-.819-1.15.09-.54.609-.91 1.149-.82.55.09.92.61.821 1.15-.081.49-.5.84-.981.84-.059 0-.109-.01-.17-.02zm-118.37 2.9c-.13-.54.2-1.08.74-1.2.54-.13 1.08.2 1.21.74.12.54-.21 1.07-.75 1.2a.9.9 0 0 1-.229.03c-.45 0-.861-.31-.971-.77zm117.49 1.17a.995.995 0 0 1-.759-1.19c0-.02.009-.04.019-.07 0-.03.011-.06.021-.1.129-.53.66-.86 1.2-.74a1 1 0 0 1 .739 1.21c0 .02-.01.04-.02.06 0 .03-.009.05-.009.07-.101.47-.521.79-.971.79a.785.785 0 0 1-.22-.03zm-116.42 2.77c-.16-.53.13-1.09.661-1.26.53-.16 1.089.14 1.25.66a.997.997 0 0 1-.661 1.25c-.099.04-.2.05-.29.05-.429 0-.82-.28-.96-.7zm115.33 1.09a.991.991 0 0 1-.669-1.24c.16-.53.719-.83 1.25-.67.519.15.83.71.669 1.24-.129.44-.53.72-.96.72-.1 0-.19-.02-.29-.05zm-113.99 2.76c-.2-.52.05-1.1.571-1.29a.99.99 0 0 1 1.29.57c.2.52-.061 1.1-.571 1.29a.99.99 0 0 1-1.29-.57zm112.63 1.01c-.519-.19-.769-.77-.58-1.29.2-.51.78-.77 1.29-.58.521.2.78.78.58 1.29a.997.997 0 0 1-.93.65c-.12 0-.24-.02-.36-.07zm-111.04 2.74a.988.988 0 0 1 .49-1.32.984.984 0 0 1 1.321.48c.229.5.019 1.1-.481 1.33-.14.06-.279.09-.42.09-.38 0-.74-.21-.91-.58zm109.41.92a.981.981 0 0 1-.479-1.32c.229-.5.819-.72 1.33-.49a1.004 1.004 0 0 1-.431 1.91.927.927 0 0 1-.42-.1zm-107.57 2.72a.984.984 0 0 1 .4-1.35.988.988 0 0 1 1.35.39 1 1 0 0 1-.39 1.36c-.16.081-.32.121-.479.121a1 1 0 0 1-.881-.521zm105.681.82a1.002 1.002 0 0 1-.391-1.36c.27-.479.881-.66 1.36-.39.491.27.66.88.39 1.36-.18.33-.52.52-.869.52a.942.942 0 0 1-.49-.13zm-103.601 2.69a1 1 0 0 1 1.681-1.08v.01c.299.46.16 1.081-.3 1.38-.171.1-.361.15-.54.15a.989.989 0 0 1-.841-.46zm101.46.7c-.46-.3-.59-.93-.29-1.39.31-.46.931-.58 1.391-.28.459.3.589.92.28 1.38a.975.975 0 0 1-.83.45c-.191 0-.38-.05-.551-.16zm-99.159 2.66c-.33-.44-.231-1.07.21-1.4a1.004 1.004 0 0 1 1.189 1.62 1.008 1.008 0 0 1-1.399-.22zm96.779.56a.993.993 0 0 1-.189-1.4.992.992 0 0 1 1.399-.18c.44.33.53.96.19 1.4-.2.26-.49.39-.79.39a.985.985 0 0 1-.61-.21zm-94.26 2.64a1 1 0 0 1 .12-1.41c.42-.35 1.05-.3 1.411.12a1 1 0 0 1-.121 1.41.992.992 0 0 1-1.41-.12zm91.68.44a.998.998 0 0 1-.109-1.41.999.999 0 1 1 1.519 1.3.976.976 0 0 1-.76.35c-.23 0-.46-.08-.65-.24zm-88.949 2.59a.986.986 0 0 1 .019-1.41 1 1 0 0 1 1.42.03c.38.39.37 1.03-.03 1.41-.19.19-.44.28-.69.28a.95.95 0 0 1-.719-.31zm86.21.33a1 1 0 0 1-.021-1.42c.38-.39 1.021-.4 1.41-.02.401.39.401 1.02.02 1.42-.199.2-.46.3-.72.3-.25 0-.5-.09-.689-.28zm-83.301 2.51c-.399-.37-.43-1-.06-1.41.37-.41 1-.44 1.411-.06a.998.998 0 1 1-1.351 1.47zm80.36.22a.988.988 0 0 1 .08-1.41h-.009a.998.998 0 1 1 1.339 1.481.997.997 0 0 1-1.41-.071zm-77.25 2.43h-.01a1.004 1.004 0 0 1 1.251-1.569c.429.349.499.979.16 1.409a.962.962 0 0 1-.781.37c-.219 0-.44-.069-.62-.21zm74.14.1a1 1 0 1 1 1.57-1.24 1 1 0 0 1-1.57 1.24zm-70.88 2.331a1 1 0 0 1 1.141-1.641c.46.31.569.94.25 1.391a.988.988 0 0 1-.821.429c-.2 0-.389-.06-.57-.179zm67.61-.021a.99.99 0 0 1 .26-1.39 1.01 1.01 0 0 1 1.391.26 1.007 1.007 0 0 1-.83 1.57.971.971 0 0 1-.821-.44zm-64.19 2.231a.996.996 0 0 1-.34-1.371.995.995 0 0 1 1.37-.339c.47.279.63.899.34 1.369a.991.991 0 0 1-.859.48.97.97 0 0 1-.511-.139zm60.77-.131a.986.986 0 0 1 .35-1.369.994.994 0 0 1 1.37.349c.28.48.12 1.09-.349 1.37a1.003 1.003 0 0 1-1.371-.35zm-57.209 2.11a.996.996 0 0 1-.43-1.35.994.994 0 0 1 1.34-.43c.489.25.689.85.439 1.35-.18.34-.529.54-.89.54-.16 0-.31-.04-.459-.11zm53.649-.25c-.239-.5-.05-1.1.45-1.35a.993.993 0 0 1 1.34.45.998.998 0 0 1-.89 1.45c-.37 0-.719-.21-.9-.55zm-49.97 1.98c-.5-.22-.74-.8-.519-1.31a1 1 0 0 1 1.319-.52.997.997 0 0 1-.399 1.911.96.96 0 0 1-.401-.081zm46.3-.37c-.21-.51.03-1.089.54-1.31.511-.21 1.09.03 1.311.54.21.51-.031 1.09-.54 1.31a.99.99 0 0 1-.38.07c-.391 0-.771-.23-.931-.61zm-42.51 1.86c-.519-.19-.79-.76-.61-1.28.19-.52.761-.79 1.28-.61.521.18.79.76.611 1.28a1 1 0 0 1-.941.661 1.01 1.01 0 0 1-.34-.051zm38.75-.49a.986.986 0 0 1 .62-1.27.987.987 0 0 1 1.26.62.996.996 0 0 1-.609 1.27.969.969 0 0 1-.33.06.994.994 0 0 1-.941-.68zm-34.86 1.71a.994.994 0 0 1-.69-1.23c.14-.53.69-.84 1.23-.689v-.011c.53.15.841.7.69 1.24a.992.992 0 0 1-1.23.69zm31-.6a.995.995 0 0 1 .711-1.22v-.01a1.003 1.003 0 0 1 .519 1.94c-.089.02-.179.03-.269.03a1 1 0 0 1-.961-.74zm-27.039 1.56a.988.988 0 0 1-.771-1.18.988.988 0 0 1 1.18-.77v-.01a1.002 1.002 0 0 1-.21 1.98c-.06 0-.13 0-.199-.02zm23.119-.71c-.109-.54.24-1.07.79-1.18.54-.1 1.061.25 1.17.79.11.54-.239 1.07-.779 1.18-.071.01-.141.02-.201.02a.997.997 0 0 1-.98-.81zm-19.1 1.4a1.005 1.005 0 0 1-.86-1.13c.08-.54.58-.93 1.13-.85.551.07.931.58.86 1.13-.08.5-.5.86-1 .86-.04 0-.09 0-.13-.01zm15.13-.81c-.07-.55.321-1.06.87-1.13.54-.07 1.05.32 1.12.871.071.54-.32 1.049-.87 1.119-.04 0-.08.01-.13.01-.49 0-.919-.37-.99-.87zm-11.08 1.23c-.55-.04-.97-.52-.93-1.07.041-.55.52-.97 1.071-.93.55.04.96.52.929 1.07-.04.53-.48.93-1 .93h-.07zm7.08-.92c-.03-.55.39-1.02.941-1.06a1.002 1.002 0 1 1 .13 2h-.071c-.519 0-.96-.41-1-.94zm-4 .06c0-.56.45-1 1-1s1 .45 1 1-.45 1-1.01 1a.995.995 0 0 1-.99-1z"/><path fill="#434A4F" d="M163.957 59.128c-11.102-10.525-25.65-15.873-40.993-15.052-26.266 1.403-47.857 21.645-51.584 47.208h2.022c3.711-24.501 24.454-43.864 49.669-45.211 14.775-.785 28.81 4.363 39.51 14.507 10.706 10.15 16.603 23.862 16.603 38.609 0 14.586-5.815 28.193-16.373 38.315-6.083 5.832-9.433 13.488-9.433 21.559v12.987H98.604v-13.691c0-7.692-3.259-15.011-9.175-20.609a53.177 53.177 0 0 1-15.464-27.627h-2.042a55.179 55.179 0 0 0 16.131 29.08c5.513 5.216 8.55 12.019 8.55 19.156v15.691h58.774v-14.987c0-7.52 3.131-14.663 8.817-20.115 10.955-10.502 16.989-24.623 16.989-39.759 0-15.302-6.119-29.529-17.227-40.061"/><path fill="#42494E" d="M82.843 96.979l-45.159.001c-1.655 0-3 1.345-3 2.999 0 1.655 1.345 3 3 3h45.159l6.507-3-6.507-3zm.439 8H37.684c-2.757 0-5-2.243-5-5a5.005 5.005 0 0 1 5-4.999l45.598-.001 10.843 5-10.843 5z"/><path fill="#42494E" d="M43.294 103.979h2v-7.598h-2z"/><path fill="#42494E" d="M44.294 100.95h38v-2h-38zM200.995 150.66c-4.963 0-9 4.038-9 9 0 4.963 4.037 9 9 9s9-4.037 9-9c0-4.962-4.037-9-9-9zm0 20c-6.065 0-11-4.934-11-11 0-6.065 4.935-11 11-11 6.066 0 11 4.935 11 11 0 6.066-4.934 11-11 11zm0-26c-8.271 0-15 6.729-15 15 0 8.272 6.729 15 15 15 8.272 0 15-6.728 15-15 0-8.271-6.728-15-15-15zm0 32c-9.374 0-17-7.626-17-17 0-9.374 7.626-17 17-17 9.374 0 17 7.626 17 17 0 9.374-7.626 17-17 17z"/><path fill="#42494E" d="M200.995 156.66c-1.654 0-3 1.346-3 3 0 1.655 1.346 3 3 3s3-1.345 3-3c0-1.654-1.346-3-3-3zm0 8c-2.757 0-5-2.243-5-5 0-2.756 2.243-5 5-5s5 2.244 5 5c0 2.757-2.243 5-5 5z"/><path fill="#E9886C" d="M200.995 155.66a4 4 0 1 0 0 8 4 4 0 0 0 0-8"/><path fill="#E9886C" d="M200.995 156.66c-1.654 0-3 1.346-3 3 0 1.655 1.346 3 3 3s3-1.345 3-3c0-1.654-1.346-3-3-3zm0 8c-2.757 0-5-2.243-5-5 0-2.756 2.243-5 5-5s5 2.244 5 5c0 2.757-2.243 5-5 5z"/><path fill="#42494E" d="M173.997 160.66h26.998v-2h-26.998z"/><path fill="#42494E" d="M167.41 162.66h3.172l3-3-3-3h-3.172l3 3-3 3zm4 2h-8.828l5-5-5-5h8.828l5 5-5 5z"/><path fill="#434A4F" d="M125.853 63.466c-2.443 0-4.884 2.109-6.702 5.79l-4.589 9.298c-.784 1.587-2.77 3.03-4.522 3.285L99.78 83.33c-4.06.59-6.822 2.26-7.576 4.581-.755 2.321.498 5.295 3.437 8.16l7.424 7.238c1.267 1.236 2.026 3.57 1.727 5.314l-1.753 10.218c-.693 4.045.041 7.188 2.016 8.622 1.975 1.437 5.19 1.162 8.822-.747l9.181-4.826c.759-.399 1.751-.619 2.79-.619H126.131c1.04 0 2.03.22 2.791.619l9.179 4.826c3.632 1.909 6.849 2.184 8.823.747 1.974-1.434 2.709-4.577 2.015-8.622l-1.752-10.218c-.299-1.744.459-4.078 1.726-5.314l7.425-7.238c2.938-2.865 4.191-5.838 3.437-8.16-.754-2.321-3.516-3.991-7.577-4.581l-10.26-1.491c-1.751-.255-3.738-1.698-4.521-3.285l-4.59-9.299c-1.817-3.68-4.259-5.789-6.699-5.789h-.275zm-17.685 66.921c-1.638 0-3.089-.434-4.289-1.306-2.652-1.926-3.65-5.683-2.811-10.578l1.753-10.218c.189-1.105-.349-2.761-1.152-3.544l-7.425-7.238c-3.556-3.467-4.955-7.093-3.942-10.21 1.013-3.118 4.277-5.228 9.191-5.943l10.26-1.49c1.109-.162 2.518-1.185 3.016-2.191l4.589-9.299c2.199-4.453 5.214-6.904 8.493-6.904h.278c3.277 0 6.293 2.451 8.491 6.904l4.59 9.299c.497 1.006 1.906 2.029 3.016 2.191l10.259 1.49c4.914.715 8.179 2.825 9.192 5.943 1.013 3.118-.387 6.744-3.943 10.21l-7.424 7.238c-.803.783-1.341 2.439-1.153 3.544l1.753 10.218c.84 4.895-.158 8.652-2.81 10.578-2.653 1.928-6.533 1.716-10.93-.595l-9.179-4.825c-.471-.248-1.149-.39-1.86-.39h-.279-.004c-.711 0-1.389.142-1.86.39l-9.18 4.825c-2.407 1.265-4.66 1.901-6.64 1.901z"/><path fill="#FACD60" d="M155.949 89.689c-.101.451-.537 1.698-2.403 3.518a.996.996 0 0 1-1.414-.018 1 1 0 0 1 .017-1.414c.838-.817 1.303-1.459 1.556-1.892-.459-.2-1.213-.447-2.369-.615l-10.261-1.491c-3.678-.535-7.394-3.235-9.039-6.568l-4.589-9.297c-.923-1.869-1.682-2.439-1.812-2.527-.37-.152-.645-.506-.645-.919 0-.553.404-1 .956-1h.208l.279.083c.671.291 1.761 1.358 2.807 3.478l4.589 9.297c1.371 2.777 4.469 5.028 7.533 5.473l10.261 1.491c2.576.375 3.663 1.127 4.011 1.433l.443.391-.128.577zm-11.828 34.663l-.01-2h.01v2zm-35.18-1.368a1 1 0 1 1-1.837.789c-.183-.426-.562-1.694-.122-4.256l1.752-10.217a1 1 0 0 1 1.971.338l-1.752 10.218c-.383 2.229-.015 3.119-.012 3.128zm48.932-34.455c-.503-1.547-2.732-2.751-5.962-3.22l-10.261-1.491c-2.413-.351-4.948-2.192-6.027-4.379l-4.59-9.298c-1.445-2.928-3.279-4.676-4.905-4.676h-.273c-1.631 0-3.464 1.748-4.91 4.676l-4.59 9.298c-1.079 2.187-3.614 4.028-6.027 4.379l-10.26 1.491c-3.231.469-5.46 1.673-5.962 3.22-.503 1.547.593 3.831 2.931 6.11l7.425 7.238c1.746 1.702 2.714 4.682 2.301 7.084l-1.752 10.218c-.552 3.218-.096 5.71 1.219 6.666 1.316.956 3.827.619 6.717-.899l9.179-4.826c1.337-.702 2.764-.849 3.725-.849h.276c.962 0 2.388.147 3.724.849l9.181 4.826c2.89 1.518 5.4 1.855 6.716.899 1.316-.956 1.772-3.448 1.22-6.666l-1.753-10.218c-.412-2.402.556-5.382 2.302-7.084l7.425-7.238c2.338-2.279 3.433-4.563 2.931-6.11z"/></g></svg>