<?xml version="1.0" encoding="utf-8"?><svg xmlns="http://www.w3.org/2000/svg" width="250" height="250" viewBox="0 0 250 250"><g fill="none" fill-rule="evenodd"><path fill="#DBDBD5" d="M178.583 119.748a2 2 0 1 1-3.999.001 2 2 0 0 1 3.999-.001m3.931-22.376c-.059.064-.112.131-.174.192l-3.387 3.388a14.734 14.734 0 0 0-4.345 10.488v3.305h4v-3.305c0-2.893 1.127-5.614 3.173-7.66l3.388-3.387a11.934 11.934 0 0 0 2.191-3.021h-4.846"/><path fill="#E9886C" d="M68.743 83.902h32.772l8.067 5.955 6.836 7.534h35.957l-24.684-28.733-6.66-6.659H54.215l-6.66 6.659 18.247 21.234 2.941-5.99"/><path fill="#E9886C" d="M116.861 96.391h33.336L126.932 69.31l-6.315-6.311H54.629l-5.712 5.711 16.656 19.381 2.547-5.189h33.724l8.479 6.283 6.538 7.206zm37.691 2h-38.578l-7.065-7.789-7.723-5.7h-31.82l-3.334 6.792-19.839-23.087 7.608-7.608h67.644l6.953 6.952 26.154 30.44z"/><path fill="#E9886C" d="M152.375 97.391h34.846l5.371-9.534-4-4-21.584.045-6.777 3.327-7.856 10.162"/><path fill="#E9886C" d="M154.413 96.391h32.224l4.711-8.364-3.169-3.169-20.937.044-6.362 3.123-6.467 8.366zm33.392 2h-37.467l9.244-11.957 7.193-3.531 22.23-.047 4.831 4.831-6.031 10.704z"/><path fill="#434A4F" d="M116.825 211.012H71.277l.002-113.249-6.666-7.717 3.507-7.144h33.723l8.483 6.286 7.244 8.045-1.487 1.338-7.176-7.969-7.722-5.7H69.366l-2.374 4.837 6.287 7.28-.002 111.993h43.548v2M50.573 69.658c-.26 0-.52-.11-.701-.29a.921.921 0 0 1-.219-.33.995.995 0 0 1-.08-.38c0-.26.11-.52.299-.71.231-.23.571-.33.901-.27.059.01.12.03.189.06.061.02.111.05.17.09l.151.12c.19.19.29.45.29.71 0 .26-.1.52-.29.71-.05.04-.1.09-.151.12a.666.666 0 0 1-.17.09.818.818 0 0 1-.189.06c-.07.01-.13.02-.2.02m2.94-1c0-.55.44-1 1-1 .55 0 1 .45 1 1s-.45 1-1 1c-.56 0-1-.45-1-1zm3.93 0c0-.55.45-1 1-1s1 .45 1 1-.45 1-1 1-1-.45-1-1zm3.939 0a.995.995 0 1 1 1.991 0 .995.995 0 1 1-1.991 0zm3.931 0c0-.55.45-1 1-1s1 .45 1 1-.45 1-1 1-1-.45-1-1zm3.939 0c0-.55.441-1 1-1 .551 0 1 .45 1 1s-.449 1-1 1c-.559 0-1-.45-1-1zm3.931 0c0-.55.449-1 1-1 .55 0 1 .45 1 1s-.45 1-1 1c-.551 0-1-.45-1-1zm3.93 0a1.005 1.005 0 0 1 2.009 0 1.005 1.005 0 0 1-2.009 0zm3.94 0c0-.55.449-1 1-1 .55 0 1 .45 1 1s-.45 1-1 1c-.551 0-1-.45-1-1zm3.93 0c0-.55.45-1 1-1 .559 0 1 .45 1 1s-.441 1-1 1c-.55 0-1-.45-1-1zm11.809 0c0-.55.451-1 1-1 .551 0 1 .45 1 1s-.449 1-1 1c-.549 0-1-.45-1-1zm3.931 0c0-.55.449-1 1-1 .55 0 1 .45 1 1s-.45 1-1 1c-.551 0-1-.45-1-1zm3.94 0c0-.55.44-1 1-1 .549 0 1 .45 1 1s-.451 1-1 1c-.56 0-1-.45-1-1zm3.93 0c0-.55.449-1 1-1 .55 0 1 .45 1 1s-.45 1-1 1c-.551 0-1-.45-1-1zm3.94 0c0-.55.44-1 1-1 .549 0 1 .45 1 1s-.451 1-1 1c-.56 0-1-.45-1-1zm3.929 0c0-.55.451-1 1-1 .551 0 1 .45 1 1s-.449 1-1 1c-.549 0-1-.45-1-1zm3.931 0a1.005 1.005 0 0 1 2.01 0 1.005 1.005 0 0 1-2.01 0zm4.939 1c-.259 0-.519-.11-.709-.29-.18-.19-.291-.45-.291-.71 0-.26.111-.52.291-.71.23-.23.58-.34.91-.27.06.01.12.03.179.06.061.02.12.05.181.09.05.03.1.08.149.12.181.19.29.45.29.71 0 .26-.109.52-.29.71-.049.04-.099.09-.149.12a.763.763 0 0 1-.181.09.62.62 0 0 1-.179.06c-.071.01-.13.02-.201.02"/><path fill="#434A4F" d="M188.593 211.012h-74.031v-2h72.031V98.391h-70.344v-2h72.344v114.621"/><path fill="#434A4F" d="M74.582 97.858c0-.55.451-1 1-1 .55 0 1 .45 1 1s-.45 1-1 1c-.549 0-1-.45-1-1zm4 0c0-.55.451-1 1-1 .55 0 1 .45 1 1s-.45 1-1 1c-.549 0-1-.45-1-1zm4 0c0-.55.451-1 1-1 .55 0 1 .45 1 1s-.45 1-1 1c-.549 0-1-.45-1-1zm4 0c0-.55.451-1 1-1 .55 0 1 .45 1 1s-.45 1-1 1c-.549 0-1-.45-1-1zm4 0c0-.55.451-1 1-1 .55 0 1 .45 1 1s-.45 1-1 1c-.549 0-1-.45-1-1zm4 0c0-.55.451-1 1-1 .55 0 1 .45 1 1s-.45 1-1 1c-.549 0-1-.45-1-1zm4 0c0-.55.451-1 1-1 .55 0 1 .45 1 1s-.45 1-1 1c-.549 0-1-.45-1-1zm4 0c0-.55.451-1 1-1 .55 0 1 .45 1 1s-.45 1-1 1c-.549 0-1-.45-1-1zm4 0c0-.55.451-1 1-1 .55 0 1 .45 1 1s-.45 1-1 1c-.549 0-1-.45-1-1zm4 0c0-.55.451-1 1-1 .55 0 1 .45 1 1s-.45 1-1 1c-.549 0-1-.45-1-1zm5.981 5c-.07 0-.13-.01-.2-.02a.636.636 0 0 1-.18-.06.782.782 0 0 1-.181-.09l-.149-.12a1.5 1.5 0 0 1-.221-.33.985.985 0 0 1-.069-.38c0-.27.1-.52.29-.71.37-.37 1.04-.37 1.42 0 .18.19.29.44.29.71 0 .13-.03.26-.08.38s-.12.23-.21.33c-.191.18-.45.29-.71.29m-1 3c0-.55.45-.99 1-.99s1 .44 1 .99c0 .56-.45 1.01-1 1.01s-1-.45-1-1.01zm0 4.01c0-.55.45-1 1-1s1 .45 1 1-.45 1-1 1-1-.45-1-1zm0 4.01c0-.56.45-1 1-1s1 .44 1 1c0 .55-.45 1-1 1s-1-.45-1-1zm0 4c0-.55.45-1 1-1s1 .45 1 1-.45 1-1 1-1-.45-1-1zm0 4.01c0-.55.45-1 1-1s1 .45 1 1-.45 1-1 1-1-.45-1-1zm0 4.01c0-.56.45-1.01 1-1.01s1 .45 1 1.01c0 .55-.45.99-1 .99s-1-.44-1-.99zm0 4c0-.55.45-1 1-1s1 .45 1 1-.45 1-1 1-1-.45-1-1zm0 4.01c0-.56.45-1 1-1s1 .44 1 1c0 .55-.45 1-1 1s-1-.45-1-1zm0 4c0-.55.45-1 1-1s1 .45 1 1c0 .56-.45 1-1 1s-1-.44-1-1zm0 4.01c0-.56.45-1 1-1s1 .44 1 1c0 .55-.45 1-1 1s-1-.45-1-1zm0 4c0-.55.45-1 1-1s1 .45 1 1c0 .56-.45 1-1 1s-1-.44-1-1zm0 4.01c0-.55.45-1 1-1s1 .45 1 1-.45 1-1 1-1-.45-1-1zm0 4.01c0-.56.45-1 1-1s1 .44 1 1c0 .55-.45 1-1 1s-1-.45-1-1zm0 4c0-.55.45-1 1-1s1 .45 1 1-.45 1-1 1-1-.45-1-1zm0 4.01c0-.55.45-1 1-1s1 .45 1 1-.45 1-1 1-1-.45-1-1zm0 4c0-.55.45-1 1-1s1 .45 1 1c0 .56-.45 1-1 1s-1-.44-1-1zm0 4.01c0-.55.45-1 1-1s1 .45 1 1-.45 1-1 1-1-.45-1-1zm0 4.01c0-.56.45-1 1-1s1 .44 1 1c0 .55-.45 1-1 1s-1-.45-1-1zm0 4c0-.55.45-1 1-1s1 .45 1 1-.45 1-1 1-1-.45-1-1zm0 4.01c0-.55.45-1 1-1s1 .45 1 1-.45 1-1 1-1-.45-1-1zm0 4c0-.55.45-1 1-1s1 .45 1 1c0 .56-.45 1-1 1s-1-.44-1-1zm0 4.01c0-.55.45-1 1-1s1 .45 1 1-.45 1-1 1-1-.45-1-1zm0 4.01c0-.56.45-1 1-1s1 .44 1 1c0 .55-.45 1-1 1s-1-.45-1-1zm0 4c0-.55.45-1 1-1s1 .45 1 1-.45 1-1 1-1-.45-1-1zm0 4.01c0-.56.45-1 1-1s1 .44 1 1c0 .55-.45 1-1 1s-1-.45-1-1zm1 5c-.07 0-.13 0-.2-.02-.06-.01-.12-.03-.18-.05-.06-.03-.12-.06-.181-.1a.817.817 0 0 1-.149-.12c-.09-.09-.16-.2-.221-.32a1.07 1.07 0 0 1-.069-.39c0-.26.1-.52.29-.7.05-.05.1-.09.149-.13.061-.03.121-.07.181-.09.06-.03.12-.04.18-.06.33-.06.67.04.91.28.18.18.29.44.29.7 0 .13-.03.26-.08.39-.05.12-.12.23-.21.32-.191.19-.45.29-.71.29"/><path fill="#42494E" d="M49.631 188.999a3.003 3.003 0 0 0-2.999 3c0 1.654 1.346 3 3 3h43.715l6.507-3-6.507-3H49.631zm44.156 8H49.632c-2.757 0-5-2.244-5-5 0-2.757 2.243-5 4.999-5h44.156l10.842 5-10.842 5z"/><path fill="#42494E" d="M55.242 195.999h2V188.4h-2z"/><path fill="#42494E" d="M56.242 192.97h36.557v-2H56.242z"/><path fill="#434A4F" d="M201.333 189.999h2v-4h-2zM201.333 199.999h2v-4h-2zM205.333 193.999h4v-2h-4zM195.333 193.999h4v-2h-4z"/><path fill="#42494E" d="M87.979 151.639l-1.902-.62.299-.919-1.171-.382a3.49 3.49 0 0 1-2.446-3.374 3.492 3.492 0 0 1 2.452-3.369l1.172-.379-.638-1.972-1.172.379c-1.485.483-3.042-.024-3.962-1.291a3.492 3.492 0 0 1 .004-4.168l.725-.997-1.676-1.219-.724.996a3.491 3.491 0 0 1-3.967 1.283 3.491 3.491 0 0 1-2.445-3.374l.001-1.231-2.073-.002-.001 1.232a3.491 3.491 0 0 1-2.454 3.369c-1.486.479-3.045-.025-3.962-1.292l-.723-.997-1.678 1.216.724.998a3.492 3.492 0 0 1-.004 4.167 3.49 3.49 0 0 1-3.965 1.285l-1.172-.382-.299.919-1.902-.62.92-2.821 3.072 1.002c.791.256 1.408-.121 1.729-.56.319-.438.487-1.146.002-1.816l-1.898-2.617 4.916-3.564 1.898 2.616c.486.67 1.211.732 1.727.563.516-.167 1.069-.641 1.069-1.468l.003-3.232 6.073.005-.003 3.232c-.001.828.55 1.303 1.065 1.471.519.169 1.243.11 1.73-.559l1.902-2.613 4.908 3.574-1.901 2.613c-.487.669-.32 1.377-.002 1.817.318.438.941.818 1.726.563l3.076-.996 1.871 5.777-3.075.996c-.788.255-1.069.926-1.069 1.468-.001.543.279 1.214 1.066 1.471l3.073 1.002-.919 2.82"/><path fill="#42494E" d="M79.205 148.852l-1.903-.62a6.085 6.085 0 0 0-.362-4.675 6.084 6.084 0 0 0-3.563-3.049 6.134 6.134 0 0 0-7.724 3.926l-1.903-.62c1.39-4.26 5.991-6.598 10.247-5.207a8.072 8.072 0 0 1 4.726 4.044 8.08 8.08 0 0 1 .482 6.201"/><path fill="#42494E" d="M71.507 154.399a8.123 8.123 0 0 1-2.527-.405c-4.261-1.389-6.597-5.985-5.208-10.246l1.902.62a6.135 6.135 0 0 0 3.925 7.725 6.092 6.092 0 0 0 4.676-.363 6.087 6.087 0 0 0 3.049-3.563l1.902.62a8.074 8.074 0 0 1-4.045 4.726 8.097 8.097 0 0 1-3.674.886"/><path fill="#42494E" d="M74.517 163.603l-6.072-.006.003-3.232c.001-.828-.55-1.302-1.067-1.471-.514-.167-1.24-.109-1.727.56l-1.904 2.612-4.909-3.574 1.904-2.613c.487-.669.32-1.377.001-1.816-.318-.439-.938-.817-1.727-.564l-3.075.996-1.869-5.778 3.074-.995c.787-.255 1.068-.926 1.069-1.469 0-.542-.279-1.213-1.066-1.47l-3.072-1.002 1.03-3.162 1.902.62-.411 1.261 1.171.381a3.494 3.494 0 0 1 2.446 3.374 3.494 3.494 0 0 1-2.454 3.37l-1.172.379.639 1.972 1.173-.379a3.489 3.489 0 0 1 3.962 1.292 3.49 3.49 0 0 1-.004 4.167l-.726.996 1.675 1.221.726-.997a3.494 3.494 0 0 1 3.964-1.283 3.49 3.49 0 0 1 2.447 3.374l-.001 1.232 2.072.002.002-1.232a3.49 3.49 0 0 1 2.452-3.368 3.49 3.49 0 0 1 3.963 1.291l.724.998 1.677-1.217-.722-.997a3.49 3.49 0 0 1 .005-4.168c.918-1.265 2.474-1.77 3.964-1.283l1.171.381.456-1.4 1.903.62-1.077 3.302-3.073-1.002c-.786-.254-1.408.121-1.728.56-.32.438-.488 1.146-.002 1.816l1.896 2.617-4.916 3.564-1.897-2.617c-.487-.671-1.213-.73-1.728-.563-.515.167-1.067.641-1.068 1.468l-.004 3.232"/><path fill="#FACD60" d="M162.26 218a2 2 0 1 1-4.001-.001 2 2 0 0 1 4.001.001"/><path fill="#E9886C" d="M207.242 112.315a2.5 2.5 0 1 1-5 0 2.5 2.5 0 0 1 5 0"/><path fill="#FACD60" d="M125.333 163.999h54v-34h-54z"/><path fill="#434A4F" d="M135.333 142.999h34v-2h-34zM135.333 146.999h34v-2h-34zM141.333 150.999h22v-2h-22zM135.333 176.999h34v-2h-34zM135.333 180.999h34v-2h-34zM45.334 105.999h2v-4h-2zM45.334 115.999h2v-4h-2zM49.333 109.999h4v-2h-4zM39.334 109.999h4v-2h-4zM141.326 55.993h2v-4h-2zM141.326 65.993h2v-4h-2zM145.326 59.993h4v-2h-4zM135.326 59.993h4v-2h-4z"/><path fill="#FACD60" d="M210.667 169.332a1.667 1.667 0 1 1-3.334 0 1.667 1.667 0 0 1 3.334 0M53 177.165a1.5 1.5 0 1 0 2.999.001 1.5 1.5 0 0 0-2.999-.001"/><path fill="#434A4F" d="M136.172 95.998h8.051c.654-5.098 2.922-9.707 6.592-13.376l7.179-7.179c4.733-4.733 7.339-11.026 7.339-17.719v-.665c0-13.818-11.241-25.059-25.059-25.059-13.525 0-24.603 10.797-25.045 24.225l7.998.188c.33-9.099 7.851-16.413 17.047-16.413 9.406 0 17.059 7.652 17.059 17.059v.665c0 4.556-1.774 8.84-4.997 12.062l-7.178 7.179a31.119 31.119 0 0 0-8.986 19.033zm9.862 2h-12.007l.065-1.061a33.107 33.107 0 0 1 9.652-21.386l7.178-7.179a14.959 14.959 0 0 0 4.411-10.648v-.665c0-8.304-6.755-15.059-15.059-15.059-8.304 0-15.059 6.755-15.059 15.059l-.028 1.401-12-.283.028-1.204C113.25 42.109 125.389 30 140.274 30c14.921 0 27.059 12.139 27.059 27.059v.665c0 7.227-2.814 14.022-7.925 19.133l-7.179 7.179c-3.552 3.551-5.665 8.064-6.113 13.051l-.082.911zm50.154-45.069c0 3.188-1.241 6.186-3.496 8.44l-3.388 3.388a10.76 10.76 0 0 0-3.172 7.66v3.304h-4v-3.304c0-3.962 1.543-7.687 4.344-10.488l3.387-3.388a7.88 7.88 0 0 0 2.325-5.612v-.314c0-4.377-3.56-7.937-7.937-7.937-4.376 0-7.937 3.56-7.937 7.937l-.003.17a7.817 7.817 0 0 0 .954 3.936l-3.508 1.922a11.826 11.826 0 0 1-1.445-5.953l.003-.123c-.001-6.534 5.354-11.889 11.936-11.889s11.937 5.355 11.937 11.937v.314zm-11.937-13.251a12.864 12.864 0 0 0-9.142 3.786c-2.447 2.44-3.795 5.673-3.794 9.079l-.003.124a12.824 12.824 0 0 0 1.568 6.457l.481.877 5.262-2.884-.481-.877a6.819 6.819 0 0 1-.831-3.438l.003-.187a6.945 6.945 0 0 1 6.937-6.937 6.944 6.944 0 0 1 6.937 6.937v.314a6.895 6.895 0 0 1-2.031 4.905l-3.388 3.388a15.73 15.73 0 0 0-4.638 11.195v4.304h6v-4.304a9.77 9.77 0 0 1 2.88-6.953l3.388-3.388a12.85 12.85 0 0 0 3.789-9.147v-.314c0-7.134-5.804-12.937-12.937-12.937z"/><path fill="#434A4F" d="M195.188 52.929c0 2.922-1.138 5.668-3.203 7.733l-3.388 3.388a11.756 11.756 0 0 0-3.466 8.367v2.304h-2v-2.304a13.74 13.74 0 0 1 4.052-9.781l3.388-3.388a8.88 8.88 0 0 0 2.617-6.319v-.314c0-4.928-4.009-8.937-8.937-8.937-4.927 0-8.937 4.009-8.937 8.92l-.003.164a8.833 8.833 0 0 0 .647 3.535l-1.763.966a10.842 10.842 0 0 1-.883-4.549l.003-.147c0-2.895 1.138-5.625 3.206-7.687a10.879 10.879 0 0 1 7.73-3.202c6.031 0 10.937 4.906 10.937 10.937v.314zm-10.937-12.251c-6.582 0-11.937 5.355-11.936 11.889l-.003.123a11.826 11.826 0 0 0 1.445 5.953l3.508-1.922a7.817 7.817 0 0 1-.954-3.936l.003-.17c0-4.377 3.561-7.937 7.937-7.937 4.377 0 7.937 3.56 7.937 7.937v.314a7.88 7.88 0 0 1-2.325 5.612l-3.387 3.388a14.736 14.736 0 0 0-4.344 10.488v3.304h4v-3.304a10.76 10.76 0 0 1 3.172-7.66l3.388-3.388a11.855 11.855 0 0 0 3.496-8.44v-.314c0-6.582-5.355-11.937-11.937-11.937zm.084 40.327c-1.102 0-2 .897-2 2s.898 2 2 2c1.103 0 2-.897 2-2s-.897-2-2-2zm0 6c-2.206 0-4-1.794-4-4 0-2.205 1.794-4 4-4s4 1.795 4 4c0 2.206-1.794 4-4 4zm-80.202-39.079a11.86 11.86 0 0 1-3.496 8.44l-3.388 3.388a10.761 10.761 0 0 0-3.173 7.66v3.304h-4v-3.304c0-3.962 1.543-7.687 4.345-10.488l3.387-3.388a7.885 7.885 0 0 0 2.325-5.612v-.314c0-4.376-3.56-7.937-7.937-7.937-4.376 0-7.937 3.561-7.937 7.937l-.003.17a7.798 7.798 0 0 0 .954 3.935l-3.508 1.923a11.824 11.824 0 0 1-1.445-5.953l.003-.123c-.001-6.534 5.354-11.889 11.936-11.889s11.937 5.355 11.937 11.937v.314zM92.196 34.675c-7.133 0-12.937 5.782-12.937 12.865l-.003.124a12.84 12.84 0 0 0 1.569 6.457l.48.877 5.262-2.884-.481-.877a6.82 6.82 0 0 1-.831-3.432l.004-.193a6.945 6.945 0 0 1 6.937-6.937 6.945 6.945 0 0 1 6.937 6.937v.314a6.89 6.89 0 0 1-2.032 4.905l-3.388 3.388a15.728 15.728 0 0 0-4.636 11.195v4.304h6v-4.304a9.767 9.767 0 0 1 2.879-6.953l3.388-3.388a12.848 12.848 0 0 0 3.789-9.147v-.314c0-7.133-5.803-12.937-12.937-12.937z"/><path fill="#434A4F" d="M103.133 47.926c0 2.921-1.137 5.667-3.203 7.733l-3.388 3.388a11.75 11.75 0 0 0-3.465 8.367v2.304h-2v-2.304c0-3.695 1.438-7.168 4.05-9.781l3.388-3.388a8.874 8.874 0 0 0 2.618-6.319v-.314c0-4.928-4.01-8.937-8.937-8.937-4.928 0-8.937 4.009-8.937 8.914l-.004.17a8.85 8.85 0 0 0 .648 3.534l-1.764.967a10.845 10.845 0 0 1-.883-4.549l.003-.147c0-6.004 4.906-10.889 10.937-10.889s10.937 4.906 10.937 10.937v.314zM92.196 35.675c-6.582 0-11.937 5.355-11.936 11.889l-.003.123a11.824 11.824 0 0 0 1.445 5.953l3.508-1.923a7.798 7.798 0 0 1-.954-3.935l.003-.17c0-4.376 3.561-7.937 7.937-7.937 4.377 0 7.937 3.561 7.937 7.937v.314c0 2.12-.826 4.113-2.325 5.612l-3.387 3.388a14.733 14.733 0 0 0-4.345 10.488v3.304h4v-3.304c0-2.894 1.127-5.614 3.173-7.66l3.388-3.388a11.86 11.86 0 0 0 3.496-8.44v-.314c0-6.582-5.355-11.937-11.937-11.937zm.084 40.328c-1.103 0-2 .896-2 2 0 1.102.897 2 2 2 1.102 0 2-.898 2-2 0-1.104-.898-2-2-2zm0 6c-2.206 0-4-1.795-4-4 0-2.206 1.794-4 4-4s4 1.794 4 4c0 2.205-1.794 4-4 4z"/></g></svg>