<?xml version="1.0" encoding="utf-8"?><svg xmlns="http://www.w3.org/2000/svg" width="250" height="250" viewBox="0 0 250 250"><g fill="none" fill-rule="evenodd"><path fill="#E9886C" d="M145 101.998h56.887v-4.564l13.375 13.375-13.375 13.438v-4.54H145v-17.709"/><path fill="#434A4F" d="M197.887 133.936v-10.229h-25.884v-2h27.884v7.385l18.2-18.286-18.2-18.201v7.393h-27.884v-2h25.884V87.777l23.026 23.025-23.026 23.134"/><path fill="#E9886C" d="M105 119.707H48.113v4.54l-13.375-13.438 13.375-13.375v4.564H105v17.709"/><path fill="#434A4F" d="M52.113 133.936l-23.026-23.134 23.026-23.025v10.221h26.885v2H50.113v-7.393l-18.2 18.201 18.2 18.286v-7.385h28.885v2H52.113v10.229"/><path fill="#DDDED9" d="M119.273 76.644l5.998 4.648 5.125-4.313.902-4.355c.228-.225-1.631 1.32-2.489 2.053-.679.579-1.537.9-2.429.91h-2.567a3.686 3.686 0 0 1-2.402-.876l-1.953-1.419-.185 3.352"/><path fill="#434A4F" d="M126.386 76.587h-2.585a4.824 4.824 0 0 1-3.078-1.15c-.241-.205-.513-.426-.799-.659-1.304-1.06-2.783-2.262-3.225-3.45l-2.14-4.517-2.501-1.444-1.1-3.986a2.34 2.34 0 0 1 1.69-2.246 22.025 22.025 0 0 1-.155-2.491v-.19a1 1 0 1 1 2 0v.19c0 .951.092 2.044.274 3.25l.173 1.149h-1.644a.337.337 0 0 0-.324.244l.786 2.752 2.341 1.352 2.441 5.161c.285.756 1.706 1.911 2.646 2.675.299.243.584.475.835.689a2.807 2.807 0 0 0 1.791.671h2.574a1 1 0 1 1 0 2m-16.226 61.43c0-.55.45-1 1-1s1 .45 1 1c0 .549-.45 1-1 1s-1-.451-1-1zm4 0c0-.55.45-1 1-1s1 .45 1 1c0 .549-.45 1-1 1s-1-.451-1-1zm4 0c0-.55.45-1 1-1s1 .45 1 1c0 .549-.45 1-1 1s-1-.451-1-1zm4 0c0-.55.45-1 1-1s1 .45 1 1c0 .549-.45 1-1 1s-1-.451-1-1zm4 0c0-.55.45-1 1-1s1 .45 1 1c0 .549-.45 1-1 1s-1-.451-1-1zm4 0c0-.55.45-1 1-1s1 .45 1 1c0 .549-.45 1-1 1s-1-.451-1-1zm4 0c0-.55.45-1 1-1s1 .45 1 1c0 .549-.45 1-1 1s-1-.451-1-1zm4 0c0-.55.45-1 1-1s1 .45 1 1c0 .549-.45 1-1 1s-1-.451-1-1zM124.158 206.499h2v-58.312h-2zM111.482 147.187h-4.322v-2h3.177l1.885-3.209v-1.479h2v2.023l-2.74 4.665M142.91 147.187h-4.364l-2.386-4.698v-2.052h2v1.574l1.613 3.176h3.137v2"/><path fill="#434A4F" d="M137.542 60.215l-1.971-.344c.212-1.211.319-2.297.319-3.227v-.446c.01-1.56-.311-3.035-.927-4.363-.061-.136-.12-.26-.181-.384l1.791-.888c.073.145.142.292.209.441a12.027 12.027 0 0 1 1.108 5.11v.53c0 1.045-.118 2.247-.348 3.571m-24.753-.023c-.197-1.303-.296-2.498-.296-3.548v-.19c0-3.435 1.415-6.811 3.882-9.262a12.657 12.657 0 0 1 8.904-3.692c2.849.019 5.535.959 7.768 2.721l-1.238 1.57a10.587 10.587 0 0 0-6.543-2.291h-.072c-2.758 0-5.387 1.102-7.409 3.111-2.093 2.078-3.292 4.937-3.292 7.843v.19c0 .951.092 2.044.274 3.25l-1.978.298"/><path fill="#E9886C" d="M130.319 127.189s-3.207-35.638-3.78-37.931a.858.858 0 0 0 .86-.859V86.25l-2.185-2.58-2.113 2.58v2.149c0 .475.385.86.86.859-.573 2.293-3.642 37.931-3.642 37.931l5 6 5-6"/><path fill="#434A4F" d="M94.483 112.658l9.677 9.758v-19.758l-9.677 10zm11.703 51.843l-.025-25.481h-2.001v-13.83l-8.056 8.054-15.259-15.654c-3.392-3.481-3.379-9.13.029-12.594l20.389-20.726 12.398-4.561 2.587-4.484h1.71v-2.558h2v4.558h-2.555l-2.372 4.111-12.657 4.657L82.3 106.398c-2.651 2.695-2.661 7.088-.022 9.795l13.845 14.205 6.596-6.595-11.035-11.127 14.476-14.961v39.305h1.999l.027 27.479-2 .002zM106.227 206.5l-.036-35.999 2-.002.036 35.999-2 .002M146.123 102.658v19.757l9.675-9.757-9.675-10zM144.055 206.5l-2-.002.069-69.478h1.999V97.715l14.475 14.961-11.035 11.127 6.596 6.595 13.845-14.205c2.639-2.706 2.628-7.1-.022-9.795l-20.074-20.405-12.644-4.652-2.512-4.116h-2.494v-5.028l.298-.294c.225-.221.907-.894 1.057-1.292l2.572-5.254 2.659-1.33.552-2.74a.28.28 0 0 0-.079-.155.285.285 0 0 0-.21-.089h-1.74l.204-1.172c.212-1.211.319-2.297.319-3.227v-.446l1-.091 1 .006v.531c0 .75-.06 1.58-.18 2.478.392.106.75.316 1.041.616.436.448.666 1.038.647 1.663l-.019.168-.768 3.81-2.928 1.465-2.236 4.56c-.194.525-.666 1.086-1.189 1.624v2.197h1.616l2.734 4.479 12.412 4.566 20.388 20.726c3.407 3.464 3.421 9.113.029 12.594l-15.259 15.654-8.055-8.054v13.83h-2.001l-.067 67.48zM121.382 87.969a1 1 0 0 1-.743-1.669l4.611-5.124 4.611 5.124a.999.999 0 1 1-1.486 1.338l-3.125-3.472-3.125 3.472a.996.996 0 0 1-.743.331"/><path fill="#434A4F" d="M103.373 135.167h-2.829l-3.293-3.293 1.414-1.414 2.708 2.707h1.171l1.707-1.707 1.415 1.414-2.293 2.293M149.539 135.25h-2.828l-2.168-2.168 1.414-1.414 1.582 1.582h1.172l2.79-2.79 1.415 1.414-3.377 3.376M80.499 153.856h2v-4h-2zM80.499 163.856h2v-4h-2zM84.499 157.856h4v-2h-4zM74.499 157.856h4v-2h-4zM160.547 63.803h2v-4h-2zM160.547 73.803h2v-4h-2zM164.547 67.803h4v-2h-4zM154.547 67.803h4v-2h-4zM154.543 189.878h2v-4h-2zM154.543 199.878h2v-4h-2zM158.543 193.878h4v-2h-4zM148.543 193.878h4v-2h-4z"/><path fill="#E9886C" d="M66.333 84.499a1 1 0 1 1-2 0 1 1 0 0 1 2 0m147.352 100.018a1.334 1.334 0 1 1-2.667 0 1.334 1.334 0 0 1 2.667 0M65.672 144.148a1.333 1.333 0 1 0 2.667 0 1.333 1.333 0 0 0-2.667 0"/><path fill="#434A4F" d="M170.445 185.791l3.852 1.251.716-2.203c.651-2.008 2.436-3.305 4.546-3.306h.002c2.109 0 3.894 1.296 4.547 3.303l.716 2.202 3.852-1.253-.717-2.202c-.652-2.007.029-4.105 1.736-5.347 1.706-1.24 3.912-1.242 5.621-.002l1.972 1.386 2.379-3.277-1.959-1.377c-1.72-1.249-2.402-3.348-1.75-5.356.651-2.006 2.436-3.303 4.545-3.304l2.317-.001-.001-4.051-2.316.001h-.003c-2.109 0-3.893-1.296-4.546-3.302-.653-2.007.028-4.105 1.735-5.347l1.874-1.362-2.323-3.195-1.874 1.362c-1.706 1.241-3.913 1.243-5.621.002-1.707-1.239-2.39-3.338-1.739-5.345l.715-2.202-3.853-1.251-.715 2.203c-.651 2.007-2.435 3.305-4.546 3.306h-.002c-2.109 0-3.894-1.296-4.547-3.302l-.716-2.202-3.852 1.253.717 2.202c.652 2.007-.029 4.106-1.736 5.347-1.707 1.241-3.913 1.242-5.621.003l-1.874-1.362-2.38 3.279 1.875 1.36c1.708 1.24 2.39 3.339 1.738 5.347-.651 2.007-2.436 3.304-4.545 3.305h-2.316l.001 4.051 2.316-.001h.003c2.109 0 3.893 1.296 4.546 3.302.653 2.007-.028 4.106-1.735 5.347l-1.873 1.362 2.321 3.192 1.872-1.362c1.707-1.241 3.914-1.243 5.622-.002 1.707 1.24 2.39 3.338 1.739 5.346l-.715 2.202zm5.138 3.771l-7.658-2.486 1.332-4.104c.46-1.418-.22-2.536-1.011-3.111-.792-.574-2.065-.874-3.27.001l-3.491 2.538-4.673-6.426 3.49-2.538c1.206-.877 1.312-2.182 1.01-3.111-.302-.929-1.156-1.921-2.644-1.921h-.002l-4.316.001-.003-8.049 4.316-.002c1.49 0 2.343-.994 2.645-1.923.301-.929.194-2.235-1.012-3.11l-3.493-2.536 4.73-6.514 3.492 2.535c1.206.876 2.481.574 3.27-.001.79-.575 1.471-1.694 1.009-3.111l-1.335-4.104 7.656-2.491 1.335 4.104c.461 1.416 1.668 1.921 2.645 1.921h.001c.977 0 2.185-.506 2.645-1.923l1.332-4.105 7.658 2.485-1.332 4.105c-.46 1.417.22 2.535 1.011 3.109.79.573 2.063.874 3.27-.001l3.491-2.538 4.675 6.43-3.491 2.538c-1.205.877-1.311 2.181-1.009 3.111.302.928 1.156 1.92 2.644 1.92h.002l4.316-.001.003 8.051-4.317.001c-1.489 0-2.343.993-2.644 1.923-.302.928-.194 2.234 1.011 3.109l3.608 2.538-4.73 6.514-3.596-2.528c-1.217-.884-2.492-.582-3.282-.008-.79.575-1.47 1.693-1.009 3.11l1.335 4.104-7.656 2.492-1.335-4.105c-.461-1.417-1.668-1.922-2.645-1.922h-.001c-.977 0-2.185.506-2.645 1.923l-1.332 4.106z"/><path fill="#42494E" d="M170.241 171.186c-3.758-5.168-2.611-12.43 2.558-16.188a11.517 11.517 0 0 1 8.623-2.074 11.507 11.507 0 0 1 7.565 4.632l-1.618 1.175a9.528 9.528 0 0 0-6.259-3.832 9.514 9.514 0 0 0-7.135 1.716c-4.276 3.11-5.225 9.118-2.117 13.395l-1.617 1.176"/><path fill="#E9886C" d="M179.591 160.828c-.186 0-.373.015-.56.045a3.479 3.479 0 0 0-2.281 1.402 3.504 3.504 0 0 0 .78 4.888 3.507 3.507 0 0 0 4.888-.78c.549-.757.77-1.683.622-2.606a3.477 3.477 0 0 0-1.403-2.282 3.479 3.479 0 0 0-2.046-.667zm-.021 10.002a6.452 6.452 0 0 1-3.799-1.237 6.456 6.456 0 0 1-2.606-4.239 6.454 6.454 0 0 1 1.155-4.838 6.458 6.458 0 0 1 4.238-2.606 6.477 6.477 0 0 1 4.839 1.155 6.455 6.455 0 0 1 2.605 4.239 6.46 6.46 0 0 1-1.154 4.839 6.459 6.459 0 0 1-4.239 2.605 6.633 6.633 0 0 1-1.039.082z"/><path fill="#434A4F" d="M180.32 151.347a1 1 0 0 1-.94-1.06.995.995 0 0 1 1.05-.94c.56.03.98.5.95 1.049-.03.541-.48.951-1 .951h-.06zm-4.89-.43c-.12-.54.21-1.07.75-1.2a.992.992 0 0 1 1.2.75.998.998 0 0 1-.74 1.2c-.08.02-.16.02-.23.02-.46 0-.87-.31-.98-.77zm8.52 1.16c-.52-.19-.79-.761-.61-1.28a.998.998 0 0 1 1.28-.601c.52.181.79.761.61 1.271-.15.41-.53.67-.95.67a.96.96 0 0 1-.33-.06zm-12.13.55a1 1 0 0 1 1.74-.981.984.984 0 0 1-.38 1.361.995.995 0 0 1-1.36-.38zm15.39 1.17v.01a.996.996 0 0 1-.22-1.4.994.994 0 0 1 1.39-.23c.45.33.55.95.23 1.4-.2.27-.5.409-.81.409a.987.987 0 0 1-.59-.189zm-18.37 1.49a.996.996 0 0 1-.02-1.41.996.996 0 0 1 1.41-.021c.4.38.41 1.011.03 1.411-.2.21-.46.31-.72.31-.25 0-.5-.1-.7-.29zm21.03 1.09a.99.99 0 0 1 .18-1.4 1 1 0 0 1 1.4.169 1.005 1.005 0 0 1-.79 1.621c-.3 0-.59-.14-.79-.39zm-23.14 2.31c-.49-.26-.68-.871-.42-1.36.26-.48.86-.67 1.35-.41a.996.996 0 0 1-.47 1.88c-.15 0-.31-.03-.46-.11zm24.96.91c-.2-.52.06-1.1.57-1.3.51-.2 1.1.059 1.3.57.2.52-.06 1.1-.57 1.3-.12.04-.24.069-.37.069-.4 0-.77-.25-.93-.639zm-26.03 2.929a.986.986 0 0 1-.78-1.17c.1-.54.63-.899 1.17-.79.54.111.89.641.79 1.181-.1.48-.52.8-.98.8-.07 0-.13 0-.2-.021zm26.87.67a1.004 1.004 0 0 1 2-.17c.04.551-.36 1.031-.91 1.08-.03.011-.06.011-.09.011-.51 0-.95-.39-1-.921zm-27.89 2.421a.997.997 0 0 1 .91-1.08.996.996 0 0 1 1.08.909.997.997 0 0 1-.91 1.08c-.03 0-.06.011-.09.011a1 1 0 0 1-.99-.92zm28.47 2.46a1.001 1.001 0 0 1 .4-1.96c.54.11.89.63.78 1.17-.09.48-.51.81-.98.81-.07 0-.13-.01-.2-.02zm-27.5 1.699a.993.993 0 0 1 .57-1.29.994.994 0 0 1 1.29.571 1.002 1.002 0 0 1-.94 1.36c-.39 0-.77-.24-.92-.641zm25.9 1.96a.998.998 0 0 1-.42-1.349v-.01a1 1 0 0 1 1.35-.41c.49.25.68.86.42 1.349-.18.341-.53.531-.89.531-.15 0-.31-.04-.46-.111zm-23.8 1.761a.992.992 0 0 1 .18-1.4.994.994 0 0 1 1.4.179.993.993 0 0 1-.18 1.401c-.18.139-.4.21-.61.21-.3 0-.6-.13-.79-.39zm21.23 1.3a1 1 0 0 1-.02-1.42 1 1 0 1 1 1.43 1.399v-.009a.97.97 0 0 1-.72.31c-.25 0-.5-.091-.69-.28zm-18.17 1.67a1.002 1.002 0 0 1 1.18-1.62c.45.33.55.95.22 1.4a1.01 1.01 0 0 1-1.4.22zm14.84.54a1 1 0 0 1 .38-1.361 1.001 1.001 0 0 1 1.36.38 1 1 0 0 1-.87 1.491c-.35 0-.69-.19-.87-.51zm-11.06 1.46v-.01a.997.997 0 0 1-.61-1.27c.19-.52.76-.791 1.28-.61a.997.997 0 1 1-.33 1.94c-.12 0-.23-.01-.34-.05zm7.24-.28c-.12-.541.21-1.07.75-1.201a.997.997 0 0 1 1.2.75c.12.54-.21 1.071-.75 1.201-.07.02-.15.02-.22.02-.46 0-.87-.311-.98-.77zm-3.05 1.12c-.55-.031-.98-.5-.95-1.06a1.01 1.01 0 0 1 1.06-.94c.55.03.97.5.94 1.06a1 1 0 0 1-1 .94h-.05z"/><path fill="#E9886C" d="M44.993 164.16a2 2 0 1 0 4 0 2 2 0 0 0-4 0"/><path fill="#42494E" d="M86.729 53.418c-4.962 0-9 4.037-9 9s4.038 9 9 9 9-4.037 9-9-4.038-9-9-9zm0 20c-6.065 0-11-4.935-11-11 0-6.066 4.935-11 11-11s11 4.934 11 11c0 6.065-4.935 11-11 11zm0-26c-8.271 0-15 6.728-15 15 0 8.271 6.729 15 15 15s15-6.729 15-15c0-8.272-6.729-15-15-15zm0 32c-9.374 0-17-7.626-17-17 0-9.374 7.626-17 17-17 9.374 0 17 7.626 17 17 0 9.374-7.626 17-17 17z"/><path fill="#42494E" d="M86.729 59.418c-1.654 0-3 1.346-3 3s1.346 3 3 3 3-1.346 3-3-1.346-3-3-3zm0 8c-2.757 0-5-2.243-5-5s2.243-5 5-5 5 2.243 5 5-2.243 5-5 5z"/><path fill="#E9886C" d="M86.729 58.418a4 4 0 1 0 0 8 4 4 0 0 0 0-8"/><path fill="#E9886C" d="M86.729 59.418c-1.654 0-3 1.346-3 3s1.346 3 3 3 3-1.346 3-3-1.346-3-3-3zm0 8c-2.757 0-5-2.243-5-5s2.243-5 5-5 5 2.243 5 5-2.243 5-5 5z"/><path fill="#42494E" d="M59.731 63.418h26.998v-2H59.731z"/><path fill="#42494E" d="M53.144 65.418h3.172l3-3-3-3h-3.172l3 3-3 3zm4 2h-8.828l5-5-5-5h8.828l5 5-5 5z"/><path fill="#434A4F" d="M107 168.497c-.13 0-.26-.02-.38-.07a1.19 1.19 0 0 1-.33-.22 1.046 1.046 0 0 1-.29-.71c0-.261.11-.52.29-.7.05-.05.1-.09.15-.13.06-.03.12-.07.18-.09.06-.03.12-.051.18-.06a1.007 1.007 0 0 1 1.2.98 1.046 1.046 0 0 1-.29.71c-.1.09-.21.17-.33.22-.12.05-.25.07-.38.07m27.25-118.62c-.13 0-.26-.03-.38-.08s-.23-.12-.33-.22a.984.984 0 0 1-.29-.7c0-.271.11-.521.29-.71.09-.09.2-.17.33-.221.36-.149.81-.059 1.09.221.18.189.29.439.29.71 0 .26-.1.51-.29.7a1 1 0 0 1-.71.3m34.664 50.122h-.022c-.553-.013-1.013-.471-1-1.022.012-.553.423-.971.999-.979l.045.001c.552.013.989.47.978 1.022a1.002 1.002 0 0 1-1 .978m.149 23.708c-.552 0-1.031-.447-1.031-1 0-.553.417-1 .969-1h.062a1 1 0 1 1 0 2M81.862 99.999h-.023c-.552-.013-1.012-.471-1-1.022.013-.553.432-.971 1-.979l.044.001a1 1 0 0 1-.021 2m.149 23.708c-.552 0-1.031-.447-1.031-1 0-.553.416-1 .969-1h.062a1 1 0 1 1 0 2"/></g></svg>