<?xml version="1.0" encoding="utf-8"?><svg xmlns="http://www.w3.org/2000/svg" width="250" height="250" viewBox="0 0 250 250"><g fill="none" fill-rule="evenodd"><path fill="#5FE0ED" d="M187.917 156.249v-17.991h-26.986v17.991h-2.998l-.001 59.968h32.983v-59.968h-2.998M151.936 96.28V84.286h-35.981V96.28h-2.999v119.937h41.978V96.28h-2.998M109.958 147.253v-8.995h-2.999v-8.995h-2.998v-8.995H88.969v8.995H85.97v8.995h-2.998v8.995h-2.999v68.964h32.983v-68.964h-2.998M76.975 129.263v-14.992H61.983v14.992h-2.999v86.954h20.989v-86.954h-2.998M220.899 216.217h-26.985v-86.954c6.908 0 26.985 12.082 26.985 26.986v59.968M46.991 138.258v32.983h-8.996v-14.992H29v59.968h26.986v-77.959h-8.995"/><path fill="#48515A" d="M136.452 213.719h57.969v-48.474c0-48.869-21.101-95.076-57.969-127.128v175.602zm59.969 2h-61.969V33.783l1.646 1.395c38.336 32.479 60.323 79.886 60.323 130.067v50.474z"/><path fill="#48515A" d="M135.452 64.297h25.488v-2h-25.488zM83.982 213.719h93.929c-.533-25.443-21.396-45.975-46.964-45.975-25.568 0-46.432 20.532-46.965 45.975zm95.94 2h-97.95v-1c0-27.005 21.97-48.975 48.975-48.975 27.005 0 48.975 21.97 48.975 48.975v1z"/><path fill="#48515A" d="M95.966 213.717h30.982V110.772h-2.998V91.284h-2.999V76.291h-18.989v14.993h-2.998v19.488h-2.998v102.945zm32.982 2H93.966V108.772h2.998V89.284h2.998V74.291h22.989v14.993h2.999v19.488h2.998v106.945z"/><path fill="#48515A" d="M104.961 74.291h12.992V60.792a10.924 10.924 0 0 0-12.992 0v13.499zm14.992 2h-16.992V59.819l.375-.3c4.78-3.828 11.458-3.83 16.241-.001l.375.3.001 16.473z"/><path fill="#48515A" d="M110.207 57.3h2v-9.744h-2zM100.962 91.284h20.989v-2h-20.989zM97.964 110.772h26.986v-2H97.964zM53.988 213.719h33.983v-65.472H53.988v65.472zm-2 2h37.983v-69.472H51.988v69.472z"/><path fill="#48515A" d="M29 215.719h23.987v-2H29zM195.513 215.719H221v-2h-25.487zM73 90.217h2v-4h-2zM73 100.217h2v-4h-2zM77 94.217h4v-2h-4zM67 94.217h4v-2h-4zM205 114.217h2v-4h-2zM205 124.217h2v-4h-2zM209 118.217h4v-2h-4zM199 118.217h4v-2h-4zM41 122.217h2v-4h-2zM41 132.217h2v-4h-2zM45 126.217h4v-2h-4zM35 126.217h4v-2h-4z"/><path fill="#5FE0ED" d="M193 95.217a3 3 0 1 1-6 0 3 3 0 0 1 6 0m10-11h-2 2m-144 22a2 2 0 1 1-3.999.001 2 2 0 0 1 3.999-.001m68-54a2 2 0 1 1-3.999.001 2 2 0 0 1 3.999-.001"/><path fill="#F58E70" d="M187.447 37.217c-9.374 0-17 7.626-17 17 0 9.374 7.626 17 17 17 9.374 0 17-7.626 17-17 0-9.374-7.626-17-17-17zm0 36c-10.476 0-19-8.523-19-19 0-10.476 8.524-19 19-19 10.477 0 19 8.524 19 19 0 10.477-8.523 19-19 19z"/><path fill="#48515A" d="M187.447 64.218a1 1 0 0 1-1-1V53.216a1 1 0 0 1 1-1h7a1 1 0 1 1 0 2h-6v9.002a1 1 0 0 1-1 1m.004-23.001a.986.986 0 0 1-1-1c0-.26.1-.52.29-.71.04-.04.1-.09.149-.12.05-.04.111-.07.17-.09a.996.996 0 0 1 1.09.21c.091.1.17.21.221.33.05.12.069.25.069.38 0 .27-.099.52-.29.71a.98.98 0 0 1-.699.29m0 28a.986.986 0 0 1-.71-.29c-.091-.1-.171-.21-.221-.33-.049-.12-.08-.25-.08-.38 0-.26.111-.52.301-.71.369-.37 1.04-.37 1.409 0 .191.19.29.44.29.71 0 .13-.019.26-.069.38a.984.984 0 0 1-.54.54c-.12.05-.25.08-.38.08m-7-26.13a.986.986 0 0 1-1-.99c0-.14.02-.26.069-.39.05-.12.13-.23.221-.32.23-.23.579-.34.899-.27.061.01.13.03.191.05.059.03.12.06.17.09.059.04.109.08.149.13.191.19.301.44.301.71 0 .26-.11.51-.301.7a.98.98 0 0 1-.699.29m14 24.25c-.141 0-.271-.02-.391-.07a.871.871 0 0 1-.319-.22.865.865 0 0 1-.221-.32.977.977 0 0 1 .221-1.09c.23-.24.579-.35.899-.28l.191.06c.059.03.12.06.17.09.059.04.109.08.149.13a.973.973 0 0 1 .221 1.09.877.877 0 0 1-.221.32c-.09.1-.199.17-.319.22-.12.05-.25.07-.38.07m-19.131-19.12a.993.993 0 0 1-.71-.29c-.09-.1-.159-.21-.21-.33a.995.995 0 0 1-.08-.38c0-.26.11-.52.29-.71.101-.09.21-.16.33-.21.181-.08.38-.1.58-.06.061.011.12.03.181.06.06.02.119.05.18.09.049.03.099.08.15.12.18.19.289.45.289.71 0 .13-.019.26-.079.38-.051.12-.12.23-.21.33a.99.99 0 0 1-.711.29m24.25 14a.993.993 0 0 1-.71-.29c-.09-.1-.159-.21-.21-.33a.995.995 0 0 1-.08-.38c0-.26.11-.52.29-.71.101-.09.2-.16.33-.21.37-.16.811-.06 1.091.21.18.19.289.45.289.71 0 .27-.099.52-.289.71-.101.09-.211.16-.33.21-.12.05-.25.08-.381.08m-26.119-7a.986.986 0 0 1-1-1c0-.26.1-.52.29-.71.369-.37 1.04-.37 1.409 0 .191.19.301.45.301.71 0 .27-.11.52-.301.71a.98.98 0 0 1-.699.29m28 0a.986.986 0 0 1-.71-.29 1 1 0 0 1-.301-.71c0-.26.111-.52.301-.71.369-.37 1.04-.37 1.409 0 .191.19.301.45.301.71 0 .13-.03.26-.08.38-.051.12-.12.23-.221.33a.963.963 0 0 1-.699.29m-26.131 7a.993.993 0 0 1-.71-.29c-.09-.1-.159-.21-.21-.33a.995.995 0 0 1-.08-.38c0-.26.11-.52.29-.71.231-.23.58-.33.91-.27.061.011.12.03.181.06.06.02.119.05.18.09.049.03.099.08.15.12.18.19.289.45.289.71a.989.989 0 0 1-1 1m24.25-14a.993.993 0 0 1-1-1c0-.13.03-.26.08-.38.051-.12.12-.23.21-.33.37-.37 1.051-.37 1.421 0 .18.19.289.45.289.71 0 .13-.029.26-.079.38-.051.12-.12.23-.21.33-.101.09-.211.16-.33.21-.12.05-.25.08-.381.08m-19.119 19.12a.986.986 0 0 1-.71-.29c-.091-.09-.171-.2-.221-.32a1.02 1.02 0 0 1-.069-.39c0-.26.1-.52.29-.7.04-.05.1-.09.149-.13.05-.03.111-.06.17-.09l.191-.06c.319-.07.67.04.899.28a.973.973 0 0 1 .221 1.09.877.877 0 0 1-.221.32.98.98 0 0 1-.699.29m14-24.25a.986.986 0 0 1-.71-.29.995.995 0 0 1-.301-.7c0-.27.111-.53.301-.71.04-.05.1-.09.149-.13.05-.03.111-.06.17-.09.061-.02.13-.04.191-.05.33-.07.67.04.899.27a.98.98 0 0 1 .301.71c0 .26-.11.51-.301.7a.98.98 0 0 1-.699.29"/><path fill="#475059" d="M75.305 68.702l-1.901-.62.329-1.011-1.275-.415c-1.54-.503-2.534-1.873-2.532-3.493a3.615 3.615 0 0 1 2.539-3.488l1.276-.414-.7-2.161-1.276.413a3.618 3.618 0 0 1-4.103-1.337 3.617 3.617 0 0 1 .005-4.314l.789-1.084-1.837-1.337-.789 1.084c-.954 1.309-2.562 1.834-4.105 1.329a3.617 3.617 0 0 1-2.532-3.493l.001-1.341-2.272-.003-.001 1.342a3.614 3.614 0 0 1-2.539 3.487c-1.54.497-3.151-.024-4.102-1.337l-.787-1.086-1.84 1.334.787 1.086a3.615 3.615 0 0 1-.004 4.315c-.953 1.31-2.565 1.828-4.105 1.329l-1.275-.416-.329 1.01-1.901-.62.949-2.912 3.176 1.035c.851.278 1.523-.13 1.868-.604.345-.474.527-1.238.002-1.963l-1.961-2.705 5.078-3.682 1.961 2.705c.525.724 1.308.789 1.866.609.559-.181 1.155-.693 1.156-1.587l.003-3.342 6.272.007-.003 3.341c-.001.894.595 1.407 1.153 1.59.555.179 1.34.117 1.867-.606l1.967-2.701 5.07 3.692-1.966 2.702c-.527.722-.346 1.487-.002 1.962.344.475 1.017.883 1.866.609l3.179-1.03 1.933 5.967-3.179 1.03c-.851.275-1.155 1.001-1.155 1.587-.001.586.301 1.311 1.152 1.588l3.177 1.037-.95 2.912"/><path fill="#475059" d="M66.101 65.778l-1.901-.619a6.436 6.436 0 0 0-.384-4.943 6.427 6.427 0 0 0-3.766-3.221 6.422 6.422 0 0 0-4.942.383 6.433 6.433 0 0 0-3.222 3.765l-1.902-.619a8.421 8.421 0 0 1 4.218-4.929 8.423 8.423 0 0 1 6.468-.503 8.425 8.425 0 0 1 4.929 4.218 8.42 8.42 0 0 1 .502 6.468"/><path fill="#475059" d="M58.074 71.563a8.528 8.528 0 0 1-2.637-.422 8.421 8.421 0 0 1-4.928-4.219 8.417 8.417 0 0 1-.502-6.467l1.901.619c-.536 1.645-.4 3.4.384 4.942a6.432 6.432 0 0 0 3.765 3.223c1.644.537 3.4.4 4.942-.383a6.434 6.434 0 0 0 3.223-3.766l1.901.62a8.415 8.415 0 0 1-4.218 4.929 8.446 8.446 0 0 1-3.831.924"/><path fill="#475059" d="M61.182 81.218l-6.272-.007.003-3.34c.001-.895-.594-1.408-1.152-1.59-.557-.182-1.34-.118-1.868.605l-1.966 2.701-5.071-3.692 1.968-2.701c.526-.724.345-1.488.001-1.964-.345-.475-1.017-.883-1.866-.608L41.78 71.65l-1.932-5.966 3.179-1.029c.851-.276 1.154-1.001 1.155-1.587.001-.587-.302-1.312-1.152-1.589l-3.177-1.037 1.067-3.27 1.901.62-.446 1.369 1.275.417a3.613 3.613 0 0 1 2.532 3.492 3.614 3.614 0 0 1-2.539 3.487l-1.276.414.7 2.161 1.276-.413a3.615 3.615 0 0 1 4.101 1.337 3.618 3.618 0 0 1-.004 4.316l-.79 1.084 1.837 1.336.789-1.084a3.623 3.623 0 0 1 4.106-1.329 3.616 3.616 0 0 1 2.531 3.494l-.001 1.34 2.272.003.001-1.34a3.616 3.616 0 0 1 2.541-3.489 3.615 3.615 0 0 1 4.101 1.338l.787 1.086 1.84-1.334-.787-1.086a3.614 3.614 0 0 1 .004-4.313c.954-1.311 2.565-1.83 4.105-1.33l1.275.416.494-1.516 1.902.621-1.115 3.416-3.176-1.035c-.851-.277-1.523.131-1.868.604-.345.475-.527 1.239-.002 1.963l1.961 2.705-5.078 3.682-1.961-2.705c-.525-.724-1.31-.789-1.866-.609-.558.18-1.156.693-1.157 1.587l-.003 3.341"/><path fill="#475059" d="M58 60.216c-1.654 0-3 1.346-3 3 0 1.655 1.346 3 3 3s3-1.345 3-3c0-1.654-1.346-3-3-3zm0 8c-2.757 0-5-2.243-5-5s2.243-5 5-5 5 2.243 5 5-2.243 5-5 5z"/></g></svg>