<?xml version="1.0" encoding="utf-8"?><svg xmlns="http://www.w3.org/2000/svg" width="192" height="164" viewBox="0 0 192 164"><g fill="none" fill-rule="evenodd"><path fill="#F58E70" d="M157.36 29.933H34.844L21.602 43.175v20.758h64.5v-9.935h20v9.935h64.5V43.175L157.36 29.933"/><path fill="#475059" d="M171.102 115.999h-2V67.933h-63.009v-2h65.009v50.066M160.106 134.998H21.102v-10.5h2v8.5h137.004v2M23.102 92.165h-2V65.933h65.002v2H23.102v24.232"/><path fill="#475059" d="M174.602 67.933h-11v-2h9V42.347l-14.414-14.414H34.016L19.602 42.347v23.586h9v2h-11V41.519l15.586-15.586h125.828l15.586 15.586v26.414M120.101 15.933h7.501v-4a9.011 9.011 0 0 0-9-9h-45a9.011 9.011 0 0 0-9 9v4h7.501V9.932h47.998v6.001zm9.501 2h-11.501v-6.001H74.103v6.001H62.602v-6c.007-6.072 4.928-10.993 11-11h45c6.072.007 10.993 4.928 11 11v6z"/><path fill="#475059" d="M60.103 25.933h12v-8h-12v8zm-2 2h16v-12h-16v12zm61.998-1.995l12 .056v-7.995h-12v7.939zm14 2.066l-16-.076V15.999h16v12.005zM90.103 57.933v21a2.002 2.002 0 0 0 2 2h7.998a2.002 2.002 0 0 0 2-2v-21H90.103zm9.998 25h-7.998a4.004 4.004 0 0 1-4-4v-23h15.998v23a4.004 4.004 0 0 1-4 4z"/><path fill="#FFD15D" d="M92.103 59.933v19h8.002l-.003-19h-7.999M62.103 23.933h8v-4h-8zM122.101 23.947l8 .037v-3.985h-8v3.948"/><path fill="#DEDEDD" d="M167.102 69.933h-61v10.066a4.97 4.97 0 0 1-.422 1.999h61.422V69.933m-81 10.066V69.933h-61v12.065h61.422a4.97 4.97 0 0 1-.422-1.999"/><path fill="#475059" d="M174.528 147.997h3.577l1.774-4.023 3.296-1.902 4.371.475 1.789-3.099-2.597-3.547v-3.806l2.597-3.548-1.789-3.099-4.371.476-3.296-1.903-1.774-4.024h-3.577l-1.775 4.024-3.296 1.903-4.371-.476-1.788 3.099 2.597 3.548v3.805l-2.597 3.548 1.788 3.099 4.371-.475 3.296 1.902 1.775 4.023zm4.882 2h-6.187l-2.036-4.618-2.163-1.249-5.018.546-3.092-5.357 2.981-4.072v-2.498l-2.981-4.073 3.092-5.357 5.018.546 2.163-1.249 2.036-4.618h6.187l2.036 4.618 2.163 1.249 5.017-.546 3.094 5.357-2.982 4.073v2.498l2.982 4.072-3.094 5.357-5.017-.546-2.163 1.249-2.036 4.618z"/><path fill="#475059" d="M176.317 131.997a2 2 0 1 0 0 4 2 2 0 0 0 0-4zm0 6a4 4 0 1 1 0-8 4 4 0 0 1 0 8z"/><path fill="#475059" d="M176.317 127.997a6 6 0 1 0 6 6 6.007 6.007 0 0 0-6-6zm0 14a8 8 0 1 1 0-16 8 8 0 0 1 8 8 8.009 8.009 0 0 1-8 8zM120.37 75.504l-.001.001.001-.001zm-5.323 4.332l.005.006-.005-.006zm8.234 9.367h-1.335a7.94 7.94 0 0 1-7.488-10.282 1.205 1.205 0 0 1 2.006-.495l3.145 3.142 2.356-.471.471-2.356-3.147-3.146a1.214 1.214 0 0 1-.314-1.149c.101-.41.411-.736.815-.856a7.995 7.995 0 0 1 9.684 10.774l.803.803-1.414 1.414-1.831-1.831.355-.655a6.037 6.037 0 0 0-1.036-7.098 5.958 5.958 0 0 0-4.573-1.742l2.828 2.828-.942 4.714-4.713.942-2.83-2.829a5.932 5.932 0 0 0 5.845 6.293h1.315v2zm19.833 16.043a2.978 2.978 0 0 1-2.121-.879l-9.023-9.022 1.414-1.414 9.023 9.022a1.023 1.023 0 0 0 1.413.001c.39-.391.391-1.024.001-1.415l-11.213-11.212 1.414-1.414 11.213 11.211a3.001 3.001 0 0 1-2.121 5.122"/><path fill="#475059" d="M122.831 93.7l-6.131 6.131a2 2 0 0 0-.001 2.829h.001a2.047 2.047 0 0 0 2.828 0l6.133-6.132.789-2.372 2.373-.79.54-.54-2.828-2.829-.541.541-.79 2.372-2.373.79zm-4.717 11.546a3.97 3.97 0 0 1-2.828-1.172 4 4 0 0 1-.002-5.656l.002-.001 6.465-6.465 1.872-.623.623-1.872 2.289-2.288 5.656 5.657-2.288 2.288-1.871.623-.623 1.871-6.467 6.466a3.971 3.971 0 0 1-2.828 1.172z"/><path fill="#475059" d="M127.969 89.977l16.438-16.438 1.414 1.414-16.438 16.438-1.414-1.414M30.414 122.26H20c-6.624-.007-11.992-5.376-12-12v-3.999h2v3.999c.007 5.52 4.48 9.994 10 10h9.586l.414-.414v-19.172l-.414-.414H10.413l-.414.414v1.586h-2v-2.414l1.586-1.586h20.829L32 99.847v20.827l-1.586 1.586"/><path fill="#475059" d="M16.002 98.259h8v-.586l-1.414-1.414h-6.586v2zm10 2h-12v-6h9.414l2.586 2.586v3.414zM12 105.263H0v-4h2v2h10v2M19.999 104.26a6 6 0 1 0 6 6 6.006 6.006 0 0 0-6-6zm0 14a8 8 0 1 1 8-8 8.009 8.009 0 0 1-8 8z"/><path fill="#475059" d="M19 112.26h2v-4h-2z"/><path fill="#48515A" d="M6.156 137.058h2v-4h-2zM6.156 147.058h2v-4h-2zM10.156 141.058h4v-2h-4zM.156 141.058h4v-2h-4zM177.258 16.986h2v-4h-2zM177.258 26.986h2v-4h-2zM181.258 20.986h4v-2h-4zM171.258 20.986h4v-2h-4z"/><path fill="#5FE0ED" d="M15.614 15.986a4 4 0 1 1 0 8 4 4 0 0 1 0-8M184.215 89.03a4 4 0 1 1 0 8 4 4 0 0 1 0-8"/><path fill="#F58E70" d="M45.132 148.064a2 2 0 1 1 0 4 2 2 0 0 1 0-4"/><path fill="#48515A" d="M73.022 162h50.567v-50.58l-8.944 8.977-.001.002L73.022 162zm51.567 2H70.61a1 1 0 0 1-.707-1.707l53.978-54a1 1 0 0 1 1.708.706V163a1 1 0 0 1-.999 1h-.001z"/><path fill="#48515A" d="M98.584 151h14.005v-13.785L98.584 151zm15.005 2H96.143a1 1 0 0 1-.701-1.713l17.446-17.173a1 1 0 0 1 1.701.713V152a1 1 0 0 1-.999 1h-.001z"/><path fill="#475059" d="M5.103 47.97a3 3 0 1 0 0 6h65.17l6.507-3-6.507-3H5.103zm65.609 8H5.103a5 5 0 1 1 0-10h65.609l10.843 5-10.843 5z"/><path fill="#475059" d="M11.142 54.97h2v-8h-2z"/><path fill="#475059" d="M12.142 51.97h58v-2h-58z"/></g></svg>