<?xml version="1.0" encoding="utf-8"?><svg xmlns="http://www.w3.org/2000/svg" width="250" height="250" viewBox="0 0 250 250"><g fill="none" fill-rule="evenodd"><path fill="#DEDEDD" d="M125 66.486c-21.505 0-39 17.495-39 39s17.495 39 39 39 39-17.495 39-39-17.495-39-39-39zm0 80c-22.607 0-41-18.392-41-41 0-22.607 18.393-41 41-41s41 18.393 41 41c0 22.608-18.393 41-41 41z"/><path fill="#F58E70" d="M140.38 80.577a16.532 16.532 0 0 0-11.689 4.842l-2.774 2.599-2.774-2.599a16.53 16.53 0 0 0-11.688-4.842c-9.129 0-16.53 7.401-16.53 16.53 0 4.384 1.742 8.588 4.842 11.689l26.325 28.924 25.976-28.924a16.533 16.533 0 0 0 4.842-11.689c0-9.129-7.401-16.53-16.53-16.53M164.835 198.5a1 1 0 1 1-2 0 1 1 0 0 1 2 0"/><path fill="#5FE0ED" d="M183.284 80.209c-3.43-7.592-8.318-14.355-14.531-20.102a60.618 60.618 0 0 0-2.312-2.123C154.929 47.999 140.17 42.5 124.881 42.5c-5.875 0-11.671.82-17.236 2.387l-.078.023a63.203 63.203 0 0 0-3.22 1.01c-.348.118-.694.238-1.039.361a63.98 63.98 0 0 0-2.208.848c-1.028.41-2.041.853-3.046 1.317-.212.099-.427.191-.638.292-5.143 2.444-9.979 5.56-14.341 9.343-5.564 4.826-10.162 10.558-13.713 17.037a64.058 64.058 0 0 0-8.847 32.559v57.234c0 8.843 2.991 20.14 3.051 21.043H99.65l-1.163-4.657a131.358 131.358 0 0 0-7.583-21.922c-4.848-11.96-10.243-22.466-13.953-29.651l-.231-.449a57.202 57.202 0 0 1-4.199-10.67c-3.68-12.99-2.579-26.753 3.398-38.452a54.21 54.21 0 0 1 4.258-6.975 53.307 53.307 0 0 1 8.366-9.175 55.564 55.564 0 0 1 2.849-2.293c.185-.14.369-.281.555-.419a55.813 55.813 0 0 1 2.913-2.01c.163-.105.33-.205.495-.308.961-.603 1.929-1.198 2.933-1.726.096-.05.189-.107.284-.158a56.226 56.226 0 0 1 3.837-1.867 56.373 56.373 0 0 1 3.328-1.352c.111-.04.223-.075.333-.115a55.995 55.995 0 0 1 3.303-1.07c.141-.041.28-.086.421-.125a55.8 55.8 0 0 1 3.505-.862c.198-.042.397-.081.596-.121a55.183 55.183 0 0 1 3.651-.621 55.758 55.758 0 0 1 7.335-.487c13.371 0 26.276 4.806 36.338 13.535l.162.141-.031.037.064.053.04.034a.12.12 0 0 0 .018.015l.011.009.031.027.05.043.029.025c.59.505 1.158 1.023 1.722 1.545 5.44 5.024 9.715 10.931 12.706 17.555 3.176 7.037 4.055 14.969 2.629 22.625h8.072c1.352-8.79.209-17.826-3.438-25.904"/><path fill="#475059" d="M99.323 212.5h-2v-5.312c-.01-27.178-16.91-59.901-25.032-75.626-8.888-17.208-9.191-37.275-.812-53.676a58.465 58.465 0 0 1 13.798-17.649c10.969-9.513 25.034-14.753 39.604-14.753s28.635 5.24 39.604 14.753a60.086 60.086 0 0 1 2.221 2.042c5.929 5.479 10.591 11.924 13.857 19.159 4.828 10.693 4.981 23.195.42 34.297a16.545 16.545 0 0 0-1.262 6.308c0 1.066.115 2.174.342 3.291a16.486 16.486 0 0 0 2.603 6.135l6.983 10.083c.52.618.836 1.492.836 2.388a3.835 3.835 0 0 1-2.627 3.644l-5.184 1.729a2.074 2.074 0 0 0-1.42 1.97c0 .846.196 2.05 1.127 2.982l.293.293v2.011c0 1.662-1.111 2.842-2.906 3.185.048 1.042.065 2.256-.081 2.757-.393 1.354-1.313 2.119-2.054 2.734-.713.592-1.004.875-1.005 1.299l-.017 6.646c-.013 4.846-3.96 8.789-8.798 8.789h-15.246a5.16 5.16 0 0 0-5.154 5.093l3.079 24.099v1.327h-2v-1.264l-3.079-24.101a7.162 7.162 0 0 1 7.154-7.154h15.246c3.738 0 6.788-3.048 6.798-6.794l.017-6.649c.006-1.4.96-2.193 1.728-2.83.611-.508 1.189-.987 1.411-1.752.068-.314.031-1.825-.05-3.031l-.071-1.053 1.054-.015c.901-.012 1.974-.246 1.974-1.286v-1.207c-.919-1.077-1.42-2.508-1.42-4.079a4.071 4.071 0 0 1 2.788-3.867l5.184-1.728a1.841 1.841 0 0 0 .832-2.927l-7.037-10.154a18.446 18.446 0 0 1-2.917-6.875 18.554 18.554 0 0 1-.383-3.689c0-2.408.475-4.785 1.412-7.067 4.353-10.597 4.21-22.521-.393-32.716-3.156-6.99-7.664-13.221-13.399-18.519a68.18 68.18 0 0 0-1.637-1.473l-.009-.008a13.234 13.234 0 0 0-.235-.201l-.023-.021-.166-.141.031-.038-.128-.111c-10.605-9.198-24.204-14.264-38.293-14.264-14.089 0-27.689 5.066-38.294 14.265a56.452 56.452 0 0 0-13.326 17.047c-8.087 15.829-7.785 35.211.807 51.848 8.194 15.866 25.245 48.879 25.255 76.544v5.312"/><path fill="#48515A" d="M213 189.5h2v-4h-2zM213 199.5h2v-4h-2zM217 193.5h4v-2h-4zM207 193.5h4v-2h-4zM35 141.5h2v-4h-2zM35 151.5h2v-4h-2zM39 145.5h4v-2h-4zM29 145.5h4v-2h-4zM191 41.5h2v-4h-2zM191 51.5h2v-4h-2zM195 45.5h4v-2h-4zM185 45.5h4v-2h-4z"/><path fill="#5FE0ED" d="M210.317 133.773a3.317 3.317 0 1 1-6.634 0 3.317 3.317 0 0 1 6.634 0m-154.5-68.286a3.317 3.317 0 1 1-6.634 0 3.317 3.317 0 0 1 6.634 0"/><path fill="#F58E70" d="M164.835 198.5a1 1 0 1 1-2 0 1 1 0 0 1 2 0M54.5 185.5a2 2 0 1 1-3.999.001 2 2 0 0 1 3.999-.001"/></g></svg>