<?xml version="1.0" encoding="utf-8"?><svg xmlns="http://www.w3.org/2000/svg" xmlns:xlink="http://www.w3.org/1999/xlink" width="193" height="179" viewBox="0 0 193 179"><defs><path id="sja" d="M.06.999h8V72.94h-8z"/></defs><g fill="none" fill-rule="evenodd"><path fill="#DEDEDD" d="M126.635 29.493h-11.586v10.874a42.235 42.235 0 0 1 11.586-10.874"/><path fill="#475059" d="M113.049 40.492h-2V25.494h13.997v2h-11.997v12.998"/><path fill="#F58E70" d="M117.144 37.712L78.049 3.504 12.074 61.232l3.975 4.261 62-54.016 35.573 30.991a42.137 42.137 0 0 1 3.522-4.756"/><path fill="#DEDEDD" d="M93.046 151.998h16v-11.529a4.96 4.96 0 0 1-2.999 1.024 5 5 0 1 1 0-10 4.954 4.954 0 0 1 2.999 1.025v-15.025h-16v34.505"/><path fill="#5FE0ED" d="M38.036 134.523h6a6 6 0 0 0 6-6v-14h-12v20m34.013 0h-6a6 6 0 0 1-6-6v-14h12v20m12.015-50.03h6a6 6 0 0 0 6-6v-14h-12v20m-46.028 0h6a6 6 0 0 0 6-6v-14h-12v20m34.013 0h-6a6 6 0 0 1-6-6v-14h12v20"/><path fill="#475059" d="M25.049 98.254h2V56.963h-2zM25.049 154.494h2v-52.118h-2zM113.046 154.494h-2v-39h-20v39h-2v-41h24v41M129.049 155.024h2v-48.025h-2z"/><path fill="#475059" d="M16.699 66.254l-1.3-1.52 62.65-53.555 35.974 30.751-1.299 1.519L78.049 13.81l-61.35 52.444M39.049 87.494h32v-22h-32v22zm-2 2h36v-26h-36v26zM109.436 89.494H83.049v-26h20.886v2H85.049v22h24.387v2M39.049 137.494h32v-22h-32v22zm-2 2h36v-26h-36v26zm68.998-4a1 1 0 1 0 0 2 1 1 0 0 0 0-2zm0 4a3 3 0 1 1 0-6 3 3 0 0 1 0 6zM120.06 103.002H22.04V97h96.02v2H24.04v2.002h96.02v2"/><path fill="#48515A" d="M184.107 139.026h2v-4h-2zM184.107 149.026h2v-4h-2zM188.107 143.026h4v-2h-4zM178.107 143.026h4v-2h-4zM137.079 4.982h2v-4h-2zM137.079 14.982h2v-4h-2zM141.079 8.982h4v-2h-4zM131.079 8.982h4v-2h-4zM6 83.029h2v-4H6zM6 93.029h2v-4H6zM10 87.029h4v-2h-4zM0 87.029h4v-2H0z"/><path fill="#F58E70" d="M110.049 2.999a2 2 0 1 1 .001 3.999 2 2 0 0 1-.001-3.999"/><path fill="#5FE0ED" d="M14.06 120.999a4 4 0 1 1 0 8 4 4 0 0 1 0-8"/><path fill="#DEDEDD" d="M30.061 24.969a2 2 0 1 1 .001 3.999 2 2 0 0 1-.001-3.999"/><path fill="#48515A" d="M152.559 155.999h39.445v-2h-39.445zM.004 155.999h146.31v-2H.004z"/><path fill="#DEDEDD" d="M.004 157.841v15.158l192 .23v-15.158l-192-.23"/><path fill="#48515A" d="M16.062 38.047a2.922 2.922 0 0 0-2.999 2.84v.063a3.039 3.039 0 0 0 2.981 3.097h67.2l6.506-3-6.506-3H16.062zm67.621 8H16.062a5.029 5.029 0 0 1-4.999-5.048 4.908 4.908 0 0 1 4.866-4.952H83.683l10.843 5-10.843 5z"/><path fill="#48515A" d="M22.039 45.047h2v-8h-2z"/><path fill="#48515A" d="M23.039 42.047h60v-2h-60z"/><path fill="#DEDEDD" d="M147.059 114.999h4v-8h-4zM149.059 25.999a39.115 39.115 0 0 0-5.003.331c21.356 2.757 36.434 22.305 33.677 43.661-2.269 17.573-16.103 31.407-33.677 33.676 21.359 2.765 40.915-12.307 43.681-33.665 2.765-21.359-12.307-40.915-33.666-43.681a38.885 38.885 0 0 0-5.012-.322"/><path fill="#48515A" d="M149.06 23.999c-22.644 0-41 18.356-41 41 0 22.643 18.356 41 41 41 22.643 0 41-18.357 41-41-.026-22.633-18.367-40.975-41-41zm0 84c-23.749 0-43-19.252-43-43 0-23.749 19.251-43 43-43 23.748 0 43 19.251 43 43-.027 23.737-19.263 42.973-43 43z"/><path fill="#48515A" d="M150.06 131.027h2v-24.028h-2z"/><g transform="translate(145 106)"><mask id="sjb" fill="#fff"><use xlink:href="#sja"/></mask><path fill="#48515A" mask="url(#sjb)" d="M1.06 25.027h2V.999h-2z"/><path fill="#48515A" d="M2.06 26.027V69a2 2 0 0 0 4 0V26.027h-4zM4.06 73a4.004 4.004 0 0 1-4-4V24.027h8V69a4.005 4.005 0 0 1-4 4z" mask="url(#sjb)"/></g><path fill="#48515A" d="M149.06 27.999c-20.435 0-37 16.565-37 37 0 20.434 16.565 37 37 37 20.434 0 37-16.566 37-37-.023-20.425-16.575-36.978-37-37zm0 76c-21.54 0-39-17.461-39-39s17.46-39 39-39c21.539 0 39 17.461 39 39-.025 21.529-17.471 38.975-39 39z"/><path fill="#48515A" d="M153.311 77.929h-11.118a5.402 5.402 0 0 1-5.38-5.415h2a3.4 3.4 0 0 0 3.38 3.415h11.118a4.037 4.037 0 0 0 4.016-4.048v-1.9a4.022 4.022 0 0 0-4.016-4.016h-10.962a6.021 6.021 0 0 1-6.016-6.016v-1.902a6.022 6.022 0 0 1 6.016-6.017h11.782a4.54 4.54 0 0 1 4.535 4.535h-2a2.538 2.538 0 0 0-2.535-2.535h-11.782a4.02 4.02 0 0 0-4.016 4.017v1.902a4.02 4.02 0 0 0 4.016 4.016h10.962a6.023 6.023 0 0 1 6.016 6.016v1.9a6.039 6.039 0 0 1-6.016 6.048"/><path fill="#48515A" d="M147.39 82.981h2v-36h-2z"/><path fill="#DEDEDD" d="M188.017 116.452l-28-12 12.227 29.61 4.834-9.72 7.08 7.08 2.923-2.734-7.296-7.296 8.232-4.94"/><path fill="#FFF" d="M178.011 106.446l-28-12 12.227 29.61 4.834-9.72 8.11 8.11 2.829-2.828-8.232-8.232 8.232-4.94"/><path fill="#48515A" d="M151.871 96.333l10.452 25.307 4.472-8.995 8.388 8.388 1.414-1.415-8.431-8.431 7.653-4.592-23.948-10.262zm10.283 30.139L148.15 92.561l32.053 13.737-8.811 5.286 8.033 8.034-4.242 4.243-7.835-7.835-5.194 10.446z"/></g></svg>