<?xml version="1.0" encoding="utf-8"?><svg xmlns="http://www.w3.org/2000/svg" width="250" height="250" viewBox="0 0 250 250"><g fill="none" fill-rule="evenodd"><path fill="#DBDBD5" d="M180.99 47.85l-9.984 9.985v-3.352h-3.565L161 60.942v27.535c0 14.791-36 36-36 36s-11.104-6.546-20.979-14.899c9.889 12.469 30.985 24.905 30.985 24.905s36-21.209 36-36V70.948l16.517-16.565-6.533-6.533"/><path fill="#434A4F" d="M183 57.06h2v-4h-2zM183 67.06h2v-4h-2zM187 61.06h4v-2h-4zM177 61.06h4v-2h-4z"/><path fill="#FACD60" d="M67 97.061a2 2 0 1 1-4.001-.001A2 2 0 0 1 67 97.06"/><path fill="#434A4F" d="M80.999 200.06a1 1 0 0 1-1-1v-7.266l-25.727-19.071a5.027 5.027 0 0 1-2.022-4.017v-28.819h1c7.842 0 8.749 6.26 8.749 10.969v12.264l3.177 2.827a1 1 0 0 1-1.33 1.494l-3.847-3.425v-13.16c0-5.908-1.682-8.572-5.749-8.927v26.777c0 .945.454 1.846 1.214 2.41l26.535 19.67v8.274a1 1 0 0 1-1 1"/><path fill="#434A4F" d="M68.654 165.694a.995.995 0 0 1-.658-.247l-4.105-3.591V139.13c0-5.985-1.601-8.582-5.643-8.929v10.873a1 1 0 1 1-2 0V128.16h1c7.66 0 8.643 5.862 8.643 10.97v21.818l3.422 2.993a1 1 0 0 1-.659 1.753"/><path fill="#434A4F" d="M72.657 163.693a.993.993 0 0 1-.658-.247l-4.106-3.592v-23.726c0-5.985-1.601-8.582-5.643-8.929v2.044a1 1 0 1 1-2 0v-4.085h1c7.66 0 8.643 5.862 8.643 10.97v22.818l3.422 2.994a1 1 0 0 1-.658 1.753M116.843 211.06h-2v-11H77.844v11h-2v-13h40.999v13"/><path fill="#75C7D0" d="M70.844 221.061h48.12v-12.995h-48.12z"/><path fill="#434A4F" d="M84.843 216.06h-3.999a1 1 0 1 1 0-2h3.999a1 1 0 1 1 0 2"/><path fill="#434A4F" d="M78.844 214.06a1.001 1.001 0 0 0 0 2 1 1 0 0 0 0-2zm0 4c-1.655 0-3-1.345-3-3 0-1.654 1.345-3 3-3 1.654 0 3 1.346 3 3 0 1.655-1.346 3-3 3zm33.859-18h-.005a1 1 0 0 1-.995-1.004l.289-54.518a6.007 6.007 0 0 0-5.993 6v11.701a7.685 7.685 0 0 1-3.417 6.399 7.691 7.691 0 0 1-7.22.719l-17.094-7.193-6.372-5.296v-20.74c0-6.455-1.863-8.97-6.643-8.97a1 1 0 1 1 0-2c7.66 0 8.643 5.862 8.643 10.97v19.803l5.534 4.598 16.7 6.981a5.613 5.613 0 0 0 5.34-.535 5.613 5.613 0 0 0 2.529-4.736v-11.701c0-4.411 3.589-8 8-8h2.003l-.299 56.527a1 1 0 0 1-1 .995m56.559 0a1 1 0 0 1-1-1v-8.274l26.535-19.671a3.011 3.011 0 0 0 1.214-2.409v-26.777c-4.068.355-5.749 3.019-5.749 8.927v13.16l-3.847 3.425a1 1 0 0 1-1.33-1.494l3.177-2.827v-12.264c0-4.709.907-10.969 8.749-10.969h1v28.819a5.022 5.022 0 0 1-2.023 4.016l-25.726 19.072v7.266a1 1 0 0 1-1 1"/><path fill="#434A4F" d="M181.606 165.694a1 1 0 0 1-.658-1.753l3.422-2.993V139.13c0-5.108.983-10.97 8.643-10.97h1v12.914a1 1 0 1 1-2 0v-10.873c-4.042.347-5.643 2.944-5.643 8.929v22.726l-4.105 3.591a.996.996 0 0 1-.659.247"/><path fill="#434A4F" d="M177.604 163.693a1 1 0 0 1-.659-1.753l3.423-2.994v-22.818c0-5.108.983-10.97 8.643-10.97h1v4.085a1 1 0 1 1-2 0v-2.044c-4.042.347-5.643 2.944-5.643 8.929v23.726l-4.106 3.592a.995.995 0 0 1-.658.247M174.417 211.06h-2v-11h-36.999v11h-2v-13h40.999v13"/><path fill="#75C7D0" d="M131.297 221.061h48.12v-12.995h-48.12z"/><path fill="#434A4F" d="M169.417 216.06h-3.999a1 1 0 1 1 0-2h3.999a1 1 0 1 1 0 2"/><path fill="#434A4F" d="M171.417 214.06a1.001 1.001 0 0 0 0 2 1 1 0 0 0 0-2zm0 4c-1.654 0-3-1.345-3-3 0-1.654 1.346-3 3-3s3 1.346 3 3c0 1.655-1.346 3-3 3zm-33.859-18a1 1 0 0 1-1-.995l-.299-56.527h2.003c4.411 0 8 3.589 8 8v11.701c0 1.935.922 3.661 2.529 4.736a5.614 5.614 0 0 0 5.346.533l16.694-6.979 5.535-4.599v-19.802c0-5.108.983-10.97 8.642-10.97a1 1 0 1 1 0 2c-4.779 0-6.642 2.515-6.642 8.97v20.741l-6.626 5.448-16.837 7.038a7.689 7.689 0 0 1-7.224-.717 7.686 7.686 0 0 1-3.417-6.399v-11.701a6.007 6.007 0 0 0-5.993-6l.289 54.518a1 1 0 0 1-.995 1.004h-.005M125 125.637l-.508-.299C123.002 124.46 88 103.665 88 88.476v-45h6.561a39.041 39.041 0 0 0 29.679-13.65l.76-.887.76.887a39.041 39.041 0 0 0 29.679 13.65H162v4.585h-2v-2.585h-4.561A41.037 41.037 0 0 1 125 31.988a41.037 41.037 0 0 1-30.439 13.488H90v43c0 13.127 30.651 32.196 35 34.833 4.346-2.636 35-21.709 35-34.833V61.06h2v27.416c0 15.189-35.002 35.984-36.492 36.862l-.508.299"/><path fill="#E9886C" d="M158 50.829v-3.352h-2.561A43.033 43.033 0 0 1 125 34.887v48.942l33-33m-33 46.217l-.001 23.934C138.373 112.839 158 97.64 158 88.477V63.951l-33 33.095"/><path fill="#FACD60" d="M157 118.061a1 1 0 1 1-2 0 1 1 0 0 1 2 0m22-31a2 2 0 1 1-4.001-.001 2 2 0 0 1 4.001.001"/><path fill="#E9886C" d="M95 124.061a3 3 0 1 1-6 0 3 3 0 0 1 6 0"/><path fill="#434A4F" d="M35 99.06h2v-4h-2zM35 109.06h2v-4h-2zM39 103.06h4v-2h-4zM29 103.06h4v-2h-4zM213 123.06h2v-4h-2zM213 133.06h2v-4h-2zM217 127.06h4v-2h-4zM207 127.06h4v-2h-4zM100.412 70.936l24.574 24.707 51.118-51.264-5.12-5.12-46.002 46.002-19.447-19.448-5.123 5.123zm24.572 27.541L97.588 70.932l7.947-7.947 19.447 19.447 46.002-46.001 7.946 7.946-53.946 54.1z"/><path fill="#75C7D0" d="M103.237 70.94l21.751 21.869 48.289-48.429-2.293-2.293-46.002 46.002-19.447-19.447-2.298 2.298"/></g></svg>