<?xml version="1.0" encoding="utf-8"?><svg xmlns="http://www.w3.org/2000/svg" width="250" height="250" viewBox="0 0 250 250"><g fill="none" fill-rule="evenodd"><path fill="#475059" d="M39.236 195h2v-20h-2zM49.236 195h2v-10h-2zM115.234 195h2v-20h-2zM105.234 195h2v-10h-2z"/><path fill="#FFD15D" d="M146.111 152.358v24.517l2.43.061a6.987 6.987 0 0 1 5.693-2.936 7 7 0 0 1 0 14 6.99 6.99 0 0 1-5.904-3.25h-5.125v-.348a7.999 7.999 0 0 1-4.969-7.402v-24h-3.001v45.028h30.001v-45.67h-19.125"/><path fill="#475059" d="M131.236 102h2V62h-2zM131.236 142h2v-30.125h-2zM205.236 202h-74v-45.997h2V200h70v-48h2v50M203.236 141.999h2v-30.248h-2zM203.236 102.25h2V61.999h-2zM165.236 110h-38v-6h38v2h-36v2h36v2M209.236 110h-22v-2h20v-2h-20v-2h22v6M129.236 58h78v-2h-78v2zm-2 2h82v-6h-82v6zM127.235 50h82.001v-2h-82.001z"/><path fill="#475059" d="M135.236 55h2v-5.502h-2zM199.236 55h2v-5.502h-2zM183.236 55h2v-5.502h-2zM167.236 55h2v-5.502h-2zM151.236 55h2v-5.502h-2zM169.236 200h14V60h-14v140zm-2 2h18V58h-18v144z"/><path fill="#475059" d="M168.236 72.909h16v-2h-16zM168.236 85.818h16v-2h-16zM168.236 98.727h16v-2h-16zM168.236 111.636h16v-2h-16zM168.236 124.545h16v-2h-16zM168.236 137.455h16v-2h-16zM168.236 150.364h16v-2h-16zM168.236 163.273h16v-2h-16zM168.236 176.182h16v-2h-16zM168.236 189.091h16v-2h-16zM148.233 146h17.003v-2h-17.003zM148.233 150h17.003v-2h-17.003zM209.236 150h-22v-2h20v-2h-20v-2h22v6M38.236 200h93.007v-4H38.236v4zm-2 2h97.007v-8H36.236v8z"/><path fill="#475059" d="M78.236 104c-24.813 0-45 20.187-45 45s20.187 45 45 45 45-20.187 45-45-20.187-45-45-45zm0 92c-25.916 0-47-21.084-47-47s21.084-47 47-47 47 21.084 47 47-21.084 47-47 47z"/><path fill="#475059" d="M78.236 108c-22.608 0-41 18.393-41 41s18.392 41 41 41c22.607 0 41-18.393 41-41s-18.393-41-41-41zm0 84c-23.711 0-43-19.29-43-43s19.289-43 43-43c23.71 0 43 19.29 43 43s-19.29 43-43 43z"/><path fill="#5FE0ED" d="M39.96 156.503C43.468 174.43 59.297 188 78.236 188c18.991 0 34.855-13.646 38.304-31.646a5.837 5.837 0 0 1-6.425-1.233l-1.879-1.878-1.879 1.878a5.79 5.79 0 0 1-4.121 1.707 5.787 5.787 0 0 1-4.121-1.707l-1.879-1.878-1.879 1.878a5.832 5.832 0 0 1-8.242 0l-1.879-1.878-1.879 1.878a5.832 5.832 0 0 1-8.242 0l-1.879-1.878-1.879 1.878a5.832 5.832 0 0 1-8.242 0l-1.879-1.878-1.879 1.878a5.79 5.79 0 0 1-4.121 1.707 5.787 5.787 0 0 1-4.121-1.707l-1.629-1.628-1.879 1.878a5.837 5.837 0 0 1-6.647 1.132"/><path fill="#475059" d="M129.236 156h-5v-2h3v-10h-3v-2h5v14"/><path fill="#475059" d="M129.236 152h10v25c0 3.86 3.14 7 7 7h8.001c1.654 0 3-1.346 3-3s-1.346-3-3-3h-9.001v-25c0-3.86-3.14-7-7-7h-9v6zm25.001 34h-8.001c-4.963 0-9-4.038-9-9v-23h-10v-10h11c4.962 0 9 4.038 9 9v23h7.001c2.757 0 5 2.243 5 5s-2.243 5-5 5zM119.195 125.833h-2V95.984h-78v29.849h-2V93.984h82v31.849M37.194 89.984h82.001v-2H37.194z"/><path fill="#475059" d="M50.198 94.984h2v-5.502h-2zM109.195 94.984h2v-5.502h-2zM93.195 94.984h2v-5.502h-2zM77.195 94.984h2v-5.502h-2zM61.195 94.984h2v-5.502h-2zM38.236 99.999h80v-2h-80z"/><path fill="#475059" d="M77.236 103h2v-4.334h-2zM53.069 110h2V98.833h-2zM101.236 110h2V98.833h-2zM49.477 113.651l-12-14 1.518-1.302 12 14-1.518 1.302M106.995 113.651l-1.518-1.302 12-14 1.518 1.302-12 14"/><path fill="#FFD15D" d="M143.205 62.005h-7.97v39.667h30.001V62.005h-22.031M157.266 112.334h-22.031v29.661h30.001v-29.661h-7.97M187.266 101.672h5.969V62.005h-5.969zM187.266 141.995h5.969v-29.661h-5.969zM187.266 198.028h5.969v-45.67h-5.969z"/><path fill="#48515A" d="M35.447 75.011h2v-4h-2zM35.447 85.011h2v-4h-2zM39.447 79.011h4v-2h-4zM29.447 79.011h4v-2h-4zM212.553 168.066h2v-4h-2zM212.553 178.066h2v-4h-2zM216.553 172.066h4v-2h-4zM206.553 172.066h4v-2h-4zM112.493 55.999h2v-4h-2zM112.493 65.999h2v-4h-2zM116.493 59.999h4v-2h-4zM106.493 59.999h4v-2h-4z"/><path fill="#DEDEDD" d="M79.221 73.964a2 2 0 1 1-4 0 2 2 0 0 1 4 0m49.029 50.03a2 2 0 1 1-3.999.001 2 2 0 0 1 3.999-.001m-92.055 64.038a2 2 0 1 1-4 0 2 2 0 0 1 4 0m177.106-50.03a2 2 0 1 1-3.999.001 2 2 0 0 1 3.999-.001"/><path fill="#48515A" d="M123.774 75.998c-1.103 0-2 .897-2 2s.897 2 2 2 2-.897 2-2-.897-2-2-2zm0 6c-2.205 0-4-1.795-4-4 0-2.206 1.795-4 4-4 2.206 0 4 1.794 4 4 0 2.205-1.794 4-4 4zm-50.029 54.036c-1.103 0-2 .897-2 2s.897 2 2 2 2-.897 2-2-.897-2-2-2zm0 6c-2.206 0-4-1.795-4-4 0-2.206 1.794-4 4-4 2.205 0 4 1.794 4 4 0 2.205-1.795 4-4 4zm84.05 20.015c-1.103 0-2 .897-2 2s.897 2 2 2 2-.897 2-2-.897-2-2-2zm0 6c-2.206 0-4-1.794-4-4 0-2.205 1.794-4 4-4 2.205 0 4 1.795 4 4 0 2.206-1.795 4-4 4z"/><path fill="#FFD15D" d="M61.21 63.958a2 2 0 1 1-3.999.001 2 2 0 0 1 3.999-.001"/></g></svg>