<?xml version="1.0" encoding="utf-8"?><svg xmlns="http://www.w3.org/2000/svg" width="250" height="250" viewBox="0 0 250 250"><g fill="none" fill-rule="evenodd"><path fill="#475059" d="M42 44.969c-.551 0-1 .448-1 1V91.97c0 .552.449 1 1 1h70c.551 0 1-.448 1-1V45.969c0-.552-.449-1-1-1H42zm70 50.001H42c-1.654 0-3-1.346-3-3V45.969c0-1.654 1.346-3 3-3h70c1.654 0 3 1.346 3 3V91.97c0 1.654-1.346 3-3 3z"/><path fill="#475059" d="M68.02 103.97h17.96l-1.481-9H69.5l-1.48 9zm19.981 2H66l.013-2.12 1.488-9.046V92.97h18.998v1.918l1.502 9.124v1.958z"/><path fill="#475059" d="M64 105.97h26v-2H64z"/><path fill="#DEDEDD" d="M43.002 85.97v4.5a.5.5 0 0 0 .5.5H110.5a.5.5 0 0 0 .5-.5v-4.5H43.002M70.376 101.971h13.245l-.831-5.001H71.198l-.822 5.001"/><path fill="#475059" d="M73.997 127.97h6v-6h-6v6zm-2 2h10v-10h-10v10zm50.003-2h6v-6h-6v6zm-2 2h10v-10h-10v10zm50-2h6v-6h-6v6zm-2 2h10v-10h-10v10zm-30.001-85.001c-.551 0-1 .448-1 1V91.97c0 .552.449 1 1 1h70c.551 0 1-.448 1-1V45.969c0-.552-.449-1-1-1h-70zm70 50.001h-70c-1.654 0-3-1.346-3-3V45.969c0-1.654 1.346-3 3-3h70c1.654 0 3 1.346 3 3V91.97c0 1.654-1.346 3-3 3z"/><path fill="#475059" d="M164.019 103.97h17.96l-1.48-9h-15l-1.48 9zm19.98 2h-22l.013-2.12 1.488-9.046V92.97h18.999v1.918l1.5 9.124v1.958z"/><path fill="#475059" d="M159.999 105.97h26v-2h-26z"/><path fill="#DEDEDD" d="M139.001 85.97v4.5a.5.5 0 0 0 .5.5h66.997a.5.5 0 0 0 .5-.5v-4.5h-67.997M166.375 101.971h13.244l-.83-5.001h-11.592l-.822 5.001"/><path fill="#475059" d="M89.97 146.03c-.551 0-1 .448-1 1v46.001c0 .552.449 1 1 1h70c.551 0 1-.448 1-1V147.03c0-.552-.449-1-1-1h-70zm70 50.001h-70c-1.654 0-3-1.346-3-3V147.03c0-1.655 1.346-3 3-3h70c1.655 0 3 1.345 3 3v46.001c0 1.654-1.345 3-3 3z"/><path fill="#475059" d="M115.99 205.031h17.96l-1.48-9h-15l-1.48 9zm19.98 2h-22l.013-2.12 1.488-9.046v-1.834h18.999v1.918l1.5 9.124v1.958z"/><path fill="#475059" d="M111.97 207.031h26v-2h-26z"/><path fill="#DEDEDD" d="M90.972 187.031v4.5a.5.5 0 0 0 .5.5h66.998a.5.5 0 0 0 .5-.5v-4.5H90.972M118.346 203.031h13.245l-.83-5h-11.593l-.822 5"/><path fill="#475059" d="M75.999 109.971h2v-2h-2zM75.999 113.971h2v-2h-2zM75.999 117.971h2v-2h-2zM172 109.969h2v-2h-2zM172 113.969h2v-2h-2zM172 117.969h2v-2h-2zM123.996 133.967h2v-2h-2zM123.996 137.967h2v-2h-2zM123.996 141.967h2v-2h-2zM37.5 125.97h35.498v-2H37.5zM177.002 125.97H212.5v-2h-35.498zM129 125.97h40v-2h-40zM80.998 125.97h40.001v-2H80.998z"/><path fill="#48515A" d="M213 161.032h2v-4h-2zM213 171.032h2v-4h-2zM217 165.032h4v-2h-4zM207 165.032h4v-2h-4zM34.999 144.032h2v-4h-2zM34.999 154.032h2v-4h-2zM39 148.032h4v-2h-4zM28.999 148.032h4v-2h-4z"/><path fill="#FFD15D" d="M206.875 104.594a2.439 2.439 0 1 1-4.877-.001 2.439 2.439 0 0 1 4.877.001"/><path fill="#FFD15D" d="M204.437 102.657a1.94 1.94 0 0 0-1.937 1.937 1.94 1.94 0 0 0 1.937 1.938 1.94 1.94 0 0 0 1.938-1.938 1.94 1.94 0 0 0-1.938-1.937zm0 4.875a2.94 2.94 0 0 1-2.937-2.938 2.94 2.94 0 0 1 2.937-2.937 2.94 2.94 0 0 1 2.938 2.937 2.941 2.941 0 0 1-2.938 2.938z"/><path fill="#5FE0ED" d="M91.875 135.469a2.438 2.438 0 1 1-4.876 0 2.438 2.438 0 0 1 4.876 0"/><path fill="#FFD15D" d="M45.875 177.469a2.438 2.438 0 1 1-4.876 0 2.438 2.438 0 0 1 4.876 0"/><path fill="#FFD15D" d="M43.437 175.532a1.94 1.94 0 0 0-1.938 1.937 1.94 1.94 0 0 0 1.938 1.938 1.94 1.94 0 0 0 1.938-1.938 1.94 1.94 0 0 0-1.938-1.937zm0 4.875a2.94 2.94 0 0 1-2.937-2.938 2.94 2.94 0 0 1 2.937-2.937 2.94 2.94 0 0 1 2.937 2.937 2.94 2.94 0 0 1-2.937 2.938z"/><path fill="#5FE0ED" d="M64.999 172.032a1 1 0 1 1-1.999.001 1 1 0 0 1 1.999-.001"/><path fill="#DEDEDD" d="M109 113.032a2 2 0 1 1-4.001-.001 2 2 0 0 1 4.001.001m-46.001 2a2 2 0 1 1-4 0 2 2 0 0 1 4 0m84.001 20a2 2 0 1 1-4.001-.001 2 2 0 0 1 4.001.001m48 26a2 2 0 1 1-4.001-.001 2 2 0 0 1 4.001.001m-16 17a1 1 0 1 1-2 0 1 1 0 0 1 2 0m-141.007-44a1 1 0 1 1-2 0 1 1 0 0 1 2 0"/><path fill="#48515A" d="M192 110.032c-1.104 0-2 .897-2 2 0 1.102.896 2 2 2 1.103 0 2-.898 2-2 0-1.103-.897-2-2-2zm0 6c-2.206 0-4-1.794-4-4s1.794-4 4-4c2.205 0 4 1.794 4 4s-1.795 4-4 4zM48 111.033h-2.001v-7.001H45v-2h3v9.001"/><path fill="#48515A" d="M45 112.033h4v-2h-4zM178 163.033h-2v-7.001h-1v-2h3v9.001"/><path fill="#48515A" d="M175 164.033h4v-2h-4zM64.999 140.031a1 1 0 0 0-.999 1v4.001a1 1 0 0 0 .999 1c.552 0 1-.449 1-1v-4.001a1 1 0 0 0-1-1zm0 8.001c-1.654 0-3-1.346-3-3v-4.001c0-1.655 1.346-3 3-3 1.655 0 3 1.345 3 3v4.001c0 1.654-1.345 3-3 3zm124.001 28a1 1 0 0 0-1 1v4.001a1.001 1.001 0 0 0 2 0v-4.001c0-.552-.449-1-1-1zm0 8.001c-1.655 0-3-1.346-3-3v-4.001c0-1.655 1.345-3 3-3 1.654 0 3 1.345 3 3v4.001c0 1.654-1.346 3-3 3zm-52-82.001a1 1 0 0 0-1 1v4.001a1.001 1.001 0 0 0 2 0v-4.001c0-.552-.449-1-1-1zm0 8.001c-1.655 0-3-1.346-3-3v-4.001c0-1.655 1.345-3 3-3 1.654 0 3 1.345 3 3v4.001c0 1.654-1.346 3-3 3z"/></g></svg>