<?xml version="1.0" encoding="utf-8"?><svg xmlns="http://www.w3.org/2000/svg" width="250" height="250" viewBox="0 0 250 250"><g fill="none" fill-rule="evenodd"><path fill="#434A4F" d="M31 122.732h42.261V97.249H31v25.483zm-2 2h46.261V95.249H29v29.483z"/><path fill="#434A4F" d="M52.131 111.268c-.187 0-.374-.053-.538-.157l-16.124-10.275a1 1 0 0 1 1.076-1.687l15.584 9.932 14.949-9.591a1 1 0 0 1 1.08 1.684l-15.487 9.935a1 1 0 0 1-.54.159m18.739 9.895a.999.999 0 0 1-.768-.36l-8.924-10.706a1.001 1.001 0 0 1 1.537-1.281l8.923 10.706a1 1 0 0 1-.768 1.641m-37.479 0a1.001 1.001 0 0 1-.768-1.641l8.924-10.706a1.001 1.001 0 0 1 1.536 1.281l-8.924 10.706a.996.996 0 0 1-.768.36M52.981 140.664h2v-14.037h-2zM53.98 144.009a1.015 1.015 0 0 1-.83-.449.55.55 0 0 1-.09-.171.564.564 0 0 1-.06-.19c-.011-.06-.02-.13-.02-.19 0-.259.11-.52.29-.71.38-.37 1.05-.37 1.42 0 .09.09.159.201.21.33.06.121.08.25.08.38a1.011 1.011 0 0 1-1 1M61.673 131.966h2v-5.339h-2zM62.67 135.31a.973.973 0 0 1-.701-.29.884.884 0 0 1-.219-.321.978.978 0 0 1 .219-1.09c.371-.38 1.04-.38 1.411 0 .049.04.089.09.12.15.04.051.07.11.099.17.02.06.04.12.051.19.02.06.02.131.02.191 0 .129-.02.259-.071.389-.049.12-.13.23-.219.321a.994.994 0 0 1-.71.29M44.284 134.865h2v-8.238h-2zM45.279 138.209c-.259 0-.52-.11-.7-.29-.19-.19-.299-.45-.299-.71 0-.26.109-.52.299-.709.371-.371 1.04-.371 1.41 0 .19.189.29.449.29.709 0 .26-.1.52-.29.71-.189.18-.439.29-.71.29m110.52-37.943a1 1 0 0 1-.981-1.196l1.75-8.75a1 1 0 1 1 1.961.392l-1.75 8.75a1.001 1.001 0 0 1-.98.804"/><path fill="#E9886C" d="M131.994 187.186s-2.667-18.851-4-24.185c1.104.001 2-.894 2-1.999v-5l-5.084-6.004-4.916 6.004v5c0 1.105.895 2 2 1.999-1.333 5.334-4 24.185-4 24.185h14"/><path fill="#DDDED9" d="M109.613 135.007v4.37l15.131 8.5 15-8.25.134-7.998v-6.741a30.59 30.59 0 0 0 1.688-1.784c-.18.157-.352.315-.5.474-2.103 2.26-5.292 4.633-7.451 6.477a9.57 9.57 0 0 1-6.114 2.291h-6.492a9.573 9.573 0 0 1-6.114-2.291c-2.06-1.76-5.06-4.002-7.157-6.168-.064-.066-.137-.131-.205-.196.63.67 1.35 1.349 2.116 2.025-.017.008-.036.016-.036.036v9.255"/><path fill="#434A4F" d="M109.613 140.251a1 1 0 0 1-1-1v-13.5a1 1 0 0 1 2 0v13.5a1 1 0 0 1-1 1M95.062 86.662h-.004a1 1 0 0 1-.996-1.004l.004-1.467c0-8.244 3.398-16.346 9.322-22.231 5.805-5.764 13.398-8.875 21.332-8.855 6.831.047 13.27 2.303 18.623 6.523a30.752 30.752 0 0 1 8.455 10.411c.173.349.34.702.5 1.06a28.783 28.783 0 0 1 2.655 12.229l-.002 1.342a1 1 0 1 1-2 0l.002-1.355a26.786 26.786 0 0 0-2.475-11.386 28.715 28.715 0 0 0-8.374-10.73c-5-3.943-11.016-6.05-17.397-6.094h-.189c-7.347 0-14.343 2.934-19.72 8.274-5.549 5.512-8.732 13.098-8.732 20.812l-.004 1.474a1 1 0 0 1-1 .997m44.716 53.34a1 1 0 0 1-1-1v-14.554l.298-.293c1.174-1.158 2.579-2.636 3.015-3.797l5.832-11.903a1 1 0 1 1 1.796.881l-5.794 11.815c-.495 1.328-1.782 2.766-3.147 4.132v13.719a1 1 0 0 1-1 1"/><path fill="#434A4F" d="M127.516 133.346h-6.507a10.606 10.606 0 0 1-6.763-2.531 114.284 114.284 0 0 0-2.037-1.68c-3.133-2.548-6.683-5.436-7.653-8.036l-5.746-11.727a.999.999 0 1 1 1.796-.879l5.785 11.817c.818 2.181 4.29 5.004 7.08 7.273.743.604 1.451 1.18 2.074 1.712a8.594 8.594 0 0 0 5.476 2.051h6.495a1 1 0 0 1 0 2m-66.522 75.836h-2v-25.179l.063-19.334c0-5.943 3.773-7.842 9.102-9.875L99.3 144.182l5.493-10.18h4.367v2h-3.173l-5.299 9.82-31.85 10.853c-5.278 2.014-7.781 3.465-7.781 7.998l-.063 19.333v25.176m64-60.035l-15.859-8.88a1 1 0 0 1 .978-1.746l14.881 8.334 14.298-8.007a1 1 0 1 1 .978 1.745l-15.276 8.554M165 221.02h-21.839a6.174 6.174 0 0 1-6.167-6.168v-.998c0-3.4 2.766-6.167 6.167-6.167h7.999a4.172 4.172 0 0 0 4.167-4.167 4.172 4.172 0 0 0-4.167-4.168h-44.684a6.175 6.175 0 0 1-6.167-6.167c0-3.413 2.767-6.18 6.167-6.18h35.857v2h-35.857a4.174 4.174 0 0 0 0 8.347h44.684c3.4 0 6.167 2.767 6.167 6.168 0 3.4-2.767 6.167-6.167 6.167h-7.999a4.171 4.171 0 0 0-4.167 4.167v.998a4.172 4.172 0 0 0 4.167 4.168H165c2.757 0 5-2.244 5-5v-3.415l4.293-4.292 1.414 1.414-3.707 3.707v2.586c0 3.859-3.14 7-7 7m3.829-32.011a.976.976 0 0 1-.699-.3.976.976 0 0 1 0-1.41c.27-.279.719-.37 1.089-.219a1 1 0 0 1 .321.219c.19.18.289.44.289.71 0 .261-.099.52-.289.7a.866.866 0 0 1-.321.22c-.129.05-.259.08-.39.08m-20.719-1c0-.56.45-1 1-1 .549 0 1 .44 1 1 0 .551-.451 1-1 1-.55 0-1-.449-1-1zm3.95 0c0-.56.44-1 1-1 .55 0 1 .44 1 1 0 .551-.45 1-1 1-.56 0-1-.449-1-1zm3.94 0c0-.56.449-1 1-1 .55 0 1 .44 1 1 0 .551-.45 1-1 1-.551 0-1-.449-1-1zm3.94 0c0-.56.449-1 1-1 .56 0 1 .44 1 1 0 .551-.44 1-1 1-.551 0-1-.449-1-1zm3.949 0c0-.56.451-1 1-1 .551 0 1 .44 1 1 0 .551-.449 1-1 1-.549 0-1-.449-1-1z"/><path fill="#434A4F" d="M145.17 189.009c-.13 0-.261-.03-.39-.08a.855.855 0 0 1-.32-.22.634.634 0 0 1-.131-.149 3.787 3.787 0 0 1-.089-.171 1.087 1.087 0 0 1-.05-.19c-.02-.06-.02-.13-.02-.19 0-.07 0-.13.02-.199.009-.06.029-.131.05-.191.03-.059.06-.11.089-.17.04-.05.08-.1.131-.15.09-.09.199-.17.32-.219.189-.071.39-.091.58-.06.069.02.13.04.19.06.06.029.12.059.169.089.061.04.11.081.15.13.051.05.091.1.131.15.03.06.07.111.09.17a.78.78 0 0 1 .06.191c.009.069.02.129.02.199 0 .06-.011.13-.02.19a.76.76 0 0 1-.06.19c-.02.06-.06.12-.09.171a.634.634 0 0 1-.131.149.62.62 0 0 1-.15.13c-.049.03-.109.06-.169.09-.06.03-.121.04-.19.06-.06.011-.13.02-.19.02m38.879-.004H171.5v-2h12.549c2.756 0 5-2.243 5-5v-10.652h2v10.652c0 3.86-3.141 7-7 7M182.337 157.464l-33.094-11.553-6.049-9.909h-3.2v-2h4.322l6.261 10.257 32.419 11.316-.659 1.889M115.993 161.001a.999.999 0 0 1-.742-1.668l9.743-10.826 9.743 10.826a1 1 0 1 1-1.486 1.337l-8.257-9.174-8.257 9.174a.995.995 0 0 1-.744.331M90.35 90.063a55.215 55.215 0 0 1-.284-5.393v-.479c0-9.301 3.828-18.439 10.504-25.068 6.574-6.531 15.153-10.066 24.179-10.018 7.725.053 15.012 2.606 21.07 7.382a34.756 34.756 0 0 1 10.129 12.974 32.69 32.69 0 0 1 3.005 13.893l-.002.226.001 1.09c0 1.646-.11 3.454-.327 5.374l-1.988-.225c.209-1.845.315-3.577.315-5.149l-.001-1.096.002-.233a30.69 30.69 0 0 0-2.825-13.05 32.738 32.738 0 0 0-9.547-12.233c-5.706-4.499-12.569-6.903-19.847-6.953-8.487-.044-16.562 3.285-22.755 9.437-6.3 6.256-9.913 14.877-9.913 23.649v.479c0 1.602.092 3.351.274 5.197l-1.99.196"/><path fill="#434A4F" d="M95.85 90.305c-.08 0-.16.009-.24.028l-6.785 1.562a3.003 3.003 0 0 0-2.271 3.587l2.639 11.708a3 3 0 0 0 3.585 2.268l6.84-1.575c.513-.125.844-.66.725-1.188l-3.519-15.61a.993.993 0 0 0-.449-.63.989.989 0 0 0-.525-.15zm-3.74 21.227a4.959 4.959 0 0 1-2.661-.775 4.967 4.967 0 0 1-2.207-3.127l-2.639-11.709a5.006 5.006 0 0 1 3.778-5.977l6.767-1.556a2.967 2.967 0 0 1 2.279.366 2.98 2.98 0 0 1 1.348 1.891l3.519 15.61a3.015 3.015 0 0 1-2.214 3.574l-6.861 1.579a5.04 5.04 0 0 1-1.109.124z"/><path fill="#434A4F" d="M93.249 100.266c-.467 0-.885-.329-.98-.804l-1.75-8.75a1 1 0 0 1 1.961-.392l1.75 8.75a1 1 0 0 1-.981 1.196"/><path fill="#434A4F" d="M93.188 97.204c-1.103 0-2 .897-2 2s.897 2 2 2 2-.897 2-2-.897-2-2-2zm0 6c-2.206 0-4-1.795-4-4 0-2.206 1.794-4 4-4 2.205 0 4 1.794 4 4 0 2.205-1.795 4-4 4zm63.626 6.438a3.006 3.006 0 0 0 3.581-2.268l2.64-11.709a3.002 3.002 0 0 0-2.267-3.586l-7.324-1.744a.987.987 0 0 0-.77.12.99.99 0 0 0-.449.63l-3.519 15.61a1.006 1.006 0 0 0 .738 1.192l7.37 1.755zm.655 2.073c-.363 0-.731-.04-1.1-.123l-.012-.003-7.383-1.758a3.017 3.017 0 0 1-2.219-3.576l3.519-15.61a2.974 2.974 0 0 1 1.347-1.891 2.987 2.987 0 0 1 2.292-.363l7.306 1.739c2.679.604 4.374 3.285 3.767 5.975l-2.64 11.708a5.009 5.009 0 0 1-4.877 3.902z"/><path fill="#434A4F" d="M155.86 97.204c-1.103 0-2 .897-2 2s.897 2 2 2 2-.897 2-2-.897-2-2-2zm0 6c-2.205 0-4-1.795-4-4 0-2.206 1.795-4 4-4 2.206 0 4 1.794 4 4 0 2.205-1.794 4-4 4zm-33.862 14.815a1.001 1.001 0 0 0 0 2h6a1.001 1.001 0 0 0 0-2h-6zm6 4h-6c-1.654 0-3-1.346-3-3 0-1.655 1.346-3 3-3h6c1.654 0 3 1.345 3 3 0 1.654-1.346 3-3 3z"/><path fill="#434A4F" d="M134.811 120.019h-4.813v-2h4.69l15.663-1.93 3.175-6.196 1.78.912-3.658 7.14-16.837 2.074M190.127 30.98c-15.92 0-28.871 12.953-28.871 28.872 0 11.724 7.001 22.197 17.836 26.684l.68.281-.067.733a8.192 8.192 0 0 1-2.632 5.331c3.015-.432 5.767-1.874 7.894-4.166l.358-.386.521.077c1.419.211 2.859.318 4.281.318 15.92 0 28.872-12.952 28.872-28.872 0-15.919-12.952-28.872-28.872-28.872zm-14.995 64.039h-3.611v-2a6.182 6.182 0 0 0 6.088-4.943 30.787 30.787 0 0 1-18.353-28.224c0-17.022 13.849-30.872 30.871-30.872 17.023 0 30.872 13.85 30.872 30.872 0 17.023-13.849 30.872-30.872 30.872-1.348 0-2.712-.09-4.06-.268a15.467 15.467 0 0 1-10.935 4.563z"/><path fill="#434A4F" d="M173.05 48.034h34v-2h-34zM173.05 52.184h34v-2h-34zM173.05 56.186h34v-2h-34zM198.25 71.512l-3.8-3.8 1.415-1.414 2.385 2.386 9.093-9.094 1.414 1.414-10.507 10.508M184.343 71.819l-8-8 1.414-1.414 8 8-1.414 1.414"/><path fill="#434A4F" d="M177.757 71.819l-1.414-1.414 8-8 1.414 1.414-8 8"/><path fill="#434A4F" d="M175.049 73.113h12v-12h-12v12zm-2 2h16v-16h-16v16zM207.049 75.113h-16v-16h12.833v2h-10.833v12h12v-6.917h2v8.917"/><path fill="#42494E" d="M182.322 194.175c-.34 0-.677.129-.935.386l-8.013 7.993c-.252.251-.39.585-.391.94 0 .355.137.69.388.941l4.186 4.042c.134.119.621.301 1.053.402 3.09-.054 5.972-.486 8.569-1.285 15.105-4.65 26.649-16.519 30.879-31.749.523-1.882.789-3.979.792-6.235a3.634 3.634 0 0 0-1.068-2.589l-3.502-3.356a1.337 1.337 0 0 0-.956-.407h-.002c-.354 0-.687.138-.939.388l-8.014 7.993a1.333 1.333 0 0 0-.002 1.882l4.411 4.251-.096.527a25.29 25.29 0 0 1-18.888 20.049l-2.076.506-4.436-4.277a1.355 1.355 0 0 0-.96-.402zm-3.906 16.707l-.107-.021c-.353-.072-1.552-.355-2.155-.959l-4.185-4.042a3.317 3.317 0 0 1-.986-2.369 3.307 3.307 0 0 1 .979-2.353l8.013-7.993a3.334 3.334 0 0 1 4.709.006l3.629 3.499 1.008-.245a23.292 23.292 0 0 0 17.293-17.941l-3.649-3.518a3.337 3.337 0 0 1-.008-4.723l8.014-7.993a3.31 3.31 0 0 1 2.351-.972h.005a3.307 3.307 0 0 1 2.353.979l3.502 3.355a5.634 5.634 0 0 1 1.668 4.021c-.003 2.435-.294 4.712-.865 6.767-4.413 15.891-16.457 28.274-32.218 33.125-2.81.866-5.92 1.328-9.243 1.376l-.108.001z"/><path fill="#42494E" d="M209.63 175.839l-1.412-1.416 4.248-4.237 1.412 1.416-4.248 4.237M215.298 170.187l-1.413-1.416 1.415-1.412 1.412 1.416-1.414 1.412M178.458 206.929l-1.412-1.416 7.082-7.063 1.412 1.416-7.082 7.063"/><path fill="#434A4F" d="M61.476 58.52h2v-4h-2zM61.476 68.52h2v-4h-2zM65.476 62.52h4v-2h-4zM55.476 62.52h4v-2h-4zM189 127.02h2v-4h-2zM189 137.02h2v-4h-2zM193 131.02h4v-2h-4zM183 131.02h4v-2h-4zM60 213.02a1.05 1.05 0 0 1-.71-.291c-.09-.1-.16-.209-.211-.33a.85.85 0 0 1-.079-.379c0-.131.02-.261.079-.381.051-.13.121-.23.211-.329.28-.27.719-.371 1.09-.211.12.05.23.12.33.211.09.099.159.199.21.329.049.12.08.25.08.381 0 .129-.031.259-.08.379-.051.121-.12.23-.21.33-.19.18-.451.291-.71.291"/><path fill="#FACD60" d="M87 131.068a2 2 0 1 1-4.001-.001 2 2 0 0 1 4.001.001"/><path fill="#75C7D0" d="M185.058 111.056a3 3 0 1 1-6 0 3 3 0 0 1 6 0M221 135.02a2 2 0 1 1-4.001-.001 2 2 0 0 1 4.001.001"/><path fill="#434A4F" d="M194 168.02h-2c0-8.823 7.177-16 16-16v2c-7.72 0-14 6.28-14 14"/><path fill="#434A4F" d="M190 168.02h-2c0-11.028 8.972-20 20-20v2c-9.926 0-18 8.074-18 18"/><path fill="#434A4F" d="M186 168.02h-2c0-13.234 10.766-24 24-24v2c-12.131 0-22 9.869-22 22m12 0h-2c0-6.617 5.383-12 12-12v2c-5.514 0-10 4.485-10 10"/></g></svg>