<?xml version="1.0" encoding="utf-8"?><svg xmlns="http://www.w3.org/2000/svg" width="250" height="250" viewBox="0 0 250 250"><g fill="none" fill-rule="evenodd"><path fill="#DEDEDD" d="M55.674 205.877c-5.402-.015-9.77-4.408-9.755-9.811.016-5.402 4.408-9.77 9.811-9.754a9.781 9.781 0 0 1 6.87 2.846l.168.138c3.738 3.924 3.587 10.136-.337 13.873a9.812 9.812 0 0 1-6.757 2.708zm.001-126.897c5.399.005 9.772 4.386 9.767 9.785-.005 5.4-4.386 9.773-9.785 9.768-5.4-.005-9.773-4.386-9.768-9.785a9.784 9.784 0 0 1 2.866-6.907 9.722 9.722 0 0 1 6.92-2.861zm123.766-5.78h-2.415a49.308 49.308 0 0 0-35.096 14.537l-50.226 50.226h-.314l-33.578-33.578c8.629-1.191 14.66-9.151 13.469-17.78-1.191-8.63-9.151-14.66-17.78-13.469-8.629 1.19-14.66 9.151-13.469 17.78a15.775 15.775 0 0 0 4.481 9.006l42.616 42.616-40.945 40.945.009.01c-6.996 5.241-8.418 15.161-3.177 22.156 5.241 6.996 15.161 8.419 22.156 3.178 6.996-5.241 8.419-15.161 3.178-22.157a15.829 15.829 0 0 0-10.349-6.167l29.298-29.298h8.496l46.134 46.134a49.31 49.31 0 0 0 35.097 14.538h2.415l-69.372-69.339L179.441 73.2z"/><path fill="#DEDEDD" d="M82.204 119.95l52.548 52.548a45.304 45.304 0 0 0 24.341 12.684L93.828 119.95H82.204"/><path fill="#48515A" d="M45.668 160.293c-7.613 0-13.786 6.171-13.786 13.785 0 7.613 6.171 13.786 13.785 13.786 7.614.001 13.786-6.171 13.786-13.785a13.784 13.784 0 0 0-4.037-9.748 13.696 13.696 0 0 0-9.748-4.038zm0 29.563c-8.715.105-15.865-6.876-15.97-15.592-.104-8.715 6.876-15.865 15.591-15.97l.379-.001a15.685 15.685 0 0 1 11.162 4.624c6.164 6.159 6.169 16.149.01 22.313a15.774 15.774 0 0 1-11.172 4.626zm0-136.888c-7.609.005-13.775 6.178-13.77 13.788.005 7.61 6.178 13.775 13.788 13.77 7.61-.005 13.775-6.178 13.77-13.788a13.775 13.775 0 0 0-4.04-9.739 13.74 13.74 0 0 0-9.748-4.031zm0 29.557c-8.714-.006-15.773-7.074-15.768-15.788.006-8.714 7.074-15.774 15.788-15.768 8.714.005 15.774 7.074 15.769 15.788a15.78 15.78 0 0 1-4.627 11.152 15.737 15.737 0 0 1-11.162 4.616z"/><path fill="#48515A" d="M169.435 189.864h-2.415a49.307 49.307 0 0 1-35.096-14.538L34.507 77.909l1.414-1.414 97.417 97.417a47.288 47.288 0 0 0 31.204 13.889L94.657 117.95H80.556L44.313 81.707l1.414-1.414 35.657 35.657h14.101l73.95 73.914"/><path fill="#48515A" d="M46.69 159.795l-1.414-1.414 31.189-31.189h9.889v2h-9.061L46.69 159.795M99.367 121.221l-1.414-1.415 66.589-66.556a47.289 47.289 0 0 0-31.204 13.888L82.936 117.54l-1.414-1.414 50.402-50.402a49.315 49.315 0 0 1 35.096-14.538h2.415L99.367 121.22M36.178 161.47l41.594-41.593 1.414 1.414-41.594 41.593-1.414-1.414M90.021 122a1 1 0 1 0 0 2 1 1 0 0 0 0-2zm0 4a3 3 0 1 1 0-6 3 3 0 0 1 0 6zM45.668 56.967c-5.401.004-9.776 4.386-9.772 9.787.005 5.402 4.387 9.777 9.788 9.772a9.78 9.78 0 1 0 6.904-16.698 9.717 9.717 0 0 0-6.92-2.861zm0 21.565c-6.504-.001-11.776-5.276-11.774-11.78.002-6.504 5.276-11.776 11.78-11.774 6.504.001 11.776 5.276 11.774 11.78a11.776 11.776 0 0 1-3.447 8.322 11.703 11.703 0 0 1-8.333 3.452zm0 85.766c-5.387.04-9.722 4.438-9.683 9.825.04 5.387 4.438 9.722 9.825 9.683 5.387-.039 9.722-4.438 9.683-9.825a9.754 9.754 0 0 0-2.731-6.698l-.168-.138a9.72 9.72 0 0 0-6.926-2.847zm0 21.566c-6.507-.016-11.77-5.303-11.754-11.811.015-6.507 5.303-11.77 11.81-11.755a11.78 11.78 0 0 1 8.166 3.316l.181.148c4.578 4.646 4.523 12.125-.123 16.704a11.818 11.818 0 0 1-8.28 3.398z"/><path fill="#DEDEDD" d="M99.163 115.809l59.93-59.898a45.304 45.304 0 0 0-24.341 12.684l-45.13 45.131h7.482l2.059 2.083"/><path fill="#48515A" d="M90.021 122a1 1 0 1 0 0 2 1 1 0 0 0 0-2zm0 4a3 3 0 1 1 0-6 3 3 0 0 1 0 6zM95.02 69.936h2v-4h-2zM95.02 79.936h2v-4h-2zM99.02 73.936h4v-2h-4zM89.02 73.936h4v-2h-4zM191.02 179h2v-4h-2zM191.02 189h2v-4h-2zM195.02 183h4v-2h-4zM185.02 183h4v-2h-4zM73.02 175h2v-4h-2zM73.02 185h2v-4h-2zM77.02 179h4v-2h-4zM67.02 179h4v-2h-4z"/><path fill="#FFD15D" d="M179.02 169a4 4 0 1 1 0 8 4 4 0 0 1 0-8m2.979-52c-8.836 0-16-7.164-16-16 0-8.837 7.164-16.001 16-16.001 8.837 0 16 7.164 16 16.001 0 8.836-7.163 16-16 16zm-38.997 36H221V81h-77.998v72z"/><path fill="#48515A" d="M176.069 93.141a2.93 2.93 0 1 0 0 5.858 2.93 2.93 0 0 0 0-5.858zm0 7.858a4.93 4.93 0 1 1 4.929-4.93 4.935 4.935 0 0 1-4.929 4.93zm11.002 3.144a2.928 2.928 0 1 0 0 5.856 2.928 2.928 0 0 0 0-5.856zm0 7.857a4.928 4.928 0 1 1 0-9.857 4.928 4.928 0 0 1 0 9.857zM172.22 109.507l17.287-17.287 1.414 1.414-17.287 17.287-1.414-1.414M145 121h2v-2h-2zM149 121h2v-2h-2zM153 121h2v-2h-2zM157 121h2v-2h-2zM161 121h2v-2h-2zM165 121h2v-2h-2zM169 121h2v-2h-2zM173 121h2v-2h-2zM177 121h2v-2h-2zM181 121h2v-2h-2zM185 121h2v-2h-2zM189 121h2v-2h-2zM193 121h2v-2h-2zM197 121h2v-2h-2zM201.034 121h2v-2h-2zM205.034 121h2v-2h-2zM209.034 121h2v-2h-2zM213.034 121h2v-2h-2zM217.034 121h2v-2h-2zM165 132h34v-2h-34zM165 136h34v-2h-34zM165 140h30v-2h-30z"/><path fill="#FFD15D" d="M107.698 160.348l1.28 2.593 2.861.415a.966.966 0 0 1 .535 1.646l-2.071 2.018.489 2.85a.965.965 0 0 1-1.4 1.017l-2.559-1.345-2.559 1.345a.964.964 0 0 1-1.4-1.017l.489-2.85-2.071-2.018a.965.965 0 0 1 .535-1.646l2.861-.415 1.28-2.593a.964.964 0 0 1 1.73 0m-66-44l1.28 2.593 2.861.415a.966.966 0 0 1 .535 1.646l-2.071 2.018.489 2.85a.965.965 0 0 1-1.4 1.017l-2.559-1.345-2.559 1.345a.964.964 0 0 1-1.4-1.017l.489-2.85-2.071-2.018a.965.965 0 0 1 .535-1.646l2.861-.415 1.28-2.593a.964.964 0 0 1 1.73 0"/></g></svg>