<?xml version="1.0" encoding="utf-8"?><svg xmlns="http://www.w3.org/2000/svg" width="250" height="250" viewBox="0 0 250 250"><g fill="none" fill-rule="evenodd"><path fill="#FACD60" d="M173.91 58.908l-7.571-.006.002-2 7.571.006-.002 2"/><path fill="#FACD60" d="M168.971 171.879l-.074-113.974 2-.001.074 113.974-2 .001"/><path fill="#42494E" d="M167.015 172.42l2.991 6.479 2.98-6.47-.081-121.106a2.997 2.997 0 0 0-2.989-2.99h-.002a2.96 2.96 0 0 0-2.108.873 2.957 2.957 0 0 0-.872 2.108l.081 121.106zm2.993 11.256l-4.993-10.815v-.22l-.081-121.325a4.952 4.952 0 0 1 1.457-3.525 4.952 4.952 0 0 1 3.523-1.458h.003a4.998 4.998 0 0 1 4.988 4.989l.081 121.544-4.978 10.81z"/><path fill="#434A4F" d="M158.423 133.707l-69.493-.168.004-2 69.493.168-.004 2M70.207 133.707h10.624v-2H70.207z"/><path fill="#434A4F" d="M69.207 138.158h2v-10.903h-2zM187.398 185.121l-36.049-63.616h-4.483l-.285-.513-18.289-32.807 1.747-.974 18.003 32.294h4.473l31.951 56.385-.548-5.479.937-3.193-48.599-87.14 1.746-.975 49.007 87.873-1.061 3.624 1.45 14.521M60.466 185.121l1.451-14.521-1.062-3.623.204-.367 48.706-87.331 1.746.974-48.502 86.965.938 3.193-.549 5.479 31.951-56.385h4.475l18.003-32.294 1.746.974L101 121.505h-4.485l-36.049 63.616"/><path fill="#434A4F" d="M123.932 61.505c-7.168 0-13 5.832-13 13 0 7.169 5.832 13 13 13s13-5.831 13-13c0-7.168-5.832-13-13-13zm0 28c-8.271 0-15-6.729-15-15s6.729-15 15-15c8.272 0 15 6.729 15 15s-6.728 15-15 15z"/><path fill="#E9886C" d="M113.933 74.505c0 5.523 4.477 10 10 10s10-4.477 10-10c-.001-5.523-4.478-10-10.001-10-5.522 0-9.999 4.477-9.999 10"/><path fill="#434A4F" d="M123.932 79.505a1 1 0 0 1-1-1v-8a1 1 0 1 1 2 0v8a1 1 0 0 1-1 1"/><path fill="#434A4F" d="M127.932 75.505h-8a1 1 0 1 1 0-2h8a1 1 0 1 1 0 2m.001-15h-2V40.503c0-1.103-.897-2-2-2-1.102 0-2 .897-2 2v20.002h-2V40.503c0-2.205 1.794-4 4-4s4 1.795 4 4v20.002"/><path fill="#FACD60" d="M33 209.496h184.001v-17H33z"/><path fill="#434A4F" d="M30.999 211.497H219v-21.001H30.999v21.001zm-2 2H221v-25.001H28.999v25.001z"/><path fill="#434A4F" d="M64.001 195.496h2v-6h-2zM76.001 197.497h2v-8.001h-2zM88.001 195.496h2v-6h-2zM100 197.497h2v-8.001h-2zM112 195.496h2v-6h-2zM124 197.497h2v-8.001h-2zM136 195.496h2v-6h-2zM148 197.497h2v-8.001h-2zM160 195.496h2v-6h-2zM172 197.497h2v-8.001h-2zM184 195.496h2v-6h-2zM196 197.497h2v-8.001h-2zM208 195.496h2v-6h-2zM52.001 197.497h2v-8.001h-2zM40.001 195.496h2v-6h-2zM209 200.496c-1.102 0-2 .897-2 2s.898 2 2 2c1.103 0 2-.897 2-2s-.897-2-2-2zm0 6c-2.206 0-4-1.795-4-4 0-2.206 1.794-4 4-4 2.207 0 4 1.794 4 4 0 2.205-1.793 4-4 4zM91.621 155.128l19.798 19.799 12.729-12.728-19.799-19.799-12.728 12.728zm19.798 22.627l-22.626-22.627 15.556-15.556 22.627 22.627-15.557 15.556z"/><path fill="#434A4F" d="M120.538 180.002h-5.456l-3.662-3.661 1.414-1.414 3.076 3.075h3.796l9.394-9.438-4.952-4.951 1.414-1.414 6.362 6.363-11.386 11.44M124.12 179a1.005 1.005 0 0 1 2.009 0 1.005 1.005 0 0 1-2.009 0zm4 0c0-.55.45-1 1-1 .56 0 1 .45 1 1s-.44 1-1 1c-.55 0-1-.45-1-1zm4 0c0-.55.45-1 1-1 .549 0 1 .45 1 1s-.451 1-1 1c-.55 0-1-.45-1-1zm4 0c0-.55.45-1 1-1 .549 0 1 .45 1 1s-.451 1-1 1c-.55 0-1-.45-1-1zm4 0c0-.55.45-1 1-1 .56 0 1 .45 1 1s-.44 1-1 1c-.55 0-1-.45-1-1zm4 0c0-.55.45-1 1-1 .549 0 1 .45 1 1s-.451 1-1 1c-.55 0-1-.45-1-1zm4 0c0-.55.45-1 1-1 .549 0 1 .45 1 1s-.451 1-1 1c-.55 0-1-.45-1-1zm4 0c0-.55.45-1 1-1 .56 0 1 .45 1 1s-.44 1-1 1c-.55 0-1-.45-1-1z"/><path fill="#75C7D0" d="M94.449 155.128l16.971 16.971 9.9-9.9-16.971-16.97-9.9 9.899"/><path fill="#DBDBD5" d="M92.946 83.867l-14.295-6.126 4.289 4.289-2.828 2.828-8.111-8.11-2.753 5.536 7.926 19.193 4.833-9.72 8.111 8.11 2.828-2.828-8.232-8.232 8.232-4.94"/><path fill="#434A4F" d="M56.8 58.744l10.452 25.309 4.472-8.996 8.388 8.387 1.414-1.414-8.431-8.431 7.653-4.592L56.8 58.744zm10.284 30.14L53.08 54.973 85.131 68.71l-8.811 5.287 8.034 8.033-4.242 4.242-7.835-7.834-5.193 10.446zM49.262 114.488h2v-4h-2zM49.262 124.488h2v-4h-2zM53.262 118.488h4v-2h-4zM43.262 118.488h4v-2h-4zM199.352 134.5h2v-4h-2zM199.352 144.5h2v-4h-2zM203.352 138.5h4v-2h-4zM193.352 138.5h4v-2h-4zM146.32 52.451h2v-4h-2zM146.32 62.451h2v-4h-2zM150.32 56.451h4v-2h-4zM140.32 56.451h4v-2h-4z"/><path fill="#FACD60" d="M61.428 149.643a3 3 0 1 1-6 0 3 3 0 0 1 6 0m70.042-40.024a3 3 0 1 1-6 0 3 3 0 0 1 6 0m60.036 10.006a3 3 0 1 1-6 0 3 3 0 0 1 6 0"/></g></svg>