<?xml version="1.0" encoding="utf-8"?><svg xmlns="http://www.w3.org/2000/svg" width="250" height="250" viewBox="0 0 250 250"><g fill="none" fill-rule="evenodd"><path fill="#DFE0E0" d="M130.083 190.499c-41.631 0-75.5-33.869-75.5-75.5s33.869-75.5 75.5-75.5v11c-35.565 0-64.5 28.935-64.5 64.5s28.935 64.5 64.5 64.5 64.5-28.935 64.5-64.5c0-10.503-2.579-20.925-7.458-30.139l9.721-5.148c5.716 10.795 8.737 22.997 8.737 35.287 0 41.631-33.869 75.5-75.5 75.5"/><path fill="#5FE0ED" d="M130.084 72.155c-23.435 0-42.5 19.066-42.5 42.5 0 23.435 19.065 42.5 42.5 42.5s42.5-19.065 42.5-42.5c0-23.434-19.065-42.5-42.5-42.5zm0 100c-31.706 0-57.5-25.794-57.5-57.5s25.794-57.5 57.5-57.5 57.5 25.794 57.5 57.5-25.794 57.5-57.5 57.5z"/><path fill="#DEDEDD" d="M134.084 124.196l-1.906-5.17a4.945 4.945 0 0 1-2.094.474 4.978 4.978 0 0 1-3.564-1.5h-.436v7l-.411 10h8.837l-.426-10v-.804"/><path fill="#48515A" d="M130.084 110.5c-2.206 0-4 1.794-4 4s1.794 4 4 4 4-1.794 4-4-1.794-4-4-4zm0 10c-3.309 0-6-2.691-6-6s2.691-6 6-6 6 2.691 6 6-2.691 6-6 6z"/><path fill="#48515A" d="M131.084 109.012l-2-.024.083-6.917 2 .025-.083 6.916M139.084 221h-2v-2l-3.999-93.958 1.998-.084 4 94 .001 2.042M123.223 221h-2v-2l3.862-94.041-.001-6.959h2v7l-3.862 94.041.001 1.959"/><path fill="#48515A" d="M131.202 108.395l2.459 1.291 8.879-13.557-7.45-49.601-.002-.999-4.002.007.116 62.859zm3.137 3.906l-5.135-2.696-.122-66.065 8-.014.008 2.923 7.542 50.137-10.293 15.715zM68.707 150.365l-3.988-6.936 2.534-1.458 39.773-31.469 17.985 1.576-.174 1.992-17.193-1.506-39.33 31.103-.865.499 1.994 3.469 56.036-32.211.996 1.735-57.768 33.206M187.572 156.062l-2.535-1.463-47.229-18.674-6.926-16.029 1.836-.792 6.597 15.267 46.659 18.459.866.501 2-3.465-55.256-31.893 1-1.733 56.988 32.894-4 6.928"/><path fill="#48515A" d="M183.75 145.64l-1.732-1.001c5.278-9.131 8.066-19.499 8.063-29.983l2-.001c.003 10.835-2.878 21.55-8.331 30.985m.119-57.567a62.639 62.639 0 0 0-.902-1.749l1.762-.945c.319.595.629 1.197.931 1.806l-1.791.888zm1.629 3.58a64.734 64.734 0 0 0-.786-1.806l1.822-.825c.279.615.549 1.236.81 1.863l-1.846.768zm1.391 3.682a65.595 65.595 0 0 0-.665-1.854l1.871-.705c.238.633.468 1.27.686 1.913l-1.892.646zm1.143 3.763a58.744 58.744 0 0 0-.542-1.892l1.914-.582c.197.646.383 1.298.56 1.955l-1.932.519zm.895 3.832l-.164-.795c-.08-.377-.165-.754-.252-1.129l1.947-.454c.091.387.178.777.261 1.168l.169.817-1.961.393zm.641 3.88a63.049 63.049 0 0 0-.288-1.947l1.973-.324c.11.671.21 1.34.298 2.009l-1.983.262zm.384 3.913a59.232 59.232 0 0 0-.16-1.96l1.99-.196c.067.677.122 1.352.166 2.027l-1.996.129zm2.129 3.932h-2c0-.654-.011-1.31-.031-1.967l1.998-.064c.022.678.033 1.355.033 2.031zm-91.206 54.654a62.67 62.67 0 0 1-1.775-.988l1-1.732c.568.328 1.141.647 1.72.957l-.945 1.763zm3.643 1.8c-.617-.28-1.229-.57-1.836-.871l.886-1.793a61.42 61.42 0 0 0 1.778.844l-.828 1.82zm3.753 1.559a64.992 64.992 0 0 1-1.889-.748l.767-1.848c.605.252 1.215.493 1.83.725l-.708 1.871zm3.848 1.311a64.927 64.927 0 0 1-1.933-.624l.644-1.894c.621.212 1.245.413 1.873.604l-.584 1.914zm3.927 1.054a59.805 59.805 0 0 1-1.972-.495l.52-1.932c.632.17 1.267.331 1.907.48l-.455 1.947zm3.984.796a60.645 60.645 0 0 1-2-.365l.393-1.961c.641.128 1.286.246 1.933.352l-.326 1.974z"/><path fill="#48515A" d="M99.1 168.321c-9.427-5.449-17.278-13.288-22.702-22.669l1.731-1.001c5.25 9.078 12.848 16.664 21.971 21.938l-1 1.732m-.699-104.608l-1.056-1.698a64.717 64.717 0 0 1 1.742-1.046l1.002 1.731c-.569.329-1.131.667-1.688 1.013zm-3.267 2.189l-1.166-1.624a62.76 62.76 0 0 1 1.67-1.159l1.113 1.662c-.546.365-1.085.739-1.617 1.121zm-3.117 2.4l-1.272-1.545c.524-.43 1.054-.853 1.592-1.266l1.219 1.585c-.521.401-1.034.809-1.539 1.226zM89.064 70.9l-1.369-1.457c.493-.464.994-.92 1.503-1.368l1.322 1.501c-.493.434-.978.876-1.456 1.324zm-2.778 2.787l-1.461-1.366c.462-.494.933-.982 1.41-1.462l1.418 1.411c-.464.465-.919.937-1.367 1.417zm-2.587 2.961l-1.549-1.266c.429-.524.867-1.042 1.313-1.552l1.506 1.315a62.62 62.62 0 0 0-1.27 1.503zm-2.391 3.124l-1.627-1.163c.393-.551.797-1.096 1.209-1.634l1.588 1.215a58.13 58.13 0 0 0-1.17 1.582zm-2.183 3.273l-1.699-1.053c.357-.577.723-1.147 1.099-1.711l1.664 1.111a59.557 59.557 0 0 0-1.064 1.653z"/><path fill="#48515A" d="M100.089 62.7l-1.002-1.731a61.786 61.786 0 0 1 18.06-6.949 62.176 62.176 0 0 1 12.937-1.362v2a60.211 60.211 0 0 0-12.519 1.318 59.75 59.75 0 0 0-17.476 6.724M185.077 193.006h2v-4h-2zM185.077 203.006h2v-4h-2zM189.077 197.006h4v-2h-4zM179.077 197.006h4v-2h-4zM179.604 33h2v-4h-2zM179.604 43h2v-4h-2zM183.604 37h4v-2h-4zM173.604 37h4v-2h-4zM50.417 116.5h2v-4h-2zM50.417 126.5h2v-4h-2zM54.417 120.5h4v-2h-4zM44.417 120.5h4v-2h-4z"/><path fill="#5FE0ED" d="M153.586 184.5a1.5 1.5 0 1 1-3 0 1.5 1.5 0 0 1 3 0M61.417 93a1.5 1.5 0 1 1-3 0 1.5 1.5 0 0 1 3 0m17.346 64.155a1.5 1.5 0 1 1-2.999.001 1.5 1.5 0 0 1 2.999-.001m66.323 43.851a1.5 1.5 0 1 1-3 0 1.5 1.5 0 0 1 3 0m28.998-137.671a1.5 1.5 0 1 1-3.001-.001 1.5 1.5 0 0 1 3.001.001m21.993 81.804a1.5 1.5 0 1 1-2.999.001 1.5 1.5 0 0 1 2.999-.001"/></g></svg>