<?xml version="1.0" encoding="utf-8"?><svg xmlns="http://www.w3.org/2000/svg" width="250" height="250" viewBox="0 0 250 250"><g fill="none" fill-rule="evenodd"><path fill="#5FE0ED" d="M211.442 152.84l-35.357-14.505-.171.563c-2.936 8.698-11.162 14.96-20.85 14.96-9.828 0-18.15-6.443-20.973-15.337l-.02-.07-35.554 14.329c-5.1 1.945-8.458 3.615-8.458 8.976l-.106 49.883h130.083l.014-49.763c0-5.418-3.43-7.131-8.608-9.036"/><path fill="#DFE0E0" d="M170.064 136.114l.013-7.37v-6.742c0-.066 0-.156.002-.257-2.026 1.977-4.608 4.064-6.438 5.627-1.708 1.458-3.893 2.492-6.139 2.492h-6.488a8.612 8.612 0 0 1-5.67-2.106c-1.415-1.237-3.418-2.826-5.267-4.456v2.826l25.048 25.048c3.33-1.793 6.262-4.524 8.367-8.208l2.488-4.354-5.916-2.5"/><path fill="#48515A" d="M90.953 211.641l-2-.004.106-49.883c0-5.974 3.772-7.875 9.101-9.909l40.917-16.489v-11.491h2v12.841l-42.186 17.002c-5.33 2.032-7.832 3.487-7.832 8.048l-.106 49.885"/><path fill="#48515A" d="M221.036 211.639l-2-.001.014-49.762c0-4.453-2.345-6.034-7.953-8.098l-42.034-17.243.014-14.866.179-.257c.407-.588.896-1.163 1.37-1.719.678-.798 1.379-1.622 1.615-2.249l6.033-12.655 6.903-3.511 1.576-7.935a2.655 2.655 0 0 0-.752-1.8c-.425-.437-.958-.678-1.501-.678h-2.573l.253-1.459c.502-2.881.897-5.156.897-7.621l-.06-1.356c.024-3.82-.853-7.757-2.538-11.386a26.561 26.561 0 0 0-.47-1 28.708 28.708 0 0 0-7.902-9.73c-5.001-3.943-11.015-6.05-17.394-6.093-7.396-.053-14.483 2.887-19.904 8.272-5.549 5.512-8.732 13.098-8.732 20.814v.479c0 2.349.202 4.646.697 7.931l.173 1.149h-2.375c-1.2 0-2.297 1.171-2.363 2.491l2.242 8.078 6.009 3.494 5.938 12.611c.832 2.221 4.554 5.28 7.272 7.512.671.551 1.309 1.076 1.876 1.561 1.701 1.452 3.642 2.253 5.465 2.253h6.066v2h-6.066c-2.298 0-4.7-.971-6.764-2.733-.559-.477-1.186-.993-1.847-1.536-3.213-2.64-6.856-5.632-7.843-8.282l-5.641-11.97-6.175-3.591-2.534-9.272c0-2.503 1.999-4.616 4.365-4.616h.057c-.389-2.799-.552-4.912-.552-7.08v-.479c0-8.245 3.398-16.349 9.322-22.232 5.802-5.764 13.37-8.889 21.328-8.854 6.828.046 13.266 2.302 18.619 6.523a30.713 30.713 0 0 1 8.954 11.469c1.782 3.842 2.722 8.024 2.718 12.094l.059.356v1.123c0 2.362-.345 4.588-.773 7.08h.196c1.088 0 2.13.456 2.936 1.284a4.625 4.625 0 0 1 1.316 3.327l-.02.167-1.784 8.977-7.162 3.644-5.707 11.962c-.325.875-1.104 1.792-1.93 2.763-.371.435-.752.883-1.072 1.314l-.013 12.891 40.758 16.72c5.213 1.918 9.228 3.879 9.228 9.963l-.014 49.762m-104.15-40.846c-1.103 0-2 .897-2 2s.897 2 2 2 2-.897 2-2-.897-2-2-2zm0 6c-2.206 0-4-1.794-4-4 0-2.205 1.794-4 4-4 2.205 0 4 1.795 4 4 0 2.206-1.795 4-4 4zM38.059 88.876h2v-4h-2zM38.059 98.876h2v-4h-2zM42.059 92.876h4v-2h-4zM32.059 92.876h4v-2h-4z"/><path fill="#48515A" d="M155.064 154.859c-10.07 0-18.881-6.444-21.926-16.035a1 1 0 1 1 1.906-.605c2.78 8.756 10.825 14.64 20.02 14.64a20.99 20.99 0 0 0 19.903-14.281 1 1 0 0 1 1.894.64 22.988 22.988 0 0 1-21.797 15.641"/><path fill="#F58E70" d="M201.061 133.864h6v-22h-6z"/><path fill="#F58E70" d="M193.062 125.865h21.999v-6h-21.999z"/><path fill="#48515A" d="M189.062 137.865h30v-30h-30v30zm-2 2h34v-34h-34v34z"/><path fill="#475059" d="M98.977 67.906h11.99V39.801h-11.99v28.105zm-2 2h15.99V37.801h-15.99v32.105z"/><path fill="#475059" d="M97.977 69.906h-8.995V45.797h8.995v2h-6.995v20.109h6.995v2M120.963 69.906h-8.996v-2h6.996V47.797h-6.996v-2h8.996v24.109"/><path fill="#475059" d="M92.979 51.797h2v-2h-2v2zm0 4h2v-2h-2v2zm0 4h2v-2h-2v2zm0 4h2v-2h-2v2zm21.984-12h2v-2h-2v2zm0 4h2v-2h-2v2zm0 4h2v-2h-2v2zm0 4h2v-2h-2v2zM101.096 59.989h7.933v-2h-7.933zM109.035 68.906h-2v-5h-4v5h-2v-7h8v7M104.035 50.907h2v-8h-2z"/><path fill="#475059" d="M101.035 47.907h8v-2h-8z"/><path fill="#48515A" d="M208.161 68.865h2v-4h-2zM208.161 78.865h2v-4h-2zM212.161 72.865h4v-2h-4zM202.161 72.865h4v-2h-4z"/><path fill="#F58E70" d="M110.047 132.866a1.666 1.666 0 1 1-3.332 0 1.666 1.666 0 0 1 3.332 0M59.675 69.289a1.834 1.834 0 1 1-3.667 0 1.834 1.834 0 0 1 3.667 0m150.432 23.553a1.666 1.666 0 1 1-3.332 0 1.666 1.666 0 0 1 3.332 0"/><path fill="#48515A" d="M198.06 62.865c-1.103 0-2 .897-2 2 0 1.102.897 2 2 2 1.102 0 2-.898 2-2 0-1.103-.898-2-2-2zm0 6c-2.206 0-4-1.795-4-4 0-2.206 1.794-4 4-4s4 1.794 4 4c0 2.205-1.794 4-4 4zm-142.001-18c-1.103 0-2 .897-2 2 0 1.102.897 2 2 2s2-.898 2-2c0-1.103-.897-2-2-2zm0 6c-2.205 0-4-1.795-4-4a4.006 4.006 0 0 1 4-4.001c2.206 0 4 1.795 4 4.001 0 2.205-1.794 4-4 4z"/><path fill="#FFD15D" d="M73.773 73.935c-15.031.276-26.918 13.051-26.918 28.27v37.061h18.122l-.049-4.834c-1.661-1.717-3.473-3.864-4.998-6.358-3.759-6.144-5.238-14.143-5.238-21.925v-.604h16.815l-.178-8.109c5.493 5.21 12.737 8.109 20.264 8.109h2.997v.604c0 7.814-1.813 15.745-5.613 21.881-2.512 4.054-5.986 7.251-8.149 9.113l3.089 2.123h17.798v-37.508c0-15.541-12.523-28.107-27.942-27.823"/><path fill="#EAEAE9" d="M52.805 162.345h9.261l-2.938-4.327h-1.514l-4.809 4.327M64.917 148.64l-5.702 9.376 13.539 19.471h1.437l-9.274-28.847M83.903 145.523v-10.386l-3.857 2.412a6.527 6.527 0 0 1-3.466.997h-4.299a6.547 6.547 0 0 1-4.207-1.535l-3.148-2.641.002 4.087 18.975 7.066"/><path fill="#48515A" d="M76.367 139.72h-4.415c-1.803 0-3.389-.581-4.717-1.729-2.334-2.018-5.645-5.287-8.158-9.395-4.45-7.274-5.385-16.222-5.385-22.447v-.604h2v.604c0 5.968.884 14.527 5.091 21.403 2.379 3.889 5.533 7.001 7.761 8.927.953.823 2.099 1.241 3.408 1.241h4.415c1.494 0 2.713-.394 3.62-1.17 1.335-1.143 5.398-4.62 8.14-9.046 3.522-5.688 5.463-13.272 5.463-21.355v-.604h2v.604c0 8.45-2.047 16.408-5.763 22.408-2.906 4.69-7.146 8.32-8.539 9.512-1.281 1.096-2.936 1.651-4.921 1.651"/><path fill="#48515A" d="M63.916 142.061h2v-7.663h-2zM82.44 142.512h2v-7.573h-2zM100.332 152.642l-10.81-3.777.661-1.888 10.809 3.778-.66 1.887M30.912 192.338l-1.974-.322 3.94-24.182c.958-7.233 5.748-13.386 12.497-16.031l12.776-4.818.706 1.871-12.764 4.814c-6.059 2.374-10.37 7.915-11.237 14.456l-3.944 24.212"/><path fill="#48515A" d="M57.373 157.016h2.365l12.666 18.217-8.487-26.436v-4.932l-4.565 4.62-4.69 11.274 2.711-2.743zm18.176 21.471h-3.318l-13.538-19.471h-.485l-3.561 3.602h-3.341l6.35-15.261 8.261-8.363v9.489l9.632 30.004z"/><path fill="#48515A" d="M76.139 178.487H72.82l9.633-30.004v-9.492l8.234 8.353 3.384 7.353-1.818.836-3.235-7.035-4.565-4.63-.048 5.078-8.44 26.287 12.667-18.217h1.947v2h-.902l-13.538 19.471"/><path fill="#475059" d="M52.132 197.198h-.228v-2h.228a4.535 4.535 0 0 0 4.53-4.53v-14.689c0-5.163-4.2-9.363-9.363-9.363-5.162 0-9.363 4.2-9.363 9.363v14.689a4.536 4.536 0 0 0 4.53 4.53h.1v2h-.1a6.537 6.537 0 0 1-6.529-6.53v-14.689c0-6.266 5.097-11.363 11.362-11.363 6.266 0 11.363 5.097 11.363 11.363v14.689c0 3.601-2.93 6.53-6.53 6.53"/><path fill="#475059" d="M46.451 165.635l-.012-16.664a5.839 5.839 0 0 1 1.606-4.061 5.418 5.418 0 0 1 3.941-1.709l9.801-.003.001 2-9.801.003a3.434 3.434 0 0 0-2.495 1.089 3.845 3.845 0 0 0-1.053 2.679l.012 16.666h-2"/><path fill="#48515A" d="M75.151 198.894l-18.399-40.28a1 1 0 0 1 1.82-.831l16.62 36.387 13.568-28.403a.999.999 0 1 1 1.804.863l-15.413 32.264"/><path fill="#48515A" d="M74.171 212.198h2v-15.666h-2z"/></g></svg>