<?xml version="1.0" encoding="utf-8"?><svg xmlns="http://www.w3.org/2000/svg" width="250" height="250" viewBox="0 0 250 250"><g fill="none" fill-rule="evenodd"><path fill="#475059" d="M39 64.96c-1.655 0-3 1.346-3 3v68.922c0 1.655 1.345 3 3 3h116c1.654 0 3-1.345 3-3V67.96c0-1.654-1.346-3-3-3H39zm116 76.922H39a5.007 5.007 0 0 1-5.001-5V67.96c0-2.756 2.244-5 5.001-5h116c2.756 0 5 2.244 5 5v68.922c0 2.757-2.244 5-5 5z"/><path fill="#475059" d="M81.001 161.883h31.998v-20.001H81.001v20.001zm-2 2h35.998v-24.001H79.001v24.001z"/><path fill="#475059" d="M74.001 163.882h45.996v-2H74.001z"/><path fill="#DEDEDD" d="M83.219 159.883h27.558l.347-16.001H82.849l.37 16.001M131.963 184.04h6v-6h-6v6zm-4 8h10v-6h-10v6zm4 8h6v-6h-6v6zm0 8h6v-6h-6v6zm-8-8h6v-6h-6v6zm0 8h6v-6h-6v6zm-8-8h6v-6h-6v6zm0 8h6v-6h-6v6zm-8-8h6v-6h-6v6zm-36 8h42v-6h-42v6zm-8 0h6v-6h-6v6zm-8 0h6v-6h-6v6zm-8 0h6v-6h-6v6zm-8 0h6v-6h-6v6zm0-8h10v-6h-10v6zm0-8h6v-6h-6v6zm0-8h10v-6h-10v6zm12 0h6v-6h-6v6zm8 0h6v-6h-6v6zm8 0h6v-6h-6v6zm8 0h6v-6h-6v6zm8 0h6v-6h-6v6zm8 0h6v-6h-6v6zm8 0h6v-6h-6v6zm4 8h6v-6h-6v6zm-4 8h6v-6h-6v6zm-4-8h6v-6h-6v6zm-4 8h6v-6h-6v6zm-4-8h6v-6h-6v6zm-4 8h6v-6h-6v6zm-4-8h6v-6h-6v6zm-4 8h6v-6h-6v6zm-4-8h6v-6h-6v6zm-4 8h6v-6h-6v6zm-4-8h6v-6h-6v6zm-4 8h6v-6h-6v6zm-4-8h6v-6h-6v6zm-8 0h6v-6h-6v6zm4 8h6v-6h-6v6zm56-16h6v-6h-6v6zm4 8h6v-6h-6v6zm4-8h6v-6h-6v6zm4 8h6v-6h-6v6zm4-8h6v-6h-6v6zm15.001-9H38.963a2 2 0 0 0-1.999 2v32a2 2 0 0 0 1.999 2h100.001a2 2 0 0 0 2-2v-32a2 2 0 0 0-2-2z"/><path fill="#48515A" d="M38.963 176.04c-.551 0-1 .448-1 1v32c0 .551.449 1 1 1h100c.552 0 1-.449 1-1v-32a1 1 0 0 0-1-1h-100zm100 36h-100c-1.654 0-3-1.346-3-3v-32c0-1.655 1.346-3 3-3h100c1.655 0 3 1.345 3 3v32c0 1.654-1.345 3-3 3zM156 179.907c-1.654 0-3 1.345-3 3v22c0 1.654 1.346 3 3 3h11.999c1.654 0 3-1.346 3-3v-22c0-1.655-1.346-3-3-3H156zm11.999 30H156c-2.757 0-5-2.243-5-5v-22c0-2.757 2.243-5 5-5h11.999c2.757 0 5 2.243 5 5v22c0 2.757-2.243 5-5 5z"/><path fill="#DEDEDD" d="M167.999 181.906H163v7h-2v-7h-5c-.552 0-1 .449-1 1v22a1 1 0 0 0 1 1h11.999a1 1 0 0 0 1-1v-22c0-.551-.448-1-1-1"/><path fill="#475059" d="M39 64.96c-1.655 0-3 1.346-3 3v68.922c0 1.655 1.345 3 3 3h116c1.654 0 3-1.345 3-3V67.96c0-1.654-1.346-3-3-3H39zm116 76.922H39a5.007 5.007 0 0 1-5.001-5V67.96c0-2.756 2.244-5 5.001-5h116c2.756 0 5 2.244 5 5v68.922c0 2.757-2.244 5-5 5z"/><path fill="#475059" d="M81.001 161.883h31.998v-20.001H81.001v20.001zm-2 2h35.998v-24.001H79.001v24.001z"/><path fill="#475059" d="M74.001 163.882h45.996v-2H74.001z"/><path fill="#DEDEDD" d="M83.219 159.883h27.558l.347-16.001H82.849l.37 16.001"/><path fill="#48515A" d="M78.439 175.032h-2v-2.992c0-2.757 2.244-5 5-5h71.015c1.654 0 3-1.346 3-3v-2.08c0-2.756 2.243-5 5-5h9.545v2h-9.545c-1.655 0-3 1.346-3 3v2.08c0 2.756-2.244 5-5 5H81.439c-1.654 0-3 1.345-3 3v2.992"/><path fill="#DEDEDD" d="M131.963 184.04h6v-6h-6v6zm-4 8h10v-6h-10v6zm4 8h6v-6h-6v6zm0 8h6v-6h-6v6zm-8-8h6v-6h-6v6zm0 8h6v-6h-6v6zm-8-8h6v-6h-6v6zm0 8h6v-6h-6v6zm-8-8h6v-6h-6v6zm-36 8h42v-6h-42v6zm-8 0h6v-6h-6v6zm-8 0h6v-6h-6v6zm-8 0h6v-6h-6v6zm-8 0h6v-6h-6v6zm0-8h10v-6h-10v6zm0-8h6v-6h-6v6zm0-8h10v-6h-10v6zm12 0h6v-6h-6v6zm8 0h6v-6h-6v6zm8 0h6v-6h-6v6zm8 0h6v-6h-6v6zm8 0h6v-6h-6v6zm8 0h6v-6h-6v6zm8 0h6v-6h-6v6zm4 8h6v-6h-6v6zm-4 8h6v-6h-6v6zm-4-8h6v-6h-6v6zm-4 8h6v-6h-6v6zm-4-8h6v-6h-6v6zm-4 8h6v-6h-6v6zm-4-8h6v-6h-6v6zm-4 8h6v-6h-6v6zm-4-8h6v-6h-6v6zm-4 8h6v-6h-6v6zm-4-8h6v-6h-6v6zm-4 8h6v-6h-6v6zm-4-8h6v-6h-6v6zm-8 0h6v-6h-6v6zm4 8h6v-6h-6v6zm56-16h6v-6h-6v6zm4 8h6v-6h-6v6zm4-8h6v-6h-6v6zm4 8h6v-6h-6v6zm4-8h6v-6h-6v6zm15.001-9H38.963a2 2 0 0 0-1.999 2v32a2 2 0 0 0 1.999 2h100.001a2 2 0 0 0 2-2v-32a2 2 0 0 0-2-2z"/><path fill="#48515A" d="M38.963 176.04c-.551 0-1 .448-1 1v32c0 .551.449 1 1 1h100c.552 0 1-.449 1-1v-32a1 1 0 0 0-1-1h-100zm100 36h-100c-1.654 0-3-1.346-3-3v-32c0-1.655 1.346-3 3-3h100c1.655 0 3 1.345 3 3v32c0 1.654-1.345 3-3 3zM156 179.907c-1.654 0-3 1.345-3 3v22c0 1.654 1.346 3 3 3h11.999c1.654 0 3-1.346 3-3v-22c0-1.655-1.346-3-3-3H156zm11.999 30H156c-2.757 0-5-2.243-5-5v-22c0-2.757 2.243-5 5-5h11.999c2.757 0 5 2.243 5 5v22c0 2.757-2.243 5-5 5z"/><path fill="#DEDEDD" d="M167.999 181.906H163v7h-2v-7h-5c-.552 0-1 .449-1 1v22a1 1 0 0 0 1 1h11.999a1 1 0 0 0 1-1v-22c0-.551-.448-1-1-1m8-101.944h34v-8h-34v8zm0 12.007h34v-8h-34v8zm0 12.007h34v-8h-34v8zm14.999 9.984a2 2 0 1 1 4.001.001 2 2 0 0 1-4.001-.001zm-14.999 17.985h34v-8h-34v8zm0 12.007h34v-8h-34v8zm0 12.007h34v-8h-34v8zm35.999-88.999H174c-.551 0-1 .449-1 1v92c0 .552.449 1 1 1h37.998c.551 0 1-.448 1-1v-92c0-.551-.449-1-1-1z"/><path fill="#475059" d="M204.999 164.96h6v-2h3.999v-95c0-1.654-1.346-3-3-3H174c-1.654 0-3 1.346-3 3v95h3.999v2h6v-2h24v2zm8 2h-10v-2h-20v2h-10v-2H169v-97c0-2.756 2.243-5 5-5h37.998c2.756 0 5 2.244 5 5v97h-3.999v2z"/><path fill="#DEDEDD" d="M177.998 77.962H208v-4.001h-30.002zM177.998 89.969H208v-4.001h-30.002zM177.998 101.976H208v-4.001h-30.002zM177.998 153.96H208v-4.001h-30.002zM177.998 141.953H208v-4.002h-30.002zM177.998 129.945H208v-4.001h-30.002z"/><path fill="#48515A" d="M147.999 158.96h-34v-2h34c1.654 0 3-1.345 3-3 0-2.756 2.243-5 5-5h14v2h-14c-1.654 0-3 1.346-3 3 0 2.757-2.243 5-5 5"/><path fill="#5FE0ED" d="M39 135.96h116v-68H39z"/><path fill="#48515A" d="M213 181.96h2v-4h-2zM213 191.96h2v-4h-2zM217 185.96h4v-2h-4zM207 185.96h4v-2h-4zM34.999 49.96h2v-4h-2zM34.999 59.96h2v-4h-2zM39 53.96h4v-2h-4zM28.999 53.96h4v-2h-4zM197 41.96h2v-4h-2zM197 51.96h2v-4h-2zM201 45.96h4v-2h-4zM191 45.96h4v-2h-4z"/><path fill="#5FE0ED" d="M101 53.523a2.438 2.438 0 1 1-4.875-.001 2.438 2.438 0 0 1 4.875.001"/><path fill="#FFD15D" d="M53.875 151.523a2.438 2.438 0 1 1-4.875-.001 2.438 2.438 0 0 1 4.875.001"/><path fill="#FFD15D" d="M51.437 149.585a1.94 1.94 0 0 0-1.937 1.938 1.94 1.94 0 0 0 1.937 1.937 1.94 1.94 0 0 0 1.937-1.937 1.94 1.94 0 0 0-1.937-1.938zm0 4.875a2.94 2.94 0 0 1-2.938-2.937 2.941 2.941 0 0 1 2.938-2.938 2.941 2.941 0 0 1 2.938 2.938 2.94 2.94 0 0 1-2.938 2.937z"/><path fill="#5FE0ED" d="M147 148.96a1 1 0 1 1-2 0 1 1 0 0 1 2 0"/><path fill="#DEDEDD" d="M137 145.96a2 2 0 1 1-4 0 2 2 0 0 1 4 0m-58.001-88a2 2 0 1 1-3.999.001A2 2 0 0 1 79 57.96M199 175.96a2 2 0 1 1-4 0 2 2 0 0 1 4 0m-20 3a1 1 0 1 1-2 0 1 1 0 0 1 2 0"/><path fill="#48515A" d="M64 164.96a2.003 2.003 0 0 0-2.001 2c0 1.103.897 2 2.001 2a2.002 2.002 0 0 0 1.999-2c0-1.102-.897-2-1.999-2zm0 6c-2.206 0-4-1.793-4-4 0-2.206 1.794-4 4-4a4.004 4.004 0 0 1 3.999 4c0 2.207-1.794 4-3.999 4zM198 198.451h-2v-7.002h-1v-2h3v9.002"/><path fill="#48515A" d="M195 199.451h4v-2h-4zM40.999 152.959c-.551 0-1 .449-1 1v4.001a1.001 1.001 0 0 0 2.001 0v-4.001c0-.551-.449-1-1.001-1zm0 8.001c-1.654 0-3-1.345-3-3v-4.001c0-1.654 1.346-3 3-3 1.655 0 3 1.346 3 3v4.001c0 1.655-1.345 3-3 3zm142.001 26c-.552 0-1 .449-1 1v4.001a1 1 0 0 0 2 0v-4.001c0-.551-.449-1-1-1zm0 8.001c-1.655 0-3-1.345-3-3v-4.001c0-1.654 1.345-3 3-3 1.654 0 3 1.346 3 3v4.001c0 1.655-1.346 3-3 3z"/></g></svg>