<?xml version="1.0" encoding="utf-8"?><svg xmlns="http://www.w3.org/2000/svg" width="250" height="250" viewBox="0 0 250 250"><g fill="none" fill-rule="evenodd"><path fill="#48515A" d="M213.097 101.896h2v-4h-2zM213.097 111.896h2v-4h-2zM217.097 105.896h4v-2h-4zM207.097 105.896h4v-2h-4z"/><path fill="#DEDEDD" d="M180.55 158.835l.907-.427 7.064-5a10.904 10.904 0 0 0-.534-.417c-1.934-1.412-4.454-2.087-7.055-1.921l-.382 7.765m.382-7.765l-.382 7.765m-17.007.071c-13.153 6.44-29.647 14.612-30.49 14.849-.22.061 15.75.027 15.75.027l15.302-7.205-.562-7.671"/><path fill="#FFD15D" d="M180.898 99.128l-.137-13.146 3.019-.031.826 15.23.945 5.857h4.548l-3.539-21.117h.007l-1.383-7.708a5.272 5.272 0 0 0-5.042-3.762l-2.147.001-6.057 15.896-6.104-15.897h-1.505a5.26 5.26 0 0 0-5.057 3.813l-4.821 28.774h4.548l.945-5.857.826-15.22 2.491.052-.304 13.117 17.941-.002"/><path fill="#5FE0ED" d="M91.018 159.015v-36.77h-6v38.439l-7.091 6.711-.04-43.786h1.517l3.175-5.404v-1.279h11.258v1.181l2.795 5.502h2.114v35.406h-7.728"/><path fill="#DFE0E0" d="M120.715 136.575H141.7v-4.624h-20.985zM181.42 143.579h-18.984l-1.001-11.628h20.985l-1 11.628M168.285 67.601l1.722 1.227h4.296l1.625-1.721v4.344l-4 9.75-4-10.458.357-3.142M126.673 103.195h7.982v-4.028h-7.982zM82.878 63.71v2.241h9.795l.044-3.339v-2.191c.186-.185.377-.381.548-.581a2.7 2.7 0 0 0-.162.154c-.684.735-1.721 1.507-2.423 2.106a3.109 3.109 0 0 1-1.987.745h-2.111a3.109 3.109 0 0 1-1.987-.745c-.67-.572-1.645-1.301-2.327-2.005-.02-.021-.044-.042-.067-.064.205.218.439.439.689.658-.006.003-.012.006-.012.012v3.009"/><path fill="#48515A" d="M108.705 119.972h-6.959a1 1 0 1 1 0-2h6.131l1.051-1.051V73.788l-17.243-8.145v-5.647l.296-.294c.475-.469.752-.802.823-.991l2.138-4.37 2.152-1.076.419-2.081-.493-.056h-1.189l.203-1.171c.171-.986.258-1.865.258-2.611v-.365a8.126 8.126 0 0 0-.741-3.493 8.631 8.631 0 0 0-2.529-3.242 8.481 8.481 0 0 0-5.242-1.836h-.056c-2.209 0-4.316.884-5.937 2.494-1.677 1.666-2.639 3.957-2.639 6.286v.156c0 .765.076 1.651.223 2.633l.172 1.149h-1.556a.096.096 0 0 0-.071.033l.604 2.115 1.901 1.098 2.021 4.273c.222.586 1.408 1.55 2.116 2.126.246.201.48.391.686.567.375.32.855.5 1.349.505h2.105a1 1 0 1 1 0 2h-2.116a4.133 4.133 0 0 1-2.636-.984c-.196-.167-.418-.347-.65-.537-1.085-.882-2.316-1.883-2.694-2.899l-1.722-3.631-2.061-1.19-.925-3.382c0-.9.569-1.668 1.367-1.964a18.018 18.018 0 0 1-.113-1.912v-.156c0-2.858 1.177-5.667 3.23-7.705 2.016-2.003 4.604-3.088 7.416-3.075 2.371.016 4.607.799 6.467 2.266a10.643 10.643 0 0 1 3.108 3.979c.612 1.32.933 2.795.923 4.259v.432c0 .576-.043 1.213-.129 1.9.292.104.56.275.783.506.391.402.596.933.58 1.492l-.019.168-.646 3.204-2.421 1.211-1.802 3.676c-.156.425-.532.883-.953 1.322v3.55l17.243 8.145v45.229l-2.223 2.223"/><path fill="#48515A" d="M74.89 114.927h26.585v-2H74.89zM87.019 160.206h2v-37.961h-2z"/><path fill="#48515A" d="M73.927 170.793l-.055-56.642-1.89-4.003V82.972h2v26.727l1.89 4.003v.224l.055 56.865-2 .002M102.746 158.711h-2V113.73l1.636-4.003V82.972h2v27.148l-1.636 4.003v44.588"/><path fill="#48515A" d="M105.433 129.79h-3.687v-2h2.858l1.051-1.05v-7.768h2v8.596l-2.222 2.222M78.259 121.608h-3.641v-2h2.496l1.465-2.493v-3.469h2v4.014l-2.32 3.948M101.541 121.608h-3.682l-2.022-3.981v-4.031h2v3.552l1.249 2.46h2.455v2M74.109 119.972H67.15l-2.222-2.223V72.522l16.95-8.064v-3.757h2v5.021l-16.95 8.064v43.135l1.051 1.051h6.13v2"/><path fill="#48515A" d="M74.109 129.79h-3.686l-2.223-2.222v-8.596h2v7.768l1.051 1.05h2.858v2"/><path fill="#475059" d="M157.928 118.951h-6.001v-9h2v7h4.001v2M163.505 72.017a14.63 14.63 0 0 1-2.577-8.315v-7.751c0-6.065 4.934-11 11-11 6.065 0 11 4.935 11 11v8.706c0 2.31-.555 4.618-1.605 6.678l-.289.569-1.783-.906.29-.57a12.776 12.776 0 0 0 1.387-5.771v-8.706c0-4.963-4.037-9-9-9s-9 4.037-9 9v7.751c0 2.576.769 5.06 2.225 7.184l-1.648 1.131"/><path fill="#475059" d="M166.928 71.951h2V66.95h-2z"/><path fill="#475059" d="M176.928 71.951h-2v-5.254l.601-.607c.441-.439.941-.936 1.269-1.434.378-.576.717-1.285 1.006-2.107l.112-.32 1.012-.665v-1.07a3.006 3.006 0 0 1-2-2.829v-.714h-10v.714a3.006 3.006 0 0 1-2 2.829v1.07l1.011.665.113.32c.289.822.628 1.531 1.007 2.108.886 1.35 2.124 2.441 2.782 2.97.255.205.583.319.926.323h2.333v2h-2.344a3.52 3.52 0 0 1-2.169-.764c-.916-.738-2.215-1.931-3.2-3.431a11.356 11.356 0 0 1-1.105-2.221l-1.354-.889v-3.98h1c.551 0 1-.448 1-1v-2.714h14v2.714a1 1 0 0 0 1 1h1v3.98l-1.355.889a11.3 11.3 0 0 1-1.104 2.221c-.443.671-1.02 1.246-1.53 1.753l-.011.012v4.431M113.206 129.875l-3.333-1.059-4.653.953-.403-1.958 5.165-1.059 2.997.953 3.244-1.838 2.897-4.461 1.678 1.09-3.165 4.871-4.427 2.508"/><path fill="#475059" d="M107.396 124.24l-1.021-1.719 5.517-3.28 8.064-16.127 5.703-1.67.012-1.876-1.325-1.372a5.97 5.97 0 0 1-1.683-4.186l.019-5.143a7.886 7.886 0 0 1 2.348-5.61 7.897 7.897 0 0 1 5.596-2.306h.066a7.89 7.89 0 0 1 5.588 2.306 7.894 7.894 0 0 1 2.349 5.611l.017 5.141a5.964 5.964 0 0 1-1.682 4.187l-1.324 1.372.011 1.876 5.695 1.667 7.051 13.575 4.161-1.664.742 1.858-5.842 2.336-7.493-14.425-6.306-1.847-.023-4.178 1.888-1.958a3.977 3.977 0 0 0 1.122-2.791l-.017-5.141a5.906 5.906 0 0 0-1.758-4.199 5.9 5.9 0 0 0-4.186-1.726h-.05a5.916 5.916 0 0 0-4.197 1.725 5.913 5.913 0 0 0-1.756 4.199l-.019 5.142a3.988 3.988 0 0 0 1.122 2.791l1.89 1.958-.024 4.178-6.297 1.844-7.935 15.873-6.023 3.579"/><path fill="#475059" d="M119.912 158.743l-.874-26.869-.11-13.915 2-.016.109 13.891.873 26.845-1.998.064M141.677 158.491l-1.998-.094 1.25-26.493-.001-13.953h2v14l-1.251 26.54"/><path fill="#475059" d="M148.164 126.951h-4.014l-3.254-4.406 1.609-1.188 2.655 3.594h2.531l3.519-1.759 1.001-1.754 3.589-1.759.881 1.795-3.038 1.49-.997 1.746-4.482 2.241M161.928 132.951h20v-2h-20z"/><path fill="#475059" d="M170.928 165.999h2v-34.048h-2zM192.928 118.951h-5v-2h3v-7h2v9"/><path fill="#475059" d="M195.123 110.951h-9.195v-2h6.804l-5.606-31.237c-.839-3.064-3.719-5.263-6.983-5.263h-3.526l-4.685 12.299-4.724-12.299h-2.879a7.262 7.262 0 0 0-7.023 5.424l-5.199 31.076h5.821v2h-8.183l5.607-33.494c1.084-4.161 4.767-7.006 8.977-7.006h4.254l3.341 8.701 3.314-8.701h4.905a9.279 9.279 0 0 1 8.932 6.823l6.048 33.677"/><path fill="#475059" d="M163.058 169.931l-2.076-36.98h-7.73l5.678-31.1.331-15.92 2 .041-.35 16.159-5.261 28.82h7.223l2.181 38.868-1.996.112M181.284 161.809l-1.996-.11 1.693-30.748h8.229l-6.282-28.989-.167-16 2-.022.166 15.899 6.765 31.112h-8.818l-1.59 28.858"/><path fill="#48515A" d="M162.93 101.95c0-.551.45-1 1-1 .549 0 1 .449 1 1 0 .55-.451 1-1 1-.55 0-1-.45-1-1zm4 0c0-.551.44-1 1-1 .549 0 1 .449 1 1 0 .55-.451 1-1 1-.56 0-1-.45-1-1zm4 0c0-.551.45-1 1-1 .549 0 1 .449 1 1 0 .55-.451 1-1 1-.55 0-1-.45-1-1zm4 0c0-.551.44-1 1-1 .549 0 1 .449 1 1 0 .55-.451 1-1 1-.56 0-1-.45-1-1zm4 0c0-.551.45-1 1-1 .549 0 1 .449 1 1 0 .55-.451 1-1 1-.55 0-1-.45-1-1z"/><path fill="#475059" d="M120.037 132.842h21.891v-2h-21.891zM129.927 158.444h2v-21.869h-2zM129.929 100.951c-.078 0-.157-.009-.236-.027l-3.255-.784a1.001 1.001 0 0 1 .469-1.946l3.255.785a1 1 0 0 1-.233 1.972"/><path fill="#48515A" d="M34.903 70.878h2v-4h-2zM34.903 80.878h2v-4h-2zM38.903 74.878h4v-2h-4zM28.903 74.878h4v-2h-4z"/><path fill="#FFD15D" d="M188.418 168.396a2.397 2.397 0 1 1-4.793-.001 2.397 2.397 0 0 1 4.793.001"/><path fill="#DEDEDD" d="M57.928 208.764v.002c0 1.191-.798 1.989-1.989 1.989h-.002l-7.009.163v-14.174l7.058.007c.572 0 1.118.227 1.529.639.411.411.552.953.552 1.522l-.139 9.852"/><path fill="#475059" d="M81.986 207.755H60.928v-2h20.867l77.127-14.946 43.531-26.699c-5.76-5.159-12.765-6.108-18.955-2.499l-27.262 13.144h-46.774v-2h18.315c7.889 0 14.14-5.719 14.657-13.195l-48.632.195c-4.17 0-8.259 1.698-11.22 4.658l-20.833 20.814-1.414-1.415 20.833-20.813c3.334-3.333 7.937-5.244 12.63-5.244l50.67-.203v1.004c0 6.19-3.405 11.465-8.534 14.199h19.845l26.781-12.908c7.29-4.255 15.628-2.877 22.234 3.727l.896.897-46.032 28.232-.178.034-77.494 15.018"/><path fill="#475059" d="M141.613 167.412a1 1 0 0 1-.461-1.888l21.62-11.201a.999.999 0 1 1 .92 1.776l-21.62 11.201a.994.994 0 0 1-.459.112m41.382-5.665a.999.999 0 0 1-.564-1.826l9.139-6.241a12.344 12.344 0 0 0-2.404-2.304c-2.23-1.629-5.093-2.45-8.08-2.321a1.016 1.016 0 0 1-1.043-.955 1 1 0 0 1 .955-1.043c3.417-.159 6.751.807 9.348 2.704a14.245 14.245 0 0 1 3.47 3.609 1 1 0 0 1-.268 1.381l-9.99 6.822a1 1 0 0 1-.563.174M46.928 212.951l8.997.01h.005a4.145 4.145 0 0 0 2.94-1.222 4.124 4.124 0 0 0 1.231-2.935v-.001l.055-30.978a4.123 4.123 0 0 0-1.224-2.937 4.149 4.149 0 0 0-2.944-1.228l-9.06-.009v39.3zm9.002 2.01h-.007l-10.995-.012v-43.3l11.062.011a6.14 6.14 0 0 1 4.356 1.813 6.111 6.111 0 0 1 1.81 4.355l-.055 30.979a6.114 6.114 0 0 1-1.82 4.35 6.134 6.134 0 0 1-4.351 1.804z"/><path fill="#DEDEDD" d="M109.462 169.755h23.443c3.587-1 6.27-4 7.203-8h-4.792c-2.096 2-4.69 2-7.539 2h-12.315a6 6 0 0 0-6 6m81.854-8.07l-33.129 20.278-76.584 14.792H64.122l-.012 7h17.493l76.584-14.78 40.741-24.94c-2.419-1.571-5.013-2.35-7.612-2.35"/><path fill="#48515A" d="M41.879 134.902h2v-4h-2zM41.879 144.902h2v-4h-2zM45.879 138.902h4v-2h-4zM35.879 138.902h4v-2h-4z"/><path fill="#FFD15D" d="M197.651 65.245a1.862 1.862 0 1 1-3.725 0 1.862 1.862 0 0 1 3.725 0m-77.232 10.954a1.748 1.748 0 1 1-3.496.002 1.748 1.748 0 0 1 3.496-.002m-10.491-38.705a2.455 2.455 0 1 1-4.91-.001 2.455 2.455 0 0 1 4.91.001"/><path fill="#5FE0ED" d="M54.065 62.97a3.02 3.02 0 1 0 6.042 0 3.02 3.02 0 0 0-6.042 0m155.022 70.017a2.5 2.5 0 1 1-5 0 2.5 2.5 0 0 1 5 0m-58.738-89.804a3.234 3.234 0 1 1-6.469 0 3.234 3.234 0 0 1 6.469 0"/><path fill="#475059" d="M129.929 64.038h-2c0-2.206-1.794-4-4-4s-4 1.794-4 4h-2c0-3.309 2.691-6 6-6 3.308 0 6 2.691 6 6"/><path fill="#475059" d="M139.929 64.038h-2c0-2.206-1.794-4-4-4s-4 1.794-4 4h-2c0-3.309 2.691-6 6-6 3.308 0 6 2.691 6 6"/><path fill="#475059" d="M149.929 64.038h-2c0-2.206-1.794-4-4-4s-4 1.794-4 4h-2c0-3.309 2.691-6 6-6 3.308 0 6 2.691 6 6"/><path fill="#475059" d="M117.929 63.038c0-8.823 7.177-16.001 16-16.001 8.822 0 16 7.178 16 16h-2c0-7.72-6.281-14-14-14-7.72 0-14 6.28-14 14l-2 .001"/><path fill="#475059" d="M130.429 77.038a4.504 4.504 0 0 1-4.5-4.5h2c0 1.379 1.121 2.5 2.5 2.5s2.5-1.121 2.5-2.5v-13.5h2v13.5c0 2.482-2.019 4.5-4.5 4.5M132.929 48.037h2v-2.998h-2z"/></g></svg>