<?xml version="1.0" encoding="utf-8"?><svg xmlns="http://www.w3.org/2000/svg" width="250" height="250" viewBox="0 0 250 250"><g fill="none" fill-rule="evenodd"><path fill="#FACD60" d="M92.036 164.929v17.003l8-4.003 8 4.003v-17.003l-7.875 3.128-8.125-3.128M153.524 53.884v23.842h23.842"/><path fill="#434A4F" d="M178.366 197.938H71.035V52.884h17.69a1 1 0 1 1 0 2h-15.69v141.054h103.331V78.141L153.11 54.884H98.245a1 1 0 1 1 0-2h55.693l24.428 24.429v120.625"/><path fill="#434A4F" d="M93.473 54.889c-.26 0-.52-.111-.71-.301a.984.984 0 0 1-.21-.319c-.05-.121-.08-.25-.08-.391a1.036 1.036 0 0 1 .29-.699c.38-.381 1.05-.37 1.42 0 .09.09.16.199.22.319.05.13.07.25.07.38 0 .141-.02.27-.07.391-.05.12-.13.229-.22.319a1 1 0 0 1-.71.301"/><path fill="#42494E" d="M156.783 189.027h59.252c1.654 0 3-1.345 3-3 0-1.654-1.346-3-3-3h-59.256l-6.734 1.954v2.034l6.738 2.012zm59.252 2H156.49l-8.445-2.522v-5.026l8.591-2.452h59.399c2.757 0 5 2.244 5 5 0 2.757-2.243 5-5 5z"/><path fill="#434A4F" d="M146.96 188.711l1.085.001v-5.369h-1.085v5.368zm3.085 2.001l-5.085-.001v-9.368h5.085v9.369z"/><path fill="#434A4F" d="M131.685 186.005l8.268 4.435c.484-.603 1.247-1.436 2.124-1.963 1.021-.615 2.125-.968 2.86-1.155v-2.589c-.734-.187-1.836-.542-2.856-1.155-.878-.527-1.642-1.363-2.125-1.967l-8.271 4.394zm8.891 7.038l-13.137-7.046 13.144-6.983.5.762c.009.015.956 1.443 2.028 2.087 1.353.815 2.962 1.072 2.978 1.075l.846.131.002 5.918-.849.131c-.015.003-1.628.26-2.981 1.072-1.073.646-2.02 2.075-2.028 2.088l-.503.765z"/><path fill="#434A4F" d="M139.422 187.001h-2.916a1 1 0 1 1 0-2h2.916a1 1 0 1 1 0 2m-38.886-42.569c-6.066 0-11 4.934-11 11 0 6.065 4.934 11 11 11 6.065 0 11-4.935 11-11 0-6.066-4.935-11-11-11zm0 24c-7.169 0-13-5.832-13-13s5.831-13 13-13c7.168 0 13 5.832 13 13s-5.832 13-13 13z"/><path fill="#FACD60" d="M108.536 155.432a8 8 0 1 1-16 0 8 8 0 0 1 16 0"/><path fill="#434A4F" d="M130.951 151.938h29.082v-2h-29.082zM131.035 155.855h20.998v-2h-20.998zM137.033 170.854c-3.309 0-6-2.691-6-6 0-3.251 2.748-6 6-6 3.308 0 6 2.692 6 6v2.001a1 1 0 0 0 2 0c0-1.654 1.345-3 3-3 1.654 0 3 1.346 3 3a1 1 0 0 0 1 1 1 1 0 0 1 0 2c-1.655 0-3-1.345-3-3a1.001 1.001 0 0 0-2 0c0 1.655-1.346 3-3 3-1.655 0-3-1.345-3-3v-2.001c0-2.206-1.794-4-4-4-2.168 0-4 1.833-4 4 0 2.207 1.794 4 4 4a1 1 0 0 1 0 2m19-.996c-.13 0-.26-.03-.38-.08a.988.988 0 0 1-.54-1.309.967.967 0 0 1 .54-.54.922.922 0 0 1 .57-.051c.07.011.13.03.19.051a.89.89 0 0 1 .17.099c.06.031.11.071.16.12.09.09.16.201.21.321a.988.988 0 0 1-.54 1.309c-.12.05-.25.08-.38.08m-29 4.08a.99.99 0 0 1-.71-.29c-.09-.1-.17-.21-.22-.33a.986.986 0 0 1-.07-.38c0-.129.02-.259.08-.379.05-.13.12-.231.21-.33.23-.231.58-.34.9-.271.07.011.13.03.19.061.06.019.12.049.17.089.06.031.11.08.15.121.1.099.17.2.22.33.05.12.08.25.08.379 0 .13-.03.26-.08.38s-.12.23-.22.33c-.18.19-.44.29-.7.29m3-1c0-.549.45-1 1-1s1 .451 1 1c0 .55-.45 1-1 1s-1-.45-1-1zm4 0c0-.549.44-1 1-1 .55 0 1 .451 1 1 0 .55-.45 1-1 1-.56 0-1-.45-1-1zm4 0c0-.549.45-1 1-1s1 .451 1 1c0 .55-.45 1-1 1s-1-.45-1-1zm4 0c0-.549.45-1 1-1s1 .451 1 1c0 .55-.45 1-1 1s-1-.45-1-1zm4 0c0-.549.45-1 1-1s1 .451 1 1c0 .55-.45 1-1 1s-1-.45-1-1zm4 0c0-.549.44-1 1-1 .55 0 1 .451 1 1 0 .55-.45 1-1 1-.56 0-1-.45-1-1zm4 0c0-.549.44-1 1-1 .55 0 1 .451 1 1 0 .55-.45 1-1 1-.56 0-1-.45-1-1zm4 0c0-.549.44-1 1-1 .55 0 1 .451 1 1 0 .55-.45 1-1 1-.56 0-1-.45-1-1zm5 1a.99.99 0 0 1-.71-.29c-.09-.1-.17-.21-.22-.33a.986.986 0 0 1-.07-.38c0-.129.02-.259.07-.379.05-.13.13-.231.22-.33.37-.371 1.04-.371 1.42 0 .09.099.16.2.21.33.05.12.08.25.08.379 0 .13-.03.26-.08.38s-.12.23-.21.33c-.1.09-.21.161-.33.21-.12.05-.25.08-.38.08"/><path fill="#E9886C" d="M131.036 147.938h8.999v-2h-8.999z"/><path fill="#434A4F" d="M89.036 81.938h18v-2h-18zM89.036 85.939h18v-2h-18zM95.036 97.939h66v-2h-66zM89.036 101.938h72v-2h-72zM89.036 105.938h72v-2h-72zM89.036 109.938h60v-2h-60zM95.036 119.938h66v-2h-66zM89.036 123.938h72v-2h-72zM89.036 127.938h72v-2h-72zM89.036 131.938h60v-2h-60zM149.036 85.939h12v-2h-12zM74.716 197.938h-7.683V52.884h7.683a1 1 0 1 1 0 2h-5.683v141.054h5.683a1 1 0 1 1 0 2"/><path fill="#434A4F" d="M70.714 197.938H63.03V52.884h7.684a1 1 0 1 1 0 2H65.03v141.054h5.684a1 1 0 0 1 0 2M190.018 210.938h2v-4h-2zM190.018 220.938h2v-4h-2zM194.018 214.938h4v-2h-4zM184.018 214.938h4v-2h-4zM173.036 52.938h2v-4h-2zM173.036 62.939h2v-4h-2zM177.036 56.938h4v-2h-4zM167.036 56.938h4v-2h-4z"/><path fill="#E9886C" d="M53.965 30.939c-12.682 0-23 10.318-23 23 0 12.683 10.318 23 23 23s23-10.317 23-23c0-12.682-10.318-23-23-23zm0 48c-13.785 0-25-11.214-25-25 0-13.785 11.215-25 25-25 13.786 0 25 11.215 25 25 0 13.786-11.214 25-25 25z"/><path fill="#434A4F" d="M73.919 54.939h-3.555a1 1 0 1 1 0-2h3.555a1 1 0 1 1 0 2m-5.817-8.445a1 1 0 0 1-.501-1.866l3.079-1.777a1 1 0 1 1 1 1.732l-3.079 1.777a.997.997 0 0 1-.499.134m-6.073-6.211a1 1 0 0 1-.865-1.5l1.778-3.079a1 1 0 1 1 1.732 1l-1.778 3.079a.998.998 0 0 1-.867.5M54.919 66.071h-2v-13.02h7.888v2h-5.888v11.02M53.963 38.05a1 1 0 0 1-1-1v-3.555a1 1 0 1 1 2 0v3.555a1 1 0 0 1-1 1m.001 37.334a1 1 0 0 1-1-1v-3.556a1 1 0 1 1 2 0v3.556a1 1 0 0 1-1 1M37.518 54.939h-3.556a1 1 0 1 1 0-2h3.556a1 1 0 0 1 0 2"/><path fill="#434A4F" d="M53.963 38.05a1 1 0 0 1-1-1v-3.555a1 1 0 1 1 2 0v3.555a1 1 0 0 1-1 1m.001 37.334a1 1 0 0 1-1-1v-3.556a1 1 0 1 1 2 0v3.556a1 1 0 0 1-1 1M37.518 54.939h-3.556a1 1 0 1 1 0-2h3.556a1 1 0 0 1 0 2M43.8 72.423a1 1 0 0 1-.865-1.5l1.777-3.079a1 1 0 1 1 1.733 1l-1.778 3.079a1 1 0 0 1-.867.5m-4.02-25.929a.992.992 0 0 1-.499-.134l-3.079-1.777a1 1 0 0 1 1-1.732l3.079 1.777a1 1 0 0 1-.501 1.866m-3.41 18.254a1 1 0 0 1-.501-1.866l3.079-1.778a1 1 0 1 1 1 1.732l-3.079 1.778a.992.992 0 0 1-.499.134m9.482-24.465a1 1 0 0 1-.867-.5l-1.778-3.079a1 1 0 0 1 1.733-1l1.778 3.079a1 1 0 0 1-.866 1.5"/><path fill="#42494E" d="M198.021 127.953c-4.963 0-9 4.037-9 9s4.037 9 9 9 9-4.037 9-9-4.037-9-9-9zm0 20c-6.065 0-11-4.934-11-11 0-6.065 4.935-11 11-11s11 4.935 11 11c0 6.066-4.935 11-11 11zm0-26c-8.271 0-15 6.729-15 15 0 8.272 6.729 15 15 15s15-6.728 15-15c0-8.271-6.729-15-15-15zm0 32c-9.374 0-17-7.626-17-17 0-9.374 7.626-17 17-17 9.374 0 17 7.626 17 17 0 9.374-7.626 17-17 17z"/><path fill="#42494E" d="M198.021 133.953c-1.654 0-3 1.346-3 3s1.346 3 3 3 3-1.346 3-3-1.346-3-3-3zm0 8c-2.757 0-5-2.243-5-5s2.243-5 5-5 5 2.243 5 5-2.243 5-5 5z"/><path fill="#E9886C" d="M198.021 132.953a4 4 0 1 0 0 8 4 4 0 0 0 0-8"/><path fill="#E9886C" d="M198.021 133.953c-1.654 0-3 1.346-3 3s1.346 3 3 3 3-1.346 3-3-1.346-3-3-3zm0 8c-2.757 0-5-2.243-5-5s2.243-5 5-5 5 2.243 5 5-2.243 5-5 5z"/><path fill="#42494E" d="M171.023 137.953h26.998v-2h-26.998z"/><path fill="#42494E" d="M164.437 139.953h3.172l3-3-3-3h-3.172l3 3-3 3zm4 2h-8.828l5-5-5-5h8.828l5 5-5 5zm-86.54 62.442l-1.901-.62.553-1.699-2.056-.67c-1.933-.631-3.181-2.351-3.179-4.385.002-2.033 1.254-3.751 3.188-4.377l2.058-.667-1.162-3.587-2.058.666c-1.935.626-3.956-.034-5.149-1.679-1.193-1.647-1.191-3.772.005-5.415l1.273-1.749-3.049-2.219-1.272 1.748c-1.197 1.644-3.221 2.299-5.153 1.669-1.933-.631-3.181-2.351-3.179-4.385l.002-2.163-3.771-.004-.002 2.163c-.001 2.034-1.253 3.752-3.187 4.378-1.936.625-3.956-.032-5.149-1.678l-1.27-1.751-3.053 2.214 1.27 1.751c1.194 1.646 1.192 3.772-.005 5.416-1.197 1.643-3.221 2.297-5.153 1.669l-2.056-.671-.554 1.698-1.901-.619 1.174-3.601 3.957 1.29c1.326.434 2.377-.204 2.916-.943.539-.74.822-1.935.003-3.066l-2.444-3.37 6.292-4.561 2.443 3.37c.819 1.132 2.043 1.232 2.914.95.871-.282 1.802-1.081 1.803-2.477l.004-4.164 7.771.008-.004 4.163c-.001 1.397.929 2.198 1.799 2.482.87.283 2.095.184 2.916-.946l2.45-3.365 6.282 4.574-2.45 3.367c-.821 1.128-.54 2.322-.003 3.063.538.741 1.586 1.379 2.914.95l3.96-1.283 2.394 7.394-3.96 1.282c-1.328.431-1.803 1.561-1.804 2.477-.001.915.472 2.048 1.799 2.481l3.958 1.291-1.174 3.6"/><path fill="#E9886C" d="M69.464 200.445l-1.902-.619c1.556-4.77-1.06-9.916-5.831-11.472a9.038 9.038 0 0 0-6.943.54 9.042 9.042 0 0 0-4.528 5.291l-1.901-.62c1.896-5.818 8.174-9.008 13.993-7.113 5.818 1.899 9.009 8.176 7.112 13.993"/><path fill="#E9886C" d="M58.933 208.013c-1.138 0-2.293-.176-3.433-.547-5.818-1.899-9.008-8.176-7.111-13.994l1.902.619c-1.556 4.77 1.06 9.917 5.83 11.472 4.77 1.555 9.916-1.059 11.472-5.829l1.901.62c-1.525 4.679-5.886 7.659-10.561 7.659"/><path fill="#42494E" d="M62.802 221.061l-7.771-.008.004-4.163c.002-1.397-.928-2.198-1.798-2.482-.872-.284-2.094-.183-2.916.945l-2.45 3.364-6.283-4.573 2.451-3.366c.822-1.129.541-2.323.003-3.064-.537-.741-1.585-1.377-2.914-.95l-3.96 1.281-2.394-7.393 3.961-1.281c1.328-.431 1.803-1.561 1.804-2.477.001-.916-.471-2.049-1.799-2.483l-3.957-1.29 1.331-4.084 1.902.619-.712 2.184 2.056.67c1.933.631 3.181 2.352 3.179 4.386-.002 2.034-1.254 3.751-3.188 4.377l-2.058.666 1.162 3.588 2.057-.666c1.932-.628 3.955.033 5.149 1.679 1.193 1.646 1.192 3.772-.005 5.416l-1.274 1.748 3.049 2.22 1.273-1.749c1.197-1.644 3.222-2.297 5.153-1.668 1.933.631 3.181 2.351 3.178 4.385l-.002 2.163 3.771.004.002-2.163c.003-2.034 1.254-3.751 3.188-4.377 1.936-.627 3.956.032 5.149 1.678l1.269 1.751 3.054-2.214-1.27-1.751c-1.193-1.645-1.191-3.771.006-5.415 1.195-1.644 3.218-2.3 5.152-1.669l2.057.671.776-2.381 1.901.62-1.396 4.283-3.958-1.29c-1.327-.436-2.377.203-2.916.944-.538.74-.822 1.934-.003 3.064l2.444 3.37-6.292 4.561-2.443-3.37c-.819-1.131-2.043-1.231-2.914-.95-.871.282-1.802 1.081-1.804 2.476l-.004 4.164"/><path fill="#FACD60" d="M64.257 197.094a5.404 5.404 0 1 1-10.808 0 5.404 5.404 0 0 1 10.808 0"/><path fill="#FACD60" d="M58.854 192.19a4.909 4.909 0 0 0-4.904 4.904 4.909 4.909 0 0 0 4.904 4.904 4.91 4.91 0 0 0 4.903-4.904 4.91 4.91 0 0 0-4.903-4.904zm0 10.808a5.91 5.91 0 0 1-5.904-5.904 5.91 5.91 0 0 1 5.904-5.904 5.911 5.911 0 0 1 5.903 5.904 5.91 5.91 0 0 1-5.903 5.904zM190.048 89.964a4 4 0 1 1 8 0 4 4 0 0 1-8 0M41.036 150.51a2.428 2.428 0 1 1 4.857-.001 2.428 2.428 0 0 1-4.857.001m12 10.857a2.429 2.429 0 1 1 4.858 0 2.429 2.429 0 0 1-4.858 0m110 44a2.429 2.429 0 1 1 4.858 0 2.429 2.429 0 0 1-4.858 0"/></g></svg>