<?xml version="1.0" encoding="utf-8"?><svg xmlns="http://www.w3.org/2000/svg" width="192" height="160" viewBox="0 0 192 160"><g fill="none" fill-rule="evenodd"><path fill="#FFD15D" d="M123.242 102L134 112.758 144.758 102H141V50c0-24.853-20.147-45-45-45S51 25.147 51 50v52h-3.758L58 112.758 68.758 102H65V50c0-17.121 13.879-31 31-31 17.121 0 31 13.879 31 31v52h-3.758"/><path fill="#DEDEDD" d="M96 100.002a9.999 9.999 0 0 1 9.155 5.985c2.222-5.056-.076-10.956-5.132-13.178-5.056-2.222-10.956.076-13.178 5.132a9.996 9.996 0 0 0 0 8.046A9.999 9.999 0 0 1 96 100.002"/><path fill="#475059" d="M70.999 67.995h50.002v-2H70.999z"/><path fill="#475059" d="M165 160H27V65.494h18.001v2H29V158h134V67.494h-15.999v-2H165V160"/><path fill="#475059" d="M118.414 100L134 115.586 149.586 100H143V50c0-25.957-21.043-47-47-47S49 24.043 49 50v50h-6.586L58 115.586 73.586 100H67V50c0-16.016 12.984-29 29-29s29 12.984 29 29v50h-6.586zM134 118.415l-20.414-20.414H123V50c0-14.912-12.088-27-27-27S69 35.088 69 50v48.001h9.414L58 118.415 37.586 98.001H47V50C47 22.938 68.938 1 96 1s49 21.938 49 49v48.001h9.414L134 118.415z"/><path fill="#475059" d="M57 100h2v-1.999h-2zM94.979 13.015l-.053-1.999a40.7 40.7 0 0 1 2.064-.002l-.051 1.999c-.329-.008-.629-.003-.987-.012-.327 0-.65.005-.973.014zm5.867.301a36.73 36.73 0 0 0-1.949-.203l.155-1.994c.689.054 1.374.125 2.053.214l-.259 1.983zm-9.771.01l-.264-1.982a38.485 38.485 0 0 1 2.054-.218l.158 1.994c-.655.052-1.304.121-1.948.206zm13.622.702a38.359 38.359 0 0 0-1.917-.407l.364-1.967c.679.126 1.353.27 2.02.43l-.467 1.944zm-17.47.019l-.473-1.943a39.96 39.96 0 0 1 2.018-.435l.37 1.966c-.645.121-1.283.259-1.915.412zm21.219 1.1a36.785 36.785 0 0 0-1.861-.609l.572-1.916c.661.197 1.315.411 1.961.642l-.672 1.883zm-24.968.027l-.677-1.882a37.786 37.786 0 0 1 1.961-.646l.576 1.914c-.627.189-1.247.394-1.86.614zm28.587 1.487a36.37 36.37 0 0 0-1.788-.805l.772-1.845c.637.267 1.266.55 1.886.849l-.87 1.801zm-32.189.029l-.873-1.799a38.18 38.18 0 0 1 1.877-.85l.777 1.843c-.601.253-1.195.522-1.781.806zm35.626 1.863a39.192 39.192 0 0 0-1.693-.992l.964-1.752c.604.333 1.198.681 1.783 1.043l-1.054 1.701zm-39.05.028l-1.058-1.697a39.75 39.75 0 0 1 1.777-1.045l.969 1.75a37.29 37.29 0 0 0-1.688.992zm42.264 2.212c-.515-.4-1.041-.788-1.577-1.163l1.144-1.64c.566.394 1.119.803 1.661 1.225l-1.228 1.578zm-45.472.032l-1.23-1.577a40.471 40.471 0 0 1 1.657-1.226l1.148 1.638a38.08 38.08 0 0 0-1.575 1.165zm48.432 2.535c-.47-.453-.952-.893-1.446-1.321l1.311-1.511c.521.451 1.028.916 1.523 1.394l-1.388 1.438zm-51.387.034L68.9 21.955a39.381 39.381 0 0 1 1.521-1.395l1.312 1.509c-.492.429-.973.87-1.444 1.325zm54.06 2.831c-.421-.501-.854-.99-1.299-1.468l1.463-1.364c.468.503.924 1.018 1.367 1.545l-1.531 1.287zm-56.73.035l-1.533-1.283c.441-.529.897-1.045 1.367-1.549l1.463 1.364a37.04 37.04 0 0 0-1.297 1.468zm59.085 3.09a35.057 35.057 0 0 0-1.135-1.593l1.596-1.204a36.83 36.83 0 0 1 1.199 1.681l-1.66 1.116zm-61.438.044l-1.661-1.116a39.98 39.98 0 0 1 1.197-1.683l1.599 1.2c-.391.522-.77 1.055-1.135 1.599zm63.451 3.312a36.917 36.917 0 0 0-.961-1.705l1.715-1.028c.353.589.691 1.187 1.013 1.796l-1.767.937zm-65.462.053l-1.77-.933c.323-.61.66-1.211 1.013-1.802l1.717 1.025a36.662 36.662 0 0 0-.96 1.71zm67.104 3.49a34.659 34.659 0 0 0-.773-1.792l1.814-.842c.289.623.562 1.254.817 1.894l-1.858.74zm-68.749.071l-1.857-.74c.255-.642.527-1.275.815-1.9l1.817.836a38.992 38.992 0 0 0-.775 1.804zm70.01 3.638c-.177-.63-.37-1.254-.58-1.87l1.895-.643c.22.651.424 1.308.611 1.973l-1.926.54zm-71.263.076l-1.925-.537c.185-.665.388-1.323.607-1.974l1.895.64c-.208.617-.401 1.24-.577 1.871zm72.124 3.747a37.985 37.985 0 0 0-.379-1.923l1.951-.439c.15.669.283 1.344.399 2.025l-1.971.337zm-72.973.076l-1.973-.331c.114-.682.246-1.357.396-2.027l1.951.436a35.648 35.648 0 0 0-.374 1.922zm73.422 3.814c-.042-.656-.1-1.307-.174-1.953l1.986-.229c.078.68.14 1.365.184 2.054l-1.996.128zm-73.863.076l-1.996-.119c.041-.691.101-1.377.179-2.059l1.986.229c-.074.645-.13 1.295-.169 1.949zM135 51.63h-2l-.002-2.004 2-.016.002 2.02zm-76 .08h-2l.001-2.022 2 .02L59 51.71zm74 3.946h2v-2.013h-2v2.013zm-76 .08h2v-2.013h-2v2.013zm76 3.945h2v-2.013h-2v2.013zm-76 .08h2v-2.013h-2v2.013zm76 3.945h2v-2.013h-2v2.013zm-76 .08h2v-2.013h-2v2.013zm76 3.946h2v-2.013h-2v2.013zm-76 .08h2v-2.013h-2v2.013zm76 3.944h2v-2.012h-2v2.012zm-76 .08h2v-2.012h-2v2.012zm76 3.946h2v-2.013h-2v2.013zm-76 .08h2v-2.013h-2v2.013zm76 3.945h2v-2.013h-2v2.013zm-76 .08h2v-2.013h-2v2.013zm76 3.945h2v-2.013h-2v2.013zm-76 .08h2v-2.013h-2v2.013zm76 3.946h2v-2.013h-2v2.013zm-76 .08h2v-2.013h-2v2.013zm76 3.944h2V89.87h-2v2.012zm-76 .08h2V89.95h-2v2.012zm76 3.946h2v-2.013h-2v2.013zm-76 .08h2v-2.013h-2v2.013zM133 100.001h2v-2h-2zM87.181 130.998h17.638l-3.607-21.644.452-.367a9 9 0 0 0 1.33-12.658 9 9 0 0 0-12.658-1.33 9 9 0 0 0 0 13.988l.452.367-3.607 21.644zm20 2H84.819l3.808-22.842c-4.509-4.072-4.862-11.028-.79-15.537 4.072-4.508 11.028-4.862 15.536-.79 4.508 4.072 4.862 11.028.79 15.537-.25.276-.513.54-.79.79l3.808 22.842z"/><path fill="#DEDEDD" d="M31.001 156.047H161.07v-10H31.001z"/><path fill="#475059" d="M23.969 42.011h3.577l1.774-4.024 3.296-1.902 4.371.475 1.788-3.099-2.596-3.548v-3.805l2.596-3.548-1.788-3.099-4.371.475-3.296-1.902-1.774-4.023h-3.577l-1.775 4.023-3.296 1.902-4.371-.475-1.788 3.099 2.597 3.548v3.805l-2.597 3.548 1.788 3.099 4.371-.475 3.296 1.902 1.775 4.024zm4.882 2h-6.187l-2.036-4.618-2.163-1.249-5.018.545-3.093-5.357 2.982-4.072v-2.498l-2.982-4.073 3.093-5.356 5.018.545 2.163-1.249 2.036-4.618h6.187l2.036 4.618 2.163 1.249 5.017-.545 3.093 5.356-2.981 4.073v2.498l2.981 4.072-3.093 5.357-5.017-.546-2.163 1.25-2.036 4.618z"/><path fill="#475059" d="M25.757 26.011a2 2 0 1 0-.001 3.999 2 2 0 0 0 .001-3.999zm0 6a4 4 0 1 1 0-8 4 4 0 0 1 0 8z"/><path fill="#475059" d="M25.757 22.011a6 6 0 1 0 0 12 6 6 0 0 0 0-12zm0 14a8 8 0 1 1 8-8 8.01 8.01 0 0 1-8 8z"/><path fill="#48515A" d="M6 63.024h2v-4H6zM6 73.024h2v-4H6zM10 67.024h4v-2h-4zM0 67.024h4v-2H0zM184 141h2v-4h-2zM184 151h2v-4h-2zM188 145h4v-2h-4zM178 145h4v-2h-4z"/><path fill="#5FE0ED" d="M175.018 10.001a3 3 0 1 1 0 6 3 3 0 0 1 0-6"/><path fill="#FFD15D" d="M13.017 91.983a5 5 0 1 1-.001 10.001 5 5 0 0 1 .001-10.001"/><path fill="#F58E70" d="M183.783 121.04a2 2 0 1 1-.001 4.001 2 2 0 0 1 .001-4.001"/><path fill="#F58E70" d="M183.783 122.04a1 1 0 1 0 0 2 1 1 0 0 0 0-2zm0 4a3 3 0 1 1 0-6 3 3 0 0 1 0 6z"/><path fill="#475059" d="M165.342 33.966c-5.932 0-10.741 4.809-10.741 10.741 0 5.932 4.809 10.741 10.741 10.741 5.932 0 10.741-4.809 10.741-10.741-.007-5.929-4.812-10.735-10.741-10.741zm0 23.482c-7.037 0-12.741-5.705-12.741-12.741 0-7.037 5.705-12.741 12.741-12.741 7.037 0 12.741 5.704 12.741 12.741-.008 7.033-5.708 12.733-12.741 12.741z"/><path fill="#475059" d="M165.341 33.966c-2.885 0-5.322 4.919-5.322 10.741s2.437 10.741 5.322 10.741c2.885 0 5.322-4.919 5.322-10.741s-2.437-10.741-5.322-10.741zm0 23.482c-4.106 0-7.322-5.596-7.322-12.741s3.216-12.741 7.322-12.741c4.105 0 7.322 5.596 7.322 12.741s-3.217 12.741-7.322 12.741z"/><path fill="#475059" d="M153.601 45.707h23.482v-2h-23.482z"/></g></svg>