<?xml version="1.0" encoding="utf-8"?><svg xmlns="http://www.w3.org/2000/svg" width="250" height="250" viewBox="0 0 250 250"><g fill="none" fill-rule="evenodd"><path fill="#5FE0ED" d="M115.987 165.495c-2.147 0-4.253.581-6.098 1.679v-27.165H82.784c3.324 5.73 1.375 13.069-4.354 16.393s-13.069 1.375-16.393-4.354a11.993 11.993 0 0 1 0-12.039H34.932v75.99h74.958v-28.196c5.699 3.37 13.051 1.482 16.421-4.217 3.37-5.699 1.482-13.051-4.217-16.422a11.993 11.993 0 0 0-6.107-1.669"/><path fill="#5FE0ED" d="M35.932 214.999h72.958v-28.951l1.509.894c5.222 3.099 11.966 1.378 15.064-3.844 3.099-5.221 1.377-11.966-3.844-15.064a10.994 10.994 0 0 0-11.22 0l-1.509.895v-27.92H84.396c2.772 6.619-.347 14.233-6.966 17.005-6.619 2.772-14.232-.346-17.004-6.965a12.995 12.995 0 0 1 0-10.04H35.932v73.99zm74.958 2H33.932v-77.99h29.841l-.871 1.502c-3.047 5.251-1.261 11.979 3.99 15.027 5.251 3.047 11.979 1.261 15.027-3.99a10.996 10.996 0 0 0 0-11.037l-.87-1.502h29.841v26.537c6.595-2.827 14.234.227 17.061 6.822 2.828 6.596-.226 14.234-6.821 17.062a12.991 12.991 0 0 1-10.24 0v27.569z"/><path fill="#F58E70" d="M184.945 140.009h-27.106c3.324-5.729 1.375-13.068-4.354-16.392-5.729-3.325-13.068-1.375-16.393 4.354a11.992 11.992 0 0 0 0 12.038h-27.105v27.106c5.729-3.324 13.068-1.375 16.392 4.354 3.325 5.729 1.376 13.068-4.353 16.393a11.993 11.993 0 0 1-12.039 0V217h74.958L215 186.205v-78.212l-30.055 32.016"/><path fill="#DEDEDD" d="M139.999 111.145V35H64.983L34.932 65.052v74.957h27.105c-3.324 5.73-1.375 13.069 4.355 16.393 5.729 3.324 13.068 1.375 16.392-4.354a11.993 11.993 0 0 0 0-12.039h27.106l30.109-28.864"/><path fill="#DEDEDD" d="M35.932 139.009h27.841l-.871 1.502c-3.047 5.251-1.261 11.979 3.99 15.027 5.251 3.047 11.979 1.261 15.027-3.99a10.996 10.996 0 0 0 0-11.037l-.871-1.502h28.439l29.512-28.291V36H65.397L35.932 65.466v73.543zm36.479 19.994c-7.167.009-12.985-5.793-12.994-12.96a12.984 12.984 0 0 1 1.009-5.034H33.932V64.638L64.569 34h76.43v77.572l-30.707 29.437H84.396c2.77 6.61-.342 14.215-6.952 16.985a12.983 12.983 0 0 1-5.033 1.009z"/><path fill="#48515A" d="M110.987 139.009h24.494c-2.772-6.618.345-14.232 6.964-17.005 6.618-2.773 14.232.345 17.005 6.964a12.995 12.995 0 0 1 0 10.04l25.081-.011 28.468-29.406V36.057l-72.586-.019-29.415 29.416-.012 28.438-1.501-.87c-5.251-3.047-11.978-1.261-15.026 3.99s-1.262 11.979 3.99 15.027a10.994 10.994 0 0 0 11.036 0l1.502-.871v27.841zm45.115 2.001l.872-1.503c3.047-5.251 1.261-11.978-3.99-15.026-5.251-3.047-11.978-1.261-15.026 3.99a10.99 10.99 0 0 0 0 11.036l.871 1.502h-29.842v-26.494c-6.619 2.772-14.231-.346-17.004-6.965-2.772-6.619.346-14.232 6.965-17.004a12.995 12.995 0 0 1 10.04 0l.01-25.922 30.587-30.586 75.414.02V110.4l-29.62 30.597-29.277.013z"/><path fill="#48515A" d="M184.145 64.436l29.134-30.095 1.438 1.392-29.134 30.095-1.438-1.392"/><path fill="#48515A" d="M185.771 139.625h-2V66.039h-73.773v-2h75.773v75.586M110.89 217h-2v-30.952l1.509.894c5.222 3.099 11.966 1.378 15.064-3.844 3.099-5.221 1.377-11.966-3.844-15.064a10.994 10.994 0 0 0-11.22 0l-1.509.895v-27.92H84.396c2.772 6.619-.347 14.233-6.966 17.005-6.619 2.772-14.232-.346-17.004-6.965a12.995 12.995 0 0 1 0-10.04H34.001v-2h29.771l-.87 1.502c-3.047 5.251-1.261 11.979 3.99 15.027 5.251 3.047 11.979 1.261 15.027-3.99a10.996 10.996 0 0 0 0-11.037l-.871-1.502h29.842v26.537c6.595-2.827 14.234.227 17.061 6.822 2.828 6.596-.226 14.234-6.822 17.062a12.989 12.989 0 0 1-10.239 0V217"/><path fill="#48515A" d="M145.154 64.424l30.094-30.093 1.414 1.414-30.094 30.093-1.414-1.414"/><path fill="#F58E70" d="M118.991 116.014h56.968v-11.993h-56.968z"/><path fill="#48515A" d="M127.985 96.026h38.979v-2h-38.979zM127.985 90.029h38.979v-2h-38.979zM207 211h2v-4h-2zM207 221h2v-4h-2zM211 215h4v-2h-4zM201 215h4v-2h-4zM35 157h2v-4h-2zM35 167h2v-4h-2zM39 161h4v-2h-4zM29 161h4v-2h-4zM45 33h2v-4h-2zM45 43h2v-4h-2zM49 37h4v-2h-4zM39 37h4v-2h-4zM34.94 81a3.005 3.005 0 0 0-2.126.863 2.923 2.923 0 0 0-.873 2.095A3.019 3.019 0 0 0 34.936 87H90.105l6.507-3-6.507-3H34.94zm55.605 8H34.941a5.017 5.017 0 0 1-5-5.021 4.923 4.923 0 0 1 1.469-3.541A4.996 4.996 0 0 1 34.94 79h55.605l10.843 5-10.843 5z"/><path fill="#48515A" d="M40.981 88h2v-8h-2z"/><path fill="#48515A" d="M41.981 85h48v-2h-48zM185.259 162c-5.932 0-10.741 4.809-10.741 10.741 0 5.932 4.809 10.741 10.741 10.741 5.932 0 10.741-4.809 10.741-10.741-.007-5.929-4.812-10.734-10.741-10.741zm0 23.482c-7.037 0-12.741-5.704-12.741-12.741S178.222 160 185.259 160 198 165.704 198 172.741c-.008 7.034-5.708 12.733-12.741 12.741z"/><path fill="#48515A" d="M185.258 162c-2.885 0-5.322 4.919-5.322 10.741 0 5.823 2.437 10.741 5.322 10.741 2.885 0 5.322-4.918 5.322-10.741 0-5.822-2.437-10.741-5.322-10.741zm0 23.482c-4.106 0-7.322-5.596-7.322-12.741 0-7.144 3.216-12.741 7.322-12.741 4.105 0 7.322 5.597 7.322 12.741 0 7.145-3.217 12.741-7.322 12.741z"/><path fill="#48515A" d="M173.811 174.192h23v-2h-23z"/></g></svg>