<?xml version="1.0" encoding="utf-8"?><svg xmlns="http://www.w3.org/2000/svg" xmlns:xlink="http://www.w3.org/1999/xlink" width="193" height="192" viewBox="0 0 193 192"><defs><path id="pua" d="M.17.189h128.851V128.94H.17z"/></defs><g fill="none" fill-rule="evenodd"><path fill="#DEDEDD" d="M21.453 136.321L23.358 132h4.882l1.906 4.321 2.729 1.576 4.694-.511 2.441 4.228-2.789 3.81v3.152l2.789 3.81-2.441 4.228-4.694-.511-2.73 1.576L28.24 162h-4.882l-1.905-4.321-2.729-1.576-4.695.511-2.441-4.228 2.79-3.81v-3.152l-2.79-3.81 2.441-4.228 4.695.511 2.729-1.576"/><path fill="#475059" d="M25.799 145a2 2 0 1 0 0 4 2 2 0 0 0 0-4zm0 6a4 4 0 1 1 0-8 4 4 0 0 1 0 8z"/><path fill="#475059" d="M25.799 141a6 6 0 1 0 6 6 6.007 6.007 0 0 0-6-6zm0 14a8 8 0 1 1 8-8 8.01 8.01 0 0 1-8 8z"/><g transform="translate(63 63)"><mask id="pub" fill="#fff"><use xlink:href="#pua"/></mask><path fill="#FFD15D" mask="url(#pub)" d="M76.981 65.87L40.022 33.029 76.981.189v18.84h52.04l-.011 28H76.981V65.87M47.01 129h-28V77H.17l32.84-36.959L65.851 77H47.01v52"/></g><path fill="#FFD15D" d="M52.04 128.87v-18.841H.01l-.01-28h52.04v-18.84l36.959 32.84L52.04 128.87M96.01 89.018L63.17 52.059h18.84V0h28v52.059h18.841L96.01 89.018"/><path fill="#475059" d="M21.839 107.03c4.857 32.661 30.508 58.301 63.171 63.145V137H69.849l26.161-29.442L122.171 137H107.01v33.175c32.664-4.844 58.314-30.484 63.172-63.146h-33.201v15.161l-29.442-26.161 29.442-26.161v15.161h33.209c-4.828-32.69-30.491-58.364-63.18-63.204v33.234h15.161L96.01 84.501 69.849 55.059H85.01V21.825c-32.688 4.84-58.352 30.514-63.179 63.205H55.04V69.868l29.442 26.161-29.442 26.162V107.03H21.839zm83.171 65.434V135h12.709L96.01 110.568 74.301 135H87.01v37.464l-1.13-.148c-34.47-4.573-61.595-31.687-66.181-66.155l-.15-1.131H57.04v12.708l24.431-21.709L57.04 74.32v12.71H19.542l.148-1.13c4.56-34.496 31.696-61.643 66.19-66.216l1.13-.148v37.523H74.301L96.01 81.49l21.709-24.431H105.01V19.536l1.131.148c34.494 4.573 61.63 31.72 66.189 66.215l.148 1.13h-37.497V74.32l-24.432 21.709 24.432 21.709v-12.709h37.491l-.15 1.131c-4.586 34.469-31.711 61.583-66.181 66.156l-1.131.148z"/><path fill="#475059" d="M120.01 97h2v-2h-2zM124.01 97h2v-2h-2zM128.01 97h2v-2h-2zM132.01 97h2v-2h-2zM136.01 97h2v-2h-2zM140.01 97h2v-2h-2zM144.01 97h2v-2h-2zM148.01 97h2v-2h-2zM152.01 97h2v-2h-2zM156.01 97h2v-2h-2zM160.01 97h2v-2h-2zM164.01 97h2v-2h-2zM168.01 97h2v-2h-2zM172.01 97h2v-2h-2zM176.01 97h2v-2h-2zM180.01 97h2v-2h-2zM184.01 97h2v-2h-2zM188.01 97h2v-2h-2zM2.01 97h2v-2h-2zM6.01 97h2v-2h-2zM10.01 97h2v-2h-2zM14.01 97h2v-2h-2zM18.01 97h2v-2h-2zM22.01 97h2v-2h-2zM26.01 97h2v-2h-2zM30.01 97h2v-2h-2zM34.01 97h2v-2h-2zM38.01 97h2v-2h-2zM42.01 97h2v-2h-2zM46.01 97h2v-2h-2zM50.01 97h2v-2h-2zM54.01 97h2v-2h-2zM58.01 97h2v-2h-2zM62.01 97h2v-2h-2zM66.01 97h2v-2h-2zM70.01 97h2v-2h-2zM95.01 122h2v-2h-2zM95.01 126h2v-2h-2zM95.01 130h2v-2h-2zM95.01 134h2v-2h-2zM95.01 138h2v-2h-2zM95.01 142h2v-2h-2zM95.01 146h2v-2h-2zM95.01 150h2v-2h-2zM95.01 154h2v-2h-2zM95.01 158h2v-2h-2zM95.01 162h2v-2h-2zM95.01 166h2v-2h-2zM95.01 170h2v-2h-2zM95.01 174h2v-2h-2zM95.01 178h2v-2h-2zM95.01 182h2v-2h-2zM95.01 186h2v-2h-2zM95.01 190h2v-2h-2zM95.01 4h2V2h-2zM95.01 8h2V6h-2zM95.01 12h2v-2h-2zM95.01 16h2v-2h-2zM95.01 20h2v-2h-2zM95.01 24h2v-2h-2zM95.01 28h2v-2h-2zM95.01 32h2v-2h-2zM95.01 36h2v-2h-2zM95.01 40h2v-2h-2zM95.01 44h2v-2h-2zM95.01 48h2v-2h-2zM95.01 52h2v-2h-2zM95.01 56h2v-2h-2zM95.01 60h2v-2h-2zM95.01 64h2v-2h-2zM95.01 68h2v-2h-2zM95.01 72h2v-2h-2z"/><path fill="#DEDEDD" d="M174.016 160.39l-28-12L158.244 178l4.833-9.721 7.081 7.081 2.923-2.734-7.297-7.296 8.232-4.94"/><path fill="#FFF" d="M164.01 150.384l-28-12 12.228 29.61 4.833-9.721 8.111 8.111 2.828-2.828-8.232-8.232 8.232-4.94"/><path fill="#48515A" d="M137.871 140.27l10.451 25.309 4.472-8.996 8.388 8.387 1.414-1.414-8.431-8.431 7.654-4.592-23.948-10.263zm10.282 30.14l-14.003-33.911 32.052 13.736-8.811 5.287 8.033 8.034-4.242 4.242-7.835-7.834-5.194 10.446zM6.01 53.921h2v-4h-2zM6.01 63.921h2v-4h-2zM10.01 57.921h4v-2h-4zM.01 57.921h4v-2h-4zM184.01 132h2v-4h-2zM184.01 142h2v-4h-2zM188.01 136h4v-2h-4zM178.01 136h4v-2h-4zM172.01 24h2v-4h-2zM172.01 34h2v-4h-2zM176.01 28h4v-2h-4zM166.01 28h4v-2h-4z"/><path fill="#5FE0ED" d="M140.448 167.125a2.437 2.437 0 1 1 0 4.874 2.437 2.437 0 0 1 0-4.874"/><path fill="#F58E70" d="M16.448 124a2.437 2.437 0 1 1 0 4.874 2.437 2.437 0 0 1 0-4.874"/><path fill="#FFD15D" d="M156.558 34a2.437 2.437 0 1 1 0 4.874 2.437 2.437 0 0 1 0-4.874"/></g></svg>