<?xml version="1.0" encoding="utf-8"?><svg xmlns="http://www.w3.org/2000/svg" width="193" height="171" viewBox="0 0 193 171"><g fill="none" fill-rule="evenodd"><path fill="#DEDEDD" d="M111.057 149.264h16v-11.025a4.954 4.954 0 0 1-2.999 1.025 5 5 0 1 1 0-10 4.946 4.946 0 0 1 2.999 1.024v-15.024h-16v34M133.06 38.652l12 10.5V27.264h-12v11.388"/><path fill="#475059" d="M149.06 56.35h-2V25.264h-16v15h-2v-17h20V56.35"/><path fill="#F58E70" d="M158.06 63.263l-62-54.016-62 54.016-3.976-4.26L96.06 1.274l65.976 57.729-3.976 4.26"/><path fill="#5FE0ED" d="M56.047 132.294h6a6 6 0 0 0 6-6v-14h-12v20m34.013 0h-6a6 6 0 0 1-6-6v-14h12v20m12.014-50.03h6a6 6 0 0 0 6-6v-14h-12v20m34.014 0h-6a6 6 0 0 1-6-6v-14h12v20m-80.041 0h6a6 6 0 0 0 6-6v-14h-12v20m34.013 0h-6a6 6 0 0 1-6-6v-14h12v20"/><path fill="#475059" d="M43.06 82.769h2V55.263h-2zM43.06 152.264h2v-37.495h-2zM131.057 152.264h-2v-39h-20v39h-2v-41h24v41M147.06 152.264h2v-7.495h-2zM147.06 110.769h2v-9.674h-2zM147.06 95.765h2V55.757h-2z"/><path fill="#475059" d="M34.71 64.024l-1.3-1.52L96.06 8.948l62.65 53.555-1.3 1.52-61.35-52.444-61.35 52.445"/><path fill="#475059" d="M57.06 85.264h32v-22h-32v22zm-2 2h36v-26h-36v26zm48-2h32v-22h-32v22zm-2 2h36v-26h-36v26zm-44 48h32v-22h-32v22zm-2 2h36v-26h-36v26zm68.998-4a1 1 0 1 0-.002 1.998 1 1 0 0 0 .002-1.998zm0 4a3 3 0 1 1 0-6 3 3 0 0 1 0 6zM151.058 101.266H56.06v-2h92.998v-2.002H56.06v-2h94.998v6.002M146.227 128.993h-1.335a7.94 7.94 0 0 1-7.488-10.283c.122-.404.449-.714.859-.815.411-.101.845.018 1.145.316l3.146 3.147 2.357-.471.471-2.357-3.146-3.146a1.213 1.213 0 0 1-.316-1.146c.1-.41.409-.736.813-.858a7.995 7.995 0 0 1 9.687 10.773l.803.803-1.414 1.414-1.831-1.83.355-.656a5.995 5.995 0 0 0-5.609-8.84l2.829 2.829-.942 4.714-4.714.942-2.831-2.831a5.934 5.934 0 0 0 5.847 6.295h1.314v2m19.833 16.042a2.981 2.981 0 0 1-2.121-.878l-9.023-9.023 1.414-1.414 9.023 9.023a1.024 1.024 0 0 0 1.414-.001 1 1 0 0 0 .002-1.412l-.002-.001-11.213-11.213 1.414-1.414 11.213 11.212a3 3 0 0 1-2.121 5.121"/><path fill="#475059" d="M145.778 133.489l-6.132 6.132a2 2 0 0 0 2.828 2.829l6.132-6.133.79-2.372 2.373-.79.54-.54-2.829-2.829-.54.541-.79 2.372-2.372.79zm-4.718 11.545a4 4 0 0 1-2.828-6.827l6.466-6.466 1.871-.623.623-1.871 2.288-2.289 5.657 5.657-2.288 2.288-1.872.623-.623 1.871-6.466 6.467a3.992 3.992 0 0 1-2.828 1.17z"/><path fill="#475059" d="M150.916 129.766l16.437-16.438 1.414 1.414-16.437 16.438-1.414-1.414M36.482 113.769h3.578l1.774-4.023 3.295-1.903 4.372.475 1.789-3.098-2.598-3.548v-3.806l2.598-3.548-1.789-3.098-4.372.475-3.295-1.903-1.774-4.023h-3.578l-1.774 4.023-3.295 1.903-4.372-.475-1.789 3.098 2.598 3.548v3.806l-2.598 3.548 1.789 3.098 4.372-.475 3.295 1.903 1.774 4.023zm4.882 2h-6.186l-2.036-4.618-2.163-1.249-5.018.545-3.093-5.356 2.982-4.073V98.52l-2.982-4.073 3.093-5.356 5.018.545 2.163-1.249 2.036-4.618h6.186l2.036 4.618 2.163 1.249 5.018-.545 3.093 5.356-2.982 4.073v2.498l2.982 4.073-3.093 5.356-5.018-.545-2.163 1.249-2.036 4.618z"/><path fill="#475059" d="M38.271 97.769a2 2 0 1 0-.001 3.999 2 2 0 0 0 .001-3.999zm0 6a4 4 0 1 1 0-8 4 4 0 0 1 0 8z"/><path fill="#475059" d="M38.271 93.769a6 6 0 1 0 6 6 6.007 6.007 0 0 0-6-6zm0 14a8 8 0 1 1 8-8 8.01 8.01 0 0 1-8 8z"/><path fill="#48515A" d="M184.107 114.769h2v-4h-2zM184.107 124.769h2v-4h-2zM188.107 118.769h4v-2h-4zM178.107 118.769h4v-2h-4zM175.102 30.769h2v-4h-2zM175.102 40.769h2v-4h-2zM179.102 34.769h4v-2h-4zM169.102 34.769h4v-2h-4zM6 80.799h2v-4H6zM6 90.799h2v-4H6zM10 84.799h4v-2h-4zM0 84.799h4v-2H0z"/><path fill="#F58E70" d="M128.06.769a2 2 0 1 1 .001 3.999 2 2 0 0 1-.001-3.999m38 92a2 2 0 1 1 .001 3.999 2 2 0 0 1-.001-3.999"/><path fill="#5FE0ED" d="M14.06 118.769a4 4 0 1 1 0 8 4 4 0 0 1 0-8"/><path fill="#DEDEDD" d="M28.06 72.769a2 2 0 1 1 .001 3.999 2 2 0 0 1-.001-3.999"/><path fill="#48515A" d="M.004 153.769h192v-2h-192z"/><path fill="#DEDEDD" d="M.004 155.611v15.158l192 .231v-15.158l-192-.231"/></g></svg>