<?xml version="1.0" encoding="utf-8"?><svg xmlns="http://www.w3.org/2000/svg" width="250" height="250" viewBox="0 0 250 250"><g fill="none" fill-rule="evenodd"><path fill="#DFE0E0" d="M126.969 212.267h25.007v-5.997h-25.007zM126.969 218.266h29.995v-5.997h-29.995zM136.979 202.269a2 2 0 0 1-2-2v-7.001h-8.01v12h16.01v-2.999h-6M126.387 193.032V64.512l5.166.006v128.519l-5.166-.005"/><path fill="#DFE0E0" d="M118.972 70.091h11.997v-5.165h-11.997zM139.977 56.186v2.999h-2.998a2 2 0 0 0-2 2v2.999h-20.015v-2.999a2 2 0 0 0-2-2h-2.998v-2.999h30.011"/><path fill="#FFD15D" d="M50.163 43.018a3 3 0 1 1-6 0 3 3 0 0 1 6 0"/><path fill="#FFD15D" d="M47.163 41.018c-1.103 0-2 .897-2 2s.897 2 2 2 2-.897 2-2-.897-2-2-2zm0 6c-2.206 0-4-1.794-4-4s1.794-4 4-4 4 1.794 4 4-1.794 4-4 4z"/><path fill="#475059" d="M47.163 37.018c-3.309 0-6 2.692-6 6 0 3.309 2.691 6 6 6s6-2.691 6-6c0-3.308-2.691-6-6-6zm0 14c-4.411 0-8-3.589-8-8s3.589-8 8-8 8 3.589 8 8-3.589 8-8 8z"/><path fill="#FFD15D" d="M200.235 43.018a3 3 0 1 0 6 0 3 3 0 0 0-6 0"/><path fill="#FFD15D" d="M203.235 41.018c-1.103 0-2 .897-2 2s.897 2 2 2 2-.897 2-2-.897-2-2-2zm0 6c-2.206 0-4-1.794-4-4s1.794-4 4-4c2.205 0 4 1.794 4 4s-1.795 4-4 4z"/><path fill="#475059" d="M203.235 37.018c-3.309 0-6 2.692-6 6 0 3.309 2.691 6 6 6 3.308 0 6-2.691 6-6 0-3.308-2.692-6-6-6zm0 14c-4.411 0-8-3.589-8-8s3.589-8 8-8 8 3.589 8 8-3.589 8-8 8zM37.913 172.025h58.012v-4.003c0-4.072 3.059-7.443 6.999-7.937v-2.062H30.912v2.062c3.941.494 7.001 3.865 7.001 7.937v4.003zm60.012 2H35.913v-6.003a6.006 6.006 0 0 0-5.999-5.999h-1l-.002-6h76.012v6h-1a6.006 6.006 0 0 0-5.999 5.999v6.003zM101.006 149.027h-2v-.867L71.422 45.594l1.932-.519 27.652 102.821v1.131"/><path fill="#DFE0E0" d="M39.913 170.025h54.012v-2.004a9.988 9.988 0 0 1 4.006-7.999H35.907a9.991 9.991 0 0 1 4.006 7.999v2.004"/><path fill="#475059" d="M43.994 176.027h46.012v-2H43.994v2zm-2 2h50.012v-6H41.994v6zM34.993 149.019h-2l.038-1.274L65.163 35.018h5.524l1.444 5.443-1.934.512-1.049-3.955h-2.475l-31.68 111.141v.86M32.994 157.027h2v-6h-2zM99.09 157.027h2v-5.992h-2zM153.982 173.026h58.012v-4.003c0-4.072 3.059-7.444 7-7.938v-2.062h-72.012v2.062c3.941.494 7 3.866 7 7.938v4.003zm60.012 2h-62.012v-6.003c0-3.309-2.691-6-5.999-6h-1l-.002-6h76.013v6h-1c-3.308 0-6 2.691-6 6v6.003zM217.075 150.028h-2v-.868L187.491 45.592l1.933-.515 27.651 103.821v1.13"/><path fill="#DFE0E0" d="M155.982 171.026h54.012v-2.004a9.988 9.988 0 0 1 4.006-7.999h-62.024a9.988 9.988 0 0 1 4.006 7.999v2.004"/><path fill="#475059" d="M160.064 177.028h46.012v-2h-46.012v2zm-2 2h50.012v-6h-50.012v6zM151.062 150.019h-2l.038-1.27 32.131-113.731h5.526l1.443 5.443-1.933.512-1.049-3.955h-2.473l-31.683 112.141v.86M149.063 158.028h2v-6h-2zM215.159 158.028h2v-5.993h-2zM54.194 42.014l-.031-2 55.585-.86.031 2-55.585.86"/><path fill="#475059" d="M196.202 42.014l-56.199-1.001.036-2 56.198 1.001-.035 2M109.748 46.874l-55.585-.86.031-2 55.585.86-.031 2M140.038 46.981l-.034-2 56.198-.967.034 2-56.198.967M117.964 193.311h2V63.955h-2zM129.964 193.311h2V63.954h-2z"/><path fill="#48515A" d="M38.983 63.225h2v-4h-2zM38.983 73.225h2v-4h-2zM42.555 67.225h3.428v-2h-3.428zM33.983 67.225h3.429v-2h-3.429zM214.088 106.25h2v-4h-2zM214.088 116.25h2v-4h-2zM217.66 110.25h3.428v-2h-3.428zM209.088 110.25h3.429v-2h-3.429z"/><path fill="#FFD15D" d="M215.089 86.407a2.143 2.143 0 1 1-4.286 0 2.143 2.143 0 0 1 4.286 0m-113.197 19.299a1.981 1.981 0 1 1-3.962 0 1.981 1.981 0 0 1 3.962 0m-64.364 2.514a2.514 2.514 0 1 0 5.027-.001 2.514 2.514 0 0 0-5.027.001m108.454 67.768a2.04 2.04 0 1 1 4.08 0 2.04 2.04 0 0 1-4.08 0m-3.871-43.554a.978.978 0 1 1-1.956 0 .978.978 0 0 1 1.956 0"/><path fill="#475059" d="M111.03 50.296l11.813.002c.841 0 1.606.328 2.175.865a3.16 3.16 0 0 1 2.173-.863l11.816.003V32.74l-11.816-.002h-.001c-.314 0-.608.122-.829.343a1.165 1.165 0 0 0-.344.831h-2c0-.65-.526-1.176-1.174-1.176l-11.813-.003v17.563zm14.987 3.178h-2c0-.648-.526-1.176-1.174-1.176l-13.813-.002V30.733l13.813.003a3.16 3.16 0 0 1 2.174.863 3.144 3.144 0 0 1 2.172-.861h.003l13.815.002v21.563l-13.816-.003c-.648 0-1.174.527-1.174 1.174z"/><path fill="#475059" d="M124.017 55.476h2V32.909h-2z"/><path fill="#475059" d="M141.01 56.474h-32v-5.178h2v3.178h28v-3.171h2v5.171M114.01 38.474h6v-2h-6zM114.01 42.474h6v-2h-6zM114.01 46.474h6v-2h-6zM130.01 38.474h6v-2h-6zM130.01 42.474h6v-2h-6zM130.01 46.474h6v-2h-6zM87.964 217.267h74v-4h-74v4zm-2 2h78v-8h-78v8z"/><path fill="#475059" d="M93.964 211.269h62v-3.999h-62v3.999zm-2 2h66v-7.999h-66v7.999zm52.015-8.001h-2v-1.999h-5c-1.655 0-3-1.346-3-3v-6.001h-18.015v6.001c0 1.654-1.345 3-3 3h-5v1.999h-2v-3.999h7a1 1 0 0 0 1-1v-8.001h22.015v8.001a1 1 0 0 0 1 1h7v3.999m-8-140.085h-22.015v-3.998a1 1 0 0 0-1-1h-3.998v-3.999h2v1.999h1.998c1.655 0 3 1.346 3 3v1.998h18.015v-1.998c0-1.654 1.345-3 3-3h1.998v-1.999h2v3.999h-3.998a1 1 0 0 0-1 1v3.998"/><path fill="#FFD15D" d="M83.976 135.23c0-9.941-8.059-18-18-18s-18 8.059-18 18 8.059 18 18 18 18-8.059 18-18"/><path fill="#475059" d="M65.977 150.23h-.017a14.907 14.907 0 0 1-10.603-4.405 14.902 14.902 0 0 1-4.38-10.613c.009-8.264 6.737-14.982 15-14.982h.017c1.508.002 2.995.227 4.418.667l1.007.416a1.001 1.001 0 0 1-.772 1.846l-.917-.384a13.013 13.013 0 0 0-3.739-.545h-.015c-7.161 0-12.991 5.821-12.999 12.984a12.914 12.914 0 0 0 3.796 9.198 12.917 12.917 0 0 0 9.188 3.818h.016c7.161 0 12.991-5.822 13-12.985a13.022 13.022 0 0 0-2.959-8.272 1 1 0 0 1 1.544-1.271 15.026 15.026 0 0 1 3.415 9.545c-.01 8.265-6.738 14.983-15 14.983"/><path fill="#475059" d="M68.47 142.204h-5.559c-1.759 0-3.19-1.44-3.19-3.208a1 1 0 1 1 2 0 1.2 1.2 0 0 0 1.19 1.208h5.559c.831 0 1.507-.684 1.507-1.524v-.95a1.51 1.51 0 0 0-1.507-1.509h-5.482a3.512 3.512 0 0 1-3.508-3.508v-.951a3.512 3.512 0 0 1 3.508-3.508h5.892a2.77 2.77 0 0 1 2.767 2.767 1 1 0 1 1-2 0 .768.768 0 0 0-.767-.767h-5.892a1.51 1.51 0 0 0-1.508 1.508v.951a1.51 1.51 0 0 0 1.508 1.508h5.482a3.513 3.513 0 0 1 3.508 3.509v.95c0 1.943-1.574 3.524-3.508 3.524"/><path fill="#475059" d="M66.009 145.23a1 1 0 0 1-1-1v-18a1 1 0 1 1 2 0v18a1 1 0 0 1-1 1m7.985-19.992a1.2 1.2 0 0 1-.39-.071.997.997 0 0 1-.32-.219 1 1 0 0 1-.3-.71c0-.26.11-.52.3-.71a1.015 1.015 0 0 1 1.41 0c.19.19.3.45.3.71 0 .13-.03.26-.08.38s-.12.23-.22.33c-.18.19-.44.29-.7.29"/><path fill="#FFD15D" d="M202.047 135.188c-.024-9.942-8.102-17.981-18.043-17.958-9.941.024-17.981 8.102-17.957 18.043.023 9.941 8.101 17.981 18.042 17.957 9.941-.023 17.981-8.101 17.958-18.042"/><path fill="#475059" d="M184.048 150.23c-8.263 0-14.991-6.717-15.001-14.982a14.9 14.9 0 0 1 4.381-10.612 14.9 14.9 0 0 1 10.601-4.406 14.824 14.824 0 0 1 4.419.656l1.01.415a1.001 1.001 0 0 1-.769 1.846l-.918-.382a13.045 13.045 0 0 0-3.721-.535h-.018a12.914 12.914 0 0 0-9.188 3.818 12.92 12.92 0 0 0-3.797 9.198c.009 7.162 5.84 12.984 13.001 12.984h.015c7.168-.009 12.993-5.849 12.984-13.017a13.017 13.017 0 0 0-2.978-8.264 1 1 0 1 1 1.541-1.276 15.025 15.025 0 0 1 3.437 9.538c.01 8.271-6.711 15.008-14.981 15.019h-.018"/><path fill="#475059" d="M192.034 125.218a.99.99 0 0 1-.92-1.381.994.994 0 0 1 .21-.319c.37-.38 1.04-.38 1.42 0 .09.09.16.2.21.319a.99.99 0 0 1-.92 1.381m-8.044 19.379a9.281 9.281 0 0 1-6.567-2.706c-3.638-3.622-3.652-9.529-.031-13.167 3.621-3.64 9.527-3.652 13.167-.032l-1.412 1.418c-2.855-2.842-7.493-2.831-10.337.024-2.844 2.858-2.833 7.495.024 10.339 2.857 2.843 7.496 2.831 10.338-.024l1.418 1.41a9.284 9.284 0 0 1-6.6 2.738"/><path fill="#475059" d="M172.965 134.317l-.005-2 10.999-.025.005 2-10.999.025M172.974 138.317l-.005-2 11-.025.005 2-11 .025"/></g></svg>