<?xml version="1.0" encoding="utf-8"?><svg xmlns="http://www.w3.org/2000/svg" width="250" height="250" viewBox="0 0 250 250"><g fill="none" fill-rule="evenodd"><path fill="#48515A" d="M130.037 46.853l-1.909 6.125c-8.463 27.146-19.711 52.7-33.432 75.952l-4.527 7.606a45.987 45.987 0 0 0-6.168 23.006c0 25.381 20.648 46.031 46.029 46.031 25.381 0 46.031-20.65 46.031-46.031 0-8.074-2.133-16.03-6.168-23.007l-4.147-7.607c-14.236-24.126-25.61-49.683-33.8-75.95l-1.909-6.125zm-.007 160.72c-26.484 0-48.029-21.546-48.029-48.031a48.018 48.018 0 0 1 6.442-24.018l4.533-7.614c13.64-23.116 24.825-48.528 33.242-75.527l3.819-12.249 3.819 12.249c8.143 26.12 19.455 51.536 33.62 75.541l.057.101 4.103 7.531a47.983 47.983 0 0 1 6.425 23.986c0 26.485-21.546 48.031-48.031 48.031z"/><path fill="#5FE0ED" d="M194.818 141.463l-.545-1a48.147 48.147 0 0 1-4.504-10.121c-1.124 3.604-2.619 7.009-4.456 10.121l-.597 1.003a5.834 5.834 0 1 0 10.102-.003M90.04 88.223l-.545-1a48.193 48.193 0 0 1-4.504-10.121c-1.124 3.603-2.619 7.008-4.456 10.121l-.597 1.003a5.834 5.834 0 1 0 10.102-.003"/><path fill="#48515A" d="M156.02 33.001h2v-4h-2zM156.02 43.001h2v-4h-2zM160.02 37.001h4v-2h-4zM150.02 37.001h4v-2h-4zM76.99 210.999h2v-4h-2zM76.99 220.999h2v-4h-2zM80.99 214.999h4v-2h-4zM70.99 214.999h4v-2h-4zM56.96 108.007h2v-4h-2zM56.96 118.007h2v-4h-2zM60.96 112.007h4v-2h-4zM50.96 112.007h4v-2h-4zM191.04 196.06h2v-4h-2zM191.04 206.06h2v-4h-2zM195.04 200.06h4v-2h-4zM185.04 200.06h4v-2h-4z"/><path fill="#5FE0ED" d="M180.934 128.636a1.937 1.937 0 1 1-3.873 0 1.937 1.937 0 0 1 3.873 0m-87.928-16.663a1.005 1.005 0 1 1-2.01 0 1.005 1.005 0 0 1 2.01 0m-19.014 69.906a1.512 1.512 0 1 1-3.024 0 1.512 1.512 0 0 1 3.024 0m89.033-93.337a1.503 1.503 0 1 1-3.006 0 1.503 1.503 0 0 1 3.006 0M154.032 211.5a2.5 2.5 0 1 1 4.998 0 2.5 2.5 0 0 1-4.998 0m33.008-39.961a2.5 2.5 0 1 1 5 0 2.5 2.5 0 0 1-5 0m-8.043-73.194a2.35 2.35 0 1 0 4.7 0 2.35 2.35 0 0 0-4.7 0M66.364 147.826a4 4 0 1 1-8 0 4 4 0 0 1 8 0m93.821 12.095c-6.801 3.677-17-2.005-22.779-12.693-5.78-10.687-4.952-22.333 1.849-26.011 6.802-3.678 17 2.005 22.78 12.692 5.78 10.688 4.952 22.334-1.85 26.012zm7.958-22.416l-4.112-7.548c-13.861-23.49-25.515-49.188-33.994-76.384-8.479 27.196-19.764 52.894-33.625 76.384l-4.506 7.571A43.804 43.804 0 0 0 86 159.542c0 24.318 19.713 44.031 44.031 44.031 24.317 0 44.03-19.713 44.03-44.031a43.806 43.806 0 0 0-5.918-22.037z"/></g></svg>