<?xml version="1.0" encoding="utf-8"?><svg xmlns="http://www.w3.org/2000/svg" xmlns:xlink="http://www.w3.org/1999/xlink" width="193" height="163" viewBox="0 0 193 163"><defs><path id="sga" d="M0 .046h192v141.037H0z"/><path id="sgc" d="M.083 0h2v13.94h-2z"/></defs><g fill="none" fill-rule="evenodd"><path fill="#DEDEDD" d="M95.218 112.452L95.155 11.97a8.921 8.921 0 0 1 8.919-8.925A8.922 8.922 0 0 1 113 11.964v58.005h-2V11.964a6.923 6.923 0 0 0-13.845.004l.063 100.482-2 .002m47.844 0l-.063-100.482a8.922 8.922 0 0 1 8.92-8.925 8.921 8.921 0 0 1 8.925 8.919v58.005h-2V11.964a6.923 6.923 0 0 0-13.845.004l.063 100.482-2 .002"/><path fill="#5FE0ED" d="M184 91.932a8 8 0 0 1-16 0 8 8 0 0 1-16 0 8 8 0 0 1-16 0 8 8 0 0 1-16 0 8 8 0 0 1-16 0 8 8 0 0 1-16 0 8 8 0 0 1-16 0 8 8 0 0 1-16 0 8 8 0 0 1-16 0 8 8 0 0 1-16 0 8 8 0 0 1-16 0 8 8 0 0 1-8 8v40a8 8 0 0 0 8-8 8 8 0 0 0 16 0 8 8 0 0 0 16 0 8 8 0 0 0 16 0 8 8 0 0 0 16 0 8 8 0 0 0 16 0 8 8 0 0 0 16 0 8 8 0 0 0 16 0 8 8 0 0 0 16 0 8 8 0 0 0 16 0 8 8 0 0 0 16 0 8 8 0 0 0 16 0 8 8 0 0 0 8 8v-40a8 8 0 0 1-8-8"/><mask id="sgb" fill="#fff"><use xlink:href="#sga"/></mask><path fill="#475059" d="M192 141.082a9.152 9.152 0 0 1-8-4.72 9.14 9.14 0 0 1-16 0 9.14 9.14 0 0 1-16 0 9.14 9.14 0 0 1-16 0 9.14 9.14 0 0 1-16 0 9.14 9.14 0 0 1-16 0 9.14 9.14 0 0 1-16 0 9.14 9.14 0 0 1-16 0 9.14 9.14 0 0 1-16 0 9.14 9.14 0 0 1-16 0 9.14 9.14 0 0 1-16 0 9.14 9.14 0 0 1-16 0 9.148 9.148 0 0 1-8 4.72v-2.285a6.866 6.866 0 0 0 6.857-6.858h2.286a6.857 6.857 0 0 0 13.714 0h2.286a6.857 6.857 0 0 0 13.714 0h2.286a6.857 6.857 0 0 0 13.714 0h2.286a6.857 6.857 0 0 0 13.714 0h2.286a6.857 6.857 0 0 0 13.714 0h2.286a6.857 6.857 0 0 0 13.714 0h2.286a6.857 6.857 0 1 0 13.714 0h2.286a6.857 6.857 0 1 0 13.714 0h2.286a6.857 6.857 0 1 0 13.714 0h2.286a6.857 6.857 0 1 0 13.714 0h2.286a6.857 6.857 0 1 0 13.714 0h2.286a6.866 6.866 0 0 0 6.857 6.858v2.285" mask="url(#sgb)"/><path fill="#475059" d="M92.218 139.471l-.063-127.498C92.153 5.388 97.489.048 104.073.046 110.658.044 115.998 5.38 116 11.965V70.97h-8V11.965a3.924 3.924 0 0 0-7.846.003l.064 127.497-2 .002-.064-127.498A5.923 5.923 0 0 1 110 11.965V68.97h4V11.965c.005-5.48-4.434-9.927-9.914-9.931-5.48-.005-9.927 4.434-9.931 9.914v.023l.063 127.499-2 .001m47.844 0l-.063-127.498C139.997 5.388 145.333.048 151.917.046c6.585-.002 11.925 5.334 11.927 11.919V70.97h-8V11.965a3.923 3.923 0 0 0-7.845.002l.063 127.499-2 .001-.063-127.499a5.922 5.922 0 1 1 11.845-.003V68.97h4V11.965c-.002-5.48-4.446-9.921-9.926-9.92-5.48.002-9.921 4.446-9.919 9.926l.063 127.499-2 .001" mask="url(#sgb)"/><path fill="#475059" d="M.992 71.113h191.019v-2H.992zM98.85 84.97h42.151v-2H98.85zM98.85 98.977h42.151v-2H98.85zM98.85 112.986h42.151v-2H98.85zM98.85 126.994h42.151v-2H98.85z"/><g transform="translate(184 149)"><mask id="sgd" fill="#fff"><use xlink:href="#sgc"/></mask><path fill="#48515A" mask="url(#sgd)" d="M.083 4h2V0h-2zM.083 13.94h2V10h-2z"/></g><path fill="#48515A" d="M188.083 157h4v-2h-4zM178.083 157h4v-2h-4zM6.977 32.928h2v-4h-2zM6.977 42.928h2v-4h-2zM10.977 36.928h4v-2h-4zM.977 36.928h4v-2h-4z"/><path fill="#475059" d="M46.401 107.891h3.578l1.774-4.022 3.296-1.903 4.371.475 1.789-3.098-2.597-3.548v-3.806l2.597-3.548-1.789-3.098-4.371.474-3.296-1.901-1.774-4.025h-3.578l-1.774 4.025-3.295 1.901-4.372-.474-1.789 3.098 2.598 3.548v3.806l-2.598 3.548 1.789 3.098 4.373-.475 3.294 1.903 1.774 4.022zm4.882 2h-6.185l-2.037-4.618-2.163-1.249-5.018.546-3.092-5.356 2.981-4.074v-2.497l-2.981-4.073 3.092-5.356 5.018.545 2.163-1.248 2.037-4.619h6.185l2.037 4.618 2.163 1.249 5.017-.545 3.093 5.356-2.981 4.073v2.497l2.981 4.074-3.093 5.356-5.017-.546-2.163 1.249-2.037 4.618z"/><path fill="#475059" d="M48.19 91.891a2 2 0 1 0 .001 4.001 2 2 0 0 0-.001-4.001zm0 6a4 4 0 1 1 0-8 4 4 0 0 1 0 8z"/><path fill="#475059" d="M48.19 87.891a6 6 0 1 0 6 6 6.006 6.006 0 0 0-6-6zm0 14a8 8 0 1 1 0-16 8 8 0 0 1 8 8 8.008 8.008 0 0 1-8 8z"/><path fill="#5FE0ED" d="M176.054 36.988a2 2 0 1 1 .001 3.999 2 2 0 0 1-.001-3.999m-50.03-20.012a2 2 0 1 1 .001 3.999 2 2 0 0 1-.001-3.999M75.994 57a2 2 0 1 1 .001 3.999A2 2 0 0 1 75.994 57M35.97 147.054a2 2 0 1 1 .001 3.999 2 2 0 0 1-.001-3.999"/><path fill="#DEDEDD" d="M83.965 30.456l-28-12 12.227 29.61 4.833-9.721 7.081 7.081 2.923-2.734-7.297-7.297 8.233-4.939"/><path fill="#FFF" d="M73.959 20.45l-28-12 12.227 29.61 4.833-9.721 8.111 8.111 2.829-2.828-8.233-8.233 8.233-4.939"/><path fill="#48515A" d="M47.819 10.336l10.452 25.307 4.472-8.995 8.387 8.388 1.414-1.414-8.43-8.431 7.653-4.593-23.948-10.262zm10.283 30.139L44.098 6.564 76.15 20.302l-8.811 5.286 8.034 8.034-4.243 4.242-7.834-7.835-5.194 10.446zM82.015 154.13a2.92 2.92 0 0 0-2.999 2.842l-.001.061a3.039 3.039 0 0 0 3 3.097h67.181l6.507-3-6.507-3H82.015zm67.621 8H82.015a5.03 5.03 0 0 1-5-5.049 4.908 4.908 0 0 1 4.867-4.952l.133.001h67.621l10.843 5-10.843 5z"/><path fill="#48515A" d="M87.992 161.13h2v-8h-2z"/><path fill="#48515A" d="M88.992 158.13h59.999v-2H88.992z"/></g></svg>