<?xml version="1.0" encoding="utf-8"?><svg xmlns="http://www.w3.org/2000/svg" width="250" height="250" viewBox="0 0 250 250"><g fill="none" fill-rule="evenodd"><path fill="#5FE0ED" d="M127.61 154.942v-24.484a10.208 10.208 0 0 0 6.707-6.809h24.587c-1.481 16.63-14.663 29.812-31.294 31.293zm-2.914-30.274a4.077 4.077 0 1 1 0-8.154 4.077 4.077 0 0 1 0 8.154zm-3.201 30.274c-16.63-1.481-29.811-14.663-31.293-31.293h24.77a10.214 10.214 0 0 0 6.523 6.614v24.679zm0-68.702v24.77a10.214 10.214 0 0 0-6.614 6.523H90.202c1.482-16.63 14.663-29.812 31.294-31.293h-.001zm6.115 0c16.631 1.481 29.813 14.663 31.294 31.294H134.42a10.211 10.211 0 0 0-6.81-6.707V86.24zm48.105 37.116l.005-5.436-8.737-1.358-.815-5.174 7.898-3.977-1.675-5.172-8.73 1.409-2.374-4.669 6.282-6.224-3.191-4.4-7.867 4.037-3.7-3.707 4.051-7.86-4.394-3.199-6.235 6.27-4.665-2.382 1.424-8.727-5.168-1.684-3.992 7.89-5.172-.824-1.342-8.74-5.436-.005-1.358 8.737-5.174.815-3.978-7.898-5.171 1.675 1.408 8.73-4.668 2.374-6.224-6.282-4.4 3.191 4.037 7.867-3.707 3.7-7.86-4.051-3.199 4.394 6.27 6.235-2.382 4.665-8.727-1.424-1.684 5.168 7.89 3.992-.824 5.172-8.74 1.342-.005 5.436 8.737 1.359.815 5.173-7.898 3.978 1.675 5.171 8.73-1.408 2.374 4.669-6.282 6.223 3.191 4.4 7.867-4.037 3.7 3.707-4.051 7.86 4.394 3.199 6.235-6.27 4.665 2.382-1.425 8.727 5.169 1.685 3.992-7.891 5.172.825 1.342 8.74 5.436.004 1.358-8.737 5.174-.815 3.978 7.898 5.171-1.675-1.408-8.73 4.668-2.373 6.224 6.282 4.4-3.191-4.037-7.868 3.707-3.7 7.86 4.052 3.199-4.395-6.27-6.235 2.382-4.664 8.727 1.424 1.684-5.168-7.89-3.992.824-5.172 8.74-1.343z"/><path fill="#48515A" d="M124.812 94.572c-14.348 0-25.979 11.631-25.979 25.979 0 14.348 11.631 25.979 25.979 25.979 14.348 0 25.979-11.631 25.979-25.979-.016-14.341-11.638-25.963-25.979-25.979zm0 53.958c-15.452 0-27.979-12.527-27.979-27.979 0-15.453 12.527-27.979 27.979-27.979s27.979 12.526 27.979 27.979c-.017 15.445-12.534 27.961-27.979 27.979z"/><path fill="#DEDEDD" d="M44.353 108.582v-2.547C44.348 92.936 36.322 77.35 32.3 69.564c-6.128-11.245-3.582-25.241 6.113-33.607a28.36 28.36 0 0 1 18.67-6.955 28.362 28.362 0 0 1 18.671 6.955c.36.313.708.636 1.049.965a27.932 27.932 0 0 1 6.535 9.032 20.31 20.31 0 0 1 .195 16.061 8.435 8.435 0 0 0 .855 7.997l3.348 4.833a1.363 1.363 0 0 1-.616 2.165l-2.485.828a1.476 1.476 0 0 0-1.009 1.399 2.454 2.454 0 0 0 .681 1.768v.766c0 .743-.62 1.085-1.419 1.096.046.539.048 1.08.006 1.619-.302 1.041-1.482 1.191-1.485 2.065l-.008 3.186a3.744 3.744 0 0 1-3.738 3.735h-7.308c-1.63 0-2.95 1.32-2.95 2.95l1.476 12.16H44.353M44.458 221v-2.546c-.004-13.099-8.031-28.686-12.052-36.472-6.128-11.244-3.582-25.24 6.113-33.607a28.358 28.358 0 0 1 18.67-6.955 28.358 28.358 0 0 1 18.67 6.955c.361.313.708.637 1.05.965a27.93 27.93 0 0 1 6.534 9.032c2.27 5.1 2.34 10.909.195 16.062a8.436 8.436 0 0 0 .856 7.996l3.347 4.834a1.361 1.361 0 0 1-.616 2.164l-2.484.828a1.475 1.475 0 0 0-1.009 1.4 2.452 2.452 0 0 0 .681 1.768v.766c0 .742-.62 1.084-1.419 1.095.045.539.047 1.08.006 1.619-.302 1.041-1.482 1.191-1.485 2.065-.003.638-.006 2.192-.008 3.186a3.745 3.745 0 0 1-3.739 3.735H70.46a2.95 2.95 0 0 0-2.95 2.95L68.986 221H44.458m161.189-112.418v-2.549c.005-13.099 8.031-28.685 12.053-36.471 6.127-11.244 3.582-25.24-6.113-33.607A28.36 28.36 0 0 0 192.917 29a28.362 28.362 0 0 0-18.671 6.955c-.36.313-.708.636-1.049.965a27.932 27.932 0 0 0-6.535 9.032 20.312 20.312 0 0 0-.195 16.062 8.431 8.431 0 0 1-.856 7.996l-3.347 4.834a1.362 1.362 0 0 0 .616 2.164l2.485.828a1.477 1.477 0 0 1 1.009 1.4 2.458 2.458 0 0 1-.681 1.768v.765c0 .743.62 1.085 1.419 1.096a9.945 9.945 0 0 0-.006 1.619c.302 1.041 1.482 1.191 1.485 2.065l.008 3.186a3.744 3.744 0 0 0 3.738 3.735h7.308a2.95 2.95 0 0 1 2.95 2.95l-1.476 12.162h24.528m0 112.418v-2.546c.005-13.099 8.031-28.686 12.053-36.472 6.127-11.244 3.582-25.24-6.113-33.607a28.36 28.36 0 0 0-18.67-6.955 28.362 28.362 0 0 0-18.671 6.955c-.36.313-.708.637-1.049.965a27.932 27.932 0 0 0-6.535 9.032 20.312 20.312 0 0 0-.195 16.062 8.431 8.431 0 0 1-.856 7.996l-3.347 4.834a1.362 1.362 0 0 0 .616 2.164l2.485.828a1.477 1.477 0 0 1 1.009 1.4 2.456 2.456 0 0 1-.681 1.768v.766c0 .742.62 1.084 1.419 1.095a9.945 9.945 0 0 0-.006 1.619c.302 1.041 1.482 1.191 1.485 2.065l.008 3.186a3.744 3.744 0 0 0 3.738 3.735h7.308a2.95 2.95 0 0 1 2.95 2.95L181.119 221h24.528"/><path fill="#48515A" d="M124.974 211.509a90.332 90.332 0 0 1-64.297-26.633l-2.323-2.105 1.343-1.481 2.359 2.139c34.711 34.748 91.018 34.778 125.766.067a88.926 88.926 0 0 0 26.081-62.917h2c0 50.219-40.71 90.93-90.929 90.93m-90.929-90.93c0-50.218 40.71-90.929 90.928-90.929a90.927 90.927 0 0 1 64.297 26.633l2.324 2.102-1.344 1.483-2.358-2.137c-34.71-34.748-91.017-34.779-125.766-.069a88.932 88.932 0 0 0-26.081 62.917h-2"/><path fill="#48515A" d="M191.922 60.126h-9.992v-2h7.992v-7.992h2v9.992M60.025 191.023h-2v-9.993h9.994v2h-7.994v7.993M59.064 147.06h2v-4h-2zM59.064 157.06h2v-4h-2zM63.064 151.06h4v-2h-4zM53.064 151.06h4v-2h-4zM199.148 197.09h2v-4h-2zM199.148 207.09h2v-4h-2zM203.148 201.09h4v-2h-4zM193.148 201.09h4v-2h-4zM186.089 78.042h2v-4h-2zM186.089 88.042h2v-4h-2zM190.089 82.042h4v-2h-4zM180.089 82.042h4v-2h-4z"/><path fill="#DEDEDD" d="M165.885 182.066l-15.564-6.671-2.674 1.604 8.232 8.232-2.828 2.828-8.111-8.111-1.624 3.267 6.797 16.46 4.833-9.72 8.111 8.111 2.828-2.829-8.232-8.232 8.232-4.939"/><path fill="#48515A" d="M129.74 161.945l10.45 25.309 4.474-8.996 8.387 8.388 1.415-1.415-8.432-8.431 7.654-4.592-23.948-10.263zm10.282 30.14l-14.003-33.911 32.052 13.737-8.811 5.286 8.034 8.034-4.243 4.243-7.834-7.835-5.195 10.446zM33.934 56.012a2.948 2.948 0 0 0-3 2.895v.063a3.019 3.019 0 0 0 2.995 3.042h55.17l6.506-3-6.506-3H33.934zm55.604 8H33.934a5 5 0 1 1 0-10h55.604l10.843 5-10.843 5z"/><path fill="#48515A" d="M39.975 63.012h2v-8h-2z"/><path fill="#48515A" d="M40.975 60.012h48v-2h-48z"/></g></svg>