<?xml version="1.0" encoding="utf-8"?><svg xmlns="http://www.w3.org/2000/svg" width="250" height="250" viewBox="0 0 250 250"><g fill="none" fill-rule="evenodd"><path fill="#F58E70" d="M128.958 221.176s-2.667-45.686-4-51.02h.031c1.105.001 2.032-.894 2.032-1.999v-5l-5.084-6.004-4.916 6.004v5c0 1.105.864 2 1.968 1.999h-.023c-1.333 5.334-4.004 51.02-4.004 51.02"/><path fill="#DFE0E0" d="M107.021 142.162v4.37l14.909 8.5 14.978-8.25.113-7.998v-6.741c0-.566 1.071-1.172 1.598-1.784-.18.157-.397.315-.544.474-2.103 2.261-5.315 4.836-7.474 6.68-1.708 1.459-3.89 2.494-6.136 2.494h-6.492c-2.246 0-4.406-1.035-6.114-2.494-2.06-1.76-5.06-4.103-7.157-6.27-.064-.065-.137-.181-.205-.246.63.67 1.571 1.324 2.338 1.999-.017.008.186-.009.186.011v9.255"/><path fill="#48515A" d="M107.021 146.907a1 1 0 0 1-1-1v-13a1 1 0 1 1 2 0v13a1 1 0 0 1-1 1"/><path fill="#48515A" d="M137.021 146.907a1 1 0 0 1-1-1v-14.198l.178-.257c.409-.591.903-1.169 1.381-1.727.678-.795 1.379-1.617 1.614-2.241l6.043-12.654 6.902-3.511 1.576-7.935a2.653 2.653 0 0 0-.75-1.798c-.425-.438-.959-.679-1.502-.679h-2.574l.203-1.172c.498-2.865.929-5.339.929-7.909l-.051-1.356c.025-3.833-.849-7.77-2.528-11.386a28.731 28.731 0 0 0-8.376-10.73c-5.001-3.943-11.018-6.05-17.4-6.093-7.389-.062-14.489 2.888-19.914 8.276-5.549 5.512-8.732 13.096-8.732 20.81v.479c0 2.638.287 5.079.717 7.932l.173 1.149h-2.375c-1.2 0-2.297 1.172-2.363 2.49l2.241 8.078 6.009 3.494 5.94 12.611c.831 2.222 4.555 5.281 7.273 7.514.67.551 1.307 1.074 1.874 1.559 1.702 1.453 3.643 2.254 5.464 2.254h6.048a1 1 0 1 1 0 2h-6.048c-2.297 0-4.699-.971-6.763-2.734-.558-.476-1.186-.991-1.845-1.533-3.214-2.642-6.858-5.635-7.845-8.285l-5.642-11.97-6.174-3.591-2.535-9.272c0-2.502 1.999-4.615 4.366-4.615h.056c-.348-2.467-.57-4.685-.57-7.081v-.479c0-8.243 3.398-16.345 9.322-22.229 5.805-5.766 13.372-8.937 21.337-8.857 6.831.046 13.271 2.302 18.624 6.523a30.74 30.74 0 0 1 8.457 10.41c.173.35.34.703.5 1.06 1.78 3.833 2.718 8.024 2.709 12.114l.051.334v1.124c0 2.374-.333 4.606-.756 7.081h.198c1.088 0 2.131.456 2.936 1.285a4.61 4.61 0 0 1 1.314 3.326l-.018.166-1.784 8.977-7.162 3.644-5.716 11.962c-.325.874-1.106 1.788-1.932 2.756-.374.437-.758.888-1.08 1.321v13.563a1 1 0 0 1-1 1m-79.115 74.131l-2-.005.115-49.239c0-5.974 3.773-7.875 9.102-9.907l31.137-10.673 5.494-10.307h4.267v2h-3.067l-5.299 9.943-31.851 10.917c-5.28 2.014-7.783 3.468-7.783 8.029l-.115 49.242"/><path fill="#48515A" d="M121.958 156.303l-15.859-8.881a1 1 0 1 1 .978-1.745l14.881 8.334 14.298-8.008a1 1 0 1 1 .978 1.745l-15.276 8.555m66.031 64.733l-2-.001.024-49.118c0-4.453-2.345-6.035-7.953-8.098l-31.853-10.876-6.053-10.036h-3.133v-2h4.263l6.258 10.379 31.186 10.648c5.27 1.939 9.285 3.899 9.285 9.983l-.024 49.119"/><path fill="#48515A" d="M130.958 168.157a1 1 0 0 1-.744-.331l-8.256-9.175-8.257 9.175a1 1 0 0 1-1.487-1.338l9.744-10.826 9.743 10.826a1 1 0 0 1-.743 1.669m-96.937-31.25h42v-26h-42v26zm-2 2h46v-30h-46v30z"/><path fill="#48515A" d="M55.114 125.083c-.186 0-.373-.052-.537-.156l-16.123-10.275a1 1 0 1 1 1.075-1.687l15.583 9.931 14.95-9.59a1 1 0 0 1 1.08 1.684l-15.488 9.935a.993.993 0 0 1-.54.158m18.74 9.895a.998.998 0 0 1-.769-.359l-8.923-10.706a1 1 0 1 1 1.536-1.281l8.924 10.706a1 1 0 0 1-.768 1.64m-37.479 0a1 1 0 0 1-.768-1.64l8.924-10.706a1 1 0 0 1 1.536 1.281l-8.923 10.706a.998.998 0 0 1-.769.359M56.021 154.907h2v-14h-2zM56.96 157.82c-.26 0-.52-.1-.7-.29a.973.973 0 0 1-.29-.71c0-.26.1-.52.29-.7.37-.37 1.04-.37 1.41 0 .19.18.29.44.29.7 0 .27-.1.53-.29.71-.18.19-.44.29-.71.29M65.02 145.907h2v-5h-2zM65.66 149.13c-.27 0-.52-.11-.71-.29-.19-.19-.29-.45-.29-.71 0-.27.1-.52.29-.71.28-.28.72-.37 1.09-.22.12.06.23.13.32.22.19.19.3.45.3.71 0 .26-.11.52-.3.71-.09.09-.2.16-.32.21-.12.05-.25.08-.38.08M47.021 148.907h2v-8h-2zM48.27 152.03c-.26 0-.52-.11-.71-.3a.967.967 0 0 1-.29-.7c0-.27.1-.53.29-.71.37-.37 1.04-.37 1.42 0 .18.19.29.44.29.71 0 .26-.11.51-.29.7-.19.19-.45.3-.71.3M197.021 184.907h2v-4h-2zM197.021 194.907h2v-4h-2zM201.021 188.907h4v-2h-4zM191.021 188.907h4v-2h-4zM66.021 78.907h2v-4h-2zM66.021 88.907h2v-4h-2zM70.021 82.907h4v-2h-4zM60.02 82.907h4v-2h-4z"/><path fill="#475059" d="M43.909 201.907c-1.682 0-3 1.299-3 2.958 0 1.687 1.345 3.042 3 3.042h55.165l6.506-3-6.506-3H43.909zm55.604 8H43.909c-2.757 0-5-2.253-5-5.021 0-2.755 2.243-4.979 5-4.979h55.603l10.844 5-10.843 5z"/><path fill="#475059" d="M49.021 208.907h2v-8h-2z"/><path fill="#475059" d="M50.021 205.907h49v-2h-49zM174.98 131.823c-1.103 0-2 .897-2 2s.897 2 2 2 2-.897 2-2-.897-2-2-2zm0 6c-2.206 0-4-1.794-4-4 0-2.205 1.794-4 4-4s4 1.795 4 4c0 2.206-1.794 4-4 4z"/><path fill="#F58E70" d="M137.98 60.823a2 2 0 1 1-4 0 2 2 0 0 1 4 0"/><path fill="#FFD45C" d="M214.199 63.071c0-16.826-13.64-30.467-30.467-30.467-16.827 0-30.468 13.641-30.468 30.467 0 16.827 13.641 30.468 30.468 30.468 16.827 0 30.467-13.641 30.467-30.468"/><path fill="#48515A" d="M183.522 30.824c-17.896 0-32.456 14.56-32.456 32.457 0 13.288 7.871 25.132 20.051 30.175l.68.282-.067.733a9.365 9.365 0 0 1-3.332 6.334c3.501-.426 6.868-2.172 9.433-4.936l.358-.387.521.077c1.581.236 3.247.268 4.812.268 17.897 0 32.457-14.58 32.457-32.501 0-17.922-14.56-32.502-32.457-32.502zm-16.794 72.083h-4.044v-2c3.383 0 6.313-2.543 6.955-5.908-12.524-5.514-20.573-17.88-20.573-31.718 0-19 15.457-34.457 34.456-34.457 19 0 34.457 15.478 34.457 34.502s-15.457 34.501-34.457 34.501c-1.476 0-3.044-.028-4.587-.219-3.313 3.374-7.733 5.299-12.207 5.299z"/><path fill="#48515A" d="M164.021 58.907h38v-2h-38zM164.021 63.907h38v-2h-38zM164.021 67.907h38v-2h-38z"/><path fill="#475059" d="M203.468 137.715c-5.923 0-10.741 4.818-10.741 10.741s4.818 10.741 10.741 10.741 10.741-4.818 10.741-10.741-4.818-10.741-10.741-10.741zm0 23.482c-7.025 0-12.741-5.716-12.741-12.741 0-7.025 5.716-12.741 12.741-12.741 7.026 0 12.741 5.716 12.741 12.741 0 7.025-5.715 12.741-12.741 12.741z"/><path fill="#475059" d="M203.467 137.715c-2.884 0-5.322 4.919-5.322 10.741s2.438 10.741 5.322 10.741c2.885 0 5.323-4.919 5.323-10.741s-2.438-10.741-5.323-10.741zm0 23.482c-4.106 0-7.322-5.597-7.322-12.741 0-7.145 3.216-12.741 7.322-12.741s7.323 5.596 7.323 12.741c0 7.144-3.217 12.741-7.323 12.741z"/><path fill="#475059" d="M192.021 149.907h23v-2h-23z"/></g></svg>