<?xml version="1.0" encoding="utf-8"?><svg xmlns="http://www.w3.org/2000/svg" xmlns:xlink="http://www.w3.org/1999/xlink" width="192" height="181" viewBox="0 0 192 181"><defs><path id="sla" d="M0 0h2v13.94H0z"/></defs><g fill="none" fill-rule="evenodd"><path fill="#DEDEDD" d="M18.06 166.923h154v-10h-154z"/><path fill="#48515A" d="M16.06 168.922h158v-108h-158v108zm-2 2h162v-112h-162v112z"/><path fill="#DEDEDD" d="M67.188 73.922c-19.882 0-36 16.118-36 36s16.118 36 36 36c19.883 0 36-16.118 36-36-.022-19.873-16.127-35.978-36-36zm0 74c-20.986 0-38-17.013-38-38s17.014-38 38-38c20.987 0 38 17.013 38 38-.023 20.977-17.023 37.976-38 38z"/><path fill="#48515A" d="M67.188 76.922c-18.225 0-33 14.775-33 33s14.775 33 33 33c18.226 0 33-14.775 33-33-.02-18.217-14.783-32.979-33-33zm0 68c-19.33 0-35-15.67-35-35s15.67-35 35-35 35 15.67 35 35c-.022 19.321-15.679 34.978-35 35zm0-74c-21.539 0-39 17.461-39 39s17.461 39 39 39c21.54 0 39-17.461 39-39-.024-21.529-17.47-38.976-39-39zm0 80c-22.643 0-41-18.356-41-41s18.357-41 41-41c22.644 0 41 18.356 41 41-.025 22.633-18.366 40.974-41 41z"/><path fill="#DEDEDD" d="M88.191 109.506H67.06c10.121 0 18.326 8.205 18.326 18.326a5.797 5.797 0 0 1-5.797 5.798h-9.537a2.992 2.992 0 0 1-2.992-2.992v-21.132c-10.122 0-18.327-8.205-18.327-18.327a5.796 5.796 0 0 1 5.797-5.797h9.537a2.993 2.993 0 0 1 2.993 2.991V109.506c-.001-10.122 8.205-18.327 18.326-18.327a5.797 5.797 0 0 1 5.797 5.797v9.538a2.992 2.992 0 0 1-2.991 2.992h-.001zm-39.458 18.327a5.798 5.798 0 0 1-5.798-5.797v-9.538a2.993 2.993 0 0 1 2.992-2.992H67.06c-.001 10.122-8.206 18.327-18.327 18.327zm18.455-48.911c-17.12 0-31 13.879-31 31 0 17.121 13.88 31 31 31 17.121 0 31-13.879 31-31-.019-17.113-13.887-30.981-31-31z"/><path fill="#48515A" d="M54.406 86.382a4.803 4.803 0 0 0-4.797 4.797c.011 9.176 7.166 16.757 16.327 17.299V88.374a1.995 1.995 0 0 0-1.993-1.992h-9.537zm13.53 24.124h-1c-10.669-.012-19.315-8.658-19.327-19.327a6.805 6.805 0 0 1 6.797-6.797h9.537a3.998 3.998 0 0 1 3.993 3.992v22.132z"/><path fill="#48515A" d="M67.936 110.534v20.104a1.993 1.993 0 0 0 1.992 1.991h9.538a4.803 4.803 0 0 0 4.797-4.797c-.012-9.176-7.167-16.757-16.327-17.298zm11.53 24.095h-9.538a3.997 3.997 0 0 1-3.993-3.991v-22.132h1.001c10.668.012 19.314 8.657 19.327 19.326a6.805 6.805 0 0 1-6.797 6.797z"/><path fill="#48515A" d="M45.804 110.506a1.995 1.995 0 0 0-1.993 1.992v9.537a4.804 4.804 0 0 0 4.798 4.798c9.177-.011 16.757-7.166 17.298-16.327H45.804zm2.805 18.327a6.806 6.806 0 0 1-6.798-6.798v-9.537a3.998 3.998 0 0 1 3.993-3.992h22.132v1c-.012 10.669-8.658 19.315-19.327 19.327z"/><path fill="#48515A" d="M67.964 108.506h20.103a1.995 1.995 0 0 0 1.993-1.992v-9.537a4.803 4.803 0 0 0-4.797-4.798c-9.177.011-16.758 7.166-17.299 16.327zm20.103 2H65.936v-1c.011-10.669 8.658-19.315 19.327-19.327a6.805 6.805 0 0 1 6.797 6.798v9.537a3.998 3.998 0 0 1-3.993 3.992zM30.06 178.922h10v-8h-10v8zm-2 2h14v-12h-14v12zm122-2h10v-8h-10v8zm-2 2h14v-12h-14v12z"/><path fill="#DEDEDD" d="M32.06 176.922h6v-4h-6zM152.06 176.922h6v-4h-6z"/><path fill="#5FE0ED" d="M157.068 67.915c6.627 0 12 5.372 12 12 0 6.627-5.373 12-12 12s-12-5.373-12-12c0-6.628 5.373-12 12-12"/><path fill="#48515A" d="M16.06 2.922v39a7.008 7.008 0 0 0 7 7h144a7.009 7.009 0 0 0 7-7v-39h-158zm151 48h-144a9.01 9.01 0 0 1-9-9v-41h162v41c-.006 4.968-4.032 8.995-9 9z"/><path fill="#48515A" d="M26.06 44.922h138v-4h-138v4zm-2 2h142v-8h-142v8z"/><path fill="#DEDEDD" d="M18.06 36.923h154v-32h-154z"/><path fill="#48515A" d="M26.06 19.907h138V8.902h-138v11.005zm-2 2h142V6.902h-142v15.005z"/><path fill="#48515A" d="M33.815 20.686h2v-12.5h-2zM43.821 20.686h2v-12.5h-2zM53.827 20.686h2v-12.5h-2zM63.834 20.686h2v-12.5h-2zM73.84 20.686h2v-12.5h-2zM83.846 20.686h2v-12.5h-2zM93.852 20.686h2v-12.5h-2zM103.857 20.686h2v-12.5h-2zM113.863 20.686h2v-12.5h-2zM123.869 20.686h2v-12.5h-2zM133.876 20.686h2v-12.5h-2zM143.882 20.686h2v-12.5h-2zM153.888 20.686h2v-12.5h-2z"/><path fill="#48515A" d="M24.562 15.936h139.749v-2H24.562zM182.105 49.928h2v-4h-2zM182.105 59.928h2v-4h-2zM186.105 53.928h4v-2h-4zM176.105 53.928h4v-2h-4z"/><g transform="translate(6 167)"><mask id="slb" fill="#fff"><use xlink:href="#sla"/></mask><path fill="#48515A" mask="url(#slb)" d="M0 4h2V0H0zM0 13.94h2V10H0z"/></g><path fill="#48515A" d="M10 175h4v-2h-4zM0 175h4v-2H0z"/><path fill="#5FE0ED" d="M183.162 147.934a4 4 0 1 1 0 8 4 4 0 0 1 0-8"/><path fill="#F58E70" d="M6.965 47.904a2 2 0 1 1 0 4 2 2 0 0 1 0-4m180.108 50.03a2 2 0 1 1 0 4 2 2 0 0 1 0-4"/><path fill="#48515A" d="M113.094 125.065a2.92 2.92 0 0 0-2.999 2.839l-.001.063a3.04 3.04 0 0 0 2.981 3.097l.019.001h67.181l6.507-3-6.507-3h-67.181zm67.621 8h-67.621a5.03 5.03 0 0 1-5-5.049 4.908 4.908 0 0 1 5-4.951h67.621l10.843 5-10.843 5z"/><path fill="#48515A" d="M119.07 132.065h2v-8h-2z"/><path fill="#48515A" d="M120.07 129.065h60v-2h-60z"/><path fill="#DEDEDD" d="M140.976 80.358l-28-12 12.228 29.61 4.833-9.721 7.08 7.08 2.924-2.733-7.297-7.297 8.232-4.939"/><path fill="#FFF" d="M130.97 70.352l-28-12 12.228 29.61 4.833-9.721 8.111 8.111 2.828-2.829-8.232-8.232 8.232-4.939"/><path fill="#48515A" d="M104.83 60.237l10.451 25.309 4.474-8.995 8.387 8.387 1.414-1.415-8.43-8.43 7.652-4.593-23.948-10.263zm10.283 30.141l-14.004-33.912 32.052 13.737-8.81 5.286 8.033 8.035-4.242 4.242-7.834-7.834-5.195 10.446z"/></g></svg>