<?xml version="1.0" encoding="utf-8"?><svg xmlns="http://www.w3.org/2000/svg" width="250" height="250" viewBox="0 0 250 250"><g fill="none" fill-rule="evenodd"><path fill="#DBDBD5" d="M204.547 99.086l4.687 4.687 2.603-1.562-7.29-3.125M205.698 105.894l-6.801-6.801-4.833 9.721-7.136-17.279-3.091-1.324 12.228 29.61 4.833-9.721 7.081 7.08 2.923-2.733-7.297-7.297 2.093-1.256"/><path fill="#4193A9" d="M181.836 79.204l5.18 2.22V69.825h-126v34.999h126V91.748l-5.18-12.544"/><path fill="#42494E" d="M166.844 148.813h49.172c1.654 0 3-1.346 3-3s-1.346-3-3-3h-49.172l-6.505 3 6.505 3zm49.172 2h-49.61l-10.843-5 10.843-5h49.61c2.756 0 5 2.243 5 5s-2.244 5-5 5z"/><path fill="#42494E" d="M208.406 149.813h2v-7.599h-2z"/><path fill="#42494E" d="M167.394 146.784h42.012v-2h-42.012z"/><path fill="#DBDBD5" d="M55.016 51.26H193V39.821H55.016z"/><path fill="#42494E" d="M194.016 208.825H54.032v-65h2v63h135.984v-4h2v6M62.252 44.612a1.408 1.408 0 0 0 0 2.814c.776 0 1.407-.631 1.407-1.407s-.631-1.407-1.407-1.407zm0 4.814a3.41 3.41 0 0 1-3.406-3.407 3.41 3.41 0 0 1 3.406-3.407 3.411 3.411 0 0 1 3.407 3.407 3.411 3.411 0 0 1-3.407 3.407zm9.627-4.814a1.408 1.408 0 0 0 0 2.814c.776 0 1.407-.631 1.407-1.407s-.631-1.407-1.407-1.407zm0 4.814a3.41 3.41 0 0 1-3.406-3.407 3.41 3.41 0 0 1 3.406-3.407 3.411 3.411 0 0 1 3.407 3.407 3.411 3.411 0 0 1-3.407 3.407zm9.628-4.814c-.776 0-1.407.631-1.407 1.407s.631 1.407 1.407 1.407 1.407-.631 1.407-1.407-.631-1.407-1.407-1.407zm0 4.814a3.411 3.411 0 0 1-3.407-3.407 3.411 3.411 0 0 1 3.407-3.407 3.412 3.412 0 0 1 3.407 3.407 3.412 3.412 0 0 1-3.407 3.407zM65.802 134.445l-1.414-1.414 22.921-22.921 1.414 1.414-22.921 22.921"/><path fill="#42494E" d="M65.1 138.817v-2h21.916v-25h-22v-2h24v29H65.1"/><path fill="#42494E" d="M87.309 138.524l-22.996-22.996 1.414-1.414 22.996 22.996-1.414 1.414M61.016 143.817h16v-2h-16zM61.016 147.819h12.998v-2H61.016zM95.017 136.817h24.999v-25H95.017v25zm-2 2h28.999v-29H93.017v29z"/><path fill="#42494E" d="M120.309 138.524l-26.999-27 1.414-1.414 26.999 27-1.414 1.414"/><path fill="#42494E" d="M94.724 138.524l-1.414-1.414 26.999-27 1.414 1.414-26.999 27M94.036 143.817h16v-2h-16zM94.036 147.819h12.998v-2H94.036zM128.016 136.817h25v-25h-25v25zm-2 2h29v-29h-29v29z"/><path fill="#42494E" d="M153.309 138.524l-27-27 1.414-1.414 27 27-1.414 1.414"/><path fill="#42494E" d="M127.723 138.524l-1.414-1.414 27-27 1.414 1.414-27 27M127.056 143.817h16v-2h-16zM127.056 147.819h12.998v-2h-12.998zM161.017 136.817h24.999v-25h-24.999v25zm-2 2h28.999v-29h-28.999v29z"/><path fill="#42494E" d="M186.309 138.524l-26.999-27 1.414-1.414 26.999 27-1.414 1.414"/><path fill="#42494E" d="M160.724 138.524l-1.414-1.414 26.999-27 1.414 1.414-26.999 27M62.016 62.825h124v-6h-124v6zm-2 2h128v-10h-128v10zm6 35h25v-25h-25v25zm-2 2h29v-29h-29v29z"/><path fill="#42494E" d="M91.309 101.532l-27-27 1.414-1.414 27 27-1.414 1.414"/><path fill="#42494E" d="M65.723 101.532l-1.414-1.414 27-27 1.414 1.414-27 27M119.016 80.825h38v-2h-38zM119.016 84.825h26v-2h-26zM119.016 90.825h38v-2h-38zM119.016 94.825h26v-2h-26zM161.021 60.825h22.996v-2h-22.996zM62.016 154.843v25h25v-25.001l-25 .001zm-2 27v-29l29-.001v29.001h-29z"/><path fill="#42494E" d="M87.309 181.55l-27-27 1.414-1.414 27 27-1.414 1.414"/><path fill="#42494E" d="M61.723 181.55l-1.414-1.414 27-27.001 1.414 1.414-27 27.001M61.016 186.843h16v-2h-16zM61.016 190.845h12.998v-2H61.016zM95.017 154.843v25h24.999v-25.001l-24.999.001zm-2 27v-29l28.999-.001v29.001H93.017z"/><path fill="#42494E" d="M120.309 181.55l-26.999-27 1.414-1.414 26.999 27-1.414 1.414"/><path fill="#42494E" d="M94.724 181.55l-1.414-1.414 26.999-27.001 1.414 1.414-26.999 27.001M94.036 186.843h16v-2h-16zM94.036 190.845h12.998v-2H94.036zM128.016 154.843v25h25v-25.001l-25 .001zm-2 27v-29l29-.001v29.001h-29z"/><path fill="#42494E" d="M153.309 181.55l-27-27 1.414-1.414 27 27-1.414 1.414"/><path fill="#42494E" d="M127.723 181.55l-1.414-1.414 27-27.001 1.414 1.414-27 27.001M127.056 186.843h16v-2h-16zM127.056 190.845h12.998v-2h-12.998zM161.017 156.257l11.085 11.086-11.085 11.086v-22.172zm23.585-1.415l-11.086 11.087-11.085-11.086 22.171-.001zm1.414 23.587l-11.086-11.086 11.086-11.087v22.173zm-1.492 1.414h-22.093l11.085-11.086 11.008 11.008v-.941h3.492v-25.982l-28.999.001v29h25.507v-2zM160.076 186.843h16v-2h-16zM160.076 190.845h12.998v-2h-12.998z"/><path fill="#4193A9" d="M103.016 201.825h42v-6h-42z"/><path fill="#42494E" d="M192.016 83.567l2 .857V38.801H54.032v67.024h2V40.801h135.984v42.766M192.016 103.855v66.963h2v-62.12l-2-4.843"/><path fill="#434A4F" d="M183.697 81.089l10.451 25.309 4.473-8.995 8.387 8.387 1.414-1.415-8.431-8.43 7.654-4.592-23.948-10.264zm10.282 30.14l-14.003-33.91 32.052 13.736-8.811 5.287 8.033 8.033-4.242 4.243-7.835-7.834-5.194 10.445z"/><path fill="#42494E" d="M64.441 130.198l-1.901-.62.329-1.011-1.275-.415a3.614 3.614 0 0 1-2.532-3.493 3.614 3.614 0 0 1 2.539-3.488l1.276-.413-.7-2.162-1.276.413a3.615 3.615 0 0 1-4.102-1.337 3.615 3.615 0 0 1 .004-4.314l.79-1.085-1.837-1.337-.789 1.085a3.613 3.613 0 0 1-4.105 1.329 3.617 3.617 0 0 1-2.533-3.493l.002-1.341-2.272-.002-.002 1.34a3.616 3.616 0 0 1-2.539 3.489c-1.542.498-3.152-.026-4.102-1.338l-.788-1.086-1.839 1.334.788 1.086a3.617 3.617 0 0 1-.005 4.315 3.618 3.618 0 0 1-4.104 1.328l-1.276-.415-.329 1.01-1.901-.62.949-2.912 3.177 1.036c.849.277 1.522-.13 1.868-.605.345-.474.526-1.239.001-1.963l-1.961-2.705 5.078-3.682 1.961 2.706c.524.724 1.307.788 1.867.608.558-.181 1.154-.693 1.155-1.587l.004-3.341 6.271.006-.003 3.341c-.001.894.595 1.408 1.152 1.589.558.18 1.342.119 1.869-.605l1.966-2.701 5.071 3.692-1.967 2.701c-.526.723-.346 1.488-.002 1.964.345.474 1.017.882 1.867.608l3.179-1.029 1.931 5.966-3.178 1.03c-.851.276-1.155 1.001-1.155 1.587-.001.587.301 1.312 1.152 1.589l3.177 1.036-.95 2.912"/><path fill="#4193A9" d="M55.237 127.274l-1.901-.62a6.432 6.432 0 0 0-.384-4.941 6.43 6.43 0 0 0-3.766-3.223 6.485 6.485 0 0 0-8.165 4.15l-1.901-.62c1.448-4.444 6.241-6.88 10.686-5.431a8.425 8.425 0 0 1 4.929 4.218 8.417 8.417 0 0 1 .502 6.467"/><path fill="#4193A9" d="M47.21 133.059c-.883 0-1.772-.14-2.636-.422a8.42 8.42 0 0 1-4.929-4.219 8.417 8.417 0 0 1-.502-6.467l1.901.62a6.432 6.432 0 0 0 .384 4.941 6.43 6.43 0 0 0 3.766 3.223c1.644.537 3.4.4 4.941-.383a6.436 6.436 0 0 0 3.223-3.766l1.902.62a8.42 8.42 0 0 1-4.219 4.929 8.43 8.43 0 0 1-3.831.924"/><path fill="#42494E" d="M50.318 142.714l-6.272-.006.004-3.341c.001-.895-.595-1.408-1.153-1.59-.558-.182-1.341-.119-1.867.605l-1.968 2.701-5.069-3.692 1.966-2.701c.527-.724.347-1.489.002-1.963-.344-.475-1.015-.884-1.866-.609l-3.18 1.029-1.931-5.967 3.179-1.029c.851-.276 1.155-1.001 1.155-1.587.001-.587-.301-1.313-1.152-1.59l-3.176-1.036 1.066-3.271 1.901.621-.446 1.369 1.275.416a3.614 3.614 0 0 1 2.532 3.493 3.616 3.616 0 0 1-2.539 3.488l-1.276.413.7 2.161 1.276-.413c1.541-.5 3.15.027 4.102 1.338a3.617 3.617 0 0 1-.005 4.314l-.789 1.084 1.836 1.338.79-1.085a3.614 3.614 0 0 1 4.104-1.329 3.618 3.618 0 0 1 2.533 3.494l-.002 1.341 2.272.002.002-1.341a3.616 3.616 0 0 1 2.539-3.488 3.615 3.615 0 0 1 4.102 1.338l.788 1.086 1.839-1.333-.787-1.086a3.617 3.617 0 0 1 .004-4.315 3.62 3.62 0 0 1 4.105-1.329l1.275.416.495-1.516 1.901.62-1.115 3.418-3.176-1.036c-.849-.277-1.522.13-1.868.604-.345.475-.527 1.24-.002 1.964l1.961 2.705-5.078 3.681-1.961-2.705c-.525-.725-1.309-.791-1.867-.609-.558.181-1.154.693-1.155 1.587l-.004 3.341"/><path fill="#4193A9" d="M51.136 124.713a4 4 0 1 1-8 0 4 4 0 0 1 8 0"/><path fill="#4193A9" d="M47.136 121.213c-1.93 0-3.5 1.57-3.5 3.5s1.57 3.5 3.5 3.5c1.929 0 3.5-1.57 3.5-3.5s-1.571-3.5-3.5-3.5zm0 8a4.505 4.505 0 0 1-4.5-4.5c0-2.482 2.018-4.5 4.5-4.5 2.481 0 4.5 2.018 4.5 4.5 0 2.481-2.019 4.5-4.5 4.5z"/><path fill="#42494E" d="M185.524 183.317h3.493v-3.493h-3.493v3.493zm-2 2h7.493v-7.493h-7.493v7.493z"/><path fill="#42494E" d="M190.742 179.536l-1.414-1.414 13.034-13.034 1.414 1.414-13.034 13.034"/><path fill="#42494E" d="M205.017 161.824c-1.103 0-2 .897-2 2s.897 2 2 2 2-.897 2-2-.897-2-2-2zm0 6c-2.206 0-4-1.794-4-4 0-2.205 1.794-4 4-4 2.205 0 4 1.795 4 4 0 2.206-1.795 4-4 4zM172.275 198.002l-1.414-1.414 13.035-13.034 1.414 1.414-13.035 13.034"/><path fill="#42494E" d="M169.625 197.27h-.002a2.003 2.003 0 0 0-2.001 2c0 .532.207 1.032.584 1.409.377.376.877.584 1.411.584h.003a2.005 2.005 0 0 0 2.001-2c0-.533-.207-1.034-.584-1.409a1.982 1.982 0 0 0-1.412-.584zm-.008 5.993a3.97 3.97 0 0 1-2.825-1.169 3.968 3.968 0 0 1-1.17-2.824v-.001a4.006 4.006 0 0 1 3.999-3.999h.004c1.068 0 2.071.415 2.826 1.168a3.966 3.966 0 0 1 1.17 2.825 4.008 4.008 0 0 1-3.999 4h-.005zM201.246 196.79l-12.714-12.714 1.414-1.414 12.714 12.714-1.414 1.414"/><path fill="#42494E" d="M201.956 198.084c-.53 0-1.04-.209-1.42-.589-.09-.091-.17-.19-.25-.301-.07-.11-.13-.23-.18-.349-.05-.12-.09-.241-.11-.37a2.02 2.02 0 0 1 .54-1.81c.75-.741 2.09-.741 2.83 0 .37.379.59.89.59 1.419 0 .52-.22 1.041-.59 1.411-.37.38-.89.589-1.41.589M205.137 211.199l-2.741-2.741 11.583-11.583 2.741 2.741-1.414 1.414-1.327-1.326-8.754 8.754 1.326 1.327-1.414 1.414"/><path fill="#42494E" d="M206.332 206.744l-10.001-1.815-8.933-21.126 2.231-2.231 21.127 8.933 1.813 10.001-1.967.357-1.622-8.937-18.889-7.987-.326.326 7.987 18.89 8.937 1.621-.357 1.968"/><path fill="#434A4F" d="M207.019 67.819h2v-4h-2zM207.019 77.819h2v-4h-2zM211.019 71.819h4v-2h-4zM201.019 71.819h4v-2h-4zM39.919 177.885h2v-4h-2zM39.919 187.885h2v-4h-2zM43.919 181.885h4v-2h-4zM33.919 181.885h4v-2h-4z"/><path fill="#4193A9" d="M203.766 129.325a2.75 2.75 0 1 1 0-5.5 2.75 2.75 0 0 1 0 5.5m-157.5-55.5a2.75 2.75 0 1 1 0-5.5 2.75 2.75 0 0 1 0 5.5m0 88a2.75 2.75 0 1 1 0-5.5 2.75 2.75 0 0 1 0 5.5"/></g></svg>