<?xml version="1.0" encoding="utf-8"?><svg xmlns="http://www.w3.org/2000/svg" width="191" height="194" viewBox="0 0 191 194"><g fill="none" fill-rule="evenodd"><path fill="#475059" d="M50.041 100.198h12.306l9.055 10.03 12.085-5.006-.69-13.496 8.702-8.701 13.496.69L110 71.63l-10.03-9.055V50.269L110 41.214l-5.005-12.085-13.496.689-8.702-8.701.69-13.496-12.085-5.005-9.055 10.03H50.041l-9.055-10.03-12.085 5.006.689 13.495-8.701 8.701-13.495-.689-5.006 12.085 10.029 9.055v12.306L2.388 71.63l5.006 12.085 13.495-.69 8.701 8.702-.689 13.495 12.085 5.006 9.055-10.03zm20.822 12.418l-9.405-10.418H50.93l-9.405 10.418-14.694-6.086.716-14.017-7.444-7.445-14.017.716L0 71.091l10.418-9.405V51.158L0 41.753 6.086 27.06l14.017.715 7.444-7.444-.716-14.017L41.525.228l9.405 10.418h10.528L70.863.228l14.693 6.086-.716 14.017 7.445 7.444 14.016-.715 6.087 14.693-10.418 9.405v10.528l10.418 9.405-6.087 14.693-14.016-.716-7.445 7.445.716 14.017-14.693 6.086z"/><path fill="#475059" d="M56.194 43.422c-7.18 0-13 5.82-13 13s5.82 13 13 13 13-5.82 13-13c-.008-7.177-5.824-12.992-13-13zm0 28c-8.284 0-15-6.716-15-15 0-8.284 6.716-15 15-15 8.284 0 15 6.716 15 15-.009 8.28-6.72 14.991-15 15z"/><path fill="#475059" d="M56.194 39.422c-9.389 0-17 7.611-17 17s7.611 17 17 17 17-7.611 17-17c-.011-9.385-7.616-16.99-17-17zm0 36c-10.494 0-19-8.507-19-19 0-10.494 8.506-19 19-19 10.493 0 19 8.506 19 19-.012 10.488-8.512 18.988-19 19z"/><path fill="#F58E70" d="M56.194 45.422c-6.075 0-11 4.925-11 11s4.925 11 11 11 11-4.925 11-11c-.007-6.072-4.928-10.993-11-11"/><path fill="#DEDEDD" d="M56.194 77.422c-11.598 0-21-9.402-21-21s9.402-21 21-21 21 9.402 21 21c-.013 11.592-9.408 20.987-21 21zm0-47c-14.36 0-26 11.64-26 26 0 14.359 11.64 26 26 26 14.359 0 26-11.641 26-26-.016-14.353-11.647-25.984-26-26z"/><path fill="#DEDEDD" d="M56.194 90.422c-18.778 0-34-15.222-34-34s15.222-34 34-34c18.777 0 34 15.222 34 34-.021 18.769-15.231 33.979-34 34zM97.97 49.38l9.642-8.705-3.925-9.477-12.974.663-9.958-9.959.663-12.973-9.478-3.925-8.704 9.642H49.152l-8.705-9.642-9.477 3.925.663 12.973-9.959 9.959-12.973-.663-3.925 9.477 9.641 8.705v14.084l-9.641 8.704 3.925 9.478 12.973-.663 9.959 9.958-.663 12.974 9.477 3.925 8.705-9.642h14.084l8.704 9.642 9.478-3.925-.663-12.974 9.958-9.958 12.974.663 3.925-9.478-9.642-8.704V49.38z"/><path fill="#475059" d="M126.7 192h13.08l4.528-12.732 11.369-4.709 12.204 5.801 9.249-9.249-5.8-12.204 4.709-11.369 12.731-4.528v-13.081l-12.731-4.527-4.709-11.369 5.8-12.204-9.249-9.25-12.204 5.801-11.369-4.709-4.528-12.732H126.7l-4.529 12.732-11.369 4.709-12.203-5.801-9.249 9.25 5.8 12.204-4.709 11.369-12.731 4.527v13.081l12.731 4.528 4.709 11.369-5.8 12.204 9.249 9.249 12.203-5.801 11.369 4.709L126.7 192zm14.492 2h-15.904l-4.703-13.224-9.726-4.029-12.676 6.025-11.246-11.245 6.026-12.676-4.029-9.726-13.224-4.704v-15.903l13.224-4.703 4.029-9.726-6.026-12.676 11.246-11.246 12.676 6.026 9.726-4.029 4.703-13.225h15.904l4.702 13.225 9.727 4.029 12.676-6.026 11.245 11.246-6.025 12.676 4.029 9.726 13.224 4.703v15.903l-13.224 4.703-4.029 9.727 6.025 12.676-11.245 11.245-12.676-6.025-9.727 4.029L141.192 194z"/><path fill="#475059" d="M133.24 123.463c-7.196-.012-13.039 5.811-13.051 13.007-.012 7.196 5.811 13.039 13.007 13.051 7.195.012 13.038-5.811 13.051-13.007a13.03 13.03 0 0 0-13.007-13.051zm.001 28.015c-8.294.013-15.029-6.7-15.042-14.994-.014-8.294 6.699-15.028 14.993-15.042 8.295-.013 15.029 6.7 15.042 14.994a15.017 15.017 0 0 1-14.993 15.042z"/><path fill="#475059" d="M133.241 119.46c-9.394-.006-17.015 7.605-17.021 16.999-.006 9.394 7.604 17.014 16.998 17.02 9.395.007 17.015-7.604 17.021-16.998a17.005 17.005 0 0 0-1.293-6.517 17.04 17.04 0 0 0-15.705-10.504zm.024 36.01c-10.493.013-19.01-8.482-19.024-18.975-.013-10.492 8.482-19.01 18.975-19.023 10.493-.014 19.01 8.481 19.023 18.974a18.998 18.998 0 0 1-18.974 19.024z"/><path fill="#F58E70" d="M129.031 126.307c-5.613 2.325-8.278 8.76-5.954 14.372 2.325 5.613 8.76 8.278 14.373 5.954 5.612-2.325 8.278-8.76 5.953-14.373-2.33-5.607-8.76-8.27-14.372-5.953"/><path fill="#DEDEDD" d="M141.276 155.871c-10.715 4.439-22.999-.65-27.437-11.365-4.439-10.715.65-22.999 11.365-27.438 10.715-4.438 22.999.65 27.438 11.365 4.424 10.716-.66 22.99-11.366 27.438zm-17.986-43.422c-13.266 5.495-19.566 20.704-14.071 33.971 5.495 13.266 20.704 19.566 33.971 14.071 13.266-5.495 19.566-20.705 14.071-33.971-5.508-13.254-20.704-19.549-33.971-14.071z"/><path fill="#DEDEDD" d="M146.251 167.882c-17.348 7.186-37.237-1.053-44.423-18.401s1.053-37.237 18.401-44.423 37.237 1.052 44.423 18.401c7.163 17.348-1.069 37.221-18.401 44.423zm22.891-53.905l5.576-11.732-7.253-7.254-11.732 5.577-13.012-5.389-4.352-12.239h-10.258l-4.352 12.239-13.012 5.389-11.732-5.576-7.253 7.253 5.577 11.732-5.39 13.011-12.239 4.353v10.258l12.239 4.352 5.39 13.012-5.577 11.732 7.253 7.253 11.732-5.577 13.011 5.389 4.353 12.24h10.258l4.352-12.239 13.012-5.39 11.732 5.577 7.253-7.253-5.577-11.733 5.39-13.011 12.24-4.353-.001-10.257-12.239-4.352-5.389-13.012z"/><path fill="#475059" d="M131.428 67.969h3.577l1.775-4.023 3.296-1.903 4.371.475 1.788-3.098-2.597-3.548v-3.805l2.597-3.548-1.788-3.099-4.371.475-3.296-1.902-1.775-4.024h-3.577l-1.774 4.024-3.296 1.902-4.371-.475-1.789 3.099 2.597 3.547v3.806l-2.597 3.548 1.789 3.099 4.371-.475 3.296 1.902 1.774 4.023zm4.882 2h-6.186l-2.037-4.618-2.163-1.249-5.017.546-3.094-5.357 2.982-4.073v-2.497l-2.982-4.074 3.094-5.356 5.017.545 2.163-1.249 2.037-4.618h6.186l2.036 4.618 2.163 1.249 5.018-.545 3.093 5.356-2.982 4.073v2.498l2.982 4.073-3.093 5.356-5.018-.545-2.163 1.249-2.036 4.618z"/><path fill="#475059" d="M133.216 51.969a2 2 0 1 0 .001 4.001 2 2 0 0 0-.001-4.001zm0 6a4 4 0 1 1 0-8 4 4 0 0 1 0 8z"/><path fill="#475059" d="M133.216 47.969a6 6 0 1 0 6 6 6.006 6.006 0 0 0-6-6zm0 14a8 8 0 1 1 8-8 8.01 8.01 0 0 1-8 8z"/><path fill="#48515A" d="M33.265 136.037h2v-4h-2zM33.265 146.037h2v-4h-2zM37.265 140.037h4v-2h-4zM27.265 140.037h4v-2h-4zM173.348 65.995h2v-4h-2zM173.348 75.995h2v-4h-2zM177.348 69.995h4v-2h-4zM167.348 69.995h4v-2h-4z"/><path fill="#5FE0ED" d="M14.206 115.025a4 4 0 1 1 0 8 4 4 0 0 1 0-8M154.29 69.998a4 4 0 1 1 0 8 4 4 0 0 1 0-8"/><path fill="#F58E70" d="M54.23 167.055a2 2 0 1 1-.001 4.001 2 2 0 0 1 .001-4.001"/></g></svg>