<?xml version="1.0" encoding="utf-8"?><svg xmlns="http://www.w3.org/2000/svg" xmlns:xlink="http://www.w3.org/1999/xlink" width="193" height="167" viewBox="0 0 193 167"><defs><path id="sda" d="M.002.998h150V124.94h-150z"/></defs><g fill="none" fill-rule="evenodd"><path fill="#DEDEDD" d="M189.032 131.359l-28-12 12.228 29.609 4.833-9.72 7.081 7.08 2.923-2.733-7.297-7.297 8.232-4.939M28.001 46.999l16 79v-79h-16"/><g transform="translate(20 42)"><mask id="sdb" fill="#fff"><use xlink:href="#sda"/></mask><path fill="#48515A" d="M145.002 103.001l-140-.002a5.006 5.006 0 0 1-5-5V5.998a5.006 5.006 0 0 1 5-5H24v2H5.002a3.004 3.004 0 0 0-3 3v92.001a3.004 3.004 0 0 0 3 3l140 .002a3.004 3.004 0 0 0 3-3V5.998a3.004 3.004 0 0 0-3-3h-18.999v-2h18.999a5.006 5.006 0 0 1 5 5v92.003a5.006 5.006 0 0 1-5 5" mask="url(#sdb)"/><path fill="#48515A" d="M56.001 123h38.001v-.834L91 103.999v-1H59.003l-.013.995-2.989 18.171V123zm40.001 2H54.001l.014-3.079 2.988-18.171v-2.751H93v2.918l3.002 18.167V125z" mask="url(#sdb)"/><path fill="#48515A" mask="url(#sdb)" d="M49.002 124.94h52v-1.941h-52z"/></g><path fill="#DEDEDD" d="M78.22 163h33.562l-2.656-16.001H80.851L78.22 163M24.002 127.999v12c.001.552.448.999 1 1h140a1.002 1.002 0 0 0 1-1v-12h-142"/><path fill="#48515A" d="M184.003 84.975h2v-4h-2zM184.003 94.975h2v-4h-2zM188.003 88.975h4v-2h-4zM178.003 88.975h4v-2h-4zM6 55h2v-4H6zM6 65h2v-4H6zM10 59h4v-2h-4zM0 59h4v-2H0zM20.002 155.013h2v-4h-2zM20.002 165.013h2v-4h-2zM24.002 159.013h4v-2h-4zM14.002 159.013h4v-2h-4z"/><path fill="#FFD15D" d="M164.433 32.061a2.437 2.437 0 1 1 .002 4.874 2.437 2.437 0 0 1-.002-4.874"/><path fill="#FFD15D" d="M164.434 32.561a1.938 1.938 0 1 0 0 3.875 1.938 1.938 0 0 0 0-3.875zm0 4.875a2.938 2.938 0 1 1 0-5.876 2.938 2.938 0 0 1 0 5.876z"/><path fill="#5FE0ED" d="M15.458 19.5a2.438 2.438 0 1 1 0 4.876 2.438 2.438 0 0 1 0-4.876"/><path fill="#FFD15D" d="M57.744 155.26a2.937 2.937 0 1 1 .001 5.875 2.937 2.937 0 0 1-.001-5.875"/><path fill="#DEDEDD" d="M146.072 125.999l16-79h-16v79M121.504 109.966h16v-20h-16v20zm-45.998 0h16v-20h-16v20zm-23.001 0h18v-20h-18v20zm-3.014-22.001v38.003h44.014V89.966h26v36.002h21V87.965H49.491z"/><path fill="#DEDEDD" d="M99.505 121.966h14v-26h-14z"/><path fill="#475059" d="M144.504 80.964h-2V18.998H47.491v61.966h-2V16.998h99.013v63.966M45.491 125.966h2V84.964h-2zM142.505 125.966h2V84.964h-2z"/><path fill="#475059" d="M79.491 69.966h8V53.662a12.345 12.345 0 0 0-8 0v16.304zm10 2h-12V52.289l.629-.252a14.388 14.388 0 0 1 10.743 0l.628.252v19.677z"/><path fill="#475059" d="M74.491 71.964h18v-2h-18zM102.505 69.966h8V53.662a12.358 12.358 0 0 0-8 0v16.304zm10 2h-12V52.289l.628-.252a14.388 14.388 0 0 1 10.743 0l.629.252v19.677z"/><path fill="#475059" d="M97.505 71.964h18v-2h-18zM125.519 69.966h8V53.662a12.358 12.358 0 0 0-8 0v16.304zm10 2h-12V52.289l.628-.252a14.388 14.388 0 0 1 10.743 0l.629.252v19.677z"/><path fill="#475059" d="M120.519 71.964h18v-2h-18zM44.491 83.964h101.014v-2H44.491v2zm-2 2h105.014v-6H42.491v6zm37 24.029h8V93.689a12.371 12.371 0 0 0-8 0v16.304zm10 2h-12V92.316l.629-.252a14.398 14.398 0 0 1 10.743 0l.628.252v19.677z"/><path fill="#475059" d="M74.491 111.992h18v-2h-18zM125.519 109.993h8V93.689a12.371 12.371 0 0 0-8 0v16.304zm10 2h-12V92.316l.628-.252a14.398 14.398 0 0 1 10.743 0l.629.252v19.677z"/><path fill="#475059" d="M120.519 111.992h18v-2h-18zM107.508 124.001h8V93.993h-8v30.008zm-2 2h12V91.993h-12v34.008z"/><path fill="#475059" d="M97.502 124.001h8V93.993h-8v30.008zm-2 2h12V91.993h-12v34.008z"/><path fill="#DEDEDD" d="M49.491 77.966h91.014v-4H49.491z"/><path fill="#475059" d="M79.491 41.948h8V25.645a12.371 12.371 0 0 0-8 0v16.303zm10 2h-12V24.271l.629-.251a14.408 14.408 0 0 1 10.743 0l.628.251v19.677z"/><path fill="#475059" d="M74.491 43.947h18v-2h-18zM102.505 41.948h8V25.645a12.385 12.385 0 0 0-8 0v16.303zm10 2h-12V24.271l.628-.251a14.408 14.408 0 0 1 10.743 0l.629.251v19.677z"/><path fill="#475059" d="M97.505 43.947h18v-2h-18zM125.519 41.948h8V25.645a12.385 12.385 0 0 0-8 0v16.303zm10 2h-12V24.271l.628-.251a14.408 14.408 0 0 1 10.743 0l.629.251v19.677z"/><path fill="#475059" d="M120.519 43.947h18v-2h-18z"/><path fill="#DEDEDD" d="M49.487 49.949h91.018v-4H49.487z"/><path fill="#475059" d="M43.772 16.998h102.453l-3.503-14H47.275l-3.503 14zm105.014 2H41.211l4.502-18h98.571l4.502 18z"/><path fill="#F58E70" d="M46.334 14.999h97.329l-2.502-10H48.836l-2.502 10"/><path fill="#475059" d="M56.477 69.966h8V53.662a12.358 12.358 0 0 0-8 0v16.304zm10 2h-12V52.289l.628-.252a14.391 14.391 0 0 1 10.744 0l.628.252v19.677z"/><path fill="#475059" d="M51.477 71.964h18v-2h-18zM56.477 41.948h8V25.645a12.385 12.385 0 0 0-8 0v16.303zm10 2h-12V24.271l.628-.251a14.41 14.41 0 0 1 10.744 0l.628.251v19.677z"/><path fill="#475059" d="M51.477 43.947h18v-2h-18zM57.478 109.993h8V93.689a12.371 12.371 0 0 0-8 0v16.304zm10 2h-12V92.316l.628-.252a14.4 14.4 0 0 1 10.744 0l.628.252v19.677z"/><path fill="#475059" d="M52.478 111.992h18v-2h-18z"/><path fill="#FFF" d="M179.026 121.353l-28-12 12.228 29.609 4.833-9.72 8.111 8.111 2.828-2.829-8.232-8.232 8.232-4.939"/><path fill="#48515A" d="M152.887 111.238l10.451 25.309 4.473-8.995 8.387 8.386 1.414-1.414-8.43-8.43 7.653-4.593-23.948-10.263zm10.282 30.141l-14.003-33.912 32.052 13.737-8.811 5.286 8.033 8.034-4.242 4.243-7.834-7.834-5.195 10.446z"/><path fill="#475059" d="M21.375 82.035c-5.933 0-10.742 4.809-10.742 10.741 0 5.932 4.809 10.742 10.742 10.742 5.932 0 10.741-4.81 10.741-10.742-.007-5.929-4.812-10.734-10.741-10.741zm0 23.483c-7.037 0-12.742-5.705-12.742-12.742 0-7.036 5.705-12.741 12.742-12.741 7.036 0 12.741 5.705 12.741 12.741-.008 7.034-5.708 12.733-12.741 12.742z"/><path fill="#475059" d="M21.373 82.035c-2.884 0-5.322 4.919-5.322 10.741 0 5.823 2.438 10.742 5.322 10.742 2.885 0 5.323-4.919 5.323-10.742 0-5.822-2.438-10.741-5.323-10.741zm0 23.483c-4.106 0-7.322-5.597-7.322-12.742 0-7.144 3.217-12.741 7.322-12.741 4.106 0 7.323 5.597 7.323 12.741 0 7.145-3.217 12.742-7.323 12.742z"/><path fill="#475059" d="M9.633 93.776h23.482v-2H9.633z"/></g></svg>