<?xml version="1.0" encoding="utf-8"?><svg xmlns="http://www.w3.org/2000/svg" xmlns:xlink="http://www.w3.org/1999/xlink" width="188" height="184" viewBox="0 0 188 184"><defs><path id="hua" d="M.06.971H14v2H.06z"/></defs><g fill="none" fill-rule="evenodd"><path fill="#DEDEDD" d="M105.904 20.454l3.977-7.897 5.171 1.675-1.407 8.73 4.669 2.373 6.222-6.282 4.401 3.191-4.036 7.868 3.707 3.7 7.86-4.051 1.73 2.377-12.033 12.034a34.46 34.46 0 0 0-26.406-16.453l.002 42.481-6.115-.024-.002-42.457a34.48 34.48 0 0 0-27.792 18.946l-5.993-5.992.109-.215-6.282-6.223 3.19-4.401 7.868 4.037 3.7-3.707-4.052-7.86 4.394-3.199 6.236 6.271 4.664-2.383-1.425-8.727 5.168-1.685 3.993 7.891 5.171-.825 1.342-8.74 5.436-.005 1.359 8.738 5.174.814m0 138.253l3.977 7.897 5.171-1.675-1.407-8.73 4.669-2.373 6.222 6.282 4.401-3.191-4.036-7.868 3.707-3.7 7.86 4.052 1.73-2.378-12.033-12.034a34.46 34.46 0 0 1-26.406 16.454l.002-42.482-6.115.025-.002 42.457a34.484 34.484 0 0 1-27.792-18.947l-5.993 5.993.109.215-6.282 6.223 3.19 4.4 7.868-4.036 3.7 3.707-4.052 7.86 4.394 3.199 6.236-6.271 4.664 2.382-1.425 8.728 5.168 1.684 3.993-7.89 5.171.824 1.342 8.74 5.436.005 1.359-8.738 5.174-.814M27.038 79.082l-7.897-3.977 1.675-5.171 8.73 1.408 2.373-4.669-6.282-6.223 3.191-4.401 7.868 4.036 3.7-3.707-4.051-7.86 2.377-1.73 12.034 12.033a34.461 34.461 0 0 0-16.453 26.406l42.481-.002-.025 6.116-42.456.002a34.479 34.479 0 0 0 18.946 27.791l-5.993 5.993-.215-.109-6.223 6.282-4.4-3.19 4.037-7.868-3.708-3.699-7.86 4.051-3.198-4.394 6.27-6.235-2.382-4.664-8.728 1.424-1.684-5.168 7.891-3.992-.825-5.172-8.74-1.342-.005-5.436 8.738-1.359.814-5.174m138.252 0l7.898-3.977-1.675-5.171-8.73 1.408-2.373-4.669 6.282-6.223-3.192-4.401-7.867 4.036-3.7-3.707 4.051-7.86-2.377-1.73-12.034 12.033a34.461 34.461 0 0 1 16.453 26.406l-42.481-.002.024 6.116 42.457.002a34.479 34.479 0 0 1-18.946 27.791l5.992 5.993.215-.109 6.224 6.282 4.4-3.19-4.037-7.868 3.707-3.699 7.86 4.051 3.199-4.394-6.271-6.235 2.383-4.664 8.727 1.424 1.684-5.168-7.89-3.992.825-5.172 8.74-1.342.005-5.436-8.738-1.359-.815-5.174"/><path fill="#F58E70" d="M30.914 149.411l4.242 4.244 28.878-28.875-4.242-4.243-28.878 28.874"/><path fill="#475059" d="M28.217 163.612h-.002a7 7 0 0 1-4.948-11.951l1.414 1.414a5.002 5.002 0 0 0 3.535 8.537h.001a4.966 4.966 0 0 0 3.534-1.463l1.414 1.414a6.955 6.955 0 0 1-4.948 2.049m36.066-52.964l9.898 9.902 95.858-95.849v-9.9l-9.898-.003-95.858 95.85zm9.898 12.731l-12.726-12.731 97.858-97.85 12.726.003v12.728l-97.858 97.85zm-46.095 26.032l7.07 7.073 31.706-31.704-7.07-7.072-31.706 31.703zm7.07 9.902l-9.898-9.902 34.534-34.532 9.898 9.901-34.534 34.533z"/><path fill="#DEDEDD" d="M72.77 113.475l-1.414-1.414 91.906-91.898 1.414 1.414-91.906 91.898zm95.269-96.674l-7.069-.003-93.86 93.85 7.072 7.073 93.857-93.849v-7.071z"/><path fill="#475059" d="M78.858 136.781l-31.064-31.076 5.775-5.775 7.886 7.889-1.414 1.414-6.472-6.475-2.947 2.947 28.236 28.248 2.947-2.946-6.21-6.213 1.414-1.414 7.624 7.627-5.775 5.774M22.43 149.41l12.726 12.731 1.414-1.414-12.726-12.731-1.414 1.414zm12.726 15.559L19.602 149.41l4.242-4.242 15.554 15.559-4.242 4.242zm128.806-1.485a6.973 6.973 0 0 1-4.949-2.047l1.414-1.414a5 5 0 1 0 7.073-7.07l1.415-1.414a6.999 6.999 0 0 1-4.953 11.945M81.935 87.182l-61.786-61.79.003-12.726h12.727l61.786 61.79-1.414 1.414-61.2-61.204h-9.9l-.002 9.897 61.2 61.205-1.414 1.414M117.999 123.25l-20.554-20.556 1.415-1.414 19.139 19.141 9.902-9.897L108.72 91.34l1.414-1.414 20.596 20.598-12.731 12.726M125.059 124.912l31.704 31.706 7.072-7.069-31.703-31.707-7.073 7.07zm31.704 34.534l-34.533-34.534 9.902-9.898 34.532 34.535-9.901 9.897z"/><path fill="#DEDEDD" d="M103.15 97.084l1.414-1.414 16.262 16.264-1.414 1.414-16.262-16.264zm4.242-4.243l-7.072 7.072 17.679 17.681 7.073-7.071-17.68-17.682zM27.514 21.443l1.414-1.414 60.079 60.084-1.414 1.414-60.079-60.084zm3.708-4.778l-7.071.001-.003 7.069 60.617 60.621 7.072-7.071-60.615-60.62z"/><path fill="#475059" d="M113.056 136.911l-5.776-5.775 7.89-7.886 1.414 1.414-6.474 6.472 2.946 2.947 28.248-28.236-2.946-2.947-6.213 6.209-1.414-1.414 7.627-7.623 5.775 5.775-31.077 31.064M155.348 160.86l1.414 1.414 12.73-12.726-1.413-1.414-12.731 12.726zm1.414 4.242l-4.243-4.242 15.56-15.554 4.242 4.242-15.559 15.554z"/><path fill="#5FE0ED" d="M156.763 153.79l4.243-4.242-28.875-28.878-4.243 4.242 28.875 28.878"/><path fill="#48515A" d="M6 125.971h2v-4H6zM6 135.971h2v-4H6z"/><g transform="translate(0 127)"><mask id="hub" fill="#fff"><use xlink:href="#hua"/></mask><path fill="#48515A" mask="url(#hub)" d="M10 2.971h4v-2h-4zM.06 2.971H4v-2H.06z"/></g><path fill="#48515A" d="M104.059 27.912h2v-4h-2zM104.059 37.912h2v-4h-2zM108.059 31.912h4v-2h-4zM98.059 31.912h4v-2h-4zM124.071 174h2v-4h-2zM124.071 184h2v-4h-2zM128.071 178h4v-2h-4zM118.071 178h4v-2h-4zM25.002 71.06h22v-2h-22zM8.103 101.06a5.007 5.007 0 0 0 4.899 4h17.105a6.989 6.989 0 0 1-2.034-4H8.103zm26.899 6h-22a7.008 7.008 0 0 1-7-7v-1h24v1a5 5 0 1 0 10 0v-24h2v24a7.008 7.008 0 0 1-7 7z"/><path fill="#48515A" d="M20.002 100.06h-2v-24a7 7 0 0 1 13.929-1h19.97a5.008 5.008 0 0 0-4.899-4v-2a7.008 7.008 0 0 1 7 7v1h-24v-1a5 5 0 0 0-10 0v24m74.638 67.592h4.431l2.452 2.716 2.85-1.181-.187-3.655 3.133-3.132 3.655.186 1.18-2.849-2.716-2.453v-4.43l2.716-2.453-1.18-2.85-3.655.187-3.133-3.132.187-3.656-2.85-1.18-2.452 2.716H94.64l-2.453-2.716-2.849 1.18.187 3.656-3.133 3.132-3.655-.187-1.18 2.85 2.716 2.453v4.43l-2.716 2.453 1.18 2.849 3.655-.186 3.133 3.132-.187 3.655 2.849 1.181 2.453-2.716zm6.344 5.104l-2.802-3.104h-2.653l-2.802 3.104-5.458-2.261.213-4.176-1.876-1.876-4.176.212-2.261-5.457 3.104-2.802v-2.654l-3.104-2.802 2.261-5.458 4.176.213 1.876-1.876-.213-4.176 5.458-2.261 2.802 3.104h2.653l2.802-3.104 5.458 2.261-.213 4.176 1.876 1.876 4.177-.213 2.26 5.458-3.104 2.802v2.654l3.104 2.802-2.26 5.457-4.177-.212-1.876 1.875.213 4.177-5.458 2.261z"/><path fill="#48515A" d="M96.855 152.49a2.579 2.579 0 1 0 .001 5.157 2.579 2.579 0 0 0-.001-5.157zm0 7.158a4.579 4.579 0 1 1 .001-9.157 4.579 4.579 0 0 1-.001 9.157zm69.197-89.29c-10.494 0-19 8.506-19 19 0 10.493 8.506 19 19 19 10.493 0 19-8.507 19-19-.012-10.489-8.512-18.988-19-19zm0 40c-11.598 0-21-9.402-21-21s9.402-21 21-21 21 9.402 21 21c-.013 11.592-9.408 20.987-21 21z"/><path fill="#48515A" d="M163.057 101.039h6v-9.001l9.001-.001v-6h-9.001v-8.998h-6v8.999h-8.999v6h8.999v9.001zm8 2h-10v-9.001h-8.999v-10h8.999v-8.999h10v8.998h9.001v10l-9.001.001v9.001z"/><path fill="#48515A" d="M165.059 81.039h2v-2h-2zM165.059 99.05h2v-2h-2zM156.053 90.045h2v-2h-2zM174.064 90.045h2v-2h-2zM166.059 88.038a1 1 0 1 0 0 2 1 1 0 0 0 0-2zm0 4a3 3 0 1 1 0-6 3 3 0 0 1 0 6z"/><path fill="#FFD15D" d="M178.047 126a4 4 0 1 1 0 8 4 4 0 0 1 0-8"/><path fill="#FFD15D" d="M178.047 136a6 6 0 1 1 6-6 6.007 6.007 0 0 1-6 6zm0-14a8 8 0 1 0 0 16 8 8 0 0 0 0-16zm-162-74a4 4 0 1 1 0 8 4 4 0 0 1 0-8"/><path fill="#FFD15D" d="M16.047 58a6 6 0 1 1 6-6 6.007 6.007 0 0 1-6 6zm0-14a8 8 0 1 0 0 16 8 8 0 0 0 0-16zM50.047 4.946l3 2.925L52.339 12l3.708-1.95L59.755 12l-.708-4.129 3-2.925-4.146-.602L56.047.587l-1.854 3.757zM146.047 172.946l3 2.925-.708 4.129 3.708-1.95 3.708 1.95-.708-4.129 3-2.925-4.146-.602-1.854-3.757-1.854 3.757z"/></g></svg>