<?xml version="1.0" encoding="utf-8"?><svg xmlns="http://www.w3.org/2000/svg" width="250" height="250" viewBox="0 0 250 250"><g fill="none" fill-rule="evenodd"><path fill="#FACD60" d="M133.67 189.99h30v-10h-30v10zm-2.811-35.106l5.768 2.472-8.232 4.939 8.232 8.232-2.828 2.829-8.111-8.111-4.833 9.721-10.011-24.242-45.173-28.614v72.88h116.928v-72.88l-51.74 32.774z"/><path fill="#DDDED9" d="M168.061 99.014H80.046v29.37l29.192 18.45-.611-1.478 19.514 8.363 40.083-25.335V99.501l-.163-.487"/><path fill="#E9886C" d="M183.671 102.99h30v-20h-30v20zm-2 2h34v-24h-34v24z"/><path fill="#E9886C" d="M190.921 99.99v-14l15.75 7-15.75 7zm-8.25 4h32v-22h-32v22z"/><path fill="#42494E" d="M191.921 87.529v10.922l12.288-5.461-12.288-5.461zm-2 14V84.451l19.212 8.539-19.212 8.539z"/><path fill="#434A4F" d="M63.671 133.969h-2v-13.176l14.395-9.886 1.133 1.649-13.528 9.29v12.123M186.599 198.648H61.671v-18.162h2v16.162h120.928v-5.062h2v7.062M186.599 150.657h-2v-28.821l-13.954-9.909 1.158-1.63 14.796 10.506v29.854"/><path fill="#434A4F" d="M91.051 140.57l-28.913-18.234 1.066-1.692 28.913 18.235-1.066 1.691M164.456 135.896l-1.07-1.69 21.677-13.731 1.071 1.689-21.678 13.732M171.63 183.274a1 1 0 0 1-.77-.36l-9.897-11.875a1 1 0 1 1 1.537-1.28l9.897 11.875a1 1 0 0 1-.767 1.64m-99.541 5.46a1 1 0 0 1-.768-1.64l24.783-29.734a1.001 1.001 0 0 1 1.538 1.28l-24.784 29.734a.996.996 0 0 1-.769.36"/><path fill="#434A4F" d="M172.224 130.49h-2V99.176l-9.978-29.934 9.501-23.752h-12.909v-2H172.7l-10.325 25.815 9.849 29.547v31.638M78.046 130.49h-2V99.176l-9.978-29.934L76.369 43.49h39.641v2H77.723l-9.526 23.815 9.849 29.547v31.638"/><path fill="#FACD60" d="M174.224 116.922v8.011l5.981-3.764-5.981-4.247M74.142 116.922v8.011l-5.982-3.764 5.982-4.247"/><path fill="#DDDED9" d="M158.117 69.18l8.676-21.69H79.077l-8.713 21.784h87.784l-.031-.094"/><path fill="#434A4F" d="M119.071 45.49h-.059a1 1 0 1 1 0-2c.552 0 1.029.448 1.029 1s-.417 1-.97 1m35.022 0h-.061a1 1 0 1 1 0-2c.553 0 1.031.448 1.031 1s-.417 1-.97 1m31.577 109.5c-.061 0-.13-.01-.191-.02a.606.606 0 0 1-.189-.06.545.545 0 0 1-.17-.09 1.013 1.013 0 0 1-.45-.83.997.997 0 0 1 1.38-.92c.13.05.24.12.33.21.09.1.16.2.21.33.05.12.08.25.08.38s-.03.26-.08.38c-.05.13-.12.24-.21.33-.191.18-.45.29-.71.29m-123 18c-.26 0-.521-.11-.71-.29-.181-.19-.29-.45-.29-.71 0-.13.029-.26.08-.38.05-.12.12-.23.21-.33.38-.37 1.04-.37 1.42 0a1.011 1.011 0 0 1 0 1.42c-.191.18-.441.29-.71.29"/><path fill="#42494E" d="M48.595 80.99c-1.655 0-3 1.346-3 3s1.345 3 3 3h67.181l6.507-3-6.507-3H48.595zm67.621 8H48.595c-2.757 0-5-2.243-5-5s2.243-5 5-5h67.621l10.843 5-10.843 5z"/><path fill="#42494E" d="M54.205 87.99h2v-7.598h-2z"/><path fill="#42494E" d="M55.205 84.961h60.023v-2H55.205zM158.671 54.99h-20a1 1 0 1 1 0-2h20a1 1 0 1 1 0 2m-2 4h-20a1 1 0 1 1 0-2h20a1 1 0 1 1 0 2m-48 0h-28a1 1 0 1 1 0-2h28a1 1 0 1 1 0 2M92.671 108.99h62v-2h-62zM92.671 112.99h62v-2h-62zM92.671 116.99h62v-2h-62zM92.671 120.99h62v-2h-62zM92.671 124.99h62v-2h-62zM44.412 100.99c-5.923 0-10.741 4.818-10.741 10.741s4.818 10.741 10.741 10.741 10.741-4.818 10.741-10.741-4.818-10.741-10.741-10.741zm0 23.482c-7.025 0-12.741-5.715-12.741-12.741 0-7.025 5.716-12.741 12.741-12.741 7.025 0 12.741 5.716 12.741 12.741 0 7.026-5.716 12.741-12.741 12.741z"/><path fill="#42494E" d="M44.411 100.99c-2.885 0-5.322 4.919-5.322 10.741s2.437 10.741 5.322 10.741c2.885 0 5.322-4.919 5.322-10.741s-2.437-10.741-5.322-10.741zm0 23.482c-4.105 0-7.322-5.596-7.322-12.741 0-7.144 3.217-12.741 7.322-12.741 4.106 0 7.322 5.597 7.322 12.741 0 7.145-3.216 12.741-7.322 12.741z"/><path fill="#42494E" d="M32.671 112.731h23.482v-2H32.671zM145.671 81.144a3.85 3.85 0 0 0-3.846 3.846 3.85 3.85 0 0 0 3.846 3.846 3.85 3.85 0 0 0 3.847-3.846 3.85 3.85 0 0 0-3.847-3.846zm0 9.692a5.852 5.852 0 0 1-5.846-5.846 5.852 5.852 0 0 1 5.846-5.846 5.853 5.853 0 0 1 5.847 5.846 5.853 5.853 0 0 1-5.847 5.846z"/><path fill="#42494E" d="M145.671 94.99a9.92 9.92 0 0 1-7.205-3.065 9.92 9.92 0 0 1-2.787-7.324c.196-5.188 4.415-9.406 9.603-9.604 2.757-.096 5.348.886 7.323 2.788a9.917 9.917 0 0 1 3.066 7.205v2.769a3.08 3.08 0 0 1-3.077 3.077 3.08 3.08 0 0 1-3.077-3.077v-7.615h2v7.615a1.078 1.078 0 0 0 2.154 0V84.99a7.937 7.937 0 0 0-2.452-5.764 7.907 7.907 0 0 0-5.861-2.23c-4.081.155-7.526 3.601-7.681 7.681a7.943 7.943 0 0 0 2.229 5.86 7.936 7.936 0 0 0 5.765 2.453 7.943 7.943 0 0 0 5.034-1.782l1.26 1.553a9.944 9.944 0 0 1-6.294 2.229M137.235 183.99h22.375v-2h-22.375zM137.235 187.993h16.371v-2h-16.371z"/><path fill="#434A4F" d="M110.487 147.241l10.451 25.309 4.473-8.996 8.388 8.388 1.414-1.415-8.431-8.431 7.654-4.591-23.949-10.264zm10.284 30.14l-14.004-33.911 32.051 13.737-8.811 5.287 8.034 8.033-4.242 4.243-7.835-7.835-5.193 10.446z"/><path fill="#42494E" d="M53.671 42.99c-1.103 0-2 .897-2 2s.897 2 2 2c1.102 0 2-.897 2-2s-.898-2-2-2zm0 6c-2.206 0-4-1.794-4-4s1.794-4 4-4 4 1.794 4 4-1.794 4-4 4z"/><path fill="#75C7D0" d="M196.671 60.99a3 3 0 1 1-6 0 3 3 0 0 1 6 0"/><path fill="#E9886C" d="M36.671 63.99a2 2 0 1 1-4 0 2 2 0 0 1 4 0"/><path fill="#E9886C" d="M34.671 62.99a1.001 1.001 0 0 0 0 2 1.001 1.001 0 0 0 0-2zm0 4c-1.654 0-3-1.346-3-3s1.346-3 3-3 3 1.346 3 3-1.346 3-3 3z"/><path fill="#434A4F" d="M210.671 50.99a1.001 1.001 0 0 0 0 2 1.001 1.001 0 0 0 0-2zm0 4c-1.654 0-3-1.346-3-3s1.346-3 3-3 3 1.346 3 3-1.346 3-3 3zm-33.888 131.739h42.261v-25.482h-42.261v25.482zm-2 2h46.261v-29.482h-46.261v29.482z"/><path fill="#434A4F" d="M197.914 175.265c-.186 0-.373-.052-.537-.156l-16.124-10.276 1.074-1.686 15.585 9.931 14.949-9.59 1.08 1.683-15.487 9.936a.995.995 0 0 1-.54.158M215.885 184.8l-8.924-10.706 1.537-1.28 8.924 10.706-1.537 1.28M179.943 184.8l-1.537-1.28 8.923-10.706 1.537 1.28-8.923 10.706M198.765 203.66h2v-13.035h-2zM199.76 209.01a.975.975 0 0 1-.7-.3.982.982 0 0 1-.3-.71 1.015 1.015 0 0 1 1.389-.92c.121.05.231.13.321.22.19.18.29.44.29.7 0 .14-.021.27-.071.39a.997.997 0 0 1-.219.32c-.18.19-.441.3-.71.3M207.456 194.963h2v-4.338h-2zM208.46 200.31a.99.99 0 0 1-1-1c0-.26.1-.52.29-.71.229-.23.569-.33.899-.27.061.01.13.03.191.06.059.02.12.05.17.09a1.017 1.017 0 0 1 .45.83 1.017 1.017 0 0 1-.45.83.568.568 0 0 1-.17.09.703.703 0 0 1-.191.06 1.2 1.2 0 0 1-.189.02M190.067 197.863h2v-7.238h-2zM191.069 203.21c-.269 0-.519-.11-.71-.3a.97.97 0 0 1-.29-.7.987.987 0 0 1 .29-.71c.37-.37 1.04-.37 1.411 0 .19.19.299.45.299.71 0 .26-.109.52-.299.7-.18.19-.44.3-.701.3M30.956 163.716h42.261v-25.482H30.956v25.482zm-2 2h46.261v-29.482H28.956v29.482z"/><path fill="#434A4F" d="M52.087 152.251a.993.993 0 0 1-.537-.157L35.427 141.82l1.074-1.687 15.584 9.931 14.949-9.59 1.08 1.683-15.487 9.936a1.007 1.007 0 0 1-.54.158M70.058 161.786l-8.924-10.706 1.537-1.28 8.924 10.706-1.537 1.28M34.116 161.786l-1.537-1.28 8.924-10.706 1.537 1.28-8.924 10.706M52.938 180.647h2v-13.036h-2zM53.939 185.99a1.07 1.07 0 0 1-.389-.07c-.12-.06-.231-.13-.321-.22a.967.967 0 0 1-.29-.71c0-.26.101-.52.29-.7.371-.38 1.041-.38 1.411 0 .19.18.299.44.299.7 0 .13-.029.26-.08.38a.832.832 0 0 1-.219.33c-.18.18-.441.29-.701.29M61.63 171.949h2v-4.338h-2zM62.63 177.3c-.26 0-.521-.11-.71-.3a.988.988 0 0 1-.21-.32.826.826 0 0 1-.08-.38c0-.27.109-.53.29-.71.37-.37 1.04-.37 1.42 0 .18.18.29.44.29.71 0 .13-.03.26-.08.38s-.12.23-.21.32c-.191.19-.45.3-.71.3M44.24 174.848h2v-7.237h-2zM45.239 180.19c-.26 0-.519-.1-.71-.29-.179-.19-.29-.44-.29-.71 0-.26.111-.52.29-.7.051-.05.101-.09.151-.13l.179-.09.181-.06c.14-.02.27-.02.399 0l.181.06.18.09c.05.04.099.08.149.13.181.18.29.44.29.7 0 .27-.109.52-.29.71-.05.05-.099.09-.149.13l-.18.09c-.06.02-.12.04-.181.05-.069.02-.129.02-.2.02"/></g></svg>