<?xml version="1.0" encoding="utf-8"?><svg xmlns="http://www.w3.org/2000/svg" width="250" height="250" viewBox="0 0 250 250"><g fill="none" fill-rule="evenodd"><path fill="#DDDED9" d="M187.416 67.501l.39.753V169.15c5.614 0 10.165 4.551 10.165 10.165 0 5.614-4.551 10.165-10.165 10.165h-5.39V67.501h5m-136.445 0l-.391.753V169.15c-5.614 0-10.164 4.551-10.164 10.165 0 5.614 4.55 10.165 10.164 10.165h5.391V67.501h-5"/><path fill="#FACD60" d="M187.97 52.26c5.699-.003 10.333 5.21 10.333 10.826v116.896c0-5.283-4.988-10.289-10.333-10.783V52.26m-136.998 0c-5.699-.003-11.001 4.543-11.001 10.159v116.896c0-5.283 5.655-9.622 11.001-10.116V52.26"/><path fill="#434A4F" d="M187.471 68.501h-136.5a1 1 0 1 1 0-2h136.5a1 1 0 1 1 0 2"/><path fill="#42494E" d="M63.009 200.001h34v-50h-34v50zm-2 2h38v-54h-38v54z"/><path fill="#42494E" d="M67.009 172.001h2v-2h-2v2zm-2 2h6v-6h-6v6zm2 6h2v-2h-2v2zm-2 2h6v-6h-6v6zm2 6h2v-2h-2v2zm-2 2h6v-6h-6v6zm2 6h2v-2h-2v2zm-2 2h6v-6h-6v6zm10-26h2v-2h-2v2zm-2 2h6v-6h-6v6zm2 6h2v-2h-2v2zm-2 2h6v-6h-6v6zm2 6h2v-2h-2v2zm-2 2h6v-6h-6v6zm2 6h2v-2h-2v2zm-2 2h6v-6h-6v6zm10-26h2v-2h-2v2zm-2 2h6v-6h-6v6zm2 6h2v-2h-2v2zm-2 2h6v-6h-6v6zm2 6h2v-2h-2v2zm-2 2h6v-6h-6v6zm2 6h2v-2h-2v2zm-2 2h6v-6h-6v6zm10-26h2v-2h-2v2zm-2 2h6v-6h-6v6zm2 6h2v-2h-2v2zm-2 2h6v-6h-6v6zm2 14h2v-10h-2v10zm-2 2h6v-14h-6v14zM62.009 166.001h36v-2h-36zM67.009 160.001h26v-6h-26v6zm-2 2h30v-10h-30v10z"/><path fill="#42494E" d="M69.009 158.001h2v-2h-2v2zm4 0h2v-2h-2v2zm4 0h2v-2h-2v2zm4 0h2v-2h-2v2zm4 0h2v-2h-2v2zm4 0h2v-2h-2v2z"/><path fill="#E9886C" d="M143.465 96.43l-8.656 8.657-8.657-8.657 8.656-8.657 8.657 8.657"/><path fill="#E9886C" d="M127.566 96.43l7.243 7.243 7.242-7.243-7.243-7.243-7.242 7.243zm7.243 10.071L124.738 96.43l10.07-10.071 10.071 10.071-10.07 10.071zM143.632 128.347l-8.657 8.656-8.657-8.657 8.657-8.656 8.657 8.657"/><path fill="#E9886C" d="M127.733 128.347l7.242 7.242 7.243-7.242-7.243-7.243-7.242 7.243zm7.242 10.07l-10.07-10.07 10.07-10.072 10.071 10.072-10.071 10.07zM143.632 160.263l-8.657 8.657-8.657-8.657 8.657-8.657 8.657 8.657"/><path fill="#E9886C" d="M127.733 160.263l7.242 7.243 7.243-7.242-7.243-7.243-7.242 7.242zm7.242 10.071l-10.07-10.071 10.07-10.071 10.071 10.072-10.071 10.07zM72.975 135.255h14.162v-14.163H72.975z"/><path fill="#E9886C" d="M73.975 134.255h12.163l-.001-12.163H73.975v12.163zm14.163 2H71.975v-16.163h16.162l.001 16.163z"/><path fill="#434A4F" d="M101.813 122.092v12.163l12.162-.001v-12.162h-12.162zm-2 14.163v-16.163h16.162v16.162l-16.162.001z"/><path fill="#75C7D0" d="M166.975 128.254a6 6 0 1 1-12 0 6 6 0 0 1 12 0"/><path fill="#434A4F" d="M160.975 123.254c-2.757 0-5 2.243-5 5s2.243 5 5 5 5-2.243 5-5-2.243-5-5-5zm0 12c-3.859 0-7-3.141-7-7s3.141-7 7-7 7 3.141 7 7-3.141 7-7 7zM90.975 129.254h6v-2h-6zM135.975 181.254h-28v-41h2v39h24v-7h2v9M161.975 116.254h-2v-39h-24v7h-2v-9h28v41M133.975 148.254h2v-8h-2zM133.975 116.254h2v-8h-2zM146.975 129.254h5.001v-2h-5.001z"/><path fill="#434A4F" d="M41.415 62.419c0-2.883 1.063-5.502 2.915-7.186 1.432-1.301 3.233-1.977 5.251-1.979v114.94a11.178 11.178 0 0 0-8.166 4.751V62.419zm20.594 126.06H50.581c-5.054 0-9.166-4.111-9.166-9.165 0-5.052 4.112-9.164 9.166-9.164h1V51.393l-.906-.086c-2.957-.289-5.62.563-7.69 2.447-2.269 2.061-3.569 5.221-3.569 8.665v116.895c0 6.157 5.008 11.165 11.165 11.165h11.428v-2zm134.962-15.534a11.176 11.176 0 0 0-8.165-4.751V53.451c4.46.939 8.165 5.13 8.165 9.495v109.999zm-9.078-121.647l-1.087-.095V170.15h1c5.054 0 9.165 4.112 9.165 9.164 0 5.054-4.111 9.165-9.165 9.165H98.009v2h89.797c6.156 0 11.165-5.008 11.165-11.165V62.946c0-5.793-5.073-11.127-11.078-11.648zM42.303 199.001h2v-4h-2zM42.303 209.001h2v-4h-2zM46.303 203.001h4v-2h-4zM36.303 203.001h4v-2h-4z"/><path fill="#FACD60" d="M66.303 46.001a3 3 0 1 1-6 0 3 3 0 0 1 6 0m46 149a2 2 0 1 1-3.999.001 2 2 0 0 1 3.999-.001"/><path fill="#434A4F" d="M165.691 176.693h.01-.01zM124.721 219h50.683v-50.589L124.721 219zm51.683 2h-54.101a1.001 1.001 0 0 1-.706-1.708l54.101-54a1 1 0 0 1 1.706.708v54a1 1 0 0 1-1 1z"/><path fill="#434A4F" d="M150.29 208.288h14.401v-14.083l-14.401 14.083zm15.401 2h-17.855a.999.999 0 0 1-.699-1.715l17.855-17.46a1.002 1.002 0 0 1 1.699.715v17.46a1 1 0 0 1-1 1z"/><path fill="#E9886C" d="M174.303 75.001a2 2 0 1 1-4 0 2 2 0 0 1 4 0"/><path fill="#42494E" d="M110.302 37c-4.963 0-9 4.037-9 9s4.037 9 9 9 9-4.037 9-9-4.037-9-9-9zm0 20c-6.065 0-11-4.935-11-11s4.935-11 11-11c6.066 0 11 4.935 11 11s-4.934 11-11 11zm0-26c-8.271 0-15 6.729-15 15s6.729 15 15 15c8.272 0 15-6.729 15-15s-6.728-15-15-15zm0 32c-9.374 0-17-7.626-17-17 0-9.374 7.626-17 17-17 9.374 0 17 7.626 17 17 0 9.374-7.626 17-17 17z"/><path fill="#42494E" d="M110.302 43c-1.654 0-3 1.346-3 3s1.346 3 3 3c1.655 0 3-1.346 3-3s-1.345-3-3-3zm0 8c-2.757 0-5-2.243-5-5s2.243-5 5-5 5 2.243 5 5-2.243 5-5 5z"/><path fill="#E9886C" d="M110.302 42a4 4 0 1 0 0 8 4 4 0 0 0 0-8"/><path fill="#E9886C" d="M110.302 43c-1.654 0-3 1.346-3 3s1.346 3 3 3c1.655 0 3-1.346 3-3s-1.345-3-3-3zm0 8c-2.757 0-5-2.243-5-5s2.243-5 5-5 5 2.243 5 5-2.243 5-5 5z"/><path fill="#42494E" d="M83.304 47h26.998v-2H83.304z"/><path fill="#42494E" d="M76.717 49h3.172l3-3-3-3h-3.172l3 3-3 3zm4 2h-8.828l5-5-5-5h8.828l5 5-5 5zm56.527-9.998c-1.655 0-3 1.346-3 3s1.345 3 3 3h65.171l6.506-3-6.506-3h-65.171zm65.61 8h-65.61c-2.757 0-5-2.243-5-5s2.243-5 5-5h65.61l10.843 5-10.843 5z"/><path fill="#42494E" d="M142.853 48.002h2v-7.599h-2z"/><path fill="#42494E" d="M143.853 44.973h58.013v-2h-58.013z"/></g></svg>