<?xml version="1.0" encoding="utf-8"?><svg xmlns="http://www.w3.org/2000/svg" width="250" height="250" viewBox="0 0 250 250"><g fill="none" fill-rule="evenodd"><path fill="#5FE0ED" d="M141.498 45.884c-28.948 0-52.415 23.467-52.415 52.415 0 5.11.743 10.042 2.11 14.709H132.5v36.912c2.923.514 5.927.794 8.998.794 28.948 0 52.415-23.467 52.415-52.415s-23.467-52.415-52.415-52.415"/><path fill="#5FE0ED" d="M133.5 149.074c2.668.425 5.355.641 7.998.641 28.351 0 51.416-23.065 51.416-51.416 0-28.35-23.065-51.415-51.416-51.415-28.35 0-51.415 23.065-51.415 51.415a51.3 51.3 0 0 0 1.865 13.709H133.5v37.066zm7.998 2.641c-3.033 0-6.118-.273-9.171-.81l-.827-.146v-36.751H90.444l-.211-.719a53.34 53.34 0 0 1-2.15-14.99c0-29.453 23.962-53.415 53.415-53.415 29.454 0 53.416 23.962 53.416 53.415 0 29.454-23.962 53.416-53.416 53.416z"/><path fill="#48515A" d="M94.22 41.138a.997.997 0 0 1-.92-1.07c.05-.55.53-.97 1.08-.92a.997.997 0 0 1-.08 1.99h-.08zm-4.87-.56a.995.995 0 0 1 .75-1.19.992.992 0 0 1 1.2.75c.12.54-.22 1.08-.76 1.2-.07.01-.14.02-.22.02-.45 0-.87-.31-.97-.78zm8.65 1.2a.995.995 0 0 1-.73-1.21c.13-.53.67-.86 1.21-.73.53.13.86.67.73 1.21a.992.992 0 0 1-1.21.73zm3.73 1.13a.996.996 0 0 1-.61-1.27 1.003 1.003 0 0 1 1.89.67.998.998 0 0 1-1.28.6zm-15.61-.01a.996.996 0 0 1 0-1.41c.39-.39 1.03-.39 1.42 0 .39.39.39 1.02 0 1.41-.2.2-.45.3-.71.3-.25 0-.51-.1-.71-.3zm19.27 1.46a.994.994 0 0 1-.52-1.31c.22-.51.81-.74 1.31-.52.51.22.74.81.52 1.31-.16.38-.53.61-.92.61a.89.89 0 0 1-.39-.09zm3.57 1.68a1.01 1.01 0 0 1-.45-1.34c.25-.5.85-.7 1.34-.45.5.24.7.84.45 1.34-.17.35-.52.55-.89.55-.15 0-.3-.03-.45-.1zm3.51 1.84c-.49-.27-.66-.88-.4-1.36.27-.48.88-.66 1.36-.39.49.26.66.87.4 1.35-.19.33-.53.52-.88.52-.16 0-.33-.04-.48-.12zm3.44 1.97a.995.995 0 1 1 1.02-1.71c.48.28.63.89.35 1.37-.19.31-.52.48-.86.48-.18 0-.35-.04-.51-.14zm3.38 2.09a.995.995 0 0 1-.31-1.38c.3-.47.92-.6 1.38-.31a1.004 1.004 0 0 1-.54 1.85.94.94 0 0 1-.53-.16zm3.32 2.18a.999.999 0 0 1-.27-1.39c.31-.46.93-.58 1.39-.27a.999.999 0 0 1-.56 1.83c-.19 0-.39-.06-.56-.17zm3.27 2.26a.994.994 0 0 1-.23-1.39c.31-.45.94-.56 1.39-.24a.996.996 0 0 1-.58 1.81c-.2 0-.4-.06-.58-.18zm3.23 2.33a.991.991 0 0 1-.21-1.39c.33-.45.95-.54 1.4-.21.44.32.54.95.21 1.39a1 1 0 0 1-.81.41c-.2 0-.41-.06-.59-.2zm3.18 2.4a.99.99 0 0 1-.18-1.4.99.99 0 0 1 1.4-.18c.44.33.52.96.18 1.4-.2.25-.49.39-.79.39-.22 0-.43-.07-.61-.21zm3.13 2.46c-.43-.35-.5-.98-.15-1.41.34-.43.97-.5 1.4-.15a1 1 0 1 1-1.25 1.56zm3.1 2.51a1 1 0 0 1-.14-1.41c.35-.42.98-.48 1.41-.13.43.35.49.98.13 1.41-.19.24-.48.36-.77.36-.22 0-.45-.08-.63-.23zm3.05 2.56a.999.999 0 0 1-.11-1.41c.35-.42.99-.47 1.41-.11a.999.999 0 1 1-1.3 1.52zm3.01 2.61c-.41-.36-.45-.99-.09-1.41.36-.41 1-.45 1.41-.09.41.37.45 1 .09 1.41-.2.23-.47.34-.75.34-.24 0-.47-.08-.66-.25zm2.97 2.66c-.41-.37-.44-1-.07-1.41a1.01 1.01 0 0 1 1.42-.07c.41.37.44 1 .07 1.41a1.002 1.002 0 0 1-1.42.07zm2.94 2.7h-.01a.996.996 0 0 1-.04-1.41.988.988 0 0 1 1.41-.05c.4.37.43 1.01.05 1.41-.2.21-.47.32-.73.32-.25 0-.49-.09-.68-.27zm2.89 2.74a.996.996 0 0 1-.03-1.41 1 1 0 0 1 1.42-.03h-.01c.4.38.42 1.01.03 1.41a.97.97 0 0 1-.72.31c-.25 0-.5-.09-.69-.28zm2.86 2.78a.987.987 0 0 1-.01-1.41c.39-.4 1.02-.4 1.41-.01.4.39.4 1.02.01 1.41a.992.992 0 0 1-1.41.01zm2.81 2.82h.01a.987.987 0 0 1 .01-1.41.987.987 0 0 1 1.41.01c.39.39.38 1.02-.01 1.41-.2.19-.45.29-.7.29-.26 0-.52-.1-.72-.3zm2.78 2.86c-.38-.4-.36-1.03.03-1.41.4-.38 1.04-.37 1.42.03.38.4.37 1.03-.03 1.41-.2.19-.44.28-.69.28-.27 0-.53-.1-.73-.31zm2.74 2.9c-.37-.41-.35-1.04.05-1.41a1 1 0 0 1 1.42.05c.37.4.35 1.03-.05 1.41-.2.18-.44.27-.69.27-.26 0-.53-.11-.73-.32zm2.7 2.93a.997.997 0 1 1 1.48-1.34c.37.41.34 1.04-.07 1.41a.996.996 0 0 1-1.41-.07zm2.65 2.98c-.36-.42-.32-1.05.09-1.41a.999.999 0 1 1 1.32 1.5c-.19.17-.42.25-.66.25-.27 0-.55-.12-.75-.34zm2.61 3.01a.991.991 0 0 1 .12-1.41.988.988 0 0 1 1.4.12.999.999 0 0 1-.76 1.65c-.28 0-.56-.12-.76-.36zm2.56 3.06a1.002 1.002 0 0 1 1.55-1.27.99.99 0 0 1-.14 1.4 1.005 1.005 0 0 1-1.41-.13zm2.51 3.09a1 1 0 0 1 .16-1.4.982.982 0 0 1 1.4.16c.35.43.28 1.06-.15 1.4a.999.999 0 0 1-1.41-.16zm2.45 3.14c-.33-.44-.25-1.07.19-1.4a.99.99 0 0 1 1.4.18 1 1 0 0 1-.79 1.61c-.3 0-.6-.13-.8-.39zm2.4 3.18c-.33-.44-.23-1.07.21-1.4a.998.998 0 0 1 1.4.22v-.01c.33.45.23 1.08-.21 1.4a.995.995 0 0 1-1.4-.21zm2.33 3.23c-.32-.45-.21-1.08.24-1.4a.998.998 0 0 1 1.39.25.996.996 0 0 1-.81 1.57c-.32 0-.63-.14-.82-.42zm2.26 3.27a.989.989 0 0 1 .27-1.38.999.999 0 0 1 1.39.27c.3.46.18 1.08-.28 1.39a.984.984 0 0 1-1.38-.28zm2.17 3.33a.995.995 0 0 1 .31-1.38c.46-.29 1.08-.16 1.38.31.29.47.16 1.08-.31 1.38-.17.11-.35.16-.53.16-.34 0-.66-.17-.85-.47zm2.08 3.39a.995.995 0 0 1 .35-1.37.995.995 0 0 1 1.37.34c.28.48.12 1.09-.35 1.37a.96.96 0 0 1-.51.14c-.34 0-.67-.17-.86-.48zm1.97 3.44a.997.997 0 0 1 .4-1.36.992.992 0 0 1 1.35.4c.27.48.09 1.09-.39 1.35-.16.09-.32.13-.48.13-.36 0-.7-.19-.88-.52zm1.83 3.51c-.24-.5-.04-1.1.45-1.34.5-.25 1.1-.04 1.34.45h.01a1 1 0 0 1-.9 1.44c-.37 0-.72-.2-.9-.55zm1.66 3.58c-.22-.51.02-1.1.53-1.31.5-.22 1.09.01 1.31.52.22.5-.02 1.09-.52 1.31-.13.06-.27.08-.4.08a1 1 0 0 1-.92-.6zm1.44 3.66c-.19-.52.09-1.09.61-1.28.52-.18 1.09.1 1.27.62a.988.988 0 0 1-.61 1.27.96.96 0 0 1-.33.06c-.41 0-.8-.26-.94-.67zm1.1 3.73h.01c-.13-.53.2-1.07.74-1.2.53-.13 1.07.2 1.2.74.13.54-.2 1.08-.74 1.2a1.004 1.004 0 0 1-1.21-.74zm.61 3.78a.99.99 0 0 1 .93-1.06c.55-.04 1.03.38 1.07.93.03.55-.39 1.03-.94 1.06-.02 0-.04.01-.06.01-.52 0-.97-.41-1-.94zm.46 4.88c-.53-.14-.86-.68-.72-1.22.14-.53.68-.86 1.21-.72.54.13.87.68.73 1.21a1 1 0 0 1-1.22.73z"/><path fill="#48515A" d="M181.986 100.023h-54a1 1 0 1 1 0-2h54a1 1 0 1 1 0 2m-40.982 51.692a1 1 0 1 1 0-2c4.875 0 9.688-2.37 13.919-6.854a1 1 0 1 1 1.455 1.373c-4.619 4.894-9.935 7.481-15.374 7.481"/><path fill="#48515A" d="M160.579 137.97a1 1 0 0 1-.855-1.518c5.897-9.757 9.28-23.664 9.28-38.153 0-28.35-12.561-51.415-28-51.415-13.526 0-25.11 17.731-27.545 42.159a1 1 0 1 1-1.99-.198c2.539-25.473 14.96-43.961 29.535-43.961 16.542 0 30 23.962 30 53.415 0 14.843-3.488 29.127-9.568 39.188a1 1 0 0 1-.857.483m25.411-37.942c-.27 0-.53-.11-.71-.3-.09-.09-.17-.2-.22-.32-.05-.13-.07-.25-.07-.39 0-.13.02-.26.07-.38s.13-.23.22-.32a.99.99 0 0 1 .9-.27c.07.01.13.03.19.05.06.03.12.06.17.09.06.04.11.08.15.13a.995.995 0 0 1 .3.7c0 .14-.03.26-.08.39-.05.12-.12.23-.22.32-.18.19-.44.3-.7.3"/><path fill="#48515A" d="M192.703 157.299c-4.096 0-9.433-1.551-15.845-4.638-10.346-4.98-23.059-13.817-35.796-24.883a1 1 0 1 1 1.311-1.51c25.726 22.35 49.172 33.801 55.75 27.221a.999.999 0 1 1 1.414 1.414c-1.599 1.599-3.898 2.396-6.834 2.396M86.003 56.611c-.428 0-.824-.277-.956-.707-2.08-6.771-1.717-11.621 1.077-14.416a1 1 0 0 1 1.414 1.414c-2.198 2.199-2.398 6.492-.579 12.415a1 1 0 0 1-.956 1.294M87 60.018c-.13 0-.26-.02-.38-.07s-.23-.13-.32-.22a.976.976 0 0 1-.22-1.09c.05-.12.12-.23.22-.32.09-.1.2-.17.32-.22.37-.15.81-.06 1.09.22.09.09.16.2.22.32.05.13.07.25.07.39 0 .26-.1.52-.29.7a.99.99 0 0 1-.71.29m51.67 65.59c-.07 0-.13-.01-.2-.02a.636.636 0 0 1-.18-.06.757.757 0 0 1-.18-.09l-.15-.12c-.18-.19-.29-.45-.29-.71 0-.13.03-.26.08-.38.05-.13.12-.24.21-.33.28-.28.73-.37 1.09-.22.13.06.23.13.33.22.09.09.16.2.21.33.05.12.08.25.08.38 0 .26-.11.52-.29.71-.19.18-.45.29-.71.29m34.316 66.415h42v-26h-42v26zm-2 2h46v-30h-46v30z"/><path fill="#48515A" d="M193.792 180.166c-.186 0-.373-.052-.537-.156l-16.124-10.276a1 1 0 1 1 1.075-1.686l15.584 9.931 14.949-9.59a1 1 0 0 1 1.08 1.684l-15.487 9.935a.993.993 0 0 1-.54.158m18.739 9.895a.996.996 0 0 1-.768-.36l-8.924-10.706a1 1 0 0 1 1.537-1.28l8.923 10.706a1 1 0 0 1-.768 1.64m-37.479 0a.998.998 0 0 1-.767-1.64l8.923-10.706a1 1 0 1 1 1.536 1.28l-8.923 10.706a.996.996 0 0 1-.769.36M194.986 210.023h2v-14h-2zM195.64 212.908a.995.995 0 0 1-.7-.3.976.976 0 0 1 0-1.41c.09-.09.2-.16.32-.22.24-.1.52-.1.77 0 .12.06.23.13.32.22.19.19.29.44.29.71 0 .26-.1.52-.29.7-.09.1-.2.17-.32.22-.13.05-.26.08-.39.08M202.986 201.023h2v-5h-2zM204.33 204.208c-.06 0-.13 0-.19-.02-.06-.01-.13-.03-.19-.05a.95.95 0 0 1-.17-.1.443.443 0 0 1-.15-.12.99.99 0 0 1-.29-.71c0-.06 0-.13.01-.19.02-.07.04-.13.06-.19.03-.06.06-.12.09-.17.04-.06.08-.11.13-.15.04-.05.09-.09.15-.13.05-.03.11-.07.17-.09.06-.03.13-.04.19-.06.13-.02.26-.02.39 0 .06.02.13.03.19.06.06.02.12.06.17.09.05.04.11.08.15.13.05.04.09.09.13.15.03.05.06.11.09.17.02.06.04.12.06.19.01.06.02.13.02.19a1 1 0 0 1-.3.71c-.04.05-.1.09-.15.12-.05.04-.11.07-.17.1-.06.02-.13.04-.19.05-.06.02-.13.02-.2.02M185.986 204.023h2v-8h-2zM186.95 207.108c-.07 0-.14-.01-.2-.02a.697.697 0 0 1-.19-.06.556.556 0 0 1-.17-.09c-.05-.04-.11-.08-.15-.12-.09-.1-.17-.21-.22-.33a.986.986 0 0 1-.07-.38.986.986 0 0 1 1.19-.98c.06.01.13.03.19.06.06.02.12.05.17.09.06.03.11.08.15.12.09.1.17.2.22.33.05.12.08.25.08.38s-.03.26-.08.38-.13.23-.22.33c-.04.04-.1.08-.15.12-.05.04-.11.07-.17.09-.06.03-.13.05-.19.06-.06.01-.13.02-.19.02"/><path fill="#475059" d="M186.291 61.41a1.983 1.983 0 0 0 .119 1.527c.242.477.656.831 1.165.997a1.988 1.988 0 0 0 1.529-.118c.468-.238.818-.641.988-1.138a1.992 1.992 0 0 0-.119-1.529 1.989 1.989 0 0 0-1.165-.997 1.993 1.993 0 0 0-1.529.119 1.99 1.99 0 0 0-.988 1.139zm1.909 4.625c-.417 0-.837-.066-1.245-.199a3.975 3.975 0 0 1-2.328-1.993 3.981 3.981 0 0 1-.247-3.027 3.985 3.985 0 0 1 1.993-2.328 3.968 3.968 0 0 1 3.055-.237 3.98 3.98 0 0 1 2.328 1.992 3.98 3.98 0 0 1 .246 3.028h.001a3.979 3.979 0 0 1-1.993 2.328 3.996 3.996 0 0 1-1.81.436z"/><path fill="#475059" d="M187.15 77.342l2.072.002.002-1.232a3.492 3.492 0 0 1 2.453-3.369 3.493 3.493 0 0 1 3.962 1.292l.723.998 1.679-1.217-.724-.997a3.492 3.492 0 0 1 .005-4.168 3.494 3.494 0 0 1 3.965-1.284l1.171.382.622-1.906-1.172-.382a3.493 3.493 0 0 1-2.446-3.373 3.492 3.492 0 0 1 2.453-3.37l1.172-.379-.639-1.972-1.172.379a3.493 3.493 0 0 1-3.962-1.292 3.492 3.492 0 0 1 .004-4.168l.725-.996-1.675-1.219-.725.996a3.496 3.496 0 0 1-3.966 1.284 3.495 3.495 0 0 1-2.446-3.375l.001-1.232-2.073-.002-.001 1.232a3.492 3.492 0 0 1-2.453 3.37c-1.488.479-3.044-.025-3.962-1.292l-.723-.997-1.679 1.216.724.998a3.492 3.492 0 0 1-.004 4.167 3.493 3.493 0 0 1-3.966 1.284l-1.171-.381-.62 1.903 1.171.382a3.494 3.494 0 0 1 2.446 3.375 3.491 3.491 0 0 1-2.453 3.368l-1.172.38.638 1.972 1.172-.379c1.49-.484 3.044.025 3.962 1.292a3.492 3.492 0 0 1-.003 4.167l-.726.996 1.676 1.22.724-.995c.923-1.265 2.478-1.769 3.966-1.284a3.493 3.493 0 0 1 2.446 3.374l-.001 1.232zm4.07 2.004l-6.072-.006.003-3.232c.001-.827-.55-1.303-1.066-1.471-.516-.169-1.241-.11-1.729.56l-1.902 2.612-4.909-3.574 1.903-2.613c.487-.669.32-1.377.001-1.817-.319-.439-.94-.817-1.727-.563l-3.075.996-1.87-5.778 3.075-.995c.787-.255 1.069-.926 1.069-1.468 0-.543-.279-1.214-1.066-1.471l-3.073-1.002 1.861-5.707 3.072 1.002c.789.255 1.409-.121 1.728-.56.32-.438.488-1.146.002-1.816l-1.897-2.617 4.917-3.565 1.897 2.617c.486.671 1.211.73 1.727.563.517-.167 1.068-.641 1.069-1.468l.003-3.232 6.073.005-.003 3.232c-.001.828.55 1.303 1.066 1.471.515.17 1.241.11 1.728-.559l1.902-2.613 4.91 3.574-1.902 2.613c-.487.669-.321 1.377-.002 1.816.319.44.941.818 1.727.564l3.075-.996 1.871 5.777-3.075.995c-.787.256-1.068.927-1.069 1.469 0 .543.279 1.214 1.066 1.471l3.073 1.002-1.862 5.709-3.072-1.002c-.787-.257-1.409.12-1.728.559-.32.439-.488 1.147-.002 1.817l1.897 2.616-4.917 3.565-1.897-2.617c-.485-.67-1.21-.73-1.727-.563-.517.167-1.068.64-1.069 1.468l-.004 3.232z"/><path fill="#F58E70" d="M182.366 60.144a6.135 6.135 0 0 0 3.937 7.692 6.134 6.134 0 0 0 7.705-3.868 6.133 6.133 0 0 0-3.928-7.717 6.093 6.093 0 0 0-4.676.363 6.088 6.088 0 0 0-3.038 3.53zm5.845 9.997a8.095 8.095 0 0 1-2.528-.404 8.075 8.075 0 0 1-4.726-4.044 8.074 8.074 0 0 1-.503-6.136l.01-.032.012-.034c1.414-4.218 5.986-6.523 10.224-5.142 4.239 1.383 6.573 5.939 5.228 10.181h.001a8.077 8.077 0 0 1-4.045 4.726 8.092 8.092 0 0 1-3.673.885z"/><path fill="#FFD15D" d="M100.624 90.158c-18.244.331-32.672 15.649-32.672 33.896v44.439h21.996l-.059-5.797c-2.017-2.059-4.216-4.634-6.067-7.623-4.563-7.367-6.357-16.958-6.357-26.289v-.725h20.408l-.216-9.722a35.977 35.977 0 0 0 24.597 9.722h3.637v.725c0 9.369-2.2 18.879-6.814 26.236-3.048 4.861-7.265 8.695-9.89 10.927l3.749 2.546h21.602v-44.974c0-18.634-15.2-33.701-33.914-33.361"/><path fill="#EAEAE9" d="M75.173 196.165h11.241l-3.566-5.189H81.01l-5.837 5.189M126.409 196.165h-11.241l3.567-5.189h1.837l5.837 5.189M89.875 179.732l-6.921 11.242 16.432 23.347h1.745l-11.256-34.589"/><path fill="#EAEAE9" d="M112.884 171.411l7.256 7.459 6.934 16.423h-1.73l-4.322-4.319h-1.729l-6.92-11.242.511-8.321"/><path fill="#EAEAE9" d="M112.919 175.995v-12.454l-4.681 2.893a8.004 8.004 0 0 1-4.207 1.194h-5.218c-1.864 0-3.67-.65-5.106-1.84l-3.821-3.166.002 4.9 23.031 8.473"/><path fill="#48515A" d="M103.772 168.838h-5.359c-2.133 0-4.01-.68-5.58-2.02-2.822-2.41-6.823-6.313-9.862-11.219-5.378-8.683-6.506-19.375-6.506-26.815v-.725h1.999v.725c0 7.181 1.077 17.478 6.208 25.763 2.903 4.686 6.747 8.432 9.46 10.75 1.197 1.022 2.638 1.541 4.281 1.541h5.359c1.869 0 3.396-.49 4.537-1.456 1.627-1.375 6.576-5.559 9.921-10.893 4.295-6.85 6.661-15.979 6.661-25.705v-.725h2v.725c0 10.097-2.474 19.603-6.967 26.768-3.51 5.597-8.638 9.933-10.323 11.357-1.513 1.28-3.474 1.929-5.829 1.929"/><path fill="#48515A" d="M88.874 171.844h2v-9.188h-2zM111.357 172.384h2v-9.08h-2zM152.5 221.008h-2v-.937l-1.378-17.052c-1.056-7.861-6.338-14.566-13.778-17.445l-15.551-5.767.695-1.875 15.564 5.771a23.882 23.882 0 0 1 15.057 19.103l1.387 17.184.004 1.018m-101 0h-2v-.937l1.69-17.23a23.89 23.89 0 0 1 15.048-19.133l15.504-5.775.698 1.874-15.492 5.771a21.874 21.874 0 0 0-13.772 17.494l-1.681 17.096.005.84"/><path fill="#48515A" d="M80.811 189.974h2.663l16.123 22.909-10.722-32.993v-6.389l-5.938 5.938-6.119 14.525 3.993-3.99zm21.681 25.347h-3.625l-16.431-23.347h-.797l-4.322 4.319h-3.65l7.579-17.992 9.629-9.629v10.902l11.617 35.747z"/><path fill="#48515A" d="M113.373 173.504l-.049 6.537-10.673 32.842 16.123-22.909h2.662l3.99 3.987-6.131-14.523-5.922-5.934zm-9.993 41.817h-3.625l11.618-35.747v-10.906l9.613 9.634 7.596 17.991h-3.652l-4.322-4.319h-.796l-16.432 23.347z"/><path fill="#FFD15D" d="M58.987 115.023v-4.634a8.998 8.998 0 0 1 2.798-6.525 16.853 16.853 0 0 0 5.194-12.225c0-9.682-8.122-17.47-17.917-16.947-8.695.465-15.759 7.685-16.039 16.388-.164 5.073 1.853 9.655 5.243 12.862 1.725 1.632 2.721 3.851 2.721 6.226v4.855"/><path fill="#48515A" d="M50.171 125.873a1 1 0 0 1-.035-2l3.824-.136a4.523 4.523 0 0 0 2.614-1.287l.3-.293c.711-.836 1.112-1.874 1.112-2.902v-4.232a1 1 0 0 1 2 0v4.232c0 1.677-.717 3.358-1.968 4.609l-.343.293a6.572 6.572 0 0 1-3.565 1.573l-3.903.142-.036.001"/><path fill="#48515A" d="M61.986 116.023h-24a1 1 0 0 1 0-2h24a1 1 0 1 1 0 2"/><path fill="#48515A" d="M51.331 126.023h-4.725c-1.652 0-3.341-.741-4.634-2.034l-.213-.213-.028-.138c-1.112-1.219-1.745-2.8-1.745-4.383v-4.232a1 1 0 0 1 2 0v4.232c0 1.156.501 2.321 1.375 3.195l.212.213.023.111c.878.786 1.985 1.249 3.01 1.249h2.789a.998.998 0 0 1 1.638.552l.298 1.448M39.99 84.31a1 1 0 0 1-.764-1.645l.153-.179a1 1 0 1 1 1.51 1.312l-.134.156a.997.997 0 0 1-.765.356m19.151-.835a.999.999 0 0 1-.707-.293 11.923 11.923 0 0 0-8.486-3.515c-2.3.001-4.534.653-6.46 1.885a1 1 0 0 1-1.078-1.685 13.963 13.963 0 0 1 7.538-2.2c3.74 0 7.256 1.456 9.9 4.101a.999.999 0 0 1-.707 1.707M53.986 115.023h-2v-10.561l6-14v-1.439h2v1.849l-6 14v10.151M47.986 115.023h-2v-10.151l-6-14v-1.849h2v1.439l6 14v10.561"/><path fill="#48515A" d="M44.986 91.023h2v-2h-2v2zm4 0h2v-2h-2v2zm4 0h2v-2h-2v2zm2.522 89c-3.596 0-6.522-2.916-6.522-6.5v-48.5a1 1 0 0 1 2 0v48.5c0 2.482 2.028 4.5 4.521 4.5 2.47 0 4.479-2.018 4.479-4.5v-19c0-3.583 2.918-6.497 6.506-6.5h.005c3.579.003 6.489 2.917 6.489 6.5v4.5a1 1 0 1 1-2 0v-4.5a4.502 4.502 0 0 0-4.492-4.5c-2.486.002-4.508 2.019-4.508 4.5v19c0 3.584-2.906 6.5-6.478 6.5m16.502-15.995a1 1 0 0 1-.71-.3.967.967 0 0 1-.29-.7c0-.27.1-.53.29-.71.37-.37 1.04-.38 1.41 0a.982.982 0 0 1 .28.9c-.02.06-.03.13-.06.19-.02.06-.06.12-.09.17-.04.06-.08.11-.13.15-.18.19-.44.3-.7.3m0 3.99a1.016 1.016 0 0 1-.93-.61.986.986 0 0 1-.07-.38c0-.27.1-.53.29-.71.37-.37 1.04-.38 1.41 0a.982.982 0 0 1 0 1.41c-.18.19-.44.29-.7.29m0 4.01a1 1 0 0 1-.71-.3c-.09-.09-.17-.2-.22-.32-.05-.13-.07-.25-.07-.38 0-.14.02-.26.07-.39.05-.12.13-.23.22-.32.37-.37 1.04-.37 1.41 0 .1.09.17.2.22.32.05.13.08.25.08.39 0 .13-.03.25-.08.38-.05.12-.12.23-.22.32-.04.05-.09.09-.15.13-.05.03-.11.06-.17.09-.06.02-.12.04-.19.06-.06.01-.13.02-.19.02"/><path fill="#FFD15D" d="M62.007 58.023a3 3 0 1 1-6 0 3 3 0 0 1 6 0"/><path fill="#475059" d="M205.007 120.023c-1.103 0-2 .897-2 2s.897 2 2 2 2-.897 2-2-.897-2-2-2zm0 6c-2.206 0-4-1.794-4-4 0-2.205 1.794-4 4-4s4 1.795 4 4c0 2.206-1.794 4-4 4z"/><path fill="#FFD15D" d="M125.039 30.992a2 2 0 1 1-4.001-.001 2 2 0 0 1 4.001.001"/><path fill="#48515A" d="M75.986 66.023h2v-4h-2zM75.986 76.023h2v-4h-2zM79.986 70.023h4v-2h-4zM69.986 70.023h4v-2h-4zM143.132 164.148c-1.103 0-2 .897-2 2s.897 2 2 2 2-.897 2-2-.897-2-2-2zm0 6c-2.206 0-4-1.794-4-4 0-2.205 1.794-4 4-4s4 1.795 4 4c0 2.206-1.794 4-4 4zm10 4c-1.103 0-2 .897-2 2s.897 2 2 2 2-.897 2-2-.897-2-2-2zm0 6c-2.206 0-4-1.794-4-4 0-2.205 1.794-4 4-4s4 1.795 4 4c0 2.206-1.794 4-4 4zM141.838 178.857l-1.414-1.414 14-14 1.414 1.414-14 14"/></g></svg>