<?xml version="1.0" encoding="utf-8"?><svg xmlns="http://www.w3.org/2000/svg" width="250" height="250" viewBox="0 0 250 250"><g fill="none" fill-rule="evenodd"><path fill="#DEDEDD" d="M195.022 163.514l-108.07-.006-5.057-1.217 9.313 11.223h103.814v-10"/><path fill="#F58E70" d="M84.018 90.501h110.998V68.5H84.018z"/><path fill="#475059" d="M93.012 75.5v-2c4.411 0 8-3.589 8-8s-3.589-8-8-8-8 3.589-8 8h-2c0-5.514 4.486-10 10-10 5.513 0 10 4.486 10 10s-4.487 10-10 10m23.003 0v-2c4.411 0 8-3.589 8-8s-3.589-8-8-8-8 3.589-8 8h-2c0-5.514 4.486-10 10-10 5.513 0 10 4.486 10 10s-4.487 10-10 10m23.003 0v-2c4.411 0 8-3.589 8-8s-3.589-8-8-8c-4.412 0-8 3.589-8 8h-2c0-5.514 4.486-10 10-10 5.513 0 10 4.486 10 10s-4.487 10-10 10"/><path fill="#475059" d="M82.017 66.5l-.065 91.009a5.005 5.005 0 0 0 5 4.999c2.757 0 5-2.243 5-5v-1h105.065V66.5h-115zm9.83 96.008h112.175a5.009 5.009 0 0 0 4.9-4H93.881a6.994 6.994 0 0 1-2.034 4zm112.175 2H86.952c-3.859 0-7-3.141-7-7l.067-93.008h118.998v92.008h12.005v1c0 3.859-3.14 7-7 7zm-165.009-9.001H68.02V66.499h-.275l-28.733 88.166.001.842zm31.007 2H37.015l-.003-3.158.049-.152 29.233-89.698h3.726v93.008zM72.016 174.51h2V64.5h-2z"/><path fill="#475059" d="M162.021 75.5v-2c4.412 0 8-3.589 8-8s-3.588-8-8-8c-4.411 0-8 3.589-8 8h-2c0-5.514 4.487-10 10-10 5.514 0 10 4.486 10 10s-4.486 10-10 10m23.003 0v-2c4.412 0 8-3.589 8-8s-3.588-8-8-8c-4.411 0-8 3.589-8 8h-2c0-5.514 4.487-10 10-10 5.514 0 10 4.486 10 10s-4.486 10-10 10m-91.026 44.993h8v-8h-8v8zm-2 2h12v-12h-12v12zm2-15.992h8v-8h-8v8zm-2 2h12v-12h-12v12zm2 26h8v-8h-8v8zm-2 2h12v-12h-12v12zm2 11.992h8v-8h-8v8zm-2 2h12v-12h-12v12zm15.992-30h8v-8h-8v8zm-2 2h12v-12h-12v12zm2-15.992h8v-8h-8v8zm-2 2h12v-12h-12v12zm2 26h8v-8h-8v8zm-2 2h12v-12h-12v12zm2 11.992h8v-8h-8v8zm-2 2h12v-12h-12v12zm16-30h8v-8h-8v8zm-2 2h12v-12h-12v12zm2-15.992h8v-8h-8v8zm-2 2h12v-12h-12v12zm2 26h8v-8h-8v8zm-2 2h12v-12h-12v12zm2 11.992h8v-8h-8v8zm-2 2h12v-12h-12v12zm16-30h8v-8h-8v8zm-2 2h12v-12h-12v12zm2-15.992h8v-8h-8v8zm-2 2h12v-12h-12v12zm2 26h8v-8h-8v8zm-2 2h12v-12h-12v12zm2 11.992h8v-8h-8v8zm-2 2h12v-12h-12v12zm16-30h8v-8h-8v8zm-2 2h12v-12h-12v12zm2-15.992h8v-8h-8v8zm-2 2h12v-12h-12v12zm2 26h8v-8h-8v8zm-2 2h12v-12h-12v12zm2 11.992h8v-8h-8v8zm-2 2h12v-12h-12v12zm16-30h8v-8h-8v8zm-2 2h12v-12h-12v12zm2-15.992h8v-8h-8v8zm-2 2h12v-12h-12v12zm2 26h8v-8h-8v8zm-2 2h12v-12h-12v12zm2 11.992h8v-8h-8v8zm-2 2h12v-12h-12v12zm16-30h8v-8h-8v8zm-2 2h12v-12h-12v12zm2-15.992h8v-8h-8v8zm-2 2h12v-12h-12v12zm2 26h8v-8h-8v8zm-2 2h12v-12h-12v12zm2 11.992h8v-8h-8v8zm-2 2h12v-12h-12v12z"/><path fill="#F58E70" d="M66.019 153.507V78.25l-24.523 75.257h24.523"/><path fill="#475059" d="M196.167 174.499H76.018V64.5h2v107.999h116.149v-8.664h2v10.664M53.964 180.522c-1.654 0-3 1.346-3 3 0 1.655 1.346 3 3 3h77.178l6.506-3-6.506-3H53.964zm77.617 8H53.964c-2.757 0-5-2.243-5-5 0-2.756 2.243-5 5-5h77.617l10.843 5-10.843 5z"/><path fill="#475059" d="M59.574 187.522h2v-7.597h-2z"/><path fill="#475059" d="M60.574 184.494h70.019v-2H60.574z"/><path fill="#F58E70" d="M169 181.5c-6.065 0-11 4.935-11 11s4.935 11 11 11 11-4.935 11-11-4.935-11-11-11zm0 24c-7.168 0-13-5.832-13-13s5.832-13 13-13 13 5.832 13 13-5.832 13-13 13z"/><path fill="#48515A" d="M170.016 197.505h-2v-5.434l3.383-3.295 1.395 1.434-2.778 2.705v4.59"/><path fill="#F58E70" d="M168.097 185.493h2v-2h-2zM168.097 201.493h2v-2h-2zM176.097 193.493h2v-2h-2zM160.097 193.493h2v-2h-2z"/><path fill="#48515A" d="M35 94.5h2v-4h-2zM35 104.5h2v-4h-2zM39 98.5h4v-2h-4zM29 98.5h4v-2h-4zM213 130.5h2v-4h-2zM213 140.5h2v-4h-2zM217 134.5h4v-2h-4zM207 134.5h4v-2h-4zM203 50.5h2v-4h-2zM203 60.5h2v-4h-2zM207 54.5h4v-2h-4zM197 54.5h4v-2h-4z"/><path fill="#FFD15D" d="M213 93.5a3 3 0 1 1-6 0 3 3 0 0 1 6 0m-166 74a3 3 0 1 1-6 0 3 3 0 0 1 6 0m6-101a2 2 0 1 1-3.999.001A2 2 0 0 1 53 66.5m-2 18a4 4 0 1 1-8 0 4 4 0 0 1 8 0m104-38a2 2 0 1 1-3.999.001A2 2 0 0 1 155 46.5m32 135a3 3 0 1 1 6 0 3 3 0 0 1-6 0"/></g></svg>