<?xml version="1.0" encoding="utf-8"?><svg xmlns="http://www.w3.org/2000/svg" width="193" height="170" viewBox="0 0 193 170"><g fill="none" fill-rule="evenodd"><path fill="#48515A" d="M184.107 132.072h2v-4h-2zM184.107 142.072h2v-4h-2zM188.107 136.072h4v-2h-4zM178.107 136.072h4v-2h-4zM6 92.048h2v-4H6zM6 102.048h2v-4H6zM10 96.048h4v-2h-4zM0 96.048h4v-2H0z"/><path fill="#475059" d="M27.506 32.001h123.998v-30H27.506v30zm-2 2h127.998v-34H25.506v34z"/><path fill="#F58E70" d="M57.523 30.001h30v-26h-30z"/><path fill="#475059" d="M27.506 168h123.998v-8H27.506v8zm-2 2h127.998v-12H25.506v12z"/><path fill="#DEDEDD" d="M29.506 166h119.999v-4H29.506z"/><path fill="#475059" d="M138.504 159.999H40.506V32h96.998v2H42.506v123.999h93.998v-8.168h2v10.168"/><path fill="#475059" d="M102.969 74H46.506V33.001h2V72h54.463v2M107.969 74h10.833v-2h-10.833zM125.185 74h9.781v-2h-9.781zM82.502 116.999H46.506V89h2v25.999h31.996V78H46.505v-2h35.997v40.999"/><path fill="#5FE0ED" d="M50.504 98.004h17.994V84.002H50.504z"/><path fill="#475059" d="M68.5 116.999H50.501v-17h2v15H66.5v-15h2v17"/><path fill="#475059" d="M54.502 105.999h2v-2h-2zM58.505 105.999h2v-2h-2zM62.507 105.999h2v-2h-2zM54.502 110.002h2v-2h-2zM58.505 110.002h2v-2h-2zM62.507 110.002h2v-2h-2zM54.502 101.997h2v-2h-2zM58.505 101.997h2v-2h-2zM62.507 101.997h2v-2h-2zM70.503 98.004h7.999v-2h-7.999zM70.503 94.001h7.999v-2h-7.999zM72.504 86h-2v-4.001h-22V86h-2v-6.001h26V86M72.504 105.999h3.999v-4h-3.999v4zm-2 2h7.998v-8h-7.998v8z"/><path fill="#F58E70" d="M44.506 156.001h89.998v-26H44.506z"/><path fill="#FFD15D" d="M90.955 107h43.018V77H90.955z"/><path fill="#475059" d="M94.955 96h6v-8h-6v8zm-2 2h10V86h-10v12z"/><path fill="#475059" d="M96.955 110h2V98h-2v12zm-2 2h6V96h-6v16z"/><path fill="#475059" d="M101.955 138c-2.757 0-5-2.243-5-5v-22h2v22c0 1.654 1.346 3 3 3s3-1.346 3-3V33.001h2V133c0 2.757-2.243 5-5 5m9.01-42h6v-8h-6v8zm-2 2h10V86h-10v12z"/><path fill="#475059" d="M112.965 110h2V98h-2v12zm-2 2h6V96h-6v16z"/><path fill="#475059" d="M117.965 138c-2.757 0-5-2.243-5-5v-22h2v22c0 1.654 1.346 3 3 3s3-1.346 3-3V33.001h2V133c0 2.757-2.243 5-5 5m33.982-64v8h8.001l-.001-8h-8zm8 10h-8c-1.102 0-2-.897-2-2v-8c0-1.103.898-2 2-2h8c1.103 0 2 .897 2 2v8c0 1.103-.897 2-2 2z"/><path fill="#475059" d="M172.24 81.707L168.533 78h-7.586v-2h8.414l4.293 4.293-1.414 1.414M154.949 90h-8v-2h8a1 1 0 0 0 1-1v-4h2v4c0 1.654-1.345 3-3 3"/><path fill="#475059" d="M146.802 95.364l-5.953-.744 1.796-14.364a6.01 6.01 0 0 1 5.953-5.255h2.6v2h-2.6a4.006 4.006 0 0 0-3.969 3.503l-1.548 12.38 1.984.248 1.548-12.379a2.004 2.004 0 0 1 1.985-1.752h2.6v2h-2.6l-1.796 14.363"/><path fill="#475059" d="M140.682 148.006a4.288 4.288 0 0 1-4.283-4.283V33.001h2v110.722a2.286 2.286 0 0 0 2.283 2.283 2.287 2.287 0 0 0 2.283-2.283V93.982h2v49.741a4.289 4.289 0 0 1-4.283 4.283"/><path fill="#48515A" d="M152.632 42.019h2v-4h-2zM152.632 52.019h2v-4h-2zM156.632 46.019h4v-2h-4zM146.632 46.019h4v-2h-4zM76.477 60.988c-1.104 0-2 .897-2 2s.896 2 2 2c1.103 0 2-.897 2-2s-.897-2-2-2zm0 6c-2.206 0-4-1.795-4-4 0-2.206 1.794-4 4-4 2.205 0 4 1.794 4 4 0 2.205-1.795 4-4 4zm80.047 44.03c-1.102 0-2 .897-2 2 0 1.102.898 2 2 2 1.103 0 2-.898 2-2 0-1.103-.897-2-2-2zm0 6c-2.206 0-4-1.794-4-4s1.794-4 4-4 4 1.794 4 4-1.794 4-4 4z"/><path fill="#475059" d="M42.434 12.636c-1.245 2.424-2.657 5.191-2.785 5.489a3.002 3.002 0 0 0 2.786 4.11 3.002 3.002 0 0 0 2.782-4.117c-.12-.276-1.536-3.05-2.783-5.482zm.001 11.599a5.004 5.004 0 0 1-4.639-6.864c.176-.436 2.914-5.76 3.749-7.381l.891-1.728.888 1.728c.84 1.635 3.593 6.996 3.749 7.381a5.004 5.004 0 0 1-4.638 6.864z"/><path fill="#475059" d="M31.196 28.001h22v-22h-22v22zm-2 2h26v-26h-26v26zm144.235 57.628c-1.244 2.424-2.657 5.19-2.785 5.489a3.003 3.003 0 0 0 2.787 4.111 3.002 3.002 0 0 0 2.782-4.119c-.12-.273-1.536-3.047-2.784-5.481zm.002 11.6a5.005 5.005 0 0 1-4.639-6.865c.176-.436 2.914-5.76 3.749-7.382l.89-1.727.888 1.728c.84 1.634 3.593 6.996 3.748 7.379.241.596.362 1.224.362 1.868a5.005 5.005 0 0 1-4.998 4.999z"/><path fill="#DEDEDD" d="M149.971 65.982a2 2 0 1 1-4 0 2 2 0 0 1 4 0M19.893 136.024a2 2 0 1 1-4 0 2 2 0 0 1 4 0m2.001-60.036a2 2 0 1 1-3.999.001 2 2 0 0 1 3.999-.001"/><path fill="#FFD15D" d="M171.984 106.006a2 2 0 1 1-3.999.001 2 2 0 0 1 3.999-.001M81.93 45.97a2 2 0 1 1-3.999.001 2 2 0 0 1 3.999-.001"/></g></svg>