<?xml version="1.0" encoding="utf-8"?><svg xmlns="http://www.w3.org/2000/svg" width="192" height="165" viewBox="0 0 192 165"><g fill="none" fill-rule="evenodd"><path fill="#5FE0ED" d="M190 151a2 2 0 1 1 0 4 2 2 0 0 1 0-4"/><path fill="#FFD15D" d="M40.58 53.739l-3.02-3.721H21v97.323a4.682 4.682 0 0 0 4.676 4.677h.558a4.009 4.009 0 0 0 3.926-3.234l10.506-53.843-.086-41.202m9.891 22.279l-3.804 19.496v.106l-.083.427h41.119l-5.523 28.304H41.05l-4.999 25.568-.002.014-.001.001a9.962 9.962 0 0 1-.247.98c-.03.099-.066.195-.099.293-.075.221-.155.44-.245.654-.021.051-.036.106-.058.157H154.23a4.007 4.007 0 0 0 3.926-3.234l14.198-72.766H50.471"/><path fill="#F58E70" d="M145.038 121.094L134 116.363l14.724 35.655h5.506a4.007 4.007 0 0 0 3.926-3.234l3.311-16.97-6.557 13.187-9.872-23.907"/><path fill="#475059" d="M19 147.018h-2v-101h22.465l4.89 6.024-1.553 1.261-4.29-5.285H19v99M154.23 156.018H25.5v-2h128.73a6.012 6.012 0 0 0 5.889-4.851l3.733-19.126 1.962.382-3.732 19.126a8.015 8.015 0 0 1-7.852 6.469"/><path fill="#475059" d="M26.233 156.018h-.556A8.687 8.687 0 0 1 17 147.341V59.018h2v88.323a6.684 6.684 0 0 0 6.677 6.677h.556a6.013 6.013 0 0 0 5.89-4.851l15.053-77.149H177.21l-7.327 37.552-1.963-.383 6.862-35.169H48.823l-14.737 75.531a8.017 8.017 0 0 1-7.853 6.469"/><path fill="#475059" d="M39.167 119.691h-6.204a7.674 7.674 0 0 1 0-15.346h26.692a4.336 4.336 0 0 1 0 8.673H32.998v-2h26.657a2.336 2.336 0 1 0 0-4.673H32.963a5.673 5.673 0 0 0 0 11.346h6.204v2"/><path fill="#475059" d="M83.004 125.352H38v-2h43.356l5.133-26.304H43.523v-2h45.393l-5.912 30.304"/><path fill="#DFE0E0" d="M25.5 155.018h.176c-.059 0-.117-.008-.177-.009l.001.009"/><path fill="#48515A" d="M135.86 96.251l19.134 46.335 7.905-15.898 14.147 14.147 3.423-3.423-14.277-14.277 13.499-8.099-43.831-18.785zm18.966 51.166L132.14 92.48l51.934 22.258-14.657 8.794 13.88 13.88-6.251 6.251-13.594-13.595-8.626 17.349z"/><path fill="#475059" d="M167.708 43.141a3.848 3.848 0 0 0 .001 7.693 3.848 3.848 0 0 0 3.846-3.847 3.851 3.851 0 0 0-3.847-3.846zm0 9.693a5.847 5.847 0 1 1 5.847-5.847 5.853 5.853 0 0 1-5.847 5.847z"/><path fill="#475059" d="M167.708 56.987c-5.523.001-10-4.476-10-9.999a10.034 10.034 0 0 1 9.611-9.993c5.52-.214 10.167 4.086 10.381 9.606a9.9 9.9 0 0 1 .008.386v2.77a3.077 3.077 0 1 1-6.153 0v-7.615h2v7.615a1.077 1.077 0 1 0 2.153 0v-2.77a8 8 0 0 0-8.312-7.993 8.125 8.125 0 0 0-7.682 7.681 7.995 7.995 0 0 0 13.027 6.531l1.262 1.552a9.953 9.953 0 0 1-6.295 2.229M18.394 65.005c-5.932 0-10.741 4.809-10.741 10.742 0 5.932 4.809 10.741 10.741 10.741 5.933 0 10.742-4.809 10.742-10.741-.007-5.93-4.812-10.735-10.742-10.742zm0 23.483c-7.036 0-12.741-5.705-12.741-12.741 0-7.037 5.705-12.742 12.741-12.742 7.037 0 12.742 5.705 12.742 12.742-.008 7.033-5.708 12.733-12.742 12.741z"/><path fill="#475059" d="M18.394 65.005c-2.885 0-5.323 4.919-5.323 10.742 0 5.822 2.438 10.741 5.323 10.741 2.884 0 5.322-4.919 5.322-10.741 0-5.823-2.438-10.742-5.322-10.742zm0 23.483c-4.106 0-7.323-5.597-7.323-12.741 0-7.145 3.217-12.742 7.323-12.742 4.105 0 7.322 5.597 7.322 12.742 0 7.144-3.217 12.741-7.322 12.741z"/><path fill="#475059" d="M6.653 76.747h23.482v-2H6.653z"/><path fill="#F58E70" d="M23.66 30.985a2 2 0 1 1 0 4 2 2 0 0 1 0-4"/><path fill="#F58E70" d="M23.66 31.985a1 1 0 1 0 0 2 1 1 0 0 0 0-2zm0 4a3 3 0 1 1 0-6 3 3 0 0 1 0 6z"/><path fill="#48515A" d="M6 25.009h2v-4H6zM6 35.009h2v-4H6zM10 29.009h4v-2h-4zM0 29.009h4v-2H0z"/><path fill="#FFD15D" d="M168 161a2 2 0 1 1 0 4 2 2 0 0 1 0-4"/><path fill="#475059" d="M16.974 16.003h26v-1c0-7.18-5.821-13-13-13-7.18 0-13 5.82-13 13v1zm28 79.996h-2V18.003h-28v-3c0-8.284 6.715-15 15-15 8.284 0 15 6.716 15 15v80.996z"/><path fill="#475059" d="M150.037 72.985h-2V15.003c-.008-7.176-5.824-12.992-13-13H29.974v-2h105.062c8.281.009 14.991 6.719 15.001 15v57.982"/><path fill="#475059" d="M78.725 48.009l21.221 14.763 19.376-14.763h-8.348V15.003c-.008-7.176-5.824-12.992-13-13h-18.46a15.01 15.01 0 0 1 7.522 13v33.006h-8.311zm21.274 17.236L75.973 48.531v-2.522h9.063V15.003c-.008-7.176-5.824-12.992-13-13v-2h25.938c8.28.009 14.99 6.72 15 15v31.006h8.999v2.495L99.999 65.245z"/><path fill="#DFE0E0" d="M19.019 14.003c.552-6.05 5.905-10.507 11.955-9.954a11.001 11.001 0 0 1 9.955 9.954h-21.91"/><path fill="#5FE0ED" d="M85.102 50.009l14.791 10.289 13.503-10.289h-4.422V15.003c-.007-6.072-4.928-10.993-11-11H84.988a16.93 16.93 0 0 1 4.048 11v35.006h-3.934"/></g></svg>