<?xml version="1.0" encoding="utf-8"?><svg xmlns="http://www.w3.org/2000/svg" width="250" height="250" viewBox="0 0 250 250"><g fill="none" fill-rule="evenodd"><path fill="#FACD60" d="M160.584 57.162v23.842h23.843"/><path fill="#434A4F" d="M80.096 199.216h103.331V81.419L160.17 58.162H80.096v141.054zm105.331 2H78.096V56.162h82.902l24.429 24.428v120.626z"/><path fill="#434A4F" d="M180.429 205.042H69.096c-6.066 0-11-4.935-11-11 0-6.066 4.934-11 11-11 6.065 0 11 4.934 11 11a1 1 0 0 1-2 0c0-4.963-4.037-9-9-9s-9 4.037-9 9c0 4.962 4.037 9 9 9h111.333a1 1 0 1 1 0 2"/><path fill="#434A4F" d="M59.096 195.042a1 1 0 0 1-1-1V55.958c0-6.065 4.934-11 11-11 6.065 0 11 4.935 11 11a1 1 0 1 1-2 0c0-4.962-4.037-9-9-9s-9 4.038-9 9v138.084a1 1 0 0 1-1 1m48.065-40.983v.002-.002zm0 2.002c-1.102 0-2-.897-2-2s.898-2 2-2c1.103 0 2 .897 2 2s-.897 2-2 2zM113.16 155.062h54.019v-2H113.16zM107.161 162.064v.002-.002zm0 2.002c-1.102 0-2-.898-2-2 0-1.103.898-2 2-2 1.103 0 2 .897 2 2 0 1.102-.897 2-2 2zM113.16 163.066h54.019v-2H113.16zM107.161 170.069v.002-.002zm0 2.002c-1.102 0-2-.898-2-2 0-1.103.898-2 2-2 1.103 0 2 .897 2 2 0 1.102-.897 2-2 2zM113.16 171.071h54.019v-2H113.16zM107.161 186.079v.002-.002zm0 2.002c-1.102 0-2-.898-2-2 0-1.103.898-2 2-2 1.103 0 2 .897 2 2 0 1.102-.897 2-2 2zM113.16 187.081h54.019v-2H113.16zM107.161 178.074v.002-.002zm0 2.002c-1.102 0-2-.898-2-2 0-1.103.898-2 2-2 1.103 0 2 .897 2 2 0 1.102-.897 2-2 2zM113.16 179.076h54.019v-2H113.16zM107.161 116.037v.002-.002zm0 2.002c-1.102 0-2-.898-2-2 0-1.103.898-2 2-2 1.103 0 2 .897 2 2 0 1.102-.897 2-2 2zM113.16 117.039h54.019v-2H113.16zM107.161 132.046v.001-.001zm0 2.001c-1.102 0-2-.897-2-2 0-1.102.898-2 2-2 1.103 0 2 .898 2 2 0 1.103-.897 2-2 2zM113.16 133.048h54.019v-2H113.16zM107.161 124.042v.001-.001zm0 2.001c-1.102 0-2-.897-2-2 0-1.102.898-2 2-2 1.103 0 2 .898 2 2 0 1.103-.897 2-2 2zM113.16 125.043h54.019v-2H113.16zM89.097 114.041l.001.001h.999l-1-.001zm0 2.001c-1.103 0-2-.898-2-2 0-1.103.897-2 2-2 1.102 0 2 .897 2 2 0 1.102-.898 2-2 2zm0 31.999l.001.001h.999l-1-.001zm0 2.001c-1.103 0-2-.898-2-2 0-1.103.897-2 2-2 1.102 0 2 .897 2 2 0 1.102-.898 2-2 2z"/><path fill="#434A4F" d="M89.097 104.042c-2.206 0-4 1.793-4 4v44c0 2.206 1.794 4 4 4s4-1.794 4-4v-44c0-2.207-1.794-4-4-4zm0 54c-3.309 0-6-2.692-6-6v-44c0-3.309 2.691-6 6-6 3.308 0 6 2.691 6 6v44c0 3.308-2.692 6-6 6z"/><path fill="#434A4F" d="M89.097 126.042a1 1 0 0 1-1-1v-10a1 1 0 1 1 2 0v10a1 1 0 0 1-1 1m0 22a1 1 0 0 1-1-1v-10a1 1 0 1 1 2 0v10a1 1 0 0 1-1 1M141.104 91.049h22v-2h-22zM141.104 95.049h26v-2h-26z"/><path fill="#DBDBD5" d="M69.095 201.05c-3.85 0-7-3.15-7-7s3.15-7 7-7 7.001 3.15 7.001 7v7h-7.001"/><path fill="#E9886C" d="M119.555 100.642c-.058.232-1.258 6.324-1.332 6.841l3.938.187c-.074-.516-1.184-6.796-1.242-7.028a.455.455 0 0 0 .455-.454V99.05l-1.156-1.365-1.118 1.365v1.138c0 .251.204.454.455.454"/><path fill="#DDDED9" d="M116.74 94.277v.993l3.44 1.933 3.411-1.876.031-1.818v-1.533a6.68 6.68 0 0 0 .383-.406c-.041.036-.08.072-.113.108-.479.514-1.204 1.054-1.695 1.473a2.173 2.173 0 0 1-1.39.521h-1.476a2.178 2.178 0 0 1-1.39-.521c-.468-.4-1.15-.91-1.627-1.402l-.047-.045c.143.152.307.307.481.46-.004.002-.008.004-.008.009v2.104"/><path fill="#434A4F" d="M116.74 96.242a1 1 0 0 1-1-1v-3.07a1 1 0 0 1 2 0v3.07a1 1 0 0 1-1 1"/><path fill="#434A4F" d="M123.599 96.185a1 1 0 0 1-1-1v-3.633l.298-.294c.408-.4.491-.551.506-.588l1.55-3.169 1.464-.733.2-.991h-1.096l.125-1.173c.117-.665.175-1.261.175-1.773v-.254a5.384 5.384 0 0 0-.49-2.318l-.1-.211a5.743 5.743 0 0 0-1.582-1.947 5.636 5.636 0 0 0-3.481-1.219c-1.513-.011-2.892.578-3.979 1.658a5.941 5.941 0 0 0-1.756 4.183v.108c0 .522.05 1.126.152 1.797l.173 1.149h-1.097l.287 1.003 1.306.754 1.454 3.074c.15.368.994 1.055 1.399 1.384.173.14.338.274.484.398.209.18.475.279.752.282h1.468a1 1 0 0 1 0 2h-1.48a3.185 3.185 0 0 1-2.04-.761 22.076 22.076 0 0 0-.444-.367c-.988-.802-1.707-1.426-1.981-2.16l-1.152-2.43-1.467-.846-.692-2.565c0-.674.38-1.261.935-1.559a12.528 12.528 0 0 1-.057-1.153v-.108c0-2.079.855-4.121 2.347-5.603 1.454-1.445 3.353-2.238 5.349-2.238h.052a7.616 7.616 0 0 1 4.707 1.649 7.77 7.77 0 0 1 2.262 2.897c.445.958.679 2.035.672 3.103l-.001.3c0 .355-.022.738-.066 1.144.16.085.308.194.438.329.33.34.505.788.493 1.262l-.02.17-.481 2.384-1.734.867-1.216 2.479c-.108.298-.354.612-.636.913v2.806a1 1 0 0 1-1 1"/><path fill="#434A4F" d="M105.572 100.751l-.66-1.888 8.944-3.13 1.328-2.457h1.453v2h-.26l-1.128 2.09-9.677 3.385"/><path fill="#434A4F" d="M120.237 98.378l-3.983-2.231a.998.998 0 0 1-.384-1.36.996.996 0 0 1 1.36-.384l3.007 1.682 2.874-1.608a.998.998 0 0 1 1.361.384.999.999 0 0 1-.384 1.36l-3.851 2.157"/><path fill="#434A4F" d="M134.977 100.368l-9.73-2.953-1.306-2.139h-.294v-2h1.417l1.494 2.446 8.999 2.732-.58 1.914M122.283 100.96a.994.994 0 0 1-.743-.331l-1.303-1.448-1.303 1.448a.998.998 0 0 1-1.413.075 1.002 1.002 0 0 1-.074-1.413l2.79-3.1 2.789 3.1a1 1 0 0 1-.743 1.669"/><path fill="#434A4F" d="M120.099 73.326c-9.286 0-16.839 7.554-16.839 16.839 0 9.286 7.553 16.84 16.839 16.84 9.285 0 16.839-7.554 16.839-16.84 0-9.285-7.554-16.839-16.839-16.839zm0 35.679c-10.388 0-18.839-8.451-18.839-18.84 0-10.388 8.451-18.839 18.839-18.839 10.388 0 18.839 8.451 18.839 18.839 0 10.389-8.451 18.84-18.839 18.84zM212.922 175.031h2v-4h-2zM212.922 185.031h2v-4h-2zM216.922 179.031h4v-2h-4zM206.922 179.031h4v-2h-4zM34.903 131.066h2v-4h-2zM34.903 141.066h2v-4h-2zM38.903 135.066h4v-2h-4zM28.903 135.066h4v-2h-4zM91.937 71.031h2v-4h-2zM91.937 81.031h2v-4h-2zM95.937 75.031h4v-2h-4zM85.937 75.031h4v-2h-4z"/><path fill="#42494E" d="M204.097 134.697c-4.963 0-9 4.037-9 9s4.037 9 9 9 9-4.037 9-9-4.037-9-9-9zm0 20c-6.066 0-11-4.935-11-11 0-6.066 4.934-11 11-11 6.065 0 11 4.934 11 11 0 6.065-4.935 11-11 11zm0-26c-8.272 0-15 6.728-15 15 0 8.271 6.728 15 15 15 8.271 0 15-6.729 15-15 0-8.272-6.729-15-15-15zm0 32c-9.374 0-17-7.626-17-17 0-9.374 7.626-17 17-17 9.374 0 17 7.626 17 17 0 9.374-7.626 17-17 17z"/><path fill="#42494E" d="M204.097 140.697c-1.655 0-3 1.345-3 3 0 1.654 1.345 3 3 3 1.654 0 3-1.346 3-3 0-1.655-1.346-3-3-3zm0 8c-2.757 0-5-2.243-5-5s2.243-5 5-5 5 2.243 5 5-2.243 5-5 5z"/><path fill="#E9886C" d="M204.097 139.697a4 4 0 1 0 0 8 4 4 0 0 0 0-8"/><path fill="#E9886C" d="M204.097 140.697c-1.655 0-3 1.345-3 3 0 1.654 1.345 3 3 3 1.654 0 3-1.346 3-3 0-1.655-1.346-3-3-3zm0 8c-2.757 0-5-2.243-5-5s2.243-5 5-5 5 2.243 5 5-2.243 5-5 5z"/><path fill="#42494E" d="M177.099 144.697h26.998v-2h-26.998z"/><path fill="#42494E" d="M170.513 146.697h3.172l3-3-3-3h-3.172l3 3-3 3zm4 2h-8.828l5-5-5-5h8.828l5 5-5 5z"/><path fill="#FACD60" d="M201.194 88.042a4 4 0 1 0-8 0 4 4 0 0 0 8 0m-150.09 90.054a4 4 0 1 0-8 0 4 4 0 0 0 8 0"/><path fill="#DBDBD5" d="M69.096 48.958a6.9 6.9 0 0 0-.991.079V181.08a12.92 12.92 0 0 1 7.991 2.011V55.958c0-3.86-3.14-7-7-7"/></g></svg>