<?xml version="1.0" encoding="utf-8"?><svg xmlns="http://www.w3.org/2000/svg" width="250" height="250" viewBox="0 0 250 250"><g fill="none" fill-rule="evenodd"><path fill="#FFD15D" d="M163.123 102.124l32.836-18.959L125 42.197 92.153 61.161l70.97 40.963M90.153 62.316L54.041 83.165 125 124.134l36.122-20.855-70.969-40.963M124 125.866L53.04 84.897v81.937L124 207.803v-81.937M186.464 159.552l-50.969 29.704v-24.672l50.969-29.704v24.672zM126 125.865v81.938l70.959-40.968V84.897L126 125.865z"/><path fill="#48515A" d="M146.56 138.655v1.79l28.841-16.651v-1.79l-28.841 16.651zm-2 5.254v-6.408l32.841-18.961v6.409l-32.841 18.96zm-8.279 8.909v1.791l49.45-28.55v-1.79l-49.45 28.549zm-2 5.255v-6.409l53.45-30.859v6.408l-53.45 30.86zM34.957 161.018h2v-4h-2zM34.957 171.018h2v-4h-2zM38.957 165.018h4v-2h-4zM28.957 165.018h4v-2h-4zM175 42.965h2v-4h-2zM175 52.965h2v-4h-2zM179 46.965h4v-2h-4zM169 46.965h4v-2h-4zM213.021 194.965h2v-4h-2zM213.021 204.965h2v-4h-2zM217.021 198.965h4v-2h-4zM207.021 198.965h4v-2h-4zM48.887 97.907a3 3 0 1 0 0 6 3 3 0 0 0 0-6zm0 8a5 5 0 1 1 5-5 5.006 5.006 0 0 1-5 5zm0 14a3 3 0 1 0 0 6 3 3 0 0 0 0-6zm0 8a5 5 0 1 1 5-5 5.006 5.006 0 0 1-5 5z"/><path fill="#48515A" d="M45.935 118.872L72.267 98.12l1.239 1.572-26.332 20.751-1.239-1.571"/><path fill="#48515A" d="M45.768 104.817l1.238-1.571 26.5 20.875-1.238 1.571-26.5-20.875M61.887 112.906h2v-2h-2v2zm4 0h2v-2h-2v2zm4 0h2v-2h-2v2zm4 0h2v-2h-2v2zM159.011 197.979h2v-18h-2zM163.011 197.977h4v-17.965h-4zM169.011 197.979h2v-18h-2zM173.011 197.979h2v-18h-2zM177.011 197.977h4v-17.998h-4zM183.011 197.979h2v-18h-2zM187.011 197.977h4v-17.998h-4zM120.527 63.08l10.452 25.309 4.472-8.996 8.387 8.388 1.414-1.415-8.431-8.431 7.654-4.591-23.948-10.264zm10.283 30.14l-14.004-33.91 32.052 13.736-8.811 5.286 8.034 8.034-4.243 4.243-7.835-7.835-5.193 10.446z"/><path fill="#5FE0ED" d="M86.012 201.006a3 3 0 1 1 0 6 3 3 0 0 1 0-6M195 65a2 2 0 1 1 .001 3.999A2 2 0 0 1 195 65M40 55a3 3 0 1 1 0 6 3 3 0 0 1 0-6m167 84a2 2 0 1 1 .001 3.999A2 2 0 0 1 207 139"/><path fill="#FFD15D" d="M79.036 48.021l1.279 2.592 2.861.416a.964.964 0 0 1 .535 1.646l-2.07 2.018.489 2.849a.965.965 0 0 1-1.401 1.017l-2.559-1.345-2.559 1.345a.965.965 0 0 1-1.4-1.017l.489-2.849-2.07-2.018a.965.965 0 0 1 .535-1.646l2.861-.416 1.279-2.592a.966.966 0 0 1 1.731 0M56.394 184.93l1.829 3.707 4.091.594a1.38 1.38 0 0 1 .765 2.354l-2.96 2.885.699 4.075a1.38 1.38 0 0 1-2.003 1.454l-3.658-1.923-3.659 1.923a1.38 1.38 0 0 1-2.003-1.454l.699-4.075-2.96-2.885a1.38 1.38 0 0 1 .765-2.354l4.091-.594 1.829-3.707a1.38 1.38 0 0 1 2.475 0"/></g></svg>