<?xml version="1.0" encoding="utf-8"?><svg xmlns="http://www.w3.org/2000/svg" width="192" height="171" viewBox="0 0 192 171"><g fill="none" fill-rule="evenodd"><path fill="#DEDEDD" d="M184.006 95.594l-28-12 12.227 29.61 4.834-9.721 8.111 8.111 2.828-2.828-8.232-8.232 8.232-4.94"/><path fill="#5FE0ED" d="M50 147.587h92v-6H50v6zm93.419-54.226H48.581a1.518 1.518 0 0 0-1.517 1.516v55.71h97.872v-55.71a1.52 1.52 0 0 0-1.517-1.516z"/><path fill="#FFD15D" d="M69.645 61.265h75.291V16.587H69.645z"/><path fill="#DEDEDD" d="M48.581 61.265h15.306V16.587H47.064v43.162c.001.837.68 1.515 1.517 1.516"/><path fill="#475059" d="M30.516 14.587A3.52 3.52 0 0 0 27 18.103v130.968a3.52 3.52 0 0 0 3.516 3.516h130.968a3.52 3.52 0 0 0 3.516-3.516V27.549l-12.962-12.962H30.516zm130.968 140H30.516A5.522 5.522 0 0 1 25 149.071V18.103a5.522 5.522 0 0 1 5.516-5.516h122.35L167 26.721v122.35a5.523 5.523 0 0 1-5.516 5.516z"/><path fill="#475059" d="M68.645 14.587a1.002 1.002 0 0 0-1 1v46.678c.001.552.448 1 1 1h77.291c.552 0 .999-.448 1-1V15.587a1.002 1.002 0 0 0-1-1H68.645zm77.291 50.678H68.645a3.004 3.004 0 0 1-3-3V15.587a3.004 3.004 0 0 1 3-3h77.291a3.004 3.004 0 0 1 3 3v46.678a3.004 3.004 0 0 1-3 3z"/><path fill="#475059" d="M121.839 53.232h16.064V23.619h-16.064v29.613zm-2 2h20.064V21.619h-20.064v33.613zM71.161 65.265h-22.58a5.523 5.523 0 0 1-5.517-5.516V13.587h2v46.162a3.52 3.52 0 0 0 3.517 3.516h22.58v2m77.775 88.322h-2v-58.71a3.522 3.522 0 0 0-3.517-3.516H48.581a3.52 3.52 0 0 0-3.517 3.516v58.71h-2v-58.71a5.524 5.524 0 0 1 5.517-5.516h94.838a5.524 5.524 0 0 1 5.517 5.516v58.71"/><path fill="#475059" d="M53.097 100.907h85.806v-2H53.097zM33 146.588h6v-12h-6v12zm-2 2h10v-16H31v16zm122.072-2h6v-12h-6v12zm-2 2h10v-16h-10v16zM53.097 104.91h85.806v-2H53.097z"/><path fill="#FFF" d="M174 83.587l-28-12 12.227 29.61 4.834-9.721 8.111 8.111L174 96.759l-8.232-8.233L174 83.587"/><path fill="#48515A" d="M147.86 73.472l10.452 25.309 4.472-8.995 8.387 8.387 1.415-1.415-8.431-8.43 7.654-4.592-23.949-10.264zm10.283 30.14l-14.003-33.91 32.051 13.736-8.811 5.287 8.034 8.033-4.243 4.243-7.834-7.834-5.194 10.445zM6 61.759h2v-4H6zM6 71.759h2v-4H6zM10 65.759h4v-2h-4zM0 65.759h4v-2H0zM184 153.587h2v-4h-2zM184 163.587h2v-4h-2zM188 157.587h4v-2h-4zM178 157.587h4v-2h-4zM172 5.587h2v-4h-2zM172 15.587h2v-4h-2zM176 9.587h4v-2h-4zM166 9.587h4v-2h-4z"/><path fill="#5FE0ED" d="M182 126.587a3 3 0 1 1 0 6 3 3 0 0 1 0-6m-167-34a2 2 0 1 1 .001 3.999A2 2 0 0 1 15 92.587"/><path fill="#FFD15D" d="M134 .587a1 1 0 1 1 0 2 1 1 0 0 1 0-2"/><path fill="#5FE0ED" d="M123 161.587a3 3 0 1 1 0 6 3 3 0 0 1 0-6"/><path fill="#FFD15D" d="M14 143.587a4 4 0 1 1 0 8 4 4 0 0 1 0-8"/><path fill="#FFD15D" d="M14 153.587a6 6 0 1 1 6-6 6.007 6.007 0 0 1-6 6zm0-14a8 8 0 1 0 0 16 8 8 0 0 0 0-16zm166-100a4 4 0 1 1 0 8 4 4 0 0 1 0-8"/><path fill="#FFD15D" d="M180 49.587a6 6 0 1 1 6-6 6.007 6.007 0 0 1-6 6zm0-14a8 8 0 1 0 0 16 8 8 0 0 0 0-16zM32 73.946l3 2.924-.708 4.13L38 79.05 41.708 81 41 76.87l3-2.924-4.146-.602L38 69.587l-1.854 3.757zM150 163.946l3 2.925-.708 4.129 3.708-1.95 3.708 1.95-.708-4.129 3-2.925-4.146-.602-1.854-3.757-1.854 3.757z"/></g></svg>