<?xml version="1.0" encoding="utf-8"?><svg xmlns="http://www.w3.org/2000/svg" width="250" height="250" viewBox="0 0 250 250"><g fill="none" fill-rule="evenodd"><path fill="#DEDEDD" d="M216.172 183.959H33.828"/><path fill="#5FE0ED" d="M76.913 109.391l-2.425 1.779-.956 10.741 2.21 1.911h18.093l2.421-1.866.548-10.743-2.228-1.822H76.913M75.46 126.341l-2.49 1.879-1.013 11.377 2.26 2.011h18.651l2.484-1.965.582-11.38-2.279-1.922H75.46M73.916 144.35l-2.559 1.986-1.074 12.068 2.312 2.127h19.243l2.553-2.082.617-12.069-2.332-2.03h-18.76M102.424 126.341l-2.42 1.893-.481 11.379 2.335 1.995H120.5l2.418-1.98.05-11.38-2.357-1.907h-18.187M100.974 163.517l-2.552 2.119-.543 12.83 2.454 2.237H120.2l2.549-2.22.056-12.832-2.479-2.134h-19.352M103.085 109.391l-2.359 1.793-.455 10.743 2.281 1.895h18.085l2.359-1.879.047-10.745-2.302-1.807h-17.656M101.722 144.35l-2.484 2.001-.511 12.068 2.393 2.112h19.234l2.482-2.095.053-12.071-2.416-2.015h-18.751M67.025 123.822l2.497-1.852 1.05-10.742-2.168-1.837H50.747l-2.49 1.767-1.457 10.737 2.139 1.927h18.086M43.581 163.517l-2.714 2.092-1.74 12.824 2.278 2.27h19.869l2.72-2.191 1.254-12.829-2.313-2.166H43.581M182.975 123.822h18.087l2.138-1.927-1.456-10.737-2.491-1.767h-17.656l-2.169 1.837 1.05 10.742 2.497 1.852M72.273 163.517l-2.632 2.105-1.143 12.827 2.366 2.254h19.877l2.627-2.206.655-12.83-2.388-2.15H72.273M66.691 126.341H48.502l-2.559 1.866-1.544 11.374 2.184 2.027h18.644l2.566-1.951 1.112-11.378-2.214-1.938M46.118 144.35l-2.634 1.974-1.637 12.063 2.23 2.144h19.236l2.641-2.067 1.18-12.068-2.262-2.046H46.118M177.405 160.531l2.312-2.127-1.074-12.068-2.559-1.986h-18.76l-2.332 2.03.617 12.069 2.553 2.082h19.243M177.727 163.517h-19.362l-2.388 2.15.656 12.83 2.626 2.206h19.877l2.366-2.253-1.142-12.828-2.633-2.105M185.128 144.35l-2.262 2.046 1.18 12.068 2.641 2.067h19.236l2.23-2.144-1.637-12.063-2.634-1.974h-18.754M187.065 163.517l-2.313 2.166 1.254 12.829 2.72 2.191h19.869l2.279-2.27-1.741-12.824-2.714-2.092h-19.354M201.498 126.341h-18.189l-2.214 1.938 1.112 11.378 2.566 1.951h18.644l2.184-2.028-1.544-11.373-2.559-1.866M174.258 123.822l2.21-1.911-.955-10.741-2.426-1.779h-17.663l-2.228 1.822.549 10.743 2.42 1.866h18.093M148.88 160.531l2.393-2.112-.51-12.068-2.484-2.001h-18.752l-2.416 2.015.053 12.071 2.482 2.095h19.234M148.142 141.608l2.335-1.995-.481-11.379-2.42-1.893h-18.187l-2.357 1.906.05 11.381 2.418 1.98h18.642M149.027 163.517h-19.353l-2.479 2.134.056 12.832 2.549 2.22h19.868l2.453-2.237-.542-12.83-2.552-2.119M147.448 123.822l2.281-1.895-.455-10.743-2.359-1.793h-17.656l-2.302 1.807.047 10.745 2.359 1.879h18.085M175.783 141.608l2.26-2.011-1.013-11.377-2.489-1.879h-18.196l-2.278 1.923.581 11.379 2.484 1.965h18.651"/><path fill="#48515A" d="M35.686 186h178.628l.832-2.157-10.948-75.775H45.802l-10.948 75.775.832 2.157zm180 2H34.314l-1.514-3.925.038-.259 11.232-77.748h161.86l11.27 78.007-1.514 3.925z"/><path fill="#5FE0ED" d="M76.913 109.391l-2.425 1.779-.956 10.741 2.21 1.911h18.093l2.421-1.866.548-10.743-2.228-1.822H76.913M75.46 126.341l-2.49 1.879-1.013 11.377 2.26 2.011h18.651l2.484-1.965.582-11.38-2.279-1.922H75.46M73.916 144.35l-2.559 1.986-1.074 12.068 2.312 2.127h19.243l2.553-2.082.617-12.069-2.332-2.03h-18.76M102.424 126.341l-2.42 1.893-.481 11.379 2.335 1.995H120.5l2.418-1.98.05-11.38-2.357-1.907h-18.187M100.974 163.517l-2.552 2.119-.543 12.83 2.454 2.237H120.2l2.549-2.22.056-12.832-2.479-2.134h-19.352M103.085 109.391l-2.359 1.793-.455 10.743 2.281 1.895h18.085l2.359-1.879.047-10.745-2.302-1.807h-17.656M101.722 144.35l-2.484 2.001-.511 12.068 2.393 2.112h19.234l2.482-2.095.053-12.071-2.416-2.015h-18.751M67.025 123.822l2.497-1.852 1.05-10.742-2.168-1.837H50.747l-2.49 1.767-1.457 10.737 2.139 1.927h18.086M43.581 163.517l-2.714 2.092-1.74 12.824 2.278 2.27h19.869l2.72-2.191 1.254-12.829-2.313-2.166H43.581M182.975 123.822h18.087l2.138-1.927-1.456-10.737-2.491-1.767h-17.656l-2.169 1.837 1.05 10.742 2.497 1.852M72.273 163.517l-2.632 2.105-1.143 12.827 2.366 2.254h19.877l2.627-2.206.655-12.83-2.388-2.15H72.273M66.691 126.341H48.502l-2.559 1.866-1.544 11.374 2.184 2.027h18.644l2.566-1.951 1.112-11.378-2.214-1.938M46.118 144.35l-2.634 1.974-1.637 12.063 2.23 2.144h19.236l2.641-2.067 1.18-12.068-2.262-2.046H46.118M177.405 160.531l2.312-2.127-1.074-12.068-2.559-1.986h-18.76l-2.332 2.03.617 12.069 2.553 2.082h19.243M177.727 163.517h-19.362l-2.388 2.15.656 12.83 2.626 2.206h19.877l2.366-2.253-1.142-12.828-2.633-2.105M185.128 144.35l-2.262 2.046 1.18 12.068 2.641 2.067h19.236l2.23-2.144-1.637-12.063-2.634-1.974h-18.754M187.065 163.517l-2.313 2.166 1.254 12.829 2.72 2.191h19.869l2.279-2.27-1.741-12.824-2.714-2.092h-19.354M201.498 126.341h-18.189l-2.214 1.938 1.112 11.378 2.566 1.951h18.644l2.184-2.028-1.544-11.373-2.559-1.866M174.258 123.822l2.21-1.911-.955-10.741-2.426-1.779h-17.663l-2.228 1.822.549 10.743 2.42 1.866h18.093M148.88 160.531l2.393-2.112-.51-12.068-2.484-2.001h-18.752l-2.416 2.015.053 12.071 2.482 2.095h19.234M148.142 141.608l2.335-1.995-.481-11.379-2.42-1.893h-18.187l-2.357 1.906.05 11.381 2.418 1.98h18.642M149.027 163.517h-19.353l-2.479 2.134.056 12.832 2.549 2.22h19.868l2.453-2.237-.542-12.83-2.552-2.119M147.448 123.822l2.281-1.895-.455-10.743-2.359-1.793h-17.656l-2.302 1.807.047 10.745 2.359 1.879h18.085M175.783 141.608l2.26-2.011-1.013-11.377-2.489-1.879h-18.196l-2.278 1.923.581 11.379 2.484 1.965h18.651"/><path fill="#FFD15D" d="M112.965 104.414a13.468 13.468 0 0 1-1.656-6.488c0-7.478 6.062-13.539 13.539-13.539 7.478 0 13.539 6.061 13.539 13.539 0 2.351-.601 4.561-1.655 6.488h28.899c.333-2.114.511-4.28.511-6.488 0-22.807-18.488-41.294-41.294-41.294-22.806 0-41.294 18.487-41.294 41.294 0 2.208.178 4.374.512 6.488h28.899"/><path fill="#F58E70" d="M181.712 53.247a1.354 1.354 0 1 1-2.707 0 1.354 1.354 0 0 1 2.707 0"/><path fill="#FFD15D" d="M69.338 58.662a1.354 1.354 0 1 1-2.707 0 1.354 1.354 0 0 1 2.707 0"/><path fill="#48515A" d="M123.848 49.185h2V37h-2zM119.604 49.457l-.472-5.394 1.992-.174.472 5.394-1.992.174M115.399 50.1l-.94-5.334 1.97-.348.94 5.334-1.97.348M111.268 51.104l-1.402-5.23 1.931-.518 1.402 5.231-1.931.517M107.238 52.467l-1.852-5.09 1.88-.684 1.852 5.09-1.88.684M103.343 54.175l-2.288-4.908 1.812-.846 2.289 4.908-1.813.846M99.612 56.215l-2.708-4.69 1.732-1 2.708 4.69-1.732 1M96.072 58.573l-3.106-4.436 1.639-1.147 3.106 4.437-1.639 1.146M92.752 61.23l-3.481-4.148 1.532-1.285 3.482 4.148-1.533 1.285M89.676 64.168l-3.829-3.829 1.414-1.414 3.829 3.829-1.414 1.414M86.868 67.361l-4.149-3.481 1.286-1.531 4.149 3.481-1.286 1.531M84.349 70.788l-4.436-3.105 1.146-1.639 4.437 3.105-1.147 1.639M82.138 74.422l-4.69-2.708 1-1.733 4.69 2.708-1 1.733M80.252 78.233l-4.909-2.289.846-1.812 4.908 2.289-.845 1.812M78.705 82.195l-5.089-1.852.684-1.879 5.089 1.852-.684 1.879M77.51 86.276l-5.231-1.401.517-1.932 5.231 1.402-.517 1.931M76.674 90.446l-5.333-.94.347-1.969 5.334.941-.348 1.968M76.206 94.674l-5.395-.472.174-1.992 5.395.472-.174 1.992M178.711 103.642l-5.395-.472.174-1.992 5.395.471-.174 1.993M70.692 98.926h5.416v-2h-5.416zM173.588 98.926h5.416v-2h-5.416zM70.985 103.642l-.174-1.993 5.395-.471.174 1.992-5.395.472M173.49 94.674l-.174-1.992 5.395-.472.174 1.992-5.395.472M173.022 90.446l-.348-1.968 5.334-.941.347 1.969-5.333.94M172.187 86.276l-.518-1.931 5.231-1.402.517 1.932-5.23 1.401M170.992 82.195l-.685-1.879 5.089-1.852.685 1.879-5.089 1.852M169.445 78.233l-.846-1.812 4.908-2.289.846 1.812-4.908 2.289M167.559 74.422l-1-1.733 4.69-2.708 1 1.733-4.69 2.708M165.347 70.788l-1.146-1.639 4.436-3.105 1.147 1.639-4.437 3.105M162.829 67.361l-1.287-1.531 4.149-3.481 1.286 1.531-4.148 3.481M160.02 64.168l-1.414-1.414 3.829-3.829 1.414 1.414-3.829 3.829M156.944 61.23l-1.532-1.285 3.481-4.148 1.532 1.285-3.481 4.148M153.624 58.573l-1.639-1.146 3.106-4.437 1.639 1.147-3.106 4.436M150.084 56.215l-1.732-1 2.708-4.69 1.732 1-2.708 4.69M146.353 54.175l-1.812-.846 2.288-4.908 1.813.846-2.289 4.908M142.458 52.467l-1.879-.684 1.852-5.09 1.88.684-1.853 5.09M138.429 51.104l-1.932-.517 1.402-5.231 1.932.518-1.402 5.23M134.297 50.1l-1.97-.348.941-5.334 1.969.348-.94 5.334M130.092 49.457l-1.992-.174.472-5.394 1.992.174-.472 5.394"/><path fill="#48515A" d="M107.238 52.467l-4.168-11.451 1.88-.684 4.168 11.451-1.88.684M92.752 61.23l-7.832-9.334 1.532-1.285 7.833 9.334-1.533 1.285M82.138 74.422l-10.553-6.093 1-1.732 10.553 6.092-1 1.733M76.674 90.446l-12-2.116.348-1.969 12 2.117-.348 1.968M173.022 90.446l-.348-1.968 12-2.117.348 1.969-12 2.116M167.559 74.422l-1-1.733 10.552-6.092 1 1.732-10.552 6.093M156.944 61.23l-1.532-1.285 7.832-9.334 1.532 1.285-7.832 9.334"/><path fill="#48515A" d="M156.944 61.23l-1.532-1.285 7.832-9.334 1.532 1.285-7.832 9.334M170.717 104.557l-1.98-.286c.082-.571.164-1.143.225-1.723 2.55-24.323-15.166-46.188-39.49-48.737-24.325-2.537-46.188 15.166-48.738 39.492a44.525 44.525 0 0 0 .208 10.968l-1.979.286a46.526 46.526 0 0 1-.218-11.463c2.664-25.42 25.516-43.945 50.935-41.272 25.421 2.664 43.936 25.514 41.272 50.936a48.294 48.294 0 0 1-.235 1.799"/><path fill="#48515A" d="M159.042 104.605l-1.962-.382c.061-.318.12-.637.173-.958l1.973.33c-.057.339-.118.676-.184 1.01m-33.199-39.513a30.933 30.933 0 0 0-1.926-.004l-.058-2c.68-.019 1.363-.018 2.05.006l-.066 1.998zm-5.771.326l-.29-1.979a35.936 35.936 0 0 1 2.034-.236l.173 1.992c-.644.056-1.283.13-1.917.223zm9.618.018a36.158 36.158 0 0 0-1.419-.179l-.5-.048.181-1.992.526.051c.507.053 1.008.117 1.504.19l-.292 1.978zm-13.398.765l-.52-1.931a34.872 34.872 0 0 1 1.995-.475l.404 1.959c-.632.131-1.259.28-1.879.447zm17.175.024a32.254 32.254 0 0 0-1.877-.449l.408-1.959c.671.141 1.335.299 1.99.476l-.521 1.932zm-20.838 1.203l-.743-1.858a35.592 35.592 0 0 1 1.923-.706l.634 1.897c-.612.205-1.217.427-1.814.667zm24.495.02a33.696 33.696 0 0 0-1.811-.666l.634-1.896c.65.216 1.291.453 1.922.707l-.745 1.855zm-27.986 1.626l-.957-1.756a34.352 34.352 0 0 1 1.826-.927l.853 1.808c-.583.276-1.157.568-1.722.875zm31.469.022c-.562-.308-1.134-.6-1.716-.874l.854-1.809c.618.292 1.225.602 1.821.927l-.959 1.756zm-34.743 2.022l-1.156-1.633a36.742 36.742 0 0 1 1.704-1.133l1.06 1.697c-.547.341-1.083.697-1.608 1.069zm38.007.023a32.085 32.085 0 0 0-1.601-1.071l1.061-1.695c.579.362 1.146.741 1.701 1.137l-1.161 1.629zm-41.02 2.389l-1.336-1.488a35.216 35.216 0 0 1 1.559-1.323l1.249 1.562c-.503.402-.994.82-1.472 1.249zm44.025.027a31.804 31.804 0 0 0-1.466-1.251l1.252-1.561a34.08 34.08 0 0 1 1.557 1.329l-1.343 1.483zm-46.734 2.718l-1.503-1.32c.45-.513.915-1.012 1.394-1.497l1.424 1.404c-.452.458-.89.93-1.315 1.413zm49.438.035a32.536 32.536 0 0 0-1.312-1.415l1.427-1.403c.478.487.942.987 1.39 1.501l-1.505 1.317zm-51.807 3.006l-1.647-1.134c.387-.563.79-1.113 1.209-1.65l1.578 1.229a31.801 31.801 0 0 0-1.14 1.555zm54.172.042a33.36 33.36 0 0 0-1.138-1.558l1.58-1.227c.419.539.821 1.091 1.207 1.654l-1.649 1.131zm-56.167 3.254l-1.768-.933c.318-.604.654-1.198 1.006-1.78l1.712 1.036a32.015 32.015 0 0 0-.95 1.677zm58.16.052c-.3-.57-.616-1.132-.948-1.681l1.712-1.035c.352.584.688 1.179 1.006 1.784l-1.77.932zM94.186 86.12l-1.867-.717c.246-.639.51-1.269.791-1.888l1.821.826a33.168 33.168 0 0 0-.745 1.779zm61.345.061a32.783 32.783 0 0 0-.744-1.782l1.821-.826c.282.622.545 1.252.79 1.891l-1.867.717zm-62.514 3.616l-1.937-.494c.168-.663.356-1.32.562-1.967l1.906.605a33.75 33.75 0 0 0-.531 1.856zm63.683.065a32.68 32.68 0 0 0-.53-1.857l1.906-.606c.206.649.394 1.307.562 1.971l-1.938.492zm-64.411 3.723l-1.983-.264c.09-.68.2-1.353.328-2.019l1.964.377c-.12.629-.224 1.264-.309 1.906zm65.135.067a33.25 33.25 0 0 0-.306-1.904l1.965-.375a34.6 34.6 0 0 1 .324 2.022l-1.983.257zm-65.421 3.783l-2-.032a35.24 35.24 0 0 1 .093-2.046l1.994.149a32.903 32.903 0 0 0-.087 1.929zm65.693.064a33.284 33.284 0 0 0-.079-1.928l1.995-.14c.048.677.076 1.359.084 2.045l-2 .023zm-67.516 3.993a35.271 35.271 0 0 1-.149-2.042l1.998-.086c.028.647.075 1.288.14 1.925l-1.989.203zm69.326.066l-1.993-.169.001-.007c.07-.675.118-1.315.148-1.951l1.998.091a36.091 36.091 0 0 1-.154 2.036zm-68.865 3.047a36.843 36.843 0 0 1-.182-1.012l1.974-.324c.052.319.11.637.171.954l-1.963.382M35 83.948h2v-4h-2zM35 93.948h2v-4h-2zM39 87.948h4v-2h-4zM29 87.948h4v-2h-4zM187 203h2v-4h-2zM187 213h2v-4h-2zM191 207h4v-2h-4zM181 207h4v-2h-4zM213 43h2v-4h-2zM213 53h2v-4h-2zM217 47h4v-2h-4zM207 47h4v-2h-4z"/></g></svg>