<?xml version="1.0" encoding="utf-8"?><svg xmlns="http://www.w3.org/2000/svg" width="250" height="250" viewBox="0 0 250 250"><g fill="none" fill-rule="evenodd"><path fill="#FFD15D" d="M215 68.5c0-9.941-8.059-18-18-18s-18 8.059-18 18 8.059 18 18 18 18-8.059 18-18"/><path fill="#475059" d="M199.494 75.474h-5.559c-1.759 0-3.19-1.44-3.19-3.208a1 1 0 1 1 2 0 1.2 1.2 0 0 0 1.19 1.208h5.559c.831 0 1.508-.684 1.508-1.525v-.95a1.51 1.51 0 0 0-1.508-1.508h-5.481a3.511 3.511 0 0 1-3.508-3.508v-.951a3.513 3.513 0 0 1 3.508-3.509h5.891a2.77 2.77 0 0 1 2.768 2.768 1 1 0 1 1-2 0 .77.77 0 0 0-.768-.768h-5.891a1.51 1.51 0 0 0-1.508 1.509v.951a1.51 1.51 0 0 0 1.508 1.508h5.481a3.511 3.511 0 0 1 3.508 3.508v.95c0 1.944-1.573 3.525-3.508 3.525"/><path fill="#475059" d="M197.033 78.499a1 1 0 0 1-1-1v-18a1 1 0 1 1 2 0v18a1 1 0 0 1-1 1m-24.054 124.949H161.86c-2.966 0-5.38-2.428-5.38-5.415h2c0 1.883 1.517 3.415 3.38 3.415h11.119c2.213 0 4.015-1.815 4.015-4.048v-1.9a4.02 4.02 0 0 0-4.015-4.016h-10.963a6.022 6.022 0 0 1-6.016-6.016v-1.903a6.022 6.022 0 0 1 6.016-6.016h11.783a4.54 4.54 0 0 1 4.535 4.534h-2a2.538 2.538 0 0 0-2.535-2.534h-11.783a4.021 4.021 0 0 0-4.016 4.016v1.903a4.02 4.02 0 0 0 4.016 4.016h10.963a6.022 6.022 0 0 1 6.015 6.016v1.9c0 3.335-2.698 6.048-6.015 6.048"/><path fill="#475059" d="M167.058 208.5h2v-36h-2zM171 131.5h10v-2h-10zM171 137.5h10v-2h-10zM171 143.5h10v-2h-10zM171 149.5h10v-2h-10zM171 155.5h10v-2h-10z"/><path fill="#48515A" d="M67 65.5h24v-2H67zM51 193.5h56v-2H51z"/><path fill="#475059" d="M179 219.5h-64v-2h64c3.859 0 7-3.141 7-7v-98h2v98c0 4.963-4.037 9-9 9m-7-113h-2v-64c0-3.859-3.141-7-7-7H99v-2h64c4.963 0 9 4.037 9 9v64"/><path fill="#475059" d="M131 107.5h64v-2h-64zM83 173.5h24v-2H83z"/><path fill="#475059" d="M115 219.5c-4.962 0-9-4.037-9-9v-168c0-3.859-3.14-7-7-7s-7 3.141-7 7v122c0 4.963-4.038 9-9 9s-9-4.037-9-9v-92c0-3.859-3.14-7-7-7s-7 3.141-7 7v112c0 4.963-4.038 9-9 9v-2c3.86 0 7-3.141 7-7v-112c0-4.963 4.038-9 9-9s9 4.037 9 9v92c0 3.859 3.14 7 7 7s7-3.141 7-7v-122c0-4.963 4.038-9 9-9s9 4.037 9 9v168c0 3.859 3.14 7 7 7s7-3.141 7-7v-96c0-4.963 4.037-9 9-9 4.625 0 8.445 3.506 8.944 8h2.801l3.901-2.128 4.257 2.128h1.528l4.236-2.118 4.235 2.118h1.545l4.571-2.109 4.218 2.109h1.528l4.236-2.118 4.236 2.118h1.528l4.236-2.118 4.236 2.118h1.528l4.236-2.118 4.236 2.118h.693c-.487-3.388-3.408-6-6.929-6v-2c4.963 0 9 4.037 9 9v1h-3.236L197 113.618l-3.764 1.882h-2.472L187 113.618l-3.764 1.882h-2.472L177 113.618l-3.764 1.882h-2.472l-3.782-1.891-4.095 1.891h-2.457l-3.763-1.882-3.764 1.882h-2.472l-3.744-1.872-3.432 1.872H138v-1c0-3.859-3.141-7-7-7s-7 3.141-7 7v96c0 4.963-4.038 9-9 9"/><path fill="#FFD15D" d="M78.006 164.5c0 2.757 2.243 5 5 5s5-2.243 5-5v-97H76.804a10.95 10.95 0 0 1 1.202 5v92m90-61v-61c0-2.757-2.243-5-5-5h-54.202a10.95 10.95 0 0 1 1.202 5v168c0 2.757 2.243 5 5 5s5-2.243 5-5v-96c0-6.065 4.934-11 11-11h37"/><path fill="#475059" d="M51 193.5c-4.962 0-9-4.037-9-9v-1h3.236L49 185.382l3.765-1.882h2.471l4.211 2.105-.895 1.79-3.788-1.895h-1.528L49 187.618l-4.236-2.118h-.693c.487 3.388 3.408 6 6.929 6v2M131 131.5h30v-2h-30zM131 137.5h30v-2h-30zM131 143.5h30v-2h-30zM131 149.5h30v-2h-30zM131 155.5h30v-2h-30zM131 161.5h30v-2h-30zM171 161.5h10v-2h-10z"/><path fill="#FFD15D" d="M53.99 59.005a5.495 5.495 0 1 1-10.99 0 5.495 5.495 0 0 1 10.99 0M73 37.5a3 3 0 1 1-6 0 3 3 0 0 1 6 0m-38 63a2 2 0 1 0 3.999.001A2 2 0 0 0 35 100.5m146-6a2 2 0 1 1-3.999.001A2 2 0 0 1 181 94.5m-96 87a3 3 0 1 1 6 0 3 3 0 0 1-6 0m-10 21a2 2 0 1 1-3.999.001A2 2 0 0 1 75 202.5"/><path fill="#48515A" d="M35 158.5h2v-4h-2zM35 168.5h2v-4h-2zM39 162.5h4v-2h-4zM29 162.5h4v-2h-4zM213 190.5h2v-4h-2zM213 200.5h2v-4h-2zM217 194.5h4v-2h-4zM207 194.5h4v-2h-4zM183 34.5h2v-4h-2zM183 44.5h2v-4h-2zM187 38.5h4v-2h-4zM177 38.5h4v-2h-4z"/><path fill="#5FE0ED" d="M97 96.5V66.531l62-.039V96.5H97"/><path fill="#48515A" d="M130.69 88.5h-5.614c-1.742 0-3.213-1.507-3.213-3.291h2c0 .687.567 1.291 1.213 1.291h5.614c.851 0 1.31-.861 1.31-1.671v-.96c0-.87-.478-1.369-1.31-1.369h-5.536c-1.827 0-3.154-1.555-3.154-3.697v-.961c0-1.999 1.268-3.342 3.154-3.342h5.951c1.562 0 2.786 1.194 2.786 2.72h-2c0-.473-.395-.72-.786-.72h-5.951c-.316 0-1.154 0-1.154 1.342v.961c0 .631.243 1.697 1.154 1.697h5.536c1.949 0 3.31 1.386 3.31 3.369v.96c0 2.059-1.454 3.671-3.31 3.671"/><path fill="#48515A" d="M127 90.5h2v-18h-2zM138 82.5h6v-2h-6zM138 86.5h6v-2h-6zM138 78.5h6v-2h-6zM112 82.5h6v-2h-6zM112 78.5h6v-2h-6zM112 86.5h6v-2h-6z"/><path fill="#48515A" d="M101 92.5h54v-22h-54v22zm-2 2h58v-26H99v26z"/></g></svg>