<?xml version="1.0" encoding="utf-8"?><svg xmlns="http://www.w3.org/2000/svg" width="250" height="250" viewBox="0 0 250 250"><g fill="none" fill-rule="evenodd"><path fill="#DEDEDD" d="M180.814 147.491c3.015-.491 6.023.161 8.252 1.789.184.134.362.273.535.417l-7.065 5-7.528 2.553s-4.736-5.447-4.517-5.508c1.39-.39 8.903-4.019 10.323-4.251M59.008 205.053v.002c0 1.191-.798 1.989-1.989 1.989h-.002l-7.009.163v-14.174l7.058.007a2.161 2.161 0 0 1 1.529.639c.41.412.552.953.552 1.522l-.139 9.852"/><path fill="#475059" d="M83.067 204.043H62.008v-2h20.866l77.128-14.946 43.53-26.697c-5.757-5.161-12.764-6.112-18.955-2.5l-27.26 13.143h-46.775v-2h18.315c7.888 0 14.14-5.717 14.656-13.194l-48.632.194c-4.17 0-8.258 1.699-11.219 4.66l-20.834 20.813-1.413-1.414 20.834-20.813c3.332-3.333 7.936-5.246 12.628-5.246l50.671-.202v1.004c0 6.19-3.405 11.465-8.535 14.198h19.847l26.78-12.908c7.294-4.258 15.631-2.875 22.233 3.729l.897.896-46.032 28.232-.178.034-77.493 15.017"/><path fill="#475059" d="M183.009 158.25a1 1 0 0 1-.539-1.843l10.159-6.465a12.352 12.352 0 0 0-2.383-2.276c-2.659-1.943-6.215-2.726-9.754-2.149a23.206 23.206 0 0 0-6.075 1.873l-5.487 2.56a1 1 0 0 1-.845-1.813l5.487-2.559a25.22 25.22 0 0 1 6.598-2.036c4.07-.659 8.168.252 11.256 2.508a14.29 14.29 0 0 1 3.47 3.608.999.999 0 0 1-.294 1.399l-11.057 7.037a.997.997 0 0 1-.536.156M48.008 209.241l8.996.009h.004a4.17 4.17 0 0 0 4.172-4.157v-.001l.056-30.978a4.172 4.172 0 0 0-4.168-4.164l-9.06-.01v39.301zm9 2.009h-.006l-10.994-.011v-43.301l11.062.012c3.403.004 6.169 2.769 6.166 6.167l-.056 30.979c-.004 3.395-2.772 6.154-6.172 6.154z"/><path fill="#DEDEDD" d="M110.542 166.044h23.443c3.587-1 6.27-4 7.203-8h-4.792c-2.096 2-4.69 2-7.539 2h-12.315a6 6 0 0 0-6 6m81.853-8.07l-33.128 20.278-76.584 14.792H65.202l-.013 7h17.494l76.584-14.78 40.741-24.94c-2.419-1.571-5.013-2.35-7.613-2.35"/><path fill="#48515A" d="M55.005 145.742h2v-4h-2zM55.005 155.742h2v-4h-2zM59.005 149.742h4v-2h-4zM49.005 149.742h4v-2h-4zM213.008 139.043h2v-4h-2zM213.008 149.043h2v-4h-2zM217.008 143.043h4v-2h-4zM207.008 143.043h4v-2h-4z"/><path fill="#475059" d="M172.785 162.48l-.835-1.72a40.985 40.985 0 0 0-33.959-18.018 40.907 40.907 0 0 0-27.496 10.586l-2.649 2.407-1.344-1.481 2.65-2.408a42.907 42.907 0 0 1 28.839-11.104 42.985 42.985 0 0 1 35.656 18.958l.071.123.866 1.784-1.799.873m-68.494-44.022c2.218 4.451 6.788 7.301 11.771 7.301 4.983 0 9.554-2.851 11.772-7.302-2.218-4.452-6.788-7.302-11.771-7.302-4.983 0-9.554 2.851-11.772 7.303zm11.771 9.301c-5.917 0-11.33-3.488-13.788-8.887l-.189-.414.189-.415c2.459-5.399 7.871-8.888 13.789-8.888 5.918 0 11.33 3.488 13.789 8.887l.188.415-.188.414c-2.459 5.399-7.872 8.888-13.79 8.888z"/><path fill="#475059" d="M128.942 119.457h5.184v-2h-5.184zM147.829 130.457c2.218 4.451 6.788 7.302 11.772 7.302 4.983 0 9.553-2.85 11.771-7.301-2.217-4.452-6.789-7.303-11.772-7.303-4.983 0-9.553 2.85-11.771 7.302zm11.772 9.302c-5.918 0-11.331-3.489-13.789-8.888l-.189-.414.189-.415c2.458-5.399 7.871-8.887 13.788-8.887 5.918 0 11.331 3.489 13.79 8.888l.188.415-.188.414c-2.46 5.399-7.872 8.887-13.789 8.887z"/><path fill="#475059" d="M141.322 131.457h5.4v-2h-5.4z"/><path fill="#475059" d="M138.918 142.118l-1.853-.752 2.672-6.596a8.48 8.48 0 0 0-2.705-9.9c-4.481-3.426-5.424-9.92-2.101-14.477l6.769-8.763 1.583 1.223-6.752 8.74c-2.671 3.664-1.909 8.916 1.716 11.687a10.489 10.489 0 0 1 3.344 12.242l-2.673 6.596"/><path fill="#FFD15D" d="M214.008 68.389c0-9.941-8.059-18-18-18-9.942 0-18 8.059-18 18s8.058 18 18 18c9.941 0 18-8.059 18-18"/><path fill="#475059" d="M196.008 83.388h-.017a14.905 14.905 0 0 1-10.602-4.405 14.906 14.906 0 0 1-4.381-10.611c.01-8.266 6.738-14.984 15.001-14.984h.017c1.505.002 2.991.227 4.417.667l1.009.418a1 1 0 0 1-.774 1.844l-.917-.385a13.067 13.067 0 0 0-3.738-.544h-.015c-7.161 0-12.991 5.822-13 12.985a12.916 12.916 0 0 0 3.797 9.197 12.917 12.917 0 0 0 9.188 3.818h.015c7.162 0 12.992-5.821 13-12.984a13.026 13.026 0 0 0-2.958-8.273 1 1 0 1 1 1.544-1.271 15.024 15.024 0 0 1 3.414 9.546c-.009 8.264-6.737 14.982-15 14.982"/><path fill="#475059" d="M198.501 75.388h-5.558c-1.76 0-3.191-1.444-3.191-3.221a1 1 0 0 1 2 0c0 .663.545 1.221 1.191 1.221h5.558c.82 0 1.487-.695 1.487-1.55v-.95c0-.841-.653-1.5-1.487-1.5h-5.481c-1.814 0-3.032-1.413-3.032-3.515v-.953c0-2.112 1.218-3.532 3.032-3.532h5.892c1.526 0 2.767 1.25 2.767 2.786a1 1 0 1 1-2 0c0-.425-.351-.786-.767-.786h-5.892c-.898 0-1.032.96-1.032 1.532v.953c0 .691.179 1.515 1.032 1.515h5.481a3.497 3.497 0 0 1 3.487 3.5v.95c0 1.957-1.564 3.55-3.487 3.55"/><path fill="#475059" d="M195.988 78.388a1 1 0 0 1-1-1v-18a1 1 0 1 1 2 0v18a1 1 0 0 1-1 1m8.029-19.988a.974.974 0 0 1-.699-.3.882.882 0 0 1-.221-.319c-.049-.12-.08-.25-.08-.381 0-.13.031-.26.08-.38a.843.843 0 0 1 .221-.33 1 1 0 0 1 .319-.22c.25-.099.52-.099.77 0 .121.05.23.13.32.22a.967.967 0 0 1 .29.71c0 .131-.02.261-.069.381a.895.895 0 0 1-.221.319 1 1 0 0 1-.71.3"/><path fill="#5FE0ED" d="M111.491 102.255V72.286l62-.039v30.008h-62"/><path fill="#48515A" d="M145.182 94.254h-5.615c-1.741 0-3.212-1.506-3.212-3.29h2c0 .688.566 1.29 1.212 1.29h5.615c.85 0 1.309-.861 1.309-1.671v-.96c0-.87-.477-1.369-1.309-1.369h-5.536c-1.828 0-3.155-1.554-3.155-3.697v-.961c0-1.999 1.268-3.342 3.155-3.342h5.951c1.562 0 2.785 1.195 2.785 2.72h-2c0-.473-.395-.72-.785-.72h-5.951c-.316 0-1.155 0-1.155 1.342v.961c0 .631.244 1.697 1.155 1.697h5.536c1.949 0 3.309 1.386 3.309 3.369v.96c0 2.059-1.453 3.671-3.309 3.671"/><path fill="#48515A" d="M141.491 96.254h2v-18h-2zM152.491 88.254h6v-2h-6zM152.491 92.254h6v-2h-6zM152.491 84.254h6v-2h-6zM126.491 88.254h6v-2h-6zM126.491 84.254h6v-2h-6zM126.491 92.254h6v-2h-6z"/><path fill="#48515A" d="M115.491 98.254h54v-22h-54v22zm-2 2h58v-26h-58v26zM34.992 95.711h2v-4h-2zM34.992 105.711h2v-4h-2zM38.992 99.711h4v-2h-4zM28.992 99.711h4v-2h-4z"/><path fill="#FFD15D" d="M93.888 108.413c0-9.941-8.059-18-18-18-9.942 0-18 8.059-18 18s8.058 18 18 18c9.941 0 18-8.059 18-18"/><path fill="#475059" d="M75.888 123.413h-.017a14.906 14.906 0 0 1-10.602-4.406 14.9 14.9 0 0 1-4.381-10.612c.01-8.27 6.723-14.957 15.018-14.982 1.508.002 2.995.226 4.418.667l1.007.416c.51.214.75.799.536 1.308a.996.996 0 0 1-1.308.537l-.917-.384a13.048 13.048 0 0 0-3.739-.544h-.015c-7.161 0-12.991 5.821-13 12.984a12.916 12.916 0 0 0 3.797 9.197 12.916 12.916 0 0 0 9.188 3.819h.015c7.162 0 12.992-5.823 13-12.986a13.015 13.015 0 0 0-2.958-8.271 1 1 0 0 1 1.544-1.272 15.023 15.023 0 0 1 3.414 9.545c-.009 8.266-6.737 14.984-15 14.984"/><path fill="#475059" d="M78.381 115.413h-5.558c-1.759 0-3.19-1.445-3.19-3.221a1 1 0 1 1 2 0c0 .662.544 1.221 1.19 1.221h5.558c.819 0 1.486-.696 1.486-1.55v-.95c0-.841-.652-1.5-1.486-1.5H72.9c-1.814 0-3.033-1.413-3.033-3.517v-.951c0-2.112 1.219-3.532 3.033-3.532h5.892c1.526 0 2.767 1.25 2.767 2.786a1 1 0 0 1-2 0c0-.426-.351-.786-.767-.786H72.9c-.898 0-1.033.96-1.033 1.532v.951c0 .691.18 1.517 1.033 1.517h5.481a3.497 3.497 0 0 1 3.486 3.5v.95c0 1.957-1.564 3.55-3.486 3.55"/><path fill="#475059" d="M75.867 118.413a1 1 0 0 1-1-1v-18a1 1 0 1 1 2 0v18a1 1 0 0 1-1 1m8.03-19.993a.98.98 0 0 1-.699-.29 1 1 0 0 1-.301-.71.98.98 0 0 1 .301-.7c.37-.38 1.04-.38 1.409 0 .091.09.171.2.22.32.05.121.07.25.07.38a.99.99 0 0 1-1 1"/><path fill="#FFD15D" d="M125.498 43.242a4.492 4.492 0 1 1-8.984 0 4.492 4.492 0 0 1 8.984 0m23.523 13.646a2.5 2.5 0 1 1-5 0 2.5 2.5 0 0 1 5 0m34.986 57.863a2.5 2.5 0 1 1-4.998 0 2.5 2.5 0 0 1 4.998 0m-82.851-34.43a2.067 2.067 0 1 1-4.134 0 2.067 2.067 0 0 1 4.134 0m5.734-17.428a5.495 5.495 0 1 1-10.99 0 5.495 5.495 0 0 1 10.99 0m-44.892 5.852a5.496 5.496 0 1 1-10.992 0 5.496 5.496 0 0 1 10.992 0m149.01 42a5.495 5.495 0 1 1-10.99 0 5.495 5.495 0 0 1 10.99 0m-164 20a5.495 5.495 0 1 1-10.99 0 5.495 5.495 0 0 1 10.99 0"/></g></svg>