<?xml version="1.0" encoding="utf-8"?><svg xmlns="http://www.w3.org/2000/svg" width="250" height="250" viewBox="0 0 250 250"><g fill="none" fill-rule="evenodd"><path fill="#48515A" d="M125.577 193.247h2v-29.042h-2z"/><path fill="#48515A" d="M128.189 189.408h-3.225a5.847 5.847 0 0 1-5.839-5.84h2a3.844 3.844 0 0 0 3.839 3.84h3.225a3.841 3.841 0 0 0 0-7.681h-3.225a5.84 5.84 0 0 1-.015-11.679h3.24a5.847 5.847 0 0 1 5.84 5.84h-2a3.845 3.845 0 0 0-3.84-3.84h-3.225a3.84 3.84 0 0 0 0 7.679h3.225a5.84 5.84 0 1 1 0 11.681M148.154 193.247h2v-29.042h-2z"/><path fill="#48515A" d="M150.766 189.408h-3.225a5.846 5.846 0 0 1-5.839-5.84h2a3.843 3.843 0 0 0 3.839 3.84h3.225a3.84 3.84 0 0 0 0-7.681h-3.225a5.84 5.84 0 0 1 0-11.679h3.225a5.845 5.845 0 0 1 5.839 5.84h-2a3.843 3.843 0 0 0-3.839-3.84h-3.225a3.84 3.84 0 0 0 0 7.679h3.225a5.84 5.84 0 1 1 0 11.681M170.749 193.247h2v-29.042h-2z"/><path fill="#48515A" d="M173.362 189.408h-3.225a5.847 5.847 0 0 1-5.839-5.84h2a3.844 3.844 0 0 0 3.839 3.84h3.225a3.841 3.841 0 0 0 0-7.681h-3.225a5.84 5.84 0 0 1 0-11.679h3.225a5.847 5.847 0 0 1 5.84 5.84h-2a3.845 3.845 0 0 0-3.84-3.84h-3.225a3.84 3.84 0 0 0 0 7.679h3.225a5.84 5.84 0 1 1 0 11.681M102.761 153.001h90.578v-2h-90.578zM107.214 139.001h58.084v-2h-58.084zM174.979 139.001h12.907v-2h-12.907zM107.214 128.999h58.084V127h-58.084zM174.979 128.999h12.907V127h-12.907zM107.214 119.001h58.084v-2h-58.084zM174.979 119.001h12.907v-2h-12.907zM107.214 109h58.084v-2h-58.084zM174.979 109h12.907v-2h-12.907zM107.214 99.091h58.084v-2h-58.084zM174.979 99.091h12.907v-2h-12.907zM107.214 89h58.084v-2h-58.084zM174.979 89h12.907v-2h-12.907zM107.214 79.001h58.084v-2h-58.084zM174.979 79.001H185v-2h-10.021zM107.214 69.049h58.084v-2h-58.084zM174.979 69.049H185v-2h-10.021zM107.214 59.368h58.084v-2h-58.084zM174.979 59.368h12.907v-2h-12.907zM52.995 71.007h22.943v-2H52.995z"/><path fill="#48515A" d="M44.995 142.993h14.001V78.006a7.002 7.002 0 0 0-14.001 0v64.987zm156.799 68h-5.227v-.999a3.84 3.84 0 0 0-7.681-.001v1h-5.227v-1a3.84 3.84 0 1 0-7.68 0v1h-5.228v-1a3.84 3.84 0 0 0-7.68 0v1h-5.227v-1a3.841 3.841 0 0 0-7.68 0v1h-5.228v-1a3.84 3.84 0 1 0-7.68 0v1h-5.227v-1a3.84 3.84 0 0 0-7.681.001v.999h-5.227v-1a3.84 3.84 0 0 0-7.68 0v1h-5.227v-.999a3.84 3.84 0 0 0-7.681-.001v1h-5.31l-.001-.999a3.803 3.803 0 0 0-1.756-3.204l-.457-.296v-.545l.071-157.844a7.066 7.066 0 0 0-7.061-7.072 7.066 7.066 0 0 0-7.073 7.061V172.02a8.976 8.976 0 0 1-17.95 0v-27.027H42.995V78.006a9 9 0 1 1 18.001 0v94.014a6.975 6.975 0 1 0 13.95 0V48.102a9.067 9.067 0 0 1 18.134-.003v.007l-.071 157.33a5.796 5.796 0 0 1 2.127 3.557h1.483a5.841 5.841 0 0 1 11.509 0h1.399a5.84 5.84 0 0 1 11.508 0h1.399a5.841 5.841 0 0 1 11.509 0h1.399a5.841 5.841 0 0 1 11.509 0h1.399a5.84 5.84 0 0 1 11.508 0h1.399a5.841 5.841 0 0 1 11.509 0h1.398a5.842 5.842 0 0 1 11.509 0h1.399a5.841 5.841 0 0 1 11.509 0h1.401a5.85 5.85 0 0 1 3.139-4.201l.004-75.045h2l-.004 76.41-.665.236a3.84 3.84 0 0 0-2.562 3.6v1z"/><path fill="#48515A" d="M205.027 60.998h-2.001l.001-12.993a7.075 7.075 0 0 0-7.068-7.067H83.62v-2.001h112.338a9.08 9.08 0 0 1 9.069 9.068v12.993M67.971 180.995h24.024v-2H67.971zM35.021 158.989h2v-4h-2zM35.021 168.989h2v-4h-2zM39.021 162.989h4v-2h-4zM29.021 162.989h4v-2h-4zM189.027 82.94h2v-18h-2zM193.027 82.94h4V64.974h-4zM199.027 82.94h2v-18h-2zM203.027 82.94h2v-18h-2zM207.027 82.939h4V64.94h-4zM213.027 82.94h2v-18h-2zM217.027 82.939h4V64.94h-4z"/><path fill="#FFD15D" d="M63.987 184.971l10 12.003-10 12.002H40.982v-24.005h23.005"/><path fill="#48515A" d="M55.981 201.083a1 1 0 1 0 0 2 1 1 0 0 0 0-2zm0 4a3 3 0 1 1 0-6 3 3 0 0 1 0 6zm-8-14a1 1 0 1 0 0 2 1 1 0 0 0 0-2zm0 4a3 3 0 1 1 0-6 3 3 0 0 1 0 6zM45.222 203.432l12.001-14 1.518 1.302-12.001 14-1.518-1.302"/><path fill="#FFD15D" d="M56.996 140.993H46.995V78.006a5 5 0 1 1 10.001 0v62.987m20.745 36.002a10.899 10.899 0 0 0 1.205-4.975V48.102a5.066 5.066 0 0 1 5.064-5.069 5.066 5.066 0 0 1 5.07 5.064v.007l-.058 128.891H77.741"/><path fill="#48515A" d="M203.024 115.008h2v-4h-2zM203.024 125.008h2v-4h-2zM207.024 119.008h4v-2h-4zM197.024 119.008h4v-2h-4zM202.999 107h2V87h-2z"/></g></svg>