<?xml version="1.0" encoding="utf-8"?><svg xmlns="http://www.w3.org/2000/svg" width="250" height="250" viewBox="0 0 250 250"><g fill="none" fill-rule="evenodd"><path fill="#475059" d="M183.993 161.49H81.061v-2h102.932c1.654 0 3-1.345 3-3V64.488c0-1.654-1.346-3-3-3h-140c-1.655 0-3 1.346-3 3v92.002c0 1.655 1.345 3 3 3H61v2H43.993c-2.757 0-5-2.243-5-5V64.488c0-2.757 2.243-5 5-5h140c2.757 0 5 2.243 5 5v92.002c0 2.757-2.243 5-5 5"/><path fill="#475059" d="M208.007 191.508h-140c-2.756 0-5-2.243-5-5V94.507c0-2.757 2.244-5 5-5h105.237v2H68.007c-1.654 0-3 1.345-3 3v92.001c0 1.654 1.346 3 3 3h140c1.655 0 3-1.346 3-3V94.507c0-1.655-1.345-3-3-3H191v-2h17.007c2.757 0 5 2.243 5 5v92.001c0 2.757-2.243 5-5 5"/><path fill="#475059" d="M119.006 211.509h38.002v-.835l-3.002-18.166v-1h-31.998l-.013.995-2.989 18.171v.835zm40.002 2h-42.002l.014-3.079 2.988-18.171v-2.751h35.998v2.918l3.002 18.166v2.917z"/><path fill="#475059" d="M112.007 213.508h52v-2h-52z"/><path fill="#DEDEDD" d="M121.225 209.509h33.562l-2.656-16.001h-28.274l-2.632 16.001M67.007 174.508v12c0 .551.449 1 1 1h140c.552 0 1-.449 1-1v-12h-142M61 144.49H42.993v12c0 .551.449 1 1 1H61v-13"/><path fill="#475059" d="M167.701 97.198l-1.414-1.414 5.293-5.293-5.293-5.293 1.414-1.414 6.707 6.707-6.707 6.707M84.293 167.24l-6.708-6.707 6.708-6.707 1.413 1.414-5.292 5.293 5.292 5.293-1.413 1.414"/><path fill="#48515A" d="M213 53.492h2v-4h-2zM213 63.492h2v-4h-2zM217 57.492h4v-2h-4zM207 57.492h4v-2h-4zM34.999 169.492h2v-4h-2zM34.999 179.492h2v-4h-2zM39 173.492h4v-2h-4zM28.999 173.492h4v-2h-4z"/><path fill="#5FE0ED" d="M153 43.93a2.438 2.438 0 1 1-4.875-.001 2.438 2.438 0 0 1 4.875.001"/><path fill="#FFD15D" d="M111 195.93a2.438 2.438 0 1 1-4.875-.001 2.438 2.438 0 0 1 4.875.001"/><path fill="#FFD15D" d="M108.562 193.992a1.94 1.94 0 0 0-1.937 1.938 1.94 1.94 0 0 0 1.937 1.937 1.94 1.94 0 0 0 1.938-1.937 1.94 1.94 0 0 0-1.938-1.938zm0 4.875a2.94 2.94 0 0 1-2.937-2.937 2.94 2.94 0 0 1 2.937-2.938 2.941 2.941 0 0 1 2.938 2.938 2.94 2.94 0 0 1-2.938 2.937z"/><path fill="#5FE0ED" d="M92.999 52.492a1 1 0 1 1-2 0 1 1 0 0 1 2 0"/><path fill="#DEDEDD" d="M61 51.492a2 2 0 1 1-4 0 2 2 0 0 1 4 0m74 0a2 2 0 1 1-4 0 2 2 0 0 1 4 0m-76.001 146a2 2 0 1 1-3.998.002 2 2 0 0 1 3.998-.002M33 81.492a2 2 0 1 1-4 0 2 2 0 0 1 4 0m61.999 120a2 2 0 1 1-3.999.001 2 2 0 0 1 3.999-.001m-18 9a1 1 0 1 1-2 0 1 1 0 0 1 2 0m-39.006-69a1 1 0 1 1-2 0 1 1 0 0 1 2 0"/><path fill="#48515A" d="M202 74.492c-1.103 0-2 .898-2 2 0 1.103.897 2 2 2 1.102 0 2-.897 2-2 0-1.102-.898-2-2-2zm0 6c-2.207 0-4-1.794-4-4s1.793-4 4-4c2.206 0 4 1.794 4 4s-1.794 4-4 4zM190 53.493h-2v-7.001h-1v-2h3v9.001"/><path fill="#48515A" d="M187 54.493h4v-2h-4zM85.999 211.493h-2v-7.001h-1v-2h3v9.001"/><path fill="#48515A" d="M82.999 212.493h4v-2h-4zM79.999 45.492h-2v-7.001h-1v-2h3v9.001"/><path fill="#48515A" d="M76.999 46.492h4v-2h-4zM40.999 44.491c-.551 0-1 .448-1 1v4.001a1.001 1.001 0 0 0 2.001 0v-4.001c0-.552-.449-1-1.001-1zm0 8.001c-1.654 0-3-1.346-3-3v-4.001c0-1.654 1.346-3 3-3 1.655 0 3 1.346 3 3v4.001c0 1.654-1.345 3-3 3zm0 140c-.551 0-1 .448-1 1v4.001a1.001 1.001 0 0 0 2.001 0v-4.001c0-.552-.449-1-1.001-1zm0 8.001c-1.654 0-3-1.346-3-3v-4.001c0-1.654 1.346-3 3-3 1.655 0 3 1.346 3 3v4.001c0 1.654-1.345 3-3 3zM177 198.491a1 1 0 0 0-1 1v4.001a1 1 0 0 0 2 0v-4.001c0-.552-.449-1-1-1zm0 8.001c-1.655 0-3-1.346-3-3v-4.001c0-1.654 1.345-3 3-3 1.654 0 3 1.346 3 3v4.001c0 1.654-1.346 3-3 3z"/></g></svg>