<?xml version="1.0" encoding="utf-8"?><svg xmlns="http://www.w3.org/2000/svg" width="250" height="250" viewBox="0 0 250 250"><g fill="none" fill-rule="evenodd"><path fill="#F58E70" d="M116.098 81.69l-.899.005c-4.765.296-9.074.785-12.808 1.456l-.248.048c-.716.138-1.433.275-2.138.442-27.187 6.419-46.875 30.32-47.897 58.137v.118l.195 6.05c.964 16.313 8.344 31.458 20.777 42.564l.122.116 4.515 4.514v21.789h14.972c.6-4.735 2.726-9.117 6.143-12.57a21.696 21.696 0 0 1 15.534-6.483h1.732V81.69m97.859 46.391a12.023 12.023 0 0 1-.844-.04c-.167-.013-.368-.01-.603-.01h-.03c-2.551-.004-9.326-.013-13.27-8.822a62.615 62.615 0 0 0-16.585-22.33c-.433-.37-1.333 4.52-1.333 4.52l-2.723-1.05 1.303-5.726 2.42-11.055c.398-1.308.651-3.967-.272-4.567-1.706-1.108-5.829.368-8.84 1.444-.513.185-1.019.365-1.512.535-1.359.473-4.497 1.686-9.321 3.604l-.977.387-1.005-.305a62.007 62.007 0 0 0-11.087-2.289c-.017-.002-5.03-.502-12.196-.8l-3.226.017v116.282h1.456c5.235 0 10.273 2.471 13.476 6.612l9.624 12.441h14.691l-1.807-5.728a12.51 12.51 0 0 1 3.907-13.395l.227-.19.261-.143c.174-.095 17.876-10.04 24.376-30.432 2.039-7.644 3.507-9.975 5.208-12.673l.053-.085c3.143-4.987 8.439-7.293 11.565-8.268v-17.934h-2.936"/><path fill="#48515A" d="M139.101 150.108h-28.003v-14h5v2h-3v10h24.003v-10h-3v-2h5v14"/><path fill="#48515A" d="M117.098 158.387l8.002 2.667 8.001-2.667V75.108h-16.003v83.279zm8.002 4.774l-10.002-3.333v-86.72h20.003v86.72l-10.001 3.333z"/><path fill="#48515A" d="M124.1 149.108h2v-6h-2zM135.101 205.119h-20.003v-46.011h2v44.011h16.003v-44.011h2v46.011M125.118 156.109a1 1 0 0 1-.71-.3.95.95 0 0 1-.29-.7.986.986 0 0 1 .29-.71c.09-.09.2-.17.32-.22.37-.15.82-.06 1.09.22.1.09.17.2.22.33.05.12.08.25.08.38 0 .26-.11.52-.3.7-.19.19-.44.3-.7.3m0-20a1.046 1.046 0 0 1-.71-.29c-.09-.1-.17-.21-.22-.33a.986.986 0 0 1-.07-.38 1.007 1.007 0 0 1 .61-.93c.25-.1.53-.1.77 0 .12.05.23.13.32.22.19.19.3.45.3.71 0 .13-.03.26-.08.38s-.12.23-.22.33c-.09.09-.2.16-.32.21-.12.05-.25.08-.38.08"/><path fill="#48515A" d="M112.098 168.109h26.003v-2h-26.003zM112.098 108.108h26.003v-2h-26.003z"/><path fill="#475059" d="M182.04 101.683l-1.918-.568c.014-.049 1.463-4.951 2.098-7.875l1.954.424c-.65 2.997-2.074 7.815-2.134 8.019"/><path fill="#475059" d="M178.56 220.929h-22.111l-10.825-13.993a13.125 13.125 0 0 0-10.312-5.061h-1.001v-2h1.001a15.14 15.14 0 0 1 11.894 5.836l10.225 13.218h18.4l-2.628-8.329a10.522 10.522 0 0 1 3.284-11.261l.162-.11c.185-.102 18.604-10.395 25.345-31.65 1.957-7.358 3.355-9.576 4.973-12.144l.054-.086c3.382-5.369 9.61-7.28 11.872-7.816v-21.452h-4.936a10.399 10.399 0 0 1-.686-.034c-.214-.017-.479-.016-.789-.016-2.607-.004-8.032-.011-11.447-7.639a64.594 64.594 0 0 0-18.467-24.162l-.48-.388 2.089-9.589c.038-.136 1.579-5.208-1.066-6.929-2.541-1.649-6.826-.114-10.607 1.24-.506.18-1.004.359-1.488.527-1.389.482-4.554 1.703-9.408 3.634l-.325.129-.335-.102a64.263 64.263 0 0 0-11.448-2.364c-.039-.003-5.133-.513-12.406-.812l-2.993.001v-2h3.034c7.378.303 12.527.818 12.578.823.782.089 1.548.186 2.31.299a66.375 66.375 0 0 1 9.17 2.039c4.699-1.868 7.783-3.057 9.168-3.537.479-.166.97-.341 1.469-.52 4.218-1.512 8.998-3.223 12.371-1.033 3.917 2.547 1.991 8.85 1.907 9.118l-1.804 8.3c7.997 6.592 14.407 15.055 18.559 24.515 2.884 6.441 7.267 6.446 9.622 6.45.371 0 .691.002.947.022.276.022.464.026.547.028h6.914v25.112l-.836.139c-.078.013-7.736 1.356-11.344 7.083l-.054.086c-1.595 2.531-2.854 4.529-4.746 11.638-6.748 21.282-24.735 31.948-26.209 32.791a8.524 8.524 0 0 0-2.594 9.068l3.45 10.931m-82.036 0H73.717v-24.133l-3.343-3.343c-13.185-11.775-21.037-27.895-22.068-45.352l-.198-6.378c1.065-29.669 22.027-55.139 50.974-61.975a58.578 58.578 0 0 1 2.336-.483l.253-.049c3.933-.705 8.426-1.215 13.367-1.517l.122 1.996c-4.864.297-9.28.797-13.123 1.487l-.24.047c-.755.145-1.511.291-2.255.467-28.074 6.628-48.402 31.328-49.435 60.063l.001.138.196 6.113c.998 16.898 8.614 32.53 21.443 43.99l3.97 3.968v22.961h18.811c.194-4.965 2.205-9.606 5.725-13.164a19.714 19.714 0 0 1 14.113-5.89h1.539v2h-1.539a17.729 17.729 0 0 0-12.691 5.296 17.723 17.723 0 0 0-5.161 12.747l.01 1.011"/><path fill="#475059" d="M38.631 159.996c-5.252 0-9.524-4.402-9.524-9.812 0-4.439 3.508-8.05 7.819-8.05 3.62 0 6.455 2.544 6.455 5.792 0 3.072-2.406 5.572-5.364 5.572v-2c1.855 0 3.364-1.602 3.364-3.572 0-2.162-1.915-3.792-4.455-3.792-3.208 0-5.819 2.714-5.819 6.05 0 4.308 3.375 7.812 7.524 7.812 5.323 0 9.654-4.493 9.655-10.015h2c-.001 6.625-5.229 12.015-11.655 12.015m151.929-39.929a.998.998 0 0 1-.943-.669c-.981-2.795-1.965-4.935-2.769-6.025a1 1 0 1 1 1.608-1.187c1.18 1.597 2.309 4.443 3.047 6.55a.998.998 0 0 1-.943 1.331"/><path fill="#FFD15D" d="M172.035 56.502c0-7.535-6.109-13.643-13.644-13.643s-13.644 6.108-13.644 13.643c0 7.535 6.109 13.644 13.644 13.644s13.644-6.109 13.644-13.644"/><path fill="#475059" d="M160.281 62.03h-4.213a2.67 2.67 0 0 1-2.66-2.673 1 1 0 1 1 2 0c0 .371.296.673.66.673h4.213c.497 0 .901-.41.901-.914v-.719a.903.903 0 0 0-.901-.902h-4.155c-1.599 0-2.9-1.3-2.9-2.9v-.722c0-1.599 1.301-2.9 2.9-2.9h4.466c1.29 0 2.34 1.049 2.34 2.339a1 1 0 1 1-2 0 .34.34 0 0 0-.34-.339h-4.466c-.496 0-.9.404-.9.9v.722c0 .496.404.9.9.9h4.155c1.6 0 2.901 1.302 2.901 2.902v.719a2.91 2.91 0 0 1-2.901 2.914"/><path fill="#475059" d="M158.417 64.324a1 1 0 0 1-1-1.001V49.68a1 1 0 1 1 2 0v13.643a1 1 0 0 1-1 1.001"/><path fill="#48515A" d="M205.108 90.135h2v-4h-2zM205.108 100.135h2v-4h-2zM209.108 94.135h4v-2h-4zM199.108 94.135h4v-2h-4zM50.094 199.172h2v-4h-2zM50.094 209.172h2v-4h-2zM54.094 203.172h4v-2h-4zM44.094 203.172h4v-2h-4zM48.048 83.16h2v-4h-2zM48.048 93.16h2v-4h-2zM52.048 87.16h4v-2h-4zM42.048 87.16h4v-2h-4z"/><path fill="#FFD15D" d="M118.055 47.071c0-9.941-8.059-18-18-18s-18 8.059-18 18 8.059 18 18 18 18-8.059 18-18"/><path fill="#475059" d="M102.549 54.044H96.99a3.202 3.202 0 0 1-3.19-3.207 1 1 0 1 1 2 0 1.2 1.2 0 0 0 1.19 1.207h5.559c.831 0 1.508-.683 1.508-1.523v-.95a1.51 1.51 0 0 0-1.508-1.508h-5.481a3.512 3.512 0 0 1-3.508-3.509v-.951a3.511 3.511 0 0 1 3.508-3.508h5.891a2.77 2.77 0 0 1 2.768 2.767 1 1 0 0 1-2 0 .769.769 0 0 0-.768-.767h-5.891a1.51 1.51 0 0 0-1.508 1.508v.951a1.51 1.51 0 0 0 1.508 1.509h5.481a3.512 3.512 0 0 1 3.508 3.508v.95c0 1.942-1.574 3.523-3.508 3.523"/><path fill="#475059" d="M100.089 57.071a1 1 0 0 1-1-1v-18a1 1 0 1 1 2 0v18a1 1 0 0 1-1 1"/><path fill="#5FE0ED" d="M192.128 206.189a2 2 0 1 1-4 0 2 2 0 0 1 4 0"/><path fill="#475059" d="M152.027 139.14h18.083v-26h-18.083v26zm-2 2h22.083v-30h-22.083v30z"/><path fill="#475059" d="M156.027 119.14h10.083v-2h-10.083v2zm-2 2h14.083v-6h-14.083v6zm.083 3.958h2v-2h-2v2zm0 4h2v-2h-2v2zm0 4h2v-2h-2v2zm0 4h2v-2h-2v2zm4-12h2v-2h-2v2zm0 4h2v-2h-2v2zm0 4h2v-2h-2v2zm0 4h2v-2h-2v2zm4-12h2v-2h-2v2zm0 4h2v-2h-2v2zm0 4h2v-2h-2v2zm0 4h2v-2h-2v2zm4-12h2v-2h-2v2zm0 4h2v-2h-2v2z"/><path fill="#FFF" d="M167.11 131.098v6.042"/><path fill="#475059" d="M166.11 137.14h2v-6.042h-2z"/><path fill="#48515A" d="M69.122 153.207h22v-2h-22zM52.223 183.207c.464 2.28 2.484 4 4.899 4h17.106a6.983 6.983 0 0 1-2.035-4h-19.97zm26.899 6h-22c-3.86 0-7-3.14-7-7v-1h24v1c0 2.757 2.243 5 5 5s5-2.243 5-5v-24h2v24c0 3.86-3.14 7-7 7z"/><path fill="#48515A" d="M64.122 182.207h-2v-24c0-3.859 3.14-7 7-7 3.521 0 6.442 2.613 6.929 6h19.97a5.008 5.008 0 0 0-4.899-4v-2c3.86 0 7 3.141 7 7v1h-24v-1c0-2.757-2.243-5-5-5s-5 2.243-5 5v24"/></g></svg>