<?xml version="1.0" encoding="utf-8"?><svg xmlns="http://www.w3.org/2000/svg" width="250" height="250" viewBox="0 0 250 250"><g fill="none" fill-rule="evenodd"><path fill="#475059" d="M125 104.651c7.497 0 13.894 4.797 16.281 11.484 2.388-6.687 8.784-11.484 16.282-11.484 7.496 0 13.892 4.798 16.28 11.484 2.387-6.686 8.785-11.484 16.281-11.484 6.261 0 11.756 3.348 14.787 8.347-4.459-40.146-38.596-71.47-79.911-71.47-41.315 0-75.452 31.325-79.911 71.47 3.031-4.999 8.526-8.347 14.788-8.347 7.496 0 13.894 4.798 16.281 11.484 2.388-6.686 8.784-11.484 16.28-11.484 7.497 0 13.894 4.798 16.282 11.484 2.387-6.686 8.784-11.484 16.28-11.484zm82.404 17.281h-2c0-8.426-6.854-15.281-15.28-15.281-8.426 0-15.281 6.855-15.281 15.281h-2c0-8.426-6.855-15.281-15.28-15.281-8.426 0-15.282 6.855-15.282 15.281h-2c0-8.426-6.855-15.281-15.281-15.281s-15.28 6.855-15.28 15.281h-2c0-8.426-6.856-15.281-15.282-15.281-8.425 0-15.28 6.855-15.28 15.281h-2c0-8.426-6.855-15.281-15.281-15.281s-15.281 6.855-15.281 15.281h-2c0-45.438 36.966-82.404 82.404-82.404 45.438 0 82.404 36.966 82.404 82.404z"/><path fill="#5FE0ED" d="M38.315 137.961h-2v-16.123c0-48.901 39.785-88.685 88.685-88.685 48.9 0 88.685 39.784 88.685 88.685v12.876h-2v-12.876c0-47.798-38.887-86.685-86.685-86.685S38.315 74.04 38.315 121.838v16.123M36.315 144.611h2v-3.256h-2z"/><path fill="#475059" d="M124 40.528h2V29.016h-2z"/><path fill="#5FE0ED" d="M211.685 149.96h2v-9.071h-2z"/><path fill="#FFD15D" d="M141.167 45.221c17.337 9.974 30.272 35.429 32.729 66.313 3.433-5.338 9.422-8.882 16.227-8.882 4.439 0 8.532 1.507 11.794 4.037-6.077-30.72-30.161-55.029-60.75-61.468m-32.61.056c-30.458 6.527-54.415 30.785-60.474 61.412a19.186 19.186 0 0 1 11.794-4.037c6.792 0 12.771 3.531 16.207 8.852 2.391-30.825 15.225-56.218 32.473-66.227m18.079-1.713c-.545-.011-1.088-.036-1.636-.036-.837 0-1.668.029-2.499.055-7.205 4.526-12.857 32.284-13.78 68.027 3.424-5.381 9.442-8.958 16.279-8.958 6.839 0 12.858 3.578 16.282 8.961l.011-.018c-1.347-35.455-7.299-63.555-14.657-68.031m32.042 80.73c-.844 14.204-10.612 26.942-25.089 30.841-18.103 4.876-36.797-5.885-41.672-23.988a33.756 33.756 0 0 1-1.106-6.853H80.792a43.889 43.889 0 0 0 1.469 9.454c6.319 23.464 30.464 37.363 53.929 31.043 18.968-5.108 31.66-21.867 32.496-40.497h-10.008"/><path fill="#475059" d="M123.751 197.022h2v-17.007h-2zM123.615 130.947h2v-22.424h-2z"/><path fill="#475059" d="M123.814 198.022v10.113c0 5.556 4.171 10.3 9.497 10.802 5.35.507 10.21-3.07 11.307-8.312a.921.921 0 0 0-.195-.771 1.026 1.026 0 0 0-.8-.382c-.468 0-.874.319-.967.758-.909 4.311-5.059 7.253-9.445 6.683-4.217-.541-7.397-4.282-7.397-8.702v-10.189h-2zm10.502 22.962c-.395 0-.793-.018-1.193-.056-6.341-.597-11.309-6.216-11.309-12.793v-12.113h6v12.189c0 3.417 2.43 6.305 5.651 6.718 3.413.436 6.527-1.759 7.234-5.112.287-1.359 1.517-2.345 2.924-2.345a3.02 3.02 0 0 1 2.352 1.12c.561.691.78 1.582.6 2.442-1.222 5.847-6.378 9.95-12.259 9.95z"/><path fill="#DEDEDD" d="M140.202 126.217c-.019.076-.028.153-.049.23-1.908 7.121-8.363 11.817-15.406 11.842l-.049.098v-.098c-7.043-.025-13.498-4.721-15.406-11.842-.021-.077-.03-.154-.049-.23l-7.733 2.072c.019.076.034.152.055.228 2.864 10.692 12.559 17.762 23.133 17.786v-.069l.049.069c10.574-.024 20.269-7.094 23.133-17.786.021-.076.036-.152.055-.228l-7.733-2.072"/><path fill="#DEDEDD" d="M188.575 142.767l.879-3.264-19.318-5.203c-.02.076-.035.152-.055.229-5.636 20.925-24.631 34.744-45.334 34.771l-.049.018v-.018c-20.703-.027-39.698-13.846-45.334-34.771-.02-.077-.035-.153-.055-.229l-19.318 5.203.879 3.264 15.632-.278 6.724 11.614-8.022 13.418 4.456 4.443 13.397-8.057 11.63 6.696-.238 15.631 6.08 1.621 7.574-13.676 6.595-.009v-.021l.049.021 6.595.009 7.574 13.676 6.08-1.621-.238-15.631 11.63-6.696 13.397 8.057 4.456-4.443-8.022-13.418 6.724-11.614 15.632.278"/><path fill="#475059" d="M124.701 150.317c-4.851 0-9.639-1.273-13.954-3.764-6.477-3.739-11.11-9.777-13.046-17.001a28.21 28.21 0 0 1-.849-4.875l1.992-.172c.134 1.55.399 3.074.789 4.529 1.798 6.708 6.099 12.315 12.114 15.788 6.016 3.472 13.024 4.392 19.73 2.597 10.555-2.828 18.264-12.043 19.183-22.93l1.992.168c-.988 11.724-9.291 21.648-20.658 24.693-2.412.647-4.86.967-7.293.967"/><path fill="#475059" d="M112.517 192.524l-12.115-3.229.25-16.4-7.551-4.347-14.056 8.453-8.876-8.853 8.417-14.078-4.366-7.54-16.401.293-3.259-12.105 14.329-7.984v-2.44h2v3.614l-13.992 7.797 2.448 9.09 16.015-.285 5.546 9.576-8.219 13.749 6.665 6.648 13.727-8.255 9.591 5.521-.244 16.016 9.096 2.424 7.76-14.012 11.068-.014 7.796 13.993 9.09-2.449-.286-16.015 9.577-5.546 13.748 8.219 6.649-6.665-8.255-13.727 5.521-9.591 16.016.244 2.425-9.096-14.012-7.76-.001-.589-.002-1.171h-.006l.002-.278c0-.045.001-.088.003-.13l-.001-.139h.001c-.009-.322-.009-.707-.01-1.168l2-.003.002 1.172h.006l-.002.277c0 .045-.001.088-.003.13l.001.139h-.001c.005.174.007.367.008.58l14.349 7.946-3.213 12.058-.796.044-15.619-.239-4.348 7.552 8.454 14.057-8.853 8.875-14.078-8.416-7.54 4.366.292 16.399-12.105 3.26-7.983-14.327-8.714.011-7.945 14.348"/><path fill="#475059" d="M124.675 167.324c-7.779 0-15.455-2.034-22.378-6.019-10.417-5.997-17.876-15.691-21.002-27.297a44.968 44.968 0 0 1-1.502-9.669l1.998-.09c.14 3.113.623 6.221 1.436 9.239 2.986 11.09 10.113 20.354 20.068 26.084 9.955 5.731 21.545 7.24 32.635 4.253 18.152-4.888 30.915-20.793 31.758-39.576l1.998.09c-.882 19.656-14.239 36.301-33.237 41.418a45.268 45.268 0 0 1-11.774 1.567"/><path fill="#475059" d="M124.75 139.307c-7.505 0-14.391-5.015-16.424-12.602a16.435 16.435 0 0 1-.434-2.29l1.984-.243c.091.735.216 1.394.382 2.016 2.14 7.988 10.377 12.747 18.371 10.606a14.94 14.94 0 0 0 10.997-12.625l1.984.249a16.932 16.932 0 0 1-12.464 14.308 16.978 16.978 0 0 1-4.396.581"/><path fill="#475059" d="M124.75 135.306c-5.74 0-11.006-3.835-12.561-9.636a12.72 12.72 0 0 1-.253-1.211l1.972-.331c.058.342.122.683.213 1.025 1.57 5.859 7.617 9.345 13.473 7.777 4.138-1.108 7.275-4.564 7.991-8.803l1.973.333c-.847 5.009-4.554 9.092-9.447 10.402a12.96 12.96 0 0 1-3.361.444"/><path fill="#48515A" d="M203.009 175.082h2v-4h-2zM203.009 185.082h2v-4h-2zM207.009 179.082h4v-2h-4zM197.009 179.082h4v-2h-4zM46.007 155.022h2v-4h-2zM46.007 165.022h2v-4h-2zM50.007 159.022h4v-2h-4zM40.007 159.022h4v-2h-4z"/><path fill="#5FE0ED" d="M171 187.04a2 2 0 1 1 4 0 2 2 0 0 1-4 0"/><path fill="#FFD15D" d="M85.006 189.028a2 2 0 1 1 4 0 2 2 0 0 1-4 0"/><path fill="#F58E70" d="M48.007 173.076a2 2 0 1 1 3.999-.001 2 2 0 0 1-3.999.001"/></g></svg>