<?xml version="1.0" encoding="utf-8"?><svg xmlns="http://www.w3.org/2000/svg" width="250" height="250" viewBox="0 0 250 250"><g fill="none" fill-rule="evenodd"><path fill="#FACD60" d="M188.672 75.89H162.66V49.619h1.011l25.001 24.999v1.272"/><path fill="#434A4F" d="M140.171 202.59H79.697a1 1 0 0 1-1-1v-56.971h2v55.971h59.474v2m48.79 0h-10.124v-2h9.124v-11.971h2v12.971a1 1 0 0 1-1 1M189.673 112.619h-2V75.982l-25.427-25.394H80.697v46.031h-2V48.588h84.377l26.599 26.565v37.466"/><path fill="#42494E" d="M118.145 156.259l-1.902-.62.3-.919-1.171-.381a3.492 3.492 0 0 1-2.446-3.375 3.49 3.49 0 0 1 2.453-3.369l1.172-.379-.639-1.972-1.172.379a3.493 3.493 0 0 1-3.963-1.291 3.494 3.494 0 0 1 .004-4.168l.726-.996-1.676-1.22-.725.996a3.491 3.491 0 0 1-3.966 1.284 3.493 3.493 0 0 1-2.446-3.374l.002-1.232-2.073-.002-.001 1.232a3.492 3.492 0 0 1-2.453 3.369c-1.49.48-3.044-.025-3.963-1.292l-.723-.997-1.678 1.217.723.997a3.492 3.492 0 0 1-.004 4.168c-.92 1.265-2.474 1.769-3.965 1.283l-1.171-.381-.3.919-1.901-.62.919-2.82 3.072 1.001c.79.255 1.41-.122 1.729-.56.319-.439.488-1.146.002-1.816l-1.897-2.617 4.916-3.564 1.897 2.617c.486.67 1.211.73 1.727.563.517-.168 1.069-.642 1.07-1.469l.003-3.232 6.073.006-.004 3.232c-.001.827.55 1.302 1.066 1.47.515.167 1.241.11 1.729-.56l1.902-2.612 4.91 3.574-1.903 2.613c-.487.669-.32 1.377-.002 1.816.319.44.942.818 1.728.564l3.075-.996 1.87 5.777-3.074.996c-.788.255-1.069.926-1.069 1.468-.001.543.279 1.214 1.066 1.471l3.073 1.002-.92 2.82"/><path fill="#42494E" d="M109.371 153.472l-1.902-.62a6.081 6.081 0 0 0-.363-4.675 6.084 6.084 0 0 0-3.563-3.049 6.09 6.09 0 0 0-4.675.363 6.087 6.087 0 0 0-3.049 3.563l-1.901-.62a8.07 8.07 0 0 1 4.044-4.725 8.062 8.062 0 0 1 6.201-.482 8.073 8.073 0 0 1 4.726 4.044 8.07 8.07 0 0 1 .482 6.201"/><path fill="#42494E" d="M101.66 159.016c-.833 0-1.68-.13-2.514-.402-4.26-1.389-6.596-5.985-5.207-10.246l1.902.62a6.134 6.134 0 0 0 3.925 7.725 6.097 6.097 0 0 0 4.676-.363 6.084 6.084 0 0 0 3.049-3.563l1.901.62c-1.117 3.427-4.309 5.608-7.732 5.609"/><path fill="#42494E" d="M104.684 168.223l-6.073-.006.004-3.232c.001-.828-.551-1.302-1.067-1.471-.515-.168-1.241-.11-1.728.56l-1.903 2.613-4.909-3.575 1.903-2.613c.487-.669.32-1.377.002-1.816-.319-.44-.941-.817-1.727-.564l-3.075.996-1.87-5.777 3.074-.996c.788-.254 1.069-.925 1.069-1.468.001-.543-.279-1.214-1.066-1.471l-3.072-1.002 1.031-3.162 1.901.619-.411 1.262 1.171.382a3.49 3.49 0 0 1 2.446 3.374 3.49 3.49 0 0 1-2.453 3.369l-1.172.38.639 1.971 1.172-.379c1.49-.483 3.043.025 3.962 1.292a3.492 3.492 0 0 1-.004 4.167l-.726.997 1.676 1.22.725-.996a3.494 3.494 0 0 1 3.965-1.284 3.494 3.494 0 0 1 2.447 3.374l-.002 1.232 2.073.002.001-1.232a3.494 3.494 0 0 1 2.453-3.369c1.489-.484 3.044.025 3.963 1.292l.723.998 1.678-1.216-.723-.998a3.494 3.494 0 0 1 .004-4.168 3.493 3.493 0 0 1 3.966-1.283l1.171.382.456-1.401 1.902.62-1.077 3.302-3.072-1.002c-.788-.256-1.409.121-1.729.56-.319.439-.488 1.146-.002 1.816l1.897 2.617-4.916 3.564-1.897-2.617c-.486-.67-1.211-.732-1.728-.563-.516.167-1.068.641-1.069 1.468l-.003 3.232"/><path fill="#434A4F" d="M93.673 67.619h18v-2h-18zM93.673 71.619h58v-2h-58zM93.673 83.619h40v-2h-40zM93.673 87.619h40v-2h-40zM93.673 91.619h40v-2h-40zM93.673 95.619h40v-2h-40z"/><path fill="#42494E" d="M36.5 188.67c-1.654 0-3 1.345-3 3 0 1.654 1.346 3 3 3h81.217l6.505-3-6.505-3H36.5zm81.656 8H36.5c-2.757 0-5-2.244-5-5 0-2.757 2.243-5 5-5h81.656l10.843 5-10.843 5z"/><path fill="#42494E" d="M42.11 195.67h2v-7.599h-2z"/><path fill="#42494E" d="M43.11 192.641h74.058v-2H43.11z"/><path fill="#434A4F" d="M55.667 158.613h2v-4h-2zM55.667 168.613h2v-4h-2zM59.667 162.613h4v-2h-4zM49.667 162.613h4v-2h-4zM207.758 90.572h2v-4h-2zM207.758 100.572h2v-4h-2zM211.758 94.572h4v-2h-4zM201.758 94.572h4v-2h-4z"/><path fill="#42494E" d="M167.713 197.785l.013.014-.013-.014zm-10.629 8.536c.52.021 1.124.247 1.562.572l7.674-7.673-.014-.013a1.451 1.451 0 0 1-.293-.454c-1.464-3.307-3.473-6.25-5.97-8.748l-3.71-3.71c-.378-.377-.967-.456-1.34-.18a.982.982 0 0 0-.24 1.353l1.072 1.102-1.423 1.404-.934-.934a3.132 3.132 0 0 1-.243-.274l-.587-.602c-.385-.386-1.001-.443-1.392-.12a1.1 1.1 0 0 0-.394.781c-.007.136.011.395.208.592l.118.119.009.009 1.822 1.822-1.414 1.414-1.826-1.826c-.348-.344-.864-.445-1.231-.239a1.097 1.097 0 0 0-.553.814.978.978 0 0 0 .257.834l1.885 1.885-1.414 1.414-8.411-8.41c-.357-.359-.9-.457-1.291-.236a1.017 1.017 0 0 0-.528.757.994.994 0 0 0 .284.844l7.758 7.759a.012.012 0 0 1 .005.005l2.781 2.781-1.414 1.414-2.783-2.783c-.756-.755-2.071-.754-2.827.002l-.022.022 5.621 5.621a8.052 8.052 0 0 0 4.606 2.274l4.592.608zm1.579 3.383l-1.193-1.192a.994.994 0 0 0-.464-.192l-.131-.009-4.646-.616a10.05 10.05 0 0 1-5.757-2.842l-7.035-7.035 1.436-1.436a3.986 3.986 0 0 1 1.792-1.038l-5.313-5.312a2.98 2.98 0 0 1-.851-2.527 3.015 3.015 0 0 1 1.524-2.227c1.175-.667 2.694-.437 3.692.561l4.541 4.541a3.073 3.073 0 0 1 1.302-1.408c.404-.227.85-.345 1.302-.361a3.088 3.088 0 0 1 1.111-2.109c.776-.641 1.819-.809 2.763-.531a3.005 3.005 0 0 1 1.068-1.464c1.169-.865 2.865-.705 3.943.374l3.71 3.709c2.659 2.66 4.799 5.789 6.361 9.3l1.33 1.33-10.485 10.484z"/><path fill="#42494E" d="M162.065 216.203l-4.243-4.243a3.005 3.005 0 0 1 0-4.243l9.899-9.899a3.003 3.003 0 0 1 4.243 0l4.243 4.243-1.414 1.414-4.243-4.243a1.001 1.001 0 0 0-1.415 0l-9.899 9.9a1 1 0 0 0 .001 1.414l4.242 4.243-1.414 1.414"/><path fill="#434A4F" d="M139.403 183.618a1 1 0 0 1-1-1v-1.999a1 1 0 0 1 2 0v1.999a1 1 0 0 1-1 1m-5.001 5.001h-1.999a1 1 0 0 1 0-2h1.999a1 1 0 0 1 0 2m8.823-3.822a1 1 0 0 1-.707-1.707l1.128-1.128a.999.999 0 1 1 1.414 1.414l-1.128 1.128a.997.997 0 0 1-.707.293m-8.772 8.772a1 1 0 0 1-.707-1.708l1.022-1.021a.999.999 0 1 1 1.414 1.414l-1.022 1.022a.997.997 0 0 1-.707.293m1.325-8.575a.997.997 0 0 1-.707-.293l-1.325-1.325a1 1 0 0 1 1.414-1.414l1.325 1.325a.999.999 0 0 1-.707 1.707"/><path fill="#75C7D0" d="M43.339 138.119a2.833 2.833 0 1 1-5.666 0 2.833 2.833 0 1 1 5.666 0"/><path fill="#FACD60" d="M65.675 50.625a3.333 3.333 0 1 1-6.665 0 3.333 3.333 0 0 1 6.665 0"/><path fill="#FACD60" d="M62.342 47.792a2.837 2.837 0 0 0-2.834 2.833 2.837 2.837 0 0 0 2.834 2.833 2.836 2.836 0 0 0 2.833-2.833 2.836 2.836 0 0 0-2.833-2.833zm0 6.666a3.838 3.838 0 0 1-3.834-3.833 3.838 3.838 0 0 1 3.834-3.833 3.837 3.837 0 0 1 3.833 3.833 3.838 3.838 0 0 1-3.833 3.833z"/><path fill="#434A4F" d="M70.675 204.64h2v-4h-2zM70.675 214.64h2v-4h-2zM74.675 208.64h4v-2h-4zM64.675 208.64h4v-2h-4z"/><path fill="#42494E" d="M57.608 127.52c-2.895-5.696-.616-12.686 5.08-15.581 5.698-2.895 12.687-.616 15.582 5.079l-1.783.906c-2.395-4.712-8.18-6.599-12.892-4.202-4.714 2.395-6.599 8.179-4.204 12.892l-1.783.906"/><path fill="#E9886C" d="M67.916 118.724a3.503 3.503 0 0 0-2.475 5.975c1.321 1.322 3.628 1.322 4.95 0a3.477 3.477 0 0 0 1.025-2.475c0-.935-.364-1.814-1.025-2.475a3.477 3.477 0 0 0-2.475-1.025zm0 10a6.453 6.453 0 0 1-4.596-1.904 6.507 6.507 0 0 1 0-9.192 6.453 6.453 0 0 1 4.596-1.904c1.736 0 3.368.676 4.596 1.904a6.453 6.453 0 0 1 1.904 4.596 6.457 6.457 0 0 1-1.904 4.596 6.457 6.457 0 0 1-4.596 1.904z"/><path fill="#434A4F" d="M64.387 139.146c.26 0 .524.02.79.063 2.084.332 3.642 1.894 3.97 3.979l.36 2.288 4.001-.63-.359-2.288c-.328-2.085.676-4.05 2.557-5.006 1.88-.957 4.059-.608 5.551.886l1.636 1.639 2.867-2.861-1.636-1.639c-1.491-1.494-1.833-3.674-.873-5.554.96-1.879 2.925-2.877 5.011-2.546l2.287.364.638-4-2.287-.364c-2.084-.332-3.642-1.894-3.971-3.979-.328-2.085.676-4.05 2.558-5.006l2.064-1.049-1.79-3.521-2.064 1.049c-1.881.954-4.061.608-5.551-.885-1.491-1.494-1.834-3.673-.874-5.553l1.054-2.062-3.608-1.842-1.053 2.063c-.96 1.878-2.925 2.88-5.011 2.546-2.084-.332-3.643-1.894-3.971-3.978l-.36-2.288-4.002.63.36 2.288c.328 2.084-.675 4.049-2.556 5.005-1.881.957-4.061.61-5.551-.884l-1.636-1.64-2.867 2.862 1.636 1.639c1.491 1.494 1.833 3.674.873 5.553-.959 1.879-2.925 2.88-5.01 2.547l-2.288-.364-.637 4 2.286.364c2.085.332 3.644 1.894 3.972 3.979.328 2.084-.676 4.049-2.557 5.006l-2.064 1.049 1.787 3.518 2.064-1.049c1.884-.956 4.062-.609 5.552.885 1.49 1.494 1.833 3.673.873 5.553l-1.053 2.062 3.607 1.843 1.053-2.063c.838-1.64 2.443-2.609 4.222-2.609zm3.455 8.616l-.67-4.264c-.232-1.471-1.346-2.16-2.31-2.314-.967-.154-2.237.154-2.916 1.481l-1.963 3.844-7.169-3.663 1.963-3.843c.678-1.327.182-2.538-.508-3.23-.691-.693-1.903-1.19-3.229-.515l-3.848 1.956-3.6-7.085 3.848-1.955c1.328-.676 1.639-1.947 1.487-2.912-.152-.965-.839-2.08-2.31-2.315l-4.262-.679 1.267-7.95 4.262.679c1.474.233 2.471-.612 2.915-1.482.445-.87.544-2.175-.508-3.23l-3.049-3.055 5.699-5.687 3.048 3.055c1.054 1.055 2.36.958 3.229.514.872-.442 1.72-1.439 1.488-2.911l-.671-4.264 7.953-1.251.67 4.263c.232 1.472 1.346 2.161 2.311 2.314.961.155 2.237-.154 2.914-1.481l1.964-3.844 7.169 3.662-1.963 3.844c-.677 1.326-.182 2.538.508 3.229.691.692 1.901 1.192 3.23.515l3.847-1.955 3.603 7.087-3.848 1.955c-1.329.675-1.64 1.947-1.488 2.912.152.965.838 2.08 2.31 2.315l4.262.679-1.268 7.951-4.262-.68c-1.47-.232-2.47.611-2.915 1.481-.444.87-.544 2.176.508 3.231l3.049 3.055-5.699 5.686-3.049-3.054c-1.052-1.056-2.359-.959-3.229-.515-.871.442-1.719 1.44-1.488 2.912l.671 4.263-7.953 1.251z"/><path fill="#434A4F" d="M65.94 108.329a.998.998 0 0 1 .92-1.071 1.006 1.006 0 0 1 1.069.931 1.004 1.004 0 0 1-.929 1.069h-.071a.985.985 0 0 1-.989-.929zm4.759 1.19c-.54-.11-.879-.65-.77-1.19a.996.996 0 0 1 1.19-.76c.54.12.881.649.77 1.189-.11.471-.52.791-.98.791a.772.772 0 0 1-.21-.03zm-8.6-.071a1.003 1.003 0 0 1 .591-1.289.992.992 0 0 1 1.28.59c.2.52-.07 1.09-.581 1.29-.119.04-.239.06-.349.06-.41 0-.79-.25-.941-.651zm12.06 1.371a1 1 0 0 1-.389-1.36.987.987 0 0 1 1.349-.39c.491.26.671.87.401 1.35a.98.98 0 0 1-.881.52 1.04 1.04 0 0 1-.48-.12zm-15.42.79a.992.992 0 0 1 .201-1.4.993.993 0 0 1 1.4.2c.33.44.239 1.07-.201 1.4-.179.13-.389.199-.599.199a.986.986 0 0 1-.801-.399zm18.371 1.419a.993.993 0 0 1 0-1.409.996.996 0 1 1 1.41 1.409.975.975 0 0 1-1.41 0zm-21 1.591a.993.993 0 0 1-.19-1.401c.33-.44.949-.529 1.4-.199.439.34.529.96.189 1.4h.011c-.2.27-.5.4-.81.4a.97.97 0 0 1-.6-.2zm23.219 1.38a1.002 1.002 0 0 1 .401-1.36.982.982 0 0 1 1.349.4.988.988 0 0 1-.389 1.35.967.967 0 0 1-.48.13.998.998 0 0 1-.881-.52zm-24.879 2.25a.993.993 0 0 1-.59-1.281 1.003 1.003 0 0 1 1.879.701c-.149.4-.539.65-.939.65a.84.84 0 0 1-.35-.07zm26.169 1.21c-.119-.54.23-1.07.77-1.19a.996.996 0 0 1 1.181.77.997.997 0 0 1-.76 1.19c-.07.009-.14.02-.211.02a.996.996 0 0 1-.98-.79zm-26.739 2.75a.998.998 0 1 1 .14-1.991c.55.031.969.511.93 1.06a1.005 1.005 0 0 1-1 .931h-.07zm27.93 2.009a.994.994 0 0 1-.93-1.059c.04-.55.52-.97 1.069-.93.551.04.971.52.931 1.07-.04.52-.48.93-1 .93-.02 0-.051-.011-.07-.011zm-28.56 1.181a1.01 1.01 0 0 1 .77-1.19c.54-.11 1.07.23 1.19.77.11.54-.23 1.07-.77 1.19-.071.01-.14.02-.21.02-.46 0-.87-.32-.98-.79zm27.44 2.66a.997.997 0 1 1 .699-1.87c.511.19.77.759.58 1.279a1 1 0 0 1-1.279.591zm-25.951 1.35v-.01a1.002 1.002 0 0 1 1.761-.951 1.003 1.003 0 0 1-.401 1.351.935.935 0 0 1-.48.13c-.349 0-.699-.191-.88-.52zm23.781 2.01a1 1 0 1 1 1.4-.201c-.201.261-.5.401-.801.401-.21 0-.419-.07-.599-.2zm-21.22 1.4a.994.994 0 0 1 0-1.41c.39-.39 1.029-.39 1.419 0 .391.39.391 1.03 0 1.42a1.02 1.02 0 0 1-.71.29.992.992 0 0 1-.709-.3zm18.2 1.22a1 1 0 0 1 1.599-1.2 1.002 1.002 0 0 1-.799 1.6c-.3 0-.6-.14-.8-.4zm-14.78 1.35a.996.996 0 0 1-.4-1.361 1.01 1.01 0 0 1 1.359-.399 1.002 1.002 0 0 1-.959 1.76zm11.149.309a.996.996 0 0 1 .591-1.289.996.996 0 0 1 1.28.59.992.992 0 0 1-.59 1.279.828.828 0 0 1-.35.071.99.99 0 0 1-.931-.651zm-7.15 1.181a1.012 1.012 0 0 1-.77-1.19.997.997 0 0 1 1.19-.76c.54.11.881.65.77 1.19a.994.994 0 0 1-.98.78c-.069 0-.139 0-.21-.02zm3.19-.621a1.006 1.006 0 0 1 .931-1.069.991.991 0 0 1 1.06.93.998.998 0 0 1-.92 1.07h-.071c-.52 0-.959-.4-1-.931z"/><path fill="#42494E" d="M137.912 136.555c-4.227.001-8.307-2.317-10.35-6.336l1.783-.906c2.395 4.713 8.18 6.6 12.893 4.203 4.713-2.396 6.598-8.179 4.202-12.892l1.783-.907c2.896 5.696.617 12.686-5.079 15.582a11.516 11.516 0 0 1-5.232 1.256"/><path fill="#E9886C" d="M137.916 121.515c-.896 0-1.792.342-2.475 1.024a3.504 3.504 0 0 0 0 4.95h.001c1.321 1.323 3.627 1.322 4.949 0a3.477 3.477 0 0 0 1.025-2.475c0-.935-.364-1.814-1.025-2.475a3.493 3.493 0 0 0-2.475-1.024zm0 9.999a6.455 6.455 0 0 1-4.596-1.904 6.506 6.506 0 0 1 0-9.192 6.507 6.507 0 0 1 9.192 0 6.455 6.455 0 0 1 1.904 4.596 6.457 6.457 0 0 1-1.904 4.596 6.457 6.457 0 0 1-4.596 1.904z"/><path fill="#434A4F" d="M134.388 141.936c.261 0 .524.021.79.063 2.084.333 3.643 1.894 3.971 3.979l.36 2.288 4.001-.63-.36-2.288c-.328-2.085.676-4.049 2.557-5.006 1.88-.955 4.06-.609 5.552.885l1.635 1.639 2.867-2.861-1.636-1.639c-1.491-1.494-1.834-3.674-.874-5.553.96-1.88 2.923-2.881 5.011-2.547l2.288.364.637-4-2.287-.365c-2.084-.332-3.642-1.893-3.971-3.978-.328-2.085.676-4.05 2.557-5.006l2.065-1.049-1.789-3.518-2.064 1.049c-1.883.956-4.061.608-5.551-.885-1.491-1.495-1.833-3.674-.873-5.554l1.053-2.062-3.607-1.842-1.054 2.063c-.96 1.879-2.929 2.878-5.011 2.546-2.084-.333-3.643-1.895-3.97-3.979l-.361-2.288-4.001.63.36 2.287c.328 2.085-.676 4.05-2.557 5.006-1.88.955-4.06.609-5.552-.885l-1.635-1.64-2.867 2.862 1.636 1.639c1.49 1.494 1.833 3.674.873 5.553s-2.927 2.879-5.011 2.546l-2.288-.364-.637 4 2.286.365c2.085.332 3.643 1.894 3.971 3.979.328 2.085-.676 4.05-2.557 5.006l-2.064 1.049 1.789 3.521 2.065-1.05c1.882-.956 4.06-.609 5.551.886 1.491 1.493 1.834 3.673.874 5.552l-1.054 2.063 3.608 1.842 1.053-2.063c.838-1.64 2.442-2.61 4.221-2.61zm3.456 8.616l-.671-4.263c-.231-1.472-1.345-2.161-2.309-2.315-.965-.152-2.238.155-2.916 1.482l-1.963 3.843-7.17-3.661 1.964-3.844c.677-1.327.181-2.538-.509-3.23-.691-.691-1.903-1.191-3.229-.515l-3.848 1.956-3.602-7.087 3.848-1.955c1.328-.675 1.639-1.947 1.488-2.912-.152-.965-.839-2.081-2.311-2.315l-4.261-.68 1.267-7.95 4.263.68c1.471.234 2.471-.611 2.915-1.482.444-.87.544-2.175-.508-3.23l-3.049-3.055 5.699-5.687 3.048 3.055c1.053 1.055 2.358.957 3.23.515.871-.442 1.719-1.44 1.487-2.912l-.67-4.263 7.953-1.251.67 4.263c.232 1.472 1.345 2.161 2.31 2.315.963.153 2.237-.155 2.915-1.482l1.964-3.843 7.169 3.662-1.963 3.844c-.678 1.327-.182 2.538.508 3.23.69.691 1.901 1.19 3.229.515l3.847-1.956 3.601 7.085-3.848 1.955c-1.328.675-1.639 1.947-1.487 2.912.152.965.838 2.08 2.31 2.315l4.262.679-1.267 7.95-4.262-.68c-1.479-.234-2.472.613-2.916 1.482-.444.87-.544 2.176.509 3.231l3.049 3.054-5.699 5.688-3.048-3.055c-1.053-1.056-2.359-.957-3.229-.515-.872.443-1.72 1.44-1.488 2.912l.671 4.264-7.953 1.251z"/><path fill="#434A4F" d="M135.929 111.119a.998.998 0 0 1 .92-1.07 1.005 1.005 0 0 1 1.071.93c.04.549-.38 1.029-.93 1.07h-.07c-.52 0-.96-.4-.991-.93zm4.761 1.19c-.54-.12-.89-.65-.77-1.19a.995.995 0 0 1 1.19-.76c.54.109.88.649.77 1.19-.11.47-.52.78-.98.78-.071 0-.14 0-.21-.02zm-8.6-.071c-.19-.52.069-1.089.589-1.29.52-.19 1.091.08 1.281.591a1 1 0 0 1-.58 1.29c-.12.04-.241.06-.35.06a1 1 0 0 1-.94-.651zm12.06 1.371c-.48-.27-.66-.88-.39-1.36a.991.991 0 0 1 1.35-.4c.489.27.66.869.4 1.36a.999.999 0 0 1-.88.52c-.161 0-.32-.04-.48-.12zm-15.42.79c-.33-.44-.24-1.07.199-1.4a1.003 1.003 0 0 1 1.4.199c.33.441.241 1.071-.199 1.401a.971.971 0 0 1-.6.2c-.3 0-.601-.14-.8-.4zm18.38 1.43a1.006 1.006 0 0 1 0-1.42c.39-.39 1.029-.39 1.42 0 .39.4.39 1.03 0 1.42-.201.19-.451.29-.71.29-.25 0-.51-.1-.71-.29zm-21 1.59c-.44-.33-.531-.96-.201-1.4.331-.44.96-.531 1.401-.2a1.002 1.002 0 0 1-.6 1.8c-.21 0-.42-.06-.6-.2zm23.219 1.37a1.016 1.016 0 0 1 .401-1.36c.489-.26 1.09-.08 1.36.4.259.49.089 1.09-.4 1.36a1.012 1.012 0 0 1-1.361-.4zm-24.88 2.27c-.52-.2-.779-.77-.589-1.29a.995.995 0 0 1 1.279-.59c.52.19.79.769.591 1.289a1 1 0 0 1-1.281.591zm26.17 1.199a1.01 1.01 0 0 1 .77-1.189 1.001 1.001 0 1 1-.77 1.189zm-26.739 2.75a1.005 1.005 0 0 1-.931-1.069.998.998 0 0 1 1.071-.92c.55.03.97.509.929 1.06-.04.53-.48.929-1 .929h-.069zm27.93 2.011c-.55-.04-.97-.52-.93-1.071a.998.998 0 0 1 1.069-.92c.551.041.971.521.931 1.071-.04.52-.48.929-1 .929-.02 0-.051-.009-.07-.009zm-28.55 1.179a.996.996 0 1 1 1.95-.42 1.002 1.002 0 0 1-.77 1.19.991.991 0 0 1-1.18-.77zm27.419 2.661a.995.995 0 0 1-.58-1.29.994.994 0 0 1 1.281-.59 1 1 0 1 1-.35 1.94c-.121 0-.23-.02-.351-.06zm-25.929 1.339a.987.987 0 0 1 .389-1.349.993.993 0 0 1 1.361.4c.27.48.09 1.09-.401 1.35a.9.9 0 0 1-.469.13.986.986 0 0 1-.88-.531zm23.77 2.011a.99.99 0 0 1-.2-1.39v-.01a.99.99 0 0 1 1.399-.19c.44.329.531.95.201 1.4-.201.259-.5.39-.801.39-.21 0-.42-.06-.599-.2zm-21.21 1.41a.996.996 0 1 1 1.409-1.41.994.994 0 0 1 0 1.41.956.956 0 0 1-.699.29c-.26 0-.52-.09-.71-.29zm18.19 1.21a.985.985 0 0 1 .199-1.4c.44-.33 1.061-.24 1.4.2a1 1 0 0 1-.199 1.399h-.011a.985.985 0 0 1-1.389-.199zm-14.79 1.34v.01c-.48-.27-.66-.88-.4-1.36a.997.997 0 0 1 1.36-.4c.48.27.659.87.4 1.359a1.01 1.01 0 0 1-.88.521.947.947 0 0 1-.48-.13zm11.15.319c-.19-.52.069-1.099.589-1.29a.994.994 0 0 1 1.281.591.997.997 0 0 1-.93 1.35 1 1 0 0 1-.94-.651zm-7.15 1.181a.997.997 0 0 1-.761-1.19.993.993 0 0 1 1.19-.761c.54.111.881.651.761 1.191-.1.46-.52.78-.98.78-.071 0-.14 0-.21-.02zm3.19-.62c-.04-.55.38-1.03.929-1.07.551-.04 1.031.38 1.071.93.04.55-.38 1.03-.931 1.07h-.069c-.52 0-.96-.4-1-.93z"/><path fill="#FACD60" d="M215.601 108.568a2.05 2.05 0 1 1-4.101 0 2.05 2.05 0 0 1 4.101 0m-5.442-61.793a8.501 8.501 0 1 1-17.002 0 8.501 8.501 0 0 1 17.002 0"/><path fill="#434A4F" d="M207.96 64.133a1 1 0 0 1-1-1v-3.032c0-2.005.828-3.903 2.332-5.344a10.904 10.904 0 0 0 3.392-7.939c0-3.055-1.221-5.896-3.44-8-2.216-2.101-5.116-3.166-8.188-3.005-5.655.301-10.228 4.976-10.41 10.642a11.019 11.019 0 0 0 3.44 8.352c1.469 1.391 2.279 3.215 2.279 5.137v3.189a1 1 0 1 1-2 0v-3.189c0-1.367-.587-2.675-1.653-3.684a13.017 13.017 0 0 1-4.065-9.87c.216-6.695 5.619-12.218 12.302-12.574 3.618-.188 7.053 1.068 9.671 3.551a12.902 12.902 0 0 1 4.064 9.451c0 3.573-1.423 6.905-4.008 9.382-1.107 1.061-1.716 2.447-1.716 3.901v3.032a1 1 0 0 1-1 1"/><path fill="#434A4F" d="M201.752 71.29a1 1 0 0 1-.01-2l2.69-.025a2.922 2.922 0 0 0 1.676-.827c.549-.55.852-1.28.852-2.057v-3.139a1 1 0 1 1 2 0v3.139a4.877 4.877 0 0 1-1.438 3.471 4.933 4.933 0 0 1-2.909 1.406l-.106.007-2.746.025h-.009"/><path fill="#434A4F" d="M210.253 64.132h-17.001a1 1 0 0 1 0-2h17.001a1 1 0 1 1 0 2"/><path fill="#434A4F" d="M201.752 71.29h-2.478a4.878 4.878 0 0 1-3.472-1.438 4.877 4.877 0 0 1-1.437-3.471v-2.825a1 1 0 0 1 2 0v2.825c0 .777.303 1.508.852 2.057.549.549 1.28.852 2.057.852h2.478a1 1 0 0 1 0 2M204.767 63.133h-2v-7.332l5.211-9.917v-1.17h2v1.663l-5.211 9.918v6.838M200.517 63.133h-2v-6.838l-5.211-9.918v-1.663h2v1.17l5.211 9.917v7.332M196.849 45.419c0-.55.451-1 1-1 .551 0 1 .45 1 1 0 .56-.449 1-1 1-.549 0-1-.44-1-1zm4 0c0-.55.451-1 1-1 .551 0 1 .45 1 1 0 .56-.449 1-1 1-.549 0-1-.44-1-1zm4 0c0-.55.451-1 1-1 .551 0 1 .45 1 1 0 .56-.449 1-1 1-.549 0-1-.44-1-1z"/><path fill="#E9886C" d="M183.572 117.763c-18.156 0-32.928 14.772-32.928 32.928s14.772 32.928 32.928 32.928 32.928-14.772 32.928-32.928-14.772-32.928-32.928-32.928zm0 67.856c-19.259 0-34.928-15.669-34.928-34.928 0-19.259 15.669-34.928 34.928-34.928 19.259 0 34.928 15.669 34.928 34.928 0 19.259-15.669 34.928-34.928 34.928z"/><path fill="#434A4F" d="M184.507 167.842h-2v-17.993h10.736v2h-8.736v15.993M183.568 127.816a1 1 0 0 1-1-1v-5.026a1 1 0 1 1 2 0v5.026a1 1 0 0 1-1 1m.002 52.776a1 1 0 0 1-1-1v-5.026a1 1 0 1 1 2 0v5.026a1 1 0 0 1-1 1m-23.249-28.901h-5.026a1 1 0 1 1 0-2h5.026a1 1 0 0 1 0 2"/><path fill="#434A4F" d="M183.568 127.816a1 1 0 0 1-1-1v-5.026a1 1 0 1 1 2 0v5.026a1 1 0 0 1-1 1m.002 52.776a1 1 0 0 1-1-1v-5.026a1 1 0 1 1 2 0v5.026a1 1 0 0 1-1 1m-23.249-28.901h-5.026a1 1 0 1 1 0-2h5.026a1 1 0 0 1 0 2m8.881 24.716a1 1 0 0 1-.865-1.5l2.513-4.353a1 1 0 1 1 1.732 1l-2.513 4.353a.998.998 0 0 1-.867.5m-5.683-36.653a.992.992 0 0 1-.499-.134l-4.353-2.513a1 1 0 0 1 1-1.733l4.353 2.513a1.002 1.002 0 0 1-.501 1.867m-4.821 25.803a1 1 0 0 1-.501-1.866l4.353-2.513a1 1 0 1 1 1 1.732l-4.353 2.514c-.157.09-.33.133-.499.133m13.405-34.584a.998.998 0 0 1-.867-.5l-2.514-4.353a1 1 0 0 1 1.733-1l2.513 4.353a1 1 0 0 1-.865 1.5m39.753 20.718h-5.027a1 1 0 0 1 0-2h5.027a1 1 0 0 1 0 2"/><path fill="#434A4F" d="M211.856 151.691h-5.027a1 1 0 0 1 0-2h5.027a1 1 0 0 1 0 2m-13.908 24.716a1 1 0 0 1-.867-.5l-2.513-4.353a1 1 0 0 1 1.733-1l2.513 4.353a1.002 1.002 0 0 1-.866 1.5m5.684-36.653a1.002 1.002 0 0 1-.501-1.867l4.353-2.513a1 1 0 0 1 1 1.733l-4.353 2.513a.997.997 0 0 1-.499.134m4.82 25.803c-.169 0-.341-.043-.499-.133l-4.352-2.514a1 1 0 1 1 1-1.732l4.352 2.513a1 1 0 0 1-.501 1.866m-13.404-34.584a1 1 0 0 1-.866-1.5l2.514-4.353a1 1 0 0 1 1.732 1l-2.513 4.353a1 1 0 0 1-.867.5"/></g></svg>