<?xml version="1.0" encoding="utf-8"?><svg xmlns="http://www.w3.org/2000/svg" width="250" height="250" viewBox="0 0 250 250"><g fill="none" fill-rule="evenodd"><path fill="#434A4F" d="M38.08 126.638c-.05-.55.35-1.04.9-1.1a1 1 0 0 1 1.09.9.992.992 0 0 1-.89 1.09c-.04 0-.07.01-.1.01-.51 0-.95-.39-1-.9zm.94 4.12c-.18-.52.09-1.1.61-1.28a.998.998 0 0 1 1.28.6 1.011 1.011 0 0 1-.94 1.34c-.41 0-.8-.26-.95-.66zm1.84 3.77c-.29-.47-.14-1.09.33-1.38a.994.994 0 0 1 1.37.33c.29.47.15 1.09-.33 1.38-.16.1-.34.14-.52.14-.34 0-.66-.16-.85-.47zm2.46 3.34a.999.999 0 0 1 .11-1.41.988.988 0 0 1 1.4.11h.01a.999.999 0 1 1-1.52 1.3zm2.88 2.94c-.41-.37-.44-1-.07-1.41a1.01 1.01 0 0 1 1.42-.07c.41.37.44 1.01.07 1.41a1.002 1.002 0 0 1-1.42.07zm3.17 2.6c-.44-.33-.54-.96-.21-1.4.33-.44.96-.54 1.4-.2a.994.994 0 0 1-.6 1.8c-.2 0-.41-.07-.59-.2zm29.46 13h-.01c-.53-.14-.85-.69-.71-1.22.15-.53.69-.85 1.23-.71a1.002 1.002 0 0 1-.26 1.97.73.73 0 0 1-.25-.04zm3.9.98c-.53-.13-.87-.67-.74-1.2.13-.54.66-.87 1.2-.75.54.13.87.67.75 1.21a1.004 1.004 0 0 1-1.21.74zm3.94.87c-.54-.11-.89-.64-.78-1.18.111-.54.64-.89 1.18-.78.54.11.89.64.78 1.18a1.012 1.012 0 0 1-1.18.78zM210 124.998c0-.55.45-1 1-1s1 .45 1 1c0 .56-.45 1-1 1s-1-.44-1-1zm.24 4.91a1 1 0 0 1-.72-1.22c.14-.53.69-.85 1.22-.71.54.13.86.68.72 1.21v.01a1.002 1.002 0 0 1-1.22.71zm-1.65 3.63a.994.994 0 0 1-.42-1.35c.25-.49.85-.68 1.34-.42a.994.994 0 0 1-.46 1.88c-.15 0-.31-.03-.46-.11zm-2.3 3.27c-.43-.34-.52-.97-.18-1.41a1 1 0 0 1 1.59 1.22c-.2.26-.5.39-.8.39-.21 0-.42-.06-.61-.2zm-2.74 2.9c-.39-.4-.39-1.03 0-1.42a.999.999 0 0 1 1.42.01c.38.39.38 1.02-.01 1.41a1.001 1.001 0 0 1-1.41 0zm-3.06 2.57c-.35-.43-.28-1.06.15-1.41.43-.34 1.06-.27 1.41.16a1 1 0 0 1-.16 1.4c-.18.15-.4.22-.62.22-.3 0-.59-.12-.78-.37zm-3.28 2.29c-.31-.46-.18-1.08.27-1.39.46-.3 1.08-.18 1.39.28.31.45.19 1.08-.27 1.38-.17.12-.37.17-.56.17-.32 0-.64-.15-.83-.44zm-3.43 2.06c-.28-.48-.11-1.09.37-1.37a.99.99 0 0 1 1.36.37c.28.48.11 1.09-.36 1.36a.995.995 0 0 1-1.37-.36zm-3.55 1.84a.998.998 0 0 1 .44-1.34c.5-.25 1.1-.05 1.35.44.24.5.05 1.1-.45 1.34-.14.08-.29.11-.45.11-.36 0-.71-.2-.89-.55zm-3.64 1.66c-.22-.5.01-1.09.51-1.32.5-.22 1.09.01 1.32.51a1.006 1.006 0 0 1-.92 1.41c-.38 0-.75-.22-.91-.6zm-3.71 1.5c-.2-.51.05-1.09.57-1.29.51-.2 1.09.05 1.29.56a1.004 1.004 0 0 1-.93 1.37 1 1 0 0 1-.93-.64zm-3.76 1.36a.999.999 0 0 1 .61-1.28c.52-.18 1.09.1 1.28.62.18.52-.1 1.09-.62 1.27a.96.96 0 0 1-.33.06c-.41 0-.8-.26-.94-.67zm-3.81 1.22a.992.992 0 0 1 .65-1.25c.53-.17 1.09.13 1.26.65.16.53-.13 1.09-.66 1.26-.1.03-.2.04-.3.04-.43 0-.82-.27-.95-.7zm-3.85 1.1c-.15-.54.16-1.09.7-1.24.53-.14 1.08.17 1.23.7.14.53-.17 1.09-.7 1.23a.993.993 0 0 1-1.23-.69zm-74.59 4.73a1 1 0 1 1 .14.01c-.05 0-.09 0-.14-.01zm54.98-.82a.99.99 0 0 1 .85-1.13.981.981 0 0 1 1.13.84c.08.55-.3 1.05-.85 1.13-.04.01-.09.01-.14.01a1 1 0 0 1-.99-.85zm-50.99 1.35c-.55-.07-.94-.56-.88-1.11.07-.55.57-.94 1.12-.87.55.06.94.56.87 1.11-.06.51-.5.88-.99.88-.04 0-.08 0-.12-.01zm47.02-.85c-.06-.55.33-1.05.88-1.12.54-.06 1.04.33 1.11.88.06.55-.33 1.04-.88 1.11-.04 0-.08.01-.12.01-.49 0-.93-.38-.99-.88zm-43.02 1.3a1 1 0 0 1-.9-1.1 1 1 0 0 1 1.09-.9c.55.06.95.55.9 1.1a1 1 0 0 1-1 .9h-.09zm39.04-.89a1 1 0 0 1 .9-1.09.986.986 0 0 1 1.09.9.99.99 0 0 1-.89 1.09h-.1a1 1 0 0 1-1-.9zm-35.04 1.24a.997.997 0 0 1-.92-1.07c.04-.55.53-.96 1.08-.92.55.04.96.52.91 1.07-.04.53-.48.93-.99.93-.03 0-.05-.01-.08-.01zm31.06-.91a.983.983 0 0 1 .91-1.07c.55-.04 1.04.37 1.08.92a.997.997 0 0 1-.92 1.07c-.02.01-.05.01-.08.01-.52 0-.95-.4-.99-.93zm-27.05 1.19c-.55-.03-.97-.51-.94-1.06.04-.55.51-.97 1.06-.94.55.03.97.51.94 1.06-.03.53-.47.94-1 .94h-.06zm23.05-.93c-.03-.55.39-1.03.94-1.06a.999.999 0 0 1 1.06.94c.03.55-.39 1.03-.94 1.06h-.06c-.53 0-.97-.41-1-.94zm-19.03 1.12a.995.995 0 0 1-.96-1.03c.02-.55.48-.99 1.04-.96.55.02.98.48.96 1.04-.03.53-.47.96-1 .96-.01 0-.03 0-.04-.01zm15.04-.95a.997.997 0 0 1 .96-1.04.995.995 0 0 1 1.03.96c.02.55-.4 1.02-.96 1.04h-.04c-.53 0-.97-.42-.99-.96zm-11.02 1.07c-.56-.01-1-.46-.98-1.02.01-.55.46-.99 1.01-.98.56.01 1 .47.99 1.02-.02.55-.46.98-1.01.98h-.01zm7.02-.98c-.01-.55.43-1 .98-1.01a.997.997 0 0 1 1.02.98c.01.55-.43 1.01-.99 1.02h-.01a1 1 0 0 1-1-.99zm-4 .02c0-.55.44-1 1-1 .55 0 1 .45 1 1 0 .56-.45 1-1 1-.56 0-1-.45-1-1zm32.59 1.384a.983.983 0 0 0-.193.402C150.407 191.467 138.11 210 125 210a1 1 0 0 0 0 2c13.951 0 26.416-17.765 32.794-46.532l-1.274-3.086"/><path fill="#75C7D0" d="M125.216 151.162c-13.756 0-24.908-11.152-24.908-24.909 0-13.756 11.152-24.908 24.908-24.908 13.757 0 24.909 11.152 24.909 24.908 0 13.757-11.152 24.909-24.909 24.909zM169 127c0-24.3-19.7-44-44-44-24.301 0-44 19.7-44 44 0 24.301 19.699 44 44 44 11.667 0 22.265-4.549 30.14-11.96L150.994 149l9.458 4.054A43.793 43.793 0 0 0 169 127z"/><path fill="#434A4F" d="M125.216 102.345c-13.183 0-23.908 10.725-23.908 23.908 0 13.184 10.725 23.909 23.908 23.909 13.183 0 23.909-10.725 23.909-23.909 0-13.183-10.726-23.908-23.909-23.908zm0 49.817c-14.286 0-25.908-11.623-25.908-25.909 0-14.285 11.622-25.908 25.908-25.908 14.286 0 25.909 11.623 25.909 25.908 0 14.286-11.623 25.909-25.909 25.909z"/><path fill="#434A4F" d="M125.216 102.345c-2.714 0-6.5 9.096-6.5 23.908 0 6.559.765 12.711 2.155 17.325 1.461 4.854 3.203 6.584 4.345 6.584 2.715 0 6.5-9.096 6.5-23.909 0-6.558-.765-12.711-2.154-17.324-1.461-4.854-3.203-6.584-4.346-6.584zm0 49.817c-5.521 0-8.5-13.349-8.5-25.909 0-12.559 2.979-25.908 8.5-25.908s8.5 13.349 8.5 25.908c0 12.56-2.979 25.909-8.5 25.909z"/><path fill="#434A4F" d="M100.308 127.253h49.817v-2h-49.817z"/><path fill="#434A4F" d="M125.216 102.345c-9.098 0-16.5 10.725-16.5 23.908 0 13.184 7.402 23.909 16.5 23.909 9.098 0 16.5-10.725 16.5-23.909 0-13.183-7.402-23.908-16.5-23.908zm0 49.817c-10.201 0-18.5-11.623-18.5-25.909 0-14.285 8.299-25.908 18.5-25.908s18.5 11.623 18.5 25.908c0 14.286-8.299 25.909-18.5 25.909zM78 74.683c-2.206 0-4 1.795-4 4 0 2.206 1.794 4 4 4s4-1.794 4-4c0-2.205-1.794-4-4-4zm0 10c-3.309 0-6-2.691-6-6s2.691-6 6-6 6 2.691 6 6-2.691 6-6 6zm118 91.318c-1.103 0-2 .897-2 1.999 0 1.104.897 2 2 2s2-.896 2-2a2.002 2.002 0 0 0-2-1.999zm0 5.999c-2.206 0-4-1.794-4-4a4.004 4.004 0 0 1 4-3.999c2.206 0 4 1.794 4 3.999 0 2.206-1.794 4-4 4z"/><path fill="#434A4F" d="M39 126a1 1 0 0 1-1-1c0-10.044 9.164-19.413 25.803-26.378 16.362-6.85 38.096-10.621 61.197-10.621 9.652 0 19.129.661 28.167 1.964a1 1 0 1 1-.285 1.98c-8.944-1.29-18.325-1.944-27.882-1.944-46.869 0-85 15.701-85 34.999a1 1 0 0 1-1 1m172 0a1 1 0 0 1-1-1c0-13.1-18.514-25.393-47.167-31.317a1 1 0 1 1 .405-1.959C193.315 97.943 212 110.694 212 125a1 1 0 0 1-1 1"/><path fill="#434A4F" d="M90.3 101.968a.993.993 0 0 1-.87-1.11c.071-.55.571-.94 1.11-.881.55.071.94.571.88 1.121-.07.5-.5.88-1 .88-.04 0-.08 0-.12-.01zm-.42 3.98a.99.99 0 0 1-.89-1.09c.05-.56.54-.96 1.09-.9a1 1 0 0 1 .9 1.09c-.05.52-.49.91-1 .91-.03 0-.06-.01-.1-.01zm-.33 3.99c-.549-.05-.96-.53-.92-1.08a.998.998 0 1 1 1.99.16 1 1 0 0 1-.99.92h-.08zm-.26 3.99a.999.999 0 0 1-.94-1.06c.04-.55.51-.97 1.06-.94.55.04.97.51.94 1.06-.03.53-.47.94-1 .94h-.06zm-.17 4a.997.997 0 0 1-.96-1.04c.02-.55.48-.98 1.03-.96.561.02.99.48.97 1.04-.03.53-.47.96-1 .96h-.04zm-.1 4c-.55-.01-.99-.47-.98-1.02.01-.55.47-.99 1.02-.98.55.01.99.46.98 1.02-.01.54-.45.98-1 .98h-.02zm-1.019 3c0-.56.449-1 1-1 .549 0 1 .44 1 1 0 .55-.451 1-1 1-.551 0-1-.45-1-1zm.039 4.02a.997.997 0 0 1 .98-1.02c.55-.01 1.01.43 1.02.98.01.55-.43 1.01-.99 1.02h-.01c-.55 0-.99-.44-1-.98zm.11 4.01a.995.995 0 0 1 .96-1.03c.55-.02 1.02.41 1.04.96.02.55-.41 1.01-.96 1.04h-.04c-.53 0-.98-.43-1-.97zm.19 4.02c-.03-.55.39-1.02.94-1.06a1 1 0 0 1 1.06.95.996.996 0 0 1-.94 1.05h-.06c-.52 0-.96-.41-1-.94zm.28 4.01a.99.99 0 0 1 .92-1.07.997.997 0 1 1 .15 1.99c-.02 0-.05.01-.08.01-.51 0-.95-.4-.99-.93zm.35 4.01a1 1 0 0 1 .9-1.09.985.985 0 0 1 1.09.89 1 1 0 0 1-.89 1.1h-.1c-.51 0-.95-.39-1-.9zm.44 4c-.06-.55.33-1.05.87-1.12.55-.06 1.05.33 1.12.88.06.55-.33 1.04-.88 1.11-.04.01-.08.01-.12.01-.5 0-.93-.37-.99-.88zm.53 3.99c-.08-.55.3-1.06.85-1.14.54-.07 1.05.3 1.13.85a.99.99 0 0 1-.85 1.13c-.05.01-.1.01-.14.01a1 1 0 0 1-.99-.85zm.61 3.97a1.004 1.004 0 0 1 1.98-.33.998.998 0 0 1-.83 1.15c-.05.01-.11.02-.16.02-.48 0-.91-.35-.99-.84zm.71 3.96c-.1-.54.25-1.06.8-1.17.54-.1 1.06.26 1.17.8a1.005 1.005 0 0 1-.99 1.19c-.47 0-.88-.34-.98-.82zm.81 3.95a.996.996 0 0 1 .76-1.19.991.991 0 0 1 1.19.76.991.991 0 0 1-.76 1.19c-.07.02-.14.03-.21.03-.46 0-.88-.32-.98-.79zm.91 3.92c-.13-.53.2-1.08.73-1.21a1 1 0 0 1 1.21.74.99.99 0 0 1-.73 1.2.993.993 0 0 1-1.21-.73zm1.021 3.9a.996.996 0 0 1 .689-1.23c.54-.15 1.09.17 1.24.7.14.53-.17 1.08-.7 1.23-.09.02-.18.04-.27.04-.44 0-.84-.29-.959-.74zm1.139 3.87a.992.992 0 0 1 .65-1.25c.53-.17 1.09.13 1.26.66.16.52-.13 1.08-.66 1.25-.1.03-.2.04-.3.04-.43 0-.82-.27-.95-.7zm1.26 3.83a.993.993 0 0 1 .62-1.27.996.996 0 0 1 1.27.61c.18.52-.09 1.1-.62 1.28-.11.03-.22.05-.33.05-.41 0-.8-.25-.94-.67zm1.4 3.79c-.2-.51.05-1.1.57-1.3.51-.2 1.09.05 1.29.57.21.51-.05 1.09-.56 1.3-.12.04-.24.07-.36.07-.4 0-.78-.25-.94-.64zm1.56 3.73c-.23-.5 0-1.09.51-1.32.5-.22 1.09.01 1.32.51a1.006 1.006 0 0 1-.92 1.41c-.38 0-.75-.22-.91-.6zm1.73 3.67c-.25-.5-.05-1.1.44-1.35a.99.99 0 0 1 1.34.45.998.998 0 0 1-1.78.9zm1.92 3.57a.999.999 0 1 1 1.73-1c.28.48.11 1.09-.36 1.37-.16.09-.33.13-.5.13-.35 0-.69-.18-.87-.5zm2.15 3.45a.999.999 0 0 1 .27-1.39 1.001 1.001 0 1 1 1.11 1.67c-.17.11-.36.17-.55.17-.32 0-.64-.16-.83-.45zm2.41 3.3a1 1 0 0 1 .15-1.41 1 1 0 1 1 1.25 1.56c-.18.15-.4.22-.62.22-.29 0-.58-.13-.78-.37zm2.72 3.06a.987.987 0 0 1 .01-1.41.996.996 0 0 1 1.41 0c.39.4.39 1.03 0 1.42-.2.19-.45.29-.71.29-.26 0-.51-.1-.71-.3zm3.09 2.74a.992.992 0 0 1-.18-1.4c.33-.44.96-.52 1.4-.19.44.34.52.97.18 1.4a.98.98 0 0 1-1.4.19zm3.51 2.24a.997.997 0 1 1 .92-1.77c.49.25.68.85.43 1.35-.18.34-.53.54-.89.54a.93.93 0 0 1-.46-.12zm3.92 1.52a.996.996 0 0 1-.72-1.22c.14-.53.69-.85 1.22-.72.53.14.85.69.72 1.23a1.014 1.014 0 0 1-1.22.71zm3.19-.46c0-.55.45-1 1-1s1 .45 1 1-.45 1-1 1-1-.45-1-1zm-1.46-171.83a1 1 0 0 1 .9-1.09.992.992 0 0 1 1.09.9c.06.55-.35 1.03-.9 1.09h-.09c-.51 0-.95-.39-1-.9zm-3.83 1.11c-.18-.52.09-1.09.61-1.28a.996.996 0 0 1 1.27.61.998.998 0 0 1-.6 1.28c-.11.03-.23.05-.34.05-.41 0-.79-.25-.94-.66zm-3.5 1.92c-.29-.48-.14-1.09.33-1.38a.992.992 0 0 1 1.37.33c.29.48.14 1.09-.33 1.38-.16.1-.34.14-.52.14-.34 0-.66-.17-.85-.47zm-3.13 2.48a.999.999 0 1 1 1.52-1.3.999.999 0 1 1-1.52 1.3zm-2.77 2.88a.997.997 0 1 1 1.34-1.48c.41.38.44 1.01.07 1.42-.2.21-.47.32-.74.32a.96.96 0 0 1-.67-.26zm-2.47 3.15c-.44-.33-.53-.96-.2-1.4.33-.44.96-.53 1.4-.2.44.33.53.96.2 1.4-.2.26-.5.4-.8.4-.21 0-.42-.07-.6-.2zm-2.2 3.34a.994.994 0 0 1-.31-1.38c.3-.47.91-.61 1.38-.31.47.3.61.91.31 1.38-.19.3-.52.47-.85.47-.18 0-.36-.05-.53-.16zm-1.97 3.48a.998.998 0 1 1 .96-1.75c.48.26.66.87.39 1.35a.994.994 0 0 1-1.35.4zm-1.78 3.58a.99.99 0 0 1-.47-1.33c.24-.5.84-.71 1.34-.47.49.24.7.84.47 1.34-.18.35-.53.56-.91.56-.14 0-.29-.03-.43-.1zm-1.6 3.67a1 1 0 0 1-.53-1.31c.22-.51.8-.741 1.31-.53.51.21.75.8.53 1.31a.998.998 0 0 1-1.31.53zm-1.44 3.73c-.52-.19-.78-.77-.59-1.29.2-.51.77-.78 1.29-.58.52.19.78.77.59 1.29-.16.4-.54.65-.94.65-.12 0-.24-.02-.35-.07zm-1.3 3.79c-.53-.18-.81-.75-.64-1.27.18-.52.75-.81 1.27-.63.52.17.81.74.63 1.26-.14.42-.53.69-.95.69-.1 0-.21-.02-.31-.05zm-1.18 3.82a.993.993 0 0 1-.67-1.24.99.99 0 0 1 1.24-.68c.53.16.83.72.68 1.25a1.005 1.005 0 0 1-1.25.67zm-1.05 3.859a.985.985 0 0 1-.71-1.219.987.987 0 0 1 1.22-.71.997.997 0 1 1-.51 1.929zm-.95 3.891a1.01 1.01 0 0 1-.74-1.21c.13-.53.66-.87 1.2-.74.54.13.87.66.75 1.2-.11.46-.52.77-.98.77-.07 0-.15-.01-.23-.02zm-.84 3.91a.993.993 0 0 1-.77-1.19v.01c.11-.55.64-.89 1.18-.78.54.11.89.64.78 1.18-.1.479-.52.8-.98.8-.07 0-.14-.01-.21-.02z"/><path fill="#75C7D0" d="M197.297 141.014a6.131 6.131 0 1 0 11.67-3.763 6.131 6.131 0 0 0-11.67 3.763"/><path fill="#FACD60" d="M137.297 200.749a6.131 6.131 0 1 0 11.67-3.763 6.131 6.131 0 0 0-11.67 3.763"/><path fill="#75C7D0" d="M59.192 102.256a3.956 3.956 0 1 0 7.53-2.425 3.956 3.956 0 0 0-7.53 2.425"/><path fill="#DBDBD5" d="M189 173.007l-17.511-7.504-.727.437 8.232 8.232-2.828 2.828-8.111-8.111-2.076 4.175 7.248 17.553 4.834-9.72 8.111 8.11 2.828-2.828-8.232-8.232 8.232-4.94"/><path fill="#434A4F" d="M152.854 150.886l10.452 25.308 4.472-8.995 8.388 8.387 1.414-1.414-8.431-8.431 7.654-4.592-23.949-10.263zm10.283 30.139l-14.003-33.91 32.052 13.737-8.811 5.286 8.033 8.034-4.242 4.243-7.835-7.835-5.194 10.445z"/><path fill="#42494E" d="M59.33 146.799a6.135 6.135 0 0 0 3.936 7.692 6.136 6.136 0 0 0 7.719-3.908 6.134 6.134 0 0 0-3.941-7.677 6.088 6.088 0 0 0-4.676.363 6.084 6.084 0 0 0-3.038 3.53zm5.83 9.994c-.833 0-1.68-.129-2.514-.401-4.238-1.382-6.571-5.938-5.228-10.18a.3.3 0 0 1 .011-.032l.01-.034c1.415-4.218 5.986-6.523 10.225-5.142 4.238 1.382 6.572 5.937 5.229 10.179l-.001.002-.004.013-.017.052c-1.137 3.389-4.31 5.543-7.711 5.543z"/><path fill="#42494E" d="M64.113 163.997l2.073.003.001-1.232a3.494 3.494 0 0 1 2.454-3.37 3.494 3.494 0 0 1 3.962 1.292l.723.998 1.678-1.217-.723-.997a3.492 3.492 0 0 1 .005-4.168 3.492 3.492 0 0 1 3.965-1.284l1.171.382.621-1.906-1.171-.382a3.49 3.49 0 0 1-2.446-3.374 3.492 3.492 0 0 1 2.452-3.369l1.173-.38-.639-1.972-1.172.38a3.492 3.492 0 0 1-3.963-1.292 3.492 3.492 0 0 1 .004-4.167l.726-.996-1.676-1.22-.725.996a3.493 3.493 0 0 1-3.965 1.284 3.494 3.494 0 0 1-2.447-3.375l.002-1.231-2.073-.003-.001 1.232a3.492 3.492 0 0 1-2.453 3.37c-1.489.48-3.044-.025-3.963-1.292l-.723-.998-1.678 1.217.723.998a3.49 3.49 0 0 1-.004 4.167 3.49 3.49 0 0 1-3.965 1.284l-1.171-.381-.621 1.903 1.171.382a3.495 3.495 0 0 1 2.447 3.375 3.493 3.493 0 0 1-2.454 3.369l-1.172.379.639 1.972 1.172-.379a3.493 3.493 0 0 1 3.962 1.292 3.49 3.49 0 0 1-.005 4.168l-.724.995 1.675 1.22.726-.996a3.492 3.492 0 0 1 3.964-1.283 3.493 3.493 0 0 1 2.447 3.374l-.002 1.232zm4.071 2.004l-6.073-.006.004-3.232c.001-.828-.551-1.303-1.067-1.471-.514-.168-1.24-.11-1.728.56l-1.903 2.612-4.908-3.574 1.902-2.613c.487-.669.32-1.377.002-1.817-.319-.439-.941-.818-1.727-.563l-3.075.996-1.87-5.777 3.074-.996c.788-.255 1.069-.926 1.07-1.468 0-.543-.28-1.214-1.067-1.471l-3.072-1.002 1.86-5.707 3.073 1.002c.787.255 1.409-.12 1.728-.56.32-.438.488-1.146.002-1.816l-1.897-2.617 4.916-3.564 1.898 2.616c.486.671 1.211.73 1.727.563.516-.167 1.068-.641 1.069-1.469l.003-3.231 6.073.006-.004 3.231c-.001.828.551 1.303 1.067 1.471.515.17 1.241.11 1.728-.559l1.903-2.613 4.909 3.574-1.903 2.613c-.487.669-.32 1.377-.002 1.816.319.44.939.818 1.728.564l3.074-.996 1.871 5.777-3.074.995c-.788.256-1.069.926-1.069 1.469-.001.543.279 1.214 1.066 1.471l3.072 1.002-1.861 5.709-3.073-1.002c-.786-.254-1.408.12-1.728.559-.319.439-.487 1.146-.002 1.817l1.897 2.617-4.916 3.563-1.897-2.616c-.486-.67-1.213-.732-1.727-.563-.517.167-1.069.641-1.07 1.469l-.003 3.231z"/><path fill="#434A4F" d="M213 75.001h2v-4h-2zM213 85h2v-4h-2zM217 79.001h4v-2h-4zM207 79.001h4v-2h-4zM35 163h2v-4h-2zM35 173h2v-4h-2zM39 167h4v-2h-4zM29 167h4v-2h-4zM203 199h2v-4h-2zM203 209h2v-4h-2zM207 203h4v-2h-4zM197 203h4v-2h-4zM158.164 152.073l1.908.818C161.35 143.931 162 134.55 162 125c0-23.101-3.772-44.835-10.622-61.198-6.965-16.639-16.333-25.803-26.378-25.803a1 1 0 0 0 0 2c19.299 0 35 38.131 35 85.001 0 9.266-.621 18.368-1.836 27.073"/></g></svg>