<?xml version="1.0" encoding="utf-8"?><svg xmlns="http://www.w3.org/2000/svg" xmlns:xlink="http://www.w3.org/1999/xlink" width="192" height="173" viewBox="0 0 192 173"><defs><path id="ira" d="M.634.5H150v170.127H.634z"/><path id="irc" d="M.183.17h171.708v131.857H.183z"/><path id="ire" d="M0 0h16v15.94H0z"/></defs><g fill="none" fill-rule="evenodd"><path fill="#F58E70" d="M132.331 55.349L94 18.349l-37 37h20.007v48.972h33.985V55.349h21.339M28 135v-2h-6v2h-2v-2h-6v2h-2v6h2v2h2v2h2v2h2v2h2v-2h2v-2h2v-2h2v-2h2v-6h-2M164 49h2v-6h-2zM166 43h6v-2h-6zM172 45h2v-2h-2zM174 43h6v-2h-6zM180 49h2v-6h-2zM166 51h2v-2h-2zM168 53h2v-2h-2zM170 55h2v-2h-2zM172 57h2v-2h-2zM174 55h2v-2h-2zM176 53h2v-2h-2z"/><g transform="translate(30)"><mask id="irb" fill="#fff"><use xlink:href="#ira"/></mask><path fill="#F58E70" mask="url(#irb)" d="M148 51h2v-2h-2z"/><path fill="#5FE0ED" d="M15.021 87.957C6.803 72.044 6.5 53.529 14.214 38.432A53.906 53.906 0 0 1 26.943 22.15c21.035-18.194 52.236-18.194 73.272-.001a54.969 54.969 0 0 1 2.116 1.949 54.939 54.939 0 0 1 3.111 3.108 41.738 41.738 0 0 1 9.271 16.96c.185.654.333 1.317.488 1.978h8.185a52.183 52.183 0 0 0-.995-4.236 49.679 49.679 0 0 0-11.072-20.137 62.909 62.909 0 0 0-3.494-3.494 61.218 61.218 0 0 0-2.365-2.175c-24.046-20.803-59.717-20.803-83.762 0A61.887 61.887 0 0 0 7.085 34.791c-8.884 17.39-8.576 38.637.825 56.84 2.704 5.236 5.181 12.46 7.269 20.8h8.257c-2.341-9.755-5.214-18.276-8.415-24.474" mask="url(#irb)"/><path fill="#48515A" d="M87.394 170.627l-3.112-24.357a7.211 7.211 0 0 1 7.203-7.203h18.471a6.878 6.878 0 0 0 6.86-6.856l.017-6.701a4.866 4.866 0 0 1 .878-2.76 7.23 7.23 0 0 0 .826-1.77c.019-.431.002-2.316-.026-3.999l-.007-.412 2.78-2.89-1.34-2.68v-.236a4.323 4.323 0 0 1 2.805-4.052l.154-.051h4.024a3.418 3.418 0 0 0 2.657-1.127 3.238 3.238 0 0 0 .479-3.478c-2.139-4.583-7.392-16.153-9.948-24.603a16.7 16.7 0 0 1-.75-5.22l-.004-16.249a46.316 46.316 0 0 0-1.76-12.637 44.742 44.742 0 0 0-9.955-18.179 58.945 58.945 0 0 0-3.28-3.277 57.434 57.434 0 0 0-2.183-2.008C80.018.708 47.139.708 24.975 19.882A56.892 56.892 0 0 0 11.54 37.067c-8.152 15.956-7.848 35.496.814 52.268 8.336 16.141 14.394 48.559 14.403 77.082l.102 4.058-2 .05-.102-4.082c-.009-28.267-5.973-60.299-14.18-76.19-8.957-17.344-9.263-37.566-.818-54.096a58.87 58.87 0 0 1 13.905-17.786c22.917-19.826 56.912-19.826 79.829 0a59.295 59.295 0 0 1 2.245 2.064 60.733 60.733 0 0 1 3.377 3.375 46.665 46.665 0 0 1 10.389 18.918 48.428 48.428 0 0 1 1.857 13.255l.004 16.272a14.751 14.751 0 0 0 .664 4.618c2.518 8.326 7.725 19.792 9.847 24.336a5.219 5.219 0 0 1-.759 5.609 5.41 5.41 0 0 1-4.19 1.842h-3.68a2.324 2.324 0 0 0-1.292 1.888l1.749 3.5-3.186 3.313c.059 3.765.012 3.929-.034 4.087a9.118 9.118 0 0 1-1.057 2.329 2.96 2.96 0 0 0-.594 1.741l-.017 6.699a8.883 8.883 0 0 1-8.86 8.85H91.485a5.21 5.21 0 0 0-5.203 5.142l3.096 24.164-1.984.254" mask="url(#irb)"/></g><path fill="#2B2B2B" d="M145.675 120.068l.003-.007-.003.007"/><path fill="#48515A" d="M6 99.5h2v-4H6zM6 109.5h2v-4H6zM10 103.5h4v-2h-4zM0 103.5h4v-2H0zM150 5h2V1h-2zM150 15h2v-4h-2zM154 9h4V7h-4zM144 9h4V7h-4z"/><path fill="#5FE0ED" d="M178 88.455a3.317 3.317 0 1 1 0 6.634 3.317 3.317 0 0 1 0-6.634"/><g transform="translate(20 20)"><mask id="ird" fill="#fff"><use xlink:href="#irc"/></mask><path fill="#5FE0ED" d="M3.5.17a3.317 3.317 0 1 1 0 6.634A3.317 3.317 0 0 1 3.5.17" mask="url(#ird)"/><path fill="#48515A" d="M158.142 102.003l-10.729 7.387a.972.972 0 0 0-.413.807l.04 11.711a.966.966 0 0 0 .419.803l10.779 7.314.511-.002 10.728-7.387a.97.97 0 0 0 .414-.806l-.04-11.712a.974.974 0 0 0-.419-.803l-10.78-7.314-.51.002zm-.515 30.024l-11.291-7.66a2.968 2.968 0 0 1-1.296-2.452l-.04-11.712a2.97 2.97 0 0 1 1.278-2.46l11.239-7.738 1.747-.006 11.291 7.661a2.976 2.976 0 0 1 1.296 2.45l.04 11.713a2.972 2.972 0 0 1-1.28 2.461l-11.237 7.737-1.747.006z" mask="url(#ird)"/></g><path fill="#48515A" d="M178.468 138.804l-12.918-8.37 1.088-1.679 11.797 7.644 11.844-8.156 1.135 1.647-12.946 8.914"/><path fill="#48515A" d="M177.451 137.605l2-.007.045 13.301-2 .007-.045-13.301M169.452 138.055l2-.008.008 2-2 .008-.008-2M173.459 140.031l2-.008.008 2-2 .008-.008-2M183.454 138.997l2-.008.008 2-2 .008-.008-2M173.417 128.031l2-.008.008 2-2 .008-.008-2M177.417 128.018l2-.008.008 2-2 .008-.008-2M181.417 128.004l2-.008.008 2-2 .008-.008-2M73.999 136h6v-9.001h9.002v-6.001h-9.002V112h-6v8.999L65 121v6l8.999-.001V136zm8 2h-10v-9.001L63 129v-10l8.999-.001V110h10v8.999l9.002-.001v10.001h-9.002V138z"/><path fill="#48515A" d="M76.001 116h2v-2h-2zM76.001 134.011h2v-2h-2zM66.996 125.006h2v-2h-2zM85.007 125.006h2v-2h-2zM77.001 123a1 1 0 1 0 0 2 1 1 0 0 0 0-2zm0 4a3 3 0 1 1 0-6 3 3 0 0 1 0 6z"/><g transform="translate(92 157)"><mask id="irf" fill="#fff"><use xlink:href="#ire"/></mask><path fill="#FFD15D" d="M8 4a4 4 0 1 1 0 8 4 4 0 0 1 0-8" mask="url(#irf)"/><path fill="#FFD15D" d="M8 14a6 6 0 1 1 6-6 6.007 6.007 0 0 1-6 6zM8 0a8 8 0 1 0 0 16A8 8 0 0 0 8 0z" mask="url(#irf)"/></g><path fill="#FFD15D" d="M24 113.359l3 2.925-.708 4.129 3.708-1.95 3.708 1.95-.708-4.129 3-2.925-4.146-.602L30 109l-1.854 3.757zM160 71.359l3 2.924-.708 4.13 3.708-1.95 3.708 1.95-.708-4.13 3-2.924-4.146-.602L166 67l-1.854 3.757z"/></g></svg>