<?xml version="1.0" encoding="utf-8"?><svg xmlns="http://www.w3.org/2000/svg" xmlns:xlink="http://www.w3.org/1999/xlink" width="193" height="157" viewBox="0 0 193 157"><defs><path id="qza" d="M.986.001H144.01V34.94H.986z"/></defs><g fill="none" fill-rule="evenodd"><path fill="#DEDEDD" d="M157.993 126.778V117h-21.001v6h10.496a16.435 16.435 0 0 1 10.505 3.778"/><path fill="#F58E70" d="M136.992 38.952h21.001v-18h-21.001z"/><path fill="#5FE0ED" d="M136.992 62.964h21.001v-18h-21.001z"/><path fill="#475059" d="M137.992 85.977h19.001v-16h-19.001v16zm-2 2h23.001v-20h-23.001v20z"/><path fill="#FFD15D" d="M136.992 110.988h21.001v-18h-21.001z"/><path fill="#475059" d="M164.994 139.502h-2V15.999h-31v107.493h-2V13.999h35v125.503"/><path fill="#475059" d="M127.992 123.245h-2V13.999h4.986v2h-2.986v107.246"/><path fill="#475059" d="M123.99 122.746h-2V13.999h4.985v2h-2.985v106.747"/><path fill="#475059" d="M119.987 122.494h-2V13.999h4.986v2h-2.986v106.495M103.69 101.454l-3.417 3.624a4.697 4.697 0 1 0 6.834 0l-3.417-3.624zm0 13.542a6.696 6.696 0 0 1-4.872-11.29l4.872-5.167 4.873 5.167a6.697 6.697 0 0 1-4.873 11.29zM40.234 23.257a8.993 8.993 0 0 0-6.363 15.357l18.99 18.99 12.726-12.726-18.99-18.99a8.966 8.966 0 0 0-6.363-2.631zm12.627 37.175L32.456 40.028c-4.291-4.298-4.286-11.262.013-15.554 4.294-4.287 11.248-4.287 15.542 0l20.404 20.404-15.554 15.554zM99.63 98.719l-5.706-5.706a7.002 7.002 0 0 1-9.14-.657L55.57 63.141l1.414-1.414 29.214 29.214a4.999 4.999 0 0 0 7.069 0l.707-.707 5.656 5.657 4.242-4.242-5.765-5.765.866-.649a4.999 4.999 0 0 0-.048-7.02L69.71 49.001l1.414-1.414 29.215 29.214a7.009 7.009 0 0 1 .655 9.141l5.706 5.707-7.07 7.07"/><path fill="#475059" d="M49.44 64.09l1.415 1.414 22.627-22.627-1.414-1.415L49.44 64.09zm1.415 4.242l-4.243-4.242 25.456-25.456 4.243 4.243-25.456 25.455z"/><path fill="#FFD15D" d="M97.632 83.741a3.004 3.004 0 0 0-.121-4.112l-7.634-7.633H70.081l17.531 17.531a3.07 3.07 0 0 0 4.241 0l2.121-2.121 5.656 5.656 1.413-1.413-5.981-5.981 2.57-1.927m6.058 20.628l-1.961 2.081a2.684 2.684 0 0 0 .055 3.757 2.762 2.762 0 0 0 3.813 0 2.684 2.684 0 0 0 .055-3.757l-1.962-2.081"/><path fill="#F58E70" d="M40.234 25.255A6.997 6.997 0 0 0 35.285 37.2l17.576 17.576 9.898-9.898-17.576-17.576a6.981 6.981 0 0 0-4.949-2.047"/><path fill="#48515A" d="M184.107 130h2v-4h-2zM184.107 140h2v-4h-2zM188.107 134h4v-2h-4zM178.107 134h4v-2h-4zM6 82.962h2v-4H6zM6 92.962h2v-4H6zM10 86.962h4v-2h-4zM0 86.962h4v-2H0zM99.976 4.006h2v-4h-2zM99.976 14.006h2v-4h-2zM103.976 8.006h4v-2h-4zM93.976 8.006h4v-2h-4z"/><path fill="#5FE0ED" d="M29.994 66.999a4 4 0 1 1 0 8 4 4 0 0 1 0-8"/><path fill="#F58E70" d="M11.97 133.976a2 2 0 1 1 .001 3.999 2 2 0 0 1-.001-3.999M177.994 67.97a2 2 0 1 1 .001 3.999 2 2 0 0 1-.001-3.999"/><path fill="#475059" d="M6.917 115h27.07V87.93L6.917 115zm29.07 2h-32v-1.898L34.09 85h1.897v32z"/><path fill="#475059" d="M20.95 109.194h7.231v-7.232l-7.231 7.232zm9.231 2H16.122l14.059-14.06v14.06z"/><path fill="#F58E70" d="M28.939 150.002h18v-21h-18z"/><path fill="#5FE0ED" d="M52.951 150.002h18v-21h-18z"/><path fill="#475059" d="M77.963 149.002h16v-19h-16v19zm-2 2h20v-23h-20v23z"/><path fill="#FFD15D" d="M100.976 150.002h18v-21h-18z"/><g transform="translate(21 122)"><mask id="qzb" fill="#fff"><use xlink:href="#qza"/></mask><path fill="#DEDEDD" mask="url(#qzb)" d="M103.988 28.002h16v-21h-16z"/><path fill="#475059" d="M2.986 33h123.502c8.56.011 15.509-6.919 15.52-15.48.011-8.56-6.919-15.508-15.479-15.519H2.986V33zm123.502 2H.986V.001h125.502c9.665-.012 17.51 7.813 17.522 17.477.012 9.665-7.813 17.51-17.478 17.522h-.044z" mask="url(#qzb)"/></g></g></svg>