<?xml version="1.0" encoding="utf-8"?><svg xmlns="http://www.w3.org/2000/svg" width="250" height="250" viewBox="0 0 250 250"><g fill="none" fill-rule="evenodd"><path fill="#DFE0E0" d="M126.021 137.066a9.065 9.065 0 1 1 9.064-9.064 9.073 9.073 0 0 1-9.064 9.064zm1-20.078V92.776h-2v24.212c-6.079.545-10.565 5.914-10.021 11.993a11.057 11.057 0 0 0 2.527 6.1l-27.439 27.44 1.414 1.414 27.439-27.44c4.691 3.913 11.665 3.282 15.578-1.408 3.912-4.691 3.281-11.665-1.409-15.577a11.056 11.056 0 0 0-6.089-2.522z"/><path fill="#5FE0ED" d="M124.113 80.014h-1.154V93.86h1.154c17.206 0 31.153 13.949 31.153 31.154s-13.948 31.153-31.154 31.153c-17.205-.001-31.153-13.949-31.152-31.154a31.154 31.154 0 0 1 9.123-22.027l5.875 5.875v-20.77H87.189l5.104 5.104c-17.573 17.574-17.572 46.067.003 63.639 17.574 17.573 46.066 17.572 63.639-.002 17.572-17.574 17.571-46.067-.003-63.639a44.997 44.997 0 0 0-31.819-13.179"/><path fill="#DFE0E0" d="M199.02 125c0-40.869-33.131-74-74-74s-74 33.131-74 74c0 1.007.036 2.005.076 3.002 1.606-39.665 34.227-70.995 73.924-70.998 39.698.003 72.319 31.333 73.924 70.998.04-.997.076-1.995.076-3.002"/><path fill="#48515A" d="M125.02 48c-42.525 0-77 34.474-77 77s34.475 77 77 77c42.526 0 77-34.474 77-77-.048-42.506-34.494-76.952-77-77zm0 156c-43.63 0-78.999-35.369-78.999-79 0-43.63 35.369-79 78.999-79 43.631 0 79 35.37 79 79-.049 43.61-35.39 78.951-79 79z"/><path fill="#48515A" d="M123.113 80.679h2V60.55h-2zM122.927 189.857h2v-20.129h-2zM169.704 124.063h20.129v-2h-20.129zM59.601 126H79.73v-2H59.601zM171.876 96.498l8.716-5.032 1 1.733-8.716 5.031-1-1.732M67.449 155.135l8.716-5.031 1 1.732-8.716 5.031-1-1.732M152.79 77.77l5.032-8.717 1.732 1-5.031 8.717-1.733-1M92.195 181.061l5.031-8.717 1.733 1-5.032 8.717-1.732-1M92.382 69.126l1.732-1 5.032 8.717-1.732 1-5.032-8.717M152.623 172.272l1.732-1 5.033 8.716-1.733 1-5.032-8.716M69.49 91.407l1-1.733 8.717 5.033-1 1.732-8.717-5.032M173.709 150.106l1-1.733 8.716 5.033-1 1.732-8.716-5.032"/><path fill="#F58E70" d="M124.02 118a7 7 0 1 1 0 14 7 7 0 0 1 0-14"/><path fill="#48515A" d="M123.019 114.936h2V89.774h-2zM89.088 159.518l27.677-27.677 1.414 1.415-27.677 27.676-1.414-1.414M123.06 62.03l-.06-1.999a64.559 64.559 0 0 1 2.02-.031h.161v2h-.161c-.656 0-1.309.01-1.96.03zm6.035.1a63.51 63.51 0 0 0-1.958-.095l.068-1.999c.674.023 1.346.055 2.017.098l-.127 1.996zm-9.945.14l-.183-1.992a63.856 63.856 0 0 1 2.015-.154l.121 1.996c-.653.04-1.304.09-1.953.15zm13.843.23a58.806 58.806 0 0 0-1.947-.215l.189-1.992c.673.064 1.343.138 2.01.223l-.252 1.984zm-17.728.251l-.309-1.976a59.858 59.858 0 0 1 2.002-.28l.246 1.985c-.65.08-1.297.17-1.939.271zm21.598.36a67.637 67.637 0 0 0-1.931-.336l.314-1.976c.667.107 1.331.222 1.99.347l-.373 1.965zm-25.449.362l-.432-1.953c.658-.145 1.318-.28 1.982-.404l.369 1.966c-.644.121-1.283.251-1.919.391zm29.273.49a59.426 59.426 0 0 0-1.906-.456l.436-1.952c.658.147 1.313.304 1.966.47l-.496 1.938zm-33.069.471l-.553-1.922a66.774 66.774 0 0 1 1.953-.527l.49 1.939c-.634.161-1.264.331-1.89.51zm36.83.618c-.619-.2-1.243-.392-1.872-.574l.557-1.921c.648.188 1.292.386 1.932.593l-.617 1.902zm-40.567.581l-.672-1.884a64.723 64.723 0 0 1 1.922-.65l.611 1.904a64.55 64.55 0 0 0-1.861.63zm44.254.742a65.028 65.028 0 0 0-1.833-.69l.676-1.882c.634.228 1.265.465 1.891.712l-.734 1.86zm-47.911.692l-.787-1.838a66.413 66.413 0 0 1 1.875-.769l.73 1.862c-.61.239-1.216.488-1.818.745zm51.498.854a63.342 63.342 0 0 0-1.783-.801l.791-1.837c.619.267 1.232.542 1.839.827l-.847 1.811zm-55.055.805l-.902-1.786c.602-.304 1.21-.599 1.822-.884l.846 1.812c-.595.277-1.184.563-1.766.858zm58.539.963a57.914 57.914 0 0 0-1.729-.911l.905-1.784c.599.304 1.194.618 1.785.94l-.961 1.755zm-61.987.914l-1.01-1.727c.582-.34 1.169-.672 1.762-.995l.957 1.757c-.575.313-1.145.634-1.709.965zm65.358 1.067a64.021 64.021 0 0 0-1.67-1.017l1.012-1.724c.582.341 1.157.691 1.725 1.05l-1.067 1.691zm-68.679 1.02l-1.115-1.66a71.219 71.219 0 0 1 1.696-1.103l1.065 1.694a65.17 65.17 0 0 0-1.646 1.069zm71.921 1.168a64.592 64.592 0 0 0-1.604-1.119l1.119-1.658c.559.377 1.11.762 1.655 1.155l-1.17 1.622zm-75.104 1.121l-1.217-1.588c.536-.41 1.078-.812 1.624-1.205l1.168 1.624a61.65 61.65 0 0 0-1.575 1.169zm78.207 1.265a69.354 69.354 0 0 0-1.533-1.218l1.22-1.584c.533.411 1.059.829 1.58 1.255l-1.267 1.547zM83.679 77.46l-1.313-1.51c.51-.443 1.025-.877 1.546-1.303l1.266 1.549a62.18 62.18 0 0 0-1.499 1.264zm84.194 1.359c-.48-.444-.965-.88-1.457-1.31l1.314-1.508c.508.443 1.009.893 1.502 1.352l-1.359 1.466zm-87.067 1.303l-1.405-1.425c.481-.472.968-.938 1.461-1.396l1.36 1.467c-.479.444-.951.895-1.416 1.354zm89.853 1.449a58.258 58.258 0 0 0-1.372-1.397l1.404-1.425c.481.474.953.955 1.417 1.443l-1.449 1.379zm-92.555 1.384l-1.491-1.334c.449-.502.907-.997 1.372-1.484l1.448 1.381c-.452.472-.895.951-1.329 1.437zm95.168 1.537a58.13 58.13 0 0 0-1.284-1.48l1.491-1.335c.45.503.891 1.012 1.325 1.529l-1.532 1.286zm-97.694 1.459l-1.568-1.243c.419-.527.844-1.048 1.277-1.563l1.529 1.288c-.42.5-.832 1.006-1.238 1.518zm100.123 1.618a61.567 61.567 0 0 0-1.19-1.557l1.57-1.239c.418.53.827 1.066 1.228 1.608l-1.608 1.188zM73.248 89.092l-1.643-1.139c.384-.554.777-1.101 1.178-1.641l1.606 1.191a68.584 68.584 0 0 0-1.141 1.589zm104.687 1.701a67.017 67.017 0 0 0-1.093-1.629l1.644-1.139c.384.554.759 1.114 1.126 1.68l-1.677 1.088zm-106.819 1.58l-1.709-1.038c.349-.575.706-1.144 1.072-1.708l1.678 1.089a72.093 72.093 0 0 0-1.041 1.657zm108.848 1.777a65.091 65.091 0 0 0-.989-1.695l1.711-1.035c.349.577.689 1.16 1.02 1.749l-1.742.981zm-110.77 1.627l-1.771-.929c.312-.596.634-1.187.964-1.771l1.742.983c-.32.567-.632 1.139-.935 1.717zm112.586 1.851a63.789 63.789 0 0 0-.882-1.753l1.774-.926c.312.598.615 1.202.909 1.81l-1.801.869zM67.486 99.292l-1.824-.818c.275-.615.56-1.224.853-1.828l1.798.875c-.285.585-.56 1.176-.827 1.771zm115.891 1.924a62.763 62.763 0 0 0-.771-1.806l1.827-.814c.275.615.54 1.237.796 1.864l-1.852.756zM66.001 102.91l-1.873-.702c.237-.632.484-1.26.739-1.882l1.85.76a61.024 61.024 0 0 0-.716 1.824zm118.745 1.989c-.21-.622-.429-1.24-.656-1.853l1.875-.697c.234.632.459 1.27.676 1.911l-1.895.639zm-120.001 1.719l-1.914-.582c.196-.646.403-1.288.619-1.925l1.895.643c-.21.617-.41 1.239-.6 1.864zm121.134 2.036a63.284 63.284 0 0 0-.536-1.883l1.914-.579c.194.644.379 1.293.554 1.945l-1.932.517zm-122.158 1.745l-1.946-.461c.156-.657.321-1.31.497-1.959l1.93.522c-.17.629-.33 1.262-.481 1.898zm123.052 2.069a60.944 60.944 0 0 0-.417-1.916l1.948-.454c.153.654.297 1.312.43 1.973l-1.961.397zm-123.838 1.768l-1.97-.338c.114-.666.239-1.328.374-1.987l1.959.401a60.996 60.996 0 0 0-.363 1.924zm124.495 2.094a63.9 63.9 0 0 0-.298-1.935l1.97-.337c.114.663.216 1.329.308 1.998l-1.98.274zm-125.038 1.787l-1.989-.217c.074-.672.157-1.34.25-2.005l1.981.277c-.09.645-.171 1.294-.242 1.945zm125.45 2.108a62.804 62.804 0 0 0-.177-1.951l1.988-.212c.072.668.132 1.339.183 2.013l-1.994.15zM62.09 122.022l-1.998-.094a70.34 70.34 0 0 1 .125-2.016l1.994.154c-.05.649-.09 1.301-.121 1.956zm125.925 2.117a66.979 66.979 0 0 0-.056-1.96l1.998-.086c.028.671.049 1.344.057 2.019l-1.999.027zM60.027 125.97a62.552 62.552 0 0 1 .002-2.023l2 .034a57.61 57.61 0 0 0-.002 1.958l-2 .031zm129.918 2.182l-1.998-.094c.032-.651.053-1.304.064-1.96l2 .035a67.39 67.39 0 0 1-.066 2.019zm-129.734 1.853a64.131 64.131 0 0 1-.122-2.016l1.998-.091c.029.654.068 1.306.118 1.957l-1.994.15zm129.417 2.177l-1.988-.219c.071-.647.132-1.296.183-1.949l1.994.155a63.474 63.474 0 0 1-.189 2.013zm-128.985 1.842a63.056 63.056 0 0 1-.248-2.005l1.989-.214c.07.651.15 1.299.239 1.944l-1.98.275zm128.418 2.16l-1.97-.343c.111-.641.213-1.286.304-1.934l1.981.279c-.095.669-.2 1.335-.315 1.998zm-127.738 1.824a65.035 65.035 0 0 1-.372-1.987l1.971-.337c.111.645.232 1.287.361 1.925l-1.96.399zm126.924 2.134l-1.945-.464c.151-.634.293-1.272.425-1.913l1.959.405a67.801 67.801 0 0 1-.439 1.972zM62.25 141.943a63.146 63.146 0 0 1-.495-1.961l1.947-.458c.15.636.309 1.269.48 1.898l-1.932.521zm124.936 2.099l-1.912-.584c.191-.624.372-1.252.544-1.883l1.93.525a65.652 65.652 0 0 1-.562 1.942zm-123.76 1.775a58.654 58.654 0 0 1-.619-1.932l1.914-.58c.19.628.39 1.252.599 1.871l-1.894.641zm122.458 2.052l-1.871-.704c.229-.611.449-1.225.66-1.844l1.892.644a59.773 59.773 0 0 1-.681 1.904zm-121.04 1.747a65.335 65.335 0 0 1-.739-1.888l1.873-.7c.23.614.469 1.224.717 1.83l-1.851.758zm119.502 1.984l-1.825-.819c.266-.593.523-1.191.772-1.793l1.85.761a63.249 63.249 0 0 1-.797 1.851zm-117.851 1.715a60.096 60.096 0 0 1-.855-1.837l1.826-.815c.267.598.543 1.191.828 1.779l-1.799.873zm116.086 1.909l-1.77-.93c.303-.577.598-1.158.884-1.745l1.797.878a65.76 65.76 0 0 1-.911 1.797zm-114.207 1.677a67.635 67.635 0 0 1-.967-1.778l1.772-.928c.303.58.616 1.155.937 1.724l-1.742.982zm112.218 1.833l-1.709-1.039c.339-.557.669-1.119.99-1.687l1.74.987a65.375 65.375 0 0 1-1.021 1.739zm-110.119 1.628a65.684 65.684 0 0 1-1.077-1.713l1.711-1.037c.339.559.687 1.113 1.043 1.661l-1.677 1.089zm107.916 1.753l-1.641-1.143c.373-.535.738-1.076 1.094-1.623l1.676 1.092a70.984 70.984 0 0 1-1.129 1.674zm-105.61 1.57c-.4-.541-.793-1.089-1.178-1.643l1.642-1.141c.373.538.754 1.069 1.144 1.594l-1.608 1.19zm103.2 1.67l-1.567-1.243c.406-.511.804-1.029 1.193-1.553l1.604 1.195c-.402.54-.813 1.074-1.23 1.601zm-100.691 1.501a71.334 71.334 0 0 1-1.277-1.565l1.568-1.241c.406.513.82 1.019 1.24 1.519l-1.531 1.287zm98.086 1.584l-1.488-1.337c.436-.485.865-.977 1.286-1.477l1.529 1.291a66.02 66.02 0 0 1-1.327 1.523zm-95.386 1.426a66.314 66.314 0 0 1-1.372-1.483l1.489-1.336c.436.487.88.966 1.331 1.438l-1.448 1.381zm92.593 1.494l-1.402-1.426c.466-.457.924-.922 1.376-1.395l1.445 1.382c-.466.488-.939.967-1.419 1.439zm-89.715 1.342a66.356 66.356 0 0 1-1.46-1.395l1.403-1.425c.465.458.938.909 1.417 1.354l-1.36 1.466zm86.745 1.4l-1.31-1.509c.493-.429.98-.865 1.461-1.309l1.355 1.471a66.34 66.34 0 0 1-1.506 1.347zm-83.697 1.252a71.256 71.256 0 0 1-1.544-1.302l1.313-1.509c.492.428.991.849 1.497 1.262l-1.266 1.549zm80.565 1.304l-1.215-1.589a62.126 62.126 0 0 0 1.538-1.215l1.263 1.551c-.522.426-1.051.843-1.586 1.253zm-77.36 1.153a59.714 59.714 0 0 1-1.623-1.204l1.219-1.587c.516.397 1.04.787 1.57 1.168l-1.166 1.623zm74.07 1.204l-1.113-1.661c.543-.364 1.08-.737 1.611-1.117l1.166 1.625c-.548.393-1.103.777-1.664 1.153zm-70.722 1.05a66.319 66.319 0 0 1-1.693-1.101l1.118-1.659c.54.364 1.086.719 1.639 1.067l-1.064 1.693zm67.295 1.099l-1.01-1.727a68.11 68.11 0 0 0 1.68-1.016l1.06 1.695c-.571.358-1.148.707-1.73 1.048zm-63.816.941a61.476 61.476 0 0 1-1.756-.993l1.012-1.725c.562.329 1.129.65 1.701.963l-.957 1.755zm60.256.991l-.898-1.786a65.278 65.278 0 0 0 1.74-.911l.953 1.758c-.593.322-1.191.635-1.795.939zm-56.657.828a59.494 59.494 0 0 1-1.814-.882l.903-1.785c.581.294 1.166.579 1.757.855l-.846 1.812zm52.983.879l-.785-1.839a65.603 65.603 0 0 0 1.794-.799l.842 1.814c-.611.283-1.228.558-1.851.824zm-49.281.712a61.122 61.122 0 0 1-1.863-.767l.789-1.837c.598.256 1.2.504 1.806.743l-.732 1.861zm45.506.762l-.668-1.884c.617-.22 1.23-.448 1.84-.686l.728 1.862c-.629.246-1.262.482-1.9.708zm-41.699.599a60.676 60.676 0 0 1-1.915-.651l.674-1.883c.614.219 1.232.429 1.854.63l-.613 1.904zm37.843.635l-.55-1.923c.629-.18 1.254-.369 1.875-.568l.609 1.905c-.641.205-1.285.401-1.934.586zm-33.96.484a65.838 65.838 0 0 1-1.951-.53l.553-1.921c.626.18 1.257.351 1.892.512l-.494 1.939zm30.041.503l-.428-1.954a60.72 60.72 0 0 0 1.907-.449l.488 1.94c-.652.164-1.308.319-1.968.463h.001zm-26.094.371a67.351 67.351 0 0 1-1.98-.406l.432-1.953c.637.141 1.276.272 1.919.394l-.371 1.965zm22.12.369l-.305-1.977c.647-.1 1.291-.209 1.932-.328l.365 1.965c-.66.123-1.324.237-1.992.34zm-18.126.256a59.924 59.924 0 0 1-2.003-.282l.31-1.975c.643.1 1.289.191 1.939.273l-.246 1.984zm14.114.235l-.181-1.992c.651-.059 1.3-.129 1.947-.208l.244 1.986a67.06 67.06 0 0 1-2.01.214zm-10.094.143a66.342 66.342 0 0 1-2.013-.158l.185-1.991c.649.06 1.3.111 1.955.153l-.127 1.996zm6.061.1l-.059-1.999c.656-.02 1.308-.049 1.958-.088l.119 1.996a63.88 63.88 0 0 1-2.018.091zm-2.021.027a61.67 61.67 0 0 1-2.02-.033l.064-1.999c.651.021 1.304.032 1.959.032l-.003 2z"/><path fill="#48515A" d="M125.02 52c-40.316 0-72.999 32.683-72.999 73s32.683 73 72.999 73c40.317 0 73-32.683 73-73-.045-40.298-32.702-72.954-73-73zm0 148c-41.421 0-74.999-33.579-74.999-75s33.578-75 74.999-75c41.422 0 75 33.579 75 75-.046 41.402-33.597 74.953-75 75z"/><path fill="#48515A" d="M124.019 115.936a9.064 9.064 0 1 0 .001 18.128 9.064 9.064 0 0 0 9.064-9.064 9.074 9.074 0 0 0-9.065-9.064zm0 20.128c-6.11 0-11.064-4.953-11.064-11.064s4.954-11.064 11.065-11.064c6.11 0 11.064 4.953 11.064 11.064-.007 6.108-4.957 11.058-11.065 11.064z"/><path fill="#DFE0E0" d="M125.02 203c-41.326-.003-75.477-32.24-77.861-73.497a79.009 79.009 0 0 0-.139 4.502v.001c0 43.078 34.922 77.999 78 77.999s78-34.921 78-77.999v-.001c0-1.512-.054-3.011-.138-4.502-2.384 41.257-36.535 73.494-77.862 73.497"/><path fill="#48515A" d="M203.88 129.56l-1.996-.114c.092-1.619.136-3.073.136-4.446h2c0 1.411-.045 2.903-.14 4.56m-157.719 0a79.257 79.257 0 0 1-.14-4.56h1.999c0 1.373.045 2.827.137 4.446l-1.996.114"/><path fill="#48515A" d="M125.02 204c-41.853-.01-76.438-32.657-78.859-74.44l1.996-.114c2.451 42.451 38.851 74.877 81.301 72.426 39.028-2.253 70.172-33.397 72.426-72.426l1.996.114c-2.421 41.783-37.006 74.43-78.86 74.44M206.042 70.988h2v-4h-2zM206.042 80.988h2v-4h-2zM210.042 74.988h4v-2h-4zM200.042 74.988h4v-2h-4zM212.046 171.048h2v-4h-2zM212.046 181.048h2v-4h-2zM216.046 175.048h4v-2h-4zM206.046 175.048h4v-2h-4zM42.944 174.05h2v-4h-2zM42.944 184.05h2v-4h-2zM46.944 178.05h4v-2h-4zM36.944 178.05h4v-2h-4z"/><path fill="#F58E70" d="M179.02 49a2 2 0 1 1 .001 3.999A2 2 0 0 1 179.02 49m27 52a1 1 0 1 1 0 2 1 1 0 0 1 0-2m-171-22a2 2 0 1 1 .001 3.999A2 2 0 0 1 35.02 79m132 134a2 2 0 1 1 .001 3.999 2 2 0 0 1-.001-3.999m-136-70a2 2 0 1 1 .001 3.999A2 2 0 0 1 31.02 143m27 48a1 1 0 1 1 0 2 1 1 0 0 1 0-2m18 18a1 1 0 1 1 0 2 1 1 0 0 1 0-2m60-44a1 1 0 1 1 0 2 1 1 0 0 1 0-2"/></g></svg>