<?xml version="1.0" encoding="utf-8"?><svg xmlns="http://www.w3.org/2000/svg" width="250" height="250" viewBox="0 0 250 250"><g fill="none" fill-rule="evenodd"><path fill="#48515A" d="M35 123.223h2v-4h-2zM35 133.223h2v-4h-2zM39 127.223h4v-2h-4zM29 127.223h4v-2h-4z"/><path fill="#FFD15D" d="M209 105.241a2 2 0 1 1-3.999.001 2 2 0 0 1 3.999-.001M47 85.229a2 2 0 1 1-3.999.001A2 2 0 0 1 47 85.23"/><path fill="#5FE0ED" d="M58.999 158.227a2 2 0 1 1-4 0 2 2 0 0 1 4 0"/><path fill="#48515A" d="M213 192.245h2v-4h-2zM213 202.245h2v-4h-2zM217 196.245h4v-2h-4zM207 196.245h4v-2h-4zM124.947 32.583L94.265 62.588c-4.979 4.978-7.725 11.608-7.725 18.659 0 7.052 2.746 13.682 7.732 18.668l30.689 30.612 29.918-29.996c4.987-4.987 7.733-11.616 7.734-18.668 0-7.052-2.746-13.682-7.732-18.668l-29.934-30.612zm.018 100.772L92.859 101.33c-11.074-11.074-11.074-29.092-.001-40.164l32.121-31.411 31.324 32.034c5.356 5.356 8.31 12.488 8.31 20.074-.001 7.586-2.955 14.718-8.319 20.082l-31.329 31.41z"/><path fill="#5FE0ED" d="M100.963 83.865h-2v-2h2c10.331 0 19.195 6.31 22.999 15.27V80.299c-.006-9.622-7.836-17.449-17.461-17.449h-1.538v-2h1.538c7.67 0 14.295 4.472 17.461 10.936V36.343L95.663 64.017c-4.585 4.585-7.123 10.713-7.123 17.23a24.242 24.242 0 0 0 7.146 17.254l28.276 28.205v-19.865c-.013-12.672-10.325-22.976-22.999-22.976m52.504-19.256l-27.505-28.127v35.097c3.152-6.506 9.81-11.009 17.511-11.009v2c-9.628 0-17.461 7.833-17.461 17.461v1.539h-.05v15.566c3.804-8.96 12.669-15.272 23.001-15.272v2c-12.683 0-23 10.317-23 23v2h-.001v17.827l27.502-27.572c9.515-9.516 9.515-24.996.003-34.51"/><path fill="#48515A" d="M123.963 165.264h2v-33.323h-2zM128.807 135.571l13.336 13.301c4.497 4.497 11.814 4.499 16.311.002l13.618-13.317-13.344-13.646c-4.49-4.49-11.808-4.489-16.303.007l-13.618 13.653zm21.495 18.675a13.496 13.496 0 0 1-9.573-3.959l-14.75-14.713 15.031-15.069c5.277-5.277 13.862-5.278 19.139 0l14.751 15.084-15.04 14.707a13.477 13.477 0 0 1-9.558 3.95z"/><path fill="#5FE0ED" d="M151.985 126.062l2-.016v.016c0 3.373-1.629 6.364-4.137 8.249h18.209l-10.759-11.002c-3.693-3.693-9.741-3.692-13.459.023l-10.951 10.979h11.89c4.063-.552 7.207-4.036 7.207-8.249m-2.127 10.416c2.511 1.884 4.142 4.877 4.142 8.251l-2 .017v-.017c0-4.22-3.157-7.709-7.231-8.251H132.55l11.005 10.978c3.722 3.721 9.768 3.72 13.485.004l11.23-10.982h-18.412"/><path fill="#48515A" d="M77.776 135.557l13.611 13.309c4.504 4.505 11.821 4.503 16.318.007l13.337-13.302-13.62-13.654a11.451 11.451 0 0 0-8.154-3.376 11.453 11.453 0 0 0-8.155 3.378l-13.337 13.638zm21.774 18.688a13.49 13.49 0 0 1-9.57-3.957l-15.032-14.699 14.743-15.077a13.45 13.45 0 0 1 9.577-3.971 13.439 13.439 0 0 1 9.569 3.963l15.033 15.07-14.752 14.714a13.487 13.487 0 0 1-9.568 3.957z"/><path fill="#5FE0ED" d="M97.863 126.062l-2-.016v.016c0 3.373 1.629 6.364 4.137 8.249H81.792l10.759-11.002c3.692-3.693 9.741-3.692 13.459.023l10.951 10.979H105.07c-4.062-.552-7.207-4.036-7.207-8.249m2.127 10.416c-2.511 1.884-4.141 4.877-4.141 8.251l2 .017v-.017c0-4.22 3.156-7.709 7.231-8.251h12.219l-11.005 10.978c-3.723 3.721-9.769 3.72-13.485.004l-11.231-10.982H99.99m-28.375-26.203l-3.465-3.456a3.024 3.024 0 0 1 0-4.277l3.465-3.389 3.38 3.457a3.024 3.024 0 0 1 0 4.277l-3.38 3.388m118.021 30.682l-3.465-3.457a3.023 3.023 0 0 1 0-4.276l3.465-3.389 3.38 3.457a3.023 3.023 0 0 1 0 4.276l-3.38 3.389"/><path fill="#DEDEDD" d="M180.806 156.486c3.015-.491 6.023.161 8.253 1.789.183.134.361.273.534.417l-7.064 5-32.654 15.374s-15.97.034-15.75-.028c1.39-.389 45.262-22.321 46.681-22.552M59 214.047v.003c0 1.191-.798 1.988-1.989 1.988h-.002l-7.009.164v-14.174l7.059.007a2.15 2.15 0 0 1 1.528.639c.411.411.553.953.552 1.522L59 214.047"/><path fill="#475059" d="M83.059 213.038H62v-2h20.867l77.127-14.946 43.531-26.698c-5.758-5.158-12.762-6.109-18.955-2.5l-27.261 13.144h-46.775v-2h18.316c7.888 0 14.139-5.718 14.656-13.194l-48.633.194c-4.17 0-8.258 1.699-11.218 4.66l-20.834 20.813-1.413-1.415 20.833-20.813c3.332-3.333 7.936-5.245 12.629-5.245l50.67-.202v1.004c0 6.19-3.404 11.465-8.534 14.198h19.846l26.78-12.908c7.293-4.255 15.632-2.875 22.234 3.728l.897.897-46.033 28.232-.177.034-77.494 15.017"/><path fill="#475059" d="M142.686 172.696a1 1 0 0 1-.461-1.888l31.302-16.217a25.244 25.244 0 0 1 6.636-2.053c4.066-.662 8.167.251 11.255 2.507a14.278 14.278 0 0 1 3.471 3.608 1.001 1.001 0 0 1-.269 1.381l-9.99 6.822a.999.999 0 1 1-1.127-1.651l9.14-6.242a12.403 12.403 0 0 0-2.405-2.303c-2.659-1.942-6.215-2.725-9.753-2.148a23.23 23.23 0 0 0-6.075 1.873l-31.265 16.198a1.004 1.004 0 0 1-.459.113M48 218.236l8.997.009h.004c1.105 0 2.15-.434 2.941-1.221a4.124 4.124 0 0 0 1.231-2.936v-.001l.056-30.978a4.172 4.172 0 0 0-4.168-4.164l-9.061-.01v39.301zm9.001 2.009h-.006L46 220.234v-43.301l11.062.012c3.403.003 6.169 2.77 6.167 6.167l-.056 30.979a6.11 6.11 0 0 1-1.82 4.35 6.135 6.135 0 0 1-4.352 1.804z"/><path fill="#DEDEDD" d="M110.534 175.038h23.443c3.588-1 6.27-4 7.203-8h-4.792c-2.095 2-4.69 2-7.538 2h-12.316a6 6 0 0 0-6 6m81.854-8.069l-33.129 20.278-76.584 14.791h-17.48l-.013 7h17.493l76.584-14.779L200 169.319c-2.419-1.572-5.013-2.351-7.612-2.35"/></g></svg>