<?xml version="1.0" encoding="utf-8"?><svg xmlns="http://www.w3.org/2000/svg" width="250" height="250" viewBox="0 0 250 250"><g fill="none" fill-rule="evenodd"><path fill="#FFD15D" d="M50.162 46.232a3 3 0 1 1-6 0 3 3 0 0 1 6 0"/><path fill="#FFD15D" d="M47.162 44.232c-1.102 0-2 .898-2 2 0 1.103.898 2 2 2 1.103 0 2-.897 2-2 0-1.102-.897-2-2-2zm0 6c-2.206 0-4-1.793-4-4 0-2.206 1.794-4 4-4s4 1.794 4 4c0 2.207-1.794 4-4 4z"/><path fill="#475059" d="M47.162 40.232c-3.309 0-6 2.692-6 6 0 3.309 2.691 6 6 6s6-2.691 6-6c0-3.308-2.691-6-6-6zm0 14c-4.411 0-8-3.588-8-8 0-4.411 3.589-8 8-8s8 3.589 8 8c0 4.412-3.589 8-8 8z"/><path fill="#FFD15D" d="M200.234 46.232a3 3 0 1 0 6 0 3 3 0 0 0-6 0"/><path fill="#FFD15D" d="M203.234 44.232c-1.102 0-2 .898-2 2 0 1.103.898 2 2 2 1.103 0 2-.897 2-2 0-1.102-.897-2-2-2zm0 6c-2.206 0-4-1.793-4-4 0-2.206 1.794-4 4-4s4 1.794 4 4c0 2.207-1.794 4-4 4z"/><path fill="#475059" d="M203.234 40.232c-3.308 0-6 2.692-6 6 0 3.309 2.692 6 6 6 3.309 0 6-2.691 6-6 0-3.308-2.691-6-6-6zm0 14c-4.411 0-8-3.588-8-8 0-4.411 3.589-8 8-8 4.412 0 8 3.589 8 8 0 4.412-3.588 8-8 8zM37.912 195.251h58.012v-4.003c0-4.072 3.059-7.443 7-7.936v-2.063H30.912v2.063c3.941.493 7 3.864 7 7.936v4.003zm60.012 2H35.912v-6.003a6.006 6.006 0 0 0-5.999-5.999h-1l-.001-6h76.012v6h-1c-3.309 0-6 2.691-6 5.999v6.003zM101.005 172.253h-2v-.888L71.412 48.768l1.951-.44 27.642 122.815v1.11"/><path fill="#FFD15D" d="M39.912 193.251h54.012v-2.004a9.991 9.991 0 0 1 4.006-7.999H35.906a9.991 9.991 0 0 1 4.006 7.999v2.004"/><path fill="#475059" d="M43.994 199.253h46.012v-2H43.994v2zm-2 2h50.012v-6H41.994v6zM34.992 172.245h-2l.029-1.235 32.11-132.778h5.556l1.443 5.444-1.934.512-1.048-3.956h-2.443L34.992 171.364v.881M32.993 180.253h2v-6h-2zM99.089 180.253h2v-5.992h-2zM153.981 196.252h58.013v-4.003c0-4.072 3.059-7.444 6.999-7.937v-2.063h-72.012v2.063c3.941.493 7 3.865 7 7.937v4.003zm60.013 2h-62.013v-6.003c0-3.309-2.691-6-5.999-6h-1l-.001-6h76.012v6h-1a6.006 6.006 0 0 0-5.999 6v6.003zM217.075 173.254h-2v-.889L187.481 48.766l1.952-.436 27.642 123.815v1.109"/><path fill="#FFD15D" d="M155.982 194.252h54.012v-2.004a9.99 9.99 0 0 1 4.006-7.999h-62.024a9.99 9.99 0 0 1 4.006 7.999v2.004"/><path fill="#475059" d="M160.063 200.254h46.012v-2h-46.012v2zm-2 2h50.012v-6h-50.012v6zM151.062 173.245h-2l.027-1.232 32.11-133.781h5.558l1.443 5.444-1.933.512-1.049-3.956h-2.443l-31.713 132.132v.881M149.063 181.254h2v-6h-2zM215.159 181.254h2v-5.993h-2z"/><path fill="#DFE0E0" d="M73.574 95.782l1.77 3.185a10.615 10.615 0 0 1 1.324 5.705l-1.344 27.556H57.991l.003-.001.671-18.904c.21-5.7 2.07-11.216 5.354-15.88l1.313-1.765v-.012h8.228l.014.116"/><path fill="#475059" d="M71.185 143.132H66.396v-.698a2.69 2.69 0 0 1-.652.081h-1.567v-4.827c0-1.301.435-2.587 1.227-3.622l.828-1.309.59-13.196-1.051-12.538 1.993-.168 1.062 12.666-.619 13.858-1.165 1.831c-.575.759-.865 1.613-.865 2.478v2.663a.652.652 0 0 0 .219-.489v-.178h2v1.448h2.751c.444-.023.858-.157 1.169-.461.311-.303.486-.709.491-1.144l.017-1.354c0-1.526-.237-3.066-.705-4.565l1.908-.595c.53 1.692.797 3.432.797 5.173l-.017 1.366a3.604 3.604 0 0 1-1.095 2.552 3.6 3.6 0 0 1-2.527 1.028"/><path fill="#475059" d="M73.749 133.979h-4.425v-2h3.575l1.518-1.571 1.437 1.391-2.105 2.18"/><path fill="#48515A" d="M66.353 180.317l-1.141-16.651-3.336-19.546-1.647-2.731 1.713-1.034 1.842 3.056.031.187 3.389 19.881 1.145 16.702-1.996.136"/><path fill="#48515A" d="M75.273 180.315l-1.962-35.044 1.762-3.581v-6.579l-.756-2.774 1.352-27.714a9.607 9.607 0 0 0-1.198-5.171l-1.866-3.354-.774-6.349-.073-1.665.315-.311a5.897 5.897 0 0 0 1.749-4.177 5.867 5.867 0 0 0-5.861-5.861h-1.302a5.39 5.39 0 0 0-5.389 5.39v8.4l5.312.26-.27 4.253-1.492 2.002a28.395 28.395 0 0 0-5.156 15.319l-.636 17.915 4.342.205-.094 1.999-6.316-.299.706-19.892a30.401 30.401 0 0 1 5.535-16.42l1.151-1.548.105-1.635-5.187-.254V83.125a7.39 7.39 0 0 1 7.389-7.39h1.302c4.335 0 7.861 3.527 7.861 7.861a7.916 7.916 0 0 1-2.03 5.272l.03.718.721 5.881 1.676 3.013a11.623 11.623 0 0 1 1.448 6.244l-1.336 27.394.742 2.86v7.177l-1.737 3.529 1.934 34.52-1.997.111"/><path fill="#48515A" d="M60.794 180.412l-2.959-19.262-.841-28.894 2-.059.839 28.833 2.937 19.077-1.976.305"/><path fill="#DFE0E0" d="M191.309 162.235h-9.749v-7.5h10.5l-.751 7.5M187.904 136.083l-2.782.543-1.724-4.978 4.468-1.588.933 3.526-1.052.805.157 1.692zm2.281-24.747l2.906-4.115-7.031-7.986-4.5 1.288h-.578a3.111 3.111 0 0 0-3.094 2.781l-4.203 51.431h25.5l-9-43.399z"/><path fill="#475059" d="M190.086 181.352l-1.99-.196 2.681-27.422h7.179l-8.839-42.62 2.694-3.814-5.553-6.104-1.573-1.944v-5.604h1c1.929 0 3.5-1.57 3.5-3.5V87.56c0-3.584-2.916-6.5-6.5-6.5-3.549 0-6.125 2.596-6.125 6.174v19.5h-2v-19.5c0-4.736 3.417-8.174 8.125-8.174 4.686 0 8.5 3.813 8.5 8.5v2.588a5.511 5.511 0 0 1-4.5 5.41v2.987l1.09 1.35 6.596 7.247-3.119 4.416 9.161 44.176h-7.821l-2.506 25.618"/><path fill="#475059" d="M180.5 181.266l-.304-25.532H172.6l4.291-52.511a4.11 4.11 0 0 1 4.09-3.7 4.117 4.117 0 0 1 4.113 4.112v12.112l4.554 14.741-7.611 2.704-3.398-10.999 1.91-.589 2.783 9.006 3.84-1.364-4.078-13.348v-12.263a2.115 2.115 0 0 0-2.113-2.112 2.107 2.107 0 0 0-2.099 1.887l-4.112 50.324h7.403l.327 27.508-2 .024"/><path fill="#475059" d="M178.468 181.323l-1.996-.138 1.897-27.451h13.316v2h-11.449l-1.768 25.589M184.461 137.773l-2.008-5.797 1.891-.655 1.439 4.158 1.042-.205-.125-1.341.961-.736-.762-2.881 1.934-.511 1.104 4.17-1.143.874.189 2.043-4.522.881"/><path fill="#F58E70" d="M120.86 141.731l-6 1.757-4.705 15.976v13.998l3 2 3 .026h1v-4.026h16v4h3.999l3.001-2v-13.998l-5.295-15.976-6-1.757h-8"/><path fill="#DFE0E0" d="M117.155 176.112h16v-4.624h-16zM120.878 142.732h7.982v-4.027h-7.982z"/><path fill="#475059" d="M118.155 211.462h-2V172.29a3.008 3.008 0 0 1-2-2.821l-.018-7.977 2-.004.018 7.976c.001.55.45.998 1 .998h1v41"/><path fill="#475059" d="M116.146 176.488l-3.297-.029-3.694-2.462.041-14.815 4.86-16.5 5.808-1.701.012-1.876-1.324-1.372a5.963 5.963 0 0 1-1.683-4.187l.018-5.142a7.896 7.896 0 0 1 2.348-5.61 7.897 7.897 0 0 1 5.596-2.306h.066a7.89 7.89 0 0 1 5.588 2.306 7.894 7.894 0 0 1 2.349 5.611l.019 5.141a5.976 5.976 0 0 1-1.683 4.187l-1.325 1.372.011 1.876 5.789 1.695 5.51 16.627v14.694l-3.698 2.465h-3.553v-2h2.948l2.303-1.535v-13.302l-5.079-15.324-6.212-1.82-.023-4.178 1.889-1.958a3.988 3.988 0 0 0 1.123-2.792l-.019-5.14a5.906 5.906 0 0 0-1.758-4.199c-1.128-1.12-2.621-1.696-4.212-1.726h-.024a5.91 5.91 0 0 0-4.195 1.726 5.902 5.902 0 0 0-1.758 4.198l-.018 5.142a3.98 3.98 0 0 0 1.122 2.791l1.889 1.958-.024 4.178-6.191 1.814-4.51 15.313v13.319l2.307 1.538 2.702.023-.018 2"/><path fill="#475059" d="M134.155 211.462h-2v-41h1c.268 0 .52-.105.708-.294a.985.985 0 0 0 .292-.708l-.017-7.968 2-.004.017 7.967a2.974 2.974 0 0 1-.876 2.125 2.987 2.987 0 0 1-1.124.712v39.17"/><path fill="#475059" d="M117.155 172.462h15.977v-2h-15.977zM124.133 212.756h2v-36.644h-2zM124.134 140.488c-.078 0-.156-.009-.236-.027l-3.254-.784a1.001 1.001 0 0 1 .468-1.946l3.255.785a1.001 1.001 0 0 1-.233 1.972M116.712 182.358l-4.557-2.252v-4.644h2v3.402l3.444 1.701-.887 1.793M133.599 182.358l-.887-1.793 3.443-1.701-.001-3.402h2l.001 4.644-4.556 2.252"/><path fill="#475059" d="M118.52 214.051h5.626a2.827 2.827 0 0 0-2.813-2.589 2.827 2.827 0 0 0-2.813 2.589zm7.636 2h-9.646v-1.765a4.83 4.83 0 0 1 4.823-4.824 4.83 4.83 0 0 1 4.823 4.824v1.765z"/><path fill="#475059" d="M129.337 211.462a2.829 2.829 0 0 0-2.813 2.591l5.628-.003a2.829 2.829 0 0 0-2.815-2.588zm-4.82 4.591l-.002-1.765a4.83 4.83 0 0 1 4.822-4.826 4.83 4.83 0 0 1 4.825 4.822v1.766l-9.645.003z"/><path fill="#DFE0E0" d="M115.963 70.311h18v-5.165h-18z"/><path fill="#475059" d="M54.193 45.229l-.031-2.001 55.585-.86.031 2-55.585.861M196.201 45.229l-56.198-1.001.035-2.001 56.198 1.001-.035 2.001M109.747 50.089l-55.585-.86.031-2.001 55.585.861-.031 2M140.038 50.194l-.035-2 56.198-.966.035 2.001-56.198.965M131.964 118.479h-2V75.727l.332-.298a8.01 8.01 0 0 0 2.667-5.95v-5.333h4.19v-4.667h-24.857v4.667h4.667v5.333c0 2.26.973 4.429 2.669 5.951l.332.298v42.751h-2V76.606a10.011 10.011 0 0 1-3.001-7.127v-3.333h-4.667v-8.667h28.857v8.667h-4.19v3.333c0 2.677-1.088 5.248-2.999 7.126v41.874"/><path fill="#475059" d="M115.963 66.146h18v-2h-18z"/><path fill="#48515A" d="M38.983 66.438h2v-4h-2zM38.983 76.438h2v-4h-2zM42.555 70.438h3.429v-2h-3.429zM33.983 70.438h3.429v-2h-3.429zM214.088 118.47h2v-4h-2zM214.088 128.47h2v-4h-2zM217.659 122.47h3.429v-2h-3.429zM209.088 122.47h3.429v-2h-3.429z"/><path fill="#FFD15D" d="M215.088 89.621a2.142 2.142 0 1 1-4.285.001 2.142 2.142 0 0 1 4.285-.001M101.892 108.92a1.981 1.981 0 1 1-3.962 0 1.981 1.981 0 0 1 3.962 0m-64.364 2.514a2.513 2.513 0 1 0 5.026 0 2.513 2.513 0 0 0-5.026 0m108.453 87.78a2.04 2.04 0 1 1 4.08 0 2.04 2.04 0 0 1-4.08 0m-3.871-63.566a.977.977 0 1 1-1.955.001.977.977 0 0 1 1.955-.001"/><path fill="#475059" d="M111.03 53.511l11.813.002c.841 0 1.606.328 2.175.864a3.163 3.163 0 0 1 2.172-.862l11.816.003V35.954l-11.816-.003c-.647 0-1.173.526-1.173 1.174h-2c0-.648-.527-1.176-1.174-1.176l-11.813-.002v17.564zm14.987 3.178h-2c0-.649-.527-1.176-1.174-1.176l-13.813-.002V33.947l13.813.002c.841 0 1.606.328 2.175.865a3.16 3.16 0 0 1 2.172-.863l13.816.003v21.564l-13.816-.003c-.647 0-1.173.526-1.173 1.174z"/><path fill="#475059" d="M124.017 58.689h2V36.123h-2z"/><path fill="#475059" d="M141.01 59.689h-32v-5.178h2v3.178h28v-3.171h2v5.171M114.01 41.689h6v-2h-6zM114.01 45.688h6v-2h-6zM114.01 49.689h6v-2h-6zM130.01 41.689h6v-2h-6zM130.01 45.688h6v-2h-6zM130.01 49.689h6v-2h-6z"/></g></svg>