<?xml version="1.0" encoding="utf-8"?><svg xmlns="http://www.w3.org/2000/svg" width="250" height="250" viewBox="0 0 250 250"><g fill="none" fill-rule="evenodd"><path fill="#FACD60" d="M149.749 181.103l-.013-2.8h-12.422a4.125 4.125 0 0 0-4.125 4.125h16.8a3.99 3.99 0 0 1-.24-1.325m49.565-97.425v94.625h-9.334v2.366c0 .598-.094 1.184-.233 1.759h11.067v-.75h4.5v-98h-6m-81.75 98.75a4.124 4.124 0 0 0-4.125-4.125h-62V83.678h-6v98h4.5v.75h67.625"/><path fill="#DBDBD5" d="M156.437 189.165l-4.883-4.739a4.002 4.002 0 0 1-1.471-1.758h-17.59c-.013.016-.021.033-.035.049-1.233 1.413-2.539 2.02-3.902 2.216a2.059 2.059 0 0 1-.605.298c-1.74.517-3.498.34-5.282.322-.736-.008-1.255-.344-1.57-.814-.196-.039-.392-.074-.587-.133a1.824 1.824 0 0 1-.725-.429c-.039.001-.078-.001-.118.001-1.118.056-1.746-.665-1.892-1.51h-73.34l8.336 8.333H156.48l-.043-1.836m57.336-98.162l-8.334-8.335v99.666l.334.334h-16.085a7.483 7.483 0 0 1-1.201 2.497 7.514 7.514 0 0 0-1.494 4.496v1.34h26.78V91.003m-76.334-11.335c-4.958 0-8.992 4.031-8.999 8.988v82.048c2.511-1.894 5.619-3.036 8.999-3.036h1.98v-88h-1.98"/><path fill="#42494E" d="M122.435 185.678h-2v-3.01c.008-3.862-3.124-7.01-6.984-7.019l-63.001-.158.006-2 63 .158c4.962.011 8.989 4.058 8.979 9.021v3.008"/><path fill="#42494E" d="M118.439 182.579h-2c0-1.654-1.345-3-3-3h-63v-2h63c2.757 0 5 2.243 5 5m12 3.1l-2-.002.004-3.01c-.01-4.96 4.018-9.007 8.981-9.018l11.972-.158.027 2-11.984.158a6.962 6.962 0 0 0-4.954 2.065 6.954 6.954 0 0 0-2.042 4.952l-.004 3.013"/><path fill="#42494E" d="M134.439 182.579h-2c0-2.757 2.244-5 5-5h11.984v2h-11.984c-1.654 0-3 1.346-3 3M206.439 183.579h-16.751v-2h14.751V84.668h-5v-2h7v100.911"/><path fill="#42494E" d="M125.372 187.067h-.001a11.176 11.176 0 0 1-8.111-3.488H44.437l.002-100.911h7v2h-5l-.002 96.911h71.72l.299.343a9.182 9.182 0 0 0 13.837 0l.3-.343h17.596v2h-16.701a11.178 11.178 0 0 1-8.116 3.488"/><path fill="#42494E" d="M126.439 182.668h-2c0-6.065-4.934-11-11-11H50.426v-96h63.013c5.398 0 10.038 3.307 12 8 1.963-4.693 6.603-8 12-8h63.014v96h-10.264v-2h8.264v-92h-61.014c-6.065 0-11 4.935-11 11h-2c0-6.065-4.934-11-11-11H52.426v92h61.013c5.398 0 10.038 3.307 12 8 1.963-4.693 6.603-8 12-8h12v2h-12c-6.065 0-11 4.935-11 11"/><path fill="#42494E" d="M124.439 178.668h2v-90h-2z"/><path fill="#434A4F" d="M191.777 203.48h-2v-6.034H153.78v6.034h-2v-8.034h39.997v8.034"/><path fill="#42494E" d="M187.993 197.125h-2v-6.463c0-1.824.601-3.634 1.692-5.096a6.546 6.546 0 0 0 1.295-3.897v-21.505c0-1.654-1.346-3-3.001-3a3.003 3.003 0 0 0-2.999 3v4.444h-2l-.001-8.444c0-1.654-1.345-3-3-3-1.654 0-3 1.346-3 3l.001 8.444h-2l-.001-8.444c0-1.654-1.345-3-3-3a3.004 3.004 0 0 0-2.999 2.937v8.507h-2l-.001-8.444.001-.082-.001-17.474c0-1.654-1.345-3-3-3a3.003 3.003 0 0 0-2.999 3v32h-2v-7.645c0-3.195-2.968-5.998-6.354-6.001l.123 25.137a2.998 2.998 0 0 0 1.355 2.492l.147.118 5.176 5.024.159 6.69-2 .047-.14-5.871-4.523-4.392a4.993 4.993 0 0 1-2.174-4.098l-.133-27.147h2.004a8.534 8.534 0 0 1 6.36 2.873v-19.227c0-2.756 2.243-5 4.999-5 2.757 0 5 2.244 5 5l.001 13.558a4.997 4.997 0 0 1 6.999 1.001 5 5 0 0 1 4-2.003c2.757 0 5 2.243 5 5v.003a4.968 4.968 0 0 1 3-1.003 5.006 5.006 0 0 1 5.001 5v21.505a8.565 8.565 0 0 1-1.693 5.095 6.559 6.559 0 0 0-1.294 3.898v6.463"/><path fill="#DBDBD5" d="M185.98 164.167c.552 0 1 .449 1 1v-5.003a1.001 1.001 0 0 0-2 0v5.003c0-.551.448-1 1-1m-8 .002c.552 0 1 .449 1 1v-9.005a1.001 1.001 0 0 0-2 0v9.005c0-.551.448-1 1-1m-8 0c.552 0 1 .449 1 1v-9.005a1.001 1.001 0 0 0-2 0v9.005c0-.551.448-1 1-1"/><path fill="#434A4F" d="M61.44 86.678h12v-2h-12zM65.439 95.345h46v-2h-46zM61.44 99.345h50v-2h-50zM61.44 103.345h50v-2h-50zM61.44 107.345h44v-2h-44zM65.439 113.345h46v-2h-46zM61.44 117.345h50v-2h-50zM61.44 121.345h50v-2h-50zM61.44 125.345h44v-2h-44zM65.439 131.345h46v-2h-46zM61.44 135.345h50v-2h-50zM61.44 139.345h50v-2h-50zM61.44 143.345h44v-2h-44zM65.439 149.345h46v-2h-46zM61.44 153.345h50v-2h-50zM61.44 157.345h50v-2h-50zM61.44 161.345h44v-2h-44z"/><path fill="#42494E" d="M189.439 175.679h11v-2h-11zM189.439 179.681h11v-2h-11z"/><path fill="#434A4F" d="M140.486 86.678h12v-2h-12zM144.486 95.345h46v-2h-46zM140.486 99.345h50v-2h-50zM140.486 103.345h50v-2h-50zM140.486 107.345h44v-2h-44zM144.486 113.345h46v-2h-46zM140.486 117.345h50v-2h-50zM140.486 121.345h50v-2h-50zM140.486 125.345h44v-2h-44zM144.486 131.345h9.983v-2h-9.983zM140.486 135.345h13.983v-2h-13.983zM140.486 139.345h13.983v-2h-13.983zM140.486 143.345h13.983v-2h-13.983zM144.486 149.345h9.983v-2h-9.983zM140.486 153.345h13.983v-2h-13.983zM140.486 157.345h5.978v-2h-5.978zM140.486 161.345h5.978v-2h-5.978z"/><path fill="#434A4F" d="M153.772 131.345h36.714v-2h-36.714zM169.504 135.345h20.982v-2h-20.982zM169.504 139.345h20.982v-2h-20.982zM169.504 143.345h14.982v-2h-14.982zM169.022 149.427h21.667v-2h-21.667zM212.553 66.6h2v-4h-2zM212.553 76.6h2v-4h-2zM216.553 70.6h4v-2h-4zM206.553 70.6h4v-2h-4zM35.447 186.672h2v-4h-2zM35.447 196.672h2v-4h-2zM39.447 190.672h4v-2h-4zM29.447 190.672h4v-2h-4zM205.549 196.678h2v-4h-2zM205.549 206.678h2v-4h-2zM209.549 200.678h4v-2h-4zM199.549 200.678h4v-2h-4z"/><path fill="#DBDBD5" d="M105.439 67.678a2 2 0 1 1-4 0 2 2 0 0 1 4 0"/><path fill="#FACD60" d="M87.439 201.678a2 2 0 1 1-4 0 2 2 0 0 1 4 0m128-60a2 2 0 1 1-4 0 2 2 0 0 1 4 0m-48-70a2 2 0 1 1 4 0 2 2 0 0 1-4 0m-46-20a2 2 0 1 1-4 0 2 2 0 0 1 4 0M93.408 81.325v-4.281c0-2.479 1.068-4.81 2.857-6.526 3.217-3.084 5.224-7.416 5.224-12.225 0-9.681-8.107-17.469-17.902-16.946-8.695.464-15.751 7.685-16.031 16.387-.164 5.073 1.907 9.656 5.297 12.863 1.725 1.632 2.775 3.851 2.775 6.226v4.502"/><path fill="#434A4F" d="M84.645 92.428a1 1 0 0 1-.01-2l3.821-.035a4.548 4.548 0 0 0 2.628-1.288 4.493 4.493 0 0 0 1.323-3.196v-4.43a1 1 0 1 1 2 0v4.43a6.48 6.48 0 0 1-1.909 4.61 6.54 6.54 0 0 1-3.863 1.866l-.105.007-3.876.036h-.009"/><path fill="#434A4F" d="M96.645 82.322H72.646a1 1 0 1 1 0-2h23.999a1 1 0 0 1 0 2"/><path fill="#434A4F" d="M84.645 92.428h-3.499a6.477 6.477 0 0 1-4.609-1.909 6.481 6.481 0 0 1-1.909-4.61v-3.987a1 1 0 1 1 2 0v3.987c0 1.206.47 2.341 1.323 3.196a4.491 4.491 0 0 0 3.195 1.323h3.499a1 1 0 1 1 0 2M74.529 50.965a1 1 0 0 1-.762-1.646l.156-.181a1 1 0 0 1 1.504 1.318l-.133.154a.994.994 0 0 1-.765.355m19.153-.835a.997.997 0 0 1-.707-.293 11.923 11.923 0 0 0-8.486-3.515c-2.301 0-4.535.652-6.461 1.884a1 1 0 0 1-1.078-1.684 13.958 13.958 0 0 1 7.539-2.2c3.74 0 7.255 1.456 9.9 4.101a1 1 0 0 1-.707 1.707M88.489 81.324h-2V71.117l6-14v-1.795h2v2.205l-6 14v9.797M82.489 81.324h-2v-9.797l-6-14v-2.205h2v1.795l6 14v10.207"/><path fill="#434A4F" d="M79.488 57.322h2v-2h-2v2zm4 0h2v-2h-2v2zm4 0h2v-2h-2v2zm2.56 151.356a6.508 6.508 0 0 1-6.501-6.5v-110.5a1 1 0 1 1 2 0v110.5c0 2.481 2.018 4.5 4.5 4.5a4.506 4.506 0 0 0 4.501-4.5v-19a1 1 0 1 1 2 0v19c0 3.584-2.916 6.5-6.5 6.5"/><path fill="#42494E" d="M124.439 185.678h2v-4h-2z"/></g></svg>