<?xml version="1.0" encoding="utf-8"?><svg xmlns="http://www.w3.org/2000/svg" width="250" height="250" viewBox="0 0 250 250"><g fill="none" fill-rule="evenodd"><path fill="#DEDEDD" d="M149.933 179.793l32.596-15.346 7.064-5a10.904 10.904 0 0 0-.534-.417 11.032 11.032 0 0 0-8.253-1.789c-1.419.231-45.292 22.163-46.681 22.552h15.808M119.999 129.999h10v-10h-10z"/><path fill="#5FE0ED" d="M139 85.281c17.011 2.543 28.74 18.395 26.197 35.406a31.142 31.142 0 0 1-8.782 17.419l-5.875-5.875V153h20.769l-5.104-5.104c17.561-17.543 17.575-46 .032-63.561a43.9 43.9 0 0 0-1.004-.974 16.856 16.856 0 0 1-7.61 1.846L139 85.281m-25.507 79.438c-17.011-2.543-28.74-18.395-26.197-35.406a31.14 31.14 0 0 1 8.781-17.419l5.875 5.875V97H81.183l5.104 5.104c-17.561 17.543-17.575 46.001-.031 63.561.329.33.664.655 1.003.974a16.857 16.857 0 0 1 7.611-1.846l18.623-.074"/><path fill="#DEDEDD" d="M180.806 157.241c2.88-.522 5.848.122 8.253 1.789.183.134.361.273.534.417l-7.064 5-32.654 15.373s-15.97.035-15.75-.027c1.389-.389 45.262-22.321 46.681-22.552M59 214.802v.002a1.88 1.88 0 0 1-1.989 1.989h-.002l-7.009.163v-14.174l7.059.008c.574 0 1.124.23 1.528.639.384.411.583.96.552 1.522L59 214.802"/><path fill="#48515A" d="M83.059 213.793H62v-2h20.867l77.127-14.946 43.531-26.698c-5.759-5.16-12.764-6.109-18.955-2.5l-27.261 13.144h-46.775v-2h18.316c7.617.201 14.058-5.598 14.655-13.194l-48.632.194a15.98 15.98 0 0 0-11.218 4.659l-20.834 20.814-1.413-1.415 20.833-20.813a17.988 17.988 0 0 1 12.629-5.245l50.67-.202v1.004a15.963 15.963 0 0 1-8.535 14.198h19.847l26.78-12.909c7.293-4.254 15.632-2.874 22.234 3.729l.896.896-46.032 28.232-.177.035-77.494 15.017"/><path fill="#48515A" d="M143.144 173.338l-.92-1.775 31.303-16.217a25.22 25.22 0 0 1 6.636-2.053 15.039 15.039 0 0 1 11.255 2.506 14.297 14.297 0 0 1 3.471 3.609l.549.822-10.808 7.381-1.128-1.651 9.141-6.242a12.438 12.438 0 0 0-2.405-2.303 13.044 13.044 0 0 0-9.754-2.148 23.173 23.173 0 0 0-6.074 1.873l-31.266 16.198M48 218.99l8.997.009h.004a4.186 4.186 0 0 0 4.172-4.157v-.001l.056-30.977a4.173 4.173 0 0 0-4.168-4.165L48 179.69v39.3zm9.001 2.009h-.006L46 220.988v-43.3l11.062.011a6.175 6.175 0 0 1 6.167 6.168l-.056 30.978a6.185 6.185 0 0 1-6.172 6.154z"/><path fill="#DEDEDD" d="M110.534 175.793h23.443a10.442 10.442 0 0 0 7.203-8h-4.792c-2.095 2-4.69 2-7.538 2h-12.316a6 6 0 0 0-6 6m83.523-8l-34.798 20.208-76.584 14.792h-17.48l-.013 7h17.493l76.584-14.779L200 170.073c-2.419-1.571-3.344-2.28-5.943-2.28M71.352 92.839A11.03 11.03 0 0 1 63.1 91.05a10.904 10.904 0 0 1-.534-.417l7.064-4.999 32.654-15.374s15.97-.035 15.75.027c-1.39.389-45.262 22.321-46.682 22.552m121.807-57.561v-.002a1.88 1.88 0 0 1 1.989-1.989h.002l7.009-.163v14.174l-7.059-.007a2.153 2.153 0 0 1-1.528-.64 2.06 2.06 0 0 1-.552-1.521l.139-9.852"/><path fill="#48515A" d="M59.846 86.627c-4.743.001-9.478-2.085-13.553-6.16l-.897-.896 46.032-28.232.178-.035L169.1 36.287h21.059v2h-20.867L92.165 53.233 48.634 79.931c5.758 5.159 12.762 6.109 18.955 2.5L94.85 69.287h46.774v2h-18.315c-7.617-.2-14.058 5.598-14.655 13.194l48.631-.194a15.982 15.982 0 0 0 11.219-4.659l20.834-20.814 1.413 1.415-20.833 20.814a17.991 17.991 0 0 1-12.629 5.244l-50.67.202v-1.004a15.964 15.964 0 0 1 8.534-14.198H95.307L68.526 84.196a17.116 17.116 0 0 1-8.68 2.431"/><path fill="#48515A" d="M69.398 96.998a14.68 14.68 0 0 1-8.657-2.717 14.263 14.263 0 0 1-3.471-3.609l-.549-.823 10.807-7.38 1.128 1.652-9.139 6.241a12.37 12.37 0 0 0 2.403 2.303 13.041 13.041 0 0 0 9.754 2.148 23.18 23.18 0 0 0 6.075-1.873l31.266-16.198.92 1.776-31.303 16.216a25.23 25.23 0 0 1-6.636 2.053c-.859.14-1.728.211-2.598.211m125.76-65.917a4.185 4.185 0 0 0-4.172 4.157v.001l-.055 30.977a4.185 4.185 0 0 0 4.167 4.165l9.061.009v-39.3l-8.997-.009h-.004zm11.001 41.311l-11.063-.011a6.185 6.185 0 0 1-6.165-6.168l.055-30.978a6.185 6.185 0 0 1 6.172-6.154h.006l10.995.011v43.3z"/><path fill="#DEDEDD" d="M141.624 74.287h-23.442a10.44 10.44 0 0 0-7.203 8h4.792c2.095-2 4.69-2 7.538-2h12.315a6 6 0 0 0 6-6m-83.522 8L92.9 62.079l76.583-14.792h17.481l.013-7h-17.494L92.9 55.066 52.159 80.007c2.419 1.571 3.344 2.28 5.943 2.28m91.773 97.534l.058-.028h-15.808c-.22.062 15.75.028 15.75.028m-15.898-4.028a10.442 10.442 0 0 0 7.203-8h-4.792c-2.095 2-4.69 2-7.538 2H117v6h16.977m-23.443 0H117v-6h-.466a6 6 0 0 0-6 6"/><path fill="#48515A" d="M110.999 119h8v-8h-8v8zm-2 2h12v-12h-12v12z"/><path fill="#48515A" d="M120.999 119h8v-8h-8v8zm-2 2h12v-12h-12v12z"/><path fill="#48515A" d="M130.999 119h8v-8h-8v8zm-2 2h12v-12h-12v12z"/><path fill="#48515A" d="M130.999 128.999h8V121h-8v7.999zm-2 2h12V119h-12v11.999z"/><path fill="#48515A" d="M130.999 138.999h8v-8h-8v8zm-2 2h12v-12h-12v12z"/><path fill="#48515A" d="M120.999 138.999h8v-8h-8v8zm-2 2h12v-12h-12v12z"/><path fill="#48515A" d="M110.999 138.999h8v-8h-8v8zm-2 2h12v-12h-12v12z"/><path fill="#5FE0ED" d="M137.01 104.984h10v-10h-10z"/><path fill="#F58E70" d="M114.996 155.014h10v-10h-10z"/><path fill="#48515A" d="M192.988 92.994h2v-4h-2zM192.988 102.994h2v-4h-2zM196.988 96.994h4v-2h-4zM186.988 96.994h4v-2h-4zM183.042 211h2v-4h-2zM183.042 221h2v-4h-2zM187.042 215h4v-2h-4zM177.042 215h4v-2h-4zM62.97 32.893h2v-4h-2zM62.97 42.893h2v-4h-2zM66.97 36.893h4v-2h-4zM56.97 36.893h4v-2h-4zM32.952 142.959h2v-4h-2zM32.952 152.959h2v-4h-2zM36.952 146.959h4v-2h-4zM26.952 146.959h4v-2h-4zM160.956 125.875h55.166a3.014 3.014 0 0 0 3-3.02 2.953 2.953 0 0 0-2.925-2.98h-55.24l-6.506 3 6.505 3zm55.166 2h-55.604l-10.844-5 10.844-5h55.604a5 5 0 0 1 0 10z"/><path fill="#48515A" d="M208.081 126.875h2v-8h-2z"/><path fill="#48515A" d="M161.081 123.875h48v-2h-48z"/></g></svg>