<?xml version="1.0" encoding="utf-8"?><svg xmlns="http://www.w3.org/2000/svg" width="250" height="250" viewBox="0 0 250 250"><g fill="none" fill-rule="evenodd"><path fill="#42494E" d="M103.654 145.398a346.786 346.786 0 0 0 18.347 17.093c.526-.44 1.057-.892 1.586-1.341a330.821 330.821 0 0 1-18.519-17.166c-19.016-19.015-34.737-39.032-44.268-56.36-9.206-16.738-11.549-29.275-6.427-34.396l-1.414-1.414c-5.882 5.88-3.72 18.941 6.088 36.774 9.619 17.489 25.461 37.665 44.607 56.81m83.015 51.904c-12.965-.785-35.022-12.973-58.426-32.246-.535.456-1.069.914-1.603 1.364 24.334 20.228 46.772 32.441 60.439 32.908a10.685 10.685 0 0 1-.41-2.026"/><path fill="#E9886C" d="M147.098 123.955c0 12.15-9.849 22-22 22-12.15 0-22-9.85-22-22s9.85-22 22-22c12.151 0 22 9.85 22 22"/><path fill="#42494E" d="M59.92 49.665c-.03-.55.38-1.03.93-1.07v.009a.998.998 0 0 1 1.07.92c.04.551-.38 1.031-.93 1.071h-.06c-.53 0-.97-.4-1.01-.93zm-3.839 1.08a.995.995 0 0 1 .589-1.28.997.997 0 0 1 1.29.58c.19.519-.07 1.1-.59 1.29-.11.04-.23.06-.35.06-.41 0-.79-.24-.939-.65zm-3.121 2.48a.997.997 0 1 1 1.41 0 .96.96 0 0 1-.7.29c-.26 0-.52-.09-.71-.29zm30.42 3.629a.993.993 0 0 1-.46-1.339c.24-.5.84-.701 1.331-.46.5.24.709.84.459 1.34-.17.35-.53.56-.899.56-.141 0-.29-.04-.431-.101zm3.53 1.801c-.49-.26-.67-.87-.409-1.36a.997.997 0 0 1 1.349-.41c.481.26.67.86.42 1.35-.189.34-.53.53-.89.53-.16 0-.319-.04-.47-.11zm3.49 1.909h-.01a1.01 1.01 0 0 1-.37-1.369c.27-.48.88-.65 1.36-.37a1 1 0 0 1 .38 1.36c-.19.32-.53.51-.87.51-.17 0-.34-.05-.49-.131zm3.431 2a.984.984 0 0 1-.341-1.369.993.993 0 0 1 1.37-.341c.471.281.63.901.34 1.371-.19.31-.52.49-.86.49-.17 0-.35-.05-.509-.151zm3.379 2.091c-.459-.301-.6-.91-.31-1.381.3-.469.911-.599 1.38-.309.471.29.61.91.31 1.38a.994.994 0 0 1-1.38.31zm3.34 2.159a.994.994 0 0 1-.279-1.379 1 1 0 0 1 1.389-.28c.46.3.59.92.28 1.38a.997.997 0 0 1-1.39.279zm3.31 2.231a.998.998 0 0 1-.26-1.39c.31-.45.93-.57 1.39-.26v.01a.996.996 0 1 1-1.13 1.64zm3.26 2.29a.997.997 0 1 1 1.16-1.62c.45.32.551.94.23 1.389a.993.993 0 0 1-1.39.231zm3.22 2.35a.996.996 0 0 1-.21-1.4.995.995 0 0 1 1.4-.21c.44.33.531.949.21 1.4a1.017 1.017 0 0 1-1.4.21zm3.181 2.39a.991.991 0 0 1-.181-1.4c.33-.44.96-.52 1.4-.19.44.34.52.97.19 1.41-.2.25-.5.39-.8.39-.21 0-.43-.07-.609-.21zm3.149 2.449a1 1 0 0 1-.16-1.409.99.99 0 0 1 1.4-.16 1 1 0 0 1 .171 1.399c-.201.25-.5.381-.79.381-.221 0-.441-.07-.621-.211zm3.121 2.491a1.003 1.003 0 1 1 1.259-1.56c.42.35.491.98.14 1.41-.2.239-.48.37-.78.37-.22 0-.44-.07-.619-.22zm9.139 7.71a.99.99 0 0 1-.09-1.411.997.997 0 0 1 1.41-.089c.41.37.45 1 .09 1.41-.2.219-.48.34-.759.34a.967.967 0 0 1-.651-.25zm2.98 2.65c-.41-.37-.44-1-.07-1.41.37-.41 1-.45 1.41-.08.41.37.44 1.01.07 1.42a.984.984 0 0 1-.739.33c-.241 0-.481-.09-.671-.26zm2.95 2.689a1.008 1.008 0 0 1-.06-1.419.997.997 0 0 1 1.41-.05c.41.37.44 1 .061 1.41-.19.21-.46.32-.73.32-.25 0-.491-.09-.681-.261zm2.92 2.721c-.4-.38-.42-1.02-.04-1.42a.996.996 0 1 1 1.45 1.37c-.2.21-.46.32-.73.32-.24 0-.49-.09-.68-.27zm2.88 2.75c-.389-.38-.4-1.02-.02-1.41a.996.996 0 0 1 1.41-.03c.4.38.41 1.02.031 1.42a1.018 1.018 0 0 1-1.421.02zm2.861 2.779v.011a1.007 1.007 0 0 1-.011-1.42c.39-.39 1.02-.4 1.42-.01.39.39.39 1.02 0 1.419a.962.962 0 0 1-.71.29.952.952 0 0 1-.699-.29zm2.819 2.831c-.39-.4-.38-1.03.01-1.42a.987.987 0 0 1 1.41.01.996.996 0 0 1-.71 1.7c-.259 0-.509-.1-.71-.29zm2.79 2.84a.996.996 0 0 1 .03-1.41.997.997 0 0 1 1.41.029c.38.391.37 1.021-.02 1.411-.2.19-.45.28-.7.28-.26 0-.519-.1-.72-.31zm2.76 2.89c-.38-.4-.36-1.04.04-1.42a.996.996 0 0 1 1.41.04c.38.4.37 1.04-.029 1.42-.201.18-.451.27-.691.27-.27 0-.53-.1-.73-.31zm2.73 2.91a.997.997 0 0 1 .05-1.41 1.008 1.008 0 0 1 1.42.05c.37.41.35 1.04-.06 1.42a.988.988 0 0 1-.68.259.952.952 0 0 1-.73-.319zm2.691 2.95a1.01 1.01 0 0 1 .069-1.421 1 1 0 0 1 1.411.081.998.998 0 0 1-.741 1.669.963.963 0 0 1-.739-.329zm2.649 2.98v-.01c-.36-.41-.32-1.04.09-1.41.41-.36 1.05-.32 1.41.09a1 1 0 0 1-.09 1.42c-.19.16-.42.24-.66.24-.28 0-.55-.11-.75-.33zm7.73 9.12a.99.99 0 0 1 .15-1.4c.42-.35 1.06-.29 1.41.14h-.01a1 1 0 0 1-.14 1.41c-.19.15-.41.22-.63.22-.29 0-.58-.12-.78-.37zm2.5 3.11a1 1 0 0 1 .16-1.4 1.01 1.01 0 0 1 1.41.16c.34.43.27 1.06-.16 1.41-.19.14-.41.21-.63.21-.29 0-.58-.13-.78-.38zm2.45 3.15c-.34-.44-.26-1.071.18-1.41.44-.331 1.07-.25 1.41.19.331.439.25 1.06-.189 1.399a.981.981 0 0 1-.611.211c-.3 0-.59-.14-.79-.39zm2.401 3.179a.992.992 0 0 1 .209-1.399c.44-.33 1.07-.24 1.4.2.33.44.24 1.07-.21 1.4-.18.129-.39.2-.59.2-.309 0-.61-.14-.809-.401zm2.359 3.211a.985.985 0 0 1 .22-1.39c.45-.321 1.08-.22 1.401.23a.997.997 0 0 1-.23 1.39.986.986 0 0 1-.581.19.97.97 0 0 1-.81-.42zm2.29 3.26a.998.998 0 0 1 .26-1.391.99.99 0 0 1 1.39.25 1 1 0 0 1-.259 1.391.985.985 0 0 1-.56.18c-.321 0-.631-.151-.831-.43zm2.24 3.29a.988.988 0 0 1 .28-1.38.988.988 0 0 1 1.38.28v-.01a.998.998 0 1 1-1.66 1.11zm2.17 3.34a1.003 1.003 0 0 1 1.691-1.08c.299.47.159 1.09-.311 1.39a1.014 1.014 0 0 1-1.38-.31zm2.1 3.38c-.28-.481-.13-1.09.341-1.38a1.003 1.003 0 0 1 1.029 1.72 1.007 1.007 0 0 1-1.37-.34zm2.02 3.43v-.01a.989.989 0 0 1 .37-1.361 1.012 1.012 0 0 1 1.37.371c.27.48.101 1.089-.379 1.37a.953.953 0 0 1-.491.13c-.35 0-.69-.18-.87-.5zm1.92 3.47a1.001 1.001 0 0 1 1.77-.94 1.003 1.003 0 0 1-1.77.94zm1.82 3.53c-.25-.5-.04-1.1.45-1.34.5-.25 1.1-.04 1.34.45.25.5.05 1.1-.45 1.34-.14.07-.29.11-.44.11-.37 0-.72-.21-.9-.56zm1.69 3.58a1 1 0 0 1 .5-1.32c.51-.22 1.1 0 1.32.51.23.5 0 1.09-.5 1.319a.951.951 0 0 1-.409.08.977.977 0 0 1-.911-.589zm1.53 3.65a1 1 0 1 1 1.861-.73.994.994 0 0 1-.571 1.29.996.996 0 0 1-1.29-.56zm1.33 3.71c-.17-.53.12-1.09.64-1.26a.993.993 0 0 1 1.26.64 1.005 1.005 0 0 1-.639 1.26 1.006 1.006 0 0 1-1.261-.64zm1.071 3.77a.999.999 0 0 1 .739-1.21c.54-.13 1.08.2 1.21.74a1 1 0 0 1-.739 1.21 1.004 1.004 0 0 1-1.21-.74zm.719 3.82a.995.995 0 0 1 .86-1.12c.55-.071 1.05.32 1.12.87.07.55-.32 1.05-.86 1.12h-.129c-.5 0-.931-.36-.991-.87z"/><path fill="#42494E" d="M59.92 49.665c-.03-.55.38-1.03.93-1.07v.009a.998.998 0 0 1 1.07.92c.04.551-.38 1.031-.93 1.071h-.06c-.53 0-.97-.4-1.01-.93zm-3.839 1.08a.995.995 0 0 1 .589-1.28.997.997 0 0 1 1.29.58c.19.519-.07 1.1-.59 1.29-.11.04-.23.06-.35.06-.41 0-.79-.24-.939-.65zm-3.121 2.48a.997.997 0 1 1 1.41 0 .96.96 0 0 1-.7.29c-.26 0-.52-.09-.71-.29zm33.95 5.43c-.49-.26-.67-.87-.409-1.36a.997.997 0 0 1 1.349-.41c.481.26.67.86.42 1.35-.189.34-.53.53-.89.53-.16 0-.319-.04-.47-.11zm3.49 1.909h-.01a1.01 1.01 0 0 1-.37-1.369c.27-.48.88-.65 1.36-.37a1 1 0 0 1 .38 1.36c-.19.32-.53.51-.87.51-.17 0-.34-.05-.49-.131zm3.431 2a.984.984 0 0 1-.341-1.369.993.993 0 0 1 1.37-.341c.471.281.63.901.34 1.371-.19.31-.52.49-.86.49-.17 0-.35-.05-.509-.151zm3.379 2.091c-.459-.301-.6-.91-.31-1.381.3-.469.911-.599 1.38-.309.471.29.61.91.31 1.38a.994.994 0 0 1-1.38.31zm3.34 2.159a.994.994 0 0 1-.279-1.379 1 1 0 0 1 1.389-.28c.46.3.59.92.28 1.38a.997.997 0 0 1-1.39.279zm3.31 2.231a.998.998 0 0 1-.26-1.39c.31-.45.93-.57 1.39-.26v.01a.996.996 0 1 1-1.13 1.64zm3.26 2.29a.997.997 0 1 1 1.16-1.62c.45.32.551.94.23 1.389a.993.993 0 0 1-1.39.231zm3.22 2.35a.996.996 0 0 1-.21-1.4.995.995 0 0 1 1.4-.21c.44.33.531.949.21 1.4a1.017 1.017 0 0 1-1.4.21zm3.181 2.39a.991.991 0 0 1-.181-1.4c.33-.44.96-.52 1.4-.19.44.34.52.97.19 1.41-.2.25-.5.39-.8.39-.21 0-.43-.07-.609-.21zm3.149 2.449a1 1 0 0 1-.16-1.409.99.99 0 0 1 1.4-.16 1 1 0 0 1 .171 1.399c-.201.25-.5.381-.79.381-.221 0-.441-.07-.621-.211zm3.121 2.491a1.003 1.003 0 1 1 1.259-1.56c.42.35.491.98.14 1.41-.2.239-.48.37-.78.37-.22 0-.44-.07-.619-.22zm9.139 7.71a.99.99 0 0 1-.09-1.411.997.997 0 0 1 1.41-.089c.41.37.45 1 .09 1.41-.2.219-.48.34-.759.34a.967.967 0 0 1-.651-.25zm5.93 5.339a1.008 1.008 0 0 1-.06-1.419.997.997 0 0 1 1.41-.05c.41.37.44 1 .061 1.41-.19.21-.46.32-.73.32-.25 0-.491-.09-.681-.261zm2.92 2.721c-.4-.38-.42-1.02-.04-1.42a.996.996 0 1 1 1.45 1.37c-.2.21-.46.32-.73.32-.24 0-.49-.09-.68-.27zm2.88 2.75c-.389-.38-.4-1.02-.02-1.41a.996.996 0 0 1 1.41-.03c.4.38.41 1.02.031 1.42a1.018 1.018 0 0 1-1.421.02zm2.861 2.779v.011a1.007 1.007 0 0 1-.011-1.42c.39-.39 1.02-.4 1.42-.01.39.39.39 1.02 0 1.419a.962.962 0 0 1-.71.29.952.952 0 0 1-.699-.29zm2.819 2.831c-.39-.4-.38-1.03.01-1.42a.987.987 0 0 1 1.41.01.996.996 0 0 1-.71 1.7c-.259 0-.509-.1-.71-.29zm2.79 2.84a.996.996 0 0 1 .03-1.41.997.997 0 0 1 1.41.029c.38.391.37 1.021-.02 1.411-.2.19-.45.28-.7.28-.26 0-.519-.1-.72-.31zm2.76 2.89c-.38-.4-.36-1.04.04-1.42a.996.996 0 0 1 1.41.04c.38.4.37 1.04-.029 1.42-.201.18-.451.27-.691.27-.27 0-.53-.1-.73-.31zm2.73 2.91a.997.997 0 0 1 .05-1.41 1.008 1.008 0 0 1 1.42.05c.37.41.35 1.04-.06 1.42a.988.988 0 0 1-.68.259.952.952 0 0 1-.73-.319zm2.691 2.95a1.01 1.01 0 0 1 .069-1.421 1 1 0 0 1 1.411.081.998.998 0 0 1-.741 1.669.963.963 0 0 1-.739-.329zm2.649 2.98v-.01c-.36-.41-.32-1.04.09-1.41.41-.36 1.05-.32 1.41.09a1 1 0 0 1-.09 1.42c-.19.16-.42.24-.66.24-.28 0-.55-.11-.75-.33zm7.73 9.12a.99.99 0 0 1 .15-1.4c.42-.35 1.06-.29 1.41.14h-.01a1 1 0 0 1-.14 1.41c-.19.15-.41.22-.63.22-.29 0-.58-.12-.78-.37zm2.5 3.11a1 1 0 0 1 .16-1.4 1.01 1.01 0 0 1 1.41.16c.34.43.27 1.06-.16 1.41-.19.14-.41.21-.63.21-.29 0-.58-.13-.78-.38zm2.45 3.15c-.34-.44-.26-1.071.18-1.41.44-.331 1.07-.25 1.41.19.331.439.25 1.06-.189 1.399a.981.981 0 0 1-.611.211c-.3 0-.59-.14-.79-.39zm2.401 3.179a.992.992 0 0 1 .209-1.399c.44-.33 1.07-.24 1.4.2.33.44.24 1.07-.21 1.4-.18.129-.39.2-.59.2-.309 0-.61-.14-.809-.401zm2.359 3.211a.985.985 0 0 1 .22-1.39c.45-.321 1.08-.22 1.401.23a.997.997 0 0 1-.23 1.39.986.986 0 0 1-.581.19.97.97 0 0 1-.81-.42zm2.29 3.26a.998.998 0 0 1 .26-1.391.99.99 0 0 1 1.39.25 1 1 0 0 1-.259 1.391.985.985 0 0 1-.56.18c-.321 0-.631-.151-.831-.43zm2.24 3.29a.988.988 0 0 1 .28-1.38.988.988 0 0 1 1.38.28v-.01a.998.998 0 1 1-1.66 1.11zm2.17 3.34a1.003 1.003 0 0 1 1.691-1.08c.299.47.159 1.09-.311 1.39a1.014 1.014 0 0 1-1.38-.31zm2.1 3.38c-.28-.481-.13-1.09.341-1.38a1.003 1.003 0 0 1 1.029 1.72 1.007 1.007 0 0 1-1.37-.34zm2.02 3.43v-.01a.989.989 0 0 1 .37-1.361 1.012 1.012 0 0 1 1.37.371c.27.48.101 1.089-.379 1.37a.953.953 0 0 1-.491.13c-.35 0-.69-.18-.87-.5zm1.92 3.47a1.001 1.001 0 0 1 1.77-.94 1.003 1.003 0 0 1-1.77.94zm1.82 3.53c-.25-.5-.04-1.1.45-1.34.5-.25 1.1-.04 1.34.45.25.5.05 1.1-.45 1.34-.14.07-.29.11-.44.11-.37 0-.72-.21-.9-.56zm1.69 3.58a1 1 0 0 1 .5-1.32c.51-.22 1.1 0 1.32.51.23.5 0 1.09-.5 1.319a.951.951 0 0 1-.409.08.977.977 0 0 1-.911-.589zm1.53 3.65a1 1 0 1 1 1.861-.73.994.994 0 0 1-.571 1.29.996.996 0 0 1-1.29-.56zm1.33 3.71c-.17-.53.12-1.09.64-1.26a.993.993 0 0 1 1.26.64 1.005 1.005 0 0 1-.639 1.26 1.006 1.006 0 0 1-1.261-.64zm1.071 3.77a.999.999 0 0 1 .739-1.21c.54-.13 1.08.2 1.21.74a1 1 0 0 1-.739 1.21 1.004 1.004 0 0 1-1.21-.74zm.719 3.82a.995.995 0 0 1 .86-1.12c.55-.071 1.05.32 1.12.87.07.55-.32 1.05-.86 1.12h-.129c-.5 0-.931-.36-.991-.87zm-144.64 12.67c-.13 0-.26-.02-.38-.071a.997.997 0 0 1-.32-.219c-.189-.19-.3-.44-.3-.71 0-.13.03-.26.08-.38s.12-.231.22-.32c.371-.38 1.04-.38 1.41 0 .09.089.17.2.22.32.05.12.07.25.07.38 0 .27-.099.52-.29.71-.09.09-.2.17-.32.219-.13.051-.25.071-.39.071m135.52-145.79c-.55-.04-.96-.52-.93-1.071a1.006 1.006 0 0 1 1.07-.929c.55.04.971.509.93 1.07-.04.52-.479.93-1 .93h-.07zm-4.92-.79a.992.992 0 0 1 .88-1.1.994.994 0 0 1 1.1.89.992.992 0 0 1-.88 1.1c-.04 0-.069.01-.11.01-.5-.01-.939-.391-.99-.9zm-3.929.799a.99.99 0 0 1 .75-1.199.996.996 0 0 1 1.199.75c.12.54-.219 1.08-.759 1.199a1.515 1.515 0 0 1-.221.021.984.984 0 0 1-.969-.771zm12.489.731c-.52-.2-.779-.78-.59-1.29.19-.521.77-.78 1.291-.59.52.19.779.77.579 1.29a1 1 0 0 1-1.28.59zm-16.34.4a1 1 0 0 1 .65-1.25v-.01a1.01 1.01 0 0 1 1.26.66c.16.53-.13 1.09-.65 1.26-.1.03-.199.04-.3.04-.43 0-.82-.27-.96-.7zm-3.76 1.39a.993.993 0 0 1 .571-1.29.986.986 0 0 1 1.29.57 1.002 1.002 0 0 1-.931 1.36c-.4 0-.78-.25-.93-.64zm-3.69 1.57c-.219-.5.011-1.091.511-1.32a1 1 0 0 1 .809 1.83.99.99 0 0 1-1.32-.51zm-3.62 1.73a1 1 0 0 1 .46-1.34c.5-.24 1.09-.04 1.34.46.24.5.03 1.1-.46 1.34a1.008 1.008 0 0 1-1.34-.46zm-3.56 1.849a.995.995 0 0 1 .421-1.349.997.997 0 0 1 1.349.42 1 1 0 0 1-.42 1.35v-.01c-.15.08-.31.12-.47.12-.35 0-.7-.19-.88-.531zm-3.5 1.961a.992.992 0 0 1 .38-1.36l-.01-.01c.48-.27 1.091-.1 1.37.38.27.48.1 1.09-.38 1.359a.936.936 0 0 1-.49.131c-.35 0-.69-.18-.87-.5zm-3.45 2.05c-.29-.48-.129-1.09.34-1.38a.997.997 0 0 1 1.37.35c.29.47.14 1.08-.339 1.37a1.005 1.005 0 0 1-1.371-.34zm-3.4 2.12a.994.994 0 0 1 .311-1.381 1.013 1.013 0 0 1 1.379.311c.3.47.16 1.09-.31 1.38-.17.11-.35.16-.54.16-.33 0-.65-.17-.84-.47zm-3.35 2.199a.978.978 0 0 1 .28-1.379.99.99 0 0 1 1.381.28.989.989 0 0 1-.281 1.38.983.983 0 0 1-1.38-.281zm-3.319 2.271a1.01 1.01 0 0 1 .259-1.4.997.997 0 0 1 1.39.26.998.998 0 0 1-.26 1.39.98.98 0 0 1-.56.18c-.32 0-.63-.15-.829-.43zm-3.27 2.32a1.004 1.004 0 0 1 1.629-1.171c.32.451.22 1.08-.23 1.401-.18.12-.379.179-.59.179a.997.997 0 0 1-.809-.409zm-3.23 2.369a.993.993 0 0 1 .21-1.399 1.004 1.004 0 0 1 1.399.21c.331.439.23 1.07-.21 1.399-.18.131-.39.201-.6.201-.299 0-.6-.14-.799-.411zm-3.191 2.431a.99.99 0 0 1 .18-1.4.992.992 0 0 1 1.4.179.992.992 0 0 1-.179 1.401c-.191.139-.401.21-.611.21-.3 0-.599-.13-.79-.39zm-3.16 2.47a.991.991 0 0 1 .16-1.401 1.003 1.003 0 0 1 1.41.161c.34.43.261 1.06-.17 1.41-.18.139-.4.21-.62.21-.29 0-.59-.13-.78-.38zm-3.13 2.52a1.002 1.002 0 1 1 1.56-1.26c.34.43.28 1.06-.15 1.4-.19.149-.41.229-.63.229-.29 0-.58-.129-.78-.369zm-3.079 2.56a.997.997 0 0 1 .119-1.41 1 1 0 0 1 1.41.13c.36.42.3 1.049-.13 1.41v-.01c-.18.16-.41.24-.64.24-.28 0-.57-.131-.759-.36zm-3.061 2.6a.999.999 0 1 1 1.52-1.3.998.998 0 0 1-.76 1.65c-.28 0-.56-.12-.76-.35zm-3.02 2.64a.997.997 0 0 1 .09-1.41.989.989 0 0 1 1.41.09.988.988 0 0 1-.09 1.41c-.19.16-.42.25-.66.25-.28 0-.55-.12-.75-.34zm-2.99 2.67a.997.997 0 0 1 .071-1.41 1.007 1.007 0 0 1 1.419.07.994.994 0 0 1-.08 1.409.95.95 0 0 1-.66.261c-.28 0-.55-.11-.75-.33zm-2.95 2.71a.996.996 0 0 1 .05-1.41 1 1 0 1 1 1.36 1.47c-.19.18-.44.26-.68.26a.95.95 0 0 1-.73-.32zm-2.93 2.75c-.38-.4-.36-1.04.04-1.42.4-.38 1.03-.36 1.42.04.37.4.36 1.04-.05 1.42a.991.991 0 0 1-.68.27c-.27 0-.529-.11-.73-.31zm-2.89 2.77a.999.999 0 0 1 .02-1.411 1.01 1.01 0 0 1 1.42.031c.38.39.37 1.03-.03 1.41-.19.19-.44.28-.69.28a.97.97 0 0 1-.72-.31zm-2.86 2.82a.986.986 0 0 1 .011-1.41.986.986 0 0 1 1.409 0c.39.39.38 1.03-.01 1.42a1 1 0 0 1-.7.29c-.259 0-.52-.1-.71-.3zm-2.83 2.84a.996.996 0 0 1-.01-1.41c.39-.39 1.02-.4 1.42-.01.391.389.391 1.02.01 1.41h-.01c-.19.2-.45.3-.71.3a.96.96 0 0 1-.7-.29zm-2.8 2.88c-.39-.39-.4-1.02-.02-1.42.38-.39 1.02-.4 1.42-.02a1.005 1.005 0 0 1-.7 1.72c-.25 0-.5-.1-.7-.28zm-2.76 2.91c-.4-.38-.42-1.02-.04-1.42a1.008 1.008 0 0 1 1.421-.04c.399.38.419 1.01.039 1.42-.2.2-.47.31-.73.31-.25 0-.49-.091-.69-.27zm-2.72 2.94a.998.998 0 1 1 1.351-1.471c.409.371.429 1 .059 1.411-.2.21-.47.32-.74.32-.24 0-.48-.09-.67-.26zm-2.7 2.97c-.41-.37-.44-1-.07-1.41.371-.42 1-.45 1.41-.08.41.37.44 1 .07 1.41v.01c-.19.21-.47.33-.74.33-.24 0-.48-.09-.67-.26zm-2.66 3c-.41-.36-.45-.99-.09-1.41.37-.41 1-.45 1.41-.09.42.36.46 1 .1 1.41-.2.23-.48.34-.76.34a.99.99 0 0 1-.66-.25zm-7.73 9.22c-.43-.35-.5-.98-.15-1.411a.99.99 0 0 1 1.4-.139c.441.34.5.97.15 1.4-.2.25-.48.37-.769.37a.971.971 0 0 1-.631-.22zm-2.5 3.14c-.43-.341-.51-.97-.16-1.41a.99.99 0 0 1 1.4-.16c.43.34.51.97.161 1.4a.972.972 0 0 1-.781.38c-.219 0-.429-.07-.62-.21zm-2.45 3.17c-.44-.33-.52-.96-.19-1.4.34-.44.97-.52 1.41-.18.441.33.52.96.18 1.4-.2.25-.489.39-.79.39a.983.983 0 0 1-.61-.21zm-2.399 3.22a.994.994 0 0 1-.21-1.4.994.994 0 0 1 1.399-.21.995.995 0 0 1-.6 1.8c-.2 0-.41-.06-.589-.19zm-2.351 3.25c-.45-.32-.55-.95-.23-1.4.32-.44.95-.55 1.391-.23.449.32.559.95.23 1.399a.996.996 0 0 1-.81.421.981.981 0 0 1-.581-.19zm-2.29 3.29a1 1 0 1 1 1.39-.26v.01c-.2.28-.51.43-.83.43a.983.983 0 0 1-.56-.18zm-2.23 3.33a.989.989 0 0 1-.28-1.38 1 1 0 0 1 1.381-.29c.459.31.589.93.279 1.39a.995.995 0 0 1-.83.45c-.19 0-.38-.05-.55-.17zm-2.17 3.38c-.47-.3-.6-.91-.31-1.38.3-.47.92-.601 1.38-.311.471.301.61.911.31 1.381-.19.3-.51.47-.84.47a.974.974 0 0 1-.54-.16zm-2.09 3.43a1.019 1.019 0 0 1-.34-1.38c.29-.47.9-.62 1.37-.34.48.29.63.9.351 1.38-.19.31-.521.48-.861.48-.18 0-.36-.051-.52-.14zm-2 3.47a1 1 0 0 1-.38-1.36c.28-.481.88-.65 1.37-.38.47.27.64.88.37 1.359v.011c-.18.32-.52.5-.87.5-.17 0-.33-.04-.49-.13zm-3.7 7.119a.999.999 0 0 1-.46-1.339 1 1 0 0 1 1.34-.46c.491.24.701.839.46 1.339-.18.351-.53.561-.9.561a.967.967 0 0 1-.44-.101zm-1.66 3.651c-.5-.22-.73-.81-.509-1.32.229-.5.819-.73 1.319-.51.51.219.741.81.51 1.32-.16.37-.53.6-.91.6-.14 0-.27-.031-.41-.09zm-1.48 3.73a.999.999 0 0 1-.58-1.29c.2-.52.78-.78 1.301-.58a1 1 0 0 1-.361 1.93c-.12 0-.24-.02-.36-.06zm-1.27 3.8a.992.992 0 0 1-.65-1.25.998.998 0 0 1 1.25-.66c.53.17.82.729.65 1.26-.13.42-.52.7-.949.7-.101 0-.201-.021-.301-.05zm-1.54 7.859a1 1 0 1 1 1.1-.889c-.06.51-.49.889-1 .889h-.1zm-1 3.071a.99.99 0 0 1 .93-1.06.998.998 0 0 1 1.07.93c.03.55-.38 1.019-.929 1.059h-.071a.996.996 0 0 1-1-.929zm.86 4.2c-.19-.521.07-1.09.59-1.29.51-.19 1.09.07 1.29.59.19.52-.07 1.09-.59 1.29-.12.04-.23.059-.35.059-.41 0-.79-.25-.94-.649zm145.93-138.86a.99.99 0 0 1-.38-.07c-.12-.05-.23-.131-.33-.22a.99.99 0 0 1-.21-1.09c.05-.12.12-.23.21-.321.1-.099.21-.169.33-.219.371-.15.81-.06 1.09.219.091.091.16.201.21.321a.995.995 0 0 1-.21 1.09.99.99 0 0 1-.71.29"/><path fill="#434A4F" d="M125.098 99.955c-13.233 0-24 10.767-24 24s10.767 24 24 24c13.234 0 24-10.767 24-24s-10.766-24-24-24zm0 50c-14.336 0-26-11.663-26-26s11.664-26 26-26c14.337 0 26 11.663 26 26s-11.663 26-26 26z"/><path fill="#FFFFFE" d="M205.098 77.503a7.742 7.742 0 1 1-15.483 0 7.742 7.742 0 0 1 15.483 0"/><path fill="#E9886C" d="M205.098 77.503a7.742 7.742 0 1 1-15.483 0 7.742 7.742 0 0 1 15.483 0"/><path fill="#FFFFFE" d="M60.582 170.407a7.742 7.742 0 1 1-15.485 0 7.742 7.742 0 0 1 15.485 0"/><path fill="#FACD60" d="M60.582 170.407a7.742 7.742 0 1 1-15.485 0 7.742 7.742 0 0 1 15.485 0"/><path fill="#42494E" d="M197.356 189.472a6.75 6.75 0 0 0-6.742 6.741 6.75 6.75 0 0 0 6.742 6.742 6.75 6.75 0 0 0 6.742-6.742 6.749 6.749 0 0 0-6.742-6.741zm0 15.483c-4.82 0-8.742-3.922-8.742-8.742s3.922-8.741 8.742-8.741c4.821 0 8.742 3.921 8.742 8.741s-3.921 8.742-8.742 8.742z"/><path fill="#FFFFFE" d="M145.098 123.955h-2c0-9.925-8.075-18-18-18v-2c11.028 0 20 8.972 20 20m-24-19a1 1 0 1 0 2 0 1 1 0 0 0-2 0m22 22a1 1 0 1 0 2 0 1 1 0 0 0-2 0"/><path fill="#434A4F" d="M213.053 142.022h2v-4h-2zM213.053 152.022h2v-4h-2zM207.053 146.022h4v-2h-4zM217.053 146.022h4v-2h-4z"/><path fill="#42494E" d="M88.979 200.045c-1.103 0-2 .897-2 2 0 1.102.897 2 2 2 1.102 0 2-.898 2-2 0-1.103-.898-2-2-2zm0 6c-2.206 0-4-1.794-4-4s1.794-4 4-4c2.205 0 4 1.794 4 4s-1.795 4-4 4z"/><path fill="#E9886C" d="M208.02 115.003a2 2 0 1 1-3.999.001 2 2 0 0 1 3.999-.001"/><path fill="#75C7D0" d="M47.924 115.003a2 2 0 1 1-3.999.001 2 2 0 0 1 3.999-.001"/><path fill="#434A4F" d="M34.947 89.991h2v-4h-2zM34.947 99.991h2v-4h-2zM28.947 93.991h4v-2h-4zM38.947 93.991h4v-2h-4z"/><path fill="#E9886C" d="M147.098 123.955c0 12.15-9.849 22-22 22-12.15 0-22-9.85-22-22s9.85-22 22-22c12.151 0 22 9.85 22 22"/><path fill="#FFFFFE" d="M205.098 77.503a7.742 7.742 0 1 1-15.483 0 7.742 7.742 0 0 1 15.483 0"/><path fill="#42494E" d="M197.356 72.762c-.457 0-.891.085-1.311.207a79.96 79.96 0 0 1-2.796 6.86 4.757 4.757 0 0 0 1.57 1.666c1.412-3.039 2.568-5.925 3.463-8.64a4.79 4.79 0 0 0-.926-.093m.475-5.976c.686.03 1.354.122 2.001.275 1.358-6.766.609-12.047-2.593-15.25l-1.414 1.415c2.742 2.742 3.305 7.447 2.006 13.56m-7.464 18.857c-9.029 17.032-25.028 38.133-45.238 58.342-31.933 31.934-66.101 53.375-82.902 53.373-3.369-.001-6.043-.864-7.857-2.677l-1.414 1.414c2.204 2.203 5.383 3.256 9.356 3.256 17.712-.001 51.19-20.911 84.231-53.952 20.66-20.659 36.559-41.479 45.587-58.52a10.69 10.69 0 0 1-1.763-1.236"/><path fill="#E9886C" d="M205.098 77.503a7.742 7.742 0 1 1-15.483 0 7.742 7.742 0 0 1 15.483 0"/><path fill="#D3665D" d="M126.668 133.997a84.401 84.401 0 0 0 4.33-4.033c5.71-5.71 10.808-12.48 12.778-17.631a22.222 22.222 0 0 0-1.433-2.031c-1.096 3.954-5.228 10.716-12.759 18.248a83.979 83.979 0 0 1-4.458 4.143 83.984 83.984 0 0 1-4.458-4.144c-4.687-4.687-8.557-9.611-10.897-13.867-.991-1.801-1.576-3.255-1.887-4.418-.518.65-.999 1.329-1.442 2.036.391 1.028.916 2.145 1.577 3.346 2.428 4.416 6.418 9.501 11.235 14.317a83.957 83.957 0 0 0 4.33 4.033c-4.926 4.032-9.191 6.415-12.058 7.267.645.506 1.317.979 2.017 1.412 3.425-1.348 7.543-4.049 11.583-7.376 4.026 3.316 8.13 6.01 11.548 7.363a22.054 22.054 0 0 0 2.012-1.411c-2.867-.862-7.114-3.242-12.018-7.254"/><path fill="#75C7D0" d="M81.227 51.697a7.742 7.742 0 1 1-15.484 0 7.742 7.742 0 0 1 15.484 0"/></g></svg>