<?xml version="1.0" encoding="utf-8"?><svg xmlns="http://www.w3.org/2000/svg" width="250" height="250" viewBox="0 0 250 250"><g fill="none" fill-rule="evenodd"><path fill="#F58E70" d="M128.455 195.888s-1.499-25.68-2.249-28.678h-.165c.621.001.959-.502.959-1.123v-2.811l-2.547-3.374-2.453 3.374v2.811c0 .621.358 1.124.979 1.123h-.109c-.749 2.998-2.266 28.678-2.266 28.678"/><path fill="#DFE0E0" d="M116 151.475v2.456l8.442 4.778 8.457-4.637.101-4.495v-3.79c0-.318.596-.658.892-1.002-.101.088-.226.177-.309.266-1.183 1.271-2.989 2.645-4.203 3.682-.96.82-2.188 1.328-3.45 1.328h-3.65c-1.262 0-2.476-.508-3.436-1.328-1.158-.99-2.844-2.27-4.023-3.488-.036-.037-.077-.083-.116-.12.355.377.822.753 1.253 1.133-.01.004.042.004.042.015v5.202"/><path fill="#48515A" d="M116 155.061a1 1 0 0 1-1-1v-8a1 1 0 0 1 2 0v8a1 1 0 0 1-1 1"/><path fill="#48515A" d="M133 155.061a1 1 0 0 1-1-1v-8.762l.371-.3c.924-.749 1.261-1.447 1.434-1.907l3.471-7.265 3.823-1.904.833-4.115a.76.76 0 0 0-.217-.497.844.844 0 0 0-.611-.25h-1.935l.168-1.145c.098-.673.206-1.278.308-1.842.198-1.111.355-1.989.355-2.892v-.758c0-1.851-.412-3.795-1.194-5.659l-.449-.814c-.042-.1-.083-.2-.132-.299-1.05-2.117-2.491-3.907-4.283-5.32-2.734-2.155-5.997-3.307-9.435-3.33l-.102-.001c-3.967 0-7.738 1.578-10.63 4.45A16.266 16.266 0 0 0 109 122.912v.27c0 .405-.011.804-.022 1.21-.03 1.059-.061 2.155.116 3.543l.143 1.126h-1.817c-.46 0-.828.319-.885.744l1.186 4.119 3.345 1.937 3.397 7.194c.434 1.152 2.436 2.787 3.898 3.98.406.331.791.646 1.133.937.822.703 1.812 1.089 2.786 1.089H126a1 1 0 0 1 0 2h-3.72c-1.45 0-2.901-.557-4.085-1.568-.331-.282-.705-.587-1.098-.909-1.821-1.486-3.885-3.17-4.475-4.753l-3.098-6.551-3.503-2.029-1.493-5.331c0-1.436 1.077-2.629 2.475-2.829-.072-1.048-.047-1.942-.024-2.754.01-.388.021-.769.021-1.155v-.27c0-4.798 1.956-9.493 5.366-12.88 3.297-3.275 7.601-5.034 12.155-5.03 3.887.026 7.573 1.326 10.659 3.76 2.027 1.598 3.653 3.617 4.837 6.001l.057.12.299.48c1.064 2.293 1.627 4.735 1.627 7.061v.758c0 1.08-.179 2.083-.387 3.244l-.117.661a2.811 2.811 0 0 1 1.653.83c.526.542.804 1.259.783 2.018l-.02.17-1.046 5.173-4.082 2.033-3.141 6.565c-.318.854-.865 1.646-1.643 2.358v7.827a1 1 0 0 1-1 1m-45.826 40.601l-.153-27.558c0-3.662 2.444-4.892 5.397-6.019l17.347-6.012 3.13-6.012H116v2h-1.892l-2.937 5.641-18.069 6.263c-3.004 1.146-4.082 1.946-4.082 4.133l.154 27.553-2 .011"/><path fill="#48515A" d="M124.521 159.926l-9.129-5.112a1 1 0 1 1 .978-1.745l8.151 4.565 7.822-4.382a1 1 0 1 1 .978 1.745l-8.8 4.929m37.559 35.73h-2l.006-27.49c0-2.238-1.096-3.039-4.183-4.174l-18.052-6.232-3.357-5.699H133v-2h2.638l3.562 6.048 17.375 5.999c3.024 1.112 5.511 2.33 5.511 6.058l-.006 27.49"/><path fill="#48515A" d="M119.461 166.525a1 1 0 0 1-.743-1.669l5.803-6.448 5.801 6.448a.999.999 0 1 1-1.486 1.338l-4.315-4.796-4.316 4.796a1 1 0 0 1-.744.331"/><path fill="#5FE0ED" d="M188.947 135.375l.425 2.957.612-.545a23.584 23.584 0 0 0 5.133-15.89c-4.676 2.379-7.305 7.694-6.196 13.326l.026.152m.456 30.801l-.635 2.247c5.09-3.321 8.644-8.367 9.808-14.077a11.53 11.53 0 0 0-5.336 2.888c-2.317 2.205-3.675 5.257-3.822 8.594l-.015.348m-12.001 27.905c6.21-.041 11.738-2.121 15.863-5.922-4.839-2.288-10.762-1.007-14.502 3.481l-2.07 2.344.709.097m-18.312 15.6l-2.57 1.396.909.429a23.608 23.608 0 0 0 16.833.561c-3.736-3.89-10.021-5.049-15.172-2.386m16.926-107.894c-.865 3.058-.489 6.352 1.058 9.284l1.608 2.693.102-.272a23.597 23.597 0 0 0 .36-16.918 11.53 11.53 0 0 0-3.128 5.213"/><path fill="#48515A" d="M196.838 119.101c-7.064 1.923-11.363 8.975-9.88 16.508l.965 6.693 3.516-3.133a25.58 25.58 0 0 0 5.399-20.068zm-10.364 27.171l-1.486-10.327c-1.76-8.93 3.708-17.315 12.458-19.039l.982-.193.193.981a27.59 27.59 0 0 1-5.68 22.799l-.111.116-6.356 5.663zm14.446 5.765c-3.408.091-6.592 1.402-9.058 3.748-2.695 2.563-4.272 6.099-4.442 9.955l-.037.228-1.806 6.397c8.418-3.522 14.245-10.94 15.256-19.469.034-.284.063-.571.087-.859zm-18.37 23.685l2.877-10.188c.22-4.33 2.013-8.303 5.056-11.198 3.109-2.957 7.208-4.477 11.547-4.287l.999.044-.044.999a27.58 27.58 0 0 1-.166 2.04c-1.116 9.415-7.619 17.57-16.971 21.282l-3.298 1.308zm-9.83 19.737l4.55.622c7.738-.013 14.527-2.967 19.177-8.334-5.956-4.419-14.255-3.347-19.22 2.613l-4.507 5.099zm4.496 2.622h-.014l-.136-.009-8.319-1.138 6.962-7.876c5.842-7.011 15.798-8.055 22.647-2.353l.54.449-.501 1.386-.112.136c-5.054 6.065-12.535 9.405-21.067 9.405zm-20.601 15.252a25.609 25.609 0 0 0 20.836-.402c-3.864-6.242-12.444-8.56-19.28-5.026l-6.075 3.299 4.519 2.129zm9.969 4.02a27.68 27.68 0 0 1-10.766-2.185l-.037-.016-8.109-3.821 9.563-5.194c8.13-4.206 18.425-1.104 22.496 6.764l.465.9-.9.451a27.651 27.651 0 0 1-12.712 3.101zm13.392-123.952c-2.886 1.815-4.958 4.566-5.885 7.841-1.012 3.58-.568 7.426 1.251 10.831l3.779 6.326 1.502-4.119c2.767-6.797 2.517-14.337-.647-20.879zm-.417 29.632l-5.958-9.977c-2.087-3.905-2.588-8.279-1.434-12.358 1.168-4.129 3.92-7.529 7.75-9.574l.882-.471.472.882A27.586 27.586 0 0 1 182.488 115l-2.929 8.033zM162.92 104.496l-9.762-6.454 1.103-1.668 6.212 4.106-.982-9.05 1.988-.216 1.441 13.282"/><path fill="#48515A" d="M137.28 214.401l-.365-1.967c29.065-5.401 49.907-30.812 49.556-60.423-.231-19.489-9.908-37.817-25.885-49.027l1.148-1.638c16.504 11.579 26.498 30.51 26.737 50.642.362 30.585-21.167 56.834-51.191 62.413"/><path fill="#5FE0ED" d="M55.342 135.375l-.425 2.957-.612-.545a23.584 23.584 0 0 1-5.133-15.89c4.676 2.379 7.305 7.694 6.196 13.326l-.026.152m-.455 30.801l.634 2.247c-5.09-3.321-8.644-8.367-9.808-14.077a11.53 11.53 0 0 1 5.336 2.888c2.318 2.205 3.675 5.257 3.822 8.594l.016.348m12 27.905c-6.209-.041-11.738-2.121-15.863-5.922 4.84-2.288 10.762-1.007 14.502 3.481l2.07 2.344-.709.097m18.312 15.6l2.571 1.396-.909.429a23.61 23.61 0 0 1-16.834.561c3.736-3.89 10.022-5.049 15.172-2.386M68.273 101.787c.865 3.058.489 6.352-1.058 9.284l-1.608 2.693-.101-.272a23.587 23.587 0 0 1-.36-16.918 11.538 11.538 0 0 1 3.127 5.213m25.787-20.85c1.59 4.998-.347 10.603-5.135 13.768l-2.651 1.753.052-.476a23.582 23.582 0 0 1 7.734-15.045"/><path fill="#48515A" d="M52.85 139.169l3.516 3.133.956-6.642c1.491-7.582-2.807-14.636-9.871-16.559a25.584 25.584 0 0 0 5.399 20.068zm4.965 7.103l-6.467-5.779a27.584 27.584 0 0 1-5.679-22.799l.193-.981.981.193c8.75 1.724 14.219 10.109 12.449 19.09l-1.477 10.276zm-14.446 5.765c.024.288.053.575.087.859 1.011 8.529 6.839 15.946 15.256 19.469l-1.843-6.625c-.17-3.856-1.747-7.392-4.442-9.955-2.466-2.346-5.651-3.657-9.058-3.748zm18.37 23.686l-3.298-1.309c-9.352-3.712-15.855-11.867-16.971-21.282a28.134 28.134 0 0 1-.166-2.04l-.044-.999.999-.044c4.335-.187 8.438 1.33 11.547 4.287 3.043 2.895 4.836 6.868 5.056 11.198l2.877 10.189zm-13.897 12.024c4.65 5.366 11.439 8.32 19.177 8.334l4.549-.622-4.487-5.077c-4.984-5.981-13.283-7.055-19.239-2.635zm19.231 10.334c-8.532 0-16.013-3.34-21.067-9.405l-.112-.136-.499-1.386.538-.449c6.851-5.702 16.805-4.659 22.666 2.375l6.943 7.854-8.455 1.147h-.014zm-.235 14.85a25.609 25.609 0 0 0 20.836.402l4.519-2.129-6.093-3.309c-6.816-3.525-15.396-1.205-19.262 5.036zm10.867 4.422a27.654 27.654 0 0 1-12.712-3.101l-.9-.451.465-.9c4.071-7.868 14.364-10.969 22.479-6.773l9.58 5.203-8.146 3.837a27.676 27.676 0 0 1-10.766 2.185zM64.313 93.401a25.588 25.588 0 0 0-.66 20.845l1.516 4.153 3.803-6.368c1.794-3.363 2.238-7.209 1.226-10.789-.927-3.275-2.999-6.026-5.885-7.841zm.417 29.632l-2.942-8.067a27.561 27.561 0 0 1 1.231-23.431l.471-.882.882.471c3.83 2.045 6.582 5.445 7.75 9.574 1.154 4.079.653 8.453-1.41 12.317l-5.982 10.018zm30.111-45.286a25.585 25.585 0 0 0-10.503 18.017l-.518 4.714 6.208-4.104c6.405-4.235 8.406-12.248 4.813-18.627zm-13.475 26.751l.984-8.952A27.584 27.584 0 0 1 94.592 75.49l.834-.551.551.834c4.919 7.439 2.79 17.22-4.846 22.269l-9.765 6.456z"/><path fill="#48515A" d="M107.009 214.401c-30.024-5.579-51.553-31.828-51.191-62.413.239-20.131 10.233-39.062 26.737-50.642l1.148 1.638c-15.977 11.21-25.654 29.538-25.885 49.027-.351 29.611 20.491 55.022 49.557 60.423l-.366 1.967"/><path fill="#5FE0ED" d="M165.181 87.923a4 4 0 1 1 8 0 4 4 0 0 1-8 0"/><path fill="#48515A" d="M143 113.061h-2v-46h12.574l-31.586-31.586-31.586 31.586H103v41h-2v-39H85.574l36.414-36.414 36.414 36.414H143v44"/><path fill="#48515A" d="M152 118.061h-2v-32h4.248L142.64 75.615l-12.617 11.446H134v13h-2v-11h-7.157l17.791-16.141 16.825 15.141H152v30M151.03 122.473a1.002 1.002 0 0 1-.92-.62 1 1 0 0 1-.069-.38c0-.129.02-.259.069-.379.05-.13.13-.23.221-.331.369-.37 1.039-.37 1.409 0 .091.101.17.201.22.331.05.12.07.25.07.379 0 .13-.02.261-.07.38-.05.131-.129.23-.22.33-.19.181-.44.29-.71.29m-18.009-18.009a1.033 1.033 0 0 1-.701-.29 1.018 1.018 0 0 1-.299-.71c0-.131.029-.261.079-.381.05-.13.12-.239.22-.33.09-.09.201-.159.32-.21a1 1 0 0 1 1.31.54c.05.12.071.25.071.381 0 .259-.101.52-.291.71-.189.179-.439.29-.709.29M102 112.543c-.27 0-.52-.11-.709-.29a1.004 1.004 0 0 1-.291-.71c0-.26.1-.52.291-.71.369-.369 1.04-.369 1.419 0 .18.19.29.45.29.71 0 .26-.11.52-.29.71-.189.18-.45.29-.71.29m0-4.482a1 1 0 0 1-1-1v-19a1 1 0 0 1 2 0v19a1 1 0 0 1-1 1m4 8.482a.999.999 0 0 1-.709-.29 1.011 1.011 0 0 1-.291-.71c0-.13.03-.26.081-.38a.942.942 0 0 1 .21-.319c.369-.38 1.04-.38 1.419 0 .09.089.16.199.21.319.06.12.08.25.08.38 0 .27-.11.52-.29.71a1 1 0 0 1-.71.29m0-4.482a1 1 0 0 1-1-1v-19a1 1 0 0 1 2 0v19a1 1 0 0 1-1 1m6-7.608a1.004 1.004 0 0 1-1-1c0-.259.11-.52.3-.71a1.04 1.04 0 0 1 1.09-.21c.12.05.23.121.32.21.19.19.3.451.3.71 0 .261-.11.52-.3.71-.09.09-.2.16-.32.21a.88.88 0 0 1-.39.08m0-4.392a1 1 0 0 1-1-1v-9a1 1 0 0 1 2 0v9a1 1 0 0 1-1 1M213 185.061h2v-4h-2zM213 175.061h2v-4h-2zM207 179.061h4v-2h-4zM217 179.061h4v-2h-4zM158 155.061h2v-4h-2zM158 145.061h2v-4h-2zM152 149.061h4v-2h-4zM162 149.061h4v-2h-4zM117.99 103.924c-.13 0-.26-.031-.39-.08a.89.89 0 0 1-.32-.221.443.443 0 0 1-.12-.15.833.833 0 0 1-.099-.17c-.02-.06-.04-.129-.051-.189-.02-.061-.02-.13-.02-.19 0-.131.02-.261.071-.391a.982.982 0 0 1 .219-.319c.09-.091.2-.171.32-.221.25-.1.52-.1.77 0 .12.05.23.13.32.221.101.089.17.199.22.319a.974.974 0 0 1-.22 1.09c-.09.1-.2.17-.32.221-.12.049-.25.08-.38.08m.01-7.863a1 1 0 0 1-1-1v-24a1 1 0 0 1 2 0v24a1 1 0 0 1-1 1m-42.211 58.795l2.454.797.467-1.436c.526-1.623 1.968-2.67 3.673-2.671h.001a3.805 3.805 0 0 1 3.673 2.668l.467 1.436 2.454-.798-.467-1.437c-.528-1.62.023-3.316 1.402-4.318 1.378-1.003 3.161-1.003 4.541-.002l1.222.887 1.511-2.082-1.212-.868c-1.384-1.004-1.935-2.694-1.411-4.308.525-1.617 1.968-2.663 3.674-2.663h1.51v-3h-1.511c-1.724 0-3.171-1.024-3.686-2.609-.505-1.553.05-3.198 1.414-4.189l1.198-.816-1.44-1.954-1.225.905c-1.387 1.009-3.171 1.01-4.552.008-1.375-.999-1.925-2.689-1.4-4.308l.465-1.43-2.452-.795-.467 1.439a3.808 3.808 0 0 1-3.673 2.671h-.002a3.805 3.805 0 0 1-3.673-2.667l-.467-1.436-2.454.798.467 1.437c.528 1.621-.022 3.316-1.401 4.319-1.38 1.002-3.162 1.003-4.541.001l-1.222-.887-1.516 2.089 1.222.887c1.38 1.002 1.931 2.696 1.405 4.318a3.804 3.804 0 0 1-3.673 2.67l-1.51.001.001 2.581 1.51-.001h.002c1.704 0 3.145 1.047 3.673 2.667.528 1.622-.023 3.317-1.401 4.32l-1.222.888 1.471 2.023 1.222-.888c1.378-1.004 3.161-1.004 4.54-.002 1.38 1.002 1.932 2.697 1.405 4.319l-.466 1.436zm3.739 3.317l-6.258-2.032 1.083-3.339c.308-.949-.148-1.698-.678-2.082-.529-.384-1.381-.585-2.189 0l-2.839 2.065-3.824-5.258 2.84-2.064c.806-.588.877-1.462.675-2.084-.202-.621-.774-1.286-1.771-1.286h-.001l-3.51.001-.003-6.58 3.51-.002c.999 0 1.57-.665 1.772-1.287.202-.623.13-1.496-.678-2.083l-2.84-2.062 3.865-5.325 2.841 2.062c.806.585 1.66.384 2.19-.001.529-.385.984-1.134.676-2.082l-1.086-3.339 6.257-2.036 1.086 3.338c.309.948 1.117 1.286 1.771 1.286h.001c.654 0 1.463-.339 1.771-1.288l1.083-3.34 6.261 2.027-1.084 3.334c-.307.945.146 1.69.672 2.072.53.385 1.385.585 2.195-.003l2.83-2.091 3.858 5.238-2.889 1.966c-.644.469-.901 1.199-.662 1.936.193.593.763 1.227 1.784 1.227h3.51l.002 7h-3.511c-1 0-1.571.662-1.772 1.281-.2.616-.127 1.483.679 2.068l2.844 2.036-3.87 5.33-2.84-2.063c-.808-.586-1.66-.384-2.19.001-.529.385-.985 1.134-.676 2.083l1.085 3.338-6.257 2.036-1.086-3.338c-.308-.949-1.117-1.287-1.771-1.287-.655 0-1.464.339-1.772 1.288l-1.084 3.339z"/><path fill="#F58E70" d="M82.405 137.018a1.735 1.735 0 0 0-1.418.722 1.747 1.747 0 1 0 2.439-.389h-.001a1.732 1.732 0 0 0-1.02-.333zm-.009 5.492c-.762 0-1.53-.231-2.192-.711a3.752 3.752 0 0 1-.837-5.232 3.72 3.72 0 0 1 2.443-1.501 3.725 3.725 0 0 1 2.789.666 3.719 3.719 0 0 1 1.502 2.442 3.744 3.744 0 0 1-3.705 4.336z"/><path fill="#48515A" d="M80.19 128.353a1.002 1.002 0 0 1 1.99-.23c.06.551-.33 1.04-.88 1.111h-.12c-.5 0-.929-.37-.99-.881zm4.63 1.12a.996.996 0 0 1-.72-1.22c.14-.53.69-.849 1.22-.72a1 1 0 1 1-.5 1.94zm-8.239.371a.999.999 0 1 1 1.769-.931c.26.491.07 1.1-.42 1.35a.976.976 0 0 1-.46.121c-.36 0-.71-.201-.889-.54zm11.449 1.149l-.02-.02a.996.996 0 0 1-.23-1.39c.32-.449.95-.55 1.4-.23 0 0 0 .011.01.011l.01.009h.01c.44.321.541.95.22 1.4a1 1 0 0 1-.81.41c-.21 0-.41-.06-.59-.19zm-14.27 1.56a.99.99 0 0 1-.1-1.41c.36-.42.99-.46 1.41-.1.41.361.46.99.1 1.41-.2.23-.48.35-.76.35-.23 0-.46-.08-.65-.25zm16.7 1c-.3-.47-.17-1.089.3-1.39a.993.993 0 0 1 1.38.301.992.992 0 0 1-.3 1.38.956.956 0 0 1-.54.159.999.999 0 0 1-.84-.45zm-18.37 2.541a1.008 1.008 0 0 1-.6-1.281 1 1 0 1 1 .6 1.281zm19.71.719c-.11-.54.23-1.07.77-1.19.54-.11 1.07.241 1.19.781a1 1 0 0 1-.78 1.179c-.07.02-.14.02-.2.02a.996.996 0 0 1-.98-.79zm-21 2.2c-.01-.549.43-1.01.98-1.02a1.004 1.004 0 0 1 1.02.98.988.988 0 0 1-.969 1.02H71.8c-.54 0-.98-.43-1-.98zm21.89 2.471a1 1 0 0 1-.82-1.151c.09-.54.61-.909 1.15-.82.55.09.91.601.82 1.15h.01c-.09.491-.51.84-.99.84-.049 0-.109-.01-.17-.019zm-21.01 1.699a.992.992 0 0 1 .54-1.299c.51-.21 1.091.029 1.31.54a1.01 1.01 0 0 1-.55 1.31c-.12.049-.25.069-.38.069-.39 0-.76-.23-.92-.62zm19.33 1.84c-.47-.289-.63-.9-.35-1.369.28-.48.901-.641 1.37-.361.48.29.64.901.35 1.37h.01c-.19.321-.53.491-.87.491-.17 0-.35-.04-.51-.131zm-17.009 1.74a1.006 1.006 0 0 1 .029-1.419c.4-.38 1.031-.36 1.42.04a.993.993 0 0 1-.04 1.409.963.963 0 0 1-.69.28 1 1 0 0 1-.719-.31zm14.179.951a1.011 1.011 0 0 1 .16-1.411c.44-.339 1.07-.27 1.411.17a.993.993 0 0 1-.17 1.4.985.985 0 0 1-1.401-.159zm-10.73 1.539c-.5-.23-.71-.829-.48-1.329.24-.5.841-.71 1.33-.48h.011c.5.239.71.839.469 1.329a.992.992 0 0 1-.91.58c-.14 0-.28-.03-.42-.1zm7.111-.059a.995.995 0 0 1 .659-1.25.988.988 0 0 1 1.25.659 1.001 1.001 0 0 1-.67 1.25h.011a1.01 1.01 0 0 1-.301.04.983.983 0 0 1-.949-.699zm-2.991 1.139a.998.998 0 0 1-.92-1.07.982.982 0 0 1 1.06-.919c.55.04.97.509.93 1.06-.04.529-.48.929-1 .929h-.07zM35 185.061h2v-4h-2zM35 175.061h2v-4h-2zM29 179.061h4v-2h-4zM39 179.061h4v-2h-4zM42 106.061h2v-4h-2zM42 96.061h2v-4h-2zM36 100.061h4v-2h-4zM46 100.061h4v-2h-4z"/></g></svg>