<?xml version="1.0" encoding="utf-8"?><svg xmlns="http://www.w3.org/2000/svg" width="250" height="250" viewBox="0 0 250 250"><g fill="none" fill-rule="evenodd"><path fill="#5FE0ED" d="M101 57.357a2 2 0 1 1-3.999.001 2 2 0 0 1 3.999-.001M68.861 121.353h20.472l46.178-46.246h-20.404l-46.246 46.246"/><path fill="#475059" d="M195.755 128.15l-1.414-1.414 4.032-4.031a5.748 5.748 0 0 0 1.693-4.088 5.748 5.748 0 0 0-1.693-4.088l-44.085-44.734a5.753 5.753 0 0 0-.449-.403l-.113-.082a5.7 5.7 0 0 0-.371-.269l-.119-.07a5.637 5.637 0 0 0-.397-.228l-.103-.047a5.99 5.99 0 0 0-.438-.195 7.563 7.563 0 0 0-.561-.184 5.958 5.958 0 0 0-1.735-.2l-1.341.047.015-.057h-21.134a5.743 5.743 0 0 0-4.088 1.693l-3.157 3.156-1.414-1.414 3.157-3.156a7.73 7.73 0 0 1 5.502-2.279h23.835l-.031.09.131.02a7.795 7.795 0 0 1 1.454.388l.094.033c.201.078.397.167.592.262l.131.061c.186.096.362.2.538.308l.163.098c.166.108.33.23.493.355l.155.115c.213.173.416.355.611.55l44.084 44.733a7.726 7.726 0 0 1 2.274 5.497c0 2.078-.81 4.032-2.279 5.502l-4.032 4.031m-70.113 70.114H80.466l-38.201-39.776c-3.019-3.02-3.019-7.957.014-10.991l24.323-23.673 1.394 1.434-24.312 23.663c-2.244 2.245-2.244 5.912.009 8.167l37.625 39.176h43.495l16.905-16.904 1.414 1.414-17.49 17.49"/><path fill="#DEDEDD" d="M85.884 124.377H71.706l-26.598 25.949a3.785 3.785 0 0 0 0 5.347l36.974 38.591h17.625L63.584 159.97c-3.869-3.868-3.869-10.073-.056-13.887l22.356-21.706"/><path fill="#F58E70" d="M100.119 134.453l5.676 5.186 48.003-48.003-5.676-5.186-48.003 48.003"/><path fill="#475059" d="M64.032 123.353h22.951l58.726 57.593 50.832-50.831-58.204-57.008h-24.059l-50.246 50.246zm81.691 60.407l-59.557-58.407H59.204l54.246-54.246h25.704l60.23 58.993-53.661 53.66z"/><path fill="#DEDEDD" d="M167.215 196.357a3 3 0 1 1-6 0 3 3 0 0 1 6 0m-24-1a2 2 0 1 1-4 0 2 2 0 0 1 4 0m8-3a1 1 0 1 1 2 0 1 1 0 0 1-2 0m28 3a2 2 0 1 1 4 0 2 2 0 0 1-4 0m10 0a2 2 0 1 1 4 0 2 2 0 0 1-4 0m-38 1a1 1 0 1 1 2 0 1 1 0 0 1-2 0m58-1a2 2 0 1 1-4 0 2 2 0 0 1 4 0m-80 1a1 1 0 1 1 2 0 1 1 0 0 1-2 0m-22-8a1 1 0 1 1 2 0 1 1 0 0 1-2 0m-10-14a3 3 0 1 1-6 0 3 3 0 0 1 6 0"/><path fill="#475059" d="M140.393 132.392l6.838 2.152-2.799-6.589-62.881-55.891a3.007 3.007 0 0 0-4.245.199 2.985 2.985 0 0 0-.775 2.161 2.98 2.98 0 0 0 .981 2.076l62.881 55.892zm10.376 5.362l-11.385-3.583-.16-.142-63.049-56.041a4.975 4.975 0 0 1-1.641-3.467 4.963 4.963 0 0 1 1.291-3.602 5.004 5.004 0 0 1 7.063-.343l63.209 56.183 4.672 10.995z"/><path fill="#475059" d="M82.476 82.355l-1.482-1.344 5.106-5.627 1.481 1.344-5.105 5.627"/><path fill="#475059" d="M141.363 130.53L83.778 79.447l1.327-1.496 57.585 51.082-1.327 1.497"/><path fill="#48515A" d="M213 173.356h2v-4h-2zM213 183.356h2v-4h-2zM217 177.356h4v-2h-4zM207 177.356h4v-2h-4zM35 89.357h2v-4h-2zM35 99.357h2v-4h-2zM39 93.357h4v-2h-4zM29 93.357h4v-2h-4z"/><path fill="#475059" d="M195.249 88.307a10.976 10.976 0 0 1-7.785-3.219l-18.875-18.875c-2.992-2.992-2.992-7.86 0-10.851 2.991-2.993 7.86-2.993 10.851 0l18.875 18.875a4.34 4.34 0 0 1 0 6.132 4.341 4.341 0 0 1-6.133 0l-18.85-18.85 1.414-1.414 18.85 18.85a2.34 2.34 0 0 0 3.305 0 2.339 2.339 0 0 0 0-3.304l-18.875-18.875a5.679 5.679 0 0 0-8.023 0 5.68 5.68 0 0 0 0 8.023l18.875 18.875a8.953 8.953 0 0 0 6.371 2.638 8.955 8.955 0 0 0 6.371-2.638c3.512-3.513 3.512-9.229-.001-12.742l-18.874-18.875 1.414-1.414 18.874 18.875c4.293 4.292 4.293 11.277.001 15.57a10.978 10.978 0 0 1-7.785 3.219"/><path fill="#F58E70" d="M209 99.357a2 2 0 1 1-3.999.001 2 2 0 0 1 3.999-.001"/><path fill="#475059" d="M38 132.357c-1.103 0-2 .897-2 2s.897 2 2 2 2-.897 2-2-.897-2-2-2zm0 6c-2.206 0-4-1.794-4-4 0-2.205 1.794-4 4-4s4 1.795 4 4c0 2.206-1.794 4-4 4z"/></g></svg>