<?xml version="1.0" encoding="utf-8"?><svg xmlns="http://www.w3.org/2000/svg" width="250" height="250" viewBox="0 0 250 250"><g fill="none" fill-rule="evenodd"><path fill="#E9886C" d="M151.105 84.745a3 3 0 1 1 0-6 3 3 0 0 1 0 6zm-46.017 0a3 3 0 1 1 0-6 3 3 0 0 1 0 6zm57.372-4.458h-.002l-1.177-1.212c-3.285-3.378-7.677-5.237-12.323-5.225-4.657.008-9.023 1.877-12.292 5.262l-.523.541-1.044 1.155v7.944h-3.747l5.632 12.504-5.48 9.911h3.386v2.876h-14.381v-2.876h3.816l-5.48-9.911 5.632-12.504h-3.378v-7.863l-1.478-1.632c-3.292-3.406-7.664-5.278-12.327-5.285-4.513-.028-8.81 1.755-12.064 4.971l-1.288 1.324c-6.958 7.156-7.266 19.092-.681 26.602l34.813 38.751 34.951-38.907c6.515-7.418 6.259-19.241-.565-26.426z"/><path fill="#434A4F" d="M200.014 141.22h2v-4h-2zM200.014 151.22h2v-4h-2zM204.014 145.22h4v-2h-4zM194.014 145.22h4v-2h-4z"/><path fill="#FACD60" d="M55.079 45.06a3 3 0 1 1-6 0 3 3 0 0 1 6 0"/><path fill="#DBDBD5" d="M45.077 68.757h21.937V57.318H45.077z"/><path fill="#42494E" d="M51.313 61.525c-.776 0-1.407.631-1.407 1.407s.631 1.407 1.407 1.407a1.408 1.408 0 0 0 0-2.814zm0 4.814a3.411 3.411 0 0 1-3.407-3.407 3.411 3.411 0 0 1 3.407-3.407 3.412 3.412 0 0 1 3.407 3.407 3.412 3.412 0 0 1-3.407 3.407zm9.627-4.814c-.776 0-1.407.631-1.407 1.407s.631 1.407 1.407 1.407 1.407-.631 1.407-1.407-.631-1.407-1.407-1.407zm0 4.814a3.411 3.411 0 0 1-3.407-3.407 3.411 3.411 0 0 1 3.407-3.407 3.411 3.411 0 0 1 3.407 3.407 3.411 3.411 0 0 1-3.407 3.407z"/><path fill="#DBDBD5" d="M67.09 51.746h121.13V40.307H67.09z"/><path fill="#42494E" d="M73.326 44.515c-.776 0-1.407.631-1.407 1.407s.631 1.407 1.407 1.407 1.407-.631 1.407-1.407-.631-1.407-1.407-1.407zm0 4.814a3.41 3.41 0 0 1-3.407-3.407 3.41 3.41 0 0 1 3.407-3.407 3.411 3.411 0 0 1 3.407 3.407 3.411 3.411 0 0 1-3.407 3.407zm9.627-4.814c-.776 0-1.407.631-1.407 1.407s.631 1.407 1.407 1.407 1.407-.631 1.407-1.407-.631-1.407-1.407-1.407zm0 4.814a3.41 3.41 0 0 1-3.407-3.407 3.41 3.41 0 0 1 3.407-3.407 3.41 3.41 0 0 1 3.407 3.407 3.41 3.41 0 0 1-3.407 3.407zm9.627-4.814a1.408 1.408 0 0 0 0 2.814c.776 0 1.407-.631 1.407-1.407s-.631-1.407-1.407-1.407zm0 4.814a3.41 3.41 0 0 1-3.406-3.407 3.41 3.41 0 0 1 3.406-3.407 3.41 3.41 0 0 1 3.407 3.407 3.41 3.41 0 0 1-3.407 3.407z"/><path fill="#434A4F" d="M195.087 186.74v-2c3.308 0 6-2.691 6-6v-6.996h2v6.996c0 4.411-3.589 8-8 8M88.087 165.744h121v-2h-121zM74.087 186.74h121v-2h-121z"/><path fill="#42494E" d="M82.073 95.759h4v-4h-4v4zm-2 2h8v-8h-8v8z"/><path fill="#434A4F" d="M163.431 76.984l1.034 1.06c3.416 3.515 5.429 8.027 6.046 12.715h2.01c-.627-5.199-2.838-10.215-6.622-14.108l-.747-.771-.004-.593h-.583a22.02 22.02 0 0 0-10.453-5.816v2.063a20.08 20.08 0 0 1 9.319 5.45m-71.636 1.187l1.212-1.247a20.011 20.011 0 0 1 9.079-5.249v-2.067a22.057 22.057 0 0 0-10.691 6.102l-1.032 1.065c-3.753 3.86-5.954 8.827-6.602 13.984h2.01c.636-4.644 2.639-9.107 6.024-12.588m73.462 30.546l-35.103 39.077h1.945v.827l34.653-38.575c3.321-3.781 5.222-8.461 5.773-13.287h-1.997c-.54 4.347-2.279 8.552-5.271 11.958m-39.263 39.077l-34.988-38.947c-3.02-3.444-4.761-7.697-5.284-12.088h-1.996c.532 4.869 2.436 9.598 5.783 13.415l34.59 38.504v-.884h1.895"/><path fill="#42494E" d="M104.086 67.745h4v1.267c.673.025 1.34.075 2 .159v-3.426h-8v3.863a22.324 22.324 0 0 1 2-.382v-1.481m6 6v-2.553a20.077 20.077 0 0 0-2-.179v.732h-4v-.493c-.677.108-1.343.249-2 .423v2.07h8"/><path fill="#42494E" d="M108.086 71.013c.674.027 1.34.086 2 .179v-2.021a22.432 22.432 0 0 0-2-.159v2.001m-4 .239v-2.026c-.675.098-1.341.224-2 .382v2.067a20.286 20.286 0 0 1 2-.423m50.026 2.493v-2.211a19.496 19.496 0 0 0-2-.418v.629h-4v-.852c-.674.029-1.34.091-2 .185v2.667h8m-6-6h4v1.349c.675.096 1.341.221 2 .377v-3.726h-8v3.312c.66-.086 1.327-.138 2-.164v-1.148"/><path fill="#42494E" d="M148.112 70.893v-2c-.673.026-1.34.078-2 .164v2.021c.66-.094 1.326-.156 2-.185m4 .223c.676.105 1.343.244 2 .418v-2.063a22.308 22.308 0 0 0-2-.377v2.022M127.791 149.794h.566l1.797-2h-4.16l1.797 2"/><path fill="#42494E" d="M130.099 153.794h-4v-2.889l-2-2.227v7.116h8v-7.173l-2 2.227v2.946"/><path fill="#42494E" d="M130.154 147.794l-1.797 2h1.742v1.054l2-2.227v-.827h-1.945M126.099 149.794h1.692l-1.797-2h-1.895v.884l2 2.227v-1.111M170.126 95.759h4v-4h-4v4zm-2 2h8v-8h-8v8z"/><path fill="#434A4F" d="M122.099 75.752h1.086c-3.565-3.681-8.141-5.951-13.099-6.581v2.021c4.417.62 8.493 2.67 11.681 5.97l.332.365v-1.775m10.97-.113l-.103.113h1.133v1.698l.409-.421c3.165-3.278 7.213-5.321 11.604-5.951v-2.021c-4.94.642-9.497 2.91-13.043 6.582"/><path fill="#42494E" d="M122.099 87.752h2.829l.45-1h-2.279v-10h10v10h-2.648l.451 1h3.197v-5.838l1-1.106v-6.056h-14v6.137l1 1.104v5.759"/><path fill="#42494E" d="M124.477 88.752l.451-1h-2.829v-5.759l-1-1.104v7.863h3.378M134.099 87.752h-3.197l.45 1h3.747v-7.944l-1 1.106v5.838"/><path fill="#42494E" d="M107.921 82.912h14.165v-2h-14.165z"/><path fill="#42494E" d="M105.088 79.745c-1.103 0-2 .897-2 2s.897 2 2 2 2-.897 2-2-.897-2-2-2zm0 6c-2.205 0-4-1.795-4-4 0-2.206 1.795-4 4-4 2.206 0 4 1.794 4 4 0 2.205-1.794 4-4 4zM133.106 82.912h15.166v-2h-15.166z"/><path fill="#42494E" d="M151.105 79.745c-1.102 0-2 .897-2 2s.898 2 2 2c1.103 0 2-.897 2-2s-.897-2-2-2zm0 6c-2.206 0-4-1.795-4-4 0-2.206 1.794-4 4-4s4 1.794 4 4c0 2.205-1.794 4-4 4zM123.451 111.651l-5.723-10.349 8.636-19.175h3.102l8.635 19.175-5.722 10.349-1.75-.967 5.238-9.474-7.694-17.083h-.516l-7.695 17.083 5.239 9.474-1.75.967"/><path fill="#42494E" d="M126.946 101.103h2v-17.98h-2z"/><path fill="#42494E" d="M127.943 103.102c-.13 0-.26-.01-.39-.04-.129-.02-.25-.06-.37-.11a2.31 2.31 0 0 1-.349-.19 1.4 1.4 0 0 1-.3-.25c-.37-.37-.59-.88-.59-1.41 0-.13.02-.26.04-.39a2.3 2.3 0 0 1 .119-.38c.05-.12.111-.23.181-.34.069-.11.149-.21.25-.3.09-.1.189-.18.3-.25.109-.08.229-.14.349-.19a2.024 2.024 0 0 1 2.181.44c.369.37.579.88.579 1.41 0 .52-.21 1.04-.579 1.41a2.01 2.01 0 0 1-1.421.59M135.889 114.043h-2v-1.876h-12.38v1.876h-2v-3.876h16.38v3.876"/><path fill="#FACD60" d="M40.07 119.104a3 3 0 1 1-6 0 3 3 0 0 1 6 0"/><path fill="#75C7D0" d="M216.343 101.569a8 8 0 1 1-16 0 8 8 0 0 1 16 0"/><path fill="#42494E" d="M208.344 90.828c-5.923 0-10.742 4.818-10.742 10.741s4.819 10.741 10.742 10.741c5.922 0 10.741-4.818 10.741-10.741s-4.819-10.741-10.741-10.741zm0 23.482c-7.026 0-12.742-5.715-12.742-12.741 0-7.025 5.716-12.741 12.742-12.741 7.025 0 12.741 5.716 12.741 12.741 0 7.026-5.716 12.741-12.741 12.741z"/><path fill="#42494E" d="M208.343 90.828c-2.885 0-5.323 4.919-5.323 10.741 0 5.823 2.438 10.741 5.323 10.741 2.884 0 5.322-4.918 5.322-10.741 0-5.822-2.438-10.741-5.322-10.741zm0 23.482c-4.106 0-7.323-5.596-7.323-12.741 0-7.144 3.217-12.741 7.323-12.741 4.105 0 7.322 5.597 7.322 12.741 0 7.145-3.217 12.741-7.322 12.741z"/><path fill="#42494E" d="M196.602 102.569h23.483v-2h-23.483z"/><path fill="#434A4F" d="M183.004 201.256h2v-4h-2zM183.004 211.256h2v-4h-2zM187.004 205.256h4v-2h-4zM177.004 205.256h4v-2h-4zM34.915 170.237h2v-4h-2zM34.915 180.237h2v-4h-2zM38.915 174.237h4v-2h-4zM28.915 174.237h4v-2h-4zM209.087 163.744v2a6.011 6.011 0 0 1 5.917 5H96.025c-.494-3.941-3.865-7-7.938-7-4.411 0-8 3.589-8 8v6.996c0 3.309-2.691 6-6 6-3.308 0-6-2.691-6-6v-25.153h-2v25.153c0 4.411 3.589 8 8 8s8-3.589 8-8v-6.996c0-3.308 2.692-6 6-6 3.309 0 6 2.692 6 6v1h123v-1c0-4.411-3.589-8-8-8"/><path fill="#434A4F" d="M68.087 145.587V40.744h119v124h2v-126h-123v106.843h2"/><path fill="#42494E" d="M39.594 153.587h2v-7.599h-2z"/><path fill="#42494E" d="M40.594 150.558h60.023v-2H40.594z"/><path fill="#DBDBD5" d="M55.081 145.587h9.003V70.743h-9.003zM74.084 188.742c-5.522 0-10-4.477-10-10v-25.155h-9.003v41.158a4 4 0 0 0 4 4h104.003v-10.003h-89"/><path fill="#434A4F" d="M46.074 145.587V57.754h20.94v-2h-22.94v89.833h2M166.084 186.742l-.009 18.015H46.074v-51.17h-2v53.17h123.999l.011-20.014-2-.001"/><path fill="#42494E" d="M33.984 146.587c-1.654 0-3 1.346-3 3s1.346 3 3 3h67.182l6.506-3-6.506-3H33.984zm67.621 8H33.984c-2.757 0-5-2.243-5-5s2.243-5 5-5h67.621l10.843 5-10.843 5z"/></g></svg>