<?xml version="1.0" encoding="utf-8"?><svg xmlns="http://www.w3.org/2000/svg" width="250" height="250" viewBox="0 0 250 250"><g fill="none" fill-rule="evenodd"><path fill="#FFD15D" d="M92.978 184.026h16v-40.998h-16zM153.973 221.028h16v-31.995h-16zM110.978 183.022h16v-10.997h-16zM32.978 77.042H59.98V60.041H32.978zM79.976 77.042h137.003V60.041H79.976z"/><path fill="#48515A" d="M220.979 81.042H79.976v-2h139.003V58.041H79.976v-2h141.003v25.001M59.98 81.042H28.978V56.041H59.98v2H30.978v21.001H59.98v2"/><path fill="#48515A" d="M87.978 63.041h2v-6h-2zM99.978 65.042h2v-8.001h-2zM111.978 63.041h2v-6h-2zM123.978 65.042h2v-8.001h-2zM135.978 63.041h2v-6h-2zM147.978 65.042h2v-8.001h-2zM159.978 63.041h2v-6h-2zM171.978 65.042h2v-8.001h-2zM183.978 63.041h2v-6h-2zM195.978 65.042h2v-8.001h-2zM207.978 63.041h2v-6h-2zM51.978 65.042h2v-8.001h-2zM39.978 63.041h2v-6h-2zM208.979 68.041c-1.103 0-2 .897-2 2s.897 2 2 2 2-.897 2-2-.897-2-2-2zm0 6c-2.206 0-4-1.794-4-4 0-2.205 1.794-4 4-4s4 1.795 4 4c0 2.206-1.794 4-4 4z"/><path fill="#DEDEDD" d="M76.705 208.268V53.231l-3.25-2.541-3.246 2.538-.004-.003v155.043h6.5M62.455 208.268V52.514l-.053.036-2.197-1.86v157.578h2.25"/><path fill="#F58E70" d="M74.455 40.247l-4.25-8.5-4.5 8.484 8.75.016"/><path fill="#475059" d="M80.705 208.268h-2V50.927l-8.523-16.995-8.977 17.006v157.33h-2V50.442l11.023-20.88 10.477 20.891v157.815"/><path fill="#475059" d="M74.454 41.247l-8.751-.016.004-2 8.75.016-.003 2M76.73 54.52l-3.275-2.56-3.245 2.537-3.296-2.536-3.781 2.52-3.574-3.028 1.293-1.526 2.425 2.055 3.72-2.48 3.203 2.463 3.255-2.544 3.225 2.521 2.379-2.015 1.293 1.526-3.622 3.067"/><path fill="#5FE0ED" d="M127.982 169.026v-29.969l62-.039v30.008h-62M115.973 221.029h59v-17.996h-59z"/><path fill="#5FE0ED" d="M85.839 221.029v-38.665h62v17.663l-34.866.004v20.998H85.839"/><path fill="#48515A" d="M161.673 161.026h-5.615c-1.741 0-3.213-1.507-3.213-3.291h2c0 .688.567 1.291 1.213 1.291h5.615c.85 0 1.309-.861 1.309-1.671v-.96c0-.87-.477-1.369-1.309-1.369h-5.537c-1.828 0-3.154-1.555-3.154-3.698v-.961c0-1.999 1.268-3.341 3.154-3.341h5.951c1.562 0 2.786 1.194 2.786 2.719h-2c0-.472-.395-.719-.786-.719h-5.951c-.315 0-1.154 0-1.154 1.341v.961c0 .587.241 1.698 1.154 1.698h5.537c1.949 0 3.309 1.385 3.309 3.369v.96c0 2.058-1.453 3.671-3.309 3.671"/><path fill="#48515A" d="M157.982 163.026h2v-18h-2zM168.982 155.026h6v-2h-6zM168.982 159.026h6v-2h-6zM168.982 151.026h6v-2h-6zM142.982 155.026h6v-2h-6zM142.982 151.026h6v-2h-6zM142.982 159.026h6v-2h-6z"/><path fill="#48515A" d="M131.982 165.026h54v-22h-54v22zm-2 2h58v-26h-58v26z"/><path fill="#475059" d="M152.982 107.018h12v-12h-12v12zm-2 2h16v-16h-16v16z"/><path fill="#475059" d="M158.982 126.016c-3.859 0-7-3.14-7-7h2c0 2.757 2.243 5 5 5s5-2.243 5-5-2.243-5-5-5h-1v-5.998h2v4.07c3.388.486 6 3.408 6 6.928 0 3.86-3.141 7-7 7M154.399 94.018h2V81.046h-2zM161.066 94.018h2V81.046h-2z"/><path fill="#475059" d="M188.732 139.018h-2v-1.407l-27.754-15.123-28.246 15.128v1.402h-2v-2.599l30.254-16.205 29.746 16.21v2.594M30.978 57.03h-2v-2.554l40.801-25.505 133.947 24.224v3.086h-2v-1.415L70.183 31.076 30.978 55.585v1.445M95.978 214.025h-2v-3.997h-48v3.997h-2v-5.997h52v5.997"/><path fill="#475059" d="M39.978 219.028h62v-4h-62v4zm-2 2h66v-8h-66v8z"/><path fill="#FFD15D" d="M192.974 179.027h-16v42.001h5.003v-29.001h11.001l-.004-13"/><path fill="#FFD15D" d="M184.979 221.028h16v-24.991h-16zM206.92 114.987c0-6.628-5.372-12-12-12-6.627 0-12 5.372-12 12 0 6.627 5.373 12 12 12 6.628 0 12-5.373 12-12"/><path fill="#475059" d="M196.583 119.986h-3.706a2.473 2.473 0 0 1-2.46-2.48 1 1 0 0 1 2 0c0 .26.211.48.46.48h3.706a.715.715 0 0 0 .693-.7v-.633c0-.361-.318-.667-.693-.667h-3.654c-1.41 0-2.986-1.145-2.986-2.677v-.635c0-1.538 1.576-2.688 2.986-2.688h3.928c1.201 0 2.178.983 2.178 2.191a1 1 0 0 1-2 0c0-.102-.083-.191-.178-.191h-3.928c-.457 0-.986.416-.986.688v.635c0 .273.519.677.986.677h3.654c1.485 0 2.693 1.196 2.693 2.667v.633a2.7 2.7 0 0 1-2.693 2.7"/><path fill="#475059" d="M194.943 121.986a1 1 0 0 1-1-1v-12a1 1 0 1 1 2 0v12a1 1 0 0 1-1 1"/><path fill="#48515A" d="M185.979 221.028h-2v-26.992h17v2h-15v24.992M113.973 221.029h-2v-21.998h62.883v2h-60.883v19.998M85.977 180.028h62.002v-2H85.977z"/><path fill="#FFD15D" d="M114.983 105.645a4.628 4.628 0 1 1-9.256 0 4.628 4.628 0 0 1 9.256 0m-16.255 22.246a2.875 2.875 0 1 1-5.75 0 2.875 2.875 0 0 1 5.75 0m36.25-36.123a2.25 2.25 0 1 1 4.5 0 2.25 2.25 0 0 1-4.5 0m-8 28.26a2.5 2.5 0 1 1-5 0 2.5 2.5 0 0 1 5 0"/><path fill="#48515A" d="M34.947 142.035h2v-4h-2zM34.947 152.035h2v-4h-2zM38.947 146.035h4v-2h-4zM28.947 146.035h4v-2h-4zM213.053 181.058h2v-4h-2zM213.053 191.058h2v-4h-2zM217.053 185.058h4v-2h-4zM207.053 185.058h4v-2h-4z"/></g></svg>