<?xml version="1.0" encoding="utf-8"?><svg xmlns="http://www.w3.org/2000/svg" width="192" height="189" viewBox="0 0 192 189"><g fill="none" fill-rule="evenodd"><path fill="#DEDEDD" d="M115.005 95.864v5.154a5 5 0 0 1-5 5H81.998a5 5 0 0 1-5-5v-5.154H24.5v12c.001.552.448.999 1 1h140c.552-.001 1-.448 1-1v-12h-51.495"/><path fill="#48515A" d="M185 27.942a2 2 0 1 0-.001 3.999 2 2 0 0 0 .001-3.999zm0 6a4 4 0 1 1 0-8 4 4 0 0 1 0 8z"/><path fill="#475059" d="M165.5 112.864H98.083v-2H165.5a3.002 3.002 0 0 0 3-3V15.863a3.002 3.002 0 0 0-3-3h-140a3.004 3.004 0 0 0-3 3v92.001a3.004 3.004 0 0 0 3 3h68.584v2H25.5a5.005 5.005 0 0 1-4.999-5V15.863a5.005 5.005 0 0 1 4.999-5h140a5.005 5.005 0 0 1 5 5v92.001a5.005 5.005 0 0 1-5 5"/><path fill="#475059" d="M93.75 134.866H73l.013-3.08 2.989-18.17v-2.752h15.915v2H78.002l-.013.996L75 132.03v.836h18.75v2M119.503 134.866H98.076v-2h19.427v-.835l-3.002-18.167v-1h-14.084v-2h16.084v2.918l3.002 18.167v2.917"/><path fill="#475059" d="M98.076 134.864h25.425v-2H98.076zM69.501 134.864h24.25v-2h-24.25z"/><path fill="#DEDEDD" d="M77.717 130.865h37.565l-2.656-16.001H80.349l-2.632 16.001M130.464 155.021h6v-6h-6v6zm-4 8h10v-6h-10v6zm4 8h6v-6h-6v6zm0 8h6v-6h-6v6zm-8-8h6v-6h-6v6zm0 8h6v-6h-6v6zm-8-8h6v-6h-6v6zm0 8h6v-6h-6v6zm-8-8h6v-6h-6v6zm-36 8h42v-6h-42v6zm-8 0h6v-6h-6v6zm-8 0h6v-6h-6v6zm-8 0h6v-6h-6v6zm-8 0h6v-6h-6v6zm0-8h10v-6h-10v6zm0-8h6v-6h-6v6zm0-8h10v-6h-10v6zm12 0h6v-6h-6v6zm8 0h6v-6h-6v6zm8 0h6v-6h-6v6zm8 0h6v-6h-6v6zm8 0h6v-6h-6v6zm8 0h6v-6h-6v6zm8 0h6v-6h-6v6zm4 8h6v-6h-6v6zm-4 8h6v-6h-6v6zm-4-8h6v-6h-6v6zm-4 8h6v-6h-6v6zm-4-8h6v-6h-6v6zm-4 8h6v-6h-6v6zm-4-8h6v-6h-6v6zm-4 8h6v-6h-6v6zm-4-8h6v-6h-6v6zm-4 8h6v-6h-6v6zm-4-8h6v-6h-6v6zm-4 8h6v-6h-6v6zm-4-8h6v-6h-6v6zm-8 0h6v-6h-6v6zm4 8h6v-6h-6v6zm56-16h6v-6h-6v6zm4 8h6v-6h-6v6zm4-8h6v-6h-6v6zm4 8h6v-6h-6v6zm4-8h6v-6h-6v6zm15-9h-100a2 2 0 0 0-2 2v32a2 2 0 0 0 2 2h100a2 2 0 0 0 2-2v-32a2 2 0 0 0-2-2z"/><path fill="#48515A" d="M93.939 183.021H37.464a3.004 3.004 0 0 1-3-3v-32a3.004 3.004 0 0 1 3-3h56.351v2H37.464a1.002 1.002 0 0 0-1 1v32c.001.552.448.999 1 1h56.475v2m43.525 0H97.748v-2h39.716c.552-.001 1-.448 1-1v-32c0-.552-.448-.999-1-1H97.935v-2h39.529a3.003 3.003 0 0 1 3 3v32a3.003 3.003 0 0 1-3 3m17.037-32.133a3.004 3.004 0 0 0-3 3v22a3.004 3.004 0 0 0 3 3H166.5a3.004 3.004 0 0 0 3-3v-22a3.004 3.004 0 0 0-3-3h-11.999zm11.999 30h-11.999a5.006 5.006 0 0 1-5-5v-22a5.006 5.006 0 0 1 5-5H166.5a5.006 5.006 0 0 1 5 5v22a5.006 5.006 0 0 1-5 5z"/><path fill="#DEDEDD" d="M166.5 152.888h-5v7h-2v-7h-4.999c-.552.001-1 .448-1 1v22c0 .552.448.999 1 1H166.5a1.002 1.002 0 0 0 1-1v-22a1.002 1.002 0 0 0-1-1"/><path fill="#48515A" d="M16 154.942h2v-4h-2zM16 164.942h2v-4h-2zM20 158.942h4v-2h-4zM10 158.942h4v-2h-4zM184 122.942h2v-4h-2zM184 132.942h2v-4h-2zM188 126.942h4v-2h-4zM178 126.942h4v-2h-4zM6 50.942h2v-4H6zM6 60.942h2v-4H6zM10 54.942h4v-2h-4zM0 54.942h4v-2H0z"/><path fill="#FFD15D" d="M182.438 66.942a2.437 2.437 0 1 1 0 4.874 2.437 2.437 0 0 1 0-4.874"/><path fill="#FFD15D" d="M182.438 67.442a1.937 1.937 0 1 0-.002 3.874 1.937 1.937 0 0 0 .002-3.874zm0 4.875a2.937 2.937 0 1 1-.001-5.875 2.937 2.937 0 0 1 .001 5.875zm-4.876-66.25a2.437 2.437 0 1 1 .002 4.874 2.437 2.437 0 0 1-.002-4.874"/><path fill="#FFD15D" d="M177.563 6.567a1.937 1.937 0 1 0-.002 3.874 1.937 1.937 0 0 0 .002-3.874zm0 4.875a2.938 2.938 0 1 1-.001-5.875 2.938 2.938 0 0 1 .001 5.875z"/><path fill="#5FE0ED" d="M13.562 30.067a2.437 2.437 0 1 1 .002 4.874 2.437 2.437 0 0 1-.002-4.874"/><path fill="#DEDEDD" d="M8 72.942a2 2 0 1 1 .001 3.999A2 2 0 0 1 8 72.942m148 54a2 2 0 1 1 .001 3.999 2 2 0 0 1-.001-3.999m-38-126a2 2 0 1 1 .001 3.999A2 2 0 0 1 118 .942"/><path fill="#48515A" d="M11 16.943H9V9.942H8v-2h3v9.001"/><path fill="#48515A" d="M8 17.943h4v-2H8zM137 124.943h-2v-7.001h-1v-2h3v9.001"/><path fill="#48515A" d="M134 125.943h4v-2h-4zM180 95.941a1.002 1.002 0 0 0-1 1v4.001a1 1 0 0 0 2 0v-4.001a1.002 1.002 0 0 0-1-1zm0 8.001a3.004 3.004 0 0 1-3-3v-4.001a3 3 0 1 1 6 0v4.001a3.004 3.004 0 0 1-3 3zm-132 22a1.002 1.002 0 0 0-1 1v4.001a1 1 0 0 0 2 0v-4.001a1.002 1.002 0 0 0-1-1zm0 8.001a3.004 3.004 0 0 1-3-3v-4.001a3 3 0 1 1 6 0v4.001a3.004 3.004 0 0 1-3 3z"/><path fill="#475059" d="M77.998 83.138v17.88a4.005 4.005 0 0 0 4 4h28.007a4.005 4.005 0 0 0 4-4v-17.88H77.998zm32.007 23.88H81.998a6.007 6.007 0 0 1-6-6v-19.88h40.007v19.88a6.006 6.006 0 0 1-6 6z"/><path fill="#475059" d="M86.999 81.138h2V70.013a1 1 0 0 0-2 0v11.125zm4 2h-6V70.013a3 3 0 1 1 6 0v13.125zm12.002-2h2V70.013a1 1 0 0 0-2 0v11.125zm4 2h-6V70.013a3 3 0 1 1 6 0v13.125zM97 189h2v-82.86h-2zM93 189h2v-82.861h-2z"/><path fill="#DEDEDD" d="M79.996 85.137h32.008v9a3 3 0 0 1-3 3H82.996a3 3 0 0 1-3-3v-9M96 43.021c10.241.005 18.983 7.401 20.685 17.5 2.002-11.424-5.636-22.308-17.06-24.31-11.424-2.002-22.308 5.636-24.31 17.06a21.016 21.016 0 0 0 0 7.25C77.017 50.422 85.759 43.026 96 43.021"/><path fill="#FFD15D" d="M94 78.022h4v-9.001h-4zM94 45.021h4V36.02h-4z"/><path fill="#475059" d="M96 79.021a21.993 21.993 0 0 1-6.114-.861l.554-1.922a20.216 20.216 0 0 0 11.078.013l.55 1.922a22.04 22.04 0 0 1-6.068.848"/><path fill="#475059" d="M85.608 76.417c-10.71-5.74-14.739-19.074-8.999-29.783 5.739-10.71 19.074-14.739 29.783-8.999 10.709 5.739 14.738 19.073 8.999 29.783a22.004 22.004 0 0 1-8.652 8.809l-.978-1.745c9.64-5.392 13.085-17.577 7.694-27.217-5.392-9.641-17.577-13.085-27.217-7.694-9.641 5.392-13.085 17.577-7.694 27.217a20.005 20.005 0 0 0 8.01 7.867l-.946 1.762"/><path fill="#475059" d="M88 55.021a2 2 0 1 0-.001 3.999A2 2 0 0 0 88 55.02zm0 6a4 4 0 1 1 0-8 4 4 0 0 1 0 8zm16-6a2 2 0 1 0-.001 3.999A2 2 0 0 0 104 55.02zm0 6a4 4 0 1 1 0-8 4 4 0 0 1 0 8z"/></g></svg>