<?xml version="1.0" encoding="utf-8"?><svg xmlns="http://www.w3.org/2000/svg" width="193" height="164" viewBox="0 0 193 164"><g fill="none" fill-rule="evenodd"><path fill="#48515A" d="M59.026 151h-38V61h2v88h34V15h-34v10h-2V13h38v138"/><path fill="#48515A" d="M40.026 126.002a7 7 0 1 0 7 7 7.007 7.007 0 0 0-7-7zm0 16a9 9 0 1 1 9-9c-.005 4.968-4.032 8.994-9 9zm0-118.002a7 7 0 1 0 0 13.999 7 7 0 0 0 7-7 7.006 7.006 0 0 0-7-6.999zm0 15.999a9 9 0 1 1 9-9 9.01 9.01 0 0 1-9 9z"/><path fill="#DEDEDD" d="M33.026 60.999h14.002v-10H33.026z"/><path fill="#48515A" d="M33.027 97.002h14v-2h-14zM33.027 101.002h14v-2h-14zM33.027 105.002h14v-2h-14zM40.027 128.002a5 5 0 1 0 5 5 5.007 5.007 0 0 0-5-5m0-102.003a5 5 0 1 0 5 5 5.008 5.008 0 0 0-5-5"/><path fill="#DEDEDD" d="M40.027 25.999A5 5 0 1 1 40.026 36 5 5 0 0 1 40.027 26m0 102.003a5 5 0 1 1-.001 10.001 5 5 0 0 1 .001-10.001"/><path fill="#48515A" d="M63.05 149h34V15h-34v134zm-2 2h38V13h-38v138z"/><path fill="#48515A" d="M80.05 126.002a7 7 0 1 0 7 7 7.008 7.008 0 0 0-7-7zm0 16a9 9 0 1 1 9-9 9.01 9.01 0 0 1-9 9zM80.05 24a7 7 0 1 0 0 13.999 7 7 0 0 0 7-7 7.007 7.007 0 0 0-7-6.999zm0 15.999a9 9 0 1 1 9-9 9.008 9.008 0 0 1-9 9z"/><path fill="#DEDEDD" d="M73.05 60.999h14.002v-10H73.05z"/><path fill="#48515A" d="M73.051 97.002h14v-2h-14zM73.051 101.002h14v-2h-14zM73.051 105.002h14v-2h-14zM80.05 128.002a5 5 0 1 0 5 5 5.005 5.005 0 0 0-5-5m0-102.003a5 5 0 1 0 5 5 5.006 5.006 0 0 0-5-5"/><path fill="#DEDEDD" d="M80.05 25.999a5 5 0 1 1 0 10 5 5 0 0 1 0-10m0 102.003a5 5 0 1 1 0 10 5 5 0 0 1 0-10"/><path fill="#48515A" d="M169.094 92h2V70h-2z"/><path fill="#48515A" d="M171.094 151h-70.02V13h70.02v27.008h-2V15h-66.02v134h66.02v-43.167h2V151"/><path fill="#48515A" d="M120.074 126.002a7 7 0 1 0 7 7 7.008 7.008 0 0 0-7-7zm0 16a9 9 0 1 1 9-9 9.011 9.011 0 0 1-9 9zm-89.048-26.997h18V48.999h-18v66.006zm-2 2h22V46.999h-22v70.006zm42.024-2h18V48.999h-18v66.006zm-2 2h22V46.999h-22v70.006zm42.024-2h18V48.999h-18v66.006zm-2 2h22V46.999h-22v70.006zm11-93.005a7 7 0 1 0 0 13.999 7 7 0 0 0 7-7 7.007 7.007 0 0 0-7-6.999zm0 15.999a9 9 0 1 1 9-9 9.01 9.01 0 0 1-9 9z"/><path fill="#DEDEDD" d="M113.074 60.999h14.002v-10h-14.002z"/><path fill="#48515A" d="M113.075 97.002h14v-2h-14zM113.075 101.002h14v-2h-14zM113.075 105.002h14v-2h-14zM120.074 128.002a5 5 0 1 0 5 5 5.005 5.005 0 0 0-5-5m0-102.003a5 5 0 1 0 5 5 5.006 5.006 0 0 0-5-5"/><path fill="#DEDEDD" d="M120.074 25.999a5 5 0 1 1 0 10 5 5 0 0 1 0-10m0 102.003a5 5 0 1 1 0 10 5 5 0 0 1 0-10M137.027 146.999h30v-130h-30z"/><path fill="#48515A" d="M184.107 153.032h2v-4h-2zM184.107 163.032h2v-4h-2zM188.107 157.032h4v-2h-4zM178.107 157.032h4v-2h-4zM175.102 5.944h2v-4h-2zM175.102 15.944h2v-4h-2zM179.102 9.944h4v-2h-4zM169.102 9.944h4v-2h-4zM6 85.992h2v-4H6zM6 95.992h2v-4H6zM10 89.992h4v-2h-4zM0 89.992h4v-2H0zM168.783 65.995h2.667l4.633-11.119-1.813-10.882h-8.308l-1.812 10.882 4.633 11.119zm4 2h-5.333l-5.367-12.881 2.185-13.12h11.696l2.186 13.12-5.367 12.881z"/><path fill="#48515A" d="M169.117 66.999h2V52.995h-2zM178.116 43.994h-16v-8.001h2v6.001h12v-6.001h2v8.001M8.997 56.999h14.129l.938-14.066-.001-1.934H8.061v2l.936 14zm16 2H7.125L6.063 43.065l-.002-4.066h20.001v4l-1.065 16z"/><path fill="#48515A" d="M23.061 40.001h-2V29h-2v11.001h-2V29a2.002 2.002 0 0 1 2-2h2a2.002 2.002 0 0 1 2 2v11.001"/><path fill="#48515A" d="M18.061 33h4v-2h-4zM15.061 40.001h-2v-7.696l-1-1.501-1 1.501v7.696h-2V31.7l3-4.503 3 4.503v8.301M11.061 47h2v-2h-2zM15.061 47h2v-2h-2zM19.061 47h2v-2h-2zM149.937 102h35.153a3 3 0 1 0 0-6h-35.153l-6.506 3 6.506 3zm35.153 2h-35.592l-10.844-5 10.844-5h35.592a5 5 0 0 1 0 10z"/><path fill="#48515A" d="M177.11 103h2v-8h-2z"/><path fill="#48515A" d="M150.11 100h28v-2h-28z"/><path fill="#5FE0ED" d="M104.06 0a2 2 0 1 1 .001 3.999A2 2 0 0 1 104.06 0"/><path fill="#F58E70" d="M52.06 160a2 2 0 1 1 .001 3.999A2 2 0 0 1 52.06 160m126-38a2 2 0 1 1 .001 3.999 2 2 0 0 1-.001-3.999m-151.034-2.995h26V44.999h-26v74.006zm13.001 24.997c-6.076 0-11-4.925-11-11s4.924-11 11-11c6.075 0 11 4.925 11 11-.007 6.072-4.928 10.993-11 11zm0-124.003c6.075 0 11 4.925 11 11 0 6.076-4.925 11-11 11-6.076 0-11-4.924-11-11 .006-6.072 4.927-10.993 11-11zM25.027 147h30V17h-30v130z"/><path fill="#5FE0ED" d="M67.05 119.005h26V44.999h-26v74.006zm13 24.997c-6.075 0-11-4.925-11-11s4.925-11 11-11c6.076 0 11 4.925 11 11-.006 6.072-4.927 10.993-11 11zm0-124.003c6.076 0 11 4.925 11 11 0 6.076-4.924 11-11 11-6.075 0-11-4.924-11-11 .007-6.072 4.928-10.993 11-11zM65.05 147h30V17h-30v130z"/></g></svg>