<?xml version="1.0" encoding="utf-8"?><svg xmlns="http://www.w3.org/2000/svg" width="250" height="250" viewBox="0 0 250 250"><g fill="none" fill-rule="evenodd"><path fill="#FFD15D" d="M125 137h24V61h-24v76zm12.02 46.112c-6.514 0-11.795-5.281-11.795-11.796 0-6.514 5.281-11.795 11.795-11.795 6.515 0 11.796 5.281 11.796 11.795 0 6.515-5.281 11.796-11.796 11.796zM173 171v-26h4v-4h16V57h-72v138h72v-24h-20z"/><path fill="#5FE0ED" d="M87.035 38.5a2 2 0 1 1-4 0 2 2 0 0 1 4 0m-32 168a2 2 0 1 1-4 0 2 2 0 0 1 4 0"/><path fill="#F58E70" d="M45.035 136.5h24v-76h-24v76zm12 46.112c-6.515 0-11.796-5.281-11.796-11.796 0-6.514 5.281-11.795 11.796-11.795 6.514 0 11.795 5.281 11.795 11.795 0 6.515-5.281 11.796-11.795 11.796zm-16 11.888h32v-138h-32v138z"/><path fill="#475059" d="M57.034 160.021c-5.952 0-10.795 4.843-10.795 10.795 0 5.953 4.843 10.796 10.795 10.796 5.953 0 10.796-4.843 10.796-10.796 0-5.952-4.843-10.795-10.796-10.795zm0 23.591c-7.055 0-12.795-5.74-12.795-12.796 0-7.055 5.74-12.795 12.795-12.795 7.056 0 12.796 5.74 12.796 12.795 0 7.056-5.74 12.796-12.796 12.796zM52.316 70.373h9.437v-2h-9.437zM52.316 79.81h9.437v-2h-9.437zM52.316 89.247h9.437v-2h-9.437zM52.316 98.683h9.437v-2h-9.437z"/><path fill="#475059" d="M38.034 197.5h38v-144h-38v144zm-2 2h42v-148h-42v148z"/><path fill="#475059" d="M46.034 135.5h22v-74h-22v74zm-2 2h26v-78h-26v78zm53 22.521c-5.952 0-10.795 4.843-10.795 10.795 0 5.953 4.843 10.796 10.795 10.796 5.953 0 10.796-4.843 10.796-10.796 0-5.952-4.843-10.795-10.796-10.795zm0 23.591c-7.055 0-12.795-5.74-12.795-12.796 0-7.055 5.74-12.795 12.795-12.795 7.056 0 12.796 5.74 12.796 12.795 0 7.056-5.74 12.796-12.796 12.796zM92.316 70.373h9.437v-2h-9.437zM92.316 79.81h9.437v-2h-9.437zM92.316 89.247h9.437v-2h-9.437z"/><path fill="#475059" d="M78.034 197.5h38v-144h-38v144zm-2 2h42v-148h-42v148z"/><path fill="#475059" d="M86.034 135.5h22v-74h-22v74zm-2 2h26v-78h-26v78zm53 22.521c-5.952 0-10.795 4.843-10.795 10.795 0 5.953 4.843 10.796 10.795 10.796 5.953 0 10.796-4.843 10.796-10.796 0-5.952-4.843-10.795-10.796-10.795zm0 23.591c-7.055 0-12.795-5.74-12.795-12.796 0-7.055 5.74-12.795 12.795-12.795 7.056 0 12.796 5.74 12.796 12.795 0 7.056-5.74 12.796-12.796 12.796zM132.316 70.373h9.437v-2h-9.437zM132.316 79.81h9.437v-2h-9.437zM132.316 89.247h9.437v-2h-9.437zM132.316 98.683h9.437v-2h-9.437z"/><path fill="#475059" d="M157.034 199.5h-41v-148h41v2h-39v144h39v2"/><path fill="#475059" d="M126.034 135.5h22v-74h-22v74zm-2 2h26v-78h-26v78zM198.034 140.583h-2V53.5h-39v-2h41v89.083M198.034 199.5h-41v-2h39v-27h2v29M156.034 58.5h2v-2h-2v2zm0 4h2v-2h-2v2zm0 4h2v-2h-2v2zm0 4h2v-2h-2v2zm0 4h2v-2h-2v2zm0 4h2v-2h-2v2zm0 4h2v-2h-2v2zm0 4h2v-2h-2v2zm0 4h2v-2h-2v2zm0 4h2v-2h-2v2zm0 4h2v-2h-2v2zm0 4h2v-2h-2v2zm0 4h2v-2h-2v2zm0 4h2v-2h-2v2zm0 4h2v-2h-2v2zm0 4h2v-2h-2v2zm0 4h2v-2h-2v2zm0 4h2v-2h-2v2zm0 4h2v-2h-2v2zm0 4h2v-2h-2v2zm0 4h2v-2h-2v2zm0 4h2v-2h-2v2zm0 4h2v-2h-2v2zm0 4h2v-2h-2v2zm0 4h2v-2h-2v2zm0 4h2v-2h-2v2zm0 4h2v-2h-2v2zm0 4h2v-2h-2v2zm0 4h2v-2h-2v2zm0 4h2v-2h-2v2zm0 4h2v-2h-2v2zm0 4h2v-2h-2v2zm0 4h2v-2h-2v2zm0 4h2v-2h-2v2zm0 4h2v-2h-2v2z"/><path fill="#475059" d="M132.316 108.5h9.437v-2h-9.437zM171.928 105.5h44.099c1.654 0 3-1.346 3-3 0-.801-.312-1.555-.879-2.121a2.978 2.978 0 0 0-2.121-.879h-44.099l-6.505 3 6.505 3zm44.099 2H171.49l-10.844-5 10.844-5h44.537a4.97 4.97 0 0 1 3.536 1.464 4.971 4.971 0 0 1 1.464 3.536c0 2.757-2.244 5-5 5z"/><path fill="#475059" d="M208.417 106.5h2v-7.598h-2z"/><path fill="#475059" d="M172.478 103.471h36.939v-2h-36.939z"/><path fill="#48515A" d="M34.973 37.5h2v-4h-2zM34.973 47.5h2v-4h-2zM38.973 41.5h4v-2h-4zM28.973 41.5h4v-2h-4z"/><path fill="#DFE0E0" d="M97.035 162.021c-4.85 0-8.796 3.946-8.796 8.795 0 4.851 3.946 8.796 8.796 8.796s8.795-3.945 8.795-8.796c0-4.849-3.945-8.795-8.795-8.795"/><path fill="#F58E70" d="M177.035 212.5a4 4 0 1 1-8 0 4 4 0 0 1 8 0"/><path fill="#DFE0E0" d="M57.035 162.021c-4.85 0-8.796 3.946-8.796 8.795 0 4.851 3.946 8.796 8.796 8.796 4.849 0 8.795-3.945 8.795-8.796 0-4.849-3.946-8.795-8.795-8.795m80 0c-4.85 0-8.796 3.946-8.796 8.795 0 4.851 3.946 8.796 8.796 8.796s8.795-3.945 8.795-8.796c0-4.849-3.945-8.795-8.795-8.795"/><path fill="#475059" d="M211.055 168.513h-36.084V146.43h4.793v2h-2.793v18.083h32.084V148.43h-2.957v-2h4.957v22.083"/><path fill="#475059" d="M180.971 162.513h10.649l1.432 1.562 1.594-1.562h10.409V144.43h-9.592l-2.464 2.414-2.365-2.414h-9.663v18.083zm12.004 4.438l-2.235-2.438h-11.769V142.43h12.504l1.553 1.586 1.618-1.586h12.409v22.083h-11.592l-2.488 2.438z"/><path fill="#FFF" d="M182.867 151.513h6.125"/><path fill="#475059" d="M182.867 152.513h6.125v-2h-6.125z"/><path fill="#FFF" d="M182.867 155.513h6.125"/><path fill="#475059" d="M182.867 156.513h6.125v-2h-6.125z"/><path fill="#FFF" d="M202.992 147.513h-6.125"/><path fill="#475059" d="M196.867 148.513h6.125v-2h-6.125z"/><path fill="#FFF" d="M196.867 151.513h6.125"/><path fill="#475059" d="M196.867 152.513h6.125v-2h-6.125z"/><path fill="#FFF" d="M196.867 155.513h6.125"/><path fill="#475059" d="M196.867 156.513h6.125v-2h-6.125z"/><path fill="#FFF" d="M193.013 148.701v9.812"/><path fill="#475059" d="M192.013 158.513h2v-9.812h-2z"/><path fill="#FFF" d="M182.867 159.513h6.125"/><path fill="#475059" d="M182.867 160.513h6.125v-2h-6.125z"/><path fill="#FFF" d="M196.867 159.513h6.125"/><path fill="#475059" d="M196.867 160.513h6.125v-2h-6.125z"/><path fill="#FFF" d="M188.992 147.513h-6.125"/><path fill="#475059" d="M182.867 148.513h6.125v-2h-6.125z"/></g></svg>