<?xml version="1.0" encoding="utf-8"?><svg xmlns="http://www.w3.org/2000/svg" xmlns:xlink="http://www.w3.org/1999/xlink" width="192" height="162" viewBox="0 0 192 162"><defs><path id="ila" d="M0 0h18v15.94H0z"/></defs><g fill="none" fill-rule="evenodd"><g transform="translate(110 146)"><mask id="ilb" fill="#fff"><use xlink:href="#ila"/></mask><path fill="#F58E70" mask="url(#ilb)" d="M16 2V0h-6v2H8V0H2v2H0v6h2v2h2v2h2v2h2v2h2v-2h2v-2h2v-2h2V8h2V2h-2"/></g><path fill="#F58E70" d="M32 72v-2h-6v2h-2v-2h-6v2h-2v6h2v2h2v2h2v2h2v2h2v-2h2v-2h2v-2h2v-2h2v-6h-2M156 46h2v-6h-2zM158 40h6v-2h-6zM164 42h2v-2h-2zM166 40h6v-2h-6zM172 46h2v-6h-2zM158 48h2v-2h-2zM160 50h2v-2h-2zM162 52h2v-2h-2zM164 54h2v-2h-2zM166 52h2v-2h-2zM168 50h2v-2h-2zM170 48h2v-2h-2z"/><path fill="#DFE0E0" d="M147.253 11.834l-.253-.688-78.234-.001A10.234 10.234 0 0 0 58.84 1.129c-5.573.09-10.017 4.681-9.927 10.254l.002.06v5.702l98.338.001v-5.312"/><path fill="#FFD15D" d="M162.994 12.146c.003-6-4.543-11-10.159-11l-94.234-.001c5.283 0 9.622 5 10.115 11l94.278.001"/><g fill="#48515A" transform="translate(28)"><path d="M109.313 139.854H11.077v-2h98.236c4.872 0 8.687-4.084 8.687-9.297V12.146h2v116.411c0 6.335-4.694 11.297-10.687 11.297"/><path d="M41.715 10.145l92.286.001a7.435 7.435 0 0 0-1.925-5.092 9.707 9.707 0 0 0-7.241-2.908L36.86 2.145a11.297 11.297 0 0 1 4.855 8zM2.07 129.854a9.541 9.541 0 0 0 8.689 8.006l.406-.006a8.834 8.834 0 0 0 8.669-8H2.07zm9.095 10.016A11.381 11.381 0 0 1 0 128.854v-1h19.915V11.443C19.915 5.107 24.608.145 30.6.145V.129c.194 0 .385.005.577.016l93.658.001a11.703 11.703 0 0 1 8.722 3.563 9.53 9.53 0 0 1 2.39 7.532l-.087.905-96.094-.001v-1a9.486 9.486 0 0 0-8.639-9H30.6c-4.87 0-8.685 4.084-8.685 9.298v117.114a10.965 10.965 0 0 1-9.75 11.251v.046l-1 .016z"/></g><path fill="#48515A" d="M102.291 50.299l1.414-1.414 3.578 3.577-1.414 1.415-3.578-3.578M92.309 46.124L82 35.814v-4.317h4.317l10.31 10.31-1.414 1.414-9.724-9.724H84v1.489l9.723 9.723-1.414 1.415M99.327 53.141l1.414-1.414 3.639 3.639-1.414 1.414-3.639-3.639"/><path fill="#48515A" d="M101.387 60.041l-2.158-2.16 1.414-1.414.744.744 6.328-6.327-.744-.744 1.414-1.414 2.158 2.158-9.156 9.157M93.299 56.515l-1.414-1.414L112 34.986v-1.489h-1.489L90.396 53.612l-1.414-1.414 20.701-20.701H114v4.317L93.299 56.515"/><path fill="#48515A" d="M94.742 59.848l-9.156-9.156 2.159-2.158 1.414 1.414-.745.744 6.328 6.328.744-.745 1.414 1.414-2.158 2.159"/><path fill="#48515A" d="M85 63.434a3 3 0 0 1-2.121-5.122l5.484-5.484 1.414 1.414-5.484 5.485a1 1 0 0 0-.001 1.413h.001a1.022 1.022 0 0 0 1.414.001l5.485-5.485 1.414 1.414-5.485 5.485a2.982 2.982 0 0 1-2.121.879m26-.002a2.986 2.986 0 0 1-2.121-.877l-5.484-5.485 1.414-1.414 5.484 5.485a1 1 0 1 0 1.415-1.413l-.001-.001-5.484-5.485 1.414-1.414 5.484 5.485A2.998 2.998 0 0 1 111 63.432M87 22.499h22v-2H87zM63 70.499h2v-2h-2zM67 70.499h2v-2h-2zM71 70.499h2v-2h-2zM75 70.499h2v-2h-2zM79 70.499h2v-2h-2zM83 70.499h2v-2h-2zM87 70.499h2v-2h-2zM91 70.499h2v-2h-2zM95 70.499h2v-2h-2zM99 70.499h2v-2h-2zM103 70.499h2v-2h-2zM107 70.499h2v-2h-2zM111 70.499h2v-2h-2zM115 70.499h2v-2h-2zM119 70.499h2v-2h-2zM123 70.499h2v-2h-2zM127 70.499h2v-2h-2zM131 70.499h2v-2h-2zM67.989 82.499H127v-2H67.989zM63.986 86.499H127v-2H63.986zM63.986 90.499h60.018v-2H63.986zM67.989 98.499H127v-2H67.989zM63.986 102.499H127v-2H63.986zM63.986 106.499h60.018v-2H63.986zM67.989 114.499H127v-2H67.989zM63.986 118.499H127v-2H63.986zM63.986 122.499h60.018v-2H63.986zM83 26.499h30v-2H83zM6 98.202h2v-4H6zM6 108.202h2v-4H6zM10 102.202h4v-2h-4zM0 102.202h4v-2H0zM184 80h2v-4h-2zM184 90h2v-4h-2zM188 84h4v-2h-4zM178 84h4v-2h-4zM29.915 16h2v-4h-2zM29.915 26h2v-4h-2zM33.915 20h4v-2h-4zM23.915 20h4v-2h-4zM169.251 98.976l-10.728 7.387a.97.97 0 0 0-.414.807l.04 11.711a.976.976 0 0 0 .42.805l10.779 7.313.51-.002 10.729-7.388a.971.971 0 0 0 .413-.806l-.04-11.712a.969.969 0 0 0-.419-.803l-10.779-7.314-.511.002zm-.515 30.025l-11.291-7.661a2.976 2.976 0 0 1-1.296-2.451l-.04-11.713a2.97 2.97 0 0 1 1.28-2.46l11.237-7.738 1.747-.006 11.291 7.661a2.968 2.968 0 0 1 1.296 2.452l.04 11.712a2.972 2.972 0 0 1-1.278 2.46l-11.239 7.738-1.747.006z"/><path fill="#48515A" d="M169.577 115.778l-12.918-8.37 1.088-1.679 11.797 7.644 11.845-8.157 1.134 1.648-12.946 8.914"/><path fill="#48515A" d="M168.561 114.578l2-.007.044 13.301-2 .007-.044-13.301M160.562 115.028l2-.008.007 2-2 .008-.007-2M164.568 117.004l2-.007.008 2-2 .007-.008-2M174.563 115.97l2-.008.008 2-2 .008-.008-2M164.526 105.005l2-.008.008 2-2 .008-.008-2M168.526 104.991l2-.008.008 2-2 .008-.008-2M172.526 104.977l2-.008.008 2-2 .008-.008-2"/><path fill="#FFD15D" d="M28 46a4 4 0 1 1 0 8 4 4 0 0 1 0-8"/><path fill="#FFD15D" d="M28 56a6 6 0 1 1 6-6 6.007 6.007 0 0 1-6 6zm0-14a8 8 0 1 0 0 16 8 8 0 0 0 0-16zm136 100a4 4 0 1 1 0 8 4 4 0 0 1 0-8"/><path fill="#FFD15D" d="M164 152a6 6 0 1 1 6-6 6.007 6.007 0 0 1-6 6zm0-14a8 8 0 1 0 0 16 8 8 0 0 0 0-16zM26 104.359l3 2.924-.708 4.129L32 109.463l3.708 1.949-.708-4.129 3-2.924-4.146-.603L32 100l-1.854 3.756zM152 66.359l3 2.924-.708 4.129L158 71.463l3.708 1.949-.708-4.129 3-2.924-4.146-.603L158 62l-1.854 3.756z"/></g></svg>