<?xml version="1.0" encoding="utf-8"?><svg xmlns="http://www.w3.org/2000/svg" xmlns:xlink="http://www.w3.org/1999/xlink" width="193" height="193" viewBox="0 0 193 193"><defs><path id="fba" d="M.558 0h100.548v143.94H.558z"/><path id="fbc" d="M.151.028h97.596V68.94H.151z"/></defs><g fill="none" fill-rule="evenodd"><path fill="#475059" d="M122.417 121.044l-3.31-13.43V49.283h2v58.208l3.251 13.071-1.941.482M109.316 145.016a15.12 15.12 0 0 1-14.766-12.05l1.959-.4c1.449 7.074 8.358 11.633 15.431 10.184a13.076 13.076 0 0 0 10.123-9.897l1.949.444a15.185 15.185 0 0 1-14.696 11.719m-13.071-24.253h-2v-17.364C94.221 82.202 77.043 65.023 55.845 65H24.879v-2.001h30.966c22.302.026 40.374 18.099 40.4 40.4v17.364M161.106 38h-42V.995h2V36h38V.995h2V38"/><g transform="translate(60 49)"><mask id="fbb" fill="#fff"><use xlink:href="#fba"/></mask><path fill="#475059" mask="url(#fbb)" d="M98.132 72.206l-1.947-.454 2.921-12.557V0h2v59.424l-2.974 12.782M68.105 144h-2v-19.214l.635-.249a46.781 46.781 0 0 0 29.331-40.71l1.996.122a48.81 48.81 0 0 1-29.962 42.196V144m-33.998 0h-2v-17.47A48.898 48.898 0 0 1 .558 83.824l1.996-.117a46.913 46.913 0 0 0 30.897 41.19l.656.241V144"/></g><path fill="#475059" d="M62.107 121.519h-2v-17.89a4.632 4.632 0 0 0-4.628-4.628h-30.6v-2h30.6a6.635 6.635 0 0 1 6.628 6.628v17.89"/><path fill="#475059" d="M14.114 104.998h10V57.002h-10v47.996zm-2 2h14V55.002h-14v51.996zm42.037 25.03h47.996v-10H54.151v10zm-2 2h51.996v-14H52.151v14zm64.037-2h47.998v-10h-47.998v10zm-2 2h51.998v-14h-51.998v14zm10.914-51.027a6.006 6.006 0 0 1-6-6h2a4 4 0 1 0 8 0h2a6.007 6.007 0 0 1-6 6"/><path fill="#475059" d="M135.107 83.001a6.007 6.007 0 0 1-6-6h2a4 4 0 0 0 8 0h2a6.006 6.006 0 0 1-6 6"/><path fill="#475059" d="M145.113 83.001a6.007 6.007 0 0 1-6-6h2a4 4 0 0 0 8 0h2a6.007 6.007 0 0 1-6 6"/><path fill="#475059" d="M155.12 83.001a6.007 6.007 0 0 1-6-6h2a4 4 0 0 0 8 0h2a6.007 6.007 0 0 1-6 6m-38.932-45.024v10.001l47.998-.001v-10h-47.998zm-2 12V35.978l51.998-.001v14h-51.998z"/><path fill="#DEDEDD" d="M118.188 45.977h43.998V40h-43.998zM16.114 102.998h6V59.002h-6z"/><path fill="#5FE0ED" d="M55.479 95.001H28.114V66.999h27.731c20.093.023 36.377 16.307 36.4 36.4v14.629H64.107v-14.399a8.637 8.637 0 0 0-8.628-8.628"/><g transform="translate(56 124)"><mask id="fbd" fill="#fff"><use xlink:href="#fbc"/></mask><path fill="#DEDEDD" mask="url(#fbd)" d="M.151 6.028h43.996v-6H.151z"/><path fill="#5FE0ED" d="M70.011 47.675l-1.906.746V69H40.107V48.74l-1.968-.72A44.984 44.984 0 0 1 8.89 12.028h28.483c3.35 8.802 13.201 13.223 22.003 9.873a17.052 17.052 0 0 0 9.874-9.873h28.497a44.717 44.717 0 0 1-27.736 35.647" mask="url(#fbd)"/></g><path fill="#DEDEDD" d="M118.188 130.028h43.998v-6h-43.998z"/><path fill="#5FE0ED" d="M125.789 118.028l-2.682-10.782V84.739a7.903 7.903 0 0 0 6.998-1.506 7.965 7.965 0 0 0 10.005 0 7.966 7.966 0 0 0 10.007 0 7.897 7.897 0 0 0 6.989 1.508v23.224l-2.34 10.063h-28.977"/><path fill="#48515A" d="M184.106 89.024h2v-4h-2zM184.106 99.024h2v-4h-2zM188.106 93.024h4v-2h-4zM178.106 93.024h4v-2h-4zM6 141h2v-4H6zM6 151h2v-4H6zM10 145h4v-2h-4zM0 145h4v-2H0z"/><path fill="#475059" d="M76.107 54h3.578l1.773-4.023 3.296-1.903 4.371.475 1.789-3.098-2.597-3.549v-3.804l2.597-3.549-1.789-3.098-4.371.475-3.296-1.903L79.685 26h-3.578l-1.774 4.023-3.296 1.903-4.371-.475-1.789 3.098 2.597 3.549v3.804l-2.597 3.549 1.789 3.098 4.371-.475 3.296 1.903L76.107 54zm4.882 2h-6.186l-2.036-4.618-2.163-1.249-5.018.545-3.094-5.356 2.982-4.073v-2.498l-2.982-4.073 3.094-5.356 5.018.545 2.163-1.249L74.803 24h6.186l2.035 4.618 2.164 1.249 5.017-.545 3.094 5.356-2.982 4.073v2.498l2.982 4.073-3.094 5.356-5.017-.545-2.164 1.249L80.989 56z"/><path fill="#475059" d="M77.896 38a2 2 0 1 0-.001 3.999A2 2 0 0 0 77.896 38zm0 6a4 4 0 1 1 0-8 4 4 0 0 1 0 8z"/><path fill="#475059" d="M77.896 34a6 6 0 1 0 6 6 6.007 6.007 0 0 0-6-6zm0 14a8 8 0 0 1-8-8 8 8 0 1 1 16 0 8.01 8.01 0 0 1-8 8z"/><path fill="#5FE0ED" d="M106.106 93a4 4 0 1 1 0 8 4 4 0 0 1 0-8"/><path fill="#F58E70" d="M166.106 169a2 2 0 1 1 .001 3.999 2 2 0 0 1-.001-3.999"/><path fill="#475059" d="M43.108 185.25h2v-6h-2zM53.115 185.25h2v-6h-2zM48.115 179.25h2v-6.002h-2zM38.108 179.25h2v-6.002h-2z"/><path fill="#475059" d="M60.121 179.25h-2v-5.002l-24.015-.001v-2l26.015.001v7.002"/><path fill="#475059" d="M43.108 173.243h2v-6.001h-2zM53.115 173.243h2v-6.001h-2zM48.115 167.242h2v-6.001h-2zM38.108 167.242h2v-6.001h-2zM43.108 161.236h2v-6.001h-2z"/><path fill="#475059" d="M35.107 184.25h28l.002-4H35.107v4zm30 2h-32v-32.002l22.008-.014v7.002h-2v-5.001l-18.008.012v22.004H65.11l-.003 7.999z"/><path fill="#475059" d="M59.871 168.25l-25.765-.007v-2l23.765.006v-3.999h-23.76v-2h25.76v8"/></g></svg>