<?xml version="1.0" encoding="utf-8"?><svg xmlns="http://www.w3.org/2000/svg" width="250" height="250" viewBox="0 0 250 250"><g fill="none" fill-rule="evenodd"><path fill="#434A4F" d="M124.321 55.427c-38.047 0-69 30.953-69 69s30.953 69 69 69 69-30.953 69-69-30.953-69-69-69zm0 140c-39.149 0-71-31.85-71-71 0-39.149 31.851-71 71-71 39.15 0 71 31.851 71 71 0 39.15-31.85 71-71 71z"/><path fill="#434A4F" d="M94.773 195.014a21.08 21.08 0 0 1 14.857 6.131l1.484 1.481c7.4 7.382 19.438 7.383 26.839 0l1.485-1.481a21.068 21.068 0 0 1 18.093-5.879l2.072.325c10.331 1.631 20.066-5.453 21.713-15.775l.33-2.07a21.068 21.068 0 0 1 11.182-15.392l1.867-.954c9.308-4.756 13.029-16.206 8.294-25.525l-.949-1.869a21.072 21.072 0 0 1 0-19.026l.949-1.869c4.735-9.318 1.014-20.769-8.294-25.525l-1.867-.954a21.069 21.069 0 0 1-11.182-15.392l-.33-2.07c-1.647-10.322-11.394-17.398-21.713-15.776l-2.072.326a21.072 21.072 0 0 1-18.093-5.879l-1.485-1.481c-7.399-7.382-19.437-7.384-26.839 0l-1.484 1.481a21.081 21.081 0 0 1-18.094 5.879l-2.071-.326C79.139 51.77 69.398 58.848 67.751 69.17l-.33 2.07a21.069 21.069 0 0 1-11.182 15.392l-1.867.954c-9.308 4.756-13.028 16.207-8.294 25.525l.949 1.869a21.066 21.066 0 0 1 0 19.026l-.949 1.869c-4.734 9.319-1.014 20.769 8.294 25.525l1.867.954a21.068 21.068 0 0 1 11.182 15.392l.33 2.07c1.648 10.323 11.392 17.399 21.714 15.775l2.071-.325a20.896 20.896 0 0 1 3.237-.252zm29.761 15.148c-5.372 0-10.742-2.04-14.832-6.12l-1.484-1.481c-4.281-4.27-10.405-6.262-16.371-5.318l-2.072.325c-11.404 1.78-22.178-6.028-23.999-17.437l-.33-2.071a19.058 19.058 0 0 0-10.117-13.925l-1.867-.954c-10.287-5.257-14.4-17.912-9.167-28.213l.949-1.869a19.062 19.062 0 0 0 0-17.213l-.949-1.869c-5.233-10.299-1.12-22.955 9.167-28.213l1.867-.954a19.058 19.058 0 0 0 10.117-13.925l.33-2.07C67.597 57.447 78.36 49.63 89.775 51.418l2.072.326a19.073 19.073 0 0 0 16.371-5.318l1.484-1.482c8.178-8.159 21.486-8.16 29.663 0l1.485 1.482a19.07 19.07 0 0 0 16.371 5.318l2.071-.326c11.402-1.789 22.178 6.029 23.999 17.437l.33 2.07a19.058 19.058 0 0 0 10.117 13.925l1.867.954c10.288 5.258 14.4 17.914 9.167 28.213l-.949 1.869a19.062 19.062 0 0 0 0 17.213l.949 1.869c5.233 10.301 1.121 22.956-9.167 28.213l-1.867.954a19.058 19.058 0 0 0-10.117 13.925l-.33 2.071c-1.821 11.409-12.584 19.217-23.999 17.437l-2.071-.325a19.06 19.06 0 0 0-16.371 5.318l-1.485 1.481c-4.089 4.079-9.461 6.119-14.831 6.12z"/><path fill="#434A4F" d="M125.163 59.433a.994.994 0 0 1-.98-1.01c0-.56.46-1 1.01-.99.55.01.99.46.99 1.01-.01.55-.46.99-1 .99h-.02zm-4.98-.889a.988.988 0 0 1 .95-1.04c.55-.031 1.02.399 1.05.949a.997.997 0 0 1-.96 1.04v.011h-.04c-.53 0-.98-.42-1-.96zm8.92 1.059c-.55-.04-.97-.519-.93-1.07.04-.56.52-.97 1.07-.93.55.04.97.52.93 1.07-.04.53-.48.93-1 .93h-.07zm-12.9-.69a1 1 0 1 1 1.99-.21 1 1 0 0 1-.89 1.1h-.1c-.51 0-.95-.38-1-.89zm16.819 1.091h-.009a.994.994 0 0 1-.85-1.121.988.988 0 0 1 1.12-.86c.55.07.93.57.86 1.12-.07.5-.5.87-.99.87-.05 0-.09 0-.131-.009zm-20.769-.481a.999.999 0 0 1 .82-1.16l-.01.01a1 1 0 0 1 1.16.81c.09.55-.28 1.06-.82 1.16-.06.01-.11.01-.17.01-.48 0-.9-.349-.98-.83zm24.65 1.12a1.01 1.01 0 0 1-.79-1.179.997.997 0 0 1 1.18-.781c.54.1.89.63.78 1.17a.994.994 0 0 1-.98.81c-.06 0-.12-.01-.19-.02zm-28.56-.28a.998.998 0 0 1 .75-1.2 1 1 0 1 1 .45 1.95c-.08.02-.15.03-.23.03a.999.999 0 0 1-.97-.78zm32.4 1.16a1.001 1.001 0 1 1 .5-1.939c.54.139.86.679.72 1.219a1.01 1.01 0 0 1-1.22.72zm-36.25-.07a.997.997 0 1 1 1.91-.58c.16.53-.14 1.091-.67 1.25a1.004 1.004 0 0 1-1.24-.67zm40.029 1.17a.986.986 0 0 1-.639-1.26c.17-.52.73-.81 1.26-.64.52.17.81.741.64 1.26a1.006 1.006 0 0 1-1.261.64zm-43.809.14a1.002 1.002 0 1 1 1.29.6 1.007 1.007 0 0 1-1.29-.6zm47.52 1.201a.989.989 0 0 1-.56-1.301.996.996 0 1 1 1.849.74.991.991 0 0 1-1.289.561zm-51.2.339a.994.994 0 0 1 .52-1.31c.5-.22 1.09 0 1.31.511a.996.996 0 0 1-.511 1.319.946.946 0 0 1-.399.08.998.998 0 0 1-.92-.6zm54.82 1.22c-.5-.229-.72-.82-.49-1.33.24-.5.84-.71 1.33-.479h.01c.5.239.71.83.48 1.33a.994.994 0 0 1-.911.579.894.894 0 0 1-.419-.1zm-58.4.54a.994.994 0 0 1 .43-1.34c.5-.25 1.1-.06 1.35.43a1.008 1.008 0 0 1-.89 1.46c-.36 0-.71-.2-.89-.55zm61.92 1.24h-.01a.988.988 0 0 1-.39-1.35.984.984 0 0 1 1.35-.4c.49.26.66.87.4 1.35a.99.99 0 0 1-.88.52.889.889 0 0 1-.47-.12zm-65.39.741a.996.996 0 1 1 1.72-1.011c.28.471.12 1.08-.35 1.37-.16.09-.34.13-.51.13-.34 0-.68-.17-.86-.489zm68.789 1.25a1.005 1.005 0 0 1-.319-1.381c.29-.46.91-.6 1.38-.31.46.29.61.91.32 1.38-.19.3-.52.47-.85.47-.18 0-.37-.05-.531-.159zm-72.139.939a.999.999 0 0 1 .27-1.39.999.999 0 0 1 1.39.27.986.986 0 0 1-.271 1.38v.011c-.17.109-.359.169-.559.169-.32 0-.64-.16-.83-.44zm75.41 1.26v-.01a.994.994 0 0 1-.23-1.39c.32-.45.94-.56 1.39-.23.45.32.56.94.24 1.391-.2.279-.51.419-.82.419-.2 0-.4-.06-.58-.18zm-78.62 1.12a1 1 0 0 1 .19-1.399.991.991 0 0 1 1.4.179 1 1 0 1 1-1.59 1.22zm81.76 1.26a1 1 0 0 1-.15-1.409 1.01 1.01 0 0 1 1.41-.151c.43.35.49.981.15 1.41-.2.25-.49.37-.78.37-.22 0-.45-.07-.63-.22zm-84.82 1.31c-.36-.42-.31-1.05.1-1.41a.998.998 0 0 1 1.41.1.988.988 0 0 1-.101 1.41.962.962 0 0 1-.649.25c-.28 0-.56-.12-.76-.35zm87.8 1.26a.997.997 0 0 1-.06-1.41c.37-.41 1-.44 1.41-.069.41.37.44 1.009.07 1.409-.2.22-.47.33-.74.33-.24 0-.48-.09-.68-.26zm-90.7 1.49a.987.987 0 0 1 .02-1.41.996.996 0 0 1 1.41.01c.39.4.379 1.03-.01 1.42a1.015 1.015 0 0 1-1.42-.02zm93.53 1.25a.996.996 0 0 1 .02-1.41.986.986 0 0 1 1.41.021h.01a.995.995 0 0 1-.03 1.409c-.19.19-.44.29-.69.29-.26 0-.52-.11-.72-.31zm-96.26 1.68a1.01 1.01 0 0 1-.07-1.42.998.998 0 1 1 1.48 1.34v.011a.99.99 0 0 1-.74.319c-.24 0-.48-.08-.67-.25zm98.91 1.23c-.35-.42-.31-1.049.11-1.41a1 1 0 1 1-.11 1.41zm-101.46 1.85c-.43-.35-.5-.979-.15-1.41.34-.43.97-.5 1.4-.15a1 1 0 0 1-.621 1.78c-.219 0-.439-.079-.629-.22zm103.94 1.21a1 1 0 0 1 1.59-1.21 1 1 0 0 1-.191 1.4.985.985 0 0 1-1.399-.19zm-106.3 2.02c-.45-.32-.56-.95-.24-1.4.32-.45.94-.55 1.4-.24.45.32.55.95.24 1.4-.201.27-.51.42-.82.42-.2 0-.4-.059-.58-.18zm108.58 1.19c-.3-.46-.18-1.08.28-1.39a1 1 0 0 1 1.11 1.66.94.94 0 0 1-.56.17 1 1 0 0 1-.83-.44zm-110.74 2.181a1.006 1.006 0 0 1-.32-1.381c.29-.47.9-.619 1.37-.329a1.004 1.004 0 1 1-1.05 1.71zm112.83 1.149a.985.985 0 0 1 .36-1.359 1 1 0 0 1 1.37.359 1.007 1.007 0 0 1-.87 1.5.99.99 0 0 1-.86-.5zm-114.78 2.34c-.49-.26-.67-.87-.41-1.36.27-.48.87-.66 1.36-.4a1 1 0 0 1 .399 1.35.983.983 0 0 1-.879.53c-.16 0-.32-.04-.47-.12zm116.66 1.12c-.25-.5-.05-1.1.44-1.35a1.002 1.002 0 1 1 .45 1.9c-.36 0-.71-.199-.89-.55zm-118.4 2.49c-.5-.23-.72-.83-.49-1.33h.01c.23-.5.82-.72 1.32-.49.499.23.72.83.49 1.33a1.011 1.011 0 0 1-1.33.49zm120.07 1.071h-.01a.996.996 0 0 1 .52-1.311.999.999 0 0 1 .8 1.83.938.938 0 0 1-.4.08c-.39 0-.75-.22-.91-.599zm-121.58 2.629a.993.993 0 0 1-.57-1.29 1 1 0 0 1 1.86.73.995.995 0 0 1-1.29.56zm123.02 1.03v-.01a.996.996 0 0 1 .6-1.279 1.01 1.01 0 0 1 1.28.609 1.001 1.001 0 0 1-.94 1.34c-.41 0-.79-.26-.94-.66zm-124.31 2.77a.997.997 0 0 1-.64-1.26c.16-.53.73-.82 1.25-.65.53.17.82.74.65 1.26a1 1 0 0 1-1.26.65zm125.53.97a.994.994 0 0 1 .68-1.24.991.991 0 0 1 1.24.68c.16.52-.15 1.08-.68 1.241-.09.019-.18.04-.28.04-.43 0-.83-.29-.96-.721zm-126.58 2.891a1.01 1.01 0 0 1-.72-1.221.997.997 0 0 1 1.22-.72c.53.13.86.68.72 1.21v.01a1.003 1.003 0 0 1-1.22.721zm127.57.92c-.12-.541.22-1.081.76-1.201a.995.995 0 0 1 1.19.75.995.995 0 0 1-.75 1.201.875.875 0 0 1-.22.029c-.46 0-.87-.32-.98-.779zm-128.38 2.989a.994.994 0 0 1-.791-1.17.99.99 0 0 1 1.171-.79c.54.1.9.631.79 1.17a.995.995 0 0 1-1.17.79zm129.14.87c-.09-.54.28-1.06.819-1.15a.994.994 0 0 1 1.151.831.993.993 0 0 1-.82 1.139c-.05.01-.11.02-.16.02-.48 0-.91-.35-.99-.84zm-129.71 3.09a1.002 1.002 0 1 1 .13.01c-.05 0-.09-.01-.13-.01zm130.23.81a1 1 0 0 1 .9-1.09.996.996 0 0 1 1.09.89c.059.55-.34 1.04-.89 1.101h-.1a1 1 0 0 1-1-.901zm-130.56 3.17a.988.988 0 0 1-.93-1.059.99.99 0 0 1 1.06-.931c.55.03.97.51.93 1.061-.04.529-.48.939-1 .939-.02 0-.04 0-.06-.01zm130.85.76a.99.99 0 0 1 .95-1.04c.55-.029 1.02.4 1.05.96v-.01c.02.561-.41 1.021-.96 1.05h-.05c-.53 0-.97-.42-.99-.96zm-130.951 3.24c-.549 0-.989-.46-.989-1.01 0-.549.46-.99 1.01-.99s.99.46.99 1.01a1 1 0 0 1-1 .99h-.011zm131.011-.429c0-.551.449-1 1-1 .55 0 1 .449 1 1 0 .559-.45 1-1 1a.99.99 0 0 1-1-1zm-131.91 3.479a.997.997 0 1 1 1.99-.1.996.996 0 0 1-.94 1.05h-.05a1 1 0 0 1-1-.95zm132.73 1.521a1.006 1.006 0 0 1-.94-1.061c.03-.55.51-.97 1.06-.939.55.029.97.509.94 1.059a1 1 0 0 1-1 .941h-.06zm-132.41 2.519c-.05-.54.34-1.04.89-1.1a.993.993 0 0 1 1.1.88c.06.55-.33 1.04-.88 1.111h-.11c-.51 0-.94-.381-1-.891zm131.99 1.45a.986.986 0 0 1-.87-1.11c.06-.55.56-.94 1.11-.87.55.06.94.56.87 1.11a.995.995 0 0 1-.99.88c-.04 0-.08 0-.12-.01zm-131.411 2.571a.992.992 0 0 1 .811-1.151.998.998 0 0 1 1.16.81.997.997 0 0 1-.82 1.15.888.888 0 0 1-.17.021.99.99 0 0 1-.981-.83zm130.751 1.379a1.001 1.001 0 1 1 1.17-.81h-.01a.98.98 0 0 1-.98.82c-.06 0-.12 0-.18-.01zm-129.94 2.6c-.12-.54.21-1.08.75-1.21.53-.12 1.07.21 1.2.75a1.003 1.003 0 0 1-.971 1.231c-.459 0-.869-.311-.979-.771zm129.04 1.29c-.53-.13-.86-.67-.73-1.21.14-.53.68-.86 1.21-.729.54.13.87.679.74 1.21a1 1 0 0 1-1.22.729zm-127.98 2.63c-.161-.529.14-1.09.669-1.25a.994.994 0 0 1 1.241.67.995.995 0 0 1-.66 1.24c-.1.03-.2.05-.29.05-.43 0-.831-.279-.96-.71zm126.85 1.21c-.52-.17-.82-.73-.66-1.25.17-.529.73-.83 1.26-.66.53.16.82.72.66 1.25-.14.43-.53.7-.96.7-.1 0-.2-.01-.3-.04zm-125.56 2.63a.995.995 0 0 1 .589-1.279.998.998 0 1 1 .701 1.87.891.891 0 0 1-.35.069c-.4 0-.79-.25-.94-.66zm124.2 1.131a.991.991 0 0 1-.58-1.29.986.986 0 0 1 1.28-.571c.52.19.78.77.58 1.281a1 1 0 0 1-.931.649.856.856 0 0 1-.349-.069zm-122.67 2.63a.989.989 0 0 1 .51-1.321c.5-.219 1.089.01 1.32.51a1.001 1.001 0 0 1-1.83.811zm121.07 1.049a1 1 0 1 1 .823-1.821 1 1 0 0 1-.823 1.821zm-119.32 2.6h-.01a.99.99 0 0 1 .44-1.34.98.98 0 0 1 1.339.43.994.994 0 0 1-.429 1.341.975.975 0 0 1-1.34-.431zm117.5.96a.998.998 0 0 1-.41-1.35.99.99 0 0 1 1.35-.41c.49.25.67.861.42 1.35h-.01a.975.975 0 0 1-.88.53c-.16 0-.32-.04-.47-.12zm-115.54 2.59c-.28-.47-.12-1.09.349-1.369a.995.995 0 0 1 1.371.349.998.998 0 0 1-.86 1.51c-.34 0-.67-.18-.86-.49zm113.52.87c-.48-.29-.62-.91-.34-1.38.29-.47.9-.62 1.379-.33.471.29.621.9.331 1.37a1 1 0 0 1-1.37.34zm-111.34 2.551a1 1 0 0 1 .27-1.391c.45-.31 1.08-.189 1.39.26.31.46.19 1.08-.27 1.39a.973.973 0 0 1-.56.18c-.32 0-.63-.16-.83-.439zm109.1.769a1.006 1.006 0 0 1 1.15-1.65c.45.32.56.94.25 1.4-.2.28-.51.43-.83.43-.19 0-.39-.06-.57-.18zm-106.71 2.51a.99.99 0 0 1 .18-1.399.992.992 0 0 1 1.4.179.993.993 0 0 1-.18 1.401c-.18.139-.4.21-.61.21a.97.97 0 0 1-.79-.391zm104.28.67c-.43-.35-.5-.97-.16-1.41a1 1 0 1 1 .78 1.62c-.21 0-.43-.069-.62-.21zm-101.71 2.471a1 1 0 0 1 .1-1.411.998.998 0 0 1 1.41.09c.36.42.32 1.05-.091 1.41a.987.987 0 0 1-.659.25c-.28 0-.56-.12-.76-.339zm99.1.549c-.41-.36-.45-1-.08-1.41.36-.41 1-.45 1.41-.08.41.37.45 1 .08 1.41-.2.22-.47.34-.75.34-.23 0-.47-.09-.66-.26zm-96.33 2.42a.987.987 0 0 1 .01-1.41.989.989 0 0 1 1.41.01.996.996 0 0 1-.01 1.41c-.2.191-.45.29-.7.29a.972.972 0 0 1-.71-.3zm93.54.451a1.006 1.006 0 0 1 0-1.42 1.007 1.007 0 0 1 1.42.009c.38.39.38 1.02-.01 1.411a1.005 1.005 0 0 1-1.41 0zm-90.61 2.349c-.41-.37-.44-1-.08-1.41a1.01 1.01 0 0 1 1.42-.069c.41.359.44 1 .07 1.409a.979.979 0 0 1-.74.33.96.96 0 0 1-.67-.26zm87.65.34a.988.988 0 0 1 .09-1.41.999.999 0 0 1 1.41.08 1.02 1.02 0 0 1-.09 1.42.993.993 0 0 1-1.41-.09zm-84.55 2.28v.01c-.43-.35-.5-.979-.16-1.41.34-.43.97-.5 1.41-.159.43.34.5.969.159 1.409-.199.24-.489.37-.79.37a.974.974 0 0 1-.619-.22zm81.43.22a.992.992 0 0 1 .18-1.399 1 1 0 0 1 1.4.169c.34.44.26 1.07-.17 1.411-.19.139-.4.21-.62.21-.3 0-.59-.141-.79-.391zm-78.17 2.221a1.011 1.011 0 0 1-.25-1.401c.32-.45.94-.56 1.39-.24.46.311.57.94.25 1.391-.201.279-.51.429-.82.429-.2 0-.4-.06-.57-.179zm74.91.099a1.02 1.02 0 0 1 .26-1.4c.46-.31 1.08-.19 1.39.261.31.46.2 1.079-.25 1.399-.18.11-.38.17-.57.17-.32 0-.631-.149-.83-.43zm-71.52 2.13v-.01a.994.994 0 0 1-.33-1.37c.29-.469.91-.62 1.38-.33.47.29.61.901.33 1.38-.19.3-.52.47-.86.47-.18 0-.36-.04-.52-.14zm68.13-.019a1.017 1.017 0 0 1 .339-1.381 1.016 1.016 0 0 1 1.381.341c.28.479.13 1.089-.35 1.379a1.006 1.006 0 0 1-1.37-.339zm-64.6 2.04v-.011a.996.996 0 0 1-.42-1.35 1.001 1.001 0 1 1 1.77.94 1 1 0 0 1-.89.53c-.15 0-.32-.03-.46-.109zm61.09-.141a.996.996 0 0 1 .42-1.35h.01a.986.986 0 0 1 1.34.42.993.993 0 0 1-.88 1.46c-.36 0-.71-.19-.89-.53zm-57.45 1.94a.99.99 0 0 1-.49-1.33c.22-.5.82-.719 1.32-.49.5.231.719.82.49 1.33-.17.361-.53.58-.91.58-.14 0-.28-.03-.41-.09zm53.83-.26a1 1 0 0 1 .5-1.32c.51-.219 1.1 0 1.32.51a1 1 0 0 1-.5 1.32.969.969 0 0 1-.41.081.993.993 0 0 1-.91-.591zm-50.09 1.841a1.01 1.01 0 0 1-.57-1.301 1.001 1.001 0 0 1 1.87.72c-.16.4-.54.64-.94.64-.12 0-.24-.019-.36-.059zm46.37-.38a1.01 1.01 0 0 1 .59-1.29v.009c.51-.2 1.09.06 1.28.58.2.52-.06 1.09-.58 1.291-.11.04-.23.059-.351.059-.409 0-.789-.25-.939-.649zm-42.53 1.719a.991.991 0 0 1-.65-1.25c.17-.53.73-.82 1.26-.65h-.01a.997.997 0 0 1-.3 1.95c-.1 0-.2-.019-.3-.05zm38.73-.49a.987.987 0 0 1 .66-1.24v-.01a1.003 1.003 0 0 1 .59 1.92c-.1.03-.2.04-.3.04-.43 0-.82-.28-.95-.71zm-34.83 1.6a.993.993 0 0 1-.72-1.21 1 1 0 0 1 1.94.48 1.01 1.01 0 0 1-1.22.73zm30.96-.6c-.13-.53.2-1.07.73-1.2a.995.995 0 0 1 1.21.73 1 1 0 0 1-.74 1.21.973.973 0 0 1-.23.031c-.45 0-.861-.311-.97-.771zm-26.99 1.47a1 1 0 0 1-.8-1.17c.1-.54.63-.899 1.17-.8.54.1.9.63.8 1.17-.09.481-.51.82-.99.82-.06 0-.12-.009-.18-.02zm23.06-.71c-.1-.54.27-1.06.81-1.16.55-.09 1.07.27 1.16.81a.994.994 0 0 1-.81 1.16c-.06.01-.121.02-.17.02-.48 0-.9-.34-.99-.83zm-19.05 1.33a.997.997 0 1 1 .25-1.979c.54.069.93.569.87 1.109-.07.511-.5.88-1 .88-.04 0-.08 0-.12-.01zm15.089-.8a.996.996 0 0 1 .871-1.11.995.995 0 0 1 1.11.87.994.994 0 0 1-.87 1.11c-.04.01-.08.01-.12.01-.5 0-.93-.38-.991-.88zm-11.049 1.18a.99.99 0 0 1-.93-1.06.99.99 0 0 1 1.06-.929c.55.029.97.509.93 1.059a1 1 0 0 1-1 .941c-.02 0-.04 0-.06-.011zm7.06-.9a.999.999 0 0 1 .94-1.06c.549-.029 1.03.4 1.06.95.03.55-.4 1.021-.95 1.05h-.05c-.53 0-.97-.41-1-.94zm-3 1.041h-.011a.995.995 0 0 1-.989-1c0-.561.45-1 1-1 .56.009 1 .449 1 1.009 0 .55-.45.991-1 .991z"/><path fill="#E9886C" d="M124.322 197.427c-40.253 0-73-32.748-73-73s32.747-73 73-73c40.252 0 73 32.748 73 73s-32.748 73-73 73zm75.935-62.516a23.07 23.07 0 0 1 0-20.836l.949-1.87c4.237-8.338.908-18.583-7.42-22.838l-1.867-.954a23.077 23.077 0 0 1-12.248-16.858l-.33-2.069c-1.474-9.237-10.189-15.57-19.428-14.116l-2.071.325a23.076 23.076 0 0 1-19.817-6.438l-1.484-1.481c-6.621-6.606-17.394-6.606-24.014 0l-1.485 1.481c-5.18 5.168-12.588 7.58-19.816 6.438l-2.072-.325c-9.238-1.45-17.954 4.88-19.427 14.115l-.331 2.07a23.076 23.076 0 0 1-12.247 16.858l-1.867.954c-8.329 4.255-11.657 14.5-7.421 22.838l.95 1.87a23.076 23.076 0 0 1 0 20.836l-.95 1.87c-4.237 8.337-.908 18.583 7.421 22.838l1.867.954a23.076 23.076 0 0 1 12.247 16.857l.331 2.071c1.473 9.235 10.189 15.566 19.427 14.115l2.071-.325a22.782 22.782 0 0 1 3.545-.277 23.084 23.084 0 0 1 16.272 6.716l1.485 1.481c6.62 6.605 17.393 6.604 24.014 0l1.484-1.481c5.18-5.168 12.588-7.579 19.817-6.439l2.071.325c9.24 1.446 17.954-4.879 19.428-14.115l.33-2.071a23.077 23.077 0 0 1 12.248-16.857l1.867-.954c8.328-4.255 11.657-14.501 7.421-22.838l-.95-1.87z"/><path fill="#434A4F" d="M119.069 71.057l-.925-8.953a62.879 62.879 0 0 1 2.146-.183l.617 8.978a55.97 55.97 0 0 0-1.838.158zm12.895.203a52.503 52.503 0 0 0-1.83-.215l.892-8.956c.719.072 1.433.156 2.143.251l-1.205 8.92zm-23.715 2.05l-2.734-8.574a59.196 59.196 0 0 1 2.064-.619l2.436 8.664a56.06 56.06 0 0 0-1.766.529zm34.456.547c-.579-.204-1.163-.4-1.751-.586l2.711-8.582a60.99 60.99 0 0 1 2.04.684l-3 8.484zm-44.587 3.878l-4.435-7.832c.627-.355 1.26-.698 1.9-1.031l4.156 7.982c-.546.284-1.086.577-1.621.881zm54.558.859a52.22 52.22 0 0 0-1.588-.928l4.406-7.848a63.97 63.97 0 0 1 1.86 1.087l-4.678 7.689zm-63.571 5.538l-5.943-6.759a59.212 59.212 0 0 1 1.651-1.399l5.694 6.971c-.475.388-.942.783-1.402 1.187zm72.385 1.143c-.451-.42-.91-.833-1.375-1.239l5.914-6.783c.541.47 1.073.95 1.596 1.438l-6.135 6.584zm-79.923 6.956l-7.181-5.426a63.72 63.72 0 0 1 1.327-1.693l6.99 5.668a52.9 52.9 0 0 0-1.136 1.451zm87.201 1.371a54.888 54.888 0 0 0-1.09-1.484l7.156-5.457a57.69 57.69 0 0 1 1.279 1.742l-7.345 5.199zm-92.931 8.076l-8.135-3.849a61.68 61.68 0 0 1 .954-1.929l7.996 4.131c-.28.543-.552 1.093-.815 1.647zm98.364 1.556a56.62 56.62 0 0 0-.766-1.682l8.125-3.871c.309.65.608 1.304.895 1.965l-8.254 3.588zM72.16 112.097l-8.752-2.101c.169-.702.349-1.398.541-2.089l8.672 2.406c-.163.59-.317 1.186-.461 1.784zm105.385 1.675a56.652 56.652 0 0 0-.405-1.802l8.744-2.127c.17.697.327 1.397.473 2.101l-8.812 1.828zm-106.853 9.279l-8.996-.275c.023-.72.057-1.436.104-2.15l8.98.582a56.27 56.27 0 0 0-.088 1.843zm116.973 1.72h-9c0-.618-.01-1.233-.03-1.847l8.994-.304c.024.715.036 1.431.036 2.151zm-.541 8.279l-8.922-1.175c.08-.609.15-1.219.208-1.833l8.959.867c-.07.718-.151 1.431-.245 2.141zm-124.526 2.584a60.453 60.453 0 0 1-.332-2.13l8.914-1.237c.085.611.179 1.217.285 1.821l-8.867 1.546zm121.542 9.963l-8.494-2.972c.202-.58.395-1.165.58-1.754l8.589 2.683a58.121 58.121 0 0 1-.675 2.043zm-118.033 2.456a64.512 64.512 0 0 1-.763-2.021l8.472-3.035c.208.581.426 1.157.655 1.73l-8.364 3.326zm112.541 9.213l-7.705-4.652c.318-.524.625-1.054.923-1.59l7.863 4.379c-.35.628-.71 1.249-1.081 1.863zm-106.56 2.225a61.331 61.331 0 0 1-1.158-1.817l7.67-4.709c.323.527.654 1.046.994 1.561l-7.506 4.965zm98.814 8.071l-6.609-6.107c.418-.453.83-.912 1.233-1.38l6.809 5.887c-.47.542-.946 1.075-1.433 1.6zm-90.643 1.898a67.678 67.678 0 0 1-1.495-1.537l6.552-6.17c.424.45.856.893 1.294 1.33l-6.351 6.377zm80.963 6.626l-5.231-7.325c.502-.358.998-.724 1.488-1.1l5.473 7.144c-.57.437-1.146.864-1.73 1.281zm-70.94 1.483a71.664 71.664 0 0 1-1.775-1.201l5.164-7.371c.505.354 1.016.7 1.533 1.037l-4.922 7.535zm59.722 4.897l-3.626-8.236c.567-.25 1.128-.508 1.685-.775l3.898 8.111c-.647.312-1.299.611-1.957.9zm-48.259 1.005a59.59 59.59 0 0 1-1.988-.816l3.562-8.266a52.71 52.71 0 0 0 1.7.7l-3.274 8.382zm35.968 2.947l-1.856-8.807a53.68 53.68 0 0 0 1.795-.411l2.164 8.736c-.697.173-1.398.333-2.103.482zm-23.537.484a66.49 66.49 0 0 1-2.11-.392l1.786-8.82c.603.122 1.211.234 1.822.337l-1.498 8.875zm10.714.869l-.026-9a54.031 54.031 0 0 0 1.847-.037l.33 8.994c-.714.027-1.431.041-2.151.043z"/><path fill="#E9886C" d="M129.809 175.927s-2.5-33.256-3.249-36.254c.621 0 1.124-.503 1.124-1.124v-2.811l-2.857-3.374-2.763 3.374v2.811c0 .621.503 1.124 1.124 1.124-.749 2.998-3.249 36.254-3.249 36.254h9.87"/><path fill="#DDDED9" d="M116.229 123.938v2.456l8.504 4.777 8.432-4.637.075-4.495v-3.789c.323-.318.653-.659.949-1.003a3.81 3.81 0 0 0-.281.266c-1.182 1.271-2.975 2.605-4.188 3.641a5.382 5.382 0 0 1-3.437 1.288h-3.649a5.382 5.382 0 0 1-3.436-1.288c-1.159-.989-2.844-2.249-4.023-3.467-.036-.037-.077-.073-.116-.11a17.7 17.7 0 0 0 1.19 1.138c-.009.005-.02.009-.02.02v5.203"/><path fill="#434A4F" d="M116.229 127.323a1 1 0 0 1-1-1v-7.588a1 1 0 1 1 2 0v7.588a1 1 0 0 1-1 1"/><path fill="#434A4F" d="M133.185 127.183a1 1 0 0 1-1-1v-8.363l.297-.294c.37-.364 1.35-1.332 1.591-1.976l3.562-7.271 3.818-1.91.833-4.133a.828.828 0 0 0-.828-.783h-1.968l.204-1.172c.303-1.738.456-3.298.456-4.637l.001-.766a14.593 14.593 0 0 0-1.35-6.211 15.706 15.706 0 0 0-4.58-5.872 15.398 15.398 0 0 0-9.511-3.331c-4.057-.05-7.915 1.578-10.879 4.524-3.037 3.016-4.779 7.166-4.779 11.387v.269c0 1.367.132 2.935.392 4.659l.174 1.15h-1.845a.893.893 0 0 0-.884.777l1.186 4.151 3.345 1.931 3.397 7.184c.429 1.141 2.409 2.752 3.855 3.927.421.342.822.668 1.176.97a4.386 4.386 0 0 0 2.798 1.049h3.646a1 1 0 1 1 0 2h-3.658a6.405 6.405 0 0 1-4.085-1.528 65.226 65.226 0 0 0-1.139-.939c-1.804-1.467-3.848-3.129-4.434-4.703l-3.097-6.54-3.505-2.023-1.492-5.365a2.898 2.898 0 0 1 2.431-2.855 31.488 31.488 0 0 1-.261-3.845v-.269c0-4.749 1.957-9.417 5.369-12.806 3.317-3.295 7.642-5.105 12.185-5.105h.118a17.381 17.381 0 0 1 10.735 3.76 17.722 17.722 0 0 1 5.162 6.614 16.58 16.58 0 0 1 1.53 7.054l-.001.752c0 1.148-.101 2.434-.303 3.835a2.799 2.799 0 0 1 1.639.831c.537.553.822 1.281.8 2.052l-.019.169-1.046 5.189-4.088 2.045-3.226 6.577c-.273.742-.968 1.544-1.722 2.31v7.531a1 1 0 0 1-1 1m-44.847 32.161h-.002a1 1 0 0 1-.998-1.002l.036-17.732c0-3.9 2.867-4.994 5.397-5.96l17.358-5.915 3.13-5.8h2.716a1 1 0 1 1 0 2h-1.523l-2.936 5.441-18.066 6.155c-2.823 1.078-4.076 1.795-4.076 4.081l-.036 17.734a1 1 0 0 1-1 .998"/><path fill="#434A4F" d="M124.874 132.388l-9.128-5.112a.999.999 0 0 1-.384-1.36.995.995 0 0 1 1.361-.384l8.151 4.563 7.823-4.379a1 1 0 1 1 .977 1.744l-8.8 4.928"/><path fill="#434A4F" d="M161.409 159.344h-.002a1 1 0 0 1-.998-1.002l.031-17.664c0-2.338-1.274-3.051-4.182-4.121l-18.044-6.125-3.356-5.497h-1.552a1 1 0 1 1 0-2h2.675l3.563 5.837 17.38 5.9c2.471.909 5.516 2.029 5.516 6.008l-.031 17.666a1 1 0 0 1-1 .998m-31.476-20.357a.996.996 0 0 1-.744-.331l-4.315-4.795-4.315 4.795a1 1 0 1 1-1.487-1.338l5.802-6.447 5.802 6.447a1 1 0 0 1-.743 1.669M159.021 106.159h2v-4h-2zM159.021 116.159h2v-4h-2zM163.021 110.159h4v-2h-4zM153.021 110.159h4v-2h-4zM34.946 71.138h2v-4h-2zM34.946 81.138h2v-4h-2zM38.946 75.138h4v-2h-4zM28.946 75.138h4v-2h-4zM213.054 187.208h2v-4h-2zM213.054 197.208h2v-4h-2zM217.054 191.208h4v-2h-4zM207.054 191.208h4v-2h-4z"/><path fill="#E9886C" d="M53.013 177.176a2 2 0 1 1-4.001-.001 2 2 0 0 1 4.001.001m96 32a2 2 0 1 1-4.001-.001 2 2 0 0 1 4.001.001m40-149a1 1 0 1 1-2 0 1 1 0 0 1 2 0"/></g></svg>