<?xml version="1.0" encoding="utf-8"?><svg xmlns="http://www.w3.org/2000/svg" width="250" height="250" viewBox="0 0 250 250"><g fill="none" fill-rule="evenodd"><path fill="#DBDBD5" d="M187.167 130.357l8.232-4.939-15.564-6.671-2.674 1.604 8.232 8.232-2.828 2.829-8.111-8.111-1.624 3.267 6.797 16.46 4.833-9.721 7.081 7.08-.088-5.745-4.286-4.285M130.424 59.999h58v-6h-58v6zm-27.013 3.018h88v-12h-88v12zM103.085 143.266v-64.75h-15.75l15.75 64.75"/><path fill="#DBDBD5" d="M191.397 143.266v-64.75h15.75l-15.75 64.75M85.424 145.751v9.248a2 2 0 0 0 2 2h119.999a2 2 0 0 0 2-2v-9.064l-123.999-.184M133.411 168.892h28.125v-11.75h-28.125zM109.4 191.018h2v-2h-2zM93.4 191.018h2v-2h-2zM101.4 191.018h2v-2h-2zM117.4 191.018h2v-2h-2zM109.4 207.018h2v-2h-2zM97.4 199.018h2v-2h-2zM81.4 215.018h2v-2h-2zM133.4 191.018h2v-2h-2zM89.4 215.018h2v-2h-2zM81.4 207.018h6v-2h-6zM81.4 199.018h2v-2h-2zM81.4 191.018h6v-2h-6zM113.4 199.018h2v-2h-2zM129.4 199.018h2v-2h-2zM125.4 207.018h2v-2h-2zM105.4 199.018h2v-2h-2zM121.4 199.018h2v-2h-2zM117.4 207.018h2v-2h-2zM89.4 199.018h2v-2h-2zM101.4 207.018h2v-2h-2zM145.4 199.018h2v-2h-2zM141.4 207.018h2v-2h-2zM137.4 199.018h2v-2h-2zM133.4 207.018h2v-2h-2zM141.4 191.018h2v-2h-2zM125.4 191.018h2v-2h-2zM157.4 191.018h2v-2h-2zM165.4 207.018h2v-2h-2zM165.4 215.018h2v-2h-2zM153.4 199.018h2v-2h-2zM157.4 215.018h2v-2h-2zM173.4 215.018h2v-2h-2zM97.4 215.018h2v-2h-2zM173.4 191.018h2v-2h-2zM161.4 199.018h2v-2h-2z"/><path fill="#DBDBD5" d="M171.4 193.018h6v-6h-6v6zm-4 8h10v-6h-10v6zm4 8h6v-6h-6v6zm0 8h6v-6h-6v6zm-8-8h6v-6h-6v6zm0 8h6v-6h-6v6zm-8-8h6v-6h-6v6zm0 8h6v-6h-6v6zm-8-8h6v-6h-6v6zm-36 8h42v-6h-42v6zm-8 0h6v-6h-6v6zm-8 0h6v-6h-6v6zm-8 0h6v-6h-6v6zm-8 0h6v-6h-6v6zm0-8h10v-6h-10v6zm0-8h6v-6h-6v6zm0-8h10v-6h-10v6zm12 0h6v-6h-6v6zm8 0h6v-6h-6v6zm8 0h6v-6h-6v6zm8 0h6v-6h-6v6zm8 0h6v-6h-6v6zm8 0h6v-6h-6v6zm8 0h6v-6h-6v6zm4 8h6v-6h-6v6zm-4 8h6v-6h-6v6zm-4-8h6v-6h-6v6zm-4 8h6v-6h-6v6zm-4-8h6v-6h-6v6zm-4 8h6v-6h-6v6zm-4-8h6v-6h-6v6zm-4 8h6v-6h-6v6zm-4-8h6v-6h-6v6zm-4 8h6v-6h-6v6zm-4-8h6v-6h-6v6zm-4 8h6v-6h-6v6zm-4-8h6v-6h-6v6zm-8 0h6v-6h-6v6zm4 8h6v-6h-6v6zm56-16h6v-6h-6v6zm4 8h6v-6h-6v6zm4-8h6v-6h-6v6zm4 8h6v-6h-6v6zm4-8h6v-6h-6v6zm14.999-9h-100a2 2 0 0 0-2 2v32a2 2 0 0 0 2 2h100a2 2 0 0 0 2-2v-32a2 2 0 0 0-2-2z"/><path fill="#DBDBD5" d="M165.4 191.018h2v-2h-2zM173.4 207.018h2v-2h-2zM169.4 199.018h6v-2h-6zM157.4 207.018h2v-2h-2zM149.4 191.018h2v-2h-2zM113.4 215.018h38v-2h-38zM149.4 207.018h2v-2h-2zM105.4 215.018h2v-2h-2zM93.4 207.018h2v-2h-2z"/><path fill="#434A4F" d="M78.4 184.982c-.552 0-1 .449-1 1v32c0 .551.448 1 1 1h100c.551 0 1-.449 1-1v-32c0-.551-.449-1-1-1h-100zm100 36h-100c-1.655 0-3-1.346-3-3v-32c0-1.654 1.345-3 3-3h100c1.654 0 3 1.346 3 3v32c0 1.654-1.346 3-3 3z"/><path fill="#42494E" d="M86.424 89.017h-2v-8.741c0-1.654 1.346-3 3-3h15.186v2H87.424c-.551 0-1 .449-1 1v8.741m120.999 68.982H87.424c-1.654 0-3-1.345-3-3v-33.982h2v33.982c0 .552.449 1 1 1h119.999c.551 0 1-.448 1-1V80.276c0-.551-.449-1-1-1h-15.716v-2h15.716c1.654 0 3 1.346 3 3v74.723c0 1.655-1.346 3-3 3M125.423 169.999h44v-2h-44z"/><path fill="#42494E" d="M132.423 168.999h2v-12h-2zM160.423 168.999h2v-12h-2zM102.424 146h2v-45.982h-2zM192.424 146h-2V52.001h-86v40.016h-2V50.001h90V146"/><path fill="#42494E" d="M109.424 55.999c-.551 0-1 .449-1 1 0 .551.449 1 1 1 .551 0 1-.449 1-1 0-.551-.449-1-1-1zm0 4c-1.654 0-3-1.345-3-3 0-1.654 1.346-3 3-3s3 1.346 3 3c0 1.655-1.346 3-3 3zm8-4c-.551 0-1 .449-1 1 0 .551.449 1 1 1 .551 0 1-.449 1-1 0-.551-.449-1-1-1zm0 4c-1.654 0-3-1.345-3-3 0-1.654 1.346-3 3-3s3 1.346 3 3c0 1.655-1.346 3-3 3zm8-4c-.551 0-1 .449-1 1 0 .551.449 1 1 1 .551 0 1-.449 1-1 0-.551-.449-1-1-1zm0 4c-1.654 0-3-1.345-3-3 0-1.654 1.346-3 3-3s3 1.346 3 3c0 1.655-1.346 3-3 3zM67.614 162.444l-28.707-30.271 1.452-1.376 28.706 30.271-1.451 1.376"/><path fill="#DBDBD5" d="M46.456 168.468c0-5.404 4.381-9.785 9.785-9.785H72.79c5.405 0 9.786 4.381 9.786 9.785v.108"/><path fill="#FACD60" d="M96.656 102.236c4.366 4.366 4.366 11.445 0 15.811-4.367 4.366-11.445 4.366-15.812 0"/><path fill="#42494E" d="M42.825 170.018h43.488v-2H42.825zM40.268 124.887l-1.496-1.327 19.078-21.519 1.496 1.327-19.078 21.519"/><path fill="#E9886C" d="M35.83 123.717a4.246 4.246 0 0 0-4.241 4.24 4.246 4.246 0 0 0 4.241 4.241 4.246 4.246 0 0 0 4.24-4.241 4.245 4.245 0 0 0-4.24-4.24zm0 10.481a6.248 6.248 0 0 1-6.241-6.241c0-3.441 2.8-6.24 6.241-6.24a6.247 6.247 0 0 1 6.24 6.24 6.248 6.248 0 0 1-6.24 6.241z"/><path fill="#DBDBD5" d="M74.237 124.654l-7.541-21.876-7.29-7.29c-4.097-4.098-4.097-10.741 0-14.839 4.098-4.097 10.741-4.097 14.839 0l7.289 7.29 21.877 7.541-29.174 29.174"/><path fill="#434A4F" d="M60.62 104.509a3.593 3.593 0 0 1-2.547-1.054 3.605 3.605 0 0 1 0-5.094l2.31-2.31 1.414 1.414-2.31 2.31a1.604 1.604 0 0 0 2.267 2.266l2.309-2.309 1.414 1.414-2.309 2.309a3.593 3.593 0 0 1-2.548 1.054m66.78 78.508h-2v-2c0-2.757 2.243-5 5-5h85.011c1.654 0 3-1.345 3-3 0-1.654-1.346-3-3-3h-32c-2.757 0-5-2.243-5-5v-8h2v8c0 1.655 1.346 3 3 3h32c2.757 0 5 2.243 5 5s-2.243 5-5 5H130.4c-1.655 0-3 1.346-3 3v2"/><path fill="#DBDBD5" d="M207.411 217.017h-12a4 4 0 0 1-4-4v-22a4 4 0 0 1 4-4h12a4 4 0 0 1 4 4v22a4 4 0 0 1-4 4"/><path fill="#434A4F" d="M200.411 195.017h2v-8h-2z"/><path fill="#42494E" d="M66.825 78.58c-2.43 0-4.861.926-6.712 2.776-3.701 3.701-3.701 9.724 0 13.425l7.453 7.453 7.095 20.582 26.912-26.912-20.582-7.095-7.453-7.453a9.468 9.468 0 0 0-6.713-2.776zm6.988 47.912l-7.988-23.17-7.126-7.127c-4.481-4.481-4.481-11.772 0-16.253 4.48-4.481 11.772-4.481 16.253 0l7.126 7.127 23.171 7.987-31.436 31.436z"/><path fill="#434A4F" d="M132.411 57.017c0-.55.45-1 1-1s1 .45 1 1-.45 1-1 1-1-.45-1-1zm4 0c0-.55.45-1 1-1s1 .45 1 1-.45 1-1 1-1-.45-1-1zm4 0c0-.55.45-1 1-1s1 .45 1 1-.45 1-1 1-1-.45-1-1zm4 0c0-.55.45-1 1-1s1 .45 1 1-.45 1-1 1-1-.45-1-1zm4 0c0-.55.45-1 1-1s1 .45 1 1-.45 1-1 1-1-.45-1-1zm4 0c0-.55.45-1 1-1s1 .45 1 1-.45 1-1 1-1-.45-1-1zm4 0c0-.55.45-1 1-1s1 .45 1 1-.45 1-1 1-1-.45-1-1zm4 0c0-.55.45-1 1-1s1 .45 1 1-.45 1-1 1-1-.45-1-1zm-1.157 48.28l10.451 25.309 4.473-8.995 8.387 8.387 1.414-1.415-8.43-8.431 7.653-4.591-23.948-10.264zm10.282 30.14l-14.003-33.91 32.052 13.736-8.811 5.287 8.033 8.033-4.242 4.243-7.834-7.835-5.195 10.446z"/><path fill="#42494E" d="M153.405 88.021h20v-2h-20zM153.405 92.021h20v-2h-20zM153.405 96.021h20v-2h-20zM63.411 134.017c-1.654 0-3 1.346-3 3 0 1.655 1.346 3 3 3h75.177l6.506-3-6.506-3H63.411zm75.616 8H63.411c-2.757 0-5-2.243-5-5s2.243-5 5-5h75.616l10.843 5-10.843 5z"/><path fill="#42494E" d="M69.021 141.017h2v-7.598h-2z"/><path fill="#42494E" d="M70.021 137.989h68.018v-2H70.021z"/><path fill="#FACD60" d="M186.856 53.015h30.552V34.044h-30.552z"/><path fill="#FACD60" d="M187.856 52.015h28.552V35.044h-28.552v16.971zm-2 2h32.552V33.044h-32.552v20.971z"/><path fill="#434A4F" d="M202.132 44.721a.996.996 0 0 1-.533-.154l-13.224-8.331a1 1 0 0 1 1.067-1.692l12.685 7.992 11.866-7.613a1 1 0 0 1 1.08 1.684l-12.401 7.956a1.002 1.002 0 0 1-.54.158m12.936 6.83a.996.996 0 0 1-.768-.36l-6.16-7.39a1 1 0 1 1 1.536-1.28l6.16 7.39a1 1 0 0 1-.768 1.64m-25.871 0a1 1 0 0 1-.768-1.64l6.16-7.39a1 1 0 1 1 1.536 1.28l-6.16 7.39a.999.999 0 0 1-.768.36M202.41 70.015h2v-12h-2zM203.411 74.017c-.07 0-.13-.01-.2-.02a.636.636 0 0 1-.18-.06.757.757 0 0 1-.18-.09l-.15-.12c-.09-.1-.16-.21-.211-.33a.85.85 0 0 1-.079-.38c0-.13.02-.26.079-.39.051-.12.121-.23.211-.32.37-.37 1.05-.37 1.42 0 .18.19.29.45.29.71 0 .13-.03.26-.08.38s-.12.23-.21.33c-.19.18-.45.29-.71.29M208.41 64.012h2v-5.997h-2zM209.411 68.007c-.26 0-.52-.1-.71-.29-.18-.18-.29-.44-.29-.7 0-.27.11-.53.29-.71.28-.28.72-.37 1.09-.22.12.05.23.13.33.22.18.19.29.44.29.71 0 .26-.11.51-.29.7a.986.986 0 0 1-.71.29M196.406 66.012h2v-7.997h-2zM197.401 70.017c-.13 0-.25-.03-.38-.08-.12-.05-.23-.13-.32-.22s-.17-.2-.22-.32a.986.986 0 0 1-.07-.38c0-.14.02-.26.07-.39.05-.12.13-.23.22-.32s.2-.17.32-.22a1.017 1.017 0 0 1 1.31.54c.05.13.08.25.08.39 0 .13-.03.25-.08.38-.05.12-.13.23-.22.32-.18.19-.44.3-.71.3"/><path fill="#75C7D0" d="M106.173 173.028a4 4 0 1 1-8 0 4 4 0 0 1 8 0M46.137 79.972a4 4 0 1 1-8 0 4 4 0 0 1 8 0"/><path fill="#434A4F" d="M50.083 190.07h2v-4h-2zM50.083 200.07h2v-4h-2zM54.083 194.07h4v-2h-4zM44.083 194.07h4v-2h-4zM50.083 53.988h2v-4h-2zM50.083 63.988h2v-4h-2zM54.083 57.988h4v-2h-4zM44.083 57.988h4v-2h-4zM160.149 36.978h2v-4h-2zM160.149 46.978h2v-4h-2zM164.149 40.978h4v-2h-4zM154.149 40.978h4v-2h-4zM195.411 188.017c-1.654 0-3 1.346-3 3v22c0 1.655 1.346 3 3 3h12c1.654 0 3-1.345 3-3v-22c0-1.654-1.346-3-3-3h-12zm12 30h-12c-2.757 0-5-2.243-5-5v-22c0-2.757 2.243-5 5-5h12c2.757 0 5 2.243 5 5v22c0 2.757-2.243 5-5 5z"/><path fill="#E9886C" d="M129.711 91.215c-.719 0-1.437.273-1.984.82a2.808 2.808 0 0 0 0 3.967 2.809 2.809 0 0 0 3.968 0 2.79 2.79 0 0 0 .821-1.984 2.797 2.797 0 0 0-2.805-2.803zm0 7.607a4.79 4.79 0 0 1-3.398-1.406 4.81 4.81 0 0 1 0-6.795 4.81 4.81 0 0 1 6.796 0 4.774 4.774 0 0 1 1.407 3.397c0 1.284-.5 2.491-1.407 3.398a4.792 4.792 0 0 1-3.398 1.406z"/><path fill="#434A4F" d="M127.023 106.658a4.1 4.1 0 0 1 .64.052 3.82 3.82 0 0 1 3.221 3.226l.237 1.506 2.573-.405-.237-1.505a3.821 3.821 0 0 1 2.074-4.06c1.526-.775 3.293-.493 4.503.718l1.076 1.079 1.844-1.841-1.077-1.078c-1.209-1.212-1.487-2.98-.708-4.504.779-1.524 2.378-2.338 4.064-2.065l1.506.24.41-2.573-1.505-.24c-1.69-.269-2.954-1.536-3.22-3.227-.267-1.691.548-3.284 2.074-4.06l1.358-.69-1.146-2.254-1.358.69c-1.526.777-3.293.494-4.502-.718-1.209-1.211-1.487-2.979-.709-4.503l.694-1.357-2.321-1.185-.693 1.357c-.778 1.524-2.373 2.34-4.064 2.066a3.82 3.82 0 0 1-3.221-3.227l-.236-1.505-2.574.405.237 1.505c.266 1.691-.548 3.285-2.074 4.06-1.526.776-3.292.494-4.502-.717l-1.076-1.079-1.844 1.841 1.076 1.078c1.209 1.212 1.488 2.979.709 4.504-.778 1.524-2.376 2.339-4.064 2.065l-1.505-.239-.41 2.572 1.505.24a3.819 3.819 0 0 1 3.22 3.226 3.823 3.823 0 0 1-2.073 4.061l-1.359.69 1.145 2.252 1.358-.691c1.526-.774 3.293-.494 4.502.719 1.209 1.211 1.487 2.979.709 4.503l-.694 1.357 2.32 1.186.693-1.358c.68-1.329 1.981-2.117 3.424-2.117zm2.433 7.07l-.548-3.481c-.156-.993-.908-1.458-1.56-1.562-.65-.104-1.51.104-1.967 1l-1.604 3.138-5.882-3.005 1.603-3.138c.458-.896.123-1.714-.342-2.181-.467-.468-1.285-.804-2.181-.347l-3.141 1.596-2.957-5.818 3.141-1.596c.897-.456 1.107-1.315 1.005-1.967-.103-.651-.567-1.404-1.56-1.562l-3.48-.555 1.04-6.522 3.479.554c.995.162 1.669-.413 1.969-1 .3-.587.367-1.469-.344-2.181l-2.489-2.494 4.676-4.666 2.489 2.494c.71.712 1.59.646 2.18.348.588-.299 1.161-.973 1.005-1.967l-.549-3.481 6.526-1.026.547 3.48c.157.994.908 1.459 1.56 1.563.652.106 1.51-.105 1.968-1.001l1.603-3.137 5.882 3.004-1.602 3.138c-.458.896-.123 1.714.342 2.181.466.466 1.282.804 2.181.347l3.141-1.597 2.958 5.821-3.141 1.596c-.897.456-1.107 1.315-1.005 1.966.103.652.567 1.404 1.56 1.563l3.48.555-1.04 6.523-3.48-.555c-.99-.155-1.669.412-1.969 1-.3.588-.367 1.469.343 2.181l2.489 2.494-4.675 4.666-2.489-2.494c-.711-.712-1.593-.647-2.18-.348-.589.299-1.161.972-1.005 1.966l.547 3.481-6.524 1.026z"/><path fill="#434A4F" d="M130.981 84.447a1 1 0 0 1-.86-1.12 1.003 1.003 0 0 1 1.99.26c-.07.5-.5.87-.99.87-.05 0-.09-.01-.14-.01zm-4.81-.53c-.13-.54.2-1.08.73-1.21h.01a.982.982 0 0 1 1.2.73.992.992 0 0 1-.73 1.21c-.08.02-.16.03-.24.03-.45 0-.85-.31-.97-.76zm8.23 1.66a1 1 0 0 1-.38-1.36c.26-.48.87-.66 1.36-.39.48.27.65.88.379 1.36a.992.992 0 0 1-1.359.39zm-11.68.34c-.32-.45-.22-1.08.23-1.4a1.01 1.01 0 0 1 1.4.24c.32.45.21 1.07-.24 1.39a.96.96 0 0 1-.58.19c-.31 0-.62-.15-.81-.42zm13.82 1.27a.996.996 0 1 1 1.41-1.41c.39.39.39 1.03 0 1.41a.978.978 0 0 1-1.41 0zm-16.31 1.85a1 1 0 0 1-.29-1.38.999.999 0 0 1 1.38-.29c.47.3.6.92.3 1.38-.2.3-.52.46-.84.46-.19 0-.38-.06-.55-.17zm18.34 1.13c-.22-.51.01-1.1.52-1.32a1.002 1.002 0 0 1 .79 1.84.91.91 0 0 1-.391.08.989.989 0 0 1-.919-.6zm-19.5 2.7c-.54-.11-.89-.64-.78-1.18.11-.54.64-.9 1.18-.78.539.11.89.63.78 1.17-.1.48-.511.81-.98.81-.07 0-.13-.01-.2-.02zm20.29.82a.998.998 0 0 1 .96-1.04 1 1 0 0 1 1.04.97.997.997 0 0 1-.97 1.03h-.03c-.54 0-.98-.42-1-.96zm-21.13 2.34a.99.99 0 0 1 .81-1.15 1 1 0 0 1 1.16.81c.09.54-.27 1.06-.81 1.16-.06.01-.12.01-.18.01-.471 0-.9-.34-.98-.83zm21.19 2.49a.996.996 0 0 1-.61-1.27c.19-.52.76-.79 1.28-.61.52.18.79.75.61 1.28a1 1 0 0 1-1.28.6zm-19.65 1.58a.994.994 0 0 1 .33-1.37.994.994 0 0 1 1.37.33c.289.47.14 1.09-.33 1.38-.16.09-.34.14-.52.14-.34 0-.67-.17-.85-.48zm17.32 1.67c-.41-.36-.46-1-.101-1.41.371-.42 1-.46 1.421-.1.41.36.45.99.09 1.41-.2.23-.47.34-.75.34-.241 0-.47-.08-.66-.24zm-14.4 1.56c-.44-.34-.53-.97-.201-1.41a1.004 1.004 0 0 1 1.601 1.21c-.2.26-.5.4-.8.4-.21 0-.42-.07-.6-.2zm11.049.61a.999.999 0 0 1 .431-1.35.988.988 0 0 1 1.339.43.981.981 0 0 1-.419 1.34c-.15.08-.31.12-.46.12-.36 0-.71-.2-.891-.54zm-7.149 1.31a.995.995 0 0 1-.7-1.23c.15-.53.7-.84 1.23-.69.53.14.85.69.7 1.23-.12.44-.53.73-.97.73-.08 0-.17-.01-.26-.04zm3.23-.53c-.05-.55.34-1.04.89-1.1.549-.05 1.04.35 1.1.89a.994.994 0 0 1-.89 1.1c-.03.01-.07.01-.1.01-.51 0-.94-.38-1-.9z"/><path fill="#E9886C" d="M86.427 31.018c-11.027 0-20 8.972-20 20s8.973 20 20 20c11.028 0 20-8.972 20-20s-8.972-20-20-20zm0 42c-12.13 0-22-9.869-22-22s9.87-22 22-22c12.131 0 22 9.869 22 22s-9.869 22-22 22z"/><path fill="#434A4F" d="M87.387 61.634h-2V49.24h8.778v2h-6.778v10.394M72.036 52.018h-3.111a1 1 0 0 1 0-2h3.111a1 1 0 1 1 0 2"/><path fill="#434A4F" d="M72.036 52.018h-3.111a1 1 0 0 1 0-2h3.111a1 1 0 1 1 0 2m5.497 15.298a1 1 0 0 1-.865-1.5l1.555-2.694a1 1 0 0 1 1.732 1L78.4 66.816a.998.998 0 0 1-.867.5m-3.518-22.687a.995.995 0 0 1-.499-.134l-2.694-1.555a1.001 1.001 0 0 1 1-1.733l2.694 1.556a1 1 0 0 1-.501 1.866m-2.983 15.972a1 1 0 0 1-.501-1.866l2.694-1.556a1 1 0 0 1 1 1.732l-2.694 1.556a.995.995 0 0 1-.499.134m8.297-21.407a.998.998 0 0 1-.867-.5L76.907 36a1 1 0 0 1 1.732-1l1.555 2.694a1 1 0 0 1-.865 1.5m24.498 12.824h-3.11a1 1 0 1 1 0-2h3.11a1 1 0 1 1 0 2m-17.5-14.778a1 1 0 0 1-1-1v-3.111a1 1 0 0 1 2 0v3.111a1 1 0 0 1-1 1m-.001 32.667a1 1 0 0 1-1-1v-3.111a1 1 0 1 1 2 0v3.111a1 1 0 0 1-1 1"/><path fill="#434A4F" d="M103.827 52.018h-3.11a1 1 0 1 1 0-2h3.11a1 1 0 1 1 0 2M95.22 67.316a.998.998 0 0 1-.867-.5l-1.556-2.694a1 1 0 0 1 1.733-1l1.555 2.694a1 1 0 0 1-.865 1.5m3.518-22.687a1.001 1.001 0 0 1-.501-1.866l2.694-1.556a1 1 0 0 1 1 1.733l-2.694 1.555a.997.997 0 0 1-.499.134m2.983 15.972a.997.997 0 0 1-.499-.134l-2.694-1.556a1 1 0 1 1 1-1.732l2.694 1.556a1 1 0 0 1-.501 1.866m-8.297-21.407a1 1 0 0 1-.866-1.5L94.114 35a1 1 0 1 1 1.732 1l-1.555 2.694a1 1 0 0 1-.867.5"/></g></svg>