<?xml version="1.0" encoding="utf-8"?><svg xmlns="http://www.w3.org/2000/svg" width="250" height="250" viewBox="0 0 250 250"><g fill="none" fill-rule="evenodd"><path fill="#DEDEDD" d="M59.769 211.756v.002c0 1.191-.798 1.989-1.988 1.989h-.003l-7.009.163v-14.174l7.059.007a2.159 2.159 0 0 1 1.528.639c.411.412.553.953.553 1.522l-.14 9.852"/><path fill="#475059" d="M83.828 210.747H62.769v-2h20.867l77.127-14.947 43.531-26.697c-5.755-5.159-12.762-6.109-18.955-2.5l-27.26 13.144h-46.776v-2h18.316c7.888 0 14.139-5.718 14.656-13.195l-48.632.195c-4.171 0-8.259 1.698-11.219 4.659L63.59 188.22l-1.414-1.415 20.834-20.814c3.332-3.332 7.936-5.244 12.629-5.244l50.67-.203v1.004c0 6.19-3.404 11.466-8.534 14.199h19.847l26.779-12.909c7.295-4.255 15.631-2.875 22.234 3.728l.897.897-46.032 28.232-.178.034-77.494 15.018"/><path fill="#475059" d="M143.455 170.404a.999.999 0 0 1-.461-1.887l31.302-16.218a25.242 25.242 0 0 1 6.636-2.052c4.066-.663 8.166.251 11.255 2.506a14.28 14.28 0 0 1 3.471 3.608 1 1 0 0 1-.268 1.381l-9.991 6.823a1 1 0 1 1-1.127-1.651l9.14-6.242a12.344 12.344 0 0 0-2.405-2.303c-2.659-1.942-6.214-2.724-9.753-2.149a23.23 23.23 0 0 0-6.075 1.873l-31.265 16.199a1 1 0 0 1-.459.112m-94.686 45.54l8.997.009h.005a4.144 4.144 0 0 0 2.94-1.221 4.127 4.127 0 0 0 1.231-2.936v-.001l.056-30.978a4.124 4.124 0 0 0-1.225-2.937 4.147 4.147 0 0 0-2.943-1.227l-9.061-.009v39.3zm9.002 2.009h-.007l-10.995-.011v-43.3l11.063.011a6.134 6.134 0 0 1 4.355 1.812 6.112 6.112 0 0 1 1.811 4.355l-.056 30.979c-.004 3.395-2.772 6.154-6.171 6.154z"/><path fill="#DEDEDD" d="M111.304 172.747h23.443c3.587-1 6.27-4 7.203-8h-4.792c-2.096 2-4.691 2-7.539 2h-12.315a6 6 0 0 0-6 6m81.853-8.07l-33.129 20.278-76.583 14.792H65.964l-.013 7h17.494l76.583-14.78 40.741-24.94c-2.419-1.571-5.013-2.35-7.612-2.35"/><path fill="#5FE0ED" d="M117.304 166.747h12.315c2.848 0 5.443 0 7.539-2h4.792c-.933 4-3.616 7-7.203 8h-23.443a6 6 0 0 1 6-6"/><path fill="#DEDEDD" d="M141.95 164.747h-4.792c-2.096 2-4.691 2-7.539 2h-12.315a6 6 0 0 0-6 6h23.443c3.587-1 6.27-4 7.203-8m57.772 1.66v1.261l1.047-.641a15.874 15.874 0 0 0-1.047-.62"/><path fill="#FFD15D" d="M184.785 63.525v72.292h-46.93a4.125 4.125 0 0 0-4.125 4.125h52.555v-.75h4.5V63.525h-6m-66.68 76.417a4.125 4.125 0 0 0-4.125-4.125H67.963V63.525h-6v75.667h4.5v.75h51.642"/><path fill="#475059" d="M122.975 143.192h-2v-3.01a6.953 6.953 0 0 0-2.041-4.954 6.946 6.946 0 0 0-4.942-2.064l-47.018-.159.006-2 47.017.159a8.937 8.937 0 0 1 6.354 2.652 8.94 8.94 0 0 1 2.624 6.368v3.008"/><path fill="#475059" d="M118.98 140.093h-2c0-1.654-1.346-3-3-3H66.963v-2h47.017c2.757 0 5 2.243 5 5m12 3.1l-2-.003.005-3.01a8.943 8.943 0 0 1 2.624-6.364 8.939 8.939 0 0 1 6.355-2.652l47.924-.069.002 2-47.923.069c-3.858.008-6.991 3.155-6.982 7.015l-.005 3.014"/><path fill="#475059" d="M134.98 140.093h-2c0-2.757 2.243-5 5-5h47.909v2H137.98c-1.654 0-3 1.346-3 3"/><path fill="#475059" d="M125.914 144.581h-.001a11.176 11.176 0 0 1-8.112-3.488H60.96l.003-78.578h7v2h-5l-.003 74.578h55.739l.299.343a9.171 9.171 0 0 0 6.915 3.145h.001a9.18 9.18 0 0 0 6.92-3.145l.299-.343h56.777V64.516h-5v-2h7v78.577h-57.88a11.184 11.184 0 0 1-8.116 3.488"/><path fill="#475059" d="M68.95 127.182h45.03c5.397 0 10.037 3.306 12 8 1.963-4.694 6.603-8 12-8h45.943V57.515H137.98c-6.065 0-11 4.935-11 11h-2c0-6.065-4.935-11-11-11H68.95v69.667zm58.03 13h-2c0-6.066-4.935-11-11-11H66.95V55.515h47.03c5.397 0 10.037 3.307 12 8 1.963-4.693 6.603-8 12-8h47.943v73.667H137.98c-6.065 0-11 4.934-11 11z"/><path fill="#475059" d="M124.98 136.182h2V68.515h-2z"/><path fill="#475059" d="M126.958 138.243h-2a19.596 19.596 0 0 0-14.749-18.996l-28.251-7.226V35.956l28.748 7.353a21.597 21.597 0 0 1 16.252 20.934h-2a19.596 19.596 0 0 0-14.749-18.996l-26.25-6.715v71.936l26.747 6.841a21.597 21.597 0 0 1 16.252 20.934"/><path fill="#475059" d="M126.958 138.243h-2a21.597 21.597 0 0 1 16.253-20.934l26.747-6.841V38.532l-26.25 6.715a19.597 19.597 0 0 0-14.75 18.996h-2a21.597 21.597 0 0 1 16.253-20.934l28.747-7.353v76.065l-28.25 7.226a19.597 19.597 0 0 0-14.75 18.996"/><path fill="#475059" d="M149.403 90.813l6.507 2.999 53.163-.002a3.003 3.003 0 0 0 2.999-3c0-1.654-1.346-3-3-3l-53.163.003-6.506 3zm6.067 4.999l-10.843-4.999 10.842-5.001 53.603-.002c2.757 0 5 2.243 5 5s-2.242 5-4.999 5l-53.603.002z"/><path fill="#475059" d="M201.462 94.409h2v-7.598h-2z"/><path fill="#475059" d="M156.458 91.841v-2l46.004-.002v2l-46.004.002"/><path fill="#48515A" d="M190.978 36.047h2v-4h-2zM190.978 46.047h2v-4h-2zM194.978 40.047h4v-2h-4zM184.978 40.047h4v-2h-4z"/><path fill="#FFD15D" d="M205.14 128.203a2.5 2.5 0 1 1-5 0 2.5 2.5 0 0 1 5 0"/><path fill="#48515A" d="M53.928 156.953h2v-4h-2zM53.928 166.953h2v-4h-2zM57.928 160.953h4v-2h-4zM47.928 160.953h4v-2h-4z"/><path fill="#FFD15D" d="M40.929 95.453a2.501 2.501 0 1 1-5.003 0 2.501 2.501 0 0 1 5.003 0m54.999 55a2.5 2.5 0 1 1-5 0 2.5 2.5 0 0 1 5 0"/></g></svg>