<?xml version="1.0" encoding="utf-8"?><svg xmlns="http://www.w3.org/2000/svg" width="250" height="250" viewBox="0 0 250 250"><g fill="none" fill-rule="evenodd"><path fill="#DFE0E0" d="M126.969 212.267h25.007v-5.997h-25.007zM126.969 218.266h29.995v-5.997h-29.995zM136.979 202.269a2 2 0 0 1-2-2v-7.001h-8.01v12h16.01v-2.999h-6M126.387 193.032V64.512l5.166.006v128.519l-5.166-.005"/><path fill="#DFE0E0" d="M118.972 70.091h11.997v-5.165h-11.997zM139.977 56.186v2.999h-2.998a2 2 0 0 0-2 2v2.999h-20.015v-2.999a2 2 0 0 0-2-2h-2.998v-2.999h30.011"/><path fill="#FFD15D" d="M50.163 43.018a3 3 0 1 1-6 0 3 3 0 0 1 6 0"/><path fill="#FFD15D" d="M47.163 41.018c-1.103 0-2 .897-2 2s.897 2 2 2 2-.897 2-2-.897-2-2-2zm0 6c-2.206 0-4-1.794-4-4s1.794-4 4-4 4 1.794 4 4-1.794 4-4 4z"/><path fill="#475059" d="M47.163 37.018c-3.309 0-6 2.692-6 6 0 3.309 2.691 6 6 6s6-2.691 6-6c0-3.308-2.691-6-6-6zm0 14c-4.411 0-8-3.589-8-8s3.589-8 8-8 8 3.589 8 8-3.589 8-8 8z"/><path fill="#FFD15D" d="M200.235 43.018a3 3 0 1 0 6 0 3 3 0 0 0-6 0"/><path fill="#FFD15D" d="M203.235 41.018c-1.103 0-2 .897-2 2s.897 2 2 2 2-.897 2-2-.897-2-2-2zm0 6c-2.206 0-4-1.794-4-4s1.794-4 4-4c2.205 0 4 1.794 4 4s-1.795 4-4 4z"/><path fill="#475059" d="M203.235 37.018c-3.309 0-6 2.692-6 6 0 3.309 2.691 6 6 6 3.308 0 6-2.691 6-6 0-3.308-2.692-6-6-6zm0 14c-4.411 0-8-3.589-8-8s3.589-8 8-8 8 3.589 8 8-3.589 8-8 8zM37.913 192.037h58.012v-4.003c0-4.073 3.059-7.444 6.999-7.937v-2.062H30.912v2.062c3.941.493 7.001 3.864 7.001 7.937v4.003zm60.012 2H35.913v-6.003a6.006 6.006 0 0 0-5.999-5.999h-1l-.002-6h76.012v6h-1a6.006 6.006 0 0 0-5.999 5.999v6.003zM101.006 169.04h-2v-.889L71.412 45.554l1.951-.439 27.643 122.813v1.112"/><path fill="#FFD15D" d="M39.913 190.037h54.012v-2.004a9.988 9.988 0 0 1 4.006-7.999H35.907a9.991 9.991 0 0 1 4.006 7.999v2.004"/><path fill="#475059" d="M43.994 196.04h46.012v-2H43.994v2zm-2 2h50.012v-6H41.994v6zM34.993 169.031h-2l.028-1.235 32.11-132.778h5.556l1.444 5.443-1.934.512-1.049-3.955h-2.443L34.993 168.151v.88M32.994 177.04h2v-6h-2zM99.09 177.04h2v-5.994h-2zM153.982 193.038h58.012v-4.003c0-4.073 3.059-7.445 7-7.938v-2.062h-72.012v2.062c3.941.493 7 3.865 7 7.938v4.003zm60.012 2h-62.012v-6.003c0-3.309-2.691-6-5.999-6h-1l-.002-6h76.013v6h-1c-3.308 0-6 2.691-6 6v6.003zM217.075 170.04h-2v-.889L187.481 45.552l1.953-.435 27.641 123.813v1.11"/><path fill="#FFD15D" d="M155.982 191.038h54.012v-2.004a9.988 9.988 0 0 1 4.006-7.999h-62.024a9.988 9.988 0 0 1 4.006 7.999v2.004"/><path fill="#475059" d="M160.064 197.04h46.012v-2h-46.012v2zm-2 2h50.012v-6h-50.012v6zM151.062 170.032h-2l.028-1.234 32.109-133.78h5.558l1.443 5.443-1.933.512-1.049-3.955h-2.442L151.062 169.15v.882M149.063 178.04h2v-6h-2zM215.159 178.04h2v-5.993h-2z"/><path fill="#DFE0E0" d="M73.574 92.568l1.771 3.185a10.615 10.615 0 0 1 1.323 5.705l-1.344 27.556H57.992l.002-.001.671-18.905a29.483 29.483 0 0 1 5.354-15.879l1.313-1.765.001-.012h8.227l.014.116"/><path fill="#475059" d="M71.183 139.918h-.048l-4.737-.001v-.697a2.66 2.66 0 0 1-.653.081h-1.568v-4.827c0-1.303.436-2.589 1.228-3.623l.827-1.309.59-13.196-1.051-12.537 1.993-.168 1.062 12.666-.619 13.858-1.165 1.831c-.575.758-.865 1.613-.865 2.478v2.663a.65.65 0 0 0 .221-.488v-.18h1.999v1.448l2.751.001c.459.016.858-.158 1.169-.461a1.62 1.62 0 0 0 .491-1.145l.016-1.353c0-1.526-.237-3.066-.705-4.565l1.909-.596a17.33 17.33 0 0 1 .796 5.174l-.016 1.365a3.608 3.608 0 0 1-1.095 2.552 3.6 3.6 0 0 1-2.53 1.029"/><path fill="#475059" d="M73.748 130.764h-4.424v-2H72.9l1.517-1.57 1.438 1.39-2.107 2.18"/><path fill="#48515A" d="M66.354 177.103l-1.142-16.651-3.336-19.546-1.646-2.731 1.713-1.033 1.841 3.055 3.42 20.068 1.145 16.701-1.995.137"/><path fill="#48515A" d="M75.274 177.101l-1.963-35.044 1.763-3.58v-6.58l-.756-2.774.007-.159 1.344-27.554a9.595 9.595 0 0 0-1.198-5.17l-1.866-3.357-.774-6.348-.074-1.665.317-.312a5.897 5.897 0 0 0 1.749-4.176 5.868 5.868 0 0 0-5.861-5.861H66.66a5.388 5.388 0 0 0-5.39 5.39v8.4l5.312.26-.271 4.253-1.49 2.002a28.395 28.395 0 0 0-5.156 15.32l-.636 17.915 4.342.204-.094 1.998-6.317-.298.705-19.891a30.413 30.413 0 0 1 5.536-16.42l1.152-1.549.104-1.636-5.187-.254V79.911a7.389 7.389 0 0 1 7.39-7.39h1.302c4.334 0 7.861 3.526 7.861 7.861 0 1.94-.735 3.836-2.031 5.272l.031.718.72 5.88 1.676 3.015a11.6 11.6 0 0 1 1.448 6.243l-1.336 27.394.743 2.859v7.179l-1.737 3.527 1.934 34.521-1.997.111"/><path fill="#48515A" d="M60.794 177.198l-2.959-19.262-.84-28.894 1.999-.058.838 28.832 2.938 19.077-1.976.305"/><path fill="#DFE0E0" d="M191.31 159.021h-9.75v-7.5h10.5l-.75 7.5"/><path fill="#DFE0E0" d="M187.905 132.869l-2.782.543-1.724-4.978 4.467-1.588.933 3.526-1.051.805.157 1.692zm2.28-24.747l2.906-4.115-7.031-7.986-4.5 1.288h-.578a3.112 3.112 0 0 0-3.094 2.781l-4.203 51.431h25.5l-9-43.399z"/><path fill="#475059" d="M190.086 178.137l-1.99-.195 2.682-27.421h7.179l-8.839-42.621 2.693-3.815-5.553-6.103-1.573-1.944v-5.604h1c1.93 0 3.5-1.57 3.5-3.5v-2.589c0-3.584-2.916-6.5-6.5-6.5-3.549 0-6.125 2.598-6.125 6.176v19.5h-2v-19.5c0-4.737 3.417-8.176 8.125-8.176 4.687 0 8.5 3.814 8.5 8.5v2.589a5.508 5.508 0 0 1-4.5 5.409v2.988l1.09 1.35 6.597 7.246-3.12 4.416 9.162 44.178h-7.822l-2.506 25.616"/><path fill="#475059" d="M180.501 178.052l-.304-25.531H172.6l4.292-52.512a4.109 4.109 0 0 1 4.09-3.7 4.117 4.117 0 0 1 4.112 4.111v12.113l4.555 14.741-7.611 2.705-3.4-11 1.911-.59 2.784 9.008 3.839-1.365-4.078-13.348V100.42a2.114 2.114 0 0 0-2.112-2.111 2.11 2.11 0 0 0-2.1 1.888l-4.112 50.324h7.403l.328 27.508-2 .023"/><path fill="#475059" d="M178.468 178.11l-1.995-.139 1.898-27.45h13.314v2h-11.448l-1.769 25.589M184.462 134.559l-2.008-5.798 1.889-.654 1.44 4.157 1.042-.204-.124-1.341.961-.736-.763-2.881 1.934-.512 1.103 4.17-1.142.875.19 2.042-4.522.882M54.194 42.014l-.031-2 55.585-.86.031 2-55.585.86M196.202 42.014l-56.199-1.001.036-2 56.198 1.001-.035 2M109.748 46.874l-55.585-.86.031-2 55.585.86-.031 2M140.038 46.981l-.034-2 56.198-.967.034 2-56.198.967M117.964 193.311h2V63.955h-2zM129.964 193.311h2V63.954h-2z"/><path fill="#48515A" d="M38.983 63.225h2v-4h-2zM38.983 73.225h2v-4h-2zM42.555 67.225h3.428v-2h-3.428zM33.983 67.225h3.429v-2h-3.429zM214.088 116.256h2v-4h-2zM214.088 126.256h2v-4h-2zM217.66 120.256h3.428v-2h-3.428zM209.088 120.256h3.429v-2h-3.429z"/><path fill="#FFD15D" d="M215.089 86.407a2.143 2.143 0 1 1-4.286 0 2.143 2.143 0 0 1 4.286 0m-113.197 19.299a1.981 1.981 0 1 1-3.962 0 1.981 1.981 0 0 1 3.962 0m-64.364 2.514a2.514 2.514 0 1 0 5.027-.001 2.514 2.514 0 0 0-5.027.001M145.982 196a2.04 2.04 0 1 1 4.08 0 2.04 2.04 0 0 1-4.08 0m-3.871-63.566a.978.978 0 1 1-1.956 0 .978.978 0 0 1 1.956 0"/><path fill="#475059" d="M111.03 50.296l11.813.002c.841 0 1.606.328 2.175.865a3.16 3.16 0 0 1 2.173-.863l11.816.003V32.74l-11.816-.002h-.001c-.314 0-.608.122-.829.343a1.165 1.165 0 0 0-.344.831h-2c0-.65-.526-1.176-1.174-1.176l-11.813-.003v17.563zm14.987 3.178h-2c0-.648-.526-1.176-1.174-1.176l-13.813-.002V30.733l13.813.003a3.16 3.16 0 0 1 2.174.863 3.144 3.144 0 0 1 2.172-.861h.003l13.815.002v21.563l-13.816-.003c-.648 0-1.174.527-1.174 1.174z"/><path fill="#475059" d="M124.017 55.476h2V32.909h-2z"/><path fill="#475059" d="M141.01 56.474h-32v-5.178h2v3.178h28v-3.171h2v5.171M114.01 38.474h6v-2h-6zM114.01 42.474h6v-2h-6zM114.01 46.474h6v-2h-6zM130.01 38.474h6v-2h-6zM130.01 42.474h6v-2h-6zM130.01 46.474h6v-2h-6zM87.964 217.267h74v-4h-74v4zm-2 2h78v-8h-78v8z"/><path fill="#475059" d="M93.964 211.269h62v-3.999h-62v3.999zm-2 2h66v-7.999h-66v7.999zm52.015-8.001h-2v-1.999h-5c-1.655 0-3-1.346-3-3v-6.001h-18.015v6.001c0 1.654-1.345 3-3 3h-5v1.999h-2v-3.999h7a1 1 0 0 0 1-1v-8.001h22.015v8.001a1 1 0 0 0 1 1h7v3.999m-8-140.085h-22.015v-3.998a1 1 0 0 0-1-1h-3.998v-3.999h2v1.999h1.998c1.655 0 3 1.346 3 3v1.998h18.015v-1.998c0-1.654 1.345-3 3-3h1.998v-1.999h2v3.999h-3.998a1 1 0 0 0-1 1v3.998"/></g></svg>