<?xml version="1.0" encoding="utf-8"?><svg xmlns="http://www.w3.org/2000/svg" width="250" height="250" viewBox="0 0 250 250"><g fill="none" fill-rule="evenodd"><path fill="#DBDBD5" d="M167.584 56.47c0 14.911 12.088 27 27 27s27-12.089 27-27c0-14.912-12.088-27-27-27s-27 12.088-27 27"/><path fill="#434A4F" d="M217.032 57.47h-4a1 1 0 1 1 0-2h4a1 1 0 1 1 0 2"/><path fill="#434A4F" d="M217.032 57.47h-4a1 1 0 1 1 0-2h4a1 1 0 1 1 0 2m-11.067 19.669a.998.998 0 0 1-.867-.5l-2-3.464a.999.999 0 0 1 .366-1.366.998.998 0 0 1 1.366.366l2 3.464a1 1 0 0 1-.865 1.5m4.522-29.169a1 1 0 0 1-.501-1.866l3.464-2a.998.998 0 0 1 1.366.366.999.999 0 0 1-.366 1.366l-3.464 2a.992.992 0 0 1-.499.134m3.836 20.534a.992.992 0 0 1-.499-.134l-3.464-2a1 1 0 0 1 1-1.732l3.464 2a.999.999 0 0 1-.501 1.866m-10.667-27.522a1 1 0 0 1-.865-1.5l2-3.464a1 1 0 1 1 1.732 1l-2 3.464a.998.998 0 0 1-.867.5M195.531 71.47h-2v-17h11v2h-9v15M194.581 38.47a1 1 0 0 1-1-1v-4a1 1 0 1 1 2 0v4a1 1 0 0 1-1 1m.001 42a1 1 0 0 1-1-1v-4a1 1 0 1 1 2 0v4a1 1 0 0 1-1 1"/><path fill="#434A4F" d="M194.581 38.47a1 1 0 0 1-1-1v-4a1 1 0 1 1 2 0v4a1 1 0 0 1-1 1m.001 42a1 1 0 0 1-1-1v-4a1 1 0 1 1 2 0v4a1 1 0 0 1-1 1m-11.434-3.331a.998.998 0 0 1-.866-1.5l2-3.464a1 1 0 1 1 1.733 1l-2 3.464a1 1 0 0 1-.867.5m-4.523-29.169a.992.992 0 0 1-.499-.134l-3.464-2a1 1 0 0 1 1-1.732l3.464 2a.998.998 0 0 1-.501 1.866m6.832-6.988a.998.998 0 0 1-.867-.5l-2-3.464a1.002 1.002 0 0 1 .366-1.367.999.999 0 0 1 1.366.367l2 3.464a.999.999 0 0 1-.865 1.5"/><path fill="#FACD60" d="M160.235 56.64v23.842h23.842"/><path fill="#434A4F" d="M185.077 200.695H68.741V98.52h2v100.175h112.336V80.897L159.821 57.64h-89.08v35.047h-2V55.64h91.908l24.428 24.428v120.627"/><path fill="#434A4F" d="M81.793 126.523h26.001v-2H81.793zM129.748 90.527h22v-2h-22zM129.748 94.527h26v-2h-26z"/><path fill="#E9886C" d="M98.193 100.12c-.058.232-1.258 6.325-1.332 6.841l3.938.188c-.074-.517-1.183-6.797-1.241-7.029a.454.454 0 0 0 .454-.454v-1.137l-1.156-1.365-1.117 1.365v1.137c0 .251.203.454.454.454"/><path fill="#DDDED9" d="M95.378 93.755v.994l3.441 1.932 3.41-1.876.031-1.818v-1.533c.13-.128.264-.266.383-.405-.04.035-.08.071-.113.107-.478.514-1.203 1.054-1.694 1.473-.389.332-.88.515-1.39.521h-1.477a2.178 2.178 0 0 1-1.39-.521c-.468-.4-1.15-.91-1.627-1.402a2.04 2.04 0 0 0-.047-.045c.144.153.307.307.481.461-.003.001-.008.003-.008.008v2.104"/><path fill="#434A4F" d="M95.378 95.72a1 1 0 0 1-1-1v-3.069a1 1 0 1 1 2 0v3.069a1 1 0 0 1-1 1"/><path fill="#434A4F" d="M102.237 95.663a1 1 0 0 1-1-1V91.03l.298-.292c.408-.403.49-.552.506-.589l1.551-3.17 1.464-.733.199-.991h-1.094l.123-1.171c.116-.672.176-1.268.176-1.774v-.255a5.395 5.395 0 0 0-.491-2.317l-.099-.212a5.779 5.779 0 0 0-1.583-1.947 5.629 5.629 0 0 0-3.481-1.218h-.038c-1.466 0-2.864.586-3.941 1.657a5.942 5.942 0 0 0-1.757 4.183v.109c0 .521.051 1.126.153 1.797l.173 1.148H92.3l.287 1.003 1.305.754 1.454 3.074c.15.368.994 1.055 1.399 1.384.173.14.338.274.484.398.209.179.476.28.752.283h1.468a1 1 0 1 1 0 2H97.97a3.2 3.2 0 0 1-2.04-.761 22.359 22.359 0 0 0-.446-.368c-.987-.802-1.707-1.426-1.98-2.159l-1.152-2.431-1.466-.846-.694-2.565c0-.674.38-1.261.936-1.559a12.541 12.541 0 0 1-.058-1.152v-.109c0-2.079.856-4.121 2.348-5.603 1.454-1.444 3.353-2.238 5.349-2.238h.051a7.618 7.618 0 0 1 4.707 1.649 7.76 7.76 0 0 1 2.263 2.897 7.33 7.33 0 0 1 .672 3.103v.301c0 .352-.022.735-.066 1.143.16.085.307.195.437.328.33.34.505.789.492 1.263l-.019.169-.481 2.385-1.733.867-1.217 2.48c-.107.296-.353.61-.636.912v2.806a1 1 0 0 1-1 1"/><path fill="#434A4F" d="M84.21 100.23l-.66-1.889 8.945-3.129 1.326-2.458h1.454v2h-.26l-1.127 2.089-9.678 3.387"/><path fill="#434A4F" d="M98.876 97.857l-3.983-2.232a.997.997 0 0 1-.384-1.36.996.996 0 0 1 1.36-.384l3.007 1.683 2.873-1.609a.996.996 0 0 1 1.36.384.997.997 0 0 1-.383 1.36l-3.85 2.158"/><path fill="#434A4F" d="M113.614 99.846l-9.728-2.952-1.306-2.14h-.294v-2h1.417l1.493 2.446 8.998 2.732-.58 1.914M100.922 100.439a.996.996 0 0 1-.743-.331l-1.303-1.449-1.304 1.449a1 1 0 0 1-1.486-1.338l2.79-3.101 2.789 3.101a1 1 0 0 1-.743 1.669"/><path fill="#434A4F" d="M98.737 72.804c-9.285 0-16.84 7.555-16.84 16.84s7.555 16.84 16.84 16.84c9.286 0 16.839-7.555 16.839-16.84s-7.553-16.84-16.839-16.84zm0 35.68c-10.388 0-18.84-8.452-18.84-18.84 0-10.389 8.452-18.84 18.84-18.84s18.839 8.451 18.839 18.84c0 10.388-8.451 18.84-18.839 18.84zM203.567 194.521h2v-4h-2zM203.567 204.521h2v-4h-2zM207.567 198.521h4v-2h-4zM197.567 198.521h4v-2h-4zM53.565 130.544h2v-4h-2zM53.565 140.544h2v-4h-2zM57.565 134.544h4v-2h-4zM47.565 134.544h4v-2h-4z"/><path fill="#FACD60" d="M213.584 98.52a4 4 0 1 0-8 0 4 4 0 0 0 8 0M41.749 177.574a4 4 0 1 0-8 0 4 4 0 0 0 8 0"/><path fill="#434A4F" d="M167.803 136.365l4.433 4.434v-7.453h-7.453l3.02 3.019zM77.417 186.11l-1.414-1.415 12.911-12.911 7.245 7.244 21.736-21.734 7.244 7.245 21.735-21.734 7.245 7.244 12.27-12.27-6.434-6.433h14.281v14.281l-6.433-6.433-13.684 13.683-7.245-7.244-21.735 21.734-7.244-7.245-21.736 21.735-7.245-7.245-11.497 11.498z"/><path fill="#FACD60" d="M167.906 142.317L154.123 156.1l-7.245-7.245-21.735 21.735-7.244-7.245-21.416 21.415-7.573-6.739-11.5 10.5v4.343l100.125-.25-.021-40.689-9.608-9.608"/><path fill="#434A4F" d="M81.793 130.526h26.001v-2H81.793zM81.793 134.528h26.001v-2H81.793zM126.578 121.52c-1.102 0-2 .897-2 2 0 1.102.898 2 2 2 1.103 0 2-.898 2-2 0-1.103-.897-2-2-2zm0 6c-2.206 0-4-1.794-4-4s1.794-4 4-4 4 1.794 4 4-1.794 4-4 4zm9.999 3.999c-1.102 0-2 .897-2 2 0 1.102.898 2 2 2 1.103 0 2-.898 2-2 0-1.103-.897-2-2-2zm0 6c-2.206 0-4-1.794-4-4s1.794-4 4-4 4 1.794 4 4-1.794 4-4 4zM124.285 137.227l-1.414-1.414 16-16 1.414 1.414-16 16"/><path fill="#42494E" d="M98.586 152.475l-65.17.002c-1.654 0-3 1.345-3 3 0 1.654 1.346 3 3 3l65.171-.002 6.506-3-6.507-3zm-65.17 8.002c-2.757 0-5-2.243-5-5s2.243-5 5-5l65.609-.002 10.843 5-10.842 5-65.61.002z"/><path fill="#42494E" d="M39.026 159.477l-.001-7.599h2l.001 7.599h-2"/><path fill="#42494E" d="M40.025 156.447v-2l58.012-.001v2l-58.012.001"/><path fill="#434A4F" d="M101.506 210.53h2v-4h-2zM101.506 220.53h2v-4h-2zM105.506 214.53h4v-2h-4zM95.506 214.53h4v-2h-4zM175.584 57.47h-4a1 1 0 1 1 0-2h4a1 1 0 1 1 0 2m-1.463 11.034a1 1 0 0 1-.501-1.866l3.464-2a.998.998 0 0 1 1.366.366.998.998 0 0 1-.366 1.366l-3.464 2a.992.992 0 0 1-.499.134M69.667 96.477c-.553 0-1-.405-1-.957v-.085a1 1 0 1 1 2 0c0 .553-.447 1.042-1 1.042"/></g></svg>