<?xml version="1.0" encoding="utf-8"?><svg id="ghLayer_1" xmlns="http://www.w3.org/2000/svg" xmlns:xlink="http://www.w3.org/1999/xlink" viewBox="0 0 193 193" width="193" height="193"><style>.ghst0{clip-path:url(#ghSVGID_2_)}.ghst1{fill:#dededd}.ghst2{fill:#48515a}.ghst3{fill:#475059}.ghst4{fill:#ffd15d}.ghst5{fill:#f58e70}.st6{fill:none;stroke:#48515a;stroke-width:2;stroke-linecap:round;stroke-linejoin:round;stroke-miterlimit:10}.ghst7{fill:#5fe0ed}</style><defs><path id="ghSVGID_1_" d="M0 0h193v193H0z"/></defs><clipPath id="ghSVGID_2_"><use xlink:href="#ghSVGID_1_" overflow="visible"/></clipPath><g class="ghst0"><path class="ghst1" d="M158.7 101.9l8.2-5-15.6-6.7-2.6 1.7 8.2 8.2-2.8 2.8-8.1-8.1-1.7 3.3 6.8 16.4 4.9-9.7 7 7.1v-5.8zM74.9 22.5v12h88v-12h-88zm85 9h-58v-6h58v6zM74.6 114.8V50H58.8z"/><path class="ghst1" d="M162.9 114.8V50h15.7zM56.9 117.3v9.2c0 1.1.9 2 2 2h120c1.1 0 2-.9 2-2v-9.1l-124-.1zM104.9 128.6H133v11.8h-28.1zM80.9 160.5h2v2h-2zM64.9 160.5h2v2h-2zM72.9 160.5h2v2h-2zM88.9 160.5h2v2h-2zM80.9 176.5h2v2h-2zM68.9 168.5h2v2h-2zM52.9 184.5h2v2h-2zM104.9 160.5h2v2h-2zM60.9 184.5h2v2h-2zM52.9 176.5h6v2h-6zM52.9 168.5h2v2h-2zM52.9 160.5h6v2h-6zM84.9 168.5h2v2h-2zM100.9 168.5h2v2h-2zM96.9 176.5h2v2h-2zM76.9 168.5h2v2h-2zM92.9 168.5h2v2h-2zM88.9 176.5h2v2h-2zM60.9 168.5h2v2h-2zM72.9 176.5h2v2h-2zM116.9 168.5h2v2h-2zM112.9 176.5h2v2h-2zM108.9 168.5h2v2h-2zM104.9 176.5h2v2h-2zM112.9 160.5h2v2h-2zM96.9 160.5h2v2h-2zM128.9 160.5h2v2h-2zM136.9 176.5h2v2h-2zM136.9 184.5h2v2h-2zM124.9 168.5h2v2h-2zM128.9 184.5h2v2h-2zM144.9 184.5h2v2h-2zM68.9 184.5h2v2h-2zM144.9 160.5h2v2h-2zM132.9 168.5h2v2h-2z"/><path class="ghst1" d="M149.9 155.5h-100c-1.1 0-2 .9-2 2v32c0 1.1.9 2 2 2h100c1.1 0 2-.9 2-2v-32c0-1.1-.9-2-2-2zm-15 3h6v6h-6v-6zm2 8v6h-6v-6h6zm-10-8h6v6h-6v-6zm2 8v6h-6v-6h6zm-10-8h6v6h-6v-6zm-56 16h6v6h-6v-6zm-4-2v-6h6v6h-6zm8 0v-6h6v6h-6zm4 2h6v6h-6v-6zm4-2v-6h6v6h-6zm4 2h6v6h-6v-6zm4-2v-6h6v6h-6zm4 2h6v6h-6v-6zm4-2v-6h6v6h-6zm4 2h6v6h-6v-6zm4-2v-6h6v6h-6zm4 2h6v6h-6v-6zm4-2v-6h6v6h-6zm4 2h6v6h-6v-6zm4-2v-6h6v6h-6zm-4-14h6v6h-6v-6zm-8 0h6v6h-6v-6zm-8 0h6v6h-6v-6zm-8 0h6v6h-6v-6zm-8 0h6v6h-6v-6zm-8 0h6v6h-6v-6zm-8 0h6v6h-6v-6zm-12 0h10v6h-10v-6zm0 8h6v6h-6v-6zm0 8h10v6h-10v-6zm6 14h-6v-6h6v6zm8 0h-6v-6h6v6zm8 0h-6v-6h6v6zm8 0h-6v-6h6v6zm44 0h-42v-6h42v6zm0-8h-6v-6h6v6zm8 8h-6v-6h6v6zm0-8h-6v-6h6v6zm8 8h-6v-6h6v6zm0-8h-6v-6h6v6zm8 8h-6v-6h6v6zm0-8h-6v-6h6v6zm0-8h-10v-6h10v6zm0-8h-6v-6h6v6z"/><path class="ghst1" d="M136.9 160.5h2v2h-2zM144.9 176.5h2v2h-2zM140.9 168.5h6v2h-6zM128.9 176.5h2v2h-2zM120.9 160.5h2v2h-2zM84.9 184.5h38v2h-38zM120.9 176.5h2v2h-2zM76.9 184.5h2v2h-2zM64.9 176.5h2v2h-2z"/><g><path class="ghst2" d="M149.9 192.5h-100c-1.7 0-3-1.3-3-3v-32c0-1.7 1.3-3 3-3h100c1.7 0 3 1.3 3 3v32c0 1.6-1.3 3-3 3zm-100-36c-.6 0-1 .4-1 1v32c0 .6.4 1 1 1h100c.6 0 1-.4 1-1v-32c0-.6-.4-1-1-1h-100z"/></g><g><path class="ghst3" d="M57.9 60.5h-2v-8.7c0-1.7 1.3-3 3-3h15.2v2H58.9c-.6 0-1 .4-1 1v8.7zM178.9 129.5h-120c-1.7 0-3-1.3-3-3v-34h2v34c0 .6.4 1 1 1h120c.6 0 1-.4 1-1V51.8c0-.6-.4-1-1-1h-15.7v-2h15.7c1.7 0 3 1.3 3 3v74.7c0 1.7-1.3 3-3 3zM96.9 139.5h44v2h-44z"/><path class="ghst3" d="M103.9 128.5h2v12h-2zM131.9 128.5h2v12h-2zM73.9 71.5h2v46h-2z"/><g><path class="ghst3" d="M163.9 117.5h-2v-94h-86v40h-2v-42h90z"/></g><g><path class="ghst3" d="M80.9 31.5c-1.7 0-3-1.3-3-3s1.3-3 3-3 3 1.3 3 3-1.3 3-3 3zm0-4c-.6 0-1 .4-1 1s.4 1 1 1 1-.4 1-1-.4-1-1-1z"/></g><g><path class="ghst3" d="M88.9 31.5c-1.7 0-3-1.3-3-3s1.3-3 3-3 3 1.3 3 3-1.3 3-3 3zm0-4c-.6 0-1 .4-1 1s.4 1 1 1 1-.4 1-1-.4-1-1-1z"/></g><g><path class="ghst3" d="M96.9 31.5c-1.7 0-3-1.3-3-3s1.3-3 3-3 3 1.3 3 3-1.3 3-3 3zm0-4c-.6 0-1 .4-1 1s.4 1 1 1 1-.4 1-1-.4-1-1-1z"/></g></g><g><path transform="rotate(-43.481 25.484 118.12)" class="ghst3" d="M24.5 97.3h2V139h-2z"/><path class="ghst1" d="M18 140c0-5.4 4.4-9.8 9.8-9.8h16.5c5.4 0 9.8 4.4 9.8 9.8v.1"/><path class="ghst4" d="M68.2 73.7c4.4 4.4 4.4 11.4 0 15.8s-11.4 4.4-15.8 0"/><path class="ghst3" d="M14.3 139.5h43.5v2H14.3z"/><path transform="rotate(-48.425 20.558 84.96)" class="ghst3" d="M6.2 84H35v2H6.2z"/><path class="ghst5" d="M7.3 105.7c-3.4 0-6.2-2.8-6.2-6.2 0-3.4 2.8-6.2 6.2-6.2 3.4 0 6.2 2.8 6.2 6.2.1 3.4-2.7 6.2-6.2 6.2zm0-10.5c-2.3 0-4.2 1.9-4.2 4.2 0 2.3 1.9 4.2 4.2 4.2 2.3 0 4.2-1.9 4.2-4.2.1-2.3-1.8-4.2-4.2-4.2z"/><path class="ghst1" d="M45.7 96.2l-7.5-21.9-7.3-7.3c-4.1-4.1-4.1-10.7 0-14.8 4.1-4.1 10.7-4.1 14.8 0l7.3 7.3L74.9 67 45.7 96.2z"/></g><g><path class="ghst2" d="M32.1 76c-.9 0-1.8-.4-2.5-1.1-1.4-1.4-1.4-3.7 0-5.1l2.3-2.3 1.4 1.4-2.3 2.4c-.6.6-.6 1.6 0 2.3.6.6 1.6.6 2.3 0l2.3-2.3 1.4 1.4-2.3 2.3c-.7.7-1.7 1-2.6 1z"/></g><g><path class="ghst2" d="M98.9 154.5h-2v-2c0-2.8 2.2-5 5-5h85c1.7 0 3-1.3 3-3s-1.3-3-3-3h-32c-2.8 0-5-2.2-5-5v-8h2v8c0 1.7 1.3 3 3 3h32c2.8 0 5 2.2 5 5s-2.2 5-5 5h-85c-1.7 0-3 1.3-3 3v2z"/></g><g><path class="ghst1" d="M178.9 188.5h-12c-2.2 0-4-1.8-4-4v-22c0-2.2 1.8-4 4-4h12c2.2 0 4 1.8 4 4v22c0 2.2-1.8 4-4 4z"/></g><g><path class="ghst2" d="M171.9 158.5h2v8h-2z"/></g><g><path class="ghst3" d="M45.3 98l-8-23.2-7.1-7.1c-4.5-4.5-4.5-11.8 0-16.3s11.8-4.5 16.3 0l7.1 7.1 23.2 8L45.3 98zm-7-47.9c-2.4 0-4.9.9-6.7 2.8-3.7 3.7-3.7 9.7 0 13.4l7.5 7.5 7.1 20.6 26.9-26.9-20.6-7.1-7.5-7.5c-1.8-1.9-4.2-2.8-6.7-2.8z"/></g><g><path class="ghst2" d="M131.9 28.5c0-.6.4-1 1-1 .5 0 1 .4 1 1 0 .5-.5 1-1 1s-1-.4-1-1zm-4 0c0-.6.4-1 1-1 .5 0 1 .4 1 1 0 .5-.5 1-1 1s-1-.4-1-1zm-4 0c0-.6.4-1 1-1 .5 0 1 .4 1 1 0 .5-.5 1-1 1s-1-.4-1-1zm-4 0c0-.6.4-1 1-1 .5 0 1 .4 1 1 0 .5-.5 1-1 1s-1-.4-1-1zm-4 0c0-.6.4-1 1-1 .5 0 1 .4 1 1 0 .5-.5 1-1 1s-1-.4-1-1zm-4 0c0-.6.4-1 1-1 .5 0 1 .4 1 1 0 .5-.5 1-1 1s-1-.4-1-1zm-4 0c0-.6.4-1 1-1 .5 0 1 .4 1 1 0 .5-.5 1-1 1s-1-.4-1-1zm-4 0c0-.6.4-1 1-1 .5 0 1 .4 1 1 0 .5-.5 1-1 1s-1-.4-1-1z"/></g><g><path class="ghst2" d="M141 106.9L127 73l32.1 13.7-8.8 5.3 8 8-4.2 4.2-7.8-7.8-5.3 10.5zm-10.2-30.1l10.5 25.3 4.5-9 8.4 8.4 1.4-1.4-8.4-8.4 7.7-4.6-24.1-10.3z"/></g><g><path class="ghst3" d="M124.9 57.5h20v2h-20z"/></g><g><path class="ghst3" d="M124.9 61.5h20v2h-20z"/></g><g><path class="ghst3" d="M124.9 65.5h20v2h-20z"/></g><g><path class="ghst3" d="M110.5 113.5H34.9c-2.8 0-5-2.2-5-5s2.2-5 5-5h75.6l10.8 5-10.8 5zm-75.6-8c-1.7 0-3 1.3-3 3s1.3 3 3 3h75.2l6.5-3-6.5-3H34.9z"/><path class="ghst3" d="M40.5 104.9h2v7.6h-2z"/><g><path class="ghst3" d="M41.5 107.5h68v2h-68z"/></g></g><g><path class="ghst4" d="M158.4 5.5H189v19h-30.6z"/><path class="ghst4" d="M189.9 25.5h-32.6v-21h32.6v21zm-30.5-2H188v-17h-28.6v17z"/><path class="ghst2" d="M173.6 16.2c-.2 0-.4-.1-.5-.2l-13.2-8.3c-.5-.3-.6-.9-.3-1.4.3-.5.9-.6 1.4-.3l12.7 8 11.9-7.6c.5-.3 1.1-.2 1.4.3.3.5.2 1.1-.3 1.4l-12.4 8c-.3.1-.5.1-.7.1zM186.6 23.1c-.3 0-.6-.1-.8-.4l-6.2-7.4c-.4-.4-.3-1.1.1-1.4.4-.4 1.1-.3 1.4.1l6.2 7.4c.4.4.3 1.1-.1 1.4-.2.2-.4.3-.6.3zM160.7 23.1c-.2 0-.5-.1-.6-.2-.4-.4-.5-1-.1-1.4l6.2-7.4c.4-.4 1-.5 1.4-.1.4.4.5 1 .1 1.4l-6.2 7.4c-.2.1-.5.3-.8.3zM173.9 29.5h2v12h-2zM174.9 45.5h-.2c-.1 0-.1 0-.2-.1-.1 0-.1-.1-.2-.1s-.1-.1-.1-.1c-.1-.1-.2-.2-.2-.3-.1-.1-.1-.2-.1-.4 0-.1 0-.3.1-.4.1-.1.1-.2.2-.3.4-.4 1-.4 1.4 0 .2.2.3.4.3.7 0 .1 0 .3-.1.4-.1.1-.1.2-.2.3-.2.2-.4.3-.7.3z"/><g><path class="ghst2" d="M179.9 29.5h2v6h-2z"/></g><g><path class="ghst2" d="M180.9 39.5c-.3 0-.5-.1-.7-.3-.2-.2-.3-.4-.3-.7 0-.3.1-.5.3-.7.3-.3.7-.4 1.1-.2.1 0 .2.1.3.2.2.2.3.4.3.7 0 .3-.1.5-.3.7-.1.1-.2.2-.3.2-.1.1-.3.1-.4.1z"/></g><g><path class="ghst2" d="M167.9 29.5h2v8h-2z"/></g><g><path class="ghst2" d="M168.9 41.5c-.1 0-.2 0-.4-.1-.1-.1-.2-.1-.3-.2-.1-.1-.2-.2-.2-.3 0-.1-.1-.2-.1-.4 0-.1 0-.3.1-.4 0-.1.1-.2.2-.3.1-.1.2-.2.3-.2.4-.1.8-.1 1.1.2.1.1.2.2.2.3 0 .1.1.2.1.4 0 .1 0 .2-.1.4-.1.1-.1.2-.2.3-.2.2-.4.3-.7.3z"/></g></g><g><circle class="ghst7" cx="73.7" cy="144.5" r="4"/></g><g><circle class="ghst7" cx="13.6" cy="51.5" r="4"/></g><g><path class="ghst2" d="M21.6 157.6h2v4h-2zM21.6 167.6h2v4h-2z"/><g><path class="ghst2" d="M25.6 163.6h4v2h-4zM15.6 163.6h4v2h-4z"/></g></g><g><path class="ghst2" d="M21.6 21.5h2v4h-2zM21.6 31.5h2v4h-2z"/><g><path class="ghst2" d="M25.6 27.5h4v2h-4zM15.6 27.5h4v2h-4z"/></g></g><g><path class="ghst2" d="M131.6 4.5h2v4h-2zM131.6 14.5h2v4h-2z"/><g><path class="ghst2" d="M135.6 10.5h4v2h-4zM125.6 10.5h4v2h-4z"/></g></g><g><path class="ghst2" d="M178.9 189.5h-12c-2.8 0-5-2.2-5-5v-22c0-2.8 2.2-5 5-5h12c2.8 0 5 2.2 5 5v22c0 2.8-2.2 5-5 5zm-12-30c-1.7 0-3 1.3-3 3v22c0 1.7 1.3 3 3 3h12c1.7 0 3-1.3 3-3v-22c0-1.7-1.3-3-3-3h-12z"/></g><g><path class="ghst5" d="M101.2 70.3c-1.2 0-2.5-.5-3.4-1.4-1.9-1.9-1.9-4.9 0-6.8 1.9-1.9 4.9-1.9 6.8 0 .9.9 1.4 2.1 1.4 3.4 0 1.3-.5 2.5-1.4 3.4-.9 1-2.2 1.4-3.4 1.4zm0-7.6c-.7 0-1.4.3-2 .8-1.1 1.1-1.1 2.9 0 4s2.9 1.1 4 0c.5-.5.8-1.2.8-2 0-.7-.3-1.5-.8-2-.6-.5-1.3-.8-2-.8z"/><path class="ghst2" d="M101 85.2l-.5-3.5c-.2-1-.9-1.5-1.6-1.6-.7-.1-1.5.1-2 1l-1.6 3.1-5.9-3 1.6-3.1c.5-.9.1-1.7-.3-2.2-.5-.5-1.3-.8-2.2-.3l-3.1 1.6-3-5.8 3.1-1.6c.9-.5 1.1-1.3 1-2-.1-.7-.6-1.4-1.6-1.6l-3.5-.6 1-6.5 3.5.6c1 .2 1.7-.4 2-1 .3-.6.4-1.5-.3-2.2L85.1 54l4.7-4.7 2.5 2.5c.7.7 1.6.6 2.2.3.6-.3 1.2-1 1-2l-.5-3.5 6.5-1 .5 3.5c.2 1 .9 1.5 1.6 1.6.7.1 1.5-.1 2-1l1.6-3.1 5.9 3-1.6 3.1c-.5.9-.1 1.7.3 2.2.5.5 1.3.8 2.2.3l3.1-1.6 3 5.8L117 61c-.9.5-1.1 1.3-1 2 .1.7.6 1.4 1.6 1.6l3.5.6-1 6.5-3.5-.6c-1-.2-1.7.4-2 1-.3.6-.4 1.5.3 2.2l2.5 2.5-4.7 4.7-2.5-2.5c-.7-.7-1.6-.6-2.2-.3-.6.3-1.2 1-1 2l.5 3.5-6.5 1zm-2.5-7c.2 0 .4 0 .6.1 1.7.3 3 1.5 3.2 3.2l.2 1.5 2.6-.4-.1-1.6c-.3-1.7.5-3.3 2.1-4.1 1.5-.8 3.3-.5 4.5.7l1.1 1.1 1.8-1.8-1.1-1.1c-1.2-1.2-1.5-3-.7-4.5s2.4-2.3 4.1-2.1l1.5.2.4-2.6-1.5-.2c-1.7-.3-3-1.5-3.2-3.2-.3-1.7.5-3.3 2.1-4.1l1.4-.7-1.1-2.3-1.4.7c-1.5.8-3.3.5-4.5-.7-1.2-1.2-1.5-3-.7-4.5l.7-1.4-2.3-1.2-.7 1.4c-.8 1.5-2.4 2.3-4.1 2.1-1.7-.3-3-1.5-3.2-3.2L100 48l-2.6.4.2 1.5c.3 1.7-.5 3.3-2.1 4.1-1.5.8-3.3.5-4.5-.7l-1.1-1.1-1.9 1.9 1.1 1.1c1.2 1.2 1.5 3 .7 4.5s-2.4 2.3-4.1 2.1l-1.5-.2-.4 2.6 1.5.2c1.7.3 3 1.5 3.2 3.2.3 1.7-.5 3.3-2.1 4.1l-1.4.7 1.1 2.3 1.4-.7c1.5-.8 3.3-.5 4.5.7 1.2 1.2 1.5 3 .7 4.5l-.7 1.4 2.3 1.2.7-1.4c.8-1.5 2.1-2.2 3.5-2.2z"/><path class="ghst2" d="M101.3 76.2c0-.5.3-1 .9-1.1.5 0 1 .4 1.1.9.1.6-.3 1.1-.9 1.1h-.1c-.5 0-.9-.4-1-.9zm-3.2.5c-.5-.2-.9-.7-.7-1.2.1-.5.7-.8 1.2-.7.5.1.9.7.7 1.2-.1.4-.5.7-1 .7 0 .1-.1.1-.2 0zm7.1-1.3c-.3-.5-.1-1.1.4-1.4.5-.3 1.1-.1 1.3.4.3.5.1 1.1-.4 1.3-.1.1-.3.1-.5.1-.2.2-.6 0-.8-.4zm-11-.6c-.4-.3-.5-1-.2-1.4.3-.4 1-.5 1.4-.2.4.3.5 1 .2 1.4-.2.3-.5.4-.8.4-.2 0-.4 0-.6-.2zm14.4-1.5c-.4-.4-.5-1-.1-1.4.4-.4 1-.5 1.4-.1.4.4.4 1 .1 1.4-.2.2-.5.3-.8.3-.2 0-.4-.1-.6-.2zm-17.3-1.7c-.3-.5-.1-1.1.3-1.4.5-.3 1.1-.1 1.4.3.3.5.1 1.1-.3 1.4-.2.1-.3.1-.5.1-.4.1-.7-.1-.9-.4zm19.6-1.6c-.5-.2-.8-.8-.6-1.3.2-.5.8-.8 1.3-.6.5.2.8.8.6 1.3-.2.4-.5.7-1 .7-.1 0-.2 0-.3-.1zm-21.2-2.5c-.1-.5.3-1.1.8-1.1.5-.1 1.1.3 1.2.8.1.5-.3 1.1-.8 1.2h-.2c-.5 0-.9-.4-1-.9zm21.2-2.3c0-.6.4-1 1-1s1 .4 1 1-.4 1-1 1c-.6-.1-1-.5-1-1zm-20.3-.8c-.5-.1-.9-.6-.8-1.2.1-.5.6-.9 1.2-.8.5.1.9.6.8 1.2-.1.5-.5.8-1 .8h-.2zm19.5-2.7c-.2-.5 0-1.1.5-1.3.5-.2 1.1 0 1.3.5.2.5 0 1.1-.5 1.3-.1.1-.3.1-.4.1-.4 0-.8-.3-.9-.6zm-18.4-1.2c-.5-.3-.6-.9-.3-1.4.3-.5.9-.6 1.4-.3.5.3.6.9.3 1.4-.2.3-.5.5-.8.5-.2 0-.4-.1-.6-.2zm16.3-1.8c-.4-.4-.4-1 0-1.4.4-.4 1-.4 1.4 0 .4.4.4 1 0 1.4-.2.2-.5.3-.7.3-.2 0-.5-.1-.7-.3zm-13.8-1.3c-.3-.4-.2-1.1.3-1.4.4-.3 1.1-.2 1.4.2.3.5.2 1.1-.2 1.4-.2.1-.4.2-.6.2-.4 0-.7-.1-.9-.4zm11.7-.3c-.5-.3-.6-.9-.4-1.4.3-.5.9-.7 1.4-.4.5.3.6.9.4 1.4-.2.3-.5.5-.9.5-.2 0-.3 0-.5-.1zm-8.2-1.7c-.1-.5.2-1.1.7-1.2.5-.1 1.1.2 1.2.7.1.5-.2 1.1-.7 1.2h-.2c-.5.1-.9-.2-1-.7zm4.8.5c-.5-.1-.9-.6-.9-1.1.1-.6.6-.9 1.1-.9.5.1.9.6.9 1.1-.1.5-.5.9-1 .9 0 .1-.1 0-.1 0z"/></g><g><path class="ghst5" d="M57.9 44.5c-12.1 0-22-9.9-22-22s9.9-22 22-22 22 9.9 22 22-9.8 22-22 22zm0-42c-11 0-20 9-20 20s9 20 20 20 20-9 20-20-8.9-20-20-20z"/><path class="ghst2" d="M58.9 33.1h-2V20.7h8.8v2h-6.8zM43.5 23.5h-3.1c-.6 0-1-.4-1-1s.4-1 1-1h3.1c.6 0 1 .4 1 1s-.4 1-1 1z"/><path class="ghst2" d="M43.5 23.5h-3.1c-.6 0-1-.4-1-1s.4-1 1-1h3.1c.6 0 1 .4 1 1s-.4 1-1 1zM49 38.8c-.2 0-.3 0-.5-.1-.5-.3-.6-.9-.4-1.4l1.6-2.7c.3-.5.9-.6 1.4-.4.5.3.6.9.4 1.4l-1.6 2.7c-.2.3-.5.5-.9.5zM45.5 16.1c-.2 0-.3 0-.5-.1l-2.7-1.6c-.5-.3-.6-.9-.4-1.4.3-.5.9-.6 1.4-.4l2.7 1.6c.5.3.6.9.4 1.4-.2.3-.5.5-.9.5zM42.5 32.1c-.3 0-.7-.2-.9-.5-.3-.5-.1-1.1.4-1.4l2.7-1.6c.5-.3 1.1-.1 1.4.4.3.5.1 1.1-.4 1.4L43 32c-.1.1-.3.1-.5.1zM50.8 10.7c-.3 0-.7-.2-.9-.5l-1.6-2.7c-.3-.5-.1-1.1.4-1.4.5-.3 1.1-.1 1.4.4l1.6 2.7c.3.5.1 1.1-.4 1.4-.1.1-.3.1-.5.1zM75.3 23.5h-3.1c-.6 0-1-.4-1-1s.4-1 1-1h3.1c.6 0 1 .4 1 1s-.4 1-1 1zM57.8 8.7c-.6 0-1-.4-1-1V4.6c0-.6.4-1 1-1s1 .4 1 1v3.1c0 .6-.4 1-1 1zM57.8 41.4c-.6 0-1-.4-1-1v-3.1c0-.6.4-1 1-1s1 .4 1 1v3.1c0 .6-.4 1-1 1z"/><path class="ghst2" d="M75.3 23.5h-3.1c-.6 0-1-.4-1-1s.4-1 1-1h3.1c.6 0 1 .4 1 1s-.4 1-1 1zM66.7 38.8c-.3 0-.7-.2-.9-.5l-1.6-2.7c-.3-.5-.1-1.1.4-1.4.5-.3 1.1-.1 1.4.4l1.6 2.7c.3.5.1 1.1-.4 1.4-.1.1-.3.1-.5.1zM70.2 16.1c-.3 0-.7-.2-.9-.5-.3-.5-.1-1.1.4-1.4l2.7-1.6c.5-.3 1.1-.1 1.4.4.3.5.1 1.1-.4 1.4L70.7 16c-.1.1-.3.1-.5.1zM73.2 32.1c-.2 0-.3 0-.5-.1L70 30.4c-.5-.3-.6-.9-.4-1.4.3-.5.9-.6 1.4-.4l2.7 1.6c.5.3.6.9.4 1.4-.2.3-.5.5-.9.5zM64.9 10.7c-.2 0-.3 0-.5-.1-.5-.3-.6-.9-.4-1.4l1.6-2.7c.3-.5.9-.6 1.4-.4.5.3.6.9.4 1.4l-1.6 2.7c-.2.3-.5.5-.9.5z"/></g></g></svg>