<?xml version="1.0" encoding="utf-8"?><svg id="gjLayer_1" xmlns="http://www.w3.org/2000/svg" xmlns:xlink="http://www.w3.org/1999/xlink" viewBox="0 0 193.3 193" width="193.3" height="193"><style>.gjst0{clip-path:url(#gjSVGID_2_)}.gjst1{fill:#dfe0e0}.gjst2{fill:#48515a}.gjst3{fill:#5fe0ed}.gjst4{fill:#f58e70}.gjst5{fill:#4f4f4f}.gjst6{fill:#475059}.gjst7{fill:#ffd15d}</style><defs><path id="gjSVGID_1_" d="M.2 0h193v193H.2z"/></defs><clipPath id="gjSVGID_2_"><use xlink:href="#gjSVGID_1_" overflow="visible"/></clipPath><g class="gjst0"><path class="gjst1" d="M18.1 94.2c3 0 5.8 1.2 7.7 3.2v-6.3c0-18.6 15.5-33.6 34.3-32.9 6.6.3 12.9 2.8 18.1 6.7-5.6-10.2-16.5-17.8-28.1-18.3-18.8-.6-34.3 14.4-34.3 33V92c0 1.2 1 2.2 2.3 2.2zM94.6 81.6c2.9 7.9 8 14.6 14.7 19.5 1.5-1.6 2.5-3.7 2.7-6-6.9-2.9-12.9-7.6-17.4-13.5zM161.1 82.2c-7.7 9.8-19.6 16.1-33 16.1-2.1 0-4.2-.2-6.2-.5-2.4 2.6-5.5 4.6-9 5.6 1.7 1 3.4 1.9 5.2 2.6-.5 5.2-4.8 9.2-10.1 9.2h5.1c5.9 0 11.2-2.5 14.9-6.5 2 .3 4.1.5 6.2.5 12.8 0 24.3-5.8 32-14.9l-5.1-12.1zM166.9 72.1l8.3 3.5c.6-2.7.9-5.6.9-8.5 0-9.5-3.2-18.3-8.5-25.4 1.6 4.5 2.5 9.4 2.5 14.4 0 5.8-1.2 11.1-3.2 16zM162.6 117.6c.1.5.1 1.1 0 1.7l-2.1 8.8c0 1.3 1 2.3 2.3 2.3h4.6c-1.3 0-2.3-1-2.3-2.3l2.1-8.8c.1-.5.1-1.1 0-1.7l-1-3.7c-.7-2.7-3.1-4.5-5.9-4.5v2.1c.6.7 1 1.5 1.2 2.4l1.1 3.7zM180.1 137.5h.2c2 0 3.6-1.7 3.5-3.7-.1-1.9-1.8-3.3-3.7-3.3h-4.6c1.9 0 3.6 1.4 3.7 3.3.1 2-1.5 3.7-3.5 3.7h-.2c1.9 0 3.6 1.4 3.7 3.3.1 1.9-1.3 3.5-3.2 3.7h-1.5c2.2 0 3.9 2 3.5 4.2-.3 1.7-1.9 2.8-3.6 2.9v.2c1.5.5 2.5 1.9 2.4 3.5-.1 1.9-1.8 3.3-3.7 3.3h2.3c1.9 0 3.6-1.4 3.7-3.3.1-2-1.5-3.7-3.5-3.7h3.3c1.7 0 3.4-1.2 3.7-2.9.4-2.2-1.3-4.2-3.5-4.2h1.5c1.8-.2 3.3-1.8 3.2-3.7-.1-1.9-1.8-3.3-3.7-3.3z"/><path class="gjst2" d="M175.4 159.6h-10c-5 0-9.9-.8-14.6-2.3h-4.5c-.6 0-1-.4-1-1s.4-1 1-1h4.7c.1 0 .2 0 .3.1 4.6 1.5 9.3 2.3 14.1 2.3h10c1.4 0 2.6-1.1 2.7-2.4 0-.7-.2-1.4-.7-1.9-.5-.5-1.1-.8-1.8-.8-.6 0-1-.4-1-1s.4-1 1-1h3.3c1.3 0 2.5-.9 2.7-2 .1-.8-.1-1.5-.6-2.1-.5-.6-1.2-.9-1.9-.9-.6 0-1-.4-1-1s.5-1 1.1-1H180.6c1.3-.1 2.3-1.3 2.2-2.6-.1-1.3-1.3-2.4-2.7-2.4-.6 0-1-.4-1-1s.4-1 1-1h.2c.7 0 1.3-.3 1.8-.8s.7-1.2.7-1.9c-.1-1.3-1.3-2.4-2.7-2.4h-12.7c-1.8 0-3.3-1.5-3.3-3.3v-.2l2.1-8.8c.1-.4.1-.8 0-1.2l-1-3.7c-.5-1.9-2-3.3-3.9-3.7v5.9c0 .1 0 .2-.1.4l-5.3 13.7c-.5 1.3-1.7 2.1-3.1 2.1h-6.6c-.6 0-1-.4-1-1s.4-1 1-1h6.6c.6 0 1.1-.3 1.3-.9l5.2-13.6v-6.8c0-.6.4-1 1-1 3.2 0 6 2.2 6.8 5.3l1 3.7c.2.7.2 1.4 0 2.1l-2.1 8.7c.1.7.6 1.2 1.3 1.2H180c2.5 0 4.6 1.9 4.7 4.3.1 1.3-.4 2.4-1.2 3.3-.1.2-.3.3-.5.4 1 .8 1.6 1.9 1.7 3.2.1 1.8-.9 3.4-2.4 4.2l.1.1c.9 1 1.2 2.4 1 3.7-.4 2-2.1 3.5-4.2 3.7.6.8.8 1.8.8 2.8 0 2.6-2 4.5-4.6 4.5z"/><path class="gjst2" d="M180.3 138.5h-5.9c-.6 0-1-.4-1-1s.4-1 1-1h5.9c.6 0 1 .4 1 1 0 .5-.4 1-1 1zM180.3 145.5h-5.9c-.6 0-1-.4-1-1s.4-1 1-1h5.9c.6 0 1 .4 1 1s-.4 1-1 1zM175.6 152.5h-1.2c-.6 0-1-.4-1-1s.4-1 1-1h1.2c.6 0 1 .4 1 1s-.4 1-1 1zM171.2 134.8c-.3 0-.5-.1-.7-.3-.1-.1-.2-.2-.2-.3 0-.1-.1-.2-.1-.4 0-.3.1-.5.3-.7.3-.3.7-.4 1.1-.2.1.1.2.1.3.2.2.2.3.4.3.7 0 .1 0 .3-.1.4 0 .1-.1.2-.2.3-.1.1-.2.2-.3.2-.2.1-.3.1-.4.1zM171.2 141.8h-.2c-.1 0-.1 0-.2-.1-.1 0-.1-.1-.2-.1s-.1-.1-.1-.1c-.2-.2-.3-.4-.3-.7 0-.3.1-.5.3-.7l.1-.1s.1-.1.2-.1.1 0 .2-.1c.3-.1.7 0 .9.3.2.2.3.4.3.7 0 .3-.1.5-.3.7-.1.1-.2.2-.3.2-.2.1-.3.1-.4.1zM171.2 148.8h-.2c-.1 0-.1 0-.2-.1-.1 0-.1-.1-.2-.1s-.1-.1-.1-.1c-.2-.2-.3-.4-.3-.7 0-.1 0-.3.1-.4.1-.1.1-.2.2-.3.3-.3.7-.4 1.1-.2.1.1.2.1.3.2.1.1.2.2.2.3 0 .1.1.3.1.4 0 .3-.1.5-.3.7-.2.2-.5.3-.7.3z"/><path class="gjst3" d="M127.2 128.2h19.1v32h-19.1z"/><path class="gjst2" d="M171.2 155.8c-.3 0-.5-.1-.7-.3-.2-.2-.3-.4-.3-.7 0-.1 0-.3.1-.4.1-.1.1-.2.2-.3.3-.3.7-.4 1.1-.2.1 0 .2.1.3.2.1.1.2.2.2.3 0 .1.1.2.1.4 0 .3-.1.5-.3.7-.1.1-.2.2-.3.2-.2 0-.3.1-.4.1zM111.1 68.1h34v2h-34zM111.1 72.2h34v2h-34z"/><path class="gjst2" d="M160.6 81.1c-7.5 9.8-19.3 16.1-32.6 16.1-2 0-4.1-.2-6.1-.5-.3 0-.7.1-.9.3-3.4 3.6-7.9 5.8-12.7 6.1 2.6-1.8 4.3-4.7 4.6-8.1 0-.4-.2-.8-.6-1C97 87.8 87.1 72.9 87.1 56.2c0-22.6 18.4-41 41-41s41 18.4 41 41c0 5.5-1.1 10.7-3.1 15.5l1.8.8c2.1-5 3.2-10.5 3.2-16.3 0-23.7-19.3-43-43-43s-43 19.3-43 43c0 17.2 10.1 32.6 25.9 39.4-.7 4.4-4.5 7.6-9 7.6-.6 0-1 .4-1 1s.4 1 1 1h5.1c5.7 0 11.2-2.3 15.2-6.4 1.9.3 3.9.4 5.9.4 13.5 0 25.6-6.3 33.4-16l-.9-2.1z"/><g><path class="gjst2" d="M111.1 76.2h34v2h-34z"/></g><g><path class="gjst2" d="M170.6 107.8L152.9 65l40.4 17.3-11.3 6.8 10.5 10.5-5.1 5.1-10.2-10.2-6.6 13.3zm-14-39l14.1 34.1 5.9-11.9 10.8 10.8 2.3-2.3-10.9-10.9 10.1-6.1-32.3-13.7z"/></g><g><path class="gjst4" d="M127.7 66.1c-10.2 0-18.5-8.3-18.5-18.5s8.3-18.5 18.5-18.5 18.5 8.3 18.5 18.5-8.3 18.5-18.5 18.5zm0-35c-9.1 0-16.5 7.4-16.5 16.5s7.4 16.5 16.5 16.5 16.5-7.4 16.5-16.5-7.4-16.5-16.5-16.5z"/><path class="gjst5" d="M123.4 42.6c-.4-.7-1.1-1.1-1.8-1.1-.8 0-1.4.4-1.8 1.1l-1.7-1c.7-1.3 2.1-2.1 3.5-2.1s2.8.8 3.5 2.1l-1.7 1zM135.7 42.6c-.4-.7-1.1-1.1-1.8-1.1-.8 0-1.4.4-1.8 1.1l-1.7-1c.7-1.3 2.1-2.1 3.5-2.1s2.8.8 3.5 2.1l-1.7 1zM127.7 59.6c-6.1 0-11-4.9-11-11v-1h22v1c0 6-4.9 11-11 11zm-8.9-10c.5 4.5 4.3 8 8.9 8s8.4-3.5 8.9-8h-17.8z"/></g><g><path class="gjst6" d="M104.6 171.9h-.8c-10.5-.4-18.8-9.3-18.4-19.9.1-2.8.8-5.5 2.1-8l-1.9-11.3 11.4 2.4c2.6-1.1 5.3-1.6 8.2-1.5 5.1.2 9.8 2.4 13.3 6.1 3.5 3.8 5.3 8.6 5.1 13.7-.2 5.1-2.4 9.8-6.1 13.3-3.5 3.4-8 5.2-12.9 5.2zm-16.4-36.6l1.5 9-.2.3c-1.2 2.3-1.9 4.8-2 7.5-.4 9.4 7 17.4 16.5 17.8 4.6.2 8.9-1.4 12.3-4.5 3.4-3.1 5.3-7.3 5.5-11.9.2-4.6-1.4-8.9-4.5-12.3-3.1-3.4-7.3-5.3-11.9-5.5-2.6-.1-5.2.4-7.6 1.4l-.3.1-9.3-1.9z"/><path class="gjst4" d="M113.5 153.9c.7-.9 1.2-2.1 1.2-3.4 0-3-2.4-5.5-5.5-5.5-1.9 0-3.5.9-4.5 2.4-1-1.4-2.6-2.4-4.5-2.4-3 0-5.5 2.4-5.5 5.5 0 1.3.5 2.5 1.2 3.4.2.3 8.7 9 8.7 9s8.7-8.8 8.9-9z"/><path class="gjst4" d="M104.7 164.3l-.7-.7c-3.2-3.3-8.6-8.9-8.8-9.1-.9-1.2-1.4-2.6-1.4-4 0-3.6 2.9-6.5 6.5-6.5 1.7 0 3.3.7 4.5 1.8 1.2-1.2 2.8-1.8 4.5-1.8 3.6 0 6.5 2.9 6.5 6.5 0 1.5-.5 2.9-1.4 4-.2.3-5.6 5.8-8.8 9.1l-.9.7zm-4.5-18.3c-2.5 0-4.5 2-4.5 4.5 0 1 .3 2 1 2.8.3.3 4.7 4.8 8 8.2 3.3-3.4 7.6-7.8 8-8.2.6-.8 1-1.8 1-2.8 0-2.5-2-4.5-4.5-4.5-1.5 0-2.8.7-3.7 1.9l-.8 1.2-.8-1.2c-.8-1.2-2.2-1.9-3.7-1.9z"/></g><g><path class="gjst7" d="M144.1 166.8l2.7 5.4 5.9.9c1.6.2 2.3 2.3 1.1 3.4l-4.3 4.2 1 5.9c.3 1.6-1.4 2.9-2.9 2.1l-5.3-2.8-5.3 2.8c-1.5.8-3.2-.5-2.9-2.1l1-5.9-4.3-4.2c-1.2-1.2-.5-3.2 1.1-3.4l5.9-.9 2.7-5.4c.7-1.5 2.9-1.5 3.6 0z"/></g><g><path class="gjst2" d="M81.9 14.2h2v4h-2zM81.9 24.2h2v4h-2z"/><g><path class="gjst2" d="M85.9 20.2h4v2h-4zM75.9 20.2h4v2h-4z"/></g></g><g><path class="gjst2" d="M105.9 112.3h2v4h-2zM105.9 122.3h2v4h-2z"/><g><path class="gjst2" d="M109.9 118.3h4v2h-4zM99.9 118.3h4v2h-4z"/></g></g><g><path class="gjst6" d="M68.8 186c-2.8 0-5-2.2-5-5s2.2-5 5-5h35.6l10.8 5-10.8 5H68.8zm0-8c-1.7 0-3 1.3-3 3s1.3 3 3 3H104l6.5-3-6.5-3H68.8z"/><path class="gjst6" d="M74.5 177.4h2v7.6h-2z"/><g><path class="gjst6" d="M75.5 180h28v2h-28z"/></g></g><g><path class="gjst2" d="M38 179.4c-6.9 0-13.4-2.6-18.5-7.3-5.4-5.1-8.6-12.3-8.6-19.8 0-.6.4-1 1-1s1 .4 1 1c0 7 2.8 13.5 7.9 18.3 5.1 4.8 11.8 7.2 18.8 6.7 13.1-.8 23.4-12.2 23.4-25.9v-7.9c0-10.9 5.1-21.1 13.6-27.3 14-10.1 21.3-27.1 19.1-44.2C93 50.9 75.6 33.9 54.5 31.6 40.8 30 27.8 34.2 17.7 43.2 7.7 52.1 2 64.9 2 78.3c0 .6-.4 1-1 1s-1-.4-1-1c0-14 6-27.3 16.3-36.6C26.9 32.3 40.5 28 54.6 29.5c22.1 2.4 40.2 20.2 43 42.2 2.3 17.9-5.2 35.5-19.7 46.1-8 5.9-12.8 15.5-12.8 25.7v7.9c0 14.7-11.1 27-25.3 27.9-.6.1-1.2.1-1.8.1z"/><path class="gjst2" d="M15.8 80.6c-.6 0-1-.4-1-1 0-9.3 3.7-18 10.4-24.5s15.5-9.8 24.9-9.4c17.4.7 32.8 16.4 33 33.7 0 .6-.4 1-1 1-.5 0-1-.4-1-1-.1-16.2-14.6-31-31-31.7-8.8-.3-17.1 2.8-23.4 8.9-6.3 6.1-9.8 14.3-9.8 23-.1.6-.5 1-1.1 1zM33.1 141.2h-2c-.6 0-1-.4-1-1s.4-1 1-1h2c8.1 0 15.2-5.9 17.3-14.2 1.2-4.9 4-8.8 8.1-11.6.5-.3 1.1-.2 1.4.3.3.5.2 1.1-.3 1.4-3.7 2.5-6.2 6-7.3 10.4-2.3 9.3-10.3 15.7-19.2 15.7zM27.1 141.2c-.3 0-.5-.1-.7-.3-.1-.1-.2-.2-.2-.3 0-.1-.1-.2-.1-.4 0-.1 0-.3.1-.4 0-.1.1-.2.2-.3.4-.4 1-.4 1.4 0 .1.1.2.2.2.3 0 .1.1.2.1.4 0 .1 0 .3-.1.4-.1.1-.1.2-.2.3-.2.2-.5.3-.7.3zM63.1 113.2c-.3 0-.5-.1-.7-.3-.1-.1-.2-.2-.2-.3 0-.1-.1-.2-.1-.4 0-.3.1-.5.3-.7l.1-.1s.1-.1.2-.1.1 0 .2-.1h.4c.1 0 .1 0 .2.1.1 0 .1.1.2.1s.1.1.1.1c.2.2.3.4.3.7 0 .1 0 .3-.1.4-.1.1-.1.2-.2.3l-.1.1s-.1.1-.2.1-.1 0-.2.1h-.2zM15.8 84.3c-.3 0-.5-.1-.7-.3-.2-.2-.3-.4-.3-.7 0-.3.1-.5.3-.7.4-.4 1-.4 1.4 0 .2.2.3.5.3.7 0 .3-.1.5-.3.7-.1.2-.4.3-.7.3zM18.1 117.2c-.6 0-1-.4-1-1s.4-1 1-1c5.5 0 10-4.5 10-10s-4.5-10-10-10c-.6 0-1-.4-1-1s.4-1 1-1c6.6 0 12 5.4 12 12s-5.4 12-12 12z"/><g><path class="gjst2" d="M61.1 87.2c-.6 0-1-.4-1-1 0-14.9-12.1-27-27-27-.6 0-1-.4-1-1s.4-1 1-1c16 0 29 13 29 29 0 .6-.5 1-1 1z"/></g><g><path class="gjst2" d="M61.1 91.2c-.1 0-.3 0-.4-.1-.1-.1-.2-.1-.3-.2-.2-.2-.3-.5-.3-.7 0-.3.1-.5.3-.7.1-.1.2-.2.3-.2.4-.1.8-.1 1.1.2.2.2.3.4.3.7 0 .3-.1.5-.3.7-.2.2-.5.3-.7.3z"/></g><g><path class="gjst2" d="M82.1 84.2c-.3 0-.5-.1-.7-.3-.2-.2-.3-.5-.3-.7 0-.3.1-.5.3-.7.4-.4 1-.4 1.4 0 .2.2.3.4.3.7 0 .3-.1.5-.3.7-.2.2-.5.3-.7.3z"/></g></g><g><circle class="gjst7" cx="142.1" cy="118.2" r="2"/></g><g><circle class="gjst3" cx="75.1" cy="155.2" r="3"/></g><g><path transform="rotate(-45.001 173.279 23.024)" class="gjst7" d="M163.8 7.7h19v30.6h-19z"/><path class="gjst7" d="M177.4 41.9l-23-23 14.8-14.8 23 23-14.8 14.8zm-20.2-23l20.2 20.2 12-12-20.2-20.2-12 12z"/><path class="gjst2" d="M187.5 27.3h-.2l-14.4-3.1c-.4-.1-.7-.4-.8-.8l-3.5-15.2c-.1-.5.2-1.1.8-1.2.5-.1 1.1.2 1.2.8l3.3 14.6 13.8 3c.5.1.9.7.8 1.2-.1.4-.5.7-1 .7z"/><g><path class="gjst2" d="M177.5 38.1c-.1 0-.1 0 0 0-.6-.1-1-.5-1-1.1l.9-9.6c.1-.6.5-1 1.1-.9.6.1 1 .5.9 1.1l-.9 9.6c-.1.5-.5.9-1 .9z"/></g><g><path class="gjst2" d="M159.2 19.8c-.5 0-.9-.4-1-.9 0-.5.4-1 .9-1.1l9.6-.9c.6 0 1 .4 1.1.9 0 .5-.4 1-.9 1.1l-9.7.9z"/></g></g><g><path class="gjst2" d="M145.3 128.2h2v32h-2z"/></g></g></svg>