<?xml version="1.0" encoding="utf-8"?><svg id="fwLayer_1" xmlns="http://www.w3.org/2000/svg" xmlns:xlink="http://www.w3.org/1999/xlink" viewBox="0 0 193 193" width="193" height="193"><style>.fwst0{clip-path:url(#fwSVGID_2_)}.fwst1{fill:#dfe0e0}.fwst2{fill:#48515a}.fwst3{fill:#475059}.fwst4{fill:#f58e70}.fwst5{fill:#ffd15d}.fwst6{fill:#5fe0ed}</style><defs><path id="fwSVGID_1_" d="M0 0h193v193H0z"/></defs><clipPath id="fwSVGID_2_"><use xlink:href="#fwSVGID_1_" overflow="visible"/></clipPath><g class="fwst0"><path class="fwst1" d="M102.7 97.1l4.7-1.5.7 2.2 1.7-2.3-7.3-5.3-2.9 4c-.6.9-1.4 1.5-2.3 1.9 1.4 1.2 3.3 1.7 5.4 1zM53 127.5l-3.7 1.2 2 6.3 1.2-1.7c1.5-1.8 1.4-4 .5-5.8zM116 116.7l4.7-1.5-2.8-8.6-4.7 1.5c-2.9.9-5.6-.5-6.7-2.8l-1 .3c-5.2 1.7-5.2 9 0 10.7l4.7 1.5-2.7 8.4-4.7-1.5c-5.2-1.7-9.5 4.2-6.3 8.6l2.9 4-7.3 5.3-2.9-4c-3.2-4.3-10.2-2-10.2 3.4v4.9h-9V142c0-4.4-4.4-6.7-7.9-5.2 2 1.8 2.8 4.9.9 7.6l-2.9 4 7.3 5.3 2.9-4c3.2-4.4 10.2-2.1 10.2 3.3v4.9h9V153c0-5.4 7-7.7 10.2-3.3l2.9 4 7.3-5.3-2.9-4c-3.2-4.4 1.1-10.3 6.3-8.6l4.7 1.5 2.7-8.4-4.7-1.5c-5.2-1.7-5.2-9 0-10.7z"/><path class="fwst2" d="M151.9 173.9h-5.1v-2h4.1v-28h2v29c0 .6-.4 1-1 1z"/><path class="fwst3" d="M191.3 105.4l-1.9-.6.3-.9-1.2-.4c-1.5-.5-2.4-1.8-2.4-3.4 0-1.6 1-2.9 2.5-3.4l1.2-.4-.6-2-1.2.4c-1.5.5-3 0-4-1.3-.9-1.3-.9-2.9 0-4.2l.7-1L183 87l-.7 1c-.9 1.3-2.5 1.8-4 1.3s-2.4-1.8-2.4-3.4v-1.2h-2.1v1.2c0 1.6-1 2.9-2.5 3.4s-3 0-4-1.3l-.7-1-1.7 1.2.7 1c.9 1.3.9 2.9 0 4.2-.9 1.3-2.5 1.8-4 1.3l-1.2-.4-.3.9-1.9-.6.9-2.8 3.1 1c.8.3 1.4-.1 1.7-.6.3-.4.5-1.1 0-1.8l-1.9-2.6 4.9-3.6 1.9 2.6c.5.7 1.2.7 1.7.6.5-.2 1.1-.6 1.1-1.5v-3.2h6.1v3.2c0 .8.6 1.3 1.1 1.5.5.2 1.2.1 1.7-.6l1.9-2.6 4.9 3.6-1.9 2.6c-.5.7-.3 1.4 0 1.8.3.4.9.8 1.7.6l3.1-1 1.9 5.8-3.1 1c-.8.3-1.1.9-1.1 1.5 0 .5.3 1.2 1.1 1.5l3.1 1-.8 2.8z"/><path class="fwst3" d="M182.5 102.6l-1.9-.6c1-3.2-.7-6.7-3.9-7.7s-6.7.7-7.7 3.9l-1.9-.6c1.4-4.3 6-6.6 10.2-5.2 4.3 1.3 6.6 5.9 5.2 10.2z"/><path class="fwst3" d="M174.8 108.1c-.8 0-1.7-.1-2.5-.4-4.3-1.4-6.6-6-5.2-10.2l1.9.6c-1 3.2.7 6.7 3.9 7.7 1.6.5 3.2.4 4.7-.4 1.5-.7 2.5-2 3-3.6l1.9.6c-.7 2.1-2.1 3.7-4 4.7-1.1.7-2.4 1-3.7 1z"/><path class="fwst3" d="M177.9 117.3h-6.1v-3.2c0-.8-.5-1.3-1.1-1.5-.5-.2-1.2-.1-1.7.6l-1.9 2.6-4.9-3.6 1.9-2.6c.5-.7.3-1.4 0-1.8-.3-.4-.9-.8-1.7-.6l-3.1 1-1.9-5.8 3.1-1c.8-.3 1.1-.9 1.1-1.5 0-.5-.3-1.2-1.1-1.5l-3.1-1 1-3.2 1.9.6-.4 1.3 1.2.4c1.5.5 2.4 1.8 2.4 3.4 0 1.6-1 2.9-2.5 3.4l-1.2.4.6 2 1.2-.4c1.5-.5 3 0 4 1.3.9 1.3.9 2.9 0 4.2l-.7 1 1.7 1.2.7-1c.9-1.3 2.5-1.8 4-1.3s2.4 1.8 2.4 3.4v1.2h2.1v-1.2c0-1.6 1-2.9 2.5-3.4s3 0 4 1.3l.7 1 1.7-1.2-.7-1c-.9-1.3-.9-2.9 0-4.2.9-1.3 2.5-1.8 4-1.3l1.2.4.5-1.4 1.9.6-1.1 3.3-3.1-1c-.8-.3-1.4.1-1.7.6-.3.4-.5 1.1 0 1.8l1.9 2.6-4.9 3.6-1.9-2.6c-.5-.7-1.2-.7-1.7-.6-.5.2-1.1.6-1.1 1.5l-.1 3.2zM90.4 116.2l-1.9-.6c1.2-3.7.9-7.7-.9-11.2-1.8-3.5-4.8-6.1-8.6-7.3-7.7-2.5-16.1 1.7-18.6 9.4l-1.9-.6c2.9-8.8 12.3-13.6 21.1-10.7 4.3 1.4 7.7 4.3 9.7 8.3 2.1 3.9 2.5 8.5 1.1 12.7z"/><path class="fwst4" d="M74.5 122.4c-6.3 0-11.5-5.2-11.5-11.5s5.2-11.5 11.5-11.5S86 104.6 86 110.9s-5.2 11.5-11.5 11.5zm0-20c-4.7 0-8.5 3.8-8.5 8.5s3.8 8.5 8.5 8.5 8.5-3.8 8.5-8.5c0-4.6-3.8-8.5-8.5-8.5z"/><path class="fwst2" d="M74.5 132c0-.6.4-1 1-1 .5 0 1 .4 1 .9 0 .6-.4 1-1 1-.5 0-1-.4-1-.9zm-3.1.7c-.5-.1-.9-.6-.9-1.1.1-.6.6-.9 1.1-.9.5.1.9.6.8 1.1-.1.5-.5.9-1 .9.1 0 0 0 0 0zm7.1-1.1c-.1-.5.2-1.1.7-1.2.5-.1 1.1.2 1.2.7.1.5-.2 1.1-.7 1.2h-.2c-.5.1-.9-.3-1-.7zm-11.2.1c-.5-.2-.8-.8-.6-1.3.2-.5.8-.8 1.3-.6.5.2.8.8.6 1.3-.1.4-.5.7-.9.7-.2 0-.3 0-.4-.1zm15-1.2c-.2-.5 0-1.1.5-1.3.5-.2 1.1 0 1.3.5.2.5 0 1.1-.5 1.3-.1.1-.3.1-.4.1-.4 0-.7-.3-.9-.6zm-18.8-.5c-.5-.3-.7-.9-.4-1.4.3-.5.9-.6 1.4-.4.5.3.6.9.4 1.4-.2.3-.5.5-.9.5-.2 0-.4 0-.5-.1zm22.4-1.4c-.3-.5-.2-1.1.2-1.4.5-.3 1.1-.2 1.4.2.3.5.2 1.1-.2 1.4-.2.1-.4.2-.6.2-.3.1-.6-.1-.8-.4zm-25.8-1c-.4-.4-.5-1-.1-1.4.4-.4 1-.5 1.4-.1.4.4.5 1 .1 1.4-.2.2-.5.3-.8.3-.2 0-.4-.1-.6-.2zm28.9-1.4c-.4-.4-.4-1 0-1.4.4-.4 1-.4 1.4 0 .4.4.4 1 0 1.4-.2.2-.5.3-.7.3-.3-.1-.5-.2-.7-.3zm-31.8-1.7c-.3-.4-.3-1.1.2-1.4.4-.3 1.1-.3 1.4.2.3.4.3 1.1-.2 1.4-.2.1-.4.2-.6.2-.3 0-.6-.1-.8-.4zm34.4-1.4c-.5-.3-.6-.9-.3-1.4.3-.5.9-.6 1.4-.3.5.3.6.9.3 1.4-.2.3-.5.5-.8.5-.2 0-.4-.1-.6-.2zM54.9 121c-.3-.5-.1-1.1.4-1.4.5-.2 1.1-.1 1.3.4.3.5.1 1.1-.4 1.4-.2.1-.3.1-.5.1-.2.1-.6-.1-.8-.5zm38.7-1.3c-.5-.2-.8-.8-.6-1.3.2-.5.8-.8 1.3-.5.5.2.8.8.6 1.3-.2.4-.5.6-.9.6-.1 0-.3-.1-.4-.1zm-40.2-2.6c-.2-.5.2-1.1.7-1.2.5-.2 1.1.1 1.2.7.2.5-.1 1.1-.7 1.2-.1 0-.2.1-.3.1-.4 0-.8-.3-.9-.8zm41.5-1.2c-.5-.1-.9-.6-.8-1.2.1-.6.6-.9 1.2-.8.5.1.9.6.8 1.2-.1.5-.5.8-1 .8h-.2zM52.6 113c-.1-.5.4-1 .9-1.1.5-.1 1 .3 1.1.9 0 .5-.4 1-.9 1.1h-.1c-.5 0-1-.4-1-.9zm41.9-2.1c0-.6.4-1 1-1 .5 0 1 .4 1 1 0 .5-.5 1-1 1-.6 0-1-.4-1-1zm-41-1c-.5-.1-1-.5-.9-1.1.1-.5.5-1 1.1-.9.5.1 1 .5.9 1.1-.1.6-.5.9-1.1.9.1 0 0 0 0 0zm40.6-2.7c-.1-.5.2-1.1.8-1.2.5-.1 1.1.2 1.2.8.1.5-.2 1.1-.8 1.2h-.2c-.5 0-.9-.4-1-.8zm-40-1.2c-.5-.2-.8-.7-.7-1.2.2-.5.7-.8 1.2-.7.5.2.8.7.7 1.2-.1.4-.5.7-1 .7h-.2zm39-2.5c-.2-.5 0-1.1.6-1.3.5-.2 1.1.1 1.3.6.2.5 0 1.1-.6 1.3-.1.1-.2.1-.4.1-.4-.1-.8-.3-.9-.7zm-37.7-1.3c-.5-.2-.7-.9-.4-1.3.2-.5.9-.7 1.3-.4.5.3.7.9.4 1.4-.2.3-.5.5-.9.5-.1-.1-.3-.1-.4-.2zm35.9-2.1c-.3-.5-.2-1.1.3-1.4.5-.3 1.1-.2 1.4.3.3.5.2 1.1-.3 1.4-.2.1-.4.2-.5.2-.4 0-.7-.2-.9-.5zm-33.9-1.4c-.4-.3-.5-1-.2-1.4.3-.4 1-.5 1.4-.2.4.3.5 1 .2 1.4-.2.3-.5.5-.8.5-.2 0-.5-.1-.6-.3zM89 97.1c-.4-.4-.4-1 0-1.4.4-.4 1-.4 1.4 0 .4.4.4 1 0 1.4-.2.2-.4.3-.7.3-.3.1-.5-.1-.7-.3zm-29-1.4c-.4-.4-.3-1 .1-1.4.4-.4 1-.3 1.4.1.4.4.3 1.1-.1 1.4-.2.2-.4.2-.7.2-.2.1-.5 0-.7-.3zm26.1-1c-.4-.3-.5-1-.2-1.4.3-.5.9-.6 1.4-.2.5.3.5.9.2 1.4-.2.3-.5.4-.8.4-.2-.1-.4-.1-.6-.2zm-23-1.4c-.3-.5-.1-1.1.4-1.4.5-.3 1.1-.1 1.4.4.3.5.1 1.1-.4 1.4-.2.1-.3.1-.5.1-.4 0-.7-.2-.9-.5zm19.7-.6c-.5-.2-.7-.8-.5-1.3.2-.5.8-.7 1.3-.5.5.2.7.8.5 1.3-.2.4-.5.6-.9.6-.1 0-.3 0-.4-.1zm-16.1-1.3c-.2-.5.1-1.1.6-1.3.5-.2 1.1.1 1.3.6.2.5-.1 1.1-.6 1.3-.1 0-.2.1-.3.1-.5 0-.9-.3-1-.7zm12.5.1c-.5-.1-.9-.7-.7-1.2.1-.5.7-.9 1.2-.7.5.1.9.7.7 1.2-.1.5-.5.8-1 .8 0-.1-.1-.1-.2-.1zm-8.7-1.2c-.1-.5.3-1 .9-1.1.5-.1 1 .3 1.1.9.1.5-.3 1-.8 1.1h-.1c-.6 0-1-.4-1.1-.9zm4.9.7c-.5 0-1-.5-1-1.1 0-.5.5-1 1-.9.6 0 1 .5 1 1 .1.6-.4 1-1 1 .1 0 .1 0 0 0z"/><path class="fwst2" d="M80 147.9H69V142c0-2.5-1.6-3.9-3.2-4.4-1.5-.5-3.7-.3-5.2 1.7l-3.5 4.8-8.9-6.5 3.5-4.8c1.5-2 1-4.1 0-5.4-1-1.3-2.8-2.4-5.2-1.7l-5.6 1.8-3.4-10.5 5.6-1.8c2.4-.8 3.2-2.8 3.2-4.4 0-1.6-.8-3.6-3.2-4.4l-5.6-1.8 3.4-10.3 5.6 1.8c2.4.8 4.2-.4 5.2-1.7 1-1.3 1.5-3.4 0-5.4l-3.5-4.8 8.9-6.5 3.5 4.8c1.5 2 3.6 2.2 5.2 1.7 1.5-.5 3.2-1.9 3.2-4.4v-5.9h11v5.9c0 2.5 1.6 3.9 3.2 4.4 1.5.5 3.7.3 5.2-1.7l3.5-4.8 8.9 6.5-3.5 4.8c-1.5 2-1 4.1 0 5.4 1 1.3 2.8 2.4 5.2 1.7l5.6-1.8 3.4 10.5-5.6 1.8c-2.4.8-3.2 2.8-3.2 4.4 0 1.6.8 3.6 3.2 4.4l5.6 1.8-3.4 10.3-5.6-1.8c-2.4-.8-4.2.4-5.2 1.7-1 1.3-1.5 3.4 0 5.4l3.5 4.8-8.9 6.5-3.5-4.8c-1.5-2-3.6-2.2-5.2-1.7-1.5.5-3.2 1.9-3.2 4.4v5.9zm-9-2h7V142c0-2.9 1.8-5.4 4.6-6.3 2.8-.9 5.7 0 7.4 2.4l2.3 3.2 5.7-4.1-2.3-3.2c-1.7-2.4-1.7-5.4 0-7.8 1.7-2.4 4.6-3.3 7.4-2.4l3.7 1.2 2.1-6.5-3.7-1.2c-2.8-.9-4.6-3.4-4.6-6.3s1.8-5.4 4.6-6.3l3.7-1.2-2.2-6.7L103 98c-2.8.9-5.7 0-7.4-2.4-1.7-2.4-1.7-5.4 0-7.8l2.3-3.2-5.7-4.1-2.2 3.3c-1.7 2.4-4.6 3.3-7.4 2.4-2.8-.9-4.6-3.4-4.6-6.3V76h-7v3.9c0 2.9-1.8 5.4-4.6 6.3-2.8.9-5.7 0-7.4-2.4l-2.3-3.2-5.7 4.1 2.3 3.2c1.7 2.4 1.7 5.4 0 7.8-1.7 2.3-4.6 3.2-7.3 2.3l-3.7-1.2-2.1 6.5 3.7 1.2c2.8.9 4.6 3.4 4.6 6.3s-1.8 5.4-4.6 6.3l-3.7 1.2 2.2 6.7 3.7-1.2c2.8-.9 5.7 0 7.4 2.4 1.7 2.4 1.7 5.4 0 7.8l-2.3 3.2 5.7 4.1 2.3-3.2c1.7-2.4 4.6-3.3 7.4-2.4 2.8.9 4.6 3.4 4.6 6.3l-.2 3.9zM56.7 37h18v2h-18zM56.7 41h58v2h-58zM56.7 53h40v2h-40zM56.7 57h40v2h-40zM56.7 61h40v2h-40zM56.7 65h40v2h-40z"/><path class="fwst5" d="M151.7 47.2h-26.1V21h1.1l25 25z"/><path class="fwst3" d="M173.7 174c-9.4 0-17-7.6-17-17s7.6-17 17-17 17 7.6 17 17c0 9.3-7.6 17-17 17zm0-32c-8.3 0-15 6.7-15 15s6.7 15 15 15 15-6.7 15-15-6.7-15-15-15zm0 28c-7.2 0-13-5.8-13-13s5.8-13 13-13 13 5.8 13 13c0 7.1-5.8 13-13 13zm0-24c-6.1 0-11 4.9-11 11s4.9 11 11 11 11-4.9 11-11-4.9-11-11-11z"/><path class="fwst3" d="M173.7 166c-5 0-9-4-9-9s4-9 9-9 9 4 9 9c0 4.9-4 9-9 9zm0-16c-3.9 0-7 3.1-7 7s3.1 7 7 7 7-3.1 7-7-3.1-7-7-7zm0 12c-2.8 0-5-2.2-5-5s2.2-5 5-5 5 2.2 5 5c0 2.7-2.2 5-5 5zm0-8c-1.7 0-3 1.3-3 3s1.3 3 3 3 3-1.3 3-3-1.3-3-3-3z"/><circle class="fwst4" cx="173.7" cy="157" r="4"/><path class="fwst4" d="M173.7 162c-2.8 0-5-2.2-5-5s2.2-5 5-5 5 2.2 5 5c0 2.7-2.2 5-5 5zm0-8c-1.7 0-3 1.3-3 3s1.3 3 3 3 3-1.3 3-3-1.3-3-3-3z"/><path class="fwst3" d="M146.7 156h27v2h-27z"/><path class="fwst3" d="M144.2 162h-8.8l5-5-5-5h8.8l5 5-5 5zm-4-2h3.2l3-3-3-3h-3.2l3 3-3 3zM81.1 168H5.5c-2.8 0-5-2.2-5-5s2.2-5 5-5h75.6l10.8 5-10.8 5zm-75.6-8c-1.7 0-3 1.3-3 3s1.3 3 3 3h75.2l6.5-3-6.5-3H5.5z"/><path class="fwst3" d="M11.1 159.4h2v7.6h-2z"/><path class="fwst3" d="M12.1 162h68v2h-68z"/><g><path class="fwst2" d="M152.7 47.2h-2v-.9l-24-24v24.9h-2V21c0-.6.4-1 1-1h1c.3 0 .5.1.7.3l25 25c.2.2.3.4.3.7v1.2z"/></g><g><path class="fwst2" d="M78.9 19.9H41.7v21h2v-19h36zM126.1 19.9H98.8l-3.3 2h29.7l25.5 25.4V64h2V46.5z"/><path class="fwst2" d="M85.5 38.4l-14-33.9 32.1 13.7-8.8 5.3 8 8-4.2 4.2-7.9-7.7-5.2 10.4zM75.2 8.3l10.5 25.3 4.5-9 8.4 8.4 1.4-1.4-8.4-8.4 7.7-4.6L75.2 8.3z"/></g><g><path class="fwst2" d="M18.7 126h2v4h-2zM18.7 136h2v4h-2z"/><g><path class="fwst2" d="M22.7 132h4v2h-4zM12.7 132h4v2h-4z"/></g></g><g><path class="fwst2" d="M170.7 57.9h2v4h-2zM170.7 67.9h2v4h-2z"/><g><path class="fwst2" d="M174.7 63.9h4v2h-4zM164.7 63.9h4v2h-4z"/></g></g><g><path class="fwst2" d="M110.8 171.9H43.7v-39h-2v40c0 .6.4 1 1 1h70.1l-2-2z"/><path class="fwst3" d="M126.7 182l-1.2-1.2c-.1-.1-.3-.2-.5-.2h-.1l-4.6-.6c-2.2-.3-4.2-1.3-5.8-2.8l-7-7 1.4-1.4c.5-.5 1.1-.9 1.8-1l-5.3-5.3c-.7-.7-1-1.6-.9-2.5.1-.9.7-1.8 1.5-2.2 1.2-.7 2.7-.4 3.7.6l4.5 4.5c.3-.6.7-1.1 1.3-1.4.4-.2.9-.3 1.3-.4.1-.8.5-1.6 1.1-2.1.8-.6 1.8-.8 2.8-.5.2-.6.6-1.1 1.1-1.5 1.2-.9 2.9-.7 3.9.4l3.7 3.7c2.7 2.7 4.8 5.8 6.4 9.3l1.3 1.3-10.4 10.3zm-1.5-3.4c.5 0 1.1.2 1.6.6l7.7-7.7c-.1-.1-.2-.3-.3-.5-1.5-3.3-3.5-6.2-6-8.7l-3.7-3.7c-.4-.4-1-.5-1.3-.2-.2.2-.4.4-.4.7 0 .2 0 .4.2.6l1.1 1.1-1.4 1.4-.9-.9c-.1-.1-.2-.2-.2-.3l-.6-.6c-.4-.4-1-.4-1.4-.1-.2.2-.4.5-.4.8 0 .1 0 .4.2.6l1.9 1.9-1.4 1.4-1.8-1.8c-.3-.3-.9-.4-1.2-.2-.3.2-.5.5-.6.8 0 .3.1.6.3.8l1.9 1.9-1.4 1.4-8.4-8.4c-.4-.4-.9-.5-1.3-.2-.4.2-.5.6-.5.8 0 .3.1.6.3.8l10.5 10.5-1.4 1.4-2.8-2.8c-.8-.8-2.1-.8-2.8 0l5.6 5.6c1.2 1.2 2.9 2 4.6 2.3l4.3.7z"/><g><path class="fwst3" d="M130.1 188.5l-4.2-4.2c-1.2-1.2-1.2-3.1 0-4.2l9.9-9.9c1.1-1.1 3.1-1.1 4.2 0l4.2 4.2-1.4 1.4-4.2-4.2c-.4-.4-1-.4-1.4 0l-9.9 9.9c-.4.4-.4 1 0 1.4l4.2 4.2-1.4 1.4z"/></g><g><path class="fwst2" d="M107.5 155.9c-.6 0-1-.4-1-1v-2c0-.6.4-1 1-1s1 .4 1 1v2c0 .5-.5 1-1 1zM102.5 160.9h-2c-.6 0-1-.4-1-1s.4-1 1-1h2c.6 0 1 .4 1 1 0 .5-.5 1-1 1zM111.3 157.1c-.3 0-.5-.1-.7-.3-.4-.4-.4-1 0-1.4l1.1-1.1c.4-.4 1-.4 1.4 0 .4.4.4 1 0 1.4l-1.1 1.1c-.2.2-.4.3-.7.3zM102.5 165.8c-.3 0-.5-.1-.7-.3-.4-.4-.4-1 0-1.4l1-1c.4-.4 1-.4 1.4 0 .4.4.4 1 0 1.4l-1 1c-.2.2-.4.3-.7.3z"/><g><path class="fwst2" d="M103.9 157.3c-.3 0-.5-.1-.7-.3l-1.3-1.3c-.4-.4-.4-1 0-1.4.4-.4 1-.4 1.4 0l1.3 1.3c.4.4.4 1 0 1.4-.2.2-.5.3-.7.3z"/></g></g></g><g><circle class="fwst6" cx="167.3" cy="26.6" r="2.7"/></g><g><circle class="fwst6" cx="3.5" cy="109.5" r="2.8"/></g><g><circle class="fwst5" cx="25.3" cy="22" r="3.3"/><path class="fwst5" d="M25.3 25.8c-2.1 0-3.8-1.7-3.8-3.8s1.7-3.8 3.8-3.8 3.8 1.7 3.8 3.8-1.7 3.8-3.8 3.8zm0-6.7c-1.6 0-2.8 1.3-2.8 2.8 0 1.6 1.3 2.8 2.8 2.8s2.8-1.3 2.8-2.8c.1-1.5-1.2-2.8-2.8-2.8z"/></g><g><path class="fwst2" d="M33.7 172h2v4h-2zM33.7 182h2v4h-2z"/><g><path class="fwst2" d="M37.7 178h4v2h-4zM27.7 178h4v2h-4z"/></g></g><g><path class="fwst3" d="M160.3 130.4l-1.9-.6.3-.9-1.2-.4c-1.5-.5-2.4-1.8-2.4-3.4 0-1.6 1-2.9 2.5-3.4l1.2-.4-.6-2-1.2.4c-1.5.5-3 0-4-1.3-.9-1.3-.9-2.9 0-4.2l.7-1-1.7-1.2-.7 1c-.9 1.3-2.5 1.8-4 1.3s-2.4-1.8-2.4-3.4v-1.2h-2.1v1.2c0 1.6-1 2.9-2.5 3.4s-3 0-4-1.3l-.7-1-1.7 1.2.7 1c.9 1.3.9 2.9 0 4.2s-2.5 1.8-4 1.3l-1.2-.4-.3.9-1.9-.6.9-2.8 3.1 1c.8.3 1.4-.1 1.7-.6.3-.4.5-1.1 0-1.8l-1.9-2.6 4.9-3.6 1.9 2.6c.5.7 1.2.7 1.7.6.5-.2 1.1-.6 1.1-1.5v-3.2h6.1v3.2c0 .8.6 1.3 1.1 1.5.5.2 1.2.1 1.7-.6l1.9-2.6 4.9 3.6-1.9 2.6c-.5.7-.3 1.4 0 1.8.3.4.9.8 1.7.6l3.1-1 1.9 5.8-3.1 1c-.8.3-1.1.9-1.1 1.5 0 .5.3 1.2 1.1 1.5l3.1 1-.8 2.8z"/><path class="fwst3" d="M151.5 127.6l-1.9-.6c1-3.2-.7-6.7-3.9-7.7-3.2-1.1-6.7.7-7.7 3.9l-1.9-.6c1.4-4.3 6-6.6 10.2-5.2 4.3 1.3 6.6 5.9 5.2 10.2z"/><g><path class="fwst3" d="M143.8 133.1c-.8 0-1.7-.1-2.5-.4-4.3-1.4-6.6-6-5.2-10.2l1.9.6c-1 3.2.7 6.7 3.9 7.7 1.6.5 3.2.4 4.7-.4 1.5-.7 2.5-2 3-3.6l1.9.6c-.7 2.1-2.1 3.7-4 4.7-1.2.7-2.4 1-3.7 1z"/><path class="fwst3" d="M146.8 142.3h-6.1v-3.2c0-.8-.5-1.3-1.1-1.5-.5-.2-1.2-.1-1.7.6l-1.9 2.6-4.9-3.6 1.9-2.6c.5-.7.3-1.4 0-1.8-.3-.4-.9-.8-1.7-.6l-3.1 1-1.9-5.8 3.1-1c.8-.3 1.1-.9 1.1-1.5 0-.5-.3-1.2-1.1-1.5l-3.1-1 1-3.2 1.9.6-.4 1.3 1.2.4c1.5.5 2.4 1.8 2.4 3.4 0 1.6-1 2.9-2.5 3.4l-1.2.4.6 2 1.2-.4c1.5-.5 3 0 4 1.3.9 1.3.9 2.9 0 4.2l-.7 1 1.7 1.2.7-1c.9-1.3 2.5-1.8 4-1.3s2.4 1.8 2.4 3.4v1.2h2.1v-1.2c0-1.6 1-2.9 2.5-3.4s3 0 4 1.3l.7 1 1.7-1.2-.7-1c-.9-1.3-.9-2.9 0-4.2.9-1.3 2.5-1.8 4-1.3l1.2.4.5-1.4 1.9.6-1.1 3.3-3.1-1c-.8-.3-1.4.1-1.7.6-.3.4-.5 1.1 0 1.8l1.9 2.6-4.9 3.6-1.9-2.6c-.5-.7-1.2-.7-1.7-.6-.5.2-1.1.6-1.1 1.5l-.1 3.2z"/></g></g><g><path class="fwst3" d="M15.5 73.4c-1.4-2.8-1.6-5.9-.7-8.8 1-2.9 3-5.3 5.8-6.7 5.7-2.9 12.7-.6 15.6 5.1l-1.8.9c-2.4-4.7-8.2-6.6-12.9-4.2-2.3 1.2-4 3.1-4.8 5.6-.8 2.4-.6 5 .6 7.3l-1.8.8z"/><path class="fwst4" d="M25.8 74.6c-1.7 0-3.4-.7-4.6-1.9-1.2-1.2-1.9-2.9-1.9-4.6 0-1.7.7-3.4 1.9-4.6 1.2-1.2 2.9-1.9 4.6-1.9 1.7 0 3.4.7 4.6 1.9 1.2 1.2 1.9 2.9 1.9 4.6 0 1.7-.7 3.4-1.9 4.6-1.2 1.3-2.9 1.9-4.6 1.9zm0-10c-.9 0-1.8.4-2.5 1-.7.7-1 1.5-1 2.5 0 .9.4 1.8 1 2.5 1.3 1.3 3.6 1.3 4.9 0 .7-.7 1-1.5 1-2.5 0-.9-.4-1.8-1-2.5-.6-.6-1.5-1-2.4-1z"/><path class="fwst2" d="M25.7 93.7l-.7-4.3c-.2-1.5-1.3-2.2-2.3-2.3-1-.2-2.2.2-2.9 1.5l-2 3.8-7.2-3.7 2-3.8c.7-1.3.2-2.5-.5-3.2-.7-.7-1.9-1.2-3.2-.5l-3.8 2L1.5 76l3.8-2c1.3-.7 1.6-1.9 1.5-2.9-.2-1-.8-2.1-2.3-2.3l-4.3-.7 1.3-8 4.3.7c1.5.2 2.5-.6 2.9-1.5.4-.9.5-2.2-.5-3.2l-3-3.1 5.7-5.7 3 3.1c1.1 1.1 2.4 1 3.2.5.9-.4 1.7-1.4 1.5-2.9l-.7-4.3 8-1.3.7 4.3c.2 1.5 1.3 2.2 2.3 2.3 1 .2 2.2-.2 2.9-1.5l2-3.8 7.2 3.7-2 3.8c-.7 1.3-.2 2.5.5 3.2.7.7 1.9 1.2 3.2.5l3.8-2 3.6 7.1-3.8 2c-1.3.7-1.6 1.9-1.5 2.9.2 1 .8 2.1 2.3 2.3l4.3.7-1.3 8-4.3-.7c-1.5-.2-2.5.6-2.9 1.5-.4.9-.5 2.2.5 3.2l3 3.1-5.7 5.7-3-3.1c-1.1-1.1-2.4-1-3.2-.5-.9.4-1.7 1.4-1.5 2.9l.7 4.3-8 1.4zm-3.4-8.6c.3 0 .5 0 .8.1 2.1.3 3.6 1.9 4 4l.4 2.3 4-.6-.5-2.4c-.3-2.1.7-4 2.6-5 1.9-1 4.1-.6 5.6.9l1.6 1.6 2.9-2.9-1.7-1.6c-1.5-1.5-1.8-3.7-.9-5.6 1-1.9 2.9-2.9 5-2.5l2.3.4.6-4-2.3-.4c-2.1-.3-3.6-1.9-4-4-.3-2.1.7-4 2.6-5l2.1-1-1.8-3.5-2.1 1c-1.9 1-4.1.6-5.6-.9s-1.8-3.7-.9-5.6l1.1-2.1-3.6-1.8-1.1 2.1c-1 1.9-2.9 2.9-5 2.5-2.1-.3-3.6-1.9-4-4l-.4-2.3-4 .6.4 2.3c.3 2.1-.7 4-2.6 5-1.9 1-4.1.6-5.6-.9l-1.6-1.6-2.6 3 1.6 1.6c1.5 1.5 1.8 3.7.9 5.6-1 1.9-2.9 2.9-5 2.5l-2.3-.4-.6 4 2.3.4c2.1.3 3.6 1.9 4 4 .3 2.1-.7 4.1-2.6 5l-2.1 1L6 80.4l2.1-1c1.9-1 4.1-.6 5.6.9s1.8 3.7.9 5.6L13.5 88l3.6 1.8 1.1-2.1c.7-1.7 2.3-2.6 4.1-2.6z"/><path class="fwst2" d="M25.8 82.2c0-.6.4-1 .9-1.1.5 0 1 .4 1.1.9 0 .5-.4 1-.9 1.1h-.1c-.5 0-1-.4-1-.9zm-3.2.6c-.5-.1-.9-.6-.8-1.2.1-.5.7-.9 1.2-.8.5.1.9.6.8 1.2-.1.5-.5.8-1 .8h-.2zm7.1-1.2c-.2-.5.1-1.1.6-1.3.5-.2 1.1.1 1.3.6.2.5-.1 1.1-.6 1.3-.1 0-.2.1-.3.1-.4 0-.8-.3-1-.7zm-11.1-.3c-.5-.3-.7-.9-.4-1.4.3-.5.9-.7 1.4-.4.5.3.7.9.4 1.4-.2.3-.5.5-.9.5-.2 0-.4 0-.5-.1zM33.4 80c-.3-.4-.2-1.1.2-1.4.4-.3 1.1-.2 1.4.2.3.4.2 1.1-.2 1.4-.2.1-.4.2-.6.2-.3 0-.6-.2-.8-.4zm-18.2-1.3c-.4-.4-.4-1 0-1.4.4-.4 1-.4 1.4 0 .4.4.4 1 0 1.4-.2.2-.4.3-.7.3-.3 0-.5-.1-.7-.3zm21.2-1.4c-.4-.3-.5-.9-.2-1.4.3-.4 1-.5 1.4-.2.4.3.5 1 .2 1.4-.2.3-.5.4-.8.4-.2 0-.4 0-.6-.2zm-23.8-2c-.3-.5-.1-1.1.4-1.4.5-.3 1.1-.1 1.3.4.3.5.1 1.1-.4 1.4-.1.1-.3.1-.5.1-.3 0-.6-.1-.8-.5zm26-1.3c-.5-.2-.8-.8-.6-1.3.2-.5.8-.8 1.3-.6.5.2.8.8.6 1.3-.2.4-.5.6-.9.6h-.4zm-27.5-2.7c-.1-.5.2-1.1.8-1.2.5-.1 1.1.2 1.2.8.1.5-.2 1.1-.8 1.2h-.2c-.5 0-.9-.3-1-.8zm28.6-1.2c-.6 0-1-.5-.9-1.1 0-.5.5-1 1.1-.9.5 0 1 .5.9 1.1-.1.5-.5.9-1.1.9zm-27.9-2c-.5-.1-1-.5-.9-1.1 0-.6.5-1 1.1-.9.5 0 1 .5.9 1.1-.1.5-.5.9-1.1.9zm26.7-2.7c-.1-.5.2-1.1.8-1.2.5-.1 1.1.2 1.2.8.1.5-.2 1.1-.8 1.2h-.2c-.5 0-.9-.3-1-.8zm-26.2-1.2c-.5-.2-.8-.8-.6-1.3.2-.5.8-.8 1.3-.6.5.2.8.8.6 1.3-.2.4-.5.7-.9.7-.1-.1-.3-.1-.4-.1zm24.9-2.3c-.3-.5-.1-1.1.4-1.4.5-.3 1.1-.1 1.4.4.3.5.1 1.1-.4 1.4-.2.1-.3.1-.5.1-.4 0-.7-.2-.9-.5zM14 60.5c-.4-.3-.5-1-.2-1.4.3-.4 1-.5 1.4-.2.4.3.5 1 .2 1.4-.2.3-.5.4-.8.4-.2 0-.4 0-.6-.2zM35 59c-.4-.4-.4-1 0-1.4.4-.4 1-.4 1.4 0 .4.4.4 1 0 1.4-.2.2-.5.3-.7.3-.3-.1-.5-.2-.7-.3zm0 0zm-18.4-1.5c-.3-.4-.2-1.1.2-1.4.4-.3 1.1-.2 1.4.2.3.4.2 1.1-.2 1.4-.2.1-.4.2-.6.2-.3 0-.6-.1-.8-.4zm15.4-.8c-.5-.3-.7-.9-.4-1.4.3-.5.9-.7 1.4-.4.5.3.7.9.4 1.4-.2.3-.5.5-.9.5-.1.1-.3 0-.5-.1zm-12-1.3c-.2-.5.1-1.1.6-1.3.5-.2 1.1.1 1.3.6.2.5-.1 1.1-.6 1.3h-.4c-.4 0-.8-.2-.9-.6zm8.6 0c-.5-.1-.9-.7-.8-1.2.1-.5.6-.9 1.2-.8.5.1.9.6.8 1.2-.1.5-.5.8-1 .8-.1.1-.2.1-.2 0zm-4.8-1.2c0-.5.4-1 .9-1.1.5 0 1 .4 1.1.9 0 .6-.4 1-.9 1.1h-.1c-.5.1-.9-.3-1-.9z"/></g><g><path class="fwst3" d="M126.8 87.7c-4.2 0-8.3-2.3-10.3-6.3l1.8-.9c2.4 4.7 8.2 6.6 12.9 4.2 4.7-2.4 6.6-8.2 4.2-12.9l1.8-.9c2.9 5.7.6 12.7-5.1 15.6-1.7.8-3.5 1.2-5.3 1.2z"/><path class="fwst4" d="M126.8 82.6c-1.7 0-3.4-.7-4.6-1.9-2.5-2.5-2.5-6.7 0-9.2 1.2-1.2 2.9-1.9 4.6-1.9 1.7 0 3.4.7 4.6 1.9 1.2 1.2 1.9 2.9 1.9 4.6 0 1.7-.7 3.4-1.9 4.6-1.2 1.3-2.9 1.9-4.6 1.9zm-2.5-4c1.3 1.3 3.6 1.3 5 0 .7-.7 1-1.5 1-2.5 0-.9-.4-1.8-1-2.5-1.3-1.3-3.6-1.3-5 0-1.3 1.4-1.3 3.6 0 5z"/><path class="fwst2" d="M126.7 101.7l-.7-4.3c-.2-1.5-1.3-2.2-2.3-2.3-1-.2-2.2.2-2.9 1.5l-2 3.8-7.2-3.7 2-3.8c.7-1.3.2-2.5-.5-3.2-.7-.7-1.9-1.2-3.2-.5l-3.8 2-3.6-7.1 3.8-2c1.3-.7 1.6-1.9 1.5-2.9-.2-1-.8-2.1-2.3-2.3l-4.3-.7 1.3-8 4.3.7c1.5.2 2.5-.6 2.9-1.5.4-.9.5-2.2-.5-3.2l-3-3.1 5.7-5.7 3 3.1c1.1 1.1 2.4 1 3.2.5.9-.4 1.7-1.4 1.5-2.9l-.7-4.3 8-1.3.7 4.3c.2 1.5 1.3 2.2 2.3 2.3 1 .2 2.2-.2 2.9-1.5l2-3.8 7.2 3.7-2 3.8c-.7 1.3-.2 2.5.5 3.2.7.7 1.9 1.2 3.2.5l3.8-2 3.6 7.1-3.8 2c-1.3.7-1.6 1.9-1.5 2.9.2 1 .8 2.1 2.3 2.3l4.3.7-1.3 8-4.3-.7c-1.5-.2-2.5.6-2.9 1.5-.4.9-.5 2.2.5 3.2l3 3.1-5.7 5.7-3-3.1c-1.1-1.1-2.4-1-3.2-.5-.9.4-1.7 1.4-1.5 2.9l.7 4.3-8 1.3zm-3.4-8.6c.3 0 .5 0 .8.1 2.1.3 3.6 1.9 4 4l.4 2.3 4-.6-.4-2.3c-.3-2.1.7-4 2.6-5 1.9-1 4.1-.6 5.6.9l1.6 1.6 2.9-2.9-1.6-1.6c-1.5-1.5-1.8-3.7-.9-5.6 1-1.9 2.9-2.9 5-2.5l2.3.4.6-4-2.3-.4c-2.1-.3-3.6-1.9-4-4-.3-2.1.7-4 2.6-5l2.1-1-1.8-3.5-2.1 1c-1.9 1-4.1.6-5.6-.9s-1.8-3.7-.9-5.6l1.1-2.1-3.6-1.8-1.1 2.1c-1 1.9-2.9 2.9-5 2.5-2.1-.3-3.6-1.9-4-4l-.4-2.3-4 .6.4 2.3c.3 2.1-.7 4-2.6 5-1.9 1-4.1.6-5.6-.9l-1.6-1.6-2.9 2.9 1.6 1.6c1.5 1.5 1.8 3.7.9 5.6-1 1.9-2.9 2.9-5 2.5l-2.3-.4-.6 4 2.3.4c2.1.3 3.6 1.9 4 4 .3 2.1-.7 4-2.6 5l-2.1 1 1.8 3.5 2.1-1c1.9-1 4.1-.6 5.6.9s1.8 3.7.9 5.6l-1.1 2.1 3.6 1.8 1.1-2.1c.8-1.7 2.4-2.6 4.2-2.6z"/><path class="fwst2" d="M126.8 90.2c0-.6.4-1 .9-1.1.5 0 1 .4 1.1.9 0 .5-.4 1-.9 1.1h-.1c-.5 0-1-.4-1-.9zm-3.2.6c-.5-.1-.9-.6-.8-1.2.1-.5.6-.9 1.2-.8.5.1.9.7.8 1.2-.1.5-.5.8-1 .8h-.2zm7.1-1.2c-.2-.5.1-1.1.6-1.3.5-.2 1.1.1 1.3.6.2.5-.1 1.1-.6 1.3-.1 0-.2.1-.4.1-.3 0-.7-.3-.9-.7zm-11.1-.3c-.5-.3-.7-.9-.4-1.4.3-.5.9-.7 1.4-.4.5.3.7.9.4 1.4-.2.3-.5.5-.9.5-.2 0-.4 0-.5-.1zm14.8-1.4c-.3-.4-.2-1.1.2-1.4.4-.3 1.1-.2 1.4.2.3.4.2 1.1-.2 1.4-.2.1-.4.2-.6.2-.3.1-.6-.1-.8-.4zm-18.2-1.2c-.4-.4-.4-1 0-1.4.4-.4 1-.4 1.4 0 .4.4.4 1 0 1.4-.2.2-.5.3-.7.3-.3 0-.5-.1-.7-.3zm21.2-1.4c-.4-.3-.5-1-.2-1.4.3-.4 1-.5 1.4-.2.5.3.5 1 .2 1.4-.2.3-.5.4-.8.4-.2 0-.4 0-.6-.2zm-23.8-2c-.3-.5-.1-1.1.4-1.4.5-.3 1.1-.1 1.4.4.3.5.1 1.1-.4 1.4-.2.1-.3.1-.5.1-.3 0-.7-.1-.9-.5zm26-1.3c-.5-.2-.8-.8-.6-1.3.2-.5.8-.8 1.3-.6.5.2.8.8.6 1.3-.1.4-.5.6-.9.6h-.4zm-27.5-2.7c-.1-.5.2-1.1.8-1.2.5-.1 1.1.2 1.2.8.1.5-.2 1.1-.8 1.2h-.2c-.4 0-.9-.3-1-.8zm28.6-1.2c-.6 0-1-.5-.9-1.1 0-.5.5-1 1.1-.9.5 0 1 .5.9 1.1-.1.5-.5.9-1.1.9zm-27.9-2c-.6 0-1-.5-.9-1.1 0-.5.5-1 1.1-.9.5 0 1 .5.9 1.1-.1.5-.5.9-1.1.9zm26.7-2.7c-.1-.5.2-1.1.8-1.2.5-.1 1.1.2 1.2.8.1.5-.2 1.1-.8 1.2h-.2c-.5 0-.9-.4-1-.8zm-26.2-1.2c-.5-.2-.8-.8-.6-1.3.2-.5.8-.8 1.3-.6.5.2.8.8.6 1.3-.2.4-.5.7-.9.7-.1-.1-.3-.1-.4-.1zm24.9-2.3c-.3-.5-.1-1.1.4-1.4.5-.3 1.1-.1 1.3.4.3.5.1 1.1-.4 1.4-.2.1-.3.1-.5.1-.3 0-.6-.2-.8-.5zM115 68.5c-.4-.3-.5-1-.2-1.4.3-.4 1-.5 1.4-.2.4.3.5 1 .2 1.4-.2.3-.5.4-.8.4-.2 0-.4 0-.6-.2zm21-1.6c-.4-.4-.4-1 0-1.4.4-.4 1-.4 1.4 0 .4.4.4 1 0 1.4-.2.2-.5.3-.7.3-.3 0-.5-.1-.7-.3zm-18.4-1.4c-.3-.4-.2-1.1.2-1.4.4-.3 1.1-.2 1.4.2.3.4.2 1.1-.2 1.4-.2.1-.4.2-.6.2-.3 0-.6-.1-.8-.4zm15.4-.8c-.5-.3-.7-.9-.4-1.4.3-.5.9-.7 1.4-.4.5.3.7.9.4 1.4-.2.3-.5.5-.9.5-.2 0-.3 0-.5-.1zm-12-1.3c-.2-.5.1-1.1.6-1.3.5-.2 1.1.1 1.3.6.2.5-.1 1.1-.6 1.3-.1 0-.2.1-.3.1-.5-.1-.9-.3-1-.7zm8.6 0c-.5-.1-.9-.7-.8-1.2.1-.5.7-.9 1.2-.8.5.1.9.6.8 1.2-.1.5-.5.8-1 .8-.1.1-.2 0-.2 0zm-4.8-1.2c0-.6.4-1 .9-1.1.5 0 1 .4 1.1.9 0 .5-.4 1-.9 1.1h-.1c-.5.1-1-.3-1-.9z"/></g><g><circle class="fwst5" cx="190.7" cy="53.3" r="2.1"/></g></g></svg>