<?xml version="1.0" encoding="utf-8"?><svg id="ffLayer_1" xmlns="http://www.w3.org/2000/svg" xmlns:xlink="http://www.w3.org/1999/xlink" viewBox="0 0 193 193" width="193" height="193"><style>.ffst0{clip-path:url(#ffSVGID_2_)}.ffst1{fill:#ffd15d}.ffst2{fill:#475059}.ffst3{fill:#5fe0ed}.ffst4{fill:#48515a}</style><defs><path id="ffSVGID_1_" d="M0 0h193v193H0z"/></defs><clipPath id="ffSVGID_2_"><use xlink:href="#ffSVGID_1_" overflow="visible"/></clipPath><g class="ffst0"><circle class="ffst1" cx="34" cy="108.7" r="18"/><path class="ffst2" d="M34 123.7c-8.3 0-15-6.7-15-15 0-3.5 1.2-6.9 3.4-9.5.4-.4 1-.5 1.4-.1.4.4.5 1 .1 1.4-1.9 2.3-3 5.3-3 8.3 0 7.2 5.8 13 13 13s13-5.8 13-13-5.8-13-13-13c-1.3 0-2.6.2-3.8.6l-.8.4c-.5.2-1.1 0-1.3-.5-.2-.5 0-1.1.5-1.3l.9-.4c1.5-.5 3-.7 4.5-.7 8.3 0 15 6.7 15 15 .1 8.1-6.6 14.8-14.9 14.8z"/><path class="ffst2" d="M37 115.7h-5.6c-1.8 0-3.2-1.4-3.2-3.2 0-.6.4-1 1-1s1 .4 1 1c0 .7.5 1.2 1.2 1.2H37c.8 0 1.5-.7 1.5-1.5v-1c0-.8-.7-1.5-1.5-1.5h-5.5c-1.9 0-3.5-1.6-3.5-3.5v-1c0-1.9 1.6-3.5 3.5-3.5h5.9c1.5 0 2.8 1.2 2.8 2.8 0 .6-.4 1-1 1s-1-.4-1-1c0-.4-.3-.8-.8-.8h-5.9c-.8 0-1.5.7-1.5 1.5v1c0 .8.7 1.5 1.5 1.5H37c1.9 0 3.5 1.6 3.5 3.5v1c0 1.9-1.6 3.5-3.5 3.5z"/><path class="ffst2" d="M34.5 118.7c-.6 0-1-.4-1-1v-18c0-.6.4-1 1-1s1 .4 1 1v18c0 .6-.4 1-1 1zM26 98.7c-.3 0-.5-.1-.7-.3-.2-.1-.3-.4-.3-.7 0-.1 0-.3.1-.4 0-.1.1-.2.2-.3.4-.4 1-.4 1.4 0 .1.1.2.2.2.3.1.1.1.2.1.4 0 .3-.1.5-.3.7-.2.2-.5.3-.7.3z"/><path class="ffst3" d="M112 109.7l-18 18-18-18H32v60h124v-60z"/><path class="ffst4" d="M99.8 152.9h-11c-3 0-5.4-2.4-5.4-5.4h2c0 1.9 1.5 3.4 3.4 3.4h11c2.2 0 4-1.8 4-4V145c0-2.2-1.8-4-4-4H88.9c-3.3 0-6-2.7-6-6v-1.9c0-3.3 2.7-6 6-6h11.7c2.5 0 4.5 2 4.5 4.5h-2c0-1.4-1.1-2.5-2.5-2.5H88.9c-2.2 0-4 1.8-4 4v1.9c0 2.2 1.8 4 4 4h10.9c3.3 0 6 2.7 6 6v1.9c0 3.3-2.7 6-6 6z"/><path class="ffst4" d="M94 127.7v30h2v-32zM114 134.7h14v2h-14zM114 138.7h14v2h-14zM114 142.7h14v2h-14zM64 134.7h14v2H64zM64 138.7h14v2H64zM64 142.7h14v2H64zM136 165.8h-2c0-9.9 8.1-18 18-18v2c-8.8 0-16 7.1-16 16zM35.9 131.7v-2c8.8 0 16-7.2 16-16h2c0 10-8 18-18 18zM53.9 165.8h-2c0-8.8-7.2-16-16-16v-2c10 0 18 8 18 18z"/><path class="ffst4" d="M109 112.7l-2 2h44v50H37v-50h44l-2-2H35v54h118v-54z"/><circle class="ffst1" cx="153" cy="168.7" r="24"/><path class="ffst2" d="M153 188.4c-5.2 0-10.2-2-13.9-5.7-3.7-3.7-5.8-8.6-5.8-13.9 0-4.6 1.6-9 4.5-12.5.4-.4 1-.5 1.4-.1.4.4.5 1 .1 1.4-2.6 3.2-4 7.1-4 11.2 0 4.7 1.8 9.2 5.2 12.5 3.3 3.3 7.8 5.2 12.5 5.2 9.7 0 17.7-7.9 17.6-17.7 0-4.7-1.8-9.2-5.2-12.5-3.3-3.3-7.8-5.2-12.5-5.2-1.8 0-3.5.3-5.2.8l-1.1.5c-.5.2-1.1 0-1.3-.5-.2-.5 0-1.1.5-1.3l1.2-.5c2-.6 3.9-.9 5.9-.9 5.2 0 10.2 2 13.9 5.7 3.7 3.7 5.8 8.6 5.8 13.9.1 10.8-8.7 19.6-19.6 19.6z"/><path class="ffst2" d="M157 177.7h-7.4c-2.2 0-3.9-1.8-3.9-3.9 0-.6.4-1 1-1s1 .4 1 1c0 1.1.9 1.9 1.9 1.9h7.4c1.3 0 2.3-1.1 2.3-2.4V172c0-1.3-1.1-2.3-2.3-2.3h-7.3c-2.4 0-4.3-1.9-4.3-4.3v-1.3c0-2.4 1.9-4.3 4.3-4.3h7.9c1.9 0 3.4 1.5 3.4 3.4 0 .6-.4 1-1 1s-1-.4-1-1c0-.7-.6-1.4-1.4-1.4h-7.9c-1.3 0-2.3 1.1-2.3 2.3v1.3c0 1.3 1.1 2.3 2.3 2.3h7.3c2.4 0 4.3 1.9 4.3 4.3v1.3c0 2.4-1.9 4.4-4.3 4.4z"/><path class="ffst2" d="M153.5 181.7c-.6 0-1-.4-1-1v-24c0-.6.4-1 1-1s1 .4 1 1v24c0 .6-.4 1-1 1z"/><g><path class="ffst2" d="M142.3 155.1c-.3 0-.5-.1-.7-.3-.2-.2-.3-.4-.3-.7 0-.3.1-.5.3-.7.1-.1.2-.2.3-.2.2-.1.5-.1.8 0 .1 0 .2.1.3.2.2.2.3.4.3.7 0 .3-.1.5-.3.7-.2.2-.4.3-.7.3z"/></g><g><path class="ffst4" d="M94 129.2L57.6 92.7H73v-87h2v89H62.4L94 126.3l31.6-31.6H113v-89h2v87h15.4z"/></g><g><path class="ffst4" d="M114 3.7c-.1 0-.3 0-.4-.1-.1 0-.2-.1-.3-.2-.1-.1-.2-.2-.2-.3 0-.1-.1-.2-.1-.4 0-.3.1-.5.3-.7.3-.3.7-.4 1.1-.2.1 0 .2.1.3.2.2.2.3.5.3.7 0 .1 0 .3-.1.4-.1.1-.1.2-.2.3-.2.2-.4.3-.7.3z"/></g><g><path class="ffst4" d="M74 3.7c-.1 0-.3 0-.4-.1-.1 0-.2-.1-.3-.2-.1-.1-.2-.2-.2-.3-.1-.1-.1-.2-.1-.4 0-.1 0-.3.1-.4.1-.1.1-.2.2-.3.1-.1.2-.2.3-.2.2-.1.5-.1.8 0 .1 0 .2.1.3.2.2.2.3.5.3.7 0 .1 0 .3-.1.4-.1.1-.1.2-.2.3-.1.1-.2.2-.3.2-.1.1-.3.1-.4.1z"/></g><g><path class="ffst4" d="M114.7 88.1l-17.9-16h7.2V42.7h2v31.4h-3.9l12.5 11.3 11.7-10.6h-4V43.4h2v29.4h7.1zM123 40.7c-.1 0-.3 0-.4-.1-.1 0-.2-.1-.3-.2-.2-.2-.3-.4-.3-.7 0-.1 0-.3.1-.4.1-.1.1-.2.2-.3.4-.4 1-.4 1.4 0 .1.1.2.2.2.3.1.1.1.2.1.4 0 .3-.1.5-.3.7-.1.1-.2.2-.3.2-.1.1-.2.1-.4.1zM105 40.7c-.3 0-.5-.1-.7-.3-.2-.2-.3-.4-.3-.7 0-.1 0-.3.1-.4 0-.1.1-.2.2-.3.4-.4 1-.4 1.4 0 .1.1.2.2.2.3 0 .1.1.2.1.4 0 .3-.1.5-.3.7-.2.2-.4.3-.7.3z"/></g><g><path class="ffst4" d="M68 53.7c-.1 0-.3 0-.4-.1-.1 0-.2-.1-.3-.2-.1-.1-.2-.2-.2-.3 0-.1-.1-.2-.1-.4 0-.1 0-.3.1-.4.1-.1.1-.2.2-.3.3-.3.7-.4 1.1-.2.1 0 .2.1.3.2.1.1.2.2.2.3.1.1.1.2.1.4 0 .1 0 .3-.1.4 0 .1-.1.2-.2.3-.2.2-.4.3-.7.3zM68 85.2c-.6 0-1-.4-1-1V60.6c0-.6.4-1 1-1s1 .4 1 1v23.6c0 .6-.4 1-1 1z"/></g><g><path class="ffst4" d="M74 42.7c-.1 0-.3 0-.4-.1-.1 0-.2-.1-.3-.2-.1-.1-.2-.2-.2-.3 0-.1-.1-.2-.1-.4 0-.1 0-.3.1-.4 0-.1.1-.2.2-.3.4-.4 1-.4 1.4 0 .1.1.2.2.2.3.1.1.1.2.1.4 0 .1 0 .3-.1.4-.1.1-.1.2-.2.3-.1.1-.2.2-.3.2-.1 0-.3.1-.4.1zM74 74.1c-.6 0-1-.4-1-1V49.5c0-.6.4-1 1-1s1 .4 1 1v23.6c0 .6-.4 1-1 1z"/></g><g><path class="ffst4" d="M128 33.7c-.3 0-.5-.1-.7-.3-.2-.2-.3-.4-.3-.7 0-.3.1-.5.3-.7.1-.1.2-.2.3-.2.4-.2.8-.1 1.1.2.2.2.3.5.3.7 0 .3-.1.5-.3.7-.1.2-.4.3-.7.3zM128 62.1c-.6 0-1-.4-1-1V37.5c0-.6.4-1 1-1s1 .4 1 1v23.6c0 .6-.4 1-1 1z"/></g><g><path class="ffst4" d="M64 40.7c-.3 0-.5-.1-.7-.3-.1-.1-.2-.2-.2-.3 0-.1-.1-.2-.1-.4 0-.1 0-.3.1-.4.1-.1.1-.2.2-.3.3-.3.7-.4 1.1-.2.1 0 .2.1.3.2.1.1.2.2.2.3.1.1.1.2.1.4 0 .1 0 .3-.1.4 0 .1-.1.2-.2.3-.2.2-.4.3-.7.3zM64 72.1c-.6 0-1-.4-1-1V47.5c0-.6.4-1 1-1s1 .4 1 1v23.6c0 .6-.4 1-1 1z"/></g><g><path class="ffst4" d="M60 57.7c-.1 0-.3 0-.4-.1-.1 0-.2-.1-.3-.2-.2-.2-.3-.4-.3-.7 0-.3.1-.5.3-.7.3-.3.7-.4 1.1-.2.1 0 .2.1.3.2.1.1.2.2.2.3.1.1.1.2.1.4 0 .3-.1.5-.3.7-.2.2-.4.3-.7.3zM60 89.2c-.6 0-1-.4-1-1V64.5c0-.6.4-1 1-1s1 .4 1 1v23.6c0 .6-.4 1.1-1 1.1z"/></g><g><path class="ffst4" d="M78 38.7c-.3 0-.5-.1-.7-.3-.1-.1-.2-.2-.2-.3 0-.1-.1-.2-.1-.4 0-.1 0-.3.1-.4 0-.1.1-.2.2-.3.4-.4 1-.4 1.4 0 .1.1.2.2.2.3 0 .1.1.2.1.4 0 .1 0 .3-.1.4-.1.1-.1.2-.2.3-.2.2-.4.3-.7.3zM78 70.1c-.6 0-1-.4-1-1V45.5c0-.6.4-1 1-1s1 .4 1 1v23.6c0 .6-.4 1-1 1z"/></g><g><path class="ffst4" d="M101 31.7c-.1 0-.3 0-.4-.1-.1 0-.2-.1-.3-.2-.2-.2-.3-.4-.3-.7 0-.1 0-.3.1-.4.1-.1.1-.2.2-.3.1-.1.2-.2.3-.2.2-.1.5-.1.8 0 .1 0 .2.1.3.2.1.1.2.2.2.3.1.1.1.2.1.4 0 .3-.1.5-.3.7-.2.2-.4.3-.7.3zM101 60.1c-.6 0-1-.4-1-1V35.5c0-.6.4-1 1-1s1 .4 1 1v23.6c0 .6-.4 1-1 1z"/></g><g><path class="ffst4" d="M30.2 66h2v4h-2zM30.2 76h2v4h-2z"/><g><path class="ffst4" d="M24.2 72h4v2h-4zM34.2 72h4v2h-4z"/></g></g><g><path class="ffst4" d="M154 86h2v4h-2zM154 96h2v4h-2z"/><g><path class="ffst4" d="M148 92h4v2h-4zM158 92h4v2h-4z"/></g></g><g><path class="ffst4" d="M140.3 46h2v4h-2zM140.3 56h2v4h-2z"/><g><path class="ffst4" d="M134.3 52h4v2h-4zM144.3 52h4v2h-4z"/></g></g><g><circle class="ffst3" cx="141.2" cy="73.3" r="4"/></g><g><circle class="ffst1" cx="18.8" cy="145.6" r="2"/></g><g><path class="ffst4" d="M90 6.3c-.1 0-.3 0-.4-.1-.1 0-.2-.1-.3-.2-.2-.2-.3-.5-.3-.7 0-.1 0-.3.1-.4.1-.1.1-.2.2-.3.1-.1.2-.2.3-.2.4-.1.8-.1 1.1.2.1.1.2.2.2.3.1.1.1.2.1.4 0 .3-.1.5-.3.7-.2.2-.4.3-.7.3zM90 37.7c-.6 0-1-.4-1-1V13.1c0-.6.4-1 1-1s1 .4 1 1v23.6c0 .6-.4 1-1 1z"/></g><g><path class="ffst4" d="M110 13.7c-.1 0-.3 0-.4-.1-.1 0-.2-.1-.3-.2-.1-.1-.2-.2-.2-.3 0-.1-.1-.2-.1-.4 0-.1 0-.3.1-.4.1-.1.1-.2.2-.3.3-.3.7-.4 1.1-.2.1 0 .2.1.3.2.2.2.3.5.3.7 0 .3-.1.5-.3.7-.2.2-.4.3-.7.3zM110 45.2c-.6 0-1-.4-1-1V20.6c0-.6.4-1 1-1s1 .4 1 1v23.6c0 .6-.4 1-1 1z"/></g><g><path class="ffst4" d="M68 2.3c-.3 0-.5-.1-.7-.3-.1-.1-.2-.2-.2-.3-.1-.2-.1-.3-.1-.4s0-.3.1-.4c.1-.1.1-.2.2-.3l.1-.1c.1 0 .1-.1.2-.1s.1 0 .2-.1c.2 0 .4 0 .6.1.1 0 .2.1.3.2.2.1.3.4.3.7 0 .1 0 .3-.1.4-.1.1-.1.2-.2.3-.2.2-.4.3-.7.3zM68 33.7c-.6 0-1-.4-1-1V9.1c0-.6.4-1 1-1s1 .4 1 1v23.6c0 .6-.4 1-1 1z"/></g></g></svg>