<?xml version="1.0" encoding="utf-8"?><svg id="gaLayer_1" xmlns="http://www.w3.org/2000/svg" xmlns:xlink="http://www.w3.org/1999/xlink" viewBox="0 0 193 193" width="193" height="193"><style>.gast0{clip-path:url(#gaSVGID_2_)}.gast1{fill:#dededd}.gast2{fill:#48515a}.gast3{fill:#ffd15d}.st4{fill:none;stroke:#48515a;stroke-width:2;stroke-miterlimit:10}.gast5{fill:#5fe0ed}.gast6{fill:#475059}.gast7{fill:#f58e70}</style><defs><path id="gaSVGID_1_" d="M0 0h193v193H0z"/></defs><clipPath id="gaSVGID_2_"><use xlink:href="#gaSVGID_1_" overflow="visible"/></clipPath><g class="gast0"><path class="gast1" d="M158.5 51.7h-8.8v71.4c0 4.4-3.6 8-8 8H90.1c1.9.3 3.4 1.9 3.4 3.9 0 .2 0 .4-.1.6h57.1c4.4 0 8-3.6 8-8V51.7z"/><path class="gast2" d="M165.5 157.7h-84v-10c0-.6.4-1 1-1s1 .4 1 1v8h80v-103h-15c-.6 0-1-.4-1-1s.4-1 1-1h17v107zM114.1 83.7c-.3 0-.6-.1-.8-.4-.3-.4-.3-1.1.2-1.4.9-.7 1.6-1.7 1.8-2.8.2-.7.2-1.4.1-2.1-.1-.9-.5-1.7-1-2.4l-.1-.1c-4.8 1.7-10.1 1.7-14.9-.1-5.9-2.1-10.5-6.4-13.1-12.1-2.5-5.7-2.6-12.1-.2-17.8C90.7 33.6 103 28 114.2 31.9c8 2.7 13.7 9.6 15 17.9l.1.4c.4 3.1.2 6.2-.6 9.2l-.5 1.5c-1.2 3.5-3.3 6.6-6 9.1.4 4.6-1.5 9.1-5.1 11.8l-2.4 1.9h-.6zm.5-11.3c.3 0 .6.1.8.4l.6.7c.7 1 1.2 2.1 1.4 3.3.1.6.1 1.2 0 1.9 2.2-2.4 3.2-5.8 2.8-9.1 0-.3.1-.7.3-.9 2.6-2.3 4.6-5.3 5.8-8.5l.4-1.4c.7-2.7.9-5.5.6-8.3v-.4c-1.2-7.6-6.4-13.8-13.7-16.3C103.5 30.3 92 35.5 88 45.3c-2.2 5.3-2.1 11.1.2 16.3 2.3 5.2 6.5 9.1 11.9 11 4.6 1.6 9.6 1.6 14.2-.2h.3z"/><path class="gast2" d="M116.5 50.7h-20c-.6 0-1-.4-1-1s.4-1 1-1h20c.6 0 1 .4 1 1s-.4 1-1 1zM116.5 54.7h-20c-.6 0-1-.4-1-1s.4-1 1-1h20c.6 0 1 .4 1 1s-.4 1-1 1zM108.5 58.7h-12c-.6 0-1-.4-1-1s.4-1 1-1h12c.6 0 1 .4 1 1s-.4 1-1 1zM94.6 116.7c-.5 0-1-.1-1.4-.4-.7-.5-1.1-1.4-.9-2.3l1.9-11-8-7.8c-.6-.6-.9-1.5-.6-2.4s1-1.4 1.9-1.6l11-1.6 4.9-10c.4-.8 1.2-1.3 2.1-1.3.9 0 1.7.5 2.1 1.3l4.9 10 11 1.6c.9.1 1.6.7 1.9 1.6s0 1.8-.6 2.4l-8 7.8 1.9 11c.2.9-.2 1.7-.9 2.3-.7.5-1.7.6-2.4.2l-9.9-5.2-9.9 5.2c-.3.1-.7.2-1 .2zm10.9-36.3c-.1 0-.2 0-.3.2l-5.4 10.9-12.1 1.8c-.2 0-.2.1-.3.2s0 .2.1.3l8.7 8.5-2.1 12c0 .2.1.3.1.3.1 0 .2.1.3 0l10.8-5.7 10.8 5.7c.2.1.3 0 .3 0 .1 0 .2-.1.1-.3l-2.1-12 8.7-8.5c.1-.1.1-.3.1-.3s-.1-.2-.3-.2l-12.1-1.8-5.4-10.9c.3-.2.2-.2.1-.2zm-6.3 10.2z"/><path class="gast3" d="M91.5 94.8l7 6.9-1.7 9.7 8.7-4.6 8.7 4.6-1.7-9.7 7-6.9-9.7-1.4-4.3-8.8-4.3 8.8-9.7 1.4zm7.7-4.2zM141.7 116.1c4.4 0 8 3.6 8 8V18.3c0-4.4-3.6-8-8-8v105.8z"/><path class="gast2" d="M150.7 124.1h-2c0-3.9-3.1-7-7-7h-1V9.3h1c5 0 9 4 9 9v105.8zm-8-8.9c2.4.3 4.5 1.5 6 3.3V18.3c0-3.5-2.6-6.4-6-6.9v103.8z"/><g><path class="gast2" d="M78.5 118.7h56v2h-56z"/></g><g><path class="gast2" d="M78.5 122.7h28v2h-28z"/></g><g><path class="gast2" d="M94.5 144.7h56v2h-56z"/></g><g><path class="gast2" d="M94.5 148.7h28v2h-28z"/></g><g><path transform="rotate(-90 17.342 129.777)" class="gast5" d="M-5.7 112.9h46.1v33.7H-5.7z"/><path class="gast2" d="M47.2 149.8h-13v-2h11v-37h-11v-2h13zM26.5 145.8c-.6 0-1-.4-1-1v-4c0-.6.4-1 1-1s1 .4 1 1v4c0 .6-.4 1-1 1z"/><path class="gast2" d="M26.5 149.8c-1.7 0-3-1.3-3-3s1.3-3 3-3 3 1.3 3 3-1.3 3-3 3zm0-4c-.6 0-1 .4-1 1s.4 1 1 1 1-.4 1-1-.4-1-1-1z"/><path class="gast6" d="M85.5 148h-8c-2.8 0-5-2.2-5-5s2.2-5 5-5h8c2.8 0 5 2.2 5 5s-2.2 5-5 5zm-8-8c-1.7 0-3 1.3-3 3s1.3 3 3 3h8c1.7 0 3-1.3 3-3s-1.3-3-3-3h-8z"/><g><path class="gast6" d="M89.5 140h-12c-2.8 0-5-2.2-5-5s2.2-5 5-5h12c2.8 0 5 2.2 5 5s-2.2 5-5 5zm-12-8c-1.7 0-3 1.3-3 3s1.3 3 3 3h12c1.7 0 3-1.3 3-3s-1.3-3-3-3h-12z"/></g><g><path class="gast6" d="M77.5 148H64c-1.8 0-3.6-.6-5.1-1.7-1.1-.8-2.5-1.3-3.9-1.3h-9.5v-2H55c1.8 0 3.6.6 5.1 1.7 1.1.8 2.5 1.3 3.9 1.3h13.5v2z"/></g><g><path class="gast2" d="M67.5 106.8V26.3h74.4v-2H65.5v82.5z"/><path class="gast2" d="M148.7 17.3v105.8c0 3.9-3.1 7-7 7H67.5V120l-.4 1.3c-.3 1.1-.9 2.1-1.6 3v7.8h76.2c5 0 9-4 9-9V17.3h-2z"/><g><path class="gast6" d="M59.5 128.1v-2c3.1 0 5.8-2.1 6.7-5l2.1-7.3h14.5c3.3 0 6-2.7 6-6l-25.1.1c-1 0-1.9.5-2.5 1.4l-5 7.7-9.8.2v-2l8.8-.1 4.4-6.8c.9-1.4 2.5-2.2 4.2-2.3l27.1-.1v2c0 4.4-3.6 8-8 8H69.8l-1.7 5.9c-1.1 3.6-4.6 6.3-8.6 6.3z"/></g></g></g><g><path class="gast2" d="M39.5 64.7h2v4h-2zM39.5 74.7h2v4h-2z"/><g><path class="gast2" d="M43.5 70.7h4v2h-4zM33.5 70.7h4v2h-4z"/></g></g><g><path class="gast2" d="M162.5 24.7h2v4h-2zM162.5 34.7h2v4h-2z"/><g><path class="gast2" d="M166.5 30.7h4v2h-4zM156.5 30.7h4v2h-4z"/></g></g><g><path class="gast2" d="M169.5 169.7h2v4h-2zM169.5 179.7h2v4h-2z"/><g><path class="gast2" d="M173.5 175.7h4v2h-4zM163.5 175.7h4v2h-4z"/></g></g><g><circle class="gast5" cx="9.5" cy="79.7" r="3"/></g><g><circle class="gast3" cx="189.5" cy="99.7" r="3"/></g><g><circle class="gast7" cx="51.8" cy="91.9" r="1.5"/></g><g><circle class="gast7" cx="36.8" cy="160.9" r="1.9"/></g><g><circle class="gast5" cx="174.5" cy="118.7" r="2"/></g><g><path class="gast2" d="M79.3 131c-.2-.2-.4-.4-.8-.4s-.6.1-.8.4h1.6zM160.5 156.7c-.6 0-1 .4-1 1v2h-80V147h-2v14.6h84v-4c0-.5-.4-.9-1-.9z"/></g><g><path class="gast2" d="M74.8 132.1c.2-.2.4-.4.7-.5 0-.5-.5-.9-1-.9-.6 0-1 .4-1 1v.4h1.3zM156.5 160.7c-.6 0-1 .4-1 1v2h-80v-16.8h-2v18.8h84v-4c0-.6-.4-1-1-1z"/></g><g><path class="gast2" d="M71.5 132.1v-.4c0-.6-.4-1-1-1s-1 .4-1 1v.4h2zM152.5 164.7c-.6 0-1 .4-1 1v2h-80v-20.8h-2v22.8h84v-4c0-.6-.4-1-1-1z"/></g></g></svg>