<?xml version="1.0" encoding="utf-8"?><svg id="fjLayer_1" xmlns="http://www.w3.org/2000/svg" xmlns:xlink="http://www.w3.org/1999/xlink" viewBox="0 0 193 193" width="193" height="193"><style>.fjst0{clip-path:url(#fjSVGID_2_)}.fjst1{fill:#48515a}.fjst2{fill:#ffd15d}.fjst3{fill:#f58e70}.fjst4{fill:#dededd}.fjst5{fill:#475059}.fjst6{fill:#5fe0ed}</style><defs><path id="fjSVGID_1_" d="M0 0h193v193H0z"/></defs><clipPath id="fjSVGID_2_"><use xlink:href="#fjSVGID_1_" overflow="visible"/></clipPath><g class="fjst0"><path class="fjst1" d="M123 145.5H64.2v-15.7c0-7.1-3-13.9-8.5-19.2-11.5-10.7-17.8-26-17.3-41.7.9-28.4 23.8-51.8 52.1-53.3 15.3-.8 29.9 4.5 41 15.1 11.1 10.5 17.2 24.8 17.2 40.1 0 15.1-6 29.3-17 39.8-5.7 5.5-8.8 12.6-8.8 20.1v14.8zm-56.8-2H121v-13c0-8.1 3.4-15.7 9.4-21.6 10.6-10.1 16.4-23.7 16.4-38.3 0-14.7-5.9-28.5-16.6-38.6-10.7-10.1-24.7-15.3-39.5-14.5-27.3 1.5-49.4 24-50.2 51.4-.6 15.2 5.5 29.9 16.5 40.4 5.9 5.6 9.2 12.9 9.2 20.6v13.6z"/><path class="fjst2" d="M103.4 173.5h-18c-8.3 0-15-6.7-15-15v-3h48v3c0 8.3-6.7 15-15 15z"/><path class="fjst2" d="M103.4 174h-18c-8.5 0-15.5-7-15.5-15.5V155h49v3.5c0 8.5-7 15.5-15.5 15.5zm-32.5-18v2.5c0 8 6.5 14.5 14.5 14.5h18c8 0 14.5-6.5 14.5-14.5V156h-47z"/><path class="fjst3" d="M166.4 124.4c-7.5 0-13.7-6.1-13.7-13.7S158.9 97 166.4 97c7.5 0 13.7 6.1 13.7 13.7s-6.2 13.7-13.7 13.7zm0-24.4c-5.9 0-10.7 4.8-10.7 10.7 0 5.9 4.8 10.7 10.7 10.7 5.9 0 10.7-4.8 10.7-10.7 0-5.9-4.8-10.7-10.7-10.7z"/><path class="fjst1" d="M167.9 137.5h-3c-.5 0-.9-.3-1-.8l-1.5-6.1v-1.2c-1.3-.3-2.5-.7-3.8-1.2l-.6.8c0 .1-.1.1-.2.2l-4.8 4c-.4.3-.9.3-1.2 0l-2.5-1.8c-.4-.3-.5-.8-.3-1.2l2.3-5.8c0-.1.1-.1.1-.2l.6-.8c-.9-1-1.6-2-2.3-3.2l-.9.3h-.2l-6.2.4c-.5 0-.9-.3-1-.7l-.9-2.9c-.1-.4 0-.9.4-1.2l5.3-3.3c.1 0 .1-.1.2-.1l.9-.3c-.1-.7-.1-1.3-.1-2 0-.6 0-1.3.1-2l-.9-.3c-.1 0-.2-.1-.2-.1l-5.3-3.3c-.4-.2-.6-.7-.4-1.2l.9-2.9c.1-.4.6-.7 1-.7l6.2.4h.2l.9.3c.7-1.1 1.4-2.2 2.3-3.2l-.6-.8c0-.1-.1-.1-.1-.2l-2.3-5.8c-.2-.4 0-.9.3-1.2l2.5-1.8c.4-.3.9-.3 1.2 0l4.8 4 .2.2.6.8c1.2-.5 2.4-.9 3.7-1.2v-1-.2l1.5-6.1c.1-.4.5-.8 1-.8h3c.5 0 .9.3 1 .8l1.5 6.1v1.2c1.3.3 2.5.7 3.7 1.2l.6-.8c0-.1.1-.1.2-.2l4.8-4c.4-.3.9-.3 1.2 0l2.5 1.8c.4.3.5.8.3 1.2l-2.4 5.8c0 .1-.1.1-.1.2l-.6.8c.9 1 1.7 2 2.3 3.2l.9-.3h.2l6.2-.4c.5 0 .9.3 1 .7l.9 2.9c.1.4 0 .9-.4 1.2l-5.3 3.3c-.1 0-.1.1-.2.1l-.9.3c.1.7.1 1.4.1 2 0 .6 0 1.3-.1 2l.9.3c.1 0 .2.1.2.1l5.3 3.3c.4.2.6.7.4 1.2l-.9 2.9c-.1.4-.6.7-1 .7l-6.2-.4h-.2l-.9-.3c-.7 1.1-1.4 2.2-2.3 3.2l.6.8c0 .1.1.1.1.2l2.3 5.8c.2.4 0 .9-.3 1.2l-2.5 1.8c-.4.3-.9.3-1.2 0l-4.8-4-.2-.2-.6-.8c-1.2.5-2.5.9-3.7 1.2v1.2l-1.5 6.1c.1.5-.3.8-.8.8zm-2.2-2h1.5l1.3-5.2v-1.7c0-.5.4-.9.8-1 1.7-.3 3.3-.8 4.8-1.6.4-.2 1-.1 1.3.3l1 1.4 4.1 3.4 1.2-.9-2-5-1-1.4c-.3-.4-.2-.9.1-1.3 1.2-1.2 2.2-2.6 3-4.1.2-.4.7-.6 1.2-.5l1.6.5 5.3.4.5-1.4-4.5-2.8-1.6-.5c-.5-.2-.8-.6-.7-1.1.1-1 .2-1.7.2-2.5s-.1-1.6-.2-2.5c-.1-.5.2-.9.7-1.1l1.6-.5 4.5-2.8-.5-1.4-5.3.4-1.6.5c-.5.1-1-.1-1.2-.5-.8-1.5-1.8-2.9-3-4.1-.3-.3-.4-.9-.1-1.3l1-1.4 2-4.9-1.2-.9-4.1 3.4-1 1.4c-.3.4-.8.5-1.3.3-1.5-.7-3.1-1.3-4.8-1.6-.5-.1-.8-.5-.8-1v-1.7l-1.3-5.2h-1.5l-1.3 5.2v1.7c0 .5-.4.9-.8 1-1.7.3-3.3.8-4.8 1.5-.4.2-1 .1-1.3-.3l-1-1.4-4.1-3.4-1.2.9 2 5 1 1.3c.3.4.2.9-.1 1.3-1.2 1.2-2.2 2.6-3 4.1-.2.4-.7.6-1.2.5l-1.6-.5-5.3-.4-.5 1.4 4.5 2.8 1.6.5c.5.2.8.6.7 1.1-.1 1-.2 1.8-.2 2.5 0 .8.1 1.6.2 2.5.1.5-.2.9-.7 1.1l-1.6.5-4.5 2.8.5 1.4 5.3-.4 1.6-.5c.5-.2 1 .1 1.2.5.8 1.5 1.8 2.9 3 4.1.3.3.4.9.1 1.3l-1 1.3-2 5 1.2.9 4.1-3.4 1-1.4c.3-.4.8-.5 1.3-.3 1.5.7 3.1 1.3 4.8 1.5.5.1.8.5.8 1v1.7l1.3 5.5z"/><path class="fjst1" d="M166.4 117.8c-3.9 0-7.1-3.2-7.1-7.1 0-3.9 3.2-7.1 7.1-7.1s7.1 3.2 7.1 7.1c-.1 3.9-3.2 7.1-7.1 7.1zm0-12.2c-2.8 0-5.1 2.3-5.1 5.1s2.3 5.1 5.1 5.1 5.1-2.3 5.1-5.1c-.1-2.8-2.3-5.1-5.1-5.1z"/><path class="fjst3" d="M25.6 159.6c-13.8 0-25-11.2-25-25s11.2-25 25-25 25 11.2 25 25c0 13.7-11.2 25-25 25zm0-48c-12.7 0-23 10.3-23 23s10.3 23 23 23 23-10.3 23-23-10.3-23-23-23z"/><path class="fjst1" d="M45.6 135.6H42c-.6 0-1-.4-1-1s.4-1 1-1h3.6c.6 0 1 .4 1 1 0 .5-.5 1-1 1z"/><path class="fjst1" d="M45.6 135.6H42c-.6 0-1-.4-1-1s.4-1 1-1h3.6c.6 0 1 .4 1 1 0 .5-.5 1-1 1zM35.7 153c-.3 0-.7-.2-.9-.5l-1.8-3.1c-.3-.5-.1-1.1.4-1.4.5-.3 1.1-.1 1.4.4l1.8 3.1c.3.5.1 1.1-.4 1.4-.1.1-.3.1-.5.1zM39.7 127.1c-.3 0-.7-.2-.9-.5-.3-.5-.1-1.1.4-1.4l3.1-1.8c.5-.3 1.1-.1 1.4.4.3.5.1 1.1-.4 1.4l-3.1 1.8c-.1.1-.3.1-.5.1zM43.2 145.4c-.2 0-.3 0-.5-.1l-3.1-1.8c-.5-.3-.6-.9-.4-1.4.3-.5.9-.6 1.4-.4l3.1 1.8c.5.3.6.9.4 1.4-.3.3-.6.5-.9.5zM33.7 120.9c-.2 0-.3 0-.5-.1-.5-.3-.6-.9-.4-1.4l1.8-3.1c.3-.5.9-.6 1.4-.4.5.3.6.9.4 1.4l-1.8 3.1c-.3.3-.6.5-.9.5zM26.6 146.7h-2v-14h9.8v2h-7.8zM25.6 118.7c-.6 0-1-.4-1-1v-3.6c0-.6.4-1 1-1s1 .4 1 1v3.6c0 .5-.4 1-1 1zM25.6 156c-.6 0-1-.4-1-1v-3.6c0-.6.4-1 1-1s1 .4 1 1v3.6c0 .6-.4 1-1 1zM9.2 135.6H5.6c-.6 0-1-.4-1-1s.4-1 1-1h3.6c.6 0 1 .4 1 1 0 .5-.5 1-1 1z"/><path class="fjst1" d="M25.6 118.7c-.6 0-1-.4-1-1v-3.6c0-.6.4-1 1-1s1 .4 1 1v3.6c0 .5-.4 1-1 1zM25.6 156c-.6 0-1-.4-1-1v-3.6c0-.6.4-1 1-1s1 .4 1 1v3.6c0 .6-.4 1-1 1zM9.2 135.6H5.6c-.6 0-1-.4-1-1s.4-1 1-1h3.6c.6 0 1 .4 1 1 0 .5-.5 1-1 1zM15.4 153c-.2 0-.3 0-.5-.1-.5-.3-.6-.9-.4-1.4l1.8-3.1c.3-.5.9-.6 1.4-.4.5.3.6.9.4 1.4l-1.8 3.1c-.2.4-.5.5-.9.5zM11.4 127.1c-.2 0-.3 0-.5-.1l-3.1-1.8c-.5-.3-.6-.9-.4-1.4.3-.5.9-.6 1.4-.4l3.1 1.8c.5.3.6.9.4 1.4-.2.3-.5.5-.9.5zM8 145.4c-.3 0-.7-.2-.9-.5-.3-.5-.1-1.1.4-1.4l3.1-1.8c.5-.3 1.1-.1 1.4.4.3.5.1 1.1-.4 1.4l-3.1 1.8c-.1 0-.3.1-.5.1zM17.5 120.9c-.3 0-.7-.2-.9-.5l-1.8-3.1c-.3-.5-.1-1.1.4-1.4.5-.3 1.1-.1 1.4.4l1.8 3.1c.3.5.1 1.1-.4 1.4-.2.1-.3.1-.5.1z"/><g><path class="fjst4" d="M65.8 144.5h56v8h-56z"/><path class="fjst4" d="M122.8 153.5h-58v-10h58v10zm-56-2h54v-6h-54v6z"/><path class="fjst1" d="M61.8 143.5h64v2h-64zM105.8 177.5H84.6c-5 0-9.7-1.9-13.2-5.5-3.5-3.5-5.5-8.2-5.5-13.2v-6.3h2v6.3c0 4.4 1.7 8.6 4.9 11.8 3.1 3.1 7.3 4.9 11.8 4.9h21.1c3.6-.4 7.1-2.2 9.8-4.9 3.1-3.1 4.9-7.3 4.9-11.8v-6.3h2v6.3c0 5-1.9 9.7-5.5 13.2-3 3.1-6.9 5-11.1 5.5z"/><path class="fjst5" d="M108.8 114.1c-.4 0-.8-.3-.9-.7-.2-.5.1-1.1.6-1.3 17.4-6.3 29.1-22.9 29.1-41.4v-4l-2.8 2.8c-.4.4-1 .4-1.4 0-.4-.4-.4-1 0-1.4l4.6-4.6c.3-.3.7-.4 1.1-.2.4.2.6.5.6.9v6.4c0 19.4-12.2 36.8-30.4 43.3-.3.2-.4.2-.5.2zM99.8 116.7h-6.3c-19.4 0-36.9-12.3-43.4-30.6-.2-.5.1-1.1.6-1.3.5-.2 1.1.1 1.3.6 6.2 17.5 22.9 29.3 41.5 29.3h3.9l-2.9-2.9c-.4-.4-.4-1 0-1.4.4-.4 1-.4 1.4 0l4.7 4.7c.3.3.4.7.2 1.1-.2.3-.6.5-1 .5zM48.5 78.3c-.1 0-.3 0-.4-.1-.4-.2-.6-.5-.6-.9v-6.6c0-19.4 12.3-36.9 30.6-43.4.5-.2 1.1.1 1.3.6.2.5-.1 1.1-.6 1.3-17.5 6.2-29.3 22.9-29.3 41.5v4.1l3.2-3.2c.4-.4 1-.4 1.4 0 .4.4.4 1 0 1.4l-4.8 5c-.2.2-.5.3-.8.3zM115.8 32.6c-.2 0-.3 0-.5-.1-6.6-3.8-14.1-5.7-21.7-5.7h-4.1l3.1 3.1c.4.4.4 1 0 1.4-.4.4-1 .4-1.4 0l-4.8-4.8c-.3-.3-.4-.7-.2-1.1.2-.4.5-.6.9-.6h6.6c8 0 15.8 2.1 22.7 6 .5.3.6.9.4 1.4-.3.2-.7.4-1 .4z"/><path class="fjst5" d="M135.9 56.5c-.4 0-.8-.3-.9-.7-3.5-9.9-10.5-18.2-19.7-23.4-.5-.3-.6-.9-.4-1.4.3-.5.9-.6 1.4-.4 9.6 5.5 16.9 14.2 20.6 24.5.2.5-.1 1.1-.6 1.3-.1.1-.3.1-.4.1z"/><g><path class="fjst1" d="M61.8 147.5h64v2h-64z"/></g><g><path class="fjst1" d="M61.8 151.5h64v2h-64z"/></g></g><g><path class="fjst1" d="M151.8 85.5c-.3 0-.5-.1-.7-.3-.2-.2-.3-.4-.3-.7 0-.1 0-.3.1-.4 0-.1.1-.2.2-.3.4-.4 1-.4 1.4 0 .1.1.2.2.2.3 0 .1.1.2.1.4 0 .3-.1.5-.3.7-.2.2-.5.3-.7.3zM93 130.5c0-.5.4-1 1-1s1 .4 1 1-.4 1-1 1c-.5 0-1-.4-1-1zm-3 .9c-.5 0-1-.5-1-1.1 0-.5.5-1 1.1-.9.6 0 1 .5.9 1.1 0 .5-.5.9-1 .9zm7.1-1c0-.6.4-1 .9-1.1.6 0 1 .4 1.1.9 0 .5-.4 1-.9 1.1h-.1c-.6 0-1-.4-1-.9zm-11.2.6c-.6-.1-.9-.6-.9-1.1.1-.5.6-.9 1.1-.9.5.1.9.6.9 1.1-.1.5-.5.9-1 .9h-.1zm15.2-1c-.1-.5.3-1.1.9-1.1.5-.1 1 .3 1.1.9.1.5-.3 1.1-.9 1.1h-.1c-.5 0-1-.4-1-.9zm-19.2.4c-.5-.1-.9-.6-.8-1.2.1-.5.6-.9 1.2-.8.5.1.9.6.8 1.2-.1.5-.5.8-1 .8h-.2zm23.1-1c-.1-.5.2-1.1.8-1.2.5-.1 1.1.2 1.2.8.1.5-.2 1.1-.8 1.2h-.2c-.4 0-.9-.4-1-.8zm-27.1.1c-.5-.1-.9-.7-.7-1.2.1-.5.7-.9 1.2-.7.5.1.8.7.7 1.2-.1.4-.5.8-1 .8-.1-.1-.1-.1-.2-.1zm31.1-1c-.1-.5.2-1.1.7-1.2.5-.2 1.1.2 1.2.7.1.5-.2 1.1-.7 1.2h-.3c-.4 0-.8-.3-.9-.7zm-35-.2c-.5-.2-.8-.8-.6-1.3.2-.5.7-.8 1.3-.6.5.2.8.7.6 1.3-.1.4-.5.7-.9.7-.2 0-.3 0-.4-.1zm38.8-1c-.2-.5.1-1.1.6-1.3.5-.2 1.1.1 1.3.6.2.5-.1 1.1-.6 1.3-.1 0-.2.1-.3.1-.5 0-.8-.3-1-.7zm-42.7-.4c-.5-.2-.8-.8-.5-1.3.2-.5.8-.8 1.3-.5.5.2.8.8.5 1.3-.2.4-.5.6-.9.6-.1 0-.2 0-.4-.1zm46.5-1c-.2-.5 0-1.1.5-1.3.5-.2 1.1 0 1.3.5.2.5 0 1.1-.5 1.3-.1.1-.3.1-.4.1-.4 0-.8-.3-.9-.6zm-50.2-.7c-.5-.2-.7-.9-.5-1.3.2-.5.8-.7 1.3-.5.5.2.7.8.4 1.3-.2.3-.5.5-.9.5 0 .1-.2.1-.3 0zm53.8-1c-.3-.5-.1-1.1.4-1.3.5-.3 1.1-.1 1.3.4.3.5.1 1.1-.4 1.3-.1.1-.3.1-.5.1-.3 0-.6-.2-.8-.5zm-57.4-.9c-.5-.3-.6-.9-.4-1.4.3-.5.9-.6 1.4-.4.5.3.6.9.4 1.4-.2.3-.5.5-.9.5-.2 0-.3 0-.5-.1zm61-1c-.3-.5-.1-1.1.3-1.4.5-.3 1.1-.1 1.4.3.3.5.1 1.1-.3 1.4-.2.1-.4.1-.5.1-.4 0-.8-.1-.9-.4zm-64.5-1.2c-.5-.3-.6-.9-.3-1.4.3-.5.9-.6 1.4-.3.5.3.6.9.3 1.4-.2.3-.5.4-.8.4-.2.1-.4 0-.6-.1zm67.9-1c-.3-.4-.2-1.1.2-1.4.4-.3 1.1-.2 1.4.2.3.5.2 1.1-.2 1.4-.2.1-.4.2-.6.2-.3 0-.7-.1-.8-.4zM56 118.7c-.4-.3-.5-1-.2-1.4.3-.4 1-.5 1.4-.2.4.3.5 1 .2 1.4-.2.2-.5.4-.8.4-.2 0-.4 0-.6-.2zm74.4-1c-.3-.4-.3-1.1.1-1.4.4-.4 1.1-.3 1.4.1.3.4.3 1.1-.1 1.4-.2.2-.4.2-.6.2-.3.1-.6 0-.8-.3zm-77.5-1.6c-.4-.4-.5-1-.1-1.4.4-.4 1-.4 1.4-.1.4.4.5 1 .1 1.4-.2.2-.5.3-.8.3-.2.1-.4 0-.6-.2zm80.6-.9c-.4-.4-.3-1 .1-1.4.4-.4 1-.4 1.4 0 .4.4.4 1 0 1.4-.2.2-.4.3-.7.3-.4 0-.6-.1-.8-.3zm-83.6-1.9c-.4-.4-.4-1 0-1.4.4-.4 1-.4 1.4 0 .4.4.4 1 0 1.4-.2.2-.4.3-.7.3-.2 0-.5-.1-.7-.3zm86.5-.9c-.4-.4-.4-1 0-1.4.4-.4 1-.4 1.4 0 .4.4.4 1 0 1.4-.2.2-.5.3-.7.3-.3-.1-.5-.1-.7-.3zm-89.2-2.1c-.4-.4-.3-1.1.1-1.4.4-.4 1.1-.3 1.4.1.4.4.3 1.1-.1 1.4-.2.2-.4.2-.7.2-.3 0-.5-.1-.7-.3zm-2.6-3.2c-.3-.4-.2-1.1.2-1.4.4-.3 1.1-.2 1.4.2.3.4.2 1.1-.2 1.4-.2.1-.4.2-.6.2-.3 0-.6-.1-.8-.4zm-2.3-3.3c-.3-.5-.2-1.1.3-1.4.5-.3 1.1-.2 1.4.3.3.5.2 1.1-.3 1.4-.2.1-.4.2-.5.2-.4-.1-.8-.3-.9-.5zm-2.2-3.5c-.3-.5-.1-1.1.4-1.4.5-.3 1.1-.1 1.4.4.3.5.1 1.1-.4 1.4-.1.1-.3.1-.5.1-.3 0-.7-.2-.9-.5zm-1.8-3.7c-.2-.5 0-1.1.5-1.3.5-.2 1.1 0 1.3.5.2.5 0 1.1-.5 1.3-.1.1-.3.1-.4.1-.4 0-.8-.2-.9-.6zm-1.7-3.7c-.2-.5 0-1.1.6-1.3.5-.2 1.1 0 1.3.6.2.5-.1 1.1-.6 1.3-.1.1-.2.1-.4.1-.3-.1-.7-.3-.9-.7zM35.3 89c-.2-.5.1-1.1.6-1.2.5-.2 1.1.1 1.3.6.2.5-.1 1.1-.7 1.2-.1 0-.2.1-.3.1-.4 0-.8-.3-.9-.7zm-1.2-3.9c-.1-.5.2-1.1.7-1.2.5-.1 1.1.2 1.2.7.1.5-.2 1.1-.7 1.2h-.2c-.4 0-.8-.3-1-.7zm-.8-4c-.1-.5.3-1.1.8-1.2.5-.1 1.1.3 1.1.8.1.5-.3 1.1-.8 1.2h-.2c-.4 0-.8-.3-.9-.8zm119.1.4c-.6-.1-.9-.6-.8-1.1.1-.6.6-.9 1.1-.8.5.1.9.6.8 1.2-.1.5-.5.8-1 .8 0 0-.1 0-.1-.1zM32.7 77c-.1-.5.3-1 .9-1.1.5-.1 1 .3 1.1.9 0 .5-.3 1-.9 1.1h-.1c-.5 0-.9-.4-1-.9zm120.3.6c-.5 0-.9-.5-.9-1.1.1-.6.6-1 1.1-.9.5.1 1 .6.9 1.1-.1.5-.5.9-1 .9h-.1zM32.4 73c0-.6.4-1 1-1 .5 0 1 .4 1 1 0 .5-.4 1-1 1-.5-.1-.9-.5-1-1zm120.9.6c-.5 0-1-.5-1-1s.5-1 1-1 1 .5 1 1-.4 1-1 1zM33.4 69.9c-.6 0-1-.5-1-1s.5-1 1-1 1 .5 1 1c0 .6-.4 1-1 1zm119-1.3c0-.6.4-1 1-1 .5 0 1 .4 1 1s-.4 1-1 1c-.6-.1-1-.5-1-1zM33.6 65.9c-.6-.1-1-.5-.9-1.1 0-.6.5-1 1.1-.9.6.1 1 .5.9 1.1-.1.5-.5.9-1.1.9zm118.5-1.3c-.1-.6.3-1 .9-1.1.5-.1 1 .3 1.1.9.1.5-.3 1-.9 1.1h-.1c-.5 0-.9-.4-1-.9zM34 61.9c-.6-.1-.9-.6-.8-1.1.1-.5.6-.9 1.1-.8.5.1.9.6.8 1.1-.1.5-.5.8-1 .8H34zm117.6-1.2c-.1-.5.3-1.1.8-1.1.5-.1 1 .3 1.1.8.1.5-.3 1.1-.8 1.1h-.2c-.4 0-.8-.3-.9-.8zM34.7 57.9c-.5-.1-.9-.7-.8-1.2.1-.5.7-.9 1.2-.8.5.1.9.7.8 1.2-.1.5-.5.8-1 .8h-.2zm116.1-1.1c-.1-.5.2-1.1.7-1.2.5-.1 1.1.2 1.2.8.1.5-.2 1.1-.7 1.2h-.2c-.5 0-.9-.3-1-.8zM35.7 54c-.5-.2-.8-.7-.7-1.2.2-.5.7-.8 1.2-.7.5.2.8.7.7 1.2-.1.4-.5.7-1 .7 0 .1-.1 0-.2 0zm114.1-1c-.2-.5.1-1.1.7-1.3.5-.2 1.1.1 1.2.7.2.5-.1 1.1-.7 1.3h-.3c-.4 0-.8-.2-.9-.7zM36.9 50.2c-.5-.2-.8-.8-.6-1.3.2-.5.8-.8 1.3-.6.5.2.8.8.6 1.3-.1.4-.5.6-.9.6-.2.1-.3 0-.4 0zm111.6-.9c-.2-.5.1-1.1.6-1.3.5-.2 1.1.1 1.3.6.2.5-.1 1.1-.6 1.3-.1 0-.2.1-.4.1-.4-.1-.8-.3-.9-.7zM38.4 46.5c-.5-.2-.7-.8-.5-1.3.2-.5.8-.7 1.3-.5.5.2.7.8.5 1.3-.2.4-.5.6-.9.6-.1 0-.3-.1-.4-.1zm108.5-.9c-.2-.5 0-1.1.5-1.3.5-.2 1.1 0 1.3.5.2.5 0 1.1-.5 1.3-.1.1-.3.1-.4.1-.3 0-.7-.2-.9-.6zM40.1 42.8c-.5-.3-.7-.9-.4-1.3.3-.5.9-.7 1.4-.4.5.3.7.9.4 1.4-.2.3-.5.5-.9.5-.2 0-.3-.1-.5-.2zm105-.7c-.3-.5-.1-1.1.4-1.4.5-.3 1.1-.1 1.4.4.3.5.1 1.1-.4 1.4-.2.1-.3.1-.5.1-.3 0-.7-.2-.9-.5zm-103-2.8c-.5-.3-.6-.9-.3-1.4.3-.5.9-.6 1.4-.3.5.3.6.9.3 1.4-.2.3-.5.5-.9.5-.1 0-.3-.1-.5-.2zm101-.6c-.3-.5-.2-1.1.3-1.4.5-.3 1.1-.2 1.4.3.3.5.2 1.1-.3 1.4-.2.1-.4.1-.5.1-.4.1-.7-.1-.9-.4zM44.3 36c-.4-.3-.5-1-.2-1.4.3-.4.9-.5 1.4-.2.4.3.5 1 .2 1.4-.2.3-.5.4-.8.4-.2 0-.4-.1-.6-.2zm96.6-.5c-.3-.5-.2-1.1.2-1.4.4-.3 1.1-.2 1.4.2.3.4.2 1.1-.2 1.4-.2.1-.4.2-.6.2-.3 0-.6-.2-.8-.4zm-94.2-2.7c-.4-.4-.5-1-.1-1.4.3-.4 1-.5 1.4-.1.4.4.5 1 .1 1.4-.2.2-.5.4-.8.4l-.6-.3zm91.7-.4c-.4-.4-.3-1.1.1-1.4.4-.4 1-.3 1.4.1.4.4.3 1.1-.1 1.4-.2.2-.4.2-.6.2-.3 0-.6-.1-.8-.3zm-89-2.7c-.4-.4-.4-1 0-1.4.4-.4 1-.4 1.4 0 .4.4.4 1 0 1.4-.2.2-.5.3-.7.3-.3 0-.5-.1-.7-.3zm86.4-.3c-.4-.4-.4-1 0-1.4.4-.4 1-.4 1.4 0 .4.4.4 1 0 1.4-.2.2-.4.3-.7.3-.3 0-.6-.1-.7-.3zm-83.6-2.5c-.4-.4-.3-1 .1-1.4.4-.4 1-.4 1.4.1.4.4.3 1-.1 1.4-.2.2-.4.3-.7.3-.2-.1-.5-.2-.7-.4zm80.7-.2c-.4-.4-.4-1-.1-1.4.4-.4 1-.4 1.4-.1.4.4.4 1 .1 1.4-.2.2-.5.3-.7.3-.3 0-.5-.1-.7-.2zm-77.7-2.5c-.3-.4-.3-1.1.2-1.4.4-.4 1.1-.3 1.4.2.3.4.3 1.1-.2 1.4-.2.2-.4.2-.6.2-.3 0-.6-.1-.8-.4zm74.7-.1c-.4-.3-.5-1-.2-1.4.3-.4 1-.5 1.4-.2.4.3.5 1 .2 1.4-.2.2-.5.4-.8.4-.2 0-.4 0-.6-.2zm-71.5-2.3c-.3-.5-.2-1.1.2-1.4.5-.3 1.1-.2 1.4.2.3.5.2 1.1-.2 1.4-.2.1-.4.2-.6.2-.3 0-.6-.2-.8-.4zm68.3 0c-.5-.3-.6-.9-.3-1.4.3-.5.9-.6 1.4-.3.4.3.6.9.3 1.4-.2.3-.5.4-.8.4-.2.1-.4 0-.6-.1zm-65-2.3c-.3-.5-.1-1.1.3-1.4.5-.3 1.1-.1 1.4.3.3.5.1 1.1-.3 1.4-.2.2-.3.2-.5.2-.4 0-.7-.2-.9-.5zm61.7.2c-.5-.3-.6-.9-.4-1.4.3-.5.9-.6 1.4-.4.5.3.6.9.4 1.4-.2.3-.5.5-.9.5-.2 0-.4 0-.5-.1zm-58.2-2.2c-.2-.5-.1-1.1.4-1.4.5-.2 1.1-.1 1.3.4.2.5.1 1.1-.4 1.3-.1.2-.2.2-.4.2-.4 0-.7-.2-.9-.5zm54.7.3c-.5-.2-.7-.9-.4-1.4.2-.5.9-.7 1.3-.4.5.2.7.8.4 1.3-.2.4-.5.6-.9.6-.1 0-.3-.1-.4-.1zm-51.1-2.1c-.2-.5 0-1.1.5-1.3.5-.2 1.1 0 1.3.5.2.5 0 1.1-.5 1.3-.1.1-.3.1-.4.1-.3 0-.7-.2-.9-.6zm47.5.4c-.5-.2-.8-.8-.5-1.3.2-.5.8-.8 1.3-.5.5.2.8.8.5 1.3-.2.4-.5.6-.9.6-.1 0-.3 0-.4-.1zm-43.7-1.9c-.2-.5.1-1.1.6-1.3.5-.2 1.1.1 1.3.6.2.5-.1 1.1-.6 1.3-.1 0-.2.1-.3.1-.5 0-.9-.3-1-.7zm40 .5c-.5-.2-.8-.8-.6-1.3.2-.5.8-.8 1.3-.6.5.2.8.8.6 1.3-.1.4-.5.7-.9.7-.1 0-.3-.1-.4-.1zm-36.2-1.8c-.2-.5.2-1.1.7-1.2.5-.1 1.1.2 1.2.7.1.5-.2 1.1-.7 1.2h-.3c-.4.1-.8-.2-.9-.7zm32.5.6c-.5-.1-.8-.7-.7-1.2.1-.5.7-.9 1.2-.7.5.1.8.7.7 1.2-.1.5-.5.7-1 .7-.1.1-.2.1-.2 0zm-28.6-1.6c-.1-.5.2-1.1.8-1.2.5-.1 1.1.2 1.2.8.1.5-.2 1.1-.8 1.2h-.2c-.5 0-.9-.3-1-.8zm24.7.7c-.5-.1-.9-.6-.8-1.2.1-.5.6-.9 1.2-.8.5.1.9.6.8 1.2-.1.5-.5.8-1 .8-.1.1-.1 0-.2 0zm-20.8-1.4c-.1-.6.3-1.1.9-1.1.5-.1 1.1.3 1.1.9.1.5-.3 1-.9 1.1h-.1c-.5-.1-.9-.4-1-.9zm16.9.8c-.5-.1-.9-.6-.9-1.1.1-.6.6-.9 1.1-.9.5.1.9.6.9 1.1-.1.5-.5.9-1 .9h-.1zm-12.9-1.3c0-.6.4-1 .9-1.1.5 0 1 .4 1.1.9 0 .6-.4 1-.9 1.1h-.1c-.5 0-1-.4-1-.9zm9 .9c-.5 0-1-.5-.9-1.1 0-.6.5-1 1.1-.9.6 0 1 .5.9 1.1-.1.5-.5.9-1.1.9zm-5-1.1c0-.6.5-1 1-1 .6 0 1 .4 1 1 0 .5-.4 1-1 1-.5 0-1-.4-1-1zM139.8 109.5c-.3 0-.5-.1-.7-.3-.2-.2-.3-.4-.3-.7 0-.3.1-.5.3-.7.3-.3.7-.4 1.1-.2.1.1.2.1.3.2.2.2.3.4.3.7 0 .3-.1.5-.3.7-.1.1-.2.2-.3.2-.1.1-.2.1-.4.1z"/></g><g><circle class="fjst6" cx="25.4" cy="22.5" r="4"/></g><g><path class="fjst1" d="M30.4 177.5c-3.3 0-6-2.7-6-6s2.7-6 6-6 6 2.7 6 6-2.7 6-6 6zm0-10c-2.2 0-4 1.8-4 4s1.8 4 4 4 4-1.8 4-4-1.8-4-4-4z"/></g><g><circle class="fjst2" cx="57.4" cy="182.5" r="4"/></g><g><path class="fjst1" d="M143.4.5h2v4h-2zM143.4 10.5h2v4h-2z"/><g><path class="fjst1" d="M147.4 6.5h4v2h-4zM137.4 6.5h4v2h-4z"/></g></g><g><path class="fjst1" d="M173.4 158.5h2v4h-2zM173.4 168.5h2v4h-2z"/><g><path class="fjst1" d="M177.4 164.5h4v2h-4zM167.4 164.5h4v2h-4z"/></g></g><g><path class="fjst1" d="M17.4 88.5h2v4h-2zM17.4 98.5h2v4h-2z"/><g><path class="fjst1" d="M21.4 94.5h4v2h-4zM11.4 94.5h4v2h-4z"/></g></g><g><path class="fjst1" d="M8.4 67.5c-2.2 0-4-1.8-4-4s1.8-4 4-4 4 1.8 4 4-1.8 4-4 4zm0-6c-1.1 0-2 .9-2 2s.9 2 2 2 2-.9 2-2-.9-2-2-2z"/></g><g><path class="fjst4" d="M93.4 100.6c5.5 0 10.7-1.4 15.1-4 0 0 1.9-1.2 2-1.3 3.4-1.5 6.5-3.6 9.2-6.2l3.7-3.7c.7-.7.8-2 .1-2.8-.8-.8-2-.9-2.8-.2l3-3c.7-.7.9-2 .2-2.8-.8-.9-2.2-1-3-.1l-5.3 5.3 6.4-6.4 1.6.8c.5-2.1.7-4.4.7-6.6 0-5.5-1.4-10.7-4-15.1 0 0-1.2-1.9-1.3-2-1.5-3.4-3.6-6.5-6.2-9.2l-3.7-3.7c-.7-.7-2-.8-2.8-.1-.8.8-.9 2-.2 2.8l-3-3c-.7-.7-2-.9-2.8-.2-.9.8-1 2.2-.1 3l5.3 5.3-6.4-6.4.9-1.6c-2.2-.5-4.4-.7-6.7-.7-5.5 0-10.7 1.4-15.1 4 0 0-1.9 1.2-2 1.3-3.4 1.5-6.5 3.6-9.2 6.2l-3.7 3.7c-.7.7-.8 2-.1 2.8.7.8 2 .9 2.8.2l-3 3c-.7.7-.9 2-.2 2.8.8.9 2.2 1 3 .1l5.3-5.3-6.3 6.3-1.7-.9c-.5 2.2-.7 4.4-.7 6.7 0 5.5 1.4 10.7 4 15.1 0 0 1.2 1.9 1.3 2 1.5 3.4 3.6 6.5 6.2 9.2l3.7 3.7c.7.7 2 .8 2.8.1.8-.8.9-2 .2-2.8l3 3c.7.7 2 .9 2.8.2.9-.8 1-2.2.1-3l-5.3-5.3 6.3 6.3m15.2-47.9l-5.4-5.4-.2-.2 5.6 5.6zm-34 15.4zm15.4 23.3l5.4 5.4.1.1-5.5-5.5zm22.6-9.7l.6-.6-.6.6zm2.4-2.4c.8-.8.8-2.1 0-2.8-.8-.8-2.1-.8-2.9 0l-1.9 1.9c-1.9 1.8-2.5 3.4-2.5 5.4l-.3 4.1c0 .4.3 3.9-2.3 4.4 0 0-.5.2-1 .3-1.5.4-3.1.5-4.7.5-.6 0-1.2 0-1.8-.1L84 82.8l2.4 2.4c.8.8 2.1.8 2.8 0 .8-.8.8-2.1 0-2.9l-1.9-1.9c-1.8-1.9-3.4-2.5-5.4-2.5l-4.1-.3c-.4 0-3.9.3-4.4-2.3 0 0-.2-.5-.3-1-.4-1.5-.5-3.1-.5-4.7 0-.4 0-1.4.1-1.9l7.7-7.7-2.4 2.4c-.8.8-.8 2.1 0 2.8.8.8 2.1.8 2.9 0l1.9-1.9c1.9-1.8 2.5-3.4 2.5-5.4l.3-4.1c0-.4-.3-3.9 2.3-4.4 0 0 .5-.2 1-.3 1.5-.4 3.1-.5 4.7-.5h1.5l.1-.3 8 8-2.4-2.4c-.8-.8-2.1-.8-2.8 0-.8.8-.8 2.1 0 2.9l1.9 1.9c1.8 1.9 3.4 2.5 5.4 2.5l4.1.3c.4 0 3.9-.3 4.4 2.3 0 0 .2.5.3 1 .4 1.5.5 3.1.5 4.7 0 .6 0 1.3-.1 1.9l-5.4 5.4zm9-3.3c.1 0 .1-.1 0 0z"/><path class="fjst1" d="M125.4 69.5h-2c0-5.1-1.3-10.2-3.8-14.7-1.2-2-1.3-2-1.3-2.1-1.5-3.3-3.5-6.3-6-8.9l-3.7-3.7c-.4-.4-1.1-.4-1.4-.1-.2.2-.3.4-.3.7 0 .2.1.4.2.6l2.2 2.3-1.4 1.4-2.1-2.1-.2-.2-2.9-2.9c-.4-.4-1-.5-1.4-.1-.2.2-.4.5-.4.7 0 .3.1.6.3.8l5.3 5.3-1.4 1.4-6.5-6.5c-.4-.4-1.1-.4-1.4-.1-.2.2-.4.5-.4.8 0 .3.1.6.3.7L98 44l5.4 5.4-1.4 1.4-5.4-5.4c-.4-.4-1-.4-1.4-.1-.3.2-.4.5-.4.8 0 .3.1.6.3.8l8.7 8.7-1.4 1.4-2.4-2.4c-.4-.4-1-.4-1.4 0-.2.2-.3.4-.3.7 0 .3.1.5.3.7l1.9 1.9c1.6 1.6 2.8 2.2 4.7 2.2l4.2.3c4.1-.1 5.1 1.9 5.3 3.1 0 0 .2.5.3 1l-1.9.5c-.1-.5-.3-1-.3-1-.2-1.2-1.3-1.7-3.3-1.6h-.1l-4.2-.3c-2.3 0-4.1-.8-6-2.8l-1.9-1.9c-.6-.6-.9-1.3-.9-2.1s.3-1.6.9-2.1c.3-.3.5-.4.8-.6l-4.3-4.3c-.6-.6-.9-1.5-.9-2.4.1-.9.5-1.7 1.2-2.2.2-.2.5-.3.8-.4-.2-.4-.2-.8-.2-1.3 0-.9.4-1.7 1.1-2.3.9-.8 2.2-.9 3.3-.4.2-.5.5-.9.9-1.2 1.2-1 3-.9 4.1.3l1.1 1.1c.2-.3.4-.6.7-.9 1.2-1.1 3.1-1 4.2.2l3.7 3.7c2.7 2.7 4.9 5.9 6.5 9.5.1.1 1.2 1.9 1.2 1.9 2.5 4.7 3.9 10.1 3.9 15.6zM85 101.4c-.8 0-1.6-.3-2.2-.9l-1.1-1.1c-.2.3-.4.6-.7.9-1.2 1.1-3 1-4.2-.2l-3.7-3.7c-2.7-2.7-4.9-5.9-6.5-9.5-.1-.1-1.2-1.9-1.2-1.9-2.7-4.8-4.1-10.2-4.1-15.7h2c0 5.1 1.3 10.2 3.8 14.7 1.2 2 1.3 2 1.3 2.1 1.5 3.3 3.5 6.3 6 8.9l3.7 3.7c.4.4 1.1.4 1.4.1.2-.2.3-.4.3-.7 0-.2-.1-.4-.2-.6l-2.2-2.3 1.4-1.4 2.1 2.1.2.2L84 99c.4.4 1 .5 1.4.1.2-.2.4-.5.4-.7 0-.3-.1-.6-.3-.8l-5.3-5.3 1.4-1.4 5.3 5.3 1.3 1.3c.4.4 1.1.4 1.4.1.2-.2.4-.5.4-.8 0-.3-.1-.6-.3-.7l-1.2-1.2-5.4-5.4 1.4-1.4 5.4 5.4c.4.4 1 .5 1.4.2.3-.2.4-.5.4-.8 0-.3-.1-.6-.3-.8l-8.7-8.7 1.4-1.4 2.4 2.4c.4.4 1 .4 1.4 0 .2-.2.3-.4.3-.7 0-.3-.1-.5-.3-.7l-1.5-2c-1.6-1.6-2.8-2.2-4.7-2.2l-4.2-.3c-4.1.1-5.1-1.9-5.3-3.1 0 0-.2-.5-.3-1l1.9-.5c.1.5.3 1 .3 1 .2 1.2 1.3 1.7 3.3 1.6h.1l4.2.3c2.3 0 4.1.8 6 2.8l1.9 1.9c.6.6.9 1.3.9 2.1s-.3 1.6-.9 2.1c-.2.2-.5.4-.8.6l4.3 4.3c.6.6.9 1.5.9 2.4-.1.9-.5 1.7-1.2 2.2-.2.2-.5.3-.8.4.2.4.2.8.2 1.3 0 .9-.4 1.7-1.1 2.3-.9.8-2.2.9-3.3.4-.2.5-.5.9-.9 1.2-.5.4-1.2.6-1.9.6zM70.1 70.1h-.2c-.9-.1-1.7-.5-2.2-1.2-.2-.2-.3-.5-.4-.8-.4.2-.8.2-1.3.2-.9 0-1.7-.4-2.3-1.1-.8-.9-.9-2.2-.4-3.3-.5-.2-.9-.5-1.2-.9-1-1.2-.9-3 .3-4.1l1.1-1.1c-.3-.2-.6-.4-.9-.7-1.1-1.2-1-3 .2-4.2l3.7-3.7c2.7-2.7 5.9-4.9 9.5-6.5.1-.1 1.9-1.2 1.9-1.2 4.8-2.7 10.2-4.1 15.7-4.1v2c-5.1 0-10.2 1.3-14.7 3.8-2 1.2-2 1.3-2.1 1.3-3.3 1.5-6.3 3.5-8.9 6l-3.7 3.7c-.4.4-.4 1.1-.1 1.4.2.2.4.3.7.3.2 0 .4-.1.6-.2l2.3-2.2 1.4 1.4L67 57l-.2.2-2.9 2.9c-.4.4-.5 1-.1 1.4.2.2.5.4.7.4.3 0 .6-.1.8-.3l5.3-5.3 1.4 1.4-6.5 6.5c-.4.4-.4 1.1-.1 1.4.2.2.5.4.8.4.3 0 .6-.1.7-.3l6.6-6.6 1.4 1.4-5.4 5.4c-.4.4-.5 1-.2 1.4.2.3.5.4.8.4.3 0 .6-.1.8-.3l8.7-8.7 1.4 1.4-2.4 2.4c-.2.2-.3.4-.3.7 0 .3.1.5.3.7.2.2.4.3.7.3.3 0 .5-.1.7-.3l1.9-1.9c1.6-1.6 2.2-2.8 2.2-4.7l.3-4.2c-.1-4.1 1.9-5.1 3.1-5.3 0 0 .5-.2 1-.3l.5 1.9c-.5.1-1 .3-1 .3-1.2.2-1.7 1.3-1.6 3.3v.1l-.4 4.7c0 2.3-.8 4.1-2.8 6l-1.9 1.9c-.6.6-1.3.9-2.1.9s-1.6-.3-2.1-.9c-.3-.3-.4-.5-.6-.8l-4.3 4.3c-.6.6-1.3.9-2.1.9zM93.4 101.5v-2c5.1 0 10.2-1.3 14.6-3.9 2-1.2 2-1.3 2.1-1.3 3.3-1.5 6.3-3.5 8.9-6l3.7-3.7c.4-.4.4-1.1.1-1.4-.2-.2-.4-.3-.7-.3-.2 0-.4.1-.6.2l-2.3 2.2-1.4-1.4 2.1-2.1.2-.2 2.9-2.9c.4-.4.5-1 .1-1.4-.2-.2-.5-.4-.7-.4-.3 0-.6.1-.8.3l-5.3 5.3L115 81l6.5-6.5c.4-.4.4-1.1.1-1.4-.2-.2-.5-.4-.8-.4-.3 0-.6.1-.7.3l-1.2 1.2-5.4 5.4-1.4-1.4 5.4-5.4c.4-.4.4-1 .1-1.4-.2-.3-.5-.4-.8-.4-.3 0-.6.1-.8.3l-6.3 6.3-2.4 2.4-1.4-1.4 2.4-2.4c.4-.4.4-1 0-1.4-.2-.2-.4-.3-.7-.3-.3 0-.5.1-.7.3l-1.9 1.9c-1.6 1.6-2.2 2.8-2.2 4.7l-.3 4.2c.1 4.1-1.9 5.1-3.1 5.3 0 0-.5.2-1 .3l-.5-2.2c.5-.1 1-.3 1-.3 1.2-.2 1.7-1.3 1.6-3.3v-.1l.3-4.2c0-2.3.8-4.1 2.8-6l1.9-1.9c.6-.6 1.3-.9 2.1-.9s1.6.3 2.1.9c.2.2.4.5.6.8l4.3-4.3c.6-.6 1.5-.9 2.4-.9.9.1 1.7.5 2.2 1.2.2.2.3.5.4.8.4-.2.8-.2 1.3-.2.9 0 1.7.4 2.3 1.1.8.9.9 2.2.4 3.3.5.2.9.5 1.2.9 1 1.2.9 3-.3 4.1l-1.1 1.1c.3.2.6.4.9.7 1.1 1.2 1 3-.2 4.2l-3.7 3.7c-2.7 2.7-5.9 4.9-9.5 6.5-.1.1-1.9 1.2-1.9 1.2-4.8 2.7-10.2 4.1-15.6 4.1z"/></g><g><path class="fjst5" d="M153.4 169.5h-45.6l-10.8-5 10.8-5h45.6c2.8 0 5 2.2 5 5s-2.2 5-5 5zm-45.2-2h45.2c1.7 0 3-1.3 3-3s-1.3-3-3-3h-45.2l-6.5 3 6.5 3z"/><path class="fjst5" d="M145.8 160.9h2v7.6h-2z"/><g><path class="fjst5" d="M108.8 163.5h38v2h-38z"/></g></g><g><path class="fjst1" d="M123.4 178.5h2v4h-2zM123.4 188.5h2v4h-2z"/><g><path class="fjst1" d="M127.4 184.5h4v2h-4zM117.4 184.5h4v2h-4z"/></g></g><g><circle class="fjst6" cx="173.4" cy="58.5" r="4"/></g><g><path class="fjst1" d="M90.6 176.5h2v8h-2z"/></g><g><path class="fjst1" d="M96.6 176.5h2v8h-2z"/></g><g><path class="fjst1" d="M91.6 188.5c-.6 0-1-.4-1-1s.4-1 1-1 1 .4 1 1-.4 1-1 1z"/></g><g><path class="fjst1" d="M97.6 188.5c-.6 0-1-.4-1-1s.4-1 1-1 1 .4 1 1-.4 1-1 1z"/></g><g><path class="fjst1" d="M91.6 192.5c-.6 0-1-.4-1-1s.4-1 1-1 1 .4 1 1-.4 1-1 1z"/></g><g><path class="fjst1" d="M97.6 192.5c-.6 0-1-.4-1-1s.4-1 1-1 1 .4 1 1-.4 1-1 1z"/></g></g></svg>