<?xml version="1.0" encoding="utf-8"?><svg id="ggLayer_1" xmlns="http://www.w3.org/2000/svg" xmlns:xlink="http://www.w3.org/1999/xlink" viewBox="0 0 193 193" width="193" height="193"><style>.ggst0{clip-path:url(#ggSVGID_2_)}.ggst1{fill:#ffd15d}.ggst2{fill:#f58e70}.ggst3{fill:#48515a}.ggst4{fill:#5fe0ed}.ggst5{fill:#dededd}.ggst6{fill:#475059}</style><defs><path id="ggSVGID_1_" d="M0 0h193v193H0z"/></defs><clipPath id="ggSVGID_2_"><use xlink:href="#ggSVGID_1_" overflow="visible"/></clipPath><g class="ggst0"><path class="ggst1" d="M97.4 97.6v90c15.8-.2 30.6-4.4 43.5-11.6l1.9-1.1c4.2-2.5 8.2-5.3 11.9-8.4L144.2 141l24.8 10.6c2.1-2.7 4-5.6 5.8-8.5l1.1-1.9c7.2-12.9 11.5-27.7 11.6-43.5H97.4z"/><path class="ggst2" d="M148.6 65.3a59.76 59.76 0 0 0-20.9-20.9L99.1 93.9l49.5-28.6z"/><path class="ggst3" d="M157.7 95.6h-57.6L150 66.8l.5.9c4.5 8.2 7 17.5 7.2 26.9v1zm-50.1-2h48.1c-.4-8.4-2.6-16.6-6.4-24l-41.7 24zM31.6 62.5c-.3 0-.5-.1-.7-.3-.2-.2-.3-.4-.3-.7 0-.1 0-.3.1-.4 0-.1.1-.2.2-.3.4-.4 1-.4 1.4 0 .1.1.2.2.2.3 0 .1.1.3.1.4 0 .3-.1.5-.3.7-.1.2-.4.3-.7.3zM28.9 128.5c-.2-.5 0-1.1.5-1.3.5-.2 1.1 0 1.3.5.2.5 0 1.1-.5 1.3-.1.1-.3.1-.4.1-.4-.1-.7-.3-.9-.6zm-1.7-3.8c-.2-.5 0-1.1.5-1.3.5-.2 1.1 0 1.3.5.2.5 0 1.1-.5 1.3-.1.1-.2.1-.4.1-.4 0-.7-.2-.9-.6zm-1.4-3.9c-.2-.5.1-1.1.6-1.3.5-.2 1.1.1 1.3.6.2.5-.1 1.1-.6 1.3h-.3c-.5.1-.9-.2-1-.6zm-1.3-3.9c-.1-.5.2-1.1.7-1.2.5-.2 1.1.2 1.2.7.1.5-.2 1.1-.7 1.2h-.3c-.3 0-.7-.3-.9-.7zm-1-4c-.1-.5.2-1.1.8-1.2.5-.1 1.1.2 1.2.8.1.5-.2 1.1-.8 1.2h-.2c-.5 0-.9-.3-1-.8zm-.8-4c-.1-.5.3-1.1.8-1.2.5-.1 1.1.3 1.2.8.1.5-.3 1.1-.8 1.2h-.2c-.5 0-.9-.3-1-.8zm-.5-4.1c-.1-.5.3-1 .9-1.1.5-.1 1 .3 1.1.9.1.5-.3 1-.9 1.1h-.1c-.5 0-1-.4-1-.9zm-.4-4.1c0-.5.4-1 .9-1s1 .4 1.1.9c0 .6-.4 1-.9 1.1h-.1c-.5-.1-.9-.5-1-1zm-.1-4.1c0-.6.5-1 1-1 .6 0 1 .4 1 1 0 .5-.4 1-1 1-.5 0-1-.5-1-1zm1.1-3.1c-.5 0-1-.5-.9-1.1 0-.5.5-1 1.1-.9.5 0 1 .5.9 1-.1.6-.6 1-1.1 1zm.3-4c-.5-.1-1-.6-.9-1.1.1-.5.6-.9 1.1-.9.5.1.9.5.9 1.1-.1.5-.5.9-1 .9h-.1zm.5-4.1c-.5-.1-.9-.6-.8-1.2.1-.5.6-.9 1.2-.8.5.1.9.6.8 1.1-.1.5-.5.8-1 .8-.1.1-.2.1-.2.1zm.7-4c-.5-.1-.9-.7-.8-1.2.1-.5.7-.9 1.2-.8.5.1.9.7.8 1.2-.1.5-.5.8-1 .8-.1.1-.1 0-.2 0zm.9-3.9c-.5-.1-.8-.7-.7-1.2.1-.5.7-.8 1.2-.7.5.2.8.7.7 1.2-.1.4-.5.7-1 .7h-.2zm1.2-3.9c-.5-.2-.8-.8-.6-1.3.2-.5.8-.8 1.3-.6.5.2.8.8.6 1.3-.1.4-.5.7-1 .7-.1-.1-.2-.1-.3-.1zm1.4-3.8c-.5-.2-.8-.8-.5-1.3.2-.5.8-.8 1.3-.5.5.2.8.8.5 1.3-.2.4-.5.6-.9.6-.2-.1-.3-.1-.4-.1zm1.6-3.8c-.5-.2-.7-.8-.5-1.3.2-.5.8-.7 1.3-.5.5.2.7.8.5 1.3-.2.4-.5.6-.9.6-.2 0-.3 0-.4-.1zM31.6 132.7c-.1 0-.3 0-.4-.1-.1 0-.2-.1-.3-.2-.1-.1-.2-.2-.2-.3-.1-.1-.1-.2-.1-.4 0-.1 0-.3.1-.4 0-.1.1-.2.2-.3.4-.4 1-.4 1.4 0 .1.1.2.2.2.3 0 .1.1.2.1.4 0 .1 0 .3-.1.4 0 .1-.1.2-.2.3-.1.1-.2.2-.3.2s-.2.1-.4.1zM34.1 130.2c-.3-.5-.1-1.1.4-1.4.5-.3 1.1-.1 1.4.4.3.5.1 1.1-.4 1.4-.2.1-.3.1-.5.1-.3 0-.7-.2-.9-.5zm3.4-1.9c-.3-.5-.1-1.1.4-1.4.5-.3 1.1-.1 1.4.4.3.5.1 1.1-.4 1.4-.2.1-.3.1-.5.1-.4 0-.7-.2-.9-.5zm3.4-2c-.3-.5-.1-1.1.4-1.4.5-.3 1.1-.1 1.4.4.3.5.1 1.1-.4 1.4-.2.1-.3.1-.5.1-.4 0-.7-.2-.9-.5zm3.4-1.9c-.3-.5-.1-1.1.4-1.4.5-.3 1.1-.1 1.4.4.3.5.1 1.1-.4 1.4-.2.1-.3.1-.5.1-.4 0-.8-.2-.9-.5zm3.3-2c-.3-.5-.1-1.1.4-1.4.5-.3 1.1-.1 1.4.4.3.5.1 1.1-.4 1.4-.2.1-.3.1-.5.1-.3 0-.7-.2-.9-.5zm3.4-1.9c-.3-.5-.1-1.1.4-1.4.5-.3 1.1-.1 1.4.4.3.5.1 1.1-.4 1.4-.2.1-.3.1-.5.1-.4 0-.7-.2-.9-.5zm3.4-2c-.3-.5-.1-1.1.4-1.4.5-.3 1.1-.1 1.4.4.3.5.1 1.1-.4 1.4-.2.1-.3.1-.5.1-.4 0-.7-.2-.9-.5zm3.4-1.9c-.3-.5-.1-1.1.4-1.4.5-.3 1.1-.1 1.4.4.3.5.1 1.1-.4 1.4-.2.1-.3.1-.5.1-.4 0-.8-.2-.9-.5zm3.3-2c-.3-.5-.1-1.1.4-1.4.5-.3 1.1-.1 1.4.4.3.5.1 1.1-.4 1.4-.1.1-.3.1-.5.1-.3 0-.7-.2-.9-.5zm3.4-1.9c-.3-.5-.1-1.1.4-1.4.5-.3 1.1-.1 1.4.4.3.5.1 1.1-.4 1.4-.2.1-.3.1-.5.1-.4 0-.7-.2-.9-.5zm3.4-2c-.3-.5-.1-1.1.4-1.4.5-.3 1.1-.1 1.4.4.3.5.1 1.1-.4 1.4-.2.1-.3.1-.5.1-.4 0-.7-.2-.9-.5zm3.4-1.9c-.3-.5-.1-1.1.4-1.4.5-.3 1.1-.1 1.4.4.3.5.1 1.1-.4 1.4-.2.1-.3.1-.5.1-.4 0-.8-.2-.9-.5zm3.3-2c-.3-.5-.1-1.1.4-1.4.5-.3 1.1-.1 1.4.4.3.5.1 1.1-.4 1.4-.2.1-.3.1-.5.1-.4 0-.7-.2-.9-.5zm3.4-1.9c-.3-.5-.1-1.1.4-1.4.5-.3 1.1-.1 1.4.4.3.5.1 1.1-.4 1.4-.2.1-.3.1-.5.1-.4 0-.7-.2-.9-.5zm3.4-2c-.3-.5-.1-1.1.4-1.4.5-.3 1.1-.1 1.4.4.3.5.1 1.1-.4 1.4-.1.1-.3.1-.5.1-.4 0-.7-.2-.9-.5zm3.3-1.9c-.3-.5-.1-1.1.4-1.4.5-.3 1.1-.1 1.4.4.3.5.1 1.1-.4 1.4-.2.1-.3.1-.5.1-.3 0-.7-.2-.9-.5zm3.4-2c-.3-.5-.1-1.1.4-1.4.5-.3 1.1-.1 1.4.4.3.5.1 1.1-.4 1.4-.1.1-.3.1-.5.1-.4 0-.7-.2-.9-.5zM92.4 97.6c-.3 0-.5-.1-.7-.3-.2-.2-.3-.4-.3-.7 0-.3.1-.5.3-.7 0 0 .1-.1.2-.1s.1-.1.2-.1.1-.1.2-.1c.3-.1.7 0 .9.3.1.1.2.2.2.3.1.1.1.2.1.4 0 .1 0 .3-.1.4 0 .1-.1.2-.2.3-.1.1-.2.2-.3.2-.3 0-.4.1-.5.1zM88.5 95.5c-.5-.3-.6-.9-.4-1.4.3-.5.9-.6 1.4-.4.5.3.7.9.4 1.4-.2.3-.5.5-.9.5-.2 0-.4 0-.5-.1zm-3.4-2c-.5-.3-.6-.9-.4-1.4.3-.5.9-.6 1.4-.4.5.3.6.9.4 1.4-.2.3-.5.5-.9.5-.2.1-.3 0-.5-.1zm-3.4-1.9c-.5-.3-.6-.9-.4-1.4.3-.5.9-.6 1.4-.4.5.3.7.9.4 1.4-.2.3-.5.5-.9.5-.1 0-.3 0-.5-.1zm-3.3-2c-.5-.3-.6-.9-.4-1.4.3-.5.9-.6 1.4-.4.5.3.6.9.4 1.4-.2.3-.5.5-.9.5-.2.1-.4 0-.5-.1zM75 87.7c-.5-.3-.6-.9-.4-1.4.3-.5.9-.6 1.4-.4.5.3.6.9.4 1.4-.2.3-.5.5-.9.5-.2 0-.4 0-.5-.1zm-3.4-2c-.5-.3-.6-.9-.4-1.4.3-.5.9-.6 1.4-.4.5.3.7.9.4 1.4-.2.3-.5.5-.9.5-.2.1-.3 0-.5-.1zm-3.4-1.9c-.5-.3-.6-.9-.4-1.4.3-.5.9-.6 1.4-.4.5.3.6.9.4 1.4-.2.3-.5.5-.9.5-.1 0-.3 0-.5-.1zm-3.3-1.9c-.5-.3-.7-.9-.4-1.4.3-.5.9-.6 1.4-.4.5.3.6.9.4 1.4-.2.3-.5.5-.9.5-.2 0-.4-.1-.5-.1zm-3.4-2c-.5-.3-.6-.9-.4-1.4.3-.5.9-.7 1.4-.4.5.3.6.9.4 1.4-.2.4-.6.5-.9.5-.2 0-.3 0-.5-.1zM58.1 78c-.5-.3-.6-.9-.4-1.4.3-.5.9-.6 1.4-.4.5.3.6.9.4 1.4-.2.3-.5.5-.9.5-.1 0-.3-.1-.5-.1zm-3.4-2c-.5-.3-.6-.9-.4-1.4.3-.5.9-.6 1.4-.4.5.3.7.9.4 1.4-.2.3-.5.5-.9.5-.1 0-.3 0-.5-.1zm-3.3-1.9c-.5-.3-.6-.9-.4-1.4.3-.5.9-.6 1.4-.4.5.3.6.9.4 1.4-.2.3-.5.5-.9.5-.2 0-.4 0-.5-.1zm-3.4-2c-.5-.3-.6-.9-.4-1.4.3-.5.9-.6 1.4-.4.5.3.6.9.4 1.4-.2.3-.5.5-.9.5-.2 0-.3 0-.5-.1zm-3.4-1.9c-.5-.3-.6-.9-.4-1.4.3-.5.9-.6 1.4-.4.5.3.6.9.4 1.4-.2.3-.5.5-.9.5-.1 0-.3 0-.5-.1zm-3.3-2c-.5-.3-.6-.9-.4-1.4.3-.5.9-.6 1.4-.4.5.3.6.9.4 1.4-.2.3-.5.5-.9.5-.2.1-.4 0-.5-.1zm-3.4-1.9c-.5-.3-.6-.9-.4-1.4.3-.5.9-.6 1.4-.4.5.3.6.9.4 1.4-.2.3-.5.5-.9.5-.2 0-.4 0-.5-.1zm-3.4-2c-.5-.3-.6-.9-.4-1.3.3-.5.9-.6 1.4-.4.5.3.6.9.4 1.4-.2.3-.5.5-.9.5-.2 0-.3-.1-.5-.2z"/><path class="ggst4" d="M96.9 11.6h-2.1c-14.7.2-28.6 4.1-40.6 10.9l-1.8 1C40.3 30.8 30 41 22.8 53.2l70.3 40.6 2.1 1.4 1.7-2.4 40.6-70.3c-12-6.8-25.8-10.7-40.6-10.9zM61.1 69.7c-.9.9-2.3.9-3.2 0-.9-.9-.9-2.3 0-3.2l18-18 3.2 3.2-18 18z"/><path class="ggst3" d="M158.4 143.1c-.4-.3-.5-1-.2-1.4.3-.4 1-.5 1.4-.2.4.3.5 1 .2 1.4-.2.3-.5.4-.8.4-.2 0-.4-.1-.6-.2zm2.3-3.3c-.5-.3-.6-.9-.3-1.4.3-.5.9-.6 1.4-.3.5.3.6.9.3 1.4-.2.3-.5.5-.8.5-.2 0-.4-.1-.6-.2zm2.2-3.3c-.5-.3-.6-.9-.4-1.4.3-.5.9-.6 1.4-.4.5.3.6.9.4 1.4-.2.3-.5.5-.9.5-.2 0-.4 0-.5-.1zm1.9-3.5c-.5-.2-.7-.8-.4-1.3.3-.5.9-.7 1.4-.4.5.3.7.9.4 1.4-.2.3-.5.5-.9.5-.2-.1-.3-.1-.5-.2zm1.8-3.6c-.5-.2-.7-.8-.5-1.3.2-.5.8-.7 1.3-.5.5.2.7.8.5 1.3-.2.4-.5.6-.9.6-.1 0-.2 0-.4-.1zm1.6-3.7c-.5-.2-.8-.8-.6-1.3.2-.5.8-.8 1.3-.6.5.2.8.8.6 1.3-.2.4-.5.6-.9.6-.1.1-.3.1-.4 0zm1.4-3.7c-.5-.2-.8-.7-.6-1.3.2-.5.7-.8 1.3-.6.5.2.8.7.6 1.3-.1.4-.5.7-1 .7-.1-.1-.2-.1-.3-.1zm1.2-3.8c-.5-.2-.8-.7-.7-1.2.1-.5.7-.8 1.2-.7.5.1.9.7.7 1.2-.1.4-.5.7-1 .7h-.2zm1.1-3.9c-.5-.1-.9-.6-.8-1.2.1-.5.6-.9 1.2-.8.5.1.9.7.8 1.2-.1.5-.5.8-1 .8h-.2zm.8-3.9c-.5-.1-.9-.6-.8-1.2.1-.5.6-.9 1.1-.8.5.1.9.6.8 1.1-.1.5-.5.8-1 .8 0 .1-.1.1-.1.1zm.6-4c-.5-.1-.9-.6-.9-1.1.1-.6.6-.9 1.1-.9.6.1.9.6.9 1.1-.1.5-.5.9-1 .9h-.1zm.4-3.9c-.6 0-1-.5-.9-1.1 0-.6.5-1 1.1-.9.5 0 1 .5.9 1.1-.1.4-.5.9-1.1.9zm.2-4c-.5 0-1-.5-1-1s.5-1 1-1 1 .5 1 1-.5 1-1 1zm-1.1-5c0-.6.4-1 1-1s1 .4 1 1-.4 1-1 1c-.5 0-1-.5-1-1zm-.2-3.9c0-.5.4-1 .9-1.1.5 0 1 .4 1.1.9 0 .5-.4 1-.9 1.1h-.1c-.6 0-1-.4-1-.9zm-.5-4c-.1-.5.3-1 .8-1.1.5-.1 1.1.3 1.1.8.1.6-.3 1.1-.9 1.1h-.1c-.4.1-.8-.3-.9-.8zm-.7-3.9c-.1-.5.2-1.1.8-1.2.5-.1 1.1.2 1.2.8.1.5-.2 1.1-.8 1.2h-.2c-.4.1-.9-.3-1-.8zm-.8-3.8c-.1-.5.2-1.1.7-1.2.5-.1 1.1.2 1.2.7.1.5-.2 1.1-.7 1.2h-.2c-.5 0-.9-.3-1-.7zm-1.1-3.8c-.2-.5.1-1.1.7-1.2.5-.2 1.1.1 1.2.7.2.5-.1 1.1-.7 1.2h-.3c-.4 0-.7-.3-.9-.7zm-1.2-3.8c-.2-.5.1-1.1.6-1.3.5-.2 1.1.1 1.3.6.2.5-.1 1.1-.6 1.3-.1 0-.2.1-.3.1-.5 0-.9-.2-1-.7zm-1.5-3.6c-.2-.5 0-1.1.5-1.3.5-.2 1.1 0 1.3.5.2.5 0 1.1-.5 1.3-.1.1-.3.1-.4.1-.3 0-.7-.2-.9-.6zm-1.6-3.6c-.2-.5 0-1.1.5-1.3.5-.2 1.1 0 1.3.5.2.5 0 1.1-.5 1.3-.1.1-.3.1-.4.1-.4-.1-.7-.3-.9-.6zm-1.8-3.5c-.3-.5-.1-1.1.4-1.4.5-.3 1.1-.1 1.4.4.3.5.1 1.1-.4 1.4-.2.1-.3.1-.5.1-.4 0-.8-.2-.9-.5zm-2-3.4c-.3-.5-.1-1.1.3-1.4.5-.3 1.1-.1 1.4.3.3.5.2 1.1-.3 1.4-.2.1-.3.2-.5.2-.4 0-.7-.2-.9-.5zm-2.2-3.3c-.3-.5-.2-1.1.2-1.4.5-.3 1.1-.2 1.4.2.3.5.2 1.1-.2 1.4-.2.1-.4.2-.6.2-.3 0-.6-.1-.8-.4zm-2.3-3.2c-.3-.4-.3-1.1.2-1.4.4-.3 1.1-.3 1.4.2.3.4.3 1.1-.2 1.4-.2.1-.4.2-.6.2-.4 0-.7-.1-.8-.4zm-2.5-3c-.4-.4-.3-1.1.1-1.4.4-.4 1-.3 1.4.1.4.4.3 1-.1 1.4-.2.2-.4.2-.7.2-.3 0-.6-.1-.7-.3zm-2.7-3c-.4-.4-.4-1 0-1.4.4-.4 1-.4 1.4 0 .4.4.4 1 0 1.4-.2.2-.4.3-.7.3-.2 0-.5-.1-.7-.3zm-2.8-2.8c-.4-.4-.4-1 0-1.4.4-.4 1-.4 1.4 0 .4.4.4 1 0 1.4-.2.2-.5.3-.7.3-.3 0-.5-.1-.7-.3zM43.4 40c-.4-.4-.3-1 .1-1.4.4-.4 1-.3 1.4.1.4.4.3 1-.1 1.4-.2.2-.4.3-.7.3-.2-.1-.5-.2-.7-.4zM146 38.3c-.4-.4-.5-1-.1-1.4.3-.4 1-.5 1.4-.1.4.3.5 1 .1 1.4-.2.2-.5.3-.8.3-.2.1-.5 0-.6-.2zm-99.6-.9c-.4-.4-.3-1.1.1-1.4.4-.4 1-.3 1.4.1.3.4.3 1-.1 1.4-.2.2-.4.2-.6.2-.3 0-.6-.1-.8-.3zm96.5-1.6c-.4-.3-.5-1-.2-1.4.3-.4 1-.5 1.4-.2.4.3.5 1 .2 1.4-.2.3-.5.4-.8.4-.2 0-.4 0-.6-.2zm-93.4-1c-.3-.4-.2-1.1.2-1.4.4-.3 1.1-.2 1.4.2.3.4.2 1.1-.2 1.4-.2.1-.4.2-.6.2-.3.1-.6-.1-.8-.4zm90.2-1.3c-.5-.3-.6-.9-.2-1.4.3-.5.9-.6 1.4-.3.5.3.6.9.2 1.4-.2.3-.5.4-.8.4-.2.1-.4 0-.6-.1zm-87-1c-.3-.5-.2-1.1.3-1.4.5-.3 1.1-.2 1.4.3.3.5.2 1.1-.3 1.4-.1.1-.3.2-.5.2-.4 0-.7-.2-.9-.5zm83.7-1.1c-.5-.3-.6-.9-.3-1.4.3-.5.9-.6 1.4-.3.5.3.6.9.3 1.4-.2.3-.5.5-.9.5-.2-.1-.4-.1-.5-.2zm-80.3-1.1c-.3-.5-.1-1.1.3-1.4.5-.3 1.1-.1 1.4.3.3.5.1 1.1-.3 1.4-.2.1-.3.1-.5.1-.4.1-.7-.1-.9-.4zm76.9-.9c-.5-.3-.7-.9-.4-1.3.3-.5.9-.7 1.4-.4.5.3.7.9.4 1.3-.2.3-.5.5-.9.5-.2 0-.4 0-.5-.1zm-73.4-1.1c-.2-.5-.1-1.1.4-1.4.5-.3 1.1-.1 1.3.4.3.5.1 1.1-.4 1.3-.1.1-.3.1-.5.1-.3.2-.7 0-.8-.4zm69.8-.7c-.5-.2-.7-.8-.5-1.3.2-.5.8-.7 1.3-.5.5.2.7.8.5 1.3-.2.4-.5.6-.9.6-.1 0-.2 0-.4-.1zm-66.3-1.1c-.2-.5 0-1.1.5-1.3.5-.2 1.1 0 1.3.5.2.5 0 1.1-.5 1.3-.1.1-.3.1-.4.1-.3 0-.7-.2-.9-.6zm62.7-.5c-.5-.2-.8-.8-.5-1.3.2-.5.8-.8 1.3-.5.5.2.8.8.5 1.3-.2.4-.5.6-.9.6-.1 0-.2-.1-.4-.1zm-59-1.1c-.2-.5 0-1.1.6-1.3.5-.2 1.1 0 1.3.6.2.5 0 1.1-.6 1.3-.1 0-.2.1-.4.1-.4-.1-.8-.3-.9-.7zm55.4-.3c-.5-.2-.8-.8-.6-1.3.2-.5.8-.8 1.3-.6.5.2.8.8.6 1.3-.2.4-.5.7-.9.7-.2-.1-.3-.1-.4-.1zm-51.7-1.1c-.2-.5.1-1.1.6-1.3.5-.2 1.1.1 1.3.6.2.5-.1 1.1-.6 1.3h-.3c-.5 0-.8-.2-1-.6zm47.9-.2c-.5-.2-.8-.7-.7-1.2.2-.5.7-.8 1.2-.7.5.2.8.7.7 1.2-.1.4-.5.7-1 .7 0 .1-.1.1-.2 0zm-44.1-1.1c-.1-.5.2-1.1.7-1.2.5-.2 1.1.2 1.2.7.2.5-.2 1.1-.7 1.2h-.3c-.4.1-.8-.2-.9-.7zm40.3.1c-.5-.1-.9-.7-.7-1.2.1-.5.7-.9 1.2-.7.5.1.9.7.7 1.2-.1.5-.5.8-1 .8 0-.1-.1-.1-.2-.1zm-36.4-1.1c-.1-.5.2-1.1.8-1.2.5-.1 1.1.2 1.2.8.1.5-.2 1.1-.8 1.2h-.2c-.5 0-.9-.3-1-.8zm32.5.3c-.5-.1-.9-.6-.8-1.2.1-.5.6-.9 1.2-.8.5.1.9.6.8 1.2-.1.5-.5.8-1 .8h-.2zm-28.6-1.1c-.1-.6.3-1.1.8-1.2.5-.1 1.1.3 1.2.8.1.5-.3 1.1-.8 1.2h-.2c-.5 0-.9-.3-1-.8zm24.7.4c-.6-.1-.9-.6-.9-1.1.1-.6.6-.9 1.1-.9.5.1.9.6.9 1.1-.1.5-.5.9-1 .9h-.1zM86 19.7c-.1-.5.3-1 .9-1.1.5-.1 1 .3 1.1.9.1.5-.3 1-.9 1.1H87c-.5 0-.9-.4-1-.9zm16.9.7c-.6 0-1-.5-.9-1.1 0-.5.5-1 1.1-.9.5 0 1 .5.9 1.1 0 .5-.5.9-1.1.9.1 0 0 0 0 0zM90 19.3c0-.5.4-1 .9-1.1.5 0 1 .4 1.1.9 0 .5-.4 1-.9 1.1H91c-.5 0-1-.4-1-.9zm9 .8c-.6 0-1-.5-1-1s.5-1 1-1 1 .5 1 1c0 .6-.5 1-1 1zm-5-1c0-.6.4-1 1-1s1 .4 1 1c0 .5-.4 1-1 1-.5 0-1-.5-1-1z"/><path class="ggst5" d="M182.2 162.9l-15.6-6.6-2.7 1.6 8.2 8.2-2.8 2.8-8.1-8.1-1.6 3.3 6.8 16.4 4.8-9.7 7.1 7.1 2.9-2.7-7.3-7.3z"/><path class="ggst3" d="M156.3 173l-14-33.9 32.1 13.7-8.8 5.3 8 8-4.2 4.2-7.8-7.8-5.3 10.5zM146 142.8l10.5 25.3 4.5-9 8.4 8.4 1.4-1.4-8.4-8.4 7.7-4.6-24.1-10.3z"/><path class="ggst2" d="M93.8 99.3l-60.7 35c3 5.1 6.7 9.8 10.8 14 2.3-1.2 4.9-1.9 7.7-2.1 2.9-.1 5.6.4 8 1.5l10.3-2.1-1.7 10.1c1.3 2.4 2 5 2.2 7.9v1.9c7.8 2.9 16.2 4.6 25 4.7V98.3l-1.6 1z"/><path class="ggst6" d="M52.2 183.5c-4.8 0-9.4-1.8-13-5.1-3.8-3.5-5.9-8.2-6.1-13.3-.4-10.5 7.8-19.5 18.4-19.9 2.8-.1 5.6.4 8.2 1.5l11.4-2.4-1.9 11.3c1.3 2.5 2 5.2 2.1 8 .2 5.1-1.6 10-5.1 13.7-3.5 3.8-8.2 5.9-13.3 6.1-.2.1-.4.1-.7.1zm.1-36.3h-.7c-9.4.4-16.8 8.3-16.5 17.8.2 4.6 2.1 8.8 5.5 11.9 3.4 3.1 7.7 4.7 12.3 4.5 4.6-.2 8.8-2.1 11.9-5.5 3.1-3.4 4.7-7.7 4.5-12.3-.1-2.6-.8-5.1-2-7.5l-.2-.3 1.5-9-9.2 1.9-.3-.1c-2.1-.9-4.4-1.4-6.8-1.4z"/><path class="ggst3" d="M44.5 159.6h15.8v2H44.5zM44.5 163.6h15.8v2H44.5z"/><g><path class="ggst3" d="M44.5 167.6h15.8v2H44.5z"/></g><g><path class="ggst3" d="M6.4 35.9h2v4h-2zM6.4 45.9h2v4h-2z"/><g><path class="ggst3" d="M10.4 41.9h4v2h-4zM.4 41.9h4v2h-4z"/></g></g><g><path class="ggst3" d="M175.6 35.5h2v4h-2zM175.6 45.5h2v4h-2z"/><g><path class="ggst3" d="M179.6 41.5h4v2h-4zM169.6 41.5h4v2h-4z"/></g></g><g><path class="ggst3" d="M184.6 135.5h2v4h-2zM184.6 145.5h2v4h-2z"/><g><path class="ggst3" d="M188.6 141.5h4v2h-4zM178.6 141.5h4v2h-4z"/></g></g><g><path class="ggst3" d="M98.7 52.5c-13 0-23.5-10.6-23.5-23.5S85.7 5.4 98.7 5.4s23.5 10.6 23.5 23.5c0 6.3-2.4 12.2-6.9 16.6-4.4 4.5-10.3 7-16.6 7zm0-45.1c-11.9 0-21.5 9.7-21.5 21.5s9.7 21.5 21.5 21.5c5.8 0 11.2-2.2 15.2-6.3s6.3-9.5 6.3-15.2c.1-11.8-9.6-21.5-21.5-21.5z"/><path class="ggst3" d="M116.3 28.9h-2c0-8.6-7-15.5-15.5-15.5v-2c9.6 0 17.5 7.9 17.5 17.5zM96.5 13.4c-.3 0-.5-.1-.7-.3-.1-.1-.2-.2-.2-.3-.1-.1-.1-.2-.1-.4 0-.1 0-.3.1-.4 0-.1.1-.2.2-.3.2-.2.6-.4.9-.3.1 0 .1 0 .2.1.1 0 .1.1.2.1 0 0 .1.1.2.1.1.1.2.2.2.3s.1.2.1.4c0 .1 0 .3-.1.4s-.1.2-.2.3c-.3.2-.6.3-.8.3zM115.3 32.2c-.1 0-.3 0-.4-.1-.1 0-.2-.1-.3-.2-.1-.1-.2-.2-.2-.3 0-.1-.1-.2-.1-.4s0-.3.1-.4c.1-.1.1-.2.2-.3s.2-.2.3-.2c.4-.2.8-.1 1.1.2.2.2.3.4.3.7 0 .1 0 .3-.1.4 0 .1-.1.2-.2.3-.1.1-.2.2-.3.2-.2.1-.3.1-.4.1z"/><g><path transform="rotate(-45.001 80.142 47.512)" class="ggst3" d="M76.4 46.5h7.5v2h-7.5z"/></g><g><path class="ggst3" d="M59.5 71.4c-.9 0-1.7-.3-2.3-1-1.3-1.3-1.3-3.3 0-4.6L76 47.1l4.6 4.6-18.8 18.7c-.6.7-1.4 1-2.3 1zm-.9-4.1c-.5.5-.5 1.3 0 1.8s1.3.5 1.8 0l17.3-17.3-1.7-1.9"/><path transform="rotate(-45.001 61.11 66.556)" class="ggst3" d="M60.1 64.3h2v4.5h-2z"/><path transform="rotate(-45.001 75.02 52.647)" class="ggst3" d="M74 50.4h2v4.5h-2z"/></g></g><g><circle class="ggst4" cx="8.4" cy="116.6" r="2"/></g><g><circle class="ggst1" cx="25.4" cy="155.6" r="3"/></g><g><path class="ggst3" d="M54.4 89.6h2v4h-2zM54.4 99.6h2v4h-2z"/><g><path class="ggst3" d="M58.4 95.6h4v2h-4zM48.4 95.6h4v2h-4z"/></g></g><g><path class="ggst3" d="M41.4 149.8c-28.9-29.9-28.6-77.8.9-107.3.4-.4.4-1 0-1.4s-1-.4-1.4 0c-30.3 30.3-30.6 79.3-1 110 .5-.5 1-.9 1.5-1.3zM149 152.1c-21.7 20.6-52.6 26-79.1 16.3-.1.7-.3 1.3-.5 1.9 8.7 3.2 17.9 4.8 27 4.8 19.4 0 38.7-7.1 53.8-21.3-.5-.5-.9-1.1-1.2-1.7z"/></g></g></svg>