<?xml version="1.0" encoding="utf-8"?><svg id="fvLayer_1" xmlns="http://www.w3.org/2000/svg" xmlns:xlink="http://www.w3.org/1999/xlink" viewBox="0 0 193 193" width="193" height="193"><style>.fvst0{clip-path:url(#fvSVGID_2_)}.fvst1{fill:#ffd15d}.fvst2{fill:#dededd}.fvst3{fill:#5fe0ed}.fvst4{fill:#475059}.fvst5{fill:#48515a}</style><defs><path id="fvSVGID_1_" d="M0 0h193v193H0z"/></defs><clipPath id="fvSVGID_2_"><use xlink:href="#fvSVGID_1_" overflow="visible"/></clipPath><g class="fvst0"><circle class="fvst1" cx="38.5" cy="24.6" r="20.5"/><path class="fvst2" d="M100 125.7c2.2 0 4-1.8 4-4s-1.8-4-4-4h-4c2.2 0 4 1.8 4 4s-1.8 4-4 4h-8c-2.2 0-4-1.8-4-4 0 .8.3 2.9.7 5H74.5c-1.8 0-3.6-.5-5-1.6-1.1-.9-2.6-1.4-4-1.4h-6v4.8H44.6v3H41v15h3.6v-3h13v-4.8h7.8c1.4 0 2.8.5 3.9 1.3 1.5 1.1 3.2 1.7 5 1.7H96c2.2 0 4-1.8 4-4 0-1.5-.8-2.7-1.9-3.4v-.6h1.9c2.2 0 4-1.8 4-4s-1.8-4-4-4z"/><path transform="rotate(-90 47.82 109.218)" class="fvst3" d="M24.8 102.4h46.1V116H24.8z"/><path class="fvst4" d="M134 92.5v75.1c0 3.9-3.1 7-7 7H43c-3.9 0-7-3.1-7-7v-136c0-3.9 3.1-7 7-7h84c3.9 0 7 3.1 7 7v11.5c.5-.5 1.2-.9 2-1V31.7c0-5-4-9-9-9H43c-5 0-9 4-9 9v136c0 5 4 9 9 9h84c5 0 9-4 9-9V93.6c-.8-.2-1.5-.6-2-1.1z"/><path class="fvst4" d="M128 168.7H42v-138h86v14.7c.5-.5 1.2-.9 2-1V28.7H40v142h90V91.6c-.8-.2-1.5-.6-2-1v78.1zM118 192.7H52v-18h66v18zm-64-2h62v-14H54v14z"/><path class="fvst4" d="M17 190.7h140v2H17z"/><circle class="fvst1" cx="65" cy="151" r="2"/><path class="fvst5" d="M60.7 129.3h-6.1v-2h4.1v-37h-4.1v-2h6.1zM50.6 125.3c-.6 0-1-.4-1-1v-4c0-.6.4-1 1-1s1 .4 1 1v4c0 .5-.4 1-1 1z"/><path class="fvst5" d="M50.6 129.3c-1.7 0-3-1.3-3-3s1.3-3 3-3 3 1.3 3 3-1.3 3-3 3zm0-4c-.6 0-1 .4-1 1s.4 1 1 1 1-.4 1-1-.4-1-1-1zM70 107.5c-.6 0-1-.4-1-1s.4-1 1-1c3.1 0 5.8-2.1 6.7-5l2.1-7.3h14.5c3.3 0 6-2.7 6-6H74c-1 0-1.9.5-2.5 1.4l-5 7.7-6.8.2c-.6 0-1-.4-1-1s.4-1 1-1l5.8-.1 4.5-6.8c.9-1.4 2.5-2.2 4.2-2.3l27.1-.1v2c0 4.4-3.6 8-8 8H80.2l-1.7 5.9c-1 3.7-4.6 6.4-8.5 6.4z"/><path class="fvst4" d="M96 127.5h-8c-2.8 0-5-2.2-5-5s2.2-5 5-5h8c2.8 0 5 2.2 5 5s-2.3 5-5 5zm-8-8c-1.7 0-3 1.3-3 3s1.3 3 3 3h8c1.7 0 3-1.3 3-3s-1.3-3-3-3h-8z"/><path class="fvst4" d="M100 119.5H88c-2.8 0-5-2.2-5-5s2.2-5 5-5h12c2.8 0 5 2.2 5 5s-2.3 5-5 5zm-12-8c-1.7 0-3 1.3-3 3s1.3 3 3 3h12c1.7 0 3-1.3 3-3s-1.3-3-3-3H88z"/><path class="fvst4" d="M100 111.5H88c-2.8 0-5-2.2-5-5s2.2-5 5-5h12c2.8 0 5 2.2 5 5s-2.3 5-5 5zm-12-8c-1.7 0-3 1.3-3 3s1.3 3 3 3h12c1.7 0 3-1.3 3-3s-1.3-3-3-3H88z"/><path class="fvst4" d="M100 103.5H88c-2.8 0-5-2.2-5-5s2.2-5 5-5h12c2.8 0 5 2.2 5 5s-2.3 5-5 5zm-12-8c-1.7 0-3 1.3-3 3s1.3 3 3 3h12c1.7 0 3-1.3 3-3s-1.3-3-3-3H88zM88 127.5H74.5c-1.8 0-3.6-.6-5.1-1.7-1.1-.8-2.5-1.3-3.9-1.3H59v-2h6.5c1.8 0 3.6.6 5.1 1.7 1.1.8 2.5 1.3 3.9 1.3H88v2zM108 82.5H72v-29h36v29zm-34-2h32v-25H74v25z"/><path class="fvst4" d="M167 106.5h-5.2l-55.2-24.1.8-1.8 54.8 23.9h2.8v-73h-2.8l-54.8 23.9-.8-1.8 55.2-24.1h5.2zM100 58.5c0-.5.4-1 1-1 .5 0 1 .5 1 1s-.5 1-1 1c-.6 0-1-.5-1-1zm-4 0c0-.5.4-1 1-1 .5 0 1 .5 1 1s-.5 1-1 1c-.6 0-1-.5-1-1zm-4 0c0-.5.4-1 1-1 .5 0 1 .5 1 1s-.5 1-1 1c-.6 0-1-.5-1-1zm-4 0c0-.5.4-1 1-1 .5 0 1 .5 1 1s-.5 1-1 1c-.6 0-1-.5-1-1zm-4 0c0-.5.4-1 1-1 .5 0 1 .5 1 1s-.5 1-1 1c-.6 0-1-.5-1-1zm-4 0c0-.5.4-1 1-1 .5 0 1 .5 1 1s-.5 1-1 1c-.6 0-1-.5-1-1zm-4 0c0-.5.4-1 1-1 .5 0 1 .5 1 1s-.5 1-1 1c-.6 0-1-.5-1-1zM79 81.5h2v5h-2zM84 116.5h-5v-22h2v20h3z"/><g><path class="fvst4" d="M91 81.5h2v4h-2z"/></g><g><path class="fvst4" d="M72.7 77.7H63V58.5h9v2h-7v15.2h7.7z"/></g><g><path class="fvst2" d="M162.6 102.5h.4v-51l-53 12v16.1l52.6 22.9z"/></g><g><path class="fvst5" d="M171 35.5c-.4 0-.7-.2-.9-.6-.2-.5 0-1.1.4-1.3l8-4c.5-.2 1.1 0 1.3.4.2.5 0 1.1-.4 1.3l-8 4c-.1.2-.3.2-.4.2z"/></g><g><path class="fvst5" d="M179 105.5c-.2 0-.3 0-.4-.1l-8-4c-.5-.2-.7-.8-.4-1.3.2-.5.8-.7 1.3-.4l8 4c.5.2.7.8.4 1.3-.2.3-.5.5-.9.5z"/></g><g><path class="fvst5" d="M179 68.5h-8c-.6 0-1-.4-1-1s.4-1 1-1h8c.6 0 1 .4 1 1s-.4 1-1 1z"/></g><g><path class="fvst5" d="M171 52c-.4 0-.8-.3-1-.7-.2-.5.1-1.1.7-1.3l8-2.5c.5-.2 1.1.1 1.3.7.2.5-.1 1.1-.7 1.3l-8 2.5h-.3z"/></g><g><path class="fvst5" d="M179 87.5h-.3l-8-2.5c-.5-.2-.8-.7-.7-1.3.2-.5.7-.8 1.3-.7l8 2.5c.5.2.8.7.7 1.3-.2.4-.6.7-1 .7z"/></g><g><circle class="fvst1" cx="108.5" cy="42" r="1.5"/></g><g><circle class="fvst3" cx="148" cy="24.7" r="3"/></g><g><path class="fvst5" d="M151 129.7h2v4h-2zM151 139.7h2v4h-2z"/><g><path class="fvst5" d="M155 135.7h4v2h-4zM145 135.7h4v2h-4z"/></g></g><g><path class="fvst5" d="M149 163.7h2v4h-2zM149 173.7h2v4h-2z"/><g><path class="fvst5" d="M153 169.7h4v2h-4zM143 169.7h4v2h-4z"/></g></g><g><circle class="fvst3" cx="28" cy="178.7" r="3"/></g><g><path class="fvst5" d="M51.7 55.7h-3.3c-4.9 0-9.6-2.6-12.2-6.8-3.9-.3-7.8-1.7-11.1-3.8l-1.4-1c-2.7-2-4.9-4.5-6.6-7.4l-.1-.4c-4.3-8-3.9-17.6 1.1-25.2C25.2.4 39.4-2.9 50.5 3.5c5.9 3.4 10 8.9 11.6 15.4 1.6 6.6.4 13.3-3.2 19-3 4.6-7.5 8.1-12.8 9.9v.2c0 1 .2 1.9.7 2.7.4.7.9 1.3 1.5 1.8 1 .8 2.2 1.2 3.5 1.2.6 0 1 .4 1 1s-.5 1-1.1 1zm-33-20.4l.2.3c1.5 2.7 3.6 5 6 6.8l1.3.9c3.1 2 6.8 3.3 10.6 3.5.3 0 .6.2.8.5 1.9 3.3 5.1 5.5 8.7 6.1-.5-.5-1-1.1-1.4-1.8-.6-1.1-1-2.4-1-3.7v-1c0-.4.3-.8.7-1 5.1-1.5 9.5-4.8 12.4-9.3 3.4-5.2 4.4-11.4 3-17.4-1.5-6-5.2-11-10.6-14.1-10-5.8-23.3-2.6-29.7 7-4.6 7.1-5 15.9-1 23.2z"/></g><g><path class="fvst2" d="M56 178.7h58v6H56z"/></g><g><path class="fvst4" d="M14 192.7c-.1 0-.3 0-.4-.1-.1 0-.2-.1-.3-.2-.2-.2-.3-.4-.3-.7 0-.3.1-.5.3-.7.4-.4 1-.4 1.4 0 0 0 .1.1.1.2 0 0 .1.1.1.2s0 .1.1.2v.2c0 .3-.1.5-.3.7-.2.1-.4.2-.7.2z"/></g><g><path class="fvst4" d="M160.1 192.7c-.1 0-.3 0-.4-.1-.1 0-.2-.1-.3-.2-.2-.2-.3-.4-.3-.7 0-.3.1-.5.3-.7.1-.1.2-.2.3-.2.4-.2.8-.1 1.1.2.2.2.3.5.3.7 0 .3-.1.5-.3.7-.2.2-.4.3-.7.3z"/></g></g></svg>