<?xml version="1.0" encoding="utf-8"?><svg id="foLayer_1" xmlns="http://www.w3.org/2000/svg" xmlns:xlink="http://www.w3.org/1999/xlink" viewBox="0 0 193 193" width="193" height="193"><style>.fost0{clip-path:url(#foSVGID_2_)}.fost1{fill:#5fe0ed}.fost2{fill:#dededd}.fost3{fill:#48515a}.fost4{fill:#475059}</style><defs><path id="foSVGID_1_" d="M0 0h193v193H0z"/></defs><clipPath id="foSVGID_2_"><use xlink:href="#foSVGID_1_" overflow="visible"/></clipPath><g class="fost0"><path class="fost1" d="M90.7 112.3c8.2-15.1 8-34.1-2.2-49.5-13.8-20.8-42-27.5-63.7-15C.8 61.6-6.4 92.4 8.4 115.4c6.5 10 16 16.7 26.5 19.8v2c0 2.4-.6 4.7-1.7 6.6-.9 1.6-2.2 3.1-3.6 4.2-2.3 1.8-5.2 2.8-8.3 2.8h6.8c10.2 0 19-5.6 23.8-13.8 7.9-.5 15.7-3 22.8-7.6l2.7-1.9c5.2-4 9.6-8.9 12.9-14.6l.4-.6z"/><path class="fost2" d="M189.8 137.5h-100c-1.4 0-2.5 1.1-2.5 2.5v32c0 1.4 1.1 2.5 2.5 2.5h100c1.4 0 2.5-1.1 2.5-2.5v-32c0-1.4-1.2-2.5-2.5-2.5zm-6.5 25v-5h5v5h-5zm5 3v5h-5v-5h5zm-9-11v-5h9v5h-9zm-88 8v-5h9v5h-9zm5 3v5h-5v-5h5zm64-16v5h-5v-5h5zm-1-3v-5h5v5h-5zm-3 11v5h-5v-5h5zm0-11h-5v-5h5v5zm-4 3v5h-5v-5h5zm-4 8v5h-5v-5h5zm0-11h-5v-5h5v5zm-4 3v5h-5v-5h5zm-4 8v5h-5v-5h5zm0-11h-5v-5h5v5zm-4 3v5h-5v-5h5zm-4 8v5h-5v-5h5zm0-11h-5v-5h5v5zm-4 3v5h-5v-5h5zm-4-3h-5v-5h5v5zm-4 3v5h-5v-5h5zm-4-3h-5v-5h5v5zm-4 3v5h-5v-5h5zm-4-3h-5v-5h5v5zm-4 3v5h-5v-5h5zm-4-3h-9v-5h9v5zm-4 3v5h-5v-5h5zm3 16h5v5h-5v-5zm4-3v-5h5v5h-5zm4 3h5v5h-5v-5zm4-3v-5h5v5h-5zm4 3h5v5h-5v-5zm4-3v-5h5v5h-5zm4 3h41v5h-41v-5zm36-3v-5h5v5h-5zm4-8v-5h5v5h-5zm4-8v-5h5v5h-5zm0 19h5v5h-5v-5zm0-3v-5h5v5h-5zm4-8v-5h5v5h-5zm4-8v-5h5v5h-5zm0 19h5v5h-5v-5zm0-3v-5h5v5h-5zm8-16v-5h5v5h-5z"/><path class="fost3" d="M85.3 66.5H121v2H85.3zM85.3 70.5H121v2H85.3zM85.3 74.5H121v2H85.3zM85.3 78.5h35v2h-35zM83.3 80.5h-2v-.8l-4-8.8-4 8.8v.8h-2v-1.2l6-13.2 6 13.2z"/><path class="fost3" d="M73.3 75.5h8v2h-8zM71.3 82.5h49v2h-49zM71.3 86.5h49v2h-49zM71.3 90.5h49v2h-49zM97.1 137.5c0-.6.4-1 1-1 .5 0 1 .4 1 1s-.4 1-1 1-1-.5-1-1zm-3.1 1c-.5 0-1-.5-1-1 0-.6.5-1 1-1 .6 0 1 .5 1 1 .1.5-.4 1-1 1 .1 0 .1 0 0 0zm7.1-1.2c-.1-.5.3-1 .9-1.1.5-.1 1 .3 1.1.9.1.5-.3 1-.9 1.1h-.1c-.5 0-1-.4-1-.9zm-11.1.9c-.5-.1-.9-.6-.9-1.1 0-.5.5-.9 1.1-.9.6 0 1 .5.9 1.1 0 .5-.5.9-1 .9H90zm15.1-1.4c-.1-.5.3-1.1.8-1.2.5-.1 1.1.3 1.1.8.1.5-.3 1.1-.8 1.2h-.2c-.4.1-.9-.3-.9-.8zm-19.1.8c-.5-.1-.9-.6-.8-1.2.1-.5.6-.9 1.2-.8.5.1.9.6.8 1.2-.1.5-.5.8-1 .8H86zm23-1.5c-.1-.5.2-1.1.7-1.2.5-.1 1.1.2 1.2.7.1.5-.2 1.1-.7 1.2h-.2c-.5.1-.9-.2-1-.7zm-27 .7c-.5-.1-.9-.7-.7-1.2.1-.5.7-.9 1.2-.7.5.1.9.7.7 1.2-.1.5-.5.8-1 .8-.1-.1-.1-.1-.2-.1zm30.9-1.7c-.2-.5.1-1.1.6-1.2.5-.2 1.1.1 1.3.7.2.5-.1 1.1-.7 1.3h-.3c-.4-.1-.8-.4-.9-.8zm-34.8.5c-.5-.2-.8-.7-.7-1.3.2-.5.7-.8 1.3-.6.5.2.8.7.6 1.3-.1.4-.5.7-1 .7 0 0-.1 0-.2-.1zm38.5-1.8c-.2-.5 0-1.1.6-1.3.5-.2 1.1 0 1.3.6.2.5 0 1.1-.6 1.3-.1 0-.2.1-.4.1-.3 0-.7-.3-.9-.7zm-42.4.5c-.5-.2-.8-.8-.6-1.3.2-.5.8-.8 1.3-.6.5.2.8.8.6 1.3-.2.4-.5.6-.9.6h-.4zm46.1-2c-.2-.5 0-1.1.5-1.3.5-.2 1.1 0 1.3.5.2.5 0 1.1-.5 1.3-.1.1-.3.1-.4.1-.3 0-.7-.3-.9-.6zm-49.8.3c-.5-.2-.7-.8-.5-1.3.2-.5.8-.7 1.3-.5.5.2.7.8.5 1.3-.2.4-.5.6-.9.6-.1 0-.2 0-.4-.1zm53.4-2.1c-.3-.5-.1-1.1.4-1.4.5-.3 1.1-.1 1.4.4.3.5.1 1.1-.4 1.4-.2.1-.3.1-.5.1-.4 0-.7-.2-.9-.5zm-57 .2c-.5-.3-.6-.9-.4-1.4.3-.5.9-.7 1.4-.4.5.3.6.9.4 1.4-.2.3-.5.5-.9.5-.1 0-.3 0-.5-.1zm60.5-2.2c-.3-.5-.2-1.1.3-1.4.5-.3 1.1-.2 1.4.3.3.5.2 1.1-.3 1.4-.2.1-.4.2-.5.2-.4-.1-.7-.2-.9-.5zm-63.9.1c-.5-.3-.6-.9-.3-1.4.3-.5.9-.6 1.4-.3.5.3.6.9.3 1.4-.2.3-.5.4-.8.4-.2 0-.4 0-.6-.1zm67.2-2.4c-.3-.4-.2-1.1.2-1.4.4-.3 1.1-.2 1.4.2.3.4.2 1.1-.2 1.4-.2.1-.4.2-.6.2-.3 0-.6-.1-.8-.4zm-70.5 0c-.4-.3-.5-1-.2-1.4.3-.4 1-.5 1.4-.2.4.3.5 1 .2 1.4-.2.3-.5.4-.8.4-.2 0-.4-.1-.6-.2zm-3.1-2.6c-.4-.4-.5-1-.1-1.4.4-.4 1-.5 1.4-.1.4.4.4 1 .1 1.4-.2.2-.5.3-.8.3-.2 0-.4 0-.6-.2zm-3-2.8c-.4-.4-.4-1 0-1.4.4-.4 1-.4 1.4 0 .4.4.4 1 0 1.4-.2.2-.5.3-.7.3-.2 0-.5-.1-.7-.3zm-2.7-3c-.4-.4-.3-1.1.1-1.4.4-.4 1.1-.3 1.4.1.4.4.3 1.1-.1 1.4-.2.2-.4.2-.7.2-.2 0-.5-.1-.7-.3zm-2.6-3.2c-.3-.5-.2-1.1.2-1.4.5-.3 1.1-.2 1.4.2.3.5.2 1.1-.2 1.4-.2.1-.4.2-.6.2-.3 0-.6-.1-.8-.4zm-2.3-3.4c-.3-.5-.2-1.1.3-1.4.5-.3 1.1-.2 1.4.3.3.5.2 1.1-.3 1.4-.2.1-.4.2-.5.2-.4 0-.7-.2-.9-.5zm-2-3.5c-.3-.5-.1-1.1.4-1.4.5-.3 1.1-.1 1.4.4.3.5.1 1.1-.4 1.4-.1.1-.3.1-.5.1-.4.1-.8-.1-.9-.5zm-1.9-3.6c-.2-.5 0-1.1.5-1.3.5-.2 1.1 0 1.3.5.2.5 0 1.1-.5 1.3-.1.1-.3.1-.4.1-.3 0-.7-.2-.9-.6zm106.1.3c-.5-.2-.7-.8-.5-1.3.2-.5.8-.7 1.3-.5.5.2.7.8.5 1.3-.2.4-.5.6-.9.6-.2 0-.3 0-.4-.1zm-107.6-4c-.2-.5.1-1.1.6-1.3.5-.2 1.1.1 1.3.6.2.5-.1 1.1-.6 1.3-.1 0-.2.1-.3.1-.5-.1-.9-.3-1-.7zm109.2.3c-.5-.2-.8-.8-.6-1.3.2-.5.8-.8 1.3-.6.5.2.8.8.6 1.3-.1.4-.5.7-.9.7-.2 0-.3 0-.4-.1zM39.8 96.5c-.2-.5.1-1.1.7-1.2.5-.2 1.1.1 1.2.7.2.5-.1 1.1-.7 1.2h-.3c-.4 0-.8-.3-.9-.7zm111.8.5c-.5-.2-.8-.7-.7-1.2.2-.5.7-.8 1.2-.7.5.2.8.7.7 1.2-.1.4-.5.7-1 .7h-.2zM38.7 92.6c-.1-.5.2-1.1.8-1.2.5-.1 1.1.2 1.2.8.1.5-.2 1.1-.8 1.2h-.2c-.5-.1-.9-.4-1-.8zm114 .5c-.5-.1-.9-.7-.8-1.2.1-.5.7-.9 1.2-.8.5.1.9.6.8 1.2-.1.5-.5.8-1 .8h-.2zM38 88.6c-.1-.5.3-1.1.8-1.1.5-.1 1.1.3 1.1.8.1.5-.3 1-.8 1.1H39c-.5 0-1-.3-1-.8zm115.5.6c-.5-.1-.9-.6-.8-1.1.1-.5.6-.9 1.1-.8.5.1.9.6.8 1.1-.1.5-.5.9-1 .9 0-.1-.1-.1-.1-.1zm-116-4.7c0-.5.4-1 .9-1.1.5 0 1 .4 1.1.9 0 .5-.4 1-.9 1.1h-.1c-.5 0-1-.4-1-.9zm116.5.7c-.6-.1-1-.5-.9-1.1 0-.6.5-1 1.1-.9.6 0 1 .5.9 1.1-.1.5-.5.9-1.1.9zM37.3 80.5c0-.5.4-1 1-1s1 .4 1 1c0 .5-.4 1-1 1s-1-.5-1-1zm116.9.8c-.6 0-1-.5-1-1s.5-1 1-1c.6 0 1 .5 1 1 .1.5-.4 1-1 1 .1 0 .1 0 0 0zM38.3 77.5c-.5 0-1-.5-1-1.1 0-.5.5-1 1.1-.9.5 0 1 .5.9 1 0 .5-.4 1-1 1zm114.9-1.2c0-.5.4-1 1-1 .5 0 1 .4 1 1 0 .5-.4 1-.9 1h-.1c-.6 0-1-.5-1-1zM38.6 73.5c-.5-.1-.9-.6-.9-1.1.1-.5.6-.9 1.1-.9.5.1.9.6.9 1.1-.1.5-.5.9-1 .9h-.1zm114.2-1.1c-.1-.5.3-1 .9-1.1.6-.1 1.1.3 1.1.9.1.5-.3 1-.9 1.1h-.1c-.5 0-.9-.4-1-.9zM39.1 69.5c-.5-.1-.9-.6-.8-1.2.1-.5.6-.9 1.2-.8.5.1.9.6.8 1.2-.1.5-.5.8-1 .8h-.2zm113.1-1c-.1-.5.2-1.1.8-1.2.5-.1 1.1.2 1.2.8.1.5-.2 1.1-.8 1.2h-.2c-.5 0-.9-.3-1-.8zM39.9 65.6c-.5-.1-.9-.7-.7-1.2.1-.5.7-.8 1.2-.7.5.1.9.7.7 1.2-.1.4-.5.8-1 .8 0-.1-.1-.1-.2-.1zm111.4-.9c-.1-.5.2-1.1.7-1.2.5-.2 1.1.2 1.2.7.1.5-.2 1.1-.7 1.2h-.3c-.4 0-.8-.3-.9-.7zM41 61.7c-.5-.2-.8-.8-.6-1.3.2-.5.7-.8 1.3-.6.5.2.8.8.6 1.3-.1.4-.5.7-1 .7-.1 0-.2 0-.3-.1zm109.2-.8c-.2-.5.1-1.1.6-1.3.5-.2 1.1.1 1.3.6.2.5-.1 1.1-.6 1.3h-.3c-.5.1-.9-.2-1-.6zM42.4 58c-.5-.2-.8-.8-.5-1.3.2-.5.8-.8 1.3-.5.5.2.8.8.5 1.3-.2.4-.5.6-.9.6-.2 0-.3-.1-.4-.1zm106.4-.7c-.2-.5 0-1.1.5-1.3.5-.2 1.1 0 1.3.5.2.5 0 1.1-.5 1.3-.1 0-.3.1-.4.1-.4 0-.8-.3-.9-.6zM44 54.3c-.5-.2-.7-.8-.4-1.3.2-.5.9-.7 1.3-.4.5.2.7.8.4 1.3-.2.3-.5.5-.9.5-.1 0-.3 0-.4-.1zm103.1-.6c-.2-.5 0-1.1.4-1.3.5-.3 1.1-.1 1.3.4.2.5.1 1.1-.4 1.3-.1.1-.3.1-.4.1-.4 0-.7-.2-.9-.5zM45.8 50.8c-.5-.3-.6-.9-.3-1.4.3-.5.9-.6 1.4-.4.5.3.6.9.4 1.4-.2.3-.5.5-.9.5-.2 0-.4 0-.6-.1zm99.4-.5c-.3-.5-.1-1.1.3-1.4.5-.3 1.1-.1 1.4.3.3.5.1 1.1-.3 1.4-.2.1-.3.1-.5.1-.4 0-.7-.1-.9-.4zm-97.3-2.9c-.4-.3-.6-.9-.2-1.4.3-.5.9-.6 1.4-.3.5.3.6.9.2 1.4-.2.3-.5.4-.8.4-.2.1-.4 0-.6-.1zm95.2-.4c-.3-.5-.2-1.1.2-1.4.5-.3 1.1-.2 1.4.2.3.5.2 1.1-.2 1.4-.2.1-.4.2-.6.2-.3 0-.6-.2-.8-.4zm-92.8-2.9c-.4-.3-.5-1-.2-1.4.3-.4 1-.5 1.4-.2.4.4.5 1 .1 1.4-.2.2-.5.4-.8.4-.1.1-.3 0-.5-.2zm90.4-.3c-.4-.4-.3-1.1.1-1.4.4-.3 1.1-.3 1.4.2.3.4.3 1.1-.2 1.4-.2.1-.4.2-.6.2-.2 0-.5-.1-.7-.4zm-87.9-2.7c-.4-.4-.4-1-.1-1.4.4-.4 1-.4 1.4-.1.4.4.4 1 .1 1.4-.2.2-.5.3-.7.3-.2 0-.5-.1-.7-.2zm85.3-.3c-.4-.4-.4-1 0-1.4.4-.4 1-.4 1.4.1.4.4.4 1-.1 1.4-.2.2-.4.3-.7.3-.1 0-.4-.2-.6-.4zm-82.5-2.6c-.4-.4-.4-1 0-1.4.4-.4 1-.4 1.4 0 .4.4.4 1 0 1.4-.2.2-.4.3-.7.3-.3 0-.5-.1-.7-.3zm79.8-.2c-.4-.4-.4-1 0-1.4.4-.4 1-.4 1.4 0 .4.4.4 1 0 1.4-.2.2-.5.3-.7.3-.3 0-.5-.1-.7-.3zm-76.9-2.5c-.4-.4-.3-1.1.1-1.4.4-.4 1.1-.3 1.4.1.3.4.3 1.1-.1 1.4-.2.1-.4.2-.6.2-.3 0-.6-.1-.8-.3zm73.9-.1c-.4-.3-.5-1-.1-1.4.4-.4 1-.5 1.4-.1.4.4.5 1 .1 1.4-.2.2-.5.4-.8.4-.2 0-.4-.1-.6-.3zM61.6 33c-.3-.5-.2-1.1.2-1.4.5-.3 1.1-.2 1.4.2.3.4.2 1.1-.2 1.4-.2.1-.4.2-.6.2-.3 0-.6-.2-.8-.4zm67.7 0c-.5-.3-.6-.9-.2-1.4.3-.4.9-.5 1.4-.2.4.3.5.9.2 1.4-.2.3-.5.4-.8.4-.2 0-.4 0-.6-.2zm-64.4-2.3c-.3-.5-.1-1.1.3-1.4.5-.3 1.1-.1 1.4.3.3.5.1 1.1-.3 1.4-.2.1-.4.1-.5.1-.4 0-.7-.1-.9-.4zm61.1.2c-.5-.3-.6-.9-.3-1.4.3-.5.9-.6 1.4-.3.5.3.6.9.3 1.4-.2.3-.5.5-.9.5-.1-.1-.3-.1-.5-.2zm-57.6-2.3c-.3-.5-.1-1.1.4-1.4.5-.3 1.1-.1 1.3.4.3.5.1 1.1-.4 1.4-.1.1-.3.1-.5.1-.3.1-.7-.1-.8-.5zm54.2.3c-.5-.3-.7-.9-.4-1.3.3-.5.9-.7 1.4-.4.5.2.7.9.4 1.3-.2.3-.5.5-.9.5-.2.1-.3 0-.5-.1zm-50.7-2.1c-.2-.5 0-1.1.5-1.3.5-.2 1.1 0 1.3.5.2.5 0 1.1-.5 1.3-.1.1-.3.1-.4.1-.3 0-.7-.2-.9-.6zm47.2.4c-.5-.2-.7-.8-.5-1.3.2-.5.8-.7 1.3-.5.5.2.7.8.5 1.3-.2.4-.5.6-.9.6-.2 0-.3 0-.4-.1zm-43.5-1.9c-.2-.5.1-1.1.6-1.3.5-.2 1.1.1 1.3.6.2.5-.1 1.1-.6 1.3-.1 0-.2.1-.3.1-.4-.1-.8-.3-1-.7zm39.8.5c-.5-.2-.8-.8-.6-1.3.2-.5.8-.8 1.3-.6.5.2.8.8.6 1.3-.1.4-.5.7-.9.7-.1 0-.3-.1-.4-.1zm-36-1.8c-.1-.5.2-1.1.7-1.2.5-.2 1.1.1 1.2.7.1.5-.1 1.1-.7 1.2h-.3c-.4 0-.8-.3-.9-.7zm32.3.6c-.5-.1-.8-.7-.7-1.2.1-.5.7-.8 1.2-.7.5.2.8.7.7 1.2-.1.4-.5.7-1 .7h-.2zm-28.4-1.7c-.1-.5.2-1.1.8-1.2.5-.1 1.1.2 1.2.8.1.5-.2 1.1-.8 1.2h-.2c-.5 0-.9-.3-1-.8zm24.6.8c-.5-.1-.9-.6-.8-1.2.1-.5.7-.9 1.2-.8.5.1.9.6.8 1.2-.1.5-.5.8-1 .8h-.2zm-20.7-1.5c-.1-.5.3-1 .9-1.1.5-.1 1 .3 1.1.9.1.5-.3 1-.9 1.1h-.1c-.5 0-.9-.4-1-.9zm16.8.8c-.5-.1-.9-.6-.9-1.1.1-.5.6-.9 1.1-.9.6.1.9.6.9 1.1-.1.5-.5.9-1 .9h-.1zm-12.8-1.3c0-.6.4-1 .9-1.1.6 0 1 .4 1.1.9 0 .6-.4 1-.9 1.1h-.1c-.5 0-1-.4-1-.9zm8.9.9c-.5 0-1-.5-.9-1.1 0-.5.5-1 1.1-.9.5 0 1 .5.9 1.1-.1.5-.5.9-1.1.9zm-4.9-1.1c0-.6.4-1 1-1 .5 0 1 .4 1 1 0 .5-.5 1-1 1-.6 0-1-.4-1-1z"/><path class="fost3" d="M132.9 162.5h-9.1c-13.2 0-25.6-7.1-32.3-18.5-10.8-.8-21.3-4.3-30.4-10.2l-3.7-2.6c-7.2-5.4-13-12.1-17.5-19.8l-.6-1c-12-22-10.4-48.3 4-68.7C62.5 14.6 100 6.4 128.8 23.1c24.9 14.4 37.2 43 30.8 71-.3 1.1 0 2.2.7 3.1.7.8 1.7 1.3 2.8 1.3h16.2c3.3 0 6 2.7 6 6s-2.7 6-6 6h-69c-2.2 0-4 1.8-4 4s1.8 4 4 4h58c3.3 0 6 2.7 6 6s-2.7 6-6 6h-22c-1.7 0-3 1.3-3 3v4.1h-2v-4.1c0-2.8 2.2-5 5-5h22c2.2 0 4-1.8 4-4s-1.8-4-4-4h-58c-3.3 0-6-2.7-6-6s2.7-6 6-6h69c2.2 0 4-1.8 4-4s-1.8-4-4-4H163c-1.7 0-3.3-.8-4.3-2.1-1.1-1.3-1.5-3.1-1.1-4.8 6.3-27.2-5.7-54.8-29.8-68.8C100 8.7 63.6 16.6 45 42.9c-14 19.8-15.5 45.3-3.9 66.5l.6 1c4.3 7.5 10 14 16.9 19.2l3.6 2.5c8.9 5.8 19.3 9.2 29.9 9.9h.5l.3.5c6.3 11.1 18.1 17.9 30.8 17.9h.6c-1.1-.6-2.2-1.2-3.2-2-2.1-1.6-3.8-3.6-5.1-5.9-1.6-2.8-2.4-6.1-2.4-9.3v-3.5l.7-.2c9.4-2.8 18.2-7.8 25.3-14.5l1.4 1.5c-7.1 6.7-15.9 11.9-25.4 14.8v2c0 2.9.7 5.8 2.2 8.4 1.2 2.1 2.7 3.9 4.6 5.3 3 2.3 6.7 3.6 10.5 3.6v1.9z"/><path class="fost4" d="M80.6 166.5l-1.9-.6.3-.9-1.2-.4c-1.5-.5-2.4-1.8-2.4-3.4 0-1.6 1-2.9 2.5-3.4l1.2-.4-.6-2-1.2.4c-1.5.5-3 0-4-1.3-.9-1.3-.9-2.9 0-4.2l.7-1-1.7-1.2-.7 1c-.9 1.3-2.5 1.8-4 1.3s-2.4-1.8-2.4-3.4v-1.2h-2.1v1.2c0 1.6-1 2.9-2.5 3.4s-3 0-4-1.3l-.7-1-1.7 1.2.7 1c.9 1.3.9 2.9 0 4.2s-2.5 1.8-4 1.3l-1.2-.4-.3.9-1.9-.6.9-2.8 3.1 1c.8.3 1.4-.1 1.7-.6.3-.4.5-1.1 0-1.8l-1.9-2.6 4.9-3.6 1.9 2.6c.5.7 1.2.7 1.7.6.5-.2 1.1-.6 1.1-1.5v-3.2H67v3.2c0 .8.6 1.3 1.1 1.5.5.2 1.2.1 1.7-.6l1.9-2.6 4.9 3.6-1.9 2.6c-.5.7-.3 1.4 0 1.8.3.4.9.8 1.7.6l3.1-1 1.9 5.8-3.1 1c-.8.3-1.1.9-1.1 1.5s.3 1.2 1.1 1.5l3.1 1-.8 2.8z"/><path class="fost4" d="M71.8 163.8l-1.9-.6c.5-1.6.4-3.2-.4-4.7-.7-1.5-2-2.5-3.6-3s-3.2-.4-4.7.4c-1.5.7-2.5 2-3 3.6l-1.9-.6c.7-2.1 2.1-3.7 4-4.7s4.1-1.2 6.2-.5c2.1.7 3.7 2.1 4.7 4 1.1 1.8 1.3 4 .6 6.1z"/><path class="fost4" d="M64.1 169.3c-.8 0-1.7-.1-2.5-.4-4.3-1.4-6.6-6-5.2-10.2l1.9.6c-1 3.2.7 6.7 3.9 7.7s6.7-.7 7.7-3.9l1.9.6c-1.1 3.4-4.3 5.6-7.7 5.6z"/><path class="fost4" d="M67.1 178.5H61v-3.2c0-.8-.6-1.3-1.1-1.5-.5-.2-1.2-.1-1.7.6l-1.9 2.6-4.9-3.6 1.9-2.6c.5-.7.3-1.4 0-1.8-.3-.4-.9-.8-1.7-.6l-3.1 1-1.9-5.8 3.1-1c.8-.3 1.1-.9 1.1-1.5s-.3-1.2-1.1-1.5l-3.1-1 1-3.2 1.9.6-.4 1.3 1.2.4c1.5.5 2.4 1.8 2.4 3.4s-1 2.9-2.5 3.4l-1.2.4.6 2 1.2-.4c1.5-.5 3 0 4 1.3s.9 2.9 0 4.2l-.7 1 1.7 1.2.7-1c.9-1.3 2.5-1.8 4-1.3s2.4 1.8 2.4 3.4v1.2H65v-1.2c0-1.6 1-2.9 2.5-3.4s3 0 4 1.3l.7 1L74 173l-.7-1c-.9-1.3-.9-2.9 0-4.2.9-1.3 2.5-1.8 4-1.3l1.2.4.5-1.4 1.9.6-1.1 3.3-3.1-1c-.8-.3-1.4.1-1.7.6-.3.4-.5 1.1 0 1.8l1.9 2.6L72 177l-1.9-2.6c-.5-.7-1.2-.7-1.7-.6-.5.2-1.1.6-1.1 1.5l-.2 3.2z"/><circle class="fost1" cx="28.3" cy="31.5" r="2"/><circle class="fost1" cx="167.3" cy="36.5" r="1"/><circle class="fost1" cx="33.3" cy="164.5" r="1"/><circle class="fost1" cx="178.3" cy="81.5" r="2"/><path class="fost3" d="M172.3 49.5h2v4h-2zM172.3 59.5h2v4h-2zM176.3 55.5h4v2h-4zM166.3 55.5h4v2h-4zM16.3 121.5h2v4h-2zM16.3 131.5h2v4h-2zM20.3 127.5h4v2h-4zM10.3 127.5h4v2h-4zM64.3 49.5h2v4h-2zM64.3 59.5h2v4h-2zM68.3 55.5h4v2h-4zM58.3 55.5h4v2h-4z"/></g></svg>