<?xml version="1.0" encoding="utf-8"?><svg id="fyLayer_1" xmlns="http://www.w3.org/2000/svg" xmlns:xlink="http://www.w3.org/1999/xlink" viewBox="0 0 193 193" width="193" height="193"><style>.fyst0{clip-path:url(#fySVGID_2_)}.fyst1{fill:#dededd}.fyst2{fill:#48515a}.fyst3{fill:#ffd15d}.fyst4{fill:#5fe0ed}.fyst5{fill:#f58e70}.fyst6{fill:#475059}.fyst7{fill:#fff}</style><defs><path id="fySVGID_1_" d="M0 0h193v193H0z"/></defs><clipPath id="fySVGID_2_"><use xlink:href="#fySVGID_1_" overflow="visible"/></clipPath><g class="fyst0"><path class="fyst1" d="M15.4 9.2v11.4h156V9.2h-156zm7.2 8.7c-1.3 0-2.4-1.1-2.4-2.4 0-1.3 1.1-2.4 2.4-2.4 1.3 0 2.4 1.1 2.4 2.4 0 1.3-1 2.4-2.4 2.4zm9.7 0c-1.3 0-2.4-1.1-2.4-2.4 0-1.3 1.1-2.4 2.4-2.4s2.4 1.1 2.4 2.4c0 1.3-1.1 2.4-2.4 2.4zm9.6 0c-1.3 0-2.4-1.1-2.4-2.4 0-1.3 1.1-2.4 2.4-2.4 1.3 0 2.4 1.1 2.4 2.4 0 1.3-1.1 2.4-2.4 2.4z"/><path class="fyst2" d="M139.4 162.2h2v4h-2zM139.4 172.2h2v4h-2zM143.4 168.2h4v2h-4zM133.4 168.2h4v2h-4zM9.4 178.2h2v4h-2zM9.4 188.2h2v4h-2zM13.4 184.2h4v2h-4zM3.4 184.2h4v2h-4z"/><g><circle class="fyst3" cx="182.2" cy="96" r="2.8"/></g><g><circle class="fyst3" cx="136.7" cy="3.5" r="2.8"/></g><g><circle class="fyst4" cx="6.7" cy="128.5" r="2.8"/></g><g><path class="fyst1" d="M101 148.3h27.4v-2.1h-113v2.4h84.8z"/><path class="fyst5" d="M28.6 26.3h10v6h-10z"/><path class="fyst1" d="M15.4 37h156v2.4h-156z"/><path class="fyst6" d="M22.6 18.9c-1.9 0-3.4-1.5-3.4-3.4s1.5-3.4 3.4-3.4 3.4 1.5 3.4 3.4c0 1.8-1.5 3.4-3.4 3.4zm0-4.9c-.8 0-1.4.6-1.4 1.4 0 .8.6 1.4 1.4 1.4s1.4-.6 1.4-1.4c0-.7-.6-1.4-1.4-1.4zM32.3 18.9c-1.9 0-3.4-1.5-3.4-3.4s1.5-3.4 3.4-3.4 3.4 1.5 3.4 3.4c0 1.8-1.6 3.4-3.4 3.4zm0-4.9c-.8 0-1.4.6-1.4 1.4 0 .8.6 1.4 1.4 1.4s1.4-.6 1.4-1.4c0-.7-.7-1.4-1.4-1.4zM41.9 18.9c-1.9 0-3.4-1.5-3.4-3.4s1.5-3.4 3.4-3.4 3.4 1.5 3.4 3.4c0 1.8-1.5 3.4-3.4 3.4zm0-4.9c-.8 0-1.4.6-1.4 1.4 0 .8.6 1.4 1.4 1.4s1.4-.6 1.4-1.4c0-.7-.6-1.4-1.4-1.4zM157.6 34.3h-118v-10h118v10zm-116-2h114v-6h-114v6z"/><path class="fyst6" d="M150.6 30.3h-7c-.6 0-1-.4-1-1s.4-1 1-1h7c.6 0 1 .4 1 1s-.4 1-1 1zM136.9 25.3h2v8h-2zM29.6 32.2h-10v-6h10v6zm-8-2h6v-2h-6v2zM124.6 109.3h-105v-68h105v68zm-103-2h101v-64h-101v64z"/><circle class="fyst4" cx="163.6" cy="29.3" r="3"/><path class="fyst6" d="M33.6 129.3h-12v-12h12v12zm-10-2h8v-8h-8v8zM33.6 163.2h-12v-12h12v12zm-10-2h8v-8h-8v8zM21.6 113.3h66v2h-66zM35.6 118.3h40v2h-40z"/><path class="fyst5" d="M36.6 122.3h14v6h-14z"/><path class="fyst6" d="M65.6 128.3h-14v-6h14v6zm-12-2h10v-2h-10v2zM149.6 59.3h-18v-14h18v14zm-16-2h14v-10h-14v10zM152.6 47.3h14v2h-14z"/><path class="fyst7" d="M152.6 52.3h6"/><path class="fyst2" d="M152.6 51.3h6v2h-6z"/><path class="fyst7" d="M152.6 56.3h10"/><path class="fyst2" d="M152.6 55.3h10v2h-10z"/><path class="fyst6" d="M149.6 79.3h-18v-14h18v14zm-16-2h14v-10h-14v10zM152.6 67.3h14v2h-14z"/><path class="fyst7" d="M152.6 72.3h6"/><path class="fyst2" d="M152.6 71.3h6v2h-6z"/><path class="fyst7" d="M152.6 76.3h10"/><path class="fyst2" d="M152.6 75.3h10v2h-10z"/><path class="fyst7" d="M132.6 62.3h34"/><path class="fyst2" d="M163.6 62.3c0-.5.4-1 1-1s1 .5 1 1-.4 1-1 1c-.5 0-1-.5-1-1zm-4 0c0-.5.4-1 1-1s1 .5 1 1-.4 1-1 1c-.5 0-1-.5-1-1zm-4 0c0-.5.4-1 1-1s1 .5 1 1-.4 1-1 1c-.5 0-1-.5-1-1zm-4 0c0-.5.4-1 1-1s1 .5 1 1-.4 1-1 1c-.5 0-1-.5-1-1zm-4 0c0-.5.4-1 1-1s1 .5 1 1-.4 1-1 1c-.5 0-1-.5-1-1zm-4 0c0-.5.4-1 1-1s1 .5 1 1-.4 1-1 1c-.5 0-1-.5-1-1zm-4 0c0-.5.4-1 1-1s1 .5 1 1-.4 1-1 1c-.5 0-1-.5-1-1zm-4 0c0-.5.4-1 1-1s1 .5 1 1-.4 1-1 1c-.5 0-1-.5-1-1zm-4 0c0-.5.4-1 1-1s1 .5 1 1-.4 1-1 1c-.5 0-1-.5-1-1z"/><path class="fyst6" d="M149.6 95.3h-18v-14h18v14zm-16-2h14v-10h-14v10zM152.6 83.3h14v2h-14z"/><path class="fyst7" d="M152.6 88.3h6"/><path class="fyst2" d="M152.6 87.3h6v2h-6z"/><path class="fyst7" d="M152.6 92.3h10"/><path class="fyst2" d="M152.6 91.3h10v2h-10z"/><path class="fyst6" d="M149.6 111.3h-18v-14h18v14zm-16-2h14v-10h-14v10zM152.6 99.3h14v2h-14z"/><path class="fyst7" d="M152.6 104.3h6"/><path class="fyst2" d="M152.6 103.3h6v2h-6z"/><g><path class="fyst7" d="M152.6 108.3h10"/><path class="fyst2" d="M152.6 107.3h10v2h-10z"/></g><g><path class="fyst6" d="M149.6 127.3h-18v-14h18v14zm-16-2h14v-10h-14v10zM152.6 115.3h14v2h-14z"/><path class="fyst7" d="M152.6 120.3h6"/><path class="fyst2" d="M152.6 119.3h6v2h-6z"/><g><path class="fyst7" d="M152.6 124.3h10"/><path class="fyst2" d="M152.6 123.3h10v2h-10z"/></g></g><g><path class="fyst6" d="M149.6 143.3h-18v-14h18v14zm-16-2h14v-10h-14v10zM152.6 131.3h14v2h-14z"/><path class="fyst7" d="M152.6 136.3h6"/><path class="fyst2" d="M152.6 135.3h6v2h-6z"/><g><path class="fyst7" d="M152.6 140.3h10"/><path class="fyst2" d="M152.6 139.3h10v2h-10z"/></g></g><g><path class="fyst7" d="M22.6 134.3h102"/><path class="fyst2" d="M121.6 134.3c0-.5.4-1 1-1s1 .5 1 1-.4 1-1 1c-.5 0-1-.5-1-1zm-4 0c0-.5.4-1 1-1s1 .5 1 1-.4 1-1 1c-.5 0-1-.5-1-1zm-4 0c0-.5.4-1 1-1s1 .5 1 1-.4 1-1 1c-.5 0-1-.5-1-1zm-4 0c0-.5.4-1 1-1s1 .5 1 1-.4 1-1 1c-.5 0-1-.5-1-1zm-4 0c0-.5.4-1 1-1s1 .5 1 1-.4 1-1 1c-.5 0-1-.5-1-1zm-4 0c0-.5.4-1 1-1s1 .5 1 1-.4 1-1 1c-.5 0-1-.5-1-1zm-4 0c0-.5.4-1 1-1s1 .5 1 1-.4 1-1 1c-.5 0-1-.5-1-1zm-4 0c0-.5.4-1 1-1s1 .5 1 1-.4 1-1 1c-.5 0-1-.5-1-1zm-4 0c0-.5.4-1 1-1s1 .5 1 1-.4 1-1 1c-.5 0-1-.5-1-1zm-4 0c0-.5.4-1 1-1s1 .5 1 1-.4 1-1 1c-.5 0-1-.5-1-1zm-4 0c0-.5.4-1 1-1s1 .5 1 1-.4 1-1 1c-.5 0-1-.5-1-1zm-4 0c0-.5.4-1 1-1s1 .5 1 1-.4 1-1 1c-.5 0-1-.5-1-1zm-4 0c0-.5.4-1 1-1s1 .5 1 1-.4 1-1 1c-.5 0-1-.5-1-1zm-4 0c0-.5.4-1 1-1s1 .5 1 1-.4 1-1 1c-.5 0-1-.5-1-1zm-4 0c0-.5.4-1 1-1s1 .5 1 1-.4 1-1 1c-.5 0-1-.5-1-1zm-4 0c0-.5.4-1 1-1s1 .5 1 1-.4 1-1 1c-.5 0-1-.5-1-1zm-4 0c0-.5.4-1 1-1s1 .5 1 1-.4 1-1 1c-.5 0-1-.5-1-1zm-4 0c0-.5.4-1 1-1s1 .5 1 1-.4 1-1 1c-.5 0-1-.5-1-1zm-4 0c0-.5.4-1 1-1s1 .5 1 1-.4 1-1 1c-.5 0-1-.5-1-1zm-4 0c0-.5.4-1 1-1s1 .5 1 1-.4 1-1 1c-.5 0-1-.5-1-1zm-4 0c0-.5.4-1 1-1s1 .5 1 1-.4 1-1 1c-.5 0-1-.5-1-1zm-4 0c0-.5.4-1 1-1s1 .5 1 1-.4 1-1 1c-.5 0-1-.5-1-1zm-4 0c0-.5.4-1 1-1s1 .5 1 1-.4 1-1 1c-.5 0-1-.5-1-1zm-4 0c0-.5.4-1 1-1s1 .5 1 1-.4 1-1 1c-.5 0-1-.5-1-1zm-4 0c0-.5.4-1 1-1s1 .5 1 1-.4 1-1 1c-.5 0-1-.5-1-1zm-4 0c0-.5.5-1 1-1 .6 0 1 .5 1 1s-.4 1-1 1c-.5 0-1-.5-1-1z"/></g><g><path class="fyst2" d="M121.6 166.3c0-.5.4-1 1-1s1 .5 1 1-.4 1-1 1c-.5 0-1-.5-1-1zm-4 0c0-.5.4-1 1-1s1 .5 1 1-.4 1-1 1c-.5 0-1-.5-1-1zm-4 0c0-.5.4-1 1-1s1 .5 1 1-.4 1-1 1c-.5 0-1-.5-1-1zm-4 0c0-.5.4-1 1-1s1 .5 1 1-.4 1-1 1c-.5 0-1-.5-1-1zm-4 0c0-.5.4-1 1-1s1 .5 1 1-.4 1-1 1c-.5 0-1-.5-1-1zm-4 0c0-.5.4-1 1-1s1 .5 1 1-.4 1-1 1c-.5 0-1-.5-1-1zm-4 0c0-.5.4-1 1-1s1 .5 1 1-.4 1-1 1c-.5 0-1-.5-1-1zm-4 0c0-.5.4-1 1-1s1 .5 1 1-.4 1-1 1c-.5 0-1-.5-1-1zm-4 0c0-.5.4-1 1-1s1 .5 1 1-.4 1-1 1c-.5 0-1-.5-1-1zm-4 0c0-.5.4-1 1-1s1 .5 1 1-.4 1-1 1c-.5 0-1-.5-1-1zm-4 0c0-.5.4-1 1-1s1 .5 1 1-.4 1-1 1c-.5 0-1-.5-1-1zm-4 0c0-.5.4-1 1-1s1 .5 1 1-.4 1-1 1c-.5 0-1-.5-1-1zm-4 0c0-.5.4-1 1-1s1 .5 1 1-.4 1-1 1c-.5 0-1-.5-1-1zm-4 0c0-.5.4-1 1-1s1 .5 1 1-.4 1-1 1c-.5 0-1-.5-1-1zm-4 0c0-.5.4-1 1-1s1 .5 1 1-.4 1-1 1c-.5 0-1-.5-1-1zm-4 0c0-.5.4-1 1-1s1 .5 1 1-.4 1-1 1c-.5 0-1-.5-1-1zm-4 0c0-.5.4-1 1-1s1 .5 1 1-.4 1-1 1c-.5 0-1-.5-1-1zm-4 0c0-.5.4-1 1-1s1 .5 1 1-.4 1-1 1c-.5 0-1-.5-1-1zm-4 0c0-.5.4-1 1-1s1 .5 1 1-.4 1-1 1c-.5 0-1-.5-1-1zm-4 0c0-.5.4-1 1-1s1 .5 1 1-.4 1-1 1c-.5 0-1-.5-1-1zm-4 0c0-.5.4-1 1-1s1 .5 1 1-.4 1-1 1c-.5 0-1-.5-1-1zm-4 0c0-.5.4-1 1-1s1 .5 1 1-.4 1-1 1c-.5 0-1-.5-1-1zm-4 0c0-.5.4-1 1-1s1 .5 1 1-.4 1-1 1c-.5 0-1-.5-1-1zm-4 0c0-.5.4-1 1-1s1 .5 1 1-.4 1-1 1c-.5 0-1-.5-1-1zm-4 0c0-.5.4-1 1-1s1 .5 1 1-.4 1-1 1c-.5 0-1-.5-1-1zm-4 0c0-.5.4-1 1-1s1 .5 1 1-.4 1-1 1c-.5 0-1-.5-1-1z"/></g><g><path class="fyst6" d="M107.6 129.3h16v2h-16z"/></g><g><path class="fyst6" d="M114.6 137.3h9v2h-9z"/></g><g><path class="fyst6" d="M107.6 137.3h5v2h-5z"/></g><g><path class="fyst6" d="M32.6 137.3h9v2h-9z"/></g><g><path class="fyst6" d="M21.6 137.3h9v2h-9z"/></g><g><path class="fyst6" d="M43.6 137.3h9v2h-9z"/></g><g><path class="fyst4" d="M23.6 45.3v60h97v-60h-97zm37 37v-20l26 10-26 10z"/><path class="fyst6" d="M59.6 83.7V60.8l29.8 11.5-29.8 11.4zm2-20v17.1l22.2-8.5-22.2-8.6z"/><g><path class="fyst5" d="M63.6 66.6v11.3l14.6-5.6-14.6-5.7z"/></g></g><g><path class="fyst6" d="M26.6 95.2h90v2h-90z"/></g><g><path class="fyst6" d="M43.6 92.2h2v8h-2z"/></g><g><path class="fyst6" d="M33.6 177.2h-8v-8h8v8zm-6-2h4v-4h-4v4z"/></g><g><path class="fyst6" d="M40.6 172.2h78v2h-78z"/></g><path class="fyst6" d="M171.6 182.3l-1.2-3v1h-154V10.2h154v147.2l2 .8V8.2h-158v174.1h158v-1.6z"/><g><path class="fyst1" d="M127.2 38.4h2.4v109.8h-2.4zM127.2 156.3h2.4v24.2h-2.4z"/></g></g><g><path class="fyst6" d="M149.4 157.2h-48.6l-10.8-5 10.8-5h48.6c2.8 0 5 2.2 5 5s-2.2 5-5 5zm-48.2-2h48.2c1.7 0 3-1.3 3-3s-1.3-3-3-3h-48.2l-6.5 3 6.5 3z"/><path class="fyst6" d="M141.8 148.7h2v7.6h-2z"/><g><path class="fyst6" d="M101.8 151.2h41v2h-41z"/></g></g><g><path class="fyst1" d="M180.4 170.8l5.8 5.8 3.2-2zM182.6 178.7l-6.1-6.2-4.9 9.8-7.6-18.6-2.6-1.1 12.2 29.7 4.9-9.8 7 7.1 3-2.7-7.3-7.3z"/><g><path class="fyst2" d="M171.5 184.7l-14-33.9 32.1 13.7-8.8 5.3 8 8-4.2 4.2-7.8-7.8-5.3 10.5zm-10.2-30.2l10.5 25.3 4.5-9 8.4 8.4 1.4-1.4-8.4-8.4 7.7-4.6-24.1-10.3z"/></g></g><path class="fyst6" d="M121.6 156.3v4.9h-79v-5.3l-2-2.7h53.9l-2.2-.9 2.2-1.1H36.6l4 5.4v6.6h83v-6.9z"/></g></svg>