<?xml version="1.0" encoding="utf-8"?><svg id="fuLayer_1" xmlns="http://www.w3.org/2000/svg" xmlns:xlink="http://www.w3.org/1999/xlink" viewBox="0 0 193 193" width="193" height="193"><style>.fust0{clip-path:url(#fuSVGID_2_)}.fust1{fill:#ffd15d}.fust2{fill:#dededd}.fust3{fill:#475059}.fust4{fill:#f58e70}.fust5{fill:#48515a}.fust6{fill:#5fe0ed}.fust7{fill:#4f4f4f}</style><defs><path id="fuSVGID_1_" d="M0 0h193v193H0z"/></defs><clipPath id="fuSVGID_2_"><use xlink:href="#fuSVGID_1_" overflow="visible"/></clipPath><g class="fust0"><circle class="fust1" cx="37.5" cy="34.4" r="20.5"/><path class="fust2" d="M106 108.5c2.2 0 4-1.8 4-4s-1.8-4-4-4h-4c2.2 0 4 1.8 4 4s-1.8 4-4 4h-8c-2.2 0-4-1.8-4-4 0 .8.3 2.9.7 5H80.5c-1.8 0-3.6-.5-5-1.6-1.1-.9-2.6-1.4-4-1.4h-7.8v4.8h-13v3H13v15h37.6v-3h13v-4.8h7.8c1.4 0 2.8.5 3.9 1.3 1.5 1.1 3.2 1.7 5 1.7H101.9c2.2 0 4-1.8 4-4 0-1.5-.8-2.7-1.9-3.4v-.6h1.9c2.2 0 4-1.8 4-4 .1-2.2-1.7-4-3.9-4z"/><path class="fust3" d="M120 151.5H10c-1.7 0-3-1.3-3-3v-101c0-1.7 1.3-3 3-3h56v2H10c-.6 0-1 .4-1 1v101c0 .6.4 1 1 1h110v2zM170 151.5h-16v-2h16c.6 0 1-.4 1-1v-57h2v57c0 1.7-1.3 3-3 3z"/><path class="fust3" d="M119.8 142.5H11v-94h55v2H13v90h106.8zM169 142.5h-14.5v-2H167v-49h2zM86 144.5h8v2h-8z"/><circle class="fust1" cx="160.4" cy="146.1" r="1.6"/><circle class="fust4" cx="166.4" cy="146.1" r="1.6"/><path class="fust3" d="M73 151.5h2v8h-2z"/><g><path class="fust3" d="M103 151.5h2v8h-2z"/></g><g><path class="fust3" d="M66 158.5h46v2H66z"/></g><g><circle class="fust1" cx="71" cy="133" r="2"/><path class="fust5" d="M96 169.7h2v4h-2zM96 179.7h2v4h-2zM100 175.7h4v2h-4zM90 175.7h4v2h-4z"/><path transform="rotate(-90 31.817 91.23)" class="fust6" d="M8.8 72.4h46.1V110H8.8z"/><path class="fust5" d="M63.6 111.3h-13v-2h11v-37h-11v-2h13zM46.6 107.3c-.6 0-1-.4-1-1v-4c0-.6.4-1 1-1s1 .4 1 1v4c0 .5-.4 1-1 1z"/><path class="fust5" d="M46.6 111.3c-1.7 0-3-1.3-3-3s1.3-3 3-3 3 1.3 3 3-1.3 3-3 3zm0-4c-.6 0-1 .4-1 1s.4 1 1 1 1-.4 1-1-.4-1-1-1zM76 89.5c-.6 0-1-.4-1-1s.4-1 1-1c3.1 0 5.8-2.1 6.7-5l2.1-7.3h14.5c3.3 0 6-2.7 6-6l-25.3.1c-1 0-1.9.5-2.5 1.4l-5 7.7-9.8.2c-.5 0-1-.4-1-1s.4-1 1-1l8.8-.1 4.4-6.8c.9-1.4 2.5-2.2 4.2-2.3l27.1-.1v2c0 4.4-3.6 8-8 8h-13L84.6 83c-1.1 3.8-4.7 6.5-8.6 6.5z"/><path class="fust3" d="M102 109.5h-8c-2.8 0-5-2.2-5-5s2.2-5 5-5h8c2.8 0 5 2.2 5 5s-2.3 5-5 5zm-8-8c-1.7 0-3 1.3-3 3s1.3 3 3 3h8c1.7 0 3-1.3 3-3s-1.3-3-3-3h-8z"/><path class="fust3" d="M106 101.5H94c-2.8 0-5-2.2-5-5s2.2-5 5-5h12c2.8 0 5 2.2 5 5s-2.3 5-5 5zm-12-8c-1.7 0-3 1.3-3 3s1.3 3 3 3h12c1.7 0 3-1.3 3-3s-1.3-3-3-3H94z"/><path class="fust3" d="M106 93.5H94c-2.8 0-5-2.2-5-5s2.2-5 5-5h12c2.8 0 5 2.2 5 5s-2.3 5-5 5zm-12-8c-1.7 0-3 1.3-3 3s1.3 3 3 3h12c1.7 0 3-1.3 3-3s-1.3-3-3-3H94z"/><path class="fust3" d="M106 85.5H94c-2.8 0-5-2.2-5-5s2.2-5 5-5h12c2.8 0 5 2.2 5 5s-2.3 5-5 5zm-12-8c-1.7 0-3 1.3-3 3s1.3 3 3 3h12c1.7 0 3-1.3 3-3s-1.3-3-3-3H94zM94 109.5H80.5c-1.8 0-3.6-.6-5.1-1.7-1.1-.8-2.5-1.3-3.9-1.3H62v-2h9.5c1.8 0 3.6.6 5.1 1.7 1.1.8 2.5 1.3 3.9 1.3H94v2zM114 64.5H78v-29h36v29zm-34-2h32v-25H80v25z"/><path class="fust3" d="M173 88.5h-5.2l-55.2-24.1.8-1.8 54.8 23.9h2.8v-73h-2.8l-54.8 23.9-.8-1.8 55.2-24.1h5.2zM106 40.5c0-.6.5-1 1-1 .6 0 1 .4 1 1 0 .5-.4 1-1 1s-1-.5-1-1zm-4 0c0-.6.5-1 1-1 .6 0 1 .4 1 1 0 .5-.4 1-1 1s-1-.5-1-1zm-4 0c0-.6.5-1 1-1 .6 0 1 .4 1 1 0 .5-.4 1-1 1s-1-.5-1-1zm-4 0c0-.6.5-1 1-1 .6 0 1 .4 1 1 0 .5-.4 1-1 1s-1-.5-1-1zm-4 0c0-.6.4-1 1-1s1 .4 1 1c0 .5-.4 1-1 1s-1-.5-1-1zm-4 0c0-.6.4-1 1-1 .5 0 1 .4 1 1 0 .5-.5 1-1 1-.6 0-1-.5-1-1zm-4 0c0-.6.4-1 1-1 .5 0 1 .4 1 1 0 .5-.5 1-1 1-.6 0-1-.5-1-1zM85 63.5h2v5h-2zM90 98.5h-5v-22h2v20h3z"/><g><path class="fust3" d="M97 63.5h2v4h-2z"/></g><g><path class="fust3" d="M78.7 59.7H69V40.5h9v2h-7v15.2h7.7z"/></g><g><path class="fust2" d="M168.6 84.5h.4v-51l-53 12v16.1l52.6 22.9z"/></g><g><path class="fust5" d="M177 17.5c-.4 0-.7-.2-.9-.6-.2-.5 0-1.1.4-1.3l8-4c.5-.2 1.1 0 1.3.4.2.5 0 1.1-.4 1.3l-8 4c-.1.2-.3.2-.4.2z"/></g><g><path class="fust5" d="M185 87.5c-.2 0-.3 0-.4-.1l-8-4c-.5-.2-.7-.8-.4-1.3.2-.5.8-.7 1.3-.4l8 4c.5.2.7.8.4 1.3-.2.3-.5.5-.9.5z"/></g><g><path class="fust5" d="M185 50.5h-8c-.6 0-1-.4-1-1s.4-1 1-1h8c.6 0 1 .4 1 1s-.5 1-1 1z"/></g><g><path class="fust5" d="M177 34c-.4 0-.8-.3-1-.7-.2-.5.1-1.1.7-1.3l8-2.5c.5-.2 1.1.1 1.3.7.2.5-.1 1.1-.7 1.3l-8 2.5h-.3z"/></g><g><path class="fust5" d="M185 69.5h-.3l-8-2.5c-.5-.2-.8-.7-.7-1.3.2-.5.7-.8 1.3-.7l8 2.5c.5.2.8.7.7 1.3-.2.4-.6.7-1 .7z"/></g><g><circle class="fust1" cx="114.5" cy="24" r="1.5"/></g><g><circle class="fust6" cx="95" cy="3.5" r="3"/></g><g><path class="fust5" d="M72 12.5h2v4h-2zM72 22.5h2v4h-2z"/><g><path class="fust5" d="M76 18.5h4v2h-4zM66 18.5h4v2h-4z"/></g></g></g><g><path class="fust5" d="M50.7 65.5h-3.3c-4.9 0-9.6-2.6-12.2-6.8-3.9-.3-7.8-1.7-11.1-3.8l-1.4-1c-2.7-2-4.9-4.5-6.6-7.4l-.1-.3c-4.3-8-3.9-17.6 1.1-25.2 7.1-10.7 21.3-14 32.4-7.6 5.9 3.4 10 8.9 11.6 15.4 1.6 6.6.4 13.3-3.2 19-3 4.6-7.5 8.1-12.8 9.9v.3c0 1 .2 1.9.7 2.7.4.7.9 1.3 1.5 1.8 1 .8 2.2 1.2 3.5 1.2.6 0 1 .4 1 1-.1.4-.5.8-1.1.8zm-33-20.3l.2.3c1.5 2.7 3.6 5 6 6.8l1.3.9c3.1 2 6.8 3.3 10.6 3.5.3 0 .6.2.8.5 1.9 3.3 5.1 5.5 8.7 6.1-.5-.5-1-1.1-1.4-1.8-.6-1.1-1-2.4-1-3.7v-1c0-.4.3-.8.7-1 5.1-1.5 9.5-4.8 12.4-9.3 3.4-5.2 4.4-11.4 3-17.4-1.5-6-5.2-11-10.6-14.1-10-5.8-23.3-2.6-29.7 7-4.5 7-4.9 15.8-1 23.2z"/></g><g><path class="fust4" d="M136.5 127.5c-10.2 0-18.5-8.3-18.5-18.5s8.3-18.5 18.5-18.5S155 98.8 155 109s-8.3 18.5-18.5 18.5zm0-35c-9.1 0-16.5 7.4-16.5 16.5s7.4 16.5 16.5 16.5S153 118.1 153 109s-7.5-16.5-16.5-16.5z"/><path class="fust7" d="M128.5 104l-1.7-1c.7-1.3 2.1-2.1 3.5-2.1 1.5 0 2.8.8 3.5 2.1l-1.7 1c-.4-.7-1.1-1.1-1.8-1.1s-1.5.5-1.8 1.1zM140.8 104l-1.7-1c.7-1.3 2.1-2.1 3.5-2.1 1.5 0 2.8.8 3.5 2.1l-1.7 1c-.4-.7-1.1-1.1-1.8-1.1s-1.4.5-1.8 1.1zM136.5 121c-6.1 0-11-4.9-11-11v-1h22v1c0 6-5 11-11 11zm-9-10c.5 4.5 4.3 8 8.9 8s8.4-3.5 8.9-8h-17.8z"/></g><g><path class="fust5" d="M155 192.5h-36v-57h36v57zm-34-2h32v-53h-32v53z"/><path class="fust5" d="M131 147.5h-8v-6h8v6zm-6-2h4v-2h-4v2zM141 147.5h-8v-6h8v6zm-6-2h4v-2h-4v2zM151 147.5h-8v-6h8v6zm-6-2h4v-2h-4v2zM131 155.5h-8v-6h8v6zm-6-2h4v-2h-4v2zM141 155.5h-8v-6h8v6zm-6-2h4v-2h-4v2zM151 155.5h-8v-6h8v6zm-6-2h4v-2h-4v2zM131 163.5h-8v-6h8v6zm-6-2h4v-2h-4v2zM131 171.5h-8v-6h8v6zm-6-2h4v-2h-4v2zM137 171.5c-2.2 0-4-1.8-4-4v-6c0-2.2 1.8-4 4-4s4 1.8 4 4v6c0 2.2-1.8 4-4 4zm0-12c-1.1 0-2 .9-2 2v6c0 1.1.9 2 2 2s2-.9 2-2v-6c0-1.1-.9-2-2-2zM147 171.5c-2.2 0-4-1.8-4-4v-6c0-2.2 1.8-4 4-4s4 1.8 4 4v6c0 2.2-1.8 4-4 4zm0-12c-1.1 0-2 .9-2 2v6c0 1.1.9 2 2 2s2-.9 2-2v-6c0-1.1-.9-2-2-2zM131 179.5h-8v-6h8v6zm-6-2h4v-2h-4v2zM141 179.5h-8v-6h8v6zm-6-2h4v-2h-4v2z"/><g><path class="fust5" d="M151 179.5h-8v-6h8v6zm-6-2h4v-2h-4v2z"/></g></g></g></svg>