<?xml version="1.0" encoding="utf-8"?><svg id="gfLayer_1" xmlns="http://www.w3.org/2000/svg" xmlns:xlink="http://www.w3.org/1999/xlink" viewBox="0 0 193 193" width="193" height="193"><style>.gfst0{clip-path:url(#gfSVGID_2_)}.gfst1{fill:#ffd15d}.gfst2{fill:#dededd}.gfst3{fill:#48515a}.gfst4{fill:#5fe0ed}.gfst5{fill:#475059}.st6,.st7{fill:none;stroke:#48515a;stroke-width:2;stroke-linejoin:round;stroke-miterlimit:10}.st7{stroke-linecap:round}</style><defs><path id="gfSVGID_1_" d="M0 0h193v193H0z"/></defs><clipPath id="gfSVGID_2_"><use xlink:href="#gfSVGID_1_" overflow="visible"/></clipPath><g class="gfst0"><path class="gfst1" d="M95.6 51.3l-38.8-24v43.3h78v-44L95.6 51.3zm27.1 16.4h-20.6V62h20.6v5.7z"/><path class="gfst2" d="M49.5 7v6h92V7h-92zm3 4.5c-.6 0-1-.4-1-1s.4-1 1-1 1 .4 1 1-.4 1-1 1zm4 0c-.6 0-1-.4-1-1s.4-1 1-1 1 .4 1 1-.4 1-1 1zm4 0c-.6 0-1-.4-1-1s.4-1 1-1 1 .4 1 1-.4 1-1 1z"/><path class="gfst3" d="M90.2 161H101v2H90.2z"/><path class="gfst2" d="M167.3 103.3l-15.8-6.8-2.4 1.4 8.2 8.2-2.9 2.7-8-7.9-1.7 3.4 6.9 16.6 4.8-9.7 7.1 7.1 2.9-2.8-7.3-7.3zM81.6 139.3h28.1v11.9H81.6z"/><path class="gfst2" d="M110.7 152.2H80.6v-13.9h30.1v13.9zm-28.1-2h26.1v-9.9H82.6v9.9zM119.4 113.3h6.5v4.3h-6.5z"/><path class="gfst2" d="M126.9 118.6h-8.5v-6.3h8.5v6.3zm-6.5-2h4.5v-2.3h-4.5v2.3zM65.3 113.3h6.5v4.3h-6.5z"/><path class="gfst2" d="M72.8 118.6h-8.5v-6.3h8.5v6.3zm-6.5-2h4.5v-2.3h-4.5v2.3zM135.7 121.9h6.5v4.3h-6.5z"/><path class="gfst2" d="M143.2 127.3h-8.5V121h8.5v6.3zm-6.5-2h4.5V123h-4.5v2.3zM124.8 121.9h6.5v4.3h-6.5z"/><path class="gfst2" d="M132.3 127.3h-8.5V121h8.5v6.3zm-6.5-2h4.5V123h-4.5v2.3zM114 121.9h6.5v4.3H114z"/><path class="gfst2" d="M121.5 127.3H113V121h8.5v6.3zm-6.5-2h4.5V123H115v2.3zM103.2 121.9h6.5v4.3h-6.5z"/><path class="gfst2" d="M110.7 127.3h-8.5V121h8.5v6.3zm-6.5-2h4.5V123h-4.5v2.3zM81.6 121.9h6.5v4.3h-6.5z"/><path class="gfst2" d="M89 127.3h-8.5V121H89v6.3zm-6.4-2H87V123h-4.5v2.3zM70.7 121.9h6.5v4.3h-6.5z"/><path class="gfst2" d="M78.2 127.3h-8.5V121h8.5v6.3zm-6.5-2h4.5V123h-4.5v2.3zM59.9 121.9h6.5v4.3h-6.5z"/><path class="gfst2" d="M67.4 127.3h-8.5V121h8.5v6.3zm-6.5-2h4.5V123h-4.5v2.3zM49.1 121.9h6.5v4.3h-6.5z"/><path class="gfst2" d="M56.6 127.3h-8.5V121h8.5v6.3zm-6.5-2h4.5V123h-4.5v2.3zM130.3 130.6h6.5v4.3h-6.5z"/><path class="gfst2" d="M137.7 135.9h-8.5v-6.3h8.5v6.3zm-6.4-2h4.5v-2.3h-4.5v2.3zM119.4 130.6h6.5v4.3h-6.5z"/><path class="gfst2" d="M126.9 135.9h-8.5v-6.3h8.5v6.3zm-6.5-2h4.5v-2.3h-4.5v2.3zM108.6 130.6h6.5v4.3h-6.5z"/><path class="gfst2" d="M116.1 135.9h-8.5v-6.3h8.5v6.3zm-6.5-2h4.5v-2.3h-4.5v2.3zM76.1 130.6h6.5v4.3h-6.5z"/><path class="gfst2" d="M83.6 135.9h-8.5v-6.3h8.5v6.3zm-6.5-2h4.5v-2.3h-4.5v2.3zM65.3 130.6h6.5v4.3h-6.5z"/><path class="gfst2" d="M72.8 135.9h-8.5v-6.3h8.5v6.3zm-6.5-2h4.5v-2.3h-4.5v2.3zM54.5 130.6H61v4.3h-6.5z"/><path class="gfst2" d="M62 135.9h-8.5v-6.3H62v6.3zm-6.5-2H60v-2.3h-4.5v2.3z"/><path class="gfst3" d="M43.4 88.8h-2v-48c0-1.7 1.4-3.2 3.2-3.2h4.9v2h-4.9c-.6 0-1.2.5-1.2 1.2v48zM147.2 63.6h2v5h-2z"/><path class="gfst3" d="M149.2 89.5h-2V40.8c0-.6-.5-1.2-1.2-1.2h-4.5v-2h4.5c1.7 0 3.2 1.4 3.2 3.2v48.7z"/><path class="gfst2" d="M54.5 113.3H61v4.3h-6.5z"/><path class="gfst2" d="M62 118.6h-8.5v-6.3H62v6.3zm-6.5-2H60v-2.3h-4.5v2.3zM76.1 113.3h6.5v4.3h-6.5z"/><path class="gfst2" d="M83.6 118.6h-8.5v-6.3h8.5v6.3zm-6.5-2h4.5v-2.3h-4.5v2.3zM87 113.3h6.5v4.3H87z"/><path class="gfst2" d="M94.5 118.6H86v-6.3h8.5v6.3zm-6.5-2h4.5v-2.3H88v2.3zM97.8 113.3h6.5v4.3h-6.5z"/><path class="gfst2" d="M105.3 118.6h-8.5v-6.3h8.5v6.3zm-6.5-2h4.5v-2.3h-4.5v2.3zM108.6 113.3h6.5v4.3h-6.5z"/><path class="gfst2" d="M116.1 118.6h-8.5v-6.3h8.5v6.3zm-6.5-2h4.5v-2.3h-4.5v2.3zM130.3 113.3h6.5v4.3h-6.5z"/><path class="gfst2" d="M137.7 118.6h-8.5v-6.3h8.5v6.3zm-6.4-2h4.5v-2.3h-4.5v2.3z"/><g><path class="gfst2" d="M92.4 121.9h6.5v4.3h-6.5z"/><path class="gfst2" d="M99.9 127.3h-8.5V121h8.5v6.3zm-6.5-2h4.5V123h-4.5v2.3z"/></g><g><path class="gfst2" d="M87 130.6h6.5v4.3H87z"/><path class="gfst2" d="M94.5 135.9H86v-6.3h8.5v6.3zm-6.5-2h4.5v-2.3H88v2.3z"/></g><g><path class="gfst2" d="M97.8 130.6h6.5v4.3h-6.5z"/><path class="gfst2" d="M105.3 135.9h-8.5v-6.3h8.5v6.3zm-6.5-2h4.5v-2.3h-4.5v2.3z"/></g><g><path class="gfst3" d="M39.4 152.3h11.2v2H39.4z"/></g><g><path class="gfst3" d="M142.4 152.3h9.5v2h-9.5z"/></g><g><path class="gfst3" d="M93.5 154.5h4.3v2h-4.3z"/></g><g><path transform="matrix(1 -.00586 .00586 1 -1.051 .732)" class="gfst4" d="M109 172.4h30.5V187H109z"/><path class="gfst4" d="M53.3 172.4h30.5V187H53.3z"/><path class="gfst3" d="M135.1 173.4c-.6 0-1-.4-1-1v-4.2c0-.2-.1-.4.1-.8 2.5-6.4 3.7-12.9 3.7-19.4v-14.9c0-1.4-1.2-2.7-2.5-2.8-.7 0-1.4.2-1.9.7-.4.4-.7.9-.8 1.4v11.4c0 .6-.4 1-1 1s-1-.4-1-1v-10.9-3.7c0-1.4-1.1-3.3-2.4-3.4-.8-.1-1.5.2-2.1.7-.6.5-.9 1.2-.9 2v15.3c0 .6-.4 1-1 1s-1-.4-1-1v-18.5c0-1.4-1.1-2.7-2.4-2.8-.8-.1-1.6.2-2.2.8-.6.5-.9 1.2-.9 1.9V144c0 .6-.4 1-1 1s-1-.4-1-1v-15.6c0-1.4-1-2.7-2.3-2.9-.8-.1-1.6.1-2.2.6-.6.5-.9 1.2-.9 2V152c0 .6-.4 1-1 1s-1-.4-1-1v-6.1c0-1.5-1.2-2.6-2.6-2.6a2.732 2.732 0 0 0-2.7 2.7v4.9c-.1 4.3.9 6.9 3.4 9.4l4.9 5.7c.6.6 1.1 1.8 1.1 2.8v3.6c0 .6-.4 1-1 1s-1-.4-1-1v-3.6c0-.4-.3-1.1-.6-1.4l-4.9-5.7c-2.8-2.8-4-6-3.9-10.8V146c0-1.2.5-2.4 1.4-3.3.9-.9 2-1.4 3.3-1.4 1 0 1.9.3 2.6.8v-14c0-1.4.6-2.7 1.6-3.5 1-.9 2.4-1.3 3.8-1.1.8.1 1.5.4 2.1.9.2-1 .7-1.8 1.4-2.5 1-.9 2.3-1.4 3.7-1.3 2.1.2 3.9 2 4.2 4.2.9-.6 2-1 3.2-.8 2.4.2 4.1 2.9 4.2 5.2.8-.6 1.8-.8 2.8-.8 2.4.1 4.4 2.3 4.4 4.8v14.9c0 6.6-1.3 13.3-3.8 19.9V172.4c.1.5-.3 1-.9 1zm1-5.2zm0-.3z"/><path class="gfst3" d="M113.6 148c-.1 0-.3 0-.4-.1-.1-.1-.2-.1-.3-.2-.2-.2-.3-.4-.3-.7 0-.1 0-.3.1-.4 0-.1.1-.2.2-.3l.1-.1c.1 0 .1-.1.2-.1h.2c.3-.1.7 0 .9.3.1.1.2.2.2.3 0 .1.1.2.1.4 0 .3-.1.5-.3.7-.2.1-.5.2-.7.2zM120.9 148c-.1 0-.3 0-.4-.1-.1-.1-.2-.1-.3-.2-.2-.2-.3-.5-.3-.7 0-.3.1-.5.3-.7.4-.4 1-.4 1.4 0 .1.1.2.2.2.3 0 .1.1.2.1.4 0 .3-.1.5-.3.7-.1.1-.2.2-.3.2-.1 0-.3.1-.4.1zM128.2 148c-.1 0-.3 0-.4-.1-.1-.1-.2-.1-.3-.2-.2-.2-.3-.5-.3-.7 0-.1 0-.3.1-.4 0-.1.1-.2.2-.3.1-.1.2-.2.3-.2.4-.1.8-.1 1.1.2.1.1.2.2.2.3 0 .1.1.2.1.4 0 .3-.1.5-.3.7-.1.2-.4.3-.7.3zM135.6 148c-.1 0-.3 0-.4-.1-.1-.1-.2-.1-.3-.2-.2-.2-.3-.4-.3-.7 0-.1 0-.3.1-.4 0-.1.1-.2.2-.3.2-.2.6-.3.9-.3h.2c.1 0 .1.1.2.1l.1.1c.1.1.2.2.2.3 0 .1.1.2.1.4 0 .3-.1.5-.3.7-.1.1-.2.2-.3.2-.2.1-.3.2-.4.2zM108.9 171.4h30.5v2h-30.5z"/><g><path class="gfst3" d="M131.7 180.6c-.3 0-.5-.1-.7-.3-.1-.1-.2-.2-.2-.3-.1-.1-.1-.2-.1-.4 0-.1 0-.3.1-.4 0-.1.1-.2.2-.3 0 0 .1-.1.2-.1 0 0 .1-.1.2-.1s.1 0 .2-.1c.3-.1.7 0 .9.3.1.1.2.2.2.3 0 .1.1.2.1.4 0 .1 0 .3-.1.4s-.1.2-.2.3c-.1.1-.2.2-.3.2s-.4.1-.5.1z"/></g><g><path class="gfst3" d="M81.1 173.4c-.6 0-1-.4-1-1v-3.6c0-1 .5-2.2 1.2-2.9l4.8-5.6c2.6-2.6 3.5-5.2 3.4-9.4V146a2.732 2.732 0 0 0-2.7-2.7c-1.5 0-2.6 1.2-2.6 2.6v6.1c0 .6-.4 1-1 1s-1-.4-1-1v-23.9c0-.8-.3-1.5-.9-2-.6-.5-1.4-.7-2.2-.6-1.3.2-2.3 1.4-2.3 2.8v15.6c0 .6-.4 1-1 1s-1-.4-1-1v-18.6c0-.7-.3-1.4-.9-1.9-.6-.5-1.4-.8-2.2-.8-1.3.1-2.4 1.4-2.4 2.8V144c0 .6-.4 1-1 1s-1-.4-1-1v-15.3c0-.7-.3-1.5-.9-2-.6-.5-1.3-.7-2.1-.7-1.3.1-2.4 2-2.4 3.4V144c0 .6-.4 1-1 1s-1-.4-1-1v-11.4c-.1-.5-.4-1-.8-1.4-.5-.5-1.2-.8-1.9-.7-1.3.1-2.5 1.4-2.5 2.8v14.9c0 6.4 1.3 12.9 3.7 19.4.1.3.1.6.1.7v4.2c0 .6-.4 1-1 1s-1-.4-1-1v-4.3-.1c-2.5-6.6-3.8-13.3-3.8-19.9v-14.9c0-2.5 2-4.6 4.4-4.8 1 0 2 .2 2.8.8.1-2.3 1.8-5 4.2-5.2 1.1-.1 2.2.2 3.2.8.3-2.2 2.1-4 4.2-4.2 1.3-.1 2.7.3 3.7 1.3.7.7 1.2 1.6 1.4 2.5.6-.5 1.3-.8 2.1-.9 1.4-.2 2.7.2 3.8 1.1 1 .9 1.6 2.2 1.6 3.5v14c.8-.5 1.7-.8 2.6-.8 1.2 0 2.4.5 3.3 1.4.9.9 1.4 2.1 1.4 3.3v4.9c.1 4.8-1.1 7.9-4 10.8l-4.8 5.6c-.4.4-.6 1.1-.6 1.5v3.6c.1.4-.4.9-.9.9z"/><path class="gfst3" d="M57.5 148c-.1 0-.3 0-.4-.1-.1-.1-.2-.1-.3-.2-.1-.1-.2-.2-.2-.3-.1-.1-.1-.2-.1-.4 0-.1 0-.3.1-.4 0-.1.1-.2.2-.3.4-.4 1-.4 1.4 0 .1.1.2.2.2.3.1.1.1.2.1.4 0 .3-.1.5-.3.7-.1.1-.2.2-.3.2-.1 0-.2.1-.4.1zM64.9 148c-.1 0-.3 0-.4-.1-.1-.1-.2-.1-.3-.2-.2-.2-.3-.4-.3-.7 0-.1 0-.3.1-.4 0-.1.1-.2.2-.3l.1-.1s.1-.1.2-.1h.2c.3-.1.7 0 .9.3.1.1.2.2.2.3 0 .1.1.2.1.4 0 .3-.1.5-.3.7-.2.1-.5.2-.7.2zM72.2 148c-.3 0-.5-.1-.7-.3-.2-.2-.3-.5-.3-.7 0-.1 0-.3.1-.4.1-.1.1-.2.2-.3.4-.4 1-.4 1.4 0 .1.1.2.2.2.3 0 .1.1.2.1.4 0 .3-.1.5-.3.7-.2.2-.4.3-.7.3zM79.6 148c-.1 0-.3 0-.4-.1-.1-.1-.2-.1-.3-.2-.2-.2-.3-.4-.3-.7 0-.1 0-.3.1-.4 0-.1.1-.2.2-.3.2-.2.6-.3.9-.3h.2c.1 0 .1.1.2.1s.1.1.1.1c.1.1.2.2.2.3.1.1.1.2.1.4 0 .3-.1.5-.3.7-.1.1-.2.2-.3.2-.2.1-.3.2-.4.2z"/></g><g><path class="gfst3" d="M53.3 171.4h30.5v2H53.3z"/></g><g><path class="gfst3" d="M61 180.6c-.3 0-.5-.1-.7-.3-.2-.2-.3-.4-.3-.7 0-.1 0-.3.1-.4.1-.1.1-.2.2-.3.1-.1.2-.2.3-.2.2-.1.4-.1.6-.1.1 0 .1 0 .2.1.1 0 .1.1.2.1s.1.1.1.1c.1.1.2.2.2.3 0 .1.1.2.1.4 0 .3-.1.5-.3.7-.1.1-.2.2-.3.2s-.2.1-.4.1z"/></g></g><g><path class="gfst5" d="M141.7 71.5h15v2h-15zM31.7 71.5h18v2h-18z"/><path class="gfst5" d="M163.3 77.6h-21.6v-2h21.6c1.7 0 3-1.3 3-3 0-.8-.3-1.6-.9-2.1-.6-.6-1.3-.9-2.1-.9h-21.6v-2h21.6c1.3 0 2.6.5 3.5 1.5s1.5 2.2 1.5 3.5c0 2.7-2.2 5-5 5z"/><path class="gfst5" d="M155.7 69h2v7.6h-2z"/><g><path class="gfst5" d="M49.6 77.6H30.7l-10.9-5 10.9-5h18.9v2H31.1l-6.5 3 6.5 3h18.5z"/></g></g><g><path class="gfst3" d="M140.5 7h2v57.5h-2z"/></g><g><path class="gfst3" d="M142.5 87V63.1h-2v23zM137.9 102H50.5V8h92V6h-94v98h90.2z"/><g><path class="gfst3" d="M141.5 113.3l-14-33.9 32.1 13.7-8.8 5.3 8 8-4.2 4.2-7.8-7.8-5.3 10.5zm-10.3-30.1l10.5 25.3 4.5-9 8.4 8.4 1.4-1.4-8.4-8.4 7.7-4.6-24.1-10.3z"/></g></g><g><path class="gfst3" d="M175.8 89.9h2v4h-2zM175.8 99.9h2v4h-2z"/><g><path class="gfst3" d="M179.8 95.9h4v2h-4zM169.8 95.9h4v2h-4z"/></g></g><g><path class="gfst3" d="M16.7 149.9h2v4h-2zM16.7 159.9h2v4h-2z"/><g><path class="gfst3" d="M20.7 155.9h4v2h-4zM10.7 155.9h4v2h-4z"/></g></g><g><circle class="gfst4" cx="164.6" cy="87.5" r="2.8"/></g><g><circle class="gfst4" cx="36.5" cy="30.4" r="2.8"/></g><g><ellipse class="gfst1" cx="159.8" cy="171.4" rx="1.5" ry="1.6"/></g><g><path class="gfst3" d="M35.6 157.5v-5.8l6-32.7c-.7.8-1.6 1.5-2.4 2.2l-5.5 30.2v6.1c0 2.7 2.2 4.9 4.9 4.9h14.2v-2H38.5c-1.6.1-2.9-1.3-2.9-2.9zM149.1 107.8H46.4c0 .7-.1 1.3-.2 2h101.2l7.7 42v5.8c0 1.6-1.3 2.9-2.9 2.9h-12v2h12c2.7 0 4.9-2.2 4.9-4.9v-5.9l-8-43.9z"/><g><path class="gfst5" d="M28.3 125.8c-4.8 0-9.4-1.8-13-5.1-3.8-3.5-5.9-8.2-6.1-13.3-.2-5.1 1.6-10 5.1-13.7 3.5-3.8 8.2-5.9 13.3-6.1 2.8-.1 5.6.4 8.2 1.5l11.4-2.4L45.3 98c1.3 2.5 2 5.2 2.1 8 .4 10.5-7.8 19.5-18.4 19.9-.2-.1-.4-.1-.7-.1zm.1-36.3h-.7c-4.6.2-8.8 2.1-11.9 5.5-3.1 3.4-4.7 7.7-4.5 12.3.2 4.6 2.1 8.8 5.5 11.9 3.4 3.1 7.7 4.7 12.3 4.5 9.4-.4 16.8-8.3 16.5-17.8-.1-2.6-.8-5.1-2-7.5l-.2-.3 1.5-9-9.2 1.9h-.4c-2.2-1-4.6-1.5-6.9-1.5z"/></g></g><g><path class="gfst1" d="M56.7 23.7l4.2 3 34.7 20.4 37.9-23.4z"/><path class="gfst3" d="M138.8 74.7H52.9V20h85.9v54.7zm-83.9-2h81.9V22H54.9v50.7z"/><path class="gfst3" d="M95.6 48.9L53.3 22.6l1.1-1.7 41.2 25.6 41.7-26.4 1 1.7zM133 69.6c-.3 0-.6-.1-.8-.4l-22-26.4c-.4-.4-.3-1.1.1-1.4.4-.4 1.1-.3 1.4.1l22 26.4c.4.4.3 1.1-.1 1.4-.2.2-.4.3-.6.3z"/><path class="gfst5" d="M104.6 63.8h11.2v2h-11.2z"/><g><path class="gfst3" d="M59 68.7c-.2 0-.4-.1-.6-.2-.4-.4-.5-1-.1-1.4l21-25.5c.4-.4 1-.5 1.4-.1.4.4.5 1 .1 1.4l-21 25.5c-.2.2-.5.3-.8.3z"/></g></g><g><path class="gfst3" d="M90.6 77.7h2v6.2h-2zM91.6 88.2c-.3 0-.5-.1-.7-.3-.1-.1-.2-.2-.2-.3-.1-.1-.1-.2-.1-.4 0-.1 0-.3.1-.4 0-.1.1-.2.2-.3.3-.3.7-.4 1.1-.2.1 0 .2.1.3.2.1.1.2.2.2.3 0 .1.1.3.1.4 0 .1 0 .3-.1.4s-.1.2-.2.3c-.2.2-.5.3-.7.3zM94.6 77.6h2v15.6h-2zM95.6 98c-.1 0-.3 0-.4-.1s-.2-.1-.3-.2c-.1-.1-.2-.2-.2-.3-.1-.1-.1-.2-.1-.4 0-.3.1-.5.3-.7l.1-.1c.1 0 .1-.1.2-.1s.1 0 .2-.1c.3-.1.7 0 .9.3.2.2.3.4.3.7 0 .3-.1.5-.3.7-.2.2-.5.3-.7.3zM98.6 77.6h2v10.2h-2zM99.6 92.2c-.1 0-.3 0-.4-.1-.1-.1-.2-.1-.3-.2-.2-.2-.3-.4-.3-.7 0-.1 0-.3.1-.4.1-.1.1-.2.2-.3.2-.2.6-.3.9-.3h.2c.1 0 .1.1.2.1s.1.1.2.1c.1.1.2.2.2.3 0 .1.1.3.1.4 0 .1 0 .3-.1.4s-.1.2-.2.3c-.3.3-.6.4-.8.4z"/></g><g><path class="gfst3" d="M20.6 102h15.8v2H20.6z"/></g><g><path class="gfst3" d="M20.6 106h15.8v2H20.6z"/></g><g><path class="gfst3" d="M20.6 110h15.8v2H20.6z"/></g></g></svg>