<?xml version="1.0" encoding="utf-8"?><svg id="fgLayer_1" xmlns="http://www.w3.org/2000/svg" xmlns:xlink="http://www.w3.org/1999/xlink" viewBox="0 0 193 193" width="193" height="193"><style>.fgst0{clip-path:url(#fgSVGID_2_)}.fgst1{fill:#ffd15d}.fgst2{fill:#48515a}.fgst3{fill:#475059}.fgst4{fill:#f58e70}</style><defs><path id="fgSVGID_1_" d="M0 0h193v193H0z"/></defs><clipPath id="fgSVGID_2_"><use xlink:href="#fgSVGID_1_" overflow="visible"/></clipPath><g class="fgst0"><path class="fgst1" d="M63.5 136.4v17l8-4 8 4v-17l-7.8 3.2zM125 25.4v23.8h23.9"/><path class="fgst2" d="M149.9 169.4H42.5v-145h17.7c.6 0 1 .4 1 1s-.4 1-1 1H44.5v141.1h103.3V49.6l-23.3-23.3H69.7c-.6 0-1-.4-1-1s.4-1 1-1h55.7l24.4 24.4v120.7z"/><path class="fgst2" d="M65 26.4c-.3 0-.5-.1-.7-.3-.1-.1-.2-.2-.2-.3-.1-.2-.1-.3-.1-.4 0-.1 0-.2.1-.4 0-.1.1-.2.2-.3.4-.4 1-.4 1.4 0 .1.1.2.2.2.3 0 .1.1.2.1.4 0 .1 0 .3-.1.4-.1.1-.1.2-.2.3-.2.2-.5.3-.7.3z"/><path class="fgst3" d="M187.5 162.5H128l-8.4-2.5v-5l8.6-2.5h59.4c2.8 0 5 2.2 5 5-.1 2.8-2.3 5-5.1 5zm-59.2-2h59.3c1.7 0 3-1.3 3-3s-1.3-3-3-3h-59.3l-6.7 2v2l6.7 2z"/><path class="fgst2" d="M121.5 162.2h-5.1v-9.4h5.1v9.4zm-3-2h1.1v-5.4h-1.1v5.4z"/><path class="fgst2" d="M112.1 164.5l-13.1-7 13.1-7 .5.8s1 1.4 2 2.1c1.4.8 3 1.1 3 1.1l.8.1v5.9l-.8.1s-1.6.3-3 1.1c-1.1.6-2 2.1-2 2.1l-.5.7zm-8.9-7l8.3 4.4c.5-.6 1.2-1.4 2.1-2 1-.6 2.1-1 2.9-1.2v-2.6c-.7-.2-1.8-.5-2.9-1.2-.9-.5-1.6-1.4-2.1-2l-8.3 4.6z"/><path class="fgst2" d="M110.9 158.5H108c-.6 0-1-.4-1-1s.4-1 1-1h2.9c.6 0 1 .4 1 1s-.4 1-1 1zM72 139.9c-7.2 0-13-5.8-13-13s5.8-13 13-13 13 5.8 13 13-5.8 13-13 13zm0-24c-6.1 0-11 4.9-11 11s4.9 11 11 11 11-4.9 11-11c0-6-4.9-11-11-11z"/><circle class="fgst1" cx="72" cy="126.9" r="8"/><path class="fgst2" d="M102.5 121.4h29.1v2h-29.1zM102.5 125.4h21v2h-21zM108.5 142.4c-3.3 0-6-2.7-6-6s2.7-6 6-6 6 2.7 6 6v2c0 .6.4 1 1 1s1-.4 1-1c0-1.7 1.3-3 3-3s3 1.3 3 3c0 .6.4 1 1 1s1 .4 1 1-.4 1-1 1c-1.7 0-3-1.3-3-3 0-.6-.4-1-1-1s-1 .4-1 1c0 1.7-1.3 3-3 3s-3-1.3-3-3v-2c0-2.2-1.8-4-4-4s-4 1.8-4 4 1.8 4 4 4c.6 0 1 .4 1 1 0 .5-.4 1-1 1zM127.5 141.4c-.1 0-.3 0-.4-.1-.1 0-.2-.1-.3-.2-.2-.2-.3-.4-.3-.7 0-.1 0-.3.1-.4 0-.1.1-.2.2-.3.1-.1.2-.2.3-.2.2-.1.4-.1.6-.1.1 0 .1 0 .2.1.1 0 .1.1.2.1s.1.1.2.1c.1.1.2.2.2.3.1.1.1.3.1.4 0 .3-.1.5-.3.7-.1.1-.2.2-.3.2-.2 0-.3.1-.5.1zM98.5 145.4c-.3 0-.5-.1-.7-.3-.1-.1-.2-.2-.2-.3 0-.1-.1-.2-.1-.4 0-.1 0-.3.1-.4 0-.1.1-.2.2-.3.2-.2.6-.3.9-.3.1 0 .1 0 .2.1.1 0 .1 0 .2.1.1 0 .1.1.1.1.1.1.2.2.2.3.1.1.1.2.1.4 0 .1 0 .3-.1.4 0 .1-.1.2-.2.3-.1.2-.4.3-.7.3zM129.5 144.4c0-.5.4-1 1-1s1 .5 1 1-.4 1-1 1c-.5 0-1-.4-1-1zm-4 0c0-.5.4-1 1-1s1 .5 1 1-.4 1-1 1c-.5 0-1-.4-1-1zm-4 0c0-.5.4-1 1-1s1 .5 1 1-.4 1-1 1c-.5 0-1-.4-1-1zm-4 0c0-.5.5-1 1-1 .6 0 1 .5 1 1s-.4 1-1 1c-.5 0-1-.4-1-1zm-4 0c0-.5.5-1 1-1 .6 0 1 .5 1 1s-.4 1-1 1c-.5 0-1-.4-1-1zm-4 0c0-.5.5-1 1-1 .6 0 1 .5 1 1s-.4 1-1 1c-.5 0-1-.4-1-1zm-4 0c0-.5.4-1 1-1s1 .5 1 1-.4 1-1 1c-.5 0-1-.4-1-1zm-4 0c0-.5.5-1 1-1 .6 0 1 .5 1 1s-.4 1-1 1c-.5 0-1-.4-1-1zM134.5 145.4c-.3 0-.5-.1-.7-.3-.1-.1-.2-.2-.2-.3 0-.1-.1-.2-.1-.4 0-.1 0-.3.1-.4 0-.1.1-.2.2-.3.4-.4 1-.4 1.4 0 .1.1.2.2.2.3.1.1.1.2.1.4 0 .1 0 .3-.1.4 0 .1-.1.2-.2.3-.1.1-.2.2-.3.2-.1.1-.2.1-.4.1z"/><path class="fgst4" d="M102.5 117.4h9v2h-9z"/><path class="fgst2" d="M60.5 51.4h18v2h-18zM60.5 55.4h18v2h-18zM66.5 67.4h66v2h-66zM60.5 71.4h72v2h-72zM60.5 75.4h72v2h-72zM60.5 79.4h60v2h-60zM66.5 89.4h66v2h-66zM60.5 93.4h72v2h-72zM60.5 97.4h72v2h-72zM60.5 101.4h60v2h-60zM120.5 55.4h12v2h-12zM46.2 169.4h-7.7v-145h7.7c.6 0 1 .4 1 1s-.4 1-1 1h-5.7v141.1h5.7c.6 0 1 .4 1 1 0 .5-.4.9-1 .9z"/><path class="fgst2" d="M42.2 169.4h-7.7v-145h7.7c.6 0 1 .4 1 1s-.4 1-1 1h-5.7v141.1h5.7c.6 0 1 .4 1 1 0 .5-.4.9-1 .9zM161.5 178.4h2v4h-2zM161.5 188.4h2v4h-2z"/><g><path class="fgst2" d="M165.5 184.4h4v2h-4zM155.5 184.4h4v2h-4z"/></g><g><path class="fgst2" d="M144.5 20.4h2v4h-2zM144.5 30.4h2v4h-2z"/><g><path class="fgst2" d="M148.5 26.4h4v2h-4zM138.5 26.4h4v2h-4z"/></g></g><g><path class="fgst4" d="M25.5 50.4c-13.8 0-25-11.2-25-25s11.2-25 25-25 25 11.2 25 25-11.2 25-25 25zm0-48c-12.7 0-23 10.3-23 23s10.3 23 23 23 23-10.3 23-23c0-12.6-10.4-23-23-23z"/><path class="fgst2" d="M45.4 26.4h-3.6c-.6 0-1-.4-1-1s.4-1 1-1h3.6c.6 0 1 .4 1 1s-.4 1-1 1zM39.6 18c-.3 0-.7-.2-.9-.5-.3-.5-.1-1.1.4-1.4l3.1-1.8c.5-.3 1.1-.1 1.4.4.3.5.1 1.1-.4 1.4l-3.1 1.8c-.2.1-.3.1-.5.1zM33.5 11.8c-.2 0-.3 0-.5-.1-.5-.3-.6-.9-.4-1.4l1.8-3.1c.3-.5.9-.6 1.4-.4.5.3.6.9.4 1.4l-1.8 3.1c-.2.3-.5.5-.9.5zM26.4 37.6h-2v-13h7.9v2h-5.9zM25.5 9.5c-.6 0-1-.4-1-1V5c0-.6.4-1 1-1s1 .4 1 1v3.6c0 .5-.5.9-1 .9zM25.5 46.9c-.6 0-1-.4-1-1v-3.6c0-.6.4-1 1-1s1 .4 1 1v3.6c0 .5-.5 1-1 1zM9 26.4H5.5c-.6 0-1-.4-1-1s.4-1 1-1H9c.6 0 1 .4 1 1s-.4 1-1 1z"/><path class="fgst2" d="M25.5 9.5c-.6 0-1-.4-1-1V5c0-.6.4-1 1-1s1 .4 1 1v3.6c0 .5-.5.9-1 .9zM25.5 46.9c-.6 0-1-.4-1-1v-3.6c0-.6.4-1 1-1s1 .4 1 1v3.6c0 .5-.5 1-1 1zM9 26.4H5.5c-.6 0-1-.4-1-1s.4-1 1-1H9c.6 0 1 .4 1 1s-.4 1-1 1zM15.3 43.9c-.2 0-.3 0-.5-.1-.5-.3-.6-.9-.4-1.4l1.8-3.1c.3-.5.9-.6 1.4-.4.5.3.6.9.4 1.4l-1.8 3.1c-.2.3-.6.5-.9.5zM11.3 18c-.2 0-.3 0-.5-.1l-3.1-1.8c-.5-.3-.6-.9-.4-1.4.3-.5.9-.6 1.4-.4l3.1 1.8c.5.3.6.9.4 1.4-.2.3-.6.5-.9.5zM7.9 36.2c-.3 0-.7-.2-.9-.5-.3-.5-.1-1.1.4-1.4l3.1-1.8c.5-.3 1.1-.1 1.4.4.3.5.1 1.1-.4 1.4l-3.1 1.8c-.2.1-.4.1-.5.1zM17.4 11.8c-.3 0-.7-.2-.9-.5l-1.8-3.1c-.3-.5-.1-1.1.4-1.4.5-.3 1.1-.1 1.4.4l1.8 3.1c.3.5.1 1.1-.4 1.4-.2 0-.4.1-.5.1z"/></g><g><path class="fgst3" d="M169.5 125.5c-9.4 0-17-7.6-17-17s7.6-17 17-17 17 7.6 17 17-7.6 17-17 17zm0-32c-8.3 0-15 6.7-15 15s6.7 15 15 15 15-6.7 15-15-6.7-15-15-15zm0 26c-6.1 0-11-4.9-11-11s4.9-11 11-11 11 4.9 11 11c0 6-4.9 11-11 11zm0-20c-5 0-9 4-9 9s4 9 9 9 9-4 9-9-4-9-9-9z"/><path class="fgst3" d="M169.5 113.5c-2.8 0-5-2.2-5-5s2.2-5 5-5 5 2.2 5 5c0 2.7-2.2 5-5 5zm0-8c-1.7 0-3 1.3-3 3s1.3 3 3 3 3-1.3 3-3-1.3-3-3-3z"/><circle class="fgst4" cx="169.5" cy="108.5" r="4"/><path class="fgst4" d="M169.5 113.5c-2.8 0-5-2.2-5-5s2.2-5 5-5 5 2.2 5 5c0 2.7-2.2 5-5 5zm0-8c-1.7 0-3 1.3-3 3s1.3 3 3 3 3-1.3 3-3-1.3-3-3-3z"/><g><path class="fgst3" d="M142.5 107.5h27v2h-27z"/><path class="fgst3" d="M139.9 113.5h-8.8l5-5-5-5h8.8l5 5-5 5zm-4-2h3.2l3-3-3-3h-3.2l3 3-3 3z"/></g></g><g><path class="fgst3" d="M53.4 175.9l-1.9-.6.6-1.7-2.1-.7c-1.9-.6-3.2-2.4-3.2-4.4 0-2 1.3-3.8 3.2-4.4l2.1-.7-1.2-3.6-2.1.7c-1.9.6-4 0-5.1-1.7a4.5 4.5 0 0 1 0-5.4l1.3-1.7-3-2.2-1.3 1.7c-1.2 1.6-3.2 2.3-5.2 1.7-1.9-.6-3.2-2.4-3.2-4.4v-2.2h-3.8v2.2c0 2-1.3 3.8-3.2 4.4-1.9.6-4 0-5.1-1.7l-1.3-1.8-3.1 2.2 1.3 1.8a4.5 4.5 0 0 1 0 5.4c-1.2 1.6-3.2 2.3-5.2 1.7l-2.1-.7-.6 1.7-1.9-.6 1.2-3.6 4 1.3c1.3.4 2.4-.2 2.9-.9s.8-1.9 0-3.1l-2.4-3.4 6.3-4.6 2.4 3.4c.8 1.1 2 1.2 2.9 1 .9-.3 1.8-1.1 1.8-2.5v-4.2h7.8v4.2c0 1.4.9 2.2 1.8 2.5.9.3 2.1.2 2.9-.9l2.5-3.4 6.3 4.6-2.4 3.4c-.8 1.1-.5 2.3 0 3.1.5.7 1.6 1.4 2.9 1l4-1.3 2.4 7.4-4 1.3c-1.3.4-1.8 1.6-1.8 2.5 0 .9.5 2 1.8 2.5l4 1.3-1.2 3.4z"/><path class="fgst4" d="M41 171.9l-1.9-.6c1.6-4.8-1.1-9.9-5.8-11.5-2.3-.8-4.8-.6-6.9.5-2.2 1.1-3.8 3-4.5 5.3L20 165c1.9-5.8 8.2-9 14-7.1 5.7 2 8.9 8.2 7 14z"/><g><path class="fgst4" d="M30.4 179.5c-1.1 0-2.3-.2-3.4-.5-5.8-1.9-9-8.2-7.1-14l1.9.6c-1.6 4.8 1.1 9.9 5.8 11.5 4.8 1.6 9.9-1.1 11.5-5.8l1.9.6c-1.5 4.6-5.9 7.6-10.6 7.6z"/><path class="fgst3" d="M34.3 192.6h-7.8v-4.2c0-1.4-.9-2.2-1.8-2.5-.9-.3-2.1-.2-2.9.9l-2.5 3.4-6.3-4.6 2.5-3.4c.8-1.1.5-2.3 0-3.1-.5-.7-1.6-1.4-2.9-1l-4 1.3-2.4-7.4 4-1.3c1.3-.4 1.8-1.6 1.8-2.5 0-.9-.5-2-1.8-2.5l-4-1.3 1.3-4.1 1.9.6-.7 2.2 2.1.7c1.9.6 3.2 2.4 3.2 4.4 0 2-1.3 3.8-3.2 4.4l-2.1.7L10 177l2.1-.7c1.9-.6 4 0 5.1 1.7a4.5 4.5 0 0 1 0 5.4l-1.3 1.7 3 2.2 1.3-1.7c1.2-1.6 3.2-2.3 5.2-1.7 1.9.6 3.2 2.4 3.2 4.4v2.2h3.8v-2.2c0-2 1.3-3.8 3.2-4.4 1.9-.6 4 0 5.1 1.7l1.3 1.8 3.1-2.2-1.3-1.8a4.5 4.5 0 0 1 0-5.4c1.2-1.6 3.2-2.3 5.2-1.7l2.1.7.8-2.4 1.9.6-1.4 4.3-4-1.3c-1.3-.4-2.4.2-2.9.9s-.8 1.9 0 3.1l2.4 3.4-6.3 4.6-2.4-3.4c-.8-1.1-2-1.2-2.9-1-.9.3-1.8 1.1-1.8 2.5l-.2 4.3z"/></g><g><circle class="fgst1" cx="30.4" cy="168.6" r="5.4"/><path class="fgst1" d="M30.4 174.5c-3.3 0-5.9-2.6-5.9-5.9 0-3.3 2.6-5.9 5.9-5.9 3.3 0 5.9 2.6 5.9 5.9 0 3.2-2.7 5.9-5.9 5.9zm0-10.8c-2.7 0-4.9 2.2-4.9 4.9s2.2 4.9 4.9 4.9 4.9-2.2 4.9-4.9-2.2-4.9-4.9-4.9z"/></g></g><g><circle class="fgst1" cx="165.5" cy="61.5" r="4"/></g><g><circle class="fgst1" cx="15" cy="122" r="2.4"/></g><g><circle class="fgst1" cx="27" cy="132.9" r="2.4"/></g><g><circle class="fgst1" cx="137" cy="176.9" r="2.4"/></g></g></svg>