<?xml version="1.0" encoding="utf-8"?><svg id="gkLayer_1" xmlns="http://www.w3.org/2000/svg" xmlns:xlink="http://www.w3.org/1999/xlink" viewBox="0 0 193 193" width="193" height="193"><style>.gkst0{clip-path:url(#gkSVGID_2_)}.gkst1{fill:#ffd15d}.gkst2{fill:#475059}.gkst3{fill:#48515a}.st4{stroke:#48515a;stroke-width:2;stroke-miterlimit:10}.st4,.gkst5{fill:none}.gkst6{fill:#5fe0ed}.gkst7{fill:#f58e70}.st8{fill:none;stroke:#48515a;stroke-width:2;stroke-linecap:round;stroke-linejoin:round;stroke-miterlimit:10}</style><defs><path id="gkSVGID_1_" d="M0 0h193v193H0z"/></defs><clipPath id="gkSVGID_2_"><use xlink:href="#gkSVGID_1_" overflow="visible"/></clipPath><g class="gkst0"><path class="gkst1" d="M63.2 98.3c-2.3-1.8-5.3-3-8.5-3h-4.1c-12 0-21.8-9.8-21.8-21.8V46.2c0-5.2 4.2-9.4 9.4-9.4s9.4 4.2 9.4 9.4v7.6c0 4.3 3.5 7.7 7.7 7.7h.2c1.9 0 3.6 1.2 4.2 2.8.7 2 0 3.5-.5 4.2-.8 1.2-2.2 1.9-3.7 1.9-2.4 0-4.4-2-4.4-4.4h-6c0 5.8 4.7 10.4 10.5 10.4 2.8 0 5.5-1.1 7.4-3.1V58.6c-1.9-1.9-4.5-3-7.4-3h-.2c-1 0-1.7-.8-1.7-1.7v-7.6c0-8.5-6.9-15.4-15.4-15.4s-15.4 6.9-15.4 15.4v27.3c0 15.3 12.5 27.8 27.8 27.8h4.1c3.8 0 7 2.7 7.3 6.2.2 2-.4 3.9-1.8 5.3-1.3 1.4-3.2 2.3-5.1 2.3v6c3.6 0 7.1-1.5 9.6-4.2 1.5-1.6 2.5-3.6 3-5.7-2.6-3.9-4.2-8.3-4.6-13zM157.1 30.8c-8.5 0-15.4 6.9-15.4 15.4v7.6c0 1-.8 1.7-1.7 1.7h-.2c-2.8 0-5.5 1.1-7.4 3v14.8c1.9 1.9 4.6 3.1 7.4 3.1 5.8 0 10.4-4.7 10.4-10.4h-6c0 2.4-2 4.4-4.5 4.4-1.4 0-2.8-.7-3.6-1.9-.5-.7-1.2-2.2-.5-4.2.6-1.7 2.3-2.8 4.2-2.8h.2c4.3 0 7.7-3.5 7.7-7.7v-7.6c0-5.2 4.2-9.4 9.4-9.4s9.4 4.2 9.4 9.4v27.3c0 12-9.8 21.8-21.8 21.8h-4.1c-3.2 0-6.1 1.1-8.4 2.9-.5 4.8-2.1 9.2-4.6 13 .5 2.1 1.5 4.1 3 5.7 2.4 2.7 5.9 4.2 9.6 4.2v-6c-1.9 0-3.8-.8-5.1-2.3-1.3-1.5-2-3.4-1.8-5.3.3-3.5 3.5-6.2 7.3-6.2h4.1c15.3 0 27.8-12.5 27.8-27.8V46.2c0-8.5-6.9-15.4-15.4-15.4z"/><path class="gkst2" d="M141 29.3h-25.6v-2h25.2l6.5-3-6.5-3h-18.2v-2H141l10.9 5z"/><path class="gkst2" d="M118.6 23.5h21v2h-21z"/><path class="gkst1" d="M75.9 180.6H61.2v7.9h73.3v-7.9h-15zM66 44.3v50.9c0 14.7 12 26.7 26.7 26.7h4.1l-5 15.6h-4.2c-.6 0-1 .4-1 1s.4 1 1 1h4l4.1 9.8v.6c0 11.6-8.7 21.2-19.8 22.6v4.8l43.6-.1v-4.7c-5-.6-9.5-2.9-13.1-6.5-4.3-4.3-6.7-10-6.7-16.1v-.6l4-9.8h4c.6 0 1-.4 1-1s-.4-1-1-1h-4.2l-4.9-15.6h4.1c14.7 0 26.7-12 26.7-26.7V44.3H66zm32.3 55.2c-12.2 0-22.1-9.9-22.1-22.1 0-12.2 9.9-22.1 22.1-22.1 12.2 0 22.1 9.9 22.1 22.1 0 12.2-10 22.1-22.1 22.1z"/><path class="gkst3" d="M122.5 178.6H72.9c-.6 0-1-.4-1-1v-7.8c0-.3.1-.5.3-.7.2-.2.4-.3.7-.3 10.3 0 18.7-8.3 18.8-18.6l-2.8-6.6h-1.3c-2.8 0-5-2.2-5-5s2.2-5 5-5h1.3l2.5-7.6C75 125.1 62 111.6 62 95.2V41.3c0-.6.4-1 1-1h15.8c.6 0 1 .4 1 1s-.4 1-1 1H64v52.9c0 15.8 12.9 28.7 28.7 28.7.3 0 .6.2.8.4.2.3.2.6.1.9l-3.1 9.6c-.1.4-.5.7-1 .7h-2c-1.7 0-3 1.3-3 3s1.3 3 3 3h2c.4 0 .8.2.9.6l3.1 7.4c.1.1.1.3.1.4 0 11.2-8.8 20.3-19.8 20.8v5.9h47.6v-5.9c-5.2-.2-10-2.4-13.7-6.1-3.9-3.9-6.1-9.2-6.1-14.7 0-.1 0-.3.1-.4l3-7.4c.2-.4.5-.6.9-.6h2c1.7 0 3-1.3 3-3s-1.3-3-3-3h-2c-.4 0-.8-.3-1-.7l-3-9.6c-.1-.3 0-.6.1-.9.2-.3.5-.4.8-.4 15.8 0 28.7-12.9 28.7-28.7V42.3h-13.7c-.6 0-1-.4-1-1s.4-1 1-1h14.7c.6 0 1 .4 1 1v53.9c0 16.5-13.1 30-29.4 30.7l2.4 7.6h1.3c2.8 0 5 2.2 5 5s-2.2 5-5 5h-1.3l-2.7 6.6c0 5 2 9.6 5.5 13.1 3.6 3.6 8.3 5.5 13.3 5.5.3 0 .5.1.7.3.2.2.3.4.3.7v7.8c.2.6-.3 1.1-.8 1.1z"/><path class="gkst3" d="M137.5 192.5H58.2c-.6 0-1-.4-1-1v-13.9c0-.6.4-1 1-1h15.4c.6 0 1 .4 1 1s-.4 1-1 1H59.2v11.9h77.3v-11.9h-14.9c-.6 0-1-.4-1-1s.4-1 1-1h15.9c.6 0 1 .4 1 1v13.9c0 .6-.4 1-1 1zM102.6 116c-.6 0-1-.4-1-1s.4-1 1-1c10.4 0 18.8-8.4 18.8-18.8v-2.7c0-.6.4-1 1-1s1 .4 1 1v2.7c.1 11.4-9.3 20.8-20.8 20.8zm19.9-51.3c-.6 0-1-.4-1-1V52.2h-7.8c-.6 0-1-.4-1-1s.4-1 1-1h8.8c.6 0 1 .4 1 1v12.5c0 .5-.5 1-1 1zM122.4 68.5c-.3 0-.5-.1-.7-.3 0-.1-.1-.1-.1-.1 0-.1-.1-.1-.1-.2s0-.1-.1-.2v-.2c0-.3.1-.5.3-.7.3-.3.7-.4 1.1-.2.1.1.2.1.3.2.2.2.3.4.3.7 0 .3-.1.5-.3.7-.1.1-.2.2-.3.2-.1.1-.3.1-.4.1zM109.6 171.5h-26c-.6 0-1-.4-1-1s.4-1 1-1h26c.6 0 1 .4 1 1s-.4 1-1 1zM101.6 137.5h-8c-.6 0-1-.4-1-1s.4-1 1-1h8c.6 0 1 .4 1 1 0 .5-.4 1-1 1zM101.6 141.5h-8c-.6 0-1-.4-1-1s.4-1 1-1h8c.6 0 1 .4 1 1 0 .5-.4 1-1 1zM122.4 89.5c-.3 0-.5-.1-.7-.3 0-.1-.1-.1-.1-.1 0-.1-.1-.1-.1-.2s0-.1-.1-.2v-.2c0-.3.1-.5.3-.7.3-.3.7-.4 1.1-.2.1.1.2.1.3.2.2.2.3.4.3.7 0 .3-.1.5-.3.7-.1.1-.2.2-.3.2-.1.1-.3.1-.4.1zM98.6 115.9c-.1 0-.3 0-.4-.1-.1 0-.2-.1-.3-.2-.2-.2-.3-.5-.3-.7v-.2c0-.1 0-.1.1-.2 0-.1.1-.1.1-.2s.1-.1.1-.2c.3-.3.7-.4 1.1-.2.1 0 .2.1.3.2 0 0 .1.1.1.2s.1.1.1.2 0 .1.1.2v.2c0 .3-.1.5-.3.7-.1.1-.2.2-.3.2-.1.1-.2.1-.4.1zM141.7 53.9h-2v-7.6c0-9.6 7.8-17.4 17.4-17.4v2c-8.5 0-15.4 6.9-15.4 15.4v7.6zM140.2 115.1c-2 0-3.8-.8-5.1-2.3-1.3-1.5-2-3.4-1.8-5.3.3-3.5 3.5-6.2 7.3-6.2h4.1c15.3 0 27.8-12.5 27.8-27.8h2c0 16.4-13.4 29.8-29.8 29.8h-4.1c-2.7 0-5.1 1.9-5.3 4.4-.1 1.4.3 2.8 1.3 3.8.9 1 2.2 1.6 3.6 1.6v2zM140.2 123.1c-4.2 0-8.2-1.8-11-4.9l1.5-1.3c2.4 2.7 5.9 4.2 9.6 4.2v2zM166.5 73.5h-2V46.2c0-4.1-3.3-7.4-7.4-7.4v-2c5.2 0 9.4 4.2 9.4 9.4v27.3zM139.7 70.5c-1.4 0-2.8-.7-3.6-1.9-.5-.7-1.2-2.2-.5-4.2.6-1.7 2.3-2.8 4.2-2.8h.2c4.3 0 7.7-3.5 7.7-7.7v-7.6h2v7.6c0 5.4-4.4 9.7-9.7 9.7h-.2c-1 0-2 .6-2.3 1.5-.4 1.1-.1 1.9.3 2.4.5.6 1.2 1 2 1v2zM139.8 78.5v-2c5.8 0 10.4-4.7 10.4-10.4h2c0 6.8-5.5 12.4-12.4 12.4zM55.6 53.9h-2v-7.6c0-8.5-6.9-15.4-15.4-15.4v-2c9.6 0 17.4 7.8 17.4 17.4v7.6zM55.1 115.1v-2c1.4 0 2.7-.6 3.6-1.6.9-1 1.4-2.4 1.3-3.8-.2-2.5-2.6-4.4-5.3-4.4h-4.1c-16.4 0-29.8-13.4-29.8-29.8h2c0 15.3 12.5 27.8 27.8 27.8h4.1c3.8 0 7 2.7 7.3 6.2.2 2-.4 3.9-1.8 5.3-1.3 1.5-3.1 2.3-5.1 2.3zM55.1 123.1v-2c3.6 0 7.1-1.5 9.6-4.2l1.5 1.3c-2.9 3.1-6.9 4.9-11.1 4.9zM30.8 73.5h-2V46.2c0-5.2 4.2-9.4 9.4-9.4v2c-4.1 0-7.4 3.3-7.4 7.4v27.3zM55.6 70.5v-2c.8 0 1.5-.4 2-1 .3-.5.7-1.3.3-2.4-.3-.8-1.2-1.4-2.3-1.4h-.2c-5.4 0-9.7-4.4-9.7-9.7v-7.6h2V54c0 4.3 3.5 7.7 7.7 7.7h.2c1.9 0 3.6 1.2 4.2 2.8.7 2 0 3.5-.5 4.2-1 1.1-2.3 1.8-3.7 1.8zM55.5 78.5c-6.9 0-12.4-5.6-12.4-12.4h2c0 5.8 4.7 10.4 10.4 10.4v2zM98.2 85.4c-.6 0-1-.4-1-1V71.3H94c-.6 0-1-.4-1-1s.4-1 1-1h4.2c.6 0 1 .4 1 1v14.1c0 .6-.4 1-1 1z"/><path class="gkst3" d="M102.5 85.4H94c-.6 0-1-.4-1-1s.4-1 1-1h8.4c.6 0 1 .4 1 1 .1.6-.4 1-.9 1z"/><path class="gkst3" d="M98.3 93.5c-8.9 0-16.1-7.2-16.1-16.1 0-.6.4-1 1-1s1 .4 1 1c0 7.8 6.3 14.1 14.1 14.1 4.1 0 8-1.8 10.6-4.9.4-.4 1-.5 1.4-.1.4.4.5 1 .1 1.4-3.1 3.5-7.5 5.6-12.1 5.6z"/><g><path class="gkst5" d="M113.2 82"/></g><g><path class="gkst3" d="M98.3 99.5c-12.2 0-22.1-9.9-22.1-22.1 0-.6.4-1 1-1s1 .4 1 1c0 11.1 9 20.1 20.1 20.1.6 0 1 .4 1 1 0 .5-.5 1-1 1z"/></g><g><path class="gkst3" d="M119.4 78.4c-.6 0-1-.4-1-1 0-11.1-9-20.1-20.1-20.1-.6 0-1-.4-1-1s.4-1 1-1c12.2 0 22.1 9.9 22.1 22.1 0 .5-.5 1-1 1z"/></g><path class="gkst6" d="M122.3 1.5H74.4l-8.8 9.7 6.9 9.1h11.7l-6.8-9 .2-.3H119l.2.4-20.8 27.2-.1.3-8-10.6H78.7l14.1 18.5h11.1l27.2-35.6z"/><g><path class="gkst2" d="M43.6 164.5c-9.4 0-17-7.6-17-17s7.6-17 17-17 17 7.6 17 17-7.6 17-17 17zm0-32c-8.3 0-15 6.7-15 15s6.7 15 15 15 15-6.7 15-15-6.7-15-15-15zm0 26c-6.1 0-11-4.9-11-11s4.9-11 11-11 11 4.9 11 11-4.9 11-11 11zm0-20c-5 0-9 4-9 9s4 9 9 9 9-4 9-9-4-9-9-9z"/><path class="gkst2" d="M43.6 152.5c-2.8 0-5-2.2-5-5s2.2-5 5-5 5 2.2 5 5-2.2 5-5 5zm0-8c-1.7 0-3 1.3-3 3s1.3 3 3 3 3-1.3 3-3c0-1.6-1.3-3-3-3z"/><circle class="gkst7" cx="43.6" cy="147.5" r="4"/><path class="gkst7" d="M43.6 152.5c-2.8 0-5-2.2-5-5s2.2-5 5-5 5 2.2 5 5-2.2 5-5 5zm0-8c-1.7 0-3 1.3-3 3s1.3 3 3 3 3-1.3 3-3c0-1.6-1.3-3-3-3z"/><g><path class="gkst2" d="M16.6 146.5h27v2h-27z"/><path class="gkst2" d="M14 152.5H5.2l5-5-5-5H14l5 5-5 5zm-4-2h3.2l3-3-3-3H10l3 3-3 3z"/></g></g><g><path class="gkst3" d="M131.1 12.2c-.3 0-.5-.1-.7-.3l-8.8-9.7c-.4-.4-.3-1 .1-1.4.4-.4 1-.3 1.4.1l8.8 9.7c.4.4.3 1-.1 1.4-.3.1-.5.2-.7.2zM103.9 47.8h-4.3c-.6 0-1-.4-1-1s.4-1 1-1h4.3c.6 0 1 .4 1 1 0 .5-.5 1-1 1z"/><path class="gkst2" d="M66 10h64.2v2H66z"/><g><path class="gkst3" d="M71.3 20.3h2.5l-6.9-9 8.2-9.1c.4-.4.3-1-.1-1.4-.4-.4-1-.3-1.4.1l-8.8 9.7c-.3.4-.3.9-.1 1.3l6.6 8.4zM103.9 45.8H93.3L79.9 28.3h-2.5L92 47.4c.2.2.5.4.8.4h11.1c.6 0 1-.4 1-1s-.5-1-1-1z"/></g></g><g><path class="gkst3" d="M98.1 54c-1.9 0-3.4-1.5-3.4-3.4s1.5-3.4 3.4-3.4 3.4 1.5 3.4 3.4S100 54 98.1 54zm0-4.9c-.8 0-1.4.6-1.4 1.4s.6 1.4 1.4 1.4c.8 0 1.4-.6 1.4-1.4s-.6-1.4-1.4-1.4z"/></g><g><path class="gkst2" d="M106.8 29.3H55.4c-2.8 0-5-2.2-5-5s2.2-5 5-5h57.4v2H55.4c-1.7 0-3 1.3-3 3s1.3 3 3 3h51.4v2z"/><path class="gkst2" d="M61 20.7h2v7.6h-2z"/><g><path class="gkst2" d="M62 23.2h47v2H62z"/></g></g><g><path class="gkst3" d="M92.9 47.1c-.2 0-.4-.1-.6-.2-.4-.3-.5-1-.2-1.4l26.3-34.7c.3-.4 1-.5 1.4-.2.4.3.5 1 .2 1.4L93.7 46.7c-.2.3-.5.4-.8.4z"/></g><g><circle class="gkst1" cx="35.6" cy="112.5" r="2"/></g><g><circle class="gkst1" cx="168.6" cy="107.5" r="3"/></g><g><circle class="gkst1" cx="74.6" cy="133.5" r="3"/></g><g><circle class="gkst1" cx="169.6" cy="18.5" r="2"/></g><g><path class="gkst3" d="M23.6 31.5c-2.8 0-5-2.2-5-5s2.2-5 5-5 5 2.2 5 5-2.2 5-5 5zm0-8c-1.7 0-3 1.3-3 3s1.3 3 3 3 3-1.3 3-3-1.3-3-3-3z"/></g><g><path class="gkst3" d="M132.6 143.5c-2.2 0-4-1.8-4-4s1.8-4 4-4 4 1.8 4 4-1.8 4-4 4zm0-6c-1.1 0-2 .9-2 2s.9 2 2 2 2-.9 2-2-.9-2-2-2z"/></g><g><path class="gkst2" d="M186.8 176.1l-1.9-.6.3-1-1.2-.5c-1.5-.5-2.5-1.9-2.5-3.5s1-3 2.5-3.5l1.3-.4-.7-2.2-1.3.4c-1.5.5-3.2 0-4.1-1.3-1-1.3-.9-3 0-4.3l.8-1.1-1.8-1.3-.8 1.1c-1 1.3-2.6 1.8-4.1 1.3-1.5-.5-2.5-1.9-2.5-3.5v-1.3h-2.3v1.3c0 1.6-1 3-2.5 3.5s-3.2 0-4.1-1.3l-.8-1.1-1.8 1.3.8 1.1c1 1.3.9 3 0 4.3-1 1.3-2.6 1.8-4.1 1.3l-1.3-.4-.3 1-1.9-.6 1-2.9 3.2 1c.9.3 1.5-.1 1.9-.6.3-.5.5-1.2 0-2l-2-2.7 5.1-3.7 2 2.7c.5.7 1.3.8 1.9.6.6-.2 1.2-.7 1.2-1.6v-3.3h6.3v3.3c0 .9.6 1.4 1.2 1.6.6.2 1.3.1 1.9-.6l2-2.7 5.1 3.7-2 2.7c-.5.7-.3 1.5 0 2s1 .9 1.9.6l3.2-1 1.9 6-3.2 1c-.9.3-1.2 1-1.2 1.6 0 .6.3 1.3 1.2 1.6l3.2 1-1.5 3z"/><path class="gkst7" d="M177.6 173.1l-1.9-.6c.5-1.6.4-3.4-.4-4.9-.8-1.5-2.1-2.7-3.8-3.2-3.4-1.1-7.1.8-8.2 4.1l-1.9-.6c1.4-4.4 6.2-6.9 10.7-5.4 2.2.7 3.9 2.2 4.9 4.2 1.2 2 1.3 4.3.6 6.4z"/><g><path class="gkst7" d="M169.6 178.9c-.9 0-1.8-.1-2.6-.4-4.4-1.4-6.9-6.2-5.4-10.7l1.9.6c-1.1 3.4.8 7.1 4.1 8.2 3.4 1.1 7.1-.8 8.2-4.1l1.9.6c-1.2 3.5-4.5 5.8-8.1 5.8z"/><path class="gkst2" d="M172.7 188.6h-6.3v-3.3c0-.9-.6-1.4-1.2-1.6-.6-.2-1.3-.1-1.9.6l-2 2.7-5.1-3.7 2-2.7c.5-.7.3-1.5 0-2s-1-.9-1.9-.6l-3.2 1-1.9-6 3.2-1c.9-.3 1.2-1 1.2-1.6 0-.6-.3-1.3-1.2-1.6l-3.2-1 1.1-3.3 1.9.6-.4 1.4 1.3.4c1.5.5 2.5 1.9 2.5 3.5s-1 3-2.5 3.5l-1.3.4.7 2.2 1.3-.4c1.5-.5 3.2 0 4.1 1.3 1 1.3.9 3 0 4.3l-.8 1.1 1.8 1.3.8-1.1c1-1.3 2.6-1.8 4.1-1.3 1.5.5 2.5 1.9 2.5 3.5v1.3h2.3v-1.3c0-1.6 1-3 2.5-3.5s3.2 0 4.1 1.3l.8 1.1 1.8-1.3-.8-1.1c-1-1.3-.9-3 0-4.3 1-1.3 2.6-1.8 4.1-1.3l1.3.4.5-1.5 1.9.6-1.1 3.4-3.2-1c-.9-.3-1.5.1-1.9.6-.3.5-.5 1.2 0 2l2 2.7-5.1 3.7-2-2.7c-.5-.7-1.3-.8-1.9-.6-.6.2-1.2.7-1.2 1.6l.3 3.3z"/></g><g><circle class="gkst1" cx="169.5" cy="170.6" r="4"/><path class="gkst1" d="M169.5 175.1c-2.5 0-4.5-2-4.5-4.5s2-4.5 4.5-4.5 4.5 2 4.5 4.5-2 4.5-4.5 4.5zm0-8c-1.9 0-3.5 1.6-3.5 3.5s1.6 3.5 3.5 3.5 3.5-1.6 3.5-3.5c0-2-1.5-3.5-3.5-3.5z"/></g></g></g></svg>