<?xml version="1.0" encoding="utf-8"?><svg id="geLayer_1" xmlns="http://www.w3.org/2000/svg" xmlns:xlink="http://www.w3.org/1999/xlink" viewBox="0 0 193 193" width="193" height="193"><style>.gest0{clip-path:url(#geSVGID_2_)}.gest1{fill:#ffd15d}.gest2{fill:none}.gest3{fill:#dfe0e0}.gest4{fill:#48515a}.st5{fill:none;stroke:#48515a;stroke-width:2;stroke-linecap:round;stroke-linejoin:round;stroke-miterlimit:10}.gest6{fill:#475059}.gest7{fill:#5fe0ed}.gest8{fill:#f58e70}.gest9{fill:#fff}</style><defs><path id="geSVGID_1_" d="M0 0h193v193H0z"/></defs><clipPath id="geSVGID_2_"><use xlink:href="#geSVGID_1_" overflow="visible"/></clipPath><g class="gest0"><path class="gest1" d="M102.4 132l5.8 2.5-8.2 4.9 8.2 8.2-2.8 2.8-8.1-8.1-4.8 9.7-10-24.2-45.3-28.5v72.9h116.9V99.3L102.4 132zm32.8 35.2h-30v-10h30v10z"/><path class="gest2" d="M92.9 86.9c-3.3-1.1-5.9-3.6-7.2-6.8v11.1c2.1 1.5 4.6 2.6 7.2 3.1v-7.4zM100.9 86.6v7.5c2.7-.6 5.1-1.8 7.2-3.5V75.5c0 4.9-2.9 9.3-7.2 11.1zM85 30.2c.2-2 1.9-3.6 4-3.6.6 0 1.2.1 1.7.4 1.7-.6 3.6-1 5.6-1.1 1.3-.1 2.6 0 3.9.3-.3-5.5-4.5-10.3-10.1-10.8-6.7-.6-12.3 4.6-12.3 11.2v19.1c-.1-6.3 2.7-11.9 7.2-15.5zM92.9 34.6v14.5c0-2.2 1.8-4 4-4 1.3 0 2.5.6 3.2 1.6V34.3c-.7-.2-1.4-.3-2.1-.4-1.8-.2-3.5.1-5.1.7z"/><path class="gest2" d="M105.6 106c-3.6.3-7-1-9.3-3.4h-.6c-3.1-.1-6-.7-8.7-1.8 2.6 6.9 9 12.1 16.8 12.4 10.7.4 19.5-8.2 19.5-18.8V75.8c0 7-2.7 13.5-7.2 18.3 0 6-4.4 11.3-10.5 11.9z"/><path class="gest3" d="M84.9 75.8V30.5v-.4c-4.4 3.6-7.2 9.2-7.2 15.3v29.9c0 6.4 3.1 12.2 8 15.8V80c-.5-1.3-.8-2.7-.8-4.2z"/><path class="gest3" d="M127.3 45c-2.2 0-4 1.8-4 4V94.4c0 10.6-8.8 19.2-19.5 18.8-7.8-.3-14.2-5.4-16.8-12.4-3.5-1.4-6.6-3.5-9.2-6.1.5 14.2 11.7 26 26 26.5 15.1.4 27.6-11.7 27.6-26.8V49c-.1-2.2-1.9-4-4.1-4zM90.6 26.9c1.4.6 2.3 2 2.3 3.6v4.1c1.6-.6 3.3-.9 5.1-.7.7.1 1.4.2 2.1.4v-7.5-.7c-1.3-.2-2.6-.3-3.9-.3-2 .1-3.8.5-5.6 1.1z"/><path class="gest3" d="M108.1 75.5v15.1c4.4-3.4 7.2-8.8 7.2-14.8V39.6c-1.2-4.1-3.8-7.7-7.2-10.1v46zM105.6 106c6-.6 10.5-5.8 10.5-11.9-4.9 5.3-12 8.6-19.8 8.5 2.4 2.4 5.7 3.7 9.3 3.4zM95.8 79.4c2.3.5 4.4-1.3 4.4-3.5V46.7c-.7-1-1.9-1.6-3.2-1.6-2.2 0-4 1.8-4 4v26.6c-.1 1.8 1.1 3.3 2.8 3.7zM97.6 87.4c-1.7.2-3.3 0-4.7-.5v7.4c.9.2 1.9.3 2.9.4 1.8.1 3.5-.1 5.1-.5v-7.5c-1 .3-2.1.6-3.3.7zM88.9 26.5c-2.1 0-3.8 1.6-4 3.6 1.7-1.4 3.6-2.5 5.7-3.2-.5-.2-1.1-.4-1.7-.4z"/><path class="gest3" d="M92.9 34.6v-4.1c0-1.6-.9-3-2.3-3.6-2.1.7-4 1.9-5.7 3.2V75.8c0 1.5.3 2.9.8 4.2V45c0-4.7 3-8.8 7.2-10.4z"/><g><path class="gest4" d="M35.2 111.1h-2V98l14.4-9.9 1.1 1.6L35.2 99zM158.1 175.8H33.2v-18.2h2v16.2h120.9v-5.1h2zM158.1 127.8h-2V99l-14-9.9 1.2-1.6L158.1 98z"/><path transform="rotate(-57.763 48.63 107.775)" class="gest4" d="M47.6 90.7h2v34.2h-2z"/><path transform="rotate(-32.36 146.242 105.349)" class="gest4" d="M133.4 104.3h25.7v2h-25.7z"/><path class="gest4" d="M143.1 160.4c-.3 0-.6-.1-.8-.4l-9.9-11.9c-.4-.4-.3-1.1.1-1.4.4-.4 1.1-.3 1.4.1l9.9 11.9c.4.4.3 1.1-.1 1.4-.1.3-.3.3-.6.3zM43.6 165.9c-.2 0-.5-.1-.6-.2-.4-.4-.5-1-.1-1.4l24.8-29.7c.4-.4 1-.5 1.4-.1.4.4.5 1 .1 1.4l-24.8 29.7c-.2.2-.5.3-.8.3zM143.7 107.7h-2V76.3l-10-29.9 9.5-23.7h-25.5v-2h28.5l-10.3 25.8 9.8 29.5zM49.5 107.7h-2V76.3l-9.9-29.9 10.3-25.7h14.8v2H49.2l-9.5 23.8L49.5 76z"/><path class="gest1" d="M145.7 94.1v8l6-3.8zM45.6 94.1v8l-5.9-3.8z"/><path class="gest4" d="M65.7 22.7c-.6 0-1.1-.4-1.1-1s.4-1 1-1 1 .4 1 1-.3 1-.9 1zM113 22.7c-.6 0-1.1-.4-1.1-1s.4-1 1-1 1 .4 1 1-.4 1-.9 1zM157.2 132.2c-.3 0-.5-.1-.7-.3-.2-.2-.3-.4-.3-.7 0-.3.1-.5.3-.7.4-.4 1-.4 1.4 0 .2.2.3.4.3.7 0 .3-.1.5-.3.7-.1.1-.2.2-.3.2-.2 0-.3.1-.4.1zM34.2 150.2c-.1 0-.3 0-.4-.1-.1 0-.2-.1-.3-.2-.2-.2-.3-.4-.3-.7 0-.1 0-.3.1-.4 0-.1.1-.2.2-.3.1-.1.2-.2.3-.2.4-.2.8-.1 1.1.2.1.1.2.2.2.3.1.1.1.2.1.4 0 .3-.1.5-.3.7-.1.1-.2.2-.3.2-.2 0-.3.1-.4.1z"/><path class="gest6" d="M172 111.7c-7 0-12.7-5.7-12.7-12.7S165 86.2 172 86.2 184.7 92 184.7 99s-5.7 12.7-12.7 12.7zm0-23.5c-5.9 0-10.7 4.8-10.7 10.7s4.8 10.7 10.7 10.7 10.7-4.8 10.7-10.7-4.8-10.7-10.7-10.7z"/><path class="gest6" d="M172 111.7c-4.1 0-7.3-5.6-7.3-12.7s3.2-12.7 7.3-12.7 7.3 5.6 7.3 12.7-3.2 12.7-7.3 12.7zm0-23.5c-2.9 0-5.3 4.9-5.3 10.7 0 5.8 2.4 10.7 5.3 10.7s5.3-4.9 5.3-10.7-2.4-10.7-5.3-10.7z"/><path class="gest6" d="M160.2 98h23.5v2h-23.5zM108.7 159.2h22.4v2h-22.4zM108.7 163.2h16.4v2h-16.4z"/><g><path class="gest4" d="M92.3 154.5l-14-33.9 32.1 13.7-8.8 5.3 8 8-4.2 4.2-7.8-7.8-5.3 10.5zM82 124.4l10.5 25.3 4.5-9 8.4 8.4 1.4-1.4-8.4-8.4 7.7-4.6L82 124.4z"/></g><g><path class="gest6" d="M25.2 26.2c-2.2 0-4-1.8-4-4s1.8-4 4-4 4 1.8 4 4-1.8 4-4 4zm0-6c-1.1 0-2 .9-2 2s.9 2 2 2 2-.9 2-2-.9-2-2-2z"/></g><g><circle class="gest7" cx="165.2" cy="38.2" r="3"/></g><g><circle class="gest8" cx="6.2" cy="41.2" r="2"/><path class="gest8" d="M6.2 44.2c-1.7 0-3-1.3-3-3s1.3-3 3-3 3 1.3 3 3-1.4 3-3 3zm0-4c-.6 0-1 .4-1 1s.4 1 1 1 1-.4 1-1-.5-1-1-1z"/></g><g><path class="gest4" d="M182.2 32.2c-1.7 0-3-1.3-3-3s1.3-3 3-3 3 1.3 3 3-1.4 3-3 3zm0-4c-.6 0-1 .4-1 1s.4 1 1 1 1-.4 1-1-.5-1-1-1z"/></g><g><path class="gest4" d="M192.5 165.9h-46.3v-29.5h46.3v29.5zm-44.2-2h42.3v-25.5h-42.3v25.5z"/><path class="gest4" d="M169.4 152.4c-.2 0-.4-.1-.5-.2L152.8 142l1.1-1.7 15.6 9.9 14.9-9.6 1.1 1.7-15.5 9.9c-.2.2-.4.2-.6.2z"/><path transform="rotate(-39.811 183.676 155.96)" class="gest4" d="M182.7 149h2v13.9h-2z"/><path transform="rotate(-50.169 155.146 155.978)" class="gest4" d="M148.2 155h13.9v2h-13.9z"/><path class="gest4" d="M170.3 167.8h2v13h-2zM171.3 186.2c-.3 0-.5-.1-.7-.3-.1-.1-.2-.2-.2-.3s-.1-.2-.1-.4 0-.3.1-.4.1-.2.2-.3c.2-.2.6-.3.9-.3.1 0 .1 0 .2.1.1 0 .1 0 .2.1l.1.1c.1.1.2.2.2.3 0 .1.1.2.1.4s0 .3-.1.4c-.1.1-.1.2-.2.3-.2.2-.5.3-.7.3zM179 167.8h2v4.3h-2z"/><g><path class="gest4" d="M180 177.5c-.3 0-.5-.1-.7-.3-.1-.1-.2-.2-.2-.3 0-.1-.1-.2-.1-.4v-.2-.2c0-.1.1-.1.1-.2l.1-.1c0-.1.1-.1.1-.1.1 0 .1-.1.2-.1h.8c.1 0 .2.1.3.2l.1.1s.1.1.1.2 0 .1.1.2v.2c0 .1 0 .3-.1.4s-.1.2-.2.3c-.1.2-.4.3-.6.3z"/></g><g><path class="gest4" d="M161.6 167.8h2v7.2h-2z"/></g><g><path class="gest4" d="M162.6 180.4c-.3 0-.5-.1-.7-.3-.1-.1-.2-.2-.2-.3 0-.1-.1-.2-.1-.4 0-.1 0-.3.1-.4 0-.1.1-.2.2-.3.4-.4 1-.4 1.4 0 .1.1.2.2.2.3.1.1.1.2.1.4 0 .1 0 .3-.1.4 0 .1-.1.2-.2.3-.1.1-.2.2-.3.2-.2 0-.3.1-.4.1z"/></g></g><g><path class="gest4" d="M46.7 142.9H.5v-29.5h46.3v29.5zm-44.2-2h42.3v-25.5H2.5v25.5z"/><path class="gest4" d="M23.6 129.4c-.2 0-.4-.1-.5-.2L6.9 119l1.1-1.7 15.6 9.9 14.9-9.6 1.1 1.7-15.5 9.9c-.1.2-.3.2-.5.2z"/><path transform="rotate(-39.816 37.857 132.953)" class="gest4" d="M36.9 126h2v13.9h-2z"/><path transform="rotate(-50.169 9.31 132.963)" class="gest4" d="M2.3 132h13.9v2H2.3z"/><path class="gest4" d="M24.4 144.8h2v13h-2zM25.4 163.2c-.1 0-.3 0-.4-.1-.1 0-.2-.1-.3-.2-.2-.2-.3-.4-.3-.7v-.2-.2c0-.1.1-.1.1-.2l.1-.1c.1-.1.2-.2.3-.2.4-.1.8-.1 1.1.2l.1.1c0 .1.1.1.1.2s0 .1.1.2v.2c0 .3-.1.5-.3.7 0 .1-.3.3-.6.3zM33.1 144.8h2v4.3h-2z"/><g><path class="gest4" d="M34.1 154.5c-.1 0-.3 0-.4-.1-.1 0-.2-.1-.3-.2-.1-.1-.2-.2-.2-.3-.1-.1-.1-.2-.1-.4 0-.3.1-.5.3-.7.1-.1.2-.2.3-.2.4-.2.8-.1 1.1.2.2.2.3.5.3.7 0 .1 0 .3-.1.4-.1.1-.1.2-.2.3-.2.2-.4.3-.7.3z"/></g><g><path class="gest4" d="M15.7 144.8h2v7.2h-2z"/></g><g><path class="gest4" d="M16.7 157.4c-.1 0-.3 0-.4-.1s-.2-.1-.3-.2c-.2-.2-.3-.4-.3-.7v-.2c0-.1 0-.1.1-.2 0-.1 0-.1.1-.2l.1-.1c.4-.4 1.1-.4 1.4 0 .2.2.3.4.3.7 0 .3-.1.5-.3.7-.1.2-.4.3-.7.3z"/></g></g></g><g><path class="gest4" d="M96.5 104.2h-.9c-14.9-.4-27-13.2-27-28.4V27.5c0-11 8.7-20.3 19.4-20.7 5.5-.2 10.8 1.8 14.8 5.6s6.2 9 6.2 14.5V76c0 6.6-5 12.3-11.4 12.9-3.6.3-7-.8-9.7-3.2-2.6-2.4-4.1-5.8-4.1-9.3V31.1c0-2.8 2.2-5 5-5s5 2.2 5 5v45.2c0 1.3.9 2.4 2 2.6.8.2 1.6 0 2.2-.5.6-.5 1-1.2 1-2v-49c0-5.4-4-10-9.2-10.5-2.9-.3-5.7.7-7.8 2.6-2.1 1.9-3.3 4.7-3.3 7.5v49c0 9.7 7.7 17.9 17.1 18.3 4.9.2 9.5-1.6 13-5s5.5-7.9 5.5-12.8V31c0-2.8 2.2-5 5-5s5 2.2 5 5v45.4c0 7.6-3 14.7-8.4 19.9-5.3 5.2-12.1 7.9-19.4 7.9zM88.9 8.8h-.7c-9.6.4-17.5 8.7-17.5 18.7v48.4c0 14.1 11.2 26 25 26.4 7 .2 13.7-2.4 18.7-7.3 5.1-4.9 7.8-11.5 7.8-18.5V31c0-1.7-1.3-3-3-3s-3 1.3-3 3v45.4c0 5.4-2.2 10.5-6.1 14.3-3.9 3.8-9.1 5.7-14.5 5.5-10.5-.4-19-9.5-19-20.2V27c0-3.4 1.5-6.7 4-9 2.6-2.3 5.9-3.5 9.4-3.1 6.2.6 11 6.1 11 12.5v49.1c0 1.4-.6 2.7-1.7 3.6-1.1.9-2.5 1.2-3.9.9-2.1-.4-3.6-2.4-3.6-4.6V31.1c0-1.7-1.3-3-3-3s-3 1.3-3 3v45.3c0 3 1.3 5.8 3.5 7.8s5.1 3 8.2 2.7c5.4-.5 9.6-5.3 9.6-10.9V27c0-5-2-9.6-5.6-13.1-3.4-3.3-7.8-5.1-12.6-5.1z"/></g><g><path class="gest9" d="M42.6 46.4h25"/><path class="gest4" d="M65.6 46.4c0-.6.4-1 1-1s1 .4 1 1c0 .5-.4 1-1 1-.5 0-1-.4-1-1zm-4 0c0-.6.5-1 1-1 .6 0 1 .4 1 1 0 .5-.4 1-1 1-.5 0-1-.4-1-1zm-4 0c0-.6.4-1 1-1s1 .4 1 1c0 .5-.4 1-1 1-.5 0-1-.4-1-1zm-4 0c0-.6.5-1 1-1 .6 0 1 .4 1 1 0 .5-.4 1-1 1-.5 0-1-.4-1-1zm-4 0c0-.6.4-1 1-1s1 .4 1 1c0 .5-.4 1-1 1-.5 0-1-.4-1-1zm-4 0c0-.6.4-1 1-1s1 .4 1 1c0 .5-.4 1-1 1-.5 0-1-.4-1-1zm-4 0c0-.6.4-1 1-1s1 .4 1 1c0 .5-.4 1-1 1-.5 0-1-.4-1-1z"/></g><g><path class="gest9" d="M52.6 75.5h15"/><path class="gest4" d="M63.6 75.5c0-.6.5-1 1-1 .6 0 1 .4 1 1 0 .5-.4 1-1 1-.5 0-1-.5-1-1zm-4 0c0-.6.5-1 1-1 .6 0 1 .4 1 1 0 .5-.4 1-1 1-.5 0-1-.5-1-1zm-4 0c0-.6.5-1 1-1 .6 0 1 .4 1 1 0 .5-.4 1-1 1-.5 0-1-.5-1-1zm-4 0c0-.6.5-1 1-1 .6 0 1 .4 1 1 0 .5-.4 1-1 1-.5 0-1-.5-1-1z"/></g><g><path class="gest9" d="M126.7 75.5h14.9"/><path class="gest4" d="M137.7 75.5c0-.6.4-1 1-1 .5 0 1 .4 1 1 0 .5-.5 1-1 1-.6 0-1-.5-1-1zm-4 0c0-.6.4-1 1-1 .5 0 1 .4 1 1 0 .5-.5 1-1 1-.6 0-1-.5-1-1zm-4 0c0-.6.4-1 1-1 .5 0 1 .4 1 1 0 .5-.5 1-1 1-.6 0-1-.5-1-1zm-4 0c0-.6.4-1 1-1 .5 0 1 .4 1 1 0 .5-.5 1-1 1-.6 0-1-.5-1-1z"/></g></g></svg>