<?xml version="1.0" encoding="utf-8"?><svg id="fqLayer_1" xmlns="http://www.w3.org/2000/svg" xmlns:xlink="http://www.w3.org/1999/xlink" viewBox="0 0 193 193" width="193" height="193"><style>.fqst0{clip-path:url(#fqSVGID_2_)}.fqst1{fill:#f58e70}.fqst2{fill:#4f4f4f}.fqst3{fill:#ffd15d}.fqst4{fill:#48515a}.fqst5{fill:#dededd}.fqst6{fill:#5fe0ed}.fqst7{fill:#475059}</style><defs><path id="fqSVGID_1_" d="M0 0h193v193H0z"/></defs><clipPath id="fqSVGID_2_"><use xlink:href="#fqSVGID_1_" overflow="visible"/></clipPath><g class="fqst0"><path class="fqst1" d="M98.5 178.9c-10.2 0-18.5-8.3-18.5-18.5s8.3-18.5 18.5-18.5 18.5 8.3 18.5 18.5-8.3 18.5-18.5 18.5zm0-35c-9.1 0-16.5 7.4-16.5 16.5s7.4 16.5 16.5 16.5 16.5-7.4 16.5-16.5-7.4-16.5-16.5-16.5z"/><path class="fqst2" d="M94.1 155.5c-.4-.7-1.1-1.1-1.8-1.1-.8 0-1.4.4-1.8 1.1l-1.7-1c.7-1.3 2.1-2.1 3.5-2.1s2.8.8 3.5 2.1l-1.7 1zM102.8 155.5l-1.7-1c.7-1.3 2.1-2.1 3.5-2.1s2.8.8 3.5 2.1l-1.7 1c-.4-.7-1.1-1.1-1.8-1.1s-1.4.4-1.8 1.1zM98.5 172.4c-6.1 0-11-4.9-11-11v-1h22v1c0 6.1-5 11-11 11zm-9-10c.5 4.5 4.3 8 8.9 8s8.4-3.5 8.9-8H89.5z"/><circle class="fqst3" cx="104" cy="127.8" r="2"/><path class="fqst4" d="M184.1 133.1h2v4h-2zM184.1 143.1h2v4h-2zM188.1 139.1h4v2h-4zM178.1 139.1h4v2h-4z"/><path class="fqst5" d="M90 112.9h-9.5c-1.8 0-3.6-.6-5.1-1.7-1.1-.8-2.5-1.3-3.9-1.3h-7.8v4.8h-13v3H13v15h37.6v-3h13v-4.8h7.8c1.4 0 2.8.5 3.9 1.3 1.5 1.1 3.3 1.7 5.1 1.7H90v-15z"/><path transform="rotate(-90 31.86 94.64)" class="fqst6" d="M8.8 75.8h46.1v37.6H8.8z"/><path class="fqst7" d="M81 164.9H17c-5 0-9-4-9-9v-132c0-5 4-9 9-9h64c5 0 9 4 9 9v13h-2v-13c0-3.9-3.1-7-7-7H17c-3.9 0-7 3.1-7 7v132c0 3.9 3.1 7 7 7h64c3.9 0 7-3.1 7-7v-41.3h2v41.3c0 5-4 9-9 9z"/><path class="fqst7" d="M86 146.9H12v-120h74v10.2h-2v-8.2H14v116h70v-30.3h2zM49 24.9c-1.1 0-2-.9-2-2s.9-2 2-2 2 .9 2 2-.9 2-2 2zm0-2h1-1zM49 160.9c-3.3 0-6-2.7-6-6s2.7-6 6-6 6 2.7 6 6-2.7 6-6 6zm0-10c-2.2 0-4 1.8-4 4s1.8 4 4 4 4-1.8 4-4-1.8-4-4-4z"/><circle class="fqst6" cx="49" cy="154.9" r="2"/><path class="fqst4" d="M63.7 114.7h-13v-2h11v-37h-11v-2h13zM46.7 110.7c-.6 0-1-.4-1-1v-4c0-.6.4-1 1-1s1 .4 1 1v4c0 .6-.5 1-1 1z"/><path class="fqst4" d="M46.7 114.7c-1.7 0-3-1.3-3-3s1.3-3 3-3 3 1.3 3 3-1.4 3-3 3zm0-4c-.6 0-1 .4-1 1s.4 1 1 1 1-.4 1-1-.5-1-1-1zM76 92.9c-.6 0-1-.4-1-1s.4-1 1-1c3.1 0 5.8-2.1 6.7-5l2.1-7.3h14.5c3.3 0 6-2.7 6-6l-25.1.1c-1 0-1.9.5-2.5 1.4l-5 7.7-9.8.2c-.6 0-1-.4-1-1s.4-1 1-1l8.8-.1 4.4-6.8c.9-1.4 2.5-2.2 4.2-2.3l27.1-.1v2c0 4.4-3.6 8-8 8H86.3l-1.7 5.9c-1.1 3.6-4.6 6.3-8.6 6.3z"/><path class="fqst7" d="M102 112.9h-8c-2.8 0-5-2.2-5-5s2.2-5 5-5h8c2.8 0 5 2.2 5 5s-2.2 5-5 5zm-8-8c-1.7 0-3 1.3-3 3s1.3 3 3 3h8c1.7 0 3-1.3 3-3s-1.3-3-3-3h-8z"/><path class="fqst7" d="M106 104.9H94c-2.8 0-5-2.2-5-5s2.2-5 5-5h12c2.8 0 5 2.2 5 5s-2.2 5-5 5zm-12-8c-1.7 0-3 1.3-3 3s1.3 3 3 3h12c1.7 0 3-1.3 3-3s-1.3-3-3-3H94z"/><path class="fqst7" d="M106 96.9H94c-2.8 0-5-2.2-5-5s2.2-5 5-5h12c2.8 0 5 2.2 5 5s-2.2 5-5 5zm-12-8c-1.7 0-3 1.3-3 3s1.3 3 3 3h12c1.7 0 3-1.3 3-3s-1.3-3-3-3H94z"/><path class="fqst7" d="M106 88.9H94c-2.8 0-5-2.2-5-5s2.2-5 5-5h12c2.8 0 5 2.2 5 5s-2.2 5-5 5zm-12-8c-1.7 0-3 1.3-3 3s1.3 3 3 3h12c1.7 0 3-1.3 3-3s-1.3-3-3-3H94zM94 112.9H80.5c-1.8 0-3.6-.6-5.1-1.7-1.1-.8-2.5-1.3-3.9-1.3H62v-2h9.5c1.8 0 3.6.6 5.1 1.7 1.1.8 2.5 1.3 3.9 1.3H94v2zM114 67.9H78v-29h36v29zm-34-2h32v-25H80v25z"/><path class="fqst7" d="M172 91.9h-5.2l-.2-.1-54-24 .8-1.8 53.8 23.9h2.8v-73h-2.8l-53.8 23.9-.8-1.8 54.2-24.1h5.2zM106 43.9c0-.6.4-1 1-1 .5 0 1 .4 1 1 0 .5-.5 1-1 1s-1-.4-1-1zm-4 0c0-.6.4-1 1-1 .5 0 1 .4 1 1 0 .5-.5 1-1 1s-1-.4-1-1zm-4 0c0-.6.4-1 1-1 .5 0 1 .4 1 1 0 .5-.5 1-1 1s-1-.4-1-1zm-4 0c0-.6.4-1 1-1 .5 0 1 .4 1 1 0 .5-.5 1-1 1s-1-.4-1-1zm-4 0c0-.6.4-1 1-1 .5 0 1 .4 1 1 0 .5-.5 1-1 1s-1-.4-1-1zm-4 0c0-.6.4-1 1-1 .5 0 1 .4 1 1 0 .5-.5 1-1 1s-1-.4-1-1zm-4 0c0-.6.5-1 1-1s1 .4 1 1c0 .5-.5 1-1 1s-1-.4-1-1zM85 66.9h2v5h-2zM90 101.9h-5v-22h2v20h3z"/><g><path class="fqst7" d="M97 66.9h2v4h-2z"/></g><g><path class="fqst7" d="M78.7 63.1H69V43.9h9v2h-7v15.2h7.7z"/></g><g><path class="fqst5" d="M167.7 87.9h.4v-51l-52 12V65l51.6 22.9z"/></g><g><path class="fqst4" d="M177 20.9c-.4 0-.7-.2-.9-.6-.2-.5 0-1.1.4-1.3l8-4c.5-.2 1.1 0 1.3.4.2.5 0 1.1-.4 1.3l-8 4c-.1.2-.2.2-.4.2z"/></g><g><path class="fqst4" d="M185 90.9c-.2 0-.3 0-.4-.1l-8-4c-.5-.2-.7-.8-.4-1.3s.8-.7 1.3-.4l8 4c.5.2.7.8.4 1.3-.1.3-.5.5-.9.5z"/></g><g><path class="fqst4" d="M185 53.9h-8c-.6 0-1-.4-1-1s.4-1 1-1h8c.6 0 1 .4 1 1s-.4 1-1 1z"/></g><g><path class="fqst4" d="M177 37.4c-.4 0-.8-.3-1-.7-.2-.5.1-1.1.7-1.3l8-2.5c.5-.2 1.1.1 1.3.7.2.5-.1 1.1-.7 1.3l-8 2.5h-.3z"/></g><g><path class="fqst4" d="M185 72.9h-.3l-8-2.5c-.5-.2-.8-.7-.7-1.3.2-.5.7-.8 1.3-.7l8 2.5c.5.2.8.7.7 1.3-.1.4-.5.7-1 .7z"/></g><g><path class="fqst5" d="M109 95.9c1.1.8 1.9 2.1 2 3.5v-.5c0-1.4-.6-2.6-1.5-3.5-.1.2-.3.3-.5.5z"/></g><g><path class="fqst4" d="M129.5 154.9h-3.9c-.6 0-1-.4-1-1s.4-1 1-1c1.5 0 2.9-.5 4.1-1.4.7-.6 1.3-1.3 1.8-2.1.6-1 .8-2.1.8-3.3v-.4c-6.1-2-11.4-6-14.9-11.4-4.2-6.5-5.6-14.3-3.7-21.9 1.8-7.6 6.6-13.9 13.4-17.8 12.8-7.4 29.2-3.5 37.4 8.8 5.8 8.7 6.3 19.9 1.3 29.1l-.2.4c-1.9 3.4-4.5 6.2-7.6 8.6l-1.6 1.1c-3.9 2.5-8.3 4-12.9 4.4-2.9 4.9-8.3 7.9-14 7.9zM140.9 93c-4.4 0-8.8 1.1-12.8 3.4-6.3 3.6-10.7 9.5-12.4 16.5-1.7 7-.5 14.3 3.5 20.3 3.4 5.2 8.5 9 14.5 10.8.4.1.7.5.7 1v1.2c0 1.5-.4 2.9-1.1 4.2-.5.9-1.2 1.7-2 2.4 4.5-.6 8.5-3.2 10.8-7.2.2-.3.5-.5.8-.5 4.4-.3 8.7-1.7 12.4-4.1l1.5-1.1c2.9-2.1 5.2-4.8 7-8l.2-.4c4.6-8.6 4.2-18.9-1.2-27C158 97.1 149.5 93 140.9 93zm24.1 39z"/></g><g><circle class="fqst3" cx="114.5" cy="27.4" r="1.5"/></g><g><path class="fqst4" d="M165.8 174.4c-2.6 0-4.8-2.1-4.8-4.8s2.1-4.8 4.8-4.8 4.8 2.1 4.8 4.8-2.2 4.8-4.8 4.8zm0-7.5c-1.5 0-2.8 1.2-2.8 2.8s1.2 2.8 2.8 2.8 2.8-1.2 2.8-2.8-1.3-2.8-2.8-2.8z"/></g><g><path class="fqst4" d="M6.9 168.1h2v4h-2zM6.9 178.1h2v4h-2z"/><g><path class="fqst4" d="M10.9 174.1h4v2h-4zM.9 174.1h4v2h-4z"/></g></g><g><circle class="fqst6" cx="95" cy="13.9" r="3"/></g><g><path class="fqst4" d="M30 38.9h2v4h-2zM30 48.9h2v4h-2z"/><g><path class="fqst4" d="M34 44.9h4v2h-4zM24 44.9h4v2h-4z"/></g></g><g><path class="fqst3" d="M141 95.9c-12.7 0-23 10.3-23 23s10.3 23 23 23 23-10.3 23-23-10.3-23-23-23zm8.9 24.7v3.6c0 3.7-.7 7.3-2 10.8v1.2h-12.8v-.7c0-.4-.2-.9-.5-1.2l-2.8-3.7c-1.2-1.6-1.9-3.5-1.9-5.5v-8.9h1c1.7 0 3 1.3 3 3v-11c0-1.3 1.2-2.3 2.6-1.9.9.2 1.5 1.1 1.5 2v9.2c0-1.3 1.3-2.3 2.6-1.9.9.2 1.4 1.1 1.4 2V117.4c0-1.1 1.1-1.9 2.2-1.8 1 .1 1.8 1 1.8 2.1v1c.1-1.1 1.1-2 2.3-1.8 1 .1 1.7 1.1 1.7 2.1v1.6z"/><path class="fqst7" d="M148.9 137.1h-14.8v-1.7c0-.1-.1-.4-.2-.5l-.1-.1-2.8-3.7c-1.3-1.7-2.1-3.9-2.1-6.1v-10h2c.7 0 1.4.2 2 .5V108c0-.9.4-1.8 1.2-2.4.8-.6 1.7-.8 2.7-.5 1.3.4 2.2 1.6 2.2 3v6.4c.6-.2 1.3-.3 1.9-.1.4.1.8.4 1.2.7.6-.5 1.4-.8 2.3-.7 1 .1 1.9.7 2.3 1.6.5-.3 1.2-.4 1.8-.3 1.4.2 2.5 1.5 2.5 3.1v5.2c0 3.8-.7 7.5-2.1 11.1v2zm-12.9-2h10.9c0-.2 0-.3.1-.5 1.3-3.4 2-6.9 2-10.4V119c0-.5-.4-1-.8-1.1-.3 0-.6 0-.8.2-.2.1-.3.3-.3.6v1.5h-2v-1.3V117.7c0-.5-.4-1-.9-1.1-.3 0-.6.1-.8.3-.1.1-.3.3-.3.6v2.8h-2v-2.6c0-.5-.3-.9-.7-1-.3-.1-.7 0-1 .2-.3.2-.4.5-.4.8v2.7h-2v-11.9c0-.5-.3-1-.7-1.1-.4-.1-.8 0-.9.2-.3.2-.4.5-.4.8v14.9h-2v-3.9c0-1.1-.9-2-2-2v8c0 1.7.6 3.5 1.6 4.9l2.8 3.7c.3 0 .5.6.6 1.1z"/><g><path class="fqst7" d="M151.8 144.1h-2v-6c0-.6-.4-1-1-1h-14c-.6 0-1 .4-1 1v6h-2v-6c0-1.7 1.3-3 3-3h14c1.7 0 3 1.3 3 3v6z"/></g><g><path class="fqst4" d="M139.6 105.4c-.3 0-.5-.1-.7-.3-.4-.4-.4-1 0-1.4l1.4-1.4c.4-.4 1-.4 1.4 0 .4.4.4 1 0 1.4l-1.4 1.4c-.2.2-.5.3-.7.3zM132.5 105.4c-.3 0-.5-.1-.7-.3l-1.4-1.4c-.4-.4-.4-1 0-1.4s1-.4 1.4 0l1.4 1.4c.4.4.4 1 0 1.4-.2.2-.4.3-.7.3zM143 108.9h-1.6c-.6 0-1-.4-1-1s.4-1 1-1h1.6c.6 0 1 .4 1 1s-.4 1-1 1zM130.5 108.9H129c-.6 0-1-.4-1-1s.4-1 1-1h1.4c.6 0 1 .4 1 1s-.4 1-.9 1z"/><g><path class="fqst4" d="M136 103.8c-.6 0-1-.4-1-1v-1.9c0-.6.4-1 1-1s1 .4 1 1v1.9c0 .5-.4 1-1 1z"/></g></g></g></g></svg>