<?xml version="1.0" encoding="utf-8"?><svg id="fdLayer_1" xmlns="http://www.w3.org/2000/svg" xmlns:xlink="http://www.w3.org/1999/xlink" viewBox="0 0 193 193" width="193" height="193"><style>.fdst0{clip-path:url(#fdSVGID_2_)}.fdst1{fill:#ffd15d}.fdst2{fill:#dfe0e0}.fdst3{fill:#48515a}.fdst4{fill:#475059}</style><defs><path id="fdSVGID_1_" d="M0 0h193v193H0z"/></defs><clipPath id="fdSVGID_2_"><use xlink:href="#fdSVGID_1_" overflow="visible"/></clipPath><g class="fdst0"><path class="fdst1" d="M93.7 29.6v24h-18v90h-48v-114zM150.5 56.5v20h20"/><path class="fdst2" d="M119.7 59.5h11v99h-49v-9h38s-.2-89.8 0-90z"/><path class="fdst3" d="M146.6 52.6c-.3 0-.5-.1-.7-.3l-5.4-5.4h15.4c4.6 0 8.3-3.7 8.3-8.3 0-4.6-3.7-8.3-8.3-8.3-.6 0-1-.4-1-1s.4-1 1-1c5.7 0 10.3 4.6 10.3 10.3 0 5.7-4.6 10.3-10.3 10.3h-10.6l2 2c.4.4.4 1 0 1.4-.2.2-.5.3-.7.3zM133.6 48.9c-5.7 0-10.3-4.6-10.3-10.3 0-5.7 4.6-10.3 10.3-10.3h10.6l-2-2c-.4-.4-.4-1 0-1.4.4-.4 1-.4 1.4 0l5.4 5.4h-15.4c-4.6 0-8.3 3.7-8.3 8.3 0 4.6 3.7 8.3 8.3 8.3.6 0 1 .4 1 1 0 .5-.5 1-1 1zM117.5 147.5h-21c-.6 0-1-.4-1-1s.4-1 1-1h19V46.9L96.1 27.5H25.5v118h45c.6 0 1 .4 1 1s-.4 1-1 1h-47v-122h73.4l20.6 20.6v101.4z"/><path class="fdst3" d="M116.5 47.5h-21v-21c0-.6.4-1 1-1s1 .4 1 1v19h19c.6 0 1 .4 1 1s-.5 1-1 1zM171.5 177.5h-94v-122h15c.6 0 1 .4 1 1s-.4 1-1 1h-13v118h90V76.9l-19.4-19.4h-25.6c-.6 0-1-.4-1-1s.4-1 1-1h26.4l20.6 20.6v101.4z"/><path class="fdst3" d="M97.5 152.1l-11.2-5.6 11.2-5.6v11.2zm-6.8-5.6l4.8 2.4v-4.8l-4.8 2.4zM91.5 62.1V50.9l11.2 5.6-11.2 5.6zm2-8v4.8l4.8-2.4-4.8-2.4zM120.5 57.5c-.1 0-.3 0-.4-.1-.1-.1-.2-.1-.3-.2-.2-.2-.3-.4-.3-.7 0-.1 0-.3.1-.4 0-.1.1-.2.2-.3.1-.1.2-.2.3-.2.2-.1.4-.1.6-.1.1 0 .1 0 .2.1.1 0 .1.1.2.1 0 0 .1.1.2.1.1.1.2.2.2.3 0 .1.1.2.1.4v.2c0 .1 0 .1-.1.2 0 .1 0 .1-.1.2l-.1.1s-.1.1-.2.1-.1.1-.2.1-.1 0-.2.1h-.2zM74.5 147.5c-.1 0-.3 0-.4-.1-.1 0-.2-.1-.3-.2-.1-.1-.2-.2-.2-.3-.1-.1-.1-.2-.1-.4 0-.1 0-.3.1-.4 0-.1.1-.2.2-.3.2-.2.6-.3.9-.3.1 0 .1 0 .2.1.1 0 .1 0 .2.1 0 0 .1.1.2.1.2.2.3.5.3.7 0 .1 0 .3-.1.4 0 .1-.1.2-.2.3-.1.1-.2.2-.3.2s-.4.1-.5.1zM86.5 86.5c-2.2 0-4-1.8-4-4v-2c0-2.2 1.8-4 4-4s4 1.8 4 4v2c0 2.2-1.8 4-4 4zm0-8c-1.1 0-2 .9-2 2v2c0 1.1.9 2 2 2s2-.9 2-2v-2c0-1.1-.9-2-2-2zM95.5 86.5c-.6 0-1-.4-1-1v-7h-1c-.6 0-1-.4-1-1s.4-1 1-1h3v9c0 .6-.4 1-1 1zM101.5 86.5c-.6 0-1-.4-1-1v-7h-1c-.6 0-1-.4-1-1s.4-1 1-1h3v9c0 .6-.4 1-1 1zM108.5 86.5c-2.2 0-4-1.8-4-4v-2c0-2.2 1.8-4 4-4s4 1.8 4 4v2c0 2.2-1.8 4-4 4zm0-8c-1.1 0-2 .9-2 2v2c0 1.1.9 2 2 2s2-.9 2-2v-2c0-1.1-.9-2-2-2zM92.5 99.5c-2.2 0-4-1.8-4-4v-2c0-2.2 1.8-4 4-4s4 1.8 4 4v2c0 2.2-1.8 4-4 4zm0-8c-1.1 0-2 .9-2 2v2c0 1.1.9 2 2 2s2-.9 2-2v-2c0-1.1-.9-2-2-2zM101.5 99.5c-.6 0-1-.4-1-1v-7h-1c-.6 0-1-.4-1-1s.4-1 1-1h3v9c0 .6-.4 1-1 1zM108.5 99.5c-2.2 0-4-1.8-4-4v-2c0-2.2 1.8-4 4-4s4 1.8 4 4v2c0 2.2-1.8 4-4 4zm0-8c-1.1 0-2 .9-2 2v2c0 1.1.9 2 2 2s2-.9 2-2v-2c0-1.1-.9-2-2-2zM85.5 99.5c-.6 0-1-.4-1-1v-7h-1c-.6 0-1-.4-1-1s.4-1 1-1h3v9c0 .6-.4 1-1 1zM92.5 112.5c-2.2 0-4-1.8-4-4v-2c0-2.2 1.8-4 4-4s4 1.8 4 4v2c0 2.2-1.8 4-4 4zm0-8c-1.1 0-2 .9-2 2v2c0 1.1.9 2 2 2s2-.9 2-2v-2c0-1.1-.9-2-2-2zM85.5 112.5c-.6 0-1-.4-1-1v-7h-1c-.6 0-1-.4-1-1s.4-1 1-1h3v9c0 .6-.4 1-1 1zM110.5 112.5c-.6 0-1-.4-1-1v-7h-1c-.6 0-1-.4-1-1s.4-1 1-1h3v9c0 .6-.4 1-1 1zM102.5 112.5c-2.2 0-4-1.8-4-4v-2c0-2.2 1.8-4 4-4s4 1.8 4 4v2c0 2.2-1.8 4-4 4zm0-8c-1.1 0-2 .9-2 2v2c0 1.1.9 2 2 2s2-.9 2-2v-2c0-1.1-.9-2-2-2zM96.5 125.5c-2.2 0-4-1.8-4-4v-2c0-2.2 1.8-4 4-4s4 1.8 4 4v2c0 2.2-1.8 4-4 4zm0-8c-1.1 0-2 .9-2 2v2c0 1.1.9 2 2 2s2-.9 2-2v-2c0-1.1-.9-2-2-2zM86.5 125.5c-2.2 0-4-1.8-4-4v-2c0-2.2 1.8-4 4-4s4 1.8 4 4v2c0 2.2-1.8 4-4 4zm0-8c-1.1 0-2 .9-2 2v2c0 1.1.9 2 2 2s2-.9 2-2v-2c0-1.1-.9-2-2-2zM104.5 125.5c-.6 0-1-.4-1-1v-7h-1c-.6 0-1-.4-1-1s.4-1 1-1h3v9c0 .6-.4 1-1 1zM110.5 125.5c-.6 0-1-.4-1-1v-7h-1c-.6 0-1-.4-1-1s.4-1 1-1h3v9c0 .6-.4 1-1 1z"/><g><path class="fdst3" d="M134.5 103.5h24v2h-24zM134.5 107.5h24v2h-24zM134.5 111.5h24v2h-24zM134.5 127.5h24v2h-24zM134.5 131.5h24v2h-24zM134.5 135.5h24v2h-24z"/></g><g><path class="fdst4" d="M65.8 152.2l-1.9-.6.3-1-1.3-.4c-1.5-.5-2.5-1.9-2.5-3.5s1-3 2.5-3.5l1.3-.4-.7-2.2-1.3.4c-1.5.5-3.2 0-4.1-1.3-1-1.3-.9-3 0-4.3l.8-1.1-1.8-1.3-.8 1.1c-1 1.3-2.6 1.8-4.1 1.3-1.5-.5-2.5-1.9-2.5-3.5v-1.3h-2.3v1.3c0 1.6-1 3-2.5 3.5s-3.2 0-4.1-1.3L40 133l-1.8 1.3.8 1.1c1 1.3.9 3 0 4.3-1 1.3-2.6 1.8-4.1 1.3l-1.3-.4-.3 1-1.9-.6.9-2.9 3.2 1c.8.3 1.5-.1 1.9-.6.3-.5.5-1.2 0-2l-2-2.7 5.1-3.7 2 2.7c.5.7 1.3.8 1.9.6.6-.2 1.2-.7 1.2-1.6v-3.3h6.3v3.3c0 .9.6 1.4 1.2 1.6.6.2 1.3.1 1.9-.6l2-2.7 5.1 3.7-2 2.7c-.5.7-.3 1.5 0 2s1 .9 1.9.6l3.2-1 1.9 6-3.2 1c-.9.3-1.2 1-1.2 1.6 0 .6.3 1.3 1.2 1.6l3.2 1-1.3 2.9z"/><path class="fdst4" d="M56.6 149.3l-1.9-.6c1.1-3.4-.8-7.1-4.1-8.2-1.6-.5-3.4-.4-4.9.4-1.5.8-2.7 2.1-3.2 3.8l-1.9-.6c.7-2.2 2.2-3.9 4.2-4.9 2-1 4.3-1.2 6.5-.5 4.3 1.3 6.7 6.1 5.3 10.6z"/><g><path class="fdst4" d="M48.6 155c-.9 0-1.8-.1-2.6-.4-4.4-1.4-6.9-6.2-5.4-10.7l1.9.6c-1.1 3.4.8 7.1 4.1 8.2 3.4 1.1 7.1-.8 8.2-4.1l1.9.6c-.7 2.2-2.2 3.9-4.2 4.9-1.3.6-2.6.9-3.9.9z"/><path class="fdst4" d="M51.7 164.7h-6.3v-3.3c0-.9-.6-1.4-1.2-1.6-.6-.2-1.3-.1-1.9.6l-2 2.7-5.1-3.7 2-2.7c.5-.7.3-1.5 0-2s-1-.9-1.9-.6l-3.2 1-1.9-6 3.2-1c.9-.3 1.2-1 1.2-1.6 0-.6-.3-1.3-1.2-1.6l-3.2-1 1.1-3.3 1.9.6-.4 1.4 1.3.4c1.5.5 2.5 1.9 2.5 3.5s-1 3-2.5 3.5l-1.3.4.7 2.2 1.3-.4c1.5-.5 3.2 0 4.1 1.3 1 1.3.9 3 0 4.3l-.8 1.1 1.8 1.3.8-1.1c1-1.3 2.6-1.8 4.1-1.3 1.5.5 2.5 1.9 2.5 3.5v1.3h2.3v-1.3c0-1.6 1-3 2.5-3.5s3.2 0 4.1 1.3l.8 1.1 2-1.2-.8-1.1c-1-1.3-.9-3 0-4.3 1-1.3 2.6-1.8 4.1-1.3l1.3.4.5-1.5 1.9.6-1.1 3.4-3.2-1c-.9-.3-1.5.1-1.9.6-.3.5-.5 1.2 0 2l2 2.7-5.1 3.7-2-2.7c-.5-.7-1.3-.8-1.9-.6-.6.2-1.2.7-1.2 1.6l.1 3.2z"/></g><g><path class="fdst4" d="M48.5 151.7c-2.8 0-5-2.2-5-5s2.2-5 5-5 5 2.2 5 5-2.2 5-5 5zm0-8c-1.7 0-3 1.3-3 3s1.3 3 3 3 3-1.3 3-3-1.3-3-3-3z"/></g></g><g><circle class="fdst1" cx="61.5" cy="171.5" r="3"/></g><g><circle class="fdst1" cx="15.5" cy="135.5" r="3"/></g><g><circle class="fdst1" cx="168.5" cy="54.5" r="2"/></g><g><path class="fdst3" d="M39.5 71.5h24v2h-24zM39.5 75.5h24v2h-24zM39.5 79.5h24v2h-24zM39.5 95.5h24v2h-24zM39.5 99.5h24v2h-24zM39.5 103.5h24v2h-24z"/></g><g><path class="fdst3" d="M6.4 97.5h2v4h-2zM6.4 107.5h2v4h-2zM10.4 103.5h4v2h-4zM.4 103.5h4v2h-4z"/></g><g><path class="fdst3" d="M184.6 87.5h2v4h-2zM184.6 97.5h2v4h-2zM188.6 93.5h4v2h-4zM178.6 93.5h4v2h-4z"/></g><g><circle class="fdst1" cx="178.5" cy="74.5" r="2"/></g><g><path class="fdst3" d="M154.5 156.6h2v4h-2zM154.5 166.6h2v4h-2zM158.5 162.6h4v2h-4zM148.5 162.6h4v2h-4z"/></g><g><circle class="fdst1" cx="88.4" cy="17.5" r="2"/></g></g></svg>