<?xml version="1.0" encoding="utf-8"?><svg id="fcLayer_1" xmlns="http://www.w3.org/2000/svg" xmlns:xlink="http://www.w3.org/1999/xlink" viewBox="0 0 193 193" width="193" height="193"><style>.fcst0{clip-path:url(#fcSVGID_2_)}.fcst1{fill:none}.fcst2{fill:#ffd15d}.fcst3{fill:#dfe0e0}.fcst4{fill:#475059}.fcst5{fill:#48515a}.fcst6{fill:#f58e70}</style><defs><path id="fcSVGID_1_" d="M0 0h193v193H0z"/></defs><clipPath id="fcSVGID_2_"><use xlink:href="#fcSVGID_1_" overflow="visible"/></clipPath><g class="fcst0"><circle class="fcst1" cx="91.9" cy="97" r="7.5"/><path class="fcst2" d="M102.8 107.3c0-2.2 1.8-4 4-4h16.8c.4-2.2.7-4.5.7-6.8 0-18.7-14.6-33.9-33-34.9v3.1h6.3c1 .1 1.8 1 1.8 2.1v4.9c0 1.3-.5 2.7-1.3 3.7l-1.9 2.4v1h-9.9v-1l-1.8-2.4c-.8-1-1.2-2.3-1.2-3.7v-5c0-1.1.9-2 2-2h2v-3.1c-18.4 1.1-33 16.3-33 34.9 0 7.8 2.6 15 6.9 20.8l.2-.2c.9-.9 2.1-1.5 3.5-1.7l3-.4.7-.7 7 7-.7.7-.4 3c-.1 1-.5 1.9-1 2.6 4.8 2.4 10.1 3.8 15.8 3.8 14 0 26.1-8.3 31.7-20.2h-14.1c-2.3.1-4.1-1.7-4.1-3.9zm-10.9-2.8c-4.1 0-7.5-3.4-7.5-7.5s3.4-7.5 7.5-7.5 7.5 3.4 7.5 7.5-3.4 7.5-7.5 7.5z"/><path class="fcst3" d="M123.4 155.3c-10 5.8-21.7 9.2-34.1 9.2-13.7 0-26.4-4-37-11 1.3 2 2.7 4 4.3 5.8 11.7 9.5 26.6 15.1 42.8 15.1 8.5 0 16.6-1.6 24.1-4.4v-14.7zM156.9 103.3h10.3c-.7-14.2-5.7-27.3-13.8-37.9-.9.6-1.9 1.2-2.9 1.7 4.3 8.9 6.7 18.9 6.7 29.4.1 2.3 0 4.6-.3 6.8zM155.6 111.3c-2.8 12.4-8.9 23.6-17.5 32.4h18c6.2-9.4 10.1-20.5 10.9-32.4h-11.4z"/><path class="fcst4" d="M87.3 78.6h-2V78l-1.6-2.1c-.9-1.2-1.4-2.7-1.4-4.3v-5c0-1.7 1.3-3 3-3h1v-5.1c0-1.2.8-2.4 1.9-2.8 1.3-.5 2.7 0 3.8 1.2.2.2.3.5.3.8v6h5.3c1.6.1 2.8 1.5 2.8 3.1v4.9c0 1.6-.5 3.1-1.5 4.3l-1.7 2v.6h-2v-1.3l2.1-2.6c.7-.9 1.1-2 1.1-3.1v-4.9c0-.6-.4-1-.9-1.1h-7.2V58c-.5-.4-1-.6-1.4-.4-.4.1-.7.5-.7.9v7.1h-3c-.6 0-1 .4-1 1v5c0 1.1.4 2.2 1 3l2 2.7v1.3zm3.2-20.4z"/><path class="fcst4" d="M86.2 64.6h2v3.9h-2zM56.8 133.8c-1.5 0-2.7-.7-3.2-1.9-.5-1.1-.3-2.5.6-3.4l3.6-3.6-.7-.7c-.6-.6-.9-1.3-.9-2.1s.3-1.6.9-2.1l3.5-3.5c1.1-1.1 2.5-1.8 4-2l2.6-.4.4-.4 1.4 1.4-.9.9-3.3.4c-1.1.1-2.1.6-2.9 1.4l-3.5 3.5c-.2.2-.3.4-.3.7 0 .3.1.5.3.7l2.1 2.1-5 5c-.3.3-.4.7-.2 1.1.2.4.7.7 1.3.7l5.4-5.4 5.1 5.2c.3.3.9.2 1.3-.2l3.4-3.4c.8-.8 1.3-1.8 1.4-2.9l.4-3.3.9-.9 1.4 1.4-.4.4-.3 2.7c-.2 1.6-.9 3-2 4.1l-3.4 3.4c-1.1 1.1-2.9 1.2-4.1.3l-3.8-3.8-4.2 4.2c-.2.2-.5.3-.7.3.1.1-.1.1-.2.1z"/><path transform="rotate(-45.001 60.65 123.556)" class="fcst4" d="M58.7 122.6h3.9v2h-3.9z"/><path class="fcst5" d="M88.3 44.5h2v8.3h-2zM88.3 140.2h2v8.3h-2zM37.3 95.5h8.3v2h-8.3zM133 95.5h8.3v2H133z"/><path transform="rotate(-30 64.357 53.199)" class="fcst5" d="M63.4 51.2h2v4h-2z"/><path transform="rotate(-60 46.061 71.5)" class="fcst5" d="M45.1 69.5h2v4h-2z"/><path transform="rotate(-29.991 46.07 121.505)" class="fcst5" d="M44.1 120.5h4v2h-4z"/><path transform="rotate(-29.991 132.677 71.5)" class="fcst5" d="M130.7 70.5h4v2h-4z"/><path transform="rotate(-60.007 64.36 139.795)" class="fcst5" d="M62.4 138.8h4v2h-4z"/><path class="fcst4" d="M91.9 105.5c-4.7 0-8.5-3.8-8.5-8.5s3.8-8.5 8.5-8.5 8.5 3.8 8.5 8.5-3.9 8.5-8.5 8.5zm0-15c-3.6 0-6.5 2.9-6.5 6.5s2.9 6.5 6.5 6.5 6.5-2.9 6.5-6.5-3-6.5-6.5-6.5zM106.8 112.3c-2.8 0-5-2.2-5-5s2.2-5 5-5h67.6l10.8 5-10.8 5h-67.6zm0-8c-1.7 0-3 1.3-3 3s1.3 3 3 3H174l6.5-3-6.5-3h-67.2z"/><path class="fcst4" d="M112.4 103.7h2v7.6h-2z"/><path class="fcst4" d="M113.4 106.3h60v2h-60z"/><path class="fcst5" d="M168.6 172.2h-46.3v-29.5h46.3v29.5zm-44.2-2h42.3v-25.5h-42.3v25.5z"/><path class="fcst5" d="M145.5 158.8c-.2 0-.4-.1-.5-.2l-16.1-10.3 1.1-1.7 15.6 9.9 15-9.6 1.1 1.7-15.5 9.9c-.3.2-.5.3-.7.3z"/><path transform="rotate(-39.807 159.782 162.31)" class="fcst5" d="M158.8 155.3h2v13.9h-2z"/><path transform="rotate(-50.189 131.206 162.292)" class="fcst5" d="M124.2 161.3h13.9v2h-13.9z"/><path class="fcst5" d="M146.3 174.1h2v14h-2zM147.3 192.5c-.1 0-.3 0-.4-.1-.1 0-.2-.1-.3-.2-.1-.1-.2-.2-.2-.3 0-.1-.1-.2-.1-.4 0-.1 0-.3.1-.4 0-.1.1-.2.2-.3.1-.1.2-.2.3-.2.2-.1.5-.1.8 0 .1 0 .2.1.3.2.1.1.2.2.2.3.1.1.1.2.1.4 0 .1 0 .3-.1.4 0 .1-.1.2-.2.3-.1.2-.4.3-.7.3zM155 174.1h2v5.3h-2z"/><g><path class="fcst5" d="M156 183.8c-.3 0-.5-.1-.7-.3-.2-.2-.3-.4-.3-.7 0-.1 0-.3.1-.4 0-.1.1-.2.2-.3.2-.2.6-.3.9-.3.1 0 .1 0 .2.1.1 0 .1.1.2.1s.1.1.2.1c.1.1.2.2.2.3 0 .1.1.2.1.4 0 .3-.1.5-.3.7-.2.2-.5.3-.8.3z"/></g><g><path class="fcst5" d="M137.6 174.1h2v8.2h-2z"/></g><g><path class="fcst5" d="M138.6 186.7c-.3 0-.5-.1-.7-.3-.1-.1-.2-.2-.2-.3 0-.1-.1-.2-.1-.4 0-.3.1-.5.3-.7.3-.3.7-.4 1.1-.2.1 0 .2.1.3.2.1.1.2.2.2.3 0 .1.1.2.1.4 0 .1 0 .3-.1.4 0 .1-.1.2-.2.3-.1.2-.4.3-.7.3z"/></g><g><path class="fcst4" d="M141.9 66c-9.4 0-17-7.6-17-17s7.6-17 17-17 17 7.6 17 17-7.6 17-17 17zm-15-17c0 8.3 6.7 15 15 15s15-6.7 15-15-6.7-15-15-15-15 6.8-15 15zm15 11c-6.1 0-11-4.9-11-11s4.9-11 11-11 11 4.9 11 11-4.9 11-11 11zm0-20c-5 0-9 4-9 9s4 9 9 9 9-4 9-9-4-9-9-9z"/><path class="fcst4" d="M141.9 54c-2.8 0-5-2.2-5-5s2.2-5 5-5 5 2.2 5 5-2.2 5-5 5zm0-8c-1.7 0-3 1.3-3 3s1.3 3 3 3 3-1.3 3-3-1.3-3-3-3z"/><circle class="fcst6" cx="141.9" cy="49" r="4"/><path class="fcst6" d="M141.9 54c-2.8 0-5-2.2-5-5s2.2-5 5-5 5 2.2 5 5-2.2 5-5 5zm0-8c-1.7 0-3 1.3-3 3s1.3 3 3 3 3-1.3 3-3-1.3-3-3-3z"/><g><path class="fcst4" d="M114.9 48h27v2h-27z"/><path class="fcst4" d="M112.4 54h-8.8l5-5-5-5h8.8l5 5-5 5zm-4-2h3.2l3-3-3-3h-3.2l3 3-3 3z"/></g></g><g><path class="fcst4" d="M74.3 21.5c-2.8 0-5-2.2-5-5s2.2-5 5-5 5 2.2 5 5-2.2 5-5 5zm0-8c-1.7 0-3 1.3-3 3s1.3 3 3 3 3-1.3 3-3-1.3-3-3-3z"/></g><g><circle class="fcst6" cx="177.4" cy="139.5" r="3"/><path class="fcst6" d="M177.4 143.5c-2.2 0-4-1.8-4-4s1.8-4 4-4 4 1.8 4 4-1.8 4-4 4zm0-6c-1.1 0-2 .9-2 2s.9 2 2 2 2-.9 2-2-.9-2-2-2z"/></g><g><path class="fcst5" d="M38.6 176.1c-9.3 0-17.1-2.6-22.7-8.1l1.4-1.4c18.5 18.5 64.8 2.3 103.6-36l-4.3-2.8 14.5-7.9-3.5 14.3-4.7-2.8c-28.4 28.2-61 44.7-84.3 44.7zm82.1-48.3l5.6 3.3 1.8-7.3-7.4 4zM166 59.9h-.2c-.5-.1-.9-.6-.8-1.2 3.1-14.7.9-26.3-6.3-33.5-.4-.4-.4-1 0-1.4.4-.4 1-.4 1.4 0 7.7 7.7 10 19.9 6.8 35.4 0 .3-.5.7-.9.7z"/><path class="fcst5" d="M16.6 168.3c-.3 0-.5-.1-.7-.3-.1-.1-.2-.2-.2-.3-.1-.1-.1-.2-.1-.4 0-.3.1-.5.3-.7.1-.1.2-.2.3-.2.4-.2.8-.1 1.1.2.2.2.3.5.3.7 0 .1 0 .3-.1.4 0 .1-.1.2-.2.3-.2.1-.4.3-.7.3zM13.3 164.9c-.3-.4-.2-1.1.2-1.4.5-.3 1.1-.2 1.4.2.3.5.2 1.1-.2 1.4-.2.1-.4.2-.6.2-.3 0-.6-.2-.8-.4zm-2.1-3.5c-.2-.5-.1-1.1.4-1.3.5-.3 1.1-.1 1.3.4.2.5 0 1.1-.4 1.4-.1.1-.3.1-.4.1-.4-.1-.8-.3-.9-.6zm-1.6-3.7c-.2-.5.1-1.1.6-1.3.5-.2 1.1.1 1.3.6.2.5-.1 1.1-.6 1.3-.1 0-.2.1-.3.1-.5-.1-.9-.3-1-.7zm-1.1-3.9c-.1-.5.2-1.1.8-1.2.5-.1 1.1.2 1.2.8.1.5-.2 1.1-.8 1.2h-.2c-.4 0-.9-.4-1-.8zm-.6-4c0-.5.4-1 .9-1.1.5-.1 1 .3 1.1.9.1.5-.3 1-.9 1.1h-.1c-.5 0-.9-.4-1-.9zm-.2-4c0-.5.4-1 1-1 .5 0 1 .4 1 1 0 .5-.4 1-1 1-.5 0-1-.4-1-1zm1-2.9c-.5 0-1-.5-.9-1.1 0-.5.5-1 1.1-.9.5 0 1 .5.9 1.1 0 .5-.5.9-1.1.9.1 0 .1 0 0 0zm.4-3.9c-.5-.1-.9-.6-.9-1.1.1-.6.6-.9 1.1-.9.5.1.9.6.9 1.1-.1.5-.5.9-1 .9h-.1zm.5-3.9c-.5-.1-.9-.6-.8-1.2.1-.5.6-.9 1.2-.8.5.1.9.6.8 1.2-.1.5-.5.8-1 .8h-.2zm.8-3.8c-.5-.1-.9-.7-.7-1.2.1-.5.7-.9 1.2-.7.5.1.9.7.7 1.2-.1.5-.5.8-1 .8 0-.1-.1-.1-.2-.1zm1-3.8c-.5-.2-.8-.7-.7-1.2.2-.5.7-.8 1.2-.7.5.2.8.7.7 1.2-.1.4-.5.7-1 .7 0 .1-.1 0-.2 0zm1.1-3.7c-.5-.2-.8-.7-.6-1.3.2-.5.8-.8 1.3-.6.5.2.8.7.6 1.3-.1.4-.5.7-.9.7-.2-.1-.3-.1-.4-.1zm1.4-3.7c-.5-.3-.7-.9-.4-1.3.3-.5.9-.7 1.4-.4.5.3.7.9.4 1.3-.2.3-.5.5-.9.5-.2 0-.4 0-.5-.1zm1.8-3.4c-.5-.3-.6-.9-.4-1.4.3-.5.9-.6 1.4-.4.5.3.6.9.3 1.4-.2.3-.5.5-.9.5 0 0-.2 0-.4-.1zM18.4 113.5c-.3 0-.5-.1-.7-.3-.1-.1-.2-.2-.2-.3-.1-.1-.1-.2-.1-.4 0-.3.1-.5.3-.7.4-.4 1-.4 1.4 0 .2.2.3.5.3.7 0 .1 0 .3-.1.4 0 .1-.1.2-.2.3-.1.1-.2.2-.3.2-.2.1-.3.1-.4.1z"/><g><path class="fcst5" d="M102 26c-.2-.5 0-1.1.5-1.3.5-.2 1.1 0 1.3.5.2.5 0 1.1-.5 1.3-.1.1-.3.1-.4.1-.4-.1-.7-.3-.9-.6zm56.7-.9c-.4-.4-.4-1 0-1.4.4-.4 1-.4 1.4 0 .4.4.4 1 0 1.4-.2.2-.5.3-.7.3-.2 0-.5-.1-.7-.3zm-53.1-.8c-.2-.5 0-1.1.5-1.3.5-.2 1.1 0 1.3.5.2.5 0 1.1-.5 1.3-.1.1-.3.1-.4.1-.3 0-.7-.2-.9-.6zm3.7-1.6c-.2-.5 0-1.1.6-1.3.5-.2 1.1.1 1.3.6.2.5 0 1.1-.6 1.3-.1 0-.2.1-.4.1-.4 0-.7-.3-.9-.7zm46.5 0c-.5-.3-.6-1-.2-1.4.3-.5 1-.6 1.4-.2.5.3.6.9.2 1.4-.2.3-.5.4-.8.4-.2-.1-.4-.1-.6-.2zm-42.7-1.4c-.2-.5.1-1.1.6-1.3.5-.2 1.1.1 1.3.6.2.5-.1 1.1-.6 1.3-.1 0-.2.1-.3.1-.5 0-.9-.3-1-.7zm39.4-.6c-.5-.2-.7-.9-.5-1.4.2-.5.8-.7 1.3-.4.5.2.7.8.4 1.3-.2.3-.5.5-.9.5 0 .1-.1.1-.3 0zm-35.7-.7c-.2-.5.1-1.1.7-1.2.5-.2 1.1.1 1.2.7.2.5-.1 1.1-.7 1.2h-.3c-.3 0-.7-.2-.9-.7zm3.9-1.1c-.1-.5.2-1.1.7-1.2.5-.1 1.1.2 1.2.7.1.5-.2 1.1-.7 1.2h-.2c-.5.1-.9-.2-1-.7zm28.3.3c-.5-.2-.8-.7-.6-1.3.2-.5.7-.8 1.3-.6.5.2.8.7.6 1.3-.1.4-.5.7-.9.7-.2 0-.3 0-.4-.1zM124.6 18c-.1-.5.2-1.1.8-1.2.5-.1 1.1.2 1.2.8.1.5-.2 1.1-.8 1.2h-.2c-.5 0-.9-.4-1-.8zm20.6.2c-.5-.1-.9-.6-.8-1.2.1-.5.6-.9 1.2-.8.5.1.9.6.8 1.2-.1.5-.5.8-1 .8-.1.1-.1 0-.2 0zm-16.7-1c-.1-.6.3-1.1.8-1.1.6-.1 1.1.3 1.1.8.1.5-.3 1.1-.8 1.1h-.1c-.5.1-.9-.3-1-.8zm12.9.5c-.5-.1-1-.5-.9-1.1 0-.5.5-1 1.1-.9.5.1 1 .5.9 1.1-.1.5-.5.9-1.1.9zm-8.9-1c0-.6.4-1 .9-1.1.5 0 1 .4 1.1.9 0 .6-.4 1-.9 1.1h-.1c-.6.1-1-.3-1-.9zm4-.2c0-.6.5-1 1-1s1 .4 1 1c0 .5-.5 1-1 1-.6 0-1-.5-1-1z"/></g></g><g><path class="fcst4" d="M52.5 47.1l-1.9-.6.3-1-1.2-.5c-1.5-.5-2.5-1.9-2.5-3.5s1-3 2.5-3.5l1.3-.4-.7-2.2-1.3.5c-1.5.5-3.2 0-4.1-1.3-1-1.3-.9-3 0-4.3l.8-1.1-1.8-1.3-.9 1c-1 1.3-2.6 1.8-4.1 1.3-1.5-.5-2.5-1.9-2.5-3.5v-1.3h-2.3v1.3c0 1.6-1 3-2.5 3.5s-3.2 0-4.1-1.3l-.8-1.1-1.8 1.3.8 1.1c1 1.3.9 3 0 4.3-1 1.3-2.6 1.8-4.1 1.3l-1.3-.4-.3 1-2-.6 1-2.9 3.2 1c.9.3 1.5-.1 1.9-.6.3-.5.5-1.2 0-2l-2-2.7 5.1-3.7 2 2.7c.5.7 1.3.8 1.9.6.6-.2 1.2-.7 1.2-1.6v-3.3h6.3v3.3c0 .9.6 1.4 1.2 1.6.6.2 1.3.1 1.9-.6l2-2.7 5.1 3.7-2 2.7c-.5.7-.3 1.5 0 2s1 .9 1.9.6l3.2-1 1.9 6-3.2 1c-.9.3-1.2 1-1.2 1.6 0 .6.3 1.3 1.2 1.6l3.2 1-1.3 3z"/><path class="fcst6" d="M43.3 44.2l-1.9-.6c1.1-3.4-.8-7.1-4.1-8.2-3.4-1.1-7.1.8-8.2 4.1l-1.9-.6c1.5-4.4 6.2-6.9 10.7-5.4 4.4 1.4 6.9 6.2 5.4 10.7z"/><g><path class="fcst6" d="M35.3 49.9c-.9 0-1.8-.1-2.6-.4-2.2-.7-3.9-2.2-4.9-4.2-1-2-1.2-4.3-.5-6.5l1.9.6c-.5 1.6-.4 3.4.4 4.9.8 1.5 2.1 2.7 3.8 3.2 1.6.5 3.4.4 4.9-.4 1.5-.8 2.7-2.1 3.2-3.8l1.9.6c-.7 2.2-2.2 3.9-4.2 4.9-1.3.8-2.6 1.1-3.9 1.1z"/><path class="fcst4" d="M38.4 59.6h-6.3v-3.3c0-.9-.6-1.4-1.2-1.6-.6-.2-1.3-.1-1.9.6L27 58l-5.1-3.7 2-2.7c.5-.7.3-1.5 0-2s-1-.9-1.9-.6l-3 1-1.9-6 3.2-1c.9-.3 1.2-1 1.2-1.6 0-.6-.3-1.3-1.2-1.6l-3.2-1 1.1-3.3 1.9.6-.4 1.4 1.3.4c1.5.5 2.5 1.9 2.5 3.5s-1 3-2.5 3.5l-1.3.4.7 2.2 1.3-.4c1.5-.5 3.2 0 4.1 1.3 1 1.3.9 3 0 4.3l-.8 1.1 1.8 1.3.8-1.1c1-1.3 2.6-1.8 4.1-1.3 1.5.5 2.5 1.9 2.5 3.5v1.3h2.3v-1.3c0-1.6 1-3 2.5-3.5s3.2 0 4.1 1.3l.8 1.1 1.8-1.3-.8-1.1c-1-1.3-.9-3 0-4.3 1-1.3 2.6-1.8 4.1-1.3l1.3.4.5-1.5 1.9.6-1.1 3.4-3.2-1c-.9-.3-1.5.1-1.9.6-.3.5-.5 1.2 0 2l2 2.7-5.1 3.7-2-2.7c-.5-.7-1.3-.8-1.9-.6-.6.2-1.2.7-1.2 1.6l.1 3.3z"/></g><g><circle class="fcst2" cx="35.2" cy="41.6" r="4"/><path class="fcst2" d="M35.2 46.1c-2.5 0-4.5-2-4.5-4.5s2-4.5 4.5-4.5 4.5 2 4.5 4.5-2 4.5-4.5 4.5zm0-8c-1.9 0-3.5 1.6-3.5 3.5s1.6 3.5 3.5 3.5 3.5-1.6 3.5-3.5-1.6-3.5-3.5-3.5z"/></g></g><path class="fcst4" d="M94.2 104.1l-17.3 17.3-8.5-8.5 16-15.9c0-1.5.4-2.8 1.2-4L67 111.5c-.4.4-.6.9-.6 1.4 0 .5.2 1 .6 1.4l8.5 8.5c.4.4.9.6 1.4.6.5 0 1-.2 1.4-.6l19.5-19.5-.8-.8c-.8.7-1.8 1.3-2.8 1.6z"/><path class="fcst4" d="M84.4 97c0-1.3.3-2.4.9-3.5l-.1-12.8c0-.3.1-.5.3-.7.2-.2.4-.3.7-.3l10-.1c.3 0 .5.1.7.3.2.2.3.4.3.7l.1 11.2c1 1.1 1.8 2.4 2 3.9l-.1-15.1c0-.8-.3-1.6-.9-2.1-.6-.6-1.4-.9-2.1-.9l-10 .1c-.8 0-1.6.3-2.1.9-.6.6-.9 1.3-.9 2.1l.1 16.8h1.1V97z"/><g><path class="fcst5" d="M110.4.5h2v4h-2z"/></g><g><path class="fcst5" d="M110.4 10.5h2v4h-2z"/></g><g><path class="fcst5" d="M114.4 6.5h4v2h-4zM104.4 6.5h4v2h-4z"/></g><g><path class="fcst5" d="M89.3 27.5c-12.6 0-24.3 3.4-34.5 9.3.2.7.3 1.4.4 2.1 10-5.9 21.7-9.4 34.1-9.4 12.9 0 24.9 3.7 35.1 10 .3-.6.7-1.2 1-1.7-10.5-6.5-22.9-10.3-36.1-10.3zM149.7 67.5c4.2 8.8 6.6 18.6 6.6 29 0 36.9-30.1 67-67 67s-67-30.1-67-67c0-12.9 3.7-25 10.1-35.2-.7-.1-1.4-.3-2.1-.4-6.3 10.4-10 22.6-10 35.7 0 38 31 69 69 69s69-31 69-69c0-10.7-2.4-20.8-6.8-29.9-.6.2-1.2.5-1.8.8z"/></g></g></svg>