<?xml version="1.0" encoding="utf-8"?><svg id="ftLayer_1" xmlns="http://www.w3.org/2000/svg" xmlns:xlink="http://www.w3.org/1999/xlink" viewBox="0 0 193 193" width="193" height="193"><style>.ftst0{clip-path:url(#ftSVGID_2_)}.ftst1{fill:#475059}.ftst2{fill:#5fe0ed}.ftst3{fill:#48515a}.ftst4{fill:#ffd15d}</style><defs><path id="ftSVGID_1_" d="M0 0h193v193H0z"/></defs><clipPath id="ftSVGID_2_"><use xlink:href="#ftSVGID_1_" overflow="visible"/></clipPath><g class="ftst0"><path class="ftst1" d="M174.2 129h-110c-2.8 0-5-2.2-5-5v-5.2h13.2c3.3 0 6-2.7 6-6l-19.2.1V56c0-2.8 2.2-5 5-5h110c2.8 0 5 2.2 5 5v68c0 2.8-2.2 5-5 5zm-113-8.2v3.2c0 1.7 1.3 3 3 3h110c1.7 0 3-1.3 3-3V56c0-1.7-1.3-3-3-3h-110c-1.7 0-3 1.3-3 3v54.9l19.2-.1v2c0 4.4-3.6 8-8 8H61.2z"/><path transform="rotate(-90 12.07 134.941)" class="ftst2" d="M-11 123.1h46.1v23.6H-11z"/><path class="ftst3" d="M36.9 155h-13v-2h11v-37h-11v-2h13zM16.3 151c-.6 0-1-.4-1-1v-4c0-.6.4-1 1-1s1 .4 1 1v4c0 .6-.5 1-1 1z"/><path class="ftst3" d="M16.3 155c-1.7 0-3-1.3-3-3s1.3-3 3-3 3 1.3 3 3-1.4 3-3 3zm0-4c-.6 0-1 .4-1 1s.4 1 1 1 1-.4 1-1-.5-1-1-1z"/><path class="ftst1" d="M75.2 153.2h-8c-2.8 0-5-2.2-5-5s2.2-5 5-5h8c2.8 0 5 2.2 5 5s-2.2 5-5 5zm-8-8c-1.7 0-3 1.3-3 3s1.3 3 3 3h8c1.7 0 3-1.3 3-3s-1.3-3-3-3h-8z"/><path class="ftst1" d="M79.2 145.2h-12c-2.8 0-5-2.2-5-5s2.2-5 5-5h12c2.8 0 5 2.2 5 5s-2.2 5-5 5zm-12-8c-1.7 0-3 1.3-3 3s1.3 3 3 3h12c1.7 0 3-1.3 3-3s-1.3-3-3-3h-12z"/><path class="ftst1" d="M79.2 137.2h-12c-2.8 0-5-2.2-5-5s2.2-5 5-5h12c2.8 0 5 2.2 5 5s-2.2 5-5 5zm-12-8c-1.7 0-3 1.3-3 3s1.3 3 3 3h12c1.7 0 3-1.3 3-3s-1.3-3-3-3h-12zM67.2 153.2H53.7c-1.8 0-3.6-.6-5.1-1.7-1.1-.8-2.5-1.3-3.9-1.3h-9.5v-2h9.5c1.8 0 3.6.6 5.1 1.7 1.1.8 2.5 1.3 3.9 1.3h13.5v2zM181.9 141h-81.7c-2.8 0-5-2.2-5-5s2.2-5 5-5h81.7l10.8 5-10.8 5zm-81.6-8c-1.7 0-3 1.3-3 3s1.3 3 3 3h81.2l6.5-3-6.5-3h-81.2z"/><path class="ftst1" d="M105.9 132.4h2v7.6h-2z"/><g><path class="ftst1" d="M106.9 135H181v2h-74.1z"/></g><g><path class="ftst4" d="M174.2 55h-110c-.6 0-1 .4-1 1v52.9l19.2-.1v4c0 5.5-4.5 10-10 10h-9.2v1.2c0 .6.4 1 1 1h110c.6 0 1-.4 1-1V56c0-.6-.4-1-1-1zm-81.9 51c-11 0-20-9-20-20s9-20 20-20 20 9 20 20-9 20-20 20z"/><path class="ftst3" d="M97.2 96.9c-.6 0-1-.4-1-1v-4.7l.3-.3c.5-.5.7-.8.7-.9l2-4.1 2-1 .4-1.9H100l.2-1.2c.2-.9.2-1.7.2-2.4v-.3c0-1.2-.2-2.2-.7-3.2 0-.1-.1-.2-.1-.3-.5-1-1.3-2-2.2-2.7-1.4-1.1-3.1-1.7-4.8-1.7h-.1c-2 0-4 .8-5.5 2.3-1.5 1.5-2.4 3.6-2.4 5.8v.1c0 .7.1 1.5.2 2.4l.2 1.1h-1.5l.5 1.9 1.8 1 1.9 4c.2.5 1.3 1.4 1.9 1.9.2.2.4.4.6.5.3.3.8.4 1.2.5h2c.6 0 1 .4 1 1s-.4 1-1 1h-2c-.9 0-1.8-.3-2.5-.9-.2-.2-.4-.3-.6-.5-1.1-.9-2.2-1.8-2.5-2.7l-1.6-3.3-1.9-1.1-.9-3.2c0-.8.5-1.6 1.3-1.9-.1-.6-.1-1.2-.1-1.7v-.1c0-2.7 1.1-5.3 3-7.2 1.9-1.9 4.3-2.9 6.9-2.9 2.2 0 4.3.7 6.1 2.1 1.1.9 2.1 2.1 2.7 3.4.1.1.1.2.2.3.6 1.2.9 2.6.9 4v.4c0 .5 0 1.1-.1 1.7.3.1.5.3.7.5.4.4.6.9.6 1.4v.2l-.6 3-2.3 1.1-1.7 3.5c-.1.4-.5.8-.9 1.2v3.9c.1.6-.4 1-.9 1z"/><path class="ftst3" d="M78.6 101.3c-.4 0-.8-.2-.9-.6-.2-.5.1-1.1.6-1.3l6.2-2.4 1.7-3.2h.7v-1.9c0-.6.4-1 1-1s1 .4 1 1v3.9h-1.5l-1.5 2.8-6.9 2.7h-.4zM105.9 101.2c-.1 0-.3 0-.4-.1l-6-2.5-1.7-2.8h-.6c-.6 0-1-.4-1-1s.4-1 1-1h1.7l2 3.2 5.4 2.3c.5.2.7.8.5 1.3-.1.3-.5.6-.9.6zM95.4 103.3c-.3 0-.5-.1-.7-.3l-2-2.2-2 2.2c-.4.4-1 .4-1.4.1-.4-.4-.4-1-.1-1.4l3.5-3.8 3.5 3.8c.4.4.3 1-.1 1.4-.2.1-.4.2-.7.2z"/></g><g><path class="ftst1" d="M120.3 81h34v2h-34z"/></g><g><path class="ftst1" d="M120.3 85h34v2h-34z"/></g><g><path class="ftst1" d="M120.3 89h34v2h-34z"/></g><g><path class="ftst1" d="M137.3 103c-1.7 0-3-1.3-3-3s1.3-3 3-3 3 1.3 3 3-1.4 3-3 3zm0-4c-.6 0-1 .4-1 1s.4 1 1 1 1-.4 1-1-.5-1-1-1z"/><path class="ftst1" d="M137.3 107h-.5c-3.4-.2-6.3-3.1-6.5-6.6-.1-2 .6-3.9 2-5.3s3.3-2.2 5.3-2.1c3.7.1 6.7 3.4 6.7 7.2v.8c0 1.7-1.3 3-3 3s-3-1.3-3-3v-1h2v1c0 .6.4 1 1 1s1-.4 1-1v-.8c0-2.8-2.2-5.1-4.8-5.2-1.4 0-2.8.5-3.8 1.5s-1.5 2.4-1.4 3.8c.1 2.5 2.2 4.5 4.6 4.7.7 0 1.4 0 2.1-.3l.7 1.9c-.8.3-1.6.4-2.4.4z"/></g><g><path class="ftst1" d="M120.3 99h8v2h-8z"/></g><g><path class="ftst1" d="M146.3 99h8v2h-8z"/></g><g><path class="ftst3" d="M49.2 133.2c-.6 0-1-.4-1-1s.4-1 1-1c3.1 0 5.8-2.1 6.7-5l2.1-7.3h14.5c3.3 0 6-2.7 6-6l-25.2.1c-1 0-1.9.5-2.5 1.4l-5 7.7-9.8.2c-.5 0-1-.4-1-1s.4-1 1-1l8.8-.1 4.4-6.8c.9-1.4 2.5-2.2 4.2-2.3l27.1-.1v2c0 4.4-3.6 8-8 8h-13l-1.7 5.9c-1.1 3.6-4.6 6.3-8.6 6.3z"/></g><g><path class="ftst3" d="M90.3 150h2v4h-2zM90.3 160h2v4h-2z"/><g><path class="ftst3" d="M94.3 156h4v2h-4zM84.3 156h4v2h-4z"/></g></g><g><path class="ftst3" d="M32.3 90h2v4h-2zM32.3 100h2v4h-2z"/><g><path class="ftst3" d="M36.3 96h4v2h-4zM26.3 96h4v2h-4z"/></g></g><g><path class="ftst3" d="M172.3 66h2v4h-2zM172.3 76h2v4h-2z"/><g><path class="ftst3" d="M176.3 72h4v2h-4zM166.3 72h4v2h-4z"/></g></g><g><path class="ftst3" d="M44.3 81c-2.8 0-5-2.2-5-5s2.2-5 5-5 5 2.2 5 5-2.3 5-5 5zm0-8c-1.7 0-3 1.3-3 3s1.3 3 3 3 3-1.3 3-3-1.4-3-3-3z"/></g><g><circle class="ftst4" cx="120.3" cy="148" r="2"/></g><g><circle class="ftst4" cx="176.3" cy="42" r="2"/></g><g><circle class="ftst4" cx="159.3" cy="157" r="1"/></g><g><path class="ftst1" d="M122.9 51.6L121 51l.3-.9-1.2-.4c-1.5-.5-2.4-1.8-2.4-3.4 0-1.6 1-2.9 2.5-3.4l1.2-.4-.6-2-1.2.4c-1.5.5-3 0-4-1.3-.9-1.3-.9-2.9 0-4.2l.7-1-1.7-1.2-.7 1c-.9 1.3-2.5 1.8-4 1.3s-2.4-1.8-2.4-3.4v-1.2h-2.1v1.2c0 1.6-1 2.9-2.5 3.4s-3 0-4-1.3l-.7-1-1.7 1.2.7 1c.9 1.3.9 2.9 0 4.2s-2.5 1.8-4 1.3l-1.2-.4-.3.9-1.9-.6.9-2.8 3.1 1c.8.3 1.4-.1 1.7-.6.3-.4.5-1.1 0-1.8L93.6 34l4.9-3.6 1.9 2.6c.5.7 1.2.7 1.7.6.5-.2 1.1-.6 1.1-1.5v-3.2h6.1v3.2c0 .8.6 1.3 1.1 1.5.5.2 1.2.1 1.7-.6l1.9-2.6 4.9 3.6-1.9 2.6c-.5.7-.3 1.4 0 1.8.3.4.9.8 1.7.6l3.1-1 1.9 5.8-3.1 1c-.8.3-1.1.9-1.1 1.5s.3 1.2 1.1 1.5l3.1 1-.8 2.8z"/><path class="ftst1" d="M114.1 48.9l-1.9-.6c.5-1.6.4-3.2-.4-4.7s-2-2.5-3.6-3-3.2-.4-4.7.4c-1.5.7-2.5 2-3 3.6l-1.9-.6c.7-2.1 2.1-3.7 4-4.7s4.1-1.2 6.2-.5c2.1.7 3.7 2.1 4.7 4 1.1 1.8 1.3 4 .6 6.1z"/><g><path class="ftst1" d="M106.4 54.4c-.8 0-1.7-.1-2.5-.4-4.3-1.4-6.6-6-5.2-10.2l1.9.6c-1 3.2.7 6.7 3.9 7.7s6.7-.7 7.7-3.9l1.9.6c-1.1 3.4-4.3 5.6-7.7 5.6z"/><path class="ftst1" d="M109.4 63.6h-6.1v-3.2c0-.8-.6-1.3-1.1-1.5-.5-.2-1.2-.1-1.7.6l-1.9 2.6-4.9-3.6 1.9-2.6c.5-.7.3-1.4 0-1.8-.3-.4-.9-.8-1.7-.6l-3.1 1-1.8-5.8 3.1-1c.8-.3 1.1-.9 1.1-1.5s-.3-1.2-1.1-1.5l-3.1-1 1-3.2 1.9.6-.4 1.3 1.2.4c1.5.5 2.4 1.8 2.4 3.4s-1 2.9-2.5 3.4l-1.1.4.6 2 1.2-.4c1.5-.5 3 0 4 1.3s.9 2.9 0 4.2l-.7 1 1.7 1.2.7-1c.9-1.3 2.5-1.8 4-1.3s2.4 1.8 2.4 3.4v1.2h2.1v-1.2c0-1.6 1-2.9 2.5-3.4s3 0 4 1.3l.7 1 1.7-1.2-.7-1c-.9-1.3-.9-2.9 0-4.2s2.5-1.8 4-1.3l1.2.4.5-1.4 1.9.6-1.1 3.3-3.1-1c-.8-.3-1.4.1-1.7.6-.3.4-.5 1.1 0 1.8l1.9 2.6-4.9 3.6-1.9-2.6c-.5-.7-1.2-.7-1.7-.6-.5.2-1.1.6-1.1 1.5l-.3 3.2z"/></g></g></g></svg>