<?xml version="1.0" encoding="utf-8"?><svg id="feLayer_1" xmlns="http://www.w3.org/2000/svg" xmlns:xlink="http://www.w3.org/1999/xlink" viewBox="0 0 193 193" width="193" height="193"><style>.fest0{clip-path:url(#feSVGID_2_)}.fest1{fill:#f58e70}.fest2{fill:#48515a}.fest3{fill:#ffd15d}.fest4{fill:#5fe0ed}.st5{fill:none;stroke:#48515a;stroke-width:2;stroke-miterlimit:10}.fest6{fill:#475059}</style><defs><path id="feSVGID_1_" d="M0 0h193v193H0z"/></defs><clipPath id="feSVGID_2_"><use xlink:href="#feSVGID_1_" overflow="visible"/></clipPath><g class="fest0"><path class="fest1" d="M113 94.6l-9.8-4.1-1.8-2h-1.1L96 90.3l-3.6-1.8h-2l-1.5 2-10.7 4.2c-2.3.9-3.8 3.1-3.8 5.6v17.9l42.2.2v-18.2c0-2.5-1.4-4.7-3.6-5.6zm-18.5 23.2h-8v-2.6l6-2h2v4.6z"/><path class="fest2" d="M55.9 150.3H21.5v-8c0-2.8 2.2-5 5-5h10.3v2H26.5c-1.7 0-3 1.3-3 3v6h30.4v-5.1h2v7.1zM35.2 88.6l-2-.3 1.2-8.2-1.2-1c-1.6-1.6-2.6-3.8-2.6-6.1 0-4.7 3.8-8.5 8.6-8.5h4.7c2.3 0 4.5 1 6 2.7 1.3 1.5 2 3.4 2 5.3v11.1l-8.5 1.9v2.7h-2V84l8.5-1.9v-9.5c0-1.5-.5-2.9-1.5-4-1.1-1.3-2.8-2-4.5-2h-4.7c-3.6 0-6.6 2.9-6.6 6.5 0 1.7.7 3.4 1.9 4.6l2 1.6-1.3 9.3z"/><path class="fest3" d="M100.5 123.4v60.1h-9.4v-60.1"/><path class="fest2" d="M56.5 183.7c-1.7 0-3-1.3-3-3s1.3-3 3-3 3 1.3 3 3-1.3 3-3 3zm0-4c-.6 0-1 .4-1 1s.4 1 1 1 1-.4 1-1c0-.5-.4-1-1-1z"/><path class="fest4" d="M74.1 138.4l-24.6-10.6-.8-22.6c-.2-5.3-1.7-10.5-4.5-15.1l-.8-1.3v-1H32.6l-2.1 8v28l2.5 15 15.1 2.8 16.4 6.2v31h2l9.9-1V142c0-1.5-.9-2.9-2.3-3.6zm-23.4-2.5l-4 1.4c-.9.3-1.9-.1-2.4-.9l-1.8-3.1 6-2 2.7 1.8-.5 2.8z"/><path class="fest2" d="M46 138.4c-1.1 0-2.1-.6-2.6-1.5l-1.8-3.1 1.7-1 1.8 3.1c.2.4.8.6 1.2.5l3.4-1.2.3-1.7-2.1-1.4 1.1-1.7 3.2 2.1-.7 4.1-4.6 1.6c-.2.2-.6.2-.9.2zM21.5 141.4l-2-14.1v-35h9c1.7 0 3 1.3 3 3v30c0 1.7-1.3 3-3 3h-6.8l1.8 12.9-2 .2zm0-15.1h7c.6 0 1-.4 1-1v-30c0-.6-.4-1-1-1h-7v32zM57.3 178.3h-2v-.7l-11.5-4.3H33.2l-11.6 4.3v.7h-2v-2.1l13.2-4.9h11.3l13.2 4.9zM37.5 149.3h2V160h-2zM52.5 158.3h-8v-6h8v6zm-6-2h4v-2h-4v2z"/><path class="fest2" d="M47.5 149.3h2v4h-2zM22.5 144.3h32v2h-32zM23.5 93.3h2v34h-2z"/><path transform="rotate(-6.012 36.049 128.961)" class="fest2" d="M32.5 127.9h7.2v2h-7.2z"/><path class="fest2" d="M42 134.5l-8.5-17v-10.2c0-.6.4-1 1-1s1 .4 1 1v9.8l7.5 15 4.2-1.4-5.7-17.2V97.3c0-1.7-1.3-3-3-3h-2c-.6 0-1-.4-1-1s.4-1 1-1h2c2.8 0 5 2.2 5 5v15.8l6.3 18.8-7.8 2.6zM42.5 173.3h-8v-14h8v14zm-6-2h4v-10h-4v10zM20.5 183.7c-1.7 0-3-1.3-3-3s1.3-3 3-3 3 1.3 3 3-1.3 3-3 3zm0-4c-.6 0-1 .4-1 1s.4 1 1 1 1-.4 1-1c0-.5-.4-1-1-1zM44.5 183.7c-1.7 0-3-1.3-3-3s1.3-3 3-3 3 1.3 3 3-1.3 3-3 3zm0-4c-.6 0-1 .4-1 1s.4 1 1 1 1-.4 1-1c0-.5-.4-1-1-1zM32.5 183.7c-1.7 0-3-1.3-3-3s1.3-3 3-3 3 1.3 3 3-1.3 3-3 3zm0-4c-.6 0-1 .4-1 1s.4 1 1 1 1-.4 1-1c0-.5-.4-1-1-1z"/><path class="fest2" d="M33.5 178.7h-2V176l3.2-4.3 1.6 1.2-2.8 3.7zM45.5 178.7h-2v-2.1l-2.8-3.7 1.6-1.2 3.2 4.3zM100.3 89.7c-.6 0-1-.4-1-1v-4.5l.3-.3c.5-.5.7-.7.7-.8l1.9-3.9 1.9-.9.4-1.8-.3.1H103l.2-1.2c.1-.9.2-1.6.2-2.3v-.3c0-1.1-.2-2.1-.6-3 0-.1-.1-.2-.1-.3-.5-1-1.2-1.9-2.1-2.6-1.3-1-2.9-1.6-4.6-1.6-2 0-3.8.8-5.2 2.2-1.5 1.4-2.3 3.4-2.3 5.5v.1c0 .7.1 1.4.2 2.3l.2 1.1h-1.4l.5 1.7 1.7 1 1.8 3.8c.2.5 1.3 1.4 1.8 1.8.2.2.4.3.6.5.3.3.7.4 1.1.4h1.9c.6 0 1 .4 1 1s-.4 1-1 1H95c-.9 0-1.7-.3-2.4-.9-.2-.1-.4-.3-.6-.5-1-.8-2.1-1.7-2.4-2.6l-1.6-3-1.8-1.1-.8-3.1c0-.8.5-1.5 1.2-1.8-.1-.6-.1-1.1-.1-1.6V73c0-2.6 1.1-5.1 2.9-6.9 1.8-1.8 4.1-2.7 6.6-2.7h.1c2.1 0 4.1.7 5.8 2 1.1.9 2 2 2.6 3.2.1.1.1.2.2.3.5 1.2.8 2.5.8 3.8v.4c0 .5 0 1-.1 1.6.2.1.5.2.6.4.4.4.6.9.5 1.4v.2l-.6 2.9-2.2 1.1-1.6 3.2c-.1.4-.5.8-.8 1.2v3.6c0 .6-.4 1-1 1z"/><path class="fest2" d="M91.5 88.6c-.6 0-1-.4-1-1v-2.7c0-.6.4-1 1-1s1 .4 1 1v2.7c0 .5-.4 1-1 1zM98.6 95.7c-.3 0-.5-.1-.7-.3l-1.8-2-1.8 2c-.4.4-1 .4-1.4.1-.4-.4-.4-1-.1-1.4l3.3-3.7 3.3 3.7c.4.4.3 1-.1 1.4-.2.1-.4.2-.7.2zM94.5 118.3c-.6 0-1-.4-1-1v-5h2.6l2-2h10.3l-.9-6.9c-.1-.5.3-1 .9-1.1.5-.1 1 .3 1.1.9l1.1 9.1H98.9l-2 2h-1.4v3c0 .5-.4 1-1 1z"/><path class="fest2" d="M95.5 117.8h-2v-3.5h-.8l-5.2 1.7v1.8h-2v-3.2l6.8-2.3h3.2z"/><g><path class="fest2" d="M82.5 118.3c-.6 0-1-.4-1-1v-8c0-.6.4-1 1-1s1 .4 1 1v8c0 .5-.4 1-1 1z"/></g><g><path class="fest2" d="M96.5 110.3c-.6 0-1-.4-1-1v-12c0-.6.4-1 1-1s1 .4 1 1v12c0 .5-.4 1-1 1z"/></g><g><path class="fest2" d="M134.1 124.4H57.8v-7.9h76.3v7.9zm-74.3-2h72.3v-3.9H59.8v3.9z"/></g><g><path class="fest2" d="M85.5 183.3h-20V177l10.5-1.1 9.5 3.8v3.6zm-18-2h16v-.3l-7.8-3.1-8.2.9v2.5z"/></g><g><path class="fest2" d="M171.6 150.3h-34.4v-7.1h2v5.1h30.4v-6c0-1.7-1.3-3-3-3h-10.3v-2h10.3c2.8 0 5 2.2 5 5v8z"/></g><g><path class="fest2" d="M157.9 88.6l-1.4-9.3 2-1.6c1.2-1.2 1.9-2.9 1.9-4.6 0-3.6-2.9-6.5-6.5-6.5h-4.7c-1.7 0-3.4.7-4.5 2-1 1.1-1.5 2.5-1.5 4v9.5l8.5 1.9v4.3h-2v-2.7l-8.5-1.9V72.6c0-2 .7-3.8 2-5.3 1.5-1.7 3.7-2.7 6-2.7h4.7c4.7 0 8.5 3.8 8.5 8.5 0 2.3-.9 4.5-2.6 6.1l-.1.1-1.1.9 1.2 8.2-1.9.2z"/></g><g><path class="fest3" d="M160.4 87.8h-10.9v1l-.8 1.3c-2.8 4.6-4.3 9.7-4.5 15.1l-.8 22.6-24.6 10.6c-1.4.7-2.2 2.1-2.2 3.6v35.8l9.9 1h2v-31l16.4-6.2 15.1-2.8 2.5-15v-28l-2.1-8zm-11.6 48.6c-.5.8-1.5 1.2-2.4.9l-4-1.4-.5-2.9 2.7-1.8 6 2-1.8 3.2z"/><path class="fest2" d="M147 138.4c-.3 0-.7-.1-1-.2l-4.6-1.6-.7-4.1 3.2-2.1 1.1 1.7-2.1 1.4.3 1.7 3.4 1.2c.5.2 1 0 1.2-.5l1.8-3.1 1.7 1-1.8 3.1c-.4 1-1.4 1.5-2.5 1.5zM171.5 141.4l-2-.3 1.8-12.9h-6.8c-1.7 0-3-1.3-3-3v-30c0-1.7 1.3-3 3-3h9v35.1l-2 14.1zm-6.9-47.1c-.6 0-1 .4-1 1v30c0 .6.4 1 1 1h7v-32h-7zM173.4 178.3h-2v-.7l-11.5-4.3h-10.6l-11.6 4.3v.7h-2v-2.1l13.2-4.9h11.3l13.2 4.9zM153.6 149.3h2V160h-2zM148.6 158.3h-8v-6h8v6zm-6-2h4v-2h-4v2z"/><path class="fest2" d="M143.6 149.3h2v4h-2zM138.6 144.3h32v2h-32zM167.6 93.3h2v34h-2z"/><path transform="rotate(-83.99 156.995 128.908)" class="fest2" d="M156 125.3h2v7.2h-2z"/><path class="fest2" d="M151.1 134.5l-7.8-2.6 6.3-18.8V97.3c0-2.8 2.2-5 5-5h2c.6 0 1 .4 1 1s-.4 1-1 1h-2c-1.7 0-3 1.3-3 3v16.2l-5.7 17.2 4.2 1.4 7.5-15v-9.8c0-.6.4-1 1-1s1 .4 1 1v10.2l-8.5 17zM158.6 173.3h-8v-14h8v14zm-6-2h4v-10h-4v10zM172.6 183.7c-1.7 0-3-1.3-3-3s1.3-3 3-3 3 1.3 3 3-1.4 3-3 3zm0-4c-.6 0-1 .4-1 1s.4 1 1 1 1-.4 1-1c0-.5-.5-1-1-1zM148.6 183.7c-1.7 0-3-1.3-3-3s1.3-3 3-3 3 1.3 3 3-1.4 3-3 3zm0-4c-.6 0-1 .4-1 1s.4 1 1 1 1-.4 1-1c0-.5-.5-1-1-1zM160.6 183.7c-1.7 0-3-1.3-3-3s1.3-3 3-3 3 1.3 3 3-1.4 3-3 3zm0-4c-.6 0-1 .4-1 1s.4 1 1 1 1-.4 1-1c0-.5-.5-1-1-1z"/><path class="fest2" d="M161.6 178.7h-2v-2.1l-2.8-3.7 1.6-1.2 3.2 4.3zM149.6 178.7h-2V176l3.2-4.3 1.6 1.2-2.8 3.7z"/><g><path class="fest2" d="M136.5 183.7c-1.7 0-3-1.3-3-3s1.3-3 3-3 3 1.3 3 3-1.3 3-3 3zm0-4c-.6 0-1 .4-1 1s.4 1 1 1 1-.4 1-1c0-.5-.4-1-1-1z"/></g></g><g><path class="fest2" d="M127.6 183.3h-20v-3.7l9.5-3.8 10.5 1.1v6.4zm-18-2h16v-2.5l-8.2-.9-7.8 3.1v.3z"/></g><g><path class="fest2" d="M115.5 156H69.2v-29.5h46.3V156zm-44.3-2h42.3v-25.5H71.2V154z"/><path class="fest2" d="M92.4 142.5c-.2 0-.4-.1-.5-.2L75.8 132l1.1-1.7 15.6 9.9 14.9-9.6 1.1 1.7-15.5 9.9c-.3.3-.4.3-.6.3z"/><path transform="rotate(-39.811 106.638 146.082)" class="fest2" d="M105.6 139.1h2V153h-2z"/><g><path transform="rotate(-50.169 78.099 146.101)" class="fest2" d="M71.1 145.1H85v2H71.1z"/></g></g><g><circle class="fest4" cx="15.5" cy="160.3" r="3"/></g><g><path class="fest2" d="M6.5 69.5h2v4h-2zM6.5 79.5h2v4h-2z"/><g><path class="fest2" d="M.5 75.5h4v2h-4zM10.5 75.5h4v2h-4z"/></g></g><g><path class="fest2" d="M184.5 129.3h2v4h-2zM184.5 139.3h2v4h-2z"/><g><path class="fest2" d="M178.5 135.3h4v2h-4zM188.5 135.3h4v2h-4z"/></g></g><g><path class="fest2" d="M124.5 72.4h-2v-7.1h4.7v2h-2.7z"/><path class="fest1" d="M123.5 80.3c-7.7 0-14-6.3-14-14s6.3-14 14-14 14 6.3 14 14-6.3 14-14 14zm0-26c-6.6 0-12 5.4-12 12s5.4 12 12 12 12-5.4 12-12-5.4-12-12-12z"/><path class="fest2" d="M124.5 75.3c-.1-.5.2-1.1.8-1.2.5-.1 1.1.2 1.2.8.1.5-.2 1.1-.8 1.2h-.2c-.5 0-.9-.4-1-.8zm-3.2.7c-.5-.1-.9-.7-.8-1.2.1-.5.7-.9 1.2-.8.5.1.9.7.8 1.2-.1.5-.5.8-1 .8-.1.1-.2.1-.2 0zm7-2c-.3-.4-.3-1.1.2-1.4.4-.3 1.1-.3 1.4.2.4.4.3 1.1-.2 1.4-.2.1-.4.2-.6.2-.3-.1-.6-.2-.8-.4zm-11 .1c-.4-.3-.5-1-.2-1.4.4-.4 1-.5 1.4-.2.4.3.5 1 .2 1.4-.2.2-.5.4-.8.4-.2 0-.5-.1-.6-.2zm13.9-3c-.5-.2-.7-.8-.5-1.3.2-.5.8-.7 1.3-.5.5.2.7.8.5 1.3-.2.4-.5.6-.9.6-.1 0-.3 0-.4-.1zm-16.7-.5c-.2-.5 0-1.1.5-1.3.5-.2 1.1 0 1.3.5.2.5 0 1.1-.5 1.3-.1.1-.3.1-.4.1-.4 0-.7-.2-.9-.6zm18-3.3c-.6 0-1-.5-1-1 0-.6.4-1 1-1 .5 0 1 .5 1 1 0 .6-.5 1-1 1zm-19-1c0-.6.4-1 1-1s1 .5 1 1-.5 1-1 1c-.6 0-1-.5-1-1zm17.2-3.5c-.2-.5 0-1.1.5-1.3.5-.2 1.1 0 1.3.5.2.5 0 1.1-.5 1.3-.1.1-.3.1-.4.1-.4 0-.7-.2-.9-.6zm-15.7.4c-.5-.2-.7-.8-.5-1.3.2-.5.8-.7 1.3-.5.5.2.7.8.5 1.3-.2.4-.5.6-.9.6-.1 0-.3 0-.4-.1zm13.5-3.2c-.4-.3-.5-1-.2-1.4.3-.4 1-.5 1.4-.1.4.3.5 1 .1 1.4-.2.2-.5.4-.8.4-.1 0-.3-.1-.5-.3zm-11.4-.1c-.3-.4-.3-1.1.2-1.4.4-.3 1.1-.3 1.4.2.3.4.3 1.1-.2 1.4-.2.1-.4.2-.6.2-.3-.1-.6-.2-.8-.4zm8.2-1.4c-.5-.1-.9-.7-.7-1.2.1-.5.7-.9 1.2-.7.5.1.9.7.8 1.2-.1.5-.5.8-1 .8-.2-.1-.2-.1-.3-.1zm-4.8-.8c-.1-.5.2-1.1.8-1.2.5-.1 1.1.2 1.2.8.1.5-.2 1.1-.8 1.2h-.2c-.4 0-.9-.3-1-.8z"/></g><g><path class="fest6" d="M51.5 48.5H29.4v-30h22.1v30zm-20.1-2h18.1v-26H31.4v26z"/><path class="fest6" d="M33.4 22.5v6h14.1v-6H33.4zm13.1 5H34.4v-4h12.1v4z"/><path class="fest6" d="M34.4 27.5h12.1v-4H34.4v4zm1-3h10.1v2H35.4v-2zM35.5 44.5h-2v-2h2v2zm0-4h-2v-2h2v2zm0-4h-2v-2h2v2zm0-4h-2v-2h2v2zM39.5 44.5h-2v-2h2v2zm0-4h-2v-2h2v2zm0-4h-2v-2h2v2zm0-4h-2v-2h2v2zM43.5 44.5h-2v-2h2v2zm0-4h-2v-2h2v2zm0-4h-2v-2h2v2zm0-4h-2v-2h2v2zM47.5 36.5h-2v-2h2v2zm0-4h-2v-2h2v2z"/><g><path class="fest6" d="M45.5 38.5h2v6h-2z"/></g><g><path class="fest2" d="M40.9 62.9l-4.8-6.4C25 54.2 17 44.5 17 33.1 17.1 20 27.8 9.3 40.9 9.3c13.2 0 23.9 10.7 23.9 23.9 0 11.4-8 21.1-19.1 23.4l-4.8 6.3zm0-51.6C28.8 11.3 19 21.1 19 33.2c0 10.5 7.5 19.6 17.8 21.5l.4.1 3.7 4.9 3.7-4.9.4-.1c10.3-1.9 17.8-11 17.8-21.5 0-12.1-9.8-21.9-21.9-21.9z"/></g></g><g><path class="fest6" d="M114.6 39.1l-1.9-.6.3-1-1.3-.4c-1.6-.5-2.6-1.9-2.6-3.5s1-3 2.6-3.5l1.3-.4-.7-2.2-1.3.4c-1.6.5-3.2 0-4.2-1.4-1-1.3-1-3 0-4.4l.8-1.1-1.9-1.4-.8 1.1c-1 1.3-2.6 1.9-4.2 1.3-1.6-.5-2.6-1.9-2.6-3.5v-1.4h-2.3v1.4c0 1.6-1 3-2.6 3.5S90 22 89 20.6l-.8-1.1-1.9 1.4.8 1.1c1 1.3 1 3 0 4.4-1 1.3-2.6 1.9-4.2 1.3l-1.3-.4-.3 1-1.9-.6 1-2.9 3.2 1c.9.3 1.6-.1 1.9-.6.4-.5.5-1.3 0-2l-2-2.7 5.1-3.7 2 2.7c.5.7 1.3.8 1.9.6.6-.2 1.2-.7 1.2-1.6v-3.4h6.3v3.4c0 .9.6 1.4 1.2 1.6.6.2 1.4.1 1.9-.6l2-2.7 5.1 3.7-2 2.7c-.5.7-.4 1.5 0 2s1 .9 1.9.6l3.2-1 2 6-3.2 1c-.9.3-1.2 1-1.2 1.6 0 .6.3 1.3 1.2 1.6l3.2 1-.7 3.1z"/><path class="fest1" d="M105.2 36.1l-1.9-.6c.5-1.7.4-3.5-.4-5-.8-1.6-2.2-2.7-3.8-3.3-1.7-.5-3.5-.4-5 .4-1.6.8-2.7 2.2-3.3 3.8l-1.9-.6c.7-2.2 2.2-4 4.3-5 2.1-1 4.4-1.2 6.6-.5 2.2.7 4 2.2 5 4.3.9 2 1.1 4.4.4 6.5z"/><g><path class="fest1" d="M97 42c-.9 0-1.8-.1-2.7-.4-2.2-.7-4-2.2-5-4.3s-1.2-4.4-.5-6.6l1.9.6c-.5 1.7-.4 3.5.4 5 .8 1.6 2.2 2.7 3.8 3.3 1.7.5 3.5.4 5-.4 1.6-.8 2.7-2.2 3.3-3.8l1.9.6c-.7 2.2-2.2 4-4.3 5-1.1.7-2.4 1-3.8 1z"/><path class="fest6" d="M100.2 51.9h-6.3v-3.4c0-.9-.6-1.4-1.2-1.6-.6-.2-1.4-.1-1.9.6l-2 2.7-5.1-3.7 2-2.7c.5-.7.4-1.5 0-2s-1-.9-1.9-.6l-3.2 1-2-6 3.2-1c.9-.3 1.2-1 1.2-1.6 0-.6-.3-1.3-1.2-1.6l-3.2-1 1.1-3.3 1.9.6-.6 1.1 1.3.4c1.6.5 2.6 1.9 2.6 3.5s-1 3-2.6 3.5l-1.3.6.7 2.2 1.3-.4c1.6-.5 3.2 0 4.2 1.4 1 1.3 1 3 0 4.4l-.8 1 1.9 1.4.8-1.1c1-1.3 2.6-1.9 4.2-1.3 1.6.5 2.6 1.9 2.6 3.5v1.4h2.3v-1.4c0-1.6 1-3 2.6-3.5s3.2 0 4.2 1.4l.8 1.1 1.9-1.4-.8-1.1c-1-1.3-1-3 0-4.4 1-1.3 2.6-1.9 4.2-1.3l1.3.4.5-1.6 1.9.6-1.1 3.5-3.2-1c-.9-.3-1.6.1-1.9.6-.4.5-.5 1.3 0 2l2 2.7-5.1 3.7-2-2.7c-.5-.7-1.3-.8-1.9-.6-.6.2-1.2.7-1.2 1.6l-.2 3.4z"/></g><g><circle class="fest3" cx="96.9" cy="33.5" r="4.1"/><path class="fest3" d="M96.9 38.1c-2.5 0-4.6-2.1-4.6-4.6s2.1-4.6 4.6-4.6c2.5 0 4.6 2.1 4.6 4.6s-2 4.6-4.6 4.6zm0-8.1c-2 0-3.6 1.6-3.6 3.6s1.6 3.6 3.6 3.6 3.6-1.6 3.6-3.6-1.6-3.6-3.6-3.6z"/></g><g><path class="fest2" d="M97.4 62.9l-4.8-6.4c-11.1-2.3-19.1-12-19.1-23.4C73.5 20 84.2 9.3 97.4 9.3s23.9 10.7 23.9 23.9c0 11.4-8 21.1-19.1 23.4l-4.8 6.3zm0-51.6c-12.1 0-21.9 9.8-21.9 21.9 0 10.5 7.5 19.6 17.8 21.5l.4.1 3.7 4.9 3.7-4.9.4-.1c10.3-1.9 17.8-11 17.8-21.5 0-12.1-9.9-21.9-21.9-21.9z"/></g></g><g><circle class="fest3" cx="151.5" cy="27.7" r="8.5"/><path class="fest2" d="M157.8 45.1c-.6 0-1-.4-1-1v-3c0-2 .8-3.9 2.3-5.3 2.2-2.1 3.4-4.9 3.4-7.9 0-3.1-1.2-5.9-3.4-8-2.2-2.1-5.1-3.2-8.2-3-5.7.3-10.2 5-10.4 10.6-.1 3.1 1.2 6.2 3.4 8.4 1.5 1.4 2.3 3.2 2.3 5.1v3.2c0 .6-.4 1-1 1s-1-.4-1-1V41c0-1.4-.6-2.7-1.7-3.7-2.7-2.6-4.2-6.2-4.1-9.9.2-6.7 5.6-12.2 12.3-12.6 3.6-.2 7.1 1.1 9.7 3.6 2.6 2.5 4.1 5.8 4.1 9.5 0 3.6-1.4 6.9-4 9.4-1.1 1.1-1.7 2.4-1.7 3.9v3c0 .4-.5.9-1 .9z"/><path class="fest2" d="M151.6 52.3c-.5 0-1-.4-1-1s.4-1 1-1h2.7c.6-.1 1.2-.4 1.7-.8.5-.5.9-1.3.9-2.1v-3.1c0-.6.4-1 1-1s1 .4 1 1v3.1c0 1.3-.5 2.5-1.4 3.5-.8.8-1.8 1.3-2.9 1.4h-3z"/><path class="fest2" d="M160.1 45.1h-17c-.6 0-1-.4-1-1s.4-1 1-1h17c.6 0 1 .4 1 1 0 .5-.5 1-1 1z"/><path class="fest2" d="M151.6 52.3h-2.5c-1.3 0-2.5-.5-3.5-1.4-.9-.9-1.4-2.2-1.4-3.5v-2.8c0-.6.4-1 1-1s1 .4 1 1v2.8c0 .8.3 1.5.9 2.1.6.6 1.3.9 2.1.9h2.5c.6 0 1 .4 1 1-.1.4-.6.9-1.1.9zM154.6 44.1h-2v-7.3l5.2-10v-1.1h2v1.6l-5.2 10zM150.3 44.1h-2v-6.8l-5.2-10v-1.6h2v1.1l5.2 10zM154.7 26.4c0-.5.5-1 1-1 .6 0 1 .5 1 1s-.4 1-1 1-1-.5-1-1zm-4 0c0-.5.5-1 1-1 .6 0 1 .5 1 1s-.4 1-1 1-1-.5-1-1zm-4 0c0-.5.5-1 1-1 .6 0 1 .5 1 1s-.4 1-1 1-1-.5-1-1z"/><g><path class="fest2" d="M151.6 62.9l-4.8-6.4c-11.1-2.3-19.1-12-19.1-23.4 0-13.2 10.7-23.9 23.9-23.9s23.9 10.7 23.9 23.9c0 11.4-8 21.1-19.1 23.4l-4.8 6.4zm0-51.6c-12.1 0-21.9 9.8-21.9 21.9 0 10.5 7.5 19.6 17.8 21.5l.4.1 3.7 4.9 3.7-4.9.4-.1c10.3-1.9 17.8-11 17.8-21.5 0-12.1-9.8-21.9-21.9-21.9z"/></g></g><g><path class="fest2" d="M65.5 86.3c-2.2 0-4-1.8-4-4s1.8-4 4-4 4 1.8 4 4-1.8 4-4 4zm0-6c-1.1 0-2 .9-2 2s.9 2 2 2 2-.9 2-2-.9-2-2-2z"/></g><g><circle class="fest3" cx="173.5" cy="168.3" r="3"/></g><g><path class="fest2" d="M88.5 161.5h2v4h-2zM88.5 171.5h2v4h-2z"/><g><path class="fest2" d="M82.5 167.5h4v2h-4zM92.5 167.5h4v2h-4z"/></g></g></g></svg>