<?xml version="1.0" encoding="utf-8"?><svg id="gcLayer_1" xmlns="http://www.w3.org/2000/svg" xmlns:xlink="http://www.w3.org/1999/xlink" viewBox="0 0 193 193" width="193" height="193"><style>.gcst0{clip-path:url(#gcSVGID_2_)}.gcst1{fill:#48515a}.gcst2{fill:#ffd15d}.gcst3{fill:#475059}.gcst4{fill:#f58e70}.gcst5{fill:#4f4f4f}</style><defs><path id="gcSVGID_1_" d="M0 0h193v193H0z"/></defs><clipPath id="gcSVGID_2_"><use xlink:href="#gcSVGID_1_" overflow="visible"/></clipPath><g class="gcst0"><path class="gcst1" d="M96.9 36.1c-12.9 0-23.1-4.7-23.1-10.7 0-.6.4-1 1-1s1 .4 1 1c0 4.2 8.5 8.7 21.1 8.7 12.6 0 21.1-4.5 21.1-8.7 0-.6.4-1 1-1s1 .4 1 1c0 6.1-10.2 10.7-23.1 10.7zM171.3 118.8h-15.4c-.6 0-1-.4-1-1v-9.3c-2.9-.5-5.1-3-5.1-6.1V57.9c0-.6.4-1 1-1s1 .4 1 1v44.5c0 2.3 1.9 4.1 4.1 4.1.6 0 1 .4 1 1v9.3h13.4v-9.3c0-.6.4-1 1-1s1 .4 1 1v10.3c0 .6-.5 1-1 1z"/><path class="gcst1" d="M132.3 154.7H100c-.6 0-1-.4-1-1s.4-1 1-1h32.3c2.3 0 4.1-1.9 4.1-4.1V62.8c0-4.2 3.4-7.6 7.5-7.6h18.8c.6 0 1 .4 1 1s-.4 1-1 1H144c-3 0-5.5 2.5-5.5 5.6v85.8c-.1 3.4-2.8 6.1-6.2 6.1zM73.8 154.7H61c-3.4 0-6.1-2.8-6.1-6.1V62.8c0-3.1-3.7-5.6-6.7-5.6H30.9c-.6 0-1-.4-1-1s.4-1 1-1h17.2c4 0 8.7 3.3 8.7 7.6v85.8c0 2.3 1.9 4.1 4.1 4.1h12.8c.6 0 1 .4 1 1s-.4 1-.9 1z"/><path class="gcst1" d="M37.7 108.5h-5c-.6 0-1-.4-1-1s.4-1 1-1h5c2.3 0 4.1-1.9 4.1-4.1V57.9c0-.6.4-1 1-1s1 .4 1 1v44.5c0 3.4-2.7 6.1-6.1 6.1z"/><path class="gcst1" d="M37.7 118.8H22.3c-.6 0-1-.4-1-1v-9.3c-2.9-.5-5.1-3-5.1-6.1V40.8c0-9 7.4-16.4 16.4-16.4h42.2c.6 0 1 .4 1 1 0 11.8 9.5 21.4 21.1 21.4 11.6 0 21.1-9.6 21.1-21.4 0-.6.4-1 1-1h42c9 0 16.4 7.4 16.4 16.4v61.6c0 3.4-2.8 6.1-6.1 6.1h-5.1c-.6 0-1-.4-1-1s.4-1 1-1h5.1c2.3 0 4.1-1.9 4.1-4.1V40.8c0-7.9-6.5-14.4-14.4-14.4h-41c-.5 12.5-10.7 22.4-23.1 22.4-12.4 0-22.6-10-23.1-22.4H32.6c-7.9 0-14.4 6.5-14.4 14.4v61.6c0 2.3 1.9 4.1 4.1 4.1.6 0 1 .4 1 1v9.3h13.4v-9.3c0-.6.4-1 1-1s1 .4 1 1v10.3c0 .6-.4 1-1 1zM130.2 165H63.5c-.6 0-1-.4-1-1v-10.3c0-.6.4-1 1-1s1 .4 1 1v9.3h64.7v-9.3c0-.6.4-1 1-1s1 .4 1 1V164c0 .5-.4 1-1 1z"/><path class="gcst1" d="M78 154.7c-.3 0-.5-.1-.7-.3-.1-.1-.2-.2-.2-.3 0-.1-.1-.2-.1-.4 0-.3.1-.5.3-.7.1-.1.2-.2.3-.2.4-.2.8-.1 1.1.2.2.2.3.4.3.7 0 .1 0 .3-.1.4 0 .1-.1.2-.2.3-.1.2-.4.3-.7.3zM96.1 154.7c-.3 0-.5-.1-.7-.3-.1-.1-.2-.2-.2-.3 0-.1-.1-.2-.1-.4 0-.3.1-.5.3-.7 0 0 .1-.1.2-.1s.1-.1.2-.1c.2-.1.5-.1.8 0 .1 0 .2.1.3.2.2.2.3.4.3.7 0 .1 0 .3-.1.4 0 .1-.1.2-.2.3-.1.1-.2.2-.3.2-.3.1-.4.1-.5.1z"/><path class="gcst2" d="M120 156.7H66.5v4.3h60.7v-4.3h-6.6zM161 28.4h-39.2c-1.5 12.6-12.1 22.4-24.9 22.4C84 50.8 73.4 41 72 28.4H32.6c-6.8 0-12.4 5.6-12.4 12.4v61.6c0 1.2 1 2.1 2.1 2.1 1.7 0 3 1.3 3 3v7.3h9.4v-4.3h-2c-1.7 0-3-1.3-3-3s1.3-3 3-3h5c1.2 0 2.1-1 2.1-2.1V59.2h-9c-1.7 0-3-1.3-3-3s1.3-3 3-3H48c5 0 10.7 4.1 10.7 9.6v85.8c0 1.2 1 2.1 2.1 2.1h71.4c1.2 0 2.1-1 2.1-2.1V62.8c0-5.3 4.3-9.6 9.5-9.6h18.8c1.7 0 3 1.3 3 3s-1.3 3-3 3h-9v43.2c0 1.2 1 2.1 2.1 2.1 1.7 0 3 1.3 3 3v7.3h9.4v-4.3H166c-1.7 0-3-1.3-3-3s1.3-3 3-3h5.1c1.2 0 2.1-1 2.1-2.1V40.8c.2-6.8-5.3-12.4-12.2-12.4zM106.4 103l-8.7-4.6L89 103l1.7-9.7-7-6.9 9.7-1.4 4.3-8.8L102 85l9.7 1.4-7 6.9 1.7 9.7z"/><g><path class="gcst1" d="M86.8 108.4c-.5 0-1-.2-1.4-.4-.7-.5-1.1-1.4-.9-2.3l1.9-11-8-7.8c-.6-.6-.9-1.5-.6-2.4.3-.8 1-1.4 1.9-1.6l11-1.6 4.9-10c.4-.8 1.2-1.3 2.1-1.3.9 0 1.7.5 2.1 1.3l4.9 10 11 1.6c.9.1 1.6.7 1.9 1.6s0 1.8-.6 2.4l-8 7.8 1.9 11c.1.9-.2 1.7-.9 2.3-.7.5-1.7.6-2.4.2l-9.9-5.2-9.9 5.2c-.3.2-.7.2-1 .2zm10.9-7.7l10.8 5.7c.2.1.3 0 .3 0 .1 0 .2-.1.1-.3l-2.1-12 8.7-8.5c.1-.1.1-.3.1-.3s-.1-.2-.3-.2l-12.1-1.8L98 72.4c-.1-.2-.2-.2-.3-.2-.1 0-.2 0-.3.2L92 83.3 80 85c-.2 0-.2.1-.3.2 0 .1 0 .2.1.3l8.7 8.5-2.1 12c0 .2.1.3.1.3.1 0 .2.1.3 0l10.9-5.6zm-6.3-18.3z"/></g><g><path class="gcst1" d="M33.8 134.5h2v4h-2zM33.8 144.5h2v4h-2z"/><g><path class="gcst1" d="M37.8 140.5h4v2h-4zM27.8 140.5h4v2h-4z"/></g></g><g><path class="gcst1" d="M145.9 163.5h2v4h-2zM145.9 173.5h2v4h-2z"/><g><path class="gcst1" d="M149.9 169.5h4v2h-4zM139.9 169.5h4v2h-4z"/></g></g><g><path class="gcst3" d="M173.2 170.4h-.8c-10.5-.4-18.8-9.3-18.4-19.9.1-2.8.8-5.5 2.1-8l-1.9-11.3 11.4 2.4c2.6-1.1 5.3-1.6 8.2-1.5 5.1.2 9.8 2.4 13.3 6.1 3.5 3.8 5.3 8.6 5.1 13.7-.3 10.4-8.8 18.5-19 18.5zm-16.5-36.6l1.5 9-.2.3c-1.2 2.3-1.9 4.8-2 7.5-.4 9.4 7 17.4 16.5 17.8 9.4.4 17.4-7 17.8-16.5.2-4.6-1.4-8.9-4.5-12.3-3.1-3.4-7.3-5.3-11.9-5.5-2.6-.1-5.2.4-7.6 1.4l-.3.1-9.3-1.8z"/><path class="gcst4" d="M182 152.4c.7-.9 1.2-2.1 1.2-3.4 0-3-2.4-5.5-5.5-5.5-1.9 0-3.5.9-4.5 2.4-1-1.4-2.6-2.4-4.5-2.4-3 0-5.5 2.4-5.5 5.5 0 1.3.5 2.5 1.2 3.4.2.3 8.7 9 8.7 9s8.7-8.8 8.9-9z"/><path class="gcst4" d="M173.3 162.8l-.7-.7c-3.2-3.3-8.6-8.9-8.8-9.1-.9-1.2-1.4-2.6-1.4-4 0-3.6 2.9-6.5 6.5-6.5 1.7 0 3.3.7 4.5 1.8 1.2-1.2 2.8-1.8 4.5-1.8 3.6 0 6.5 2.9 6.5 6.5 0 1.5-.5 2.9-1.4 4-.4.5-5.7 5.9-8.8 9.1l-.9.7zm-4.5-18.3c-2.5 0-4.5 2-4.5 4.5 0 1 .3 2 1 2.8.3.3 4.7 4.8 8 8.2 3.3-3.4 7.6-7.8 8-8.2.6-.8 1-1.8 1-2.8 0-2.5-2-4.5-4.5-4.5-1.5 0-2.8.7-3.7 1.9l-.8 1.2-.8-1.2c-.9-1.2-2.3-1.9-3.7-1.9z"/></g><g><path class="gcst1" d="M130.8 31.5h2v4h-2zM130.8 41.5h2v4h-2z"/><g><path class="gcst1" d="M134.8 37.5h4v2h-4zM124.8 37.5h4v2h-4z"/></g></g><g><path class="gcst4" d="M56.1 144.2c-10.2 0-18.5-8.3-18.5-18.5s8.3-18.5 18.5-18.5 18.5 8.3 18.5 18.5-8.3 18.5-18.5 18.5zm0-35c-9.1 0-16.5 7.4-16.5 16.5s7.4 16.5 16.5 16.5 16.5-7.4 16.5-16.5-7.4-16.5-16.5-16.5z"/><path class="gcst5" d="M51.7 120.8c-.4-.7-1.1-1.1-1.8-1.1-.8 0-1.4.4-1.8 1.1l-1.7-1c.7-1.3 2.1-2.1 3.5-2.1s2.8.8 3.5 2.1l-1.7 1zM64.1 120.8c-.4-.7-1.1-1.1-1.8-1.1-.8 0-1.4.4-1.8 1.1l-1.7-1c.7-1.3 2.1-2.1 3.5-2.1s2.8.8 3.5 2.1l-1.7 1zM56.1 137.7c-6.1 0-11-4.9-11-11v-1h22v1c0 6.1-4.9 11-11 11zm-9-10c.5 4.5 4.3 8 8.9 8s8.4-3.5 8.9-8H47.1z"/></g><g><circle class="gcst2" cx="3.5" cy="40.2" r="2.8"/></g><g><circle class="gcst2" cx="16.7" cy="127.5" r="2.5"/></g><g><path class="gcst1" d="M178.5 23.5c-2.2 0-4-1.8-4-4s1.8-4 4-4 4 1.8 4 4-1.8 4-4 4zm0-6c-1.1 0-2 .9-2 2s.9 2 2 2 2-.9 2-2-.9-2-2-2z"/></g></g></svg>