<svg xmlns="http://www.w3.org/2000/svg" xmlns:xlink="http://www.w3.org/1999/xlink" width="172" height="159" viewBox="0 0 172 159">
  <defs>
    <polygon id="cc454-a" points=".06 .487 14 .487 14 2.487 .06 2.487"/>
  </defs>
  <g fill="none" fill-rule="evenodd">
    <path fill="#475059" d="M102.863,156.48 L169.866,156.48 L169.866,79.477 L92.277,79.477 L102.863,90.063 L102.863,156.48 Z M171.866,158.48 L100.863,158.48 L100.863,90.892 L87.449,77.477 L171.866,77.477 L171.866,158.48 Z"/>
    <path fill="#FFF" d="M53.519,78.437 L53.519,75.18 L56.776,75.18 L56.776,62.151 L69.804,52.38 L69.804,23.811 C49.618,29.844 34.397,46.508 30.211,67.157 L43.747,78.437 L53.519,78.437"/>
    <polyline fill="#FFF" points="53.518 78.436 53.518 97.979 76.318 120.779 79.575 120.779 79.575 75.179 56.775 75.179 56.775 78.436 53.518 78.436"/>
    <polygon fill="#48515A" points="6 138.487 8 138.487 8 134.487 6 134.487"/>
    <polygon fill="#48515A" points="6 148.487 8 148.487 8 144.487 6 144.487"/>
    <g transform="translate(0 140)">
      <mask id="cc454-b" fill="#fff">
        <use xlink:href="#cc454-a"/>
      </mask>
      <polygon fill="#48515A" points="10 2.487 14 2.487 14 .487 10 .487" mask="url(#cc454-b)"/>
      <polygon fill="#48515A" points=".06 2.487 4 2.487 4 .487 .06 .487" mask="url(#cc454-b)"/>
    </g>
    <polygon fill="#48515A" points="159.078 4.457 161.078 4.457 161.078 .457 159.078 .457"/>
    <polygon fill="#48515A" points="159.078 14.457 161.078 14.457 161.078 10.457 159.078 10.457"/>
    <polygon fill="#48515A" points="163.078 8.457 167.078 8.457 167.078 6.457 163.078 6.457"/>
    <polygon fill="#48515A" points="153.078 8.457 157.078 8.457 157.078 6.457 153.078 6.457"/>
    <path fill="#FFD15D" d="M35.512,1.489 C36.34,1.489 37.012,2.161 37.012,2.989 C37.012,3.817 36.34,4.489 35.512,4.489 C34.683,4.489 34.012,3.817 34.012,2.989 C34.012,2.161 34.683,1.489 35.512,1.489"/>
    <path fill="#FFD15D" d="M35.512 1.989C34.959 1.989 34.512 2.437 34.512 2.989 34.512 3.542 34.959 3.989 35.512 3.989 36.064 3.989 36.512 3.542 36.512 2.989 36.511 2.437 36.064 1.99 35.512 1.989zM35.512 4.989C34.407 4.989 33.512 4.094 33.512 2.989 33.512 1.885 34.407.989 35.512.989 36.616.989 37.512 1.885 37.512 2.989 37.51 4.093 36.616 4.988 35.512 4.989zM19.006 154.487C20.114 154.487 21.012 155.386 21.012 156.493 21.012 157.601 20.114 158.499 19.006 158.499 17.898 158.499 17 157.601 17 156.493 17 155.386 17.898 154.487 19.006 154.487"/>
    <path fill="#FFD15D" d="M19.006 154.987C18.174 154.987 17.499 155.661 17.499 156.493 17.499 157.325 18.173 158 19.005 158 19.837 158 20.511 157.326 20.512 156.494L20.512 156.493C20.511 155.662 19.837 154.988 19.006 154.987zM19.006 159C17.622 159 16.499 157.878 16.499 156.494 16.499 155.11 17.621 153.988 19.005 153.987 20.389 153.987 21.511 155.109 21.512 156.493 21.51 157.877 20.389 158.998 19.006 159zM6.67 14.486C9.059 14.486 10.996 16.423 10.996 18.812 10.996 21.201 9.059 23.138 6.67 23.138 4.281 23.138 2.344 21.201 2.344 18.812 2.344 16.423 4.281 14.486 6.67 14.486"/>
    <path fill="#FFD15D" d="M6.67,14.986 C4.557,14.986 2.844,16.699 2.844,18.812 C2.844,20.926 4.557,22.639 6.67,22.639 C8.783,22.639 10.496,20.926 10.496,18.812 C10.493,16.7 8.782,14.989 6.67,14.986 Z M6.67,23.639 C4.005,23.639 1.844,21.478 1.844,18.812 C1.844,16.147 4.005,13.986 6.67,13.986 C9.335,13.986 11.496,16.147 11.496,18.812 C11.493,21.477 9.334,23.636 6.67,23.639 Z"/>
    <polyline fill="#DEDEDD" points="157.385 107.012 153.385 104.01 153.385 97.012 157.385 97.012 157.385 107.012"/>
    <polyline fill="#475059" points="161.397 107.36 159.397 107.36 159.397 95.011 151.386 95.011 151.386 100.01 149.386 100.01 149.386 93.011 161.397 93.011 161.397 107.36"/>
    <polyline fill="#F58E70" points="165.398 113.511 136.399 87.503 107.4 113.511 105.412 111.381 136.399 83.517 167.385 111.381 165.398 113.511"/>
    <path fill="#5FE0ED" d="M119.394 136.331L122.394 136.331C124.051 136.331 125.394 134.988 125.394 133.331L125.394 128.027 119.394 128.027 119.394 136.331M133.399 136.331L130.399 136.331C128.742 136.331 127.399 134.988 127.399 133.331L127.399 128.027 133.399 128.027 133.399 136.331M139.406 120.012L142.406 120.012C144.063 120.012 145.406 118.669 145.406 117.012L145.406 112.012 139.406 112.012 139.406 120.012M153.411 120.012L150.411 120.012C148.754 120.012 147.411 118.669 147.411 117.012L147.411 112.012 153.411 112.012 153.411 120.012M119.394 120.012L122.394 120.012C124.051 120.012 125.394 118.669 125.394 117.012L125.394 112.012 119.394 112.012 119.394 120.012M133.399 120.012L130.399 120.012C128.742 120.012 127.399 118.669 127.399 117.012L127.399 112.012 133.399 112.012 133.399 120.012"/>
    <polygon fill="#475059" points="111.4 144.011 113.4 144.011 113.4 109.512 111.4 109.512"/>
    <polyline fill="#475059" points="152.396 144.01 150.396 144.01 150.396 129.011 143.397 129.011 143.397 144.01 141.397 144.01 141.397 127.011 152.396 127.011 152.396 144.01"/>
    <polygon fill="#475059" points="159.397 144.083 161.397 144.083 161.397 109.759 159.397 109.759"/>
    <polyline fill="#475059" points="108.06 114.263 106.74 112.761 136.399 86.679 166.057 112.76 164.737 114.262 136.399 89.343 108.06 114.263"/>
    <path fill="#475059" d="M120.401 121.012L132.399 121.012 132.399 113.012 120.401 113.012 120.401 121.012zM118.401 123.012L134.399 123.012 134.399 111.012 118.401 111.012 118.401 123.012zM140.399 121.012L152.397 121.012 152.397 113.012 140.399 113.012 140.399 121.012zM138.399 123.012L154.397 123.012 154.397 111.012 138.399 111.012 138.399 123.012zM120.401 137.316L132.399 137.316 132.399 129.012 120.401 129.012 120.401 137.316zM118.401 139.316L134.399 139.316 134.399 127.012 118.401 127.012 118.401 139.316z"/>
    <polygon fill="#48515A" points="108.37 148.013 164.368 148.013 164.368 146.013 108.37 146.013"/>
    <polyline fill="#DEDEDD" points="108.37 149.455 108.37 153.34 164.368 153.455 164.368 149.57 108.37 149.455"/>
    <polygon fill="#475059" points="146.367 139.012 148.367 139.012 148.367 137.012 146.367 137.012"/>
    <path fill="#475059" d="M86.09,139.437 C52.401,139.439 25.089,112.129 25.088,78.439 C25.087,44.75 52.396,17.439 86.086,17.438 C118.607,17.436 145.41,42.948 147.014,75.43 L145.016,75.527 C143.39,43.002 115.705,17.952 83.179,19.578 C50.653,21.203 25.604,48.889 27.229,81.414 C28.855,113.94 56.54,138.99 89.066,137.364 C91.926,137.221 94.772,136.87 97.581,136.313 L97.97,138.276 C94.057,139.049 90.078,139.438 86.09,139.437"/>
    <g transform="translate(8)">
      <path fill="#5FE0ED" d="M74.621,75.477 L87.408,75.477 L84.604,72.674 L84.604,55.637 L113.918,55.637 L113.918,36.094 L110.661,36.094 L104.147,42.608 L107.404,45.865 L104.147,49.123 L100.89,45.865 L94.376,45.865 L87.861,52.38 L84.604,52.38 L84.604,32.837 L100.89,32.837 L100.89,29.579 L87.861,29.579 L93.795,23.646 C83.334,20.646 72.233,20.703 61.804,23.811 L61.804,52.38 L48.776,62.151 L48.776,75.18 L71.576,75.18 L71.576,120.78 L68.318,120.78 L45.518,97.98 L45.518,78.437 L35.747,78.437 L22.211,67.157 C15.966,97.996 35.904,128.059 66.743,134.304 C74.714,135.918 82.938,135.807 90.862,133.978 L90.862,91.719 L74.621,75.477"/>
      <path fill="#FFD15D" d="M90.863,142.831 C55.289,149.88 20.735,126.755 13.687,91.181 C6.638,55.606 29.762,21.053 65.337,14.004 C100.912,6.955 135.465,30.079 142.514,65.654 C143.156,68.894 143.552,72.178 143.7,75.477 L155.757,75.477 C154.145,32.55 118.038,-0.942 75.11,0.67 C32.183,2.283 -1.309,38.39 0.303,81.317 C1.916,124.245 38.023,157.737 80.95,156.124 C84.273,156 87.584,155.662 90.863,155.113 L90.863,142.831"/>
    </g>
  </g>
</svg>
