<svg xmlns="http://www.w3.org/2000/svg" xmlns:xlink="http://www.w3.org/1999/xlink" width="181" height="190" viewBox="0 0 181 190">
  <defs>
    <polygon id="cc455-a" points="0 .809 180.96 .809 180.96 114 0 114"/>
  </defs>
  <g fill="none" fill-rule="evenodd">
    <polyline fill="#DEDEDD" points="135.226 94.038 90.483 81.255 90.483 173.057 135.226 185.84"/>
    <g transform="translate(0 76)">
      <mask id="cc455-b" fill="#fff">
        <use xlink:href="#cc455-a"/>
      </mask>
      <polyline fill="#DEDEDD" points="45.742 18.038 4 6.113 4 97.914 45.742 109.84 45.742 18.038" mask="url(#cc455-b)"/>
      <path fill="#48515A" d="M90.483,99.137 L135.226,111.92 L178.967,99.423 L178.967,3.461 L135.226,15.958 L90.483,3.175 L45.741,15.958 L2,3.461 L2,99.423 L45.741,111.92 L90.483,99.137 Z M135.226,114 L90.483,101.217 L45.741,114 L0,100.931 L0,0.809 L45.741,13.878 L90.483,1.095 L135.226,13.878 L180.967,0.809 L180.967,100.931 L135.226,114 Z" mask="url(#cc455-b)"/>
    </g>
    <path fill="#FFD15D" d="M116.483,24.549 L116.483,48.96 L116.458,48.96 C115.909,63.306 103.835,74.49 89.489,73.941 C75.914,73.421 65.028,62.535 64.509,48.96 L64.483,48.96 L64.483,24.548 C54.692,35.678 53.095,51.815 60.514,64.648 L63.526,70.177 L63.564,70.242 C73.949,87.807 82.274,106.511 88.371,125.984 L90.478,132.744 L92.586,125.984 C98.593,106.524 106.825,87.823 117.118,70.25 L120.448,64.656 C127.873,51.822 126.277,35.681 116.483,24.549"/>
    <polyline fill="#DEDEDD" points="111.487 24.455 107.487 21.453 107.487 14.455 111.487 14.455 111.487 24.455"/>
    <polyline fill="#475059" points="115.5 24.803 113.5 24.803 113.5 12.455 105.488 12.455 105.488 17.453 103.488 17.453 103.488 10.455 115.5 10.455 115.5 24.803"/>
    <polyline fill="#F58E70" points="119.499 30.954 90.501 4.946 61.502 30.954 59.514 28.824 90.501 .96 121.487 28.824 119.499 30.954"/>
    <path fill="#5FE0ED" d="M73.496 53.774L76.496 53.774C78.153 53.774 79.496 52.431 79.496 50.774L79.496 45.47 73.496 45.47 73.496 53.774M87.501 53.774L84.501 53.774C82.844 53.774 81.501 52.431 81.501 50.774L81.501 45.47 87.501 45.47 87.501 53.774M93.508 37.455L96.508 37.455C98.165 37.455 99.508 36.112 99.508 34.455L99.508 29.455 93.508 29.455 93.508 37.455M107.513 37.455L104.513 37.455C102.856 37.455 101.513 36.112 101.513 34.455L101.513 29.455 107.513 29.455 107.513 37.455M73.496 37.455L76.496 37.455C78.153 37.455 79.496 36.112 79.496 34.455L79.496 29.455 73.496 29.455 73.496 37.455M87.501 37.455L84.501 37.455C82.844 37.455 81.501 36.112 81.501 34.455L81.501 29.455 87.501 29.455 87.501 37.455"/>
    <polygon fill="#475059" points="65.502 61.453 67.502 61.453 67.502 26.954 65.502 26.954"/>
    <polyline fill="#475059" points="106.498 61.453 104.498 61.453 104.498 46.455 97.499 46.455 97.499 61.453 95.499 61.453 95.499 44.455 106.498 44.455 106.498 61.453"/>
    <polygon fill="#475059" points="113.5 61.525 115.5 61.525 115.5 27.201 113.5 27.201"/>
    <polyline fill="#475059" points="62.162 31.706 60.841 30.204 90.501 4.123 120.16 30.203 118.839 31.705 90.501 6.787 62.162 31.706"/>
    <path fill="#475059" d="M74.503 38.455L86.501 38.455 86.501 30.455 74.503 30.455 74.503 38.455zM72.503 40.455L88.501 40.455 88.501 28.455 72.503 28.455 72.503 40.455zM94.501 38.455L106.499 38.455 106.499 30.455 94.501 30.455 94.501 38.455zM92.501 40.455L108.499 40.455 108.499 28.455 92.501 28.455 92.501 40.455zM74.503 54.759L86.501 54.759 86.501 46.455 74.503 46.455 74.503 54.759zM72.503 56.759L88.501 56.759 88.501 44.455 72.503 44.455 72.503 56.759z"/>
    <polygon fill="#475059" points="100.469 56.454 102.469 56.454 102.469 54.454 100.469 54.454"/>
    <path fill="#475059" d="M90.463,121.96 C85.72,121.96 81.876,125.805 81.876,130.548 C81.876,135.291 85.721,139.135 90.464,139.135 C95.206,139.135 99.05,135.29 99.051,130.548 C99.046,125.807 95.204,121.965 90.463,121.96 Z M90.463,141.135 C84.616,141.135 79.876,136.394 79.876,130.547 C79.876,124.7 84.617,119.96 90.464,119.96 C96.311,119.96 101.051,124.701 101.051,130.548 C101.044,136.393 96.308,141.129 90.463,141.135 Z"/>
    <polygon fill="#48515A" points="155.553 150.993 157.553 150.993 157.553 146.993 155.553 146.993"/>
    <polygon fill="#48515A" points="155.553 160.993 157.553 160.993 157.553 156.993 155.553 156.993"/>
    <polygon fill="#48515A" points="159.553 154.993 163.553 154.993 163.553 152.993 159.553 152.993"/>
    <polygon fill="#48515A" points="149.553 154.993 153.553 154.993 153.553 152.993 149.553 152.993"/>
    <polygon fill="#48515A" points="23.43 36.981 25.43 36.981 25.43 32.981 23.43 32.981"/>
    <polygon fill="#48515A" points="23.43 46.98 25.43 46.98 25.43 42.98 23.43 42.98"/>
    <polygon fill="#48515A" points="27.43 40.98 31.43 40.98 31.43 38.98 27.43 38.98"/>
    <polygon fill="#48515A" points="17.43 40.98 21.43 40.98 21.43 38.98 17.43 38.98"/>
    <polygon fill="#48515A" points="162.479 43.956 164.479 43.956 164.479 39.956 162.479 39.956"/>
    <polygon fill="#48515A" points="162.479 53.956 164.479 53.956 164.479 49.956 162.479 49.956"/>
    <polygon fill="#48515A" points="166.479 47.956 170.479 47.956 170.479 45.956 166.479 45.956"/>
    <polygon fill="#48515A" points="156.479 47.956 160.479 47.956 160.479 45.956 156.479 45.956"/>
    <polyline fill="#DEDEDD" points="156.694 123.168 141.129 116.497 138.456 118.101 146.688 126.334 143.86 129.162 135.749 121.051 134.125 124.318 140.922 140.777 145.755 131.057 153.866 139.168 156.694 136.339 148.462 128.107 156.694 123.168"/>
    <path fill="#48515A" d="M120.549,103.048 L131,128.356 L135.473,119.36 L143.86,127.748 L145.274,126.333 L136.843,117.903 L144.497,113.311 L120.549,103.048 Z M130.832,133.188 L116.828,99.276 L148.88,113.014 L140.069,118.3 L148.103,126.333 L143.86,130.576 L136.025,122.741 L130.832,133.188 Z"/>
    <path fill="#475059" d="M64.181,149.83 L62.278,149.211 L62.608,148.199 L61.333,147.784 C59.406,147.156 58.353,145.085 58.981,143.158 C59.346,142.041 60.223,141.166 61.341,140.804 L62.616,140.39 L61.916,138.229 L60.641,138.642 C58.712,139.267 56.643,138.21 56.018,136.282 C55.656,135.164 55.85,133.94 56.542,132.99 L57.332,131.905 L55.494,130.568 L54.705,131.653 C53.511,133.292 51.216,133.652 49.577,132.458 C48.628,131.767 48.068,130.663 48.068,129.489 L48.069,128.148 L45.798,128.146 L45.796,129.487 C45.794,131.514 44.149,133.155 42.122,133.153 C40.948,133.152 39.845,132.589 39.155,131.638 L38.367,130.552 L36.528,131.886 L37.315,132.971 C38.506,134.612 38.14,136.907 36.499,138.097 C35.548,138.787 34.324,138.979 33.207,138.615 L31.932,138.199 L31.603,139.21 L29.7,138.589 L30.65,135.678 L33.826,136.713 C34.703,136.999 35.646,136.52 35.932,135.643 C36.098,135.135 36.01,134.578 35.696,134.145 L33.735,131.44 L38.812,127.759 L40.774,130.464 C41.316,131.211 42.36,131.377 43.106,130.836 C43.539,130.522 43.795,130.02 43.796,129.485 L43.8,126.144 L50.071,126.149 L50.068,129.491 C50.068,130.413 50.815,131.162 51.737,131.162 C52.271,131.163 52.773,130.907 53.088,130.476 L55.055,127.775 L60.125,131.466 L58.159,134.168 C57.616,134.914 57.781,135.958 58.527,136.501 C58.959,136.816 59.516,136.904 60.024,136.739 L63.203,135.709 L65.134,141.677 L61.957,142.706 C61.08,142.99 60.598,143.931 60.882,144.808 C61.046,145.317 61.444,145.716 61.952,145.882 L65.13,146.918 L64.181,149.83"/>
    <path fill="#475059" d="M54.977,146.906 L53.074,146.287 C54.183,142.887 52.326,139.231 48.925,138.123 C45.525,137.014 41.87,138.871 40.761,142.272 L38.858,141.652 C40.311,137.202 45.097,134.772 49.547,136.225 C53.994,137.677 56.424,142.458 54.977,146.906"/>
    <path fill="#475059" d="M46.949,152.691 C42.261,152.688 38.463,148.885 38.466,144.197 C38.467,143.309 38.607,142.427 38.881,141.583 L40.783,142.202 C39.674,145.602 41.531,149.258 44.932,150.367 C48.332,151.476 51.987,149.619 53.097,146.219 L54.999,146.838 C53.861,150.322 50.615,152.683 46.949,152.691"/>
    <path fill="#475059" d="M50.058,162.347 L43.785,162.34 L43.788,158.999 C43.789,158.077 43.043,157.328 42.12,157.327 C41.586,157.326 41.083,157.582 40.769,158.014 L38.802,160.716 L33.73,157.023 L35.698,154.321 C36.241,153.576 36.077,152.531 35.331,151.988 C34.899,151.674 34.342,151.585 33.833,151.75 L30.654,152.778 L28.723,146.812 L31.902,145.783 C32.78,145.499 33.261,144.556 32.976,143.679 C32.811,143.17 32.413,142.771 31.904,142.605 L28.729,141.57 L29.796,138.3 L31.696,138.921 L31.25,140.289 L32.525,140.704 C34.452,141.332 35.505,143.403 34.877,145.331 C34.513,146.448 33.636,147.324 32.518,147.685 L31.242,148.099 L31.941,150.261 L33.218,149.848 C35.146,149.223 37.215,150.28 37.84,152.209 C38.202,153.326 38.007,154.549 37.315,155.499 L36.525,156.583 L38.362,157.921 L39.151,156.836 C40.345,155.198 42.641,154.837 44.279,156.031 C45.228,156.722 45.789,157.826 45.788,159.001 L45.787,160.342 L48.06,160.345 L48.061,159.003 C48.063,156.976 49.708,155.335 51.735,155.337 C52.91,155.338 54.013,155.902 54.702,156.853 L55.489,157.939 L57.329,156.605 L56.542,155.519 C55.353,153.878 55.719,151.583 57.36,150.394 C58.311,149.705 59.534,149.512 60.65,149.876 L61.926,150.292 L62.42,148.775 L64.322,149.396 L63.207,152.814 L60.031,151.778 C59.155,151.492 58.212,151.971 57.926,152.847 C57.76,153.356 57.847,153.913 58.161,154.346 L60.122,157.051 L55.044,160.732 L53.083,158.027 C52.542,157.28 51.498,157.113 50.751,157.654 C50.318,157.968 50.061,158.47 50.061,159.005 L50.058,162.347"/>
    <path fill="#475059" d="M46.875,141.345 C45.218,141.345 43.875,142.688 43.875,144.345 C43.875,146.002 45.218,147.345 46.875,147.345 C48.532,147.345 49.875,146.002 49.875,144.345 C49.873,142.689 48.531,141.347 46.875,141.345 Z M46.875,149.345 C44.114,149.345 41.875,147.106 41.875,144.345 C41.875,141.583 44.114,139.345 46.875,139.345 C49.636,139.345 51.875,141.583 51.875,144.345 C51.872,147.105 49.635,149.342 46.875,149.345 Z"/>
    <path fill="#FEDE31" d="M137.165 30.46C138.236 30.46 139.104 31.328 139.104 32.4 139.104 33.471 138.236 34.339 137.165 34.339 136.094 34.339 135.226 33.471 135.226 32.4 135.226 31.328 136.094 30.46 137.165 30.46M142.947 56.96C144.307 56.96 145.41 58.063 145.41 59.423 145.41 60.784 144.307 61.887 142.947 61.887 141.586 61.887 140.483 60.784 140.483 59.423 140.483 58.063 141.586 56.96 142.947 56.96M31.331 59.423C32.382 59.423 33.233 60.275 33.233 61.325 33.233 62.376 32.382 63.227 31.331 63.227 30.281 63.227 29.429 62.376 29.429 61.325 29.429 60.275 30.281 59.423 31.331 59.423"/>
  </g>
</svg>
