<svg xmlns="http://www.w3.org/2000/svg" xmlns:xlink="http://www.w3.org/1999/xlink" width="190" height="143" viewBox="0 0 190 143">
  <defs>
    <polygon id="cc452-a" points=".994 .999 102.994 .999 102.994 48.94 .994 48.94"/>
    <polygon id="cc452-c" points=".006 0 34.006 0 34.006 99.94 .006 99.94"/>
    <polygon id="cc452-e" points=".06 0 14 0 14 2 .06 2"/>
  </defs>
  <g fill="none" fill-rule="evenodd">
    <path fill="#FFD15D" d="M154.447,109.001 L137,109.001 L137,91.828 L154.447,109.001 Z M126,81.135 L126,120.001 L179.98,120.001 L169.277,109.288 L136.652,76.693 L126,66 L126,81.135 Z"/>
    <path fill="#48515A" d="M21.994 111L21.994 130.999C21.995 131.551 22.442 131.998 22.994 131.999L122.994 131.999C123.546 131.998 123.994 131.551 123.994 130.999L123.994 111 21.994 111zM122.994 133.999L22.994 133.999C21.338 133.997 19.996 132.655 19.994 130.999L19.994 109 125.994 109 125.994 130.999C125.992 132.655 124.65 133.997 122.994 133.999zM119.994 76.999L117.994 76.999 117.994 52C117.987 45.928 113.066 41.007 106.994 41L38.994 41C32.922 41.007 28.001 45.928 27.994 52L27.994 76.999 25.994 76.999 25.994 52C26.002 44.824 31.818 39.008 38.994 39L106.994 39C114.17 39.008 119.986 44.824 119.994 52L119.994 76.999"/>
    <g transform="translate(21 94)">
      <mask id="cc452-b" fill="#fff">
        <use xlink:href="#cc452-a"/>
      </mask>
      <path fill="#48515A" d="M12.994 15L90.994 15 90.994 2.999 12.994 2.999 12.994 15zM10.994 17L92.994 17 92.994.999 10.994.999 10.994 17zM2.994 46.998L6.994 46.998 6.994 39.999 2.994 39.999 2.994 46.998zM.994 48.998L8.994 48.998 8.994 37.999.994 37.999.994 48.998zM96.994 46.998L100.994 46.998 100.994 39.999 96.994 39.999 96.994 46.998zM94.994 48.998L102.994 48.998 102.994 37.999 94.994 37.999 94.994 48.998z" mask="url(#cc452-b)"/>
    </g>
    <path fill="#48515A" d="M22.994 77C18.026 77.006 14 81.032 13.994 86L13.994 102C13.999 105.864 17.13 108.995 20.994 109L31.994 109 31.994 86C31.988 81.032 27.962 77.006 22.994 77zM33.994 111L20.994 111C16.026 110.994 12 106.968 11.994 102L11.994 86C11.994 79.925 16.919 75 22.994 75 29.069 75 33.994 79.925 33.994 86L33.994 111zM113.994 109L124.994 109C128.858 108.995 131.99 105.864 131.994 102L131.994 86C131.994 81.029 127.965 77 122.994 77 118.024 77 113.994 81.029 113.994 86L113.994 109zM124.994 111L111.994 111 111.994 86C111.994 79.925 116.919 75 122.994 75 129.069 75 133.994 79.925 133.994 86L133.994 102C133.989 106.968 129.962 110.994 124.994 111z"/>
    <polygon fill="#48515A" points="71.994 74.999 73.994 74.999 73.994 69.001 71.994 69.001"/>
    <polygon fill="#48515A" points="69.995 73 75.994 73 75.994 71 69.995 71"/>
    <path fill="#DEDEDD" d="M23.994,122 L121.994,122 L121.994,113 L23.994,113 L23.994,122 Z M29.994,52 C29.999,47.032 34.026,43.006 38.994,43 L106.994,43 C111.962,43.006 115.988,47.032 115.994,52 L115.994,75.063 C112.26,77.447 109.998,81.57 109.994,86 L109.994,92.999 L35.994,92.999 L35.994,86 C35.989,81.57 33.728,77.447 29.994,75.063 L29.994,52 Z"/>
    <path fill="#48515A" d="M132.006,43 L174.006,43 L174.006,42.074 L168.145,3 L137.867,3 L132.006,42.074 L132.006,43 Z M176.006,45 L130.006,45 L130.017,41.852 L136.145,1 L169.867,1 L176.006,42 L176.006,45 Z"/>
    <g transform="translate(136 43)">
      <mask id="cc452-d" fill="#fff">
        <use xlink:href="#cc452-c"/>
      </mask>
      <path fill="#48515A" d="M16.006,94 L18.006,94 L18.006,2 L16.006,2 L16.006,94 Z M14.006,96 L20.006,96 L20.006,0 L14.006,0 L14.006,96 Z" mask="url(#cc452-d)"/>
      <path fill="#48515A" d="M2.006,98 L32.006,98 L32.006,96 L2.006,96 L2.006,98 Z M0.006,100 L34.006,100 L34.006,94 L0.006,94 L0.006,100 Z" mask="url(#cc452-d)"/>
    </g>
    <polygon fill="#48515A" points="138.006 58 140.006 58 140.006 44 138.006 44"/>
    <path fill="#48515A" d="M139.006,59 C138.454,59 138.006,59.448 138.006,60 C138.006,60.552 138.454,61 139.006,61 C139.558,61 140.006,60.552 140.006,60 C140.005,59.448 139.558,59.001 139.006,59 Z M139.006,63 C137.349,63 136.006,61.657 136.006,60 C136.006,58.343 137.349,57 139.006,57 C140.663,57 142.006,58.343 142.006,60 C142.004,61.656 140.662,62.998 139.006,63 Z"/>
    <polyline fill="#FFD15D" points="134.19 41 171.822 41 166.423 5 139.59 5 134.19 41"/>
    <polygon fill="#48515A" points="182 100 184 100 184 96 182 96"/>
    <polygon fill="#48515A" points="182 110 184 110 184 106 182 106"/>
    <polygon fill="#48515A" points="186 104 190 104 190 102 186 102"/>
    <polygon fill="#48515A" points="176 104 180 104 180 102 176 102"/>
    <polygon fill="#48515A" points="6 64 8 64 8 60 6 60"/>
    <polygon fill="#48515A" points="6 74 8 74 8 70 6 70"/>
    <g transform="translate(0 66)">
      <mask id="cc452-f" fill="#fff">
        <use xlink:href="#cc452-e"/>
      </mask>
      <polygon fill="#48515A" points="10 2 14 2 14 0 10 0" mask="url(#cc452-f)"/>
      <polygon fill="#48515A" points=".06 2 4 2 4 0 .06 0" mask="url(#cc452-f)"/>
    </g>
    <polygon fill="#48515A" points="90 4 92 4 92 0 90 0"/>
    <polygon fill="#48515A" points="90 14 92 14 92 10 90 10"/>
    <polygon fill="#48515A" points="94 8 98 8 98 6 94 6"/>
    <polygon fill="#48515A" points="84 8 88 8 88 6 84 6"/>
    <path fill="#5FE0ED" d="M16.438 45.125C17.784 45.125 18.875 46.216 18.875 47.562 18.875 48.909 17.784 50 16.438 50 15.091 50 14 48.909 14 47.562 14 46.216 15.091 45.125 16.438 45.125M141.562 122C142.909 122 144 123.091 144 124.438 144 125.784 142.909 126.875 141.562 126.875 140.216 126.875 139.125 125.784 139.125 124.438 139.125 123.091 140.216 122 141.562 122"/>
    <path fill="#FFD15D" d="M121.562 25.438C122.115 25.438 122.562 25.885 122.562 26.438 122.562 26.99 122.115 27.438 121.562 27.438 121.01 27.438 120.562 26.99 120.562 26.438 120.562 25.885 121.01 25.438 121.562 25.438M169 71C170.105 71 171 71.895 171 73 171 74.105 170.105 75 169 75 167.895 75 167 74.105 167 73 167 71.895 167.895 71 169 71"/>
    <path fill="#DEDEDD" d="M47.443,6.321 L49.348,2 L54.23,2 L56.135,6.321 L58.864,7.897 L63.559,7.386 C64.718,9.394 64.84,9.606 66,11.614 L63.211,15.424 L63.211,18.576 L66,22.386 C64.84,24.394 64.718,24.606 63.559,26.614 L58.864,26.103 L56.135,27.679 L54.23,32 L49.348,32 L47.443,27.679 L44.714,26.103 L40.019,26.614 C38.86,24.606 38.738,24.394 37.578,22.386 L40.368,18.576 L40.368,15.424 L37.578,11.614 C38.738,9.606 38.86,9.394 40.019,7.386 L44.714,7.897 L47.443,6.321"/>
    <path fill="#475059" d="M51.789,15 C50.685,15 49.789,15.895 49.789,17 C49.789,18.105 50.685,19 51.789,19 C52.894,19 53.789,18.105 53.789,17 C53.788,15.896 52.893,15.001 51.789,15 Z M51.789,21 C49.58,21 47.789,19.209 47.789,17 C47.789,14.791 49.58,13 51.789,13 C53.998,13 55.789,14.791 55.789,17 C55.787,19.208 53.997,20.998 51.789,21 Z"/>
    <path fill="#475059" d="M51.789,11 C48.475,11 45.789,13.686 45.789,17 C45.789,20.314 48.475,23 51.789,23 C55.103,23 57.789,20.314 57.789,17 C57.785,13.688 55.101,11.004 51.789,11 Z M51.789,25 C47.371,25 43.789,21.418 43.789,17 C43.789,12.582 47.371,9 51.789,9 C56.207,9 59.789,12.582 59.789,17 C59.784,21.416 56.205,24.995 51.789,25 Z"/>
  </g>
</svg>
