<svg xmlns="http://www.w3.org/2000/svg" width="193" height="159" viewBox="0 0 193 159">
  <g fill="none" fill-rule="evenodd">
    <path fill="#5FE0ED" d="M168.06,30.933 L129.464,30.933 C129.645,31.094 129.84,31.24 130.046,31.366 C131.297,32.085 132.076,33.411 132.095,34.853 C132.093,37.067 130.297,38.859 128.083,38.857 C127.375,38.856 126.679,38.667 126.067,38.31 C123.294,36.696 121.281,34.039 120.478,30.933 L57.421,30.933 C57.601,31.094 57.796,31.24 58.003,31.366 C59.254,32.085 60.033,33.411 60.052,34.853 C60.05,37.067 58.254,38.859 56.04,38.857 C55.331,38.856 54.636,38.667 54.024,38.31 C51.251,36.696 49.238,34.039 48.434,30.933 L26.06,30.933 C25.508,30.933 25.061,31.381 25.06,31.933 L25.06,119.933 C25.061,120.485 25.508,120.932 26.06,120.933 L48.345,120.933 C48.161,107.928 40.285,92.611 36.309,84.913 C30.181,73.669 32.727,59.673 42.422,51.306 C47.599,46.806 54.232,44.335 61.092,44.351 C67.952,44.335 74.585,46.806 79.762,51.306 C80.123,51.619 80.471,51.942 80.812,52.271 C83.575,54.812 85.798,57.884 87.346,61.303 C89.616,66.403 89.687,72.212 87.541,77.365 C86.456,80.004 86.778,83.012 88.397,85.361 L91.744,90.195 C92.226,90.773 92.148,91.632 91.57,92.113 C91.439,92.222 91.29,92.305 91.129,92.359 L88.644,93.187 C88.041,93.388 87.635,93.952 87.635,94.587 C87.616,95.244 87.861,95.88 88.316,96.355 L88.316,97.12 C88.316,97.863 87.696,98.205 86.897,98.216 C86.942,98.755 86.944,99.296 86.903,99.835 C86.601,100.876 85.421,101.026 85.418,101.9 C85.415,102.537 85.412,104.092 85.41,105.086 C85.405,107.148 83.733,108.818 81.671,108.821 L74.363,108.821 C72.734,108.821 71.413,110.142 71.413,111.771 L72.525,120.933 L168.06,120.933 C168.612,120.932 169.06,120.485 169.06,119.933 L169.06,31.933 C169.06,31.381 168.612,30.933 168.06,30.933"/>
    <path fill="#DEDEDD" d="M132.095,36.932 C127.125,36.932 123.095,32.902 123.095,27.932 C123.095,22.961 127.125,18.932 132.095,18.932 C137.066,18.932 141.095,22.961 141.095,27.932 L139.095,27.932 C139.095,24.066 135.961,20.932 132.095,20.932 C128.229,20.932 125.095,24.066 125.095,27.932 C125.095,31.798 128.229,34.932 132.095,34.932 L132.095,36.932"/>
    <path fill="#48515A" d="M128.087,39.864 C127.2,39.862 126.329,39.624 125.564,39.175 C119.356,35.567 117.248,27.61 120.855,21.402 C123.092,17.553 127.142,15.116 131.59,14.942 C138.763,14.662 144.805,20.25 145.085,27.423 C145.092,27.593 145.095,27.762 145.095,27.932 L143.095,27.932 C143.096,21.857 138.171,16.932 132.097,16.932 C131.953,16.932 131.81,16.935 131.667,16.941 C125.964,17.245 121.408,21.8 121.103,27.503 C120.944,31.574 123.047,35.4 126.57,37.446 C128.005,38.284 129.847,37.8 130.685,36.365 C130.953,35.907 131.094,35.385 131.095,34.854 C131.077,33.762 130.483,32.762 129.533,32.224 C127.66,31.099 126.729,28.892 127.229,26.766 C127.658,24.93 129.091,23.496 130.926,23.066 C132.423,22.713 133.999,23.064 135.205,24.019 C136.401,24.964 137.098,26.407 137.095,27.932 L135.095,27.932 C135.098,26.274 133.756,24.928 132.098,24.926 C130.44,24.924 129.094,26.266 129.092,27.923 C129.09,28.984 129.649,29.966 130.56,30.508 C132.116,31.404 133.081,33.058 133.095,34.854 C133.106,36.646 132.147,38.304 130.587,39.189 C129.828,39.629 128.966,39.862 128.087,39.864"/>
    <path fill="#DEDEDD" d="M60.052,36.932 C55.082,36.932 51.052,32.902 51.052,27.932 C51.052,22.961 55.082,18.932 60.052,18.932 C65.023,18.932 69.052,22.961 69.052,27.932 L67.052,27.932 C67.052,24.066 63.918,20.932 60.052,20.932 C56.186,20.932 53.052,24.066 53.052,27.932 C53.052,31.798 56.186,34.932 60.052,34.932 L60.052,36.932"/>
    <path fill="#48515A" d="M56.044,39.864 C55.157,39.862 54.286,39.624 53.521,39.175 C47.313,35.568 45.204,27.61 48.812,21.402 C51.048,17.553 55.098,15.116 59.547,14.942 C66.721,14.663 72.763,20.252 73.042,27.426 C73.049,27.595 73.052,27.763 73.052,27.932 L71.052,27.932 C71.052,21.857 66.127,16.932 60.052,16.932 C59.909,16.932 59.766,16.935 59.623,16.941 C53.92,17.245 49.365,21.8 49.061,27.503 C48.901,31.574 51.004,35.4 54.527,37.446 C55.962,38.284 57.804,37.8 58.642,36.365 C58.91,35.907 59.051,35.385 59.052,34.854 C59.034,33.762 58.44,32.762 57.49,32.224 C55.617,31.099 54.686,28.892 55.186,26.766 C55.615,24.93 57.047,23.496 58.883,23.066 C60.38,22.712 61.956,23.063 63.162,24.019 C64.358,24.964 65.055,26.407 65.052,27.932 L63.052,27.932 C63.055,26.274 61.712,24.928 60.055,24.926 C58.397,24.924 57.051,26.266 57.049,27.923 C57.048,28.984 57.606,29.966 58.517,30.508 C60.073,31.405 61.037,33.058 61.052,34.854 C61.063,36.646 60.104,38.304 58.544,39.189 C57.785,39.629 56.922,39.862 56.044,39.864"/>
    <polygon fill="#48515A" points="109.726 28.933 116.893 28.933 116.893 26.933 109.726 26.933"/>
    <polygon fill="#48515A" points="59.728 28.933 81.062 28.933 81.062 26.933 59.728 26.933"/>
    <path fill="#48515A" d="M168.06,124.933 L26.06,124.933 C23.3,124.929 21.063,122.693 21.06,119.933 L21.06,31.933 C21.063,29.173 23.3,26.936 26.06,26.933 L45.229,26.933 L45.229,28.933 L26.06,28.933 C24.404,28.935 23.062,30.277 23.06,31.933 L23.06,119.933 C23.062,121.589 24.404,122.931 26.06,122.933 L168.06,122.933 C169.716,122.931 171.058,121.589 171.06,119.933 L171.06,31.933 C171.058,30.277 169.716,28.935 168.06,28.933 L131.893,28.933 L131.893,26.933 L168.06,26.933 C170.82,26.936 173.057,29.173 173.06,31.933 L173.06,119.933 C173.057,122.693 170.82,124.929 168.06,124.933"/>
    <polygon fill="#48515A" points="106.06 64.933 154.06 64.933 154.06 62.933 106.06 62.933"/>
    <polygon fill="#48515A" points="106.06 68.933 154.06 68.933 154.06 66.933 106.06 66.933"/>
    <polygon fill="#48515A" points="106.06 72.933 130.06 72.933 130.06 70.933 106.06 70.933"/>
    <polygon fill="#48515A" points="106.06 84.933 154.06 84.933 154.06 82.933 106.06 82.933"/>
    <polygon fill="#48515A" points="106.06 88.933 154.06 88.933 154.06 86.933 106.06 86.933"/>
    <path fill="#48515A" d="M168.06,132.938 L26.06,132.938 C23.3,132.934 21.063,130.698 21.06,127.938 L21.06,109.98 L23.06,109.98 L23.06,127.938 C23.062,129.594 24.404,130.936 26.06,130.938 L168.06,130.938 C169.716,130.936 171.058,129.594 171.06,127.938 L171.06,109.98 L173.06,109.98 L173.06,127.938 C173.057,130.698 170.82,132.934 168.06,132.938"/>
    <path fill="#48515A" d="M168.06,128.935 L26.06,128.935 C23.3,128.931 21.063,126.695 21.06,123.935 L21.06,105.977 L23.06,105.977 L23.06,123.935 C23.062,125.591 24.404,126.933 26.06,126.935 L168.06,126.935 C169.716,126.933 171.058,125.591 171.06,123.935 L171.06,105.977 L173.06,105.977 L173.06,123.935 C173.057,126.695 170.82,128.931 168.06,128.935"/>
    <polygon fill="#48515A" points="164.095 4.919 166.095 4.919 166.095 .919 164.095 .919"/>
    <polygon fill="#48515A" points="164.095 14.919 166.095 14.919 166.095 10.919 164.095 10.919"/>
    <polygon fill="#48515A" points="168.095 8.919 172.095 8.919 172.095 6.919 168.095 6.919"/>
    <polygon fill="#48515A" points="158.095 8.919 162.095 8.919 162.095 6.919 158.095 6.919"/>
    <polygon fill="#48515A" points="6 125.991 8 125.991 8 121.991 6 121.991"/>
    <polygon fill="#48515A" points="6 135.991 8 135.991 8 131.991 6 131.991"/>
    <polygon fill="#48515A" points="10 129.991 14 129.991 14 127.991 10 127.991"/>
    <polygon fill="#48515A" points="0 129.991 4 129.991 4 127.991 0 127.991"/>
    <polygon fill="#48515A" points="184.135 136.004 186.135 136.004 186.135 132.004 184.135 132.004"/>
    <polygon fill="#48515A" points="184.135 146.004 186.135 146.004 186.135 142.004 184.135 142.004"/>
    <polygon fill="#48515A" points="188.135 140.004 192.135 140.004 192.135 138.004 188.135 138.004"/>
    <polygon fill="#48515A" points="178.135 140.004 182.135 140.004 182.135 138.004 178.135 138.004"/>
    <path fill="#48515A" d="M83.092,141.078 C81.479,141.035 80.136,142.307 80.093,143.92 C80.092,143.941 80.092,143.961 80.092,143.982 C80.06,145.66 81.394,147.046 83.072,147.078 C83.079,147.078 83.085,147.078 83.092,147.078 L150.273,147.078 L156.78,144.078 L150.273,141.078 L83.092,141.078 Z M150.712,149.078 L83.092,149.078 C80.319,149.062 78.082,146.804 78.092,144.03 C78.068,141.319 80.247,139.101 82.958,139.078 C83.003,139.077 83.047,139.077 83.092,139.078 L150.712,139.078 L161.555,144.078 L150.712,149.078 Z"/>
    <polygon fill="#48515A" points="89.068 148.078 91.068 148.078 91.068 140.078 89.068 140.078"/>
    <polygon fill="#48515A" points="90.068 145.078 150.069 145.078 150.069 143.078 90.068 143.078"/>
    <polyline fill="#DEDEDD" points="72.963 141.39 44.963 129.39 57.19 159 62.024 149.279 69.104 156.36 72.027 153.626 64.731 146.329 72.963 141.39"/>
    <polyline fill="#FFF" points="62.957 131.384 34.957 119.384 47.184 148.994 52.018 139.273 60.128 147.384 62.957 144.556 54.725 136.323 62.957 131.384"/>
    <path fill="#48515A" d="M36.817,121.27 L47.269,146.578 L51.741,137.583 L60.128,145.97 L61.543,144.556 L53.112,136.125 L60.766,131.532 L36.817,121.27 Z M47.1,151.41 L33.097,117.498 L65.148,131.235 L56.337,136.522 L64.371,144.556 L60.128,148.798 L52.294,140.964 L47.1,151.41 Z"/>
    <path fill="#475059" d="M94.009,41.916 L97.586,41.916 L99.361,37.892 L102.657,35.99 L107.028,36.465 L108.817,33.366 L106.219,29.818 L106.219,26.013 L108.817,22.465 L107.028,19.366 L102.657,19.842 L99.361,17.939 L97.586,13.916 L94.009,13.916 L92.235,17.939 L88.939,19.842 L84.568,19.366 L82.779,22.465 L85.376,26.013 L85.376,29.818 L82.779,33.366 L84.568,36.465 L88.939,35.99 L92.235,37.892 L94.009,41.916 Z M98.891,43.916 L92.706,43.916 L90.669,39.298 L88.506,38.049 L83.488,38.594 L80.396,33.237 L83.376,29.164 L83.376,26.667 L80.396,22.594 L83.488,17.237 L88.506,17.783 L90.669,16.534 L92.706,11.916 L98.891,11.916 L100.927,16.534 L103.09,17.783 L108.108,17.237 L111.202,22.594 L108.219,26.667 L108.219,29.164 L111.202,33.237 L108.108,38.594 L103.09,38.049 L100.927,39.298 L98.891,43.916 Z"/>
    <path fill="#475059" d="M95.798,25.916 C94.694,25.916 93.798,26.812 93.798,27.916 C93.798,29.021 94.694,29.916 95.798,29.916 C96.903,29.916 97.798,29.021 97.798,27.916 C97.797,26.812 96.902,25.917 95.798,25.916 Z M95.798,31.916 C93.589,31.916 91.798,30.125 91.798,27.916 C91.798,25.707 93.589,23.916 95.798,23.916 C98.007,23.916 99.798,25.707 99.798,27.916 C99.796,30.124 98.007,31.914 95.798,31.916 Z"/>
    <path fill="#475059" d="M95.798,21.916 C92.485,21.916 89.798,24.602 89.798,27.916 C89.798,31.23 92.485,33.916 95.798,33.916 C99.112,33.916 101.798,31.23 101.798,27.916 C101.795,24.604 99.11,21.92 95.798,21.916 Z M95.798,35.916 C91.38,35.916 87.798,32.334 87.798,27.916 C87.798,23.498 91.38,19.916 95.798,19.916 C100.217,19.916 103.798,23.498 103.798,27.916 C103.793,32.332 100.215,35.911 95.798,35.916 Z"/>
    <path fill="#F58E70" d="M80.031,4.937 C81.136,4.937 82.031,5.832 82.031,6.937 C82.031,8.041 81.136,8.937 80.031,8.937 C78.927,8.937 78.031,8.041 78.031,6.937 C78.031,5.832 78.927,4.937 80.031,4.937"/>
    <path fill="#5FE0ED" d="M12.059,85.915 C14.268,85.915 16.059,87.706 16.059,89.915 C16.059,92.124 14.268,93.915 12.059,93.915 C9.85,93.915 8.059,92.124 8.059,89.915 C8.059,87.706 9.85,85.915 12.059,85.915"/>
    <path fill="#FFD15D" d="M180.091,115.003 C181.196,115.003 182.091,115.898 182.091,117.003 C182.091,118.107 181.196,119.003 180.091,119.003 C178.987,119.003 178.091,118.107 178.091,117.003 C178.091,115.898 178.987,115.003 180.091,115.003"/>
  </g>
</svg>
