<svg xmlns="http://www.w3.org/2000/svg" xmlns:xlink="http://www.w3.org/1999/xlink" width="193" height="179" viewBox="0 0 193 179">
  <defs>
    <polygon id="cc457-a" points=".06 .999 8.06 .999 8.06 72.94 .06 72.94"/>
  </defs>
  <g fill="none" fill-rule="evenodd">
    <path fill="#DEDEDD" d="M126.635,29.493 L115.049,29.493 L115.049,40.367 C118.188,36.042 122.12,32.352 126.635,29.493"/>
    <polyline fill="#475059" points="113.049 40.492 111.049 40.492 111.049 25.494 125.046 25.494 125.046 27.494 113.049 27.494 113.049 40.492"/>
    <path fill="#F58E70" d="M117.144,37.712 L78.049,3.504 L12.074,61.232 L16.049,65.493 L78.049,11.477 L113.622,42.468 C114.683,40.802 115.86,39.213 117.144,37.712"/>
    <path fill="#DEDEDD" d="M93.046,151.998 L109.046,151.998 L109.046,140.469 C108.185,141.129 107.132,141.489 106.047,141.493 C103.285,141.493 101.047,139.255 101.047,136.493 C101.047,133.732 103.285,131.493 106.047,131.493 C107.132,131.497 108.185,131.857 109.046,132.518 L109.046,117.493 L93.046,117.493 L93.046,151.998"/>
    <path fill="#5FE0ED" d="M38.036 134.523L44.036 134.523C47.35 134.523 50.036 131.837 50.036 128.523L50.036 114.523 38.036 114.523 38.036 134.523M72.049 134.523L66.049 134.523C62.736 134.523 60.049 131.837 60.049 128.523L60.049 114.523 72.049 114.523 72.049 134.523M84.064 84.493L90.064 84.493C93.377 84.493 96.064 81.807 96.064 78.493L96.064 64.493 84.064 64.493 84.064 84.493M38.036 84.493L44.036 84.493C47.35 84.493 50.036 81.807 50.036 78.493L50.036 64.493 38.036 64.493 38.036 84.493M72.049 84.493L66.049 84.493C62.736 84.493 60.049 81.807 60.049 78.493L60.049 64.493 72.049 64.493 72.049 84.493"/>
    <polygon fill="#475059" points="25.049 98.254 27.049 98.254 27.049 56.963 25.049 56.963"/>
    <polygon fill="#475059" points="25.049 154.494 27.049 154.494 27.049 102.376 25.049 102.376"/>
    <polyline fill="#475059" points="113.046 154.494 111.046 154.494 111.046 115.494 91.046 115.494 91.046 154.494 89.046 154.494 89.046 113.494 113.046 113.494 113.046 154.494"/>
    <polygon fill="#475059" points="129.049 155.024 131.049 155.024 131.049 106.999 129.049 106.999"/>
    <polyline fill="#475059" points="16.699 66.254 15.399 64.734 78.049 11.179 114.023 41.93 112.724 43.449 78.049 13.81 16.699 66.254"/>
    <path fill="#475059" d="M39.049,87.494 L71.049,87.494 L71.049,65.494 L39.049,65.494 L39.049,87.494 Z M37.049,89.494 L73.049,89.494 L73.049,63.494 L37.049,63.494 L37.049,89.494 Z"/>
    <polyline fill="#475059" points="109.436 89.494 83.049 89.494 83.049 63.494 103.935 63.494 103.935 65.494 85.049 65.494 85.049 87.494 109.436 87.494 109.436 89.494"/>
    <path fill="#475059" d="M39.049 137.494L71.049 137.494 71.049 115.494 39.049 115.494 39.049 137.494zM37.049 139.494L73.049 139.494 73.049 113.494 37.049 113.494 37.049 139.494zM106.047 135.494C105.495 135.494 105.047 135.941 105.047 136.494 105.047 137.046 105.495 137.494 106.047 137.494 106.599 137.494 107.047 137.046 107.047 136.494 107.046 135.942 106.599 135.494 106.047 135.494zM106.047 139.494C104.39 139.494 103.047 138.151 103.047 136.494 103.047 134.837 104.39 133.494 106.047 133.494 107.704 133.494 109.047 134.837 109.047 136.494 109.045 138.15 107.703 139.492 106.047 139.494z"/>
    <polyline fill="#475059" points="120.06 103.002 22.04 103.002 22.04 97 118.06 97 118.06 99 24.04 99 24.04 101.002 120.06 101.002 120.06 103.002"/>
    <polygon fill="#48515A" points="184.107 139.026 186.107 139.026 186.107 135.026 184.107 135.026"/>
    <polygon fill="#48515A" points="184.107 149.026 186.107 149.026 186.107 145.026 184.107 145.026"/>
    <polygon fill="#48515A" points="188.107 143.026 192.107 143.026 192.107 141.026 188.107 141.026"/>
    <polygon fill="#48515A" points="178.107 143.026 182.107 143.026 182.107 141.026 178.107 141.026"/>
    <polygon fill="#48515A" points="137.079 4.982 139.079 4.982 139.079 .982 137.079 .982"/>
    <polygon fill="#48515A" points="137.079 14.982 139.079 14.982 139.079 10.982 137.079 10.982"/>
    <polygon fill="#48515A" points="141.079 8.982 145.079 8.982 145.079 6.982 141.079 6.982"/>
    <polygon fill="#48515A" points="131.079 8.982 135.079 8.982 135.079 6.982 131.079 6.982"/>
    <polygon fill="#48515A" points="6 83.029 8 83.029 8 79.029 6 79.029"/>
    <polygon fill="#48515A" points="6 93.029 8 93.029 8 89.029 6 89.029"/>
    <polygon fill="#48515A" points="10 87.029 14 87.029 14 85.029 10 85.029"/>
    <polygon fill="#48515A" points="0 87.029 4 87.029 4 85.029 0 85.029"/>
    <path fill="#F58E70" d="M110.049,2.999 C111.154,2.999 112.049,3.894 112.049,4.999 C112.049,6.103 111.154,6.999 110.049,6.999 C108.945,6.999 108.049,6.103 108.049,4.999 C108.049,3.894 108.945,2.999 110.049,2.999"/>
    <path fill="#5FE0ED" d="M14.06,120.999 C16.269,120.999 18.06,122.789 18.06,124.999 C18.06,127.208 16.269,128.999 14.06,128.999 C11.851,128.999 10.06,127.208 10.06,124.999 C10.06,122.789 11.851,120.999 14.06,120.999"/>
    <path fill="#DEDEDD" d="M30.061,24.969 C31.166,24.969 32.061,25.864 32.061,26.969 C32.061,28.073 31.166,28.969 30.061,28.969 C28.957,28.969 28.061,28.073 28.061,26.969 C28.061,25.864 28.957,24.969 30.061,24.969"/>
    <polygon fill="#48515A" points="152.559 155.999 192.004 155.999 192.004 153.999 152.559 153.999"/>
    <polygon fill="#48515A" points=".004 155.999 146.314 155.999 146.314 153.999 .004 153.999"/>
    <polyline fill="#DEDEDD" points=".004 157.841 .004 172.999 192.004 173.229 192.004 158.071 .004 157.841"/>
    <path fill="#48515A" d="M16.062,38.047 C14.45,38.004 13.107,39.275 13.063,40.887 C13.063,40.908 13.063,40.929 13.063,40.95 C13.03,42.628 14.365,44.015 16.044,44.047 C16.05,44.047 16.056,44.047 16.062,44.047 L83.244,44.047 L89.75,41.047 L83.244,38.047 L16.062,38.047 Z M83.683,46.047 L16.062,46.047 C13.289,46.031 11.052,43.772 11.063,40.999 C11.039,38.287 13.218,36.07 15.929,36.047 C15.974,36.046 16.018,36.047 16.062,36.047 L83.683,36.047 L94.526,41.047 L83.683,46.047 Z"/>
    <polygon fill="#48515A" points="22.039 45.047 24.039 45.047 24.039 37.047 22.039 37.047"/>
    <polygon fill="#48515A" points="23.039 42.047 83.039 42.047 83.039 40.047 23.039 40.047"/>
    <polygon fill="#DEDEDD" points="147.059 114.999 151.059 114.999 151.059 106.999 147.059 106.999"/>
    <path fill="#DEDEDD" d="M149.059,25.999 C147.386,26.002 145.715,26.113 144.056,26.33 C165.412,29.087 180.49,48.635 177.733,69.991 C175.464,87.564 161.63,101.398 144.056,103.667 C165.415,106.432 184.971,91.36 187.737,70.002 C190.502,48.643 175.43,29.087 154.071,26.321 C152.409,26.106 150.735,25.998 149.059,25.999"/>
    <path fill="#48515A" d="M149.06,23.999 C126.416,23.999 108.06,42.355 108.06,64.999 C108.06,87.642 126.416,105.999 149.06,105.999 C171.703,105.999 190.06,87.642 190.06,64.999 C190.034,42.366 171.693,24.024 149.06,23.999 Z M149.06,107.999 C125.311,107.999 106.06,88.747 106.06,64.999 C106.06,41.25 125.311,21.999 149.06,21.999 C172.808,21.999 192.06,41.25 192.06,64.999 C192.033,88.736 172.797,107.972 149.06,107.999 Z"/>
    <polygon fill="#48515A" points="150.06 131.027 152.06 131.027 152.06 106.999 150.06 106.999"/>
    <g transform="translate(145 106)">
      <mask id="cc457-b" fill="#fff">
        <use xlink:href="#cc457-a"/>
      </mask>
      <polygon fill="#48515A" points="1.06 25.027 3.06 25.027 3.06 .999 1.06 .999" mask="url(#cc457-b)"/>
      <path fill="#48515A" d="M2.06,26.027 L2.06,69 C2.06,70.104 2.955,71 4.06,71 C5.164,71 6.06,70.104 6.06,69 L6.06,26.027 L2.06,26.027 Z M4.06,73 C1.851,72.997 0.062,71.208 0.06,69 L0.06,24.027 L8.06,24.027 L8.06,69 C8.057,71.208 6.268,72.997 4.06,73 Z" mask="url(#cc457-b)"/>
    </g>
    <path fill="#48515A" d="M149.06,27.999 C128.625,27.999 112.06,44.564 112.06,64.999 C112.06,85.433 128.625,101.999 149.06,101.999 C169.494,101.999 186.06,85.433 186.06,64.999 C186.037,44.574 169.485,28.021 149.06,27.999 Z M149.06,103.999 C127.52,103.999 110.06,86.538 110.06,64.999 C110.06,43.46 127.52,25.999 149.06,25.999 C170.599,25.999 188.06,43.46 188.06,64.999 C188.035,86.528 170.589,103.974 149.06,103.999 Z"/>
    <path fill="#48515A" d="M153.311,77.929 L142.193,77.929 C139.213,77.917 136.806,75.494 136.813,72.514 L138.813,72.514 C138.805,74.39 140.317,75.917 142.193,75.929 L153.311,75.929 C155.536,75.918 157.333,74.107 157.327,71.881 L157.327,69.981 C157.324,67.764 155.527,65.968 153.311,65.965 L142.349,65.965 C139.027,65.962 136.336,63.27 136.333,59.949 L136.333,58.047 C136.336,54.725 139.027,52.034 142.349,52.03 L154.131,52.03 C156.635,52.033 158.663,54.062 158.666,56.565 L156.666,56.565 C156.664,55.166 155.531,54.032 154.131,54.03 L142.349,54.03 C140.132,54.033 138.335,55.829 138.333,58.047 L138.333,59.949 C138.335,62.166 140.132,63.963 142.349,63.965 L153.311,63.965 C156.632,63.969 159.323,66.66 159.327,69.981 L159.327,71.881 C159.332,75.211 156.64,77.917 153.311,77.929"/>
    <polygon fill="#48515A" points="147.39 82.981 149.39 82.981 149.39 46.981 147.39 46.981"/>
    <polyline fill="#DEDEDD" points="188.017 116.452 160.017 104.452 172.244 134.062 177.078 124.342 184.158 131.422 187.081 128.688 179.785 121.392 188.017 116.452"/>
    <polyline fill="#FFF" points="178.011 106.446 150.011 94.446 162.238 124.056 167.072 114.336 175.182 122.446 178.011 119.618 169.779 111.386 178.011 106.446"/>
    <path fill="#48515A" d="M151.871,96.333 L162.323,121.64 L166.795,112.645 L175.183,121.033 L176.597,119.618 L168.166,111.187 L175.819,106.595 L151.871,96.333 Z M162.154,126.472 L148.15,92.561 L180.203,106.298 L171.392,111.584 L179.425,119.618 L175.183,123.861 L167.348,116.026 L162.154,126.472 Z"/>
  </g>
</svg>
