<svg xmlns="http://www.w3.org/2000/svg" width="192" height="188" viewBox="0 0 192 188">
  <g fill="none" fill-rule="evenodd">
    <polygon fill="#DEDEDD" points="103.923 150.992 105.923 150.992 105.923 74 103.923 74"/>
    <polygon fill="#DEDEDD" points="131.922 150.992 133.922 150.992 133.922 74 131.922 74"/>
    <polygon fill="#DEDEDD" points="61.922 150.992 63.922 150.992 63.922 74 61.922 74"/>
    <polygon fill="#DEDEDD" points="75.922 150.992 77.922 150.992 77.922 74 75.922 74"/>
    <polygon fill="#DEDEDD" points="89.922 150.992 91.922 150.992 91.922 74 89.922 74"/>
    <polygon fill="#DEDEDD" points="117.922 150.992 119.922 150.992 119.922 74 117.922 74"/>
    <polygon fill="#DEDEDD" points="145.922 150.992 147.922 150.992 147.922 74 145.922 74"/>
    <polygon fill="#DEDEDD" points="159.925 150.992 161.925 150.992 161.925 74 159.925 74"/>
    <polygon fill="#DEDEDD" points="52.929 133.99 163.922 133.99 163.922 131.99 52.929 131.99"/>
    <polygon fill="#DEDEDD" points="48.426 118.99 165.421 118.99 165.421 116.99 48.426 116.99"/>
    <polygon fill="#DEDEDD" points="45.426 103.99 166.922 103.99 166.922 101.99 45.426 101.99"/>
    <polygon fill="#DEDEDD" points="41.42 88.99 166.922 88.99 166.922 86.99 41.42 86.99"/>
    <polygon fill="#DEDEDD" points="47.921 120.473 49.921 120.473 49.921 74 47.921 74"/>
    <polyline fill="#DEDEDD" points="158.922 25.982 154.922 19.979 154.922 13.982 158.922 13.982 158.922 25.982"/>
    <path fill="#48515A" d="M56.714,149.992 L161.972,149.992 L165.866,75.007 L39.184,75.007 L56.714,149.992 Z M163.87,151.992 L55.128,151.992 L36.663,73.007 L167.974,73.007 L163.87,151.992 Z"/>
    <path fill="#48515A" d="M154.301,176.001 L59.934,176.001 C56.065,176.001 52.929,172.865 52.929,168.996 C52.929,165.128 56.065,161.992 59.934,161.992 L148.922,161.992 C151.683,161.992 153.922,159.753 153.922,156.992 C153.922,154.23 151.683,151.992 148.922,151.992 L118.922,151.992 L118.922,149.992 L148.922,149.992 C152.788,149.992 155.922,153.126 155.922,156.992 C155.922,160.858 152.788,163.992 148.922,163.992 L59.934,163.992 C57.17,163.992 54.929,166.232 54.929,168.996 C54.929,171.76 57.17,174.001 59.934,174.001 L154.301,174.001 L154.301,176.001"/>
    <path fill="#48515A" d="M154.922,176 C152.16,176 149.922,178.238 149.922,181 C149.922,183.761 152.16,186 154.922,186 C157.683,186 159.922,183.761 159.922,181 C159.919,178.24 157.682,176.003 154.922,176 Z M154.922,188 C151.056,188 147.922,184.866 147.922,181 C147.922,177.134 151.056,174 154.922,174 C158.788,174 161.922,177.134 161.922,181 C161.917,184.864 158.786,187.995 154.922,188 Z"/>
    <polygon fill="#48515A" points="26.924 75 38.924 75 38.924 73 26.924 73"/>
    <path fill="#48515A" d="M21.924 69.999C19.715 69.999 17.924 71.79 17.924 73.999 17.924 76.208 19.715 77.999 21.924 77.999 24.133 77.999 25.924 76.208 25.924 73.999 25.922 71.791 24.132 70.001 21.924 69.999zM21.924 79.999C18.611 79.999 15.924 77.312 15.924 73.999 15.924 70.685 18.611 67.999 21.924 67.999 25.238 67.999 27.924 70.685 27.924 73.999 27.921 77.311 25.236 79.995 21.924 79.999zM64.868 176C62.107 176 59.868 178.238 59.868 181 59.868 183.761 62.107 186 64.868 186 67.63 186 69.868 183.761 69.868 181 69.865 178.24 67.628 176.003 64.868 176zM64.868 188C61.002 188 57.868 184.866 57.868 181 57.868 177.134 61.002 174 64.868 174 68.734 174 71.868 177.134 71.868 181 71.864 184.864 68.732 187.995 64.868 188z"/>
    <polygon fill="#48515A" points="6 90.996 8 90.996 8 86.996 6 86.996"/>
    <polygon fill="#48515A" points="6 100.996 8 100.996 8 96.996 6 96.996"/>
    <polygon fill="#48515A" points="10 94.996 14 94.996 14 92.996 10 92.996"/>
    <polygon fill="#48515A" points="0 94.996 4 94.996 4 92.996 0 92.996"/>
    <polygon fill="#48515A" points="183.982 51.001 185.982 51.001 185.982 47.001 183.982 47.001"/>
    <polygon fill="#48515A" points="183.982 61.001 185.982 61.001 185.982 57.001 183.982 57.001"/>
    <polygon fill="#48515A" points="187.982 55.001 191.982 55.001 191.982 53.001 187.982 53.001"/>
    <polygon fill="#48515A" points="177.982 55.001 181.982 55.001 181.982 53.001 177.982 53.001"/>
    <polygon fill="#48515A" points="183.926 140.015 185.926 140.015 185.926 136.015 183.926 136.015"/>
    <polygon fill="#48515A" points="183.926 150.015 185.926 150.015 185.926 146.015 183.926 146.015"/>
    <polygon fill="#48515A" points="187.926 144.015 191.926 144.015 191.926 142.015 187.926 142.015"/>
    <polygon fill="#48515A" points="177.926 144.015 181.926 144.015 181.926 142.015 177.926 142.015"/>
    <polyline fill="#FFD15D" points="32.971 105.924 42.971 117.927 32.971 129.929 9.965 129.929 9.965 105.924 32.971 105.924"/>
    <path fill="#5FE0ED" d="M127.873,55.505 L127.899,64.703 C128.449,65.217 129.174,65.504 129.928,65.505 L132.928,65.505 L132.928,55.505 L127.873,55.505"/>
    <polyline fill="#475059" points="162.928 28.534 160.928 28.534 160.928 11.983 152.927 11.983 152.927 18.49 150.927 18.49 150.927 9.983 162.928 9.983 162.928 28.534"/>
    <path fill="#5FE0ED" d="M138.935 41.186L141.935 41.186C143.592 41.186 144.935 39.843 144.935 38.186L144.935 31.186 138.935 31.186 138.935 41.186M155.942 41.186L152.942 41.186C151.285 41.186 149.942 39.843 149.942 38.186L149.942 31.186 155.942 31.186 155.942 41.186"/>
    <polyline fill="#475059" points="153.926 74.185 151.926 74.185 151.926 56.49 142.926 56.49 142.926 74.185 140.926 74.185 140.926 54.49 153.926 54.49 153.926 74.185"/>
    <polygon fill="#475059" points="160.928 74.258 162.928 74.258 162.928 28.238 160.928 28.238"/>
    <path fill="#475059" d="M139.928,42.186 L154.928,42.186 L154.928,32.186 L139.928,32.186 L139.928,42.186 Z M137.928,44.186 L156.928,44.186 L156.928,30.186 L137.928,30.186 L137.928,44.186 Z"/>
    <polyline fill="#F58E70" points="135.928 .996 125.84 9.823 126.791 12.943 135.928 4.982 166.928 31.991 168.916 29.86 135.928 .996"/>
    <polygon fill="#475059" points="147.897 68.185 149.897 68.185 149.897 66.185 147.897 66.185"/>
    <polygon fill="#475059" points="127.911 50.186 164.897 50.186 164.897 48.186 127.911 48.186"/>
    <path fill="#5FE0ED" d="M130.922,31.186 L130.922,38.143 L127.824,38.143 L127.83,40.327 C128.389,40.878 129.143,41.186 129.928,41.186 L132.928,41.186 L132.928,31.186 L130.922,31.186"/>
    <polyline fill="#475059" points="133.928 44.186 127.838 44.186 127.838 42.186 131.928 42.186 131.928 32.186 130.923 32.186 130.923 30.186 133.928 30.186 133.928 44.186"/>
    <polyline fill="#475059" points="133.928 68.49 127.906 68.49 127.906 66.49 131.928 66.49 131.928 56.49 127.873 56.49 127.873 54.49 133.928 54.49 133.928 68.49"/>
    <polyline fill="#475059" points="166.278 32.751 135.928 6.806 127.509 14.003 126.21 12.483 135.928 4.175 167.577 31.231 166.278 32.751"/>
    <polyline fill="#F58E70" points="43.908 32.143 124.922 32.143 124.922 27.333 118.91 7.94 49.919 7.94 43.908 27.484 43.908 32.143"/>
    <polygon fill="#5FE0ED" points="101.938 53.94 113.938 53.94 113.938 45.94 101.938 45.94"/>
    <polygon fill="#5FE0ED" points="53.909 53.94 65.909 53.94 65.909 45.94 53.909 45.94"/>
    <path fill="#475059" d="M41.908,34.143 L126.922,34.143 L126.922,27.089 L120.475,5.94 L48.357,5.94 L41.908,27.24 L41.908,34.143 Z M128.922,36.143 L39.908,36.143 L39.951,26.801 L46.873,3.94 L121.955,3.94 L128.922,26.94 L128.922,36.143 Z"/>
    <polyline fill="#475059" points="123.816 35.145 125.816 35.14 125.922 73.893 123.922 73.898 123.816 35.145"/>
    <polygon fill="#475059" points="41.909 73.896 43.909 73.896 43.909 35.09 41.909 35.09"/>
    <path fill="#475059" d="M93.813 73.895L91.813 73.895 91.813 51.94C91.813 47.522 88.231 43.94 83.813 43.94 79.395 43.94 75.813 47.522 75.813 51.94L75.813 73.895 73.813 73.895 73.813 51.94C73.813 46.417 78.29 41.94 83.813 41.94 89.336 41.94 93.813 46.417 93.813 51.94L93.813 73.895M99.907 55.94L115.907 55.94 115.907 43.94 99.907 43.94 99.907 55.94zM97.907 57.94L117.907 57.94 117.907 41.94 97.907 41.94 97.907 57.94z"/>
    <polygon fill="#475059" points="106.908 56.94 108.908 56.94 108.908 42.94 106.908 42.94"/>
    <path fill="#475059" d="M51.909,55.94 L67.909,55.94 L67.909,43.94 L51.909,43.94 L51.909,55.94 Z M49.909,57.94 L69.909,57.94 L69.909,41.94 L49.909,41.94 L49.909,57.94 Z"/>
    <polygon fill="#475059" points="58.91 56.94 60.91 56.94 60.91 42.94 58.91 42.94"/>
    <path fill="#475059" d="M46.909,28.941 L49.047,28.941 L49.047,26.941 L46.909,26.941 L46.909,28.941 Z M51.184,28.941 L53.322,28.941 L53.322,26.941 L51.184,26.941 L51.184,28.941 Z M55.459,28.941 L57.597,28.941 L57.597,26.941 L55.459,26.941 L55.459,28.941 Z M59.735,28.941 L61.873,28.941 L61.873,26.941 L59.735,26.941 L59.735,28.941 Z M64.011,28.941 L66.149,28.941 L66.149,26.941 L64.011,26.941 L64.011,28.941 Z M68.286,28.941 L70.424,28.941 L70.424,26.941 L68.286,26.941 L68.286,28.941 Z M72.561,28.941 L74.699,28.941 L74.699,26.941 L72.561,26.941 L72.561,28.941 Z M76.837,28.941 L78.975,28.941 L78.975,26.941 L76.837,26.941 L76.837,28.941 Z M81.112,28.941 L83.25,28.941 L83.25,26.941 L81.112,26.941 L81.112,28.941 Z M85.388,28.941 L87.526,28.941 L87.526,26.941 L85.388,26.941 L85.388,28.941 Z M89.664,28.941 L91.802,28.941 L91.802,26.941 L89.664,26.941 L89.664,28.941 Z M93.939,28.941 L96.077,28.941 L96.077,26.941 L93.939,26.941 L93.939,28.941 Z M98.215,28.941 L100.353,28.941 L100.353,26.941 L98.215,26.941 L98.215,28.941 Z M102.49,28.941 L104.628,28.941 L104.628,26.941 L102.49,26.941 L102.49,28.941 Z M106.766,28.941 L108.903,28.941 L108.903,26.941 L106.766,26.941 L106.766,28.941 Z M111.041,28.941 L113.179,28.941 L113.179,26.941 L111.041,26.941 L111.041,28.941 Z M115.316,28.941 L117.454,28.941 L117.454,26.941 L115.316,26.941 L115.316,28.941 Z M121.729,28.941 L119.592,28.941 L119.592,26.941 L121.73,26.941 L121.729,28.941 Z"/>
    <path fill="#5FE0ED" d="M8.355 50.096C9.702 50.096 10.793 51.187 10.793 52.533 10.793 53.88 9.702 54.971 8.355 54.971 7.009 54.971 5.918 53.88 5.918 52.533 5.918 51.187 7.009 50.096 8.355 50.096M165.499 164.994C166.846 164.994 167.937 166.085 167.937 167.431 167.937 168.778 166.846 169.869 165.499 169.869 164.153 169.869 163.062 168.778 163.062 167.431 163.062 166.085 164.153 164.994 165.499 164.994"/>
    <path fill="#FFD15D" d="M180.93,85.977 C182.034,85.977 182.93,86.872 182.93,87.977 C182.93,89.082 182.034,89.977 180.93,89.977 C179.825,89.977 178.93,89.082 178.93,87.977 C178.93,86.872 179.825,85.977 180.93,85.977"/>
  </g>
</svg>
