<svg xmlns="http://www.w3.org/2000/svg" width="193" height="171" viewBox="0 0 193 171">
  <g fill="none" fill-rule="evenodd">
    <polyline fill="#FFD15D" points="146.604 125.762 188.061 125.762 188.061 103.762 146.604 103.762 138.747 114.762 146.604 125.762"/>
    <path fill="#48515A" d="M168.612,121.743 L163.053,121.743 C161.287,121.735 159.861,120.3 159.863,118.535 L161.863,118.535 C161.859,119.196 162.391,119.737 163.053,119.743 L168.612,119.743 C169.449,119.737 170.124,119.055 170.12,118.218 L170.12,117.268 C170.119,116.436 169.444,115.761 168.612,115.76 L163.131,115.76 C161.194,115.758 159.625,114.189 159.623,112.252 L159.623,111.301 C159.625,109.365 161.194,107.795 163.131,107.792 L169.022,107.792 C170.55,107.794 171.788,109.032 171.79,110.56 L169.79,110.56 C169.789,110.137 169.446,109.793 169.022,109.792 L163.131,109.792 C162.298,109.794 161.624,110.469 161.623,111.301 L161.623,112.252 C161.624,113.085 162.298,113.759 163.131,113.76 L168.612,113.76 C170.548,113.762 172.118,115.331 172.12,117.268 L172.12,118.218 C172.122,120.159 170.553,121.736 168.612,121.743"/>
    <polygon fill="#48515A" points="165.152 123.768 167.152 123.768 167.152 105.768 165.152 105.768"/>
    <path fill="#DEDEDD" d="M93.046,149.264 L109.046,149.264 L109.046,138.239 C108.185,138.9 107.132,139.26 106.047,139.264 C103.285,139.264 101.047,137.025 101.047,134.264 C101.047,131.502 103.285,129.264 106.047,129.264 C107.132,129.267 108.185,129.627 109.046,130.288 L109.046,115.264 L93.046,115.264 L93.046,149.264"/>
    <polyline fill="#DEDEDD" points="115.049 38.652 127.049 49.152 127.049 27.264 115.049 27.264 115.049 38.652"/>
    <polyline fill="#475059" points="131.049 56.35 129.049 56.35 129.049 25.264 113.049 25.264 113.049 40.264 111.049 40.264 111.049 23.264 131.049 23.264 131.049 56.35"/>
    <polyline fill="#F58E70" points="140.049 63.263 78.049 9.247 16.049 63.263 12.074 59.003 78.049 1.274 144.025 59.003 140.049 63.263"/>
    <path fill="#5FE0ED" d="M38.036 132.294L44.036 132.294C47.35 132.294 50.036 129.607 50.036 126.294L50.036 112.294 38.036 112.294 38.036 132.294M72.049 132.294L66.049 132.294C62.736 132.294 60.049 129.607 60.049 126.294L60.049 112.294 72.049 112.294 72.049 132.294M84.064 82.264L90.064 82.264C93.377 82.264 96.064 79.577 96.064 76.264L96.064 62.264 84.064 62.264 84.064 82.264M118.077 82.264L112.077 82.264C108.763 82.264 106.077 79.577 106.077 76.264L106.077 62.264 118.077 62.264 118.077 82.264M38.036 82.264L44.036 82.264C47.35 82.264 50.036 79.577 50.036 76.264L50.036 62.264 38.036 62.264 38.036 82.264M72.049 82.264L66.049 82.264C62.736 82.264 60.049 79.577 60.049 76.264L60.049 62.264 72.049 62.264 72.049 82.264"/>
    <polygon fill="#475059" points="25.049 96.024 27.049 96.024 27.049 54.733 25.049 54.733"/>
    <polygon fill="#475059" points="25.049 152.264 27.049 152.264 27.049 100.146 25.049 100.146"/>
    <polyline fill="#475059" points="113.046 152.264 111.046 152.264 111.046 113.264 91.046 113.264 91.046 152.264 89.046 152.264 89.046 111.264 113.046 111.264 113.046 152.264"/>
    <polygon fill="#475059" points="129.049 111.77 131.049 111.77 131.049 100.098 129.049 100.098"/>
    <polygon fill="#475059" points="129.049 95.768 131.049 95.768 131.049 55.757 129.049 55.757"/>
    <polyline fill="#475059" points="16.699 64.024 15.399 62.504 78.049 8.949 140.699 62.503 139.399 64.023 78.049 11.58 16.699 64.024"/>
    <path fill="#475059" d="M39.049 85.264L71.049 85.264 71.049 63.264 39.049 63.264 39.049 85.264zM37.049 87.264L73.049 87.264 73.049 61.264 37.049 61.264 37.049 87.264zM85.049 85.264L117.049 85.264 117.049 63.264 85.049 63.264 85.049 85.264zM83.049 87.264L119.049 87.264 119.049 61.264 83.049 61.264 83.049 87.264zM39.049 135.264L71.049 135.264 71.049 113.264 39.049 113.264 39.049 135.264zM37.049 137.264L73.049 137.264 73.049 111.264 37.049 111.264 37.049 137.264zM106.047 133.264C105.495 133.264 105.047 133.712 105.047 134.264 105.047 134.816 105.495 135.264 106.047 135.264 106.599 135.264 107.047 134.816 107.047 134.264 107.046 133.712 106.599 133.265 106.047 133.264zM106.047 137.264C104.39 137.264 103.047 135.921 103.047 134.264 103.047 132.607 104.39 131.264 106.047 131.264 107.704 131.264 109.047 132.607 109.047 134.264 109.045 135.92 107.703 137.262 106.047 137.264zM24.04 98.772L131.047 98.772 131.047 96.77 24.04 96.77 24.04 98.772zM22.04 100.772L133.047 100.772 133.047 94.77 22.04 94.77 22.04 100.772z"/>
    <polygon fill="#48515A" points="184.107 80.763 186.107 80.763 186.107 76.763 184.107 76.763"/>
    <polygon fill="#48515A" points="184.107 90.763 186.107 90.763 186.107 86.763 184.107 86.763"/>
    <polygon fill="#48515A" points="188.107 84.763 192.107 84.763 192.107 82.763 188.107 82.763"/>
    <polygon fill="#48515A" points="178.107 84.763 182.107 84.763 182.107 82.763 178.107 82.763"/>
    <polygon fill="#48515A" points="137.079 10.757 139.079 10.757 139.079 6.757 137.079 6.757"/>
    <polygon fill="#48515A" points="137.079 20.757 139.079 20.757 139.079 16.757 137.079 16.757"/>
    <polygon fill="#48515A" points="141.079 14.757 145.079 14.757 145.079 12.757 141.079 12.757"/>
    <polygon fill="#48515A" points="131.079 14.757 135.079 14.757 135.079 12.757 131.079 12.757"/>
    <polygon fill="#48515A" points="6 80.799 8 80.799 8 76.799 6 76.799"/>
    <polygon fill="#48515A" points="6 90.799 8 90.799 8 86.799 6 86.799"/>
    <polygon fill="#48515A" points="10 84.799 14 84.799 14 82.799 10 82.799"/>
    <polygon fill="#48515A" points="0 84.799 4 84.799 4 82.799 0 82.799"/>
    <path fill="#F58E70" d="M110.049.769C111.154.769 112.049 1.664 112.049 2.769 112.049 3.874 111.154 4.769 110.049 4.769 108.945 4.769 108.049 3.874 108.049 2.769 108.049 1.664 108.945.769 110.049.769M148.049 68.769C149.154 68.769 150.049 69.664 150.049 70.769 150.049 71.874 149.154 72.769 148.049 72.769 146.945 72.769 146.049 71.874 146.049 70.769 146.049 69.664 146.945 68.769 148.049 68.769"/>
    <path fill="#5FE0ED" d="M14.06,118.769 C16.269,118.769 18.06,120.56 18.06,122.769 C18.06,124.978 16.269,126.769 14.06,126.769 C11.851,126.769 10.06,124.978 10.06,122.769 C10.06,120.56 11.851,118.769 14.06,118.769"/>
    <path fill="#DEDEDD" d="M30.061,22.739 C31.166,22.739 32.061,23.634 32.061,24.739 C32.061,25.844 31.166,26.739 30.061,26.739 C28.957,26.739 28.061,25.844 28.061,24.739 C28.061,23.634 28.957,22.739 30.061,22.739"/>
    <polygon fill="#48515A" points=".004 153.769 192.004 153.769 192.004 151.769 .004 151.769"/>
    <polyline fill="#DEDEDD" points=".004 155.611 .004 170.769 192.004 171 192.004 155.842 .004 155.611"/>
    <path fill="#48515A" d="M145.575,127.762 L190.061,127.762 L190.061,101.762 L145.575,101.762 L136.29,114.762 L145.575,127.762 Z M192.061,129.762 L144.546,129.762 L133.832,114.762 L144.546,99.762 L192.061,99.762 L192.061,129.762 Z"/>
    <polygon fill="#48515A" points="129.06 152.769 131.06 152.769 131.06 137.766 129.06 137.766"/>
    <polygon fill="#48515A" points="133.059 145.769 135.06 145.769 135.06 143.769 133.059 143.769"/>
    <path fill="#48515A" d="M147.06,145.769 L137.06,145.769 L137.06,143.769 L147.06,143.769 C149.269,143.769 151.06,141.978 151.06,139.769 C151.06,137.56 149.269,135.769 147.06,135.769 L126.057,135.769 C119.982,135.769 115.057,130.844 115.057,124.769 C115.057,118.694 119.982,113.769 126.057,113.769 L135.056,113.769 L135.056,115.769 L126.057,115.769 C121.086,115.769 117.057,119.798 117.057,124.769 C117.057,129.74 121.086,133.769 126.057,133.769 L147.06,133.769 C150.374,133.769 153.06,136.455 153.06,139.769 C153.06,143.083 150.374,145.769 147.06,145.769"/>
    <polygon fill="#475059" points="129.06 131.77 131.06 131.77 131.06 117.768 129.06 117.768"/>
    <path fill="#475059" d="M145.059,113.768 C144.507,113.768 144.059,114.216 144.059,114.768 C144.059,115.32 144.507,115.768 145.059,115.768 C145.611,115.768 146.059,115.32 146.059,114.768 C146.059,114.216 145.611,113.769 145.059,113.768 Z M145.059,117.768 C143.402,117.768 142.059,116.425 142.059,114.768 C142.059,113.111 143.402,111.768 145.059,111.768 C146.716,111.768 148.059,113.111 148.059,114.768 C148.057,116.424 146.715,117.766 145.059,117.768 Z"/>
    <polyline fill="#DEDEDD" points="182.054 52.201 154.054 40.201 166.282 69.811 171.115 60.09 178.195 67.171 181.119 64.437 173.822 57.14 182.054 52.201"/>
    <polyline fill="#FFF" points="172.048 42.195 144.048 30.195 156.276 59.805 161.109 50.084 169.22 58.195 172.048 55.367 163.816 47.134 172.048 42.195"/>
    <path fill="#48515A" d="M145.908 32.08L156.36 57.389 160.833 48.394 169.22 56.781 170.634 55.367 162.203 46.936 169.856 42.343 145.908 32.08zM156.191 62.221L142.188 28.309 174.239 42.046 165.429 47.332 173.462 55.367 169.22 59.609 161.385 51.775 156.191 62.221zM16.062 35.818C14.45 35.774 13.107 37.046 13.063 38.658 13.063 38.679 13.063 38.699 13.063 38.72 13.03 40.399 14.365 41.785 16.044 41.817 16.05 41.818 16.056 41.818 16.062 41.818L83.244 41.818 89.75 38.818 83.244 35.818 16.062 35.818zM83.683 43.818L16.062 43.818C13.289 43.801 11.052 41.543 11.063 38.769 11.039 36.058 13.218 33.841 15.929 33.817 15.974 33.817 16.018 33.817 16.062 33.818L83.683 33.818 94.526 38.818 83.683 43.818z"/>
    <polygon fill="#48515A" points="22.039 42.818 24.039 42.818 24.039 34.818 22.039 34.818"/>
    <polygon fill="#48515A" points="23.039 39.818 83.039 39.818 83.039 37.818 23.039 37.818"/>
  </g>
</svg>
