<svg xmlns="http://www.w3.org/2000/svg" width="193" height="178" viewBox="0 0 193 178">
  <g fill="none" fill-rule="evenodd">
    <polygon fill="#FFD15D" points="161.056 156.432 178.056 156.432 178.056 4.769 161.056 4.769"/>
    <polygon fill="#48515A" points="158.055 17.399 166.057 17.399 166.057 15.399 158.055 15.399"/>
    <polygon fill="#48515A" points="158.055 29.399 164.055 29.399 164.055 27.399 158.055 27.399"/>
    <polygon fill="#48515A" points="158.055 41.399 166.057 41.399 166.057 39.399 158.055 39.399"/>
    <polygon fill="#48515A" points="158.055 53.399 164.055 53.399 164.055 51.399 158.055 51.399"/>
    <polygon fill="#48515A" points="158.055 65.399 166.057 65.399 166.057 63.399 158.055 63.399"/>
    <polygon fill="#48515A" points="158.055 77.399 164.055 77.399 164.055 75.399 158.055 75.399"/>
    <polygon fill="#48515A" points="158.055 89.399 166.057 89.399 166.057 87.399 158.055 87.399"/>
    <polygon fill="#48515A" points="157.8 101.4 164.055 101.4 164.055 99.4 157.8 99.4"/>
    <polyline fill="#48515A" points="182.056 160.4 157.055 160.4 157.055 74.019 159.055 74.019 159.055 158.4 180.056 158.4 180.056 97.958 182.056 97.958 182.056 160.4"/>
    <polyline fill="#48515A" points="182.056 91.832 180.056 91.832 180.056 2.769 159.055 2.769 159.055 57.853 157.055 57.853 157.055 .769 182.056 .769 182.056 91.832"/>
    <polygon fill="#48515A" points="157.717 125.4 164.055 125.4 164.055 123.4 157.717 123.4"/>
    <polygon fill="#48515A" points="158.055 137.4 166.057 137.4 166.057 135.4 158.055 135.4"/>
    <polygon fill="#48515A" points="158.055 149.4 164.055 149.4 164.055 147.4 158.055 147.4"/>
    <path fill="#48515A" d="M171.055,146.4 C169.953,146.4 169.055,147.297 169.055,148.4 C169.055,149.502 169.953,150.4 171.055,150.4 C172.158,150.4 173.055,149.502 173.055,148.4 C173.055,147.297 172.158,146.4 171.055,146.4 Z M171.055,152.4 C168.849,152.4 167.055,150.606 167.055,148.4 C167.055,146.194 168.849,144.4 171.055,144.4 C173.261,144.4 175.055,146.194 175.055,148.4 C175.055,150.606 173.261,152.4 171.055,152.4 Z"/>
    <polygon fill="#48515A" points="158.055 113.414 166.057 113.414 166.057 111.414 158.055 111.414"/>
    <path fill="#FFD15D" d="M42.502,145.769 L25.056,145.769 L25.056,128.596 L42.502,145.769 Z M14.056,117.903 L14.056,156.769 L68.036,156.769 L57.333,146.056 L24.708,113.461 L14.056,102.768 L14.056,117.903 Z"/>
    <path fill="#DEDEDD" d="M112.102,157.264 L128.102,157.264 L128.102,145.239 C127.264,145.873 126.232,146.264 125.103,146.264 C122.346,146.264 120.103,144.021 120.103,141.264 C120.103,138.507 122.346,136.264 125.103,136.264 C126.232,136.264 127.264,136.654 128.102,137.289 L128.102,122.264 L112.102,122.264 L112.102,157.264"/>
    <polyline fill="#DEDEDD" points="134.105 45.652 146.105 56.152 146.105 34.264 134.105 34.264 134.105 45.652"/>
    <polyline fill="#475059" points="150.105 63.351 148.105 63.351 148.105 32.264 132.105 32.264 132.105 47.264 130.105 47.264 130.105 30.264 150.105 30.264 150.105 63.351"/>
    <polyline fill="#F58E70" points="159.105 70.263 97.105 16.247 35.105 70.263 31.129 66.003 97.105 8.274 163.081 66.003 159.105 70.263"/>
    <path fill="#5FE0ED" d="M57.092 139.294L63.092 139.294C66.406 139.294 69.092 136.608 69.092 133.294L69.092 119.294 57.092 119.294 57.092 139.294M91.105 139.294L85.105 139.294C81.791 139.294 79.105 136.608 79.105 133.294L79.105 119.294 91.105 119.294 91.105 139.294M103.119 89.264L109.119 89.264C112.433 89.264 115.119 86.578 115.119 83.264L115.119 69.264 103.119 69.264 103.119 89.264M137.133 89.264L131.133 89.264C127.819 89.264 125.133 86.578 125.133 83.264L125.133 69.264 137.133 69.264 137.133 89.264M57.092 89.264L63.092 89.264C66.406 89.264 69.092 86.578 69.092 83.264L69.092 69.264 57.092 69.264 57.092 89.264M91.105 89.264L85.105 89.264C81.791 89.264 79.105 86.578 79.105 83.264L79.105 69.264 91.105 69.264 91.105 89.264"/>
    <polygon fill="#475059" points="44.105 103.024 46.105 103.024 46.105 61.733 44.105 61.733"/>
    <polygon fill="#475059" points="44.105 159.264 46.105 159.264 46.105 107.146 44.105 107.146"/>
    <polyline fill="#475059" points="132.101 159.264 130.101 159.264 130.101 120.264 110.101 120.264 110.101 159.264 108.101 159.264 108.101 118.264 132.101 118.264 132.101 159.264"/>
    <polygon fill="#475059" points="148.105 159.769 150.105 159.769 150.105 107.098 148.105 107.098"/>
    <polygon fill="#475059" points="148.105 102.769 150.105 102.769 150.105 62.757 148.105 62.757"/>
    <polyline fill="#475059" points="35.755 71.025 34.455 69.504 97.105 15.948 159.755 69.503 158.456 71.023 97.105 18.579 35.755 71.025"/>
    <path fill="#475059" d="M58.105 92.264L90.105 92.264 90.105 70.263 58.105 70.263 58.105 92.264zM56.105 94.265L92.105 94.265 92.105 68.264 56.105 68.264 56.105 94.265zM104.105 92.264L136.105 92.264 136.105 70.263 104.105 70.263 104.105 92.264zM102.105 94.265L138.105 94.265 138.105 68.264 102.105 68.264 102.105 94.265zM58.105 142.264L90.105 142.264 90.105 120.264 58.105 120.264 58.105 142.264zM56.105 144.264L92.105 144.264 92.105 118.264 56.105 118.264 56.105 144.264zM125.102 140.264C124.55 140.264 124.102 140.712 124.102 141.264 124.102 141.816 124.55 142.264 125.102 142.264 125.654 142.264 126.102 141.816 126.102 141.264 126.102 140.712 125.654 140.264 125.102 140.264zM125.102 144.264C123.448 144.264 122.102 142.918 122.102 141.264 122.102 139.61 123.448 138.264 125.102 138.264 126.757 138.264 128.102 139.61 128.102 141.264 128.102 142.918 126.757 144.264 125.102 144.264zM43.096 105.772L150.102 105.772 150.102 103.77 43.096 103.77 43.096 105.772zM41.096 107.772L152.102 107.772 152.102 101.77 41.096 101.77 41.096 107.772z"/>
    <polygon fill="#48515A" points="184.102 91.769 186.102 91.769 186.102 87.769 184.102 87.769"/>
    <polygon fill="#48515A" points="184.102 101.769 186.102 101.769 186.102 97.769 184.102 97.769"/>
    <polygon fill="#48515A" points="188.102 95.769 192.102 95.769 192.102 93.769 188.102 93.769"/>
    <polygon fill="#48515A" points="178.102 95.769 182.102 95.769 182.102 93.769 178.102 93.769"/>
    <polygon fill="#48515A" points="25.056 87.799 27.056 87.799 27.056 83.799 25.056 83.799"/>
    <polygon fill="#48515A" points="25.056 97.799 27.056 97.799 27.056 93.799 25.056 93.799"/>
    <polygon fill="#48515A" points="29.056 91.799 33.056 91.799 33.056 89.799 29.056 89.799"/>
    <polygon fill="#48515A" points="19.007 91.799 23.007 91.799 23.007 89.799 19.007 89.799"/>
    <path fill="#F58E70" d="M151.117 19.775C151.117 20.88 150.222 21.775 149.117 21.775 148.012 21.775 147.117 20.88 147.117 19.775 147.117 18.671 148.012 17.775 149.117 17.775 150.222 17.775 151.117 18.671 151.117 19.775M192.056 127.769C192.056 128.874 191.16 129.769 190.056 129.769 188.951 129.769 188.056 128.874 188.056 127.769 188.056 126.665 188.951 125.769 190.056 125.769 191.16 125.769 192.056 126.665 192.056 127.769"/>
    <path fill="#DEDEDD" d="M51.117,31.739 C51.117,32.844 50.222,33.739 49.117,33.739 C48.013,33.739 47.117,32.844 47.117,31.739 C47.117,30.635 48.013,29.739 49.117,29.739 C50.222,29.739 51.117,30.635 51.117,31.739"/>
    <polygon fill="#48515A" points="0 160.769 192 160.769 192 158.769 0 158.769"/>
    <polyline fill="#DEDEDD" points="0 162.611 0 177.769 192 178 192 162.842 0 162.611"/>
    <path fill="#48515A" d="M35.118,42.818 C33.436,42.818 32.118,44.093 32.118,45.721 C32.118,47.45 33.464,48.818 35.118,48.818 L102.3,48.818 L108.806,45.818 L102.3,42.818 L35.118,42.818 Z M102.739,50.818 L35.118,50.818 C32.361,50.818 30.118,48.553 30.118,45.769 C30.118,42.972 32.314,40.818 35.118,40.818 L102.739,40.818 L113.582,45.818 L102.739,50.818 Z"/>
    <polygon fill="#48515A" points="41.095 49.818 43.095 49.818 43.095 41.818 41.095 41.818"/>
    <polygon fill="#48515A" points="42.095 46.818 102.094 46.818 102.094 44.818 42.095 44.818"/>
    <polygon fill="#48515A" points="125.116 11.753 127.116 11.753 127.116 7.753 125.116 7.753"/>
    <polygon fill="#48515A" points="125.116 21.753 127.116 21.753 127.116 17.753 125.116 17.753"/>
    <polygon fill="#48515A" points="129.116 15.753 133.116 15.753 133.116 13.753 129.116 13.753"/>
    <polygon fill="#48515A" points="119.116 15.753 123.116 15.753 123.116 13.753 119.116 13.753"/>
  </g>
</svg>
