<svg xmlns="http://www.w3.org/2000/svg" xmlns:xlink="http://www.w3.org/1999/xlink" width="193" height="193" viewBox="0 0 193 193">
  <defs>
    <polygon id="cc462-a" points=".024 .092 70.024 .092 70.024 116.94 .024 116.94"/>
  </defs>
  <g fill="none" fill-rule="evenodd">
    <path fill="#5FE0ED" d="M144.024,77.001 L144.024,10.116 C144.024,9.564 143.576,9.116 143.024,9.116 C142.472,9.116 142.024,9.564 142.024,10.116 L142.024,18.116 C142.024,18.668 141.576,19.116 141.024,19.116 C140.472,19.116 140.024,18.668 140.024,18.116 L140.024,2.116 C140.024,1.564 139.576,1.116 139.024,1.116 C138.472,1.116 138.024,1.564 138.024,2.116 L138.024,28.116 C138.024,28.668 137.576,29.116 137.024,29.116 C136.472,29.116 136.024,28.668 136.024,28.116 L136.024,12.116 C136.024,11.564 135.576,11.116 135.024,11.116 C134.472,11.116 134.024,11.564 134.024,12.116 L134.024,34.116 C134.024,34.668 133.576,35.116 133.024,35.116 C132.472,35.116 132.024,34.668 132.024,34.116 L132.024,8.116 C132.024,7.564 131.576,7.116 131.024,7.116 C130.472,7.116 130.024,7.564 130.024,8.116 L130.024,24.116 C130.024,24.668 129.576,25.116 129.024,25.116 C128.472,25.116 128.024,24.668 128.024,24.116 L128.024,2.001 C128.024,1.449 127.576,1.001 127.024,1.001 C126.472,1.001 126.024,1.449 126.024,2.001 L126.024,20.116 C126.024,20.668 125.576,21.116 125.024,21.116 C124.472,21.116 124.024,20.668 124.024,20.116 L124.024,12.116 C124.024,11.564 123.576,11.116 123.024,11.116 C122.472,11.116 122.024,11.564 122.024,12.116 L122.024,22.116 C122.024,22.668 121.576,23.116 121.024,23.116 C120.472,23.116 120.024,22.668 120.024,22.116 L120.024,8.116 C120.024,7.564 119.576,7.116 119.024,7.116 C118.472,7.116 118.024,7.564 118.024,8.116 L118.024,26.116 C118.024,26.668 117.576,27.116 117.024,27.116 C116.472,27.116 116.024,26.668 116.024,26.116 L116.024,4.116 C116.024,3.564 115.576,3.116 115.024,3.116 C114.472,3.116 114.024,3.564 114.024,4.116 L114.024,32.116 C114.024,32.668 113.576,33.116 113.024,33.116 C112.472,33.116 112.024,32.668 112.024,32.116 L112.024,24.116 C112.024,23.564 111.576,23.116 111.024,23.116 C110.472,23.116 110.024,23.564 110.024,24.116 L110.024,28.116 C110.024,28.668 109.576,29.116 109.024,29.116 C108.472,29.116 108.024,28.668 108.024,28.116 L108.024,16.001 C108.024,15.449 107.576,15.001 107.024,15.001 C106.472,15.001 106.024,15.449 106.024,16.001 L106.024,22.116 C106.024,22.668 105.576,23.116 105.024,23.116 C104.472,23.116 104.024,22.668 104.024,22.116 L104.024,8.001 C104.024,7.449 103.576,7.001 103.024,7.001 C102.472,7.001 102.024,7.449 102.024,8.001 L102.024,34.001 C102.024,34.553 101.576,35.001 101.024,35.001 C100.472,35.001 100.024,34.553 100.024,34.001 L100.024,18.001 C100.024,17.449 99.576,17.001 99.024,17.001 C98.472,17.001 98.024,17.449 98.024,18.001 L98.024,40.001 C98.024,40.553 97.576,41.001 97.024,41.001 C96.472,41.001 96.024,40.553 96.024,40.001 L96.024,14.001 C96.024,13.449 95.576,13.001 95.024,13.001 C94.472,13.001 94.024,13.449 94.024,14.001 L94.024,30.001 C94.024,30.553 93.576,31.001 93.024,31.001 C92.472,31.001 92.024,30.553 92.024,30.001 L92.024,2.001 C92.024,1.449 91.576,1.001 91.024,1.001 C90.472,1.001 90.024,1.449 90.024,2.001 L90.024,26.001 C90.024,26.553 89.576,27.001 89.024,27.001 C88.472,27.001 88.024,26.553 88.024,26.001 L88.024,18.001 C88.024,17.449 87.576,17.001 87.024,17.001 C86.472,17.001 86.024,17.449 86.024,18.001 L86.024,28.001 C86.024,28.553 85.576,29.001 85.024,29.001 C84.472,29.001 84.024,28.553 84.024,28.001 L84.024,14.001 C84.024,13.449 83.576,13.001 83.024,13.001 C82.472,13.001 82.024,13.449 82.024,14.001 L82.024,32.001 C82.024,32.553 81.576,33.001 81.024,33.001 C80.472,33.001 80.024,32.553 80.024,32.001 L80.024,8.001 C80.024,7.449 79.576,7.001 79.024,7.001 C78.472,7.001 78.024,7.449 78.024,8.001 L78.024,38.001 C78.024,38.553 77.576,39.001 77.024,39.001 C76.472,39.001 76.024,38.553 76.024,38.001 L76.024,21.996 C76.024,21.444 75.576,20.996 75.024,20.996 C74.472,20.996 74.024,21.444 74.024,21.996 L74.024,25.996 C74.024,26.548 73.576,26.996 73.024,26.996 C72.472,26.996 72.024,26.548 72.024,25.996 L72.024,13.996 C72.024,13.444 71.576,12.996 71.024,12.996 C70.472,12.996 70.024,13.444 70.024,13.996 L70.024,19.996 C70.024,20.548 69.576,20.996 69.024,20.996 C68.472,20.996 68.024,20.548 68.024,19.996 L68.024,7.996 C68.024,7.444 67.576,6.996 67.024,6.996 C66.472,6.996 66.024,7.444 66.024,7.996 L66.024,23.996 C66.024,24.548 65.576,24.996 65.024,24.996 C64.472,24.996 64.024,24.548 64.024,23.996 L64.024,17.996 C64.024,17.444 63.576,16.996 63.024,16.996 C62.472,16.996 62.024,17.444 62.024,17.996 L62.024,42.001 C62.024,42.553 61.576,43.001 61.024,43.001 C60.472,43.001 60.024,42.553 60.024,42.001 L60.024,1.996 C60.024,1.444 59.576,0.996 59.024,0.996 C58.472,0.996 58.024,1.444 58.024,1.996 L58.024,38.001 C58.024,38.553 57.576,39.001 57.024,39.001 C56.472,39.001 56.024,38.553 56.024,38.001 L56.024,7.996 C56.024,7.444 55.576,6.996 55.024,6.996 C54.472,6.996 54.024,7.444 54.024,7.996 L54.024,44.001 C54.024,44.553 53.576,45.001 53.024,45.001 C52.472,45.001 52.024,44.553 52.024,44.001 L52.024,3.996 C52.024,3.444 51.576,2.996 51.024,2.996 C50.472,2.996 50.024,3.444 50.024,3.996 L50.024,25.996 C50.024,26.548 49.576,26.996 49.024,26.996 C48.472,26.996 48.024,26.548 48.024,25.996 L48.024,11.996 C48.024,11.444 47.576,10.996 47.024,10.996 C46.472,10.996 46.024,11.444 46.024,11.996 L46.024,77.001 L144.024,77.001"/>
    <path fill="#475059" d="M156.491,173.959 L160.069,173.959 L161.843,169.934 L165.139,168.033 L169.51,168.509 L171.299,165.409 L168.702,161.862 L168.702,158.055 L171.299,154.509 L169.51,151.409 L165.139,151.885 L161.843,149.981 L160.069,145.959 L156.491,145.959 L154.717,149.981 L151.422,151.885 L147.051,151.409 L145.261,154.509 L147.859,158.055 L147.859,161.862 L145.261,165.409 L147.051,168.509 L151.422,168.033 L154.717,169.934 L156.491,173.959 Z M161.373,175.959 L155.188,175.959 L153.151,171.34 L150.988,170.092 L145.971,170.638 L142.877,165.28 L145.859,161.208 L145.859,158.71 L142.877,154.638 L145.971,149.28 L150.988,149.826 L153.151,148.577 L155.188,143.959 L161.373,143.959 L163.41,148.577 L165.573,149.826 L170.59,149.28 L173.683,154.638 L170.702,158.71 L170.702,161.208 L173.683,165.28 L170.59,170.637 L165.573,170.092 L163.41,171.341 L161.373,175.959 Z"/>
    <path fill="#475059" d="M158.28,157.959 C157.176,157.959 156.28,158.854 156.28,159.959 C156.28,161.063 157.176,161.959 158.28,161.959 C159.385,161.959 160.28,161.063 160.28,159.959 C160.279,158.855 159.384,157.96 158.28,157.959 Z M158.28,163.959 C156.071,163.959 154.28,162.168 154.28,159.959 C154.28,157.75 156.071,155.959 158.28,155.959 C160.489,155.959 162.28,157.75 162.28,159.959 C162.278,162.167 160.488,163.956 158.28,163.959 Z"/>
    <path fill="#475059" d="M158.28,153.959 C154.967,153.959 152.28,156.645 152.28,159.959 C152.28,163.273 154.967,165.959 158.28,165.959 C161.594,165.959 164.28,163.273 164.28,159.959 C164.277,156.647 161.592,153.962 158.28,153.959 Z M158.28,167.959 C153.862,167.959 150.28,164.377 150.28,159.959 C150.28,155.541 153.862,151.959 158.28,151.959 C162.699,151.959 166.28,155.541 166.28,159.959 C166.275,164.375 162.696,167.954 158.28,167.959 Z"/>
    <polygon fill="#48515A" points="6 78.983 8 78.983 8 74.983 6 74.983"/>
    <polygon fill="#48515A" points="6 88.983 8 88.983 8 84.983 6 84.983"/>
    <polygon fill="#48515A" points="10 82.983 14 82.983 14 80.983 10 80.983"/>
    <polygon fill="#48515A" points="0 82.983 4 82.983 4 80.983 0 80.983"/>
    <polygon fill="#48515A" points="184.107 129.013 186.107 129.013 186.107 125.013 184.107 125.013"/>
    <polygon fill="#48515A" points="184.107 139.013 186.107 139.013 186.107 135.013 184.107 135.013"/>
    <polygon fill="#48515A" points="188.107 133.013 192.107 133.013 192.107 131.013 188.107 131.013"/>
    <polygon fill="#48515A" points="178.107 133.013 182.107 133.013 182.107 131.013 178.107 131.013"/>
    <path fill="#F58E70" d="M166.072 63.031C167.176 63.031 168.072 63.926 168.072 65.031 168.072 66.135 167.176 67.031 166.072 67.031 164.967 67.031 164.072 66.135 164.072 65.031 164.072 63.926 164.967 63.031 166.072 63.031M46 163.091C47.104 163.091 48 163.986 48 165.091 48 166.195 47.104 167.091 46 167.091 44.895 167.091 44 166.195 44 165.091 44 163.986 44.895 163.091 46 163.091"/>
    <path fill="#5FE0ED" d="M126.048,143.079 C127.152,143.079 128.048,143.974 128.048,145.079 C128.048,146.183 127.152,147.079 126.048,147.079 C124.943,147.079 124.048,146.183 124.048,145.079 C124.048,143.974 124.943,143.079 126.048,143.079"/>
    <path fill="#FFD15D" d="M56.41,136.001 L38.964,136.001 L38.964,118.829 L56.41,136.001 Z M27.964,108.136 L27.964,147.001 L81.944,147.001 L71.241,136.288 L38.616,103.694 L27.964,93.001 L27.964,108.136 Z"/>
    <path fill="#475059" d="M101.933,110.584 C97.281,110.599 93.52,114.376 93.524,119.028 L93.783,145.022 L98.783,144.972 L98.524,119.003 C98.522,117.117 100.048,115.587 101.933,115.584 L152.115,115.584 C156.757,115.579 160.519,111.817 160.524,107.175 L160.524,83.001 C160.519,78.359 156.757,74.597 152.115,74.592 L146.023,74.592 L146.023,79.592 L152.115,79.592 C153.997,79.594 155.522,81.119 155.524,83.001 L155.524,107.175 C155.522,109.057 153.997,110.582 152.115,110.584 L101.933,110.584 Z M91.802,147.042 L91.524,119.038 C91.517,113.279 96.174,108.601 101.933,108.584 L152.115,108.584 C152.893,108.583 153.523,107.953 153.524,107.175 L153.524,83.001 C153.523,82.223 152.893,81.592 152.115,81.592 L144.023,81.592 L144.023,72.592 L152.115,72.592 C157.861,72.598 162.517,77.255 162.524,83.001 L162.524,107.175 C162.517,112.921 157.861,117.577 152.115,117.584 L101.933,117.584 C101.155,117.585 100.525,118.215 100.524,118.993 L100.802,146.952 L91.802,147.042 Z"/>
    <path fill="#475059" d="M46.023,92.001 L144.023,92.001 L144.023,61.999 L46.023,62 L46.023,92.001 Z M146.023,94.001 L44.023,94.001 L44.023,60 L146.023,59.999 L146.023,94.001 Z"/>
    <g transform="translate(89 76)">
      <mask id="cc462-b" fill="#fff">
        <use xlink:href="#cc462-a"/>
      </mask>
      <path fill="#DEDEDD" d="M6.293,70.007 L6.024,43.003 C6.024,39.185 9.116,36.089 12.933,36.084 L63.115,36.084 C65.825,36.081 68.021,33.885 68.024,31.175 L68.024,7.001 C68.021,4.291 65.825,2.095 63.115,2.092 L57.024,2.092 L57.024,0.092 L63.115,0.092 C66.929,0.096 70.02,3.187 70.024,7.001 L70.024,31.175 C70.02,34.989 66.929,38.079 63.115,38.084 L12.933,38.084 C10.223,38.087 8.027,40.283 8.024,42.993 L8.293,69.987 L6.293,70.007" mask="url(#cc462-b)"/>
      <path fill="#475059" d="M2.024,76.232 L2.024,110 C2.024,112.762 4.263,115 7.024,115 C9.786,115 12.025,112.762 12.025,110 L12.025,76.458 L10.919,73.971 L12.025,71.761 L12.025,70.997 L2.024,70.997 L2.024,72.089 L3.168,73.947 L2.024,76.232 Z M7.024,117 C3.16,116.995 0.029,113.864 0.024,110 L0.024,75.76 L0.881,74.047 L0.024,72.655 L0.024,68.997 L14.025,68.997 L14.025,72.233 L13.13,74.022 L14.025,76.034 L14.025,110 C14.02,113.864 10.889,116.995 7.024,117 Z" mask="url(#cc462-b)"/>
    </g>
    <path fill="#FFD15D" d="M93.024,152.705 L93.024,186 C93.024,187.657 94.367,189 96.024,189 C97.682,189 99.025,187.657 99.025,186 L99.025,152.883 L97.708,149.922 L98.17,148.997 L93.932,148.997 L94.455,149.847 L93.024,152.705"/>
    <polyline fill="#48515A" points="140.652 130.112 99.649 130.112 99.649 128.112 140.214 128.112 146.719 125.112 140.213 122.112 99.524 122.112 99.524 120.112 140.652 120.112 151.496 125.112 140.652 130.112"/>
    <path fill="#48515A" d="M92.399,130.112 L73.032,130.112 C70.258,130.095 68.021,127.837 68.032,125.063 C68.008,122.352 70.187,120.135 72.898,120.111 C72.942,120.111 72.987,120.111 73.031,120.112 L92.774,120.112 L92.774,122.112 L73.031,122.112 C71.419,122.068 70.076,123.34 70.033,124.952 C70.032,124.973 70.032,124.994 70.032,125.014 C70,126.693 71.334,128.08 73.013,128.112 C73.019,128.112 73.025,128.112 73.032,128.112 L92.399,128.112 L92.399,130.112"/>
    <polygon fill="#48515A" points="79.008 129.112 81.008 129.112 81.008 121.112 79.008 121.112"/>
    <polygon fill="#48515A" points="80.008 126.112 92.024 126.112 92.024 124.112 80.008 124.112"/>
    <polygon fill="#48515A" points="99.149 126.112 140.008 126.112 140.008 124.112 99.149 124.112"/>
    <path fill="#475059" d="M15.029 106.169C13.829 106.592 13.026 107.725 13.024 108.998L13.024 126.999C13.617 126.552 14.302 126.245 15.029 126.098L15.029 106.169zM24.386 135.998L16.026 135.998C13.265 135.996 11.027 133.759 11.024 130.998L11.024 108.998C11.025 106.238 13.262 104.001 16.022 104.001L17.024 104.001 17.029 105.001 17.029 128.001 16.028 128.001C14.372 127.997 13.026 129.336 13.022 130.992 13.018 132.648 14.357 133.994 16.013 133.998 16.016 133.998 16.018 133.998 16.021 133.998L24.386 133.998 24.386 135.998zM38.028 135.998L24.386 135.998 24.386 133.998 38.022 133.998C39.679 134.001 41.024 132.662 41.027 131.006 41.031 129.35 39.691 128.004 38.035 128.001 38.032 128.001 38.03 128.001 38.027 128.001L37.025 128.001 37.02 127.001 37.02 104.001 38.022 104.001C40.782 104.002 43.02 106.238 43.025 108.998L41.025 108.998C41.023 107.726 40.219 106.593 39.02 106.17L39.02 126.1C41.725 126.649 43.474 129.287 42.925 131.992 42.453 134.322 40.405 135.997 38.028 135.998"/>
    <polygon fill="#475059" points="41.025 130.998 43.025 130.998 43.025 108.998 41.025 108.998"/>
    <polyline fill="#475059" points="38.028 113.998 16.026 113.998 16.021 111.998 38.023 111.998 38.028 113.998"/>
    <path fill="#475059" d="M22.024,128.999 L32.024,128.999 L32.024,118.999 L22.024,118.999 L22.024,128.999 Z M20.024,130.999 L34.024,130.999 L34.024,116.999 L20.024,116.999 L20.024,130.999 Z"/>
    <polygon fill="#475059" points="26.024 121.997 28.024 121.997 28.024 117.999 26.024 117.999"/>
    <polygon fill="#475059" points="21.024 125.999 28.023 125.999 28.023 123.999 21.024 123.999"/>
  </g>
</svg>
