<svg xmlns="http://www.w3.org/2000/svg" width="193" height="192" viewBox="0 0 193 192">
  <g fill="none" fill-rule="evenodd">
    <polyline fill="#DEDEDD" points="164.982 128.49 136.982 116.49 149.209 146.1 154.043 136.38 161.123 143.46 164.046 140.726 156.75 133.43 164.982 128.49"/>
    <polyline fill="#DEDEDD" points="133.056 37.895 145.056 48.395 145.056 26.506 133.056 26.506 133.056 37.895"/>
    <polyline fill="#475059" points="149.056 55.593 147.056 55.593 147.056 24.506 131.056 24.506 131.056 39.506 129.056 39.506 129.056 22.506 149.056 22.506 149.056 55.593"/>
    <polyline fill="#F58E70" points="158.056 62.506 96.056 8.49 34.056 62.506 30.08 58.245 96.056 .517 162.031 58.245 158.056 62.506"/>
    <polygon fill="#475059" points="43.056 95.267 45.056 95.267 45.056 53.976 43.056 53.976"/>
    <polygon fill="#475059" points="43.056 151.507 45.056 151.507 45.056 99.389 43.056 99.389"/>
    <polygon fill="#475059" points="147.056 152.037 149.056 152.037 149.056 99.341 147.056 99.341"/>
    <polygon fill="#475059" points="147.056 95.011 149.056 95.011 149.056 55 147.056 55"/>
    <polyline fill="#475059" points="34.706 63.267 33.406 61.747 96.056 8.191 158.705 61.746 157.406 63.266 96.056 10.822 34.706 63.267"/>
    <polygon fill="#48515A" points="161.089 110.024 163.089 110.024 163.089 106.024 161.089 106.024"/>
    <polygon fill="#48515A" points="161.089 120.024 163.089 120.024 163.089 116.024 161.089 116.024"/>
    <polygon fill="#48515A" points="165.089 114.024 169.089 114.024 169.089 112.024 165.089 112.024"/>
    <polygon fill="#48515A" points="155.089 114.024 159.089 114.024 159.089 112.024 155.089 112.024"/>
    <polygon fill="#48515A" points="155.085 10 157.085 10 157.085 6 155.085 6"/>
    <polygon fill="#48515A" points="155.085 20 157.085 20 157.085 16 155.085 16"/>
    <polygon fill="#48515A" points="159.085 14 163.085 14 163.085 12 159.085 12"/>
    <polygon fill="#48515A" points="149.085 14 153.085 14 153.085 12 149.085 12"/>
    <polygon fill="#48515A" points="24.007 80.042 26.007 80.042 26.007 76.042 24.007 76.042"/>
    <polygon fill="#48515A" points="24.007 90.042 26.007 90.042 26.007 86.042 24.007 86.042"/>
    <polygon fill="#48515A" points="28.007 84.042 32.007 84.042 32.007 82.042 28.007 82.042"/>
    <polygon fill="#48515A" points="18.007 84.042 22.007 84.042 22.007 82.042 18.007 82.042"/>
    <path fill="#F58E70" d="M128.056.012C129.161.012 130.056.907 130.056 2.012 130.056 3.117 129.161 4.012 128.056 4.012 126.951 4.012 126.056 3.117 126.056 2.012 126.056.907 126.951.012 128.056.012M166.056 68.012C167.161 68.012 168.056 68.907 168.056 70.012 168.056 71.117 167.161 72.012 166.056 72.012 164.951 72.012 164.056 71.117 164.056 70.012 164.056 68.907 164.951 68.012 166.056 68.012"/>
    <path fill="#5FE0ED" d="M32.067,118.012 C34.276,118.012 36.067,119.803 36.067,122.012 C36.067,124.221 34.276,126.012 32.067,126.012 C29.858,126.012 28.067,124.221 28.067,122.012 C28.067,119.803 29.858,118.012 32.067,118.012"/>
    <path fill="#DEDEDD" d="M48.068,21.982 C49.173,21.982 50.068,22.877 50.068,23.982 C50.068,25.087 49.173,25.982 48.068,25.982 C46.963,25.982 46.068,25.087 46.068,23.982 C46.068,22.877 46.963,21.982 48.068,21.982"/>
    <polygon fill="#48515A" points="101.056 153.012 192 153.012 192 151.012 101.056 151.012"/>
    <polygon fill="#48515A" points="0 153.012 91.055 153.012 91.055 151.012 0 151.012"/>
    <path fill="#48515A" d="M34.069,35.06 C32.456,35.017 31.113,36.289 31.07,37.902 C31.069,37.922 31.069,37.943 31.069,37.963 C31.037,39.641 32.371,41.028 34.05,41.06 C34.056,41.06 34.062,41.06 34.069,41.06 L101.251,41.06 L107.757,38.06 L101.25,35.06 L34.069,35.06 Z M101.69,43.06 L34.069,43.06 C31.295,43.044 29.059,40.785 29.069,38.012 C29.045,35.3 31.225,33.083 33.936,33.06 C33.98,33.059 34.025,33.06 34.069,33.06 L101.689,33.06 L112.532,38.06 L101.69,43.06 Z"/>
    <polygon fill="#48515A" points="40.046 42.06 42.046 42.06 42.046 34.06 40.046 34.06"/>
    <polygon fill="#48515A" points="41.046 39.06 101.046 39.06 101.046 37.06 41.046 37.06"/>
    <polyline fill="#475059" points="74.057 100.015 40.047 100.015 40.047 94.012 74.057 94.012 74.057 96.012 42.047 96.012 42.047 98.015 74.057 98.015 74.057 100.015"/>
    <polyline fill="#475059" points="151.054 100.015 118.058 100.015 118.058 98.015 149.054 98.015 149.054 96.012 118.058 96.012 118.058 94.012 151.054 94.012 151.054 100.015"/>
    <path fill="#475059" d="M91.055,95.143 L89.055,95.143 L89.055,83.018 C89.055,82.466 88.607,82.018 88.055,82.018 C87.502,82.018 87.055,82.466 87.055,83.018 L87.055,95.143 L85.055,95.143 L85.055,83.018 C85.055,81.361 86.398,80.018 88.055,80.018 C89.712,80.018 91.055,81.361 91.055,83.018 L91.055,95.143"/>
    <g fill="#475059" transform="translate(93 80)">
      <path d="M14.058,15.143 L12.058,15.143 L12.058,3.018 C12.058,2.466 11.61,2.018 11.058,2.018 C10.505,2.018 10.058,2.466 10.058,3.018 L10.058,15.143 L8.058,15.143 L8.058,3.018 C8.058,1.361 9.401,0.018 11.058,0.018 C12.714,0.018 14.058,1.361 14.058,3.018 L14.058,15.143"/>
      <polygon points="4.056 111.94 6.056 111.94 6.056 65.162 4.056 65.162"/>
      <polygon points=".056 111.94 2.056 111.94 2.056 65.16 .056 65.16"/>
    </g>
    <path fill="#DEDEDD" d="M96.056,56.026 C106.297,56.032 115.039,63.428 116.741,73.527 C118.743,62.102 111.105,51.219 99.681,49.217 C88.257,47.215 77.373,54.853 75.371,66.277 C74.951,68.675 74.951,71.128 75.371,73.527 C77.073,63.428 85.815,56.032 96.056,56.026"/>
    <polygon fill="#FFD15D" points="94.056 91.027 98.056 91.027 98.056 82.026 94.056 82.026"/>
    <polygon fill="#FFD15D" points="94.056 58.027 98.056 58.027 98.056 49.026 94.056 49.026"/>
    <path fill="#475059" d="M96.056,92.027 C93.988,92.028 91.929,91.738 89.941,91.166 L90.496,89.244 C94.115,90.279 97.952,90.283 101.573,89.256 L102.124,91.179 C100.151,91.743 98.108,92.029 96.056,92.027"/>
    <path fill="#475059" d="M85.664,89.422 C74.954,83.683 70.926,70.349 76.665,59.639 C82.405,48.93 95.739,44.902 106.448,50.641 C117.157,56.38 121.186,69.715 115.446,80.424 C113.462,84.126 110.46,87.182 106.795,89.232 L105.816,87.487 C115.456,82.096 118.9,69.911 113.509,60.271 C108.118,50.631 95.933,47.187 86.293,52.578 C76.653,57.969 73.209,70.154 78.6,79.794 C80.464,83.127 83.244,85.857 86.61,87.66 L85.664,89.422"/>
    <path fill="#475059" d="M88.056 68.026C86.952 68.026 86.056 68.922 86.056 70.026 86.056 71.131 86.952 72.026 88.056 72.026 89.161 72.026 90.056 71.131 90.056 70.026 90.055 68.922 89.16 68.027 88.056 68.026zM88.056 74.026C85.847 74.026 84.056 72.235 84.056 70.026 84.056 67.817 85.847 66.026 88.056 66.026 90.265 66.026 92.056 67.817 92.056 70.026 92.054 72.234 90.264 74.024 88.056 74.026zM104.056 68.026C102.951 68.026 102.056 68.922 102.056 70.026 102.056 71.131 102.951 72.026 104.056 72.026 105.16 72.026 106.056 71.131 106.056 70.026 106.054 68.922 105.16 68.027 104.056 68.026zM104.056 74.026C101.847 74.026 100.056 72.235 100.056 70.026 100.056 67.817 101.847 66.026 104.056 66.026 106.265 66.026 108.056 67.817 108.056 70.026 108.053 72.234 106.264 74.024 104.056 74.026z"/>
    <polyline fill="#FFD15D" points="80.055 98.033 80.056 110.031 91.919 125.846 94.088 141.031 97.025 141.031 100.056 125.785 112.056 109.966 112.056 98.033 80.055 98.033"/>
    <path fill="#48515A" d="M91.058,144.027 L101.055,144.027 L101.055,143.263 L100.024,141.2 L101.768,128.027 L90.21,128.027 L92.091,141.194 L91.058,143.263 L91.058,144.027 Z M103.055,146.027 L89.058,146.027 L89.058,142.791 L90.023,140.859 L87.904,126.027 L104.051,126.027 L102.087,140.854 L103.055,142.791 L103.055,146.027 Z"/>
    <path fill="#48515A" d="M89.557,126.032 L102.413,126.032 L114.056,110.696 L114.056,96.034 L78.056,96.034 L78.056,110.698 L89.557,126.032 Z M103.405,128.032 L88.557,128.032 L76.056,111.365 L76.056,94.034 L116.056,94.034 L116.056,111.369 L103.405,128.032 Z"/>
    <polygon fill="#DEDEDD" points="0 170.056 91.057 170.056 91.057 154.898 0 154.898"/>
    <polyline fill="#DEDEDD" points="101.057 154.954 101.057 170.111 192 170.242 192 155.085 101.057 154.954"/>
    <polyline fill="#FFF" points="154.976 118.484 126.976 106.484 139.203 136.094 144.037 126.374 152.147 134.484 154.976 131.656 146.744 123.424 154.976 118.484"/>
    <path fill="#48515A" d="M128.836,108.37 L139.287,133.679 L143.76,124.683 L152.147,133.07 L153.562,131.656 L145.131,123.225 L152.784,118.633 L128.836,108.37 Z M139.119,138.51 L125.115,104.599 L157.167,118.335 L148.355,123.622 L156.39,131.656 L152.147,135.898 L144.312,128.064 L139.119,138.51 Z"/>
  </g>
</svg>
