<svg xmlns="http://www.w3.org/2000/svg" width="193" height="171" viewBox="0 0 193 171">
  <g fill="none" fill-rule="evenodd">
    <polygon fill="#DEDEDD" points="58.056 86.264 92.056 86.264 92.056 62.264 58.056 62.264"/>
    <polygon fill="#DEDEDD" points="104.056 86.264 138.056 86.264 138.056 62.264 104.056 62.264"/>
    <polygon fill="#DEDEDD" points="58.056 136.264 92.056 136.264 92.056 112.264 58.056 112.264"/>
    <path fill="#48515A" d="M55.324,151.769 L77.457,151.769 C78.667,146.309 80.417,140.983 82.682,135.87 L87.141,126.366 L89.67,120.229 C91.702,115.489 92.251,110.245 91.243,105.188 C90.79,103.044 90.055,100.969 89.06,99.016 C87.507,95.965 85.379,93.242 82.793,90.998 C72.447,82.05 57.101,82.051 46.755,90.999 C46.407,91.3 46.072,91.612 45.744,91.929 C43.071,94.382 40.921,97.35 39.425,100.655 C37.276,105.506 37.21,111.027 39.243,115.928 C39.715,117.065 39.959,118.284 39.96,119.515 C39.958,120.144 39.893,120.772 39.767,121.388 C39.515,122.639 39.011,123.826 38.284,124.875 L34.937,129.71 C34.856,129.792 34.807,129.899 34.799,130.013 C34.799,130.169 34.899,130.308 35.047,130.358 L37.532,131.186 C38.512,131.505 39.188,132.403 39.224,133.433 C39.257,134.235 39.018,135.024 38.544,135.672 L38.544,136.069 C38.552,136.093 38.69,136.161 38.977,136.165 L40.031,136.179 L39.961,137.232 C39.924,137.676 39.914,138.121 39.932,138.566 C39.977,138.709 40.141,138.853 40.427,139.09 C41.025,139.481 41.403,140.133 41.443,140.846 L41.45,144.035 C41.456,145.545 42.679,146.768 44.19,146.772 L51.499,146.772 C53.68,146.774 55.447,148.541 55.45,150.722 L55.443,150.849 L55.324,151.769 Z M79.107,153.769 L53.053,153.769 L53.449,150.665 C53.417,149.611 52.554,148.773 51.499,148.772 L44.19,148.772 C41.578,148.765 39.461,146.652 39.45,144.04 L39.443,140.854 L39.442,140.854 C39.338,140.787 39.241,140.711 39.15,140.628 C38.61,140.241 38.206,139.693 37.996,139.062 C37.917,138.709 37.892,138.347 37.923,137.987 C37.09,137.722 36.53,136.942 36.544,136.069 L36.544,134.887 L36.838,134.594 C37.113,134.292 37.253,133.89 37.224,133.483 C37.209,133.296 37.081,133.137 36.9,133.083 L34.414,132.254 C33.176,131.842 32.507,130.503 32.92,129.266 C33.013,128.987 33.158,128.727 33.346,128.501 L36.64,123.737 C37.212,122.91 37.609,121.975 37.807,120.99 C37.907,120.504 37.958,120.011 37.96,119.515 C37.959,118.545 37.766,117.585 37.394,116.689 C35.152,111.279 35.227,105.186 37.603,99.832 C39.205,96.289 41.507,93.106 44.371,90.475 C44.709,90.149 45.069,89.814 45.444,89.489 C56.542,79.887 73.005,79.887 84.104,89.488 C86.884,91.899 89.172,94.826 90.841,98.106 C91.917,100.215 92.71,102.457 93.2,104.773 C94.291,110.224 93.706,115.879 91.52,120.991 L88.961,127.194 L84.506,136.688 C82.184,141.909 80.426,147.362 79.261,152.955 L79.107,153.769 Z"/>
    <polygon fill="#DEDEDD" points="114.056 153.264 136.056 153.264 136.056 108.261 114.056 108.261"/>
    <path fill="#48515A" d="M85.195,152.815 C84.343,134.473 80.379,115.58 75.329,105.803 C68.929,93.411 68.711,78.958 74.747,67.144 C77.209,62.306 80.584,57.99 84.685,54.433 C101.059,40.268 125.349,40.268 141.723,54.433 C142.274,54.912 142.805,55.406 143.327,55.908 C144.154,56.671 144.968,57.486 145.736,58.316 C149.24,62.187 151.788,66.826 153.175,71.86 C154.055,74.945 154.503,78.138 154.505,81.347 L154.507,92.896 C154.49,93.978 154.645,95.056 154.966,96.089 C156.94,101.969 159.269,107.724 161.94,113.323 L160.127,114.168 C157.416,108.484 155.053,102.639 153.052,96.667 C152.671,95.439 152.487,94.158 152.507,92.872 L152.505,81.347 C152.504,78.341 152.087,75.349 151.266,72.457 C149.966,67.707 147.568,63.328 144.267,59.673 C143.535,58.881 142.757,58.104 141.955,57.363 C141.444,56.87 140.938,56.4 140.412,55.945 C124.791,42.43 101.617,42.43 85.995,55.945 C82.088,59.333 78.873,63.445 76.529,68.054 C70.785,79.296 71.001,93.065 77.107,104.885 C82.276,114.894 86.329,134.119 87.193,152.723 L85.195,152.815"/>
    <path fill="#48515A" d="M128.556,152.896 L127.608,145.427 C127.611,142.445 130.027,140.028 133.01,140.024 L146.119,140.024 C148.644,140.017 150.69,137.973 150.698,135.448 L150.71,130.691 C150.714,129.938 150.946,129.204 151.374,128.584 C151.607,128.225 151.79,127.837 151.921,127.429 C151.932,127.074 151.92,125.786 151.901,124.645 L151.894,124.233 L153.808,122.242 L152.918,120.462 L152.918,120.226 C152.919,118.822 153.791,117.566 155.107,117.076 L155.261,117.024 L158.164,117.024 C158.793,117.044 159.4,116.79 159.827,116.328 C160.343,115.73 160.461,114.885 160.127,114.169 L161.94,113.322 C162.606,114.742 162.38,116.42 161.361,117.613 C160.556,118.533 159.386,119.049 158.164,119.024 L155.616,119.024 C155.247,119.234 154.996,119.602 154.935,120.022 L156.228,122.611 L153.907,125.024 C153.994,125.978 153.981,126.938 153.87,127.89 C153.693,128.498 153.43,129.078 153.09,129.612 C152.848,129.923 152.715,130.305 152.71,130.699 L152.698,135.453 C152.684,139.08 149.746,142.015 146.119,142.024 L133.01,142.024 C131.155,142.026 129.642,143.513 129.609,145.368 L130.54,152.642 L128.556,152.896"/>
    <path fill="#475059" d="M130.057,129.261 C129.505,129.261 129.057,129.709 129.057,130.261 C129.057,130.813 129.505,131.261 130.057,131.261 C130.609,131.261 131.057,130.813 131.057,130.261 C131.056,129.709 130.609,129.262 130.057,129.261 Z M130.057,133.261 C128.4,133.261 127.057,131.918 127.057,130.261 C127.057,128.604 128.4,127.261 130.057,127.261 C131.714,127.261 133.057,128.604 133.057,130.261 C133.055,131.917 131.713,133.259 130.057,133.261 Z"/>
    <polyline fill="#DEDEDD" points="135.057 38.652 147.057 49.152 147.057 27.264 135.057 27.264 135.057 38.652"/>
    <polyline fill="#475059" points="151.057 56.35 149.057 56.35 149.057 25.264 133.057 25.264 133.057 40.264 131.057 40.264 131.057 23.264 151.057 23.264 151.057 56.35"/>
    <polyline fill="#F58E70" points="160.057 63.263 98.057 9.247 36.057 63.263 32.082 59.003 98.057 1.274 164.033 59.003 160.057 63.263"/>
    <polygon fill="#475059" points="45.057 90.769 47.057 90.769 47.057 54.733 45.057 54.733"/>
    <polygon fill="#475059" points="149.057 152.794 151.057 152.794 151.057 138.769 149.057 138.769"/>
    <polygon fill="#475059" points="149.057 66.751 151.057 66.751 151.057 55.757 149.057 55.757"/>
    <polyline fill="#475059" points="36.706 64.024 35.408 62.504 98.057 8.949 160.706 62.503 159.408 64.023 98.057 11.58 36.706 64.024"/>
    <polygon fill="#48515A" points="184.056 116.769 186.056 116.769 186.056 112.769 184.056 112.769"/>
    <polygon fill="#48515A" points="184.056 126.769 186.056 126.769 186.056 122.769 184.056 122.769"/>
    <polygon fill="#48515A" points="188.056 120.769 192.056 120.769 192.056 118.769 188.056 118.769"/>
    <polygon fill="#48515A" points="178.056 120.769 182.056 120.769 182.056 118.769 178.056 118.769"/>
    <polygon fill="#48515A" points="6.056 70.769 8.056 70.769 8.056 66.769 6.056 66.769"/>
    <polygon fill="#48515A" points="6.056 80.769 8.056 80.769 8.056 76.769 6.056 76.769"/>
    <polygon fill="#48515A" points="10.056 74.769 14.056 74.769 14.056 72.769 10.056 72.769"/>
    <polygon fill="#48515A" points=".056 74.769 4.056 74.769 4.056 72.769 .056 72.769"/>
    <path fill="#F58E70" d="M130.057.769C131.162.769 132.057 1.664 132.057 2.769 132.057 3.874 131.162 4.769 130.057 4.769 128.952 4.769 128.057 3.874 128.057 2.769 128.057 1.664 128.952.769 130.057.769M168.057 92.769C169.162 92.769 170.057 93.664 170.057 94.769 170.057 95.874 169.162 96.769 168.057 96.769 166.952 96.769 166.057 95.874 166.057 94.769 166.057 93.664 166.952 92.769 168.057 92.769"/>
    <path fill="#5FE0ED" d="M24.062,108.763 C26.271,108.763 28.062,110.554 28.062,112.763 C28.062,114.972 26.271,116.763 24.062,116.763 C21.853,116.763 20.062,114.972 20.062,112.763 C20.062,110.554 21.853,108.763 24.062,108.763"/>
    <path fill="#DEDEDD" d="M50.069,22.739 C51.174,22.739 52.069,23.634 52.069,24.739 C52.069,25.844 51.174,26.739 50.069,26.739 C48.965,26.739 48.069,25.844 48.069,24.739 C48.069,23.634 48.965,22.739 50.069,22.739"/>
    <polygon fill="#48515A" points="0 153.769 192 153.769 192 151.769 0 151.769"/>
    <polyline fill="#DEDEDD" points="0 155.611 0 170.769 192 171 192 155.842 0 155.611"/>
    <path fill="#48515A" d="M36.069,35.818 C34.457,35.774 33.115,37.046 33.071,38.658 C33.071,38.679 33.071,38.699 33.071,38.72 C33.038,40.399 34.373,41.785 36.052,41.817 C36.058,41.818 36.064,41.818 36.07,41.818 L103.252,41.818 L109.758,38.818 L103.251,35.818 L36.069,35.818 Z M103.692,43.818 L36.07,43.818 C33.297,43.801 31.06,41.543 31.07,38.769 C31.047,36.058 33.226,33.841 35.937,33.817 C35.981,33.817 36.025,33.817 36.069,33.818 L103.691,33.818 L114.533,38.818 L103.692,43.818 Z"/>
    <polygon fill="#48515A" points="42.047 42.818 44.047 42.818 44.047 34.818 42.047 34.818"/>
    <polygon fill="#48515A" points="43.047 39.818 103.047 39.818 103.047 37.818 43.047 37.818"/>
    <polygon fill="#48515A" points="68.056 8.769 70.056 8.769 70.056 4.769 68.056 4.769"/>
    <polygon fill="#48515A" points="68.056 18.769 70.056 18.769 70.056 14.769 68.056 14.769"/>
    <polygon fill="#48515A" points="72.056 12.769 76.056 12.769 76.056 10.769 72.056 10.769"/>
    <polygon fill="#48515A" points="62.056 12.769 66.056 12.769 66.056 10.769 62.056 10.769"/>
  </g>
</svg>
