<svg xmlns="http://www.w3.org/2000/svg" xmlns:xlink="http://www.w3.org/1999/xlink" width="192" height="155" viewBox="0 0 192 155">
  <defs>
    <polygon id="cc465-a" points=".003 0 2.003 0 2.003 13.94 .003 13.94"/>
  </defs>
  <g fill="none" fill-rule="evenodd">
    <polygon fill="#DEDEDD" points="38.989 123.98 44.989 123.98 44.989 107.98 38.989 107.98"/>
    <polygon fill="#475059" points="38.989 105.98 44.989 105.98 44.989 103.98 38.989 103.98"/>
    <polygon fill="#475059" points="38.989 127.992 44.989 127.992 44.989 125.992 38.989 125.992"/>
    <polygon fill="#DEDEDD" points="38.989 34.927 44.989 34.927 44.989 18.927 38.989 18.927"/>
    <polygon fill="#475059" points="38.989 16.926 44.989 16.926 44.989 14.926 38.989 14.926"/>
    <polygon fill="#475059" points="38.989 38.94 44.989 38.94 44.989 36.94 38.989 36.94"/>
    <path fill="#475059" d="M29.665,138.932 L30.311,138.932 L31.215,136.673 C31.874,135.04 33.333,133.866 35.069,133.572 C36.756,133.295 37.993,131.835 37.989,130.125 L37.989,11.732 C37.993,10.022 36.756,8.562 35.069,8.285 C33.333,7.991 31.874,6.817 31.215,5.185 L30.311,2.925 L29.665,2.925 L28.763,5.184 C28.104,6.817 26.644,7.991 24.908,8.285 C23.221,8.562 21.985,10.022 21.989,11.732 L21.989,130.125 C21.985,131.835 23.221,133.295 24.908,133.572 C26.644,133.866 28.104,135.04 28.763,136.673 L29.665,138.932 Z M31.665,140.932 L28.312,140.932 L26.905,137.415 C26.508,136.43 25.627,135.722 24.58,135.544 C21.927,135.109 19.982,132.813 19.989,130.125 L19.989,11.732 C19.982,9.043 21.927,6.748 24.58,6.313 C25.627,6.135 26.508,5.427 26.905,4.442 L28.312,0.925 L31.665,0.925 L33.072,4.442 C33.47,5.427 34.35,6.135 35.397,6.313 C38.051,6.747 39.996,9.043 39.989,11.732 L39.989,130.125 C39.996,132.814 38.051,135.11 35.397,135.544 C34.35,135.722 33.47,136.431 33.072,137.416 L31.665,140.932 Z"/>
    <path fill="#DEDEDD" d="M28.989 8.347C27.962 9.351 26.653 10.018 25.238 10.259 24.516 10.376 23.987 11 23.989 11.731L23.989 130.125C23.986 130.856 24.515 131.48 25.237 131.598 26.653 131.839 27.962 132.506 28.989 133.509L28.989 8.347M34.741 10.259L34.74 10.259C33.324 10.018 32.015 9.351 30.989 8.347L30.989 133.509C32.016 132.506 33.324 131.839 34.74 131.598 35.462 131.481 35.991 130.856 35.989 130.125L35.989 11.731C35.991 11.001 35.462 10.377 34.741 10.259"/>
    <path fill="#475059" d="M17.989,120.932 L19.989,120.932 L19.989,108.932 L17.989,108.932 L17.989,120.932 Z M15.989,122.932 L21.989,122.932 L21.989,106.932 L15.989,106.932 L15.989,122.932 Z"/>
    <path fill="#475059" d="M13.989,118.932 L15.989,118.932 L15.989,110.932 L13.989,110.932 L13.989,118.932 Z M11.989,120.932 L17.989,120.932 L17.989,108.932 L11.989,108.932 L11.989,120.932 Z"/>
    <polyline fill="#475059" points="13.989 118.932 0 118.932 0 116.932 11.989 116.932 11.989 112.932 0 112.932 0 110.932 13.989 110.932 13.989 118.932"/>
    <polygon fill="#DEDEDD" points="135.046 123.98 141.046 123.98 141.046 107.98 135.046 107.98"/>
    <polygon fill="#475059" points="135.047 105.98 141.047 105.98 141.047 103.98 135.047 103.98"/>
    <polygon fill="#475059" points="135.047 127.992 141.047 127.992 141.047 125.992 135.047 125.992"/>
    <polygon fill="#DEDEDD" points="111.032 123.98 117.032 123.98 117.032 107.98 111.032 107.98"/>
    <polygon fill="#475059" points="111.032 105.98 117.032 105.98 117.032 103.98 111.032 103.98"/>
    <polygon fill="#475059" points="111.032 127.992 117.032 127.992 117.032 125.992 111.032 125.992"/>
    <polygon fill="#DEDEDD" points="87.018 123.98 93.018 123.98 93.018 107.98 87.018 107.98"/>
    <polygon fill="#475059" points="87.017 105.98 93.017 105.98 93.017 103.98 87.017 103.98"/>
    <polygon fill="#475059" points="87.017 127.992 93.017 127.992 93.017 125.992 87.017 125.992"/>
    <polygon fill="#DEDEDD" points="63.003 123.98 69.003 123.98 69.003 107.98 63.003 107.98"/>
    <polygon fill="#475059" points="63.003 105.98 69.003 105.98 69.003 103.98 63.003 103.98"/>
    <polygon fill="#475059" points="63.003 127.992 69.003 127.992 69.003 125.992 63.003 125.992"/>
    <polygon fill="#DEDEDD" points="135.046 34.927 141.046 34.927 141.046 18.927 135.046 18.927"/>
    <polygon fill="#475059" points="135.047 16.926 141.047 16.926 141.047 14.926 135.047 14.926"/>
    <polygon fill="#475059" points="135.047 38.94 141.047 38.94 141.047 36.94 135.047 36.94"/>
    <polygon fill="#DEDEDD" points="111.032 34.927 117.032 34.927 117.032 18.927 111.032 18.927"/>
    <polygon fill="#475059" points="111.032 16.926 117.032 16.926 117.032 14.926 111.032 14.926"/>
    <polygon fill="#475059" points="111.032 38.94 117.032 38.94 117.032 36.94 111.032 36.94"/>
    <polygon fill="#DEDEDD" points="87.018 34.927 93.018 34.927 93.018 18.927 87.018 18.927"/>
    <polygon fill="#475059" points="87.017 16.926 93.017 16.926 93.017 14.926 87.017 14.926"/>
    <polygon fill="#475059" points="87.017 38.94 93.017 38.94 93.017 36.94 87.017 36.94"/>
    <polygon fill="#DEDEDD" points="63.003 34.927 69.003 34.927 69.003 18.927 63.003 18.927"/>
    <polygon fill="#475059" points="63.003 16.926 69.003 16.926 69.003 14.926 63.003 14.926"/>
    <polygon fill="#475059" points="63.003 38.94 69.003 38.94 69.003 36.94 63.003 36.94"/>
    <path fill="#475059" d="M53.68,138.932 L54.326,138.932 L55.229,136.673 C55.888,135.04 57.348,133.866 59.084,133.572 C60.771,133.295 62.007,131.835 62.003,130.125 L62.003,11.732 C62.007,10.022 60.771,8.562 59.084,8.285 C57.348,7.991 55.888,6.817 55.229,5.184 L54.326,2.925 L53.68,2.925 L52.777,5.184 C52.118,6.817 50.659,7.991 48.923,8.285 C47.236,8.562 45.999,10.022 46.003,11.732 L46.003,130.125 C45.999,131.835 47.236,133.295 48.923,133.572 C50.659,133.866 52.118,135.04 52.777,136.672 L53.68,138.932 Z M55.68,140.932 L52.326,140.932 L50.92,137.415 C50.522,136.43 49.642,135.722 48.595,135.544 C45.941,135.11 43.996,132.814 44.003,130.125 L44.003,11.732 C43.996,9.043 45.941,6.747 48.595,6.313 C49.642,6.135 50.522,5.426 50.92,4.441 L52.326,0.925 L55.68,0.925 L57.087,4.442 C57.485,5.427 58.365,6.135 59.412,6.313 C62.065,6.748 64.01,9.043 64.003,11.732 L64.003,130.125 C64.01,132.813 62.065,135.109 59.412,135.544 C58.365,135.722 57.485,136.43 57.087,137.415 L55.68,140.932 Z"/>
    <path fill="#DEDEDD" d="M53.003 8.347C51.976 9.351 50.668 10.018 49.252 10.259 48.531 10.376 48.001 11 48.003 11.731L48.003 130.125C48.001 130.856 48.53 131.48 49.251 131.598 50.667 131.839 51.976 132.506 53.003 133.509L53.003 8.347M58.755 10.259L58.754 10.259C57.338 10.018 56.03 9.351 55.003 8.347L55.003 133.509C56.03 132.506 57.338 131.839 58.754 131.598 59.476 131.481 60.005 130.856 60.003 130.125L60.003 11.731C60.005 11.001 59.476 10.377 58.755 10.259"/>
    <path fill="#475059" d="M77.68,138.932 L78.326,138.932 L79.229,136.673 C79.888,135.04 81.348,133.866 83.084,133.572 C84.771,133.295 86.007,131.835 86.003,130.125 L86.003,11.732 C86.007,10.022 84.771,8.562 83.084,8.285 C81.348,7.991 79.888,6.817 79.229,5.184 L78.326,2.925 L77.68,2.925 L76.777,5.184 C76.118,6.817 74.659,7.991 72.923,8.285 C71.236,8.562 69.999,10.022 70.003,11.732 L70.003,130.125 C69.999,131.835 71.236,133.295 72.923,133.572 C74.659,133.866 76.118,135.04 76.777,136.672 L77.68,138.932 Z M79.68,140.932 L76.326,140.932 L74.92,137.415 C74.522,136.43 73.642,135.722 72.595,135.544 C69.941,135.11 67.996,132.814 68.003,130.125 L68.003,11.732 C67.996,9.043 69.941,6.747 72.595,6.313 C73.642,6.135 74.522,5.426 74.92,4.441 L76.326,0.925 L79.68,0.925 L81.087,4.442 C81.484,5.427 82.365,6.135 83.412,6.313 C86.065,6.748 88.01,9.043 88.003,11.732 L88.003,130.125 C88.01,132.813 86.065,135.109 83.412,135.544 C82.365,135.722 81.484,136.43 81.087,137.415 L79.68,140.932 Z"/>
    <path fill="#DEDEDD" d="M77.003 8.347C75.976 9.351 74.668 10.018 73.252 10.259 72.531 10.376 72.001 11 72.003 11.731L72.003 130.125C72.001 130.856 72.53 131.48 73.251 131.598 74.667 131.839 75.976 132.506 77.003 133.509L77.003 8.347M82.755 10.259L82.754 10.259C81.338 10.018 80.03 9.351 79.003 8.347L79.003 133.509C80.03 132.506 81.338 131.839 82.754 131.598 83.476 131.481 84.006 130.856 84.003 130.125L84.003 11.731C84.005 11.001 83.476 10.377 82.755 10.259"/>
    <path fill="#475059" d="M101.68,138.932 L102.326,138.932 L103.229,136.673 C103.888,135.04 105.348,133.866 107.084,133.572 C108.771,133.295 110.007,131.835 110.003,130.125 L110.003,11.732 C110.007,10.022 108.771,8.562 107.084,8.285 C105.348,7.991 103.888,6.817 103.229,5.184 L102.326,2.925 L101.68,2.925 L100.777,5.184 C100.118,6.817 98.659,7.991 96.923,8.285 C95.236,8.562 93.999,10.022 94.003,11.732 L94.003,130.125 C93.999,131.835 95.236,133.295 96.923,133.572 C98.659,133.866 100.118,135.04 100.777,136.672 L101.68,138.932 Z M103.68,140.932 L100.326,140.932 L98.92,137.415 C98.522,136.43 97.642,135.722 96.595,135.544 C93.941,135.11 91.996,132.814 92.003,130.125 L92.003,11.732 C91.996,9.043 93.941,6.747 96.595,6.313 C97.642,6.135 98.522,5.426 98.92,4.441 L100.326,0.925 L103.68,0.925 L105.087,4.442 C105.485,5.427 106.365,6.135 107.412,6.313 C110.065,6.748 112.01,9.043 112.003,11.732 L112.003,130.125 C112.01,132.813 110.065,135.109 107.412,135.544 C106.365,135.722 105.485,136.43 105.087,137.415 L103.68,140.932 Z"/>
    <path fill="#DEDEDD" d="M101.003 8.347C99.976 9.351 98.668 10.018 97.252 10.259 96.531 10.376 96.001 11 96.003 11.731L96.003 130.125C96.001 130.856 96.53 131.48 97.251 131.598 98.667 131.839 99.976 132.506 101.003 133.509L101.003 8.347M106.755 10.259L106.754 10.259C105.338 10.018 104.03 9.351 103.003 8.347L103.003 133.509C104.03 132.506 105.339 131.839 106.754 131.598 107.476 131.481 108.005 130.856 108.003 130.125L108.003 11.731C108.005 11.001 107.476 10.377 106.755 10.259"/>
    <path fill="#475059" d="M125.68,138.932 L126.326,138.932 L127.229,136.673 C127.888,135.04 129.348,133.866 131.084,133.572 C132.771,133.295 134.007,131.835 134.003,130.125 L134.003,11.732 C134.007,10.022 132.771,8.562 131.084,8.285 C129.348,7.991 127.888,6.817 127.229,5.184 L126.326,2.925 L125.68,2.925 L124.777,5.184 C124.118,6.817 122.659,7.991 120.923,8.285 C119.236,8.562 117.999,10.022 118.003,11.732 L118.003,130.125 C117.999,131.835 119.236,133.295 120.923,133.572 C122.659,133.866 124.118,135.04 124.777,136.672 L125.68,138.932 Z M127.68,140.932 L124.326,140.932 L122.92,137.415 C122.522,136.43 121.642,135.722 120.595,135.544 C117.942,135.11 115.996,132.814 116.003,130.125 L116.003,11.732 C115.996,9.043 117.942,6.747 120.595,6.313 C121.642,6.135 122.522,5.426 122.92,4.441 L124.326,0.925 L127.68,0.925 L129.087,4.442 C129.485,5.427 130.365,6.135 131.412,6.313 C134.065,6.748 136.01,9.043 136.003,11.732 L136.003,130.125 C136.01,132.813 134.065,135.109 131.412,135.544 C130.365,135.722 129.485,136.43 129.087,137.415 L127.68,140.932 Z"/>
    <path fill="#DEDEDD" d="M125.003 8.347C123.976 9.351 122.668 10.018 121.252 10.259 120.531 10.376 120.001 11 120.003 11.731L120.003 130.125C120.001 130.856 120.53 131.48 121.251 131.598 122.667 131.839 123.976 132.506 125.003 133.509L125.003 8.347M130.755 10.259L130.754 10.259C129.338 10.018 128.03 9.351 127.003 8.347L127.003 133.509C128.03 132.506 129.339 131.839 130.754 131.598 131.476 131.481 132.005 130.856 132.003 130.125L132.003 11.731C132.005 11.001 131.476 10.377 130.755 10.259"/>
    <path fill="#475059" d="M149.68,138.932 L150.326,138.932 L151.229,136.673 C151.888,135.04 153.348,133.866 155.084,133.572 C156.771,133.295 158.007,131.835 158.003,130.125 L158.003,11.732 C158.007,10.022 156.771,8.562 155.084,8.285 C153.348,7.991 151.888,6.817 151.229,5.184 L150.326,2.925 L149.68,2.925 L148.777,5.184 C148.118,6.817 146.659,7.991 144.923,8.285 C143.236,8.562 141.999,10.022 142.003,11.732 L142.003,130.125 C141.999,131.835 143.236,133.295 144.923,133.572 C146.659,133.866 148.118,135.04 148.777,136.672 L149.68,138.932 Z M151.68,140.932 L148.326,140.932 L146.92,137.415 C146.522,136.43 145.642,135.722 144.595,135.544 C141.941,135.11 139.996,132.814 140.003,130.125 L140.003,11.732 C139.996,9.043 141.941,6.747 144.595,6.313 C145.642,6.135 146.522,5.426 146.92,4.441 L148.326,0.925 L151.68,0.925 L153.087,4.442 C153.485,5.427 154.365,6.135 155.412,6.313 C158.065,6.748 160.01,9.043 160.003,11.732 L160.003,130.125 C160.01,132.813 158.065,135.109 155.412,135.544 C154.365,135.722 153.485,136.43 153.087,137.415 L151.68,140.932 Z"/>
    <path fill="#DEDEDD" d="M149.003 8.347C147.976 9.351 146.668 10.018 145.252 10.259 144.531 10.376 144.001 11 144.003 11.731L144.003 130.125C144.001 130.856 144.53 131.48 145.251 131.598 146.667 131.839 147.976 132.506 149.003 133.509L149.003 8.347M154.755 10.259L154.754 10.259C153.338 10.018 152.03 9.351 151.003 8.347L151.003 133.509C152.03 132.506 153.339 131.839 154.754 131.598 155.476 131.481 156.005 130.856 156.003 130.125L156.003 11.731C156.005 11.001 155.476 10.377 154.755 10.259"/>
    <path fill="#475059" d="M176.092,123.932 L177.91,123.932 L178.354,122.683 L181.524,121.369 L182.723,121.938 L184.008,120.653 L183.438,119.456 L184.752,116.284 L186.001,115.84 L186.001,114.023 L184.752,113.578 L183.438,110.406 L184.008,109.21 L182.723,107.925 L181.524,108.493 L178.354,107.18 L177.91,105.932 L176.092,105.932 L175.647,107.18 L172.478,108.493 L171.279,107.925 L169.994,109.21 L170.563,110.406 L169.25,113.578 L168.001,114.023 L168.001,115.84 L169.25,116.284 L170.563,119.456 L169.994,120.653 L171.279,121.938 L172.478,121.369 L175.647,122.683 L176.092,123.932 Z M179.32,125.932 L174.682,125.932 L174.061,124.191 L172.532,123.557 L170.863,124.35 L167.582,121.069 L168.376,119.4 L167.742,117.87 L166.001,117.252 L166.001,112.611 L167.742,111.992 L168.376,110.463 L167.582,108.794 L170.863,105.513 L172.532,106.306 L174.061,105.672 L174.682,103.932 L179.32,103.932 L179.94,105.672 L181.47,106.306 L183.139,105.513 L186.42,108.794 L185.626,110.463 L186.26,111.992 L188.001,112.611 L188.001,117.252 L186.26,117.87 L185.626,119.4 L186.42,121.069 L183.139,124.35 L181.47,123.557 L179.94,124.191 L179.32,125.932 Z"/>
    <path fill="#475059" d="M177.001,111.932 C175.344,111.932 174.001,113.275 174.001,114.932 C174.001,116.589 175.344,117.932 177.001,117.932 C178.658,117.932 180.001,116.589 180.001,114.932 C179.999,113.276 178.657,111.934 177.001,111.932 Z M177.001,119.932 C174.24,119.932 172.001,117.693 172.001,114.932 C172.001,112.17 174.24,109.932 177.001,109.932 C179.762,109.932 182.001,112.17 182.001,114.932 C181.998,117.692 179.761,119.929 177.001,119.932 Z"/>
    <polygon fill="#475059" points="163.001 111.932 169.47 111.932 169.47 109.932 163.001 109.932"/>
    <polygon fill="#475059" points="163.001 119.932 169.47 119.932 169.47 117.932 163.001 117.932"/>
    <path fill="#475059" d="M160.003 120.932L162.003 120.932 162.003 108.932 160.003 108.932 160.003 120.932zM158.003 122.932L164.003 122.932 164.003 106.932 158.003 106.932 158.003 122.932zM176.092 35.878L177.91 35.878 178.354 34.63 181.524 33.317 182.723 33.885 184.008 32.6 183.438 31.404 184.752 28.232 186.001 27.787 186.001 25.97 184.752 25.526 183.438 22.354 184.008 21.158 182.723 19.872 181.524 20.441 178.354 19.127 177.91 17.878 176.092 17.878 175.647 19.127 172.478 20.441 171.279 19.872 169.994 21.158 170.563 22.354 169.25 25.526 168.001 25.97 168.001 27.787 169.25 28.232 170.563 31.404 169.994 32.6 171.279 33.885 172.478 33.317 175.647 34.63 176.092 35.878zM179.32 37.878L174.682 37.878 174.061 36.138 172.532 35.504 170.863 36.297 167.582 33.016 168.376 31.347 167.742 29.818 166.001 29.199 166.001 24.558 167.742 23.94 168.376 22.41 167.582 20.741 170.863 17.46 172.532 18.253 174.061 17.619 174.682 15.878 179.32 15.878 179.94 17.619 181.47 18.253 183.139 17.46 186.42 20.741 185.626 22.41 186.26 23.94 188.001 24.558 188.001 29.199 186.26 29.818 185.626 31.347 186.42 33.016 183.139 36.297 181.47 35.504 179.94 36.138 179.32 37.878z"/>
    <path fill="#475059" d="M177.001,23.878 C175.344,23.878 174.001,25.221 174.001,26.878 C174.001,28.535 175.344,29.878 177.001,29.878 C178.658,29.878 180.001,28.535 180.001,26.878 C179.999,25.222 178.657,23.88 177.001,23.878 Z M177.001,31.878 C174.24,31.878 172.001,29.64 172.001,26.878 C172.001,24.117 174.24,21.878 177.001,21.878 C179.762,21.878 182.001,24.117 182.001,26.878 C181.998,29.638 179.761,31.875 177.001,31.878 Z"/>
    <polygon fill="#475059" points="163.001 23.878 169.47 23.878 169.47 21.878 163.001 21.878"/>
    <polygon fill="#475059" points="163.001 31.878 169.47 31.878 169.47 29.878 163.001 29.878"/>
    <path fill="#475059" d="M160.003,32.879 L162.003,32.879 L162.003,20.879 L160.003,20.879 L160.003,32.879 Z M158.003,34.879 L164.003,34.879 L164.003,18.879 L158.003,18.879 L158.003,34.879 Z"/>
    <polygon fill="#475059" points="185.003 119.933 191.988 119.933 191.988 117.933 185.003 117.933"/>
    <polygon fill="#475059" points="185.003 111.932 191.988 111.932 191.988 109.932 185.003 109.932"/>
    <polygon fill="#475059" points="185.003 31.88 191.988 31.88 191.988 29.88 185.003 29.88"/>
    <polygon fill="#475059" points="185.003 23.878 191.988 23.878 191.988 21.878 185.003 21.878"/>
    <polygon fill="#48515A" points="183.045 69.954 185.045 69.954 185.045 65.954 183.045 65.954"/>
    <polygon fill="#48515A" points="183.045 79.954 185.045 79.954 185.045 75.954 183.045 75.954"/>
    <polygon fill="#48515A" points="187.045 73.954 191.045 73.954 191.045 71.954 187.045 71.954"/>
    <polygon fill="#48515A" points="177.045 73.954 181.045 73.954 181.045 71.954 177.045 71.954"/>
    <polygon fill="#48515A" points="6.939 5.916 8.939 5.916 8.939 1.916 6.939 1.916"/>
    <polygon fill="#48515A" points="6.939 15.916 8.939 15.916 8.939 11.916 6.939 11.916"/>
    <polygon fill="#48515A" points="10.939 9.916 14.939 9.916 14.939 7.916 10.939 7.916"/>
    <polygon fill="#48515A" points=".939 9.916 4.939 9.916 4.939 7.916 .939 7.916"/>
    <g transform="translate(113 141)">
      <mask id="cc465-b" fill="#fff">
        <use xlink:href="#cc465-a"/>
      </mask>
      <polygon fill="#48515A" points=".003 4 2.003 4 2.003 0 .003 0" mask="url(#cc465-b)"/>
      <polygon fill="#48515A" points=".003 13.94 2.003 13.94 2.003 10 .003 10" mask="url(#cc465-b)"/>
    </g>
    <polygon fill="#48515A" points="117.003 149 121.003 149 121.003 147 117.003 147"/>
    <polygon fill="#48515A" points="107.003 149 111.003 149 111.003 147 107.003 147"/>
    <path fill="#F58E70" d="M171.002,52.922 C172.107,52.922 173.002,53.817 173.002,54.922 C173.002,56.026 172.107,56.922 171.002,56.922 C169.897,56.922 169.002,56.026 169.002,54.922 C169.002,53.817 169.897,52.922 171.002,52.922"/>
    <path fill="#5FE0ED" d="M182.1,131.939 C184.309,131.939 186.1,133.73 186.1,135.939 C186.1,138.148 184.309,139.939 182.1,139.939 C179.891,139.939 178.1,138.148 178.1,135.939 C178.1,133.73 179.891,131.939 182.1,131.939"/>
    <path fill="#FFD15D" d="M8.996,71.903 C11.205,71.903 12.996,73.694 12.996,75.903 C12.996,78.112 11.205,79.903 8.996,79.903 C6.787,79.903 4.996,78.112 4.996,75.903 C4.996,73.694 6.787,71.903 8.996,71.903"/>
    <path fill="#48515A" d="M23.975,145.097 C22.362,145.053 21.019,146.326 20.976,147.938 C20.975,147.959 20.975,147.98 20.975,148 C20.943,149.679 22.278,151.065 23.956,151.097 C23.962,151.097 23.968,151.097 23.975,151.097 L91.156,151.097 L97.662,148.097 L91.155,145.097 L23.975,145.097 Z M91.596,153.097 L23.975,153.097 C21.201,153.08 18.964,150.822 18.975,148.048 C18.951,145.337 21.13,143.12 23.842,143.096 C23.886,143.096 23.93,143.096 23.975,143.097 L91.595,143.097 L102.437,148.097 L91.596,153.097 Z"/>
    <polygon fill="#48515A" points="29.951 152.097 31.951 152.097 31.951 144.097 29.951 144.097"/>
    <polygon fill="#48515A" points="30.951 149.097 90.951 149.097 90.951 147.097 30.951 147.097"/>
  </g>
</svg>
