<svg xmlns="http://www.w3.org/2000/svg" xmlns:xlink="http://www.w3.org/1999/xlink" width="192" height="175" viewBox="0 0 192 175">
  <defs>
    <polygon id="cc467-a" points=".877 0 153.123 0 153.123 61.94 .877 61.94"/>
  </defs>
  <g fill="none" fill-rule="evenodd">
    <g transform="translate(20 113)">
      <mask id="cc467-b" fill="#fff">
        <use xlink:href="#cc467-a"/>
      </mask>
      <polyline fill="#DFE0E0" points="150.958 10 152 1 2 1 3.042 10 150.958 10" mask="url(#cc467-b)"/>
      <path fill="#475059" d="M3.123,2 L6.779,33.579 C8.047,48.462 20.458,59.922 35.396,60 L118.604,60 C133.53,59.926 145.937,48.484 147.217,33.613 L150.877,2 L3.123,2 Z M118.604,62 L35.396,62 C19.43,61.921 6.159,49.681 4.79,33.774 L0.877,0 L153.123,0 L149.207,33.809 C147.825,49.703 134.558,61.925 118.604,62 Z" mask="url(#cc467-b)"/>
    </g>
    <path fill="#475059" d="M19 113L175 113 175 111 19 111 19 113zM17 115L177 115 177 109 17 109 17 115zM103.998 30.999L131.998 30.999 131.998 26.999 103.998 26.999 103.998 30.999zM101.998 32.999L133.998 32.999 133.998 24.999 101.998 24.999 101.998 32.999z"/>
    <path fill="#475059" d="M150.998,109 L152.998,109 L152.998,20.999 C152.998,11.058 144.939,2.999 134.998,2.999 C125.056,2.999 116.998,11.058 116.998,20.999 L116.998,24.999 L118.998,24.999 L118.998,20.999 C118.998,12.162 126.161,4.999 134.998,4.999 C143.834,4.999 150.998,12.162 150.998,20.999 L150.998,109 Z M154.998,111 L148.998,111 L148.998,20.999 C148.998,13.267 142.73,6.999 134.998,6.999 C127.266,6.999 120.998,13.267 120.998,20.999 L120.998,26.999 L114.998,26.999 L114.998,20.999 C114.998,9.953 123.952,0.999 134.998,0.999 C146.043,0.999 154.998,9.953 154.998,20.999 L154.998,111 Z"/>
    <path fill="#475059" d="M141.001 109L145 109 145 103.001 141.001 103.001 141.001 109zM139.001 111L147 111 147 101.001 139.001 101.001 139.001 111zM159.012 109L163.011 109 163.011 103.001 159.012 103.001 159.012 109zM157.012 111L165.011 111 165.011 101.001 157.012 101.001 157.012 111z"/>
    <path fill="#5FE0ED" d="M106 35C107.105 35 108 35.895 108 37L108 71C108 72.105 107.105 73 106 73 104.895 73 104 72.105 104 71L104 37C104 35.895 104.895 35 106 35M112 57C113.105 57 114 57.895 114 59L114 93C114 94.105 113.105 95 112 95 110.895 95 110 94.105 110 93L110 59C110 57.895 110.895 57 112 57M118 35C119.105 35 120 35.895 120 37L120 71C120 72.105 119.105 73 118 73 116.895 73 116 72.105 116 71L116 37C116 35.895 116.895 35 118 35M124 63C125.105 63 126 63.895 126 65L126 99C126 100.105 125.105 101 124 101 122.895 101 122 100.105 122 99L122 65C122 63.895 122.895 63 124 63M130 51C131.105 51 132 51.895 132 53L132 87C132 88.105 131.105 89 130 89 128.895 89 128 88.105 128 87L128 53C128 51.895 128.895 51 130 51M128 47C128 48.105 128.895 49 130 49 131.105 49 132 48.105 132 47L132 35 128 35 128 47M122 59C122 60.105 122.895 61 124 61 125.105 61 126 60.105 126 59L126 35 122 35 122 59M110 53C110 54.105 110.895 55 112 55 113.105 55 114 54.105 114 53L114 35 110 35 110 53M132 93C132 91.895 131.105 91 130 91 128.895 91 128 91.895 128 93L128 107 132 107 132 93M126 105C126 103.895 125.105 103 124 103 122.895 103 122 103.895 122 105L122 107 126 107 126 105M120 77C120 75.895 119.105 75 118 75 116.895 75 116 75.895 116 77L116 107 120 107 120 77M114 107L114 99C114 97.895 113.105 97 112 97 110.895 97 110 97.895 110 99L110 107 114 107M108 107L108 77C108 75.895 107.105 75 106 75 104.895 75 104 75.895 104 77L104 107 108 107"/>
    <polygon fill="#48515A" points="6 139 8 139 8 135 6 135"/>
    <polygon fill="#48515A" points="6 149 8 149 8 145 6 145"/>
    <polygon fill="#48515A" points="10 143 14 143 14 141 10 141"/>
    <polygon fill="#48515A" points="0 143 4 143 4 141 0 141"/>
    <polygon fill="#48515A" points="172 79 174 79 174 75 172 75"/>
    <polygon fill="#48515A" points="172 89 174 89 174 85 172 85"/>
    <polygon fill="#48515A" points="176 83 180 83 180 81 176 81"/>
    <polygon fill="#48515A" points="166 83 170 83 170 81 166 81"/>
    <polygon fill="#48515A" points="184 151 186 151 186 147 184 147"/>
    <polygon fill="#48515A" points="184 161 186 161 186 157 184 157"/>
    <polygon fill="#48515A" points="188 155 192 155 192 153 188 153"/>
    <polygon fill="#48515A" points="178 155 182 155 182 153 178 153"/>
    <path fill="#FFD15D" d="M49.5,87 C50.328,87 51,87.672 51,88.5 C51,89.328 50.328,90 49.5,90 C48.671,90 48,89.328 48,88.5 C48,87.672 48.671,87 49.5,87"/>
    <path fill="#FFD15D" d="M49.5,87.5 C48.948,87.5 48.5,87.947 48.5,88.5 C48.5,89.052 48.947,89.499 49.499,89.5 C50.052,89.5 50.499,89.052 50.499,88.5 C50.499,87.948 50.052,87.501 49.5,87.5 Z M49.5,90.5 C48.396,90.5 47.5,89.604 47.5,88.5 C47.5,87.396 48.395,86.5 49.499,86.5 C50.604,86.5 51.499,87.395 51.499,88.5 C51.498,89.604 50.604,90.498 49.5,90.5 Z"/>
    <path fill="#5FE0ED" d="M95.5 98C96.328 98 97 98.672 97 99.5 97 100.328 96.328 101 95.5 101 94.671 101 94 100.328 94 99.5 94 98.672 94.671 98 95.5 98M88.5 102C89.328 102 90 102.672 90 103.5 90 104.328 89.328 105 88.5 105 87.672 105 87 104.328 87 103.5 87 102.672 87.672 102 88.5 102M81.5 91C82.328 91 83 91.672 83 92.5 83 93.328 82.328 94 81.5 94 80.672 94 80 93.328 80 92.5 80 91.672 80.672 91 81.5 91M139.5 89C140.328 89 141 89.672 141 90.5 141 91.328 140.328 92 139.5 92 138.672 92 138 91.328 138 90.5 138 89.672 138.672 89 139.5 89M169.5 97C170.328 97 171 97.672 171 98.5 171 99.328 170.328 100 169.5 100 168.672 100 168 99.328 168 98.5 168 97.672 168.672 97 169.5 97"/>
    <path fill="#F58E70" d="M69.5,65 C70.328,65 71,65.672 71,66.5 C71,67.328 70.328,68 69.5,68 C68.672,68 68,67.328 68,66.5 C68,65.672 68.672,65 69.5,65"/>
    <path fill="#5FE0ED" d="M60.5,131 C61.328,131 62,131.672 62,132.5 C62,133.328 61.328,134 60.5,134 C59.672,134 59,133.328 59,132.5 C59,131.672 59.672,131 60.5,131"/>
  </g>
</svg>
