<svg xmlns="http://www.w3.org/2000/svg" width="193" height="171" viewBox="0 0 193 171">
  <g fill="none" fill-rule="evenodd">
    <path fill="#5FE0ED" d="M190,142.778 C190,141.674 189.105,140.778 188,140.778 C186.895,140.778 186,141.674 186,142.778 C186,143.883 185.105,144.778 184,144.778 C182.895,144.778 182,143.883 182,142.778 C182,141.674 181.105,140.778 180,140.778 C178.895,140.778 178,141.674 178,142.778 C178,143.883 177.105,144.778 176,144.778 C174.895,144.778 174,143.883 174,142.778 C174,141.674 173.105,140.778 172,140.778 C170.895,140.778 170,141.674 170,142.778 C170,143.883 169.105,144.778 168,144.778 C166.895,144.778 166,143.883 166,142.778 C166,141.674 165.105,140.778 164,140.778 C162.895,140.778 162,141.674 162,142.778 C162,143.883 161.105,144.778 160,144.778 C158.895,144.778 158,143.883 158,142.778 C158,141.674 157.105,140.778 156,140.778 C154.895,140.778 154,141.674 154,142.778 C154,143.883 153.105,144.778 152,144.778 C150.895,144.778 150,143.883 150,142.778 C150,141.674 149.105,140.778 148,140.778 C146.895,140.778 146,141.674 146,142.778 C146,143.883 145.105,144.778 144,144.778 C142.895,144.778 142,143.883 142,142.778 C142,141.674 141.105,140.778 140,140.778 C138.895,140.778 138,141.674 138,142.778 C138,143.883 137.105,144.778 136,144.778 C134.895,144.778 134,143.883 134,142.778 C134,141.674 133.105,140.778 132,140.778 C130.895,140.778 130,141.674 130,142.778 C130,143.883 129.105,144.778 128,144.778 C126.895,144.778 126,143.883 126,142.778 C126,141.674 125.105,140.778 124,140.778 C122.895,140.778 122,141.674 122,142.778 C122,143.883 121.105,144.778 120,144.778 C118.895,144.778 118,143.883 118,142.778 C118,141.674 117.105,140.778 116,140.778 C114.895,140.778 114,141.674 114,142.778 C114,143.883 113.105,144.778 112,144.778 C110.895,144.778 110,143.883 110,142.778 C110,141.674 109.105,140.778 108,140.778 C106.895,140.778 106,141.674 106,142.778 C106,143.883 105.105,144.778 104,144.778 C102.895,144.778 102,143.883 102,142.778 C102,141.674 101.105,140.778 100,140.778 C98.895,140.778 98,141.674 98,142.778 C98,143.883 97.105,144.778 96,144.778 C94.895,144.778 94,143.883 94,142.778 C94,141.674 93.105,140.778 92,140.778 C90.895,140.778 90,141.674 90,142.778 C90,143.883 89.105,144.778 88,144.778 C86.895,144.778 86,143.883 86,142.778 C86,141.674 85.105,140.778 84,140.778 C82.895,140.778 82,141.674 82,142.778 C82,143.883 81.105,144.778 80,144.778 C78.895,144.778 78,143.883 78,142.778 C78,141.674 77.105,140.778 76,140.778 C74.895,140.778 74,141.674 74,142.778 C74,143.883 73.105,144.778 72,144.778 C70.895,144.778 70,143.883 70,142.778 C70,141.674 69.105,140.778 68,140.778 C66.895,140.778 66,141.674 66,142.778 C66,143.883 65.105,144.778 64,144.778 C62.895,144.778 62,143.883 62,142.778 C62,141.674 61.105,140.778 60,140.778 C58.895,140.778 58,141.674 58,142.778 C58,143.883 57.105,144.778 56,144.778 C54.895,144.778 54,143.883 54,142.778 C54,141.674 53.105,140.778 52,140.778 C50.895,140.778 50,141.674 50,142.778 C50,143.883 49.105,144.778 48,144.778 C46.895,144.778 46,143.883 46,142.778 C46,141.674 45.105,140.778 44,140.778 C42.895,140.778 42,141.674 42,142.778 C42,143.883 41.105,144.778 40,144.778 C38.895,144.778 38,143.883 38,142.778 C38,141.674 37.105,140.778 36,140.778 C34.895,140.778 34,141.674 34,142.778 C34,143.883 33.105,144.778 32,144.778 C30.895,144.778 30,143.883 30,142.778 C30,141.674 29.105,140.778 28,140.778 C26.895,140.778 26,141.674 26,142.778 C26,143.883 25.105,144.778 24,144.778 C22.895,144.778 22,143.883 22,142.778 C22,141.674 21.105,140.778 20,140.778 C18.895,140.778 18,141.674 18,142.778 C18,143.883 17.105,144.778 16,144.778 C14.895,144.778 14,143.883 14,142.778 C14,141.674 13.105,140.778 12,140.778 C10.895,140.778 10,141.674 10,142.778 C10,143.883 9.105,144.778 8,144.778 C6.895,144.778 6,143.883 6,142.778 C6,141.674 5.105,140.778 4,140.778 C2.895,140.778 2,141.674 2,142.778 C2,143.883 1.105,144.778 0,144.778 L0,152.778 L192,152.778 L192,144.778 C190.895,144.778 190,143.883 190,142.778"/>
    <polyline fill="#DEDEDD" points="133.058 38.653 145.058 49.153 145.058 27.264 133.058 27.264 133.058 38.653"/>
    <polyline fill="#475059" points="149.058 56.351 147.058 56.351 147.058 25.264 131.058 25.264 131.058 40.264 129.058 40.264 129.058 23.264 149.058 23.264 149.058 56.351"/>
    <polyline fill="#F58E70" points="158.058 63.264 96.058 9.248 34.058 63.264 30.082 59.003 96.058 1.275 162.033 59.003 158.058 63.264"/>
    <polygon fill="#475059" points="43.058 96.025 45.058 96.025 45.058 54.734 43.058 54.734"/>
    <polygon fill="#475059" points="43.058 108.778 45.058 108.778 45.058 100.147 43.058 100.147"/>
    <polygon fill="#475059" points="147.058 108.778 149.058 108.778 149.058 100.099 147.058 100.099"/>
    <polygon fill="#475059" points="147.058 95.769 149.058 95.769 149.058 55.758 147.058 55.758"/>
    <polyline fill="#475059" points="34.707 64.025 33.408 62.505 96.058 8.949 158.707 62.504 157.408 64.024 96.058 11.58 34.707 64.025"/>
    <polygon fill="#48515A" points="181.103 90.77 183.103 90.77 183.103 86.77 181.103 86.77"/>
    <polygon fill="#48515A" points="181.103 100.77 183.103 100.77 183.103 96.77 181.103 96.77"/>
    <polygon fill="#48515A" points="185.103 94.77 189.103 94.77 189.103 92.77 185.103 92.77"/>
    <polygon fill="#48515A" points="175.103 94.77 179.103 94.77 179.103 92.77 175.103 92.77"/>
    <polygon fill="#48515A" points="155.087 10.758 157.087 10.758 157.087 6.758 155.087 6.758"/>
    <polygon fill="#48515A" points="155.087 20.758 157.087 20.758 157.087 16.758 155.087 16.758"/>
    <polygon fill="#48515A" points="159.087 14.758 163.087 14.758 163.087 12.758 159.087 12.758"/>
    <polygon fill="#48515A" points="149.087 14.758 153.087 14.758 153.087 12.758 149.087 12.758"/>
    <polygon fill="#48515A" points="24.009 80.8 26.009 80.8 26.009 76.8 24.009 76.8"/>
    <polygon fill="#48515A" points="24.009 90.8 26.009 90.8 26.009 86.8 24.009 86.8"/>
    <polygon fill="#48515A" points="28.009 84.8 32.009 84.8 32.009 82.8 28.009 82.8"/>
    <polygon fill="#48515A" points="18.009 84.8 22.009 84.8 22.009 82.8 18.009 82.8"/>
    <path fill="#F58E70" d="M128.058.77C129.162.77 130.058 1.665 130.058 2.77 130.058 3.875 129.162 4.77 128.058 4.77 126.953 4.77 126.058 3.875 126.058 2.77 126.058 1.665 126.953.77 128.058.77M166.058 68.77C167.162 68.77 168.058 69.665 168.058 70.77 168.058 71.875 167.162 72.77 166.058 72.77 164.953 72.77 164.058 71.875 164.058 70.77 164.058 69.665 164.953 68.77 166.058 68.77"/>
    <path fill="#DEDEDD" d="M48.07,22.74 C49.174,22.74 50.07,23.635 50.07,24.74 C50.07,25.845 49.174,26.74 48.07,26.74 C46.965,26.74 46.07,25.845 46.07,24.74 C46.07,23.635 46.965,22.74 48.07,22.74"/>
    <polygon fill="#48515A" points="101.058 153.77 192.002 153.77 192.002 151.77 101.058 151.77"/>
    <polygon fill="#48515A" points=".002 153.77 91.058 153.77 91.058 151.77 .002 151.77"/>
    <path fill="#48515A" d="M20,35.818 C18.388,35.775 17.045,37.046 17.001,38.659 C17.001,38.68 17,38.701 17,38.721 C16.968,40.4 18.302,41.786 19.981,41.818 C19.987,41.818 19.994,41.818 20,41.818 L87.182,41.818 L93.688,38.818 L87.182,35.818 L20,35.818 Z M87.621,43.818 L20,43.818 C17.227,43.802 14.99,41.544 15,38.77 C14.976,36.058 17.156,33.841 19.867,33.818 C19.912,33.817 19.956,33.818 20,33.818 L87.621,33.818 L98.464,38.818 L87.621,43.818 Z"/>
    <polygon fill="#48515A" points="25.977 42.818 27.977 42.818 27.977 34.818 25.977 34.818"/>
    <polygon fill="#48515A" points="26.977 39.818 86.977 39.818 86.977 37.818 26.977 37.818"/>
    <path fill="#475059" d="M42.049,98.773 L149.056,98.773 L149.056,96.771 L42.049,96.771 L42.049,98.773 Z M40.049,100.773 L151.056,100.773 L151.056,94.771 L40.049,94.771 L40.049,100.773 Z"/>
    <polyline fill="#DEDEDD" points=".002 155.611 .002 170.769 192.002 171 192.002 155.842 .002 155.611"/>
    <path fill="#48515A" d="M2.001,151.778 L7,151.778 L7,117.154 L4.5,114.297 L2.001,117.154 L2.001,151.778 Z M9,153.778 L0.001,153.778 L0.001,116.403 L4.5,111.26 L9,116.402 L9,153.778 Z"/>
    <path fill="#48515A" d="M9,151.778 L15,151.778 L15,117.192 L12,114.192 L9,117.192 L9,151.778 Z M17,153.778 L7,153.778 L7,116.364 L12,111.364 L17,116.364 L17,153.778 Z"/>
    <path fill="#48515A" d="M17,151.778 L23,151.778 L23,117.192 L20,114.192 L17,117.192 L17,151.778 Z M25,153.778 L15,153.778 L15,116.364 L20,111.364 L25,116.364 L25,153.778 Z"/>
    <path fill="#48515A" d="M25,151.778 L31,151.778 L31,117.192 L28,114.192 L25,117.192 L25,151.778 Z M33,153.778 L23,153.778 L23,116.364 L28,111.364 L33,116.364 L33,153.778 Z"/>
    <path fill="#48515A" d="M33,151.778 L39,151.778 L39,117.192 L36,114.192 L33,117.192 L33,151.778 Z M41,153.778 L31,153.778 L31,116.364 L36,111.364 L41,116.364 L41,153.778 Z"/>
    <path fill="#48515A" d="M41,151.778 L47,151.778 L47,117.192 L44,114.192 L41,117.192 L41,151.778 Z M49,153.778 L39,153.778 L39,116.364 L44,111.364 L49,116.364 L49,153.778 Z"/>
    <path fill="#48515A" d="M49,151.778 L55,151.778 L55,117.192 L52,114.192 L49,117.192 L49,151.778 Z M57,153.778 L47,153.778 L47,116.364 L52,111.364 L57,116.364 L57,153.778 Z"/>
    <path fill="#48515A" d="M57,151.778 L63,151.778 L63,117.192 L60,114.192 L57,117.192 L57,151.778 Z M65,153.778 L55,153.778 L55,116.364 L60,111.364 L65,116.364 L65,153.778 Z"/>
    <path fill="#48515A" d="M65,151.778 L71,151.778 L71,117.192 L68,114.192 L65,117.192 L65,151.778 Z M73,153.778 L63,153.778 L63,116.364 L68,111.364 L73,116.364 L73,153.778 Z"/>
    <path fill="#48515A" d="M73,151.778 L79,151.778 L79,117.192 L76,114.192 L73,117.192 L73,151.778 Z M81,153.778 L71,153.778 L71,116.364 L76,111.364 L81,116.364 L81,153.778 Z"/>
    <path fill="#48515A" d="M81,151.778 L87,151.778 L87,117.192 L84,114.192 L81,117.192 L81,151.778 Z M89,153.778 L79,153.778 L79,116.364 L84,111.364 L89,116.364 L89,153.778 Z"/>
    <path fill="#48515A" d="M89,151.778 L95,151.778 L95,117.192 L92,114.192 L89,117.192 L89,151.778 Z M97,153.778 L87,153.778 L87,116.364 L92,111.364 L97,116.364 L97,153.778 Z"/>
    <path fill="#48515A" d="M97,151.778 L103,151.778 L103,117.192 L100,114.192 L97,117.192 L97,151.778 Z M105,153.778 L95,153.778 L95,116.364 L100,111.364 L105,116.364 L105,153.778 Z"/>
    <path fill="#48515A" d="M105,151.778 L111,151.778 L111,117.192 L108,114.192 L105,117.192 L105,151.778 Z M113,153.778 L103,153.778 L103,116.364 L108,111.364 L113,116.364 L113,153.778 Z"/>
    <path fill="#48515A" d="M113,151.778 L119,151.778 L119,117.192 L116,114.192 L113,117.192 L113,151.778 Z M121,153.778 L111,153.778 L111,116.364 L116,111.364 L121,116.364 L121,153.778 Z"/>
    <path fill="#48515A" d="M121,151.778 L127,151.778 L127,117.192 L124,114.192 L121,117.192 L121,151.778 Z M129,153.778 L119,153.778 L119,116.364 L124,111.364 L129,116.364 L129,153.778 Z"/>
    <path fill="#48515A" d="M129,151.778 L135,151.778 L135,117.192 L132,114.192 L129,117.192 L129,151.778 Z M137,153.778 L127,153.778 L127,116.364 L132,111.364 L137,116.364 L137,153.778 Z"/>
    <path fill="#48515A" d="M137,151.778 L143,151.778 L143,117.192 L140,114.192 L137,117.192 L137,151.778 Z M145,153.778 L135,153.778 L135,116.364 L140,111.364 L145,116.364 L145,153.778 Z"/>
    <path fill="#48515A" d="M145,151.778 L151,151.778 L151,117.192 L148,114.192 L145,117.192 L145,151.778 Z M153,153.778 L143,153.778 L143,116.364 L148,111.364 L153,116.364 L153,153.778 Z"/>
    <path fill="#48515A" d="M153,151.778 L159,151.778 L159,117.192 L156,114.192 L153,117.192 L153,151.778 Z M161,153.778 L151,153.778 L151,116.364 L156,111.364 L161,116.364 L161,153.778 Z"/>
    <path fill="#48515A" d="M161,151.778 L167,151.778 L167,117.192 L164,114.192 L161,117.192 L161,151.778 Z M169,153.778 L159,153.778 L159,116.364 L164,111.364 L169,116.364 L169,153.778 Z"/>
    <path fill="#48515A" d="M169,151.778 L175,151.778 L175,117.192 L172,114.192 L169,117.192 L169,151.778 Z M177,153.778 L167,153.778 L167,116.364 L172,111.364 L177,116.364 L177,153.778 Z"/>
    <path fill="#48515A" d="M177,151.778 L183,151.778 L183,117.192 L180,114.192 L177,117.192 L177,151.778 Z M185,153.778 L175,153.778 L175,116.364 L180,111.364 L185,116.364 L185,153.778 Z"/>
    <path fill="#48515A" d="M185,151.778 L189.999,151.778 L189.999,117.154 L187.5,114.297 L185,117.154 L185,151.778 Z M191.999,153.778 L183,153.778 L183,116.402 L187.5,111.26 L191.999,116.403 L191.999,153.778 Z"/>
    <path fill="#5FE0ED" d="M102.028 80.778L108.028 80.778C111.341 80.778 114.028 78.092 114.028 74.778L114.028 60.778 102.028 60.778 102.028 80.778M136.041 80.778L130.041 80.778C126.727 80.778 124.041 78.092 124.041 74.778L124.041 60.778 136.041 60.778 136.041 80.778M56 80.778L62 80.778C65.314 80.778 68 78.092 68 74.778L68 60.778 56 60.778 56 80.778M90.013 80.778L84.013 80.778C80.699 80.778 78.013 78.092 78.013 74.778L78.013 60.778 90.013 60.778 90.013 80.778"/>
    <path fill="#475059" d="M57.014 83.778L89.014 83.778 89.014 61.778 57.014 61.778 57.014 83.778zM55.014 85.778L91.014 85.778 91.014 59.778 55.014 59.778 55.014 85.778zM103.014 83.778L135.014 83.778 135.014 61.778 103.014 61.778 103.014 83.778zM101.014 85.778L137.014 85.778 137.014 59.778 101.014 59.778 101.014 85.778z"/>
  </g>
</svg>
