<svg xmlns="http://www.w3.org/2000/svg" width="250" height="250" viewBox="0 0 250 250">
  <g fill="none" fill-rule="evenodd">
    <path fill="#DEDEDD" d="M131,101.001 C117.767,101.001 107,111.767 107,125.001 C107,138.234 117.767,149.001 131,149.001 C144.233,149.001 155,138.234 155,125.001 C155,111.767 144.233,101.001 131,101.001 Z M131,151.001 C116.664,151.001 105,139.337 105,125.001 C105,110.664 116.664,99.001 131,99.001 C145.337,99.001 157,110.664 157,125.001 C157,139.337 145.337,151.001 131,151.001 Z"/>
    <polygon fill="#475059" points="130 125 132 125 132 87 130 87"/>
    <path fill="#475059" d="M130.191,138 L131.809,138 L131,133.4 L130.191,138 Z M134.191,140 L127.809,140 L131,121.851 L134.191,140 Z"/>
    <path fill="#475059" d="M131,61 C95.71,61 67,89.711 67,125 C67,160.29 95.71,189 131,189 C166.29,189 195,160.29 195,125 C195,89.711 166.29,61 131,61 Z M131,191 C94.607,191 65,161.393 65,125 C65,88.608 94.607,59 131,59 C167.393,59 197,88.608 197,125 C197,161.393 167.393,191 131,191 Z"/>
    <polygon fill="#475059" points="142 60.999 144 60.999 144 33 142 33"/>
    <polygon fill="#475059" points="118 60.999 120 60.999 120 33 118 33"/>
    <polygon fill="#475059" points="118 217 120 217 120 189.002 118 189.002"/>
    <polygon fill="#475059" points="142 217 144 217 144 189.002 142 189.002"/>
    <path fill="#475059" d="M131,65.001 C97.916,65.001 71,91.916 71,125 C71,158.084 97.916,185 131,185 C164.084,185 191,158.084 191,125 C191,91.916 164.084,65.001 131,65.001 Z M131,187 C96.813,187 69,159.188 69,125 C69,90.813 96.813,63 131,63 C165.187,63 193,90.813 193,125 C193,159.188 165.187,187 131,187 Z"/>
    <path fill="#DEDEDD" d="M131,181.001 C118.814,181.001 107.229,177.155 97.498,169.879 C88.223,162.942 81.196,153.108 77.672,142.141 C81.31,124.077 90.996,107.456 104.986,95.294 C119.113,83.014 137.146,75.743 155.819,74.789 C164.959,79.315 172.692,86.247 178.205,94.861 C183.959,103.852 187,114.274 187,125.001 C187,155.879 161.878,181.001 131,181.001 Z M156.236,72.767 C148.606,69.073 140.046,67.001 131,67.001 C98.967,67.001 73,92.968 73,125.001 C73,131.009 73.914,136.805 75.61,142.255 C82.956,165.861 104.976,183.001 131,183.001 C163.033,183.001 189,157.033 189,125.001 C189,102.014 175.626,82.152 156.236,72.767 Z"/>
    <path fill="#475059" d="M189,125 L187,125 C187,94.122 161.879,69 131,69 C100.122,69 75,94.122 75,125 L73,125 C73,93.019 99.019,67.001 131,67.001 C162.981,67.001 189,93.019 189,125"/>
    <polygon fill="#475059" points="130 79.001 132 79.001 132 71.001 130 71.001"/>
    <polygon fill="#475059" points="77 126 85 126 85 124 77 124"/>
    <polygon fill="#475059" points="177 126 185 126 185 124 177 124"/>
    <polyline fill="#475059" points="84.735 152.867 83.735 151.134 90.663 147.134 91.663 148.867 84.735 152.867"/>
    <polyline fill="#475059" points="171.337 102.867 170.337 101.134 177.266 97.134 178.266 98.867 171.337 102.867"/>
    <polyline fill="#475059" points="104.866 172.266 103.134 171.266 107.134 164.338 108.866 165.338 104.866 172.266"/>
    <polyline fill="#475059" points="154.866 85.664 153.134 84.664 157.134 77.735 158.866 78.735 154.866 85.664"/>
    <polyline fill="#475059" points="157.134 172.266 153.134 165.338 154.866 164.338 158.866 171.266 157.134 172.266"/>
    <polyline fill="#475059" points="107.134 85.664 103.134 78.735 104.866 77.735 108.866 84.664 107.134 85.664"/>
    <polyline fill="#475059" points="177.266 152.867 170.337 148.867 171.337 147.134 178.266 151.134 177.266 152.867"/>
    <polyline fill="#475059" points="90.663 102.867 83.735 98.867 84.735 97.134 91.663 101.134 90.663 102.867"/>
    <polyline fill="#475059" points="77.293 130.703 77.118 128.711 79.11 128.537 79.285 130.529 77.293 130.703"/>
    <polyline fill="#475059" points="182.889 121.464 182.715 119.472 184.708 119.298 184.882 121.291 182.889 121.464"/>
    <polyline fill="#475059" points="77.994 135.362 77.647 133.393 79.617 133.045 79.963 135.015 77.994 135.362"/>
    <polyline fill="#475059" points="182.384 116.956 182.036 114.986 184.006 114.639 184.354 116.608 182.384 116.956"/>
    <polyline fill="#475059" points="79.099 139.943 78.581 138.011 80.513 137.493 81.031 139.425 79.099 139.943"/>
    <polyline fill="#475059" points="181.487 112.508 180.97 110.576 182.901 110.059 183.419 111.99 181.487 112.508"/>
    <polyline fill="#475059" points="80.599 144.409 79.915 142.53 81.794 141.846 82.478 143.725 80.599 144.409"/>
    <polyline fill="#475059" points="180.206 108.155 179.522 106.275 181.401 105.592 182.085 107.472 180.206 108.155"/>
    <polyline fill="#475059" points="82.482 148.728 81.637 146.916 83.449 146.07 84.295 147.883 82.482 148.728"/>
    <polyline fill="#475059" points="178.551 103.931 177.705 102.118 179.518 101.273 180.363 103.085 178.551 103.931"/>
    <polyline fill="#475059" points="87.339 156.793 86.192 155.154 87.831 154.007 88.977 155.646 87.339 156.793"/>
    <polyline fill="#475059" points="174.169 95.994 173.022 94.355 174.661 93.208 175.808 94.847 174.169 95.994"/>
    <polyline fill="#475059" points="90.276 160.477 88.991 158.945 90.523 157.66 91.808 159.192 90.276 160.477"/>
    <polyline fill="#475059" points="171.477 92.342 170.191 90.81 171.724 89.524 173.009 91.056 171.477 92.342"/>
    <polyline fill="#475059" points="93.523 163.892 92.109 162.478 93.523 161.063 94.938 162.477 93.523 163.892"/>
    <polyline fill="#475059" points="168.477 88.938 167.063 87.524 168.477 86.11 169.891 87.524 168.477 88.938"/>
    <polyline fill="#475059" points="97.056 167.01 95.523 165.725 96.809 164.192 98.341 165.478 97.056 167.01"/>
    <polyline fill="#475059" points="165.19 85.81 163.659 84.523 164.945 82.991 166.477 84.277 165.19 85.81"/>
    <polyline fill="#475059" points="100.846 169.809 99.207 168.661 100.354 167.023 101.993 168.17 100.846 169.809"/>
    <polyline fill="#475059" points="161.646 82.978 160.007 81.831 161.153 80.193 162.792 81.34 161.646 82.978"/>
    <polyline fill="#475059" points="153.883 78.295 152.07 77.45 152.915 75.638 154.728 76.482 153.883 78.295"/>
    <polyline fill="#475059" points="149.725 76.479 147.846 75.795 148.529 73.915 150.408 74.599 149.725 76.479"/>
    <polyline fill="#475059" points="145.425 75.031 143.493 74.514 144.011 72.582 145.942 73.1 145.425 75.031"/>
    <polyline fill="#475059" points="141.014 73.964 139.045 73.617 139.393 71.647 141.361 71.995 141.014 73.964"/>
    <polyline fill="#475059" points="136.528 73.285 134.536 73.111 134.71 71.119 136.702 71.293 136.528 73.285"/>
    <polyline fill="#475059" points="125.472 73.285 125.298 71.293 127.29 71.119 127.464 73.111 125.472 73.285"/>
    <polyline fill="#475059" points="120.985 73.964 120.638 71.994 122.608 71.647 122.955 73.617 120.985 73.964"/>
    <polyline fill="#475059" points="116.576 75.031 116.058 73.1 117.99 72.582 118.507 74.514 116.576 75.031"/>
    <polyline fill="#475059" points="112.275 76.479 111.591 74.6 113.47 73.915 114.154 75.795 112.275 76.479"/>
    <polyline fill="#475059" points="108.118 78.295 107.272 76.483 109.085 75.637 109.93 77.45 108.118 78.295"/>
    <polyline fill="#475059" points="161.153 169.808 160.007 168.17 161.646 167.023 162.792 168.662 161.153 169.808"/>
    <polyline fill="#475059" points="100.354 82.979 99.207 81.34 100.846 80.193 101.993 81.831 100.354 82.979"/>
    <polyline fill="#475059" points="164.945 167.01 163.659 165.478 165.19 164.192 166.477 165.724 164.945 167.01"/>
    <polyline fill="#475059" points="96.809 85.809 95.523 84.277 97.056 82.992 98.341 84.524 96.809 85.809"/>
    <polyline fill="#475059" points="168.477 163.892 167.063 162.477 168.477 161.063 169.891 162.478 168.477 163.892"/>
    <polyline fill="#475059" points="93.523 88.938 92.109 87.524 93.523 86.11 94.938 87.524 93.523 88.938"/>
    <polyline fill="#475059" points="171.724 160.477 170.191 159.192 171.477 157.66 173.009 158.945 171.724 160.477"/>
    <polyline fill="#475059" points="90.522 92.342 88.991 91.056 90.277 89.524 91.809 90.81 90.522 92.342"/>
    <polyline fill="#475059" points="174.661 156.793 173.022 155.646 174.169 154.007 175.808 155.154 174.661 156.793"/>
    <polyline fill="#475059" points="87.831 95.994 86.192 94.847 87.339 93.208 88.978 94.355 87.831 95.994"/>
    <polyline fill="#475059" points="179.518 148.728 177.705 147.883 178.551 146.07 180.363 146.916 179.518 148.728"/>
    <polyline fill="#475059" points="83.449 103.931 81.637 103.085 82.482 101.273 84.295 102.118 83.449 103.931"/>
    <polyline fill="#475059" points="181.401 144.409 179.522 143.725 180.206 141.846 182.085 142.53 181.401 144.409"/>
    <polyline fill="#475059" points="81.794 108.155 79.915 107.472 80.599 105.592 82.478 106.275 81.794 108.155"/>
    <polyline fill="#475059" points="182.901 139.943 180.97 139.425 181.487 137.493 183.419 138.011 182.901 139.943"/>
    <polyline fill="#475059" points="80.513 112.508 78.581 111.99 79.099 110.059 81.031 110.576 80.513 112.508"/>
    <polyline fill="#475059" points="184.006 135.362 182.036 135.015 182.384 133.045 184.354 133.393 184.006 135.362"/>
    <polyline fill="#475059" points="79.617 116.956 77.647 116.608 77.994 114.639 79.963 114.986 79.617 116.956"/>
    <polyline fill="#475059" points="184.708 130.703 182.715 130.529 182.889 128.537 184.882 128.711 184.708 130.703"/>
    <polyline fill="#475059" points="79.111 121.464 77.119 121.291 77.293 119.298 79.285 119.472 79.111 121.464"/>
    <path fill="#F58E70" d="M127,125.626 C127,123.416 128.791,121.626 131,121.626 C133.209,121.626 135,123.416 135,125.626 C135,127.835 133.209,129.626 131,129.626 C128.791,129.626 127,127.835 127,125.626"/>
    <path fill="#475059" d="M112 204L150 204 150 202 112 202 112 204zM110 206L152 206 152 200 110 200 110 206zM112 48L150 48 150 46 112 46 112 48zM110 50L152 50 152 44 110 44 110 50z"/>
    <polygon fill="#48515A" points="193 185 195 185 195 181 193 181"/>
    <polygon fill="#48515A" points="193 195 195 195 195 191 193 191"/>
    <polygon fill="#48515A" points="197 189 201 189 201 187 197 187"/>
    <polygon fill="#48515A" points="187 189 191 189 191 187 187 187"/>
    <polygon fill="#48515A" points="71 67 73 67 73 63 71 63"/>
    <polygon fill="#48515A" points="71 77.001 73 77.001 73 73.001 71 73.001"/>
    <polygon fill="#48515A" points="75 71 79 71 79 69 75 69"/>
    <polygon fill="#48515A" points="65 71 69 71 69 69 65 69"/>
    <polygon fill="#48515A" points="63 169 65 169 65 165 63 165"/>
    <polygon fill="#48515A" points="63 179 65 179 65 175 63 175"/>
    <polygon fill="#48515A" points="67 173 71 173 71 171 67 171"/>
    <polygon fill="#48515A" points="57 173 61 173 61 171 57 171"/>
    <path fill="#DEDEDD" d="M185 71.001C185 72.105 184.105 73.001 183 73.001 181.895 73.001 181 72.105 181 71.001 181 69.896 181.895 69.001 183 69.001 184.105 69.001 185 69.896 185 71.001M53 131.001C53 132.105 52.105 133.001 51 133.001 49.895 133.001 49 132.105 49 131.001 49 129.896 49.895 129.001 51 129.001 52.105 129.001 53 129.896 53 131.001"/>
    <path fill="#F58E70" d="M93,195.001 C93,196.105 92.105,197.001 91,197.001 C89.895,197.001 89,196.105 89,195.001 C89,193.896 89.895,193.001 91,193.001 C92.105,193.001 93,193.896 93,195.001"/>
    <path fill="#FFD15D" d="M107,57.001 C107,58.105 106.105,59.001 105,59.001 C103.895,59.001 103,58.105 103,57.001 C103,55.896 103.895,55.001 105,55.001 C106.105,55.001 107,55.896 107,57.001"/>
    <path fill="#5FE0ED" d="M191,167.001 C191,168.105 190.105,169.001 189,169.001 C187.895,169.001 187,168.105 187,167.001 C187,165.896 187.895,165.001 189,165.001 C190.105,165.001 191,165.896 191,167.001"/>
    <polygon fill="#475059" points="142 30.999 144 30.999 144 29 142 29"/>
    <polygon fill="#475059" points="118 30.999 120 30.999 120 29 118 29"/>
    <polygon fill="#475059" points="142 221 144 221 144 219 142 219"/>
    <polygon fill="#475059" points="118 221 120 221 120 219 118 219"/>
  </g>
</svg>
