<svg xmlns="http://www.w3.org/2000/svg" xmlns:xlink="http://www.w3.org/1999/xlink" width="250" height="250" viewBox="0 0 250 250">
  <defs>
    <polygon id="cc242-a" points="0 0 33 0 33 142.94 0 142.94"/>
  </defs>
  <g fill="none" fill-rule="evenodd">
    <path fill="#DEDEDD" d="M73.144 49.256L72.936 49.029C72.337 48.376 71.484 48 70.595 48 69.719 48 68.869 48.368 68.263 49.009 62.829 54.758 58.701 61.448 56 68.679L69.313 77 69.313 83.365 73.98 83.365 73.98 51.403C73.98 50.606 73.683 49.844 73.144 49.256M68.362 100.635L55 108.986C57.664 116.174 61.736 122.832 67.094 128.563 67.731 129.244 68.631 129.635 69.565 129.635 70.504 129.635 71.406 129.238 72.04 128.546L72.149 128.427C72.715 127.81 73.029 127.004 73.029 126.161L73.029 95 68.362 95 68.362 100.635"/>
    <polyline fill="#DEDEDD" points="167.757 92 69.242 92 68 90.757 68 87.243 69.242 86 173.757 86 167.757 92"/>
    <path fill="#48515A" d="M167.001794 167.000533C166.926794 167.000533 166.851794 166.992533 166.774794 166.975533 166.236794 166.850533 165.901794 166.313533 166.025794 165.775533L181.776794 97.7745333C181.902794 97.2355333 182.439794 96.9025333 182.977794 97.0255333 183.515794 97.1505333 183.850794 97.6875333 183.726794 98.2255333L167.975794 166.226533C167.867794 166.688533 167.456794 167.000533 167.001794 167.000533M126 88C121.038 88 117 92.038 117 97 117 101.962 121.038 105.999 126 105.999 130.962 105.999 135 101.962 135.001 96.999 135.001 92.037 130.962 88 126 88zM126 108C119.935 108 115 103.065 115 97 115 90.935 119.935 86 126 86 132.066 86 137.001 90.935 137.001 96.999 137 103.065 132.065 108 126 108z"/>
    <path fill="#F58E70" d="M126,90 C122.14,90 119,93.14 119,97 C119,100.859 122.14,103.999 126,103.999 C129.86,103.999 133,100.859 133,97 C133,93.14 129.86,90 126,90"/>
    <polyline fill="#48515A" points="94.138 184 86 184 115.254 106 137.05 106 157.152 158.675 155.282 159.388 135.673 108 116.64 108 88.886 182 92.748 182 118.748 112 133.556 112 153.652 165.011 151.781 165.72 132.175 114 120.138 114 94.138 184"/>
    <path fill="#48515A" d="M81,190.365 L99,190.365 L99,188.365 L95,188.365 L95,184 L85,184 L85,188.365 L81,188.365 L81,190.365 Z M101,192.365 L79,192.365 L79,186.365 L83,186.365 L83,182 L97,182 L97,186.365 L101,186.365 L101,192.365 Z"/>
    <polygon fill="#48515A" points="84 188 96 188 96 186 84 186"/>
    <polyline fill="#48515A" points="172 192.365 150 192.365 150 186.365 154 186.365 154 183 156 183 156 188.365 152 188.365 152 190.365 170 190.365 170 188.365 166 188.365 166 183 168 183 168 186.365 172 186.365 172 192.365"/>
    <polygon fill="#48515A" points="155 188 167 188 167 186 155 186"/>
    <polyline fill="#48515A" points="169.413 96 136.324 96 136.324 94 168.585 94 174.585 88 191.999 88 191.999 84 68.414 84 66 86.414 66 91.586 68.414 94 116.334 94 116.334 96 67.586 96 64 92.414 64 85.586 67.586 82 193.999 82 193.999 90 175.413 90 169.413 96"/>
    <path fill="#48515A" d="M184,93.001 C182.898,93.001 182,93.898 182,95 C182,96.104 182.898,97 184,97 C185.103,97 186,96.104 186,95 C186,93.898 185.103,93.001 184,93.001 Z M184,99.001 C181.794,99.001 180,97.206 180,95 C180,92.795 181.794,91 184,91 C186.206,91 188,92.795 188,95 C188,97.206 186.206,99.001 184,99.001 Z"/>
    <polyline fill="#48515A" points="180.498 96.665 176 89.014 177.725 88 182.223 95.651 180.498 96.665"/>
    <polyline fill="#48515A" points="186.724 96.665 185 95.651 189.497 88 191.222 89.014 186.724 96.665"/>
    <polygon fill="#48515A" points="84 95 86 95 86 83 84 83"/>
    <polygon fill="#48515A" points="112 95 114 95 114 83 112 83"/>
    <polygon fill="#48515A" points="174 89 176 89 176 83 174 83"/>
    <path fill="#48515A" d="M70.203,134 C68.166,134 66.201,133.148 64.81,131.66 C63.574,130.338 63.024,129.597 62.19,128.474 L61.501,127.55 L63.098,126.347 L63.796,127.281 C64.617,128.388 65.112,129.055 66.271,130.295 C67.285,131.378 68.718,132 70.203,132 C71.701,132 73.141,131.366 74.153,130.262 L74.258,130.148 C75.167,129.156 75.667,127.871 75.667,126.526 L75.667,51.403 C75.667,50.105 75.183,48.863 74.306,47.905 L74.098,47.678 C73.121,46.612 71.73,46 70.282,46 C68.859,46 67.479,46.596 66.496,47.635 C55.859,58.892 50,73.611 50,89.082 C50,99.478 52.69,109.729 57.777,118.727 L56.036,119.711 C50.779,110.414 48,99.822 48,89.082 C48,73.098 54.053,57.891 65.043,46.261 C66.402,44.824 68.311,44 70.282,44 C72.289,44 74.217,44.848 75.573,46.327 L75.78,46.554 C76.997,47.881 77.667,49.603 77.667,51.403 L77.667,126.526 C77.667,128.373 76.98,130.139 75.733,131.498 L75.628,131.612 C74.237,133.13 72.26,134 70.203,134"/>
    <polygon fill="#48515A" points="58 191.22 60 191.22 60 125 58 125"/>
    <polyline fill="#48515A" points="69.53 82.848 67.53 82.848 67.53 77.402 52 67.696 53.06 66 69.53 76.294 69.53 82.848"/>
    <polyline fill="#48515A" points="53.06 111.848 52 110.152 67.53 100.446 67.53 95 69.53 95 69.53 101.554 53.06 111.848"/>
    <polyline fill="#48515A" points="66 192 52 192 52 183 54 183 54 190 64 190 64 183 66 183 66 192"/>
    <polygon fill="#48515A" points="193 191.006 195 191.006 195 183 193 183"/>
    <polygon fill="#48515A" points="181 191.005 183 191.005 183 182 181 182"/>
    <polyline fill="#48515A" points="185 173 157 173 157 165 185 165 185 167 159 167 159 171 185 171 185 173"/>
    <path fill="#48515A" d="M185,167 C183.897,167 183,167.898 183,169 C183,170.103 183.897,171 185,171 C186.102,171 187,170.103 187,169 C187,167.898 186.102,167 185,167 Z M185,173 C182.794,173 181,171.206 181,169 C181,166.794 182.794,165 185,165 C187.206,165 189,166.794 189,169 C189,171.206 187.206,173 185,173 Z"/>
    <path fill="#48515A" d="M203.632,183 L185.632,183 C179.158,183 173.565,178.613 172.031,172.332 L173.975,171.857 C175.289,177.24 180.083,181 185.632,181 L201.632,181 L201.632,171 L197.506,171 L197.585,169.927 C197.609,169.597 197.632,169.301 197.632,169 C197.632,162.383 192.249,157 185.632,157 C180.027,157 175.223,160.805 173.947,166.253 L172,165.798 C173.487,159.441 179.094,155 185.632,155 C193.352,155 199.632,161.28 199.632,169 L203.632,169 L203.632,183"/>
    <polygon fill="#48515A" points="179 192 197 192 197 190 179 190"/>
    <path fill="#48515A" d="M159.414 181L163 181 163 157 159.414 157 153 163.414 153 174.586 159.414 181zM165 183L158.586 183 151 175.414 151 162.586 158.586 155 165 155 165 183zM185.387 179C181.267 179 177.512 176.415 176.042 172.566L177.911 171.854C179.086 174.932 182.091 177 185.387 177 189.798 177 193.387 173.411 193.387 169 193.387 164.589 189.798 161 185.387 161 182.049 161 179.03 163.104 177.877 166.235L176 165.544C177.443 161.63 181.215 159 185.387 159 190.901 159 195.387 163.486 195.387 169 195.387 174.514 190.901 179 185.387 179M59 122C58.449 122 58.001 122.449 58.001 123 58.001 123.552 58.449 124 59 124 59.552 124 60 123.552 60 123 60 122.449 59.552 122 59 122zM59 126C57.346 126 56 124.655 56 123 56 121.346 57.346 120 59 120 60.655 120 62 121.346 62 123 62 124.655 60.655 126 59 126z"/>
    <polygon fill="#48515A" points="216 171 218 171 218 167 216 167"/>
    <polygon fill="#48515A" points="216 181 218 181 218 177 216 177"/>
    <polygon fill="#48515A" points="210 175 214 175 214 173 210 173"/>
    <polygon fill="#48515A" points="221 175 225 175 225 173 221 173"/>
    <polygon fill="#48515A" points="38 133 40 133 40 129 38 129"/>
    <polygon fill="#48515A" points="38 143 40 143 40 139 38 139"/>
    <polygon fill="#48515A" points="42 137 46 137 46 135 42 135"/>
    <polygon fill="#48515A" points="32 137 36 137 36 135 32 135"/>
    <polygon fill="#48515A" points="146 59 148 59 148 55 146 55"/>
    <polygon fill="#48515A" points="150 53 154 53 154 51 150 51"/>
    <g transform="translate(111 51)">
      <mask id="cc242-b" fill="#fff">
        <use xlink:href="#cc242-a"/>
      </mask>
      <polygon fill="#48515A" points="29 2 33 2 33 0 29 0" mask="url(#cc242-b)"/>
      <path fill="#48515A" d="M5,135 C3.346,135 2,136.346 2,138 C2,139.655 3.346,141 5,141 C6.654,141 8,139.655 8,138 C8,136.346 6.654,135 5,135 Z M5,143 C2.243,143 0,140.757 0,138 C0,135.243 2.243,133 5,133 C7.757,133 10,135.243 10,138 C10,140.757 7.757,143 5,143 Z" mask="url(#cc242-b)"/>
    </g>
    <path fill="#DEDEDD" d="M100 65C100 66.105 99.105 67 98 67 96.895 67 96 66.105 96 65 96 63.896 96.895 63 98 63 99.105 63 100 63.896 100 65M88 141C88 142.105 87.105 143 86 143 84.895 143 84 142.105 84 141 84 139.896 84.895 139 86 139 87.105 139 88 139.896 88 141M166 121C166 122.105 165.105 123 164 123 162.895 123 162 122.105 162 121 162 119.896 162.895 119 164 119 165.105 119 166 119.896 166 121M202 141C202 139.896 202.895 139 204 139 205.105 139 206 139.896 206 141 206 142.105 205.105 143 204 143 202.895 143 202 142.105 202 141"/>
    <path fill="#F58E70" d="M172 72C172 73.657 170.657 75 169 75 167.343 75 166 73.657 166 72 166 70.343 167.343 69 169 69 170.657 69 172 70.343 172 72M80 158C80 157.448 80.448 157 81 157 81.552 157 82 157.448 82 158 82 158.553 81.552 159 81 159 80.448 159 80 158.553 80 158M192 139C192 140.105 191.105 141 190 141 188.895 141 188 140.105 188 139 188 137.896 188.895 137 190 137 191.105 137 192 137.896 192 139"/>
    <polygon fill="#DEDEDD" points="102 133 149.003 133 149.003 129 102 129"/>
    <path fill="#48515A" d="M103,132 L148.003,132 L148.003,130 L103,130 L103,132 Z M101,134 L150.003,134 L150.003,128 L101,128 L101,134 Z"/>
    <polygon fill="#DEDEDD" points="95 153 157.67 153 157.67 149 95 149"/>
    <path fill="#48515A" d="M96 152L156.67 152 156.67 150 96 150 96 152zM94 154L158.67 154 158.67 148 94 148 94 154zM56.317 86C55.039 86 54 87.04 54 88.318 54 89.595 55.039 90.635 56.317 90.635 57.595 90.635 58.634 89.595 58.634 88.318 58.634 87.04 57.595 86 56.317 86zM56.317 92.635C53.937 92.635 52 90.698 52 88.318 52 85.937 53.937 84 56.317 84 58.698 84 60.634 85.937 60.634 88.318 60.634 90.698 58.698 92.635 56.317 92.635z"/>
  </g>
</svg>
