<svg xmlns="http://www.w3.org/2000/svg" width="250" height="250" viewBox="0 0 250 250">
  <g fill="none" fill-rule="evenodd">
    <polyline fill="#F58E70" points="161.739 123.174 161.739 150.5 166.74 150.5 166.74 158.5 186.239 158.505 186.239 123.174 161.739 123.174"/>
    <polygon fill="#F58E70" points="161.739 197.5 186.239 197.5 186.239 165.838 161.739 165.838"/>
    <polygon fill="#475059" points="188.239 200.5 190.239 200.5 190.239 168.337 188.239 168.337"/>
    <polygon fill="#475059" points="188.239 158.338 190.239 158.338 190.239 126.175 188.239 126.175"/>
    <polygon fill="#475059" points="188.239 116.84 190.239 116.84 190.239 84.512 188.239 84.512"/>
    <path fill="#475059" d="M159.782,83.512 L192.739,83.512 L192.739,81.512 L159.782,81.512 L159.782,83.512 Z M157.782,85.512 L194.739,85.512 L194.739,79.512 L157.782,79.512 L157.782,85.512 Z"/>
    <polyline fill="#475059" points="194.739 205.5 166.787 205.5 166.787 203.5 192.739 203.5 192.739 201.5 166.787 201.5 166.787 199.5 194.739 199.5 194.739 205.5"/>
    <polyline fill="#475059" points="194.739 166.838 161.301 166.838 161.301 164.838 192.739 164.838 192.739 162.838 161.301 162.838 161.301 160.838 194.739 160.838 194.739 166.838"/>
    <polyline fill="#475059" points="194.739 124.507 161.739 124.507 161.739 122.507 192.739 122.507 192.739 120.507 161.739 120.507 161.739 118.507 194.739 118.507 194.739 124.507"/>
    <path fill="#475059" d="M167.239,79.512 L185.239,79.512 L185.239,77.512 L167.239,77.512 L167.239,79.512 Z M165.239,81.512 L187.239,81.512 L187.239,75.512 L165.239,75.512 L165.239,81.512 Z"/>
    <path fill="#475059" d="M171.239,75.512 L181.239,75.512 L181.239,72.512 C181.239,71.961 180.791,71.512 180.239,71.512 L172.239,71.512 C171.688,71.512 171.239,71.961 171.239,72.512 L171.239,75.512 Z M183.239,77.512 L169.239,77.512 L169.239,72.512 C169.239,70.858 170.585,69.512 172.239,69.512 L180.239,69.512 C181.894,69.512 183.239,70.858 183.239,72.512 L183.239,77.512 Z"/>
    <polyline fill="#F58E70" points="159.221 87.513 159.221 104.5 165.739 104.5 165.739 115.507 186.239 115.507 186.239 87.513 159.221 87.513"/>
    <polygon fill="#475059" points="59.739 104.833 61.739 104.833 61.739 64.5 59.739 64.5"/>
    <polygon fill="#475059" points="59.739 150.5 61.739 150.5 61.739 114.167 59.739 114.167"/>
    <polygon fill="#475059" points="59.739 200.5 61.739 200.5 61.739 160.667 59.739 160.667"/>
    <polyline fill="#FFD15D" points="104.743 111.167 104.743 119.5 121.739 119.5 121.739 143.5 104.743 143.5 104.743 150.5 155.739 150.5 155.739 111.167 104.743 111.167"/>
    <polygon fill="#FFD15D" points="63.739 104.5 83.243 104.5 83.243 66.5 63.739 66.5"/>
    <polygon fill="#FFD15D" points="63.739 150.5 83.243 150.5 83.243 111.167 63.739 111.167"/>
    <polygon fill="#FFD15D" points="63.739 197.5 83.243 197.5 83.243 157.833 63.739 157.833"/>
    <polygon fill="#FFD15D" points="104.743 103.5 155.739 103.5 155.739 67.501 104.743 67.501"/>
    <polygon fill="#FFD15D" points="104.743 197.5 155.739 197.5 155.739 157.833 104.743 157.833"/>
    <polygon fill="#475059" points="157.739 200.5 159.739 200.5 159.739 160.333 157.739 160.333"/>
    <polygon fill="#475059" points="157.739 150.333 159.739 150.333 159.739 114.167 157.739 114.167"/>
    <polygon fill="#475059" points="157.739 104.833 159.739 104.833 159.739 64.5 157.739 64.5"/>
    <path fill="#475059" d="M57.239 63.5L162.239 63.5 162.239 61.5 57.239 61.5 57.239 63.5zM55.239 65.5L164.239 65.5 164.239 59.5 55.239 59.5 55.239 65.5zM57.239 203.5L162.239 203.5 162.239 201.5 57.239 201.5 57.239 203.5zM55.239 205.5L164.239 205.5 164.239 199.5 55.239 199.5 55.239 205.5zM57.239 156.833L162.239 156.833 162.239 154.833 57.239 154.833 57.239 156.833zM55.239 158.833L164.239 158.833 164.239 152.833 55.239 152.833 55.239 158.833zM57.239 110.5L162.239 110.5 162.239 108.5 57.239 108.5 57.239 110.5zM55.239 112.5L164.239 112.5 164.239 106.5 55.239 106.5 55.239 112.5zM109.977 128.134C108.732 130.558 107.32 133.326 107.192 133.624 107.052 133.971 106.979 134.347 106.979 134.735 106.979 136.389 108.324 137.734 109.978 137.734 111.631 137.734 112.977 136.389 112.977 134.735 112.977 134.349 112.904 133.972 112.761 133.617 112.641 133.343 111.225 130.568 109.977 128.134zM109.978 139.734C107.222 139.734 104.979 137.492 104.979 134.735 104.979 134.089 105.101 133.46 105.341 132.868 105.516 132.434 108.254 127.11 109.089 125.488L109.979 123.761 110.867 125.489C111.707 127.123 114.46 132.484 114.615 132.869 114.855 133.464 114.977 134.091 114.977 134.735 114.977 137.492 112.734 139.734 109.978 139.734z"/>
    <path fill="#475059" d="M98.739 143.5L120.739 143.5 120.739 121.5 98.739 121.5 98.739 143.5zM96.739 145.5L122.739 145.5 122.739 119.5 96.739 119.5 96.739 145.5zM136.739 59.5L154.739 59.5 154.739 57.5 136.739 57.5 136.739 59.5zM134.739 61.5L156.739 61.5 156.739 55.5 134.739 55.5 134.739 61.5z"/>
    <path fill="#475059" d="M140.739,55.5 L150.739,55.5 L150.739,52.5 C150.739,51.949 150.291,51.5 149.739,51.5 L141.739,51.5 C141.188,51.5 140.739,51.949 140.739,52.5 L140.739,55.5 Z M152.739,57.5 L138.739,57.5 L138.739,52.5 C138.739,50.846 140.085,49.5 141.739,49.5 L149.739,49.5 C151.394,49.5 152.739,50.846 152.739,52.5 L152.739,57.5 Z"/>
    <polygon fill="#48515A" points="213.011 178.524 215.011 178.524 215.011 174.524 213.011 174.524"/>
    <polygon fill="#48515A" points="213.011 188.524 215.011 188.524 215.011 184.524 213.011 184.524"/>
    <polygon fill="#48515A" points="217.011 182.524 221.011 182.524 221.011 180.524 217.011 180.524"/>
    <polygon fill="#48515A" points="207.011 182.524 211.011 182.524 211.011 180.524 207.011 180.524"/>
    <polygon fill="#48515A" points="48.989 51.5 50.989 51.5 50.989 47.5 48.989 47.5"/>
    <polygon fill="#48515A" points="48.989 61.5 50.989 61.5 50.989 57.5 48.989 57.5"/>
    <polygon fill="#48515A" points="52.989 55.5 56.989 55.5 56.989 53.5 52.989 53.5"/>
    <polygon fill="#48515A" points="42.989 55.5 46.989 55.5 46.989 53.5 42.989 53.5"/>
    <polygon fill="#48515A" points="34.989 141.5 36.989 141.5 36.989 137.5 34.989 137.5"/>
    <polygon fill="#48515A" points="34.989 151.5 36.989 151.5 36.989 147.5 34.989 147.5"/>
    <polygon fill="#48515A" points="38.989 145.5 42.989 145.5 42.989 143.5 38.989 143.5"/>
    <polygon fill="#48515A" points="28.989 145.5 32.989 145.5 32.989 143.5 28.989 143.5"/>
    <path fill="#FFD15D" d="M113.864 47.938C113.864 49.284 112.773 50.375 111.427 50.375 110.081 50.375 108.989 49.284 108.989 47.938 108.989 46.591 110.081 45.5 111.427 45.5 112.773 45.5 113.864 46.591 113.864 47.938M47.864 103.062C47.864 104.409 46.773 105.5 45.427 105.5 44.081 105.5 42.989 104.409 42.989 103.062 42.989 101.716 44.081 100.625 45.427 100.625 46.773 100.625 47.864 101.716 47.864 103.062"/>
    <path fill="#F58E70" d="M201.864 191.062C201.864 192.409 200.773 193.5 199.427 193.5 198.081 193.5 196.989 192.409 196.989 191.062 196.989 189.716 198.081 188.625 199.427 188.625 200.773 188.625 201.864 189.716 201.864 191.062M212.989 157.938C212.989 159.284 211.898 160.375 210.552 160.375 209.205 160.375 208.114 159.284 208.114 157.938 208.114 156.591 209.205 155.5 210.552 155.5 211.898 155.5 212.989 156.591 212.989 157.938"/>
    <path fill="#475059" d="M48.989 166.5C47.335 166.5 45.989 167.846 45.989 169.5 45.989 171.154 47.335 172.5 48.989 172.5 50.644 172.5 51.989 171.154 51.989 169.5 51.989 167.846 50.644 166.5 48.989 166.5zM48.989 174.5C46.232 174.5 43.989 172.257 43.989 169.5 43.989 166.743 46.232 164.5 48.989 164.5 51.746 164.5 53.989 166.743 53.989 169.5 53.989 172.257 51.746 174.5 48.989 174.5zM195.989 60.5C194.887 60.5 193.989 61.397 193.989 62.5 193.989 63.603 194.887 64.5 195.989 64.5 197.092 64.5 197.989 63.603 197.989 62.5 197.989 61.397 197.092 60.5 195.989 60.5zM195.989 66.5C193.783 66.5 191.989 64.706 191.989 62.5 191.989 60.294 193.783 58.5 195.989 58.5 198.195 58.5 199.989 60.294 199.989 62.5 199.989 64.706 198.195 66.5 195.989 66.5z"/>
  </g>
</svg>
