<svg xmlns="http://www.w3.org/2000/svg" width="250" height="250" viewBox="0 0 250 250">
  <g fill="none" fill-rule="evenodd">
    <path fill="#5FE0ED" d="M171.908,91.976 L171.904,91.976 C171.904,86.729 167.651,81.976 162.404,81.976 L159.909,81.976 L159.755,82.024 L159.755,79.976 C159.755,76.657 157.06,73.968 153.741,73.976 L153.645,73.976 C152.65,64.976 145.02,57.976 135.755,57.976 C134.221,57.976 132.732,58.168 131.311,58.529 L131.081,57.975 C130.747,57.27 130.288,56.609 129.704,56.026 C127.771,54.093 124.989,53.527 122.558,54.328 L122.261,53.58 C119.377,46.761 112.625,41.976 104.755,41.976 C94.261,41.976 85.755,50.483 85.755,60.976 L85.755,63.976 C79.127,63.976 73.755,69.348 73.755,75.976 L73.755,87.976 L117.755,87.976 C125.487,87.976 131.755,94.244 131.755,101.976 L131.755,104.976 C131.755,113.26 138.47,119.976 146.754,119.976 L146.755,119.976 C152.909,119.976 158.191,116.266 160.504,110.964 C165.376,110.843 169.386,107.244 170.129,102.553 C170.271,101.658 170.999,100.977 171.904,100.977 L180.908,100.977 C180.908,96.006 176.878,91.976 171.908,91.976"/>
    <path fill="#F58E70" d="M150.908,124.425 C147.567,124.435 144.226,124.988 140.998,126.092 L140.998,147.019 L150.908,147.019 L150.908,124.425"/>
    <polygon fill="#FFD15D" points="159.91 194.024 173.909 194.024 173.909 185.026 159.91 185.026"/>
    <polygon fill="#FFD15D" points="95.91 194.024 123.906 194.024 123.906 179.026 95.91 179.026"/>
    <polygon fill="#DEDEDD" points="132.903 155.024 168.903 155.024 168.903 153.024 132.903 153.024"/>
    <path fill="#DEDEDD" d="M94.908,92.024 L75.908,92.024 L75.908,109.7 C75.908,137.289 68.265,164.292 53.806,187.79 L51.908,190.873 L51.908,191.024 L51.986,195.024 L81.908,195.026 L81.908,155.024 L94.908,155.024 L94.908,92.024"/>
    <polyline fill="#DEDEDD" points="190.168 155.024 190.909 132.024 192.39 155.024 190.168 155.024"/>
    <path fill="#48515A" d="M85.908,193.024 L189.908,193.024 L189.908,159.024 L85.908,159.024 L85.908,193.024 Z M83.908,195.024 L191.908,195.024 L191.908,157.024 L83.908,157.024 L83.908,195.024 Z"/>
    <path fill="#48515A" d="M93.908,193.024 L125.908,193.024 L125.908,177.024 L93.908,177.024 L93.908,193.024 Z M91.908,195.024 L127.908,195.024 L127.908,175.024 L91.908,175.024 L91.908,195.024 Z"/>
    <polygon fill="#5FE0ED" points="92.908 170.024 102.908 170.024 102.908 164.024 92.908 164.024"/>
    <polygon fill="#5FE0ED" points="108.908 170.024 118.908 170.024 118.908 164.024 108.908 164.024"/>
    <polygon fill="#5FE0ED" points="124.908 170.024 134.908 170.024 134.908 164.024 124.908 164.024"/>
    <polygon fill="#5FE0ED" points="140.908 170.024 150.908 170.024 150.908 164.024 140.908 164.024"/>
    <polygon fill="#5FE0ED" points="156.908 170.024 166.908 170.024 166.908 164.024 156.908 164.024"/>
    <path fill="#48515A" d="M157.908,193.024 L165.908,193.024 L165.908,183.024 L157.908,183.024 L157.908,193.024 Z M155.908,195.024 L167.908,195.024 L167.908,181.024 L155.908,181.024 L155.908,195.024 Z"/>
    <path fill="#48515A" d="M167.908,193.024 L175.908,193.024 L175.908,183.024 L167.908,183.024 L167.908,193.024 Z M165.908,195.024 L177.908,195.024 L177.908,181.024 L165.908,181.024 L165.908,195.024 Z"/>
    <polygon fill="#5FE0ED" points="172.908 170.024 182.908 170.024 182.908 164.024 172.908 164.024"/>
    <polygon fill="#48515A" points="92.908 183.024 126.908 183.024 126.908 181.024 92.908 181.024"/>
    <polygon fill="#48515A" points="92.908 189.024 126.908 189.024 126.908 187.024 92.908 187.024"/>
    <path fill="#48515A" d="M153.908 181.024L179.908 181.024 179.908 179.024 153.908 179.024 153.908 181.024zM151.908 183.024L181.908 183.024 181.908 177.024 151.908 177.024 151.908 183.024zM130.903 157.024L170.903 157.024 170.903 151.024 130.903 151.024 130.903 157.024zM128.903 159.024L172.903 159.024 172.903 149.024 128.903 149.024 128.903 159.024z"/>
    <path fill="#48515A" d="M138.998,149.019 L162.998,149.019 L162.998,124.695 C155.233,121.663 146.763,121.663 138.998,124.695 L138.998,149.019 Z M164.998,151.019 L136.998,151.019 L136.998,123.35 L137.616,123.095 C146.245,119.528 155.751,119.528 164.38,123.095 L164.998,123.35 L164.998,151.019 Z"/>
    <polygon fill="#48515A" points="134.998 129.019 166.998 129.019 166.998 127.019 134.998 127.019"/>
    <polygon fill="#48515A" points="134.998 135.023 166.998 135.023 166.998 133.023 134.998 133.023"/>
    <polygon fill="#48515A" points="134.998 141.026 166.998 141.026 166.998 139.026 134.998 139.026"/>
    <polygon fill="#48515A" points="134.998 147.03 166.998 147.03 166.998 145.03 134.998 145.03"/>
    <polygon fill="#48515A" points="72.908 117.024 114.908 117.024 114.908 115.024 72.908 115.024"/>
    <polyline fill="#48515A" points="198.975 195.024 191.409 195.024 191.409 193.024 196.842 193.024 192.911 132.088 192.909 93.03 188.909 93.03 188.909 132.024 188.07 158.057 186.071 157.992 186.909 131.992 186.909 91.03 194.909 91.03 194.909 132.024 198.975 195.024"/>
    <polygon fill="#48515A" points="185.909 97.03 195.909 97.03 195.909 95.03 185.909 95.03"/>
    <polygon fill="#48515A" points="185.909 113.03 195.909 113.03 195.909 111.03 185.909 111.03"/>
    <polygon fill="#48515A" points="185.909 129.03 195.909 129.03 195.909 127.03 185.909 127.03"/>
    <path fill="#48515A" d="M193.216,85.246 L192.722,83.307 C193.445,83.123 194.194,83.03 194.948,83.03 L194.948,85.03 C194.36,85.03 193.778,85.103 193.216,85.246 Z M190.178,86.907 L188.814,85.444 C189.363,84.932 189.976,84.49 190.633,84.13 L191.593,85.885 C191.082,86.165 190.605,86.509 190.178,86.907 Z M188.304,89.819 L186.406,89.187 C186.643,88.476 186.969,87.795 187.376,87.164 L189.058,88.246 C188.742,88.737 188.488,89.267 188.304,89.819 Z M185.948,92.032 C185.947,91.817 185.955,91.602 185.97,91.39 L187.965,91.529 C187.953,91.694 187.947,91.86 187.948,92.027 L185.948,92.032 Z"/>
    <polygon fill="#48515A" points="72.908 93.01 114.908 93.01 114.908 91.01 72.908 91.01"/>
    <path fill="#FFD15D" d="M129.148,200.024 C129.148,200.576 128.7,201.024 128.148,201.024 C127.596,201.024 127.148,200.576 127.148,200.024 C127.148,199.472 127.596,199.024 128.148,199.024 C128.7,199.024 129.148,199.472 129.148,200.024"/>
    <path fill="#F58E70" d="M56.088,138.022 C56.088,136.918 56.983,136.022 58.088,136.022 C59.192,136.022 60.088,136.918 60.088,138.022 C60.088,139.127 59.192,140.022 58.088,140.022 C56.983,140.022 56.088,139.127 56.088,138.022"/>
    <polygon fill="#48515A" points="213.053 176.072 215.053 176.072 215.053 172.072 213.053 172.072"/>
    <polygon fill="#48515A" points="213.053 186.072 215.053 186.072 215.053 182.072 213.053 182.072"/>
    <polygon fill="#48515A" points="217.053 180.072 221.053 180.072 221.053 178.072 217.053 178.072"/>
    <polygon fill="#48515A" points="207.053 180.072 211.053 180.072 211.053 178.072 207.053 178.072"/>
    <polygon fill="#48515A" points="34.947 146.054 36.947 146.054 36.947 142.054 34.947 142.054"/>
    <polygon fill="#48515A" points="34.947 156.054 36.947 156.054 36.947 152.054 34.947 152.054"/>
    <polygon fill="#48515A" points="38.947 150.054 42.947 150.054 42.947 148.054 38.947 148.054"/>
    <polygon fill="#48515A" points="28.947 150.054 32.947 150.054 32.947 148.054 28.947 148.054"/>
    <polygon fill="#48515A" points="173.029 56.001 175.029 56.001 175.029 52.001 173.029 52.001"/>
    <polygon fill="#48515A" points="173.029 66.001 175.029 66.001 175.029 62.001 173.029 62.001"/>
    <polygon fill="#48515A" points="177.029 60.001 181.029 60.001 181.029 58.001 177.029 58.001"/>
    <polygon fill="#48515A" points="167.029 60.001 171.029 60.001 171.029 58.001 167.029 58.001"/>
    <path fill="#48515A" d="M203.908 119.024C202.805 119.024 201.908 119.921 201.908 121.024 201.908 122.127 202.805 123.024 203.908 123.024 205.011 123.024 205.908 122.127 205.908 121.024 205.908 119.921 205.011 119.024 203.908 119.024zM203.908 125.024C201.703 125.024 199.908 123.229 199.908 121.024 199.908 118.818 201.703 117.024 203.908 117.024 206.114 117.024 207.908 118.818 207.908 121.024 207.908 123.229 206.114 125.024 203.908 125.024zM55.908 91.024C54.805 91.024 53.908 91.921 53.908 93.024 53.908 94.127 54.805 95.024 55.908 95.024 57.011 95.024 57.908 94.127 57.908 93.024 57.908 91.921 57.011 91.024 55.908 91.024zM55.908 97.024C53.703 97.024 51.908 95.229 51.908 93.024 51.908 90.818 53.703 89.024 55.908 89.024 58.114 89.024 59.908 90.818 59.908 93.024 59.908 95.229 58.114 97.024 55.908 97.024zM181.908 201.024C180.805 201.024 179.908 201.921 179.908 203.024 179.908 204.127 180.805 205.024 181.908 205.024 183.011 205.024 183.908 204.127 183.908 203.024 183.908 201.921 183.011 201.024 181.908 201.024zM181.908 207.024C179.703 207.024 177.908 205.229 177.908 203.024 177.908 200.818 179.703 199.024 181.908 199.024 184.114 199.024 185.908 200.818 185.908 203.024 185.908 205.229 184.114 207.024 181.908 207.024z"/>
    <path fill="#DEDEDD" d="M206.908 146.024C206.908 147.128 206.013 148.024 204.908 148.024 203.804 148.024 202.908 147.128 202.908 146.024 202.908 144.919 203.804 144.024 204.908 144.024 206.013 144.024 206.908 144.919 206.908 146.024M122.908 124.024C122.908 125.128 122.013 126.024 120.908 126.024 119.804 126.024 118.908 125.128 118.908 124.024 118.908 122.919 119.804 122.024 120.908 122.024 122.013 122.024 122.908 122.919 122.908 124.024M50.908 114.024C50.908 115.128 50.013 116.024 48.908 116.024 47.804 116.024 46.908 115.128 46.908 114.024 46.908 112.919 47.804 112.024 48.908 112.024 50.013 112.024 50.908 112.919 50.908 114.024M154.908 206.024C154.908 207.128 154.013 208.024 152.908 208.024 151.804 208.024 150.908 207.128 150.908 206.024 150.908 204.919 151.804 204.024 152.908 204.024 154.013 204.024 154.908 204.919 154.908 206.024"/>
    <path fill="#48515A" d="M92.679,195.024 L47.679,195.024 L47.679,189.741 L50.17,185.694 C64.241,162.827 71.679,136.549 71.679,109.7 L71.679,87.024 L115.679,87.024 L115.679,109.7 C115.679,126.084 118.429,142.231 123.852,157.692 L121.964,158.354 C116.467,142.68 113.679,126.31 113.679,109.7 L113.679,89.024 L73.679,89.024 L73.679,109.7 C73.679,136.919 66.139,163.56 51.873,186.742 L49.679,190.307 L49.679,193.024 L92.679,193.024 L92.679,195.024"/>
  </g>
</svg>
