<svg xmlns="http://www.w3.org/2000/svg" width="250" height="250" viewBox="0 0 250 250">
  <g fill="none" fill-rule="evenodd">
    <polygon fill="#475059" points="39.236 195 41.236 195 41.236 175 39.236 175"/>
    <polygon fill="#475059" points="49.236 195 51.236 195 51.236 185 49.236 185"/>
    <polygon fill="#475059" points="115.234 195 117.234 195 117.234 175 115.234 175"/>
    <polygon fill="#475059" points="105.234 195 107.234 195 107.234 185 105.234 185"/>
    <path fill="#FFD15D" d="M146.111,152.358 L146.111,176.875 L148.541,176.936 C149.811,175.161 151.885,174 154.234,174 C158.1,174 161.234,177.133 161.234,181 C161.234,184.865 158.1,188 154.234,188 C151.749,188 149.573,186.701 148.33,184.75 L143.205,184.75 L143.205,184.402 C140.29,183.207 138.236,180.345 138.236,177 L138.236,153 L135.235,153 L135.235,198.028 L165.236,198.028 L165.236,152.358 L146.111,152.358"/>
    <polygon fill="#475059" points="131.236 102 133.236 102 133.236 62 131.236 62"/>
    <polygon fill="#475059" points="131.236 142 133.236 142 133.236 111.875 131.236 111.875"/>
    <polyline fill="#475059" points="205.236 202 131.236 202 131.236 156.003 133.236 156.003 133.236 200 203.236 200 203.236 152 205.236 152 205.236 202"/>
    <polygon fill="#475059" points="203.236 141.999 205.236 141.999 205.236 111.751 203.236 111.751"/>
    <polygon fill="#475059" points="203.236 102.25 205.236 102.25 205.236 61.999 203.236 61.999"/>
    <polyline fill="#475059" points="165.236 110 127.236 110 127.236 104 165.236 104 165.236 106 129.236 106 129.236 108 165.236 108 165.236 110"/>
    <polyline fill="#475059" points="209.236 110 187.236 110 187.236 108 207.236 108 207.236 106 187.236 106 187.236 104 209.236 104 209.236 110"/>
    <path fill="#475059" d="M129.236,58 L207.236,58 L207.236,56 L129.236,56 L129.236,58 Z M127.236,60 L209.236,60 L209.236,54 L127.236,54 L127.236,60 Z"/>
    <polygon fill="#475059" points="127.235 50 209.236 50 209.236 48 127.235 48"/>
    <polygon fill="#475059" points="135.236 55 137.236 55 137.236 49.498 135.236 49.498"/>
    <polygon fill="#475059" points="199.236 55 201.236 55 201.236 49.498 199.236 49.498"/>
    <polygon fill="#475059" points="183.236 55 185.236 55 185.236 49.498 183.236 49.498"/>
    <polygon fill="#475059" points="167.236 55 169.236 55 169.236 49.498 167.236 49.498"/>
    <polygon fill="#475059" points="151.236 55 153.236 55 153.236 49.498 151.236 49.498"/>
    <path fill="#475059" d="M169.236,200 L183.236,200 L183.236,60 L169.236,60 L169.236,200 Z M167.236,202 L185.236,202 L185.236,58 L167.236,58 L167.236,202 Z"/>
    <polygon fill="#475059" points="168.236 72.909 184.236 72.909 184.236 70.909 168.236 70.909"/>
    <polygon fill="#475059" points="168.236 85.818 184.236 85.818 184.236 83.818 168.236 83.818"/>
    <polygon fill="#475059" points="168.236 98.727 184.236 98.727 184.236 96.727 168.236 96.727"/>
    <polygon fill="#475059" points="168.236 111.636 184.236 111.636 184.236 109.636 168.236 109.636"/>
    <polygon fill="#475059" points="168.236 124.545 184.236 124.545 184.236 122.545 168.236 122.545"/>
    <polygon fill="#475059" points="168.236 137.455 184.236 137.455 184.236 135.455 168.236 135.455"/>
    <polygon fill="#475059" points="168.236 150.364 184.236 150.364 184.236 148.364 168.236 148.364"/>
    <polygon fill="#475059" points="168.236 163.273 184.236 163.273 184.236 161.273 168.236 161.273"/>
    <polygon fill="#475059" points="168.236 176.182 184.236 176.182 184.236 174.182 168.236 174.182"/>
    <polygon fill="#475059" points="168.236 189.091 184.236 189.091 184.236 187.091 168.236 187.091"/>
    <polygon fill="#475059" points="148.233 146 165.236 146 165.236 144 148.233 144"/>
    <polygon fill="#475059" points="148.233 150 165.236 150 165.236 148 148.233 148"/>
    <polyline fill="#475059" points="209.236 150 187.236 150 187.236 148 207.236 148 207.236 146 187.236 146 187.236 144 209.236 144 209.236 150"/>
    <path fill="#475059" d="M38.236,200 L131.243,200 L131.243,196 L38.236,196 L38.236,200 Z M36.236,202 L133.243,202 L133.243,194 L36.236,194 L36.236,202 Z"/>
    <path fill="#475059" d="M78.236,104 C53.423,104 33.236,124.187 33.236,149 C33.236,173.813 53.423,194 78.236,194 C103.049,194 123.236,173.813 123.236,149 C123.236,124.187 103.049,104 78.236,104 Z M78.236,196 C52.32,196 31.236,174.916 31.236,149 C31.236,123.084 52.32,102 78.236,102 C104.152,102 125.236,123.084 125.236,149 C125.236,174.916 104.152,196 78.236,196 Z"/>
    <path fill="#475059" d="M78.236,108 C55.628,108 37.236,126.393 37.236,149 C37.236,171.607 55.628,190 78.236,190 C100.843,190 119.236,171.607 119.236,149 C119.236,126.393 100.843,108 78.236,108 Z M78.236,192 C54.525,192 35.236,172.71 35.236,149 C35.236,125.29 54.525,106 78.236,106 C101.946,106 121.236,125.29 121.236,149 C121.236,172.71 101.946,192 78.236,192 Z"/>
    <path fill="#5FE0ED" d="M39.96,156.503 C43.468,174.43 59.297,188 78.236,188 C97.227,188 113.091,174.354 116.54,156.354 C114.413,157.266 111.849,156.856 110.115,155.121 L108.236,153.243 L106.357,155.121 C105.256,156.222 103.792,156.828 102.236,156.828 C100.679,156.828 99.215,156.222 98.115,155.121 L96.236,153.243 L94.357,155.121 C92.084,157.395 88.387,157.395 86.115,155.121 L84.236,153.243 L82.357,155.121 C80.084,157.395 76.387,157.395 74.115,155.121 L72.236,153.243 L70.357,155.121 C68.084,157.395 64.387,157.395 62.115,155.121 L60.236,153.243 L58.357,155.121 C57.256,156.222 55.792,156.828 54.236,156.828 C52.679,156.828 51.215,156.222 50.115,155.121 L48.486,153.493 L46.607,155.371 C44.812,157.167 42.128,157.543 39.96,156.503"/>
    <polyline fill="#475059" points="129.236 156 124.236 156 124.236 154 127.236 154 127.236 144 124.236 144 124.236 142 129.236 142 129.236 156"/>
    <path fill="#475059" d="M129.236,152 L139.236,152 L139.236,177 C139.236,180.86 142.376,184 146.236,184 L154.237,184 C155.891,184 157.237,182.654 157.237,181 C157.237,179.346 155.891,178 154.237,178 L145.236,178 L145.236,153 C145.236,149.14 142.096,146 138.236,146 L129.236,146 L129.236,152 Z M154.237,186 L146.236,186 C141.273,186 137.236,181.962 137.236,177 L137.236,154 L127.236,154 L127.236,144 L138.236,144 C143.198,144 147.236,148.038 147.236,153 L147.236,176 L154.237,176 C156.994,176 159.237,178.243 159.237,181 C159.237,183.757 156.994,186 154.237,186 Z"/>
    <polyline fill="#475059" points="119.195 125.833 117.195 125.833 117.195 95.984 39.195 95.984 39.195 125.833 37.195 125.833 37.195 93.984 119.195 93.984 119.195 125.833"/>
    <polygon fill="#475059" points="37.194 89.984 119.195 89.984 119.195 87.984 37.194 87.984"/>
    <polygon fill="#475059" points="50.198 94.984 52.198 94.984 52.198 89.482 50.198 89.482"/>
    <polygon fill="#475059" points="109.195 94.984 111.195 94.984 111.195 89.482 109.195 89.482"/>
    <polygon fill="#475059" points="93.195 94.984 95.195 94.984 95.195 89.482 93.195 89.482"/>
    <polygon fill="#475059" points="77.195 94.984 79.195 94.984 79.195 89.482 77.195 89.482"/>
    <polygon fill="#475059" points="61.195 94.984 63.195 94.984 63.195 89.482 61.195 89.482"/>
    <polygon fill="#475059" points="38.236 99.999 118.236 99.999 118.236 97.999 38.236 97.999"/>
    <polygon fill="#475059" points="77.236 103 79.236 103 79.236 98.666 77.236 98.666"/>
    <polygon fill="#475059" points="53.069 110 55.069 110 55.069 98.833 53.069 98.833"/>
    <polygon fill="#475059" points="101.236 110 103.236 110 103.236 98.833 101.236 98.833"/>
    <polyline fill="#475059" points="49.477 113.651 37.477 99.651 38.995 98.349 50.995 112.349 49.477 113.651"/>
    <polyline fill="#475059" points="106.995 113.651 105.477 112.349 117.477 98.349 118.995 99.651 106.995 113.651"/>
    <polyline fill="#FFD15D" points="143.205 62.005 135.235 62.005 135.235 101.672 165.236 101.672 165.236 62.005 143.205 62.005"/>
    <polyline fill="#FFD15D" points="157.266 112.334 135.235 112.334 135.235 141.995 165.236 141.995 165.236 112.334 157.266 112.334"/>
    <polygon fill="#FFD15D" points="187.266 101.672 193.235 101.672 193.235 62.005 187.266 62.005"/>
    <polygon fill="#FFD15D" points="187.266 141.995 193.235 141.995 193.235 112.334 187.266 112.334"/>
    <polygon fill="#FFD15D" points="187.266 198.028 193.235 198.028 193.235 152.358 187.266 152.358"/>
    <polygon fill="#48515A" points="35.447 75.011 37.447 75.011 37.447 71.011 35.447 71.011"/>
    <polygon fill="#48515A" points="35.447 85.011 37.447 85.011 37.447 81.011 35.447 81.011"/>
    <polygon fill="#48515A" points="39.447 79.011 43.447 79.011 43.447 77.011 39.447 77.011"/>
    <polygon fill="#48515A" points="29.447 79.011 33.447 79.011 33.447 77.011 29.447 77.011"/>
    <polygon fill="#48515A" points="212.553 168.066 214.553 168.066 214.553 164.066 212.553 164.066"/>
    <polygon fill="#48515A" points="212.553 178.066 214.553 178.066 214.553 174.066 212.553 174.066"/>
    <polygon fill="#48515A" points="216.553 172.066 220.553 172.066 220.553 170.066 216.553 170.066"/>
    <polygon fill="#48515A" points="206.553 172.066 210.553 172.066 210.553 170.066 206.553 170.066"/>
    <polygon fill="#48515A" points="112.493 55.999 114.493 55.999 114.493 51.999 112.493 51.999"/>
    <polygon fill="#48515A" points="112.493 65.999 114.493 65.999 114.493 61.999 112.493 61.999"/>
    <polygon fill="#48515A" points="116.493 59.999 120.493 59.999 120.493 57.999 116.493 57.999"/>
    <polygon fill="#48515A" points="106.493 59.999 110.493 59.999 110.493 57.999 106.493 57.999"/>
    <path fill="#DEDEDD" d="M79.221 73.964C79.221 75.069 78.325 75.964 77.221 75.964 76.116 75.964 75.221 75.069 75.221 73.964 75.221 72.859 76.116 71.964 77.221 71.964 78.325 71.964 79.221 72.859 79.221 73.964M128.25 123.994C128.25 125.099 127.355 125.994 126.25 125.994 125.146 125.994 124.25 125.099 124.25 123.994 124.25 122.889 125.146 121.994 126.25 121.994 127.355 121.994 128.25 122.889 128.25 123.994M36.195 188.032C36.195 189.137 35.299 190.032 34.195 190.032 33.09 190.032 32.195 189.137 32.195 188.032 32.195 186.928 33.09 186.032 34.195 186.032 35.299 186.032 36.195 186.928 36.195 188.032M213.301 138.002C213.301 139.107 212.406 140.002 211.301 140.002 210.197 140.002 209.301 139.107 209.301 138.002 209.301 136.898 210.197 136.002 211.301 136.002 212.406 136.002 213.301 136.898 213.301 138.002"/>
    <path fill="#48515A" d="M123.774 75.998C122.671 75.998 121.774 76.895 121.774 77.998 121.774 79.101 122.671 79.998 123.774 79.998 124.877 79.998 125.774 79.101 125.774 77.998 125.774 76.895 124.877 75.998 123.774 75.998zM123.774 81.998C121.569 81.998 119.774 80.203 119.774 77.998 119.774 75.792 121.569 73.998 123.774 73.998 125.98 73.998 127.774 75.792 127.774 77.998 127.774 80.203 125.98 81.998 123.774 81.998zM73.745 136.034C72.642 136.034 71.745 136.931 71.745 138.034 71.745 139.137 72.642 140.034 73.745 140.034 74.848 140.034 75.745 139.137 75.745 138.034 75.745 136.931 74.848 136.034 73.745 136.034zM73.745 142.034C71.539 142.034 69.745 140.239 69.745 138.034 69.745 135.828 71.539 134.034 73.745 134.034 75.95 134.034 77.745 135.828 77.745 138.034 77.745 140.239 75.95 142.034 73.745 142.034zM157.795 162.049C156.692 162.049 155.795 162.946 155.795 164.049 155.795 165.152 156.692 166.049 157.795 166.049 158.898 166.049 159.795 165.152 159.795 164.049 159.795 162.946 158.898 162.049 157.795 162.049zM157.795 168.049C155.589 168.049 153.795 166.255 153.795 164.049 153.795 161.844 155.589 160.049 157.795 160.049 160 160.049 161.795 161.844 161.795 164.049 161.795 166.255 160 168.049 157.795 168.049z"/>
    <path fill="#FFD15D" d="M61.21,63.958 C61.21,65.063 60.315,65.958 59.21,65.958 C58.105,65.958 57.21,65.063 57.21,63.958 C57.21,62.853 58.105,61.958 59.21,61.958 C60.315,61.958 61.21,62.853 61.21,63.958"/>
  </g>
</svg>
