<svg xmlns="http://www.w3.org/2000/svg" width="250" height="250" viewBox="0 0 250 250">
  <g fill="none" fill-rule="evenodd">
    <path fill="#5FE0ED" d="M196.957,87.027 C193.643,87.027 190.957,84.34 190.957,81.027 C190.957,77.713 193.643,75.027 196.957,75.027 C200.271,75.027 202.957,77.713 202.957,81.027 C202.957,84.34 200.271,87.027 196.957,87.027 Z M196.923,63.156 C187.036,63.156 178.992,71.2 178.992,81.087 C178.992,90.974 187.036,99.018 196.923,99.018 C206.809,99.018 214.853,90.974 214.853,81.087 C214.853,71.2 206.809,63.156 196.923,63.156 Z"/>
    <polygon fill="#F58E70" points="156.957 219.027 160.957 219.027 160.957 179.86 156.957 179.86"/>
    <path fill="#F58E70" d="M161.957,203.027 L136.957,203.027 L136.957,197.027 L161.957,197.027 C163.614,197.027 164.957,198.37 164.957,200.027 C164.957,201.683 163.614,203.027 161.957,203.027"/>
    <path fill="#475059" d="M115.104,151.736 L135.166,151.736 L135.166,140.026 C135.166,137.27 137.409,135.026 140.166,135.026 L151.166,135.026 L151.166,114.964 L140.166,114.964 C137.409,114.964 135.166,112.721 135.166,109.964 L135.166,99.004 L115.104,99.004 L115.104,109.964 C115.104,112.721 112.86,114.964 110.104,114.964 L99.059,114.964 L99.06,135.026 L110.104,135.026 C112.86,135.026 115.104,137.27 115.104,140.026 L115.104,151.736 Z M137.166,153.736 L113.104,153.736 L113.104,140.026 C113.104,138.372 111.758,137.026 110.104,137.026 L97.06,137.026 L97.059,112.964 L110.104,112.964 C111.758,112.964 113.104,111.618 113.104,109.964 L113.104,97.004 L137.166,97.004 L137.166,109.964 C137.166,111.618 138.512,112.964 140.166,112.964 L153.166,112.964 L153.166,137.026 L140.166,137.026 C138.512,137.026 137.166,138.372 137.166,140.026 L137.166,153.736 Z"/>
    <polyline fill="#475059" points="171.16 143.174 157.7 143.174 151.448 136.724 152.884 135.331 158.548 141.174 169.16 141.174 169.16 109.192 158.529 109.192 152.861 114.682 151.471 113.245 157.719 107.192 171.16 107.192 171.16 143.174"/>
    <polyline fill="#475059" points="92.571 143.174 79.109 143.174 79.109 107.192 92.553 107.192 98.758 113.248 97.361 114.68 91.738 109.192 81.109 109.192 81.109 141.174 91.72 141.174 97.339 135.334 98.78 136.721 92.571 143.174"/>
    <polyline fill="#475059" points="136.875 98.709 135.457 97.299 141.126 91.594 141.126 80.97 109.145 80.97 109.145 91.594 114.813 97.299 113.395 98.709 107.145 92.418 107.145 78.97 143.126 78.97 143.126 92.418 136.875 98.709"/>
    <polyline fill="#475059" points="143.126 171.021 107.145 171.021 107.145 157.56 113.409 151.517 114.798 152.956 109.145 158.409 109.145 169.021 141.126 169.021 141.126 158.409 135.472 152.956 136.86 151.517 143.126 157.56 143.126 171.021"/>
    <polygon fill="#475059" points="134.98 80.032 136.98 80.032 136.98 29.089 134.98 29.089"/>
    <polygon fill="#475059" points="112.933 79.969 114.933 79.969 114.933 29.026 112.933 29.026"/>
    <polygon fill="#475059" points="134.98 221.026 136.98 221.026 136.98 170.083 134.98 170.083"/>
    <polygon fill="#475059" points="112.933 220.964 114.933 220.964 114.933 170.021 112.933 170.021"/>
    <polygon fill="#475059" points="170.949 137.051 220.895 137.051 220.895 135.051 170.949 135.051"/>
    <polygon fill="#475059" points="171.012 115.003 220.957 115.003 220.957 113.003 171.012 113.003"/>
    <polygon fill="#475059" points="28.957 137.051 79.897 137.051 79.897 135.051 28.957 135.051"/>
    <polygon fill="#475059" points="29.02 115.003 79.96 115.003 79.96 113.003 29.02 113.003"/>
    <path fill="#475059" d="M196.922,61.156 C185.932,61.156 176.991,70.097 176.991,81.087 C176.991,92.077 185.932,101.018 196.922,101.018 C207.912,101.018 216.853,92.077 216.853,81.087 C216.853,70.097 207.912,61.156 196.922,61.156 Z M196.922,103.018 C184.829,103.018 174.991,93.18 174.991,81.087 C174.991,68.994 184.829,59.156 196.922,59.156 C209.015,59.156 218.853,68.994 218.853,81.087 C218.853,93.18 209.015,103.018 196.922,103.018 Z"/>
    <polygon fill="#475059" points="195.922 81.587 197.922 81.587 197.922 69.026 195.922 69.026"/>
    <polygon fill="#475059" points="113.933 189.225 135.98 189.225 135.98 187.225 113.933 187.225"/>
    <path fill="#475059" d="M120.303 213.089C113.642 213.089 113.487 212.936 113.231 212.682L112.933 211.967 113.933 211.967 114.155 211.002C115.149 211.146 128.062 211.057 135.969 210.967L135.992 212.967C128.588 213.051 123.632 213.089 120.303 213.089M157.158 215.716L156.533 215.716C147.989 215.716 141.038 208.765 141.038 200.221L141.038 199.846C141.038 190.957 148.27 183.726 157.158 183.726L157.158 185.726C149.372 185.726 143.038 192.06 143.038 199.846L143.038 200.221C143.038 207.662 149.092 213.716 156.533 213.716L157.158 213.716 157.158 215.716"/>
    <polygon fill="#DFE0E0" points="28.957 133.027 76.957 133.027 76.957 125.031 28.957 125.031"/>
    <polygon fill="#DFE0E0" points="124.974 76.957 132.969 76.957 132.969 28.957 124.974 28.957"/>
    <path fill="#DFE0E0" d="M181.048 125.031L173.043 117.027 173.043 126.249C173.011 127.063 172.957 127.983 172.957 127.983L173.043 127.983 173.043 133.027 221.043 133.027 221.043 125.031 181.048 125.031M149.166 116.964L140.166 116.964C136.3 116.964 133.166 113.83 133.166 109.964L133.166 101.004 124.957 101.004 124.957 121.027C124.957 123.236 123.166 125.027 120.957 125.027L101.059 125.027 101.059 133.027 110.103 133.027C113.969 133.027 117.103 136.161 117.103 140.027L117.103 149.737 133.166 149.737 133.166 140.027C133.166 136.161 136.3 133.027 140.166 133.027L149.167 133.027 149.166 116.964"/>
    <polyline fill="#DFE0E0" points="83.109 125.37 83.109 139.173 90.869 139.173 95.059 134.819 95.059 125.37 83.109 125.37"/>
    <polyline fill="#DFE0E0" points="155.167 125.027 155.167 134.812 159.394 139.173 167.161 139.173 167.161 125.027 155.167 125.027"/>
    <polyline fill="#DFE0E0" points="134.918 95.004 139.126 90.769 139.126 82.97 124.957 82.97 124.957 95.004 134.918 95.004"/>
    <polyline fill="#DFE0E0" points="139.126 167.021 139.126 159.391 135.081 156.026 124.957 156.026 124.957 167.021 139.126 167.021"/>
    <polyline fill="#DFE0E0" points="124.974 184.726 132.969 184.726 132.969 173.043 126.957 173.043 126.957 173.027 116.957 173.027 124.974 181.044 124.974 184.726"/>
    <polygon fill="#DFE0E0" points="124.974 221.043 132.969 221.043 132.969 214.716 124.974 214.716"/>
    <polygon fill="#F58E70" points="125.135 209.027 132.969 209.027 132.969 191.027 125.135 191.027"/>
    <path fill="#475059" d="M157.957,218.026 L159.957,218.026 L159.957,202.026 L161.957,202.026 C163.06,202.026 163.957,201.129 163.957,200.026 C163.957,198.924 163.06,198.026 161.957,198.026 L159.957,198.026 L159.957,181.027 L157.957,181.027 L157.957,198.026 L136.957,198.026 L136.957,202.026 L157.957,202.026 L157.957,218.026 Z M161.957,220.026 L155.957,220.026 L155.957,204.026 L134.957,204.026 L134.957,196.026 L155.957,196.026 L155.957,179.027 L161.957,179.027 L161.957,196.026 C164.163,196.026 165.957,197.82 165.957,200.026 C165.957,202.232 164.163,204.026 161.957,204.026 L161.957,220.026 Z"/>
    <path fill="#475059" d="M157.957,218.026 L159.957,218.026 L159.957,181.027 L157.957,181.027 L157.957,218.026 Z M155.957,220.026 L161.957,220.026 L161.957,179.027 L155.957,179.027 L155.957,220.026 Z"/>
    <polygon fill="#475059" points="191.957 114.027 193.957 114.027 193.957 101.025 191.957 101.025"/>
    <polygon fill="#475059" points="199.962 114.027 201.962 114.027 201.962 101.025 199.962 101.025"/>
    <polygon fill="#475059" points="180.957 82.026 182.957 82.026 182.957 80.026 180.957 80.026"/>
    <polygon fill="#475059" points="210.957 82.026 212.957 82.026 212.957 80.026 210.957 80.026"/>
    <polyline fill="#475059" points="181.761 86.134 181.243 84.202 183.175 83.685 183.692 85.616 181.761 86.134"/>
    <polyline fill="#475059" points="210.738 78.369 210.221 76.437 212.152 75.92 212.67 77.852 210.738 78.369"/>
    <polyline fill="#475059" points="183.601 89.893 182.601 88.16 184.332 87.16 185.332 88.893 183.601 89.893"/>
    <polyline fill="#475059" points="209.581 74.893 208.581 73.16 210.313 72.16 211.313 73.893 209.581 74.893"/>
    <polyline fill="#475059" points="186.351 93.047 184.937 91.633 186.351 90.219 187.765 91.633 186.351 93.047"/>
    <polyline fill="#475059" points="207.563 71.834 206.149 70.42 207.563 69.006 208.978 70.42 207.563 71.834"/>
    <polyline fill="#475059" points="189.823 95.383 188.091 94.383 189.091 92.651 190.823 93.651 189.823 95.383"/>
    <polyline fill="#475059" points="204.823 69.402 203.091 68.402 204.091 66.67 205.823 67.67 204.823 69.402"/>
    <polyline fill="#475059" points="193.781 96.74 191.85 96.223 192.367 94.291 194.299 94.809 193.781 96.74"/>
    <polyline fill="#475059" points="201.546 67.763 199.614 67.245 200.132 65.313 202.063 65.831 201.546 67.763"/>
    <polygon fill="#475059" points="195.957 97.026 197.957 97.026 197.957 95.026 195.957 95.026"/>
    <polygon fill="#475059" points="195.957 67.026 197.957 67.026 197.957 65.026 195.957 65.026"/>
    <polyline fill="#475059" points="200.132 96.74 199.614 94.809 201.546 94.291 202.063 96.223 200.132 96.74"/>
    <polyline fill="#475059" points="192.367 67.763 191.85 65.831 193.781 65.313 194.299 67.245 192.367 67.763"/>
    <polyline fill="#475059" points="204.091 95.383 203.091 93.651 204.823 92.651 205.823 94.383 204.091 95.383"/>
    <polyline fill="#475059" points="189.091 69.402 188.091 67.67 189.823 66.67 190.823 68.402 189.091 69.402"/>
    <polyline fill="#475059" points="207.563 93.047 206.149 91.633 207.563 90.219 208.978 91.633 207.563 93.047"/>
    <polyline fill="#475059" points="186.351 71.834 184.937 70.42 186.351 69.006 187.765 70.42 186.351 71.834"/>
    <polyline fill="#475059" points="210.313 89.893 208.581 88.893 209.581 87.16 211.313 88.16 210.313 89.893"/>
    <polyline fill="#475059" points="184.332 74.893 182.601 73.893 183.601 72.16 185.332 73.16 184.332 74.893"/>
    <polyline fill="#475059" points="212.152 86.134 210.221 85.616 210.738 83.685 212.67 84.202 212.152 86.134"/>
    <polyline fill="#475059" points="183.175 78.369 181.243 77.852 181.761 75.92 183.692 76.437 183.175 78.369"/>
    <polygon fill="#48515A" points="70.957 177.026 72.957 177.026 72.957 173.026 70.957 173.026"/>
    <polygon fill="#48515A" points="70.957 187.026 72.957 187.026 72.957 183.026 70.957 183.026"/>
    <polygon fill="#48515A" points="74.957 181.026 78.957 181.026 78.957 179.026 74.957 179.026"/>
    <polygon fill="#48515A" points="64.957 181.026 68.957 181.026 68.957 179.026 64.957 179.026"/>
    <polygon fill="#48515A" points="190.957 153.026 192.957 153.026 192.957 149.026 190.957 149.026"/>
    <polygon fill="#48515A" points="190.957 163.026 192.957 163.026 192.957 159.026 190.957 159.026"/>
    <polygon fill="#48515A" points="194.957 157.026 198.957 157.026 198.957 155.026 194.957 155.026"/>
    <polygon fill="#48515A" points="184.957 157.026 188.957 157.026 188.957 155.026 184.957 155.026"/>
    <polygon fill="#48515A" points="82.957 69.026 84.957 69.026 84.957 65.026 82.957 65.026"/>
    <polygon fill="#48515A" points="82.957 79.026 84.957 79.026 84.957 75.026 82.957 75.026"/>
    <polygon fill="#48515A" points="86.957 73.026 90.957 73.026 90.957 71.026 86.957 71.026"/>
    <polygon fill="#48515A" points="76.957 73.026 80.957 73.026 80.957 71.026 76.957 71.026"/>
    <path fill="#F58E70" d="M164.615 57.327C164.615 58.89 163.348 60.156 161.786 60.156 160.223 60.156 158.957 58.89 158.957 57.327 158.957 55.765 160.223 54.498 161.786 54.498 163.348 54.498 164.615 55.765 164.615 57.327M48.085 150.533C48.085 151.914 46.966 153.033 45.585 153.033 44.204 153.033 43.085 151.914 43.085 150.533 43.085 149.152 44.204 148.033 45.585 148.033 46.966 148.033 48.085 149.152 48.085 150.533"/>
    <path fill="#FFD15D" d="M172.904,164.009 C172.904,165.665 171.561,167.009 169.904,167.009 C168.247,167.009 166.904,165.665 166.904,164.009 C166.904,162.352 168.247,161.009 169.904,161.009 C171.561,161.009 172.904,162.352 172.904,164.009"/>
    <path fill="#F58E70" d="M83.507,194.213 C83.507,192.705 84.73,191.482 86.238,191.482 C87.746,191.482 88.969,192.705 88.969,194.213 C88.969,195.721 87.746,196.944 86.238,196.944 C84.73,196.944 83.507,195.721 83.507,194.213"/>
    <path fill="#FFD15D" d="M59.556,60.627 C59.556,62.449 58.079,63.927 56.257,63.927 C54.434,63.927 52.957,62.449 52.957,60.627 C52.957,58.805 54.434,57.327 56.257,57.327 C58.079,57.327 59.556,58.805 59.556,60.627"/>
  </g>
</svg>
