<svg xmlns="http://www.w3.org/2000/svg" xmlns:xlink="http://www.w3.org/1999/xlink" width="190" height="174" viewBox="0 0 190 174">
  <defs>
    <polygon id="cc255-a" points=".999 .998 83.001 .998 83.001 25.94 .999 25.94"/>
    <polygon id="cc255-c" points=".999 .654 91.001 .654 91.001 74.94 .999 74.94"/>
    <polygon id="cc255-e" points=".06 .998 14 .998 14 2.998 .06 2.998"/>
    <polygon id="cc255-g" points=".999 .998 49 .998 49 15.94 .999 15.94"/>
  </defs>
  <g fill="none" fill-rule="evenodd">
    <g transform="translate(52 148)">
      <mask id="cc255-b" fill="#fff">
        <use xlink:href="#cc255-a"/>
      </mask>
      <path fill="#FFD15D" d="M19.001,20.998 L64,20.998 L64,18.998 L19.001,18.998 L19.001,20.998 Z M0.999,26 L83.001,26 L83.001,0.998 L0.999,0.998 L0.999,26 Z" mask="url(#cc255-b)"/>
    </g>
    <polyline fill="#F58E70" points="121.038 148.998 129.04 148.998 129.04 109.25 121.038 106.426 121.038 148.998"/>
    <path fill="#DFE0E0" d="M109.062,98.248 L109.075,90.877 L109.075,84.136 C109.075,84.069 109.076,83.98 109.078,83.879 C107.051,85.856 104.469,87.943 102.639,89.505 C100.931,90.964 98.747,91.998 96.501,91.998 L90.012,91.998 C87.931,91.998 85.91,91.261 84.343,89.891 C82.928,88.655 80.924,87.066 79.076,85.435 L79.076,88.261 L104.124,113.309 C107.453,111.517 110.385,108.785 112.491,105.101 L114.979,100.748 L109.062,98.248"/>
    <path fill="#48515A" d="M29.951 173.774L27.951 173.77 28.058 123.888C28.058 117.913 31.83 116.013 37.159 113.979L78.075 97.49 78.075 85.998 80.075 85.998 80.075 98.84 37.89 115.842C32.56 117.875 30.058 119.328 30.058 123.89L29.951 173.774M160.035 173.772L158.035 173.772 158.049 124.01C158.049 119.556 155.704 117.975 150.097 115.912L108.062 98.668 108.075 83.802 108.254 83.545C108.661 82.958 109.151 82.382 109.625 81.825 110.303 81.028 111.004 80.204 111.24 79.577L117.273 66.923 124.175 63.412 125.751 55.477C125.748 54.829 125.471 54.161 125.001 53.677 124.575 53.239 124.042 52.998 123.499 52.998L121.113 52.998 121.113 47.998 123.113 47.998 123.113 50.998 123.499 50.998C124.587 50.998 125.63 51.455 126.435 52.283 127.306 53.179 127.784 54.392 127.75 55.61L127.73 55.776 125.948 64.754 118.785 68.397 113.078 80.36C112.753 81.235 111.974 82.151 111.147 83.121 110.777 83.557 110.396 84.005 110.075 84.437L110.063 97.328 150.821 114.049C156.034 115.965 160.049 117.925 160.049 124.01L160.035 173.772"/>
    <path fill="#48515A" d="M96.075,92.998 L90.009,92.998 C87.711,92.998 85.309,92.027 83.246,90.266 C82.688,89.788 82.06,89.272 81.399,88.73 C78.187,86.091 74.544,83.098 73.556,80.448 L67.915,68.479 L61.74,64.887 L59.205,55.614 C59.205,53.112 61.204,50.998 63.57,50.998 L63.784,50.998 L63.784,47.998 L65.784,47.998 L65.784,52.998 L63.57,52.998 C62.37,52.998 61.274,54.17 61.208,55.489 L63.449,63.567 L69.459,67.063 L75.397,79.673 C76.229,81.895 79.951,84.952 82.669,87.186 C83.34,87.736 83.978,88.26 84.545,88.744 C86.246,90.197 88.187,90.998 90.009,90.998 L96.075,90.998 L96.075,92.998"/>
    <g transform="translate(48 99)">
      <mask id="cc255-d" fill="#fff">
        <use xlink:href="#cc255-c"/>
      </mask>
      <path fill="#48515A" d="M46.062,17.992 C35.993,17.992 27.182,11.549 24.137,1.958 C23.97,1.432 24.261,0.869 24.787,0.702 C25.316,0.533 25.877,0.827 26.043,1.353 C28.823,10.109 36.868,15.992 46.062,15.992 C55.084,15.992 63.082,10.254 65.965,1.713 C66.141,1.188 66.707,0.905 67.231,1.085 C67.755,1.262 68.036,1.829 67.859,2.352 C64.702,11.707 55.942,17.992 46.062,17.992" mask="url(#cc255-d)"/>
      <polyline fill="#48515A" points="91.001 74.998 89.001 74.998 89.001 47.998 2.999 47.998 2.999 74.998 .999 74.998 .999 45.998 91.001 45.998 91.001 74.998" mask="url(#cc255-d)"/>
    </g>
    <path fill="#475059" d="M124.967,36.634 C124.107,21.954 112.931,9.749 98.39,7.616 L98.681,5.637 C114.154,7.908 126.049,20.895 126.963,36.517 L124.967,36.634"/>
    <polyline fill="#475059" points="61.616 45.98 61.616 43.98 126.021 43.979 126.021 45.979 61.616 45.98"/>
    <path fill="#475059" d="M62.676,36.539 L60.68,36.416 C61.656,20.538 73.813,7.557 89.588,5.55 L89.84,7.535 C75.018,9.42 63.594,21.618 62.676,36.539"/>
    <polyline fill="#475059" points="98.978 28.521 96.978 28.521 96.978 2.998 90.659 2.998 90.659 28.521 88.659 28.521 88.659 .998 98.978 .998 98.978 28.521"/>
    <polyline fill="#475059" points="56.121 45.98 56.121 35.527 79.231 35.527 79.231 37.527 58.121 37.527 58.121 43.98 79.231 43.979 79.231 45.979 56.121 45.98"/>
    <polyline fill="#475059" points="131.879 45.979 108.769 45.979 108.769 43.979 129.879 43.979 129.879 37.526 108.769 37.526 108.769 35.526 131.879 35.526 131.879 45.979"/>
    <path fill="#475059" d="M93.818,28.537 C89.561,28.537 86.097,32.001 86.097,36.258 C86.097,40.516 89.561,43.979 93.818,43.979 C98.075,43.979 101.539,40.516 101.539,36.258 C101.539,32 98.075,28.537 93.818,28.537 Z M93.818,45.979 C88.458,45.979 84.097,41.619 84.097,36.258 C84.097,30.898 88.458,26.537 93.818,26.537 C99.179,26.537 103.539,30.898 103.539,36.258 C103.539,41.619 99.179,45.979 93.818,45.979 Z"/>
    <path fill="#FFD15D" d="M86.659 26.998C83.89 29.144 82.097 32.492 82.097 36.258 82.097 38.336 82.646 40.285 83.598 41.979L60.121 41.979 60.121 39.526 79.231 39.526 79.231 33.526 65.042 33.526C66.987 22.161 75.502 12.977 86.659 10.172L86.659 26.998M92.659 4.998L94.978 4.998 94.978 24.596C94.596 24.558 94.21 24.537 93.818 24.537 93.427 24.537 93.041 24.558 92.659 24.596L92.659 4.998"/>
    <path fill="#5FE0ED" d="M93.818,41.979 C90.663,41.979 88.097,39.413 88.097,36.258 C88.097,33.104 90.663,30.537 93.818,30.537 C96.973,30.537 99.539,33.104 99.539,36.258 C99.539,39.413 96.973,41.979 93.818,41.979"/>
    <path fill="#FFD15D" d="M127.879,41.979 L104.038,41.979 C104.99,40.285 105.539,38.336 105.539,36.258 C105.539,32.492 103.746,29.144 100.978,26.998 L100.978,10.181 C112.111,12.995 120.626,22.221 122.577,33.526 L108.769,33.526 L108.769,39.526 L127.879,39.526 L127.879,41.979"/>
    <polygon fill="#48515A" points="6 63.998 8 63.998 8 59.998 6 59.998"/>
    <polygon fill="#48515A" points="6 73.998 8 73.998 8 69.998 6 69.998"/>
    <g transform="translate(0 65)">
      <mask id="cc255-f" fill="#fff">
        <use xlink:href="#cc255-e"/>
      </mask>
      <polygon fill="#48515A" points="10 2.998 14 2.998 14 .998 10 .998" mask="url(#cc255-f)"/>
      <polygon fill="#48515A" points=".06 2.998 4 2.998 4 .998 .06 .998" mask="url(#cc255-f)"/>
    </g>
    <polygon fill="#48515A" points="182 99.998 184 99.998 184 95.998 182 95.998"/>
    <polygon fill="#48515A" points="182 109.998 184 109.998 184 105.998 182 105.998"/>
    <polygon fill="#48515A" points="186 103.998 190 103.998 190 101.998 186 101.998"/>
    <polygon fill="#48515A" points="176 103.998 180 103.998 180 101.998 176 101.998"/>
    <polygon fill="#48515A" points="148 15.998 150 15.998 150 11.998 148 11.998"/>
    <polygon fill="#48515A" points="148 25.998 150 25.998 150 21.998 148 21.998"/>
    <polygon fill="#48515A" points="152 19.998 156 19.998 156 17.998 152 17.998"/>
    <polygon fill="#48515A" points="142 19.998 146 19.998 146 17.998 142 17.998"/>
    <path fill="#FFD15D" d="M140 78.998C140 80.655 138.657 81.998 137 81.998 135.343 81.998 134 80.655 134 78.998 134 77.341 135.343 75.998 137 75.998 138.657 75.998 140 77.341 140 78.998M32 102.998C32 104.655 30.657 105.998 29 105.998 27.343 105.998 26 104.655 26 102.998 26 101.341 27.343 99.998 29 99.998 30.657 99.998 32 101.341 32 102.998"/>
    <path fill="#DEDEDD" d="M44,18.998 C44,20.655 42.657,21.998 41,21.998 C39.343,21.998 38,20.655 38,18.998 C38,17.341 39.343,15.998 41,15.998 C42.657,15.998 44,17.341 44,18.998"/>
    <path fill="#48515A" d="M63.002,160.997 C62.45,160.997 62.002,161.445 62.002,161.997 C62.002,162.549 62.45,162.997 63.002,162.997 C63.554,162.997 64.002,162.549 64.002,161.997 C64.002,161.445 63.554,160.997 63.002,160.997 Z M63.002,164.997 C61.348,164.997 60.002,163.651 60.002,161.997 C60.002,160.343 61.348,158.997 63.002,158.997 C64.656,158.997 66.002,160.343 66.002,161.997 C66.002,163.651 64.656,164.997 63.002,164.997 Z"/>
    <polyline fill="#48515A" points="71.002 152.998 55 152.998 55 107.998 57 107.998 57 150.998 69.002 150.998 69.002 101.994 71.002 101.994 71.002 152.998"/>
    <polyline fill="#48515A" points="64.72 160.998 61.279 160.998 55 156.513 55 151.998 57 151.998 57 155.483 61.92 158.998 64.079 158.998 68.999 155.483 68.999 151.998 70.999 151.998 70.999 156.513 64.72 160.998"/>
    <path fill="#48515A" d="M125.039,160.997 C124.487,160.997 124.039,161.445 124.039,161.997 C124.039,162.549 124.487,162.997 125.039,162.997 C125.591,162.997 126.039,162.549 126.039,161.997 C126.039,161.445 125.591,160.997 125.039,160.997 Z M125.039,164.997 C123.385,164.997 122.039,163.651 122.039,161.997 C122.039,160.343 123.385,158.997 125.039,158.997 C126.693,158.997 128.039,160.343 128.039,161.997 C128.039,163.651 126.693,164.997 125.039,164.997 Z"/>
    <polyline fill="#48515A" points="133.04 152.998 117.037 152.998 117.037 101.68 119.037 101.68 119.037 150.998 131.04 150.998 131.04 107.998 133.04 107.998 133.04 152.998"/>
    <polyline fill="#48515A" points="126.743 160.998 123.297 160.998 117.001 156.514 117.001 151.998 119.001 151.998 119.001 155.482 123.936 158.998 126.104 158.998 131.04 155.482 131.04 151.998 133.04 151.998 133.04 156.514 126.743 160.998"/>
    <g transform="translate(69 158)">
      <mask id="cc255-h" fill="#fff">
        <use xlink:href="#cc255-g"/>
      </mask>
      <path fill="#475059" d="M3.001,2.998 L5.001,2.998 L5.001,0.998 L3.001,0.998 L3.001,2.998 Z M7.001,2.998 L9.001,2.998 L9.001,0.998 L7.001,0.998 L7.001,2.998 Z M11.001,2.998 L13.001,2.998 L13.001,0.998 L11.001,0.998 L11.001,2.998 Z M15.001,2.998 L17.001,2.998 L17.001,0.998 L15.001,0.998 L15.001,2.998 Z M19.001,2.998 L21.001,2.998 L21.001,0.998 L19.001,0.998 L19.001,2.998 Z M23.001,2.998 L25.001,2.998 L25.001,0.998 L23.001,0.998 L23.001,2.998 Z M27.001,2.998 L29.001,2.998 L29.001,0.998 L27.001,0.998 L27.001,2.998 Z M31.001,2.998 L33.001,2.998 L33.001,0.998 L31.001,0.998 L31.001,2.998 Z M35.001,2.998 L37.001,2.998 L37.001,0.998 L35.001,0.998 L35.001,2.998 Z M39.001,2.998 L40.996,2.998 L40.996,0.998 L39.001,0.998 L39.001,2.998 Z" mask="url(#cc255-h)"/>
      <polygon fill="#48515A" points="47 15.94 49 15.94 49 10.997 47 10.997" mask="url(#cc255-h)"/>
      <polyline fill="#48515A" points="2.999 15.998 .999 15.998 .999 6.998 41.563 6.998 41.563 8.998 2.999 8.998 2.999 15.998" mask="url(#cc255-h)"/>
    </g>
    <path fill="#475059" d="M69.999,162.999 L71.999,162.999 L71.999,160.999 L69.999,160.999 L69.999,162.999 Z M73.999,162.999 L75.999,162.999 L75.999,160.999 L73.999,160.999 L73.999,162.999 Z M77.999,162.999 L79.999,162.999 L79.999,160.999 L77.999,160.999 L77.999,162.999 Z M81.999,162.999 L83.999,162.999 L83.999,160.999 L81.999,160.999 L81.999,162.999 Z M85.999,162.999 L87.999,162.999 L87.999,160.999 L85.999,160.999 L85.999,162.999 Z M89.999,162.999 L91.999,162.999 L91.999,160.999 L89.999,160.999 L89.999,162.999 Z M93.999,162.999 L95.999,162.999 L95.999,160.999 L93.999,160.999 L93.999,162.999 Z M97.999,162.999 L99.999,162.999 L99.999,160.999 L97.999,160.999 L97.999,162.999 Z M101.999,162.999 L103.999,162.999 L103.999,160.999 L101.999,160.999 L101.999,162.999 Z M105.999,162.999 L107.999,162.999 L107.999,160.999 L105.999,160.999 L105.999,162.999 Z M109.999,162.999 L111.997,162.999 L111.997,160.999 L109.999,160.999 L109.999,162.999 Z"/>
    <path fill="#48515A" d="M113.999,160.998 L113.999,163.998 C113.999,164.55 114.447,164.998 114.999,164.998 C115.551,164.998 115.999,164.55 115.999,163.998 L115.999,160.998 L113.999,160.998 Z M114.999,166.998 C113.345,166.998 111.999,165.652 111.999,163.998 L111.999,158.998 L117.999,158.998 L117.999,163.998 C117.999,165.652 116.653,166.998 114.999,166.998 Z"/>
    <polyline fill="#F58E70" points="59 148.998 67.002 148.998 67.002 105.997 59 109.028 59 148.998"/>
  </g>
</svg>
