<svg xmlns="http://www.w3.org/2000/svg" width="250" height="250" viewBox="0 0 250 250">
  <g fill="none" fill-rule="evenodd">
    <path fill="#DEDEDD" d="M111.494,54 L114.494,54 C117.808,54 120.494,56.686 120.494,60 C120.494,63.314 117.808,66 114.494,66 L111.494,66 L132.494,66 C129.181,66 126.494,63.314 126.494,60 C126.494,56.686 129.181,54 132.494,54 L111.494,54"/>
    <polygon fill="#48515A" points="213.011 158.512 215.011 158.512 215.011 154.512 213.011 154.512"/>
    <polygon fill="#48515A" points="213.011 168.512 215.011 168.512 215.011 164.512 213.011 164.512"/>
    <polygon fill="#48515A" points="217.011 162.512 221.011 162.512 221.011 160.512 217.011 160.512"/>
    <polygon fill="#48515A" points="207.011 162.512 211.011 162.512 211.011 160.512 207.011 160.512"/>
    <polygon fill="#48515A" points="34.989 141.5 36.989 141.5 36.989 137.5 34.989 137.5"/>
    <polygon fill="#48515A" points="34.989 151.5 36.989 151.5 36.989 147.5 34.989 147.5"/>
    <polygon fill="#48515A" points="38.989 145.5 42.989 145.5 42.989 143.5 38.989 143.5"/>
    <polygon fill="#48515A" points="28.989 145.5 32.989 145.5 32.989 143.5 28.989 143.5"/>
    <path fill="#5FE0ED" d="M47.864 103.062C47.864 104.409 46.773 105.5 45.427 105.5 44.081 105.5 42.989 104.409 42.989 103.062 42.989 101.716 44.081 100.625 45.427 100.625 46.773 100.625 47.864 101.716 47.864 103.062M201.864 191.062C201.864 192.409 200.773 193.5 199.427 193.5 198.081 193.5 196.989 192.409 196.989 191.062 196.989 189.716 198.081 188.625 199.427 188.625 200.773 188.625 201.864 189.716 201.864 191.062M192.977 97.902C192.977 99.248 191.886 100.339 190.54 100.339 189.193 100.339 188.102 99.248 188.102 97.902 188.102 96.555 189.193 95.464 190.54 95.464 191.886 95.464 192.977 96.555 192.977 97.902"/>
    <path fill="#475059" d="M56.994 176.506C55.34 176.506 53.994 177.852 53.994 179.506 53.994 181.16 55.34 182.506 56.994 182.506 58.648 182.506 59.994 181.16 59.994 179.506 59.994 177.852 58.648 176.506 56.994 176.506zM56.994 184.506C54.237 184.506 51.994 182.263 51.994 179.506 51.994 176.749 54.237 174.506 56.994 174.506 59.751 174.506 61.994 176.749 61.994 179.506 61.994 182.263 59.751 184.506 56.994 184.506zM175.977 70.506C174.874 70.506 173.977 71.403 173.977 72.506 173.977 73.608 174.874 74.506 175.977 74.506 177.08 74.506 177.977 73.608 177.977 72.506 177.977 71.403 177.08 70.506 175.977 70.506zM175.977 76.506C173.771 76.506 171.977 74.712 171.977 72.506 171.977 70.3 173.771 68.506 175.977 68.506 178.183 68.506 179.977 70.3 179.977 72.506 179.977 74.712 178.183 76.506 175.977 76.506z"/>
    <path fill="#DEDEDD" d="M123.648 122.952C123.509 122.631 123.359 122.317 123.186 122.016 123.756 122.118 124.315 122.281 124.863 122.475 124.448 122.609 124.042 122.768 123.648 122.952M96.494 75L116.994 75C105.415 75 95.994 84.421 95.994 96L95.994 168C95.994 179.579 105.415 189 116.994 189L96.494 189C84.915 189 75.494 179.579 75.494 168L75.494 96C75.494 84.421 84.915 75 96.494 75M137.494 192L137.494 198.397C136.268 196.363 134.037 195 131.494 195L134.494 195C134.497 195 134.5 195 134.503 195L131.494 195C128.707 195 126.296 196.637 125.17 199L105.819 199C104.693 196.637 102.281 195 99.494 195 96.951 195 94.72 196.363 93.494 198.397L93.494 192 137.494 192"/>
    <path fill="#475059" d="M96.494,73 C83.812,73 73.494,83.317 73.494,96 L73.494,168 C73.494,180.683 83.812,191 96.494,191 L134.494,191 C147.176,191 157.494,180.683 157.494,168 L157.494,96 C157.494,83.317 147.176,73 134.494,73 L96.494,73 Z M134.494,193 L96.494,193 C82.709,193 71.494,181.785 71.494,168 L71.494,96 C71.494,82.215 82.709,71 96.494,71 L134.494,71 C148.279,71 159.494,82.215 159.494,96 L159.494,168 C159.494,181.785 148.279,193 134.494,193 Z"/>
    <path fill="#475059" d="M92.494,71 L135.494,71 L135.494,67 L112.494,67 C108.634,67 105.494,63.859 105.494,60 C105.494,56.141 108.634,53 112.494,53 L135.494,53 L135.494,49 L92.494,49 L92.494,53 L94.494,53 C98.354,53 101.494,56.141 101.494,60 C101.494,63.859 98.354,67 94.494,67 L92.494,67 L92.494,71 Z M137.494,73 L90.494,73 L90.494,65 L94.494,65 C97.251,65 99.494,62.757 99.494,60 C99.494,57.243 97.251,55 94.494,55 L90.494,55 L90.494,47 L137.494,47 L137.494,55 L112.494,55 C109.737,55 107.494,57.243 107.494,60 C107.494,62.757 109.737,65 112.494,65 L137.494,65 L137.494,73 Z"/>
    <path fill="#475059" d="M132.494 67C128.634 67 125.494 63.859 125.494 60 125.494 56.141 128.634 53 132.494 53L132.494 55C129.737 55 127.494 57.243 127.494 60 127.494 62.757 129.737 65 132.494 65L132.494 67M114.494 67L111.494 67 111.494 65 114.494 65C117.251 65 119.494 62.757 119.494 60 119.494 57.243 117.251 55 114.494 55L111.494 55 111.494 53 114.494 53C118.354 53 121.494 56.141 121.494 60 121.494 63.859 118.354 67 114.494 67M141.494 203L134.494 203 134.494 202C134.494 200.346 133.148 199 131.494 199 129.84 199 128.494 200.346 128.494 202L128.494 203 102.494 203 102.494 202C102.494 200.346 101.148 199 99.494 199 97.84 199 96.494 200.346 96.494 202L96.494 203 89.494 203 89.494 191 91.494 191 91.494 201 94.595 201C95.059 198.721 97.08 197 99.494 197 101.909 197 103.929 198.721 104.394 201L126.595 201C127.059 198.721 129.08 197 131.494 197 133.909 197 135.929 198.721 136.394 201L139.494 201 139.494 191 141.494 191 141.494 203"/>
    <polygon fill="#475059" points="75.494 95 155.494 95 155.494 93 75.494 93"/>
    <polygon fill="#475059" points="75.494 171 155.494 171 155.494 169 75.494 169"/>
    <path fill="#475059" d="M106.393,123.617 C106.669,124.536 106.842,125.559 106.917,126.699 C107.111,129.68 105.534,132.236 104.847,133.197 C103.4,135.366 102.593,137.883 102.505,140.486 L102.496,140.971 C102.494,148.72 108.774,155 116.494,155 C124.214,155 130.494,148.72 130.494,141 L130.486,140.488 C130.397,137.883 129.591,135.366 128.152,133.208 C127.456,132.233 125.879,129.676 126.074,126.699 L126.236,124.826 C126.317,124.385 126.42,123.963 126.546,123.558 C125.477,123.989 124.503,124.605 123.707,125.364 L122.772,126.255 L122.144,125.128 C120.346,121.909 119.396,118.255 119.396,114.562 C119.396,113.027 119.555,111.51 119.872,110.023 C115.419,114.472 112.796,120.426 112.566,126.801 L112.433,130.503 L110.685,127.236 C109.838,125.654 108.274,124.358 106.393,123.617 Z M116.494,157 C107.672,157 100.494,149.822 100.494,141 L100.507,140.407 C100.607,137.443 101.529,134.566 103.174,132.099 C103.782,131.247 105.074,129.167 104.92,126.83 C104.807,125.088 104.44,123.705 103.798,122.602 L102.718,120.746 L104.833,121.113 C107.13,121.513 109.244,122.598 110.789,124.107 C111.734,117.02 115.443,110.599 121.212,106.203 L124.042,104.047 L122.75,107.362 C121.851,109.667 121.396,112.09 121.396,114.562 C121.396,117.509 122.062,120.428 123.331,123.075 C124.711,122.06 126.374,121.347 128.125,121.031 L130.239,120.651 L129.169,122.514 C128.707,123.318 128.386,124.188 128.215,125.097 L128.068,126.851 C127.917,129.163 129.208,131.245 129.77,132.032 C131.461,134.566 132.384,137.442 132.485,140.418 L132.49,140.589 C132.494,140.715 132.496,140.845 132.496,140.971 L132.494,141 C132.494,149.822 125.316,157 116.494,157 Z"/>
    <path fill="#475059" d="M106.393,123.617 C106.669,124.536 106.842,125.559 106.917,126.699 C107.111,129.68 105.534,132.236 104.847,133.197 C103.4,135.366 102.593,137.883 102.505,140.486 L102.496,140.971 C102.494,148.72 108.774,155 116.494,155 C124.214,155 130.494,148.72 130.494,141 L130.486,140.488 C130.397,137.883 129.591,135.366 128.152,133.208 C127.456,132.233 125.879,129.676 126.074,126.699 L126.236,124.826 C126.317,124.385 126.42,123.963 126.546,123.558 C125.477,123.989 124.503,124.605 123.707,125.364 L122.772,126.255 L122.144,125.128 C120.346,121.909 119.396,118.255 119.396,114.562 C119.396,113.027 119.555,111.51 119.872,110.023 C115.419,114.472 112.796,120.426 112.566,126.801 L112.433,130.503 L110.685,127.236 C109.838,125.654 108.274,124.358 106.393,123.617 Z M116.494,157 C107.672,157 100.494,149.822 100.494,141 L100.507,140.407 C100.607,137.443 101.529,134.566 103.174,132.099 C103.782,131.247 105.074,129.167 104.92,126.83 C104.807,125.088 104.44,123.705 103.798,122.602 L102.718,120.746 L104.833,121.113 C107.13,121.513 109.244,122.598 110.789,124.107 C111.734,117.02 115.443,110.599 121.212,106.203 L124.042,104.047 L122.75,107.362 C121.851,109.667 121.396,112.09 121.396,114.562 C121.396,117.509 122.062,120.428 123.331,123.075 C124.711,122.06 126.374,121.347 128.125,121.031 L130.239,120.651 L129.169,122.514 C128.707,123.318 128.386,124.188 128.215,125.097 L128.068,126.851 C127.917,129.163 129.208,131.245 129.77,132.032 C131.461,134.566 132.384,137.442 132.485,140.418 L132.49,140.589 C132.494,140.715 132.496,140.845 132.496,140.971 L132.494,141 C132.494,149.822 125.316,157 116.494,157 Z"/>
    <path fill="#5FE0ED" d="M108.891,128.123 C108.624,131.039 107.168,133.388 106.476,134.357 C105.271,136.165 104.58,138.322 104.504,140.554 L104.493,141.1 C104.494,147.617 109.878,153 116.494,153 C123.111,153 128.494,147.617 128.494,141 L128.487,140.562 C128.411,138.322 127.72,136.165 126.488,134.317 C125.793,133.346 124.25,130.852 124.074,127.775 L122.283,129.482 L120.397,126.103 C118.744,123.142 117.747,119.845 117.473,116.469 C115.712,119.614 114.698,123.166 114.565,126.873 L114.164,137.978 L108.922,128.18 C108.911,128.161 108.901,128.143 108.891,128.123"/>
    <path fill="#DEDEDD" d="M143.494 192L143.494 199 152.186 199C153.312 196.637 155.723 195 158.51 195 161.053 195 163.284 196.363 164.51 198.397L164.51 192 143.494 192M134.357 157.973C134.496 157.652 134.646 157.338 134.819 157.037 134.248 157.139 133.69 157.302 133.142 157.496 133.557 157.63 133.962 157.789 134.357 157.973"/>
    <path fill="#475059" d="M161.511,193 L140.495,193 L140.495,191 L161.511,191 C174.193,191 184.511,180.683 184.511,168 L184.511,131.021 C184.511,118.339 174.193,108.021 161.511,108.021 L158.532,108.021 L158.532,106.021 L161.511,106.021 C175.296,106.021 186.511,117.236 186.511,131.021 L186.511,168 C186.511,181.785 175.296,193 161.511,193"/>
    <polyline fill="#475059" points="164.511 108.021 157.994 108.021 157.994 106.021 162.511 106.021 162.511 102.021 158.327 102.021 158.327 100.021 164.511 100.021 164.511 108.021"/>
    <polyline fill="#475059" points="164.511 90.021 157.494 90.021 157.494 88.021 162.511 88.021 162.511 84.021 154.828 84.021 154.828 82.021 164.511 82.021 164.511 90.021"/>
    <path fill="#475059" d="M168.511,203 L161.511,203 L161.511,202 C161.511,200.346 160.165,199 158.511,199 C156.856,199 155.511,200.346 155.511,202 L155.511,203 L139.494,203 L139.494,201 L153.611,201 C154.076,198.721 156.096,197 158.511,197 C160.925,197 162.946,198.721 163.41,201 L166.511,201 L166.511,191 L168.511,191 L168.511,203"/>
    <polygon fill="#475059" points="158.544 130.021 182.511 130.021 182.511 128.021 158.544 128.021"/>
    <polygon fill="#475059" points="158.544 171 182.511 171 182.511 169 158.544 169"/>
    <polygon fill="#48515A" points="192.999 58.452 194.999 58.452 194.999 54.452 192.999 54.452"/>
    <polygon fill="#48515A" points="192.999 68.452 194.999 68.452 194.999 64.452 192.999 64.452"/>
    <polygon fill="#48515A" points="196.999 62.452 200.999 62.452 200.999 60.452 196.999 60.452"/>
    <polygon fill="#48515A" points="186.999 62.452 190.999 62.452 190.999 60.452 186.999 60.452"/>
  </g>
</svg>
