<svg xmlns="http://www.w3.org/2000/svg" width="250" height="250" viewBox="0 0 250 250">
  <g fill="none" fill-rule="evenodd">
    <path fill="#5FE0ED" d="M202.058,184.748 L190.058,184.748 L190.058,125.129 C190.058,89.288 160.899,60.129 125.058,60.129 L119.058,60.129 L119.058,34.876 L131.058,34.876 L131.058,48.361 C170.723,51.432 202.058,84.69 202.058,125.129 L202.058,184.748"/>
    <path fill="#5FE0ED" d="M213.058,166.127 C213.058,170.546 209.476,174.127 205.058,174.127 C200.64,174.127 197.058,170.546 197.058,166.127 C197.058,170.546 193.476,174.127 189.058,174.127 C184.64,174.127 181.058,170.546 181.058,166.127 C181.058,170.546 177.476,174.127 173.058,174.127 C168.64,174.127 165.058,170.546 165.058,166.127 C165.058,170.546 161.476,174.127 157.058,174.127 C152.64,174.127 149.058,170.546 149.058,166.127 C149.058,170.546 145.476,174.127 141.058,174.127 C136.64,174.127 133.058,170.546 133.058,166.127 C133.058,170.546 129.476,174.127 125.058,174.127 C120.64,174.127 117.058,170.546 117.058,166.127 C117.058,170.546 113.476,174.127 109.058,174.127 C104.64,174.127 101.058,170.546 101.058,166.127 C101.058,170.546 97.476,174.127 93.058,174.127 C88.64,174.127 85.058,170.546 85.058,166.127 C85.058,170.546 81.476,174.127 77.058,174.127 C72.64,174.127 69.058,170.546 69.058,166.127 C69.058,170.546 65.476,174.127 61.058,174.127 C56.64,174.127 53.058,170.546 53.058,166.127 C53.058,170.546 49.476,174.127 45.058,174.127 C40.64,174.127 37.058,170.546 37.058,166.127 C37.058,170.546 33.476,174.127 29.058,174.127 L29.058,215.117 C33.476,215.117 37.058,211.535 37.058,207.117 C37.058,211.535 40.64,215.117 45.058,215.117 C49.476,215.117 53.058,211.535 53.058,207.117 C53.058,211.535 56.64,215.117 61.058,215.117 C65.476,215.117 69.058,211.535 69.058,207.117 C69.058,211.535 72.64,215.117 77.058,215.117 C81.476,215.117 85.058,211.535 85.058,207.117 C85.058,211.535 88.64,215.117 93.058,215.117 C97.476,215.117 101.058,211.535 101.058,207.117 C101.058,211.535 104.64,215.117 109.058,215.117 C113.476,215.117 117.058,211.535 117.058,207.117 C117.058,211.535 120.64,215.117 125.058,215.117 C129.476,215.117 133.058,211.535 133.058,207.117 C133.058,211.535 136.64,215.117 141.058,215.117 C145.476,215.117 149.058,211.535 149.058,207.117 C149.058,211.535 152.64,215.117 157.058,215.117 C161.476,215.117 165.058,211.535 165.058,207.117 C165.058,211.535 168.64,215.117 173.058,215.117 C177.476,215.117 181.058,211.535 181.058,207.117 C181.058,211.535 184.64,215.117 189.058,215.117 C193.476,215.117 197.058,211.535 197.058,207.117 C197.058,211.535 200.64,215.117 205.058,215.117 C209.476,215.117 213.058,211.535 213.058,207.117 C213.058,211.535 216.64,215.117 221.058,215.117 L221.058,174.127 C216.64,174.127 213.058,170.546 213.058,166.127"/>
    <path fill="#5FE0ED" d="M195.019,179.16 C195.019,178.055 194.123,177.16 193.019,177.16 C191.914,177.16 191.019,178.055 191.019,179.16 C191.019,180.264 191.914,181.16 193.019,181.16 C194.123,181.16 195.019,180.264 195.019,179.16"/>
    <path fill="#475059" d="M221.058 216.267C217.62 216.267 214.619 214.359 213.058 211.547 211.496 214.359 208.495 216.267 205.058 216.267 201.62 216.267 198.619 214.359 197.058 211.547 195.496 214.359 192.495 216.267 189.058 216.267 185.62 216.267 182.619 214.359 181.058 211.547 179.496 214.359 176.495 216.267 173.058 216.267 169.62 216.267 166.619 214.359 165.058 211.547 163.496 214.359 160.495 216.267 157.058 216.267 153.62 216.267 150.619 214.359 149.058 211.547 147.496 214.359 144.495 216.267 141.058 216.267 137.62 216.267 134.619 214.359 133.058 211.547 131.496 214.359 128.495 216.267 125.058 216.267 121.62 216.267 118.619 214.359 117.058 211.547 115.496 214.359 112.495 216.267 109.058 216.267 105.62 216.267 102.619 214.359 101.058 211.547 99.496 214.359 96.495 216.267 93.058 216.267 89.62 216.267 86.619 214.359 85.058 211.547 83.496 214.359 80.495 216.267 77.058 216.267 73.62 216.267 70.619 214.359 69.058 211.547 67.496 214.359 64.495 216.267 61.058 216.267 57.62 216.267 54.619 214.359 53.058 211.547 51.496 214.359 48.495 216.267 45.058 216.267 41.62 216.267 38.619 214.359 37.058 211.547 35.496 214.359 32.495 216.267 29.058 216.267L29.058 213.981C32.839 213.981 35.915 210.905 35.915 207.124L38.2 207.124C38.2 210.905 41.276 213.981 45.058 213.981 48.839 213.981 51.915 210.905 51.915 207.124L54.2 207.124C54.2 210.905 57.276 213.981 61.058 213.981 64.839 213.981 67.915 210.905 67.915 207.124L70.2 207.124C70.2 210.905 73.276 213.981 77.058 213.981 80.839 213.981 83.915 210.905 83.915 207.124L86.2 207.124C86.2 210.905 89.276 213.981 93.058 213.981 96.839 213.981 99.915 210.905 99.915 207.124L102.2 207.124C102.2 210.905 105.276 213.981 109.058 213.981 112.839 213.981 115.915 210.905 115.915 207.124L118.2 207.124C118.2 210.905 121.276 213.981 125.058 213.981 128.839 213.981 131.915 210.905 131.915 207.124L134.2 207.124C134.2 210.905 137.276 213.981 141.058 213.981 144.839 213.981 147.915 210.905 147.915 207.124L150.2 207.124C150.2 210.905 153.276 213.981 157.058 213.981 160.839 213.981 163.915 210.905 163.915 207.124L166.2 207.124C166.2 210.905 169.276 213.981 173.058 213.981 176.839 213.981 179.915 210.905 179.915 207.124L182.2 207.124C182.2 210.905 185.276 213.981 189.058 213.981 192.839 213.981 195.915 210.905 195.915 207.124L198.2 207.124C198.2 210.905 201.276 213.981 205.058 213.981 208.839 213.981 211.915 210.905 211.915 207.124L214.2 207.124C214.2 210.905 217.276 213.981 221.058 213.981L221.058 216.267M125.054 62.129C90.315 62.129 62.054 90.391 62.054 125.129 62.054 159.867 90.315 188.129 125.054 188.129 159.792 188.129 188.054 159.867 188.054 125.129 188.054 90.391 159.792 62.129 125.054 62.129zM125.054 190.129C89.213 190.129 60.054 160.97 60.054 125.129 60.054 89.288 89.213 60.129 125.054 60.129 160.895 60.129 190.054 89.288 190.054 125.129 190.054 160.97 160.895 190.129 125.054 190.129z"/>
    <path fill="#475059" d="M125.054,66.129 C92.521,66.129 66.054,92.597 66.054,125.129 C66.054,157.661 92.521,184.129 125.054,184.129 C157.586,184.129 184.054,157.661 184.054,125.129 C184.054,92.597 157.586,66.129 125.054,66.129 Z M125.054,186.129 C91.418,186.129 64.054,158.765 64.054,125.129 C64.054,91.493 91.418,64.129 125.054,64.129 C158.689,64.129 186.054,91.493 186.054,125.129 C186.054,158.765 158.689,186.129 125.054,186.129 Z"/>
    <path fill="#475059" d="M125.054,120.129 C122.297,120.129 120.054,122.372 120.054,125.129 C120.054,127.886 122.297,130.129 125.054,130.129 C127.811,130.129 130.054,127.886 130.054,125.129 C130.054,122.372 127.811,120.129 125.054,120.129 Z M125.054,132.129 C121.194,132.129 118.054,128.988 118.054,125.129 C118.054,121.27 121.194,118.129 125.054,118.129 C128.913,118.129 132.054,121.27 132.054,125.129 C132.054,128.988 128.913,132.129 125.054,132.129 Z"/>
    <path fill="#475059" d="M125.054,97.129 C109.614,97.129 97.054,109.689 97.054,125.129 C97.054,140.568 109.614,153.129 125.054,153.129 C140.493,153.129 153.054,140.568 153.054,125.129 C153.054,109.689 140.493,97.129 125.054,97.129 Z M125.054,155.129 C108.512,155.129 95.054,141.671 95.054,125.129 C95.054,108.587 108.512,95.129 125.054,95.129 C141.596,95.129 155.054,108.587 155.054,125.129 C155.054,141.671 141.596,155.129 125.054,155.129 Z"/>
    <polygon fill="#475059" points="126.054 96.13 128.054 96.13 128.054 65.129 126.054 65.129"/>
    <polygon fill="#475059" points="122.054 96.13 124.054 96.13 124.054 65.129 122.054 65.129"/>
    <polygon fill="#475059" points="126.054 185.129 128.054 185.129 128.054 154.058 126.054 154.058"/>
    <polygon fill="#475059" points="122.054 185.129 124.054 185.129 124.054 154.13 122.054 154.13"/>
    <polyline fill="#475059" points="142.151 101.516 140.419 100.516 155.92 73.668 157.652 74.668 142.151 101.516"/>
    <polyline fill="#475059" points="138.688 99.516 136.955 98.516 152.455 71.668 154.188 72.668 138.688 99.516"/>
    <polyline fill="#475059" points="97.652 178.591 95.92 177.591 111.455 150.682 113.188 151.682 97.652 178.591"/>
    <polyline fill="#475059" points="94.187 176.591 92.455 175.591 107.955 148.744 109.688 149.744 94.187 176.591"/>
    <polyline fill="#475059" points="151.668 113.228 150.668 111.495 177.516 95.995 178.516 97.727 151.668 113.228"/>
    <polyline fill="#475059" points="149.668 109.764 148.668 108.031 175.516 92.531 176.516 94.264 149.668 109.764"/>
    <polyline fill="#475059" points="74.592 157.728 73.592 155.995 100.501 140.459 101.501 142.191 74.592 157.728"/>
    <polyline fill="#475059" points="72.592 154.264 71.592 152.531 98.438 137.031 99.438 138.764 72.592 154.264"/>
    <polygon fill="#475059" points="154.053 128.129 185.054 128.129 185.054 126.129 154.053 126.129"/>
    <polygon fill="#475059" points="154.053 124.129 185.054 124.129 185.054 122.129 154.053 122.129"/>
    <polygon fill="#475059" points="65.054 128.129 96.125 128.129 96.125 126.129 65.054 126.129"/>
    <polygon fill="#475059" points="65.054 124.129 96.054 124.129 96.054 122.129 65.054 122.129"/>
    <polyline fill="#475059" points="175.516 157.728 148.668 142.227 149.668 140.494 176.516 155.995 175.516 157.728"/>
    <polyline fill="#475059" points="177.516 154.264 150.668 138.763 151.668 137.03 178.516 152.531 177.516 154.264"/>
    <polyline fill="#475059" points="98.501 113.264 71.592 97.727 72.592 95.995 99.501 111.531 98.501 113.264"/>
    <polyline fill="#475059" points="100.438 109.763 73.592 94.264 74.592 92.531 101.438 108.03 100.438 109.763"/>
    <polyline fill="#475059" points="152.455 178.591 136.955 151.743 138.688 150.743 154.188 177.591 152.455 178.591"/>
    <polyline fill="#475059" points="155.92 176.591 140.419 149.743 142.151 148.743 157.652 175.591 155.92 176.591"/>
    <polyline fill="#475059" points="107.991 101.576 92.455 74.668 94.187 73.668 109.724 100.576 107.991 101.576"/>
    <polyline fill="#475059" points="111.419 99.514 95.92 72.668 97.652 71.668 113.151 98.514 111.419 99.514"/>
    <polyline fill="#475059" points="191.246 128.129 189.054 128.129 189.054 126.129 190.861 126.129 200.054 122.454 200.054 120.129 199.246 120.129 189.425 124.058 188.683 122.2 198.861 118.129 202.054 118.129 202.054 123.808 191.246 128.129"/>
    <polyline fill="#475059" points="51.25 132.124 48.058 132.124 48.058 126.446 58.865 122.124 61.058 122.124 61.058 124.124 59.25 124.124 50.058 127.8 50.058 130.124 50.865 130.124 60.687 126.195 61.429 128.053 51.25 132.124"/>
    <polyline fill="#475059" points="188.213 145.158 186.096 144.591 186.613 142.659 188.359 143.127 198.189 141.955 198.792 139.71 198.012 139.501 187.508 140.754 187.271 138.768 198.158 137.47 201.241 138.296 199.771 143.781 188.213 145.158"/>
    <polyline fill="#475059" points="51.955 112.783 48.87 111.957 50.34 106.473 61.898 105.096 64.016 105.663 63.498 107.595 61.752 107.127 51.922 108.299 51.319 110.543 52.1 110.752 62.603 109.499 62.84 111.485 51.955 112.783"/>
    <polyline fill="#475059" points="192.397 162.482 180.878 160.822 178.979 159.727 179.979 157.994 181.544 158.898 191.343 160.311 192.505 158.298 191.806 157.894 181.336 156.386 181.621 154.405 192.472 155.97 195.237 157.565 192.397 162.482"/>
    <polyline fill="#475059" points="68.49 95.848 57.64 94.284 54.875 92.688 57.714 87.771 69.234 89.432 71.133 90.527 70.133 92.26 68.568 91.355 58.769 89.942 57.607 91.956 58.306 92.36 68.775 93.867 68.49 95.848"/>
    <polyline fill="#475059" points="180.435 178.64 169.736 174.053 168.187 172.503 169.601 171.089 170.879 172.367 179.978 176.269 181.621 174.624 181.05 174.054 171.328 169.887 172.115 168.049 182.192 172.366 184.449 174.624 180.435 178.64"/>
    <polyline fill="#475059" points="77.996 82.205 67.919 77.887 65.662 75.629 69.677 71.614 80.375 76.2 81.926 77.751 80.512 79.165 79.232 77.886 70.134 73.985 68.49 75.629 69.062 76.199 78.783 80.367 77.996 82.205"/>
    <polyline fill="#475059" points="164.696 191.148 155.551 183.951 154.454 182.052 156.187 181.052 157.09 182.617 164.87 188.74 166.883 187.578 166.479 186.879 158.167 180.338 159.403 178.766 168.019 185.545 169.615 188.311 164.696 191.148"/>
    <polyline fill="#475059" points="90.709 71.488 82.093 64.709 80.496 61.943 85.414 59.104 94.561 66.303 95.657 68.202 93.925 69.202 93.021 67.637 85.242 61.513 83.229 62.676 83.632 63.375 91.945 69.916 90.709 71.488"/>
    <polyline fill="#475059" points="146.259 199.16 139.287 189.839 138.72 187.721 140.651 187.203 141.119 188.95 147.05 196.877 149.294 196.275 149.085 195.496 142.748 187.025 144.35 185.828 150.917 194.605 151.743 197.689 146.259 199.16"/>
    <polyline fill="#475059" points="105.762 64.425 99.194 55.647 98.368 52.564 103.854 51.095 110.824 60.415 111.392 62.532 109.46 63.05 108.992 61.304 103.063 53.376 100.817 53.978 101.026 54.757 107.363 63.227 105.762 64.425"/>
    <polyline fill="#475059" points="132.054 202.125 126.375 202.125 122.054 191.317 122.054 189.125 124.054 189.125 124.054 190.933 127.729 200.125 130.054 200.125 130.054 199.317 126.125 189.496 127.982 188.754 132.054 198.933 132.054 202.125"/>
    <polyline fill="#475059" points="122.13 61.5 118.059 51.321 118.059 48.129 123.736 48.129 128.059 58.936 128.059 61.129 126.059 61.129 126.059 59.321 122.383 50.129 120.059 50.129 120.059 50.936 123.987 60.758 122.13 61.5"/>
    <polyline fill="#475059" points="111.887 201.313 106.401 199.843 105.024 188.284 105.592 186.167 107.523 186.685 107.056 188.431 108.228 198.261 110.473 198.863 110.682 198.083 109.429 187.579 111.415 187.343 112.713 198.228 111.887 201.313"/>
    <polyline fill="#475059" points="144.52 64.087 142.588 63.569 143.056 61.822 141.884 51.993 139.64 51.391 139.431 52.171 140.684 62.675 138.697 62.911 137.399 52.024 138.226 48.941 143.71 50.411 145.087 61.969 144.52 64.087"/>
    <polyline fill="#475059" points="92.617 195.308 87.7 192.469 89.36 180.948 90.456 179.05 92.188 180.05 91.284 181.614 89.872 191.414 91.885 192.575 92.289 191.877 93.797 181.407 95.777 181.692 94.213 192.543 92.617 195.308"/>
    <polyline fill="#475059" points="159.655 71.204 157.923 70.204 158.827 68.639 160.24 58.84 158.227 57.678 157.822 58.377 156.315 68.847 154.335 68.561 155.898 57.711 157.494 54.945 162.412 57.785 160.751 69.305 159.655 71.204"/>
    <polyline fill="#475059" points="75.559 184.521 71.543 180.506 76.129 169.808 77.68 168.257 79.094 169.671 77.816 170.95 73.914 180.049 75.559 181.692 76.129 181.121 80.296 171.399 82.134 172.187 77.816 182.264 75.559 184.521"/>
    <polyline fill="#475059" points="172.432 81.996 171.018 80.582 172.297 79.304 176.197 70.205 174.554 68.561 173.983 69.133 169.815 78.854 167.978 78.067 172.296 67.99 174.554 65.733 178.568 69.748 173.982 80.446 172.432 81.996"/>
    <polyline fill="#475059" points="61.872 169.686 59.034 164.769 66.231 155.622 68.131 154.525 69.131 156.258 67.565 157.161 61.442 164.94 62.604 166.953 63.304 166.55 69.845 158.237 71.417 159.474 64.638 168.089 61.872 169.686"/>
    <polyline fill="#475059" points="181.98 95.729 180.98 93.996 182.546 93.093 188.669 85.312 187.507 83.3 186.808 83.703 180.267 92.016 178.694 90.779 185.474 82.164 188.239 80.567 191.079 85.484 183.88 94.632 181.98 95.729"/>
    <polyline fill="#475059" points="52.493 151.814 51.022 146.329 60.344 139.358 62.462 138.791 62.979 140.723 61.232 141.19 53.306 147.12 53.907 149.365 54.687 149.156 63.157 142.819 64.354 144.421 55.577 150.988 52.493 151.814"/>
    <polyline fill="#475059" points="187.65 111.463 187.133 109.531 188.879 109.063 196.806 103.133 196.205 100.889 195.426 101.098 186.955 107.435 185.758 105.833 194.535 99.266 197.619 98.439 199.089 103.924 189.768 110.896 187.65 111.463"/>
    <path fill="#475059" d="M209.059,125.122 L207.059,125.122 C207.059,80.183 170.498,43.622 125.559,43.622 L125.559,41.622 C171.601,41.622 209.059,79.08 209.059,125.122"/>
    <polyline fill="#475059" points="208.059 127.539 203.352 122.832 204.766 121.418 208.059 124.711 211.352 121.418 212.766 122.832 208.059 127.539"/>
    <path fill="#475059" d="M123.583,43.646 L123.536,41.645 C124.209,41.63 124.883,41.622 125.559,41.622 L125.559,43.622 C124.898,43.622 124.24,43.63 123.583,43.646 Z M119.636,43.833 L119.495,41.839 C120.166,41.791 120.839,41.751 121.514,41.718 L121.609,43.716 C120.95,43.747 120.293,43.787 119.636,43.833 Z M115.705,44.212 L115.465,42.226 C116.133,42.145 116.805,42.072 117.479,42.009 L117.668,43.999 C117.012,44.063 116.357,44.133 115.705,44.212 Z M111.797,44.778 L111.459,42.808 C112.123,42.693 112.79,42.589 113.459,42.492 L113.746,44.471 C113.093,44.565 112.443,44.668 111.797,44.778 Z M107.92,45.536 L107.488,43.583 C108.146,43.438 108.806,43.301 109.47,43.171 L109.853,45.134 C109.206,45.26 108.562,45.395 107.92,45.536 Z M104.085,46.482 L103.556,44.553 C104.206,44.375 104.859,44.206 105.516,44.044 L105.996,45.985 C105.355,46.144 104.718,46.309 104.085,46.482 Z M100.297,47.612 L99.678,45.71 C100.318,45.502 100.963,45.301 101.609,45.107 L102.184,47.023 C101.551,47.213 100.922,47.408 100.297,47.612 Z M96.562,48.932 L95.849,47.063 C96.48,46.821 97.116,46.588 97.757,46.362 L98.421,48.249 C97.798,48.469 97.178,48.696 96.562,48.932 Z M92.895,50.431 L92.092,48.599 C92.711,48.328 93.334,48.064 93.961,47.808 L94.717,49.659 C94.105,49.909 93.498,50.166 92.895,50.431 Z M89.307,52.108 L88.416,50.317 C89.021,50.017 89.631,49.723 90.243,49.436 L91.091,51.248 C90.492,51.527 89.898,51.814 89.307,52.108 Z M85.806,53.957 L84.831,52.211 C85.419,51.882 86.013,51.559 86.61,51.243 L87.546,53.011 C86.962,53.32 86.382,53.636 85.806,53.957 Z M82.404,55.973 L81.342,54.277 C81.914,53.919 82.492,53.567 83.074,53.223 L84.094,54.943 C83.525,55.28 82.963,55.622 82.404,55.973 Z M79.102,58.149 L77.959,56.509 C78.513,56.123 79.072,55.744 79.638,55.372 L80.737,57.042 C80.188,57.404 79.642,57.773 79.102,58.149 Z M75.908,60.486 L74.689,58.9 C75.225,58.488 75.765,58.083 76.311,57.685 L77.49,59.3 C76.958,59.689 76.432,60.084 75.908,60.486 Z M72.836,62.97 L71.541,61.446 C72.055,61.009 72.575,60.578 73.1,60.153 L74.357,61.71 C73.845,62.123 73.338,62.544 72.836,62.97 Z M69.887,65.6 L68.52,64.141 C69.012,63.679 69.511,63.224 70.015,62.774 L71.345,64.269 C70.853,64.706 70.367,65.149 69.887,65.6 Z M67.065,68.369 L65.632,66.975 C66.102,66.491 66.577,66.013 67.059,65.54 L68.459,66.968 C67.989,67.429 67.525,67.896 67.065,68.369 Z M64.386,71.267 L62.886,69.944 C63.331,69.438 63.782,68.938 64.24,68.443 L65.709,69.801 C65.263,70.284 64.821,70.772 64.386,71.267 Z M61.849,74.291 L60.286,73.043 C60.707,72.516 61.134,71.994 61.567,71.479 L63.099,72.764 C62.677,73.268 62.26,73.777 61.849,74.291 Z M59.459,77.435 L57.84,76.261 C58.234,75.716 58.636,75.175 59.042,74.639 L60.636,75.848 C60.237,76.372 59.846,76.901 59.459,77.435 Z M57.228,80.685 L55.552,79.595 C55.919,79.028 56.294,78.469 56.676,77.913 L58.324,79.046 C57.952,79.588 57.587,80.133 57.228,80.685 Z M55.155,84.039 L53.429,83.031 C53.769,82.448 54.116,81.871 54.47,81.298 L56.171,82.351 C55.825,82.908 55.487,83.472 55.155,84.039 Z M53.249,87.488 L51.476,86.563 C51.787,85.966 52.105,85.373 52.431,84.784 L54.181,85.753 C53.863,86.326 53.553,86.905 53.249,87.488 Z M51.513,91.022 L49.696,90.186 C49.979,89.574 50.268,88.967 50.564,88.363 L52.359,89.246 C52.07,89.834 51.787,90.426 51.513,91.022 Z M49.949,94.639 L48.096,93.889 C48.348,93.266 48.606,92.645 48.873,92.027 L50.709,92.822 C50.448,93.424 50.195,94.029 49.949,94.639 Z M48.563,98.335 L46.674,97.681 C46.895,97.041 47.124,96.406 47.362,95.774 L49.233,96.479 C49.003,97.094 48.779,97.713 48.563,98.335 Z M47.357,102.097 L45.438,101.534 C45.628,100.886 45.826,100.241 46.032,99.599 L47.937,100.21 C47.736,100.835 47.542,101.464 47.357,102.097 Z M46.335,105.914 L44.392,105.443 C44.551,104.785 44.717,104.132 44.891,103.481 L46.822,103.999 C46.652,104.634 46.49,105.271 46.335,105.914 Z M45.502,109.773 L43.537,109.402 C43.662,108.737 43.797,108.075 43.939,107.417 L45.895,107.839 C45.756,108.481 45.625,109.126 45.502,109.773 Z M44.855,113.673 L42.875,113.392 C42.97,112.724 43.071,112.057 43.182,111.393 L45.154,111.719 C45.048,112.367 44.948,113.02 44.855,113.673 Z M44.401,117.595 L42.409,117.411 C42.472,116.738 42.541,116.067 42.618,115.4 L44.604,115.629 C44.529,116.282 44.462,116.938 44.401,117.595 Z M44.136,121.536 L42.138,121.452 C42.166,120.775 42.204,120.101 42.249,119.43 L44.245,119.564 C44.2,120.22 44.164,120.877 44.136,121.536 Z M44.059,125.122 L42.059,125.122 C42.059,124.569 42.063,124.018 42.074,123.469 L44.074,123.508 C44.063,124.045 44.059,124.583 44.059,125.122 Z"/>
    <path fill="#5FE0ED" d="M43.725 157.578C43.725 158.406 43.053 159.078 42.225 159.078 41.396 159.078 40.725 158.406 40.725 157.578 40.725 156.749 41.396 156.078 42.225 156.078 43.053 156.078 43.725 156.749 43.725 157.578M39.431 140.341C39.431 140.904 38.974 141.361 38.411 141.361 37.848 141.361 37.391 140.904 37.391 140.341 37.391 139.778 37.848 139.321 38.411 139.321 38.974 139.321 39.431 139.778 39.431 140.341M118.858 162.721C118.858 163.628 118.122 164.364 117.215 164.364 116.307 164.364 115.572 163.628 115.572 162.721 115.572 161.813 116.307 161.078 117.215 161.078 118.122 161.078 118.858 161.813 118.858 162.721M208.837 161.467C208.837 161.682 208.662 161.856 208.448 161.856 208.233 161.856 208.058 161.682 208.058 161.467 208.058 161.252 208.233 161.078 208.448 161.078 208.662 161.078 208.837 161.252 208.837 161.467M210.257 142.242C210.257 141.192 211.107 140.341 212.157 140.341 213.207 140.341 214.058 141.192 214.058 142.242 214.058 143.292 213.207 144.142 212.157 144.142 211.107 144.142 210.257 143.292 210.257 142.242M219.745 155.068C219.745 155.625 219.293 156.078 218.735 156.078 218.177 156.078 217.725 155.625 217.725 155.068 217.725 154.51 218.177 154.057 218.735 154.057 219.293 154.057 219.745 154.51 219.745 155.068M167.909 110.491C167.909 110.037 168.277 109.669 168.731 109.669 169.185 109.669 169.553 110.037 169.553 110.491 169.553 110.945 169.185 111.313 168.731 111.313 168.277 111.313 167.909 110.945 167.909 110.491M203.016 74.528C203.016 75.356 202.345 76.028 201.516 76.028 200.688 76.028 200.016 75.356 200.016 74.528 200.016 73.699 200.688 73.028 201.516 73.028 202.345 73.028 203.016 73.699 203.016 74.528M155.15 41.708C155.15 42.213 154.74 42.622 154.236 42.622 153.731 42.622 153.322 42.213 153.322 41.708 153.322 41.203 153.731 40.794 154.236 40.794 154.74 40.794 155.15 41.203 155.15 41.708M131.387 75.328C131.387 75.77 131.028 76.129 130.586 76.129 130.144 76.129 129.786 75.77 129.786 75.328 129.786 74.886 130.144 74.528 130.586 74.528 131.028 74.528 131.387 74.886 131.387 75.328"/>
    <path fill="#FFD15D" d="M125.054,134.129 C120.083,134.129 116.054,130.1 116.054,125.129 C116.054,120.159 120.083,116.129 125.054,116.129 C130.024,116.129 134.054,120.159 134.054,125.129 C134.054,130.1 130.024,134.129 125.054,134.129 Z M125.054,100.129 C111.247,100.129 100.054,111.322 100.054,125.129 C100.054,138.936 111.247,150.129 125.054,150.129 C138.861,150.129 150.054,138.936 150.054,125.129 C150.054,111.322 138.861,100.129 125.054,100.129 Z"/>
    <polygon fill="#48515A" points="34.942 144.457 36.942 144.457 36.942 140.457 34.942 140.457"/>
    <polygon fill="#48515A" points="34.942 154.457 36.942 154.457 36.942 150.457 34.942 150.457"/>
    <polygon fill="#48515A" points="38.942 148.457 42.942 148.457 42.942 146.457 38.942 146.457"/>
    <polygon fill="#48515A" points="28.942 148.457 32.942 148.457 32.942 146.457 28.942 146.457"/>
    <polygon fill="#48515A" points="213.003 184.487 215.003 184.487 215.003 180.487 213.003 180.487"/>
    <polygon fill="#48515A" points="213.003 194.487 215.003 194.487 215.003 190.487 213.003 190.487"/>
    <polygon fill="#48515A" points="217.003 188.487 221.003 188.487 221.003 186.487 217.003 186.487"/>
    <polygon fill="#48515A" points="207.003 188.487 211.003 188.487 211.003 186.487 207.003 186.487"/>
  </g>
</svg>
