<svg xmlns="http://www.w3.org/2000/svg" width="250" height="250" viewBox="0 0 250 250">
  <g fill="none" fill-rule="evenodd">
    <path fill="#5FE0ED" d="M108.038 80.004L108.038 70.311C104.764 67.633 100.594 66.01 96.034 66.01 85.541 66.01 77.034 74.517 77.034 85.01L77.034 88.01C70.407 88.01 65.034 93.383 65.034 100.01L65.034 112.01 108.776 112.01C108.826 110.218 108.858 108.424 108.858 106.629L108.858 80.004 108.038 80.004M202.042 81.99L202.038 81.99C202.038 77.63 199.098 73.62 195.094 72.387L195.061 69.99C195.061 66.676 192.374 63.99 189.061 63.99L188.951 63.99C187.956 54.99 180.326 47.99 171.061 47.99 169.527 47.99 168.038 48.181 166.617 48.542L166.387 47.989C166.053 47.284 165.594 46.623 165.01 46.04 163.077 44.107 160.295 43.541 157.864 44.342L157.567 43.594C154.621 36.628 147.638 31.785 139.551 31.996 129.18 32.268 121.061 41.084 121.061 51.459L121.061 53.99C121.055 53.99 121.049 53.99 121.042 53.99 114.958 54.009 110.038 58.964 110.038 65.047L110.038 78 164.251 78 164.251 106.629C164.251 112.784 164.553 118.918 165.137 125.011L194.032 125.011C194.032 120.04 190.003 116.01 185.032 116.01L185.028 116.01C185.028 113.79 184.261 111.664 182.985 109.943 188.738 109.591 193.614 106.011 195.81 100.978 199.776 100.88 203.171 98.476 204.697 95.055 205.808 92.564 208.315 90.991 211.043 90.99 211.043 86.019 207.013 81.99 202.042 81.99"/>
    <path fill="#DEDEDD" d="M71.965,211.776 C78.131,188.279 81.39,161.275 81.39,133.686 L81.39,115.01 L66.034,115.01 L66.034,133.686 C66.034,161.275 58.391,188.279 43.932,211.776 L42.034,214.859 L42.034,215.01 L71.156,215.01 L71.156,214.859 L71.965,211.776"/>
    <path fill="#48515A" d="M74.038,219.01 L38.034,219.01 L38.034,213.727 L40.525,209.68 C54.596,186.813 62.034,160.535 62.034,133.687 L62.034,111.01 L106.035,111.01 L106.035,113.01 L64.034,113.01 L64.034,133.687 C64.034,160.905 56.494,187.546 42.228,210.729 L40.034,214.293 L40.034,217.01 L74.038,217.01 L74.038,219.01"/>
    <polygon fill="#48515A" points="63.034 141.01 105.034 141.01 105.034 139.01 63.034 139.01"/>
    <path fill="#DEDEDD" d="M83.628,209.767 C102.725,178.732 112.82,143.067 112.82,106.628 L112.82,81.962 L130.466,81.962 L130.466,106.628 C130.466,143.067 126.449,178.732 118.849,209.767 L117.852,213.838 L117.852,214.038 L81.122,214.038 L81.122,213.838 L83.628,209.767"/>
    <path fill="#48515A" d="M78.16,217 L194.95,217 L194.95,213 L192.004,208.215 C173.194,177.647 163.251,142.52 163.251,106.629 L163.251,79 L109.857,79 L109.857,106.629 C109.857,142.521 99.915,177.648 81.104,208.215 L78.16,213 L78.16,217 Z M196.95,219 L76.16,219 L76.16,212.434 L79.401,207.166 C98.018,176.915 107.857,142.15 107.857,106.629 L107.857,77 L165.251,77 L165.251,106.629 C165.251,142.149 175.091,176.914 193.708,207.166 L196.95,212.434 L196.95,219 Z"/>
    <polygon fill="#48515A" points="108.178 115.981 164.251 115.981 164.251 113.981 108.178 113.981"/>
    <path fill="#48515A" d="M137.42,139.004 C135.79,139.004 133.42,144.068 133.42,152.004 C133.42,159.939 135.79,165.004 137.42,165.004 C139.051,165.004 141.42,159.939 141.42,152.004 C141.42,144.068 139.051,139.004 137.42,139.004 Z M137.42,167.004 C133.523,167.004 131.42,159.275 131.42,152.004 C131.42,144.732 133.523,137.004 137.42,137.004 C141.317,137.004 143.42,144.732 143.42,152.004 C143.42,159.275 141.317,167.004 137.42,167.004 Z"/>
    <path fill="#48515A" d="M128.375,144.782 C127.207,144.782 126.429,145.041 126.162,145.504 C125.832,146.076 126.099,147.418 127.841,149.469 C129.587,151.524 132.279,153.654 135.42,155.468 C138.562,157.282 141.753,158.548 144.405,159.032 C147.054,159.514 148.348,159.077 148.678,158.504 C149.009,157.932 148.741,156.591 146.999,154.54 C145.253,152.484 142.562,150.354 139.42,148.54 C134.801,145.873 130.769,144.782 128.375,144.782 Z M146.444,161.24 C145.757,161.24 144.964,161.167 144.046,160.999 C141.174,160.475 137.755,159.126 134.42,157.2 C131.085,155.274 128.208,152.989 126.317,150.764 C123.61,147.577 123.797,145.601 124.43,144.504 C126.379,141.13 134.124,143.174 140.42,146.808 C143.755,148.733 146.633,151.02 148.523,153.245 C151.23,156.432 151.043,158.407 150.41,159.504 C149.919,160.355 148.833,161.24 146.444,161.24 Z"/>
    <path fill="#48515A" d="M135.42,148.54 C132.279,150.354 129.587,152.484 127.841,154.54 C126.1,156.591 125.832,157.932 126.162,158.504 C126.979,159.916 132.549,159.435 139.42,155.468 C142.562,153.654 145.253,151.524 146.999,149.469 C148.741,147.418 149.009,146.076 148.678,145.504 C147.864,144.093 142.292,144.574 135.42,148.54 Z M128.392,161.221 C126.554,161.221 125.124,160.707 124.43,159.504 C123.797,158.407 123.61,156.432 126.317,153.245 C128.208,151.02 131.085,148.733 134.42,146.808 C140.717,143.174 148.462,141.13 150.411,144.504 C151.043,145.601 151.23,147.577 148.523,150.764 C146.633,152.989 143.755,155.274 140.42,157.2 C136.367,159.54 131.713,161.221 128.392,161.221 Z"/>
    <polygon fill="#48515A" points="213.053 142.004 215.053 142.004 215.053 138.004 213.053 138.004"/>
    <polygon fill="#48515A" points="213.053 152.004 215.053 152.004 215.053 148.004 213.053 148.004"/>
    <polygon fill="#48515A" points="217.053 146.004 221.053 146.004 221.053 144.004 217.053 144.004"/>
    <polygon fill="#48515A" points="207.053 146.004 211.053 146.004 211.053 144.004 207.053 144.004"/>
    <polygon fill="#48515A" points="34.947 162.017 36.947 162.017 36.947 158.017 34.947 158.017"/>
    <polygon fill="#48515A" points="34.947 172.017 36.947 172.017 36.947 168.017 34.947 168.017"/>
    <polygon fill="#48515A" points="38.947 166.017 42.947 166.017 42.947 164.017 38.947 164.017"/>
    <polygon fill="#48515A" points="28.947 166.017 32.947 166.017 32.947 164.017 28.947 164.017"/>
    <polygon fill="#48515A" points="54.958 51.95 56.958 51.95 56.958 47.95 54.958 47.95"/>
    <polygon fill="#48515A" points="54.958 61.95 56.958 61.95 56.958 57.95 54.958 57.95"/>
    <polygon fill="#48515A" points="58.958 55.95 62.958 55.95 62.958 53.95 58.958 53.95"/>
    <polygon fill="#48515A" points="48.958 55.95 52.958 55.95 52.958 53.95 48.958 53.95"/>
    <path fill="#DEDEDD" d="M210.026,163.944 C210.026,165.049 209.131,165.944 208.026,165.944 C206.922,165.944 206.026,165.049 206.026,163.944 C206.026,162.84 206.922,161.944 208.026,161.944 C209.131,161.944 210.026,162.84 210.026,163.944"/>
    <path fill="#FFD15D" d="M192.016 153.938C192.016 155.043 191.12 155.938 190.016 155.938 188.911 155.938 188.016 155.043 188.016 153.938 188.016 152.834 188.911 151.938 190.016 151.938 191.12 151.938 192.016 152.834 192.016 153.938M77.16 68.01C77.16 69.115 76.264 70.01 75.16 70.01 74.055 70.01 73.16 69.115 73.16 68.01 73.16 66.906 74.055 66.01 75.16 66.01 76.264 66.01 77.16 66.906 77.16 68.01M53.705 100.004C53.705 101.109 52.81 102.004 51.705 102.004 50.6 102.004 49.705 101.109 49.705 100.004 49.705 98.9 50.6 98.004 51.705 98.004 52.81 98.004 53.705 98.9 53.705 100.004M42.947 182.01C42.947 183.115 42.051 184.01 40.947 184.01 39.842 184.01 38.947 183.115 38.947 182.01 38.947 180.906 39.842 180.01 40.947 180.01 42.051 180.01 42.947 180.906 42.947 182.01"/>
  </g>
</svg>
