<svg xmlns="http://www.w3.org/2000/svg" xmlns:xlink="http://www.w3.org/1999/xlink" width="193" height="160" viewBox="0 0 193 160">
  <defs>
    <polygon id="cc250-a" points=".396 .04 128.814 .04 128.814 129.738 .396 129.738"/>
  </defs>
  <g fill="none" fill-rule="evenodd">
    <path fill="#DEDEDD" d="M112.129,75.766 C112.13,75.844 112.141,75.921 112.141,76 C112.141,84.822 104.963,92 96.141,92 C87.318,92 80.141,84.822 80.141,76 C80.141,75.921 80.151,75.844 80.153,75.766 L72.147,75.766 C72.146,75.844 72.141,75.922 72.141,76 C72.141,89.234 82.907,100 96.141,100 C109.374,100 120.141,89.234 120.141,76 C120.141,75.922 120.135,75.844 120.135,75.766 L112.129,75.766"/>
    <g transform="translate(42)">
      <mask id="cc250-b" fill="#fff">
        <use xlink:href="#cc250-a"/>
      </mask>
      <path fill="#475059" d="M107.877 129.738L106.463 128.324C117.04 117.747 124.09 104.431 126.85 89.815L128.814 90.186C125.979 105.198 118.74 118.876 107.877 129.738M57.064 2.055C56.41 2.03 55.754 2.013 55.094 2.005L55.119.005C55.797.013 56.471.031 57.143.057L57.064 2.055zM51.147 2.058L51.067.06C51.741.032 52.416.014 53.095.005L53.12 2.005C52.461 2.014 51.804 2.031 51.147 2.058zM61.002 2.313C60.349 2.253 59.692 2.201 59.034 2.159L59.165.163C59.841.207 60.515.26 61.186.322L61.002 2.313zM47.205 2.319L47.021.328C47.693.265 48.368.212 49.045.167L49.178 2.162C48.519 2.206 47.861 2.258 47.205 2.319zM64.912 2.777C64.265 2.683 63.614 2.597 62.961 2.519L63.197.533C63.868.612 64.536.701 65.201.798L64.912 2.777zM43.28 2.789L42.989.811C43.657.713 44.328.623 45.002.543L45.24 2.528C44.584 2.607 43.931 2.694 43.28 2.789zM68.792 3.449C68.149 3.32 67.505 3.199 66.857 3.088L67.197 1.117C67.862 1.232 68.526 1.356 69.187 1.488L68.792 3.449zM39.385 3.469L38.988 1.509C39.65 1.375 40.315 1.25 40.983 1.133L41.327 3.103C40.677 3.217 40.029 3.339 39.385 3.469zM72.631 4.328C71.996 4.165 71.357 4.01 70.717 3.863L71.164 1.914C71.822 2.065 72.477 2.224 73.129 2.392L72.631 4.328zM35.534 4.356L35.034 2.42C35.687 2.251 36.345 2.09 37.005 1.938L37.454 3.886C36.811 4.034 36.172 4.191 35.534 4.356zM76.419 5.412C75.794 5.215 75.164 5.026 74.532 4.844L75.083 2.922C75.732 3.108 76.378 3.302 77.021 3.505L76.419 5.412zM31.737 5.449L31.134 3.542C31.778 3.339 32.425 3.143 33.076 2.955L33.629 4.877C32.995 5.06 32.364 5.251 31.737 5.449zM80.145 6.697C79.53 6.467 78.913 6.244 78.291 6.029L78.943 4.139C79.583 4.359 80.218 4.588 80.848 4.825L80.145 6.697zM28.006 6.744L27.301 4.873C27.932 4.634 28.567 4.404 29.207 4.182L29.863 6.071C29.241 6.288 28.621 6.512 28.006 6.744zM83.796 8.182C83.194 7.918 82.59 7.663 81.979 7.415L82.733 5.562C83.359 5.817 83.981 6.079 84.599 6.35L83.796 8.182zM24.35 8.237L23.545 6.406C24.163 6.134 24.785 5.87 25.412 5.614L26.168 7.466C25.559 7.715 24.952 7.972 24.35 8.237zM87.363 9.859C86.776 9.564 86.186 9.276 85.59 8.996L86.441 7.187C87.053 7.474 87.659 7.769 88.262 8.073L87.363 9.859zM20.78 9.924L19.876 8.14C20.479 7.835 21.087 7.538 21.699 7.249L22.553 9.057C21.958 9.339 21.366 9.627 20.78 9.924zM90.838 11.726C90.267 11.4 89.691 11.08 89.112 10.769L90.06 9.007C90.654 9.327 91.245 9.654 91.83 9.989L90.838 11.726zM17.307 11.801L16.309 10.068C16.895 9.731 17.485 9.401 18.08 9.08L19.031 10.839C18.452 11.152 17.877 11.473 17.307 11.801zM94.206 13.775C93.654 13.419 93.098 13.07 92.535 12.729L93.572 11.019C94.15 11.37 94.723 11.729 95.29 12.094L94.206 13.775zM13.937 13.859L12.85 12.181C13.417 11.814 13.988 11.454 14.565 11.101L15.608 12.807C15.047 13.151 14.489 13.502 13.937 13.859zM97.464 16.001C96.931 15.616 96.394 15.238 95.85 14.866L96.979 13.215C97.536 13.596 98.089 13.985 98.636 14.381L97.464 16.001zM10.683 16.094L9.507 14.477C10.053 14.079 10.604 13.69 11.162 13.306L12.295 14.955C11.753 15.327 11.215 15.707 10.683 16.094zM100.597 18.398C100.084 17.984 99.566 17.578 99.045 17.178L100.262 15.591C100.797 16.001 101.328 16.418 101.853 16.841L100.597 18.398zM7.553 18.498L6.293 16.945C6.817 16.52 7.348 16.101 7.885 15.689L9.102 17.276C8.58 17.676 8.063 18.084 7.553 18.498zM103.599 20.957C103.11 20.517 102.614 20.084 102.114 19.657L103.413 18.135C103.927 18.574 104.435 19.019 104.937 19.47L103.599 20.957zM4.555 21.065L3.213 19.581C3.714 19.128 4.222 18.682 4.735 18.242L6.036 19.762C5.536 20.19 5.042 20.624 4.555 21.065zM1.811 23.673L.396 22.258C.835 21.82 1.279 21.387 1.729 20.959L3.107 22.407C2.67 22.823 2.237 23.246 1.811 23.673zM106.463 23.673C105.997 23.208 105.526 22.748 105.049 22.295L106.426 20.845C106.915 21.31 107.399 21.781 107.877 22.258L106.463 23.673z" mask="url(#cc250-b)"/>
    </g>
    <path fill="#475059" d="M96.137,151.998 C76.384,151.998 57.67,144.457 43.443,130.766 C43.225,130.555 43.013,130.337 42.801,130.12 L42.412,129.724 L43.826,128.31 L44.234,128.725 C44.431,128.927 44.627,129.129 44.83,129.325 C58.683,142.656 76.903,149.998 96.137,149.998 C115.903,149.998 134.486,142.301 148.463,128.324 L149.877,129.738 C135.522,144.093 116.438,151.998 96.137,151.998"/>
    <path fill="#475059" d="M42.412,129.724 C28.047,115.359 20.137,96.28 20.137,75.999 C20.137,62.116 23.915,48.533 31.062,36.718 C34.237,31.469 38.051,26.604 42.396,22.258 L43.811,23.673 C39.579,27.904 35.865,32.642 32.773,37.753 C25.815,49.256 22.137,62.481 22.137,75.999 C22.137,95.745 29.839,114.323 43.826,128.31 L42.412,129.724"/>
    <path fill="#475059" d="M91.434,145 L100.848,145 L104.737,129.462 L115.427,126.597 L126.564,138.109 L134.717,133.402 L130.316,118.001 L138.142,110.176 L153.543,114.576 L158.25,106.424 L146.738,95.286 L149.603,84.597 L165.141,80.707 L165.141,71.293 L149.603,67.404 L146.738,56.714 L158.25,45.577 L153.543,37.424 L138.142,41.825 L130.316,33.999 L134.717,18.598 L126.564,13.891 L115.427,25.403 L104.737,22.538 L100.848,7 L91.434,7 L87.544,22.538 L76.854,25.403 L65.717,13.891 L57.564,18.598 L61.965,33.999 L54.14,41.825 L38.738,37.424 L34.031,45.577 L45.543,56.714 L42.679,67.404 L27.141,71.293 L27.141,80.707 L42.679,84.597 L45.543,95.286 L34.031,106.424 L38.738,114.576 L54.14,110.176 L61.965,118.001 L57.564,133.402 L65.717,138.109 L76.854,126.597 L87.544,129.462 L91.434,145 Z M102.408,147 L89.873,147 L85.89,131.089 L77.474,128.833 L66.068,140.621 L55.213,134.354 L59.719,118.583 L53.558,112.422 L37.787,116.928 L31.519,106.072 L43.307,94.667 L41.052,86.251 L25.141,82.268 L25.141,69.732 L41.052,65.75 L43.307,57.333 L31.519,45.928 L37.787,35.072 L53.558,39.579 L59.719,33.417 L55.213,17.647 L66.068,11.378 L77.474,23.167 L85.89,20.911 L89.873,5 L102.408,5 L106.392,20.911 L114.808,23.167 L126.213,11.378 L137.068,17.647 L132.563,33.417 L138.724,39.579 L154.494,35.072 L160.762,45.928 L148.975,57.333 L151.229,65.75 L167.141,69.732 L167.141,82.268 L151.229,86.251 L148.975,94.667 L160.762,106.072 L154.494,116.928 L138.724,112.422 L132.563,118.583 L137.068,134.354 L126.213,140.621 L114.808,128.833 L106.392,131.089 L102.408,147 Z"/>
    <path fill="#F58E70" d="M96.141,110 C77.393,110 62.141,94.748 62.141,76 C62.141,57.253 77.393,42 96.141,42 C114.889,42 130.141,57.253 130.141,76 C130.141,94.748 114.889,110 96.141,110 Z M96.141,32 C71.84,32 52.141,51.7 52.141,76 C52.141,100.301 71.84,120 96.141,120 C120.441,120 140.141,100.301 140.141,76 C140.141,51.7 120.441,32 96.141,32 Z"/>
    <path fill="#475059" d="M91.434,145 L100.848,145 L104.737,129.462 L115.427,126.598 L126.563,138.109 L134.718,133.402 L130.316,118.001 L138.142,110.176 L153.543,114.577 L158.25,106.423 L146.738,95.286 L149.603,84.597 L165.141,80.707 L165.141,71.293 L149.603,67.404 L146.738,56.714 L158.25,45.577 L153.543,37.424 L138.142,41.825 L130.316,33.999 L134.718,18.598 L126.563,13.891 L115.427,25.403 L104.737,22.538 L100.848,7 L91.434,7 L87.544,22.538 L76.854,25.403 L65.718,13.891 L57.563,18.598 L61.965,33.999 L54.14,41.825 L38.738,37.424 L34.031,45.577 L45.543,56.714 L42.679,67.404 L27.141,71.293 L27.141,80.707 L42.679,84.597 L45.543,95.286 L34.031,106.423 L38.738,114.577 L54.14,110.176 L61.965,118.001 L57.563,133.402 L65.718,138.109 L76.854,126.598 L87.544,129.462 L91.434,145 Z M102.408,147 L89.873,147 L85.89,131.089 L77.474,128.834 L66.069,140.621 L55.212,134.354 L59.719,118.583 L53.558,112.422 L37.787,116.929 L31.519,106.071 L43.307,94.667 L41.052,86.251 L25.141,82.268 L25.141,69.732 L41.052,65.75 L43.307,57.333 L31.519,45.928 L37.787,35.072 L53.558,39.579 L59.719,33.417 L55.212,17.647 L66.069,11.378 L77.474,23.167 L85.89,20.911 L89.873,5 L102.408,5 L106.392,20.911 L114.808,23.167 L126.212,11.378 L137.069,17.647 L132.563,33.417 L138.724,39.579 L154.494,35.072 L160.762,45.928 L148.975,57.333 L151.229,65.75 L167.141,69.732 L167.141,82.268 L151.229,86.251 L148.975,94.667 L160.762,106.071 L154.494,116.929 L138.724,112.422 L132.563,118.583 L137.069,134.354 L126.212,140.621 L114.808,128.834 L106.392,131.089 L102.408,147 Z"/>
    <path fill="#475059" d="M96.141,33 C72.431,33 53.141,52.29 53.141,76 C53.141,99.71 72.431,119 96.141,119 C119.851,119 139.141,99.71 139.141,76 C139.141,52.29 119.851,33 96.141,33 Z M96.141,121 C71.327,121 51.141,100.814 51.141,76 C51.141,51.187 71.327,31 96.141,31 C120.954,31 141.141,51.187 141.141,76 C141.141,100.814 120.954,121 96.141,121 Z"/>
    <path fill="#475059" d="M96.141,65 C90.075,65 85.141,69.935 85.141,76 C85.141,82.065 90.075,87 96.141,87 C102.206,87 107.141,82.065 107.141,76 C107.141,69.935 102.206,65 96.141,65 Z M96.141,89 C88.973,89 83.141,83.168 83.141,76 C83.141,68.832 88.973,63 96.141,63 C103.309,63 109.141,68.832 109.141,76 C109.141,83.168 103.309,89 96.141,89 Z"/>
    <path fill="#475059" d="M96.141,61 C87.869,61 81.141,67.729 81.141,76 C81.141,84.272 87.869,91 96.141,91 C104.412,91 111.141,84.272 111.141,76 C111.141,67.729 104.412,61 96.141,61 Z M96.141,93 C86.767,93 79.141,85.374 79.141,76 C79.141,66.626 86.767,59 96.141,59 C105.515,59 113.141,66.626 113.141,76 C113.141,85.374 105.515,93 96.141,93 Z"/>
    <polyline fill="#475059" points="173.47 96.698 169.862 90.674 163.854 94.266 162.828 92.549 170.552 87.932 175.187 95.671 173.47 96.698"/>
    <polygon fill="#48515A" points="184.107 75.765 186.107 75.765 186.107 71.765 184.107 71.765"/>
    <polygon fill="#48515A" points="184.107 85.766 186.107 85.766 186.107 81.766 184.107 81.766"/>
    <polygon fill="#48515A" points="188.107 79.766 192.107 79.766 192.107 77.766 188.107 77.766"/>
    <polygon fill="#48515A" points="178.107 79.766 182.107 79.766 182.107 77.766 178.107 77.766"/>
    <polygon fill="#48515A" points="6 53.752 8 53.752 8 49.752 6 49.752"/>
    <polygon fill="#48515A" points="6 63.752 8 63.752 8 59.752 6 59.752"/>
    <polygon fill="#48515A" points="10 57.752 14 57.752 14 55.752 10 55.752"/>
    <polygon fill="#48515A" points="0 57.752 4 57.752 4 55.752 0 55.752"/>
    <polygon fill="#48515A" points="16.006 133.8 18.006 133.8 18.006 129.8 16.006 129.8"/>
    <polygon fill="#48515A" points="16.006 143.8 18.006 143.8 18.006 139.8 16.006 139.8"/>
    <polygon fill="#48515A" points="20.006 137.8 24.006 137.8 24.006 135.8 20.006 135.8"/>
    <polygon fill="#48515A" points="10.006 137.8 14.006 137.8 14.006 135.8 10.006 135.8"/>
    <path fill="#F58E70" d="M26.543 32.404C26.543 33.508 25.648 34.404 24.543 34.404 23.439 34.404 22.543 33.508 22.543 32.404 22.543 31.299 23.439 30.404 24.543 30.404 25.648 30.404 26.543 31.299 26.543 32.404M162.625 132.463C162.625 133.568 161.73 134.463 160.625 134.463 159.52 134.463 158.625 133.568 158.625 132.463 158.625 131.359 159.52 130.463 160.625 130.463 161.73 130.463 162.625 131.359 162.625 132.463M178.635 105.447C178.635 106.552 177.739 107.447 176.635 107.447 175.53 107.447 174.635 106.552 174.635 105.447 174.635 104.343 175.53 103.447 176.635 103.447 177.739 103.447 178.635 104.343 178.635 105.447"/>
    <path fill="#FFD15D" d="M116.597,13.392 C116.597,14.497 115.702,15.392 114.597,15.392 C113.493,15.392 112.597,14.497 112.597,13.392 C112.597,12.288 113.493,11.392 114.597,11.392 C115.702,11.392 116.597,12.288 116.597,13.392"/>
    <path fill="#475059" d="M96.142,50 C81.805,50 70.142,61.663 70.142,76 C70.142,90.336 81.805,101.999 96.142,101.999 C110.479,101.999 122.142,90.336 122.142,76 C122.142,61.663 110.479,50 96.142,50 Z M96.142,103.999 C80.702,103.999 68.142,91.439 68.142,76 C68.142,60.56 80.702,48 96.142,48 C111.581,48 124.142,60.56 124.142,76 C124.142,91.439 111.581,103.999 96.142,103.999 Z"/>
    <polygon fill="#475059" points="68.14 160 70.14 160 70.14 158 68.14 158"/>
    <polygon fill="#475059" points="122.173 160 124.173 160 124.173 158 122.173 158"/>
    <path fill="#DEDEDD" d="M163.141,79.146 L163.141,75.766 L143.135,75.766 C143.135,75.844 143.141,75.922 143.141,76 C143.141,101.916 122.057,123 96.141,123 C70.225,123 49.141,101.916 49.141,76 C49.141,75.922 49.146,75.844 49.147,75.766 L29.141,75.766 L29.141,79.146 L44.307,82.942 L47.779,95.905 L36.544,106.776 L39.69,112.225 L54.722,107.929 L64.211,117.419 L59.916,132.451 L65.365,135.597 L76.235,124.36 L89.198,127.835 L92.995,143 L99.286,143 L103.083,127.835 L116.046,124.36 L126.916,135.597 L132.365,132.451 L128.07,117.419 L137.56,107.929 L152.591,112.225 L155.737,106.776 L144.502,95.905 L147.975,82.942 L163.141,79.146"/>
    <polygon fill="#475059" points="68.142 155.99 70.142 155.99 70.142 76 68.142 76"/>
    <polygon fill="#475059" points="122.142 155.99 124.142 155.99 124.142 76 122.142 76"/>
  </g>
</svg>
