<svg xmlns="http://www.w3.org/2000/svg" width="250" height="250" viewBox="0 0 250 250">
  <g fill="none" fill-rule="evenodd">
    <path fill="#FFD15D" d="M208.013,121.912 C207.984,123.021 207.905,124.117 207.775,125.198 C207.941,124.312 208.036,123.413 208.036,122.499 C208.036,122.302 208.02,122.107 208.013,121.912"/>
    <path fill="#FFD15D" d="M173.037,99.999 L79.123,99.999 C64.861,99.999 52.231,105.439 46.789,113.889 L46.789,134.391 C52.23,147.537 64.861,155.999 79.123,155.999 L173.037,155.999 C190.914,155.999 205.693,142.523 207.775,125.198 C207.905,124.117 207.984,123.021 208.013,121.912 C207.525,109.776 192.029,99.999 173.037,99.999"/>
    <path fill="#475059" d="M86.123,81.999 L98.118,81.999 L98.118,79.999 L86.123,79.999 L86.123,81.999 Z M84.123,83.999 L100.119,83.999 L100.119,77.999 L84.123,77.999 L84.123,83.999 Z"/>
    <path fill="#475059" d="M82.123 77.999L102.119 77.999 102.119 76.001C102.119 74.347 100.773 73.001 99.119 73.001L85.123 73.001C83.469 73.001 82.123 74.347 82.123 76.001L82.123 77.999zM104.119 79.999L80.123 79.999 80.123 76.001C80.123 73.244 82.367 71.001 85.123 71.001L99.119 71.001C101.875 71.001 104.119 73.244 104.119 76.001L104.119 79.999zM77.122 87.999L79.122 87.999 79.122 85.999 77.122 85.999 77.122 87.999zM77.122 91.999L79.122 91.999 79.122 89.999 77.122 89.999 77.122 91.999zM77.122 95.999L79.122 95.999 79.122 93.999 77.122 93.999 77.122 95.999zM77.122 99.999L79.122 99.999 79.122 97.999 77.122 97.999 77.122 99.999zM77.122 103.999L79.122 103.999 79.122 101.999 77.122 101.999 77.122 103.999zM77.122 107.999L79.122 107.999 79.122 105.999 77.122 105.999 77.122 107.999zM77.122 111.999L79.122 111.999 79.122 109.999 77.122 109.999 77.122 111.999zM77.122 115.999L79.122 115.999 79.122 113.999 77.122 113.999 77.122 115.999zM77.122 119.999L79.122 119.999 79.122 117.999 77.122 117.999 77.122 119.999zM77.122 123.999L79.122 123.999 79.122 121.999 77.122 121.999 77.122 123.999zM77.122 127.999L79.122 127.999 79.122 125.999 77.122 125.999 77.122 127.999zM77.122 131.999L79.122 131.999 79.122 129.999 77.122 129.999 77.122 131.999zM77.122 135.999L79.122 135.999 79.122 133.999 77.122 133.999 77.122 135.999zM77.122 139.999L79.122 139.999 79.122 137.999 77.122 137.999 77.122 139.999zM77.122 143.999L79.122 143.999 79.122 141.999 77.122 141.999 77.122 143.999zM77.122 147.999L79.122 147.999 79.122 145.999 77.122 145.999 77.122 147.999zM77.122 151.999L79.122 151.999 79.122 149.999 77.122 149.999 77.122 151.999zM77.122 155.997L79.122 155.997 79.122 153.999 77.122 153.999 77.122 155.997zM173.18 87.999L175.18 87.999 175.18 85.999 173.18 85.999 173.18 87.999zM173.18 91.999L175.18 91.999 175.18 89.999 173.18 89.999 173.18 91.999zM173.18 95.999L175.18 95.999 175.18 93.999 173.18 93.999 173.18 95.999zM173.18 99.999L175.18 99.999 175.18 97.999 173.18 97.999 173.18 99.999zM173.18 103.999L175.18 103.999 175.18 101.999 173.18 101.999 173.18 103.999zM173.18 107.999L175.18 107.999 175.18 105.999 173.18 105.999 173.18 107.999zM173.18 111.999L175.18 111.999 175.18 109.999 173.18 109.999 173.18 111.999zM173.18 115.999L175.18 115.999 175.18 113.999 173.18 113.999 173.18 115.999zM173.18 119.999L175.18 119.999 175.18 117.999 173.18 117.999 173.18 119.999zM173.18 123.999L175.18 123.999 175.18 121.999 173.18 121.999 173.18 123.999zM173.18 127.999L175.18 127.999 175.18 125.999 173.18 125.999 173.18 127.999zM173.18 131.999L175.18 131.999 175.18 129.999 173.18 129.999 173.18 131.999zM173.18 135.999L175.18 135.999 175.18 133.999 173.18 133.999 173.18 135.999zM173.18 139.999L175.18 139.999 175.18 137.999 173.18 137.999 173.18 139.999zM173.18 143.999L175.18 143.999 175.18 141.999 173.18 141.999 173.18 143.999zM173.18 147.999L175.18 147.999 175.18 145.999 173.18 145.999 173.18 147.999zM173.18 151.999L175.18 151.999 175.18 149.999 173.18 149.999 173.18 151.999zM173.18 155.997L175.18 155.997 175.18 153.999 173.18 153.999 173.18 155.997z"/>
    <polygon fill="#475059" points="119.322 159.998 121.322 159.998 121.322 67.001 119.322 67.001"/>
    <polygon fill="#475059" points="133.322 159.998 135.322 159.998 135.322 67.001 133.322 67.001"/>
    <polygon fill="#475059" points="120.29 121.999 135.124 121.999 135.124 119.999 120.29 119.999"/>
    <polygon fill="#475059" points="120.29 112.499 135.124 112.499 135.124 110.499 120.29 110.499"/>
    <polygon fill="#475059" points="120.29 102.999 135.124 102.999 135.124 100.999 120.29 100.999"/>
    <polygon fill="#475059" points="120.29 93.499 135.124 93.499 135.124 91.499 120.29 91.499"/>
    <polygon fill="#475059" points="120.29 150.499 135.124 150.499 135.124 148.499 120.29 148.499"/>
    <polygon fill="#475059" points="120.29 140.999 135.124 140.999 135.124 138.999 120.29 138.999"/>
    <polygon fill="#475059" points="120.29 131.499 135.124 131.499 135.124 129.499 120.29 129.499"/>
    <polygon fill="#475059" points="120.29 73.993 135.124 73.993 135.124 71.993 120.29 71.993"/>
    <polygon fill="#475059" points="120.29 83.999 135.124 83.999 135.124 81.999 120.29 81.999"/>
    <polygon fill="#475059" points="120.29 159.999 135.124 159.999 135.124 157.999 120.29 157.999"/>
    <polyline fill="#475059" points="84.396 168.271 78.979 168.271 74.206 163.498 74.206 159.415 76.206 159.415 76.206 162.67 79.808 166.271 84.396 166.271 84.396 168.271"/>
    <polyline fill="#475059" points="100.375 167.999 100.375 165.999 152 165.998 152 167.998 100.375 167.999"/>
    <polyline fill="#475059" points="173.789 167.749 168.372 167.749 168.372 165.749 172.961 165.749 176.124 162.587 176.124 158.941 178.124 158.941 178.124 163.415 173.789 167.749"/>
    <path fill="#475059" d="M88.123,181.999 L96.123,181.999 L96.123,151.999 L88.123,151.999 L88.123,181.999 Z M86.123,183.999 L98.123,183.999 L98.123,149.999 L86.123,149.999 L86.123,183.999 Z"/>
    <path fill="#475059" d="M88.123 149.999L96.123 149.999 96.123 144.999C96.123 144.447 95.675 143.999 95.123 143.999L89.123 143.999C88.572 143.999 88.123 144.447 88.123 144.999L88.123 149.999zM98.123 151.999L86.123 151.999 86.123 144.999C86.123 143.345 87.469 141.999 89.123 141.999L95.123 141.999C96.778 141.999 98.123 143.345 98.123 144.999L98.123 151.999zM156.124 181.999L164.124 181.999 164.124 151.999 156.124 151.999 156.124 181.999zM154.124 183.999L166.124 183.999 166.124 149.999 154.124 149.999 154.124 183.999z"/>
    <path fill="#475059" d="M156.124,149.999 L164.124,149.999 L164.124,144.999 C164.124,144.447 163.676,143.999 163.124,143.999 L157.124,143.999 C156.572,143.999 156.124,144.447 156.124,144.999 L156.124,149.999 Z M166.124,151.999 L154.124,151.999 L154.124,144.999 C154.124,143.345 155.47,141.999 157.124,141.999 L163.124,141.999 C164.778,141.999 166.124,143.345 166.124,144.999 L166.124,151.999 Z"/>
    <path fill="#475059" d="M173.037,159.999 L168.124,159.999 L168.124,157.999 L173.037,157.999 C193.438,157.999 210.036,141.401 210.036,120.999 C210.036,100.598 193.438,84 173.037,84 L79.123,84 C63.912,84 50.456,93.106 44.789,107.216 L44.789,134.783 C50.456,148.893 63.912,157.999 79.123,157.999 L84.249,157.999 L84.249,159.999 L79.123,159.999 C63.022,159.999 48.788,150.321 42.859,135.344 L42.789,135.166 L42.789,106.833 L42.859,106.655 C48.788,91.678 63.022,82 79.123,82 L173.037,82 C194.541,82 212.036,99.495 212.036,120.999 C212.036,142.504 194.541,159.999 173.037,159.999"/>
    <polygon fill="#475059" points="100.123 159.999 152 159.999 152 157.999 100.123 157.999"/>
    <path fill="#475059" d="M44.124,126.999 C40.815,126.999 38.124,124.308 38.124,120.999 C38.124,117.69 40.815,114.999 44.124,114.999 L44.124,116.999 C41.918,116.999 40.124,118.793 40.124,120.999 C40.124,123.205 41.918,124.999 44.124,124.999 L44.124,126.999"/>
    <path fill="#475059" d="M44.124,130.999 C38.61,130.999 34.124,126.513 34.124,120.999 C34.124,115.485 38.61,110.999 44.124,110.999 L44.124,112.999 C39.713,112.999 36.124,116.588 36.124,120.999 C36.124,125.41 39.713,128.999 44.124,128.999 L44.124,130.999"/>
    <polygon fill="#48515A" points="213.054 159.949 215.054 159.949 215.054 155.949 213.054 155.949"/>
    <polygon fill="#48515A" points="213.054 169.949 215.054 169.949 215.054 165.949 213.054 165.949"/>
    <polygon fill="#48515A" points="217.054 163.949 221.054 163.949 221.054 161.949 217.054 161.949"/>
    <polygon fill="#48515A" points="207.054 163.949 211.054 163.949 211.054 161.949 207.054 161.949"/>
    <polygon fill="#48515A" points="34.947 93.909 36.947 93.909 36.947 89.909 34.947 89.909"/>
    <polygon fill="#48515A" points="34.947 103.909 36.947 103.909 36.947 99.909 34.947 99.909"/>
    <polygon fill="#48515A" points="38.947 97.909 42.947 97.909 42.947 95.909 38.947 95.909"/>
    <polygon fill="#48515A" points="28.947 97.909 32.947 97.909 32.947 95.909 28.947 95.909"/>
    <polygon fill="#48515A" points="205.049 76.899 207.049 76.899 207.049 72.899 205.049 72.899"/>
    <polygon fill="#48515A" points="205.049 86.899 207.049 86.899 207.049 82.899 205.049 82.899"/>
    <polygon fill="#48515A" points="209.049 80.899 213.049 80.899 213.049 78.899 209.049 78.899"/>
    <polygon fill="#48515A" points="199.049 80.899 203.049 80.899 203.049 78.899 199.049 78.899"/>
    <path fill="#FFD15D" d="M45.1 155C45.1 156.105 44.205 157 43.1 157 41.996 157 41.1 156.105 41.1 155 41.1 153.895 41.996 153 43.1 153 44.205 153 45.1 153.895 45.1 155M215.124 94.999C215.124 96.103 214.228 96.999 213.124 96.999 212.019 96.999 211.124 96.103 211.124 94.999 211.124 93.894 212.019 92.999 213.124 92.999 214.228 92.999 215.124 93.894 215.124 94.999M197.124 159.999C197.124 160.551 196.676 160.999 196.124 160.999 195.571 160.999 195.124 160.551 195.124 159.999 195.124 159.447 195.571 158.999 196.124 158.999 196.676 158.999 197.124 159.447 197.124 159.999M65.124 75.999C65.124 76.551 64.676 76.999 64.124 76.999 63.571 76.999 63.124 76.551 63.124 75.999 63.124 75.447 63.571 74.999 64.124 74.999 64.676 74.999 65.124 75.447 65.124 75.999M47.124 84.999C47.124 86.103 46.228 86.999 45.124 86.999 44.019 86.999 43.124 86.103 43.124 84.999 43.124 83.894 44.019 82.999 45.124 82.999 46.228 82.999 47.124 83.894 47.124 84.999M49.124 84.999C49.124 84.999 48.228 84.999 47.124 84.999 46.019 84.999 45.124 84.999 45.124 84.999 45.124 84.999 46.019 84.999 47.124 84.999 48.228 84.999 49.124 84.999 49.124 84.999M187.124 166.999C187.124 165.894 188.019 164.999 189.124 164.999 190.228 164.999 191.124 165.894 191.124 166.999 191.124 168.103 190.228 168.999 189.124 168.999 188.019 168.999 187.124 168.103 187.124 166.999"/>
  </g>
</svg>
