<svg xmlns="http://www.w3.org/2000/svg" width="250" height="250" viewBox="0 0 250 250">
  <g fill="none" fill-rule="evenodd">
    <polygon fill="#DFE0E0" points="69.038 134.006 181.038 134.006 181.038 126.006 69.038 126.006"/>
    <polygon fill="#DFE0E0" points="70.872 126.005 99.039 126.005 99.039 120.007 70.872 120.007"/>
    <polygon fill="#DFE0E0" points="68.87 120.193 181.087 120.193 181.087 116.196 68.87 116.196"/>
    <polygon fill="#DFE0E0" points="150.955 126.005 179.121 126.005 179.121 120.007 150.955 120.007"/>
    <polygon fill="#DFE0E0" points="131.041 126.005 143.038 126.005 143.038 120.007 131.041 120.007"/>
    <polygon fill="#DFE0E0" points="107.039 126.005 119.037 126.005 119.037 120.007 107.039 120.007"/>
    <polygon fill="#DFE0E0" points="64.868 115.19 185.09 115.19 185.09 111.193 64.868 111.193"/>
    <polygon fill="#F58E70" points="122.867 176.667 126.871 176.667 126.871 134.167 122.867 134.167"/>
    <polyline fill="#DFE0E0" points="99.151 156.12 76.038 134.006 99.151 134.006 99.151 156.12"/>
    <polygon fill="#DFE0E0" points="150.926 156.12 174.039 156.12 174.039 134.006 150.926 134.006"/>
    <path fill="#475059" d="M156.329,199.496 L166.809,199.496 L173.039,156.049 L173.039,133.006 L180.038,133.006 L180.038,127.006 L70.038,127.006 L70.038,133.006 L77.038,133.006 L77.038,156.069 L81.441,199.496 L91.921,199.496 L98.15,156.049 L98.15,133.006 L151.926,133.006 L151.926,156.069 L156.329,199.496 Z M168.543,201.496 L154.522,201.496 L149.926,156.12 L149.926,135.006 L100.15,135.006 L100.141,156.262 L93.655,201.496 L79.635,201.496 L75.038,156.12 L75.038,135.006 L68.038,135.006 L68.038,125.006 L182.038,125.006 L182.038,135.006 L175.039,135.006 L175.029,156.262 L168.543,201.496 Z"/>
    <polygon fill="#475059" points="76.038 135.006 99.15 135.006 99.15 133.006 76.038 133.006"/>
    <polygon fill="#475059" points="150.926 135.006 174.039 135.006 174.039 133.006 150.926 133.006"/>
    <path fill="#5FE0ED" d="M213.038,163.996 C213.038,168.415 209.456,171.996 205.038,171.996 C200.62,171.996 197.038,168.415 197.038,163.996 C197.038,168.415 193.456,171.996 189.038,171.996 C184.62,171.996 181.038,168.415 181.038,163.996 C181.038,168.415 177.456,171.996 173.038,171.996 C168.62,171.996 165.038,168.415 165.038,163.996 C165.038,168.415 161.456,171.996 157.038,171.996 C152.62,171.996 149.038,168.415 149.038,163.996 C149.038,168.415 145.456,171.996 141.038,171.996 C136.62,171.996 133.038,168.415 133.038,163.996 C133.038,168.415 129.456,171.996 125.038,171.996 C120.62,171.996 117.038,168.415 117.038,163.996 C117.038,168.415 113.456,171.996 109.038,171.996 C104.62,171.996 101.038,168.415 101.038,163.996 C101.038,168.415 97.456,171.996 93.038,171.996 C88.62,171.996 85.038,168.415 85.038,163.996 C85.038,168.415 81.456,171.996 77.038,171.996 C72.62,171.996 69.038,168.415 69.038,163.996 C69.038,168.415 65.456,171.996 61.038,171.996 C56.62,171.996 53.038,168.415 53.038,163.996 C53.038,168.415 49.456,171.996 45.038,171.996 C40.62,171.996 37.038,168.415 37.038,163.996 C37.038,168.415 33.456,171.996 29.038,171.996 L29.038,211.996 C33.456,211.996 37.038,208.415 37.038,203.996 C37.038,208.415 40.62,211.996 45.038,211.996 C49.456,211.996 53.038,208.415 53.038,203.996 C53.038,208.415 56.62,211.996 61.038,211.996 C65.456,211.996 69.038,208.415 69.038,203.996 C69.038,208.415 72.62,211.996 77.038,211.996 C81.456,211.996 85.038,208.415 85.038,203.996 C85.038,208.415 88.62,211.996 93.038,211.996 C97.456,211.996 101.038,208.415 101.038,203.996 C101.038,208.415 104.62,211.996 109.038,211.996 C113.456,211.996 117.038,208.415 117.038,203.996 C117.038,208.415 120.62,211.996 125.038,211.996 C129.456,211.996 133.038,208.415 133.038,203.996 C133.038,208.415 136.62,211.996 141.038,211.996 C145.456,211.996 149.038,208.415 149.038,203.996 C149.038,208.415 152.62,211.996 157.038,211.996 C161.456,211.996 165.038,208.415 165.038,203.996 C165.038,208.415 168.62,211.996 173.038,211.996 C177.456,211.996 181.038,208.415 181.038,203.996 C181.038,208.415 184.62,211.996 189.038,211.996 C193.456,211.996 197.038,208.415 197.038,203.996 C197.038,208.415 200.62,211.996 205.038,211.996 C209.456,211.996 213.038,208.415 213.038,203.996 C213.038,208.415 216.62,211.996 221.038,211.996 L221.038,171.996 C216.62,171.996 213.038,168.415 213.038,163.996"/>
    <path fill="#475059" d="M221.038,213.146 C217.601,213.146 214.6,211.239 213.038,208.427 C211.477,211.239 208.476,213.146 205.038,213.146 C201.601,213.146 198.6,211.239 197.038,208.427 C195.477,211.239 192.476,213.146 189.038,213.146 C185.601,213.146 182.6,211.239 181.038,208.427 C179.477,211.239 176.476,213.146 173.038,213.146 C169.601,213.146 166.6,211.239 165.038,208.427 C163.477,211.239 160.476,213.146 157.038,213.146 C153.601,213.146 150.6,211.239 149.038,208.427 C147.477,211.239 144.476,213.146 141.038,213.146 C137.601,213.146 134.6,211.239 133.038,208.427 C131.477,211.239 128.476,213.146 125.038,213.146 C121.601,213.146 118.6,211.239 117.038,208.427 C115.477,211.239 112.476,213.146 109.038,213.146 C105.601,213.146 102.6,211.239 101.038,208.427 C99.477,211.239 96.476,213.146 93.038,213.146 C89.601,213.146 86.6,211.239 85.038,208.427 C83.477,211.239 80.476,213.146 77.038,213.146 C73.601,213.146 70.6,211.239 69.038,208.427 C67.477,211.239 64.476,213.146 61.038,213.146 C57.601,213.146 54.6,211.239 53.038,208.427 C51.477,211.239 48.476,213.146 45.038,213.146 C41.601,213.146 38.6,211.239 37.038,208.427 C35.477,211.239 32.476,213.146 29.038,213.146 L29.038,210.861 C32.819,210.861 35.896,207.785 35.896,204.004 L38.181,204.004 C38.181,207.785 41.257,210.861 45.038,210.861 C48.819,210.861 51.896,207.785 51.896,204.004 L54.181,204.004 C54.181,207.785 57.257,210.861 61.038,210.861 C64.819,210.861 67.896,207.785 67.896,204.004 L70.181,204.004 C70.181,207.785 73.257,210.861 77.038,210.861 C80.819,210.861 83.896,207.785 83.896,204.004 L86.181,204.004 C86.181,207.785 89.257,210.861 93.038,210.861 C96.819,210.861 99.896,207.785 99.896,204.004 L102.181,204.004 C102.181,207.785 105.257,210.861 109.038,210.861 C112.819,210.861 115.896,207.785 115.896,204.004 L118.181,204.004 C118.181,207.785 121.257,210.861 125.038,210.861 C128.819,210.861 131.896,207.785 131.896,204.004 L134.181,204.004 C134.181,207.785 137.257,210.861 141.038,210.861 C144.819,210.861 147.896,207.785 147.896,204.004 L150.181,204.004 C150.181,207.785 153.257,210.861 157.038,210.861 C160.819,210.861 163.896,207.785 163.896,204.004 L166.181,204.004 C166.181,207.785 169.257,210.861 173.038,210.861 C176.819,210.861 179.896,207.785 179.896,204.004 L182.181,204.004 C182.181,207.785 185.257,210.861 189.038,210.861 C192.819,210.861 195.896,207.785 195.896,204.004 L198.181,204.004 C198.181,207.785 201.257,210.861 205.038,210.861 C208.819,210.861 211.896,207.785 211.896,204.004 L214.181,204.004 C214.181,207.785 217.257,210.861 221.038,210.861 L221.038,213.146"/>
    <polyline fill="#475059" points="100.038 126.006 98.038 126.006 98.038 121.006 72.038 121.006 72.038 126.006 70.038 126.006 70.038 119.006 100.038 119.006 100.038 126.006"/>
    <polyline fill="#475059" points="180.038 126.006 178.038 126.006 178.038 121.006 152.038 121.006 152.038 126.006 150.038 126.006 150.038 119.006 180.038 119.006 180.038 126.006"/>
    <path fill="#475059" d="M108.038 125.006L118.038 125.006 118.038 121.006 108.038 121.006 108.038 125.006zM106.038 127.006L120.038 127.006 120.038 119.006 106.038 119.006 106.038 127.006zM132.038 125.006L142.038 125.006 142.038 121.006 132.038 121.006 132.038 125.006zM130.038 127.006L144.038 127.006 144.038 119.006 130.038 119.006 130.038 127.006z"/>
    <path fill="#475059" d="M70.038,119.006 L180.038,119.006 L180.038,115.006 L184.038,115.006 L184.038,111.006 L66.038,111.006 L66.038,115.006 L70.038,115.006 L70.038,119.006 Z M182.038,121.006 L68.038,121.006 L68.038,117.006 L64.038,117.006 L64.038,109.006 L186.038,109.006 L186.038,117.006 L182.038,117.006 L182.038,121.006 Z"/>
    <polygon fill="#475059" points="69.038 117.006 181.038 117.006 181.038 115.006 69.038 115.006"/>
    <path fill="#F58E70" d="M124.973,41.996 L124.973,110.005"/>
    <polygon fill="#F58E70" points="122.973 110.006 126.973 110.006 126.973 41.996 122.973 41.996"/>
    <path fill="#475059" d="M109.315,109.006 L140.63,109.006 L139.324,105.245 L110.621,105.245 L109.315,109.006 Z M143.44,111.006 L106.505,111.006 L109.199,103.245 L140.746,103.245 L143.44,111.006 Z"/>
    <polyline fill="#475059" points="130.178 58.999 124.136 51.442 125.698 50.194 131.74 57.751 130.178 58.999"/>
    <polyline fill="#475059" points="119.673 58.997 118.106 57.753 124.294 49.966 125.86 51.21 119.673 58.997"/>
    <polyline fill="#475059" points="117.506 73.511 116.078 72.11 130.245 57.675 131.673 59.075 117.506 73.511"/>
    <polyline fill="#475059" points="132.257 73.509 118.174 59.073 119.605 57.677 133.688 72.112 132.257 73.509"/>
    <polyline fill="#475059" points="134.354 87.808 116.312 73.596 117.55 72.025 135.592 86.237 134.354 87.808"/>
    <polyline fill="#475059" points="115.593 87.808 114.353 86.237 132.353 72.025 133.593 73.596 115.593 87.808"/>
    <polyline fill="#475059" points="136.43 103.735 114.388 87.833 115.558 86.212 137.6 102.114 136.43 103.735"/>
    <polyline fill="#475059" points="113.602 103.734 112.428 102.115 134.386 86.213 135.56 87.832 113.602 103.734"/>
    <polyline fill="#475059" points="113.714 104.556 111.731 104.294 120.096 40.996 129.739 40.996 138.006 104.295 136.023 104.555 127.983 42.996 121.85 42.996 113.714 104.556"/>
    <polygon fill="#475059" points="116.931 42.996 132.973 42.996 132.973 40.996 116.931 40.996"/>
    <polyline fill="#475059" points="131.015 41.996 129.015 41.996 129.015 38.996 120.973 38.996 120.973 41.996 118.973 41.996 118.973 36.996 131.015 36.996 131.015 41.996"/>
    <polygon fill="#475059" points="123.868 126.006 125.868 126.006 125.868 120.006 123.868 120.006"/>
    <path fill="#475059" d="M66.038 108.996L92.038 108.996 92.038 76.996 66.038 76.996 66.038 108.996zM64.038 110.996L94.038 110.996 94.038 74.996 64.038 74.996 64.038 110.996zM66.038 68.996L92.038 68.996 92.038 66.996 66.038 66.996 66.038 68.996zM64.038 70.996L94.038 70.996 94.038 64.996 64.038 64.996 64.038 70.996z"/>
    <polygon fill="#475059" points="68.038 75.996 70.038 75.996 70.038 69.996 68.038 69.996"/>
    <polygon fill="#475059" points="74.038 75.996 76.038 75.996 76.038 69.996 74.038 69.996"/>
    <polygon fill="#475059" points="86.038 75.996 88.038 75.996 88.038 69.996 86.038 69.996"/>
    <polygon fill="#475059" points="80.038 75.996 82.038 75.996 82.038 69.996 80.038 69.996"/>
    <polyline fill="#475059" points="93.974 110.378 91.974 110.378 91.975 48.882 100.974 48.882 100.974 110.378 98.974 110.378 98.974 50.882 93.975 50.882 93.974 110.378"/>
    <polyline fill="#475059" points="98.767 111.09 92.06 104.383 98.06 98.383 92.06 92.383 98.06 86.383 92.06 80.382 98.06 74.382 92.06 68.382 98.06 62.382 92.06 56.382 99.267 49.175 100.681 50.589 94.888 56.382 100.888 62.382 94.888 68.382 100.888 74.382 94.888 80.382 100.888 86.383 94.888 92.383 100.888 98.383 94.888 104.383 100.181 109.676 98.767 111.09"/>
    <polyline fill="#475059" points="186.038 109.997 184.038 109.997 184.038 106.996 154.038 106.996 154.038 109.997 152.038 109.997 152.038 104.996 186.038 104.996 186.038 109.997"/>
    <polyline fill="#475059" points="215.046 79.186 177.045 79.186 177.045 77.185 212.523 77.185 207.626 72.186 170.228 72.186 170.228 70.186 208.466 70.186 215.046 76.902 215.046 79.186"/>
    <polyline fill="#475059" points="189.045 79.1 183.045 73.1 177.045 79.1 170.338 72.393 171.752 70.979 177.045 76.271 183.045 70.271 189.045 76.271 195.045 70.271 201.07 76.297 207.365 70.454 208.727 71.919 201.02 79.074 195.045 73.1 189.045 79.1"/>
    <path fill="#475059" d="M213.046,116.681 C210.84,116.681 209.046,114.887 209.046,112.681 C209.046,110.475 210.84,108.681 213.046,108.681 L213.046,78.186 L215.046,78.186 L215.046,110.681 L213.046,110.681 C211.943,110.681 211.046,111.578 211.046,112.681 C211.046,113.783 211.943,114.681 213.046,114.681 C214.148,114.681 215.046,113.783 215.046,112.681 L217.046,112.681 C217.046,114.887 215.252,116.681 213.046,116.681"/>
    <path fill="#FFD15D" d="M76.038,88.996 L82.038,88.996 L82.038,80.996 L76.038,80.996 L76.038,88.996 Z M76.038,98.996 L82.038,98.996 L82.038,90.996 L76.038,90.996 L76.038,98.996 Z M90.038,80.996 L90.038,78.996 L68.038,78.996 L68.038,80.996 L74.038,80.996 L74.038,88.996 L68.038,88.996 L68.038,90.996 L74.038,90.996 L74.038,98.996 L68.038,98.996 L68.038,106.996 L90.038,106.996 L90.038,98.996 L84.038,98.996 L84.038,90.996 L90.038,90.996 L90.038,88.996 L84.038,88.996 L84.038,80.996 L90.038,80.996 Z"/>
    <path fill="#475059" d="M154.038,104.996 L180.038,104.996 L180.038,82.41 L166.624,68.996 L154.038,68.996 L154.038,104.996 Z M182.038,106.996 L152.038,106.996 L152.038,66.996 L167.452,66.996 L182.038,81.582 L182.038,106.996 Z"/>
    <path fill="#FFD15D" d="M164.038,96.996 L170.038,96.996 L170.038,88.996 L164.038,88.996 L164.038,96.996 Z M172.043,96.996 L172.043,88.996 L178.038,88.996 L178.038,83.238 L165.796,70.996 L156.038,70.996 L156.038,88.996 L162.038,88.996 L162.038,96.996 L156.038,96.996 L156.038,102.996 L178.038,102.996 L178.038,96.996 L172.043,96.996 Z"/>
    <polygon fill="#475059" points="142.04 94.996 153.038 94.996 153.038 92.996 142.04 92.996"/>
    <polyline fill="#475059" points="65.211 95.186 38.217 95.186 38.217 92.902 44.797 86.186 65.211 86.186 65.211 88.186 45.637 88.186 40.739 93.186 65.211 93.186 65.211 95.186"/>
    <polyline fill="#475059" points="52.243 95.074 44.536 87.919 45.897 86.454 52.192 92.297 58.218 86.271 64.925 92.979 63.511 94.393 58.218 89.1 52.243 95.074"/>
    <path fill="#475059" d="M40.217,132.681 C38.011,132.681 36.217,130.887 36.217,128.681 L38.217,128.681 C38.217,129.783 39.114,130.681 40.217,130.681 C41.319,130.681 42.217,129.783 42.217,128.681 C42.217,127.578 41.319,126.681 40.217,126.681 L38.217,126.681 L38.217,94.186 L40.217,94.186 L40.217,124.681 C42.423,124.681 44.217,126.475 44.217,128.681 C44.217,130.887 42.423,132.681 40.217,132.681"/>
    <polygon fill="#475059" points="142.04 98.996 153.038 98.996 153.038 96.996 142.04 96.996"/>
    <polygon fill="#475059" points="146.038 109.996 148.038 109.996 148.038 97.996 146.038 97.996"/>
    <path fill="#475059" d="M153.038,95.001 L142.038,95.001 L142.038,62.374 C142.038,56.653 146.692,51.999 152.413,51.999 C158.134,51.999 162.788,56.653 162.788,62.374 L162.788,67.996 L160.788,67.996 L160.788,62.374 C160.788,57.756 157.031,53.999 152.413,53.999 C147.795,53.999 144.038,57.756 144.038,62.374 L144.038,93.001 L153.038,93.001 L153.038,95.001"/>
    <polygon fill="#48515A" points="203.063 137.02 205.063 137.02 205.063 133.02 203.063 133.02"/>
    <polygon fill="#48515A" points="203.063 147.02 205.063 147.02 205.063 143.02 203.063 143.02"/>
    <polygon fill="#48515A" points="207.063 141.02 211.063 141.02 211.063 139.02 207.063 139.02"/>
    <polygon fill="#48515A" points="197.063 141.02 201.063 141.02 201.063 139.02 197.063 139.02"/>
    <polygon fill="#48515A" points="34.962 68.979 36.962 68.979 36.962 64.979 34.962 64.979"/>
    <polygon fill="#48515A" points="34.962 78.979 36.962 78.979 36.962 74.979 34.962 74.979"/>
    <polygon fill="#48515A" points="38.962 72.979 42.962 72.979 42.962 70.979 38.962 70.979"/>
    <polygon fill="#48515A" points="28.962 72.979 32.962 72.979 32.962 70.979 28.962 70.979"/>
    <polygon fill="#48515A" points="185.052 48.967 187.052 48.967 187.052 44.967 185.052 44.967"/>
    <polygon fill="#48515A" points="185.052 58.967 187.052 58.967 187.052 54.967 185.052 54.967"/>
    <polygon fill="#48515A" points="189.052 52.967 193.052 52.967 193.052 50.967 189.052 50.967"/>
    <polygon fill="#48515A" points="179.052 52.967 183.052 52.967 183.052 50.967 179.052 50.967"/>
    <path fill="#5FE0ED" d="M60.282 158.483C60.282 157.734 60.889 157.126 61.639 157.126 62.388 157.126 62.996 157.734 62.996 158.483 62.996 159.233 62.388 159.84 61.639 159.84 60.889 159.84 60.282 159.233 60.282 158.483M50.212 146.483C50.212 147.268 49.576 147.903 48.792 147.903 48.007 147.903 47.371 147.268 47.371 146.483 47.371 145.699 48.007 145.063 48.792 145.063 49.576 145.063 50.212 145.699 50.212 146.483M213.332 158.483C213.332 157.734 213.939 157.126 214.689 157.126 215.438 157.126 216.046 157.734 216.046 158.483 216.046 159.233 215.438 159.84 214.689 159.84 213.939 159.84 213.332 159.233 213.332 158.483M192.409 159.162C192.409 159.536 192.105 159.84 191.73 159.84 191.356 159.84 191.052 159.536 191.052 159.162 191.052 158.787 191.356 158.483 191.73 158.483 192.105 158.483 192.409 158.787 192.409 159.162M190.472 145.773C190.472 146.165 190.154 146.483 189.762 146.483 189.37 146.483 189.052 146.165 189.052 145.773 189.052 145.381 189.37 145.063 189.762 145.063 190.154 145.063 190.472 145.381 190.472 145.773"/>
    <path fill="#F58E70" d="M139.727 154.073C139.727 154.815 139.125 155.417 138.383 155.417 137.64 155.417 137.038 154.815 137.038 154.073 137.038 153.33 137.64 152.728 138.383 152.728 139.125 152.728 139.727 153.33 139.727 154.073M119.038 138.142C119.038 138.762 118.535 139.265 117.915 139.265 117.295 139.265 116.792 138.762 116.792 138.142 116.792 137.522 117.295 137.019 117.915 137.019 118.535 137.019 119.038 137.522 119.038 138.142M137.976 54.5C137.976 55.329 137.303 56.002 136.474 56.002 135.645 56.002 134.973 55.329 134.973 54.5 134.973 53.671 135.645 52.999 136.474 52.999 137.303 52.999 137.976 53.671 137.976 54.5M110.224 72.343C110.224 72.982 109.706 73.5 109.067 73.5 108.428 73.5 107.91 72.982 107.91 72.343 107.91 71.704 108.428 71.186 109.067 71.186 109.706 71.186 110.224 71.704 110.224 72.343M149.038 47.966C149.038 48.519 148.59 48.966 148.038 48.966 147.486 48.966 147.038 48.519 147.038 47.966 147.038 47.414 147.486 46.966 148.038 46.966 148.59 46.966 149.038 47.414 149.038 47.966M146.038 91L150.038 91 150.038 64.996 158.788 64.996 158.788 62.374C158.788 58.858 155.929 55.999 152.413 55.999 148.897 55.999 146.038 58.858 146.038 62.374L146.038 91"/>
  </g>
</svg>
