<svg xmlns="http://www.w3.org/2000/svg" width="250" height="250" viewBox="0 0 250 250">
  <g fill="none" fill-rule="evenodd">
    <path fill="#F58E70" d="M132.019,201.498 C132.019,201.498 129.351,167.319 128.019,161.985 L128.01,161.985 C129.115,161.986 130.002,161.091 130.002,159.987 L130.002,154.986 L124.919,148.982 L120.002,154.986 L120.002,159.987 C120.002,161.091 120.906,161.986 122.01,161.985 L122.017,161.985 C120.684,167.319 118.018,201.498 118.018,201.498"/>
    <path fill="#DFE0E0" d="M110.002,133.992 L110.002,138.361 L124.951,146.861 L139.909,138.611 L140.002,130.613 L140.002,123.872 C140.002,123.306 141.113,122.701 141.64,122.088 C141.46,122.245 141.263,122.403 141.116,122.562 C139.013,124.823 135.811,127.023 133.652,128.867 C131.944,130.326 129.772,130.986 127.526,130.986 L121.034,130.986 C118.788,130.986 116.628,130.326 114.92,128.867 C112.859,127.107 109.86,124.951 107.762,122.785 C107.699,122.72 107.626,122.698 107.557,122.632 C108.188,123.302 109.089,124.003 109.856,124.678 C109.839,124.686 110.002,124.716 110.002,124.736 L110.002,133.992"/>
    <path fill="#48515A" d="M110.002 138.986C109.449 138.986 109.002 138.538 109.002 137.986L109.002 124.986C109.002 124.434 109.449 123.986 110.002 123.986 110.555 123.986 111.002 124.434 111.002 124.986L111.002 137.986C111.002 138.538 110.555 138.986 110.002 138.986M157.775 95.443L157.785 95.443 157.775 95.443zM140.002 138.986C139.449 138.986 139.002 138.538 139.002 137.986L139.002 123.538 139.181 123.281C139.601 122.675 140.114 122.086 140.61 121.517 141.287 120.741 141.986 119.938 142.216 119.329L148.3 106.688 155.201 103.208 156.776 95.339C156.771 94.763 156.523 94.184 156.091 93.738 155.633 93.268 155.021 92.998 154.411 92.998 153.858 92.998 153.411 92.55 153.411 91.998 153.411 91.446 153.858 90.998 154.411 90.998 155.558 90.998 156.692 91.489 157.524 92.344 158.352 93.195 158.807 94.335 158.775 95.472L158.756 95.64 156.971 104.556 149.808 108.168 144.053 120.115C143.73 120.98 142.947 121.879 142.118 122.831 141.73 123.275 141.332 123.733 141.002 124.174L141.002 137.986C141.002 138.538 140.555 138.986 140.002 138.986z"/>
    <path fill="#48515A" d="M128.002 131.986L121.034 131.986C118.416 131.986 116.077 131.17 114.271 129.627 113.617 129.07 112.869 128.467 112.085 127.836 109.016 125.363 105.535 122.56 104.58 119.997L98.941 108.124 92.768 104.581 90.229 95.453C90.229 93.031 92.229 90.986 94.596 90.986 95.148 90.986 95.596 91.434 95.596 91.986 95.596 92.538 95.148 92.986 94.596 92.986 93.354 92.986 92.299 94.045 92.232 95.326L94.471 103.252 100.48 106.701 106.421 119.219C107.218 121.347 110.612 124.081 113.34 126.278 114.14 126.922 114.903 127.538 115.569 128.107 117.009 129.336 118.898 129.986 121.034 129.986L128.002 129.986C128.555 129.986 129.002 130.434 129.002 130.986 129.002 131.538 128.555 131.986 128.002 131.986M60.927 203.502L58.927 203.494 59.082 163.653C59.082 157.71 62.854 155.812 68.184 153.779L99.325 143.167 104.818 132.986 109.002 132.986 109.002 134.986 106.012 134.986 100.712 144.806 68.862 155.66C63.585 157.673 61.082 159.124 61.082 163.657L60.927 203.502M125.02 148.132L109.16 139.251C108.678 138.981 108.506 138.372 108.776 137.89 109.044 137.408 109.654 137.235 110.137 137.506L125.02 145.84 139.317 137.833C139.799 137.563 140.409 137.735 140.678 138.216 140.948 138.698 140.776 139.308 140.294 139.578L125.02 148.132M191.011 203.5L189.011 203.497 189.073 163.776C189.073 158.982 186.068 157.531 181.12 155.711L149.271 144.899 143.219 134.986 140.002 134.986 140.002 132.986 144.342 132.986 150.601 143.238 181.787 153.826C187.059 155.765 191.073 157.723 191.073 163.778L191.011 203.5"/>
    <path fill="#48515A" d="M134.019,159.986 C133.745,159.986 133.473,159.874 133.275,159.655 L125.02,150.48 L116.762,159.655 C116.393,160.065 115.761,160.099 115.35,159.729 C114.939,159.36 114.906,158.728 115.275,158.317 L125.02,147.491 L134.762,158.317 C135.131,158.728 135.098,159.36 134.688,159.729 C134.496,159.901 134.257,159.986 134.019,159.986"/>
    <path fill="#5FE0ED" d="M153.902,92.081 L149.364,92.081 L144.065,74.95 L126.77,74.802 C121.761,74.759 117.737,70.658 117.789,65.649 L112.133,65.649 C107.121,65.649 103.058,69.712 103.058,74.724 L103.058,79.317 L99.45,91.998 L94.912,91.998 L94.912,70.186 C94.912,57.656 105.07,47.498 117.6,47.498 L136.734,47.498 C141.229,47.498 144.874,51.142 144.874,55.638 L144.874,56.573 L145.847,56.583 C150.309,56.63 153.902,60.261 153.902,64.723 L153.902,92.081"/>
    <path fill="#5FE0ED" d="M150.102,91.081 L152.901,91.081 L152.901,64.723 C152.901,60.827 149.732,57.624 145.837,57.583 L143.874,57.563 L143.874,55.638 C143.874,51.701 140.671,48.498 136.733,48.498 L117.601,48.498 C105.642,48.498 95.912,58.227 95.912,70.186 L95.912,90.998 L98.694,90.998 L102.058,79.177 L102.058,74.724 C102.058,69.169 106.577,64.648 112.133,64.648 L118.8,64.648 L118.789,65.659 C118.767,67.814 119.586,69.849 121.096,71.387 C122.605,72.926 124.624,73.783 126.779,73.802 L144.805,73.956 L150.102,91.081 Z M154.901,93.081 L148.627,93.081 L143.326,75.944 L126.762,75.802 C124.071,75.779 121.553,74.708 119.668,72.788 C118.021,71.11 117.033,68.96 116.828,66.648 L112.133,66.648 C107.68,66.648 104.058,70.271 104.058,74.724 L104.02,79.591 L100.204,92.998 L93.912,92.998 L93.912,70.186 C93.912,57.124 104.539,46.498 117.601,46.498 L136.733,46.498 C141.756,46.498 145.845,50.569 145.874,55.583 C150.854,55.645 154.901,59.741 154.901,64.723 L154.901,93.081 Z"/>
  </g>
</svg>
