<svg xmlns="http://www.w3.org/2000/svg" width="250" height="250" viewBox="0 0 250 250">
  <g fill="none" fill-rule="evenodd">
    <path fill="#5FE0ED" d="M124.391,42.563 C103.293,42.952 86.608,60.882 86.608,82.243 L86.608,134.262 L112.044,134.262 L111.976,127.477 C109.644,125.067 107.101,122.053 104.96,118.553 C99.683,109.93 97.608,98.702 97.608,87.779 L97.608,86.931 L121.209,86.931 L120.959,75.55 C128.669,82.862 138.838,86.931 149.403,86.931 L153.608,86.931 L153.608,87.779 C153.608,98.747 151.065,109.879 145.73,118.491 C142.205,124.181 137.328,128.669 134.293,131.282 L138.627,134.262 L163.608,134.262 L163.608,81.616 C163.608,59.803 146.031,42.165 124.391,42.563"/>
    <polyline fill="#EAEAE9" points="94.959 166.655 107.958 166.655 103.834 160.582 101.709 160.582 94.959 166.655"/>
    <polyline fill="#EAEAE9" points="154.208 166.655 141.209 166.655 145.333 160.582 147.458 160.582 154.208 166.655"/>
    <polyline fill="#EAEAE9" points="111.959 147.419 103.957 160.579 122.959 187.909 124.977 187.909 111.959 147.419"/>
    <polyline fill="#EAEAE9" points="138.568 137.679 146.959 146.41 154.977 165.635 152.977 165.635 147.979 160.579 145.979 160.579 137.976 147.419 138.568 137.679"/>
    <path fill="#EAEAE9" d="M138.608,143.044 L138.608,128.466 L133.195,131.852 C131.733,132.766 130.049,133.251 128.33,133.251 L122.296,133.251 C120.14,133.251 118.052,132.489 116.392,131.096 L111.972,127.39 L111.975,133.126 L138.608,143.044"/>
    <path fill="#48515A" d="M128.031,134.496 L121.833,134.496 C119.403,134.496 117.264,133.713 115.477,132.168 C112.222,129.353 107.607,124.797 104.107,119.075 C97.91,108.947 96.609,96.466 96.609,87.78 L96.609,86.931 L98.609,86.931 L98.609,87.78 C98.609,96.209 99.859,108.3 105.812,118.031 C109.179,123.534 113.638,127.933 116.786,130.655 C118.199,131.876 119.897,132.496 121.833,132.496 L128.031,132.496 C130.227,132.496 132.025,131.91 133.375,130.756 C135.26,129.141 140.999,124.229 144.88,117.965 C149.864,109.919 152.609,99.199 152.609,87.78 L152.609,86.931 L154.609,86.931 L154.609,87.78 C154.609,99.566 151.757,110.66 146.581,119.018 C142.536,125.546 136.62,130.611 134.675,132.275 C132.954,133.749 130.717,134.496 128.031,134.496"/>
    <polygon fill="#48515A" points="110.958 138.185 112.958 138.185 112.958 127.429 110.958 127.429"/>
    <polygon fill="#48515A" points="136.958 138.818 138.958 138.818 138.958 128.189 136.958 128.189"/>
    <path fill="#48515A" d="M186.886 207.443L184.886 207.443 184.886 206.412 180.634 174.717C179.398 165.39 173.251 157.489 164.592 154.096L146.607 147.346 147.31 145.474 165.309 152.229C174.659 155.892 181.285 164.406 182.617 174.453L186.886 206.345 186.886 207.443M65.114 207.443L63.114 207.443 63.123 206.213 67.384 174.452C68.716 164.406 75.343 155.892 84.678 152.234L102.606 145.474 103.311 147.345 85.396 154.101C76.749 157.488 70.603 165.39 69.367 174.716L65.114 206.412 65.114 207.443"/>
    <path fill="#48515A" d="M123.481,186.909 L123.587,186.909 L110.959,147.576 L110.959,139.734 L103.807,146.974 L96.457,164.635 L96.54,164.635 L101.54,159.579 L104.48,159.579 L123.481,186.909 Z M126.33,188.909 L122.436,188.909 L103.435,161.579 L102.375,161.579 L97.377,166.635 L93.46,166.635 L102.11,145.846 L112.959,134.863 L112.959,147.262 L126.33,188.909 Z"/>
    <path fill="#48515A" d="M126.348,186.909 L126.455,186.909 L145.457,159.579 L148.397,159.579 L153.395,164.635 L153.476,164.635 L146.11,146.974 L138.976,139.738 L138.928,147.725 L126.348,186.909 Z M127.5,188.909 L123.606,188.909 L136.976,147.262 L136.976,134.86 L147.807,145.846 L147.881,146.025 L156.478,166.635 L152.559,166.635 L147.561,161.579 L146.501,161.579 L127.5,188.909 Z"/>
  </g>
</svg>
