<svg xmlns="http://www.w3.org/2000/svg" width="250" height="250" viewBox="0 0 250 250">
  <g fill="none" fill-rule="evenodd">
    <path fill="#48515A" d="M124.268,55.427 C86.221,55.427 55.268,86.38 55.268,124.427 C55.268,162.474 86.221,193.427 124.268,193.427 C162.315,193.427 193.269,162.474 193.269,124.427 C193.269,86.38 162.315,55.427 124.268,55.427 Z M124.268,195.427 C85.119,195.427 53.268,163.577 53.268,124.427 C53.268,85.278 85.119,53.427 124.268,53.427 C163.418,53.427 195.269,85.278 195.269,124.427 C195.269,163.577 163.418,195.427 124.268,195.427 Z"/>
    <path fill="#48515A" d="M94.72,195.014 C100.238,195.014 105.619,197.197 109.576,201.145 L111.061,202.626 C118.462,210.01 130.501,210.009 137.9,202.626 L139.385,201.145 C144.114,196.427 150.877,194.231 157.478,195.267 L159.549,195.592 C169.877,197.211 179.616,190.139 181.263,179.817 L181.593,177.746 C182.646,171.148 186.826,165.395 192.775,162.355 L194.643,161.401 C203.95,156.644 207.671,145.194 202.937,135.875 L201.986,134.006 C198.96,128.049 198.96,120.937 201.986,114.981 L202.937,113.111 C207.671,103.793 203.95,92.342 194.643,87.586 L192.775,86.632 C186.826,83.592 182.646,77.839 181.593,71.241 L181.263,69.17 C179.616,58.847 169.864,51.772 159.549,53.394 L157.478,53.72 C150.877,54.758 144.113,52.56 139.385,47.841 L137.9,46.361 C130.501,38.979 118.461,38.978 111.061,46.361 L109.576,47.841 C104.846,52.56 98.083,54.755 91.483,53.72 L89.412,53.394 C79.082,51.772 69.345,58.848 67.698,69.17 L67.368,71.24 C66.315,77.838 62.135,83.592 56.186,86.632 L54.318,87.586 C45.01,92.342 41.29,103.793 46.024,113.111 L46.974,114.981 C50,120.937 50,128.049 46.974,134.006 L46.024,135.875 C41.29,145.194 45.01,156.645 54.318,161.401 L56.186,162.355 C62.135,165.395 66.315,171.149 67.368,177.746 L67.698,179.817 C69.345,190.138 79.086,197.22 89.412,195.592 L91.483,195.267 C92.561,195.097 93.643,195.014 94.72,195.014 Z M124.48,210.162 C119.108,210.163 113.738,208.123 109.648,204.042 L108.164,202.561 C103.884,198.292 97.761,196.301 91.794,197.242 L89.722,197.568 C78.311,199.36 67.544,191.54 65.723,180.132 L65.393,178.061 C64.44,172.092 60.658,166.886 55.275,164.136 L53.408,163.182 C43.121,157.925 39.008,145.269 44.241,134.969 L45.191,133.1 C47.929,127.711 47.929,121.276 45.191,115.887 L44.241,114.018 C39.008,103.718 43.121,91.062 53.408,85.805 L55.275,84.851 C60.658,82.1 64.44,76.895 65.393,70.925 L65.723,68.855 C67.543,57.447 78.305,49.62 89.722,51.419 L91.794,51.744 C97.762,52.684 103.884,50.695 108.164,46.426 L109.648,44.944 C117.825,36.784 131.134,36.784 139.312,44.944 L140.797,46.426 C145.076,50.694 151.193,52.683 157.167,51.744 L159.238,51.419 C170.655,49.625 181.418,57.447 183.237,68.855 L183.567,70.926 C184.521,76.895 188.303,82.1 193.686,84.851 L195.553,85.805 C205.84,91.062 209.952,103.718 204.72,114.018 L203.77,115.887 C201.031,121.276 201.031,127.711 203.77,133.1 L204.72,134.969 C209.952,145.268 205.84,157.924 195.553,163.182 L193.686,164.136 C188.303,166.886 184.521,172.092 183.567,178.061 L183.237,180.132 C181.418,191.539 170.654,199.368 159.238,197.568 L157.167,197.242 C151.199,196.302 145.076,198.291 140.797,202.561 L139.312,204.042 C135.224,208.122 129.852,210.162 124.48,210.162 Z"/>
    <path fill="#48515A" d="M125.11,59.433 C124.56,59.423 124.12,58.973 124.13,58.423 C124.13,57.863 124.59,57.423 125.14,57.433 C125.69,57.443 126.13,57.893 126.13,58.443 C126.12,58.993 125.67,59.433 125.13,59.433 C125.12,59.433 125.12,59.433 125.11,59.433 Z M120.13,58.543 C120.1,57.993 120.53,57.523 121.08,57.503 C121.63,57.473 122.1,57.903 122.13,58.453 C122.15,59.003 121.73,59.473 121.17,59.503 C121.16,59.503 121.14,59.503 121.13,59.503 C120.6,59.503 120.15,59.083 120.13,58.543 Z M129.05,59.603 C128.5,59.563 128.08,59.083 128.12,58.533 C128.16,57.983 128.64,57.563 129.189,57.603 C129.74,57.643 130.16,58.123 130.12,58.673 C130.08,59.203 129.64,59.603 129.12,59.603 C129.1,59.603 129.069,59.603 129.05,59.603 Z M116.15,58.913 C116.09,58.363 116.49,57.873 117.04,57.813 C117.58,57.753 118.08,58.153 118.14,58.703 C118.19,59.253 117.8,59.743 117.25,59.803 C117.21,59.803 117.18,59.803 117.14,59.803 C116.64,59.803 116.2,59.423 116.15,58.913 Z M132.96,60.003 L132.97,60.003 C132.42,59.933 132.03,59.423 132.1,58.883 C132.18,58.333 132.68,57.943 133.229,58.023 C133.78,58.093 134.16,58.593 134.09,59.143 C134.02,59.643 133.59,60.013 133.1,60.013 C133.05,60.013 133.01,60.013 132.96,60.003 Z M112.2,59.523 C112.1,58.973 112.47,58.463 113.02,58.373 C113.56,58.273 114.08,58.643 114.17,59.183 C114.26,59.733 113.89,60.243 113.35,60.343 C113.29,60.353 113.23,60.353 113.18,60.353 C112.7,60.353 112.28,60.013 112.2,59.523 Z M136.85,60.643 C136.31,60.533 135.95,60.013 136.06,59.473 C136.16,58.923 136.689,58.573 137.229,58.683 C137.77,58.783 138.13,59.313 138.02,59.853 C137.93,60.333 137.51,60.663 137.04,60.663 C136.979,60.663 136.91,60.653 136.85,60.643 Z M108.29,60.363 C108.16,59.823 108.5,59.293 109.04,59.163 C109.57,59.043 110.11,59.373 110.24,59.913 C110.36,60.453 110.03,60.993 109.49,61.113 C109.41,61.133 109.34,61.143 109.26,61.143 C108.81,61.143 108.4,60.833 108.29,60.363 Z M140.689,61.523 C140.149,61.383 139.83,60.833 139.97,60.303 C140.109,59.763 140.66,59.443 141.189,59.583 C141.729,59.723 142.05,60.273 141.91,60.803 C141.79,61.253 141.38,61.553 140.939,61.553 C140.859,61.553 140.77,61.543 140.689,61.523 Z M104.44,61.453 C104.28,60.923 104.58,60.363 105.11,60.203 C105.64,60.053 106.2,60.353 106.36,60.883 C106.51,61.413 106.21,61.963 105.68,62.123 C105.59,62.153 105.49,62.163 105.4,62.163 C104.97,62.163 104.57,61.883 104.44,61.453 Z M144.47,62.623 C143.939,62.453 143.649,61.893 143.83,61.363 C144,60.843 144.56,60.553 145.09,60.723 C145.609,60.893 145.899,61.463 145.729,61.983 C145.59,62.413 145.2,62.673 144.77,62.673 C144.67,62.673 144.569,62.663 144.47,62.623 Z M100.66,62.763 C100.47,62.243 100.74,61.673 101.26,61.483 C101.78,61.293 102.35,61.563 102.54,62.073 C102.73,62.593 102.47,63.173 101.94,63.363 C101.83,63.403 101.72,63.423 101.6,63.423 C101.19,63.423 100.81,63.173 100.66,62.763 Z M148.18,63.963 C147.66,63.763 147.41,63.183 147.609,62.673 C147.819,62.153 148.399,61.903 148.91,62.103 C149.43,62.303 149.68,62.893 149.47,63.403 C149.319,63.793 148.939,64.033 148.54,64.033 C148.42,64.033 148.3,64.013 148.18,63.963 Z M96.98,64.303 C96.76,63.803 96.99,63.213 97.5,62.993 C98,62.763 98.59,63.003 98.81,63.503 C99.04,64.013 98.8,64.603 98.3,64.823 C98.17,64.883 98.03,64.903 97.9,64.903 C97.51,64.903 97.14,64.683 96.98,64.303 Z M151.8,65.523 C151.29,65.293 151.08,64.693 151.31,64.193 C151.55,63.693 152.14,63.483 152.64,63.713 C153.14,63.953 153.359,64.543 153.12,65.043 C152.95,65.403 152.59,65.623 152.22,65.623 C152.08,65.623 151.93,65.593 151.8,65.523 Z M93.4,66.073 C93.15,65.573 93.34,64.973 93.83,64.723 C94.33,64.473 94.93,64.663 95.18,65.163 C95.43,65.653 95.23,66.253 94.74,66.503 C94.6,66.583 94.44,66.613 94.29,66.613 C93.93,66.613 93.57,66.413 93.4,66.073 Z M155.31,67.303 C154.83,67.043 154.649,66.433 154.91,65.953 C155.18,65.463 155.79,65.283 156.27,65.553 C156.76,65.813 156.93,66.423 156.67,66.903 C156.49,67.243 156.14,67.433 155.79,67.433 C155.63,67.433 155.46,67.393 155.31,67.303 Z M89.93,68.043 C89.65,67.573 89.8,66.953 90.28,66.673 C90.75,66.393 91.37,66.553 91.65,67.033 C91.93,67.503 91.77,68.123 91.3,68.403 C91.14,68.493 90.96,68.533 90.79,68.533 C90.45,68.533 90.11,68.363 89.93,68.043 Z M158.72,69.293 C158.25,69.003 158.109,68.383 158.399,67.913 C158.689,67.453 159.31,67.313 159.78,67.603 C160.25,67.893 160.39,68.513 160.09,68.983 C159.899,69.283 159.58,69.443 159.25,69.443 C159.06,69.443 158.88,69.403 158.72,69.293 Z M86.58,70.223 C86.27,69.773 86.39,69.153 86.85,68.843 C87.31,68.533 87.93,68.653 88.24,69.113 C88.55,69.573 88.43,70.193 87.97,70.503 C87.8,70.613 87.6,70.673 87.41,70.673 C87.09,70.673 86.77,70.513 86.58,70.223 Z M161.99,71.493 C161.54,71.163 161.439,70.543 161.76,70.093 C162.08,69.643 162.7,69.533 163.149,69.863 C163.6,70.183 163.71,70.803 163.39,71.253 C163.189,71.523 162.88,71.673 162.569,71.673 C162.37,71.673 162.17,71.613 161.99,71.493 Z M83.37,72.613 C83.04,72.173 83.12,71.543 83.56,71.213 C84,70.873 84.62,70.953 84.96,71.393 C85.29,71.833 85.21,72.463 84.77,72.793 C84.59,72.933 84.38,73.003 84.17,73.003 C83.87,73.003 83.57,72.873 83.37,72.613 Z M165.13,73.873 C164.7,73.523 164.63,72.893 164.979,72.463 C165.33,72.033 165.96,71.973 166.39,72.313 C166.81,72.663 166.88,73.293 166.53,73.723 C166.34,73.963 166.05,74.093 165.76,74.093 C165.53,74.093 165.31,74.023 165.13,73.873 Z M80.31,75.183 C79.95,74.763 80,74.133 80.41,73.773 C80.83,73.413 81.46,73.453 81.82,73.873 C82.18,74.293 82.14,74.923 81.72,75.283 C81.53,75.453 81.3,75.533 81.07,75.533 C80.79,75.533 80.51,75.413 80.31,75.183 Z M168.109,76.443 C167.7,76.063 167.68,75.433 168.05,75.023 C168.42,74.623 169.05,74.593 169.46,74.963 C169.87,75.343 169.899,75.973 169.53,76.383 C169.33,76.593 169.06,76.703 168.79,76.703 C168.55,76.703 168.3,76.613 168.109,76.443 Z M77.41,77.933 C77.03,77.543 77.03,76.903 77.43,76.523 C77.82,76.133 78.46,76.143 78.84,76.543 C79.23,76.933 79.22,77.563 78.83,77.953 C78.63,78.143 78.38,78.233 78.13,78.233 C77.87,78.233 77.61,78.133 77.41,77.933 Z M170.939,79.183 C170.55,78.783 170.56,78.153 170.96,77.773 C171.359,77.383 171.99,77.393 172.37,77.793 C172.76,78.183 172.75,78.823 172.35,79.203 C172.16,79.393 171.91,79.493 171.66,79.493 C171.399,79.493 171.13,79.383 170.939,79.183 Z M74.68,80.863 C74.27,80.493 74.24,79.853 74.61,79.443 C74.98,79.033 75.61,79.003 76.02,79.373 C76.43,79.743 76.46,80.383 76.09,80.793 C75.9,81.003 75.62,81.123 75.35,81.123 C75.11,81.123 74.87,81.033 74.68,80.863 Z M173.59,82.093 C173.229,81.673 173.28,81.043 173.7,80.683 C174.12,80.323 174.75,80.373 175.109,80.793 C175.47,81.213 175.42,81.843 175,82.203 C174.81,82.363 174.58,82.443 174.35,82.443 C174.069,82.443 173.79,82.323 173.59,82.093 Z M72.13,83.943 C71.7,83.593 71.63,82.963 71.98,82.533 C72.32,82.103 72.95,82.033 73.38,82.383 C73.81,82.723 73.88,83.353 73.54,83.783 C73.34,84.033 73.05,84.163 72.76,84.163 C72.54,84.163 72.32,84.083 72.13,83.943 Z M176.069,85.153 C175.729,84.713 175.819,84.093 176.26,83.753 C176.7,83.423 177.319,83.503 177.66,83.943 C177.99,84.383 177.91,85.013 177.47,85.343 C177.29,85.483 177.08,85.553 176.859,85.553 C176.56,85.553 176.26,85.413 176.069,85.153 Z M69.77,87.173 C69.32,86.853 69.21,86.233 69.53,85.773 C69.53,85.773 69.53,85.773 69.53,85.783 C69.85,85.323 70.48,85.223 70.93,85.543 C71.38,85.853 71.48,86.483 71.17,86.933 C70.97,87.203 70.66,87.353 70.35,87.353 C70.15,87.353 69.95,87.293 69.77,87.173 Z M178.35,88.363 C178.05,87.903 178.17,87.283 178.63,86.973 C179.09,86.663 179.71,86.793 180.01,87.253 C180.319,87.703 180.2,88.333 179.74,88.633 C179.569,88.753 179.38,88.803 179.189,88.803 C178.859,88.803 178.55,88.653 178.35,88.363 Z M67.61,90.543 C67.14,90.253 67,89.633 67.29,89.163 C67.58,88.693 68.2,88.553 68.67,88.843 C69.13,89.133 69.28,89.743 68.99,90.213 C68.8,90.523 68.47,90.693 68.14,90.693 C67.96,90.693 67.77,90.643 67.61,90.543 Z M180.439,91.693 C180.16,91.223 180.319,90.603 180.8,90.333 C181.27,90.053 181.89,90.213 182.17,90.683 C182.439,91.163 182.28,91.773 181.81,92.053 C181.649,92.143 181.47,92.193 181.3,92.193 C180.96,92.193 180.62,92.013 180.439,91.693 Z M65.66,94.033 C65.17,93.773 64.99,93.163 65.25,92.683 C65.52,92.193 66.12,92.013 66.61,92.273 C67.09,92.533 67.28,93.143 67.01,93.633 C66.83,93.963 66.49,94.153 66.13,94.153 C65.97,94.153 65.81,94.113 65.66,94.033 Z M182.319,95.153 C182.069,94.663 182.27,94.053 182.76,93.813 C183.25,93.563 183.85,93.753 184.1,94.253 C184.1,94.253 184.1,94.253 184.1,94.243 C184.35,94.743 184.149,95.343 183.66,95.593 C183.52,95.663 183.359,95.703 183.21,95.703 C182.85,95.703 182.49,95.503 182.319,95.153 Z M63.92,97.643 C63.42,97.413 63.2,96.813 63.43,96.313 C63.43,96.313 63.43,96.313 63.44,96.313 C63.67,95.813 64.26,95.593 64.76,95.823 C65.26,96.053 65.48,96.653 65.25,97.153 C65.08,97.513 64.72,97.733 64.34,97.733 C64.2,97.733 64.06,97.703 63.92,97.643 Z M183.979,98.713 C183.77,98.203 184,97.613 184.51,97.393 C185.01,97.183 185.6,97.413 185.819,97.923 C186.04,98.433 185.81,99.013 185.3,99.233 C185.17,99.293 185.03,99.313 184.899,99.313 C184.51,99.313 184.149,99.093 183.979,98.713 Z M62.41,101.343 C61.89,101.143 61.64,100.563 61.84,100.053 C62.04,99.543 62.62,99.283 63.13,99.483 C63.65,99.683 63.9,100.263 63.7,100.783 C63.55,101.173 63.17,101.413 62.77,101.413 C62.65,101.413 62.53,101.393 62.41,101.343 Z M185.43,102.363 C185.24,101.843 185.51,101.273 186.03,101.083 C186.55,100.903 187.12,101.173 187.31,101.693 C187.31,101.693 187.31,101.693 187.31,101.683 C187.5,102.203 187.229,102.783 186.71,102.973 C186.6,103.013 186.479,103.023 186.37,103.023 C185.96,103.023 185.58,102.773 185.43,102.363 Z M61.12,105.143 C60.6,104.973 60.31,104.413 60.48,103.883 C60.65,103.353 61.21,103.063 61.73,103.233 C62.26,103.403 62.55,103.973 62.38,104.493 C62.24,104.923 61.85,105.193 61.43,105.193 C61.33,105.193 61.22,105.173 61.12,105.143 Z M186.649,106.113 C186.49,105.583 186.8,105.023 187.33,104.873 C187.859,104.713 188.42,105.013 188.569,105.553 C188.729,106.073 188.42,106.633 187.89,106.793 C187.8,106.813 187.71,106.833 187.609,106.833 C187.18,106.833 186.78,106.543 186.649,106.113 Z M60.07,109.003 C59.54,108.863 59.21,108.323 59.35,107.783 C59.49,107.253 60.03,106.923 60.57,107.063 C61.1,107.203 61.43,107.743 61.29,108.283 C61.17,108.733 60.77,109.033 60.32,109.033 C60.24,109.033 60.15,109.023 60.07,109.003 Z M187.64,109.923 C187.52,109.383 187.859,108.843 188.399,108.723 C188.93,108.603 189.47,108.933 189.59,109.473 C189.72,110.013 189.38,110.553 188.84,110.673 C188.77,110.693 188.689,110.703 188.62,110.703 C188.16,110.703 187.75,110.383 187.64,109.923 Z M59.26,112.913 C58.72,112.813 58.36,112.283 58.47,111.743 C58.57,111.203 59.09,110.843 59.64,110.953 C60.18,111.053 60.53,111.583 60.43,112.123 C60.34,112.603 59.92,112.933 59.45,112.933 C59.39,112.933 59.32,112.933 59.26,112.913 Z M188.399,113.783 C188.31,113.243 188.68,112.723 189.22,112.633 C189.77,112.543 190.28,112.913 190.37,113.463 C190.46,114.003 190.09,114.513 189.55,114.603 C189.49,114.613 189.439,114.623 189.39,114.623 C188.899,114.623 188.479,114.273 188.399,113.783 Z M58.69,116.873 C58.14,116.803 57.75,116.303 57.82,115.753 C57.9,115.203 58.4,114.813 58.94,114.893 C59.49,114.963 59.88,115.463 59.81,116.013 C59.74,116.513 59.31,116.883 58.82,116.883 C58.77,116.883 58.73,116.883 58.69,116.873 Z M188.92,117.683 C188.87,117.133 189.27,116.643 189.81,116.593 C190.359,116.533 190.85,116.933 190.91,117.483 C190.97,118.033 190.569,118.523 190.02,118.583 C189.979,118.583 189.95,118.583 189.92,118.583 C189.41,118.583 188.979,118.203 188.92,117.683 Z M58.36,120.853 C57.81,120.823 57.39,120.343 57.43,119.793 C57.46,119.243 57.94,118.823 58.49,118.863 C59.04,118.903 59.46,119.373 59.42,119.933 C59.39,120.453 58.94,120.863 58.42,120.863 C58.4,120.863 58.38,120.863 58.36,120.853 Z M189.21,121.613 C189.18,121.063 189.609,120.593 190.16,120.573 C190.72,120.543 191.18,120.973 191.21,121.523 C191.229,122.083 190.8,122.543 190.25,122.573 C190.24,122.573 190.22,122.573 190.21,122.573 C189.67,122.573 189.229,122.153 189.21,121.613 Z M58.26,124.853 C57.71,124.843 57.27,124.403 57.27,123.843 C57.27,123.293 57.73,122.853 58.28,122.853 C58.83,122.863 59.27,123.313 59.27,123.863 C59.27,124.413 58.82,124.853 58.27,124.853 C58.27,124.853 58.27,124.853 58.26,124.853 Z M189.27,124.423 C189.27,123.873 189.72,123.433 190.27,123.433 C190.819,123.433 191.27,123.873 191.27,124.423 C191.27,124.983 190.819,125.433 190.27,125.433 C189.72,125.433 189.27,124.983 189.27,124.423 Z M57.36,127.903 C57.33,127.353 57.75,126.883 58.3,126.853 C58.86,126.823 59.33,127.253 59.35,127.803 C59.38,128.353 58.96,128.823 58.41,128.853 C58.39,128.853 58.37,128.853 58.36,128.853 C57.83,128.853 57.38,128.443 57.36,127.903 Z M190.09,129.423 C189.54,129.393 189.12,128.913 189.149,128.363 C189.18,127.813 189.66,127.393 190.21,127.423 C190.76,127.453 191.18,127.933 191.149,128.483 C191.12,129.013 190.68,129.423 190.149,129.423 C190.13,129.423 190.109,129.423 190.09,129.423 Z M57.68,131.943 C57.68,131.943 57.68,131.943 57.69,131.943 C57.62,131.403 58.02,130.903 58.57,130.843 C59.12,130.783 59.61,131.173 59.67,131.723 C59.73,132.273 59.34,132.773 58.79,132.833 C58.75,132.833 58.72,132.833 58.68,132.833 C58.18,132.833 57.74,132.463 57.68,131.943 Z M189.67,133.403 C189.12,133.333 188.729,132.833 188.8,132.283 C188.859,131.733 189.359,131.343 189.91,131.413 C190.46,131.483 190.85,131.973 190.78,132.523 C190.72,133.033 190.29,133.403 189.79,133.403 C189.75,133.403 189.71,133.403 189.67,133.403 Z M58.26,135.963 C58.16,135.423 58.53,134.903 59.07,134.813 C59.62,134.713 60.13,135.083 60.23,135.623 C60.32,136.163 59.96,136.683 59.42,136.783 C59.36,136.793 59.3,136.793 59.24,136.793 C58.77,136.793 58.34,136.453 58.26,135.963 Z M189.01,137.343 C188.47,137.243 188.109,136.723 188.21,136.173 C188.31,135.633 188.83,135.273 189.37,135.373 C189.92,135.473 190.27,135.993 190.18,136.533 C190.09,137.023 189.67,137.353 189.189,137.353 C189.13,137.353 189.069,137.353 189.01,137.343 Z M59.07,139.943 C58.95,139.403 59.28,138.863 59.82,138.743 C60.35,138.613 60.89,138.943 61.02,139.483 C61.15,140.013 60.81,140.553 60.28,140.683 C60.2,140.703 60.12,140.713 60.05,140.713 C59.59,140.713 59.18,140.403 59.07,139.943 Z M188.109,141.233 C187.58,141.103 187.25,140.563 187.38,140.023 L187.39,140.023 C187.52,139.493 188.06,139.163 188.59,139.293 C189.13,139.433 189.46,139.973 189.33,140.503 C189.21,140.963 188.81,141.263 188.359,141.263 C188.28,141.263 188.2,141.253 188.109,141.233 Z M60.13,143.863 C59.97,143.333 60.27,142.773 60.8,142.613 C61.33,142.453 61.88,142.753 62.04,143.283 C62.2,143.813 61.91,144.363 61.38,144.533 C61.28,144.553 61.18,144.573 61.09,144.573 C60.66,144.573 60.26,144.293 60.13,143.863 Z M186.979,145.073 C186.46,144.903 186.16,144.343 186.33,143.823 L186.319,143.823 C186.49,143.293 187.05,143.003 187.58,143.163 C188.1,143.323 188.399,143.893 188.24,144.413 C188.1,144.843 187.71,145.113 187.28,145.113 C187.18,145.113 187.08,145.103 186.979,145.073 Z M61.42,147.703 C61.23,147.193 61.5,146.613 62.01,146.423 C62.53,146.233 63.11,146.493 63.3,147.013 C63.49,147.533 63.23,148.103 62.71,148.293 C62.6,148.343 62.48,148.363 62.36,148.363 C61.96,148.363 61.57,148.113 61.42,147.703 Z M185.62,148.833 C185.1,148.643 184.84,148.063 185.04,147.543 C185.229,147.033 185.81,146.773 186.33,146.963 C186.84,147.163 187.1,147.743 186.899,148.263 C186.75,148.653 186.37,148.903 185.97,148.903 C185.85,148.903 185.729,148.883 185.62,148.833 Z M62.95,151.463 C62.72,150.953 62.95,150.363 63.46,150.143 C63.96,149.923 64.55,150.153 64.78,150.653 C65,151.163 64.77,151.753 64.27,151.973 C64.14,152.033 64,152.063 63.86,152.063 C63.48,152.063 63.11,151.833 62.95,151.463 Z M184.02,152.513 C183.52,152.283 183.29,151.693 183.52,151.193 C183.75,150.683 184.34,150.463 184.85,150.693 C185.35,150.913 185.569,151.503 185.34,152.013 C185.18,152.383 184.81,152.603 184.43,152.603 C184.29,152.603 184.149,152.573 184.02,152.513 Z M64.7,155.123 C64.44,154.633 64.64,154.023 65.13,153.773 C65.62,153.513 66.22,153.713 66.47,154.203 C66.73,154.693 66.53,155.293 66.04,155.553 C65.9,155.623 65.74,155.663 65.58,155.663 C65.22,155.663 64.87,155.463 64.7,155.123 Z M182.2,156.083 C181.72,155.823 181.53,155.213 181.79,154.733 C182.04,154.243 182.649,154.053 183.14,154.313 C183.63,154.573 183.81,155.173 183.56,155.663 C183.38,156.003 183.03,156.193 182.67,156.193 C182.51,156.193 182.35,156.153 182.2,156.083 Z M66.66,158.663 C66.38,158.193 66.54,157.573 67.01,157.293 C67.49,157.013 68.1,157.163 68.38,157.643 C68.67,158.113 68.51,158.733 68.04,159.013 C67.88,159.103 67.7,159.153 67.53,159.153 C67.18,159.153 66.85,158.973 66.66,158.663 Z M180.18,159.533 C179.71,159.243 179.56,158.633 179.84,158.153 C180.13,157.683 180.75,157.533 181.22,157.823 C181.689,158.113 181.84,158.723 181.55,159.193 C181.359,159.503 181.03,159.673 180.689,159.673 C180.52,159.673 180.34,159.633 180.18,159.533 Z M68.84,162.083 C68.53,161.623 68.65,161.003 69.11,160.693 C69.57,160.383 70.19,160.503 70.5,160.963 L70.5,160.953 C70.81,161.413 70.69,162.033 70.23,162.343 C70.06,162.463 69.87,162.523 69.67,162.523 C69.35,162.523 69.04,162.373 68.84,162.083 Z M177.939,162.853 C177.49,162.533 177.38,161.913 177.689,161.463 C178.01,161.003 178.63,160.893 179.08,161.213 C179.54,161.523 179.649,162.143 179.34,162.603 C179.14,162.883 178.83,163.033 178.51,163.033 C178.319,163.033 178.12,162.973 177.939,162.853 Z M71.23,165.363 C70.89,164.933 70.97,164.303 71.41,163.963 C71.84,163.623 72.47,163.703 72.81,164.143 C73.15,164.583 73.07,165.213 72.63,165.543 C72.45,165.693 72.23,165.753 72.02,165.753 C71.72,165.753 71.42,165.623 71.23,165.363 Z M175.52,166.033 C175.08,165.693 175.01,165.063 175.35,164.623 C175.689,164.193 176.319,164.123 176.75,164.463 C177.189,164.803 177.26,165.433 176.92,165.863 C176.72,166.113 176.43,166.243 176.13,166.243 C175.92,166.243 175.7,166.173 175.52,166.033 Z M73.81,168.503 C73.44,168.083 73.48,167.453 73.9,167.093 C74.31,166.723 74.95,166.773 75.31,167.183 C75.67,167.603 75.63,168.233 75.22,168.593 C75.03,168.763 74.79,168.843 74.56,168.843 C74.28,168.843 74,168.723 73.81,168.503 Z M172.899,169.063 C172.49,168.693 172.45,168.053 172.819,167.643 C173.189,167.233 173.819,167.193 174.229,167.563 C174.64,167.933 174.68,168.563 174.31,168.973 C174.109,169.193 173.84,169.313 173.56,169.313 C173.33,169.313 173.09,169.223 172.899,169.063 Z M76.57,171.473 C76.18,171.083 76.18,170.453 76.58,170.063 C76.97,169.673 77.6,169.683 77.99,170.073 C78.38,170.463 78.37,171.093 77.98,171.483 C77.79,171.673 77.53,171.773 77.28,171.773 C77.02,171.773 76.76,171.673 76.57,171.473 Z M170.109,171.923 C169.72,171.533 169.72,170.893 170.109,170.503 C170.5,170.113 171.14,170.123 171.53,170.513 C171.92,170.903 171.91,171.533 171.52,171.923 C171.33,172.123 171.069,172.213 170.819,172.213 C170.56,172.213 170.3,172.113 170.109,171.923 Z M79.5,174.283 C79.09,173.903 79.06,173.273 79.43,172.863 C79.8,172.453 80.43,172.423 80.84,172.793 C81.25,173.163 81.28,173.793 80.92,174.203 C80.72,174.423 80.44,174.533 80.17,174.533 C79.93,174.533 79.69,174.453 79.5,174.283 Z M167.149,174.613 C166.78,174.193 166.819,173.563 167.24,173.203 C167.649,172.833 168.28,172.873 168.649,173.283 C169.01,173.703 168.979,174.333 168.56,174.703 C168.37,174.863 168.14,174.953 167.899,174.953 C167.62,174.953 167.35,174.833 167.149,174.613 Z M82.6,176.903 C82.17,176.553 82.1,175.923 82.44,175.493 C82.78,175.063 83.41,174.993 83.85,175.333 C84.28,175.673 84.35,176.303 84.01,176.743 C83.81,176.983 83.52,177.113 83.22,177.113 C83.01,177.113 82.79,177.043 82.6,176.903 Z M164.03,177.113 C163.689,176.683 163.77,176.053 164.21,175.713 C164.64,175.373 165.27,175.453 165.609,175.883 C165.95,176.323 165.87,176.953 165.439,177.293 C165.25,177.433 165.04,177.503 164.819,177.503 C164.52,177.503 164.229,177.373 164.03,177.113 Z M85.86,179.333 C85.4,179.013 85.29,178.393 85.61,177.933 C85.93,177.483 86.55,177.373 87,177.693 C87.46,178.013 87.57,178.633 87.25,179.083 C87.05,179.363 86.74,179.513 86.43,179.513 C86.23,179.513 86.03,179.453 85.86,179.333 Z M160.77,179.433 C160.46,178.973 160.58,178.353 161.03,178.033 C161.49,177.723 162.109,177.843 162.42,178.293 C162.74,178.753 162.62,179.373 162.17,179.683 C161.99,179.803 161.8,179.863 161.6,179.863 C161.28,179.863 160.97,179.713 160.77,179.433 Z M89.25,181.563 C88.78,181.273 88.63,180.653 88.92,180.183 C89.21,179.713 89.83,179.563 90.3,179.853 C90.77,180.143 90.92,180.763 90.63,181.233 C90.44,181.533 90.11,181.703 89.77,181.703 C89.59,181.703 89.41,181.663 89.25,181.563 Z M157.38,181.543 C157.1,181.063 157.25,180.453 157.72,180.163 L157.729,180.163 C158.2,179.883 158.81,180.033 159.1,180.513 C159.38,180.983 159.229,181.593 158.75,181.883 C158.59,181.983 158.41,182.023 158.24,182.023 C157.899,182.023 157.569,181.853 157.38,181.543 Z M92.77,183.583 C92.29,183.323 92.1,182.713 92.36,182.223 C92.62,181.743 93.23,181.553 93.72,181.813 C94.2,182.073 94.39,182.683 94.13,183.173 C93.95,183.503 93.6,183.693 93.24,183.693 C93.09,183.693 92.92,183.663 92.77,183.583 Z M153.87,183.443 C153.609,182.953 153.8,182.343 154.29,182.093 C154.78,181.833 155.39,182.023 155.64,182.513 C155.899,183.003 155.71,183.613 155.22,183.863 C155.069,183.943 154.91,183.983 154.76,183.983 C154.399,183.983 154.05,183.783 153.87,183.443 Z M96.42,185.383 C95.92,185.153 95.69,184.563 95.92,184.053 C96.15,183.553 96.75,183.333 97.25,183.563 C97.75,183.793 97.97,184.383 97.74,184.893 C97.58,185.253 97.21,185.473 96.83,185.473 C96.69,185.473 96.55,185.443 96.42,185.383 Z M150.25,185.123 C150.02,184.623 150.25,184.033 150.75,183.803 C151.26,183.583 151.85,183.803 152.069,184.313 C152.3,184.813 152.069,185.403 151.569,185.633 C151.439,185.693 151.3,185.723 151.16,185.723 C150.78,185.723 150.41,185.493 150.25,185.123 Z M100.17,186.963 C99.65,186.763 99.39,186.183 99.59,185.663 C99.79,185.153 100.37,184.893 100.88,185.093 C101.4,185.293 101.65,185.873 101.46,186.383 C101.3,186.783 100.92,187.033 100.52,187.033 C100.4,187.033 100.28,187.003 100.17,186.963 Z M146.53,186.583 C146.34,186.063 146.6,185.493 147.12,185.293 C147.63,185.103 148.21,185.363 148.41,185.883 C148.6,186.403 148.34,186.973 147.819,187.173 C147.71,187.213 147.59,187.233 147.47,187.233 C147.06,187.233 146.68,186.983 146.53,186.583 Z M104,188.303 C103.47,188.143 103.18,187.583 103.35,187.053 C103.52,186.523 104.08,186.233 104.61,186.403 C105.13,186.563 105.42,187.133 105.26,187.653 C105.12,188.083 104.73,188.353 104.3,188.353 C104.2,188.353 104.1,188.343 104,188.303 Z M142.729,187.813 C142.569,187.293 142.859,186.733 143.39,186.573 C143.92,186.403 144.479,186.703 144.64,187.233 C144.8,187.763 144.51,188.323 143.979,188.483 C143.88,188.513 143.78,188.523 143.68,188.523 C143.26,188.523 142.859,188.243 142.729,187.813 Z M107.91,189.413 C107.37,189.283 107.04,188.733 107.18,188.203 C107.31,187.663 107.86,187.343 108.39,187.473 C108.93,187.613 109.25,188.153 109.12,188.683 C109.01,189.143 108.6,189.443 108.15,189.443 C108.07,189.443 107.99,189.433 107.91,189.413 Z M138.859,188.813 C138.729,188.283 139.06,187.743 139.59,187.613 C140.13,187.483 140.67,187.813 140.8,188.343 C140.93,188.883 140.6,189.423 140.06,189.553 C139.979,189.573 139.899,189.583 139.83,189.583 C139.38,189.583 138.97,189.273 138.859,188.813 Z M111.87,190.283 C111.33,190.183 110.97,189.663 111.07,189.113 C111.17,188.573 111.7,188.213 112.24,188.313 C112.78,188.413 113.14,188.943 113.04,189.483 C112.95,189.963 112.53,190.303 112.06,190.303 C112,190.303 111.93,190.293 111.87,190.283 Z M134.93,189.573 C134.83,189.033 135.2,188.513 135.74,188.413 C136.28,188.323 136.81,188.683 136.899,189.223 C137,189.773 136.64,190.293 136.09,190.383 C136.03,190.393 135.97,190.403 135.92,190.403 C135.439,190.403 135.02,190.063 134.93,189.573 Z M115.88,190.903 C115.88,190.903 115.88,190.903 115.88,190.913 C115.33,190.843 114.94,190.343 115.01,189.793 C115.08,189.243 115.58,188.853 116.13,188.923 C116.68,188.993 117.07,189.493 117,190.043 C116.94,190.543 116.5,190.913 116.01,190.913 C115.97,190.913 115.92,190.913 115.88,190.903 Z M130.97,190.103 C130.899,189.553 131.3,189.053 131.85,188.993 C132.399,188.923 132.89,189.323 132.95,189.873 C133.02,190.413 132.63,190.913 132.08,190.973 C132.04,190.983 132,190.983 131.96,190.983 C131.46,190.983 131.03,190.613 130.97,190.103 Z M119.92,191.283 C119.37,191.253 118.95,190.783 118.99,190.223 C119.02,189.673 119.5,189.253 120.05,189.293 C120.6,189.323 121.02,189.803 120.98,190.353 C120.95,190.883 120.51,191.293 119.99,191.293 C119.97,191.293 119.94,191.293 119.92,191.283 Z M126.979,190.383 C126.95,189.833 127.37,189.353 127.92,189.323 C128.47,189.293 128.95,189.713 128.979,190.273 C129.01,190.823 128.58,191.293 128.03,191.323 C128.02,191.323 128,191.323 127.979,191.323 C127.45,191.323 127.01,190.913 126.979,190.383 Z M123.98,191.423 C123.42,191.423 122.98,190.973 122.98,190.423 C122.98,189.873 123.43,189.423 123.99,189.423 C124.54,189.433 124.98,189.873 124.98,190.433 C124.98,190.983 124.53,191.423 123.98,191.423 Z"/>
    <path fill="#F58E70" d="M124.268,197.427 C84.016,197.427 51.268,164.68 51.268,124.427 C51.268,84.175 84.016,51.427 124.268,51.427 C164.521,51.427 197.268,84.175 197.268,124.427 C197.268,164.68 164.521,197.427 124.268,197.427 Z M200.203,134.912 C196.889,128.388 196.889,120.599 200.203,114.075 L201.153,112.206 C205.389,103.868 202.06,93.623 193.732,89.367 L191.865,88.413 C185.349,85.083 180.771,78.782 179.618,71.556 L179.287,69.486 C177.814,60.249 169.099,53.917 159.86,55.37 L157.788,55.696 C150.561,56.831 143.152,54.426 137.972,49.257 L136.487,47.776 C129.867,41.17 119.094,41.17 112.473,47.776 L110.989,49.257 C105.809,54.425 98.401,56.837 91.172,55.696 L89.101,55.37 C79.862,53.92 71.147,60.25 69.673,69.485 L69.343,71.556 C68.19,78.782 63.611,85.083 57.096,88.413 L55.228,89.367 C46.9,93.623 43.571,103.868 47.807,112.206 L48.757,114.075 C52.072,120.599 52.072,128.388 48.757,134.912 L47.807,136.781 C43.571,145.119 46.9,155.364 55.228,159.62 L57.096,160.574 C63.611,163.903 68.19,170.205 69.343,177.431 L69.673,179.501 C71.147,188.736 79.863,195.067 89.101,193.617 L91.172,193.291 C92.352,193.105 93.538,193.014 94.717,193.014 C100.761,193.014 106.655,195.405 110.989,199.73 L112.473,201.211 C119.094,207.816 129.867,207.815 136.487,201.211 L137.971,199.73 C143.152,194.562 150.56,192.151 157.788,193.291 L159.86,193.617 C169.1,195.063 177.814,188.737 179.287,179.501 L179.618,177.43 C180.771,170.205 185.349,163.903 191.865,160.574 L193.732,159.62 C202.061,155.364 205.39,145.119 201.153,136.781 L200.203,134.912 Z"/>
    <path fill="#48515A" d="M119.012,71.058 L118.093,62.105 C118.804,62.032 119.519,61.97 120.236,61.921 L120.854,70.9 C120.237,70.942 119.624,70.995 119.012,71.058 Z M131.91,71.259 C131.303,71.177 130.691,71.105 130.076,71.044 L130.977,62.089 C131.693,62.161 132.406,62.245 133.115,62.34 L131.91,71.259 Z M108.202,73.309 L105.459,64.737 C106.144,64.518 106.833,64.311 107.528,64.116 L109.963,72.781 C109.372,72.947 108.784,73.123 108.202,73.309 Z M142.649,73.856 C142.071,73.651 141.489,73.456 140.902,73.271 L143.609,64.688 C144.298,64.904 144.979,65.133 145.655,65.373 L142.649,73.856 Z M98.067,77.735 L93.631,69.904 C94.256,69.55 94.889,69.206 95.528,68.873 L99.689,76.853 C99.143,77.138 98.602,77.432 98.067,77.735 Z M152.626,78.596 C152.101,78.277 151.57,77.966 151.033,77.665 L155.443,69.819 C156.068,70.171 156.687,70.532 157.298,70.904 L152.626,78.596 Z M89.045,84.138 L83.116,77.366 C83.656,76.894 84.203,76.431 84.757,75.977 L90.457,82.942 C89.98,83.333 89.509,83.731 89.045,84.138 Z M161.436,85.273 C160.986,84.854 160.529,84.442 160.066,84.039 L165.973,77.249 C166.516,77.721 167.049,78.202 167.574,78.692 L161.436,85.273 Z M81.51,92.234 L74.334,86.803 C74.766,86.231 75.208,85.667 75.66,85.11 L82.649,90.78 C82.262,91.258 81.882,91.743 81.51,92.234 Z M168.716,93.604 C168.359,93.101 167.995,92.605 167.622,92.114 L174.784,86.664 C175.22,87.236 175.645,87.815 176.06,88.401 L168.716,93.604 Z M75.783,101.68 L67.65,97.825 C67.957,97.177 68.274,96.536 68.602,95.901 L76.6,100.028 C76.318,100.574 76.046,101.125 75.783,101.68 Z M174.147,103.233 C173.901,102.668 173.646,102.108 173.382,101.553 L181.505,97.679 C181.814,98.328 182.114,98.984 182.401,99.645 L174.147,103.233 Z M72.106,112.098 L63.356,109.992 C63.524,109.293 63.704,108.597 63.895,107.906 L72.568,110.313 C72.404,110.903 72.25,111.499 72.106,112.098 Z M177.492,113.773 C177.367,113.169 177.231,112.569 177.087,111.972 L185.831,109.844 C186.001,110.539 186.158,111.24 186.305,111.944 L177.492,113.773 Z M70.638,123.054 L61.643,122.772 C61.665,122.053 61.7,121.337 61.746,120.625 L70.727,121.207 C70.687,121.82 70.657,122.436 70.638,123.054 Z M187.612,124.771 L178.612,124.771 C178.612,124.153 178.603,123.537 178.582,122.924 L187.576,122.62 C187.601,123.334 187.612,124.051 187.612,124.771 Z M187.071,133.051 L178.149,131.874 C178.229,131.267 178.299,130.656 178.357,130.043 L187.316,130.91 C187.246,131.628 187.165,132.341 187.071,133.051 Z M62.545,135.631 C62.422,134.925 62.312,134.216 62.212,133.503 L71.127,132.267 C71.212,132.878 71.307,133.486 71.412,134.09 L62.545,135.631 Z M184.086,145.599 L175.592,142.626 C175.794,142.048 175.987,141.465 176.17,140.878 L184.764,143.55 C184.55,144.238 184.323,144.921 184.086,145.599 Z M66.057,148.055 C65.79,147.386 65.535,146.713 65.291,146.033 L73.763,142.995 C73.972,143.576 74.189,144.152 74.417,144.724 L66.057,148.055 Z M178.597,157.266 L170.892,152.615 C171.209,152.09 171.517,151.559 171.815,151.023 L179.677,155.405 C179.327,156.032 178.967,156.653 178.597,157.266 Z M72.036,159.492 C71.639,158.893 71.252,158.285 70.874,157.671 L78.547,152.966 C78.869,153.49 79.199,154.009 79.539,154.521 L72.036,159.492 Z M170.848,167.565 L164.24,161.453 C164.659,161.001 165.07,160.541 165.475,160.074 L172.279,165.964 C171.811,166.506 171.333,167.04 170.848,167.565 Z M80.208,169.463 C79.699,168.957 79.198,168.442 78.706,167.919 L85.265,161.756 C85.686,162.204 86.116,162.645 86.552,163.079 L80.208,169.463 Z M161.168,176.086 L155.937,168.762 C156.439,168.403 156.936,168.037 157.426,167.661 L162.898,174.806 C162.328,175.243 161.752,175.669 161.168,176.086 Z M90.229,177.57 C89.628,177.178 89.035,176.776 88.449,176.364 L93.621,168.999 C94.124,169.352 94.633,169.696 95.148,170.033 L90.229,177.57 Z M149.948,182.468 L146.327,174.229 C146.892,173.981 147.45,173.723 148.004,173.457 L151.912,181.563 C151.263,181.877 150.608,182.178 149.948,182.468 Z M101.691,183.471 C101.022,183.21 100.359,182.937 99.703,182.654 L103.265,174.389 C103.827,174.632 104.394,174.864 104.965,175.087 L101.691,183.471 Z M137.659,186.417 L135.804,177.611 C136.406,177.484 137.005,177.347 137.602,177.199 L139.76,185.937 C139.063,186.109 138.363,186.269 137.659,186.417 Z M114.128,186.903 C113.417,186.783 112.711,186.653 112.009,186.51 L113.801,177.69 C114.402,177.812 115.006,177.924 115.614,178.026 L114.128,186.903 Z M124.84,187.771 L124.807,178.771 C125.425,178.768 126.041,178.756 126.654,178.733 L126.992,187.727 C126.277,187.753 125.56,187.768 124.84,187.771 Z"/>
    <path fill="#5FE0ED" d="M124.499,75.068 C112.082,75.296 102.264,85.848 102.264,98.419 L102.264,129.032 L117.233,129.032 L117.192,125.039 C115.82,123.621 114.324,121.847 113.064,119.788 C109.958,114.712 108.737,108.105 108.737,101.677 L108.737,101.178 L122.626,101.178 L122.479,94.48 C127.016,98.783 133.001,101.178 139.218,101.178 L141.693,101.178 L141.693,101.677 C141.693,108.131 140.196,114.683 137.057,119.751 C134.982,123.1 132.112,125.741 130.326,127.278 L132.877,129.032 L147.578,129.032 L147.578,98.05 C147.578,85.213 137.234,74.833 124.499,75.068"/>
    <polyline fill="#EAEAE9" points="107.178 148.095 114.828 148.095 112.401 144.521 111.15 144.521 107.178 148.095"/>
    <polyline fill="#EAEAE9" points="142.046 148.095 134.396 148.095 136.823 144.521 138.074 144.521 142.046 148.095"/>
    <polyline fill="#EAEAE9" points="117.183 136.775 112.474 144.52 123.656 160.603 124.844 160.603 117.183 136.775"/>
    <polyline fill="#EAEAE9" points="132.842 131.043 137.78 136.181 142.499 147.495 141.322 147.495 138.38 144.52 137.203 144.52 132.494 136.775 132.842 131.043"/>
    <path fill="#EAEAE9" d="M132.866,134.201 L132.866,125.621 L129.68,127.614 C128.82,128.152 127.828,128.437 126.817,128.437 L123.266,128.437 C121.997,128.437 120.768,127.989 119.791,127.169 L117.19,124.988 L117.192,128.364 L132.866,134.201"/>
    <path fill="#48515A" d="M126.641,129.581 L122.994,129.581 C121.462,129.581 120.113,129.087 118.984,128.111 C117.047,126.436 114.299,123.722 112.21,120.31 C108.513,114.267 107.737,106.841 107.737,101.677 L107.737,101.178 L109.737,101.178 L109.737,101.677 C109.737,106.585 110.462,113.62 113.917,119.266 C115.871,122.459 118.462,125.016 120.292,126.598 C121.047,127.25 121.956,127.581 122.994,127.581 L126.641,127.581 C127.833,127.581 128.801,127.27 129.518,126.656 C130.615,125.716 133.956,122.858 136.206,119.224 C139.1,114.554 140.693,108.322 140.693,101.677 L140.693,101.178 L142.693,101.178 L142.693,101.677 C142.693,108.689 140.993,115.295 137.907,120.278 C135.492,124.175 131.975,127.186 130.818,128.175 C129.729,129.108 128.324,129.581 126.641,129.581"/>
    <polygon fill="#48515A" points="116.182 131.34 118.182 131.34 118.182 125.011 116.182 125.011"/>
    <polygon fill="#48515A" points="131.483 131.713 133.483 131.713 133.483 125.458 131.483 125.458"/>
    <path fill="#48515A" d="M159.687 163.802L157.687 163.802 157.687 163.156 157.183 152.811C156.482 147.554 152.964 143.03 148.007 141.088L137.429 137.117 138.132 135.245 148.724 139.22C154.371 141.433 158.369 146.57 159.173 152.631L159.687 163.802M92.027 163.802L90.027 163.802 90.027 163.156 90.535 152.713C91.345 146.57 95.344 141.433 100.978 139.225L111.533 135.245 112.239 137.116 101.696 141.092C96.751 143.03 93.232 147.554 92.525 152.893L92.026 163.205 92.027 163.802"/>
    <path fill="#48515A" d="M110.879,143.52 L112.996,143.52 L122.846,157.687 L116.183,136.932 L116.183,133.254 L112.734,136.745 L109.215,145.202 L110.879,143.52 Z M126.204,161.603 L123.134,161.603 L111.951,145.52 L111.714,145.52 L108.772,148.495 L105.679,148.495 L111.038,135.617 L118.183,128.384 L118.183,136.618 L126.204,161.603 Z"/>
    <path fill="#48515A" d="M133.494,133.257 L133.446,137.081 L126.83,157.687 L136.681,143.52 L138.798,143.52 L140.458,145.2 L136.932,136.745 L133.494,133.257 Z M126.543,161.603 L123.472,161.603 L131.494,136.618 L131.494,128.381 L138.629,135.617 L144,148.495 L140.903,148.495 L137.962,145.52 L137.726,145.52 L126.543,161.603 Z"/>
    <polygon fill="#48515A" points="159 106.259 161 106.259 161 102.259 159 102.259"/>
    <polygon fill="#48515A" points="159 116.259 161 116.259 161 112.259 159 112.259"/>
    <polygon fill="#48515A" points="163 110.259 167 110.259 167 108.259 163 108.259"/>
    <polygon fill="#48515A" points="153 110.259 157 110.259 157 108.259 153 108.259"/>
    <polygon fill="#48515A" points="35 71.259 37 71.259 37 67.259 35 67.259"/>
    <polygon fill="#48515A" points="35 81.259 37 81.259 37 77.259 35 77.259"/>
    <polygon fill="#48515A" points="39 75.259 43 75.259 43 73.259 39 73.259"/>
    <polygon fill="#48515A" points="29 75.259 33 75.259 33 73.259 29 73.259"/>
    <polygon fill="#48515A" points="213 187.259 215 187.259 215 183.259 213 183.259"/>
    <polygon fill="#48515A" points="213 197.259 215 197.259 215 193.259 213 193.259"/>
    <polygon fill="#48515A" points="217 191.259 221 191.259 221 189.259 217 189.259"/>
    <polygon fill="#48515A" points="207 191.259 211 191.259 211 189.259 207 189.259"/>
    <path fill="#F58E70" d="M52.959 177.176C52.959 178.281 52.064 179.176 50.959 179.176 49.855 179.176 48.959 178.281 48.959 177.176 48.959 176.071 49.855 175.176 50.959 175.176 52.064 175.176 52.959 176.071 52.959 177.176M148.959 209.176C148.959 210.281 148.064 211.176 146.959 211.176 145.855 211.176 144.959 210.281 144.959 209.176 144.959 208.071 145.855 207.176 146.959 207.176 148.064 207.176 148.959 208.071 148.959 209.176M188.959 60.176C188.959 60.728 188.511 61.176 187.959 61.176 187.407 61.176 186.959 60.728 186.959 60.176 186.959 59.624 187.407 59.176 187.959 59.176 188.511 59.176 188.959 59.624 188.959 60.176"/>
  </g>
</svg>
