<svg xmlns="http://www.w3.org/2000/svg" width="250" height="250" viewBox="0 0 250 250">
  <g fill="none" fill-rule="evenodd">
    <path fill="#5FE0ED" d="M141.498,45.884 C112.55,45.884 89.083,69.351 89.083,98.299 C89.083,103.409 89.826,108.341 91.193,113.008 L132.5,113.008 L132.5,149.92 C135.423,150.434 138.427,150.714 141.498,150.714 C170.446,150.714 193.913,127.247 193.913,98.299 C193.913,69.351 170.446,45.884 141.498,45.884"/>
    <path fill="#5FE0ED" d="M133.5,149.074 C136.168,149.499 138.855,149.715 141.498,149.715 C169.849,149.715 192.914,126.65 192.914,98.299 C192.914,69.949 169.849,46.884 141.498,46.884 C113.148,46.884 90.083,69.949 90.083,98.299 C90.083,102.934 90.71,107.542 91.948,112.008 L133.5,112.008 L133.5,149.074 Z M141.498,151.715 C138.465,151.715 135.38,151.442 132.327,150.905 L131.5,150.759 L131.5,114.008 L90.444,114.008 L90.233,113.289 C88.807,108.417 88.083,103.374 88.083,98.299 C88.083,68.846 112.045,44.884 141.498,44.884 C170.952,44.884 194.914,68.846 194.914,98.299 C194.914,127.753 170.952,151.715 141.498,151.715 Z"/>
    <path fill="#48515A" d="M94.22,41.138 C93.67,41.098 93.26,40.618 93.3,40.068 C93.35,39.518 93.83,39.098 94.38,39.148 C94.93,39.188 95.34,39.668 95.3,40.218 C95.26,40.748 94.82,41.138 94.3,41.138 C94.28,41.138 94.25,41.138 94.22,41.138 Z M89.35,40.578 C89.23,40.048 89.56,39.508 90.1,39.388 C90.64,39.258 91.18,39.598 91.3,40.138 C91.42,40.678 91.08,41.218 90.54,41.338 C90.47,41.348 90.4,41.358 90.32,41.358 C89.87,41.358 89.45,41.048 89.35,40.578 Z M98,41.778 C97.46,41.648 97.14,41.108 97.27,40.568 C97.4,40.038 97.94,39.708 98.48,39.838 C99.01,39.968 99.34,40.508 99.21,41.048 C99.1,41.508 98.69,41.808 98.24,41.808 C98.16,41.808 98.08,41.798 98,41.778 Z M101.73,42.908 C101.21,42.728 100.94,42.158 101.12,41.638 C101.31,41.118 101.88,40.838 102.4,41.028 C102.92,41.208 103.19,41.788 103.01,42.308 C102.86,42.718 102.48,42.968 102.07,42.968 C101.95,42.968 101.84,42.948 101.73,42.908 Z M86.12,42.898 C85.73,42.508 85.73,41.878 86.12,41.488 C86.51,41.098 87.15,41.098 87.54,41.488 C87.93,41.878 87.93,42.508 87.54,42.898 C87.34,43.098 87.09,43.198 86.83,43.198 C86.58,43.198 86.32,43.098 86.12,42.898 Z M105.39,44.358 C104.88,44.138 104.65,43.548 104.87,43.048 C105.09,42.538 105.68,42.308 106.18,42.528 C106.69,42.748 106.92,43.338 106.7,43.838 C106.54,44.218 106.17,44.448 105.78,44.448 C105.65,44.448 105.51,44.418 105.39,44.358 Z M108.96,46.038 C108.47,45.788 108.27,45.188 108.51,44.698 C108.76,44.198 109.36,43.998 109.85,44.248 C110.35,44.488 110.55,45.088 110.3,45.588 C110.13,45.938 109.78,46.138 109.41,46.138 C109.26,46.138 109.11,46.108 108.96,46.038 Z M112.47,47.878 C111.98,47.608 111.81,46.998 112.07,46.518 C112.34,46.038 112.95,45.858 113.43,46.128 C113.92,46.388 114.09,46.998 113.83,47.478 C113.64,47.808 113.3,47.998 112.95,47.998 C112.79,47.998 112.62,47.958 112.47,47.878 Z M115.91,49.848 C115.43,49.568 115.28,48.958 115.56,48.478 C115.84,48.008 116.46,47.848 116.93,48.138 C117.41,48.418 117.56,49.028 117.28,49.508 C117.09,49.818 116.76,49.988 116.42,49.988 C116.24,49.988 116.07,49.948 115.91,49.848 Z M119.29,51.938 C118.82,51.638 118.68,51.018 118.98,50.558 C119.28,50.088 119.9,49.958 120.36,50.248 C120.83,50.548 120.96,51.168 120.67,51.628 C120.48,51.928 120.15,52.098 119.82,52.098 C119.64,52.098 119.45,52.048 119.29,51.938 Z M122.61,54.118 C122.15,53.808 122.03,53.188 122.34,52.728 C122.65,52.268 123.27,52.148 123.73,52.458 C124.19,52.768 124.31,53.388 124,53.848 C123.81,54.128 123.49,54.288 123.17,54.288 C122.98,54.288 122.78,54.228 122.61,54.118 Z M125.88,56.378 C125.43,56.058 125.33,55.438 125.65,54.988 C125.96,54.538 126.59,54.428 127.04,54.748 C127.49,55.068 127.6,55.688 127.28,56.138 C127.08,56.418 126.77,56.558 126.46,56.558 C126.26,56.558 126.06,56.498 125.88,56.378 Z M129.11,58.708 C128.67,58.388 128.57,57.758 128.9,57.318 C129.23,56.868 129.85,56.778 130.3,57.108 C130.74,57.428 130.84,58.058 130.51,58.498 C130.31,58.768 130.01,58.908 129.7,58.908 C129.5,58.908 129.29,58.848 129.11,58.708 Z M132.29,61.108 C131.85,60.778 131.77,60.148 132.11,59.708 C132.44,59.268 133.07,59.188 133.51,59.528 C133.95,59.858 134.03,60.488 133.69,60.928 C133.49,61.178 133.2,61.318 132.9,61.318 C132.68,61.318 132.47,61.248 132.29,61.108 Z M135.42,63.568 C134.99,63.218 134.92,62.588 135.27,62.158 C135.61,61.728 136.24,61.658 136.67,62.008 C137.1,62.348 137.17,62.978 136.83,63.408 C136.63,63.658 136.34,63.788 136.05,63.788 C135.83,63.788 135.61,63.718 135.42,63.568 Z M138.52,66.078 C138.09,65.728 138.03,65.098 138.38,64.668 C138.73,64.248 139.36,64.188 139.79,64.538 C140.22,64.888 140.28,65.518 139.92,65.948 C139.73,66.188 139.44,66.308 139.15,66.308 C138.93,66.308 138.7,66.228 138.52,66.078 Z M141.57,68.638 C141.15,68.278 141.1,67.648 141.46,67.228 C141.81,66.808 142.45,66.758 142.87,67.118 C143.29,67.478 143.34,68.108 142.98,68.528 C142.78,68.758 142.5,68.878 142.22,68.878 C141.99,68.878 141.76,68.798 141.57,68.638 Z M144.58,71.248 C144.17,70.888 144.13,70.258 144.49,69.838 C144.85,69.428 145.49,69.388 145.9,69.748 C146.31,70.118 146.35,70.748 145.99,71.158 C145.79,71.388 145.52,71.498 145.24,71.498 C145,71.498 144.77,71.418 144.58,71.248 Z M147.55,73.908 C147.14,73.538 147.11,72.908 147.48,72.498 C147.85,72.088 148.49,72.058 148.9,72.428 C149.31,72.798 149.34,73.428 148.97,73.838 C148.77,74.058 148.5,74.168 148.22,74.168 C147.98,74.168 147.74,74.078 147.55,73.908 Z M150.49,76.608 L150.48,76.608 C150.08,76.228 150.06,75.598 150.44,75.198 C150.81,74.788 151.45,74.768 151.85,75.148 C152.25,75.518 152.28,76.158 151.9,76.558 C151.7,76.768 151.43,76.878 151.17,76.878 C150.92,76.878 150.68,76.788 150.49,76.608 Z M153.38,79.348 C152.98,78.968 152.97,78.338 153.35,77.938 C153.73,77.538 154.37,77.518 154.77,77.908 C154.77,77.908 154.77,77.908 154.76,77.908 C155.16,78.288 155.18,78.918 154.79,79.318 C154.6,79.528 154.33,79.628 154.07,79.628 C153.82,79.628 153.57,79.538 153.38,79.348 Z M156.24,82.128 C155.84,81.738 155.84,81.108 156.23,80.718 C156.62,80.318 157.25,80.318 157.64,80.708 C158.04,81.098 158.04,81.728 157.65,82.118 C157.45,82.318 157.2,82.418 156.94,82.418 C156.68,82.418 156.43,82.318 156.24,82.128 Z M159.05,84.948 L159.06,84.948 C158.67,84.558 158.67,83.928 159.07,83.538 C159.46,83.148 160.09,83.148 160.48,83.548 C160.87,83.938 160.86,84.568 160.47,84.958 C160.27,85.148 160.02,85.248 159.77,85.248 C159.51,85.248 159.25,85.148 159.05,84.948 Z M161.83,87.808 C161.45,87.408 161.47,86.778 161.86,86.398 C162.26,86.018 162.9,86.028 163.28,86.428 C163.66,86.828 163.65,87.458 163.25,87.838 C163.05,88.028 162.81,88.118 162.56,88.118 C162.29,88.118 162.03,88.018 161.83,87.808 Z M164.57,90.708 C164.2,90.298 164.22,89.668 164.62,89.298 C165.03,88.918 165.66,88.938 166.04,89.348 C166.41,89.748 166.39,90.378 165.99,90.758 C165.79,90.938 165.55,91.028 165.3,91.028 C165.04,91.028 164.77,90.918 164.57,90.708 Z M167.27,93.638 C166.9,93.238 166.93,92.598 167.34,92.228 C167.75,91.858 168.38,91.888 168.75,92.298 C169.12,92.708 169.09,93.338 168.68,93.708 C168.49,93.888 168.25,93.968 168.01,93.968 C167.74,93.968 167.47,93.858 167.27,93.638 Z M169.92,96.618 C169.56,96.198 169.6,95.568 170.01,95.208 C170.43,94.838 171.06,94.878 171.43,95.298 C171.79,95.708 171.75,96.348 171.33,96.708 C171.14,96.878 170.91,96.958 170.67,96.958 C170.4,96.958 170.12,96.838 169.92,96.618 Z M172.53,99.628 C172.17,99.208 172.22,98.578 172.65,98.218 C173.06,97.858 173.7,97.918 174.05,98.338 C174.41,98.758 174.36,99.388 173.94,99.748 C173.75,99.908 173.52,99.988 173.29,99.988 C173.01,99.988 172.73,99.868 172.53,99.628 Z M175.09,102.688 C174.74,102.258 174.8,101.628 175.23,101.278 C175.65,100.928 176.28,100.988 176.64,101.418 C176.99,101.838 176.93,102.468 176.5,102.818 C176.31,102.978 176.09,103.048 175.86,103.048 C175.58,103.048 175.29,102.928 175.09,102.688 Z M177.6,105.778 C177.26,105.348 177.33,104.718 177.76,104.378 C178.19,104.028 178.82,104.098 179.16,104.538 C179.51,104.968 179.44,105.598 179.01,105.938 C178.82,106.088 178.6,106.158 178.38,106.158 C178.09,106.158 177.8,106.028 177.6,105.778 Z M180.05,108.918 C179.72,108.478 179.8,107.848 180.24,107.518 C180.68,107.178 181.31,107.258 181.64,107.698 C181.98,108.138 181.89,108.768 181.46,109.098 C181.27,109.238 181.06,109.308 180.85,109.308 C180.55,109.308 180.25,109.178 180.05,108.918 Z M182.45,112.098 C182.12,111.658 182.22,111.028 182.66,110.698 C183.1,110.368 183.73,110.468 184.06,110.918 C184.06,110.918 184.06,110.918 184.06,110.908 C184.39,111.358 184.29,111.988 183.85,112.308 C183.67,112.448 183.46,112.508 183.25,112.508 C182.95,112.508 182.65,112.368 182.45,112.098 Z M184.78,115.328 C184.46,114.878 184.57,114.248 185.02,113.928 C185.47,113.618 186.09,113.718 186.41,114.178 C186.73,114.628 186.62,115.248 186.17,115.568 C186,115.688 185.8,115.748 185.6,115.748 C185.28,115.748 184.97,115.608 184.78,115.328 Z M187.04,118.598 C186.73,118.148 186.85,117.528 187.31,117.218 C187.77,116.908 188.39,117.028 188.7,117.488 C189,117.948 188.88,118.568 188.42,118.878 C188.25,118.988 188.06,119.048 187.87,119.048 C187.54,119.048 187.23,118.888 187.04,118.598 Z M189.21,121.928 C188.91,121.468 189.05,120.848 189.52,120.548 C189.98,120.258 190.6,120.388 190.9,120.858 C191.19,121.328 191.06,121.938 190.59,122.238 C190.42,122.348 190.24,122.398 190.06,122.398 C189.72,122.398 189.4,122.228 189.21,121.928 Z M191.29,125.318 C191.01,124.838 191.16,124.228 191.64,123.948 C192.11,123.658 192.73,123.818 193.01,124.288 C193.29,124.768 193.13,125.378 192.66,125.658 C192.5,125.758 192.32,125.798 192.15,125.798 C191.81,125.798 191.48,125.628 191.29,125.318 Z M193.26,128.758 C192.99,128.278 193.17,127.668 193.66,127.398 C194.14,127.138 194.75,127.308 195.01,127.798 C195.28,128.278 195.1,128.888 194.62,129.148 C194.46,129.238 194.3,129.278 194.14,129.278 C193.78,129.278 193.44,129.088 193.26,128.758 Z M195.09,132.268 C194.85,131.768 195.05,131.168 195.54,130.928 C196.04,130.678 196.64,130.888 196.88,131.378 C196.88,131.378 196.88,131.378 196.89,131.378 C197.13,131.878 196.93,132.478 196.43,132.718 C196.29,132.788 196.14,132.818 195.99,132.818 C195.62,132.818 195.27,132.618 195.09,132.268 Z M196.75,135.848 C196.53,135.338 196.77,134.748 197.28,134.538 C197.78,134.318 198.37,134.548 198.59,135.058 C198.81,135.558 198.57,136.148 198.07,136.368 C197.94,136.428 197.8,136.448 197.67,136.448 C197.28,136.448 196.92,136.228 196.75,135.848 Z M198.19,139.508 C198,138.988 198.28,138.418 198.8,138.228 C199.32,138.048 199.89,138.328 200.07,138.848 C200.26,139.368 199.98,139.938 199.46,140.118 C199.35,140.158 199.24,140.178 199.13,140.178 C198.72,140.178 198.33,139.918 198.19,139.508 Z M199.29,143.238 L199.3,143.238 C199.17,142.708 199.5,142.168 200.04,142.038 C200.57,141.908 201.11,142.238 201.24,142.778 C201.37,143.318 201.04,143.858 200.5,143.978 C200.42,143.998 200.34,144.008 200.27,144.008 C199.81,144.008 199.4,143.698 199.29,143.238 Z M199.9,147.018 C199.86,146.468 200.28,145.988 200.83,145.958 C201.38,145.918 201.86,146.338 201.9,146.888 C201.93,147.438 201.51,147.918 200.96,147.948 C200.94,147.948 200.92,147.958 200.9,147.958 C200.38,147.958 199.93,147.548 199.9,147.018 Z M200.36,151.898 C199.83,151.758 199.5,151.218 199.64,150.678 C199.78,150.148 200.32,149.818 200.85,149.958 C201.39,150.088 201.72,150.638 201.58,151.168 C201.46,151.628 201.06,151.928 200.61,151.928 C200.53,151.928 200.45,151.918 200.36,151.898 Z"/>
    <path fill="#48515A" d="M181.986 100.023L127.986 100.023C127.434 100.023 126.986 99.576 126.986 99.023 126.986 98.471 127.434 98.023 127.986 98.023L181.986 98.023C182.539 98.023 182.986 98.471 182.986 99.023 182.986 99.576 182.539 100.023 181.986 100.023M141.004 151.715C140.451 151.715 140.004 151.267 140.004 150.715 140.004 150.162 140.451 149.715 141.004 149.715 145.879 149.715 150.692 147.345 154.923 142.861 155.302 142.459 155.935 142.441 156.337 142.821 156.738 143.2 156.757 143.832 156.378 144.234 151.759 149.128 146.443 151.715 141.004 151.715"/>
    <path fill="#48515A" d="M160.579 137.97C160.403 137.97 160.225 137.923 160.063 137.825 159.59 137.54 159.439 136.925 159.724 136.452 165.621 126.695 169.004 112.788 169.004 98.299 169.004 69.949 156.443 46.884 141.004 46.884 127.478 46.884 115.894 64.615 113.459 89.043 113.405 89.593 112.917 89.993 112.365 89.939 111.815 89.885 111.414 89.394 111.469 88.845 114.008 63.372 126.429 44.884 141.004 44.884 157.546 44.884 171.004 68.846 171.004 98.299 171.004 113.142 167.516 127.426 161.436 137.487 161.248 137.798 160.918 137.97 160.579 137.97M185.99 100.028C185.72 100.028 185.46 99.918 185.28 99.728 185.19 99.638 185.11 99.528 185.06 99.408 185.01 99.278 184.99 99.158 184.99 99.018 184.99 98.888 185.01 98.758 185.06 98.638 185.11 98.518 185.19 98.408 185.28 98.318 185.51 98.088 185.85 97.978 186.18 98.048 186.25 98.058 186.31 98.078 186.37 98.098 186.43 98.128 186.49 98.158 186.54 98.188 186.6 98.228 186.65 98.268 186.69 98.318 186.79 98.408 186.86 98.518 186.91 98.638 186.96 98.758 186.99 98.888 186.99 99.018 186.99 99.158 186.96 99.278 186.91 99.408 186.86 99.528 186.79 99.638 186.69 99.728 186.51 99.918 186.25 100.028 185.99 100.028"/>
    <path fill="#48515A" d="M192.703 157.299C188.607 157.299 183.27 155.748 176.858 152.661 166.512 147.681 153.799 138.844 141.062 127.778 140.645 127.416 140.6 126.784 140.963 126.367 141.323 125.95 141.955 125.906 142.373 126.268 168.099 148.618 191.545 160.069 198.123 153.489 198.514 153.098 199.147 153.098 199.537 153.489 199.928 153.879 199.928 154.512 199.537 154.903 197.938 156.502 195.639 157.299 192.703 157.299M86.003 56.611C85.575 56.611 85.179 56.334 85.047 55.904 82.967 49.133 83.33 44.283 86.124 41.488 86.515 41.098 87.148 41.098 87.538 41.488 87.929 41.878 87.929 42.512 87.538 42.902 85.34 45.101 85.14 49.394 86.959 55.317 87.121 55.845 86.825 56.405 86.297 56.567 86.199 56.596 86.1 56.611 86.003 56.611M87 60.018C86.87 60.018 86.74 59.998 86.62 59.948 86.5 59.898 86.39 59.818 86.3 59.728 86.11 59.548 86 59.288 86 59.028 86 58.888 86.03 58.768 86.08 58.638 86.13 58.518 86.2 58.408 86.3 58.318 86.39 58.218 86.5 58.148 86.62 58.098 86.99 57.948 87.43 58.038 87.71 58.318 87.8 58.408 87.87 58.518 87.93 58.638 87.98 58.768 88 58.888 88 59.028 88 59.288 87.9 59.548 87.71 59.728 87.52 59.918 87.27 60.018 87 60.018M138.67 125.608C138.6 125.608 138.54 125.598 138.47 125.588 138.41 125.578 138.35 125.558 138.29 125.528 138.23 125.508 138.17 125.478 138.11 125.438 138.06 125.398 138.01 125.358 137.96 125.318 137.78 125.128 137.67 124.868 137.67 124.608 137.67 124.478 137.7 124.348 137.75 124.228 137.8 124.098 137.87 123.988 137.96 123.898 138.24 123.618 138.69 123.528 139.05 123.678 139.18 123.738 139.28 123.808 139.38 123.898 139.47 123.988 139.54 124.098 139.59 124.228 139.64 124.348 139.67 124.478 139.67 124.608 139.67 124.868 139.56 125.128 139.38 125.318 139.19 125.498 138.93 125.608 138.67 125.608M172.986 192.023L214.986 192.023 214.986 166.023 172.986 166.023 172.986 192.023zM170.986 194.023L216.986 194.023 216.986 164.023 170.986 164.023 170.986 194.023z"/>
    <path fill="#48515A" d="M193.792 180.166C193.606 180.166 193.419 180.114 193.255 180.01L177.131 169.734C176.665 169.437 176.528 168.819 176.825 168.353 177.122 167.888 177.742 167.751 178.206 168.048L193.79 177.979 208.739 168.389C209.203 168.092 209.823 168.225 210.121 168.691 210.42 169.156 210.284 169.774 209.819 170.073L194.332 180.008C194.168 180.114 193.98 180.166 193.792 180.166M212.531 190.061C212.245 190.061 211.961 189.939 211.763 189.701L202.839 178.995C202.486 178.571 202.543 177.941 202.967 177.587 203.392 177.233 204.022 177.291 204.376 177.715L213.299 188.421C213.652 188.846 213.595 189.476 213.171 189.829 212.984 189.985 212.757 190.061 212.531 190.061M175.052 190.061C174.827 190.061 174.6 189.985 174.413 189.829 173.988 189.476 173.931 188.846 174.285 188.421L183.208 177.715C183.562 177.291 184.192 177.233 184.616 177.587 185.041 177.941 185.098 178.571 184.744 178.995L175.821 189.701C175.623 189.939 175.339 190.061 175.052 190.061"/>
    <polygon fill="#48515A" points="194.986 210.023 196.986 210.023 196.986 196.023 194.986 196.023"/>
    <path fill="#48515A" d="M195.64,212.908 C195.51,212.908 195.38,212.878 195.26,212.828 C195.14,212.778 195.03,212.708 194.94,212.608 C194.75,212.428 194.64,212.168 194.64,211.908 C194.64,211.638 194.75,211.388 194.94,211.198 C195.03,211.108 195.14,211.038 195.26,210.978 C195.5,210.878 195.78,210.878 196.03,210.978 C196.15,211.038 196.26,211.108 196.35,211.198 C196.54,211.388 196.64,211.638 196.64,211.908 C196.64,212.168 196.54,212.428 196.35,212.608 C196.26,212.708 196.15,212.778 196.03,212.828 C195.9,212.878 195.77,212.908 195.64,212.908"/>
    <polygon fill="#48515A" points="202.986 201.023 204.986 201.023 204.986 196.023 202.986 196.023"/>
    <path fill="#48515A" d="M204.33,204.208 C204.27,204.208 204.2,204.208 204.14,204.188 C204.08,204.178 204.01,204.158 203.95,204.138 C203.89,204.108 203.83,204.078 203.78,204.038 C203.72,204.008 203.67,203.968 203.63,203.918 C203.44,203.728 203.34,203.478 203.34,203.208 C203.34,203.148 203.34,203.078 203.35,203.018 C203.37,202.948 203.39,202.888 203.41,202.828 C203.44,202.768 203.47,202.708 203.5,202.658 C203.54,202.598 203.58,202.548 203.63,202.508 C203.67,202.458 203.72,202.418 203.78,202.378 C203.83,202.348 203.89,202.308 203.95,202.288 C204.01,202.258 204.08,202.248 204.14,202.228 C204.27,202.208 204.4,202.208 204.53,202.228 C204.59,202.248 204.66,202.258 204.72,202.288 C204.78,202.308 204.84,202.348 204.89,202.378 C204.94,202.418 205,202.458 205.04,202.508 C205.09,202.548 205.13,202.598 205.17,202.658 C205.2,202.708 205.23,202.768 205.26,202.828 C205.28,202.888 205.3,202.948 205.32,203.018 C205.33,203.078 205.34,203.148 205.34,203.208 C205.34,203.478 205.23,203.728 205.04,203.918 C205,203.968 204.94,204.008 204.89,204.038 C204.84,204.078 204.78,204.108 204.72,204.138 C204.66,204.158 204.59,204.178 204.53,204.188 C204.47,204.208 204.4,204.208 204.33,204.208"/>
    <polygon fill="#48515A" points="185.986 204.023 187.986 204.023 187.986 196.023 185.986 196.023"/>
    <path fill="#48515A" d="M186.95,207.108 C186.88,207.108 186.81,207.098 186.75,207.088 C186.69,207.078 186.62,207.058 186.56,207.028 C186.5,207.008 186.44,206.978 186.39,206.938 C186.34,206.898 186.28,206.858 186.24,206.818 C186.15,206.718 186.07,206.608 186.02,206.488 C185.97,206.368 185.95,206.238 185.95,206.108 C185.95,205.978 185.97,205.848 186.02,205.728 C186.07,205.598 186.15,205.488 186.24,205.398 C186.47,205.168 186.81,205.058 187.14,205.128 C187.2,205.138 187.27,205.158 187.33,205.188 C187.39,205.208 187.45,205.238 187.5,205.278 C187.56,205.308 187.61,205.358 187.65,205.398 C187.74,205.498 187.82,205.598 187.87,205.728 C187.92,205.848 187.95,205.978 187.95,206.108 C187.95,206.238 187.92,206.368 187.87,206.488 C187.82,206.608 187.74,206.718 187.65,206.818 C187.61,206.858 187.55,206.898 187.5,206.938 C187.45,206.978 187.39,207.008 187.33,207.028 C187.27,207.058 187.2,207.078 187.14,207.088 C187.08,207.098 187.01,207.108 186.95,207.108"/>
    <path fill="#475059" d="M186.291,61.41 C186.125,61.918 186.167,62.461 186.41,62.937 C186.652,63.414 187.066,63.768 187.575,63.934 C188.084,64.101 188.627,64.058 189.104,63.816 C189.572,63.578 189.922,63.175 190.092,62.678 C190.258,62.169 190.215,61.626 189.973,61.149 C189.731,60.672 189.317,60.318 188.808,60.152 C188.3,59.987 187.756,60.028 187.279,60.271 C186.81,60.51 186.46,60.913 186.291,61.41 Z M188.2,66.035 C187.783,66.035 187.363,65.969 186.955,65.836 C185.938,65.504 185.111,64.797 184.627,63.843 C184.147,62.899 184.06,61.825 184.38,60.816 C184.712,59.8 185.42,58.973 186.373,58.488 C187.325,58.003 188.411,57.918 189.428,58.251 C190.444,58.582 191.271,59.29 191.756,60.243 C192.236,61.188 192.323,62.262 192.002,63.271 L192.003,63.271 C191.671,64.288 190.963,65.115 190.01,65.599 C189.44,65.888 188.822,66.035 188.2,66.035 Z"/>
    <path fill="#475059" d="M187.15,77.342 L189.222,77.344 L189.224,76.112 C189.225,74.548 190.188,73.225 191.677,72.743 C193.166,72.262 194.721,72.768 195.639,74.035 L196.362,75.033 L198.041,73.816 L197.317,72.819 C196.399,71.552 196.4,69.916 197.322,68.651 C198.243,67.386 199.799,66.883 201.287,67.367 L202.458,67.749 L203.08,65.843 L201.908,65.461 C200.421,64.976 199.461,63.652 199.462,62.088 C199.463,60.523 200.426,59.2 201.915,58.718 L203.087,58.339 L202.448,56.367 L201.276,56.746 C199.789,57.228 198.233,56.721 197.314,55.454 C196.395,54.187 196.397,52.552 197.318,51.286 L198.043,50.29 L196.368,49.071 L195.643,50.067 C194.721,51.332 193.165,51.835 191.677,51.351 C190.19,50.865 189.23,49.541 189.231,47.976 L189.232,46.744 L187.159,46.742 L187.158,47.974 C187.157,49.539 186.194,50.862 184.705,51.344 C183.217,51.823 181.661,51.319 180.743,50.052 L180.02,49.055 L178.341,50.271 L179.065,51.269 C179.983,52.535 179.982,54.171 179.061,55.436 C178.14,56.701 176.585,57.205 175.095,56.72 L173.924,56.339 L173.304,58.242 L174.475,58.624 C175.963,59.11 176.922,60.434 176.921,61.999 C176.919,63.564 175.956,64.886 174.468,65.367 L173.296,65.747 L173.934,67.719 L175.106,67.34 C176.596,66.856 178.15,67.365 179.068,68.632 C179.987,69.899 179.985,71.534 179.065,72.799 L178.339,73.795 L180.015,75.015 L180.739,74.02 C181.662,72.755 183.217,72.251 184.705,72.736 C186.192,73.221 187.152,74.545 187.151,76.11 L187.15,77.342 Z M191.22,79.346 L185.148,79.34 L185.151,76.108 C185.152,75.281 184.601,74.805 184.085,74.637 C183.569,74.468 182.844,74.527 182.356,75.197 L180.454,77.809 L175.545,74.235 L177.448,71.622 C177.935,70.953 177.768,70.245 177.449,69.805 C177.13,69.366 176.509,68.988 175.722,69.242 L172.647,70.238 L170.777,64.46 L173.852,63.465 C174.639,63.21 174.921,62.539 174.921,61.997 C174.921,61.454 174.642,60.783 173.855,60.526 L170.782,59.524 L172.643,53.817 L175.715,54.819 C176.504,55.074 177.124,54.698 177.443,54.259 C177.763,53.821 177.931,53.113 177.445,52.443 L175.548,49.826 L180.465,46.261 L182.362,48.878 C182.848,49.549 183.573,49.608 184.089,49.441 C184.606,49.274 185.157,48.8 185.158,47.973 L185.161,44.741 L191.234,44.746 L191.231,47.978 C191.23,48.806 191.781,49.281 192.297,49.449 C192.812,49.619 193.538,49.559 194.025,48.89 L195.927,46.277 L200.837,49.851 L198.935,52.464 C198.448,53.133 198.614,53.841 198.933,54.28 C199.252,54.72 199.874,55.098 200.66,54.844 L203.735,53.848 L205.606,59.625 L202.531,60.62 C201.744,60.876 201.463,61.547 201.462,62.089 C201.462,62.632 201.741,63.303 202.528,63.56 L205.601,64.562 L203.739,70.271 L200.667,69.269 C199.88,69.012 199.258,69.389 198.939,69.828 C198.619,70.267 198.451,70.975 198.937,71.645 L200.834,74.261 L195.917,77.826 L194.02,75.209 C193.535,74.539 192.81,74.479 192.293,74.646 C191.776,74.813 191.225,75.286 191.224,76.114 L191.22,79.346 Z"/>
    <path fill="#F58E70" d="M182.366,60.144 C181.342,63.347 183.102,66.792 186.303,67.836 C189.495,68.877 192.938,67.143 194.008,63.968 C195.051,60.759 193.29,57.298 190.08,56.251 C188.525,55.744 186.863,55.873 185.404,56.614 C183.956,57.35 182.878,58.603 182.366,60.144 Z M188.211,70.141 C187.363,70.142 186.512,70.008 185.683,69.737 C183.619,69.064 181.941,67.628 180.957,65.693 C179.984,63.778 179.806,61.602 180.454,59.557 C180.458,59.547 180.461,59.535 180.464,59.525 C180.468,59.513 180.472,59.502 180.476,59.491 C181.89,55.273 186.462,52.968 190.7,54.349 C194.939,55.732 197.273,60.288 195.928,64.53 L195.929,64.53 C195.256,66.594 193.819,68.272 191.884,69.256 C190.727,69.844 189.473,70.141 188.211,70.141 Z"/>
    <path fill="#FFD15D" d="M100.624,90.158 C82.38,90.489 67.952,105.807 67.952,124.054 L67.952,168.493 L89.948,168.493 L89.889,162.696 C87.872,160.637 85.673,158.062 83.822,155.073 C79.259,147.706 77.465,138.115 77.465,128.784 L77.465,128.059 L97.873,128.059 L97.657,118.337 C104.324,124.583 113.118,128.059 122.254,128.059 L125.891,128.059 L125.891,128.784 C125.891,138.153 123.691,147.663 119.077,155.02 C116.029,159.881 111.812,163.715 109.187,165.947 L112.936,168.493 L134.538,168.493 L134.538,123.519 C134.538,104.885 119.338,89.818 100.624,90.158"/>
    <polyline fill="#EAEAE9" points="75.173 196.165 86.414 196.165 82.848 190.976 81.01 190.976 75.173 196.165"/>
    <polyline fill="#EAEAE9" points="126.409 196.165 115.168 196.165 118.735 190.976 120.572 190.976 126.409 196.165"/>
    <polyline fill="#EAEAE9" points="89.875 179.732 82.954 190.974 99.386 214.321 101.131 214.321 89.875 179.732"/>
    <polyline fill="#EAEAE9" points="112.884 171.411 120.14 178.87 127.074 195.293 125.344 195.293 121.022 190.974 119.293 190.974 112.373 179.732 112.884 171.411"/>
    <path fill="#EAEAE9" d="M112.919,175.995 L112.919,163.541 L108.238,166.434 C106.974,167.215 105.517,167.628 104.031,167.628 L98.813,167.628 C96.949,167.628 95.143,166.978 93.707,165.788 L89.886,162.622 L89.888,167.522 L112.919,175.995"/>
    <path fill="#48515A" d="M103.772,168.838 L98.413,168.838 C96.28,168.838 94.403,168.158 92.833,166.818 C90.011,164.408 86.01,160.505 82.971,155.599 C77.593,146.916 76.465,136.224 76.465,128.784 L76.465,128.059 L78.464,128.059 L78.464,128.784 C78.464,135.965 79.541,146.262 84.672,154.547 C87.575,159.233 91.419,162.979 94.132,165.297 C95.329,166.319 96.77,166.838 98.413,166.838 L103.772,166.838 C105.641,166.838 107.168,166.348 108.309,165.382 C109.936,164.007 114.885,159.823 118.23,154.489 C122.525,147.639 124.891,138.51 124.891,128.784 L124.891,128.059 L126.891,128.059 L126.891,128.784 C126.891,138.881 124.417,148.387 119.924,155.552 C116.414,161.149 111.286,165.485 109.601,166.909 C108.088,168.189 106.127,168.838 103.772,168.838"/>
    <polygon fill="#48515A" points="88.874 171.844 90.874 171.844 90.874 162.656 88.874 162.656"/>
    <polygon fill="#48515A" points="111.357 172.384 113.357 172.384 113.357 163.304 111.357 163.304"/>
    <path fill="#48515A" d="M152.5 221.008L150.5 221.008 150.5 220.071 149.122 203.019C148.066 195.158 142.784 188.453 135.344 185.574L119.793 179.807 120.488 177.932 136.052 183.703C144.186 186.851 149.951 194.169 151.109 202.806L152.496 219.99 152.5 221.008M51.5 221.008L49.5 221.008 49.5 220.071 51.19 202.841C52.353 194.169 58.117 186.851 66.238 183.708L81.742 177.933 82.44 179.807 66.948 185.578C59.52 188.453 54.238 195.158 53.176 203.072L51.495 220.168 51.5 221.008"/>
    <path fill="#48515A" d="M80.811,189.974 L83.474,189.974 L99.597,212.883 L88.875,179.89 L88.875,173.501 L82.937,179.439 L76.818,193.964 L80.811,189.974 Z M102.492,215.321 L98.867,215.321 L82.436,191.974 L81.639,191.974 L77.317,196.293 L73.667,196.293 L81.246,178.301 L90.875,168.672 L90.875,179.574 L102.492,215.321 Z"/>
    <path fill="#48515A" d="M113.373,173.504 L113.324,180.041 L102.651,212.883 L118.774,189.974 L121.436,189.974 L125.426,193.961 L119.295,179.438 L113.373,173.504 Z M103.38,215.321 L99.755,215.321 L111.373,179.574 L111.373,168.668 L120.986,178.302 L128.582,196.293 L124.93,196.293 L120.608,191.974 L119.812,191.974 L103.38,215.321 Z"/>
    <path fill="#FFD15D" d="M58.987,115.023 L58.987,110.389 C58.987,107.91 59.995,105.579 61.785,103.864 C65.002,100.78 66.979,96.448 66.979,91.639 C66.979,81.957 58.857,74.169 49.062,74.692 C40.367,75.157 33.303,82.377 33.023,91.08 C32.859,96.153 34.876,100.735 38.266,103.942 C39.991,105.574 40.987,107.793 40.987,110.168 L40.987,115.023"/>
    <path fill="#48515A" d="M50.171,125.873 C49.635,125.873 49.192,125.449 49.172,124.908 C49.152,124.357 49.584,123.893 50.136,123.873 L53.96,123.737 C54.901,123.626 55.857,123.167 56.574,122.45 L56.874,122.157 C57.585,121.321 57.986,120.283 57.986,119.255 L57.986,115.023 C57.986,114.471 58.434,114.023 58.986,114.023 C59.539,114.023 59.986,114.471 59.986,115.023 L59.986,119.255 C59.986,120.932 59.269,122.613 58.018,123.864 L57.675,124.157 C56.683,125.024 55.433,125.578 54.11,125.73 L50.207,125.872 C50.195,125.873 50.183,125.873 50.171,125.873"/>
    <path fill="#48515A" d="M61.986,116.023 L37.986,116.023 C37.434,116.023 36.986,115.575 36.986,115.023 C36.986,114.471 37.434,114.023 37.986,114.023 L61.986,114.023 C62.539,114.023 62.986,114.471 62.986,115.023 C62.986,115.575 62.539,116.023 61.986,116.023"/>
    <path fill="#48515A" d="M51.331 126.023L46.606 126.023C44.954 126.023 43.265 125.282 41.972 123.989L41.759 123.776 41.731 123.638C40.619 122.419 39.986 120.838 39.986 119.255L39.986 115.023C39.986 114.471 40.434 114.023 40.986 114.023 41.539 114.023 41.986 114.471 41.986 115.023L41.986 119.255C41.986 120.411 42.487 121.576 43.361 122.45L43.573 122.663 43.596 122.774C44.474 123.56 45.581 124.023 46.606 124.023L49.395 124.023C49.521 123.913 49.676 123.833 49.852 123.797 50.395 123.684 50.922 124.034 51.033 124.575L51.331 126.023M39.99 84.31C39.762 84.31 39.533 84.233 39.346 84.074 38.924 83.718 38.87 83.087 39.226 82.665L39.379 82.486C39.74 82.069 40.372 82.024 40.79 82.387 41.207 82.749 41.251 83.381 40.889 83.798L40.755 83.954C40.557 84.189 40.275 84.31 39.99 84.31M59.141 83.475C58.885 83.475 58.63 83.377 58.434 83.182 56.167 80.915 53.153 79.667 49.948 79.667 47.648 79.668 45.414 80.32 43.488 81.552 43.022 81.849 42.404 81.714 42.107 81.249 41.809 80.783 41.944 80.165 42.41 79.867 44.658 78.428 47.265 77.668 49.948 77.667 53.688 77.667 57.204 79.123 59.848 81.768 60.239 82.158 60.239 82.791 59.848 83.182 59.653 83.377 59.397 83.475 59.141 83.475"/>
    <polyline fill="#48515A" points="53.986 115.023 51.986 115.023 51.986 104.462 57.986 90.462 57.986 89.023 59.986 89.023 59.986 90.872 53.986 104.872 53.986 115.023"/>
    <polyline fill="#48515A" points="47.986 115.023 45.986 115.023 45.986 104.872 39.986 90.872 39.986 89.023 41.986 89.023 41.986 90.462 47.986 104.462 47.986 115.023"/>
    <path fill="#48515A" d="M44.986 91.023L46.986 91.023 46.986 89.023 44.986 89.023 44.986 91.023zM48.986 91.023L50.986 91.023 50.986 89.023 48.986 89.023 48.986 91.023zM52.986 91.023L54.986 91.023 54.986 89.023 52.986 89.023 52.986 91.023zM55.508 180.023C51.912 180.023 48.986 177.107 48.986 173.523L48.986 125.023C48.986 124.471 49.434 124.023 49.986 124.023 50.539 124.023 50.986 124.471 50.986 125.023L50.986 173.523C50.986 176.005 53.014 178.023 55.507 178.023 57.977 178.023 59.986 176.005 59.986 173.523L59.986 154.523C59.986 150.94 62.904 148.026 66.492 148.023 66.494 148.023 66.495 148.023 66.497 148.023 70.076 148.026 72.986 150.94 72.986 154.523L72.986 159.023C72.986 159.575 72.539 160.023 71.986 160.023 71.434 160.023 70.986 159.575 70.986 159.023L70.986 154.523C70.986 152.042 68.972 150.025 66.494 150.023 64.008 150.025 61.986 152.042 61.986 154.523L61.986 173.523C61.986 177.107 59.08 180.023 55.508 180.023M72.01 164.028C71.74 164.028 71.49 163.918 71.3 163.728 71.11 163.548 71.01 163.288 71.01 163.028 71.01 162.758 71.11 162.498 71.3 162.318 71.67 161.948 72.34 161.938 72.71 162.318 72.9 162.498 73.01 162.758 73.01 163.028 73.01 163.088 73 163.158 72.99 163.218 72.97 163.278 72.96 163.348 72.93 163.408 72.91 163.468 72.87 163.528 72.84 163.578 72.8 163.638 72.76 163.688 72.71 163.728 72.53 163.918 72.27 164.028 72.01 164.028M72.01 168.018C71.74 168.018 71.49 167.918 71.3 167.728 71.21 167.638 71.13 167.528 71.08 167.408 71.03 167.288 71.01 167.158 71.01 167.028 71.01 166.758 71.11 166.498 71.3 166.318 71.67 165.948 72.34 165.938 72.71 166.318 72.9 166.498 73.01 166.758 73.01 167.028 73.01 167.158 72.98 167.288 72.93 167.408 72.88 167.528 72.81 167.638 72.71 167.728 72.53 167.918 72.27 168.018 72.01 168.018M72.01 172.028C71.74 172.028 71.49 171.918 71.3 171.728 71.21 171.638 71.13 171.528 71.08 171.408 71.03 171.278 71.01 171.158 71.01 171.028 71.01 170.888 71.03 170.768 71.08 170.638 71.13 170.518 71.21 170.408 71.3 170.318 71.67 169.948 72.34 169.948 72.71 170.318 72.81 170.408 72.88 170.518 72.93 170.638 72.98 170.768 73.01 170.888 73.01 171.028 73.01 171.158 72.98 171.278 72.93 171.408 72.88 171.528 72.81 171.638 72.71 171.728 72.67 171.778 72.62 171.818 72.56 171.858 72.51 171.888 72.45 171.918 72.39 171.948 72.33 171.968 72.27 171.988 72.2 172.008 72.14 172.018 72.07 172.028 72.01 172.028"/>
    <path fill="#FFD15D" d="M62.007,58.023 C62.007,59.68 60.664,61.023 59.007,61.023 C57.35,61.023 56.007,59.68 56.007,58.023 C56.007,56.366 57.35,55.023 59.007,55.023 C60.664,55.023 62.007,56.366 62.007,58.023"/>
    <path fill="#475059" d="M205.007,120.023 C203.904,120.023 203.007,120.92 203.007,122.023 C203.007,123.126 203.904,124.023 205.007,124.023 C206.11,124.023 207.007,123.126 207.007,122.023 C207.007,120.92 206.11,120.023 205.007,120.023 Z M205.007,126.023 C202.801,126.023 201.007,124.229 201.007,122.023 C201.007,119.818 202.801,118.023 205.007,118.023 C207.213,118.023 209.007,119.818 209.007,122.023 C209.007,124.229 207.213,126.023 205.007,126.023 Z"/>
    <path fill="#FFD15D" d="M125.039,30.992 C125.039,32.096 124.143,32.992 123.039,32.992 C121.934,32.992 121.039,32.096 121.039,30.992 C121.039,29.887 121.934,28.992 123.039,28.992 C124.143,28.992 125.039,29.887 125.039,30.992"/>
    <polygon fill="#48515A" points="75.986 66.023 77.986 66.023 77.986 62.023 75.986 62.023"/>
    <polygon fill="#48515A" points="75.986 76.023 77.986 76.023 77.986 72.023 75.986 72.023"/>
    <polygon fill="#48515A" points="79.986 70.023 83.986 70.023 83.986 68.023 79.986 68.023"/>
    <polygon fill="#48515A" points="69.986 70.023 73.986 70.023 73.986 68.023 69.986 68.023"/>
    <path fill="#48515A" d="M143.132 164.148C142.029 164.148 141.132 165.045 141.132 166.148 141.132 167.251 142.029 168.148 143.132 168.148 144.235 168.148 145.132 167.251 145.132 166.148 145.132 165.045 144.235 164.148 143.132 164.148zM143.132 170.148C140.926 170.148 139.132 168.354 139.132 166.148 139.132 163.943 140.926 162.148 143.132 162.148 145.338 162.148 147.132 163.943 147.132 166.148 147.132 168.354 145.338 170.148 143.132 170.148zM153.132 174.148C152.029 174.148 151.132 175.045 151.132 176.148 151.132 177.251 152.029 178.148 153.132 178.148 154.235 178.148 155.132 177.251 155.132 176.148 155.132 175.045 154.235 174.148 153.132 174.148zM153.132 180.148C150.926 180.148 149.132 178.354 149.132 176.148 149.132 173.943 150.926 172.148 153.132 172.148 155.338 172.148 157.132 173.943 157.132 176.148 157.132 178.354 155.338 180.148 153.132 180.148z"/>
    <polyline fill="#48515A" points="141.838 178.857 140.424 177.443 154.424 163.443 155.838 164.857 141.838 178.857"/>
  </g>
</svg>
