<svg xmlns="http://www.w3.org/2000/svg" width="250" height="250" viewBox="0 0 250 250">
  <g fill="none" fill-rule="evenodd">
    <path fill="#5FE0ED" d="M193.914,98.288 C193.914,127.236 170.446,150.703 141.498,150.703 C112.55,150.703 89.083,127.236 89.083,98.288 C89.083,69.339 112.55,45.872 141.498,45.872 C170.446,45.872 193.914,69.339 193.914,98.288"/>
    <path fill="#5FE0ED" d="M141.498,46.872 C113.148,46.872 90.083,69.937 90.083,98.287 C90.083,126.638 113.148,149.703 141.498,149.703 C169.849,149.703 192.914,126.638 192.914,98.287 C192.914,69.937 169.849,46.872 141.498,46.872 Z M141.498,151.703 C112.045,151.703 88.083,127.741 88.083,98.287 C88.083,68.834 112.045,44.872 141.498,44.872 C170.952,44.872 194.914,68.834 194.914,98.287 C194.914,127.741 170.952,151.703 141.498,151.703 Z"/>
    <path fill="#F58E70" d="M110.003,221.013 C110.003,221.013 107.336,205.344 106.003,200.011 L105.995,200.011 C107.099,200.011 107.987,199.116 107.987,198.012 L107.987,193.011 L102.903,187.008 L97.987,193.011 L97.987,198.012 C97.987,199.116 98.891,200.011 99.995,200.011 L100.001,200.011 C98.668,205.344 96.002,221.013 96.002,221.013"/>
    <path fill="#48515A" d="M94.22,41.126 C93.67,41.086 93.26,40.606 93.3,40.056 C93.35,39.506 93.83,39.086 94.38,39.136 C94.93,39.176 95.34,39.656 95.3,40.206 C95.26,40.736 94.82,41.136 94.3,41.136 C94.27,41.136 94.25,41.126 94.22,41.126 Z M89.35,40.566 C89.23,40.036 89.56,39.496 90.1,39.376 C90.64,39.246 91.18,39.586 91.3,40.126 C91.42,40.666 91.08,41.196 90.54,41.326 C90.47,41.336 90.4,41.346 90.32,41.346 C89.87,41.346 89.45,41.036 89.35,40.566 Z M98,41.766 C97.46,41.636 97.14,41.096 97.27,40.556 C97.4,40.026 97.94,39.696 98.48,39.826 C99.01,39.956 99.34,40.496 99.21,41.036 C99.1,41.496 98.69,41.796 98.24,41.796 C98.16,41.796 98.08,41.786 98,41.766 Z M101.73,42.896 C101.21,42.716 100.94,42.146 101.12,41.626 C101.31,41.106 101.88,40.827 102.4,41.016 C102.92,41.196 103.19,41.776 103.01,42.296 C102.86,42.706 102.48,42.956 102.06,42.956 C101.95,42.956 101.84,42.936 101.73,42.896 Z M86.12,42.886 C85.73,42.496 85.73,41.866 86.12,41.476 C86.51,41.086 87.15,41.086 87.54,41.476 C87.93,41.866 87.93,42.496 87.54,42.886 C87.34,43.086 87.09,43.186 86.83,43.186 C86.58,43.186 86.32,43.086 86.12,42.886 Z M105.39,44.346 C104.88,44.126 104.65,43.536 104.87,43.036 C105.09,42.526 105.68,42.296 106.18,42.516 C106.69,42.736 106.92,43.326 106.7,43.836 C106.54,44.206 106.17,44.436 105.78,44.436 C105.65,44.436 105.51,44.406 105.39,44.346 Z M108.96,46.026 C108.47,45.776 108.27,45.176 108.51,44.686 C108.76,44.186 109.36,43.986 109.85,44.226 C110.35,44.476 110.55,45.076 110.3,45.576 C110.13,45.926 109.77,46.126 109.41,46.126 C109.26,46.126 109.11,46.096 108.96,46.026 Z M112.47,47.866 C111.98,47.596 111.81,46.986 112.07,46.506 C112.34,46.016 112.95,45.846 113.43,46.117 C113.92,46.376 114.09,46.986 113.83,47.466 C113.64,47.796 113.3,47.986 112.95,47.986 C112.78,47.986 112.62,47.946 112.47,47.866 Z M115.91,49.836 C115.43,49.556 115.28,48.946 115.56,48.466 C115.84,47.996 116.46,47.836 116.93,48.117 C117.41,48.406 117.56,49.016 117.28,49.496 C117.09,49.806 116.76,49.976 116.42,49.976 C116.24,49.976 116.07,49.936 115.91,49.836 Z M119.29,51.926 C118.82,51.626 118.68,51.006 118.98,50.546 C119.28,50.076 119.9,49.946 120.36,50.236 C120.83,50.536 120.96,51.156 120.67,51.616 C120.48,51.916 120.15,52.086 119.82,52.086 C119.64,52.086 119.45,52.036 119.29,51.926 Z M122.61,54.106 C122.15,53.796 122.03,53.176 122.34,52.716 C122.65,52.256 123.27,52.136 123.73,52.446 C124.19,52.756 124.31,53.376 124,53.836 C123.81,54.126 123.49,54.276 123.17,54.276 C122.98,54.276 122.78,54.226 122.61,54.106 Z M125.88,56.367 C125.43,56.046 125.33,55.426 125.65,54.976 C125.96,54.516 126.59,54.416 127.04,54.736 C127.49,55.056 127.6,55.676 127.28,56.126 C127.08,56.406 126.77,56.546 126.46,56.546 C126.26,56.546 126.06,56.486 125.88,56.367 Z M129.11,58.696 C128.67,58.366 128.57,57.746 128.9,57.296 C129.23,56.856 129.85,56.766 130.3,57.086 C130.74,57.416 130.84,58.046 130.51,58.486 C130.31,58.756 130.01,58.896 129.7,58.896 C129.5,58.896 129.29,58.827 129.11,58.696 Z M132.29,61.096 C131.85,60.756 131.77,60.136 132.11,59.696 C132.44,59.256 133.07,59.176 133.51,59.516 C133.95,59.846 134.03,60.476 133.69,60.916 C133.49,61.176 133.2,61.306 132.9,61.306 C132.68,61.306 132.47,61.236 132.29,61.096 Z M135.42,63.556 C134.99,63.206 134.92,62.576 135.27,62.146 C135.61,61.716 136.24,61.646 136.67,61.996 C137.1,62.336 137.17,62.966 136.83,63.396 C136.63,63.646 136.34,63.776 136.05,63.776 C135.83,63.776 135.61,63.706 135.42,63.556 Z M138.52,66.066 C138.09,65.716 138.03,65.086 138.38,64.656 C138.73,64.236 139.36,64.176 139.79,64.526 C140.22,64.876 140.28,65.506 139.92,65.936 C139.73,66.176 139.44,66.296 139.15,66.296 C138.93,66.296 138.7,66.226 138.52,66.066 Z M141.57,68.626 C141.15,68.266 141.1,67.636 141.46,67.216 C141.81,66.796 142.45,66.746 142.87,67.106 C143.29,67.466 143.34,68.096 142.98,68.516 C142.78,68.746 142.5,68.867 142.22,68.867 C141.99,68.867 141.76,68.786 141.57,68.626 Z M144.58,71.236 C144.17,70.876 144.13,70.246 144.49,69.826 C144.85,69.416 145.49,69.376 145.9,69.736 C146.31,70.106 146.35,70.736 145.99,71.146 C145.79,71.376 145.52,71.486 145.24,71.486 C145,71.486 144.77,71.406 144.58,71.236 Z M147.55,73.896 C147.14,73.526 147.11,72.896 147.48,72.486 C147.85,72.076 148.49,72.046 148.9,72.416 C149.31,72.786 149.34,73.416 148.97,73.827 C148.77,74.046 148.5,74.156 148.22,74.156 C147.98,74.156 147.74,74.066 147.55,73.896 Z M150.49,76.596 L150.48,76.596 C150.08,76.216 150.06,75.586 150.44,75.186 C150.81,74.776 151.45,74.756 151.85,75.136 C152.25,75.506 152.28,76.146 151.9,76.546 C151.7,76.756 151.43,76.867 151.17,76.867 C150.92,76.867 150.68,76.776 150.49,76.596 Z M153.38,79.336 C152.98,78.956 152.97,78.316 153.35,77.926 C153.73,77.526 154.37,77.516 154.77,77.896 C154.77,77.896 154.77,77.896 154.76,77.896 C155.16,78.276 155.18,78.906 154.79,79.306 C154.6,79.516 154.33,79.617 154.07,79.617 C153.82,79.617 153.57,79.526 153.38,79.336 Z M156.24,82.117 C155.84,81.726 155.84,81.096 156.23,80.706 C156.62,80.306 157.25,80.306 157.64,80.696 C158.04,81.086 158.04,81.716 157.65,82.106 C157.46,82.306 157.2,82.406 156.94,82.406 C156.69,82.406 156.43,82.306 156.24,82.117 Z M159.05,84.936 L159.06,84.936 C158.67,84.546 158.67,83.916 159.07,83.526 C159.46,83.136 160.09,83.136 160.48,83.536 C160.87,83.926 160.86,84.556 160.47,84.946 C160.27,85.136 160.02,85.236 159.77,85.236 C159.51,85.236 159.25,85.136 159.05,84.936 Z M161.83,87.796 C161.45,87.396 161.47,86.766 161.86,86.386 C162.26,85.996 162.9,86.016 163.28,86.416 C163.66,86.806 163.65,87.446 163.25,87.826 C163.05,88.016 162.8,88.106 162.56,88.106 C162.29,88.106 162.03,88.006 161.83,87.796 Z M164.57,90.696 C164.2,90.286 164.22,89.656 164.62,89.286 C165.03,88.906 165.66,88.926 166.04,89.326 C166.41,89.736 166.39,90.367 165.99,90.746 C165.79,90.926 165.55,91.016 165.3,91.016 C165.04,91.016 164.77,90.906 164.57,90.696 Z M167.27,93.626 C166.9,93.216 166.93,92.586 167.34,92.216 C167.75,91.846 168.38,91.876 168.75,92.286 C169.12,92.696 169.09,93.327 168.68,93.706 C168.49,93.876 168.25,93.956 168.01,93.956 C167.74,93.956 167.47,93.846 167.27,93.626 Z M169.92,96.606 C169.56,96.186 169.6,95.556 170.01,95.196 C170.43,94.827 171.06,94.867 171.43,95.286 C171.79,95.696 171.75,96.327 171.33,96.696 C171.14,96.867 170.91,96.946 170.67,96.946 C170.4,96.946 170.12,96.826 169.92,96.606 Z M172.53,99.617 C172.17,99.196 172.22,98.566 172.65,98.206 C173.06,97.846 173.7,97.896 174.05,98.326 C174.41,98.746 174.36,99.376 173.94,99.736 C173.75,99.896 173.52,99.966 173.29,99.966 C173.01,99.966 172.73,99.846 172.53,99.617 Z M175.09,102.676 C174.74,102.246 174.8,101.617 175.23,101.266 C175.65,100.916 176.28,100.976 176.64,101.396 C176.99,101.826 176.93,102.456 176.5,102.806 C176.31,102.966 176.09,103.036 175.86,103.036 C175.58,103.036 175.29,102.916 175.09,102.676 Z M177.6,105.766 C177.26,105.336 177.33,104.706 177.76,104.367 C178.19,104.016 178.82,104.086 179.16,104.526 C179.51,104.956 179.44,105.586 179.01,105.926 C178.82,106.076 178.6,106.146 178.38,106.146 C178.09,106.146 177.8,106.016 177.6,105.766 Z M180.05,108.906 C179.72,108.466 179.8,107.836 180.24,107.506 C180.68,107.166 181.31,107.246 181.64,107.686 C181.98,108.126 181.89,108.756 181.46,109.086 C181.27,109.226 181.06,109.296 180.85,109.296 C180.55,109.296 180.25,109.166 180.05,108.906 Z M182.45,112.086 C182.12,111.646 182.22,111.016 182.66,110.686 C183.1,110.367 183.73,110.456 184.06,110.896 C184.39,111.346 184.29,111.966 183.85,112.296 C183.67,112.426 183.46,112.496 183.25,112.496 C182.95,112.496 182.65,112.356 182.45,112.086 Z M184.78,115.316 C184.46,114.867 184.57,114.236 185.02,113.926 C185.47,113.606 186.09,113.716 186.41,114.156 C186.73,114.617 186.62,115.236 186.17,115.556 C186,115.676 185.8,115.736 185.6,115.736 C185.28,115.736 184.97,115.586 184.78,115.316 Z M187.04,118.596 L187.04,118.586 C186.73,118.136 186.85,117.506 187.31,117.206 C187.77,116.896 188.39,117.016 188.7,117.476 C189,117.936 188.88,118.556 188.42,118.867 C188.25,118.976 188.06,119.036 187.87,119.036 C187.54,119.036 187.23,118.876 187.04,118.596 Z M189.21,121.916 C188.91,121.456 189.05,120.836 189.52,120.536 C189.98,120.246 190.6,120.386 190.9,120.846 C191.19,121.316 191.06,121.936 190.59,122.226 C190.42,122.336 190.24,122.386 190.05,122.386 C189.72,122.386 189.4,122.216 189.21,121.916 Z M191.29,125.306 C191.01,124.826 191.16,124.216 191.64,123.936 C192.11,123.646 192.73,123.806 193.01,124.286 C193.29,124.756 193.13,125.367 192.66,125.656 C192.5,125.746 192.32,125.796 192.15,125.796 C191.81,125.796 191.48,125.617 191.29,125.306 Z M193.26,128.746 C192.99,128.266 193.17,127.656 193.66,127.386 C194.14,127.117 194.75,127.296 195.01,127.786 C195.28,128.266 195.1,128.876 194.62,129.146 C194.46,129.226 194.3,129.266 194.14,129.266 C193.78,129.266 193.44,129.076 193.26,128.746 Z M195.09,132.256 C194.85,131.756 195.05,131.156 195.54,130.916 C196.04,130.666 196.64,130.876 196.88,131.367 C196.88,131.367 196.88,131.367 196.89,131.367 C197.13,131.867 196.93,132.466 196.43,132.706 C196.29,132.776 196.14,132.816 195.99,132.816 C195.62,132.816 195.27,132.606 195.09,132.256 Z M196.75,135.836 C196.53,135.326 196.77,134.736 197.28,134.516 C197.78,134.306 198.37,134.536 198.59,135.046 C198.81,135.556 198.57,136.136 198.07,136.356 C197.94,136.416 197.8,136.436 197.67,136.436 C197.28,136.436 196.92,136.216 196.75,135.836 Z M198.19,139.496 C198,138.976 198.28,138.406 198.8,138.216 C199.32,138.036 199.89,138.316 200.07,138.836 C200.26,139.356 199.98,139.926 199.46,140.106 C199.35,140.146 199.24,140.166 199.13,140.166 C198.72,140.166 198.33,139.906 198.19,139.496 Z M199.29,143.226 L199.3,143.226 C199.17,142.686 199.5,142.156 200.04,142.026 C200.57,141.896 201.11,142.226 201.24,142.766 C201.37,143.306 201.04,143.846 200.5,143.966 C200.42,143.986 200.35,143.996 200.27,143.996 C199.82,143.996 199.41,143.686 199.29,143.226 Z M199.9,147.006 C199.86,146.456 200.28,145.976 200.83,145.946 C201.38,145.906 201.86,146.326 201.9,146.876 C201.93,147.426 201.51,147.906 200.96,147.936 C200.94,147.946 200.92,147.946 200.9,147.946 C200.38,147.946 199.93,147.536 199.9,147.006 Z M200.36,151.886 C199.83,151.746 199.5,151.206 199.64,150.666 C199.78,150.136 200.32,149.806 200.85,149.946 C201.39,150.076 201.72,150.626 201.58,151.156 C201.46,151.617 201.06,151.916 200.61,151.916 C200.53,151.916 200.45,151.906 200.36,151.886 Z"/>
    <path fill="#DFE0E0" d="M87.987,172.017 L87.987,176.386 L102.935,184.886 L117.894,176.636 L117.987,168.639 L117.987,161.898 C117.987,161.332 119.098,160.726 119.625,160.114 C119.445,160.271 119.248,160.429 119.1,160.587 C116.997,162.848 113.796,165.049 111.637,166.893 C109.929,168.351 107.756,169.011 105.511,169.011 L99.019,169.011 C96.773,169.011 94.613,168.351 92.905,166.893 C90.844,165.133 87.845,162.977 85.747,160.81 C85.684,160.745 85.61,160.723 85.542,160.658 C86.172,161.328 87.074,162.028 87.841,162.704 C87.824,162.712 87.987,162.741 87.987,162.761 L87.987,172.017"/>
    <path fill="#48515A" d="M87.986,177.012 C87.434,177.012 86.986,176.564 86.986,176.012 L86.986,163.012 C86.986,162.459 87.434,162.012 87.986,162.012 C88.539,162.012 88.986,162.459 88.986,163.012 L88.986,176.012 C88.986,176.564 88.539,177.012 87.986,177.012"/>
    <path fill="#48515A" d="M117.986 177.012C117.434 177.012 116.986 176.564 116.986 176.012L116.986 161.564 117.165 161.307C117.586 160.7 118.099 160.112 118.595 159.542 119.272 158.766 119.971 157.964 120.2 157.354L126.285 144.714 133.186 141.234 134.761 133.364C134.758 132.75 134.509 132.145 134.071 131.694 133.643 131.254 133.088 131.012 132.508 131.012L129.934 131.012 130.138 129.84C130.733 126.419 130.986 123.978 130.986 121.68L130.976 120.385C130.998 116.65 130.229 112.925 128.746 109.517L128.745 109.517 128.477 108.927C128.327 108.594 128.167 108.263 128.005 107.937 126.145 104.188 123.408 100.824 120.091 98.208 115.09 94.266 109.067 92.158 102.672 92.115 95.226 92.05 88.156 95.011 82.718 100.412 77.169 105.924 73.986 113.501 73.986 121.201L73.986 121.68C73.986 124.357 74.38 127.19 74.782 129.863L74.956 131.012 72.58 131.012C71.339 131.012 70.284 132.071 70.218 133.351L72.456 141.278 78.465 144.727 84.406 157.244C85.203 159.373 88.599 162.108 91.327 164.306 92.126 164.95 92.888 165.564 93.554 166.133 94.994 167.362 96.883 168.012 99.019 168.012L105.986 168.012C106.539 168.012 106.986 168.459 106.986 169.012 106.986 169.564 106.539 170.012 105.986 170.012L99.019 170.012C96.401 170.012 94.062 169.196 92.256 167.653 91.603 167.096 90.855 166.494 90.072 165.863 87.002 163.389 83.521 160.586 82.565 158.022L76.927 146.15 70.753 142.606 68.215 133.478C68.215 131.057 70.214 129.012 72.58 129.012L72.634 129.012C72.287 126.608 71.986 124.106 71.986 121.68L71.986 121.201C71.986 112.972 75.384 104.878 81.309 98.993 87.078 93.263 94.591 90.115 102.484 90.115 102.551 90.115 102.618 90.115 102.686 90.115 109.529 90.162 115.976 92.417 121.33 96.638 124.878 99.435 127.805 103.035 129.796 107.049 129.874 107.204 129.95 107.361 130.026 107.517L130.027 107.517 130.121 107.717C130.141 107.759 130.161 107.801 130.18 107.843L130.299 108.096C132.076 111.924 133.001 116.157 132.974 120.337L132.985 120.504 132.986 121.68C132.986 123.824 132.78 126.065 132.305 129.012L132.508 129.012C133.633 129.012 134.697 129.469 135.505 130.301 136.336 131.155 136.793 132.321 136.759 133.497L136.74 133.665 134.955 142.581 127.792 146.193 122.037 158.14C121.716 159.006 120.932 159.905 120.103 160.856 119.715 161.301 119.316 161.759 118.986 162.2L118.986 176.012C118.986 176.564 118.539 177.012 117.986 177.012M38.912 221.02L36.912 221.004 37.067 201.675C37.067 195.735 40.84 193.837 46.169 191.804L77.31 181.192 82.803 171.012 86.986 171.012 86.986 173.012 83.996 173.012 78.697 182.831 46.848 193.685C41.569 195.699 39.067 197.149 39.067 201.682L38.912 221.02"/>
    <path fill="#48515A" d="M103.004 186.158L87.145 177.277C86.663 177.007 86.491 176.397 86.761 175.915 87.03 175.434 87.641 175.263 88.122 175.532L103.004 183.866 117.302 175.858C117.784 175.589 118.394 175.761 118.663 176.242 118.933 176.724 118.761 177.333 118.279 177.603L103.004 186.158M168.995 221.015L166.995 221.009 167.058 201.8C167.058 197.009 164.053 195.557 159.105 193.736L127.255 182.925 121.204 173.012 117.986 173.012 117.986 171.012 122.326 171.012 128.585 181.264 159.772 191.851C165.044 193.79 169.058 195.748 169.058 201.803L168.995 221.015"/>
    <path fill="#48515A" d="M94.003 198.012C93.765 198.012 93.525 197.927 93.335 197.755 92.924 197.386 92.891 196.753 93.26 196.343L103.004 185.517 112.747 196.343C113.116 196.753 113.083 197.386 112.672 197.755 112.262 198.125 111.63 198.09 111.26 197.68L103.004 188.506 94.747 197.68C94.549 197.9 94.277 198.012 94.003 198.012M181.986 100.012L127.986 100.012C127.434 100.012 126.986 99.564 126.986 99.011 126.986 98.459 127.434 98.011 127.986 98.011L181.986 98.011C182.539 98.011 182.986 98.459 182.986 99.011 182.986 99.564 182.539 100.012 181.986 100.012M141.004 151.703C140.451 151.703 140.004 151.255 140.004 150.703 140.004 150.151 140.451 149.703 141.004 149.703 145.879 149.703 150.692 147.333 154.923 142.849 155.302 142.447 155.935 142.429 156.337 142.809 156.738 143.188 156.757 143.821 156.378 144.222 151.759 149.116 146.443 151.703 141.004 151.703"/>
    <path fill="#48515A" d="M160.579 137.958C160.403 137.958 160.225 137.911 160.063 137.814 159.59 137.528 159.439 136.913 159.724 136.441 165.621 126.683 169.004 112.777 169.004 98.287 169.004 69.937 156.443 46.872 141.004 46.872 127.478 46.872 115.894 64.603 113.459 89.031 113.405 89.581 112.917 89.986 112.365 89.927 111.815 89.873 111.414 89.383 111.469 88.833 114.008 63.361 126.429 44.872 141.004 44.872 157.546 44.872 171.004 68.834 171.004 98.287 171.004 113.131 167.516 127.414 161.436 137.475 161.248 137.786 160.918 137.958 160.579 137.958M185.99 100.016C185.72 100.016 185.46 99.906 185.28 99.716 185.19 99.626 185.11 99.516 185.06 99.396 185.01 99.266 184.99 99.146 184.99 99.006 184.99 98.876 185.01 98.746 185.06 98.626 185.11 98.506 185.19 98.396 185.28 98.306 185.51 98.076 185.85 97.966 186.18 98.036 186.25 98.046 186.31 98.066 186.37 98.086 186.43 98.117 186.49 98.146 186.54 98.176 186.6 98.216 186.65 98.256 186.69 98.306 186.79 98.396 186.86 98.506 186.91 98.626 186.96 98.746 186.99 98.876 186.99 99.006 186.99 99.146 186.96 99.266 186.91 99.396 186.86 99.516 186.79 99.626 186.69 99.716 186.51 99.906 186.25 100.016 185.99 100.016"/>
    <path fill="#48515A" d="M192.703 157.287C188.607 157.287 183.27 155.736 176.858 152.65 166.512 147.67 153.799 138.832 141.062 127.766 140.645 127.404 140.6 126.773 140.963 126.356 141.323 125.939 141.955 125.893 142.373 126.257 168.099 148.607 191.545 160.056 198.123 153.477 198.514 153.086 199.147 153.086 199.537 153.477 199.928 153.867 199.928 154.5 199.537 154.891 197.938 156.491 195.639 157.287 192.703 157.287M86.003 56.599C85.575 56.599 85.179 56.323 85.047 55.892 82.967 49.121 83.33 44.271 86.124 41.476 86.515 41.086 87.148 41.086 87.538 41.476 87.929 41.866 87.929 42.5 87.538 42.89 85.34 45.089 85.14 49.382 86.959 55.305 87.121 55.833 86.825 56.393 86.297 56.555 86.199 56.585 86.1 56.599 86.003 56.599M87 60.016C86.87 60.016 86.74 59.986 86.62 59.936 86.5 59.886 86.39 59.806 86.3 59.716 86.11 59.536 86 59.276 86 59.016 86 58.876 86.03 58.756 86.08 58.626 86.13 58.506 86.2 58.396 86.3 58.306 86.39 58.216 86.5 58.136 86.62 58.086 86.99 57.936 87.43 58.026 87.71 58.306 87.8 58.396 87.87 58.506 87.93 58.626 87.98 58.756 88 58.876 88 59.016 88 59.276 87.9 59.536 87.71 59.716 87.52 59.906 87.27 60.016 87 60.016M138.67 125.596C138.6 125.596 138.54 125.586 138.47 125.576 138.41 125.566 138.35 125.546 138.29 125.516 138.23 125.496 138.17 125.466 138.11 125.426 138.06 125.386 138.01 125.346 137.96 125.306 137.92 125.256 137.87 125.206 137.84 125.146 137.8 125.096 137.77 125.036 137.75 124.976 137.72 124.916 137.7 124.856 137.69 124.786 137.68 124.726 137.67 124.656 137.67 124.596 137.67 124.466 137.7 124.336 137.75 124.216 137.8 124.086 137.87 123.976 137.96 123.886 138.24 123.606 138.69 123.516 139.05 123.666 139.18 123.726 139.28 123.796 139.38 123.886 139.47 123.976 139.54 124.086 139.59 124.216 139.64 124.336 139.67 124.466 139.67 124.596 139.67 124.856 139.56 125.117 139.38 125.306 139.19 125.486 138.93 125.596 138.67 125.596"/>
    <path fill="#FFD15D" d="M58.987,115.011 L58.987,110.377 C58.987,107.898 59.995,105.567 61.785,103.852 C65.002,100.768 66.979,96.436 66.979,91.627 C66.979,81.946 58.857,74.158 49.062,74.681 C40.367,75.145 33.303,82.365 33.023,91.068 C32.859,96.141 34.876,100.724 38.266,103.93 C39.991,105.563 40.987,107.781 40.987,110.156 L40.987,115.011"/>
    <path fill="#48515A" d="M50.171,125.861 C49.635,125.861 49.192,125.437 49.172,124.897 C49.152,124.345 49.584,123.882 50.136,123.862 L53.96,123.725 C54.901,123.614 55.857,123.155 56.574,122.438 L56.874,122.145 C57.585,121.309 57.986,120.271 57.986,119.243 L57.986,115.012 C57.986,114.459 58.434,114.012 58.986,114.012 C59.539,114.012 59.986,114.459 59.986,115.012 L59.986,119.243 C59.986,120.921 59.269,122.601 58.018,123.852 L57.675,124.145 C56.683,125.012 55.433,125.566 54.11,125.719 L50.207,125.861 C50.195,125.861 50.183,125.861 50.171,125.861"/>
    <path fill="#48515A" d="M61.986,116.012 L37.986,116.012 C37.434,116.012 36.986,115.564 36.986,115.012 C36.986,114.459 37.434,114.012 37.986,114.012 L61.986,114.012 C62.539,114.012 62.986,114.459 62.986,115.012 C62.986,115.564 62.539,116.012 61.986,116.012"/>
    <path fill="#48515A" d="M51.331 126.012L46.606 126.012C44.954 126.012 43.265 125.27 41.972 123.977L41.759 123.764 41.731 123.627C40.619 122.408 39.986 120.826 39.986 119.243L39.986 115.012C39.986 114.459 40.434 114.012 40.986 114.012 41.539 114.012 41.986 114.459 41.986 115.012L41.986 119.243C41.986 120.4 42.487 121.565 43.361 122.438L43.573 122.651 43.596 122.762C44.474 123.549 45.581 124.012 46.606 124.012L49.395 124.012C49.521 123.901 49.676 123.821 49.852 123.785 50.395 123.672 50.922 124.023 51.033 124.563L51.331 126.012M39.99 84.298C39.762 84.298 39.533 84.221 39.346 84.062 38.924 83.706 38.87 83.076 39.226 82.654L39.379 82.474C39.74 82.058 40.372 82.012 40.79 82.375 41.207 82.737 41.251 83.369 40.889 83.786L40.755 83.943C40.557 84.177 40.275 84.298 39.99 84.298M59.141 83.463C58.885 83.463 58.63 83.365 58.434 83.17 56.167 80.904 53.153 79.656 49.948 79.656 47.648 79.656 45.414 80.308 43.488 81.54 43.022 81.838 42.404 81.702 42.107 81.237 41.809 80.772 41.944 80.154 42.41 79.856 44.658 78.417 47.265 77.656 49.948 77.656 53.688 77.656 57.204 79.112 59.848 81.756 60.239 82.146 60.239 82.78 59.848 83.17 59.653 83.365 59.397 83.463 59.141 83.463"/>
    <polyline fill="#48515A" points="53.986 115.012 51.986 115.012 51.986 104.45 57.986 90.451 57.986 89.011 59.986 89.011 59.986 90.861 53.986 104.861 53.986 115.012"/>
    <polyline fill="#48515A" points="47.986 115.012 45.986 115.012 45.986 104.861 39.986 90.861 39.986 89.011 41.986 89.011 41.986 90.451 47.986 104.45 47.986 115.012"/>
    <path fill="#48515A" d="M44.986 91.011L46.986 91.011 46.986 89.011 44.986 89.011 44.986 91.011zM48.986 91.011L50.986 91.011 50.986 89.011 48.986 89.011 48.986 91.011zM52.986 91.011L54.986 91.011 54.986 89.011 52.986 89.011 52.986 91.011zM55.508 180.012C51.912 180.012 48.986 177.096 48.986 173.512L48.986 125.012C48.986 124.459 49.434 124.012 49.986 124.012 50.539 124.012 50.986 124.459 50.986 125.012L50.986 173.512C50.986 175.993 53.014 178.012 55.507 178.012 57.977 178.012 59.986 175.993 59.986 173.512L59.986 154.511C59.986 150.929 62.904 148.014 66.492 148.012 66.494 148.012 66.495 148.012 66.497 148.012 70.076 148.014 72.986 150.929 72.986 154.511L72.986 159.012C72.986 159.564 72.539 160.012 71.986 160.012 71.434 160.012 70.986 159.564 70.986 159.012L70.986 154.511C70.986 152.031 68.972 150.013 66.494 150.012 64.008 150.013 61.986 152.031 61.986 154.511L61.986 173.512C61.986 177.096 59.08 180.012 55.508 180.012M72.01 164.016C71.74 164.016 71.49 163.906 71.3 163.716 71.21 163.626 71.13 163.516 71.08 163.396 71.03 163.266 71.01 163.146 71.01 163.016 71.01 162.876 71.03 162.746 71.08 162.626 71.13 162.506 71.21 162.396 71.3 162.306 71.67 161.936 72.34 161.936 72.71 162.306 72.81 162.396 72.88 162.506 72.93 162.626 72.98 162.746 73.01 162.876 73.01 163.016 73.01 163.146 72.98 163.266 72.93 163.396 72.88 163.516 72.81 163.626 72.71 163.716 72.67 163.766 72.62 163.806 72.56 163.846 72.51 163.876 72.45 163.906 72.39 163.936 72.33 163.956 72.27 163.976 72.2 163.996 72.14 164.006 72.07 164.016 72.01 164.016M72.01 168.016C71.74 168.016 71.49 167.906 71.3 167.716 71.11 167.536 71.01 167.276 71.01 167.006 71.01 166.746 71.11 166.486 71.3 166.306 71.67 165.936 72.34 165.936 72.71 166.306 72.9 166.486 73.01 166.746 73.01 167.006 73.01 167.276 72.9 167.536 72.71 167.716 72.53 167.906 72.27 168.016 72.01 168.016M72.01 172.006C71.74 172.006 71.49 171.906 71.3 171.716 71.11 171.536 71.01 171.276 71.01 171.016 71.01 170.746 71.11 170.486 71.3 170.306 71.67 169.936 72.34 169.926 72.71 170.306 72.9 170.486 73.01 170.746 73.01 171.016 73.01 171.076 73 171.146 72.99 171.206 72.97 171.266 72.96 171.336 72.93 171.396 72.91 171.456 72.87 171.516 72.84 171.566 72.8 171.626 72.76 171.676 72.71 171.716 72.53 171.906 72.27 172.006 72.01 172.006M172.986 192.012L214.986 192.012 214.986 166.012 172.986 166.012 172.986 192.012zM170.986 194.012L216.986 194.012 216.986 164.012 170.986 164.012 170.986 194.012z"/>
    <path fill="#48515A" d="M193.792 180.155C193.606 180.155 193.419 180.102 193.255 179.998L177.131 169.722C176.665 169.426 176.528 168.807 176.825 168.342 177.122 167.876 177.742 167.739 178.206 168.036L193.79 177.968 208.739 168.377C209.203 168.08 209.823 168.214 210.121 168.679 210.42 169.144 210.284 169.762 209.819 170.061L194.332 179.996C194.168 180.102 193.98 180.155 193.792 180.155M212.531 190.05C212.245 190.05 211.961 189.927 211.763 189.69L202.839 178.984C202.486 178.559 202.543 177.929 202.967 177.575 203.392 177.221 204.022 177.279 204.376 177.703L213.299 188.409C213.652 188.834 213.595 189.464 213.171 189.818 212.984 189.973 212.757 190.05 212.531 190.05M175.052 190.05C174.827 190.05 174.6 189.973 174.413 189.818 173.988 189.464 173.931 188.834 174.285 188.409L183.208 177.703C183.562 177.28 184.192 177.221 184.616 177.575 185.041 177.929 185.098 178.559 184.744 178.984L175.821 189.69C175.623 189.927 175.339 190.05 175.052 190.05"/>
    <polygon fill="#48515A" points="194.986 210.012 196.986 210.012 196.986 196.012 194.986 196.012"/>
    <path fill="#48515A" d="M195.64,212.896 C195.38,212.896 195.12,212.786 194.94,212.596 C194.89,212.556 194.85,212.506 194.81,212.446 C194.78,212.396 194.74,212.336 194.72,212.276 C194.69,212.216 194.67,212.156 194.66,212.086 C194.65,212.026 194.64,211.956 194.64,211.896 C194.64,211.766 194.67,211.636 194.72,211.516 C194.77,211.386 194.84,211.276 194.94,211.186 C195.31,210.816 195.98,210.816 196.35,211.186 C196.44,211.276 196.52,211.386 196.57,211.516 C196.62,211.636 196.64,211.766 196.64,211.896 C196.64,211.956 196.64,212.026 196.62,212.086 C196.61,212.156 196.59,212.216 196.57,212.276 C196.54,212.336 196.51,212.396 196.47,212.446 C196.44,212.506 196.4,212.556 196.35,212.596 C196.16,212.786 195.91,212.896 195.64,212.896"/>
    <polygon fill="#48515A" points="202.986 201.012 204.986 201.012 204.986 196.012 202.986 196.012"/>
    <path fill="#48515A" d="M204.33,204.196 C204.27,204.196 204.2,204.196 204.14,204.176 C204.08,204.166 204.01,204.146 203.95,204.126 C203.89,204.096 203.83,204.066 203.78,204.026 C203.72,203.996 203.67,203.956 203.63,203.906 C203.44,203.716 203.34,203.466 203.34,203.196 C203.34,203.066 203.36,202.936 203.41,202.816 C203.46,202.696 203.54,202.586 203.63,202.496 C204,202.117 204.67,202.117 205.04,202.496 C205.23,202.676 205.34,202.936 205.34,203.196 C205.34,203.466 205.23,203.716 205.04,203.906 C205,203.956 204.94,203.996 204.89,204.026 C204.84,204.066 204.78,204.096 204.72,204.126 C204.66,204.146 204.59,204.166 204.53,204.176 C204.47,204.196 204.4,204.196 204.33,204.196"/>
    <polygon fill="#48515A" points="185.986 204.012 187.986 204.012 187.986 196.012 185.986 196.012"/>
    <path fill="#48515A" d="M186.95,207.096 C186.88,207.096 186.81,207.086 186.75,207.076 C186.69,207.066 186.62,207.046 186.56,207.016 C186.5,206.996 186.44,206.966 186.39,206.926 C186.34,206.886 186.28,206.846 186.24,206.806 C186.05,206.617 185.95,206.356 185.95,206.096 C185.95,205.966 185.97,205.836 186.02,205.716 C186.07,205.586 186.15,205.486 186.24,205.386 C186.61,205.016 187.28,205.016 187.65,205.386 C187.74,205.486 187.82,205.586 187.87,205.716 C187.92,205.836 187.95,205.966 187.95,206.096 C187.95,206.356 187.84,206.617 187.65,206.806 C187.61,206.846 187.55,206.886 187.5,206.926 C187.45,206.966 187.39,206.996 187.33,207.016 C187.27,207.046 187.2,207.066 187.14,207.076 C187.08,207.086 187.01,207.096 186.95,207.096"/>
    <path fill="#475059" d="M186.291,61.398 C186.125,61.906 186.167,62.449 186.41,62.926 C186.652,63.403 187.066,63.757 187.575,63.923 C188.084,64.089 188.627,64.046 189.104,63.804 C189.572,63.566 189.922,63.163 190.092,62.666 C190.258,62.158 190.215,61.614 189.973,61.137 C189.731,60.66 189.317,60.306 188.808,60.14 C188.3,59.975 187.756,60.016 187.279,60.26 C186.81,60.498 186.46,60.901 186.291,61.398 Z M188.2,66.024 C187.783,66.024 187.363,65.957 186.955,65.824 C185.938,65.492 185.111,64.785 184.627,63.832 C184.147,62.887 184.06,61.813 184.38,60.805 C184.712,59.788 185.42,58.961 186.373,58.476 C187.325,57.991 188.411,57.906 189.428,58.239 C190.444,58.571 191.271,59.278 191.756,60.231 C192.236,61.176 192.323,62.25 192.002,63.259 L192.003,63.259 C191.671,64.276 190.963,65.103 190.01,65.587 C189.44,65.877 188.822,66.023 188.2,66.024 Z"/>
    <path fill="#475059" d="M187.15,77.33 L189.222,77.332 L189.224,76.1 C189.225,74.536 190.188,73.214 191.677,72.731 C193.166,72.251 194.721,72.757 195.639,74.023 L196.362,75.021 L198.041,73.805 L197.317,72.807 C196.399,71.54 196.4,69.905 197.322,68.639 C198.243,67.374 199.799,66.871 201.287,67.356 L202.458,67.738 L203.08,65.831 L201.908,65.449 C200.421,64.965 199.461,63.64 199.462,62.076 C199.463,60.511 200.426,59.188 201.915,58.706 L203.087,58.327 L202.448,56.355 L201.276,56.734 C199.789,57.217 198.233,56.71 197.314,55.442 C196.395,54.176 196.397,52.54 197.318,51.275 L198.043,50.279 L196.368,49.059 L195.643,50.055 C194.721,51.32 193.165,51.824 191.677,51.339 C190.19,50.854 189.23,49.53 189.231,47.965 L189.232,46.733 L187.159,46.731 L187.158,47.963 C187.157,49.528 186.194,50.85 184.705,51.332 C183.217,51.812 181.661,51.307 180.743,50.04 L180.02,49.043 L178.341,50.26 L179.065,51.257 C179.983,52.524 179.982,54.16 179.061,55.425 C178.14,56.69 176.585,57.195 175.095,56.709 L173.924,56.327 L173.304,58.231 L174.475,58.613 C175.963,59.098 176.922,60.423 176.921,61.988 C176.919,63.552 175.956,64.874 174.468,65.356 L173.296,65.736 L173.934,67.707 L175.106,67.328 C176.596,66.845 178.15,67.353 179.068,68.62 C179.987,69.887 179.985,71.523 179.065,72.787 L178.339,73.783 L180.015,75.004 L180.739,74.008 C181.662,72.743 183.217,72.239 184.705,72.724 C186.192,73.209 187.152,74.533 187.151,76.098 L187.15,77.33 Z M191.22,79.334 L185.148,79.328 L185.151,76.096 C185.152,75.269 184.601,74.794 184.085,74.626 C183.569,74.457 182.844,74.515 182.356,75.185 L180.454,77.798 L175.545,74.223 L177.448,71.61 C177.935,70.941 177.768,70.233 177.449,69.794 C177.13,69.354 176.509,68.976 175.722,69.23 L172.647,70.226 L170.777,64.448 L173.852,63.453 C174.639,63.199 174.921,62.528 174.921,61.985 C174.921,61.442 174.642,60.771 173.855,60.514 L170.782,59.512 L172.643,53.805 L175.715,54.807 C176.504,55.064 177.124,54.686 177.443,54.247 C177.763,53.809 177.931,53.101 177.445,52.431 L175.548,49.814 L180.465,46.25 L182.362,48.867 C182.848,49.537 183.573,49.596 184.089,49.43 C184.606,49.262 185.157,48.788 185.158,47.961 L185.161,44.729 L191.234,44.735 L191.231,47.967 C191.23,48.795 191.781,49.269 192.297,49.437 C192.812,49.606 193.538,49.548 194.025,48.878 L195.927,46.265 L200.837,49.839 L198.935,52.452 C198.448,53.121 198.614,53.829 198.933,54.268 C199.252,54.708 199.874,55.086 200.66,54.832 L203.735,53.836 L205.606,59.613 L202.531,60.609 C201.744,60.864 201.463,61.535 201.462,62.077 C201.462,62.62 201.741,63.292 202.528,63.548 L205.601,64.55 L203.739,70.259 L200.667,69.257 C199.88,69.002 199.258,69.378 198.939,69.817 C198.619,70.256 198.451,70.963 198.937,71.633 L200.834,74.25 L195.917,77.814 L194.02,75.197 C193.535,74.528 192.81,74.467 192.293,74.634 C191.776,74.802 191.225,75.275 191.224,76.102 L191.22,79.334 Z"/>
    <path fill="#F58E70" d="M182.366,60.132 C181.342,63.335 183.102,66.78 186.303,67.824 C189.495,68.867 192.938,67.132 194.008,63.956 C195.051,60.747 193.29,57.286 190.08,56.239 C188.525,55.732 186.863,55.861 185.404,56.602 C183.956,57.339 182.878,58.592 182.366,60.132 Z M188.211,70.13 C187.363,70.13 186.512,69.996 185.683,69.725 C183.619,69.052 181.941,67.616 180.957,65.681 C179.984,63.766 179.806,61.59 180.454,59.546 L180.454,59.545 C180.458,59.535 180.461,59.524 180.464,59.513 C180.468,59.502 180.472,59.49 180.476,59.479 C181.89,55.261 186.462,52.956 190.7,54.338 C194.939,55.72 197.273,60.276 195.928,64.518 L195.929,64.518 C195.256,66.582 193.819,68.26 191.884,69.244 C190.727,69.832 189.473,70.13 188.211,70.13 Z"/>
    <path fill="#FFD15D" d="M62.007,58.011 C62.007,59.668 60.664,61.011 59.007,61.011 C57.35,61.011 56.007,59.668 56.007,58.011 C56.007,56.354 57.35,55.011 59.007,55.011 C60.664,55.011 62.007,56.354 62.007,58.011"/>
    <path fill="#475059" d="M205.007,120.012 C203.904,120.012 203.007,120.908 203.007,122.012 C203.007,123.115 203.904,124.012 205.007,124.012 C206.11,124.012 207.007,123.115 207.007,122.012 C207.007,120.908 206.11,120.012 205.007,120.012 Z M205.007,126.012 C202.801,126.012 201.007,124.217 201.007,122.012 C201.007,119.806 202.801,118.012 205.007,118.012 C207.213,118.012 209.007,119.806 209.007,122.012 C209.007,124.217 207.213,126.012 205.007,126.012 Z"/>
    <path fill="#FFD15D" d="M125.039,30.98 C125.039,32.085 124.143,32.98 123.039,32.98 C121.934,32.98 121.039,32.085 121.039,30.98 C121.039,29.876 121.934,28.98 123.039,28.98 C124.143,28.98 125.039,29.876 125.039,30.98"/>
    <polygon fill="#48515A" points="75.986 66.012 77.986 66.012 77.986 62.012 75.986 62.012"/>
    <polygon fill="#48515A" points="75.986 76.011 77.986 76.011 77.986 72.011 75.986 72.011"/>
    <polygon fill="#48515A" points="79.986 70.011 83.986 70.011 83.986 68.011 79.986 68.011"/>
    <polygon fill="#48515A" points="69.986 70.011 73.986 70.011 73.986 68.011 69.986 68.011"/>
    <path fill="#48515A" d="M143.132 164.137C142.029 164.137 141.132 165.033 141.132 166.137 141.132 167.24 142.029 168.137 143.132 168.137 144.235 168.137 145.132 167.24 145.132 166.137 145.132 165.033 144.235 164.137 143.132 164.137zM143.132 170.137C140.926 170.137 139.132 168.342 139.132 166.137 139.132 163.931 140.926 162.137 143.132 162.137 145.338 162.137 147.132 163.931 147.132 166.137 147.132 168.342 145.338 170.137 143.132 170.137zM153.132 174.137C152.029 174.137 151.132 175.033 151.132 176.137 151.132 177.24 152.029 178.137 153.132 178.137 154.235 178.137 155.132 177.24 155.132 176.137 155.132 175.033 154.235 174.137 153.132 174.137zM153.132 180.137C150.926 180.137 149.132 178.342 149.132 176.137 149.132 173.931 150.926 172.137 153.132 172.137 155.338 172.137 157.132 173.931 157.132 176.137 157.132 178.342 155.338 180.137 153.132 180.137z"/>
    <polyline fill="#48515A" points="141.838 178.845 140.424 177.431 154.424 163.431 155.838 164.845 141.838 178.845"/>
  </g>
</svg>
