<svg xmlns="http://www.w3.org/2000/svg" width="250" height="250" viewBox="0 0 250 250">
  <g fill="none" fill-rule="evenodd">
    <path fill="#F58E70" d="M187.882,170.883 C187.882,170.883 184.676,135.245 184.103,132.952 C184.578,132.953 184.963,132.568 184.963,132.093 L184.963,129.944 L182.778,127.364 L180.665,129.944 L180.665,132.093 C180.665,132.568 181.05,132.953 181.525,132.952 C180.952,135.245 177.882,170.883 177.882,170.883 L182.883,176.883 L187.882,170.883"/>
    <polyline fill="#48515A" points="164.571 220.857 164.506 182.714 162.504 182.714 162.504 143.881 164.504 143.881 164.504 180.714 166.502 180.714 166.571 220.853 164.571 220.857"/>
    <polyline fill="#48515A" points="208.296 188.881 199.883 188.881 199.883 186.881 207.468 186.881 208.883 185.466 208.883 132.519 192.826 125.031 190.315 120.919 189.261 120.919 189.261 118.919 191.438 118.919 194.219 123.473 210.883 131.244 210.883 186.294 208.296 188.881"/>
    <path fill="#DFE0E0" d="M176.821,120.338 L176.821,122.074 L182.833,125.452 L188.793,122.174 L188.847,118.996 L188.847,116.318 C189.075,116.093 189.308,115.852 189.517,115.609 C189.446,115.671 189.377,115.734 189.319,115.797 C188.483,116.695 187.216,117.638 186.358,118.371 C185.679,118.95 184.821,119.271 183.929,119.281 L181.349,119.281 C180.457,119.271 179.599,118.95 178.92,118.371 C178.101,117.671 176.91,116.781 176.076,115.92 C176.051,115.894 176.022,115.868 175.995,115.842 C176.245,116.108 176.531,116.378 176.836,116.646 C176.829,116.65 176.821,116.653 176.821,116.661 L176.821,120.338"/>
    <path fill="#48515A" d="M176.821,123.025 C176.269,123.025 175.821,122.577 175.821,122.025 L175.821,116.661 C175.821,116.109 176.269,115.661 176.821,115.661 C177.374,115.661 177.821,116.109 177.821,116.661 L177.821,122.025 C177.821,122.577 177.374,123.025 176.821,123.025"/>
    <path fill="#48515A" d="M188.807 122.926C188.254 122.926 187.807 122.478 187.807 121.926L187.807 115.891 188.104 115.597C188.329 115.376 189.013 114.702 189.162 114.305L191.733 109.052 194.393 107.721 194.945 104.982C194.934 104.91 194.897 104.859 194.865 104.826 194.833 104.793 194.764 104.737 194.656 104.737L192.916 104.737 193.12 103.566C193.331 102.352 193.438 101.266 193.438 100.338L193.439 99.791C193.449 98.332 193.129 96.857 192.512 95.529 192.45 95.391 192.391 95.267 192.33 95.144 191.63 93.732 190.602 92.466 189.358 91.485 187.478 90.003 185.215 89.21 182.814 89.194 180.063 89.191 177.373 90.279 175.332 92.307 173.24 94.384 172.041 97.242 172.041 100.148L172.041 100.338C172.041 101.285 172.134 102.378 172.316 103.588L172.489 104.737 170.845 104.737C170.691 104.737 170.562 104.84 170.521 104.981L171.308 107.734 173.647 109.085 176.089 114.246C176.373 115.001 177.792 116.155 178.731 116.918 179.032 117.163 179.318 117.396 179.569 117.611 180.067 118.035 180.703 118.274 181.361 118.281L183.935 118.281C184.487 118.281 184.935 118.729 184.935 119.281 184.935 119.833 184.487 120.281 183.935 120.281L181.35 120.281C180.213 120.268 179.123 119.86 178.271 119.131 178.03 118.926 177.756 118.703 177.47 118.47 176.166 117.41 174.689 116.209 174.247 115.023L172.106 110.505 169.606 109.061 168.508 105.074C168.508 104.01 169.223 103.11 170.197 102.828 170.094 101.929 170.041 101.095 170.041 100.338L170.041 100.148C170.041 96.713 171.456 93.338 173.923 90.887 176.345 88.483 179.5 87.188 182.828 87.194 185.677 87.213 188.363 88.154 190.597 89.915 192.071 91.078 193.291 92.579 194.122 94.257 194.195 94.403 194.265 94.55 194.331 94.699 195.066 96.281 195.451 98.052 195.439 99.809L195.438 100.338C195.438 101.087 195.378 101.917 195.259 102.817 195.65 102.922 196.008 103.132 196.3 103.431 196.735 103.88 196.966 104.47 196.948 105.095L196.929 105.264 196.16 109.073 193.231 110.538 190.995 115.098C190.803 115.622 190.33 116.184 189.807 116.722L189.807 121.926C189.807 122.478 189.359 122.926 188.807 122.926M178.946 131.663C178.708 131.663 178.469 131.578 178.277 131.406 177.867 131.037 177.834 130.405 178.203 129.994L182.814 124.87 187.425 129.994C187.794 130.405 187.761 131.037 187.351 131.406 186.938 131.776 186.308 131.742 185.938 131.332L182.814 127.86 179.689 131.332C179.492 131.551 179.22 131.663 178.946 131.663M170.887 181.713C170.887 181.163 171.326 180.713 171.887 180.713 172.437 180.713 172.887 181.163 172.887 181.713 172.887 182.263 172.437 182.713 171.887 182.713 171.326 182.713 170.887 182.263 170.887 181.713zM174.887 181.713C174.887 181.163 175.326 180.713 175.877 180.713 176.437 180.713 176.887 181.163 176.887 181.713 176.887 182.263 176.437 182.713 175.877 182.713 175.326 182.713 174.887 182.263 174.887 181.713zM178.887 181.713C178.887 181.163 179.326 180.713 179.887 180.713 180.437 180.713 180.887 181.163 180.887 181.713 180.887 182.263 180.437 182.713 179.887 182.713 179.326 182.713 178.887 182.263 178.887 181.713zM182.887 181.713C182.887 181.163 183.326 180.713 183.887 180.713 184.437 180.713 184.887 181.163 184.887 181.713 184.887 182.263 184.437 182.713 183.887 182.713 183.326 182.713 182.887 182.263 182.887 181.713zM186.887 181.713C186.887 181.163 187.326 180.713 187.887 180.713 188.437 180.713 188.887 181.163 188.887 181.713 188.887 182.263 188.437 182.713 187.887 182.713 187.326 182.713 186.887 182.263 186.887 181.713zM190.887 181.713C190.887 181.163 191.326 180.713 191.887 180.713 192.437 180.713 192.887 181.163 192.887 181.713 192.887 182.263 192.437 182.713 191.887 182.713 191.326 182.713 190.887 182.263 190.887 181.713zM194.887 181.713C194.887 181.163 195.326 180.713 195.887 180.713 196.437 180.713 196.887 181.163 196.887 181.713 196.887 182.263 196.437 182.713 195.887 182.713 195.326 182.713 194.887 182.263 194.887 181.713z"/>
    <polygon fill="#48515A" points="180.881 220.855 182.881 220.855 182.881 191.881 180.881 191.881"/>
    <polyline fill="#48515A" points="200.883 220.855 198.883 220.855 198.883 180.714 200.883 180.714 200.883 143.881 202.883 143.881 202.883 182.714 200.883 182.714 200.883 220.855"/>
    <polyline fill="#48515A" points="204.297 200.881 199.883 200.881 199.883 198.881 203.469 198.881 204.883 197.467 204.883 187.881 206.883 187.881 206.883 198.295 204.297 200.881"/>
    <polyline fill="#48515A" points="169.826 190.881 165.504 190.881 165.504 188.881 168.682 188.881 170.566 185.672 170.566 183.818 172.566 183.818 172.566 186.216 169.826 190.881"/>
    <polyline fill="#48515A" points="199.633 190.881 195.27 190.881 192.883 186.183 192.883 183.756 194.883 183.756 194.883 185.705 196.496 188.881 199.633 188.881 199.633 190.881"/>
    <polyline fill="#48515A" points="164.882 188.881 156.468 188.881 153.882 186.294 153.882 131.244 170.546 123.473 173.325 118.919 175.887 118.919 175.887 120.919 174.448 120.919 171.938 125.031 155.882 132.519 155.882 185.466 157.296 186.881 164.882 186.881 164.882 188.881"/>
    <polyline fill="#48515A" points="164.882 200.881 160.468 200.881 157.882 198.295 157.882 187.881 159.882 187.881 159.882 197.467 161.296 198.881 164.882 198.881 164.882 200.881"/>
    <polygon fill="#FFF" points="58.789 68.164 78.872 68.164 78.872 40.164 58.789 40.164"/>
    <path fill="#475059" d="M59.789,67.164 L77.872,67.164 L77.872,41.164 L59.789,41.164 L59.789,67.164 Z M57.789,69.164 L79.872,69.164 L79.872,39.164 L57.789,39.164 L57.789,69.164 Z"/>
    <polygon fill="#FFF" points="62.789 48.164 74.872 48.164 74.872 44.164 62.789 44.164"/>
    <path fill="#475059" d="M63.789,47.164 L73.872,47.164 L73.872,45.164 L63.789,45.164 L63.789,47.164 Z M61.789,49.164 L75.872,49.164 L75.872,43.164 L61.789,43.164 L61.789,49.164 Z"/>
    <path fill="#FFF" d="M62.873,51.122 L62.873,65.164"/>
    <path fill="#475059" d="M61.872,53.122 L63.872,53.122 L63.872,51.122 L61.872,51.122 L61.872,53.122 Z M61.872,57.122 L63.872,57.122 L63.872,55.122 L61.872,55.122 L61.872,57.122 Z M61.872,61.122 L63.872,61.122 L63.872,59.122 L61.872,59.122 L61.872,61.122 Z M61.872,65.122 L63.872,65.122 L63.872,63.122 L61.872,63.122 L61.872,65.122 Z"/>
    <path fill="#FFF" d="M66.872,51.122 L66.872,65.164"/>
    <path fill="#475059" d="M65.872,53.122 L67.872,53.122 L67.872,51.122 L65.872,51.122 L65.872,53.122 Z M65.872,57.122 L67.872,57.122 L67.872,55.122 L65.872,55.122 L65.872,57.122 Z M65.872,61.122 L67.872,61.122 L67.872,59.122 L65.872,59.122 L65.872,61.122 Z M65.872,65.122 L67.872,65.122 L67.872,63.122 L65.872,63.122 L65.872,65.122 Z"/>
    <path fill="#FFF" d="M70.872,51.122 L70.872,65.164"/>
    <path fill="#475059" d="M69.872,53.122 L71.872,53.122 L71.872,51.122 L69.872,51.122 L69.872,53.122 Z M69.872,57.122 L71.872,57.122 L71.872,55.122 L69.872,55.122 L69.872,57.122 Z M69.872,61.122 L71.872,61.122 L71.872,59.122 L69.872,59.122 L69.872,61.122 Z M69.872,65.122 L71.872,65.122 L71.872,63.122 L69.872,63.122 L69.872,65.122 Z"/>
    <path fill="#FFF" d="M74.872,51.122 L74.872,57.164"/>
    <path fill="#475059" d="M73.872,53.122 L75.872,53.122 L75.872,51.122 L73.872,51.122 L73.872,53.122 Z M73.872,57.122 L75.872,57.122 L75.872,55.122 L73.872,55.122 L73.872,57.122 Z"/>
    <path fill="#FFF" d="M74.872,59.122 L74.872,65.164"/>
    <polygon fill="#475059" points="73.872 65.164 75.872 65.164 75.872 59.122 73.872 59.122"/>
    <path fill="#48515A" d="M69.306,31.912 C63.463,31.912 57.969,34.187 53.837,38.319 C49.705,42.451 47.43,47.944 47.43,53.787 C47.43,64.308 54.926,73.348 65.255,75.283 L65.637,75.354 L69.306,80.246 L72.975,75.354 L73.356,75.283 C83.686,73.348 91.182,64.308 91.182,53.788 C91.182,41.726 81.368,31.912 69.306,31.912 Z M69.306,83.579 L64.501,77.173 C53.426,74.911 45.43,65.139 45.43,53.787 C45.43,47.41 47.913,41.414 52.423,36.905 C56.933,32.396 62.928,29.912 69.305,29.912 L69.306,29.912 C82.471,29.912 93.182,40.623 93.182,53.788 C93.182,65.139 85.186,74.911 74.11,77.173 L69.306,83.579 Z"/>
    <path fill="#475059" d="M140.919,58.753 L139.017,58.134 L139.357,57.088 L138.043,56.659 C136.481,56.15 135.475,54.76 135.477,53.119 C135.479,51.478 136.488,50.091 138.05,49.586 L139.365,49.16 L138.642,46.924 L137.324,47.35 C135.765,47.858 134.133,47.324 133.169,45.996 C132.205,44.667 132.207,42.951 133.173,41.625 L133.987,40.506 L132.088,39.123 L131.274,40.241 C130.308,41.568 128.679,42.097 127.115,41.588 C125.555,41.079 124.548,39.69 124.549,38.049 L124.551,36.665 L122.201,36.663 L122.199,38.048 C122.198,39.688 121.188,41.075 119.628,41.581 C118.065,42.085 116.435,41.555 115.471,40.226 L114.658,39.106 L112.756,40.485 L113.568,41.605 C114.531,42.934 114.53,44.649 113.564,45.976 C112.598,47.303 110.964,47.832 109.405,47.323 L108.09,46.894 L107.748,47.94 L105.847,47.32 L106.809,44.373 L110.024,45.422 C110.9,45.708 111.592,45.287 111.947,44.799 C112.303,44.311 112.489,43.524 111.949,42.779 L109.963,40.039 L115.104,36.313 L117.09,39.052 C117.63,39.797 118.438,39.862 119.011,39.678 C119.585,39.492 120.198,38.966 120.199,38.045 L120.203,34.661 L126.553,34.667 L126.549,38.051 C126.548,38.971 127.161,39.5 127.735,39.687 C128.308,39.872 129.115,39.809 129.657,39.064 L131.648,36.329 L136.782,40.066 L134.79,42.802 C134.248,43.546 134.434,44.333 134.788,44.822 C135.144,45.311 135.838,45.732 136.708,45.448 L139.929,44.405 L141.885,50.446 L138.665,51.488 C137.79,51.772 137.477,52.518 137.477,53.121 C137.476,53.725 137.787,54.472 138.662,54.758 L141.879,55.806 L140.919,58.753"/>
    <path fill="#F58E70" d="M131.548,55.777 L129.646,55.157 C130.775,51.691 128.875,47.952 125.409,46.822 C123.729,46.274 121.938,46.414 120.363,47.214 C118.789,48.014 117.621,49.38 117.074,51.059 L115.172,50.439 C115.885,48.252 117.407,46.473 119.457,45.431 C121.508,44.389 123.842,44.207 126.028,44.92 C130.543,46.392 133.019,51.262 131.548,55.777"/>
    <path fill="#F58E70" d="M123.392,61.654 C122.493,61.654 121.591,61.512 120.713,61.225 C116.198,59.754 113.723,54.883 115.194,50.368 L117.097,50.988 C115.967,54.454 117.866,58.194 121.332,59.324 C123.011,59.87 124.804,59.732 126.378,58.932 C127.952,58.132 129.121,56.767 129.668,55.088 L131.57,55.708 C130.857,57.895 129.335,59.673 127.284,60.715 C126.058,61.339 124.729,61.654 123.392,61.654"/>
    <path fill="#475059" d="M126.538,71.485 L120.188,71.478 L120.191,68.094 C120.192,67.174 119.58,66.646 119.006,66.459 C118.434,66.273 117.625,66.336 117.084,67.081 L115.092,69.816 L109.959,66.079 L111.951,63.343 C112.493,62.599 112.308,61.812 111.953,61.323 C111.598,60.834 110.908,60.411 110.032,60.697 L106.813,61.739 L104.858,55.698 L108.077,54.656 C108.952,54.373 109.265,53.627 109.266,53.023 C109.266,52.419 108.955,51.673 108.08,51.387 L104.863,50.338 L105.944,47.026 L107.846,47.646 L107.385,49.057 L108.7,49.486 C110.26,49.995 111.267,51.384 111.266,53.025 C111.264,54.666 110.254,56.053 108.693,56.559 L107.376,56.985 L108.1,59.22 L109.417,58.794 C110.974,58.288 112.608,58.82 113.572,60.149 C114.536,61.478 114.534,63.194 113.568,64.52 L112.754,65.639 L114.652,67.022 L115.467,65.904 C116.434,64.577 118.069,64.051 119.626,64.557 C121.187,65.066 122.193,66.456 122.191,68.096 L122.19,69.48 L124.54,69.483 L124.541,68.099 C124.543,66.458 125.553,65.071 127.114,64.565 C128.678,64.059 130.308,64.592 131.271,65.921 L132.083,67.041 L133.985,65.662 L133.173,64.541 C132.21,63.213 132.211,61.497 133.177,60.171 C134.143,58.845 135.776,58.315 137.336,58.824 L138.652,59.253 L139.16,57.692 L141.063,58.312 L139.934,61.774 L136.717,60.725 C135.841,60.44 135.149,60.859 134.794,61.348 C134.438,61.836 134.252,62.622 134.792,63.367 L136.778,66.107 L131.638,69.834 L129.651,67.094 C129.112,66.349 128.305,66.283 127.73,66.468 C127.156,66.654 126.542,67.18 126.541,68.101 L126.538,71.485"/>
    <path fill="#FFD15D" d="M127.388,53.175 C127.388,55.424 125.565,57.247 123.316,57.247 C121.067,57.247 119.243,55.424 119.243,53.175 C119.243,50.925 121.067,49.102 123.316,49.102 C125.565,49.102 127.388,50.925 127.388,53.175"/>
    <path fill="#FFD15D" d="M123.315,49.602 C121.346,49.602 119.743,51.204 119.743,53.175 C119.743,55.145 121.346,56.747 123.315,56.747 C125.286,56.747 126.889,55.145 126.889,53.175 C126.889,51.204 125.286,49.602 123.315,49.602 Z M123.315,57.747 C120.794,57.747 118.743,55.696 118.743,53.175 C118.743,50.653 120.794,48.602 123.315,48.602 C125.837,48.602 127.889,50.653 127.889,53.175 C127.889,55.696 125.837,57.747 123.315,57.747 Z"/>
    <path fill="#48515A" d="M123.742,30.911 C111.681,30.911 101.867,40.725 101.867,52.787 C101.867,63.307 109.363,72.347 119.69,74.281 L120.073,74.353 L123.742,79.245 L127.411,74.354 L127.793,74.282 C138.122,72.347 145.618,63.307 145.618,52.787 C145.618,40.725 135.805,30.911 123.742,30.911 Z M123.742,82.579 L118.938,76.172 C107.863,73.91 99.867,64.138 99.867,52.787 C99.867,39.622 110.577,28.911 123.742,28.911 C136.907,28.911 147.618,39.622 147.618,52.787 C147.618,64.138 139.622,73.91 128.547,76.173 L123.742,82.579 Z"/>
    <path fill="#FFD15D" d="M188.343,48.367 C188.343,53.062 184.537,56.868 179.843,56.868 C175.148,56.868 171.342,53.062 171.342,48.367 C171.342,43.672 175.148,39.866 179.843,39.866 C184.537,39.866 188.343,43.672 188.343,48.367"/>
    <path fill="#48515A" d="M186.145,65.725 C185.592,65.725 185.145,65.278 185.145,64.725 L185.145,61.693 C185.145,59.688 185.973,57.79 187.477,56.348 C189.664,54.251 190.869,51.432 190.869,48.41 C190.869,45.355 189.647,42.513 187.429,40.41 C185.212,38.309 182.297,37.243 179.241,37.404 C173.585,37.706 169.013,42.381 168.83,48.047 C168.729,51.191 169.982,54.236 172.271,56.399 C173.74,57.789 174.55,59.614 174.55,61.536 L174.55,64.725 C174.55,65.278 174.103,65.725 173.55,65.725 C172.997,65.725 172.55,65.278 172.55,64.725 L172.55,61.536 C172.55,60.169 171.963,58.861 170.896,57.852 C168.192,55.295 166.711,51.698 166.832,47.982 C167.047,41.287 172.451,35.764 179.134,35.408 C182.751,35.219 186.185,36.475 188.805,38.959 C191.426,41.443 192.869,44.8 192.869,48.41 C192.869,51.982 191.445,55.314 188.861,57.792 C187.754,58.853 187.145,60.238 187.145,61.693 L187.145,64.725 C187.145,65.278 186.697,65.725 186.145,65.725"/>
    <path fill="#48515A" d="M179.937,72.882 C179.389,72.882 178.941,72.441 178.937,71.891 C178.932,71.339 179.375,70.887 179.928,70.882 L182.616,70.857 C183.248,70.774 183.841,70.481 184.292,70.03 C184.842,69.481 185.145,68.75 185.145,67.973 L185.145,64.834 C185.145,64.282 185.592,63.834 186.145,63.834 C186.697,63.834 187.145,64.282 187.145,64.834 L187.145,67.973 C187.145,69.284 186.634,70.517 185.706,71.445 C184.926,72.225 183.893,72.724 182.797,72.85 L182.691,72.857 L179.945,72.882 C179.942,72.882 179.939,72.882 179.937,72.882"/>
    <path fill="#48515A" d="M188.438,65.724 L171.437,65.723 C170.884,65.723 170.437,65.276 170.437,64.723 C170.437,64.171 170.885,63.723 171.437,63.723 L188.438,63.724 C188.99,63.724 189.438,64.172 189.438,64.724 C189.438,65.276 188.989,65.724 188.438,65.724"/>
    <path fill="#48515A" d="M179.937,72.882 L177.459,72.882 C176.147,72.882 174.914,72.371 173.987,71.444 C173.061,70.518 172.55,69.285 172.55,67.973 L172.55,65.148 C172.55,64.596 172.997,64.148 173.55,64.148 C174.103,64.148 174.55,64.596 174.55,65.148 L174.55,67.973 C174.55,68.751 174.853,69.481 175.401,70.029 C175.951,70.579 176.682,70.882 177.459,70.882 L179.937,70.882 C180.489,70.882 180.937,71.33 180.937,71.882 C180.937,72.434 180.489,72.882 179.937,72.882"/>
    <polyline fill="#48515A" points="182.952 64.725 180.952 64.725 180.952 57.393 186.163 47.476 186.163 46.306 188.163 46.306 188.163 47.969 182.952 57.886 182.952 64.725"/>
    <polyline fill="#48515A" points="178.701 64.725 176.701 64.725 176.701 57.886 171.49 47.969 171.49 46.305 173.49 46.305 173.49 47.476 178.701 57.393 178.701 64.725"/>
    <path fill="#48515A" d="M175.036,47.013 C175.036,46.463 175.477,46.013 176.036,46.013 C176.587,46.013 177.036,46.463 177.036,47.013 C177.036,47.563 176.587,48.013 176.036,48.013 C175.477,48.013 175.036,47.563 175.036,47.013 Z M179.036,47.013 C179.036,46.463 179.477,46.013 180.036,46.013 C180.587,46.013 181.026,46.463 181.026,47.013 C181.026,47.563 180.587,48.013 180.036,48.013 C179.477,48.013 179.036,47.563 179.036,47.013 Z M183.036,47.013 C183.036,46.463 183.477,46.013 184.036,46.013 C184.587,46.013 185.036,46.463 185.036,47.013 C185.036,47.563 184.587,48.013 184.036,48.013 C183.477,48.013 183.036,47.563 183.036,47.013 Z"/>
    <path fill="#48515A" d="M179.992,31.912 C174.149,31.912 168.655,34.187 164.524,38.319 C160.393,42.451 158.117,47.944 158.117,53.787 C158.117,64.308 165.613,73.348 175.941,75.283 L176.323,75.354 L179.992,80.246 L183.661,75.354 L184.043,75.283 C194.372,73.348 201.868,64.308 201.868,53.788 C201.868,41.726 192.055,31.912 179.992,31.912 Z M179.992,83.579 L175.188,77.173 C164.113,74.911 156.117,65.139 156.117,53.787 C156.117,47.41 158.601,41.414 163.11,36.905 C167.619,32.396 173.614,29.912 179.991,29.912 L179.992,29.912 C193.157,29.912 203.868,40.623 203.868,53.788 C203.868,65.139 195.872,74.911 184.797,77.173 L179.992,83.579 Z"/>
    <polygon fill="#48515A" points="151.796 103.187 153.796 103.187 153.796 99.187 151.796 99.187"/>
    <polygon fill="#48515A" points="151.796 113.187 153.796 113.187 153.796 109.187 151.796 109.187"/>
    <polygon fill="#48515A" points="155.796 107.187 159.796 107.187 159.796 105.187 155.796 105.187"/>
    <polygon fill="#48515A" points="145.796 107.187 149.796 107.187 149.796 105.187 145.796 105.187"/>
    <polygon fill="#48515A" points="91.76 83.175 93.76 83.175 93.76 79.175 91.76 79.175"/>
    <polygon fill="#48515A" points="91.76 93.175 93.76 93.175 93.76 89.175 91.76 89.175"/>
    <polygon fill="#48515A" points="95.76 87.175 99.76 87.175 99.76 85.175 95.76 85.175"/>
    <polygon fill="#48515A" points="85.76 87.175 89.76 87.175 89.76 85.175 85.76 85.175"/>
    <path fill="#FFD15D" d="M85.864 114.187C85.864 114.739 85.417 115.187 84.864 115.187 84.312 115.187 83.864 114.739 83.864 114.187 83.864 113.634 84.312 113.187 84.864 113.187 85.417 113.187 85.864 113.634 85.864 114.187M101.864 99.187C101.864 100.291 100.969 101.187 99.864 101.187 98.76 101.187 97.864 100.291 97.864 99.187 97.864 98.082 98.76 97.187 99.864 97.187 100.969 97.187 101.864 98.082 101.864 99.187M147.864 89.187C147.864 88.082 148.76 87.187 149.864 87.187 150.969 87.187 151.864 88.082 151.864 89.187 151.864 90.291 150.969 91.187 149.864 91.187 148.76 91.187 147.864 90.291 147.864 89.187M205.864 118.187C205.864 117.634 206.312 117.187 206.864 117.187 207.417 117.187 207.864 117.634 207.864 118.187 207.864 118.739 207.417 119.187 206.864 119.187 206.312 119.187 205.864 118.739 205.864 118.187M155.864 92.187C155.864 91.634 156.312 91.187 156.864 91.187 157.417 91.187 157.864 91.634 157.864 92.187 157.864 92.739 157.417 93.187 156.864 93.187 156.312 93.187 155.864 92.739 155.864 92.187M159.864 115.187C159.864 114.082 160.76 113.187 161.864 113.187 162.969 113.187 163.864 114.082 163.864 115.187 163.864 116.291 162.969 117.187 161.864 117.187 160.76 117.187 159.864 116.291 159.864 115.187"/>
    <path fill="#5FE0ED" d="M123.336,84.729 C115.403,84.875 109.13,91.617 109.13,99.649 L109.13,119.209 L118.694,119.209 L118.668,116.658 C117.791,115.752 116.835,114.618 116.03,113.302 C114.046,110.06 113.266,105.838 113.266,101.731 L113.266,101.412 L122.14,101.412 L122.046,97.132 C124.945,99.882 128.769,101.412 132.741,101.412 L134.323,101.412 L134.323,101.731 C134.323,105.855 133.366,110.041 131.36,113.279 C130.035,115.419 128.201,117.106 127.06,118.089 L128.69,119.209 L138.083,119.209 L138.083,99.413 C138.083,91.211 131.474,84.579 123.336,84.729"/>
    <polyline fill="#EAEAE9" points="112.269 131.39 117.157 131.39 115.607 129.106 114.808 129.106 112.269 131.39"/>
    <polyline fill="#EAEAE9" points="134.548 131.39 129.66 131.39 131.211 129.106 132.01 129.106 134.548 131.39"/>
    <polyline fill="#EAEAE9" points="118.662 124.156 115.653 129.105 122.798 139.381 123.557 139.381 118.662 124.156"/>
    <polyline fill="#EAEAE9" points="128.667 120.494 131.822 123.777 134.837 131.006 134.085 131.006 132.206 129.105 131.454 129.105 128.445 124.156 128.667 120.494"/>
    <path fill="#EAEAE9" d="M128.682,122.511 L128.682,117.03 L126.647,118.303 C126.097,118.647 125.464,118.829 124.818,118.829 L122.549,118.829 C121.738,118.829 120.953,118.542 120.328,118.019 L118.667,116.625 L118.668,118.782 L128.682,122.511"/>
    <path fill="#48515A" d="M124.705,119.921 L122.375,119.921 C121.323,119.921 120.355,119.566 119.577,118.895 C118.319,117.806 116.535,116.044 115.178,113.824 C112.771,109.892 112.266,105.077 112.266,101.731 L112.266,101.412 L114.266,101.412 L114.266,101.731 C114.266,104.82 114.72,109.245 116.883,112.781 C118.107,114.781 119.734,116.386 120.885,117.381 C121.306,117.744 121.793,117.921 122.375,117.921 L124.705,117.921 C125.378,117.921 125.918,117.751 126.309,117.417 C126.999,116.826 129.101,115.027 130.511,112.752 C132.323,109.825 133.322,105.911 133.322,101.731 L133.322,101.412 L135.322,101.412 L135.322,101.731 C135.322,106.278 134.217,110.566 132.211,113.805 C130.638,116.344 128.358,118.295 127.609,118.936 C126.846,119.59 125.868,119.921 124.705,119.921"/>
    <polygon fill="#48515A" points="117.661 120.684 119.661 120.684 119.661 116.64 117.661 116.64"/>
    <polygon fill="#48515A" points="127.438 120.922 129.438 120.922 129.438 116.926 127.438 116.926"/>
    <path fill="#48515A" d="M149.262 187.247L142.195 187.247 142.195 185.247 147.129 185.247 143.859 134.436C143.432 131.221 141.27 128.441 138.226 127.248L131.471 124.713 132.174 122.841 138.941 125.381C142.677 126.844 145.318 130.237 145.849 134.24L149.262 187.247M106.194 187.247L99.153 187.247 101.274 134.331C101.813 130.237 104.454 126.844 108.177 125.386L114.925 122.842 115.63 124.713 108.894 127.253C105.861 128.441 103.699 131.221 103.265 134.503L101.235 185.247 106.194 185.247 106.194 187.247"/>
    <path fill="#48515A" d="M114.56,128.105 L116.176,128.105 L121.198,135.329 L117.662,124.156 L117.662,122.786 L116.126,124.341 L114.56,128.105 Z M124.921,140.381 L122.275,140.381 L115.208,130.216 L113.439,132.006 L110.771,132.006 L114.429,123.213 L119.662,117.916 L119.662,124 L124.921,140.381 Z"/>
    <path fill="#48515A" d="M129.444 122.789L129.396 124.462 125.907 135.33 130.932 128.105 132.544 128.105 130.974 124.341 129.444 122.789zM124.831 140.381L122.186 140.381 127.444 124 127.444 117.912 132.671 123.213 136.338 132.006 133.667 132.006 131.899 130.217 124.831 140.381zM108.201 221.089L105.201 190.843 105.194 178.983C105.194 177.026 105.844 175.098 107.025 173.541L111.88 164.133 108.229 150.506 110.161 149.989 114.013 164.362 108.663 174.693C107.716 175.913 107.194 177.436 107.194 178.983L107.196 190.744 110.191 220.891 108.201 221.089"/>
    <polygon fill="#48515A" points="123.028 220.406 125.028 220.406 125.028 186.414 123.028 186.414"/>
    <path fill="#48515A" d="M139.957,221.089 L137.967,220.891 L140.967,190.645 L140.964,179.052 C140.964,177.468 140.419,175.913 139.428,174.676 L139.327,174.523 L133.919,164.422 L136.208,150.09 L138.183,150.405 L136.001,164.073 L141.049,173.5 C142.284,175.079 142.964,177.047 142.964,179.052 L142.962,190.744 L139.957,221.089"/>
    <polyline fill="#48515A" points="144.609 195.247 142.195 195.247 142.195 193.247 143.781 193.247 145.195 191.833 145.195 186.247 147.195 186.247 147.195 192.661 144.609 195.247"/>
    <polyline fill="#48515A" points="106.194 195.247 103.78 195.247 101.194 192.661 101.194 186.247 103.194 186.247 103.194 191.833 104.608 193.247 106.194 193.247 106.194 195.247"/>
    <polygon fill="#48515A" points="112.946 165.247 134.96 165.247 134.96 163.247 112.946 163.247"/>
    <path fill="#FFD15D" d="M63.3,84.729 C55.367,84.875 49.093,91.617 49.093,99.649 L49.093,119.209 L58.658,119.209 L58.632,116.658 C57.755,115.752 56.799,114.618 55.994,113.302 C54.01,110.06 53.23,105.838 53.23,101.731 L53.23,101.412 L62.104,101.412 L62.01,97.132 C64.909,99.882 68.733,101.412 72.705,101.412 L74.287,101.412 L74.287,101.731 C74.287,105.855 73.33,110.041 71.324,113.279 C69.999,115.419 68.165,117.106 67.024,118.089 L68.654,119.209 L78.047,119.209 L78.047,99.413 C78.047,91.211 71.437,84.579 63.3,84.729"/>
    <polyline fill="#EAEAE9" points="52.233 131.39 57.121 131.39 55.571 129.106 54.771 129.106 52.233 131.39"/>
    <polyline fill="#EAEAE9" points="74.512 131.39 69.624 131.39 71.175 129.106 71.974 129.106 74.512 131.39"/>
    <polyline fill="#EAEAE9" points="58.626 124.156 55.617 129.105 62.762 139.381 63.521 139.381 58.626 124.156"/>
    <polyline fill="#EAEAE9" points="68.631 120.494 71.786 123.777 74.801 131.006 74.049 131.006 72.17 129.105 71.418 129.105 68.409 124.156 68.631 120.494"/>
    <path fill="#EAEAE9" d="M68.646,122.511 L68.646,117.03 L66.611,118.303 C66.061,118.647 65.428,118.829 64.782,118.829 L62.513,118.829 C61.702,118.829 60.917,118.542 60.293,118.019 L58.631,116.625 L58.632,118.782 L68.646,122.511"/>
    <path fill="#48515A" d="M64.669,119.921 L62.339,119.921 C61.287,119.921 60.319,119.566 59.541,118.895 C58.283,117.806 56.499,116.044 55.142,113.824 C52.734,109.892 52.229,105.077 52.229,101.731 L52.229,101.412 L54.229,101.412 L54.229,101.731 C54.229,104.82 54.684,109.245 56.847,112.781 C58.071,114.781 59.698,116.386 60.849,117.381 C61.27,117.744 61.757,117.921 62.339,117.921 L64.669,117.921 C65.342,117.921 65.882,117.751 66.272,117.417 C66.963,116.826 69.064,115.027 70.475,112.752 C72.288,109.824 73.287,105.909 73.287,101.731 L73.287,101.412 L75.287,101.412 L75.287,101.731 C75.287,106.277 74.182,110.565 72.175,113.805 C70.602,116.344 68.322,118.295 67.573,118.936 C66.81,119.59 65.832,119.921 64.669,119.921"/>
    <polygon fill="#48515A" points="57.625 120.684 59.625 120.684 59.625 116.64 57.625 116.64"/>
    <polygon fill="#48515A" points="67.402 120.922 69.402 120.922 69.402 116.926 67.402 116.926"/>
    <path fill="#48515A" d="M89.226 187.247L82.159 187.247 82.159 185.247 87.093 185.247 83.823 134.436C83.395 131.221 81.233 128.441 78.189 127.248L71.435 124.713 72.138 122.841 78.905 125.381C82.641 126.844 85.282 130.237 85.813 134.24L89.226 187.247M46.158 187.247L39.117 187.247 41.238 134.331C41.777 130.236 44.419 126.844 48.141 125.386L54.889 122.842 55.594 124.713 48.857 127.253C45.825 128.441 43.664 131.22 43.229 134.503L41.199 185.247 46.158 185.247 46.158 187.247"/>
    <path fill="#48515A" d="M54.523,128.105 L56.14,128.105 L61.162,135.329 L57.626,124.156 L57.626,122.786 L56.09,124.341 L54.523,128.105 Z M64.885,140.381 L62.239,140.381 L55.172,130.217 L53.403,132.006 L50.734,132.006 L54.393,123.213 L59.626,117.916 L59.626,124 L64.885,140.381 Z"/>
    <path fill="#48515A" d="M69.409 122.79L69.361 124.462 65.872 135.329 70.896 128.105 72.508 128.105 70.937 124.341 69.409 122.79zM64.795 140.381L62.149 140.381 67.409 124 67.409 117.912 72.635 123.213 76.302 132.006 73.631 132.006 71.863 130.217 64.795 140.381zM48.165 221.089L45.165 190.843 45.158 178.983C45.158 177.028 45.808 175.099 46.989 173.542L51.845 164.133 48.193 150.506 50.125 149.989 53.978 164.362 48.627 174.692C47.68 175.914 47.158 177.437 47.158 178.983L47.16 190.744 50.155 220.891 48.165 221.089"/>
    <polygon fill="#48515A" points="62.992 220.406 64.992 220.406 64.992 186.414 62.992 186.414"/>
    <path fill="#48515A" d="M79.922,221.089 L77.932,220.891 L80.932,190.645 L80.928,179.052 C80.928,177.468 80.383,175.913 79.392,174.676 L79.291,174.523 L73.883,164.422 L76.172,150.09 L78.146,150.405 L75.965,164.073 L81.013,173.5 C82.248,175.079 82.928,177.047 82.928,179.052 L82.927,190.744 L79.922,221.089"/>
    <polyline fill="#48515A" points="84.573 195.247 82.159 195.247 82.159 193.247 83.745 193.247 85.159 191.833 85.159 186.247 87.159 186.247 87.159 192.661 84.573 195.247"/>
    <polyline fill="#48515A" points="46.158 195.247 43.744 195.247 41.158 192.661 41.158 186.247 43.158 186.247 43.158 191.833 44.572 193.247 46.158 193.247 46.158 195.247"/>
    <polygon fill="#48515A" points="52.911 165.247 74.924 165.247 74.924 163.247 52.911 163.247"/>
  </g>
</svg>
