<svg xmlns="http://www.w3.org/2000/svg" width="250" height="250" viewBox="0 0 250 250">
  <g fill="none" fill-rule="evenodd">
    <path fill="#48515A" d="M130.084,168.199 L119.021,168.199 C118.709,168.199 118.416,168.054 118.227,167.807 L91.049,132.243 C90.757,131.86 90.779,131.324 91.101,130.966 L99.866,121.248 C100.236,120.838 100.867,120.806 101.278,121.176 C101.688,121.546 101.721,122.178 101.351,122.588 L93.143,131.688 L119.516,166.199 L130.084,166.199 C130.637,166.199 131.084,166.647 131.084,167.199 C131.084,167.751 130.637,168.199 130.084,168.199"/>
    <path fill="#48515A" d="M130.084,168.199 L125.815,168.199 C125.263,168.199 124.815,167.751 124.815,167.199 C124.815,166.647 125.263,166.199 125.815,166.199 L129.59,166.199 L155.963,131.688 L147.755,122.588 C147.385,122.178 147.417,121.546 147.828,121.176 C148.239,120.807 148.87,120.839 149.24,121.248 L158.005,130.966 C158.327,131.324 158.349,131.86 158.057,132.243 L130.879,167.807 C130.69,168.054 130.396,168.199 130.084,168.199"/>
    <path fill="#48515A" d="M186.856 202.964L184.856 202.964 184.856 201.92 180.601 162.207C179.368 152.906 173.222 145.005 164.563 141.612L153.273 137.212 154 135.349 165.291 139.749C174.629 143.408 181.255 151.922 182.586 161.97L186.856 201.867 186.856 202.964M65.084 202.964L63.084 202.964 63.09 201.76 67.351 161.995C68.685 151.922 75.312 143.408 84.648 139.75L95.108 135.682 95.832 137.546 85.375 141.613C76.719 145.005 70.572 152.906 69.336 162.232L65.084 201.92 65.084 202.964"/>
    <polygon fill="#48515A" points="34.97 185.902 36.97 185.902 36.97 181.902 34.97 181.902"/>
    <polygon fill="#48515A" points="34.97 195.902 36.97 195.902 36.97 191.902 34.97 191.902"/>
    <polygon fill="#48515A" points="38.97 189.902 42.97 189.902 42.97 187.902 38.97 187.902"/>
    <polygon fill="#48515A" points="28.97 189.902 32.97 189.902 32.97 187.902 28.97 187.902"/>
    <path fill="#475059" d="M160.865,177.903 L216.03,177.903 C217.684,177.903 219.03,176.558 219.03,174.903 C219.03,173.249 217.684,171.903 216.03,171.903 L160.865,171.903 L154.359,174.903 L160.865,177.903 Z M216.03,179.903 L160.426,179.903 L149.583,174.903 L160.426,169.903 L216.03,169.903 C218.787,169.903 221.03,172.146 221.03,174.903 C221.03,177.66 218.787,179.903 216.03,179.903 Z"/>
    <polygon fill="#475059" points="208.42 178.903 210.42 178.903 210.42 171.305 208.42 171.305"/>
    <polygon fill="#475059" points="161.414 175.874 209.42 175.874 209.42 173.874 161.414 173.874"/>
    <path fill="#475059" d="M176.971,119.889 C175.868,119.889 174.971,120.786 174.971,121.889 C174.971,122.992 175.868,123.889 176.971,123.889 C178.074,123.889 178.971,122.992 178.971,121.889 C178.971,120.786 178.074,119.889 176.971,119.889 Z M176.971,125.889 C174.765,125.889 172.971,124.095 172.971,121.889 C172.971,119.683 174.765,117.889 176.971,117.889 C179.176,117.889 180.971,119.683 180.971,121.889 C180.971,124.095 179.176,125.889 176.971,125.889 Z"/>
    <path fill="#48515A" d="M124.274 169.544C123.485 169.544 122.844 170.186 122.844 170.975 122.844 171.765 123.485 172.407 124.274 172.407 125.063 172.407 125.706 171.765 125.706 170.975 125.706 170.186 125.063 169.544 124.274 169.544zM124.274 174.407C122.383 174.407 120.844 172.868 120.844 170.975 120.844 169.083 122.383 167.544 124.274 167.544 126.167 167.544 127.706 169.083 127.706 170.975 127.706 172.868 126.167 174.407 124.274 174.407zM119.093 167.544C118.882 167.544 118.67 167.477 118.489 167.341 118.049 167.007 117.963 166.379 118.297 165.939L144.63 131.231C144.964 130.792 145.592 130.706 146.031 131.039 146.471 131.373 146.557 132 146.224 132.44L119.891 167.148C119.694 167.408 119.395 167.544 119.093 167.544"/>
    <path fill="#48515A" d="M124.557,160.325 C124.255,160.325 123.957,160.188 123.76,159.93 L102.798,132.357 C102.463,131.918 102.549,131.29 102.989,130.956 C103.428,130.621 104.056,130.708 104.39,131.147 L125.352,158.72 C125.687,159.159 125.601,159.787 125.162,160.12 C124.98,160.258 124.768,160.325 124.557,160.325"/>
    <path fill="#FFD15D" d="M142.462,197.808 C142.462,207.75 134.403,215.808 124.462,215.808 C114.52,215.808 106.462,207.75 106.462,197.808 C106.462,187.867 114.521,179.809 124.462,179.809 C134.403,179.809 142.462,187.867 142.462,197.808"/>
    <path fill="#48515A" d="M124.461,205.847 C123.909,205.847 123.461,205.399 123.461,204.847 L123.461,191.77 L120.239,191.77 C119.687,191.77 119.239,191.323 119.239,190.77 C119.239,190.218 119.687,189.77 120.239,189.77 L124.461,189.77 C125.013,189.77 125.461,190.218 125.461,190.77 L125.461,204.847 C125.461,205.399 125.013,205.847 124.461,205.847"/>
    <path fill="#48515A" d="M128.683,205.847 L120.239,205.847 C119.687,205.847 119.239,205.399 119.239,204.847 C119.239,204.294 119.687,203.847 120.239,203.847 L128.683,203.847 C129.235,203.847 129.683,204.294 129.683,204.847 C129.683,205.399 129.235,205.847 128.683,205.847"/>
    <path fill="#48515A" d="M124.461 213.89C115.594 213.89 108.38 206.676 108.38 197.808 108.38 197.256 108.828 196.808 109.38 196.808 109.933 196.808 110.38 197.256 110.38 197.808 110.38 205.573 116.697 211.89 124.461 211.89 128.545 211.89 132.424 210.119 135.103 207.031 135.465 206.614 136.096 206.569 136.514 206.931 136.931 207.293 136.976 207.925 136.614 208.342 133.555 211.868 129.125 213.89 124.461 213.89M102.38 199.047C102.35 198.487 102.77 198.017 103.32 197.987 103.88 197.957 104.35 198.377 104.38 198.927 104.41 199.487 103.99 199.957 103.43 199.987 103.42 199.987 103.4 199.987 103.38 199.987 102.85 199.987 102.41 199.577 102.38 199.047zM103 203.177C102.87 202.637 103.2 202.097 103.73 201.967 104.27 201.827 104.81 202.157 104.94 202.687 105.08 203.227 104.75 203.767 104.22 203.907 104.14 203.927 104.06 203.937 103.98 203.937 103.53 203.937 103.12 203.627 103 203.177zM104.4 207.117C104.16 206.617 104.38 206.027 104.88 205.787 105.38 205.557 105.98 205.777 106.21 206.277 106.44 206.777 106.23 207.377 105.73 207.607 105.59 207.667 105.45 207.697 105.31 207.697 104.93 207.697 104.57 207.487 104.4 207.117zM106.51 210.727C106.19 210.277 106.29 209.657 106.74 209.337 107.19 209.007 107.81 209.117 108.13 209.557 108.46 210.007 108.36 210.637 107.91 210.957 107.73 211.087 107.53 211.147 107.32 211.147 107.01 211.147 106.71 210.997 106.51 210.727zM109.27 213.877C108.86 213.497 108.85 212.867 109.23 212.457 109.61 212.057 110.24 212.047 110.64 212.427 111.04 212.807 111.06 213.437 110.68 213.837 110.48 214.047 110.22 214.147 109.95 214.147 109.71 214.147 109.46 214.057 109.27 213.877zM112.56 216.447C112.1 216.157 111.96 215.537 112.26 215.067 112.56 214.607 113.17 214.467 113.64 214.767 114.1 215.067 114.24 215.677 113.94 216.147 113.75 216.447 113.43 216.607 113.1 216.607 112.91 216.607 112.73 216.557 112.56 216.447zM116.28 218.357C115.77 218.157 115.52 217.577 115.72 217.057 115.93 216.547 116.51 216.297 117.02 216.507 117.54 216.707 117.78 217.287 117.58 217.797 117.43 218.197 117.05 218.427 116.65 218.427 116.53 218.427 116.4 218.407 116.28 218.357zM120.3 219.527C119.76 219.427 119.4 218.907 119.5 218.367 119.61 217.817 120.13 217.467 120.67 217.567 121.22 217.667 121.57 218.197 121.47 218.737 121.38 219.217 120.96 219.547 120.49 219.547 120.42 219.547 120.36 219.547 120.3 219.527zM123.46 218.927C123.46 218.367 123.91 217.927 124.46 217.927 125.01 217.927 125.46 218.367 125.46 218.927 125.46 219.477 125.01 219.917 124.46 219.917 124.46 219.917 124.46 219.917 124.46 219.927 123.91 219.927 123.46 219.477 123.46 218.927z"/>
    <path fill="#48515A" d="M103.348 198.808C102.795 198.808 102.348 198.36 102.348 197.808 102.348 185.615 112.268 175.694 124.461 175.694 125.014 175.694 125.461 176.142 125.461 176.694 125.461 177.246 125.014 177.694 124.461 177.694 113.371 177.694 104.348 186.717 104.348 197.808 104.348 198.36 103.9 198.808 103.348 198.808M124.462 219.922C124.462 219.922 124.462 219.922 124.461 219.922 123.909 219.922 123.461 219.475 123.461 218.922 123.461 218.37 123.909 217.922 124.461 217.922 129.834 217.922 134.885 215.83 138.685 212.031 142.483 208.232 144.576 203.181 144.576 197.808 144.576 197.256 145.023 196.808 145.576 196.808 146.128 196.808 146.576 197.256 146.576 197.808 146.576 203.716 144.275 209.269 140.099 213.446 135.922 217.622 130.369 219.922 124.462 219.922M58.816 169.413C59.077 169.413 59.341 169.434 59.606 169.476 61.69 169.809 63.249 171.371 63.577 173.455L63.937 175.744 67.938 175.114 67.579 172.826C67.251 170.741 68.254 168.776 70.136 167.82 72.015 166.866 74.195 167.212 75.687 168.705L77.323 170.345 80.19 167.484 78.554 165.844C77.063 164.35 76.72 162.171 77.681 160.291 78.641 158.412 80.608 157.415 82.692 157.745L84.979 158.109 85.617 154.109 83.33 153.745C81.246 153.412 79.687 151.85 79.359 149.766 79.031 147.681 80.035 145.716 81.916 144.76L83.981 143.711 82.191 140.19 80.127 141.239C78.245 142.195 76.067 141.848 74.576 140.354 73.085 138.86 72.742 136.681 73.702 134.802L74.755 132.739 71.148 130.896 70.095 132.959C69.134 134.839 67.164 135.839 65.083 135.506 62.999 135.174 61.441 133.612 61.113 131.527L60.752 129.24 56.751 129.87 57.111 132.157C57.439 134.242 56.436 136.207 54.554 137.163 52.671 138.119 50.494 137.771 49.003 136.278L47.367 134.639 44.5 137.5 46.137 139.14C47.627 140.634 47.97 142.813 47.01 144.693 46.051 146.572 44.085 147.573 42 147.239L39.712 146.875 39.074 150.875 41.361 151.24C43.445 151.572 45.004 153.133 45.332 155.218 45.661 157.303 44.657 159.268 42.775 160.225L40.711 161.274 42.499 164.792 44.563 163.743C46.446 162.786 48.624 163.134 50.115 164.628 51.605 166.121 51.948 168.301 50.988 170.181L49.935 172.243 53.541 174.086 54.595 172.023C55.433 170.383 57.037 169.413 58.816 169.413zM62.272 178.03L61.601 173.766C61.37 172.294 60.256 171.605 59.291 171.452 58.327 171.297 57.054 171.606 56.376 172.933L54.413 176.776 47.243 173.114 49.207 169.27C49.885 167.944 49.389 166.732 48.699 166.04 48.008 165.35 46.797 164.849 45.47 165.526L41.622 167.48 38.021 160.397 41.869 158.441C43.198 157.766 43.508 156.494 43.356 155.529 43.205 154.564 42.518 153.449 41.047 153.215L36.784 152.536 38.052 144.585 42.314 145.264C43.79 145.503 44.785 144.652 45.229 143.783 45.674 142.913 45.773 141.607 44.721 140.553L41.672 137.497 47.37 131.811 50.419 134.865C51.471 135.92 52.778 135.822 53.648 135.38 54.519 134.937 55.367 133.94 55.136 132.468L54.464 128.204 62.417 126.953 63.088 131.217C63.32 132.688 64.434 133.377 65.398 133.531 66.365 133.687 67.636 133.377 68.313 132.049L70.277 128.206 77.447 131.868 75.483 135.711C74.805 137.038 75.301 138.249 75.991 138.941 76.681 139.632 77.893 140.132 79.221 139.456L83.068 137.5 86.67 144.588 82.823 146.543C81.494 147.218 81.183 148.49 81.335 149.454 81.487 150.42 82.173 151.535 83.645 151.77L87.907 152.449 86.639 160.399 82.377 159.72C80.906 159.485 79.906 160.331 79.461 161.201 79.017 162.071 78.917 163.376 79.97 164.431L83.018 167.487 77.32 173.173 74.271 170.119C73.219 169.064 71.914 169.16 71.041 169.603 70.171 170.046 69.323 171.043 69.554 172.516L70.225 176.779 62.272 178.03z"/>
    <path fill="#475059" d="M52.038,157.788 C50.636,155.029 50.392,151.888 51.351,148.945 C52.311,146.002 54.358,143.609 57.118,142.206 C59.877,140.803 63.019,140.559 65.96,141.519 C68.904,142.478 71.297,144.527 72.7,147.286 L70.916,148.192 C69.756,145.909 67.776,144.214 65.341,143.421 C62.906,142.627 60.307,142.829 58.024,143.99 C55.741,145.15 54.046,147.13 53.252,149.565 C52.459,152 52.661,154.599 53.821,156.882 L52.038,157.788"/>
    <path fill="#F58E70" d="M62.346,148.993 C61.449,148.993 60.553,149.334 59.871,150.016 C58.506,151.381 58.506,153.602 59.871,154.967 C61.236,156.331 63.456,156.33 64.82,154.967 C66.185,153.602 66.185,151.381 64.821,150.016 C64.138,149.334 63.242,148.993 62.346,148.993 Z M62.345,158.989 C60.681,158.989 59.017,158.355 57.75,157.088 C55.215,154.554 55.215,150.43 57.75,147.895 C60.284,145.361 64.408,145.361 66.942,147.895 C69.476,150.43 69.476,154.554 66.941,157.088 C65.674,158.355 64.01,158.989 62.345,158.989 Z"/>
    <path fill="#48515A" d="M60.37,138.597 C60.33,138.047 60.74,137.567 61.29,137.527 C61.84,137.487 62.32,137.907 62.36,138.457 C62.4,139.007 61.98,139.487 61.43,139.527 C61.41,139.527 61.39,139.527 61.36,139.527 C60.84,139.527 60.4,139.127 60.37,138.597 Z M65.13,139.787 C64.59,139.677 64.25,139.137 64.36,138.597 C64.48,138.057 65.01,137.717 65.55,137.837 C66.09,137.957 66.43,138.487 66.32,139.027 C66.21,139.497 65.8,139.817 65.34,139.817 C65.27,139.817 65.2,139.807 65.13,139.787 Z M56.53,139.717 C56.34,139.197 56.6,138.617 57.12,138.427 C57.64,138.237 58.21,138.497 58.4,139.017 C58.59,139.537 58.33,140.107 57.81,140.307 C57.7,140.347 57.58,140.367 57.47,140.367 C57.06,140.367 56.68,140.117 56.53,139.717 Z M68.59,141.087 C68.11,140.817 67.93,140.207 68.2,139.727 C68.46,139.247 69.07,139.067 69.55,139.337 C70.04,139.597 70.21,140.207 69.95,140.687 C69.77,141.027 69.42,141.207 69.07,141.207 C68.91,141.207 68.74,141.167 68.59,141.087 Z M53.17,141.877 C52.84,141.427 52.92,140.807 53.37,140.477 C53.81,140.137 54.44,140.237 54.77,140.677 C55.1,141.117 55.01,141.747 54.57,142.077 C54.39,142.207 54.17,142.277 53.97,142.277 C53.66,142.277 53.36,142.137 53.17,141.877 Z M71.54,143.297 C71.15,142.907 71.15,142.277 71.54,141.887 C71.93,141.497 72.56,141.497 72.95,141.887 C73.34,142.277 73.34,142.907 72.95,143.297 C72.76,143.497 72.5,143.587 72.24,143.587 C71.99,143.587 71.73,143.497 71.54,143.297 Z M50.54,144.887 C50.1,144.557 50.01,143.927 50.34,143.487 C50.34,143.487 50.34,143.487 50.35,143.487 C50.68,143.047 51.3,142.957 51.75,143.287 C52.19,143.627 52.28,144.247 51.94,144.687 C51.75,144.947 51.45,145.087 51.14,145.087 C50.93,145.087 50.72,145.027 50.54,144.887 Z M73.76,146.257 C73.49,145.777 73.67,145.167 74.16,144.907 C74.64,144.637 75.25,144.817 75.51,145.297 C75.78,145.787 75.6,146.397 75.12,146.657 C74.96,146.737 74.8,146.777 74.64,146.777 C74.28,146.777 73.94,146.597 73.76,146.257 Z M48.88,148.517 C48.36,148.327 48.1,147.757 48.29,147.237 C48.48,146.717 49.06,146.457 49.58,146.647 C50.1,146.837 50.36,147.417 50.17,147.937 C50.02,148.337 49.63,148.587 49.23,148.587 C49.11,148.587 48.99,148.567 48.88,148.517 Z M75.05,149.727 C74.93,149.187 75.28,148.657 75.82,148.537 C76.36,148.427 76.89,148.767 77.01,149.307 C77.12,149.847 76.78,150.377 76.24,150.497 C76.17,150.507 76.1,150.517 76.03,150.517 C75.57,150.517 75.15,150.197 75.05,149.727 Z M48.31,152.477 C47.76,152.437 47.34,151.957 47.38,151.407 C47.42,150.857 47.9,150.447 48.45,150.487 C49,150.517 49.42,150.997 49.38,151.547 C49.34,152.077 48.9,152.477 48.38,152.477 C48.36,152.477 48.34,152.477 48.31,152.477 Z M76.24,154.487 C75.69,154.447 75.27,153.977 75.31,153.427 C75.35,152.877 75.83,152.457 76.38,152.497 C76.93,152.537 77.35,153.017 77.31,153.567 C77.27,154.087 76.83,154.497 76.31,154.497 C76.29,154.497 76.26,154.487 76.24,154.487 Z M47.68,155.667 C47.57,155.127 47.91,154.597 48.45,154.477 C48.99,154.367 49.52,154.707 49.64,155.247 C49.75,155.787 49.41,156.317 48.87,156.437 C48.8,156.447 48.73,156.457 48.66,156.457 C48.2,156.457 47.78,156.137 47.68,155.667 Z M75.12,158.327 C74.6,158.137 74.33,157.557 74.53,157.037 C74.72,156.517 75.3,156.257 75.81,156.447 C76.33,156.647 76.59,157.217 76.4,157.737 C76.25,158.137 75.87,158.387 75.46,158.387 C75.35,158.387 75.23,158.367 75.12,158.327 Z M49.17,159.667 C48.91,159.187 49.08,158.577 49.57,158.317 C50.05,158.047 50.66,158.227 50.93,158.717 C51.19,159.197 51.01,159.807 50.53,160.067 C50.38,160.157 50.21,160.197 50.05,160.197 C49.7,160.197 49.35,160.007 49.17,159.667 Z M72.95,161.687 C72.51,161.357 72.42,160.727 72.75,160.287 C73.08,159.847 73.71,159.757 74.15,160.087 C74.59,160.417 74.68,161.047 74.35,161.487 C74.15,161.747 73.85,161.887 73.55,161.887 C73.34,161.887 73.13,161.817 72.95,161.687 Z M51.73,163.087 C51.34,162.697 51.34,162.067 51.73,161.677 C52.12,161.287 52.76,161.287 53.15,161.677 C53.54,162.067 53.54,162.697 53.15,163.087 C52.95,163.287 52.7,163.387 52.44,163.387 C52.18,163.387 51.93,163.287 51.73,163.087 Z M69.93,164.307 C69.6,163.857 69.69,163.237 70.13,162.907 C70.57,162.577 71.2,162.657 71.53,163.107 C71.86,163.547 71.77,164.177 71.33,164.507 C71.15,164.637 70.94,164.707 70.73,164.707 C70.43,164.707 70.13,164.567 69.93,164.307 Z M55.15,165.657 C54.66,165.387 54.48,164.777 54.75,164.297 C55.01,163.817 55.62,163.637 56.11,163.897 C56.59,164.167 56.77,164.777 56.5,165.257 C56.32,165.587 55.98,165.777 55.62,165.777 C55.46,165.777 55.3,165.737 55.15,165.657 Z M66.3,165.957 C66.1,165.447 66.37,164.867 66.88,164.677 C67.4,164.487 67.98,164.747 68.17,165.267 C68.36,165.787 68.1,166.357 67.58,166.547 C67.47,166.597 67.35,166.617 67.23,166.617 C66.83,166.617 66.44,166.367 66.3,165.957 Z M59.15,167.147 C58.61,167.027 58.27,166.497 58.38,165.957 C58.5,165.417 59.03,165.077 59.57,165.197 C60.11,165.307 60.45,165.847 60.34,166.387 C60.23,166.857 59.82,167.167 59.36,167.167 C59.29,167.167 59.22,167.167 59.15,167.147 Z M62.34,166.527 C62.3,165.977 62.71,165.497 63.27,165.457 C63.82,165.417 64.3,165.837 64.33,166.387 C64.37,166.937 63.96,167.417 63.41,167.457 C63.38,167.457 63.36,167.457 63.34,167.457 C62.82,167.457 62.38,167.057 62.34,166.527 Z"/>
    <path fill="#FFD15D" d="M90.97 107.902C90.97 109.006 90.075 109.902 88.97 109.902 87.866 109.902 86.97 109.006 86.97 107.902 86.97 106.797 87.866 105.902 88.97 105.902 90.075 105.902 90.97 106.797 90.97 107.902M98.97 179.902C98.97 181.006 98.075 181.902 96.97 181.902 95.866 181.902 94.97 181.006 94.97 179.902 94.97 178.797 95.866 177.902 96.97 177.902 98.075 177.902 98.97 178.797 98.97 179.902M150.97 183.902C150.97 183.902 150.523 183.902 149.97 183.902 149.418 183.902 148.97 183.902 148.97 183.902 148.97 183.902 149.418 183.902 149.97 183.902 150.523 183.902 150.97 183.902 150.97 183.902M168.964 203.902C168.964 202.797 169.86 201.902 170.964 201.902 172.069 201.902 172.964 202.797 172.964 203.902 172.964 205.006 172.069 205.902 170.964 205.902 169.86 205.902 168.964 205.006 168.964 203.902M146.97 217.902C146.97 216.797 147.866 215.902 148.97 215.902 150.075 215.902 150.97 216.797 150.97 217.902 150.97 219.006 150.075 219.902 148.97 219.902 147.866 219.902 146.97 219.006 146.97 217.902M154.97 198.902C154.97 198.349 155.418 197.902 155.97 197.902 156.523 197.902 156.97 198.349 156.97 198.902 156.97 199.454 156.523 199.902 155.97 199.902 155.418 199.902 154.97 199.454 154.97 198.902M154.97 208.902C154.97 208.349 155.418 207.902 155.97 207.902 156.523 207.902 156.97 208.349 156.97 208.902 156.97 209.454 156.523 209.902 155.97 209.902 155.418 209.902 154.97 209.454 154.97 208.902M100.97 216.902C100.97 216.349 101.418 215.902 101.97 215.902 102.522 215.902 102.97 216.349 102.97 216.902 102.97 217.454 102.522 217.902 101.97 217.902 101.418 217.902 100.97 217.454 100.97 216.902M90.97 196.902C90.97 196.349 90.97 195.902 90.97 195.902 90.97 195.902 90.97 196.349 90.97 196.902 90.97 197.454 90.97 197.902 90.97 197.902 90.97 197.902 90.97 197.454 90.97 196.902"/>
    <polygon fill="#48515A" points="212.97 209.902 214.97 209.902 214.97 205.902 212.97 205.902"/>
    <polygon fill="#48515A" points="212.97 219.902 214.97 219.902 214.97 215.902 212.97 215.902"/>
    <polygon fill="#48515A" points="216.97 213.902 220.97 213.902 220.97 211.902 216.97 211.902"/>
    <polygon fill="#48515A" points="206.97 213.902 210.97 213.902 210.97 211.902 206.97 211.902"/>
    <polygon fill="#48515A" points="58.97 89.902 60.97 89.902 60.97 85.902 58.97 85.902"/>
    <polygon fill="#48515A" points="58.97 99.902 60.97 99.902 60.97 95.902 58.97 95.902"/>
    <polygon fill="#48515A" points="62.97 93.902 66.97 93.902 66.97 91.902 62.97 91.902"/>
    <polygon fill="#48515A" points="52.97 93.902 56.97 93.902 56.97 91.902 52.97 91.902"/>
    <path fill="#5FE0ED" d="M124.36,30.079 C103.262,30.467 86.578,48.398 86.578,69.759 L86.578,121.778 L112.014,121.778 L111.946,114.993 C109.614,112.583 107.071,109.569 104.93,106.069 C99.653,97.445 97.578,86.218 97.578,75.295 L97.578,74.447 L121.179,74.447 L120.929,63.066 C128.639,70.378 138.808,74.447 149.373,74.447 L153.578,74.447 L153.578,75.295 C153.578,86.263 151.034,97.395 145.7,106.007 C142.175,111.697 137.297,116.185 134.262,118.798 L138.597,121.778 L163.578,121.778 L163.578,69.132 C163.578,47.319 146.001,29.681 124.36,30.079"/>
    <path fill="#EAEAE9" d="M138.578,130.56 L138.578,115.982 L133.165,119.368 C131.703,120.282 130.019,120.767 128.3,120.767 L122.266,120.767 C120.11,120.767 118.021,120.005 116.361,118.612 L111.942,114.906 L111.944,120.642 L138.578,130.56"/>
    <path fill="#48515A" d="M128,122.012 L121.803,122.012 C119.373,122.012 117.234,121.228 115.448,119.683 C112.193,116.87 107.579,112.314 104.077,106.591 C97.879,96.462 96.578,83.981 96.578,75.295 L96.578,74.447 L98.578,74.447 L98.578,75.295 C98.578,83.725 99.828,95.815 105.783,105.547 C109.15,111.051 113.608,115.45 116.755,118.171 C118.168,119.392 119.867,120.012 121.803,120.012 L128,120.012 C130.198,120.012 131.996,119.426 133.344,118.271 C135.229,116.658 140.967,111.747 144.85,105.48 C149.833,97.435 152.578,86.715 152.578,75.295 L152.578,74.447 L154.578,74.447 L154.578,75.295 C154.578,87.082 151.727,98.176 146.55,106.534 C142.504,113.065 136.588,118.127 134.645,119.791 C132.924,121.265 130.688,122.012 128,122.012"/>
    <path fill="#475059" d="M193.229,84.902 C187.306,84.902 182.488,89.72 182.488,95.643 C182.488,101.565 187.306,106.384 193.229,106.384 C199.152,106.384 203.97,101.565 203.97,95.643 C203.97,89.72 199.152,84.902 193.229,84.902 Z M193.229,108.384 C186.204,108.384 180.488,102.668 180.488,95.643 C180.488,88.617 186.204,82.902 193.229,82.902 C200.254,82.902 205.97,88.617 205.97,95.643 C205.97,102.668 200.254,108.384 193.229,108.384 Z"/>
    <path fill="#475059" d="M193.228,84.902 C190.343,84.902 187.906,89.82 187.906,95.643 C187.906,101.465 190.343,106.384 193.228,106.384 C196.113,106.384 198.55,101.465 198.55,95.643 C198.55,89.82 196.113,84.902 193.228,84.902 Z M193.228,108.384 C189.122,108.384 185.906,102.787 185.906,95.643 C185.906,88.498 189.122,82.902 193.228,82.902 C197.334,82.902 200.55,88.498 200.55,95.643 C200.55,102.787 197.334,108.384 193.228,108.384 Z"/>
    <polygon fill="#475059" points="181.488 96.643 204.97 96.643 204.97 94.643 181.488 94.643"/>
    <polyline fill="#475059" points="156.447 132.438 136.804 132.438 136.804 115.982 138.804 115.982 138.804 130.438 156.447 130.438 156.447 132.438"/>
    <polyline fill="#475059" points="113.137 132.438 92.206 132.438 92.206 130.438 111.137 130.438 111.137 115.78 113.137 115.78 113.137 132.438"/>
  </g>
</svg>
