<svg xmlns="http://www.w3.org/2000/svg" width="250" height="250" viewBox="0 0 250 250">
  <g fill="none" fill-rule="evenodd">
    <polyline fill="#DFE0E0" points="100.214 52.005 143.381 73.839 152.38 70.506 149.869 51.51 125.214 56.255 100.214 52.005"/>
    <polygon fill="#48515A" points="35.447 141.496 37.447 141.496 37.447 137.496 35.447 137.496"/>
    <polygon fill="#48515A" points="35.447 151.496 37.447 151.496 37.447 147.496 35.447 147.496"/>
    <polygon fill="#48515A" points="39.447 145.496 43.447 145.496 43.447 143.496 39.447 143.496"/>
    <polygon fill="#48515A" points="29.447 145.496 33.447 145.496 33.447 143.496 29.447 143.496"/>
    <path fill="#F58E70" d="M129.88,171.339 L128.326,158.485 C129.43,158.486 130.326,157.591 130.326,156.487 L130.326,151.486 L125.242,145.482 L120.326,151.486 L120.326,156.487 C120.326,157.591 121.221,158.486 122.326,158.485 L120.88,171.005 L125.38,175.505 L129.88,171.339"/>
    <path fill="#DFE0E0" d="M109.945,130.492 L109.945,134.861 L125.076,143.361 L140.076,135.111 L140.21,127.113 L140.21,120.372 C140.784,119.806 141.371,119.201 141.898,118.588 C141.718,118.746 141.545,118.903 141.398,119.062 C139.295,121.323 136.106,123.696 133.946,125.54 C132.238,126.998 130.079,127.805 127.833,127.83 L121.341,127.83 C119.095,127.805 116.935,126.998 115.227,125.54 C113.166,123.78 110.167,121.538 108.069,119.371 C108.006,119.306 107.933,119.241 107.864,119.176 C108.494,119.846 109.214,120.525 109.981,121.2 C109.964,121.208 109.945,121.216 109.945,121.236 L109.945,130.492"/>
    <path fill="#48515A" d="M109.945 135.736C109.393 135.736 108.945 135.288 108.945 134.736L108.945 121.236C108.945 120.684 109.393 120.236 109.945 120.236 110.497 120.236 110.945 120.684 110.945 121.236L110.945 134.736C110.945 135.288 110.497 135.736 109.945 135.736M158.082 92.055L158.092 92.055 158.082 92.055zM140.11 135.487C139.558 135.487 139.11 135.039 139.11 134.487L139.11 119.933 139.408 119.639C140.582 118.481 141.986 117.004 142.423 115.843L148.612 103.213 155.509 99.762 157.083 91.949C157.081 91.365 156.856 90.815 156.446 90.393 156.018 89.953 155.444 89.71 154.831 89.71L152.256 89.71 152.46 88.539C153.006 85.402 153.283 82.581 153.283 80.155L153.285 78.8C153.307 75.44 152.704 72.149 151.491 69.015 151.292 68.5 151.548 67.921 152.063 67.722 152.58 67.524 153.157 67.779 153.356 68.294 154.66 71.662 155.309 75.201 155.285 78.813L155.283 80.155C155.283 82.387 155.062 84.923 154.625 87.71L154.831 87.71C155.989 87.71 157.072 88.168 157.88 88.999 158.688 89.83 159.115 90.925 159.082 92.084L159.062 92.253 157.276 101.114 150.11 104.699 144.257 116.635C143.762 117.963 142.475 119.402 141.11 120.768L141.11 134.487C141.11 135.039 140.662 135.487 140.11 135.487z"/>
    <path fill="#48515A" d="M127.848 128.83L121.341 128.83C118.853 128.802 116.455 127.903 114.578 126.3 113.966 125.778 113.271 125.212 112.541 124.619 109.408 122.072 105.857 119.184 104.888 116.583L99.248 104.666 93.076 101.102 90.537 92.076C90.537 89.669 92.495 87.71 94.902 87.71L94.962 87.71C94.587 84.949 94.398 82.412 94.398 80.155L94.398 79.676C94.398 75.977 95.057 72.335 96.356 68.852 96.549 68.334 97.127 68.071 97.643 68.264 98.16 68.457 98.423 69.033 98.23 69.551 97.014 72.809 96.398 76.216 96.398 79.676L96.398 80.155C96.398 82.622 96.636 85.451 97.104 88.561L97.278 89.71 94.902 89.71C93.641 89.71 92.607 90.703 92.54 91.948L94.777 99.775 100.789 103.246 106.729 115.806C107.541 117.975 111.013 120.799 113.803 123.067 114.545 123.672 115.253 124.247 115.876 124.78 117.398 126.079 119.343 126.807 121.353 126.83L127.848 126.83C128.4 126.83 128.848 127.278 128.848 127.83 128.848 128.383 128.4 128.83 127.848 128.83M61.326 209.507L59.326 209.504 59.389 160.156C59.389 154.21 63.162 152.312 68.491 150.279L99.632 139.667 105.125 129.487 109.492 129.487 109.492 131.487 106.318 131.487 101.02 141.306 69.17 152.16C63.892 154.174 61.389 155.624 61.389 160.157L61.326 209.507M125.326 144.632L109.467 135.751C108.985 135.481 108.813 134.872 109.083 134.39 109.353 133.908 109.963 133.738 110.444 134.006L125.326 142.34 139.624 134.333C140.106 134.065 140.715 134.235 140.985 134.717 141.255 135.198 141.083 135.808 140.602 136.078L125.326 144.632M191.326 209.506L189.326 209.504 189.38 160.277C189.38 155.483 186.375 154.031 181.427 152.211L149.578 141.4 143.526 131.487 140.326 131.487 140.326 129.487 144.648 129.487 150.907 139.739 182.094 150.326C187.366 152.265 191.38 154.223 191.38 160.278L191.326 209.506"/>
    <path fill="#48515A" d="M116.325,156.486 C116.087,156.486 115.848,156.402 115.657,156.229 C115.246,155.86 115.213,155.228 115.583,154.817 L125.326,143.991 L135.069,154.817 C135.438,155.228 135.405,155.86 134.995,156.229 C134.583,156.6 133.952,156.565 133.583,156.155 L125.326,146.981 L117.069,156.155 C116.872,156.374 116.599,156.486 116.325,156.486"/>
    <polyline fill="#48515A" points="125.381 176.87 89.706 144.243 91.055 142.767 125.381 174.16 159.706 142.767 161.055 144.243 125.381 176.87"/>
    <polyline fill="#48515A" points="125.549 192.86 77.702 148.715 79.059 147.245 125.561 190.15 172.437 147.655 173.781 149.136 125.549 192.86"/>
    <polyline fill="#48515A" points="124.981 82.217 96.271 71.15 99.282 51.36 101.259 51.66 98.49 69.862 124.979 80.073 151.286 69.858 148.877 51.641 150.86 51.379 153.475 71.154 124.981 82.217"/>
    <path fill="#48515A" d="M87.464,48.921 L125.841,55.317 L159.955,48.921 L125.841,42.525 L87.464,48.921 Z M125.862,57.348 L75.298,48.921 L125.862,40.493 L170.807,48.921 L125.862,57.348 Z"/>
    <polygon fill="#48515A" points="160.381 59.506 162.381 59.506 162.381 49.505 160.381 49.505"/>
    <path fill="#F58E70" d="M161.38,57.505 C159.723,57.505 158.38,58.848 158.38,60.505 L158.38,67.507 L164.38,67.507 L164.38,60.505 C164.38,58.848 163.037,57.505 161.38,57.505"/>
    <polygon fill="#48515A" points="203.548 171.514 205.548 171.514 205.548 167.514 203.548 167.514"/>
    <polygon fill="#48515A" points="203.548 181.514 205.548 181.514 205.548 177.514 203.548 177.514"/>
    <polygon fill="#48515A" points="207.548 175.514 211.548 175.514 211.548 173.514 207.548 173.514"/>
    <polygon fill="#48515A" points="197.548 175.514 201.548 175.514 201.548 173.514 197.548 173.514"/>
    <polygon fill="#48515A" points="212.553 110.477 214.553 110.477 214.553 106.477 212.553 106.477"/>
    <polygon fill="#48515A" points="212.553 120.477 214.553 120.477 214.553 116.477 212.553 116.477"/>
    <polygon fill="#48515A" points="216.553 114.477 220.553 114.477 220.553 112.477 216.553 112.477"/>
    <polygon fill="#48515A" points="206.553 114.477 210.553 114.477 210.553 112.477 206.553 112.477"/>
    <polygon fill="#48515A" points="182.375 90.538 204.375 90.538 204.375 88.538 182.375 88.538"/>
    <path fill="#48515A" d="M165.476,120.538 C165.94,122.817 167.961,124.538 170.375,124.538 L187.481,124.538 C186.408,123.487 185.67,122.094 185.447,120.538 L165.476,120.538 Z M192.375,126.538 L170.375,126.538 C166.516,126.538 163.375,123.398 163.375,119.538 L163.375,118.538 L187.375,118.538 L187.375,119.538 C187.375,122.295 189.619,124.538 192.375,124.538 C195.132,124.538 197.375,122.295 197.375,119.538 L197.375,95.538 L199.375,95.538 L199.375,119.538 C199.375,123.398 196.235,126.538 192.375,126.538 Z"/>
    <path fill="#48515A" d="M177.375,119.538 L175.375,119.538 L175.375,95.538 C175.375,91.678 178.516,88.538 182.375,88.538 C185.896,88.538 188.817,91.15 189.304,94.538 L209.275,94.538 C208.811,92.258 206.79,90.538 204.375,90.538 L204.375,88.538 C208.235,88.538 211.375,91.678 211.375,95.538 L211.375,96.538 L187.375,96.538 L187.375,95.538 C187.375,92.781 185.132,90.538 182.375,90.538 C179.619,90.538 177.375,92.781 177.375,95.538 L177.375,119.538"/>
    <path fill="#475059" d="M155.209,198.453 L210.374,198.454 C212.028,198.454 213.374,197.108 213.375,195.454 C213.375,193.8 212.029,192.454 210.375,192.454 L155.209,192.454 L148.704,195.454 L155.209,198.453 Z M210.374,200.454 L154.771,200.453 L143.927,195.454 L154.771,190.454 L210.375,190.454 C213.131,190.454 215.375,192.697 215.375,195.454 C215.374,198.211 213.131,200.454 210.374,200.454 Z"/>
    <polygon fill="#475059" points="202.765 199.454 204.765 199.454 204.765 191.855 202.765 191.855"/>
    <polygon fill="#475059" points="155.758 196.425 203.765 196.425 203.765 194.425 155.758 194.425"/>
    <polyline fill="#FFF" points="85.477 67.526 49.417 67.526 49.417 71.528 45.414 71.528 45.414 97.527 85.477 97.527 85.477 67.526"/>
    <polygon fill="#FFF" points="48.331 94.526 82.414 94.526 82.414 74.443 48.331 74.443"/>
    <path fill="#475059" d="M49.331,93.527 L81.414,93.527 L81.414,75.444 L49.331,75.444 L49.331,93.527 Z M47.331,95.527 L83.415,95.527 L83.415,73.444 L47.331,73.444 L47.331,95.527 Z"/>
    <polyline fill="#FFF" points="78.414 90.527 67.414 90.527 65.373 92.527 63.54 90.527 52.331 90.527 52.331 70.443 63.414 70.443 65.373 72.443 67.414 70.443 78.414 70.443 78.414 90.527"/>
    <path fill="#475059" d="M53.331,89.527 L63.979,89.527 L65.411,91.089 L67.006,89.527 L77.415,89.527 L77.415,71.444 L67.822,71.444 L65.358,73.858 L62.994,71.444 L53.331,71.444 L53.331,89.527 Z M65.334,93.965 L63.1,91.527 L51.331,91.527 L51.331,69.444 L63.834,69.444 L65.387,71.029 L67.006,69.444 L79.415,69.444 L79.415,91.527 L67.822,91.527 L65.334,93.965 Z"/>
    <path fill="#FFF" d="M55.227,74.527 L61.352,74.527"/>
    <polygon fill="#475059" points="55.227 75.527 61.352 75.527 61.352 73.527 55.227 73.527"/>
    <path fill="#FFF" d="M55.227,78.527 L61.352,78.527"/>
    <polygon fill="#475059" points="55.227 79.527 61.352 79.527 61.352 77.527 55.227 77.527"/>
    <path fill="#FFF" d="M55.227,82.527 L61.352,82.527"/>
    <polygon fill="#475059" points="55.227 83.527 61.352 83.527 61.352 81.527 55.227 81.527"/>
    <path fill="#FFF" d="M69.227,74.527 L75.352,74.527"/>
    <polygon fill="#475059" points="69.227 75.527 75.352 75.527 75.352 73.527 69.227 73.527"/>
    <path fill="#FFF" d="M69.227,78.527 L75.352,78.527"/>
    <polygon fill="#475059" points="69.227 79.527 75.352 79.527 75.352 77.527 69.227 77.527"/>
    <path fill="#FFF" d="M69.227,82.527 L75.352,82.527"/>
    <polygon fill="#475059" points="69.227 83.527 75.352 83.527 75.352 81.527 69.227 81.527"/>
    <path fill="#FFF" d="M65.373,75.714 L65.373,85.527"/>
    <polygon fill="#475059" points="64.373 85.528 66.373 85.528 66.373 75.715 64.373 75.715"/>
    <path fill="#FFF" d="M55.227,86.527 L61.352,86.527"/>
    <polygon fill="#475059" points="55.227 87.527 61.352 87.527 61.352 85.527 55.227 85.527"/>
    <path fill="#FFF" d="M69.227,86.527 L75.352,86.527"/>
    <polygon fill="#475059" points="69.227 87.527 75.352 87.527 75.352 85.527 69.227 85.527"/>
  </g>
</svg>
