<svg xmlns="http://www.w3.org/2000/svg" width="250" height="250" viewBox="0 0 250 250">
  <g fill="none" fill-rule="evenodd">
    <path fill="#48515A" d="M153.9,207.971 L146.688,206.982 L146.215,172.23 C146.198,170.896 146.703,169.638 147.64,168.689 C148.576,167.74 149.826,167.218 151.16,167.218 L153.41,167.218 L153.41,169.218 L151.16,169.218 C150.366,169.218 149.621,169.529 149.064,170.094 C148.506,170.659 148.204,171.408 148.215,172.203 L148.664,205.234 L152.173,205.716 L156.501,172.008 L158.486,172.262 L153.9,207.971"/>
    <polyline fill="#FFD15D" points="176.66 123.219 170.035 130.469 173.16 135.219 175.16 149.219 168.453 158.289 149.244 167.635 166.161 179.219 166.161 170.577 188.528 167.789 191 152.784 191 129.635 187.16 119.727 178.827 117.469 176.66 123.219"/>
    <path fill="#5FE0ED" d="M72.062 116.533L72.065 117.699 72.824 119.018C75.576 123.572 77.109 128.789 77.276 134.107L78.115 156.768 102.713 167.393C104.083 168.065 105 169.466 105 170.993L105 206.784 95.021 207.533 93 207.533 93 176.784 76.626 170.577 61.496 167.789 59 152.784 59 124.784 61.145 116.533 72.062 116.533M46.984 189.301C46.984 190.957 45.641 192.301 43.984 192.301 42.327 192.301 40.984 190.957 40.984 189.301 40.984 187.644 42.327 186.301 43.984 186.301 45.641 186.301 46.984 187.644 46.984 189.301"/>
    <path fill="#F58E70" d="M120.958,117.533 L118.951,117.533 L117.402,119.46 L106.731,123.602 C104.429,124.499 102.912,126.709 102.91,129.18 L102.895,147.062 L145.145,147.284 L145.158,129.097 C145.16,126.681 143.713,124.5 141.487,123.562 L131.729,119.484 L129.963,117.533 L128.821,117.533 L124.52,119.345 L120.958,117.533"/>
    <path fill="#48515A" d="M84 179.532L50 179.532 50 171.288C50 168.577 52.158 166.532 55.021 166.532L65 166.532 65 168.532 55.021 168.532C53.299 168.532 52 169.717 52 171.288L52 177.532 82 177.532 82 172.532 84 172.532 84 179.532M63.708 117.699L61.729 117.409 62.933 109.198 61.697 108.204C60.102 106.634 59.175 104.458 59.143 102.219L59.14 102.091C59.14 97.372 62.975 93.533 67.688 93.533L72.424 93.533C74.684 93.533 76.615 94.424 78.161 96.183L78.246 96.285C79.404 97.599 80 99.384 80 101.567L80 112.655 72 114.581 72 117.532 70 117.532 70 113.005 78 111.079 78 101.567C78 99.885 77.571 98.545 76.725 97.584L76.64 97.481C75.493 96.177 74.108 95.533 72.424 95.533L67.688 95.533C64.106 95.533 61.186 98.429 61.141 102.008L61.142 102.099C61.142 103.831 61.842 105.521 63.065 106.744L65.078 108.353 63.708 117.699"/>
    <polygon fill="#FFD15D" points="120 212.533 129 212.533 129 152.533 120 152.533"/>
    <path fill="#48515A" d="M85.021,208.719 C84.47,208.719 84.021,209.167 84.021,209.719 C84.021,210.27 84.47,210.719 85.021,210.719 C85.573,210.719 86.021,210.27 86.021,209.719 C86.021,209.167 85.573,208.719 85.021,208.719 Z M85.021,212.719 C83.367,212.719 82.021,211.373 82.021,209.719 C82.021,208.064 83.367,206.719 85.021,206.719 C86.675,206.719 88.021,208.064 88.021,209.719 C88.021,211.373 86.675,212.719 85.021,212.719 Z"/>
    <path fill="#FFF" d="M71.021,162.283 L72.78,165.405 C73.257,166.251 74.271,166.637 75.19,166.321 L79.187,164.949 L79.687,162.033 L77.021,160.283"/>
    <path fill="#48515A" d="M74.536 167.431C73.472 167.431 72.455 166.865 71.909 165.895L70.15 162.773 71.892 161.792 73.651 164.914C73.892 165.341 74.402 165.536 74.865 165.376L78.301 164.196 78.591 162.509 76.472 161.118 77.57 159.447 80.783 161.556 80.072 165.703 75.514 167.267C75.192 167.378 74.862 167.431 74.536 167.431M50 155.532L57.021 155.532C57.506 155.532 58 154.902 58 154.282L58 124.282C58 123.606 57.316 123.532 57.021 123.532L50 123.532 50 155.532zM50.009 170.548L48 156.282 48 121.532 57.021 121.532C58.747 121.532 60 122.689 60 124.282L60 154.282C60 155.82 58.777 157.532 57.021 157.532L50.187 157.532 51.99 170.267 50.009 170.548z"/>
    <polyline fill="#48515A" points="86 207.532 84 207.532 84 206.609 72.317 202.532 61.7 202.532 50 206.609 50 207.532 48 207.532 48 205.188 61.361 200.532 72.656 200.532 86 205.188 86 207.532"/>
    <polygon fill="#48515A" points="66 188.532 68 188.532 68 178.532 66 178.532"/>
    <path fill="#48515A" d="M75,185.532 L79,185.532 L79,183.532 L75,183.532 L75,185.532 Z M73,187.532 L81,187.532 L81,181.532 L73,181.532 L73,187.532 Z"/>
    <polygon fill="#48515A" points="76 182.532 78 182.532 78 178.532 76 178.532"/>
    <polygon fill="#48515A" points="51 175.532 83 175.532 83 173.532 51 173.532"/>
    <polygon fill="#48515A" points="52 156.532 54 156.532 54 122.532 52 122.532"/>
    <polyline fill="#48515A" points="61.126 159.277 60.917 157.288 68.042 156.538 68.251 158.527 61.126 159.277"/>
    <path fill="#48515A" d="M70.505 163.506L62 146.519 62 136.532C62 135.98 62.447 135.532 63 135.532 63.552 135.532 64 135.98 64 136.532L64 146.046 71.516 161.059 75.74 159.65 70 142.445 70 126.282C70 124.689 68.747 123.532 67.021 123.532L65 123.532C64.448 123.532 64 123.085 64 122.532 64 121.98 64.448 121.532 65 121.532L67.021 121.532C69.86 121.532 72 123.574 72 126.282L72 142.12 78.27 160.915 70.505 163.506M65 200.532L69 200.532 69 190.532 65 190.532 65 200.532zM63 202.532L71 202.532 71 188.532 63 188.532 63 202.532zM49.021 208.719C48.47 208.719 48.021 209.167 48.021 209.719 48.021 210.27 48.47 210.719 49.021 210.719 49.572 210.719 50.021 210.27 50.021 209.719 50.021 209.167 49.572 208.719 49.021 208.719zM49.021 212.719C47.367 212.719 46.021 211.373 46.021 209.719 46.021 208.064 47.367 206.719 49.021 206.719 50.675 206.719 52.021 208.064 52.021 209.719 52.021 211.373 50.675 212.719 49.021 212.719zM73.021 208.719C72.47 208.719 72.021 209.167 72.021 209.719 72.021 210.27 72.47 210.719 73.021 210.719 73.573 210.719 74.021 210.27 74.021 209.719 74.021 209.167 73.573 208.719 73.021 208.719zM73.021 212.719C71.367 212.719 70.021 211.373 70.021 209.719 70.021 208.064 71.367 206.719 73.021 206.719 74.675 206.719 76.021 208.064 76.021 209.719 76.021 211.373 74.675 212.719 73.021 212.719zM61.021 208.719C60.47 208.719 60.021 209.167 60.021 209.719 60.021 210.27 60.47 210.719 61.021 210.719 61.572 210.719 62.021 210.27 62.021 209.719 62.021 209.167 61.572 208.719 61.021 208.719zM61.021 212.719C59.367 212.719 58.021 211.373 58.021 209.719 58.021 208.064 59.367 206.719 61.021 206.719 62.675 206.719 64.021 208.064 64.021 209.719 64.021 211.373 62.675 212.719 61.021 212.719z"/>
    <polyline fill="#48515A" points="62 207.532 60 207.532 60 204.957 63.194 200.597 64.807 201.779 62 205.612 62 207.532"/>
    <polyline fill="#48515A" points="74 207.532 72 207.532 72 205.612 69.194 201.779 70.808 200.597 74 204.957 74 207.532"/>
    <path fill="#48515A" d="M129,118.532 C128.448,118.532 128,118.085 128,117.532 L128,113.65 C128,113.003 128.429,112.564 128.743,112.243 C128.818,112.168 128.895,112.098 128.944,112.027 L130.716,108.202 L132.61,107.25 L132.965,105.485 L132.649,105.532 L131.488,105.532 L131.66,104.384 C131.714,104.026 131.773,103.708 131.829,103.415 C131.925,102.911 132,102.514 132,102.113 L132,101.79 C132,100.929 131.828,100.065 131.502,99.226 L131.241,98.744 C131.201,98.656 131.161,98.569 131.118,98.482 C130.631,97.499 129.915,96.617 129.05,95.935 C127.741,94.903 126.166,94.351 124.496,94.34 C122.539,94.308 120.714,95.095 119.295,96.505 C117.836,97.954 117,99.947 117,101.975 L117,102.113 C117,102.835 117.065,103.475 117.186,104.404 L117.332,105.532 L115.927,105.532 L116.415,107.25 L118.081,108.197 L119.883,111.971 C120.061,112.436 121.025,113.2 121.601,113.656 C121.863,113.863 122.113,114.062 122.329,114.246 C122.561,114.444 122.902,114.532 123.434,114.532 L125,114.532 C125.552,114.532 126,114.98 126,115.532 C126,116.085 125.552,116.532 125,116.532 L123.434,116.532 C122.787,116.532 121.833,116.453 121.03,115.767 C120.831,115.597 120.6,115.415 120.36,115.224 C119.387,114.454 118.382,113.657 118.044,112.751 L116.548,109.626 L114.716,108.585 L113.88,105.508 C113.88,104.689 114.379,103.985 115.087,103.686 C115.031,103.138 115,102.644 115,102.113 L115,101.975 C115,99.418 116.052,96.908 117.886,95.086 C119.685,93.298 122.05,92.326 124.51,92.34 C126.628,92.354 128.627,93.055 130.289,94.365 C131.308,95.169 132.163,96.191 132.777,97.335 L132.792,97.335 L133.115,97.914 C133.702,99.178 134,100.461 134,101.725 L134,102.113 C134,102.669 133.911,103.169 133.812,103.692 C134.038,103.791 134.246,103.935 134.425,104.119 C134.792,104.497 134.994,105.014 134.979,105.539 L134.96,105.707 L134.38,108.6 L132.237,109.677 L130.75,112.876 C130.646,113.159 130.395,113.416 130.173,113.642 C130.12,113.696 130.05,113.768 130,113.825 L130,117.532 C130,118.085 129.552,118.532 129,118.532"/>
    <path fill="#48515A" d="M120 117.532C119.448 117.532 119 117.085 119 116.532L119 113.532C119 112.98 119.448 112.532 120 112.532 120.552 112.532 121 112.98 121 113.532L121 116.532C121 117.085 120.552 117.532 120 117.532M127.161 124.734C126.887 124.734 126.615 124.622 126.418 124.403L124.578 122.359 122.738 124.403C122.369 124.812 121.736 124.847 121.326 124.477 120.915 124.108 120.882 123.475 121.252 123.065L124.578 119.368 127.904 123.065C128.274 123.475 128.24 124.108 127.83 124.477 127.639 124.649 127.4 124.734 127.161 124.734M123 147.532C122.448 147.532 122 147.085 122 146.532L122 141.532 124.606 141.532 126.606 139.532 136.885 139.532 136.017 132.658C135.948 132.11 136.336 131.61 136.884 131.54 137.427 131.471 137.932 131.859 138.001 132.407L139.154 141.532 127.434 141.532 125.434 143.532 124 143.532 124 146.532C124 147.085 123.552 147.532 123 147.532"/>
    <polyline fill="#FFF" points="115 146.533 115 144.283 121.02 142.533 123 142.533 123 146.533"/>
    <polyline fill="#48515A" points="124 146.532 122 146.532 122 143.532 121.163 143.532 116 145.033 116 146.532 114 146.532 114 143.532 121.02 141.532 124 141.532 124 146.532"/>
    <path fill="#48515A" d="M111 147.532C110.448 147.532 110 147.085 110 146.532L110 138.532C110 137.98 110.448 137.532 111 137.532 111.552 137.532 112 137.98 112 138.532L112 146.532C112 147.085 111.552 147.532 111 147.532M125 139.532C124.448 139.532 124 139.085 124 138.532L124 126.532C124 125.98 124.448 125.532 125 125.532 125.552 125.532 126 125.98 126 126.532L126 138.532C126 139.085 125.552 139.532 125 139.532"/>
    <path fill="#48515A" d="M88 151.532L161 151.532 161 147.532 88 147.532 88 151.532zM86 153.532L163 153.532 163 145.532 86 145.532 86 153.532zM96.021 210.532L112 210.532 112 209.964 104.251 206.929 96.02 207.864 96.021 210.532zM114 212.532L94.021 212.532 94.02 206.077 104.518 204.886 114 208.6 114 212.532zM200 179.532L166 179.532 166 172.532 168 172.532 168 177.532 198 177.532 198 171.288C198 169.691 196.77 168.532 195.075 168.532L185 168.532 185 166.532 195.075 166.532C197.883 166.532 200 168.577 200 171.288L200 179.532"/>
    <path fill="#FFF" d="M179.075,162.283 L177.316,165.405 C176.839,166.251 175.826,166.637 174.907,166.321 L170.91,164.949 L170.41,162.033 L173.075,160.283"/>
    <path fill="#48515A" d="M175.56 167.431C175.234 167.431 174.905 167.378 174.582 167.267L170.024 165.703 169.313 161.556 172.527 159.447 173.624 161.118 171.506 162.509 171.795 164.196 175.231 165.376C175.695 165.534 176.204 165.34 176.446 164.913L178.204 161.792 179.947 162.773 178.188 165.895C177.641 166.865 176.623 167.431 175.56 167.431M193.075 123.532C192.676 123.532 192 123.691 192 124.282L192 154.282C192 154.878 192.563 155.532 193.075 155.532L200 155.532 200 123.532 193.075 123.532zM199.99 170.548L198.01 170.267 199.814 157.532 193.075 157.532C191.466 157.532 190 155.984 190 154.282L190 124.282C190 122.715 191.323 121.532 193.075 121.532L202 121.532 201.99 156.423 199.99 170.548z"/>
    <polyline fill="#48515A" points="202 207.532 200 207.532 200 206.607 188.395 202.532 177.779 202.532 166 206.61 166 207.532 164 207.532 164 205.186 177.443 200.532 188.737 200.532 202 205.189 202 207.532"/>
    <polygon fill="#48515A" points="182 188.532 184 188.532 184 178.532 182 178.532"/>
    <path fill="#48515A" d="M171,185.532 L175,185.532 L175,183.532 L171,183.532 L171,185.532 Z M169,187.532 L177,187.532 L177,181.532 L169,181.532 L169,187.532 Z"/>
    <polygon fill="#48515A" points="172 182.532 174 182.532 174 178.532 172 178.532"/>
    <polygon fill="#48515A" points="167 175.532 199 175.532 199 173.532 167 173.532"/>
    <polygon fill="#48515A" points="196 156.532 198 156.532 198 122.532 196 122.532"/>
    <polyline fill="#48515A" points="188.971 159.277 181.846 158.527 182.055 156.538 189.18 157.288 188.971 159.277"/>
    <path fill="#48515A" d="M179.546 163.505L171.754 160.916 178 142.121 178 126.282C178 123.619 180.23 121.532 183.075 121.532L185 121.532C185.553 121.532 186 121.98 186 122.532 186 123.085 185.553 123.532 185 123.532L183.075 123.532C181.323 123.532 180 124.715 180 126.282L180 142.444 174.283 159.649 178.529 161.06 186 146.048 186 136.532C186 135.98 186.448 135.532 187 135.532 187.553 135.532 188 135.98 188 136.532L188 146.517 179.546 163.505M181 200.532L185 200.532 185 190.532 181 190.532 181 200.532zM179 202.532L187 202.532 187 188.532 179 188.532 179 202.532zM201.075 208.719C200.524 208.719 200.075 209.167 200.075 209.719 200.075 210.27 200.524 210.719 201.075 210.719 201.627 210.719 202.075 210.27 202.075 209.719 202.075 209.167 201.627 208.719 201.075 208.719zM201.075 212.719C199.421 212.719 198.075 211.373 198.075 209.719 198.075 208.064 199.421 206.719 201.075 206.719 202.73 206.719 204.075 208.064 204.075 209.719 204.075 211.373 202.73 212.719 201.075 212.719zM177.075 208.719C176.524 208.719 176.075 209.167 176.075 209.719 176.075 210.27 176.524 210.719 177.075 210.719 177.627 210.719 178.075 210.27 178.075 209.719 178.075 209.167 177.627 208.719 177.075 208.719zM177.075 212.719C175.421 212.719 174.075 211.373 174.075 209.719 174.075 208.064 175.421 206.719 177.075 206.719 178.73 206.719 180.075 208.064 180.075 209.719 180.075 211.373 178.73 212.719 177.075 212.719zM189.075 208.719C188.524 208.719 188.075 209.167 188.075 209.719 188.075 210.27 188.524 210.719 189.075 210.719 189.627 210.719 190.075 210.27 190.075 209.719 190.075 209.167 189.627 208.719 189.075 208.719zM189.075 212.719C187.421 212.719 186.075 211.373 186.075 209.719 186.075 208.064 187.421 206.719 189.075 206.719 190.73 206.719 192.075 208.064 192.075 209.719 192.075 211.373 190.73 212.719 189.075 212.719z"/>
    <polyline fill="#48515A" points="190 207.532 188 207.532 188 205.612 185.193 201.779 186.806 200.597 190 204.957 190 207.532"/>
    <polyline fill="#48515A" points="178 207.532 176 207.532 176 204.957 179.193 200.597 180.806 201.779 178 205.612 178 207.532"/>
    <path fill="#48515A" d="M165.069,208.719 C164.517,208.719 164.069,209.167 164.069,209.719 C164.069,210.27 164.517,210.719 165.069,210.719 C165.62,210.719 166.069,210.27 166.069,209.719 C166.069,209.167 165.62,208.719 165.069,208.719 Z M165.069,212.719 C163.414,212.719 162.069,211.373 162.069,209.719 C162.069,208.064 163.414,206.719 165.069,206.719 C166.723,206.719 168.069,208.064 168.069,209.719 C168.069,211.373 166.723,212.719 165.069,212.719 Z"/>
    <polyline fill="#48515A" points="145.37 212.532 139.002 212.532 139.002 208.63 147.55 204.866 154.075 206.148 154.074 212.219 152.074 212.219 152.075 207.793 147.781 206.95 141.002 209.934 141.002 210.532 144.95 210.532 147.91 209.232 147.91 208.385 149.91 208.385 149.91 210.538 145.37 212.532"/>
    <path fill="#48515A" d="M100,182.532 L142,182.532 L142,157.532 L100,157.532 L100,182.532 Z M98,184.532 L144,184.532 L144,155.532 L98,155.532 L98,184.532 Z"/>
    <path fill="#48515A" d="M120.89,171.551 C120.703,171.551 120.516,171.498 120.352,171.394 L104.229,161.119 L105.304,159.432 L120.888,169.364 L135.837,159.773 L136.917,161.457 L121.43,171.392 C121.265,171.498 121.077,171.551 120.89,171.551"/>
    <polyline fill="#48515A" points="138.861 181.086 129.937 170.38 131.473 169.099 140.397 179.805 138.861 181.086"/>
    <polyline fill="#48515A" points="102.919 181.086 101.383 179.805 110.306 169.099 111.842 170.38 102.919 181.086"/>
    <polygon fill="#48515A" points="35 102.532 37 102.532 37 98.533 35 98.533"/>
    <polygon fill="#48515A" points="35 112.532 37 112.532 37 108.532 35 108.532"/>
    <polygon fill="#48515A" points="29 106.532 33 106.532 33 104.532 29 104.532"/>
    <polygon fill="#48515A" points="39 106.532 43 106.532 43 104.532 39 104.532"/>
    <polygon fill="#48515A" points="213 162.532 215 162.532 215 158.532 213 158.532"/>
    <polygon fill="#48515A" points="213 172.532 215 172.532 215 168.532 213 168.532"/>
    <polygon fill="#48515A" points="207 166.532 211 166.532 211 164.532 207 164.532"/>
    <polygon fill="#48515A" points="217 166.532 221 166.532 221 164.532 217 164.532"/>
    <polyline fill="#48515A" points="153 101.532 151 101.532 151 94.533 156 94.533 156 96.533 153 96.533 153 101.532"/>
    <path fill="#F58E70" d="M152.02,83.283 C145.403,83.283 140.02,88.666 140.02,95.283 C140.02,101.899 145.403,107.282 152.02,107.282 C158.637,107.282 164.02,101.899 164.02,95.283 C164.02,88.666 158.637,83.283 152.02,83.283 Z M152.02,109.282 C144.301,109.282 138.02,103.002 138.02,95.283 C138.02,87.563 144.301,81.283 152.02,81.283 C159.74,81.283 166.02,87.563 166.02,95.283 C166.02,103.002 159.74,109.282 152.02,109.282 Z"/>
    <path fill="#48515A" d="M149.071,86.718 C148.95,86.178 149.29,85.648 149.83,85.518 L149.821,85.518 C150.361,85.398 150.901,85.738 151.02,86.279 C151.14,86.819 150.8,87.358 150.26,87.478 C150.191,87.488 150.111,87.498 150.04,87.498 C149.58,87.498 149.17,87.178 149.071,86.718 Z M153.821,87.488 C153.281,87.358 152.95,86.828 153.071,86.288 C153.2,85.748 153.73,85.408 154.27,85.538 C154.81,85.658 155.151,86.198 155.02,86.738 C154.91,87.199 154.5,87.508 154.05,87.508 C153.97,87.508 153.901,87.508 153.821,87.488 Z M145.65,88.848 C145.3,88.418 145.38,87.788 145.81,87.438 C146.24,87.098 146.87,87.178 147.22,87.608 C147.56,88.038 147.49,88.668 147.05,89.008 C146.87,89.158 146.651,89.228 146.43,89.228 C146.14,89.228 145.84,89.098 145.65,88.848 Z M157.02,89.038 C156.59,88.699 156.52,88.058 156.87,87.638 C157.21,87.199 157.84,87.138 158.27,87.478 C158.7,87.828 158.77,88.458 158.43,88.888 C158.23,89.128 157.941,89.258 157.651,89.258 C157.43,89.258 157.21,89.188 157.02,89.038 Z M143.49,92.248 C142.99,92.008 142.78,91.408 143.02,90.908 C143.27,90.408 143.86,90.208 144.36,90.449 C144.86,90.688 145.07,91.288 144.82,91.788 C144.65,92.138 144.29,92.348 143.92,92.348 C143.78,92.348 143.63,92.319 143.49,92.248 Z M159.24,91.828 C159,91.328 159.21,90.728 159.7,90.498 C160.2,90.258 160.8,90.468 161.04,90.958 L161.04,90.968 C161.281,91.458 161.071,92.058 160.571,92.299 C160.43,92.358 160.281,92.398 160.14,92.398 C159.76,92.398 159.41,92.188 159.24,91.828 Z M142.02,95.279 C142.02,95.279 142.02,95.279 142.02,95.268 C142.02,95.258 142.02,95.248 142.02,95.238 C142.02,94.688 142.47,94.238 143.02,94.248 C143.58,94.248 144.02,94.699 144.02,95.248 C144.02,95.258 144.02,95.268 144.02,95.279 C144.02,95.838 143.57,96.279 143.02,96.279 C142.47,96.279 142.02,95.838 142.02,95.279 Z M160.02,95.299 C160.02,94.748 160.47,94.299 161.02,94.299 C161.571,94.299 162.02,94.748 162.02,95.299 C162.02,95.858 161.571,96.299 161.02,96.299 C160.46,96.299 160.02,95.848 160.02,95.299 Z M143.01,99.618 C142.77,99.118 142.98,98.529 143.47,98.288 C143.97,98.049 144.57,98.258 144.81,98.748 C145.05,99.248 144.84,99.848 144.34,100.088 C144.2,100.158 144.06,100.188 143.91,100.188 C143.54,100.188 143.18,99.978 143.01,99.618 Z M159.691,100.098 C159.191,99.858 158.98,99.258 159.22,98.768 C159.46,98.268 160.06,98.058 160.56,98.299 C161.06,98.538 161.26,99.138 161.02,99.638 C160.85,99.998 160.49,100.198 160.12,100.198 C159.97,100.198 159.83,100.168 159.691,100.098 Z M145.78,103.098 C145.35,102.748 145.28,102.128 145.62,101.688 C145.97,101.259 146.6,101.188 147.031,101.538 C147.46,101.878 147.531,102.509 147.18,102.938 C146.99,103.188 146.7,103.319 146.401,103.319 C146.18,103.319 145.96,103.248 145.78,103.098 Z M156.84,102.948 C156.49,102.518 156.571,101.888 157,101.549 C157.43,101.198 158.06,101.268 158.401,101.708 C158.75,102.138 158.68,102.768 158.24,103.108 C158.06,103.259 157.84,103.328 157.62,103.328 C157.33,103.328 157.031,103.198 156.84,102.948 Z M149.79,105.029 C149.25,104.908 148.91,104.378 149.031,103.838 C149.16,103.299 149.691,102.958 150.23,103.078 C150.77,103.208 151.111,103.739 150.98,104.279 C150.88,104.748 150.47,105.058 150.01,105.058 C149.93,105.058 149.861,105.049 149.79,105.029 Z M153.04,104.279 C152.92,103.739 153.25,103.208 153.79,103.088 C154.33,102.969 154.861,103.299 154.99,103.838 C155.111,104.378 154.77,104.908 154.23,105.038 C154.16,105.049 154.09,105.058 154.01,105.058 C153.56,105.058 153.14,104.748 153.04,104.279 Z"/>
    <polygon fill="#FFF" points="59 76.533 79 76.533 79 48.533 59 48.533"/>
    <path fill="#475059" d="M60,75.533 L78,75.533 L78,49.533 L60,49.533 L60,75.533 Z M58,77.533 L80,77.533 L80,47.533 L58,47.533 L58,77.533 Z"/>
    <polygon fill="#FFF" points="63 56.533 75 56.533 75 52.533 63 52.533"/>
    <path fill="#475059" d="M64,55.533 L74,55.533 L74,53.533 L64,53.533 L64,55.533 Z M62,57.533 L76,57.533 L76,51.533 L62,51.533 L62,57.533 Z"/>
    <path fill="#FFF" d="M63,59.533 L63,73.533"/>
    <path fill="#475059" d="M62,61.533 L64,61.533 L64,59.533 L62,59.533 L62,61.533 Z M62,65.533 L64,65.533 L64,63.533 L62,63.533 L62,65.533 Z M62,69.533 L64,69.533 L64,67.533 L62,67.533 L62,69.533 Z M62,73.533 L64,73.533 L64,71.533 L62,71.533 L62,73.533 Z"/>
    <path fill="#FFF" d="M67,59.533 L67,73.533"/>
    <path fill="#475059" d="M66,61.533 L68,61.533 L68,59.533 L66,59.533 L66,61.533 Z M66,65.533 L68,65.533 L68,63.533 L66,63.533 L66,65.533 Z M66,69.533 L68,69.533 L68,67.533 L66,67.533 L66,69.533 Z M66,73.533 L68,73.533 L68,71.533 L66,71.533 L66,73.533 Z"/>
    <path fill="#FFF" d="M71,59.533 L71,73.533"/>
    <path fill="#475059" d="M70,61.533 L72,61.533 L72,59.533 L70,59.533 L70,61.533 Z M70,65.533 L72,65.533 L72,63.533 L70,63.533 L70,65.533 Z M70,69.533 L72,69.533 L72,67.533 L70,67.533 L70,69.533 Z M70,73.533 L72,73.533 L72,71.533 L70,71.533 L70,73.533 Z"/>
    <path fill="#FFF" d="M75,59.533 L75,65.533"/>
    <path fill="#475059" d="M74,61.533 L76,61.533 L76,59.533 L74,59.533 L74,61.533 Z M74,65.533 L76,65.533 L76,63.533 L74,63.533 L74,65.533 Z"/>
    <path fill="#FFF" d="M75,67.533 L75,73.533"/>
    <polygon fill="#475059" points="74 73.533 76 73.533 76 67.533 74 67.533"/>
    <path fill="#48515A" d="M69.458,40.282 C57.396,40.282 47.582,50.096 47.582,62.158 C47.582,72.677 55.078,81.717 65.406,83.652 L65.789,83.724 L69.458,88.616 L73.127,83.724 L73.509,83.652 C83.838,81.717 91.334,72.677 91.334,62.158 C91.334,50.096 81.52,40.282 69.458,40.282 Z M69.458,91.949 L64.653,85.542 C53.578,83.281 45.582,73.508 45.582,62.158 C45.582,48.992 56.293,38.282 69.458,38.282 C82.623,38.282 93.334,48.992 93.334,62.158 C93.334,73.508 85.338,83.281 74.263,85.543 L69.458,91.949 Z"/>
    <path fill="#475059" d="M142.071,67.124 L140.17,66.504 L140.51,65.457 L139.195,65.029 C137.635,64.52 136.628,63.131 136.629,61.49 C136.631,59.848 137.64,58.461 139.202,57.956 L140.518,57.529 L139.795,55.294 L138.478,55.721 C136.917,56.227 135.285,55.694 134.322,54.366 C133.359,53.037 133.36,51.321 134.326,49.994 L135.14,48.875 L133.241,47.492 L132.427,48.611 C131.461,49.939 129.828,50.469 128.268,49.958 C126.708,49.449 125.7,48.06 125.702,46.419 L125.703,45.035 L123.354,45.033 L123.352,46.417 C123.351,48.058 122.341,49.445 120.78,49.95 C119.217,50.458 117.587,49.924 116.623,48.596 L115.811,47.475 L113.908,48.855 L114.721,49.975 C115.684,51.303 115.683,53.02 114.717,54.346 C113.751,55.673 112.118,56.2 110.558,55.693 L109.243,55.264 L108.902,56.31 L107,55.69 L107.961,52.742 L111.178,53.791 C112.054,54.077 112.745,53.657 113.1,53.169 C113.455,52.681 113.642,51.894 113.102,51.149 L111.115,48.409 L116.256,44.682 L118.242,47.422 C118.783,48.167 119.59,48.234 120.163,48.048 C120.738,47.862 121.351,47.335 121.352,46.415 L121.356,43.031 L127.705,43.037 L127.702,46.421 C127.701,47.342 128.314,47.869 128.887,48.056 C129.462,48.244 130.267,48.179 130.81,47.434 L132.802,44.698 L137.934,48.436 L135.943,51.171 C135.401,51.916 135.587,52.703 135.941,53.192 C136.295,53.68 136.987,54.102 137.862,53.818 L141.081,52.776 L143.037,58.816 L139.818,59.858 C138.942,60.142 138.63,60.888 138.629,61.492 C138.629,62.095 138.94,62.842 139.815,63.127 L143.032,64.176 L142.071,67.124"/>
    <path fill="#F58E70" d="M132.7,64.147 L130.799,63.527 C131.346,61.848 131.207,60.056 130.406,58.482 C129.606,56.908 128.241,55.739 126.562,55.192 C124.883,54.644 123.092,54.784 121.516,55.584 C119.942,56.384 118.774,57.749 118.226,59.428 L116.325,58.808 C117.038,56.621 118.56,54.843 120.61,53.801 C122.66,52.758 124.995,52.576 127.182,53.29 C129.369,54.003 131.147,55.525 132.189,57.575 C133.232,59.626 133.413,61.96 132.7,64.147"/>
    <path fill="#F58E70" d="M124.529,70.02 C123.646,70.02 122.749,69.883 121.865,69.595 C119.678,68.882 117.9,67.36 116.858,65.309 C115.816,63.258 115.635,60.925 116.348,58.738 L118.249,59.358 C117.702,61.037 117.841,62.829 118.641,64.403 C119.441,65.977 120.806,67.146 122.486,67.694 C125.951,68.824 129.691,66.924 130.822,63.458 L132.723,64.078 C131.539,67.708 128.156,70.02 124.529,70.02"/>
    <path fill="#475059" d="M127.691,79.855 L121.341,79.848 L121.344,76.465 C121.345,75.544 120.733,75.016 120.159,74.828 C119.585,74.642 118.779,74.706 118.237,75.451 L116.245,78.186 L111.112,74.449 L113.104,71.713 C113.646,70.969 113.46,70.182 113.106,69.693 C112.752,69.204 112.06,68.784 111.185,69.067 L107.966,70.109 L106.01,64.069 L109.229,63.026 C110.105,62.742 110.418,61.996 110.419,61.393 C110.419,60.789 110.108,60.043 109.233,59.757 L106.016,58.708 L107.096,55.395 L108.997,56.015 L108.537,57.427 L109.853,57.856 C111.413,58.365 112.42,59.754 112.419,61.395 C112.417,63.036 111.407,64.423 109.845,64.928 L108.529,65.355 L109.253,67.59 L110.569,67.164 C112.134,66.66 113.762,67.191 114.725,68.519 C115.688,69.848 115.687,71.564 114.721,72.89 L113.906,74.009 L115.805,75.392 L116.62,74.273 C117.587,72.947 119.219,72.42 120.779,72.927 C122.339,73.436 123.346,74.825 123.344,76.467 L123.343,77.85 L125.693,77.853 L125.694,76.469 C125.696,74.827 126.706,73.44 128.268,72.935 C129.828,72.432 131.461,72.962 132.423,74.29 L133.236,75.411 L135.138,74.031 L134.326,72.911 C133.363,71.583 133.365,69.867 134.33,68.54 C135.296,67.214 136.928,66.686 138.489,67.194 L139.805,67.623 L140.314,66.062 L142.215,66.682 L141.086,70.144 L137.869,69.095 C136.995,68.811 136.302,69.23 135.947,69.717 C135.592,70.205 135.405,70.992 135.945,71.738 L137.931,74.477 L132.79,78.204 L130.804,75.464 C130.264,74.718 129.459,74.653 128.884,74.838 C128.309,75.024 127.695,75.55 127.694,76.471 L127.691,79.855"/>
    <path fill="#FFD15D" d="M128.541,61.544 C128.541,63.794 126.718,65.617 124.469,65.617 C122.219,65.617 120.396,63.794 120.396,61.544 C120.396,59.295 122.219,57.472 124.469,57.472 C126.718,57.472 128.541,59.295 128.541,61.544"/>
    <path fill="#FFD15D" d="M124.469,57.972 C122.499,57.972 120.896,59.574 120.896,61.545 C120.896,62.499 121.267,63.396 121.942,64.071 C122.617,64.745 123.514,65.117 124.469,65.117 C126.439,65.117 128.041,63.514 128.041,61.545 C128.041,59.574 126.439,57.972 124.469,57.972 Z M124.469,66.117 C123.247,66.117 122.099,65.641 121.235,64.778 C120.371,63.914 119.896,62.766 119.896,61.545 C119.896,59.023 121.948,56.972 124.469,56.972 C126.99,56.972 129.041,59.023 129.041,61.545 C129.041,64.066 126.99,66.117 124.469,66.117 Z"/>
    <path fill="#48515A" d="M124.895,39.281 C112.833,39.281 103.02,49.095 103.02,61.157 C103.02,71.677 110.516,80.717 120.844,82.652 L121.226,82.723 L124.895,87.615 L128.564,82.723 L128.947,82.652 C139.275,80.717 146.771,71.677 146.771,61.157 C146.771,49.095 136.957,39.281 124.895,39.281 Z M124.895,90.949 L120.09,84.542 C109.016,82.28 101.02,72.508 101.02,61.157 C101.02,47.992 111.73,37.281 124.895,37.281 C138.06,37.281 148.771,47.992 148.771,61.157 C148.771,72.508 140.775,82.28 129.7,84.542 L124.895,90.949 Z"/>
    <path fill="#FFD15D" d="M188.495,56.737 C188.495,61.432 184.69,65.237 179.995,65.237 C175.3,65.237 171.494,61.432 171.494,56.737 C171.494,52.042 175.3,48.236 179.995,48.236 C184.69,48.236 188.495,52.042 188.495,56.737"/>
    <path fill="#48515A" d="M186,74.533 C185.448,74.533 185,74.085 185,73.533 L185,70.063 C185,68.176 185.905,66.229 187.482,64.718 C189.716,62.575 190.948,59.756 190.948,56.78 C190.948,53.714 189.726,50.866 187.508,48.764 C185.303,46.674 182.398,45.615 179.357,45.774 C173.711,46.076 169.147,50.75 168.964,56.416 C168.865,59.468 170.177,62.513 172.563,64.769 C174.134,66.256 175,68.08 175,69.906 L175,73.533 C175,74.085 174.553,74.533 174,74.533 C173.448,74.533 173,74.085 173,73.533 L173,69.906 C173,68.654 172.34,67.311 171.188,66.222 C168.387,63.572 166.849,59.975 166.966,56.352 C167.181,49.657 172.576,44.133 179.249,43.777 C182.873,43.583 186.278,44.84 188.884,47.312 C191.504,49.797 192.948,53.159 192.948,56.78 C192.948,60.255 191.459,63.675 188.865,66.162 C187.68,67.298 187,68.719 187,70.063 L187,73.533 C187,74.085 186.553,74.533 186,74.533"/>
    <path fill="#48515A" d="M179.921,81.416 C179.399,81.416 178.959,81.011 178.924,80.482 C178.888,79.931 179.305,79.455 179.857,79.418 L182.733,79.228 C183.167,79.177 183.589,79.012 183.972,78.739 L184.296,78.4 C184.763,77.933 185,77.241 185,76.343 L185,73.533 C185,72.98 185.448,72.533 186,72.533 C186.553,72.533 187,72.98 187,73.533 L187,76.343 C187,76.988 186.914,77.576 186.743,78.107 L187.417,78.107 L185.784,79.814 C184.99,80.609 183.997,81.094 182.912,81.22 L179.988,81.414 C179.966,81.416 179.944,81.416 179.921,81.416"/>
    <path fill="#48515A" d="M189,74.533 L172,74.533 C171.448,74.533 171,74.085 171,73.533 C171,72.98 171.448,72.533 172,72.533 L189,72.533 C189.553,72.533 190,72.98 190,73.533 C190,74.085 189.553,74.533 189,74.533"/>
    <path fill="#48515A" d="M180.471,81.533 L177.611,81.533 C176.421,81.533 175.246,80.987 174.214,79.954 L173.692,79.432 L173.8,79.227 C173.269,78.449 173,77.483 173,76.343 L173,73.533 C173,72.98 173.448,72.533 174,72.533 C174.553,72.533 175,72.98 175,73.533 L175,76.343 C175,77.242 175.237,77.934 175.703,78.401 L176.225,78.923 L176.178,79.01 C176.58,79.299 177.073,79.533 177.611,79.533 L179.74,79.533 C180.141,79.302 180.662,79.374 180.983,79.733 C181.351,80.144 181.316,80.777 180.905,81.145 L180.471,81.533"/>
    <polyline fill="#48515A" points="183 73.533 181 73.533 181 65.772 186 55.855 186 54.533 188 54.533 188 56.33 183 66.247 183 73.533"/>
    <polyline fill="#48515A" points="179 73.533 177 73.533 177 66.247 172 56.33 172 54.533 174 54.533 174 55.854 179 65.772 179 73.533"/>
    <path fill="#48515A" d="M175,55.529 C175,54.978 175.45,54.529 176,54.529 C176.55,54.529 177,54.978 177,55.529 C177,56.088 176.55,56.529 176,56.529 C175.45,56.529 175,56.088 175,55.529 Z M179,55.529 C179,54.978 179.45,54.529 180,54.529 C180.55,54.529 181,54.978 181,55.529 C181,56.088 180.55,56.529 180,56.529 C179.45,56.529 179,56.088 179,55.529 Z M183,55.529 C183,54.978 183.45,54.529 184,54.529 C184.55,54.529 185,54.978 185,55.529 C185,56.088 184.55,56.529 184,56.529 C183.45,56.529 183,56.088 183,55.529 Z"/>
    <path fill="#48515A" d="M180.145 40.282C168.082 40.282 158.269 50.096 158.269 62.158 158.269 72.677 165.765 81.717 176.093 83.652L176.475 83.724 180.145 88.616 183.814 83.724 184.196 83.652C194.524 81.717 202.02 72.678 202.02 62.158 202.02 50.096 192.206 40.282 180.145 40.282zM180.145 91.949L175.339 85.543C164.265 83.281 156.269 73.508 156.269 62.158 156.269 48.992 166.98 38.282 180.145 38.282 193.31 38.282 204.02 48.992 204.02 62.158 204.02 73.508 196.024 83.281 184.949 85.543L180.145 91.949zM94.02 109.282C92.917 109.282 92.02 110.179 92.02 111.282 92.02 112.385 92.917 113.282 94.02 113.282 95.123 113.282 96.02 112.385 96.02 111.282 96.02 110.179 95.123 109.282 94.02 109.282zM94.02 115.282C91.815 115.282 90.02 113.488 90.02 111.282 90.02 109.077 91.815 107.282 94.02 107.282 96.226 107.282 98.02 109.077 98.02 111.282 98.02 113.488 96.226 115.282 94.02 115.282z"/>
    <path fill="#FFD15D" d="M205.02,197.283 C205.02,198.939 203.677,200.283 202.02,200.283 C200.363,200.283 199.02,198.939 199.02,197.283 C199.02,195.626 200.363,194.283 202.02,194.283 C203.677,194.283 205.02,195.626 205.02,197.283"/>
    <polygon fill="#48515A" points="117 194.532 119 194.532 119 190.532 117 190.532"/>
    <polygon fill="#48515A" points="117 204.532 119 204.532 119 200.532 117 200.532"/>
    <polygon fill="#48515A" points="111 198.532 115 198.532 115 196.532 111 196.532"/>
    <polygon fill="#48515A" points="121 198.532 125 198.532 125 196.532 121 196.532"/>
    <path fill="#475059" d="M171.843,103.052 C171.581,103.895 171.44,104.791 171.44,105.719 L171.44,109.171 C171.44,111.927 173.683,114.171 176.44,114.171 L177.493,114.2 L177.493,103.052 L171.843,103.052 Z M172.746,101.052 L179.493,101.052 L179.493,114.472 C179.493,116.264 180.951,117.722 182.743,117.722 L190.066,117.722 L188.944,105.377 C188.94,100.322 185.365,96.719 180.44,96.719 C177.185,96.719 174.327,98.456 172.746,101.052 Z M192.255,119.722 L182.743,119.722 C180.457,119.722 178.508,118.253 177.789,116.209 L176.411,116.17 L176.41,116.17 C172.579,116.17 169.44,113.03 169.44,109.171 L169.44,105.719 C169.44,99.654 174.374,94.719 180.44,94.719 C186.524,94.719 190.94,99.163 190.94,105.286 L192.255,119.722 Z"/>
    <polygon fill="#475059" points="185.159 119.727 187.159 119.727 187.159 118.722 185.159 118.722"/>
  </g>
</svg>
