<svg xmlns="http://www.w3.org/2000/svg" width="250" height="250" viewBox="0 0 250 250">
  <g fill="none" fill-rule="evenodd">
    <polygon fill="#DFE0E0" points="126.969 212.267 151.976 212.267 151.976 206.27 126.969 206.27"/>
    <polygon fill="#DFE0E0" points="126.969 218.266 156.964 218.266 156.964 212.268 126.969 212.268"/>
    <path fill="#DFE0E0" d="M136.979,202.268 C135.874,202.268 134.979,201.373 134.979,200.268 L134.979,193.268 L126.969,193.268 L126.969,205.268 L142.979,205.268 L142.979,202.268 L136.979,202.268"/>
    <polyline fill="#DFE0E0" points="126.387 193.031 126.387 64.512 131.553 64.517 131.553 193.037 126.387 193.031"/>
    <polygon fill="#DFE0E0" points="118.972 70.091 130.969 70.091 130.969 64.926 118.972 64.926"/>
    <path fill="#DFE0E0" d="M139.977,56.186 L139.977,59.185 L136.979,59.185 C135.874,59.185 134.979,60.08 134.979,61.185 L134.979,64.183 L114.964,64.183 L114.964,61.185 C114.964,60.08 114.069,59.185 112.964,59.185 L109.966,59.185 L109.966,56.186 L139.977,56.186"/>
    <path fill="#FFD15D" d="M50.163,43.018 C50.163,44.675 48.82,46.018 47.163,46.018 C45.506,46.018 44.163,44.675 44.163,43.018 C44.163,41.361 45.506,40.018 47.163,40.018 C48.82,40.018 50.163,41.361 50.163,43.018"/>
    <path fill="#FFD15D" d="M47.163,41.018 C46.06,41.018 45.163,41.915 45.163,43.018 C45.163,44.12 46.06,45.018 47.163,45.018 C48.266,45.018 49.163,44.12 49.163,43.018 C49.163,41.915 48.266,41.018 47.163,41.018 Z M47.163,47.018 C44.957,47.018 43.163,45.224 43.163,43.018 C43.163,40.811 44.957,39.018 47.163,39.018 C49.369,39.018 51.163,40.811 51.163,43.018 C51.163,45.224 49.369,47.018 47.163,47.018 Z"/>
    <path fill="#475059" d="M47.163,37.018 C43.854,37.018 41.163,39.709 41.163,43.018 C41.163,46.326 43.854,49.018 47.163,49.018 C50.472,49.018 53.163,46.326 53.163,43.018 C53.163,39.709 50.472,37.018 47.163,37.018 Z M47.163,51.018 C42.752,51.018 39.163,47.429 39.163,43.018 C39.163,38.606 42.752,35.018 47.163,35.018 C51.574,35.018 55.163,38.606 55.163,43.018 C55.163,47.429 51.574,51.018 47.163,51.018 Z"/>
    <path fill="#FFD15D" d="M200.235,43.018 C200.235,44.675 201.578,46.018 203.235,46.018 C204.892,46.018 206.235,44.675 206.235,43.018 C206.235,41.361 204.892,40.018 203.235,40.018 C201.578,40.018 200.235,41.361 200.235,43.018"/>
    <path fill="#FFD15D" d="M203.235,41.018 C202.132,41.018 201.235,41.915 201.235,43.018 C201.235,44.12 202.132,45.018 203.235,45.018 C204.337,45.018 205.235,44.12 205.235,43.018 C205.235,41.915 204.337,41.018 203.235,41.018 Z M203.235,47.018 C201.029,47.018 199.235,45.224 199.235,43.018 C199.235,40.811 201.029,39.018 203.235,39.018 C205.441,39.018 207.235,40.811 207.235,43.018 C207.235,45.224 205.441,47.018 203.235,47.018 Z"/>
    <path fill="#475059" d="M203.235 37.018C199.926 37.018 197.235 39.709 197.235 43.018 197.235 46.326 199.926 49.018 203.235 49.018 206.543 49.018 209.235 46.326 209.235 43.018 209.235 39.709 206.543 37.018 203.235 37.018zM203.235 51.018C198.824 51.018 195.235 47.429 195.235 43.018 195.235 38.606 198.824 35.018 203.235 35.018 207.646 35.018 211.235 38.606 211.235 43.018 211.235 47.429 207.646 51.018 203.235 51.018zM37.913 192.036L95.925 192.036 95.925 188.033C95.925 183.961 98.984 180.59 102.924 180.097L102.924 178.034 30.912 178.034 30.912 180.097C34.854 180.59 37.913 183.961 37.913 188.033L37.913 192.036zM97.925 194.036L35.913 194.036 35.913 188.033C35.913 184.726 33.222 182.034 29.914 182.034L28.914 182.034 28.912 176.034 104.924 176.034 104.924 182.034 103.924 182.034C100.616 182.034 97.925 184.726 97.925 188.033L97.925 194.036z"/>
    <polyline fill="#475059" points="101.006 169.039 99.006 169.039 99.006 168.15 71.413 45.554 73.364 45.114 101.006 167.928 101.006 169.039"/>
    <path fill="#FFD15D" d="M39.913,190.037 L93.925,190.037 L93.925,188.033 C93.925,184.766 95.5,181.86 97.931,180.034 L35.907,180.034 C38.338,181.86 39.913,184.766 39.913,188.033 L39.913,190.037"/>
    <path fill="#475059" d="M43.995,196.039 L90.007,196.039 L90.007,194.039 L43.995,194.039 L43.995,196.039 Z M41.995,198.039 L92.007,198.039 L92.007,192.039 L41.995,192.039 L41.995,198.039 Z"/>
    <polyline fill="#475059" points="34.993 169.03 32.993 169.03 33.021 167.796 65.131 35.018 70.688 35.018 72.131 40.461 70.197 40.973 69.149 37.018 66.706 37.018 34.993 168.15 34.993 169.03"/>
    <polygon fill="#475059" points="32.994 177.039 34.994 177.039 34.994 171.039 32.994 171.039"/>
    <polygon fill="#475059" points="99.09 177.039 101.09 177.039 101.09 171.046 99.09 171.046"/>
    <path fill="#475059" d="M153.983,193.037 L211.995,193.037 L211.995,189.034 C211.995,184.962 215.053,181.591 218.994,181.098 L218.994,179.035 L146.982,179.035 L146.982,181.098 C150.923,181.591 153.983,184.962 153.983,189.034 L153.983,193.037 Z M213.995,195.037 L151.983,195.037 L151.983,189.034 C151.983,185.727 149.292,183.035 145.983,183.035 L144.983,183.035 L144.982,177.035 L220.994,177.035 L220.994,183.035 L219.994,183.035 C216.686,183.035 213.995,185.727 213.995,189.034 L213.995,195.037 Z"/>
    <polyline fill="#475059" points="217.076 170.039 215.076 170.039 215.076 169.15 187.482 45.552 189.433 45.116 217.076 168.93 217.076 170.039"/>
    <path fill="#FFD15D" d="M155.983,191.038 L209.995,191.038 L209.995,189.034 C209.995,185.766 211.569,182.861 214,181.035 L151.976,181.035 C154.407,182.861 155.983,185.766 155.983,189.034 L155.983,191.038"/>
    <path fill="#475059" d="M160.064,197.039 L206.076,197.039 L206.076,195.039 L160.064,195.039 L160.064,197.039 Z M158.064,199.039 L208.076,199.039 L208.076,193.039 L158.064,193.039 L158.064,199.039 Z"/>
    <polyline fill="#475059" points="151.062 170.031 149.062 170.031 149.089 168.799 181.2 35.018 186.757 35.018 188.201 40.461 186.267 40.973 185.218 37.018 182.776 37.018 151.062 169.15 151.062 170.031"/>
    <polygon fill="#475059" points="149.064 178.039 151.064 178.039 151.064 172.039 149.064 172.039"/>
    <polygon fill="#475059" points="215.16 178.039 217.16 178.039 217.16 172.047 215.16 172.047"/>
    <path fill="#DFE0E0" d="M73.574,92.567 L75.345,95.753 C76.312,97.493 76.771,99.47 76.668,101.458 L75.324,129.013 L75.325,129.014 L57.992,129.014 L57.995,129.012 L58.665,110.108 C58.876,104.408 60.736,98.892 64.019,94.229 L65.332,92.464 L65.333,92.451 L73.56,92.451 L73.574,92.567"/>
    <path fill="#475059" d="M71.183,139.918 C71.167,139.918 71.151,139.918 71.135,139.918 L66.398,139.918 L66.398,139.22 C66.188,139.272 65.97,139.301 65.745,139.301 L64.177,139.301 L64.177,134.474 C64.177,133.171 64.613,131.885 65.405,130.851 L66.232,129.542 L66.822,116.347 L65.771,103.809 L67.765,103.641 L68.826,116.308 L68.207,130.164 L67.042,131.995 C66.467,132.754 66.177,133.608 66.177,134.474 L66.177,137.137 C66.312,137.018 66.398,136.843 66.398,136.648 L66.398,136.469 L68.397,136.469 L68.397,137.918 L71.148,137.918 C71.613,137.946 72.005,137.76 72.317,137.456 C72.628,137.153 72.802,136.746 72.808,136.312 L72.824,134.959 C72.824,133.433 72.587,131.893 72.119,130.394 L74.028,129.798 C74.557,131.49 74.824,133.23 74.824,134.972 L74.808,136.337 C74.795,137.306 74.407,138.212 73.713,138.889 C73.031,139.554 72.134,139.918 71.183,139.918"/>
    <polyline fill="#475059" points="73.748 130.764 69.324 130.764 69.324 128.764 72.9 128.764 74.417 127.193 75.855 128.584 73.748 130.764"/>
    <polyline fill="#48515A" points="66.354 177.103 65.212 160.451 61.876 140.906 60.23 138.175 61.943 137.142 63.785 140.197 67.204 160.265 68.349 176.966 66.354 177.103"/>
    <path fill="#48515A" d="M75.274,177.101 L73.311,142.058 L75.074,138.477 L75.074,131.896 L74.318,129.123 L74.325,128.965 L75.669,101.409 C75.763,99.604 75.348,97.816 74.471,96.238 L72.605,92.883 L71.831,86.535 L71.758,84.869 L72.074,84.558 C73.186,83.464 73.823,81.941 73.823,80.382 C73.823,77.149 71.194,74.52 67.962,74.52 L66.66,74.52 C65.111,74.52 63.636,75.188 62.613,76.351 C61.747,77.336 61.27,78.6 61.27,79.91 L61.27,88.311 L66.582,88.57 L66.311,92.823 L64.821,94.825 C61.657,99.321 59.869,104.626 59.665,110.146 L59.029,128.061 L63.371,128.265 L63.277,130.263 L56.96,129.965 L57.666,110.073 C57.884,104.165 59.798,98.487 63.201,93.653 L64.353,92.104 L64.457,90.469 L59.27,90.215 L59.27,79.91 C59.27,78.113 59.924,76.381 61.111,75.03 C62.514,73.435 64.536,72.52 66.66,72.52 L67.962,72.52 C72.297,72.52 75.823,76.047 75.823,80.382 C75.823,82.321 75.088,84.218 73.793,85.653 L73.823,86.372 L74.543,92.252 L76.219,95.267 C77.279,97.173 77.779,99.332 77.667,101.51 L76.331,128.904 L77.074,131.763 L77.074,138.941 L75.337,142.47 L77.271,176.989 L75.274,177.101"/>
    <polyline fill="#48515A" points="60.794 177.197 57.836 157.937 56.995 129.042 58.994 128.983 59.833 157.816 62.771 176.893 60.794 177.197"/>
    <polyline fill="#DFE0E0" points="191.31 159.02 181.56 159.02 181.56 151.52 192.06 151.52 191.31 159.02"/>
    <path fill="#DFE0E0" d="M187.905,132.868 L185.123,133.411 L183.399,128.434 L187.866,126.846 L188.799,130.371 L187.748,131.176 L187.905,132.868 Z M190.185,108.121 L193.091,104.006 L186.06,96.02 L181.56,97.309 L180.982,97.309 C179.392,97.309 178.057,98.508 177.888,100.09 L173.685,151.52 L199.185,151.52 L190.185,108.121 Z"/>
    <path fill="#475059" d="M190.086,178.137 L188.096,177.941 L190.778,150.521 L197.957,150.521 L189.118,107.899 L191.811,104.085 L186.258,97.981 L184.685,96.037 L184.685,90.434 L185.685,90.434 C187.615,90.434 189.185,88.863 189.185,86.934 L189.185,84.345 C189.185,80.761 186.269,77.845 182.685,77.845 C179.136,77.845 176.56,80.442 176.56,84.021 L176.56,103.521 L174.56,103.521 L174.56,84.021 C174.56,79.283 177.977,75.845 182.685,75.845 C187.372,75.845 191.185,79.658 191.185,84.345 L191.185,86.934 C191.185,89.625 189.242,91.871 186.685,92.343 L186.685,95.33 L187.776,96.681 L194.372,103.927 L191.252,108.343 L200.414,152.521 L192.592,152.521 L190.086,178.137"/>
    <path fill="#475059" d="M180.5,178.052 L180.197,152.521 L172.6,152.521 L176.891,100.009 C177.118,97.889 178.875,96.309 180.982,96.309 C183.25,96.309 185.094,98.153 185.094,100.42 L185.094,112.532 L189.649,127.273 L182.038,129.979 L178.639,118.979 L180.549,118.389 L183.333,127.396 L187.172,126.031 L183.094,112.684 L183.094,100.42 C183.094,99.256 182.147,98.309 180.982,98.309 C179.9,98.309 178.998,99.12 178.882,100.196 L174.77,150.521 L182.173,150.521 L182.5,178.028 L180.5,178.052"/>
    <polyline fill="#475059" points="178.468 178.109 176.472 177.971 178.371 150.521 191.685 150.521 191.685 152.521 180.238 152.521 178.468 178.109"/>
    <polyline fill="#475059" points="184.461 134.559 182.454 128.761 184.344 128.106 185.784 132.264 186.826 132.06 186.701 130.719 187.663 129.982 186.9 127.102 188.833 126.59 189.936 130.76 188.794 131.635 188.984 133.677 184.461 134.559"/>
    <polyline fill="#475059" points="54.194 42.014 54.163 40.014 109.748 39.153 109.779 41.153 54.194 42.014"/>
    <polyline fill="#475059" points="196.202 42.014 140.003 41.013 140.039 39.013 196.237 40.014 196.202 42.014"/>
    <polyline fill="#475059" points="109.748 46.875 54.163 46.014 54.194 44.014 109.779 44.875 109.748 46.875"/>
    <polyline fill="#475059" points="140.039 46.98 140.003 44.98 196.202 44.014 196.237 46.014 140.039 46.98"/>
    <polygon fill="#475059" points="117.964 193.311 119.964 193.311 119.964 63.954 117.964 63.954"/>
    <polygon fill="#475059" points="129.964 193.311 131.964 193.311 131.964 63.953 129.964 63.953"/>
    <polygon fill="#48515A" points="38.984 63.225 40.984 63.225 40.984 59.225 38.984 59.225"/>
    <polygon fill="#48515A" points="38.984 73.225 40.984 73.225 40.984 69.225 38.984 69.225"/>
    <polygon fill="#48515A" points="42.555 67.225 45.984 67.225 45.984 65.225 42.555 65.225"/>
    <polygon fill="#48515A" points="33.984 67.225 37.412 67.225 37.412 65.225 33.984 65.225"/>
    <polygon fill="#48515A" points="214.088 116.256 216.088 116.256 216.088 112.256 214.088 112.256"/>
    <polygon fill="#48515A" points="214.088 126.256 216.088 126.256 216.088 122.256 214.088 122.256"/>
    <polygon fill="#48515A" points="217.66 120.256 221.088 120.256 221.088 118.256 217.66 118.256"/>
    <polygon fill="#48515A" points="209.088 120.256 212.517 120.256 212.517 118.256 209.088 118.256"/>
    <path fill="#FFD15D" d="M215.089 86.407C215.089 87.59 214.129 88.55 212.946 88.55 211.762 88.55 210.803 87.59 210.803 86.407 210.803 85.224 211.762 84.264 212.946 84.264 214.129 84.264 215.089 85.224 215.089 86.407M101.892 105.706C101.892 106.8 101.006 107.687 99.912 107.687 98.818 107.687 97.931 106.8 97.931 105.706 97.931 104.612 98.818 103.725 99.912 103.725 101.006 103.725 101.892 104.612 101.892 105.706M37.528 108.219C37.528 109.607 38.654 110.733 40.042 110.733 41.43 110.733 42.555 109.607 42.555 108.219 42.555 106.831 41.43 105.706 40.042 105.706 38.654 105.706 37.528 106.831 37.528 108.219M145.982 195.999C145.982 194.873 146.895 193.959 148.022 193.959 149.149 193.959 150.062 194.873 150.062 195.999 150.062 197.126 149.149 198.04 148.022 198.04 146.895 198.04 145.982 197.126 145.982 195.999M142.111 132.434C142.111 132.974 141.673 133.411 141.133 133.411 140.593 133.411 140.155 132.974 140.155 132.434 140.155 131.894 140.593 131.456 141.133 131.456 141.673 131.456 142.111 131.894 142.111 132.434"/>
    <path fill="#475059" d="M111.031,50.296 L122.844,50.298 C123.684,50.299 124.449,50.627 125.018,51.162 C125.586,50.628 126.351,50.3 127.191,50.3 L139.007,50.303 L139.007,32.739 L127.191,32.737 C126.543,32.737 126.017,33.264 126.017,33.911 L124.017,33.911 C124.017,33.263 123.491,32.735 122.844,32.735 L111.031,32.732 L111.031,50.296 Z M126.017,53.474 L124.017,53.474 C124.017,52.826 123.49,52.299 122.843,52.298 L109.031,52.296 L109.031,30.732 L122.844,30.735 C123.685,30.735 124.45,31.064 125.018,31.6 C125.586,31.065 126.351,30.737 127.191,30.737 L141.007,30.739 L141.007,52.303 L127.191,52.3 C126.543,52.3 126.017,52.826 126.017,53.474 Z"/>
    <polygon fill="#475059" points="124.017 55.475 126.017 55.475 126.017 32.908 124.017 32.908"/>
    <polyline fill="#475059" points="141.01 56.474 109.01 56.474 109.01 51.296 111.01 51.296 111.01 54.474 139.01 54.474 139.01 51.303 141.01 51.303 141.01 56.474"/>
    <polygon fill="#475059" points="114.01 38.474 120.01 38.474 120.01 36.474 114.01 36.474"/>
    <polygon fill="#475059" points="114.01 42.474 120.01 42.474 120.01 40.474 114.01 40.474"/>
    <polygon fill="#475059" points="114.01 46.474 120.01 46.474 120.01 44.474 114.01 44.474"/>
    <polygon fill="#475059" points="130.01 38.474 136.01 38.474 136.01 36.474 130.01 36.474"/>
    <polygon fill="#475059" points="130.01 42.474 136.01 42.474 136.01 40.474 130.01 40.474"/>
    <polygon fill="#475059" points="130.01 46.474 136.01 46.474 136.01 44.474 130.01 44.474"/>
    <path fill="#475059" d="M87.964,217.268 L161.964,217.268 L161.964,213.268 L87.964,213.268 L87.964,217.268 Z M85.964,219.268 L163.964,219.268 L163.964,211.268 L85.964,211.268 L85.964,219.268 Z"/>
    <path fill="#475059" d="M93.964 211.269L155.964 211.269 155.964 207.27 93.964 207.27 93.964 211.269zM91.964 213.269L157.964 213.269 157.964 205.27 91.964 205.27 91.964 213.269zM143.979 205.268L141.979 205.268 141.979 203.269 136.979 203.269C135.325 203.269 133.979 201.923 133.979 200.269L133.979 194.268 115.964 194.268 115.964 200.269C115.964 201.923 114.619 203.269 112.964 203.269L107.964 203.269 107.964 205.268 105.964 205.268 105.964 201.269 112.964 201.269C113.516 201.269 113.964 200.82 113.964 200.269L113.964 192.268 135.979 192.268 135.979 200.269C135.979 200.82 136.427 201.269 136.979 201.269L143.979 201.269 143.979 205.268M135.979 65.183L113.964 65.183 113.964 61.185C113.964 60.633 113.516 60.185 112.964 60.185L108.966 60.185 108.966 56.186 110.966 56.186 110.966 58.185 112.964 58.185C114.619 58.185 115.964 59.53 115.964 61.185L115.964 63.183 133.979 63.183 133.979 61.185C133.979 59.53 135.325 58.185 136.979 58.185L138.977 58.185 138.977 56.186 140.977 56.186 140.977 60.185 136.979 60.185C136.427 60.185 135.979 60.633 135.979 61.185L135.979 65.183"/>
  </g>
</svg>
