<svg xmlns="http://www.w3.org/2000/svg" width="250" height="250" viewBox="0 0 250 250">
  <g fill="none" fill-rule="evenodd">
    <path fill="#FFD15D" d="M189.009,57.532 C173.072,57.825 160.468,71.37 160.468,87.506 L160.468,137.634 L165.417,139.967 L172.083,137.217 L179.683,129.384 L179.631,121.676 C177.87,119.856 175.949,117.579 174.331,114.936 C170.345,108.421 168.778,99.94 168.778,91.689 L168.778,91.048 L186.606,91.048 L186.417,82.451 C192.241,87.974 199.923,91.048 207.904,91.048 L211.081,91.048 L211.081,91.689 C211.081,99.973 209.159,108.383 205.129,114.889 C202.466,119.187 198.782,122.577 196.49,124.551 L199.583,130.051 L206.083,136.301 L218.635,140.551 L218.635,87.033 C218.635,70.555 205.357,57.231 189.009,57.532"/>
    <polyline fill="#EAEAE9" points="211.534 151.272 201.714 151.272 204.83 146.684 206.435 146.684 211.534 151.272"/>
    <polyline fill="#EAEAE9" points="199.719 129.383 206.058 135.979 212.115 150.502 210.604 150.502 206.828 146.682 205.317 146.682 199.272 136.741 199.719 129.383"/>
    <path fill="#EAEAE9" d="M199.75,133.436 L199.75,122.423 L195.66,124.981 C194.556,125.672 193.284,126.038 191.986,126.038 L187.427,126.038 C185.798,126.038 184.221,125.462 182.967,124.411 L179.628,121.611 L179.63,125.944 L199.75,133.436"/>
    <path fill="#48515A" d="M191.759,127.223 L187.078,127.223 C185.181,127.223 183.512,126.612 182.117,125.406 C179.646,123.269 176.141,119.809 173.478,115.458 C168.767,107.757 167.778,98.281 167.778,91.689 L167.778,91.047 L169.778,91.047 L169.778,91.689 C169.778,98.025 170.716,107.111 175.184,114.414 C177.713,118.546 181.061,121.849 183.424,123.892 C184.446,124.776 185.675,125.223 187.078,125.223 L191.759,125.223 C193.359,125.223 194.664,124.8 195.637,123.967 C197.054,122.754 201.368,119.062 204.279,114.363 C208.021,108.323 210.081,100.27 210.081,91.689 L210.081,91.047 L212.081,91.047 L212.081,91.689 C212.081,100.637 209.914,109.064 205.979,115.415 C202.904,120.379 198.413,124.223 196.938,125.487 C195.592,126.639 193.85,127.223 191.759,127.223"/>
    <polyline fill="#48515A" points="180.5 130.189 178.5 130.161 178.618 121.627 180.618 121.655 180.5 130.189"/>
    <polygon fill="#48515A" points="198.259 130.243 200.259 130.243 200.259 122.214 198.259 122.214"/>
    <polyline fill="#48515A" points="219.303 142.018 205.706 136.915 206.409 135.042 220.006 140.145 219.303 142.018"/>
    <polyline fill="#48515A" points="186.675 167.802 180.89 159.349 182.54 158.22 188.325 166.673 186.675 167.802"/>
    <path fill="#48515A" d="M200.272,131.534 L200.231,137.025 L192.885,161.838 L204.813,145.682 L207.246,145.682 L210.317,148.788 L205.209,136.542 L200.272,131.534 Z M190.997,168.217 L186.729,168.217 L178.478,136.74 L178.478,131.534 L173.541,136.542 L171.055,142.501 L169.209,141.732 L171.844,135.415 L180.478,126.657 L180.478,136.611 L188.271,166.217 L189.502,166.217 L198.272,136.596 L198.272,126.657 L206.906,135.415 L213.615,151.501 L210.187,151.501 L206.411,147.682 L205.822,147.682 L191.208,167.501 L190.997,168.217 Z"/>
    <path fill="#DFE0E0" d="M52.259,127.967 L52.259,131.196 L63.195,137.479 L74.221,131.381 L74.259,125.469 L74.259,120.487 C74.259,120.068 75.054,119.621 75.444,119.168 C75.311,119.284 75.152,119.401 75.043,119.518 C73.489,121.189 71.116,123.068 69.52,124.431 C68.257,125.509 66.645,126.25 64.985,126.25 L60.187,126.25 C58.527,126.25 56.93,125.509 55.668,124.431 C54.144,123.13 51.927,121.411 50.377,119.809 C50.33,119.761 50.276,119.682 50.225,119.633 C50.691,120.129 51.471,120.615 52.038,121.114 C52.025,121.12 52.259,121.11 52.259,121.125 L52.259,127.967"/>
    <path fill="#48515A" d="M52.259,132.25 C51.706,132.25 51.259,131.803 51.259,131.25 L51.259,121.25 C51.259,120.698 51.706,120.25 52.259,120.25 C52.811,120.25 53.259,120.698 53.259,121.25 L53.259,131.25 C53.259,131.803 52.811,132.25 52.259,132.25"/>
    <path fill="#48515A" d="M74.259,132.25 C73.706,132.25 73.259,131.803 73.259,131.25 L73.259,120.075 L73.53,119.786 C74.432,118.825 75.337,117.823 75.625,117.057 L80.145,107.63 L85.213,105.115 L86.345,99.535 C86.335,99.119 86.148,98.838 85.987,98.673 C85.722,98.401 85.351,98.25 84.941,98.25 L82.706,98.25 L82.935,97.061 C83.307,95.134 83.307,92.606 83.307,90.759 L83.307,89.762 C83.329,86.485 82.816,83.769 81.74,81.451 L81.21,80.31 C79.835,77.677 77.976,75.426 75.68,73.615 C72.03,70.737 67.66,69.199 63.042,69.167 C62.997,69.167 62.951,69.167 62.906,69.167 C57.582,69.167 52.519,71.287 48.633,75.147 C44.582,79.17 42.259,84.732 42.259,90.406 L42.257,91.455 C42.252,93.212 42.246,95.399 42.528,97.085 L42.723,98.25 L40.645,98.25 C39.84,98.25 39.224,98.796 39.162,99.538 L40.772,105.105 L45.198,107.676 L49.623,117.064 C50.218,118.654 52.925,120.873 54.901,122.494 C55.407,122.91 55.889,123.305 56.317,123.67 C57.51,124.689 58.884,125.25 60.187,125.25 L65.259,125.25 C65.811,125.25 66.259,125.698 66.259,126.25 C66.259,126.803 65.811,127.25 65.259,127.25 L60.187,127.25 C58.409,127.25 56.573,126.519 55.018,125.192 C54.6,124.834 54.128,124.448 53.633,124.041 C51.242,122.08 48.533,119.858 47.781,117.84 L43.654,109.092 L39.074,106.431 L37.157,99.662 C37.157,97.828 38.565,96.374 40.405,96.258 C40.248,94.667 40.253,92.915 40.257,91.449 L40.259,90.406 C40.259,84.202 42.797,78.123 47.224,73.728 C51.487,69.493 57.051,67.166 62.906,67.166 C62.956,67.166 63.006,67.167 63.056,67.167 C68.123,67.201 72.915,68.888 76.918,72.044 C79.566,74.132 81.683,76.751 83.21,79.828 C83.304,80.02 83.388,80.211 83.472,80.405 L84.197,82.03 L84.136,82.03 C84.942,84.283 85.326,86.831 85.307,89.769 L85.307,90.759 C85.307,92.339 85.307,94.398 85.082,96.253 C85.982,96.287 86.808,96.649 87.421,97.279 C88.042,97.917 88.37,98.766 88.344,99.667 L88.324,99.838 L86.979,106.472 L81.651,109.116 L77.462,117.842 C77.111,118.786 76.236,119.813 75.259,120.866 L75.259,131.25 C75.259,131.803 74.811,132.25 74.259,132.25"/>
    <polyline fill="#48515A" points="30.453 141.33 29.815 139.434 43.965 134.675 48.05 127.25 51.259 127.25 51.259 129.25 49.233 129.25 45.341 136.322 30.453 141.33"/>
    <path fill="#48515A" d="M63.132,138.718 L51.282,132.081 C50.8,131.812 50.628,131.202 50.898,130.721 C51.169,130.24 51.778,130.068 52.26,130.337 L63.132,136.425 L73.573,130.578 C74.056,130.309 74.664,130.481 74.935,130.962 C75.205,131.444 75.033,132.053 74.551,132.323 L63.132,138.718"/>
    <polyline fill="#48515A" points="88.293 138.993 80.886 136.385 76.444 129.25 74.259 129.25 74.259 127.25 77.555 127.25 82.213 134.733 88.957 137.107 88.293 138.993"/>
    <path fill="#48515A" d="M56.479,147.442 C56.241,147.442 56.001,147.357 55.811,147.185 C55.4,146.816 55.367,146.183 55.736,145.773 L63.139,137.548 L67.967,143.003 C68.332,143.417 68.294,144.049 67.88,144.415 C67.468,144.781 66.835,144.741 66.469,144.329 L63.126,140.552 L57.223,147.111 C57.025,147.33 56.753,147.442 56.479,147.442"/>
    <path fill="#5FE0ED" d="M124.856,28.885 C103.758,29.273 87.074,47.204 87.074,68.564 L87.074,120.584 L112.51,120.584 L112.441,113.798 C110.11,111.388 107.566,108.374 105.425,104.875 C100.149,96.251 98.074,85.024 98.074,74.101 L98.074,73.253 L121.675,73.253 L121.424,61.872 C129.134,69.184 139.303,73.253 149.868,73.253 L154.074,73.253 L154.074,74.101 C154.074,85.068 151.53,96.201 146.195,104.813 C142.67,110.503 137.793,114.991 134.758,117.604 L139.093,120.584 L164.074,120.584 L164.074,67.938 C164.074,46.124 146.497,28.487 124.856,28.885"/>
    <polyline fill="#EAEAE9" points="95.424 152.977 108.424 152.977 104.299 146.903 102.174 146.903 95.424 152.977"/>
    <polyline fill="#EAEAE9" points="154.674 152.977 141.674 152.977 145.799 146.903 147.924 146.903 154.674 152.977"/>
    <polyline fill="#EAEAE9" points="112.425 133.741 104.422 146.901 123.424 174.231 125.442 174.231 112.425 133.741"/>
    <polyline fill="#EAEAE9" points="139.033 124.001 147.424 132.731 155.442 151.957 153.442 151.957 148.444 146.901 146.444 146.901 138.442 133.741 139.033 124.001"/>
    <path fill="#EAEAE9" d="M139.074,129.366 L139.074,114.787 L133.66,118.174 C132.199,119.088 130.514,119.572 128.796,119.572 L122.761,119.572 C120.605,119.572 118.517,118.81 116.857,117.418 L112.438,113.712 L112.44,119.448 L139.074,129.366"/>
    <path fill="#48515A" d="M128.496,120.818 L122.299,120.818 C119.869,120.818 117.73,120.034 115.943,118.49 C112.689,115.677 108.075,111.122 104.572,105.397 C98.374,95.268 97.074,82.787 97.074,74.101 L97.074,73.252 L99.074,73.252 L99.074,74.101 C99.074,82.53 100.324,94.62 106.278,104.354 C109.647,109.86 114.104,114.257 117.25,116.976 C118.665,118.199 120.363,118.818 122.299,118.818 L128.496,118.818 C130.693,118.818 132.491,118.233 133.839,117.077 C135.725,115.464 141.461,110.555 145.345,104.286 C150.329,96.24 153.074,85.52 153.074,74.101 L153.074,73.252 L155.074,73.252 L155.074,74.101 C155.074,85.887 152.222,96.982 147.045,105.339 C142.998,111.872 137.083,116.934 135.14,118.597 C133.419,120.071 131.184,120.818 128.496,120.818"/>
    <polygon fill="#48515A" points="111.424 124.507 113.424 124.507 113.424 113.751 111.424 113.751"/>
    <polygon fill="#48515A" points="137.424 125.139 139.424 125.139 139.424 114.51 137.424 114.51"/>
    <path fill="#48515A" d="M187.352 204.771L185.352 204.771 185.352 203.674 181.096 161.006C179.863 151.712 173.717 143.811 165.058 140.417L147.073 133.668 147.776 131.795 165.774 138.55C175.124 142.214 181.75 150.728 183.082 160.775L187.347 203.574 187.352 204.771M65.579 204.771L63.579 204.771 63.579 203.674 67.845 160.807C69.181 150.728 75.808 142.214 85.144 138.556L103.071 131.796 103.777 133.667 85.861 140.422C77.214 143.811 71.068 151.712 69.831 161.038L65.574 203.774 65.579 204.771"/>
    <path fill="#48515A" d="M123.947,173.231 L124.053,173.231 L111.425,133.897 L111.425,126.056 L104.272,133.296 L96.923,150.957 L97.007,150.957 L102.005,145.901 L104.945,145.901 L123.947,173.231 Z M126.795,175.231 L122.902,175.231 L103.9,147.901 L102.84,147.901 L97.842,152.957 L93.925,152.957 L102.576,132.167 L113.425,121.185 L113.425,133.584 L126.795,175.231 Z"/>
    <path fill="#48515A" d="M126.813,173.231 L126.92,173.231 L145.921,145.901 L148.861,145.901 L153.86,150.957 L153.942,150.957 L146.576,133.295 L139.441,126.059 L139.394,134.046 L126.813,173.231 Z M127.965,175.231 L124.071,175.231 L137.441,133.584 L137.441,121.182 L148.272,132.168 L156.943,152.957 L153.025,152.957 L148.026,147.901 L146.966,147.901 L127.965,175.231 Z"/>
    <polygon fill="#5FE0ED" points="76.754 221.12 200.948 221.12 200.948 210.104 76.754 210.104"/>
    <polygon fill="#5FE0ED" points="76.774 213.11 200.969 213.11 200.969 151.01 76.774 151.01"/>
    <path fill="#48515A" d="M81.781,206.1 L195.962,206.1 L195.962,156.017 L81.781,156.017 L81.781,206.1 Z M79.781,208.1 L197.962,208.1 L197.962,154.017 L79.781,154.017 L79.781,208.1 Z"/>
    <path fill="#48515A" d="M144.706,194.242 L133.641,194.242 C130.685,194.242 128.281,191.823 128.281,188.848 L130.281,188.848 C130.281,190.72 131.788,192.242 133.641,192.242 L144.706,192.242 C146.907,192.242 148.698,190.437 148.698,188.218 L148.698,186.327 C148.698,184.125 146.907,182.334 144.706,182.334 L133.795,182.334 C130.491,182.334 127.803,179.646 127.803,176.342 L127.803,174.449 C127.803,171.145 130.491,168.456 133.795,168.456 L145.522,168.456 C148.014,168.456 150.04,170.483 150.04,172.974 L148.04,172.974 C148.04,171.585 146.911,170.456 145.522,170.456 L133.795,170.456 C131.594,170.456 129.803,172.247 129.803,174.449 L129.803,176.342 C129.803,178.543 131.594,180.334 133.795,180.334 L144.706,180.334 C148.01,180.334 150.698,183.023 150.698,186.327 L150.698,188.218 C150.698,191.54 148.01,194.242 144.706,194.242"/>
    <polygon fill="#48515A" points="138.853 199.087 140.853 199.087 140.853 163.031 138.853 163.031"/>
    <polygon fill="#48515A" points="158.903 178.052 172.925 178.052 172.925 176.052 158.903 176.052"/>
    <polygon fill="#48515A" points="158.903 182.059 172.925 182.059 172.925 180.059 158.903 180.059"/>
    <polygon fill="#48515A" points="158.903 186.065 172.925 186.065 172.925 184.065 158.903 184.065"/>
    <polygon fill="#48515A" points="108.825 178.052 122.846 178.052 122.846 176.052 108.825 176.052"/>
    <polygon fill="#48515A" points="108.825 182.059 122.846 182.059 122.846 180.059 108.825 180.059"/>
    <polygon fill="#48515A" points="108.825 186.065 122.846 186.065 122.846 184.065 108.825 184.065"/>
    <path fill="#48515A" d="M180.935 207.118L178.935 207.118C178.935 197.179 187.022 189.092 196.962 189.092L196.962 191.092C188.125 191.092 180.935 198.282 180.935 207.118M80.721 173.043L80.721 171.043C89.558 171.043 96.747 163.854 96.747 155.016L98.747 155.016C98.747 164.956 90.661 173.043 80.721 173.043M98.747 207.118L96.747 207.118C96.747 198.282 89.558 191.092 80.721 191.092L80.721 189.092C90.661 189.092 98.747 197.179 98.747 207.118"/>
    <polygon fill="#48515A" points="76.754 215.112 200.948 215.112 200.948 213.112 76.754 213.112"/>
    <polygon fill="#48515A" points="76.754 221.121 200.948 221.121 200.948 219.121 76.754 219.121"/>
    <path fill="#FFD15D" d="M221,163.029 C221,149.754 210.238,138.992 196.962,138.992 C183.687,138.992 172.925,149.754 172.925,163.029 C172.925,176.305 183.687,187.067 196.962,187.067 C210.238,187.067 221,176.305 221,163.029"/>
    <path fill="#475059" d="M196.963,182.725 C196.956,182.725 196.948,182.725 196.94,182.725 C186.08,182.711 177.255,173.865 177.268,163.006 C177.273,157.744 179.328,152.801 183.052,149.085 C186.771,145.375 191.71,143.332 196.963,143.332 C196.971,143.332 196.979,143.332 196.986,143.332 C198.966,143.335 200.917,143.63 202.787,144.208 L204.103,144.755 C204.612,144.968 204.852,145.555 204.639,146.064 C204.425,146.573 203.839,146.815 203.33,146.599 L202.105,146.085 C200.518,145.6 198.764,145.335 196.983,145.332 C196.977,145.332 196.969,145.332 196.963,145.332 C192.244,145.332 187.806,147.167 184.465,150.501 C181.119,153.839 179.273,158.282 179.268,163.008 C179.256,172.765 187.185,180.713 196.943,180.725 C196.949,180.725 196.957,180.725 196.963,180.725 C201.683,180.725 206.12,178.89 209.462,175.556 C212.808,172.218 214.654,167.776 214.659,163.049 C214.664,158.948 213.234,154.949 210.632,151.788 C210.281,151.362 210.342,150.732 210.768,150.38 C211.195,150.029 211.825,150.091 212.176,150.517 C215.072,154.035 216.665,158.487 216.659,163.051 C216.653,168.313 214.599,173.256 210.875,176.972 C207.155,180.682 202.216,182.725 196.963,182.725"/>
    <path fill="#475059" d="M200.292,172.041 L192.869,172.041 C190.705,172.041 188.944,170.262 188.944,168.075 C188.944,167.523 189.392,167.075 189.944,167.075 C190.497,167.075 190.944,167.523 190.944,168.075 C190.944,169.159 191.808,170.041 192.869,170.041 L200.292,170.041 C201.66,170.041 202.953,168.872 202.953,167.636 L202.953,166.367 C202.953,165.144 201.685,164.029 200.292,164.029 L192.973,164.029 C190.669,164.029 188.931,162.154 188.931,159.668 L188.931,158.398 C188.931,155.9 190.669,154.016 192.973,154.016 L200.841,154.016 C202.693,154.016 204.201,155.534 204.201,157.401 C204.201,157.953 203.753,158.401 203.201,158.401 C202.648,158.401 202.201,157.953 202.201,157.401 C202.201,156.637 201.591,156.016 200.841,156.016 L192.973,156.016 C191.57,156.016 190.931,157.25 190.931,158.398 L190.931,159.668 C190.931,160.805 191.57,162.029 192.973,162.029 L200.292,162.029 C202.775,162.029 204.953,164.056 204.953,166.367 L204.953,167.636 C204.953,169.983 202.775,172.041 200.292,172.041"/>
    <path fill="#475059" d="M196.942 176.047C196.39 176.047 195.942 175.6 195.942 175.047L195.942 151.01C195.942 150.457 196.39 150.01 196.942 150.01 197.494 150.01 197.942 150.457 197.942 151.01L197.942 175.047C197.942 175.6 197.494 176.047 196.942 176.047M207.66 149.356C207.4 149.356 207.14 149.245 206.96 149.056 206.77 148.865 206.66 148.615 206.66 148.356 206.66 148.086 206.77 147.836 206.96 147.646 207.05 147.556 207.16 147.476 207.28 147.426 207.65 147.276 208.09 147.365 208.37 147.646 208.56 147.836 208.66 148.086 208.66 148.356 208.66 148.615 208.56 148.865 208.37 149.056 208.18 149.245 207.93 149.356 207.66 149.356"/>
    <path fill="#FFD15D" d="M61.905,170.603 C61.905,161.517 54.539,154.15 45.453,154.15 C36.366,154.15 29,161.517 29,170.603 C29,179.69 36.366,187.056 45.453,187.056 C54.539,187.056 61.905,179.69 61.905,170.603"/>
    <path fill="#475059" d="M47.732,177.087 L42.651,177.087 C40.996,177.087 39.649,175.728 39.649,174.057 C39.649,173.504 40.097,173.057 40.649,173.057 C41.202,173.057 41.649,173.504 41.649,174.057 C41.649,174.615 42.108,175.087 42.651,175.087 L47.732,175.087 C48.448,175.087 49.054,174.478 49.054,173.756 L49.054,172.888 C49.054,172.179 48.461,171.603 47.732,171.603 L42.722,171.603 C40.965,171.603 38.999,170.192 38.999,168.303 L38.999,167.433 C38.999,165.535 40.965,164.118 42.722,164.118 L48.107,164.118 C49.549,164.118 50.723,165.299 50.723,166.751 C50.723,167.304 50.275,167.751 49.723,167.751 C49.17,167.751 48.723,167.304 48.723,166.751 C48.723,166.408 48.441,166.118 48.107,166.118 L42.722,166.118 C41.917,166.118 40.999,166.819 40.999,167.433 L40.999,168.303 C40.999,168.91 41.917,169.603 42.722,169.603 L47.732,169.603 C49.563,169.603 51.054,171.076 51.054,172.888 L51.054,173.756 C51.054,175.593 49.563,177.087 47.732,177.087"/>
    <path fill="#475059" d="M45.483,179.829 C44.931,179.829 44.483,179.382 44.483,178.829 L44.483,162.376 C44.483,161.824 44.931,161.376 45.483,161.376 C46.036,161.376 46.483,161.824 46.483,162.376 L46.483,178.829 C46.483,179.382 46.036,179.829 45.483,179.829"/>
    <path fill="#FFD15D" d="M82.784,203.545 C82.784,194.445 75.406,187.067 66.305,187.067 C57.204,187.067 49.827,194.445 49.827,203.545 C49.827,212.646 57.204,220.024 66.305,220.024 C75.406,220.024 82.784,212.646 82.784,203.545"/>
    <path fill="#475059" d="M68.588,210.037 L63.499,210.037 C61.842,210.037 60.494,208.677 60.494,207.005 C60.494,206.452 60.942,206.005 61.494,206.005 C62.046,206.005 62.494,206.452 62.494,207.005 C62.494,207.565 62.954,208.037 63.499,208.037 L68.588,208.037 C69.307,208.037 69.913,207.426 69.913,206.703 L69.913,205.833 C69.913,205.123 69.319,204.545 68.588,204.545 L63.57,204.545 C61.811,204.545 59.843,203.132 59.843,201.241 L59.843,200.37 C59.843,198.471 61.811,197.052 63.57,197.052 L68.964,197.052 C70.407,197.052 71.581,198.234 71.581,199.687 C71.581,200.24 71.134,200.687 70.581,200.687 C70.029,200.687 69.581,200.24 69.581,199.687 C69.581,199.343 69.299,199.052 68.964,199.052 L63.57,199.052 C62.763,199.052 61.843,199.754 61.843,200.37 L61.843,201.241 C61.843,201.851 62.763,202.545 63.57,202.545 L68.588,202.545 C70.421,202.545 71.913,204.02 71.913,205.833 L71.913,206.703 C71.913,208.541 70.421,210.037 68.588,210.037"/>
    <path fill="#475059" d="M66.336,212.784 C65.784,212.784 65.336,212.337 65.336,211.784 L65.336,195.306 C65.336,194.753 65.784,194.306 66.336,194.306 C66.888,194.306 67.336,194.753 67.336,195.306 L67.336,211.784 C67.336,212.337 66.888,212.784 66.336,212.784"/>
    <polygon fill="#48515A" points="213 53.056 215 53.056 215 49.056 213 49.056"/>
    <polygon fill="#48515A" points="213 63.056 215 63.056 215 59.056 213 59.056"/>
    <polygon fill="#48515A" points="217 57.056 221 57.056 221 55.056 217 55.056"/>
    <polygon fill="#48515A" points="207 57.056 211 57.056 211 55.056 207 55.056"/>
    <polygon fill="#48515A" points="43.998 46.06 45.998 46.06 45.998 42.06 43.998 42.06"/>
    <polygon fill="#48515A" points="43.998 56.06 45.998 56.06 45.998 52.06 43.998 52.06"/>
    <polygon fill="#48515A" points="47.998 50.06 51.998 50.06 51.998 48.06 47.998 48.06"/>
    <polygon fill="#48515A" points="37.998 50.06 41.998 50.06 41.998 48.06 37.998 48.06"/>
  </g>
</svg>
