<svg xmlns="http://www.w3.org/2000/svg" width="250" height="250" viewBox="0 0 250 250">
  <g fill="none" fill-rule="evenodd">
    <polygon fill="#48515A" points="213.097 101.896 215.097 101.896 215.097 97.896 213.097 97.896"/>
    <polygon fill="#48515A" points="213.097 111.896 215.097 111.896 215.097 107.896 213.097 107.896"/>
    <polygon fill="#48515A" points="217.097 105.896 221.097 105.896 221.097 103.896 217.097 103.896"/>
    <polygon fill="#48515A" points="207.097 105.896 211.097 105.896 211.097 103.896 207.097 103.896"/>
    <path fill="#DEDEDD" d="M180.55 158.835L181.457 158.408 188.521 153.408C188.348 153.264 188.17 153.125 187.987 152.991 186.053 151.579 183.533 150.904 180.932 151.07L180.55 158.835M180.932 151.07L180.55 158.835M163.543 158.906C150.39 165.346 133.896 173.518 133.053 173.755 132.833 173.816 148.803 173.782 148.803 173.782L164.105 166.577 163.543 158.906"/>
    <path fill="#FFD15D" d="M180.898,99.128 L180.761,85.982 L183.78,85.951 L184.606,101.181 L185.551,107.038 L190.099,107.038 L186.56,85.921 L186.567,85.921 L185.184,78.213 C184.524,75.992 182.468,74.451 180.142,74.451 L177.995,74.452 L171.938,90.348 L165.834,74.451 L164.329,74.451 C161.977,74.451 159.915,76.013 159.272,78.264 L154.451,107.038 L158.999,107.038 L159.944,101.181 L160.77,85.961 L163.261,86.013 L162.957,99.13 L180.898,99.128"/>
    <polyline fill="#5FE0ED" points="91.018 159.015 91.018 122.245 85.018 122.245 85.018 160.684 77.927 167.395 77.887 123.609 79.404 123.609 82.579 118.205 82.579 116.926 93.837 116.926 93.837 118.107 96.632 123.609 98.746 123.609 98.746 159.015 91.018 159.015"/>
    <polyline fill="#DFE0E0" points="181.42 143.579 162.436 143.579 161.435 131.951 182.42 131.951 181.42 143.579"/>
    <polyline fill="#DFE0E0" points="168.285 67.601 170.007 68.828 174.303 68.828 175.928 67.107 175.928 71.451 171.928 81.201 167.928 70.743 168.285 67.601"/>
    <path fill="#DFE0E0" d="M82.878,63.71 L82.878,65.951 L92.673,65.951 L92.717,62.612 L92.717,60.421 C92.903,60.236 93.094,60.04 93.265,59.84 C93.207,59.892 93.151,59.943 93.103,59.994 C92.419,60.729 91.382,61.501 90.68,62.1 C90.125,62.574 89.423,62.837 88.693,62.845 L86.582,62.845 C85.852,62.837 85.15,62.574 84.595,62.1 C83.925,61.528 82.95,60.799 82.268,60.095 C82.248,60.074 82.224,60.053 82.201,60.031 C82.406,60.249 82.64,60.47 82.89,60.689 C82.884,60.692 82.878,60.695 82.878,60.701 L82.878,63.71"/>
    <path fill="#48515A" d="M108.705,119.972 L101.746,119.972 C101.193,119.972 100.746,119.524 100.746,118.972 C100.746,118.419 101.193,117.972 101.746,117.972 L107.877,117.972 L108.928,116.921 L108.928,73.788 L91.685,65.643 L91.685,59.996 L91.981,59.702 C92.456,59.233 92.733,58.9 92.804,58.711 L94.942,54.341 L97.094,53.265 L97.513,51.184 L97.02,51.128 L95.831,51.128 L96.034,49.957 C96.205,48.971 96.292,48.092 96.292,47.346 L96.292,46.981 C96.3,45.73 96.044,44.55 95.551,43.488 C95.5,43.377 95.452,43.275 95.403,43.175 C94.844,42.046 94.02,41.032 93.022,40.246 C91.516,39.058 89.703,38.423 87.78,38.41 C87.762,38.41 87.743,38.41 87.724,38.41 C85.515,38.41 83.408,39.294 81.787,40.904 C80.11,42.57 79.148,44.861 79.148,47.19 L79.148,47.346 C79.148,48.111 79.224,48.997 79.371,49.979 L79.543,51.128 L77.987,51.128 C77.959,51.128 77.934,51.141 77.916,51.161 L78.52,53.276 L80.421,54.374 L82.442,58.647 C82.664,59.233 83.85,60.197 84.558,60.773 C84.804,60.974 85.038,61.164 85.244,61.34 C85.619,61.66 86.099,61.84 86.593,61.845 L88.698,61.845 C89.251,61.845 89.698,62.292 89.698,62.845 C89.698,63.397 89.251,63.845 88.698,63.845 L86.582,63.845 C85.61,63.834 84.678,63.485 83.946,62.861 C83.75,62.694 83.528,62.514 83.296,62.324 C82.211,61.442 80.98,60.441 80.602,59.425 L78.88,55.794 L76.819,54.604 L75.894,51.222 C75.894,50.322 76.463,49.554 77.261,49.258 C77.187,48.57 77.148,47.931 77.148,47.346 L77.148,47.19 C77.148,44.332 78.325,41.523 80.378,39.485 C82.376,37.5 84.982,36.41 87.724,36.41 C87.747,36.41 87.771,36.41 87.794,36.41 C90.165,36.426 92.401,37.209 94.261,38.676 C95.489,39.643 96.504,40.893 97.196,42.29 C97.257,42.412 97.314,42.533 97.369,42.655 C97.981,43.975 98.302,45.45 98.292,46.914 L98.292,47.346 C98.292,47.922 98.249,48.559 98.163,49.246 C98.455,49.35 98.723,49.521 98.946,49.752 C99.337,50.154 99.542,50.685 99.526,51.244 L99.507,51.412 L98.861,54.616 L96.44,55.827 L94.638,59.503 C94.482,59.928 94.106,60.386 93.685,60.825 L93.685,64.375 L110.928,72.52 L110.928,117.749 L108.705,119.972"/>
    <polygon fill="#48515A" points="74.89 114.927 101.475 114.927 101.475 112.927 74.89 112.927"/>
    <polygon fill="#48515A" points="87.019 160.206 89.019 160.206 89.019 122.245 87.019 122.245"/>
    <polyline fill="#48515A" points="73.927 170.793 73.872 114.151 71.982 110.148 71.982 82.972 73.982 82.972 73.982 109.699 75.872 113.702 75.872 113.926 75.927 170.791 73.927 170.793"/>
    <polyline fill="#48515A" points="102.746 158.711 100.746 158.711 100.746 113.73 102.382 109.727 102.382 82.972 104.382 82.972 104.382 110.12 102.746 114.123 102.746 158.711"/>
    <polyline fill="#48515A" points="105.433 129.79 101.746 129.79 101.746 127.79 104.604 127.79 105.655 126.74 105.655 118.972 107.655 118.972 107.655 127.568 105.433 129.79"/>
    <polyline fill="#48515A" points="78.259 121.608 74.618 121.608 74.618 119.608 77.114 119.608 78.579 117.115 78.579 113.646 80.579 113.646 80.579 117.66 78.259 121.608"/>
    <polyline fill="#48515A" points="101.541 121.608 97.859 121.608 95.837 117.627 95.837 113.596 97.837 113.596 97.837 117.148 99.086 119.608 101.541 119.608 101.541 121.608"/>
    <polyline fill="#48515A" points="74.109 119.972 67.15 119.972 64.928 117.749 64.928 72.522 81.878 64.458 81.878 60.701 83.878 60.701 83.878 65.722 66.928 73.786 66.928 116.921 67.979 117.972 74.109 117.972 74.109 119.972"/>
    <polyline fill="#48515A" points="74.109 129.79 70.423 129.79 68.2 127.568 68.2 118.972 70.2 118.972 70.2 126.74 71.251 127.79 74.109 127.79 74.109 129.79"/>
    <polyline fill="#475059" points="157.928 118.951 151.927 118.951 151.927 109.951 153.927 109.951 153.927 116.951 157.928 116.951 157.928 118.951"/>
    <path fill="#475059" d="M163.505,72.017 C161.818,69.559 160.928,66.684 160.928,63.702 L160.928,55.951 C160.928,49.886 165.862,44.951 171.928,44.951 C177.993,44.951 182.928,49.886 182.928,55.951 L182.928,64.657 C182.928,66.967 182.373,69.275 181.323,71.335 L181.034,71.904 L179.251,70.998 L179.541,70.428 C180.448,68.647 180.928,66.652 180.928,64.657 L180.928,55.951 C180.928,50.988 176.891,46.951 171.928,46.951 C166.965,46.951 162.928,50.988 162.928,55.951 L162.928,63.702 C162.928,66.278 163.697,68.762 165.153,70.886 L163.505,72.017"/>
    <polygon fill="#475059" points="166.928 71.951 168.928 71.951 168.928 66.95 166.928 66.95"/>
    <path fill="#475059" d="M176.928,71.951 L174.928,71.951 L174.928,66.697 L175.529,66.09 C175.97,65.651 176.47,65.154 176.798,64.656 C177.176,64.08 177.515,63.371 177.804,62.549 L177.916,62.229 L178.928,61.564 L178.928,60.494 C177.764,60.081 176.928,58.969 176.928,57.665 L176.928,56.951 L166.928,56.951 L166.928,57.665 C166.928,58.969 166.092,60.081 164.928,60.494 L164.928,61.564 L165.939,62.229 L166.052,62.549 C166.341,63.371 166.68,64.08 167.059,64.657 C167.945,66.007 169.183,67.098 169.841,67.627 C170.096,67.832 170.424,67.946 170.767,67.95 L173.1,67.95 L173.1,69.95 L170.756,69.95 C169.956,69.942 169.189,69.67 168.587,69.186 C167.671,68.448 166.372,67.255 165.387,65.755 C164.971,65.122 164.6,64.376 164.282,63.534 L162.928,62.645 L162.928,58.665 L163.928,58.665 C164.479,58.665 164.928,58.217 164.928,57.665 L164.928,54.951 L178.928,54.951 L178.928,57.665 C178.928,58.217 179.376,58.665 179.928,58.665 L180.928,58.665 L180.928,62.645 L179.573,63.534 C179.256,64.376 178.885,65.122 178.469,65.755 C178.026,66.426 177.449,67.001 176.939,67.508 L176.928,67.52 L176.928,71.951"/>
    <polygon fill="#475059" points="161.928 132.951 181.928 132.951 181.928 130.951 161.928 130.951"/>
    <polygon fill="#475059" points="170.928 165.999 172.928 165.999 172.928 131.951 170.928 131.951"/>
    <polyline fill="#475059" points="192.928 118.951 187.928 118.951 187.928 116.951 190.928 116.951 190.928 109.951 192.928 109.951 192.928 118.951"/>
    <path fill="#475059" d="M195.123,110.951 L185.928,110.951 L185.928,108.951 L192.732,108.951 L187.126,77.714 C186.287,74.65 183.407,72.451 180.143,72.451 L176.617,72.451 L171.932,84.75 L167.208,72.451 L164.329,72.451 C161.028,72.451 158.141,74.682 157.306,77.875 L152.107,108.951 L157.928,108.951 L157.928,110.951 L149.745,110.951 L155.352,77.457 C156.436,73.296 160.119,70.451 164.329,70.451 L168.583,70.451 L171.924,79.152 L175.238,70.451 L180.143,70.451 C184.307,70.451 187.979,73.257 189.075,77.274 L195.123,110.951"/>
    <polyline fill="#475059" points="163.058 169.931 160.982 132.951 153.252 132.951 158.93 101.851 159.261 85.931 161.261 85.972 160.911 102.131 155.65 130.951 162.873 130.951 165.054 169.819 163.058 169.931"/>
    <polyline fill="#475059" points="181.284 161.809 179.288 161.699 180.981 130.951 189.21 130.951 182.928 101.962 182.761 85.962 184.761 85.94 184.927 101.839 191.692 132.951 182.874 132.951 181.284 161.809"/>
    <path fill="#48515A" d="M162.93,101.95 C162.93,101.399 163.38,100.95 163.93,100.95 C164.479,100.95 164.93,101.399 164.93,101.95 C164.93,102.5 164.479,102.95 163.93,102.95 C163.38,102.95 162.93,102.5 162.93,101.95 Z M166.93,101.95 C166.93,101.399 167.38,100.95 167.93,100.95 C168.479,100.95 168.93,101.399 168.93,101.95 C168.93,102.5 168.479,102.95 167.93,102.95 C167.38,102.95 166.93,102.5 166.93,101.95 Z M170.93,101.95 C170.93,101.399 171.38,100.95 171.93,100.95 C172.479,100.95 172.93,101.399 172.93,101.95 C172.93,102.5 172.479,102.95 171.93,102.95 C171.38,102.95 170.93,102.5 170.93,101.95 Z M174.93,101.95 C174.93,101.399 175.38,100.95 175.93,100.95 C176.479,100.95 176.93,101.399 176.93,101.95 C176.93,102.5 176.479,102.95 175.93,102.95 C175.38,102.95 174.93,102.5 174.93,101.95 Z M178.93,101.95 C178.93,101.399 179.38,100.95 179.93,100.95 C180.479,100.95 180.93,101.399 180.93,101.95 C180.93,102.5 180.479,102.95 179.93,102.95 C179.38,102.95 178.93,102.5 178.93,101.95 Z"/>
    <polygon fill="#48515A" points="34.903 70.878 36.903 70.878 36.903 66.878 34.903 66.878"/>
    <polygon fill="#48515A" points="34.903 80.878 36.903 80.878 36.903 76.878 34.903 76.878"/>
    <polygon fill="#48515A" points="38.903 74.878 42.903 74.878 42.903 72.878 38.903 72.878"/>
    <polygon fill="#48515A" points="28.903 74.878 32.903 74.878 32.903 72.878 28.903 72.878"/>
    <path fill="#FFD15D" d="M188.418,168.396 C188.418,169.719 187.345,170.792 186.021,170.792 C184.698,170.792 183.625,169.719 183.625,168.396 C183.625,167.072 184.698,165.999 186.021,165.999 C187.345,165.999 188.418,167.072 188.418,168.396"/>
    <path fill="#DEDEDD" d="M57.928,208.764 L57.928,208.766 C57.928,209.957 57.13,210.755 55.939,210.755 C55.938,210.755 55.937,210.755 55.937,210.755 L48.928,210.918 L48.928,196.744 L55.986,196.751 C56.558,196.751 57.104,196.978 57.515,197.39 C57.926,197.801 58.067,198.343 58.067,198.912 L57.928,208.764"/>
    <path fill="#475059" d="M81.986,207.755 L60.928,207.755 L60.928,205.755 L81.795,205.755 L158.922,190.809 L202.453,164.11 C196.693,158.951 189.688,158.002 183.498,161.611 L156.236,174.755 L109.462,174.755 L109.462,172.755 L127.777,172.755 C135.666,172.755 141.917,167.036 142.434,159.56 L93.802,159.755 C89.632,159.755 85.543,161.453 82.582,164.413 L61.749,185.227 L60.335,183.812 L81.168,162.999 C84.502,159.666 89.105,157.755 93.798,157.755 L144.468,157.552 L144.468,158.556 C144.468,164.746 141.063,170.021 135.934,172.755 L155.779,172.755 L182.56,159.847 C189.85,155.59 198.188,156.97 204.794,163.574 L205.69,164.471 L159.658,192.703 L159.48,192.737 L81.986,207.755"/>
    <path fill="#475059" d="M141.613 167.412C141.251 167.412 140.902 167.216 140.725 166.872 140.471 166.382 140.662 165.778 141.152 165.524L162.772 154.323C163.262 154.067 163.866 154.261 164.12 154.751 164.374 155.241 164.183 155.845 163.692 156.099L142.072 167.3C141.926 167.376 141.768 167.412 141.613 167.412M182.995 161.747C182.676 161.747 182.362 161.595 182.168 161.311 181.856 160.854 181.974 160.232 182.431 159.921L191.57 153.68C190.884 152.814 190.078 152.042 189.166 151.376 186.936 149.747 184.073 148.926 181.086 149.055 180.565 149.098 180.066 148.652 180.043 148.1 180.019 147.548 180.446 147.081 180.998 147.057 184.415 146.898 187.749 147.864 190.346 149.761 191.721 150.765 192.888 151.978 193.816 153.37 194.12 153.826 194.001 154.441 193.548 154.751L183.558 161.573C183.386 161.69 183.189 161.747 182.995 161.747M46.928 212.951L55.925 212.961C55.927 212.961 55.928 212.961 55.93 212.961 57.034 212.961 58.079 212.527 58.87 211.739 59.662 210.951 60.1 209.908 60.101 208.804L60.101 208.803 60.156 177.825C60.157 176.722 59.723 175.678 58.932 174.888 58.141 174.098 57.096 173.661 55.988 173.66L46.928 173.651 46.928 212.951zM55.93 214.961C55.927 214.961 55.925 214.961 55.923 214.961L44.928 214.949 44.928 171.649 55.99 171.66C57.631 171.662 59.177 172.306 60.346 173.473 61.515 174.642 62.158 176.188 62.156 177.828L62.101 208.807C62.099 210.446 61.452 211.991 60.281 213.157 59.112 214.32 57.567 214.961 55.93 214.961z"/>
    <path fill="#DEDEDD" d="M109.462 169.755L132.905 169.755C136.492 168.755 139.175 165.755 140.108 161.755L135.316 161.755C133.22 163.755 130.626 163.755 127.777 163.755L115.462 163.755C112.148 163.755 109.462 166.441 109.462 169.755M191.316 161.685L158.187 181.963 81.603 196.755 64.122 196.755 64.11 203.755 81.603 203.755 158.187 188.975 198.928 164.035C196.509 162.464 193.915 161.685 191.316 161.685"/>
    <polygon fill="#48515A" points="41.879 134.902 43.879 134.902 43.879 130.902 41.879 130.902"/>
    <polygon fill="#48515A" points="41.879 144.902 43.879 144.902 43.879 140.902 41.879 140.902"/>
    <polygon fill="#48515A" points="45.879 138.902 49.879 138.902 49.879 136.902 45.879 136.902"/>
    <polygon fill="#48515A" points="35.879 138.902 39.879 138.902 39.879 136.902 35.879 136.902"/>
    <path fill="#FFD15D" d="M197.651 65.245C197.651 66.273 196.817 67.107 195.789 67.107 194.761 67.107 193.928 66.273 193.928 65.245 193.928 64.217 194.761 63.384 195.789 63.384 196.817 63.384 197.651 64.217 197.651 65.245M120.419 76.199C120.419 77.165 119.637 77.948 118.671 77.948 117.705 77.948 116.922 77.165 116.922 76.199 116.922 75.233 117.705 74.451 118.671 74.451 119.637 74.451 120.419 75.233 120.419 76.199M109.928 37.494C109.928 38.849 108.829 39.948 107.473 39.948 106.118 39.948 105.019 38.849 105.019 37.494 105.019 36.138 106.118 35.039 107.473 35.039 108.829 35.039 109.928 36.138 109.928 37.494"/>
    <path fill="#5FE0ED" d="M54.065 62.97C54.065 64.638 55.417 65.991 57.086 65.991 58.755 65.991 60.107 64.638 60.107 62.97 60.107 61.301 58.755 59.948 57.086 59.948 55.417 59.948 54.065 61.301 54.065 62.97M209.087 132.987C209.087 134.368 207.967 135.487 206.587 135.487 205.206 135.487 204.087 134.368 204.087 132.987 204.087 131.606 205.206 130.487 206.587 130.487 207.967 130.487 209.087 131.606 209.087 132.987M150.349 43.183C150.349 44.969 148.901 46.417 147.114 46.417 145.328 46.417 143.88 44.969 143.88 43.183 143.88 41.396 145.328 39.948 147.114 39.948 148.901 39.948 150.349 41.396 150.349 43.183"/>
    <path fill="#475059" d="M129.929,64.038 L127.929,64.038 C127.929,61.832 126.135,60.038 123.929,60.038 C121.723,60.038 119.929,61.832 119.929,64.038 L117.929,64.038 C117.929,60.729 120.62,58.038 123.929,58.038 C127.237,58.038 129.929,60.729 129.929,64.038"/>
    <path fill="#475059" d="M139.929,64.038 L137.929,64.038 C137.929,61.832 136.135,60.038 133.929,60.038 C131.723,60.038 129.929,61.832 129.929,64.038 L127.929,64.038 C127.929,60.729 130.62,58.038 133.929,58.038 C137.237,58.038 139.929,60.729 139.929,64.038"/>
    <path fill="#475059" d="M149.929,64.038 L147.929,64.038 C147.929,61.832 146.135,60.038 143.929,60.038 C141.723,60.038 139.929,61.832 139.929,64.038 L137.929,64.038 C137.929,60.729 140.62,58.038 143.929,58.038 C147.237,58.038 149.929,60.729 149.929,64.038"/>
    <path fill="#475059" d="M117.929,63.038 C117.929,54.215 125.106,47.037 133.929,47.037 C142.751,47.037 149.929,54.215 149.929,63.037 L147.929,63.037 C147.929,55.317 141.648,49.037 133.929,49.037 C126.209,49.037 119.929,55.317 119.929,63.037 L117.929,63.038"/>
    <path fill="#475059" d="M130.429,77.038 C127.947,77.038 125.929,75.02 125.929,72.538 L127.929,72.538 C127.929,73.917 129.05,75.038 130.429,75.038 C131.808,75.038 132.929,73.917 132.929,72.538 L132.929,59.038 L134.929,59.038 L134.929,72.538 C134.929,75.02 132.91,77.038 130.429,77.038"/>
    <polygon fill="#475059" points="132.929 48.037 134.929 48.037 134.929 45.039 132.929 45.039"/>
    <polyline fill="#DFE0E0" points="142.881 136.15 118.756 136.15 120.761 131.526 141.746 131.526 142.881 136.15"/>
    <polygon fill="#DFE0E0" points="126.718 102.77 134.701 102.77 134.701 98.742 126.718 98.742"/>
    <polyline fill="#475059" points="121.55 158.173 120.758 141.683 122.756 141.587 123.548 158.077 121.55 158.173"/>
    <polyline fill="#475059" points="119.083 131.424 118.974 117.533 120.974 117.518 121.083 131.408 119.083 131.424"/>
    <polyline fill="#475059" points="113.252 129.45 109.919 128.392 105.266 129.345 104.863 127.386 110.028 126.327 113.025 127.28 116.269 125.442 119.166 120.98 120.844 122.07 117.679 126.942 113.252 129.45"/>
    <path fill="#475059" d="M107.442 123.815L106.421 122.097 111.937 118.815 117.011 108.67C118.799 105.093 121.941 102.346 125.705 101.038L125.717 99.143 124.392 97.771C123.299 96.64 122.701 95.147 122.709 93.572L122.719 91.838 124.719 91.85 124.709 93.583C124.703 94.633 125.102 95.628 125.831 96.383L127.721 98.341 127.697 102.52 126.982 102.729C123.435 103.768 120.452 106.259 118.8 109.564L113.465 120.235 107.442 123.815M147.504 118.79L142.635 109.418C140.967 106.207 138.019 103.782 134.546 102.766L133.705 102.524 133.682 98.341 135.578 96.375C136.303 95.624 136.698 94.637 136.692 93.594L136.683 91.891 138.683 91.879 138.692 93.582C138.702 95.15 138.106 96.636 137.018 97.764L135.686 99.143 135.697 101.031C139.436 102.296 142.587 104.988 144.41 108.496L148.443 116.261 152.604 114.597 153.346 116.454 147.504 118.79"/>
    <polyline fill="#475059" points="139.851 158.187 137.854 158.062 138.883 141.572 140.879 141.697 139.851 158.187"/>
    <polygon fill="#475059" points="140.974 131.525 142.974 131.525 142.974 117.525 140.974 117.525"/>
    <polyline fill="#475059" points="148.21 126.525 144.196 126.525 140.941 122.119 142.551 120.932 145.206 124.525 147.737 124.525 151.256 122.767 152.257 121.013 155.846 119.253 156.727 121.048 153.688 122.538 152.691 124.284 148.21 126.525"/>
    <polygon fill="#475059" points="120.083 132.416 141.974 132.416 141.974 130.416 120.083 130.416"/>
    <polygon fill="#475059" points="129.973 159.467 131.973 159.467 131.973 141.385 129.973 141.385"/>
    <path fill="#475059" d="M129.975 100.525C129.896 100.525 129.818 100.517 129.739 100.498L126.484 99.715C125.948 99.585 125.617 99.045 125.746 98.508 125.875 97.971 126.411 97.64 126.953 97.77L130.208 98.553C130.744 98.683 131.075 99.223 130.946 99.76 130.836 100.218 130.426 100.525 129.975 100.525M121.131 95.51L117.506 95.51 117.506 93.01C117.506 90.253 119.749 88.01 122.506 88.01L122.741 88.01C122.853 86.048 123.673 84.225 125.076 82.831 126.575 81.344 128.562 80.525 130.672 80.525 130.695 80.525 130.717 80.525 130.738 80.525 132.841 80.525 134.827 81.344 136.326 82.831 137.73 84.225 138.55 86.05 138.662 88.01L138.921 88.01C141.678 88.01 143.921 90.253 143.921 93.01L141.921 93.01C141.921 91.355 140.575 90.01 138.921 90.01L136.675 90.01 136.675 88.446C136.669 86.861 136.045 85.37 134.917 84.251 133.796 83.138 132.31 82.525 130.73 82.525 130.714 82.525 130.697 82.526 130.681 82.525 129.093 82.525 127.606 83.138 126.484 84.251 125.357 85.37 124.733 86.861 124.728 88.45L124.728 90.01 122.506 90.01C120.852 90.01 119.506 91.355 119.506 93.01L119.506 93.51 121.131 93.51 121.131 95.51"/>
    <path fill="#475059" d="M126.339,89.926 L126.339,87.926 C128.177,87.926 129.673,86.431 129.673,84.593 L131.673,84.593 C131.673,87.533 129.28,89.926 126.339,89.926"/>
    <path fill="#475059" d="M135.006,89.926 C132.065,89.926 129.673,87.533 129.673,84.593 L131.673,84.593 C131.673,86.431 133.168,87.926 135.006,87.926 L135.006,89.926"/>
    <polyline fill="#475059" points="143.921 95.551 140.548 95.551 140.548 93.551 141.921 93.551 141.921 93.01 143.921 93.01 143.921 95.551"/>
    <polyline fill="#475059" points="146.005 142.51 116.009 142.51 116.009 139.305 119.008 132.305 119.008 128.51 121.008 128.51 121.008 132.715 118.009 139.715 118.009 140.51 144.005 140.51 144.005 139.715 141.006 132.715 141.006 128.51 143.006 128.51 143.006 132.305 146.005 139.305 146.005 142.51"/>
  </g>
</svg>
