<svg xmlns="http://www.w3.org/2000/svg" width="250" height="250" viewBox="0 0 250 250">
  <g fill="none" fill-rule="evenodd">
    <path fill="#F58E70" d="M77.54,158.78 C77.198,160.15 76.41,167.478 75.473,177.078 L80.069,187.643 L84.781,176.648 C83.829,167.26 83.035,160.129 82.698,158.78 C83.647,158.78 84.417,158.011 84.417,157.062 L84.417,152.764 L80.048,147.603 L75.821,152.764 L75.821,157.062 C75.821,158.011 76.591,158.78 77.54,158.78"/>
    <path fill="#DFE0E0" d="M69.075,137.359 L69.075,140.589 L80.011,146.872 L91.037,140.774 L91.075,134.862 L91.075,129.879 C91.075,129.461 91.87,129.013 92.26,128.561 C92.127,128.677 91.968,128.794 91.859,128.911 C90.304,130.582 87.932,132.461 86.336,133.824 C85.073,134.902 83.461,135.643 81.801,135.643 L77.002,135.643 C75.342,135.643 73.746,134.902 72.483,133.824 C70.96,132.523 68.743,130.803 67.193,129.202 C67.146,129.154 67.092,129.074 67.041,129.026 C67.507,129.521 68.287,130.008 68.854,130.507 C68.841,130.513 69.075,130.503 69.075,130.518 L69.075,137.359"/>
    <path fill="#48515A" d="M69.075 141.643C68.522 141.643 68.074 141.195 68.074 140.643L68.074 131.643C68.074 131.091 68.522 130.643 69.075 130.643 69.627 130.643 70.075 131.091 70.075 131.643L70.075 140.643C70.075 141.195 69.627 141.643 69.075 141.643M91.075 141.643C90.522 141.643 90.074 141.195 90.074 140.643L90.074 129.468 90.345 129.179C91.247 128.218 92.153 127.216 92.441 126.45L96.961 117.023 102.029 114.508 103.16 108.929C103.151 108.512 102.964 108.231 102.802 108.065 102.538 107.793 102.166 107.643 101.757 107.643L99.522 107.643 99.751 106.454C100.158 104.343 100.219 101.599 100.219 100.152L100.219 99.155C100.219 98.603 100.666 98.155 101.219 98.155 101.771 98.155 102.219 98.603 102.219 99.155L102.219 100.152C102.219 101.679 102.159 103.754 101.906 105.646 102.803 105.682 103.626 106.043 104.237 106.672 104.858 107.311 105.185 108.159 105.159 109.061L105.14 109.231 103.794 115.865 98.467 118.509 94.278 127.235C93.926 128.179 93.051 129.205 92.074 130.258L92.074 140.643C92.074 141.195 91.627 141.643 91.075 141.643"/>
    <path fill="#48515A" d="M82.075,136.643 L77.002,136.643 C75.223,136.643 73.388,135.912 71.834,134.584 C71.416,134.227 70.944,133.841 70.449,133.434 C68.058,131.473 65.348,129.25 64.596,127.232 L60.47,118.484 L55.889,115.823 L53.972,109.055 C53.972,107.22 55.381,105.767 57.221,105.65 C57.064,104.059 57.069,102.308 57.073,100.842 L57.075,99.798 C57.075,99.246 57.522,98.798 58.075,98.798 C58.627,98.798 59.075,99.246 59.075,99.798 L59.073,100.848 C59.068,102.605 59.061,104.791 59.343,106.478 L59.538,107.643 L57.46,107.643 C56.656,107.643 56.039,108.188 55.978,108.931 L57.588,114.497 L62.013,117.068 L66.438,126.457 C67.034,128.046 69.741,130.267 71.717,131.888 C72.224,132.303 72.705,132.699 73.133,133.064 C74.325,134.082 75.699,134.643 77.002,134.643 L82.075,134.643 C82.627,134.643 83.074,135.09 83.074,135.643 C83.074,136.195 82.627,136.643 82.075,136.643"/>
    <polyline fill="#48515A" points="62.345 145.373 60.593 144.409 64.867 136.643 68.074 136.643 68.074 138.643 66.049 138.643 62.345 145.373"/>
    <path fill="#48515A" d="M79.949,148.11 L68.098,141.475 C67.617,141.205 67.445,140.595 67.715,140.113 C67.985,139.632 68.594,139.461 69.076,139.729 L79.949,145.818 L90.389,139.971 C90.872,139.702 91.48,139.873 91.751,140.354 C92.021,140.836 91.849,141.446 91.367,141.716 L79.949,148.11"/>
    <polyline fill="#48515A" points="107.713 149.578 97.695 145.767 93.26 138.643 91.075 138.643 91.075 136.643 94.371 136.643 99.036 144.137 108.424 147.708 107.713 149.578"/>
    <path fill="#48515A" d="M74.068 156.643C73.845 156.643 73.622 156.569 73.436 156.417 73.008 156.068 72.945 155.438 73.294 155.01L79.933 146.88 86.83 154.995C87.188 155.416 87.137 156.047 86.716 156.404 86.295 156.763 85.664 156.711 85.307 156.29L79.964 150.004 74.843 156.275C74.645 156.517 74.358 156.643 74.068 156.643M100.069 93.645C99.516 93.645 99.069 93.197 99.069 92.645L99.069 85.895C99.069 83.691 98.211 81.619 96.653 80.061 95.095 78.502 93.024 77.645 90.82 77.645 90.268 77.645 89.82 77.197 89.82 76.645 89.82 76.092 90.268 75.645 90.82 75.645 93.558 75.645 96.132 76.71 98.068 78.646 100.003 80.582 101.07 83.157 101.069 85.895L101.069 92.645C101.069 93.197 100.621 93.645 100.069 93.645M58.069 93.645C57.517 93.645 57.069 93.197 57.069 92.645L57.069 85.895C57.068 83.157 58.134 80.582 60.07 78.646 62.006 76.71 64.58 75.645 67.318 75.645 67.87 75.645 68.318 76.092 68.318 76.645 68.318 77.197 67.87 77.645 67.318 77.645 65.115 77.645 63.043 78.502 61.485 80.061 59.926 81.619 59.069 83.691 59.069 85.895L59.069 92.645C59.069 93.197 58.621 93.645 58.069 93.645M116.891 170.571C115.788 170.571 114.891 171.468 114.891 172.571 114.891 173.674 115.788 174.571 116.891 174.571 117.994 174.571 118.891 173.674 118.891 172.571 118.891 171.468 117.994 170.571 116.891 170.571zM116.891 176.571C114.685 176.571 112.891 174.777 112.891 172.571 112.891 170.366 114.685 168.571 116.891 168.571 119.096 168.571 120.891 170.366 120.891 172.571 120.891 174.777 119.096 176.571 116.891 176.571z"/>
    <polygon fill="#48515A" points="38.064 88.654 40.064 88.654 40.064 84.654 38.064 84.654"/>
    <polygon fill="#48515A" points="38.064 98.654 40.064 98.654 40.064 94.654 38.064 94.654"/>
    <polygon fill="#48515A" points="42.064 92.654 46.064 92.654 46.064 90.654 42.064 90.654"/>
    <polygon fill="#48515A" points="32.064 92.654 36.064 92.654 36.064 90.654 32.064 90.654"/>
    <path fill="#48515A" d="M79.069,74.643 C73.554,74.643 69.069,79.128 69.069,84.643 C69.069,90.157 73.554,94.643 79.069,94.643 C84.583,94.643 89.069,90.157 89.069,84.643 C89.069,79.128 84.583,74.643 79.069,74.643 Z M79.069,96.643 C72.452,96.643 67.069,91.259 67.069,84.643 C67.069,78.026 72.452,72.643 79.069,72.643 C85.685,72.643 91.069,78.026 91.069,84.643 C91.069,91.259 85.685,96.643 79.069,96.643 Z"/>
    <path fill="#48515A" d="M104.068,99.645 L55.069,99.645 L55.069,91.645 L71.071,91.645 C71.623,91.645 72.071,92.092 72.071,92.645 C72.071,93.197 71.623,93.645 71.071,93.645 L57.069,93.645 L57.069,97.645 L102.068,97.645 L102.068,93.645 L86.942,93.645 C86.39,93.645 85.942,93.197 85.942,92.645 C85.942,92.092 86.39,91.645 86.942,91.645 L104.068,91.645 L104.068,99.645"/>
    <path fill="#475059" d="M59.755,187.231 L59.527,187.231 L59.527,185.231 L59.755,185.231 C62.253,185.231 64.285,183.199 64.285,180.701 L64.285,166.012 C64.285,160.849 60.085,156.649 54.922,156.649 C49.759,156.649 45.559,160.849 45.559,166.012 L45.559,180.701 C45.559,183.199 47.592,185.231 50.09,185.231 L50.189,187.231 L50.09,187.231 C46.489,187.231 43.559,184.302 43.559,180.701 L43.559,166.012 C43.559,159.746 48.657,154.649 54.922,154.649 C61.188,154.649 66.285,159.746 66.285,166.012 L66.285,180.701 C66.285,184.302 63.356,187.231 59.755,187.231"/>
    <path fill="#475059" d="M54.074,155.668 L54.062,146.027 C54.06,144.497 54.631,143.054 55.668,141.966 C56.717,140.866 58.117,140.259 59.609,140.257 L63.44,140.254 L63.441,142.254 L59.61,142.257 C58.67,142.258 57.784,142.645 57.116,143.346 C56.435,144.06 56.061,145.011 56.062,146.025 L56.074,155.667 L54.074,155.668"/>
    <path fill="#48515A" d="M80.075,190.165 L60.552,145.29 C60.332,144.783 60.564,144.194 61.07,143.974 C61.575,143.751 62.164,143.985 62.386,144.492 L80.062,185.12 L97.447,144.558 C97.663,144.05 98.251,143.814 98.759,144.033 C99.267,144.25 99.502,144.838 99.284,145.346 L80.075,190.165"/>
    <polygon fill="#F58E70" points="201.066 133.643 207.066 133.643 207.066 111.643 201.066 111.643"/>
    <polygon fill="#F58E70" points="193.067 125.643 215.066 125.643 215.066 119.643 193.067 119.643"/>
    <path fill="#48515A" d="M189.067 137.643L219.067 137.643 219.067 107.643 189.067 107.643 189.067 137.643zM187.067 139.643L221.067 139.643 221.067 105.643 187.067 105.643 187.067 139.643zM30.933 212.42L28.933 212.417 29.039 162.533C29.039 156.558 32.812 154.658 38.141 152.625L61.491 143.214 62.239 145.07 38.871 154.487C33.542 156.52 31.039 157.973 31.039 162.535L30.933 212.42"/>
    <polygon fill="#48515A" points="79.069 211.309 81.069 211.309 81.069 187.643 79.069 187.643"/>
    <path fill="#475059" d="M98.982,67.684 L110.972,67.684 L110.972,39.579 L98.982,39.579 L98.982,67.684 Z M96.982,69.685 L112.972,69.685 L112.972,37.58 L96.982,37.58 L96.982,69.685 Z"/>
    <polyline fill="#475059" points="97.982 69.684 88.987 69.684 88.987 45.575 97.982 45.575 97.982 47.575 90.987 47.575 90.987 67.684 97.982 67.684 97.982 69.684"/>
    <polyline fill="#475059" points="120.968 69.684 111.972 69.684 111.972 67.684 118.968 67.684 118.968 47.575 111.972 47.575 111.972 45.575 120.968 45.575 120.968 69.684"/>
    <path fill="#475059" d="M92.985 51.575L94.985 51.575 94.985 49.575 92.985 49.575 92.985 51.575zM92.985 55.575L94.985 55.575 94.985 53.575 92.985 53.575 92.985 55.575zM92.985 59.575L94.985 59.575 94.985 57.575 92.985 57.575 92.985 59.575zM92.985 63.575L94.985 63.575 94.985 61.575 92.985 61.575 92.985 63.575zM114.968 51.575L116.968 51.575 116.968 49.575 114.968 49.575 114.968 51.575zM114.968 55.575L116.968 55.575 116.968 53.575 114.968 53.575 114.968 55.575zM114.968 59.575L116.968 59.575 116.968 57.575 114.968 57.575 114.968 59.575zM114.968 63.575L116.968 63.575 116.968 61.575 114.968 61.575 114.968 63.575z"/>
    <polygon fill="#475059" points="101.101 59.767 109.034 59.767 109.034 57.767 101.101 57.767"/>
    <polyline fill="#475059" points="109.04 68.684 107.04 68.684 107.04 63.684 103.04 63.684 103.04 68.684 101.04 68.684 101.04 61.684 109.04 61.684 109.04 68.684"/>
    <polygon fill="#475059" points="104.04 50.685 106.04 50.685 106.04 42.685 104.04 42.685"/>
    <polygon fill="#475059" points="101.04 47.685 109.04 47.685 109.04 45.685 101.04 45.685"/>
    <polygon fill="#48515A" points="208.166 68.643 210.166 68.643 210.166 64.643 208.166 64.643"/>
    <polygon fill="#48515A" points="208.166 78.643 210.166 78.643 210.166 74.643 208.166 74.643"/>
    <polygon fill="#48515A" points="212.166 72.643 216.166 72.643 216.166 70.643 212.166 70.643"/>
    <polygon fill="#48515A" points="202.166 72.643 206.166 72.643 206.166 70.643 202.166 70.643"/>
    <path fill="#F58E70" d="M110.052 132.644C110.052 133.564 109.306 134.31 108.386 134.31 107.465 134.31 106.719 133.564 106.719 132.644 106.719 131.723 107.465 130.977 108.386 130.977 109.306 130.977 110.052 131.723 110.052 132.644M59.68 69.067C59.68 70.08 58.859 70.901 57.847 70.901 56.834 70.901 56.013 70.08 56.013 69.067 56.013 68.055 56.834 67.234 57.847 67.234 58.859 67.234 59.68 68.055 59.68 69.067M210.112 92.62C210.112 93.54 209.366 94.286 208.446 94.286 207.525 94.286 206.779 93.54 206.779 92.62 206.779 91.699 207.525 90.953 208.446 90.953 209.366 90.953 210.112 91.699 210.112 92.62"/>
    <path fill="#48515A" d="M198.065 62.643C196.962 62.643 196.065 63.54 196.065 64.643 196.065 65.746 196.962 66.643 198.065 66.643 199.167 66.643 200.065 65.746 200.065 64.643 200.065 63.54 199.167 62.643 198.065 62.643zM198.065 68.643C195.859 68.643 194.065 66.848 194.065 64.643 194.065 62.437 195.859 60.643 198.065 60.643 200.271 60.643 202.065 62.437 202.065 64.643 202.065 66.848 200.271 68.643 198.065 68.643zM56.064 50.643C54.961 50.643 54.064 51.54 54.064 52.643 54.064 53.746 54.961 54.643 56.064 54.643 57.167 54.643 58.064 53.746 58.064 52.643 58.064 51.54 57.167 50.643 56.064 50.643zM56.064 56.643C53.859 56.643 52.064 54.848 52.064 52.643 52.064 50.437 53.859 48.643 56.064 48.643 58.27 48.643 60.064 50.437 60.064 52.643 60.064 54.848 58.27 56.643 56.064 56.643z"/>
    <path fill="#5FE0ED" d="M153.488,38.447 C132.39,38.835 115.706,56.765 115.706,78.126 L115.706,130.146 L141.141,130.146 L141.073,123.36 C138.741,120.95 136.198,117.936 134.057,114.437 C128.781,105.813 126.706,94.585 126.706,83.663 L126.706,82.814 L150.306,82.814 L150.056,71.433 C157.766,78.745 167.935,82.814 178.5,82.814 L182.706,82.814 L182.706,83.663 C182.706,94.63 180.162,105.762 174.827,114.375 C171.302,120.064 166.425,124.552 163.39,127.165 L167.725,130.146 L192.706,130.146 L192.706,77.499 C192.706,55.686 175.128,38.049 153.488,38.447"/>
    <polyline fill="#EAEAE9" points="124.056 162.538 137.055 162.538 132.931 156.465 130.806 156.465 124.056 162.538"/>
    <polyline fill="#EAEAE9" points="183.305 162.538 170.306 162.538 174.43 156.465 176.555 156.465 183.305 162.538"/>
    <polyline fill="#EAEAE9" points="141.057 143.302 133.054 156.462 152.056 183.792 154.074 183.792 141.057 143.302"/>
    <polyline fill="#EAEAE9" points="167.665 133.562 176.056 142.293 184.074 161.518 182.074 161.518 177.076 156.462 175.076 156.462 167.073 143.302 167.665 133.562"/>
    <path fill="#EAEAE9" d="M167.706,138.928 L167.706,124.349 L162.292,127.735 C160.83,128.65 159.146,129.134 157.428,129.134 L151.393,129.134 C149.237,129.134 147.149,128.372 145.489,126.98 L141.069,123.273 L141.072,129.009 L167.706,138.928"/>
    <path fill="#48515A" d="M157.127,130.379 L150.931,130.379 C148.5,130.379 146.362,129.596 144.574,128.051 C141.321,125.238 136.707,120.684 133.204,114.958 C127.006,104.829 125.705,92.349 125.705,83.663 L125.705,82.814 L127.705,82.814 L127.705,83.663 C127.705,92.092 128.955,104.183 134.909,113.915 C138.279,119.42 142.737,123.818 145.883,126.538 C147.296,127.759 148.994,128.379 150.931,128.379 L157.127,128.379 C159.325,128.379 161.123,127.793 162.471,126.639 C164.357,125.025 170.093,120.117 173.976,113.848 C178.96,105.802 181.705,95.082 181.705,83.663 L181.705,82.814 L183.705,82.814 L183.705,83.663 C183.705,95.449 180.854,106.543 175.677,114.901 C171.63,121.434 165.715,126.495 163.772,128.158 C162.051,129.632 159.816,130.379 157.127,130.379"/>
    <polygon fill="#48515A" points="140.056 134.068 142.056 134.068 142.056 123.313 140.056 123.313"/>
    <polygon fill="#48515A" points="166.056 134.701 168.056 134.701 168.056 124.072 166.056 124.072"/>
    <path fill="#48515A" d="M215.984 211.331L213.984 211.331 213.984 210.287 209.729 170.574C208.495 161.273 202.349 153.372 193.69 149.979L175.704 143.229 176.407 141.357 194.406 148.112C203.756 151.775 210.382 160.289 211.714 170.336L215.984 210.234 215.984 211.331M94.211 211.331L92.211 211.331 92.217 210.127 96.478 170.361C97.813 160.289 104.44 151.775 113.776 148.117L131.703 141.357 132.408 143.229 114.493 149.984C105.846 153.372 99.7 161.273 98.464 170.599L94.211 210.287 94.211 211.331"/>
    <path fill="#48515A" d="M152.578,182.792 L152.685,182.792 L140.057,143.459 L140.057,135.617 L132.905,142.857 L125.555,160.518 L125.638,160.518 L130.636,155.462 L133.576,155.462 L152.578,182.792 Z M155.427,184.792 L151.533,184.792 L132.531,157.462 L131.472,157.462 L126.474,162.518 L122.557,162.518 L131.207,141.729 L142.057,130.747 L142.057,143.146 L155.427,184.792 Z"/>
    <path fill="#48515A" d="M155.446,182.792 L155.552,182.792 L174.553,155.462 L177.493,155.462 L182.492,160.518 L182.573,160.518 L175.207,142.857 L168.073,135.621 L168.026,143.608 L155.446,182.792 Z M156.597,184.792 L152.703,184.792 L166.073,143.146 L166.073,130.743 L176.905,141.729 L176.979,141.908 L185.575,162.518 L181.656,162.518 L176.657,157.462 L175.598,157.462 L156.597,184.792 Z"/>
  </g>
</svg>
