<svg xmlns="http://www.w3.org/2000/svg" width="250" height="250" viewBox="0 0 250 250">
  <g fill="none" fill-rule="evenodd">
    <polyline fill="#48515A" points="107.471 214.092 105.471 214.092 105.471 203.092 68.472 203.092 68.472 214.092 66.472 214.092 66.472 201.092 107.471 201.092 107.471 214.092"/>
    <polygon fill="#5FE0ED" points="61.473 224.092 109.592 224.092 109.592 211.097 61.473 211.097"/>
    <path fill="#48515A" d="M75.471,219.092 L71.472,219.092 C70.919,219.092 70.472,218.644 70.472,218.092 C70.472,217.54 70.919,217.092 71.472,217.092 L75.471,217.092 C76.024,217.092 76.471,217.54 76.471,218.092 C76.471,218.644 76.024,219.092 75.471,219.092"/>
    <path fill="#48515A" d="M69.472,217.092 C68.92,217.092 68.472,217.541 68.472,218.092 C68.472,218.643 68.92,219.092 69.472,219.092 C70.024,219.092 70.472,218.643 70.472,218.092 C70.472,217.541 70.024,217.092 69.472,217.092 Z M69.472,221.092 C67.818,221.092 66.472,219.746 66.472,218.092 C66.472,216.438 67.818,215.092 69.472,215.092 C71.126,215.092 72.472,216.438 72.472,218.092 C72.472,219.746 71.126,221.092 69.472,221.092 Z"/>
    <path fill="#DEDEDD" d="M52.694,140.566 L52.694,156.358 L63.721,165.883 C66.09,168.252 69.315,169.564 72.664,169.521 L75.986,169.479 L63.7,158.934 L63.7,148.571 C63.7,145.587 62.629,142.952 60.699,141.324 L60.699,140.566 C60.699,135.62 57.773,131.611 52.827,131.611 L52.827,132.683 C51.706,132 50.363,131.611 48.824,131.611 L48.824,132.683 C51.305,134.197 52.694,137.159 52.694,140.566"/>
    <path fill="#475059" d="M75.987,170.48 C75.755,170.48 75.524,170.4 75.335,170.238 L62.701,159.394 L62.701,148.57 C62.701,145.869 61.736,143.506 60.054,142.089 L59.699,141.789 L59.699,140.566 C59.699,136.606 57.574,132.61 52.827,132.61 L49.825,132.61 L49.825,132.683 C49.825,133.235 49.377,133.683 48.825,133.683 C48.272,133.683 47.825,133.235 47.825,132.683 L47.825,130.61 L52.827,130.61 C58.05,130.61 61.699,134.704 61.699,140.566 L61.699,140.878 C63.612,142.692 64.701,145.465 64.701,148.57 L64.701,158.475 L76.638,168.721 C77.057,169.081 77.105,169.712 76.746,170.131 C76.548,170.361 76.268,170.48 75.987,170.48"/>
    <path fill="#475059" d="M100.777,202.493 C100.224,202.493 99.777,202.045 99.777,201.493 L99.777,179.636 C99.777,177.185 98.822,174.879 97.087,173.145 L73.575,149.631 C71.01,152.961 71.376,158.067 74.57,161.261 L84.198,170.376 L72.677,170.521 C69.081,170.551 65.558,169.134 63.014,166.59 L51.694,156.816 L51.694,140.566 C51.694,136.896 49.869,133.195 45.822,132.673 L45.822,162.069 L73.799,188.735 L73.799,201.409 C73.799,201.962 73.352,202.409 72.799,202.409 C72.247,202.409 71.799,201.962 71.799,201.409 L71.799,189.591 L43.822,162.925 L43.822,130.61 L44.822,130.61 C50.045,130.61 53.694,134.704 53.694,140.566 L53.694,155.9 L64.374,165.126 C66.593,167.34 69.545,168.542 72.652,168.521 L79.243,168.438 L73.175,162.694 C71.186,160.706 70.002,157.945 69.908,155.103 C69.81,152.153 70.845,149.441 72.822,147.464 L73.53,146.756 L98.502,171.731 C100.614,173.842 101.777,176.65 101.777,179.636 L101.777,201.493 C101.777,202.045 101.33,202.493 100.777,202.493"/>
    <polyline fill="#48515A" points="179.955 214.092 177.955 214.092 177.955 203.092 140.957 203.092 140.957 214.092 138.957 214.092 138.957 201.092 179.955 201.092 179.955 214.092"/>
    <polygon fill="#5FE0ED" points="136.835 224.092 184.954 224.092 184.954 211.097 136.835 211.097"/>
    <path fill="#48515A" d="M174.955,219.092 L170.956,219.092 C170.403,219.092 169.956,218.644 169.956,218.092 C169.956,217.54 170.403,217.092 170.956,217.092 L174.955,217.092 C175.507,217.092 175.955,217.54 175.955,218.092 C175.955,218.644 175.507,219.092 174.955,219.092"/>
    <path fill="#48515A" d="M176.955,217.092 C176.403,217.092 175.955,217.541 175.955,218.092 C175.955,218.643 176.403,219.092 176.955,219.092 C177.506,219.092 177.955,218.643 177.955,218.092 C177.955,217.541 177.506,217.092 176.955,217.092 Z M176.955,221.092 C175.3,221.092 173.955,219.746 173.955,218.092 C173.955,216.438 175.3,215.092 176.955,215.092 C178.609,215.092 179.955,216.438 179.955,218.092 C179.955,219.746 178.609,221.092 176.955,221.092 Z"/>
    <path fill="#DEDEDD" d="M193.733,140.566 L193.733,156.358 L182.706,165.883 C180.337,168.252 177.112,169.564 173.763,169.521 L170.44,169.479 L182.727,158.934 L182.727,148.571 C182.727,145.587 183.798,142.952 185.728,141.324 L185.728,140.566 C185.728,135.62 188.654,131.611 193.6,131.611 L193.6,132.683 C194.721,132 196.064,131.611 197.603,131.611 L197.603,132.683 C195.122,134.197 193.733,137.159 193.733,140.566"/>
    <path fill="#475059" d="M170.441,170.48 C170.16,170.48 169.88,170.361 169.682,170.131 C169.323,169.712 169.371,169.081 169.79,168.721 L181.727,158.475 L181.727,148.57 C181.727,145.465 182.815,142.692 184.728,140.878 L184.728,140.566 C184.728,134.704 188.376,130.61 193.6,130.61 L198.603,130.61 L198.603,132.683 C198.603,133.235 198.156,133.683 197.603,133.683 C197.05,133.683 196.603,133.235 196.603,132.683 L196.603,132.61 L193.6,132.61 C188.853,132.61 186.728,136.606 186.728,140.566 L186.728,141.789 L186.373,142.089 C184.691,143.506 183.727,145.869 183.727,148.57 L183.727,159.394 L171.092,170.238 C170.904,170.4 170.672,170.48 170.441,170.48"/>
    <path fill="#475059" d="M145.65,202.493 C145.097,202.493 144.65,202.045 144.65,201.493 L144.65,179.636 C144.65,176.65 145.813,173.842 147.925,171.731 L172.9,146.757 L173.606,147.464 C175.583,149.441 176.618,152.153 176.519,155.103 C176.424,157.945 175.241,160.706 173.271,162.675 L167.184,168.438 L173.775,168.521 C176.841,168.547 179.834,167.34 181.999,165.176 L192.733,155.9 L192.733,140.566 C192.733,134.704 196.381,130.61 201.605,130.61 L202.605,130.61 L202.605,162.925 L174.627,189.591 L174.627,201.409 C174.627,201.962 174.18,202.409 173.627,202.409 C173.075,202.409 172.627,201.962 172.627,201.409 L172.627,188.735 L200.605,162.069 L200.605,132.673 C196.558,133.195 194.733,136.896 194.733,140.566 L194.733,156.816 L183.359,166.64 C180.869,169.134 177.319,170.567 173.75,170.521 L162.229,170.376 L171.876,161.242 C175.053,158.065 175.417,152.961 172.853,149.63 L149.339,173.145 C147.605,174.879 146.65,177.185 146.65,179.636 L146.65,201.493 C146.65,202.045 146.203,202.493 145.65,202.493"/>
    <polygon fill="#48515A" points="34.988 119.106 36.988 119.106 36.988 115.106 34.988 115.106"/>
    <polygon fill="#48515A" points="34.988 129.106 36.988 129.106 36.988 125.106 34.988 125.106"/>
    <polygon fill="#48515A" points="38.988 123.106 42.988 123.106 42.988 121.106 38.988 121.106"/>
    <polygon fill="#48515A" points="28.988 123.106 32.988 123.106 32.988 121.106 28.988 121.106"/>
    <polygon fill="#48515A" points="213.012 164.148 215.012 164.148 215.012 160.148 213.012 160.148"/>
    <polygon fill="#48515A" points="213.012 174.148 215.012 174.148 215.012 170.148 213.012 170.148"/>
    <polygon fill="#48515A" points="217.012 168.148 221.012 168.148 221.012 166.148 217.012 166.148"/>
    <polygon fill="#48515A" points="207.012 168.148 211.012 168.148 211.012 166.148 207.012 166.148"/>
    <polygon fill="#48515A" points="182.995 54.082 184.995 54.082 184.995 50.082 182.995 50.082"/>
    <polygon fill="#48515A" points="182.995 64.082 184.995 64.082 184.995 60.082 182.995 60.082"/>
    <polygon fill="#48515A" points="186.995 58.082 190.995 58.082 190.995 56.082 186.995 56.082"/>
    <polygon fill="#48515A" points="176.995 58.082 180.995 58.082 180.995 56.082 176.995 56.082"/>
    <polygon fill="#48515A" points="41.852 68.06 63.852 68.06 63.852 66.06 41.852 66.06"/>
    <path fill="#48515A" d="M58.747,102.06 L75.852,102.06 C78.267,102.06 80.287,100.339 80.751,98.06 L60.781,98.06 C60.557,99.616 59.82,101.009 58.747,102.06 Z M75.852,104.06 L53.852,104.06 C49.993,104.06 46.852,100.92 46.852,97.06 L46.852,73.06 L48.852,73.06 L48.852,97.06 C48.852,99.816 51.095,102.06 53.852,102.06 C56.609,102.06 58.852,99.816 58.852,97.06 L58.852,96.06 L82.852,96.06 L82.852,97.06 C82.852,100.92 79.711,104.06 75.852,104.06 Z"/>
    <path fill="#48515A" d="M70.852,97.06 L68.852,97.06 L68.852,73.06 C68.852,70.303 66.609,68.06 63.852,68.06 C61.095,68.06 58.852,70.303 58.852,73.06 L58.852,74.06 L34.852,74.06 L34.852,73.06 C34.852,69.2 37.993,66.06 41.852,66.06 L41.852,68.06 C39.437,68.06 37.418,69.78 36.953,72.06 L56.923,72.06 C57.41,68.672 60.331,66.06 63.852,66.06 C67.711,66.06 70.852,69.2 70.852,73.06 L70.852,97.06"/>
    <path fill="#475059" d="M184.849,101.14 L182.849,101.14 C182.849,98.935 181.055,97.14 178.849,97.14 C176.643,97.14 174.849,98.935 174.849,101.14 L172.849,101.14 C172.849,97.832 175.541,95.14 178.849,95.14 C182.158,95.14 184.849,97.832 184.849,101.14"/>
    <path fill="#475059" d="M194.849,101.14 L192.849,101.14 C192.849,98.935 191.055,97.14 188.849,97.14 C186.643,97.14 184.849,98.935 184.849,101.14 L182.849,101.14 C182.849,97.832 185.541,95.14 188.849,95.14 C192.158,95.14 194.849,97.832 194.849,101.14"/>
    <path fill="#475059" d="M204.849,101.14 L202.849,101.14 C202.849,98.935 201.055,97.14 198.849,97.14 C196.643,97.14 194.849,98.935 194.849,101.14 L192.849,101.14 C192.849,97.832 195.541,95.14 198.849,95.14 C202.158,95.14 204.849,97.832 204.849,101.14"/>
    <path fill="#475059" d="M172.849,100.14 C172.849,91.317 180.027,84.14 188.849,84.14 C197.671,84.14 204.849,91.317 204.849,100.14 L202.849,100.14 C202.849,92.42 196.569,86.14 188.849,86.14 C181.129,86.14 174.849,92.42 174.849,100.14 L172.849,100.14"/>
    <path fill="#475059" d="M185.349,114.141 C182.868,114.141 180.849,112.123 180.849,109.641 L182.849,109.641 C182.849,111.02 183.97,112.141 185.349,112.141 C186.728,112.141 187.849,111.02 187.849,109.641 L187.849,96.14 L189.849,96.14 L189.849,109.641 C189.849,112.123 187.831,114.141 185.349,114.141"/>
    <polygon fill="#475059" points="187.849 85.14 189.849 85.14 189.849 82.142 187.849 82.142"/>
    <path fill="#5FE0ED" d="M122.284,25.915 C101.186,26.303 84.502,44.233 84.502,65.594 L84.502,117.614 L109.938,117.614 L109.869,110.828 C107.538,108.418 104.994,105.404 102.853,101.905 C97.577,93.281 95.502,82.053 95.502,71.131 L95.502,70.282 L119.103,70.282 L118.852,58.901 C126.562,66.213 136.731,70.282 147.296,70.282 L151.502,70.282 L151.502,71.131 C151.502,82.098 148.958,93.23 143.623,101.843 C140.098,107.532 135.221,112.02 132.186,114.633 L136.521,117.614 L161.502,117.614 L161.502,64.967 C161.502,43.154 143.925,25.517 122.284,25.915"/>
    <polyline fill="#EAEAE9" points="92.853 150.006 105.852 150.006 101.727 143.933 99.603 143.933 92.853 150.006"/>
    <polyline fill="#EAEAE9" points="152.102 150.006 139.102 150.006 143.227 143.933 145.352 143.933 152.102 150.006"/>
    <polyline fill="#EAEAE9" points="109.853 130.77 101.851 143.93 120.852 171.26 122.87 171.26 109.853 130.77"/>
    <polyline fill="#EAEAE9" points="136.461 121.03 144.852 129.761 152.87 148.986 150.87 148.986 145.872 143.93 143.872 143.93 135.87 130.77 136.461 121.03"/>
    <path fill="#EAEAE9" d="M136.502,126.396 L136.502,111.817 L131.089,115.203 C129.627,116.118 127.942,116.602 126.224,116.602 L120.189,116.602 C118.033,116.602 115.945,115.84 114.285,114.448 L109.866,110.741 L109.868,116.477 L136.502,126.396"/>
    <path fill="#48515A" d="M125.924,117.847 L119.727,117.847 C117.296,117.847 115.158,117.064 113.371,115.519 C110.116,112.704 105.5,108.148 102,102.426 C95.803,92.298 94.502,79.818 94.502,71.13 L94.502,70.282 L96.502,70.282 L96.502,71.13 C96.502,79.56 97.752,91.652 103.706,101.382 C107.073,106.885 111.532,111.284 114.679,114.006 C116.092,115.227 117.791,115.847 119.727,115.847 L125.924,115.847 C128.122,115.847 129.919,115.261 131.268,114.107 C133.154,112.493 138.891,107.582 142.774,101.316 C147.757,93.27 150.502,82.55 150.502,71.13 L150.502,70.282 L152.502,70.282 L152.502,71.13 C152.502,82.917 149.651,94.011 144.474,102.369 C140.428,108.899 134.512,113.962 132.569,115.626 C130.847,117.1 128.612,117.847 125.924,117.847"/>
    <polygon fill="#48515A" points="108.852 121.536 110.852 121.536 110.852 110.781 108.852 110.781"/>
    <polygon fill="#48515A" points="134.852 122.169 136.852 122.169 136.852 111.54 134.852 111.54"/>
    <polyline fill="#48515A" points="162.5 137.452 144.5 130.697 145.204 128.825 163.203 135.58 162.5 137.452"/>
    <polyline fill="#48515A" points="83.29 137.452 82.585 135.581 100.5 128.825 101.205 130.696 83.29 137.452"/>
    <path fill="#48515A" d="M121.375,170.26 L121.481,170.26 L108.853,130.927 L108.853,123.085 L101.701,130.325 L94.351,147.986 L94.434,147.986 L99.433,142.93 L102.374,142.93 L121.375,170.26 Z M124.223,172.26 L120.33,172.26 L101.329,144.93 L100.269,144.93 L95.27,149.986 L91.353,149.986 L100.003,129.197 L110.853,118.215 L110.853,130.613 L124.223,172.26 Z"/>
    <path fill="#48515A" d="M124.242,170.26 L124.348,170.26 L143.35,142.93 L146.291,142.93 L151.289,147.986 L151.37,147.986 L144.003,130.325 L136.87,123.088 L136.822,131.076 L124.242,170.26 Z M125.393,172.26 L121.5,172.26 L134.87,130.613 L134.87,118.212 L145.701,129.197 L145.775,129.376 L154.372,149.986 L150.453,149.986 L145.455,144.93 L144.395,144.93 L125.393,172.26 Z"/>
  </g>
</svg>
