<svg xmlns="http://www.w3.org/2000/svg" width="250" height="250" viewBox="0 0 250 250">
  <g fill="none" fill-rule="evenodd">
    <path fill="#5FE0ED" d="M119.627 90.171L119.455 82.316 88.758 82.316 85.027 130.499 110.462 130.499 110.394 123.713C108.063 121.303 105.232 118.449 103.378 114.79 98.832 105.816 97.499 100.316 96.027 91.02L96.027 90.171 119.627 90.171M123.637 82.316C130.657 87.394 139.102 90.171 147.821 90.171L152.027 90.171 152.027 91.02C151.332 99.482 147.832 106.982 144.148 114.728 141.273 120.772 135.746 124.906 132.711 127.519L137.046 130.499 162.027 130.499 158.34 82.316 123.637 82.316"/>
    <path fill="#EAEAE9" d="M137.027,139.281 L137.027,124.702 L131.613,128.088 C130.151,129.003 128.467,129.487 126.749,129.487 L120.714,129.487 C118.558,129.487 116.47,128.725 114.81,127.333 L110.39,123.626 L110.393,129.362 L137.027,139.281"/>
    <path fill="#48515A" d="M126.448,130.732 L120.251,130.732 C117.821,130.732 115.684,129.949 113.896,128.405 C110.642,125.591 106.027,121.036 102.525,115.312 C98.524,108.773 96.015,100.156 95.267,90.393 L97.261,90.241 C97.984,99.689 100.395,107.998 104.23,114.268 C107.599,119.772 112.057,124.171 115.204,126.892 C116.617,128.113 118.315,128.732 120.251,128.732 L126.448,128.732 C128.646,128.732 130.444,128.146 131.792,126.992 C133.678,125.378 139.415,120.469 143.297,114.202 C147.351,107.659 149.927,99.369 150.749,90.227 L152.741,90.405 C151.891,99.856 149.214,108.449 144.998,115.254 C140.951,121.787 135.036,126.848 133.093,128.511 C131.372,129.985 129.137,130.732 126.448,130.732"/>
    <path fill="#FFD15D" d="M101,206.316 L146,206.316 L146,204.316 L101,204.316 L101,206.316 Z M82.998,211.318 L165.001,211.318 L165.001,186.316 L82.998,186.316 L82.998,211.318 Z"/>
    <polyline fill="#F58E70" points="151.037 186.316 159.04 186.316 159.04 148.316 151.037 145.493 151.037 186.316"/>
    <polyline fill="#48515A" points="169.001 211.316 167.001 211.316 167.001 184.316 80.998 184.316 80.998 211.316 78.998 211.316 78.998 182.316 169.001 182.316 169.001 211.316"/>
    <path fill="#475059" d="M154.966,73.952 C154.107,59.271 142.931,47.068 128.389,44.934 L128.68,42.955 C144.154,45.226 156.049,58.213 156.962,73.835 L154.966,73.952"/>
    <polyline fill="#475059" points="91.616 83.298 91.616 81.298 156.02 81.297 156.02 83.297 91.616 83.298"/>
    <path fill="#475059" d="M92.676,73.857 L90.68,73.734 C91.656,57.856 103.813,44.875 119.587,42.868 L119.839,44.852 C105.018,46.738 93.594,58.936 92.676,73.857"/>
    <polyline fill="#475059" points="128.978 65.839 126.978 65.839 126.978 40.316 120.658 40.316 120.658 65.839 118.658 65.839 118.658 38.316 128.978 38.316 128.978 65.839"/>
    <polyline fill="#475059" points="86.12 83.298 86.12 72.845 109.231 72.845 109.231 74.845 88.12 74.845 88.12 81.298 109.231 81.297 109.231 83.297 86.12 83.298"/>
    <polyline fill="#475059" points="161.879 83.297 138.769 83.297 138.769 81.297 159.879 81.297 159.879 74.844 138.769 74.844 138.769 72.844 161.879 72.844 161.879 83.297"/>
    <path fill="#475059" d="M123.817,65.854 C119.561,65.855 116.097,69.319 116.097,73.576 C116.097,77.833 119.561,81.297 123.817,81.297 C128.075,81.297 131.539,77.833 131.539,73.576 C131.539,69.318 128.075,65.854 123.817,65.854 Z M123.817,83.297 C118.457,83.297 114.097,78.936 114.097,73.576 C114.097,68.216 118.457,63.855 123.817,63.854 C129.178,63.854 133.539,68.216 133.539,73.576 C133.539,78.936 129.178,83.297 123.817,83.297 Z"/>
    <path fill="#FFD15D" d="M116.659 64.316C113.89 66.462 112.096 69.81 112.096 73.576 112.096 75.654 112.646 77.603 113.598 79.297L90.121 79.297 90.121 76.844 109.231 76.844 109.231 70.844 95.042 70.844C96.986 59.479 105.502 50.295 116.659 47.49L116.659 64.316M122.659 42.316L124.977 42.316 124.977 61.914C124.596 61.876 124.209 61.855 123.818 61.855 123.427 61.855 123.04 61.876 122.659 61.914L122.659 42.316"/>
    <path fill="#5FE0ED" d="M123.818,79.297 C120.663,79.297 118.096,76.731 118.096,73.576 C118.096,70.421 120.663,67.855 123.818,67.855 C126.972,67.855 129.539,70.421 129.539,73.576 C129.539,76.731 126.972,79.297 123.818,79.297"/>
    <path fill="#FFD15D" d="M157.879,79.297 L134.037,79.297 C134.99,77.603 135.539,75.654 135.539,73.576 C135.539,69.81 133.746,66.462 130.977,64.316 L130.977,47.499 C142.11,50.313 150.625,59.539 152.576,70.844 L138.768,70.844 L138.768,76.844 L157.879,76.844 L157.879,79.297"/>
    <polygon fill="#48515A" points="36 101.316 38 101.316 38 97.316 36 97.316"/>
    <polygon fill="#48515A" points="36 111.316 38 111.316 38 107.316 36 107.316"/>
    <polygon fill="#48515A" points="40 105.316 44 105.316 44 103.316 40 103.316"/>
    <polygon fill="#48515A" points="30 105.316 34 105.316 34 103.316 30 103.316"/>
    <polygon fill="#48515A" points="212 137.316 214 137.316 214 133.316 212 133.316"/>
    <polygon fill="#48515A" points="212 147.316 214 147.316 214 143.316 212 143.316"/>
    <polygon fill="#48515A" points="216 141.316 220 141.316 220 139.316 216 139.316"/>
    <polygon fill="#48515A" points="206 141.316 210 141.316 210 139.316 206 139.316"/>
    <polygon fill="#48515A" points="178 53.316 180 53.316 180 49.316 178 49.316"/>
    <polygon fill="#48515A" points="178 63.316 180 63.316 180 59.316 178 59.316"/>
    <polygon fill="#48515A" points="182 57.316 186 57.316 186 55.316 182 55.316"/>
    <polygon fill="#48515A" points="172 57.316 176 57.316 176 55.316 172 55.316"/>
    <path fill="#FFD15D" d="M62,140.316 C62,141.973 60.657,143.316 59,143.316 C57.343,143.316 56,141.973 56,140.316 C56,138.659 57.343,137.316 59,137.316 C60.657,137.316 62,138.659 62,140.316"/>
    <path fill="#DEDEDD" d="M74,56.316 C74,57.973 72.657,59.316 71,59.316 C69.343,59.316 68,57.973 68,56.316 C68,54.659 69.343,53.316 71,53.316 C72.657,53.316 74,54.659 74,56.316"/>
    <path fill="#48515A" d="M93.001,198.315 C92.449,198.315 92.001,198.764 92.001,199.315 C92.001,199.866 92.449,200.315 93.001,200.315 C93.553,200.315 94.001,199.866 94.001,199.315 C94.001,198.764 93.553,198.315 93.001,198.315 Z M93.001,202.315 C91.347,202.315 90.001,200.969 90.001,199.315 C90.001,197.661 91.347,196.315 93.001,196.315 C94.655,196.315 96.001,197.661 96.001,199.315 C96.001,200.969 94.655,202.315 93.001,202.315 Z"/>
    <polyline fill="#48515A" points="101.002 190.316 85 190.316 85 152.316 87 152.316 87 188.316 99.002 188.316 99.002 148.316 101.002 148.316 101.002 190.316"/>
    <polyline fill="#48515A" points="94.72 198.316 91.279 198.316 85 193.831 85 189.316 87 189.316 87 192.801 91.92 196.316 94.079 196.316 98.999 192.801 98.999 189.316 100.999 189.316 100.999 193.831 94.72 198.316"/>
    <path fill="#48515A" d="M155.039,198.315 C154.487,198.315 154.039,198.764 154.039,199.315 C154.039,199.866 154.487,200.315 155.039,200.315 C155.591,200.315 156.039,199.866 156.039,199.315 C156.039,198.764 155.591,198.315 155.039,198.315 Z M155.039,202.315 C153.385,202.315 152.039,200.969 152.039,199.315 C152.039,197.661 153.385,196.315 155.039,196.315 C156.693,196.315 158.039,197.661 158.039,199.315 C158.039,200.969 156.693,202.315 155.039,202.315 Z"/>
    <polyline fill="#48515A" points="163.039 190.316 147.037 190.316 147.037 150.316 149.037 150.316 149.037 188.316 161.039 188.316 161.039 158.316 163.039 158.316 163.039 190.316"/>
    <polyline fill="#48515A" points="156.743 198.316 153.297 198.316 147.001 193.832 147.001 189.316 149.001 189.316 149.001 192.8 153.936 196.316 156.104 196.316 161.039 192.8 161.039 189.316 163.039 189.316 163.039 193.832 156.743 198.316"/>
    <path fill="#475059" d="M102,198.316 L104,198.316 L104,196.316 L102,196.316 L102,198.316 Z M106,198.316 L108,198.316 L108,196.316 L106,196.316 L106,198.316 Z M110,198.316 L112,198.316 L112,196.316 L110,196.316 L110,198.316 Z M114,198.316 L116,198.316 L116,196.316 L114,196.316 L114,198.316 Z M118,198.316 L120,198.316 L120,196.316 L118,196.316 L118,198.316 Z M122,198.316 L124,198.316 L124,196.316 L122,196.316 L122,198.316 Z M126,198.316 L128,198.316 L128,196.316 L126,196.316 L126,198.316 Z M130,198.316 L132,198.316 L132,196.316 L130,196.316 L130,198.316 Z M134,198.316 L136,198.316 L136,196.316 L134,196.316 L134,198.316 Z M138,198.316 L139.995,198.316 L139.995,196.316 L138,196.316 L138,198.316 Z"/>
    <polygon fill="#48515A" points="146 211.316 148 211.316 148 206.315 146 206.315"/>
    <polyline fill="#48515A" points="101.998 211.316 99.998 211.316 99.998 202.316 140.563 202.316 140.563 204.316 101.998 204.316 101.998 211.316"/>
    <path fill="#475059" d="M99.999,200.317 L101.999,200.317 L101.999,198.317 L99.999,198.317 L99.999,200.317 Z M103.999,200.317 L105.999,200.317 L105.999,198.317 L103.999,198.317 L103.999,200.317 Z M107.999,200.317 L109.999,200.317 L109.999,198.317 L107.999,198.317 L107.999,200.317 Z M111.999,200.317 L113.999,200.317 L113.999,198.317 L111.999,198.317 L111.999,200.317 Z M115.999,200.317 L117.999,200.317 L117.999,198.317 L115.999,198.317 L115.999,200.317 Z M119.999,200.317 L121.999,200.317 L121.999,198.317 L119.999,198.317 L119.999,200.317 Z M123.999,200.317 L125.999,200.317 L125.999,198.317 L123.999,198.317 L123.999,200.317 Z M127.999,200.317 L129.999,200.317 L129.999,198.317 L127.999,198.317 L127.999,200.317 Z M131.999,200.317 L133.999,200.317 L133.999,198.317 L131.999,198.317 L131.999,200.317 Z M135.999,200.317 L137.999,200.317 L137.999,198.317 L135.999,198.317 L135.999,200.317 Z M139.999,200.317 L141.997,200.317 L141.997,198.317 L139.999,198.317 L139.999,200.317 Z"/>
    <path fill="#48515A" d="M143.999,198.316 L143.999,201.316 C143.999,201.867 144.447,202.316 144.999,202.316 C145.551,202.316 145.999,201.867 145.999,201.316 L145.999,198.316 L143.999,198.316 Z M144.999,204.316 C143.345,204.316 141.999,202.97 141.999,201.316 L141.999,196.316 L147.999,196.316 L147.999,201.316 C147.999,202.97 146.653,204.316 144.999,204.316 Z"/>
    <polyline fill="#F58E70" points="89 186.316 97.002 186.316 97.002 144.316 89 147.347 89 186.316"/>
    <path fill="#48515A" d="M185.305 211.684L183.305 211.684 183.305 210.64 179.05 170.928C177.816 161.627 171.67 153.726 163.011 150.333L135.376 141.684 135.376 124.425 137.376 124.425 137.376 140.214 163.675 148.447C173.077 152.129 179.703 160.643 181.035 170.69L185.305 210.587 185.305 211.684M63.532 211.684L61.532 211.684 61.538 210.48 65.799 170.715C67.134 160.643 73.76 152.129 83.096 148.47L109.376 139.598 109.376 123.666 111.376 123.666 111.376 141.034 83.781 150.349C75.167 153.726 69.021 161.627 67.784 170.953L63.532 210.641 63.532 211.684"/>
    <path fill="#48515A" d="M123.999,159.316 C113.826,159.316 104.988,152.788 102.007,143.071 L103.919,142.484 C106.641,151.355 114.711,157.316 123.999,157.316 C132.918,157.316 140.887,151.663 143.828,143.248 L145.717,143.908 C142.495,153.124 133.768,159.316 123.999,159.316"/>
  </g>
</svg>
