<svg xmlns="http://www.w3.org/2000/svg" width="250" height="250" viewBox="0 0 250 250">
  <g fill="none" fill-rule="evenodd">
    <path fill="#5FE0ED" d="M185.032,140.015 C185.032,141.672 183.689,143.015 182.032,143.015 C180.376,143.015 179.032,141.672 179.032,140.015 C179.032,138.358 180.376,137.015 182.032,137.015 C183.689,137.015 185.032,138.358 185.032,140.015"/>
    <path fill="#48515A" d="M31.026,152.078 L73.026,152.078 L73.026,126.078 L31.026,126.078 L31.026,152.078 Z M29.026,154.078 L75.026,154.078 L75.026,124.078 L29.026,124.078 L29.026,154.078 Z"/>
    <path fill="#48515A" d="M52.105 140.227C51.919 140.227 51.731 140.175 51.567 140.07L35.444 129.795C34.979 129.498 34.842 128.88 35.139 128.414 35.435 127.949 36.055 127.813 36.52 128.108L52.103 138.04 67.052 128.449C67.517 128.151 68.136 128.286 68.434 128.751 68.732 129.216 68.597 129.834 68.132 130.133L52.645 140.069C52.48 140.174 52.293 140.227 52.105 140.227M70.845 150.122C70.558 150.122 70.274 149.999 70.076 149.762L61.153 139.056C60.799 138.632 60.856 138.001 61.281 137.648 61.705 137.294 62.334 137.352 62.689 137.776L71.612 148.481C71.966 148.906 71.909 149.536 71.484 149.89 71.297 150.045 71.07 150.122 70.845 150.122M33.366 150.122C33.14 150.122 32.913 150.045 32.726 149.89 32.302 149.536 32.245 148.906 32.598 148.481L41.521 137.776C41.875 137.352 42.505 137.294 42.93 137.648 43.354 138.001 43.411 138.632 43.058 139.056L34.134 149.762C33.937 149.999 33.652 150.122 33.366 150.122"/>
    <polygon fill="#48515A" points="53.026 170.078 55.026 170.078 55.026 156.078 53.026 156.078"/>
    <path fill="#48515A" d="M53.96,172.97 C53.69,172.97 53.44,172.86 53.25,172.67 C53.06,172.49 52.96,172.23 52.96,171.97 C52.96,171.7 53.06,171.45 53.25,171.26 C53.62,170.89 54.29,170.89 54.66,171.26 C54.85,171.44 54.96,171.7 54.96,171.97 C54.96,172.23 54.85,172.49 54.66,172.67 C54.48,172.86 54.22,172.97 53.96,172.97"/>
    <polygon fill="#48515A" points="62.026 161.078 64.026 161.078 64.026 156.078 62.026 156.078"/>
    <path fill="#48515A" d="M62.65,164.27 C62.38,164.27 62.13,164.16 61.94,163.98 C61.76,163.79 61.65,163.53 61.65,163.27 C61.65,163.14 61.67,163.01 61.73,162.89 C61.78,162.77 61.85,162.66 61.94,162.56 C62.31,162.19 62.98,162.19 63.36,162.56 C63.45,162.66 63.52,162.77 63.57,162.89 C63.62,163.01 63.65,163.14 63.65,163.27 C63.65,163.53 63.54,163.79 63.36,163.98 C63.17,164.16 62.91,164.27 62.65,164.27"/>
    <polygon fill="#48515A" points="44.026 164.078 46.026 164.078 46.026 156.078 44.026 156.078"/>
    <path fill="#48515A" d="M45.26,167.17 C44.99,167.17 44.74,167.06 44.55,166.88 C44.36,166.69 44.26,166.43 44.26,166.17 C44.26,165.91 44.36,165.65 44.55,165.46 C44.92,165.09 45.59,165.09 45.97,165.46 C46.15,165.65 46.26,165.9 46.26,166.17 C46.26,166.3 46.23,166.43 46.18,166.55 C46.13,166.67 46.06,166.78 45.97,166.88 C45.78,167.06 45.52,167.17 45.26,167.17"/>
    <path fill="#5FE0ED" d="M110.986,155.88 L111.319,137.88 L138.319,132.38 L137.986,155.713 L146.914,159.213 L163.026,165.423 L163.026,95.828 C163.026,74.518 145.837,57.242 124.526,57.242 C103.216,57.242 86.026,74.518 86.026,95.828 L86.026,165.343 L100.666,159.713 L110.986,155.88"/>
    <polyline fill="#EAEAE9" points="138.026 156.511 138.026 142.109 111.39 141.046 111.392 146.713 138.026 156.511"/>
    <path fill="#48515A" d="M182.646 190.078L172.026 190.078 172.026 188.078 182.646 188.078C183.479 188.078 184.271 187.706 184.82 187.057 185.384 186.391 185.626 185.519 185.483 184.666 183.01 177.657 177.607 172.098 170.646 169.403L146.586 160.212 147.3 158.344 171.363 167.537C178.912 170.458 184.758 176.499 187.408 184.11L187.459 184.345C187.697 185.766 187.293 187.231 186.347 188.349 185.417 189.448 184.069 190.078 182.646 190.078M58.026 222.078L56.026 222.078 56.036 220.859 60.297 189.484C61.629 179.555 68.257 171.141 77.595 167.526L100.315 158.821 101.031 160.688 78.313 169.393C69.66 172.742 63.514 180.544 62.279 189.751L58.026 221.062 58.026 222.078"/>
    <path fill="#48515A" d="M124.608,209.84 L123.844,208.942 C122.75,207.655 97.026,177.279 97.026,164.955 L97.026,164.846 C97.026,161.826 98.813,159.217 101.579,158.201 L110.026,155.066 L110.026,133.439 L139.026,128.039 L139.026,155.071 L147.623,158.335 C150.352,159.372 152.186,162.032 152.186,164.955 C152.186,169.257 149.083,176.176 142.964,185.52 L141.291,184.424 C147.11,175.538 150.186,168.806 150.186,164.955 C150.186,162.857 148.87,160.949 146.913,160.206 L137.026,156.451 L137.026,130.446 L112.026,135.102 L112.026,156.457 L102.272,160.077 C100.299,160.802 99.026,162.673 99.026,164.846 L99.026,164.955 C99.026,175.423 120.276,201.528 124.605,206.736 C125.442,205.728 126.912,203.938 128.73,201.646 L130.296,202.89 C127.409,206.529 125.389,208.917 125.369,208.941 L124.608,209.84"/>
    <path fill="#FFF" d="M133.442,145.122 C136.453,142.577 141.523,138.036 145.148,132.256 C150.483,123.748 153.026,112.751 153.026,101.916 L153.026,101.078 L129.165,101.078 C121.791,101.078 116.026,94.869 116.026,87.494 L116.026,83.819 L116.026,87.494 C116.026,94.869 109.834,101.078 102.46,101.078 L97.026,101.078 L97.026,101.916 C97.026,112.707 99.101,123.798 104.378,132.317 C107.931,138.053 112.601,142.501 115.549,145.019 C117.176,146.408 119.112,147.078 121.251,147.078 L127.448,147.078 C129.642,147.078 131.767,146.539 133.442,145.122"/>
    <path fill="#48515A" d="M98.026 102.078C98.043 110.395 99.314 122.242 105.228 131.791 108.595 137.227 113.052 141.571 116.199 144.259 117.613 145.466 119.312 146.078 121.251 146.078L127.448 146.078C129.648 146.078 131.447 145.5 132.796 144.358L132.797 144.358C134.682 142.764 140.419 137.914 144.3 131.725 149.259 123.817 152 113.294 152.026 102.078L129.165 102.078C123.18 102.078 118.052 98.223 115.992 92.793 113.824 98.169 108.5 102.078 102.46 102.078L98.026 102.078zM127.448 148.078L121.251 148.078C118.823 148.078 116.687 147.305 114.9 145.78 111.646 143 107.03 138.499 103.528 132.843 97.328 122.833 96.026 110.5 96.026 101.917L96.026 100.078 102.46 100.078C109.271 100.078 115.026 94.315 115.026 87.494L115.026 83.819 117.026 83.819 117.026 87.494C117.026 94.433 122.472 100.078 129.165 100.078L154.026 100.078 154.026 101.917C154.026 113.564 151.174 124.527 145.995 132.787 141.948 139.24 136.032 144.242 134.088 145.885 132.368 147.34 130.134 148.078 127.448 148.078zM190.102 29.922C174.182 29.922 161.23 42.874 161.23 58.793 161.23 70.552 168.231 81.049 179.066 85.536L179.747 85.817 179.68 86.55C179.485 88.684 178.471 90.585 176.971 91.942 179.975 91.503 182.806 90.017 184.941 87.716L185.299 87.33 185.82 87.407C187.127 87.601 188.527 87.695 190.102 87.695 206.021 87.695 218.974 74.736 218.974 58.809 218.974 42.88 206.021 29.922 190.102 29.922zM175.106 94.078L171.496 94.078 171.496 92.078C174.438 92.078 176.987 89.932 177.583 87.075 166.407 82.119 159.23 71.102 159.23 58.793 159.23 41.771 173.079 27.922 190.102 27.922 207.125 27.922 220.974 41.778 220.974 58.809 220.974 75.839 207.125 89.695 190.102 89.695 188.631 89.695 187.297 89.617 186.042 89.456 183.123 92.4 179.167 94.078 175.106 94.078z"/>
    <polygon fill="#48515A" points="173.026 47.078 207.026 47.078 207.026 45.078 173.026 45.078"/>
    <polygon fill="#48515A" points="173.026 51.078 207.026 51.078 207.026 49.078 173.026 49.078"/>
    <polygon fill="#48515A" points="173.026 55.078 207.026 55.078 207.026 53.078 173.026 53.078"/>
    <polyline fill="#48515A" points="198.225 70.453 194.425 66.653 195.839 65.239 198.225 67.624 207.317 58.532 208.731 59.946 198.225 70.453"/>
    <polyline fill="#48515A" points="184.317 70.761 176.317 62.761 177.731 61.347 185.731 69.347 184.317 70.761"/>
    <polyline fill="#48515A" points="177.731 70.761 176.317 69.347 184.317 61.347 185.731 62.761 177.731 70.761"/>
    <path fill="#48515A" d="M175.026,72.078 L187.026,72.078 L187.026,60.078 L175.026,60.078 L175.026,72.078 Z M173.026,74.078 L189.026,74.078 L189.026,58.078 L173.026,58.078 L173.026,74.078 Z"/>
    <polyline fill="#48515A" points="207.026 74.078 191.026 74.078 191.026 58.078 204.026 58.078 204.026 60.078 193.026 60.078 193.026 72.078 205.026 72.078 205.026 65.078 207.026 65.078 207.026 74.078"/>
    <path fill="#48515A" d="M90.317,103.013 C90.124,101.05 90.026,99.236 90.026,97.62 L90.026,97.141 C90.026,87.843 93.857,78.706 100.537,72.072 C107.112,65.542 115.664,61.987 124.72,62.055 C132.446,62.107 139.733,64.66 145.792,69.436 C149.792,72.59 153.099,76.662 155.355,81.211 C155.551,81.607 155.74,82.007 155.921,82.411 C157.934,86.745 158.992,91.511 158.978,96.192 L159.026,96.523 L159.026,97.62 C159.026,99.395 158.834,101.332 158.646,102.994 L156.658,102.768 C156.84,101.162 157.026,99.295 157.026,97.62 L156.978,96.29 C157.006,91.867 156.012,87.355 154.102,83.241 C153.926,82.849 153.748,82.472 153.563,82.1 C151.438,77.814 148.322,73.979 144.553,71.007 C138.847,66.508 131.984,64.104 124.705,64.055 C116.2,63.992 108.14,67.34 101.946,73.491 C95.642,79.752 92.026,88.373 92.026,97.141 L92.026,97.62 C92.026,99.171 92.121,100.92 92.307,102.817 L90.317,103.013"/>
    <path fill="#FFF" d="M92.974,123.382 L99.817,121.807 C100.876,121.548 101.532,120.488 101.292,119.425 L97.773,103.815 C97.527,102.723 96.434,102.046 95.347,102.312 L88.575,103.869 C86.42,104.355 85.067,106.496 85.553,108.651 L88.192,120.36 C88.678,122.515 90.819,123.868 92.974,123.382"/>
    <path fill="#48515A" d="M95.825,103.254 C95.745,103.254 95.664,103.264 95.585,103.283 L88.799,104.844 C87.182,105.209 86.165,106.818 86.528,108.432 L89.168,120.14 C89.531,121.753 91.139,122.771 92.752,122.407 L99.593,120.833 C100.105,120.707 100.436,120.173 100.317,119.645 L96.798,104.034 C96.738,103.771 96.579,103.547 96.349,103.404 C96.188,103.305 96.008,103.254 95.825,103.254 Z M92.094,124.481 C89.808,124.481 87.74,122.9 87.216,120.579 L84.577,108.871 C83.971,106.182 85.665,103.5 88.355,102.894 L95.123,101.337 C95.895,101.147 96.711,101.276 97.402,101.704 C98.092,102.131 98.57,102.803 98.749,103.594 L102.268,119.205 C102.625,120.79 101.632,122.393 100.054,122.778 L93.194,124.358 C92.826,124.441 92.456,124.481 92.094,124.481 Z"/>
    <path fill="#48515A" d="M93.162,110.153 C92.059,110.153 91.162,111.05 91.162,112.153 C91.162,113.256 92.059,114.153 93.162,114.153 C94.265,114.153 95.162,113.256 95.162,112.153 C95.162,111.05 94.265,110.153 93.162,110.153 Z M93.162,116.153 C90.956,116.153 89.162,114.358 89.162,112.153 C89.162,109.947 90.956,108.153 93.162,108.153 C95.368,108.153 97.162,109.947 97.162,112.153 C97.162,114.358 95.368,116.153 93.162,116.153 Z"/>
    <path fill="#FFF" d="M156.563,123.566 L149.18,121.807 C148.121,121.548 147.465,120.488 147.705,119.425 L151.224,103.815 C151.47,102.723 152.563,102.046 153.65,102.312 L160.962,104.053 C163.117,104.539 164.471,106.68 163.985,108.835 L161.345,120.543 C160.86,122.698 158.718,124.052 156.563,123.566"/>
    <path fill="#48515A" d="M156.789,122.591 C157.57,122.766 158.37,122.627 159.046,122.2 C159.723,121.771 160.193,121.105 160.37,120.323 L163.009,108.615 C163.373,107.001 162.356,105.392 160.743,105.028 L153.418,103.285 C153.15,103.219 152.878,103.261 152.648,103.404 C152.418,103.547 152.259,103.771 152.199,104.035 L148.68,119.645 C148.561,120.173 148.892,120.707 149.417,120.836 L156.789,122.591 Z M157.453,124.666 C157.084,124.666 156.712,124.624 156.343,124.541 L156.332,124.538 L148.949,122.78 C147.365,122.393 146.372,120.79 146.729,119.205 L150.248,103.595 C150.427,102.803 150.905,102.131 151.595,101.704 C152.286,101.277 153.1,101.147 153.888,101.341 L161.194,103.08 C162.485,103.371 163.596,104.154 164.309,105.283 C165.023,106.413 165.254,107.751 164.96,109.054 L162.321,120.763 C162.027,122.066 161.244,123.176 160.114,123.89 C159.305,124.402 158.388,124.666 157.453,124.666 Z"/>
    <path fill="#48515A" d="M155.834 110.153C154.731 110.153 153.834 111.05 153.834 112.153 153.834 113.256 154.731 114.153 155.834 114.153 156.937 114.153 157.834 113.256 157.834 112.153 157.834 111.05 156.937 110.153 155.834 110.153zM155.834 116.153C153.629 116.153 151.834 114.358 151.834 112.153 151.834 109.947 153.629 108.153 155.834 108.153 158.04 108.153 159.834 109.947 159.834 112.153 159.834 114.358 158.04 116.153 155.834 116.153zM122.026 131.078C121.475 131.078 121.026 131.527 121.026 132.078 121.026 132.629 121.475 133.078 122.026 133.078L128.026 133.078C128.578 133.078 129.026 132.629 129.026 132.078 129.026 131.527 128.578 131.078 128.026 131.078L122.026 131.078zM128.026 135.078L122.026 135.078C120.372 135.078 119.026 133.732 119.026 132.078 119.026 130.424 120.372 129.078 122.026 129.078L128.026 129.078C129.681 129.078 131.026 130.424 131.026 132.078 131.026 133.732 129.681 135.078 128.026 135.078z"/>
    <polyline fill="#48515A" points="134.786 133.078 130.026 133.078 130.026 131.078 134.662 131.078 150.339 129.123 153.528 122.898 155.308 123.81 151.637 130.976 134.786 133.078"/>
    <polyline fill="#48515A" points="91.504 109.072 90.338 103.107 92.301 102.723 93.467 108.688 91.504 109.072"/>
    <polyline fill="#48515A" points="157.471 109.387 155.501 109.039 156.621 102.707 158.59 103.055 157.471 109.387"/>
    <path fill="#48515A" d="M164.974 222.078L143.135 222.078C139.767 222.078 137.026 219.259 137.026 215.794L137.026 214.796C137.026 211.483 139.596 209.078 143.135 209.078L151.134 209.078C153.354 209.078 155.302 207 155.302 204.632L155.302 204.354C155.302 202.036 153.393 200.078 151.134 200.078L127.463 200.078C123.914 200.078 121.026 197.409 121.026 194.127 121.026 190.786 123.914 188.078 127.463 188.078L142.026 188.078 142.026 190.078 127.463 190.078C125.058 190.078 123.026 191.927 123.026 194.115 123.026 196.306 125.017 198.078 127.463 198.078L151.134 198.078C154.535 198.078 157.302 200.893 157.302 204.354L157.302 204.632C157.302 208.126 154.478 211.078 151.134 211.078L143.135 211.078C140.716 211.078 139.026 212.607 139.026 214.796L139.026 215.794C139.026 218.156 140.87 220.078 143.135 220.078L164.974 220.078C167.713 220.078 170.026 217.735 170.026 214.962L170.026 211.555 174.144 207.33 175.576 208.725 172.026 212.369 172.026 214.962C172.026 218.819 168.797 222.078 164.974 222.078M168.81 189.95C168.54 189.95 168.29 189.84 168.1 189.65 167.91 189.47 167.81 189.21 167.81 188.95 167.81 188.69 167.91 188.43 168.1 188.24 168.38 187.96 168.82 187.87 169.19 188.02 169.31 188.07 169.42 188.15 169.52 188.24 169.7 188.43 169.81 188.69 169.81 188.95 169.81 189.21 169.7 189.47 169.52 189.65 169.33 189.84 169.07 189.95 168.81 189.95M148.09 188.95C148.09 188.39 148.53 187.95 149.09 187.95 149.64 187.95 150.08 188.39 150.08 188.95 150.08 189.5 149.64 189.95 149.09 189.95 148.53 189.95 148.09 189.5 148.09 188.95zM152.03 188.95C152.03 188.39 152.48 187.95 153.03 187.95 153.58 187.95 154.03 188.39 154.03 188.95 154.03 189.5 153.58 189.95 153.03 189.95 152.48 189.95 152.03 189.5 152.03 188.95zM155.97 188.95C155.97 188.39 156.42 187.95 156.98 187.95 157.53 187.95 157.97 188.39 157.97 188.95 157.97 189.5 157.53 189.95 156.98 189.95 156.42 189.95 155.97 189.5 155.97 188.95zM159.92 188.95C159.92 188.39 160.37 187.95 160.92 187.95 161.47 187.95 161.92 188.39 161.92 188.95 161.92 189.5 161.47 189.95 160.92 189.95 160.37 189.95 159.92 189.5 159.92 188.95zM163.86 188.95C163.86 188.39 164.31 187.95 164.86 187.95 165.42 187.95 165.86 188.39 165.86 188.95 165.86 189.5 165.42 189.95 164.86 189.95 164.31 189.95 163.86 189.5 163.86 188.95z"/>
    <path fill="#48515A" d="M145.14,189.95 C145.01,189.95 144.88,189.92 144.76,189.87 C144.64,189.82 144.53,189.75 144.43,189.65 C144.25,189.47 144.14,189.21 144.14,188.95 C144.14,188.69 144.25,188.43 144.43,188.24 C144.53,188.15 144.64,188.07 144.76,188.02 C144.94,187.95 145.14,187.93 145.34,187.97 C145.4,187.98 145.46,188 145.52,188.02 C145.58,188.05 145.64,188.08 145.7,188.12 C145.75,188.15 145.8,188.19 145.85,188.24 C145.94,188.33 146.01,188.44 146.06,188.56 C146.12,188.69 146.14,188.82 146.14,188.95 C146.14,189.08 146.12,189.21 146.06,189.33 C146.01,189.45 145.94,189.56 145.85,189.65 C145.66,189.84 145.41,189.95 145.14,189.95"/>
    <path fill="#475059" d="M182.296,195.118 C181.957,195.118 181.62,195.247 181.362,195.503 L173.348,203.496 C173.097,203.747 172.958,204.081 172.958,204.436 C172.957,204.792 173.095,205.126 173.346,205.377 L177.532,209.419 C177.666,209.539 178.153,209.721 178.584,209.821 C181.675,209.768 184.557,209.335 187.153,208.537 C202.259,203.886 213.803,192.018 218.033,176.788 C218.556,174.904 218.822,172.806 218.825,170.553 C218.826,169.575 218.447,168.655 217.756,167.963 L214.255,164.607 C213.721,164.072 212.876,164.071 212.357,164.589 L204.344,172.582 C203.825,173.1 203.823,173.943 204.341,174.463 L208.752,178.714 L208.656,179.241 C206.878,189.06 199.464,196.93 189.769,199.291 L187.692,199.796 L183.257,195.52 C182.989,195.251 182.642,195.118 182.296,195.118 Z M178.39,211.825 L178.284,211.803 C177.931,211.731 176.731,211.449 176.128,210.844 L171.943,206.803 C171.302,206.16 170.956,205.323 170.958,204.434 C170.958,203.544 171.306,202.708 171.936,202.08 L179.95,194.087 C181.25,192.792 183.361,192.793 184.659,194.093 L188.288,197.593 L189.295,197.347 C198.051,195.215 204.786,188.205 206.588,179.406 L202.939,175.889 C201.628,174.575 201.631,172.462 202.932,171.166 L210.945,163.173 C212.245,161.877 214.357,161.879 215.655,163.179 L219.156,166.535 C220.24,167.622 220.827,169.044 220.825,170.555 C220.822,172.989 220.531,175.266 219.959,177.323 C215.546,193.213 203.502,205.596 187.742,210.448 C184.932,211.313 181.822,211.775 178.498,211.823 L178.39,211.825 Z"/>
    <polyline fill="#475059" points="209.604 176.782 208.192 175.366 212.441 171.128 213.853 172.544 209.604 176.782"/>
    <polyline fill="#475059" points="215.272 171.129 213.86 169.713 215.274 168.302 216.687 169.718 215.272 171.129"/>
    <polyline fill="#475059" points="178.432 207.872 177.02 206.456 184.103 199.392 185.515 200.808 178.432 207.872"/>
    <path fill="#48515A" d="M193.974,168.962 L191.974,168.962 C191.974,160.14 199.152,152.962 207.974,152.962 L207.974,154.962 C200.254,154.962 193.974,161.242 193.974,168.962"/>
    <path fill="#48515A" d="M189.974,168.962 L187.974,168.962 C187.974,157.934 196.946,148.962 207.974,148.962 L207.974,150.962 C198.049,150.962 189.974,159.037 189.974,168.962"/>
    <path fill="#48515A" d="M185.974 168.962L183.974 168.962C183.974 155.729 194.741 144.962 207.974 144.962L207.974 146.962C195.843 146.962 185.974 156.831 185.974 168.962M197.974 168.962L195.974 168.962C195.974 162.345 201.357 156.962 207.974 156.962L207.974 158.962C202.46 158.962 197.974 163.448 197.974 168.962"/>
    <polygon fill="#48515A" points="189.026 116.078 191.026 116.078 191.026 112.078 189.026 112.078"/>
    <polygon fill="#48515A" points="189.026 126.078 191.026 126.078 191.026 122.078 189.026 122.078"/>
    <polygon fill="#48515A" points="193.026 120.078 197.026 120.078 197.026 118.078 193.026 118.078"/>
    <polygon fill="#48515A" points="183.026 120.078 187.026 120.078 187.026 118.078 183.026 118.078"/>
  </g>
</svg>
