<svg xmlns="http://www.w3.org/2000/svg" width="250" height="250" viewBox="0 0 250 250">
  <g fill="none" fill-rule="evenodd">
    <path fill="#F58E70" d="M128.958,221.176 C128.958,221.176 126.291,175.49 124.958,170.156 L124.989,170.156 C126.094,170.157 127.021,169.262 127.021,168.157 L127.021,163.157 L121.937,157.153 L117.021,163.157 L117.021,168.157 C117.021,169.262 117.885,170.157 118.989,170.156 L118.966,170.156 C117.633,175.49 114.962,221.176 114.962,221.176"/>
    <path fill="#DFE0E0" d="M107.021,142.162 L107.021,146.532 L121.93,155.032 L136.908,146.782 L137.021,138.784 L137.021,132.043 C137.021,131.477 138.092,130.871 138.619,130.259 C138.439,130.416 138.222,130.574 138.075,130.733 C135.972,132.994 132.76,135.569 130.601,137.413 C128.893,138.872 126.711,139.907 124.465,139.907 L117.973,139.907 C115.727,139.907 113.567,138.872 111.859,137.413 C109.799,135.653 106.799,133.31 104.702,131.143 C104.638,131.078 104.565,130.962 104.497,130.897 C105.127,131.567 106.068,132.221 106.835,132.896 C106.818,132.904 107.021,132.887 107.021,132.907 L107.021,142.162"/>
    <path fill="#48515A" d="M107.021,146.907 C106.468,146.907 106.021,146.459 106.021,145.907 L106.021,132.907 C106.021,132.354 106.468,131.907 107.021,131.907 C107.573,131.907 108.021,132.354 108.021,132.907 L108.021,145.907 C108.021,146.459 107.573,146.907 107.021,146.907"/>
    <path fill="#48515A" d="M137.021 146.907C136.468 146.907 136.021 146.459 136.021 145.907L136.021 131.709 136.199 131.452C136.608 130.861 137.102 130.283 137.58 129.725 138.258 128.93 138.959 128.108 139.194 127.484L145.237 114.83 152.139 111.319 153.715 103.384C153.712 102.737 153.435 102.069 152.965 101.586 152.54 101.148 152.006 100.907 151.463 100.907L148.889 100.907 149.092 99.735C149.59 96.87 150.021 94.396 150.021 91.826L149.97 90.47C149.995 86.637 149.121 82.7 147.442 79.084 147.287 78.739 147.131 78.41 146.969 78.083 145.105 74.325 142.372 70.961 139.066 68.354 134.065 64.411 128.048 62.304 121.666 62.261 114.277 62.199 107.177 65.149 101.752 70.537 96.203 76.049 93.02 83.633 93.02 91.347L93.02 91.826C93.02 94.464 93.307 96.905 93.737 99.758L93.91 100.907 91.535 100.907C90.335 100.907 89.238 102.079 89.172 103.397L91.413 111.475 97.422 114.969 103.362 127.58C104.193 129.802 107.917 132.861 110.635 135.094 111.305 135.645 111.942 136.168 112.509 136.653 114.211 138.106 116.152 138.907 117.973 138.907L124.021 138.907C124.573 138.907 125.021 139.354 125.021 139.907 125.021 140.459 124.573 140.907 124.021 140.907L117.973 140.907C115.676 140.907 113.274 139.936 111.21 138.173 110.652 137.697 110.024 137.182 109.365 136.64 106.151 133.998 102.507 131.005 101.52 128.355L95.878 116.385 89.704 112.794 87.169 103.522C87.169 101.02 89.168 98.907 91.535 98.907L91.591 98.907C91.243 96.44 91.021 94.222 91.021 91.826L91.021 91.347C91.021 83.104 94.419 75.002 100.343 69.118 106.148 63.352 113.715 60.181 121.68 60.261 128.511 60.307 134.951 62.563 140.304 66.784 143.842 69.573 146.766 73.173 148.761 77.194 148.934 77.544 149.101 77.897 149.261 78.254 151.041 82.087 151.979 86.278 151.97 90.368L152.021 90.702 152.021 91.826C152.021 94.2 151.688 96.432 151.265 98.907L151.463 98.907C152.551 98.907 153.594 99.363 154.399 100.192 155.27 101.087 155.749 102.3 155.713 103.518L155.695 103.684 153.911 112.661 146.749 116.305 141.033 128.267C140.708 129.141 139.927 130.055 139.101 131.023 138.727 131.46 138.343 131.911 138.021 132.344L138.021 145.907C138.021 146.459 137.573 146.907 137.021 146.907M57.906 221.038L55.906 221.033 56.021 171.794C56.021 165.82 59.794 163.919 65.123 161.887L96.26 151.214 101.754 140.907 106.021 140.907 106.021 142.907 102.954 142.907 97.655 152.85 65.804 163.767C60.524 165.781 58.021 167.235 58.021 171.796L57.906 221.038"/>
    <path fill="#48515A" d="M121.958 156.303L106.099 147.422C105.617 147.152 105.445 146.542 105.715 146.06 105.986 145.579 106.596 145.408 107.077 145.677L121.958 154.011 136.256 146.003C136.739 145.735 137.347 145.905 137.618 146.387 137.888 146.869 137.716 147.478 137.234 147.748L121.958 156.303M187.989 221.036L185.989 221.035 186.013 171.917C186.013 167.464 183.668 165.882 178.06 163.819L146.207 152.943 140.154 142.907 137.021 142.907 137.021 140.907 141.284 140.907 147.542 151.286 178.728 161.934C183.998 163.873 188.013 165.833 188.013 171.917L187.989 221.036"/>
    <path fill="#48515A" d="M130.958 168.157C130.684 168.157 130.412 168.045 130.214 167.826L121.958 158.651 113.701 167.826C113.332 168.235 112.699 168.27 112.289 167.9 111.878 167.531 111.845 166.898 112.214 166.488L121.958 155.662 131.701 166.488C132.07 166.898 132.037 167.531 131.626 167.9 131.436 168.072 131.196 168.157 130.958 168.157M34.021 136.907L76.021 136.907 76.021 110.907 34.021 110.907 34.021 136.907zM32.021 138.907L78.021 138.907 78.021 108.907 32.021 108.907 32.021 138.907z"/>
    <path fill="#48515A" d="M55.114 125.083C54.928 125.083 54.741 125.031 54.577 124.927L38.454 114.652C37.988 114.355 37.851 113.737 38.148 113.271 38.445 112.806 39.063 112.668 39.529 112.965L55.112 122.896 70.062 113.306C70.526 113.009 71.145 113.142 71.443 113.608 71.742 114.073 71.606 114.691 71.142 114.99L55.654 124.925C55.49 125.031 55.302 125.083 55.114 125.083M73.854 134.978C73.567 134.978 73.283 134.856 73.085 134.619L64.162 123.913C63.809 123.488 63.866 122.858 64.29 122.504 64.714 122.15 65.345 122.208 65.698 122.632L74.622 133.338C74.975 133.763 74.918 134.393 74.494 134.746 74.307 134.902 74.08 134.978 73.854 134.978M36.375 134.978C36.149 134.978 35.922 134.902 35.735 134.746 35.311 134.393 35.254 133.763 35.607 133.338L44.531 122.632C44.885 122.208 45.515 122.151 45.939 122.504 46.363 122.858 46.42 123.488 46.067 123.913L37.144 134.619C36.946 134.856 36.662 134.978 36.375 134.978"/>
    <polygon fill="#48515A" points="56.021 154.907 58.021 154.907 58.021 140.907 56.021 140.907"/>
    <path fill="#48515A" d="M56.96,157.82 C56.7,157.82 56.44,157.72 56.26,157.53 C56.07,157.35 55.97,157.09 55.97,156.82 C55.97,156.56 56.07,156.3 56.26,156.12 C56.63,155.75 57.3,155.75 57.67,156.12 C57.86,156.3 57.96,156.56 57.96,156.82 C57.96,157.09 57.86,157.35 57.67,157.53 C57.49,157.72 57.23,157.82 56.96,157.82"/>
    <polygon fill="#48515A" points="65.02 145.907 67.02 145.907 67.02 140.907 65.02 140.907"/>
    <path fill="#48515A" d="M65.66,149.13 C65.39,149.13 65.14,149.02 64.95,148.84 C64.76,148.65 64.66,148.39 64.66,148.13 C64.66,147.86 64.76,147.61 64.95,147.42 C65.23,147.14 65.67,147.05 66.04,147.2 C66.16,147.26 66.27,147.33 66.36,147.42 C66.55,147.61 66.66,147.87 66.66,148.13 C66.66,148.39 66.55,148.65 66.36,148.84 C66.27,148.93 66.16,149 66.04,149.05 C65.92,149.1 65.79,149.13 65.66,149.13"/>
    <polygon fill="#48515A" points="47.021 148.907 49.021 148.907 49.021 140.907 47.021 140.907"/>
    <path fill="#48515A" d="M48.27,152.03 C48.01,152.03 47.75,151.92 47.56,151.73 C47.37,151.55 47.27,151.29 47.27,151.03 C47.27,150.76 47.37,150.5 47.56,150.32 C47.93,149.95 48.6,149.95 48.98,150.32 C49.16,150.51 49.27,150.76 49.27,151.03 C49.27,151.29 49.16,151.54 48.98,151.73 C48.79,151.92 48.53,152.03 48.27,152.03"/>
    <polygon fill="#48515A" points="197.021 184.907 199.021 184.907 199.021 180.907 197.021 180.907"/>
    <polygon fill="#48515A" points="197.021 194.907 199.021 194.907 199.021 190.907 197.021 190.907"/>
    <polygon fill="#48515A" points="201.021 188.907 205.021 188.907 205.021 186.907 201.021 186.907"/>
    <polygon fill="#48515A" points="191.021 188.907 195.021 188.907 195.021 186.907 191.021 186.907"/>
    <polygon fill="#48515A" points="66.021 78.907 68.021 78.907 68.021 74.907 66.021 74.907"/>
    <polygon fill="#48515A" points="66.021 88.907 68.021 88.907 68.021 84.907 66.021 84.907"/>
    <polygon fill="#48515A" points="70.021 82.907 74.021 82.907 74.021 80.907 70.021 80.907"/>
    <polygon fill="#48515A" points="60.02 82.907 64.02 82.907 64.02 80.907 60.02 80.907"/>
    <path fill="#475059" d="M43.909,201.907 C42.227,201.907 40.909,203.206 40.909,204.865 C40.909,206.552 42.254,207.907 43.909,207.907 L99.074,207.907 L105.58,204.907 L99.074,201.907 L43.909,201.907 Z M99.513,209.907 L43.909,209.907 C41.152,209.907 38.909,207.654 38.909,204.886 C38.909,202.131 41.152,199.907 43.909,199.907 L99.512,199.907 L110.356,204.907 L99.513,209.907 Z"/>
    <polygon fill="#475059" points="49.021 208.907 51.021 208.907 51.021 200.907 49.021 200.907"/>
    <polygon fill="#475059" points="50.021 205.907 99.021 205.907 99.021 203.907 50.021 203.907"/>
    <path fill="#475059" d="M174.98,131.823 C173.877,131.823 172.98,132.72 172.98,133.823 C172.98,134.926 173.877,135.823 174.98,135.823 C176.083,135.823 176.98,134.926 176.98,133.823 C176.98,132.72 176.083,131.823 174.98,131.823 Z M174.98,137.823 C172.774,137.823 170.98,136.029 170.98,133.823 C170.98,131.618 172.774,129.823 174.98,129.823 C177.186,129.823 178.98,131.618 178.98,133.823 C178.98,136.029 177.186,137.823 174.98,137.823 Z"/>
    <path fill="#F58E70" d="M137.98,60.823 C137.98,61.928 137.084,62.823 135.98,62.823 C134.875,62.823 133.98,61.928 133.98,60.823 C133.98,59.719 134.875,58.823 135.98,58.823 C137.084,58.823 137.98,59.719 137.98,60.823"/>
    <path fill="#FFD45C" d="M214.199,63.071 C214.199,46.245 200.559,32.604 183.732,32.604 C166.905,32.604 153.264,46.245 153.264,63.071 C153.264,79.898 166.905,93.539 183.732,93.539 C200.559,93.539 214.199,79.898 214.199,63.071"/>
    <path fill="#48515A" d="M183.522,30.824 C165.626,30.824 151.066,45.384 151.066,63.281 C151.066,76.569 158.937,88.413 171.117,93.456 L171.797,93.738 L171.73,94.471 C171.498,97.019 170.238,99.27 168.398,100.805 C171.899,100.379 175.266,98.633 177.831,95.869 L178.189,95.482 L178.71,95.559 C180.291,95.795 181.957,95.827 183.522,95.827 C201.419,95.827 215.979,81.247 215.979,63.326 C215.979,45.404 201.419,30.824 183.522,30.824 Z M166.728,102.907 L162.684,102.907 L162.684,100.907 C166.067,100.907 168.997,98.364 169.639,94.999 C157.115,89.485 149.066,77.119 149.066,63.281 C149.066,44.281 164.523,28.824 183.522,28.824 C202.522,28.824 217.979,44.302 217.979,63.326 C217.979,82.35 202.522,97.827 183.522,97.827 C182.046,97.827 180.478,97.799 178.935,97.608 C175.622,100.982 171.202,102.907 166.728,102.907 Z"/>
    <polygon fill="#48515A" points="164.021 58.907 202.021 58.907 202.021 56.907 164.021 56.907"/>
    <polygon fill="#48515A" points="164.021 63.907 202.021 63.907 202.021 61.907 164.021 61.907"/>
    <polygon fill="#48515A" points="164.021 67.907 202.021 67.907 202.021 65.907 164.021 65.907"/>
    <path fill="#475059" d="M203.468,137.715 C197.545,137.715 192.727,142.533 192.727,148.456 C192.727,154.379 197.545,159.197 203.468,159.197 C209.391,159.197 214.209,154.379 214.209,148.456 C214.209,142.533 209.391,137.715 203.468,137.715 Z M203.468,161.197 C196.443,161.197 190.727,155.481 190.727,148.456 C190.727,141.431 196.443,135.715 203.468,135.715 C210.494,135.715 216.209,141.431 216.209,148.456 C216.209,155.481 210.494,161.197 203.468,161.197 Z"/>
    <path fill="#475059" d="M203.467,137.715 C200.583,137.715 198.145,142.634 198.145,148.456 C198.145,154.278 200.583,159.197 203.467,159.197 C206.352,159.197 208.79,154.278 208.79,148.456 C208.79,142.634 206.352,137.715 203.467,137.715 Z M203.467,161.197 C199.361,161.197 196.145,155.6 196.145,148.456 C196.145,141.311 199.361,135.715 203.467,135.715 C207.573,135.715 210.79,141.311 210.79,148.456 C210.79,155.6 207.573,161.197 203.467,161.197 Z"/>
    <polygon fill="#475059" points="192.021 149.907 215.021 149.907 215.021 147.907 192.021 147.907"/>
  </g>
</svg>
