<svg xmlns="http://www.w3.org/2000/svg" width="250" height="250" viewBox="0 0 250 250">
  <g fill="none" fill-rule="evenodd">
    <path fill="#5FE0ED" d="M188.401,67.111 C172.464,67.404 159.86,80.949 159.86,97.085 L159.86,136.381 L179.075,136.381 L179.023,131.255 C177.262,129.435 175.34,127.158 173.723,124.515 C169.737,118 168.17,109.519 168.17,101.268 L168.17,100.627 L185.998,100.627 L185.809,92.029 C191.633,97.553 199.315,100.627 207.296,100.627 L210.473,100.627 L210.473,101.268 C210.473,109.552 208.551,117.962 204.521,124.468 C201.858,128.766 198.174,132.156 195.881,134.13 L199.156,136.381 L218.027,136.381 L218.027,96.612 C218.027,80.134 204.749,66.81 188.401,67.111"/>
    <polyline fill="#EAEAE9" points="210.926 160.851 201.106 160.851 204.222 156.263 205.827 156.263 210.926 160.851"/>
    <polyline fill="#EAEAE9" points="199.111 138.962 205.45 145.558 211.506 160.081 209.996 160.081 206.22 156.261 204.709 156.261 198.664 146.32 199.111 138.962"/>
    <path fill="#EAEAE9" d="M199.142,143.015 L199.142,132.003 L195.052,134.561 C193.948,135.251 192.675,135.617 191.377,135.617 L186.819,135.617 C185.19,135.617 183.613,135.042 182.359,133.99 L179.02,131.19 L179.022,135.523 L199.142,143.015"/>
    <path fill="#48515A" d="M191.151,136.802 L186.469,136.802 C184.573,136.802 182.904,136.191 181.508,134.984 C179.036,132.847 175.531,129.387 172.87,125.037 C168.159,117.336 167.17,107.861 167.17,101.268 L167.17,100.627 L169.17,100.627 L169.17,101.268 C169.17,107.604 170.108,116.69 174.576,123.993 C177.103,128.124 180.452,131.427 182.817,133.471 C183.838,134.355 185.067,134.802 186.469,134.802 L191.151,134.802 C192.75,134.802 194.055,134.38 195.029,133.547 C196.447,132.333 200.761,128.639 203.67,123.942 C207.412,117.902 209.473,109.849 209.473,101.268 L209.473,100.627 L211.473,100.627 L211.473,101.268 C211.473,110.216 209.306,118.643 205.371,124.995 C202.297,129.957 197.805,133.802 196.329,135.066 C194.984,136.218 193.241,136.802 191.151,136.802"/>
    <polygon fill="#48515A" points="178.01 139.344 180.01 139.344 180.01 131.22 178.01 131.22"/>
    <polygon fill="#48515A" points="197.651 139.822 199.651 139.822 199.651 131.793 197.651 131.793"/>
    <polyline fill="#48515A" points="218.695 151.597 205.098 146.494 205.801 144.622 219.398 149.725 218.695 151.597"/>
    <polyline fill="#48515A" points="179.949 152.517 178.011 146.32 178.011 141.11 172.769 146.416 166.895 148.631 166.19 146.76 171.654 144.699 180.011 136.24 180.011 146.163 181.854 151.905 179.949 152.517"/>
    <polyline fill="#48515A" points="191.213 177.45 189.571 176.309 204.186 155.261 206.638 155.261 209.708 158.368 204.601 146.122 199.664 141.114 199.664 146.482 191.59 170.696 189.694 170.063 197.664 146.158 197.664 136.236 206.298 144.994 213.007 161.081 209.577 161.081 205.802 157.261 205.233 157.261 191.213 177.45"/>
    <path fill="#DFE0E0" d="M51.651,137.546 L51.651,140.775 L62.587,147.058 L73.613,140.96 L73.651,135.049 L73.651,130.066 C73.651,129.647 74.446,129.2 74.836,128.747 C74.703,128.863 74.544,128.98 74.435,129.097 C72.88,130.768 70.508,132.648 68.912,134.01 C67.649,135.088 66.037,135.829 64.377,135.829 L59.578,135.829 C57.918,135.829 56.322,135.088 55.06,134.01 C53.536,132.709 51.319,130.99 49.769,129.388 C49.722,129.34 49.668,129.261 49.617,129.212 C50.083,129.708 50.863,130.194 51.429,130.693 C51.417,130.699 51.651,130.689 51.651,130.704 L51.651,137.546"/>
    <path fill="#48515A" d="M51.651,141.829 C51.098,141.829 50.651,141.381 50.651,140.829 L50.651,130.829 C50.651,130.277 51.098,129.829 51.651,129.829 C52.203,129.829 52.651,130.277 52.651,130.829 L52.651,140.829 C52.651,141.381 52.203,141.829 51.651,141.829"/>
    <path fill="#48515A" d="M73.651,141.829 C73.098,141.829 72.651,141.381 72.651,140.829 L72.651,129.654 L72.922,129.366 C73.824,128.405 74.729,127.403 75.017,126.636 L79.537,117.21 L84.605,114.695 L85.737,109.115 C85.727,108.698 85.539,108.417 85.378,108.252 C85.114,107.979 84.742,107.829 84.333,107.829 L82.097,107.829 L82.327,106.639 C82.699,104.713 82.699,102.185 82.699,100.339 L82.699,99.341 C82.72,96.064 82.208,93.347 81.132,91.03 L80.607,89.898 C79.231,87.261 77.371,85.007 75.072,83.194 C71.421,80.316 67.051,78.777 62.434,78.746 C57.04,78.689 51.944,80.833 48.025,84.725 C43.974,88.749 41.651,94.311 41.651,99.985 L41.649,101.035 C41.644,102.791 41.637,104.977 41.92,106.664 L42.114,107.829 L40.036,107.829 C39.232,107.829 38.616,108.374 38.554,109.117 L40.164,114.684 L44.59,117.255 L49.014,126.643 C49.61,128.232 52.316,130.452 54.292,132.073 C54.799,132.489 55.281,132.884 55.709,133.25 C56.901,134.268 58.276,134.829 59.578,134.829 L64.651,134.829 C65.203,134.829 65.651,135.277 65.651,135.829 C65.651,136.381 65.203,136.829 64.651,136.829 L59.578,136.829 C57.8,136.829 55.964,136.098 54.41,134.771 C53.991,134.413 53.519,134.026 53.023,133.619 C50.633,131.658 47.925,129.436 47.173,127.419 L43.046,118.671 L38.466,116.01 L36.549,109.241 C36.549,107.406 37.957,105.953 39.797,105.837 C39.64,104.246 39.645,102.494 39.649,101.029 L39.651,99.985 C39.651,93.781 42.189,87.702 46.616,83.306 C50.916,79.036 56.566,76.72 62.448,76.746 C67.514,76.781 72.307,78.467 76.31,81.624 C78.958,83.712 81.075,86.331 82.601,89.408 C82.694,89.596 82.777,89.785 82.861,89.975 L83.591,91.609 L83.528,91.609 C84.334,93.863 84.718,96.41 84.699,99.348 L84.699,100.339 C84.699,101.918 84.699,103.976 84.474,105.831 C85.374,105.865 86.2,106.227 86.813,106.858 C87.433,107.496 87.761,108.345 87.736,109.247 L87.716,109.417 L86.37,116.051 L81.043,118.695 L76.854,127.421 C76.503,128.366 75.628,129.392 74.651,130.445 L74.651,140.829 C74.651,141.381 74.203,141.829 73.651,141.829"/>
    <polyline fill="#48515A" points="29.844 150.908 29.207 149.013 43.357 144.253 47.442 136.829 50.651 136.829 50.651 138.829 48.625 138.829 44.733 145.901 29.844 150.908"/>
    <path fill="#48515A" d="M62.524,148.297 L50.674,141.661 C50.192,141.391 50.02,140.781 50.29,140.3 C50.561,139.818 51.17,139.647 51.652,139.916 L62.524,146.005 L72.965,140.157 C73.449,139.889 74.056,140.06 74.326,140.541 C74.596,141.023 74.425,141.633 73.943,141.903 L62.524,148.297"/>
    <polyline fill="#48515A" points="85.798 147.904 80.278 145.966 75.836 138.829 73.651 138.829 73.651 136.829 76.947 136.829 81.604 144.311 86.461 146.017 85.798 147.904"/>
    <path fill="#48515A" d="M55.871,157.021 C55.633,157.021 55.393,156.936 55.202,156.764 C54.792,156.395 54.758,155.762 55.128,155.352 L62.53,147.127 L67.359,152.583 C67.724,152.997 67.686,153.629 67.272,153.995 C66.86,154.362 66.227,154.323 65.861,153.908 L62.518,150.131 L56.614,156.69 C56.417,156.909 56.145,157.021 55.871,157.021"/>
    <path fill="#F58E70" d="M132.569,211.829 C132.569,211.829 129.902,165.455 128.569,160.122 L128.569,160.101 L128.61,160.091 C129.714,160.091 130.651,159.186 130.651,158.081 L130.651,153.081 L125.567,147.077 L120.651,153.081 L120.651,158.081 C120.651,159.186 121.505,160.081 122.61,160.08 L122.589,160.08 L122.579,160.122 C121.246,165.455 118.569,211.829 118.569,211.829 L132.569,211.829"/>
    <path fill="#DFE0E0" d="M110.651,132.086 L110.651,136.456 L125.55,144.956 L140.533,136.706 L140.651,128.708 L140.651,121.967 C140.651,121.401 141.713,120.795 142.24,120.183 C142.06,120.34 141.838,120.498 141.691,120.657 C139.588,122.918 136.374,125.492 134.215,127.336 C132.507,128.795 130.322,129.829 128.076,129.829 L121.584,129.829 C119.338,129.829 117.179,128.795 115.471,127.336 C113.41,125.576 110.41,123.233 108.313,121.067 C108.25,121.001 108.176,120.886 108.108,120.821 C108.738,121.491 109.689,122.144 110.456,122.82 C110.439,122.828 110.651,122.811 110.651,122.831 L110.651,132.086"/>
    <path fill="#48515A" d="M110.651,137.829 C110.098,137.829 109.651,137.381 109.651,136.829 L109.651,122.829 C109.651,122.277 110.098,121.829 110.651,121.829 C111.203,121.829 111.651,122.277 111.651,122.829 L111.651,136.829 C111.651,137.381 111.203,137.829 110.651,137.829"/>
    <path fill="#48515A" d="M140.651 136.829C140.098 136.829 139.651 136.381 139.651 135.829L139.651 121.633 139.829 121.376C140.237 120.788 140.727 120.213 141.2 119.656 141.878 118.859 142.579 118.035 142.816 117.408L148.849 104.754 155.75 101.243 157.326 93.307C157.323 92.659 157.046 91.992 156.575 91.508 156.151 91.07 155.617 90.829 155.074 90.829L152.5 90.829 152.754 89.369C153.255 86.489 153.651 84.214 153.651 81.749L153.59 80.394C153.615 76.574 152.739 72.636 151.054 69.008 150.9 68.662 150.743 68.332 150.582 68.006 148.717 64.246 145.986 60.882 142.682 58.278 137.681 54.335 131.665 52.228 125.287 52.185 117.893 52.156 110.804 55.073 105.382 60.457 99.833 65.968 96.651 73.554 96.651 81.271L96.651 81.749C96.651 84.097 96.853 86.395 97.348 89.679L97.522 90.829 95.146 90.829C93.946 90.829 92.849 92.001 92.783 93.32L95.025 101.398 101.034 104.893 106.973 117.504C107.805 119.725 111.527 122.784 114.245 125.017 114.916 125.568 115.553 126.091 116.12 126.576 117.822 128.029 119.762 128.829 121.584 128.829L127.651 128.829C128.203 128.829 128.651 129.277 128.651 129.829 128.651 130.381 128.203 130.829 127.651 130.829L121.584 130.829C119.286 130.829 116.885 129.859 114.822 128.096 114.263 127.62 113.635 127.104 112.975 126.562 109.761 123.922 106.119 120.929 105.132 118.279L99.49 106.309 93.315 102.717 90.781 93.445C90.781 90.943 92.779 88.829 95.146 88.829L95.204 88.829C94.813 86.029 94.651 83.917 94.651 81.749L94.651 81.271C94.651 73.026 98.049 64.922 103.973 59.038 109.775 53.275 117.314 50.106 125.301 50.185 132.127 50.231 138.567 52.486 143.92 56.708 147.454 59.494 150.378 63.094 152.374 67.118 152.548 67.468 152.714 67.822 152.874 68.178 154.656 72.018 155.597 76.2 155.591 80.271L155.651 80.627 155.651 81.749C155.651 84.112 155.306 86.338 154.877 88.829L155.074 88.829C156.162 88.829 157.205 89.285 158.01 90.114 158.881 91.01 159.36 92.223 159.325 93.441L159.306 93.607 157.522 102.585 150.361 106.229 144.654 118.191C144.328 119.066 143.549 119.982 142.723 120.952 142.353 121.388 141.971 121.836 141.651 122.268L141.651 135.829C141.651 136.381 141.203 136.829 140.651 136.829M61.527 211.606L59.527 211.602 59.633 161.718C59.633 155.743 63.405 153.843 68.734 151.81L99.872 141.137 105.365 130.829 109.651 130.829 109.651 132.829 106.566 132.829 101.266 142.774 69.415 153.691C64.135 155.705 61.633 157.158 61.633 161.72L61.527 211.606"/>
    <path fill="#48515A" d="M125.57 146.227L109.71 137.346C109.228 137.076 109.056 136.467 109.326 135.985 109.596 135.503 110.207 135.332 110.688 135.601L125.57 143.935 139.868 135.927C140.351 135.657 140.959 135.83 141.229 136.311 141.499 136.793 141.327 137.403 140.845 137.673L125.57 146.227M191.61 211.604L189.61 211.603 189.624 161.841C189.624 157.387 187.28 155.806 181.67 153.742L149.818 142.866 143.766 132.829 140.651 132.829 140.651 130.829 144.895 130.829 151.154 141.209 182.339 151.858C187.61 153.796 191.624 155.757 191.624 161.841L191.61 211.604"/>
    <path fill="#48515A" d="M116.569,158.081 C116.33,158.081 116.091,157.996 115.9,157.824 C115.49,157.455 115.456,156.822 115.826,156.412 L125.57,145.586 L135.312,156.412 C135.681,156.822 135.648,157.455 135.238,157.824 C134.825,158.194 134.195,158.16 133.825,157.75 L125.57,148.575 L117.312,157.75 C117.115,157.969 116.843,158.081 116.569,158.081"/>
    <path fill="#475059" d="M154.347,183.829 C152.693,183.829 151.347,185.16 151.347,186.797 C151.347,188.476 152.693,189.829 154.347,189.829 L209.512,189.829 L216.018,186.829 L209.511,183.829 L154.347,183.829 Z M209.951,191.829 L154.347,191.829 C151.59,191.829 149.347,189.579 149.347,186.813 C149.347,184.057 151.59,181.829 154.347,181.829 L209.95,181.829 L220.793,186.829 L209.951,191.829 Z"/>
    <polygon fill="#475059" points="159.651 190.829 161.651 190.829 161.651 182.829 159.651 182.829"/>
    <polygon fill="#475059" points="160.651 187.829 208.651 187.829 208.651 185.829 160.651 185.829"/>
    <path fill="#48515A" d="M165.764,73.673 L168.218,74.469 L168.685,73.032 C169.211,71.411 170.654,70.363 172.359,70.363 C174.064,70.363 175.505,71.41 176.032,73.031 L176.499,74.467 L178.953,73.669 L178.486,72.232 C177.958,70.611 178.509,68.915 179.888,67.913 C181.267,66.912 183.05,66.91 184.429,67.912 L185.651,68.799 L187.167,66.71 L185.945,65.82 C184.565,64.819 184.014,63.122 184.541,61.499 C185.068,59.877 186.509,58.829 188.213,58.829 L189.724,58.829 L189.722,55.829 L188.212,55.829 C186.486,55.829 185.038,54.808 184.525,53.227 C184.023,51.683 184.577,50.045 185.94,49.055 L187.134,48.248 L185.699,46.304 L184.474,47.211 C183.084,48.221 181.3,48.222 179.92,47.22 C178.545,46.222 177.996,44.531 178.522,42.913 L178.987,41.484 L176.533,40.69 L176.067,42.128 C175.541,43.75 174.1,44.798 172.395,44.799 C172.394,44.799 172.393,44.799 172.392,44.799 C170.688,44.799 169.246,43.753 168.719,42.132 L168.252,40.697 L165.798,41.495 L166.266,42.931 C166.793,44.552 166.243,46.247 164.865,47.25 C163.485,48.252 161.702,48.254 160.323,47.252 L159.101,46.365 L157.585,48.453 L158.808,49.34 C160.187,50.342 160.739,52.037 160.212,53.659 C159.686,55.28 158.244,56.329 156.539,56.329 L155.029,56.33 L155.031,58.91 L156.541,58.91 C156.541,58.91 156.542,58.91 156.543,58.91 C158.246,58.91 159.688,59.957 160.215,61.577 C160.742,63.198 160.193,64.894 158.814,65.896 L157.592,66.784 L159.064,68.808 L160.285,67.92 C161.662,66.917 163.445,66.916 164.825,67.918 C166.205,68.92 166.757,70.614 166.231,72.236 L165.764,73.673 Z M169.503,76.989 L163.244,74.958 L164.328,71.619 C164.636,70.67 164.18,69.921 163.651,69.536 C163.12,69.152 162.267,68.952 161.461,69.537 L158.622,71.602 L154.799,66.343 L157.638,64.279 C158.445,63.692 158.516,62.818 158.314,62.196 C158.112,61.574 157.539,60.91 156.543,60.91 C156.542,60.91 156.542,60.91 156.542,60.91 L153.031,60.911 L153.029,54.331 L156.539,54.329 C157.536,54.329 158.108,53.664 158.31,53.042 C158.512,52.419 158.44,51.545 157.632,50.959 L154.792,48.897 L158.657,43.572 L161.498,45.634 C162.305,46.22 163.159,46.017 163.688,45.632 C164.217,45.248 164.672,44.499 164.364,43.55 L163.279,40.212 L169.535,38.176 L170.621,41.513 C170.93,42.462 171.739,42.799 172.392,42.799 C172.393,42.799 172.393,42.799 172.394,42.799 C173.048,42.799 173.857,42.46 174.164,41.511 L175.248,38.171 L181.508,40.197 L180.424,43.53 C180.117,44.475 180.57,45.22 181.095,45.602 C181.625,45.987 182.482,46.188 183.291,45.598 L186.119,43.505 L189.982,48.74 L187.087,50.693 C186.448,51.158 186.19,51.882 186.426,52.609 C186.618,53.199 187.188,53.829 188.212,53.829 L191.722,53.829 L191.724,60.829 L188.213,60.829 C187.216,60.829 186.645,61.494 186.443,62.117 C186.24,62.74 186.312,63.615 187.12,64.202 L189.96,66.269 L186.094,71.593 L183.253,69.53 C182.447,68.944 181.594,69.147 181.064,69.531 C180.534,69.915 180.079,70.665 180.388,71.614 L181.473,74.952 L175.216,76.988 L174.13,73.649 C173.822,72.7 173.013,72.362 172.359,72.362 C171.704,72.363 170.896,72.701 170.587,73.65 L169.503,76.989 Z"/>
    <path fill="#F58E70" d="M172.379,55.836 C171.837,55.836 171.304,56.087 170.962,56.557 C170.398,57.337 170.573,58.431 171.352,58.996 C172.132,59.562 173.226,59.385 173.791,58.606 C174.356,57.827 174.181,56.733 173.401,56.167 C173.092,55.944 172.734,55.836 172.379,55.836 Z M172.37,61.326 C171.609,61.326 170.841,61.095 170.178,60.616 C168.506,59.403 168.131,57.056 169.343,55.384 C169.93,54.574 170.797,54.04 171.785,53.883 C172.778,53.724 173.765,53.962 174.574,54.548 C176.247,55.76 176.622,58.107 175.41,59.779 C174.678,60.79 173.532,61.326 172.37,61.326 Z"/>
    <path fill="#48515A" d="M170.172 47.17C170.102 46.619 170.501 46.119 171.052 46.059 171.052 46.059 171.052 46.059 171.041 46.059 171.592 45.99 172.092 46.389 172.161 46.94 172.222 47.49 171.822 47.98 171.281 48.049L171.272 48.049C171.241 48.049 171.201 48.049 171.161 48.049 170.661 48.049 170.222 47.679 170.172 47.17zM174.791 48.289C174.262 48.15 173.942 47.61 174.081 47.07 174.211 46.539 174.762 46.219 175.302 46.36 175.831 46.49 176.152 47.039 176.012 47.569 175.902 48.019 175.491 48.319 175.041 48.319 174.961 48.319 174.882 48.309 174.791 48.289zM166.552 48.659C166.302 48.179 166.491 47.569 166.972 47.309 167.461 47.059 168.072 47.249 168.331 47.73 168.581 48.219 168.392 48.829 167.902 49.09L167.902 49.079C167.762 49.159 167.602 49.199 167.442 49.199 167.081 49.199 166.732 48.999 166.552 48.659zM178.012 49.809C178.001 49.799 177.991 49.799 177.991 49.799 177.991 49.799 177.991 49.789 177.982 49.789 177.531 49.469 177.432 48.84 177.762 48.4 178.081 47.949 178.701 47.849 179.152 48.17 179.161 48.179 179.172 48.179 179.182 48.19 179.632 48.509 179.722 49.139 179.402 49.59 179.211 49.86 178.902 49.999 178.592 49.999 178.392 49.999 178.182 49.94 178.012 49.809zM163.732 51.369C163.312 51.009 163.272 50.38 163.632 49.96 163.991 49.539 164.632 49.499 165.041 49.86 165.461 50.219 165.501 50.849 165.142 51.269 164.942 51.499 164.661 51.61 164.382 51.61 164.152 51.61 163.922 51.529 163.732 51.369zM180.432 52.36C180.132 51.9 180.272 51.279 180.732 50.98 181.192 50.679 181.812 50.82 182.112 51.279 182.411 51.74 182.281 52.36 181.822 52.659 181.652 52.769 181.461 52.819 181.281 52.819 180.951 52.819 180.621 52.659 180.432 52.36zM162.062 54.909C161.552 54.719 161.281 54.15 161.472 53.63 161.652 53.11 162.232 52.84 162.751 53.029 163.272 53.219 163.541 53.789 163.352 54.309 163.201 54.719 162.812 54.969 162.411 54.969 162.291 54.969 162.182 54.949 162.062 54.909zM181.772 55.63C181.661 55.09 182.001 54.559 182.552 54.44 183.092 54.329 183.621 54.679 183.732 55.219 183.842 55.759 183.491 56.289 182.951 56.4 182.882 56.42 182.822 56.42 182.751 56.42 182.291 56.42 181.871 56.099 181.772 55.63zM160.781 57.829C160.762 57.279 161.201 56.82 161.751 56.809 162.312 56.799 162.762 57.24 162.781 57.789 162.791 58.34 162.352 58.799 161.802 58.809 161.791 58.809 161.781 58.809 161.781 58.809 161.232 58.809 160.791 58.38 160.781 57.829zM182.672 60.299C182.121 60.21 181.751 59.699 181.842 59.159 181.932 58.61 182.451 58.24 182.991 58.329 183.541 58.42 183.911 58.94 183.822 59.48 183.732 59.969 183.312 60.319 182.831 60.319 182.781 60.319 182.722 60.309 182.672 60.299zM161.652 61.999C161.442 61.49 161.682 60.909 162.192 60.699 162.701 60.49 163.291 60.73 163.501 61.239 163.711 61.749 163.461 62.34 162.951 62.549 162.831 62.599 162.701 62.619 162.581 62.619 162.182 62.619 161.812 62.389 161.652 61.999zM180.991 63.84C180.512 63.549 180.352 62.94 180.642 62.469 180.922 61.989 181.531 61.829 182.012 62.11 182.482 62.4 182.642 63.009 182.362 63.489 182.172 63.799 181.842 63.98 181.491 63.98 181.322 63.98 181.152 63.929 180.991 63.84zM163.972 65.579C163.592 65.179 163.602 64.549 164.001 64.159 164.402 63.779 165.041 63.799 165.422 64.199 165.802 64.599 165.781 65.23 165.382 65.61 165.192 65.799 164.942 65.889 164.692 65.889 164.432 65.889 164.172 65.779 163.972 65.579zM178.152 66.529C177.812 66.089 177.882 65.46 178.322 65.119 178.751 64.779 179.382 64.849 179.722 65.289 180.062 65.719 179.991 66.349 179.552 66.69 179.371 66.839 179.152 66.909 178.942 66.909 178.642 66.909 178.352 66.779 178.152 66.529zM167.422 68.07C166.922 67.839 166.711 67.239 166.951 66.739 167.182 66.239 167.781 66.029 168.281 66.259 168.781 66.499 168.991 67.099 168.751 67.599 168.581 67.96 168.222 68.17 167.852 68.17 167.701 68.17 167.562 68.139 167.422 68.07zM174.531 68.009C174.371 67.48 174.661 66.92 175.192 66.759 175.722 66.599 176.281 66.889 176.442 67.42 176.602 67.949 176.302 68.509 175.781 68.67 175.682 68.699 175.581 68.71 175.482 68.71 175.062 68.71 174.661 68.44 174.531 68.009zM171.552 69.15C170.991 69.11 170.581 68.63 170.621 68.079 170.661 67.529 171.142 67.119 171.692 67.159 172.241 67.199 172.652 67.67 172.612 68.219 172.581 68.749 172.142 69.15 171.621 69.15 171.592 69.15 171.572 69.15 171.552 69.15zM87.46 170.758C86.357 170.758 85.46 171.654 85.46 172.758 85.46 173.861 86.357 174.758 87.46 174.758 88.563 174.758 89.46 173.861 89.46 172.758 89.46 171.654 88.563 170.758 87.46 170.758zM87.46 176.758C85.254 176.758 83.46 174.963 83.46 172.758 83.46 170.552 85.254 168.758 87.46 168.758 89.665 168.758 91.46 170.552 91.46 172.758 91.46 174.963 89.665 176.758 87.46 176.758z"/>
    <path fill="#FFD15D" d="M86.436,80.722 C86.436,82.378 85.093,83.722 83.436,83.722 C81.779,83.722 80.436,82.378 80.436,80.722 C80.436,79.065 81.779,77.722 83.436,77.722 C85.093,77.722 86.436,79.065 86.436,80.722"/>
    <polygon fill="#48515A" points="38.651 68.829 40.651 68.829 40.651 64.829 38.651 64.829"/>
    <polygon fill="#48515A" points="38.651 78.829 40.651 78.829 40.651 74.829 38.651 74.829"/>
    <polygon fill="#48515A" points="42.651 72.829 46.651 72.829 46.651 70.829 42.651 70.829"/>
    <polygon fill="#48515A" points="32.651 72.829 36.651 72.829 36.651 70.829 32.651 70.829"/>
    <polygon fill="#48515A" points="38.651 188.829 40.651 188.829 40.651 184.829 38.651 184.829"/>
    <polygon fill="#48515A" points="38.651 198.829 40.651 198.829 40.651 194.829 38.651 194.829"/>
    <polygon fill="#48515A" points="42.651 192.829 46.651 192.829 46.651 190.829 42.651 190.829"/>
    <polygon fill="#48515A" points="32.651 192.829 36.651 192.829 36.651 190.829 32.651 190.829"/>
  </g>
</svg>
