<svg xmlns="http://www.w3.org/2000/svg" width="250" height="250" viewBox="0 0 250 250">
  <g fill="none" fill-rule="evenodd">
    <path fill="#FFD15D" d="M188.401,65.85 C172.464,66.143 159.86,79.688 159.86,95.824 L159.86,145.952 L164.809,148.286 L171.475,145.536 L179.075,137.702 L179.023,129.995 C177.262,128.174 175.34,125.897 173.723,123.254 C169.737,116.739 168.17,108.258 168.17,100.007 L168.17,99.366 L185.998,99.366 L185.809,90.769 C191.633,96.292 199.315,99.366 207.296,99.366 L210.473,99.366 L210.473,100.007 C210.473,108.292 208.551,116.701 204.521,123.207 C201.858,127.505 198.174,130.895 195.881,132.869 L198.975,138.369 L205.475,144.619 L218.027,148.869 L218.027,95.351 C218.027,78.873 204.749,65.55 188.401,65.85"/>
    <polyline fill="#EAEAE9" points="210.926 159.591 201.106 159.591 204.222 155.003 205.827 155.003 210.926 159.591"/>
    <polyline fill="#EAEAE9" points="199.111 137.701 205.45 144.297 211.506 158.82 209.996 158.82 206.22 155.001 204.709 155.001 198.664 145.059 199.111 137.701"/>
    <path fill="#EAEAE9" d="M199.142,141.755 L199.142,130.742 L195.052,133.3 C193.948,133.991 192.675,134.356 191.377,134.356 L186.819,134.356 C185.19,134.356 183.613,133.781 182.359,132.729 L179.02,129.929 L179.022,134.262 L199.142,141.755"/>
    <path fill="#48515A" d="M191.151,135.542 L186.469,135.542 C184.573,135.542 182.904,134.93 181.508,133.723 C179.036,131.587 175.531,128.126 172.87,123.776 C168.159,116.075 167.17,106.6 167.17,100.007 L167.17,99.366 L169.17,99.366 L169.17,100.007 C169.17,106.343 170.108,115.429 174.576,122.732 C177.103,126.863 180.452,130.166 182.817,132.211 C183.838,133.094 185.067,133.542 186.469,133.542 L191.151,133.542 C192.75,133.542 194.055,133.119 195.029,132.286 C196.447,131.073 200.761,127.379 203.67,122.681 C207.412,116.641 209.473,108.589 209.473,100.007 L209.473,99.366 L211.473,99.366 L211.473,100.007 C211.473,108.955 209.306,117.382 205.371,123.734 C202.297,128.696 197.805,132.542 196.329,133.805 C194.984,134.958 193.241,135.542 191.151,135.542"/>
    <polyline fill="#48515A" points="179.892 138.508 177.892 138.48 178.01 129.946 180.01 129.973 179.892 138.508"/>
    <polygon fill="#48515A" points="197.651 138.562 199.651 138.562 199.651 130.532 197.651 130.532"/>
    <polyline fill="#48515A" points="218.695 150.336 205.098 145.233 205.801 143.361 219.398 148.464 218.695 150.336"/>
    <polyline fill="#48515A" points="186.067 176.121 180.281 167.668 181.932 166.538 187.717 174.991 186.067 176.121"/>
    <path fill="#48515A" d="M199.664,139.853 L199.623,145.343 L192.276,170.157 L204.204,154.001 L206.638,154.001 L209.708,157.107 L204.601,144.861 L199.664,139.853 Z M190.388,176.535 L186.121,176.535 L177.869,145.059 L177.869,139.853 L172.933,144.861 L170.448,150.82 L168.602,150.05 L171.236,143.733 L179.869,134.975 L179.869,144.93 L187.662,174.535 L188.894,174.535 L197.664,144.914 L197.664,134.975 L206.298,143.733 L213.007,159.82 L209.577,159.82 L205.802,156.001 L205.214,156.001 L190.6,175.819 L190.388,176.535 Z"/>
    <path fill="#DFE0E0" d="M51.651,136.285 L51.651,139.515 L62.587,145.797 L73.613,139.699 L73.651,133.788 L73.651,128.805 C73.651,128.387 74.446,127.939 74.836,127.486 C74.703,127.603 74.544,127.719 74.435,127.837 C72.88,129.508 70.508,131.387 68.912,132.75 C67.649,133.828 66.037,134.568 64.377,134.568 L59.578,134.568 C57.918,134.568 56.322,133.828 55.06,132.75 C53.536,131.449 51.319,129.729 49.769,128.128 C49.722,128.079 49.668,128 49.617,127.952 C50.083,128.447 50.863,128.933 51.429,129.433 C51.417,129.438 51.651,129.429 51.651,129.443 L51.651,136.285"/>
    <path fill="#48515A" d="M51.651,140.568 C51.098,140.568 50.651,140.12 50.651,139.568 L50.651,129.568 C50.651,129.016 51.098,128.568 51.651,128.568 C52.203,128.568 52.651,129.016 52.651,129.568 L52.651,139.568 C52.651,140.12 52.203,140.568 51.651,140.568"/>
    <path fill="#48515A" d="M73.651,140.568 C73.098,140.568 72.651,140.12 72.651,139.568 L72.651,128.394 L72.922,128.105 C73.824,127.144 74.729,126.142 75.017,125.376 L79.537,115.949 L84.605,113.434 L85.737,107.854 C85.727,107.438 85.539,107.156 85.378,106.991 C85.114,106.718 84.742,106.568 84.333,106.568 L82.097,106.568 L82.327,105.379 C82.699,103.452 82.699,100.924 82.699,99.078 L82.699,98.081 C82.72,94.803 82.208,92.087 81.132,89.769 L80.607,88.637 C79.231,86 77.371,83.746 75.072,81.933 C71.421,79.055 67.051,77.517 62.434,77.486 C57.04,77.404 51.944,79.572 48.025,83.464 C43.974,87.488 41.651,93.05 41.651,98.724 L41.649,99.774 C41.644,101.531 41.637,103.717 41.92,105.403 L42.114,106.568 L40.036,106.568 C39.232,106.568 38.616,107.114 38.554,107.856 L40.164,113.423 L44.59,115.994 L49.014,125.383 C49.61,126.971 52.316,129.192 54.292,130.812 C54.799,131.228 55.281,131.624 55.709,131.99 C56.901,133.008 58.276,133.568 59.578,133.568 L64.651,133.568 C65.203,133.568 65.651,134.016 65.651,134.568 C65.651,135.12 65.203,135.568 64.651,135.568 L59.578,135.568 C57.8,135.568 55.964,134.837 54.41,133.51 C53.991,133.153 53.519,132.765 53.023,132.359 C50.633,130.398 47.925,128.176 47.173,126.158 L43.046,117.41 L38.466,114.749 L36.549,107.98 C36.549,106.146 37.957,104.693 39.797,104.576 C39.64,102.985 39.645,101.233 39.649,99.768 L39.651,98.724 C39.651,92.521 42.189,86.442 46.616,82.045 C50.916,77.775 56.566,75.452 62.448,75.486 C67.514,75.52 72.307,77.207 76.31,80.363 C78.958,82.451 81.075,85.07 82.601,88.147 C82.694,88.335 82.777,88.524 82.861,88.714 L83.591,90.348 L83.528,90.348 C84.334,92.602 84.718,95.15 84.699,98.088 L84.699,99.078 C84.699,100.657 84.699,102.716 84.474,104.571 C85.374,104.605 86.2,104.966 86.813,105.597 C87.433,106.236 87.761,107.084 87.736,107.986 L87.716,108.156 L86.37,114.79 L81.043,117.434 L76.854,126.16 C76.503,127.105 75.628,128.131 74.651,129.184 L74.651,139.568 C74.651,140.12 74.203,140.568 73.651,140.568"/>
    <polyline fill="#48515A" points="29.844 149.648 29.207 147.752 43.357 142.992 47.442 135.568 50.651 135.568 50.651 137.568 48.625 137.568 44.733 144.64 29.844 149.648"/>
    <path fill="#48515A" d="M62.524,147.036 L50.674,140.4 C50.192,140.13 50.02,139.521 50.29,139.039 C50.561,138.557 51.17,138.386 51.652,138.655 L62.524,144.744 L72.965,138.897 C73.449,138.628 74.056,138.799 74.326,139.281 C74.596,139.762 74.425,140.372 73.943,140.642 L62.524,147.036"/>
    <polyline fill="#48515A" points="87.685 147.312 80.278 144.704 75.836 137.568 73.651 137.568 73.651 135.568 76.947 135.568 81.605 143.051 88.349 145.426 87.685 147.312"/>
    <path fill="#48515A" d="M55.871,155.76 C55.633,155.76 55.393,155.676 55.202,155.503 C54.792,155.134 54.758,154.502 55.128,154.091 L62.53,145.866 L67.359,151.323 C67.724,151.736 67.686,152.368 67.272,152.734 C66.86,153.101 66.227,153.062 65.861,152.648 L62.518,148.87 L56.614,155.429 C56.417,155.648 56.145,155.76 55.871,155.76"/>
    <path fill="#475059" d="M154.347,182.568 C152.693,182.568 151.347,183.9 151.347,185.536 C151.347,187.215 152.693,188.568 154.347,188.568 L209.512,188.568 L216.018,185.568 L209.511,182.568 L154.347,182.568 Z M209.951,190.568 L154.347,190.568 C151.59,190.568 149.347,188.318 149.347,185.552 C149.347,182.797 151.59,180.568 154.347,180.568 L209.95,180.568 L220.793,185.568 L209.951,190.568 Z"/>
    <polygon fill="#475059" points="159.651 189.568 161.651 189.568 161.651 181.568 159.651 181.568"/>
    <polygon fill="#475059" points="160.651 186.568 208.651 186.568 208.651 184.568 160.651 184.568"/>
    <path fill="#48515A" d="M175.77,72.412 L178.225,73.209 L178.691,71.772 C179.217,70.15 180.659,69.102 182.365,69.102 C184.07,69.102 185.511,70.149 186.038,71.77 L186.505,73.206 L188.959,72.408 L188.491,70.972 C187.964,69.35 188.515,67.655 189.894,66.653 C191.274,65.651 193.056,65.65 194.436,66.651 L195.657,67.538 L197.173,65.449 L195.95,64.559 C194.571,63.558 194.02,61.862 194.547,60.238 C195.073,58.617 196.516,57.568 198.22,57.568 L199.73,57.568 L199.729,54.568 L198.218,54.568 C196.492,54.568 195.045,53.547 194.531,51.967 C194.029,50.423 194.583,48.784 195.946,47.794 L197.14,46.987 L195.705,45.043 L194.48,45.95 C193.09,46.96 191.306,46.961 189.926,45.96 C188.551,44.961 188.002,43.27 188.528,41.652 L188.992,40.223 L186.539,39.429 L186.073,40.867 C185.547,42.489 184.106,43.538 182.401,43.539 C182.4,43.539 182.399,43.539 182.398,43.539 C180.694,43.539 179.252,42.492 178.725,40.872 L178.258,39.436 L175.804,40.234 L176.272,41.671 C176.799,43.291 176.249,44.987 174.871,45.989 C173.492,46.992 171.71,46.993 170.329,45.992 L169.107,45.105 L167.591,47.193 L168.814,48.08 C170.193,49.081 170.744,50.777 170.218,52.398 C169.692,54.02 168.25,55.068 166.545,55.069 L165.034,55.069 L165.036,57.65 L166.547,57.649 C166.547,57.649 166.548,57.649 166.549,57.649 C168.253,57.649 169.695,58.696 170.222,60.316 C170.749,61.938 170.198,63.633 168.82,64.635 L167.598,65.524 L169.07,67.547 L170.291,66.659 C171.67,65.656 173.453,65.656 174.832,66.658 C176.212,67.659 176.763,69.355 176.237,70.976 L175.77,72.412 Z M179.51,75.728 L173.25,73.697 L174.334,70.358 C174.643,69.409 174.187,68.66 173.657,68.276 C173.126,67.892 172.275,67.691 171.467,68.277 L168.628,70.341 L164.805,65.082 L167.644,63.018 C168.45,62.431 168.522,61.557 168.32,60.935 C168.117,60.313 167.546,59.649 166.549,59.649 C166.548,59.649 166.548,59.649 166.548,59.649 L163.036,59.651 L163.034,53.07 L166.545,53.069 C167.542,53.068 168.114,52.403 168.316,51.781 C168.518,51.158 168.446,50.284 167.638,49.698 L164.798,47.636 L168.663,42.311 L171.504,44.373 C172.312,44.96 173.164,44.757 173.695,44.372 C174.223,43.987 174.678,43.238 174.369,42.289 L173.284,38.951 L179.541,36.915 L180.627,40.253 C180.936,41.201 181.744,41.539 182.398,41.539 C182.399,41.539 182.399,41.539 182.4,41.539 C183.054,41.538 183.863,41.199 184.17,40.25 L185.254,36.91 L191.514,38.937 L190.43,42.27 C190.123,43.215 190.575,43.959 191.101,44.341 C191.631,44.726 192.487,44.926 193.297,44.338 L196.125,42.244 L199.988,47.479 L197.093,49.432 C196.453,49.897 196.197,50.621 196.433,51.349 C196.624,51.938 197.195,52.568 198.218,52.568 L201.729,52.568 L201.73,59.568 L198.22,59.568 C197.223,59.568 196.652,60.234 196.448,60.856 C196.246,61.48 196.318,62.355 197.126,62.942 L199.966,65.008 L196.101,70.332 L193.26,68.269 C192.452,67.683 191.598,67.885 191.071,68.27 C190.541,68.655 190.085,69.404 190.394,70.353 L191.481,73.691 L185.222,75.727 L184.136,72.388 C183.827,71.44 183.019,71.102 182.365,71.102 C181.71,71.102 180.902,71.441 180.593,72.389 L179.51,75.728 Z"/>
    <path fill="#F58E70" d="M182.385,54.575 C181.843,54.575 181.31,54.826 180.968,55.297 C180.404,56.076 180.578,57.17 181.359,57.736 C181.735,58.008 182.193,58.117 182.658,58.046 C183.119,57.972 183.524,57.723 183.797,57.345 C184.362,56.566 184.187,55.472 183.406,54.906 C183.098,54.683 182.74,54.575 182.385,54.575 Z M182.374,60.068 C181.592,60.068 180.831,59.823 180.185,59.355 C178.512,58.143 178.137,55.796 179.349,54.123 C179.936,53.313 180.803,52.779 181.791,52.622 C182.782,52.462 183.77,52.7 184.58,53.287 C186.253,54.499 186.628,56.846 185.416,58.519 C184.829,59.329 183.962,59.862 182.974,60.02 C182.774,60.052 182.573,60.068 182.374,60.068 Z"/>
    <path fill="#48515A" d="M180.172 45.909C180.112 45.359 180.501 44.859 181.052 44.799 181.602 44.738 182.102 45.129 182.161 45.679 182.222 46.229 181.831 46.719 181.281 46.789 181.241 46.789 181.201 46.789 181.161 46.789 180.661 46.789 180.232 46.419 180.172 45.909zM184.802 47.029C184.272 46.889 183.942 46.339 184.081 45.809 184.222 45.279 184.772 44.959 185.302 45.099 185.842 45.229 186.161 45.779 186.022 46.319 185.902 46.769 185.501 47.059 185.052 47.059 184.972 47.059 184.882 47.049 184.802 47.029zM176.562 47.399C176.302 46.909 176.491 46.309 176.982 46.049 177.472 45.799 178.072 45.988 178.331 46.469 178.592 46.959 178.402 47.569 177.911 47.819 177.762 47.899 177.602 47.939 177.451 47.939 177.092 47.939 176.741 47.738 176.562 47.399zM188.012 48.549C188.012 48.549 188.001 48.539 187.991 48.539 187.991 48.539 187.991 48.539 187.991 48.529 187.982 48.529 187.972 48.519 187.961 48.508 187.541 48.179 187.451 47.579 187.762 47.139 188.081 46.689 188.701 46.589 189.152 46.909 189.161 46.909 189.172 46.919 189.182 46.929 189.192 46.929 189.192 46.939 189.201 46.939 189.632 47.269 189.732 47.879 189.411 48.329 189.211 48.599 188.911 48.738 188.602 48.738 188.392 48.738 188.192 48.679 188.012 48.549zM173.741 50.109C173.322 49.749 173.281 49.119 173.642 48.699 174.001 48.279 174.632 48.238 175.052 48.599 175.461 48.959 175.512 49.599 175.152 50.008 174.951 50.238 174.672 50.359 174.392 50.359 174.161 50.359 173.932 50.269 173.741 50.109zM190.442 51.099C190.142 50.639 190.272 50.019 190.741 49.719 191.201 49.419 191.822 49.559 192.121 50.019 192.422 50.479 192.291 51.099 191.822 51.399 191.661 51.508 191.472 51.559 191.281 51.559 190.951 51.559 190.632 51.399 190.442 51.099zM172.072 53.649C171.552 53.459 171.281 52.889 171.472 52.369 171.661 51.849 172.232 51.579 172.751 51.769 173.272 51.959 173.541 52.529 173.352 53.049 173.201 53.449 172.822 53.709 172.411 53.709 172.302 53.709 172.182 53.689 172.072 53.649zM191.781 54.369C191.661 53.829 192.012 53.299 192.552 53.189 193.092 53.069 193.621 53.419 193.741 53.959 193.852 54.499 193.501 55.029 192.961 55.139 192.892 55.159 192.822 55.169 192.751 55.169 192.291 55.169 191.871 54.839 191.781 54.369zM170.781 56.569C170.772 56.019 171.211 55.559 171.762 55.549 172.312 55.539 172.772 55.979 172.781 56.529 172.791 57.079 172.362 57.539 171.812 57.549 171.802 57.549 171.791 57.549 171.781 57.549 171.241 57.549 170.791 57.119 170.781 56.569zM192.672 59.039C192.132 58.949 191.762 58.439 191.852 57.889 191.942 57.349 192.451 56.979 193.001 57.069 193.541 57.159 193.911 57.679 193.822 58.219 193.741 58.709 193.322 59.059 192.831 59.059 192.781 59.059 192.732 59.049 192.672 59.039zM171.652 60.738C171.442 60.229 171.692 59.649 172.201 59.439 172.711 59.229 173.291 59.469 173.501 59.979 173.711 60.488 173.472 61.079 172.961 61.289 172.842 61.339 172.711 61.359 172.581 61.359 172.192 61.359 171.812 61.129 171.652 60.738zM190.991 62.579C190.522 62.289 190.362 61.679 190.642 61.209 190.922 60.729 191.541 60.569 192.012 60.859 192.491 61.139 192.642 61.749 192.362 62.219 192.182 62.539 191.842 62.719 191.501 62.719 191.331 62.719 191.152 62.669 190.991 62.579zM173.982 64.319C173.592 63.919 173.612 63.279 174.012 62.899 174.411 62.519 175.041 62.539 175.422 62.939 175.802 63.339 175.791 63.969 175.392 64.349 175.201 64.539 174.951 64.629 174.701 64.629 174.442 64.629 174.172 64.519 173.982 64.319zM188.161 65.269C187.812 64.829 187.892 64.199 188.322 63.859 188.762 63.519 189.382 63.589 189.732 64.029 190.072 64.459 189.991 65.089 189.562 65.429 189.382 65.579 189.161 65.649 188.942 65.649 188.652 65.649 188.352 65.519 188.161 65.269zM177.432 66.809C176.932 66.579 176.711 65.979 176.951 65.479 177.192 64.979 177.781 64.769 178.281 64.999 178.781 65.238 178.991 65.839 178.762 66.339 178.592 66.699 178.232 66.909 177.852 66.909 177.711 66.909 177.572 66.879 177.432 66.809zM184.531 66.738C184.371 66.219 184.672 65.659 185.201 65.499 185.722 65.329 186.281 65.629 186.451 66.159 186.612 66.689 186.312 67.249 185.781 67.409 185.692 67.439 185.592 67.449 185.491 67.449 185.062 67.449 184.672 67.179 184.531 66.738zM181.552 67.889C181.001 67.849 180.581 67.369 180.621 66.819 180.661 66.269 181.142 65.859 181.692 65.899 182.241 65.939 182.661 66.409 182.621 66.959 182.581 67.488 182.142 67.889 181.621 67.889 181.602 67.889 181.581 67.889 181.552 67.889zM87.46 169.497C86.357 169.497 85.46 170.394 85.46 171.497 85.46 172.6 86.357 173.497 87.46 173.497 88.563 173.497 89.46 172.6 89.46 171.497 89.46 170.394 88.563 169.497 87.46 169.497zM87.46 175.497C85.254 175.497 83.46 173.702 83.46 171.497 83.46 169.291 85.254 167.497 87.46 167.497 89.665 167.497 91.46 169.291 91.46 171.497 91.46 173.702 89.665 175.497 87.46 175.497z"/>
    <path fill="#FFD15D" d="M79.432,66.453 C79.432,68.11 78.089,69.453 76.432,69.453 C74.775,69.453 73.432,68.11 73.432,66.453 C73.432,64.796 74.775,63.453 76.432,63.453 C78.089,63.453 79.432,64.796 79.432,66.453"/>
    <polygon fill="#48515A" points="38.651 67.568 40.651 67.568 40.651 63.568 38.651 63.568"/>
    <polygon fill="#48515A" points="38.651 77.568 40.651 77.568 40.651 73.568 38.651 73.568"/>
    <polygon fill="#48515A" points="42.651 71.568 46.651 71.568 46.651 69.568 42.651 69.568"/>
    <polygon fill="#48515A" points="32.651 71.568 36.651 71.568 36.651 69.568 32.651 69.568"/>
    <polygon fill="#48515A" points="38.651 187.568 40.651 187.568 40.651 183.568 38.651 183.568"/>
    <polygon fill="#48515A" points="38.651 197.568 40.651 197.568 40.651 193.568 38.651 193.568"/>
    <polygon fill="#48515A" points="42.651 191.568 46.651 191.568 46.651 189.568 42.651 189.568"/>
    <polygon fill="#48515A" points="32.651 191.568 36.651 191.568 36.651 189.568 32.651 189.568"/>
    <path fill="#5FE0ED" d="M124.248,37.204 C103.15,37.592 86.466,55.522 86.466,76.883 L86.466,128.902 L111.901,128.902 L111.833,122.117 C109.502,119.707 106.958,116.693 104.817,113.193 C99.541,104.57 97.466,93.342 97.466,82.419 L97.466,81.571 L121.066,81.571 L120.816,70.19 C128.526,77.502 138.695,81.571 149.26,81.571 L153.466,81.571 L153.466,82.419 C153.466,93.387 150.922,104.519 145.587,113.132 C142.062,118.821 137.185,123.309 134.15,125.922 L138.485,128.902 L163.466,128.902 L163.466,76.256 C163.466,54.443 145.889,36.806 124.248,37.204"/>
    <polyline fill="#EAEAE9" points="94.816 161.295 107.815 161.295 103.691 155.222 101.566 155.222 94.816 161.295"/>
    <polyline fill="#EAEAE9" points="154.065 161.295 141.066 161.295 145.19 155.222 147.315 155.222 154.065 161.295"/>
    <polyline fill="#EAEAE9" points="111.817 142.059 103.814 155.219 122.816 182.549 124.834 182.549 111.817 142.059"/>
    <polyline fill="#EAEAE9" points="138.425 132.319 146.816 141.05 154.834 160.275 152.834 160.275 147.836 155.219 145.836 155.219 137.833 142.059 138.425 132.319"/>
    <path fill="#EAEAE9" d="M138.466,137.684 L138.466,123.106 L133.052,126.492 C131.59,127.406 129.906,127.891 128.188,127.891 L122.153,127.891 C119.997,127.891 117.909,127.129 116.249,125.736 L111.829,122.03 L111.832,127.766 L138.466,137.684"/>
    <path fill="#48515A" d="M127.888,129.136 L121.691,129.136 C119.26,129.136 117.122,128.353 115.335,126.808 C112.08,123.995 107.467,119.44 103.964,113.716 C97.766,103.586 96.466,91.106 96.466,82.42 L96.466,81.571 L98.466,81.571 L98.466,82.42 C98.466,90.848 99.716,102.939 105.67,112.672 C109.038,118.177 113.496,122.574 116.642,125.295 C118.056,126.516 119.754,127.136 121.691,127.136 L127.888,127.136 C130.084,127.136 131.882,126.551 133.232,125.396 C135.117,123.781 140.856,118.869 144.738,112.605 C149.721,104.559 152.466,93.839 152.466,82.42 L152.466,81.571 L154.466,81.571 L154.466,82.42 C154.466,94.206 151.615,105.3 146.438,113.658 C142.393,120.186 136.477,125.251 134.532,126.915 C132.811,128.389 130.574,129.136 127.888,129.136"/>
    <polygon fill="#48515A" points="110.816 132.825 112.816 132.825 112.816 122.07 110.816 122.07"/>
    <polygon fill="#48515A" points="136.816 133.458 138.816 133.458 138.816 122.829 136.816 122.829"/>
    <path fill="#48515A" d="M186.743 213.09L184.743 213.09 184.743 211.992 180.488 169.324C179.255 160.03 173.109 152.129 164.449 148.737L146.464 141.986 147.167 140.114 165.166 146.869C174.516 150.532 181.142 159.046 182.474 169.094L186.739 211.893 186.743 213.09M64.971 213.09L62.971 213.09 62.971 211.992 67.237 169.126C68.573 159.046 75.199 150.532 84.535 146.874L102.463 140.114 103.169 141.985 85.253 148.741C76.606 152.129 70.46 160.03 69.223 169.356L64.966 212.092 64.971 213.09"/>
    <path fill="#48515A" d="M123.339,181.549 L123.445,181.549 L110.817,142.216 L110.817,134.374 L103.664,141.614 L96.315,159.275 L96.399,159.275 L101.397,154.219 L104.337,154.219 L123.339,181.549 Z M126.188,183.549 L122.294,183.549 L103.292,156.219 L102.232,156.219 L97.234,161.275 L93.317,161.275 L101.968,140.486 L112.817,129.504 L112.817,141.902 L126.188,183.549 Z"/>
    <path fill="#48515A" d="M126.205,181.549 L126.312,181.549 L145.314,154.219 L148.254,154.219 L153.252,159.275 L153.333,159.275 L145.967,141.614 L138.833,134.377 L138.785,142.365 L126.205,181.549 Z M127.357,183.549 L123.463,183.549 L136.833,141.902 L136.833,129.5 L147.664,140.486 L147.739,140.665 L156.335,161.275 L152.416,161.275 L147.418,156.219 L146.359,156.219 L127.357,183.549 Z"/>
  </g>
</svg>
