<svg xmlns="http://www.w3.org/2000/svg" width="250" height="250" viewBox="0 0 250 250">
  <g fill="none" fill-rule="evenodd">
    <path fill="#5FE0ED" d="M144.586 123.686L154.488 132.763 166.888 113.491 172.992 110.842 168.651 110.842 168.651 102.682 156.559 114.669C156.767 115.313 156.874 115.998 156.874 116.71 156.874 120.381 153.883 123.367 150.213 123.367 146.542 123.367 143.554 120.381 143.554 116.71 143.554 115.984 143.673 115.287 143.889 114.633L141.709 112.453C141.055 112.669 140.357 112.79 139.631 112.79 138.898 112.79 138.194 112.666 137.534 112.446L136.637 113.343 141.832 118.537C143.233 119.938 144.193 121.748 144.586 123.686M167.844 161.111L172.248 152.579 169.144 142.167 162.602 152.537C161.459 154.349 159.466 155.448 157.324 155.448L154.586 155.448C153.024 155.448 151.519 154.862 150.368 153.806L130.919 135.964 132.351 134.294C130.904 133.332 129.552 132.249 128.333 131.029L126.953 129.616C125.724 128.356 125.051 126.703 125.038 124.948L105.723 144.27C106.07 145.315 106.172 146.468 105.932 147.676 105.411 150.297 103.301 152.41 100.674 152.898 96.449 153.683 92.748 150.445 92.748 146.36 92.748 145.634 92.869 144.936 93.085 144.282L86.855 138.053C86.2 138.268 85.503 138.389 84.777 138.389 84.05 138.389 83.368 138.267 82.713 138.051L57.286 163.495 57.286 176.417 165.716 176.417 165.715 167.616C165.715 165.286 166.469 162.988 167.844 161.111"/>
    <path fill="#FFF" d="M136.148,133.082 C134.054,131.985 132.128,130.582 130.453,128.907 L129.101,127.521 C127.65,126.034 127.681,123.653 129.168,122.204 L130.687,120.747 L126.311,116.271 C125.793,115.753 125.636,114.943 125.997,114.306 C126.541,113.346 127.783,113.226 128.502,113.945 L135.443,120.886 L134.146,119.589 C133.222,118.665 133.222,117.168 134.146,116.244 L134.721,115.669 L139.71,120.658 C140.813,121.761 141.522,123.197 141.727,124.744 L142.075,127.367"/>
    <path fill="#475059" d="M135.684,133.968 C133.475,132.81 131.478,131.346 129.747,129.615 L128.385,128.219 C127.497,127.309 127.017,126.107 127.033,124.836 C127.049,123.564 127.56,122.375 128.47,121.488 L129.267,120.724 L125.596,116.97 C124.75,116.124 124.554,114.823 125.127,113.813 C125.536,113.092 126.232,112.616 127.039,112.507 C127.845,112.396 128.635,112.664 129.209,113.238 L132.678,116.707 C132.842,116.28 133.095,115.88 133.439,115.537 L134.721,114.255 L140.417,119.951 C141.669,121.203 142.486,122.858 142.719,124.612 L143.066,127.236 L141.084,127.498 L140.736,124.875 C140.561,123.554 139.946,122.308 139.003,121.365 L134.729,117.093 C134.55,117.328 134.453,117.615 134.453,117.916 C134.453,118.281 134.595,118.624 134.853,118.882 L136.15,120.179 L134.736,121.593 L133.439,120.296 C133.438,120.295 133.436,120.293 133.434,120.292 L127.795,114.652 C127.666,114.523 127.489,114.465 127.307,114.488 C127.177,114.506 126.995,114.574 126.867,114.8 C126.738,115.027 126.802,115.348 127.018,115.564 L132.108,120.77 L129.86,122.926 C129.338,123.434 129.042,124.124 129.033,124.861 C129.023,125.598 129.302,126.295 129.816,126.823 L131.169,128.209 C132.749,129.788 134.583,131.133 136.612,132.197 L135.684,133.968"/>
    <path fill="#48515A" d="M122.535 115.424L120.958 115.424C120.406 115.424 119.958 114.976 119.958 114.424 119.958 113.871 120.406 113.424 120.958 113.424L122.535 113.424C123.087 113.424 123.535 113.871 123.535 114.424 123.535 114.976 123.087 115.424 122.535 115.424M126.477 111.482C125.925 111.482 125.477 111.034 125.477 110.482L125.477 108.905C125.477 108.353 125.925 107.905 126.477 107.905 127.029 107.905 127.477 108.353 127.477 108.905L127.477 110.482C127.477 111.034 127.029 111.482 126.477 111.482M122.777 119.43C122.521 119.43 122.266 119.332 122.07 119.137 121.68 118.746 121.68 118.114 122.07 117.723L122.959 116.834C123.35 116.443 123.983 116.443 124.374 116.834 124.764 117.224 124.764 117.857 124.374 118.248L123.484 119.137C123.289 119.332 123.033 119.43 122.777 119.43M129.776 112.43C129.521 112.43 129.265 112.333 129.069 112.137 128.679 111.747 128.679 111.114 129.069 110.723L129.875 109.918C130.266 109.527 130.898 109.527 131.289 109.918 131.68 110.308 131.68 110.941 131.289 111.332L130.483 112.137C130.288 112.333 130.032 112.43 129.776 112.43M123.821 112.669C123.565 112.669 123.31 112.572 123.114 112.376L122.07 111.332C121.679 110.941 121.679 110.308 122.07 109.918 122.46 109.527 123.093 109.527 123.484 109.918L124.528 110.962C124.919 111.353 124.919 111.986 124.528 112.376 124.333 112.572 124.077 112.669 123.821 112.669"/>
    <polygon fill="#48515A" points="68.286 112.417 70.286 112.417 70.286 108.417 68.286 108.417"/>
    <polygon fill="#48515A" points="68.286 122.417 70.286 122.417 70.286 118.417 68.286 118.417"/>
    <polygon fill="#48515A" points="72.286 116.417 76.286 116.417 76.286 114.417 72.286 114.417"/>
    <polygon fill="#48515A" points="62.286 116.417 66.286 116.417 66.286 114.417 62.286 114.417"/>
    <polygon fill="#48515A" points="71.286 82.417 94.286 82.417 94.286 80.417 71.286 80.417"/>
    <polyline fill="#48515A" points="211.286 120.547 209.286 120.547 209.286 68.417 184.286 68.417 184.286 66.417 211.286 66.417 211.286 120.547"/>
    <polyline fill="#48515A" points="165.286 180.417 53.286 180.417 53.286 66.417 113.286 66.417 113.286 68.417 55.286 68.417 55.286 178.417 165.286 178.417 165.286 180.417"/>
    <path fill="#48515A" d="M155.682 153.38C153.863 153.38 152.125 152.703 150.786 151.475L133.696 135.797 142.999 124.945 154.886 135.841 168.241 115.084 177.354 111.129 178.149 112.964 169.595 116.677 155.284 138.919 143.171 127.816 136.474 135.63 152.138 150.001C153.107 150.89 154.365 151.38 155.68 151.38 157.471 151.38 159.118 150.482 160.087 148.977L170.911 132.172 172.592 133.255 161.769 150.06C160.429 152.139 158.154 153.38 155.682 153.38M153.044 114.955C152.778 114.955 152.512 114.849 152.315 114.638 151.937 114.236 151.958 113.603 152.361 113.225L163.895 102.417 156.286 102.417C155.734 102.417 155.286 101.969 155.286 101.417 155.286 100.865 155.734 100.417 156.286 100.417L166.425 100.417C166.835 100.417 167.204 100.668 167.355 101.049 167.506 101.431 167.408 101.866 167.108 102.146L153.728 114.684C153.535 114.865 153.29 114.955 153.044 114.955M147.39 114.892C147.134 114.892 146.878 114.794 146.683 114.599L141.514 109.43C141.124 109.039 141.124 108.406 141.514 108.016 141.905 107.625 142.538 107.625 142.928 108.016L148.097 113.185C148.487 113.575 148.487 114.208 148.097 114.599 147.901 114.794 147.646 114.892 147.39 114.892M133.113 113.491C132.85 113.491 132.586 113.388 132.39 113.183 132.008 112.783 132.022 112.151 132.421 111.769L136.121 108.229C136.521 107.848 137.153 107.862 137.535 108.26 137.917 108.66 137.903 109.293 137.504 109.675L133.804 113.214C133.61 113.399 133.361 113.491 133.113 113.491M101.995 144.769C101.74 144.769 101.486 144.673 101.291 144.479 100.898 144.09 100.896 143.457 101.286 143.065L123.278 120.912C123.667 120.52 124.299 120.517 124.692 120.907 125.084 121.296 125.086 121.929 124.697 122.321L102.705 144.474C102.509 144.671 102.252 144.769 101.995 144.769M96.891 144.845C96.635 144.845 96.379 144.748 96.184 144.552L86.965 135.334C86.575 134.944 86.575 134.311 86.965 133.92 87.356 133.53 87.989 133.53 88.379 133.92L97.598 143.138C97.988 143.529 97.988 144.162 97.598 144.552 97.402 144.748 97.146 144.845 96.891 144.845M58.701 158.803C58.445 158.803 58.189 158.706 57.994 158.51 57.604 158.12 57.604 157.487 57.994 157.096L81.549 133.541C81.94 133.15 82.573 133.15 82.963 133.541 83.354 133.931 83.354 134.564 82.963 134.955L59.408 158.51C59.213 158.706 58.957 158.803 58.701 158.803"/>
    <path fill="#48515A" d="M84.777 129.075C83.312 129.075 82.12 130.267 82.12 131.732 82.12 133.197 83.312 134.389 84.777 134.389 86.242 134.389 87.434 133.197 87.434 131.732 87.434 130.267 86.242 129.075 84.777 129.075zM84.777 136.389C82.209 136.389 80.12 134.3 80.12 131.732 80.12 129.164 82.209 127.075 84.777 127.075 87.345 127.075 89.434 129.164 89.434 131.732 89.434 134.3 87.345 136.389 84.777 136.389zM99.405 143.703C97.939 143.703 96.748 144.895 96.748 146.36 96.748 147.825 97.939 149.017 99.405 149.017 100.87 149.017 102.062 147.825 102.062 146.36 102.062 144.895 100.87 143.703 99.405 143.703zM99.405 151.017C96.837 151.017 94.748 148.927 94.748 146.36 94.748 143.792 96.837 141.703 99.405 141.703 101.973 141.703 104.062 143.792 104.062 146.36 104.062 148.927 101.973 151.017 99.405 151.017zM139.631 103.476C138.166 103.476 136.974 104.668 136.974 106.133 136.974 107.598 138.166 108.79 139.631 108.79 141.096 108.79 142.288 107.598 142.288 106.133 142.288 104.668 141.096 103.476 139.631 103.476zM139.631 110.79C137.063 110.79 134.974 108.701 134.974 106.133 134.974 103.565 137.063 101.476 139.631 101.476 142.199 101.476 144.288 103.565 144.288 106.133 144.288 108.701 142.199 110.79 139.631 110.79zM150.208 114.053C148.743 114.053 147.551 115.245 147.551 116.71 147.551 118.175 148.743 119.367 150.208 119.367 151.673 119.367 152.865 118.175 152.865 116.71 152.865 115.245 151.673 114.053 150.208 114.053zM150.208 121.367C147.641 121.367 145.551 119.278 145.551 116.71 145.551 114.142 147.641 112.053 150.208 112.053 152.776 112.053 154.865 114.142 154.865 116.71 154.865 119.278 152.776 121.367 150.208 121.367z"/>
    <polygon fill="#48515A" points="71.286 86.417 94.286 86.417 94.286 84.417 71.286 84.417"/>
    <polygon fill="#48515A" points="71.286 90.417 94.286 90.417 94.286 88.417 71.286 88.417"/>
    <path fill="#475059" d="M137.239,192.009 C132.277,192.009 128.239,196.047 128.239,201.009 C128.239,205.971 132.277,210.009 137.239,210.009 C142.202,210.009 146.239,205.971 146.239,201.009 C146.239,196.047 142.202,192.009 137.239,192.009 Z M137.239,212.009 C131.174,212.009 126.239,207.074 126.239,201.009 C126.239,194.944 131.174,190.009 137.239,190.009 C143.305,190.009 148.239,194.944 148.239,201.009 C148.239,207.074 143.305,212.009 137.239,212.009 Z M137.239,186.009 C128.968,186.009 122.239,192.738 122.239,201.009 C122.239,209.28 128.968,216.009 137.239,216.009 C145.51,216.009 152.239,209.28 152.239,201.009 C152.239,192.738 145.51,186.009 137.239,186.009 Z M137.239,218.009 C127.865,218.009 120.239,210.383 120.239,201.009 C120.239,191.635 127.865,184.009 137.239,184.009 C146.613,184.009 154.239,191.635 154.239,201.009 C154.239,210.383 146.613,218.009 137.239,218.009 Z"/>
    <path fill="#475059" d="M137.239,198.009 C135.585,198.009 134.239,199.355 134.239,201.009 C134.239,202.663 135.585,204.009 137.239,204.009 C138.894,204.009 140.239,202.663 140.239,201.009 C140.239,199.355 138.894,198.009 137.239,198.009 Z M137.239,206.009 C134.482,206.009 132.239,203.766 132.239,201.009 C132.239,198.252 134.482,196.009 137.239,196.009 C139.996,196.009 142.239,198.252 142.239,201.009 C142.239,203.766 139.996,206.009 137.239,206.009 Z"/>
    <path fill="#F58E70" d="M137.239,197.009 C135.03,197.009 133.239,198.8 133.239,201.009 C133.239,203.218 135.03,205.009 137.239,205.009 C139.448,205.009 141.239,203.218 141.239,201.009 C141.239,198.8 139.448,197.009 137.239,197.009"/>
    <path fill="#F58E70" d="M137.239,198.009 C135.585,198.009 134.239,199.355 134.239,201.009 C134.239,202.663 135.585,204.009 137.239,204.009 C138.894,204.009 140.239,202.663 140.239,201.009 C140.239,199.355 138.894,198.009 137.239,198.009 Z M137.239,206.009 C134.482,206.009 132.239,203.766 132.239,201.009 C132.239,198.252 134.482,196.009 137.239,196.009 C139.996,196.009 142.239,198.252 142.239,201.009 C142.239,203.766 139.996,206.009 137.239,206.009 Z"/>
    <polygon fill="#475059" points="110.286 202.417 137.286 202.417 137.286 200.417 110.286 200.417"/>
    <path fill="#475059" d="M103.654,204.417 L106.826,204.417 L109.826,201.417 L106.826,198.417 L103.654,198.417 L106.654,201.417 L103.654,204.417 Z M107.654,206.417 L98.826,206.417 L103.826,201.417 L98.826,196.417 L107.654,196.417 L112.654,201.417 L107.654,206.417 Z"/>
    <path fill="#FFF" d="M120.779,59.141 C120.779,44.038 133.023,31.794 148.126,31.794 C163.23,31.794 175.474,44.038 175.474,59.142 C175.474,74.246 163.23,86.49 148.126,86.489 C133.023,86.489 120.779,74.245 120.779,59.141"/>
    <path fill="#48515A" d="M153.14,87.833 L153.499,88.219 C155.574,90.456 158.334,91.863 161.412,92.283 C159.956,90.967 158.987,89.133 158.797,87.044 L158.73,86.31 L159.411,86.029 C170.305,81.518 177.345,71.038 177.345,59.33 C177.345,43.322 164.322,30.299 148.314,30.299 C132.307,30.299 119.284,43.307 119.284,59.297 C119.284,75.286 132.307,88.295 148.314,88.295 C149.823,88.295 151.337,88.1 152.619,87.91 L153.14,87.833 Z M167.02,94.417 L163.389,94.417 C159.145,94.417 155.264,92.839 152.401,89.963 C151.162,90.137 149.751,90.295 148.314,90.295 C131.204,90.295 117.284,76.389 117.284,59.297 C117.284,42.204 131.204,28.299 148.314,28.299 C165.425,28.299 179.345,42.219 179.345,59.33 C179.345,71.59 172.129,82.59 160.895,87.569 C161.486,90.377 164.003,92.417 167.02,92.417 L167.02,94.417 Z"/>
    <polygon fill="#48515A" points="131.286 55.417 165.286 55.417 165.286 53.417 131.286 53.417"/>
    <polygon fill="#48515A" points="131.286 60.417 165.286 60.417 165.286 58.417 131.286 58.417"/>
    <polygon fill="#48515A" points="131.286 64.417 165.286 64.417 165.286 62.417 131.286 62.417"/>
    <polygon fill="#48515A" points="78.286 192.417 80.286 192.417 80.286 188.417 78.286 188.417"/>
    <polygon fill="#48515A" points="78.286 202.417 80.286 202.417 80.286 198.417 78.286 198.417"/>
    <polygon fill="#48515A" points="82.286 196.417 86.286 196.417 86.286 194.417 82.286 194.417"/>
    <polygon fill="#48515A" points="72.286 196.417 76.286 196.417 76.286 194.417 72.286 194.417"/>
    <path fill="#F58E70" d="M63.217,38.392 C50.535,38.392 40.217,48.71 40.217,61.392 C40.217,74.074 50.535,84.392 63.217,84.392 C75.899,84.392 86.217,74.074 86.217,61.392 C86.217,48.71 75.899,38.392 63.217,38.392 Z M63.217,86.392 C49.432,86.392 38.217,75.177 38.217,61.392 C38.217,47.607 49.432,36.392 63.217,36.392 C77.002,36.392 88.217,47.607 88.217,61.392 C88.217,75.177 77.002,86.392 63.217,86.392 Z"/>
    <path fill="#48515A" d="M83.286,62.417 L79.286,62.417 C78.734,62.417 78.286,61.969 78.286,61.417 C78.286,60.865 78.734,60.417 79.286,60.417 L83.286,60.417 C83.838,60.417 84.286,60.865 84.286,61.417 C84.286,61.969 83.838,62.417 83.286,62.417"/>
    <path fill="#48515A" d="M83.286 62.417L79.286 62.417C78.734 62.417 78.286 61.969 78.286 61.417 78.286 60.865 78.734 60.417 79.286 60.417L83.286 60.417C83.838 60.417 84.286 60.865 84.286 61.417 84.286 61.969 83.838 62.417 83.286 62.417M73.333 79.876C72.988 79.876 72.652 79.697 72.466 79.376L70.688 76.297C70.413 75.819 70.576 75.207 71.055 74.931 71.533 74.655 72.145 74.819 72.421 75.297L74.199 78.376C74.475 78.854 74.311 79.466 73.832 79.742 73.675 79.833 73.503 79.876 73.333 79.876M77.354 53.948C77.008 53.948 76.672 53.769 76.486 53.448 76.21 52.97 76.374 52.358 76.853 52.082L79.932 50.304C80.409 50.027 81.021 50.192 81.298 50.67 81.574 51.148 81.41 51.76 80.932 52.036L77.853 53.814C77.695 53.905 77.523 53.948 77.354 53.948M80.763 72.201C80.594 72.201 80.421 72.158 80.264 72.068L77.185 70.29C76.706 70.013 76.543 69.402 76.819 68.924 77.095 68.445 77.706 68.281 78.185 68.557L81.264 70.335C81.743 70.612 81.906 71.223 81.63 71.701 81.445 72.022 81.109 72.201 80.763 72.201M71.281 47.737C71.111 47.737 70.939 47.694 70.782 47.603 70.304 47.326 70.14 46.715 70.415 46.237L72.193 43.157C72.47 42.679 73.08 42.514 73.56 42.791 74.038 43.067 74.202 43.678 73.926 44.157L72.148 47.237C71.962 47.557 71.627 47.737 71.281 47.737"/>
    <polyline fill="#48515A" points="64.286 73.417 62.286 73.417 62.286 59.417 72.286 59.417 72.286 61.417 64.286 61.417 64.286 73.417"/>
    <path fill="#48515A" d="M63.286 45.417C62.734 45.417 62.286 44.969 62.286 44.417L62.286 41.417C62.286 40.865 62.734 40.417 63.286 40.417 63.838 40.417 64.286 40.865 64.286 41.417L64.286 44.417C64.286 44.969 63.838 45.417 63.286 45.417M63.286 82.417C62.734 82.417 62.286 81.969 62.286 81.417L62.286 78.417C62.286 77.865 62.734 77.417 63.286 77.417 63.838 77.417 64.286 77.865 64.286 78.417L64.286 81.417C64.286 81.969 63.838 82.417 63.286 82.417M46.286 62.417L43.286 62.417C42.734 62.417 42.286 61.969 42.286 61.417 42.286 60.865 42.734 60.417 43.286 60.417L46.286 60.417C46.838 60.417 47.286 60.865 47.286 61.417 47.286 61.969 46.838 62.417 46.286 62.417"/>
    <path fill="#48515A" d="M63.286 45.417C62.734 45.417 62.286 44.969 62.286 44.417L62.286 41.417C62.286 40.865 62.734 40.417 63.286 40.417 63.838 40.417 64.286 40.865 64.286 41.417L64.286 44.417C64.286 44.969 63.838 45.417 63.286 45.417M63.286 82.417C62.734 82.417 62.286 81.969 62.286 81.417L62.286 78.417C62.286 77.865 62.734 77.417 63.286 77.417 63.838 77.417 64.286 77.865 64.286 78.417L64.286 81.417C64.286 81.969 63.838 82.417 63.286 82.417M46.286 62.417L43.286 62.417C42.734 62.417 42.286 61.969 42.286 61.417 42.286 60.865 42.734 60.417 43.286 60.417L46.286 60.417C46.838 60.417 47.286 60.865 47.286 61.417 47.286 61.969 46.838 62.417 46.286 62.417M53.051 79.876C52.882 79.876 52.71 79.833 52.552 79.742 52.074 79.466 51.91 78.854 52.186 78.376L53.964 75.297C54.24 74.819 54.851 74.655 55.33 74.931 55.809 75.207 55.972 75.819 55.696 76.297L53.918 79.376C53.733 79.697 53.397 79.876 53.051 79.876M49.031 53.948C48.862 53.948 48.689 53.905 48.532 53.814L45.453 52.036C44.975 51.76 44.811 51.148 45.087 50.67 45.363 50.192 45.975 50.027 46.453 50.304L49.532 52.082C50.011 52.358 50.174 52.97 49.898 53.448 49.713 53.769 49.377 53.948 49.031 53.948M45.622 72.201C45.276 72.201 44.94 72.022 44.754 71.701 44.479 71.223 44.642 70.612 45.121 70.335L48.2 68.557C48.676 68.281 49.289 68.445 49.566 68.924 49.842 69.402 49.678 70.013 49.2 70.29L46.121 72.068C45.963 72.158 45.791 72.201 45.622 72.201M55.104 47.737C54.758 47.737 54.422 47.557 54.237 47.237L52.459 44.157C52.183 43.678 52.347 43.067 52.825 42.791 53.304 42.514 53.915 42.679 54.191 43.157L55.969 46.237C56.245 46.715 56.081 47.326 55.603 47.603 55.445 47.694 55.273 47.737 55.104 47.737M181.241 68.33C180.981 68.33 180.721 68.23 180.542 68.04 180.351 67.86 180.241 67.6 180.241 67.33 180.241 67.07 180.351 66.81 180.542 66.63 180.911 66.26 181.581 66.26 181.951 66.63 182.141 66.81 182.241 67.07 182.241 67.33 182.241 67.6 182.141 67.86 181.951 68.04 181.761 68.23 181.511 68.33 181.241 68.33M115.201 68.34C114.941 68.34 114.681 68.23 114.501 68.04 114.312 67.86 114.201 67.6 114.201 67.33 114.201 67.07 114.312 66.81 114.501 66.63 114.871 66.25 115.542 66.25 115.911 66.63 116.101 66.81 116.201 67.07 116.201 67.33 116.201 67.6 116.101 67.86 115.911 68.04 115.731 68.23 115.471 68.34 115.201 68.34"/>
    <path fill="#5FE0ED" d="M185.857,73.362 C177.924,73.508 171.651,80.25 171.651,88.282 L171.651,107.842 L181.215,107.842 L181.189,105.291 C180.313,104.384 179.356,103.251 178.551,101.935 C176.567,98.693 175.787,94.471 175.787,90.364 L175.787,90.045 L184.661,90.045 L184.567,85.765 C187.466,88.515 191.29,90.045 195.262,90.045 L196.844,90.045 L196.844,90.364 C196.844,94.488 195.887,98.674 193.881,101.912 C192.556,104.051 190.722,105.739 189.581,106.722 L191.211,107.842 L200.604,107.842 L200.604,88.046 C200.604,79.844 193.995,73.212 185.857,73.362"/>
    <polyline fill="#EAEAE9" points="174.791 120.022 179.679 120.022 178.128 117.739 177.329 117.739 174.791 120.022"/>
    <polyline fill="#EAEAE9" points="197.069 120.022 192.181 120.022 193.732 117.739 194.531 117.739 197.069 120.022"/>
    <polyline fill="#EAEAE9" points="181.183 112.789 178.174 117.738 185.319 128.014 186.078 128.014 181.183 112.789"/>
    <polyline fill="#EAEAE9" points="191.188 109.127 194.343 112.41 197.358 119.639 196.606 119.639 194.727 117.738 193.975 117.738 190.966 112.789 191.188 109.127"/>
    <path fill="#EAEAE9" d="M191.204,111.144 L191.204,105.663 L189.168,106.936 C188.618,107.28 187.985,107.462 187.339,107.462 L185.07,107.462 C184.259,107.462 183.474,107.175 182.85,106.652 L181.188,105.258 L181.189,107.415 L191.204,111.144"/>
    <path fill="#48515A" d="M187.226,108.554 L184.896,108.554 C183.843,108.554 182.875,108.199 182.098,107.527 C180.841,106.44 179.058,104.679 177.698,102.457 C175.292,98.525 174.787,93.71 174.787,90.363 L174.787,90.045 L176.787,90.045 L176.787,90.363 C176.787,93.453 177.241,97.878 179.404,101.413 C180.629,103.416 182.256,105.02 183.406,106.014 C183.827,106.377 184.314,106.554 184.896,106.554 L187.226,106.554 C187.899,106.554 188.438,106.384 188.83,106.05 C189.521,105.458 191.623,103.659 193.031,101.385 C194.845,98.457 195.844,94.543 195.844,90.363 L195.844,90.045 L197.844,90.045 L197.844,90.363 C197.844,94.91 196.738,99.199 194.731,102.438 C193.16,104.976 190.879,106.928 190.13,107.569 C189.367,108.222 188.39,108.554 187.226,108.554"/>
    <polygon fill="#48515A" points="180.183 109.317 182.183 109.317 182.183 105.273 180.183 105.273"/>
    <polygon fill="#48515A" points="189.959 109.555 191.959 109.555 191.959 105.558 189.959 105.558"/>
    <path fill="#48515A" d="M211.783 175.88L204.717 175.88 204.717 173.88 209.65 173.88 206.381 123.069C205.953 119.854 203.791 117.074 200.747 115.881L193.992 113.346 194.695 111.474 201.463 114.014C205.198 115.478 207.84 118.87 208.37 122.873L211.783 175.88M177.081 116.738L178.696 116.738 183.721 123.964 180.183 112.789 180.183 111.419 178.647 112.974 177.081 116.738zM187.442 129.014L184.796 129.014 177.729 118.849 175.96 120.639 173.291 120.639 176.951 111.846 182.183 106.548 182.183 112.633 187.442 129.014z"/>
    <path fill="#48515A" d="M191.966 111.423L191.918 113.095 188.429 123.964 193.453 116.738 195.065 116.738 193.495 112.974 191.966 111.423zM187.353 129.014L184.707 129.014 189.966 112.633 189.966 106.545 195.191 111.846 198.859 120.639 196.189 120.639 194.42 118.849 187.353 129.014zM170.719 221.701L167.719 179.448 167.715 167.615C167.715 165.659 168.365 163.731 169.546 162.174L174.395 152.78 169.293 135.666 171.21 135.094 176.541 152.981 171.184 163.325C170.237 164.546 169.715 166.07 169.715 167.615L169.717 179.377 172.714 221.559 170.719 221.701"/>
    <polygon fill="#48515A" points="185.549 221.047 187.549 221.047 187.549 175.047 185.549 175.047"/>
    <path fill="#48515A" d="M202.481,221.701 L200.486,221.559 L203.486,179.306 L203.485,167.685 C203.485,166.1 202.94,164.546 201.949,163.309 L201.848,163.156 L196.44,153.055 L198.729,138.722 L200.704,139.038 L198.521,152.705 L203.569,162.133 C204.806,163.712 205.485,165.679 205.485,167.686 L205.483,179.377 L202.481,221.701"/>
    <polyline fill="#48515A" points="207.131 183.88 204.717 183.88 204.717 181.88 206.303 181.88 207.717 180.466 207.717 174.88 209.717 174.88 209.717 181.294 207.131 183.88"/>
    <polygon fill="#48515A" points="175.626 153.88 198.481 153.88 198.481 151.88 175.626 151.88"/>
  </g>
</svg>
