<svg xmlns="http://www.w3.org/2000/svg" width="250" height="250" viewBox="0 0 250 250">
  <g fill="none" fill-rule="evenodd">
    <polyline fill="#DFE0E0" points="126.874 132.814 121.709 128.753 129.624 121.148 126.874 132.814"/>
    <polyline fill="#475059" points="147.373 163.148 131.457 163.148 131.457 158.25 126.304 133.296 112.348 122.522 113.57 120.939 128.113 132.166 133.457 158.148 133.457 161.148 145.373 161.148 145.373 160.779 138.931 157.705 136.166 128.465 114.957 109.476 116.291 107.986 138.084 127.497 138.12 127.887 140.816 156.388 147.373 159.517 147.373 163.148"/>
    <polyline fill="#DFE0E0" points="114.458 139.564 103.291 139.898 103.22 133.467 115.219 133.467 114.458 139.564"/>
    <path fill="#FFD15D" d="M109.845,109.264 L106.135,109.989 L103.836,103.351 L109.793,101.235 L111.037,105.935 L109.635,107.009 L109.845,109.264 Z M112.885,76.268 L116.76,70.781 L107.385,60.133 L101.385,61.851 L100.615,61.851 C98.494,61.851 96.714,63.451 96.489,65.56 L95.623,108.231 L92.958,134.064 L114.958,133.981 L129.791,120.898 L117.624,104.898 L112.885,76.268 Z"/>
    <path fill="#475059" d="M118.385,181.133 L102.386,181.133 L102.386,176.133 L102.094,151.58 L104.094,151.556 L104.386,179.133 L116.385,179.133 L116.385,178.764 L109.822,175.632 L113.927,133.649 L128.272,120.768 L116.426,105.135 L111.834,76.023 L115.48,70.861 L107.895,62.524 L105.885,60.038 L105.885,53.018 L106.885,53.018 C109.642,53.018 111.885,50.775 111.885,48.018 L111.885,44.566 C111.885,39.604 107.847,35.566 102.885,35.566 C97.96,35.566 94.385,39.169 94.385,44.133 L94.385,70.133 L92.385,70.133 L92.385,44.133 C92.385,38.01 96.801,33.566 102.885,33.566 C108.95,33.566 113.885,38.501 113.885,44.566 L113.885,48.018 C113.885,51.539 111.273,54.46 107.885,54.947 L107.885,59.331 L109.413,61.223 L118.04,70.703 L113.936,76.513 L118.323,104.327 L130.977,121.027 L115.843,134.618 L111.948,174.431 L118.385,177.502 L118.385,181.133"/>
    <path fill="#475059" d="M102.094,151.58 L101.898,135.133 L91.775,135.133 L94.63,108.292 L95.489,65.54 C95.775,62.83 97.976,60.852 100.615,60.852 C103.454,60.852 105.763,63.161 105.763,66 L105.763,82.201 L111.758,101.598 L102.238,104.981 L97.808,90.647 L99.719,90.056 L103.532,102.398 L109.28,100.355 L103.763,82.352 L103.763,66 C103.763,64.264 102.351,62.852 100.615,62.852 C99.001,62.852 97.654,64.061 97.483,65.665 L96.624,108.417 L93.998,133.133 L103.875,133.133 L104.094,151.556 L102.094,151.58"/>
    <polyline fill="#475059" points="105.474 111.136 102.892 103.679 104.781 103.024 106.796 108.84 108.765 108.456 108.588 106.55 109.9 105.546 108.826 101.49 110.76 100.979 112.174 106.323 110.682 107.466 110.924 110.072 105.474 111.136"/>
    <path fill="#5FE0ED" d="M133.43,54.686 C133.43,55.975 132.386,57.019 131.097,57.019 C129.808,57.019 128.764,55.975 128.764,54.686 C128.764,53.397 129.808,52.353 131.097,52.353 C132.386,52.353 133.43,53.397 133.43,54.686"/>
    <polyline fill="#48515A" points="30.5 216.434 28.5 216.434 28.5 197.434 76.5 197.434 76.5 179.434 124.5 179.434 124.5 161.434 172.5 161.434 172.5 143.434 221.5 143.434 221.5 145.434 174.5 145.434 174.5 162.722 173.89 163.434 126.499 163.434 126.499 181.434 78.5 181.434 78.5 199.434 30.5 199.434 30.5 216.434"/>
    <path fill="#FFF" d="M161.445,89.899 C160.932,89.899 160.494,89.506 160.449,88.986 C160.279,87.026 161.734,85.292 163.693,85.121 C164.237,85.069 164.727,85.48 164.776,86.03 C164.823,86.58 164.417,87.065 163.866,87.113 C163.006,87.189 162.366,87.951 162.442,88.812 C162.49,89.362 162.082,89.847 161.532,89.895 C161.503,89.898 161.474,89.899 161.445,89.899"/>
    <path fill="#475059" d="M184.188,181.377 C179.225,181.377 175.188,185.415 175.188,190.377 C175.188,195.339 179.225,199.377 184.188,199.377 C189.151,199.377 193.188,195.339 193.188,190.377 C193.188,185.415 189.151,181.377 184.188,181.377 Z M184.188,201.377 C178.122,201.377 173.188,196.442 173.188,190.377 C173.188,184.312 178.122,179.377 184.188,179.377 C190.253,179.377 195.188,184.312 195.188,190.377 C195.188,196.442 190.253,201.377 184.188,201.377 Z M184.188,175.377 C175.916,175.377 169.188,182.106 169.188,190.377 C169.188,198.648 175.916,205.377 184.188,205.377 C192.459,205.377 199.188,198.648 199.188,190.377 C199.188,182.106 192.459,175.377 184.188,175.377 Z M184.188,207.377 C174.814,207.377 167.188,199.751 167.188,190.377 C167.188,181.003 174.814,173.377 184.188,173.377 C193.562,173.377 201.188,181.003 201.188,190.377 C201.188,199.751 193.562,207.377 184.188,207.377 Z"/>
    <path fill="#475059" d="M184.188,187.377 C182.533,187.377 181.188,188.723 181.188,190.377 C181.188,192.031 182.533,193.377 184.188,193.377 C185.842,193.377 187.188,192.031 187.188,190.377 C187.188,188.723 185.842,187.377 184.188,187.377 Z M184.188,195.377 C181.431,195.377 179.188,193.134 179.188,190.377 C179.188,187.62 181.431,185.377 184.188,185.377 C186.945,185.377 189.188,187.62 189.188,190.377 C189.188,193.134 186.945,195.377 184.188,195.377 Z"/>
    <path fill="#F58E70" d="M184.188,186.377 C181.979,186.377 180.188,188.168 180.188,190.377 C180.188,192.586 181.979,194.377 184.188,194.377 C186.397,194.377 188.188,192.586 188.188,190.377 C188.188,188.168 186.397,186.377 184.188,186.377"/>
    <path fill="#F58E70" d="M184.188,187.377 C182.533,187.377 181.188,188.723 181.188,190.377 C181.188,192.031 182.533,193.377 184.188,193.377 C185.842,193.377 187.188,192.031 187.188,190.377 C187.188,188.723 185.842,187.377 184.188,187.377 Z M184.188,195.377 C181.431,195.377 179.188,193.134 179.188,190.377 C179.188,187.62 181.431,185.377 184.188,185.377 C186.945,185.377 189.188,187.62 189.188,190.377 C189.188,193.134 186.945,195.377 184.188,195.377 Z"/>
    <polygon fill="#475059" points="157.5 191.434 184.5 191.434 184.5 189.434 157.5 189.434"/>
    <path fill="#475059" d="M150.604,193.434 L153.776,193.434 L156.776,190.434 L153.776,187.434 L150.604,187.434 L153.604,190.434 L150.604,193.434 Z M154.604,195.434 L145.776,195.434 L150.776,190.434 L145.776,185.434 L154.604,185.434 L159.604,190.434 L154.604,195.434 Z"/>
    <path fill="#48515A" d="M142.902,96.226 L145.357,97.023 L145.823,95.586 C146.349,93.964 147.791,92.916 149.496,92.916 L149.497,92.916 C151.201,92.916 152.643,93.963 153.17,95.584 L153.637,97.02 L156.091,96.222 L155.623,94.785 C155.096,93.164 155.647,91.469 157.026,90.466 C158.406,89.463 160.189,89.464 161.567,90.465 L162.788,91.352 L164.3,89.27 L163.088,88.404 C161.704,87.399 161.153,85.71 161.677,84.096 C162.202,82.479 163.644,81.434 165.351,81.434 L166.862,81.434 L166.861,78.434 L165.35,78.434 C163.626,78.434 162.179,77.409 161.663,75.824 C161.158,74.27 161.713,72.625 163.077,71.634 L164.275,70.818 L162.836,68.863 L161.611,69.768 C160.224,70.777 158.44,70.779 157.059,69.776 C155.683,68.777 155.134,67.086 155.659,65.468 L156.124,64.038 L153.671,63.243 L153.204,64.682 C152.678,66.303 151.237,67.352 149.531,67.352 C149.531,67.352 149.531,67.352 149.53,67.352 C147.825,67.352 146.384,66.306 145.857,64.686 L145.39,63.249 L142.936,64.048 L143.404,65.485 C143.931,67.105 143.381,68.801 142.002,69.804 C140.623,70.806 138.841,70.808 137.46,69.805 L136.239,68.919 L134.723,71.007 L135.946,71.894 C137.324,72.895 137.876,74.59 137.35,76.212 C136.823,77.833 135.382,78.882 133.677,78.882 L132.166,78.883 L132.168,81.463 L133.679,81.463 L133.68,81.463 C135.384,81.463 136.825,82.51 137.353,84.131 C137.88,85.752 137.33,87.447 135.951,88.45 L134.73,89.338 L136.201,91.361 L137.423,90.473 C138.802,89.47 140.585,89.469 141.964,90.472 C143.344,91.473 143.895,93.169 143.368,94.79 L142.902,96.226 Z M146.642,99.542 L140.382,97.511 L141.466,94.172 C141.775,93.223 141.319,92.474 140.789,92.09 C140.258,91.706 139.406,91.504 138.599,92.09 L135.76,94.155 L131.937,88.896 L134.776,86.832 C135.582,86.246 135.654,85.372 135.451,84.749 C135.249,84.127 134.677,83.463 133.68,83.463 C133.68,83.463 133.68,83.463 133.679,83.463 L130.168,83.464 L130.166,76.884 L133.677,76.882 C134.674,76.882 135.245,76.217 135.448,75.595 C135.65,74.972 135.577,74.099 134.77,73.512 L131.93,71.45 L135.795,66.124 L138.636,68.187 C139.443,68.773 140.297,68.57 140.825,68.186 C141.355,67.801 141.81,67.052 141.501,66.104 L140.416,62.765 L146.673,60.729 L147.759,64.066 C148.068,65.015 148.876,65.352 149.53,65.352 C149.531,65.352 149.531,65.352 149.531,65.352 C150.185,65.352 150.994,65.014 151.302,64.064 L152.386,60.725 L158.646,62.751 L157.562,66.085 C157.255,67.031 157.707,67.776 158.234,68.158 C158.763,68.542 159.619,68.744 160.429,68.155 L163.258,66.064 L167.116,71.303 L164.228,73.269 C163.583,73.738 163.326,74.469 163.566,75.206 C163.759,75.799 164.328,76.434 165.35,76.434 L168.861,76.434 L168.862,83.434 L165.351,83.434 C164.351,83.434 163.781,84.095 163.579,84.713 C163.379,85.33 163.452,86.196 164.258,86.781 L167.103,88.815 L163.232,94.145 L160.391,92.083 C159.584,91.497 158.731,91.7 158.201,92.084 C157.672,92.469 157.217,93.218 157.526,94.167 L158.611,97.505 L152.354,99.54 L151.268,96.202 C150.959,95.254 150.151,94.916 149.496,94.916 C148.842,94.916 148.033,95.254 147.725,96.204 L146.642,99.542 Z"/>
    <path fill="#F58E70" d="M149.518,78.388 C149.425,78.388 149.331,78.396 149.239,78.411 C148.778,78.484 148.374,78.732 148.1,79.11 C147.826,79.488 147.716,79.95 147.79,80.411 C147.864,80.871 148.113,81.275 148.49,81.549 C149.27,82.113 150.364,81.939 150.929,81.159 C151.202,80.782 151.313,80.32 151.239,79.859 C151.165,79.399 150.916,78.995 150.538,78.721 C150.238,78.502 149.882,78.388 149.518,78.388 Z M149.509,83.879 C148.747,83.879 147.979,83.648 147.317,83.168 C146.506,82.582 145.973,81.714 145.815,80.726 C145.657,79.738 145.894,78.748 146.481,77.937 C147.068,77.127 147.935,76.593 148.923,76.435 C149.914,76.28 150.902,76.514 151.712,77.102 C152.523,77.688 153.056,78.556 153.214,79.544 C153.371,80.532 153.135,81.522 152.548,82.333 C151.816,83.343 150.67,83.879 149.509,83.879 Z"/>
    <path fill="#48515A" d="M147.304,69.721 C147.244,69.171 147.634,68.671 148.184,68.611 C148.734,68.551 149.224,68.941 149.294,69.491 C149.354,70.041 148.964,70.531 148.414,70.601 C148.374,70.601 148.334,70.601 148.294,70.601 C147.794,70.601 147.365,70.231 147.304,69.721 Z M151.934,70.841 C151.394,70.701 151.074,70.161 151.214,69.621 C151.354,69.091 151.905,68.771 152.434,68.911 C152.974,69.051 153.294,69.591 153.155,70.131 C153.034,70.581 152.624,70.871 152.184,70.871 C152.104,70.871 152.014,70.861 151.934,70.841 Z M143.694,71.221 C143.434,70.731 143.624,70.121 144.115,69.871 C144.604,69.611 145.204,69.801 145.464,70.291 C145.724,70.781 145.534,71.381 145.044,71.641 C144.894,71.711 144.734,71.751 144.574,71.751 C144.214,71.751 143.874,71.561 143.694,71.221 Z M155.144,72.361 C155.134,72.361 155.124,72.351 155.124,72.351 C154.674,72.021 154.574,71.401 154.894,70.951 C155.214,70.501 155.844,70.401 156.294,70.721 C156.304,70.731 156.314,70.741 156.334,70.751 C156.764,71.081 156.865,71.691 156.544,72.141 C156.344,72.411 156.044,72.551 155.734,72.551 C155.524,72.551 155.324,72.491 155.144,72.361 Z M140.874,73.921 C140.454,73.561 140.405,72.931 140.774,72.511 C141.134,72.101 141.764,72.051 142.184,72.411 C142.594,72.781 142.644,73.411 142.284,73.821 C142.084,74.051 141.804,74.171 141.524,74.171 C141.294,74.171 141.054,74.091 140.874,73.921 Z M157.574,74.921 C157.274,74.451 157.405,73.831 157.874,73.531 C158.334,73.231 158.954,73.371 159.254,73.831 C159.554,74.291 159.424,74.911 158.954,75.211 C158.784,75.321 158.604,75.371 158.414,75.371 C158.084,75.371 157.764,75.211 157.574,74.921 Z M139.204,77.461 C138.684,77.271 138.414,76.701 138.604,76.181 C138.794,75.661 139.365,75.391 139.884,75.581 C140.405,75.771 140.674,76.341 140.484,76.861 C140.334,77.271 139.954,77.521 139.544,77.521 C139.434,77.521 139.314,77.501 139.204,77.461 Z M158.914,78.181 C158.794,77.641 159.144,77.111 159.684,77.001 C160.224,76.891 160.754,77.231 160.865,77.771 C160.974,78.311 160.634,78.841 160.094,78.961 C160.024,78.971 159.954,78.981 159.884,78.981 C159.424,78.981 159.004,78.651 158.914,78.181 Z M137.914,80.391 C137.905,79.831 138.344,79.381 138.894,79.361 C139.444,79.351 139.905,79.791 139.914,80.341 C139.924,80.891 139.494,81.351 138.934,81.361 C138.934,81.361 138.924,81.361 138.914,81.361 C138.374,81.361 137.934,80.931 137.914,80.391 Z M159.804,82.861 C159.264,82.771 158.894,82.251 158.984,81.711 C159.074,81.161 159.584,80.791 160.134,80.881 C160.674,80.971 161.044,81.491 160.954,82.031 C160.874,82.521 160.444,82.871 159.964,82.871 C159.914,82.871 159.865,82.871 159.804,82.861 Z M138.784,84.551 C138.574,84.041 138.824,83.461 139.334,83.251 C139.844,83.041 140.424,83.281 140.634,83.791 C140.854,84.301 140.604,84.891 140.094,85.101 C139.964,85.151 139.844,85.181 139.714,85.181 C139.324,85.181 138.944,84.941 138.784,84.551 Z M158.124,86.391 C157.655,86.111 157.494,85.491 157.774,85.021 C158.054,84.541 158.674,84.381 159.144,84.671 C159.624,84.951 159.774,85.561 159.494,86.041 C159.314,86.351 158.974,86.531 158.634,86.531 C158.464,86.531 158.284,86.481 158.124,86.391 Z M141.104,88.131 C140.724,87.731 140.744,87.101 141.144,86.721 C141.544,86.341 142.174,86.351 142.554,86.751 C142.934,87.151 142.924,87.781 142.524,88.161 C142.334,88.351 142.084,88.441 141.834,88.441 C141.574,88.441 141.304,88.341 141.104,88.131 Z M155.284,89.081 C154.944,88.641 155.024,88.021 155.454,87.671 C155.894,87.331 156.514,87.411 156.865,87.841 C157.204,88.271 157.124,88.901 156.694,89.251 C156.514,89.391 156.294,89.461 156.074,89.461 C155.774,89.461 155.484,89.331 155.284,89.081 Z M144.564,90.621 C144.064,90.391 143.854,89.791 144.084,89.291 C144.324,88.791 144.914,88.581 145.414,88.821 C145.914,89.051 146.124,89.651 145.894,90.151 C145.724,90.511 145.365,90.721 144.984,90.721 C144.844,90.721 144.704,90.691 144.564,90.621 Z M151.664,90.561 C151.504,90.031 151.804,89.471 152.334,89.311 C152.865,89.151 153.424,89.441 153.584,89.971 C153.744,90.501 153.444,91.061 152.914,91.221 C152.824,91.251 152.724,91.271 152.624,91.271 C152.194,91.271 151.804,90.991 151.664,90.561 Z M148.684,91.701 C148.134,91.671 147.714,91.191 147.754,90.641 C147.794,90.081 148.274,89.671 148.824,89.711 C149.374,89.751 149.794,90.231 149.754,90.781 C149.714,91.301 149.274,91.711 148.754,91.711 C148.734,91.711 148.704,91.711 148.684,91.701 Z"/>
    <polygon fill="#48515A" points="49.5 127.434 51.5 127.434 51.5 123.434 49.5 123.434"/>
    <polygon fill="#48515A" points="49.5 137.434 51.5 137.434 51.5 133.434 49.5 133.434"/>
    <polygon fill="#48515A" points="53.5 131.434 57.5 131.434 57.5 129.434 53.5 129.434"/>
    <polygon fill="#48515A" points="43.5 131.434 47.5 131.434 47.5 129.434 43.5 129.434"/>
    <polygon fill="#48515A" points="189.5 77.434 191.5 77.434 191.5 73.434 189.5 73.434"/>
    <polygon fill="#48515A" points="189.5 87.434 191.5 87.434 191.5 83.434 189.5 83.434"/>
    <polygon fill="#48515A" points="193.5 81.434 197.5 81.434 197.5 79.434 193.5 79.434"/>
    <polygon fill="#48515A" points="183.5 81.434 187.5 81.434 187.5 79.434 183.5 79.434"/>
    <polygon fill="#48515A" points="70.5 87.434 72.5 87.434 72.5 83.434 70.5 83.434"/>
    <polygon fill="#48515A" points="70.5 97.434 72.5 97.434 72.5 93.434 70.5 93.434"/>
    <polygon fill="#48515A" points="74.5 91.434 78.5 91.434 78.5 89.434 74.5 89.434"/>
    <polygon fill="#48515A" points="64.5 91.434 68.5 91.434 68.5 89.434 64.5 89.434"/>
    <path fill="#F58E70" d="M72.097,157.686 C72.097,159.159 70.903,160.353 69.43,160.353 C67.957,160.353 66.764,159.159 66.764,157.686 C66.764,156.213 67.957,155.019 69.43,155.019 C70.903,155.019 72.097,156.213 72.097,157.686"/>
    <path fill="#F58E70" d="M69.43 156.019C68.511 156.019 67.763 156.767 67.763 157.686 67.763 158.605 68.511 159.353 69.43 159.353 70.349 159.353 71.097 158.605 71.097 157.686 71.097 156.767 70.349 156.019 69.43 156.019zM69.43 161.353C67.408 161.353 65.763 159.708 65.763 157.686 65.763 155.664 67.408 154.019 69.43 154.019 71.452 154.019 73.097 155.664 73.097 157.686 73.097 159.708 71.452 161.353 69.43 161.353zM189.442 101.013C189.442 101.933 188.696 102.679 187.776 102.679 186.855 102.679 186.109 101.933 186.109 101.013 186.109 100.092 186.855 99.346 187.776 99.346 188.696 99.346 189.442 100.092 189.442 101.013"/>
    <polygon fill="#475059" points="108.958 97.897 115.958 97.897 115.958 95.897 108.958 95.897"/>
    <polygon fill="#475059" points="102.886 135.133 114.885 135.133 114.885 133.133 102.886 133.133"/>
  </g>
</svg>
