<svg xmlns="http://www.w3.org/2000/svg" width="250" height="250" viewBox="0 0 250 250">
  <g fill="none" fill-rule="evenodd">
    <path fill="#5FE0ED" d="M96.763 57.239L94.402 61.529C93.112 63.849 92.501 66.506 92.638 69.157L94.43 105.948 94.429 106 117.54 106 117.536 105.957 116.642 80.732C116.361 73.132 113.881 65.767 109.503 59.549L107.753 57.107 107.751 57 96.782 57 96.763 57.239M133.43 57.252C133.43 58.541 132.386 59.586 131.097 59.586 129.808 59.586 128.764 58.541 128.764 57.252 128.764 55.964 129.808 54.919 131.097 54.919 132.386 54.919 133.43 55.964 133.43 57.252"/>
    <polyline fill="#DEDEDD" points="114.465 112.919 111.573 120.294 129.063 128.169 129.185 159.419 130.349 159.793 130.305 165 151.18 165 151.055 160.959 141.5 158.919 141.5 119.294 114.465 112.919"/>
    <polyline fill="#48515A" points="30.5 219 28.5 219 28.5 200 76.5 200 76.5 182 124.5 182 124.5 164 172.5 164 172.5 146 221.5 146 221.5 148 174.5 148 174.5 165.288 173.89 166 126.499 166 126.499 184 78.5 184 78.5 202 30.5 202 30.5 219"/>
    <path fill="#FFF" d="M161.445,92.465 C160.932,92.465 160.494,92.073 160.449,91.552 C160.279,89.593 161.734,87.859 163.693,87.688 C164.237,87.639 164.727,88.046 164.776,88.596 C164.823,89.146 164.417,89.631 163.866,89.68 C163.006,89.755 162.366,90.517 162.442,91.378 C162.49,91.929 162.082,92.414 161.532,92.461 C161.503,92.464 161.474,92.465 161.445,92.465"/>
    <path fill="#48515A" d="M97.5,182 L116.5,182 L116.5,179.712 L106.5,177.378 L106.5,172.354 L108.392,147.603 L110,121.084 L113.483,112.188 L115.345,112.917 L112.812,119.388 L130.211,127.323 L130.359,158 L131.5,158 L131.5,164 L150.5,164 L150.5,161.739 L140.5,159.739 L140.5,119.033 L116.593,106.534 L115.659,80.748 C115.387,73.371 113.002,66.271 108.76,60.208 L106.776,57.546 L106.439,52.311 L113.5,51.966 L113.5,40.448 C113.5,38.797 112.959,37.201 111.967,35.896 L111.628,35.518 C110.221,33.917 108.163,33 105.982,33 L104.246,33 C99.757,33 96.103,36.634 96.098,41.102 C96.1,43.294 96.964,45.35 98.53,46.892 L98.846,47.203 L98.762,49.165 L97.732,57.641 L95.276,62.058 C94.076,64.217 93.509,66.661 93.636,69.126 L95.471,106.023 L94.5,109.714 L94.5,118.644 L96.5,123.383 L96.5,176 L97.5,176 L97.5,182 Z M118.5,184 L95.5,184 L95.5,178 L94.5,178 L94.5,123.788 L92.5,119.048 L92.533,109.33 L93.458,105.813 L91.639,69.228 C91.492,66.389 92.146,63.573 93.528,61.086 L95.794,57.011 L96.771,49.002 L96.811,47.993 C95.062,46.115 94.102,43.689 94.098,41.112 C94.098,41.109 94.098,41.106 94.098,41.104 C94.098,41.1 94.098,41.097 94.098,41.094 C94.108,35.527 98.657,31 104.246,31 L105.982,31 C107.924,31 109.791,31.578 111.349,32.63 L111.343,32.165 L113.13,34.161 C114.658,35.899 115.5,38.131 115.5,40.448 L115.5,53.87 L108.565,54.21 L108.734,56.826 L110.33,58.963 C114.836,65.364 117.37,72.871 117.658,80.674 L118.55,105.3 L142.5,117.822 L142.5,158.099 L152.5,160.099 L152.5,166 L129.5,166 L129.5,160 L128.368,160 L128.217,128.612 L112.082,121.253 L111.978,121.52 L110.387,147.739 L108.497,172.43 L108.499,175.792 L118.5,178.125 L118.5,184 Z"/>
    <path fill="#475059" d="M105.5,120 L99.998,120 C97.479,120 95.482,118.075 95.452,115.617 L95.429,113.875 C95.429,111.576 95.781,109.289 96.476,107.064 L98.385,107.66 C97.751,109.691 97.429,111.778 97.429,113.862 L97.452,115.592 C97.468,116.942 98.587,118 99.998,118 L103.5,118 L103.5,115.859 L105.5,115.859 L105.5,116.098 C105.5,116.449 105.959,116.752 106.5,116.901 L106.5,113.198 C106.5,111.697 106.205,110.613 105.573,109.787 L105.503,109.682 L104.132,107.327 L103.37,88.981 L104.813,72.115 L106.806,72.286 L105.374,89.025 L106.11,106.749 L107.201,108.624 C108.087,109.807 108.5,111.263 108.5,113.198 L108.5,119 L107.202,119 C106.62,119 106.031,118.889 105.5,118.678 L105.5,120"/>
    <polyline fill="#475059" points="102.5 108 96.668 108 93.992 105.189 95.44 103.811 97.525 106 102.5 106 102.5 108"/>
    <polyline fill="#48515A" points="110.478 107.251 110.383 105.253 117.489 104.918 117.583 106.916 110.478 107.251"/>
    <polygon fill="#48515A" points="96.5 178 103.5 178 103.5 176 96.5 176"/>
    <polygon fill="#48515A" points="129.5 160 135.5 160 135.5 158 129.5 158"/>
    <path fill="#475059" d="M184.188,183.943 C179.225,183.943 175.188,187.981 175.188,192.943 C175.188,197.906 179.225,201.943 184.188,201.943 C189.151,201.943 193.188,197.906 193.188,192.943 C193.188,187.981 189.151,183.943 184.188,183.943 Z M184.188,203.943 C178.122,203.943 173.188,199.009 173.188,192.943 C173.188,186.878 178.122,181.943 184.188,181.943 C190.253,181.943 195.188,186.878 195.188,192.943 C195.188,199.009 190.253,203.943 184.188,203.943 Z M184.188,177.943 C175.916,177.943 169.188,184.672 169.188,192.943 C169.188,201.214 175.916,207.943 184.188,207.943 C192.459,207.943 199.188,201.214 199.188,192.943 C199.188,184.672 192.459,177.943 184.188,177.943 Z M184.188,209.943 C174.814,209.943 167.188,202.317 167.188,192.943 C167.188,183.569 174.814,175.943 184.188,175.943 C193.562,175.943 201.188,183.569 201.188,192.943 C201.188,202.317 193.562,209.943 184.188,209.943 Z"/>
    <path fill="#475059" d="M184.188,189.943 C182.533,189.943 181.188,191.289 181.188,192.943 C181.188,194.598 182.533,195.943 184.188,195.943 C185.842,195.943 187.188,194.598 187.188,192.943 C187.188,191.289 185.842,189.943 184.188,189.943 Z M184.188,197.943 C181.431,197.943 179.188,195.7 179.188,192.943 C179.188,190.187 181.431,187.943 184.188,187.943 C186.945,187.943 189.188,190.187 189.188,192.943 C189.188,195.7 186.945,197.943 184.188,197.943 Z"/>
    <path fill="#F58E70" d="M184.188,188.943 C181.979,188.943 180.188,190.734 180.188,192.943 C180.188,195.152 181.979,196.943 184.188,196.943 C186.397,196.943 188.188,195.152 188.188,192.943 C188.188,190.734 186.397,188.943 184.188,188.943"/>
    <path fill="#F58E70" d="M184.188,189.943 C182.533,189.943 181.188,191.289 181.188,192.943 C181.188,194.598 182.533,195.943 184.188,195.943 C185.842,195.943 187.188,194.598 187.188,192.943 C187.188,191.289 185.842,189.943 184.188,189.943 Z M184.188,197.943 C181.431,197.943 179.188,195.7 179.188,192.943 C179.188,190.187 181.431,187.943 184.188,187.943 C186.945,187.943 189.188,190.187 189.188,192.943 C189.188,195.7 186.945,197.943 184.188,197.943 Z"/>
    <polygon fill="#475059" points="157.5 194 184.5 194 184.5 192 157.5 192"/>
    <path fill="#475059" d="M150.604,196 L153.776,196 L156.776,193 L153.776,190 L150.604,190 L153.604,193 L150.604,196 Z M154.604,198 L145.776,198 L150.776,193 L145.776,188 L154.604,188 L159.604,193 L154.604,198 Z"/>
    <path fill="#48515A" d="M142.902,98.792 L145.357,99.589 L145.823,98.153 C146.349,96.531 147.791,95.483 149.496,95.482 L149.497,95.482 C151.201,95.482 152.643,96.529 153.17,98.15 L153.637,99.586 L156.091,98.788 L155.623,97.352 C155.096,95.73 155.647,94.035 157.026,93.033 C158.406,92.03 160.189,92.031 161.567,93.032 L162.788,93.919 L164.3,91.836 L163.088,90.97 C161.704,89.965 161.153,88.276 161.677,86.662 C162.202,85.045 163.644,84 165.351,84 L166.862,84 L166.861,81 L165.35,81 C163.626,81 162.179,79.976 161.663,78.39 C161.158,76.836 161.713,75.191 163.077,74.2 L164.275,73.384 L162.836,71.43 L161.611,72.334 C160.224,73.343 158.44,73.345 157.059,72.343 C155.683,71.344 155.134,69.653 155.659,68.034 L156.124,66.604 L153.671,65.81 L153.204,67.248 C152.678,68.87 151.237,69.918 149.531,69.919 C149.531,69.919 149.531,69.919 149.53,69.919 C147.825,69.919 146.384,68.872 145.857,67.252 L145.39,65.816 L142.936,66.615 L143.404,68.051 C143.931,69.672 143.381,71.367 142.002,72.37 C140.623,73.373 138.841,73.374 137.46,72.372 L136.239,71.485 L134.723,73.573 L135.946,74.46 C137.324,75.462 137.876,77.157 137.35,78.778 C136.823,80.4 135.382,81.448 133.677,81.449 L132.166,81.449 L132.168,84.03 L133.68,84.029 C135.384,84.029 136.825,85.076 137.353,86.697 C137.88,88.318 137.33,90.014 135.951,91.016 L134.73,91.904 L136.201,93.927 L137.423,93.04 C138.802,92.037 140.585,92.036 141.964,93.038 C143.344,94.04 143.895,95.735 143.368,97.356 L142.902,98.792 Z M146.642,102.109 L140.382,100.078 L141.466,96.738 C141.775,95.79 141.319,95.04 140.789,94.656 C140.258,94.271 139.406,94.071 138.599,94.657 L135.76,96.721 L131.937,91.463 L134.776,89.399 C135.582,88.812 135.654,87.938 135.451,87.316 C135.249,86.694 134.677,86.029 133.68,86.029 C133.68,86.029 133.68,86.029 133.679,86.029 L130.168,86.031 L130.166,79.45 L133.677,79.449 C134.674,79.448 135.245,78.783 135.448,78.161 C135.65,77.539 135.577,76.665 134.77,76.079 L131.93,74.017 L135.795,68.691 L138.636,70.753 C139.443,71.339 140.297,71.137 140.825,70.752 C141.355,70.368 141.81,69.619 141.501,68.67 L140.416,65.331 L146.673,63.295 L147.759,66.633 C148.068,67.581 148.876,67.919 149.53,67.919 C149.531,67.919 149.531,67.919 149.531,67.919 C150.185,67.919 150.994,67.58 151.302,66.631 L152.386,63.291 L158.646,65.318 L157.562,68.652 C157.255,69.597 157.707,70.342 158.234,70.724 C158.763,71.109 159.619,71.311 160.429,70.721 L163.258,68.631 L167.116,73.869 L164.228,75.835 C163.583,76.305 163.326,77.035 163.566,77.772 C163.759,78.366 164.328,79 165.35,79 L168.861,79 L168.862,86 L165.351,86 C164.351,86 163.781,86.661 163.579,87.28 C163.379,87.896 163.452,88.763 164.258,89.348 L167.103,91.381 L163.232,96.712 L160.391,94.65 C159.584,94.064 158.731,94.266 158.201,94.65 C157.672,95.035 157.217,95.784 157.526,96.733 L158.611,100.071 L152.354,102.107 L151.268,98.769 C150.959,97.82 150.151,97.482 149.496,97.482 C148.842,97.482 148.033,97.821 147.725,98.77 L146.642,102.109 Z"/>
    <path fill="#F58E70" d="M149.518,80.955 C149.425,80.955 149.331,80.962 149.239,80.977 C148.778,81.05 148.374,81.299 148.1,81.677 C147.826,82.055 147.716,82.516 147.79,82.977 C147.864,83.438 148.113,83.842 148.49,84.115 C149.27,84.68 150.364,84.506 150.929,83.726 C151.202,83.348 151.313,82.887 151.239,82.426 C151.165,81.965 150.916,81.561 150.538,81.288 L150.538,81.287 C150.238,81.069 149.882,80.955 149.518,80.955 Z M149.509,86.446 C148.747,86.446 147.979,86.215 147.317,85.735 C146.506,85.148 145.973,84.281 145.815,83.293 C145.657,82.304 145.894,81.314 146.481,80.503 C147.068,79.693 147.935,79.16 148.923,79.002 C149.914,78.845 150.902,79.081 151.712,79.668 C152.523,80.255 153.056,81.122 153.214,82.11 C153.371,83.099 153.135,84.089 152.548,84.899 C151.816,85.909 150.67,86.446 149.509,86.446 Z"/>
    <path fill="#48515A" d="M147.304,72.287 C147.244,71.737 147.634,71.237 148.184,71.177 C148.734,71.117 149.224,71.507 149.294,72.057 C149.354,72.607 148.964,73.097 148.414,73.167 C148.374,73.167 148.334,73.167 148.294,73.167 C147.794,73.167 147.365,72.797 147.304,72.287 Z M151.934,73.407 C151.394,73.267 151.074,72.727 151.214,72.187 C151.354,71.657 151.905,71.337 152.434,71.477 C152.974,71.617 153.294,72.157 153.155,72.697 C153.034,73.147 152.624,73.437 152.184,73.437 C152.104,73.437 152.014,73.427 151.934,73.407 Z M143.694,73.787 C143.434,73.297 143.624,72.687 144.115,72.437 C144.604,72.177 145.204,72.367 145.464,72.857 C145.724,73.347 145.534,73.947 145.044,74.207 C144.894,74.277 144.734,74.317 144.574,74.317 C144.214,74.317 143.874,74.127 143.694,73.787 Z M155.144,74.927 C155.134,74.927 155.124,74.917 155.124,74.917 C154.674,74.587 154.574,73.967 154.894,73.517 C155.214,73.067 155.844,72.967 156.294,73.287 C156.304,73.297 156.314,73.307 156.334,73.317 C156.764,73.647 156.865,74.257 156.544,74.707 C156.344,74.977 156.044,75.117 155.734,75.117 C155.524,75.117 155.324,75.057 155.144,74.927 Z M140.874,76.487 C140.454,76.127 140.405,75.497 140.774,75.077 C141.134,74.667 141.764,74.617 142.184,74.977 C142.594,75.337 142.644,75.977 142.284,76.387 C142.084,76.617 141.804,76.737 141.524,76.737 C141.294,76.737 141.054,76.657 140.874,76.487 Z M157.574,77.487 C157.274,77.017 157.405,76.397 157.874,76.097 C158.334,75.797 158.954,75.937 159.254,76.397 C159.554,76.857 159.424,77.477 158.954,77.777 C158.784,77.887 158.604,77.937 158.414,77.937 C158.084,77.937 157.764,77.777 157.574,77.487 Z M139.204,80.027 C138.684,79.837 138.414,79.267 138.604,78.747 C138.794,78.227 139.365,77.957 139.884,78.147 C140.405,78.337 140.674,78.907 140.484,79.427 C140.334,79.837 139.954,80.087 139.544,80.087 C139.434,80.087 139.314,80.067 139.204,80.027 Z M158.914,80.747 C158.794,80.207 159.144,79.677 159.684,79.567 C160.224,79.457 160.754,79.797 160.865,80.337 C160.974,80.877 160.634,81.407 160.094,81.527 C160.024,81.537 159.954,81.547 159.884,81.547 C159.424,81.547 159.004,81.217 158.914,80.747 Z M137.914,82.957 C137.905,82.397 138.344,81.947 138.894,81.927 C139.444,81.917 139.905,82.357 139.914,82.907 C139.924,83.457 139.494,83.917 138.934,83.927 C138.934,83.927 138.924,83.927 138.914,83.927 C138.374,83.927 137.934,83.497 137.914,82.957 Z M159.804,85.427 C159.264,85.337 158.894,84.817 158.984,84.277 C159.074,83.727 159.584,83.357 160.134,83.447 C160.674,83.537 161.044,84.057 160.954,84.597 C160.874,85.087 160.444,85.437 159.964,85.437 C159.914,85.437 159.865,85.437 159.804,85.427 Z M138.784,87.117 C138.574,86.607 138.824,86.027 139.334,85.817 C139.844,85.607 140.424,85.847 140.634,86.357 C140.854,86.867 140.604,87.457 140.094,87.667 C139.964,87.717 139.844,87.747 139.714,87.747 C139.324,87.747 138.944,87.507 138.784,87.117 Z M158.124,88.957 C157.655,88.677 157.494,88.057 157.774,87.587 C158.054,87.107 158.674,86.957 159.144,87.237 C159.624,87.517 159.774,88.127 159.494,88.607 C159.314,88.917 158.974,89.097 158.634,89.097 C158.464,89.097 158.284,89.047 158.124,88.957 Z M141.104,90.697 C140.724,90.297 140.744,89.667 141.144,89.287 C141.544,88.897 142.174,88.917 142.554,89.317 C142.934,89.717 142.924,90.347 142.524,90.727 C142.334,90.917 142.084,91.007 141.834,91.007 C141.574,91.007 141.304,90.907 141.104,90.697 Z M155.284,91.647 C154.944,91.207 155.024,90.587 155.454,90.237 C155.894,89.897 156.514,89.977 156.865,90.407 C157.204,90.847 157.124,91.467 156.694,91.817 C156.514,91.957 156.294,92.027 156.074,92.027 C155.774,92.027 155.484,91.897 155.284,91.647 Z M144.564,93.187 C144.064,92.957 143.854,92.357 144.084,91.857 C144.324,91.357 144.914,91.147 145.414,91.387 C145.914,91.617 146.124,92.217 145.894,92.717 C145.724,93.077 145.365,93.287 144.984,93.287 C144.844,93.287 144.704,93.257 144.564,93.187 Z M151.664,93.127 C151.504,92.597 151.804,92.037 152.334,91.877 C152.865,91.717 153.424,92.007 153.584,92.537 C153.744,93.067 153.444,93.627 152.914,93.787 C152.824,93.817 152.724,93.837 152.624,93.837 C152.194,93.837 151.804,93.557 151.664,93.127 Z M148.684,94.267 C148.134,94.237 147.714,93.757 147.754,93.207 C147.794,92.647 148.274,92.237 148.824,92.277 C149.374,92.317 149.794,92.787 149.754,93.347 C149.714,93.867 149.274,94.277 148.754,94.277 C148.734,94.277 148.704,94.277 148.684,94.267 Z"/>
    <polygon fill="#48515A" points="49.5 130 51.5 130 51.5 126 49.5 126"/>
    <polygon fill="#48515A" points="49.5 140 51.5 140 51.5 136 49.5 136"/>
    <polygon fill="#48515A" points="53.5 134 57.5 134 57.5 132 53.5 132"/>
    <polygon fill="#48515A" points="43.5 134 47.5 134 47.5 132 43.5 132"/>
    <polygon fill="#48515A" points="189.5 80 191.5 80 191.5 76 189.5 76"/>
    <polygon fill="#48515A" points="189.5 90 191.5 90 191.5 86 189.5 86"/>
    <polygon fill="#48515A" points="193.5 84 197.5 84 197.5 82 193.5 82"/>
    <polygon fill="#48515A" points="183.5 84 187.5 84 187.5 82 183.5 82"/>
    <polygon fill="#48515A" points="70.5 90 72.5 90 72.5 86 70.5 86"/>
    <polygon fill="#48515A" points="70.5 100 72.5 100 72.5 96 70.5 96"/>
    <polygon fill="#48515A" points="74.5 94 78.5 94 78.5 92 74.5 92"/>
    <polygon fill="#48515A" points="64.5 94 68.5 94 68.5 92 64.5 92"/>
    <path fill="#F58E70" d="M72.097,160.252 C72.097,161.725 70.903,162.919 69.43,162.919 C67.957,162.919 66.764,161.725 66.764,160.252 C66.764,158.78 67.957,157.586 69.43,157.586 C70.903,157.586 72.097,158.78 72.097,160.252"/>
    <path fill="#F58E70" d="M69.43 158.585C68.511 158.585 67.763 159.333 67.763 160.252 67.763 161.171 68.511 161.919 69.43 161.919 70.349 161.919 71.097 161.171 71.097 160.252 71.097 159.333 70.349 158.585 69.43 158.585zM69.43 163.919C67.408 163.919 65.763 162.274 65.763 160.252 65.763 158.23 67.408 156.585 69.43 156.585 71.452 156.585 73.097 158.23 73.097 160.252 73.097 162.274 71.452 163.919 69.43 163.919zM189.442 103.579C189.442 104.5 188.696 105.246 187.776 105.246 186.855 105.246 186.109 104.5 186.109 103.579 186.109 102.659 186.855 101.912 187.776 101.912 188.696 101.912 189.442 102.659 189.442 103.579"/>
  </g>
</svg>
