<svg xmlns="http://www.w3.org/2000/svg" width="250" height="250" viewBox="0 0 250 250">
  <g fill="none" fill-rule="evenodd">
    <path fill="#5FE0ED" d="M77.661,47.367 C86.848,47.536 94.112,55.343 94.112,64.643 L94.112,87.293 L83.037,87.293 L83.067,84.338 C84.082,83.289 85.189,81.977 86.122,80.453 C88.419,76.698 89.322,71.81 89.322,67.054 L89.322,66.685 L79.047,66.685 L79.156,61.729 C75.799,64.913 71.371,66.685 66.771,66.685 L64.94,66.685 L64.94,67.054 C64.94,71.829 66.048,76.676 68.37,80.426 C69.905,82.903 72.029,84.857 73.35,85.995 L71.463,87.293 L60.586,87.293 L60.586,64.37 C60.586,54.873 68.239,47.194 77.661,47.367"/>
    <polyline fill="#EAEAE9" points="90.476 101.396 84.816 101.396 86.612 98.752 87.537 98.752 90.476 101.396"/>
    <polyline fill="#EAEAE9" points="64.679 101.397 70.339 101.397 68.543 98.752 67.618 98.752 64.679 101.397"/>
    <polyline fill="#EAEAE9" points="83.074 93.021 86.558 98.751 78.285 110.65 77.406 110.65 83.074 93.021"/>
    <polyline fill="#EAEAE9" points="71.489 88.78 67.835 92.582 64.344 100.952 65.215 100.952 67.391 98.751 68.262 98.751 71.746 93.021 71.489 88.78"/>
    <path fill="#EAEAE9" d="M71.471,91.116 L71.471,84.769 L73.828,86.243 C74.464,86.641 75.198,86.852 75.946,86.852 L78.574,86.852 C79.512,86.852 80.421,86.52 81.144,85.914 L83.068,84.3 L83.067,86.798 L71.471,91.116"/>
    <path fill="#48515A" d="M78.775,87.959 L76.077,87.959 C74.768,87.959 73.671,87.588 72.816,86.856 C71.954,86.118 69.329,83.871 67.521,80.953 C65.211,77.225 63.94,72.289 63.94,67.054 L63.94,66.685 L65.94,66.685 L65.94,67.054 C65.94,71.922 67.105,76.484 69.221,79.9 C70.865,82.553 73.312,84.648 74.117,85.337 C74.599,85.749 75.258,85.959 76.077,85.959 L78.775,85.959 C79.489,85.959 80.087,85.741 80.603,85.295 C81.943,84.136 83.84,82.265 85.269,79.931 C87.793,75.806 88.322,70.652 88.322,67.054 L88.322,66.685 L90.322,66.685 L90.322,67.054 C90.322,70.908 89.742,76.452 86.975,80.975 C85.412,83.529 83.359,85.556 81.912,86.808 C81.041,87.561 79.956,87.959 78.775,87.959"/>
    <polygon fill="#48515A" points="82.075 89.001 84.075 89.001 84.075 84.318 82.075 84.318"/>
    <polygon fill="#48515A" points="70.754 89.276 72.754 89.276 72.754 84.648 70.754 84.648"/>
    <path fill="#48515A" d="M54.482 102.216L52.638 101.441C53.952 98.316 56.502 95.82 59.634 94.592L67.484 91.646 68.187 93.518 60.35 96.459C57.731 97.486 55.587 99.586 54.482 102.216M99.812 101.187C98.619 99.028 96.707 97.347 94.429 96.454L86.64 93.517 87.345 91.646 95.146 94.587C97.87 95.655 100.145 97.654 101.563 100.22L99.812 101.187"/>
    <path fill="#48515A" d="M84.074,91.05 L84.026,93.327 L79.663,106.916 L86.036,97.751 L87.847,97.751 L88.216,98.124 L86.145,93.146 L84.074,91.05 Z M78.807,111.65 L76.043,111.65 L82.074,92.865 L82.074,86.179 L87.841,92.018 L91.976,101.952 L89.187,101.952 L87.052,99.792 L78.807,111.65 Z"/>
    <path fill="#48515A" d="M66.974,97.751 L68.785,97.751 L75.157,106.916 L70.746,93.021 L70.746,91.053 L68.684,93.146 L66.609,98.12 L66.974,97.751 Z M78.778,111.65 L76.013,111.65 L67.768,99.792 L65.632,101.952 L62.844,101.952 L66.987,92.018 L72.746,86.176 L72.746,92.865 L78.778,111.65 Z"/>
    <path fill="#F58E70" d="M174.006,96.844 C174.115,97.283 174.268,98.083 174.408,99.083 L171.178,99.083 L171.576,96.844 C171.101,96.844 170.843,96.418 170.843,95.943 L170.843,93.794 L172.879,91.214 L174.843,93.794 L174.843,95.943 C174.843,96.418 174.48,96.844 174.006,96.844"/>
    <path fill="#DFE0E0" d="M179.843,84.771 L179.843,86.649 L173.093,90.302 L166.274,86.757 L165.843,83.32 L165.843,80.422 C165.843,80.179 165.594,79.919 165.367,79.656 C165.445,79.723 165.643,79.791 165.707,79.859 C166.61,80.831 168.043,82.078 168.971,82.871 C169.705,83.498 170.696,84.083 171.661,84.083 L174.451,84.083 C175.416,84.083 176.344,83.498 177.078,82.871 C177.964,82.115 179.253,81.037 180.155,80.106 C180.182,80.078 180.213,79.993 180.243,79.965 C179.972,80.253 179.91,80.516 179.581,80.807 C179.588,80.81 179.843,80.785 179.843,80.794 L179.843,84.771"/>
    <path fill="#48515A" d="M179.843,87.348 C179.291,87.348 178.843,86.901 178.843,86.348 L178.843,81.083 C178.843,80.531 179.291,80.083 179.843,80.083 C180.396,80.083 180.843,80.531 180.843,81.083 L180.843,86.348 C180.843,86.901 180.396,87.348 179.843,87.348"/>
    <path fill="#48515A" d="M166.843,87.083 C166.291,87.083 165.843,86.635 165.843,86.083 L165.843,80.944 C165.097,80.395 164.592,79.775 164.308,79.062 L161.68,74.157 L158.506,72.604 L157.661,68.415 C157.644,67.801 157.863,67.228 158.278,66.801 C158.602,66.468 159.019,66.243 159.488,66.142 C159.396,65.719 159.291,65.361 159.193,65.028 C159.013,64.415 158.843,63.836 158.843,63.138 L158.843,62.656 C158.843,60.637 159.688,58.82 160.433,57.217 L160.738,56.597 C161.62,54.819 162.941,53.204 164.561,51.928 C166.927,50.062 169.915,49.023 172.974,49.002 C173.004,49.002 173.035,49.002 173.065,49.002 C176.641,49.002 180.047,50.431 182.667,53.033 C185.321,55.67 186.843,59.278 186.843,62.932 L186.843,63.138 C186.843,63.818 186.735,64.383 186.611,65.036 C186.547,65.368 186.479,65.727 186.415,66.148 C187.5,66.39 188.26,67.283 188.26,68.41 L188.219,68.694 L187.08,72.545 L184.389,74.129 L182.025,79.181 C181.6,80.33 180.177,81.585 178.363,83.098 L177.728,83.631 C176.6,84.595 175.497,85.083 174.451,85.083 L171.843,85.083 C171.291,85.083 170.843,84.635 170.843,84.083 C170.843,83.531 171.291,83.083 171.843,83.083 L174.451,83.083 C175,83.083 175.684,82.747 176.429,82.11 L177.082,81.562 C178.194,80.634 179.875,79.232 180.182,78.408 L182.84,72.719 L185.386,71.222 L186.246,68.312 C186.181,68.101 185.906,68.083 185.813,68.083 L184.19,68.083 L184.297,66.987 C184.395,65.976 184.534,65.246 184.646,64.66 C184.761,64.062 184.843,63.629 184.843,63.138 L184.843,62.932 C184.843,59.807 183.536,56.716 181.257,54.453 C178.996,52.206 176.024,50.974 172.987,51.002 C170.371,51.02 167.818,51.906 165.799,53.498 C164.411,54.592 163.281,55.971 162.53,57.485 L162.246,58.06 C161.557,59.544 160.843,61.079 160.843,62.558 L160.843,63.138 C160.843,63.548 160.956,63.933 161.112,64.465 C161.295,65.088 161.523,65.863 161.647,66.972 L161.771,68.083 L160.058,68.083 C159.909,68.083 159.78,68.125 159.712,68.195 C159.691,68.216 159.671,68.245 159.663,68.298 L160.268,71.24 L163.138,72.644 L166.154,78.291 C166.263,78.582 166.508,79.029 167.37,79.563 L167.843,79.857 L167.843,86.083 C167.843,86.635 167.396,87.083 166.843,87.083"/>
    <polyline fill="#48515A" points="200.901 96.403 182.795 90.042 180.578 86.083 179.843 86.083 179.843 84.083 181.75 84.083 184.171 88.405 201.564 94.516 200.901 96.403"/>
    <path fill="#48515A" d="M172.738,91.502 L165.895,87.67 C165.413,87.4 165.241,86.79 165.511,86.308 C165.781,85.827 166.391,85.656 166.872,85.925 L172.738,89.21 L178.855,85.784 C179.338,85.515 179.947,85.687 180.216,86.168 C180.486,86.65 180.314,87.259 179.833,87.529 L172.738,91.502"/>
    <polyline fill="#48515A" points="144.398 95.666 143.816 93.753 161.384 88.411 164.125 84.083 166.375 84.083 166.375 86.083 165.226 86.083 162.676 90.108 144.398 95.666"/>
    <path fill="#48515A" d="M176.607,96.513 C176.333,96.513 176.061,96.401 175.863,96.182 L172.738,92.71 L169.614,96.182 C169.245,96.592 168.612,96.627 168.202,96.256 C167.791,95.887 167.758,95.255 168.127,94.844 L172.738,89.721 L177.35,94.844 C177.719,95.255 177.686,95.887 177.275,96.256 C177.084,96.428 176.845,96.513 176.607,96.513"/>
    <path fill="#48515A" d="M164.886 110.766C149.221 107.015 138.28 93.13 138.28 77 138.28 57.856 153.855 42.28 173 42.28 192.145 42.28 207.72 57.856 207.72 77 207.72 92.649 197.183 106.43 182.096 110.515L181.574 108.585C195.791 104.736 205.72 91.747 205.72 77 205.72 58.958 191.042 44.28 173 44.28 154.958 44.28 140.28 58.958 140.28 77 140.28 92.201 150.59 105.286 165.352 108.821L164.886 110.766M84.447 110.919L84.02 108.965C98.912 105.71 109.72 92.267 109.72 77 109.72 58.958 95.041 44.28 77 44.28 58.958 44.28 44.28 58.958 44.28 77 44.28 92.343 54.707 105.456 69.638 108.888L69.189 110.837C53.346 107.195 42.28 93.28 42.28 77 42.28 57.856 57.855 42.28 77 42.28 96.145 42.28 111.72 57.856 111.72 77 111.72 93.199 100.25 107.465 84.447 110.919M140.87 166.786L138.906 166.408C141.551 152.646 152.571 141.6 166.328 138.921L166.709 140.884C153.747 143.408 143.362 153.818 140.87 166.786M173 207.719C157.249 207.719 143.444 197.096 139.428 181.885L141.362 181.375C145.146 195.709 158.156 205.719 173 205.719 191.042 205.719 205.72 191.041 205.72 173 205.72 157.948 195.535 144.893 180.951 141.253L181.436 139.313C196.911 143.176 207.72 157.029 207.72 173 207.72 192.144 192.145 207.719 173 207.719"/>
    <path fill="#5FE0ED" d="M173.719,142.424 C182.905,142.593 190.169,150.4 190.169,159.7 L190.169,182.35 L179.095,182.35 L179.125,179.395 C180.14,178.346 181.247,177.034 182.179,175.51 C184.477,171.755 185.38,166.867 185.38,162.111 L185.38,161.742 L175.104,161.742 L175.213,156.786 C171.856,159.97 167.429,161.742 162.829,161.742 L160.998,161.742 L160.998,162.111 C160.998,166.886 162.105,171.733 164.428,175.483 C165.963,177.96 168.086,179.914 169.408,181.052 L167.52,182.35 L156.644,182.35 L156.644,159.428 C156.644,149.93 164.297,142.251 173.719,142.424"/>
    <polyline fill="#EAEAE9" points="186.534 196.453 180.874 196.453 182.669 193.809 183.595 193.809 186.534 196.453"/>
    <polyline fill="#EAEAE9" points="160.736 196.454 166.396 196.454 164.601 193.809 163.675 193.809 160.736 196.454"/>
    <polyline fill="#EAEAE9" points="179.132 188.078 182.616 193.808 174.342 205.707 173.464 205.707 179.132 188.078"/>
    <polyline fill="#EAEAE9" points="167.546 183.837 163.893 187.639 160.402 196.009 161.273 196.009 163.449 193.808 164.32 193.808 167.804 188.078 167.546 183.837"/>
    <path fill="#EAEAE9" d="M167.529,186.173 L167.529,179.826 L169.886,181.3 C170.522,181.698 171.256,181.909 172.004,181.909 L174.631,181.909 C175.57,181.909 176.479,181.577 177.202,180.971 L179.126,179.357 L179.125,181.855 L167.529,186.173"/>
    <path fill="#48515A" d="M174.833,183.016 L172.134,183.016 C170.826,183.016 169.729,182.645 168.874,181.913 C168.012,181.175 165.386,178.928 163.578,176.01 C161.269,172.282 159.998,167.346 159.998,162.111 L159.998,161.741 L161.998,161.741 L161.998,162.111 C161.998,166.979 163.163,171.541 165.278,174.957 C166.923,177.611 169.37,179.705 170.175,180.394 C170.657,180.806 171.316,181.016 172.134,181.016 L174.833,181.016 C175.546,181.016 176.144,180.799 176.661,180.352 C178,179.194 179.897,177.323 181.326,174.988 C183.85,170.863 184.38,165.709 184.38,162.111 L184.38,161.741 L186.38,161.741 L186.38,162.111 C186.38,165.966 185.799,171.51 183.032,176.032 C181.469,178.587 179.416,180.614 177.969,181.865 C177.098,182.618 176.014,183.016 174.833,183.016"/>
    <polygon fill="#48515A" points="178.132 184.057 180.132 184.057 180.132 179.375 178.132 179.375"/>
    <polygon fill="#48515A" points="166.812 184.333 168.812 184.333 168.812 179.705 166.812 179.705"/>
    <path fill="#48515A" d="M150.539 197.273L148.695 196.498C150.009 193.372 152.559 190.876 155.691 189.649L163.542 186.702 164.245 188.574 156.408 191.516C153.789 192.542 151.645 194.642 150.539 197.273M195.87 196.244C194.677 194.085 192.765 192.404 190.486 191.511L182.697 188.574 183.403 186.703 191.204 189.644C193.928 190.712 196.203 192.711 197.621 195.278L195.87 196.244"/>
    <path fill="#48515A" d="M180.131,186.107 L180.083,188.384 L175.721,201.973 L182.093,192.808 L183.904,192.808 L184.274,193.181 L182.202,188.202 L180.131,186.107 Z M174.865,206.707 L172.101,206.707 L178.131,187.921 L178.131,181.237 L183.898,187.074 L188.033,197.01 L185.245,197.01 L183.11,194.849 L174.865,206.707 Z"/>
    <path fill="#48515A" d="M163.031,192.808 L164.842,192.808 L171.215,201.973 L166.804,188.078 L166.804,186.111 L164.741,188.202 L162.667,193.176 L163.031,192.808 Z M174.835,206.707 L172.07,206.707 L163.826,194.849 L161.69,197.01 L158.901,197.01 L163.045,187.074 L168.804,181.233 L168.804,187.921 L174.835,206.707 Z"/>
    <path fill="#F58E70" d="M73.73,207.083 C73.73,207.083 74.876,195.276 75.449,192.984 L75.449,192.893 L75.576,192.848 C75.101,192.848 74.843,192.418 74.843,191.943 L74.843,189.794 L76.879,187.214 L78.843,189.794 L78.843,191.943 C78.843,192.418 78.48,192.803 78.006,192.802 L78.017,192.802 L78.022,192.984 C78.595,195.276 79.747,207.083 79.747,207.083 L73.73,207.083"/>
    <path fill="#DFE0E0" d="M83.843,180.771 L83.843,182.649 L77.093,186.302 L70.274,182.757 L69.843,179.319 L69.843,176.422 C69.843,176.179 69.594,175.919 69.367,175.656 C69.445,175.723 69.643,175.791 69.706,175.859 C70.61,176.831 72.043,178.078 72.971,178.871 C73.705,179.498 74.696,180.083 75.661,180.083 L78.451,180.083 C79.416,180.083 80.344,179.498 81.078,178.871 C81.964,178.115 83.253,177.037 84.155,176.106 C84.182,176.078 84.213,175.993 84.243,175.965 C83.972,176.253 83.91,176.516 83.581,176.807 C83.588,176.81 83.843,176.785 83.843,176.794 L83.843,180.771"/>
    <path fill="#48515A" d="M83.843 184.083C83.291 184.083 82.843 183.635 82.843 183.083L82.843 177.083C82.843 176.531 83.291 176.083 83.843 176.083 84.396 176.083 84.843 176.531 84.843 177.083L84.843 183.083C84.843 183.635 84.396 184.083 83.843 184.083M70.843 183.083C70.291 183.083 69.843 182.635 69.843 182.083L69.843 176.944C69.097 176.395 68.592 175.775 68.308 175.062L65.68 170.157 62.506 168.604 61.661 164.415C61.644 163.802 61.863 163.228 62.278 162.801 62.602 162.468 63.019 162.243 63.488 162.142 63.396 161.719 63.291 161.361 63.193 161.028 63.013 160.415 62.843 159.836 62.843 159.138L62.843 158.656C62.843 156.906 63.297 155.159 64.272 153.06 64.504 152.559 65.098 152.342 65.601 152.574 66.101 152.807 66.319 153.402 66.086 153.903 65.238 155.728 64.843 157.208 64.843 158.558L64.843 159.138C64.843 159.548 64.956 159.933 65.112 160.465 65.295 161.088 65.523 161.864 65.647 162.972L65.771 164.083 64.058 164.083C63.909 164.083 63.78 164.125 63.712 164.195 63.691 164.216 63.671 164.245 63.663 164.298L64.268 167.24 67.138 168.644 70.154 174.291C70.263 174.582 70.508 175.029 71.37 175.563L71.843 175.857 71.843 182.083C71.843 182.635 71.395 183.083 70.843 183.083"/>
    <path fill="#48515A" d="M78.451,181.083 L75.843,181.083 C75.291,181.083 74.843,180.635 74.843,180.083 C74.843,179.531 75.291,179.083 75.843,179.083 L78.451,179.083 C78.999,179.083 79.684,178.747 80.429,178.11 L81.082,177.562 C82.194,176.634 83.875,175.232 84.182,174.408 L86.84,168.719 L89.386,167.222 L90.246,164.312 C90.181,164.101 89.906,164.083 89.813,164.083 L88.19,164.083 L88.297,162.987 C88.395,161.976 88.534,161.246 88.646,160.66 C88.761,160.062 88.843,159.629 88.843,159.138 L88.843,158.932 C88.843,155.094 86.931,151.443 83.729,149.164 C83.279,148.844 83.174,148.219 83.494,147.77 C83.814,147.321 84.437,147.215 84.888,147.534 C88.617,150.188 90.843,154.448 90.843,158.932 L90.843,159.138 C90.843,159.818 90.735,160.383 90.611,161.036 C90.547,161.368 90.479,161.727 90.415,162.148 C91.499,162.39 92.26,163.282 92.26,164.41 L92.219,164.694 L91.08,168.545 L88.389,170.129 L86.025,175.181 C85.6,176.33 84.177,177.585 82.363,179.098 L81.728,179.631 C80.6,180.595 79.497,181.083 78.451,181.083"/>
    <polyline fill="#48515A" points="104.901 192.403 86.795 186.042 84.578 182.083 83.843 182.083 83.843 180.083 85.749 180.083 88.171 184.406 105.564 190.516 104.901 192.403"/>
    <path fill="#48515A" d="M76.738,187.502 L69.895,183.67 C69.413,183.4 69.241,182.79 69.511,182.308 C69.78,181.827 70.391,181.656 70.872,181.925 L76.738,185.21 L82.855,181.784 C83.337,181.516 83.947,181.687 84.216,182.168 C84.486,182.65 84.314,183.26 83.832,183.53 L76.738,187.502"/>
    <polyline fill="#48515A" points="48.398 191.666 47.816 189.753 65.384 184.411 68.125 180.083 69.843 180.083 69.843 182.083 69.226 182.083 66.676 186.108 48.398 191.666"/>
    <path fill="#48515A" d="M80.607 192.513C80.333 192.513 80.061 192.401 79.863 192.182L76.738 188.71 73.614 192.182C73.245 192.592 72.612 192.627 72.202 192.256 71.791 191.887 71.758 191.255 72.127 190.844L76.738 185.721 81.35 190.844C81.719 191.255 81.686 191.886 81.275 192.256 81.085 192.428 80.845 192.513 80.607 192.513M109.137 166.821C106.714 154.141 97.022 144.058 84.446 141.131L84.899 139.183C98.245 142.289 108.53 152.99 111.102 166.446L109.137 166.821"/>
    <path fill="#48515A" d="M77,207.719 C57.855,207.719 42.28,192.144 42.28,173 C42.28,156.733 53.335,142.821 69.164,139.169 L69.613,141.118 C54.697,144.559 44.28,157.67 44.28,173 C44.28,191.041 58.958,205.719 77,205.719 C91.921,205.719 104.948,195.643 108.679,181.217 L110.616,181.718 C106.656,197.027 92.833,207.719 77,207.719"/>
    <polygon fill="#48515A" points="119.843 82.083 152.843 82.083 152.843 80.083 119.843 80.083"/>
    <polyline fill="#48515A" points="149.707 85.707 148.293 84.293 151.586 81 148.293 77.707 149.707 76.293 154.414 81 149.707 85.707"/>
    <path fill="#48515A" d="M95.84,81.082 C95.84,80.531 96.29,80.082 96.84,80.082 C97.4,80.082 97.84,80.531 97.84,81.082 C97.84,81.632 97.4,82.082 96.84,82.082 C96.29,82.082 95.84,81.632 95.84,81.082 Z M99.84,81.082 C99.84,80.531 100.29,80.082 100.84,80.082 C101.4,80.082 101.84,80.531 101.84,81.082 C101.84,81.632 101.4,82.082 100.84,82.082 C100.29,82.082 99.84,81.632 99.84,81.082 Z M103.84,81.082 C103.84,80.531 104.29,80.082 104.84,80.082 C105.4,80.082 105.84,80.531 105.84,81.082 C105.84,81.632 105.4,82.082 104.84,82.082 C104.29,82.082 103.84,81.632 103.84,81.082 Z M107.84,81.082 C107.84,80.531 108.29,80.082 108.84,80.082 C109.4,80.082 109.84,80.531 109.84,81.082 C109.84,81.632 109.4,82.082 108.84,82.082 C108.29,82.082 107.84,81.632 107.84,81.082 Z M111.84,81.082 C111.84,80.531 112.29,80.082 112.84,80.082 C113.4,80.082 113.84,80.531 113.84,81.082 C113.84,81.632 113.4,82.082 112.84,82.082 C112.29,82.082 111.84,81.632 111.84,81.082 Z M115.84,81.082 C115.84,80.531 116.29,80.082 116.84,80.082 C117.4,80.082 117.84,80.531 117.84,81.082 C117.84,81.632 117.4,82.082 116.84,82.082 C116.29,82.082 115.84,81.632 115.84,81.082 Z"/>
    <polygon fill="#48515A" points="96.843 74.083 129.843 74.083 129.843 72.083 96.843 72.083"/>
    <polyline fill="#48515A" points="100.293 77.707 95.586 73 100.293 68.293 101.707 69.707 98.414 73 101.707 76.293 100.293 77.707"/>
    <path fill="#48515A" d="M131.84,73.082 C131.84,72.531 132.29,72.082 132.84,72.082 C133.4,72.082 133.84,72.531 133.84,73.082 C133.84,73.632 133.4,74.082 132.84,74.082 C132.29,74.082 131.84,73.632 131.84,73.082 Z M135.84,73.082 C135.84,72.531 136.29,72.082 136.84,72.082 C137.39,72.082 137.84,72.531 137.84,73.082 C137.84,73.632 137.39,74.082 136.84,74.082 C136.29,74.082 135.84,73.632 135.84,73.082 Z M139.84,73.082 C139.84,72.531 140.29,72.082 140.84,72.082 C141.39,72.082 141.84,72.531 141.84,73.082 C141.84,73.632 141.39,74.082 140.84,74.082 C140.29,74.082 139.84,73.632 139.84,73.082 Z M143.84,73.082 C143.84,72.531 144.29,72.082 144.84,72.082 C145.4,72.082 145.84,72.531 145.84,73.082 C145.84,73.632 145.4,74.082 144.84,74.082 C144.29,74.082 143.84,73.632 143.84,73.082 Z M147.84,73.082 C147.84,72.531 148.29,72.082 148.84,72.082 C149.4,72.082 149.84,72.531 149.84,73.082 C149.84,73.632 149.4,74.082 148.84,74.082 C148.29,74.082 147.84,73.632 147.84,73.082 Z M151.84,73.082 C151.84,72.531 152.29,72.082 152.84,72.082 C153.4,72.082 153.84,72.531 153.84,73.082 C153.84,73.632 153.4,74.082 152.84,74.082 C152.29,74.082 151.84,73.632 151.84,73.082 Z"/>
    <polygon fill="#48515A" points="119.843 179.083 152.843 179.083 152.843 177.083 119.843 177.083"/>
    <polyline fill="#48515A" points="149.707 182.765 148.293 181.351 151.586 178.058 148.293 174.765 149.707 173.351 154.414 178.058 149.707 182.765"/>
    <path fill="#48515A" d="M95.84,178.082 C95.84,177.531 96.29,177.082 96.84,177.082 C97.4,177.082 97.84,177.531 97.84,178.082 C97.84,178.632 97.4,179.082 96.84,179.082 C96.29,179.082 95.84,178.632 95.84,178.082 Z M99.84,178.082 C99.84,177.531 100.29,177.082 100.84,177.082 C101.4,177.082 101.84,177.531 101.84,178.082 C101.84,178.632 101.4,179.082 100.84,179.082 C100.29,179.082 99.84,178.632 99.84,178.082 Z M103.84,178.082 C103.84,177.531 104.29,177.082 104.84,177.082 C105.4,177.082 105.84,177.531 105.84,178.082 C105.84,178.632 105.4,179.082 104.84,179.082 C104.29,179.082 103.84,178.632 103.84,178.082 Z M107.84,178.082 C107.84,177.531 108.29,177.082 108.84,177.082 C109.4,177.082 109.84,177.531 109.84,178.082 C109.84,178.632 109.4,179.082 108.84,179.082 C108.29,179.082 107.84,178.632 107.84,178.082 Z M111.84,178.082 C111.84,177.531 112.29,177.082 112.84,177.082 C113.4,177.082 113.84,177.531 113.84,178.082 C113.84,178.632 113.4,179.082 112.84,179.082 C112.29,179.082 111.84,178.632 111.84,178.082 Z M115.84,178.082 C115.84,177.531 116.29,177.082 116.84,177.082 C117.4,177.082 117.84,177.531 117.84,178.082 C117.84,178.632 117.4,179.082 116.84,179.082 C116.29,179.082 115.84,178.632 115.84,178.082 Z"/>
    <polygon fill="#48515A" points="96.843 171.083 129.843 171.083 129.843 169.083 96.843 169.083"/>
    <polyline fill="#48515A" points="100.293 174.765 95.586 170.058 100.293 165.351 101.707 166.765 98.414 170.058 101.707 173.351 100.293 174.765"/>
    <path fill="#48515A" d="M131.84,170.082 C131.84,169.531 132.29,169.082 132.84,169.082 C133.4,169.082 133.84,169.531 133.84,170.082 C133.84,170.632 133.4,171.082 132.84,171.082 C132.29,171.082 131.84,170.632 131.84,170.082 Z M135.84,170.082 C135.84,169.531 136.29,169.082 136.84,169.082 C137.39,169.082 137.84,169.531 137.84,170.082 C137.84,170.632 137.39,171.082 136.84,171.082 C136.29,171.082 135.84,170.632 135.84,170.082 Z M139.84,170.082 C139.84,169.531 140.29,169.082 140.84,169.082 C141.39,169.082 141.84,169.531 141.84,170.082 C141.84,170.632 141.39,171.082 140.84,171.082 C140.29,171.082 139.84,170.632 139.84,170.082 Z M143.84,170.082 C143.84,169.531 144.29,169.082 144.84,169.082 C145.4,169.082 145.84,169.531 145.84,170.082 C145.84,170.632 145.4,171.082 144.84,171.082 C144.29,171.082 143.84,170.632 143.84,170.082 Z M147.84,170.082 C147.84,169.531 148.29,169.082 148.84,169.082 C149.4,169.082 149.84,169.531 149.84,170.082 C149.84,170.632 149.4,171.082 148.84,171.082 C148.29,171.082 147.84,170.632 147.84,170.082 Z M151.84,170.082 C151.84,169.531 152.29,169.082 152.84,169.082 C153.4,169.082 153.84,169.531 153.84,170.082 C153.84,170.632 153.4,171.082 152.84,171.082 C152.29,171.082 151.84,170.632 151.84,170.082 Z"/>
    <polygon fill="#48515A" points="79.843 132.086 81.843 132.086 81.843 114.091 79.843 114.091"/>
    <polyline fill="#48515A" points="84.18 119.246 80.887 115.953 77.594 119.246 76.18 117.832 80.887 113.125 85.594 117.832 84.18 119.246"/>
    <path fill="#48515A" d="M79.84,135.082 C79.84,134.531 80.29,134.082 80.84,134.082 C81.4,134.082 81.84,134.531 81.84,135.082 C81.84,135.642 81.4,136.092 80.84,136.092 C80.29,136.092 79.84,135.642 79.84,135.082 Z M79.84,139.082 C79.84,138.531 80.29,138.082 80.84,138.082 C81.4,138.082 81.84,138.531 81.84,139.082 C81.84,139.642 81.4,140.082 80.84,140.082 C80.29,140.082 79.84,139.642 79.84,139.082 Z M79.84,143.082 C79.84,142.531 80.29,142.082 80.84,142.082 C81.4,142.082 81.84,142.531 81.84,143.082 C81.84,143.642 81.4,144.082 80.84,144.082 C80.29,144.082 79.84,143.642 79.84,143.082 Z M79.84,147.082 C79.84,146.531 80.29,146.082 80.84,146.082 C81.4,146.082 81.84,146.531 81.84,147.082 C81.84,147.642 81.4,148.082 80.84,148.082 C80.29,148.082 79.84,147.642 79.84,147.082 Z"/>
    <polygon fill="#48515A" points="71.843 150.083 73.843 150.083 73.843 129.086 71.843 129.086"/>
    <polyline fill="#48515A" points="72.471 151.942 67.764 147.235 69.178 145.821 72.471 149.114 75.764 145.821 77.178 147.235 72.471 151.942"/>
    <path fill="#48515A" d="M71.84,118.092 C71.84,117.531 72.29,117.092 72.84,117.092 C73.4,117.092 73.84,117.531 73.84,118.092 C73.84,118.642 73.4,119.082 72.84,119.082 C72.29,119.082 71.84,118.642 71.84,118.092 Z M71.84,122.092 C71.84,121.531 72.29,121.082 72.84,121.082 C73.4,121.082 73.84,121.531 73.84,122.092 C73.84,122.642 73.4,123.082 72.84,123.082 C72.29,123.082 71.84,122.642 71.84,122.092 Z M71.84,126.082 C71.84,125.531 72.29,125.082 72.84,125.082 C73.4,125.082 73.84,125.531 73.84,126.082 C73.84,126.642 73.4,127.092 72.84,127.092 C72.29,127.092 71.84,126.642 71.84,126.082 Z"/>
    <polygon fill="#48515A" points="176.843 126.083 178.843 126.083 178.843 101.765 176.843 101.765"/>
    <polyline fill="#48515A" points="181.114 106.239 177.821 102.946 174.528 106.239 173.114 104.824 177.821 100.117 182.528 104.824 181.114 106.239"/>
    <path fill="#48515A" d="M176.84,129.082 C176.84,128.531 177.29,128.082 177.84,128.082 C178.4,128.082 178.84,128.531 178.84,129.082 C178.84,129.632 178.4,130.082 177.84,130.082 C177.29,130.082 176.84,129.632 176.84,129.082 Z M176.84,133.082 C176.84,132.531 177.29,132.082 177.84,132.082 C178.4,132.082 178.84,132.531 178.84,133.082 C178.84,133.632 178.4,134.082 177.84,134.082 C177.29,134.082 176.84,133.632 176.84,133.082 Z M176.84,137.082 C176.84,136.531 177.29,136.082 177.84,136.082 C178.4,136.082 178.84,136.531 178.84,137.082 C178.84,137.632 178.4,138.082 177.84,138.082 C177.29,138.082 176.84,137.632 176.84,137.082 Z M176.84,141.082 C176.84,140.531 177.29,140.082 177.84,140.082 C178.4,140.082 178.84,140.531 178.84,141.082 C178.84,141.632 178.4,142.082 177.84,142.082 C177.29,142.082 176.84,141.632 176.84,141.082 Z M176.84,145.082 C176.84,144.531 177.29,144.082 177.84,144.082 C178.4,144.082 178.84,144.531 178.84,145.082 C178.84,145.632 178.4,146.082 177.84,146.082 C177.29,146.082 176.84,145.632 176.84,145.082 Z M176.84,149.082 C176.84,148.531 177.29,148.082 177.84,148.082 C178.4,148.082 178.84,148.531 178.84,149.082 C178.84,149.632 178.4,150.082 177.84,150.082 C177.29,150.082 176.84,149.632 176.84,149.082 Z"/>
    <polygon fill="#48515A" points="168.843 149.083 170.843 149.083 170.843 124.083 168.843 124.083"/>
    <polyline fill="#48515A" points="169.529 150.941 164.822 146.234 166.236 144.82 169.529 148.113 172.822 144.82 174.236 146.234 169.529 150.941"/>
    <path fill="#48515A" d="M168.84,101.082 C168.84,100.531 169.29,100.082 169.84,100.082 C170.4,100.082 170.84,100.531 170.84,101.082 C170.84,101.632 170.4,102.082 169.84,102.082 C169.29,102.082 168.84,101.632 168.84,101.082 Z M168.84,105.082 C168.84,104.531 169.29,104.082 169.84,104.082 C170.4,104.082 170.84,104.531 170.84,105.082 C170.84,105.632 170.4,106.082 169.84,106.082 C169.29,106.082 168.84,105.632 168.84,105.082 Z M168.84,109.082 C168.84,108.531 169.29,108.082 169.84,108.082 C170.4,108.082 170.84,108.531 170.84,109.082 C170.84,109.632 170.4,110.082 169.84,110.082 C169.29,110.082 168.84,109.632 168.84,109.082 Z M168.84,113.082 C168.84,112.531 169.29,112.082 169.84,112.082 C170.4,112.082 170.84,112.531 170.84,113.082 C170.84,113.632 170.4,114.082 169.84,114.082 C169.29,114.082 168.84,113.632 168.84,113.082 Z M168.84,117.082 C168.84,116.531 169.29,116.082 169.84,116.082 C170.4,116.082 170.84,116.531 170.84,117.082 C170.84,117.632 170.4,118.082 169.84,118.082 C169.29,118.082 168.84,117.632 168.84,117.082 Z M168.84,121.082 C168.84,120.531 169.29,120.082 169.84,120.082 C170.4,120.082 170.84,120.531 170.84,121.082 C170.84,121.632 170.4,122.082 169.84,122.082 C169.29,122.082 168.84,121.632 168.84,121.082 Z"/>
    <polyline fill="#48515A" points="118.342 127.552 116.928 126.137 140.263 102.803 141.677 104.217 118.342 127.552"/>
    <polyline fill="#48515A" points="141.843 109.083 139.843 109.083 139.843 104.083 134.843 104.083 134.843 102.083 141.843 102.083 141.843 109.083"/>
    <path fill="#48515A" d="M114.81,129.672 C114.42,129.281 114.42,128.652 114.81,128.261 C115.2,127.872 115.83,127.872 116.22,128.261 C116.61,128.652 116.61,129.281 116.22,129.672 C116.03,129.872 115.77,129.962 115.51,129.962 C115.26,129.962 115,129.872 114.81,129.672 Z M111.98,132.502 C111.59,132.112 111.59,131.472 111.98,131.082 C112.37,130.702 113,130.702 113.39,131.082 C113.78,131.472 113.78,132.112 113.39,132.502 C113.2,132.692 112.94,132.792 112.69,132.792 C112.43,132.792 112.17,132.692 111.98,132.502 Z M109.15,135.332 C108.76,134.942 108.76,134.302 109.15,133.912 C109.54,133.522 110.17,133.522 110.56,133.912 C110.95,134.302 110.95,134.942 110.56,135.332 C110.37,135.522 110.11,135.622 109.86,135.622 C109.6,135.622 109.34,135.522 109.15,135.332 Z M106.32,138.162 C105.93,137.761 105.93,137.132 106.32,136.742 C106.71,136.352 107.35,136.352 107.74,136.742 C108.13,137.132 108.13,137.761 107.74,138.162 C107.54,138.352 107.29,138.452 107.03,138.452 C106.77,138.452 106.52,138.352 106.32,138.162 Z M103.49,140.982 C103.1,140.592 103.1,139.962 103.49,139.572 C103.88,139.182 104.52,139.182 104.91,139.572 C105.3,139.962 105.3,140.592 104.91,140.982 C104.71,141.182 104.46,141.281 104.2,141.281 C103.94,141.281 103.69,141.182 103.49,140.982 Z"/>
    <polyline fill="#48515A" points="107.736 149.471 106.322 148.057 129.657 124.722 131.071 126.136 107.736 149.471"/>
    <polyline fill="#48515A" points="112.843 150.083 105.843 150.083 105.843 143.083 107.843 143.083 107.843 148.083 112.843 148.083 112.843 150.083"/>
    <path fill="#48515A" d="M143.09,112.702 C142.7,112.312 142.7,111.682 143.09,111.281 C143.48,110.902 144.12,110.902 144.51,111.281 C144.9,111.682 144.9,112.312 144.51,112.702 C144.31,112.902 144.05,112.992 143.8,112.992 C143.54,112.992 143.29,112.902 143.09,112.702 Z M140.26,115.531 C139.87,115.142 139.87,114.502 140.26,114.112 C140.65,113.722 141.29,113.722 141.68,114.112 C142.07,114.502 142.07,115.142 141.68,115.531 C141.48,115.722 141.23,115.822 140.97,115.822 C140.71,115.822 140.46,115.722 140.26,115.531 Z M137.43,118.362 C137.04,117.972 137.04,117.332 137.43,116.942 C137.82,116.552 138.46,116.552 138.85,116.942 C139.24,117.332 139.24,117.972 138.85,118.362 C138.65,118.552 138.4,118.652 138.14,118.652 C137.89,118.652 137.63,118.552 137.43,118.362 Z M134.61,121.192 C134.21,120.792 134.21,120.162 134.61,119.772 C135,119.382 135.63,119.382 136.02,119.772 C136.41,120.162 136.41,120.792 136.02,121.192 C135.82,121.382 135.57,121.482 135.31,121.482 C135.06,121.482 134.8,121.382 134.61,121.192 Z M131.78,124.011 C131.39,123.622 131.39,122.992 131.78,122.602 C132.17,122.212 132.8,122.212 133.19,122.602 C133.58,122.992 133.58,123.622 133.19,124.011 C133,124.212 132.74,124.312 132.48,124.312 C132.23,124.312 131.97,124.212 131.78,124.011 Z"/>
    <polygon fill="#48515A" points="55.843 116.083 57.843 116.083 57.843 112.083 55.843 112.083"/>
    <polygon fill="#48515A" points="55.843 126.083 57.843 126.083 57.843 122.083 55.843 122.083"/>
    <polygon fill="#48515A" points="49.843 120.083 53.843 120.083 53.843 118.083 49.843 118.083"/>
    <polygon fill="#48515A" points="59.843 120.083 63.843 120.083 63.843 118.083 59.843 118.083"/>
    <path fill="#48515A" d="M51.884 136C51.333 136 50.884 136.448 50.884 137 50.884 137.551 51.333 138 51.884 138 52.436 138 52.884 137.551 52.884 137 52.884 136.448 52.436 136 51.884 136zM51.884 140C50.23 140 48.884 138.654 48.884 137 48.884 135.345 50.23 134 51.884 134 53.539 134 54.884 135.345 54.884 137 54.884 138.654 53.539 140 51.884 140zM199.884 118C199.333 118 198.884 118.448 198.884 119 198.884 119.551 199.333 120 199.884 120 200.436 120 200.884 119.551 200.884 119 200.884 118.448 200.436 118 199.884 118zM199.884 122C198.23 122 196.884 120.654 196.884 119 196.884 117.345 198.23 116 199.884 116 201.539 116 202.884 117.345 202.884 119 202.884 120.654 201.539 122 199.884 122z"/>
  </g>
</svg>
