<svg xmlns="http://www.w3.org/2000/svg" width="250" height="250" viewBox="0 0 250 250">
  <g fill="none" fill-rule="evenodd">
    <path fill="#F58E70" d="M75.994,96.844 C75.884,97.283 75.732,98.083 75.592,99.083 L78.822,99.083 L78.424,96.844 C78.899,96.844 79.157,96.418 79.157,95.943 L79.157,93.794 L77.121,91.214 L75.157,93.794 L75.157,95.943 C75.157,96.418 75.52,96.844 75.994,96.844"/>
    <path fill="#DFE0E0" d="M70.157,84.771 L70.157,86.649 L76.907,90.302 L83.726,86.757 L84.157,83.32 L84.157,80.422 C84.157,80.179 84.406,79.919 84.633,79.656 C84.555,79.723 84.357,79.791 84.294,79.859 C83.39,80.831 81.957,82.078 81.029,82.871 C80.295,83.498 79.304,84.083 78.339,84.083 L75.549,84.083 C74.584,84.083 73.656,83.498 72.921,82.871 C72.036,82.115 70.747,81.037 69.845,80.106 C69.818,80.078 69.787,79.993 69.757,79.965 C70.028,80.253 70.09,80.516 70.42,80.807 C70.412,80.81 70.157,80.785 70.157,80.794 L70.157,84.771"/>
    <path fill="#48515A" d="M70.157,87.348 C69.604,87.348 69.157,86.901 69.157,86.348 L69.157,81.083 C69.157,80.531 69.604,80.083 70.157,80.083 C70.709,80.083 71.157,80.531 71.157,81.083 L71.157,86.348 C71.157,86.901 70.709,87.348 70.157,87.348"/>
    <path fill="#48515A" d="M83.157,87.083 C82.604,87.083 82.157,86.635 82.157,86.083 L82.157,79.857 L82.63,79.563 C83.492,79.029 83.737,78.582 83.846,78.291 L83.901,78.172 L86.862,72.644 L89.732,71.24 L90.337,68.298 C90.329,68.245 90.309,68.216 90.288,68.195 C90.22,68.125 90.091,68.083 89.942,68.083 L88.229,68.083 L88.353,66.972 C88.477,65.863 88.705,65.088 88.888,64.465 C89.044,63.933 89.157,63.548 89.157,63.138 L89.157,62.656 C89.157,61.079 88.443,59.544 87.754,58.06 L87.47,57.484 C86.719,55.971 85.589,54.592 84.201,53.498 C82.182,51.906 79.629,51.02 77.013,51.002 C73.944,50.996 71.004,52.206 68.743,54.453 C66.464,56.716 65.157,59.807 65.157,62.932 L65.157,63.138 C65.157,63.629 65.239,64.062 65.354,64.66 C65.466,65.246 65.605,65.976 65.703,66.987 L65.81,68.083 L64.187,68.083 C64.094,68.083 63.819,68.101 63.754,68.312 L64.614,71.222 L67.16,72.719 L69.787,78.334 C70.125,79.232 71.806,80.634 72.918,81.562 L73.571,82.111 C74.316,82.747 75.001,83.083 75.549,83.083 L78.157,83.083 C78.709,83.083 79.157,83.531 79.157,84.083 C79.157,84.635 78.709,85.083 78.157,85.083 L75.549,85.083 C74.503,85.083 73.4,84.595 72.272,83.632 L71.637,83.098 C69.823,81.585 68.4,80.33 67.944,79.107 L65.611,74.129 L62.92,72.545 L61.74,68.41 C61.74,67.283 62.5,66.39 63.585,66.148 C63.521,65.727 63.453,65.368 63.389,65.036 C63.265,64.383 63.157,63.818 63.157,63.138 L63.157,62.932 C63.157,59.278 64.679,55.67 67.333,53.033 C69.953,50.431 73.36,49.002 76.935,49.002 C76.965,49.002 76.996,49.002 77.026,49.002 C80.085,49.023 83.073,50.062 85.439,51.928 C87.059,53.204 88.38,54.819 89.262,56.596 L89.567,57.217 C90.312,58.82 91.157,60.637 91.157,62.558 L91.157,63.138 C91.157,63.836 90.987,64.415 90.807,65.028 C90.709,65.361 90.604,65.719 90.512,66.142 C90.981,66.243 91.398,66.468 91.722,66.801 C92.137,67.228 92.356,67.801 92.339,68.415 L92.319,68.588 L91.494,72.604 L88.32,74.157 L85.692,79.062 C85.408,79.775 84.903,80.395 84.157,80.944 L84.157,86.083 C84.157,86.635 83.709,87.083 83.157,87.083"/>
    <polyline fill="#48515A" points="49.099 96.403 48.436 94.516 65.829 88.405 68.251 84.083 70.157 84.083 70.157 86.083 69.422 86.083 67.205 90.042 49.099 96.403"/>
    <path fill="#48515A" d="M77.262,91.502 L70.168,87.529 C69.686,87.259 69.514,86.65 69.784,86.168 C70.054,85.687 70.663,85.515 71.145,85.784 L77.262,89.21 L83.128,85.925 C83.611,85.656 84.219,85.826 84.489,86.308 C84.759,86.79 84.587,87.4 84.105,87.67 L77.262,91.502"/>
    <polyline fill="#48515A" points="105.602 95.666 87.324 90.108 84.774 86.083 83.625 86.083 83.625 84.083 85.875 84.083 88.616 88.411 106.184 93.753 105.602 95.666"/>
    <path fill="#48515A" d="M73.393,96.513 C73.155,96.513 72.915,96.428 72.725,96.256 C72.314,95.887 72.281,95.255 72.65,94.844 L77.262,89.721 L81.873,94.844 C82.242,95.255 82.209,95.887 81.798,96.256 C81.388,96.626 80.755,96.592 80.386,96.182 L77.262,92.71 L74.137,96.182 C73.939,96.401 73.667,96.513 73.393,96.513"/>
    <path fill="#48515A" d="M85.114,110.766 L84.648,108.821 C99.41,105.286 109.72,92.201 109.72,77 C109.72,58.958 95.041,44.28 77,44.28 C58.958,44.28 44.28,58.958 44.28,77 C44.28,91.747 54.21,104.736 68.426,108.585 L67.904,110.515 C52.817,106.43 42.28,92.649 42.28,77 C42.28,57.856 57.855,42.28 77,42.28 C96.145,42.28 111.72,57.856 111.72,77 C111.72,93.13 100.779,107.015 85.114,110.766"/>
    <path fill="#F58E70" d="M171.994,96.844 C171.885,97.283 171.732,98.083 171.592,99.083 L174.931,99.083 C174.791,98.083 174.534,97.283 174.424,96.844 C174.899,96.844 175.157,96.418 175.157,95.943 L175.157,93.794 L173.121,91.214 L171.157,93.794 L171.157,95.943 C171.157,96.418 171.52,96.844 171.994,96.844"/>
    <path fill="#DFE0E0" d="M166.157,84.771 L166.157,86.649 L172.907,90.302 L179.726,86.757 L180.157,83.32 L180.157,80.422 C180.157,80.179 180.406,79.919 180.633,79.656 C180.555,79.723 180.357,79.791 180.293,79.859 C179.39,80.831 177.957,82.078 177.029,82.871 C176.295,83.498 175.304,84.083 174.339,84.083 L171.549,84.083 C170.584,84.083 169.656,83.498 168.922,82.871 C168.036,82.115 166.747,81.037 165.845,80.106 C165.818,80.078 165.787,79.993 165.757,79.965 C166.028,80.253 166.09,80.516 166.419,80.807 C166.412,80.81 166.157,80.785 166.157,80.794 L166.157,84.771"/>
    <path fill="#48515A" d="M166.157,87.348 C165.604,87.348 165.157,86.901 165.157,86.348 L165.157,81.083 C165.157,80.531 165.604,80.083 166.157,80.083 C166.709,80.083 167.157,80.531 167.157,81.083 L167.157,86.348 C167.157,86.901 166.709,87.348 166.157,87.348"/>
    <path fill="#48515A" d="M179.157,87.083 C178.604,87.083 178.157,86.635 178.157,86.083 L178.157,79.857 L178.63,79.563 C179.492,79.029 179.737,78.582 179.846,78.291 L179.901,78.172 L182.862,72.644 L185.732,71.24 L186.337,68.298 C186.329,68.245 186.309,68.216 186.288,68.195 C186.22,68.125 186.091,68.083 185.942,68.083 L184.229,68.083 L184.353,66.972 C184.477,65.863 184.705,65.088 184.888,64.465 C185.044,63.933 185.157,63.548 185.157,63.138 L185.157,62.656 C185.157,61.364 184.842,60.047 184.172,58.481 L183.943,58.481 L183.677,57.892 C183.645,57.82 183.606,57.748 183.568,57.676 L183.47,57.484 C182.719,55.971 181.589,54.592 180.201,53.498 C178.182,51.906 175.629,51.02 173.013,51.002 C169.962,50.996 167.004,52.206 164.743,54.453 C162.464,56.716 161.157,59.807 161.157,62.932 L161.157,63.138 C161.157,63.629 161.239,64.062 161.354,64.66 C161.466,65.246 161.605,65.976 161.703,66.987 L161.81,68.083 L160.187,68.083 C160.094,68.083 159.819,68.101 159.754,68.312 L160.614,71.222 L163.16,72.719 L165.787,78.334 C166.125,79.232 167.806,80.634 168.918,81.562 L169.571,82.111 C170.316,82.747 171,83.083 171.549,83.083 L174.157,83.083 C174.709,83.083 175.157,83.531 175.157,84.083 C175.157,84.635 174.709,85.083 174.157,85.083 L171.549,85.083 C170.503,85.083 169.4,84.595 168.272,83.632 L167.637,83.098 C165.823,81.585 164.4,80.33 163.944,79.107 L161.611,74.129 L158.92,72.545 L157.74,68.41 C157.74,67.283 158.5,66.39 159.585,66.148 C159.521,65.727 159.453,65.368 159.389,65.036 C159.265,64.383 159.157,63.818 159.157,63.138 L159.157,62.932 C159.157,59.278 160.679,55.67 163.333,53.033 C165.976,50.409 169.442,49.014 173.026,49.002 C176.085,49.023 179.073,50.062 181.439,51.928 C183.023,53.176 184.323,54.749 185.204,56.481 L185.459,56.481 L185.728,57.06 C186.703,59.159 187.157,60.906 187.157,62.558 L187.157,63.138 C187.157,63.836 186.987,64.415 186.807,65.028 C186.709,65.361 186.604,65.719 186.512,66.142 C186.981,66.243 187.398,66.468 187.722,66.801 C188.137,67.228 188.356,67.801 188.339,68.415 L188.319,68.588 L187.494,72.604 L184.32,74.157 L181.692,79.062 C181.408,79.775 180.903,80.395 180.157,80.944 L180.157,86.083 C180.157,86.635 179.709,87.083 179.157,87.083"/>
    <polyline fill="#48515A" points="145.099 96.403 144.436 94.516 161.829 88.405 164.25 84.083 166.157 84.083 166.157 86.083 165.422 86.083 163.205 90.042 145.099 96.403"/>
    <path fill="#48515A" d="M173.262,91.502 L166.167,87.529 C165.686,87.259 165.514,86.65 165.784,86.168 C166.053,85.687 166.664,85.515 167.145,85.784 L173.262,89.21 L179.128,85.925 C179.61,85.656 180.22,85.826 180.489,86.308 C180.759,86.79 180.587,87.4 180.105,87.67 L173.262,91.502"/>
    <polyline fill="#48515A" points="201.602 95.666 183.324 90.108 180.774 86.083 180.157 86.083 180.157 84.083 181.875 84.083 184.616 88.411 202.184 93.753 201.602 95.666"/>
    <path fill="#48515A" d="M169.393,96.513 C169.155,96.513 168.916,96.428 168.725,96.256 C168.314,95.887 168.281,95.255 168.65,94.844 L173.262,89.721 L177.873,94.844 C178.242,95.255 178.209,95.887 177.798,96.256 C177.388,96.626 176.755,96.592 176.386,96.182 L173.262,92.71 L170.137,96.182 C169.939,96.401 169.667,96.513 169.393,96.513"/>
    <path fill="#48515A" d="M165.553,110.919 C149.75,107.465 138.28,93.199 138.28,77 C138.28,57.856 153.855,42.28 173,42.28 C192.145,42.28 207.72,57.856 207.72,77 C207.72,93.28 196.654,107.195 180.811,110.837 L180.362,108.888 C195.292,105.456 205.72,92.343 205.72,77 C205.72,58.958 191.042,44.28 173,44.28 C154.958,44.28 140.28,58.958 140.28,77 C140.28,92.267 151.088,105.71 165.98,108.965 L165.553,110.919"/>
    <path fill="#F58E70" d="M80.27,207.083 C80.27,207.083 79.124,195.276 78.551,192.984 L78.551,192.893 L78.424,192.848 C78.899,192.848 79.157,192.418 79.157,191.943 L79.157,189.794 L77.121,187.214 L75.157,189.794 L75.157,191.943 C75.157,192.418 75.52,192.803 75.994,192.802 L75.983,192.802 L75.978,192.984 C75.405,195.276 74.253,207.083 74.253,207.083 L80.27,207.083"/>
    <path fill="#DFE0E0" d="M70.157,180.771 L70.157,182.649 L76.907,186.302 L83.726,182.757 L84.157,179.319 L84.157,176.422 C84.157,176.179 84.406,175.919 84.633,175.656 C84.555,175.723 84.357,175.791 84.294,175.859 C83.39,176.831 81.957,178.078 81.029,178.871 C80.295,179.498 79.304,180.083 78.339,180.083 L75.549,180.083 C74.584,180.083 73.656,179.498 72.921,178.871 C72.036,178.115 70.747,177.037 69.845,176.106 C69.818,176.078 69.787,175.993 69.757,175.965 C70.028,176.253 70.09,176.516 70.42,176.807 C70.412,176.81 70.157,176.785 70.157,176.794 L70.157,180.771"/>
    <path fill="#48515A" d="M70.157 183.182C69.604 183.182 69.157 182.734 69.157 182.182L69.157 177.083C69.157 176.531 69.604 176.083 70.157 176.083 70.709 176.083 71.157 176.531 71.157 177.083L71.157 182.182C71.157 182.734 70.709 183.182 70.157 183.182M83.157 183.083C82.604 183.083 82.157 182.635 82.157 182.083L82.157 175.857 82.63 175.563C83.492 175.029 83.737 174.582 83.846 174.291L83.901 174.172 86.862 168.644 89.732 167.24 90.337 164.298C90.329 164.245 90.309 164.216 90.288 164.195 90.22 164.125 90.091 164.083 89.942 164.083L88.229 164.083 88.353 162.972C88.477 161.864 88.705 161.088 88.888 160.465 89.044 159.933 89.157 159.548 89.157 159.138L89.157 158.656C89.157 157.21 88.763 155.733 87.917 153.91 87.912 153.906 87.676 153.49 87.604 153.344 87.161 152.45 86.516 151.598 85.632 150.74 85.236 150.354 85.227 149.721 85.611 149.325 85.996 148.928 86.629 148.921 87.025 149.305 88.075 150.325 88.85 151.356 89.396 152.456 89.461 152.589 89.687 152.982 89.689 152.985 90.703 155.159 91.157 156.906 91.157 158.558L91.157 159.138C91.157 159.836 90.987 160.415 90.807 161.028 90.709 161.361 90.604 161.719 90.512 162.142 90.981 162.243 91.398 162.468 91.722 162.801 92.137 163.228 92.356 163.802 92.339 164.415L92.319 164.588 91.494 168.604 88.32 170.157 85.692 175.062C85.408 175.775 84.903 176.395 84.157 176.944L84.157 182.083C84.157 182.635 83.709 183.083 83.157 183.083"/>
    <path fill="#48515A" d="M78.157,181.083 L75.549,181.083 C74.503,181.083 73.4,180.595 72.272,179.632 L71.637,179.098 C69.823,177.585 68.4,176.33 67.944,175.107 L65.611,170.129 L62.92,168.545 L61.74,164.41 C61.74,163.282 62.5,162.39 63.585,162.148 C63.521,161.727 63.453,161.368 63.389,161.036 C63.265,160.383 63.157,159.818 63.157,159.138 L63.157,158.932 C63.157,154.982 64.89,151.176 67.911,148.49 C68.324,148.123 68.956,148.161 69.323,148.573 C69.689,148.987 69.652,149.618 69.24,149.986 C66.645,152.292 65.157,155.552 65.157,158.932 L65.157,159.138 C65.157,159.629 65.239,160.062 65.354,160.66 C65.466,161.246 65.605,161.976 65.703,162.987 L65.81,164.083 L64.187,164.083 C64.094,164.083 63.819,164.101 63.754,164.312 L64.614,167.222 L67.16,168.719 L69.787,174.334 C70.125,175.232 71.806,176.634 72.918,177.562 L73.571,178.111 C74.316,178.747 75.001,179.083 75.549,179.083 L78.157,179.083 C78.709,179.083 79.157,179.531 79.157,180.083 C79.157,180.635 78.709,181.083 78.157,181.083"/>
    <polyline fill="#48515A" points="49.099 192.403 48.436 190.516 65.829 184.406 68.251 180.083 70.157 180.083 70.157 182.083 69.422 182.083 67.205 186.042 49.099 192.403"/>
    <path fill="#48515A" d="M77.262,187.502 L70.168,183.53 C69.686,183.26 69.514,182.65 69.784,182.168 C70.054,181.687 70.663,181.516 71.145,181.784 L77.262,185.21 L83.128,181.925 C83.611,181.656 84.219,181.827 84.489,182.308 C84.759,182.79 84.587,183.4 84.105,183.67 L77.262,187.502"/>
    <polyline fill="#48515A" points="105.602 191.666 87.324 186.108 84.774 182.083 84.157 182.083 84.157 180.083 85.875 180.083 88.616 184.411 106.184 189.753 105.602 191.666"/>
    <path fill="#48515A" d="M73.393 192.513C73.155 192.513 72.915 192.428 72.725 192.256 72.314 191.886 72.281 191.255 72.65 190.844L77.262 185.721 81.873 190.844C82.242 191.255 82.209 191.887 81.798 192.256 81.388 192.626 80.755 192.592 80.386 192.182L77.262 188.71 74.137 192.182C73.939 192.401 73.667 192.513 73.393 192.513M109.13 166.786C106.638 153.818 96.253 143.408 83.29 140.884L83.672 138.921C97.429 141.6 108.449 152.646 111.094 166.408L109.13 166.786"/>
    <path fill="#48515A" d="M77,207.719 C57.855,207.719 42.28,192.144 42.28,173 C42.28,157.029 53.089,143.176 68.564,139.313 L69.049,141.253 C54.465,144.893 44.28,157.948 44.28,173 C44.28,191.041 58.958,205.719 77,205.719 C91.844,205.719 104.854,195.709 108.638,181.375 L110.572,181.885 C106.556,197.096 92.751,207.719 77,207.719"/>
    <path fill="#F58E70" d="M176.27,207.083 C176.27,207.083 175.124,195.276 174.551,192.984 L174.551,192.893 L174.424,192.848 C174.899,192.848 175.157,192.418 175.157,191.943 L175.157,189.794 L173.121,187.214 L171.157,189.794 L171.157,191.943 C171.157,192.418 171.52,192.803 171.994,192.802 L171.983,192.802 L171.978,192.984 C171.405,195.276 170.253,207.083 170.253,207.083 L176.27,207.083"/>
    <path fill="#DFE0E0" d="M166.157,180.771 L166.157,182.649 L172.907,186.302 L179.726,182.757 L180.157,179.319 L180.157,176.422 C180.157,176.179 180.406,175.919 180.633,175.656 C180.555,175.723 180.357,175.791 180.293,175.859 C179.39,176.831 177.957,178.078 177.029,178.871 C176.295,179.498 175.304,180.083 174.339,180.083 L171.549,180.083 C170.584,180.083 169.656,179.498 168.922,178.871 C168.036,178.115 166.747,177.037 165.845,176.106 C165.818,176.078 165.787,175.993 165.757,175.965 C166.028,176.253 166.09,176.516 166.419,176.807 C166.412,176.81 166.157,176.785 166.157,176.794 L166.157,180.771"/>
    <path fill="#48515A" d="M166.157 183.015C165.604 183.015 165.157 182.568 165.157 182.015L165.157 177.083C165.157 176.531 165.604 176.083 166.157 176.083 166.709 176.083 167.157 176.531 167.157 177.083L167.157 182.015C167.157 182.568 166.709 183.015 166.157 183.015M187.339 164.387L187.349 164.387 187.339 164.387zM179.157 183.083C178.604 183.083 178.157 182.635 178.157 182.083L178.157 175.857 178.63 175.563C179.492 175.029 179.737 174.582 179.846 174.291L179.901 174.172 182.862 168.644 185.732 167.24 186.337 164.298C186.329 164.245 186.309 164.216 186.288 164.195 186.22 164.125 186.091 164.083 185.942 164.083L184.229 164.083 184.353 162.972C184.477 161.864 184.705 161.088 184.888 160.465 185.044 159.933 185.157 159.548 185.157 159.138L185.157 158.656C185.157 157.208 184.762 155.728 183.914 153.903 183.681 153.402 183.899 152.807 184.399 152.574 184.901 152.342 185.495 152.559 185.728 153.06 186.703 155.159 187.157 156.906 187.157 158.558L187.157 159.138C187.157 159.836 186.987 160.415 186.807 161.028 186.709 161.361 186.604 161.719 186.512 162.142 186.981 162.243 187.398 162.468 187.722 162.801 188.137 163.228 188.356 163.802 188.339 164.415L188.319 164.588 187.494 168.604 184.32 170.157 181.692 175.062C181.408 175.775 180.903 176.395 180.157 176.944L180.157 182.083C180.157 182.635 179.709 183.083 179.157 183.083z"/>
    <path fill="#48515A" d="M174.157,181.083 L171.549,181.083 C170.503,181.083 169.4,180.595 168.272,179.632 L167.637,179.098 C165.823,177.585 164.4,176.33 163.944,175.107 L161.611,170.129 L158.92,168.545 L157.74,164.41 C157.74,163.282 158.5,162.39 159.585,162.148 C159.521,161.727 159.453,161.368 159.389,161.036 C159.265,160.383 159.157,159.818 159.157,159.138 L159.157,158.932 C159.157,154.448 161.383,150.188 165.112,147.534 C165.563,147.214 166.187,147.32 166.506,147.77 C166.826,148.219 166.721,148.844 166.271,149.164 C163.069,151.443 161.157,155.094 161.157,158.932 L161.157,159.138 C161.157,159.629 161.239,160.062 161.354,160.66 C161.466,161.246 161.605,161.976 161.703,162.987 L161.81,164.083 L160.187,164.083 C160.094,164.083 159.819,164.101 159.754,164.312 L160.614,167.222 L163.16,168.719 L165.787,174.334 C166.125,175.232 167.806,176.634 168.918,177.562 L169.571,178.111 C170.316,178.747 171,179.083 171.549,179.083 L174.157,179.083 C174.709,179.083 175.157,179.531 175.157,180.083 C175.157,180.635 174.709,181.083 174.157,181.083"/>
    <polyline fill="#48515A" points="145.099 192.403 144.436 190.516 161.829 184.406 164.25 180.083 166.157 180.083 166.157 182.083 165.422 182.083 163.205 186.042 145.099 192.403"/>
    <path fill="#48515A" d="M173.262,187.502 L166.167,183.53 C165.686,183.26 165.514,182.65 165.784,182.168 C166.053,181.687 166.664,181.516 167.145,181.784 L173.262,185.21 L179.128,181.925 C179.61,181.656 180.22,181.827 180.489,182.308 C180.759,182.79 180.587,183.4 180.105,183.67 L173.262,187.502"/>
    <polyline fill="#48515A" points="201.602 191.666 183.324 186.108 180.774 182.083 180.157 182.083 180.157 180.083 181.875 180.083 184.616 184.411 202.184 189.753 201.602 191.666"/>
    <path fill="#48515A" d="M169.393 192.513C169.155 192.513 168.916 192.428 168.725 192.256 168.314 191.886 168.281 191.255 168.65 190.844L173.262 185.721 177.873 190.844C178.242 191.255 178.209 191.887 177.798 192.256 177.388 192.626 176.755 192.592 176.386 192.182L173.262 188.71 170.137 192.182C169.939 192.401 169.667 192.513 169.393 192.513M140.863 166.821L138.898 166.446C141.47 152.99 151.755 142.289 165.101 139.183L165.554 141.131C152.978 144.058 143.286 154.141 140.863 166.821"/>
    <path fill="#48515A" d="M173,207.719 C157.167,207.719 143.344,197.027 139.384,181.718 L141.321,181.217 C145.052,195.643 158.079,205.719 173,205.719 C191.042,205.719 205.72,191.041 205.72,173 C205.72,157.67 195.303,144.559 180.387,141.118 L180.836,139.169 C196.665,142.821 207.72,156.733 207.72,173 C207.72,192.144 192.145,207.719 173,207.719"/>
    <polygon fill="#48515A" points="97.157 82.083 130.157 82.083 130.157 80.083 97.157 80.083"/>
    <polyline fill="#48515A" points="100.293 85.707 95.586 81 100.293 76.293 101.707 77.707 98.414 81 101.707 84.293 100.293 85.707"/>
    <path fill="#48515A" d="M132.16,81.082 C132.16,80.531 132.6,80.082 133.16,80.082 C133.71,80.082 134.16,80.531 134.16,81.082 C134.16,81.632 133.71,82.082 133.16,82.082 C132.6,82.082 132.16,81.632 132.16,81.082 Z M136.16,81.082 C136.16,80.531 136.6,80.082 137.16,80.082 C137.71,80.082 138.16,80.531 138.16,81.082 C138.16,81.632 137.71,82.082 137.16,82.082 C136.6,82.082 136.16,81.632 136.16,81.082 Z M140.16,81.082 C140.16,80.531 140.6,80.082 141.16,80.082 C141.71,80.082 142.16,80.531 142.16,81.082 C142.16,81.632 141.71,82.082 141.16,82.082 C140.6,82.082 140.16,81.632 140.16,81.082 Z M144.16,81.082 C144.16,80.531 144.6,80.082 145.16,80.082 C145.71,80.082 146.16,80.531 146.16,81.082 C146.16,81.632 145.71,82.082 145.16,82.082 C144.6,82.082 144.16,81.632 144.16,81.082 Z M148.16,81.082 C148.16,80.531 148.6,80.082 149.16,80.082 C149.71,80.082 150.16,80.531 150.16,81.082 C150.16,81.632 149.71,82.082 149.16,82.082 C148.6,82.082 148.16,81.632 148.16,81.082 Z M152.16,81.082 C152.16,80.531 152.6,80.082 153.16,80.082 C153.71,80.082 154.16,80.531 154.16,81.082 C154.16,81.632 153.71,82.082 153.16,82.082 C152.6,82.082 152.16,81.632 152.16,81.082 Z"/>
    <polygon fill="#48515A" points="120.157 74.083 153.157 74.083 153.157 72.083 120.157 72.083"/>
    <polyline fill="#48515A" points="149.707 77.707 148.293 76.293 151.586 73 148.293 69.707 149.707 68.293 154.414 73 149.707 77.707"/>
    <path fill="#48515A" d="M96.16,73.082 C96.16,72.531 96.6,72.082 97.16,72.082 C97.71,72.082 98.16,72.531 98.16,73.082 C98.16,73.632 97.71,74.082 97.16,74.082 C96.6,74.082 96.16,73.632 96.16,73.082 Z M100.16,73.082 C100.16,72.531 100.6,72.082 101.16,72.082 C101.71,72.082 102.16,72.531 102.16,73.082 C102.16,73.632 101.71,74.082 101.16,74.082 C100.6,74.082 100.16,73.632 100.16,73.082 Z M104.16,73.082 C104.16,72.531 104.6,72.082 105.16,72.082 C105.71,72.082 106.16,72.531 106.16,73.082 C106.16,73.632 105.71,74.082 105.16,74.082 C104.6,74.082 104.16,73.632 104.16,73.082 Z M108.16,73.082 C108.16,72.531 108.6,72.082 109.16,72.082 C109.71,72.082 110.16,72.531 110.16,73.082 C110.16,73.632 109.71,74.082 109.16,74.082 C108.6,74.082 108.16,73.632 108.16,73.082 Z M112.16,73.082 C112.16,72.531 112.6,72.082 113.16,72.082 C113.71,72.082 114.16,72.531 114.16,73.082 C114.16,73.632 113.71,74.082 113.16,74.082 C112.6,74.082 112.16,73.632 112.16,73.082 Z M116.16,73.082 C116.16,72.531 116.6,72.082 117.16,72.082 C117.71,72.082 118.16,72.531 118.16,73.082 C118.16,73.632 117.71,74.082 117.16,74.082 C116.6,74.082 116.16,73.632 116.16,73.082 Z"/>
    <polygon fill="#48515A" points="97.157 179.083 130.157 179.083 130.157 177.083 97.157 177.083"/>
    <polyline fill="#48515A" points="100.293 182.765 95.586 178.058 100.293 173.351 101.707 174.765 98.414 178.058 101.707 181.351 100.293 182.765"/>
    <path fill="#48515A" d="M132.16,178.082 C132.16,177.531 132.6,177.082 133.16,177.082 C133.71,177.082 134.16,177.531 134.16,178.082 C134.16,178.632 133.71,179.082 133.16,179.082 C132.6,179.082 132.16,178.632 132.16,178.082 Z M136.16,178.082 C136.16,177.531 136.6,177.082 137.16,177.082 C137.71,177.082 138.16,177.531 138.16,178.082 C138.16,178.632 137.71,179.082 137.16,179.082 C136.6,179.082 136.16,178.632 136.16,178.082 Z M140.16,178.082 C140.16,177.531 140.6,177.082 141.16,177.082 C141.71,177.082 142.16,177.531 142.16,178.082 C142.16,178.632 141.71,179.082 141.16,179.082 C140.6,179.082 140.16,178.632 140.16,178.082 Z M144.16,178.082 C144.16,177.531 144.6,177.082 145.16,177.082 C145.71,177.082 146.16,177.531 146.16,178.082 C146.16,178.632 145.71,179.082 145.16,179.082 C144.6,179.082 144.16,178.632 144.16,178.082 Z M148.16,178.082 C148.16,177.531 148.6,177.082 149.16,177.082 C149.71,177.082 150.16,177.531 150.16,178.082 C150.16,178.632 149.71,179.082 149.16,179.082 C148.6,179.082 148.16,178.632 148.16,178.082 Z M152.16,178.082 C152.16,177.531 152.6,177.082 153.16,177.082 C153.71,177.082 154.16,177.531 154.16,178.082 C154.16,178.632 153.71,179.082 153.16,179.082 C152.6,179.082 152.16,178.632 152.16,178.082 Z"/>
    <polygon fill="#48515A" points="120.157 171.083 153.157 171.083 153.157 169.083 120.157 169.083"/>
    <polyline fill="#48515A" points="149.707 174.765 148.293 173.351 151.586 170.058 148.293 166.765 149.707 165.351 154.414 170.058 149.707 174.765"/>
    <path fill="#48515A" d="M96.16,170.082 C96.16,169.531 96.6,169.082 97.16,169.082 C97.71,169.082 98.16,169.531 98.16,170.082 C98.16,170.632 97.71,171.082 97.16,171.082 C96.6,171.082 96.16,170.632 96.16,170.082 Z M100.16,170.082 C100.16,169.531 100.6,169.082 101.16,169.082 C101.71,169.082 102.16,169.531 102.16,170.082 C102.16,170.632 101.71,171.082 101.16,171.082 C100.6,171.082 100.16,170.632 100.16,170.082 Z M104.16,170.082 C104.16,169.531 104.6,169.082 105.16,169.082 C105.71,169.082 106.16,169.531 106.16,170.082 C106.16,170.632 105.71,171.082 105.16,171.082 C104.6,171.082 104.16,170.632 104.16,170.082 Z M108.16,170.082 C108.16,169.531 108.6,169.082 109.16,169.082 C109.71,169.082 110.16,169.531 110.16,170.082 C110.16,170.632 109.71,171.082 109.16,171.082 C108.6,171.082 108.16,170.632 108.16,170.082 Z M112.16,170.082 C112.16,169.531 112.6,169.082 113.16,169.082 C113.71,169.082 114.16,169.531 114.16,170.082 C114.16,170.632 113.71,171.082 113.16,171.082 C112.6,171.082 112.16,170.632 112.16,170.082 Z M116.16,170.082 C116.16,169.531 116.6,169.082 117.16,169.082 C117.71,169.082 118.16,169.531 118.16,170.082 C118.16,170.632 117.71,171.082 117.16,171.082 C116.6,171.082 116.16,170.632 116.16,170.082 Z"/>
    <polygon fill="#48515A" points="168.157 127.083 170.157 127.083 170.157 101.083 168.157 101.083"/>
    <polyline fill="#48515A" points="172.822 106.239 169.529 102.946 166.236 106.239 164.822 104.824 169.529 100.117 174.236 104.824 172.822 106.239"/>
    <path fill="#48515A" d="M168.16,130.082 C168.16,129.531 168.6,129.082 169.16,129.082 C169.71,129.082 170.16,129.531 170.16,130.082 C170.16,130.632 169.71,131.082 169.16,131.082 C168.6,131.082 168.16,130.632 168.16,130.082 Z M168.16,134.082 C168.16,133.531 168.6,133.082 169.16,133.082 C169.71,133.082 170.16,133.531 170.16,134.082 C170.16,134.632 169.71,135.082 169.16,135.082 C168.6,135.082 168.16,134.632 168.16,134.082 Z M168.16,138.082 C168.16,137.531 168.6,137.082 169.16,137.082 C169.71,137.082 170.16,137.531 170.16,138.082 C170.16,138.632 169.71,139.082 169.16,139.082 C168.6,139.082 168.16,138.632 168.16,138.082 Z M168.16,142.082 C168.16,141.531 168.6,141.082 169.16,141.082 C169.71,141.082 170.16,141.531 170.16,142.082 C170.16,142.632 169.71,143.082 169.16,143.082 C168.6,143.082 168.16,142.632 168.16,142.082 Z M168.16,146.082 C168.16,145.531 168.6,145.082 169.16,145.082 C169.71,145.082 170.16,145.531 170.16,146.082 C170.16,146.632 169.71,147.082 169.16,147.082 C168.6,147.082 168.16,146.632 168.16,146.082 Z M168.16,150.082 C168.16,149.531 168.6,149.082 169.16,149.082 C169.71,149.082 170.16,149.531 170.16,150.082 C170.16,150.632 169.71,151.082 169.16,151.082 C168.6,151.082 168.16,150.632 168.16,150.082 Z"/>
    <polygon fill="#48515A" points="176.157 150.083 178.157 150.083 178.157 124.083 176.157 124.083"/>
    <polyline fill="#48515A" points="177.529 151.942 172.822 147.235 174.236 145.821 177.529 149.114 180.822 145.821 182.236 147.235 177.529 151.942"/>
    <path fill="#48515A" d="M176.16,101.082 C176.16,100.531 176.6,100.082 177.16,100.082 C177.71,100.082 178.16,100.531 178.16,101.082 C178.16,101.632 177.71,102.082 177.16,102.082 C176.6,102.082 176.16,101.632 176.16,101.082 Z M176.16,105.082 C176.16,104.531 176.6,104.082 177.16,104.082 C177.71,104.082 178.16,104.531 178.16,105.082 C178.16,105.632 177.71,106.082 177.16,106.082 C176.6,106.082 176.16,105.632 176.16,105.082 Z M176.16,109.082 C176.16,108.531 176.6,108.082 177.16,108.082 C177.71,108.082 178.16,108.531 178.16,109.082 C178.16,109.632 177.71,110.082 177.16,110.082 C176.6,110.082 176.16,109.632 176.16,109.082 Z M176.16,113.082 C176.16,112.531 176.6,112.082 177.16,112.082 C177.71,112.082 178.16,112.531 178.16,113.082 C178.16,113.632 177.71,114.082 177.16,114.082 C176.6,114.082 176.16,113.632 176.16,113.082 Z M176.16,117.082 C176.16,116.531 176.6,116.082 177.16,116.082 C177.71,116.082 178.16,116.531 178.16,117.082 C178.16,117.632 177.71,118.082 177.16,118.082 C176.6,118.082 176.16,117.632 176.16,117.082 Z M176.16,121.082 C176.16,120.531 176.6,120.082 177.16,120.082 C177.71,120.082 178.16,120.531 178.16,121.082 C178.16,121.632 177.71,122.082 177.16,122.082 C176.6,122.082 176.16,121.632 176.16,121.082 Z"/>
    <polygon fill="#48515A" points="71.157 126.083 73.157 126.083 73.157 101.765 71.157 101.765"/>
    <polyline fill="#48515A" points="75.472 106.239 72.179 102.946 68.886 106.239 67.472 104.824 72.179 100.117 76.886 104.824 75.472 106.239"/>
    <path fill="#48515A" d="M71.16,129.082 C71.16,128.531 71.6,128.082 72.16,128.082 C72.71,128.082 73.16,128.531 73.16,129.082 C73.16,129.632 72.71,130.082 72.16,130.082 C71.6,130.082 71.16,129.632 71.16,129.082 Z M71.16,133.082 C71.16,132.531 71.6,132.082 72.16,132.082 C72.71,132.082 73.16,132.531 73.16,133.082 C73.16,133.632 72.71,134.082 72.16,134.082 C71.6,134.082 71.16,133.632 71.16,133.082 Z M71.16,137.082 C71.16,136.531 71.6,136.082 72.16,136.082 C72.71,136.082 73.16,136.531 73.16,137.082 C73.16,137.632 72.71,138.082 72.16,138.082 C71.6,138.082 71.16,137.632 71.16,137.082 Z M71.16,141.082 C71.16,140.531 71.6,140.082 72.16,140.082 C72.71,140.082 73.16,140.531 73.16,141.082 C73.16,141.632 72.71,142.082 72.16,142.082 C71.6,142.082 71.16,141.632 71.16,141.082 Z M71.16,145.082 C71.16,144.531 71.6,144.082 72.16,144.082 C72.71,144.082 73.16,144.531 73.16,145.082 C73.16,145.632 72.71,146.082 72.16,146.082 C71.6,146.082 71.16,145.632 71.16,145.082 Z M71.16,149.082 C71.16,148.531 71.6,148.082 72.16,148.082 C72.71,148.082 73.16,148.531 73.16,149.082 C73.16,149.632 72.71,150.082 72.16,150.082 C71.6,150.082 71.16,149.632 71.16,149.082 Z"/>
    <polygon fill="#48515A" points="79.157 149.083 81.157 149.083 81.157 124.083 79.157 124.083"/>
    <polyline fill="#48515A" points="80.471 150.941 75.764 146.234 77.178 144.82 80.471 148.113 83.764 144.82 85.178 146.234 80.471 150.941"/>
    <path fill="#48515A" d="M79.16,101.082 C79.16,100.531 79.6,100.082 80.16,100.082 C80.71,100.082 81.16,100.531 81.16,101.082 C81.16,101.632 80.71,102.082 80.16,102.082 C79.6,102.082 79.16,101.632 79.16,101.082 Z M79.16,105.082 C79.16,104.531 79.6,104.082 80.16,104.082 C80.71,104.082 81.16,104.531 81.16,105.082 C81.16,105.632 80.71,106.082 80.16,106.082 C79.6,106.082 79.16,105.632 79.16,105.082 Z M79.16,109.082 C79.16,108.531 79.6,108.082 80.16,108.082 C80.71,108.082 81.16,108.531 81.16,109.082 C81.16,109.632 80.71,110.082 80.16,110.082 C79.6,110.082 79.16,109.632 79.16,109.082 Z M79.16,113.082 C79.16,112.531 79.6,112.082 80.16,112.082 C80.71,112.082 81.16,112.531 81.16,113.082 C81.16,113.632 80.71,114.082 80.16,114.082 C79.6,114.082 79.16,113.632 79.16,113.082 Z M79.16,117.082 C79.16,116.531 79.6,116.082 80.16,116.082 C80.71,116.082 81.16,116.531 81.16,117.082 C81.16,117.632 80.71,118.082 80.16,118.082 C79.6,118.082 79.16,117.632 79.16,117.082 Z M79.16,121.082 C79.16,120.531 79.6,120.082 80.16,120.082 C80.71,120.082 81.16,120.531 81.16,121.082 C81.16,121.632 80.71,122.082 80.16,122.082 C79.6,122.082 79.16,121.632 79.16,121.082 Z"/>
    <polyline fill="#48515A" points="109.737 149.364 108.323 147.949 131.658 124.615 133.072 126.029 109.737 149.364"/>
    <polyline fill="#48515A" points="115.157 150.083 108.157 150.083 108.157 143.083 110.157 143.083 110.157 148.083 115.157 148.083 115.157 150.083"/>
    <path fill="#48515A" d="M145.09,112.592 C144.7,112.202 144.7,111.572 145.09,111.182 C145.48,110.792 146.12,110.792 146.51,111.182 C146.9,111.572 146.9,112.202 146.51,112.592 C146.31,112.792 146.06,112.892 145.8,112.892 C145.54,112.892 145.29,112.792 145.09,112.592 Z M142.26,115.422 C141.87,115.031 141.87,114.402 142.26,114.012 C142.65,113.622 143.29,113.622 143.68,114.012 C144.07,114.402 144.07,115.031 143.68,115.422 C143.48,115.622 143.23,115.712 142.97,115.712 C142.71,115.712 142.46,115.622 142.26,115.422 Z M139.44,118.252 C139.05,117.862 139.05,117.222 139.44,116.832 C139.83,116.442 140.46,116.442 140.85,116.832 C141.24,117.222 141.24,117.862 140.85,118.252 C140.66,118.442 140.4,118.542 140.14,118.542 C139.89,118.542 139.63,118.442 139.44,118.252 Z M136.61,121.082 C136.22,120.692 136.22,120.052 136.61,119.662 C137,119.272 137.63,119.272 138.02,119.662 C138.41,120.052 138.41,120.692 138.02,121.082 C137.83,121.272 137.57,121.372 137.31,121.372 C137.06,121.372 136.8,121.272 136.61,121.082 Z M133.78,123.912 C133.39,123.512 133.39,122.882 133.78,122.492 C134.17,122.102 134.8,122.102 135.19,122.492 C135.58,122.882 135.58,123.512 135.19,123.912 C135,124.102 134.74,124.202 134.49,124.202 C134.23,124.202 133.97,124.102 133.78,123.912 Z"/>
    <polyline fill="#48515A" points="120.343 127.444 118.929 126.03 142.264 102.695 143.678 104.109 120.343 127.444"/>
    <polyline fill="#48515A" points="144.157 109.083 142.157 109.083 142.157 104.083 137.157 104.083 137.157 102.083 144.157 102.083 144.157 109.083"/>
    <path fill="#48515A" d="M116.81,129.562 C116.42,129.172 116.42,128.542 116.81,128.152 C117.2,127.762 117.83,127.762 118.22,128.152 C118.61,128.542 118.61,129.172 118.22,129.562 C118.03,129.762 117.77,129.852 117.52,129.852 C117.26,129.852 117,129.762 116.81,129.562 Z M113.98,132.392 C113.59,132.002 113.59,131.372 113.98,130.982 C114.37,130.592 115,130.592 115.39,130.982 C115.78,131.372 115.78,132.002 115.39,132.392 C115.2,132.592 114.94,132.682 114.69,132.682 C114.43,132.682 114.17,132.592 113.98,132.392 Z M111.15,135.222 C110.76,134.832 110.76,134.202 111.15,133.812 C111.54,133.412 112.17,133.412 112.57,133.812 C112.96,134.202 112.96,134.832 112.57,135.222 C112.37,135.422 112.11,135.512 111.86,135.512 C111.6,135.512 111.35,135.422 111.15,135.222 Z M108.32,138.052 C107.93,137.662 107.93,137.022 108.32,136.632 C108.71,136.242 109.35,136.242 109.74,136.632 C110.13,137.022 110.13,137.662 109.74,138.052 C109.54,138.242 109.29,138.342 109.03,138.342 C108.77,138.342 108.52,138.242 108.32,138.052 Z M105.49,140.882 C105.1,140.492 105.1,139.852 105.49,139.462 C105.88,139.072 106.52,139.072 106.91,139.462 C107.3,139.852 107.3,140.492 106.91,140.882 C106.71,141.072 106.46,141.172 106.2,141.172 C105.95,141.172 105.69,141.072 105.49,140.882 Z"/>
    <polygon fill="#48515A" points="192.157 116.083 194.157 116.083 194.157 112.083 192.157 112.083"/>
    <polygon fill="#48515A" points="192.157 126.083 194.157 126.083 194.157 122.083 192.157 122.083"/>
    <polygon fill="#48515A" points="196.157 120.083 200.157 120.083 200.157 118.083 196.157 118.083"/>
    <polygon fill="#48515A" points="186.157 120.083 190.157 120.083 190.157 118.083 186.157 118.083"/>
    <path fill="#48515A" d="M129.116 52C128.013 52 127.116 52.897 127.116 54 127.116 55.103 128.013 56 129.116 56 130.219 56 131.116 55.103 131.116 54 131.116 52.897 130.219 52 129.116 52zM129.116 58C126.91 58 125.116 56.205 125.116 54 125.116 51.794 126.91 50 129.116 50 131.321 50 133.116 51.794 133.116 54 133.116 56.205 131.321 58 129.116 58zM198.116 136C197.564 136 197.116 136.448 197.116 137 197.116 137.551 197.564 138 198.116 138 198.667 138 199.116 137.551 199.116 137 199.116 136.448 198.667 136 198.116 136zM198.116 140C196.461 140 195.116 138.654 195.116 137 195.116 135.345 196.461 134 198.116 134 199.77 134 201.116 135.345 201.116 137 201.116 138.654 199.77 140 198.116 140zM50.116 118C49.564 118 49.116 118.448 49.116 119 49.116 119.551 49.564 120 50.116 120 50.667 120 51.116 119.551 51.116 119 51.116 118.448 50.667 118 50.116 118zM50.116 122C48.461 122 47.116 120.654 47.116 119 47.116 117.345 48.461 116 50.116 116 51.77 116 53.116 117.345 53.116 119 53.116 120.654 51.77 122 50.116 122z"/>
  </g>
</svg>
