<svg xmlns="http://www.w3.org/2000/svg" width="250" height="250" viewBox="0 0 250 250">
  <g fill="none" fill-rule="evenodd">
    <path fill="#5FE0ED" d="M121.634,109.452 C109.863,109.669 100.555,119.672 100.555,131.59 L100.555,160.613 L114.746,160.613 L114.708,156.827 C113.407,155.483 111.988,153.801 110.793,151.849 C107.85,147.037 106.692,140.773 106.692,134.679 L106.692,134.206 L119.859,134.206 L119.72,127.856 C124.021,131.936 129.695,134.206 135.589,134.206 L137.936,134.206 L137.936,134.679 C137.936,140.798 136.516,147.009 133.54,151.814 C131.573,154.988 128.852,157.492 127.159,158.95 L129.577,160.613 L143.515,160.613 L143.515,131.24 C143.515,119.07 133.708,109.23 121.634,109.452"/>
    <polyline fill="#EAEAE9" points="105.214 178.686 112.466 178.686 110.165 175.297 108.98 175.297 105.214 178.686"/>
    <polyline fill="#EAEAE9" points="138.27 178.686 131.018 178.686 133.319 175.297 134.504 175.297 138.27 178.686"/>
    <polyline fill="#EAEAE9" points="114.699 167.953 110.234 175.296 120.835 190.544 121.961 190.544 114.699 167.953"/>
    <polyline fill="#EAEAE9" points="129.544 162.519 134.226 167.39 138.699 178.117 137.583 178.117 134.795 175.296 133.679 175.296 129.214 167.953 129.544 162.519"/>
    <path fill="#EAEAE9" d="M129.567,165.513 L129.567,157.379 L126.546,159.268 C125.731,159.778 124.791,160.049 123.832,160.049 L120.465,160.049 C119.263,160.049 118.098,159.623 117.171,158.847 L114.706,156.779 L114.707,159.979 L129.567,165.513"/>
    <path fill="#48515A" d="M123.665,161.185 L120.208,161.185 C118.742,161.185 117.452,160.712 116.373,159.779 C114.532,158.188 111.923,155.611 109.94,152.37 C106.429,146.632 105.692,139.582 105.692,134.679 L105.692,134.206 L107.692,134.206 L107.692,134.679 C107.692,139.325 108.378,145.985 111.646,151.326 C113.495,154.348 115.948,156.768 117.681,158.266 C118.386,158.876 119.236,159.185 120.208,159.185 L123.665,159.185 C124.782,159.185 125.688,158.894 126.359,158.321 C127.398,157.431 130.561,154.723 132.69,151.287 C135.428,146.867 136.936,140.969 136.936,134.679 L136.936,134.206 L138.936,134.206 L138.936,134.679 C138.936,141.336 137.321,147.608 134.39,152.341 C132.098,156.041 128.757,158.9 127.66,159.84 C126.617,160.733 125.272,161.185 123.665,161.185"/>
    <polygon fill="#48515A" points="113.698 162.802 115.698 162.802 115.698 156.801 113.698 156.801"/>
    <polygon fill="#48515A" points="128.204 163.155 130.204 163.155 130.204 157.224 128.204 157.224"/>
    <path fill="#48515A" d="M157.552 202.3L152.576 183.241C151.907 178.198 148.584 173.925 143.903 172.091L133.874 168.326 134.577 166.454 144.619 170.223C149.972 172.321 153.767 177.178 154.55 182.916L159.487 201.794 157.552 202.3M88.284 202.208L86.31 201.886 89.395 182.949C90.154 177.214 93.958 172.328 99.316 170.228L109.324 166.455 110.03 168.326 100.034 172.095C95.365 173.925 92.041 178.198 91.373 183.241L88.284 202.208"/>
    <path fill="#48515A" d="M108.701,174.296 L110.756,174.296 L119.912,187.464 L113.699,167.953 L113.699,164.742 L110.525,167.954 L107.294,175.718 L108.701,174.296 Z M123.322,191.544 L120.313,191.544 L109.711,176.296 L109.536,176.296 L106.747,179.116 L103.714,179.116 L108.829,166.826 L115.699,159.872 L115.699,167.797 L123.322,191.544 Z"/>
    <path fill="#48515A" d="M130.214,164.745 L130.166,168.259 L124,187.464 L133.156,174.296 L135.212,174.296 L136.613,175.713 L133.377,167.954 L130.214,164.745 Z M123.6,191.544 L120.59,191.544 L128.214,167.797 L128.214,159.868 L135.074,166.826 L140.2,179.116 L137.166,179.116 L134.377,176.296 L134.201,176.296 L123.6,191.544 Z"/>
    <path fill="#5FE0ED" d="M188.947 135.375L189.372 138.332 189.984 137.787C193.603 133.247 195.399 127.611 195.117 121.897 190.441 124.276 187.812 129.591 188.921 135.223L188.947 135.375M189.402 166.176L188.768 168.423C193.858 165.102 197.412 160.056 198.576 154.345 196.583 154.813 194.753 155.795 193.24 157.234 190.922 159.439 189.565 162.491 189.418 165.828L189.402 166.176M177.402 194.081C183.611 194.04 189.14 191.96 193.265 188.159 188.426 185.871 182.503 187.152 178.763 191.64L176.693 193.984 177.402 194.081M159.09 209.681L156.52 211.077 157.428 211.506C162.834 213.771 168.804 213.944 174.262 212.067 170.526 208.177 164.24 207.018 159.09 209.681M176.016 101.787C175.151 104.845 175.527 108.139 177.073 111.071L178.682 113.764 178.783 113.491C181.006 108.033 181.107 102.03 179.143 96.574 177.663 97.993 176.585 99.774 176.016 101.787"/>
    <path fill="#48515A" d="M196.838 119.101C189.774 121.024 185.475 128.076 186.958 135.609L187.923 142.302 191.439 139.169C196.011 133.511 197.953 126.255 196.838 119.101zM186.474 146.272L184.988 135.945C183.227 127.015 188.696 118.63 197.446 116.906L198.427 116.713 198.62 117.694C200.214 125.785 198.144 134.095 192.941 140.493L192.83 140.609 186.474 146.272zM200.92 152.037C197.512 152.128 194.328 153.439 191.862 155.785 189.167 158.348 187.59 161.884 187.42 165.74L187.383 165.968 185.577 172.365C193.994 168.842 199.822 161.425 200.833 152.896 200.867 152.612 200.896 152.325 200.92 152.037zM182.55 175.723L185.427 165.534C185.647 161.204 187.439 157.231 190.483 154.336 193.592 151.379 197.687 149.857 202.03 150.049L203.028 150.093 202.984 151.091C202.955 151.771 202.899 152.457 202.819 153.132 201.703 162.547 195.2 170.702 185.848 174.414L182.55 175.723zM172.72 195.459L177.27 196.081C185.008 196.068 191.796 193.114 196.447 187.747 190.492 183.327 182.192 184.4 177.227 190.36L172.72 195.459zM177.216 198.081C177.21 198.081 177.207 198.081 177.202 198.081L177.066 198.072 168.747 196.934 175.709 189.058C181.55 182.044 191.506 181.002 198.356 186.705L198.895 187.154 198.396 188.54 198.282 188.676C193.229 194.741 185.747 198.081 177.216 198.081zM156.615 213.333C163.337 216.165 170.872 216.007 177.451 212.931 173.585 206.689 165.005 204.369 158.171 207.905L152.096 211.204 156.615 213.333zM166.584 217.353C162.934 217.353 159.277 216.627 155.818 215.168L155.781 215.151 147.672 211.331 157.235 206.137C165.364 201.932 175.66 205.033 179.731 212.901L180.196 213.801 179.296 214.252C175.306 216.314 170.95 217.353 166.584 217.353zM179.976 93.401C177.09 95.216 175.018 97.967 174.091 101.242 173.079 104.822 173.523 108.668 175.341 112.073L179.12 118.399 180.623 114.28C183.39 107.483 183.14 99.943 179.976 93.401zM179.559 123.033L173.601 113.056C171.514 109.151 171.013 104.777 172.167 100.698 173.335 96.569 176.087 93.169 179.917 91.124L180.799 90.653 181.271 91.535C185.155 98.809 185.599 107.362 182.488 115L179.559 123.033z"/>
    <polyline fill="#48515A" points="162.919 104.496 153.158 98.042 154.261 96.374 160.472 100.48 159.491 91.43 161.479 91.214 162.919 104.496"/>
    <path fill="#48515A" d="M137.28,214.401 L136.915,212.434 C165.98,207.033 186.822,181.622 186.471,152.011 C186.24,132.522 176.563,114.194 160.586,102.984 L161.734,101.346 C178.238,112.926 188.232,131.857 188.471,151.988 C188.833,182.573 167.304,208.822 137.28,214.401"/>
    <path fill="#5FE0ED" d="M55.342 135.375L54.916 138.332 54.305 137.787C50.686 133.247 48.89 127.611 49.172 121.897 53.848 124.276 56.477 129.591 55.368 135.223L55.342 135.375M54.886 166.176L55.521 168.423C50.431 165.102 46.877 160.056 45.713 154.345 47.706 154.813 49.536 155.795 51.049 157.234 53.366 159.439 54.724 162.491 54.871 165.828L54.886 166.176M66.887 194.081C60.677 194.04 55.149 191.96 51.024 188.159 55.863 185.871 61.786 187.152 65.526 191.64L67.596 193.984 66.887 194.081M85.199 209.681L87.769 211.077 86.86 211.506C81.454 213.771 75.484 213.944 70.027 212.067 73.763 208.177 80.048 207.018 85.199 209.681M68.273 101.787C69.138 104.845 68.762 108.139 67.215 111.071L65.607 113.764 65.505 113.491C63.283 108.033 63.182 102.03 65.145 96.574 66.626 97.993 67.704 99.774 68.273 101.787M94.06 80.937C95.65 85.935 93.713 91.54 88.925 94.705L86.273 96.458 86.326 95.982C86.969 90.126 89.737 84.8 94.06 80.937"/>
    <path fill="#48515A" d="M52.85 139.169L56.366 142.302 57.322 135.66C58.813 128.078 54.515 121.024 47.451 119.101 46.336 126.255 48.277 133.511 52.85 139.169zM57.815 146.272L51.348 140.493C46.145 134.094 44.075 125.784 45.668 117.694L45.861 116.713 46.843 116.906C55.593 118.63 61.062 127.015 59.292 135.996L57.815 146.272zM43.369 152.037C43.393 152.325 43.422 152.612 43.456 152.896 44.467 161.425 50.295 168.843 58.712 172.365L56.869 165.74C56.699 161.884 55.122 158.348 52.427 155.785 49.961 153.439 46.776 152.128 43.369 152.037zM61.739 175.722L58.441 174.414C49.089 170.702 42.586 162.547 41.47 153.132 41.39 152.46 41.335 151.774 41.304 151.092L41.26 150.093 42.259 150.049C46.597 149.858 50.697 151.379 53.806 154.336 56.849 157.231 58.642 161.204 58.862 165.534L61.739 175.722zM47.842 187.747C52.492 193.114 59.282 196.067 67.019 196.081L71.568 195.459 67.081 190.382C62.097 184.401 53.798 183.328 47.842 187.747zM67.073 198.081C58.541 198.081 51.06 194.741 46.006 188.676L45.893 188.54 45.394 187.154 45.933 186.705C52.781 181.002 62.738 182.045 68.599 189.08L75.542 196.934 67.087 198.081C67.083 198.081 67.078 198.081 67.073 198.081zM66.838 212.931C73.417 216.007 80.951 216.163 87.674 213.333L92.193 211.204 86.1 207.895C79.281 204.37 70.703 206.688 66.838 212.931zM77.704 217.353C73.338 217.353 68.983 216.315 64.993 214.252L64.093 213.801 64.558 212.901C68.629 205.033 78.922 201.931 87.037 206.128L96.617 211.331 88.471 215.168C85.013 216.627 81.354 217.353 77.704 217.353zM64.313 93.401C61.149 99.943 60.898 107.481 63.653 114.246L65.169 118.399 68.971 112.031C72.565 105.298 70.509 97.3 64.313 93.401zM64.73 123.033L61.788 114.966C58.69 107.362 59.134 98.809 63.019 91.535L63.49 90.653 64.372 91.124C68.202 93.169 70.954 96.569 72.122 100.698 73.275 104.777 72.775 109.151 70.712 113.015L64.73 123.033zM94.841 77.747C88.944 81.994 85.135 88.504 84.338 95.764L83.82 100.478 90.028 96.374C96.433 92.139 98.433 84.127 94.841 77.747zM81.366 104.498L82.35 95.546C83.25 87.348 87.712 80.038 94.592 75.49L95.426 74.939 95.977 75.773C100.895 83.212 98.767 92.994 91.131 98.042L81.366 104.498z"/>
    <path fill="#48515A" d="M107.009,214.401 C76.984,208.822 55.455,182.573 55.818,151.988 C56.057,131.856 66.051,112.925 82.555,101.346 L83.703,102.984 C67.726,114.194 58.049,132.522 57.818,152.011 C57.467,181.622 78.308,207.033 107.375,212.434 L107.009,214.401"/>
    <path fill="#5FE0ED" d="M165.181,87.923 C165.181,85.714 166.972,83.923 169.181,83.923 C171.39,83.923 173.181,85.714 173.181,87.923 C173.181,90.132 171.39,91.923 169.181,91.923 C166.972,91.923 165.181,90.132 165.181,87.923"/>
    <polyline fill="#48515A" points="143 113.061 141 113.061 141 67.061 153.573 67.061 121.987 35.475 90.401 67.061 103 67.061 103 108.061 101 108.061 101 69.061 85.573 69.061 121.987 32.647 158.401 69.061 143 69.061 143 113.061"/>
    <polyline fill="#48515A" points="152 118.061 150 118.061 150 86.061 154.247 86.061 142.639 75.615 130.023 87.061 134 87.061 134 100.061 132 100.061 132 89.061 124.843 89.061 142.633 72.92 159.459 88.061 152 88.061 152 118.061"/>
    <path fill="#48515A" d="M151.03 122.473C150.97 122.473 150.9 122.463 150.84 122.453 150.78 122.443 150.71 122.423 150.65 122.393 150.59 122.373 150.53 122.343 150.48 122.302 150.42 122.273 150.37 122.223 150.33 122.183 150.23 122.083 150.16 121.983 150.11 121.853 150.06 121.733 150.04 121.603 150.04 121.473 150.04 121.343 150.06 121.213 150.11 121.093 150.16 120.973 150.23 120.863 150.33 120.763 150.37 120.723 150.42 120.683 150.48 120.643 150.53 120.603 150.59 120.573 150.65 120.552 150.71 120.523 150.78 120.503 150.84 120.493 150.97 120.463 151.1 120.463 151.23 120.493 151.29 120.503 151.36 120.523 151.42 120.552 151.48 120.573 151.54 120.603 151.59 120.643 151.64 120.683 151.7 120.723 151.74 120.763 151.83 120.863 151.91 120.973 151.96 121.093 152.01 121.213 152.03 121.343 152.03 121.473 152.03 121.603 152.01 121.733 151.96 121.853 151.91 121.983 151.83 122.083 151.74 122.183 151.7 122.223 151.64 122.273 151.59 122.302 151.54 122.343 151.48 122.373 151.42 122.393 151.36 122.423 151.29 122.443 151.23 122.453 151.17 122.463 151.1 122.473 151.03 122.473M133.02 104.463C132.76 104.463 132.5 104.353 132.32 104.173 132.27 104.123 132.23 104.073 132.19 104.013 132.16 103.963 132.13 103.903 132.1 103.843 132.08 103.782 132.06 103.723 132.04 103.663 132.03 103.593 132.02 103.532 132.02 103.463 132.02 103.203 132.13 102.943 132.32 102.753 132.69 102.383 133.36 102.383 133.73 102.753 133.92 102.943 134.02 103.203 134.02 103.463 134.02 103.532 134.02 103.593 134 103.663 133.99 103.723 133.97 103.782 133.95 103.843 133.92 103.903 133.89 103.963 133.86 104.013 133.82 104.073 133.78 104.123 133.73 104.173 133.55 104.353 133.29 104.463 133.02 104.463M102 112.543C101.73 112.543 101.48 112.433 101.29 112.253 101.11 112.063 101 111.802 101 111.543 101 111.282 101.11 111.023 101.29 110.833 101.52 110.603 101.86 110.503 102.19 110.563 102.26 110.573 102.32 110.593 102.38 110.623 102.44 110.643 102.5 110.673 102.55 110.713 102.61 110.753 102.66 110.793 102.71 110.833 102.89 111.023 103 111.282 103 111.543 103 111.802 102.89 112.063 102.71 112.253 102.66 112.293 102.61 112.343 102.55 112.373 102.5 112.413 102.44 112.443 102.38 112.473 102.32 112.493 102.26 112.513 102.19 112.523 102.13 112.543 102.06 112.543 102 112.543M102 108.061C101.448 108.061 101 107.614 101 107.061L101 88.061C101 87.509 101.448 87.061 102 87.061 102.552 87.061 103 87.509 103 88.061L103 107.061C103 107.614 102.552 108.061 102 108.061M106 116.543C105.74 116.543 105.48 116.443 105.29 116.253 105.11 116.063 105 115.813 105 115.543 105 115.282 105.11 115.023 105.29 114.843 105.53 114.603 105.87 114.503 106.2 114.563 106.26 114.583 106.32 114.603 106.38 114.623 106.44 114.653 106.5 114.683 106.56 114.713 106.61 114.753 106.66 114.793 106.71 114.843 106.9 115.023 107 115.282 107 115.543 107 115.813 106.9 116.063 106.71 116.253 106.66 116.302 106.61 116.343 106.56 116.383 106.5 116.413 106.44 116.443 106.38 116.473 106.32 116.493 106.26 116.513 106.2 116.523 106.13 116.543 106.06 116.543 106 116.543M106 112.061C105.448 112.061 105 111.614 105 111.061L105 92.061C105 91.509 105.448 91.061 106 91.061 106.552 91.061 107 91.509 107 92.061L107 111.061C107 111.614 106.552 112.061 106 112.061M112.01 104.453C111.87 104.453 111.74 104.433 111.62 104.383 111.5 104.323 111.39 104.253 111.3 104.163 111.11 103.973 111 103.713 111 103.453 111 103.193 111.11 102.933 111.3 102.743 111.39 102.653 111.5 102.583 111.62 102.532 111.87 102.433 112.14 102.433 112.39 102.532 112.51 102.583 112.62 102.653 112.71 102.743 112.9 102.933 113 103.193 113 103.453 113 103.713 112.9 103.973 112.71 104.163 112.62 104.253 112.51 104.323 112.39 104.383 112.26 104.433 112.14 104.453 112.01 104.453M112 100.061C111.448 100.061 111 99.613 111 99.061L111 90.061C111 89.509 111.448 89.061 112 89.061 112.552 89.061 113 89.509 113 90.061L113 99.061C113 99.613 112.552 100.061 112 100.061"/>
    <polygon fill="#48515A" points="213 185.061 215 185.061 215 181.061 213 181.061"/>
    <polygon fill="#48515A" points="213 175.061 215 175.061 215 171.061 213 171.061"/>
    <polygon fill="#48515A" points="207 179.061 211 179.061 211 177.061 207 177.061"/>
    <polygon fill="#48515A" points="217 179.061 221 179.061 221 177.061 217 177.061"/>
    <polygon fill="#48515A" points="158 155.061 160 155.061 160 151.061 158 151.061"/>
    <polygon fill="#48515A" points="158 145.061 160 145.061 160 141.061 158 141.061"/>
    <polygon fill="#48515A" points="152 149.061 156 149.061 156 147.061 152 147.061"/>
    <polygon fill="#48515A" points="162 149.061 166 149.061 166 147.061 162 147.061"/>
    <path fill="#48515A" d="M117.99 103.923C117.72 103.923 117.47 103.813 117.28 103.623 117.19 103.532 117.11 103.423 117.06 103.302 117.01 103.183 116.99 103.052 116.99 102.923 116.99 102.653 117.09 102.393 117.28 102.213 117.65 101.843 118.32 101.843 118.69 102.213 118.88 102.393 118.99 102.653 118.99 102.923 118.99 103.183 118.88 103.443 118.69 103.623 118.51 103.813 118.25 103.923 117.99 103.923M118 96.061C117.448 96.061 117 95.613 117 95.061L117 71.061C117 70.509 117.448 70.061 118 70.061 118.552 70.061 119 70.509 119 71.061L119 95.061C119 95.613 118.552 96.061 118 96.061M75.789 154.856L78.243 155.653 78.71 154.217C79.236 152.595 80.677 151.547 82.382 151.546 82.382 151.546 82.383 151.546 82.384 151.546 84.088 151.546 85.53 152.593 86.057 154.214L86.524 155.65 88.978 154.852 88.511 153.415C87.983 151.795 88.534 150.099 89.913 149.097 91.291 148.094 93.074 148.094 94.454 149.095L95.676 149.982 97.187 147.9 95.975 147.032C94.591 146.028 94.04 144.338 94.564 142.724 95.089 141.106 96.531 140.061 98.238 140.061L99.748 140.061 99.748 137.061 98.237 137.061C96.513 137.061 95.066 136.037 94.551 134.452 94.046 132.899 94.601 131.254 95.965 130.263L97.163 129.447 95.723 127.493 94.498 128.398C93.111 129.408 91.325 129.408 89.946 128.406 88.57 127.407 88.021 125.717 88.546 124.098L89.011 122.668 86.558 121.873 86.091 123.312C85.565 124.933 84.123 125.982 82.419 125.983L82.417 125.983C80.713 125.983 79.271 124.936 78.744 123.316L78.277 121.88 75.823 122.678 76.29 124.115C76.818 125.736 76.268 127.431 74.889 128.434 73.51 129.437 71.728 129.437 70.348 128.435L69.126 127.549 67.61 129.637 68.832 130.524C70.211 131.525 70.763 133.22 70.237 134.842 69.711 136.464 68.269 137.512 66.564 137.512L65.054 137.513 65.055 140.094 66.565 140.093 66.566 140.093C68.271 140.093 69.713 141.14 70.24 142.76 70.768 144.382 70.217 146.077 68.838 147.079L67.617 147.968 69.088 149.991 70.31 149.103C71.688 148.1 73.471 148.1 74.851 149.102 76.23 150.103 76.781 151.799 76.255 153.42L75.789 154.856zM79.528 158.173L73.269 156.141 74.352 152.802C74.661 151.853 74.205 151.104 73.675 150.72 73.146 150.336 72.292 150.135 71.485 150.72L68.646 152.785 64.823 147.527 67.662 145.462C68.469 144.875 68.54 144.002 68.338 143.38 68.136 142.758 67.564 142.093 66.566 142.093L63.056 142.094 63.053 135.514 66.563 135.512C67.562 135.512 68.133 134.847 68.335 134.224 68.537 133.602 68.464 132.729 67.657 132.142L64.816 130.08 68.682 124.755 71.522 126.817C72.329 127.402 73.183 127.201 73.712 126.816 74.242 126.431 74.697 125.682 74.388 124.734L73.302 121.395 79.56 119.359 80.646 122.697C80.955 123.645 81.763 123.983 82.417 123.983L82.418 123.983C83.072 123.983 83.881 123.644 84.189 122.695L85.272 119.355 91.533 121.382 90.448 124.716C90.142 125.66 90.594 126.406 91.121 126.788 91.65 127.174 92.506 127.373 93.316 126.785L96.146 124.694 100.004 129.932 97.115 131.898C96.471 132.367 96.214 133.098 96.453 133.834 96.646 134.427 97.216 135.061 98.237 135.061L101.747 135.061 101.749 142.061 98.238 142.061C97.238 142.061 96.667 142.722 96.466 143.342 96.266 143.958 96.339 144.825 97.145 145.41L99.989 147.446 96.119 152.776 93.279 150.713C92.471 150.127 91.618 150.329 91.089 150.714 90.56 151.099 90.104 151.848 90.413 152.797L91.498 156.135 85.241 158.171 84.155 154.832C83.846 153.884 83.038 153.546 82.383 153.546 81.729 153.546 80.92 153.885 80.612 154.834L79.528 158.173z"/>
    <path fill="#F58E70" d="M82.405,137.018 C82.312,137.018 82.219,137.026 82.126,137.041 C81.665,137.114 81.261,137.363 80.987,137.74 C80.713,138.118 80.603,138.58 80.677,139.041 C80.75,139.501 80.999,139.906 81.377,140.179 C82.156,140.744 83.251,140.57 83.815,139.789 C84.38,139.01 84.205,137.916 83.425,137.351 C83.124,137.133 82.77,137.018 82.405,137.018 Z M82.396,142.51 C81.634,142.51 80.866,142.279 80.203,141.799 C79.393,141.212 78.859,140.344 78.702,139.356 C78.544,138.368 78.78,137.378 79.368,136.567 C79.954,135.757 80.822,135.223 81.81,135.066 C82.801,134.909 83.789,135.144 84.599,135.732 C86.271,136.943 86.646,139.29 85.435,140.963 C84.703,141.973 83.557,142.51 82.396,142.51 Z"/>
    <path fill="#48515A" d="M80.19,128.353 C80.13,127.802 80.52,127.302 81.07,127.243 C81.62,127.183 82.12,127.573 82.18,128.123 C82.24,128.673 81.85,129.163 81.3,129.233 C81.26,129.233 81.23,129.233 81.19,129.233 C80.69,129.233 80.25,128.863 80.19,128.353 Z M84.82,129.473 C84.28,129.333 83.96,128.793 84.1,128.253 C84.24,127.723 84.79,127.393 85.32,127.532 C85.86,127.673 86.18,128.223 86.04,128.753 C85.92,129.203 85.51,129.503 85.07,129.503 C84.99,129.503 84.9,129.493 84.82,129.473 Z M76.58,129.843 C76.32,129.363 76.51,128.753 77,128.493 C77.49,128.243 78.09,128.433 78.35,128.913 C78.61,129.403 78.42,130.013 77.93,130.263 C77.78,130.343 77.62,130.383 77.47,130.383 C77.11,130.383 76.76,130.193 76.58,129.843 Z M88.03,130.993 C88.02,130.983 88.02,130.983 88.01,130.973 C87.56,130.653 87.46,130.023 87.78,129.583 C88.1,129.133 88.73,129.032 89.18,129.353 L89.19,129.363 C89.2,129.363 89.2,129.373 89.21,129.373 C89.65,129.693 89.75,130.323 89.43,130.773 C89.23,131.043 88.93,131.183 88.62,131.183 C88.41,131.183 88.21,131.123 88.03,130.993 Z M73.76,132.552 C73.34,132.193 73.3,131.563 73.66,131.143 C74.02,130.723 74.65,130.683 75.07,131.043 C75.48,131.413 75.53,132.043 75.17,132.453 C74.97,132.683 74.69,132.802 74.41,132.802 C74.18,132.802 73.95,132.723 73.76,132.552 Z M90.46,133.543 C90.16,133.083 90.29,132.463 90.76,132.163 C91.22,131.863 91.84,132.003 92.14,132.463 C92.44,132.923 92.31,133.543 91.84,133.843 C91.68,133.953 91.49,134.003 91.3,134.003 C90.97,134.003 90.65,133.843 90.46,133.543 Z M72.09,136.093 C71.57,135.903 71.3,135.333 71.49,134.813 C71.68,134.293 72.25,134.023 72.77,134.213 C73.29,134.403 73.56,134.973 73.37,135.493 C73.23,135.903 72.84,136.153 72.43,136.153 C72.32,136.153 72.21,136.133 72.09,136.093 Z M91.8,136.813 C91.68,136.273 92.03,135.743 92.57,135.633 C93.11,135.513 93.64,135.863 93.76,136.403 C93.87,136.943 93.52,137.473 92.98,137.583 C92.91,137.603 92.84,137.613 92.78,137.613 C92.31,137.613 91.9,137.282 91.8,136.813 Z M70.8,139.013 C70.79,138.463 71.23,138.003 71.78,137.993 C72.33,137.983 72.79,138.423 72.8,138.973 C72.82,139.523 72.38,139.983 71.83,139.993 C71.82,139.993 71.81,139.993 71.8,139.993 C71.26,139.993 70.82,139.563 70.8,139.013 Z M92.69,141.483 C92.15,141.393 91.78,140.883 91.87,140.333 C91.96,139.793 92.48,139.423 93.02,139.513 C93.57,139.603 93.93,140.123 93.84,140.663 C93.76,141.153 93.34,141.503 92.86,141.503 C92.8,141.503 92.75,141.493 92.69,141.483 Z M71.68,143.183 C71.47,142.673 71.71,142.093 72.22,141.883 C72.73,141.673 73.32,141.913 73.53,142.423 C73.74,142.933 73.49,143.523 72.98,143.733 C72.86,143.782 72.73,143.802 72.6,143.802 C72.21,143.802 71.84,143.573 71.68,143.183 Z M91.02,145.013 C90.54,144.733 90.38,144.123 90.66,143.653 C90.95,143.173 91.56,143.013 92.03,143.293 C92.51,143.583 92.67,144.193 92.38,144.673 C92.2,144.983 91.87,145.163 91.52,145.163 C91.35,145.163 91.18,145.113 91.02,145.013 Z M74,146.763 C73.62,146.363 73.63,145.723 74.03,145.353 C74.43,144.963 75.06,144.983 75.45,145.383 C75.82,145.782 75.81,146.413 75.41,146.793 C75.22,146.983 74.97,147.073 74.72,147.073 C74.46,147.073 74.19,146.963 74,146.763 Z M88.18,147.713 C87.83,147.273 87.91,146.643 88.34,146.302 C88.78,145.963 89.4,146.032 89.75,146.473 C90.09,146.903 90.02,147.532 89.58,147.873 C89.4,148.023 89.18,148.093 88.96,148.093 C88.67,148.093 88.38,147.963 88.18,147.713 Z M77.45,149.253 C76.95,149.023 76.74,148.423 76.97,147.923 C77.21,147.423 77.81,147.213 78.31,147.453 L78.31,147.443 C78.8,147.683 79.02,148.282 78.78,148.782 C78.61,149.143 78.25,149.353 77.88,149.353 C77.73,149.353 77.59,149.323 77.45,149.253 Z M84.56,149.193 C84.4,148.663 84.69,148.103 85.22,147.943 C85.75,147.773 86.31,148.073 86.47,148.603 C86.63,149.133 86.33,149.693 85.81,149.853 C85.71,149.883 85.61,149.893 85.51,149.893 C85.08,149.893 84.69,149.623 84.56,149.193 Z M81.57,150.333 C81.02,150.293 80.61,149.813 80.65,149.263 C80.68,148.713 81.16,148.302 81.71,148.343 C82.27,148.383 82.68,148.853 82.64,149.403 C82.6,149.933 82.16,150.333 81.64,150.333 C81.62,150.333 81.6,150.333 81.57,150.333 Z"/>
    <polygon fill="#48515A" points="35 185.061 37 185.061 37 181.061 35 181.061"/>
    <polygon fill="#48515A" points="35 175.061 37 175.061 37 171.061 35 171.061"/>
    <polygon fill="#48515A" points="29 179.061 33 179.061 33 177.061 29 177.061"/>
    <polygon fill="#48515A" points="39 179.061 43 179.061 43 177.061 39 177.061"/>
    <polygon fill="#48515A" points="42 106.061 44 106.061 44 102.061 42 102.061"/>
    <polygon fill="#48515A" points="42 96.061 44 96.061 44 92.061 42 92.061"/>
    <polygon fill="#48515A" points="36 100.061 40 100.061 40 98.061 36 98.061"/>
    <polygon fill="#48515A" points="46 100.061 50 100.061 50 98.061 46 98.061"/>
  </g>
</svg>
