<svg xmlns="http://www.w3.org/2000/svg" width="250" height="250" viewBox="0 0 250 250">
  <g fill="none" fill-rule="evenodd">
    <path fill="#F58E70" d="M128.455,195.888 C128.455,195.888 126.956,170.208 126.206,167.21 L126.041,167.21 C126.662,167.211 127,166.708 127,166.087 L127,163.276 L124.453,159.902 L122,163.276 L122,166.087 C122,166.708 122.358,167.211 122.979,167.21 L122.87,167.21 C122.121,170.208 120.604,195.888 120.604,195.888"/>
    <path fill="#DFE0E0" d="M116,151.475 L116,153.931 L124.442,158.709 L132.899,154.072 L133,149.577 L133,145.787 C133,145.469 133.596,145.129 133.892,144.785 C133.791,144.873 133.666,144.962 133.583,145.051 C132.4,146.322 130.594,147.696 129.38,148.733 C128.42,149.553 127.192,150.061 125.93,150.061 L122.28,150.061 C121.018,150.061 119.804,149.553 118.844,148.733 C117.686,147.743 116,146.463 114.821,145.245 C114.785,145.208 114.744,145.162 114.705,145.125 C115.06,145.502 115.527,145.878 115.958,146.258 C115.948,146.262 116,146.262 116,146.273 L116,151.475"/>
    <path fill="#48515A" d="M116,155.061 C115.448,155.061 115,154.614 115,154.061 L115,146.061 C115,145.509 115.448,145.061 116,145.061 C116.552,145.061 117,145.509 117,146.061 L117,154.061 C117,154.614 116.552,155.061 116,155.061"/>
    <path fill="#48515A" d="M133 155.061C132.448 155.061 132 154.614 132 154.061L132 145.299 132.371 144.999C133.295 144.25 133.632 143.552 133.805 143.092L137.276 135.827 141.099 133.923 141.932 129.808C141.919 129.571 141.81 129.408 141.715 129.311 141.558 129.15 141.341 129.061 141.104 129.061L139.169 129.061 139.337 127.916C139.435 127.243 139.543 126.638 139.645 126.074 139.843 124.963 140 124.085 140 123.182L140 122.424C140 120.573 139.588 118.629 138.806 116.765L138.357 115.951C138.315 115.851 138.274 115.751 138.225 115.652 137.175 113.535 135.734 111.745 133.942 110.332 131.208 108.177 127.945 107.025 124.507 107.002 124.473 107.001 124.439 107.001 124.405 107.001 120.438 107.001 116.667 108.579 113.775 111.451 110.741 114.465 109 118.643 109 122.912L109 123.182C109 123.587 108.989 123.986 108.978 124.392 108.948 125.451 108.917 126.547 109.094 127.935L109.237 129.061 107.42 129.061C106.96 129.061 106.592 129.38 106.535 129.805L107.721 133.924 111.066 135.861 114.463 143.055C114.897 144.207 116.899 145.842 118.361 147.035 118.767 147.366 119.152 147.681 119.494 147.972 120.316 148.675 121.306 149.061 122.28 149.061L126 149.061C126.552 149.061 127 149.509 127 150.061 127 150.614 126.552 151.061 126 151.061L122.28 151.061C120.83 151.061 119.379 150.504 118.195 149.493 117.864 149.211 117.49 148.906 117.097 148.584 115.276 147.098 113.212 145.414 112.622 143.831L109.524 137.28 106.021 135.251 104.528 129.92C104.528 128.484 105.605 127.291 107.003 127.091 106.931 126.043 106.956 125.149 106.979 124.337 106.989 123.949 107 123.568 107 123.182L107 122.912C107 118.114 108.956 113.419 112.366 110.032 115.663 106.757 119.967 104.998 124.521 105.002 128.408 105.028 132.094 106.328 135.18 108.762 137.207 110.36 138.833 112.379 140.017 114.763 140.036 114.802 140.055 114.843 140.074 114.883L140.373 115.363C141.437 117.656 142 120.098 142 122.424L142 123.182C142 124.262 141.821 125.265 141.613 126.426 141.575 126.639 141.536 126.86 141.496 127.087 142.127 127.171 142.703 127.459 143.149 127.917 143.675 128.459 143.953 129.176 143.932 129.935L143.912 130.105 142.866 135.278 138.784 137.311 135.643 143.876C135.325 144.73 134.778 145.522 134 146.234L134 154.061C134 154.614 133.552 155.061 133 155.061M87.174 195.662L87.021 168.104C87.021 164.442 89.465 163.212 92.418 162.085L109.765 156.073 112.895 150.061 116 150.061 116 152.061 114.108 152.061 111.171 157.702 93.102 163.965C90.098 165.111 89.02 165.911 89.02 168.098L89.174 195.651 87.174 195.662"/>
    <path fill="#48515A" d="M124.521 159.926L115.392 154.814C114.91 154.544 114.738 153.934 115.008 153.452 115.278 152.971 115.889 152.801 116.37 153.069L124.521 157.634 132.343 153.252C132.826 152.983 133.435 153.155 133.705 153.636 133.975 154.118 133.803 154.727 133.321 154.997L124.521 159.926M162.08 195.656L160.08 195.656 160.086 168.166C160.086 165.928 158.99 165.127 155.903 163.992L137.851 157.76 134.494 152.061 133 152.061 133 150.061 135.638 150.061 139.2 156.109 156.575 162.108C159.599 163.22 162.086 164.438 162.086 168.166L162.08 195.656"/>
    <path fill="#48515A" d="M119.461,166.525 C119.223,166.525 118.983,166.44 118.792,166.268 C118.382,165.899 118.349,165.266 118.718,164.856 L124.521,158.408 L130.322,164.856 C130.692,165.266 130.659,165.899 130.248,166.268 C129.838,166.638 129.205,166.603 128.836,166.194 L124.521,161.398 L120.205,166.194 C120.007,166.413 119.735,166.525 119.461,166.525"/>
    <path fill="#5FE0ED" d="M188.947 135.375L189.372 138.332 189.984 137.787C193.603 133.247 195.399 127.611 195.117 121.897 190.441 124.276 187.812 129.591 188.921 135.223L188.947 135.375M189.403 166.176L188.768 168.423C193.858 165.102 197.412 160.056 198.576 154.346 196.583 154.813 194.753 155.795 193.24 157.234 190.923 159.439 189.565 162.491 189.418 165.828L189.403 166.176M177.402 194.081C183.612 194.04 189.14 191.96 193.265 188.159 188.426 185.871 182.503 187.152 178.763 191.64L176.693 193.984 177.402 194.081M159.09 209.681L156.52 211.077 157.429 211.506C162.835 213.771 168.804 213.944 174.262 212.067 170.526 208.177 164.241 207.018 159.09 209.681M176.016 101.787C175.151 104.845 175.527 108.139 177.074 111.071L178.682 113.764 178.784 113.492C181.006 108.034 181.107 102.03 179.144 96.574 177.663 97.993 176.585 99.774 176.016 101.787"/>
    <path fill="#48515A" d="M196.838 119.101C189.774 121.024 185.475 128.076 186.958 135.609L187.923 142.302 191.439 139.169C196.012 133.511 197.953 126.255 196.838 119.101zM186.474 146.272L184.988 135.945C183.228 127.015 188.696 118.63 197.446 116.906L198.428 116.713 198.621 117.694C200.214 125.784 198.144 134.094 192.941 140.493L192.83 140.609 186.474 146.272zM200.92 152.037C197.512 152.128 194.328 153.439 191.862 155.785 189.167 158.348 187.59 161.884 187.42 165.74L187.383 165.968 185.577 172.365C193.995 168.843 199.822 161.425 200.833 152.896 200.867 152.612 200.896 152.325 200.92 152.037zM182.55 175.722L185.427 165.534C185.647 161.204 187.44 157.231 190.483 154.336 193.592 151.379 197.691 149.859 202.03 150.049L203.029 150.093 202.985 151.092C202.955 151.774 202.899 152.46 202.819 153.132 201.703 162.547 195.2 170.702 185.848 174.414L182.55 175.722zM172.72 195.459L177.27 196.081C185.008 196.068 191.797 193.114 196.447 187.747 190.491 183.328 182.192 184.4 177.227 190.36L172.72 195.459zM177.216 198.081C177.21 198.081 177.207 198.081 177.202 198.081L177.066 198.072 168.747 196.934 175.709 189.058C181.551 182.047 191.507 181.003 198.356 186.705L198.896 187.154 198.395 188.54 198.283 188.676C193.229 194.741 185.748 198.081 177.216 198.081zM156.615 213.333C163.337 216.164 170.872 216.007 177.451 212.931 173.587 206.689 165.007 204.371 158.171 207.905L152.096 211.204 156.615 213.333zM166.584 217.353C162.934 217.353 159.277 216.627 155.818 215.168L155.781 215.152 147.672 211.331 157.235 206.137C165.365 201.931 175.66 205.033 179.731 212.901L180.196 213.801 179.296 214.252C175.306 216.315 170.951 217.353 166.584 217.353zM179.976 93.401C177.09 95.216 175.018 97.967 174.091 101.242 173.079 104.822 173.523 108.668 175.342 112.073L179.121 118.399 180.623 114.28C183.39 107.483 183.14 99.943 179.976 93.401zM179.559 123.033L173.601 113.056C171.514 109.151 171.013 104.777 172.167 100.698 173.335 96.569 176.087 93.169 179.917 91.124L180.799 90.653 181.271 91.535C185.155 98.809 185.599 107.362 182.488 115L179.559 123.033z"/>
    <polyline fill="#48515A" points="162.92 104.496 153.158 98.042 154.261 96.374 160.473 100.48 159.491 91.43 161.479 91.214 162.92 104.496"/>
    <path fill="#48515A" d="M137.28,214.401 L136.915,212.434 C165.98,207.033 186.822,181.622 186.471,152.011 C186.24,132.522 176.563,114.194 160.586,102.984 L161.734,101.346 C178.238,112.925 188.232,131.856 188.471,151.988 C188.833,182.573 167.304,208.822 137.28,214.401"/>
    <path fill="#5FE0ED" d="M55.342 135.375L54.917 138.332 54.305 137.787C50.686 133.247 48.89 127.611 49.172 121.897 53.848 124.276 56.477 129.591 55.368 135.223L55.342 135.375M54.887 166.176L55.521 168.423C50.431 165.102 46.877 160.056 45.713 154.346 47.706 154.813 49.536 155.795 51.049 157.234 53.367 159.439 54.724 162.491 54.871 165.828L54.887 166.176M66.887 194.081C60.678 194.04 55.149 191.96 51.024 188.159 55.864 185.871 61.786 187.152 65.526 191.64L67.596 193.984 66.887 194.081M85.199 209.681L87.77 211.077 86.861 211.506C81.455 213.771 75.485 213.944 70.027 212.067 73.763 208.177 80.049 207.018 85.199 209.681M68.273 101.787C69.138 104.845 68.762 108.139 67.215 111.071L65.607 113.764 65.506 113.492C63.283 108.034 63.182 102.03 65.146 96.574 66.626 97.993 67.704 99.774 68.273 101.787M94.06 80.937C95.65 85.935 93.713 91.54 88.925 94.705L86.274 96.458 86.326 95.982C86.969 90.126 89.737 84.8 94.06 80.937"/>
    <path fill="#48515A" d="M52.85 139.169L56.366 142.302 57.322 135.66C58.813 128.078 54.515 121.024 47.451 119.101 46.336 126.255 48.278 133.511 52.85 139.169zM57.815 146.272L51.348 140.493C46.145 134.095 44.075 125.785 45.669 117.694L45.862 116.713 46.843 116.906C55.593 118.63 61.062 127.015 59.292 135.996L57.815 146.272zM43.369 152.037C43.393 152.325 43.422 152.612 43.456 152.896 44.467 161.425 50.295 168.842 58.712 172.365L56.869 165.74C56.699 161.884 55.122 158.348 52.427 155.785 49.961 153.439 46.776 152.128 43.369 152.037zM61.739 175.723L58.441 174.414C49.089 170.702 42.586 162.547 41.47 153.132 41.39 152.46 41.335 151.774 41.304 151.092L41.26 150.093 42.259 150.049C46.594 149.862 50.697 151.379 53.806 154.336 56.849 157.231 58.642 161.204 58.862 165.534L61.739 175.723zM47.842 187.747C52.492 193.113 59.281 196.067 67.019 196.081L71.568 195.459 67.081 190.382C62.097 184.401 53.798 183.327 47.842 187.747zM67.073 198.081C58.541 198.081 51.06 194.741 46.006 188.676L45.894 188.54 45.395 187.154 45.933 186.705C52.784 181.003 62.738 182.046 68.599 189.08L75.542 196.934 67.087 198.081C67.083 198.081 67.078 198.081 67.073 198.081zM66.838 212.931C73.416 216.007 80.952 216.164 87.674 213.333L92.193 211.204 86.1 207.895C79.284 204.37 70.704 206.69 66.838 212.931zM77.705 217.353C73.339 217.353 68.983 216.315 64.993 214.252L64.093 213.801 64.558 212.901C68.629 205.033 78.922 201.932 87.037 206.128L96.617 211.331 88.471 215.168C85.013 216.627 81.355 217.353 77.705 217.353zM64.313 93.401C61.149 99.942 60.898 107.481 63.653 114.246L65.169 118.399 68.972 112.031C70.766 108.668 71.21 104.822 70.198 101.242 69.271 97.967 67.199 95.216 64.313 93.401zM64.73 123.033L61.788 114.966C58.69 107.362 59.134 98.809 63.019 91.535L63.49 90.653 64.372 91.124C68.202 93.169 70.954 96.569 72.122 100.698 73.276 104.777 72.775 109.151 70.712 113.015L64.73 123.033zM94.841 77.747C88.944 81.994 85.135 88.504 84.338 95.764L83.82 100.478 90.028 96.374C96.433 92.139 98.434 84.126 94.841 77.747zM81.366 104.498L82.35 95.546C83.25 87.348 87.712 80.039 94.592 75.49L95.426 74.939 95.977 75.773C100.896 83.212 98.767 92.993 91.131 98.042L81.366 104.498z"/>
    <path fill="#48515A" d="M107.009,214.401 C76.985,208.822 55.456,182.573 55.818,151.988 C56.057,131.857 66.051,112.926 82.555,101.346 L83.703,102.984 C67.726,114.194 58.049,132.522 57.818,152.011 C57.467,181.622 78.309,207.033 107.375,212.434 L107.009,214.401"/>
    <path fill="#5FE0ED" d="M165.181,87.923 C165.181,85.714 166.972,83.923 169.181,83.923 C171.391,83.923 173.181,85.714 173.181,87.923 C173.181,90.132 171.391,91.923 169.181,91.923 C166.972,91.923 165.181,90.132 165.181,87.923"/>
    <polyline fill="#48515A" points="143 113.061 141 113.061 141 67.061 153.574 67.061 121.988 35.475 90.402 67.061 103 67.061 103 108.061 101 108.061 101 69.061 85.574 69.061 121.988 32.647 158.402 69.061 143 69.061 143 113.061"/>
    <polyline fill="#48515A" points="152 118.061 150 118.061 150 86.061 154.248 86.061 142.64 75.615 130.023 87.061 134 87.061 134 100.061 132 100.061 132 89.061 124.843 89.061 142.634 72.92 159.459 88.061 152 88.061 152 118.061"/>
    <path fill="#48515A" d="M151.03 122.473C150.771 122.473 150.51 122.364 150.331 122.183 150.24 122.083 150.16 121.984 150.11 121.853 150.061 121.734 150.041 121.603 150.041 121.473 150.041 121.344 150.061 121.214 150.11 121.094 150.16 120.964 150.24 120.864 150.331 120.763 150.7 120.393 151.37 120.393 151.74 120.763 151.831 120.864 151.91 120.964 151.96 121.094 152.01 121.214 152.03 121.344 152.03 121.473 152.03 121.603 152.01 121.734 151.96 121.853 151.91 121.984 151.831 122.083 151.74 122.183 151.55 122.364 151.3 122.473 151.03 122.473M133.021 104.464C132.89 104.464 132.76 104.433 132.64 104.384 132.521 104.333 132.41 104.263 132.32 104.174 132.13 103.984 132.021 103.723 132.021 103.464 132.021 103.333 132.05 103.203 132.1 103.083 132.15 102.953 132.22 102.844 132.32 102.753 132.41 102.663 132.521 102.594 132.64 102.543 133.01 102.384 133.45 102.473 133.73 102.753 133.82 102.844 133.9 102.953 133.95 103.083 134 103.203 134.021 103.333 134.021 103.464 134.021 103.723 133.92 103.984 133.73 104.174 133.541 104.353 133.291 104.464 133.021 104.464M102 112.543C101.73 112.543 101.48 112.433 101.291 112.253 101.1 112.063 101 111.803 101 111.543 101 111.283 101.1 111.023 101.291 110.833 101.66 110.464 102.331 110.464 102.71 110.833 102.89 111.023 103 111.283 103 111.543 103 111.803 102.89 112.063 102.71 112.253 102.521 112.433 102.26 112.543 102 112.543M102 108.061C101.448 108.061 101 107.614 101 107.061L101 88.061C101 87.509 101.448 87.061 102 87.061 102.552 87.061 103 87.509 103 88.061L103 107.061C103 107.614 102.552 108.061 102 108.061M106 116.543C105.74 116.543 105.48 116.444 105.291 116.253 105.11 116.073 105 115.813 105 115.543 105 115.413 105.03 115.283 105.081 115.163 105.13 115.043 105.2 114.933 105.291 114.844 105.66 114.464 106.331 114.464 106.71 114.844 106.8 114.933 106.87 115.043 106.92 115.163 106.98 115.283 107 115.413 107 115.543 107 115.813 106.89 116.063 106.71 116.253 106.521 116.444 106.26 116.543 106 116.543M106 112.061C105.448 112.061 105 111.614 105 111.061L105 92.061C105 91.509 105.448 91.061 106 91.061 106.552 91.061 107 91.509 107 92.061L107 111.061C107 111.614 106.552 112.061 106 112.061M112 104.453C111.74 104.453 111.48 104.344 111.3 104.163 111.11 103.973 111 103.714 111 103.453 111 103.194 111.11 102.933 111.3 102.743 111.581 102.473 112.021 102.384 112.39 102.533 112.51 102.583 112.62 102.654 112.71 102.743 112.9 102.933 113.01 103.194 113.01 103.453 113.01 103.714 112.9 103.973 112.71 104.163 112.62 104.253 112.51 104.323 112.39 104.373 112.26 104.433 112.14 104.453 112 104.453M112 100.061C111.448 100.061 111 99.613 111 99.061L111 90.061C111 89.509 111.448 89.061 112 89.061 112.552 89.061 113 89.509 113 90.061L113 99.061C113 99.613 112.552 100.061 112 100.061"/>
    <polygon fill="#48515A" points="213 185.061 215 185.061 215 181.061 213 181.061"/>
    <polygon fill="#48515A" points="213 175.061 215 175.061 215 171.061 213 171.061"/>
    <polygon fill="#48515A" points="207 179.061 211 179.061 211 177.061 207 177.061"/>
    <polygon fill="#48515A" points="217 179.061 221 179.061 221 177.061 217 177.061"/>
    <polygon fill="#48515A" points="158 155.061 160 155.061 160 151.061 158 151.061"/>
    <polygon fill="#48515A" points="158 145.061 160 145.061 160 141.061 158 141.061"/>
    <polygon fill="#48515A" points="152 149.061 156 149.061 156 147.061 152 147.061"/>
    <polygon fill="#48515A" points="162 149.061 166 149.061 166 147.061 162 147.061"/>
    <path fill="#48515A" d="M117.99 103.924C117.86 103.924 117.73 103.893 117.6 103.844 117.48 103.793 117.37 103.723 117.28 103.623 117.23 103.583 117.19 103.533 117.16 103.473 117.12 103.424 117.09 103.364 117.061 103.303 117.041 103.243 117.021 103.174 117.01 103.114 116.99 103.053 116.99 102.984 116.99 102.924 116.99 102.793 117.01 102.663 117.061 102.533 117.11 102.413 117.19 102.303 117.28 102.214 117.37 102.123 117.48 102.043 117.6 101.993 117.85 101.893 118.12 101.893 118.37 101.993 118.49 102.043 118.6 102.123 118.69 102.214 118.791 102.303 118.86 102.413 118.91 102.533 118.96 102.663 118.99 102.783 118.99 102.924 118.99 103.183 118.88 103.444 118.69 103.623 118.6 103.723 118.49 103.793 118.37 103.844 118.25 103.893 118.12 103.924 117.99 103.924M118 96.061C117.448 96.061 117 95.613 117 95.061L117 71.061C117 70.509 117.448 70.061 118 70.061 118.552 70.061 119 70.509 119 71.061L119 95.061C119 95.613 118.552 96.061 118 96.061M75.789 154.856L78.243 155.653 78.71 154.217C79.236 152.594 80.678 151.547 82.383 151.546L82.384 151.546C84.088 151.546 85.53 152.593 86.057 154.214L86.524 155.65 88.978 154.852 88.511 153.415C87.983 151.795 88.534 150.099 89.913 149.097 91.291 148.094 93.074 148.094 94.454 149.095L95.676 149.982 97.187 147.9 95.975 147.032C94.591 146.028 94.04 144.338 94.564 142.724 95.089 141.107 96.532 140.061 98.238 140.061L99.748 140.061 99.748 137.061 98.237 137.061C96.513 137.061 95.066 136.037 94.551 134.452 94.046 132.899 94.601 131.254 95.965 130.263L97.163 129.447 95.723 127.493 94.498 128.398C93.111 129.407 91.327 129.408 89.946 128.406 88.571 127.407 88.021 125.717 88.546 124.098L89.011 122.668 86.559 121.873 86.092 123.312C85.565 124.934 84.123 125.982 82.419 125.983 82.418 125.983 82.418 125.983 82.417 125.983 80.713 125.983 79.271 124.936 78.744 123.316L78.277 121.88 75.823 122.678 76.29 124.115C76.818 125.736 76.268 127.431 74.889 128.434 73.509 129.436 71.727 129.437 70.348 128.435L69.126 127.548 67.61 129.637 68.832 130.524C70.212 131.526 70.763 133.22 70.237 134.842 69.711 136.464 68.269 137.512 66.564 137.512L65.054 137.513 65.055 140.094 66.565 140.093 66.567 140.093C68.271 140.093 69.712 141.14 70.24 142.76 70.768 144.382 70.217 146.077 68.839 147.08L67.617 147.968 69.088 149.991 70.31 149.103C71.688 148.099 73.471 148.099 74.85 149.101 76.23 150.103 76.782 151.798 76.255 153.42L75.789 154.856zM79.528 158.173L73.27 156.141 74.353 152.802C74.661 151.853 74.205 151.104 73.675 150.72 73.146 150.336 72.294 150.135 71.486 150.72L68.647 152.785 64.823 147.527 67.663 145.463C68.469 144.875 68.54 144.001 68.338 143.379 68.136 142.758 67.564 142.093 66.567 142.093L66.566 142.093 63.056 142.094 63.053 135.514 66.563 135.512C67.562 135.512 68.133 134.847 68.335 134.225 68.537 133.602 68.465 132.729 67.657 132.142L64.817 130.08 68.682 124.755 71.523 126.817C72.329 127.402 73.183 127.201 73.713 126.816 74.242 126.431 74.697 125.682 74.389 124.734L73.303 121.395 79.56 119.359 80.646 122.697C80.955 123.645 81.763 123.983 82.417 123.983L82.418 123.983C83.072 123.983 83.881 123.644 84.189 122.695L85.272 119.355 91.533 121.382 90.449 124.716C90.142 125.661 90.595 126.406 91.121 126.788 91.651 127.173 92.506 127.373 93.316 126.785L96.146 124.694 100.004 129.932 97.115 131.898C96.471 132.367 96.214 133.097 96.453 133.834 96.646 134.427 97.216 135.061 98.237 135.061L101.747 135.061 101.749 142.061 98.238 142.061C97.238 142.061 96.667 142.723 96.466 143.342 96.266 143.958 96.339 144.825 97.145 145.41L99.989 147.446 96.119 152.776 93.279 150.713C92.471 150.127 91.619 150.329 91.089 150.714 90.56 151.099 90.104 151.848 90.413 152.797L91.498 156.135 85.241 158.171 84.155 154.833C83.847 153.884 83.038 153.546 82.384 153.546 81.729 153.546 80.92 153.885 80.612 154.834L79.528 158.173z"/>
    <path fill="#F58E70" d="M82.405,137.018 C82.312,137.018 82.219,137.026 82.126,137.041 C81.665,137.114 81.261,137.363 80.987,137.74 C80.422,138.52 80.597,139.615 81.377,140.179 C82.155,140.744 83.25,140.57 83.815,139.789 C84.089,139.412 84.199,138.95 84.126,138.49 C84.052,138.029 83.804,137.625 83.426,137.351 L83.425,137.351 C83.124,137.133 82.77,137.018 82.405,137.018 Z M82.396,142.51 C81.634,142.51 80.866,142.279 80.204,141.799 C78.531,140.587 78.156,138.24 79.367,136.567 C79.954,135.757 80.822,135.223 81.81,135.066 C82.799,134.91 83.789,135.144 84.599,135.732 C85.41,136.319 85.943,137.186 86.101,138.174 C86.258,139.162 86.022,140.153 85.435,140.963 C84.703,141.973 83.558,142.51 82.396,142.51 Z"/>
    <path fill="#48515A" d="M80.19,128.353 C80.13,127.803 80.521,127.303 81.07,127.243 C81.62,127.183 82.12,127.573 82.18,128.123 C82.24,128.674 81.85,129.163 81.3,129.234 C81.26,129.234 81.22,129.234 81.18,129.234 C80.68,129.234 80.251,128.864 80.19,128.353 Z M84.82,129.473 C84.28,129.333 83.96,128.793 84.1,128.253 C84.24,127.723 84.79,127.404 85.32,127.533 C85.86,127.674 86.18,128.223 86.04,128.753 C85.92,129.203 85.521,129.503 85.07,129.503 C84.99,129.503 84.9,129.493 84.82,129.473 Z M76.581,129.844 C76.32,129.364 76.51,128.753 77.001,128.493 C77.49,128.243 78.09,128.424 78.35,128.913 C78.61,129.404 78.42,130.013 77.93,130.263 C77.78,130.344 77.62,130.384 77.47,130.384 C77.11,130.384 76.76,130.183 76.581,129.844 Z M88.03,130.993 C88.021,130.984 88.021,130.984 88.01,130.973 C87.561,130.654 87.46,130.023 87.78,129.583 C88.1,129.134 88.73,129.033 89.18,129.353 C89.18,129.353 89.18,129.364 89.19,129.364 L89.2,129.373 C89.2,129.373 89.2,129.373 89.21,129.373 C89.65,129.694 89.751,130.323 89.43,130.773 C89.23,131.043 88.93,131.183 88.62,131.183 C88.41,131.183 88.21,131.123 88.03,130.993 Z M73.76,132.553 C73.34,132.194 73.29,131.563 73.66,131.143 C74.02,130.723 74.65,130.683 75.07,131.043 C75.48,131.404 75.53,132.033 75.17,132.453 C74.97,132.683 74.69,132.803 74.41,132.803 C74.18,132.803 73.95,132.723 73.76,132.553 Z M90.46,133.553 C90.16,133.083 90.29,132.464 90.76,132.163 C91.22,131.864 91.84,131.993 92.14,132.464 C92.44,132.924 92.311,133.543 91.84,133.844 C91.68,133.953 91.49,134.003 91.3,134.003 C90.97,134.003 90.65,133.844 90.46,133.553 Z M72.09,136.094 C71.57,135.904 71.311,135.333 71.49,134.813 C71.68,134.293 72.26,134.023 72.771,134.214 C73.29,134.404 73.561,134.973 73.37,135.493 C73.23,135.904 72.84,136.154 72.43,136.154 C72.32,136.154 72.2,136.134 72.09,136.094 Z M91.8,136.813 C91.69,136.273 92.03,135.743 92.57,135.623 C93.11,135.513 93.64,135.864 93.76,136.404 C93.87,136.944 93.521,137.473 92.98,137.583 C92.91,137.603 92.84,137.603 92.78,137.603 C92.311,137.603 91.9,137.283 91.8,136.813 Z M70.8,139.013 C70.79,138.464 71.23,138.003 71.78,137.993 C72.331,137.984 72.79,138.424 72.8,138.973 C72.82,139.523 72.38,139.984 71.831,139.993 C71.82,139.993 71.811,139.993 71.8,139.993 C71.26,139.993 70.82,139.563 70.8,139.013 Z M92.69,141.484 C92.15,141.393 91.78,140.884 91.87,140.333 C91.96,139.793 92.48,139.424 93.02,139.513 C93.57,139.603 93.93,140.114 93.84,140.663 C93.84,140.663 93.84,140.663 93.85,140.663 C93.76,141.154 93.34,141.503 92.86,141.503 C92.811,141.503 92.751,141.493 92.69,141.484 Z M71.68,143.183 C71.47,142.674 71.71,142.094 72.22,141.884 C72.73,141.674 73.311,141.913 73.53,142.424 C73.74,142.933 73.49,143.523 72.98,143.734 C72.86,143.783 72.73,143.803 72.6,143.803 C72.21,143.803 71.84,143.573 71.68,143.183 Z M91.01,145.023 C90.54,144.734 90.38,144.123 90.66,143.654 C90.94,143.174 91.561,143.013 92.03,143.293 C92.51,143.583 92.67,144.194 92.38,144.663 C92.38,144.663 92.38,144.663 92.39,144.663 C92.2,144.984 91.86,145.154 91.52,145.154 C91.35,145.154 91.17,145.114 91.01,145.023 Z M74.001,146.763 C73.62,146.364 73.63,145.734 74.03,145.344 C74.43,144.964 75.061,144.984 75.45,145.384 C75.831,145.783 75.811,146.413 75.41,146.793 C75.22,146.984 74.97,147.073 74.72,147.073 C74.46,147.073 74.19,146.964 74.001,146.763 Z M88.18,147.714 C87.84,147.273 87.91,146.643 88.34,146.303 C88.78,145.964 89.41,146.033 89.751,146.473 C90.09,146.904 90.02,147.533 89.581,147.873 C89.4,148.023 89.18,148.094 88.96,148.094 C88.67,148.094 88.37,147.964 88.18,147.714 Z M77.45,149.253 C76.95,149.023 76.74,148.424 76.97,147.924 C77.21,147.424 77.811,147.214 78.3,147.444 L78.311,147.444 C78.811,147.683 79.021,148.283 78.78,148.773 C78.61,149.143 78.251,149.353 77.87,149.353 C77.73,149.353 77.59,149.323 77.45,149.253 Z M84.561,149.194 C84.4,148.663 84.69,148.103 85.22,147.944 C85.751,147.773 86.311,148.073 86.47,148.603 C86.63,149.134 86.331,149.694 85.8,149.853 C85.8,149.853 85.8,149.853 85.811,149.853 C85.71,149.884 85.61,149.893 85.51,149.893 C85.081,149.893 84.69,149.623 84.561,149.194 Z M81.57,150.333 C81.021,150.293 80.61,149.813 80.65,149.263 C80.68,148.714 81.16,148.303 81.71,148.344 C82.26,148.384 82.68,148.853 82.64,149.404 C82.6,149.933 82.16,150.333 81.64,150.333 C81.62,150.333 81.6,150.333 81.57,150.333 Z"/>
    <polygon fill="#48515A" points="35 185.061 37 185.061 37 181.061 35 181.061"/>
    <polygon fill="#48515A" points="35 175.061 37 175.061 37 171.061 35 171.061"/>
    <polygon fill="#48515A" points="29 179.061 33 179.061 33 177.061 29 177.061"/>
    <polygon fill="#48515A" points="39 179.061 43 179.061 43 177.061 39 177.061"/>
    <polygon fill="#48515A" points="42 106.061 44 106.061 44 102.061 42 102.061"/>
    <polygon fill="#48515A" points="42 96.061 44 96.061 44 92.061 42 92.061"/>
    <polygon fill="#48515A" points="36 100.061 40 100.061 40 98.061 36 98.061"/>
    <polygon fill="#48515A" points="46 100.061 50 100.061 50 98.061 46 98.061"/>
  </g>
</svg>
