<svg xmlns="http://www.w3.org/2000/svg" width="250" height="250" viewBox="0 0 250 250">
  <g fill="none" fill-rule="evenodd">
    <path fill="#475059" d="M43.062,190.513 C41.38,190.513 40.062,191.809 40.062,193.463 C40.062,195.156 41.408,196.513 43.062,196.513 L143.611,196.513 L150.117,193.513 L143.612,190.513 L43.062,190.513 Z M144.051,198.513 L43.062,198.513 C40.306,198.513 38.062,196.259 38.062,193.488 C38.062,190.734 40.306,188.513 43.062,188.513 L144.05,188.513 L154.894,193.513 L144.051,198.513 Z"/>
    <polygon fill="#475059" points="49 197.513 51 197.513 51 189.513 49 189.513"/>
    <polygon fill="#475059" points="50 194.513 143 194.513 143 192.513 50 192.513"/>
    <path fill="#FFF" d="M63.808,165.738 L63.041,168.089 L60.919,167.397 C58.575,166.633 56.622,169.315 58.069,171.311 L59.379,173.118 L56.082,175.508 L54.772,173.701 C53.325,171.705 50.168,172.727 50.166,175.192 L50.163,177.424 L46.091,177.42 L46.093,175.188 C46.096,172.722 42.942,171.694 41.49,173.687 L40.176,175.491 L36.884,173.094 L38.198,171.29 C39.649,169.297 37.702,166.611 35.356,167.37 L33.233,168.057 L31.978,164.183 L34.102,163.496 C36.448,162.736 36.451,159.419 34.107,158.654 L31.985,157.962 L32.706,155.751 L32.616,156.027 L33.226,154.157 L35.348,154.849 C37.692,155.613 39.645,152.931 38.197,150.935 L36.887,149.128 L40.184,146.737 L41.494,148.544 C42.942,150.54 46.098,149.518 46.1,147.053 L46.103,144.821 L50.175,144.825 L50.173,147.057 C50.171,149.522 53.325,150.551 54.776,148.557 L56.09,146.753 L59.382,149.15 L58.068,150.954 C56.617,152.948 58.565,155.634 60.91,154.874 L63.034,154.186 L64.288,158.061 L62.165,158.748 C59.819,159.508 59.816,162.826 62.16,163.59 L64.282,164.282 L63.673,166.151 L63.808,165.738"/>
    <path fill="#475059" d="M42.317,159.197 C41.812,160.751 41.942,162.409 42.682,163.865 C43.423,165.324 44.688,166.407 46.245,166.915 C49.449,167.962 52.909,166.208 53.963,163.008 C54.453,161.465 54.319,159.823 53.585,158.379 C52.843,156.92 51.578,155.838 50.022,155.33 C46.831,154.293 43.387,156.023 42.317,159.197 Z M48.138,169.217 C47.305,169.217 46.459,169.088 45.624,168.816 C43.561,168.143 41.882,166.707 40.899,164.772 C39.926,162.857 39.748,160.681 40.396,158.636 C41.785,154.376 46.38,152.037 50.642,153.429 C54.88,154.81 57.214,159.365 55.871,163.607 L55.872,163.607 L55.871,163.607 C55.871,163.608 55.871,163.609 55.871,163.609 C55.869,163.613 55.868,163.618 55.867,163.622 C55.861,163.64 55.855,163.657 55.85,163.674 L55.849,163.674 C54.713,167.063 51.54,169.217 48.138,169.217 Z"/>
    <path fill="#475059" d="M47.092,176.421 L49.165,176.423 L49.166,175.192 C49.167,173.627 50.13,172.304 51.62,171.822 C53.107,171.341 54.663,171.847 55.582,173.114 L56.305,174.112 L57.983,172.895 L57.26,171.898 C56.341,170.631 56.343,168.995 57.264,167.73 C58.185,166.466 59.741,165.963 61.229,166.446 L62.4,166.828 L63.021,164.922 L61.851,164.541 C60.363,164.055 59.402,162.731 59.404,161.166 C59.406,159.601 60.369,158.279 61.857,157.797 L63.029,157.417 L62.391,155.446 L61.218,155.825 C59.73,156.307 58.174,155.8 57.256,154.533 C56.337,153.267 56.339,151.631 57.26,150.366 L57.985,149.37 L56.31,148.15 L55.584,149.146 C54.664,150.411 53.105,150.915 51.619,150.43 C50.131,149.944 49.171,148.62 49.173,147.056 L49.174,145.824 L47.102,145.822 L47.101,147.054 C47.099,148.618 46.136,149.941 44.647,150.423 C43.159,150.905 41.603,150.398 40.685,149.131 L39.961,148.134 L38.284,149.35 L39.007,150.348 C39.925,151.614 39.924,153.25 39.003,154.515 C38.082,155.78 36.527,156.286 35.038,155.799 L33.866,155.418 L33.246,157.321 L34.417,157.703 C35.905,158.189 36.865,159.513 36.863,161.078 C36.861,162.642 35.898,163.965 34.41,164.447 L33.238,164.826 L33.876,166.798 L35.048,166.419 C36.535,165.936 38.092,166.443 39.011,167.711 C39.929,168.978 39.927,170.613 39.006,171.879 L38.281,172.875 L39.956,174.094 L40.682,173.098 C41.603,171.834 43.161,171.33 44.647,171.815 C46.134,172.3 47.095,173.624 47.093,175.189 L47.092,176.421 Z M51.163,178.425 L45.09,178.419 L45.093,175.187 C45.094,174.359 44.543,173.884 44.027,173.716 C43.511,173.547 42.787,173.607 42.299,174.275 L40.396,176.888 L35.487,173.314 L37.389,170.701 C37.877,170.032 37.71,169.324 37.392,168.884 C37.073,168.445 36.451,168.066 35.665,168.321 L32.589,169.317 L30.719,163.54 L33.793,162.545 C34.581,162.289 34.863,161.618 34.863,161.075 C34.864,160.533 34.584,159.861 33.797,159.605 L30.724,158.603 L32.585,152.896 L35.658,153.898 C36.446,154.154 37.066,153.777 37.386,153.338 C37.705,152.9 37.873,152.192 37.388,151.522 L35.491,148.905 L40.407,145.341 L42.304,147.957 C42.79,148.628 43.515,148.688 44.031,148.52 C44.548,148.353 45.1,147.88 45.101,147.052 L45.104,143.82 L51.176,143.826 L51.173,147.058 C51.172,147.885 51.723,148.36 52.239,148.528 C52.753,148.698 53.48,148.638 53.967,147.969 L55.87,145.356 L60.779,148.93 L58.877,151.543 C58.39,152.212 58.557,152.92 58.875,153.359 C59.194,153.799 59.815,154.178 60.602,153.923 L63.677,152.926 L65.548,158.704 L62.473,159.699 C61.686,159.955 61.405,160.625 61.404,161.168 C61.403,161.711 61.684,162.382 62.471,162.639 L65.543,163.64 L63.682,169.35 L60.609,168.348 C59.821,168.092 59.2,168.469 58.881,168.907 C58.561,169.346 58.393,170.054 58.879,170.724 L60.776,173.34 L55.859,176.905 L53.962,174.288 C53.477,173.618 52.75,173.556 52.235,173.725 C51.719,173.892 51.166,174.366 51.165,175.193 L51.163,178.425 Z"/>
    <polygon fill="#48515A" points="35 119.507 37 119.507 37 115.507 35 115.507"/>
    <polygon fill="#48515A" points="35 129.507 37 129.507 37 125.507 35 125.507"/>
    <polygon fill="#48515A" points="39 123.507 43 123.507 43 121.507 39 121.507"/>
    <polygon fill="#48515A" points="29 123.507 33 123.507 33 121.507 29 121.507"/>
    <polygon fill="#48515A" points="193 69.513 195 69.513 195 65.513 193 65.513"/>
    <polygon fill="#48515A" points="193 79.513 195 79.513 195 75.513 193 75.513"/>
    <polygon fill="#48515A" points="197 73.513 201 73.513 201 71.513 197 71.513"/>
    <polygon fill="#48515A" points="187 73.513 191 73.513 191 71.513 187 71.513"/>
    <polygon fill="#48515A" points="213 177.513 215 177.513 215 173.513 213 173.513"/>
    <polygon fill="#48515A" points="213 187.513 215 187.513 215 183.513 213 183.513"/>
    <polygon fill="#48515A" points="217 181.513 221 181.513 221 179.513 217 179.513"/>
    <polygon fill="#48515A" points="207 181.513 211 181.513 211 179.513 207 179.513"/>
    <path fill="#F58E70" d="M90.959 169.43C90.959 170.534 90.064 171.43 88.959 171.43 87.855 171.43 86.959 170.534 86.959 169.43 86.959 168.325 87.855 167.43 88.959 167.43 90.064 167.43 90.959 168.325 90.959 169.43M66.959 126.43C66.959 126.982 66.511 127.43 65.959 127.43 65.407 127.43 64.959 126.982 64.959 126.43 64.959 125.877 65.407 125.43 65.959 125.43 66.511 125.43 66.959 125.877 66.959 126.43"/>
    <path fill="#FFD15D" d="M212.965,149.436 C212.965,150.54 212.07,151.436 210.965,151.436 C209.861,151.436 208.965,150.54 208.965,149.436 C208.965,148.331 209.861,147.436 210.965,147.436 C212.07,147.436 212.965,148.331 212.965,149.436"/>
    <path fill="#5FE0ED" d="M124.856,37.06 C103.758,37.448 87.074,55.379 87.074,76.739 L87.074,128.759 L112.51,128.759 L112.441,121.973 C110.11,119.563 107.566,116.549 105.425,113.05 C100.149,104.426 98.074,93.199 98.074,82.276 L98.074,81.428 L121.675,81.428 L121.424,70.047 C129.134,77.359 139.303,81.428 149.868,81.428 L154.074,81.428 L154.074,82.276 C154.074,93.243 151.53,104.376 146.195,112.988 C142.67,118.678 137.793,123.166 134.758,125.779 L139.093,128.759 L164.074,128.759 L164.074,76.113 C164.074,54.299 146.497,36.662 124.856,37.06"/>
    <polyline fill="#EAEAE9" points="95.424 161.152 108.424 161.152 104.299 155.078 102.174 155.078 95.424 161.152"/>
    <polyline fill="#EAEAE9" points="154.674 161.152 141.674 161.152 145.799 155.078 147.924 155.078 154.674 161.152"/>
    <polyline fill="#EAEAE9" points="112.425 141.916 104.422 155.076 123.424 182.406 125.442 182.406 112.425 141.916"/>
    <polyline fill="#EAEAE9" points="139.033 132.175 147.424 140.906 155.442 160.132 153.442 160.132 148.444 155.076 146.444 155.076 138.442 141.916 139.033 132.175"/>
    <path fill="#EAEAE9" d="M139.074,137.541 L139.074,122.962 L133.66,126.349 C132.199,127.263 130.514,127.747 128.796,127.747 L122.761,127.747 C120.605,127.747 118.517,126.985 116.857,125.593 L112.438,121.887 L112.44,127.623 L139.074,137.541"/>
    <path fill="#48515A" d="M128.496,128.992 L122.299,128.992 C119.868,128.992 117.73,128.209 115.943,126.664 C112.688,123.851 108.075,119.296 104.572,113.572 C98.374,103.442 97.074,90.962 97.074,82.276 L97.074,81.428 L99.074,81.428 L99.074,82.276 C99.074,90.705 100.324,102.796 106.278,112.528 C109.646,118.033 114.104,122.431 117.25,125.151 C118.664,126.373 120.362,126.992 122.299,126.992 L128.496,126.992 C130.693,126.992 132.491,126.407 133.839,125.252 C135.725,123.638 141.462,118.728 145.345,112.462 C150.329,104.415 153.074,93.695 153.074,82.276 L153.074,81.428 L155.074,81.428 L155.074,82.276 C155.074,94.062 152.222,105.156 147.045,113.515 C142.999,120.046 137.084,125.108 135.14,126.772 C133.419,128.245 131.184,128.992 128.496,128.992"/>
    <polygon fill="#48515A" points="111.424 132.682 113.424 132.682 113.424 121.926 111.424 121.926"/>
    <polygon fill="#48515A" points="137.424 133.314 139.424 133.314 139.424 122.685 137.424 122.685"/>
    <path fill="#48515A" d="M187.352 212.946L185.352 212.946 185.352 211.849 181.096 169.181C179.863 159.887 173.717 151.986 165.058 148.593L147.073 141.842 147.776 139.97 165.774 146.726C175.124 150.389 181.75 158.903 183.082 168.95L187.347 211.75 187.352 212.946M65.579 212.946L63.579 212.946 63.579 211.849 67.845 168.983C69.181 158.903 75.808 150.389 85.144 146.731L103.071 139.971 103.777 141.842 85.861 148.597C77.214 151.986 71.068 159.887 69.831 169.213L65.574 211.948 65.579 212.946"/>
    <path fill="#48515A" d="M123.947,181.405 L124.053,181.405 L111.425,142.072 L111.425,134.23 L104.272,141.47 L96.923,159.132 L97.007,159.132 L102.005,154.076 L104.945,154.076 L123.947,181.405 Z M126.795,183.405 L122.902,183.405 L103.9,156.076 L102.84,156.076 L97.842,161.132 L93.925,161.132 L102.576,140.342 L113.425,129.36 L113.425,141.759 L126.795,183.405 Z"/>
    <path fill="#48515A" d="M126.813,181.405 L126.92,181.405 L145.921,154.076 L148.861,154.076 L153.86,159.132 L153.942,159.132 L146.576,141.47 L139.441,134.234 L139.394,142.221 L126.813,181.405 Z M127.965,183.405 L124.071,183.405 L137.441,141.759 L137.441,129.357 L148.272,140.342 L156.943,161.132 L153.025,161.132 L148.026,156.076 L146.966,156.076 L127.965,183.405 Z"/>
    <path fill="#F58E70" d="M180.969,94.323 C168.287,94.323 157.969,104.641 157.969,117.323 C157.969,130.005 168.287,140.323 180.969,140.323 C193.651,140.323 203.969,130.005 203.969,117.323 C203.969,104.641 193.651,94.323 180.969,94.323 Z M180.969,142.323 C167.184,142.323 155.969,131.108 155.969,117.323 C155.969,103.538 167.184,92.323 180.969,92.323 C194.754,92.323 205.969,103.538 205.969,117.323 C205.969,131.108 194.754,142.323 180.969,142.323 Z"/>
    <polyline fill="#48515A" points="182 129.513 180 129.513 180 116.513 188 116.513 188 118.513 182 118.513 182 129.513"/>
    <path fill="#48515A" d="M181 138.513C180.448 138.513 180 138.066 180 137.513L180 134.513C180 133.961 180.448 133.513 181 133.513 181.552 133.513 182 133.961 182 134.513L182 137.513C182 138.066 181.552 138.513 181 138.513M165 118.513L161 118.513C160.448 118.513 160 118.066 160 117.513 160 116.961 160.448 116.513 161 116.513L165 116.513C165.552 116.513 166 116.961 166 117.513 166 118.066 165.552 118.513 165 118.513"/>
    <path fill="#48515A" d="M181 138.513C180.448 138.513 180 138.066 180 137.513L180 134.513C180 133.961 180.448 133.513 181 133.513 181.552 133.513 182 133.961 182 134.513L182 137.513C182 138.066 181.552 138.513 181 138.513M165 118.513L161 118.513C160.448 118.513 160 118.066 160 117.513 160 116.961 160.448 116.513 161 116.513L165 116.513C165.552 116.513 166 116.961 166 117.513 166 118.066 165.552 118.513 165 118.513M170.804 135.807C170.635 135.807 170.463 135.764 170.305 135.673 169.827 135.397 169.663 134.785 169.939 134.307L171.716 131.228C171.992 130.75 172.602 130.585 173.083 130.861 173.561 131.138 173.725 131.749 173.449 132.228L171.671 135.307C171.486 135.628 171.15 135.807 170.804 135.807M163.374 128.132C163.028 128.132 162.692 127.953 162.507 127.632 162.231 127.154 162.395 126.542 162.873 126.266L165.952 124.488C166.429 124.212 167.042 124.376 167.318 124.854 167.594 125.332 167.431 125.944 166.952 126.22L163.873 127.998C163.716 128.089 163.543 128.132 163.374 128.132"/>
    <path fill="#48515A" d="M181 138.513C180.448 138.513 180 138.066 180 137.513L180 134.513C180 133.961 180.448 133.513 181 133.513 181.552 133.513 182 133.961 182 134.513L182 137.513C182 138.066 181.552 138.513 181 138.513M201 118.513L197 118.513C196.448 118.513 196 118.066 196 117.513 196 116.961 196.448 116.513 197 116.513L201 116.513C201.552 116.513 202 116.961 202 117.513 202 118.066 201.552 118.513 201 118.513M191.142 135.807C190.796 135.807 190.46 135.628 190.275 135.307L188.497 132.228C188.221 131.75 188.385 131.138 188.863 130.861 189.34 130.585 189.953 130.75 190.229 131.228L192.007 134.307C192.283 134.785 192.12 135.397 191.641 135.673 191.484 135.764 191.312 135.807 191.142 135.807M198.572 128.132C198.403 128.132 198.23 128.089 198.073 127.998L194.994 126.22C194.516 125.944 194.352 125.332 194.628 124.854 194.904 124.376 195.516 124.212 195.994 124.488L199.073 126.266C199.552 126.542 199.715 127.154 199.439 127.632 199.254 127.953 198.918 128.132 198.572 128.132M181 101.513C180.448 101.513 180 101.066 180 100.513L180 97.513C180 96.961 180.448 96.513 181 96.513 181.552 96.513 182 96.961 182 97.513L182 100.513C182 101.066 181.552 101.513 181 101.513"/>
    <path fill="#48515A" d="M181 101.513C180.448 101.513 180 101.066 180 100.513L180 97.513C180 96.961 180.448 96.513 181 96.513 181.552 96.513 182 96.961 182 97.513L182 100.513C182 101.066 181.552 101.513 181 101.513M172.583 104.351C172.238 104.351 171.902 104.171 171.716 103.851L169.939 100.772C169.663 100.293 169.827 99.682 170.305 99.405 170.784 99.128 171.395 99.294 171.671 99.772L173.449 102.851C173.725 103.329 173.561 103.941 173.083 104.217 172.925 104.308 172.753 104.351 172.583 104.351M166.451 110.724C166.282 110.724 166.109 110.681 165.952 110.59L162.873 108.813C162.395 108.536 162.231 107.924 162.507 107.446 162.783 106.968 163.395 106.804 163.873 107.08L166.952 108.858C167.431 109.134 167.594 109.746 167.318 110.224 167.133 110.545 166.797 110.724 166.451 110.724"/>
    <path fill="#48515A" d="M181 101.513C180.448 101.513 180 101.066 180 100.513L180 97.513C180 96.961 180.448 96.513 181 96.513 181.552 96.513 182 96.961 182 97.513L182 100.513C182 101.066 181.552 101.513 181 101.513M189.362 104.351C189.193 104.351 189.021 104.308 188.863 104.217 188.385 103.941 188.221 103.329 188.497 102.851L190.275 99.772C190.551 99.294 191.162 99.128 191.641 99.405 192.12 99.682 192.283 100.294 192.007 100.772L190.229 103.851C190.044 104.171 189.708 104.351 189.362 104.351M195.495 110.724C195.149 110.724 194.813 110.545 194.628 110.224 194.352 109.746 194.516 109.134 194.994 108.858L198.073 107.08C198.55 106.804 199.163 106.968 199.439 107.446 199.715 107.924 199.552 108.536 199.073 108.813L195.994 110.59C195.837 110.681 195.665 110.724 195.495 110.724"/>
  </g>
</svg>
