<svg xmlns="http://www.w3.org/2000/svg" width="250" height="250" viewBox="0 0 250 250">
  <g fill="none" fill-rule="evenodd">
    <polygon fill="#DFE0E0" points="174.033 172.48 210.033 172.48 210.033 167.48 174.033 167.48"/>
    <path fill="#5FE0ED" d="M177.015,164.48 L175.033,164.48 L175.033,121.946 L140.179,158.336 L134.858,153.019 L170.32,116.972 L181.847,113.045 C183.599,116.76 187.947,119.397 193.02,119.397 C197.98,119.397 202.254,116.876 204.079,113.291 L217.033,119.329 L217.033,170.173 L216.777,170.48 L213.033,170.48 L215.033,170.48 L215.033,129.48 L209.033,129.48 L209.033,164.48 L177.015,164.48"/>
    <polyline fill="#FFD15D" points="64.49 110.48 109.989 110.48 80.74 71.48 64.49 110.48"/>
    <path fill="#DFE0E0" d="M186.958,105.874 L198.231,109.022 L199.033,104.532 L199.033,101.854 C199.033,101.629 197.378,103.006 196.52,103.738 C195.841,104.318 194.958,104.48 194.066,104.48 L191.499,104.48 C190.62,104.48 189.763,104.345 189.097,103.772 L187.144,102.437 L186.958,105.874"/>
    <path fill="#48515A" d="M184.094 110.538C183.683 110.538 183.297 110.283 183.151 109.872 182.967 109.352 183.239 108.781 183.76 108.596L186.033 107.789 186.033 102.48C186.033 101.927 186.48 101.48 187.033 101.48 187.586 101.48 188.033 101.927 188.033 102.48L188.033 109.202 184.428 110.481C184.317 110.52 184.205 110.538 184.094 110.538M202.292 110.467C202.188 110.467 202.084 110.452 201.979 110.417L198.033 109.121 198.033 101.845C198.033 101.087 198.58 100.573 199.02 100.16 199.14 100.046 199.321 99.876 199.366 99.805L201.868 94.612 204.532 93.303 205.081 90.622C205.075 90.593 205.063 90.576 205.05 90.563 205.011 90.523 204.923 90.48 204.793 90.48L203.013 90.48 203.263 89.276C203.336 88.925 203.452 88.508 203.575 88.069 203.79 87.303 204.033 86.436 204.033 85.874L204.033 85.428 206.033 85.428 206.033 85.874C206.033 86.703 205.756 87.7 205.509 88.582 205.881 88.693 206.215 88.892 206.483 89.168 206.888 89.584 207.102 90.14 207.085 90.734L207.064 90.907 206.294 94.666 203.37 96.102 201.18 100.641C201.052 100.994 200.715 101.31 200.39 101.617 200.282 101.717 200.114 101.875 200.033 101.975L200.033 107.673 202.604 108.517C203.129 108.69 203.414 109.254 203.242 109.78 203.104 110.201 202.713 110.467 202.292 110.467"/>
    <path fill="#48515A" d="M194.033 105.48L191.486 105.48C190.188 105.48 189.182 105.16 188.408 104.499 188.132 104.263 187.813 104.01 187.479 103.744 186.169 102.705 184.814 101.63 184.384 100.474L182.248 96.002 179.749 94.582 178.645 90.703C178.645 89.664 179.319 88.834 180.297 88.57 180.122 87.439 180.033 86.535 180.033 85.874L180.033 85.48C180.033 84.927 180.48 84.48 181.033 84.48 181.586 84.48 182.033 84.927 182.033 85.48L182.033 85.874C182.033 86.607 182.177 87.792 182.448 89.303L182.659 90.48 180.981 90.48C180.896 90.48 180.719 90.495 180.662 90.617L181.438 93.242 183.782 94.575 186.224 99.695C186.494 100.41 187.782 101.432 188.722 102.178 189.075 102.459 189.414 102.728 189.707 102.978 190.108 103.321 190.674 103.48 191.486 103.48L194.033 103.48C194.586 103.48 195.033 103.927 195.033 104.48 195.033 105.033 194.586 105.48 194.033 105.48M177.032 167.477C177.032 166.927 177.482 166.477 178.032 166.477 178.582 166.477 179.032 166.927 179.032 167.477 179.032 168.027 178.582 168.477 178.032 168.477 177.482 168.477 177.032 168.027 177.032 167.477zM181.032 167.477C181.032 166.927 181.482 166.477 182.032 166.477 182.582 166.477 183.032 166.927 183.032 167.477 183.032 168.027 182.582 168.477 182.032 168.477 181.482 168.477 181.032 168.027 181.032 167.477zM185.032 167.477C185.032 166.927 185.482 166.477 186.032 166.477 186.582 166.477 187.032 166.927 187.032 167.477 187.032 168.027 186.582 168.477 186.032 168.477 185.482 168.477 185.032 168.027 185.032 167.477zM189.032 167.477C189.032 166.927 189.482 166.477 190.032 166.477 190.582 166.477 191.032 166.927 191.032 167.477 191.032 168.027 190.582 168.477 190.032 168.477 189.482 168.477 189.032 168.027 189.032 167.477zM193.032 167.477C193.032 166.927 193.482 166.477 194.032 166.477 194.582 166.477 195.032 166.927 195.032 167.477 195.032 168.027 194.582 168.477 194.032 168.477 193.482 168.477 193.032 168.027 193.032 167.477zM197.032 167.477C197.032 166.927 197.482 166.477 198.032 166.477 198.582 166.477 199.032 166.927 199.032 167.477 199.032 168.027 198.582 168.477 198.032 168.477 197.482 168.477 197.032 168.027 197.032 167.477zM201.032 167.477C201.032 166.927 201.482 166.477 202.032 166.477 202.582 166.477 203.032 166.927 203.032 167.477 203.032 168.027 202.582 168.477 202.032 168.477 201.482 168.477 201.032 168.027 201.032 167.477zM205.032 167.477C205.032 166.927 205.482 166.477 206.032 166.477 206.582 166.477 207.032 166.927 207.032 167.477 207.032 168.027 206.582 168.477 206.032 168.477 205.482 168.477 205.032 168.027 205.032 167.477z"/>
    <polygon fill="#48515A" points="191.033 216.48 193.033 216.48 193.033 177.48 191.033 177.48"/>
    <polyline fill="#48515A" points="211.033 216.48 209.033 216.48 209.033 166.48 211.033 166.48 211.033 129.48 213.033 129.48 213.033 168.48 211.033 168.48 211.033 216.48"/>
    <polyline fill="#48515A" points="214.441 186.48 210.033 186.48 210.033 184.48 213.599 184.48 215.033 183.009 215.033 173.48 217.033 173.48 217.033 183.824 214.441 186.48"/>
    <polyline fill="#48515A" points="178.353 176.48 174.033 176.48 174.033 174.48 177.187 174.48 179.033 171.216 179.033 169.48 181.033 169.48 181.033 171.744 178.353 176.48"/>
    <polyline fill="#48515A" points="210.033 176.48 205.399 176.48 203.033 171.714 203.033 169.48 205.033 169.48 205.033 171.245 206.64 174.48 210.033 174.48 210.033 176.48"/>
    <path fill="#48515A" d="M198.02 98.397C197.896 98.397 197.77 98.374 197.648 98.326L193.019 96.473 188.392 98.326C187.879 98.531 187.297 98.282 187.091 97.769 186.886 97.255 187.135 96.673 187.647 96.468L193.019 94.319 198.391 96.468C198.903 96.673 199.153 97.255 198.948 97.768 198.792 98.16 198.416 98.397 198.02 98.397M194.442 74.857C193.893 74.767 193.522 74.257 193.603 73.717 193.683 73.167 194.192 72.786 194.742 72.877 195.282 72.957 195.662 73.467 195.582 74.017 195.503 74.507 195.072 74.867 194.593 74.867 194.543 74.867 194.492 74.857 194.442 74.857zM189.633 74.137C189.522 73.597 189.872 73.067 190.412 72.967 190.412 72.967 190.412 72.967 190.412 72.957 190.963 72.857 191.482 73.207 191.593 73.747 191.702 74.286 191.353 74.817 190.803 74.927L190.813 74.927C190.742 74.937 190.673 74.947 190.612 74.947 190.143 74.947 189.723 74.617 189.633 74.137zM197.893 75.997L197.902 75.997C197.412 75.737 197.223 75.137 197.492 74.647 197.742 74.157 198.353 73.977 198.843 74.237 199.322 74.497 199.513 75.107 199.253 75.587 199.072 75.927 198.723 76.117 198.362 76.117 198.202 76.117 198.043 76.077 197.893 75.997zM186.043 75.897C185.763 75.427 185.912 74.817 186.383 74.527 186.862 74.237 187.473 74.397 187.763 74.867 188.043 75.337 187.893 75.957 187.423 76.237 187.253 76.337 187.082 76.387 186.902 76.387 186.563 76.387 186.232 76.217 186.043 75.897zM200.772 78.237C200.393 77.826 200.423 77.197 200.832 76.827 201.242 76.457 201.872 76.487 202.242 76.887 202.622 77.297 202.593 77.927 202.183 78.307 201.992 78.477 201.753 78.567 201.513 78.567 201.242 78.567 200.973 78.457 200.772 78.237zM183.232 78.737C182.813 78.377 182.763 77.747 183.112 77.326 183.473 76.907 184.103 76.847 184.522 77.207 184.942 77.567 185.003 78.197 184.643 78.617 184.442 78.847 184.162 78.967 183.872 78.967 183.652 78.967 183.423 78.897 183.232 78.737zM202.902 81.117C202.662 80.617 202.883 80.017 203.383 79.786 203.893 79.557 204.482 79.777 204.713 80.277 204.942 80.777 204.723 81.377 204.223 81.607 204.082 81.667 203.942 81.697 203.803 81.697 203.423 81.697 203.063 81.487 202.902 81.117zM181.482 82.326C180.963 82.127 180.713 81.547 180.912 81.036 181.112 80.517 181.692 80.267 182.202 80.467 182.723 80.667 182.973 81.247 182.772 81.757 182.622 82.157 182.242 82.397 181.843 82.397 181.723 82.397 181.603 82.377 181.482 82.326zM203.992 84.617C203.933 84.067 204.322 83.567 204.872 83.507 205.423 83.447 205.912 83.837 205.982 84.387 206.043 84.937 205.643 85.437 205.103 85.497 205.063 85.497 205.022 85.507 204.982 85.507 204.482 85.507 204.053 85.127 203.992 84.617zM181.003 86.297C180.452 86.277 180.022 85.817 180.043 85.257 180.053 84.707 180.522 84.277 181.072 84.297 181.622 84.317 182.053 84.777 182.043 85.326 182.022 85.867 181.572 86.297 181.043 86.297 181.032 86.297 181.013 86.297 181.003 86.297zM204.383 89.437C203.843 89.317 203.503 88.777 203.622 88.237 203.742 87.697 204.272 87.367 204.813 87.487 205.353 87.607 205.692 88.137 205.572 88.677 205.473 89.147 205.063 89.457 204.603 89.457 204.532 89.457 204.452 89.447 204.383 89.437zM180.402 89.417C180.402 89.417 180.402 89.417 180.402 89.427 180.322 88.877 180.692 88.367 181.242 88.286 181.782 88.197 182.293 88.576 182.383 89.127 182.463 89.667 182.082 90.177 181.543 90.267 181.492 90.267 181.442 90.277 181.393 90.277 180.902 90.277 180.473 89.917 180.402 89.417zM173.094 216.545L173.021 168.48 171.033 168.48 171.033 131.906 140.241 164.054 129.221 153.041 168.132 113.492 182.015 108.771 185.021 108.182 185.021 109.397C185.021 112.705 188.609 115.397 193.021 115.397 197.434 115.397 201.022 112.705 201.022 109.397L201.022 108.131 204.089 108.881 221.033 116.781 221.033 171.824 218.44 174.48 210.033 174.48 210.033 172.48 217.599 172.48 219.033 171.009 219.033 118.054 203.336 110.737 202.903 110.634C202.157 114.46 198.011 117.397 193.021 117.397 188.014 117.397 183.854 114.437 183.132 110.59L182.466 110.721 169.226 115.232 132.039 153.03 140.21 161.195 173.033 126.927 173.033 166.48 175.018 166.48 175.094 216.541 173.094 216.545"/>
    <path fill="#48515A" d="M134.02,171.48 L129.997,171.48 C127.307,171.48 125.033,169.099 125.033,166.281 L125.033,160.258 C125.033,159.99 125.142,159.733 125.333,159.544 L131.333,153.656 C131.726,153.27 132.358,153.273 132.747,153.669 C133.134,154.063 133.128,154.697 132.733,155.083 L127.033,160.678 L127.033,166.281 C127.033,167.985 128.418,169.48 129.997,169.48 L133.605,169.48 L137.313,165.773 C137.5,165.585 137.754,165.48 138.02,165.48 L139.033,165.48 L139.033,162.48 C139.033,161.927 139.48,161.48 140.033,161.48 C140.586,161.48 141.033,161.927 141.033,162.48 L141.033,166.48 C141.033,167.033 140.586,167.48 140.033,167.48 L138.434,167.48 L134.727,171.187 C134.539,171.374 134.285,171.48 134.02,171.48"/>
    <path fill="#48515A" d="M140.033 215.48C139.48 215.48 139.033 215.033 139.033 214.48L139.033 172.258C139.033 170.435 138.324 168.761 136.983 167.419 136.593 167.029 136.593 166.395 136.983 166.005 137.374 165.615 138.007 165.615 138.397 166.005 140.122 167.731 141.033 169.893 141.033 172.258L141.033 214.48C141.033 215.033 140.586 215.48 140.033 215.48M124.02 173.258C123.467 173.258 123.02 172.811 123.02 172.258 123.02 169.978 123.874 167.802 125.425 166.134 125.803 165.729 126.436 165.708 126.838 166.082 127.242 166.458 127.266 167.091 126.89 167.495 125.684 168.793 125.02 170.485 125.02 172.258 125.02 172.811 124.572 173.258 124.02 173.258"/>
    <polygon fill="#48515A" points="196.033 131.48 206.033 131.48 206.033 129.48 196.033 129.48"/>
    <path fill="#FFD15D" d="M169.038,61.391 C169.038,74.093 158.74,84.391 146.038,84.391 C133.335,84.391 123.038,74.093 123.038,61.391 C123.038,48.688 133.335,38.391 146.038,38.391 C158.74,38.391 169.038,48.688 169.038,61.391"/>
    <path fill="#48515A" d="M147.902 35.457C147.343 35.417 146.933 34.937 146.973 34.387 147.013 33.837 147.492 33.417 148.043 33.457 148.593 33.497 149.003 33.977 148.973 34.527 148.933 35.057 148.492 35.457 147.973 35.457 147.942 35.457 147.923 35.457 147.902 35.457zM142.942 34.547C142.893 33.997 143.313 33.517 143.862 33.477 144.412 33.427 144.893 33.847 144.933 34.397 144.973 34.947 144.563 35.427 144.013 35.467 143.992 35.467 143.963 35.467 143.933 35.467 143.423 35.467 142.982 35.067 142.942 34.547zM151.742 36.017C151.202 35.897 150.862 35.367 150.982 34.827 151.103 34.286 151.643 33.947 152.183 34.067 152.713 34.187 153.053 34.717 152.933 35.257 152.832 35.727 152.423 36.047 151.963 36.047 151.893 36.047 151.813 36.036 151.742 36.017zM138.973 35.307C138.853 34.767 139.183 34.227 139.723 34.107 140.263 33.977 140.803 34.317 140.923 34.857 141.053 35.397 140.713 35.927 140.173 36.057 140.103 36.067 140.022 36.076 139.952 36.076 139.492 36.076 139.082 35.767 138.973 35.307zM155.463 37.147C154.942 36.947 154.692 36.367 154.893 35.857 155.093 35.337 155.673 35.087 156.183 35.286 156.702 35.487 156.952 36.067 156.753 36.577 156.603 36.977 156.223 37.217 155.822 37.217 155.702 37.217 155.572 37.197 155.463 37.147zM135.173 36.647C134.963 36.127 135.213 35.547 135.732 35.347 136.242 35.147 136.822 35.397 137.032 35.907 137.232 36.427 136.982 37.007 136.463 37.207 136.343 37.257 136.223 37.277 136.103 37.277 135.702 37.277 135.322 37.036 135.173 36.647zM158.963 38.827C158.482 38.547 158.322 37.937 158.593 37.457 158.872 36.977 159.482 36.817 159.963 37.087 160.442 37.367 160.603 37.977 160.332 38.457 160.143 38.777 159.813 38.957 159.463 38.957 159.293 38.957 159.122 38.917 158.963 38.827zM131.612 38.547C131.332 38.067 131.492 37.447 131.973 37.177 132.442 36.897 133.063 37.057 133.343 37.536 133.612 38.007 133.452 38.627 132.982 38.907L132.973 38.907C132.822 38.997 132.643 39.036 132.473 39.036 132.133 39.036 131.793 38.857 131.612 38.547zM162.183 41.007C161.742 40.667 161.673 40.036 162.013 39.607 162.362 39.167 162.992 39.097 163.423 39.437 163.853 39.777 163.933 40.407 163.582 40.847 163.383 41.097 163.093 41.227 162.793 41.227 162.582 41.227 162.362 41.157 162.183 41.007zM128.372 40.947C128.022 40.517 128.093 39.887 128.522 39.547 128.522 39.547 128.522 39.547 128.522 39.536 128.952 39.197 129.582 39.267 129.933 39.697 130.272 40.127 130.202 40.757 129.772 41.097 129.593 41.247 129.372 41.317 129.152 41.317 128.862 41.317 128.572 41.197 128.372 40.947zM165.032 43.637C164.662 43.237 164.683 42.607 165.082 42.227 165.492 41.847 166.122 41.867 166.492 42.277 166.872 42.677 166.853 43.307 166.452 43.687 166.253 43.867 166.013 43.957 165.763 43.957 165.503 43.957 165.232 43.847 165.032 43.637zM125.522 43.807C125.112 43.437 125.093 42.797 125.463 42.397 125.843 41.987 126.473 41.967 126.883 42.337 127.282 42.707 127.313 43.347 126.933 43.747 126.742 43.967 126.473 44.067 126.202 44.067 125.963 44.067 125.713 43.987 125.522 43.807zM167.473 46.667C167.152 46.207 167.272 45.587 167.723 45.277 168.183 44.967 168.803 45.076 169.112 45.536 169.112 45.536 169.112 45.536 169.122 45.536 169.433 45.987 169.313 46.607 168.862 46.927 168.683 47.047 168.492 47.097 168.293 47.097 167.973 47.097 167.662 46.947 167.473 46.667zM123.133 47.057C122.673 46.747 122.553 46.127 122.862 45.667 123.173 45.217 123.793 45.097 124.253 45.407 124.713 45.717 124.832 46.337 124.522 46.797 124.322 47.076 124.013 47.237 123.692 47.237 123.492 47.237 123.303 47.177 123.133 47.057zM169.423 50.017C169.183 49.527 169.393 48.927 169.883 48.687 170.383 48.437 170.982 48.647 171.223 49.147 171.463 49.637 171.263 50.237 170.763 50.477 170.622 50.547 170.473 50.577 170.322 50.577 169.952 50.577 169.603 50.377 169.423 50.017zM121.242 50.627C120.753 50.387 120.543 49.786 120.772 49.297 121.013 48.797 121.612 48.587 122.112 48.826 122.612 49.067 122.822 49.657 122.582 50.157 122.412 50.517 122.053 50.727 121.673 50.727 121.532 50.727 121.383 50.697 121.242 50.627zM170.862 53.627C170.692 53.097 170.992 52.536 171.513 52.377 172.043 52.207 172.603 52.507 172.772 53.027 172.933 53.557 172.643 54.117 172.112 54.286 172.013 54.317 171.912 54.327 171.813 54.327 171.393 54.327 170.992 54.057 170.862 53.627zM119.923 54.447C119.393 54.277 119.093 53.717 119.253 53.197 119.412 52.667 119.973 52.367 120.503 52.527 121.032 52.697 121.332 53.247 121.173 53.777 121.032 54.207 120.633 54.487 120.213 54.487 120.112 54.487 120.013 54.477 119.923 54.447zM171.732 57.407L171.732 57.417C171.652 56.867 172.022 56.357 172.572 56.267 173.112 56.187 173.622 56.567 173.713 57.107 173.793 57.657 173.423 58.167 172.872 58.247 172.822 58.257 172.772 58.257 172.723 58.257 172.242 58.257 171.813 57.907 171.732 57.407zM119.183 58.417C118.633 58.326 118.253 57.817 118.343 57.277 118.423 56.727 118.923 56.357 119.473 56.437 120.022 56.517 120.393 57.017 120.313 57.567 120.242 58.067 119.813 58.427 119.322 58.427 119.282 58.427 119.232 58.417 119.183 58.417zM172.032 61.387L172.043 61.387C172.043 61.377 172.043 61.367 172.043 61.357 172.043 61.337 172.032 61.307 172.032 61.286 172.032 60.727 172.482 60.277 173.032 60.277 173.582 60.277 174.032 60.727 174.032 61.277 174.032 61.297 174.032 61.317 174.032 61.337 174.032 61.357 174.032 61.367 174.032 61.387 174.032 61.947 173.593 62.387 173.032 62.387 172.482 62.387 172.032 61.947 172.032 61.387zM118.032 61.447C118.032 60.897 118.482 60.447 119.032 60.447 119.593 60.447 120.032 60.887 120.032 61.447 120.032 61.997 119.593 62.447 119.043 62.447 118.482 62.447 118.043 61.997 118.032 61.447zM172.593 66.407C172.043 66.317 171.673 65.807 171.753 65.267 171.832 64.717 172.343 64.337 172.883 64.427 173.433 64.507 173.813 65.017 173.732 65.557 173.652 66.057 173.232 66.417 172.742 66.417 172.692 66.417 172.643 66.407 172.593 66.407zM118.353 65.617C118.272 65.067 118.652 64.557 119.192 64.477 119.742 64.397 120.253 64.777 120.332 65.317 120.412 65.867 120.032 66.377 119.492 66.457 119.442 66.467 119.393 66.467 119.343 66.467 118.853 66.467 118.433 66.107 118.353 65.617zM171.553 70.297C171.022 70.137 170.732 69.576 170.893 69.047 171.053 68.527 171.612 68.227 172.143 68.387 172.673 68.547 172.963 69.107 172.803 69.637 172.673 70.067 172.272 70.347 171.843 70.347 171.753 70.347 171.652 70.326 171.553 70.297zM119.293 69.697C119.122 69.167 119.423 68.607 119.952 68.447 120.473 68.277 121.032 68.576 121.202 69.107 121.362 69.627 121.072 70.187 120.543 70.357 120.442 70.387 120.343 70.397 120.242 70.397 119.822 70.397 119.423 70.127 119.293 69.697zM169.942 74.007C169.442 73.757 169.232 73.167 169.473 72.667 169.713 72.167 170.313 71.957 170.803 72.197 171.303 72.437 171.513 73.036 171.272 73.536 171.103 73.897 170.742 74.107 170.372 74.107 170.223 74.107 170.072 74.067 169.942 74.007zM120.822 73.587C120.582 73.087 120.793 72.487 121.293 72.247 121.782 72.007 122.383 72.217 122.622 72.717 122.862 73.207 122.662 73.807 122.162 74.047 122.022 74.117 121.872 74.147 121.732 74.147 121.353 74.147 121.003 73.937 120.822 73.587zM167.782 77.417C167.332 77.107 167.213 76.487 167.522 76.027 167.832 75.576 168.463 75.457 168.912 75.767 169.372 76.077 169.492 76.707 169.183 77.157 168.982 77.447 168.673 77.597 168.353 77.597 168.162 77.597 167.963 77.536 167.782 77.417zM122.923 77.197C122.612 76.747 122.732 76.117 123.183 75.807 123.643 75.497 124.263 75.617 124.572 76.067 124.883 76.527 124.772 77.147 124.313 77.457 124.143 77.577 123.942 77.637 123.753 77.637 123.433 77.637 123.122 77.487 122.923 77.197zM165.152 80.477C164.753 80.107 164.723 79.477 165.103 79.067 165.482 78.657 166.112 78.637 166.513 79.017 166.923 79.387 166.942 80.027 166.572 80.427 166.372 80.637 166.103 80.747 165.832 80.747 165.593 80.747 165.353 80.657 165.152 80.477zM125.543 80.467C125.162 80.057 125.183 79.427 125.593 79.057 125.992 78.677 126.622 78.697 127.003 79.097L127.003 79.107C127.383 79.507 127.362 80.137 126.952 80.517 126.763 80.697 126.513 80.786 126.272 80.786 126.003 80.786 125.732 80.677 125.543 80.467zM162.103 83.117C161.753 82.687 161.822 82.057 162.253 81.707 162.692 81.367 163.322 81.437 163.662 81.867 164.003 82.297 163.933 82.927 163.503 83.277 163.322 83.417 163.103 83.487 162.883 83.487 162.593 83.487 162.303 83.367 162.103 83.117zM128.612 83.307C128.173 82.957 128.103 82.326 128.452 81.897 128.793 81.467 129.423 81.397 129.853 81.737 130.282 82.087 130.362 82.717 130.013 83.147 129.813 83.397 129.522 83.527 129.232 83.527 129.013 83.527 128.793 83.447 128.612 83.307zM158.692 85.267C158.412 84.786 158.572 84.177 159.053 83.907 159.532 83.627 160.143 83.786 160.423 84.267 160.692 84.747 160.532 85.357 160.053 85.637 159.902 85.727 159.723 85.767 159.553 85.767 159.213 85.767 158.872 85.587 158.692 85.267zM132.063 85.657C131.582 85.387 131.423 84.777 131.702 84.297 131.973 83.817 132.582 83.657 133.063 83.927 133.543 84.207 133.702 84.817 133.433 85.297 133.242 85.617 132.912 85.797 132.563 85.797 132.393 85.797 132.223 85.747 132.063 85.657zM154.992 86.887C154.793 86.377 155.043 85.797 155.563 85.597 156.072 85.387 156.652 85.637 156.853 86.157 157.063 86.667 156.803 87.247 156.293 87.457 156.173 87.497 156.053 87.527 155.923 87.527 155.522 87.527 155.152 87.286 154.992 86.887zM135.843 87.477C135.322 87.277 135.072 86.697 135.272 86.177 135.473 85.667 136.053 85.407 136.563 85.607L136.563 85.617C137.082 85.817 137.332 86.397 137.133 86.907 136.982 87.297 136.603 87.547 136.202 87.547 136.082 87.547 135.963 87.517 135.843 87.477zM151.093 87.937C150.973 87.397 151.313 86.857 151.853 86.737 152.383 86.617 152.923 86.947 153.043 87.487 153.173 88.027 152.832 88.567 152.293 88.687 152.223 88.707 152.143 88.717 152.072 88.717 151.612 88.717 151.202 88.397 151.093 87.937zM139.843 88.697C139.303 88.576 138.963 88.047 139.082 87.507 139.202 86.967 139.742 86.627 140.282 86.747 140.822 86.867 141.162 87.407 141.032 87.947 140.933 88.407 140.522 88.727 140.063 88.727 139.992 88.727 139.912 88.717 139.843 88.697zM147.082 88.387C147.043 87.837 147.452 87.357 148.013 87.317 148.553 87.277 149.032 87.687 149.082 88.237 149.122 88.786 148.702 89.267 148.162 89.307 148.162 89.307 148.162 89.307 148.152 89.307 148.133 89.317 148.103 89.317 148.082 89.317 147.563 89.317 147.122 88.917 147.082 88.387zM143.973 89.317C143.423 89.277 143.013 88.797 143.053 88.247 143.093 87.697 143.572 87.277 144.122 87.317 144.673 87.357 145.082 87.837 145.043 88.397 145.013 88.917 144.572 89.317 144.053 89.317 144.022 89.317 144.003 89.317 143.973 89.317zM29.032 146.477C29.032 145.927 29.482 145.477 30.032 145.477 30.582 145.477 31.032 145.927 31.032 146.477 31.032 147.027 30.582 147.477 30.032 147.477 29.482 147.477 29.032 147.027 29.032 146.477zM33.032 146.477C33.032 145.927 33.482 145.477 34.032 145.477 34.582 145.477 35.032 145.927 35.032 146.477 35.032 147.027 34.582 147.477 34.032 147.477 33.482 147.477 33.032 147.027 33.032 146.477zM37.032 146.477C37.032 145.927 37.482 145.477 38.032 145.477 38.582 145.477 39.032 145.927 39.032 146.477 39.032 147.027 38.582 147.477 38.032 147.477 37.482 147.477 37.032 147.027 37.032 146.477zM41.032 146.477C41.032 145.927 41.482 145.477 42.032 145.477 42.582 145.477 43.032 145.927 43.032 146.477 43.032 147.027 42.582 147.477 42.032 147.477 41.482 147.477 41.032 147.027 41.032 146.477zM45.032 146.477C45.032 145.927 45.482 145.477 46.032 145.477 46.582 145.477 47.032 145.927 47.032 146.477 47.032 147.027 46.582 147.477 46.032 147.477 45.482 147.477 45.032 147.027 45.032 146.477zM49.032 146.477C49.032 145.927 49.482 145.477 50.032 145.477 50.582 145.477 51.032 145.927 51.032 146.477 51.032 147.027 50.582 147.477 50.032 147.477 49.482 147.477 49.032 147.027 49.032 146.477zM53.032 146.477C53.032 145.927 53.482 145.477 54.032 145.477 54.582 145.477 55.032 145.927 55.032 146.477 55.032 147.027 54.582 147.477 54.032 147.477 53.482 147.477 53.032 147.027 53.032 146.477zM57.032 146.477C57.032 145.927 57.482 145.477 58.032 145.477 58.582 145.477 59.032 145.927 59.032 146.477 59.032 147.027 58.582 147.477 58.032 147.477 57.482 147.477 57.032 147.027 57.032 146.477zM61.032 146.477C61.032 145.927 61.482 145.477 62.032 145.477 62.582 145.477 63.032 145.927 63.032 146.477 63.032 147.027 62.582 147.477 62.032 147.477 61.482 147.477 61.032 147.027 61.032 146.477zM65.032 146.477C65.032 145.927 65.482 145.477 66.032 145.477 66.582 145.477 67.032 145.927 67.032 146.477 67.032 147.027 66.582 147.477 66.032 147.477 65.482 147.477 65.032 147.027 65.032 146.477zM69.032 146.477C69.032 145.927 69.482 145.477 70.032 145.477 70.582 145.477 71.032 145.927 71.032 146.477 71.032 147.027 70.582 147.477 70.032 147.477 69.482 147.477 69.032 147.027 69.032 146.477zM73.032 146.477C73.032 145.927 73.482 145.477 74.032 145.477 74.582 145.477 75.032 145.927 75.032 146.477 75.032 147.027 74.582 147.477 74.032 147.477 73.482 147.477 73.032 147.027 73.032 146.477zM77.032 146.477C77.032 145.927 77.482 145.477 78.032 145.477 78.582 145.477 79.032 145.927 79.032 146.477 79.032 147.027 78.582 147.477 78.032 147.477 77.482 147.477 77.032 147.027 77.032 146.477zM81.032 146.477C81.032 145.927 81.482 145.477 82.032 145.477 82.582 145.477 83.032 145.927 83.032 146.477 83.032 147.027 82.582 147.477 82.032 147.477 81.482 147.477 81.032 147.027 81.032 146.477zM85.032 146.477C85.032 145.927 85.482 145.477 86.032 145.477 86.582 145.477 87.032 145.927 87.032 146.477 87.032 147.027 86.582 147.477 86.032 147.477 85.482 147.477 85.032 147.027 85.032 146.477zM89.032 146.477C89.032 145.927 89.482 145.477 90.032 145.477 90.582 145.477 91.032 145.927 91.032 146.477 91.032 147.027 90.582 147.477 90.032 147.477 89.482 147.477 89.032 147.027 89.032 146.477zM93.032 146.477C93.032 145.927 93.482 145.477 94.032 145.477 94.582 145.477 95.032 145.927 95.032 146.477 95.032 147.027 94.582 147.477 94.032 147.477 93.482 147.477 93.032 147.027 93.032 146.477zM97.032 146.477C97.032 145.927 97.482 145.477 98.032 145.477 98.582 145.477 99.032 145.927 99.032 146.477 99.032 147.027 98.582 147.477 98.032 147.477 97.482 147.477 97.032 147.027 97.032 146.477zM101.032 146.477C101.032 145.927 101.482 145.477 102.032 145.477 102.582 145.477 103.032 145.927 103.032 146.477 103.032 147.027 102.582 147.477 102.032 147.477 101.482 147.477 101.032 147.027 101.032 146.477zM105.032 146.477C105.032 145.927 105.482 145.477 106.032 145.477 106.582 145.477 107.032 145.927 107.032 146.477 107.032 147.027 106.582 147.477 106.032 147.477 105.482 147.477 105.032 147.027 105.032 146.477zM109.032 146.477C109.032 145.927 109.482 145.477 110.032 145.477 110.582 145.477 111.032 145.927 111.032 146.477 111.032 147.027 110.582 147.477 110.032 147.477 109.482 147.477 109.032 147.027 109.032 146.477zM113.032 146.477C113.032 145.927 113.482 145.477 114.032 145.477 114.582 145.477 115.032 145.927 115.032 146.477 115.032 147.027 114.582 147.477 114.032 147.477 113.482 147.477 113.032 147.027 113.032 146.477zM117.032 146.477C117.032 145.927 117.482 145.477 118.032 145.477 118.582 145.477 119.032 145.927 119.032 146.477 119.032 147.027 118.582 147.477 118.032 147.477 117.482 147.477 117.032 147.027 117.032 146.477zM121.032 146.477C121.032 145.927 121.482 145.477 122.032 145.477 122.582 145.477 123.032 145.927 123.032 146.477 123.032 147.027 122.582 147.477 122.032 147.477 121.482 147.477 121.032 147.027 121.032 146.477zM125.032 146.477C125.032 145.927 125.482 145.477 126.032 145.477 126.582 145.477 127.032 145.927 127.032 146.477 127.032 147.027 126.582 147.477 126.032 147.477 125.482 147.477 125.032 147.027 125.032 146.477zM129.032 146.477C129.032 145.927 129.482 145.477 130.032 145.477 130.582 145.477 131.032 145.927 131.032 146.477 131.032 147.027 130.582 147.477 130.032 147.477 129.482 147.477 129.032 147.027 129.032 146.477zM133.032 146.477C133.032 145.927 133.482 145.477 134.032 145.477 134.582 145.477 135.032 145.927 135.032 146.477 135.032 147.027 134.582 147.477 134.032 147.477 133.482 147.477 133.032 147.027 133.032 146.477zM155.032 146.477C155.032 145.927 155.482 145.477 156.032 145.477 156.582 145.477 157.032 145.927 157.032 146.477 157.032 147.027 156.582 147.477 156.032 147.477 155.482 147.477 155.032 147.027 155.032 146.477zM159.032 146.477C159.032 145.927 159.482 145.477 160.032 145.477 160.582 145.477 161.032 145.927 161.032 146.477 161.032 147.027 160.582 147.477 160.032 147.477 159.482 147.477 159.032 147.027 159.032 146.477zM163.032 146.477C163.032 145.927 163.482 145.477 164.032 145.477 164.582 145.477 165.032 145.927 165.032 146.477 165.032 147.027 164.582 147.477 164.032 147.477 163.482 147.477 163.032 147.027 163.032 146.477zM167.032 146.477C167.032 145.927 167.482 145.477 168.032 145.477 168.582 145.477 169.032 145.927 169.032 146.477 169.032 147.027 168.582 147.477 168.032 147.477 167.482 147.477 167.032 147.027 167.032 146.477zM171.032 146.477C171.032 145.927 171.482 145.477 172.032 145.477 172.582 145.477 173.032 145.927 173.032 146.477 173.032 147.027 172.582 147.477 172.032 147.477 171.482 147.477 171.032 147.027 171.032 146.477zM64.153 128.48L64.011 128.479C59.652 128.445 55.464 126.813 52.105 123.857 48.801 126.742 44.56 128.32 40.06 128.32 34.997 128.32 32.276 126.213 29.359 123.413L28.967 123.404 29.018 121.404 30.189 121.433 30.47 121.705C33.257 124.408 35.575 126.32 40.06 126.32 44.36 126.32 48.392 124.707 51.41 121.78L52.106 121.105 52.803 121.78C55.911 124.793 59.914 126.461 64.082 126.48 68.25 126.461 72.253 124.793 75.361 121.78L76.058 121.105 76.754 121.78C79.737 124.673 83.769 126.267 88.104 126.267 92.331 126.267 96.204 124.678 99.304 121.673L100 120.998 100.696 121.673C103.796 124.678 107.669 126.267 111.896 126.267 116.161 126.267 120.191 124.635 123.246 121.673L123.942 120.998 124.639 121.673C127.694 124.635 131.726 126.267 135.989 126.267 140.243 126.267 144.269 124.635 147.323 121.673L148.02 120.998 148.716 121.673C150.771 123.666 153.313 125.085 156.065 125.777L155.579 127.716C152.79 127.016 150.195 125.652 148.02 123.75 144.686 126.67 140.45 128.267 135.989 128.267 131.52 128.267 127.278 126.669 123.942 123.75 120.607 126.67 116.366 128.267 111.896 128.267 107.451 128.267 103.357 126.709 100 123.752 96.643 126.709 92.549 128.267 88.104 128.267 83.574 128.267 79.335 126.707 76.06 123.857 72.701 126.813 68.512 128.445 64.153 128.479L64.153 128.48M124.072 138.273C119.664 138.273 115.605 136.717 112.276 133.763 108.948 136.717 104.89 138.273 100.481 138.273 96.05 138.273 91.844 136.677 88.536 133.761 85.229 136.677 81.023 138.273 76.592 138.273 72.182 138.273 67.99 136.678 64.685 133.761 61.377 136.677 57.179 138.273 52.759 138.273 48.351 138.273 44.292 136.717 40.963 133.763 37.635 136.717 33.576 138.273 29.168 138.273L29.168 136.273C33.356 136.273 37.193 134.685 40.264 131.682L40.963 130.998 41.662 131.682C44.733 134.685 48.571 136.273 52.759 136.273 56.971 136.273 60.958 134.642 63.985 131.682L64.685 130.998 65.384 131.682C68.41 134.642 72.391 136.273 76.592 136.273 80.816 136.273 84.811 134.642 87.837 131.682L88.536 130.998 89.235 131.682C92.263 134.642 96.257 136.273 100.481 136.273 104.67 136.273 108.507 134.685 111.577 131.682L112.276 130.998 112.976 131.682C116.047 134.685 119.885 136.273 124.072 136.273 128.296 136.273 132.29 134.642 135.317 131.682L136.017 130.998 136.716 131.682C139.32 134.229 142.738 135.83 146.339 136.192L146.14 138.182C142.404 137.807 138.845 136.246 136.018 133.761 132.709 136.677 128.504 138.273 124.072 138.273"/>
    <polygon fill="#48515A" points="79.033 116.48 81.033 116.48 81.033 81.48 79.033 81.48"/>
    <path fill="#48515A" d="M111.989,114.48 L90.033,114.48 L90.033,112.48 L111.989,112.48 C112.534,112.48 112.791,112.085 112.876,111.915 C112.944,111.778 113.142,111.292 112.79,110.823 L80.239,67.396 L62.066,111.053 C61.933,111.375 61.97,111.731 62.168,112.03 C62.359,112.316 62.658,112.48 62.989,112.48 L80.033,112.48 L80.033,114.48 L62.989,114.48 C61.993,114.48 61.063,113.979 60.504,113.139 C59.937,112.287 59.83,111.22 60.221,110.284 L79.739,63.394 L114.39,109.623 C115.081,110.545 115.187,111.766 114.664,112.81 C114.149,113.84 113.124,114.48 111.989,114.48"/>
    <path fill="#48515A" d="M79.992 79.367C79.853 79.367 79.723 79.337 79.602 79.286 79.482 79.237 79.372 79.167 79.282 79.067 79.093 78.887 78.992 78.627 78.992 78.367 78.992 78.297 78.992 78.237 79.013 78.167 79.022 78.107 79.043 78.036 79.062 77.977 79.093 77.917 79.122 77.867 79.152 77.807 79.192 77.757 79.232 77.707 79.282 77.657 79.513 77.427 79.862 77.317 80.183 77.387 80.242 77.397 80.312 77.417 80.372 77.437 80.433 77.467 80.492 77.497 80.543 77.527 80.603 77.567 80.652 77.607 80.692 77.657 80.742 77.707 80.782 77.757 80.822 77.807 80.853 77.867 80.893 77.917 80.912 77.977 80.942 78.036 80.952 78.107 80.973 78.167 80.982 78.237 80.992 78.297 80.992 78.367 80.992 78.627 80.883 78.877 80.692 79.067 80.503 79.257 80.253 79.367 79.992 79.367M110.611 124.279L109.41 122.681 114.996 118.48 108.033 118.48 108.033 116.48 117.989 116.48C118.42 116.48 118.802 116.755 118.938 117.163 119.074 117.571 118.935 118.021 118.59 118.279L110.611 124.279"/>
    <path fill="#48515A" d="M63.304,124.188 L57.283,118.188 C56.997,117.903 56.91,117.472 57.065,117.098 C57.22,116.724 57.585,116.48 57.989,116.48 L109.033,116.48 L109.033,118.48 L60.409,118.48 L64.716,122.772 L63.304,124.188"/>
    <polygon fill="#48515A" points="83.033 117.48 85.033 117.48 85.033 97.48 83.033 97.48"/>
    <path fill="#48515A" d="M83.992,94.367 C83.853,94.367 83.723,94.337 83.603,94.286 C83.482,94.237 83.372,94.167 83.282,94.067 C83.093,93.877 82.992,93.627 82.992,93.367 C82.992,93.097 83.093,92.847 83.282,92.657 C83.322,92.617 83.383,92.567 83.433,92.536 C83.492,92.497 83.543,92.467 83.603,92.437 C83.662,92.417 83.732,92.397 83.793,92.387 C83.923,92.357 84.053,92.357 84.183,92.387 C84.242,92.397 84.313,92.417 84.372,92.437 C84.433,92.467 84.492,92.497 84.543,92.536 C84.603,92.567 84.652,92.617 84.692,92.657 C84.883,92.847 84.982,93.097 84.982,93.367 C84.982,93.637 84.883,93.887 84.692,94.067 C84.513,94.257 84.263,94.367 83.992,94.367"/>
    <polygon fill="#48515A" points="49.033 165.48 51.033 165.48 51.033 161.48 49.033 161.48"/>
    <polygon fill="#48515A" points="49.033 175.48 51.033 175.48 51.033 171.48 49.033 171.48"/>
    <polygon fill="#48515A" points="53.033 169.48 57.033 169.48 57.033 167.48 53.033 167.48"/>
    <polygon fill="#48515A" points="43.033 169.48 47.033 169.48 47.033 167.48 43.033 167.48"/>
    <polygon fill="#48515A" points="109.033 195.48 111.033 195.48 111.033 191.48 109.033 191.48"/>
    <polygon fill="#48515A" points="109.033 205.48 111.033 205.48 111.033 201.48 109.033 201.48"/>
    <polygon fill="#48515A" points="113.033 199.48 117.033 199.48 117.033 197.48 113.033 197.48"/>
    <polygon fill="#48515A" points="103.033 199.48 107.033 199.48 107.033 197.48 103.033 197.48"/>
    <polygon fill="#48515A" points="49.033 75.48 51.033 75.48 51.033 71.48 49.033 71.48"/>
    <polygon fill="#48515A" points="49.033 85.48 51.033 85.48 51.033 81.48 49.033 81.48"/>
    <polygon fill="#48515A" points="53.033 79.48 57.033 79.48 57.033 77.48 53.033 77.48"/>
    <polygon fill="#48515A" points="43.033 79.48 47.033 79.48 47.033 77.48 43.033 77.48"/>
    <path fill="#FFD15D" d="M92.992 178.897C92.992 179.725 92.321 180.397 91.492 180.397 90.664 180.397 89.992 179.725 89.992 178.897 89.992 178.068 90.664 177.397 91.492 177.397 92.321 177.397 92.992 178.068 92.992 178.897M74.992 158.897C74.992 159.449 74.545 159.897 73.992 159.897 73.44 159.897 72.992 159.449 72.992 158.897 72.992 158.344 73.44 157.897 73.992 157.897 74.545 157.897 74.992 158.344 74.992 158.897M110.492 154.397C110.492 155.225 109.821 155.897 108.992 155.897 108.164 155.897 107.492 155.225 107.492 154.397 107.492 153.568 108.164 152.897 108.992 152.897 109.821 152.897 110.492 153.568 110.492 154.397M44.492 204.647C44.492 205.613 43.709 206.397 42.742 206.397 41.776 206.397 40.992 205.613 40.992 204.647 40.992 203.68 41.776 202.897 42.742 202.897 43.709 202.897 44.492 203.68 44.492 204.647"/>
  </g>
</svg>
