<svg xmlns="http://www.w3.org/2000/svg" width="250" height="250" viewBox="0 0 250 250">
  <g fill="none" fill-rule="evenodd">
    <polyline fill="#F58E70" points="141.667 100.38 202 100.38 202 96.231 215.375 109.606 202 123.045 202 118.38 137.167 118.38 141.667 100.38"/>
    <polyline fill="#48515A" points="198 132.733 198 122.38 172 122.38 172 120.38 200 120.38 200 127.889 218.201 109.603 200 91.403 200 98.38 172 98.38 172 96.38 198 96.38 198 86.575 221.025 109.6 198 132.733"/>
    <polyline fill="#F58E70" points="113.833 118.38 48 118.38 48 123.045 34.625 109.606 48 96.231 48 100.38 109.167 100.38 113.833 118.38"/>
    <polyline fill="#48515A" points="52 132.733 28.975 109.6 52 86.575 52 96.38 79 96.38 79 98.38 50 98.38 50 91.403 31.799 109.603 50 127.889 50 120.38 79 120.38 79 122.38 52 122.38 52 132.733"/>
    <polygon fill="#48515A" points="80 152.38 82 152.38 82 148.38 80 148.38"/>
    <polygon fill="#48515A" points="80 162.38 82 162.38 82 158.38 80 158.38"/>
    <polygon fill="#48515A" points="84 156.38 88 156.38 88 154.38 84 154.38"/>
    <polygon fill="#48515A" points="74 156.38 78 156.38 78 154.38 74 154.38"/>
    <polygon fill="#48515A" points="161 62.38 163 62.38 163 58.38 161 58.38"/>
    <polygon fill="#48515A" points="161 72.38 163 72.38 163 68.38 161 68.38"/>
    <polygon fill="#48515A" points="165 66.38 169 66.38 169 64.38 165 64.38"/>
    <polygon fill="#48515A" points="155 66.38 159 66.38 159 64.38 155 64.38"/>
    <polygon fill="#48515A" points="155 188.38 157 188.38 157 184.38 155 184.38"/>
    <polygon fill="#48515A" points="155 198.38 157 198.38 157 194.38 155 194.38"/>
    <polygon fill="#48515A" points="159 192.38 163 192.38 163 190.38 159 190.38"/>
    <polygon fill="#48515A" points="149 192.38 153 192.38 153 190.38 149 190.38"/>
    <path fill="#F58E70" d="M66.292 83.297C66.292 83.849 65.845 84.297 65.293 84.297 64.74 84.297 64.292 83.849 64.292 83.297 64.292 82.744 64.74 82.297 65.293 82.297 65.845 82.297 66.292 82.744 66.292 83.297M213.644 183.315C213.644 184.051 213.047 184.648 212.311 184.648 211.574 184.648 210.977 184.051 210.977 183.315 210.977 182.578 211.574 181.981 212.311 181.981 213.047 181.981 213.644 182.578 213.644 183.315M65.631 142.945C65.631 143.682 66.228 144.279 66.965 144.279 67.701 144.279 68.298 143.682 68.298 142.945 68.298 142.209 67.701 141.612 66.965 141.612 66.228 141.612 65.631 142.209 65.631 142.945"/>
    <path fill="#48515A" d="M170.404,184.589 L174.257,185.839 L174.972,183.636 C175.623,181.629 177.408,180.332 179.519,180.331 L179.52,180.331 C181.63,180.331 183.415,181.627 184.067,183.634 L184.783,185.836 L188.636,184.583 L187.919,182.38 C187.266,180.374 187.947,178.275 189.654,177.034 C191.36,175.793 193.567,175.792 195.275,177.032 L197.247,178.419 L199.627,175.141 L197.668,173.763 C195.948,172.514 195.265,170.416 195.916,168.409 C196.567,166.401 198.353,165.104 200.464,165.103 L202.779,165.103 L202.777,161.052 L200.462,161.053 L200.461,161.053 C198.351,161.053 196.565,159.756 195.913,157.75 C195.261,155.743 195.941,153.645 197.648,152.404 L199.521,151.042 L197.199,147.847 L195.326,149.209 C193.619,150.451 191.412,150.45 189.705,149.211 C187.997,147.971 187.314,145.873 187.966,143.866 L188.681,141.663 L184.827,140.413 L184.112,142.616 C183.462,144.624 181.677,145.921 179.566,145.922 C179.565,145.922 179.565,145.922 179.564,145.922 C177.454,145.922 175.67,144.626 175.018,142.62 L174.301,140.418 L170.449,141.671 L171.166,143.873 C171.818,145.88 171.137,147.979 169.43,149.22 C167.725,150.461 165.518,150.462 163.809,149.222 L161.936,147.862 L159.556,151.14 L161.43,152.5 C163.138,153.74 163.82,155.838 163.169,157.846 C162.518,159.853 160.733,161.15 158.622,161.151 L156.307,161.152 L156.309,165.203 L158.625,165.202 C158.625,165.202 158.626,165.202 158.627,165.202 C160.736,165.202 162.521,166.498 163.173,168.503 C163.826,170.51 163.145,172.609 161.438,173.85 L159.564,175.212 L161.886,178.404 L163.759,177.043 C165.466,175.802 167.672,175.8 169.381,177.041 C171.088,178.281 171.771,180.379 171.119,182.386 L170.404,184.589 Z M175.542,188.359 L167.885,185.874 L169.217,181.769 C169.677,180.352 168.996,179.233 168.205,178.659 C167.415,178.085 166.141,177.784 164.935,178.661 L161.444,181.198 L156.771,174.771 L160.262,172.233 C161.467,171.357 161.573,170.051 161.271,169.122 C160.969,168.194 160.115,167.202 158.627,167.202 C158.626,167.202 158.626,167.202 158.625,167.202 L154.309,167.204 L154.307,159.153 L158.622,159.151 C160.112,159.15 160.965,158.157 161.267,157.228 C161.568,156.299 161.461,154.994 160.255,154.118 L156.763,151.583 L161.492,145.068 L164.984,147.604 C166.188,148.478 167.463,148.176 168.254,147.603 C169.044,147.028 169.725,145.909 169.264,144.491 L167.928,140.388 L175.584,137.897 L176.92,142.001 C177.38,143.418 178.588,143.922 179.564,143.922 L179.565,143.922 C180.543,143.921 181.75,143.416 182.21,141.999 L183.542,137.894 L191.2,140.378 L189.868,144.483 C189.408,145.9 190.089,147.019 190.88,147.593 C191.669,148.167 192.944,148.468 194.15,147.592 L197.641,145.053 L202.316,151.483 L198.824,154.022 C197.619,154.898 197.513,156.202 197.814,157.131 C198.117,158.06 198.971,159.053 200.461,159.053 C200.461,159.053 200.461,159.053 200.462,159.053 L204.777,159.051 L204.779,167.102 L200.464,167.103 C198.974,167.104 198.12,168.097 197.818,169.026 C197.518,169.956 197.625,171.26 198.831,172.136 L202.438,174.673 L197.708,181.187 L194.112,178.659 C192.896,177.774 191.619,178.077 190.83,178.651 C190.04,179.226 189.36,180.345 189.821,181.762 L191.155,185.866 L183.5,188.357 L182.165,184.252 C181.705,182.836 180.497,182.331 179.52,182.331 C178.542,182.331 177.334,182.837 176.874,184.253 L175.542,188.359 Z"/>
    <path fill="#475059" d="M170.2,169.983 C166.442,164.815 167.59,157.553 172.758,153.795 C177.928,150.037 185.188,151.185 188.945,156.353 L187.328,157.528 C184.219,153.253 178.212,152.302 173.934,155.413 C169.658,158.523 168.709,164.531 171.817,168.807 L170.2,169.983"/>
    <path fill="#F58E70" d="M179.551,159.626 C179.365,159.626 179.178,159.641 178.991,159.67 C178.067,159.818 177.258,160.316 176.709,161.073 C176.16,161.831 175.939,162.756 176.087,163.679 C176.234,164.602 176.732,165.413 177.489,165.961 C179.053,167.094 181.245,166.743 182.377,165.18 C182.926,164.423 183.146,163.498 182.999,162.574 C182.852,161.651 182.354,160.841 181.597,160.293 C180.993,159.855 180.282,159.626 179.551,159.626 Z M179.529,169.628 C178.171,169.628 176.851,169.203 175.729,168.391 C174.323,167.372 173.398,165.867 173.124,164.152 C172.851,162.438 173.261,160.719 174.279,159.314 C175.298,157.907 176.803,156.982 178.518,156.708 C180.229,156.435 181.951,156.844 183.356,157.863 C184.763,158.881 185.688,160.386 185.962,162.101 C186.235,163.816 185.825,165.534 184.807,166.94 C183.788,168.346 182.283,169.272 180.568,169.545 C180.222,169.601 179.874,169.628 179.529,169.628 Z"/>
    <path fill="#48515A" d="M180.28,150.149 C179.729,150.118 179.31,149.638 179.34,149.088 C179.37,148.538 179.84,148.118 180.39,148.149 C180.95,148.178 181.37,148.649 181.34,149.208 C181.31,149.738 180.859,150.149 180.34,150.149 C180.319,150.149 180.3,150.149 180.28,150.149 Z M175.39,149.718 C175.27,149.178 175.6,148.638 176.14,148.518 C176.68,148.388 177.21,148.728 177.34,149.268 C177.47,149.798 177.13,150.338 176.59,150.468 C176.52,150.478 176.439,150.488 176.37,150.488 C175.91,150.488 175.5,150.178 175.39,149.718 Z M183.91,150.878 C183.39,150.688 183.12,150.118 183.3,149.598 C183.49,149.078 184.06,148.808 184.58,148.988 C185.1,149.178 185.37,149.748 185.189,150.268 C185.04,150.678 184.66,150.938 184.25,150.938 C184.13,150.938 184.02,150.919 183.91,150.878 Z M171.78,151.428 C171.51,150.948 171.68,150.338 172.16,150.068 C172.64,149.798 173.25,149.958 173.52,150.438 C173.79,150.928 173.62,151.538 173.14,151.808 C172.99,151.899 172.819,151.938 172.649,151.938 C172.3,151.938 171.96,151.748 171.78,151.428 Z M187.17,152.598 C186.72,152.278 186.62,151.649 186.95,151.198 C187.27,150.758 187.89,150.658 188.34,150.978 C188.79,151.308 188.89,151.928 188.569,152.378 C188.37,152.649 188.06,152.788 187.75,152.788 C187.55,152.788 187.35,152.728 187.17,152.598 Z M168.8,154.088 C168.399,153.708 168.39,153.078 168.78,152.678 C169.16,152.278 169.8,152.268 170.189,152.649 C170.59,153.038 170.6,153.669 170.21,154.068 L170.22,154.068 C170.02,154.268 169.76,154.368 169.5,154.368 C169.25,154.368 169,154.278 168.8,154.088 Z M189.83,155.178 C189.49,154.738 189.569,154.108 190.01,153.768 C190.439,153.428 191.069,153.508 191.41,153.948 C191.75,154.388 191.67,155.008 191.229,155.348 C191.05,155.498 190.83,155.558 190.62,155.558 C190.319,155.558 190.03,155.428 189.83,155.178 Z M166.689,157.478 C166.2,157.218 166.01,156.618 166.27,156.128 C166.53,155.638 167.13,155.458 167.62,155.708 C168.109,155.968 168.3,156.578 168.04,157.068 C167.859,157.408 167.51,157.598 167.149,157.598 C167,157.598 166.84,157.558 166.689,157.478 Z M191.649,158.399 C191.45,157.878 191.7,157.298 192.22,157.098 C192.729,156.899 193.31,157.149 193.52,157.669 C193.71,158.178 193.46,158.758 192.939,158.958 C192.83,159.008 192.7,159.028 192.58,159.028 C192.18,159.028 191.81,158.788 191.649,158.399 Z M165.62,161.328 C165.08,161.218 164.72,160.698 164.83,160.149 C164.939,159.608 165.47,159.258 166.01,159.368 C166.55,159.478 166.899,160.008 166.79,160.548 C166.7,161.028 166.28,161.348 165.819,161.348 C165.75,161.348 165.68,161.348 165.62,161.328 Z M192.49,161.998 C192.439,161.448 192.85,160.968 193.399,160.919 C193.95,160.868 194.439,161.278 194.479,161.828 C194.53,162.378 194.13,162.858 193.58,162.908 C193.55,162.908 193.52,162.908 193.479,162.908 C192.97,162.908 192.54,162.518 192.49,161.998 Z M164.6,164.419 C164.55,163.868 164.96,163.378 165.51,163.338 C166.06,163.288 166.54,163.688 166.59,164.248 C166.64,164.798 166.229,165.278 165.68,165.328 C165.649,165.328 165.62,165.328 165.59,165.328 C165.08,165.328 164.64,164.938 164.6,164.419 Z M193.069,166.868 C192.53,166.768 192.18,166.238 192.29,165.698 C192.399,165.158 192.92,164.808 193.46,164.908 C194.01,165.018 194.359,165.548 194.25,166.088 C194.149,166.568 193.74,166.888 193.27,166.888 C193.2,166.888 193.14,166.888 193.069,166.868 Z M165.56,168.578 C165.359,168.058 165.62,167.478 166.13,167.278 C166.649,167.078 167.229,167.338 167.43,167.848 C167.63,168.368 167.37,168.948 166.859,169.149 C166.74,169.188 166.62,169.208 166.5,169.208 C166.1,169.208 165.72,168.968 165.56,168.578 Z M191.46,170.528 C190.979,170.278 190.79,169.669 191.05,169.178 C191.3,168.688 191.91,168.508 192.399,168.758 C192.89,169.018 193.069,169.628 192.819,170.118 C192.64,170.448 192.29,170.649 191.93,170.649 C191.77,170.649 191.609,170.608 191.46,170.528 Z M167.67,172.298 C167.33,171.858 167.41,171.228 167.85,170.899 C168.28,170.558 168.91,170.638 169.25,171.068 C169.59,171.508 169.51,172.138 169.069,172.478 C168.89,172.618 168.67,172.688 168.46,172.688 C168.16,172.688 167.859,172.548 167.67,172.298 Z M188.899,173.598 C188.5,173.208 188.49,172.578 188.87,172.178 C189.26,171.788 189.89,171.768 190.29,172.158 C190.689,172.538 190.7,173.178 190.31,173.568 C190.109,173.778 189.85,173.878 189.59,173.878 C189.34,173.878 189.09,173.778 188.899,173.598 Z M170.729,175.268 C170.729,175.268 170.729,175.268 170.74,175.268 C170.29,174.948 170.189,174.318 170.51,173.868 C170.83,173.419 171.46,173.328 171.91,173.649 C172.35,173.968 172.45,174.598 172.13,175.048 C171.93,175.318 171.63,175.458 171.319,175.458 C171.12,175.458 170.91,175.399 170.729,175.268 Z M185.569,175.808 C185.3,175.328 185.47,174.718 185.95,174.448 C186.43,174.169 187.04,174.338 187.31,174.818 C187.58,175.298 187.41,175.919 186.93,176.188 C186.78,176.268 186.609,176.318 186.439,176.318 C186.09,176.318 185.75,176.128 185.569,175.808 Z M174.51,177.258 C173.99,177.078 173.72,176.508 173.899,175.978 C174.09,175.458 174.66,175.188 175.18,175.378 C175.7,175.558 175.97,176.138 175.79,176.658 C175.64,177.068 175.26,177.318 174.84,177.318 C174.729,177.318 174.62,177.298 174.51,177.258 Z M181.75,176.988 C181.63,176.448 181.96,175.908 182.5,175.788 C183.03,175.658 183.569,175.998 183.7,176.538 C183.819,177.068 183.49,177.608 182.95,177.728 C182.88,177.748 182.8,177.758 182.729,177.758 C182.27,177.758 181.859,177.448 181.75,176.988 Z M178.7,178.108 C178.149,178.068 177.72,177.598 177.76,177.048 C177.79,176.498 178.26,176.078 178.81,176.108 C179.359,176.138 179.78,176.608 179.75,177.158 C179.72,177.688 179.28,178.108 178.75,178.108 C178.74,178.108 178.72,178.108 178.7,178.108 Z"/>
    <path fill="#F58E70" d="M44.953,162.957 C44.953,164.062 45.848,164.957 46.953,164.957 C48.057,164.957 48.953,164.062 48.953,162.957 C48.953,161.853 48.057,160.957 46.953,160.957 C45.848,160.957 44.953,161.853 44.953,162.957"/>
    <path fill="#475059" d="M86.688,52.215 C81.726,52.215 77.688,56.253 77.688,61.215 C77.688,66.178 81.726,70.215 86.688,70.215 C91.651,70.215 95.688,66.178 95.688,61.215 C95.688,56.253 91.651,52.215 86.688,52.215 Z M86.688,72.215 C80.623,72.215 75.688,67.281 75.688,61.215 C75.688,55.15 80.623,50.215 86.688,50.215 C92.754,50.215 97.688,55.15 97.688,61.215 C97.688,67.281 92.754,72.215 86.688,72.215 Z M86.688,46.215 C78.417,46.215 71.688,52.944 71.688,61.215 C71.688,69.486 78.417,76.215 86.688,76.215 C94.96,76.215 101.688,69.486 101.688,61.215 C101.688,52.944 94.96,46.215 86.688,46.215 Z M86.688,78.215 C77.314,78.215 69.688,70.589 69.688,61.215 C69.688,51.841 77.314,44.215 86.688,44.215 C96.062,44.215 103.688,51.841 103.688,61.215 C103.688,70.589 96.062,78.215 86.688,78.215 Z"/>
    <path fill="#475059" d="M86.688,58.215 C85.034,58.215 83.688,59.561 83.688,61.215 C83.688,62.87 85.034,64.215 86.688,64.215 C88.343,64.215 89.688,62.87 89.688,61.215 C89.688,59.561 88.343,58.215 86.688,58.215 Z M86.688,66.215 C83.932,66.215 81.688,63.972 81.688,61.215 C81.688,58.459 83.932,56.215 86.688,56.215 C89.445,56.215 91.688,58.459 91.688,61.215 C91.688,63.972 89.445,66.215 86.688,66.215 Z"/>
    <path fill="#F58E70" d="M86.688,57.215 C84.479,57.215 82.688,59.006 82.688,61.215 C82.688,63.425 84.479,65.215 86.688,65.215 C88.897,65.215 90.688,63.425 90.688,61.215 C90.688,59.006 88.897,57.215 86.688,57.215"/>
    <path fill="#F58E70" d="M86.688,58.215 C85.034,58.215 83.688,59.561 83.688,61.215 C83.688,62.87 85.034,64.215 86.688,64.215 C88.343,64.215 89.688,62.87 89.688,61.215 C89.688,59.561 88.343,58.215 86.688,58.215 Z M86.688,66.215 C83.932,66.215 81.688,63.972 81.688,61.215 C81.688,58.459 83.932,56.215 86.688,56.215 C89.445,56.215 91.688,58.459 91.688,61.215 C91.688,63.972 89.445,66.215 86.688,66.215 Z"/>
    <polygon fill="#475059" points="60 62.38 87 62.38 87 60.38 60 60.38"/>
    <path fill="#475059" d="M53.104,64.38 L56.275,64.38 L59.275,61.38 L56.275,58.38 L53.104,58.38 L56.104,61.38 L53.104,64.38 Z M57.104,66.38 L48.275,66.38 L53.275,61.38 L48.275,56.38 L57.104,56.38 L62.104,61.38 L57.104,66.38 Z"/>
    <path fill="#48515A" d="M168.874 98.797C168.859 98.797 168.845 98.796 168.83 98.796 168.278 98.772 167.827 98.304 167.852 97.753 167.876 97.201 168.348 96.777 168.871 96.796L168.916 96.798C169.468 96.822 169.896 97.289 169.872 97.84 169.849 98.378 169.406 98.797 168.874 98.797M169 122.378C168.74 122.378 168.479 122.278 168.29 122.088 168.25 122.038 168.21 121.988 168.17 121.938 168.13 121.878 168.1 121.818 168.08 121.758 168.05 121.698 168.03 121.638 168.02 121.578 168.01 121.508 168 121.448 168 121.378 168 121.118 168.109 120.858 168.29 120.669 168.53 120.438 168.87 120.338 169.189 120.399 169.26 120.408 169.319 120.428 169.38 120.458 169.439 120.478 169.5 120.508 169.55 120.548 169.609 120.588 169.66 120.628 169.7 120.669 169.8 120.768 169.87 120.878 169.92 120.998 169.97 121.118 170 121.248 170 121.378 170 121.649 169.89 121.899 169.7 122.088 169.66 122.138 169.609 122.178 169.55 122.208 169.5 122.248 169.439 122.278 169.38 122.308 169.319 122.328 169.26 122.348 169.189 122.358 169.13 122.378 169.06 122.378 169 122.378M81.821 98.797C81.806 98.797 81.791 98.796 81.776 98.796 81.225 98.772 80.774 98.303 80.8 97.751 80.823 97.199 81.294 96.777 81.82 96.796L81.864 96.798C82.416 96.822 82.844 97.29 82.819 97.841 82.796 98.378 82.353 98.797 81.821 98.797M82 122.378C81.729 122.378 81.479 122.278 81.29 122.088 81.109 121.899 81 121.638 81 121.378 81 121.248 81.02 121.118 81.08 120.998 81.13 120.878 81.2 120.768 81.29 120.669 81.52 120.438 81.87 120.338 82.2 120.399 82.26 120.408 82.319 120.428 82.38 120.458 82.439 120.478 82.5 120.508 82.56 120.548 82.609 120.588 82.66 120.628 82.71 120.669 82.8 120.768 82.87 120.878 82.92 120.998 82.979 121.118 83 121.248 83 121.378 83 121.638 82.89 121.899 82.71 122.088 82.66 122.138 82.609 122.178 82.56 122.208 82.5 122.248 82.439 122.278 82.38 122.308 82.319 122.328 82.26 122.348 82.2 122.358 82.13 122.378 82.069 122.378 82 122.378"/>
    <path fill="#5FE0ED" d="M125.017,40.651 C117.083,40.797 110.81,47.539 110.81,55.571 L110.81,75.132 L120.374,75.132 L120.348,72.58 C119.472,71.674 118.515,70.541 117.71,69.225 C115.726,65.982 114.946,61.76 114.946,57.653 L114.946,57.334 L123.82,57.334 L123.726,53.055 C126.625,55.804 130.449,57.334 134.422,57.334 L136.003,57.334 L136.003,57.653 C136.003,61.777 135.046,65.963 133.04,69.202 C131.715,71.341 129.881,73.029 128.74,74.011 L130.37,75.132 L139.763,75.132 L139.763,55.336 C139.763,47.134 133.154,40.502 125.017,40.651"/>
    <polyline fill="#EAEAE9" points="113.95 87.312 118.838 87.312 117.287 85.028 116.488 85.028 113.95 87.312"/>
    <polyline fill="#EAEAE9" points="136.229 87.312 131.341 87.312 132.891 85.028 133.69 85.028 136.229 87.312"/>
    <polyline fill="#EAEAE9" points="120.342 80.079 117.333 85.027 124.478 95.304 125.237 95.304 120.342 80.079"/>
    <polyline fill="#EAEAE9" points="130.347 76.416 133.503 79.699 136.518 86.928 135.766 86.928 133.886 85.027 133.134 85.027 130.125 80.079 130.347 76.416"/>
    <path fill="#EAEAE9" d="M130.363,78.434 L130.363,72.952 L128.327,74.225 C127.778,74.569 127.144,74.751 126.498,74.751 L124.229,74.751 C123.418,74.751 122.633,74.465 122.009,73.941 L120.347,72.548 L120.348,74.704 L130.363,78.434"/>
    <path fill="#48515A" d="M126.385,75.843 L124.055,75.843 C123.001,75.843 122.034,75.488 121.257,74.816 C120.001,73.73 118.217,71.969 116.857,69.747 C114.451,65.814 113.946,61 113.946,57.653 L113.946,57.334 L115.946,57.334 L115.946,57.653 C115.946,60.742 116.4,65.167 118.563,68.703 C119.788,70.706 121.416,72.31 122.564,73.303 C122.985,73.667 123.473,73.843 124.055,73.843 L126.385,73.843 C127.059,73.843 127.598,73.674 127.988,73.339 C128.68,72.748 130.783,70.947 132.189,68.675 C134.004,65.748 135.003,61.833 135.003,57.653 L135.003,57.334 L137.003,57.334 L137.003,57.653 C137.003,62.2 135.897,66.489 133.89,69.729 C132.319,72.265 130.038,74.217 129.289,74.858 C128.526,75.512 127.549,75.843 126.385,75.843"/>
    <polygon fill="#48515A" points="119.342 76.607 121.342 76.607 121.342 72.563 119.342 72.563"/>
    <polygon fill="#48515A" points="129.118 76.845 131.118 76.845 131.118 72.848 129.118 72.848"/>
    <path fill="#48515A" d="M116.24,84.027 L117.855,84.027 L122.879,91.252 L119.342,80.079 L119.342,78.709 L117.807,80.263 L116.24,84.027 Z M126.602,96.304 L123.956,96.304 L116.888,86.139 L115.12,87.928 L112.451,87.928 L116.109,79.135 L121.342,73.838 L121.342,79.922 L126.602,96.304 Z"/>
    <path fill="#48515A" d="M131.125,78.712 L131.077,80.384 L127.588,91.252 L132.611,84.027 L134.225,84.027 L132.654,80.263 L131.125,78.712 Z M126.512,96.304 L123.866,96.304 L129.125,79.922 L129.125,73.835 L134.352,79.135 L138.019,87.928 L135.349,87.928 L133.579,86.139 L126.512,96.304 Z"/>
    <polygon fill="#48515A" points="124.709 209.303 126.709 209.303 126.709 142.337 124.709 142.337"/>
    <path fill="#48515A" d="M109.877,209.351 L106.877,146.714 L106.875,134.905 C106.874,132.951 107.523,131.022 108.705,129.464 L113.565,120.046 L108.69,100.555 L107.702,100.397 L95.913,112.611 L108.659,125.42 L100.052,134.045 L84.8,118.388 C81.409,114.909 81.424,109.26 84.832,105.795 L107.074,83.517 L116.512,78.805 L117.404,80.594 L108.26,85.16 L86.253,107.202 C83.606,109.893 83.595,114.287 86.231,116.992 L100.069,131.196 L105.835,125.418 L93.112,112.633 L106.987,98.257 L110.31,98.789 L115.688,120.293 L110.343,130.614 C109.396,131.836 108.874,133.36 108.875,134.905 L108.876,146.666 L111.875,209.255 L109.877,209.351"/>
    <polyline fill="#48515A" points="106.92 136.381 104.486 136.381 101.189 132.857 102.65 131.49 105.354 134.381 106.92 134.381 106.92 136.381"/>
    <path fill="#48515A" d="M140.357,209.351 L138.359,209.255 L141.359,146.618 L141.359,134.905 C141.359,133.359 140.838,131.835 139.892,130.614 L139.793,130.46 L134.546,120.293 L139.925,98.789 L143.247,98.257 L157.121,112.633 L144.399,125.418 L150.165,131.196 L164.003,116.992 C166.64,114.287 166.628,109.893 163.977,107.197 L141.975,85.16 L132.83,80.594 L133.723,78.805 L143.16,83.517 L165.397,105.789 C168.811,109.26 168.825,114.909 165.435,118.388 L150.183,134.045 L141.575,125.42 L154.32,112.611 L142.532,100.397 L141.544,100.555 L136.669,120.046 L141.529,129.464 C142.71,131.021 143.359,132.949 143.359,134.905 L143.358,146.666 L140.357,209.351"/>
    <polyline fill="#48515A" points="145.748 136.381 143.314 136.381 143.314 134.381 144.881 134.381 147.584 131.49 149.045 132.857 145.748 136.381"/>
    <polygon fill="#48515A" points="114.627 121.17 135.607 121.17 135.607 119.17 114.627 119.17"/>
  </g>
</svg>
