<svg xmlns="http://www.w3.org/2000/svg" width="250" height="250" viewBox="0 0 250 250">
  <g fill="none" fill-rule="evenodd">
    <polyline fill="#F58E70" points="145 101.542 202 101.542 202 97.393 215.375 110.768 202 124.206 202 119.542 145 119.542 145 101.542"/>
    <polyline fill="#48515A" points="198 133.895 198 123.542 172 123.542 172 121.542 200 121.542 200 129.05 218.201 110.765 200 92.564 200 99.541 172 99.541 172 97.541 198 97.541 198 87.736 221.025 110.762 198 133.895"/>
    <polyline fill="#F58E70" points="105 119.542 48 119.542 48 124.206 34.625 110.768 48 97.393 48 101.542 105 101.542 105 119.542"/>
    <polyline fill="#48515A" points="52 133.895 28.975 110.762 52 87.736 52 97.541 79 97.541 79 99.541 50 99.541 50 92.564 31.799 110.765 50 129.05 50 121.542 79 121.542 79 123.542 52 123.542 52 133.895"/>
    <path fill="#DFE0E0" d="M119.232,76.603 L125.23,81.251 L130.355,76.938 L131.257,72.583 C131.485,72.358 129.626,73.901 128.768,74.634 C128.09,75.213 127.232,75.542 126.339,75.542 L123.772,75.542 C122.893,75.542 122.037,75.24 121.37,74.668 L119.418,73.249 L119.232,76.603"/>
    <path fill="#48515A" d="M126 76.541L123.76 76.541C122.642 76.541 121.549 76.134 120.682 75.395 120.441 75.189 120.168 74.967 119.881 74.734 118.577 73.674 117.1 72.473 116.657 71.287L114.518 66.77 112.008 65.32 110.918 61.109C110.918 60.147 111.521 59.098 112.455 58.704 112.454 58.699 112.452 58.695 112.451 58.691 112.239 58.083 112 57.395 112 56.603 112 56.051 112.447 55.572 113 55.572 113.553 55.572 114 55.989 114 56.542 114 57.057 114.157 57.51 114.34 58.035 114.485 58.452 114.635 58.883 114.722 59.365L114.933 60.542 113.255 60.542C113.172 60.552 112.973 60.771 112.928 61.013L113.727 64.003 116.059 65.35 118.499 70.51C118.783 71.265 120.203 72.419 121.143 73.182 121.442 73.426 121.729 73.658 121.98 73.873 122.485 74.304 123.117 74.542 123.76 74.542L126 74.542C126.553 74.542 127 74.989 127 75.541 127 76.094 126.553 76.541 126 76.541M110 137.54C110 136.99 110.45 136.54 111 136.54 111.55 136.54 112 136.99 112 137.54 112 138.09 111.55 138.54 111 138.54 110.45 138.54 110 138.09 110 137.54zM114 137.54C114 136.99 114.45 136.54 115 136.54 115.55 136.54 116 136.99 116 137.54 116 138.09 115.55 138.54 115 138.54 114.45 138.54 114 138.09 114 137.54zM118 137.54C118 136.99 118.45 136.54 119 136.54 119.55 136.54 120 136.99 120 137.54 120 138.09 119.55 138.54 119 138.54 118.45 138.54 118 138.09 118 137.54zM122 137.54C122 136.99 122.45 136.54 123 136.54 123.55 136.54 124 136.99 124 137.54 124 138.09 123.55 138.54 123 138.54 122.45 138.54 122 138.09 122 137.54zM126 137.54C126 136.99 126.45 136.54 127 136.54 127.55 136.54 128 136.99 128 137.54 128 138.09 127.55 138.54 127 138.54 126.45 138.54 126 138.09 126 137.54zM130 137.54C130 136.99 130.45 136.54 131 136.54 131.55 136.54 132 136.99 132 137.54 132 138.09 131.55 138.54 131 138.54 130.45 138.54 130 138.09 130 137.54zM134 137.54C134 136.99 134.45 136.54 135 136.54 135.55 136.54 136 136.99 136 137.54 136 138.09 135.55 138.54 135 138.54 134.45 138.54 134 138.09 134 137.54zM138 137.54C138 136.99 138.45 136.54 139 136.54 139.55 136.54 140 136.99 140 137.54 140 138.09 139.55 138.54 139 138.54 138.45 138.54 138 138.09 138 137.54z"/>
    <polygon fill="#48515A" points="124 206.542 126 206.542 126 148.542 124 148.542"/>
    <polyline fill="#48515A" points="111.492 147.542 107 147.542 107 145.542 110.246 145.542 112 141.977 112 140.542 114 140.542 114 142.441 111.492 147.542"/>
    <polyline fill="#48515A" points="143 147.542 138.495 147.542 136 142.44 136 140.542 138 140.542 138 141.978 139.743 145.542 143 145.542 143 147.542"/>
    <path fill="#48515A" d="M137.577 60.174L135.606 59.831C135.809 58.668 136 57.569 136 56.603L136 56.157C136 54.848 135.74 53.581 135.228 52.322L134.917 51.782C134.861 51.658 134.804 51.536 134.743 51.415L135.829 50.869 135.829 50.373 136.468 50.373 136.812 50.952C137.6 52.651 138 54.372 138 56.067L138 56.603C138 57.742 137.785 58.978 137.577 60.174M112.523 60.152C112.465 59.766 112.389 59.382 112.315 59.005 112.16 58.213 112 57.394 112 56.603L112 56.413C112 53.05 113.415 49.716 115.884 47.265 118.377 44.787 121.59 43.467 125.013 43.458 127.861 43.478 130.548 44.419 132.781 46.18L131.543 47.75C129.662 46.268 127.399 45.475 124.999 45.458 124.976 45.458 124.951 45.458 124.928 45.458 122.098 45.458 119.389 46.602 117.293 48.684 115.2 50.762 114 53.58 114 56.413L114 56.603C114 57.2 114.135 57.891 114.278 58.621 114.357 59.026 114.437 59.437 114.5 59.852L112.523 60.152"/>
    <path fill="#F58E70" d="M130.278,127.148 C130.278,127.148 127.071,91.51 126.499,89.217 L126.32,89.217 C126.794,89.218 127,88.833 127,88.358 L127,86.209 L124.964,83.629 L123,86.209 L123,88.358 C123,88.833 123.415,89.218 123.89,89.217 L123.912,89.217 C123.34,91.51 120.274,127.148 120.274,127.148 L125.277,133.148 L130.278,127.148"/>
    <path fill="#48515A" d="M94.383,112.614 L104,122.287 L104,102.626 L94.383,112.614 Z M106.187,164.201 L106.122,138.542 L104,138.542 L104,125.24 L96.05,133.205 L80.798,117.548 C77.406,114.069 77.421,108.419 80.83,104.955 L101.225,84.226 L113.633,79.837 L116.219,75.541 L118,75.541 L118,72.541 L120,72.541 L120,77.542 L117.35,77.542 L114.977,81.483 L102.326,85.957 L82.256,106.357 C79.604,109.052 79.593,113.446 82.229,116.152 L96.067,130.356 L102.648,123.763 L91.584,112.637 L106,97.665 L106,136.542 L108.116,136.542 L108.187,164.196 L106.187,164.201 Z"/>
    <polyline fill="#48515A" points="106.186 206.459 106.15 170.459 108.15 170.458 108.186 206.458 106.186 206.459"/>
    <path fill="#48515A" d="M146 102.611L146 122.46 155.718 112.622 146 102.611zM142.09 206.477L142.082 136.542 144 136.542 144 97.68 158.517 112.635 147.521 123.766 154.119 130.369 167.964 116.174C170.64 113.429 170.63 109.136 167.941 106.402L147.87 86.044 135.235 81.485 132.724 77.542 130 77.542 130 71.995 130.503 71.706C131.17 71.325 131.288 71.01 131.451 70.574L131.509 70.44 134.147 65.263 136.798 63.883 137.356 61.015C137.333 60.793 137.149 60.561 137.06 60.541L135.286 60.542 135.536 59.338C135.586 59.101 135.639 58.87 135.691 58.642 135.856 57.919 136 57.296 136 56.603L136 56.157 138 56.157 138 56.603C138 57.353 137.879 58.021 137.737 58.66 138.052 58.772 138.346 58.963 138.598 59.223 139.093 59.732 139.377 60.445 139.358 61.129L139.34 61.292 138.577 65.211 135.64 66.742 133.315 71.298C133.125 71.805 132.851 72.481 132 73.114L132 75.541 133.821 75.541 136.556 79.835 148.976 84.317 169.366 104.999C172.826 108.516 172.839 114.038 169.396 117.57L154.137 133.215 146 125.073 146 138.542 144.082 138.542 144.09 206.477 142.09 206.477zM121.342 87.928C121.104 87.928 120.864 87.843 120.673 87.671 120.263 87.302 120.229 86.669 120.599 86.259L125.21 81.135 129.82 86.259C130.189 86.669 130.156 87.302 129.746 87.671 129.334 88.04 128.703 88.007 128.334 87.597L125.21 84.125 122.085 87.597C121.888 87.816 121.615 87.928 121.342 87.928"/>
    <polyline fill="#48515A" points="103.347 135.542 100.484 135.542 97.187 132.017 98.648 130.65 101.352 133.542 102.489 133.542 104.193 131.749 105.643 133.126 103.347 135.542"/>
    <polyline fill="#48515A" points="149.514 135.542 146.657 135.542 144.486 133.275 145.932 131.892 147.511 133.542 148.654 133.542 151.442 130.604 152.894 131.98 149.514 135.542"/>
    <polygon fill="#48515A" points="80 153.542 82 153.542 82 149.542 80 149.542"/>
    <polygon fill="#48515A" points="80 163.542 82 163.542 82 159.542 80 159.542"/>
    <polygon fill="#48515A" points="84 157.542 88 157.542 88 155.542 84 155.542"/>
    <polygon fill="#48515A" points="74 157.542 78 157.542 78 155.542 74 155.542"/>
    <polygon fill="#48515A" points="161 63.542 163 63.542 163 59.542 161 59.542"/>
    <polygon fill="#48515A" points="161 73.541 163 73.541 163 69.541 161 69.541"/>
    <polygon fill="#48515A" points="165 67.542 169 67.542 169 65.542 165 65.542"/>
    <polygon fill="#48515A" points="155 67.542 159 67.542 159 65.542 155 65.542"/>
    <polygon fill="#48515A" points="155 189.542 157 189.542 157 185.542 155 185.542"/>
    <polygon fill="#48515A" points="155 199.542 157 199.542 157 195.542 155 195.542"/>
    <polygon fill="#48515A" points="159 193.542 163 193.542 163 191.542 159 191.542"/>
    <polygon fill="#48515A" points="149 193.542 153 193.542 153 191.542 149 191.542"/>
    <path fill="#F58E70" d="M66.292 84.458C66.292 85.011 65.845 85.458 65.293 85.458 64.74 85.458 64.292 85.011 64.292 84.458 64.292 83.906 64.74 83.458 65.293 83.458 65.845 83.458 66.292 83.906 66.292 84.458M213.644 184.476C213.644 185.213 213.047 185.81 212.311 185.81 211.574 185.81 210.977 185.213 210.977 184.476 210.977 183.74 211.574 183.143 212.311 183.143 213.047 183.143 213.644 183.74 213.644 184.476M65.631 144.107C65.631 144.843 66.228 145.44 66.965 145.44 67.701 145.44 68.298 144.843 68.298 144.107 68.298 143.371 67.701 142.774 66.965 142.774 66.228 142.774 65.631 143.371 65.631 144.107"/>
    <path fill="#48515A" d="M170.404,185.75 L174.257,187.001 L174.972,184.798 C175.623,182.791 177.408,181.493 179.519,181.492 L179.52,181.492 C181.63,181.492 183.415,182.789 184.067,184.795 L184.783,186.998 L188.636,185.745 L187.919,183.542 C187.266,181.536 187.947,179.437 189.654,178.196 C191.36,176.954 193.567,176.954 195.275,178.194 L197.247,179.58 L199.627,176.302 L197.668,174.924 C195.948,173.676 195.265,171.578 195.916,169.571 C196.567,167.563 198.353,166.266 200.464,166.265 L202.779,166.264 L202.777,162.214 L200.461,162.214 C198.351,162.214 196.565,160.918 195.913,158.912 C195.261,156.905 195.941,154.806 197.648,153.565 L199.521,152.204 L197.199,149.009 L195.326,150.371 C193.619,151.613 191.412,151.612 189.705,150.373 C187.997,149.133 187.314,147.035 187.966,145.028 L188.681,142.825 L184.827,141.575 L184.112,143.778 C183.462,145.785 181.677,147.083 179.566,147.083 C179.565,147.083 179.565,147.083 179.564,147.083 C177.454,147.083 175.67,145.788 175.018,143.781 L174.301,141.579 L170.449,142.833 L171.166,145.034 C171.818,147.042 171.137,149.141 169.43,150.382 C167.725,151.622 165.518,151.624 163.809,150.383 L161.936,149.023 L159.556,152.301 L161.43,153.662 C163.138,154.902 163.82,157 163.169,159.007 C162.518,161.014 160.733,162.312 158.622,162.313 L156.307,162.313 L156.309,166.364 L158.625,166.363 C158.625,166.363 158.626,166.363 158.627,166.363 C160.736,166.363 162.521,167.659 163.173,169.665 C163.826,171.672 163.145,173.771 161.438,175.012 L159.564,176.374 L161.886,179.566 L163.759,178.205 C165.466,176.963 167.672,176.962 169.381,178.203 C171.088,179.442 171.771,181.541 171.119,183.548 L170.404,185.75 Z M175.542,189.521 L167.885,187.036 L169.217,182.931 C169.677,181.513 168.996,180.395 168.205,179.821 C167.415,179.246 166.141,178.946 164.935,179.822 L161.444,182.36 L156.771,175.933 L160.262,173.395 C161.467,172.518 161.573,171.213 161.271,170.284 C160.969,169.355 160.115,168.363 158.627,168.363 C158.626,168.363 158.626,168.363 158.625,168.363 L154.309,168.365 L154.307,160.314 L158.622,160.313 C160.112,160.312 160.965,159.319 161.267,158.39 C161.568,157.46 161.461,156.155 160.255,155.28 L156.763,152.745 L161.492,146.229 L164.984,148.765 C166.188,149.64 167.462,149.338 168.254,148.764 C169.044,148.189 169.725,147.07 169.264,145.653 L167.928,141.549 L175.584,139.059 L176.92,143.163 C177.38,144.579 178.588,145.083 179.564,145.083 L179.565,145.083 C180.543,145.083 181.75,144.578 182.21,143.161 L183.542,139.055 L191.2,141.54 L189.868,145.645 C189.408,147.062 190.089,148.18 190.88,148.754 C191.669,149.328 192.944,149.629 194.15,148.753 L197.641,146.215 L202.316,152.645 L198.824,155.183 C197.619,156.059 197.513,157.364 197.814,158.293 C198.117,159.222 198.971,160.214 200.461,160.214 C200.461,160.214 200.461,160.214 200.462,160.214 L204.777,160.213 L204.779,168.263 L200.464,168.265 C198.974,168.265 198.12,169.258 197.818,170.188 C197.518,171.117 197.625,172.422 198.831,173.297 L202.438,175.834 L197.708,182.349 L194.112,179.821 C192.896,178.937 191.62,179.238 190.83,179.813 C190.04,180.388 189.36,181.506 189.821,182.923 L191.155,187.028 L183.5,189.518 L182.165,185.414 C181.705,183.997 180.497,183.492 179.52,183.492 C178.542,183.493 177.334,183.998 176.874,185.415 L175.542,189.521 Z"/>
    <path fill="#475059" d="M170.2,171.145 C166.442,165.977 167.59,158.715 172.758,154.957 C177.928,151.199 185.188,152.346 188.945,157.514 L187.328,158.69 C184.219,154.415 178.211,153.463 173.934,156.575 C169.658,159.684 168.709,165.692 171.817,169.969 L170.2,171.145"/>
    <path fill="#F58E70" d="M179.551,160.788 C179.365,160.788 179.178,160.802 178.991,160.832 C178.067,160.979 177.258,161.478 176.709,162.235 C176.16,162.992 175.939,163.917 176.087,164.841 C176.234,165.764 176.732,166.574 177.489,167.123 C179.052,168.255 181.245,167.905 182.377,166.342 C182.926,165.584 183.146,164.659 182.999,163.736 C182.852,162.813 182.354,162.002 181.597,161.454 C180.993,161.017 180.282,160.788 179.551,160.788 Z M179.529,170.79 C178.171,170.79 176.851,170.365 175.729,169.552 C174.323,168.534 173.398,167.028 173.124,165.314 C172.851,163.6 173.261,161.881 174.279,160.475 C175.298,159.069 176.803,158.144 178.518,157.87 C180.23,157.597 181.951,158.006 183.356,159.024 C184.763,160.043 185.688,161.548 185.962,163.263 C186.235,164.977 185.825,166.696 184.807,168.102 C183.788,169.508 182.283,170.433 180.568,170.707 C180.222,170.762 179.874,170.79 179.529,170.79 Z"/>
    <path fill="#48515A" d="M180.28,151.31 C179.729,151.28 179.31,150.8 179.34,150.25 C179.37,149.7 179.84,149.28 180.39,149.31 C180.939,149.34 181.37,149.81 181.34,150.36 C181.31,150.9 180.859,151.31 180.34,151.31 C180.319,151.31 180.3,151.31 180.28,151.31 Z M175.39,150.88 C175.27,150.34 175.6,149.8 176.14,149.68 C176.68,149.55 177.21,149.89 177.34,150.43 C177.47,150.96 177.13,151.5 176.59,151.63 C176.52,151.64 176.439,151.65 176.37,151.65 C175.91,151.65 175.5,151.34 175.39,150.88 Z M183.91,152.04 C183.39,151.85 183.12,151.28 183.3,150.76 C183.49,150.24 184.06,149.97 184.58,150.16 C185.1,150.34 185.37,150.91 185.189,151.43 C185.04,151.84 184.66,152.1 184.25,152.1 C184.13,152.1 184.02,152.08 183.91,152.04 Z M171.78,152.59 C171.51,152.11 171.68,151.5 172.16,151.23 C172.64,150.95 173.25,151.13 173.52,151.61 C173.79,152.09 173.62,152.7 173.14,152.97 C172.99,153.06 172.819,153.1 172.649,153.1 C172.3,153.1 171.96,152.91 171.78,152.59 Z M187.17,153.76 C186.72,153.44 186.62,152.81 186.95,152.36 C187.27,151.92 187.89,151.82 188.34,152.14 C188.79,152.47 188.89,153.09 188.569,153.54 C188.37,153.81 188.06,153.95 187.75,153.95 C187.55,153.95 187.35,153.89 187.17,153.76 Z M168.8,155.25 C168.399,154.87 168.39,154.23 168.78,153.84 C169.16,153.44 169.8,153.43 170.189,153.81 C170.59,154.2 170.6,154.83 170.21,155.23 L170.22,155.23 C170.02,155.43 169.76,155.53 169.5,155.53 C169.25,155.53 168.99,155.44 168.8,155.25 Z M189.83,156.33 C189.49,155.9 189.569,155.27 190.01,154.93 C190.439,154.59 191.069,154.67 191.41,155.11 C191.75,155.55 191.67,156.18 191.229,156.51 C191.05,156.66 190.84,156.72 190.62,156.72 C190.319,156.72 190.03,156.59 189.83,156.33 Z M166.689,158.64 C166.2,158.38 166.01,157.78 166.27,157.29 C166.53,156.8 167.13,156.62 167.62,156.87 C168.109,157.13 168.3,157.74 168.04,158.23 C167.859,158.57 167.51,158.76 167.149,158.76 C167,158.76 166.84,158.72 166.689,158.64 Z M191.649,159.56 C191.45,159.04 191.7,158.46 192.22,158.26 C192.729,158.06 193.31,158.31 193.52,158.83 C193.72,159.34 193.46,159.92 192.939,160.12 C192.83,160.17 192.7,160.19 192.58,160.19 C192.18,160.19 191.81,159.95 191.649,159.56 Z M165.62,162.49 C165.08,162.38 164.72,161.86 164.83,161.31 C164.83,161.31 164.83,161.31 164.83,161.32 C164.939,160.77 165.47,160.42 166.01,160.53 C166.55,160.64 166.899,161.17 166.8,161.71 C166.7,162.19 166.28,162.51 165.81,162.51 C165.75,162.51 165.68,162.51 165.62,162.49 Z M192.49,163.16 C192.439,162.61 192.85,162.12 193.399,162.08 C193.95,162.03 194.439,162.44 194.479,162.99 C194.53,163.54 194.13,164.02 193.58,164.07 C193.55,164.07 193.52,164.07 193.49,164.07 C192.979,164.07 192.54,163.68 192.49,163.16 Z M164.6,165.58 C164.55,165.03 164.96,164.54 165.51,164.5 C166.06,164.45 166.54,164.86 166.59,165.41 C166.64,165.96 166.229,166.44 165.68,166.49 C165.649,166.49 165.62,166.49 165.59,166.49 C165.08,166.49 164.64,166.1 164.6,165.58 Z M193.069,168.04 C192.53,167.93 192.18,167.4 192.29,166.86 C192.399,166.32 192.92,165.97 193.46,166.07 C194.01,166.18 194.359,166.71 194.25,167.25 C194.149,167.73 193.74,168.06 193.27,168.06 C193.2,168.06 193.14,168.05 193.069,168.04 Z M165.56,169.74 C165.359,169.22 165.62,168.64 166.13,168.44 C166.649,168.24 167.229,168.5 167.43,169.01 C167.63,169.53 167.37,170.11 166.859,170.31 C166.74,170.35 166.62,170.37 166.5,170.37 C166.1,170.37 165.72,170.13 165.56,169.74 Z M191.47,171.69 C190.979,171.44 190.79,170.83 191.05,170.34 C191.3,169.85 191.91,169.67 192.399,169.93 C192.89,170.18 193.069,170.79 192.819,171.28 C192.64,171.61 192.29,171.81 191.93,171.81 C191.77,171.81 191.609,171.77 191.47,171.69 Z M167.67,173.46 C167.33,173.02 167.41,172.39 167.85,172.06 C168.28,171.72 168.91,171.8 169.25,172.23 C169.59,172.67 169.51,173.3 169.069,173.64 C168.89,173.78 168.67,173.85 168.46,173.85 C168.16,173.85 167.859,173.71 167.67,173.46 Z M188.899,174.75 C188.5,174.37 188.49,173.74 188.87,173.34 C189.26,172.94 189.89,172.93 190.29,173.32 C190.689,173.7 190.7,174.33 190.31,174.73 C190.12,174.94 189.85,175.04 189.59,175.04 C189.34,175.04 189.09,174.94 188.899,174.75 Z M170.729,176.43 C170.29,176.1 170.189,175.48 170.51,175.03 C170.84,174.59 171.46,174.48 171.91,174.81 C172.359,175.13 172.45,175.76 172.13,176.21 C171.93,176.48 171.63,176.62 171.319,176.62 C171.12,176.62 170.91,176.56 170.729,176.43 Z M185.569,176.97 C185.3,176.49 185.47,175.88 185.95,175.6 C186.43,175.33 187.04,175.5 187.31,175.98 C187.58,176.46 187.41,177.07 186.93,177.35 C186.78,177.43 186.609,177.48 186.439,177.48 C186.09,177.48 185.75,177.29 185.569,176.97 Z M174.51,178.42 C173.99,178.24 173.72,177.67 173.899,177.14 C174.09,176.62 174.66,176.35 175.18,176.54 C175.7,176.72 175.97,177.3 175.79,177.82 C175.64,178.23 175.26,178.48 174.84,178.48 C174.729,178.48 174.62,178.46 174.51,178.42 Z M181.75,178.15 C181.63,177.61 181.96,177.07 182.5,176.95 C183.03,176.82 183.569,177.16 183.7,177.7 C183.819,178.23 183.49,178.77 182.95,178.89 C182.87,178.91 182.8,178.92 182.72,178.92 C182.27,178.92 181.859,178.61 181.75,178.15 Z M178.7,179.27 C178.149,179.23 177.72,178.76 177.75,178.21 C177.78,177.66 178.26,177.24 178.81,177.27 C179.359,177.3 179.78,177.77 179.75,178.32 C179.72,178.85 179.28,179.27 178.75,179.27 C178.729,179.27 178.72,179.27 178.7,179.27 Z"/>
    <path fill="#F58E70" d="M44.953,164.119 C44.953,165.224 45.848,166.119 46.953,166.119 C48.057,166.119 48.953,165.224 48.953,164.119 C48.953,163.014 48.057,162.119 46.953,162.119 C45.848,162.119 44.953,163.014 44.953,164.119"/>
    <path fill="#475059" d="M86.688,53.377 C81.726,53.377 77.688,57.415 77.688,62.377 C77.688,67.339 81.726,71.377 86.688,71.377 C91.651,71.377 95.688,67.339 95.688,62.377 C95.688,57.415 91.651,53.377 86.688,53.377 Z M86.688,73.377 C80.623,73.377 75.688,68.442 75.688,62.377 C75.688,56.311 80.623,51.377 86.688,51.377 C92.754,51.377 97.688,56.311 97.688,62.377 C97.688,68.442 92.754,73.377 86.688,73.377 Z M86.688,47.377 C78.417,47.377 71.688,54.106 71.688,62.377 C71.688,70.648 78.417,77.377 86.688,77.377 C94.96,77.377 101.688,70.648 101.688,62.377 C101.688,54.106 94.96,47.377 86.688,47.377 Z M86.688,79.377 C77.314,79.377 69.688,71.751 69.688,62.377 C69.688,53.003 77.314,45.377 86.688,45.377 C96.062,45.377 103.688,53.003 103.688,62.377 C103.688,71.751 96.062,79.377 86.688,79.377 Z"/>
    <path fill="#475059" d="M86.688,59.377 C85.034,59.377 83.688,60.723 83.688,62.377 C83.688,64.031 85.034,65.377 86.688,65.377 C88.343,65.377 89.688,64.031 89.688,62.377 C89.688,60.723 88.343,59.377 86.688,59.377 Z M86.688,67.377 C83.932,67.377 81.688,65.134 81.688,62.377 C81.688,59.62 83.932,57.377 86.688,57.377 C89.445,57.377 91.688,59.62 91.688,62.377 C91.688,65.134 89.445,67.377 86.688,67.377 Z"/>
    <path fill="#F58E70" d="M86.688,58.377 C84.479,58.377 82.688,60.168 82.688,62.377 C82.688,64.586 84.479,66.377 86.688,66.377 C88.897,66.377 90.688,64.586 90.688,62.377 C90.688,60.168 88.897,58.377 86.688,58.377"/>
    <path fill="#F58E70" d="M86.688,59.377 C85.034,59.377 83.688,60.723 83.688,62.377 C83.688,64.031 85.034,65.377 86.688,65.377 C88.343,65.377 89.688,64.031 89.688,62.377 C89.688,60.723 88.343,59.377 86.688,59.377 Z M86.688,67.377 C83.932,67.377 81.688,65.134 81.688,62.377 C81.688,59.62 83.932,57.377 86.688,57.377 C89.445,57.377 91.688,59.62 91.688,62.377 C91.688,65.134 89.445,67.377 86.688,67.377 Z"/>
    <polygon fill="#475059" points="60 63.542 87 63.542 87 61.542 60 61.542"/>
    <path fill="#475059" d="M53.104,65.542 L56.275,65.542 L59.275,62.542 L56.275,59.542 L53.104,59.542 L56.104,62.542 L53.104,65.542 Z M57.104,67.541 L48.275,67.541 L53.275,62.542 L48.275,57.542 L57.104,57.542 L62.104,62.542 L57.104,67.541 Z"/>
    <path fill="#48515A" d="M106.96 168.46C106.89 168.46 106.83 168.45 106.76 168.44 106.7 168.43 106.64 168.41 106.58 168.38 106.52 168.36 106.46 168.33 106.399 168.29 106.35 168.25 106.3 168.21 106.25 168.17 106.06 167.98 105.96 167.72 105.96 167.46 105.96 167.33 105.979 167.2 106.03 167.08 106.09 166.95 106.16 166.84 106.25 166.75 106.3 166.71 106.35 166.66 106.399 166.63 106.46 166.59 106.52 166.56 106.58 166.54 106.64 166.51 106.7 166.49 106.76 166.48 106.96 166.44 107.16 166.46 107.34 166.54 107.46 166.59 107.569 166.66 107.67 166.75 107.76 166.84 107.83 166.95 107.88 167.08 107.93 167.2 107.96 167.33 107.96 167.46 107.96 167.72 107.85 167.98 107.67 168.17 107.569 168.26 107.46 168.33 107.34 168.38 107.22 168.43 107.09 168.46 106.96 168.46M134.21 49.83C133.95 49.83 133.689 49.73 133.5 49.54 133.319 49.35 133.21 49.1 133.21 48.83 133.21 48.57 133.319 48.31 133.5 48.13 133.87 47.75 134.54 47.76 134.92 48.13 135.1 48.31 135.21 48.57 135.21 48.83 135.21 49.1 135.1 49.36 134.92 49.54 134.729 49.73 134.47 49.83 134.21 49.83M168.874 99.958C168.859 99.958 168.845 99.958 168.83 99.957 168.278 99.934 167.827 99.466 167.852 98.914 167.876 98.362 168.327 97.94 168.871 97.957L168.916 97.96C169.468 97.983 169.896 98.45 169.872 99.002 169.849 99.539 169.406 99.958 168.874 99.958M169 123.54C168.87 123.54 168.74 123.52 168.62 123.47 168.49 123.41 168.39 123.34 168.29 123.25 168.2 123.16 168.13 123.05 168.08 122.92 168.03 122.8 168 122.67 168 122.54 168 122.28 168.109 122.02 168.29 121.83 168.39 121.74 168.49 121.67 168.62 121.62 168.8 121.54 169 121.52 169.2 121.56 169.26 121.57 169.319 121.59 169.38 121.62 169.439 121.64 169.5 121.67 169.56 121.71 169.609 121.75 169.66 121.79 169.71 121.83 169.89 122.02 170 122.28 170 122.54 170 122.67 169.97 122.8 169.92 122.92 169.87 123.05 169.8 123.16 169.71 123.25 169.66 123.29 169.609 123.34 169.56 123.37 169.5 123.41 169.439 123.44 169.38 123.47 169.319 123.49 169.26 123.51 169.2 123.52 169.13 123.54 169.069 123.54 169 123.54M81.821 99.958C81.806 99.958 81.791 99.958 81.776 99.957 81.225 99.933 80.774 99.465 80.8 98.913 80.824 98.36 81.309 97.943 81.82 97.957L81.864 97.96C82.416 97.984 82.844 98.451 82.819 99.003 82.796 99.54 82.353 99.958 81.821 99.958M82 123.54C81.729 123.54 81.479 123.43 81.29 123.25 81.109 123.06 81 122.81 81 122.54 81 122.28 81.109 122.02 81.29 121.83 81.52 121.6 81.87 121.49 82.2 121.56 82.26 121.57 82.319 121.59 82.38 121.62 82.439 121.64 82.5 121.67 82.56 121.71 82.609 121.75 82.66 121.79 82.71 121.83 82.89 122.02 83 122.28 83 122.54 83 122.8 82.89 123.06 82.71 123.25 82.66 123.29 82.609 123.34 82.56 123.37 82.5 123.41 82.439 123.44 82.38 123.46 82.319 123.49 82.26 123.51 82.2 123.52 82.13 123.53 82.069 123.54 82 123.54"/>
  </g>
</svg>
