<svg xmlns="http://www.w3.org/2000/svg" width="250" height="250" viewBox="0 0 250 250">
  <g fill="none" fill-rule="evenodd">
    <polygon fill="#48515A" points="213.097 101.897 215.097 101.897 215.097 97.897 213.097 97.897"/>
    <polygon fill="#48515A" points="213.097 111.897 215.097 111.897 215.097 107.897 213.097 107.897"/>
    <polygon fill="#48515A" points="217.097 105.897 221.097 105.897 221.097 103.897 217.097 103.897"/>
    <polygon fill="#48515A" points="207.097 105.897 211.097 105.897 211.097 103.897 207.097 103.897"/>
    <path fill="#DEDEDD" d="M180.55 158.835L181.456 158.408 188.521 153.408C188.348 153.264 188.17 153.125 187.986 152.991 186.053 151.579 183.533 150.904 180.932 151.07L180.55 158.835M180.932 151.07L180.55 158.835M163.543 158.906C150.39 165.345 133.896 173.518 133.053 173.754 132.833 173.816 148.803 173.782 148.803 173.782L164.105 166.577 163.543 158.906"/>
    <path fill="#FFD15D" d="M180.898,99.128 L180.761,85.982 L183.78,85.951 L184.606,101.181 L185.551,107.038 L190.099,107.038 L186.559,85.921 L186.567,85.921 L185.184,78.213 C184.524,75.992 182.468,74.451 180.142,74.451 L177.995,74.451 L171.938,90.348 L165.834,74.451 L164.329,74.451 C161.977,74.451 159.915,76.013 159.272,78.264 L154.451,107.038 L158.999,107.038 L159.944,101.181 L160.77,85.961 L163.26,86.013 L162.956,99.13 L180.898,99.128"/>
    <polyline fill="#5FE0ED" points="91.018 159.015 91.018 122.244 85.018 122.244 85.018 160.684 77.927 167.395 77.887 123.609 79.404 123.609 82.579 118.204 82.579 116.926 93.837 116.926 93.837 118.107 96.632 123.609 98.746 123.609 98.746 159.015 91.018 159.015"/>
    <polygon fill="#DFE0E0" points="120.715 136.575 141.7 136.575 141.7 131.951 120.715 131.951"/>
    <polyline fill="#DFE0E0" points="181.42 143.579 162.436 143.579 161.435 131.951 182.42 131.951 181.42 143.579"/>
    <polyline fill="#DFE0E0" points="168.285 67.601 170.007 68.828 174.303 68.828 175.928 67.107 175.928 71.451 171.928 81.201 167.928 70.742 168.285 67.601"/>
    <polygon fill="#DFE0E0" points="126.673 103.195 134.655 103.195 134.655 99.167 126.673 99.167"/>
    <path fill="#DFE0E0" d="M82.878,63.71 L82.878,65.951 L92.673,65.951 L92.717,62.612 L92.717,60.42 C92.903,60.236 93.094,60.039 93.265,59.84 C93.207,59.892 93.151,59.943 93.103,59.994 C92.419,60.729 91.382,61.501 90.68,62.1 C90.125,62.574 89.423,62.837 88.693,62.845 L86.582,62.845 C85.852,62.837 85.15,62.574 84.595,62.1 C83.925,61.528 82.95,60.799 82.268,60.095 C82.247,60.074 82.224,60.053 82.201,60.031 C82.406,60.249 82.64,60.47 82.89,60.689 C82.884,60.692 82.878,60.695 82.878,60.701 L82.878,63.71"/>
    <path fill="#48515A" d="M108.706,119.972 L101.746,119.972 C101.193,119.972 100.746,119.524 100.746,118.972 C100.746,118.419 101.193,117.972 101.746,117.972 L107.877,117.972 L108.927,116.921 L108.927,73.789 L91.684,65.643 L91.684,59.995 L91.982,59.701 C92.572,59.12 92.754,58.842 92.803,58.711 L94.943,54.34 L97.093,53.264 L97.513,51.185 L97.019,51.127 L95.83,51.127 L96.034,49.956 C96.205,48.976 96.291,48.098 96.291,47.346 L96.291,46.981 C96.3,45.73 96.044,44.55 95.55,43.488 C95.502,43.379 95.455,43.279 95.405,43.18 C94.842,42.045 94.019,41.031 93.022,40.246 C91.515,39.058 89.703,38.423 87.78,38.41 C87.761,38.41 87.742,38.41 87.723,38.41 C85.514,38.41 83.409,39.293 81.789,40.903 C80.111,42.569 79.149,44.861 79.149,47.19 L79.149,47.346 C79.149,48.118 79.224,49.003 79.371,49.978 L79.544,51.127 L77.988,51.127 C77.959,51.127 77.933,51.14 77.915,51.161 L78.521,53.276 L80.421,54.374 L82.443,58.647 C82.665,59.234 83.851,60.198 84.56,60.774 C84.805,60.974 85.039,61.164 85.245,61.339 C85.62,61.66 86.098,61.839 86.594,61.845 L88.698,61.845 C89.251,61.845 89.698,62.292 89.698,62.845 C89.698,63.397 89.251,63.845 88.698,63.845 L86.582,63.845 C85.608,63.833 84.675,63.484 83.946,62.86 C83.751,62.694 83.53,62.515 83.298,62.326 C82.211,61.443 80.98,60.442 80.601,59.424 L78.88,55.793 L76.82,54.604 L75.893,51.222 C75.893,50.322 76.463,49.554 77.26,49.258 C77.186,48.574 77.149,47.934 77.149,47.346 L77.149,47.19 C77.149,44.332 78.326,41.523 80.378,39.484 C82.393,37.483 85.029,36.377 87.794,36.41 C90.165,36.426 92.402,37.21 94.26,38.675 C95.488,39.643 96.503,40.893 97.196,42.29 C97.255,42.409 97.312,42.531 97.368,42.653 C97.981,43.974 98.302,45.45 98.293,46.915 L98.291,47.346 C98.291,47.925 98.248,48.561 98.163,49.247 C98.455,49.351 98.721,49.521 98.945,49.751 C99.335,50.152 99.542,50.683 99.527,51.243 L99.507,51.413 L98.861,54.616 L96.441,55.827 L94.637,59.503 C94.482,59.929 94.106,60.386 93.684,60.825 L93.684,64.375 L110.927,72.521 L110.927,117.75 L108.706,119.972"/>
    <polygon fill="#48515A" points="74.889 114.927 101.475 114.927 101.475 112.927 74.889 112.927"/>
    <polygon fill="#48515A" points="87.018 160.206 89.018 160.206 89.018 122.245 87.018 122.245"/>
    <polyline fill="#48515A" points="73.927 170.793 73.872 114.151 71.982 110.148 71.982 82.972 73.982 82.972 73.982 109.7 75.872 113.702 75.872 113.926 75.927 170.792 73.927 170.793"/>
    <polyline fill="#48515A" points="102.746 158.711 100.746 158.711 100.746 113.73 102.382 109.728 102.382 82.972 104.382 82.972 104.382 110.121 102.746 114.124 102.746 158.711"/>
    <polyline fill="#48515A" points="105.432 129.79 101.746 129.79 101.746 127.79 104.604 127.79 105.655 126.74 105.655 118.972 107.655 118.972 107.655 127.568 105.432 129.79"/>
    <polyline fill="#48515A" points="78.258 121.608 74.619 121.608 74.619 119.608 77.114 119.608 78.579 117.116 78.579 113.647 80.579 113.647 80.579 117.66 78.258 121.608"/>
    <polyline fill="#48515A" points="101.542 121.608 97.86 121.608 95.836 117.627 95.836 113.596 97.836 113.596 97.836 117.148 99.086 119.608 101.542 119.608 101.542 121.608"/>
    <polyline fill="#48515A" points="74.11 119.972 67.15 119.972 64.927 117.75 64.927 72.523 81.877 64.458 81.877 60.701 83.877 60.701 83.877 65.722 66.927 73.787 66.927 116.921 67.978 117.972 74.11 117.972 74.11 119.972"/>
    <polyline fill="#48515A" points="74.11 129.79 70.422 129.79 68.201 127.568 68.201 118.972 70.201 118.972 70.201 126.74 71.251 127.79 74.11 127.79 74.11 129.79"/>
    <polyline fill="#475059" points="157.927 118.951 151.927 118.951 151.927 109.951 153.927 109.951 153.927 116.951 157.927 116.951 157.927 118.951"/>
    <path fill="#475059" d="M163.503,72.016 C161.818,69.557 160.927,66.682 160.927,63.702 L160.927,55.951 C160.927,49.885 165.862,44.951 171.927,44.951 C177.993,44.951 182.927,49.885 182.927,55.951 L182.927,64.657 C182.927,66.968 182.373,69.277 181.324,71.335 L181.033,71.905 L179.251,70.996 L179.542,70.426 C180.449,68.649 180.927,66.653 180.927,64.657 L180.927,55.951 C180.927,50.988 176.89,46.951 171.927,46.951 C166.964,46.951 162.927,50.988 162.927,55.951 L162.927,63.702 C162.927,66.276 163.697,68.76 165.154,70.885 L163.503,72.016"/>
    <polygon fill="#475059" points="166.927 71.95 168.927 71.95 168.927 66.95 166.927 66.95"/>
    <path fill="#475059" d="M176.927,71.951 L174.927,71.951 L174.927,66.698 L175.528,66.092 C175.969,65.653 176.469,65.155 176.797,64.656 C177.176,64.081 177.514,63.372 177.803,62.549 L177.915,62.229 L178.927,61.565 L178.927,60.493 C177.763,60.081 176.927,58.968 176.927,57.665 L176.927,56.951 L166.927,56.951 L166.927,57.665 C166.927,58.968 166.091,60.081 164.927,60.493 L164.927,61.564 L165.94,62.229 L166.052,62.549 C166.341,63.372 166.679,64.081 167.058,64.656 C167.947,66.009 169.183,67.098 169.84,67.626 C170.095,67.832 170.423,67.947 170.766,67.95 L173.099,67.95 L173.099,69.95 L170.755,69.95 C169.956,69.942 169.189,69.67 168.586,69.185 C167.672,68.449 166.375,67.257 165.386,65.755 C164.971,65.123 164.6,64.377 164.283,63.534 L162.927,62.645 L162.927,58.665 L163.927,58.665 C164.479,58.665 164.927,58.216 164.927,57.665 L164.927,54.951 L178.927,54.951 L178.927,57.665 C178.927,58.216 179.375,58.665 179.927,58.665 L180.927,58.665 L180.927,62.644 L179.573,63.534 C179.255,64.377 178.884,65.123 178.469,65.755 C178.027,66.427 177.449,67.002 176.938,67.51 L176.927,67.521 L176.927,71.951"/>
    <polyline fill="#475059" points="113.207 129.875 109.873 128.816 105.219 129.77 104.817 127.811 109.982 126.752 112.98 127.705 116.222 125.868 119.121 121.406 120.798 122.496 117.632 127.367 113.207 129.875"/>
    <path fill="#475059" d="M107.396,124.241 L106.375,122.522 L111.891,119.241 L119.956,103.113 L125.659,101.444 L125.67,99.569 L124.346,98.197 C123.255,97.067 122.658,95.58 122.664,94.009 L122.681,88.867 C122.689,86.745 123.523,84.752 125.03,83.256 C126.537,81.761 128.55,80.94 130.659,80.951 C130.669,80.951 130.681,80.951 130.692,80.951 C132.794,80.951 134.781,81.769 136.28,83.256 C137.787,84.752 138.621,86.745 138.628,88.868 L138.647,94.009 C138.652,95.58 138.054,97.067 136.964,98.197 L135.639,99.569 L135.651,101.444 L141.345,103.111 L148.397,116.686 L152.557,115.022 L153.299,116.879 L147.458,119.215 L139.964,104.791 L133.659,102.945 L133.635,98.766 L135.525,96.808 C136.251,96.055 136.65,95.063 136.647,94.016 L136.628,88.875 C136.623,87.287 135.999,85.795 134.871,84.676 C133.75,83.563 132.263,82.951 130.684,82.951 C130.668,82.951 130.652,82.951 130.634,82.951 C129.046,82.951 127.56,83.563 126.439,84.676 C125.311,85.795 124.687,87.286 124.681,88.874 L124.664,94.016 C124.66,95.063 125.058,96.055 125.786,96.808 L127.674,98.766 L127.651,102.945 L121.354,104.788 L113.418,120.66 L107.396,124.241"/>
    <polyline fill="#475059" points="119.912 158.744 119.038 131.874 118.927 117.958 120.927 117.943 121.037 131.833 121.91 158.678 119.912 158.744"/>
    <polyline fill="#475059" points="141.677 158.491 139.679 158.397 140.928 131.904 140.927 117.951 142.927 117.951 142.927 131.951 141.677 158.491"/>
    <polyline fill="#475059" points="148.164 126.951 144.15 126.951 140.896 122.545 142.505 121.356 145.16 124.951 147.691 124.951 151.209 123.192 152.211 121.438 155.799 119.678 156.68 121.474 153.643 122.963 152.645 124.709 148.164 126.951"/>
    <polygon fill="#475059" points="161.927 132.951 181.927 132.951 181.927 130.951 161.927 130.951"/>
    <polygon fill="#475059" points="170.927 165.999 172.927 165.999 172.927 131.951 170.927 131.951"/>
    <polyline fill="#475059" points="192.927 118.951 187.927 118.951 187.927 116.951 190.927 116.951 190.927 109.951 192.927 109.951 192.927 118.951"/>
    <path fill="#475059" d="M195.123,110.951 L185.927,110.951 L185.927,108.951 L192.732,108.951 L187.126,77.714 C186.287,74.65 183.407,72.451 180.142,72.451 L176.617,72.452 L171.931,84.75 L167.208,72.451 L164.329,72.451 C161.028,72.451 158.14,74.681 157.305,77.875 L152.108,108.951 L157.927,108.951 L157.927,110.951 L149.746,110.951 L155.351,77.457 C156.435,73.296 160.119,70.451 164.329,70.451 L168.583,70.451 L171.923,79.151 L175.238,70.452 L180.142,70.451 C184.306,70.451 187.979,73.256 189.076,77.274 L195.123,110.951"/>
    <polyline fill="#475059" points="163.057 169.932 160.982 132.951 153.251 132.951 158.929 101.85 159.261 85.93 161.261 85.972 160.911 102.13 155.65 130.951 162.873 130.951 165.053 169.819 163.057 169.932"/>
    <polyline fill="#475059" points="181.284 161.809 179.288 161.699 180.981 130.951 189.209 130.951 182.927 101.961 182.761 85.961 184.761 85.94 184.926 101.838 191.692 132.951 182.874 132.951 181.284 161.809"/>
    <path fill="#48515A" d="M162.928,101.949 C162.928,101.399 163.378,100.949 163.928,100.949 C164.478,100.949 164.928,101.399 164.928,101.949 C164.928,102.499 164.478,102.949 163.928,102.949 C163.378,102.949 162.928,102.499 162.928,101.949 Z M166.928,101.949 C166.928,101.399 167.378,100.949 167.928,100.949 C168.478,100.949 168.928,101.399 168.928,101.949 C168.928,102.499 168.478,102.949 167.928,102.949 C167.378,102.949 166.928,102.499 166.928,101.949 Z M170.928,101.949 C170.928,101.399 171.378,100.949 171.928,100.949 C172.478,100.949 172.928,101.399 172.928,101.949 C172.928,102.499 172.478,102.949 171.928,102.949 C171.378,102.949 170.928,102.499 170.928,101.949 Z M174.928,101.949 C174.928,101.399 175.378,100.949 175.928,100.949 C176.478,100.949 176.928,101.399 176.928,101.949 C176.928,102.499 176.478,102.949 175.928,102.949 C175.378,102.949 174.928,102.499 174.928,101.949 Z M178.928,101.949 C178.928,101.399 179.378,100.949 179.928,100.949 C180.478,100.949 180.928,101.399 180.928,101.949 C180.928,102.499 180.478,102.949 179.928,102.949 C179.378,102.949 178.928,102.499 178.928,101.949 Z"/>
    <polygon fill="#475059" points="120.037 132.841 141.927 132.841 141.927 130.841 120.037 130.841"/>
    <polygon fill="#475059" points="129.927 158.444 131.927 158.444 131.927 136.575 129.927 136.575"/>
    <path fill="#475059" d="M129.928,100.951 C129.85,100.951 129.772,100.942 129.693,100.923 L126.438,100.14 C125.902,100.011 125.571,99.471 125.7,98.934 C125.829,98.396 126.363,98.064 126.907,98.195 L130.162,98.979 C130.698,99.107 131.029,99.647 130.9,100.185 C130.79,100.643 130.379,100.951 129.928,100.951"/>
    <polygon fill="#48515A" points="34.903 70.878 36.903 70.878 36.903 66.878 34.903 66.878"/>
    <polygon fill="#48515A" points="34.903 80.878 36.903 80.878 36.903 76.878 34.903 76.878"/>
    <polygon fill="#48515A" points="38.903 74.878 42.903 74.878 42.903 72.878 38.903 72.878"/>
    <polygon fill="#48515A" points="28.903 74.878 32.903 74.878 32.903 72.878 28.903 72.878"/>
    <path fill="#FFD15D" d="M188.418,168.396 C188.418,169.719 187.345,170.792 186.021,170.792 C184.698,170.792 183.625,169.719 183.625,168.396 C183.625,167.072 184.698,165.999 186.021,165.999 C187.345,165.999 188.418,167.072 188.418,168.396"/>
    <path fill="#DEDEDD" d="M57.928,208.763 L57.928,208.766 C57.928,209.957 57.13,210.754 55.939,210.754 L55.937,210.754 L48.928,210.918 L48.928,196.744 L55.986,196.751 C56.558,196.751 57.104,196.978 57.515,197.39 C57.925,197.801 58.067,198.343 58.067,198.912 L57.928,208.763"/>
    <path fill="#475059" d="M81.986,207.754 L60.927,207.754 L60.927,205.754 L81.794,205.754 L158.921,190.808 L202.453,164.11 C196.695,158.95 189.688,158.002 183.499,161.61 L156.237,174.754 L109.462,174.754 L109.462,172.754 L127.777,172.754 C135.666,172.754 141.917,167.036 142.433,159.56 L93.801,159.754 C89.63,159.754 85.544,161.453 82.582,164.414 L61.748,185.228 L60.334,183.813 L81.169,162.999 C84.501,159.666 89.104,157.754 93.797,157.754 L144.467,157.552 L144.467,158.556 C144.467,164.746 141.063,170.021 135.933,172.754 L155.78,172.754 L182.56,159.846 C189.853,155.593 198.189,156.97 204.793,163.574 L205.69,164.471 L159.658,192.703 L159.48,192.737 L81.986,207.754"/>
    <path fill="#475059" d="M141.613 167.412C141.25 167.412 140.902 167.215 140.724 166.872 140.47 166.381 140.662 165.778 141.152 165.524L162.773 154.323C163.265 154.066 163.867 154.261 164.121 154.75 164.375 155.241 164.183 155.844 163.693 156.098L142.072 167.299C141.924 167.375 141.767 167.412 141.613 167.412M182.996 161.747C182.676 161.747 182.363 161.594 182.168 161.311 181.857 160.854 181.974 160.232 182.431 159.921L191.57 153.68C190.883 152.814 190.078 152.042 189.166 151.376 186.935 149.747 184.065 148.919 181.086 149.055 180.562 149.073 180.068 148.652 180.043 148.1 180.019 147.548 180.447 147.081 180.999 147.057 184.431 146.908 187.75 147.865 190.345 149.761 191.72 150.765 192.888 151.979 193.817 153.369 194.121 153.825 194.001 154.441 193.548 154.75L183.558 161.572C183.386 161.69 183.19 161.747 182.996 161.747M46.927 212.952L55.924 212.961C55.926 212.961 55.927 212.961 55.929 212.961 57.034 212.961 58.079 212.527 58.87 211.74 59.662 210.951 60.099 209.909 60.1 208.804L60.1 208.803 60.156 177.825C60.157 176.721 59.722 175.678 58.931 174.888 58.141 174.098 57.096 173.662 55.989 173.661L46.927 173.651 46.927 212.952zM55.929 214.961C55.926 214.961 55.924 214.961 55.922 214.961L44.927 214.95 44.927 171.649 55.991 171.661C57.631 171.662 59.177 172.306 60.345 173.473 61.514 174.642 62.158 176.188 62.156 177.828L62.1 208.807C62.096 212.202 59.329 214.961 55.929 214.961z"/>
    <path fill="#DEDEDD" d="M109.462 169.754L132.905 169.754C136.492 168.754 139.175 165.754 140.108 161.754L135.316 161.754C133.22 163.754 130.626 163.754 127.777 163.754L115.462 163.754C112.148 163.754 109.462 166.441 109.462 169.754M191.316 161.685L158.187 181.963 81.603 196.754 64.122 196.754 64.109 203.754 81.603 203.754 158.187 188.975 198.928 164.035C196.509 162.463 193.915 161.684 191.316 161.685"/>
    <polygon fill="#48515A" points="41.879 134.902 43.879 134.902 43.879 130.902 41.879 130.902"/>
    <polygon fill="#48515A" points="41.879 144.902 43.879 144.902 43.879 140.902 41.879 140.902"/>
    <polygon fill="#48515A" points="45.879 138.902 49.879 138.902 49.879 136.902 45.879 136.902"/>
    <polygon fill="#48515A" points="35.879 138.902 39.879 138.902 39.879 136.902 35.879 136.902"/>
    <path fill="#FFD15D" d="M197.651 65.245C197.651 66.273 196.817 67.107 195.789 67.107 194.761 67.107 193.928 66.273 193.928 65.245 193.928 64.217 194.761 63.384 195.789 63.384 196.817 63.384 197.651 64.217 197.651 65.245M120.419 76.199C120.419 77.165 119.636 77.948 118.671 77.948 117.705 77.948 116.922 77.165 116.922 76.199 116.922 75.233 117.705 74.451 118.671 74.451 119.636 74.451 120.419 75.233 120.419 76.199M109.928 37.494C109.928 38.849 108.829 39.948 107.473 39.948 106.117 39.948 105.019 38.849 105.019 37.494 105.019 36.138 106.117 35.039 107.473 35.039 108.829 35.039 109.928 36.138 109.928 37.494"/>
    <path fill="#5FE0ED" d="M54.064 62.97C54.064 64.638 55.417 65.991 57.086 65.991 58.754 65.991 60.107 64.638 60.107 62.97 60.107 61.301 58.754 59.948 57.086 59.948 55.417 59.948 54.064 61.301 54.064 62.97M209.087 132.987C209.087 134.368 207.967 135.487 206.587 135.487 205.206 135.487 204.087 134.368 204.087 132.987 204.087 131.606 205.206 130.487 206.587 130.487 207.967 130.487 209.087 131.606 209.087 132.987M150.349 43.183C150.349 44.969 148.9 46.417 147.114 46.417 145.328 46.417 143.88 44.969 143.88 43.183 143.88 41.396 145.328 39.948 147.114 39.948 148.9 39.948 150.349 41.396 150.349 43.183"/>
    <path fill="#475059" d="M129.928,64.038 L127.928,64.038 C127.928,61.832 126.134,60.038 123.928,60.038 C121.722,60.038 119.928,61.832 119.928,64.038 L117.928,64.038 C117.928,60.729 120.62,58.038 123.928,58.038 C127.237,58.038 129.928,60.729 129.928,64.038"/>
    <path fill="#475059" d="M139.928,64.038 L137.928,64.038 C137.928,61.832 136.134,60.038 133.928,60.038 C131.722,60.038 129.928,61.832 129.928,64.038 L127.928,64.038 C127.928,60.729 130.62,58.038 133.928,58.038 C137.237,58.038 139.928,60.729 139.928,64.038"/>
    <path fill="#475059" d="M149.928,64.038 L147.928,64.038 C147.928,61.832 146.134,60.038 143.928,60.038 C141.722,60.038 139.928,61.832 139.928,64.038 L137.928,64.038 C137.928,60.729 140.62,58.038 143.928,58.038 C147.237,58.038 149.928,60.729 149.928,64.038"/>
    <path fill="#475059" d="M117.928,63.038 C117.928,54.215 125.106,47.037 133.928,47.037 C142.75,47.037 149.928,54.215 149.928,63.037 L147.928,63.037 C147.928,55.317 141.648,49.037 133.928,49.037 C126.208,49.037 119.928,55.317 119.928,63.037 L117.928,63.038"/>
    <path fill="#475059" d="M130.428,77.039 C127.947,77.039 125.928,75.02 125.928,72.539 L127.928,72.539 C127.928,73.917 129.049,75.039 130.428,75.039 C131.807,75.039 132.928,73.917 132.928,72.539 L132.928,59.038 L134.928,59.038 L134.928,72.539 C134.928,75.02 132.91,77.039 130.428,77.039"/>
    <polygon fill="#475059" points="132.928 48.037 134.928 48.037 134.928 45.039 132.928 45.039"/>
  </g>
</svg>
