<svg xmlns="http://www.w3.org/2000/svg" width="250" height="250" viewBox="0 0 250 250">
  <g fill="none" fill-rule="evenodd">
    <path fill="#5FE0ED" d="M171.392,140.112 C171.749,138.532 172.353,137.045 173.188,135.712 C175.103,132.652 178.15,130.374 181.745,129.462 C182.729,123.003 188.269,118.044 194.984,117.961 L195.155,117.961 C202.568,118.053 208.55,124.087 208.55,131.522 C208.55,132.261 208.488,132.986 208.375,133.693 C212.323,133.828 215.618,136.491 216.716,140.112 L171.392,140.112"/>
    <polygon fill="#48515A" points="38.997 152.038 40.997 152.038 40.997 148.038 38.997 148.038"/>
    <polygon fill="#48515A" points="38.997 162.038 40.997 162.038 40.997 158.038 38.997 158.038"/>
    <polygon fill="#48515A" points="42.997 156.038 46.997 156.038 46.997 154.038 42.997 154.038"/>
    <polygon fill="#48515A" points="32.997 156.038 36.997 156.038 36.997 154.038 32.997 154.038"/>
    <polygon fill="#48515A" points="86.997 42.043 88.997 42.043 88.997 38.043 86.997 38.043"/>
    <polygon fill="#48515A" points="86.997 52.043 88.997 52.043 88.997 48.043 86.997 48.043"/>
    <polygon fill="#48515A" points="90.997 46.043 94.997 46.043 94.997 44.043 90.997 44.043"/>
    <polygon fill="#48515A" points="80.997 46.043 84.997 46.043 84.997 44.043 80.997 44.043"/>
    <path fill="#FFD15D" d="M154.997 52.037C154.997 53.142 154.102 54.037 152.997 54.037 151.893 54.037 150.997 53.142 150.997 52.037 150.997 50.933 151.893 50.037 152.997 50.037 154.102 50.037 154.997 50.933 154.997 52.037M66.997 160.037C66.997 161.142 66.102 162.037 64.997 162.037 63.893 162.037 62.997 161.142 62.997 160.037 62.997 158.933 63.893 158.037 64.997 158.037 66.102 158.037 66.997 158.933 66.997 160.037M94.997 143.037C94.997 143.59 94.55 144.037 93.997 144.037 93.445 144.037 92.997 143.59 92.997 143.037 92.997 142.485 93.445 142.037 93.997 142.037 94.55 142.037 94.997 142.485 94.997 143.037"/>
    <path fill="#5FE0ED" d="M119.313 78.798C119.67 77.217 120.274 75.73 121.108 74.398 123.024 71.337 126.071 69.059 129.666 68.147 130.65 61.688 136.19 56.73 142.905 56.646L143.076 56.646C150.489 56.738 156.471 62.773 156.471 70.207 156.471 70.947 156.409 71.671 156.296 72.378 160.243 72.513 163.539 75.176 164.637 78.798L119.313 78.798M45.269 122.824C45.626 121.243 46.23 119.757 47.064 118.424 48.98 115.364 52.026 113.085 55.621 112.174 56.606 105.715 62.146 100.756 68.86 100.673L69.032 100.673C76.445 100.765 82.426 106.799 82.426 114.234 82.426 114.973 82.365 115.698 82.251 116.405 86.199 116.539 89.495 119.203 90.593 122.824L45.269 122.824"/>
    <polygon fill="#48515A" points="204.997 176.062 206.997 176.062 206.997 172.062 204.997 172.062"/>
    <polygon fill="#48515A" points="204.997 186.062 206.997 186.062 206.997 182.062 204.997 182.062"/>
    <polygon fill="#48515A" points="208.997 180.062 212.997 180.062 212.997 178.062 208.997 178.062"/>
    <polygon fill="#48515A" points="198.997 180.062 202.997 180.062 202.997 178.062 198.997 178.062"/>
    <path fill="#DEDEDD" d="M180.804 148.198C183.819 147.707 186.827 148.359 189.056 149.987 189.239 150.121 189.418 150.26 189.591 150.404L182.526 155.404 149.872 170.778C149.872 170.778 133.903 170.812 134.122 170.75 135.512 170.361 179.384 148.429 180.804 148.198M58.997 205.759L58.997 205.762C58.997 206.953 58.199 207.75 57.008 207.75 57.008 207.75 57.007 207.75 57.007 207.75L49.997 207.914 49.997 193.74 57.056 193.747C57.628 193.747 58.174 193.974 58.584 194.386 58.995 194.797 59.137 195.339 59.137 195.908L58.997 205.759"/>
    <path fill="#475059" d="M83.056,204.75 L61.997,204.75 L61.997,202.75 L82.865,202.75 L159.991,187.804 L203.522,161.106 C197.764,155.946 190.759,154.997 184.567,158.606 L157.306,171.75 L110.531,171.75 L110.531,169.75 L128.847,169.75 C136.735,169.75 142.987,164.032 143.503,156.556 L94.871,156.75 C90.7,156.75 86.613,158.449 83.652,161.409 L62.818,182.223 L61.405,180.808 L82.238,159.995 C85.571,156.662 90.174,154.75 94.867,154.75 L145.537,154.548 L145.537,155.552 C145.537,161.741 142.133,167.017 137.003,169.75 L156.849,169.75 L183.63,156.842 C190.921,152.588 199.26,153.966 205.863,160.57 L206.76,161.467 L160.728,189.698 L160.55,189.733 L83.056,204.75"/>
    <path fill="#475059" d="M142.682 164.408C142.321 164.408 141.971 164.211 141.794 163.868 141.539 163.377 141.731 162.774 142.221 162.52L173.524 146.303C175.657 145.307 177.877 144.622 180.16 144.25 184.226 143.586 188.327 144.501 191.415 146.757 192.791 147.761 193.958 148.975 194.886 150.365 195.191 150.821 195.071 151.437 194.618 151.746L184.628 158.568C184.173 158.881 183.55 158.763 183.238 158.307 182.927 157.851 183.044 157.229 183.5 156.917L192.64 150.675C191.954 149.811 191.148 149.038 190.236 148.372 187.577 146.43 184.021 145.649 180.482 146.224 178.38 146.566 176.336 147.197 174.407 148.097L143.141 164.295C142.994 164.372 142.837 164.408 142.682 164.408M47.997 209.947L56.994 209.957C56.995 209.957 56.997 209.957 56.998 209.957 59.297 209.957 61.168 208.093 61.17 205.8L61.17 205.799 61.226 174.821C61.228 172.527 59.358 170.659 57.058 170.656L47.997 170.647 47.997 209.947zM56.998 211.957C56.996 211.957 56.994 211.957 56.992 211.957L45.997 211.945 45.997 168.645 57.06 168.656C60.463 168.66 63.229 171.426 63.226 174.824L63.17 205.803C63.166 209.197 60.398 211.957 56.998 211.957z"/>
    <path fill="#DEDEDD" d="M110.532 166.75L133.975 166.75C137.562 165.75 140.245 162.75 141.178 158.75L136.386 158.75C134.29 160.75 131.695 160.75 128.847 160.75L116.532 160.75C113.218 160.75 110.532 163.437 110.532 166.75M192.385 158.681L159.256 178.959 82.673 193.75 65.192 193.75 65.179 200.75 82.673 200.75 159.256 185.971 199.997 161.031C197.578 159.459 194.984 158.68 192.385 158.681"/>
    <polyline fill="#DEDEDD" points="65.003 88.493 54.332 60.037 56.699 60.037 83.766 89.037 65.003 89.037 65.003 88.493"/>
    <polyline fill="#DEDEDD" points="157.003 114.037 157.003 118.038 150.395 118.038 146.722 117.272 152.5 114.037 157.003 114.037"/>
    <path fill="#DEDEDD" d="M91.003,99.112 L91.003,97.037 L207.002,97.037 L215.697,97.037 C216.078,97.376 216.449,97.725 216.809,98.086 C216.955,98.232 217.003,98.347 217.003,98.469 C217.003,98.92 216.753,99.327 216.352,99.532 C212.84,101.324 209.085,102.553 205.19,103.184 L202.936,103.549 C201.948,103.71 200.95,103.83 199.948,103.911 C199.948,103.911 192.796,104.037 195.002,104.037 L166.003,104.037 L166.003,101.037 L124.003,101.037 L124.003,102.129 L122.73,104.037 L105.502,104.037 C100.793,104.037 96.101,103.408 91.556,102.169 L86.529,100.798 L91.003,99.112"/>
    <path fill="#475059" d="M196.88,108.037 L159.002,108.037 L159.002,106.037 L196.88,106.037 C199.01,106.037 201.155,105.864 203.257,105.523 L205.51,105.159 C209.609,104.495 213.563,103.201 217.261,101.313 C218.336,100.765 219.003,99.676 219.003,98.47 C219.003,97.812 218.747,97.195 218.282,96.731 C215.109,93.557 211.254,91.174 207.075,89.782 C203.602,88.623 199.984,88.037 196.323,88.037 L85.568,88.037 L57.568,58.037 L51.446,58.037 L63.003,88.855 L63.003,91.817 L55.003,93.817 L55.003,94.273 L62.266,96.254 L61.739,98.184 L53.003,95.8 L53.003,92.256 L61.003,90.256 L61.003,89.218 L48.56,56.037 L58.437,56.037 L86.437,86.037 L196.323,86.037 C200.2,86.037 204.03,86.658 207.707,87.884 C212.179,89.374 216.304,91.924 219.637,95.257 C220.539,96.158 221.003,97.278 221.003,98.469 C221.003,100.431 219.917,102.203 218.171,103.094 C214.286,105.077 210.135,106.436 205.83,107.133 L203.576,107.498 C201.369,107.855 199.116,108.037 196.88,108.037"/>
    <path fill="#475059" d="M104.113,130.037 L115.742,130.037 L165.003,102.451 L165.003,102.037 L125.003,102.037 L125.003,103.339 L120.835,109.591 L104.113,130.037 Z M116.263,132.037 L99.892,132.037 L119.229,108.403 L123.003,102.734 L123.003,100.037 L167.003,100.037 L167.003,103.623 L116.263,132.037 Z"/>
    <polygon fill="#475059" points="207.002 95.038 217.002 95.038 217.002 93.038 207.002 93.038"/>
    <path fill="#475059" d="M199.002 94.035L195.002 94.037 195.002 100.037 199.002 100.037 199.002 94.035zM199.002 102.037L195.002 102.037C193.899 102.037 193.002 101.14 193.002 100.037L193.002 94.037C193.002 92.934 193.899 92.037 195.002 92.037L199.002 92.037C200.105 92.037 201.002 92.934 201.002 94.037L201.002 100.037C201.002 101.14 200.105 102.037 199.002 102.037zM158.003 122.038L149.882 122.017 138.054 119.553 138.463 117.595 150.189 120.038 158.003 120.038C158.554 120.038 159.003 119.589 159.003 119.038L159.003 113.037C159.003 112.485 158.554 112.037 158.003 112.037L152.003 112.037 152.003 110.037 158.003 110.037C159.657 110.037 161.003 111.382 161.003 113.037L161.003 119.038C161.003 120.692 159.657 122.038 158.003 122.038M120.475 86.037L151.454 86.037 115.742 66.038 104.113 66.038 120.475 86.037zM159.119 88.037L119.528 88.037 99.892 64.038 116.263 64.038 159.119 88.037zM52.56 108.037L59.783 108.037 76.719 100.196 76.758 100.207 87.003 96.345 87.003 96.037 64.002 96.037 64.002 97.475 52.56 108.037zM60.223 110.037L47.445 110.037 62.002 96.599 62.002 94.037 89.003 94.037 89.003 97.729 80.048 101.104 91.031 104.099C95.746 105.385 100.615 106.037 105.502 106.037L121.002 106.037 121.002 108.037 105.502 108.037C100.437 108.037 95.391 107.361 90.504 106.028L76.897 102.317 60.223 110.037z"/>
    <polygon fill="#475059" points="82.997 131.038 96.997 131.038 96.997 129.038 82.997 129.038"/>
    <polygon fill="#475059" points="78.997 131.038 80.997 131.038 80.997 129.038 78.997 129.038"/>
    <polygon fill="#475059" points="94.997 127.038 100.997 127.038 100.997 125.038 94.997 125.038"/>
    <polygon fill="#475059" points="90.997 127.038 92.997 127.038 92.997 125.038 90.997 125.038"/>
    <polygon fill="#475059" points="84.997 123.038 102.997 123.038 102.997 121.038 84.997 121.038"/>
    <polygon fill="#475059" points="80.997 123.038 82.997 123.038 82.997 121.038 80.997 121.038"/>
    <polygon fill="#475059" points="44.997 105.038 50.997 105.038 50.997 103.038 44.997 103.038"/>
    <polygon fill="#475059" points="40.997 105.038 42.997 105.038 42.997 103.038 40.997 103.038"/>
    <polygon fill="#475059" points="42.997 85.038 54.997 85.038 54.997 83.038 42.997 83.038"/>
    <polygon fill="#475059" points="38.997 85.038 40.997 85.038 40.997 83.038 38.997 83.038"/>
    <polygon fill="#475059" points="32.997 89.038 50.997 89.038 50.997 87.038 32.997 87.038"/>
    <polygon fill="#475059" points="28.997 89.038 30.997 89.038 30.997 87.038 28.997 87.038"/>
    <polygon fill="#475059" points="92.997 69.038 98.997 69.038 98.997 67.038 92.997 67.038"/>
    <polygon fill="#475059" points="88.997 69.038 90.997 69.038 90.997 67.038 88.997 67.038"/>
    <polygon fill="#475059" points="94.997 75.038 104.997 75.038 104.997 73.038 94.997 73.038"/>
    <polygon fill="#475059" points="90.997 75.038 92.997 75.038 92.997 73.038 90.997 73.038"/>
    <path fill="#DEDEDD" d="M172.997,74.037 C172.997,75.142 172.102,76.037 170.997,76.037 C169.893,76.037 168.997,75.142 168.997,74.037 C168.997,72.933 169.893,72.037 170.997,72.037 C172.102,72.037 172.997,72.933 172.997,74.037"/>
    <path fill="#F58E70" d="M162.997,132.037 C162.997,133.142 162.102,134.037 160.997,134.037 C159.893,134.037 158.997,133.142 158.997,132.037 C158.997,130.933 159.893,130.037 160.997,130.037 C162.102,130.037 162.997,130.933 162.997,132.037"/>
    <path fill="#DEDEDD" d="M108.997,56.037 C108.997,57.142 108.102,58.037 106.997,58.037 C105.893,58.037 104.997,57.142 104.997,56.037 C104.997,54.933 105.893,54.037 106.997,54.037 C108.102,54.037 108.997,54.933 108.997,56.037"/>
  </g>
</svg>
