<svg xmlns="http://www.w3.org/2000/svg" width="250" height="250" viewBox="0 0 250 250">
  <g fill="none" fill-rule="evenodd">
    <path fill="#F58E70" d="M148.452,87.883 L148.444,87.645 C148.305,83.544 147.039,79.594 144.781,76.208 C143.561,74.501 140.748,69.924 141.1,64.543 L141.33,61.868 C140.636,62.315 139.991,62.819 139.408,63.374 L136.607,66.042 L134.72,62.664 C131.616,57.105 129.976,50.796 129.976,44.418 C129.976,43.292 130.025,42.172 130.124,41.059 C124.729,47.761 121.589,56.056 121.272,64.847 L120.872,75.95 L115.629,66.154 C114.744,64.501 113.324,63.054 111.577,61.952 C111.708,62.776 111.803,63.639 111.862,64.543 C112.214,69.924 109.401,74.501 108.175,76.219 C105.923,79.594 104.657,83.545 104.518,87.632 L104.51,87.883 C104.505,88.055 104.503,88.226 104.503,88.393 C104.503,93.87 106.488,99.041 110.117,103.084 L113.62,106.966 C121.226,112.451 131.473,112.514 139.146,107.123 L139.37,106.966 L142.845,103.084 C146.474,99.041 148.459,93.87 148.459,88.393 C148.459,88.226 148.457,88.055 148.452,87.883"/>
    <path fill="#475059" d="M109.886,108.477 L108.138,106.807 C103.209,101.877 100.503,95.343 100.503,88.393 C100.503,88.191 100.506,87.983 100.511,87.776 L100.521,87.487 C100.684,82.665 102.182,77.994 104.852,73.99 L104.918,73.897 C105.895,72.528 108.139,68.903 107.87,64.804 C107.674,61.796 107.033,59.398 105.912,57.471 L104.831,55.615 L106.948,55.983 C111.144,56.712 114.956,58.862 117.472,61.814 C118.703,49.629 124.893,38.531 134.738,31.03 L137.569,28.874 L136.276,32.189 C134.75,36.104 133.975,40.219 133.975,44.418 C133.975,49.699 135.235,54.927 137.628,59.618 C139.96,57.726 142.874,56.402 145.965,55.846 L148.078,55.466 L147.009,57.328 C146.201,58.735 145.64,60.252 145.343,61.837 L145.09,64.825 C144.824,68.897 147.066,72.525 148.043,73.894 L148.101,73.978 C150.78,77.995 152.278,82.666 152.441,87.497 L152.451,87.781 C152.457,87.981 152.459,88.19 152.459,88.393 C152.459,95.344 149.754,101.878 144.841,106.791 L143.261,108.274 L141.892,106.816 L143.449,105.355 C147.962,100.842 150.459,94.81 150.459,88.393 C150.459,88.209 150.457,88.02 150.451,87.832 L150.446,87.654 C150.292,83.106 148.91,78.795 146.445,75.099 C145.313,73.511 142.786,69.408 143.095,64.674 L143.364,61.567 C143.577,60.418 143.893,59.334 144.312,58.303 C141.927,59.04 139.745,60.291 138.029,61.925 L137.095,62.815 L136.467,61.689 C133.528,56.426 131.975,50.454 131.975,44.418 C131.975,41.155 132.417,37.941 133.29,34.822 C124.753,42.483 119.689,53.22 119.273,64.775 L119.139,68.477 L117.392,65.211 C115.714,62.075 112.44,59.584 108.584,58.422 C109.287,60.212 109.71,62.277 109.866,64.674 C110.177,69.415 107.647,73.516 106.545,75.059 C104.052,78.794 102.671,83.105 102.52,87.564 L102.51,87.829 C102.506,88.019 102.503,88.208 102.503,88.393 C102.503,94.809 105.001,100.841 109.535,105.377 L111.267,107.03 L109.886,108.477"/>
    <path fill="#FFD15D" d="M86.368 58.482C86.368 59.103 85.864 59.607 85.243 59.607 84.621 59.607 84.118 59.103 84.118 58.482 84.118 57.861 84.621 57.357 85.243 57.357 85.864 57.357 86.368 57.861 86.368 58.482M174.618 85.988C174.618 86.747 174.002 87.363 173.243 87.363 172.483 87.363 171.868 86.747 171.868 85.988 171.868 85.229 172.483 84.613 173.243 84.613 174.002 84.613 174.618 85.229 174.618 85.988M152.118 48.732C152.118 47.835 152.845 47.107 153.743 47.107 154.64 47.107 155.368 47.835 155.368 48.732 155.368 49.63 154.64 50.357 153.743 50.357 152.845 50.357 152.118 49.63 152.118 48.732"/>
    <path fill="#F58E70" d="M172.124 59.125C172.124 60.23 171.228 61.125 170.124 61.125 169.019 61.125 168.124 60.23 168.124 59.125 168.124 58.021 169.019 57.125 170.124 57.125 171.228 57.125 172.124 58.021 172.124 59.125M96.112 50.119C96.112 49.567 96.559 49.119 97.112 49.119 97.664 49.119 98.112 49.567 98.112 50.119 98.112 50.671 97.664 51.119 97.112 51.119 96.559 51.119 96.112 50.671 96.112 50.119M93.121 74.107C93.121 72.45 94.464 71.107 96.121 71.107 97.778 71.107 99.121 72.45 99.121 74.107 99.121 75.764 97.778 77.107 96.121 77.107 94.464 77.107 93.121 75.764 93.121 74.107M160.118 74.107C160.118 73.555 160.565 73.107 161.118 73.107 161.67 73.107 162.118 73.555 162.118 74.107 162.118 74.659 161.67 75.107 161.118 75.107 160.565 75.107 160.118 74.659 160.118 74.107"/>
    <polygon fill="#475059" points="124.062 168.124 126.062 168.124 126.062 160.124 124.062 160.124"/>
    <polyline fill="#F58E70" points="100.635 161.125 83.037 161.125 93.118 137.783 89.883 137.783 103.766 106.378 117.649 137.783 114.414 137.783 124.496 161.125 100.635 161.125"/>
    <polyline fill="#5FE0ED" points="154.177 161.125 133.036 161.125 145.146 133.084 141.261 133.084 148.213 117.356 145.487 117.356 151.542 103.335 149.599 103.335 157.938 84.471 166.277 103.335 164.334 103.335 170.39 117.356 167.663 117.356 174.616 133.084 170.73 133.084 182.841 161.126 161.802 161.126 154.177 161.125"/>
    <polygon fill="#48515A" points="212.052 209.179 214.052 209.179 214.052 205.179 212.052 205.179"/>
    <polygon fill="#48515A" points="212.052 219.179 214.052 219.179 214.052 215.179 212.052 215.179"/>
    <polygon fill="#48515A" points="216.052 213.179 220.052 213.179 220.052 211.179 216.052 211.179"/>
    <polygon fill="#48515A" points="206.052 213.179 210.052 213.179 210.052 211.179 206.052 211.179"/>
    <path fill="#FFD15D" d="M185.031,119.108 C185.031,120.212 185.926,121.108 187.031,121.108 C188.135,121.108 189.031,120.212 189.031,119.108 C189.031,118.003 188.135,117.108 187.031,117.108 C185.926,117.108 185.031,118.003 185.031,119.108"/>
    <polygon fill="#475059" points="128.064 168.124 130.064 168.124 130.064 160.124 128.064 160.124"/>
    <path fill="#475059" d="M107.055 172.316L109.055 172.316 109.055 170.316 107.055 170.316 107.055 172.316zM111.055 172.316L113.055 172.316 113.055 170.316 111.055 170.316 111.055 172.316zM115.055 172.316L117.055 172.316 117.055 170.316 115.055 170.316 115.055 172.316zM119.055 172.316L121.055 172.316 121.055 170.316 119.055 170.316 119.055 172.316zM123.055 172.316L125.055 172.316 125.055 170.316 123.055 170.316 123.055 172.316zM127.055 172.316L129.055 172.316 129.055 170.316 127.055 170.316 127.055 172.316zM131.055 172.316L133.055 172.316 133.055 170.316 131.055 170.316 131.055 172.316zM135.055 172.316L137.055 172.316 137.055 170.316 135.055 170.316 135.055 172.316zM139.055 172.316L141.055 172.316 141.055 170.316 139.055 170.316 139.055 172.316zM109.053 175.317L111.053 175.317 111.053 173.317 109.053 173.317 109.053 175.317zM113.053 175.317L115.053 175.317 115.053 173.317 113.053 173.317 113.053 175.317zM117.053 175.317L119.053 175.317 119.053 173.317 117.053 173.317 117.053 175.317zM121.053 175.317L123.053 175.317 123.053 173.317 121.053 173.317 121.053 175.317zM125.053 175.317L127.053 175.317 127.053 173.317 125.053 173.317 125.053 175.317zM129.053 175.317L131.053 175.317 131.053 173.317 129.053 173.317 129.053 175.317zM133.053 175.317L135.053 175.317 135.053 173.317 133.053 173.317 133.053 175.317zM137.053 175.317L139.053 175.317 139.053 173.317 137.053 173.317 137.053 175.317zM141.053 175.317L143.029 175.317 143.029 173.317 141.053 173.317 141.053 175.317z"/>
    <polygon fill="#48515A" points="178.099 66.1 200.099 66.1 200.099 64.1 178.099 64.1"/>
    <path fill="#48515A" d="M194.994,100.1 L212.099,100.1 C214.514,100.1 216.534,98.379 216.999,96.1 L197.028,96.1 C196.804,97.656 196.067,99.049 194.994,100.1 Z M212.099,102.1 L190.099,102.1 C186.24,102.1 183.099,98.96 183.099,95.1 L183.099,71.1 L185.099,71.1 L185.099,95.1 C185.099,97.857 187.343,100.1 190.099,100.1 C192.856,100.1 195.099,97.857 195.099,95.1 L195.099,94.1 L219.099,94.1 L219.099,95.1 C219.099,98.96 215.959,102.1 212.099,102.1 Z"/>
    <path fill="#48515A" d="M207.099,95.1 L205.099,95.1 L205.099,71.1 C205.099,68.343 202.856,66.1 200.099,66.1 C197.343,66.1 195.099,68.343 195.099,71.1 L195.099,72.1 L171.099,72.1 L171.099,71.1 C171.099,67.24 174.24,64.1 178.099,64.1 L178.099,66.1 C175.684,66.1 173.665,67.82 173.2,70.1 L193.171,70.1 C193.657,66.712 196.579,64.1 200.099,64.1 C203.959,64.1 207.099,67.24 207.099,71.1 L207.099,95.1"/>
    <path fill="#475059" d="M62.977,101.091 L60.977,101.091 C60.977,98.885 59.182,97.091 56.977,97.091 C54.771,97.091 52.977,98.885 52.977,101.091 L50.977,101.091 C50.977,97.782 53.668,95.091 56.977,95.091 C60.285,95.091 62.977,97.782 62.977,101.091"/>
    <path fill="#475059" d="M72.977,101.091 L70.977,101.091 C70.977,98.885 69.182,97.091 66.977,97.091 C64.771,97.091 62.977,98.885 62.977,101.091 L60.977,101.091 C60.977,97.782 63.668,95.091 66.977,95.091 C70.285,95.091 72.977,97.782 72.977,101.091"/>
    <path fill="#475059" d="M82.977,101.091 L80.977,101.091 C80.977,98.885 79.182,97.091 76.977,97.091 C74.771,97.091 72.977,98.885 72.977,101.091 L70.977,101.091 C70.977,97.782 73.668,95.091 76.977,95.091 C80.285,95.091 82.977,97.782 82.977,101.091"/>
    <path fill="#475059" d="M50.977,100.091 C50.977,91.268 58.155,84.09 66.977,84.09 C75.799,84.09 82.977,91.268 82.977,100.09 L80.977,100.09 C80.977,92.37 74.697,86.09 66.977,86.09 C59.257,86.09 52.977,92.37 52.977,100.09 L50.977,100.091"/>
    <path fill="#475059" d="M63.477,114.092 C60.995,114.092 58.977,112.073 58.977,109.592 L60.977,109.592 C60.977,110.97 62.098,112.092 63.477,112.092 C64.855,112.092 65.977,110.97 65.977,109.592 L65.977,96.091 L67.977,96.091 L67.977,109.592 C67.977,112.073 65.958,114.092 63.477,114.092"/>
    <polygon fill="#475059" points="65.977 85.09 67.977 85.09 67.977 82.092 65.977 82.092"/>
    <path fill="#475059" d="M107.055 178.319L109.055 178.319 109.055 176.319 107.055 176.319 107.055 178.319zM111.055 178.319L113.055 178.319 113.055 176.319 111.055 176.319 111.055 178.319zM115.055 178.319L117.055 178.319 117.055 176.319 115.055 176.319 115.055 178.319zM119.055 178.319L121.055 178.319 121.055 176.319 119.055 176.319 119.055 178.319zM123.055 178.319L125.055 178.319 125.055 176.319 123.055 176.319 123.055 178.319zM127.055 178.319L129.055 178.319 129.055 176.319 127.055 176.319 127.055 178.319zM131.055 178.319L133.055 178.319 133.055 176.319 131.055 176.319 131.055 178.319zM135.055 178.319L137.055 178.319 137.055 176.319 135.055 176.319 135.055 178.319zM139.055 178.319L141.055 178.319 141.055 176.319 139.055 176.319 139.055 178.319zM109.053 181.321L111.053 181.321 111.053 179.321 109.053 179.321 109.053 181.321zM113.053 181.321L115.053 181.321 115.053 179.321 113.053 179.321 113.053 181.321zM117.053 181.321L119.053 181.321 119.053 179.321 117.053 179.321 117.053 181.321zM121.053 181.321L123.053 181.321 123.053 179.321 121.053 179.321 121.053 181.321zM125.053 181.321L127.053 181.321 127.053 179.321 125.053 179.321 125.053 181.321zM129.053 181.321L131.053 181.321 131.053 179.321 129.053 179.321 129.053 181.321zM133.053 181.321L135.053 181.321 135.053 179.321 133.053 179.321 133.053 181.321zM137.053 181.321L139.053 181.321 139.053 179.321 137.053 179.321 137.053 181.321zM141.053 181.321L143.029 181.321 143.029 179.321 141.053 179.321 141.053 181.321zM107.055 184.322L109.055 184.322 109.055 182.322 107.055 182.322 107.055 184.322zM111.055 184.322L113.055 184.322 113.055 182.322 111.055 182.322 111.055 184.322zM115.055 184.322L117.055 184.322 117.055 182.322 115.055 182.322 115.055 184.322zM119.055 184.322L121.055 184.322 121.055 182.322 119.055 182.322 119.055 184.322zM123.055 184.322L125.055 184.322 125.055 182.322 123.055 182.322 123.055 184.322zM127.055 184.322L129.055 184.322 129.055 182.322 127.055 182.322 127.055 184.322zM131.055 184.322L133.055 184.322 133.055 182.322 131.055 182.322 131.055 184.322zM135.055 184.322L137.055 184.322 137.055 182.322 135.055 182.322 135.055 184.322zM139.055 184.322L141.055 184.322 141.055 182.322 139.055 182.322 139.055 184.322z"/>
    <polyline fill="#FFD15D" points="85.678 161.126 64.537 161.126 76.647 133.084 72.762 133.084 89.439 95.356 106.117 133.084 102.231 133.084 114.342 161.126 85.678 161.126"/>
    <polygon fill="#48515A" points="35.948 109.12 37.948 109.12 37.948 105.12 35.948 105.12"/>
    <polygon fill="#48515A" points="35.948 119.12 37.948 119.12 37.948 115.12 35.948 115.12"/>
    <polygon fill="#48515A" points="39.947 113.12 43.947 113.12 43.947 111.12 39.947 111.12"/>
    <polygon fill="#48515A" points="29.948 113.12 33.948 113.12 33.948 111.12 29.948 111.12"/>
    <polyline fill="#48515A" points="108.647 211.126 106.647 211.126 106.647 200.126 69.649 200.126 69.649 211.126 67.649 211.126 67.649 198.126 108.647 198.126 108.647 211.126"/>
    <polygon fill="#5FE0ED" points="62.648 221.126 110.767 221.126 110.767 208.132 62.648 208.132"/>
    <path fill="#48515A" d="M76.647,216.126 L72.649,216.126 C72.096,216.126 71.649,215.678 71.649,215.126 C71.649,214.574 72.096,214.126 72.649,214.126 L76.647,214.126 C77.2,214.126 77.647,214.574 77.647,215.126 C77.647,215.678 77.2,216.126 76.647,216.126"/>
    <path fill="#48515A" d="M70.649,214.126 C70.097,214.126 69.649,214.575 69.649,215.126 C69.649,215.677 70.097,216.126 70.649,216.126 C71.2,216.126 71.649,215.677 71.649,215.126 C71.649,214.575 71.2,214.126 70.649,214.126 Z M70.649,218.126 C68.994,218.126 67.649,216.781 67.649,215.126 C67.649,213.472 68.994,212.126 70.649,212.126 C72.303,212.126 73.649,213.472 73.649,215.126 C73.649,216.781 72.303,218.126 70.649,218.126 Z"/>
    <path fill="#DEDEDD" d="M53.87,137.6 L53.87,153.392 L64.897,162.917 C67.266,165.286 70.491,166.598 73.84,166.556 L77.162,166.514 L64.876,155.969 L64.876,145.605 C64.876,142.621 63.805,139.986 61.874,138.359 L61.874,137.6 C61.874,132.654 58.949,128.645 54.003,128.645 L54.003,129.718 C52.882,129.034 51.539,128.645 50,128.645 L50,129.718 C52.481,131.232 53.87,134.193 53.87,137.6"/>
    <path fill="#475059" d="M77.162,167.514 C76.931,167.514 76.7,167.435 76.511,167.273 L63.876,156.428 L63.876,145.605 C63.876,142.903 62.912,140.541 61.23,139.123 L60.875,138.823 L60.875,137.6 C60.875,133.64 58.75,129.645 54.003,129.645 L51,129.645 L51,129.718 C51,130.27 50.553,130.718 50,130.718 C49.448,130.718 49,130.27 49,129.718 L49,127.645 L54.003,127.645 C59.226,127.645 62.875,131.739 62.875,137.6 L62.875,137.912 C64.788,139.726 65.876,142.5 65.876,145.605 L65.876,155.509 L77.814,165.755 C78.233,166.115 78.281,166.746 77.921,167.165 C77.723,167.396 77.444,167.514 77.162,167.514"/>
    <path fill="#475059" d="M101.952,199.527 C101.4,199.527 100.952,199.079 100.952,198.527 L100.952,176.671 C100.952,174.218 99.997,171.913 98.263,170.179 L74.75,146.665 C72.186,149.995 72.551,155.101 75.746,158.296 L85.374,167.41 L73.853,167.556 C70.284,167.596 66.734,166.168 64.19,163.624 L52.87,153.85 L52.87,137.6 C52.87,133.93 51.044,130.229 46.998,129.707 L46.998,159.103 L74.975,185.769 L74.975,198.444 C74.975,198.996 74.528,199.444 73.975,199.444 C73.423,199.444 72.975,198.996 72.975,198.444 L72.975,186.626 L44.998,159.96 L44.998,127.645 L45.998,127.645 C51.221,127.645 54.87,131.739 54.87,137.6 L54.87,152.935 L65.551,162.16 C67.769,164.375 70.76,165.6 73.828,165.556 L80.418,165.472 L74.351,159.729 C72.362,157.74 71.178,154.98 71.084,152.137 C70.986,149.188 72.021,146.475 73.997,144.498 L74.704,143.791 L99.677,168.765 C101.789,170.877 102.952,173.684 102.952,176.671 L102.952,198.527 C102.952,199.079 102.505,199.527 101.952,199.527"/>
    <polyline fill="#48515A" points="181.131 211.126 179.131 211.126 179.131 200.126 142.132 200.126 142.132 211.126 140.132 211.126 140.132 198.126 181.131 198.126 181.131 211.126"/>
    <polygon fill="#5FE0ED" points="138.011 221.126 186.13 221.126 186.13 208.132 138.011 208.132"/>
    <path fill="#48515A" d="M176.131,216.126 L172.132,216.126 C171.579,216.126 171.132,215.678 171.132,215.126 C171.132,214.574 171.579,214.126 172.132,214.126 L176.131,214.126 C176.683,214.126 177.131,214.574 177.131,215.126 C177.131,215.678 176.683,216.126 176.131,216.126"/>
    <path fill="#48515A" d="M178.131,214.126 C177.579,214.126 177.131,214.575 177.131,215.126 C177.131,215.677 177.579,216.126 178.131,216.126 C178.682,216.126 179.131,215.677 179.131,215.126 C179.131,214.575 178.682,214.126 178.131,214.126 Z M178.131,218.126 C176.476,218.126 175.131,216.781 175.131,215.126 C175.131,213.472 176.476,212.126 178.131,212.126 C179.785,212.126 181.131,213.472 181.131,215.126 C181.131,216.781 179.785,218.126 178.131,218.126 Z"/>
    <path fill="#DEDEDD" d="M194.909,137.6 L194.909,153.392 L183.882,162.917 C181.513,165.286 178.288,166.598 174.938,166.556 L171.616,166.514 L183.902,155.969 L183.902,145.605 C183.902,142.621 184.974,139.986 186.904,138.359 L186.904,137.6 C186.904,132.654 189.83,128.645 194.776,128.645 L194.776,129.718 C195.897,129.034 197.239,128.645 198.778,128.645 L198.778,129.718 C196.298,131.232 194.909,134.193 194.909,137.6"/>
    <path fill="#475059" d="M171.616,167.514 C171.335,167.514 171.055,167.396 170.857,167.165 C170.498,166.746 170.546,166.115 170.965,165.755 L182.902,155.509 L182.902,145.605 C182.902,142.5 183.991,139.726 185.904,137.912 L185.904,137.6 C185.904,131.739 189.552,127.645 194.776,127.645 L199.778,127.645 L199.778,129.718 C199.778,130.27 199.331,130.718 198.778,130.718 C198.225,130.718 197.778,130.27 197.778,129.718 L197.778,129.645 L194.776,129.645 C190.029,129.645 187.904,133.64 187.904,137.6 L187.904,138.823 L187.549,139.123 C185.867,140.541 184.902,142.904 184.902,145.605 L184.902,156.428 L172.267,167.273 C172.079,167.435 171.847,167.514 171.616,167.514"/>
    <path fill="#475059" d="M146.826 199.527C146.273 199.527 145.826 199.079 145.826 198.527L145.826 176.671C145.826 173.685 146.989 170.877 149.101 168.765L174.076 143.792 174.782 144.498C178.813 148.531 178.66 155.497 174.447 159.71L168.36 165.472 174.951 165.556C178.019 165.594 181.01 164.375 183.175 162.21L193.909 152.935 193.909 137.6C193.909 131.739 197.557 127.645 202.781 127.645L203.781 127.645 203.781 159.96 175.803 186.626 175.803 198.444C175.803 198.996 175.356 199.444 174.803 199.444 174.251 199.444 173.803 198.996 173.803 198.444L173.803 185.769 201.781 159.103 201.781 129.707C197.734 130.229 195.909 133.93 195.909 137.6L195.909 153.85 184.535 163.674C182.083 166.13 178.63 167.557 175.091 167.557 175.036 167.557 174.981 167.556 174.926 167.556L163.405 167.41 173.052 158.277C176.229 155.099 176.594 149.995 174.029 146.665L150.515 170.179C148.781 171.913 147.826 174.219 147.826 176.671L147.826 198.527C147.826 199.079 147.379 199.527 146.826 199.527M100.599 159.122L152.344 159.122 142.516 136.891 149.852 136.891 137.742 108.849 141.614 108.849 126.471 74.595 111.329 108.849 115.2 108.849 103.09 136.891 110.427 136.891 100.599 159.122zM155.414 161.122L97.529 161.122 107.356 138.891 100.048 138.891 112.158 110.849 108.259 110.849 126.471 69.649 144.684 110.849 140.785 110.849 152.895 138.891 145.587 138.891 155.414 161.122z"/>
  </g>
</svg>
