<svg xmlns="http://www.w3.org/2000/svg" width="250" height="250" viewBox="0 0 250 250">
  <g fill="none" fill-rule="evenodd">
    <path fill="#48515A" d="M195.959,57.662 L193.959,57.662 L193.959,53.667 C193.959,50.359 191.268,47.668 187.959,47.668 L187.959,45.668 C192.371,45.668 195.959,49.256 195.959,53.667 L195.959,57.662"/>
    <polygon fill="#48515A" points="103.344 65.662 201.959 65.662 201.959 63.662 103.344 63.662"/>
    <polyline fill="#48515A" points="187.959 47.668 89.344 47.667 89.344 45.667 187.959 45.668 187.959 47.668"/>
    <path fill="#FFD15D" d="M191.959,53.668 L191.959,54.662 L101.341,54.662 L101.341,57.662 C101.341,59.867 105.55,61.662 103.345,61.662 C101.139,61.662 99.345,59.867 99.345,57.662 L99.345,53.667 C99.345,52.246 99.046,50.893 98.509,49.667 L187.959,49.668 C190.165,49.668 191.959,51.462 191.959,53.668"/>
    <polygon fill="#48515A" points="135.308 151.625 164.39 151.625 164.39 149.625 135.308 149.625"/>
    <polygon fill="#48515A" points="135.391 155.541 156.39 155.541 156.39 153.541 135.391 153.541"/>
    <path fill="#48515A" d="M141.39 170.541C138.082 170.541 135.39 167.849 135.39 164.541 135.389 162.967 136.021 161.468 137.169 160.32 138.317 159.173 139.816 158.541 141.39 158.541 144.699 158.541 147.39 161.233 147.39 164.541L147.39 166.541C147.39 167.093 147.838 167.541 148.389 167.541 148.941 167.541 149.39 167.093 149.39 166.541 149.39 164.887 150.736 163.541 152.389 163.541 154.043 163.541 155.39 164.887 155.39 166.541 155.39 167.093 155.838 167.541 156.389 167.541 156.942 167.541 157.389 167.989 157.389 168.541 157.389 169.094 156.942 169.541 156.389 169.541 154.736 169.541 153.39 168.196 153.39 166.541 153.39 165.99 152.942 165.541 152.39 165.541 151.838 165.541 151.39 165.99 151.39 166.541 151.39 168.196 150.044 169.541 148.39 169.541 146.736 169.541 145.39 168.196 145.39 166.541L145.39 164.541C145.39 162.336 143.595 160.541 141.39 160.541 140.35 160.541 139.353 160.965 138.583 161.735 137.813 162.504 137.39 163.501 137.39 164.541 137.39 166.747 139.184 168.541 141.39 168.541 141.943 168.541 142.39 168.989 142.39 169.541 142.39 170.093 141.943 170.541 141.39 170.541M160.39 169.544C160.321 169.544 160.26 169.533 160.191 169.524 160.13 169.513 160.071 169.494 160.01 169.464 159.951 169.444 159.89 169.414 159.831 169.374 159.781 169.334 159.731 169.294 159.68 169.244 159.59 169.154 159.521 169.044 159.47 168.924 159.411 168.803 159.39 168.674 159.39 168.544 159.39 168.474 159.39 168.414 159.411 168.344 159.42 168.283 159.441 168.224 159.47 168.154 159.491 168.094 159.521 168.044 159.561 167.984 159.59 167.934 159.64 167.884 159.68 167.834 159.731 167.783 159.781 167.744 159.831 167.714 159.89 167.674 159.951 167.644 160.01 167.614 160.071 167.594 160.13 167.573 160.191 167.564 160.321 167.533 160.46 167.533 160.581 167.564 160.651 167.573 160.71 167.594 160.771 167.614 160.831 167.644 160.89 167.674 160.941 167.714 161 167.744 161.05 167.783 161.101 167.834 161.14 167.884 161.18 167.934 161.22 167.984 161.26 168.044 161.291 168.094 161.311 168.154 161.34 168.224 161.361 168.283 161.371 168.344 161.38 168.414 161.39 168.474 161.39 168.544 161.39 168.674 161.361 168.803 161.311 168.924 161.26 169.044 161.191 169.154 161.101 169.244 160.911 169.434 160.651 169.544 160.39 169.544M131.39 173.624C131.121 173.624 130.871 173.513 130.68 173.334 130.491 173.144 130.39 172.884 130.39 172.624 130.39 172.494 130.411 172.364 130.46 172.244 130.51 172.124 130.59 172.013 130.68 171.914 131.05 171.544 131.72 171.544 132.101 171.914 132.191 172.013 132.26 172.124 132.311 172.244 132.361 172.364 132.39 172.494 132.39 172.624 132.39 172.884 132.281 173.144 132.101 173.334 131.911 173.513 131.651 173.624 131.39 173.624M134.39 172.624C134.39 172.073 134.84 171.624 135.39 171.624 135.941 171.624 136.39 172.073 136.39 172.624 136.39 173.174 135.941 173.624 135.39 173.624 134.84 173.624 134.39 173.174 134.39 172.624zM138.39 172.624C138.39 172.073 138.84 171.624 139.39 171.624 139.941 171.624 140.39 172.073 140.39 172.624 140.39 173.174 139.941 173.624 139.39 173.624 138.84 173.624 138.39 173.174 138.39 172.624zM142.39 172.624C142.39 172.073 142.84 171.624 143.39 171.624 143.941 171.624 144.39 172.073 144.39 172.624 144.39 173.174 143.941 173.624 143.39 173.624 142.84 173.624 142.39 173.174 142.39 172.624zM146.39 172.624C146.39 172.073 146.84 171.624 147.39 171.624 147.941 171.624 148.39 172.073 148.39 172.624 148.39 173.174 147.941 173.624 147.39 173.624 146.84 173.624 146.39 173.174 146.39 172.624zM150.39 172.624C150.39 172.073 150.84 171.624 151.39 171.624 151.941 171.624 152.39 172.073 152.39 172.624 152.39 173.174 151.941 173.624 151.39 173.624 150.84 173.624 150.39 173.174 150.39 172.624zM154.39 172.624C154.39 172.073 154.84 171.624 155.39 171.624 155.941 171.624 156.39 172.073 156.39 172.624 156.39 173.174 155.941 173.624 155.39 173.624 154.84 173.624 154.39 173.174 154.39 172.624zM158.39 172.624C158.39 172.073 158.84 171.624 159.39 171.624 159.941 171.624 160.39 172.073 160.39 172.624 160.39 173.174 159.941 173.624 159.39 173.624 158.84 173.624 158.39 173.174 158.39 172.624zM162.39 172.624C162.39 172.073 162.84 171.624 163.39 171.624 163.941 171.624 164.39 172.073 164.39 172.624 164.39 173.174 163.941 173.624 163.39 173.624 162.84 173.624 162.39 173.174 162.39 172.624zM167.39 173.624C167.121 173.624 166.871 173.513 166.68 173.334 166.491 173.144 166.39 172.894 166.39 172.624 166.39 172.494 166.411 172.364 166.46 172.244 166.51 172.124 166.59 172.013 166.68 171.914 166.911 171.684 167.26 171.584 167.581 171.644 167.651 171.654 167.71 171.674 167.771 171.704 167.831 171.724 167.89 171.754 167.941 171.794 168 171.834 168.05 171.874 168.09 171.914 168.191 172.013 168.26 172.124 168.311 172.244 168.361 172.364 168.39 172.494 168.39 172.624 168.39 172.894 168.281 173.144 168.09 173.334 167.911 173.513 167.651 173.624 167.39 173.624"/>
    <polygon fill="#F58E70" points="135.393 147.625 144.392 147.625 144.392 145.625 135.393 145.625"/>
    <polygon fill="#48515A" points="99.396 87.657 111.393 87.657 111.393 85.657 99.396 85.657"/>
    <polygon fill="#48515A" points="99.396 91.657 111.393 91.657 111.393 89.657 99.396 89.657"/>
    <polygon fill="#48515A" points="105.396 102.664 165.393 102.664 165.393 100.664 105.396 100.664"/>
    <polygon fill="#48515A" points="99.396 106.664 165.393 106.664 165.393 104.664 99.396 104.664"/>
    <polygon fill="#48515A" points="99.396 110.664 165.393 110.664 165.393 108.664 99.396 108.664"/>
    <polygon fill="#48515A" points="99.396 114.664 153.393 114.664 153.393 112.664 99.396 112.664"/>
    <path fill="#48515A" d="M75.281 184.656L75.281 182.656C78.653 182.656 81.396 179.965 81.396 176.656L81.371 103.657 83.371 103.656 83.396 176.656C83.396 181.068 79.755 184.656 75.281 184.656M183.398 123.166L181.398 123.164 181.46 63.662 201.959 63.662C204.927 63.662 207.399 61.496 207.876 58.662L105.409 58.662C105.516 59.494 105.733 60.292 105.931 61.02 106.329 62.481 106.671 63.743 105.93 64.714 105.28 65.564 104.143 65.662 103.344 65.662 98.933 65.662 95.344 62.073 95.344 57.662L95.344 53.667C95.344 50.359 92.653 47.667 89.344 47.667 86.036 47.667 83.344 50.359 83.344 53.667L83.361 82.615 81.361 82.617 81.344 53.667C81.344 49.256 84.933 45.667 89.344 45.667 93.755 45.667 97.344 49.256 97.344 53.667L97.344 57.662C97.344 60.971 100.036 63.662 103.344 63.662 104.159 63.662 104.34 63.499 104.342 63.497 104.469 63.267 104.187 62.231 104 61.545 103.708 60.465 103.341 59.121 103.341 57.662L103.341 56.662 209.959 56.662 209.959 57.662C209.959 62.073 206.371 65.662 201.959 65.662L183.458 65.662 183.398 123.166"/>
    <path fill="#48515A" d="M175.341,184.656 L75.594,184.656 L75.594,182.656 L175.341,182.656 C178.65,182.656 181.341,179.965 181.341,176.656 L181.361,155.616 L183.361,155.618 L183.341,176.656 C183.341,181.068 179.752,184.656 175.341,184.656"/>
    <path fill="#48515A" d="M76.329,184.672 C71.917,184.672 68.329,181.083 68.329,176.672 L68.329,173.077 C68.329,169.546 65.456,166.673 61.924,166.673 L61.924,164.673 C66.558,164.673 70.329,168.443 70.329,173.077 L70.329,176.672 C70.329,179.981 73.02,182.672 76.329,182.672 L76.329,184.672"/>
    <path fill="#48515A" d="M69.011,173.677 L54.329,173.677 L54.329,172.677 C54.329,168.266 57.917,164.677 62.329,164.677 L81.829,164.677 C82.381,164.677 82.829,165.125 82.829,165.677 C82.829,166.23 82.381,166.677 81.829,166.677 L62.329,166.677 C59.361,166.677 56.889,168.844 56.412,171.677 L69.011,171.677 C69.564,171.677 70.011,172.125 70.011,172.677 C70.011,173.23 69.564,173.677 69.011,173.677"/>
    <polygon fill="#48515A" points="207.431 162.67 209.431 162.67 209.431 158.67 207.431 158.67"/>
    <polygon fill="#48515A" points="207.431 172.67 209.431 172.67 209.431 168.67 207.431 168.67"/>
    <polygon fill="#48515A" points="211.431 166.67 215.431 166.67 215.431 164.67 211.431 164.67"/>
    <polygon fill="#48515A" points="201.431 166.67 205.431 166.67 205.431 164.67 201.431 164.67"/>
    <polygon fill="#48515A" points="46.335 132.652 48.335 132.652 48.335 128.652 46.335 128.652"/>
    <polygon fill="#48515A" points="46.335 142.652 48.335 142.652 48.335 138.652 46.335 138.652"/>
    <polygon fill="#48515A" points="50.334 136.652 54.334 136.652 54.334 134.652 50.334 134.652"/>
    <polygon fill="#48515A" points="40.335 136.652 44.335 136.652 44.335 134.652 40.335 134.652"/>
    <polygon fill="#48515A" points="196.424 82.622 198.424 82.622 198.424 78.622 196.424 78.622"/>
    <polygon fill="#48515A" points="196.424 92.622 198.424 92.622 198.424 88.622 196.424 88.622"/>
    <polygon fill="#48515A" points="200.424 86.622 204.424 86.622 204.424 84.622 200.424 84.622"/>
    <polygon fill="#48515A" points="190.424 86.622 194.424 86.622 194.424 84.622 190.424 84.622"/>
    <path fill="#DEDEDD" d="M196.841,111.164 C196.841,112.821 195.498,114.164 193.841,114.164 C192.184,114.164 190.841,112.821 190.841,111.164 C190.841,109.507 192.184,108.164 193.841,108.164 C195.498,108.164 196.841,109.507 196.841,111.164"/>
    <path fill="#F58E70" d="M202.341,190.664 C202.341,192.873 200.55,194.664 198.341,194.664 C196.132,194.664 194.341,192.873 194.341,190.664 C194.341,188.455 196.132,186.664 198.341,186.664 C200.55,186.664 202.341,188.455 202.341,190.664"/>
    <path fill="#475059" d="M165.513,196.337 C164.745,196.337 163.976,196.63 163.391,197.214 C162.222,198.384 162.222,200.287 163.391,201.457 C164.562,202.626 166.465,202.626 167.634,201.457 C168.803,200.287 168.803,198.384 167.634,197.214 C167.049,196.63 166.281,196.337 165.513,196.337 Z M165.513,204.333 C164.232,204.333 162.952,203.845 161.977,202.871 C160.028,200.922 160.028,197.749 161.977,195.8 C163.925,193.851 167.098,193.85 169.048,195.8 C170.998,197.749 170.998,200.922 169.048,202.871 C168.074,203.845 166.793,204.333 165.513,204.333 Z"/>
    <path fill="#F58E70" d="M66.845,121.164 C66.845,122.268 65.949,123.164 64.845,123.164 C63.74,123.164 62.845,122.268 62.845,121.164 C62.845,120.059 63.74,119.164 64.845,119.164 C65.949,119.164 66.845,120.059 66.845,121.164"/>
    <path fill="#FFD15D" d="M71.345,168.677 C71.972,170.014 72.322,171.506 72.322,173.077 L72.322,176.672 C72.322,178.68 73.809,180.347 75.74,180.63 C77.761,180.397 79.389,178.672 79.389,176.656 L79.389,168.677 L71.345,168.677"/>
    <polygon fill="#48515A" points="105.396 120.664 165.393 120.664 165.393 118.664 105.396 118.664"/>
    <polygon fill="#48515A" points="99.396 124.664 165.393 124.664 165.393 122.664 99.396 122.664"/>
    <polygon fill="#48515A" points="99.396 128.664 165.393 128.664 165.393 126.664 99.396 126.664"/>
    <polygon fill="#48515A" points="99.396 132.664 153.393 132.664 153.393 130.664 99.396 130.664"/>
    <path fill="#48515A" d="M114.173,153.747 L120.247,154.591 L127.591,151.618 L120.247,148.646 L114.173,149.49 L114.173,153.747 Z M120.5,156.645 L112.173,155.488 L112.173,147.748 L120.5,146.591 L129.775,150.344 L129.775,152.891 L120.5,156.645 Z"/>
    <polygon fill="#48515A" points="119.174 152.618 128.774 152.618 128.774 150.618 119.174 150.618"/>
    <path fill="#48515A" d="M83.757,153.617 L112.173,153.617 L112.173,149.619 L83.757,149.619 L83.757,153.617 Z M81.757,155.617 L114.173,155.617 L114.173,147.619 L81.757,147.619 L81.757,155.617 Z"/>
    <path fill="#48515A" d="M38.569 155.619C36.363 155.619 34.569 153.824 34.569 151.619 34.569 149.413 36.363 147.619 38.569 147.619L82.762 147.619 82.762 149.619 38.569 149.619C37.466 149.619 36.569 150.516 36.569 151.619 36.569 152.722 37.466 153.619 38.569 153.619L82.837 153.617 82.837 155.617 38.569 155.619M179.321 131.06L179.321 135.389C179.321 143.087 183.249 150.116 189.859 154.311 196.47 150.116 200.398 143.086 200.398 135.388L200.398 131.06 189.859 126.844 179.321 131.06zM189.859 156.652L189.344 156.344C181.816 151.827 177.321 143.993 177.321 135.389L177.321 129.706 189.859 124.69 202.398 129.706 202.398 135.388C202.398 143.993 197.903 151.826 190.374 156.344L189.859 156.652z"/>
    <polygon fill="#48515A" points="188.859 154.83 190.859 154.83 190.859 125.767 188.859 125.767"/>
    <polygon fill="#48515A" points="178.321 140.767 201.322 140.767 201.322 138.767 178.321 138.767"/>
    <path fill="#475059" d="M67.325,100.663 L65.325,100.663 C65.325,98.457 63.531,96.663 61.325,96.663 C59.119,96.663 57.325,98.457 57.325,100.663 L55.325,100.663 C55.325,97.354 58.016,94.663 61.325,94.663 C64.633,94.663 67.325,97.354 67.325,100.663"/>
    <path fill="#475059" d="M77.325,100.663 L75.325,100.663 C75.325,98.457 73.531,96.663 71.325,96.663 C69.119,96.663 67.325,98.457 67.325,100.663 L65.325,100.663 C65.325,97.354 68.016,94.663 71.325,94.663 C74.633,94.663 77.325,97.354 77.325,100.663"/>
    <path fill="#475059" d="M87.325,100.663 L85.325,100.663 C85.325,98.457 83.531,96.663 81.325,96.663 C79.119,96.663 77.325,98.457 77.325,100.663 L75.325,100.663 C75.325,97.354 78.016,94.663 81.325,94.663 C84.633,94.663 87.325,97.354 87.325,100.663"/>
    <path fill="#475059" d="M55.325,99.663 C55.325,90.84 62.502,83.662 71.325,83.662 C80.147,83.662 87.325,90.84 87.325,99.662 L85.325,99.662 C85.325,91.942 79.044,85.662 71.325,85.662 C63.605,85.662 57.325,91.942 57.325,99.662 L55.325,99.663"/>
    <path fill="#475059" d="M67.825,113.663 C65.343,113.663 63.325,111.645 63.325,109.163 L65.325,109.163 C65.325,110.542 66.446,111.663 67.825,111.663 C69.204,111.663 70.325,110.542 70.325,109.163 L70.325,95.663 L72.325,95.663 L72.325,109.163 C72.325,111.645 70.306,113.663 67.825,113.663"/>
    <polygon fill="#475059" points="70.325 84.662 72.325 84.662 72.325 81.664 70.325 81.664"/>
  </g>
</svg>
