<svg xmlns="http://www.w3.org/2000/svg" width="250" height="250" viewBox="0 0 250 250">
  <g fill="none" fill-rule="evenodd">
    <path fill="#FFD15D" d="M93.99,132.524 C93.99,135.559 91.53,138.019 88.495,138.019 C85.46,138.019 83,135.559 83,132.524 C83,129.489 85.46,127.029 88.495,127.029 C91.53,127.029 93.99,129.489 93.99,132.524"/>
    <path fill="#475059" d="M88.603,120.386 C94.404,120.386 100.204,122.057 105.27,125.4 L105.35,125.452 L109.493,123.092 C118.891,117.738 130.519,117.823 139.838,123.315 L143.463,125.451 L143.976,125.12 C154.119,118.592 167.149,118.704 177.177,125.407 L177.206,125.426 L177.269,125.384 C187.059,118.966 199.547,118.771 209.488,124.774 C208.951,105.932 200.219,88.632 184.763,75.884 C168.983,62.869 147.677,55.702 124.768,55.702 C77.981,55.702 41.174,85.902 40.049,124.79 C49.934,118.927 62.2,119.146 71.897,125.425 C76.97,122.067 82.787,120.386 88.603,120.386 Z M211.514,128.502 L209.631,127.236 C200.168,120.875 187.898,120.806 178.367,127.057 L177.196,127.824 L176.066,127.07 C166.7,120.809 154.53,120.703 145.058,126.802 L143.51,127.8 L138.822,125.037 C130.119,119.91 119.26,119.831 110.484,124.83 L105.274,127.798 L104.169,127.07 C94.685,120.81 82.439,120.828 72.972,127.112 L71.891,127.83 L71.336,127.452 C61.779,120.966 49.396,120.913 39.784,127.319 L38.022,128.492 L38.022,126.625 C38.022,85.734 76.126,53.702 124.768,53.702 C148.139,53.702 169.898,61.032 186.036,74.342 C202.467,87.892 211.514,106.46 211.514,126.625 L211.514,128.502 Z"/>
    <path fill="#475059" d="M178.202,126.625 L176.202,126.625 C176.202,106.978 170.796,88.896 160.978,75.71 C151.372,62.808 138.434,55.702 124.549,55.702 C110.664,55.702 97.727,62.808 88.12,75.71 C78.303,88.896 72.897,106.978 72.897,126.625 L70.897,126.625 C70.897,106.55 76.444,88.044 86.516,74.516 C96.509,61.094 110.016,53.702 124.549,53.702 C139.082,53.702 152.589,61.094 162.583,74.516 C172.655,88.044 178.202,106.55 178.202,126.625"/>
    <path fill="#475059" d="M144.486,126.625 L142.486,126.625 C142.486,106.85 140.512,88.648 136.93,75.374 C133.555,62.872 128.988,55.702 124.399,55.702 C119.81,55.702 115.243,62.872 111.868,75.374 C108.286,88.648 106.313,106.849 106.313,126.625 L104.313,126.625 C104.313,85.052 112.948,53.702 124.399,53.702 C135.85,53.702 144.486,85.052 144.486,126.625"/>
    <polygon fill="#475059" points="124.166 53.985 126.166 53.985 126.166 44.019 124.166 44.019"/>
    <polygon fill="#475059" points="124.166 182.019 126.166 182.019 126.166 119.985 124.166 119.985"/>
    <path fill="#F58E70" d="M183.491,77.796 C174.775,70.608 164.272,65.214 152.65,61.9 C156.874,65.128 160.764,69.095 164.186,73.691 C173.616,86.357 179.204,103.377 180.068,121.914 C188.696,117.813 198.638,117.746 207.292,121.721 C205.854,104.833 197.491,89.342 183.491,77.796"/>
    <path fill="#FFF" d="M134.59,59.406 C141.474,70.537 145.947,93.731 146.435,121.843 C155.186,117.634 165.275,117.598 174.052,121.741 C173.178,104.57 168.019,88.887 159.374,77.274 C152.504,68.048 144.015,61.948 134.59,59.406"/>
    <path fill="#F58E70" d="M96.097 62.175C65.789 71.223 44.631 94.269 42.247 121.767 46.438 119.881 50.937 118.938 55.435 118.938 60.076 118.938 64.718 119.941 69.029 121.949 69.887 103.4 75.476 86.365 84.912 73.691 88.235 69.228 92.007 65.354 96.097 62.175M124.433 58.077L124.302 58.081C121.729 58.137 117.397 62.934 113.799 76.264 110.59 88.158 108.679 104.22 108.364 121.801L108.504 121.722C118.382 116.095 130.57 116.106 140.432 121.717 140.113 104.169 138.204 88.137 134.999 76.264 131.393 62.901 127.053 58.115 124.433 58.077"/>
    <path fill="#FFF" d="M89.724,77.274 C81.073,88.894 75.914,104.588 75.044,121.771 C79.298,119.791 83.924,118.755 88.603,118.755 C93.357,118.755 98.054,119.824 102.363,121.866 C102.848,93.849 107.298,70.688 114.145,59.514 C104.86,62.115 96.498,68.176 89.724,77.274"/>
    <polygon fill="#5FE0ED" points="54.899 205.797 118.9 205.797 118.9 176.796 54.899 176.796"/>
    <polygon fill="#5FE0ED" points="54.899 178.297 118.9 178.297 118.9 146.295 54.899 146.295"/>
    <path fill="#48515A" d="M58.91,174.296 L114.91,174.296 L114.91,150.296 L58.91,150.296 L58.91,174.296 Z M56.91,176.296 L116.91,176.296 L116.91,148.296 L56.91,148.296 L56.91,176.296 Z"/>
    <path fill="#48515A" d="M89.822,169.378 L84.299,169.378 C82.547,169.378 81.122,167.946 81.122,166.185 L83.122,166.185 C83.122,166.843 83.65,167.378 84.299,167.378 L89.822,167.378 C90.645,167.378 91.315,166.702 91.315,165.87 L91.315,164.927 C91.315,164.103 90.645,163.434 89.822,163.434 L84.376,163.434 C82.45,163.434 80.883,161.867 80.883,159.942 L80.883,158.996 C80.883,157.071 82.45,155.504 84.376,155.504 L90.23,155.504 C91.75,155.504 92.986,156.74 92.986,158.26 L90.986,158.26 C90.986,157.843 90.647,157.504 90.23,157.504 L84.376,157.504 C83.553,157.504 82.883,158.174 82.883,158.996 L82.883,159.942 C82.883,160.764 83.553,161.434 84.376,161.434 L89.822,161.434 C91.748,161.434 93.315,163.001 93.315,164.927 L93.315,165.87 C93.315,167.804 91.748,169.378 89.822,169.378"/>
    <polygon fill="#48515A" points="86.4 171.296 88.4 171.296 88.4 153.296 86.4 153.296"/>
    <polygon fill="#48515A" points="96.91 161.296 103.91 161.296 103.91 159.296 96.91 159.296"/>
    <polygon fill="#48515A" points="96.91 165.296 103.91 165.296 103.91 163.296 96.91 163.296"/>
    <polygon fill="#48515A" points="71.91 161.296 78.91 161.296 78.91 159.296 71.91 159.296"/>
    <polygon fill="#48515A" points="71.91 165.296 78.91 165.296 78.91 163.296 71.91 163.296"/>
    <path fill="#48515A" d="M57.88 158.795L57.88 156.795C62.015 156.795 65.38 153.431 65.38 149.295L67.38 149.295C67.38 154.533 63.118 158.795 57.88 158.795M67.38 175.306L65.38 175.306C65.38 171.17 62.015 167.806 57.88 167.806L57.88 165.806C63.118 165.806 67.38 170.068 67.38 175.306M116.41 158.795C111.172 158.795 106.91 154.533 106.91 149.295L108.91 149.295C108.91 153.431 112.274 156.795 116.41 156.795L116.41 158.795M108.91 175.306L106.91 175.306C106.91 170.068 111.172 165.806 116.41 165.806L116.41 167.806C112.274 167.806 108.91 171.17 108.91 175.306"/>
    <polygon fill="#48515A" points="54.899 180.016 118.9 180.016 118.9 178.016 54.899 178.016"/>
    <polygon fill="#48515A" points="54.899 184.018 118.9 184.018 118.9 182.018 54.899 182.018"/>
    <polygon fill="#48515A" points="54.899 188.02 118.9 188.02 118.9 186.02 54.899 186.02"/>
    <polygon fill="#48515A" points="54.899 192.023 118.9 192.023 118.9 190.023 54.899 190.023"/>
    <polygon fill="#48515A" points="54.899 196.025 118.9 196.025 118.9 194.025 54.899 194.025"/>
    <polygon fill="#48515A" points="54.899 200.028 118.9 200.028 118.9 198.028 54.899 198.028"/>
    <polygon fill="#48515A" points="54.899 204.03 118.9 204.03 118.9 202.03 54.899 202.03"/>
    <path fill="#475059" d="M133.497,203.934 C138.837,204.444 143.709,200.865 144.803,195.622 C144.881,195.255 144.715,194.981 144.608,194.851 C144.411,194.608 144.12,194.469 143.809,194.469 C143.342,194.469 142.935,194.788 142.843,195.227 C141.934,199.537 137.784,202.474 133.397,201.91 C129.179,201.369 126,197.628 126,193.208 L126,183.019 L124,183.019 L124,193.132 C124,198.688 128.172,203.432 133.497,203.934 Z M134.502,205.981 C134.107,205.981 133.71,205.963 133.309,205.925 C126.968,205.328 122,199.709 122,193.132 L122,181.019 L128,181.019 L128,193.208 C128,196.625 130.429,199.513 133.651,199.927 C137.066,200.363 140.178,198.166 140.885,194.814 C141.173,193.455 142.402,192.469 143.809,192.469 C144.725,192.469 145.582,192.878 146.161,193.59 C146.722,194.281 146.941,195.171 146.76,196.032 C145.539,201.878 140.384,205.981 134.502,205.981 Z"/>
    <polygon fill="#48515A" points="213 164.019 215 164.019 215 160.019 213 160.019"/>
    <polygon fill="#48515A" points="213 174.019 215 174.019 215 170.019 213 170.019"/>
    <polygon fill="#48515A" points="217 168.019 221 168.019 221 166.019 217 166.019"/>
    <polygon fill="#48515A" points="207 168.019 211 168.019 211 166.019 207 166.019"/>
    <polygon fill="#48515A" points="35 140.019 37 140.019 37 136.019 35 136.019"/>
    <polygon fill="#48515A" points="35 150.019 37 150.019 37 146.019 35 146.019"/>
    <polygon fill="#48515A" points="39 144.019 43 144.019 43 142.019 39 142.019"/>
    <polygon fill="#48515A" points="29 144.019 33 144.019 33 142.019 29 142.019"/>
    <polygon fill="#48515A" points="189 60.019 191 60.019 191 56.019 189 56.019"/>
    <polygon fill="#48515A" points="189 70.019 191 70.019 191 66.019 189 66.019"/>
    <polygon fill="#48515A" points="193 64.019 197 64.019 197 62.019 193 62.019"/>
    <polygon fill="#48515A" points="183 64.019 187 64.019 187 62.019 183 62.019"/>
    <path fill="#FFD15D" d="M200.995 132.524C200.995 133.904 199.876 135.024 198.495 135.024 197.114 135.024 195.995 133.904 195.995 132.524 195.995 131.143 197.114 130.024 198.495 130.024 199.876 130.024 200.995 131.143 200.995 132.524M140 165.519C140 166.899 138.881 168.019 137.5 168.019 136.119 168.019 135 166.899 135 165.519 135 164.138 136.119 163.019 137.5 163.019 138.881 163.019 140 164.138 140 165.519M151 132.519C151 133.899 149.881 135.019 148.5 135.019 147.119 135.019 146 133.899 146 132.519 146 131.138 147.119 130.019 148.5 130.019 149.881 130.019 151 131.138 151 132.519M166 145.499C166.011 146.879 164.901 148.008 163.52 148.019 162.139 148.03 161.011 146.919 161 145.539 160.989 144.158 162.1 143.03 163.48 143.019 164.861 143.008 165.989 144.118 166 145.499M211 152.019C211 146.496 206.523 142.019 201 142.019 195.477 142.019 191 146.496 191 152.019 191 157.542 195.477 162.019 201 162.019 206.523 162.019 211 157.542 211 152.019"/>
    <path fill="#475059" d="M202.663,157.018 L198.957,157.018 C197.6,157.018 196.497,155.906 196.497,154.538 C196.497,153.986 196.944,153.538 197.497,153.538 C198.05,153.538 198.497,153.986 198.497,154.538 C198.497,154.798 198.708,155.018 198.957,155.018 L202.663,155.018 C203.019,155.018 203.32,154.698 203.32,154.319 L203.32,153.685 C203.32,153.311 203.031,153.018 202.663,153.018 L199.009,153.018 C197.599,153.018 196.653,151.943 196.653,150.341 L196.653,149.707 C196.653,148.099 197.599,147.018 199.009,147.018 L202.936,147.018 C204.137,147.018 205.114,148.001 205.114,149.209 C205.114,149.761 204.667,150.209 204.114,150.209 C203.561,150.209 203.114,149.761 203.114,149.209 C203.114,149.107 203.031,149.018 202.936,149.018 L199.009,149.018 C198.772,149.018 198.653,149.25 198.653,149.707 L198.653,150.341 C198.653,151.018 198.921,151.018 199.009,151.018 L202.663,151.018 C204.128,151.018 205.32,152.215 205.32,153.685 L205.32,154.319 C205.32,155.807 204.128,157.018 202.663,157.018"/>
    <path fill="#475059" d="M200.987,159.018 C200.434,159.018 199.987,158.571 199.987,158.018 L199.987,146.018 C199.987,145.466 200.434,145.018 200.987,145.018 C201.54,145.018 201.987,145.466 201.987,146.018 L201.987,158.018 C201.987,158.571 201.54,159.018 200.987,159.018"/>
    <polygon fill="#FFF" points="153.773 204.976 189.773 204.976 189.773 152.976 153.773 152.976"/>
    <path fill="#475059" d="M154.773,203.976 L188.773,203.976 L188.773,153.976 L154.773,153.976 L154.773,203.976 Z M152.773,205.976 L190.773,205.976 L190.773,151.976 L152.773,151.976 L152.773,205.976 Z"/>
    <polygon fill="#FFF" points="157.773 176.976 161.773 176.976 161.773 172.976 157.773 172.976"/>
    <path fill="#475059" d="M158.773,175.976 L160.773,175.976 L160.773,173.976 L158.773,173.976 L158.773,175.976 Z M156.773,177.976 L162.773,177.976 L162.773,171.976 L156.773,171.976 L156.773,177.976 Z"/>
    <polygon fill="#FFF" points="157.773 184.976 161.773 184.976 161.773 180.976 157.773 180.976"/>
    <path fill="#475059" d="M158.773,183.976 L160.773,183.976 L160.773,181.976 L158.773,181.976 L158.773,183.976 Z M156.773,185.976 L162.773,185.976 L162.773,179.976 L156.773,179.976 L156.773,185.976 Z"/>
    <polygon fill="#FFF" points="157.773 192.976 161.773 192.976 161.773 188.976 157.773 188.976"/>
    <path fill="#475059" d="M158.773,191.976 L160.773,191.976 L160.773,189.976 L158.773,189.976 L158.773,191.976 Z M156.773,193.976 L162.773,193.976 L162.773,187.976 L156.773,187.976 L156.773,193.976 Z"/>
    <polygon fill="#FFF" points="157.773 200.976 161.773 200.976 161.773 196.976 157.773 196.976"/>
    <path fill="#475059" d="M158.773,199.976 L160.773,199.976 L160.773,197.976 L158.773,197.976 L158.773,199.976 Z M156.773,201.976 L162.773,201.976 L162.773,195.976 L156.773,195.976 L156.773,201.976 Z"/>
    <polygon fill="#FFF" points="165.773 176.976 169.773 176.976 169.773 172.976 165.773 172.976"/>
    <path fill="#475059" d="M166.773,175.976 L168.773,175.976 L168.773,173.976 L166.773,173.976 L166.773,175.976 Z M164.773,177.976 L170.773,177.976 L170.773,171.976 L164.773,171.976 L164.773,177.976 Z"/>
    <polygon fill="#FFF" points="165.773 184.976 169.773 184.976 169.773 180.976 165.773 180.976"/>
    <path fill="#475059" d="M166.773,183.976 L168.773,183.976 L168.773,181.976 L166.773,181.976 L166.773,183.976 Z M164.773,185.976 L170.773,185.976 L170.773,179.976 L164.773,179.976 L164.773,185.976 Z"/>
    <polygon fill="#FFF" points="165.773 192.976 169.773 192.976 169.773 188.976 165.773 188.976"/>
    <path fill="#475059" d="M166.773,191.976 L168.773,191.976 L168.773,189.976 L166.773,189.976 L166.773,191.976 Z M164.773,193.976 L170.773,193.976 L170.773,187.976 L164.773,187.976 L164.773,193.976 Z"/>
    <polygon fill="#FFF" points="165.773 200.976 169.773 200.976 169.773 196.976 165.773 196.976"/>
    <path fill="#475059" d="M166.773,199.976 L168.773,199.976 L168.773,197.976 L166.773,197.976 L166.773,199.976 Z M164.773,201.976 L170.773,201.976 L170.773,195.976 L164.773,195.976 L164.773,201.976 Z"/>
    <polygon fill="#FFF" points="173.773 176.976 177.773 176.976 177.773 172.976 173.773 172.976"/>
    <path fill="#475059" d="M174.773,175.976 L176.773,175.976 L176.773,173.976 L174.773,173.976 L174.773,175.976 Z M172.773,177.976 L178.773,177.976 L178.773,171.976 L172.773,171.976 L172.773,177.976 Z"/>
    <polygon fill="#FFF" points="173.773 184.976 177.773 184.976 177.773 180.976 173.773 180.976"/>
    <path fill="#475059" d="M174.773,183.976 L176.773,183.976 L176.773,181.976 L174.773,181.976 L174.773,183.976 Z M172.773,185.976 L178.773,185.976 L178.773,179.976 L172.773,179.976 L172.773,185.976 Z"/>
    <polygon fill="#FFF" points="173.773 192.976 177.773 192.976 177.773 188.976 173.773 188.976"/>
    <path fill="#475059" d="M174.773,191.976 L176.773,191.976 L176.773,189.976 L174.773,189.976 L174.773,191.976 Z M172.773,193.976 L178.773,193.976 L178.773,187.976 L172.773,187.976 L172.773,193.976 Z"/>
    <polygon fill="#FFF" points="173.773 200.976 177.773 200.976 177.773 196.976 173.773 196.976"/>
    <path fill="#475059" d="M174.773,199.976 L176.773,199.976 L176.773,197.976 L174.773,197.976 L174.773,199.976 Z M172.773,201.976 L178.773,201.976 L178.773,195.976 L172.773,195.976 L172.773,201.976 Z"/>
    <polygon fill="#FFF" points="181.773 176.976 185.773 176.976 185.773 172.976 181.773 172.976"/>
    <path fill="#475059" d="M182.773,175.976 L184.773,175.976 L184.773,173.976 L182.773,173.976 L182.773,175.976 Z M180.773,177.976 L186.773,177.976 L186.773,171.976 L180.773,171.976 L180.773,177.976 Z"/>
    <polygon fill="#FFF" points="181.773 184.976 185.773 184.976 185.773 180.976 181.773 180.976"/>
    <path fill="#475059" d="M182.773,183.976 L184.773,183.976 L184.773,181.976 L182.773,181.976 L182.773,183.976 Z M180.773,185.976 L186.773,185.976 L186.773,179.976 L180.773,179.976 L180.773,185.976 Z"/>
    <polygon fill="#FFF" points="181.773 200.976 185.773 200.976 185.773 188.976 181.773 188.976"/>
    <path fill="#475059" d="M182.773,199.976 L184.773,199.976 L184.773,189.976 L182.773,189.976 L182.773,199.976 Z M180.773,201.976 L186.773,201.976 L186.773,187.976 L180.773,187.976 L180.773,201.976 Z"/>
    <path fill="#FFF" d="M153.773,168.976 L189.773,168.976"/>
    <polygon fill="#475059" points="153.773 169.976 189.773 169.976 189.773 167.976 153.773 167.976"/>
    <polygon fill="#FFF" points="157.773 164.976 185.773 164.976 185.773 156.976 157.773 156.976"/>
    <path fill="#475059" d="M158.773,163.976 L184.773,163.976 L184.773,157.976 L158.773,157.976 L158.773,163.976 Z M156.773,165.976 L186.773,165.976 L186.773,155.976 L156.773,155.976 L156.773,165.976 Z"/>
    <path fill="#FFF" d="M182.773,160.976 L159.773,160.976"/>
    <path fill="#475059" d="M160.773,161.976 L162.773,161.976 L162.773,159.976 L160.773,159.976 L160.773,161.976 Z M164.773,161.976 L166.773,161.976 L166.773,159.976 L164.773,159.976 L164.773,161.976 Z M168.773,161.976 L170.773,161.976 L170.773,159.976 L168.773,159.976 L168.773,161.976 Z M172.773,161.976 L174.773,161.976 L174.773,159.976 L172.773,159.976 L172.773,161.976 Z M176.773,161.976 L178.773,161.976 L178.773,159.976 L176.773,159.976 L176.773,161.976 Z M180.773,161.976 L182.773,161.976 L182.773,159.976 L180.773,159.976 L180.773,161.976 Z"/>
  </g>
</svg>
