<svg xmlns="http://www.w3.org/2000/svg" width="250" height="250" viewBox="0 0 250 250">
  <g fill="none" fill-rule="evenodd">
    <polygon fill="#475059" points="74.554 66.276 76.554 66.276 76.554 42.276 74.554 42.276"/>
    <path fill="#475059" d="M75.471,40.273 C75.411,40.273 75.341,40.273 75.282,40.253 C75.211,40.243 75.152,40.223 75.091,40.203 C75.032,40.173 74.971,40.143 74.922,40.103 C74.861,40.073 74.811,40.033 74.771,39.983 C74.581,39.793 74.471,39.543 74.471,39.273 C74.471,39.143 74.501,39.013 74.551,38.893 C74.601,38.773 74.672,38.663 74.771,38.573 C74.811,38.523 74.861,38.483 74.922,38.443 C74.971,38.413 75.032,38.373 75.091,38.353 C75.152,38.333 75.211,38.313 75.282,38.293 C75.471,38.253 75.672,38.273 75.851,38.353 C75.981,38.403 76.091,38.473 76.181,38.573 C76.271,38.663 76.341,38.773 76.402,38.893 C76.451,39.013 76.471,39.143 76.471,39.273 C76.471,39.343 76.461,39.403 76.451,39.473 C76.442,39.533 76.422,39.603 76.402,39.663 C76.371,39.723 76.341,39.773 76.301,39.833 C76.271,39.883 76.231,39.933 76.181,39.983 C76.091,40.073 75.981,40.153 75.851,40.203 C75.731,40.253 75.601,40.273 75.471,40.273"/>
    <polygon fill="#475059" points="78.554 66.276 80.554 66.276 80.554 53.277 78.554 53.277"/>
    <path fill="#475059" d="M79.471,51.273 C79.411,51.273 79.341,51.273 79.281,51.253 C79.211,51.243 79.152,51.223 79.091,51.203 C79.032,51.173 78.971,51.143 78.922,51.103 C78.862,51.073 78.811,51.033 78.761,50.983 C78.672,50.893 78.601,50.783 78.551,50.663 C78.501,50.533 78.471,50.403 78.471,50.273 C78.471,50.213 78.481,50.143 78.491,50.083 C78.501,50.013 78.521,49.953 78.551,49.893 C78.572,49.833 78.611,49.773 78.641,49.723 C78.681,49.663 78.721,49.613 78.761,49.573 C79.041,49.293 79.481,49.203 79.851,49.353 C79.981,49.403 80.091,49.473 80.181,49.573 C80.231,49.613 80.271,49.663 80.301,49.723 C80.341,49.773 80.371,49.833 80.402,49.893 C80.422,49.953 80.442,50.013 80.451,50.083 C80.461,50.143 80.471,50.213 80.471,50.273 C80.471,50.543 80.371,50.793 80.181,50.983 C80.091,51.073 79.981,51.153 79.851,51.203 C79.731,51.253 79.601,51.273 79.471,51.273"/>
    <polygon fill="#475059" points="70.554 66.276 72.554 66.276 72.554 49.277 70.554 49.277"/>
    <path fill="#475059" d="M71.471,47.273 C71.341,47.273 71.211,47.253 71.091,47.203 C70.971,47.153 70.862,47.073 70.761,46.983 C70.581,46.793 70.471,46.543 70.471,46.273 C70.471,46.013 70.581,45.753 70.761,45.573 C70.862,45.473 70.971,45.403 71.091,45.353 C71.341,45.253 71.612,45.253 71.851,45.353 C71.981,45.403 72.091,45.473 72.181,45.573 C72.371,45.753 72.471,46.013 72.471,46.273 C72.471,46.343 72.471,46.403 72.451,46.473 C72.442,46.533 72.422,46.603 72.402,46.663 C72.371,46.723 72.341,46.773 72.301,46.833 C72.271,46.883 72.231,46.933 72.181,46.983 C72.091,47.073 71.981,47.153 71.851,47.203 C71.731,47.253 71.601,47.273 71.471,47.273"/>
    <polyline fill="#5FE0ED" points="44.614 100.325 44.614 70.356 106.614 70.317 106.614 100.325 44.614 100.325"/>
    <path fill="#48515A" d="M78.304,92.325 L72.689,92.325 C70.948,92.325 69.477,90.818 69.477,89.034 L71.477,89.034 C71.477,89.722 72.043,90.325 72.689,90.325 L78.304,90.325 C79.155,90.325 79.613,89.464 79.613,88.654 L79.613,87.694 C79.613,86.824 79.136,86.325 78.304,86.325 L72.768,86.325 C70.94,86.325 69.613,84.77 69.613,82.627 L69.613,81.666 C69.613,79.667 70.881,78.325 72.768,78.325 L78.719,78.325 C80.281,78.325 81.504,79.519 81.504,81.044 L79.504,81.044 C79.504,80.627 79.174,80.325 78.719,80.325 L72.768,80.325 C72.452,80.325 71.614,80.325 71.614,81.666 L71.614,82.627 C71.614,83.214 71.855,84.325 72.768,84.325 L78.304,84.325 C80.253,84.325 81.613,85.71 81.613,87.694 L81.613,88.654 C81.613,90.712 80.16,92.325 78.304,92.325"/>
    <polygon fill="#48515A" points="74.614 94.325 76.614 94.325 76.614 76.325 74.614 76.325"/>
    <polygon fill="#48515A" points="85.613 86.325 91.613 86.325 91.613 84.325 85.613 84.325"/>
    <polygon fill="#48515A" points="85.613 90.325 91.613 90.325 91.613 88.325 85.613 88.325"/>
    <polygon fill="#48515A" points="85.613 82.325 91.613 82.325 91.613 80.325 85.613 80.325"/>
    <polygon fill="#48515A" points="59.614 86.325 65.614 86.325 65.614 84.325 59.614 84.325"/>
    <polygon fill="#48515A" points="59.614 82.325 65.614 82.325 65.614 80.325 59.614 80.325"/>
    <polygon fill="#48515A" points="59.614 90.325 65.614 90.325 65.614 88.325 59.614 88.325"/>
    <polyline fill="#48515A" points="78.825 98.325 46.613 98.325 46.613 72.325 104.613 72.325 104.613 79.748 102.613 79.748 102.613 74.325 48.614 74.325 48.614 96.325 78.825 96.325 78.825 98.325"/>
    <path fill="#F58E70" d="M139.17,136.375 C139.17,141.266 135.191,145.245 130.301,145.245 L126.887,145.264 L126.887,151.488 L120.887,151.488 L120.887,145.298 L117.309,145.318 C112.811,145.318 109.166,141.639 109.166,137.115 L115.166,137.115 C115.166,138.309 116.139,139.318 117.292,139.318 L120.887,139.298 L120.887,129.965 L117.474,129.965 C112.583,129.965 108.604,125.987 108.604,121.096 L108.604,117.556 C108.604,112.665 112.583,108.686 117.474,108.686 L120.887,108.686 L120.887,102.946 L126.887,102.946 L126.887,108.686 L131.261,108.686 C135.196,108.686 138.397,111.888 138.397,115.822 L132.397,115.822 C132.397,115.196 131.888,114.686 131.261,114.686 L126.887,114.686 L126.887,123.965 L130.301,123.965 C135.191,123.965 139.17,127.944 139.17,132.835 L139.17,136.375 Z M113.644,95.454 L133.644,95.454 L133.644,91.454 L113.644,91.454 L113.644,95.454 Z M185.74,116.274 C185.604,116.272 185.396,116.268 185.086,116.243 C184.99,116.237 184.875,116.239 184.744,116.239 C184.738,116.239 184.733,116.239 184.727,116.239 C182.814,116.236 177.732,116.229 174.782,109.641 C172.773,105.065 169.934,100.869 166.452,97.291 C166.139,98.477 165.9,99.295 165.879,99.366 L160.122,97.676 C160.13,97.647 160.808,95.328 161.375,92.806 L161.36,92.794 L161.725,91.13 C161.729,91.109 161.734,91.087 161.738,91.066 L161.739,91.066 L163.162,84.575 C163.373,83.872 163.434,82.857 163.294,82.488 C162.428,82.08 159.656,83.073 158.148,83.613 C157.793,83.74 157.444,83.865 157.104,83.982 C156.474,84.201 154.859,84.805 150.763,86.433 L149.787,86.821 L148.783,86.516 C146.832,85.923 144.821,85.47 142.806,85.171 C142.327,85.1 141.845,85.038 141.361,84.983 C141.211,84.968 122.698,83.145 109.542,85.505 L109.383,85.536 C108.905,85.628 108.428,85.719 107.958,85.831 C89.77,90.125 76.597,106.113 75.904,124.719 L75.904,124.783 L76.037,128.894 C76.681,139.783 81.621,149.918 89.943,157.352 L90.944,158.246 L90.944,162.71 C91.784,162.602 92.632,162.528 93.494,162.528 L146.164,162.528 L146.164,165.528 C146.164,170.346 144.373,174.677 141.395,177.925 L155.007,177.925 L157.571,176.666 L157.527,162.85 L159.094,161.994 C159.206,161.932 170.992,155.289 175.323,141.728 C176.753,136.376 177.793,134.726 178.996,132.816 C181.109,129.462 184.489,127.751 186.803,126.927 L186.803,116.274 L185.74,116.274 Z"/>
    <path fill="#F58E70" d="M130.301 129.965L126.887 129.965 126.887 139.264 130.284 139.245C131.883 139.245 133.17 137.957 133.17 136.375L133.17 132.835C133.17 131.253 131.883 129.965 130.301 129.965M114.604 117.556L114.604 121.096C114.604 122.678 115.891 123.965 117.474 123.965L120.887 123.965 120.887 114.686 117.474 114.686C115.891 114.686 114.604 115.974 114.604 117.556"/>
    <path fill="#DEDEDD" d="M179.43 157.876C182.445 157.385 185.453 158.037 187.683 159.665 187.866 159.799 188.044 159.938 188.217 160.082L181.153 165.082 163.561 173.723 163.538 166.299C165.191 165.212 167.946 163.199 170.869 160.208L173.417 159.358C175.373 158.706 177.396 158.208 179.43 157.876M57.797 215.438L57.797 215.44C57.795 216.631 56.826 217.599 55.635 217.599 55.635 217.599 55.633 217.599 55.633 217.599L48.644 217.592 48.644 203.418 55.693 203.425C56.264 203.425 56.805 203.652 57.216 204.064 57.627 204.476 57.852 205.017 57.852 205.586L57.797 215.438"/>
    <path fill="#475059" d="M81.682,214.478 L60.852,214.478 L60.852,212.478 L81.491,212.478 L158.618,197.569 L202.147,170.909 C196.433,165.802 189.429,164.897 183.194,168.533 L155.937,181.925 L109.158,181.925 L109.158,179.925 L127.473,179.925 C135.367,179.925 141.623,174.117 142.131,166.528 L93.493,166.528 C89.278,166.528 85.316,168.169 82.336,171.149 L61.559,191.926 L60.145,190.512 L80.922,169.735 C84.279,166.377 88.744,164.528 93.493,164.528 L144.164,164.528 L144.164,165.528 C144.164,171.811 140.739,177.165 135.584,179.925 L155.472,179.925 L182.249,166.771 C189.489,162.549 198.034,163.916 204.489,170.372 L205.386,171.269 L159.354,199.463 L159.176,199.498 L81.682,214.478"/>
    <path fill="#475059" d="M182.691 168.669C182.378 168.669 182.069 168.522 181.874 168.246 181.555 167.796 181.662 167.172 182.113 166.852L191.277 160.367C190.588 159.496 189.779 158.72 188.862 158.05 186.202 156.108 182.647 155.323 179.109 155.902L175.804 156.44C175.264 156.533 174.746 156.16 174.657 155.614 174.568 155.069 174.938 154.555 175.483 154.467L178.787 153.929C182.849 153.267 186.953 154.179 190.042 156.435 191.416 157.438 192.584 158.653 193.512 160.043 193.813 160.494 193.701 161.102 193.259 161.415L183.268 168.485C183.092 168.609 182.891 168.669 182.691 168.669M46.644 219.625L55.631 219.635C55.632 219.635 55.633 219.635 55.635 219.635 57.928 219.635 59.794 217.771 59.797 215.478L59.797 215.477 59.852 184.499C59.854 182.205 57.989 180.337 55.695 180.334L46.644 180.326 46.644 219.625zM55.635 221.635C55.632 221.635 55.631 221.635 55.629 221.635L44.644 221.623 44.644 178.324 55.696 178.334C59.094 178.338 61.855 181.105 61.852 184.502L61.797 215.481C61.793 218.875 59.029 221.635 55.635 221.635z"/>
    <path fill="#475059" d="M159.577,178.755 L159.53,164.036 L160.052,163.749 C160.178,163.68 172.677,156.687 177.251,142.268 C178.599,137.198 179.568,135.661 180.689,133.881 C182.979,130.245 187.048,128.848 188.803,128.396 L188.803,114.274 L185.74,114.274 C185.653,114.272 185.488,114.269 185.244,114.249 C185.105,114.238 184.932,114.239 184.73,114.239 C183.024,114.237 179.028,114.231 176.607,108.824 C173.813,102.458 169.474,96.782 164.056,92.402 L163.577,92.014 L165.048,85.261 C165.08,85.143 166.037,81.879 164.454,80.85 C162.846,79.805 159.992,80.827 157.473,81.73 C157.126,81.854 156.783,81.976 156.45,82.092 C155.5,82.422 153.338,83.257 150.025,84.575 L149.699,84.704 L149.364,84.602 C147.321,83.981 145.213,83.507 143.1,83.193 C142.598,83.118 142.092,83.053 141.585,82.996 C141.408,82.979 122.631,81.127 109.189,83.536 L109,83.573 C108.497,83.67 107.993,83.767 107.498,83.884 C88.419,88.388 74.605,105.173 73.903,124.701 L73.904,124.784 L74.038,128.957 C74.715,140.432 79.891,151.056 88.61,158.844 L88.944,159.141 L88.944,165.453 C88.944,166.006 88.496,166.453 87.944,166.453 C87.392,166.453 86.944,166.006 86.944,165.453 L86.944,160.034 C78.03,151.92 72.742,140.934 72.04,129.049 L71.904,124.664 C72.638,104.203 87.086,86.648 107.038,81.938 C107.56,81.814 108.09,81.711 108.62,81.609 L108.822,81.57 C122.555,79.108 141.606,80.988 141.798,81.007 C142.34,81.069 142.868,81.137 143.393,81.214 C145.488,81.526 147.577,81.987 149.609,82.588 C152.768,81.333 154.849,80.531 155.795,80.202 C156.123,80.089 156.458,79.969 156.799,79.847 C159.756,78.788 163.107,77.589 165.544,79.173 C168.424,81.045 167.039,85.581 166.979,85.773 L165.792,91.239 C171.235,95.763 175.599,101.552 178.435,108.014 C180.325,112.233 183.084,112.237 184.733,112.239 C184.997,112.239 185.224,112.241 185.406,112.256 C185.583,112.27 185.703,112.273 185.756,112.274 L190.803,112.274 L190.803,130.044 L189.967,130.184 C189.916,130.193 184.809,131.094 182.418,134.89 C181.304,136.656 180.453,138.006 179.17,142.828 C174.825,156.532 164.067,163.677 161.534,165.201 L161.577,177.412 C161.579,177.965 159.579,179.306 159.577,178.755"/>
    <path fill="#475059" d="M133.644 95.454L113.644 95.454C113.092 95.454 112.644 95.007 112.644 94.454 112.644 93.902 113.092 93.454 113.644 93.454L133.644 93.454C134.196 93.454 134.644 93.902 134.644 94.454 134.644 95.007 134.196 95.454 133.644 95.454M61.245 130.968C60.565 130.968 59.881 130.916 59.196 130.81 53.288 129.902 49.221 124.357 50.129 118.45 50.871 113.614 55.414 110.286 60.246 111.028 62.173 111.324 63.868 112.353 65.021 113.925 66.174 115.496 66.646 117.423 66.35 119.349 66.105 120.944 65.254 122.347 63.953 123.301 62.653 124.255 61.06 124.647 59.465 124.4L59.768 122.424C60.833 122.586 61.9 122.326 62.77 121.688 63.64 121.051 64.209 120.112 64.373 119.046 64.588 117.647 64.245 116.248 63.408 115.108 62.571 113.967 61.34 113.22 59.942 113.005 56.194 112.428 52.681 115.008 52.106 118.753 51.365 123.571 54.682 128.093 59.5 128.834 62.485 129.292 65.467 128.561 67.9 126.776 70.334 124.991 71.927 122.365 72.385 119.381L74.362 119.685C73.823 123.196 71.948 126.287 69.083 128.389 66.777 130.08 64.051 130.968 61.245 130.968M163.96 98.802L162.041 98.239C162.052 98.202 163.1 94.619 163.703 91.438L165.668 91.81C165.047 95.09 164.004 98.652 163.96 98.802M169.237 113.58C168.824 113.58 168.437 113.323 168.293 112.911 167.312 110.116 166.329 107.977 165.524 106.888 165.196 106.443 165.29 105.817 165.734 105.489 166.178 105.161 166.805 105.254 167.133 105.699 168.312 107.296 169.441 110.142 170.18 112.249 170.363 112.77 170.089 113.341 169.568 113.523 169.458 113.562 169.346 113.58 169.237 113.58M117.298 143.318C113.914 143.318 111.166 140.536 111.166 137.115L113.166 137.115C113.166 139.432 115.017 141.318 117.292 141.318L130.295 141.245C132.986 141.245 135.17 139.06 135.17 136.375L135.17 132.835C135.17 130.15 132.986 127.966 130.301 127.966L117.473 127.966C113.686 127.966 110.604 124.884 110.604 121.096L110.604 117.556C110.604 113.768 113.686 110.686 117.473 110.686L131.261 110.686C134.093 110.686 136.397 112.99 136.397 115.822L134.397 115.822C134.397 114.093 132.99 112.686 131.261 112.686L117.473 112.686C114.788 112.686 112.604 114.871 112.604 117.556L112.604 121.096C112.604 123.781 114.788 125.966 117.473 125.966L130.301 125.966C134.089 125.966 137.17 129.047 137.17 132.835L137.17 136.375C137.17 140.163 134.089 143.245 130.301 143.245L117.298 143.318"/>
    <polygon fill="#475059" points="122.887 151.488 124.887 151.488 124.887 102.946 122.887 102.946"/>
    <path fill="#DEDEDD" d="M109.158 176.9L132.601 176.9C136.188 175.39 138.871 172.329 139.804 168.528L135.012 168.528C132.916 170.02 130.322 170.9 127.473 170.9L115.158 170.9C111.844 170.9 109.158 173.587 109.158 176.9M191.012 168.359L157.883 188.649 81.299 203.454 63.818 203.454 63.806 210.478 81.299 210.478 157.883 195.674 198.624 170.721C196.205 169.15 193.611 168.359 191.012 168.359"/>
    <path fill="#FFD15D" d="M201.714,65.347 C201.714,55.406 193.655,47.347 183.714,47.347 C173.773,47.347 165.714,55.406 165.714,65.347 C165.714,75.288 173.773,83.347 183.714,83.347 C193.655,83.347 201.714,75.288 201.714,65.347"/>
    <path fill="#475059" d="M186.208,72.32 L180.649,72.32 C178.89,72.32 177.459,70.881 177.459,69.113 C177.459,68.56 177.907,68.113 178.459,68.113 C179.011,68.113 179.459,68.56 179.459,69.113 C179.459,69.779 179.993,70.32 180.649,70.32 L186.208,70.32 C187.04,70.32 187.716,69.637 187.716,68.796 L187.716,67.846 C187.716,67.014 187.04,66.338 186.208,66.338 L180.727,66.338 C178.793,66.338 177.219,64.764 177.219,62.83 L177.219,61.879 C177.219,59.944 178.793,58.37 180.727,58.37 L186.618,58.37 C188.144,58.37 189.386,59.612 189.386,61.138 C189.386,61.69 188.938,62.138 188.386,62.138 C187.834,62.138 187.386,61.69 187.386,61.138 C187.386,60.715 187.042,60.37 186.618,60.37 L180.727,60.37 C179.896,60.37 179.219,61.047 179.219,61.879 L179.219,62.83 C179.219,63.661 179.896,64.338 180.727,64.338 L186.208,64.338 C188.142,64.338 189.716,65.912 189.716,67.846 L189.716,68.796 C189.716,70.739 188.142,72.32 186.208,72.32"/>
    <path fill="#475059" d="M183.748,75.346 C183.196,75.346 182.748,74.898 182.748,74.346 L182.748,56.346 C182.748,55.794 183.196,55.346 183.748,55.346 C184.3,55.346 184.748,55.794 184.748,56.346 L184.748,74.346 C184.748,74.898 184.3,75.346 183.748,75.346"/>
    <polygon fill="#475059" points="182.715 43.34 184.715 43.34 184.715 32.348 182.715 32.348"/>
    <path fill="#475059" d="M183.632,30.353 C183.371,30.353 183.112,30.243 182.922,30.053 C182.831,29.963 182.761,29.853 182.711,29.733 C182.661,29.613 182.632,29.483 182.632,29.353 C182.632,29.083 182.741,28.823 182.922,28.643 C183.301,28.273 183.971,28.273 184.342,28.643 C184.531,28.823 184.632,29.083 184.632,29.353 C184.632,29.483 184.612,29.613 184.561,29.733 C184.511,29.853 184.431,29.963 184.342,30.053 C184.152,30.243 183.902,30.353 183.632,30.353"/>
    <polygon fill="#475059" points="186.715 43.341 188.715 43.341 188.715 36.345 186.715 36.345"/>
    <path fill="#475059" d="M187.632,34.343 C187.371,34.343 187.112,34.233 186.922,34.053 C186.831,33.963 186.761,33.853 186.711,33.723 C186.661,33.603 186.632,33.473 186.632,33.343 C186.632,33.083 186.741,32.823 186.922,32.633 C187.161,32.403 187.501,32.303 187.831,32.363 C187.891,32.373 187.951,32.393 188.011,32.423 C188.072,32.443 188.132,32.473 188.192,32.513 C188.241,32.553 188.291,32.593 188.342,32.633 C188.531,32.823 188.632,33.083 188.632,33.343 C188.632,33.473 188.612,33.603 188.561,33.723 C188.501,33.853 188.431,33.953 188.342,34.053 C188.291,34.093 188.241,34.143 188.192,34.173 C188.132,34.213 188.072,34.243 188.011,34.263 C187.951,34.293 187.891,34.313 187.831,34.323 C187.761,34.343 187.701,34.343 187.632,34.343"/>
    <polygon fill="#475059" points="178.715 43.341 180.715 43.341 180.715 35.347 178.715 35.347"/>
    <path fill="#475059" d="M179.632,33.343 C179.371,33.343 179.112,33.243 178.922,33.053 C178.741,32.873 178.632,32.613 178.632,32.343 C178.632,32.083 178.741,31.823 178.922,31.643 C179.301,31.273 179.971,31.263 180.342,31.643 C180.531,31.823 180.632,32.083 180.632,32.343 C180.632,32.613 180.531,32.863 180.342,33.053 C180.152,33.243 179.902,33.343 179.632,33.343"/>
    <path fill="#FFD15D" d="M121.668 72.828C121.668 74.209 120.548 75.328 119.168 75.328 117.787 75.328 116.668 74.209 116.668 72.828 116.668 71.448 117.787 70.328 119.168 70.328 120.548 70.328 121.668 71.448 121.668 72.828M154.69 60.796C154.69 63.83 152.23 66.291 149.195 66.291 146.16 66.291 143.7 63.83 143.7 60.796 143.7 57.761 146.16 55.301 149.195 55.301 152.23 55.301 154.69 57.761 154.69 60.796M129.195 44.076C129.195 46.146 127.517 47.824 125.447 47.824 123.378 47.824 121.7 46.146 121.7 44.076 121.7 42.006 123.378 40.328 125.447 40.328 127.517 40.328 129.195 42.006 129.195 44.076M64.632 139.846C64.632 141.227 63.512 142.346 62.132 142.346 60.751 142.346 59.632 141.227 59.632 139.846 59.632 138.466 60.751 137.346 62.132 137.346 63.512 137.346 64.632 138.466 64.632 139.846"/>
  </g>
</svg>
