<svg xmlns="http://www.w3.org/2000/svg" width="250" height="250" viewBox="0 0 250 250">
  <g fill="none" fill-rule="evenodd">
    <polyline fill="#F58E70" points="189 119.541 73 119.541 69 109.541 193 109.541 189 119.541"/>
    <polyline fill="#F58E70" points="151.996 67.541 151.996 50.541 144.238 50.541 127.238 67.541 151.996 67.541"/>
    <polyline fill="#475059" points="77.001 130.209 75.001 130.209 75.001 123.767 66 105.777 66 100.541 142.52 100.541 150.52 90.541 200 90.541 200 93.748 186.999 123.749 186.999 129.375 184.999 129.375 184.999 123.333 198 93.333 198 92.541 151.48 92.541 143.48 102.541 68 102.541 68 105.305 77.001 123.294 77.001 130.209"/>
    <polyline fill="#475059" points="86 101.541 84 101.541 84 90.541 165 90.541 165 92.541 86 92.541 86 101.541"/>
    <polyline fill="#475059" points="96 91.541 94 91.541 94 78.541 165 78.541 165 80.541 96 80.541 96 91.541"/>
    <polyline fill="#475059" points="166 91.541 164 91.541 164 68.541 108 68.541 108 79.541 106 79.541 106 66.541 166 66.541 166 91.541"/>
    <polyline fill="#475059" points="123.703 68.248 122.289 66.834 142.582 46.541 155.996 46.541 155.996 67.541 153.996 67.541 153.996 48.541 143.41 48.541 123.703 68.248"/>
    <path fill="#475059" d="M111 74.684L113.138 74.684 113.138 72.398 111 72.398 111 74.684zM115.275 74.684L117.414 74.684 117.414 72.398 115.275 72.398 115.275 74.684zM119.552 74.684L121.689 74.684 121.689 72.398 119.552 72.398 119.552 74.684zM123.827 74.684L125.965 74.684 125.965 72.398 123.827 72.398 123.827 74.684zM128.103 74.684L130.241 74.684 130.241 72.398 128.103 72.398 128.103 74.684zM132.379 74.684L134.517 74.684 134.517 72.398 132.379 72.398 132.379 74.684zM136.654 74.684L138.792 74.684 138.792 72.398 136.654 72.398 136.654 74.684zM140.93 74.684L143.068 74.684 143.068 72.398 140.93 72.398 140.93 74.684zM145.206 74.684L147.344 74.684 147.344 72.398 145.206 72.398 145.206 74.684zM149.481 74.684L151.62 74.684 151.62 72.398 149.481 72.398 149.481 74.684zM153.758 74.684L155.896 74.684 155.896 72.398 153.758 72.398 153.758 74.684zM158.033 74.684L160.171 74.684 160.171 72.398 158.033 72.398 158.033 74.684zM99 86.684L101.138 86.684 101.138 84.398 99 84.398 99 86.684zM103.275 86.684L105.414 86.684 105.414 84.398 103.275 84.398 103.275 86.684zM107.552 86.684L109.689 86.684 109.689 84.398 107.552 84.398 107.552 86.684zM111.827 86.684L113.965 86.684 113.965 84.398 111.827 84.398 111.827 86.684zM116.103 86.684L118.241 86.684 118.241 84.398 116.103 84.398 116.103 86.684zM120.379 86.684L122.517 86.684 122.517 84.398 120.379 84.398 120.379 86.684zM124.654 86.684L126.792 86.684 126.792 84.398 124.654 84.398 124.654 86.684zM128.931 86.684L131.068 86.684 131.068 84.398 128.931 84.398 128.931 86.684zM133.206 86.684L135.344 86.684 135.344 84.398 133.206 84.398 133.206 86.684zM137.481 86.684L139.62 86.684 139.62 84.398 137.481 84.398 137.481 86.684zM141.758 86.684L143.896 86.684 143.896 84.398 141.758 84.398 141.758 86.684zM146.033 86.684L148.171 86.684 148.171 84.398 146.033 84.398 146.033 86.684zM150.309 86.684L152.447 86.684 152.447 84.398 150.309 84.398 150.309 86.684zM154.585 86.684L156.723 86.684 156.723 84.398 154.585 84.398 154.585 86.684zM158.86 86.684L160.998 86.684 160.998 84.398 158.86 84.398 158.86 86.684zM89 97.541L91.138 97.541 91.138 95.541 89 95.541 89 97.541zM93.275 97.541L95.414 97.541 95.414 95.541 93.275 95.541 93.275 97.541zM97.552 97.541L99.69 97.541 99.69 95.541 97.552 95.541 97.552 97.541zM101.827 97.541L103.965 97.541 103.965 95.541 101.827 95.541 101.827 97.541zM106.103 97.541L108.241 97.541 108.241 95.541 106.103 95.541 106.103 97.541zM110.379 97.541L112.517 97.541 112.517 95.541 110.379 95.541 110.379 97.541zM114.654 97.541L116.792 97.541 116.792 95.541 114.654 95.541 114.654 97.541zM118.93 97.541L121.068 97.541 121.068 95.541 118.93 95.541 118.93 97.541zM123.206 97.541L125.344 97.541 125.344 95.541 123.206 95.541 123.206 97.541zM127.481 97.541L129.62 97.541 129.62 95.541 127.481 95.541 127.481 97.541zM131.758 97.541L133.896 97.541 133.896 95.541 131.758 95.541 131.758 97.541zM136.033 97.541L138.171 97.541 138.171 95.541 136.033 95.541 136.033 97.541zM140.309 97.541L142.447 97.541 142.447 95.541 140.309 95.541 140.309 97.541zM180 106.684C176.613 106.684 173.857 103.928 173.857 100.541L176.143 100.541C176.143 102.668 177.873 104.398 180 104.398 182.127 104.398 183.857 102.668 183.857 100.541L186.143 100.541C186.143 103.928 183.387 106.684 180 106.684"/>
    <polygon fill="#475059" points="178.858 105.541 181.144 105.541 181.144 95.541 178.858 95.541"/>
    <path fill="#5FE0ED" d="M199 73.541C199 74.646 198.105 75.541 197 75.541 195.895 75.541 195 74.646 195 73.541 195 72.436 195.895 71.541 197 71.541 198.105 71.541 199 72.436 199 73.541M95 59.541C95 60.646 94.105 61.541 93 61.541 91.895 61.541 91 60.646 91 59.541 91 58.436 91.895 57.541 93 57.541 94.105 57.541 95 58.436 95 59.541M51 107.541C51 108.646 51.895 109.541 53 109.541 54.105 109.541 55 108.646 55 107.541 55 106.436 54.105 105.541 53 105.541 51.895 105.541 51 106.436 51 107.541"/>
    <polygon fill="#48515A" points="213 105.541 215 105.541 215 101.541 213 101.541"/>
    <polygon fill="#48515A" points="213 115.541 215 115.541 215 111.541 213 111.541"/>
    <polygon fill="#48515A" points="217 109.541 221 109.541 221 107.541 217 107.541"/>
    <polygon fill="#48515A" points="207 109.541 211 109.541 211 107.541 207 107.541"/>
    <path fill="#5FE0ED" d="M186.954,123.551 C186.954,127.969 183.372,131.551 178.954,131.551 C174.536,131.551 170.954,127.969 170.954,123.551 C170.954,127.969 167.372,131.551 162.954,131.551 C158.536,131.551 154.954,127.969 154.954,123.551 C154.954,127.969 151.372,131.551 146.954,131.551 C142.536,131.551 138.954,127.969 138.954,123.551 C138.954,127.969 135.372,131.551 130.954,131.551 C126.536,131.551 122.954,127.969 122.954,123.551 C122.954,127.969 119.372,131.551 114.954,131.551 C110.536,131.551 106.954,127.969 106.954,123.551 C106.954,127.969 103.372,131.551 98.954,131.551 C94.535,131.551 90.954,127.969 90.954,123.551 C90.954,127.969 87.372,131.551 82.954,131.551 C78.535,131.551 74.954,127.969 74.954,123.551 C74.954,127.954 71.397,131.524 67,131.549 L67,164.141 L78.948,152.205 C82.094,149.058 86.42,147.253 90.87,147.253 L140.54,147.054 C140.54,155.72 133.515,162.253 124.85,162.253 C127.677,162.253 130.148,162.253 131.618,162.253 L153.081,162.253 L180.067,149.245 C185.074,146.326 190.306,146.341 194.953,148.428 L194.954,131.551 C190.536,131.551 186.954,127.969 186.954,123.551"/>
    <path fill="#DEDEDD" d="M55,197.262 L55,197.264 C55,198.455 54.202,199.253 53.011,199.253 L53.01,199.253 L46,199.416 L46,185.242 L53.059,185.249 C53.63,185.25 54.177,185.477 54.587,185.888 C54.998,186.3 55.14,186.841 55.139,187.41 L55,197.262"/>
    <path fill="#475059" d="M79.059,196.253 L58,196.253 L58,194.253 L78.867,194.253 L155.994,179.306 L199.525,152.609 C193.766,147.449 186.76,146.501 180.57,150.109 L153.309,163.253 L106.534,163.253 L106.534,161.253 L124.85,161.253 C132.738,161.253 138.989,155.535 139.506,148.058 L90.874,148.253 C86.704,148.253 82.616,149.951 79.654,152.912 L58.821,173.726 L57.407,172.311 L78.24,151.497 C81.574,148.165 86.178,146.253 90.87,146.253 L141.54,146.05 L141.54,147.054 C141.54,153.244 138.136,158.52 133.006,161.253 L152.852,161.253 L179.632,148.344 C186.927,144.089 195.264,145.47 201.866,152.073 L202.763,152.969 L156.73,181.201 L156.553,181.235 L79.059,196.253"/>
    <path fill="#475059" d="M138.686 155.91C138.323 155.911 137.975 155.713 137.797 155.37 137.543 154.88 137.734 154.276 138.225 154.022L169.527 137.805C171.66 136.809 173.881 136.125 176.163 135.752 180.228 135.089 184.33 136.004 187.418 138.259 188.793 139.263 189.961 140.477 190.889 141.868 191.192 142.324 191.073 142.939 190.62 143.249L180.63 150.071C180.176 150.384 179.554 150.265 179.24 149.809 178.929 149.353 179.046 148.731 179.503 148.419L188.643 142.178C187.956 141.313 187.15 140.541 186.238 139.875 183.579 137.933 180.025 137.15 176.485 137.726 174.384 138.069 172.34 138.699 170.41 139.599L139.145 155.798C138.998 155.874 138.84 155.91 138.686 155.91M44 201.45L52.997 201.459C52.998 201.459 53 201.459 53.002 201.459 55.3 201.459 57.171 199.595 57.173 197.302L57.173 197.301 57.229 166.323C57.229 165.22 56.795 164.176 56.004 163.386 55.213 162.596 54.168 162.16 53.061 162.159L44 162.149 44 201.45zM53.002 203.459C52.999 203.459 52.997 203.459 52.995 203.459L42 203.448 42 160.147 53.063 160.159C54.703 160.16 56.249 160.804 57.418 161.971 58.587 163.14 59.23 164.687 59.229 166.326L59.173 197.305C59.169 200.7 56.401 203.459 53.002 203.459z"/>
    <path fill="#DEDEDD" d="M106.534 158.253L129.977 158.253C133.565 157.253 136.247 154.253 137.18 150.253L132.388 150.253C130.293 152.253 127.698 152.253 124.85 152.253L112.534 152.253C109.221 152.253 106.534 154.939 106.534 158.253M188.388 150.183L155.259 170.461 78.675 185.253 61.195 185.253 61.182 192.253 78.675 192.253 155.259 177.473 196 152.533C193.581 150.962 190.987 150.183 188.388 150.183"/>
    <path fill="#5FE0ED" d="M112.534,152.253 L124.85,152.253 C127.698,152.253 130.293,152.253 132.388,150.253 L137.18,150.253 C136.247,154.253 133.565,157.253 129.977,158.253 L106.534,158.253 C106.534,154.939 109.221,152.253 112.534,152.253"/>
    <path fill="#DEDEDD" d="M137.18 150.253L132.388 150.253C130.293 152.253 127.698 152.253 124.85 152.253L112.534 152.253C109.221 152.253 106.534 154.939 106.534 158.253L129.977 158.253C133.565 157.253 136.247 154.253 137.18 150.253M194.952 151.913L194.952 153.174 196 152.533C195.655 152.309 195.305 152.105 194.952 151.913"/>
    <polygon fill="#48515A" points="35 137.541 37 137.541 37 133.541 35 133.541"/>
    <polygon fill="#48515A" points="35 147.541 37 147.541 37 143.541 35 143.541"/>
    <polygon fill="#48515A" points="39 141.541 43 141.541 43 139.541 39 139.541"/>
    <polygon fill="#48515A" points="29 141.541 33 141.541 33 139.541 29 139.541"/>
    <polygon fill="#48515A" points="185 183.541 187 183.541 187 179.541 185 179.541"/>
    <polygon fill="#48515A" points="185 193.541 187 193.541 187 189.541 185 189.541"/>
    <polygon fill="#48515A" points="189 187.541 193 187.541 193 185.541 189 185.541"/>
    <polygon fill="#48515A" points="179 187.541 183 187.541 183 185.541 179 185.541"/>
  </g>
</svg>
