<svg xmlns="http://www.w3.org/2000/svg" width="250" height="250" viewBox="0 0 250 250">
  <g fill="none" fill-rule="evenodd">
    <polyline fill="#48515A" points="107.47 210.832 105.47 210.832 105.47 199.832 68.472 199.832 68.472 210.832 66.472 210.832 66.472 197.832 107.47 197.832 107.47 210.832"/>
    <polygon fill="#5FE0ED" points="61.473 220.832 109.592 220.832 109.592 207.837 61.473 207.837"/>
    <path fill="#48515A" d="M75.471,215.832 L71.472,215.832 C70.919,215.832 70.472,215.384 70.472,214.832 C70.472,214.28 70.919,213.832 71.472,213.832 L75.471,213.832 C76.024,213.832 76.471,214.28 76.471,214.832 C76.471,215.384 76.024,215.832 75.471,215.832"/>
    <path fill="#48515A" d="M69.472,213.832 C68.92,213.832 68.472,214.281 68.472,214.832 C68.472,215.383 68.92,215.832 69.472,215.832 C70.024,215.832 70.472,215.383 70.472,214.832 C70.472,214.281 70.024,213.832 69.472,213.832 M69.472,217.832 C67.818,217.832 66.472,216.486 66.472,214.832 C66.472,213.178 67.818,211.832 69.472,211.832 C71.126,211.832 72.472,213.178 72.472,214.832 C72.472,216.486 71.126,217.832 69.472,217.832"/>
    <path fill="#DEDEDD" d="M52.694,137.306 L52.694,153.098 L63.721,162.623 C66.09,164.992 69.315,166.304 72.665,166.262 L75.987,166.22 L63.701,155.675 L63.701,145.311 C63.701,142.327 62.63,139.692 60.699,138.065 L60.699,137.306 C60.699,132.36 57.773,128.351 52.827,128.351 L52.827,129.424 C51.706,128.74 50.364,128.351 48.825,128.351 L48.825,129.424 C51.305,130.937 52.694,133.899 52.694,137.306"/>
    <path fill="#475059" d="M75.987,167.22 C75.756,167.22 75.524,167.141 75.336,166.979 L62.701,156.134 L62.701,145.311 C62.701,142.61 61.736,140.247 60.054,138.829 L59.699,138.53 L59.699,137.306 C59.699,133.346 57.574,129.351 52.827,129.351 L49.825,129.351 L49.825,129.424 C49.825,129.976 49.378,130.424 48.825,130.424 C48.272,130.424 47.825,129.976 47.825,129.424 L47.825,127.351 L52.827,127.351 C58.05,127.351 61.699,131.445 61.699,137.306 L61.699,137.618 C63.612,139.432 64.701,142.206 64.701,145.311 L64.701,155.215 L76.638,165.461 C77.057,165.821 77.105,166.452 76.746,166.871 C76.549,167.102 76.268,167.22 75.987,167.22"/>
    <path fill="#475059" d="M100.777,199.233 C100.224,199.233 99.777,198.785 99.777,198.233 L99.777,176.377 C99.777,173.925 98.822,171.619 97.088,169.885 L73.574,146.371 C71.01,149.701 71.376,154.807 74.57,158.002 L84.198,167.116 L72.677,167.262 C69.074,167.272 65.557,165.874 63.014,163.33 L51.694,153.556 L51.694,137.306 C51.694,133.636 49.869,129.935 45.822,129.413 L45.822,158.809 L73.799,185.475 L73.799,198.15 C73.799,198.702 73.352,199.15 72.799,199.15 C72.247,199.15 71.799,198.702 71.799,198.15 L71.799,186.332 L43.822,159.666 L43.822,127.351 L44.822,127.351 C50.046,127.351 53.694,131.444 53.694,137.306 L53.694,152.641 L64.375,161.866 C66.593,164.081 69.598,165.289 72.652,165.262 L79.243,165.178 L73.175,159.435 C68.943,155.203 68.79,148.237 72.821,144.204 L73.527,143.498 L98.502,168.471 C100.614,170.583 101.777,173.391 101.777,176.377 L101.777,198.233 C101.777,198.785 101.33,199.233 100.777,199.233"/>
    <polyline fill="#48515A" points="179.955 210.832 177.955 210.832 177.955 199.832 140.956 199.832 140.956 210.832 138.956 210.832 138.956 197.832 179.955 197.832 179.955 210.832"/>
    <polygon fill="#5FE0ED" points="136.835 220.832 184.954 220.832 184.954 207.837 136.835 207.837"/>
    <path fill="#48515A" d="M174.955,215.832 L170.956,215.832 C170.403,215.832 169.956,215.384 169.956,214.832 C169.956,214.28 170.403,213.832 170.956,213.832 L174.955,213.832 C175.508,213.832 175.955,214.28 175.955,214.832 C175.955,215.384 175.508,215.832 174.955,215.832"/>
    <path fill="#48515A" d="M176.955,213.832 C176.403,213.832 175.955,214.281 175.955,214.832 C175.955,215.383 176.403,215.832 176.955,215.832 C177.507,215.832 177.955,215.383 177.955,214.832 C177.955,214.281 177.507,213.832 176.955,213.832 M176.955,217.832 C175.301,217.832 173.955,216.486 173.955,214.832 C173.955,213.178 175.301,211.832 176.955,211.832 C178.609,211.832 179.955,213.178 179.955,214.832 C179.955,216.486 178.609,217.832 176.955,217.832"/>
    <path fill="#DEDEDD" d="M193.733,137.306 L193.733,153.098 L182.706,162.623 C180.337,164.992 177.112,166.304 173.762,166.262 L170.44,166.22 L182.726,155.675 L182.726,145.311 C182.726,142.327 183.797,139.692 185.728,138.065 L185.728,137.306 C185.728,132.36 188.654,128.351 193.6,128.351 L193.6,129.424 C194.721,128.74 196.063,128.351 197.602,128.351 L197.602,129.424 C195.122,130.937 193.733,133.899 193.733,137.306"/>
    <path fill="#475059" d="M170.44,167.22 C170.159,167.22 169.879,167.102 169.681,166.871 C169.322,166.452 169.37,165.821 169.789,165.461 L181.726,155.215 L181.726,145.311 C181.726,142.206 182.815,139.432 184.728,137.618 L184.728,137.306 C184.728,131.445 188.377,127.351 193.6,127.351 L198.602,127.351 L198.602,129.424 C198.602,129.976 198.155,130.424 197.602,130.424 C197.049,130.424 196.602,129.976 196.602,129.424 L196.602,129.351 L193.6,129.351 C188.853,129.351 186.728,133.346 186.728,137.306 L186.728,138.53 L186.373,138.829 C184.691,140.247 183.726,142.61 183.726,145.311 L183.726,156.134 L171.091,166.979 C170.903,167.141 170.671,167.22 170.44,167.22"/>
    <path fill="#475059" d="M145.65,199.233 C145.097,199.233 144.65,198.785 144.65,198.233 L144.65,176.377 C144.65,173.391 145.813,170.583 147.925,168.471 L172.9,143.498 L173.606,144.204 C177.637,148.237 177.484,155.203 173.271,159.416 L167.184,165.178 L173.775,165.262 C176.829,165.286 179.834,164.081 181.999,161.916 L192.733,152.641 L192.733,137.306 C192.733,131.444 196.381,127.351 201.605,127.351 L202.605,127.351 L202.605,159.666 L174.628,186.332 L174.628,198.15 C174.628,198.702 174.18,199.15 173.628,199.15 C173.075,199.15 172.628,198.702 172.628,198.15 L172.628,185.475 L200.605,158.809 L200.605,129.413 C196.558,129.935 194.733,133.636 194.733,137.306 L194.733,153.556 L183.359,163.38 C180.869,165.874 177.396,167.301 173.75,167.262 L162.229,167.116 L171.877,157.982 C175.053,154.805 175.418,149.701 172.853,146.371 L149.339,169.885 C147.605,171.619 146.65,173.925 146.65,176.377 L146.65,198.233 C146.65,198.785 146.203,199.233 145.65,199.233"/>
    <path fill="#DFE0E0" d="M139.848,115.063 L139.86,107.692 L139.86,100.951 C139.86,100.884 139.861,100.795 139.863,100.694 C137.837,102.671 135.255,104.757 133.424,106.32 C131.716,107.779 129.533,108.813 127.286,108.813 L120.798,108.813 C118.716,108.813 116.696,108.076 115.129,106.706 C113.713,105.47 111.71,103.881 109.861,102.25 L109.861,105.076 L134.908,130.124 C138.238,128.332 141.171,125.6 143.276,121.916 L145.764,117.563 L139.848,115.063"/>
    <polyline fill="#48515A" points="64.94 134.096 64.194 132.241 108.861 114.304 108.861 102.813 110.861 102.813 110.861 115.656 64.94 134.096"/>
    <path fill="#48515A" d="M180.846,132.713 L138.846,115.483 L138.861,100.617 L139.039,100.36 C139.447,99.773 139.936,99.197 140.408,98.641 C141.087,97.844 141.788,97.019 142.024,96.392 L148.058,83.737 L154.96,80.226 L156.536,72.291 C156.534,71.643 156.255,70.975 155.784,70.491 C155.36,70.054 154.826,69.813 154.284,69.813 L151.71,69.813 L151.963,68.354 C152.465,65.473 152.861,63.198 152.861,60.733 L152.8,59.377 C152.825,55.56 151.949,51.622 150.264,47.991 C150.11,47.647 149.954,47.318 149.792,46.991 C147.927,43.231 145.196,39.866 141.892,37.261 C136.89,33.318 130.875,31.212 124.496,31.168 C117.065,31.115 110.014,34.055 104.592,39.441 C99.043,44.951 95.861,52.538 95.861,60.254 L95.861,60.733 C95.861,63.085 96.063,65.382 96.559,68.663 L96.732,69.813 L94.356,69.813 C93.156,69.813 92.06,70.984 91.993,72.304 L94.235,80.382 L100.244,83.877 L106.183,96.487 C107.015,98.71 110.74,101.769 113.458,104.003 C114.127,104.553 114.764,105.076 115.33,105.559 C117.032,107.012 118.972,107.813 120.794,107.813 L126.861,107.813 L126.861,109.813 L120.794,109.813 C118.496,109.813 116.095,108.842 114.032,107.08 C113.474,106.605 112.847,106.089 112.189,105.548 C108.974,102.907 105.329,99.913 104.341,97.262 L98.7,85.293 L92.526,81.701 L89.991,72.429 C89.991,69.926 91.99,67.813 94.356,67.813 L94.413,67.813 C94.024,65.016 93.861,62.903 93.861,60.733 L93.861,60.254 C93.861,52.009 97.258,43.905 103.182,38.021 C108.936,32.307 116.431,29.168 124.309,29.168 C124.376,29.168 124.443,29.168 124.51,29.168 C131.337,29.214 137.777,31.47 143.13,35.691 C146.665,38.478 149.588,42.078 151.583,46.102 C151.757,46.45 151.922,46.803 152.083,47.16 C153.867,51.004 154.807,55.186 154.801,59.255 L154.861,59.61 L154.861,60.733 C154.861,63.095 154.516,65.321 154.087,67.813 L154.284,67.813 C155.371,67.813 156.413,68.269 157.219,69.097 C158.09,69.993 158.57,71.206 158.535,72.424 L158.516,72.591 L156.732,81.568 L149.57,85.212 L143.863,97.174 C143.538,98.049 142.758,98.966 141.932,99.937 C141.562,100.373 141.181,100.82 140.861,101.252 L140.848,114.142 L181.606,130.862 L180.846,132.713"/>
    <path fill="#48515A" d="M124.848,133.807 C114.777,133.807 105.966,127.363 102.922,117.772 C102.755,117.246 103.046,116.684 103.573,116.517 C104.103,116.351 104.662,116.641 104.828,117.167 C107.608,125.924 115.653,131.807 124.848,131.807 C133.869,131.807 141.868,126.068 144.75,117.527 C144.926,117.004 145.494,116.72 146.017,116.9 C146.54,117.076 146.822,117.643 146.645,118.167 C143.488,127.522 134.728,133.807 124.848,133.807"/>
    <polygon fill="#48515A" points="34.988 115.847 36.988 115.847 36.988 111.847 34.988 111.847"/>
    <polygon fill="#48515A" points="34.988 125.847 36.988 125.847 36.988 121.847 34.988 121.847"/>
    <polygon fill="#48515A" points="38.988 119.847 42.988 119.847 42.988 117.847 38.988 117.847"/>
    <polygon fill="#48515A" points="28.988 119.847 32.988 119.847 32.988 117.847 28.988 117.847"/>
    <polygon fill="#48515A" points="213.012 160.889 215.012 160.889 215.012 156.889 213.012 156.889"/>
    <polygon fill="#48515A" points="213.012 170.889 215.012 170.889 215.012 166.889 213.012 166.889"/>
    <polygon fill="#48515A" points="217.012 164.889 221.012 164.889 221.012 162.889 217.012 162.889"/>
    <polygon fill="#48515A" points="207.012 164.889 211.012 164.889 211.012 162.889 207.012 162.889"/>
    <polygon fill="#48515A" points="182.995 50.822 184.995 50.822 184.995 46.822 182.995 46.822"/>
    <polygon fill="#48515A" points="182.995 60.822 184.995 60.822 184.995 56.822 182.995 56.822"/>
    <polygon fill="#48515A" points="186.995 54.822 190.995 54.822 190.995 52.822 186.995 52.822"/>
    <polygon fill="#48515A" points="176.995 54.822 180.995 54.822 180.995 52.822 176.995 52.822"/>
    <polygon fill="#48515A" points="41.852 64.8 63.852 64.8 63.852 62.8 41.852 62.8"/>
    <path fill="#48515A" d="M58.747,98.8 L75.852,98.8 C78.268,98.8 80.287,97.079 80.752,94.8 L60.781,94.8 C60.558,96.357 59.82,97.749 58.747,98.8 M75.852,100.8 L53.852,100.8 C49.993,100.8 46.852,97.66 46.852,93.8 L46.852,69.8 L48.852,69.8 L48.852,93.8 C48.852,96.557 51.096,98.8 53.852,98.8 C56.609,98.8 58.852,96.557 58.852,93.8 L58.852,92.8 L82.852,92.8 L82.852,93.8 C82.852,97.66 79.712,100.8 75.852,100.8"/>
    <path fill="#48515A" d="M70.852,93.8 L68.852,93.8 L68.852,69.8 C68.852,67.043 66.609,64.8 63.852,64.8 C61.095,64.8 58.852,67.043 58.852,69.8 L58.852,70.8 L34.852,70.8 L34.852,69.8 C34.852,65.94 37.993,62.8 41.852,62.8 L41.852,64.8 C39.437,64.8 37.417,66.521 36.953,68.8 L56.923,68.8 C57.41,65.412 60.331,62.8 63.852,62.8 C67.711,62.8 70.852,65.94 70.852,69.8 L70.852,93.8"/>
    <path fill="#475059" d="M184.849,97.881 L182.849,97.881 C182.849,95.675 181.055,93.881 178.849,93.881 C176.643,93.881 174.849,95.675 174.849,97.881 L172.849,97.881 C172.849,94.572 175.54,91.881 178.849,91.881 C182.158,91.881 184.849,94.572 184.849,97.881"/>
    <path fill="#475059" d="M194.849,97.881 L192.849,97.881 C192.849,95.675 191.055,93.881 188.849,93.881 C186.643,93.881 184.849,95.675 184.849,97.881 L182.849,97.881 C182.849,94.572 185.54,91.881 188.849,91.881 C192.158,91.881 194.849,94.572 194.849,97.881"/>
    <path fill="#475059" d="M204.849,97.881 L202.849,97.881 C202.849,95.675 201.055,93.881 198.849,93.881 C196.643,93.881 194.849,95.675 194.849,97.881 L192.849,97.881 C192.849,94.572 195.54,91.881 198.849,91.881 C202.158,91.881 204.849,94.572 204.849,97.881"/>
    <path fill="#475059" d="M172.849,96.881 C172.849,88.058 180.027,80.88 188.849,80.88 C197.671,80.88 204.849,88.058 204.849,96.88 L202.849,96.88 C202.849,89.16 196.569,82.88 188.849,82.88 C181.129,82.88 174.849,89.16 174.849,96.88 L172.849,96.881"/>
    <path fill="#475059" d="M185.349,110.881 C182.868,110.881 180.849,108.862 180.849,106.381 L182.849,106.381 C182.849,107.759 183.97,108.881 185.349,108.881 C186.728,108.881 187.849,107.759 187.849,106.381 L187.849,92.881 L189.849,92.881 L189.849,106.381 C189.849,108.862 187.83,110.881 185.349,110.881"/>
    <polygon fill="#475059" points="187.849 81.88 189.849 81.88 189.849 78.882 187.849 78.882"/>
  </g>
</svg>
