<svg xmlns="http://www.w3.org/2000/svg" width="250" height="250" viewBox="0 0 250 250">
  <g fill="none" fill-rule="evenodd">
    <path fill="#DEDEDD" d="M183,137.041 L191,137.041 L191,135.041 L183,135.041 L183,137.041 Z M167,137.041 L175,137.041 L175,135.041 L167,135.041 L167,137.041 Z M151,137.041 L159,137.041 L159,135.041 L151,135.041 L151,137.041 Z M135,137.041 L143,137.041 L143,135.041 L135,135.041 L135,137.041 Z M119,137.041 L127,137.041 L127,135.041 L119,135.041 L119,137.041 Z M103,137.041 L111,137.041 L111,135.041 L103,135.041 L103,137.041 Z M87,137.041 L95,137.041 L95,135.041 L87,135.041 L87,137.041 Z M71,137.041 L79,137.041 L79,135.041 L71,135.041 L71,137.041 Z M67,130.046 L67,166.641 L78.948,154.705 C82.094,151.558 86.42,149.753 90.87,149.753 L140.54,149.554 C140.54,158.22 133.515,164.753 124.85,164.753 C127.677,164.753 130.148,164.753 131.618,164.753 L153.081,164.753 L180.067,151.745 C185.074,148.826 190.306,148.841 194.953,150.928 L194.954,130.049 L67,130.046 Z"/>
    <path fill="#FFD15D" d="M82.436 100.119L72.622 105.026C70.388 106.143 69.001 108.388 69.001 110.886L69.001 112.685 70.082 118.089C71.028 119.284 72.459 119.983 74.001 119.983L77.034 119.983C77.528 112.509 83.527 106.528 91.001 106.031L91.001 100.119 82.436 100.119M200.99 111.585C200.989 110.683 200.823 109.81 200.54 108.983L197.996 108.983C193.873 108.983 190.336 106.487 188.806 102.925 180.526 101.949 168.871 100.577 164.976 100.119L150.996 100.119 150.996 106.983C150.996 113.048 146.061 117.983 139.996 117.983L106.682 117.983C106.816 118.637 106.922 119.301 106.967 119.983L163.029 119.983C163.546 112.177 170.061 105.983 177.996 105.983 185.93 105.983 192.446 112.177 192.963 119.983L199.996 119.983C200.547 119.983 200.996 119.534 200.996 118.983L200.99 111.585M146.433 96.983L126.002 96.983C124.897 96.983 124.002 96.087 124.002 94.983L124.002 72.983C124.002 71.878 124.897 70.983 126.002 70.983L133.436 70.983C134.997 70.983 136.414 71.89 137.068 73.307L147.341 95.564C147.647 96.226 147.163 96.983 146.433 96.983zM120.002 94.983C120.002 96.087 119.106 96.983 118.002 96.983L94.673 96.983C93.89 96.983 93.411 96.125 93.821 95.459L106.317 72.041C106.665 71.39 107.343 70.983 108.082 70.983L118.002 70.983C119.106 70.983 120.002 71.878 120.002 72.983L120.002 94.983zM160.39 96.983L153.275 96.983C152.495 96.983 151.786 96.529 151.46 95.821L140.651 72.402C140.345 71.739 140.829 70.983 141.559 70.983L142.992 70.983C142.428 70.36 141.64 69.983 140.785 69.983L103.398 69.983C102.35 69.983 101.364 70.541 100.826 71.439L87.429 97.545 86.857 97.844 160.965 97.844 160.39 96.983z"/>
    <path fill="#475059" d="M163.996 97.983L153.275 97.983C152.108 97.983 151.039 97.298 150.552 96.239L139.742 72.821C139.455 72.198 139.505 71.482 139.874 70.905 140.243 70.328 140.873 69.983 141.559 69.983L146.996 69.983 146.996 71.983 141.559 71.983 152.368 95.402C152.53 95.755 152.887 95.983 153.275 95.983L163.996 95.983 163.996 97.983M126.002 71.983C125.45 71.983 125.002 72.432 125.002 72.983L125.002 94.983C125.002 95.534 125.45 95.983 126.002 95.983L146.433 95.983 136.16 73.726C135.672 72.667 134.603 71.983 133.437 71.983L126.002 71.983zM146.433 97.983L126.002 97.983C124.348 97.983 123.002 96.637 123.002 94.983L123.002 72.983C123.002 71.329 124.348 69.983 126.002 69.983L133.437 69.983C135.379 69.983 137.161 71.123 137.977 72.887L148.249 95.145C148.536 95.768 148.487 96.484 148.117 97.061 147.748 97.638 147.118 97.983 146.433 97.983zM108.081 71.983C107.712 71.983 107.374 72.186 107.199 72.512L94.703 95.929 118.002 95.983C118.554 95.983 119.002 95.534 119.002 94.983L119.002 72.983C119.002 72.432 118.554 71.983 118.002 71.983L108.081 71.983zM118.002 97.983L94.673 97.983C93.949 97.983 93.28 97.59 92.927 96.958 92.574 96.327 92.59 95.551 92.97 94.935L105.436 71.57C105.958 70.591 106.972 69.983 108.081 69.983L118.002 69.983C119.656 69.983 121.002 71.329 121.002 72.983L121.002 94.983C121.002 96.637 119.656 97.983 118.002 97.983zM203.996 109.983L197.996 109.983C191.931 109.983 186.996 105.048 186.996 98.983L188.996 98.983C188.996 103.945 193.033 107.983 197.996 107.983L203.996 107.983 203.996 109.983M87.325 97.983L81.626 97.983 81.626 95.983 87.325 95.983 100.211 71.983 97.001 71.983 97.001 69.983 100.21 69.983C100.92 69.983 101.563 70.347 101.927 70.956 102.291 71.565 102.309 72.303 101.973 72.929L89.058 96.98C88.66 97.627 88.023 97.983 87.325 97.983M199.996 123.983L189.996 123.983 189.996 121.983 199.996 121.983C201.65 121.983 202.996 120.637 202.996 118.983L204.996 118.983C204.996 121.74 202.753 123.983 199.996 123.983"/>
    <polygon fill="#475059" points="104.001 123.983 165.996 123.983 165.996 121.983 104.001 121.983"/>
    <path fill="#475059" d="M80.001 123.983L74.001 123.983C70.922 123.983 68.089 122.435 66.423 119.841L68.106 118.76C69.402 120.778 71.606 121.983 74.001 121.983L80.001 121.983 80.001 123.983M202.996 112.987L202.99 111.576C202.985 107.58 200.603 103.939 196.918 102.298 196.034 101.904 195.046 101.647 193.896 101.511 184.912 100.451 163.879 97.976 163.879 97.976L163.42 97.922 144.945 70.21C144.016 68.815 142.46 67.983 140.785 67.983L103.397 67.983C101.651 67.983 100.009 68.913 99.11 70.41L82.709 97.747 71.727 103.238C68.812 104.695 67.001 107.626 67.001 110.886L67.001 112.983 65.001 112.983 65.001 110.886C65.001 106.864 67.235 103.248 70.833 101.449L81.293 96.219 97.396 69.381C98.652 67.285 100.952 65.983 103.397 65.983L140.785 65.983C143.131 65.983 145.308 67.148 146.609 69.1L164.572 96.044C167.693 96.411 185.931 98.557 194.131 99.525 195.483 99.685 196.661 99.994 197.731 100.471 202.136 102.433 204.984 106.79 204.99 111.571L204.996 112.979 202.996 112.987"/>
    <path fill="#475059" d="M177.996 109.983C171.931 109.983 166.996 114.917 166.996 120.983 166.996 127.048 171.931 131.983 177.996 131.983 184.062 131.983 188.996 127.048 188.996 120.983 188.996 114.917 184.062 109.983 177.996 109.983zM177.996 133.983C170.828 133.983 164.996 128.151 164.996 120.983 164.996 113.814 170.828 107.983 177.996 107.983 185.164 107.983 190.996 113.814 190.996 120.983 190.996 128.151 185.164 133.983 177.996 133.983zM92.001 109.983C85.936 109.983 81.001 114.917 81.001 120.983 81.001 127.048 85.936 131.983 92.001 131.983 98.066 131.983 103.001 127.048 103.001 120.983 103.001 114.917 98.066 109.983 92.001 109.983zM92.001 133.983C84.833 133.983 79.001 128.151 79.001 120.983 79.001 113.814 84.833 107.983 92.001 107.983 99.169 107.983 105.001 113.814 105.001 120.983 105.001 128.151 99.169 133.983 92.001 133.983zM196.996 117.983L206.996 117.983 206.996 113.983 196.996 113.983 196.996 117.983zM194.996 119.983L208.996 119.983 208.996 111.983 194.996 111.983 194.996 119.983zM64 117.983L74 117.983 74 113.983 64 113.983 64 117.983zM62 119.983L76 119.983 76 111.983 62 111.983 62 119.983z"/>
    <path fill="#DEDEDD" d="M170.996 120.983C170.996 117.117 174.13 113.983 177.996 113.983 181.862 113.983 184.996 117.117 184.996 120.983 184.996 124.849 181.862 127.983 177.996 127.983 174.13 127.983 170.996 124.849 170.996 120.983M85.001 120.983C85.001 117.117 88.135 113.983 92.001 113.983 95.867 113.983 99.001 117.117 99.001 120.983 99.001 124.849 95.867 127.983 92.001 127.983 88.135 127.983 85.001 124.849 85.001 120.983"/>
    <path fill="#475059" d="M126.002 71.983C125.45 71.983 125.002 72.432 125.002 72.983L125.002 94.983C125.002 95.534 125.45 95.983 126.002 95.983L146.433 95.983 136.16 73.726C135.672 72.667 134.603 71.983 133.437 71.983L126.002 71.983zM146.433 97.983L126.002 97.983C124.348 97.983 123.002 96.637 123.002 94.983L123.002 72.983C123.002 71.329 124.348 69.983 126.002 69.983L133.437 69.983C135.379 69.983 137.161 71.123 137.977 72.887L148.249 95.145C148.536 95.768 148.487 96.484 148.117 97.061 147.748 97.638 147.118 97.983 146.433 97.983zM108.081 71.983C107.712 71.983 107.374 72.186 107.199 72.512L94.703 95.929 118.002 95.983C118.554 95.983 119.002 95.534 119.002 94.983L119.002 72.983C119.002 72.432 118.554 71.983 118.002 71.983L108.081 71.983zM118.002 97.983L94.673 97.983C93.949 97.983 93.28 97.59 92.927 96.958 92.574 96.327 92.59 95.551 92.97 94.935L105.436 71.57C105.958 70.591 106.972 69.983 108.081 69.983L118.002 69.983C119.656 69.983 121.002 71.329 121.002 72.983L121.002 94.983C121.002 96.637 119.656 97.983 118.002 97.983z"/>
    <path fill="#475059" d="M202.996,112.987 L202.99,111.576 C202.985,107.58 200.603,103.939 196.918,102.298 C196.034,101.904 195.046,101.647 193.896,101.511 C184.912,100.451 163.879,97.976 163.879,97.976 L163.42,97.922 L144.945,70.21 C144.016,68.815 142.46,67.983 140.785,67.983 L103.397,67.983 C101.651,67.983 100.009,68.913 99.11,70.41 L82.709,97.747 L71.727,103.238 C68.812,104.695 67.001,107.626 67.001,110.886 L67.001,112.983 L65.001,112.983 L65.001,110.886 C65.001,106.864 67.235,103.248 70.833,101.449 L81.293,96.219 L97.396,69.381 C98.652,67.285 100.952,65.983 103.397,65.983 L140.785,65.983 C143.131,65.983 145.308,67.148 146.609,69.1 L164.572,96.044 C167.693,96.411 185.931,98.557 194.131,99.525 C195.483,99.685 196.661,99.994 197.731,100.471 C202.136,102.433 204.984,106.79 204.99,111.571 L204.996,112.979 L202.996,112.987"/>
    <path fill="#475059" d="M199.996 123.983L188.996 123.983 188.996 120.983C188.996 114.917 184.062 109.983 177.996 109.983 171.931 109.983 166.996 114.917 166.996 120.983L166.996 123.983 103.001 123.983 103.001 120.983C103.001 114.917 98.066 109.983 92.001 109.983 85.936 109.983 81.001 114.917 81.001 120.983L81.001 123.983 74.001 123.983C70.922 123.983 68.089 122.435 66.423 119.841L68.106 118.76C69.402 120.778 71.606 121.983 74.001 121.983L79.001 121.983 79.001 120.983C79.001 113.814 84.833 107.983 92.001 107.983 99.169 107.983 105.001 113.814 105.001 120.983L105.001 121.983 164.996 121.983 164.996 120.983C164.996 113.814 170.828 107.983 177.996 107.983 185.164 107.983 190.996 113.814 190.996 120.983L190.996 121.983 199.996 121.983C201.65 121.983 202.996 120.637 202.996 118.983L204.996 118.983C204.996 121.74 202.753 123.983 199.996 123.983M203.996 109.983L197.996 109.983C191.931 109.983 186.996 105.048 186.996 98.983L188.996 98.983C188.996 103.945 193.033 107.983 197.996 107.983L203.996 107.983 203.996 109.983M163.996 97.983L153.275 97.983C152.108 97.983 151.039 97.298 150.552 96.239L139.742 72.821C139.455 72.198 139.505 71.482 139.874 70.905 140.243 70.328 140.873 69.983 141.559 69.983L146.996 69.983 146.996 71.983 141.559 71.983 152.368 95.402C152.53 95.755 152.887 95.983 153.275 95.983L163.996 95.983 163.996 97.983M87.325 97.983L81.626 97.983 81.626 95.983 87.325 95.983 100.211 71.983 97.001 71.983 97.001 69.983 100.21 69.983C100.92 69.983 101.563 70.347 101.927 70.956 102.291 71.565 102.309 72.303 101.973 72.929L89.058 96.98C88.66 97.627 88.023 97.983 87.325 97.983"/>
    <polyline fill="#DEDEDD" points="108.681 73.983 103.345 83.983 117.002 83.983 117.002 73.983 108.681 73.983"/>
    <path fill="#DEDEDD" d="M138.66,83.913 L134.344,74.564 C134.182,74.211 133.825,73.983 133.437,73.983 L127.002,73.983 L127.002,83.913 L138.66,83.913"/>
    <path fill="#FFD15D" d="M121.002 100.119L93.001 100.119 93.001 106.031C99.08 106.435 104.177 110.466 106.135 115.983L121.002 115.983 121.002 100.119M139.996 115.983C144.958 115.983 148.996 111.945 148.996 106.983L148.996 100.119 123.002 100.119 123.002 115.983 139.996 115.983"/>
    <path fill="#DEDEDD" d="M185.162 67.042C185.162 68.146 184.267 69.042 183.162 69.042 182.057 69.042 181.162 68.146 181.162 67.042 181.162 65.937 182.057 65.042 183.162 65.042 184.267 65.042 185.162 65.937 185.162 67.042M155.162 49.042C155.162 50.146 154.267 51.042 153.162 51.042 152.057 51.042 151.162 50.146 151.162 49.042 151.162 47.937 152.057 47.042 153.162 47.042 154.267 47.042 155.162 47.937 155.162 49.042M136.14 56.025C136.14 57.13 135.244 58.025 134.14 58.025 133.035 58.025 132.14 57.13 132.14 56.025 132.14 54.921 133.035 54.025 134.14 54.025 135.244 54.025 136.14 54.921 136.14 56.025"/>
    <polygon fill="#475059" points="164.2 87.107 166.2 87.107 166.2 75.109 164.2 75.109"/>
    <polygon fill="#475059" points="165.2 82.108 169.2 82.108 169.2 80.108 165.2 80.108"/>
    <path fill="#475059" d="M176.818,91.106 L193.197,91.106 L193.197,83.107 L199.197,83.107 L199.197,89.106 L199.782,89.106 L201.195,87.693 L201.195,76.521 L199.782,75.109 L199.197,75.109 L199.197,81.107 L193.197,81.107 L193.197,75.109 L189.197,75.109 L189.197,71.109 L175.2,71.109 L175.2,75.109 L170.2,75.109 L170.2,87.106 L174.818,87.106 L176.818,91.106 Z M195.197,93.106 L175.582,93.106 L173.582,89.106 L168.2,89.106 L168.2,73.109 L173.2,73.109 L173.2,69.109 L191.197,69.109 L191.197,73.109 L195.197,73.109 L195.197,79.107 L197.197,79.107 L197.197,73.109 L200.61,73.109 L203.195,75.693 L203.195,88.521 L200.61,91.106 L197.197,91.106 L197.197,85.107 L195.197,85.107 L195.197,93.106 Z"/>
    <polyline fill="#475059" points="190.209 67.101 174.209 67.1 174.209 65.1 190.209 65.101 190.209 67.101"/>
    <polygon fill="#475059" points="181.209 70.1 183.209 70.1 183.209 66.1 181.209 66.1"/>
    <path fill="#DEDEDD" d="M55,199.762 L55,199.764 C55,200.955 54.202,201.753 53.011,201.753 L53.01,201.753 L46,201.916 L46,187.742 L53.059,187.749 C53.63,187.75 54.177,187.977 54.587,188.388 C54.998,188.8 55.14,189.341 55.139,189.91 L55,199.762"/>
    <path fill="#475059" d="M79.059,198.753 L58,198.753 L58,196.753 L78.867,196.753 L155.994,181.806 L199.525,155.109 C193.766,149.949 186.761,149.001 180.57,152.609 L153.309,165.753 L106.534,165.753 L106.534,163.753 L124.85,163.753 C132.738,163.753 138.989,158.035 139.506,150.558 L90.874,150.753 C86.704,150.753 82.616,152.451 79.654,155.412 L58.821,176.226 L57.407,174.811 L78.24,153.997 C81.574,150.665 86.178,148.753 90.87,148.753 L141.54,148.55 L141.54,149.554 C141.54,155.744 138.136,161.02 133.006,163.753 L152.852,163.753 L179.632,150.844 C186.928,146.589 195.263,147.97 201.866,154.573 L202.763,155.469 L156.73,183.701 L156.553,183.735 L79.059,198.753"/>
    <path fill="#475059" d="M138.686 158.41C138.323 158.411 137.975 158.213 137.797 157.87 137.543 157.38 137.734 156.776 138.225 156.522L169.527 140.305C171.66 139.309 173.881 138.625 176.163 138.252 180.229 137.589 184.33 138.504 187.418 140.759 188.793 141.763 189.961 142.977 190.889 144.368 191.192 144.824 191.073 145.439 190.62 145.749L180.63 152.571C180.177 152.884 179.553 152.765 179.24 152.309 178.929 151.853 179.046 151.231 179.503 150.919L188.643 144.678C187.956 143.813 187.15 143.041 186.238 142.375 183.579 140.433 180.024 139.65 176.485 140.226 174.384 140.569 172.34 141.199 170.41 142.099L139.145 158.298C138.998 158.374 138.84 158.41 138.686 158.41M44 203.95L52.997 203.959C52.998 203.959 53 203.959 53.002 203.959 55.3 203.959 57.171 202.095 57.173 199.802L57.173 199.801 57.229 168.823C57.229 167.72 56.795 166.676 56.004 165.886 55.213 165.096 54.168 164.66 53.061 164.659L44 164.649 44 203.95zM53.002 205.959C52.999 205.959 52.997 205.959 52.995 205.959L42 205.948 42 162.647 53.063 162.659C54.703 162.66 56.249 163.304 57.418 164.471 58.587 165.64 59.23 167.187 59.229 168.826L59.173 199.805C59.169 203.2 56.401 205.959 53.002 205.959z"/>
    <path fill="#DEDEDD" d="M106.534 160.753L129.977 160.753C133.565 159.753 136.247 156.753 137.18 152.753L132.388 152.753C130.293 154.753 127.698 154.753 124.85 154.753L112.534 154.753C109.221 154.753 106.534 157.439 106.534 160.753M188.388 152.683L155.259 172.961 78.675 187.753 61.195 187.753 61.182 194.753 78.675 194.753 155.259 179.973 196 155.033C193.581 153.462 190.987 152.683 188.388 152.683"/>
    <path fill="#5FE0ED" d="M112.534,154.753 L124.85,154.753 C127.698,154.753 130.293,154.753 132.388,152.753 L137.18,152.753 C136.247,156.753 133.565,159.753 129.977,160.753 L106.534,160.753 C106.534,157.439 109.221,154.753 112.534,154.753"/>
    <path fill="#DEDEDD" d="M137.18 152.753L132.388 152.753C130.293 154.753 127.698 154.753 124.85 154.753L112.534 154.753C109.221 154.753 106.534 157.439 106.534 160.753L129.977 160.753C133.565 159.753 136.247 156.753 137.18 152.753M194.952 154.413L194.952 155.674 196 155.033C195.655 154.809 195.305 154.605 194.952 154.413"/>
    <polygon fill="#48515A" points="213 174.041 215 174.041 215 170.041 213 170.041"/>
    <polygon fill="#48515A" points="213 184.041 215 184.041 215 180.041 213 180.041"/>
    <polygon fill="#48515A" points="217 178.041 221 178.041 221 176.041 217 176.041"/>
    <polygon fill="#48515A" points="207 178.041 211 178.041 211 176.041 207 176.041"/>
    <polygon fill="#48515A" points="203.162 48.041 205.162 48.041 205.162 44.041 203.162 44.041"/>
    <polygon fill="#48515A" points="203.162 58.041 205.162 58.041 205.162 54.041 203.162 54.041"/>
    <polygon fill="#48515A" points="207.162 52.041 211.162 52.041 211.162 50.041 207.162 50.041"/>
    <polygon fill="#48515A" points="197.162 52.041 201.162 52.041 201.162 50.041 197.162 50.041"/>
    <polygon fill="#48515A" points="35 126.041 37 126.041 37 122.041 35 122.041"/>
    <polygon fill="#48515A" points="35 136.041 37 136.041 37 132.041 35 132.041"/>
    <polygon fill="#48515A" points="39 130.041 43 130.041 43 128.041 39 128.041"/>
    <polygon fill="#48515A" points="29 130.041 33 130.041 33 128.041 29 128.041"/>
  </g>
</svg>
