<svg xmlns="http://www.w3.org/2000/svg" width="250" height="250" viewBox="0 0 250 250">
  <g fill="none" fill-rule="evenodd">
    <path fill="#DEDEDD" d="M67,137.06 L67,173.654 L78.948,161.718 C82.094,158.571 86.42,156.766 90.87,156.766 L140.54,156.568 C140.54,165.233 133.515,171.766 124.85,171.766 C127.677,171.766 130.148,171.766 131.618,171.766 L153.081,171.766 L180.067,158.758 C185.074,155.839 190.306,155.854 194.953,157.942 L194.954,137.062 L67,137.06"/>
    <path fill="#FFF" d="M71,144.054 L79,144.054 L79,142.054 L71,142.054 L71,144.054 Z M87,144.054 L95,144.054 L95,142.054 L87,142.054 L87,144.054 Z M103,144.054 L111,144.054 L111,142.054 L103,142.054 L103,144.054 Z M119,144.054 L127,144.054 L127,142.054 L119,142.054 L119,144.054 Z M135,144.054 L143,144.054 L143,142.054 L135,142.054 L135,144.054 Z M151,144.054 L159,144.054 L159,142.054 L151,142.054 L151,144.054 Z M167,144.054 L175,144.054 L175,142.054 L167,142.054 L167,144.054 Z M183,144.054 L191,144.054 L191,142.054 L183,142.054 L183,144.054 Z"/>
    <path fill="#DEDEDD" d="M55,206.775 L55,206.777 C55,207.969 54.202,208.766 53.011,208.766 L53.01,208.766 L46,208.93 L46,194.755 L53.059,194.763 C53.63,194.763 54.177,194.99 54.587,195.402 C54.998,195.813 55.14,196.355 55.139,196.924 L55,206.775"/>
    <path fill="#475059" d="M79.059,205.766 L58,205.766 L58,203.766 L78.867,203.766 L155.994,188.82 L199.525,162.122 C193.768,156.962 186.762,156.013 180.57,159.622 L153.309,172.766 L106.534,172.766 L106.534,170.766 L124.85,170.766 C132.738,170.766 138.989,165.048 139.505,157.572 L90.873,157.766 C86.703,157.766 82.616,159.465 79.655,162.425 L58.821,183.239 L57.408,181.824 L78.241,161.01 C81.574,157.678 86.177,155.766 90.87,155.766 L141.54,155.564 L141.54,156.568 C141.54,162.757 138.135,168.033 133.005,170.766 L152.852,170.766 L179.632,157.858 C186.924,153.603 195.263,154.982 201.866,161.586 L202.762,162.483 L156.73,190.714 L156.553,190.749 L79.059,205.766"/>
    <path fill="#475059" d="M138.685 165.424C138.323 165.424 137.974 165.227 137.796 164.884 137.542 164.393 137.734 163.79 138.224 163.536L169.527 147.319C171.66 146.323 173.88 145.638 176.163 145.266 180.229 144.6 184.33 145.517 187.418 147.773 188.793 148.777 189.961 149.991 190.889 151.381 191.193 151.837 191.074 152.453 190.621 152.762L180.63 159.584C180.175 159.897 179.552 159.779 179.241 159.323 178.929 158.866 179.046 158.244 179.502 157.933L188.643 151.691C187.957 150.826 187.151 150.054 186.238 149.388 183.58 147.446 180.023 146.664 176.484 147.24 174.383 147.582 172.339 148.213 170.41 149.113L139.144 165.311C138.997 165.387 138.84 165.424 138.685 165.424M44 210.963L52.997 210.972C52.998 210.972 52.999 210.972 53.001 210.972 55.299 210.972 57.17 209.109 57.173 206.816L57.173 206.815 57.229 175.837C57.23 173.543 55.361 171.675 53.061 171.672L44 171.663 44 210.963zM53.001 212.972C52.999 212.972 52.997 212.972 52.995 212.972L42 212.961 42 169.661 53.063 169.672C56.465 169.676 59.231 172.442 59.229 175.84L59.173 206.819C59.169 210.213 56.401 212.972 53.001 212.972z"/>
    <path fill="#DEDEDD" d="M106.534 167.766L129.977 167.766C133.565 166.766 136.247 163.766 137.18 159.766L132.388 159.766C130.293 161.766 127.698 161.766 124.85 161.766L112.534 161.766C109.221 161.766 106.534 164.453 106.534 167.766M188.388 159.697L155.259 179.975 78.675 194.766 61.195 194.766 61.182 201.766 78.675 201.766 155.259 186.987 196 162.046C193.581 160.475 190.987 159.696 188.388 159.697"/>
    <path fill="#5FE0ED" d="M112.534,161.766 L124.85,161.766 C127.698,161.766 130.293,161.766 132.388,159.766 L137.18,159.766 C136.247,163.766 133.565,166.766 129.977,167.766 L106.534,167.766 C106.534,164.453 109.221,161.766 112.534,161.766"/>
    <path fill="#DEDEDD" d="M137.18 159.766L132.388 159.766C130.293 161.766 127.698 161.766 124.85 161.766L112.534 161.766C109.221 161.766 106.534 164.453 106.534 167.766L129.977 167.766C133.565 166.766 136.247 163.766 137.18 159.766M194.952 161.426L194.952 162.688 196 162.046C195.655 161.822 195.305 161.618 194.952 161.426"/>
    <path fill="#F58E70" d="M164.095,98.023 C164.095,99.127 163.2,100.023 162.095,100.023 L158.099,100.023 C156.994,100.023 156.099,99.127 156.099,98.023 L156.099,79.029 C156.099,77.925 156.994,77.029 158.099,77.029 L162.095,77.029 C163.2,77.029 164.095,77.925 164.095,79.029 L164.095,98.023 Z M197.898,109.73 C197.898,109.177 197.449,108.729 196.897,108.73 L191.584,108.737 L171.755,108.737 L171.755,75.655 C171.755,74.361 172.804,73.311 174.099,73.311 L177.889,73.311 L177.586,68.03 C177.361,64.719 174.57,62.108 171.234,62.105 L155.107,62.047 L155.107,118.025 L160.095,118.025 L160.095,128.09 L166.635,128.091 C168.05,120.749 174.558,115.185 182.349,115.185 C188.21,115.185 193.333,118.341 196.12,123.026 L197.898,123.026 L197.898,109.73 Z"/>
    <polyline fill="#475059" points="192.194 123.801 192.194 121.801 200.898 121.8 200.898 123.8 192.194 123.801"/>
    <path fill="#475059" d="M179.923 106.722L171.756 106.679 171.756 75.374C171.756 73.531 173.256 72.031 175.1 72.031L180.872 72.031 180.872 74.031 175.1 74.031C174.359 74.031 173.756 74.633 173.756 75.374L173.756 104.69 179.934 104.722 179.923 106.722M182.349 123.156C177.938 123.156 174.35 126.716 174.35 131.091 174.35 135.466 177.938 139.025 182.35 139.025 186.761 139.025 190.35 135.466 190.35 131.091 190.35 126.716 186.761 123.156 182.349 123.156zM182.35 141.025C176.835 141.025 172.35 136.569 172.35 131.091 172.35 125.613 176.835 121.156 182.349 121.156 187.863 121.156 192.35 125.613 192.35 131.091 192.35 136.569 187.864 141.025 182.35 141.025z"/>
    <path fill="#475059" d="M151.19,118.027 L151.106,58.053 L171.239,58.105 C176.562,58.111 181.2,62.633 181.578,68.187 L185.216,105.934 L183.225,106.126 L179.585,68.351 C179.275,63.796 175.53,60.11 171.236,60.105 L153.109,60.058 L153.19,118.024 L151.19,118.027"/>
    <path fill="#475059" d="M194.35,132.091 L194.35,131.091 C194.35,124.526 188.966,119.185 182.349,119.185 C175.732,119.185 170.35,124.526 170.35,131.091 L170.35,132.091 L160.096,132.091 L160.096,130.091 L168.385,130.091 C168.903,122.888 174.968,117.185 182.349,117.185 C189.73,117.185 195.796,122.887 196.314,130.091 L199.898,130.09 L199.898,107.722 C199.898,107.171 199.449,106.722 198.898,106.722 L176.762,106.722 L176.762,104.722 L198.898,104.722 C200.552,104.722 201.898,106.068 201.898,107.722 L201.898,132.09 L194.35,132.091"/>
    <path fill="#DEDEDD" d="M177.349,131.091 C177.349,133.832 179.588,136.054 182.349,136.054 C185.111,136.054 187.349,133.832 187.349,131.09 C187.349,128.349 185.111,126.127 182.349,126.127 C179.588,126.127 177.349,128.349 177.349,131.091"/>
    <path fill="#475059" d="M176.48 69.784C176.41 69.784 176.35 69.784 176.28 69.764 176.22 69.754 176.15 69.734 176.09 69.714 176.03 69.684 175.98 69.654 175.92 69.615 175.87 69.584 175.82 69.544 175.77 69.494 175.68 69.404 175.6 69.294 175.55 69.164 175.5 69.044 175.48 68.914 175.48 68.784 175.48 68.724 175.48 68.654 175.5 68.594 175.51 68.524 175.53 68.464 175.55 68.404 175.58 68.344 175.61 68.284 175.65 68.234 175.68 68.174 175.72 68.124 175.77 68.084 175.82 68.034 175.87 67.994 175.92 67.954 175.98 67.914 176.03 67.884 176.09 67.865 176.15 67.834 176.22 67.814 176.28 67.804 176.41 67.784 176.54 67.784 176.67 67.804 176.74 67.814 176.8 67.834 176.86 67.865 176.92 67.884 176.98 67.914 177.03 67.954 177.09 67.994 177.14 68.034 177.18 68.084 177.23 68.124 177.27 68.174 177.31 68.234 177.34 68.284 177.38 68.344 177.4 68.404 177.43 68.464 177.44 68.524 177.46 68.594 177.47 68.654 177.48 68.724 177.48 68.784 177.48 68.914 177.45 69.044 177.4 69.164 177.35 69.294 177.28 69.404 177.18 69.494 177.14 69.544 177.09 69.584 177.03 69.615 176.98 69.654 176.92 69.684 176.86 69.714 176.8 69.734 176.74 69.754 176.67 69.764 176.61 69.784 176.54 69.784 176.48 69.784M159.17 68.784C159.17 68.234 159.62 67.784 160.18 67.784 160.73 67.784 161.17 68.234 161.17 68.784 161.17 69.334 160.73 69.784 160.18 69.784 159.62 69.784 159.17 69.334 159.17 68.784zM163.25 68.784C163.25 68.234 163.7 67.784 164.25 67.784 164.8 67.784 165.25 68.234 165.25 68.784 165.25 69.334 164.8 69.784 164.25 69.784 163.7 69.784 163.25 69.334 163.25 68.784zM167.32 68.784C167.32 68.234 167.77 67.784 168.33 67.784 168.88 67.784 169.33 68.234 169.33 68.784 169.33 69.334 168.88 69.784 168.33 69.784 167.77 69.784 167.32 69.334 167.32 68.784zM171.4 68.784C171.4 68.234 171.85 67.784 172.4 67.784 172.95 67.784 173.4 68.234 173.4 68.784 173.4 69.334 172.95 69.784 172.4 69.784 171.85 69.784 171.4 69.334 171.4 68.784zM156.1 69.784C155.84 69.784 155.58 69.684 155.39 69.494 155.3 69.404 155.23 69.294 155.18 69.164 155.13 69.044 155.1 68.914 155.1 68.784 155.1 68.724 155.11 68.654 155.12 68.594 155.13 68.524 155.15 68.464 155.18 68.404 155.2 68.344 155.23 68.284 155.27 68.234 155.3 68.174 155.35 68.124 155.39 68.084 155.48 67.984 155.59 67.914 155.72 67.865 156.08 67.714 156.53 67.804 156.81 68.084 156.85 68.124 156.89 68.174 156.93 68.234 156.97 68.284 157 68.344 157.02 68.404 157.05 68.464 157.07 68.524 157.08 68.594 157.09 68.654 157.1 68.724 157.1 68.784 157.1 68.914 157.07 69.044 157.02 69.164 156.97 69.294 156.9 69.404 156.81 69.494 156.62 69.684 156.36 69.784 156.1 69.784M166.095 119.025L152.266 119.025 152.266 117.025 166.095 117.025C166.646 117.025 167.095 116.576 167.095 116.025L167.095 75.031C167.095 74.479 166.646 74.031 166.095 74.031L152.016 74.031 152.016 72.031 166.095 72.031C167.75 72.031 169.095 73.376 169.095 75.031L169.095 116.025C169.095 117.679 167.75 119.025 166.095 119.025"/>
    <path fill="#475059" d="M158.099 78.029C157.548 78.029 157.099 78.478 157.099 79.029L157.099 98.023C157.099 98.574 157.548 99.023 158.099 99.023L162.095 99.023C162.646 99.023 163.095 98.574 163.095 98.023L163.095 79.029C163.095 78.478 162.646 78.029 162.095 78.029L158.099 78.029zM162.095 101.023L158.099 101.023C156.445 101.023 155.099 99.677 155.099 98.023L155.099 79.029C155.099 77.375 156.445 76.029 158.099 76.029L162.095 76.029C163.75 76.029 165.095 77.375 165.095 79.029L165.095 98.023C165.095 99.677 163.75 101.023 162.095 101.023zM147.099 117.025L151.099 117.025 151.099 53.033 147.099 53.033 147.099 117.025zM145.099 119.025L153.099 119.025 153.099 51.033 145.099 51.033 145.099 119.025z"/>
    <polygon fill="#475059" points="148.1 52.036 150.1 52.036 150.1 38.042 148.1 38.042"/>
    <path fill="#475059" d="M137.003 133.025L159.095 133.025 159.095 119.025 137.003 119.025 137.003 133.025zM135.003 135.025L161.095 135.025 161.095 117.025 135.003 117.025 135.003 135.025zM122.007 133.025L129.003 133.025 129.003 119.025 122.007 119.025 122.007 133.025zM120.007 135.025L131.003 135.025 131.003 117.025 120.007 117.025 120.007 135.025z"/>
    <path fill="#48515A" d="M57.013,117.025 L140.992,117.025 L140.992,39.028 L57.013,39.028 L57.013,117.025 Z M55.013,119.025 L142.992,119.025 L142.992,37.028 L55.013,37.028 L55.013,119.025 Z"/>
    <path fill="#475059" d="M106.007,123.156 C101.596,123.156 98.007,126.716 98.007,131.091 C98.007,135.466 101.596,139.025 106.007,139.025 C110.418,139.025 114.007,135.466 114.007,131.091 C114.007,126.716 110.418,123.156 106.007,123.156 Z M106.007,141.025 C100.493,141.025 96.007,136.569 96.007,131.091 C96.007,125.613 100.493,121.156 106.007,121.156 C111.521,121.156 116.007,125.613 116.007,131.091 C116.007,136.569 111.521,141.025 106.007,141.025 Z"/>
    <path fill="#DEDEDD" d="M101.007,131.091 C101.007,133.832 103.246,136.054 106.007,136.054 C108.769,136.054 111.007,133.832 111.007,131.09 C111.007,128.349 108.769,126.127 106.007,126.127 C103.246,126.127 101.007,128.349 101.007,131.091"/>
    <path fill="#475059" d="M84.007,123.156 C79.596,123.156 76.007,126.716 76.007,131.091 C76.007,135.466 79.596,139.025 84.007,139.025 C88.419,139.025 92.007,135.466 92.007,131.091 C92.007,126.716 88.419,123.156 84.007,123.156 Z M84.007,141.025 C78.493,141.025 74.007,136.569 74.007,131.091 C74.007,125.613 78.493,121.156 84.007,121.156 C89.521,121.156 94.007,125.613 94.007,131.091 C94.007,136.569 89.521,141.025 84.007,141.025 Z"/>
    <path fill="#DEDEDD" d="M79.007,131.091 C79.007,133.832 81.246,136.054 84.007,136.054 C86.769,136.054 89.007,133.832 89.007,131.09 C89.007,128.349 86.769,126.127 84.007,126.127 C81.246,126.127 79.007,128.349 79.007,131.091"/>
    <path fill="#475059" d="M66.013,123.025 L70.007,123.025 L70.007,119.025 L66.013,119.025 L66.013,123.025 Z M64.013,125.025 L72.007,125.025 L72.007,117.025 L64.013,117.025 L64.013,125.025 Z"/>
    <polygon fill="#DEDEDD" points="59.013 115.025 138.992 115.025 138.992 41.027 59.013 41.027"/>
    <polygon fill="#DEDEDD" points="124.007 131.025 127.003 131.025 127.003 121.025 124.007 121.025"/>
    <polygon fill="#DEDEDD" points="139.003 131.025 157.096 131.025 157.096 121.025 139.003 121.025"/>
    <path fill="#48515A" d="M61.763,112.025 L63.763,112.025 L63.763,110.025 L61.763,110.025 L61.763,112.025 Z M65.763,112.025 L67.763,112.025 L67.763,110.025 L65.763,110.025 L65.763,112.025 Z M69.763,112.025 L71.763,112.025 L71.763,110.025 L69.763,110.025 L69.763,112.025 Z M73.763,112.025 L75.763,112.025 L75.763,110.025 L73.763,110.025 L73.763,112.025 Z M77.763,112.025 L79.763,112.025 L79.763,110.025 L77.763,110.025 L77.763,112.025 Z M81.763,112.025 L83.763,112.025 L83.763,110.025 L81.763,110.025 L81.763,112.025 Z M85.763,112.025 L87.763,112.025 L87.763,110.025 L85.763,110.025 L85.763,112.025 Z M89.763,112.025 L91.763,112.025 L91.763,110.025 L89.763,110.025 L89.763,112.025 Z M93.763,112.025 L95.763,112.025 L95.763,110.025 L93.763,110.025 L93.763,112.025 Z M97.763,112.025 L99.763,112.025 L99.763,110.025 L97.763,110.025 L97.763,112.025 Z M101.763,112.025 L103.763,112.025 L103.763,110.025 L101.763,110.025 L101.763,112.025 Z M105.763,112.025 L107.763,112.025 L107.763,110.025 L105.763,110.025 L105.763,112.025 Z M109.763,112.025 L111.763,112.025 L111.763,110.025 L109.763,110.025 L109.763,112.025 Z M113.763,112.025 L115.763,112.025 L115.763,110.025 L113.763,110.025 L113.763,112.025 Z M117.763,112.025 L119.763,112.025 L119.763,110.025 L117.763,110.025 L117.763,112.025 Z M121.763,112.025 L123.763,112.025 L123.763,110.025 L121.763,110.025 L121.763,112.025 Z M125.763,112.025 L127.763,112.025 L127.763,110.025 L125.763,110.025 L125.763,112.025 Z M129.763,112.025 L131.763,112.025 L131.763,110.025 L129.763,110.025 L129.763,112.025 Z M133.763,112.025 L135.763,112.025 L135.763,110.025 L133.763,110.025 L133.763,112.025 Z"/>
    <polygon fill="#48515A" points="213 181.054 215 181.054 215 177.054 213 177.054"/>
    <polygon fill="#48515A" points="213 191.054 215 191.054 215 187.054 213 187.054"/>
    <polygon fill="#48515A" points="217 185.054 221 185.054 221 183.054 217 183.054"/>
    <polygon fill="#48515A" points="207 185.054 211 185.054 211 183.054 207 183.054"/>
    <polygon fill="#48515A" points="201 73.054 203 73.054 203 69.054 201 69.054"/>
    <polygon fill="#48515A" points="201 83.054 203 83.054 203 79.054 201 79.054"/>
    <polygon fill="#48515A" points="205 77.054 209 77.054 209 75.054 205 75.054"/>
    <polygon fill="#48515A" points="195 77.054 199 77.054 199 75.054 195 75.054"/>
    <polygon fill="#48515A" points="35 133.054 37 133.054 37 129.054 35 129.054"/>
    <polygon fill="#48515A" points="35 143.054 37 143.054 37 139.054 35 139.054"/>
    <polygon fill="#48515A" points="39 137.054 43 137.054 43 135.054 39 135.054"/>
    <polygon fill="#48515A" points="29 137.054 33 137.054 33 135.054 29 135.054"/>
    <path fill="#48515A" d="M39,78.054 C37.346,78.054 36,79.4 36,81.054 C36,82.709 37.346,84.054 39,84.054 C40.654,84.054 42,82.709 42,81.054 C42,79.4 40.654,78.054 39,78.054 Z M39,86.054 C36.243,86.054 34,83.811 34,81.054 C34,78.298 36.243,76.054 39,76.054 C41.757,76.054 44,78.298 44,81.054 C44,83.811 41.757,86.054 39,86.054 Z"/>
    <path fill="#F58E70" d="M189 41.054C189 42.159 188.105 43.054 187 43.054 185.895 43.054 185 42.159 185 41.054 185 39.95 185.895 39.054 187 39.054 188.105 39.054 189 39.95 189 41.054M57 157.054C57 158.159 56.105 159.054 55 159.054 53.895 159.054 53 158.159 53 157.054 53 155.95 53.895 155.054 55 155.054 56.105 155.054 57 155.95 57 157.054"/>
  </g>
</svg>
