<svg xmlns="http://www.w3.org/2000/svg" width="250" height="250" viewBox="0 0 250 250">
  <g fill="none" fill-rule="evenodd">
    <path fill="#5FE0ED" d="M182.187,218.001 L150.95,190.209 C148.097,186.56 148.317,181.38 151.468,177.985 L164.614,163.822 C168.336,159.812 167.876,153.488 163.615,150.059 L76.237,79.739 C70.351,75.002 71.455,65.738 78.289,62.517 C86.843,58.485 85.815,46.001 76.717,43.422 L52.772,36.637 C49.357,35.669 46.999,32.551 46.999,29.001 L209.026,29.001 L212.027,28.998 L212.051,29.506 C212.199,32.625 213.29,35.59 214.975,38.219 C220.114,46.235 217.784,57.367 209.073,62.413 L199.492,67.962 C192.044,72.276 188.919,81.422 192.169,89.391 L205.09,121.073 C213.702,142.188 207.884,166.443 190.632,181.354 C182.111,188.719 178.432,200.235 181.104,211.175 C181.593,213.179 181.933,215.216 182.12,217.27 L182.187,218.001"/>
    <polygon fill="#475059" points="107.026 111.001 161.026 111.001 161.026 109.001 107.026 109.001"/>
    <path fill="#475059" d="M163.026,111.001 L165.026,111.001 L165.026,109.001 L163.026,109.001 L163.026,111.001 Z M167.026,111.001 L169.026,111.001 L169.026,109.001 L167.026,109.001 L167.026,111.001 Z M171.026,111.001 L173.026,111.001 L173.026,109.001 L171.026,109.001 L171.026,111.001 Z M175.026,111.001 L177.026,111.001 L177.026,109.001 L175.026,109.001 L175.026,111.001 Z M179.026,111.001 L181.026,111.001 L181.026,109.001 L179.026,109.001 L179.026,111.001 Z"/>
    <polygon fill="#475059" points="155 83.998 197 83.998 197 81.998 155 81.998"/>
    <path fill="#475059" d="M111.026,83.998 L113.026,83.998 L113.026,81.998 L111.026,81.998 L111.026,83.998 Z M115.026,83.998 L117.026,83.998 L117.026,81.998 L115.026,81.998 L115.026,83.998 Z M119.026,83.998 L121.026,83.998 L121.026,81.998 L119.026,81.998 L119.026,83.998 Z M123.026,83.998 L125.026,83.998 L125.026,81.998 L123.026,81.998 L123.026,83.998 Z M127.026,83.998 L129.026,83.998 L129.026,81.998 L127.026,81.998 L127.026,83.998 Z M131.026,83.998 L133.026,83.998 L133.026,81.998 L131.026,81.998 L131.026,83.998 Z M135.026,83.998 L137.026,83.998 L137.026,81.998 L135.026,81.998 L135.026,83.998 Z M139.026,83.998 L141.026,83.998 L141.026,81.998 L139.026,81.998 L139.026,83.998 Z M143.026,83.998 L145.026,83.998 L145.026,81.998 L143.026,81.998 L143.026,83.998 Z M147.026,83.998 L149.026,83.998 L149.026,81.998 L147.026,81.998 L147.026,83.998 Z M151.026,83.998 L153.026,83.998 L153.026,81.998 L151.026,81.998 L151.026,83.998 Z"/>
    <polygon fill="#475059" points="163.972 141.001 205.972 141.001 205.972 139.001 163.972 139.001"/>
    <path fill="#475059" d="M140,141.001 L142,141.001 L142,139.001 L140,139.001 L140,141.001 Z M144,141.001 L146,141.001 L146,139.001 L144,139.001 L144,141.001 Z M148,141.001 L150,141.001 L150,139.001 L148,139.001 L148,141.001 Z M152,141.001 L154,141.001 L154,139.001 L152,139.001 L152,141.001 Z M156,141.001 L158,141.001 L158,139.001 L156,139.001 L156,141.001 Z M160,141.001 L162,141.001 L162,139.001 L160,139.001 L160,141.001 Z"/>
    <polygon fill="#475059" points="78.845 53.998 120.845 53.998 120.845 51.998 78.845 51.998"/>
    <path fill="#475059" d="M123.026,53.998 L125.026,53.998 L125.026,51.998 L123.026,51.998 L123.026,53.998 Z M127.026,53.998 L129.026,53.998 L129.026,51.998 L127.026,51.998 L127.026,53.998 Z M131.026,53.998 L133.026,53.998 L133.026,51.998 L131.026,51.998 L131.026,53.998 Z M135.026,53.998 L137.026,53.998 L137.026,51.998 L135.026,51.998 L135.026,53.998 Z M139.026,53.998 L141.026,53.998 L141.026,51.998 L139.026,51.998 L139.026,53.998 Z M143.026,53.998 L145.026,53.998 L145.026,51.998 L143.026,51.998 L143.026,53.998 Z M147.026,53.998 L149.026,53.998 L149.026,51.998 L147.026,51.998 L147.026,53.998 Z M151.026,53.998 L153.026,53.998 L153.026,51.998 L151.026,51.998 L151.026,53.998 Z M155.026,53.998 L157.026,53.998 L157.026,51.998 L155.026,51.998 L155.026,53.998 Z M159.026,53.998 L161.026,53.998 L161.026,51.998 L159.026,51.998 L159.026,53.998 Z M163.026,53.998 L165.026,53.998 L165.026,51.998 L163.026,51.998 L163.026,53.998 Z"/>
    <polygon fill="#475059" points="151.026 185.998 193.026 185.998 193.026 183.998 151.026 183.998"/>
    <path fill="#475059" d="M195.026 185.998L197.026 185.998 197.026 183.998 195.026 183.998 195.026 185.998zM199.026 185.998L201.026 185.998 201.026 183.998 199.026 183.998 199.026 185.998zM203.026 185.998L205.026 185.998 205.026 183.998 203.026 183.998 203.026 185.998zM207.026 185.998L209.026 185.998 209.026 183.998 207.026 183.998 207.026 185.998zM211.026 185.998L213.026 185.998 213.026 183.998 211.026 183.998 211.026 185.998zM28.999 221.002L30.999 221.002 30.999 219.002 28.999 219.002 28.999 221.002zM33 221.002L35 221.002 35 219.002 33 219.002 33 221.002zM36.999 221.002L38.999 221.002 38.999 219.002 36.999 219.002 36.999 221.002zM40.999 221.002L42.999 221.002 42.999 219.002 40.999 219.002 40.999 221.002zM45 221.002L47 221.002 47 219.002 45 219.002 45 221.002zM48.999 221.002L50.999 221.002 50.999 219.002 48.999 219.002 48.999 221.002zM52.999 221.002L54.999 221.002 54.999 219.002 52.999 219.002 52.999 221.002zM57 221.002L59 221.002 59 219.002 57 219.002 57 221.002zM61 221.002L63 221.002 63 219.002 61 219.002 61 221.002zM64.999 221.002L66.999 221.002 66.999 219.002 64.999 219.002 64.999 221.002zM68.999 221.002L70.999 221.002 70.999 219.002 68.999 219.002 68.999 221.002zM72.999 221.002L74.999 221.002 74.999 219.002 72.999 219.002 72.999 221.002zM76.999 221.002L78.999 221.002 78.999 219.002 76.999 219.002 76.999 221.002zM80.999 221.002L82.999 221.002 82.999 219.002 80.999 219.002 80.999 221.002zM84.999 221.002L86.999 221.002 86.999 219.002 84.999 219.002 84.999 221.002zM88.999 221.002L90.999 221.002 90.999 219.002 88.999 219.002 88.999 221.002zM92.999 221.002L94.999 221.002 94.999 219.002 92.999 219.002 92.999 221.002zM96.999 221.002L98.999 221.002 98.999 219.002 96.999 219.002 96.999 221.002zM101 221.002L103 221.002 103 219.002 101 219.002 101 221.002zM105 221.002L107 221.002 107 219.002 105 219.002 105 221.002zM109 221.002L111 221.002 111 219.002 109 219.002 109 221.002zM113 221.002L115 221.002 115 219.002 113 219.002 113 221.002zM117 221.002L119 221.002 119 219.002 117 219.002 117 221.002zM121 221.002L123 221.002 123 219.002 121 219.002 121 221.002zM125 221.002L127 221.002 127 219.002 125 219.002 125 221.002zM129 221.002L131 221.002 131 219.002 129 219.002 129 221.002zM133 221.002L135 221.002 135 219.002 133 219.002 133 221.002zM137 221.002L139 221.002 139 219.002 137 219.002 137 221.002zM141 221.002L143 221.002 143 219.002 141 219.002 141 221.002zM145 221.002L147 221.002 147 219.002 145 219.002 145 221.002zM149 221.002L151 221.002 151 219.002 149 219.002 149 221.002zM153 221.002L155 221.002 155 219.002 153 219.002 153 221.002zM157 221.002L159 221.002 159 219.002 157 219.002 157 221.002zM161 221.002L163 221.002 163 219.002 161 219.002 161 221.002zM165 221.002L167 221.002 167 219.002 165 219.002 165 221.002zM169 221.002L171 221.002 171 219.002 169 219.002 169 221.002zM173 221.002L175 221.002 175 219.002 173 219.002 173 221.002zM177 221.002L179 221.002 179 219.002 177 219.002 177 221.002zM181 221.002L183 221.002 183 219.002 181 219.002 181 221.002zM185 221.002L187 221.002 187 219.002 185 219.002 185 221.002zM189 221.002L191 221.002 191 219.002 189 219.002 189 221.002zM193 221.002L195 221.002 195 219.002 193 219.002 193 221.002zM197 221.002L199 221.002 199 219.002 197 219.002 197 221.002zM201 221.002L203 221.002 203 219.002 201 219.002 201 221.002zM205 221.002L207 221.002 207 219.002 205 219.002 205 221.002zM209 221.002L211 221.002 211 219.002 209 219.002 209 221.002zM213 221.002L215 221.002 215 219.002 213 219.002 213 221.002zM217 221.002L219 221.002 219 219.002 217 219.002 217 221.002zM111.238 131.032L110.414 129.21C111.063 128.917 111.709 128.597 112.333 128.261L113.282 130.021C112.617 130.379 111.929 130.72 111.238 131.032zM86.777 132.252C86.057 132.01 85.339 131.74 84.643 131.452L85.41 129.604C86.064 129.875 86.739 130.129 87.415 130.357L86.777 132.252zM106.968 132.621L106.401 130.703C107.086 130.5 107.77 130.272 108.433 130.025L109.131 131.899C108.425 132.163 107.697 132.405 106.968 132.621zM91.185 133.408C90.444 133.267 89.696 133.098 88.961 132.905L89.468 130.971C90.159 131.151 90.862 131.311 91.559 131.443L91.185 133.408zM102.523 133.612L102.22 131.636C102.926 131.527 103.635 131.395 104.326 131.24L104.762 133.192C104.026 133.356 103.273 133.498 102.523 133.612zM95.707 133.952C94.956 133.914 94.192 133.848 93.436 133.757L93.675 131.771C94.386 131.857 95.104 131.919 95.81 131.955L95.707 133.952zM97.984 133.993L97.952 131.993C98.666 131.982 99.386 131.946 100.092 131.886L100.26 133.879C99.509 133.943 98.743 133.981 97.984 133.993z"/>
    <polyline fill="#F58E70" points="33.026 178.198 114.04 178.198 114.04 173.388 108.028 153.995 39.038 153.995 33.026 173.539 33.026 178.198"/>
    <polygon fill="#5FE0ED" points="91.056 199.995 103.056 199.995 103.056 191.995 91.056 191.995"/>
    <polygon fill="#5FE0ED" points="43.027 199.995 55.027 199.995 55.027 191.995 43.027 191.995"/>
    <path fill="#475059" d="M31.026,180.198 L116.04,180.198 L116.04,173.144 L109.592,151.995 L37.475,151.995 L31.026,173.294 L31.026,180.198 Z M118.04,182.198 L29.026,182.198 L29.069,172.857 L35.991,149.995 L111.074,149.995 L118.04,172.995 L118.04,182.198 Z"/>
    <polyline fill="#475059" points="113.04 217 112.934 181.2 114.934 181.194 115.04 216.995 113.04 217"/>
    <polyline fill="#475059" points="33.027 217.802 31.027 217.802 31.028 181.145 33.028 181.145 33.027 217.802"/>
    <path fill="#475059" d="M82.931 216.995L80.931 216.995 80.931 197.995C80.931 193.584 77.342 189.995 72.931 189.995 68.52 189.995 64.931 193.584 64.931 197.995L64.931 216.995 62.931 216.995 62.931 197.995C62.931 192.481 67.417 187.995 72.931 187.995 78.445 187.995 82.931 192.481 82.931 197.995L82.931 216.995M89.026 201.995L105.026 201.995 105.026 189.995 89.026 189.995 89.026 201.995zM87.026 203.995L107.026 203.995 107.026 187.995 87.026 187.995 87.026 203.995z"/>
    <polygon fill="#475059" points="96.026 202.995 98.026 202.995 98.026 188.995 96.026 188.995"/>
    <path fill="#475059" d="M41.027,201.995 L57.027,201.995 L57.027,189.995 L41.027,189.995 L41.027,201.995 Z M39.027,203.995 L59.027,203.995 L59.027,187.995 L39.027,187.995 L39.027,203.995 Z"/>
    <polygon fill="#475059" points="48.027 202.995 50.027 202.995 50.027 188.995 48.027 188.995"/>
    <path fill="#475059" d="M36.027 174.996L38.165 174.996 38.165 172.996 36.027 172.996 36.027 174.996zM40.302 174.996L42.44 174.996 42.44 172.996 40.302 172.996 40.302 174.996zM44.578 174.996L46.716 174.996 46.716 172.996 44.578 172.996 44.578 174.996zM48.854 174.996L50.992 174.996 50.992 172.996 48.854 172.996 48.854 174.996zM53.129 174.996L55.267 174.996 55.267 172.996 53.129 172.996 53.129 174.996zM57.404 174.996L59.542 174.996 59.542 172.996 57.404 172.996 57.404 174.996zM61.68 174.996L63.818 174.996 63.818 172.996 61.68 172.996 61.68 174.996zM65.955 174.996L68.093 174.996 68.093 172.996 65.955 172.996 65.955 174.996zM70.23 174.996L72.368 174.996 72.368 172.996 70.23 172.996 70.23 174.996zM74.506 174.996L76.644 174.996 76.644 172.996 74.506 172.996 74.506 174.996zM78.782 174.996L80.92 174.996 80.92 172.996 78.782 172.996 78.782 174.996zM83.057 174.996L85.195 174.996 85.195 172.996 83.057 172.996 83.057 174.996zM87.332 174.996L89.47 174.996 89.47 172.996 87.332 172.996 87.332 174.996zM91.608 174.996L93.746 174.996 93.746 172.996 91.608 172.996 91.608 174.996zM95.884 174.996L98.022 174.996 98.022 172.996 95.884 172.996 95.884 174.996zM100.159 174.996L102.297 174.996 102.297 172.996 100.159 172.996 100.159 174.996zM104.435 174.996L106.572 174.996 106.572 172.996 104.435 172.996 104.435 174.996zM108.71 174.996L110.848 174.996 110.848 172.996 108.71 172.996 108.71 174.996zM31.001 219.001L33.001 219.001 33.001 217.001 31.001 217.001 31.001 219.001zM35 219.001L37 219.001 37 217.001 35 217.001 35 219.001zM39 219.001L41 219.001 41 217.001 39 217.001 39 219.001zM43.001 219.001L45.001 219.001 45.001 217.001 43.001 217.001 43.001 219.001zM47 219.001L49 219.001 49 217.001 47 217.001 47 219.001zM51 219.001L53 219.001 53 217.001 51 217.001 51 219.001zM55.001 219.001L57.001 219.001 57.001 217.001 55.001 217.001 55.001 219.001zM59 219.001L61 219.001 61 217.001 59 217.001 59 219.001zM63 219.001L65 219.001 65 217.001 63 217.001 63 219.001zM67.001 219.001L69.001 219.001 69.001 217.001 67.001 217.001 67.001 219.001zM71.001 219.001L73.001 219.001 73.001 217.001 71.001 217.001 71.001 219.001zM75.001 219.001L77.001 219.001 77.001 217.001 75.001 217.001 75.001 219.001zM79.001 219.001L81.001 219.001 81.001 217.001 79.001 217.001 79.001 219.001zM83.001 219.001L85.001 219.001 85.001 217.001 83.001 217.001 83.001 219.001zM87.001 219.001L89.001 219.001 89.001 217.001 87.001 217.001 87.001 219.001zM91.001 219.001L93.001 219.001 93.001 217.001 91.001 217.001 91.001 219.001zM95.001 219.001L97.001 219.001 97.001 217.001 95.001 217.001 95.001 219.001zM99.001 219.001L101 219.001 101 217.001 99.001 217.001 99.001 219.001zM103 219.001L105 219.001 105 217.001 103 217.001 103 219.001zM107 219.001L109 219.001 109 217.001 107 217.001 107 219.001zM111 219.001L113 219.001 113 217.001 111 217.001 111 219.001zM115 219.001L117 219.001 117 217.001 115 217.001 115 219.001zM119 219.001L121 219.001 121 217.001 119 217.001 119 219.001zM123 219.001L125 219.001 125 217.001 123 217.001 123 219.001zM127 219.001L129 219.001 129 217.001 127 217.001 127 219.001zM131 219.001L133 219.001 133 217.001 131 217.001 131 219.001zM135 219.001L137 219.001 137 217.001 135 217.001 135 219.001zM139 219.001L141 219.001 141 217.001 139 217.001 139 219.001zM143 219.001L145 219.001 145 217.001 143 217.001 143 219.001zM147 219.001L149 219.001 149 217.001 147 217.001 147 219.001zM151 219.001L153 219.001 153 217.001 151 217.001 151 219.001zM155 219.001L157 219.001 157 217.001 155 217.001 155 219.001zM159 219.001L161 219.001 161 217.001 159 217.001 159 219.001zM163 219.001L165 219.001 165 217.001 163 217.001 163 219.001zM167 219.001L169 219.001 169 217.001 167 217.001 167 219.001zM171 219.001L173 219.001 173 217.001 171 217.001 171 219.001zM175 219.001L177 219.001 177 217.001 175 217.001 175 219.001zM179 219.001L181 219.001 181 217.001 179 217.001 179 219.001zM183 219.001L185 219.001 185 217.001 183 217.001 183 219.001zM187 219.001L189 219.001 189 217.001 187 217.001 187 219.001zM191 219.001L193 219.001 193 217.001 191 217.001 191 219.001zM195 219.001L197 219.001 197 217.001 195 217.001 195 219.001zM199 219.001L201 219.001 201 217.001 199 217.001 199 219.001zM203 219.001L205 219.001 205 217.001 203 217.001 203 219.001zM207 219.001L209 219.001 209 217.001 207 217.001 207 219.001zM211 219.001L213 219.001 213 217.001 211 217.001 211 219.001zM215 219.001L217 219.001 217 217.001 215 217.001 215 219.001zM219 219.001L221 219.001 221 217.001 219 217.001 219 219.001zM63.488 103.032L62.664 101.21C63.312 100.917 63.958 100.597 64.583 100.261L65.531 102.021C64.866 102.379 64.179 102.72 63.488 103.032zM39.026 104.252C38.307 104.01 37.589 103.74 36.893 103.452L37.659 101.604C38.313 101.875 38.988 102.129 39.665 102.357L39.026 104.252zM59.218 104.621L58.65 102.703C59.335 102.5 60.019 102.272 60.682 102.025L61.38 103.899C60.674 104.163 59.947 104.405 59.218 104.621zM43.434 105.408C42.693 105.267 41.945 105.098 41.211 104.905L41.718 102.971C42.408 103.151 43.112 103.311 43.808 103.443L43.434 105.408zM54.772 105.612L54.47 103.636C55.176 103.527 55.884 103.395 56.576 103.24L57.011 105.192C56.276 105.356 55.522 105.498 54.772 105.612zM47.956 105.952C47.206 105.914 46.441 105.848 45.686 105.757L45.925 103.771C46.635 103.857 47.354 103.919 48.059 103.955L47.956 105.952zM50.234 105.993L50.202 103.993C50.916 103.982 51.635 103.946 52.342 103.886L52.51 105.879C51.758 105.943 50.993 105.981 50.234 105.993zM89.238 81.032L88.414 79.21C89.063 78.916 89.709 78.597 90.334 78.261L91.282 80.021C90.617 80.379 89.929 80.72 89.238 81.032zM64.777 82.252C64.057 82.01 63.339 81.74 62.643 81.452L63.41 79.604C64.064 79.875 64.739 80.129 65.415 80.357L64.777 82.252zM84.968 82.621L84.401 80.703C85.086 80.5 85.77 80.272 86.433 80.025L87.131 81.899C86.425 82.163 85.697 82.405 84.968 82.621zM69.185 83.408C68.444 83.267 67.696 83.098 66.961 82.905L67.468 80.971C68.159 81.151 68.862 81.31 69.559 81.443L69.185 83.408zM80.523 83.612L80.22 81.636C80.926 81.527 81.635 81.395 82.326 81.24L82.762 83.192C82.026 83.356 81.273 83.498 80.523 83.612zM73.707 83.952C72.956 83.914 72.192 83.848 71.436 83.757L71.675 81.771C72.386 81.857 73.104 81.919 73.81 81.955L73.707 83.952zM75.984 83.993L75.952 81.993C76.666 81.982 77.386 81.946 78.092 81.886L78.26 83.879C77.509 83.943 76.743 83.981 75.984 83.993zM151.238 163.032L150.414 161.21C151.063 160.917 151.709 160.597 152.333 160.261L153.282 162.021C152.617 162.379 151.929 162.72 151.238 163.032zM126.777 164.252C126.057 164.01 125.339 163.74 124.643 163.452L125.41 161.604C126.064 161.875 126.739 162.129 127.416 162.357L126.777 164.252zM146.968 164.621L146.401 162.703C147.086 162.5 147.77 162.272 148.433 162.025L149.131 163.899C148.425 164.163 147.697 164.405 146.968 164.621zM131.185 165.408C130.444 165.267 129.696 165.098 128.961 164.905L129.468 162.971C130.159 163.151 130.862 163.311 131.559 163.443L131.185 165.408zM142.523 165.612L142.22 163.636C142.926 163.527 143.635 163.395 144.326 163.24L144.762 165.192C144.026 165.356 143.273 165.498 142.523 165.612zM135.707 165.952C134.956 165.914 134.192 165.848 133.436 165.757L133.675 163.771C134.386 163.857 135.104 163.919 135.81 163.955L135.707 165.952zM137.984 165.993L137.952 163.993C138.666 163.982 139.386 163.946 140.092 163.886L140.26 165.879C139.509 165.943 138.743 165.981 137.984 165.993zM67.238 51.435L66.414 49.612C67.062 49.319 67.708 48.999 68.333 48.663L69.281 50.424C68.616 50.782 67.929 51.122 67.238 51.435zM42.777 52.654C42.059 52.412 41.341 52.143 40.643 51.854L41.41 50.006C42.065 50.278 42.74 50.531 43.415 50.758L42.777 52.654zM62.968 53.023L62.401 51.105C63.078 50.905 63.762 50.677 64.433 50.428L65.129 52.303C64.416 52.568 63.689 52.81 62.968 53.023zM47.184 53.809C46.438 53.667 45.691 53.498 44.961 53.307L45.468 51.372C46.154 51.552 46.857 51.71 47.558 51.844L47.184 53.809zM58.522 54.016L58.222 52.038C58.925 51.931 59.633 51.798 60.327 51.644L60.762 53.596C60.024 53.76 59.271 53.901 58.522 54.016zM51.707 54.353C50.954 54.314 50.19 54.249 49.437 54.158L49.676 52.172C50.384 52.258 51.102 52.32 51.811 52.356L51.707 54.353zM53.985 54.395L53.953 52.396C54.662 52.384 55.382 52.349 56.094 52.29L56.26 54.283C55.503 54.346 54.738 54.383 53.985 54.395zM215.238 95.435L214.414 93.612C215.063 93.319 215.708 92.999 216.333 92.663L217.281 94.424C216.616 94.782 215.929 95.122 215.238 95.435zM190.777 96.654C190.059 96.412 189.341 96.143 188.643 95.854L189.41 94.006C190.065 94.278 190.74 94.531 191.415 94.758L190.777 96.654zM210.968 97.023L210.401 95.105C211.078 94.905 211.762 94.677 212.433 94.428L213.129 96.303C212.416 96.568 211.689 96.81 210.968 97.023zM195.184 97.809C194.438 97.666 193.691 97.498 192.961 97.307L193.468 95.372C194.154 95.552 194.857 95.71 195.558 95.844L195.184 97.809zM206.522 98.016L206.222 96.038C206.925 95.931 207.633 95.798 208.327 95.644L208.762 97.596C208.024 97.76 207.271 97.901 206.522 98.016zM199.707 98.354C198.954 98.314 198.19 98.248 197.437 98.158L197.676 96.172C198.384 96.258 199.103 96.32 199.811 96.356L199.707 98.354zM201.985 98.395L201.953 96.395C202.662 96.384 203.382 96.349 204.094 96.29L204.26 98.283C203.503 98.346 202.738 98.383 201.985 98.395zM166.483 197.033L165.659 195.21C166.308 194.917 166.954 194.597 167.578 194.261L168.526 196.022C167.861 196.38 167.174 196.72 166.483 197.033zM142.022 198.252C141.302 198.01 140.584 197.74 139.888 197.452L140.655 195.604C141.309 195.875 141.984 196.129 142.661 196.357L142.022 198.252zM162.213 198.621L161.646 196.703C162.331 196.5 163.015 196.272 163.678 196.025L164.376 197.899C163.67 198.163 162.942 198.405 162.213 198.621zM146.429 199.407C145.688 199.266 144.94 199.097 144.206 198.905L144.713 196.97C145.403 197.151 146.107 197.31 146.803 197.442L146.429 199.407zM157.767 199.613L157.466 197.635C158.169 197.528 158.877 197.396 159.571 197.241L160.007 199.193C159.269 199.357 158.515 199.499 157.767 199.613zM150.952 199.952C150.201 199.914 149.437 199.848 148.681 199.757L148.92 197.771C149.63 197.857 150.349 197.919 151.054 197.955L150.952 199.952zM153.229 199.993L153.197 197.993C153.911 197.982 154.631 197.946 155.337 197.886L155.505 199.879C154.754 199.943 153.988 199.981 153.229 199.993z"/>
    <path fill="#5FE0ED" d="M133.026 134.998C133.026 136.102 132.131 136.998 131.026 136.998 129.922 136.998 129.026 136.102 129.026 134.998 129.026 133.893 129.922 132.998 131.026 132.998 132.131 132.998 133.026 133.893 133.026 134.998M214.526 76.498C214.526 77.05 214.079 77.498 213.526 77.498 212.974 77.498 212.526 77.05 212.526 76.498 212.526 75.945 212.974 75.498 213.526 75.498 214.079 75.498 214.526 75.945 214.526 76.498M69.026 61.998C69.026 62.55 68.579 62.998 68.026 62.998 67.474 62.998 67.026 62.55 67.026 61.998 67.026 61.445 67.474 60.998 68.026 60.998 68.579 60.998 69.026 61.445 69.026 61.998M57.026 73.998C57.026 74.55 56.579 74.998 56.026 74.998 55.474 74.998 55.026 74.55 55.026 73.998 55.026 73.445 55.474 72.998 56.026 72.998 56.579 72.998 57.026 73.445 57.026 73.998"/>
    <path fill="#48515A" d="M46.026 65.998C44.923 65.998 44.026 66.895 44.026 67.998 44.026 69.101 44.923 69.998 46.026 69.998 47.129 69.998 48.026 69.101 48.026 67.998 48.026 66.895 47.129 65.998 46.026 65.998zM46.026 71.998C43.821 71.998 42.026 70.203 42.026 67.998 42.026 65.792 43.821 63.998 46.026 63.998 48.232 63.998 50.026 65.792 50.026 67.998 50.026 70.203 48.232 71.998 46.026 71.998zM202.026 161.998C200.923 161.998 200.026 162.895 200.026 163.998 200.026 165.101 200.923 165.998 202.026 165.998 203.129 165.998 204.026 165.101 204.026 163.998 204.026 162.895 203.129 161.998 202.026 161.998zM202.026 167.998C199.821 167.998 198.026 166.203 198.026 163.998 198.026 161.792 199.821 159.998 202.026 159.998 204.232 159.998 206.026 161.792 206.026 163.998 206.026 166.203 204.232 167.998 202.026 167.998z"/>
  </g>
</svg>
