<svg xmlns="http://www.w3.org/2000/svg" width="250" height="250" viewBox="0 0 250 250">
  <g fill="none" fill-rule="evenodd">
    <polyline fill="#FFD15D" points="98.491 106.979 143.991 106.979 114.741 67.979 98.491 106.979"/>
    <path fill="#FFD15D" d="M203.04,56.889 C203.04,69.591 192.742,79.889 180.04,79.889 C167.337,79.889 157.04,69.591 157.04,56.889 C157.04,44.186 167.337,33.889 180.04,33.889 C192.742,33.889 203.04,44.186 203.04,56.889"/>
    <path fill="#48515A" d="M181.899 30.952C181.349 30.912 180.939 30.443 180.969 29.882 181.009 29.333 181.49 28.922 182.04 28.962 182.589 29.003 183.009 29.472 182.969 30.023 182.929 30.552 182.49 30.962 181.969 30.962 181.95 30.962 181.919 30.952 181.899 30.952zM176.939 30.043C176.899 29.492 177.309 29.012 177.859 28.972 178.41 28.932 178.889 29.342 178.939 29.892 178.979 30.443 178.559 30.923 178.009 30.962 177.99 30.972 177.959 30.972 177.939 30.972 177.419 30.972 176.979 30.572 176.939 30.043zM185.74 31.512C185.2 31.392 184.859 30.862 184.979 30.322 185.109 29.782 185.639 29.442 186.179 29.563 186.719 29.682 187.059 30.222 186.939 30.762 186.83 31.222 186.419 31.543 185.959 31.543 185.889 31.543 185.82 31.532 185.74 31.512zM172.979 30.802C172.849 30.262 173.189 29.732 173.729 29.603 174.269 29.482 174.799 29.813 174.929 30.353 175.049 30.892 174.709 31.422 174.179 31.552 174.099 31.572 174.03 31.583 173.95 31.583 173.5 31.583 173.089 31.262 172.979 30.802zM189.459 32.652C188.95 32.452 188.689 31.872 188.889 31.353 189.089 30.842 189.669 30.583 190.189 30.782 190.7 30.982 190.95 31.563 190.759 32.083 190.599 32.472 190.219 32.712 189.82 32.712 189.7 32.712 189.58 32.693 189.459 32.652zM169.169 32.142C168.969 31.632 169.219 31.052 169.729 30.842 170.25 30.642 170.83 30.892 171.03 31.412 171.229 31.923 170.979 32.503 170.469 32.702 170.349 32.753 170.229 32.773 170.099 32.773 169.7 32.773 169.33 32.532 169.169 32.142zM192.969 34.322C192.49 34.052 192.32 33.432 192.599 32.962 192.87 32.482 193.479 32.313 193.959 32.592 194.439 32.862 194.609 33.472 194.33 33.952 194.149 34.273 193.809 34.452 193.459 34.452 193.29 34.452 193.12 34.412 192.969 34.322zM165.609 34.043C165.33 33.563 165.49 32.952 165.969 32.672 166.45 32.392 167.059 32.552 167.339 33.032 167.62 33.512 167.459 34.122 166.979 34.402 166.82 34.492 166.649 34.543 166.479 34.543 166.129 34.543 165.799 34.362 165.609 34.043zM196.179 36.503C195.75 36.162 195.679 35.532 196.019 35.103 196.359 34.662 196.99 34.592 197.419 34.943 197.859 35.282 197.929 35.912 197.589 36.342 197.389 36.592 197.099 36.722 196.799 36.722 196.58 36.722 196.37 36.652 196.179 36.503zM162.37 36.443C162.03 36.012 162.099 35.382 162.53 35.043 162.959 34.692 163.589 34.762 163.929 35.193 164.28 35.622 164.209 36.253 163.78 36.603 163.589 36.753 163.37 36.822 163.149 36.822 162.859 36.822 162.57 36.693 162.37 36.443zM199.04 39.142C198.66 38.732 198.679 38.103 199.089 37.722 199.49 37.353 200.12 37.372 200.5 37.773 200.879 38.172 200.849 38.813 200.45 39.182 200.259 39.362 200.009 39.452 199.769 39.452 199.5 39.452 199.229 39.353 199.04 39.142zM159.519 39.302C159.12 38.932 159.089 38.302 159.469 37.892 159.839 37.482 160.479 37.462 160.879 37.833 161.29 38.212 161.309 38.842 160.939 39.253 160.74 39.462 160.469 39.572 160.2 39.572 159.959 39.572 159.719 39.482 159.519 39.302zM201.469 42.162C201.16 41.712 201.269 41.083 201.729 40.773 202.179 40.462 202.809 40.572 203.12 41.032 203.429 41.482 203.32 42.112 202.859 42.422 202.689 42.543 202.49 42.603 202.299 42.603 201.979 42.603 201.669 42.443 201.469 42.162zM157.129 42.552C156.669 42.242 156.559 41.622 156.87 41.172 157.179 40.712 157.799 40.592 158.259 40.902 158.709 41.212 158.83 41.833 158.519 42.293 158.33 42.572 158.009 42.732 157.689 42.732 157.5 42.732 157.299 42.672 157.129 42.552zM203.429 45.512C203.189 45.023 203.389 44.423 203.889 44.182 204.389 43.943 204.979 44.142 205.229 44.642 205.469 45.142 205.259 45.732 204.759 45.982 204.62 46.052 204.469 46.083 204.33 46.083 203.959 46.083 203.599 45.872 203.429 45.512zM155.25 46.132C154.75 45.892 154.54 45.293 154.78 44.793 155.019 44.302 155.609 44.092 156.109 44.322 156.609 44.563 156.82 45.162 156.58 45.662 156.41 46.023 156.049 46.232 155.679 46.232 155.53 46.232 155.389 46.193 155.25 46.132zM204.859 49.122C204.7 48.603 204.99 48.043 205.519 47.872 206.049 47.712 206.599 48.003 206.769 48.532 206.939 49.063 206.639 49.622 206.109 49.782 206.019 49.813 205.91 49.833 205.82 49.833 205.389 49.833 205 49.552 204.859 49.122zM153.919 49.943C153.389 49.782 153.089 49.222 153.259 48.693 153.419 48.162 153.979 47.872 154.509 48.032 155.03 48.192 155.33 48.753 155.169 49.282 155.04 49.712 154.639 49.982 154.209 49.982 154.12 49.982 154.019 49.972 153.919 49.943zM205.74 52.912C205.649 52.362 206.03 51.853 206.57 51.773 207.12 51.682 207.629 52.063 207.709 52.603 207.799 53.152 207.419 53.662 206.879 53.742 206.83 53.753 206.769 53.753 206.719 53.753 206.24 53.753 205.809 53.402 205.74 52.912zM153.179 53.912C152.639 53.833 152.259 53.322 152.339 52.773 152.419 52.232 152.929 51.853 153.479 51.932 154.019 52.012 154.399 52.523 154.32 53.063 154.24 53.563 153.82 53.922 153.33 53.922 153.28 53.922 153.229 53.922 153.179 53.912zM206.04 56.892C206.04 56.872 206.04 56.862 206.04 56.853 206.04 56.833 206.04 56.802 206.04 56.782 206.04 56.232 206.479 55.782 207.03 55.782 207.589 55.773 208.04 56.222 208.04 56.773 208.04 56.793 208.04 56.813 208.04 56.833 208.04 56.853 208.04 56.872 208.04 56.892 208.04 57.443 207.589 57.892 207.04 57.892 206.49 57.892 206.04 57.443 206.04 56.892zM152.04 56.943C152.04 56.392 152.479 55.943 153.04 55.943 153.589 55.943 154.04 56.392 154.04 56.943 154.04 57.492 153.589 57.943 153.04 57.943 152.49 57.943 152.04 57.503 152.04 56.943zM206.589 61.902C206.049 61.813 205.669 61.313 205.75 60.762 205.83 60.212 206.339 59.842 206.889 59.922 207.439 60.003 207.809 60.512 207.729 61.063 207.729 61.063 207.729 61.063 207.729 61.052 207.66 61.552 207.229 61.912 206.74 61.912 206.689 61.912 206.639 61.912 206.589 61.902zM152.359 61.112C152.269 60.572 152.649 60.063 153.189 59.972 153.74 59.892 154.25 60.273 154.33 60.813 154.419 61.362 154.04 61.872 153.5 61.952 153.439 61.962 153.389 61.962 153.339 61.962 152.859 61.962 152.429 61.612 152.359 61.112zM205.549 65.802C205.03 65.632 204.729 65.072 204.889 64.552 205.059 64.023 205.609 63.722 206.139 63.892 206.669 64.052 206.969 64.612 206.799 65.142 206.669 65.563 206.28 65.842 205.849 65.842 205.75 65.842 205.649 65.833 205.549 65.802zM153.29 65.193C153.129 64.662 153.419 64.103 153.95 63.942 154.479 63.782 155.04 64.072 155.2 64.603 155.359 65.132 155.07 65.682 154.54 65.853 154.439 65.882 154.339 65.892 154.25 65.892 153.82 65.892 153.429 65.622 153.29 65.193zM203.939 69.503C203.439 69.262 203.229 68.662 203.469 68.162 203.709 67.673 204.309 67.462 204.809 67.702 205.309 67.942 205.509 68.532 205.269 69.032 205.099 69.392 204.74 69.603 204.37 69.603 204.229 69.603 204.08 69.563 203.939 69.503zM154.83 69.083C154.589 68.583 154.79 67.992 155.29 67.742 155.79 67.503 156.389 67.712 156.629 68.212 156.87 68.712 156.66 69.302 156.16 69.552 156.019 69.612 155.87 69.652 155.729 69.652 155.359 69.652 155 69.442 154.83 69.083zM201.79 72.923C201.33 72.603 201.219 71.982 201.53 71.532 201.839 71.072 202.459 70.952 202.919 71.273 203.37 71.572 203.49 72.202 203.179 72.652 202.99 72.942 202.669 73.092 202.349 73.092 202.16 73.092 201.959 73.032 201.79 72.923zM156.929 72.702C156.62 72.242 156.729 71.622 157.189 71.313 157.639 70.992 158.259 71.112 158.58 71.572 158.889 72.023 158.769 72.642 158.32 72.962 158.139 73.072 157.95 73.132 157.75 73.132 157.429 73.132 157.12 72.982 156.929 72.702zM199.16 75.982C198.75 75.603 198.729 74.972 199.099 74.563 199.479 74.162 200.109 74.142 200.519 74.512 200.919 74.892 200.95 75.523 200.57 75.923 200.379 76.142 200.109 76.242 199.839 76.242 199.589 76.242 199.349 76.162 199.16 75.982zM159.54 75.962C159.169 75.563 159.189 74.922 159.589 74.552 159.99 74.172 160.629 74.193 161 74.603L161.009 74.603C161.379 75.003 161.359 75.642 160.95 76.012 160.759 76.192 160.519 76.282 160.269 76.282 160.009 76.282 159.74 76.173 159.54 75.962zM196.099 78.612C195.759 78.182 195.83 77.552 196.259 77.212 196.689 76.862 197.32 76.932 197.669 77.362 198.009 77.802 197.939 78.423 197.509 78.773 197.32 78.923 197.099 78.992 196.879 78.992 196.589 78.992 196.299 78.862 196.099 78.612zM162.609 78.802C162.179 78.462 162.109 77.833 162.45 77.402 162.79 76.962 163.419 76.892 163.859 77.242 164.29 77.583 164.359 78.212 164.019 78.642 163.82 78.892 163.53 79.023 163.229 79.023 163.009 79.023 162.79 78.952 162.609 78.802zM192.689 80.773C192.41 80.293 192.58 79.682 193.049 79.402 193.53 79.122 194.139 79.293 194.419 79.762 194.7 80.242 194.53 80.853 194.059 81.132 193.899 81.222 193.729 81.273 193.559 81.273 193.209 81.273 192.879 81.092 192.689 80.773zM166.07 81.162C165.589 80.882 165.419 80.273 165.7 79.793 165.979 79.313 166.589 79.152 167.07 79.422 167.54 79.702 167.709 80.313 167.429 80.793 167.25 81.112 166.91 81.293 166.57 81.293 166.399 81.293 166.229 81.253 166.07 81.162zM189 82.392C188.79 81.872 189.049 81.293 189.559 81.092 190.07 80.892 190.649 81.142 190.859 81.652 191.059 82.173 190.809 82.753 190.29 82.952 190.169 83.003 190.049 83.023 189.929 83.023 189.53 83.023 189.149 82.782 189 82.392zM169.839 82.972C169.32 82.773 169.07 82.192 169.269 81.682 169.469 81.162 170.049 80.912 170.57 81.112 171.08 81.313 171.339 81.892 171.139 82.402 170.979 82.802 170.599 83.043 170.2 83.043 170.08 83.043 169.959 83.023 169.839 82.972zM185.099 83.432C184.979 82.892 185.309 82.362 185.849 82.232L185.849 82.242C186.389 82.112 186.929 82.452 187.049 82.992 187.169 83.532 186.83 84.063 186.299 84.182 186.219 84.202 186.149 84.212 186.07 84.212 185.62 84.212 185.2 83.902 185.099 83.432zM173.839 84.202C173.299 84.083 172.969 83.543 173.089 83.003 173.209 82.462 173.74 82.132 174.28 82.253 174.82 82.372 175.16 82.902 175.04 83.442 174.929 83.912 174.519 84.222 174.059 84.222 173.99 84.222 173.919 84.222 173.839 84.202zM181.089 83.892C181.049 83.333 181.459 82.853 182.009 82.813 182.559 82.773 183.04 83.193 183.08 83.742 183.12 84.293 182.709 84.773 182.16 84.813 182.129 84.813 182.109 84.813 182.08 84.813 181.57 84.813 181.129 84.412 181.089 83.892zM177.979 84.813C177.429 84.773 177.019 84.293 177.059 83.742 177.089 83.193 177.57 82.782 178.12 82.822L178.129 82.822C178.679 82.862 179.089 83.342 179.049 83.892 179.009 84.412 178.57 84.813 178.049 84.813 178.03 84.813 178 84.813 177.979 84.813zM75.04 142.983C75.04 142.422 75.479 141.983 76.04 141.983 76.589 141.983 77.029 142.422 77.029 142.983 77.029 143.532 76.589 143.983 76.04 143.983 75.479 143.983 75.04 143.532 75.04 142.983zM79.04 142.983C79.04 142.422 79.479 141.983 80.04 141.983 80.589 141.983 81.029 142.422 81.029 142.983 81.029 143.532 80.589 143.983 80.04 143.983 79.479 143.983 79.04 143.532 79.04 142.983zM83.04 142.983C83.04 142.422 83.479 141.983 84.04 141.983 84.589 141.983 85.029 142.422 85.029 142.983 85.029 143.532 84.589 143.983 84.04 143.983 83.479 143.983 83.04 143.532 83.04 142.983zM87.04 142.983C87.04 142.422 87.479 141.983 88.04 141.983 88.589 141.983 89.029 142.422 89.029 142.983 89.029 143.532 88.589 143.983 88.04 143.983 87.479 143.983 87.04 143.532 87.04 142.983zM91.04 142.983C91.04 142.422 91.479 141.983 92.04 141.983 92.589 141.983 93.029 142.422 93.029 142.983 93.029 143.532 92.589 143.983 92.04 143.983 91.479 143.983 91.04 143.532 91.04 142.983zM95.04 142.983C95.04 142.422 95.479 141.983 96.04 141.983 96.589 141.983 97.029 142.422 97.029 142.983 97.029 143.532 96.589 143.983 96.04 143.983 95.479 143.983 95.04 143.532 95.04 142.983zM99.04 142.983C99.04 142.422 99.479 141.983 100.04 141.983 100.589 141.983 101.029 142.422 101.029 142.983 101.029 143.532 100.589 143.983 100.04 143.983 99.479 143.983 99.04 143.532 99.04 142.983zM103.04 142.983C103.04 142.422 103.479 141.983 104.04 141.983 104.589 141.983 105.029 142.422 105.029 142.983 105.029 143.532 104.589 143.983 104.04 143.983 103.479 143.983 103.04 143.532 103.04 142.983zM107.04 142.983C107.04 142.422 107.479 141.983 108.04 141.983 108.589 141.983 109.029 142.422 109.029 142.983 109.029 143.532 108.589 143.983 108.04 143.983 107.479 143.983 107.04 143.532 107.04 142.983zM111.04 142.983C111.04 142.422 111.479 141.983 112.029 141.983 112.589 141.983 113.029 142.422 113.029 142.983 113.029 143.532 112.589 143.983 112.029 143.983 111.479 143.983 111.04 143.532 111.04 142.983zM115.04 142.983C115.04 142.422 115.479 141.983 116.029 141.983 116.589 141.983 117.029 142.422 117.029 142.983 117.029 143.532 116.589 143.983 116.029 143.983 115.479 143.983 115.04 143.532 115.04 142.983zM119.04 142.983C119.04 142.422 119.479 141.983 120.029 141.983 120.589 141.983 121.029 142.422 121.029 142.983 121.029 143.532 120.589 143.983 120.029 143.983 119.479 143.983 119.04 143.532 119.04 142.983zM123.04 142.983C123.04 142.422 123.479 141.983 124.029 141.983 124.589 141.983 125.03 142.422 125.03 142.983 125.03 143.532 124.589 143.983 124.029 143.983 123.479 143.983 123.04 143.532 123.04 142.983zM127.03 142.983C127.03 142.422 127.479 141.983 128.03 141.983 128.589 141.983 129.03 142.422 129.03 142.983 129.03 143.532 128.589 143.983 128.03 143.983 127.479 143.983 127.03 143.532 127.03 142.983zM131.03 142.983C131.03 142.422 131.479 141.983 132.03 141.983 132.589 141.983 133.03 142.422 133.03 142.983 133.03 143.532 132.589 143.983 132.03 143.983 131.479 143.983 131.03 143.532 131.03 142.983zM135.03 142.983C135.03 142.422 135.479 141.983 136.03 141.983 136.589 141.983 137.03 142.422 137.03 142.983 137.03 143.532 136.589 143.983 136.03 143.983 135.479 143.983 135.03 143.532 135.03 142.983zM139.03 142.983C139.03 142.422 139.479 141.983 140.03 141.983 140.589 141.983 141.03 142.422 141.03 142.983 141.03 143.532 140.589 143.983 140.03 143.983 139.479 143.983 139.03 143.532 139.03 142.983zM143.03 142.983C143.03 142.422 143.479 141.983 144.03 141.983 144.589 141.983 145.03 142.422 145.03 142.983 145.03 143.532 144.589 143.983 144.03 143.983 143.479 143.983 143.03 143.532 143.03 142.983zM147.03 142.983C147.03 142.422 147.479 141.983 148.03 141.983 148.589 141.983 149.03 142.422 149.03 142.983 149.03 143.532 148.589 143.983 148.03 143.983 147.479 143.983 147.03 143.532 147.03 142.983zM151.03 142.983C151.03 142.422 151.479 141.983 152.03 141.983 152.589 141.983 153.03 142.422 153.03 142.983 153.03 143.532 152.589 143.983 152.03 143.983 151.479 143.983 151.03 143.532 151.03 142.983zM155.03 142.983C155.03 142.422 155.479 141.983 156.03 141.983 156.589 141.983 157.03 142.422 157.03 142.983 157.03 143.532 156.589 143.983 156.03 143.983 155.479 143.983 155.03 143.532 155.03 142.983zM159.03 142.983C159.03 142.422 159.479 141.983 160.03 141.983 160.589 141.983 161.03 142.422 161.03 142.983 161.03 143.532 160.589 143.983 160.03 143.983 159.479 143.983 159.03 143.532 159.03 142.983zM163.03 142.983C163.03 142.422 163.479 141.983 164.03 141.983 164.589 141.983 165.03 142.422 165.03 142.983 165.03 143.532 164.589 143.983 164.03 143.983 163.479 143.983 163.03 143.532 163.03 142.983zM167.03 142.983C167.03 142.422 167.479 141.983 168.03 141.983 168.589 141.983 169.03 142.422 169.03 142.983 169.03 143.532 168.589 143.983 168.03 143.983 167.479 143.983 167.03 143.532 167.03 142.983zM98.155 124.979L98.012 124.978C93.653 124.943 89.465 123.312 86.107 120.356 82.802 123.241 78.561 124.819 74.061 124.819 68.998 124.819 66.277 122.712 63.361 119.912L62.97 119.902 63.019 117.903 64.191 117.932 64.472 118.204C67.696 121.331 69.953 122.819 74.061 122.819 78.362 122.819 82.393 121.207 85.412 118.278L86.108 117.603 86.805 118.278C89.912 121.292 93.915 122.96 98.083 122.979 102.252 122.96 106.255 121.292 109.363 118.278L110.059 117.603 110.755 118.278C113.739 121.172 117.77 122.766 122.105 122.766 126.333 122.766 130.207 121.177 133.305 118.172L134.001 117.497 134.698 118.172C137.797 121.177 141.67 122.766 145.898 122.766 150.162 122.766 154.193 121.134 157.249 118.172L157.945 117.497 158.641 118.172C161.696 121.134 165.726 122.766 169.991 122.766 174.245 122.766 178.27 121.134 181.325 118.172L182.021 117.497 182.717 118.172C184.772 120.165 187.314 121.584 190.067 122.275L189.58 124.215C186.791 123.514 184.196 122.15 182.021 120.249 178.687 123.169 174.451 124.766 169.991 124.766 165.521 124.766 161.28 123.169 157.945 120.249 154.609 123.169 150.368 124.766 145.898 124.766 141.453 124.766 137.359 123.209 134.001 120.251 130.645 123.209 126.551 124.766 122.105 124.766 117.576 124.766 113.336 123.207 110.061 120.356 106.703 123.312 102.515 124.943 98.155 124.978L98.155 124.979M158.074 134.772C153.666 134.772 149.607 133.216 146.278 130.262 142.95 133.216 138.892 134.772 134.483 134.772 130.05 134.772 125.845 133.176 122.538 130.26 119.231 133.176 115.026 134.772 110.594 134.772 106.184 134.772 101.991 133.176 98.686 130.26 95.38 133.176 91.181 134.772 86.76 134.772 82.352 134.772 78.294 133.216 74.965 130.262 71.636 133.216 67.578 134.772 63.169 134.772L63.169 132.772C67.358 132.772 71.195 131.184 74.266 128.181L74.965 127.497 75.664 128.181C78.734 131.184 82.572 132.772 86.76 132.772 90.973 132.772 94.96 131.141 97.987 128.181L98.686 127.497 99.385 128.181C102.412 131.141 106.393 132.772 110.594 132.772 114.818 132.772 118.812 131.141 121.839 128.181L122.538 127.497 123.237 128.181C126.264 131.141 130.257 132.772 134.483 132.772 138.671 132.772 142.508 131.184 145.579 128.181L146.278 127.497 146.977 128.181C150.048 131.184 153.885 132.772 158.074 132.772 162.299 132.772 166.292 131.141 169.319 128.181L170.018 127.497 170.717 128.181C173.321 130.728 176.739 132.329 180.34 132.691L180.141 134.681C176.405 134.306 172.845 132.745 170.019 130.259 166.712 133.176 162.506 134.772 158.074 134.772"/>
    <polygon fill="#48515A" points="113.035 112.979 115.035 112.979 115.035 77.979 113.035 77.979"/>
    <path fill="#48515A" d="M145.992,110.979 L124.035,110.979 L124.035,108.979 L145.992,108.979 C146.552,108.979 146.811,108.546 146.877,108.414 C146.947,108.276 147.143,107.791 146.792,107.322 L114.241,63.894 L96.068,107.551 C95.934,107.874 95.971,108.23 96.169,108.528 C96.36,108.815 96.66,108.979 96.991,108.979 L114.035,108.979 L114.035,110.979 L96.991,110.979 C95.995,110.979 95.065,110.477 94.505,109.638 C93.938,108.786 93.832,107.719 94.222,106.782 L113.741,59.892 L148.391,106.122 C149.083,107.044 149.188,108.264 148.667,109.308 C148.152,110.338 147.126,110.979 145.992,110.979"/>
    <path fill="#48515A" d="M113.989 75.862C113.729 75.862 113.469 75.753 113.29 75.572 113.189 75.482 113.119 75.372 113.069 75.242 113.02 75.122 112.989 74.992 112.989 74.862 112.989 74.732 113.02 74.603 113.069 74.482 113.119 74.353 113.189 74.253 113.29 74.152 113.56 73.882 114.009 73.782 114.369 73.942 114.5 73.992 114.609 74.063 114.699 74.152 114.889 74.342 114.989 74.603 114.989 74.862 114.989 75.122 114.889 75.382 114.699 75.572 114.609 75.662 114.5 75.732 114.369 75.782 114.25 75.833 114.119 75.862 113.989 75.862M144.614 120.778L143.413 119.179 148.999 114.979 142.035 114.979 142.035 112.979 151.992 112.979C152.422 112.979 152.804 113.254 152.94 113.662 153.077 114.07 152.937 114.519 152.592 114.778L144.614 120.778"/>
    <path fill="#48515A" d="M97.306,120.687 L91.285,114.687 C90.998,114.401 90.913,113.971 91.067,113.597 C91.222,113.223 91.586,112.979 91.991,112.979 L143.035,112.979 L143.035,114.979 L94.411,114.979 L98.718,119.27 L97.306,120.687"/>
    <polygon fill="#48515A" points="117.035 113.979 119.035 113.979 119.035 93.979 117.035 93.979"/>
    <path fill="#48515A" d="M117.989,90.862 C117.729,90.862 117.469,90.762 117.279,90.572 C117.1,90.382 116.989,90.132 116.989,89.862 C116.989,89.603 117.1,89.342 117.279,89.152 C117.52,88.923 117.859,88.822 118.189,88.882 C118.25,88.892 118.31,88.912 118.369,88.942 C118.429,88.962 118.489,89.003 118.549,89.032 C118.6,89.072 118.649,89.112 118.699,89.152 C118.79,89.253 118.859,89.362 118.919,89.482 C118.969,89.603 118.989,89.732 118.989,89.862 C118.989,90.132 118.889,90.382 118.699,90.572 C118.649,90.612 118.6,90.662 118.549,90.692 C118.489,90.732 118.429,90.762 118.369,90.793 C118.31,90.813 118.25,90.833 118.189,90.842 C118.119,90.862 118.06,90.862 117.989,90.862"/>
    <polygon fill="#48515A" points="83.035 71.979 85.035 71.979 85.035 67.979 83.035 67.979"/>
    <polygon fill="#48515A" points="83.035 81.979 85.035 81.979 85.035 77.979 83.035 77.979"/>
    <polygon fill="#48515A" points="87.035 75.979 91.035 75.979 91.035 73.979 87.035 73.979"/>
    <polygon fill="#48515A" points="77.035 75.979 81.035 75.979 81.035 73.979 77.035 73.979"/>
    <path fill="#FFD15D" d="M144.494,150.896 C144.494,151.724 143.822,152.396 142.994,152.396 C142.166,152.396 141.494,151.724 141.494,150.896 C141.494,150.067 142.166,149.396 142.994,149.396 C143.822,149.396 144.494,150.067 144.494,150.896"/>
    <polyline fill="#48515A" points="105.609 211.04 103.609 211.04 103.609 200.04 66.611 200.04 66.611 211.04 64.611 211.04 64.611 198.04 105.609 198.04 105.609 211.04"/>
    <polygon fill="#5FE0ED" points="59.611 221.04 107.73 221.04 107.73 208.046 59.611 208.046"/>
    <path fill="#48515A" d="M73.61,216.04 L69.611,216.04 C69.059,216.04 68.611,215.592 68.611,215.04 C68.611,214.488 69.059,214.04 69.611,214.04 L73.61,214.04 C74.162,214.04 74.61,214.488 74.61,215.04 C74.61,215.592 74.162,216.04 73.61,216.04"/>
    <path fill="#48515A" d="M67.611,214.04 C67.06,214.04 66.611,214.489 66.611,215.04 C66.611,215.591 67.06,216.04 67.611,216.04 C68.163,216.04 68.611,215.591 68.611,215.04 C68.611,214.489 68.163,214.04 67.611,214.04 Z M67.611,218.04 C65.957,218.04 64.611,216.694 64.611,215.04 C64.611,213.386 65.957,212.04 67.611,212.04 C69.266,212.04 70.611,213.386 70.611,215.04 C70.611,216.694 69.266,218.04 67.611,218.04 Z"/>
    <path fill="#DEDEDD" d="M50.832,137.514 L50.832,153.306 L61.86,162.831 C64.229,165.2 67.453,166.512 70.803,166.47 L74.125,166.428 L61.839,155.883 L61.839,145.519 C61.839,142.535 60.768,139.9 58.837,138.273 L58.837,137.514 C58.837,132.568 55.911,128.559 50.965,128.559 L50.965,129.632 C49.845,128.948 48.502,128.559 46.963,128.559 L46.963,129.632 C49.443,131.146 50.832,134.107 50.832,137.514"/>
    <path fill="#475059" d="M74.124,167.428 C73.894,167.428 73.663,167.349 73.474,167.187 L60.839,156.342 L60.839,145.519 C60.839,142.817 59.875,140.455 58.193,139.037 L57.837,138.737 L57.837,137.514 C57.837,133.554 55.712,129.559 50.965,129.559 L47.963,129.559 L47.963,129.632 C47.963,130.184 47.515,130.632 46.963,130.632 C46.411,130.632 45.963,130.184 45.963,129.632 L45.963,127.559 L50.965,127.559 C56.189,127.559 59.837,131.652 59.837,137.514 L59.837,137.826 C61.75,139.64 62.839,142.414 62.839,145.519 L62.839,155.423 L74.776,165.669 C75.195,166.029 75.244,166.66 74.884,167.079 C74.686,167.31 74.406,167.428 74.124,167.428"/>
    <path fill="#475059" d="M98.915,199.441 C98.363,199.441 97.915,198.993 97.915,198.441 L97.915,176.585 C97.915,174.132 96.96,171.827 95.226,170.093 L71.713,146.579 C69.149,149.909 69.514,155.015 72.709,158.21 L82.337,167.324 L70.816,167.47 C67.247,167.508 63.697,166.082 61.153,163.538 L49.832,153.764 L49.832,137.514 C49.832,133.844 48.007,130.143 43.96,129.621 L43.96,159.017 L71.938,185.683 L71.938,198.358 C71.938,198.91 71.49,199.358 70.938,199.358 C70.386,199.358 69.938,198.91 69.938,198.358 L69.938,186.54 L41.96,159.874 L41.96,127.559 L42.96,127.559 C48.184,127.559 51.832,131.652 51.832,137.514 L51.832,152.849 L62.514,162.074 C64.731,164.289 67.723,165.51 70.79,165.47 L77.381,165.386 L71.314,159.643 C69.325,157.654 68.141,154.894 68.046,152.051 C67.949,149.102 68.983,146.389 70.96,144.412 L71.667,143.705 L96.64,168.679 C98.752,170.791 99.915,173.598 99.915,176.585 L99.915,198.441 C99.915,198.993 99.467,199.441 98.915,199.441"/>
    <polyline fill="#48515A" points="178.093 211.04 176.093 211.04 176.093 200.04 139.094 200.04 139.094 211.04 137.094 211.04 137.094 198.04 178.093 198.04 178.093 211.04"/>
    <polygon fill="#5FE0ED" points="134.974 221.04 183.093 221.04 183.093 208.046 134.974 208.046"/>
    <path fill="#48515A" d="M173.093,216.04 L169.094,216.04 C168.542,216.04 168.094,215.592 168.094,215.04 C168.094,214.488 168.542,214.04 169.094,214.04 L173.093,214.04 C173.646,214.04 174.093,214.488 174.093,215.04 C174.093,215.592 173.646,216.04 173.093,216.04"/>
    <path fill="#48515A" d="M175.093,214.04 C174.542,214.04 174.093,214.489 174.093,215.04 C174.093,215.591 174.542,216.04 175.093,216.04 C175.645,216.04 176.093,215.591 176.093,215.04 C176.093,214.489 175.645,214.04 175.093,214.04 Z M175.093,218.04 C173.439,218.04 172.093,216.694 172.093,215.04 C172.093,213.386 173.439,212.04 175.093,212.04 C176.748,212.04 178.093,213.386 178.093,215.04 C178.093,216.694 176.748,218.04 175.093,218.04 Z"/>
    <path fill="#DEDEDD" d="M191.872,137.514 L191.872,153.306 L180.844,162.831 C178.475,165.2 175.251,166.512 171.901,166.47 L168.579,166.428 L180.865,155.883 L180.865,145.519 C180.865,142.535 181.936,139.9 183.867,138.273 L183.867,137.514 C183.867,132.568 186.793,128.559 191.739,128.559 L191.739,129.632 C192.859,128.948 194.202,128.559 195.741,128.559 L195.741,129.632 C193.261,131.146 191.872,134.107 191.872,137.514"/>
    <path fill="#475059" d="M168.579,167.428 C168.297,167.428 168.018,167.31 167.82,167.079 C167.46,166.66 167.508,166.029 167.927,165.669 L179.865,155.423 L179.865,145.519 C179.865,142.414 180.954,139.64 182.867,137.826 L182.867,137.514 C182.867,131.652 186.515,127.559 191.739,127.559 L196.741,127.559 L196.741,129.632 C196.741,130.184 196.293,130.632 195.741,130.632 C195.188,130.632 194.741,130.184 194.741,129.632 L194.741,129.559 L191.739,129.559 C186.992,129.559 184.867,133.554 184.867,137.514 L184.867,138.737 L184.511,139.037 C182.83,140.455 181.865,142.817 181.865,145.519 L181.865,156.342 L169.23,167.187 C169.042,167.349 168.81,167.428 168.579,167.428"/>
    <path fill="#475059" d="M143.789,199.441 C143.236,199.441 142.789,198.993 142.789,198.441 L142.789,176.585 C142.789,173.599 143.952,170.791 146.064,168.679 L171.039,143.706 L171.745,144.412 C175.776,148.445 175.623,155.411 171.41,159.624 L165.323,165.386 L171.914,165.47 C174.982,165.511 177.972,164.289 180.137,162.124 L190.872,152.849 L190.872,137.514 C190.872,131.652 194.52,127.559 199.744,127.559 L200.744,127.559 L200.744,159.874 L172.766,186.54 L172.766,198.358 C172.766,198.91 172.319,199.358 171.766,199.358 C171.213,199.358 170.766,198.91 170.766,198.358 L170.766,185.683 L198.744,159.017 L198.744,129.621 C194.697,130.143 192.872,133.844 192.872,137.514 L192.872,153.764 L181.498,163.588 C179.045,166.044 175.592,167.471 172.053,167.471 C171.999,167.471 171.944,167.47 171.888,167.47 L160.368,167.324 L170.015,158.191 C173.192,155.013 173.556,149.909 170.992,146.579 L147.478,170.093 C145.744,171.827 144.789,174.133 144.789,176.585 L144.789,198.441 C144.789,198.993 144.341,199.441 143.789,199.441"/>
    <polygon fill="#48515A" points="193.101 192.051 195.101 192.051 195.101 188.051 193.101 188.051"/>
    <polygon fill="#48515A" points="193.101 202.051 195.101 202.051 195.101 198.051 193.101 198.051"/>
    <polygon fill="#48515A" points="197.101 196.051 201.101 196.051 201.101 194.051 197.101 194.051"/>
    <polygon fill="#48515A" points="187.101 196.051 191.101 196.051 191.101 194.051 187.101 194.051"/>
    <path fill="#48515A" d="M59.04,98.043 C57.385,98.043 56.04,99.388 56.04,101.043 C56.04,102.697 57.385,104.043 59.04,104.043 C60.694,104.043 62.04,102.697 62.04,101.043 C62.04,99.388 60.694,98.043 59.04,98.043 Z M59.04,106.043 C56.283,106.043 54.04,103.799 54.04,101.043 C54.04,98.286 56.283,96.043 59.04,96.043 C61.796,96.043 64.04,98.286 64.04,101.043 C64.04,103.799 61.796,106.043 59.04,106.043 Z"/>
    <path fill="#FFD15D" d="M99.04,43.043 C99.04,44.147 98.144,45.043 97.04,45.043 C95.935,45.043 95.04,44.147 95.04,43.043 C95.04,41.938 95.935,41.043 97.04,41.043 C98.144,41.043 99.04,41.938 99.04,43.043"/>
  </g>
</svg>
