<svg xmlns="http://www.w3.org/2000/svg" width="250" height="250" viewBox="0 0 250 250">
  <g fill="none" fill-rule="evenodd">
    <path fill="#5FE0ED" d="M210.843,109.744 C210.843,110.849 209.947,111.744 208.843,111.744 C207.738,111.744 206.843,110.849 206.843,109.744 C206.843,108.64 207.738,107.744 208.843,107.744 C209.947,107.744 210.843,108.64 210.843,109.744"/>
    <polyline fill="#DEDEDD" points="171.676 96.715 163.881 77.838 152.843 73.108 171.509 118.78 171.676 108.762 171.676 96.715"/>
    <path fill="#48515A" d="M154.704,52.995 L173.837,99.33 L181.743,83.432 L195.889,97.579 L199.312,94.156 L185.036,79.879 L198.535,71.78 L154.704,52.995 Z M173.669,104.161 L150.983,49.225 L202.917,71.482 L188.26,80.276 L202.14,94.156 L195.889,100.407 L182.295,86.813 L173.669,104.161 Z"/>
    <path fill="#FFD15D" d="M188.843,119.744 C188.843,120.849 187.947,121.744 186.843,121.744 C185.738,121.744 184.843,120.849 184.843,119.744 C184.843,118.64 185.738,117.744 186.843,117.744 C187.947,117.744 188.843,118.64 188.843,119.744"/>
    <polyline fill="#475059" points="94.884 51.499 69.884 51.499 69.884 49.499 92.884 49.499 92.884 30.224 94.884 30.224 94.884 51.499"/>
    <polyline fill="#475059" points="161.887 148.492 80.842 148.492 80.842 146.492 159.887 146.492 159.887 71.278 161.887 71.278 161.887 148.492"/>
    <polyline fill="#475059" points="70.884 143.113 68.884 143.113 68.884 50.034 93.518 29.224 161.887 29.224 161.887 54.528 159.887 54.528 159.887 31.224 94.251 31.224 70.884 50.963 70.884 143.113"/>
    <polyline fill="#FFD15D" points="78.085 47.498 90.885 47.498 90.885 36.685 78.085 47.498"/>
    <polygon fill="#475059" points="91.175 159.777 152.509 159.777 152.509 157.777 91.175 157.777"/>
    <polygon fill="#475059" points="170.901 141.447 172.901 141.447 172.901 97.778 170.901 97.778"/>
    <polyline fill="#475059" points="172.901 59.278 170.901 59.278 170.901 42.51 163.874 42.51 163.874 40.51 172.901 40.51 172.901 59.278"/>
    <polyline fill="#475059" points="88.102 74.857 86.102 74.857 86.102 63.857 84.102 63.857 84.102 61.857 88.102 61.857 88.102 74.857"/>
    <polygon fill="#475059" points="84.102 75.857 90.101 75.857 90.101 73.857 84.102 73.857"/>
    <path fill="#475059" d="M98.103,63.857 C96.449,63.857 95.103,65.203 95.103,66.857 L95.103,70.857 C95.103,72.511 96.449,73.857 98.103,73.857 C99.757,73.857 101.103,72.511 101.103,70.857 L101.103,66.857 C101.103,65.203 99.757,63.857 98.103,63.857 Z M98.103,75.857 C95.346,75.857 93.103,73.614 93.103,70.857 L93.103,66.857 C93.103,64.1 95.346,61.857 98.103,61.857 C100.86,61.857 103.103,64.1 103.103,66.857 L103.103,70.857 C103.103,73.614 100.86,75.857 98.103,75.857 Z"/>
    <polyline fill="#475059" points="110.102 74.857 108.102 74.857 108.102 63.857 106.102 63.857 106.102 61.857 110.102 61.857 110.102 74.857"/>
    <polygon fill="#475059" points="106.102 75.857 112.101 75.857 112.101 73.857 106.102 73.857"/>
    <path fill="#475059" d="M120.106,63.857 C118.452,63.857 117.106,65.203 117.106,66.857 L117.106,70.857 C117.106,72.511 118.452,73.857 120.106,73.857 C121.76,73.857 123.106,72.511 123.106,70.857 L123.106,66.857 C123.106,65.203 121.76,63.857 120.106,63.857 Z M120.106,75.857 C117.349,75.857 115.106,73.614 115.106,70.857 L115.106,66.857 C115.106,64.1 117.349,61.857 120.106,61.857 C122.863,61.857 125.106,64.1 125.106,66.857 L125.106,70.857 C125.106,73.614 122.863,75.857 120.106,75.857 Z"/>
    <polyline fill="#475059" points="132.104 74.857 130.104 74.857 130.104 63.857 128.105 63.857 128.105 61.857 132.104 61.857 132.104 74.857"/>
    <polygon fill="#475059" points="128.105 75.857 134.103 75.857 134.103 73.857 128.105 73.857"/>
    <path fill="#475059" d="M142.106 63.857C140.452 63.857 139.106 65.203 139.106 66.857L139.106 70.857C139.106 72.511 140.452 73.857 142.106 73.857 143.76 73.857 145.106 72.511 145.106 70.857L145.106 66.857C145.106 65.203 143.76 63.857 142.106 63.857zM142.106 75.857C139.349 75.857 137.106 73.614 137.106 70.857L137.106 66.857C137.106 64.1 139.349 61.857 142.106 61.857 144.863 61.857 147.106 64.1 147.106 66.857L147.106 70.857C147.106 73.614 144.863 75.857 142.106 75.857zM86.103 81.857C84.449 81.857 83.103 83.203 83.103 84.857L83.103 88.857C83.103 90.511 84.449 91.857 86.103 91.857 87.757 91.857 89.103 90.511 89.103 88.857L89.103 84.857C89.103 83.203 87.757 81.857 86.103 81.857zM86.103 93.857C83.346 93.857 81.103 91.614 81.103 88.857L81.103 84.857C81.103 82.1 83.346 79.857 86.103 79.857 88.86 79.857 91.103 82.1 91.103 84.857L91.103 88.857C91.103 91.614 88.86 93.857 86.103 93.857z"/>
    <polyline fill="#475059" points="98.102 92.857 96.102 92.857 96.102 81.857 94.102 81.857 94.102 79.857 98.102 79.857 98.102 92.857"/>
    <polygon fill="#475059" points="94.102 93.857 100.101 93.857 100.101 91.857 94.102 91.857"/>
    <path fill="#475059" d="M108.106,81.857 C106.452,81.857 105.106,83.203 105.106,84.857 L105.106,88.857 C105.106,90.511 106.452,91.857 108.106,91.857 C109.76,91.857 111.106,90.511 111.106,88.857 L111.106,84.857 C111.106,83.203 109.76,81.857 108.106,81.857 Z M108.106,93.857 C105.349,93.857 103.106,91.614 103.106,88.857 L103.106,84.857 C103.106,82.1 105.349,79.857 108.106,79.857 C110.863,79.857 113.106,82.1 113.106,84.857 L113.106,88.857 C113.106,91.614 110.863,93.857 108.106,93.857 Z"/>
    <polyline fill="#475059" points="120.104 92.857 118.104 92.857 118.104 81.857 116.105 81.857 116.105 79.857 120.104 79.857 120.104 92.857"/>
    <polygon fill="#475059" points="116.105 93.857 122.103 93.857 122.103 91.857 116.105 91.857"/>
    <path fill="#475059" d="M130.106,81.857 C128.452,81.857 127.106,83.203 127.106,84.857 L127.106,88.857 C127.106,90.511 128.452,91.857 130.106,91.857 C131.76,91.857 133.106,90.511 133.106,88.857 L133.106,84.857 C133.106,83.203 131.76,81.857 130.106,81.857 Z M130.106,93.857 C127.349,93.857 125.106,91.614 125.106,88.857 L125.106,84.857 C125.106,82.1 127.349,79.857 130.106,79.857 C132.863,79.857 135.106,82.1 135.106,84.857 L135.106,88.857 C135.106,91.614 132.863,93.857 130.106,93.857 Z"/>
    <polyline fill="#475059" points="142.104 92.857 140.104 92.857 140.104 81.857 138.105 81.857 138.105 79.857 142.104 79.857 142.104 92.857"/>
    <polygon fill="#475059" points="138.105 93.857 144.103 93.857 144.103 91.857 138.105 91.857"/>
    <polyline fill="#475059" points="88.102 109.876 86.102 109.876 86.102 98.876 84.102 98.876 84.102 96.876 88.102 96.876 88.102 109.876"/>
    <polygon fill="#475059" points="84.102 110.876 90.101 110.876 90.101 108.876 84.102 108.876"/>
    <path fill="#475059" d="M98.103,98.876 C96.449,98.876 95.103,100.222 95.103,101.876 L95.103,105.876 C95.103,107.53 96.449,108.876 98.103,108.876 C99.757,108.876 101.103,107.53 101.103,105.876 L101.103,101.876 C101.103,100.222 99.757,98.876 98.103,98.876 Z M98.103,110.876 C95.346,110.876 93.103,108.633 93.103,105.876 L93.103,101.876 C93.103,99.119 95.346,96.876 98.103,96.876 C100.86,96.876 103.103,99.119 103.103,101.876 L103.103,105.876 C103.103,108.633 100.86,110.876 98.103,110.876 Z"/>
    <polyline fill="#475059" points="110.102 109.876 108.102 109.876 108.102 98.876 106.102 98.876 106.102 96.876 110.102 96.876 110.102 109.876"/>
    <polygon fill="#475059" points="106.102 110.876 112.101 110.876 112.101 108.876 106.102 108.876"/>
    <path fill="#475059" d="M120.106,98.876 C118.452,98.876 117.106,100.222 117.106,101.876 L117.106,105.876 C117.106,107.53 118.452,108.876 120.106,108.876 C121.76,108.876 123.106,107.53 123.106,105.876 L123.106,101.876 C123.106,100.222 121.76,98.876 120.106,98.876 Z M120.106,110.876 C117.349,110.876 115.106,108.633 115.106,105.876 L115.106,101.876 C115.106,99.119 117.349,96.876 120.106,96.876 C122.863,96.876 125.106,99.119 125.106,101.876 L125.106,105.876 C125.106,108.633 122.863,110.876 120.106,110.876 Z"/>
    <polyline fill="#475059" points="132.104 109.876 130.104 109.876 130.104 98.876 128.105 98.876 128.105 96.876 132.104 96.876 132.104 109.876"/>
    <polygon fill="#475059" points="128.105 110.876 134.103 110.876 134.103 108.876 128.105 108.876"/>
    <path fill="#475059" d="M142.106 98.876C140.452 98.876 139.106 100.222 139.106 101.876L139.106 105.876C139.106 107.53 140.452 108.876 142.106 108.876 143.76 108.876 145.106 107.53 145.106 105.876L145.106 101.876C145.106 100.222 143.76 98.876 142.106 98.876zM142.106 110.876C139.349 110.876 137.106 108.633 137.106 105.876L137.106 101.876C137.106 99.119 139.349 96.876 142.106 96.876 144.863 96.876 147.106 99.119 147.106 101.876L147.106 105.876C147.106 108.633 144.863 110.876 142.106 110.876zM86.103 116.876C84.449 116.876 83.103 118.222 83.103 119.876L83.103 123.876C83.103 125.53 84.449 126.876 86.103 126.876 87.757 126.876 89.103 125.53 89.103 123.876L89.103 119.876C89.103 118.222 87.757 116.876 86.103 116.876zM86.103 128.876C83.346 128.876 81.103 126.633 81.103 123.876L81.103 119.876C81.103 117.119 83.346 114.876 86.103 114.876 88.86 114.876 91.103 117.119 91.103 119.876L91.103 123.876C91.103 126.633 88.86 128.876 86.103 128.876z"/>
    <polyline fill="#475059" points="98.102 127.876 96.102 127.876 96.102 116.876 94.102 116.876 94.102 114.876 98.102 114.876 98.102 127.876"/>
    <polygon fill="#475059" points="94.102 128.876 100.101 128.876 100.101 126.876 94.102 126.876"/>
    <path fill="#475059" d="M108.106,116.876 C106.452,116.876 105.106,118.222 105.106,119.876 L105.106,123.876 C105.106,125.53 106.452,126.876 108.106,126.876 C109.76,126.876 111.106,125.53 111.106,123.876 L111.106,119.876 C111.106,118.222 109.76,116.876 108.106,116.876 Z M108.106,128.876 C105.349,128.876 103.106,126.633 103.106,123.876 L103.106,119.876 C103.106,117.119 105.349,114.876 108.106,114.876 C110.863,114.876 113.106,117.119 113.106,119.876 L113.106,123.876 C113.106,126.633 110.863,128.876 108.106,128.876 Z"/>
    <polyline fill="#475059" points="120.104 127.876 118.104 127.876 118.104 116.876 116.105 116.876 116.105 114.876 120.104 114.876 120.104 127.876"/>
    <polygon fill="#475059" points="116.105 128.876 122.103 128.876 122.103 126.876 116.105 126.876"/>
    <path fill="#475059" d="M130.106,116.876 C128.452,116.876 127.106,118.222 127.106,119.876 L127.106,123.876 C127.106,125.53 128.452,126.876 130.106,126.876 C131.76,126.876 133.106,125.53 133.106,123.876 L133.106,119.876 C133.106,118.222 131.76,116.876 130.106,116.876 Z M130.106,128.876 C127.349,128.876 125.106,126.633 125.106,123.876 L125.106,119.876 C125.106,117.119 127.349,114.876 130.106,114.876 C132.863,114.876 135.106,117.119 135.106,119.876 L135.106,123.876 C135.106,126.633 132.863,128.876 130.106,128.876 Z"/>
    <polyline fill="#475059" points="142.104 127.876 140.104 127.876 140.104 116.876 138.105 116.876 138.105 114.876 142.104 114.876 142.104 127.876"/>
    <polygon fill="#475059" points="138.105 128.876 144.103 128.876 144.103 126.876 138.105 126.876"/>
    <polyline fill="#48515A" points="107.412 210.776 105.412 210.776 105.412 199.776 68.414 199.776 68.414 210.776 66.414 210.776 66.414 197.776 107.412 197.776 107.412 210.776"/>
    <polygon fill="#5FE0ED" points="61.414 220.776 109.533 220.776 109.533 207.781 61.414 207.781"/>
    <path fill="#48515A" d="M75.413,215.776 L71.414,215.776 C70.861,215.776 70.414,215.328 70.414,214.776 C70.414,214.224 70.861,213.776 71.414,213.776 L75.413,213.776 C75.965,213.776 76.413,214.224 76.413,214.776 C76.413,215.328 75.965,215.776 75.413,215.776"/>
    <path fill="#48515A" d="M69.414,213.776 C68.862,213.776 68.414,214.225 68.414,214.776 C68.414,215.327 68.862,215.776 69.414,215.776 C69.965,215.776 70.414,215.327 70.414,214.776 C70.414,214.225 69.965,213.776 69.414,213.776 Z M69.414,217.776 C67.759,217.776 66.414,216.43 66.414,214.776 C66.414,213.122 67.759,211.776 69.414,211.776 C71.068,211.776 72.414,213.122 72.414,214.776 C72.414,216.43 71.068,217.776 69.414,217.776 Z"/>
    <path fill="#DEDEDD" d="M52.635,137.25 L52.635,153.042 L63.662,162.567 C66.031,164.936 69.256,166.248 72.606,166.205 L75.928,166.163 L63.642,155.618 L63.642,145.255 C63.642,142.271 62.571,139.636 60.64,138.008 L60.64,137.25 C60.64,132.304 57.714,128.295 52.768,128.295 L52.768,129.367 C51.647,128.684 50.305,128.295 48.766,128.295 L48.766,129.367 C51.246,130.881 52.635,133.843 52.635,137.25"/>
    <path fill="#475059" d="M75.928,167.164 C75.697,167.164 75.465,167.084 75.277,166.922 L62.642,156.078 L62.642,145.254 C62.642,142.553 61.677,140.19 59.996,138.773 L59.64,138.473 L59.64,137.25 C59.64,133.29 57.515,129.294 52.768,129.294 L49.766,129.294 L49.766,129.368 C49.766,129.92 49.319,130.368 48.766,130.368 C48.213,130.368 47.766,129.92 47.766,129.368 L47.766,127.294 L52.768,127.294 C57.992,127.294 61.64,131.388 61.64,137.25 L61.64,137.562 C63.553,139.376 64.642,142.149 64.642,145.254 L64.642,155.159 L76.58,165.405 C76.998,165.765 77.046,166.396 76.687,166.815 C76.49,167.045 76.21,167.164 75.928,167.164"/>
    <path fill="#475059" d="M100.718,199.177 C100.166,199.177 99.718,198.729 99.718,198.177 L99.718,176.32 C99.718,173.869 98.763,171.563 97.029,169.829 L73.515,146.315 C70.952,149.645 71.317,154.75 74.511,157.945 L84.139,167.06 L72.619,167.206 C69.029,167.229 65.499,165.817 62.956,163.274 L51.635,153.499 L51.635,137.25 C51.635,133.58 49.81,129.879 45.763,129.357 L45.763,158.753 L73.741,185.419 L73.741,198.093 C73.741,198.645 73.294,199.093 72.741,199.093 C72.188,199.093 71.741,198.645 71.741,198.093 L71.741,186.275 L43.763,159.609 L43.763,127.294 L44.763,127.294 C49.987,127.294 53.635,131.388 53.635,137.25 L53.635,152.584 L64.316,161.81 C66.535,164.025 69.522,165.246 72.593,165.206 L79.184,165.122 L73.117,159.378 C68.884,155.146 68.731,148.181 72.762,144.148 L73.468,143.441 L98.443,168.415 C100.555,170.526 101.718,173.334 101.718,176.32 L101.718,198.177 C101.718,198.729 101.271,199.177 100.718,199.177"/>
    <polyline fill="#48515A" points="179.896 210.776 177.896 210.776 177.896 199.776 140.897 199.776 140.897 210.776 138.897 210.776 138.897 197.776 179.896 197.776 179.896 210.776"/>
    <polygon fill="#5FE0ED" points="136.776 220.776 184.896 220.776 184.896 207.781 136.776 207.781"/>
    <path fill="#48515A" d="M174.896,215.776 L170.897,215.776 C170.344,215.776 169.897,215.328 169.897,214.776 C169.897,214.224 170.344,213.776 170.897,213.776 L174.896,213.776 C175.449,213.776 175.896,214.224 175.896,214.776 C175.896,215.328 175.449,215.776 174.896,215.776"/>
    <path fill="#48515A" d="M176.896,213.776 C176.344,213.776 175.896,214.225 175.896,214.776 C175.896,215.327 176.344,215.776 176.896,215.776 C177.448,215.776 177.896,215.327 177.896,214.776 C177.896,214.225 177.448,213.776 176.896,213.776 Z M176.896,217.776 C175.242,217.776 173.896,216.43 173.896,214.776 C173.896,213.122 175.242,211.776 176.896,211.776 C178.55,211.776 179.896,213.122 179.896,214.776 C179.896,216.43 178.55,217.776 176.896,217.776 Z"/>
    <path fill="#DEDEDD" d="M193.674,137.25 L193.674,153.042 L182.647,162.567 C180.278,164.936 177.053,166.248 173.704,166.205 L170.382,166.163 L182.668,155.618 L182.668,145.255 C182.668,142.271 183.739,139.636 185.67,138.008 L185.67,137.25 C185.67,132.304 188.596,128.295 193.541,128.295 L193.541,129.367 C194.662,128.684 196.005,128.295 197.544,128.295 L197.544,129.367 C195.063,130.881 193.674,133.843 193.674,137.25"/>
    <path fill="#475059" d="M170.381,167.164 C170.1,167.164 169.821,167.045 169.623,166.815 C169.263,166.396 169.311,165.765 169.73,165.405 L181.667,155.159 L181.667,145.254 C181.667,142.149 182.756,139.376 184.669,137.562 L184.669,137.25 C184.669,131.388 188.318,127.294 193.542,127.294 L198.543,127.294 L198.543,129.368 C198.543,129.92 198.096,130.368 197.543,130.368 C196.991,130.368 196.543,129.92 196.543,129.368 L196.543,129.294 L193.542,129.294 C188.794,129.294 186.669,133.29 186.669,137.25 L186.669,138.473 L186.314,138.773 C184.632,140.19 183.667,142.553 183.667,145.254 L183.667,156.078 L171.033,166.922 C170.844,167.084 170.613,167.164 170.381,167.164"/>
    <path fill="#475059" d="M145.591 199.177C145.039 199.177 144.591 198.729 144.591 198.177L144.591 176.32C144.591 173.334 145.754 170.526 147.867 168.415L172.841 143.441 173.547 144.148C177.579 148.181 177.425 155.146 173.212 159.359L167.125 165.122 173.716 165.206C176.788 165.247 179.775 164.024 181.94 161.86L192.674 152.584 192.674 137.25C192.674 131.388 196.323 127.294 201.546 127.294L202.546 127.294 202.546 159.609 174.569 186.275 174.569 198.093C174.569 198.645 174.122 199.093 173.569 199.093 173.016 199.093 172.569 198.645 172.569 198.093L172.569 185.419 200.546 158.753 200.546 129.357C196.5 129.879 194.674 133.58 194.674 137.25L194.674 153.499 183.3 163.324C180.848 165.779 177.395 167.207 173.856 167.207 173.801 167.207 173.747 167.206 173.691 167.206L162.17 167.06 171.818 157.926C174.995 154.749 175.359 149.645 172.794 146.315L149.281 169.829C147.546 171.563 146.591 173.869 146.591 176.32L146.591 198.177C146.591 198.729 146.144 199.177 145.591 199.177M55.808 97.257C53.688 97.257 51.962 98.983 51.962 101.103 51.962 103.224 53.688 104.95 55.808 104.95 57.928 104.95 59.654 103.224 59.654 101.103 59.654 98.983 57.928 97.257 55.808 97.257zM55.808 106.95C52.584 106.95 49.962 104.327 49.962 101.103 49.962 97.88 52.584 95.257 55.808 95.257 59.032 95.257 61.654 97.88 61.654 101.103 61.654 104.327 59.032 106.95 55.808 106.95z"/>
    <path fill="#475059" d="M55.808,111.103 C53.065,111.103 50.506,110.015 48.603,108.038 C46.701,106.062 45.711,103.461 45.816,100.714 C46.012,95.526 50.231,91.308 55.419,91.11 C58.148,91.007 60.768,91.996 62.743,93.898 C64.719,95.802 65.808,98.36 65.808,101.103 L65.808,103.873 C65.808,105.569 64.427,106.95 62.731,106.95 C61.035,106.95 59.654,105.569 59.654,103.873 L59.654,96.257 L61.654,96.257 L61.654,103.873 C61.654,104.466 62.137,104.95 62.731,104.95 C63.325,104.95 63.808,104.466 63.808,103.873 L63.808,101.103 C63.808,98.909 62.937,96.862 61.356,95.339 C59.776,93.818 57.694,93.009 55.496,93.109 C51.415,93.264 47.969,96.71 47.814,100.791 C47.731,102.989 48.522,105.07 50.044,106.651 C51.567,108.232 53.614,109.103 55.808,109.103 C56.889,109.103 57.936,108.892 58.921,108.475 C59.612,108.183 60.257,107.795 60.842,107.321 L62.102,108.874 C61.372,109.467 60.564,109.952 59.701,110.317 C58.468,110.839 57.158,111.103 55.808,111.103"/>
    <path fill="#FFD15D" d="M57.764,79.72 C57.764,80.825 56.869,81.72 55.764,81.72 C54.66,81.72 53.764,80.825 53.764,79.72 C53.764,78.615 54.66,77.72 55.764,77.72 C56.869,77.72 57.764,78.615 57.764,79.72"/>
    <polygon fill="#48515A" points="34.947 68.89 36.947 68.89 36.947 64.89 34.947 64.89"/>
    <polygon fill="#48515A" points="34.947 78.89 36.947 78.89 36.947 74.89 34.947 74.89"/>
    <polygon fill="#48515A" points="38.947 72.89 42.947 72.89 42.947 70.89 38.947 70.89"/>
    <polygon fill="#48515A" points="28.947 72.89 32.947 72.89 32.947 70.89 28.947 70.89"/>
    <polygon fill="#48515A" points="213.053 169.951 215.053 169.951 215.053 165.951 213.053 165.951"/>
    <polygon fill="#48515A" points="213.053 179.951 215.053 179.951 215.053 175.951 213.053 175.951"/>
    <polygon fill="#48515A" points="217.053 173.951 221.053 173.951 221.053 171.951 217.053 171.951"/>
    <polygon fill="#48515A" points="207.053 173.951 211.053 173.951 211.053 171.951 207.053 171.951"/>
  </g>
</svg>
