<svg xmlns="http://www.w3.org/2000/svg" width="250" height="250" viewBox="0 0 250 250">
  <g fill="none" fill-rule="evenodd">
    <path fill="#DEDEDD" d="M124.98,208.541 C80.797,208.541 44.98,172.724 44.98,128.541 C44.98,84.358 80.797,48.541 124.98,48.541 C169.163,48.541 204.98,84.358 204.98,128.541 C204.98,172.724 169.163,208.541 124.98,208.541 Z M124.98,38.541 C75.274,38.541 34.98,78.835 34.98,128.541 C34.98,178.247 75.274,218.541 124.98,218.541 C174.686,218.541 214.98,178.247 214.98,128.541 C214.98,78.835 174.686,38.541 124.98,38.541 Z"/>
    <path fill="#FFD15D" d="M124.98,187.341 C92.558,187.341 66.18,160.963 66.18,128.541 C66.18,96.119 92.558,69.742 124.98,69.742 C157.402,69.742 183.78,96.119 183.78,128.541 C183.78,160.963 157.402,187.341 124.98,187.341 Z M124.98,58.541 C86.32,58.541 54.98,89.881 54.98,128.541 C54.98,167.201 86.32,198.541 124.98,198.541 C163.64,198.541 194.98,167.201 194.98,128.541 C194.98,89.881 163.64,58.541 124.98,58.541 Z"/>
    <path fill="#FFD15D" d="M139.236,130.846 C139.357,130.094 139.437,129.328 139.437,128.541 C139.437,123.462 136.813,119.003 132.852,116.425 L152.913,80.286 C169.548,89.936 180.743,107.926 180.743,128.541 C180.743,129.549 180.713,130.549 180.66,131.543 L139.236,130.846 Z M124.98,184.304 C114.865,184.304 105.388,181.597 97.209,176.889 L118.442,141.501 C114.375,139.441 111.427,135.516 110.709,130.846 L69.3,131.543 C69.247,130.549 69.217,129.549 69.217,128.541 C69.217,107.927 80.412,89.938 97.045,80.287 L117.107,116.426 C113.146,119.004 110.523,123.463 110.523,128.541 C110.523,128.559 110.525,128.575 110.525,128.593 C110.553,120.652 116.995,114.223 124.942,114.223 C132.906,114.223 139.362,120.679 139.362,128.643 C139.362,134.242 136.163,139.085 131.499,141.474 L152.749,176.89 C144.571,181.598 135.094,184.304 124.98,184.304 Z M124.98,71.742 C93.661,71.742 68.18,97.222 68.18,128.541 C68.18,159.861 93.661,185.341 124.98,185.341 C156.299,185.341 181.78,159.861 181.78,128.541 C181.78,97.222 156.299,71.742 124.98,71.742 Z"/>
    <path fill="#48515A" d="M56.24 62.932C55.85 62.542 55.839 61.912 56.22 61.512 56.61 61.122 57.24 61.112 57.64 61.492 58.03 61.882 58.04 62.512 57.66 62.912 57.459 63.112 57.2 63.212 56.94 63.212 56.69 63.212 56.44 63.122 56.24 62.932zM53.54 65.882C53.129 65.512 53.089 64.872 53.46 64.462 53.46 64.462 53.46 64.462 53.46 64.472 53.83 64.052 54.459 64.022 54.879 64.392 55.29 64.762 55.32 65.392 54.95 65.802 54.75 66.022 54.48 66.132 54.21 66.132 53.97 66.132 53.73 66.052 53.54 65.882zM50.97 68.942C50.54 68.592 50.48 67.962 50.83 67.532 51.18 67.102 51.81 67.042 52.24 67.392 52.66 67.752 52.72 68.382 52.37 68.802 52.169 69.042 51.89 69.172 51.6 69.172 51.379 69.172 51.15 69.092 50.97 68.942zM48.52 72.102C48.08 71.772 47.99 71.142 48.33 70.702 48.66 70.262 49.29 70.172 49.73 70.502 50.169 70.842 50.26 71.462 49.92 71.912 49.73 72.172 49.43 72.302 49.12 72.302 48.91 72.302 48.7 72.242 48.52 72.102zM46.209 75.362C45.76 75.052 45.65 74.432 45.96 73.972 46.27 73.522 46.9 73.402 47.35 73.722 47.799 74.032 47.919 74.662 47.6 75.112 47.41 75.392 47.1 75.542 46.78 75.542 46.589 75.542 46.39 75.482 46.209 75.362zM44.049 78.722C43.58 78.432 43.44 77.812 43.73 77.342 44.03 76.882 44.65 76.742 45.11 77.032 45.58 77.332 45.72 77.942 45.43 78.412 45.24 78.712 44.91 78.882 44.58 78.882 44.4 78.882 44.209 78.832 44.049 78.722zM42.02 82.172C41.54 81.892 41.379 81.282 41.65 80.802 41.919 80.322 42.54 80.162 43.02 80.432 43.49 80.712 43.66 81.322 43.39 81.802L43.379 81.802C43.2 82.122 42.86 82.302 42.52 82.302 42.35 82.302 42.18 82.262 42.02 82.172zM40.15 85.702C39.66 85.442 39.46 84.842 39.72 84.352 39.97 83.862 40.57 83.672 41.07 83.922 41.56 84.182 41.749 84.782 41.49 85.272 41.32 85.612 40.97 85.812 40.6 85.812 40.45 85.812 40.29 85.782 40.15 85.702zM38.419 89.312C37.92 89.072 37.7 88.482 37.94 87.982 38.169 87.482 38.76 87.262 39.26 87.492 39.76 87.732 39.98 88.322 39.75 88.822 39.58 89.192 39.22 89.402 38.839 89.402 38.7 89.402 38.56 89.372 38.419 89.312zM36.85 92.982C36.339 92.772 36.1 92.192 36.31 91.682 36.52 91.172 37.11 90.932 37.62 91.142 38.129 91.352 38.37 91.932 38.16 92.442 37.999 92.832 37.629 93.062 37.23 93.062 37.11 93.062 36.98 93.042 36.85 92.982zM35.44 96.722C34.92 96.532 34.65 95.962 34.839 95.442 35.03 94.922 35.61 94.662 36.12 94.852 36.64 95.042 36.91 95.612 36.72 96.132 36.57 96.532 36.19 96.792 35.78 96.792 35.67 96.792 35.549 96.772 35.44 96.722zM34.18 100.522C33.66 100.352 33.36 99.792 33.53 99.272 33.7 98.742 34.26 98.452 34.79 98.612 35.32 98.782 35.61 99.342 35.44 99.872 35.299 100.302 34.91 100.572 34.49 100.572 34.39 100.572 34.28 100.552 34.18 100.522zM33.089 104.372C32.56 104.222 32.24 103.672 32.39 103.142 32.53 102.612 33.08 102.292 33.62 102.442 34.15 102.582 34.459 103.132 34.32 103.662 34.2 104.112 33.79 104.402 33.35 104.402 33.26 104.402 33.18 104.392 33.089 104.372zM32.16 108.262C31.62 108.142 31.28 107.602 31.41 107.062 31.53 106.522 32.07 106.182 32.6 106.312 33.14 106.432 33.48 106.972 33.36 107.502 33.249 107.972 32.839 108.282 32.379 108.282 32.31 108.282 32.23 108.272 32.16 108.262zM31.39 112.182C30.85 112.082 30.49 111.562 30.589 111.022 30.69 110.472 31.209 110.112 31.76 110.222 32.299 110.322 32.66 110.832 32.56 111.382 32.47 111.862 32.049 112.202 31.58 112.202 31.52 112.202 31.459 112.192 31.39 112.182zM30.79 116.142C30.249 116.062 29.87 115.552 29.94 115.012 30.02 114.462 30.53 114.082 31.07 114.162 31.62 114.232 31.999 114.742 31.92 115.292 31.85 115.792 31.42 116.152 30.93 116.152 30.89 116.152 30.839 116.142 30.79 116.142zM30.36 120.112C29.81 120.062 29.41 119.572 29.46 119.022 29.51 118.472 30.01 118.072 30.56 118.122 31.11 118.182 31.51 118.662 31.45 119.212 31.4 119.732 30.97 120.122 30.459 120.122 30.43 120.122 30.39 120.112 30.36 120.112zM30.089 124.102C29.54 124.072 29.12 123.602 29.15 123.052 29.18 122.502 29.65 122.072 30.21 122.112 30.76 122.142 31.18 122.612 31.15 123.162 31.12 123.692 30.68 124.102 30.15 124.102 30.129 124.102 30.11 124.102 30.089 124.102zM29.99 128.102C29.44 128.092 28.999 127.642 29.01 127.092 29.01 126.532 29.47 126.092 30.02 126.102 30.57 126.112 31.02 126.562 31.01 127.122 30.999 127.662 30.549 128.102 30 128.102 30 128.102 30 128.102 29.99 128.102zM29.03 131.132C29.02 130.582 29.45 130.112 30.01 130.102 30.56 130.092 31.02 130.522 31.03 131.072 31.049 131.622 30.61 132.092 30.06 132.102 30.049 132.102 30.04 132.102 30.03 132.102 29.49 132.102 29.049 131.672 29.03 131.132zM29.23 135.162C29.19 134.622 29.6 134.142 30.16 134.102 30.709 134.062 31.18 134.482 31.22 135.032 31.26 135.582 30.839 136.062 30.29 136.092 30.27 136.092 30.249 136.102 30.23 136.102 29.709 136.102 29.26 135.692 29.23 135.162zM29.589 139.192C29.53 138.642 29.92 138.152 30.47 138.092 31.02 138.022 31.52 138.422 31.58 138.972 31.64 139.522 31.249 140.012 30.7 140.072 30.66 140.082 30.62 140.082 30.58 140.082 30.08 140.082 29.65 139.702 29.589 139.192zM30.12 143.202C30.04 142.652 30.41 142.142 30.96 142.062 31.5 141.972 32.02 142.352 32.1 142.892 32.18 143.442 31.81 143.952 31.26 144.032 31.209 144.042 31.16 144.042 31.11 144.042 30.629 144.042 30.2 143.692 30.12 143.202zM30.82 147.182C30.72 146.632 31.07 146.112 31.61 146.002 32.15 145.902 32.68 146.252 32.78 146.792L32.79 146.792C32.89 147.332 32.54 147.862 31.999 147.962 31.93 147.982 31.87 147.982 31.799 147.982 31.33 147.982 30.919 147.652 30.82 147.182zM31.69 151.132C31.56 150.592 31.89 150.052 32.43 149.922 32.959 149.792 33.499 150.122 33.629 150.662L33.64 150.662C33.76 151.192 33.43 151.732 32.9 151.862 32.82 151.882 32.74 151.892 32.66 151.892 32.209 151.892 31.799 151.582 31.69 151.132zM32.72 155.032C32.57 154.502 32.87 153.952 33.41 153.802 33.94 153.642 34.49 153.952 34.64 154.482 34.79 155.012 34.49 155.572 33.96 155.722 33.87 155.752 33.77 155.762 33.68 155.762 33.249 155.762 32.85 155.472 32.72 155.032zM33.919 158.892C33.74 158.372 34.03 157.812 34.549 157.632 35.07 157.462 35.64 157.742 35.81 158.262L35.82 158.262C35.99 158.792 35.7 159.352 35.18 159.532 35.08 159.562 34.97 159.582 34.87 159.582 34.45 159.582 34.049 159.312 33.919 158.892zM35.27 162.702C35.08 162.192 35.339 161.612 35.85 161.412 36.37 161.222 36.95 161.472 37.15 161.992 37.339 162.512 37.08 163.092 36.56 163.282 36.45 163.332 36.33 163.352 36.21 163.352 35.81 163.352 35.43 163.102 35.27 162.702zM36.79 166.452C36.57 165.942 36.81 165.352 37.32 165.142 37.82 164.922 38.41 165.152 38.629 165.662 38.85 166.172 38.61 166.762 38.11 166.982 37.98 167.032 37.839 167.062 37.71 167.062 37.32 167.062 36.95 166.832 36.79 166.452zM38.47 170.132C38.23 169.632 38.44 169.042 38.94 168.802 39.43 168.562 40.03 168.762 40.27 169.262 40.51 169.762 40.299 170.362 39.799 170.602 39.66 170.672 39.52 170.702 39.37 170.702 39 170.702 38.64 170.492 38.47 170.132zM40.299 173.732C40.299 173.732 40.299 173.732 40.299 173.742 40.04 173.252 40.22 172.642 40.71 172.382 41.19 172.122 41.799 172.312 42.06 172.792 42.32 173.282 42.14 173.892 41.65 174.152 41.499 174.232 41.339 174.262 41.18 174.262 40.82 174.262 40.48 174.072 40.299 173.732zM42.28 177.262C42 176.782 42.16 176.172 42.629 175.892 43.11 175.612 43.72 175.772 43.999 176.242 44.28 176.722 44.129 177.332 43.65 177.612 43.49 177.712 43.31 177.752 43.14 177.752 42.799 177.752 42.47 177.582 42.28 177.262zM44.41 180.702C44.11 180.232 44.24 179.612 44.7 179.322 45.169 179.012 45.79 179.152 46.089 179.612 46.39 180.072 46.26 180.692 45.79 180.992 45.629 181.102 45.44 181.152 45.249 181.152 44.919 181.152 44.6 180.992 44.41 180.702zM46.68 184.042C46.36 183.592 46.47 182.972 46.92 182.652 47.37 182.332 47.99 182.432 48.31 182.882 48.629 183.332 48.53 183.962 48.08 184.282 47.9 184.402 47.7 184.462 47.499 184.462 47.19 184.462 46.879 184.322 46.68 184.042zM49.1 187.292C48.76 186.852 48.839 186.222 49.27 185.892 49.71 185.552 50.339 185.632 50.67 186.062 51.02 186.502 50.93 187.122 50.499 187.472 50.32 187.612 50.1 187.682 49.89 187.682 49.589 187.682 49.29 187.542 49.1 187.292zM51.64 190.432C51.29 190.012 51.339 189.382 51.76 189.022 52.18 188.662 52.81 188.722 53.169 189.142 53.53 189.562 53.47 190.192 53.049 190.552 52.86 190.712 52.64 190.782 52.41 190.782 52.12 190.782 51.839 190.662 51.64 190.432zM54.32 193.462C53.94 193.052 53.97 192.422 54.379 192.042 54.78 191.672 55.41 191.702 55.79 192.102 56.16 192.512 56.14 193.142 55.73 193.522 55.54 193.692 55.299 193.782 55.049 193.782 54.78 193.782 54.51 193.672 54.32 193.462zM57.11 196.372C57.11 196.372 57.11 196.372 57.12 196.372 56.72 195.982 56.72 195.352 57.11 194.962 57.499 194.572 58.14 194.572 58.53 194.962 58.919 195.352 58.919 195.982 58.53 196.372 58.33 196.572 58.08 196.672 57.82 196.672 57.57 196.672 57.31 196.572 57.11 196.372zM191.47 62.032C191.07 61.632 191.07 61.002 191.47 60.612 191.86 60.222 192.49 60.222 192.879 60.612 193.27 61.002 193.27 61.632 192.879 62.032 192.68 62.222 192.43 62.322 192.169 62.322 191.919 62.322 191.66 62.222 191.47 62.032zM194.2 64.882L194.209 64.882C193.83 64.472 193.86 63.842 194.26 63.472 194.669 63.092 195.299 63.122 195.68 63.532 196.049 63.932 196.03 64.562 195.62 64.942 195.43 65.122 195.18 65.202 194.94 65.202 194.669 65.202 194.4 65.092 194.2 64.882zM196.82 67.852C196.47 67.432 196.52 66.792 196.94 66.442 197.36 66.082 198 66.132 198.35 66.562 198.709 66.982 198.66 67.612 198.23 67.972 198.049 68.122 197.82 68.202 197.589 68.202 197.299 68.202 197.02 68.082 196.82 67.852zM199.32 70.922C198.98 70.492 199.06 69.862 199.5 69.522 199.93 69.182 200.56 69.262 200.9 69.702 201.24 70.132 201.16 70.762 200.72 71.102 200.54 71.242 200.32 71.312 200.11 71.312 199.81 71.312 199.52 71.182 199.32 70.922zM201.68 74.102C201.36 73.652 201.47 73.032 201.919 72.712 202.37 72.392 202.99 72.492 203.31 72.942 203.629 73.392 203.52 74.022 203.08 74.342 202.9 74.462 202.7 74.522 202.5 74.522 202.18 74.522 201.879 74.372 201.68 74.102zM203.91 77.372L203.91 77.382C203.61 76.912 203.74 76.292 204.2 75.992 204.669 75.692 205.28 75.822 205.589 76.292 205.89 76.752 205.75 77.372 205.29 77.672 205.12 77.782 204.93 77.832 204.75 77.832 204.419 77.832 204.1 77.672 203.91 77.372zM205.99 80.742C205.709 80.272 205.87 79.652 206.35 79.372 206.82 79.092 207.43 79.252 207.709 79.732 207.709 79.732 207.709 79.732 207.72 79.732 208 80.202 207.839 80.812 207.36 81.092 207.2 81.192 207.03 81.232 206.85 81.232 206.51 81.232 206.18 81.062 205.99 80.742zM207.93 84.192C207.669 83.712 207.85 83.102 208.339 82.842 208.83 82.582 209.44 82.762 209.7 83.252 209.95 83.742 209.77 84.342 209.29 84.602 209.14 84.682 208.97 84.722 208.82 84.722 208.459 84.722 208.11 84.532 207.93 84.192zM209.72 87.722C209.48 87.222 209.69 86.632 210.19 86.392 210.69 86.152 211.29 86.362 211.53 86.862 211.77 87.352 211.56 87.952 211.06 88.192 210.919 88.262 210.77 88.292 210.629 88.292 210.25 88.292 209.9 88.082 209.72 87.722zM211.36 91.322L211.37 91.322C211.15 90.822 211.379 90.232 211.89 90.012 212.4 89.792 212.98 90.032 213.2 90.542 213.419 91.042 213.18 91.632 212.68 91.852 212.549 91.902 212.419 91.932 212.29 91.932 211.9 91.932 211.53 91.702 211.36 91.322zM212.85 94.992C212.65 94.482 212.91 93.902 213.43 93.702 213.95 93.512 214.52 93.772 214.72 94.282 214.919 94.802 214.66 95.372 214.14 95.572 214.02 95.622 213.91 95.642 213.79 95.642 213.379 95.642 213 95.392 212.85 94.992zM214.18 98.722C214.01 98.202 214.29 97.632 214.81 97.462 215.339 97.282 215.9 97.562 216.08 98.092 216.25 98.612 215.97 99.182 215.44 99.352 215.339 99.392 215.23 99.412 215.129 99.412 214.709 99.412 214.32 99.142 214.18 98.722zM215.35 102.502C215.2 101.972 215.5 101.422 216.04 101.262 216.57 101.112 217.12 101.422 217.27 101.952 217.419 102.482 217.12 103.032 216.589 103.192 216.5 103.212 216.4 103.232 216.31 103.232 215.879 103.232 215.48 102.942 215.35 102.502zM216.36 106.332C216.23 105.792 216.56 105.252 217.1 105.122 217.64 104.992 218.18 105.322 218.31 105.862 218.43 106.402 218.11 106.942 217.57 107.072 217.49 107.092 217.41 107.102 217.33 107.102 216.879 107.102 216.47 106.792 216.36 106.332zM217.209 110.202L217.209 110.192C217.1 109.652 217.45 109.132 218 109.022 218.54 108.912 219.06 109.272 219.169 109.812 219.28 110.352 218.919 110.872 218.379 110.982 218.32 110.992 218.25 111.002 218.19 111.002 217.72 111.002 217.299 110.672 217.209 110.202zM217.89 114.092C217.81 113.552 218.18 113.042 218.73 112.952 219.27 112.872 219.79 113.242 219.87 113.792 219.959 114.332 219.58 114.842 219.03 114.932 218.98 114.942 218.93 114.942 218.879 114.942 218.4 114.942 217.97 114.592 217.89 114.092zM218.419 118.022L218.41 118.022C218.35 117.472 218.75 116.972 219.299 116.912 219.85 116.852 220.339 117.252 220.4 117.792 220.459 118.342 220.07 118.842 219.52 118.902 219.48 118.902 219.45 118.912 219.41 118.912 218.91 118.912 218.47 118.532 218.419 118.022zM218.77 121.962C218.73 121.412 219.15 120.932 219.7 120.892 220.25 120.852 220.73 121.272 220.77 121.822 220.799 122.372 220.39 122.852 219.839 122.892 219.81 122.892 219.79 122.892 219.77 122.892 219.24 122.892 218.81 122.482 218.77 121.962zM218.959 125.912C218.95 125.362 219.379 124.902 219.93 124.892 220.49 124.872 220.95 125.312 220.959 125.862 220.98 126.412 220.54 126.872 219.99 126.882 219.98 126.882 219.97 126.882 219.959 126.882 219.419 126.882 218.98 126.452 218.959 125.912zM219.97 130.882C219.419 130.872 218.98 130.422 218.99 129.872 218.99 129.322 219.45 128.882 220 128.892 220.549 128.892 221 129.352 220.99 129.902 220.98 130.442 220.53 130.882 219.99 130.882 219.98 130.882 219.98 130.882 219.97 130.882zM219.79 134.882C219.24 134.852 218.81 134.382 218.85 133.832 218.879 133.272 219.35 132.852 219.9 132.882 220.45 132.912 220.87 133.392 220.839 133.942 220.81 134.472 220.37 134.882 219.85 134.882 219.83 134.882 219.81 134.882 219.79 134.882zM219.44 138.862C218.89 138.812 218.49 138.322 218.54 137.772 218.589 137.222 219.08 136.822 219.629 136.872 220.18 136.932 220.58 137.422 220.53 137.972 220.48 138.482 220.04 138.872 219.54 138.872 219.5 138.872 219.47 138.872 219.44 138.862zM218.919 142.832C218.37 142.752 217.99 142.252 218.07 141.702 218.15 141.152 218.65 140.772 219.2 140.852 219.75 140.932 220.129 141.432 220.049 141.982 219.98 142.482 219.549 142.842 219.06 142.842 219.01 142.842 218.97 142.842 218.919 142.832zM218.24 146.772C217.69 146.672 217.33 146.152 217.44 145.602 217.53 145.062 218.06 144.702 218.6 144.802 219.14 144.902 219.5 145.422 219.4 145.972 219.31 146.452 218.89 146.792 218.419 146.792 218.36 146.792 218.299 146.782 218.24 146.772zM217.39 150.682C216.85 150.562 216.51 150.022 216.64 149.482 216.76 148.942 217.299 148.612 217.83 148.732 218.37 148.852 218.709 149.392 218.589 149.932 218.48 150.392 218.07 150.702 217.61 150.702 217.54 150.702 217.459 150.702 217.39 150.682zM216.379 154.552C215.839 154.402 215.53 153.852 215.68 153.322 215.82 152.792 216.37 152.472 216.9 152.622 217.44 152.762 217.75 153.312 217.6 153.852 217.48 154.292 217.08 154.582 216.64 154.582 216.56 154.582 216.47 154.572 216.379 154.552zM215.2 158.372C214.68 158.202 214.39 157.642 214.549 157.112 214.72 156.592 215.28 156.302 215.81 156.462 216.339 156.632 216.629 157.192 216.459 157.722 216.33 158.152 215.93 158.422 215.51 158.422 215.41 158.422 215.299 158.402 215.2 158.372zM213.87 162.142C213.35 161.952 213.08 161.382 213.27 160.862 213.459 160.342 214.04 160.072 214.56 160.262 215.08 160.452 215.339 161.032 215.15 161.542 215 161.952 214.62 162.202 214.209 162.202 214.1 162.202 213.98 162.182 213.87 162.142zM212.379 165.852C211.87 165.642 211.62 165.052 211.839 164.542 212.049 164.032 212.629 163.792 213.14 164.002 213.65 164.212 213.89 164.802 213.68 165.312 213.52 165.692 213.15 165.932 212.76 165.932 212.629 165.932 212.5 165.902 212.379 165.852zM210.73 169.492C210.23 169.262 210.01 168.662 210.24 168.162 210.48 167.662 211.07 167.452 211.57 167.682 212.07 167.912 212.29 168.512 212.06 169.012 211.89 169.372 211.53 169.592 211.15 169.592 211.01 169.592 210.87 169.562 210.73 169.492zM208.93 173.062C208.44 172.812 208.25 172.202 208.5 171.712 208.75 171.222 209.36 171.032 209.85 171.292 210.339 171.542 210.53 172.142 210.28 172.632 210.28 172.632 210.28 172.632 210.27 172.632 210.1 172.982 209.75 173.172 209.39 173.172 209.23 173.172 209.07 173.142 208.93 173.062zM206.98 176.552C206.5 176.272 206.33 175.672 206.61 175.192 206.879 174.712 207.49 174.542 207.97 174.822 208.45 175.092 208.62 175.702 208.339 176.182 208.16 176.502 207.82 176.682 207.47 176.682 207.299 176.682 207.129 176.642 206.98 176.552zM204.879 179.952C204.41 179.662 204.27 179.042 204.57 178.582 204.86 178.112 205.48 177.972 205.95 178.262 206.41 178.562 206.549 179.182 206.26 179.642 206.07 179.942 205.74 180.112 205.41 180.112 205.23 180.112 205.049 180.062 204.879 179.952zM202.64 183.272C202.19 182.952 202.07 182.332 202.39 181.882 202.7 181.422 203.32 181.312 203.78 181.622 204.23 181.942 204.339 182.562 204.03 183.012 203.839 183.292 203.53 183.442 203.209 183.442 203.01 183.442 202.82 183.392 202.64 183.272zM200.27 186.482C199.83 186.152 199.74 185.522 200.07 185.082 200.4 184.642 201.03 184.552 201.47 184.892 201.91 185.222 202 185.842 201.669 186.282 201.669 186.282 201.669 186.282 201.669 186.292 201.47 186.552 201.169 186.682 200.87 186.682 200.66 186.682 200.45 186.622 200.27 186.482zM197.76 189.592C197.33 189.242 197.27 188.612 197.62 188.182 197.97 187.762 198.6 187.702 199.03 188.052 199.45 188.402 199.52 189.032 199.169 189.462 198.97 189.702 198.68 189.822 198.39 189.822 198.169 189.822 197.94 189.742 197.76 189.592zM195.12 192.602C194.709 192.232 194.669 191.602 195.04 191.182 195.41 190.772 196.04 190.742 196.45 191.112 196.86 191.482 196.9 192.112 196.53 192.522 196.33 192.742 196.06 192.852 195.78 192.852 195.549 192.852 195.31 192.772 195.12 192.602zM192.36 195.492C191.959 195.102 191.95 194.472 192.339 194.082 192.72 193.682 193.36 193.672 193.75 194.062 194.15 194.442 194.16 195.082 193.77 195.472 193.58 195.672 193.31 195.772 193.049 195.772 192.799 195.772 192.549 195.682 192.36 195.492z"/>
    <path fill="#48515A" d="M59.944 193.549C24.074 157.678 24.074 99.312 59.944 63.441L61.358 64.855C26.267 99.946 26.267 157.044 61.358 192.135L59.944 193.549M190.051 193.549L188.637 192.135C223.728 157.044 223.729 99.947 188.638 64.855L190.052 63.441C225.922 99.312 225.922 157.678 190.051 193.549"/>
    <path fill="#48515A" d="M62.29 68.182C61.9 67.792 61.89 67.152 62.28 66.762 62.669 66.372 63.299 66.362 63.7 66.752 64.089 67.142 64.089 67.772 63.709 68.162 63.51 68.362 63.25 68.462 62.99 68.462 62.74 68.462 62.49 68.372 62.29 68.182zM59.58 71.122C59.169 70.752 59.14 70.122 59.51 69.712 59.879 69.292 60.51 69.262 60.919 69.632 61.33 70.002 61.37 70.632 61 71.042 60.799 71.262 60.53 71.372 60.25 71.372 60.01 71.372 59.78 71.292 59.58 71.122zM57.01 74.182C56.589 73.832 56.52 73.202 56.87 72.772 56.87 72.772 56.87 72.772 56.87 72.782 57.23 72.352 57.85 72.282 58.28 72.642 58.71 72.992 58.77 73.612 58.419 74.042 58.22 74.282 57.94 74.412 57.65 74.412 57.419 74.412 57.2 74.332 57.01 74.182zM54.589 77.362C54.14 77.032 54.049 76.402 54.379 75.962 54.709 75.522 55.339 75.432 55.78 75.762 56.22 76.092 56.32 76.712 55.99 77.162 55.79 77.422 55.49 77.562 55.19 77.562 54.98 77.562 54.77 77.492 54.589 77.362zM52.31 80.642C51.85 80.332 51.73 79.712 52.04 79.262 52.35 78.802 52.97 78.682 53.43 78.992 53.89 79.302 54.01 79.922 53.7 80.382 53.499 80.662 53.19 80.822 52.87 80.822 52.669 80.822 52.48 80.762 52.31 80.642zM50.18 84.032C49.71 83.742 49.56 83.132 49.85 82.662 50.14 82.192 50.76 82.042 51.23 82.322 51.7 82.612 51.85 83.232 51.56 83.702 51.37 84.012 51.04 84.182 50.7 84.182 50.53 84.182 50.35 84.132 50.18 84.032zM48.22 87.512C47.74 87.252 47.56 86.642 47.82 86.162 47.82 86.162 47.82 86.162 47.83 86.162 48.089 85.672 48.7 85.502 49.18 85.762 49.669 86.032 49.839 86.642 49.58 87.122 49.39 87.452 49.049 87.642 48.7 87.642 48.54 87.642 48.37 87.602 48.22 87.512zM46.419 91.082C45.919 90.842 45.72 90.242 45.96 89.752 46.2 89.252 46.799 89.042 47.299 89.292 47.79 89.532 48 90.132 47.749 90.632 47.58 90.982 47.23 91.192 46.86 91.192 46.71 91.192 46.56 91.152 46.419 91.082zM44.78 94.732C44.28 94.512 44.04 93.922 44.26 93.422 44.48 92.912 45.07 92.682 45.58 92.902 46.08 93.122 46.32 93.712 46.1 94.212 45.93 94.592 45.56 94.822 45.18 94.822 45.049 94.822 44.91 94.792 44.78 94.732zM43.32 98.462C42.799 98.262 42.54 97.682 42.74 97.172 42.93 96.652 43.51 96.392 44.03 96.592 44.54 96.782 44.799 97.362 44.61 97.882 44.46 98.282 44.07 98.522 43.669 98.522 43.549 98.522 43.43 98.502 43.32 98.462zM42.03 102.242C41.499 102.072 41.22 101.502 41.39 100.982 41.56 100.452 42.12 100.172 42.65 100.342 43.17 100.512 43.459 101.082 43.29 101.602 43.15 102.022 42.76 102.292 42.339 102.292 42.23 102.292 42.129 102.272 42.03 102.242zM40.91 106.082C40.379 105.932 40.07 105.382 40.22 104.852 40.36 104.322 40.91 104.012 41.45 104.152 41.98 104.302 42.29 104.852 42.14 105.392 42.02 105.832 41.62 106.122 41.18 106.122 41.089 106.122 40.999 106.112 40.91 106.082zM39.97 109.972C39.44 109.852 39.1 109.312 39.22 108.772 39.35 108.232 39.879 107.902 40.419 108.022 40.96 108.142 41.29 108.682 41.169 109.222 41.07 109.682 40.66 109.992 40.2 109.992 40.129 109.992 40.049 109.992 39.97 109.972zM39.21 113.902C38.67 113.802 38.31 113.282 38.41 112.742 38.51 112.192 39.03 111.832 39.57 111.932 40.12 112.032 40.48 112.552 40.379 113.092 40.29 113.572 39.87 113.912 39.39 113.912 39.339 113.912 39.28 113.912 39.21 113.902zM38.64 117.852C38.089 117.782 37.71 117.282 37.78 116.732 37.85 116.182 38.36 115.802 38.91 115.872 39.45 115.952 39.839 116.452 39.76 117.002 39.7 117.502 39.27 117.862 38.77 117.862 38.73 117.862 38.68 117.862 38.64 117.852zM38.25 121.832C37.69 121.792 37.29 121.302 37.339 120.752 37.379 120.202 37.87 119.792 38.419 119.842 38.97 119.892 39.379 120.382 39.33 120.932 39.28 121.452 38.839 121.842 38.33 121.842 38.299 121.842 38.28 121.842 38.25 121.832zM38.03 125.832C37.48 125.812 37.049 125.342 37.08 124.792 37.1 124.232 37.56 123.812 38.12 123.832 38.67 123.852 39.089 124.322 39.07 124.872 39.049 125.412 38.61 125.832 38.07 125.832 38.06 125.832 38.04 125.832 38.03 125.832zM36.999 128.832C36.99 128.282 37.44 127.832 37.99 127.832 38.54 127.832 39 128.272 39 128.822 39 129.382 38.549 129.832 37.999 129.832 37.45 129.832 36.999 129.382 36.999 128.832zM37.11 132.872C37.11 132.872 37.11 132.872 37.11 132.882 37.08 132.322 37.5 131.852 38.049 131.832 38.61 131.802 39.08 132.222 39.1 132.782 39.129 133.332 38.7 133.802 38.15 133.832 38.14 133.832 38.12 133.832 38.11 133.832 37.57 133.832 37.129 133.412 37.11 132.872zM37.4 136.912C37.35 136.362 37.749 135.872 38.299 135.822 38.85 135.772 39.33 136.172 39.39 136.722 39.44 137.272 39.04 137.762 38.49 137.812 38.46 137.812 38.419 137.822 38.39 137.822 37.879 137.822 37.45 137.432 37.4 136.912zM37.879 140.932C37.879 140.932 37.879 140.932 37.87 140.932 37.799 140.382 38.18 139.872 38.72 139.802 39.27 139.722 39.78 140.102 39.86 140.652L39.85 140.652C39.93 141.192 39.549 141.702 39 141.782 38.959 141.782 38.91 141.792 38.86 141.792 38.37 141.792 37.95 141.432 37.879 140.932zM38.54 144.922C38.43 144.382 38.79 143.852 39.33 143.752 39.879 143.652 40.4 144.002 40.5 144.552 40.6 145.092 40.249 145.612 39.7 145.712 39.64 145.732 39.58 145.732 39.52 145.732 39.04 145.732 38.629 145.402 38.54 144.922zM39.379 148.882C39.249 148.342 39.58 147.802 40.12 147.672 40.66 147.552 41.2 147.882 41.32 148.412 41.45 148.952 41.12 149.492 40.58 149.622 40.5 149.642 40.43 149.642 40.35 149.642 39.9 149.642 39.49 149.342 39.379 148.882zM40.4 152.792C40.249 152.262 40.56 151.702 41.089 151.552 41.62 151.402 42.169 151.712 42.33 152.242L42.32 152.242C42.48 152.772 42.169 153.322 41.64 153.482 41.54 153.502 41.45 153.512 41.36 153.512 40.93 153.512 40.53 153.232 40.4 152.792zM41.6 156.652C41.43 156.132 41.71 155.562 42.23 155.392 42.76 155.212 43.32 155.492 43.5 156.022L43.5 156.012C43.669 156.542 43.4 157.102 42.87 157.282 42.77 157.322 42.66 157.332 42.549 157.332 42.129 157.332 41.74 157.072 41.6 156.652zM42.98 160.462C42.98 160.462 42.98 160.462 42.99 160.462 42.78 159.942 43.04 159.362 43.549 159.162 44.07 158.962 44.65 159.222 44.85 159.732 45.049 160.252 44.79 160.822 44.28 161.032 44.16 161.072 44.04 161.092 43.92 161.092 43.52 161.092 43.14 160.852 42.98 160.462zM44.54 164.192C44.31 163.692 44.54 163.102 45.049 162.872 45.549 162.652 46.14 162.872 46.37 163.382 46.589 163.882 46.36 164.482 45.86 164.702 45.73 164.762 45.589 164.792 45.45 164.792 45.07 164.792 44.7 164.572 44.54 164.192zM46.26 167.852C46.26 167.852 46.26 167.852 46.27 167.852 46.02 167.362 46.22 166.762 46.71 166.512 47.209 166.262 47.81 166.462 48.049 166.962 48.299 167.452 48.1 168.052 47.61 168.302 47.46 168.372 47.31 168.402 47.16 168.402 46.79 168.402 46.44 168.202 46.26 167.852zM48.16 171.432C47.89 170.952 48.06 170.342 48.54 170.072 49.02 169.802 49.629 169.972 49.9 170.452 50.169 170.932 49.999 171.542 49.52 171.812 49.36 171.902 49.19 171.942 49.03 171.942 48.68 171.942 48.339 171.762 48.16 171.432zM50.209 174.912C49.92 174.442 50.07 173.832 50.54 173.542 51 173.242 51.62 173.392 51.91 173.862 52.2 174.322 52.06 174.942 51.589 175.232 51.43 175.342 51.24 175.382 51.06 175.382 50.73 175.382 50.4 175.222 50.209 174.912zM52.43 178.302C52.12 177.842 52.23 177.222 52.69 176.912 53.14 176.602 53.76 176.712 54.08 177.172 54.39 177.622 54.28 178.242 53.82 178.562 53.65 178.682 53.45 178.732 53.26 178.732 52.94 178.732 52.629 178.582 52.43 178.302zM54.799 181.582C54.47 181.142 54.549 180.512 54.99 180.182 55.43 179.842 56.06 179.932 56.39 180.372 56.73 180.812 56.64 181.442 56.2 181.772 56.02 181.912 55.81 181.972 55.6 181.972 55.29 181.972 54.999 181.842 54.799 181.582zM57.32 184.752C56.959 184.322 57.02 183.692 57.45 183.342 57.87 182.982 58.5 183.042 58.85 183.472 59.209 183.892 59.15 184.522 58.73 184.872 58.54 185.032 58.31 185.112 58.089 185.112 57.799 185.112 57.52 184.982 57.32 184.752zM59.98 187.792C59.61 187.392 59.629 186.752 60.04 186.382 60.45 186.012 61.08 186.042 61.459 186.452 61.83 186.852 61.799 187.492 61.39 187.862 61.2 188.032 60.96 188.122 60.72 188.122 60.45 188.122 60.169 188.012 59.98 187.792zM62.77 190.722C62.379 190.332 62.379 189.702 62.77 189.302 63.16 188.912 63.79 188.912 64.19 189.302 64.58 189.702 64.58 190.332 64.19 190.722 63.99 190.912 63.74 191.012 63.48 191.012 63.22 191.012 62.97 190.912 62.77 190.722zM185.81 67.682C185.419 67.292 185.419 66.662 185.81 66.272 186.2 65.882 186.83 65.882 187.22 66.272 187.61 66.662 187.61 67.292 187.22 67.682 187.03 67.882 186.77 67.982 186.51 67.982 186.26 67.982 186 67.882 185.81 67.682zM188.54 70.542C188.169 70.132 188.2 69.502 188.6 69.132 189.01 68.752 189.64 68.782 190.02 69.192 190.39 69.602 190.36 70.232 189.95 70.602 189.76 70.782 189.52 70.872 189.28 70.872 189.01 70.872 188.74 70.762 188.54 70.542zM191.14 73.522C190.79 73.092 190.839 72.462 191.27 72.112 191.69 71.762 192.32 71.812 192.669 72.242 193.03 72.662 192.97 73.292 192.549 73.652 192.36 73.802 192.129 73.882 191.91 73.882 191.62 73.882 191.339 73.762 191.14 73.522zM193.6 76.612C193.27 76.172 193.35 75.552 193.79 75.212 194.23 74.882 194.86 74.972 195.19 75.412 195.53 75.852 195.44 76.472 195 76.812 194.82 76.942 194.61 77.012 194.4 77.012 194.1 77.012 193.799 76.872 193.6 76.612zM195.919 79.822C195.6 79.362 195.72 78.742 196.169 78.432 196.629 78.122 197.25 78.232 197.56 78.692 197.879 79.142 197.76 79.762 197.31 80.082 197.129 80.202 196.94 80.252 196.74 80.252 196.419 80.252 196.11 80.102 195.919 79.822zM198.08 83.132C197.79 82.662 197.93 82.042 198.4 81.752 198.87 81.462 199.49 81.602 199.78 82.072 200.07 82.542 199.93 83.162 199.459 83.452 199.29 83.552 199.11 83.602 198.93 83.602 198.6 83.602 198.27 83.432 198.08 83.132zM200.089 86.532C199.82 86.052 199.99 85.442 200.48 85.172 200.959 84.902 201.57 85.082 201.839 85.562 202.1 86.042 201.93 86.652 201.45 86.922 201.299 87.002 201.129 87.052 200.97 87.052 200.62 87.052 200.28 86.862 200.089 86.532zM201.94 90.032C201.69 89.532 201.9 88.932 202.39 88.692 202.879 88.442 203.48 88.642 203.73 89.132 203.98 89.632 203.78 90.232 203.28 90.482 203.14 90.552 202.99 90.582 202.839 90.582 202.47 90.582 202.12 90.382 201.94 90.032zM203.629 93.602C203.4 93.102 203.629 92.512 204.14 92.292 204.64 92.062 205.23 92.292 205.45 92.792 205.68 93.302 205.45 93.892 204.95 94.112 204.81 94.172 204.68 94.202 204.54 94.202 204.16 94.202 203.79 93.982 203.629 93.602zM205.15 97.252C204.95 96.742 205.2 96.162 205.709 95.962 206.23 95.762 206.81 96.022 207.01 96.532 207.209 97.042 206.959 97.622 206.44 97.832 206.32 97.872 206.2 97.892 206.08 97.892 205.68 97.892 205.299 97.652 205.15 97.252zM206.49 100.972C206.32 100.452 206.6 99.882 207.12 99.702 207.65 99.532 208.209 99.812 208.39 100.332 208.56 100.852 208.28 101.422 207.76 101.602 207.65 101.632 207.549 101.652 207.44 101.652 207.02 101.652 206.629 101.392 206.49 100.972zM207.669 104.752C207.52 104.222 207.82 103.662 208.36 103.512 208.89 103.362 209.44 103.662 209.589 104.202 209.74 104.732 209.44 105.282 208.91 105.432 208.81 105.462 208.72 105.472 208.629 105.472 208.2 105.472 207.79 105.192 207.669 104.752zM208.669 108.572C208.54 108.032 208.879 107.492 209.41 107.372 209.95 107.242 210.49 107.572 210.61 108.112 210.61 108.112 210.61 108.112 210.62 108.112 210.74 108.652 210.41 109.192 209.87 109.312 209.79 109.332 209.72 109.342 209.64 109.342 209.19 109.342 208.78 109.032 208.669 108.572zM209.49 112.442C209.39 111.892 209.75 111.372 210.29 111.272 210.83 111.172 211.35 111.522 211.459 112.072 211.56 112.612 211.209 113.132 210.66 113.242 210.6 113.252 210.54 113.252 210.47 113.252 210 113.252 209.58 112.922 209.49 112.442zM210.14 116.342C210.06 115.792 210.44 115.282 210.99 115.212 211.53 115.132 212.04 115.512 212.12 116.062 212.2 116.602 211.82 117.112 211.27 117.192 211.22 117.202 211.169 117.202 211.129 117.202 210.64 117.202 210.209 116.842 210.14 116.342zM210.6 120.272L210.61 120.272C210.549 119.722 210.95 119.232 211.5 119.172 212.049 119.122 212.54 119.532 212.6 120.072 212.65 120.622 212.25 121.112 211.69 121.172 211.66 121.172 211.629 121.172 211.6 121.172 211.089 121.172 210.65 120.782 210.6 120.272zM210.89 124.212C210.86 123.662 211.29 123.192 211.839 123.162 212.39 123.132 212.86 123.562 212.89 124.112 212.91 124.662 212.49 125.132 211.94 125.162 211.919 125.162 211.91 125.162 211.89 125.162 211.36 125.162 210.919 124.742 210.89 124.212zM211 128.162C210.99 127.612 211.44 127.162 211.99 127.162 212.54 127.162 212.99 127.602 213 128.152 213 128.712 212.549 129.152 212 129.162 211.45 129.162 211 128.712 211 128.162zM211.879 133.162C211.33 133.132 210.9 132.672 210.919 132.112 210.94 131.562 211.41 131.132 211.959 131.162 212.51 131.182 212.94 131.652 212.919 132.202 212.9 132.732 212.45 133.162 211.919 133.162 211.91 133.162 211.89 133.162 211.879 133.162zM211.57 137.142C211.02 137.102 210.61 136.612 210.66 136.062 210.709 135.512 211.2 135.102 211.75 135.152 212.299 135.202 212.709 135.692 212.66 136.232 212.61 136.752 212.169 137.152 211.66 137.152 211.629 137.152 211.6 137.142 211.57 137.142zM211.089 141.112C210.54 141.042 210.16 140.542 210.23 139.992 210.299 139.442 210.81 139.062 211.35 139.132 211.9 139.212 212.28 139.712 212.209 140.252 212.14 140.762 211.709 141.122 211.22 141.122 211.18 141.122 211.129 141.122 211.089 141.112zM210.419 145.062C209.879 144.962 209.51 144.442 209.61 143.902 209.709 143.352 210.23 142.992 210.77 143.092 211.32 143.192 211.68 143.712 211.58 144.252 211.49 144.732 211.07 145.072 210.6 145.072 210.54 145.072 210.48 145.072 210.419 145.062zM209.57 148.972C209.03 148.842 208.7 148.312 208.82 147.772 208.94 147.232 209.48 146.892 210.02 147.022 210.549 147.142 210.89 147.682 210.77 148.212 210.66 148.682 210.25 148.992 209.79 148.992 209.72 148.992 209.64 148.982 209.57 148.972zM208.54 152.832C208.01 152.682 207.7 152.132 207.85 151.602 208 151.072 208.549 150.762 209.08 150.902 209.61 151.052 209.919 151.602 209.78 152.142 209.78 152.142 209.78 152.142 209.78 152.132 209.65 152.582 209.25 152.872 208.81 152.872 208.72 152.872 208.629 152.862 208.54 152.832zM207.339 156.652C206.82 156.472 206.53 155.912 206.7 155.382 206.879 154.862 207.44 154.572 207.959 154.742 208.49 154.922 208.78 155.482 208.6 156.012 208.459 156.432 208.07 156.702 207.65 156.702 207.549 156.702 207.44 156.682 207.339 156.652zM205.959 160.402C205.45 160.202 205.19 159.632 205.379 159.112 205.58 158.592 206.16 158.332 206.669 158.532 207.19 158.732 207.45 159.302 207.25 159.822 207.1 160.222 206.72 160.462 206.32 160.462 206.2 160.462 206.08 160.442 205.959 160.402zM204.41 164.082C203.91 163.862 203.669 163.282 203.9 162.772 204.12 162.262 204.7 162.032 205.209 162.252 205.72 162.472 205.95 163.062 205.73 163.572 205.56 163.942 205.2 164.172 204.81 164.172 204.68 164.172 204.54 164.142 204.41 164.082zM202.7 167.702C202.2 167.452 201.99 166.852 202.24 166.362 202.48 165.862 203.08 165.662 203.58 165.902 204.07 166.142 204.28 166.742 204.03 167.242 203.86 167.592 203.5 167.802 203.14 167.802 202.99 167.802 202.839 167.772 202.7 167.702zM200.81 171.222C200.33 170.962 200.15 170.352 200.419 169.872L200.41 169.872C200.68 169.382 201.29 169.212 201.77 169.472 202.26 169.742 202.43 170.342 202.169 170.832 201.98 171.162 201.64 171.352 201.29 171.352 201.129 171.352 200.959 171.312 200.81 171.222zM198.77 174.662C198.29 174.372 198.14 173.762 198.43 173.292 198.72 172.812 199.339 172.672 199.81 172.952 200.28 173.242 200.43 173.862 200.14 174.332 199.95 174.642 199.62 174.812 199.29 174.812 199.11 174.812 198.93 174.762 198.77 174.662zM196.56 178.002C196.11 177.692 195.99 177.072 196.299 176.612 196.6 176.152 197.23 176.032 197.68 176.342 198.14 176.652 198.26 177.272 197.95 177.732 197.76 178.012 197.44 178.172 197.12 178.172 196.93 178.172 196.73 178.112 196.56 178.002zM194.209 181.232C193.77 180.902 193.669 180.272 194.01 179.832 194.339 179.392 194.959 179.302 195.41 179.632 195.85 179.962 195.94 180.582 195.61 181.032 195.41 181.292 195.11 181.432 194.81 181.432 194.6 181.432 194.39 181.362 194.209 181.232zM191.709 184.352C191.29 184.002 191.22 183.372 191.57 182.942 191.919 182.522 192.549 182.452 192.98 182.802 193.41 183.152 193.47 183.782 193.12 184.212 192.919 184.452 192.629 184.582 192.339 184.582 192.12 184.582 191.9 184.502 191.709 184.352zM189.07 187.362C188.66 186.992 188.629 186.352 188.99 185.942L189 185.942C189.37 185.532 190 185.502 190.41 185.872 190.82 186.242 190.85 186.872 190.48 187.282 190.29 187.502 190.01 187.612 189.74 187.612 189.5 187.612 189.26 187.532 189.07 187.362zM186.299 190.242C185.9 189.852 185.9 189.212 186.29 188.822L186.28 188.822C186.669 188.432 187.31 188.422 187.7 188.812 188.089 189.202 188.1 189.832 187.709 190.232 187.51 190.422 187.26 190.522 187 190.522 186.74 190.522 186.49 190.432 186.299 190.242z"/>
    <path fill="#475059" d="M98.596,176.523 C106.655,180.962 115.754,183.304 124.98,183.304 C134.205,183.304 143.304,180.963 151.363,176.524 L130.069,141.034 L131.029,140.549 C134.87,138.61 137.569,134.924 138.249,130.688 L138.386,129.832 L179.706,130.527 C179.73,129.85 179.743,129.185 179.743,128.541 C179.743,109.43 169.632,91.566 153.289,81.671 L133.205,117.848 L132.305,117.262 C130.116,115.837 127.584,115.084 124.98,115.084 C122.376,115.084 119.841,115.838 117.653,117.263 L116.753,117.849 L96.669,81.672 C80.327,91.567 70.217,109.431 70.217,128.541 C70.217,129.185 70.23,129.85 70.254,130.527 L111.574,129.831 L111.711,130.687 C112.391,134.923 115.089,138.609 118.929,140.548 L119.889,141.033 L98.596,176.523 Z M124.98,185.304 C115.065,185.304 105.29,182.694 96.711,177.756 L95.828,177.248 L117.086,141.816 C113.428,139.635 110.812,136.016 109.899,131.86 L68.352,132.559 L68.3,131.596 C68.246,130.552 68.217,129.524 68.217,128.541 C68.217,108.381 79.071,89.559 96.542,79.423 L97.424,78.911 L117.478,115.034 C122.065,112.477 127.891,112.477 132.48,115.033 L152.534,78.91 L153.416,79.422 C170.888,89.559 181.743,108.38 181.743,128.541 C181.743,129.524 181.714,130.552 181.66,131.596 L181.608,132.559 L140.061,131.861 C139.147,136.017 136.531,139.636 132.872,141.817 L154.131,177.249 L153.249,177.757 C144.67,182.695 134.895,185.304 124.98,185.304 Z"/>
    <path fill="#475059" d="M98.596 176.523C106.655 180.962 115.754 183.304 124.98 183.304 134.205 183.304 143.304 180.963 151.363 176.524L131.086 142.73C127.205 144.414 122.752 144.414 118.871 142.729L98.596 176.523zM124.98 185.304C115.065 185.304 105.29 182.694 96.711 177.756L95.828 177.248 118.099 140.129 118.929 140.548C122.737 142.472 127.219 142.472 131.029 140.549L131.859 140.13 154.131 177.249 153.249 177.757C144.67 182.695 134.895 185.304 124.98 185.304zM96.669 81.672C80.327 91.567 70.217 109.431 70.217 128.541 70.217 129.185 70.23 129.85 70.254 130.527L109.588 129.865C109.544 129.405 109.523 128.967 109.523 128.541 109.523 123.612 111.85 119.035 115.793 116.12L96.669 81.672zM68.352 132.559L68.3 131.596C68.246 130.552 68.217 129.524 68.217 128.541 68.217 108.381 79.071 89.559 96.542 79.423L97.424 78.911 118.434 116.755 117.653 117.263C113.814 119.763 111.523 123.979 111.523 128.541 111.523 129.197 111.584 129.899 111.711 130.687L111.895 131.826 68.352 132.559zM140.372 129.865L179.706 130.527C179.73 129.85 179.743 129.185 179.743 128.541 179.743 109.43 169.632 91.566 153.289 81.671L134.165 116.119C138.109 119.033 140.437 123.611 140.437 128.541 140.437 128.967 140.416 129.406 140.372 129.865zM181.608 132.559L138.065 131.827 138.249 130.688C138.376 129.9 138.437 129.198 138.437 128.541 138.437 123.978 136.145 119.761 132.305 117.262L131.524 116.754 152.534 78.91 153.416 79.422C170.888 89.559 181.743 108.38 181.743 128.541 181.743 129.524 181.714 130.552 181.66 131.596L181.608 132.559z"/>
    <path fill="#475059" d="M140.223,131.005 L138.249,130.688 C138.376,129.9 138.437,129.198 138.437,128.541 C138.437,123.978 136.145,119.761 132.305,117.262 L133.397,115.587 C137.805,118.456 140.437,123.299 140.437,128.541 C140.437,129.305 140.367,130.111 140.223,131.005"/>
    <path fill="#DEDEDD" d="M136.893,128.643 C136.893,122.042 131.543,116.691 124.942,116.691 C118.342,116.691 112.991,122.042 112.991,128.643 C112.991,135.243 118.342,140.594 124.942,140.594 C131.543,140.594 136.893,135.243 136.893,128.643"/>
    <path fill="#48515A" d="M140.372,129.865 L179.706,130.527 C179.73,129.85 179.743,129.185 179.743,128.541 C179.743,109.43 169.632,91.566 153.289,81.671 L134.165,116.119 C138.109,119.033 140.437,123.611 140.437,128.541 C140.437,128.967 140.416,129.405 140.372,129.865 Z M98.596,176.523 C106.655,180.962 115.754,183.304 124.98,183.304 C134.206,183.304 143.305,180.962 151.363,176.524 L130.091,141.071 L131.043,140.584 C135.558,138.272 138.362,133.697 138.362,128.642 C138.362,121.243 132.341,115.223 124.942,115.223 C117.569,115.223 111.55,121.222 111.525,128.596 L109.525,128.593 C109.525,128.592 109.525,128.591 109.525,128.59 C109.524,123.614 111.852,119.035 115.793,116.12 L96.669,81.672 C80.327,91.567 70.217,109.431 70.217,128.541 C70.217,129.185 70.23,129.85 70.254,130.527 L111.564,129.832 L111.697,130.695 C112.351,134.952 115.042,138.658 118.894,140.609 L119.852,141.094 L98.596,176.523 Z M124.98,185.304 C115.064,185.304 105.289,182.694 96.711,177.756 L95.828,177.248 L117.051,141.876 C113.379,139.681 110.769,136.041 109.878,131.861 L68.352,132.559 L68.3,131.596 C68.246,130.552 68.217,129.524 68.217,128.541 C68.217,108.381 79.071,89.559 96.542,79.423 L97.424,78.911 L117.531,115.128 C119.732,113.914 122.259,113.223 124.942,113.223 C127.65,113.223 130.198,113.925 132.412,115.156 L152.534,78.91 L153.416,79.422 C170.888,89.559 181.743,108.38 181.743,128.541 C181.743,129.524 181.714,130.552 181.66,131.596 L181.608,132.559 L140.026,131.86 C139.148,136.004 136.592,139.621 132.888,141.845 L154.131,177.249 L153.249,177.757 C144.67,182.694 134.896,185.304 124.98,185.304 Z M124.98,59.541 C86.933,59.541 55.98,90.494 55.98,128.541 C55.98,166.588 86.933,197.541 124.98,197.541 C163.027,197.541 193.98,166.588 193.98,128.541 C193.98,90.494 163.027,59.541 124.98,59.541 Z M124.98,199.541 C85.831,199.541 53.98,167.691 53.98,128.541 C53.98,89.392 85.831,57.541 124.98,57.541 C164.129,57.541 195.98,89.392 195.98,128.541 C195.98,167.691 164.129,199.541 124.98,199.541 Z"/>
    <polyline fill="#48515A" points="73.873 219.457 72.459 218.044 84.054 206.435 84.054 213.509 92.253 205.314 93.666 206.729 82.054 218.335 82.054 211.267 73.873 219.457"/>
    <polyline fill="#48515A" points="177.282 219.458 169.079 211.263 169.079 218.337 157.477 206.729 158.891 205.315 167.079 213.507 167.079 206.438 178.696 218.043 177.282 219.458"/>
    <polyline fill="#48515A" points="92.253 53.358 84.054 45.164 84.054 52.237 72.459 40.629 73.873 39.216 82.054 47.405 82.054 40.338 93.666 51.943 92.253 53.358"/>
    <polyline fill="#48515A" points="158.891 53.358 157.477 51.944 169.079 40.336 169.079 47.409 177.282 39.215 178.696 40.63 167.079 52.234 167.079 45.166 158.891 53.358"/>
    <path fill="#FFD15D" d="M192.98 209.542C192.98 211.199 191.637 212.542 189.98 212.542 188.323 212.542 186.98 211.199 186.98 209.542 186.98 207.885 188.323 206.542 189.98 206.542 191.637 206.542 192.98 207.885 192.98 209.542M212.98 190.542C212.98 191.647 212.085 192.542 210.98 192.542 209.875 192.542 208.98 191.647 208.98 190.542 208.98 189.438 209.875 188.542 210.98 188.542 212.085 188.542 212.98 189.438 212.98 190.542M54.98 56.542C54.98 57.647 54.085 58.542 52.98 58.542 51.875 58.542 50.98 57.647 50.98 56.542 50.98 55.438 51.875 54.542 52.98 54.542 54.085 54.542 54.98 55.438 54.98 56.542M136.98 31.542C136.98 32.094 136.532 32.542 135.98 32.542 135.428 32.542 134.98 32.094 134.98 31.542 134.98 30.99 135.428 30.542 135.98 30.542 136.532 30.542 136.98 30.99 136.98 31.542M192.98 49.542C192.98 50.094 192.532 50.542 191.98 50.542 191.428 50.542 190.98 50.094 190.98 49.542 190.98 48.99 191.428 48.542 191.98 48.542 192.532 48.542 192.98 48.99 192.98 49.542M58.98 208.542C58.98 209.647 58.085 210.542 56.98 210.542 55.875 210.542 54.98 209.647 54.98 208.542 54.98 207.438 55.875 206.542 56.98 206.542 58.085 206.542 58.98 207.438 58.98 208.542M46.98 195.542C46.98 197.199 45.637 198.542 43.98 198.542 42.323 198.542 40.98 197.199 40.98 195.542 40.98 193.885 42.323 192.542 43.98 192.542 45.637 192.542 46.98 193.885 46.98 195.542"/>
    <path fill="#48515A" d="M124.98,55.541 C84.728,55.541 51.98,88.289 51.98,128.541 C51.98,168.794 84.728,201.541 124.98,201.541 C165.232,201.541 197.98,168.794 197.98,128.541 C197.98,88.289 165.232,55.541 124.98,55.541 Z M124.98,203.541 C83.624,203.541 49.98,169.896 49.98,128.541 C49.98,87.186 83.624,53.541 124.98,53.541 C166.335,53.541 199.98,87.186 199.98,128.541 C199.98,169.896 166.335,203.541 124.98,203.541 Z"/>
  </g>
</svg>
