<svg xmlns="http://www.w3.org/2000/svg" width="250" height="250" viewBox="0 0 250 250">
  <g fill="none" fill-rule="evenodd">
    <path fill="#5FE0ED" d="M130.031,185.573 C115.671,185.573 104.031,173.932 104.031,159.573 C104.031,145.213 115.671,133.573 130.031,133.573 C144.39,133.573 156.031,145.213 156.031,159.573 C156.031,173.932 144.39,185.573 130.031,185.573 Z M130.031,125.573 C111.253,125.573 96.031,140.795 96.031,159.573 C96.031,178.35 111.253,193.573 130.031,193.573 C148.808,193.573 164.031,178.35 164.031,159.573 C164.031,140.795 148.808,125.573 130.031,125.573 Z"/>
    <path fill="#5FE0ED" d="M130.031,197.573 C109.044,197.573 92.031,180.559 92.031,159.573 C92.031,138.586 109.044,121.573 130.031,121.573 C151.017,121.573 168.031,138.586 168.031,159.573 C168.031,180.559 151.017,197.573 130.031,197.573 Z M168.143,137.505 L164.031,129.957 C150.17,106.467 138.516,80.769 130.037,53.573 C121.558,80.769 110.273,106.467 96.412,129.957 L91.906,137.527 C88.157,144.005 86,151.52 86,159.542 C86,183.859 105.713,203.573 130.031,203.573 C154.348,203.573 174.061,183.859 174.061,159.542 C174.061,151.51 171.899,143.987 168.143,137.505 Z"/>
    <path fill="#48515A" d="M130.037,46.853 L128.128,52.978 C119.664,80.124 108.416,105.678 94.696,128.93 L90.168,136.536 C86.135,143.505 84,151.464 84,159.542 C84,184.924 104.649,205.573 130.031,205.573 C155.412,205.573 176.061,184.924 176.061,159.542 C176.061,151.468 173.928,143.512 169.892,136.535 L165.746,128.928 C151.509,104.801 140.135,79.244 131.947,52.978 L130.037,46.853 Z M130.031,207.573 C103.547,207.573 82,186.026 82,159.542 C82,151.113 84.228,142.807 88.443,135.524 L92.975,127.91 C106.615,104.794 117.801,79.382 126.219,52.382 L130.037,40.134 L133.856,52.382 C141.999,78.502 153.31,103.917 167.475,127.924 L167.533,128.025 L171.636,135.556 C175.835,142.815 178.061,151.117 178.061,159.542 C178.061,186.026 156.514,207.573 130.031,207.573 Z"/>
    <path fill="#475059" d="M130.031,131.573 C114.591,131.573 102.031,144.133 102.031,159.573 C102.031,175.012 114.591,187.573 130.031,187.573 C145.47,187.573 158.031,175.012 158.031,159.573 C158.031,144.133 145.47,131.573 130.031,131.573 Z M130.031,189.573 C113.489,189.573 100.031,176.115 100.031,159.573 C100.031,143.031 113.489,129.573 130.031,129.573 C146.573,129.573 160.031,143.031 160.031,159.573 C160.031,176.115 146.573,189.573 130.031,189.573 Z"/>
    <path fill="#475059" d="M130.031,131.573 C123.797,131.573 118.531,144.395 118.531,159.573 C118.531,174.75 123.797,187.573 130.031,187.573 C136.264,187.573 141.531,174.75 141.531,159.573 C141.531,144.395 136.264,131.573 130.031,131.573 Z M130.031,189.573 C122.46,189.573 116.531,176.395 116.531,159.573 C116.531,142.75 122.46,129.573 130.031,129.573 C137.601,129.573 143.531,142.75 143.531,159.573 C143.531,176.395 137.601,189.573 130.031,189.573 Z"/>
    <polygon fill="#475059" points="101.031 161.032 159.031 161.032 159.031 159.032 101.031 159.032"/>
    <polygon fill="#475059" points="106.03 145.033 154.031 145.033 154.031 143.033 106.03 143.033"/>
    <polygon fill="#475059" points="106.03 176.052 154.031 176.052 154.031 174.052 106.03 174.052"/>
    <path fill="#5FE0ED" d="M194.818 141.463L194.273 140.463C192.436 137.351 190.892 133.945 189.769 130.342 188.645 133.945 187.15 137.351 185.313 140.463L184.716 141.466C184.219 142.324 183.934 143.32 183.934 144.383 183.934 147.605 186.546 150.217 189.768 150.217 192.99 150.217 195.602 147.605 195.602 144.383 195.602 143.319 195.315 142.322 194.818 141.463M90.04 88.223L89.495 87.222C87.658 84.11 86.114 80.705 84.991 77.101 83.867 80.705 82.372 84.11 80.535 87.222L79.938 88.225C79.441 89.084 79.156 90.079 79.156 91.143 79.156 94.365 81.768 96.977 84.99 96.977 88.212 96.977 90.824 94.365 90.824 91.143 90.824 90.078 90.537 89.081 90.04 88.223"/>
    <polygon fill="#48515A" points="156.019 33.001 158.019 33.001 158.019 29.001 156.019 29.001"/>
    <polygon fill="#48515A" points="156.019 43.001 158.019 43.001 158.019 39.001 156.019 39.001"/>
    <polygon fill="#48515A" points="160.019 37.001 164.019 37.001 164.019 35.001 160.019 35.001"/>
    <polygon fill="#48515A" points="150.019 37.001 154.019 37.001 154.019 35.001 150.019 35.001"/>
    <polygon fill="#48515A" points="76.99 210.999 78.99 210.999 78.99 206.999 76.99 206.999"/>
    <polygon fill="#48515A" points="76.99 220.999 78.99 220.999 78.99 216.999 76.99 216.999"/>
    <polygon fill="#48515A" points="80.99 214.999 84.99 214.999 84.99 212.999 80.99 212.999"/>
    <polygon fill="#48515A" points="70.99 214.999 74.99 214.999 74.99 212.999 70.99 212.999"/>
    <polygon fill="#48515A" points="56.96 108.007 58.96 108.007 58.96 104.007 56.96 104.007"/>
    <polygon fill="#48515A" points="56.96 118.007 58.96 118.007 58.96 114.007 56.96 114.007"/>
    <polygon fill="#48515A" points="60.96 112.007 64.96 112.007 64.96 110.007 60.96 110.007"/>
    <polygon fill="#48515A" points="50.96 112.007 54.96 112.007 54.96 110.007 50.96 110.007"/>
    <polygon fill="#48515A" points="191.04 196.059 193.04 196.059 193.04 192.059 191.04 192.059"/>
    <polygon fill="#48515A" points="191.04 206.059 193.04 206.059 193.04 202.059 191.04 202.059"/>
    <polygon fill="#48515A" points="195.04 200.059 199.04 200.059 199.04 198.059 195.04 198.059"/>
    <polygon fill="#48515A" points="185.04 200.059 189.04 200.059 189.04 198.059 185.04 198.059"/>
    <path fill="#5FE0ED" d="M180.934 128.636C180.934 129.706 180.067 130.573 178.997 130.573 177.928 130.573 177.061 129.706 177.061 128.636 177.061 127.567 177.928 126.7 178.997 126.7 180.067 126.7 180.934 127.567 180.934 128.636M93.006 111.973C93.006 112.528 92.556 112.978 92.001 112.978 91.446 112.978 90.996 112.528 90.996 111.973 90.996 111.418 91.446 110.967 92.001 110.967 92.556 110.967 93.006 111.418 93.006 111.973M73.992 181.878C73.992 182.713 73.315 183.39 72.479 183.39 71.645 183.39 70.967 182.713 70.967 181.878 70.967 181.043 71.645 180.366 72.479 180.366 73.315 180.366 73.992 181.043 73.992 181.878M163.025 88.542C163.025 89.372 162.352 90.045 161.522 90.045 160.692 90.045 160.019 89.372 160.019 88.542 160.019 87.712 160.692 87.039 161.522 87.039 162.352 87.039 163.025 87.712 163.025 88.542M154.032 211.5C154.032 210.12 155.151 209.001 156.531 209.001 157.911 209.001 159.031 210.12 159.031 211.5 159.031 212.88 157.911 213.999 156.531 213.999 155.151 213.999 154.032 212.88 154.032 211.5M187.04 171.539C187.04 170.158 188.159 169.039 189.54 169.039 190.921 169.039 192.04 170.158 192.04 171.539 192.04 172.92 190.921 174.039 189.54 174.039 188.159 174.039 187.04 172.92 187.04 171.539M178.997 98.344C178.997 99.642 180.049 100.695 181.347 100.695 182.645 100.695 183.697 99.642 183.697 98.344 183.697 97.047 182.645 95.995 181.347 95.995 180.049 95.995 178.997 97.047 178.997 98.344M66.364 147.825C66.364 150.034 64.573 151.825 62.364 151.825 60.155 151.825 58.364 150.034 58.364 147.825 58.364 145.616 60.155 143.825 62.364 143.825 64.573 143.825 66.364 145.616 66.364 147.825"/>
  </g>
</svg>
