<svg xmlns="http://www.w3.org/2000/svg" width="250" height="250" viewBox="0 0 250 250">
  <g fill="none" fill-rule="evenodd">
    <path fill="#DFE0E0" d="M130.083,190.499 C88.452,190.499 54.583,156.63 54.583,114.999 C54.583,73.368 88.452,39.499 130.083,39.499 L130.083,50.499 C94.518,50.499 65.583,79.434 65.583,114.999 C65.583,150.564 94.518,179.499 130.083,179.499 C165.648,179.499 194.583,150.564 194.583,114.999 C194.583,104.496 192.004,94.074 187.125,84.86 L196.846,79.712 C202.562,90.507 205.583,102.709 205.583,114.999 C205.583,156.63 171.714,190.499 130.083,190.499"/>
    <path fill="#5FE0ED" d="M130.084,72.155 C106.649,72.155 87.584,91.221 87.584,114.655 C87.584,138.09 106.649,157.155 130.084,157.155 C153.519,157.155 172.584,138.09 172.584,114.655 C172.584,91.221 153.519,72.155 130.084,72.155 Z M130.084,172.155 C98.378,172.155 72.584,146.361 72.584,114.655 C72.584,82.949 98.378,57.155 130.084,57.155 C161.79,57.155 187.584,82.949 187.584,114.655 C187.584,146.361 161.79,172.155 130.084,172.155 Z"/>
    <path fill="#DEDEDD" d="M134.084,124.196 L132.178,119.026 C131.539,119.323 130.835,119.5 130.084,119.5 C128.687,119.5 127.427,118.924 126.52,118 L126.084,118 L126.084,125 L125.673,135 L134.51,135 L134.084,125 L134.084,124.196"/>
    <path fill="#48515A" d="M130.084,110.5 C127.878,110.5 126.084,112.294 126.084,114.5 C126.084,116.706 127.878,118.5 130.084,118.5 C132.29,118.5 134.084,116.706 134.084,114.5 C134.084,112.294 132.29,110.5 130.084,110.5 Z M130.084,120.5 C126.775,120.5 124.084,117.809 124.084,114.5 C124.084,111.191 126.775,108.5 130.084,108.5 C133.393,108.5 136.084,111.191 136.084,114.5 C136.084,117.809 133.393,120.5 130.084,120.5 Z"/>
    <polyline fill="#48515A" points="131.084 109.012 129.084 108.988 129.167 102.071 131.167 102.096 131.084 109.012"/>
    <polyline fill="#48515A" points="139.084 221 137.084 221 137.084 219 133.085 125.042 135.083 124.958 139.083 218.958 139.084 221"/>
    <polyline fill="#48515A" points="123.223 221 121.223 221 121.223 219 125.085 124.959 125.084 118 127.084 118 127.084 125 123.222 219.041 123.223 221"/>
    <path fill="#48515A" d="M131.202,108.395 L133.661,109.686 L142.54,96.129 L135.09,46.528 L135.088,45.529 L131.086,45.536 L131.202,108.395 Z M134.339,112.301 L129.204,109.605 L129.082,43.54 L137.082,43.526 L137.09,46.449 L144.632,96.586 L134.339,112.301 Z"/>
    <polyline fill="#48515A" points="68.707 150.365 64.719 143.429 67.253 141.971 107.026 110.502 125.011 112.078 124.837 114.07 107.644 112.564 68.314 143.667 67.449 144.166 69.443 147.635 125.479 115.424 126.475 117.159 68.707 150.365"/>
    <polyline fill="#48515A" points="187.572 156.062 185.037 154.599 137.808 135.925 130.882 119.896 132.718 119.104 139.315 134.371 185.974 152.83 186.84 153.331 188.84 149.866 133.584 117.973 134.584 116.24 191.572 149.134 187.572 156.062"/>
    <path fill="#48515A" d="M183.75 145.64L182.018 144.639C187.296 135.508 190.084 125.14 190.081 114.656L192.081002 114.655C192.084 125.49 189.203 136.205 183.75 145.64M183.869 88.073C183.577 87.484 183.276 86.901 182.967 86.324L184.729 85.379C185.048 85.974 185.358 86.576 185.66 87.185L183.869 88.073zM185.498 91.653C185.245 91.045 184.982 90.444 184.712 89.847L186.534 89.022C186.813 89.637 187.083 90.258 187.344 90.885L185.498 91.653zM186.889 95.335C186.676 94.711 186.454 94.094 186.224 93.481L188.095 92.776C188.333 93.409 188.563 94.046 188.781 94.689L186.889 95.335zM188.032 99.098C187.861 98.462 187.681 97.832 187.49 97.206L189.404 96.624C189.601 97.27 189.787 97.922 189.964 98.579L188.032 99.098zM188.927 102.93L188.763 102.135C188.683 101.758 188.598 101.381 188.511 101.006L190.458 100.552C190.549 100.939 190.636 101.329 190.719 101.72L190.888 102.537 188.927 102.93zM189.568 106.81C189.482 106.162 189.387 105.513 189.28 104.863L191.253 104.539C191.363 105.21 191.463 105.879 191.551 106.548L189.568 106.81zM189.952 110.723C189.91 110.071 189.856 109.417 189.792 108.763L191.782 108.567C191.849 109.244 191.904 109.919 191.948 110.594L189.952 110.723zM192.081 114.655L190.081 114.655C190.081 114.001 190.07 113.345 190.05 112.688L192.048 112.624C192.07 113.302 192.081 113.979 192.081 114.655zM100.875 169.309C100.278 168.989 99.686 168.66 99.1 168.321L100.1 166.589C100.668 166.917 101.241 167.236 101.82 167.546L100.875 169.309zM104.518 171.109C103.901 170.829 103.289 170.539 102.682 170.238L103.568 168.445C104.156 168.736 104.749 169.017 105.346 169.289L104.518 171.109zM108.271 172.668C107.638 172.429 107.008 172.179 106.382 171.92L107.149 170.072C107.754 170.324 108.364 170.565 108.979 170.797L108.271 172.668zM112.119 173.979C111.472 173.781 110.826 173.573 110.186 173.355L110.83 171.461C111.451 171.673 112.075 171.874 112.703 172.065L112.119 173.979zM116.046 175.033C115.385 174.879 114.728 174.714 114.074 174.538L114.594 172.606C115.226 172.776 115.861 172.937 116.501 173.086L116.046 175.033zM120.03 175.829C119.361 175.718 118.693 175.597 118.03 175.464L118.423 173.503C119.064 173.631 119.709 173.749 120.356 173.855L120.03 175.829z"/>
    <path fill="#48515A" d="M99.1 168.321C89.673 162.872 81.822 155.033 76.398 145.652L78.129 144.651C83.379 153.729 90.977 161.315 100.1 166.589L99.1 168.321M98.401 63.713L97.345 62.015C97.919 61.658 98.5 61.309 99.087 60.969L100.089 62.7C99.52 63.029 98.958 63.367 98.401 63.713zM95.134 65.902L93.968 64.278C94.518 63.883 95.074 63.497 95.638 63.119L96.751 64.781C96.205 65.146 95.666 65.52 95.134 65.902zM92.017 68.302L90.745 66.757C91.269 66.327 91.799 65.904 92.337 65.491L93.556 67.076C93.035 67.477 92.522 67.885 92.017 68.302zM89.064 70.9L87.695 69.443C88.188 68.979 88.689 68.523 89.198 68.075L90.52 69.576C90.027 70.01 89.542 70.452 89.064 70.9zM86.286 73.687L84.825 72.321C85.287 71.827 85.758 71.339 86.235 70.859L87.653 72.27C87.189 72.735 86.734 73.207 86.286 73.687zM83.699 76.648L82.15 75.382C82.579 74.858 83.017 74.34 83.463 73.83L84.969 75.145C84.538 75.64 84.114 76.14 83.699 76.648zM81.308 79.772L79.681 78.609C80.074 78.058 80.478 77.513 80.89 76.975L82.478 78.19C82.079 78.711 81.689 79.238 81.308 79.772zM79.125 83.045L77.426 81.992C77.783 81.415 78.149 80.845 78.525 80.281L80.189 81.392C79.825 81.937 79.471 82.488 79.125 83.045z"/>
    <path fill="#48515A" d="M100.089,62.7 L99.087,60.969 C104.716,57.714 110.793,55.376 117.147,54.02 C121.379,53.117 125.731,52.659 130.084,52.658 L130.084,54.658 C125.871,54.659 121.659,55.103 117.565,55.976 C111.415,57.288 105.535,59.55 100.089,62.7"/>
    <polygon fill="#48515A" points="185.077 193.006 187.077 193.006 187.077 189.006 185.077 189.006"/>
    <polygon fill="#48515A" points="185.077 203.006 187.077 203.006 187.077 199.006 185.077 199.006"/>
    <polygon fill="#48515A" points="189.077 197.006 193.077 197.006 193.077 195.006 189.077 195.006"/>
    <polygon fill="#48515A" points="179.077 197.006 183.077 197.006 183.077 195.006 179.077 195.006"/>
    <polygon fill="#48515A" points="179.604 33 181.604 33 181.604 29 179.604 29"/>
    <polygon fill="#48515A" points="179.604 43 181.604 43 181.604 39 179.604 39"/>
    <polygon fill="#48515A" points="183.604 37 187.604 37 187.604 35 183.604 35"/>
    <polygon fill="#48515A" points="173.604 37 177.604 37 177.604 35 173.604 35"/>
    <polygon fill="#48515A" points="50.417 116.5 52.417 116.5 52.417 112.5 50.417 112.5"/>
    <polygon fill="#48515A" points="50.417 126.5 52.417 126.5 52.417 122.5 50.417 122.5"/>
    <polygon fill="#48515A" points="54.417 120.5 58.417 120.5 58.417 118.5 54.417 118.5"/>
    <polygon fill="#48515A" points="44.417 120.5 48.417 120.5 48.417 118.5 44.417 118.5"/>
    <path fill="#5FE0ED" d="M153.586 184.5C153.586 185.328 152.915 186 152.086 186 151.258 186 150.586 185.328 150.586 184.5 150.586 183.672 151.258 183 152.086 183 152.915 183 153.586 183.672 153.586 184.5M61.417 93C61.417 93.828 60.746 94.5 59.917 94.5 59.089 94.5 58.417 93.828 58.417 93 58.417 92.172 59.089 91.5 59.917 91.5 60.746 91.5 61.417 92.172 61.417 93M78.763 157.155C78.763 157.984 78.092 158.655 77.263 158.655 76.435 158.655 75.763 157.984 75.763 157.155 75.763 156.327 76.435 155.655 77.263 155.655 78.092 155.655 78.763 156.327 78.763 157.155M145.086 201.006C145.086 201.834 144.415 202.506 143.586 202.506 142.758 202.506 142.086 201.834 142.086 201.006 142.086 200.178 142.758 199.506 143.586 199.506 144.415 199.506 145.086 200.178 145.086 201.006M174.084 63.335C174.084 64.163 173.412 64.835 172.584 64.835 171.756 64.835 171.084 64.163 171.084 63.335 171.084 62.506 171.756 61.835 172.584 61.835 173.412 61.835 174.084 62.506 174.084 63.335M196.077 145.139C196.077 145.968 195.406 146.639 194.577 146.639 193.749 146.639 193.077 145.968 193.077 145.139 193.077 144.311 193.749 143.639 194.577 143.639 195.406 143.639 196.077 144.311 196.077 145.139"/>
  </g>
</svg>
