<svg xmlns="http://www.w3.org/2000/svg" width="250" height="250" viewBox="0 0 250 250">
  <g fill="none" fill-rule="evenodd">
    <path fill="#DEDEDD" d="M124.96,205 C80.778,205 44.96,169.183 44.96,125 C44.96,80.817 80.778,45 124.96,45 C169.143,45 204.96,80.817 204.96,125 C204.96,169.183 169.143,205 124.96,205 Z M124.96,35 C75.255,35 34.96,75.294 34.96,125 C34.96,174.706 75.255,215 124.96,215 C174.666,215 214.96,174.706 214.96,125 C214.96,75.294 174.666,35 124.96,35 Z"/>
    <polygon fill="#5FE0ED" points="85.964 185 163.957 185 163.957 119 85.964 119"/>
    <polygon fill="#DEDEDD" points="117.96 43.999 131.96 43.999 131.96 36.999 117.96 36.999"/>
    <path fill="#48515A" d="M115.96 42.999L133.96 42.999 133.96 34.999 115.96 34.999 115.96 42.999zM113.96 44.999L135.96 44.999 135.96 32.999 113.96 32.999 113.96 44.999zM154.957 217L92.964 217C91.861 217 90.964 216.104 90.964 215L90.964 210 92.964 210 92.964 215 154.957 215 154.957 210 156.957 210 156.957 215C156.957 216.104 156.06 217 154.957 217"/>
    <polygon fill="#DEDEDD" points="94.964 213 152.957 213 152.957 210.999 94.964 210.999"/>
    <path fill="#48515A" d="M86.964,44.999 C85.31,44.999 83.964,46.345 83.964,47.999 L83.964,206 C83.964,207.654 85.31,209 86.964,209 L162.957,209 C164.611,209 165.957,207.654 165.957,206 L165.957,47.999 C165.957,46.345 164.611,44.999 162.957,44.999 L86.964,44.999 Z M162.957,211 L86.964,211 C84.207,211 81.964,208.756 81.964,206 L81.964,47.999 C81.964,45.243 84.207,42.999 86.964,42.999 L162.957,42.999 C165.714,42.999 167.957,45.243 167.957,47.999 L167.957,206 C167.957,208.756 165.714,211 162.957,211 Z"/>
    <polygon fill="#48515A" points="82.964 83.332 166.957 83.332 166.957 81.332 82.964 81.332"/>
    <polygon fill="#48515A" points="82.964 188.995 166.957 188.995 166.957 186.995 82.964 186.995"/>
    <polygon fill="#DEDEDD" points="85.964 90.999 163.957 90.999 163.957 84.999 85.964 84.999"/>
    <polygon fill="#48515A" points="82.964 94.339 166.957 94.339 166.957 92.339 82.964 92.339"/>
    <path fill="#FFD15D" d="M134.96,202.08 L114.961,202.082 L114.961,196.082 L134.96,196.08 L134.96,202.08 Z M85.964,190.994 L85.964,205.999 C85.964,206.551 86.413,206.999 86.964,206.999 L162.957,206.999 C163.508,206.999 163.957,206.551 163.957,205.999 L163.957,190.994 L85.964,190.994 Z"/>
    <path fill="#48515A" d="M115.96,197.083 L115.96,201.082 L133.96,201.08 L133.96,197.081 L115.96,197.083 Z M113.96,203.082 L113.96,195.083 L135.96,195.081 L135.96,203.08 L113.96,203.082 Z"/>
    <path fill="#FFD15D" d="M134.96,66.999 L127.96,67 L127.96,73.999 L121.96,73.999 L121.96,67 L114.961,67.001 L114.961,61.001 L121.96,61.001 L121.96,53.999 L127.96,53.999 L127.96,61 L134.96,60.999 L134.96,66.999 Z M162.957,46.999 L86.964,46.999 C86.413,46.999 85.964,47.448 85.964,47.999 L85.964,79.332 L163.957,79.332 L163.957,47.999 C163.957,47.448 163.508,46.999 162.957,46.999 Z"/>
    <path fill="#48515A" d="M122.96,72.999 L126.96,72.999 L126.96,66 L133.96,65.999 L133.96,61.999 L126.96,62 L126.96,54.999 L122.96,54.999 L122.96,62.001 L115.96,62.001 L115.96,66.001 L122.96,66 L122.96,72.999 Z M128.96,74.999 L120.96,74.999 L120.96,68.001 L113.96,68.001 L113.96,60.001 L120.96,60 L120.96,52.999 L128.96,52.999 L128.96,60 L135.96,60 L135.96,67.999 L128.96,68 L128.96,74.999 Z"/>
    <path fill="#5FE0ED" d="M79.96 144.085C77.462 138.219 76.078 131.768 76.078 125 76.078 118.232 77.462 111.781 79.96 105.915L79.96 71.437C64.689 84.289 54.96 103.526 54.96 125 54.96 146.474 64.689 165.711 79.96 178.563L79.96 144.085M169.96 71.436L169.96 105.912C172.458 111.779 173.843 118.23 173.843 125 173.843 131.77 172.458 138.221 169.96 144.088L169.96 178.563C185.232 165.712 194.96 146.475 194.96 125 194.96 103.525 185.232 84.287 169.96 71.436"/>
    <polygon fill="#48515A" points="34.947 100 36.947 100 36.947 96.001 34.947 96.001"/>
    <polygon fill="#48515A" points="34.947 110 36.947 110 36.947 106 34.947 106"/>
    <polygon fill="#48515A" points="38.947 104 42.947 104 42.947 102 38.947 102"/>
    <polygon fill="#48515A" points="28.947 104 32.947 104 32.947 102 28.947 102"/>
    <polygon fill="#48515A" points="213.053 130.019 215.053 130.019 215.053 126.019 213.053 126.019"/>
    <polygon fill="#48515A" points="213.053 140.019 215.053 140.019 215.053 136.019 213.053 136.019"/>
    <polygon fill="#48515A" points="217.053 134.019 221.053 134.019 221.053 132.019 217.053 132.019"/>
    <polygon fill="#48515A" points="207.053 134.019 211.053 134.019 211.053 132.019 207.053 132.019"/>
    <path fill="#FFD15D" d="M190.96 200C190.96 201.657 189.617 203 187.96 203 186.304 203 184.96 201.657 184.96 200 184.96 198.343 186.304 197 187.96 197 189.617 197 190.96 198.343 190.96 200M48.96 189C48.96 190.105 48.065 191 46.96 191 45.856 191 44.96 190.105 44.96 189 44.96 187.895 45.856 187 46.96 187 48.065 187 48.96 187.895 48.96 189M188.96 42C188.96 43.657 190.304 45 191.96 45 193.617 45 194.96 43.657 194.96 42 194.96 40.343 193.617 39 191.96 39 190.304 39 188.96 40.343 188.96 42M44.96 63C44.96 64.105 44.065 65 42.96 65 41.856 65 40.96 64.105 40.96 63 40.96 61.895 41.856 61 42.96 61 44.065 61 44.96 61.895 44.96 63M54.96 98C54.96 99.657 53.617 101 51.96 101 50.304 101 48.96 99.657 48.96 98 48.96 96.343 50.304 95 51.96 95 53.617 95 54.96 96.343 54.96 98M40.96 151C40.96 152.105 41.856 153 42.96 153 44.065 153 44.96 152.105 44.96 151 44.96 149.895 44.065 149 42.96 149 41.856 149 40.96 149.895 40.96 151"/>
  </g>
</svg>
