<svg xmlns="http://www.w3.org/2000/svg" width="250" height="250" viewBox="0 0 250 250">
  <g fill="none" fill-rule="evenodd">
    <polygon fill="#48515A" points="35 123.223 37 123.223 37 119.223 35 119.223"/>
    <polygon fill="#48515A" points="35 133.223 37 133.223 37 129.223 35 129.223"/>
    <polygon fill="#48515A" points="39 127.223 43 127.223 43 125.223 39 125.223"/>
    <polygon fill="#48515A" points="29 127.223 33 127.223 33 125.223 29 125.223"/>
    <path fill="#FFD15D" d="M209 105.241C209 106.346 208.105 107.241 207 107.241 205.895 107.241 205 106.346 205 105.241 205 104.137 205.895 103.241 207 103.241 208.105 103.241 209 104.137 209 105.241M47 85.229C47 86.334 46.105 87.229 45 87.229 43.895 87.229 43 86.334 43 85.229 43 84.125 43.895 83.229 45 83.229 46.105 83.229 47 84.125 47 85.229"/>
    <path fill="#5FE0ED" d="M58.999,158.227 C58.999,159.332 58.103,160.227 56.999,160.227 C55.894,160.227 54.999,159.332 54.999,158.227 C54.999,157.123 55.894,156.227 56.999,156.227 C58.103,156.227 58.999,157.123 58.999,158.227"/>
    <polygon fill="#48515A" points="213 192.245 215 192.245 215 188.245 213 188.245"/>
    <polygon fill="#48515A" points="213 202.245 215 202.245 215 198.245 213 198.245"/>
    <polygon fill="#48515A" points="217 196.245 221 196.245 221 194.245 217 194.245"/>
    <polygon fill="#48515A" points="207 196.245 211 196.245 211 194.245 207 194.245"/>
    <path fill="#48515A" d="M124.947,32.583 L94.265,62.588 C89.286,67.566 86.54,74.196 86.54,81.247 C86.54,88.299 89.286,94.929 94.272,99.915 L124.961,130.527 L154.879,100.531 C159.866,95.544 162.612,88.915 162.613,81.863 C162.613,74.811 159.867,68.181 154.881,63.195 L124.947,32.583 Z M124.965,133.355 L92.859,101.33 C81.785,90.256 81.785,72.238 92.858,61.166 L124.979,29.755 L156.303,61.789 C161.659,67.145 164.613,74.277 164.613,81.863 C164.612,89.449 161.658,96.581 156.294,101.945 L124.965,133.355 Z"/>
    <path fill="#5FE0ED" d="M100.963 83.865L98.963 83.865 98.963 81.865 100.963 81.865C111.294 81.865 120.158 88.175 123.962 97.135L123.962 80.299C123.956 70.677 116.126 62.85 106.501 62.85L104.963 62.85 104.963 60.85 106.501 60.85C114.171 60.85 120.796 65.322 123.962 71.786L123.962 36.343 95.663 64.017C91.078 68.602 88.54 74.73 88.54 81.247 88.54 87.765 91.078 93.893 95.686 98.501L123.962 126.706 123.962 106.841C123.949 94.169 113.637 83.865 100.963 83.865M153.467 64.609L125.962 36.482 125.962 71.579C129.114 65.073 135.772 60.57 143.473 60.57L143.473 62.57C133.845 62.57 126.012 70.403 126.012 80.031L126.012 81.57 125.962 81.57 125.962 97.136C129.766 88.176 138.631 81.864 148.963 81.864L148.963 83.864C136.28 83.864 125.963 94.181 125.963 106.864L125.963 108.864 125.962 108.864 125.962 126.691 153.464 99.119C162.979 89.603 162.979 74.123 153.467 64.609"/>
    <polygon fill="#48515A" points="123.963 165.264 125.963 165.264 125.963 131.941 123.963 131.941"/>
    <path fill="#48515A" d="M128.807,135.571 L142.143,148.872 C146.64,153.369 153.957,153.371 158.454,148.874 L172.072,135.557 L158.728,121.911 C154.238,117.421 146.92,117.422 142.425,121.918 L128.807,135.571 Z M150.302,154.246 C146.836,154.246 143.369,152.927 140.729,150.287 L125.979,135.574 L141.01,120.505 C146.287,115.228 154.872,115.227 160.149,120.505 L174.9,135.589 L159.86,150.296 C157.228,152.928 153.765,154.246 150.302,154.246 Z"/>
    <path fill="#5FE0ED" d="M151.985 126.062L153.985 126.046 153.985 126.062C153.985 129.435 152.356 132.426 149.848 134.311L168.057 134.311 157.298 123.309C153.605 119.616 147.557 119.617 143.839 123.332L132.888 134.311 144.778 134.311C148.841 133.759 151.985 130.275 151.985 126.062M149.858 136.478C152.369 138.362 154 141.355 154 144.729L152 144.746 152 144.729C152 140.509 148.843 137.02 144.769 136.478L132.55 136.478 143.555 147.456C147.277 151.177 153.323 151.176 157.04 147.46L168.27 136.478 149.858 136.478"/>
    <path fill="#48515A" d="M77.776,135.557 L91.387,148.866 C95.891,153.371 103.208,153.369 107.705,148.873 L121.042,135.571 L107.422,121.917 C105.245,119.74 102.349,118.54 99.268,118.541 C96.187,118.541 93.291,119.74 91.113,121.919 L77.776,135.557 Z M99.55,154.245 C96.084,154.245 92.619,152.927 89.98,150.288 L74.948,135.589 L89.691,120.512 C92.255,117.948 95.653,116.541 99.268,116.541 C102.883,116.54 106.281,117.948 108.837,120.504 L123.87,135.574 L109.118,150.288 C106.481,152.926 103.015,154.245 99.55,154.245 Z"/>
    <path fill="#5FE0ED" d="M97.863 126.062L95.863 126.046 95.863 126.062C95.863 129.435 97.492 132.426 100 134.311L81.792 134.311 92.551 123.309C96.243 119.616 102.292 119.617 106.01 123.332L116.961 134.311 105.07 134.311C101.008 133.759 97.863 130.275 97.863 126.062M99.99 136.478C97.479 138.362 95.849 141.355 95.849 144.729L97.849 144.746 97.849 144.729C97.849 140.509 101.005 137.02 105.08 136.478L117.299 136.478 106.294 147.456C102.571 151.177 96.525 151.176 92.809 147.46L81.578 136.478 99.99 136.478M71.615 110.275L68.15 106.819C66.969 105.638 66.969 103.723 68.15 102.542L71.615 99.153 74.995 102.61C76.176 103.791 76.176 105.706 74.995 106.887L71.615 110.275M189.636 140.957L186.171 137.5C184.99 136.319 184.99 134.405 186.171 133.224L189.636 129.835 193.016 133.292C194.197 134.473 194.197 136.387 193.016 137.568L189.636 140.957"/>
    <path fill="#DEDEDD" d="M180.806 156.486C183.821 155.995 186.829 156.647 189.059 158.275 189.242 158.409 189.42 158.548 189.593 158.692L182.529 163.692 149.875 179.066C149.875 179.066 133.905 179.1 134.125 179.038 135.515 178.649 179.387 156.717 180.806 156.486M59 214.047L59 214.05C59 215.241 58.202 216.038 57.011 216.038 57.011 216.038 57.01 216.038 57.009 216.038L50 216.202 50 202.028 57.059 202.035C57.63 202.035 58.177 202.262 58.587 202.674 58.998 203.085 59.14 203.627 59.139 204.196L59 214.047"/>
    <path fill="#475059" d="M83.059,213.038 L62,213.038 L62,211.038 L82.867,211.038 L159.994,196.092 L203.525,169.394 C197.767,164.236 190.763,163.285 184.57,166.894 L157.309,180.038 L110.534,180.038 L110.534,178.038 L128.85,178.038 C136.738,178.038 142.989,172.32 143.506,164.844 L94.873,165.038 C90.703,165.038 86.615,166.737 83.655,169.698 L62.821,190.511 L61.408,189.096 L82.241,168.283 C85.573,164.95 90.177,163.038 94.87,163.038 L145.54,162.836 L145.54,163.84 C145.54,170.03 142.136,175.305 137.006,178.038 L156.852,178.038 L183.632,165.13 C190.925,160.875 199.264,162.255 205.866,168.858 L206.763,169.755 L160.73,197.987 L160.553,198.021 L83.059,213.038"/>
    <path fill="#475059" d="M142.686 172.696C142.323 172.696 141.975 172.499 141.797 172.156 141.543 171.665 141.734 171.062 142.225 170.808L173.527 154.591C175.66 153.595 177.881 152.91 180.163 152.538 184.229 151.876 188.33 152.789 191.418 155.045 192.793 156.049 193.961 157.263 194.889 158.653 195.192 159.109 195.073 159.725 194.62 160.034L184.63 166.856C184.176 167.169 183.553 167.052 183.24 166.594 182.929 166.138 183.046 165.516 183.503 165.205L192.643 158.963C191.956 158.098 191.15 157.326 190.238 156.66 187.579 154.718 184.023 153.935 180.485 154.512 178.384 154.855 176.34 155.485 174.41 156.385L143.145 172.583C142.997 172.659 142.84 172.696 142.686 172.696M48 218.236L56.997 218.245C56.998 218.245 57 218.245 57.001 218.245 58.106 218.245 59.151 217.811 59.942 217.024 60.735 216.235 61.172 215.192 61.173 214.088L61.173 214.087 61.229 183.109C61.23 180.816 59.361 178.947 57.061 178.945L48 178.935 48 218.236zM57.001 220.245C56.999 220.245 56.997 220.245 56.995 220.245L46 220.234 46 176.933 57.062 176.945C60.465 176.948 63.231 179.715 63.229 183.112L63.173 214.091C63.171 215.73 62.525 217.275 61.353 218.441 60.184 219.604 58.639 220.245 57.001 220.245z"/>
    <path fill="#DEDEDD" d="M110.534 175.038L133.977 175.038C137.565 174.038 140.247 171.038 141.18 167.038L136.388 167.038C134.293 169.038 131.698 169.038 128.85 169.038L116.534 169.038C113.221 169.038 110.534 171.725 110.534 175.038M192.388 166.969L159.259 187.247 82.675 202.038 65.195 202.038 65.182 209.038 82.675 209.038 159.259 194.259 200 169.319C197.581 167.747 194.987 166.968 192.388 166.969"/>
  </g>
</svg>
