<svg xmlns="http://www.w3.org/2000/svg" width="250" height="250" viewBox="0 0 250 250">
  <g fill="none" fill-rule="evenodd">
    <path fill="#DEDEDD" d="M125,139.754 C116.852,139.754 110.246,133.148 110.246,125 C110.246,116.852 116.852,110.246 125,110.246 C133.148,110.246 139.754,116.852 139.754,125 C139.754,133.148 133.148,139.754 125,139.754 Z M125,80 C100.147,80 80,100.147 80,125 C80,149.853 100.147,170 125,170 C149.853,170 170,149.853 170,125 C170,100.147 149.853,80 125,80 Z"/>
    <path fill="#48515A" d="M175.527,120.652 L175.527,130.346 L188.695,128.465 L190.763,129.498 L191.527,129.498 L191.527,121.5 L190.763,121.5 L188.695,122.533 L175.527,120.652 Z M173.527,132.652 L173.527,118.346 L188.36,120.465 L190.292,119.5 L193.527,119.5 L193.527,131.498 L190.292,131.498 L188.36,130.533 L173.527,132.652 Z"/>
    <polyline fill="#FFD15D" points="157.467 109.499 145.534 109.499 145.534 140.5 157.532 140.5 173.347 128.637 189.03 126.396 189.527 126.645 189.527 124.353 189.031 124.601 173.286 122.352 157.467 109.499"/>
    <polyline fill="#FFD15D" points="99.629 108.5 83.807 122.344 67.999 124.601 67.502 124.353 67.501 126.646 67.999 126.398 83.749 128.648 99.567 141.501 111.5 141.501 111.501 108.5 99.629 108.5"/>
    <path fill="#48515A" d="M83.502,131.023 L98.857,143.501 L113.5,143.5 L113.5,106.499 L98.878,106.5 L83.502,119.953 L83.502,131.023 Z M98.147,145.501 L81.502,131.976 L81.502,119.046 L98.127,104.5 L115.5,104.499 L115.5,145.5 L98.147,145.501 Z"/>
    <path fill="#48515A" d="M68.335 128.465L81.502 130.347 81.502 120.652 68.335 122.534 66.266 121.5 65.502 121.5 65.502 129.499 66.266 129.499 68.335 128.465zM83.502 132.652L68.669 130.534 66.738 131.499 63.502 131.499 63.502 119.5 66.738 119.5 68.669 120.465 83.502 118.347 83.502 132.652zM143.534 107.5L143.534 142.5 158.199 142.5 173.532 130.999 173.533 119.975 158.178 107.5 143.534 107.5zM141.534 144.5L141.534 105.5 158.888 105.5 175.533 119.023 175.532 131.999 158.866 144.5 141.534 144.5z"/>
    <path fill="#48515A" d="M143.532 126.499L153.532 126.499 153.532 124.499 143.532 124.499 143.532 126.499zM141.532 128.499L155.532 128.499 155.532 122.499 141.532 122.499 141.532 128.499zM130.503 136.499L141.532 136.499 141.532 134.499 130.503 134.499 130.503 136.499zM128.503 138.499L143.532 138.499 143.532 132.499 128.503 132.499 128.503 138.499zM130.503 116.499L141.532 116.499 141.532 114.499 130.503 114.499 130.503 116.499zM128.503 118.499L143.532 118.499 143.532 112.499 128.503 112.499 128.503 118.499z"/>
    <path fill="#DEDEDD" d="M125,205 C80.817,205 45,169.183 45,125 C45,80.817 80.817,45 125,45 C169.183,45 205,80.817 205,125 C205,169.183 169.183,205 125,205 Z M125,35 C75.294,35 35,75.294 35,125 C35,174.706 75.294,215 125,215 C174.706,215 215,174.706 215,125 C215,75.294 174.706,35 125,35 Z"/>
    <path fill="#48515A" d="M42 125L40 125C40 78.131 78.131 40 125 40L126 40 126 101 124 101 124 42.006C78.69 42.541 42 79.566 42 125M125 210L124 210 124 147.166 126 147.166 126 207.994C171.31 207.458 208 170.434 208 125L210 125C210 171.869 171.869 210 125 210"/>
    <polygon fill="#48515A" points="32 126 64.002 126 64.002 124 32 124"/>
    <polygon fill="#48515A" points="193.091 126 217 126 217 124 193.091 124"/>
    <path fill="#48515A" d="M124,105.334 L126,105.334 L126,103.334 L124,103.334 L124,105.334 Z M124,109.334 L126,109.334 L126,107.334 L124,107.334 L124,109.334 Z M124,113.334 L126,113.334 L126,111.334 L124,111.334 L124,113.334 Z M124,117.334 L126,117.334 L126,115.334 L124,115.334 L124,117.334 Z M124,121.334 L126,121.334 L126,119.334 L124,119.334 L124,121.334 Z M124,125.334 L126,125.334 L126,123.334 L124,123.334 L124,125.334 Z M124,129.334 L126,129.334 L126,127.334 L124,127.334 L124,129.334 Z M124,133.334 L126,133.334 L126,131.334 L124,131.334 L124,133.334 Z M124,137.334 L126,137.334 L126,135.334 L124,135.334 L124,137.334 Z M124,141.334 L126,141.334 L126,139.334 L124,139.334 L124,141.334 Z M124,145.334 L126,145.334 L126,143.334 L124,143.334 L124,145.334 Z"/>
    <polyline fill="#48515A" points="83.707 165.707 82.292 164.293 93.889 152.685 93.889 159.758 102.087 151.564 103.501 152.979 91.889 164.584 91.889 157.517 83.707 165.707"/>
    <polyline fill="#48515A" points="168.293 165.708 160.09 157.513 160.09 164.586 148.488 152.979 149.903 151.564 158.09 159.756 158.09 152.688 169.707 164.292 168.293 165.708"/>
    <polyline fill="#48515A" points="101.087 98.979 92.889 90.785 92.889 97.859 81.293 86.25 82.707 84.837 90.889 93.027 90.889 85.958 102.501 97.564 101.087 98.979"/>
    <polyline fill="#48515A" points="148.903 98.979 147.488 97.564 159.09 85.956 159.09 93.03 167.293 84.836 168.707 86.251 157.09 97.855 157.09 90.787 148.903 98.979"/>
    <polygon fill="#48515A" points="35 167 37 167 37 163 35 163"/>
    <polygon fill="#48515A" points="35 177 37 177 37 173 35 173"/>
    <polygon fill="#48515A" points="39 171 43 171 43 169 39 169"/>
    <polygon fill="#48515A" points="29 171 33 171 33 169 29 169"/>
    <polygon fill="#48515A" points="213 85 215 85 215 81 213 81"/>
    <polygon fill="#48515A" points="213 95 215 95 215 91 213 91"/>
    <polygon fill="#48515A" points="217 89 221 89 221 87 217 87"/>
    <polygon fill="#48515A" points="207 89 211 89 211 87 207 87"/>
    <path fill="#FFD15D" d="M103 173C103 174.105 102.105 175 101 175 99.895 175 99 174.105 99 173 99 171.895 99.895 171 101 171 102.105 171 103 171.895 103 173M139 191C139 192.105 138.105 193 137 193 135.895 193 135 192.105 135 191 135 189.895 135.895 189 137 189 138.105 189 139 189.895 139 191M161 73C161 74.105 160.105 75 159 75 157.895 75 157 74.105 157 73 157 71.895 157.895 71 159 71 160.105 71 161 71.895 161 73M67 91C67 91 66.105 91 65 91 63.895 91 63 91 63 91 63 91 63.895 91 65 91 66.105 91 67 91 67 91M87 185C87 186.105 86.105 187 85 187 83.895 187 83 186.105 83 185 83 183.895 83.895 183 85 183 86.105 183 87 183.895 87 185M207 189C207 187.895 207.895 187 209 187 210.105 187 211 187.895 211 189 211 190.105 210.105 191 209 191 207.895 191 207 190.105 207 189M191 92C191 92.552 190.552 93 190 93 189.448 93 189 92.552 189 92 189 91.448 189.448 91 190 91 190.552 91 191 91.448 191 92M72 84C72 85.105 71.105 86 70 86 68.895 86 68 85.105 68 84 68 82.895 68.895 82 70 82 71.105 82 72 82.895 72 84M195 58C195 58.552 194.552 59 194 59 193.448 59 193 58.552 193 58 193 57.448 193.448 57 194 57 194.552 57 195 57.448 195 58"/>
  </g>
</svg>
