<svg xmlns="http://www.w3.org/2000/svg" width="250" height="250" viewBox="0 0 250 250">
  <g fill="none" fill-rule="evenodd">
    <path fill="#5FE0ED" d="M55.782 50.917C55.782 53.126 53.991 54.917 51.782 54.917 49.572 54.917 47.782 53.126 47.782 50.917 47.782 48.707 49.572 46.917 51.782 46.917 53.991 46.917 55.782 48.707 55.782 50.917M165.989 188.572C165.989 190.781 164.198 192.572 161.989 192.572 159.78 192.572 157.989 190.781 157.989 188.572 157.989 186.363 159.78 184.572 161.989 184.572 164.198 184.572 165.989 186.363 165.989 188.572"/>
    <path fill="#48515A" d="M93.02,172 L147.021,172 L147.021,158.984 C147.021,151.135 150.521,143.278 156.625,137.426 C167.238,127.25 173.083,113.644 173.083,99.11 C173.083,84.35 167.187,70.63 156.48,60.481 C145.796,50.351 131.779,45.211 117.013,45.995 C89.731,47.452 67.669,70.013 66.789,97.357 C66.304,112.401 72.438,127.095 83.618,137.671 C89.594,143.325 93.02,150.836 93.02,158.279 L93.02,172 Z M149.021,174 L91.021,174 L91.021,158.279 C91.021,151.383 87.822,144.401 82.244,139.125 C70.648,128.155 64.287,112.908 64.79,97.293 C65.704,68.92 88.596,45.51 116.907,43.998 C132.228,43.176 146.769,48.518 157.856,59.03 C168.965,69.561 175.083,83.795 175.083,99.11 C175.083,114.193 169.02,128.313 158.01,138.869 C152.297,144.346 149.021,151.678 149.021,158.984 L149.021,174 Z"/>
    <path fill="#FFD15D" d="M129.782,201.5 L111.782,201.5 C103.498,201.5 96.521,195.202 96.521,186.917 L96.521,183.5 L144.521,183.5 L144.521,186.917 C144.521,195.202 138.066,201.5 129.782,201.5"/>
    <path fill="#FFD15D" d="M97.021,184 L97.021,186.917 C97.021,194.683 103.643,201 111.782,201 L129.782,201 C137.899,201 144.021,194.946 144.021,186.917 L144.021,184 L97.021,184 Z M129.782,202 L111.782,202 C103.091,202 96.02,195.234 96.02,186.917 L96.02,183 L145.021,183 L145.021,186.917 C145.021,195.375 138.327,202 129.782,202 Z"/>
    <polygon fill="#DEDEDD" points="92.02 181 148.021 181 148.021 173 92.02 173"/>
    <path fill="#DEDEDD" d="M93.02,180 L147.021,180 L147.021,174 L93.02,174 L93.02,180 Z M91.021,182 L149.021,182 L149.021,172 L91.021,172 L91.021,182 Z"/>
    <polygon fill="#48515A" points="88.021 174 152.021 174 152.021 172 88.021 172"/>
    <path fill="#48515A" d="M132.294,206 L110.999,206 C106.126,206 101.352,204.045 97.869,200.629 L97.867,200.628 L97.653,200.462 C94.074,196.883 92.02,192.083 92.02,187.295 L92.02,181 L94.021,181 L94.021,187.295 C94.021,191.504 95.814,195.734 98.948,198.928 L99.156,199.09 C102.277,202.21 106.594,204 110.999,204 L132.043,204 C135.357,203.15 139.101,201.894 141.904,199.09 L142.131,198.863 L142.25,198.843 C145.286,195.694 147.021,191.503 147.021,187.295 L147.021,181 L149.021,181 L149.021,187.295 C149.021,192.131 146.987,196.938 143.442,200.483 L143.216,200.71 L143.086,200.732 C139.939,203.75 135.935,205.074 132.415,205.969 L132.294,206"/>
    <polygon fill="#48515A" points="88.021 178 152.021 178 152.021 176 88.021 176"/>
    <polygon fill="#48515A" points="88.021 182 152.021 182 152.021 180 88.021 180"/>
    <path fill="#48515A" d="M186.859,185.911 C184.653,185.911 182.859,187.705 182.859,189.911 C182.859,192.116 184.653,193.911 186.859,193.911 C189.065,193.911 190.859,192.116 190.859,189.911 C190.859,187.705 189.065,185.911 186.859,185.911 Z M186.859,195.911 C183.551,195.911 180.859,193.219 180.859,189.911 C180.859,186.602 183.551,183.911 186.859,183.911 C190.168,183.911 192.859,186.602 192.859,189.911 C192.859,193.219 190.168,195.911 186.859,195.911 Z"/>
    <path fill="#FFD15D" d="M80.008,200.911 C80.008,198.702 78.217,196.911 76.008,196.911 C73.799,196.911 72.008,198.702 72.008,200.911 C72.008,203.12 73.799,204.911 76.008,204.911 C78.217,204.911 80.008,203.12 80.008,200.911"/>
    <polygon fill="#48515A" points="170.021 33 172.021 33 172.021 29 170.021 29"/>
    <polygon fill="#48515A" points="170.021 43 172.021 43 172.021 39 170.021 39"/>
    <polygon fill="#48515A" points="174.021 37 178.021 37 178.021 35 174.021 35"/>
    <polygon fill="#48515A" points="164.021 37 168.021 37 168.021 35 164.021 35"/>
    <polygon fill="#48515A" points="200.021 83 202.021 83 202.021 79 200.021 79"/>
    <polygon fill="#48515A" points="200.021 93 202.021 93 202.021 89 200.021 89"/>
    <polygon fill="#48515A" points="204.021 87 208.021 87 208.021 85 204.021 85"/>
    <polygon fill="#48515A" points="194.021 87 198.021 87 198.021 85 194.021 85"/>
    <polygon fill="#48515A" points="44.021 151.018 46.021 151.018 46.021 147.018 44.021 147.018"/>
    <polygon fill="#48515A" points="44.021 161.018 46.021 161.018 46.021 157.018 44.021 157.018"/>
    <polygon fill="#48515A" points="48.02 155.018 52.02 155.018 52.02 153.018 48.02 153.018"/>
    <polygon fill="#48515A" points="38.021 155.018 42.021 155.018 42.021 153.018 38.021 153.018"/>
    <path fill="#48515A" d="M44.788,109.929 C43.685,109.929 42.788,110.826 42.788,111.929 C42.788,113.032 43.685,113.929 44.788,113.929 C45.891,113.929 46.788,113.032 46.788,111.929 C46.788,110.826 45.891,109.929 44.788,109.929 Z M44.788,115.929 C42.582,115.929 40.788,114.134 40.788,111.929 C40.788,109.723 42.582,107.929 44.788,107.929 C46.993,107.929 48.788,109.723 48.788,111.929 C48.788,114.134 46.993,115.929 44.788,115.929 Z"/>
    <polygon fill="#48515A" points="150.021 211 152.021 211 152.021 207 150.021 207"/>
    <polygon fill="#48515A" points="150.021 221 152.021 221 152.021 217 150.021 217"/>
    <polygon fill="#48515A" points="154.021 215 158.021 215 158.021 213 154.021 213"/>
    <polygon fill="#48515A" points="144.021 215 148.021 215 148.021 213 144.021 213"/>
    <polygon fill="#48515A" points="117.021 213 119.021 213 119.021 205 117.021 205"/>
    <polygon fill="#48515A" points="123.021 213 125.021 213 125.021 205 123.021 205"/>
    <path fill="#48515A" d="M118.021 217C117.89 217 117.76 216.97 117.64 216.92 117.51 216.87 117.41 216.8 117.311 216.71 117.271 216.66 117.23 216.61 117.19 216.56 117.15 216.5 117.12 216.44 117.1 216.38 117.07 216.32 117.05 216.26 117.041 216.2 117.03 216.13 117.021 216.06 117.021 216 117.021 215.87 117.05 215.74 117.1 215.62 117.15 215.5 117.22 215.39 117.311 215.29 117.41 215.2 117.51 215.13 117.64 215.08 117.88 214.98 118.16 214.98 118.4 215.08 118.53 215.13 118.64 215.2 118.73 215.29 118.91 215.48 119.021 215.74 119.021 216 119.021 216.06 119.01 216.13 119 216.2 118.99 216.26 118.97 216.32 118.94 216.38 118.92 216.44 118.89 216.5 118.85 216.56 118.811 216.61 118.771 216.66 118.73 216.71 118.63 216.8 118.53 216.87 118.4 216.92 118.28 216.97 118.15 217 118.021 217M124.021 217C123.76 217 123.5 216.89 123.311 216.71 123.13 216.52 123.021 216.26 123.021 216 123.021 215.74 123.13 215.48 123.311 215.29 123.69 214.92 124.35 214.92 124.73 215.29 124.91 215.48 125.021 215.74 125.021 216 125.021 216.26 124.91 216.52 124.73 216.71 124.541 216.89 124.28 217 124.021 217M118.021 221C117.89 221 117.76 220.97 117.64 220.92 117.51 220.87 117.41 220.8 117.311 220.71 117.13 220.52 117.021 220.26 117.021 220 117.021 219.87 117.05 219.74 117.1 219.62 117.15 219.49 117.22 219.39 117.311 219.29 117.68 218.92 118.35 218.92 118.73 219.29 118.82 219.39 118.89 219.5 118.94 219.62 118.99 219.74 119.021 219.87 119.021 220 119.021 220.26 118.91 220.52 118.73 220.71 118.541 220.89 118.28 221 118.021 221M124.021 221C123.89 221 123.76 220.97 123.64 220.92 123.521 220.87 123.41 220.8 123.311 220.71 123.13 220.52 123.021 220.26 123.021 220 123.021 219.94 123.03 219.87 123.041 219.81 123.05 219.74 123.07 219.68 123.1 219.62 123.12 219.56 123.15 219.5 123.19 219.44 123.23 219.39 123.271 219.34 123.311 219.29 123.41 219.2 123.521 219.13 123.64 219.08 123.88 218.98 124.16 218.98 124.4 219.08 124.521 219.13 124.63 219.2 124.73 219.29 124.771 219.34 124.811 219.39 124.85 219.44 124.89 219.5 124.92 219.56 124.94 219.62 124.97 219.68 124.99 219.74 125 219.81 125.01 219.87 125.021 219.94 125.021 220 125.021 220.26 124.91 220.52 124.73 220.71 124.63 220.8 124.521 220.87 124.4 220.92 124.28 220.97 124.15 221 124.021 221M119.89 39.92C119.34 39.92 118.89 39.47 118.9 38.91 118.9 38.36 119.34 37.91 119.9 37.92 120.45 37.92 120.9 38.36 120.89 38.92 120.89 39.47 120.45 39.92 119.9 39.92L119.89 39.92zM114.89 39.1C114.86 38.55 115.271 38.08 115.831 38.04 116.38 38.01 116.85 38.42 116.89 38.98 116.92 39.53 116.5 40 115.95 40.04 115.93 40.04 115.91 40.04 115.89 40.04 115.37 40.04 114.93 39.63 114.89 39.1zM123.831 40.05C123.28 40.02 122.87 39.54 122.9 38.99 122.94 38.44 123.42 38.02 123.97 38.06 124.521 38.1 124.94 38.57 124.9 39.12 124.86 39.65 124.42 40.06 123.9 40.06 123.88 40.06 123.86 40.06 123.831 40.05zM110.91 39.56C110.84 39.01 111.22 38.51 111.771 38.44 112.32 38.36 112.82 38.75 112.89 39.3 112.97 39.84 112.581 40.35 112.03 40.42 111.99 40.43 111.95 40.43 111.9 40.43 111.41 40.43 110.98 40.06 110.91 39.56zM127.75 40.45C127.75 40.45 127.75 40.45 127.75 40.46 127.2 40.38 126.82 39.88 126.9 39.33 126.971 38.78 127.471 38.4 128.021 38.47 128.57 38.55 128.95 39.05 128.88 39.6 128.811 40.1 128.38 40.46 127.891 40.46 127.84 40.46 127.801 40.46 127.75 40.45zM106.97 40.28C106.86 39.74 107.21 39.21 107.75 39.1 108.291 38.99 108.82 39.34 108.93 39.89 109.041 40.43 108.69 40.95 108.15 41.06 108.081 41.08 108.01 41.08 107.95 41.08 107.48 41.08 107.061 40.75 106.97 40.28zM131.641 41.12C131.641 41.12 131.641 41.12 131.63 41.12 131.09 41.01 130.75 40.48 130.86 39.94 130.971 39.4 131.5 39.05 132.04 39.16 132.58 39.27 132.931 39.8 132.82 40.34 132.721 40.81 132.301 41.14 131.84 41.14 131.771 41.14 131.7 41.13 131.641 41.12zM103.081 41.26C102.94 40.73 103.25 40.18 103.791 40.04L103.791 40.03C104.32 39.89 104.87 40.2 105.01 40.74 105.16 41.27 104.84 41.82 104.311 41.96 104.22 41.99 104.13 42 104.05 42 103.61 42 103.2 41.71 103.081 41.26zM135.46 42.04C134.931 41.9 134.62 41.34 134.771 40.81 134.92 40.28 135.471 39.97 136 40.12 136.53 40.26 136.84 40.81 136.7 41.35 136.57 41.79 136.17 42.08 135.73 42.08 135.641 42.08 135.551 42.07 135.46 42.04zM99.271 42.5C99.09 41.98 99.37 41.41 99.89 41.23 100.41 41.05 100.98 41.33 101.16 41.85 101.34 42.37 101.061 42.94 100.541 43.12 100.44 43.16 100.331 43.18 100.22 43.18 99.8 43.18 99.41 42.92 99.271 42.5zM139.221 43.22C138.7 43.04 138.42 42.47 138.61 41.95 138.79 41.43 139.36 41.15 139.88 41.34 140.4 41.52 140.681 42.09 140.49 42.61 140.351 43.02 139.96 43.28 139.551 43.28 139.44 43.28 139.33 43.26 139.221 43.22zM95.55 44C95.331 43.49 95.57 42.91 96.081 42.69 96.59 42.48 97.18 42.71 97.39 43.22 97.6 43.73 97.37 44.32 96.86 44.53 96.73 44.59 96.6 44.61 96.47 44.61 96.081 44.61 95.71 44.38 95.55 44zM142.891 44.65C142.38 44.44 142.141 43.85 142.36 43.34 142.58 42.83 143.17 42.6 143.67 42.82 144.181 43.03 144.42 43.62 144.2 44.13 144.04 44.51 143.67 44.74 143.28 44.74 143.15 44.74 143.011 44.71 142.891 44.65zM91.93 45.75C91.69 45.25 91.88 44.65 92.38 44.4 92.87 44.15 93.47 44.35 93.72 44.84 93.97 45.34 93.77 45.94 93.28 46.19 93.13 46.26 92.98 46.3 92.831 46.3 92.46 46.3 92.11 46.09 91.93 45.75zM146.45 46.33C145.96 46.08 145.761 45.47 146.021 44.98 146.271 44.49 146.87 44.29 147.36 44.54 147.851 44.8 148.051 45.4 147.801 45.89 147.62 46.24 147.271 46.44 146.9 46.44 146.75 46.44 146.601 46.4 146.45 46.33zM88.45 47.73C88.16 47.25 88.32 46.64 88.8 46.36 89.27 46.08 89.89 46.24 90.17 46.71 90.45 47.19 90.29 47.8 89.82 48.08 89.66 48.17 89.48 48.22 89.311 48.22 88.97 48.22 88.63 48.04 88.45 47.73zM149.9 48.23C149.42 47.95 149.271 47.34 149.551 46.86 149.83 46.39 150.45 46.23 150.92 46.52 151.4 46.8 151.551 47.42 151.271 47.89 151.08 48.2 150.75 48.38 150.41 48.38 150.23 48.38 150.061 48.33 149.9 48.23zM85.1 49.94C84.79 49.48 84.9 48.86 85.36 48.55 85.82 48.23 86.44 48.35 86.751 48.81 87.061 49.26 86.95 49.89 86.49 50.2 86.32 50.32 86.12 50.37 85.92 50.37 85.6 50.37 85.29 50.22 85.1 49.94zM153.21 50.37C152.75 50.05 152.641 49.43 152.96 48.98 153.271 48.52 153.891 48.41 154.351 48.72 154.801 49.04 154.92 49.66 154.601 50.11 154.41 50.39 154.09 50.54 153.78 50.54 153.58 50.54 153.38 50.49 153.21 50.37zM81.91 52.37C81.57 51.93 81.64 51.3 82.081 50.96 82.51 50.62 83.14 50.69 83.48 51.13 83.82 51.56 83.751 52.19 83.311 52.53 83.13 52.68 82.91 52.75 82.69 52.75 82.4 52.75 82.1 52.62 81.91 52.37zM156.38 52.71C155.94 52.37 155.87 51.74 156.21 51.31 156.561 50.88 157.19 50.8 157.62 51.15 158.051 51.49 158.12 52.12 157.78 52.55 157.58 52.8 157.29 52.93 157 52.93 156.78 52.93 156.561 52.86 156.38 52.71zM78.88 55C78.51 54.59 78.55 53.96 78.96 53.59 79.37 53.22 80.001 53.25 80.37 53.66 80.74 54.07 80.71 54.7 80.3 55.07 80.11 55.25 79.87 55.33 79.63 55.33 79.35 55.33 79.081 55.22 78.88 55zM159.38 55.27C158.971 54.9 158.94 54.26 159.311 53.85 159.681 53.44 160.32 53.41 160.721 53.79 161.13 54.16 161.16 54.79 160.79 55.2 160.59 55.42 160.32 55.53 160.051 55.53 159.811 55.53 159.57 55.44 159.38 55.27zM76.04 57.83C75.65 57.44 75.64 56.81 76.021 56.41 76.41 56.02 77.04 56.01 77.44 56.39 77.831 56.78 77.84 57.41 77.46 57.81 77.26 58.01 77.001 58.11 76.74 58.11 76.49 58.11 76.24 58.02 76.04 57.83zM162.21 58.01C161.83 57.61 161.84 56.98 162.24 56.6 162.63 56.21 163.271 56.22 163.65 56.62 164.03 57.02 164.021 57.65 163.62 58.03 163.431 58.22 163.181 58.32 162.931 58.32 162.67 58.32 162.41 58.21 162.21 58.01zM73.4 60.84C72.98 60.48 72.93 59.85 73.28 59.43 73.64 59.01 74.271 58.96 74.69 59.31 75.11 59.67 75.17 60.3 74.811 60.72 74.61 60.96 74.331 61.08 74.04 61.08 73.82 61.08 73.59 61 73.4 60.84zM164.86 60.93C164.5 60.51 164.551 59.88 164.971 59.52 165.391 59.17 166.03 59.22 166.38 59.64 166.74 60.07 166.69 60.7 166.261 61.05 166.08 61.21 165.851 61.29 165.62 61.29 165.33 61.29 165.051 61.17 164.86 60.93zM70.96 64.02C70.51 63.69 70.42 63.06 70.751 62.62 71.081 62.17 71.7 62.08 72.15 62.41 72.59 62.74 72.69 63.36 72.36 63.81 72.16 64.07 71.86 64.21 71.55 64.21 71.35 64.21 71.14 64.15 70.96 64.02zM167.301 64.03C166.971 63.58 167.07 62.96 167.511 62.63 167.96 62.3 168.58 62.4 168.91 62.84 169.24 63.28 169.141 63.91 168.7 64.24 168.521 64.37 168.311 64.43 168.11 64.43 167.801 64.43 167.5 64.29 167.301 64.03zM68.73 67.35C68.271 67.05 68.14 66.43 68.43 65.97 68.73 65.5 69.35 65.37 69.82 65.67 70.28 65.97 70.42 66.58 70.12 67.05 69.93 67.35 69.6 67.51 69.28 67.51 69.09 67.51 68.9 67.46 68.73 67.35zM169.54 67.28C169.24 66.81 169.37 66.19 169.84 65.9 170.301 65.6 170.92 65.73 171.221 66.2 171.521 66.66 171.38 67.28 170.92 67.58 170.75 67.69 170.561 67.74 170.38 67.74 170.051 67.74 169.73 67.57 169.54 67.28zM66.74 70.82C66.26 70.56 66.081 69.95 66.35 69.46 66.62 68.98 67.22 68.81 67.71 69.07 68.19 69.34 68.37 69.95 68.1 70.43 67.92 70.76 67.581 70.95 67.22 70.95 67.061 70.95 66.89 70.91 66.74 70.82zM171.551 70.67C171.28 70.18 171.46 69.57 171.94 69.31 172.431 69.04 173.04 69.22 173.301 69.7 173.57 70.19 173.391 70.79 172.91 71.06 172.75 71.14 172.59 71.18 172.431 71.18 172.07 71.18 171.73 71 171.551 70.67zM64.98 74.42C64.48 74.19 64.27 73.59 64.501 73.09 64.73 72.59 65.331 72.37 65.831 72.61 66.331 72.84 66.54 73.44 66.311 73.94 66.14 74.3 65.78 74.51 65.41 74.51 65.26 74.51 65.12 74.48 64.98 74.42zM173.33 74.18C173.101 73.68 173.32 73.09 173.82 72.86 174.32 72.62 174.91 72.84 175.15 73.34 175.38 73.84 175.16 74.44 174.66 74.67 174.53 74.73 174.38 74.76 174.24 74.76 173.86 74.76 173.5 74.55 173.33 74.18zM63.47 78.13C62.95 77.93 62.7 77.35 62.9 76.83 63.1 76.32 63.68 76.06 64.19 76.26 64.71 76.46 64.96 77.04 64.771 77.56 64.61 77.95 64.23 78.19 63.831 78.19 63.71 78.19 63.59 78.17 63.47 78.13zM174.88 77.81C174.681 77.3 174.931 76.72 175.45 76.52 175.96 76.32 176.54 76.58 176.74 77.09 176.94 77.61 176.69 78.19 176.17 78.39 176.051 78.43 175.931 78.46 175.811 78.46 175.41 78.46 175.03 78.21 174.88 77.81zM62.21 81.93C61.68 81.77 61.39 81.2 61.55 80.68 61.72 80.15 62.28 79.86 62.811 80.02 63.331 80.19 63.63 80.75 63.46 81.27 63.331 81.7 62.93 81.98 62.51 81.98 62.41 81.98 62.31 81.96 62.21 81.93zM176.17 81.54C176.011 81.01 176.301 80.45 176.83 80.29 177.36 80.12 177.92 80.42 178.08 80.95 178.24 81.48 177.95 82.03 177.42 82.2 177.32 82.23 177.221 82.24 177.13 82.24 176.7 82.24 176.301 81.97 176.17 81.54zM61.21 85.81C60.67 85.68 60.34 85.14 60.47 84.6 60.6 84.07 61.14 83.74 61.67 83.87 62.21 83.99 62.541 84.53 62.41 85.07 62.3 85.53 61.89 85.84 61.44 85.84 61.36 85.84 61.291 85.83 61.21 85.81zM177.21 85.34C177.08 84.8 177.41 84.26 177.95 84.14 178.49 84.01 179.03 84.34 179.16 84.88 179.28 85.42 178.95 85.95 178.41 86.08 178.33 86.1 178.261 86.11 178.181 86.11 177.73 86.11 177.32 85.8 177.21 85.34zM60.47 89.75C59.92 89.66 59.561 89.14 59.65 88.6 59.74 88.05 60.26 87.69 60.8 87.78 61.35 87.87 61.71 88.39 61.62 88.93 61.54 89.42 61.11 89.76 60.64 89.76 60.581 89.76 60.521 89.76 60.47 89.75zM177.99 89.2C177.9 88.66 178.261 88.14 178.811 88.05 179.351 87.96 179.87 88.33 179.96 88.87 180.051 89.42 179.681 89.93 179.141 90.03 179.08 90.03 179.03 90.04 178.971 90.04 178.49 90.04 178.07 89.69 177.99 89.2zM59.99 93.73C59.44 93.67 59.04 93.18 59.1 92.63 59.16 92.08 59.65 91.68 60.2 91.74 60.75 91.8 61.15 92.29 61.09 92.84 61.04 93.35 60.6 93.74 60.09 93.74 60.061 93.74 60.03 93.73 59.99 93.73zM178.5 93.11C178.45 92.56 178.851 92.07 179.4 92.02 179.95 91.96 180.44 92.36 180.49 92.92L180.49 92.91C180.54 93.46 180.141 93.95 179.59 94.01 179.561 94.01 179.53 94.01 179.49 94.01 178.99 94.01 178.551 93.62 178.5 93.11zM59.78 97.73C59.23 97.71 58.8 97.25 58.82 96.7 58.84 96.14 59.3 95.71 59.85 95.73 60.41 95.75 60.84 96.22 60.82 96.77 60.8 97.31 60.35 97.73 59.82 97.73 59.811 97.73 59.8 97.73 59.78 97.73zM178.75 97.04C178.73 96.49 179.17 96.03 179.721 96.01 180.271 95.99 180.73 96.43 180.75 96.98 180.761 97.53 180.33 97.99 179.78 98.01 179.771 98.01 179.761 98.01 179.75 98.01 179.21 98.01 178.771 97.58 178.75 97.04zM58.811 100.77C58.79 100.22 59.22 99.76 59.78 99.74 60.331 99.72 60.791 100.16 60.811 100.71 60.82 101.26 60.39 101.72 59.84 101.74 59.831 101.74 59.82 101.74 59.811 101.74 59.27 101.74 58.82 101.31 58.811 100.77zM179.71 102.02C179.16 102 178.721 101.54 178.74 100.99 178.74 100.99 178.74 100.99 178.74 100.98 178.761 100.43 179.221 100 179.78 100.02 180.33 100.04 180.761 100.5 180.74 101.05 180.721 101.59 180.28 102.02 179.74 102.02 179.73 102.02 179.721 102.02 179.71 102.02zM59.07 104.84C59.01 104.29 59.42 103.8 59.97 103.74 60.51 103.69 61 104.09 61.061 104.64 61.11 105.19 60.71 105.68 60.16 105.73 60.12 105.74 60.09 105.74 60.061 105.74 59.55 105.74 59.12 105.35 59.07 104.84zM179.37 106.01C178.82 105.96 178.42 105.47 178.48 104.92 178.53 104.37 179.021 103.97 179.57 104.02 180.12 104.08 180.521 104.57 180.471 105.12 180.42 105.64 179.98 106.02 179.471 106.02 179.44 106.02 179.41 106.02 179.37 106.01zM59.6 108.88C59.51 108.33 59.87 107.82 60.42 107.73 60.97 107.63 61.48 108 61.57 108.55 61.66 109.09 61.291 109.61 60.75 109.7 60.69 109.71 60.64 109.71 60.581 109.71 60.1 109.71 59.68 109.37 59.6 108.88zM178.771 109.98C178.23 109.88 177.86 109.37 177.95 108.82 178.04 108.28 178.561 107.91 179.101 108 179.65 108.1 180.021 108.61 179.92 109.16 179.84 109.65 179.42 109.99 178.94 109.99 178.88 109.99 178.83 109.99 178.771 109.98zM60.4 112.87C60.271 112.33 60.6 111.8 61.14 111.67 61.68 111.54 62.22 111.87 62.35 112.41 62.47 112.95 62.14 113.49 61.6 113.62 61.53 113.63 61.45 113.64 61.37 113.64 60.92 113.64 60.51 113.33 60.4 112.87zM177.891 114.05C177.351 113.93 177.011 113.39 177.13 112.85 177.13 112.83 177.141 112.81 177.15 112.78 177.15 112.75 177.16 112.72 177.17 112.69 177.29 112.15 177.83 111.82 178.37 111.95 178.91 112.08 179.24 112.61 179.11 113.15 179.11 113.17 179.101 113.19 179.09 113.21 179.09 113.24 179.09 113.26 179.08 113.29 178.971 113.76 178.561 114.07 178.11 114.07 178.03 114.07 177.96 114.06 177.891 114.05zM61.47 116.81C61.311 116.28 61.6 115.72 62.13 115.56 62.66 115.4 63.22 115.69 63.38 116.22 63.55 116.75 63.25 117.31 62.72 117.47 62.62 117.5 62.521 117.51 62.43 117.51 62 117.51 61.6 117.24 61.47 116.81zM176.801 117.91C176.271 117.75 175.971 117.19 176.13 116.66 176.29 116.13 176.851 115.83 177.38 115.99 177.91 116.15 178.21 116.71 178.051 117.24 177.92 117.67 177.521 117.95 177.09 117.95 177 117.95 176.9 117.94 176.801 117.91zM62.811 120.66L62.811 120.67C62.61 120.15 62.87 119.57 63.38 119.37 63.9 119.17 64.48 119.43 64.67 119.94 64.67 119.94 64.67 119.94 64.67 119.95 64.87 120.46 64.62 121.04 64.1 121.24 63.981 121.28 63.86 121.3 63.74 121.3 63.34 121.3 62.96 121.06 62.811 120.66zM175.44 121.68C174.92 121.48 174.67 120.9 174.86 120.39 175.061 119.87 175.641 119.61 176.15 119.81 176.67 120.01 176.931 120.58 176.73 121.1 176.58 121.5 176.2 121.74 175.801 121.74 175.681 121.74 175.561 121.72 175.44 121.68zM64.4 124.42C64.17 123.92 64.38 123.32 64.89 123.09 65.39 122.86 65.98 123.08 66.21 123.58 66.45 124.08 66.23 124.67 65.73 124.9 65.59 124.97 65.45 125 65.311 125 64.93 125 64.57 124.78 64.4 124.42zM173.811 125.34C173.311 125.11 173.09 124.51 173.33 124.01 173.561 123.51 174.16 123.3 174.66 123.53 175.16 123.76 175.37 124.36 175.141 124.86 174.971 125.22 174.61 125.43 174.23 125.43 174.09 125.43 173.95 125.4 173.811 125.34zM66.24 128.06C65.97 127.57 66.15 126.96 66.64 126.7 67.12 126.44 67.73 126.61 67.99 127.1 68.26 127.58 68.081 128.19 67.6 128.46 67.44 128.54 67.28 128.58 67.12 128.58 66.76 128.58 66.42 128.39 66.24 128.06zM171.92 128.88C171.44 128.61 171.261 128 171.53 127.51 171.53 127.51 171.53 127.51 171.53 127.52 171.801 127.03 172.41 126.86 172.891 127.13 173.38 127.4 173.551 128.01 173.28 128.49 173.101 128.82 172.761 129 172.41 129 172.24 129 172.07 128.96 171.92 128.88zM68.32 131.57C68.02 131.1 68.16 130.48 68.62 130.19 69.09 129.89 69.71 130.02 70.001 130.49 70.3 130.96 70.16 131.57 69.7 131.87 69.53 131.98 69.34 132.03 69.16 132.03 68.831 132.03 68.51 131.87 68.32 131.57zM169.78 132.27C169.32 131.96 169.19 131.34 169.49 130.88 169.79 130.42 170.42 130.29 170.88 130.59 171.34 130.9 171.471 131.52 171.16 131.98 170.971 132.27 170.65 132.43 170.33 132.43 170.141 132.43 169.95 132.38 169.78 132.27zM70.62 134.93C70.29 134.48 70.39 133.85 70.831 133.53 71.28 133.2 71.9 133.3 72.23 133.74 72.561 134.19 72.46 134.81 72.021 135.14 71.84 135.27 71.63 135.33 71.43 135.33 71.12 135.33 70.82 135.19 70.62 134.93zM167.4 135.49C166.96 135.15 166.87 134.53 167.21 134.09 167.551 133.65 168.17 133.57 168.61 133.9 169.051 134.24 169.141 134.87 168.801 135.31 168.601 135.56 168.301 135.7 168 135.7 167.79 135.7 167.58 135.63 167.4 135.49zM73.14 138.13C72.79 137.71 72.84 137.08 73.26 136.72 73.68 136.36 74.311 136.42 74.67 136.84 75.03 137.26 74.97 137.9 74.55 138.25 74.36 138.41 74.13 138.48 73.91 138.48 73.62 138.48 73.34 138.36 73.14 138.13zM164.82 138.57C164.4 138.21 164.351 137.58 164.71 137.16 165.07 136.74 165.7 136.69 166.12 137.04 166.54 137.4 166.59 138.03 166.23 138.45 166.04 138.69 165.75 138.8 165.471 138.8 165.24 138.8 165.011 138.73 164.82 138.57zM75.87 141.16C75.48 140.76 75.501 140.13 75.9 139.74 76.29 139.36 76.93 139.37 77.311 139.77 77.69 140.17 77.68 140.8 77.28 141.18 77.09 141.37 76.84 141.46 76.59 141.46 76.331 141.46 76.061 141.36 75.87 141.16zM162.08 141.49C161.681 141.1 161.67 140.47 162.061 140.07 162.44 139.67 163.08 139.67 163.471 140.05 163.87 140.44 163.87 141.07 163.49 141.47 163.29 141.67 163.03 141.77 162.771 141.77 162.521 141.77 162.271 141.67 162.08 141.49zM78.79 144C78.38 143.63 78.35 142.99 78.72 142.59 79.09 142.18 79.72 142.15 80.13 142.52 80.54 142.89 80.57 143.52 80.2 143.93 80.001 144.15 79.73 144.26 79.46 144.26 79.22 144.26 78.98 144.17 78.79 144zM159.141 144.21C158.771 143.8 158.801 143.17 159.221 142.8 159.221 142.8 159.221 142.8 159.21 142.8 159.62 142.43 160.261 142.46 160.63 142.88 161 143.29 160.96 143.92 160.551 144.29 160.36 144.46 160.12 144.54 159.88 144.54 159.61 144.54 159.34 144.43 159.141 144.21zM81.89 146.64C81.45 146.3 81.38 145.67 81.73 145.24 82.07 144.81 82.7 144.73 83.13 145.08 83.561 145.42 83.63 146.05 83.29 146.48 83.09 146.73 82.8 146.86 82.51 146.86 82.29 146.86 82.07 146.79 81.89 146.64zM156.03 146.74C155.69 146.31 155.761 145.68 156.2 145.34 156.63 145 157.261 145.07 157.601 145.51 157.94 145.94 157.87 146.57 157.431 146.91 157.25 147.06 157.03 147.12 156.82 147.12 156.521 147.12 156.23 146.99 156.03 146.74zM85.15 149.08C84.7 148.76 84.59 148.14 84.9 147.68 85.22 147.23 85.84 147.12 86.29 147.43 86.74 147.75 86.86 148.37 86.54 148.82 86.35 149.1 86.04 149.25 85.72 149.25 85.521 149.25 85.32 149.2 85.15 149.08zM152.761 149.06C152.44 148.6 152.561 147.98 153.021 147.67 153.471 147.36 154.101 147.48 154.41 147.93 154.721 148.39 154.601 149.01 154.15 149.32 153.971 149.44 153.78 149.5 153.58 149.5 153.261 149.5 152.95 149.34 152.761 149.06zM88.57 151.29C88.1 151 87.95 150.39 88.23 149.91 88.51 149.44 89.13 149.29 89.6 149.57 90.07 149.86 90.23 150.47 89.94 150.94 89.76 151.25 89.43 151.43 89.09 151.43 88.91 151.43 88.73 151.38 88.57 151.29zM149.34 151.15C149.061 150.68 149.21 150.06 149.69 149.78 150.17 149.5 150.78 149.66 151.061 150.14 151.34 150.61 151.181 151.23 150.71 151.51 150.551 151.6 150.37 151.65 150.2 151.65 149.86 151.65 149.521 151.47 149.34 151.15zM92.13 153.26C91.64 153.01 91.44 152.41 91.7 151.92 91.95 151.43 92.55 151.23 93.04 151.48 93.54 151.74 93.73 152.34 93.48 152.83 93.3 153.18 92.95 153.37 92.59 153.37 92.43 153.37 92.28 153.34 92.13 153.26zM145.78 153.01C145.54 152.52 145.73 151.92 146.23 151.67 146.721 151.42 147.32 151.62 147.57 152.12 147.82 152.61 147.62 153.21 147.13 153.46L147.12 153.46C146.98 153.53 146.83 153.56 146.681 153.56 146.311 153.56 145.96 153.36 145.78 153.01zM95.811 155C95.311 154.78 95.07 154.19 95.29 153.68 95.51 153.18 96.1 152.94 96.6 153.16 97.11 153.38 97.35 153.97 97.13 154.48 96.96 154.85 96.6 155.08 96.21 155.08 96.081 155.08 95.94 155.05 95.811 155zM142.11 154.63C141.9 154.12 142.141 153.54 142.65 153.32 143.16 153.1 143.74 153.34 143.96 153.85 144.17 154.36 143.931 154.95 143.42 155.16 143.301 155.22 143.17 155.24 143.04 155.24 142.65 155.24 142.28 155.01 142.11 154.63zM99.61 156.48C99.081 156.3 98.811 155.73 99.001 155.21 99.18 154.69 99.751 154.41 100.271 154.59 100.271 154.59 100.271 154.59 100.271 154.6 100.791 154.78 101.061 155.35 100.88 155.87 100.74 156.28 100.35 156.54 99.94 156.54 99.831 156.54 99.72 156.52 99.61 156.48zM138.351 156C138.17 155.47 138.44 154.91 138.971 154.73 139.49 154.55 140.061 154.82 140.24 155.35 140.42 155.87 140.141 156.44 139.62 156.62 139.511 156.65 139.4 156.67 139.29 156.67 138.87 156.67 138.49 156.41 138.351 156zM103.49 157.71C102.96 157.56 102.65 157.01 102.8 156.48 102.94 155.94 103.5 155.63 104.03 155.78 104.561 155.93 104.87 156.48 104.72 157.01 104.6 157.45 104.2 157.75 103.76 157.74 103.67 157.74 103.581 157.73 103.49 157.71zM134.49 157.11C134.351 156.57 134.66 156.02 135.2 155.88 135.73 155.74 136.28 156.05 136.42 156.59 136.57 157.12 136.25 157.67 135.721 157.81 135.63 157.84 135.54 157.85 135.46 157.85 135.011 157.85 134.61 157.55 134.49 157.11zM107.45 158.67C106.91 158.55 106.561 158.03 106.68 157.49 106.791 156.94 107.32 156.6 107.86 156.71 108.4 156.82 108.75 157.35 108.63 157.89 108.541 158.36 108.12 158.69 107.65 158.69 107.59 158.69 107.521 158.68 107.45 158.67zM130.57 157.96C130.46 157.41 130.82 156.89 131.36 156.78 131.9 156.67 132.431 157.02 132.53 157.57 132.641 158.11 132.29 158.63 131.75 158.74 131.681 158.76 131.62 158.76 131.551 158.76 131.08 158.76 130.66 158.43 130.57 157.96zM111.47 159.36L111.47 159.35C110.92 159.28 110.541 158.78 110.61 158.23 110.69 157.68 111.19 157.3 111.74 157.37 112.291 157.45 112.67 157.95 112.59 158.5 112.53 159 112.1 159.37 111.6 159.37 111.561 159.37 111.51 159.36 111.47 159.36zM126.601 158.54C126.53 157.99 126.92 157.49 127.471 157.42 128.011 157.35 128.511 157.73 128.59 158.28 128.66 158.83 128.271 159.33 127.721 159.4 127.681 159.41 127.641 159.41 127.59 159.41 127.101 159.41 126.67 159.04 126.601 158.54zM115.521 159.77C114.97 159.73 114.55 159.26 114.59 158.71 114.63 158.15 115.11 157.74 115.66 157.78 116.21 157.81 116.63 158.29 116.59 158.84 116.55 159.37 116.11 159.77 115.59 159.77 115.57 159.77 115.541 159.77 115.521 159.77zM122.61 158.86C122.57 158.31 122.99 157.83 123.541 157.8 124.09 157.76 124.57 158.18 124.6 158.73 124.64 159.28 124.22 159.76 123.67 159.79 123.65 159.8 123.62 159.8 123.6 159.8 123.081 159.8 122.64 159.39 122.61 158.86zM119.59 159.92C119.041 159.91 118.59 159.46 118.6 158.91 118.6 158.36 119.05 157.91 119.6 157.92 120.15 157.92 120.6 158.37 120.6 158.92 120.59 159.47 120.15 159.92 119.6 159.92 119.6 159.92 119.6 159.92 119.59 159.92z"/>
    <path fill="#475059" d="M194.979,150.581 C190.017,150.581 185.979,154.619 185.979,159.581 C185.979,164.543 190.017,168.581 194.979,168.581 C199.942,168.581 203.979,164.543 203.979,159.581 C203.979,154.619 199.942,150.581 194.979,150.581 Z M194.979,170.581 C188.914,170.581 183.979,165.646 183.979,159.581 C183.979,153.516 188.914,148.581 194.979,148.581 C201.045,148.581 205.979,153.516 205.979,159.581 C205.979,165.646 201.045,170.581 194.979,170.581 Z M194.979,144.581 C186.708,144.581 179.979,151.31 179.979,159.581 C179.979,167.852 186.708,174.581 194.979,174.581 C203.251,174.581 209.979,167.852 209.979,159.581 C209.979,151.31 203.251,144.581 194.979,144.581 Z M194.979,176.581 C185.605,176.581 177.979,168.955 177.979,159.581 C177.979,150.207 185.605,142.581 194.979,142.581 C204.354,142.581 211.979,150.207 211.979,159.581 C211.979,168.955 204.354,176.581 194.979,176.581 Z"/>
    <path fill="#475059" d="M194.979,156.581 C193.325,156.581 191.979,157.927 191.979,159.581 C191.979,161.235 193.325,162.581 194.979,162.581 C196.634,162.581 197.979,161.235 197.979,159.581 C197.979,157.927 196.634,156.581 194.979,156.581 Z M194.979,164.581 C192.223,164.581 189.979,162.338 189.979,159.581 C189.979,156.824 192.223,154.581 194.979,154.581 C197.736,154.581 199.979,156.824 199.979,159.581 C199.979,162.338 197.736,164.581 194.979,164.581 Z"/>
    <path fill="#F58E70" d="M194.98,155.581 C192.77,155.581 190.98,157.372 190.98,159.581 C190.98,161.79 192.77,163.581 194.98,163.581 C197.189,163.581 198.98,161.79 198.98,159.581 C198.98,157.372 197.189,155.581 194.98,155.581"/>
    <path fill="#F58E70" d="M194.979,156.581 C193.325,156.581 191.979,157.927 191.979,159.581 C191.979,161.235 193.325,162.581 194.979,162.581 C196.634,162.581 197.979,161.235 197.979,159.581 C197.979,157.927 196.634,156.581 194.979,156.581 Z M194.979,164.581 C192.223,164.581 189.979,162.338 189.979,159.581 C189.979,156.824 192.223,154.581 194.979,154.581 C197.736,154.581 199.979,156.824 199.979,159.581 C199.979,162.338 197.736,164.581 194.979,164.581 Z"/>
    <polygon fill="#475059" points="168.021 161 195.021 161 195.021 159 168.021 159"/>
    <path fill="#475059" d="M161.395,163 L164.566,163 L167.566,160 L164.566,157 L161.395,157 L164.395,160 L161.395,163 Z M165.395,165 L156.566,165 L161.566,160 L156.566,155 L165.395,155 L170.395,160 L165.395,165 Z"/>
    <polygon fill="#48515A" points="119.989 173 121.989 173 121.989 153.019 119.989 153.019"/>
    <path fill="#48515A" d="M120.914,53.661 L90.231,83.665 C79.946,93.951 79.945,110.7 90.238,120.993 L120.927,151.605 L150.846,121.609 C155.833,116.622 158.579,109.993 158.58,102.941 C158.58,95.889 155.834,89.259 150.848,84.273 L120.914,53.661 Z M120.931,154.433 L88.825,122.408 C77.751,111.334 77.751,93.316 88.825,82.244 L120.945,50.833 L152.27,82.867 C157.626,88.223 160.58,95.355 160.58,102.941 C160.579,110.527 157.625,117.659 152.261,123.022 L120.931,154.433 Z"/>
    <path fill="#5FE0ED" d="M96.929 104.943L94.929 104.943 94.929 102.943 96.929 102.943C107.26 102.943 116.125 109.253 119.929 118.213L119.929 101.377C119.922 91.755 112.092 83.928 102.467 83.928L100.929 83.928 100.929 81.928 102.467 81.928C110.138 81.928 116.763 86.4 119.929 92.864L119.929 57.421 91.63 85.095C87.045 89.68 84.507 95.808 84.507 102.325 84.507 108.843 87.045 114.971 91.653 119.579L119.929 147.784 119.929 127.919C119.916 115.247 109.604 104.943 96.929 104.943M149.433 85.687L121.929 57.56 121.929 92.657C125.081 86.151 131.738 81.648 139.439 81.648L139.439 83.648C129.811 83.648 121.978 91.481 121.978 101.109L121.978 102.648 121.929 102.648 121.929 118.215C125.732 109.254 134.597 102.942 144.929 102.942L144.929 104.942C132.247 104.942 121.929 115.259 121.929 127.942L121.929 147.769 149.43 120.197C158.946 110.681 158.946 95.201 149.433 85.687"/>
  </g>
</svg>
