<svg xmlns="http://www.w3.org/2000/svg" width="250" height="250" viewBox="0 0 250 250">
  <g fill="none" fill-rule="evenodd">
    <polygon fill="#48515A" points="66.564 163.247 68.564 163.247 68.564 159.247 66.564 159.247"/>
    <polygon fill="#48515A" points="66.564 173.247 68.564 173.247 68.564 169.247 66.564 169.247"/>
    <polygon fill="#48515A" points="70.564 167.247 74.564 167.247 74.564 165.247 70.564 165.247"/>
    <polygon fill="#48515A" points="60.564 167.247 64.564 167.247 64.564 165.247 60.564 165.247"/>
    <path fill="#FFD15D" d="M180.528 105.241C180.528 106.345 179.633 107.241 178.528 107.241 177.424 107.241 176.528 106.345 176.528 105.241 176.528 104.136 177.424 103.241 178.528 103.241 179.633 103.241 180.528 104.136 180.528 105.241M58.552 125.253C58.552 126.357 57.657 127.253 56.552 127.253 55.448 127.253 54.552 126.357 54.552 125.253 54.552 124.148 55.448 123.253 56.552 123.253 57.657 123.253 58.552 124.148 58.552 125.253"/>
    <path fill="#5FE0ED" d="M90.563,198.251 C90.563,199.355 89.668,200.251 88.563,200.251 C87.458,200.251 86.563,199.355 86.563,198.251 C86.563,197.146 87.458,196.251 88.563,196.251 C89.668,196.251 90.563,197.146 90.563,198.251"/>
    <polygon fill="#48515A" points="164.516 182.239 166.516 182.239 166.516 178.239 164.516 178.239"/>
    <polygon fill="#48515A" points="164.516 192.239 166.516 192.239 166.516 188.239 164.516 188.239"/>
    <polygon fill="#48515A" points="168.516 186.239 172.516 186.239 172.516 184.239 168.516 184.239"/>
    <polygon fill="#48515A" points="158.516 186.239 162.516 186.239 162.516 184.239 158.516 184.239"/>
    <path fill="#48515A" d="M126.493,32.583 L95.811,62.587 C90.832,67.566 88.086,74.196 88.086,81.247 C88.086,88.299 90.832,94.928 95.819,99.915 L126.507,130.527 L156.425,100.531 C161.412,95.544 164.158,88.914 164.159,81.863 C164.159,74.811 161.413,68.181 156.427,63.195 L126.493,32.583 Z M126.511,133.355 L94.406,101.33 C89.04,95.965 86.086,88.833 86.086,81.247 C86.086,73.661 89.04,66.529 94.405,61.165 L126.525,29.755 L157.849,61.788 C163.205,67.145 166.159,74.277 166.159,81.863 C166.158,89.449 163.204,96.58 157.84,101.944 L126.511,133.355 Z"/>
    <path fill="#5FE0ED" d="M102.509 83.864L100.509 83.864 100.509 81.864 102.509 81.864C112.84 81.864 121.704 88.175 125.508 97.134L125.508 80.298C125.502 70.676 117.672 62.849 108.047 62.849L106.509 62.849 106.509 60.849 108.047 60.849C115.718 60.849 122.342 65.322 125.508 71.786L125.508 36.343 97.209 64.016C92.624 68.601 90.086 74.729 90.086 81.247 90.086 87.764 92.624 93.892 97.233 98.501L125.508 126.706 125.508 106.84C125.495 94.168 115.184 83.864 102.509 83.864M155.013 64.608L127.508 36.482 127.508 71.579C130.66 65.073 137.318 60.569 145.019 60.569L145.019 62.569C135.391 62.569 127.558 70.402 127.558 80.03L127.558 81.569 127.508 81.569 127.508 97.136C131.312 88.175 140.177 81.863 150.509 81.863L150.509 83.863C137.826 83.863 127.509 94.18 127.509 106.863L127.509 108.863 127.508 108.863 127.508 126.69 155.01 99.119C164.526 89.602 164.526 74.123 155.013 64.608"/>
    <polygon fill="#48515A" points="125.509 153.251 127.509 153.251 127.509 131.941 125.509 131.941"/>
    <path fill="#48515A" d="M130.353,135.57 L143.689,148.872 C148.186,153.369 155.503,153.37 160,148.873 L173.618,135.557 L160.274,121.91 C155.784,117.42 148.466,117.422 143.971,121.918 L130.353,135.57 Z M151.848,154.245 C148.382,154.245 144.915,152.927 142.276,150.287 L127.525,135.574 L142.556,120.505 C147.833,115.227 156.418,115.227 161.696,120.504 L176.447,135.588 L161.407,150.295 C158.774,152.928 155.311,154.245 151.848,154.245 Z"/>
    <path fill="#5FE0ED" d="M153.532 126.062L155.532 126.045 155.532 126.062C155.532 129.434 153.902 132.426 151.394 134.311L169.603 134.311 158.844 123.309C155.152 119.616 149.103 119.617 145.385 123.331L134.434 134.311 146.324 134.311C150.387 133.758 153.532 130.275 153.532 126.062M151.404 136.477C153.915 138.362 155.546 141.355 155.546 144.729L153.546 144.745 153.546 144.729C153.546 140.509 150.39 137.019 146.315 136.477L134.096 136.477 145.101 147.455C148.824 151.176 154.869 151.175 158.586 147.459L169.816 136.477 151.404 136.477"/>
    <path fill="#48515A" d="M79.322,135.557 L92.933,148.865 C97.437,153.369 104.753,153.37 109.251,148.873 L122.588,135.57 L108.969,121.917 C104.472,117.421 97.157,117.421 92.659,121.918 L79.322,135.557 Z M101.096,154.244 C97.63,154.244 94.165,152.926 91.527,150.287 L76.494,135.588 L91.238,120.512 C96.523,115.227 105.109,115.228 110.384,120.504 L125.416,135.574 L110.664,150.288 C108.027,152.926 104.561,154.244 101.096,154.244 Z"/>
    <path fill="#5FE0ED" d="M99.409 126.062L97.409 126.045 97.409 126.062C97.409 129.434 99.039 132.426 101.547 134.311L83.338 134.311 94.097 123.309C97.789 119.616 103.838 119.617 107.556 123.331L118.507 134.311 106.617 134.311C102.554 133.758 99.409 130.275 99.409 126.062M101.536 136.477C99.026 138.362 97.395 141.355 97.395 144.729L99.395 144.745 99.395 144.729C99.395 140.509 102.551 137.019 106.626 136.477L118.845 136.477 107.84 147.455C104.117 151.176 98.072 151.175 94.355 147.459L83.125 136.477 101.536 136.477M73.161 110.275L69.696 106.818C68.515 105.637 68.515 103.722 69.696 102.541L73.161 99.153 76.541 102.609C77.722 103.79 77.722 105.705 76.541 106.886L73.161 110.275M191.182 140.957L187.717 137.5C186.536 136.319 186.536 134.404 187.717 133.223L191.182 129.834 194.562 133.291C195.743 134.472 195.743 136.387 194.562 137.568L191.182 140.957"/>
    <path fill="#48515A" d="M121.693,170.25 L131.386,170.25 L129.505,157.082 L130.538,155.014 L130.538,154.25 L122.539,154.25 L122.539,155.014 L123.574,157.082 L121.693,170.25 Z M133.693,172.25 L119.386,172.25 L121.505,157.418 L120.539,155.486 L120.539,152.25 L132.538,152.25 L132.538,155.486 L131.574,157.417 L133.693,172.25 Z"/>
    <polyline fill="#FFD15D" points="110.539 188.31 110.539 200.244 141.54 200.243 141.54 188.245 129.677 172.431 127.437 156.747 127.685 156.25 125.393 156.25 125.641 156.746 123.392 172.492 110.539 188.31"/>
    <path fill="#48515A" d="M108.539,202.243 L143.54,202.243 L143.54,187.579 L132.039,172.245 L121.015,172.245 L108.539,187.6 L108.539,202.243 Z M145.54,204.243 L106.539,204.243 L106.539,186.89 L120.064,170.245 L133.039,170.245 L145.54,186.912 L145.54,204.243 Z"/>
    <path fill="#48515A" d="M125.539 202.245L127.539 202.245 127.539 192.245 125.539 192.245 125.539 202.245zM123.539 204.245L129.539 204.245 129.539 190.245 123.539 190.245 123.539 204.245zM135.539 218.245L137.539 218.245 137.539 204.245 135.539 204.245 135.539 218.245zM133.539 220.245L139.539 220.245 139.539 202.245 133.539 202.245 133.539 220.245zM115.539 218.245L117.539 218.245 117.539 204.245 115.539 204.245 115.539 218.245zM113.539 220.245L119.539 220.245 119.539 202.245 113.539 202.245 113.539 220.245z"/>
  </g>
</svg>
