<svg xmlns="http://www.w3.org/2000/svg" width="250" height="250" viewBox="0 0 250 250">
  <g fill="none" fill-rule="evenodd">
    <path fill="#FFD15D" d="M124.944,50.996 C87.573,50.996 55.383,79.313 51.403,117.286 C47.15,157.868 76.706,194.344 117.287,198.597 C157.861,202.848 194.344,173.295 198.597,132.714 C202.85,92.132 173.294,55.656 132.713,51.403 C130.105,51.13 127.511,50.996 124.944,50.996 Z M125.065,211.005 C122.079,211.005 119.07,210.85 116.036,210.532 C68.874,205.589 34.526,163.198 39.468,116.036 C44.411,68.873 86.794,34.535 133.964,39.468 C181.126,44.411 215.474,86.802 210.532,133.964 C205.907,178.093 168.492,211.005 125.065,211.005 Z"/>
    <polygon fill="#48515A" points="213 191 215 191 215 187 213 187"/>
    <polygon fill="#48515A" points="213 201 215 201 215 197 213 197"/>
    <polygon fill="#48515A" points="217 195 221 195 221 193 217 193"/>
    <polygon fill="#48515A" points="207 195 211 195 211 193 207 193"/>
    <polygon fill="#48515A" points="55 41 57 41 57 37 55 37"/>
    <polygon fill="#48515A" points="55 51 57 51 57 47 55 47"/>
    <polygon fill="#48515A" points="59 45 63 45 63 43 59 43"/>
    <polygon fill="#48515A" points="49 45 53 45 53 43 49 43"/>
    <polygon fill="#48515A" points="35 175 37 175 37 171 35 171"/>
    <polygon fill="#48515A" points="35 185 37 185 37 181 35 181"/>
    <polygon fill="#48515A" points="39 179 43 179 43 177 39 177"/>
    <polygon fill="#48515A" points="29 179 33 179 33 177 29 177"/>
    <path fill="#F58E70" d="M209,59 C209,60.105 208.105,61 207,61 C205.895,61 205,60.105 205,59 C205,57.895 205.895,57 207,57 C208.105,57 209,57.895 209,59"/>
    <path fill="#FFD15D" d="M43,67 C43,68.105 42.105,69 41,69 C39.895,69 39,68.105 39,67 C39,65.895 39.895,65 41,65 C42.105,65 43,65.895 43,67"/>
    <path fill="#F58E70" d="M39,155 C39,156.105 38.105,157 37,157 C35.895,157 35,156.105 35,155 C35,153.895 35.895,153 37,153 C38.105,153 39,153.895 39,155"/>
    <path fill="#FFD15D" d="M213,169 C213,170.105 212.105,171 211,171 C209.895,171 209,170.105 209,169 C209,167.895 209.895,167 211,167 C212.105,167 213,167.895 213,169"/>
    <path fill="#F58E70" d="M191,205 C191,206.105 190.105,207 189,207 C187.895,207 187,206.105 187,205 C187,203.895 187.895,203 189,203 C190.105,203 191,203.895 191,205"/>
    <path fill="#FFD15D" d="M107,209 C107,210.105 106.105,211 105,211 C103.895,211 103,210.105 103,209 C103,207.895 103.895,207 105,207 C106.105,207 107,207.895 107,209"/>
    <path fill="#48515A" d="M124.875,58.992 C109.811,58.992 95.317,64.105 83.45,73.721 C69.752,84.819 61.197,100.587 59.359,118.121 C57.522,135.654 62.622,152.854 73.721,166.55 C84.819,180.248 100.587,188.803 118.121,190.641 C135.657,192.477 152.854,187.378 166.55,176.279 C180.248,165.181 188.803,149.413 190.641,131.879 C192.478,114.346 187.378,97.146 176.279,83.45 C165.181,69.752 149.413,61.197 131.879,59.359 C129.537,59.114 127.198,58.992 124.875,58.992 Z M125.128,193.008 C122.734,193.008 120.327,192.883 117.913,192.63 C99.848,190.737 83.602,181.922 72.166,167.81 C60.732,153.697 55.477,135.977 57.37,117.913 C59.263,99.848 68.078,83.602 82.19,72.166 C96.303,60.732 114.026,55.479 132.087,57.37 C150.152,59.263 166.398,68.078 177.833,82.19 C189.268,96.303 194.523,114.023 192.63,132.087 L191.635,131.983 L192.63,132.087 C190.737,150.152 181.922,166.398 167.81,177.833 C155.583,187.74 140.648,193.008 125.128,193.008 Z"/>
    <polygon fill="#48515A" points="124 53 126 53 126 35 124 35"/>
    <polygon fill="#48515A" points="124 215 126 215 126 197 124 197"/>
    <polyline fill="#48515A" points="117.729 53.361 117.031 45.391 119.023 45.217 119.721 53.187 117.729 53.361"/>
    <polyline fill="#48515A" points="130.977 204.783 130.279 196.813 132.271 196.639 132.969 204.609 130.977 204.783"/>
    <polyline fill="#48515A" points="111.513 54.268 110.123 46.389 112.093 46.042 113.482 53.92 111.513 54.268"/>
    <polyline fill="#48515A" points="137.907 203.958 136.518 196.08 138.487 195.732 139.877 203.611 137.907 203.958"/>
    <polyline fill="#48515A" points="105.399 55.712 103.329 47.985 105.26 47.467 107.331 55.194 105.399 55.712"/>
    <polyline fill="#48515A" points="144.74 202.533 142.669 194.806 144.601 194.288 146.671 202.015 144.74 202.533"/>
    <polyline fill="#48515A" points="99.435 57.684 96.699 50.167 98.578 49.483 101.314 57 99.435 57.684"/>
    <polyline fill="#48515A" points="151.422 200.517 148.686 193 150.565 192.316 153.301 199.833 151.422 200.517"/>
    <polyline fill="#48515A" points="93.665 60.169 90.284 52.918 92.097 52.073 95.478 59.323 93.665 60.169"/>
    <polyline fill="#48515A" points="157.903 197.927 154.522 190.677 156.335 189.832 159.716 197.082 157.903 197.927"/>
    <polyline fill="#48515A" points="88.134 63.146 84.134 56.218 85.866 55.218 89.866 62.146 88.134 63.146"/>
    <polyline fill="#48515A" points="164.134 194.782 160.134 187.854 161.866 186.854 165.866 193.782 164.134 194.782"/>
    <polyline fill="#48515A" points="82.883 66.595 78.294 60.042 79.933 58.894 84.522 65.447 82.883 66.595"/>
    <polyline fill="#48515A" points="170.067 191.106 165.478 184.553 167.117 183.405 171.706 189.958 170.067 191.106"/>
    <polyline fill="#48515A" points="77.953 70.487 72.811 64.359 74.343 63.074 79.485 69.202 77.953 70.487"/>
    <polyline fill="#48515A" points="175.657 186.926 170.515 180.798 172.047 179.513 177.189 185.641 175.657 186.926"/>
    <polyline fill="#48515A" points="73.381 74.795 67.725 69.139 69.139 67.725 74.795 73.381 73.381 74.795"/>
    <polyline fill="#48515A" points="180.861 182.275 175.205 176.619 176.619 175.205 182.275 180.861 180.861 182.275"/>
    <polyline fill="#48515A" points="69.202 79.485 63.074 74.343 64.359 72.811 70.487 77.953 69.202 79.485"/>
    <polyline fill="#48515A" points="185.641 177.189 179.513 172.047 180.798 170.515 186.926 175.657 185.641 177.189"/>
    <polyline fill="#48515A" points="65.447 84.522 58.894 79.933 60.041 78.294 66.595 82.883 65.447 84.522"/>
    <polyline fill="#48515A" points="189.958 171.706 183.405 167.117 184.553 165.478 191.106 170.067 189.958 171.706"/>
    <polyline fill="#48515A" points="62.146 89.866 55.218 85.866 56.218 84.134 63.146 88.134 62.146 89.866"/>
    <polyline fill="#48515A" points="193.782 165.866 186.854 161.866 187.854 160.134 194.782 164.134 193.782 165.866"/>
    <polyline fill="#48515A" points="59.323 95.477 52.073 92.097 52.919 90.284 60.169 93.665 59.323 95.477"/>
    <polyline fill="#48515A" points="197.082 159.716 189.832 156.335 190.677 154.522 197.927 157.903 197.082 159.716"/>
    <polyline fill="#48515A" points="57 101.314 49.483 98.578 50.166 96.699 57.684 99.435 57 101.314"/>
    <polyline fill="#48515A" points="199.833 153.301 192.316 150.565 193 148.686 200.517 151.422 199.833 153.301"/>
    <polyline fill="#48515A" points="55.194 107.331 47.467 105.26 47.985 103.329 55.712 105.399 55.194 107.331"/>
    <polyline fill="#48515A" points="202.015 146.671 194.288 144.601 194.806 142.669 202.533 144.74 202.015 146.671"/>
    <polyline fill="#48515A" points="53.92 113.482 46.041 112.093 46.389 110.123 54.268 111.513 53.92 113.482"/>
    <polyline fill="#48515A" points="203.611 139.877 195.732 138.487 196.08 136.518 203.958 137.907 203.611 139.877"/>
    <polyline fill="#48515A" points="53.187 119.721 45.217 119.023 45.391 117.031 53.361 117.729 53.187 119.721"/>
    <polyline fill="#48515A" points="204.609 132.969 196.639 132.271 196.813 130.279 204.783 130.977 204.609 132.969"/>
    <polygon fill="#48515A" points="45 126 53 126 53 124 45 124"/>
    <polygon fill="#48515A" points="197 126 205 126 205 124 197 124"/>
    <polyline fill="#48515A" points="45.391 132.969 45.217 130.977 53.187 130.279 53.361 132.271 45.391 132.969"/>
    <polyline fill="#48515A" points="196.813 119.721 196.639 117.729 204.609 117.031 204.783 119.023 196.813 119.721"/>
    <polyline fill="#48515A" points="46.389 139.877 46.041 137.907 53.92 136.518 54.268 138.487 46.389 139.877"/>
    <polyline fill="#48515A" points="196.08 113.482 195.732 111.513 203.611 110.123 203.958 112.093 196.08 113.482"/>
    <polyline fill="#48515A" points="47.985 146.671 47.467 144.74 55.194 142.669 55.712 144.601 47.985 146.671"/>
    <polyline fill="#48515A" points="194.806 107.331 194.288 105.399 202.015 103.329 202.533 105.26 194.806 107.331"/>
    <polyline fill="#48515A" points="50.166 153.301 49.483 151.422 57 148.686 57.684 150.565 50.166 153.301"/>
    <polyline fill="#48515A" points="193 101.314 192.316 99.435 199.833 96.699 200.517 98.578 193 101.314"/>
    <polyline fill="#48515A" points="52.919 159.716 52.073 157.903 59.323 154.522 60.169 156.335 52.919 159.716"/>
    <polyline fill="#48515A" points="190.677 95.477 189.832 93.665 197.082 90.284 197.927 92.097 190.677 95.477"/>
    <polyline fill="#48515A" points="56.218 165.866 55.218 164.134 62.146 160.134 63.146 161.866 56.218 165.866"/>
    <polyline fill="#48515A" points="187.854 89.866 186.854 88.134 193.782 84.134 194.782 85.866 187.854 89.866"/>
    <polyline fill="#48515A" points="60.041 171.706 58.894 170.067 65.447 165.478 66.595 167.117 60.041 171.706"/>
    <polyline fill="#48515A" points="184.553 84.522 183.405 82.883 189.958 78.294 191.106 79.933 184.553 84.522"/>
    <polyline fill="#48515A" points="64.359 177.189 63.074 175.657 69.202 170.515 70.487 172.047 64.359 177.189"/>
    <polyline fill="#48515A" points="180.798 79.485 179.513 77.953 185.641 72.811 186.926 74.343 180.798 79.485"/>
    <polyline fill="#48515A" points="69.139 182.275 67.725 180.861 73.381 175.205 74.795 176.619 69.139 182.275"/>
    <polyline fill="#48515A" points="176.619 74.795 175.205 73.381 180.861 67.725 182.275 69.139 176.619 74.795"/>
    <polyline fill="#48515A" points="74.343 186.926 72.811 185.641 77.953 179.513 79.485 180.798 74.343 186.926"/>
    <polyline fill="#48515A" points="172.047 70.487 170.515 69.202 175.657 63.074 177.189 64.359 172.047 70.487"/>
    <polyline fill="#48515A" points="79.933 191.106 78.294 189.958 82.883 183.405 84.522 184.553 79.933 191.106"/>
    <polyline fill="#48515A" points="167.117 66.595 165.478 65.447 170.067 58.894 171.706 60.042 167.117 66.595"/>
    <polyline fill="#48515A" points="85.866 194.782 84.134 193.782 88.134 186.854 89.866 187.854 85.866 194.782"/>
    <polyline fill="#48515A" points="161.866 63.146 160.134 62.146 164.134 55.218 165.866 56.218 161.866 63.146"/>
    <polyline fill="#48515A" points="92.097 197.927 90.284 197.082 93.665 189.832 95.478 190.677 92.097 197.927"/>
    <polyline fill="#48515A" points="156.335 60.169 154.522 59.323 157.903 52.073 159.716 52.918 156.335 60.169"/>
    <polyline fill="#48515A" points="98.578 200.517 96.699 199.833 99.435 192.316 101.314 193 98.578 200.517"/>
    <polyline fill="#48515A" points="150.565 57.684 148.686 57 151.422 49.483 153.301 50.167 150.565 57.684"/>
    <polyline fill="#48515A" points="105.26 202.533 103.329 202.015 105.399 194.288 107.331 194.806 105.26 202.533"/>
    <polyline fill="#48515A" points="144.601 55.712 142.669 55.194 144.74 47.467 146.671 47.985 144.601 55.712"/>
    <polyline fill="#48515A" points="112.093 203.958 110.123 203.611 111.513 195.732 113.482 196.08 112.093 203.958"/>
    <polyline fill="#48515A" points="138.487 54.268 136.518 53.92 137.907 46.042 139.877 46.389 138.487 54.268"/>
    <polyline fill="#48515A" points="119.023 204.783 117.031 204.609 117.729 196.639 119.721 196.813 119.023 204.783"/>
    <polyline fill="#48515A" points="132.271 53.361 130.279 53.187 130.977 45.217 132.969 45.391 132.271 53.361"/>
    <polyline fill="#48515A" points="99.435 57.684 93.279 40.77 95.158 40.086 101.314 57 99.435 57.684"/>
    <polyline fill="#48515A" points="154.842 209.914 148.686 193 150.565 192.316 156.721 209.23 154.842 209.914"/>
    <polyline fill="#48515A" points="77.953 70.487 66.383 56.699 67.915 55.414 79.485 69.202 77.953 70.487"/>
    <polyline fill="#48515A" points="182.085 194.586 170.515 180.798 172.047 179.513 183.617 193.301 182.085 194.586"/>
    <polyline fill="#48515A" points="62.146 89.866 46.558 80.866 47.558 79.134 63.146 88.134 62.146 89.866"/>
    <polyline fill="#48515A" points="202.442 170.866 186.854 161.866 187.854 160.134 203.442 169.134 202.442 170.866"/>
    <polyline fill="#48515A" points="53.92 113.482 36.193 110.356 36.541 108.387 54.268 111.513 53.92 113.482"/>
    <polyline fill="#48515A" points="213.459 141.613 195.732 138.487 196.08 136.518 213.807 139.644 213.459 141.613"/>
    <polyline fill="#48515A" points="36.541 141.613 36.193 139.644 53.92 136.518 54.268 138.487 36.541 141.613"/>
    <polyline fill="#48515A" points="196.08 113.482 195.732 111.513 213.459 108.387 213.807 110.356 196.08 113.482"/>
    <polyline fill="#48515A" points="47.558 170.866 46.558 169.134 62.146 160.134 63.146 161.866 47.558 170.866"/>
    <polyline fill="#48515A" points="187.854 89.866 186.854 88.134 202.442 79.134 203.442 80.866 187.854 89.866"/>
    <polyline fill="#48515A" points="67.915 194.586 66.383 193.301 77.953 179.513 79.485 180.798 67.915 194.586"/>
    <polyline fill="#48515A" points="172.047 70.487 170.515 69.202 182.085 55.414 183.617 56.699 172.047 70.487"/>
    <polyline fill="#48515A" points="67.915 194.586 66.383 193.301 77.953 179.513 79.485 180.798 67.915 194.586"/>
    <polyline fill="#48515A" points="172.047 70.487 170.515 69.202 182.085 55.414 183.617 56.699 172.047 70.487"/>
    <path fill="#48515A" d="M127.062,76.042 C126.411,76.014 125.761,75.999 125.113,75.997 L125.121,73.997 C125.794,73.999 126.469,74.015 127.146,74.044 L127.062,76.042 Z M121.222,76.137 L121.07,74.143 C121.741,74.092 122.417,74.054 123.094,74.029 L123.166,76.028 C122.515,76.052 121.867,76.088 121.222,76.137 Z M130.944,76.362 C130.667,76.328 130.388,76.296 130.108,76.267 C129.74,76.229 129.373,76.194 129.006,76.164 L129.17,74.171 C129.552,74.202 129.934,74.238 130.315,74.278 C130.606,74.308 130.897,74.341 131.187,74.376 L130.944,76.362 Z M117.354,76.587 L117.044,74.612 C117.709,74.507 118.378,74.415 119.051,74.336 L119.285,76.323 C118.638,76.399 117.995,76.487 117.354,76.587 Z M134.791,76.984 C134.156,76.856 133.517,76.74 132.873,76.636 L133.193,74.661 C133.863,74.77 134.527,74.891 135.187,75.024 L134.791,76.984 Z M113.536,77.346 L113.067,75.401 C113.723,75.243 114.383,75.098 115.048,74.967 L115.437,76.929 C114.798,77.055 114.165,77.194 113.536,77.346 Z M138.573,77.908 C137.95,77.729 137.323,77.563 136.69,77.408 L137.165,75.466 C137.823,75.626 138.476,75.8 139.124,75.985 L138.573,77.908 Z M109.799,78.404 L109.177,76.503 C109.816,76.294 110.462,76.097 111.111,75.913 L111.656,77.838 C111.032,78.014 110.413,78.203 109.799,78.404 Z M142.27,79.131 C141.663,78.903 141.051,78.687 140.433,78.483 L141.061,76.583 C141.704,76.796 142.341,77.021 142.972,77.258 L142.27,79.131 Z M106.156,79.758 L105.385,77.913 C106.007,77.653 106.634,77.406 107.268,77.17 L107.964,79.045 C107.356,79.271 106.753,79.509 106.156,79.758 Z M145.86,80.647 C145.272,80.371 144.678,80.105 144.078,79.852 L144.855,78.009 C145.481,78.273 146.1,78.549 146.711,78.837 L145.86,80.647 Z M102.629,81.398 L101.715,79.62 C102.314,79.311 102.92,79.015 103.533,78.73 L104.376,80.543 C103.788,80.817 103.205,81.102 102.629,81.398 Z M149.322,82.449 C148.759,82.126 148.188,81.814 147.609,81.513 L148.533,79.74 C149.135,80.053 149.729,80.377 150.315,80.712 L149.322,82.449 Z M99.242,83.313 L98.189,81.613 C98.763,81.258 99.345,80.914 99.933,80.581 L100.917,82.323 C100.352,82.642 99.794,82.973 99.242,83.313 Z M152.628,84.52 C152.092,84.154 151.547,83.797 150.996,83.451 L152.058,81.757 C152.632,82.117 153.198,82.488 153.756,82.869 L152.628,84.52 Z M96.015,85.492 L94.831,83.879 C95.376,83.48 95.928,83.091 96.488,82.713 L97.607,84.371 C97.069,84.734 96.538,85.108 96.015,85.492 Z M155.755,86.847 C155.25,86.438 154.737,86.04 154.215,85.653 L155.409,84.047 C155.952,84.452 156.487,84.866 157.013,85.291 L155.755,86.847 Z M92.969,87.919 L91.662,86.405 C92.173,85.963 92.693,85.532 93.222,85.111 L94.468,86.675 C93.96,87.08 93.46,87.494 92.969,87.919 Z M158.688,89.414 C158.217,88.968 157.737,88.53 157.248,88.102 L158.565,86.597 C159.075,87.043 159.575,87.498 160.064,87.963 L158.688,89.414 Z M90.123,90.579 L88.701,89.174 C89.176,88.692 89.661,88.221 90.154,87.76 L91.52,89.221 C91.045,89.665 90.58,90.117 90.123,90.579 Z M161.407,92.205 C160.973,91.722 160.529,91.248 160.076,90.783 L161.508,89.387 C161.98,89.871 162.442,90.365 162.894,90.867 L161.407,92.205 Z M87.496,93.458 L85.967,92.169 C86.403,91.652 86.849,91.143 87.304,90.645 L88.782,91.992 C88.344,92.472 87.915,92.96 87.496,93.458 Z M163.896,95.2 C163.502,94.685 163.097,94.177 162.682,93.678 L164.22,92.4 C164.652,92.919 165.073,93.447 165.484,93.984 L163.896,95.2 Z M85.104,96.537 L83.478,95.373 C83.872,94.823 84.276,94.28 84.69,93.747 L86.27,94.974 C85.872,95.486 85.483,96.007 85.104,96.537 Z M166.142,98.382 C165.789,97.838 165.425,97.3 165.051,96.77 L166.685,95.616 C167.075,96.168 167.453,96.728 167.82,97.294 L166.142,98.382 Z M82.964,99.797 L81.249,98.767 C81.599,98.186 81.959,97.613 82.33,97.048 L84.002,98.145 C83.646,98.688 83.3,99.239 82.964,99.797 Z M168.126,101.729 C167.817,101.158 167.498,100.593 167.167,100.036 L168.887,99.016 C169.231,99.596 169.564,100.184 169.886,100.778 L168.126,101.729 Z M81.091,103.22 L79.3,102.33 C79.602,101.723 79.915,101.122 80.239,100.529 L81.994,101.489 C81.683,102.059 81.381,102.636 81.091,103.22 Z M169.839,105.22 C169.577,104.626 169.303,104.039 169.018,103.458 L170.813,102.577 C171.11,103.183 171.396,103.794 171.668,104.413 L169.839,105.22 Z M79.498,106.784 L77.641,106.042 C77.894,105.411 78.158,104.786 78.434,104.169 L80.259,104.986 C79.994,105.579 79.74,106.178 79.498,106.784 Z M171.269,108.835 C171.055,108.223 170.828,107.616 170.59,107.014 L172.451,106.279 C172.698,106.905 172.934,107.538 173.157,108.174 L171.269,108.835 Z M78.199,110.454 L76.288,109.863 C76.489,109.215 76.701,108.574 76.926,107.938 L78.811,108.605 C78.596,109.215 78.391,109.832 78.199,110.454 Z M172.406,112.55 C172.24,111.923 172.063,111.3 171.874,110.682 L173.787,110.097 C173.983,110.74 174.168,111.389 174.339,112.041 L172.406,112.55 Z M77.196,114.217 L75.245,113.779 C75.394,113.118 75.554,112.461 75.728,111.811 L77.66,112.325 C77.494,112.951 77.339,113.582 77.196,114.217 Z M173.244,116.353 C173.129,115.712 173.002,115.076 172.863,114.443 L174.816,114.013 C174.961,114.671 175.093,115.334 175.212,116.001 L173.244,116.353 Z M76.496,118.047 L74.516,117.765 C74.611,117.094 74.72,116.427 74.841,115.765 L76.809,116.125 C76.692,116.761 76.588,117.401 76.496,118.047 Z M173.776,120.21 C173.712,119.562 173.637,118.917 173.548,118.276 L175.53,118.002 C175.622,118.67 175.701,119.341 175.766,120.016 L173.776,120.21 Z M76.096,121.923 L74.1,121.796 C74.143,121.125 74.199,120.452 74.269,119.777 L76.258,119.981 C76.191,120.63 76.137,121.277 76.096,121.923 Z M173.997,124.098 C173.985,123.447 173.961,122.798 173.924,122.152 L175.921,122.038 C175.959,122.71 175.984,123.385 175.997,124.063 L173.997,124.098 Z M74.002,125.848 C73.998,125.586 73.996,125.324 73.996,125.061 C73.996,124.649 74.001,124.235 74.011,123.821 L76.01,123.869 C76.001,124.268 75.996,124.665 75.996,125.061 C75.996,125.314 75.998,125.566 76.002,125.818 L74.002,125.848 Z M175.906,128.116 L173.91,127.993 C173.95,127.342 173.977,126.693 173.992,126.046 L175.991,126.09 C175.976,126.763 175.948,127.438 175.906,128.116 Z M74.226,129.893 C74.162,129.222 74.111,128.549 74.073,127.872 L76.07,127.761 C76.106,128.411 76.155,129.059 76.217,129.703 L74.226,129.893 Z M175.472,132.326 L173.493,132.042 C173.584,131.401 173.665,130.757 173.733,130.108 L173.751,129.937 L175.741,130.134 L175.721,130.328 C175.651,130.99 175.568,131.66 175.472,132.326 Z M74.771,133.91 C74.654,133.246 74.549,132.578 74.458,131.907 L76.439,131.637 C76.527,132.282 76.627,132.923 76.741,133.561 L74.771,133.91 Z M174.735,136.312 L172.784,135.871 C172.926,135.24 173.057,134.604 173.176,133.962 L175.143,134.327 C175.019,134.993 174.883,135.655 174.735,136.312 Z M75.637,137.87 C75.466,137.217 75.309,136.559 75.165,135.898 L77.119,135.472 C77.257,136.107 77.409,136.738 77.572,137.365 L75.637,137.87 Z M173.685,140.225 L171.775,139.632 C171.967,139.014 172.148,138.39 172.317,137.761 L174.249,138.279 C174.073,138.934 173.885,139.582 173.685,140.225 Z M76.813,141.739 C76.592,141.103 76.382,140.461 76.186,139.815 L78.1,139.234 C78.289,139.855 78.489,140.471 78.702,141.082 L76.813,141.739 Z M172.325,144.044 L170.469,143.299 C170.71,142.698 170.94,142.091 171.159,141.478 L173.042,142.149 C172.815,142.787 172.576,143.419 172.325,144.044 Z M78.295,145.504 C78.023,144.888 77.764,144.265 77.517,143.637 L79.378,142.904 C79.615,143.508 79.864,144.106 80.125,144.699 L78.295,145.504 Z M170.659,147.752 L168.869,146.86 C169.159,146.279 169.437,145.69 169.705,145.096 L171.529,145.916 C171.25,146.535 170.96,147.147 170.659,147.752 Z M80.07,149.142 C79.751,148.548 79.442,147.948 79.146,147.34 L80.943,146.463 C81.228,147.046 81.524,147.624 81.831,148.194 L80.07,149.142 Z M168.703,151.312 L166.989,150.28 C167.324,149.724 167.649,149.16 167.963,148.589 L169.716,149.553 C169.389,150.146 169.051,150.733 168.703,151.312 Z M82.13,152.629 C81.764,152.062 81.409,151.487 81.066,150.906 L82.789,149.889 C83.118,150.447 83.46,151 83.811,151.545 L82.13,152.629 Z M166.469,154.702 L164.844,153.536 C165.223,153.009 165.591,152.473 165.949,151.93 L167.62,153.029 C167.247,153.595 166.863,154.153 166.469,154.702 Z M84.46,155.944 C84.05,155.407 83.65,154.862 83.263,154.309 L84.899,153.161 C85.272,153.691 85.656,154.215 86.05,154.73 L84.46,155.944 Z M163.975,157.901 L162.447,156.61 C162.867,156.114 163.276,155.61 163.676,155.097 L165.253,156.327 C164.837,156.861 164.411,157.386 163.975,157.901 Z M87.044,159.066 C86.593,158.563 86.152,158.051 85.721,157.53 L87.262,156.255 C87.676,156.755 88.1,157.247 88.534,157.73 L87.044,159.066 Z M161.235,160.892 L159.815,159.484 C160.272,159.023 160.72,158.553 161.159,158.074 L162.634,159.424 C162.177,159.923 161.71,160.413 161.235,160.892 Z M89.87,161.974 C89.379,161.508 88.898,161.032 88.428,160.547 L89.864,159.155 C90.315,159.62 90.777,160.077 91.248,160.525 L89.87,161.974 Z M158.269,163.655 L156.964,162.14 C157.456,161.716 157.94,161.283 158.415,160.84 L159.778,162.304 C159.284,162.764 158.78,163.215 158.269,163.655 Z M92.916,164.652 C92.39,164.226 91.873,163.789 91.366,163.343 L92.686,161.841 C93.174,162.27 93.67,162.688 94.176,163.098 L92.916,164.652 Z M155.094,166.175 L153.914,164.561 C154.438,164.177 154.954,163.784 155.462,163.38 L156.706,164.947 C156.177,165.367 155.64,165.776 155.094,166.175 Z M96.167,167.08 C95.609,166.696 95.06,166.302 94.518,165.898 L95.714,164.296 C96.234,164.684 96.764,165.063 97.3,165.431 L96.167,167.08 Z M151.732,168.436 L150.683,166.733 C151.235,166.393 151.781,166.041 152.32,165.679 L153.435,167.339 C152.875,167.716 152.308,168.081 151.732,168.436 Z M99.605,169.242 C99.017,168.904 98.437,168.555 97.864,168.195 L98.93,166.502 C99.479,166.848 100.037,167.184 100.601,167.508 L99.605,169.242 Z M148.203,170.423 L147.292,168.642 C147.871,168.347 148.441,168.04 149.006,167.722 L149.987,169.464 C149.399,169.795 148.804,170.115 148.203,170.423 Z M103.205,171.124 C102.591,170.833 101.985,170.532 101.386,170.219 L102.312,168.446 C102.887,168.747 103.47,169.037 104.06,169.315 L103.205,171.124 Z M144.531,172.123 L143.764,170.276 C144.362,170.027 144.957,169.766 145.544,169.494 L146.384,171.31 C145.772,171.592 145.154,171.864 144.531,172.123 Z M106.942,172.709 C106.309,172.469 105.682,172.218 105.061,171.955 L105.841,170.113 C106.438,170.366 107.04,170.608 107.649,170.838 L106.942,172.709 Z M140.734,173.525 L140.118,171.623 C140.735,171.423 141.347,171.21 141.953,170.986 L142.646,172.862 C142.015,173.096 141.377,173.317 140.734,173.525 Z M110.788,173.989 C110.137,173.801 109.492,173.6 108.853,173.388 L109.482,171.49 C110.097,171.694 110.718,171.887 111.343,172.068 L110.788,173.989 Z M136.843,174.62 L136.379,172.674 C137.009,172.524 137.636,172.361 138.258,172.187 L138.8,174.111 C138.152,174.294 137.5,174.463 136.843,174.62 Z M114.723,174.957 C114.059,174.821 113.4,174.673 112.747,174.513 L113.223,172.57 C113.852,172.725 114.486,172.867 115.125,172.998 L114.723,174.957 Z M132.866,175.403 L132.558,173.427 C133.201,173.327 133.84,173.214 134.476,173.089 L134.862,175.052 C134.201,175.182 133.536,175.298 132.866,175.403 Z M118.722,175.612 C118.049,175.529 117.38,175.433 116.716,175.324 L117.04,173.351 C117.677,173.455 118.32,173.547 118.967,173.627 L118.722,175.612 Z M128.838,175.865 L128.69,173.871 C129.339,173.822 129.986,173.761 130.629,173.687 L130.856,175.674 C130.187,175.751 129.514,175.814 128.838,175.865 Z M122.761,175.953 C122.088,175.922 121.415,175.879 120.739,175.822 L120.906,173.829 C121.556,173.884 122.205,173.925 122.851,173.955 L122.761,175.953 Z M125.062,176.004 L124.787,176.004 L124.798,174.004 L125.062,174.004 C125.625,174.004 126.186,173.995 126.746,173.976 L126.814,175.975 C126.232,175.995 125.647,176.004 125.062,176.004 Z"/>
    <path fill="#F58E70" d="M125,139.754 C116.852,139.754 110.246,133.148 110.246,125 C110.246,116.852 116.852,110.246 125,110.246 C133.148,110.246 139.754,116.852 139.754,125 C139.754,133.148 133.148,139.754 125,139.754 Z M125,80 C100.147,80 80,100.147 80,125 C80,149.853 100.147,170 125,170 C149.853,170 170,149.853 170,125 C170,100.147 149.853,80 125,80 Z"/>
  </g>
</svg>
