<svg xmlns="http://www.w3.org/2000/svg" width="250" height="250" viewBox="0 0 250 250">
  <g fill="none" fill-rule="evenodd">
    <path fill="#48515A" d="M171.901 215.832L170.991 214.051C190.986 203.837 186.846 155.578 161.762 106.474 149.548 82.562 134.231 62.057 118.634 48.737 103.267 35.613 89.55 31.069 80.01 35.942L79.1 34.161C89.408 28.896 103.909 33.532 119.933 47.216 135.725 60.703 151.213 81.425 163.543 105.563 175.874 129.702 183.585 154.396 185.256 175.097 186.952 196.099 182.209 210.566 171.901 215.832M102.199 168.685C101.939 168.685 101.689 168.576 101.5 168.386 101.399 168.296 101.329 168.185 101.279 168.065 101.229 167.946 101.209 167.815 101.209 167.676 101.209 167.416 101.309 167.156 101.5 166.975 101.779 166.685 102.219 166.596 102.589 166.756 102.709 166.806 102.819 166.876 102.909 166.975 103 167.065 103.079 167.176 103.129 167.296 103.179 167.416 103.209 167.546 103.209 167.676 103.209 167.815 103.179 167.935 103.129 168.065 103.079 168.185 103.009 168.296 102.909 168.386 102.819 168.475 102.709 168.556 102.589 168.605 102.469 168.656 102.339 168.685 102.199 168.685M103.669 171.616C103.359 171.166 103.469 170.536 103.919 170.225 104.379 169.906 105 170.016 105.309 170.475 105.629 170.926 105.52 171.556 105.059 171.866 104.889 171.986 104.689 172.046 104.489 172.046 104.179 172.046 103.869 171.895 103.669 171.616zM106.029 174.946C105.709 174.506 105.809 173.876 106.259 173.556 106.709 173.225 107.329 173.336 107.659 173.776 107.979 174.225 107.879 174.855 107.429 175.176 107.25 175.306 107.049 175.366 106.839 175.366 106.54 175.366 106.229 175.225 106.029 174.946zM108.459 178.236C108.129 177.796 108.219 177.176 108.659 176.836 109.099 176.506 109.729 176.596 110.059 177.036 110.389 177.475 110.299 178.105 109.859 178.435 109.679 178.576 109.469 178.636 109.259 178.636 108.959 178.636 108.659 178.496 108.459 178.236zM110.959 181.475C110.619 181.046 110.689 180.416 111.129 180.076 111.559 179.736 112.189 179.806 112.529 180.246 112.869 180.676 112.799 181.306 112.369 181.645 112.179 181.786 111.959 181.855 111.75 181.855 111.449 181.855 111.159 181.725 110.959 181.475zM113.529 184.666C113.169 184.236 113.239 183.605 113.659 183.256 114.089 182.906 114.719 182.966 115.069 183.395 115.419 183.815 115.359 184.446 114.939 184.796 114.75 184.956 114.52 185.026 114.299 185.026 114.009 185.026 113.719 184.906 113.529 184.666zM116.169 187.796C115.799 187.376 115.849 186.746 116.27 186.386 116.689 186.016 117.319 186.065 117.679 186.486 118.04 186.906 117.989 187.536 117.579 187.895 117.389 188.065 117.149 188.145 116.919 188.145 116.639 188.145 116.359 188.026 116.169 187.796zM118.879 190.855C118.509 190.456 118.54 189.815 118.949 189.446 119.359 189.076 119.989 189.105 120.359 189.516 120.729 189.926 120.699 190.556 120.29 190.926 120.099 191.096 119.859 191.185 119.619 191.185 119.349 191.185 119.079 191.076 118.879 190.855zM121.669 193.855C121.29 193.456 121.299 192.826 121.699 192.446 122.099 192.056 122.729 192.076 123.109 192.475 123.5 192.866 123.479 193.506 123.079 193.886 122.889 194.076 122.639 194.166 122.389 194.166 122.129 194.166 121.869 194.056 121.669 193.855zM124.549 196.776C124.149 196.386 124.149 195.756 124.54 195.355 124.919 194.966 125.559 194.966 125.949 195.346 126.339 195.736 126.349 196.366 125.959 196.766 125.77 196.966 125.509 197.065 125.25 197.065 125 197.065 124.739 196.966 124.549 196.776zM127.509 199.605C127.099 199.236 127.079 198.596 127.459 198.196 127.829 197.786 128.459 197.766 128.869 198.136 128.869 198.136 128.869 198.136 128.869 198.145 129.27 198.516 129.299 199.145 128.929 199.556 128.729 199.766 128.459 199.876 128.189 199.876 127.949 199.876 127.699 199.786 127.509 199.605zM130.569 202.346C130.149 201.986 130.099 201.355 130.459 200.935 130.829 200.516 131.459 200.466 131.879 200.836 132.29 201.196 132.339 201.826 131.979 202.246 131.779 202.475 131.5 202.586 131.219 202.586 130.989 202.586 130.759 202.506 130.569 202.346zM133.729 204.975L133.719 204.975C133.29 204.626 133.219 203.996 133.569 203.565 133.909 203.136 134.54 203.065 134.969 203.406 135.399 203.756 135.469 204.386 135.129 204.815 134.929 205.065 134.639 205.185 134.349 205.185 134.129 205.185 133.909 205.116 133.729 204.975zM136.989 207.466C136.54 207.145 136.449 206.516 136.77 206.076 137.099 205.626 137.729 205.526 138.169 205.855 138.619 206.176 138.709 206.806 138.389 207.256 138.189 207.516 137.889 207.666 137.579 207.666 137.379 207.666 137.169 207.596 136.989 207.466zM140.369 209.815C139.909 209.516 139.79 208.895 140.089 208.435 140.389 207.975 141.009 207.846 141.469 208.145 141.929 208.446 142.059 209.065 141.759 209.526 141.569 209.826 141.25 209.975 140.919 209.975 140.729 209.975 140.54 209.926 140.369 209.815zM143.889 211.986C143.409 211.706 143.239 211.096 143.52 210.616 143.799 210.136 144.409 209.975 144.889 210.246 145.359 210.526 145.529 211.136 145.25 211.616 145.069 211.935 144.729 212.116 144.389 212.116 144.219 212.116 144.049 212.076 143.889 211.986zM147.54 213.926C147.04 213.685 146.839 213.086 147.079 212.586 147.319 212.096 147.919 211.886 148.419 212.126 148.909 212.366 149.119 212.966 148.879 213.466 148.709 213.815 148.349 214.026 147.979 214.026 147.829 214.026 147.679 213.996 147.54 213.926zM151.349 215.586C150.829 215.386 150.569 214.806 150.77 214.296 150.969 213.776 151.549 213.526 152.059 213.725 152.059 213.725 152.059 213.725 152.059 213.716 152.579 213.916 152.839 214.496 152.639 215.016 152.479 215.416 152.099 215.656 151.699 215.656 151.579 215.656 151.459 215.636 151.349 215.586zM155.309 216.886C154.77 216.746 154.459 216.196 154.599 215.666 154.739 215.126 155.29 214.815 155.829 214.956 156.359 215.096 156.679 215.645 156.529 216.185 156.409 216.626 156.009 216.926 155.569 216.926 155.479 216.926 155.389 216.916 155.309 216.886zM166.659 216.605C166.529 216.065 166.849 215.526 167.389 215.395 167.919 215.256 168.469 215.586 168.599 216.126 168.729 216.656 168.409 217.196 167.869 217.336 167.79 217.355 167.709 217.366 167.629 217.366 167.179 217.366 166.77 217.056 166.659 216.605zM159.419 217.716C158.869 217.645 158.489 217.145 158.559 216.596 158.629 216.046 159.129 215.666 159.679 215.736 160.229 215.806 160.609 216.306 160.54 216.855 160.479 217.355 160.049 217.725 159.549 217.725 159.509 217.725 159.459 217.725 159.419 217.716zM162.609 216.966C162.579 216.406 163.02 215.946 163.569 215.926 164.119 215.895 164.579 216.336 164.609 216.886 164.629 217.435 164.199 217.895 163.649 217.916L163.649 217.926C163.629 217.926 163.619 217.926 163.609 217.926 163.069 217.926 162.629 217.496 162.609 216.966z"/>
    <path fill="#48515A" d="M171.449 215.935C171.179 215.935 170.929 215.836 170.739 215.645 170.549 215.466 170.449 215.206 170.449 214.946 170.449 214.806 170.469 214.685 170.52 214.556 170.569 214.435 170.649 214.326 170.739 214.236 170.829 214.145 170.939 214.065 171.059 214.016 171.429 213.866 171.879 213.956 172.149 214.236 172.25 214.326 172.319 214.435 172.369 214.556 172.419 214.685 172.449 214.806 172.449 214.946 172.449 215.076 172.419 215.206 172.369 215.326 172.319 215.446 172.25 215.556 172.149 215.645 172.059 215.746 171.949 215.815 171.829 215.866 171.709 215.916 171.579 215.935 171.449 215.935M79.559 36.046C79.29 36.046 79.04 35.946 78.849 35.756 78.659 35.565 78.559 35.315 78.559 35.046 78.559 34.786 78.659 34.526 78.849 34.346 79.219 33.966 79.889 33.966 80.259 34.346 80.449 34.526 80.549 34.786 80.549 35.046 80.549 35.185 80.529 35.315 80.479 35.435 80.429 35.555 80.359 35.666 80.259 35.756 80.169 35.846 80.059 35.926 79.939 35.975 79.819 36.026 79.689 36.046 79.559 36.046M75.509 37.855C75.149 37.435 75.21 36.806 75.639 36.446 76.059 36.096 76.689 36.156 77.04 36.576 77.399 37.006 77.339 37.636 76.909 37.986 76.729 38.145 76.499 38.216 76.279 38.216 75.989 38.216 75.699 38.096 75.509 37.855zM72.899 40.805C72.469 40.456 72.399 39.826 72.749 39.395 73.089 38.966 73.719 38.895 74.149 39.246 74.579 39.596 74.649 40.225 74.299 40.656 74.099 40.895 73.819 41.026 73.52 41.026 73.299 41.026 73.079 40.956 72.899 40.805zM70.839 44.166C70.359 43.895 70.189 43.286 70.46 42.806 70.729 42.326 71.339 42.145 71.819 42.426 72.299 42.685 72.469 43.305 72.199 43.786 72.02 44.105 71.679 44.296 71.329 44.296 71.159 44.296 70.989 44.256 70.839 44.166zM69.27 47.776C68.759 47.576 68.509 46.996 68.71 46.486 68.919 45.966 69.499 45.716 70.009 45.926 70.52 46.126 70.77 46.706 70.569 47.225 70.409 47.616 70.04 47.846 69.639 47.846 69.52 47.846 69.389 47.826 69.27 47.776zM68.119 51.546C67.579 51.395 67.27 50.846 67.419 50.315 67.569 49.786 68.119 49.475 68.649 49.626 69.189 49.766 69.499 50.326 69.349 50.855 69.219 51.296 68.819 51.586 68.389 51.586 68.299 51.586 68.21 51.576 68.119 51.546zM67.299 55.406C66.759 55.296 66.399 54.776 66.509 54.236 66.609 53.696 67.129 53.336 67.679 53.435 68.219 53.546 68.569 54.065 68.469 54.605 68.379 55.086 67.96 55.426 67.489 55.426 67.429 55.426 67.369 55.416 67.299 55.406zM66.779 59.306C66.229 59.246 65.829 58.746 65.899 58.196 65.96 57.645 66.46 57.256 67.009 57.326 67.559 57.386 67.949 57.886 67.889 58.435 67.819 58.946 67.389 59.315 66.889 59.315 66.849 59.315 66.819 59.315 66.779 59.306zM66.489 63.236C65.939 63.206 65.509 62.736 65.549 62.185 65.579 61.626 66.059 61.216 66.609 61.246 67.159 61.276 67.579 61.746 67.54 62.305 67.509 62.836 67.079 63.246 66.549 63.246 66.529 63.246 66.509 63.236 66.489 63.236zM66.409 67.176C65.849 67.176 65.409 66.725 65.419 66.176 65.419 65.616 65.869 65.176 66.419 65.185 66.979 65.185 67.419 65.636 67.419 66.185 67.419 66.185 67.419 66.185 67.409 66.185 67.409 66.736 66.96 67.176 66.409 67.176zM65.469 70.156C65.449 69.605 65.879 69.136 66.429 69.116 66.979 69.105 67.449 69.536 67.469 70.086 67.489 70.636 67.049 71.096 66.499 71.126 66.489 71.126 66.479 71.126 66.469 71.126 65.929 71.126 65.489 70.696 65.469 70.156zM65.689 74.126C65.649 73.576 66.059 73.096 66.609 73.055 67.159 73.016 67.639 73.435 67.679 73.986 67.719 74.536 67.309 75.016 66.759 75.055 66.729 75.055 66.71 75.055 66.679 75.055 66.159 75.055 65.729 74.656 65.689 74.126zM66.049 78.086C65.989 77.536 66.379 77.046 66.929 76.986 67.479 76.926 67.979 77.326 68.04 77.876 68.099 78.426 67.699 78.916 67.149 78.975 67.109 78.975 67.079 78.975 67.04 78.975 66.54 78.975 66.099 78.605 66.049 78.086zM66.54 82.036C66.46 81.486 66.839 80.975 67.389 80.906 67.939 80.826 68.439 81.206 68.52 81.756 68.599 82.296 68.219 82.805 67.669 82.886 67.619 82.886 67.569 82.895 67.529 82.895 67.04 82.895 66.609 82.536 66.54 82.036zM67.149 85.956C67.059 85.406 67.419 84.895 67.969 84.796 68.509 84.706 69.029 85.076 69.119 85.616 69.21 86.166 68.849 86.685 68.299 86.776 68.249 86.786 68.189 86.786 68.129 86.786 67.649 86.786 67.229 86.435 67.149 85.956zM67.869 89.855C67.759 89.315 68.109 88.786 68.659 88.685 69.199 88.576 69.719 88.926 69.829 89.466 69.939 90.006 69.579 90.536 69.04 90.645 68.979 90.656 68.909 90.666 68.849 90.666 68.379 90.666 67.96 90.336 67.869 89.855zM68.679 93.736C68.559 93.196 68.899 92.666 69.439 92.546 69.979 92.426 70.52 92.766 70.639 93.305 70.759 93.846 70.419 94.376 69.879 94.496 69.799 94.516 69.729 94.516 69.659 94.516 69.199 94.516 68.79 94.206 68.679 93.736zM69.599 97.596C69.46 97.065 69.79 96.516 70.319 96.386 70.859 96.256 71.399 96.576 71.54 97.116 71.54 97.116 71.54 97.116 71.529 97.116 71.669 97.656 71.339 98.196 70.809 98.326 70.729 98.346 70.649 98.355 70.569 98.355 70.119 98.355 69.71 98.055 69.599 97.596zM70.589 101.435C70.449 100.895 70.759 100.346 71.29 100.206 71.829 100.056 72.379 100.376 72.52 100.906 72.669 101.435 72.349 101.996 71.819 102.136 71.729 102.156 71.639 102.166 71.559 102.166 71.119 102.166 70.71 101.876 70.589 101.435zM71.669 105.246C71.509 104.716 71.819 104.156 72.349 104.006 72.879 103.846 73.429 104.156 73.589 104.685 73.739 105.216 73.439 105.766 72.909 105.926 72.819 105.946 72.719 105.966 72.629 105.966 72.189 105.966 71.799 105.685 71.669 105.246zM72.829 109.036C72.659 108.506 72.949 107.946 73.479 107.776 73.999 107.616 74.569 107.906 74.729 108.435 74.899 108.956 74.609 109.516 74.079 109.685 73.979 109.716 73.879 109.736 73.779 109.736 73.349 109.736 72.96 109.466 72.829 109.036zM74.049 112.796C73.879 112.276 74.159 111.706 74.679 111.536 75.21 111.355 75.77 111.636 75.949 112.166 76.129 112.685 75.839 113.256 75.319 113.426 75.219 113.466 75.109 113.475 74.999 113.475 74.579 113.475 74.199 113.216 74.049 112.796zM75.349 116.536C75.169 116.016 75.439 115.446 75.96 115.266 76.479 115.076 77.049 115.346 77.239 115.866 77.419 116.386 77.149 116.956 76.629 117.145 76.52 117.185 76.409 117.206 76.299 117.206 75.889 117.206 75.499 116.946 75.349 116.536zM77.659 120.926C77.399 120.926 77.139 120.815 76.96 120.626 76.77 120.435 76.659 120.185 76.659 119.926 76.659 119.656 76.77 119.395 76.96 119.216 77.239 118.935 77.679 118.846 78.049 118.996 78.169 119.046 78.279 119.126 78.369 119.216 78.559 119.406 78.659 119.656 78.659 119.926 78.659 120.185 78.559 120.435 78.369 120.626 78.179 120.815 77.929 120.926 77.659 120.926M125 167.715C99.49 167.715 75.49 163.346 57.423 155.412 39.095 147.362 29.001 136.56 29.001 124.996L31.001 124.996C31.001 135.719 40.67 145.87 58.227 153.581 76.046 161.406 99.76 165.715 125 165.715 176.832 165.715 219 147.448 219 124.996L221 124.996C221 136.56 210.906 147.362 192.578 155.411 174.51 163.346 150.511 167.715 125 167.715M65.879 93.336C65.739 93.336 65.609 93.315 65.489 93.266 65.369 93.216 65.259 93.145 65.169 93.046 64.979 92.855 64.869 92.605 64.869 92.336 64.869 92.076 64.979 91.815 65.169 91.636 65.21 91.586 65.259 91.546 65.319 91.506 65.369 91.475 65.429 91.435 65.489 91.416 65.549 91.395 65.619 91.376 65.679 91.355 65.879 91.315 66.069 91.336 66.259 91.416 66.379 91.466 66.489 91.536 66.579 91.636 66.679 91.725 66.749 91.836 66.799 91.956 66.849 92.076 66.869 92.206 66.869 92.336 66.869 92.475 66.849 92.596 66.799 92.725 66.749 92.846 66.679 92.956 66.579 93.046 66.489 93.145 66.379 93.216 66.259 93.266 66.139 93.315 66.009 93.336 65.879 93.336M61.23 94.065C61.029 93.555 61.29 92.975 61.799 92.776 62.319 92.576 62.899 92.836 63.099 93.346 63.299 93.855 63.04 94.435 62.529 94.636 62.409 94.685 62.29 94.706 62.169 94.706 61.759 94.706 61.379 94.466 61.23 94.065zM57.579 95.596C57.369 95.086 57.599 94.506 58.109 94.286 58.609 94.065 59.199 94.296 59.419 94.805 59.639 95.315 59.409 95.906 58.899 96.116 58.77 96.176 58.629 96.206 58.5 96.206 58.119 96.206 57.75 95.975 57.579 95.596zM54 97.266C53.759 96.766 53.969 96.176 54.469 95.935 54.969 95.696 55.569 95.906 55.799 96.406 56.04 96.906 55.829 97.496 55.339 97.736 55.199 97.805 55.049 97.836 54.899 97.836 54.529 97.836 54.169 97.626 54 97.266zM50.499 99.096C50.229 98.616 50.419 98.006 50.899 97.746 51.389 97.486 51.999 97.666 52.259 98.156 52.52 98.645 52.339 99.246 51.849 99.506 51.699 99.586 51.54 99.626 51.379 99.626 51.02 99.626 50.679 99.435 50.499 99.096zM47.089 101.105C46.799 100.636 46.949 100.016 47.419 99.736 47.899 99.446 48.509 99.596 48.799 100.065 49.089 100.546 48.929 101.156 48.459 101.446 48.299 101.546 48.119 101.586 47.939 101.586 47.609 101.586 47.279 101.416 47.089 101.105zM43.809 103.315C43.489 102.855 43.599 102.236 44.059 101.926 44.509 101.605 45.129 101.716 45.449 102.176 45.759 102.626 45.649 103.246 45.199 103.565 45.02 103.685 44.829 103.746 44.629 103.746 44.309 103.746 43.999 103.596 43.809 103.315zM40.689 105.746C40.339 105.306 40.399 104.685 40.829 104.336 41.259 103.986 41.889 104.056 42.239 104.486 42.589 104.916 42.52 105.546 42.089 105.886 41.909 106.036 41.689 106.116 41.46 106.116 41.169 106.116 40.879 105.986 40.689 105.746zM37.779 108.416C37.389 108.026 37.399 107.386 37.799 107.006 38.199 106.626 38.829 106.636 39.219 107.026 39.599 107.426 39.589 108.056 39.189 108.446 39 108.636 38.749 108.725 38.499 108.725 38.229 108.725 37.969 108.626 37.779 108.416zM35.159 111.376C34.729 111.026 34.679 110.395 35.029 109.975 35.379 109.546 36.019 109.486 36.439 109.846 36.859 110.196 36.919 110.826 36.569 111.256 36.369 111.486 36.079 111.616 35.799 111.616 35.569 111.616 35.339 111.536 35.159 111.376zM32.929 114.645C32.46 114.346 32.319 113.725 32.619 113.266 32.909 112.796 33.529 112.656 33.999 112.956 34.459 113.246 34.599 113.866 34.309 114.336 34.119 114.636 33.79 114.796 33.459 114.796 33.279 114.796 33.089 114.746 32.929 114.645zM31.229 118.206C30.719 117.996 30.479 117.406 30.699 116.895 30.909 116.386 31.5 116.156 32.009 116.366 32.52 116.586 32.759 117.176 32.54 117.676 32.379 118.056 32.009 118.286 31.619 118.286 31.489 118.286 31.359 118.266 31.229 118.206zM30.21 122.026C29.669 121.906 29.329 121.376 29.439 120.836 29.559 120.296 30.089 119.956 30.629 120.065 31.169 120.185 31.509 120.716 31.399 121.256 31.299 121.725 30.889 122.046 30.419 122.046 30.349 122.046 30.279 122.036 30.21 122.026z"/>
    <path fill="#48515A" d="M30 125.996C29.729 125.996 29.479 125.895 29.29 125.706 29.099 125.516 28.999 125.266 28.999 124.996 28.999 124.736 29.109 124.475 29.29 124.286 29.659 123.916 30.329 123.916 30.709 124.286 30.889 124.475 30.999 124.736 30.999 124.996 30.999 125.126 30.979 125.256 30.929 125.376 30.879 125.496 30.799 125.605 30.709 125.706 30.52 125.895 30.27 125.996 30 125.996M97.139 86.096C96.999 86.096 96.879 86.076 96.749 86.026 96.629 85.975 96.52 85.895 96.429 85.805 96.339 85.716 96.259 85.605 96.21 85.486 96.159 85.355 96.139 85.236 96.139 85.096 96.139 85.036 96.139 84.966 96.159 84.906 96.169 84.836 96.189 84.776 96.21 84.716 96.239 84.656 96.27 84.596 96.309 84.546 96.339 84.486 96.379 84.435 96.429 84.395 96.799 84.016 97.479 84.016 97.849 84.395 97.889 84.435 97.929 84.486 97.969 84.546 97.999 84.596 98.04 84.656 98.059 84.716 98.089 84.776 98.109 84.836 98.119 84.906 98.129 84.966 98.139 85.036 98.139 85.096 98.139 85.366 98.029 85.616 97.849 85.805 97.749 85.895 97.639 85.975 97.52 86.026 97.399 86.076 97.27 86.096 97.139 86.096M91.949 85.866C91.859 85.326 92.239 84.805 92.779 84.725 93.329 84.636 93.839 85.016 93.929 85.555 94.009 86.105 93.639 86.616 93.099 86.696 93.04 86.706 92.989 86.716 92.939 86.716 92.449 86.716 92.029 86.355 91.949 85.866zM87.77 86.596C87.669 86.055 88.04 85.536 88.579 85.435 89.119 85.336 89.639 85.696 89.739 86.236 89.839 86.786 89.479 87.305 88.939 87.406 88.879 87.416 88.819 87.426 88.759 87.426 88.279 87.426 87.859 87.086 87.77 86.596zM83.619 87.426C83.499 86.886 83.849 86.355 84.389 86.246 84.929 86.136 85.46 86.486 85.569 87.026 85.679 87.565 85.339 88.096 84.799 88.206 84.729 88.225 84.659 88.225 84.589 88.225 84.129 88.225 83.71 87.906 83.619 87.426zM79.479 88.366C79.349 87.826 79.689 87.286 80.219 87.166 80.759 87.036 81.299 87.376 81.429 87.916 81.549 88.446 81.219 88.986 80.679 89.116 80.599 89.126 80.529 89.136 80.449 89.136 79.999 89.136 79.589 88.826 79.479 88.366zM75.369 89.416C75.229 88.876 75.549 88.336 76.079 88.196L76.079 88.185C76.619 88.046 77.159 88.366 77.299 88.906 77.439 89.435 77.119 89.986 76.589 90.126 76.499 90.145 76.419 90.156 76.329 90.156 75.889 90.156 75.489 89.855 75.369 89.416zM72.249 91.296C72.119 91.296 71.989 91.266 71.869 91.216 71.749 91.166 71.639 91.096 71.549 90.996 71.449 90.906 71.379 90.796 71.329 90.676 71.279 90.555 71.249 90.426 71.249 90.296 71.249 90.026 71.359 89.776 71.549 89.586 71.589 89.536 71.639 89.496 71.699 89.466 71.749 89.426 71.809 89.395 71.869 89.366 71.929 89.346 71.999 89.326 72.059 89.315 72.249 89.266 72.449 89.296 72.639 89.366 72.759 89.416 72.869 89.496 72.96 89.586 73.149 89.776 73.259 90.036 73.259 90.296 73.259 90.555 73.149 90.805 72.96 90.996 72.869 91.096 72.759 91.166 72.639 91.216 72.52 91.266 72.389 91.296 72.249 91.296M220 125.996C219.729 125.996 219.479 125.895 219.29 125.706 219.109 125.516 219 125.266 219 124.996 219 124.736 219.109 124.475 219.29 124.286 219.389 124.196 219.5 124.126 219.619 124.076 219.859 123.975 220.139 123.975 220.379 124.076 220.509 124.126 220.619 124.196 220.709 124.286 220.889 124.475 221 124.736 221 124.996 221 125.266 220.899 125.516 220.709 125.706 220.52 125.895 220.27 125.996 220 125.996M158.849 87.016C158.309 86.926 157.939 86.406 158.029 85.866 158.119 85.315 158.639 84.956 159.179 85.046 159.729 85.136 160.099 85.656 160 86.196 159.919 86.685 159.5 87.036 159.02 87.036 158.959 87.036 158.909 87.026 158.849 87.016zM162.839 87.736C162.29 87.626 161.939 87.105 162.04 86.565 162.149 86.016 162.669 85.666 163.209 85.766 163.759 85.876 164.109 86.395 164.009 86.935 163.919 87.416 163.5 87.756 163.029 87.756 162.959 87.756 162.899 87.746 162.839 87.736zM166.799 88.546C166.259 88.426 165.919 87.895 166.04 87.355 166.149 86.815 166.689 86.475 167.229 86.586 167.77 86.706 168.109 87.236 167.989 87.776 167.889 88.246 167.479 88.565 167.009 88.565 166.939 88.565 166.869 88.555 166.799 88.546zM170.75 89.456C170.209 89.315 169.879 88.776 170.009 88.246 170.139 87.706 170.679 87.376 171.219 87.506 171.759 87.636 172.079 88.176 171.959 88.716 171.839 89.176 171.429 89.475 170.979 89.475 170.899 89.475 170.819 89.466 170.75 89.456zM174.659 90.456C174.659 90.456 174.659 90.456 174.659 90.466 174.129 90.315 173.819 89.766 173.959 89.236 174.109 88.696 174.659 88.386 175.189 88.526 175.719 88.676 176.04 89.225 175.889 89.756 175.77 90.206 175.369 90.496 174.929 90.496 174.839 90.496 174.75 90.486 174.659 90.456zM178.549 91.576C178.02 91.416 177.719 90.855 177.879 90.326 178.04 89.796 178.599 89.506 179.129 89.666 179.659 89.826 179.959 90.376 179.799 90.906 179.659 91.336 179.27 91.616 178.839 91.616 178.739 91.616 178.649 91.605 178.549 91.576zM182.399 92.805C181.869 92.626 181.589 92.055 181.77 91.536 181.949 91.016 182.509 90.736 183.04 90.906 183.559 91.086 183.839 91.656 183.669 92.176 183.52 92.596 183.139 92.855 182.719 92.855 182.609 92.855 182.509 92.836 182.399 92.805zM186.209 94.156C185.689 93.956 185.419 93.386 185.619 92.866 185.809 92.346 186.389 92.086 186.909 92.276 187.419 92.475 187.689 93.046 187.489 93.565 187.339 93.966 186.959 94.216 186.559 94.216 186.439 94.216 186.319 94.196 186.209 94.156zM189.959 95.636C189.449 95.426 189.209 94.836 189.419 94.326 189.629 93.815 190.219 93.576 190.729 93.786 191.239 94.006 191.479 94.586 191.27 95.096 191.109 95.475 190.729 95.716 190.339 95.716 190.219 95.716 190.079 95.685 189.959 95.636zM193.649 97.256C193.149 97.026 192.929 96.435 193.159 95.926 193.399 95.426 193.989 95.206 194.489 95.446 194.989 95.676 195.209 96.276 194.979 96.776 194.809 97.136 194.449 97.346 194.069 97.346 193.929 97.346 193.779 97.315 193.649 97.256zM197.259 99.036C196.77 98.776 196.579 98.176 196.829 97.685 197.089 97.196 197.699 97.006 198.189 97.266 198.669 97.516 198.859 98.126 198.609 98.616 198.429 98.956 198.079 99.145 197.719 99.145 197.559 99.145 197.409 99.116 197.259 99.036zM200.77 100.986C200.299 100.706 200.139 100.096 200.419 99.616 200.699 99.136 201.319 98.986 201.79 99.266 202.27 99.546 202.419 100.156 202.139 100.636 201.959 100.946 201.619 101.126 201.279 101.126 201.109 101.126 200.929 101.076 200.77 100.986zM204.169 103.126C203.709 102.815 203.589 102.196 203.899 101.736 204.209 101.286 204.829 101.156 205.279 101.466 205.739 101.776 205.859 102.395 205.549 102.855 205.359 103.145 205.04 103.296 204.719 103.296 204.529 103.296 204.339 103.246 204.169 103.126zM207.399 105.475C206.959 105.136 206.889 104.506 207.229 104.076 207.569 103.645 208.199 103.565 208.629 103.906 209.069 104.246 209.139 104.876 208.799 105.315 208.599 105.565 208.309 105.696 208.009 105.696 207.799 105.696 207.579 105.626 207.399 105.475zM210.419 108.076C210.02 107.696 210 107.065 210.369 106.656 210.75 106.256 211.379 106.236 211.79 106.616 212.189 106.996 212.209 107.626 211.829 108.026 211.639 108.236 211.369 108.346 211.099 108.346 210.859 108.346 210.609 108.256 210.419 108.076zM213.159 110.926C212.799 110.506 212.849 109.876 213.27 109.516 213.689 109.156 214.319 109.206 214.679 109.626 215.04 110.046 214.989 110.676 214.569 111.036 214.379 111.196 214.149 111.276 213.919 111.276 213.639 111.276 213.359 111.156 213.159 110.926zM215.529 114.065C215.219 113.605 215.359 112.986 215.819 112.685 216.279 112.386 216.899 112.516 217.199 112.975 217.5 113.446 217.369 114.065 216.909 114.366 216.739 114.475 216.549 114.526 216.369 114.526 216.04 114.526 215.719 114.366 215.529 114.065zM217.379 117.496C217.159 116.986 217.389 116.406 217.899 116.185 218.409 115.956 219 116.185 219.219 116.696 219.439 117.206 219.209 117.796 218.699 118.016 218.569 118.065 218.439 118.096 218.299 118.096 217.919 118.096 217.549 117.876 217.379 117.496zM218.579 121.166C218.469 120.626 218.809 120.096 219.349 119.975 219.889 119.855 220.419 120.206 220.54 120.746 220.649 121.286 220.309 121.815 219.77 121.935 219.699 121.946 219.629 121.956 219.559 121.956 219.099 121.956 218.689 121.636 218.579 121.166zM154.969 86.395C154.839 86.395 154.709 86.366 154.589 86.315 154.469 86.266 154.359 86.196 154.259 86.096 154.079 85.916 153.969 85.656 153.969 85.395 153.969 85.136 154.079 84.876 154.259 84.685 154.359 84.596 154.469 84.516 154.589 84.475 154.829 84.366 155.109 84.366 155.349 84.475 155.479 84.516 155.579 84.596 155.679 84.685 155.859 84.876 155.969 85.126 155.969 85.395 155.969 85.526 155.939 85.656 155.889 85.776 155.839 85.895 155.77 86.006 155.679 86.096 155.489 86.286 155.239 86.395 154.969 86.395M87.313 217.955C83.991 217.955 80.901 217.263 78.1 215.832L79.01 214.051C95.881 222.67 125.79 200.885 150.122 162.252L151.814 163.318C130.431 197.269 105.46 217.955 87.313 217.955"/>
    <path fill="#48515A" d="M169.137 130.461L167.302 129.666C186.552 85.285 187.708 44.992 169.99 35.942L170.9 34.161C189.877 43.854 189.135 84.354 169.137 130.461M78.559 215.935C78.29 215.935 78.04 215.836 77.849 215.645 77.749 215.556 77.679 215.446 77.629 215.326 77.579 215.206 77.559 215.076 77.559 214.946 77.559 214.806 77.579 214.685 77.629 214.556 77.679 214.435 77.759 214.326 77.849 214.236 78.219 213.866 78.889 213.866 79.259 214.236 79.349 214.326 79.429 214.435 79.479 214.556 79.529 214.685 79.559 214.806 79.559 214.946 79.559 215.076 79.529 215.206 79.479 215.326 79.429 215.446 79.359 215.556 79.259 215.645 79.069 215.836 78.819 215.935 78.559 215.935M162.609 34.065C162.059 34.046 161.629 33.576 161.649 33.026 161.679 32.475 162.139 32.046 162.689 32.065 163.25 32.096 163.669 32.555 163.649 33.105 163.629 33.645 163.189 34.065 162.649 34.065 162.639 34.065 162.629 34.065 162.609 34.065zM157.639 33.376C157.569 32.826 157.959 32.326 158.509 32.256 159.049 32.185 159.559 32.576 159.629 33.126 159.689 33.676 159.309 34.176 158.759 34.246 158.719 34.246 158.669 34.256 158.629 34.256 158.129 34.256 157.699 33.886 157.639 33.376zM166.399 34.596C165.859 34.466 165.54 33.926 165.669 33.386 165.799 32.855 166.349 32.526 166.879 32.656 167.419 32.796 167.75 33.336 167.609 33.876 167.5 34.326 167.089 34.626 166.639 34.626 166.559 34.626 166.479 34.616 166.399 34.596zM153.719 34.286C153.579 33.756 153.889 33.206 154.429 33.065 154.959 32.926 155.509 33.246 155.649 33.776 155.79 34.305 155.469 34.855 154.939 35.006 154.849 35.026 154.77 35.036 154.679 35.036 154.239 35.036 153.829 34.736 153.719 34.286zM149.919 35.636C149.719 35.116 149.979 34.536 150.489 34.346 151.009 34.145 151.589 34.406 151.79 34.916 151.979 35.435 151.719 36.016 151.209 36.216L151.209 36.206C151.089 36.256 150.969 36.276 150.849 36.276 150.449 36.276 150.069 36.036 149.919 35.636zM146.25 37.305C146.009 36.815 146.219 36.216 146.719 35.975 147.209 35.736 147.809 35.946 148.049 36.446 148.29 36.935 148.079 37.536 147.589 37.776 147.449 37.846 147.299 37.876 147.149 37.876 146.779 37.876 146.419 37.666 146.25 37.305zM142.719 39.256C142.439 38.776 142.609 38.166 143.089 37.886 143.569 37.616 144.179 37.786 144.449 38.266 144.729 38.736 144.559 39.355 144.079 39.626 143.919 39.716 143.75 39.756 143.589 39.756 143.239 39.756 142.899 39.576 142.719 39.256zM139.309 41.406C139 40.946 139.139 40.326 139.599 40.026 140.059 39.725 140.679 39.855 140.979 40.315 141.279 40.776 141.149 41.395 140.689 41.696 140.52 41.805 140.329 41.866 140.139 41.866 139.819 41.866 139.5 41.706 139.309 41.406zM136.009 43.736C135.689 43.286 135.79 42.666 136.229 42.346 136.229 42.346 136.229 42.346 136.239 42.346 136.679 42.016 137.309 42.116 137.629 42.565 137.949 43.016 137.859 43.636 137.409 43.966 137.229 44.086 137.029 44.156 136.819 44.156 136.509 44.156 136.209 44.006 136.009 43.736zM132.829 46.216C132.479 45.776 132.559 45.145 132.989 44.805 133.419 44.466 134.049 44.536 134.389 44.966 134.739 45.406 134.659 46.026 134.229 46.376 134.049 46.516 133.829 46.586 133.609 46.586 133.319 46.586 133.02 46.466 132.829 46.216zM129.739 48.815C129.379 48.395 129.429 47.765 129.849 47.395 130.27 47.046 130.899 47.086 131.259 47.506 131.619 47.926 131.569 48.555 131.149 48.916 130.959 49.086 130.729 49.156 130.5 49.156 130.219 49.156 129.939 49.046 129.739 48.815zM126.75 51.515C126.379 51.116 126.399 50.475 126.809 50.105 127.209 49.736 127.849 49.756 128.219 50.166 128.589 50.576 128.569 51.206 128.159 51.576 127.969 51.756 127.729 51.846 127.489 51.846 127.219 51.846 126.949 51.736 126.75 51.515zM123.849 54.315C123.459 53.926 123.469 53.296 123.859 52.906 124.25 52.516 124.889 52.526 125.27 52.916 125.659 53.315 125.659 53.946 125.259 54.336 125.069 54.526 124.809 54.616 124.559 54.616 124.299 54.616 124.04 54.516 123.849 54.315zM121.029 57.206C120.629 56.826 120.619 56.185 121 55.786 121.379 55.395 122.02 55.386 122.419 55.766 122.809 56.145 122.819 56.786 122.439 57.185 122.239 57.386 121.979 57.486 121.719 57.486 121.469 57.486 121.219 57.395 121.029 57.206zM118.279 60.166C117.879 59.796 117.849 59.156 118.219 58.756 118.589 58.346 119.229 58.315 119.629 58.685 120.04 59.065 120.069 59.696 119.699 60.105 119.5 60.315 119.229 60.426 118.959 60.426 118.719 60.426 118.479 60.346 118.279 60.166zM115.619 63.196C115.199 62.836 115.159 62.206 115.52 61.786 115.879 61.366 116.52 61.326 116.929 61.685 117.349 62.046 117.389 62.676 117.029 63.096 116.829 63.326 116.549 63.435 116.27 63.435 116.04 63.435 115.809 63.355 115.619 63.196zM113.029 66.286C112.599 65.935 112.54 65.305 112.899 64.876 113.25 64.456 113.879 64.395 114.299 64.746 114.729 65.096 114.79 65.725 114.429 66.156 114.239 66.395 113.949 66.516 113.659 66.516 113.439 66.516 113.209 66.435 113.029 66.286zM110.5 69.435C110.069 69.096 110 68.466 110.339 68.026 110.679 67.596 111.309 67.526 111.739 67.866 112.179 68.206 112.25 68.836 111.909 69.266 111.709 69.516 111.419 69.645 111.119 69.645 110.909 69.645 110.689 69.576 110.5 69.435zM108.049 72.636C107.609 72.296 107.52 71.676 107.849 71.236 108.189 70.796 108.809 70.706 109.259 71.046 109.699 71.376 109.779 72.006 109.449 72.446 109.25 72.706 108.949 72.836 108.649 72.836 108.439 72.836 108.229 72.766 108.049 72.636zM105.659 75.886C105.209 75.555 105.109 74.935 105.429 74.486 105.759 74.036 106.389 73.946 106.829 74.266 107.279 74.596 107.379 75.216 107.049 75.666 106.859 75.935 106.549 76.076 106.239 76.076 106.04 76.076 105.829 76.016 105.659 75.886zM103.329 79.176C102.869 78.866 102.759 78.236 103.079 77.786 103.399 77.336 104.02 77.225 104.469 77.536 104.929 77.855 105.04 78.475 104.719 78.935 104.52 79.216 104.209 79.355 103.899 79.355 103.699 79.355 103.5 79.305 103.329 79.176zM101.059 82.516C100.599 82.206 100.479 81.586 100.79 81.136 101.099 80.676 101.719 80.555 102.179 80.855 102.639 81.166 102.759 81.786 102.449 82.246 102.259 82.536 101.939 82.685 101.619 82.685 101.429 82.685 101.229 82.636 101.059 82.516zM98.859 85.895C98.399 85.596 98.259 84.975 98.559 84.516 98.859 84.055 99.479 83.916 99.939 84.216 100.409 84.516 100.54 85.136 100.239 85.605L100.239 85.596C100.049 85.895 99.729 86.055 99.399 86.055 99.21 86.055 99.029 86.006 98.859 85.895zM96.719 89.315C96.249 89.026 96.099 88.406 96.389 87.935 96.679 87.475 97.299 87.326 97.77 87.616 98.239 87.906 98.379 88.526 98.089 88.996 97.899 89.296 97.579 89.466 97.239 89.466 97.059 89.466 96.879 89.416 96.719 89.315zM94.629 92.776C94.159 92.486 93.999 91.876 94.29 91.395 94.569 90.926 95.179 90.776 95.659 91.055 96.129 91.336 96.29 91.956 95.999 92.426 95.819 92.736 95.479 92.916 95.139 92.916 94.969 92.916 94.79 92.866 94.629 92.776zM92.609 96.266C92.129 95.986 91.96 95.376 92.239 94.895 92.509 94.416 93.119 94.256 93.599 94.526 94.079 94.805 94.249 95.416 93.969 95.895 93.79 96.216 93.449 96.395 93.099 96.395 92.939 96.395 92.77 96.346 92.609 96.266zM90.639 99.786C90.159 99.516 89.979 98.906 90.249 98.426 90.52 97.946 91.129 97.766 91.609 98.036 92.089 98.305 92.27 98.906 91.999 99.395 91.819 99.725 91.479 99.906 91.119 99.906 90.96 99.906 90.79 99.866 90.639 99.786zM88.729 103.346C88.249 103.076 88.059 102.475 88.319 101.986 88.579 101.496 89.179 101.315 89.669 101.576 90.159 101.836 90.349 102.435 90.089 102.926 89.909 103.266 89.559 103.456 89.199 103.456 89.04 103.456 88.879 103.416 88.729 103.346zM86.879 106.926C86.389 106.676 86.199 106.076 86.449 105.576 86.699 105.086 87.299 104.895 87.79 105.145 88.29 105.395 88.479 105.996 88.229 106.486 88.049 106.836 87.699 107.036 87.339 107.036 87.179 107.036 87.029 106.996 86.879 106.926zM85.089 110.536C84.599 110.296 84.389 109.696 84.639 109.196 84.879 108.706 85.479 108.506 85.969 108.746 86.469 108.986 86.669 109.586 86.429 110.086 86.259 110.435 85.899 110.645 85.529 110.645 85.379 110.645 85.229 110.605 85.089 110.536zM83.359 114.185C82.859 113.946 82.649 113.346 82.879 112.855 83.119 112.346 83.71 112.136 84.21 112.376 84.71 112.605 84.929 113.206 84.689 113.706 84.52 114.065 84.159 114.276 83.79 114.276 83.639 114.276 83.499 114.246 83.359 114.185zM81.689 117.855C81.189 117.626 80.96 117.036 81.189 116.536 81.419 116.026 82.009 115.806 82.509 116.026 83.02 116.256 83.239 116.846 83.009 117.355 82.849 117.725 82.479 117.946 82.099 117.946 81.96 117.946 81.819 117.916 81.689 117.855zM80.079 121.556C79.569 121.336 79.339 120.746 79.559 120.236 79.779 119.725 80.359 119.496 80.869 119.716 81.379 119.935 81.609 120.526 81.389 121.026 81.229 121.406 80.859 121.636 80.479 121.636 80.339 121.636 80.21 121.605 80.079 121.556zM78.54 125.276C78.02 125.065 77.779 124.486 77.989 123.975 78.199 123.466 78.779 123.216 79.29 123.426 79.799 123.636 80.049 124.225 79.839 124.736 79.679 125.116 79.309 125.355 78.909 125.355 78.79 125.355 78.659 125.326 78.54 125.276zM77.059 129.036C76.54 128.836 76.29 128.256 76.489 127.736 76.689 127.225 77.27 126.966 77.779 127.166 78.299 127.366 78.549 127.946 78.349 128.466 78.199 128.855 77.819 129.096 77.419 129.096 77.299 129.096 77.169 129.076 77.059 129.036zM75.639 132.806C75.129 132.616 74.859 132.046 75.049 131.526 75.239 131.006 75.819 130.746 76.329 130.935 76.849 131.126 77.119 131.696 76.929 132.216 76.779 132.626 76.399 132.876 75.989 132.876 75.869 132.876 75.759 132.855 75.639 132.806zM74.299 136.616C73.779 136.435 73.499 135.866 73.679 135.346 73.869 134.826 74.439 134.546 74.96 134.725 75.479 134.906 75.749 135.475 75.569 135.996 75.429 136.416 75.04 136.676 74.629 136.676 74.52 136.676 74.409 136.656 74.299 136.616zM73.029 140.446C72.509 140.276 72.219 139.706 72.389 139.185 72.559 138.656 73.129 138.376 73.649 138.546 74.179 138.716 74.46 139.276 74.29 139.806 74.159 140.225 73.759 140.496 73.339 140.496 73.239 140.496 73.139 140.475 73.029 140.446zM71.839 144.296C71.309 144.136 71.009 143.576 71.169 143.056 71.329 142.526 71.889 142.225 72.419 142.386 72.949 142.546 73.249 143.105 73.089 143.636 72.96 144.065 72.559 144.346 72.129 144.346 72.029 144.346 71.939 144.326 71.839 144.296zM70.729 148.176C70.189 148.026 69.879 147.475 70.04 146.946 70.179 146.416 70.739 146.105 71.27 146.256 71.799 146.395 72.109 146.956 71.96 147.486 71.839 147.926 71.439 148.216 70.999 148.216 70.909 148.216 70.819 148.206 70.729 148.176zM69.699 152.076C69.159 151.935 68.839 151.395 68.979 150.855 69.119 150.326 69.659 150.006 70.199 150.145 70.729 150.276 71.059 150.826 70.919 151.355 70.799 151.806 70.399 152.105 69.949 152.105 69.869 152.105 69.779 152.096 69.699 152.076zM68.759 155.996C68.219 155.876 67.889 155.336 68.009 154.796 68.139 154.266 68.679 153.926 69.21 154.056 69.749 154.176 70.089 154.716 69.96 155.256 69.849 155.716 69.439 156.026 68.989 156.026 68.909 156.026 68.839 156.016 68.759 155.996zM67.919 159.946C67.379 159.836 67.029 159.306 67.139 158.766 67.249 158.225 67.779 157.876 68.329 157.986 68.869 158.096 69.21 158.626 69.099 159.166L69.099 159.176C68.999 159.645 68.589 159.966 68.129 159.966 68.059 159.966 67.989 159.956 67.919 159.946zM67.179 163.916C66.639 163.815 66.279 163.296 66.369 162.756 66.369 162.756 66.369 162.756 66.379 162.756 66.469 162.206 66.989 161.846 67.529 161.946 68.079 162.036 68.439 162.556 68.339 163.105 68.249 163.586 67.829 163.926 67.359 163.926 67.299 163.926 67.239 163.926 67.179 163.916zM66.549 167.895C66.009 167.815 65.629 167.306 65.71 166.756 65.79 166.216 66.299 165.836 66.849 165.916 67.399 166.006 67.77 166.506 67.689 167.056 67.619 167.556 67.189 167.906 66.699 167.906 66.649 167.906 66.599 167.906 66.549 167.895zM66.049 171.895C65.499 171.836 65.109 171.336 65.169 170.786 65.239 170.246 65.729 169.846 66.279 169.916 66.829 169.975 67.219 170.475 67.159 171.026 67.099 171.536 66.669 171.906 66.169 171.906 66.129 171.906 66.089 171.906 66.049 171.895zM65.679 175.916C65.129 175.876 64.719 175.386 64.77 174.836 64.809 174.286 65.29 173.876 65.839 173.926 66.389 173.966 66.799 174.456 66.759 175.006 66.71 175.526 66.279 175.926 65.759 175.926 65.739 175.926 65.71 175.916 65.679 175.916zM65.46 179.946C64.909 179.916 64.479 179.446 64.509 178.906 64.529 178.346 64.999 177.926 65.549 177.946 66.099 177.975 66.529 178.435 66.499 178.986L66.499 178.996C66.479 179.526 66.029 179.946 65.499 179.946 65.489 179.946 65.469 179.946 65.46 179.946zM64.409 182.975C64.409 182.426 64.859 181.975 65.409 181.975 65.96 181.975 66.409 182.426 66.409 182.975 66.409 183.526 65.96 183.975 65.409 183.975 64.859 183.975 64.409 183.526 64.409 182.975zM64.509 187.056C64.479 186.506 64.909 186.036 65.46 186.006 66.009 185.986 66.479 186.406 66.499 186.966L66.509 186.966C66.529 187.516 66.109 187.986 65.549 188.006 65.54 188.006 65.52 188.006 65.509 188.006 64.979 188.006 64.529 187.596 64.509 187.056zM64.819 191.136C64.77 190.586 65.159 190.096 65.71 190.036 66.259 189.975 66.749 190.376 66.809 190.926 66.869 191.475 66.479 191.966 65.929 192.026 65.889 192.026 65.849 192.036 65.819 192.036 65.309 192.036 64.879 191.645 64.819 191.136zM65.399 195.196C65.309 194.656 65.669 194.136 66.21 194.036 66.759 193.946 67.279 194.306 67.369 194.846 67.469 195.395 67.109 195.916 66.559 196.006 66.509 196.016 66.449 196.026 66.389 196.026 65.909 196.026 65.489 195.685 65.399 195.196zM66.299 199.216C66.149 198.685 66.469 198.136 66.999 197.996 67.54 197.846 68.079 198.166 68.229 198.706 68.369 199.236 68.059 199.786 67.52 199.926 67.439 199.946 67.349 199.956 67.259 199.956 66.819 199.956 66.419 199.666 66.299 199.216zM67.569 203.156C67.369 202.636 67.629 202.056 68.149 201.855 68.659 201.666 69.239 201.916 69.439 202.435 69.639 202.946 69.379 203.526 68.869 203.725 68.749 203.776 68.629 203.796 68.509 203.796 68.109 203.796 67.729 203.556 67.569 203.156zM69.319 206.935C69.049 206.456 69.229 205.846 69.71 205.576 70.199 205.306 70.799 205.486 71.069 205.975 71.339 206.456 71.159 207.065 70.669 207.336 70.52 207.416 70.359 207.456 70.189 207.456 69.839 207.456 69.499 207.266 69.319 206.935zM71.619 210.435C71.279 210.006 71.359 209.376 71.79 209.036 72.219 208.685 72.849 208.766 73.189 209.196 73.54 209.636 73.46 210.266 73.029 210.605 72.849 210.746 72.629 210.815 72.409 210.815 72.109 210.815 71.819 210.685 71.619 210.435zM74.559 213.475C74.559 213.475 74.559 213.475 74.559 213.486 74.139 213.126 74.079 212.496 74.439 212.076 74.79 211.645 75.419 211.596 75.849 211.946 76.27 212.306 76.319 212.935 75.969 213.355 75.77 213.596 75.489 213.716 75.199 213.716 74.979 213.716 74.749 213.636 74.559 213.475z"/>
    <path fill="#48515A" d="M170.449,36.046 C170.309,36.046 170.179,36.026 170.059,35.975 C169.939,35.926 169.829,35.846 169.739,35.756 C169.639,35.666 169.569,35.555 169.52,35.435 C169.469,35.315 169.449,35.185 169.449,35.046 C169.449,34.786 169.549,34.526 169.739,34.346 C170.109,33.966 170.779,33.966 171.149,34.346 C171.339,34.526 171.449,34.786 171.449,35.046 C171.449,35.315 171.339,35.565 171.149,35.756 C170.959,35.946 170.709,36.046 170.449,36.046"/>
    <path fill="#FFF" d="M190.833,60.829 C190.833,64.695 187.699,67.829 183.833,67.829 C179.967,67.829 176.833,64.695 176.833,60.829 C176.833,56.963 179.967,53.829 183.833,53.829 C187.699,53.829 190.833,56.963 190.833,60.829"/>
    <path fill="#48515A" d="M183.833,54.829 C180.524,54.829 177.833,57.52 177.833,60.829 C177.833,64.138 180.524,66.829 183.833,66.829 C187.142,66.829 189.833,64.138 189.833,60.829 C189.833,57.52 187.142,54.829 183.833,54.829 Z M183.833,68.829 C179.422,68.829 175.833,65.24 175.833,60.829 C175.833,56.418 179.422,52.829 183.833,52.829 C188.244,52.829 191.833,56.418 191.833,60.829 C191.833,65.24 188.244,68.829 183.833,68.829 Z"/>
    <path fill="#F58E70" d="M183.833,56.829 C181.628,56.829 179.833,58.624 179.833,60.829 C179.833,63.035 181.628,64.829 183.833,64.829 C186.039,64.829 187.833,63.035 187.833,60.829 C187.833,58.624 186.039,56.829 183.833,56.829"/>
    <path fill="#FFF" d="M191.333,192.829 C191.333,196.695 188.199,199.829 184.333,199.829 C180.467,199.829 177.333,196.695 177.333,192.829 C177.333,188.963 180.467,185.829 184.333,185.829 C188.199,185.829 191.333,188.963 191.333,192.829"/>
    <path fill="#48515A" d="M184.333,186.829 C181.024,186.829 178.333,189.52 178.333,192.829 C178.333,196.138 181.024,198.829 184.333,198.829 C187.642,198.829 190.333,196.138 190.333,192.829 C190.333,189.52 187.642,186.829 184.333,186.829 Z M184.333,200.829 C179.922,200.829 176.333,197.24 176.333,192.829 C176.333,188.418 179.922,184.829 184.333,184.829 C188.744,184.829 192.333,188.418 192.333,192.829 C192.333,197.24 188.744,200.829 184.333,200.829 Z"/>
    <path fill="#F58E70" d="M184.333,188.829 C182.128,188.829 180.333,190.624 180.333,192.829 C180.333,195.035 182.128,196.829 184.333,196.829 C186.539,196.829 188.333,195.035 188.333,192.829 C188.333,190.624 186.539,188.829 184.333,188.829"/>
    <path fill="#FFF" d="M54.333,149.163 C54.333,153.029 51.199,156.163 47.333,156.163 C43.467,156.163 40.333,153.029 40.333,149.163 C40.333,145.297 43.467,142.163 47.333,142.163 C51.199,142.163 54.333,145.297 54.333,149.163"/>
    <path fill="#48515A" d="M47.333,143.163 C44.024,143.163 41.333,145.854 41.333,149.163 C41.333,152.472 44.024,155.163 47.333,155.163 C50.642,155.163 53.333,152.472 53.333,149.163 C53.333,145.854 50.642,143.163 47.333,143.163 Z M47.333,157.163 C42.922,157.163 39.333,153.574 39.333,149.163 C39.333,144.752 42.922,141.163 47.333,141.163 C51.744,141.163 55.333,144.752 55.333,149.163 C55.333,153.574 51.744,157.163 47.333,157.163 Z"/>
    <path fill="#F58E70" d="M47.333,145.163 C45.128,145.163 43.333,146.957 43.333,149.163 C43.333,151.368 45.128,153.163 47.333,153.163 C49.539,153.163 51.333,151.368 51.333,149.163 C51.333,146.957 49.539,145.163 47.333,145.163"/>
    <path fill="#475059" d="M45.999,71.496 C44.896,71.496 43.999,72.393 43.999,73.496 C43.999,74.598 44.896,75.496 45.999,75.496 C47.103,75.496 48,74.598 48,73.496 C48,72.393 47.103,71.496 45.999,71.496 Z M45.999,77.496 C43.794,77.496 42,75.702 42,73.496 C42,71.29 43.794,69.496 45.999,69.496 C48.205,69.496 49.999,71.29 49.999,73.496 C49.999,75.702 48.205,77.496 45.999,77.496 Z"/>
    <path fill="#F58E70" d="M201 178.496C201 177.391 201.895 176.496 203 176.496 204.104 176.496 205 177.391 205 178.496 205 179.601 204.104 180.496 203 180.496 201.895 180.496 201 179.601 201 178.496M55 184.496C55 183.391 55.895 182.496 57 182.496 58.104 182.496 59 183.391 59 184.496 59 185.601 58.104 186.496 57 186.496 55.895 186.496 55 185.601 55 184.496M95 56.496C95 57.6 94.104 58.496 93 58.496 91.895 58.496 91 57.6 91 56.496 91 55.391 91.895 54.496 93 54.496 94.104 54.496 95 55.391 95 56.496"/>
    <polygon fill="#48515A" points="213 182.496 215 182.496 215 178.496 213 178.496"/>
    <polygon fill="#48515A" points="213 192.496 215 192.496 215 188.496 213 188.496"/>
    <polygon fill="#48515A" points="207 186.496 211 186.496 211 184.496 207 184.496"/>
    <polygon fill="#48515A" points="217 186.496 221 186.496 221 184.496 217 184.496"/>
    <polygon fill="#48515A" points="45 50.496 47 50.496 47 46.496 45 46.496"/>
    <polygon fill="#48515A" points="45 60.496 47 60.496 47 56.496 45 56.496"/>
    <polygon fill="#48515A" points="39 54.496 43 54.496 43 52.496 39 52.496"/>
    <polygon fill="#48515A" points="48.999 54.496 52.999 54.496 52.999 52.496 48.999 52.496"/>
    <polygon fill="#48515A" points="88.999 186.496 90.999 186.496 90.999 182.496 88.999 182.496"/>
    <polygon fill="#48515A" points="88.999 196.496 90.999 196.496 90.999 192.496 88.999 192.496"/>
    <polygon fill="#48515A" points="82.999 190.496 86.999 190.496 86.999 188.496 82.999 188.496"/>
    <polygon fill="#48515A" points="92.999 190.496 96.999 190.496 96.999 188.496 92.999 188.496"/>
    <polygon fill="#48515A" points="124.084 163.996 126.084 163.996 126.084 137.107 124.084 137.107"/>
    <path fill="#48515A" d="M128.928,140.736 L142.264,154.039 C146.762,158.537 154.079,158.535 158.575,154.04 L172.193,140.724 L158.849,127.077 C154.36,122.588 147.043,122.589 142.546,127.084 L128.928,140.736 Z M150.423,159.412 C146.957,159.412 143.49,158.094 140.851,155.454 L126.1,140.74 L141.131,125.671 C146.41,120.391 154.995,120.395 160.271,125.671 L175.021,140.755 L159.981,155.462 C157.349,158.095 153.886,159.412 150.423,159.412 Z"/>
    <path fill="#5FE0ED" d="M152.107 131.228L154.107 131.212 154.107 131.228C154.107 134.601 152.477 137.592 149.969 139.477L168.178 139.477 157.419 128.476C153.727 124.782 147.678 124.783 143.96 128.498L133.009 139.477 144.899 139.477C148.962 138.925 152.107 135.441 152.107 131.228M149.979 141.644C152.49 143.528 154.121 146.521 154.121 149.895L152.121 149.912 152.121 149.895C152.121 145.675 148.965 142.186 144.89 141.644L132.671 141.644 143.676 152.622C147.398 156.343 153.444 156.342 157.161 152.626L168.391 141.644 149.979 141.644"/>
    <path fill="#48515A" d="M77.897,140.724 L91.508,154.032 C96.012,158.536 103.328,158.535 107.826,154.04 L121.163,140.736 L107.543,127.083 C103.047,122.587 95.73,122.588 91.234,127.085 L77.897,140.724 Z M99.671,159.411 C96.205,159.411 92.74,158.093 90.102,155.454 L75.069,140.755 L89.812,125.679 C95.096,120.393 103.682,120.394 108.958,125.67 L123.991,140.74 L109.239,155.455 C106.602,158.093 103.136,159.411 99.671,159.411 Z"/>
    <path fill="#5FE0ED" d="M97.984 131.228L95.984 131.212 95.984 131.228C95.984 134.601 97.614 137.592 100.122 139.477L81.913 139.477 92.672 128.476C96.364 124.782 102.413 124.783 106.131 128.498L117.082 139.477 105.191 139.477C101.129 138.925 97.984 135.441 97.984 131.228M100.111 141.644C97.601 143.528 95.97 146.521 95.97 149.895L97.97 149.912 97.97 149.895C97.97 145.675 101.126 142.186 105.201 141.644L117.42 141.644 106.415 152.622C102.692 156.343 96.646 156.342 92.93 152.626L81.7 141.644 100.111 141.644"/>
    <path fill="#48515A" d="M124.966,71.904 L105.278,92.039 C98.548,98.769 98.548,109.707 105.271,116.43 L124.953,136.163 L145.147,116.019 C148.402,112.764 150.196,108.433 150.196,103.829 C150.195,99.223 148.402,94.893 145.146,91.638 L124.966,71.904 Z M124.949,138.991 L103.855,117.843 C96.354,110.342 96.354,98.135 103.856,90.633 L124.935,69.076 L146.552,90.216 C150.194,93.857 152.195,98.689 152.196,103.829 C152.196,108.968 150.194,113.8 146.56,117.434 L124.949,138.991 Z"/>
    <path fill="#5FE0ED" d="M138.951 99.135L139.18 99.135 139.18 101.135 138.951 101.135C135.519 101.135 132.293 102.47 129.866 104.897 127.439 107.324 126.104 110.55 126.104 113.982L126.033 113.982 126.033 132.262 143.456 114.881C149.396 108.941 149.396 99.272 143.453 93.329L126.033 76.294 126.033 106.676C126.687 105.523 127.489 104.445 128.452 103.482 131.256 100.678 134.985 99.134 138.951 99.135M111.207 101.101L110.978 101.101 110.978 99.101 111.207 99.101C116.679 99.101 121.458 102.085 124.033 106.503L124.033 75.712 106.43 93.716C100.464 99.681 100.464 109.35 106.407 115.293L124.033 132.964 124.033 113.505C123.796 106.627 118.142 101.101 111.207 101.101"/>
  </g>
</svg>
