<svg xmlns="http://www.w3.org/2000/svg" width="250" height="250" viewBox="0 0 250 250">
  <g fill="none" fill-rule="evenodd">
    <path fill="#DEDEDD" d="M216.172,183.959 L33.828,183.959"/>
    <polyline fill="#5FE0ED" points="76.913 109.391 74.488 111.17 73.532 121.911 75.742 123.822 93.835 123.822 96.256 121.956 96.804 111.213 94.576 109.391 76.913 109.391"/>
    <polyline fill="#5FE0ED" points="75.46 126.341 72.97 128.22 71.957 139.597 74.217 141.608 92.868 141.608 95.352 139.643 95.934 128.263 93.655 126.341 75.46 126.341"/>
    <polyline fill="#5FE0ED" points="73.916 144.35 71.357 146.336 70.283 158.404 72.595 160.531 91.838 160.531 94.391 158.449 95.008 146.38 92.676 144.35 73.916 144.35"/>
    <polyline fill="#5FE0ED" points="102.424 126.341 100.004 128.234 99.523 139.613 101.858 141.608 120.5 141.608 122.918 139.628 122.968 128.248 120.611 126.341 102.424 126.341"/>
    <polyline fill="#5FE0ED" points="100.974 163.517 98.422 165.636 97.879 178.466 100.333 180.703 120.2 180.703 122.749 178.483 122.805 165.651 120.326 163.517 100.974 163.517"/>
    <polyline fill="#5FE0ED" points="103.085 109.391 100.726 111.184 100.271 121.927 102.552 123.822 120.637 123.822 122.996 121.943 123.043 111.198 120.741 109.391 103.085 109.391"/>
    <polyline fill="#5FE0ED" points="101.722 144.35 99.238 146.351 98.727 158.419 101.12 160.531 120.354 160.531 122.836 158.436 122.889 146.365 120.473 144.35 101.722 144.35"/>
    <polyline fill="#5FE0ED" points="67.025 123.822 69.522 121.97 70.572 111.228 68.404 109.391 50.747 109.391 48.257 111.158 46.8 121.895 48.939 123.822 67.025 123.822"/>
    <polyline fill="#5FE0ED" points="43.581 163.517 40.867 165.609 39.127 178.433 41.405 180.703 61.274 180.703 63.994 178.512 65.248 165.683 62.935 163.517 43.581 163.517"/>
    <polyline fill="#5FE0ED" points="182.975 123.822 201.062 123.822 203.2 121.895 201.744 111.158 199.253 109.391 181.597 109.391 179.428 111.228 180.478 121.97 182.975 123.822"/>
    <polyline fill="#5FE0ED" points="72.273 163.517 69.641 165.622 68.498 178.449 70.864 180.703 90.741 180.703 93.368 178.497 94.023 165.667 91.635 163.517 72.273 163.517"/>
    <polyline fill="#5FE0ED" points="66.691 126.341 48.502 126.341 45.943 128.207 44.399 139.581 46.583 141.608 65.227 141.608 67.793 139.657 68.905 128.279 66.691 126.341"/>
    <polyline fill="#5FE0ED" points="46.118 144.35 43.484 146.324 41.847 158.387 44.077 160.531 63.313 160.531 65.954 158.464 67.134 146.396 64.872 144.35 46.118 144.35"/>
    <polyline fill="#5FE0ED" points="177.405 160.531 179.717 158.404 178.643 146.336 176.084 144.35 157.324 144.35 154.992 146.38 155.609 158.449 158.162 160.531 177.405 160.531"/>
    <polyline fill="#5FE0ED" points="177.727 163.517 158.365 163.517 155.977 165.667 156.633 178.497 159.259 180.703 179.136 180.703 181.502 178.45 180.36 165.622 177.727 163.517"/>
    <polyline fill="#5FE0ED" points="185.128 144.35 182.866 146.396 184.046 158.464 186.687 160.531 205.923 160.531 208.153 158.387 206.516 146.324 203.882 144.35 185.128 144.35"/>
    <polyline fill="#5FE0ED" points="187.065 163.517 184.752 165.683 186.006 178.512 188.726 180.703 208.595 180.703 210.874 178.433 209.133 165.609 206.419 163.517 187.065 163.517"/>
    <polyline fill="#5FE0ED" points="201.498 126.341 183.309 126.341 181.095 128.279 182.207 139.657 184.773 141.608 203.417 141.608 205.601 139.58 204.057 128.207 201.498 126.341"/>
    <polyline fill="#5FE0ED" points="174.258 123.822 176.468 121.911 175.513 111.17 173.087 109.391 155.424 109.391 153.196 111.213 153.745 121.956 156.165 123.822 174.258 123.822"/>
    <polyline fill="#5FE0ED" points="148.88 160.531 151.273 158.419 150.763 146.351 148.279 144.35 129.527 144.35 127.111 146.365 127.164 158.436 129.646 160.531 148.88 160.531"/>
    <polyline fill="#5FE0ED" points="148.142 141.608 150.477 139.613 149.996 128.234 147.576 126.341 129.389 126.341 127.032 128.247 127.082 139.628 129.5 141.608 148.142 141.608"/>
    <polyline fill="#5FE0ED" points="149.027 163.517 129.674 163.517 127.195 165.651 127.251 178.483 129.8 180.703 149.668 180.703 152.121 178.466 151.579 165.636 149.027 163.517"/>
    <polyline fill="#5FE0ED" points="147.448 123.822 149.729 121.927 149.274 111.184 146.915 109.391 129.259 109.391 126.957 111.198 127.004 121.943 129.363 123.822 147.448 123.822"/>
    <polyline fill="#5FE0ED" points="175.783 141.608 178.043 139.597 177.03 128.22 174.541 126.341 156.345 126.341 154.067 128.264 154.648 139.643 157.132 141.608 175.783 141.608"/>
    <path fill="#48515A" d="M35.686,186 L214.314,186 L215.146,183.843 L204.198,108.068 L45.802,108.068 L34.854,183.843 L35.686,186 Z M215.686,188 L34.314,188 L32.8,184.075 L32.838,183.816 L44.07,106.068 L205.93,106.068 L217.2,184.075 L215.686,188 Z"/>
    <polyline fill="#5FE0ED" points="76.913 109.391 74.488 111.17 73.532 121.911 75.742 123.822 93.835 123.822 96.256 121.956 96.804 111.213 94.576 109.391 76.913 109.391"/>
    <polyline fill="#5FE0ED" points="75.46 126.341 72.97 128.22 71.957 139.597 74.217 141.608 92.868 141.608 95.352 139.643 95.934 128.263 93.655 126.341 75.46 126.341"/>
    <polyline fill="#5FE0ED" points="73.916 144.35 71.357 146.336 70.283 158.404 72.595 160.531 91.838 160.531 94.391 158.449 95.008 146.38 92.676 144.35 73.916 144.35"/>
    <polyline fill="#5FE0ED" points="102.424 126.341 100.004 128.234 99.523 139.613 101.858 141.608 120.5 141.608 122.918 139.628 122.968 128.248 120.611 126.341 102.424 126.341"/>
    <polyline fill="#5FE0ED" points="100.974 163.517 98.422 165.636 97.879 178.466 100.333 180.703 120.2 180.703 122.749 178.483 122.805 165.651 120.326 163.517 100.974 163.517"/>
    <polyline fill="#5FE0ED" points="103.085 109.391 100.726 111.184 100.271 121.927 102.552 123.822 120.637 123.822 122.996 121.943 123.043 111.198 120.741 109.391 103.085 109.391"/>
    <polyline fill="#5FE0ED" points="101.722 144.35 99.238 146.351 98.727 158.419 101.12 160.531 120.354 160.531 122.836 158.436 122.889 146.365 120.473 144.35 101.722 144.35"/>
    <polyline fill="#5FE0ED" points="67.025 123.822 69.522 121.97 70.572 111.228 68.404 109.391 50.747 109.391 48.257 111.158 46.8 121.895 48.939 123.822 67.025 123.822"/>
    <polyline fill="#5FE0ED" points="43.581 163.517 40.867 165.609 39.127 178.433 41.405 180.703 61.274 180.703 63.994 178.512 65.248 165.683 62.935 163.517 43.581 163.517"/>
    <polyline fill="#5FE0ED" points="182.975 123.822 201.062 123.822 203.2 121.895 201.744 111.158 199.253 109.391 181.597 109.391 179.428 111.228 180.478 121.97 182.975 123.822"/>
    <polyline fill="#5FE0ED" points="72.273 163.517 69.641 165.622 68.498 178.449 70.864 180.703 90.741 180.703 93.368 178.497 94.023 165.667 91.635 163.517 72.273 163.517"/>
    <polyline fill="#5FE0ED" points="66.691 126.341 48.502 126.341 45.943 128.207 44.399 139.581 46.583 141.608 65.227 141.608 67.793 139.657 68.905 128.279 66.691 126.341"/>
    <polyline fill="#5FE0ED" points="46.118 144.35 43.484 146.324 41.847 158.387 44.077 160.531 63.313 160.531 65.954 158.464 67.134 146.396 64.872 144.35 46.118 144.35"/>
    <polyline fill="#5FE0ED" points="177.405 160.531 179.717 158.404 178.643 146.336 176.084 144.35 157.324 144.35 154.992 146.38 155.609 158.449 158.162 160.531 177.405 160.531"/>
    <polyline fill="#5FE0ED" points="177.727 163.517 158.365 163.517 155.977 165.667 156.633 178.497 159.259 180.703 179.136 180.703 181.502 178.45 180.36 165.622 177.727 163.517"/>
    <polyline fill="#5FE0ED" points="185.128 144.35 182.866 146.396 184.046 158.464 186.687 160.531 205.923 160.531 208.153 158.387 206.516 146.324 203.882 144.35 185.128 144.35"/>
    <polyline fill="#5FE0ED" points="187.065 163.517 184.752 165.683 186.006 178.512 188.726 180.703 208.595 180.703 210.874 178.433 209.133 165.609 206.419 163.517 187.065 163.517"/>
    <polyline fill="#5FE0ED" points="201.498 126.341 183.309 126.341 181.095 128.279 182.207 139.657 184.773 141.608 203.417 141.608 205.601 139.58 204.057 128.207 201.498 126.341"/>
    <polyline fill="#5FE0ED" points="174.258 123.822 176.468 121.911 175.513 111.17 173.087 109.391 155.424 109.391 153.196 111.213 153.745 121.956 156.165 123.822 174.258 123.822"/>
    <polyline fill="#5FE0ED" points="148.88 160.531 151.273 158.419 150.763 146.351 148.279 144.35 129.527 144.35 127.111 146.365 127.164 158.436 129.646 160.531 148.88 160.531"/>
    <polyline fill="#5FE0ED" points="148.142 141.608 150.477 139.613 149.996 128.234 147.576 126.341 129.389 126.341 127.032 128.247 127.082 139.628 129.5 141.608 148.142 141.608"/>
    <polyline fill="#5FE0ED" points="149.027 163.517 129.674 163.517 127.195 165.651 127.251 178.483 129.8 180.703 149.668 180.703 152.121 178.466 151.579 165.636 149.027 163.517"/>
    <polyline fill="#5FE0ED" points="147.448 123.822 149.729 121.927 149.274 111.184 146.915 109.391 129.259 109.391 126.957 111.198 127.004 121.943 129.363 123.822 147.448 123.822"/>
    <polyline fill="#5FE0ED" points="175.783 141.608 178.043 139.597 177.03 128.22 174.541 126.341 156.345 126.341 154.067 128.264 154.648 139.643 157.132 141.608 175.783 141.608"/>
    <path fill="#FFD15D" d="M112.965,104.414 C111.91,102.487 111.309,100.277 111.309,97.926 C111.309,90.448 117.371,84.387 124.848,84.387 C132.326,84.387 138.387,90.448 138.387,97.926 C138.387,100.277 137.786,102.487 136.732,104.414 L165.631,104.414 C165.964,102.3 166.142,100.134 166.142,97.926 C166.142,75.119 147.654,56.632 124.848,56.632 C102.042,56.632 83.554,75.119 83.554,97.926 C83.554,100.134 83.732,102.3 84.066,104.414 L112.965,104.414"/>
    <path fill="#F58E70" d="M181.712,53.247 C181.712,53.995 181.106,54.601 180.358,54.601 C179.61,54.601 179.004,53.995 179.004,53.247 C179.004,52.499 179.61,51.893 180.358,51.893 C181.106,51.893 181.712,52.499 181.712,53.247"/>
    <path fill="#FFD15D" d="M69.338,58.662 C69.338,59.41 68.732,60.016 67.984,60.016 C67.237,60.016 66.63,59.41 66.63,58.662 C66.63,57.915 67.237,57.309 67.984,57.309 C68.732,57.309 69.338,57.915 69.338,58.662"/>
    <polygon fill="#48515A" points="123.848 49.185 125.848 49.185 125.848 37 123.848 37"/>
    <polyline fill="#48515A" points="119.604 49.457 119.132 44.063 121.124 43.889 121.596 49.283 119.604 49.457"/>
    <polyline fill="#48515A" points="115.399 50.1 114.459 44.766 116.429 44.418 117.369 49.752 115.399 50.1"/>
    <polyline fill="#48515A" points="111.268 51.104 109.866 45.874 111.797 45.356 113.199 50.587 111.268 51.104"/>
    <polyline fill="#48515A" points="107.238 52.467 105.386 47.377 107.266 46.693 109.118 51.783 107.238 52.467"/>
    <polyline fill="#48515A" points="103.343 54.175 101.055 49.267 102.867 48.421 105.156 53.329 103.343 54.175"/>
    <polyline fill="#48515A" points="99.612 56.215 96.904 51.525 98.636 50.525 101.344 55.215 99.612 56.215"/>
    <polyline fill="#48515A" points="96.072 58.573 92.966 54.137 94.605 52.99 97.711 57.427 96.072 58.573"/>
    <polyline fill="#48515A" points="92.752 61.23 89.271 57.082 90.803 55.797 94.285 59.945 92.752 61.23"/>
    <polyline fill="#48515A" points="89.676 64.168 85.847 60.339 87.261 58.925 91.09 62.754 89.676 64.168"/>
    <polyline fill="#48515A" points="86.868 67.361 82.719 63.88 84.005 62.349 88.154 65.83 86.868 67.361"/>
    <polyline fill="#48515A" points="84.349 70.788 79.913 67.683 81.059 66.044 85.496 69.149 84.349 70.788"/>
    <polyline fill="#48515A" points="82.138 74.422 77.448 71.714 78.448 69.981 83.138 72.689 82.138 74.422"/>
    <polyline fill="#48515A" points="80.252 78.233 75.343 75.944 76.189 74.132 81.097 76.421 80.252 78.233"/>
    <polyline fill="#48515A" points="78.705 82.195 73.616 80.343 74.3 78.464 79.389 80.316 78.705 82.195"/>
    <polyline fill="#48515A" points="77.51 86.276 72.279 84.875 72.796 82.943 78.027 84.345 77.51 86.276"/>
    <polyline fill="#48515A" points="76.674 90.446 71.341 89.506 71.688 87.537 77.022 88.478 76.674 90.446"/>
    <polyline fill="#48515A" points="76.206 94.674 70.811 94.202 70.985 92.21 76.38 92.682 76.206 94.674"/>
    <polyline fill="#48515A" points="178.711 103.642 173.316 103.17 173.49 101.178 178.885 101.649 178.711 103.642"/>
    <polygon fill="#48515A" points="70.692 98.926 76.108 98.926 76.108 96.926 70.692 96.926"/>
    <polygon fill="#48515A" points="173.588 98.926 179.004 98.926 179.004 96.926 173.588 96.926"/>
    <polyline fill="#48515A" points="70.985 103.642 70.811 101.649 76.206 101.178 76.38 103.17 70.985 103.642"/>
    <polyline fill="#48515A" points="173.49 94.674 173.316 92.682 178.711 92.21 178.885 94.202 173.49 94.674"/>
    <polyline fill="#48515A" points="173.022 90.446 172.674 88.478 178.008 87.537 178.355 89.506 173.022 90.446"/>
    <polyline fill="#48515A" points="172.187 86.276 171.669 84.345 176.9 82.943 177.417 84.875 172.187 86.276"/>
    <polyline fill="#48515A" points="170.992 82.195 170.307 80.316 175.396 78.464 176.081 80.343 170.992 82.195"/>
    <polyline fill="#48515A" points="169.445 78.233 168.599 76.421 173.507 74.132 174.353 75.944 169.445 78.233"/>
    <polyline fill="#48515A" points="167.559 74.422 166.559 72.689 171.249 69.981 172.249 71.714 167.559 74.422"/>
    <polyline fill="#48515A" points="165.347 70.788 164.201 69.149 168.637 66.044 169.784 67.683 165.347 70.788"/>
    <polyline fill="#48515A" points="162.829 67.361 161.542 65.83 165.691 62.349 166.977 63.88 162.829 67.361"/>
    <polyline fill="#48515A" points="160.02 64.168 158.606 62.754 162.435 58.925 163.849 60.339 160.02 64.168"/>
    <polyline fill="#48515A" points="156.944 61.23 155.412 59.945 158.893 55.797 160.425 57.082 156.944 61.23"/>
    <polyline fill="#48515A" points="153.624 58.573 151.985 57.427 155.091 52.99 156.73 54.137 153.624 58.573"/>
    <polyline fill="#48515A" points="150.084 56.215 148.352 55.215 151.06 50.525 152.792 51.525 150.084 56.215"/>
    <polyline fill="#48515A" points="146.353 54.175 144.541 53.329 146.829 48.421 148.642 49.267 146.353 54.175"/>
    <polyline fill="#48515A" points="142.458 52.467 140.579 51.783 142.431 46.693 144.311 47.377 142.458 52.467"/>
    <polyline fill="#48515A" points="138.429 51.104 136.497 50.587 137.899 45.356 139.831 45.874 138.429 51.104"/>
    <polyline fill="#48515A" points="134.297 50.1 132.327 49.752 133.268 44.418 135.237 44.766 134.297 50.1"/>
    <polyline fill="#48515A" points="130.092 49.457 128.1 49.283 128.572 43.889 130.564 44.063 130.092 49.457"/>
    <polyline fill="#48515A" points="107.238 52.467 103.07 41.016 104.95 40.332 109.118 51.783 107.238 52.467"/>
    <polyline fill="#48515A" points="92.752 61.23 84.92 51.896 86.452 50.611 94.285 59.945 92.752 61.23"/>
    <polyline fill="#48515A" points="82.138 74.422 71.585 68.329 72.585 66.597 83.138 72.689 82.138 74.422"/>
    <polyline fill="#48515A" points="76.674 90.446 64.674 88.33 65.022 86.361 77.022 88.478 76.674 90.446"/>
    <polyline fill="#48515A" points="173.022 90.446 172.674 88.478 184.674 86.361 185.022 88.33 173.022 90.446"/>
    <polyline fill="#48515A" points="167.559 74.422 166.559 72.689 177.111 66.597 178.111 68.329 167.559 74.422"/>
    <polyline fill="#48515A" points="156.944 61.23 155.412 59.945 163.244 50.611 164.776 51.896 156.944 61.23"/>
    <polyline fill="#48515A" points="156.944 61.23 155.412 59.945 163.244 50.611 164.776 51.896 156.944 61.23"/>
    <path fill="#48515A" d="M170.717,104.557 L168.737,104.271 C168.819,103.7 168.901,103.128 168.962,102.548 C171.512,78.225 153.796,56.36 129.472,53.811 C105.147,51.274 83.284,68.977 80.734,93.303 C80.351,96.956 80.421,100.646 80.942,104.271 L78.963,104.557 C78.418,100.768 78.345,96.911 78.745,93.094 C81.409,67.674 104.261,49.149 129.68,51.822 C155.101,54.486 173.616,77.336 170.952,102.758 C170.888,103.362 170.803,103.96 170.717,104.557"/>
    <path fill="#48515A" d="M159.042 104.605L157.08 104.223C157.141 103.905 157.2 103.586 157.253 103.265L159.226 103.595C159.169 103.934 159.108 104.271 159.042 104.605M125.843 65.092C125.197 65.072 124.555 65.068 123.917 65.088L123.859 63.088C124.539 63.069 125.222 63.07 125.909 63.094L125.843 65.092zM120.072 65.418L119.782 63.439C120.455 63.341 121.133 63.263 121.816 63.203L121.989 65.195C121.345 65.251 120.706 65.325 120.072 65.418zM129.69 65.436C129.221 65.367 128.748 65.308 128.271 65.257L127.771 65.209 127.952 63.217 128.478 63.268C128.985 63.321 129.486 63.385 129.982 63.458L129.69 65.436zM116.292 66.201L115.772 64.27C116.43 64.093 117.095 63.934 117.767 63.795L118.171 65.754C117.539 65.885 116.912 66.034 116.292 66.201zM133.467 66.225C132.849 66.058 132.223 65.907 131.59 65.776L131.998 63.817C132.669 63.958 133.333 64.116 133.988 64.293L133.467 66.225zM112.629 67.428L111.886 65.57C112.519 65.317 113.16 65.081 113.809 64.864L114.443 66.761C113.831 66.966 113.226 67.188 112.629 67.428zM137.124 67.448C136.529 67.21 135.925 66.987 135.313 66.782L135.947 64.886C136.597 65.102 137.238 65.339 137.869 65.593L137.124 67.448zM109.138 69.074L108.181 67.318C108.78 66.991 109.389 66.682 110.007 66.391L110.86 68.199C110.277 68.475 109.703 68.767 109.138 69.074zM140.607 69.096C140.045 68.788 139.473 68.496 138.891 68.222L139.745 66.413C140.363 66.705 140.97 67.015 141.566 67.34L140.607 69.096zM105.864 71.118L104.708 69.485C105.265 69.092 105.833 68.714 106.412 68.352L107.472 70.049C106.925 70.39 106.389 70.746 105.864 71.118zM143.871 71.141C143.349 70.769 142.815 70.411 142.27 70.07L143.331 68.375C143.91 68.737 144.477 69.116 145.032 69.512L143.871 71.141zM102.851 73.53L101.515 72.042C102.021 71.587 102.541 71.145 103.074 70.719L104.323 72.281C103.82 72.683 103.329 73.101 102.851 73.53zM146.876 73.557C146.4 73.126 145.912 72.708 145.41 72.306L146.662 70.745C147.195 71.173 147.714 71.616 148.219 72.074L146.876 73.557zM100.142 76.275L98.639 74.955C99.089 74.442 99.554 73.943 100.033 73.458L101.457 74.862C101.005 75.32 100.567 75.792 100.142 76.275zM149.58 76.31C149.156 75.825 148.719 75.353 148.268 74.895L149.695 73.492C150.173 73.979 150.637 74.479 151.085 74.993L149.58 76.31zM97.773 79.316L96.126 78.182C96.513 77.619 96.916 77.069 97.335 76.532L98.913 77.761C98.518 78.267 98.138 78.785 97.773 79.316zM151.945 79.358C151.581 78.828 151.201 78.308 150.807 77.8L152.387 76.573C152.806 77.112 153.208 77.664 153.594 78.227L151.945 79.358zM95.778 82.612L94.01 81.679C94.328 81.075 94.664 80.481 95.016 79.899L96.728 80.935C96.395 81.483 96.079 82.042 95.778 82.612zM153.938 82.664C153.638 82.094 153.322 81.532 152.99 80.983L154.702 79.948C155.054 80.532 155.39 81.127 155.708 81.732L153.938 82.664zM94.186 86.12L92.319 85.403C92.565 84.764 92.829 84.134 93.11 83.515L94.931 84.341C94.666 84.925 94.418 85.518 94.186 86.12zM155.531 86.181C155.3 85.579 155.052 84.984 154.787 84.399L156.608 83.573C156.89 84.195 157.153 84.825 157.398 85.464L155.531 86.181zM93.017 89.797L91.08 89.303C91.248 88.64 91.436 87.983 91.642 87.336L93.548 87.941C93.354 88.552 93.177 89.171 93.017 89.797zM156.7 89.862C156.541 89.235 156.364 88.616 156.17 88.005L158.076 87.399C158.282 88.048 158.47 88.706 158.638 89.37L156.7 89.862zM92.289 93.585L90.306 93.321C90.396 92.641 90.506 91.968 90.634 91.302L92.598 91.679C92.478 92.308 92.374 92.943 92.289 93.585zM157.424 93.652C157.34 93.012 157.238 92.377 157.118 91.748L159.083 91.373C159.21 92.041 159.319 92.715 159.407 93.395L157.424 93.652zM92.003 97.435L90.003 97.403C90.014 96.724 90.045 96.042 90.096 95.357L92.09 95.506C92.042 96.151 92.013 96.794 92.003 97.435zM157.696 97.499C157.688 96.852 157.662 96.21 157.617 95.571L159.612 95.431C159.66 96.108 159.688 96.79 159.696 97.476L157.696 97.499zM90.18 101.492C90.111 100.816 90.061 100.136 90.031 99.45L92.029 99.364C92.057 100.011 92.104 100.652 92.169 101.289L90.18 101.492zM159.506 101.558L157.513 101.389 157.514 101.382C157.584 100.707 157.632 100.067 157.662 99.431L159.66 99.522C159.628 100.198 159.577 100.877 159.506 101.558zM90.641 104.605C90.576 104.27 90.515 103.932 90.459 103.593L92.433 103.269C92.485 103.588 92.543 103.906 92.604 104.223L90.641 104.605"/>
    <polygon fill="#48515A" points="35 83.948 37 83.948 37 79.948 35 79.948"/>
    <polygon fill="#48515A" points="35 93.948 37 93.948 37 89.948 35 89.948"/>
    <polygon fill="#48515A" points="39 87.948 43 87.948 43 85.948 39 85.948"/>
    <polygon fill="#48515A" points="29 87.948 33 87.948 33 85.948 29 85.948"/>
    <polygon fill="#48515A" points="187 203 189 203 189 199 187 199"/>
    <polygon fill="#48515A" points="187 213 189 213 189 209 187 209"/>
    <polygon fill="#48515A" points="191 207 195 207 195 205 191 205"/>
    <polygon fill="#48515A" points="181 207 185 207 185 205 181 205"/>
    <polygon fill="#48515A" points="213 43 215 43 215 39 213 39"/>
    <polygon fill="#48515A" points="213 53 215 53 215 49 213 49"/>
    <polygon fill="#48515A" points="217 47 221 47 221 45 217 45"/>
    <polygon fill="#48515A" points="207 47 211 47 211 45 207 45"/>
  </g>
</svg>
