<svg xmlns="http://www.w3.org/2000/svg" width="250" height="250" viewBox="0 0 250 250">
  <g fill="none" fill-rule="evenodd">
    <path fill="#5FE0ED" d="M125,59.75 C90.538,59.75 62.5,87.787 62.5,122.25 C62.5,156.713 90.538,184.75 125,184.75 C159.463,184.75 187.5,156.713 187.5,122.25 C187.5,87.787 159.463,59.75 125,59.75 Z M125,211.75 C75.649,211.75 35.5,171.601 35.5,122.25 C35.5,72.899 75.649,32.75 125,32.75 C174.351,32.75 214.5,72.899 214.5,122.25 C214.5,171.601 174.351,211.75 125,211.75 Z"/>
    <polygon fill="#48515A" points="35 92.25 37 92.25 37 88.25 35 88.25"/>
    <polygon fill="#48515A" points="35 102.25 37 102.25 37 98.25 35 98.25"/>
    <polygon fill="#48515A" points="39 96.25 43 96.25 43 94.25 39 94.25"/>
    <polygon fill="#48515A" points="29 96.25 33 96.25 33 94.25 29 94.25"/>
    <polygon fill="#48515A" points="213 160.25 215 160.25 215 156.25 213 156.25"/>
    <polygon fill="#48515A" points="213 170.25 215 170.25 215 166.25 213 166.25"/>
    <polygon fill="#48515A" points="217 164.25 221 164.25 221 162.25 217 162.25"/>
    <polygon fill="#48515A" points="207 164.25 211 164.25 211 162.25 207 162.25"/>
    <polygon fill="#48515A" points="177 52.25 179 52.25 179 48.25 177 48.25"/>
    <polygon fill="#48515A" points="177 62.25 179 62.25 179 58.25 177 58.25"/>
    <polygon fill="#48515A" points="181 56.25 185 56.25 185 54.25 181 54.25"/>
    <polygon fill="#48515A" points="171 56.25 175 56.25 175 54.25 171 54.25"/>
    <polygon fill="#5FE0ED" points="158.165 184.769 177.297 184.769 177.297 172.47 158.165 172.47"/>
    <polygon fill="#5FE0ED" points="70.635 184.769 89.767 184.769 89.767 172.47 70.635 172.47"/>
    <polyline fill="#475059" points="204.149 149.25 157.427 149.25 157.427 147.25 202.149 147.25 202.149 138.712 189.566 91.526 159.051 91.526 159.051 89.526 191.104 89.526 204.149 138.581 204.149 149.25"/>
    <polyline fill="#475059" points="91.051 149.25 45.851 149.25 45.885 138.323 58.897 89.526 99.052 89.526 99.052 91.526 60.433 91.526 47.851 138.712 47.851 147.25 91.051 147.25 91.051 149.25"/>
    <polygon fill="#475059" points="106.385 211.126 108.385 211.126 108.385 184.529 106.385 184.529"/>
    <polygon fill="#475059" points="139.396 211.126 141.396 211.126 141.396 184.529 139.396 184.529"/>
    <polyline fill="#475059" points="198.214 217.25 50.464 217.25 50.464 148.25 52.464 148.25 52.464 215.25 196.214 215.25 196.214 148.25 198.214 148.25 198.214 217.25"/>
    <path fill="#475059" d="M67.534,187.871 L92.871,187.871 L92.871,168.979 L67.534,168.979 L67.534,187.871 Z M65.534,189.871 L94.871,189.871 L94.871,166.979 L65.534,166.979 L65.534,189.871 Z"/>
    <polygon fill="#475059" points="79.202 188.871 81.202 188.871 81.202 167.979 79.202 167.979"/>
    <path fill="#475059" d="M155.012,187.871 L180.348,187.871 L180.348,168.979 L155.012,168.979 L155.012,187.871 Z M153.012,189.871 L182.348,189.871 L182.348,166.979 L153.012,166.979 L153.012,189.871 Z"/>
    <polygon fill="#475059" points="166.68 188.871 168.68 188.871 168.68 167.979 166.68 167.979"/>
    <path fill="#475059" d="M100.338,215.207 L147.544,215.207 L147.544,211.74 L100.338,211.74 L100.338,215.207 Z M98.338,217.207 L149.544,217.207 L149.544,209.74 L98.338,209.74 L98.338,217.207 Z"/>
    <path fill="#F58E70" d="M187.184 94.627L159.236 94.627C159.033 97.305 157.748 99.847 155.607 101.586 156.711 102.47 157.641 103.583 158.283 104.91 160.135 108.737 159.285 113.174 156.503 116.077L144.354 138.516C144.228 138.748 144.162 139.012 144.162 139.277L144.162 144.128 199.048 144.128 199.048 139.119 187.184 94.627M103.645 140.804L101.313 141.86C99.993 142.5 98.551 142.825 97.091 142.825 95.994 142.825 94.887 142.642 93.815 142.269 91.316 141.4 89.305 139.61 88.153 137.229 86.121 133.03 87.338 128.095 90.798 125.261 89.716 124.376 88.801 123.25 88.153 121.91 87 119.529 86.844 116.843 87.713 114.344 88.296 112.667 89.301 111.219 90.614 110.094 89.614 109.234 88.763 108.172 88.153 106.911 86.043 102.553 87.432 97.398 91.199 94.627L62.815 94.627 50.951 139.119 50.951 144.128 103.645 144.128 103.645 140.804"/>
    <path fill="#475059" d="M149.359,73.004 C148.498,73.004 147.623,73.193 146.797,73.594 L94.472,97.294 C91.565,98.701 90.335,102.238 91.753,105.169 C92.44,106.588 93.639,107.655 95.128,108.173 C96.617,108.689 98.22,108.597 99.639,107.91 L151.952,84.215 C153.366,83.527 154.429,82.331 154.945,80.846 C155.463,79.356 155.37,77.754 154.683,76.335 C153.665,74.231 151.554,73.004 149.359,73.004 Z M97.081,110.504 C94.149,110.504 91.318,108.86 89.953,106.04 C88.055,102.117 89.701,97.381 93.624,95.482 L145.949,71.782 C149.848,69.895 154.584,71.54 156.483,75.464 C157.403,77.364 157.527,79.509 156.834,81.503 C156.141,83.496 154.713,85.101 152.813,86.02 L152.789,86.031 L100.487,109.722 C99.391,110.252 98.229,110.504 97.081,110.504 Z"/>
    <path fill="#475059" d="M97.081,125.503 C94.149,125.503 91.318,123.859 89.953,121.039 C88.055,117.116 89.702,112.381 93.624,110.482 L99.682,107.891 L100.468,109.73 L94.453,112.303 C91.565,113.701 90.335,117.238 91.753,120.168 C93.171,123.098 96.708,124.329 99.639,122.909 L151.965,99.209 C154.871,97.802 156.101,94.265 154.683,91.334 C153.229,88.332 150.104,87.157 147.254,88.538 L146.383,86.737 C150.216,84.884 154.558,86.484 156.483,90.463 C158.382,94.386 156.735,99.122 152.813,101.021 L100.487,124.721 C99.391,125.251 98.229,125.503 97.081,125.503"/>
    <path fill="#475059" d="M97.079 140.822C96.204 140.822 95.324 140.676 94.472 140.38 92.478 139.687 90.873 138.258 89.953 136.357 88.055 132.435 89.702 127.699 93.624 125.801L99.642 122.908 100.508 124.711 94.493 127.603C91.565 129.02 90.335 132.557 91.753 135.486 92.44 136.906 93.639 137.973 95.128 138.49 96.617 139.007 98.22 138.915 99.639 138.228L151.965 114.527C154.871 113.12 156.101 109.583 154.683 106.652 153.278 103.75 149.434 102.471 146.457 103.911L145.586 102.11C149.522 100.206 154.614 101.921 156.483 105.781 158.382 109.704 156.735 114.44 152.813 116.339L100.487 140.039C99.413 140.56 98.25 140.822 97.079 140.822M124.57 83.606L116.39 82.514C112.086 82.091 108.904 78.217 109.33 73.88 109.536 71.779 110.548 69.884 112.18 68.544 113.813 67.205 115.874 66.576 117.969 66.787L151.414 71.255 151.148 73.237 117.739 68.773C116.203 68.622 114.668 69.089 113.449 70.09 112.23 71.091 111.475 72.506 111.32 74.075 111.002 77.314 113.379 80.209 116.62 80.527L124.835 81.624 124.57 83.606"/>
    <polyline fill="#475059" points="119.15 149.25 105.645 149.25 105.645 136.37 107.645 136.37 107.645 147.25 117.15 147.25 117.15 131.036 119.15 131.036 119.15 149.25"/>
    <path fill="#475059" d="M142.162,149.25 L128.656,149.25 L128.656,135.53 C128.656,134.802 128.796,134.091 129.071,133.415 L133.207,123.275 L135.059,124.031 L130.923,134.17 C130.746,134.604 130.656,135.063 130.656,135.53 L130.656,147.25 L140.162,147.25 L140.162,139.277 C140.162,138.349 140.396,137.427 140.837,136.61 L153.183,113.81 L154.94,114.763 L142.596,137.563 C142.313,138.088 142.162,138.681 142.162,139.277 L142.162,149.25"/>
    <path fill="#475059" d="M113.094,185.764 L134.712,185.764 L138.92,177.718 L138.92,166.043 L152.818,159.144 L152.818,149.25 L95.276,149.25 L95.276,159.149 L108.886,166.049 L108.886,177.718 L113.094,185.764 Z M135.923,187.764 L111.883,187.764 L106.886,178.21 L106.886,167.277 L93.276,160.378 L93.276,147.25 L154.818,147.25 L154.818,160.384 L140.92,167.283 L140.92,178.21 L135.923,187.764 Z"/>
    <polygon fill="#475059" points="107.886 167.664 139.92 167.664 139.92 165.664 107.886 165.664"/>
    <path fill="#475059" d="M124.118,192.494 C120.435,192.494 117.022,190.498 115.213,187.286 L116.955,186.304 C118.411,188.889 121.155,190.494 124.118,190.494 C127.1,190.494 129.853,188.874 131.302,186.267 L133.05,187.237 C131.248,190.48 127.826,192.494 124.118,192.494"/>
    <path fill="#F58E70" d="M126.656,135.53 L126.656,145.547 L121.151,145.547 L121.151,132.875 L128.487,129.552 L127.217,132.662 C126.844,133.579 126.656,134.544 126.656,135.53"/>
    <polyline fill="#DFE0E0" points="133.502 183.764 114.305 183.764 110.886 177.227 110.886 169.664 136.921 169.664 136.921 177.227 133.502 183.764"/>
    <polyline fill="#DFE0E0" points="150.818 157.903 139.214 163.664 108.605 163.664 97.276 157.921 150.818 157.903"/>
    <polyline fill="#DFE0E0" points="109.645 138.086 115.151 135.592 115.151 145.547 109.645 145.547 109.645 138.086"/>
    <path fill="#DFE0E0" d="M139.078,135.658 C138.479,136.767 138.162,138.018 138.162,139.277 L138.162,145.547 L132.656,145.547 L132.656,135.53 C132.656,135.322 132.696,135.117 132.774,134.926 L136.436,125.951 L146.9,121.211 L139.078,135.658"/>
  </g>
</svg>
