<svg xmlns="http://www.w3.org/2000/svg" width="250" height="250" viewBox="0 0 250 250">
  <g fill="none" fill-rule="evenodd">
    <polygon fill="#FFD15D" points="58.038 214.502 82.038 214.502 82.038 74.502 58.038 74.502"/>
    <path fill="#48515A" d="M86.038,216.502 L194.036,216.502 L194.036,72.502 L86.038,72.502 L86.038,216.502 Z M84.038,218.502 L196.036,218.502 L196.036,70.502 L84.038,70.502 L84.038,218.502 Z"/>
    <path fill="#48515A" d="M56.038,216.502 L84.038,216.502 L84.038,72.502 L56.038,72.502 L56.038,216.502 Z M54.038,218.502 L86.038,218.502 L86.038,70.502 L54.038,70.502 L54.038,218.502 Z"/>
    <polyline fill="#48515A" points="84.483 218.334 70.037 208.708 55.592 218.334 54.483 216.67 70.037 206.304 85.592 216.67 84.483 218.334"/>
    <polygon fill="#48515A" points="69.037 207.506 71.037 207.506 71.037 71.835 69.037 71.835"/>
    <path fill="#48515A" d="M167.036,82.498 L165.036,82.498 L165.036,59.498 C165.036,45.161 153.373,33.498 139.036,33.498 C124.7,33.498 113.036,45.161 113.036,59.498 L113.036,82.498 L111.036,82.498 L111.036,59.498 C111.036,44.058 123.597,31.498 139.036,31.498 C154.476,31.498 167.036,44.058 167.036,59.498 L167.036,82.498"/>
    <path fill="#48515A" d="M112.036 83.495C110.382 83.495 109.036 84.84 109.036 86.495 109.036 88.149 110.382 89.495 112.036 89.495 113.69 89.495 115.036 88.149 115.036 86.495 115.036 84.84 113.69 83.495 112.036 83.495zM112.036 91.495C109.279 91.495 107.036 89.251 107.036 86.495 107.036 83.738 109.279 81.495 112.036 81.495 114.793 81.495 117.036 83.738 117.036 86.495 117.036 89.251 114.793 91.495 112.036 91.495zM166.068 83.495C164.414 83.495 163.068 84.84 163.068 86.495 163.068 88.149 164.414 89.495 166.068 89.495 167.723 89.495 169.068 88.149 169.068 86.495 169.068 84.84 167.723 83.495 166.068 83.495zM166.068 91.495C163.312 91.495 161.068 89.251 161.068 86.495 161.068 83.738 163.312 81.495 166.068 81.495 168.825 81.495 171.068 83.738 171.068 86.495 171.068 89.251 168.825 91.495 166.068 91.495zM144.022 71.662L142.022 71.662 142.022 59.498C142.022 45.161 130.359 33.498 116.022 33.498 101.686 33.498 90.022 45.161 90.022 59.498L90.022 71.662 88.022 71.662 88.022 59.498C88.022 44.058 100.583 31.498 116.022 31.498 131.461 31.498 144.022 44.058 144.022 59.498L144.022 71.662"/>
    <polygon fill="#48515A" points="34.947 139.473 36.947 139.473 36.947 135.473 34.947 135.473"/>
    <polygon fill="#48515A" points="34.947 149.473 36.947 149.473 36.947 145.473 34.947 145.473"/>
    <polygon fill="#48515A" points="38.947 143.473 42.947 143.473 42.947 141.473 38.947 141.473"/>
    <polygon fill="#48515A" points="28.947 143.473 32.947 143.473 32.947 141.473 28.947 141.473"/>
    <polygon fill="#48515A" points="213.053 189.503 215.053 189.503 215.053 185.503 213.053 185.503"/>
    <polygon fill="#48515A" points="213.053 199.503 215.053 199.503 215.053 195.503 213.053 195.503"/>
    <polygon fill="#48515A" points="217.053 193.503 221.053 193.503 221.053 191.503 217.053 191.503"/>
    <polygon fill="#48515A" points="207.053 193.503 211.053 193.503 211.053 191.503 207.053 191.503"/>
    <polygon fill="#48515A" points="199.045 61.426 201.045 61.426 201.045 57.426 199.045 57.426"/>
    <polygon fill="#48515A" points="199.045 71.426 201.045 71.426 201.045 67.426 199.045 67.426"/>
    <polygon fill="#48515A" points="203.045 65.426 207.045 65.426 207.045 63.426 203.045 63.426"/>
    <polygon fill="#48515A" points="193.045 65.426 197.045 65.426 197.045 63.426 193.045 63.426"/>
    <path fill="#48515A" d="M118.485,144.459 L109.719,159.643 C108.811,161.215 108.811,163.169 109.719,164.742 C110.627,166.314 112.318,167.291 114.134,167.291 L139.462,167.291 L139.462,169.748 L146.113,162.966 L139.462,156.184 L139.462,158.641 L120.284,158.641 L126.44,147.979 L119.931,149.655 L118.485,144.459 Z M137.462,174.642 L137.462,169.291 L114.134,169.291 C111.606,169.291 109.251,167.931 107.987,165.742 C106.723,163.552 106.723,160.833 107.986,158.643 L119.134,139.334 L121.332,147.229 L130.553,144.854 L123.748,156.641 L137.462,156.641 L137.462,151.29 L148.914,162.966 L137.462,174.642 Z"/>
    <path fill="#48515A" d="M144.673,167.291 L165.63,167.291 C167.447,167.291 169.139,166.313 170.046,164.74 C170.954,163.167 170.954,161.214 170.046,159.643 L170.045,159.643 L159.592,141.537 L161.767,140.282 L152.568,137.912 L150.021,147.062 L152.102,145.861 L159.48,158.641 L144.673,158.641 L148.914,162.966 L144.673,167.291 Z M165.63,169.291 L139.911,169.291 L146.113,162.966 L139.911,156.641 L156.017,156.641 L151.37,148.593 L146.782,151.242 L151.168,135.486 L167.006,139.565 L162.324,142.269 L171.778,158.643 C173.042,160.831 173.042,163.549 171.778,165.74 C170.515,167.93 168.159,169.291 165.63,169.291 Z"/>
    <path fill="#48515A" d="M118.785,138.079 L121.332,147.229 L130.53,144.86 L128.813,143.869 L139.882,124.696 L149.523,141.394 L151.168,135.486 L156.96,136.978 L144.296,115.043 L144.297,115.043 C143.389,113.472 141.697,112.497 139.881,112.497 C138.067,112.497 136.375,113.473 135.467,115.045 L121.323,139.544 L118.785,138.079 Z M119.931,149.655 L115.544,133.899 L120.59,136.812 L133.735,114.045 C135,111.856 137.354,110.497 139.881,110.497 C142.409,110.497 144.764,111.856 146.028,114.043 L146.029,114.043 L161.073,140.103 L152.568,137.912 L150.172,146.519 L139.882,128.696 L131.545,143.136 L135.77,145.577 L119.931,149.655 Z"/>
    <path fill="#5FE0ED" d="M207.037 158.497C207.037 160.153 205.693 161.497 204.037 161.497 202.38 161.497 201.037 160.153 201.037 158.497 201.037 156.84 202.38 155.497 204.037 155.497 205.693 155.497 207.037 156.84 207.037 158.497M209.037 211.497C209.037 212.601 208.141 213.497 207.037 213.497 205.932 213.497 205.037 212.601 205.037 211.497 205.037 210.392 205.932 209.497 207.037 209.497 208.141 209.497 209.037 210.392 209.037 211.497M209.037 178.497C209.037 179.049 208.589 179.497 208.037 179.497 207.484 179.497 207.037 179.049 207.037 178.497 207.037 177.944 207.484 177.497 208.037 177.497 208.589 177.497 209.037 177.944 209.037 178.497M43.037 189.497C43.037 190.601 42.141 191.497 41.037 191.497 39.932 191.497 39.037 190.601 39.037 189.497 39.037 188.392 39.932 187.497 41.037 187.497 42.141 187.497 43.037 188.392 43.037 189.497M75.037 55.497C75.037 56.601 74.141 57.497 73.037 57.497 71.932 57.497 71.037 56.601 71.037 55.497 71.037 54.392 71.932 53.497 73.037 53.497 74.141 53.497 75.037 54.392 75.037 55.497"/>
  </g>
</svg>
