<svg xmlns="http://www.w3.org/2000/svg" width="250" height="250" viewBox="0 0 250 250">
  <g fill="none" fill-rule="evenodd">
    <path fill="#DEDEDD" d="M140.542,132.735 C140.523,132.812 140.514,132.888 140.493,132.965 C138.585,140.086 132.13,144.783 125.087,144.807 L125.038,144.905 L125.038,144.807 C117.996,144.783 111.54,140.086 109.632,132.965 C109.612,132.888 109.602,132.812 109.583,132.735 L101.85,134.807 C101.869,134.883 101.884,134.959 101.905,135.035 C104.77,145.727 114.464,152.797 125.038,152.821 L125.038,152.752 L125.087,152.821 C135.661,152.797 145.356,145.727 148.22,135.035 C148.241,134.959 148.256,134.883 148.276,134.807 L140.542,132.735"/>
    <polygon fill="#48515A" points="213.054 128.589 215.054 128.589 215.054 124.589 213.054 124.589"/>
    <polygon fill="#48515A" points="213.054 138.589 215.054 138.589 215.054 134.589 213.054 134.589"/>
    <polygon fill="#48515A" points="217.054 132.589 221.054 132.589 221.054 130.589 217.054 130.589"/>
    <polygon fill="#48515A" points="207.054 132.589 211.054 132.589 211.054 130.589 207.054 130.589"/>
    <polygon fill="#48515A" points="34.946 106.576 36.946 106.576 36.946 102.576 34.946 102.576"/>
    <polygon fill="#48515A" points="34.946 116.576 36.946 116.576 36.946 112.576 34.946 112.576"/>
    <polygon fill="#48515A" points="38.946 110.576 42.946 110.576 42.946 108.576 38.946 108.576"/>
    <polygon fill="#48515A" points="28.946 110.576 32.946 110.576 32.946 108.576 28.946 108.576"/>
    <polygon fill="#48515A" points="44.952 186.624 46.952 186.624 46.952 182.624 44.952 182.624"/>
    <polygon fill="#48515A" points="44.952 196.624 46.952 196.624 46.952 192.624 44.952 192.624"/>
    <polygon fill="#48515A" points="48.952 190.624 52.952 190.624 52.952 188.624 48.952 188.624"/>
    <polygon fill="#48515A" points="38.952 190.624 42.952 190.624 42.952 188.624 38.952 188.624"/>
    <path fill="#F58E70" d="M55.49 85.227C55.49 86.332 54.594 87.227 53.49 87.227 52.385 87.227 51.49 86.332 51.49 85.227 51.49 84.122 52.385 83.227 53.49 83.227 54.594 83.227 55.49 84.122 55.49 85.227M207.581 158.271C207.581 159.375 206.685 160.271 205.581 160.271 204.476 160.271 203.581 159.375 203.581 158.271 203.581 157.166 204.476 156.271 205.581 156.271 206.685 156.271 207.581 157.166 207.581 158.271"/>
    <path fill="#FFD15D" d="M145.544,66.216 C145.544,67.32 144.648,68.216 143.544,68.216 C142.439,68.216 141.544,67.32 141.544,66.216 C141.544,65.111 142.439,64.216 143.544,64.216 C144.648,64.216 145.544,65.111 145.544,66.216"/>
    <path fill="#F58E70" d="M101.434,95.717 C102.987,96.064 104.465,96.804 105.718,97.933 C104.466,96.803 102.988,96.063 101.434,95.717"/>
    <polyline fill="#F58E70" points="158.236 121.297 158.236 121.297 159.692 119.874 158.236 121.297"/>
    <path fill="#F58E70" d="M150.529 95.482C151.152 95.474 151.775 95.523 152.389 95.635 151.823 95.532 151.245 95.473 150.656 95.473 150.613 95.473 150.572 95.482 150.529 95.482M161.334 126.659C160.634 127.358 159.879 127.968 159.088 128.505 159.227 143.619 149.187 157.544 133.929 161.654 115.826 166.53 97.132 155.768 92.257 137.666 91.444 134.648 91.075 131.616 91.093 128.633 90.226 128.062 89.404 127.397 88.642 126.635L81.961 120.103C80.646 126.58 80.765 133.451 82.601 140.267 88.921 163.731 113.065 177.629 136.53 171.31 159.133 165.222 172.852 142.593 168.179 119.965L161.334 126.659"/>
    <polygon fill="#48515A" points="124.038 140.197 126.038 140.197 126.038 106.874 124.038 106.874"/>
    <path fill="#48515A" d="M128.882,110.503 L142.218,123.805 C146.716,128.302 154.033,128.304 158.529,123.807 L172.147,110.49 L158.803,96.844 C156.633,94.673 153.736,93.474 150.656,93.474 C147.575,93.474 144.68,94.673 142.501,96.851 L128.882,110.503 Z M150.377,129.179 C146.911,129.179 143.444,127.86 140.805,125.22 L126.054,110.507 L141.086,95.438 C143.643,92.881 147.041,91.474 150.656,91.474 C154.271,91.474 157.669,92.881 160.225,95.437 L174.976,110.521 L159.936,125.229 C157.303,127.862 153.84,129.179 150.377,129.179 Z"/>
    <path fill="#5FE0ED" d="M152.061 100.995L154.061 100.979 154.061 100.995C154.061 104.368 152.432 107.359 149.924 109.244L168.132 109.244 157.373 98.242C153.681 94.549 147.632 94.55 143.914 98.265L132.963 109.244 144.854 109.244C148.917 108.692 152.061 105.208 152.061 100.995M149.934 111.411C152.445 113.295 154.076 116.288 154.076 119.662L152.076 119.679 152.076 119.662C152.076 115.442 148.919 111.953 144.844 111.411L132.625 111.411 143.63 122.389C147.353 126.11 153.399 126.109 157.116 122.393L168.346 111.411 149.934 111.411"/>
    <path fill="#48515A" d="M77.852,110.49 L91.462,123.799 C95.967,128.304 103.283,128.303 107.78,123.806 L121.117,110.503 L107.498,96.85 C103.001,92.354 95.686,92.356 91.188,96.852 L77.852,110.49 Z M99.625,129.178 C96.159,129.178 92.694,127.859 90.056,125.221 L75.023,110.521 L89.767,95.445 C95.051,90.161 103.637,90.161 108.913,95.437 L123.945,110.507 L109.193,125.221 C106.556,127.859 103.09,129.178 99.625,129.178 Z"/>
    <path fill="#5FE0ED" d="M97.939 100.995L95.939 100.979 95.939 100.995C95.939 104.368 97.568 107.359 100.076 109.244L81.867 109.244 92.626 98.242C96.319 94.549 102.367 94.55 106.085 98.265L117.036 109.244 105.146 109.244C101.083 108.692 97.939 105.208 97.939 100.995M100.066 111.411C97.555 113.295 95.924 116.288 95.924 119.662L97.924 119.679 97.924 119.662C97.924 115.442 101.081 111.953 105.155 111.411L117.374 111.411 106.369 122.389C102.647 126.11 96.601 126.109 92.884 122.393L81.654 111.411 100.066 111.411"/>
    <path fill="#48515A" d="M124.921,41.671 L105.232,61.806 C101.968,65.07 100.175,69.4 100.175,74.005 C100.175,78.61 101.968,82.94 105.225,86.196 L124.907,105.93 L145.102,85.786 C151.822,79.064 151.822,68.126 145.1,61.404 L124.921,41.671 Z M124.903,108.758 L103.81,87.609 C100.176,83.976 98.175,79.145 98.175,74.005 C98.175,68.866 100.176,64.034 103.811,60.399 L124.89,38.843 L146.506,59.982 C154.017,67.492 154.017,79.699 146.515,87.201 L124.903,108.758 Z"/>
    <path fill="#5FE0ED" d="M111.162 70.868L110.932 70.868 110.932 68.868 111.162 68.868C116.634 68.868 121.412 71.852 123.987 76.27L123.988 45.479 106.384 63.483C100.419 69.448 100.418 79.117 106.361 85.06L123.987 102.731 123.987 83.272C123.751 76.394 118.097 70.868 111.162 70.868M138.905 68.902L139.135 68.902 139.135 70.902 138.905 70.902C135.473 70.902 132.247 72.237 129.821 74.664 127.393 77.091 126.058 80.317 126.058 83.749L125.987 83.749 125.987 102.029 143.411 84.648C149.351 78.708 149.351 69.039 143.408 63.096L125.987 46.061 125.987 76.443C126.641 75.29 127.444 74.212 128.406 73.249 131.211 70.445 134.94 68.901 138.905 68.902"/>
    <polygon fill="#475059" points="124.087 211.157 126.087 211.157 126.087 183.688 124.087 183.688"/>
    <path fill="#475059" d="M125.099,173.829 C105.253,173.83 87.037,160.583 81.635,140.527 C79.803,133.726 79.583,126.787 80.98,119.904 L82.941,120.302 C81.605,126.878 81.815,133.508 83.566,140.006 C89.732,162.901 113.37,176.513 136.271,170.344 C158.204,164.437 171.79,142.396 167.199,120.167 L169.158,119.763 C173.962,143.027 159.745,166.093 136.79,172.276 C132.888,173.327 128.961,173.829 125.099,173.829"/>
    <polyline fill="#475059" points="112.856 199.043 100.742 195.813 100.993 179.414 93.44 175.066 79.386 183.52 70.509 174.667 78.926 160.589 74.56 153.048 58.16 153.341 54.899 141.236 69.227 133.253 69.217 124.539 54.868 116.593 58.097 104.479 74.497 104.729 78.844 97.178 70.392 83.122 79.244 74.246 93.321 82.663 97.013 80.526 98.015 82.256 93.306 84.983 79.559 76.764 72.909 83.429 81.164 97.156 75.644 106.747 59.628 106.503 57.202 115.6 71.215 123.359 71.229 134.427 57.237 142.223 59.686 151.313 75.7 151.028 81.246 160.605 73.026 174.353 79.692 181.001 93.419 172.746 103.011 178.267 102.766 194.283 111.862 196.708 119.623 182.695 130.689 182.681 138.486 196.674 147.577 194.226 147.29 178.21 156.868 172.665 170.616 180.884 177.265 174.219 169.01 160.492 174.53 150.9 190.546 151.145 192.972 142.048 178.959 134.288 178.944 123.221 192.937 115.424 190.488 106.334 174.474 106.62 168.928 97.042 177.147 83.294 170.481 76.646 156.755 84.901 152.165 82.259 153.163 80.526 156.733 82.581 170.788 74.128 179.665 82.981 171.248 97.059 175.614 104.599 192.014 104.307 195.274 116.412 180.946 124.395 180.957 133.108 195.306 141.055 192.077 153.168 175.677 152.918 171.33 160.47 179.782 174.525 170.929 183.401 156.853 174.985 149.312 179.351 149.604 195.751 137.5 199.011 129.516 184.683 120.803 184.694 112.856 199.043"/>
    <path fill="#475059" d="M125.041,156.835 C120.189,156.835 115.401,155.563 111.087,153.072 C104.609,149.332 99.977,143.294 98.041,136.07 C97.622,134.505 97.336,132.865 97.192,131.195 L99.185,131.023 C99.318,132.577 99.584,134.101 99.973,135.552 C101.771,142.261 106.072,147.867 112.087,151.34 C118.103,154.813 125.11,155.732 131.816,153.937 C142.372,151.109 150.081,141.894 151,131.007 L152.992,131.175 C152.004,142.899 143.701,152.823 132.334,155.869 C129.922,156.515 127.474,156.835 125.041,156.835"/>
    <path fill="#475059" d="M125.099,173.829 C105.253,173.83 87.037,160.583 81.635,140.527 C79.803,133.726 79.583,126.787 80.98,119.904 L82.941,120.302 C81.605,126.878 81.815,133.508 83.566,140.006 C89.732,162.901 113.37,176.513 136.271,170.344 C158.204,164.437 171.79,142.396 167.199,120.167 L169.158,119.763 C173.962,143.027 159.745,166.093 136.79,172.276 C132.888,173.327 128.961,173.829 125.099,173.829"/>
    <path fill="#475059" d="M125.059,145.832 C122.113,145.832 119.206,145.059 116.587,143.546 C112.654,141.276 109.841,137.61 108.666,133.224 C108.201,131.491 108.018,129.691 108.12,127.873 L110.116,127.985 C110.026,129.59 110.188,131.179 110.598,132.706 C111.635,136.576 114.117,139.811 117.587,141.814 C121.055,143.817 125.098,144.35 128.969,143.313 C135.737,141.5 140.404,135.106 140.065,128.111 L142.063,128.015 C142.447,135.943 137.158,143.189 129.486,145.245 C128.022,145.637 126.535,145.831 125.059,145.832"/>
    <path fill="#475059" d="M125.041,156.835 C120.189,156.835 115.401,155.563 111.087,153.072 C104.609,149.332 99.977,143.294 98.041,136.07 C97.622,134.505 97.336,132.865 97.192,131.195 L99.185,131.023 C99.318,132.577 99.584,134.101 99.973,135.552 C101.771,142.261 106.072,147.867 112.087,151.34 C118.103,154.813 125.11,155.732 131.816,153.937 C142.372,151.109 150.081,141.894 151,131.007 L152.992,131.175 C152.004,142.899 143.701,152.823 132.334,155.869 C129.922,156.515 127.474,156.835 125.041,156.835"/>
    <path fill="#475059" d="M125.059,145.832 C122.113,145.832 119.206,145.059 116.587,143.546 C112.654,141.276 109.841,137.61 108.666,133.224 C108.201,131.491 108.018,129.691 108.12,127.873 L110.116,127.985 C110.026,129.59 110.188,131.179 110.598,132.706 C111.635,136.576 114.117,139.811 117.587,141.814 C121.055,143.817 125.098,144.35 128.969,143.313 C135.737,141.5 140.404,135.106 140.065,128.111 L142.063,128.015 C142.447,135.943 137.158,143.189 129.486,145.245 C128.022,145.637 126.535,145.831 125.059,145.832"/>
    <path fill="#475059" d="M125.065,141.83 C122.813,141.83 120.59,141.239 118.587,140.082 C115.58,138.346 113.429,135.542 112.53,132.188 C111.554,128.546 112.214,124.659 114.342,121.524 L115.996,122.647 C114.195,125.301 113.637,128.59 114.462,131.671 C115.223,134.509 117.042,136.881 119.587,138.35 C122.13,139.819 125.096,140.21 127.934,139.449 C130.772,138.688 133.145,136.869 134.613,134.324 C136.082,131.779 136.473,128.815 135.712,125.977 C135.445,124.98 135.03,124.015 134.479,123.106 L136.188,122.068 C136.838,123.139 137.328,124.28 137.644,125.459 C138.543,128.813 138.082,132.316 136.346,135.324 C134.609,138.331 131.806,140.482 128.451,141.381 C127.331,141.681 126.194,141.83 125.065,141.83"/>
    <path fill="#475059" d="M125.065,141.83 C122.813,141.83 120.59,141.239 118.587,140.082 C115.58,138.346 113.429,135.542 112.53,132.188 C111.554,128.546 112.214,124.659 114.342,121.524 L115.996,122.647 C114.195,125.301 113.637,128.59 114.462,131.671 C115.223,134.509 117.042,136.881 119.587,138.35 C122.13,139.819 125.096,140.21 127.934,139.449 C130.772,138.688 133.145,136.869 134.613,134.324 C136.082,131.779 136.473,128.815 135.712,125.977 C135.445,124.98 135.03,124.015 134.479,123.106 L136.188,122.068 C136.838,123.139 137.328,124.28 137.644,125.459 C138.543,128.813 138.082,132.316 136.346,135.324 C134.609,138.331 131.806,140.482 128.451,141.381 C127.331,141.681 126.194,141.83 125.065,141.83"/>
    <path fill="#DEDEDD" d="M188.915,149.286 L189.794,146.021 L170.476,140.819 C170.456,140.895 170.442,140.971 170.421,141.047 C164.785,161.973 145.79,175.791 125.087,175.818 L125.038,175.836 L125.038,175.818 C104.335,175.791 85.34,161.973 79.704,141.047 C79.684,140.971 79.669,140.895 79.649,140.819 L60.331,146.021 L61.21,149.286 L76.842,149.007 L83.566,160.621 L75.544,174.039 L80,178.482 L93.397,170.425 L105.027,177.121 L104.79,192.753 L110.869,194.373 L118.443,180.697 L125.038,180.688 L125.038,180.668 L125.087,180.688 L131.682,180.697 L139.256,194.373 L145.336,192.753 L145.098,177.121 L156.729,170.425 L170.125,178.482 L174.581,174.039 L166.559,160.621 L173.283,149.007 L188.915,149.286"/>
  </g>
</svg>
