<svg xmlns="http://www.w3.org/2000/svg" width="250" height="250" viewBox="0 0 250 250">
  <g fill="none" fill-rule="evenodd">
    <path fill="#F58E70" d="M161.296,182.596 C153.192,182.596 146.599,176.003 146.599,167.899 C146.599,165.32 147.281,162.779 148.57,160.55 L149.985,158.174 C154.259,150.93 157.765,142.966 160.403,134.505 L161.298,131.634 L162.193,134.505 C164.745,142.691 168.29,150.655 172.728,158.177 L172.744,158.205 L174.023,160.553 C175.312,162.781 175.993,165.321 175.993,167.899 C175.993,176.003 169.4,182.596 161.296,182.596 Z M204.589,130.618 C204.435,130.616 204.157,130.611 203.745,130.578 C203.578,130.565 203.377,130.568 203.142,130.568 C203.132,130.568 203.122,130.568 203.112,130.568 C200.561,130.564 193.786,130.556 189.841,121.746 C186.082,113.182 180.369,105.499 173.257,99.416 C172.824,99.046 171.924,103.936 171.924,103.936 L169.201,102.887 L170.503,97.16 L172.923,86.105 C173.321,84.798 173.575,82.139 172.652,81.538 C170.945,80.431 166.822,81.906 163.812,82.982 C163.298,83.167 162.793,83.348 162.3,83.518 C160.94,83.99 157.803,85.203 152.979,87.121 L152.002,87.509 L150.997,87.203 C148.086,86.317 145.082,85.642 142.067,85.194 C141.93,85.174 141.793,85.16 141.656,85.141 C140.718,86.874 139.512,88.443 138.069,89.764 C134.391,89.079 130.608,88.696 126.731,88.696 C122.623,88.696 118.62,89.131 114.737,89.897 C113.371,88.675 112.202,87.241 111.273,85.65 C111.196,85.664 111.111,85.675 111.034,85.688 L110.786,85.736 C110.069,85.874 109.353,86.012 108.647,86.179 C101.405,87.889 94.702,90.85 88.735,94.784 C90.235,97.966 91.88,101.094 93.681,104.145 L93.697,104.173 L94.976,106.521 C96.264,108.749 96.945,111.289 96.945,113.867 C96.945,121.971 90.353,128.564 82.249,128.564 C75.392,128.564 69.634,123.838 68.019,117.477 C63.68,125.586 61.103,134.717 60.751,144.315 L60.751,144.434 L60.945,150.483 C61.91,166.796 69.29,181.941 81.722,193.047 L81.845,193.163 L86.359,197.678 L86.359,215.667 L102.175,215.667 C103.205,212.402 104.994,209.403 107.474,206.896 C111.611,202.716 117.128,200.413 123.009,200.413 L125.943,200.413 C131.179,200.413 136.216,202.885 139.419,207.025 L146.104,215.667 L162.536,215.667 L161.928,213.738 C160.393,208.876 161.927,203.619 165.834,200.344 L166.062,200.153 L166.323,200.011 C166.497,199.915 184.199,189.971 190.698,169.578 C192.737,161.935 194.206,159.604 195.906,156.905 L195.96,156.82 C199.103,151.833 204.398,149.527 207.524,148.553 L207.524,130.618 L204.589,130.618 Z"/>
    <path fill="#475059" d="M47.274,162.534 C42.022,162.534 37.749,158.132 37.749,152.722 C37.749,148.282 41.257,144.671 45.569,144.671 C49.189,144.671 52.024,147.216 52.024,150.464 C52.024,153.536 49.618,156.036 46.66,156.036 L46.66,154.036 C48.515,154.036 50.024,152.434 50.024,150.464 C50.024,148.302 48.109,146.671 45.569,146.671 C42.36,146.671 39.75,149.386 39.75,152.722 C39.75,157.029 43.125,160.534 47.274,160.534 C52.597,160.534 56.928,156.041 56.928,150.519 L58.928,150.519 C58.928,157.144 53.7,162.534 47.274,162.534"/>
    <polygon fill="#48515A" points="58.736 201.709 60.736 201.709 60.736 197.709 58.736 197.709"/>
    <polygon fill="#48515A" points="58.736 211.709 60.736 211.709 60.736 207.709 58.736 207.709"/>
    <polygon fill="#48515A" points="62.736 205.709 66.736 205.709 66.736 203.709 62.736 203.709"/>
    <polygon fill="#48515A" points="52.736 205.709 56.736 205.709 56.736 203.709 52.736 203.709"/>
    <polygon fill="#48515A" points="56.691 85.696 58.691 85.696 58.691 81.696 56.691 81.696"/>
    <polygon fill="#48515A" points="56.691 95.696 58.691 95.696 58.691 91.696 56.691 91.696"/>
    <polygon fill="#48515A" points="60.691 89.696 64.691 89.696 64.691 87.696 60.691 87.696"/>
    <polygon fill="#48515A" points="50.691 89.696 54.691 89.696 54.691 87.696 50.691 87.696"/>
    <path fill="#475059" d="M172.671 104.22L170.753 103.651C170.768 103.603 172.217 98.702 172.851 95.778L174.806 96.202C174.156 99.199 172.732 104.016 172.671 104.22M181.192 122.604C180.779 122.604 180.393 122.347 180.249 121.935 179.266 119.139 178.283 117 177.479 115.911 177.151 115.467 177.246 114.841 177.69 114.513 178.134 114.185 178.76 114.279 179.088 114.724 180.266 116.318 181.395 119.165 182.135 121.272 182.319 121.793 182.044 122.364 181.523 122.547 181.414 122.586 181.302 122.604 181.192 122.604"/>
    <polygon fill="#48515A" points="195.74 92.673 197.74 92.673 197.74 88.673 195.74 88.673"/>
    <polygon fill="#48515A" points="195.74 102.673 197.74 102.673 197.74 98.673 195.74 98.673"/>
    <polygon fill="#48515A" points="199.74 96.673 203.74 96.673 203.74 94.673 199.74 94.673"/>
    <polygon fill="#48515A" points="189.74 96.673 193.74 96.673 193.74 94.673 189.74 94.673"/>
    <path fill="#5FE0ED" d="M192.766,208.726 C192.766,209.83 191.871,210.726 190.766,210.726 C189.661,210.726 188.766,209.83 188.766,208.726 C188.766,207.621 189.661,206.726 190.766,206.726 C191.871,206.726 192.766,207.621 192.766,208.726"/>
    <path fill="#475059" d="M88.108 92.797L87.022 91.117C93.399 86.995 100.364 84.023 107.725 82.285L109.423 81.935 109.828 83.894 108.157 84.238C101.046 85.918 94.291 88.799 88.108 92.797M167.914 219.416L143.948 219.416 136.255 209.474C133.804 206.305 129.95 204.413 125.944 204.413L123.009 204.413C114.596 204.413 107.249 210.388 105.539 218.619L105.373 219.416 82.36 219.416 82.36 199.333 79.016 195.99C65.831 184.215 57.979 168.095 56.949 150.638L56.75 144.26C57.161 132.849 60.534 121.723 66.507 112.051L68.209 113.102C62.417 122.479 59.147 133.267 58.749 144.296L58.751 144.434 58.946 150.547C59.944 167.445 67.56 183.077 80.389 194.537L84.36 198.505 84.36 217.416 103.763 217.416C105.96 208.675 113.926 202.413 123.009 202.413L125.944 202.413C130.564 202.413 135.01 204.595 137.837 208.249L144.928 217.416 165.185 217.416 163.834 213.137C162.545 209.05 163.834 204.63 167.119 201.876L167.282 201.766C167.466 201.664 185.884 191.371 192.625 170.116 194.583 162.757 195.981 160.538 197.599 157.97 201.026 152.531 207.262 150.607 209.525 150.07L209.525 128.618 204.589 128.618C204.477 128.617 204.245 128.611 203.904 128.584 203.689 128.566 203.423 128.567 203.115 128.567 200.507 128.563 195.082 128.557 191.667 120.929 187.557 111.565 181.172 103.213 173.2 96.767L172.72 96.379 174.808 86.791C174.847 86.654 176.388 81.582 173.743 79.861 171.201 78.213 166.917 79.747 163.136 81.101 162.629 81.281 162.132 81.46 161.647 81.628 160.258 82.11 157.005 83.366 152.24 85.262L151.915 85.391 151.58 85.289C148.568 84.374 145.466 83.676 142.362 83.215L142.655 81.236C145.742 81.695 148.825 82.38 151.825 83.274 156.503 81.415 159.586 80.227 160.992 79.738 161.471 79.572 161.962 79.396 162.461 79.218 166.68 77.707 171.461 75.995 174.833 78.185 178.75 80.731 176.824 87.036 176.74 87.304L174.936 95.603C182.933 102.194 189.342 110.658 193.496 120.118 196.378 126.559 200.762 126.563 203.117 126.567 203.489 126.567 203.808 126.569 204.064 126.59 204.334 126.611 204.52 126.617 204.6 126.618L211.525 126.618 211.525 151.729 210.689 151.869C210.612 151.882 202.953 153.225 199.344 158.952 197.697 161.566 196.438 163.565 194.545 170.676 187.796 191.958 169.809 202.624 168.335 203.467 165.724 205.702 164.707 209.251 165.743 212.535L167.914 219.416"/>
    <path fill="#FFF" d="M108.625,94.739 L108.001,92.839 L111.397,91.727 C112.488,91.371 113.467,91.109 114.393,90.928 C123.262,89.183 131.961,89.319 140.504,91.227 L145.439,92.509 L144.937,94.444 L140.036,93.171 C135.666,92.196 131.178,91.697 126.731,91.697 C122.823,91.697 118.801,92.099 114.779,92.891 C113.933,93.057 113.031,93.298 112.019,93.628 L108.625,94.739"/>
    <path fill="#475059" d="M107.968,92.971 L107.328,91.076 L109.833,90.228 C112.048,89.479 114.097,88.949 116.097,88.606 C124.339,87.189 132.776,87.439 140.974,89.332 L146.012,90.699 L145.489,92.629 L140.488,91.271 C132.61,89.454 124.416,89.209 116.435,90.577 C114.54,90.902 112.589,91.408 110.474,92.123 L107.968,92.971"/>
    <path fill="#48515A" d="M126.333,37.303 L126.226,37.645 C123.075,47.748 118.889,57.259 113.784,65.91 L112.105,68.73 C110.67,71.21 109.909,74.049 109.909,76.93 C109.909,81.409 111.774,85.715 115.043,88.819 C118.978,88.074 122.908,87.696 126.731,87.696 C130.347,87.696 134.052,88.03 137.75,88.689 C140.934,85.596 142.75,81.338 142.75,76.93 C142.75,74.05 141.99,71.212 140.55,68.724 L139.022,65.918 C133.72,56.934 129.488,47.422 126.438,37.645 L126.333,37.303 Z M114.441,90.975 L114.07,90.643 C110.155,87.138 107.909,82.14 107.909,76.93 C107.909,73.698 108.763,70.513 110.38,67.718 L112.063,64.891 C117.088,56.375 121.211,47.006 124.316,37.049 L126.333,30.584 L128.348,37.049 C131.351,46.68 135.521,56.05 140.742,64.898 L142.293,67.744 C143.897,70.515 144.75,73.699 144.75,76.93 C144.75,82.06 142.561,87.007 138.744,90.501 L138.376,90.838 L137.886,90.747 C134.141,90.05 130.388,89.696 126.731,89.696 C122.875,89.696 118.905,90.094 114.93,90.879 L114.441,90.975 Z"/>
    <path fill="#5FE0ED" d="M126.337,43.631 C123.404,51.884 119.771,59.699 115.506,66.927 L113.824,69.754 C112.578,71.907 111.909,74.4 111.909,76.93 C111.909,80.532 113.285,84.008 115.726,86.663 C122.911,85.418 129.898,85.383 137.043,86.54 C139.414,83.9 140.75,80.47 140.75,76.93 C140.75,74.401 140.083,71.91 138.819,69.725 L137.265,66.874 C132.892,59.466 129.222,51.659 126.337,43.631"/>
    <path fill="#48515A" d="M82.251,80.961 C79.597,89.424 76.081,97.393 71.798,104.649 L70.382,107.029 C69.187,109.097 68.551,111.465 68.551,113.867 C68.551,121.419 74.696,127.563 82.248,127.563 C89.801,127.563 95.946,121.419 95.946,113.867 C95.946,111.466 95.311,109.099 94.11,107.021 L92.819,104.651 C88.376,97.122 84.821,89.152 82.251,80.961 Z M82.248,129.563 C73.593,129.563 66.551,122.522 66.551,113.867 C66.551,111.113 67.28,108.398 68.658,106.017 L70.078,103.63 C74.313,96.454 77.787,88.561 80.401,80.175 L82.249,74.241 L84.101,80.175 C86.629,88.286 90.142,96.18 94.543,103.638 L95.854,106.042 C97.218,108.401 97.946,111.115 97.946,113.867 C97.946,122.522 90.904,129.563 82.248,129.563 Z"/>
    <path fill="#5FE0ED" d="M161.296,179.597 C154.846,179.597 149.599,174.35 149.599,167.899 C149.599,165.847 150.141,163.825 151.149,162.085 L152.569,159.699 C155.973,153.931 158.9,147.722 161.305,141.18 C163.668,147.526 166.621,153.718 170.131,159.678 L171.426,162.057 C172.451,163.827 172.993,165.848 172.993,167.899 C172.993,174.35 167.746,179.597 161.296,179.597"/>
    <path fill="#48515A" d="M161.298,134.993 C158.644,143.456 155.128,151.426 150.846,158.683 L149.43,161.062 C148.235,163.127 147.599,165.495 147.599,167.899 C147.599,175.452 153.744,181.597 161.296,181.597 C168.848,181.597 174.993,175.452 174.993,167.899 C174.993,165.496 174.358,163.129 173.158,161.055 L171.867,158.684 C167.423,151.154 163.868,143.185 161.298,134.993 Z M161.296,183.597 C152.641,183.597 145.599,176.555 145.599,167.899 C145.599,165.144 146.328,162.429 147.706,160.049 L149.125,157.663 C153.36,150.487 156.833,142.595 159.448,134.207 L161.299,128.273 L163.148,134.207 C165.676,142.318 169.189,150.212 173.589,157.67 L174.901,160.075 C176.265,162.432 176.993,165.145 176.993,167.899 C176.993,176.555 169.952,183.597 161.296,183.597 Z"/>
    <path fill="#5FE0ED" d="M82.258 87.147C79.853 93.689 76.925 99.898 73.521 105.666L72.101 108.052C71.093 109.794 70.551 111.815 70.551 113.867 70.551 120.316 75.798 125.563 82.248 125.563 88.699 125.563 93.946 120.316 93.946 113.867 93.946 111.816 93.404 109.796 92.378 108.021L91.063 105.608C87.585 99.717 84.629 93.519 82.258 87.147M212.25 164.164C212.25 165.269 211.355 166.164 210.25 166.164 209.146 166.164 208.25 165.269 208.25 164.164 208.25 163.059 209.146 162.164 210.25 162.164 211.355 162.164 212.25 163.059 212.25 164.164M163.177 49.895L162.632 48.895C160.796 45.782 159.252 42.377 158.128 38.774 157.005 42.377 155.509 45.782 153.673 48.895L153.076 49.898C152.579 50.756 152.293 51.752 152.293 52.815 152.293 56.037 154.905 58.649 158.127 58.649 161.349 58.649 163.961 56.037 163.961 52.815 163.961 51.751 163.675 50.754 163.177 49.895M99.177 61.395L98.632 60.395C96.796 57.282 95.252 53.877 94.128 50.274 93.005 53.877 91.509 57.282 89.673 60.395L89.076 61.398C88.579 62.256 88.293 63.252 88.293 64.315 88.293 67.537 90.905 70.149 94.127 70.149 97.349 70.149 99.961 67.537 99.961 64.315 99.961 63.251 99.675 62.254 99.177 61.395"/>
  </g>
</svg>
