<svg xmlns="http://www.w3.org/2000/svg" width="250" height="250" viewBox="0 0 250 250">
  <g fill="none" fill-rule="evenodd">
    <path fill="#5FE0ED" d="M122.975 184.997C122.975 189.415 119.393 192.997 114.975 192.997 110.556 192.997 106.975 189.415 106.975 184.997 106.975 189.415 103.393 192.997 98.975 192.997 94.556 192.997 90.975 189.415 90.975 184.997 90.975 189.415 87.393 192.997 82.975 192.997 78.556 192.997 74.975 189.415 74.975 184.997 74.975 189.252 71.649 192.722 67.455 192.972 75.222 200.633 85.72 205.528 97.24 205.966 109.6 206.428 121.313 201.983 130.204 193.424 130.355 193.279 130.495 193.126 130.643 192.979 126.38 192.805 122.975 189.303 122.975 184.997M153 187C153 188.105 152.104 189 151 189 149.895 189 149 188.105 149 187 149 185.895 149.895 185 151 185 152.104 185 153 185.895 153 187M155 143C155 144.105 154.104 145 153 145 151.895 145 151 144.105 151 143 151 141.895 151.895 141 153 141 154.104 141 155 141.895 155 143M201 157C201 158.105 200.104 159 199 159 197.895 159 197 158.105 197 157 197 155.895 197.895 155 199 155 200.104 155 201 155.895 201 157M71 107C71 108.105 70.104 109 69 109 67.895 109 67 108.105 67 107 67 105.895 67.895 105 69 105 70.104 105 71 105.895 71 107M73 60C73 61.657 71.657 63 70 63 68.343 63 67 61.657 67 60 67 58.343 68.343 57 70 57 71.657 57 73 58.343 73 60M55 99C55 100.105 55.895 101 57 101 58.104 101 59 100.105 59 99 59 97.895 58.104 97 57 97 55.895 97 55 97.895 55 99M205 143C205 144.105 204.104 145 203 145 201.895 145 201 144.105 201 143 201 141.895 201.895 141 203 141 204.104 141 205 141.895 205 143M161 163C161 161.895 160.104 161 159 161 157.895 161 157 161.895 157 163 157 164.105 157.895 165 159 165 160.104 165 161 164.105 161 163"/>
    <path fill="#475059" d="M179.166,83.871 L181.156,83.871 L181.156,51.111 C181.156,46.087 177.069,42 172.045,42 C167.021,42 162.933,46.087 162.933,51.111 L162.933,62.549 C162.933,66.476 159.738,69.67 155.812,69.67 C151.885,69.67 148.689,66.476 148.689,62.549 L148.689,51.111 C148.689,46.087 144.603,42 139.578,42 C134.554,42 130.466,46.088 130.466,51.112 L130.466,62.549 C130.466,66.476 127.271,69.67 123.345,69.67 C119.418,69.67 116.224,66.476 116.224,62.549 L116.224,51.112 C116.224,46.088 112.136,42 107.111,42 C102.087,42 98,46.088 98,51.112 L98,83.871 L99.99,83.871 L99.99,51.112 C99.99,47.186 103.185,43.99 107.111,43.99 C111.038,43.99 114.233,47.186 114.233,51.112 L114.233,62.549 C114.233,67.573 118.32,71.661 123.345,71.661 C128.369,71.661 132.457,67.573 132.457,62.549 L132.457,51.112 C132.457,47.186 135.651,43.99 139.578,43.99 C143.505,43.99 146.699,47.185 146.699,51.111 L146.699,62.549 C146.699,67.573 150.787,71.661 155.812,71.661 C160.836,71.661 164.923,67.573 164.923,62.549 L164.923,51.111 C164.923,47.185 168.118,43.99 172.045,43.99 C175.972,43.99 179.166,47.185 179.166,51.111 L179.166,83.871 Z M183.156,85.871 L177.166,85.871 L177.166,51.111 C177.166,48.287 174.869,45.99 172.045,45.99 C169.221,45.99 166.923,48.287 166.923,51.111 L166.923,62.549 C166.923,68.676 161.938,73.661 155.812,73.661 C149.685,73.661 144.699,68.676 144.699,62.549 L144.699,51.111 C144.699,48.287 142.402,45.99 139.578,45.99 C136.754,45.99 134.457,48.288 134.457,51.112 L134.457,62.549 C134.457,68.676 129.472,73.661 123.345,73.661 C117.218,73.661 112.233,68.676 112.233,62.549 L112.233,51.112 C112.233,48.288 109.936,45.99 107.111,45.99 C104.287,45.99 101.99,48.288 101.99,51.112 L101.99,85.871 L96,85.871 L96,51.112 C96,44.985 100.984,40 107.111,40 C113.238,40 118.224,44.985 118.224,51.112 L118.224,62.549 C118.224,65.373 120.521,67.67 123.345,67.67 C126.169,67.67 128.466,65.373 128.466,62.549 L128.466,51.112 C128.466,44.985 133.451,40 139.578,40 C145.705,40 150.689,44.984 150.689,51.111 L150.689,62.549 C150.689,65.373 152.987,67.67 155.812,67.67 C158.636,67.67 160.933,65.373 160.933,62.549 L160.933,51.111 C160.933,44.984 165.918,40 172.045,40 C178.172,40 183.156,44.984 183.156,51.111 L183.156,85.871 Z"/>
    <path fill="#475059" d="M94 100L104 100 104 86 94 86 94 100zM92 102L106 102 106 84 92 84 92 102zM175.002 100L185.002 100 185.002 86 175.002 86 175.002 100zM173.002 102L187.002 102 187.002 84 173.002 84 173.002 102z"/>
    <path fill="#475059" d="M87 94C86.448 94 86 94.448 86 95 86 95.552 86.448 96 87 96L90 96 90 114.861 89.207 115.029C66.515 119.84 50.893 140.194 52.062 163.43 53.27 187.486 73.082 207.049 97.164 207.965 110.07 208.449 122.306 203.804 131.592 194.864 140.883 185.92 146 173.894 146 161 146 138.933 130.352 119.599 108.793 115.029L108 114.861 108 96 111 96C111.552 96 112 95.552 112 95 112 94.448 111.552 94 111 94L87 94zM99.02 210C98.378 210 97.734 209.987 97.088 209.963 71.98 209.008 51.324 188.612 50.063 163.529 48.859 139.58 64.771 118.564 88 113.247L88 98 87 98C85.346 98 84 96.654 84 95 84 93.346 85.346 92 87 92L111 92C112.654 92 114 93.346 114 95 114 96.654 112.654 98 111 98L110 98 110 113.247C132.068 118.313 148 138.265 148 161 148 174.442 142.665 186.98 132.979 196.306 123.762 205.178 111.767 209.999 99.02 210zM167 94C166.448 94 166 94.448 166 95 166 95.552 166.448 96 167 96L170 96 170 195.635C170 201.251 174.401 205.899 179.813 205.998 182.483 206.054 185.075 205.032 187.005 203.136 188.937 201.24 190 198.706 190 196L190 96 193 96C193.552 96 194 95.552 194 95 194 94.448 193.552 94 193 94L167 94zM180.003 208C179.928 208 179.852 207.999 179.775 207.998 173.282 207.88 168 202.333 168 195.635L168 98 167 98C165.346 98 164 96.654 164 95 164 93.346 165.346 92 167 92L193 92C194.654 92 196 93.346 196 95 196 96.654 194.654 98 193 98L192 98 192 196C192 199.247 190.724 202.288 188.406 204.563 186.144 206.784 183.167 208 180.003 208z"/>
    <polyline fill="#475059" points="102 113.414 96 107.414 96 101 98 101 98 106.586 100 108.586 100 101 102 101 102 113.414"/>
    <polyline fill="#475059" points="182.999 113.414 176.999 107.414 176.999 101 178.999 101 178.999 106.586 180.999 108.586 180.999 101 182.999 101 182.999 113.414"/>
    <path fill="#FFD15D" d="M179 131C179 132.105 178.104 133 177 133 175.895 133 175 132.105 175 131 175 129.895 175.895 129 177 129 178.104 129 179 129.895 179 131M187 123C187 124.105 186.104 125 185 125 183.895 125 183 124.105 183 123 183 121.895 183.895 121 185 121 186.104 121 187 121.895 187 123M179 120C179 120.552 178.552 121 178 121 177.447 121 177 120.552 177 120 177 119.448 177.447 119 178 119 178.552 119 179 119.448 179 120M183 134C183 133.448 183.447 133 184 133 184.552 133 185 133.448 185 134 185 134.552 184.552 135 184 135 183.447 135 183 134.552 183 134M182 151C181.447 151 181 150.552 181 150 181 149.448 181.447 149 182 149 182.552 149 183 149.448 183 150 183 150.552 182.552 151 182 151zM182 173C181.447 173 181 172.552 181 172 181 171.448 181.447 171 182 171 182.552 171 183 171.448 183 172 183 172.552 182.552 173 182 173zM181 183C179.895 183 179 182.104 179 181 179 179.895 179.895 179 181 179 182.104 179 183 179.895 183 181 183 182.104 182.104 183 181 183zM179 197C177.895 197 177 196.104 177 195 177 193.895 177.895 193 179 193 180.104 193 181 193.895 181 195 181 196.104 180.104 197 179 197zM175 167C175 165.895 175.895 165 177 165 178.104 165 179 165.895 179 167 179 168.104 178.104 169 177 169 175.895 169 175 168.104 175 167zM176 143C176.552 143 177 143.448 177 144 177 144.552 176.552 145 176 145 175.447 145 175 144.552 175 144 175 143.448 175.447 143 176 143zM180 159C180.552 159 181 159.448 181 160 181 160.552 180.552 161 180 161 179.447 161 179 160.552 179 160 179 159.448 179.447 159 180 159zM172 139L172 195.635C172 200.168 175.521 203.92 179.849 203.999 182.019 204.042 184.06 203.225 185.604 201.709 187.149 200.192 188 198.165 188 196L188 139 172 139z"/>
    <polygon fill="#48515A" points="213 121.007 215 121.007 215 117.007 213 117.007"/>
    <polygon fill="#48515A" points="213 131.007 215 131.007 215 127.007 213 127.007"/>
    <polygon fill="#48515A" points="217 125.007 221 125.007 221 123.007 217 123.007"/>
    <polygon fill="#48515A" points="207 125.007 211 125.007 211 123.007 207 123.007"/>
    <polygon fill="#48515A" points="35 167 37 167 37 163 35 163"/>
    <polygon fill="#48515A" points="35 177 37 177 37 173 35 173"/>
    <polygon fill="#48515A" points="39 171 43 171 43 169 39 169"/>
    <polygon fill="#48515A" points="29 171 33 171 33 169 29 169"/>
    <polygon fill="#48515A" points="59 73 61 73 61 69 59 69"/>
    <polygon fill="#48515A" points="59 83 61 83 61 79 59 79"/>
    <polygon fill="#48515A" points="63 77 67 77 67 75 63 75"/>
    <polygon fill="#48515A" points="53 77 57 77 57 75 53 75"/>
    <polygon fill="#48515A" points="98.456 205.93 100.456 205.93 100.456 186.615 98.456 186.615"/>
    <path fill="#48515A" d="M99.339,121.412 L79.65,141.547 C72.92,148.277 72.92,159.215 79.643,165.938 L99.325,185.671 L119.52,165.527 C126.24,158.806 126.24,147.868 119.519,141.146 L99.339,121.412 Z M99.321,188.499 L78.228,167.351 C70.727,159.85 70.727,147.643 78.229,140.141 L99.308,118.584 L120.925,139.724 C128.434,147.233 128.434,159.44 120.933,166.942 L99.321,188.499 Z"/>
    <path fill="#5FE0ED" d="M85.58 150.609L85.35 150.609 85.35 148.609 85.58 148.609C91.052 148.609 95.83 151.593 98.406 156.011L98.406 125.221 80.802 143.224C74.837 149.19 74.837 158.858 80.779 164.801L98.405 182.472 98.405 163.014C98.169 156.135 92.515 150.609 85.58 150.609M113.323 148.643L113.553 148.643 113.553 150.643 113.323 150.643C109.891 150.643 106.665 151.978 104.239 154.405 101.811 156.832 100.476 160.058 100.476 163.49L100.405 163.49 100.405 181.771 117.829 164.389C123.769 158.449 123.769 148.78 117.826 142.838L100.405 125.803 100.405 156.184C101.059 155.031 101.862 153.953 102.824 152.991 105.629 150.186 109.358 148.642 113.323 148.643"/>
  </g>
</svg>
