<svg xmlns="http://www.w3.org/2000/svg" width="250" height="250" viewBox="0 0 250 250">
  <g fill="none" fill-rule="evenodd">
    <path fill="#5FE0ED" d="M124.903,60.25 C90.441,60.25 62.403,88.287 62.403,122.75 C62.403,157.213 90.441,185.25 124.903,185.25 C159.366,185.25 187.403,157.213 187.403,122.75 C187.403,88.287 159.366,60.25 124.903,60.25 Z M124.903,212.25 C75.553,212.25 35.403,172.101 35.403,122.75 C35.403,73.399 75.553,33.25 124.903,33.25 C174.254,33.25 214.403,73.399 214.403,122.75 C214.403,172.101 174.254,212.25 124.903,212.25 Z"/>
    <path fill="#FFD15D" d="M175.9,71.031 L121.44,71.031 L128.142,52.661 C128.691,51.104 130.208,50.031 131.9,50.031 L171.9,50.031 C174.106,50.031 175.9,51.825 175.9,54.031 L175.9,71.031 Z M173.15,47.496 L130.073,47.496 C127.955,47.496 126.059,48.838 125.355,50.837 L125.318,50.937 L117.438,71.023 L98.82,71.023 L71.656,89.613 L71.656,197.004 C71.656,199.761 73.899,202.004 76.656,202.004 L173.15,202.004 C175.907,202.004 178.15,199.761 178.15,197.004 L178.15,52.496 C178.15,49.739 175.907,47.496 173.15,47.496 Z"/>
    <path fill="#48515A" d="M69.656,88.559 L69.656,197.004 C69.656,200.863 72.797,204.004 76.656,204.004 L173.15,204.004 C177.01,204.004 180.15,200.863 180.15,197.004 L180.15,52.496 C180.15,48.637 177.01,45.496 173.15,45.496 L130.073,45.496 C127.107,45.496 124.453,47.376 123.469,50.174 L116.074,69.023 L98.202,69.023 L69.656,88.559 Z M173.15,206.004 L76.656,206.004 C71.693,206.004 67.656,201.967 67.656,197.004 L67.656,87.504 L97.583,67.023 L114.711,67.023 L121.595,49.477 C122.848,45.913 126.26,43.496 130.073,43.496 L173.15,43.496 C178.113,43.496 182.15,47.533 182.15,52.496 L182.15,197.004 C182.15,201.967 178.113,206.004 173.15,206.004 Z"/>
    <path fill="#48515A" d="M127.156,67.031 L171.9,67.031 L171.9,54.031 L131.9,54.031 L131.807,54.28 L127.156,67.031 Z M173.9,69.031 L124.299,69.031 L130.018,53.354 C130.295,52.568 131.054,52.031 131.9,52.031 L171.9,52.031 C173.003,52.031 173.9,52.929 173.9,54.031 L173.9,69.031 Z"/>
    <polyline fill="#48515A" points="73.048 84.967 69.672 80.07 89.318 66.523 92.724 71.464 91.077 72.599 88.807 69.305 72.453 80.582 74.694 83.832 73.048 84.967"/>
    <polyline fill="#48515A" points="73.667 78.756 69.484 72.689 82.598 63.647 86.78 69.715 85.134 70.85 82.086 66.429 72.266 73.2 75.313 77.621 73.667 78.756"/>
    <path fill="#48515A" d="M119.9 163.03L107.903 163.03C104.044 163.03 100.903 159.89 100.903 156.03L100.903 122.03C100.903 118.171 104.044 115.03 107.903 115.03L119.733 115.03 119.733 117.03 107.903 117.03C105.146 117.03 102.903 119.273 102.903 122.03L102.903 156.03C102.903 158.787 105.146 161.03 107.903 161.03L119.9 161.03 119.9 163.03M141.903 163.03L129.9 163.03 129.9 161.03 141.903 161.03C144.66 161.03 146.903 158.787 146.903 156.03L146.903 122.03C146.903 119.273 144.66 117.03 141.903 117.03L129.9 117.03 129.9 115.03 141.903 115.03C145.763 115.03 148.903 118.171 148.903 122.03L148.903 156.03C148.903 159.89 145.763 163.03 141.903 163.03"/>
    <polyline fill="#48515A" points="150.754 114.552 149.047 113.509 171.047 77.509 172.754 78.552 150.754 114.552"/>
    <polyline fill="#48515A" points="171.076 196.598 149.076 164.597 150.725 163.464 172.725 195.465 171.076 196.598"/>
    <polyline fill="#48515A" points="99.047 114.552 83.16 88.557 84.867 87.514 100.754 113.509 99.047 114.552"/>
    <polyline fill="#48515A" points="78.725 196.598 77.076 195.465 99.076 163.464 100.725 164.597 78.725 196.598"/>
    <path fill="#48515A" d="M124.884,117.351 L111.575,130.962 C109.39,133.148 108.19,136.044 108.19,139.125 C108.19,142.205 109.39,145.102 111.568,147.279 L124.871,160.617 L138.524,146.997 C143.02,142.501 143.02,135.185 138.522,130.688 L124.884,117.351 Z M124.867,163.445 L110.153,148.692 C107.599,146.138 106.19,142.739 106.19,139.125 C106.19,135.51 107.598,132.111 110.153,129.556 L124.853,114.522 L139.929,129.266 C145.214,134.55 145.214,143.136 139.938,148.412 L124.867,163.445 Z"/>
    <path fill="#FFF" d="M134.379 137.438L134.396 135.438 134.379 135.438C131.007 135.438 128.015 137.067 126.13 139.575L126.13 121.366 137.132 132.125C140.825 135.818 140.824 141.867 137.11 145.584L126.13 156.536 126.13 144.645C126.683 140.582 130.166 137.438 134.379 137.438M123.964 139.565C122.079 137.054 119.086 135.423 115.712 135.423L115.696 137.423 115.712 137.423C119.932 137.423 123.422 140.58 123.964 144.654L123.964 156.874 112.986 145.869C109.265 142.146 109.266 136.1 112.982 132.383L123.964 121.153 123.964 139.565"/>
    <polygon fill="#48515A" points="34.946 160.805 36.946 160.805 36.946 156.805 34.946 156.805"/>
    <polygon fill="#48515A" points="34.946 170.805 36.946 170.805 36.946 166.805 34.946 166.805"/>
    <polygon fill="#48515A" points="38.946 164.805 42.946 164.805 42.946 162.805 38.946 162.805"/>
    <polygon fill="#48515A" points="28.946 164.805 32.946 164.805 32.946 162.805 28.946 162.805"/>
    <polygon fill="#48515A" points="213.054 180.816 215.054 180.816 215.054 176.816 213.054 176.816"/>
    <polygon fill="#48515A" points="213.054 190.816 215.054 190.816 215.054 186.816 213.054 186.816"/>
    <polygon fill="#48515A" points="217.054 184.816 221.054 184.816 221.054 182.816 217.054 182.816"/>
    <polygon fill="#48515A" points="207.054 184.816 211.054 184.816 211.054 182.816 207.054 182.816"/>
    <polygon fill="#48515A" points="82.976 40.732 84.976 40.732 84.976 36.732 82.976 36.732"/>
    <polygon fill="#48515A" points="82.976 50.732 84.976 50.732 84.976 46.732 82.976 46.732"/>
    <polygon fill="#48515A" points="86.976 44.732 90.976 44.732 90.976 42.732 86.976 42.732"/>
    <polygon fill="#48515A" points="76.976 44.732 80.976 44.732 80.976 42.732 76.976 42.732"/>
    <path fill="#FFD15D" d="M194.903 144.75C194.903 145.855 194.008 146.75 192.903 146.75 191.799 146.75 190.903 145.855 190.903 144.75 190.903 143.645 191.799 142.75 192.903 142.75 194.008 142.75 194.903 143.645 194.903 144.75M208.903 131.75C208.903 132.302 208.456 132.75 207.903 132.75 207.351 132.75 206.903 132.302 206.903 131.75 206.903 131.198 207.351 130.75 207.903 130.75 208.456 130.75 208.903 131.198 208.903 131.75M194.903 180.75C194.903 181.855 194.008 182.75 192.903 182.75 191.799 182.75 190.903 181.855 190.903 180.75 190.903 179.645 191.799 178.75 192.903 178.75 194.008 178.75 194.903 179.645 194.903 180.75M56.903 108.75C56.903 109.855 56.008 110.75 54.903 110.75 53.799 110.75 52.903 109.855 52.903 108.75 52.903 107.645 53.799 106.75 54.903 106.75 56.008 106.75 56.903 107.645 56.903 108.75M42.903 184.75C42.903 185.855 42.008 186.75 40.903 186.75 39.799 186.75 38.903 185.855 38.903 184.75 38.903 183.645 39.799 182.75 40.903 182.75 42.008 182.75 42.903 183.645 42.903 184.75M194.903 50.75C194.903 51.855 194.008 52.75 192.903 52.75 191.799 52.75 190.903 51.855 190.903 50.75 190.903 49.645 191.799 48.75 192.903 48.75 194.008 48.75 194.903 49.645 194.903 50.75M128.903 213.75C128.903 215.407 127.56 216.75 125.903 216.75 124.246 216.75 122.903 215.407 122.903 213.75 122.903 212.093 124.246 210.75 125.903 210.75 127.56 210.75 128.903 212.093 128.903 213.75"/>
  </g>
</svg>
