<svg xmlns="http://www.w3.org/2000/svg" width="250" height="250" viewBox="0 0 250 250">
  <g fill="none" fill-rule="evenodd">
    <path fill="#DEDEDD" d="M114.131,155.918 C112.49,152.694 110.241,149.817 107.508,147.446 C96.593,138.004 80.401,138.004 69.486,147.446 C69.12,147.765 68.767,148.093 68.42,148.427 C65.606,151.013 63.343,154.141 61.769,157.623 C59.449,162.854 59.376,168.806 61.567,174.092 C62.588,176.576 62.285,179.408 60.762,181.619 L57.439,186.42 C56.78,187.211 56.887,188.386 57.679,189.045 C57.857,189.194 58.061,189.307 58.281,189.381 L60.769,190.21 C61.167,190.342 61.436,190.716 61.436,191.136 C61.453,191.66 61.26,192.169 60.901,192.551 L60.754,192.697 L60.754,193.671 C60.756,194.466 61.357,195.132 62.147,195.215 C62.11,195.652 62.123,196.093 62.188,196.527 C62.369,197.062 62.717,197.525 63.18,197.848 C63.517,198.128 63.654,198.261 63.654,198.456 L63.663,201.643 C63.671,203.982 65.565,205.874 67.903,205.88 L75.217,205.88 C76.549,205.875 77.64,206.937 77.672,208.268 L76.192,219.862 L76.192,220.999 L101.737,221 L101.737,217.952 C101.741,204.922 109.847,189.227 113.742,181.685 C118.005,173.658 118.15,164.07 114.131,155.918"/>
    <path fill="#F58E70" d="M82.755,36.506 L105.503,36.506 L105.503,57.504 L82.755,57.504 C68.817,57.519 57.523,68.814 57.507,82.751 C57.507,82.836 57.519,82.918 57.52,83.002 L36.516,83.002 C36.515,82.918 36.509,82.835 36.509,82.751 C36.539,57.223 57.226,36.535 82.755,36.506"/>
    <polygon fill="#DEDEDD" points="105.503 57.504 117.502 57.504 117.502 36.506 105.503 36.506"/>
    <polygon fill="#DEDEDD" points="105.503 128.998 117.502 128.998 117.502 108 105.503 108"/>
    <path fill="#5FE0ED" d="M82.755,108 L105.503,108 L105.503,128.998 L82.755,128.998 C57.325,128.968 36.68,108.431 36.516,83.002 L57.52,83.002 C57.668,96.838 68.918,107.982 82.755,108"/>
    <path fill="#F58E70" d="M128.002,172.119 C127.994,165.15 122.347,159.503 115.378,159.495 L102.504,159.495 L102.504,148.996 L115.378,148.996 C128.142,149.011 138.486,159.355 138.501,172.119 C138.501,172.161 138.498,172.202 138.497,172.244 L127.995,172.244 C127.996,172.202 128.002,172.161 128.002,172.119"/>
    <polygon fill="#FFF" points="96.504 159.495 102.504 159.495 102.504 148.996 96.504 148.996"/>
    <polygon fill="#FFF" points="96.504 195.242 102.504 195.242 102.504 184.743 96.504 184.743"/>
    <path fill="#5FE0ED" d="M127.995,172.244 L138.497,172.244 C138.415,184.959 128.093,195.227 115.378,195.242 L102.504,195.242 L102.504,184.743 L115.378,184.743 C122.296,184.734 127.921,179.163 127.995,172.244"/>
    <path fill="#48515A" d="M163.009,221.121 L162.681,218.436 L159.184,191.073 C159.188,186.671 162.755,183.104 167.157,183.099 L187.924,183.099 C192.245,183.087 195.747,179.589 195.762,175.267 L195.78,167.733 C195.787,166.645 196.125,165.585 196.749,164.693 C197.155,164.062 197.473,163.378 197.694,162.661 C197.717,162.202 197.698,160.058 197.666,158.143 L197.659,157.73 L200.811,154.455 L199.278,151.39 L199.278,151.154 C199.274,149.179 200.497,147.41 202.346,146.716 L202.5,146.665 L207.004,146.665 C208.175,146.704 209.303,146.224 210.087,145.353 C211.05,144.232 211.267,142.65 210.643,141.31 C208.237,136.158 202.332,123.149 199.465,113.666 C198.878,111.78 198.595,109.812 198.627,107.837 L198.623,89.565 C198.622,84.749 197.954,79.956 196.638,75.324 C194.553,67.71 190.71,60.693 185.418,54.835 C184.244,53.565 183.001,52.323 181.724,51.144 C180.817,50.271 180.019,49.537 179.266,48.883 C154.3,27.286 117.266,27.286 92.3,48.883 C86.054,54.299 80.915,60.873 77.166,68.242 C67.982,86.217 68.325,108.228 78.082,127.119 C87.445,145.249 94.249,181.673 94.261,213.725 L94.376,220.984 L92.376,221.016 L92.261,213.741 C92.249,181.955 85.539,145.917 76.305,128.037 C66.253,108.574 65.909,85.88 75.385,67.332 C79.25,59.734 84.549,52.957 90.989,47.373 C116.707,25.123 154.858,25.123 180.576,47.373 C181.355,48.049 182.18,48.806 183.096,49.689 C184.396,50.889 185.677,52.168 186.887,53.478 C192.376,59.543 196.366,66.81 198.538,74.697 C199.918,79.532 200.62,84.536 200.623,89.565 L200.627,107.86 C200.598,109.631 200.852,111.396 201.379,113.087 C204.209,122.447 210.067,135.351 212.455,140.464 C213.413,142.508 213.087,144.923 211.62,146.638 C210.457,147.963 208.767,148.706 207.004,148.665 L202.842,148.665 C201.953,149.088 201.36,149.955 201.287,150.936 L203.23,154.824 L199.673,158.522 C199.741,162.788 199.688,162.972 199.64,163.136 C199.371,164.048 198.976,164.918 198.465,165.721 C198.027,166.304 197.787,167.012 197.78,167.741 L197.762,175.273 C197.742,180.696 193.347,185.085 187.924,185.099 L167.157,185.099 C163.883,185.103 161.221,187.738 161.184,191.012 L164.993,220.879 L163.009,221.121"/>
    <polyline fill="#2B2B2B" points="194.354 161.614 194.357 161.604 194.354 161.614"/>
    <polygon fill="#48515A" points="212.972 171.006 214.972 171.006 214.972 167.006 212.972 167.006"/>
    <polygon fill="#48515A" points="212.972 181.006 214.972 181.006 214.972 177.006 212.972 177.006"/>
    <polygon fill="#48515A" points="216.972 175.006 220.972 175.006 220.972 173.006 216.972 173.006"/>
    <polygon fill="#48515A" points="206.972 175.006 210.972 175.006 210.972 173.006 206.972 173.006"/>
    <polygon fill="#48515A" points="160.94 80.952 162.94 80.952 162.94 76.952 160.94 76.952"/>
    <polygon fill="#48515A" points="160.94 90.952 162.94 90.952 162.94 86.952 160.94 86.952"/>
    <polygon fill="#48515A" points="164.94 84.952 168.94 84.952 168.94 82.952 164.94 82.952"/>
    <polygon fill="#48515A" points="154.94 84.952 158.94 84.952 158.94 82.952 154.94 82.952"/>
    <polygon fill="#48515A" points="34.976 137.021 36.976 137.021 36.976 133.021 34.976 133.021"/>
    <polygon fill="#48515A" points="34.976 147.021 36.976 147.021 36.976 143.021 34.976 143.021"/>
    <polygon fill="#48515A" points="38.976 141.021 42.976 141.021 42.976 139.021 38.976 139.021"/>
    <polygon fill="#48515A" points="28.976 141.021 32.976 141.021 32.976 139.021 28.976 139.021"/>
    <path fill="#48515A" d="M54.994,164.036 C53.337,164.036 51.994,165.379 51.994,167.036 C51.994,168.693 53.337,170.036 54.994,170.036 L90.147,170.036 L96.653,167.036 L90.147,164.036 L54.994,164.036 Z M90.586,172.036 L54.994,172.036 C52.233,172.036 49.994,169.798 49.994,167.036 C49.994,164.275 52.233,162.036 54.994,162.036 L90.585,162.036 L101.429,167.036 L90.586,172.036 Z"/>
    <polygon fill="#48515A" points="60.974 171.036 62.974 171.036 62.974 163.036 60.974 163.036"/>
    <polygon fill="#48515A" points="61.974 168.036 89.974 168.036 89.974 166.036 61.974 166.036"/>
    <path fill="#48515A" d="M137.242,47.959 C131.31,47.959 126.501,52.768 126.501,58.7 C126.501,64.632 131.31,69.441 137.242,69.441 C143.174,69.441 147.983,64.632 147.983,58.7 C147.977,52.771 143.172,47.965 137.242,47.959 Z M137.242,71.441 C130.205,71.441 124.501,65.737 124.501,58.7 C124.501,51.663 130.205,45.959 137.242,45.959 C144.279,45.959 149.983,51.663 149.983,58.7 C149.976,65.734 144.276,71.434 137.242,71.441 Z"/>
    <path fill="#48515A" d="M137.241,47.959 C134.356,47.959 131.919,52.878 131.919,58.7 C131.919,64.522 134.356,69.441 137.241,69.441 C140.126,69.441 142.563,64.522 142.563,58.7 C142.563,52.878 140.126,47.959 137.241,47.959 Z M137.241,71.441 C133.136,71.441 129.919,65.845 129.919,58.7 C129.919,51.556 133.136,45.959 137.241,45.959 C141.347,45.959 144.563,51.556 144.563,58.7 C144.563,65.845 141.347,71.441 137.241,71.441 Z"/>
    <polygon fill="#48515A" points="125.795 60.151 148.795 60.151 148.795 58.151 125.795 58.151"/>
    <polyline fill="#DEDEDD" points="189.903 132.042 174.339 125.371 171.665 126.975 179.897 135.207 177.069 138.035 168.958 129.924 167.334 133.191 174.131 149.651 178.964 139.931 187.075 148.042 189.903 145.213 181.671 136.981 189.903 132.042"/>
    <path fill="#48515A" d="M153.758,111.92 L164.209,137.23 L168.682,128.234 L177.069,136.621 L178.483,135.207 L170.053,126.776 L177.706,122.184 L153.758,111.92 Z M164.041,142.061 L150.037,108.15 L182.089,121.886 L173.277,127.173 L181.311,135.207 L177.069,139.449 L169.234,131.615 L164.041,142.061 Z"/>
  </g>
</svg>
