<svg xmlns="http://www.w3.org/2000/svg" width="250" height="250" viewBox="0 0 250 250">
  <g fill="none" fill-rule="evenodd">
    <path fill="#FFD15D" d="M70.969 82.525C80.91 82.525 88.969 90.584 88.969 100.525 88.969 110.466 80.91 118.525 70.969 118.525 61.028 118.525 52.969 110.466 52.969 100.525 52.969 90.584 61.028 82.525 70.969 82.525M181.035 32.495C190.977 32.495 199.035 40.554 199.035 50.495 199.035 60.436 190.977 68.495 181.035 68.495 171.094 68.495 163.035 60.436 163.035 50.495 163.035 40.554 171.094 32.495 181.035 32.495"/>
    <path fill="#48515A" d="M183.529,57.469 L177.971,57.469 C176.205,57.462 174.778,56.027 174.78,54.261 L176.78,54.261 C176.776,54.923 177.309,55.463 177.971,55.469 L183.529,55.469 C184.366,55.463 185.04,54.782 185.037,53.945 L185.037,52.995 C185.036,52.162 184.362,51.488 183.529,51.486 L178.048,51.486 C176.111,51.484 174.542,49.915 174.54,47.978 L174.54,47.027 C174.542,45.09 176.111,43.521 178.048,43.519 L183.939,43.519 C185.467,43.52 186.705,44.758 186.707,46.286 L184.707,46.286 C184.706,45.863 184.363,45.52 183.939,45.519 L178.048,45.519 C177.215,45.52 176.541,46.194 176.54,47.027 L176.54,47.978 C176.541,48.811 177.215,49.485 178.048,49.486 L183.529,49.486 C185.466,49.488 187.035,51.058 187.037,52.995 L187.037,53.945 C187.039,55.886 185.47,57.462 183.529,57.469"/>
    <polygon fill="#48515A" points="180.069 59.495 182.069 59.495 182.069 41.495 180.069 41.495"/>
    <path fill="#5FE0ED" d="M65.768 43.421C67.977 43.421 69.768 45.212 69.768 47.422 69.768 49.631 67.977 51.421 65.768 51.421 63.559 51.421 61.768 49.631 61.768 47.422 61.768 45.212 63.559 43.421 65.768 43.421M171.973 161.065C174.182 161.065 175.973 162.856 175.973 165.065 175.973 167.274 174.182 169.065 171.973 169.065 169.764 169.065 167.973 167.274 167.973 165.065 167.973 162.856 169.764 161.065 171.973 161.065"/>
    <path fill="#FFD15D" d="M100.501,180.005 L148.501,180.005 L148.501,183.422 C148.501,191.476 141.972,198.005 133.919,198.005 L115.084,198.005 C107.03,198.005 100.501,191.476 100.501,183.422 L100.501,180.005"/>
    <path fill="#FFD15D" d="M101.001,180.505 L101.001,183.422 C101.001,191.188 107.623,197.505 115.763,197.505 L133.763,197.505 C141.409,197.72 147.782,191.696 147.997,184.05 C148.003,183.841 148.005,183.631 148.001,183.422 L148.001,180.505 L101.001,180.505 Z M133.763,198.505 L115.763,198.505 C107.071,198.505 100.001,191.739 100.001,183.422 L100.001,179.505 L149.001247,179.505 L149.001,183.422 C149.048,191.706 142.37,198.46 134.086,198.507 C133.978,198.507 133.87,198.507 133.763,198.505 Z"/>
    <polygon fill="#DEDEDD" points="96.001 177.505 152.001 177.505 152.001 169.505 96.001 169.505"/>
    <path fill="#DEDEDD" d="M97.001,176.505 L151.001,176.505 L151.001,170.505 L97.001,170.505 L97.001,176.505 Z M95.001,178.505 L153.001,178.505 L153.001,168.505 L95.001,168.505 L95.001,178.505 Z"/>
    <polygon fill="#48515A" points="92.001 170.505 156.001 170.505 156.001 168.505 92.001 168.505"/>
    <path fill="#48515A" d="M136.274,202.505 L114.979,202.505 C110.071,202.489 105.362,200.563 101.85,197.134 L101.847,197.133 L101.634,196.967 C98.097,193.49 96.073,188.759 96.001,183.8 L96.001,177.505 L98.001,177.505 L98.001,183.8 C98.07,188.17 99.837,192.342 102.929,195.433 L103.137,195.595 C106.284,198.726 110.539,200.491 114.979,200.505 L136.023,200.505 C139.338,199.655 143.081,198.399 145.885,195.595 L146.11,195.369 L146.229,195.349 C149.245,192.255 150.954,188.12 151.001,183.8 L151.001,177.505 L153.001,177.505 L153.001,183.8 C152.949,188.758 150.945,193.497 147.423,196.988 L147.197,197.213 L147.067,197.235 C143.921,200.255 139.916,201.579 136.395,202.474 L136.274,202.505"/>
    <polygon fill="#48515A" points="92.001 174.505 156.001 174.505 156.001 172.505 92.001 172.505"/>
    <polygon fill="#48515A" points="92.001 178.505 156.001 178.505 156.001 176.505 92.001 176.505"/>
    <path fill="#48515A" d="M198.845,142.392 C196.636,142.392 194.845,144.183 194.845,146.392 C194.845,148.601 196.636,150.392 198.845,150.392 C201.054,150.392 202.845,148.601 202.845,146.392 C202.842,144.183 201.053,142.394 198.845,142.392 Z M198.845,152.392 C195.531,152.392 192.845,149.705 192.845,146.392 C192.845,143.078 195.531,140.392 198.845,140.392 C202.158,140.392 204.845,143.078 204.845,146.392 C204.841,149.704 202.157,152.388 198.845,152.392 Z"/>
    <polygon fill="#48515A" points="213.007 78.504 215.007 78.504 215.007 74.504 213.007 74.504"/>
    <polygon fill="#48515A" points="213.007 88.504 215.007 88.504 215.007 84.504 213.007 84.504"/>
    <polygon fill="#48515A" points="217.007 82.504 221.007 82.504 221.007 80.504 217.007 80.504"/>
    <polygon fill="#48515A" points="207.007 82.504 211.007 82.504 211.007 80.504 207.007 80.504"/>
    <polygon fill="#48515A" points="34.993 137.517 36.993 137.517 36.993 133.517 34.993 133.517"/>
    <polygon fill="#48515A" points="34.993 147.517 36.993 147.517 36.993 143.517 34.993 143.517"/>
    <polygon fill="#48515A" points="38.993 141.517 42.993 141.517 42.993 139.517 38.993 139.517"/>
    <polygon fill="#48515A" points="28.993 141.517 32.993 141.517 32.993 139.517 28.993 139.517"/>
    <path fill="#48515A" d="M38.763,76.415 C37.658,76.415 36.763,77.311 36.763,78.415 C36.763,79.52 37.658,80.415 38.763,80.415 C39.867,80.415 40.763,79.52 40.763,78.415 C40.761,77.311 39.867,76.417 38.763,76.415 Z M38.763,82.415 C36.554,82.415 34.763,80.625 34.763,78.415 C34.763,76.206 36.554,74.415 38.763,74.415 C40.972,74.415 42.763,76.206 42.763,78.415 C42.76,80.624 40.971,82.413 38.763,82.415 Z"/>
    <polygon fill="#48515A" points="154.001 207.505 156.001 207.505 156.001 203.505 154.001 203.505"/>
    <polygon fill="#48515A" points="154.001 217.505 156.001 217.505 156.001 213.505 154.001 213.505"/>
    <polygon fill="#48515A" points="158.001 211.505 162.001 211.505 162.001 209.505 158.001 209.505"/>
    <polygon fill="#48515A" points="148.001 211.505 152.001 211.505 152.001 209.505 148.001 209.505"/>
    <polygon fill="#48515A" points="121.001 209.505 123.001 209.505 123.001 201.505 121.001 201.505"/>
    <polygon fill="#48515A" points="127.001 209.505 129.001 209.505 129.001 201.505 127.001 201.505"/>
    <path fill="#48515A" d="M122 213.51C121.733 213.507 121.478 213.399 121.29 213.21 121.109 213.021 121.005 212.771 121 212.51 121.002 212.376 121.029 212.243 121.08 212.12 121.129 212 121.2 211.892 121.29 211.8 121.578 211.518 122.005 211.431 122.38 211.58 122.506 211.626 122.619 211.701 122.71 211.8 122.8 211.892 122.871 212 122.92 212.12 122.976 212.242 123.003 212.375 123 212.51 123.003 212.641 122.976 212.771 122.92 212.89 122.871 213.009 122.8 213.118 122.71 213.21 122.522 213.399 122.267 213.507 122 213.51M128 213.51C127.445 213.506 126.998 213.055 127 212.5 127.002 212.238 127.106 211.986 127.29 211.8 127.337 211.754 127.387 211.71 127.439 211.67 127.5 211.64 127.559 211.61 127.62 211.58 127.68 211.56 127.74 211.54 127.809 211.52 128.137 211.463 128.472 211.567 128.71 211.8 129.099 212.195 129.094 212.831 128.699 213.221 128.512 213.405 128.262 213.508 128 213.51M122 217.51C121.445 217.506 120.998 217.055 121 216.5 121.002 216.238 121.106 215.986 121.29 215.8 121.578 215.518 122.005 215.431 122.38 215.58 122.504 215.629 122.616 215.704 122.71 215.8 123.097 216.19 123.097 216.82 122.71 217.21 122.616 217.305 122.504 217.38 122.38 217.43 122.26 217.481 122.131 217.508 122 217.51M128 217.51C127.445 217.506 126.998 217.055 127 216.5 127.002 216.369 127.029 216.24 127.08 216.12 127.129 216 127.2 215.892 127.29 215.8 127.337 215.754 127.387 215.71 127.439 215.67 127.5 215.64 127.56 215.61 127.62 215.58 127.68 215.56 127.74 215.54 127.81 215.52 128.137 215.463 128.472 215.567 128.71 215.8 128.8 215.892 128.871 216 128.92 216.12 128.976 216.238 129.003 216.369 129 216.5 129 216.766 128.896 217.02 128.71 217.21 128.523 217.401 128.267 217.509 128 217.51M120.88 35.42C120.86 34.871 121.289 34.41 121.838 34.39 121.839 34.39 121.839 34.39 121.84 34.39 122.387 34.368 122.848 34.795 122.87 35.343 122.87 35.348 122.87 35.354 122.87 35.36 122.889 35.909 122.46 36.37 121.91 36.39L121.87 36.39C121.331 36.391 120.89 35.959 120.88 35.42zM125.85 36.39C125.304 36.374 124.874 35.919 124.889 35.373 124.889 35.368 124.889 35.364 124.89 35.36 124.908 34.808 125.368 34.375 125.92 34.39L125.92 34.4C126.471 34.418 126.904 34.878 126.89 35.43 126.868 35.966 126.426 36.39 125.89 36.39L125.85 36.39zM116.88 35.75C116.823 35.205 117.22 34.718 117.764 34.661 117.77 34.661 117.775 34.66 117.78 34.66 118.324 34.602 118.812 34.997 118.869 35.541 118.87 35.544 118.87 35.547 118.87 35.55 118.92 36.1 118.519 36.59 117.97 36.65L117.87 36.65C117.358 36.649 116.93 36.26 116.88 35.75zM129.79 36.66C129.239 36.603 128.836 36.112 128.89 35.56 128.947 35.011 129.439 34.612 129.988 34.67 129.989 34.67 129.99 34.67 129.99 34.67 130.535 34.723 130.934 35.208 130.881 35.753 130.88 35.755 130.88 35.758 130.88 35.76 130.829 36.273 130.395 36.663 129.88 36.66L129.79 36.66zM112.91 36.34C112.822 35.793 113.193 35.279 113.739 35.19 113.74 35.19 113.74 35.19 113.74 35.19 114.283 35.105 114.794 35.469 114.89 36.01 114.98 36.554 114.612 37.068 114.068 37.158 114.065 37.159 114.063 37.159 114.06 37.16 114.007 37.172 113.953 37.178 113.899 37.18 113.409 37.178 112.991 36.823 112.91 36.34zM133.689 37.18C133.147 37.086 132.782 36.573 132.87 36.03 132.96 35.487 133.472 35.12 134.014 35.209 134.016 35.209 134.018 35.21 134.02 35.21 134.557 35.292 134.927 35.795 134.844 36.332 134.843 36.342 134.841 36.351 134.84 36.36 134.762 36.84 134.346 37.192 133.859 37.19 133.803 37.191 133.746 37.188 133.689 37.18zM108.99 37.2C108.868 36.659 109.202 36.121 109.74 35.99 110.278 35.871 110.811 36.204 110.939 36.74 111.067 37.274 110.738 37.811 110.204 37.939 110.202 37.939 110.201 37.94 110.2 37.94 110.125 37.959 110.047 37.969 109.97 37.97 109.504 37.971 109.098 37.653 108.99 37.2zM137.56 37.96C137.021 37.836 136.685 37.299 136.809 36.761 136.809 36.761 136.809 36.76 136.81 36.76 136.938 36.222 137.477 35.891 138.015 36.019 138.016 36.019 138.018 36.02 138.02 36.02 138.555 36.146 138.886 36.682 138.76 37.217 138.76 37.218 138.76 37.219 138.76 37.22 138.653 37.669 138.252 37.988 137.79 37.99 137.712 37.99 137.635 37.98 137.56 37.96zM105.14 38.31C104.98 37.783 105.275 37.226 105.8 37.06 106.327 36.9 106.884 37.195 107.05 37.72 107.216 38.249 106.922 38.813 106.393 38.979 106.392 38.979 106.391 38.98 106.39 38.98 106.296 39.009 106.198 39.022 106.1 39.02 105.659 39.02 105.269 38.732 105.14 38.31zM141.359 39.01C140.835 38.844 140.541 38.287 140.7 37.76 140.862 37.233 141.42 36.937 141.947 37.099 141.948 37.099 141.949 37.099 141.95 37.1 142.477 37.262 142.772 37.82 142.61 38.346 142.61 38.348 142.61 38.349 142.609 38.35 142.481 38.766 142.096 39.05 141.66 39.05 141.559 39.051 141.457 39.038 141.359 39.01zM101.37 39.69C101.171 39.177 101.426 38.599 101.939 38.4 102.456 38.201 103.036 38.455 103.24 38.97 103.434 39.489 103.176 40.068 102.66 40.27 102.544 40.309 102.422 40.33 102.3 40.33 101.887 40.332 101.516 40.077 101.37 39.69zM145.08 40.3C144.568 40.1 144.313 39.523 144.51 39.01 144.705 38.498 145.279 38.241 145.791 38.437 145.794 38.438 145.797 38.439 145.8 38.44 146.315 38.637 146.574 39.214 146.38 39.73 146.227 40.116 145.854 40.369 145.439 40.37 145.316 40.371 145.194 40.347 145.08 40.3zM97.7 41.32C97.467 40.821 97.682 40.227 98.181 39.994 98.184 39.992 98.187 39.991 98.189 39.99 98.689 39.76 99.28 39.979 99.509 40.479L99.51 40.48C99.743 40.975 99.53 41.564 99.036 41.797 99.034 41.798 99.032 41.799 99.03 41.8L99.03 41.81C98.898 41.868 98.754 41.899 98.609 41.9 98.22 41.898 97.866 41.672 97.7 41.32zM148.71 41.84C148.21 41.611 147.991 41.02 148.22 40.52 148.451 40.018 149.045 39.798 149.547 40.029 149.548 40.029 149.549 40.029 149.55 40.03 150.05 40.263 150.269 40.857 150.04 41.36 149.872 41.711 149.519 41.936 149.13 41.94 148.984 41.941 148.84 41.907 148.71 41.84zM94.149 43.19C93.882 42.707 94.056 42.098 94.539 41.83 94.54 41.83 94.54 41.83 94.54 41.83 95.02 41.563 95.625 41.736 95.892 42.216 95.894 42.22 95.897 42.225 95.899 42.23 96.165 42.704 95.996 43.303 95.522 43.568 95.515 43.572 95.507 43.576 95.5 43.58 95.355 43.667 95.189 43.712 95.02 43.71 94.656 43.708 94.323 43.509 94.149 43.19zM152.22 43.63C151.735 43.363 151.557 42.756 151.819 42.27 152.081 41.785 152.686 41.603 153.171 41.865 153.174 41.867 153.177 41.868 153.18 41.87 153.664 42.136 153.843 42.743 153.58 43.23 153.401 43.548 153.065 43.746 152.7 43.75 152.533 43.749 152.368 43.708 152.22 43.63zM90.729 45.29C90.432 44.826 90.566 44.208 91.03 43.91 91.494 43.611 92.111 43.745 92.41 44.209L92.41 44.21C92.707 44.677 92.573 45.297 92.109 45.6 91.946 45.697 91.759 45.749 91.569 45.75 91.229 45.751 90.912 45.578 90.729 45.29zM155.609 45.64C155.144 45.348 155.003 44.733 155.295 44.267 155.297 44.265 155.298 44.262 155.3 44.26 155.6 43.794 156.219 43.656 156.689 43.95 157.152 44.249 157.286 44.865 156.99 45.33 156.805 45.62 156.484 45.794 156.14 45.79 155.952 45.79 155.769 45.738 155.609 45.64zM87.46 47.62C87.13 47.181 87.219 46.559 87.657 46.229 87.661 46.226 87.666 46.223 87.67 46.22 88.115 45.893 88.74 45.987 89.069 46.43 89.393 46.878 89.295 47.503 88.85 47.83 88.679 47.956 88.472 48.023 88.26 48.02 87.945 48.02 87.648 47.872 87.46 47.62zM158.85 47.87C158.411 47.538 158.318 46.916 158.64 46.47 158.969 46.027 159.595 45.933 160.04 46.26 160.482 46.59 160.576 47.215 160.25 47.66 160.065 47.917 159.767 48.07 159.45 48.07 159.234 48.068 159.024 47.998 158.85 47.87zM84.35 50.15C83.993 49.734 84.041 49.108 84.456 48.751 84.461 48.747 84.465 48.743 84.47 48.74 84.894 48.388 85.521 48.442 85.88 48.86 86.231 49.284 86.178 49.911 85.76 50.27 85.578 50.424 85.348 50.509 85.109 50.51 84.815 50.509 84.536 50.377 84.35 50.15zM161.95 50.32C161.528 49.964 161.473 49.333 161.829 48.911L161.83 48.91C162.186 48.487 162.816 48.433 163.239 48.789L163.24 48.79C163.658 49.148 163.711 49.776 163.359 50.2 163.166 50.423 162.885 50.551 162.59 50.55 162.355 50.555 162.128 50.473 161.95 50.32zM81.42 52.89C81.036 52.502 81.039 51.877 81.426 51.493 81.43 51.489 81.435 51.484 81.439 51.48 81.826 51.096 82.451 51.098 82.835 51.485 82.84 51.49 82.845 51.495 82.85 51.5 83.236 51.893 83.231 52.526 82.838 52.913 82.835 52.915 82.833 52.917 82.83 52.92 82.644 53.097 82.397 53.197 82.14 53.2 81.867 53.2 81.607 53.088 81.42 52.89zM164.87 52.96C164.475 52.584 164.46 51.959 164.835 51.564 164.84 51.559 164.845 51.555 164.85 51.55 165.225 51.155 165.85 51.14 166.245 51.516 166.25 51.52 166.255 51.525 166.26 51.53 166.655 51.906 166.67 52.53 166.294 52.925 166.29 52.93 166.285 52.935 166.28 52.94 166.098 53.14 165.84 53.253 165.569 53.25 165.307 53.251 165.055 53.146 164.87 52.96zM78.67 55.81C78.261 55.441 78.229 54.811 78.598 54.402 78.598 54.401 78.599 54.401 78.6 54.4 78.973 53.99 79.607 53.959 80.02 54.33 80.429 54.704 80.46 55.338 80.09 55.75L80.08 55.75C79.89 55.957 79.621 56.073 79.34 56.07 79.091 56.073 78.851 55.98 78.67 55.81zM167.609 55.8C167.239 55.391 167.27 54.76 167.679 54.39 167.679 54.39 167.679 54.39 167.68 54.39 168.092 54.019 168.726 54.051 169.1 54.46L169.09 54.46C169.46 54.867 169.429 55.498 169.022 55.867 169.021 55.868 169.02 55.869 169.02 55.87 168.836 56.036 168.597 56.129 168.35 56.13 168.067 56.13 167.798 56.01 167.609 55.8zM76.13 58.92C75.696 58.575 75.624 57.944 75.969 57.511 75.969 57.51 75.969 57.51 75.969 57.51 76.313 57.081 76.939 57.009 77.37 57.35 77.804 57.694 77.876 58.324 77.532 58.757 77.532 58.758 77.531 58.759 77.53 58.76 77.34 58.996 77.053 59.132 76.75 59.13 76.526 59.131 76.307 59.057 76.13 58.92zM170.16 58.81C169.817 58.384 169.884 57.761 170.309 57.417 170.313 57.415 170.316 57.412 170.319 57.41 170.751 57.064 171.382 57.134 171.727 57.566 171.728 57.568 171.729 57.569 171.729 57.57 172.072 58.006 171.996 58.637 171.56 58.98 171.382 59.117 171.164 59.191 170.939 59.19 170.635 59.189 170.348 59.049 170.16 58.81zM73.8 62.18C73.344 61.868 73.228 61.246 73.539 60.791 73.54 60.791 73.54 60.79 73.54 60.79 73.856 60.333 74.481 60.217 74.939 60.53 75.389 60.846 75.501 61.466 75.189 61.92 75.008 62.195 74.7 62.36 74.37 62.36 74.166 62.36 73.967 62.297 73.8 62.18zM172.5 61.99C172.187 61.537 172.301 60.916 172.754 60.604 172.756 60.602 172.758 60.601 172.76 60.6 173.211 60.285 173.832 60.395 174.147 60.846 174.148 60.847 174.149 60.848 174.149 60.85 174.462 61.302 174.348 61.923 173.896 62.236 173.894 62.237 173.892 62.238 173.89 62.24 173.726 62.356 173.531 62.419 173.33 62.42 173 62.42 172.69 62.26 172.5 61.99zM71.689 65.59C71.218 65.308 71.064 64.697 71.346 64.225 71.347 64.224 71.349 64.222 71.35 64.22 71.624 63.749 72.228 63.589 72.699 63.863 72.702 63.865 72.706 63.867 72.71 63.87 73.183 64.144 73.344 64.749 73.07 65.222 73.067 65.228 73.063 65.234 73.06 65.24 72.883 65.546 72.554 65.734 72.2 65.73 72.021 65.727 71.845 65.679 71.689 65.59zM174.63 65.31C174.347 64.838 174.5 64.227 174.972 63.944 174.975 63.943 174.977 63.941 174.979 63.94 175.453 63.658 176.065 63.813 176.347 64.286 176.348 64.287 176.349 64.289 176.35 64.29 176.629 64.765 176.473 65.377 176 65.66 175.847 65.753 175.67 65.802 175.49 65.8 175.136 65.804 174.807 65.617 174.63 65.31zM69.819 69.13C69.33 68.887 69.13 68.293 69.373 67.804 69.375 67.799 69.378 67.795 69.38 67.79 69.622 67.3 70.216 67.1 70.706 67.343 70.711 67.345 70.715 67.347 70.72 67.35 71.211 67.598 71.408 68.198 71.16 68.69 70.99 69.026 70.646 69.238 70.27 69.24 70.113 69.238 69.959 69.2 69.819 69.13zM176.53 68.77C176.282 68.279 176.479 67.679 176.97 67.43 177.455 67.179 178.052 67.37 178.303 67.856 178.305 67.86 178.307 67.865 178.31 67.87 178.557 68.361 178.361 68.961 177.87 69.21 177.73 69.28 177.576 69.318 177.42 69.32 177.042 69.323 176.696 69.109 176.53 68.77zM68.18 72.79C67.676 72.57 67.445 71.985 67.66 71.48 67.87 70.974 68.449 70.734 68.955 70.943 68.96 70.946 68.965 70.948 68.97 70.95 69.476 71.167 69.713 71.752 69.5 72.26 69.34 72.626 68.98 72.864 68.58 72.87 68.443 72.867 68.307 72.84 68.18 72.79zM178.189 72.35C177.972 71.847 178.203 71.263 178.706 71.046 178.71 71.044 178.715 71.042 178.72 71.04 179.223 70.822 179.807 71.053 180.025 71.556 180.027 71.561 180.028 71.565 180.03 71.57 180.248 72.073 180.017 72.656 179.514 72.874 179.509 72.876 179.505 72.878 179.5 72.88 179.377 72.935 179.244 72.962 179.109 72.96 178.708 72.96 178.345 72.719 178.189 72.35zM66.8 76.55C66.282 76.361 66.01 75.792 66.189 75.27 66.372 74.751 66.941 74.478 67.46 74.66 67.981 74.84 68.258 75.408 68.08 75.93 67.936 76.331 67.556 76.599 67.13 76.6 67.018 76.598 66.907 76.581 66.8 76.55zM179.609 76.03C179.428 75.511 179.702 74.944 180.22 74.763 180.223 74.762 180.226 74.761 180.229 74.76 180.751 74.582 181.319 74.859 181.5 75.38 181.678 75.902 181.401 76.469 180.88 76.65 180.774 76.689 180.662 76.71 180.55 76.71 180.123 76.709 179.744 76.435 179.609 76.03zM65.67 80.39C65.14 80.245 64.827 79.7 64.97 79.17 65.113 78.639 65.659 78.324 66.19 78.467 66.194 78.468 66.197 78.469 66.2 78.47 66.725 78.604 67.041 79.137 66.907 79.662 66.905 79.671 66.902 79.681 66.899 79.69 66.785 80.126 66.391 80.431 65.939 80.43 65.848 80.431 65.757 80.418 65.67 80.39zM180.77 79.8C180.629 79.264 180.946 78.716 181.48 78.57 182.01 78.427 182.556 78.74 182.7 79.27 182.852 79.794 182.55 80.341 182.026 80.493 182.018 80.495 182.009 80.498 182 80.5 181.916 80.528 181.828 80.541 181.74 80.54 181.289 80.534 180.895 80.233 180.77 79.8zM64.81 84.31C64.27 84.196 63.919 83.672 64.02 83.13L64.03 83.13C64.141 82.589 64.669 82.24 65.21 82.35 65.751 82.461 66.099 82.989 65.99 83.53 65.889 83.996 65.477 84.329 65 84.33 64.936 84.328 64.872 84.322 64.81 84.31zM181.689 83.64C181.576 83.102 181.921 82.575 182.458 82.462 182.462 82.461 182.466 82.461 182.47 82.46 183.01 82.353 183.536 82.701 183.649 83.24 183.755 83.783 183.402 84.31 182.859 84.42 182.794 84.431 182.727 84.438 182.66 84.44 182.188 84.438 181.782 84.103 181.689 83.64zM64.2 88.27C63.663 88.204 63.28 87.715 63.346 87.177 63.347 87.168 63.348 87.159 63.35 87.15 63.419 86.605 63.917 86.22 64.462 86.289 64.465 86.289 64.467 86.29 64.47 86.29 65.018 86.367 65.401 86.871 65.33 87.42 65.26 87.913 64.838 88.28 64.34 88.28 64.293 88.281 64.246 88.278 64.2 88.27zM182.34 87.53C182.261 86.985 182.639 86.48 183.183 86.401 183.185 86.4 183.187 86.4 183.189 86.4 183.739 86.325 184.244 86.71 184.319 87.259 184.319 87.259 184.319 87.259 184.319 87.26 184.391 87.808 184.008 88.312 183.46 88.39L183.33 88.39C182.829 88.396 182.404 88.026 182.34 87.53zM63.859 92.27C63.31 92.226 62.896 91.75 62.93 91.2 62.974 90.65 63.45 90.237 64 90.27 64.551 90.31 64.967 90.788 64.93 91.34 64.899 91.864 64.464 92.272 63.939 92.27L63.859 92.27zM182.729 91.45C182.69 90.904 183.101 90.43 183.646 90.391 183.651 90.39 183.656 90.39 183.66 90.39 184.206 90.35 184.68 90.761 184.719 91.307 184.719 91.311 184.719 91.315 184.72 91.32 184.756 91.869 184.341 92.343 183.792 92.38 183.791 92.38 183.79 92.38 183.79 92.38L183.729 92.38C183.201 92.386 182.762 91.977 182.729 91.45zM63.79 96.28C63.244 96.281 62.801 95.839 62.8 95.293 62.8 95.289 62.8 95.284 62.8 95.28 62.798 94.729 63.243 94.281 63.794 94.28 63.796 94.28 63.798 94.28 63.8 94.28 64.349 94.282 64.793 94.73 64.79 95.279L64.79 95.28C64.793 95.829 64.35 96.277 63.801 96.28L63.79 96.28zM183.85 96.61C183.298 96.608 182.851 96.161 182.85 95.61 182.85 95.57 182.859 95.54 182.859 95.5 182.859 95.46 182.85 95.43 182.85 95.39L182.859 95.39C182.858 94.839 183.303 94.391 183.853 94.39 183.855 94.39 183.857 94.39 183.859 94.39 184.408 94.392 184.852 94.839 184.85 95.388 184.85 95.388 184.85 95.389 184.85 95.39L184.859 95.39C184.859 95.43 184.85 95.47 184.85 95.51L184.85 95.62C184.847 96.169 184.4 96.612 183.851 96.61 183.85 96.61 183.85 96.61 183.85 96.61zM62.92 99.35C62.884 98.801 63.3 98.326 63.849 98.29 63.849 98.29 63.849 98.29 63.85 98.29 64.401 98.253 64.88 98.668 64.92 99.22 64.949 99.773 64.532 100.248 63.979 100.29L63.92 100.29C63.391 100.289 62.954 99.877 62.92 99.35zM183.64 100.62C183.088 100.58 182.673 100.102 182.71 99.55 182.75 98.998 183.228 98.583 183.78 98.62 184.33 98.663 184.743 99.139 184.71 99.69L184.7 99.69C184.666 100.212 184.233 100.618 183.71 100.62L183.64 100.62zM63.319 103.41L63.31 103.41C63.241 102.86 63.63 102.359 64.179 102.29L64.18 102.29C64.723 102.216 65.224 102.596 65.298 103.139 65.299 103.143 65.299 103.146 65.3 103.15 65.369 103.696 64.985 104.197 64.439 104.27 64.397 104.278 64.353 104.281 64.31 104.28 63.807 104.281 63.382 103.908 63.319 103.41zM183.16 104.6C182.616 104.526 182.234 104.025 182.308 103.481 182.309 103.477 182.309 103.473 182.31 103.47 182.379 102.929 182.874 102.548 183.414 102.618 183.419 102.618 183.424 102.619 183.43 102.62 183.976 102.693 184.36 103.193 184.29 103.74 184.221 104.235 183.8 104.605 183.3 104.61 183.25 104.61 183.21 104.6 183.16 104.6zM63.979 107.43C63.87 106.889 64.219 106.361 64.76 106.25 65.298 106.139 65.825 106.485 65.936 107.023 65.937 107.029 65.938 107.034 65.939 107.04 66.051 107.573 65.709 108.096 65.176 108.207 65.171 108.208 65.165 108.209 65.16 108.21 65.095 108.227 65.027 108.233 64.96 108.23 64.484 108.232 64.073 107.896 63.979 107.43zM182.42 108.54C181.879 108.428 181.531 107.901 181.64 107.36 181.751 106.819 182.278 106.471 182.819 106.58 183.36 106.691 183.709 107.219 183.6 107.76 183.503 108.225 183.095 108.559 182.62 108.56 182.553 108.558 182.486 108.551 182.42 108.54zM64.91 111.4C64.774 110.865 65.089 110.319 65.62 110.17 66.152 110.03 66.699 110.341 66.85 110.87 66.992 111.405 66.674 111.955 66.14 112.1 66.056 112.128 65.968 112.142 65.88 112.14 65.429 112.134 65.035 111.833 64.91 111.4zM181.41 112.42C180.88 112.271 180.571 111.721 180.719 111.191L180.72 111.19C180.867 110.657 181.417 110.344 181.95 110.49 182.479 110.641 182.79 111.188 182.649 111.72L182.649 111.73C182.524 112.161 182.129 112.459 181.68 112.46 181.588 112.461 181.497 112.448 181.41 112.42zM66.109 115.3C65.929 114.775 66.206 114.204 66.729 114.02 67.251 113.842 67.819 114.119 68 114.64 68.183 115.155 67.914 115.72 67.399 115.903 67.393 115.905 67.386 115.908 67.38 115.91 67.278 115.949 67.169 115.969 67.06 115.97 66.633 115.969 66.253 115.701 66.109 115.3zM180.149 116.23C179.628 116.045 179.355 115.472 179.54 114.95 179.722 114.431 180.29 114.158 180.809 114.34 180.809 114.34 180.809 114.34 180.81 114.34 181.326 114.516 181.602 115.078 181.425 115.595 181.423 115.6 181.422 115.605 181.42 115.61 181.284 116.013 180.905 116.283 180.479 116.28 180.368 116.278 180.257 116.261 180.149 116.23zM67.569 119.11C67.359 118.602 67.595 118.019 68.1 117.8 68.608 117.581 69.198 117.815 69.417 118.324 69.418 118.326 69.419 118.328 69.42 118.33 69.631 118.841 69.39 119.426 68.88 119.64 68.756 119.691 68.624 119.718 68.49 119.72 68.089 119.72 67.726 119.48 67.569 119.11zM178.64 119.93C178.133 119.717 177.894 119.134 178.106 118.627 178.107 118.625 178.108 118.622 178.109 118.62 178.327 118.113 178.912 117.877 179.42 118.09 179.927 118.312 180.163 118.899 179.95 119.41 179.793 119.777 179.43 120.014 179.03 120.01 178.896 120.013 178.762 119.986 178.64 119.93zM69.29 122.81C69.042 122.319 69.239 121.719 69.729 121.47 70.221 121.222 70.82 121.419 71.069 121.91 71.319 122.404 71.123 123.007 70.63 123.26 70.49 123.327 70.335 123.362 70.18 123.36 69.802 123.363 69.456 123.149 69.29 122.81zM176.87 123.53C176.381 123.279 176.188 122.68 176.439 122.191L176.439 122.19C176.683 121.7 177.277 121.5 177.767 121.743 177.772 121.746 177.776 121.748 177.78 121.75 178.273 121.997 178.472 122.596 178.225 123.089 178.223 123.093 178.222 123.096 178.22 123.1 178.046 123.43 177.704 123.638 177.33 123.64 177.171 123.638 177.013 123.6 176.87 123.53zM71.24 126.39C70.962 125.912 71.123 125.3 71.6 125.02 72.077 124.741 72.69 124.901 72.969 125.378 72.969 125.379 72.969 125.379 72.97 125.38 73.243 125.859 73.083 126.468 72.609 126.75 72.454 126.837 72.278 126.882 72.1 126.88 71.746 126.881 71.419 126.695 71.24 126.39zM174.87 127C174.399 126.715 174.247 126.102 174.53 125.63 174.811 125.159 175.421 125.005 175.892 125.286 175.895 125.287 175.897 125.289 175.899 125.29 176.372 125.573 176.528 126.184 176.25 126.66 176.068 126.961 175.742 127.147 175.39 127.15 175.206 127.15 175.026 127.098 174.87 127zM73.439 129.84C73.124 129.385 73.237 128.761 73.692 128.445 73.695 128.443 73.697 128.442 73.7 128.44 74.153 128.132 74.77 128.248 75.08 128.7 75.395 129.15 75.286 129.771 74.836 130.086 74.834 130.087 74.832 130.089 74.83 130.09 74.662 130.206 74.464 130.269 74.26 130.27 73.932 130.272 73.624 130.111 73.439 129.84zM172.649 130.34C172.197 130.025 172.085 129.403 172.399 128.95 172.71 128.494 173.33 128.377 173.785 128.687 173.787 128.688 173.789 128.689 173.79 128.69 174.24 129.011 174.351 129.633 174.04 130.09L174.04 130.08C173.855 130.352 173.549 130.516 173.22 130.52 173.016 130.52 172.816 130.457 172.649 130.34zM75.85 133.12C75.509 132.69 75.582 132.066 76.012 131.726 76.014 131.724 76.017 131.722 76.02 131.72 76.451 131.379 77.077 131.45 77.42 131.88 77.761 132.315 77.69 132.943 77.26 133.29 77.081 133.424 76.863 133.497 76.64 133.5 76.332 133.501 76.041 133.361 75.85 133.12zM170.21 133.52C169.777 133.182 169.7 132.557 170.038 132.124 170.042 132.119 170.046 132.115 170.05 132.11 170.393 131.68 171.019 131.609 171.45 131.95 171.884 132.295 171.955 132.926 171.61 133.359 171.61 133.359 171.61 133.36 171.609 133.36 171.417 133.593 171.132 133.728 170.83 133.73 170.606 133.731 170.388 133.657 170.21 133.52zM78.479 136.24C78.11 135.832 78.14 135.202 78.548 134.832 78.548 134.832 78.549 134.831 78.55 134.83 78.957 134.46 79.588 134.49 79.958 134.898 79.959 134.899 79.959 134.899 79.96 134.9 80.33 135.308 80.299 135.938 79.892 136.308 79.891 136.309 79.89 136.31 79.89 136.31 79.708 136.48 79.468 136.573 79.22 136.57 78.937 136.57 78.668 136.45 78.479 136.24zM167.56 136.53C167.15 136.156 167.119 135.522 167.49 135.11 167.865 134.708 168.492 134.681 168.899 135.05 169.308 135.419 169.34 136.049 168.972 136.458 168.971 136.459 168.97 136.459 168.97 136.46 168.781 136.67 168.512 136.79 168.229 136.79 167.982 136.788 167.743 136.696 167.56 136.53zM81.31 139.17C80.915 138.794 80.9 138.169 81.276 137.774 81.281 137.769 81.285 137.765 81.29 137.76 81.666 137.365 82.291 137.35 82.686 137.726 82.691 137.73 82.695 137.735 82.7 137.74 83.095 138.117 83.109 138.742 82.733 139.137 82.728 139.141 82.724 139.146 82.72 139.15 82.533 139.348 82.272 139.461 82 139.46 81.741 139.458 81.492 139.354 81.31 139.17zM164.71 139.35C164.329 138.953 164.342 138.323 164.738 137.942 164.739 137.941 164.74 137.941 164.74 137.94 165.136 137.559 165.766 137.571 166.147 137.968 166.148 137.968 166.149 137.969 166.149 137.97 166.533 138.363 166.526 138.994 166.132 139.378 166.131 139.379 166.131 139.379 166.13 139.38 165.941 139.56 165.69 139.66 165.43 139.66 165.157 139.66 164.897 139.548 164.71 139.35zM84.319 141.92C83.9 141.562 83.85 140.931 84.208 140.512 84.209 140.511 84.209 140.51 84.21 140.51 84.559 140.088 85.183 140.028 85.605 140.377 85.61 140.381 85.615 140.385 85.62 140.39 86.04 140.748 86.089 141.378 85.731 141.798 85.731 141.798 85.73 141.799 85.729 141.8 85.54 142.023 85.262 142.151 84.97 142.15 84.732 142.153 84.502 142.072 84.319 141.92zM161.689 141.99C161.333 141.574 161.38 140.948 161.796 140.592 161.8 140.588 161.805 140.584 161.81 140.58 162.231 140.224 162.862 140.277 163.219 140.698 163.219 140.699 163.219 140.699 163.22 140.7 163.571 141.124 163.518 141.751 163.1 142.11 162.918 142.264 162.688 142.349 162.45 142.35 162.156 142.347 161.878 142.215 161.689 141.99zM87.52 144.45C87.076 144.126 86.978 143.505 87.301 143.061 87.304 143.057 87.307 143.053 87.31 143.05 87.642 142.611 88.264 142.518 88.71 142.84L88.71 142.85C89.149 143.176 89.24 143.796 88.913 144.235 88.912 144.237 88.911 144.238 88.91 144.24 88.727 144.499 88.427 144.653 88.109 144.65 87.896 144.65 87.689 144.579 87.52 144.45zM158.49 144.42C158.163 143.979 158.256 143.356 158.698 143.029 158.702 143.026 158.706 143.023 158.71 143.02 159.15 142.694 159.77 142.786 160.096 143.226 160.097 143.227 160.099 143.229 160.1 143.23 160.427 143.675 160.333 144.301 159.89 144.63 159.718 144.754 159.511 144.82 159.3 144.82 158.982 144.82 158.683 144.672 158.49 144.42zM90.87 146.77C90.407 146.476 90.269 145.863 90.563 145.4 90.565 145.396 90.567 145.393 90.569 145.39 90.866 144.924 91.483 144.786 91.95 145.08 92.416 145.379 92.552 145.999 92.253 146.465 92.252 146.467 92.251 146.468 92.25 146.47 92.065 146.754 91.75 146.927 91.41 146.93 91.219 146.926 91.033 146.871 90.87 146.77zM155.14 146.62C154.845 146.165 154.975 145.557 155.43 145.263 155.437 145.258 155.443 145.254 155.45 145.25L155.45 145.24C155.917 144.947 156.533 145.085 156.83 145.55 157.127 146.01 156.995 146.623 156.535 146.92 156.53 146.923 156.525 146.926 156.52 146.93 156.363 147.034 156.179 147.09 155.99 147.09 155.645 147.088 155.325 146.911 155.14 146.62zM94.37 148.85C93.893 148.595 93.712 148.001 93.966 147.523 93.971 147.516 93.975 147.508 93.979 147.5 94.24 147.017 94.842 146.837 95.324 147.097 95.326 147.098 95.328 147.099 95.33 147.1 95.814 147.366 95.993 147.974 95.729 148.46 95.551 148.778 95.215 148.977 94.85 148.98 94.681 148.981 94.515 148.936 94.37 148.85zM151.649 148.61C151.384 148.125 151.562 147.517 152.047 147.251 152.048 147.251 152.049 147.251 152.05 147.25 152.532 146.984 153.139 147.159 153.405 147.641 153.407 147.644 153.409 147.647 153.41 147.65 153.669 148.134 153.491 148.736 153.01 149 152.864 149.084 152.699 149.129 152.53 149.13 152.163 149.131 151.825 148.932 151.649 148.61zM98 150.7C97.499 150.466 97.281 149.872 97.51 149.37 97.747 148.872 98.34 148.658 98.84 148.89 99.34 149.123 99.559 149.717 99.33 150.22 99.162 150.571 98.809 150.796 98.42 150.8 98.274 150.801 98.13 150.767 98 150.7zM148.03 150.35C147.8 149.847 148.019 149.253 148.52 149.02 149.022 148.79 149.616 149.009 149.85 149.51 150.079 150.012 149.86 150.606 149.359 150.84 149.227 150.899 149.084 150.93 148.939 150.93 148.55 150.928 148.196 150.702 148.03 150.35zM101.74 152.3C101.228 152.1 100.973 151.523 101.17 151.01 101.366 150.498 101.939 150.241 102.451 150.437 102.454 150.438 102.457 150.439 102.46 150.44L102.47 150.44C102.98 150.643 103.23 151.219 103.03 151.73 102.884 152.116 102.513 152.371 102.1 152.37 101.976 152.371 101.854 152.347 101.74 152.3zM144.31 151.85C144.11 151.331 144.369 150.75 144.887 150.551 144.888 150.55 144.889 150.55 144.89 150.55 145.406 150.362 145.977 150.619 146.18 151.13 146.372 151.646 146.113 152.221 145.6 152.42 145.486 152.467 145.363 152.491 145.24 152.49 144.828 152.487 144.459 152.234 144.31 151.85zM105.59 153.65C105.063 153.486 104.768 152.927 104.93 152.4 105.098 151.872 105.66 151.578 106.189 151.74L106.18 151.74C106.705 151.905 106.999 152.463 106.84 152.99 106.712 153.409 106.327 153.696 105.89 153.7 105.788 153.698 105.687 153.681 105.59 153.65zM140.49 153.09C140.326 152.564 140.62 152.005 141.146 151.841 141.147 151.84 141.148 151.84 141.149 151.84 141.675 151.676 142.234 151.969 142.398 152.495 142.398 152.496 142.399 152.498 142.399 152.5 142.563 153.026 142.269 153.585 141.743 153.749 141.742 153.749 141.741 153.75 141.74 153.75 141.643 153.778 141.541 153.791 141.439 153.79 141.004 153.79 140.618 153.506 140.49 153.09zM109.519 154.73C108.989 154.61 108.655 154.083 108.775 153.552 108.777 153.545 108.778 153.537 108.78 153.53 108.906 152.995 109.441 152.663 109.976 152.789 109.977 152.789 109.978 152.79 109.979 152.79 110.518 152.921 110.852 153.46 110.729 154 110.615 154.447 110.212 154.76 109.75 154.76 109.672 154.76 109.595 154.75 109.519 154.73zM136.6 154.07C136.471 153.536 136.8 152.999 137.334 152.871 137.336 152.87 137.338 152.87 137.34 152.87 137.877 152.739 138.418 153.069 138.549 153.606 138.549 153.607 138.549 153.609 138.55 153.61 138.674 154.148 138.339 154.685 137.801 154.81L137.8 154.81C137.725 154.83 137.647 154.84 137.569 154.84 137.107 154.837 136.707 154.519 136.6 154.07zM113.51 155.55C112.967 155.456 112.601 154.943 112.689 154.4 112.784 153.854 113.303 153.487 113.85 153.58 114.392 153.674 114.758 154.187 114.67 154.73 114.586 155.212 114.169 155.565 113.68 155.57 113.623 155.568 113.566 155.561 113.51 155.55zM132.649 154.79C132.559 154.246 132.927 153.731 133.472 153.641 133.474 153.64 133.477 153.64 133.479 153.64 134.023 153.552 134.536 153.917 134.63 154.46 134.718 155.007 134.346 155.521 133.8 155.61 133.747 155.618 133.693 155.621 133.64 155.62 133.152 155.619 132.736 155.27 132.649 154.79zM117.55 156.1C117.007 156.049 116.607 155.568 116.657 155.025 116.658 155.017 116.659 155.008 116.66 155 116.719 154.451 117.211 154.053 117.76 154.11L117.75 154.11C118.3 154.17 118.7 154.659 118.649 155.21 118.595 155.721 118.164 156.109 117.649 156.11 117.616 156.111 117.582 156.108 117.55 156.1zM128.67 155.24C128.616 154.688 129.018 154.196 129.569 154.14 130.118 154.09 130.605 154.492 130.66 155.04 130.71 155.591 130.309 156.08 129.76 156.14L129.66 156.14C129.148 156.139 128.72 155.75 128.67 155.24zM121.62 156.38C121.07 156.366 120.635 155.908 120.649 155.357 120.649 155.355 120.649 155.352 120.649 155.35 120.669 154.795 121.135 154.361 121.689 154.38 122.241 154.403 122.67 154.868 122.649 155.42 122.631 155.958 122.188 156.383 121.649 156.38L121.62 156.38zM124.66 155.42C124.648 154.87 125.08 154.411 125.63 154.39 126.181 154.375 126.641 154.809 126.66 155.36 126.682 155.907 126.256 156.368 125.709 156.389 125.702 156.389 125.696 156.389 125.689 156.39L125.66 156.39C125.12 156.388 124.678 155.96 124.66 155.42z"/>
    <path fill="#48515A" d="M97.001,168.505 L151.001,168.505 L151.001,155.489 C151.152,147.299 154.617,139.52 160.605,133.931 C171.102,123.955 177.026,110.096 176.982,95.615 L176.982,95.513 C176.949,66.256 153.24,42.546 123.982,42.513 L120.937,42.501 C91.711,44.048 69.273,68.994 70.82,98.219 C71.545,111.926 77.561,124.816 87.6,134.176 C93.574,139.829 97.001,147.34 97.001,154.784 L97.001,168.505 Z M152.001,170.505 L96.001,170.505 C95.449,170.505 95.001,170.057 95.001,169.505 L95.001,154.784 C95.001,147.888 91.802,140.906 86.225,135.629 C64.018,114.911 62.81,80.114 83.529,57.906 C93.254,47.482 106.649,41.242 120.887,40.502 L123.986,40.513 C154.346,40.549 178.949,65.153 178.982,95.513 L178.982,95.615 C179.028,110.641 172.882,125.022 161.99,135.374 C156.394,140.586 153.151,147.843 153.001,155.489 L153.001,169.505 C153.001,170.057 152.554,170.505 152.001,170.505 Z"/>
    <path fill="#48515A" d="M135.427,121.436 L113.191,121.436 C107.784,121.411 103.418,117.013 103.431,111.606 L105.431,111.606 C105.416,115.909 108.888,119.412 113.191,119.436 L135.427,119.436 C140.43,119.413 144.471,115.344 144.459,110.341 L144.459,106.54 C144.453,101.554 140.413,97.513 135.427,97.508 L113.503,97.508 C107.413,97.501 102.478,92.566 102.471,86.476 L102.471,82.67 C102.478,76.58 107.413,71.645 113.503,71.638 L137.068,71.638 C141.523,71.643 145.132,75.253 145.138,79.707 L143.138,79.707 C143.134,76.357 140.419,73.642 137.068,73.638 L113.503,73.638 C108.517,73.644 104.476,77.684 104.471,82.67 L104.471,86.476 C104.476,91.462 108.517,95.502 113.503,95.508 L135.427,95.508 C141.517,95.515 146.452,100.45 146.459,106.54 L146.459,110.341 C146.469,116.448 141.534,121.412 135.427,121.436"/>
    <polygon fill="#48515A" points="124.586 132.54 126.586 132.54 126.586 60.54 124.586 60.54"/>
    <path fill="#FFD15D" d="M51.901,151.059 C54.11,151.059 55.901,152.85 55.901,155.059 C55.901,157.268 54.11,159.059 51.901,159.059 C49.692,159.059 47.901,157.268 47.901,155.059 C47.901,152.85 49.692,151.059 51.901,151.059"/>
    <path fill="#FFD15D" d="M51.901,151.559 C49.968,151.559 48.401,153.126 48.401,155.059 C48.401,156.992 49.968,158.559 51.901,158.559 C53.834,158.559 55.401,156.992 55.401,155.059 C55.399,153.127 53.833,151.561 51.901,151.559 Z M51.901,159.559 C49.416,159.559 47.401,157.544 47.401,155.059 C47.401,152.574 49.416,150.559 51.901,150.559 C54.387,150.559 56.401,152.574 56.401,155.059 C56.399,157.543 54.386,159.556 51.901,159.559 Z"/>
  </g>
</svg>
