<svg xmlns="http://www.w3.org/2000/svg" width="250" height="250" viewBox="0 0 250 250">
  <g fill="none" fill-rule="evenodd">
    <path fill="#DEDEDD" d="M141.5,120.521 C141.508,111.408 134.128,104.014 125.015,104.006 C115.902,103.997 108.508,111.378 108.5,120.491 C108.495,126.391 111.64,131.845 116.75,134.795 L116.75,161.021 L133.25,161.021 L133.25,134.795 C138.354,131.854 141.499,126.411 141.5,120.521"/>
    <path fill="#DEDEDD" d="M128,192.445 L128,182.021 L122,182.021 L122,192.445 C87.101,190.85 59.17,162.919 57.576,128.021 L68,128.021 L68,122.021 L57.576,122.021 C59.17,87.122 87.101,59.191 122,57.597 L122,68.021 L128,68.021 L128,57.597 C162.899,59.191 190.83,87.122 192.424,122.021 L182,122.021 L182,128.021 L192.424,128.021 C190.83,162.919 162.899,190.85 128,192.445 Z M125,51.521 C84.407,51.521 51.5,84.428 51.5,125.021 C51.5,165.614 84.407,198.521 125,198.521 C165.593,198.521 198.5,165.614 198.5,125.021 C198.454,84.447 165.574,51.567 125,51.521 Z"/>
    <path fill="#48515A" d="M131.72,124.124 L130.306,122.71 L175.779,77.236 L180.019,81.477 L169.413,92.083 L175.777,98.447 L172.595,101.629 L176.837,105.872 L184.26,98.444 L177.898,92.083 L184.262,85.719 L190.623,92.081 L194.866,87.838 L188.505,81.477 L194.869,75.112 L201.23,81.474 L203.351,79.353 L203.354,79.355 L208.657,74.052 L204.414,69.81 L201.233,72.991 L194.869,66.627 L184.262,77.233 L180.022,72.993 L192.749,60.266 L188.504,56.021 L126.061,118.465 L124.646,117.051 L188.504,53.192 L195.578,60.266 L182.85,72.993 L184.262,74.405 L194.869,63.799 L201.233,70.163 L204.414,66.981 L211.485,74.052 L203.219,82.318 L203.216,82.315 L201.23,84.302 L194.869,77.94 L191.333,81.477 L197.694,87.838 L190.624,94.91 L184.262,88.547 L180.727,92.083 L187.088,98.444 L176.837,108.701 L169.767,101.629 L172.949,98.447 L166.585,92.083 L177.191,81.477 L175.779,80.064 L131.72,124.124 Z M59.629,209.132 C48.583,209.127 39.632,200.169 39.637,189.122 C39.639,184.198 41.457,179.448 44.743,175.782 C40.694,165.504 45.744,153.89 56.022,149.841 C65.074,146.275 75.38,149.741 80.438,158.052 L80.438,152.773 L86.681,146.531 L90.924,150.773 L118.987,122.71 L120.401,124.124 L90.924,153.602 L86.681,149.359 L82.438,153.602 L82.438,162.087 L80.786,163.743 L80.251,162.262 C76.835,152.927 66.499,148.128 57.164,151.543 C47.829,154.958 43.03,165.294 46.445,174.629 C46.564,174.955 46.692,175.276 46.83,175.594 L47.095,176.205 L46.634,176.685 C39.76,183.866 40.01,195.261 47.191,202.135 C54.152,208.797 65.124,208.797 72.084,202.135 L72.564,201.674 L73.174,201.939 C82.296,205.889 92.893,201.696 96.843,192.574 C100.793,183.452 96.6,172.855 87.478,168.905 C87.159,168.767 86.837,168.639 86.511,168.52 L85.032,167.984 L86.687,166.33 L95.167,166.329 L99.409,162.087 L95.169,157.847 L124.293,128.723 L125.707,130.137 L97.997,157.847 L102.237,162.087 L95.995,168.329 L90.716,168.33 C100.153,174.071 103.15,186.375 97.409,195.812 C92.35,204.127 82.042,207.594 72.987,204.025 C69.321,207.324 64.561,209.144 59.629,209.132 Z"/>
    <polyline fill="#FFD15D" points="204.414 72.638 201.233 75.819 194.869 69.455 184.262 80.062 177.193 72.993 189.921 60.266 188.504 58.849 127.677 119.677 129.094 121.094 130.76 119.427 130.761 119.427 175.779 74.408 182.847 81.477 172.242 92.083 178.605 98.447 175.423 101.629 176.837 103.043 181.432 98.444 175.07 92.083 184.262 82.891 190.624 89.252 192.038 87.838 185.676 81.477 194.869 72.284 201.23 78.646 203.485 76.39 203.488 76.393 205.828 74.052 204.414 72.638"/>
    <path fill="#FFD15D" d="M90.217,175.523 C90.688,175.994 91.127,176.497 91.529,177.028 C96.163,183.217 94.902,191.991 88.713,196.625 C84.259,199.959 78.255,200.34 73.415,197.596 L73.092,197.412 L70.525,197.919 L70.299,198.192 C70.056,198.484 69.799,198.768 69.526,199.041 C64.058,204.508 55.194,204.507 49.728,199.04 C44.261,193.572 44.261,184.708 49.729,179.241 C50.001,178.968 50.284,178.712 50.576,178.471 L50.85,178.243 L51.357,175.677 L51.173,175.354 C47.845,169.47 49.189,162.05 54.369,157.707 L54.369,157.706 C59.356,153.553 66.539,153.361 71.742,157.241 C75.405,159.966 77.493,164.32 77.324,168.883 L77.311,169.317 L79.451,171.458 L79.885,171.444 C83.747,171.303 87.493,172.781 90.217,175.523 Z M94.338,164.329 L96.581,162.087 L92.34,157.847 L123.094,127.094 L121.677,125.677 L90.924,156.43 L86.681,152.188 L84.438,154.43 L84.438,162.916 L79.681,167.675 L78.795,164.307 C77.88,160.842 75.82,157.79 72.949,155.646 C65.88,150.344 55.851,151.777 50.55,158.846 C46.975,163.611 46.345,169.969 48.914,175.344 L49.536,176.645 L48.314,177.826 C42.062,184.07 42.055,194.201 48.299,200.454 C54.543,206.706 64.674,206.713 70.927,200.469 C70.932,200.464 70.937,200.459 70.942,200.454 L72.123,199.232 L73.424,199.855 C81.397,203.665 90.949,200.29 94.759,192.316 C97.327,186.941 96.696,180.585 93.123,175.819 C90.98,172.95 87.928,170.89 84.466,169.975 L81.098,169.089 L85.858,164.33 L94.338,164.329 Z"/>
    <path fill="#48515A" d="M178.144,201.674 L178.624,202.135 C185.805,209.009 197.199,208.76 204.074,201.579 C210.737,194.618 210.736,183.645 204.073,176.685 L203.613,176.205 L203.877,175.594 C207.826,166.472 203.633,155.876 194.511,151.927 C185.389,147.978 174.792,152.171 170.843,161.293 C170.705,161.612 170.576,161.935 170.457,162.262 L169.922,163.743 L168.269,162.087 L168.269,153.602 L164.026,149.359 L159.783,153.602 L62.203,56.021 L57.958,60.266 L70.686,72.993 L66.445,77.233 L55.839,66.627 L49.475,72.991 L46.294,69.81 L42.051,74.052 L49.478,81.474 L55.839,75.112 L62.203,81.477 L55.841,87.838 L60.084,92.081 L66.445,85.719 L72.809,92.083 L66.448,98.444 L73.87,105.872 L78.112,101.629 L74.931,98.447 L81.294,92.083 L70.688,81.477 L74.929,77.236 L155.538,157.847 L151.298,162.087 L155.541,166.329 L164.021,166.33 L165.675,167.984 L164.196,168.52 C154.862,171.938 150.066,182.275 153.484,191.61 C156.902,200.944 167.24,205.74 176.574,202.322 C176.897,202.203 177.217,202.076 177.533,201.939 L178.144,201.674 Z M191.078,209.132 C186.147,209.144 181.386,207.324 177.721,204.025 C167.443,208.074 155.829,203.025 151.78,192.747 C148.214,183.694 151.68,173.388 159.992,168.33 L154.713,168.329 L148.47,162.087 L152.71,157.847 L74.929,80.064 L73.517,81.477 L84.123,92.083 L77.759,98.447 L80.94,101.629 L73.87,108.701 L63.62,98.444 L69.981,92.083 L66.445,88.547 L60.084,94.91 L53.013,87.838 L59.374,81.477 L55.839,77.94 L49.478,84.302 L39.223,74.052 L46.294,66.981 L49.475,70.163 L55.839,63.799 L66.445,74.405 L67.857,72.993 L55.13,60.266 L62.203,53.192 L159.783,150.773 L164.026,146.531 L170.269,152.773 L170.269,158.052 C176.01,148.614 188.314,145.618 197.751,151.358 C206.067,156.417 209.534,166.727 205.964,175.782 C213.342,183.996 212.663,196.636 204.449,204.014 C200.777,207.312 196.014,209.135 191.078,209.132 Z"/>
    <path fill="#5FE0ED" d="M170.822,171.444 L171.256,171.458 L173.397,169.317 L173.383,168.883 C173.215,164.32 175.302,159.967 178.966,157.241 C184.168,153.361 191.352,153.553 196.339,157.706 L196.339,157.707 C201.519,162.05 202.862,169.47 199.534,175.354 L199.35,175.677 L199.858,178.243 L200.132,178.471 C200.423,178.712 200.706,178.968 200.979,179.241 C206.445,184.709 206.444,193.573 200.977,199.04 C195.51,204.505 186.649,204.506 181.182,199.041 C180.908,198.768 180.652,198.484 180.409,198.192 L180.182,197.919 L177.616,197.412 L177.292,197.596 C170.567,201.41 162.023,199.051 158.208,192.326 C155.464,187.487 155.844,181.482 159.179,177.028 C159.581,176.497 160.019,175.994 160.491,175.523 C163.215,172.781 166.96,171.303 170.822,171.444 Z M46.294,72.638 L44.879,74.052 L47.22,76.393 L47.222,76.39 L49.478,78.645 L55.839,72.284 L65.031,81.477 L58.669,87.838 L60.084,89.252 L66.445,82.891 L75.638,92.083 L69.276,98.444 L73.87,103.043 L75.284,101.629 L72.102,98.447 L78.466,92.083 L67.86,81.477 L74.929,74.408 L158.367,157.847 L154.127,162.087 L156.37,164.329 L164.849,164.33 L169.609,169.089 L166.242,169.976 C162.779,170.89 159.728,172.95 157.585,175.819 C152.283,182.889 153.717,192.918 160.786,198.219 C165.552,201.793 171.908,202.423 177.283,199.855 L178.584,199.232 L179.766,200.454 C186.016,206.701 196.147,206.697 202.393,200.447 C208.637,194.199 208.637,184.074 202.393,177.826 L201.171,176.645 L201.794,175.344 C205.61,167.376 202.244,157.823 194.276,154.008 C186.308,150.192 176.756,153.558 172.94,161.525 C172.512,162.419 172.168,163.35 171.913,164.307 L171.026,167.675 L166.269,162.916 L166.269,154.43 L164.026,152.188 L159.783,156.43 L62.203,58.849 L60.787,60.266 L73.514,72.993 L66.445,80.061 L55.839,69.455 L49.474,75.819 L46.294,72.638 Z"/>
    <polygon fill="#48515A" points="149 33 151 33 151 29 149 29"/>
    <polygon fill="#48515A" points="149 43 151 43 151 39 149 39"/>
    <polygon fill="#48515A" points="153 37 157 37 157 35 153 35"/>
    <polygon fill="#48515A" points="143 37 147 37 147 35 143 35"/>
    <polygon fill="#48515A" points="213 103 215 103 215 99 213 99"/>
    <polygon fill="#48515A" points="213 113 215 113 215 109 213 109"/>
    <polygon fill="#48515A" points="217 107 221 107 221 105 217 105"/>
    <polygon fill="#48515A" points="207 107 211 107 211 105 207 105"/>
    <polygon fill="#48515A" points="113 211 115 211 115 207 113 207"/>
    <polygon fill="#48515A" points="113 221 115 221 115 217 113 217"/>
    <polygon fill="#48515A" points="117 215 121 215 121 213 117 213"/>
    <polygon fill="#48515A" points="107 215 111 215 111 213 107 213"/>
    <polygon fill="#48515A" points="35 137 37 137 37 133 35 133"/>
    <polygon fill="#48515A" points="35 147 37 147 37 143 35 143"/>
    <polygon fill="#48515A" points="39 141 43 141 43 139 39 139"/>
    <polygon fill="#48515A" points="29 141 33 141 33 139 29 139"/>
  </g>
</svg>
