<svg xmlns="http://www.w3.org/2000/svg" width="250" height="250" viewBox="0 0 250 250">
  <g fill="none" fill-rule="evenodd">
    <path fill="#FFD15D" d="M45.705,70.667 C46.831,70.667 47.743,71.579 47.743,72.705 C47.743,73.831 46.831,74.743 45.705,74.743 C44.579,74.743 43.667,73.831 43.667,72.705 C43.667,71.579 44.579,70.667 45.705,70.667"/>
    <path fill="#DEDEDD" d="M119.999 139.849C99.524 138.042 81.578 125.426 72.946 106.771 76.978 130.272 96.262 148.153 119.999 150.402L119.999 139.849M163.897 124.748C154.594 133.413 142.664 138.725 129.999 139.841L129.999 150.391C144.357 149.019 157.524 141.819 166.426 130.472L163.897 124.748"/>
    <polyline fill="#5FE0ED" points="220.059 165.628 194.925 141 194.925 153.062 129.801 152.968 129.801 177.187 194.925 177.187 195 189 220.059 165.628"/>
    <polyline fill="#F58E70" points="29.741 165.628 54.876 141 54.876 153.062 119.999 152.968 119.999 177.187 54.876 177.187 55 189 29.741 165.628"/>
    <polygon fill="#DEDEDD" points="120.431 143.976 129.478 143.976 129.478 134.929 120.431 134.929"/>
    <path fill="#48515A" d="M124.955,136.546 C95.281,136.523 71.244,112.448 71.267,82.774 C71.29,53.1 95.365,29.063 125.04,29.086 C154.714,29.109 178.751,53.184 178.727,82.858 C178.722,90.019 177.285,97.107 174.501,103.705 L172.659,102.925 C183.821,76.565 171.5,46.148 145.141,34.987 C118.781,23.825 88.364,36.145 77.202,62.505 C66.04,88.865 78.361,119.282 104.72,130.444 C124.111,138.655 146.542,134.318 161.475,119.471 L162.885,120.889 C152.83,130.949 139.178,136.584 124.955,136.546"/>
    <path fill="#48515A" d="M124.955,220.999 C121.643,220.996 118.959,218.312 118.955,214.999 L118.955,135.45 L120.955,135.45 L120.955,214.999 C120.955,217.209 122.746,218.999 124.955,218.999 C127.164,218.999 128.955,217.209 128.955,214.999 L128.955,135.45 L130.955,135.45 L130.955,214.999 C130.951,218.312 128.267,220.996 124.955,220.999"/>
    <path fill="#DEDEDD" d="M86.159,66.459 C107.527,45.091 142.172,45.091 163.54,66.459 C168.288,71.207 172.122,76.789 174.85,82.925 C174.85,55.311 152.464,32.925 124.849,32.925 C97.235,32.926 74.85,55.311 74.85,82.926 C77.574,76.788 81.408,71.205 86.159,66.459"/>
    <path fill="#5FE0ED" d="M151.792,58.339 C150.132,54.67 147.749,51.373 144.785,48.646 C144.422,48.297 144.053,47.954 143.67,47.622 C135.883,40.882 125.229,38.509 115.317,41.306 L115.279,41.317 C114.757,41.465 114.24,41.629 113.726,41.804 C113.559,41.861 113.392,41.919 113.226,41.978 C112.868,42.107 112.513,42.245 112.161,42.387 C111.665,42.585 111.177,42.799 110.692,43.023 C110.59,43.07 110.486,43.115 110.385,43.163 C107.886,44.345 105.56,45.861 103.469,47.669 C100.793,49.992 98.554,52.774 96.856,55.884 C94.057,60.642 92.583,66.064 92.59,71.585 L92.59,99.185 C92.59,103.449 94.032,108.897 94.061,109.332 L111.462,109.332 L110.901,107.086 C109.996,103.462 108.772,99.924 107.244,96.515 C104.906,90.748 102.305,85.681 100.516,82.216 C100.479,82.145 100.44,82.07 100.404,82 C99.559,80.357 98.881,78.633 98.38,76.855 C96.568,70.688 97.154,64.065 100.018,58.312 C100.617,57.141 101.303,56.017 102.072,54.949 C103.239,53.322 104.593,51.837 106.106,50.525 C106.551,50.138 107.012,49.773 107.48,49.419 C107.569,49.351 107.657,49.283 107.747,49.217 C108.206,48.878 108.674,48.555 109.152,48.247 C109.231,48.196 109.311,48.148 109.39,48.099 C109.854,47.808 110.321,47.521 110.805,47.267 C110.851,47.242 110.896,47.215 110.942,47.19 C111.452,46.916 111.973,46.662 112.5,46.422 C112.597,46.377 112.695,46.333 112.792,46.29 C113.321,46.056 113.855,45.837 114.397,45.638 C114.45,45.619 114.504,45.602 114.558,45.582 C115.083,45.394 115.614,45.222 116.15,45.066 C116.218,45.047 116.285,45.025 116.353,45.006 C116.911,44.849 117.475,44.71 118.044,44.591 C118.139,44.57 118.235,44.551 118.331,44.532 C118.914,44.415 119.5,44.311 120.091,44.233 C127.689,43.219 135.356,45.51 141.152,50.525 C141.178,50.547 141.204,50.57 141.23,50.593 L141.215,50.611 L141.246,50.636 L141.265,50.653 L141.274,50.66 L141.279,50.664 L141.294,50.677 L141.318,50.698 L141.332,50.71 C141.617,50.953 141.891,51.203 142.162,51.455 C144.755,53.835 146.839,56.715 148.289,59.921 C149.814,63.343 150.257,67.15 149.557,70.831 L153.45,70.831 C154.115,66.594 153.54,62.255 151.792,58.339"/>
    <path fill="#5FE0ED" d="M95.242,107.881 L109.605,107.881 L109.494,107.437 C108.609,103.896 107.413,100.439 105.921,97.108 C103.534,91.224 100.838,86.001 99.228,82.881 L99.116,82.666 C98.227,80.937 97.512,79.122 96.984,77.25 C95.064,70.733 95.686,63.729 98.727,57.653 C99.359,56.417 100.083,55.23 100.894,54.102 C102.128,52.385 103.558,50.816 105.155,49.429 C105.625,49.021 106.111,48.636 106.604,48.263 L106.885,48.051 C107.37,47.693 107.864,47.352 108.367,47.027 L108.618,46.872 C109.064,46.591 109.585,46.27 110.131,45.983 L110.272,45.904 C110.793,45.624 111.343,45.356 111.898,45.103 L112.208,44.963 C112.763,44.718 113.326,44.486 113.899,44.276 L114.02,44.234 C114.621,44.019 115.181,43.838 115.746,43.674 L115.965,43.609 C116.549,43.445 117.144,43.299 117.743,43.172 L118.048,43.11 C118.66,42.987 119.277,42.878 119.9,42.795 C127.909,41.736 135.988,44.151 142.102,49.43 L143.272,50.448 L143.244,50.481 C145.934,52.975 148.099,55.981 149.61,59.324 C151.028,62.474 151.586,65.944 151.229,69.38 L152.17,69.38 C152.524,65.81 151.938,62.21 150.471,58.936 C148.89,55.444 146.621,52.306 143.801,49.71 C143.436,49.36 143.085,49.033 142.721,48.718 C135.302,42.298 125.153,40.037 115.711,42.702 C115.177,42.853 114.685,43.009 114.195,43.176 L113.713,43.344 C113.377,43.465 113.039,43.597 112.703,43.732 C112.227,43.922 111.762,44.126 111.3,44.339 L111.013,44.47 C108.631,45.596 106.412,47.041 104.419,48.764 C101.873,50.974 99.743,53.622 98.128,56.581 C95.453,61.129 94.041,66.309 94.04,71.585 L94.04,99.185 C94.157,102.116 94.559,105.028 95.242,107.881 Z M113.318,110.782 L92.706,110.782 L92.615,109.429 C92.604,109.38 92.546,109.125 92.467,108.763 C91.709,105.622 91.264,102.414 91.14,99.185 L91.14,71.585 C91.139,65.807 92.681,60.133 95.606,55.149 C97.383,51.903 99.723,48.999 102.519,46.573 C104.709,44.68 107.146,43.092 109.763,41.854 L110.079,41.708 C110.592,41.472 111.104,41.249 111.623,41.04 C111.988,40.893 112.359,40.749 112.733,40.615 L113.26,40.432 C113.796,40.249 114.337,40.077 114.884,39.922 C125.276,36.974 136.453,39.457 144.62,46.527 C145.02,46.874 145.408,47.234 145.79,47.6 C148.888,50.455 151.378,53.904 153.113,57.742 L153.113,57.743 C154.982,61.913 155.597,66.537 154.884,71.051 L154.694,72.281 L147.811,72.281 L148.131,70.565 C148.784,67.176 148.378,63.667 146.968,60.517 C145.597,57.488 143.628,54.768 141.179,52.52 C140.925,52.285 140.67,52.052 140.406,51.826 L140.053,51.526 L139.161,50.768 L139.163,50.767 C133.803,46.614 127.004,44.779 120.282,45.67 C119.723,45.745 119.168,45.843 118.617,45.954 L118.348,46.009 C117.808,46.124 117.273,46.253 116.746,46.402 L116.554,46.459 C116.048,46.606 115.546,46.769 115.047,46.947 L114.949,46.981 C114.383,47.188 113.878,47.396 113.378,47.616 L113.106,47.739 C112.603,47.968 112.111,48.208 111.63,48.467 L111.464,48.558 C111.027,48.788 110.593,49.056 110.161,49.327 L109.935,49.467 C109.484,49.757 109.042,50.063 108.607,50.384 L108.359,50.571 C107.912,50.91 107.477,51.255 107.056,51.62 C105.629,52.859 104.351,54.26 103.248,55.795 C102.523,56.804 101.875,57.866 101.309,58.972 C98.603,64.397 98.055,70.646 99.775,76.459 C100.25,78.144 100.892,79.777 101.692,81.334 L101.802,81.547 C103.438,84.715 106.172,90.011 108.588,95.97 C110.142,99.442 111.387,103.044 112.309,106.734 L113.318,110.782 Z"/>
    <path fill="#48515A" d="M111.821 122.133L109.821 122.133 109.821 119.571C109.817 106.595 101.707 90.888 97.809 83.34 91.432 71.618 94.09 57.037 104.191 48.318 115.351 38.662 131.907 38.662 143.066 48.318 143.439 48.642 143.799 48.977 144.153 49.316 147.03 51.96 149.342 55.159 150.951 58.719 153.339 64.101 153.415 70.228 151.161 75.668 150.198 78.009 150.483 80.679 151.92 82.763L155.287 87.625C155.612 88.037 155.787 88.547 155.782 89.072 155.783 90.092 155.13 90.999 154.162 91.321L151.662 92.154C151.464 92.219 151.331 92.404 151.331 92.613 151.315 93.008 151.456 93.393 151.723 93.684L152.016 93.977 152.016 95.162C152.029 96.04 151.465 96.822 150.628 97.087 150.66 97.45 150.636 97.816 150.555 98.171 150.344 98.804 149.94 99.354 149.398 99.744 149.285 99.83 149.179 99.927 149.084 100.034L149.095 101.878 149.092 103.179C149.081 105.803 146.955 107.926 144.331 107.933L136.98 107.933C135.916 107.934 135.045 108.78 135.013 109.843L136.496 121.492 136.496 122.132 134.496 122.132 134.496 121.556 133.012 109.9C133.014 107.71 134.789 105.935 136.98 105.933L144.331 105.933C145.854 105.928 147.087 104.695 147.092 103.173L147.101 99.966C147.142 99.25 147.521 98.596 148.121 98.205 148.408 97.966 148.574 97.821 148.635 97.615 148.645 97.503 148.624 96.829 148.591 96.331L148.521 95.279 149.575 95.264C149.734 95.276 149.892 95.242 150.032 95.168L150.023 94.771C149.563 94.147 149.32 93.389 149.331 92.613 149.33 91.543 150.015 90.594 151.029 90.256L153.529 89.423C153.723 89.358 153.828 89.149 153.763 88.955 153.749 88.911 153.726 88.87 153.696 88.835L150.275 83.902C148.444 81.263 148.081 77.874 149.312 74.908 151.357 69.977 151.291 64.423 149.129 59.542 147.628 56.223 145.471 53.242 142.788 50.778 142.502 50.514 142.214 50.252 141.915 49.996L141.902 49.986 141.9 49.984 141.867 49.956 141.808 49.906 141.823 49.887 141.756 49.828C131.348 40.825 115.91 40.825 105.502 49.828 96.098 57.943 93.633 71.521 99.586 82.422 103.556 90.111 111.817 106.109 111.821 119.571L111.821 122.133M198.608 121.933L197.131 110.335C197.133 108.162 198.894 106.401 201.067 106.399L209.811 106.399C211.312 106.394 212.528 105.179 212.533 103.678L212.541 100.506C212.543 99.944 212.714 99.395 213.031 98.93 213.163 98.725 213.27 98.505 213.35 98.275 213.354 97.993 213.347 97.173 213.335 96.479L213.328 96.067 214.537 94.81 214.014 93.762 214.014 93.526C214.007 92.444 214.683 91.475 215.701 91.108L215.855 91.057 217.846 91.058C218.167 91.071 218.479 90.945 218.7 90.712 218.96 90.412 219.02 89.987 218.854 89.627 217.039 85.82 215.458 81.907 214.117 77.909 213.852 77.055 213.725 76.165 213.74 75.271L213.738 67.593C213.737 65.619 213.463 63.654 212.924 61.755 212.071 58.636 210.498 55.762 208.332 53.362 207.849 52.839 207.336 52.327 206.808 51.84 206.466 51.511 206.132 51.2 205.787 50.9 195.492 41.995 180.221 41.995 169.926 50.9 169.134 51.587 168.384 52.321 167.68 53.097L166.199 51.753C166.957 50.918 167.764 50.129 168.615 49.39 179.662 39.832 196.05 39.832 207.098 49.39 207.47 49.712 207.829 50.046 208.181 50.385 208.731 50.893 209.281 51.442 209.801 52.004 212.173 54.625 213.898 57.766 214.838 61.174 215.434 63.262 215.737 65.421 215.738 67.592L215.74 75.296C215.728 75.985 215.826 76.672 216.031 77.33 217.344 81.237 218.892 85.06 220.666 88.781 221.166 89.845 220.997 91.103 220.233 91.997 219.634 92.686 218.759 93.075 217.846 93.058L216.239 93.057C216.146 93.133 216.078 93.234 216.043 93.349L216.957 95.179 215.342 96.858C215.407 97.483 215.393 98.113 215.301 98.734 215.174 99.166 214.988 99.577 214.747 99.957 214.617 100.113 214.544 100.309 214.541 100.513L214.533 103.684C214.523 106.286 212.414 108.392 209.811 108.399L201.067 108.399C200.02 108.4 199.164 109.232 199.132 110.278L200.593 121.679 198.608 121.933"/>
    <polyline fill="#2B2B2B" points="212.519 97.931 212.521 97.927 212.519 97.931"/>
    <path fill="#48515A" d="M39.135 122.158L39.087 120.23C39.082 106.938 36.29 91.91 32.448 84.472 26.15 72.894 28.775 58.491 38.753 49.879 49.775 40.343 66.127 40.343 77.149 49.879 77.521 50.201 77.88 50.534 78.231 50.874 78.784 51.384 79.333 51.933 79.847 52.489 80.23 52.904 80.601 53.339 80.946 53.782L79.368 55.012C79.058 54.613 78.725 54.221 78.378 53.847 77.899 53.328 77.389 52.818 76.858 52.328 76.517 51.999 76.185 51.69 75.839 51.391 65.569 42.506 50.334 42.506 40.063 51.39 30.783 59.397 28.351 72.797 34.226 83.554 38.196 91.242 41.082 106.656 41.087 120.205L41.135 122.109 39.135 122.158M68.676 122.26L67.202 110.689C67.204 108.519 68.963 106.761 71.132 106.759L78.46 106.759 78.46 108.759 71.132 108.759C70.089 108.76 69.235 109.589 69.203 110.631L70.66 122.006 68.676 122.26"/>
    <polyline fill="#2B2B2B" points="82.558 98.312 82.559 98.308 82.558 98.312"/>
    <polygon fill="#48515A" points="63.037 131.001 65.037 131.001 65.037 127.001 63.037 127.001"/>
    <polygon fill="#48515A" points="63.037 141.001 65.037 141.001 65.037 137.001 63.037 137.001"/>
    <polygon fill="#48515A" points="67.037 135.001 71.037 135.001 71.037 133.001 67.037 133.001"/>
    <polygon fill="#48515A" points="57.037 135.001 61.037 135.001 61.037 133.001 57.037 133.001"/>
    <polygon fill="#48515A" points="175.083 191.013 177.083 191.013 177.083 187.013 175.083 187.013"/>
    <polygon fill="#48515A" points="175.083 201.013 177.083 201.013 177.083 197.013 175.083 197.013"/>
    <polygon fill="#48515A" points="179.083 195.013 183.083 195.013 183.083 193.013 179.083 193.013"/>
    <polygon fill="#48515A" points="169.083 195.013 173.083 195.013 173.083 193.013 169.083 193.013"/>
    <path fill="#DEDEDD" d="M123,139 L127,139 L127,215 C127,216.105 126.105,217 125,217 C123.895,217 123,216.105 123,215 L123,139"/>
    <polyline fill="#DEDEDD" points="194.988 121.982 179.423 115.311 176.75 116.915 184.982 125.147 182.154 127.975 174.043 119.864 172.418 123.131 179.215 139.591 184.049 129.871 192.16 137.982 194.988 135.153 186.756 126.921 194.988 121.982"/>
    <path fill="#48515A" d="M158.843 101.861L169.294 127.169 173.767 118.174 182.153 126.562 183.568 125.147 175.137 116.716 182.791 112.125 158.843 101.861zM169.126 132.001L155.122 98.09 187.174 111.827 178.362 117.113 186.396 125.147 182.153 129.39 174.319 121.555 169.126 132.001zM76.967 167.183C75.349 167.182 74.038 168.494 74.037 170.111 74.037 171.729 75.349 173.04 76.966 173.041 78.584 173.041 79.895 171.73 79.896 170.112L79.896 170.111C79.894 168.495 78.583 167.184 76.967 167.183zM76.967 175.04C74.245 175.041 72.038 172.834 72.037 170.112 72.037 167.39 74.244 165.183 76.966 165.182 79.688 165.182 81.895 167.389 81.895 170.111 81.893 172.832 79.688 175.037 76.967 175.04zM87.969 178.185C86.351 178.185 85.04 179.496 85.04 181.113 85.04 182.731 86.351 184.042 87.969 184.042 89.586 184.042 90.897 182.731 90.897 181.113 90.896 179.497 89.586 178.186 87.969 178.185zM87.969 186.042C85.247 186.042 83.04 183.835 83.04 181.113 83.04 178.391 85.247 176.185 87.969 176.185 90.691 176.185 92.897 178.391 92.897 181.113 92.894 183.834 90.689 186.039 87.969 186.042z"/>
    <polyline fill="#48515A" points="73.117 183.549 90.404 166.262 91.818 167.676 74.531 184.963 73.117 183.549"/>
    <path fill="#FFD15D" d="M206.715 137.57C207.663 137.57 208.431 138.338 208.431 139.285 208.431 140.232 207.663 141.001 206.715 141.001 205.768 141.001 205 140.232 205 139.285 205 138.338 205.768 137.57 206.715 137.57M108.44 189.007C109.633 189.007 110.601 189.974 110.601 191.167 110.601 192.36 109.633 193.327 108.44 193.327 107.247 193.327 106.28 192.36 106.28 191.167 106.28 189.974 107.247 189.007 108.44 189.007M69.62 58.983C70.403 58.983 71.037 59.618 71.037 60.401 71.037 61.183 70.403 61.818 69.62 61.818 68.837 61.818 68.202 61.183 68.202 60.401 68.202 59.618 68.837 58.983 69.62 58.983"/>
  </g>
</svg>
