<svg xmlns="http://www.w3.org/2000/svg" width="250" height="250" viewBox="0 0 250 250">
  <g fill="none" fill-rule="evenodd">
    <path fill="#F58E70" d="M151.067,127.04 L219.071,127.04 C220.175,127.04 221.071,127.935 221.071,129.04 L221.071,185.042 C221.071,186.147 220.175,187.042 219.071,187.042 L167.193,187.042 L159.193,195.042 L159.193,187.042 L151.067,187.042 C149.963,187.042 149.067,186.147 149.067,185.042 L149.067,129.04 C149.067,127.935 149.963,127.04 151.067,127.04"/>
    <path fill="#5FE0ED" d="M98.999,77.01 L30.995,77.01 C29.891,77.01 28.995,77.905 28.995,79.01 L28.995,135.012 C28.995,136.117 29.891,137.012 30.995,137.012 L82.873,137.012 L90.873,145.012 L90.873,137.012 L98.999,137.012 C100.103,137.012 100.999,136.117 100.999,135.012 L100.999,79.01 C100.999,77.905 100.103,77.01 98.999,77.01"/>
    <path fill="#F58E70" d="M131.937,221.269 C131.937,221.269 129.27,175.583 127.937,170.249 L127.968,170.249 C129.079,170.253 129.985,169.361 130,168.251 L130,163.25 L124.917,157.246 L120,163.25 L120,168.251 C119.985,169.34 120.856,170.234 121.945,170.249 C121.953,170.249 121.961,170.249 121.968,170.249 L121.945,170.249 C120.612,175.583 117.941,221.269 117.941,221.269"/>
    <path fill="#DFE0E0" d="M110,142.256 L110,146.625 L124.909,155.125 L139.887,146.875 L140,138.877 L140,132.136 C140,131.57 141.072,130.965 141.598,130.352 C141.418,130.51 141.201,130.667 141.054,130.826 C138.68,133.181 136.186,135.411 133.58,137.506 C131.891,139.032 129.719,139.914 127.444,140 L120.952,140 C118.684,139.914 116.52,139.031 114.839,137.506 C112.778,135.746 109.778,133.403 107.681,131.236 C107.618,131.171 107.544,131.055 107.476,130.99 C108.106,131.66 109.048,132.314 109.814,132.989 C109.797,132.997 110,132.98 110,133 L110,142.256"/>
    <path fill="#48515A" d="M60.885,221.131 L58.885,221.126 L59,171.887 C59,165.913 62.773,164.013 68.102,161.98 L99.24,151.307 L104.733,141 L109,141 L109,143 L105.934,143 L100.634,152.944 L68.783,163.86 C63.503,165.874 61,167.328 61,171.89 L60.885,221.131"/>
    <path fill="#48515A" d="M111,145.443 L124.965,154.091 L139.001,146.287 L139,131.802 L139.178,131.545 C139.588,130.955 140.081,130.377 140.559,129.818 C141.201,129.152 141.745,128.397 142.173,127.577 L148.216,114.923 L155.118,111.412 L156.695,103.478 C156.681,102.804 156.413,102.162 155.944,101.679 C155.556,101.258 155.014,101.013 154.442,101 L151.868,101 L152.072,99.829 C152.609,97.224 152.92,94.577 153,91.919 L152.949,90.563 C152.952,86.629 152.089,82.741 150.421,79.177 C150.266,78.832 150.109,78.503 149.948,78.176 C148.062,74.391 145.363,71.069 142.045,68.447 C130.871,59.552 114.793,60.493 104.732,70.63 C99.184,76.139 96.044,83.622 96,91.44 L96,91.919 C96.034,94.577 96.274,97.229 96.716,99.851 L96.89,101 L94.514,101 C93.211,101.115 92.197,102.183 92.151,103.49 L94.393,111.568 L100.402,115.063 L106.341,127.673 C107.173,129.896 110.896,132.954 113.614,135.188 C114.284,135.738 114.921,136.262 115.488,136.746 C116.987,138.118 118.922,138.916 120.952,139 L127,139 C127.552,139 128,139.448 128,140 C128,140.552 127.552,141 127,141 L120.952,141 C118.446,140.917 116.05,139.949 114.189,138.267 C113.631,137.79 113.004,137.275 112.344,136.733 C111.902,136.369 111.451,135.999 111,135.624 L111,145.443 Z M124.91,156.409 L109,146.557 L109,134.001 C109,133.971 109.001,133.942 109.004,133.914 C106.94,132.075 105.147,130.188 104.499,128.449 L98.858,116.479 L92.683,112.887 L90.148,103.615 C90.114,101.149 92.049,99.103 94.514,99 L94.57,99 C94.21,96.656 94.019,94.29 94,91.919 L94,91.44 C94.046,83.089 97.397,75.097 103.322,69.211 C108.954,63.509 116.645,60.316 124.659,60.354 C131.423,60.377 137.983,62.675 143.283,66.877 C146.834,69.682 149.722,73.237 151.74,77.288 C151.913,77.637 152.08,77.99 152.241,78.347 C154.012,82.14 154.936,86.274 154.949,90.46 L155,90.796 L155,91.919 C154.952,94.297 154.7,96.666 154.245,99 L154.442,99 C155.555,99.01 156.615,99.475 157.378,100.285 C158.245,101.172 158.719,102.371 158.693,103.611 L158.674,103.777 L156.891,112.755 L149.728,116.398 L144.012,128.36 C143.519,129.376 142.867,130.307 142.08,131.117 C141.706,131.554 141.322,132.004 141,132.438 L141.001,147.463 L124.91,156.409 Z"/>
    <path fill="#48515A" d="M190.968 221.129L188.968 221.128 188.992 172.01C188.992 167.557 186.647 165.976 181.039 163.912L149.186 153.037 143.133 143 140 143 140 141 144.263 141 150.521 151.379 181.707 162.027C186.977 163.966 190.992 165.927 190.992 172.01L190.968 221.129M115.936 168.25C115.384 168.25 114.937 167.802 114.937 167.249 114.937 167.003 115.029 166.764 115.194 166.581L124.938 155.755 134.68 166.581C135.05 166.992 135.016 167.624 134.606 167.993 134.195 168.363 133.563 168.329 133.194 167.919L124.938 158.745 116.68 167.919C116.491 168.13 116.22 168.25 115.936 168.25"/>
    <polygon fill="#48515A" points="207.004 195.006 209.004 195.006 209.004 191.006 207.004 191.006"/>
    <polygon fill="#48515A" points="207.004 205.006 209.004 205.006 209.004 201.006 207.004 201.006"/>
    <polygon fill="#48515A" points="211.004 199.006 215.004 199.006 215.004 197.006 211.004 197.006"/>
    <polygon fill="#48515A" points="201.004 199.006 205.004 199.006 205.004 197.006 201.004 197.006"/>
    <polygon fill="#48515A" points="69 48.982 71 48.982 71 44.982 69 44.982"/>
    <polygon fill="#48515A" points="69 58.982 71 58.982 71 54.982 69 54.982"/>
    <polygon fill="#48515A" points="73 52.982 77 52.982 77 50.982 73 50.982"/>
    <polygon fill="#48515A" points="63 52.982 67 52.982 67 50.982 63 50.982"/>
    <path fill="#48515A" d="M35.881,192.995 C34.254,192.966 32.911,194.262 32.882,195.89 C32.881,195.911 32.881,195.932 32.881,195.953 C32.868,197.62 34.209,198.982 35.876,198.995 C35.878,198.995 35.88,198.995 35.881,198.995 L91.047,198.995 L97.552,195.995 L91.047,192.995 L35.881,192.995 Z M91.485,200.995 L35.881,200.995 C33.12,200.995 30.881,198.756 30.881,195.995 C30.881,193.233 33.12,190.995 35.881,190.995 L91.485,190.995 L102.329,195.995 L91.485,200.995 Z"/>
    <polygon fill="#48515A" points="40.993 199.995 42.993 199.995 42.993 191.995 40.993 191.995"/>
    <polygon fill="#48515A" points="41.993 196.995 90.993 196.995 90.993 194.995 41.993 194.995"/>
    <path fill="#F58E70" d="M138.959,48.911 C140.064,48.911 140.959,49.806 140.959,50.911 C140.959,52.015 140.064,52.911 138.959,52.911 C137.855,52.911 136.959,52.015 136.959,50.911 C136.959,49.806 137.855,48.911 138.959,48.911"/>
    <path fill="#FFD45C" d="M186.711,32.697 C203.538,32.697 217.179,46.338 217.179,63.165 C217.179,79.992 203.538,93.632 186.711,93.632 C169.884,93.632 156.243,79.992 156.243,63.165 C156.243,46.338 169.884,32.697 186.711,32.697"/>
    <path fill="#48515A" d="M186.502,30.917 C168.516,30.978 153.984,45.607 154.045,63.593 C154.089,76.705 161.992,88.511 174.096,93.55 L174.776,93.831 L174.71,94.564 C174.481,97.034 173.283,99.311 171.378,100.899 C175.005,100.415 178.345,98.666 180.81,95.962 L181.168,95.575 L181.69,95.653 C183.285,95.859 184.894,95.948 186.502,95.92 C204.452,95.895 218.982,81.322 218.957,63.372 C218.931,45.459 204.415,30.943 186.502,30.917 Z M169.707,103 L165.663,103 L165.663,101 C169.091,100.936 171.999,98.465 172.618,95.093 C155.053,87.522 146.95,67.146 154.52,49.58 C162.091,32.015 182.467,23.912 200.033,31.483 C217.598,39.053 225.701,59.43 218.131,76.995 C212.683,89.636 200.266,97.85 186.502,97.92 C184.97,97.941 183.438,97.868 181.914,97.702 C178.717,101.029 174.321,102.937 169.707,103 Z"/>
    <polygon fill="#48515A" points="167 59 205 59 205 57 167 57"/>
    <polygon fill="#48515A" points="167 64 205 64 205 62 167 62"/>
    <polygon fill="#48515A" points="167 68 205 68 205 66 167 66"/>
    <path fill="#48515A" d="M184.259,116 C178.327,116 173.518,120.809 173.518,126.741 C173.518,132.673 178.327,137.482 184.259,137.482 C190.191,137.482 195,132.673 195,126.741 C194.994,120.812 190.189,116.007 184.259,116 Z M184.259,139.482 C177.222,139.482 171.518,133.778 171.518,126.741 C171.518,119.704 177.222,114 184.259,114 C191.296,114 197,119.704 197,126.741 C196.992,133.775 191.293,139.474 184.259,139.482 Z"/>
    <path fill="#48515A" d="M184.258,116 C181.373,116 178.936,120.919 178.936,126.741 C178.936,132.564 181.373,137.482 184.258,137.482 C187.143,137.482 189.581,132.564 189.581,126.741 C189.581,120.919 187.143,116 184.258,116 Z M184.258,139.482 C180.152,139.482 176.936,133.886 176.936,126.741 C176.936,119.597 180.152,114 184.258,114 C188.364,114 191.581,119.597 191.581,126.741 C191.581,133.886 188.364,139.482 184.258,139.482 Z"/>
    <polygon fill="#48515A" points="172.811 128.192 195.811 128.192 195.811 126.192 172.811 126.192"/>
  </g>
</svg>
