<svg xmlns="http://www.w3.org/2000/svg" width="250" height="250" viewBox="0 0 250 250">
  <g fill="none" fill-rule="evenodd">
    <polyline fill="#FFD15D" points="151.113 108.847 173.916 95.351 124.903 66.673 102.09 80.173 151.113 108.847"/>
    <polyline fill="#FFD15D" points="100.09 81.328 76 95.476 125.013 124.156 149.113 110.002 100.09 81.328"/>
    <polyline fill="#FFD15D" points="124.013 125.888 75 97.208 75 154.131 124.013 182.81 124.013 125.888"/>
    <path fill="#FFD15D" d="M165,146.723 L135,164.263 L135,148.596 L165,131.056 L165,146.723 Z M126.013,125.887 L126.013,182.81 L174.917,154.006 L174.917,97.083 L126.013,125.887 Z"/>
    <polyline fill="#414A52" points="139.149 133.717 139.149 136.511 160.171 124.375 160.171 121.581 139.149 133.717"/>
    <polyline fill="#414A52" points="132.143 143.371 132.143 146.165 167.212 125.919 167.212 123.124 132.143 143.371"/>
    <polygon fill="#48515A" points="58.07 196.999 191.601 196.999 191.601 194.999 58.07 194.999"/>
    <polygon fill="#48515A" points="58.413 54.999 191.829 54.999 191.829 52.999 58.413 52.999"/>
    <polygon fill="#48515A" points="195.001 139 197.001 139 197.001 58.278 195.001 58.278"/>
    <polyline fill="#48515A" points="198.653 200.028 200.067 198.614 212.727 211.273 211.313 212.687 198.653 200.028"/>
    <polyline fill="#48515A" points="212.999 213 205 213 205 211 210.999 211 210.999 205 212.999 205 212.999 213"/>
    <path fill="#48515A" d="M192.999,199.001 L198.999,199.001 L198.999,193.001 L192.999,193.001 L192.999,199.001 Z M190.999,201.001 L200.999,201.001 L200.999,191.001 L190.999,191.001 L190.999,201.001 Z"/>
    <polyline fill="#48515A" points="37.23 211.304 49.89 198.645 51.304 200.059 38.645 212.718 37.23 211.304"/>
    <polyline fill="#48515A" points="45 212.99 36.917 212.99 36.917 205 38.917 205 38.917 210.99 45 210.99 45 212.99"/>
    <path fill="#48515A" d="M50.917,198.99 L56.917,198.99 L56.917,192.99 L50.917,192.99 L50.917,198.99 Z M48.917,200.99 L58.917,200.99 L58.917,190.99 L48.917,190.99 L48.917,200.99 Z"/>
    <polygon fill="#48515A" points="52.999 192.001 54.999 192.001 54.999 58.278 52.999 58.278"/>
    <polyline fill="#48515A" points="198.653 49.881 211.313 37.222 212.727 38.636 200.067 51.295 198.653 49.881"/>
    <polyline fill="#48515A" points="212.999 45 210.999 45 210.999 38.908 205 38.908 205 36.908 212.999 36.908 212.999 45"/>
    <path fill="#48515A" d="M192.999,56.908 L198.999,56.908 L198.999,50.908 L192.999,50.908 L192.999,56.908 Z M190.999,58.908 L200.999,58.908 L200.999,48.908 L190.999,48.908 L190.999,58.908 Z"/>
    <polyline fill="#48515A" points="35.366 38.653 36.677 37.143 51.252 49.802 49.941 51.312 35.366 38.653"/>
    <polyline fill="#48515A" points="37.001 45 35.001 45 35.001 36.918 43 36.918 43 38.918 37.001 38.918 37.001 45"/>
    <path fill="#48515A" d="M50.917,56.918 L56.917,56.918 L56.917,50.918 L50.917,50.918 L50.917,56.918 Z M48.917,58.919 L58.917,58.919 L58.917,48.919 L48.917,48.919 L48.917,58.919 Z"/>
    <polygon fill="#48515A" points="73 71 75 71 75 67 73 67"/>
    <polygon fill="#48515A" points="73 81 75 81 75 77 73 77"/>
    <polygon fill="#48515A" points="77 75 81 75 81 73 77 73"/>
    <polygon fill="#48515A" points="67 75 71 75 71 73 67 73"/>
    <polygon fill="#48515A" points="175 173 177 173 177 169 175 169"/>
    <polygon fill="#48515A" points="175 183 177 183 177 179 175 179"/>
    <polygon fill="#48515A" points="179 177 183 177 183 175 179 175"/>
    <polygon fill="#48515A" points="169 177 173 177 173 175 169 175"/>
    <polyline fill="#DEDEDD" points="209 155.391 193.435 148.72 190.762 150.324 198.994 158.556 196.166 161.384 188.055 153.273 186.43 156.541 193.227 173 198.061 163.28 206.172 171.391 209 168.562 200.768 160.33 209 155.391"/>
    <path fill="#48515A" d="M172.854,135.27 L183.306,160.579 L187.778,151.583 L196.166,159.97 L197.58,158.556 L189.149,150.125 L196.803,145.533 L172.854,135.27 Z M183.138,165.41 L169.134,131.499 L201.186,145.235 L192.374,150.522 L200.408,158.556 L196.166,162.798 L188.331,154.964 L183.138,165.41 Z"/>
    <polygon fill="#48515A" points="195.001 192.001 197.001 192.001 197.001 165 195.001 165"/>
    <path fill="#48515A" d="M94.069 131.141C92.452 131.141 91.14 132.452 91.14 134.069 91.14 135.687 92.451 136.999 94.069 136.999 95.686 136.999 96.998 135.688 96.998 134.07 96.998 134.07 96.998 134.07 96.998 134.069 96.996 132.453 95.686 131.142 94.069 131.141zM94.069 138.999C91.347 138.999 89.14 136.792 89.14 134.07 89.14 131.348 91.347 129.141 94.069 129.141 96.791 129.14 98.998 131.347 98.998 134.069 98.995 136.79 96.79 138.995 94.069 138.999zM105.071 142.143C103.454 142.143 102.143 143.454 102.143 145.071 102.143 146.689 103.454 148 105.071 148 106.689 148 108 146.689 108 145.071 107.998 143.454 106.688 142.144 105.071 142.143zM105.071 150C102.349 150 100.143 147.793 100.143 145.071 100.143 142.349 102.349 140.143 105.071 140.143 107.793 140.143 110 142.349 110 145.071 109.997 147.792 107.792 149.997 105.071 150z"/>
    <polyline fill="#48515A" points="90.22 147.507 107.507 130.22 108.921 131.634 91.634 148.921 90.22 147.507"/>
    <path fill="#FFD15D" d="M31 143C32.105 143 33 143.895 33 145 33 146.105 32.105 147 31 147 29.895 147 29 146.105 29 145 29 143.895 29.895 143 31 143M218 183C219.657 183 221 184.343 221 186 221 187.657 219.657 189 218 189 216.343 189 215 187.657 215 186 215 184.343 216.343 183 218 183M87 173C88.105 173 89 173.895 89 175 89 176.105 88.105 177 87 177 85.895 177 85 176.105 85 175 85 173.895 85.895 173 87 173M171 65C172.105 65 173 65.895 173 67 173 68.105 172.105 69 171 69 169.895 69 169 68.105 169 67 169 65.895 169.895 65 171 65"/>
    <path fill="#48515A" d="M34.001,102 C32.373,101.971 31.031,103.267 31.001,104.894 C31.001,104.916 31.001,104.937 31.001,104.959 C30.988,106.625 32.329,107.987 33.996,108 C33.998,108 33.999,108 34.001,108 L89.165,108 L95.672,105 L89.165,102 L34.001,102 Z M89.604,110 L34.001,110 C31.24,110 29.001,107.761 29.001,105 C29.001,102.239 31.24,100 34.001,100 L89.604,100 L100.447,105 L89.604,110 Z"/>
    <polygon fill="#48515A" points="40.041 109 42.041 109 42.041 101 40.041 101"/>
    <polygon fill="#48515A" points="41.041 106 89.041 106 89.041 104 41.041 104"/>
    <polygon fill="#48515A" points="212.996 102.958 214.996 102.958 214.996 98.957 212.996 98.957"/>
    <polygon fill="#48515A" points="212.996 112.958 214.996 112.958 214.996 108.958 212.996 108.958"/>
    <polygon fill="#48515A" points="216.996 106.958 220.996 106.958 220.996 104.958 216.996 104.958"/>
    <polygon fill="#48515A" points="206.996 106.958 210.996 106.958 210.996 104.958 206.996 104.958"/>
  </g>
</svg>
