<svg xmlns="http://www.w3.org/2000/svg" width="250" height="250" viewBox="0 0 250 250">
  <g fill="none" fill-rule="evenodd">
    <path fill="#DEDEDD" d="M188.926 152.918L188.926 136.583C191.079 135.903 192.754 134.202 193.401 132.039L209.805 132.039C208.817 143.135 200.022 151.93 188.926 152.918zM186.982 132.719C185.48 132.719 184.262 131.502 184.262 129.999 184.262 128.497 185.48 127.28 186.982 127.28 188.484 127.28 189.702 128.497 189.702 129.999 189.702 131.502 188.484 132.719 186.982 132.719zM184.847 152.918C173.751 151.93 164.956 143.135 163.968 132.039L180.494 132.039C181.153 134.123 182.772 135.764 184.847 136.452L184.847 152.918zM184.847 107.081L184.847 123.607C182.763 124.266 181.122 125.885 180.434 127.959L163.968 127.959C164.956 116.864 173.751 108.069 184.847 107.081zM188.926 107.081C200.022 108.069 208.817 116.864 209.805 127.96L193.47 127.96C192.79 125.808 191.089 124.132 188.926 123.485L188.926 107.081zM221.021 131.844C221.023 129.747 221.023 130.315 221.025 128.217L215.195 127.311C214.918 125.548 214.929 125.622 214.652 123.859L219.921 121.206C219.275 119.21 219.45 119.751 218.803 117.755L212.979 118.695C212.17 117.104 212.204 117.171 211.395 115.58L215.586 111.428C214.355 109.73 214.689 110.19 213.458 108.492L208.208 111.185C206.948 109.922 207.001 109.975 205.74 108.712L208.443 103.468C206.747 102.234 207.207 102.568 205.511 101.334L201.351 105.517C199.762 104.706 199.828 104.74 198.239 103.928L199.189 98.105C197.195 97.455 197.735 97.631 195.741 96.981L193.078 102.246C191.315 101.965 191.389 101.977 189.627 101.696L188.731 95.865C186.634 95.863 187.202 95.863 185.104 95.861L184.198 101.691C182.435 101.969 182.509 101.957 180.746 102.234L178.093 96.965C176.097 97.611 176.638 97.436 174.643 98.083L175.582 103.907C173.991 104.716 174.058 104.682 172.467 105.491L168.315 101.299C166.617 102.531 167.077 102.197 165.379 103.429L168.072 108.678C166.809 109.938 166.862 109.886 165.599 111.146L160.355 108.443C159.121 110.139 159.455 109.68 158.221 111.375L162.404 115.535C161.593 117.124 161.627 117.058 160.815 118.647L154.992 117.697C154.342 119.691 154.518 119.151 153.868 121.145L159.133 123.808C158.852 125.571 158.864 125.497 158.583 127.259L152.751 128.155C152.75 130.252 152.75 129.684 152.748 131.782L158.578 132.688C158.855 134.451 158.844 134.377 159.121 136.14L153.852 138.794C154.498 140.789 154.323 140.248 154.97 142.244L160.794 141.304C161.603 142.895 161.569 142.828 162.378 144.419L158.186 148.571C159.418 150.269 159.084 149.809 160.315 151.507L165.565 148.814C166.825 150.077 166.772 150.024 168.033 151.287L165.33 156.531C167.026 157.765 166.566 157.431 168.262 158.665L172.422 154.482C174.011 155.293 173.945 155.259 175.534 156.071L174.584 161.894C176.578 162.544 176.038 162.368 178.032 163.018L180.695 157.753C182.458 158.034 182.384 158.022 184.146 158.303L185.042 164.135 188.668 164.138 189.575 158.308C191.338 158.031 191.264 158.042 193.027 157.765L195.68 163.034C197.676 162.387 197.135 162.563 199.131 161.916L198.191 156.092C199.782 155.283 199.715 155.317 201.306 154.508L205.458 158.7C207.156 157.468 206.696 157.802 208.394 156.571L205.701 151.322C206.964 150.061 206.911 150.114 208.174 148.853L213.418 151.556C214.652 149.86 214.318 150.32 215.552 148.624L211.369 144.464C212.18 142.875 212.146 142.941 212.958 141.352L218.781 142.302C219.431 140.308 219.255 140.848 219.905 138.854L214.64 136.191C214.921 134.428 214.909 134.502 215.19 132.74L221.021 131.844zM77.93 182L77.927 182 77.93 181.842C80.096 181.885 81.886 180.165 81.929 177.999 81.972 175.834 80.252 174.043 78.086 174 78.034 173.999 77.982 173.999 77.93 174L73.976 174C76.17 174.016 77.938 175.803 77.93 177.997 77.93 180.207 76.139 183 73.93 183L65.935 183C63.679 182.845 61.943 180.946 61.99 178.685L61.99 178.687C62.069 180.143 62.29 181.587 62.65 183L52.473 183C50.66 183.034 48.888 182.464 47.434 181.38 46.29 180.491 44.882 180.005 43.433 180L37.99 180 37.99 184 29 184 29 195 43.433 195C44.856 195.013 46.238 195.481 47.377 196.336 48.841 197.411 50.609 197.994 52.425 198L73.93 198C76.17 197.927 77.944 196.085 77.934 193.844 77.865 192.42 77.149 191.104 75.99 190.273L75.99 190 77.93 190C80.139 190 81.93 188.209 81.93 186 81.93 183.791 80.139 182 77.93 182"/>
    <polyline fill="#48515A" points="38.99 185 29 185 29 183 36.99 183 36.99 146 29 146 29 144 38.99 144 38.99 185"/>
    <path fill="#48515A" d="M47.929 163.473L47.929 161.473C51.036 161.454 53.756 159.383 54.6 156.393L56.671 149 71.132 149C74.335 149.032 76.957 146.462 76.99 143.259 76.99 143.219 76.99 143.18 76.99 143.14L51.924 143.263C50.94 143.273 50.027 143.783 49.504 144.617L44.457 152 38.37 152 38.37 150 43.401 150 47.842 143.503C48.73 142.112 50.264 141.268 51.915 141.263L78.99 141.13 78.99 143.134C79.038 147.429 75.596 150.951 71.3 151 71.244 151.001 71.188 151.001 71.132 151L58.188 151 56.525 156.935C55.436 160.785 51.931 163.451 47.929 163.473M65.99 175C64.333 175 62.99 176.343 62.99 178 62.99 179.657 64.333 181 65.99 181L73.99 181C75.647 181 76.99 179.657 76.99 178 76.99 176.343 75.647 175 73.99 175L65.99 175zM73.99 183L65.99 183C63.228 183 60.99 180.761 60.99 178 60.99 175.239 63.228 173 65.99 173L73.99 173C76.751 173 78.99 175.239 78.99 178 78.99 180.761 76.751 183 73.99 183z"/>
    <path fill="#48515A" d="M65.99,167 C64.333,167 62.99,168.343 62.99,170 C62.99,171.657 64.333,173 65.99,173 L77.99,173 C79.647,173 80.99,171.657 80.99,170 C80.99,168.343 79.647,167 77.99,167 L65.99,167 Z M77.99,175 L65.99,175 C63.228,175 60.99,172.761 60.99,170 C60.99,167.239 63.228,165 65.99,165 L77.99,165 C80.751,165 82.99,167.239 82.99,170 C82.99,172.761 80.751,175 77.99,175 Z"/>
    <path fill="#48515A" d="M65.99,159 C64.333,159 62.99,160.343 62.99,162 C62.99,163.657 64.333,165 65.99,165 L77.99,165 C79.647,165 80.99,163.657 80.99,162 C80.99,160.343 79.647,159 77.99,159 L65.99,159 Z M77.99,167 L65.99,167 C63.228,167 60.99,164.761 60.99,162 C60.99,159.239 63.228,157 65.99,157 L77.99,157 C80.751,157 82.99,159.239 82.99,162 C82.99,164.761 80.751,167 77.99,167 Z"/>
    <path fill="#48515A" d="M65.99 151C64.333 151 62.99 152.343 62.99 154 62.99 155.657 64.333 157 65.99 157L77.99 157C79.647 157 80.99 155.657 80.99 154 80.99 152.343 79.647 151 77.99 151L65.99 151zM77.99 159L65.99 159C63.228 159 60.99 156.761 60.99 154 60.99 151.239 63.228 149 65.99 149L77.99 149C80.751 149 82.99 151.239 82.99 154 82.99 156.761 80.751 159 77.99 159zM51.642 183.002C50.124 183.14 48.605 182.76 47.331 181.925 46.169 181.196 44.798 180.871 43.433 181L36.99 181 36.99 179 43.433 179C45.23 178.863 47.023 179.328 48.527 180.322 49.453 181.013 50.643 181.003 52.028 181.001L52.425 181 65.99 181 65.99 183 52.038 183.001C51.906 183.002 51.774 183.002 51.642 183.002M51.99 137L83.99 137 83.99 111 51.99 111 51.99 137zM49.99 139L85.99 139 85.99 109 49.99 109 49.99 139z"/>
    <polyline fill="#48515A" points="144.99 163 139.772 163 84.559 138.666 85.365 136.835 140.193 161 142.99 161 142.99 87 140.194 87 85.367 111.288 84.557 109.459 139.771 85 144.99 85 144.99 163"/>
    <path fill="#48515A" d="M54.99,115 L56.99,115 L56.99,113 L54.99,113 L54.99,115 Z M58.99,115 L60.99,115 L60.99,113 L58.99,113 L58.99,115 Z M62.99,115 L64.99,115 L64.99,113 L62.99,113 L62.99,115 Z M66.99,115 L68.99,115 L68.99,113 L66.99,113 L66.99,115 Z M70.99,115 L72.99,115 L72.99,113 L70.99,113 L70.99,115 Z M74.99,115 L76.99,115 L76.99,113 L74.99,113 L74.99,115 Z M78.99,115 L80.99,115 L80.99,113 L78.99,113 L78.99,115 Z"/>
    <polygon fill="#48515A" points="56.99 143 58.99 143 58.99 138 56.99 138"/>
    <polyline fill="#48515A" points="61.99 173 56.99 173 56.99 151 58.99 151 58.99 171 61.99 171 61.99 173"/>
    <polygon fill="#48515A" points="68.99 142 70.99 142 70.99 138 68.99 138"/>
    <polyline fill="#48515A" points="50.99 134 40.99 134 40.99 115 49.99 115 49.99 117 42.99 117 42.99 132 50.99 132 50.99 134"/>
    <polyline fill="#DEDEDD" points="140.62 159 140.99 159 140.99 107.501 87.99 119.501 87.99 135.551 140.62 159"/>
    <polyline fill="#FFF" points="125.469 186.604 100.004 175.69 111.125 202.62 115.52 193.779 122.897 201.156 125.469 198.583 117.982 191.096 125.469 186.604"/>
    <path fill="#48515A" d="M101.864 177.576L111.209 200.204 115.244 192.089 122.897 199.742 124.055 198.583 116.37 190.898 123.278 186.753 101.864 177.576zM111.04 205.035L98.144 173.805 127.661 186.455 119.595 191.295 126.883 198.583 122.897 202.57 115.797 195.47 111.04 205.035zM51 90C49.343 90 48 91.343 48 93 48 94.657 49.343 96 51 96L86.153 96 92.659 93 86.153 90 51 90zM86.592 98L51 98C48.239 98 46 95.761 46 93 46 90.239 48.239 88 51 88L86.592 88 97.435 93 86.592 98z"/>
    <polygon fill="#48515A" points="56.98 97 58.98 97 58.98 89 56.98 89"/>
    <polygon fill="#48515A" points="57.98 94 85.98 94 85.98 92 57.98 92"/>
    <path fill="#F58E70" d="M146.983,54.644 C131.362,54.643 118.698,67.305 118.697,82.926 C118.697,85.975 119.19,89.004 120.156,91.896 L126.318,90.036 C122.395,78.622 128.467,66.188 139.882,62.265 C151.296,58.341 163.73,64.414 167.653,75.828 C171.576,87.243 165.504,99.676 154.089,103.6 C151.808,104.384 149.412,104.785 147,104.787 L147,111.215 C162.622,111.188 175.263,98.502 175.236,82.88 C175.209,67.29 162.572,54.662 146.983,54.644"/>
    <path fill="#DEDEDD" d="M160.979,83.5 L156.309,83.5 C156.31,83.546 156.316,83.591 156.316,83.637 C156.31,88.789 152.135,92.965 146.983,92.97 L146.983,97.637 C154.711,97.628 160.974,91.366 160.983,83.637 C160.983,83.591 160.98,83.546 160.979,83.5"/>
    <path fill="#48515A" d="M147,128.93 L147,126.93 L148.729,126.93 L147,128.93 Z M148.729,128.93 L148.781,128.93 L148.781,126.93 L148.729,126.93 L148.729,128.93 Z M151.291,128.93 L148.781,128.93 L149.799,127.752 L149.54,127.687 L152.213,117.008 L159.492,115.057 L166.603,122.409 L171.362,119.662 L168.551,109.827 L173.879,104.499 L183.714,107.309 L186.461,102.55 L179.11,95.438 L181.061,88.161 L190.982,85.677 L190.982,80.183 L181.061,77.699 L179.11,70.421 L186.461,63.309 L183.714,58.55 L173.879,61.361 L168.551,56.033 L171.362,46.198 L166.604,43.451 L159.492,50.802 L152.213,48.852 L149.729,38.93 L144.235,38.93 L141.752,48.852 L134.474,50.802 L127.362,43.451 L122.603,46.198 L125.413,56.033 L120.086,61.361 L110.251,58.55 L107.504,63.309 L114.855,70.421 L112.905,77.699 L102.982,80.183 L102.982,85.677 L112.905,88.161 L114.384,93.68 L112.452,94.197 L111.278,89.815 L100.982,87.238 L100.982,78.621 L111.278,76.045 L112.619,71.04 L104.991,63.661 L109.3,56.199 L119.504,59.115 L123.167,55.451 L120.251,45.247 L127.713,40.938 L135.093,48.566 L140.098,47.225 L142.674,36.93 L151.291,36.93 L153.868,47.225 L158.872,48.566 L166.251,40.938 L173.713,45.247 L170.797,55.451 L174.461,59.115 L184.665,56.199 L188.974,63.661 L181.347,71.04 L182.688,76.045 L192.982,78.621 L192.982,87.238 L182.688,89.815 L181.347,94.819 L188.974,102.199 L184.665,109.661 L174.461,106.745 L170.797,110.409 L173.713,120.613 L166.251,124.921 L158.872,117.293 L153.868,118.635 L151.291,128.93 Z"/>
    <path fill="#48515A" d="M146.982,112.215 L146.982,110.215 C162.037,110.2 174.228,97.984 174.213,82.93 C174.197,67.875 161.981,55.684 146.927,55.699 C131.873,55.715 119.681,67.931 119.697,82.985 C119.7,85.932 120.181,88.859 121.121,91.652 L119.225,92.29 C114.052,76.963 122.285,60.344 137.612,55.172 C152.94,49.999 169.558,58.231 174.731,73.559 C179.903,88.886 171.671,105.505 156.344,110.678 C153.328,111.695 150.166,112.215 146.982,112.215"/>
    <path fill="#48515A" d="M146.982,89.93 L146.982,87.93 C149.744,87.93 151.982,85.691 151.982,82.93 C151.982,80.168 149.744,77.93 146.982,77.93 C144.221,77.93 141.982,80.168 141.982,82.93 L139.982,82.93 C139.982,79.064 143.116,75.93 146.982,75.93 C150.848,75.93 153.982,79.064 153.982,82.93 C153.982,86.796 150.848,89.93 146.982,89.93"/>
    <path fill="#48515A" d="M146.982,94.215 L146.982,92.215 C152.111,92.215 156.268,88.058 156.268,82.93 C156.268,77.801 152.111,73.644 146.982,73.644 C141.854,73.644 137.697,77.801 137.697,82.93 L135.697,82.93 C135.697,76.697 140.749,71.644 146.982,71.644 C153.215,71.643 158.268,76.696 158.269,82.929 C158.269,89.162 153.216,94.215 146.983,94.215 C146.983,94.215 146.983,94.215 146.982,94.215"/>
    <path fill="#48515A" d="M146.982,101.287 L146.982,99.287 C156.006,99.276 163.312,91.953 163.301,82.93 C163.291,73.906 155.968,66.6 146.945,66.611 C137.921,66.621 130.615,73.944 130.626,82.967 C130.627,84.292 130.79,85.611 131.109,86.895 L129.169,87.379 C126.71,77.542 132.692,67.574 142.529,65.116 C152.366,62.657 162.333,68.638 164.792,78.475 C167.251,88.313 161.269,98.28 151.432,100.739 C149.977,101.103 148.482,101.287 146.982,101.287"/>
    <path fill="#DEDEDD" d="M116.29,93.063 L117.289,92.762 C116.234,89.591 115.697,86.271 115.697,82.93 L104.983,82.93 L104.983,84.115 L114.533,86.506 L116.29,93.063"/>
    <path fill="#48515A" d="M185.198,161.571 L183.198,161.569 C183.197,153.433 176.61,146.833 168.474,146.816 C160.334,146.808 153.729,153.4 153.721,161.54 L151.721,161.538 C151.729,152.3 159.221,144.816 168.459,144.816 L168.476,144.816 C177.716,144.836 185.196,152.331 185.198,161.571"/>
    <path fill="#F58E70" d="M168.468,152.975 C163.766,152.963 159.946,156.766 159.934,161.468 C159.923,166.17 163.726,169.99 168.427,170.001 C173.129,170.013 176.95,166.21 176.961,161.508 C176.969,158.302 175.174,155.363 172.318,153.905 C171.126,153.297 169.807,152.978 168.468,152.975 Z M168.447,172.985 C162.077,172.991 156.908,167.833 156.901,161.463 C156.895,155.093 162.054,149.924 168.424,149.917 C174.794,149.911 179.963,155.07 179.969,161.439 C179.974,166.435 176.762,170.866 172.013,172.416 C170.862,172.793 169.658,172.985 168.447,172.985 Z"/>
    <path fill="#48515A" d="M165.88,140.61 C165.838,140.061 166.25,139.582 166.799,139.54 L166.8,139.54 C167.345,139.495 167.823,139.9 167.868,140.445 C167.869,140.45 167.869,140.455 167.87,140.46 C167.911,141.009 167.5,141.488 166.951,141.53 L166.87,141.53 C166.35,141.53 165.918,141.128 165.88,140.61 Z M170.75,141.6 C170.207,141.537 169.817,141.047 169.88,140.504 C169.88,140.502 169.88,140.501 169.88,140.5 C169.941,139.954 170.433,139.56 170.98,139.62 C171.53,139.683 171.923,140.18 171.86,140.73 C171.801,141.232 171.375,141.611 170.87,141.61 C170.829,141.611 170.789,141.608 170.75,141.6 Z M161.97,141.48 C161.829,140.945 162.146,140.396 162.68,140.25 C163.21,140.107 163.755,140.42 163.9,140.95 C164.05,141.476 163.745,142.024 163.219,142.174 C163.213,142.176 163.206,142.178 163.2,142.18 C163.116,142.208 163.028,142.221 162.94,142.22 C162.489,142.214 162.095,141.913 161.97,141.48 Z M174.47,142.4 C173.947,142.237 173.654,141.68 173.817,141.157 C173.818,141.155 173.819,141.152 173.82,141.15 C173.985,140.624 174.546,140.332 175.072,140.498 C175.075,140.498 175.077,140.499 175.08,140.5 L175.07,140.5 C175.597,140.662 175.893,141.22 175.731,141.747 C175.731,141.748 175.73,141.749 175.73,141.75 C175.597,142.168 175.208,142.451 174.77,142.45 C174.668,142.448 174.567,142.431 174.47,142.4 Z M158.3,143.06 C158.063,142.566 158.268,141.972 158.76,141.73 C159.249,141.484 159.845,141.682 160.091,142.172 C160.094,142.178 160.097,142.184 160.1,142.19 C160.341,142.682 160.138,143.276 159.646,143.517 C159.644,143.518 159.642,143.519 159.64,143.52 C159.503,143.59 159.353,143.628 159.2,143.63 C158.816,143.627 158.467,143.406 158.3,143.06 Z M177.97,143.89 C177.488,143.621 177.311,143.016 177.57,142.53 C177.834,142.044 178.441,141.865 178.927,142.129 C178.928,142.129 178.929,142.129 178.93,142.13 C179.411,142.394 179.589,142.996 179.33,143.48 C179.159,143.807 178.819,144.012 178.45,144.01 C178.283,144.008 178.118,143.967 177.97,143.89 Z M155,145.32 C154.67,144.878 154.759,144.252 155.2,143.92 C155.635,143.585 156.258,143.667 156.593,144.101 C156.595,144.104 156.597,144.107 156.6,144.11 C156.929,144.552 156.84,145.178 156.4,145.51 C156.229,145.645 156.018,145.719 155.8,145.72 C155.486,145.718 155.19,145.57 155,145.32 Z M181.13,146 C180.706,145.651 180.644,145.026 180.99,144.6 C181.34,144.172 181.97,144.109 182.398,144.458 C182.399,144.459 182.399,144.46 182.4,144.46 C182.825,144.804 182.89,145.428 182.546,145.852 C182.544,145.855 182.542,145.857 182.54,145.86 C182.352,146.092 182.069,146.228 181.77,146.23 C181.536,146.233 181.309,146.151 181.13,146 Z M152.19,148.16 C151.783,147.786 151.747,147.157 152.11,146.74 C152.484,146.331 153.118,146.299 153.53,146.67 C153.938,147.039 153.97,147.67 153.602,148.078 C153.601,148.079 153.6,148.079 153.6,148.08 C153.411,148.29 153.142,148.41 152.86,148.41 C152.613,148.412 152.374,148.323 152.19,148.16 Z M183.84,148.68 C183.484,148.258 183.536,147.628 183.958,147.272 C183.959,147.271 183.959,147.271 183.96,147.27 C184.383,146.916 185.013,146.973 185.367,147.396 C185.368,147.398 185.369,147.399 185.37,147.4 C185.724,147.818 185.672,148.444 185.254,148.798 C185.249,148.802 185.245,148.806 185.24,148.81 C185.06,148.959 184.833,149.04 184.6,149.04 C184.305,149.042 184.025,148.909 183.84,148.68 Z M149.96,151.48 C149.491,151.193 149.34,150.583 149.62,150.11 C149.902,149.636 150.514,149.481 150.988,149.763 C150.992,149.765 150.996,149.768 151,149.77 C151.469,150.056 151.621,150.667 151.34,151.14 C151.157,151.439 150.831,151.621 150.48,151.62 C150.297,151.621 150.118,151.572 149.96,151.48 Z M185.98,151.82 C185.713,151.337 185.888,150.729 186.37,150.46 C186.856,150.195 187.464,150.374 187.73,150.86 C187.996,151.343 187.822,151.951 187.34,152.22 C187.191,152.297 187.027,152.338 186.86,152.34 C186.493,152.342 186.155,152.142 185.98,151.82 Z M148.4,155.16 C147.884,154.963 147.622,154.389 147.81,153.87 C148.007,153.354 148.581,153.092 149.1,153.28 C149.615,153.477 149.878,154.051 149.69,154.57 C149.543,154.961 149.168,155.22 148.75,155.22 C148.631,155.219 148.513,155.198 148.4,155.16 Z M187.48,155.3 C187.31,154.775 187.596,154.212 188.12,154.04 C188.644,153.87 189.208,154.156 189.38,154.68 C189.553,155.2 189.272,155.763 188.751,155.936 C188.748,155.938 188.744,155.939 188.74,155.94 C188.639,155.972 188.535,155.989 188.43,155.99 C187.998,155.988 187.615,155.71 187.48,155.3 Z M147.57,159.07 C147.025,158.984 146.653,158.473 146.738,157.928 C146.739,157.925 146.739,157.923 146.74,157.92 C146.829,157.377 147.342,157.009 147.885,157.099 C147.887,157.099 147.888,157.099 147.89,157.1 C148.434,157.185 148.807,157.696 148.721,158.241 C148.721,158.244 148.72,158.247 148.72,158.25 C148.634,158.73 148.217,159.079 147.73,159.08 C147.676,159.082 147.623,159.078 147.57,159.07 Z M188.31,159.01 C188.239,158.469 188.619,157.974 189.159,157.902 C189.166,157.902 189.173,157.901 189.18,157.9 C189.72,157.828 190.216,158.207 190.289,158.748 C190.289,158.752 190.29,158.756 190.29,158.76 C190.36,159.306 189.976,159.806 189.43,159.88 C189.38,159.88 189.34,159.89 189.3,159.89 C188.794,159.891 188.368,159.512 188.31,159.01 Z M146.46,162.1 C146.438,161.553 146.865,161.092 147.411,161.07 C147.417,161.07 147.424,161.07 147.43,161.07 C147.982,161.055 148.442,161.488 148.46,162.04 C148.475,162.592 148.041,163.052 147.49,163.07 L147.46,163.07 C146.92,163.068 146.478,162.639 146.46,162.1 Z M189.35,163.88 C188.798,163.84 188.383,163.362 188.42,162.81 C188.459,162.262 188.931,161.847 189.48,161.88 C190.035,161.916 190.456,162.395 190.42,162.95 C190.378,163.472 189.944,163.876 189.42,163.88 L189.35,163.88 Z M146.98,166.25 C146.859,165.709 147.199,165.172 147.74,165.05 C148.277,164.93 148.809,165.268 148.929,165.805 C148.929,165.807 148.929,165.808 148.93,165.81 C149.047,166.351 148.709,166.885 148.17,167.01 C148.1,167.021 148.03,167.028 147.96,167.03 C147.491,167.03 147.085,166.707 146.98,166.25 Z M188.52,167.79 C187.985,167.653 187.662,167.107 187.799,166.572 C187.799,166.571 187.8,166.57 187.8,166.57 C187.94,166.032 188.489,165.709 189.027,165.849 C189.028,165.849 189.029,165.849 189.03,165.85 C189.564,165.995 189.881,166.545 189.74,167.08 C189.621,167.518 189.223,167.821 188.77,167.82 C188.686,167.82 188.602,167.81 188.52,167.79 Z M148.27,170.22 C148.051,169.717 148.281,169.132 148.784,168.912 C148.786,168.911 148.788,168.911 148.79,168.91 C149.297,168.688 149.888,168.92 150.109,169.427 C150.109,169.428 150.11,169.429 150.11,169.43 C150.323,169.941 150.087,170.528 149.58,170.75 C149.456,170.801 149.324,170.829 149.19,170.83 C148.788,170.83 148.426,170.59 148.27,170.22 Z M186.96,171.47 C186.463,171.234 186.252,170.639 186.488,170.143 C186.489,170.142 186.489,170.141 186.49,170.14 C186.724,169.644 187.315,169.432 187.811,169.666 C187.814,169.667 187.817,169.669 187.82,169.67 C188.316,169.904 188.528,170.496 188.294,170.992 C188.293,170.995 188.291,170.997 188.29,171 C188.125,171.348 187.774,171.569 187.39,171.57 C187.24,171.571 187.093,171.537 186.96,171.47 Z M150.29,173.89 C149.977,173.437 150.091,172.816 150.544,172.504 C150.546,172.503 150.548,172.501 150.55,172.5 C151.006,172.191 151.626,172.307 151.94,172.76 C152.249,173.216 152.133,173.836 151.68,174.15 C151.516,174.266 151.32,174.329 151.12,174.33 C150.787,174.328 150.477,174.164 150.29,173.89 Z M184.73,174.79 C184.287,174.46 184.193,173.835 184.52,173.39 C184.852,172.952 185.473,172.858 185.92,173.18 C186.364,173.505 186.461,174.128 186.136,174.572 C186.134,174.575 186.132,174.577 186.13,174.58 C185.943,174.836 185.646,174.988 185.33,174.99 C185.114,174.988 184.904,174.918 184.73,174.79 Z M152.97,177.1 C152.578,176.721 152.567,176.096 152.946,175.704 C152.95,175.7 152.955,175.695 152.96,175.69 C153.346,175.298 153.976,175.293 154.368,175.678 C154.369,175.679 154.369,175.679 154.37,175.68 C154.764,176.064 154.773,176.697 154.388,177.092 C154.385,177.094 154.383,177.097 154.38,177.1 C154.191,177.286 153.936,177.391 153.67,177.39 C153.407,177.393 153.153,177.288 152.97,177.1 Z M181.92,177.63 C181.547,177.225 181.573,176.594 181.978,176.221 C181.979,176.221 181.979,176.22 181.98,176.22 C182.384,175.847 183.014,175.873 183.387,176.277 C183.388,176.278 183.389,176.279 183.39,176.28 C183.763,176.677 183.743,177.302 183.345,177.675 C183.34,177.68 183.335,177.685 183.33,177.69 C183.149,177.863 182.909,177.959 182.66,177.96 C182.378,177.96 182.109,177.84 181.92,177.63 Z M156.2,179.75 C155.745,179.438 155.624,178.819 155.93,178.36 C156.237,177.902 156.858,177.78 157.316,178.087 C157.317,178.088 157.319,178.089 157.32,178.09 C157.778,178.398 157.9,179.018 157.592,179.477 C157.591,179.478 157.591,179.479 157.59,179.48 C157.402,179.754 157.092,179.918 156.76,179.92 C156.561,179.917 156.367,179.859 156.2,179.75 Z M178.62,179.89 C178.331,179.417 178.479,178.801 178.95,178.51 C179.417,178.222 180.029,178.368 180.317,178.835 C180.318,178.837 180.319,178.838 180.32,178.84 C180.612,179.309 180.469,179.926 180,180.22 C179.841,180.318 179.656,180.367 179.47,180.36 C179.124,180.362 178.801,180.184 178.62,179.89 Z M159.88,181.74 C159.377,181.519 159.141,180.938 159.35,180.43 C159.564,179.922 160.15,179.684 160.658,179.899 C160.658,179.899 160.659,179.9 160.66,179.9 C161.166,180.109 161.406,180.69 161.196,181.195 C161.194,181.2 161.192,181.205 161.19,181.21 C161.034,181.58 160.671,181.82 160.27,181.82 C160.136,181.818 160.004,181.79 159.88,181.74 Z M174.95,181.48 C174.758,180.964 175.016,180.389 175.53,180.19 C176.039,179.991 176.614,180.242 176.813,180.752 C176.815,180.758 176.817,180.764 176.82,180.77 C177.018,181.282 176.763,181.858 176.251,182.056 C176.247,182.057 176.243,182.059 176.24,182.06 C176.127,182.098 176.009,182.118 175.89,182.12 C175.473,182.125 175.098,181.869 174.95,181.48 Z M163.87,183 C163.332,182.883 162.992,182.352 163.109,181.814 C163.109,181.813 163.109,181.811 163.11,181.81 C163.222,181.272 163.749,180.927 164.287,181.04 C164.288,181.04 164.289,181.04 164.29,181.04 C164.831,181.156 165.175,181.689 165.06,182.23 C164.959,182.691 164.551,183.02 164.08,183.02 C164.009,183.018 163.939,183.012 163.87,183 Z M171.05,182.35 C170.95,181.81 171.308,181.292 171.847,181.192 C171.852,181.191 171.856,181.191 171.86,181.19 C172.403,181.097 172.92,181.458 173.02,182 C173.115,182.545 172.751,183.063 172.206,183.158 C172.204,183.159 172.202,183.159 172.2,183.16 C172.143,183.169 172.087,183.172 172.03,183.17 C171.548,183.17 171.135,182.824 171.05,182.35 Z M168.03,183.48 C167.478,183.467 167.041,183.012 167.05,182.46 C167.062,181.908 167.518,181.471 168.07,181.48 C168.621,181.492 169.059,181.948 169.05,182.5 C169.036,183.043 168.593,183.477 168.05,183.48 L168.03,183.48 Z"/>
    <path fill="#48515A" d="M176.107,197.887 L174.28,192.247 C173.696,190.319 171.903,189.013 169.889,189.049 L169.884,189.049 C167.872,189.011 166.078,190.313 165.491,192.237 L163.652,197.874 L153.201,194.466 L155.039,188.829 C155.83,186.403 154.504,183.794 152.078,183.003 C150.672,182.545 149.131,182.787 147.933,183.655 L143.133,187.135 L136.68,178.234 L141.48,174.755 C143.547,173.257 144.008,170.368 142.51,168.301 C141.642,167.104 140.253,166.394 138.773,166.393 L132.843,166.386 L132.854,162.549 L134.854,162.555 L134.849,164.388 L138.775,164.393 C142.432,164.396 145.393,167.364 145.389,171.02 C145.387,173.14 144.37,175.13 142.654,176.374 L139.473,178.68 L143.578,184.342 L146.759,182.036 C149.719,179.89 153.859,180.549 156.006,183.51 C157.25,185.226 157.597,187.434 156.94,189.449 L155.722,193.184 L162.371,195.352 L163.589,191.617 C164.451,188.873 167.008,187.017 169.883,187.049 L169.891,187.049 C172.77,187.02 175.326,188.882 176.183,191.63 L177.393,195.369 L184.047,193.214 L182.837,189.477 C181.71,185.998 183.617,182.265 187.096,181.138 C189.112,180.485 191.319,180.837 193.033,182.085 L196.209,184.398 L200.326,178.744 L197.15,176.432 C194.194,174.279 193.543,170.138 195.695,167.182 C196.941,165.471 198.93,164.458 201.046,164.458 L201.054,164.458 L204.983,164.462 L204.99,157.618 L201.061,157.614 C197.405,157.611 194.443,154.644 194.447,150.987 C194.449,148.868 195.466,146.877 197.182,145.633 L200.362,143.327 L196.257,137.665 L193.076,139.972 C190.115,142.118 185.975,141.458 183.829,138.498 C182.585,136.782 182.238,134.574 182.895,132.559 L184.112,128.824 L177.463,126.656 L176.245,130.392 C175.384,133.136 172.827,134.992 169.951,134.96 L169.944,134.96 C167.065,134.989 164.508,133.127 163.652,130.379 L162.441,126.641 L155.788,128.796 L156.998,132.534 C158.125,136.012 156.218,139.746 152.739,140.872 C150.723,141.525 148.516,141.174 146.802,139.926 L147.979,138.309 C150.042,139.812 152.932,139.357 154.435,137.294 C155.306,136.098 155.551,134.557 155.096,133.15 L153.269,127.51 L163.727,124.123 L165.554,129.763 C166.139,131.69 167.932,132.996 169.946,132.96 L169.951,132.96 C171.963,132.998 173.756,131.696 174.344,129.771 L176.182,124.135 L186.634,127.543 L184.796,133.179 C184.005,135.606 185.331,138.214 187.757,139.005 C189.164,139.463 190.704,139.221 191.902,138.353 L196.702,134.872 L203.155,143.772 L198.355,147.252 C196.289,148.75 195.828,151.639 197.326,153.706 C198.194,154.903 199.584,155.613 201.063,155.614 L206.992,155.62 L206.981,166.464 L201.052,166.458 L201.046,166.458 C198.494,166.459 196.426,168.528 196.426,171.08 C196.427,172.557 197.133,173.945 198.328,174.814 L203.12,178.304 L196.649,187.191 L191.856,183.702 C189.793,182.199 186.903,182.654 185.4,184.717 C184.529,185.913 184.284,187.453 184.739,188.86 L186.565,194.501 L176.107,197.887"/>
    <polygon fill="#48515A" points="35 65 37 65 37 61 35 61"/>
    <polygon fill="#48515A" points="35 75 37 75 37 71 35 71"/>
    <polygon fill="#48515A" points="39 69 43 69 43 67 39 67"/>
    <polygon fill="#48515A" points="29 69 33 69 33 67 29 67"/>
    <polygon fill="#48515A" points="213 169 215 169 215 165 213 165"/>
    <polygon fill="#48515A" points="213 179 215 179 215 175 213 175"/>
    <polygon fill="#48515A" points="217 173 221 173 221 171 217 171"/>
    <polygon fill="#48515A" points="207 173 211 173 211 171 207 171"/>
  </g>
</svg>
