<svg xmlns="http://www.w3.org/2000/svg" width="250" height="250" viewBox="0 0 250 250">
  <g fill="none" fill-rule="evenodd">
    <polyline fill="#48515A" points="32.521 192.712 29.108 192.712 29.108 190.712 31.691 190.712 51.543 170.809 61.036 180.3 65.012 176.324 66.426 177.738 61.036 183.128 51.545 173.639 32.521 192.712"/>
    <path fill="#FFD15D" d="M134.051,181.22 L116.057,181.22 L116.057,166.215 C109.435,161.251 108.091,151.859 113.055,145.237 C115.887,141.46 120.333,139.238 125.054,139.24 L125.056,139.24 C133.335,139.241 140.047,145.953 140.047,154.232 C140.035,158.945 137.815,163.379 134.051,166.213 L134.051,181.22 Z M69.088,204.999 L182.999,204.999 L182.999,115.001 L69.088,115.001 L69.088,204.999 Z"/>
    <path fill="#DEDEDD" d="M85.024,111.257 L87.02,111.257 L87.02,83.773 C87.02,62.797 104.024,45.793 125.001,45.793 C144.62,45.793 161.011,60.737 162.819,80.273 L164.823,80.273 C162.89,58.28 143.493,42.018 121.5,43.951 C100.858,45.766 85.025,63.052 85.024,83.773 L85.024,111.257"/>
    <path fill="#48515A" d="M132.051,179.219 L118.057,179.219 L118.057,165.171 C112.012,161.311 110.242,153.281 114.102,147.236 C116.489,143.499 120.619,141.237 125.054,141.24 C127.092,141.234 129.104,141.712 130.921,142.636 L130.017,144.42 C128.479,143.639 126.778,143.234 125.054,143.24 C118.986,143.236 114.064,148.153 114.06,154.221 C114.058,158.15 116.155,161.782 119.558,163.745 L120.057,164.034 L120.057,177.219 L130.051,177.219 L130.051,164.032 L130.55,163.743 C135.715,160.764 137.561,154.209 134.709,148.973 L136.465,148.014 C139.728,154.004 137.8,161.498 132.051,165.169 L132.051,179.219 Z M187,208.999 L65.088,208.999 L65.088,111.001 L187,111.001 L187,113.001 L67.088,113.001 L67.088,206.999 L184.999,206.999 L184.999,123 L186.999,123 L187,208.999 Z"/>
    <path fill="#48515A" d="M132.051,179.219 L118.057,179.219 L118.057,165.171 C112.012,161.311 110.242,153.281 114.102,147.236 C116.489,143.499 120.619,141.237 125.054,141.24 L125.054,143.24 C118.986,143.236 114.064,148.153 114.06,154.221 C114.058,158.15 116.155,161.782 119.558,163.745 L120.057,164.033 L120.057,177.219 L130.051,177.219 L130.051,164.032 L130.55,163.743 C133.942,161.775 136.035,158.154 136.047,154.232 L138.047,154.232 C138.034,158.659 135.776,162.778 132.051,165.169 L132.051,179.219"/>
    <polyline fill="#48515A" points="125.071 155.662 116.587 147.178 118.001 145.764 125.071 152.833 158.993 118.912 170.986 130.905 218.795 83.066 220.209 84.48 170.986 133.734 158.993 121.74 125.071 155.662"/>
    <polyline fill="#48515A" points="220.502 95.767 218.502 95.767 218.502 84.773 207.509 84.773 207.509 82.773 220.502 82.773 220.502 95.767"/>
    <path fill="#48515A" d="M91.02 111.255L89.02 111.255 89.02 83.773C89.019 63.902 105.128 47.793 125 47.793 144.288 47.793 160.145 63.002 160.949 82.273L166.949 82.273C166.12 59.106 146.668 40.996 123.5 41.825 100.916 42.633 83.025 61.175 83.024 83.773L83.024 111.255 81.024 111.255 81.024 83.773C81.025 59.486 100.714 39.798 125.001 39.799 149.088 39.799 168.692 59.177 168.973 83.262L168.984 84.273 158.99 84.273 158.977 83.288C158.707 64.523 143.277 49.529 124.512 49.799 105.938 50.065 91.021 65.198 91.02 83.773L91.02 111.255M151.872 188.93L207.037 188.93C208.699 188.922 210.041 187.571 210.037 185.909 210.052 184.279 208.743 182.945 207.113 182.929 207.088 182.929 207.062 182.929 207.037 182.93L151.872 182.93 145.365 185.93 151.872 188.93zM207.037 190.93L151.433 190.93 140.59 185.93 151.433 180.93 207.037 180.93C209.798 180.93 212.037 183.168 212.037 185.93 212.037 188.691 209.798 190.93 207.037 190.93z"/>
    <polygon fill="#48515A" points="198.996 189.93 200.996 189.93 200.996 181.93 198.996 181.93"/>
    <polygon fill="#48515A" points="151.996 186.93 199.996 186.93 199.996 184.93 151.996 184.93"/>
    <polygon fill="#48515A" points="35.044 126.989 37.044 126.989 37.044 122.989 35.044 122.989"/>
    <polygon fill="#48515A" points="35.044 136.989 37.044 136.989 37.044 132.989 35.044 132.989"/>
    <polygon fill="#48515A" points="39.044 130.989 43.044 130.989 43.044 128.989 39.044 128.989"/>
    <polygon fill="#48515A" points="29.044 130.989 33.044 130.989 33.044 128.989 29.044 128.989"/>
    <polygon fill="#48515A" points="181.056 50.983 183.056 50.983 183.056 46.983 181.056 46.983"/>
    <polygon fill="#48515A" points="181.056 60.983 183.056 60.983 183.056 56.983 181.056 56.983"/>
    <polygon fill="#48515A" points="185.056 54.983 189.056 54.983 189.056 52.983 185.056 52.983"/>
    <polygon fill="#48515A" points="175.056 54.983 179.056 54.983 179.056 52.983 175.056 52.983"/>
    <polygon fill="#48515A" points="213.055 155.001 215.055 155.001 215.055 151.001 213.055 151.001"/>
    <polygon fill="#48515A" points="213.055 165.001 215.055 165.001 215.055 161.001 213.055 161.001"/>
    <polygon fill="#48515A" points="217.055 159.001 221.055 159.001 221.055 157.001 217.055 157.001"/>
    <polygon fill="#48515A" points="207.055 159.001 211.055 159.001 211.055 157.001 207.055 157.001"/>
    <polyline fill="#DEDEDD" points="145.903 87.048 130.339 80.377 127.665 81.981 135.897 90.213 133.069 93.041 124.958 84.93 123.334 88.197 130.131 104.657 134.964 94.937 143.075 103.048 145.903 100.219 137.671 91.987 145.903 87.048"/>
    <path fill="#48515A" d="M109.758,66.927 L120.209,92.236 L124.682,83.24 L133.069,91.627 L134.483,90.213 L126.053,81.782 L133.706,77.19 L109.758,66.927 Z M120.04,97.067 L106.037,63.156 L138.089,76.893 L129.277,82.18 L137.311,90.213 L133.069,94.456 L125.234,86.621 L120.04,97.067 Z"/>
  </g>
</svg>
