<svg xmlns="http://www.w3.org/2000/svg" width="250" height="250" viewBox="0 0 250 250">
  <g fill="none" fill-rule="evenodd">
    <path fill="#5FE0ED" d="M182.611,107.061 L178.549,127.959 C176.723,128.37 175.118,129.452 174.053,130.992 L153.155,126.929 C157.062,114.191 169.337,105.912 182.611,107.061 Z M208.318,137.652 L187.42,133.59 C187.009,131.764 185.927,130.16 184.389,129.095 L188.451,108.196 C201.189,112.104 209.467,124.378 208.318,137.652 Z M177.728,163.359 L181.791,142.461 C183.616,142.05 185.22,140.968 186.285,139.429 L207.183,143.491 C203.276,156.229 191.002,164.508 177.728,163.359 Z M180.736,132.289 C182.348,132.603 183.401,134.164 183.088,135.777 C182.775,137.389 181.213,138.442 179.601,138.129 C177.988,137.816 176.935,136.254 177.249,134.642 C177.562,133.029 179.123,131.976 180.735,132.289 L180.736,132.289 Z M152.02,132.769 L172.918,136.831 C173.329,138.657 174.411,140.262 175.951,141.326 L171.889,162.225 C159.15,158.317 150.871,146.043 152.02,132.769 Z M141.167,125.416 L140.052,131.149 L145.52,133.34 C145.532,136.01 145.532,136.181 145.544,138.85 L140.096,141.089 C140.749,144.3 140.607,143.6 141.26,146.811 L147.15,146.743 C148.182,149.205 148.248,149.363 149.281,151.825 L145.104,155.978 C146.937,158.695 146.537,158.102 148.37,160.82 L153.785,158.503 C155.681,160.382 155.802,160.502 157.698,162.382 L155.428,167.817 C158.161,169.626 157.566,169.232 160.299,171.04 L164.415,166.827 C166.886,167.838 167.044,167.903 169.515,168.914 L169.498,174.804 L175.231,175.918 L177.422,170.451 C180.091,170.439 180.262,170.438 182.932,170.426 L185.17,175.875 C188.382,175.222 187.682,175.364 190.893,174.71 L190.825,168.821 C193.287,167.788 193.444,167.722 195.906,166.69 L200.059,170.867 C202.776,169.034 202.184,169.434 204.901,167.601 L202.584,162.186 C204.464,160.29 204.584,160.168 206.463,158.273 L211.899,160.542 C213.707,157.809 213.313,158.405 215.122,155.672 L210.909,151.556 C211.92,149.085 211.985,148.927 212.995,146.456 L218.886,146.473 L220,140.74 L214.533,138.549 C214.521,135.879 214.52,135.708 214.508,133.039 L219.957,130.8 C219.303,127.589 219.446,128.289 218.792,125.077 L212.903,125.146 C211.87,122.683 211.804,122.526 210.772,120.064 L214.949,115.911 C213.116,113.194 213.515,113.786 211.683,111.069 L206.267,113.386 C204.372,111.507 204.25,111.387 202.354,109.507 L204.624,104.072 L199.754,100.848 L195.637,105.061 C193.167,104.051 193.008,103.986 190.538,102.975 L190.555,97.085 L184.822,95.97 L182.631,101.438 C179.961,101.45 179.79,101.451 177.121,101.462 L174.882,96.014 L169.159,97.178 L169.227,103.068 C166.766,104.101 166.608,104.166 164.146,105.199 L159.993,101.022 C157.276,102.855 157.868,102.455 155.151,104.288 L157.468,109.703 C155.589,111.599 155.469,111.72 153.589,113.616 L148.154,111.347 C146.345,114.08 146.739,113.484 144.93,116.217 L149.143,120.333 C148.133,122.804 148.068,122.962 147.057,125.433 L141.167,125.416 Z"/>
    <path fill="#FFD45C" d="M133.885,75.344 C137.37,71.86 143.02,71.86 146.505,75.344 C149.989,78.829 149.989,84.479 146.505,87.964 C143.02,91.449 137.37,91.449 133.885,87.964 C130.4,84.479 130.4,78.83 133.885,75.345 C133.885,75.345 133.885,75.345 133.885,75.344 Z M120.84,98.968 L122.881,101.009 L129.976,96.754 L132.227,98.054 L132.09,106.326 C133.585,106.726 133.382,106.672 134.877,107.072 L138.895,99.841 C140.061,99.841 140.328,99.841 141.495,99.841 L145.512,107.072 C147.007,106.672 146.804,106.726 148.299,106.326 L148.162,98.054 C149.173,97.471 149.403,97.337 150.414,96.754 L157.509,101.008 L159.549,98.968 L155.295,91.873 C155.878,90.863 156.011,90.632 156.595,89.621 L164.866,89.758 C165.267,88.263 165.212,88.466 165.613,86.971 L158.381,82.954 C158.382,81.787 158.381,81.52 158.381,80.354 L165.613,76.337 C165.212,74.841 165.267,75.045 164.866,73.549 L156.595,73.686 L155.295,71.435 L159.549,64.34 L157.509,62.299 L150.414,66.554 L148.162,65.254 L148.299,56.982 C146.804,56.582 147.007,56.636 145.512,56.236 L141.495,63.467 C140.328,63.467 140.062,63.467 138.895,63.467 L134.878,56.236 C133.382,56.636 133.586,56.582 132.09,56.982 L132.227,65.254 C131.217,65.837 130.986,65.97 129.976,66.554 L122.881,62.3 L120.84,64.34 L125.095,71.435 C124.511,72.445 124.378,72.676 123.795,73.687 L115.523,73.55 C115.123,75.045 115.177,74.842 114.776,76.337 L122.008,80.354 C122.008,81.521 122.008,81.787 122.008,82.954 L114.776,86.971 C115.177,88.466 115.123,88.263 115.523,89.758 L123.795,89.621 L125.095,91.873 L120.84,98.968 Z"/>
    <path fill="#DEDEDD" d="M83.804,177.079 L83.804,152.785 C87.005,151.774 89.497,149.243 90.458,146.028 L114.855,146.028 C113.385,162.529 100.306,175.608 83.804,177.079 Z M80.912,147.039 C78.678,147.039 76.867,145.228 76.867,142.994 C76.867,140.76 78.678,138.949 80.912,138.949 C83.147,138.949 84.958,140.76 84.958,142.994 C84.958,145.228 83.147,147.039 80.912,147.039 Z M77.736,177.079 C61.235,175.609 48.156,162.529 46.686,146.028 L71.264,146.028 C72.244,149.127 74.651,151.568 77.736,152.591 L77.736,177.079 Z M77.737,108.909 L77.737,133.488 C74.637,134.468 72.197,136.875 71.174,139.96 L46.686,139.96 C48.156,123.459 61.235,110.38 77.737,108.909 Z M83.804,108.909 C100.306,110.38 113.385,123.459 114.855,139.96 L90.561,139.96 C89.55,136.76 87.02,134.268 83.804,133.306 L83.804,108.909 Z M131.536,145.738 C131.539,142.618 131.538,143.463 131.541,140.344 L122.871,138.996 C122.458,136.374 122.475,136.484 122.063,133.863 L129.899,129.916 C128.938,126.948 129.198,127.752 128.237,124.785 L119.575,126.182 C118.372,123.816 118.422,123.915 117.22,121.55 L123.453,115.374 C121.622,112.849 122.118,113.534 120.287,111.008 L112.48,115.014 C110.605,113.135 110.684,113.214 108.809,111.336 L112.829,103.537 C110.307,101.701 110.99,102.198 108.468,100.362 L102.282,106.584 C99.918,105.377 100.017,105.428 97.654,104.221 L99.067,95.561 C96.101,94.594 96.904,94.856 93.939,93.89 L89.978,101.719 C87.357,101.301 87.466,101.319 84.846,100.901 L83.514,92.229 C80.394,92.226 81.24,92.227 78.12,92.224 L76.772,100.894 C74.151,101.307 74.26,101.289 71.639,101.702 L67.692,93.866 C64.725,94.827 65.529,94.566 62.561,95.528 L63.958,104.19 C61.592,105.392 61.692,105.342 59.326,106.545 L53.151,100.311 C50.625,102.143 51.31,101.647 48.784,103.478 L52.79,111.284 C50.911,113.159 50.99,113.081 49.112,114.956 L41.313,110.936 C39.477,113.458 39.974,112.774 38.138,115.296 L44.36,121.483 C43.153,123.846 43.204,123.747 41.997,126.111 L33.337,124.698 C32.371,127.664 32.632,126.86 31.666,129.826 L39.495,133.787 C39.077,136.408 39.095,136.298 38.677,138.919 L30.005,140.251 C30.002,143.37 30.003,142.525 30,145.644 L38.67,146.992 C39.083,149.614 39.065,149.504 39.478,152.126 L31.642,156.073 C32.603,159.04 32.343,158.236 33.304,161.204 L41.966,159.806 C43.169,162.172 43.118,162.073 44.321,164.439 L38.088,170.614 C39.919,173.139 39.423,172.455 41.254,174.98 L49.061,170.975 C50.935,172.853 50.857,172.775 52.732,174.653 L48.712,182.452 C51.234,184.288 50.55,183.79 53.072,185.626 L59.259,179.404 C61.622,180.611 61.523,180.561 63.887,181.768 L62.474,190.427 C65.44,191.394 64.636,191.132 67.602,192.099 L71.563,184.27 C74.184,184.687 74.074,184.67 76.695,185.087 L78.027,193.76 L83.421,193.764 L84.769,185.095 C87.39,184.682 87.28,184.699 89.902,184.286 L93.849,192.123 C96.816,191.161 96.012,191.422 98.98,190.461 L97.583,181.799 C99.948,180.596 99.849,180.646 102.215,179.444 L108.39,185.677 C110.915,183.846 110.231,184.342 112.756,182.511 L108.751,174.704 C110.629,172.829 110.551,172.908 112.429,171.033 L120.228,175.053 C122.064,172.531 121.566,173.214 123.402,170.692 L117.18,164.506 C118.387,162.142 118.337,162.241 119.544,159.878 L128.203,161.291 C129.17,158.325 128.908,159.129 129.875,156.163 L122.046,152.202 C122.463,149.581 122.446,149.691 122.863,147.07 L131.536,145.738 Z"/>
    <path fill="#DFE0E0" d="M126.021,137.066 C121.015,137.066 116.956,133.008 116.956,128.002 C116.956,122.996 121.014,118.937 126.021,118.937 C131.027,118.937 135.085,122.996 135.085,128.002 C135.08,133.006 131.025,137.061 126.021,137.066 Z M127.021,116.988 L127.021,92.776 L125.021,92.776 L125.021,116.988 C118.942,117.533 114.456,122.902 115,128.981 C115.202,131.225 116.083,133.353 117.527,135.081 L90.088,162.521 L91.502,163.935 L118.941,136.495 C123.632,140.408 130.606,139.777 134.519,135.087 C138.431,130.396 137.8,123.422 133.11,119.51 C131.384,118.07 129.26,117.19 127.021,116.988 Z"/>
    <path fill="#DFE0E0" d="M199.02,125 C199.02,84.131 165.889,51 125.02,51 C84.151,51 51.02,84.131 51.02,125 C51.02,126.007 51.056,127.005 51.096,128.002 C52.702,88.337 85.323,57.007 125.02,57.004 C164.718,57.007 197.339,88.337 198.944,128.002 C198.984,127.005 199.02,126.007 199.02,125"/>
    <path fill="#48515A" d="M125.02,48 C82.495,48 48.02,82.474 48.02,125 C48.02,167.525 82.494,202 125.019,202 C167.545,202 202.02,167.526 202.02,125.001 C202.02,125 202.02,125 202.02,125 C201.972,82.494 167.526,48.048 125.02,48 Z M125.02,204 C81.392,204.386 45.711,169.327 45.325,125.698 C44.94,82.069 79.995,46.389 123.624,46.003 C124.089,45.999 124.555,45.999 125.02,46 C168.651,46 204.02,81.37 204.02,125 C204.02,168.631 168.651,204 125.02,204 Z"/>
    <polygon fill="#48515A" points="123.113 80.679 125.113 80.679 125.113 60.55 123.113 60.55"/>
    <polygon fill="#48515A" points="122.926 189.857 124.926 189.857 124.926 169.728 122.926 169.728"/>
    <polygon fill="#48515A" points="169.704 124.063 189.832 124.063 189.832 122.063 169.704 122.063"/>
    <polygon fill="#48515A" points="59.601 126 79.73 126 79.73 124 59.601 124"/>
    <polyline fill="#48515A" points="171.875 96.498 180.592 91.466 181.592 93.199 172.875 98.23 171.875 96.498"/>
    <polyline fill="#48515A" points="67.449 155.135 76.165 150.103 77.165 151.836 68.449 156.867 67.449 155.135"/>
    <polyline fill="#48515A" points="152.79 77.77 157.822 69.053 159.554 70.053 154.523 78.77 152.79 77.77"/>
    <polyline fill="#48515A" points="92.195 181.061 97.226 172.344 98.959 173.344 93.927 182.061 92.195 181.061"/>
    <polyline fill="#48515A" points="92.382 69.126 94.114 68.126 99.146 76.843 97.414 77.843 92.382 69.126"/>
    <polyline fill="#48515A" points="152.623 172.272 154.355 171.272 159.388 179.988 157.655 180.988 152.623 172.272"/>
    <polyline fill="#48515A" points="69.49 91.407 70.49 89.674 79.207 94.707 78.206 96.439 69.49 91.407"/>
    <polyline fill="#48515A" points="173.709 150.106 174.709 148.374 183.425 153.406 182.425 155.138 173.709 150.106"/>
    <path fill="#F58E70" d="M124.02,118 C127.886,118 131.02,121.134 131.02,125 C131.02,128.866 127.886,132 124.02,132 C120.154,132 117.02,128.866 117.02,125 C117.02,121.134 120.154,118 124.02,118"/>
    <polygon fill="#48515A" points="123.019 114.936 125.019 114.936 125.019 89.774 123.019 89.774"/>
    <polyline fill="#48515A" points="89.087 159.519 116.765 131.841 118.179 133.255 90.501 160.933 89.087 159.519"/>
    <path fill="#48515A" d="M123.061,62.03 L123,60.031 C123.671,60.01 124.345,60 125.02,60 L125.181,60 L125.181,62 L125.02,62 C124.365,62 123.712,62.01 123.061,62.03 Z M129.095,62.13 C128.444,62.088 127.792,62.057 127.136,62.035 L127.204,60.036 C127.879,60.059 128.552,60.091 129.222,60.134 L129.095,62.13 Z M119.151,62.27 L118.967,60.278 C119.635,60.216 120.307,60.165 120.982,60.124 L121.104,62.12 C120.45,62.16 119.799,62.21 119.151,62.27 Z M132.994,62.499 C132.348,62.417 131.699,62.346 131.047,62.284 L131.236,60.293 C131.909,60.357 132.579,60.431 133.245,60.515 L132.994,62.499 Z M115.264,62.751 L114.956,60.774 C115.62,60.671 116.288,60.578 116.958,60.495 L117.204,62.48 C116.554,62.56 115.908,62.65 115.264,62.751 Z M136.863,63.111 C136.223,62.99 135.579,62.878 134.932,62.775 L135.247,60.799 C135.914,60.906 136.577,61.021 137.236,61.146 L136.863,63.111 Z M111.415,63.473 L110.984,61.52 C111.641,61.375 112.301,61.24 112.964,61.116 L113.333,63.082 C112.69,63.203 112.051,63.333 111.415,63.473 Z M140.686,63.963 C140.055,63.801 139.42,63.649 138.781,63.507 L139.216,61.555 C139.876,61.702 140.531,61.859 141.182,62.025 L140.686,63.963 Z M107.617,64.434 L107.065,62.511 C107.711,62.326 108.362,62.151 109.017,61.985 L109.507,63.923 C108.873,64.084 108.243,64.254 107.617,64.434 Z M144.449,65.052 C143.829,64.852 143.204,64.66 142.576,64.478 L143.132,62.557 C143.781,62.745 144.425,62.943 145.065,63.15 L144.449,65.052 Z M103.882,65.633 L103.21,63.749 C103.847,63.523 104.487,63.306 105.132,63.099 L105.743,65.003 C105.118,65.204 104.498,65.414 103.882,65.633 Z M148.135,66.375 C147.529,66.136 146.918,65.906 146.302,65.685 L146.978,63.802 C147.613,64.031 148.244,64.268 148.87,64.515 L148.135,66.375 Z M100.224,67.067 L99.436,65.229 C100.057,64.963 100.682,64.706 101.311,64.46 L102.041,66.322 C101.431,66.561 100.825,66.809 100.224,67.067 Z M151.721,67.922 C151.132,67.646 150.538,67.379 149.939,67.121 L150.731,65.284 C151.349,65.55 151.962,65.826 152.57,66.111 L151.721,67.922 Z M96.666,68.726 L95.765,66.94 C96.367,66.636 96.975,66.341 97.587,66.056 L98.433,67.868 C97.839,68.145 97.25,68.431 96.666,68.726 Z M155.206,69.689 C154.635,69.376 154.059,69.072 153.477,68.778 L154.382,66.994 C154.982,67.298 155.577,67.611 156.166,67.934 L155.206,69.689 Z M93.22,70.602 L92.21,68.877 C92.791,68.536 93.379,68.204 93.972,67.881 L94.928,69.638 C94.354,69.951 93.784,70.272 93.22,70.602 Z M158.577,71.67 C158.026,71.323 157.469,70.984 156.907,70.653 L157.92,68.929 C158.501,69.27 159.076,69.62 159.644,69.979 L158.577,71.67 Z M89.899,72.69 L88.783,71.03 C89.343,70.654 89.908,70.287 90.479,69.927 L91.543,71.621 C90.99,71.969 90.442,72.325 89.899,72.69 Z M161.819,73.858 C161.29,73.477 160.755,73.104 160.214,72.739 L161.333,71.082 C161.892,71.458 162.443,71.843 162.989,72.236 L161.819,73.858 Z M86.716,74.979 L85.498,73.392 C86.033,72.981 86.574,72.579 87.122,72.186 L88.289,73.81 C87.758,74.191 87.234,74.581 86.716,74.979 Z M164.922,76.244 C164.417,75.831 163.906,75.425 163.389,75.027 L164.607,73.441 C165.142,73.852 165.669,74.271 166.189,74.697 L164.922,76.244 Z M83.681,77.458 L82.367,75.951 C82.876,75.508 83.391,75.073 83.914,74.646 L85.178,76.195 C84.672,76.608 84.173,77.029 83.681,77.458 Z M167.872,78.819 C167.395,78.374 166.91,77.938 166.418,77.509 L167.731,76.001 C168.24,76.444 168.74,76.894 169.234,77.353 L167.872,78.819 Z M80.805,80.122 L79.402,78.697 C79.882,78.224 80.37,77.759 80.864,77.301 L82.222,78.769 C81.743,79.212 81.271,79.664 80.805,80.122 Z M170.66,81.571 C170.209,81.098 169.752,80.632 169.288,80.173 L170.693,78.75 C171.172,79.224 171.644,79.704 172.108,80.192 L170.66,81.571 Z M78.101,82.956 L76.613,81.62 C77.062,81.119 77.52,80.624 77.984,80.137 L79.432,81.517 C78.981,81.99 78.538,82.469 78.101,82.956 Z M173.272,84.492 C172.852,83.992 172.424,83.498 171.988,83.011 L173.479,81.677 C173.928,82.18 174.37,82.689 174.804,83.205 L173.272,84.492 Z M75.579,85.95 L74.011,84.709 C74.429,84.181 74.854,83.66 75.288,83.145 L76.818,84.433 C76.397,84.932 75.984,85.438 75.579,85.95 Z M175.701,87.57 C175.311,87.044 174.915,86.525 174.51,86.012 L176.08,84.773 C176.498,85.303 176.907,85.838 177.308,86.38 L175.701,87.57 Z M73.248,89.092 L71.605,87.952 C71.989,87.398 72.382,86.851 72.783,86.311 L74.389,87.503 C74.001,88.026 73.62,88.556 73.248,89.092 Z M177.934,90.794 C177.579,90.245 177.215,89.702 176.842,89.165 L178.486,88.025 C178.87,88.579 179.246,89.139 179.613,89.706 L177.934,90.794 Z M71.115,92.373 L69.406,91.335 C69.756,90.76 70.114,90.19 70.479,89.626 L72.156,90.716 C71.801,91.263 71.454,91.816 71.115,92.373 Z M179.963,94.15 C179.642,93.58 179.313,93.015 178.974,92.455 L180.686,91.421 C181.035,91.998 181.375,92.581 181.706,93.169 L179.963,94.15 Z M69.194,95.777 L67.423,94.848 C67.736,94.251 68.057,93.661 68.388,93.077 L70.129,94.06 C69.809,94.627 69.497,95.199 69.194,95.777 Z M181.78,97.629 C181.495,97.039 181.201,96.454 180.899,95.875 L182.671,94.949 C182.984,95.547 183.287,96.15 183.581,96.759 L181.78,97.629 Z M67.487,99.291 L65.661,98.475 C65.936,97.86 66.22,97.251 66.514,96.647 L68.312,97.521 C68.029,98.105 67.754,98.695 67.487,99.291 Z M183.376,101.215 C183.129,100.609 182.872,100.007 182.606,99.41 L184.433,98.596 C184.707,99.212 184.973,99.833 185.228,100.46 L183.376,101.215 Z M66.002,102.91 L64.129,102.208 C64.366,101.576 64.612,100.949 64.867,100.327 L66.718,101.085 C66.47,101.689 66.231,102.297 66.002,102.91 Z M184.746,104.898 C184.537,104.276 184.318,103.659 184.09,103.046 L185.964,102.348 C186.2,102.981 186.426,103.618 186.642,104.26 L184.746,104.898 Z M64.744,106.619 L62.831,106.036 C63.027,105.389 63.234,104.748 63.45,104.111 L65.344,104.754 C65.134,105.371 64.934,105.993 64.744,106.619 Z M185.88,108.654 C185.71,108.023 185.532,107.395 185.343,106.771 L187.257,106.191 C187.453,106.836 187.637,107.484 187.811,108.137 L185.88,108.654 Z M63.72,110.4 L61.775,109.937 C61.931,109.281 62.096,108.628 62.272,107.979 L64.203,108.501 C64.032,109.13 63.871,109.763 63.72,110.4 Z M186.774,112.467 C186.645,111.826 186.506,111.188 186.356,110.554 L188.304,110.097 C188.457,110.752 188.601,111.41 188.735,112.072 L186.774,112.467 Z M62.936,114.237 L60.965,113.897 C61.08,113.231 61.205,112.57 61.339,111.912 L63.299,112.311 C63.168,112.95 63.047,113.592 62.936,114.237 Z M187.429,116.33 C187.339,115.682 187.24,115.036 187.131,114.394 L189.103,114.059 C189.216,114.722 189.318,115.388 189.41,116.057 L187.429,116.33 Z M62.392,118.116 L60.404,117.9 C60.477,117.228 60.56,116.559 60.653,115.894 L62.634,116.171 C62.543,116.816 62.463,117.465 62.392,118.116 Z M187.842,120.225 C187.793,119.571 187.734,118.921 187.665,118.273 L189.655,118.063 C189.725,118.731 189.786,119.402 189.836,120.075 L187.842,120.225 Z M62.089,122.023 L60.091,121.929 C60.123,121.253 60.165,120.581 60.217,119.912 L62.211,120.067 C62.16,120.716 62.12,121.368 62.089,122.023 Z M188.015,124.139 C188.006,123.483 187.987,122.831 187.958,122.181 L189.956,122.092 C189.986,122.763 190.006,123.436 190.014,124.112 L188.015,124.139 Z M60.027,125.968 C60.023,125.647 60.021,125.324 60.02,125 C60.02,124.649 60.023,124.299 60.029,123.949 L62.029,123.98 C62.023,124.319 62.021,124.659 62.02,125 C62.02,125.315 62.023,125.628 62.027,125.941 L60.027,125.968 Z M189.945,128.153 L187.947,128.057 C187.979,127.407 188,126.754 188.011,126.099 L190.011,126.133 C189.999,126.809 189.977,127.482 189.945,128.153 Z M60.21,130.006 C60.159,129.336 60.118,128.664 60.088,127.989 L62.086,127.898 C62.116,128.552 62.155,129.204 62.204,129.854 L60.21,130.006 Z M189.628,132.182 L187.64,131.963 C187.711,131.316 187.773,130.666 187.824,130.013 L189.818,130.17 C189.765,130.844 189.702,131.514 189.628,132.182 Z M60.642,134.025 C60.549,133.359 60.467,132.69 60.395,132.018 L62.383,131.805 C62.453,132.456 62.533,133.104 62.623,133.749 L60.642,134.025 Z M189.062,136.184 L187.091,135.841 C187.203,135.199 187.305,134.554 187.396,133.906 L189.376,134.187 C189.282,134.855 189.177,135.521 189.062,136.184 Z M61.322,138.008 C61.189,137.349 61.065,136.686 60.951,136.021 L62.922,135.685 C63.032,136.329 63.152,136.971 63.282,137.609 L61.322,138.008 Z M188.247,140.142 L186.302,139.677 C186.453,139.044 186.595,138.406 186.727,137.766 L188.686,138.168 C188.55,138.83 188.404,139.488 188.247,140.142 Z M62.25,141.942 C62.076,141.292 61.911,140.639 61.756,139.983 L63.702,139.523 C63.852,140.16 64.012,140.794 64.182,141.423 L62.25,141.942 Z M187.186,144.042 L185.274,143.457 C185.464,142.833 185.645,142.206 185.817,141.575 L187.747,142.1 C187.57,142.751 187.383,143.399 187.186,144.042 Z M63.427,145.818 C63.21,145.178 63.003,144.534 62.807,143.885 L64.721,143.305 C64.912,143.933 65.112,144.557 65.321,145.176 L63.427,145.818 Z M185.884,147.868 L184.012,147.165 C184.241,146.554 184.462,145.939 184.673,145.319 L186.565,145.966 C186.347,146.605 186.12,147.238 185.884,147.868 Z M64.843,149.615 C64.587,148.99 64.341,148.361 64.104,147.727 L65.979,147.028 C66.207,147.642 66.446,148.252 66.694,148.857 L64.843,149.615 Z M184.346,151.6 L182.521,150.781 C182.788,150.188 183.045,149.59 183.293,148.988 L185.143,149.749 C184.887,150.371 184.621,150.988 184.346,151.6 Z M66.497,153.315 C66.202,152.708 65.916,152.096 65.641,151.478 L67.467,150.663 C67.734,151.261 68.01,151.854 68.295,152.442 L66.497,153.315 Z M182.581,155.224 L180.811,154.293 C181.114,153.717 181.408,153.136 181.694,152.549 L183.492,153.426 C183.197,154.031 182.893,154.63 182.581,155.224 Z M68.374,156.902 C68.042,156.315 67.72,155.722 67.407,155.122 L69.178,154.195 C69.482,154.775 69.794,155.349 70.116,155.918 L68.374,156.902 Z M180.593,158.734 L178.884,157.695 C179.222,157.138 179.553,156.576 179.875,156.008 L181.614,156.995 C181.282,157.581 180.942,158.16 180.593,158.734 Z M70.473,160.363 C70.105,159.797 69.747,159.226 69.397,158.649 L71.107,157.612 C71.446,158.171 71.794,158.725 72.15,159.273 L70.473,160.363 Z M178.39,162.115 L176.748,160.972 C177.121,160.437 177.485,159.896 177.842,159.349 L179.518,160.441 C179.149,161.005 178.773,161.563 178.39,162.115 Z M72.782,163.686 C72.379,163.145 71.986,162.596 71.601,162.042 L73.244,160.901 C73.617,161.438 73.998,161.969 74.387,162.494 L72.782,163.686 Z M175.979,165.355 L174.412,164.112 C174.817,163.601 175.215,163.084 175.605,162.56 L177.209,163.754 C176.807,164.294 176.397,164.828 175.979,165.355 Z M75.289,166.857 C74.855,166.341 74.429,165.819 74.011,165.29 L75.579,164.05 C75.984,164.563 76.398,165.069 76.819,165.569 L75.289,166.857 Z M173.373,168.44 L171.886,167.103 C172.323,166.617 172.752,166.125 173.173,165.626 L174.701,166.917 C174.266,167.432 173.824,167.939 173.373,168.44 Z M77.988,169.866 C77.523,169.378 77.065,168.884 76.615,168.382 L78.104,167.047 C78.54,167.534 78.984,168.013 79.435,168.485 L77.988,169.866 Z M170.581,171.36 L169.179,169.934 C169.645,169.476 170.103,169.011 170.554,168.539 L172,169.921 C171.535,170.408 171.061,170.888 170.581,171.36 Z M80.867,172.702 C80.373,172.244 79.886,171.779 79.406,171.307 L80.809,169.882 C81.274,170.34 81.747,170.791 82.226,171.235 L80.867,172.702 Z M167.612,174.102 L166.3,172.593 C166.794,172.164 167.281,171.728 167.761,171.285 L169.117,172.754 C168.622,173.211 168.12,173.661 167.612,174.102 Z M83.914,175.354 C83.393,174.927 82.878,174.493 82.37,174.052 L83.683,172.543 C84.175,172.971 84.674,173.392 85.18,173.805 L83.914,175.354 Z M164.478,176.658 L163.263,175.069 C163.782,174.672 164.295,174.267 164.801,173.854 L166.066,175.404 C165.543,175.83 165.014,176.248 164.478,176.658 Z M87.118,177.811 C86.571,177.418 86.03,177.017 85.496,176.607 L86.714,175.02 C87.231,175.417 87.755,175.807 88.285,176.188 L87.118,177.811 Z M161.19,179.015 L160.076,177.354 C160.619,176.99 161.157,176.617 161.688,176.236 L162.852,177.862 C162.304,178.255 161.75,178.639 161.19,179.015 Z M90.465,180.064 C89.896,179.706 89.332,179.339 88.774,178.964 L89.891,177.305 C90.432,177.669 90.979,178.024 91.531,178.372 L90.465,180.064 Z M157.761,181.164 L156.752,179.437 C157.317,179.106 157.877,178.768 158.431,178.421 L159.492,180.116 C158.921,180.474 158.344,180.823 157.761,181.164 Z M93.947,182.105 C93.355,181.783 92.77,181.452 92.191,181.112 L93.202,179.387 C93.764,179.716 94.331,180.037 94.904,180.35 L93.947,182.105 Z M154.203,183.096 L153.304,181.31 C153.889,181.015 154.468,180.712 155.043,180.4 L155.997,182.158 C155.405,182.48 154.807,182.792 154.203,183.096 Z M97.545,183.924 C96.935,183.64 96.331,183.346 95.731,183.042 L96.634,181.257 C97.214,181.551 97.8,181.836 98.391,182.112 L97.545,183.924 Z M150.529,184.803 L149.743,182.964 C150.346,182.706 150.944,182.44 151.537,182.165 L152.38,183.979 C151.768,184.262 151.151,184.537 150.529,184.803 Z M101.247,185.515 C100.62,185.269 99.999,185.013 99.383,184.749 L100.173,182.911 C100.77,183.167 101.372,183.415 101.979,183.654 L101.247,185.515 Z M146.753,186.277 L146.085,184.393 C146.703,184.173 147.316,183.945 147.925,183.707 L148.654,185.569 C148.025,185.815 147.391,186.051 146.753,186.277 Z M105.053,186.876 C104.41,186.668 103.772,186.451 103.139,186.225 L103.813,184.342 C104.426,184.561 105.044,184.771 105.667,184.972 L105.053,186.876 Z M142.898,187.511 L142.348,185.588 C142.977,185.408 143.602,185.219 144.222,185.02 L144.833,186.925 C144.191,187.13 143.546,187.326 142.897,187.511 L142.898,187.511 Z M108.938,187.995 C108.283,187.828 107.632,187.651 106.987,187.465 L107.54,185.544 C108.166,185.724 108.796,185.895 109.431,186.056 L108.938,187.995 Z M138.978,188.498 L138.55,186.544 C139.189,186.404 139.824,186.255 140.456,186.095 L140.945,188.035 C140.293,188.199 139.637,188.354 138.977,188.498 L138.978,188.498 Z M112.884,188.869 C112.22,188.743 111.56,188.608 110.903,188.463 L111.336,186.51 C111.972,186.651 112.611,186.782 113.255,186.904 L112.884,188.869 Z M135.004,189.238 L134.698,187.261 C135.346,187.161 135.99,187.052 136.63,186.933 L136.996,188.898 C136.335,189.021 135.671,189.135 135.004,189.238 Z M116.876,189.495 C116.206,189.412 115.539,189.318 114.874,189.213 L115.184,187.237 C115.828,187.338 116.474,187.429 117.123,187.51 L116.876,189.495 Z M130.992,189.73 L130.811,187.737 C131.462,187.678 132.111,187.608 132.758,187.529 L133.002,189.515 C132.335,189.596 131.665,189.668 130.992,189.73 Z M120.899,189.872 C120.224,189.83 119.553,189.777 118.885,189.714 L119.071,187.723 C119.719,187.784 120.37,187.835 121.025,187.876 L120.899,189.872 Z M126.959,189.972 L126.9,187.973 C127.555,187.953 128.208,187.924 128.858,187.885 L128.977,189.881 C128.307,189.922 127.634,189.952 126.959,189.972 Z M124.939,190 C124.262,189.999 123.589,189.988 122.918,189.967 L122.982,187.968 C123.632,187.988 124.286,187.999 124.942,188 L124.939,190 Z"/>
    <path fill="#48515A" d="M125.02,52 C84.704,52 52.02,84.683 52.02,125 C52.02,165.316 84.703,198 125.019,198 C165.336,198 198.02,165.317 198.02,125.001 C198.02,125 198.02,125 198.02,125 C197.974,84.702 165.318,52.046 125.02,52 Z M125.02,200 C83.6,200.25 49.819,166.873 49.569,125.453 C49.319,84.032 82.695,50.251 124.115,50.001 C124.417,49.999 124.718,49.999 125.02,50 C166.442,50 200.02,83.579 200.02,125 C200.02,166.421 166.442,200 125.02,200 Z"/>
    <path fill="#48515A" d="M124.019,115.936 C119.013,115.936 114.955,119.994 114.955,125 C114.955,130.006 119.013,134.064 124.02,134.064 C129.026,134.064 133.084,130.006 133.084,125 C133.078,119.996 129.023,115.941 124.019,115.936 Z M124.019,136.064 C117.909,136.064 112.955,131.111 112.955,125 C112.955,118.889 117.909,113.936 124.02,113.936 C130.13,113.936 135.084,118.889 135.084,125 C135.077,131.108 130.127,136.058 124.019,136.064 Z"/>
    <path fill="#DFE0E0" d="M125.02,203 C83.694,202.997 49.543,170.76 47.159,129.503 C47.074,130.994 47.02,132.493 47.02,134.005 L47.02,134.006 C47.02,177.084 81.942,212.005 125.02,212.005 C168.098,212.005 203.02,177.084 203.02,134.006 L203.02,134.005 C203.02,132.493 202.966,130.994 202.882,129.503 C200.498,170.76 166.347,202.997 125.02,203"/>
    <path fill="#48515A" d="M203.88 129.56L201.883 129.446C201.975 127.827 202.02 126.373 202.02 125L204.02 125C204.02 126.411 203.974 127.903 203.88 129.56M46.16 129.56C46.066 127.903 46.02 126.411 46.02 125L48.02 125C48.02 126.373 48.065 127.827 48.157 129.446L46.16 129.56"/>
    <path fill="#48515A" d="M125.02,204 C83.166,203.99 48.581,171.343 46.16,129.56 L48.157,129.446 C50.608,171.896 87.007,204.323 129.457,201.872 C168.485,199.619 199.63,168.475 201.883,129.446 L203.88,129.56 C201.459,171.343 166.874,203.99 125.02,204"/>
    <polygon fill="#48515A" points="206.042 70.988 208.042 70.988 208.042 66.988 206.042 66.988"/>
    <polygon fill="#48515A" points="206.042 80.988 208.042 80.988 208.042 76.988 206.042 76.988"/>
    <polygon fill="#48515A" points="210.042 74.988 214.042 74.988 214.042 72.988 210.042 72.988"/>
    <polygon fill="#48515A" points="200.042 74.988 204.042 74.988 204.042 72.988 200.042 72.988"/>
    <polygon fill="#48515A" points="213.047 171.048 215.047 171.048 215.047 167.048 213.047 167.048"/>
    <polygon fill="#48515A" points="213.047 181.048 215.047 181.048 215.047 177.048 213.047 177.048"/>
    <polygon fill="#48515A" points="217.047 175.048 221.047 175.048 221.047 173.048 217.047 173.048"/>
    <polygon fill="#48515A" points="207.047 175.048 211.047 175.048 211.047 173.048 207.047 173.048"/>
    <polygon fill="#48515A" points="42.945 174.05 44.945 174.05 44.945 170.05 42.945 170.05"/>
    <polygon fill="#48515A" points="42.945 184.05 44.945 184.05 44.945 180.05 42.945 180.05"/>
    <polygon fill="#48515A" points="46.945 178.05 50.945 178.05 50.945 176.05 46.945 176.05"/>
    <polygon fill="#48515A" points="36.945 178.05 40.945 178.05 40.945 176.05 36.945 176.05"/>
    <path fill="#F58E70" d="M179.02 49C180.125 49 181.02 49.895 181.02 51 181.02 52.105 180.125 53 179.02 53 177.916 53 177.02 52.105 177.02 51 177.02 49.895 177.916 49 179.02 49M206.02 101C206.572 101 207.02 101.448 207.02 102 207.02 102.552 206.572 103 206.02 103 205.468 103 205.02 102.552 205.02 102 205.02 101.448 205.468 101 206.02 101M35.02 79C36.125 79 37.02 79.895 37.02 81 37.02 82.105 36.125 83 35.02 83 33.916 83 33.02 82.105 33.02 81 33.02 79.895 33.916 79 35.02 79M167.02 213C168.125 213 169.02 213.895 169.02 215 169.02 216.105 168.125 217 167.02 217 165.916 217 165.02 216.105 165.02 215 165.02 213.895 165.916 213 167.02 213M31.02 143C32.125 143 33.02 143.895 33.02 145 33.02 146.105 32.125 147 31.02 147 29.916 147 29.02 146.105 29.02 145 29.02 143.895 29.916 143 31.02 143M58.02 191C58.572 191 59.02 191.448 59.02 192 59.02 192.552 58.572 193 58.02 193 57.468 193 57.02 192.552 57.02 192 57.02 191.448 57.468 191 58.02 191M76.02 209C76.573 209 77.02 209.448 77.02 210 77.02 210.552 76.573 211 76.02 211 75.468 211 75.02 210.552 75.02 210 75.02 209.448 75.468 209 76.02 209M136.02 165C136.572 165 137.02 165.448 137.02 166 137.02 166.552 136.572 167 136.02 167 135.468 167 135.02 166.552 135.02 166 135.02 165.448 135.468 165 136.02 165"/>
  </g>
</svg>
