<svg xmlns="http://www.w3.org/2000/svg" width="250" height="250" viewBox="0 0 250 250">
  <g fill="none" fill-rule="evenodd">
    <path fill="#5FE0ED" d="M127.61,154.942 L127.61,130.458 C130.836,129.44 133.348,126.889 134.317,123.649 L158.904,123.649 C157.423,140.279 144.241,153.461 127.61,154.942 Z M124.696,124.668 C122.445,124.668 120.619,122.843 120.619,120.591 C120.619,118.34 122.445,116.514 124.696,116.514 C126.948,116.514 128.773,118.34 128.773,120.591 C128.773,122.843 126.948,124.668 124.696,124.668 Z M121.495,154.942 C104.865,153.461 91.684,140.279 90.202,123.649 L114.972,123.649 C115.96,126.772 118.386,129.232 121.495,130.263 L121.495,154.942 Z M121.495,86.24 L121.495,111.01 C118.372,111.998 115.912,114.424 114.881,117.533 L90.202,117.533 C91.684,100.903 104.865,87.721 121.496,86.24 L121.495,86.24 Z M127.61,86.24 C144.241,87.721 157.423,100.903 158.904,117.534 L134.42,117.534 C133.401,114.308 130.851,111.797 127.61,110.827 L127.61,86.24 Z M175.715,123.356 C175.718,120.212 175.718,121.064 175.72,117.92 L166.983,116.562 C166.567,113.92 166.584,114.03 166.168,111.388 L174.066,107.411 C173.097,104.42 173.359,105.23 172.391,102.239 L163.661,103.648 C162.449,101.264 162.499,101.363 161.287,98.979 L167.569,92.755 C165.724,90.21 166.224,90.9 164.378,88.355 L156.511,92.392 C154.621,90.499 154.701,90.578 152.811,88.685 L156.862,80.825 C154.321,78.975 155.009,79.476 152.468,77.626 L146.233,83.896 C143.851,82.68 143.95,82.731 141.568,81.514 L142.992,72.787 C140.003,71.813 140.813,72.077 137.824,71.103 L133.832,78.993 C131.191,78.572 131.301,78.59 128.66,78.169 L127.318,69.429 C124.174,69.426 125.026,69.426 121.882,69.424 L120.524,78.161 C117.881,78.578 117.992,78.56 115.35,78.976 L111.372,71.078 C108.382,72.047 109.192,71.785 106.201,72.753 L107.609,81.483 C105.225,82.695 105.325,82.645 102.941,83.857 L96.717,77.575 C94.172,79.42 94.862,78.92 92.317,80.766 L96.354,88.633 C94.461,90.523 94.54,90.444 92.647,92.333 L84.787,88.282 C82.937,90.823 83.438,90.135 81.588,92.676 L87.858,98.911 C86.642,101.293 86.693,101.194 85.476,103.576 L76.749,102.152 C75.775,105.141 76.039,104.331 75.065,107.32 L82.955,111.312 C82.534,113.953 82.552,113.843 82.131,116.484 L73.391,117.826 C73.388,120.97 73.388,120.118 73.386,123.262 L82.123,124.621 C82.539,127.263 82.522,127.152 82.938,129.794 L75.04,133.772 C76.009,136.763 75.747,135.952 76.715,138.943 L85.445,137.535 C86.657,139.919 86.607,139.819 87.819,142.204 L81.537,148.427 C83.382,150.972 82.882,150.282 84.728,152.827 L92.595,148.79 C94.485,150.684 94.406,150.604 96.295,152.497 L92.244,160.357 C94.785,162.208 94.097,161.706 96.638,163.556 L102.873,157.286 C105.255,158.502 105.156,158.452 107.538,159.668 L106.113,168.395 C109.102,169.369 108.293,169.106 111.282,170.08 L115.274,162.189 C117.915,162.61 117.804,162.593 120.446,163.014 L121.788,171.754 L127.224,171.758 L128.582,163.021 C131.225,162.605 131.114,162.622 133.756,162.206 L137.734,170.104 C140.724,169.135 139.914,169.398 142.905,168.429 L141.497,159.699 C143.881,158.487 143.781,158.538 146.165,157.326 L152.389,163.608 C154.934,161.762 154.244,162.262 156.789,160.417 L152.752,152.549 C154.645,150.66 154.566,150.739 156.459,148.849 L164.319,152.901 C166.169,150.359 165.668,151.048 167.518,148.506 L161.248,142.271 C162.464,139.889 162.413,139.989 163.63,137.607 L172.357,139.031 C173.331,136.042 173.067,136.852 174.041,133.863 L166.151,129.871 C166.572,127.229 166.554,127.34 166.975,124.699 L175.715,123.356 Z"/>
    <path fill="#48515A" d="M124.812,94.572 C110.464,94.572 98.833,106.203 98.833,120.551 C98.833,134.899 110.464,146.53 124.812,146.53 C139.16,146.53 150.791,134.899 150.791,120.551 C150.775,106.21 139.153,94.588 124.812,94.572 Z M124.812,148.53 C109.36,148.53 96.833,136.003 96.833,120.551 C96.833,105.098 109.36,92.572 124.812,92.572 C140.264,92.572 152.791,105.098 152.791,120.551 C152.774,135.996 140.257,148.512 124.812,148.53 Z"/>
    <path fill="#DEDEDD" d="M44.353 108.582L44.353 106.035C44.348 92.936 36.322 77.35 32.3 69.564 26.172 58.319 28.718 44.323 38.413 35.957 43.59 31.457 50.224 28.986 57.083 29.002 63.943 28.986 70.576 31.457 75.754 35.957 76.114 36.27 76.462 36.593 76.803 36.922 76.474 36.617 76.141 36.315 75.794 36.023 76.141 36.315 76.474 36.617 76.803 36.922 79.566 39.463 81.789 42.535 83.338 45.954 85.607 51.053 85.678 56.862 83.533 62.015 82.447 64.654 82.769 67.663 84.388 70.012L87.736 74.845C88.217 75.423 88.139 76.282 87.561 76.764 87.431 76.873 87.281 76.956 87.12 77.01L84.635 77.838C84.033 78.039 83.626 78.602 83.626 79.237 83.607 79.894 83.853 80.531 84.307 81.005L84.307 81.771C84.307 82.514 83.687 82.856 82.888 82.867 82.934 83.406 82.936 83.947 82.894 84.486 82.592 85.527 81.412 85.677 81.409 86.551 81.407 87.188 81.404 88.743 81.401 89.737 81.396 91.799 79.725 93.469 77.663 93.472L70.355 93.472C68.725 93.472 67.405 94.792 67.405 96.422L68.881 108.582 44.353 108.582M44.458 221L44.458 218.454C44.454 205.355 36.427 189.768 32.406 181.982 26.278 170.738 28.824 156.742 38.519 148.375 43.696 143.875 50.329 141.404 57.189 141.42 64.049 141.404 70.682 143.875 75.859 148.375 76.22 148.688 76.567 149.012 76.909 149.34 76.579 149.036 76.247 148.734 75.899 148.442 76.247 148.734 76.579 149.036 76.909 149.34 79.672 151.881 81.894 154.953 83.443 158.372 85.713 163.472 85.783 169.281 83.638 174.434 82.553 177.073 82.875 180.081 84.494 182.43L87.841 187.264C88.323 187.842 88.245 188.701 87.667 189.182 87.536 189.291 87.387 189.374 87.225 189.428L84.741 190.256C84.138 190.457 83.732 191.021 83.732 191.656 83.713 192.313 83.958 192.949 84.413 193.424L84.413 194.19C84.413 194.932 83.793 195.274 82.994 195.285 83.039 195.824 83.041 196.365 83 196.904 82.698 197.945 81.518 198.095 81.515 198.969 81.512 199.607 81.509 201.161 81.507 202.155 81.501 204.217 79.83 205.887 77.768 205.89L70.46 205.89C68.831 205.89 67.51 207.211 67.51 208.84L68.986 221 44.458 221M205.647 108.582L205.647 106.033C205.652 92.934 213.678 77.348 217.7 69.562 223.827 58.318 221.282 44.322 211.587 35.955 206.41 31.455 199.776 28.984 192.917 29 186.057 28.984 179.424 31.455 174.246 35.955 173.886 36.268 173.538 36.591 173.197 36.92 173.526 36.616 173.859 36.314 174.206 36.021 173.859 36.314 173.526 36.616 173.197 36.92 170.434 39.461 168.211 42.533 166.662 45.952 164.393 51.052 164.322 56.861 166.467 62.014 167.553 64.652 167.231 67.661 165.611 70.01L162.264 74.844C161.783 75.422 161.861 76.28 162.439 76.762 162.569 76.871 162.719 76.954 162.88 77.008L165.365 77.836C165.967 78.037 166.374 78.601 166.374 79.236 166.393 79.892 166.147 80.529 165.693 81.004L165.693 81.769C165.693 82.512 166.313 82.854 167.112 82.865 167.066 83.404 167.064 83.945 167.106 84.484 167.408 85.525 168.588 85.675 168.591 86.549 168.593 87.186 168.596 88.741 168.599 89.735 168.604 91.797 170.275 93.467 172.337 93.47L179.645 93.47C181.275 93.47 182.595 94.791 182.595 96.42L181.119 108.582 205.647 108.582M205.647 221L205.647 218.454C205.652 205.355 213.678 189.768 217.7 181.982 223.827 170.738 221.282 156.742 211.587 148.375 206.41 143.875 199.776 141.404 192.917 141.42 186.057 141.404 179.424 143.875 174.246 148.375 173.886 148.688 173.538 149.012 173.197 149.34 173.526 149.036 173.859 148.734 174.206 148.442 173.859 148.734 173.526 149.036 173.197 149.34 170.434 151.881 168.211 154.953 166.662 158.372 164.393 163.472 164.322 169.281 166.467 174.434 167.553 177.073 167.231 180.081 165.611 182.43L162.264 187.264C161.783 187.842 161.861 188.701 162.439 189.182 162.569 189.291 162.719 189.374 162.88 189.428L165.365 190.256C165.967 190.457 166.374 191.021 166.374 191.656 166.393 192.313 166.147 192.949 165.693 193.424L165.693 194.19C165.693 194.932 166.313 195.274 167.112 195.285 167.066 195.824 167.064 196.365 167.106 196.904 167.408 197.945 168.588 198.095 168.591 198.969 168.593 199.607 168.596 201.161 168.599 202.155 168.604 204.217 170.275 205.887 172.337 205.89L179.645 205.89C181.275 205.89 182.595 207.211 182.595 208.84L181.119 221 205.647 221"/>
    <path fill="#48515A" d="M124.974 211.509C100.845 211.575 77.692 201.985 60.677 184.876L58.354 182.771 59.697 181.29 62.056 183.429C96.767 218.177 153.074 218.207 187.822 183.496 204.521 166.816 213.903 144.182 213.903 120.579L215.903 120.579C215.903 170.798 175.193 211.509 124.974 211.509M34.045 120.579C34.045 70.361 74.755 29.65 124.973 29.65 149.089 29.65 172.218 39.23 189.27 56.283L191.594 58.385 190.25 59.868 187.892 57.731C153.182 22.983 96.875 22.952 62.126 57.662 45.428 74.342 36.045 96.977 36.045 120.579L34.045 120.579"/>
    <polyline fill="#48515A" points="191.922 60.126 181.93 60.126 181.93 58.126 189.922 58.126 189.922 50.134 191.922 50.134 191.922 60.126"/>
    <polyline fill="#48515A" points="60.025 191.023 58.025 191.023 58.025 181.03 68.019 181.03 68.019 183.03 60.025 183.03 60.025 191.023"/>
    <polygon fill="#48515A" points="59.064 147.06 61.064 147.06 61.064 143.06 59.064 143.06"/>
    <polygon fill="#48515A" points="59.064 157.06 61.064 157.06 61.064 153.06 59.064 153.06"/>
    <polygon fill="#48515A" points="63.064 151.06 67.064 151.06 67.064 149.06 63.064 149.06"/>
    <polygon fill="#48515A" points="53.064 151.06 57.064 151.06 57.064 149.06 53.064 149.06"/>
    <polygon fill="#48515A" points="199.148 197.09 201.148 197.09 201.148 193.09 199.148 193.09"/>
    <polygon fill="#48515A" points="199.148 207.09 201.148 207.09 201.148 203.09 199.148 203.09"/>
    <polygon fill="#48515A" points="203.148 201.09 207.148 201.09 207.148 199.09 203.148 199.09"/>
    <polygon fill="#48515A" points="193.148 201.09 197.148 201.09 197.148 199.09 193.148 199.09"/>
    <polygon fill="#48515A" points="186.089 78.042 188.089 78.042 188.089 74.042 186.089 74.042"/>
    <polygon fill="#48515A" points="186.089 88.042 188.089 88.042 188.089 84.042 186.089 84.042"/>
    <polygon fill="#48515A" points="190.089 82.042 194.089 82.042 194.089 80.042 190.089 80.042"/>
    <polygon fill="#48515A" points="180.089 82.042 184.089 82.042 184.089 80.042 180.089 80.042"/>
    <polyline fill="#DEDEDD" points="165.885 182.066 150.321 175.395 147.647 176.999 155.879 185.231 153.051 188.059 144.94 179.948 143.316 183.215 150.113 199.675 154.946 189.955 163.057 198.066 165.885 195.237 157.653 187.005 165.885 182.066"/>
    <path fill="#48515A" d="M129.74 161.945L140.19 187.254 144.664 178.258 153.051 186.646 154.466 185.231 146.034 176.8 153.688 172.208 129.74 161.945zM140.022 192.085L126.019 158.174 158.071 171.911 149.26 177.197 157.294 185.231 153.051 189.474 145.217 181.639 140.022 192.085zM33.934 56.012C32.306 55.983 30.964 57.279 30.934 58.907 30.934 58.928 30.934 58.949 30.934 58.97 30.921 60.637 32.262 61.999 33.929 62.012 33.93 62.012 33.932 62.012 33.934 62.012L89.099 62.012 95.605 59.012 89.099 56.012 33.934 56.012zM89.538 64.012L33.934 64.012C31.173 64.012 28.934 61.774 28.934 59.012 28.934 56.251 31.173 54.012 33.934 54.012L89.538 54.012 100.381 59.012 89.538 64.012z"/>
    <polygon fill="#48515A" points="39.975 63.012 41.975 63.012 41.975 55.012 39.975 55.012"/>
    <polygon fill="#48515A" points="40.975 60.012 88.975 60.012 88.975 58.012 40.975 58.012"/>
  </g>
</svg>
