<svg xmlns="http://www.w3.org/2000/svg" width="250" height="250" viewBox="0 0 250 250">
  <g fill="none" fill-rule="evenodd">
    <path fill="#DEDEDD" d="M123.229,188.106 L123.229,185.559 C123.234,172.457 131.262,156.867 135.284,149.079 C141.414,137.832 138.867,123.833 129.17,115.465 C123.992,110.964 117.357,108.492 110.496,108.508 C103.635,108.492 97,110.964 91.822,115.465 C91.461,115.778 91.113,116.101 90.772,116.43 C91.101,116.126 91.434,115.824 91.781,115.531 C91.434,115.824 91.101,116.126 90.772,116.43 C88.008,118.972 85.785,122.044 84.236,125.464 C81.966,130.565 81.895,136.375 84.041,141.529 C85.127,144.169 84.804,147.178 83.185,149.527 L79.837,154.362 C79.355,154.94 79.433,155.799 80.011,156.281 C80.142,156.39 80.291,156.473 80.453,156.527 L82.938,157.355 C83.541,157.556 83.947,158.12 83.947,158.755 C83.966,159.412 83.721,160.049 83.266,160.523 L83.266,161.289 C83.266,162.032 83.886,162.374 84.685,162.385 C84.64,162.924 84.638,163.466 84.679,164.005 C84.981,165.046 86.161,165.196 86.165,166.07 C86.167,166.708 86.17,168.262 86.173,169.257 C86.178,171.319 87.85,172.989 89.912,172.992 L97.222,172.992 C98.851,172.992 100.172,174.313 100.172,175.943 L98.696,187.469 L98.696,188.105"/>
    <path fill="#F58E70" d="M125.043,53.04 L125.043,29.054 C72.078,29.114 29.157,72.035 29.097,125 L53.084,125 C53.128,85.276 85.32,53.085 125.043,53.04"/>
    <polyline fill="#5FE0ED" points="171.518 83.024 171.518 53.04 201.501 53.041 171.518 83.024"/>
    <path fill="#5FE0ED" d="M192.855,57.188 L175.902,74.141 C204.01,102.211 204.04,147.752 175.969,175.859 C162.47,189.377 144.147,196.968 125.043,196.96 L125.043,220.946011 C178.008,220.971 220.964,178.055 220.989,125.09 C221.001,99.618 210.879,75.187 192.855,57.188"/>
    <path fill="#FFD45C" d="M125.043,220.946 L125.043,196.96 C85.32,196.915 53.128,164.724 53.084,125 L29.097,125 C29.157,177.965 72.078,220.886 125.043,220.946"/>
    <path fill="#48515A" d="M97.135,188.87 L97.063,185.973 C97.056,165.943 92.836,143.265 87.031,132.024 C80.631,119.632 80.413,105.18 86.449,93.365 C88.911,88.527 92.285,84.211 96.387,80.655 C112.76,66.489 137.05,66.489 153.424,80.655 C153.976,81.132 154.507,81.627 155.029,82.129 C155.854,82.892 156.669,83.706 157.438,84.537 C160.941,88.408 163.489,93.048 164.876,98.082 C165.757,101.167 166.205,104.36 166.206,107.568 L166.209,119.117 C166.191,120.199 166.346,121.277 166.668,122.311 C168.642,128.191 170.97,133.946 173.642,139.544 L171.829,140.39 C169.118,134.705 166.755,128.861 164.754,122.89 C164.372,121.661 164.188,120.38 164.209,119.094 L164.206,107.569 C164.206,104.563 163.789,101.571 162.967,98.679 C161.667,93.929 159.27,89.55 155.969,85.895 C155.236,85.103 154.458,84.325 153.657,83.584 C153.146,83.093 152.64,82.622 152.114,82.166 C136.492,68.652 113.319,68.652 97.697,82.165 C93.79,85.554 90.575,89.666 88.23,94.275 C82.487,105.517 82.703,119.286 88.808,131.106 C94.743,142.598 99.055,165.662 99.062,185.947 L99.134,188.82 L97.135,188.87"/>
    <path fill="#48515A" d="M141.52,188.972 L139.309,171.648 C139.312,168.665 141.729,166.249 144.712,166.246 L157.821,166.246 C160.346,166.238 162.392,164.194 162.4,161.669 L162.412,156.913 C162.416,156.159 162.648,155.425 163.076,154.805 C163.308,154.446 163.492,154.058 163.623,153.651 C163.634,153.295 163.622,152.007 163.602,150.866 L163.596,150.453 L165.51,148.463 L164.62,146.684 L164.62,146.448 C164.621,145.044 165.493,143.788 166.809,143.297 L166.963,143.246 L169.865,143.246 C170.495,143.266 171.102,143.012 171.529,142.549 C172.045,141.951 172.162,141.106 171.829,140.389 L173.642,139.544 C174.308,140.964 174.081,142.642 173.063,143.834 C172.258,144.755 171.087,145.272 169.865,145.246 L167.318,145.246 C166.949,145.455 166.698,145.824 166.637,146.244 L167.93,148.833 L165.609,151.245 C165.696,152.199 165.684,153.16 165.572,154.112 C165.395,154.719 165.132,155.299 164.792,155.833 C164.55,156.144 164.417,156.526 164.412,156.92 L164.4,161.674 C164.387,165.301 161.448,168.236 157.821,168.246 L144.712,168.246 C142.857,168.247 141.344,169.734 141.31,171.588 L143.504,188.718 L141.52,188.972"/>
    <polygon fill="#48515A" points="35.008 68.999 37.008 68.999 37.008 64.999 35.008 64.999"/>
    <polygon fill="#48515A" points="35.008 78.999 37.008 78.999 37.008 74.999 35.008 74.999"/>
    <polygon fill="#48515A" points="39.008 72.999 43.008 72.999 43.008 70.999 39.008 70.999"/>
    <polygon fill="#48515A" points="29.008 72.999 33.008 72.999 33.008 70.999 29.008 70.999"/>
    <polygon fill="#48515A" points="213.016 185.019 215.016 185.019 215.016 181.019 213.016 181.019"/>
    <polygon fill="#48515A" points="213.016 195.019 215.016 195.019 215.016 191.019 213.016 191.019"/>
    <polygon fill="#48515A" points="217.016 189.019 221.016 189.019 221.016 187.019 217.016 187.019"/>
    <polygon fill="#48515A" points="207.016 189.019 211.016 189.019 211.016 187.019 207.016 187.019"/>
    <path fill="#48515A" d="M197.278,109.953 C191.346,109.953 186.537,114.762 186.537,120.694 C186.537,126.627 191.346,131.436 197.278,131.436 C203.21,131.436 208.02,126.627 208.02,120.694 C208.013,114.765 203.208,109.96 197.278,109.953 Z M197.278,133.436 C190.242,133.436 184.537,127.731 184.537,120.694 C184.537,113.658 190.242,107.953 197.278,107.953 C204.315,107.953 210.02,113.658 210.02,120.694 C210.011,127.728 204.312,133.428 197.278,133.436 Z"/>
    <path fill="#48515A" d="M197.277,109.953 C194.393,109.953 191.955,114.872 191.955,120.694 C191.955,126.517 194.393,131.436 197.277,131.436 C200.162,131.436 202.6,126.517 202.6,120.694 C202.6,114.872 200.162,109.953 197.277,109.953 Z M197.277,133.436 C193.172,133.436 189.955,127.839 189.955,120.694 C189.955,113.55 193.172,107.953 197.277,107.953 C201.383,107.953 204.6,113.55 204.6,120.694 C204.6,127.839 201.383,133.436 197.277,133.436 Z"/>
    <polygon fill="#48515A" points="185.831 122.145 208.831 122.145 208.831 120.145 185.831 120.145"/>
    <path fill="#48515A" d="M51.942,93.918 C50.314,93.889 48.971,95.185 48.942,96.813 C48.942,96.834 48.942,96.855 48.942,96.876 C48.929,98.543 50.27,99.905 51.937,99.918 C51.938,99.918 51.94,99.918 51.942,99.918 L107.107,99.918 L113.613,96.918 L107.107,93.918 L51.942,93.918 Z M107.545,101.918 L51.942,101.918 C49.181,101.918 46.942,99.679 46.942,96.918 C46.942,94.157 49.181,91.918 51.942,91.918 L107.545,91.918 L118.389,96.918 L107.545,101.918 Z"/>
    <polygon fill="#48515A" points="57.982 100.918 59.982 100.918 59.982 92.918 57.982 92.918"/>
    <polygon fill="#48515A" points="58.982 97.918 106.982 97.918 106.982 95.918 58.982 95.918"/>
  </g>
</svg>
