<svg xmlns="http://www.w3.org/2000/svg" width="250" height="250" viewBox="0 0 250 250">
  <g fill="none" fill-rule="evenodd">
    <path fill="#5FE0ED" d="M72.34 168.441L75.992 164.793 75.992 152.509 65.992 152.509 65.992 167.964C66.13 168.119 66.261 168.278 66.385 168.441L72.34 168.441M89.992 152.885L89.992 144.509 79.992 144.509 79.992 160.797 83.661 157.132C85.478 155.322 87.628 153.88 89.992 152.885M103.992 151.277L103.992 136.509 93.992 136.509 93.992 151.667C95.215 151.427 96.457 151.305 97.703 151.302L103.992 151.277"/>
    <polyline fill="#5FE0ED" points="117.992 128.509 107.992 128.509 107.992 151.261 117.992 151.221 117.992 128.509"/>
    <polyline fill="#5FE0ED" points="131.992 120.509 121.992 120.509 121.992 151.205 131.992 151.165 131.992 120.509"/>
    <polyline fill="#5FE0ED" points="145.992 112.509 135.992 112.509 135.992 151.149 145.992 151.109 145.992 112.509"/>
    <polygon fill="#5FE0ED" points="149.992 167 159.992 167 159.992 102.509 149.992 102.509"/>
    <polyline fill="#5FE0ED" points="173.992 94.509 163.992 94.509 163.992 167 173.992 161.819 173.992 94.509"/>
    <polyline fill="#5FE0ED" points="187.992 155.999 187.992 86.509 177.992 86.509 177.992 161 187.992 155.999"/>
    <path fill="#5FE0ED" d="M201.992 155.563L201.992 78.509 191.992 78.509 191.992 154.311C194.492 152.774 201.047 155.201 201.992 155.563M61.992 165.49L61.992 160.951 51.992 160.951 51.992 165.2 59.898 165.208C60.605 165.211 61.309 165.306 61.992 165.49"/>
    <polyline fill="#48515A" points="56.478 165.486 55.064 164.072 94.483 124.652 102.262 132.431 142.744 91.948 154.738 103.942 195.996 62.654 197.411 64.068 154.739 106.771 142.744 94.776 102.262 135.259 94.483 127.48 56.478 165.486"/>
    <polyline fill="#48515A" points="197.704 75.356 195.704 75.356 195.704 64.361 184.709 64.361 184.709 62.361 197.704 62.361 197.704 75.356"/>
    <path fill="#48515A" d="M80.54,99.748 L84.97,99.748 L87.422,102.465 L90.272,101.284 L90.085,97.629 L93.218,94.497 L96.873,94.683 L98.054,91.834 L95.337,89.381 L95.337,84.951 L98.054,82.498 L96.873,79.648 L93.218,79.835 L90.085,76.703 L90.272,73.047 L87.422,71.867 L84.97,74.583 L80.54,74.583 L78.087,71.867 L75.237,73.047 L75.424,76.703 L72.291,79.835 L68.636,79.648 L67.456,82.498 L70.172,84.951 L70.172,89.381 L67.456,91.834 L68.636,94.683 L72.29,94.496 L75.424,97.629 L75.237,101.284 L78.087,102.465 L80.54,99.748 Z M86.884,104.853 L84.081,101.749 L81.428,101.749 L78.626,104.853 L73.168,102.592 L73.381,98.415 L71.505,96.539 L67.329,96.752 L65.068,91.295 L68.172,88.493 L68.172,85.839 L65.068,83.037 L67.329,77.579 L71.505,77.792 L73.381,75.916 L73.168,71.74 L78.626,69.479 L81.428,72.583 L84.081,72.583 L86.883,69.479 L92.341,71.74 L92.128,75.916 L94.003,77.792 L98.181,77.579 L100.441,83.037 L97.337,85.839 L97.337,88.493 L100.441,91.295 L98.181,96.753 L94.004,96.54 L92.128,98.415 L92.341,102.592 L86.884,104.853 Z"/>
    <path fill="#48515A" d="M82.754,84.587 C81.33,84.587 80.176,85.742 80.176,87.166 C80.176,88.59 81.331,89.745 82.755,89.745 C84.179,89.744 85.333,88.59 85.333,87.166 C85.332,85.742 84.178,84.588 82.754,84.587 Z M82.754,91.745 C80.226,91.744 78.176,89.694 78.176,87.165 C78.176,84.637 80.226,82.587 82.755,82.587 C85.284,82.587 87.334,84.637 87.334,87.166 C87.331,89.694 85.282,91.742 82.754,91.745 Z"/>
    <path fill="#DEDEDD" d="M61.833,204.311 L61.833,204.313 C61.894,205.351 61.103,206.241 60.066,206.302 C59.992,206.307 59.918,206.307 59.844,206.302 L59.842,206.302 L52.833,206.465 L52.833,192.291 L59.892,192.298 C60.466,192.299 61.016,192.529 61.421,192.938 C61.804,193.349 62.003,193.898 61.973,194.46 L61.833,204.311"/>
    <path fill="#48515A" d="M85.892,203.302 L64.834,203.302 L64.834,201.302 L85.7,201.302 L162.828,186.355 L206.358,159.658 C200.6,154.499 193.595,153.549 187.403,157.158 L160.142,170.302 L113.368,170.302 L113.368,168.302 L131.683,168.302 C139.3,168.503 145.741,162.704 146.338,155.107 L97.707,155.302 C93.5,155.318 89.469,156.992 86.488,159.961 L65.654,180.775 L64.241,179.36 L85.074,158.546 C88.429,155.204 92.967,153.32 97.703,153.302 L148.373,153.1 L148.373,154.104 C148.399,160.058 145.109,165.531 139.839,168.302 L159.685,168.302 L186.466,155.394 C193.758,151.138 202.095,152.519 208.699,159.122 L209.596,160.019 L163.564,188.25 L163.386,188.285 L85.892,203.302"/>
    <path fill="#48515A" d="M145.977 162.847L145.058 161.072 176.36 144.855C178.467 143.868 180.7 143.177 182.996 142.802 186.932 142.111 190.981 143.012 194.251 145.309 195.612 146.298 196.787 147.519 197.722 148.917L198.271 149.74 187.464 157.12 186.336 155.469 195.476 149.227C194.782 148.354 193.973 147.58 193.072 146.924 190.234 144.942 186.725 144.169 183.318 144.775 181.217 145.118 179.173 145.748 177.243 146.648L145.977 162.847M50.833 208.499L59.83 208.508 59.834 208.508C62.133 208.509 63.998 206.65 64.006 204.352L64.006 204.351 64.062 173.373C64.05 171.076 62.19 169.218 59.894 169.208L50.833 169.199 50.833 208.499zM59.835 210.508L59.828 210.508 48.833 210.497 48.833 167.197 59.896 167.208C63.297 167.219 66.052 169.974 66.062 173.376L66.006 204.355C65.995 207.756 63.236 210.507 59.835 210.508z"/>
    <path fill="#DEDEDD" d="M113.368 165.302L136.811 165.302C140.507 164.174 143.278 161.096 144.014 157.302L139.222 157.302C137.126 159.302 134.531 159.302 131.683 159.302L119.368 159.302C116.054 159.302 113.368 161.988 113.368 165.302M196.89 157.302L162.092 177.51 85.509 192.302 68.028 192.302 68.015 199.302 85.509 199.302 162.092 184.523 202.833 159.582C200.414 158.011 199.489 157.302 196.89 157.302"/>
    <path fill="#DEDEDD" d="M152.708 169.33L152.766 169.302 136.958 169.302C136.739 169.364 152.708 169.33 152.708 169.33M136.811 165.302C140.507 164.174 143.278 161.096 144.014 157.302L139.222 157.302C137.126 159.302 134.531 159.302 131.683 159.302L119.833 159.302 119.833 165.302 136.811 165.302M113.368 165.302L119.833 165.302 119.833 159.302 119.368 159.302C116.054 159.302 113.368 161.988 113.368 165.302"/>
    <polygon fill="#48515A" points="191 185 193 185 193 181 191 181"/>
    <polygon fill="#48515A" points="191 195 193 195 193 191 191 191"/>
    <polygon fill="#48515A" points="195 189 199 189 199 187 195 187"/>
    <polygon fill="#48515A" points="185 189 189 189 189 187 185 187"/>
    <polygon fill="#48515A" points="34.993 132.468 36.993 132.468 36.993 128.468 34.993 128.468"/>
    <polygon fill="#48515A" points="34.993 142.468 36.993 142.468 36.993 138.468 34.993 138.468"/>
    <polygon fill="#48515A" points="38.993 136.468 42.993 136.468 42.993 134.468 38.993 134.468"/>
    <polygon fill="#48515A" points="28.993 136.468 32.993 136.468 32.993 134.468 28.993 134.468"/>
    <path fill="#DEDEDD" d="M202.748,159.526 C202.077,159.09 201.522,158.728 201.011,158.424 C201.644,158.731 202.257,159.08 202.845,159.467 L202.748,159.526 Z M189.771,147.384 C189.875,147.425 189.984,147.458 190.086,147.503 C189.984,147.458 189.875,147.425 189.771,147.384 Z"/>
    <polygon fill="#48515A" points="114.04 52.42 116.04 52.42 116.04 48.42 114.04 48.42"/>
    <polygon fill="#48515A" points="114.04 62.42 116.04 62.42 116.04 58.42 114.04 58.42"/>
    <polygon fill="#48515A" points="118.04 56.42 122.04 56.42 122.04 54.42 118.04 54.42"/>
    <polygon fill="#48515A" points="108.04 56.42 112.04 56.42 112.04 54.42 108.04 54.42"/>
    <path fill="#48515A" d="M208.227,105.105 C202.294,105.105 197.485,109.914 197.485,115.846 C197.485,121.778 202.294,126.587 208.227,126.587 C214.159,126.587 218.968,121.778 218.968,115.846 C218.961,109.916 214.156,105.111 208.227,105.105 Z M208.227,128.587 C201.19,128.587 195.485,122.883 195.485,115.846 C195.485,108.809 201.19,103.105 208.227,103.105 C215.263,103.105 220.968,108.809 220.968,115.846 C220.959,122.879 215.26,128.579 208.227,128.587 Z"/>
    <path fill="#48515A" d="M208.225,105.105 C205.34,105.105 202.903,110.023 202.903,115.846 C202.903,121.668 205.34,126.587 208.225,126.587 C211.11,126.587 213.547,121.668 213.547,115.846 C213.547,110.023 211.11,105.105 208.225,105.105 Z M208.225,128.587 C204.12,128.587 200.903,122.99 200.903,115.846 C200.903,108.701 204.12,103.105 208.225,103.105 C212.331,103.105 215.547,108.701 215.547,115.846 C215.547,122.99 212.331,128.587 208.225,128.587 Z"/>
    <polygon fill="#48515A" points="196.779 117.296 219.779 117.296 219.779 115.296 196.779 115.296"/>
    <polyline fill="#FFF" points="159 123.914 133.535 113 144.655 139.93 149.051 131.089 156.428 138.465 159 135.893 151.513 128.406 159 123.914"/>
    <path fill="#48515A" d="M135.395,114.885 L144.74,137.514 L148.774,129.398 L156.428,137.051 L157.586,135.893 L149.9,128.207 L156.809,124.063 L135.395,114.885 Z M144.571,142.346 L131.674,111.115 L161.191,123.765 L153.126,128.604 L160.414,135.893 L156.428,139.879 L149.327,132.779 L144.571,142.346 Z"/>
  </g>
</svg>
