<svg xmlns="http://www.w3.org/2000/svg" width="250" height="250" viewBox="0 0 250 250">
  <g fill="none" fill-rule="evenodd">
    <path fill="#DEDEDD" d="M180.806 143.232C183.686 142.711 186.654 143.354 189.059 145.021 189.242 145.156 189.42 145.294 189.593 145.438L182.529 150.438 149.875 165.812C149.875 165.812 133.905 165.846 134.125 165.785 135.514 165.395 179.387 143.464 180.806 143.232M59 200.794L59 200.796C59.061 201.833 58.27 202.724 57.233 202.785 57.159 202.789 57.085 202.789 57.011 202.785L57.009 202.785 50 202.948 50 188.774 57.059 188.781C57.633 188.782 58.183 189.012 58.587 189.42 58.971 189.831 59.17 190.381 59.139 190.942L59 200.794"/>
    <path fill="#48515A" d="M83.059,199.785 L62,199.785 L62,197.785 L82.867,197.785 L159.994,182.838 L203.525,156.141 C197.767,150.981 190.761,150.032 184.57,153.641 L157.309,166.785 L110.534,166.785 L110.534,164.785 L128.85,164.785 C136.467,164.985 142.908,159.187 143.506,151.59 L94.874,151.785 C90.667,151.801 86.635,153.475 83.654,156.444 L62.821,177.258 L61.407,175.843 L82.24,155.029 C85.596,151.687 90.134,149.803 94.87,149.785 L145.54,149.582 L145.54,150.586 C145.566,156.54 142.276,162.014 137.006,164.785 L156.852,164.785 L183.632,151.876 C190.925,147.623 199.262,149.001 205.866,155.605 L206.763,156.501 L160.73,184.733 L160.553,184.768 L83.059,199.785"/>
    <path fill="#48515A" d="M143.145 159.33L142.225 157.554 173.527 141.337C175.634 140.35 177.867 139.659 180.163 139.285 184.099 138.593 188.148 139.494 191.418 141.791 192.778 142.78 193.953 144.001 194.889 145.399L195.438 146.223 184.63 153.603 183.503 151.951 192.643 145.71C191.949 144.837 191.14 144.062 190.238 143.406 187.401 141.424 183.893 140.652 180.485 141.258 178.384 141.601 176.34 142.231 174.41 143.131L143.145 159.33M48 204.982L56.997 204.991 57.001 204.991C59.299 204.991 61.165 203.132 61.173 200.834L61.173 200.833 61.229 169.855C61.225 167.556 59.36 165.693 57.061 165.691L48 165.682 48 204.982zM57.001 206.991L56.995 206.991 46 206.98 46 163.68 57.062 163.691C60.464 163.702 63.218 166.457 63.229 169.858L63.173 200.837C63.162 204.238 60.402 206.99 57.001 206.991z"/>
    <path fill="#DEDEDD" d="M110.534 161.785L133.977 161.785C137.674 160.656 140.444 157.579 141.18 153.785L136.388 153.785C134.293 155.785 131.698 155.785 128.85 155.785L116.534 155.785C113.221 155.785 110.534 158.471 110.534 161.785M194.057 153.785L159.259 173.993 82.675 188.785 65.195 188.785 65.182 195.785 82.675 195.785 159.259 181.005 200 156.065C197.581 154.494 196.656 153.784 194.057 153.785"/>
    <polygon fill="#48515A" points="63.002 138.989 65.002 138.989 65.002 134.989 63.002 134.989"/>
    <polygon fill="#48515A" points="63.002 148.989 65.002 148.989 65.002 144.989 63.002 144.989"/>
    <polygon fill="#48515A" points="67.002 142.989 71.002 142.989 71.002 140.989 67.002 140.989"/>
    <polygon fill="#48515A" points="57.002 142.989 61.002 142.989 61.002 140.989 57.002 140.989"/>
    <polygon fill="#48515A" points="34.985 91.453 36.985 91.453 36.985 87.453 34.985 87.453"/>
    <polygon fill="#48515A" points="34.985 101.453 36.985 101.453 36.985 97.453 34.985 97.453"/>
    <polygon fill="#48515A" points="38.985 95.453 42.985 95.453 42.985 93.453 38.985 93.453"/>
    <polygon fill="#48515A" points="28.985 95.453 32.985 95.453 32.985 93.453 28.985 93.453"/>
    <path fill="#FFD15D" d="M197.744,121.739 C199.401,121.739 200.744,123.082 200.744,124.739 C200.744,126.396 199.401,127.739 197.744,127.739 C196.088,127.739 194.744,126.396 194.744,124.739 C194.744,123.082 196.088,121.739 197.744,121.739"/>
    <path fill="#DEDEDD" d="M80.811 121.213L80.811 68.657C80.811 66.018 82.949 63.879 85.588 63.879L80.811 63.879C78.172 63.879 76.033 66.018 76.033 68.657L76.033 121.213C76.033 123.852 78.172 125.991 80.811 125.991L85.588 125.991C82.95 125.991 80.811 123.852 80.811 121.213M129.783 94.935C136.379 94.935 141.727 100.283 141.727 106.88 141.727 113.477 136.379 118.824 129.783 118.824 123.186 118.824 117.838 113.477 117.838 106.88 117.838 100.283 123.186 94.935 129.783 94.935"/>
    <path fill="#48515A" d="M177.217,126.991 L86.782,126.991 C83.592,126.988 81.008,124.403 81.004,121.213 L81.004,68.657 C81.008,65.467 83.592,62.883 86.782,62.879 L151,62.879 L151,64.879 L86.782,64.879 C84.697,64.882 83.007,66.572 83.004,68.657 L83.004,121.213 C83.007,123.299 84.697,124.989 86.782,124.991 L177.217,124.991 C179.302,124.989 180.992,123.299 180.994,121.213 L180.995,107 L182.995,107 L182.994,121.213 C182.991,124.403 180.406,126.988 177.217,126.991"/>
    <path fill="#FFD15D" d="M93,80.992 L107,80.992 C108.105,80.992 109,81.887 109,82.992 L109,92.935 C109,94.04 108.105,94.935 107,94.935 L93,94.935 C91.895,94.935 91,94.04 91,92.935 L91,82.992 C91,81.887 91.895,80.992 93,80.992"/>
    <polygon fill="#48515A" points="91.56 105.491 105.893 105.491 105.893 103.491 91.56 103.491"/>
    <polygon fill="#48515A" points="110.671 105.491 125.005 105.491 125.005 103.491 110.671 103.491"/>
    <polygon fill="#48515A" points="129.782 105.491 144.116 105.491 144.116 103.491 129.782 103.491"/>
    <polygon fill="#48515A" points="148.894 105.491 163.227 105.491 163.227 103.491 148.894 103.491"/>
    <polygon fill="#48515A" points="91.56 115.046 113.06 115.046 113.06 113.046 91.56 113.046"/>
    <polygon fill="#48515A" points="117.838 115.046 127.394 115.046 127.394 113.046 117.838 113.046"/>
    <path fill="#48515A" d="M79.622,126.991 L74.838,126.991 C71.648,126.988 69.063,124.403 69.06,121.213 L69.06,68.657 C69.063,65.467 71.648,62.883 74.838,62.879 L79.622,62.879 L79.622,64.879 L74.838,64.879 C72.752,64.882 71.062,66.572 71.06,68.657 L71.06,121.213 C71.062,123.299 72.752,124.989 74.838,124.991 L79.622,124.991 L79.622,126.991"/>
    <polygon fill="#48515A" points="213.025 113.014 215.025 113.014 215.025 109.014 213.025 109.014"/>
    <polygon fill="#48515A" points="213.025 123.014 215.025 123.014 215.025 119.014 213.025 119.014"/>
    <polygon fill="#48515A" points="217.025 117.014 221.025 117.014 221.025 115.014 217.025 115.014"/>
    <polygon fill="#48515A" points="207.025 117.014 211.025 117.014 211.025 115.014 207.025 115.014"/>
    <path fill="#FFD15D" d="M58.661 50.697C60.87 50.697 62.661 52.488 62.661 54.697 62.661 56.906 60.87 58.697 58.661 58.697 56.452 58.697 54.661 56.906 54.661 54.697 54.661 52.488 56.452 50.697 58.661 50.697M96.684 133.746C97.788 133.746 98.684 134.641 98.684 135.746 98.684 136.85 97.788 137.746 96.684 137.746 95.579 137.746 94.684 136.85 94.684 135.746 94.684 134.641 95.579 133.746 96.684 133.746"/>
    <path fill="#DEDEDD" d="M178.994,116.411 C178.995,104.244 178.997,72.849 178.999,68.654 C178.999,67.674 178.205,66.88 177.225,66.879 C177.224,66.879 177.223,66.879 177.222,66.879 L140.331,66.879 C135.401,88.763 149.145,110.5 171.028,115.429 C173.645,116.019 176.313,116.348 178.994,116.411"/>
    <path fill="#48515A" d="M182.001,44.999 C165.985,44.999 153.001,57.983 153.001,73.999 C153.001,90.016 165.985,103 182.001,103 C198.017,103 211.001,90.016 211.001,73.999 C210.983,57.991 198.01,45.018 182.001,44.999 Z M182.001,105 C164.88,105 151.001,91.12 151.001,73.999 C151.001,56.879 164.88,42.999 182.001,42.999 C199.122,42.999 213.001,56.879 213.001,73.999 C212.982,91.112 199.114,104.98 182.001,105 Z"/>
    <path fill="#48515A" d="M182.001,44.999 C174.009,44.999 167.506,58.009 167.506,73.999 C167.506,89.99 174.009,103 182.001,103 C189.993,103 196.496,89.99 196.496,73.999 C196.496,58.009 189.993,44.999 182.001,44.999 Z M182.001,105 C172.751,105 165.506,91.383 165.506,73.999 C165.506,56.616 172.751,42.999 182.001,42.999 C191.251,42.999 198.496,56.616 198.496,73.999 C198.496,91.383 191.251,105 182.001,105 Z"/>
    <polygon fill="#48515A" points="181.001 104 183.001 104 183.001 43.999 181.001 43.999"/>
    <polygon fill="#48515A" points="152.001 74.999 212.001 74.999 212.001 72.999 152.001 72.999"/>
    <polygon fill="#48515A" points="157.461 57.997 206.783 57.997 206.783 55.997 157.461 55.997"/>
    <polygon fill="#48515A" points="156.809 91.91 207.02 91.91 207.02 89.91 156.809 89.91"/>
  </g>
</svg>
