<svg xmlns="http://www.w3.org/2000/svg" width="250" height="250" viewBox="0 0 250 250">
  <g fill="none" fill-rule="evenodd">
    <path fill="#DEDEDD" d="M197,105.002 C193.686,105.002 191,102.316 191,99.002 C191,102.316 188.314,105.002 185,105.002 C181.686,105.002 179,102.316 179,99.002 C179,102.316 176.314,105.002 173,105.002 C169.686,105.002 167,102.316 167,99.002 C167,102.316 164.314,105.002 161,105.002 C157.686,105.002 155,102.316 155,99.002 C155,102.316 152.314,105.002 149,105.002 C145.686,105.002 143,102.316 143,99.002 C143,102.316 140.314,105.002 137,105.002 C133.686,105.002 131,102.316 131,99.002 C131,102.316 128.314,105.002 125,105.002 C121.686,105.002 119,102.316 119,99.002 C119,102.316 116.314,105.002 113,105.002 C109.686,105.002 107,102.316 107,99.002 C107,102.316 104.314,105.002 101,105.002 C97.686,105.002 95,102.316 95,99.002 C95,102.316 92.314,105.002 89,105.002 C85.686,105.002 83,102.316 83,99.002 C83,102.316 80.314,105.002 77,105.002 C73.686,105.002 71,102.316 71,99.002 C71,102.316 68.314,105.002 65,105.002 C61.686,105.002 59,102.316 59,99.002 C59.012,102.304 56.345,104.99 53.043,105.002 C52.521,105.004 52.002,104.938 51.497,104.805 L51.497,111 L198.528,111 L198.528,104.798 C198.029,104.932 197.516,105 197,105.002"/>
    <path fill="#F58E70" d="M59,57.002 L50,57.002 L50,99.002 C50,100.659 51.343,102.002 53,102.002 C54.657,102.002 56,100.659 56,99.002 L62,99.002 C62,100.659 63.343,102.002 65,102.002 C66.657,102.002 68,100.659 68,99.002 L74,99.002 C74,100.659 75.343,102.002 77,102.002 C78.657,102.002 80,100.659 80,99.002 L86,99.002 C86,100.659 87.343,102.002 89,102.002 C90.657,102.002 92,100.659 92,99.002 L98,99.002 C98,100.659 99.343,102.002 101,102.002 C102.657,102.002 104,100.659 104,99.002 L110,99.002 C110,100.659 111.343,102.002 113,102.002 C114.657,102.002 116,100.659 116,99.002 L122,99.002 C122,100.659 123.343,102.002 125,102.002 C126.657,102.002 128,100.659 128,99.002 L134,99.002 C134,100.659 135.343,102.002 137,102.002 C138.657,102.002 140,100.659 140,99.002 L146,99.002 C146,100.659 147.343,102.002 149,102.002 C150.657,102.002 152,100.659 152,99.002 L158,99.002 C158,100.659 159.343,102.002 161,102.002 C162.657,102.002 164,100.659 164,99.002 L170,99.002 C170,100.659 171.343,102.002 173,102.002 C174.657,102.002 176,100.659 176,99.002 L182,99.002 C182,100.659 183.343,102.002 185,102.002 C186.657,102.002 188,100.659 188,99.002 L194,99.002 C194,100.659 195.343,102.002 197,102.002 C198.657,102.002 200,100.659 200,99.002 L200,57.002 L191,57.002 L191,91.501 L179,91.501 L179,67 L167,67 L167,91.501 L155,91.501 L155,67 L143,67 L143,91.501 L131,91.501 L131,67 L119,67 L119,91.501 L107,91.501 L107,67 L95,67 L95,91.501 L83,91.501 L83,67 L71,67 L71,91.501 L59,91.501 L59,57.002"/>
    <polygon fill="#DEDEDD" points="60.001 168 152.002 168 152.002 160.503 60.001 160.503"/>
    <polygon fill="#48515A" points="197 181.503 199 181.503 199 177 197 177"/>
    <polygon fill="#48515A" points="197 143 199 143 199 105.002 197 105.002"/>
    <polygon fill="#48515A" points="51 181.503 53 181.503 53 105.002 51 105.002"/>
    <path fill="#48515A" d="M61,167 L151,167 L151,117.002 L61,117.002 L61,167 Z M59,169 L153,169 L153,115.002 L59,115.002 L59,169 Z"/>
    <polyline fill="#48515A" points="191 181.002 159 181.002 159 115 191 115 191 147 189 147 189 117 161 117 161 179.002 189 179.002 189 173 191 173 191 181.002"/>
    <polyline fill="#48515A" points="204 71 202 71 202 55.002 191 55.002 191 53.002 204 53.002 204 71"/>
    <path fill="#48515A" d="M197,106.002 C194.542,106.001 192.265,104.711 191,102.605 C189.012,105.918 184.714,106.993 181.401,105.005 C180.415,104.414 179.591,103.59 179,102.605 C177.012,105.918 172.714,106.993 169.401,105.005 C168.415,104.414 167.591,103.59 167,102.605 C165.012,105.918 160.714,106.993 157.401,105.005 C156.415,104.414 155.591,103.59 155,102.605 C153.012,105.918 148.714,106.993 145.401,105.005 C144.415,104.414 143.591,103.59 143,102.605 C141.012,105.918 136.714,106.993 133.401,105.005 C132.415,104.414 131.591,103.59 131,102.605 C129.012,105.918 124.714,106.993 121.401,105.005 C120.415,104.414 119.591,103.59 119,102.605 C117.012,105.918 112.714,106.993 109.401,105.005 C108.415,104.414 107.591,103.59 107,102.605 C105.012,105.918 100.714,106.993 97.401,105.005 C96.415,104.414 95.591,103.59 95,102.605 C93.012,105.918 88.714,106.993 85.401,105.005 C84.415,104.414 83.591,103.59 83,102.605 C81.012,105.918 76.714,106.993 73.401,105.005 C72.415,104.414 71.591,103.59 71,102.605 C69.012,105.918 64.714,106.993 61.401,105.005 C60.416,104.414 59.591,103.59 59,102.605 C57.011,105.919 52.712,106.993 49.397,105.004 C47.289,103.739 46,101.461 46,99.002 L46,53.002 L59,53.002 L59,55.002 L48,55.002 L48,99.002 C48,101.763 50.239,104.002 53,104.002 C55.761,104.002 58,101.763 58,99.002 L60,99.002 C60,101.763 62.239,104.002 65,104.002 C67.761,104.002 70,101.763 70,99.002 L72,99.002 C72,101.763 74.239,104.002 77,104.002 C79.761,104.002 82,101.763 82,99.002 L84,99.002 C84,101.763 86.239,104.002 89,104.002 C91.761,104.002 94,101.763 94,99.002 L96,99.002 C96,101.763 98.239,104.002 101,104.002 C103.761,104.002 106,101.763 106,99.002 L108,99.002 C108,101.763 110.239,104.002 113,104.002 C115.761,104.002 118,101.763 118,99.002 L120,99.002 C120,101.763 122.239,104.002 125,104.002 C127.761,104.002 130,101.763 130,99.002 L132,99.002 C132,101.763 134.239,104.002 137,104.002 C139.761,104.002 142,101.763 142,99.002 L144,99.002 C144,101.763 146.239,104.002 149,104.002 C151.761,104.002 154,101.763 154,99.002 L156,99.002 C156,101.763 158.239,104.002 161,104.002 C163.761,104.002 166,101.763 166,99.002 L168,99.002 C168,101.763 170.239,104.002 173,104.002 C175.761,104.002 178,101.763 178,99.002 L180,99.002 C180,101.763 182.239,104.002 185,104.002 C187.761,104.002 190,101.763 190,99.002 L192,99.002 C192,101.763 194.239,104.002 197,104.002 C199.761,104.002 202,101.763 202,99.002 L202,85 L204,85 L204,99.002 C203.996,102.866 200.864,105.998 197,106.002"/>
    <polyline fill="#48515A" points="189 64.999 121 64.999 121 62.999 187 62.999 187 30.997 63 30.997 63 62.999 88.833 62.999 88.833 64.999 61 64.999 61 28.997 189 28.997 189 64.999"/>
    <polygon fill="#48515A" points="101 187.002 221 187.002 221 185.002 101 185.002"/>
    <polygon fill="#48515A" points="29 187.002 61.003 187.002 61.003 185.002 29 185.002"/>
    <polygon fill="#5FE0ED" points="165.497 154.498 183.497 154.498 183.497 142.5 165.497 142.5"/>
    <polygon fill="#48515A" points="173.499 142.5 175.499 142.5 175.499 135.502 173.499 135.502"/>
    <path fill="#48515A" d="M174.499,130.003 C173.394,130.003 172.499,130.898 172.499,132.003 C172.499,133.107 173.394,134.003 174.499,134.003 C175.604,134.003 176.499,133.107 176.499,132.003 C176.498,130.899 175.603,130.004 174.499,130.003 Z M174.499,136.003 C172.29,136.003 170.499,134.212 170.499,132.003 C170.499,129.794 172.29,128.003 174.499,128.003 C176.708,128.003 178.499,129.794 178.499,132.003 C178.496,134.211 176.707,136 174.499,136.003 Z"/>
    <path fill="#DEDEDD" d="M136.996 151.5L139.996 151.5 139.996 148.5 136.996 148.5 136.996 151.5zM136.996 157.5L139.996 157.5 139.996 154.5 136.996 154.5 136.996 157.5zM130.996 151.5L133.996 151.5 133.996 148.5 130.996 148.5 130.996 151.5zM130.996 157.5L133.996 157.5 133.996 154.5 130.996 154.5 130.996 157.5zM124.996 151.5L127.996 151.5 127.996 148.5 124.996 148.5 124.996 151.5zM124.996 157.5L127.996 157.5 127.996 154.5 124.996 154.5 124.996 157.5zM118.996 151.5L121.996 151.5 121.996 148.5 118.996 148.5 118.996 151.5zM118.996 157.5L121.996 157.5 121.996 154.5 118.996 154.5 118.996 157.5zM115.996 145.5L109.996 145.5C108.34 145.5 106.996 146.843 106.996 148.5 106.996 150.157 108.34 151.5 109.996 151.5 111.653 151.5 112.996 150.157 112.996 148.5L115.996 148.5 115.996 163.5 139.996 163.5 142.996 151.5 142.996 145.5 115.996 145.5zM98 151.5L101 151.5 101 148.5 98 148.5 98 151.5zM98 157.5L101 157.5 101 154.5 98 154.5 98 157.5zM92 151.5L95 151.5 95 148.5 92 148.5 92 151.5zM92 157.5L95 157.5 95 154.5 92 154.5 92 157.5zM86 151.5L89 151.5 89 148.5 86 148.5 86 151.5zM86 157.5L89 157.5 89 154.5 86 154.5 86 157.5zM80 151.5L83 151.5 83 148.5 80 148.5 80 151.5zM80 157.5L83 157.5 83 154.5 80 154.5 80 157.5zM77 145.5L71 145.5C69.343 145.5 68 146.843 68 148.5 68 150.157 69.343 151.5 71 151.5 72.657 151.5 74 150.157 74 148.5L77 148.5 77 163.5 101 163.5 104 151.5 104 145.5 77 145.5zM140 202.75L167 202.75 167 199.75 140 199.75 140 202.75zM86 202.75L113 202.75 113 199.75 86 199.75 86 202.75zM32 202.75L59 202.75 59 199.75 32 199.75 32 202.75zM29 189L29 221 221 221 221 202.75 194 202.75 194 199.75 221 199.75 221 189 29 189z"/>
    <polygon fill="#48515A" points="34.968 116.988 36.968 116.988 36.968 112.988 34.968 112.988"/>
    <polygon fill="#48515A" points="34.968 126.988 36.968 126.988 36.968 122.988 34.968 122.988"/>
    <polygon fill="#48515A" points="38.968 120.988 42.968 120.988 42.968 118.988 38.968 118.988"/>
    <polygon fill="#48515A" points="28.968 120.988 32.968 120.988 32.968 118.988 28.968 118.988"/>
    <polygon fill="#48515A" points="209.034 33.002 211.034 33.002 211.034 29.002 209.034 29.002"/>
    <polygon fill="#48515A" points="209.034 43.002 211.034 43.002 211.034 39.002 209.034 39.002"/>
    <polygon fill="#48515A" points="213.034 37.002 217.034 37.002 217.034 35.002 213.034 35.002"/>
    <polygon fill="#48515A" points="203.034 37.002 207.034 37.002 207.034 35.002 203.034 35.002"/>
    <path fill="#48515A" d="M180.895,81.005 L216.048,81.005 C217.719,80.988 219.061,79.621 219.048,77.949 C219.058,76.333 217.757,75.015 216.141,75.004 C216.11,75.004 216.079,75.004 216.048,75.005 L180.895,75.005 L174.389,78.005 L180.895,81.005 Z M216.048,83.005 L180.456,83.005 L169.612,78.005 L180.456,73.005 L216.048,73.005 C218.749,72.946 220.987,75.088 221.047,77.789 C221.047,77.824 221.048,77.859 221.048,77.894 C221.084,80.68 218.854,82.969 216.067,83.005 C216.06,83.005 216.054,83.005 216.048,83.005 Z"/>
    <polygon fill="#48515A" points="208.844 82.005 210.844 82.005 210.844 74.005 208.844 74.005"/>
    <polygon fill="#48515A" points="181.844 79.005 209.844 79.005 209.844 77.005 181.844 77.005"/>
    <path fill="#48515A" d="M191.018,166.507 L205.02,173.559 L219.021,166.507 L219.021,152.631 L205.02,145.58 L191.018,152.631 L191.018,166.507 Z M205.02,175.798 L189.018,167.74 L189.018,151.398 L205.02,143.341 L221.021,151.398 L221.021,167.74 L205.02,175.798 Z"/>
    <polyline fill="#48515A" points="205.02 160.689 189.568 152.908 190.468 151.122 205.02 158.45 219.572 151.122 220.471 152.908 205.02 160.689"/>
    <polygon fill="#48515A" points="204.02 174.678 206.02 174.678 206.02 159.569 204.02 159.569"/>
    <polyline fill="#48515A" points="213.536 160.471 211.536 160.471 211.536 156.287 197.084 149.009 197.983 147.223 213.536 155.055 213.536 160.471"/>
    <path fill="#48515A" d="M89.971 49.923C88.314 49.923 86.971 51.266 86.971 52.923 86.971 54.58 88.314 55.923 89.971 55.923 91.628 55.923 92.971 54.58 92.971 52.923 92.969 51.267 91.627 49.925 89.971 49.923zM89.971 57.923C87.21 57.923 84.971 55.685 84.971 52.923 84.971 50.162 87.21 47.923 89.971 47.923 92.733 47.923 94.971 50.162 94.971 52.923 94.968 55.683 92.731 57.92 89.971 57.923zM89.971 71.923C88.314 71.923 86.971 73.266 86.971 74.923 86.971 76.58 88.314 77.923 89.971 77.923 91.628 77.923 92.971 76.58 92.971 74.923 92.969 73.267 91.627 71.925 89.971 71.923zM89.971 79.923C87.21 79.923 84.971 77.685 84.971 74.923 84.971 72.162 87.21 69.923 89.971 69.923 92.733 69.923 94.971 72.162 94.971 74.923 94.968 77.683 92.731 79.92 89.971 79.923z"/>
    <polyline fill="#48515A" points="87.019 70.888 113.351 50.137 114.59 51.708 88.257 72.46 87.019 70.888"/>
    <polyline fill="#48515A" points="86.852 56.834 88.09 55.263 114.59 76.138 113.352 77.709 86.852 56.834"/>
    <path fill="#48515A" d="M102.971,64.922 L104.971,64.922 L104.971,62.922 L102.971,62.922 L102.971,64.922 Z M106.971,64.922 L108.971,64.922 L108.971,62.922 L106.971,62.922 L106.971,64.922 Z M110.971,64.922 L112.971,64.922 L112.971,62.922 L110.971,62.922 L110.971,64.922 Z M114.971,64.922 L116.971,64.922 L116.971,62.922 L114.971,62.922 L114.971,64.922 Z"/>
    <polygon fill="#48515A" points="64.973 194.966 66.973 194.966 66.973 176.966 64.973 176.966"/>
    <polygon fill="#48515A" points="68.973 194.965 72.973 194.965 72.973 176.999 68.973 176.999"/>
    <polygon fill="#48515A" points="74.973 194.966 76.973 194.966 76.973 176.966 74.973 176.966"/>
    <polygon fill="#48515A" points="78.973 194.966 80.973 194.966 80.973 176.966 78.973 176.966"/>
    <polygon fill="#48515A" points="82.973 194.965 86.973 194.965 86.973 176.966 82.973 176.966"/>
    <polygon fill="#48515A" points="88.973 194.966 90.973 194.966 90.973 176.966 88.973 176.966"/>
    <polygon fill="#48515A" points="92.973 194.965 96.973 194.965 96.973 176.966 92.973 176.966"/>
  </g>
</svg>
