<svg xmlns="http://www.w3.org/2000/svg" width="250" height="250" viewBox="0 0 250 250">
  <g fill="none" fill-rule="evenodd">
    <polygon fill="#48515A" points="125.577 193.247 127.577 193.247 127.577 164.205 125.577 164.205"/>
    <path fill="#48515A" d="M128.189,189.408 L124.964,189.408 C121.741,189.404 119.129,186.792 119.125,183.568 L121.125,183.568 C121.127,185.688 122.845,187.405 124.964,187.408 L128.189,187.408 C130.31,187.408 132.03,185.688 132.03,183.567 C132.03,181.446 130.31,179.727 128.189,179.727 L124.964,179.727 C121.739,179.731 119.122,177.12 119.117,173.895 C119.113,170.67 121.724,168.053 124.949,168.048 C124.954,168.048 124.959,168.048 124.964,168.048 L128.189,168.048 C131.413,168.052 134.025,170.664 134.029,173.888 L132.029,173.888 C132.026,171.768 130.309,170.051 128.189,170.048 L124.964,170.048 C122.844,170.052 121.128,171.773 121.131,173.894 C121.134,176.009 122.849,177.724 124.964,177.727 L128.189,177.727 C131.415,177.727 134.03,180.342 134.03,183.567 C134.03,186.793 131.415,189.408 128.189,189.408"/>
    <polygon fill="#48515A" points="148.154 193.247 150.154 193.247 150.154 164.205 148.154 164.205"/>
    <path fill="#48515A" d="M150.766,189.408 L147.541,189.408 C144.318,189.404 141.705,186.792 141.702,183.568 L143.702,183.568 C143.704,185.688 145.421,187.405 147.541,187.408 L150.766,187.408 C152.887,187.408 154.606,185.688 154.606,183.567 C154.606,181.446 152.887,179.727 150.766,179.727 L147.541,179.727 C144.316,179.723 141.705,177.105 141.709,173.88 C141.713,170.661 144.322,168.053 147.541,168.048 L150.766,168.048 C153.99,168.052 156.602,170.664 156.605,173.888 L154.605,173.888 C154.603,171.768 152.886,170.051 150.766,170.048 L147.541,170.048 C145.421,170.052 143.704,171.773 143.708,173.894 C143.711,176.009 145.425,177.724 147.541,177.727 L150.766,177.727 C153.992,177.727 156.606,180.342 156.606,183.567 C156.606,186.793 153.992,189.408 150.766,189.408"/>
    <polygon fill="#48515A" points="170.749 193.247 172.749 193.247 172.749 164.205 170.749 164.205"/>
    <path fill="#48515A" d="M173.362,189.408 L170.137,189.408 C166.914,189.404 164.302,186.792 164.298,183.568 L166.298,183.568 C166.3,185.688 168.018,187.405 170.137,187.408 L173.362,187.408 C175.483,187.408 177.203,185.688 177.203,183.567 C177.203,181.446 175.483,179.727 173.362,179.727 L170.137,179.727 C166.912,179.723 164.301,177.105 164.305,173.88 C164.31,170.661 166.918,168.053 170.137,168.048 L173.362,168.048 C176.586,168.052 179.198,170.664 179.202,173.888 L177.202,173.888 C177.199,171.768 175.482,170.051 173.362,170.048 L170.137,170.048 C168.017,170.052 166.3,171.773 166.304,173.894 C166.307,176.009 168.021,177.724 170.137,177.727 L173.362,177.727 C176.588,177.727 179.203,180.342 179.203,183.567 C179.203,186.793 176.588,189.408 173.362,189.408"/>
    <polygon fill="#48515A" points="102.761 153.001 193.339 153.001 193.339 151.001 102.761 151.001"/>
    <polygon fill="#48515A" points="107.214 139.001 165.298 139.001 165.298 137.001 107.214 137.001"/>
    <polygon fill="#48515A" points="174.979 139.001 187.886 139.001 187.886 137.001 174.979 137.001"/>
    <polygon fill="#48515A" points="107.214 128.999 165.298 128.999 165.298 127 107.214 127"/>
    <polygon fill="#48515A" points="174.979 128.999 187.886 128.999 187.886 127 174.979 127"/>
    <polygon fill="#48515A" points="107.214 119.001 165.298 119.001 165.298 117.001 107.214 117.001"/>
    <polygon fill="#48515A" points="174.979 119.001 187.886 119.001 187.886 117.001 174.979 117.001"/>
    <polygon fill="#48515A" points="107.214 109 165.298 109 165.298 107 107.214 107"/>
    <polygon fill="#48515A" points="174.979 109 187.886 109 187.886 107 174.979 107"/>
    <polygon fill="#48515A" points="107.214 99.091 165.298 99.091 165.298 97.091 107.214 97.091"/>
    <polygon fill="#48515A" points="174.979 99.091 187.886 99.091 187.886 97.091 174.979 97.091"/>
    <polygon fill="#48515A" points="107.214 89 165.298 89 165.298 87 107.214 87"/>
    <polygon fill="#48515A" points="174.979 89 187.886 89 187.886 87 174.979 87"/>
    <polygon fill="#48515A" points="107.214 79.001 165.298 79.001 165.298 77.001 107.214 77.001"/>
    <polygon fill="#48515A" points="174.979 79.001 185 79.001 185 77.001 174.979 77.001"/>
    <polygon fill="#48515A" points="107.214 69.049 165.298 69.049 165.298 67.049 107.214 67.049"/>
    <polygon fill="#48515A" points="174.979 69.049 185 69.049 185 67.049 174.979 67.049"/>
    <polygon fill="#48515A" points="107.214 59.368 165.298 59.368 165.298 57.368 107.214 57.368"/>
    <polygon fill="#48515A" points="174.979 59.368 187.886 59.368 187.886 57.368 174.979 57.368"/>
    <polygon fill="#48515A" points="52.995 71.007 75.938 71.007 75.938 69.007 52.995 69.007"/>
    <path fill="#48515A" d="M44.995,142.993 L58.996,142.993 L58.996,78.006 C58.996,74.14 55.861,71.005 51.995,71.005 C48.129,71.005 44.995,74.14 44.995,78.006 L44.995,142.993 Z M201.794,210.993 L196.567,210.993 L196.567,209.994 C196.567,207.873 194.848,206.153 192.727,206.153 C190.606,206.153 188.886,207.872 188.886,209.993 L188.886,210.993 L183.659,210.993 L183.659,209.993 C183.659,207.872 181.94,206.153 179.819,206.153 C177.698,206.153 175.979,207.872 175.979,209.993 L175.979,210.993 L170.751,210.993 L170.751,209.993 C170.749,207.872 169.028,206.155 166.907,206.157 C164.79,206.159 163.074,207.876 163.071,209.993 L163.071,210.993 L157.844,210.993 L157.844,209.993 C157.841,207.872 156.12,206.155 154,206.157 C151.882,206.159 150.166,207.876 150.164,209.993 L150.164,210.993 L144.936,210.993 L144.936,209.993 C144.936,207.872 143.217,206.153 141.096,206.153 C138.975,206.153 137.256,207.872 137.256,209.993 L137.256,210.993 L132.029,210.993 L132.029,209.993 C132.029,207.872 130.309,206.153 128.188,206.153 C126.067,206.153 124.348,207.873 124.348,209.994 L124.348,210.993 L119.121,210.993 L119.121,209.993 C119.119,207.872 117.398,206.155 115.277,206.157 C113.159,206.159 111.443,207.876 111.441,209.993 L111.441,210.993 L106.214,210.993 L106.214,209.994 C106.212,207.873 104.491,206.155 102.37,206.157 C100.252,206.158 98.535,207.875 98.533,209.993 L98.533,210.993 L93.223,210.993 L93.222,209.994 C93.221,208.696 92.56,207.488 91.466,206.79 L91.009,206.494 L91.009,205.949 L91.08,48.105 C91.083,44.202 87.922,41.036 84.019,41.033 C80.116,41.029 76.949,44.191 76.946,48.094 C76.946,48.097 76.946,48.1 76.946,48.102 L76.946,172.02 C76.946,176.976 72.927,180.995 67.971,180.995 C63.014,180.995 58.996,176.976 58.996,172.02 L58.996,144.993 L42.995,144.993 L42.995,78.006 C42.995,73.035 47.024,69.005 51.995,69.005 C56.966,69.005 60.996,73.035 60.996,78.006 L60.996,172.02 C60.996,175.872 64.118,178.995 67.971,178.995 C71.823,178.995 74.946,175.872 74.946,172.02 L74.946,48.102 C74.945,43.095 79.004,39.035 84.011,39.034 C89.019,39.033 93.079,43.092 93.08,48.099 C93.08,48.102 93.08,48.104 93.08,48.106 L93.009,205.436 C94.132,206.319 94.89,207.586 95.136,208.993 L96.619,208.993 C97.172,205.815 100.197,203.687 103.375,204.24 C105.804,204.663 107.705,206.565 108.128,208.993 L109.527,208.993 C110.08,205.815 113.104,203.687 116.282,204.24 C118.711,204.663 120.613,206.565 121.035,208.993 L122.434,208.993 C122.987,205.815 126.012,203.687 129.19,204.24 C131.618,204.663 133.52,206.565 133.943,208.993 L135.342,208.993 C135.895,205.815 138.92,203.687 142.098,204.24 C144.526,204.663 146.428,206.565 146.851,208.993 L148.25,208.993 C148.802,205.815 151.827,203.687 155.005,204.24 C157.434,204.663 159.335,206.565 159.758,208.993 L161.157,208.993 C161.71,205.815 164.735,203.687 167.913,204.24 C170.341,204.663 172.243,206.565 172.666,208.993 L174.064,208.993 C174.618,205.815 177.642,203.687 180.82,204.24 C183.249,204.663 185.151,206.565 185.573,208.993 L186.972,208.993 C187.525,205.815 190.55,203.687 193.728,204.24 C196.157,204.663 198.058,206.565 198.481,208.993 L199.882,208.993 C200.207,207.176 201.37,205.619 203.021,204.792 L203.025,129.747 L205.025,129.747 L205.021,206.157 L204.356,206.393 C202.828,206.932 201.803,208.373 201.794,209.993 L201.794,210.993 Z"/>
    <path fill="#48515A" d="M205.027,60.998 L203.026,60.998 L203.027,48.005 C203.023,44.104 199.861,40.942 195.959,40.938 L83.62,40.938 L83.62,38.937 L195.958,38.937 C200.964,38.943 205.021,42.999 205.027,48.005 L205.027,60.998"/>
    <polygon fill="#48515A" points="67.971 180.995 91.995 180.995 91.995 178.995 67.971 178.995"/>
    <polygon fill="#48515A" points="35.021 158.989 37.021 158.989 37.021 154.989 35.021 154.989"/>
    <polygon fill="#48515A" points="35.021 168.989 37.021 168.989 37.021 164.989 35.021 164.989"/>
    <polygon fill="#48515A" points="39.021 162.989 43.021 162.989 43.021 160.989 39.021 160.989"/>
    <polygon fill="#48515A" points="29.021 162.989 33.021 162.989 33.021 160.989 29.021 160.989"/>
    <polygon fill="#48515A" points="189.027 82.94 191.027 82.94 191.027 64.94 189.027 64.94"/>
    <polygon fill="#48515A" points="193.027 82.94 197.027 82.94 197.027 64.974 193.027 64.974"/>
    <polygon fill="#48515A" points="199.027 82.94 201.027 82.94 201.027 64.94 199.027 64.94"/>
    <polygon fill="#48515A" points="203.027 82.94 205.027 82.94 205.027 64.94 203.027 64.94"/>
    <polygon fill="#48515A" points="207.027 82.939 211.027 82.939 211.027 64.94 207.027 64.94"/>
    <polygon fill="#48515A" points="213.027 82.94 215.027 82.94 215.027 64.94 213.027 64.94"/>
    <polygon fill="#48515A" points="217.027 82.939 221.027 82.939 221.027 64.94 217.027 64.94"/>
    <polyline fill="#FFD15D" points="63.987 184.971 73.987 196.974 63.987 208.976 40.982 208.976 40.982 184.971 63.987 184.971"/>
    <path fill="#48515A" d="M55.981 201.083C55.429 201.083 54.981 201.531 54.981 202.083 54.981 202.635 55.429 203.083 55.981 203.083 56.534 203.083 56.981 202.635 56.981 202.083 56.981 201.531 56.533 201.084 55.981 201.083zM55.981 205.083C54.325 205.083 52.981 203.74 52.981 202.083 52.981 200.426 54.325 199.083 55.981 199.083 57.638 199.083 58.981 200.426 58.981 202.083 58.98 203.739 57.638 205.081 55.981 205.083zM47.981 191.083C47.429 191.083 46.981 191.531 46.981 192.083 46.981 192.635 47.429 193.083 47.981 193.083 48.534 193.083 48.981 192.635 48.981 192.083 48.981 191.531 48.533 191.084 47.981 191.083zM47.981 195.083C46.325 195.083 44.981 193.74 44.981 192.083 44.981 190.426 46.325 189.083 47.981 189.083 49.638 189.083 50.981 190.426 50.981 192.083 50.98 193.739 49.638 195.081 47.981 195.083z"/>
    <polyline fill="#48515A" points="45.222 203.432 57.223 189.432 58.741 190.734 46.74 204.734 45.222 203.432"/>
    <path fill="#FFD15D" d="M56.996 140.993L46.995 140.993 46.995 78.006C46.995 75.244 49.233 73.005 51.995 73.005 54.757 73.005 56.996 75.244 56.996 78.006L56.996 140.993M77.741 176.995C78.532 175.456 78.945 173.75 78.946 172.02L78.946 48.102C78.944 45.304 81.212 43.034 84.01 43.033 86.809 43.031 89.079 45.299 89.08 48.097 89.08 48.1 89.08 48.102 89.08 48.104L89.022 176.995 77.741 176.995"/>
    <polygon fill="#48515A" points="203.024 115.008 205.024 115.008 205.024 111.008 203.024 111.008"/>
    <polygon fill="#48515A" points="203.024 125.008 205.024 125.008 205.024 121.008 203.024 121.008"/>
    <polygon fill="#48515A" points="207.024 119.008 211.024 119.008 211.024 117.008 207.024 117.008"/>
    <polygon fill="#48515A" points="197.024 119.008 201.024 119.008 201.024 117.008 197.024 117.008"/>
    <polygon fill="#48515A" points="202.999 107 204.999 107 204.999 87 202.999 87"/>
  </g>
</svg>
