<svg xmlns="http://www.w3.org/2000/svg" width="250" height="250" viewBox="0 0 250 250">
  <g fill="none" fill-rule="evenodd">
    <path fill="#5FE0ED" d="M212.024,112.923 C213.681,112.923 215.024,114.266 215.024,115.923 C215.024,117.58 213.681,118.923 212.024,118.923 C210.367,118.923 209.024,117.58 209.024,115.923 C209.024,114.266 210.367,112.923 212.024,112.923"/>
    <path fill="#FFD45C" d="M110.959,141.794 L111.292,123.794 L138.292,118.294 L137.959,141.627 L146.887,145.127 L163.000092,151.337 L163,81.742 C163.046,60.479 145.847,43.204 124.584,43.158 C103.321,43.111 86.046,60.31 86,81.573 C86,81.629 86,81.686 86,81.742 L86,151.257 L100.639,145.627 L110.959,141.794"/>
    <polyline fill="#EAEAE9" points="138 142.425 138 128.023 111.364 126.96 111.366 132.627 138 142.425"/>
    <path fill="#48515A" d="M182.62 175.992L172 175.992 172 173.992 182.62 173.992C183.46 173.989 184.255 173.615 184.794 172.971 185.357 172.31 185.599 171.433 185.456 170.577 182.979 163.566 177.558 157.99 170.619 155.317L146.561 146.127 147.273 144.258 171.337 153.451C178.861 156.348 184.729 162.41 187.382 170.024L187.434 170.268C187.667 171.698 187.26 173.159 186.321 174.263 185.403 175.357 184.048 175.99 182.62 175.992M58 207.992L56 207.992 56.009 206.773 60.27 175.398C61.599 165.472 68.228 157.057 77.567 153.44L100.289 144.735 101.004 146.602 78.286 155.307C69.629 158.661 63.484 166.463 62.252 175.665L58 206.976 58 207.992"/>
    <path fill="#48515A" d="M124.582,195.754 L123.818,194.856 C122.724,193.569 97,163.193 97,150.869 L97,150.76 C96.956,147.804 98.78,145.142 101.552,144.114 L110,140.98 L110,119.354 L139,113.953 L139,140.985 L147.597,144.249 C150.338,145.303 152.15,147.933 152.159,150.869 C152.159,155.17 149.057,162.089 142.938,171.434 L141.264,170.338 C147.083,161.452 150.159,154.719 150.159,150.869 C150.153,148.762 148.853,146.876 146.887,146.12 L137,142.365 L137,116.36 L112,121.016 L112,142.37 L102.245,145.99 C100.262,146.732 98.962,148.643 99,150.76 L99,150.869 C99,161.336 120.248,187.439 124.579,192.65 C125.416,191.641 126.886,189.852 128.703,187.561 L130.27,188.804 C127.382,192.443 125.363,194.831 125.344,194.855 L124.582,195.754"/>
    <path fill="#FFF" d="M133.416,131.036 C137.942,127.36 141.888,123.022 145.121,118.17 C150.456,109.662 153,98.665 153,87.83 L153,86.992 L129.139,86.992 C121.761,86.865 115.882,80.786 116,73.408 C115.918,80.87 109.894,86.901 102.433,86.992 L97,86.992 L97,87.83 C97,98.621 99.075,109.712 104.351,118.231 C107.417,123.002 111.183,127.284 115.523,130.933 C117.108,132.293 119.137,133.025 121.225,132.992 L127.422,132.992 C129.59,133.078 131.716,132.384 133.416,131.036"/>
    <path fill="#48515A" d="M98,87.992 C98.017,96.309 99.288,108.156 105.202,117.705 C108.212,122.388 111.911,126.591 116.173,130.173 C117.577,131.377 119.375,132.024 121.225,131.992 L127.422,131.992 C129.354,132.081 131.253,131.47 132.77,130.272 C134.656,128.677 140.395,123.825 144.273,117.639 C149.232,109.731 151.974,99.208 152,87.992 L129.139,87.992 C123.245,87.936 118,84.239 115.966,78.707 C113.742,84.249 108.405,87.912 102.434,87.992 L98,87.992 Z M127.422,133.992 L121.225,133.992 C118.898,134.029 116.638,133.211 114.874,131.693 C110.455,127.977 106.621,123.616 103.501,118.757 C97.302,108.747 96,96.414 96,87.831 L96,85.992 L102.434,85.992 C109.341,85.897 114.914,80.315 115,73.408 L115,69.733 L117,69.733 L117,73.408 C116.887,80.231 122.316,85.859 129.139,85.992 L154,85.992 L154,87.831 C154,99.478 151.147,110.441 145.969,118.701 C141.924,125.151 136.006,130.155 134.061,131.799 C132.186,133.308 129.827,134.087 127.422,133.992 Z"/>
    <path fill="#48515A" d="M90.291,88.927 C90.098,86.966 90,85.151 90,83.534 L90,83.055 C90.05,73.638 93.829,64.624 100.51,57.986 C112.724,45.714 132.21,44.579 145.766,55.351 C149.781,58.524 153.046,62.544 155.328,67.125 C155.524,67.52 155.713,67.92 155.895,68.325 C157.904,72.641 158.948,77.345 158.952,82.107 L159,82.437 L159,83.534 C158.971,85.33 158.844,87.124 158.62,88.907 L156.632,88.683 C156.848,86.974 156.97,85.255 157,83.534 L156.951,82.205 C156.962,77.697 155.98,73.241 154.075,69.155 C153.899,68.763 153.722,68.386 153.537,68.015 C151.387,63.699 148.31,59.911 144.527,56.921 C131.765,46.775 113.416,47.845 101.92,59.405 C95.616,65.666 92.049,74.17 92,83.055 L92,83.534 C92,85.086 92.095,86.835 92.281,88.731 L90.291,88.927"/>
    <path fill="#FFF" d="M92.948,109.296 L99.79,107.721 C100.849,107.462 101.506,106.403 101.266,105.339 L97.747,89.729 C97.504,88.651 96.434,87.975 95.356,88.217 C95.344,88.22 95.332,88.223 95.32,88.226 L88.549,89.783 C86.393,90.269 85.04,92.41 85.526,94.565 L88.165,106.274 C88.651,108.429 90.792,109.782 92.948,109.296"/>
    <path fill="#48515A" d="M95.798,89.168 C95.717,89.168 95.636,89.178 95.558,89.197 L88.773,90.758 C87.157,91.119 86.139,92.723 86.501,94.34 C86.501,94.342 86.502,94.344 86.502,94.345 L89.141,106.054 C89.507,107.668 91.11,108.682 92.726,108.321 L99.565,106.747 C100.087,106.61 100.408,106.085 100.29,105.559 L96.771,89.948 C96.668,89.493 96.265,89.17 95.798,89.168 Z M92.067,110.395 C89.731,110.391 87.707,108.773 87.189,106.494 L84.551,94.785 C83.944,92.091 85.635,89.415 88.329,88.808 L95.096,87.251 C96.707,86.865 98.327,87.858 98.714,89.469 C98.717,89.482 98.72,89.495 98.723,89.508 L102.241,105.119 C102.593,106.713 101.611,108.298 100.027,108.692 L93.168,110.272 C92.807,110.353 92.438,110.394 92.067,110.395 Z"/>
    <path fill="#48515A" d="M93.136,96.067 C92.031,96.067 91.136,96.962 91.136,98.067 C91.136,99.171 92.031,100.067 93.136,100.067 C94.24,100.067 95.136,99.171 95.136,98.067 C95.134,96.963 94.24,96.068 93.136,96.067 Z M93.136,102.067 C90.927,102.067 89.136,100.276 89.136,98.067 C89.136,95.858 90.927,94.067 93.136,94.067 C95.345,94.067 97.136,95.858 97.136,98.067 C97.133,100.275 95.344,102.065 93.136,102.067 Z"/>
    <path fill="#FFF" d="M156.537,109.48 L149.154,107.721 C148.095,107.462 147.438,106.402 147.678,105.339 L151.197,89.729 C151.44,88.651 152.51,87.975 153.588,88.217 C153.6,88.22 153.612,88.223 153.624,88.226 L160.936,89.967 C163.091,90.453 164.444,92.593 163.958,94.749 L161.319,106.457 C160.833,108.612 158.692,109.965 156.537,109.48"/>
    <path fill="#48515A" d="M156.763,108.505 C158.377,108.864 159.978,107.85 160.344,106.237 L162.982,94.529 C163.347,92.913 162.332,91.307 160.716,90.942 L153.393,89.198 C152.856,89.064 152.313,89.39 152.178,89.926 C152.176,89.934 152.175,89.941 152.173,89.949 L148.653,105.559 C148.536,106.09 148.864,106.618 149.392,106.75 L156.763,108.505 Z M157.417,110.578 C157.047,110.578 156.678,110.537 156.317,110.455 L156.306,110.452 L148.922,108.694 C147.336,108.3 146.352,106.715 146.702,105.119 L150.222,89.509 C150.586,87.893 152.192,86.878 153.808,87.242 C153.826,87.246 153.844,87.25 153.861,87.254 L161.167,88.994 C163.855,89.607 165.54,92.279 164.934,94.969 L162.295,106.677 C161.778,108.956 159.754,110.574 157.417,110.578 Z"/>
    <path fill="#48515A" d="M155.809 96.067C154.704 96.067 153.809 96.962 153.809 98.067 153.809 99.171 154.704 100.067 155.809 100.067 156.913 100.067 157.809 99.171 157.809 98.067 157.807 96.963 156.913 96.068 155.809 96.067zM155.809 102.067C153.6 102.067 151.809 100.276 151.809 98.067 151.809 95.858 153.6 94.067 155.809 94.067 158.018 94.067 159.809 95.858 159.809 98.067 159.806 100.275 158.017 102.065 155.809 102.067zM122 116.992C121.448 116.992 121 117.44 121 117.992 121 118.545 121.448 118.992 122 118.992L128 118.992C128.552 118.992 129 118.545 129 117.992 129 117.44 128.552 116.992 128 116.992L122 116.992zM128 120.992L122 120.992C120.343 120.992 119 119.649 119 117.992 119 116.335 120.343 114.992 122 114.992L128 114.992C129.657 114.992 131 116.335 131 117.992 131 119.649 129.657 120.992 128 120.992z"/>
    <polyline fill="#48515A" points="134.761 118.992 130 118.992 130 116.992 134.636 116.992 150.313 115.037 153.502 108.812 155.281 109.724 151.609 116.89 134.761 118.992"/>
    <polyline fill="#48515A" points="90.312 89.021 92.274 88.637 93.44 94.602 91.478 94.985 90.312 89.021"/>
    <polyline fill="#48515A" points="155.474 94.953 156.595 88.621 158.564 88.969 157.443 95.301 155.474 94.953"/>
    <path fill="#48515A" d="M164.948 207.992L143.109 207.992C139.689 207.94 136.956 205.129 137 201.708L137 200.71C137 197.397 139.569 194.992 143.109 194.992L151.107 194.992C153.458 194.855 155.29 192.901 155.275 190.546L155.275 190.268C155.274 187.949 153.426 186.053 151.107 185.992L127.436 185.992C124.123 186.225 121.248 183.728 121.014 180.414 120.781 177.1 123.279 174.225 126.592 173.992 126.873 173.973 127.155 173.973 127.436 173.992L142 173.992 142 175.992 127.436 175.992C125.11 175.918 123.145 177.706 123 180.029 123.138 182.345 125.12 184.115 127.436 183.992L151.107 183.992C154.542 184.026 157.301 186.833 157.275 190.268L157.275 190.546C157.305 194.011 154.57 196.869 151.107 196.992L143.109 196.992C140.689 196.992 139 198.521 139 200.71L139 201.708C138.956 204.025 140.793 205.94 143.109 205.992L164.948 205.992C167.74 205.938 169.981 203.669 170 200.876L170 197.469 174.117 193.244 175.549 194.639 172 198.283 172 200.876C171.966 204.767 168.839 207.923 164.948 207.992M168.78 175.86C168.234 175.866 167.786 175.428 167.78 174.882 167.78 174.875 167.78 174.867 167.78 174.86 167.782 174.598 167.886 174.347 168.069 174.16 168.118 174.111 168.172 174.068 168.229 174.03 168.281 173.99 168.338 173.96 168.399 173.94 168.459 173.909 168.523 173.889 168.59 173.88 168.918 173.815 169.257 173.92 169.49 174.16 169.58 174.252 169.651 174.361 169.7 174.48 169.756 174.599 169.783 174.729 169.78 174.86 169.778 175.125 169.674 175.379 169.49 175.57 169.299 175.753 169.045 175.856 168.78 175.86M148.06 174.86C148.061 174.308 148.508 173.862 149.06 173.86 149.611 173.862 150.058 174.308 150.06 174.86 150.058 175.411 149.611 175.858 149.06 175.86 148.508 175.858 148.061 175.411 148.06 174.86zM152 174.86C152.002 174.308 152.448 173.862 153 173.86 153.552 173.862 153.998 174.308 154 174.86 153.998 175.411 153.552 175.858 153 175.86 152.448 175.858 152.002 175.411 152 174.86zM155.95 174.86C155.952 174.308 156.398 173.861 156.95 173.86 157.502 173.862 157.948 174.308 157.95 174.86 157.948 175.411 157.502 175.858 156.95 175.86 156.398 175.859 155.952 175.412 155.95 174.86zM159.89 174.86C159.891 174.308 160.338 173.862 160.89 173.86 161.441 173.862 161.888 174.308 161.89 174.86 161.888 175.411 161.441 175.858 160.89 175.86 160.338 175.858 159.891 175.411 159.89 174.86zM163.84 174.86C163.838 174.309 164.283 173.862 164.834 173.86 164.836 173.86 164.838 173.86 164.84 173.86 165.391 173.862 165.838 174.308 165.84 174.86 165.838 175.411 165.391 175.858 164.84 175.86 164.289 175.862 163.841 175.417 163.84 174.866 163.84 174.864 163.84 174.862 163.84 174.86z"/>
    <path fill="#48515A" d="M145.109 175.86C144.847 175.858 144.597 175.754 144.41 175.57 144.364 175.523 144.32 175.473 144.28 175.42L144.189 175.24C144.17 175.18 144.149 175.12 144.13 175.06 144.118 174.994 144.111 174.927 144.109 174.86 144.111 174.796 144.118 174.733 144.13 174.67 144.149 174.6 144.17 174.54 144.189 174.48 144.22 174.42 144.25 174.36 144.28 174.31 144.315 174.253 144.359 174.202 144.41 174.16 144.803 173.78 145.426 173.78 145.819 174.16 145.87 174.2 145.911 174.251 145.939 174.31 145.979 174.363 146.012 174.42 146.04 174.48 146.062 174.542 146.079 174.605 146.09 174.67 146.106 174.732 146.113 174.796 146.109 174.86 146.113 174.927 146.106 174.995 146.09 175.06 146.078 175.121 146.061 175.181 146.04 175.24 146.01 175.302 145.977 175.362 145.939 175.42 145.906 175.475 145.866 175.525 145.819 175.57 145.63 175.756 145.375 175.86 145.109 175.86M182.27 181.032C181.919 181.031 181.583 181.17 181.335 181.417L173.322 189.41C172.803 189.929 172.802 190.771 173.319 191.292L177.505 195.333C177.831 195.526 178.187 195.662 178.559 195.735 181.461 195.711 184.345 195.278 187.127 194.451 202.179 189.856 213.831 177.875 218.006 162.702 218.549 160.668 218.815 158.571 218.799 156.466 218.802 155.495 218.417 154.563 217.729 153.878L214.227 150.521C213.977 150.262 213.633 150.116 213.272 150.115L213.27 150.115C212.918 150.114 212.58 150.253 212.331 150.503L204.317 158.496C203.797 159.014 203.796 159.856 204.315 160.376L208.724 164.629 208.63 165.155C206.844 174.981 199.443 182.837 189.741 185.205L187.666 185.71 183.23 181.434C182.977 181.177 182.631 181.032 182.27 181.032zM178.364 197.738L178.258 197.717C177.471 197.581 176.73 197.252 176.102 196.759L171.917 192.717C170.611 191.415 170.607 189.302 171.909 187.996 171.909 187.995 171.91 187.995 171.91 187.994L179.923 180.001C181.226 178.705 183.333 178.708 184.633 180.007L188.262 183.506 189.269 183.261C198.016 181.127 204.75 174.141 206.561 165.32L202.913 161.803C201.607 160.508 201.597 158.4 202.891 157.094 202.896 157.089 202.9 157.084 202.905 157.08L210.919 149.087C211.542 148.462 212.388 148.112 213.271 148.115L213.274 148.115C214.158 148.113 215.006 148.466 215.628 149.093L219.13 152.449C220.202 153.511 220.803 154.959 220.799 156.469 220.815 158.753 220.524 161.03 219.934 163.237 215.577 179.068 203.419 191.568 187.715 196.362 184.715 197.256 181.603 197.719 178.473 197.737L178.364 197.738z"/>
    <polyline fill="#48515A" points="208.166 161.279 212.414 157.042 213.826 158.458 209.578 162.695 208.166 161.279"/>
    <polyline fill="#48515A" points="213.833 155.627 215.248 154.216 216.66 155.632 215.245 157.043 213.833 155.627"/>
    <polyline fill="#48515A" points="176.993 192.37 184.076 185.306 185.488 186.722 178.405 193.786 176.993 192.37"/>
    <path fill="#48515A" d="M193.948,154.876 L191.948,154.876 C191.958,146.044 199.116,138.886 207.948,138.876 L207.948,140.876 C200.22,140.885 193.957,147.148 193.948,154.876"/>
    <path fill="#48515A" d="M189.948,154.876 L187.948,154.876 C187.961,143.836 196.908,134.889 207.948,134.876 L207.948,136.876 C198.012,136.887 189.96,144.94 189.948,154.876"/>
    <path fill="#48515A" d="M185.948 154.876L183.948 154.876C183.963 141.628 194.7 130.891 207.948 130.876L207.948 132.876C195.804 132.89 185.962 142.731 185.948 154.876M197.948 154.876L195.948 154.876C195.956 148.252 201.324 142.883 207.948 142.876L207.948 144.876C202.428 144.882 197.955 149.356 197.948 154.876"/>
    <polygon fill="#48515A" points="189 101.992 191 101.992 191 97.992 189 97.992"/>
    <polygon fill="#48515A" points="189 111.992 191 111.992 191 107.992 189 107.992"/>
    <polygon fill="#48515A" points="193 105.992 197 105.992 197 103.992 193 103.992"/>
    <polygon fill="#48515A" points="183 105.992 187 105.992 187 103.992 183 103.992"/>
    <polygon fill="#48515A" points="175.061 69.864 177.061 69.864 177.061 51.864 175.061 51.864"/>
    <polygon fill="#48515A" points="179.061 69.863 183.061 69.863 183.061 51.897 179.061 51.897"/>
    <polygon fill="#48515A" points="185.061 69.864 187.061 69.864 187.061 51.864 185.061 51.864"/>
    <polygon fill="#48515A" points="189.061 69.864 191.061 69.864 191.061 51.864 189.061 51.864"/>
    <polygon fill="#48515A" points="193.061 69.863 197.061 69.863 197.061 51.864 193.061 51.864"/>
    <polygon fill="#48515A" points="199.061 69.864 201.061 69.864 201.061 51.864 199.061 51.864"/>
    <polygon fill="#48515A" points="203.061 69.863 207.061 69.863 207.061 51.864 203.061 51.864"/>
    <path fill="#48515A" d="M168.996,73.993 L212.997,73.993 L212.997,47.997 L168.996,47.997 L168.996,73.993 Z M166.996,75.993 L214.997,75.993 L214.997,45.997 L166.996,45.997 L166.996,75.993 Z"/>
    <polygon fill="#48515A" points="65.982 91.989 67.982 91.989 67.982 87.989 65.982 87.989"/>
    <polygon fill="#48515A" points="65.982 101.989 67.982 101.989 67.982 97.989 65.982 97.989"/>
    <polygon fill="#48515A" points="69.982 95.989 73.982 95.989 73.982 93.989 69.982 93.989"/>
    <polygon fill="#48515A" points="59.982 95.989 63.982 95.989 63.982 93.989 59.982 93.989"/>
    <path fill="#FFD45C" d="M31.945,165.953 C33.602,165.953 34.945,167.296 34.945,168.953 C34.945,170.609 33.602,171.953 31.945,171.953 C30.288,171.953 28.945,170.609 28.945,168.953 C28.945,167.296 30.288,165.953 31.945,165.953"/>
    <path fill="#5FE0ED" d="M65.934,48.887 C67.591,48.887 68.934,50.23 68.934,51.887 C68.934,53.543 67.591,54.887 65.934,54.887 C64.277,54.887 62.934,53.543 62.934,51.887 C62.934,50.23 64.277,48.887 65.934,48.887"/>
    <path fill="#48515A" d="M53.814,130.039 L74.128,130.039 L75.038,120.943 L75.036,120.042 L51.312,120.029 L53.814,130.039 Z M75.938,132.039 L52.252,132.039 L48.252,116.039 L45.033,116.039 L45.033,114.039 L49.814,114.039 L50.812,118.029 L77.033,118.043 L77.033,121.043 L75.938,132.039 Z"/>
    <path fill="#48515A" d="M74.033 138.04L53.035 138.04C50.826 138.04 49.035 136.249 49.035 134.04 49.035 131.83 50.826 130.039 53.035 130.039L56.034 130.039 56.034 132.039 53.035 132.039C51.93 132.039 51.035 132.935 51.035 134.04 51.035 135.144 51.93 136.04 53.035 136.04L74.033 136.04 74.033 138.04M56.033 142.042C55.481 142.042 55.033 142.49 55.033 143.042 55.033 143.595 55.481 144.042 56.033 144.042 56.585 144.042 57.033 143.595 57.033 143.042 57.033 142.49 56.585 142.043 56.033 142.042zM56.033 146.042C54.376 146.042 53.033 144.699 53.033 143.042 53.033 141.386 54.376 140.042 56.033 140.042 57.69 140.042 59.033 141.386 59.033 143.042 59.031 144.699 57.689 146.041 56.033 146.042zM70.033 142.042C69.481 142.042 69.033 142.49 69.033 143.042 69.033 143.595 69.481 144.042 70.033 144.042 70.586 144.042 71.033 143.595 71.033 143.042 71.033 142.49 70.585 142.043 70.033 142.042zM70.033 146.042C68.376 146.042 67.033 144.699 67.033 143.042 67.033 141.386 68.376 140.042 70.033 140.042 71.69 140.042 73.033 141.386 73.033 143.042 73.031 144.699 71.689 146.041 70.033 146.042z"/>
  </g>
</svg>
