<svg xmlns="http://www.w3.org/2000/svg" width="250" height="250" viewBox="0 0 250 250">
  <g fill="none" fill-rule="evenodd">
    <path fill="#DEDEDD" d="M180.806 143.232C183.686 142.711 186.654 143.354 189.059 145.021 189.242 145.156 189.42 145.294 189.593 145.438L182.529 150.438 149.875 165.812C149.875 165.812 133.905 165.846 134.125 165.785 135.514 165.395 179.387 143.464 180.806 143.232M59 200.794L59 200.796C59.061 201.833 58.27 202.724 57.233 202.785 57.159 202.789 57.085 202.789 57.011 202.785L57.009 202.785 50 202.948 50 188.774 57.059 188.781C57.633 188.782 58.183 189.012 58.587 189.42 58.971 189.831 59.17 190.381 59.139 190.942L59 200.794"/>
    <path fill="#48515A" d="M83.059,199.785 L62,199.785 L62,197.785 L82.867,197.785 L159.994,182.838 L203.525,156.141 C197.768,150.981 190.762,150.031 184.57,153.641 L157.309,166.785 L110.534,166.785 L110.534,164.785 L128.85,164.785 C136.467,164.985 142.908,159.187 143.505,151.59 L94.874,151.785 C90.666,151.8 86.635,153.474 83.655,156.444 L62.821,177.258 L61.408,175.843 L82.241,155.029 C85.596,151.687 90.134,149.802 94.87,149.785 L145.54,149.582 L145.54,150.586 C145.565,156.54 142.275,162.014 137.005,164.785 L156.852,164.785 L183.632,151.876 C190.924,147.622 199.263,149.001 205.866,155.605 L206.762,156.501 L160.73,184.733 L160.553,184.768 L83.059,199.785"/>
    <path fill="#48515A" d="M143.144 159.33L142.224 157.554 173.527 141.337C175.634 140.35 177.867 139.659 180.163 139.285 184.099 138.592 188.148 139.494 191.418 141.791 192.778 142.78 193.953 144.002 194.889 145.399L195.438 146.222 184.63 153.603 183.503 151.951 192.643 145.71C191.948 144.837 191.14 144.063 190.238 143.406 187.401 141.425 183.892 140.652 180.484 141.258 178.383 141.601 176.339 142.231 174.41 143.131L143.144 159.33M48 204.982L56.997 204.991 57 204.991C59.299 204.992 61.165 203.133 61.173 200.834L61.173 200.833 61.229 169.855C61.224 167.556 59.36 165.693 57.061 165.691L48 165.682 48 204.982zM57 206.991L56.995 206.991 46 206.98 46 163.68 57.062 163.691C60.467 163.695 63.225 166.454 63.229 169.858L63.173 200.837C63.162 204.238 60.402 206.99 57 206.991z"/>
    <path fill="#DEDEDD" d="M110.534 161.785L133.977 161.785C137.674 160.656 140.444 157.579 141.18 153.785L136.388 153.785C134.293 155.785 131.698 155.785 128.85 155.785L116.534 155.785C113.221 155.785 110.534 158.471 110.534 161.785M194.057 153.785L159.259 173.993 82.675 188.785 65.195 188.785 65.182 195.785 82.675 195.785 159.259 181.005 200 156.065C197.581 154.494 196.656 153.784 194.057 153.785"/>
    <polygon fill="#48515A" points="63.002 138.989 65.002 138.989 65.002 134.989 63.002 134.989"/>
    <polygon fill="#48515A" points="63.002 148.989 65.002 148.989 65.002 144.989 63.002 144.989"/>
    <polygon fill="#48515A" points="67.002 142.989 71.002 142.989 71.002 140.989 67.002 140.989"/>
    <polygon fill="#48515A" points="57.002 142.989 61.002 142.989 61.002 140.989 57.002 140.989"/>
    <polygon fill="#48515A" points="34.985 91.453 36.985 91.453 36.985 87.453 34.985 87.453"/>
    <polygon fill="#48515A" points="34.985 101.453 36.985 101.453 36.985 97.453 34.985 97.453"/>
    <polygon fill="#48515A" points="38.985 95.453 42.985 95.453 42.985 93.453 38.985 93.453"/>
    <polygon fill="#48515A" points="28.985 95.453 32.985 95.453 32.985 93.453 28.985 93.453"/>
    <path fill="#FFD15D" d="M197.744,121.739 C199.401,121.739 200.744,123.082 200.744,124.739 C200.744,126.396 199.401,127.739 197.744,127.739 C196.088,127.739 194.744,126.396 194.744,124.739 C194.744,123.082 196.088,121.739 197.744,121.739"/>
    <path fill="#5FE0ED" d="M101,44.951 L101,62.838 L176.567,62.838 C179.206,62.838 181.345,64.977 181.345,67.615 L181.345,102.991 L205,102.992 L205,44.951 L101,44.951"/>
    <path fill="#48515A" d="M188.336,98.992 L185,98.992 L185,96.992 L186.373,96.992 C186.695,90.194 192.198,84.791 199,84.593 L199,63.835 C192.111,63.445 186.644,57.886 186.369,50.991 L118.96,50.991 C118.428,58.321 112.274,63.966 104.925,63.865 L104.915,61.865 C111.482,61.969 116.889,56.731 116.994,50.164 C116.994,50.106 116.995,50.049 116.995,49.991 L116.995,48.991 L188.337,48.99 L188.337,49.99 C188.135,56.346 193.124,61.662 199.48,61.864 C199.653,61.869 199.827,61.871 200,61.869 L201,61.869 L201.001,86.563 L200.001,86.563 C193.259,86.563 188.354,91.371 188.338,97.995 L188.336,98.992"/>
    <polyline fill="#48515A" points="201 54.992 199 54.992 199 50.992 195 50.992 195 48.992 201 48.992 201 54.992"/>
    <polyline fill="#48515A" points="201 98.991 195 98.991 195 96.991 199 96.991 199 92.992 201 92.992 201 98.991"/>
    <polyline fill="#48515A" points="107 54.992 105 54.992 105 48.992 111 48.992 111 50.992 107 50.992 107 54.992"/>
    <path fill="#DEDEDD" d="M80.811 121.213L80.811 68.657C80.811 66.018 82.949 63.879 85.588 63.879L80.811 63.879C78.172 63.879 76.033 66.018 76.033 68.657L76.033 121.213C76.033 123.852 78.172 125.991 80.811 125.991L85.588 125.991C82.95 125.991 80.811 123.852 80.811 121.213M129.783 94.935C136.379 94.935 141.727 100.283 141.727 106.88 141.727 113.477 136.379 118.824 129.783 118.824 123.186 118.824 117.838 113.477 117.838 106.88 117.838 100.283 123.186 94.935 129.783 94.935M177.561 63.879L141.126 63.879C134.542 85.333 146.596 108.063 168.05 114.647 171.906 115.83 175.916 116.433 179.95 116.435 180.752 116.435 181.548 116.406 182.339 116.36L182.339 68.657C182.339 66.018 180.2 63.879 177.561 63.879"/>
    <path fill="#48515A" d="M86.782,64.879 C84.697,64.882 83.007,66.572 83.004,68.657 L83.004,121.213 C83.007,123.299 84.697,124.989 86.782,124.991 L177.216,124.991 C179.302,124.989 180.992,123.299 180.994,121.213 C180.994,121.213 180.997,73.874 180.999,68.655 C181,66.57 179.311,64.88 177.226,64.879 C177.225,64.879 177.223,64.879 177.222,64.879 L86.782,64.879 Z M177.216,126.991 L86.782,126.991 C83.593,126.988 81.008,124.403 81.004,121.213 L81.004,68.657 C81.008,65.468 83.593,62.883 86.782,62.879 L177.222,62.879 C180.411,62.878 182.998,65.462 182.999,68.651 C182.999,68.653 182.999,68.654 182.999,68.656 C182.997,73.872 182.994,121.15 182.994,121.213 C182.991,124.403 180.406,126.988 177.216,126.991 Z"/>
    <path fill="#FFD15D" d="M93,80.992 L107,80.992 C108.105,80.992 109,81.887 109,82.992 L109,92.935 C109,94.04 108.105,94.935 107,94.935 L93,94.935 C91.895,94.935 91,94.04 91,92.935 L91,82.992 C91,81.887 91.895,80.992 93,80.992"/>
    <polygon fill="#48515A" points="91.56 105.491 105.894 105.491 105.894 103.491 91.56 103.491"/>
    <polygon fill="#48515A" points="110.671 105.491 125.005 105.491 125.005 103.491 110.671 103.491"/>
    <polygon fill="#48515A" points="129.783 105.491 144.116 105.491 144.116 103.491 129.783 103.491"/>
    <polygon fill="#48515A" points="148.894 105.491 163.227 105.491 163.227 103.491 148.894 103.491"/>
    <polygon fill="#48515A" points="91.56 115.046 113.06 115.046 113.06 113.046 91.56 113.046"/>
    <polygon fill="#48515A" points="117.838 115.046 127.394 115.046 127.394 113.046 117.838 113.046"/>
    <path fill="#48515A" d="M79.623,126.991 L74.837,126.991 C71.648,126.988 69.063,124.403 69.06,121.213 L69.06,68.657 C69.063,65.468 71.648,62.883 74.837,62.879 L79.623,62.879 L79.623,64.879 L74.837,64.879 C72.752,64.882 71.062,66.572 71.06,68.657 L71.06,121.213 C71.062,123.299 72.752,124.989 74.837,124.991 L79.623,124.991 L79.623,126.991"/>
    <polygon fill="#48515A" points="213.025 113.014 215.025 113.014 215.025 109.014 213.025 109.014"/>
    <polygon fill="#48515A" points="213.025 123.014 215.025 123.014 215.025 119.014 213.025 119.014"/>
    <polygon fill="#48515A" points="217.025 117.014 221.025 117.014 221.025 115.014 217.025 115.014"/>
    <polygon fill="#48515A" points="207.025 117.014 211.025 117.014 211.025 115.014 207.025 115.014"/>
    <path fill="#FFD15D" d="M58.661 50.697C60.87 50.697 62.661 52.488 62.661 54.697 62.661 56.906 60.87 58.697 58.661 58.697 56.452 58.697 54.661 56.906 54.661 54.697 54.661 52.488 56.452 50.697 58.661 50.697M96.684 133.746C97.788 133.746 98.684 134.641 98.684 135.746 98.684 136.85 97.788 137.746 96.684 137.746 95.579 137.746 94.684 136.85 94.684 135.746 94.684 134.641 95.579 133.746 96.684 133.746"/>
  </g>
</svg>
