<svg xmlns="http://www.w3.org/2000/svg" width="250" height="250" viewBox="0 0 250 250">
  <g fill="none" fill-rule="evenodd">
    <polygon fill="#DEDEDD" points="125.009 70.94 170.001 70.94 170.001 59 125.009 59"/>
    <polyline fill="#DEDEDD" points="153.213 99.802 190.089 99.979 172.928 78.691 153.213 99.802"/>
    <polygon fill="#5FE0ED" points="63.186 175 93 175 93 119 63.186 119"/>
    <path fill="#48515A" d="M103,203 L192.874,203 L192.874,100.248 L172.521,75 L122.491,75.002 L103,100.236 L103,203 Z M194.874,205 L101,205 L101,99.553 L121.508,73.002 L173.479,73.001 L194.874,99.541 L194.874,205 Z"/>
    <polyline fill="#48515A" points="150.999 204 148.999 204 148.999 98.453 172.27 73.537 173.73 74.902 150.999 99.242 150.999 204"/>
    <polygon fill="#48515A" points="155 165.001 189 165.001 189 163.001 155 163.001"/>
    <polygon fill="#48515A" points="109 142.999 145 142.999 145 140.999 109 140.999"/>
    <polygon fill="#5FE0ED" points="155 199 189 199 189 167 155 167"/>
    <polygon fill="#5FE0ED" points="155 161 189 161 189 105.115 155 105.115"/>
    <path fill="#5FE0ED" d="M126.361,104.974 C116.972,104.974 109.361,112.585 109.362,121.974 C109.362,131.363 116.973,138.974 126.362,138.974 C135.751,138.973 143.362,131.362 143.362,121.973 C143.351,112.589 135.746,104.984 126.361,104.974"/>
    <polygon fill="#5FE0ED" points="109 199 145 199 145 145 109 145"/>
    <path fill="#48515A" d="M122.999 73.003L172 73.003 172 57.063 122.999 57.063 122.999 73.003zM120.999 75.003L174 75.003 174 55.063 120.999 55.063 120.999 75.003zM99 204.999L67.552 204.999C62.852 204.994 59.044 201.186 59.039 196.486L59.039 104.361C59.038 101.083 59.525 97.823 60.485 94.689L62.397 95.274C61.496 98.219 61.038 101.281 61.039 104.361L61.039 196.486C61.042 200.082 63.957 202.996 67.552 203L99 203 99 204.999M76.271 74.632L74.563 73.592C77.345 69.228 78.879 64.186 78.999 59.012L78.999 51 80.999 51 80.999 59.012C80.88 64.553 79.244 69.955 76.271 74.632M111.304 82.343L110.508 81.572C104.452 75.065 100.999 66.856 100.999 59.012L100.999 51 102.999 51 102.999 59.012C102.999 66.356 106.257 74.069 111.936 80.173L112.695 80.907 111.304 82.343"/>
    <polygon fill="#F58E70" points="73 53 109 53 109 44.999 73 44.999"/>
    <polygon fill="#48515A" points="35 167.048 37 167.048 37 163.048 35 163.048"/>
    <polygon fill="#48515A" points="35 177.048 37 177.048 37 173.048 35 173.048"/>
    <polygon fill="#48515A" points="39 171.048 43 171.048 43 169.048 39 169.048"/>
    <polygon fill="#48515A" points="29 171.048 33 171.048 33 169.048 29 169.048"/>
    <polygon fill="#48515A" points="213 133 215 133 215 129 213 129"/>
    <polygon fill="#48515A" points="213 143 215 143 215 139 213 139"/>
    <polygon fill="#48515A" points="217 137 221 137 221 135 217 135"/>
    <polygon fill="#48515A" points="207 137 211 137 211 135 207 135"/>
    <path fill="#48515A" d="M43.003,84.993 L57.005,92.044 L71.007,84.993 L71.007,71.117 L57.005,64.065 L43.003,71.117 L43.003,84.993 Z M57.005,94.283 L41.003,86.226 L41.003,69.884 L57.005,61.826 L73.007,69.884 L73.007,86.226 L57.005,94.283 Z"/>
    <polyline fill="#48515A" points="57.005 79.174 41.553 71.394 42.453 69.607 57.005 76.935 71.557 69.607 72.457 71.394 57.005 79.174"/>
    <polygon fill="#48515A" points="56.005 93.164 58.005 93.164 58.005 78.055 56.005 78.055"/>
    <polyline fill="#48515A" points="65.521 78.957 63.521 78.957 63.521 74.772 49.069 67.495 49.968 65.708 65.521 73.54 65.521 78.957"/>
    <path fill="#FFD15D" d="M190 59C191.657 59 193 60.343 193 62 193 63.657 191.657 65 190 65 188.343 65 187 63.657 187 62 187 60.343 188.343 59 190 59M44 123C45.657 123 47 124.343 47 126 47 127.657 45.657 129 44 129 42.343 129 41 127.657 41 126 41 124.343 42.343 123 44 123M203 167C204.105 167 205 167.895 205 169 205 170.105 204.105 171 203 171 201.895 171 201 170.105 201 169 201 167.895 201.895 167 203 167"/>
  </g>
</svg>
