<svg xmlns="http://www.w3.org/2000/svg" width="250" height="250" viewBox="0 0 250 250">
  <g fill="none" fill-rule="evenodd">
    <polygon fill="#DEDEDD" points="137.002 155.992 139.002 155.992 139.002 64.991 137.002 64.991"/>
    <polygon fill="#DEDEDD" points="165.001 155.992 167.001 155.992 167.001 64.991 165.001 64.991"/>
    <path fill="#FFD15D" d="M127.975,39.985 C119.69,39.985 112.975,46.701 112.975,54.985 L142.975,54.985 C142.975,46.701 136.259,39.985 127.975,39.985"/>
    <polygon fill="#DEDEDD" points="113 65.992 149 65.992 149 56.992 113 56.992"/>
    <polygon fill="#F58E70" points="89 65.992 111.001 65.992 111.001 52.991 89 52.991"/>
    <polygon fill="#DEDEDD" points="86.007 140.991 197 140.991 197 138.991 86.007 138.991"/>
    <polygon fill="#DEDEDD" points="81.504 125.991 198.499 125.991 198.499 123.991 81.504 123.991"/>
    <polygon fill="#DEDEDD" points="78.504 110.991 200 110.991 200 108.991 78.504 108.991"/>
    <polygon fill="#DEDEDD" points="75.499 95.991 200 95.991 200 93.991 75.499 93.991"/>
    <polygon fill="#DEDEDD" points="71 80.991 200.999 80.991 200.999 78.991 71 78.991"/>
    <polygon fill="#DEDEDD" points="80.999 129.476 82.999 129.476 82.999 64.991 80.999 64.991"/>
    <polygon fill="#DEDEDD" points="95.001 155.992 97.001 155.992 97.001 64.991 95.001 64.991"/>
    <polygon fill="#DEDEDD" points="109 155.992 111 155.992 111 64.991 109 64.991"/>
    <polygon fill="#DEDEDD" points="123 155.992 125 155.992 125 64.991 123 64.991"/>
    <polygon fill="#DEDEDD" points="151.001 155.992 153.001 155.992 153.001 64.991 151.001 64.991"/>
    <polygon fill="#DEDEDD" points="179.001 155.992 181.001 155.992 181.001 64.991 179.001 64.991"/>
    <polygon fill="#DEDEDD" points="193.004 155.992 195.004 155.992 195.004 64.991 193.004 64.991"/>
    <polyline fill="#48515A" points="196.935 156.992 88.207 156.992 66.74 65 161.126 65 161.126 67 69.26 67 89.793 154.992 195.063 154.992 200.93 67 193 67 193 65 203.068 65 196.935 156.992"/>
    <path fill="#48515A" d="M187.379,181.001 L84.007,181.001 C80.138,181.001 77.002,177.865 77.002,173.996 C77.002,170.128 80.138,166.992 84.007,166.992 L182,166.992 C184.761,166.992 187,164.753 187,161.992 C187,159.23 184.761,156.992 182,156.992 L152,156.992 L152,154.992 L182,154.992 C185.866,154.992 189,158.126 189,161.992 C189,165.858 185.866,168.992 182,168.992 L84.007,168.992 C81.243,168.992 79.002,171.232 79.002,173.996 C79.002,176.76 81.243,179.001 84.007,179.001 L187.379,179.001 L187.379,181.001"/>
    <path fill="#48515A" d="M188.001,181 C185.24,181 183.001,183.239 183.001,186 C183.001,188.761 185.24,191 188.001,191 C190.762,191 193.001,188.761 193.001,186 C192.998,183.24 190.761,181.003 188.001,181 Z M188.001,193 C184.135,193 181.001,189.866 181.001,186 C181.001,182.134 184.135,179 188.001,179 C191.867,179 195.001,182.134 195.001,186 C194.996,189.864 191.865,192.995 188.001,193 Z"/>
    <polygon fill="#48515A" points="56 66.992 68 66.992 68 64.992 56 64.992"/>
    <path fill="#48515A" d="M51,61.991 C48.791,61.991 47,63.782 47,65.991 C47,68.2 48.791,69.991 51,69.991 C53.21,69.991 55.001,68.2 55.001,65.991 C54.998,63.783 53.209,61.993 51,61.991 Z M51,71.991 C47.687,71.991 45,69.304 45,65.991 C45,62.677 47.687,59.991 51,59.991 C54.314,59.991 57,62.677 57,65.991 C56.997,69.303 54.313,71.987 51,71.991 Z"/>
    <polygon fill="#48515A" points="29 194.991 221 194.991 221 192.991 29 192.991"/>
    <polygon fill="#DEDEDD" points="29 221 221 221 221 197 29 197"/>
    <path fill="#48515A" d="M97.947,181 C95.185,181 92.947,183.239 92.947,186 C92.947,188.761 95.185,191 97.947,191 C100.708,191 102.947,188.761 102.947,186 C102.943,183.24 100.707,181.003 97.947,181 Z M97.947,193 C94.081,193 90.947,189.866 90.947,186 C90.947,182.134 94.081,179 97.947,179 C101.813,179 104.947,182.134 104.947,186 C104.942,189.864 101.811,192.996 97.947,193 Z"/>
    <polygon fill="#48515A" points="35.076 95.996 37.076 95.996 37.076 91.996 35.076 91.996"/>
    <polygon fill="#48515A" points="35.076 105.996 37.076 105.996 37.076 101.996 35.076 101.996"/>
    <polygon fill="#48515A" points="39.076 99.996 43.076 99.996 43.076 97.996 39.076 97.996"/>
    <polygon fill="#48515A" points="29.076 99.996 33.076 99.996 33.076 97.996 29.076 97.996"/>
    <polygon fill="#48515A" points="205.054 32.987 207.054 32.987 207.054 28.987 205.054 28.987"/>
    <polygon fill="#48515A" points="205.054 42.987 207.054 42.987 207.054 38.987 205.054 38.987"/>
    <polygon fill="#48515A" points="209.054 36.987 213.054 36.987 213.054 34.987 209.054 34.987"/>
    <polygon fill="#48515A" points="199.054 36.987 203.054 36.987 203.054 34.987 199.054 34.987"/>
    <polygon fill="#48515A" points="213.002 165.028 215.002 165.028 215.002 161.028 213.002 161.028"/>
    <polygon fill="#48515A" points="213.002 175.028 215.002 175.028 215.002 171.028 213.002 171.028"/>
    <polygon fill="#48515A" points="217.002 169.028 221.002 169.028 221.002 167.028 217.002 167.028"/>
    <polygon fill="#48515A" points="207.002 169.028 211.002 169.028 211.002 167.028 207.002 167.028"/>
    <path fill="#48515A" d="M165.025,65.001 L189.025,65.001 L189.025,59 L165.025,59 L165.025,65.001 Z M163.025,67.001 L191.025,67.001 L191.025,57 L163.025,57 L163.025,67.001 Z"/>
    <polyline fill="#48515A" points="189.025 81 165.025 81 165.025 65.64 167.025 65.64 167.025 79 187.025 79 187.025 65.64 189.025 65.64 189.025 81"/>
    <polygon fill="#48515A" points="173.025 65.64 175.025 65.64 175.025 57.64 173.025 57.64"/>
    <polygon fill="#48515A" points="173.024 79.639 175.024 79.639 175.024 63.64 173.024 63.64"/>
    <polygon fill="#48515A" points="179.025 65.64 181.025 65.64 181.025 57.64 179.025 57.64"/>
    <polygon fill="#48515A" points="179.025 79.639 181.025 79.639 181.025 63.64 179.025 63.64"/>
    <path fill="#48515A" d="M168.974,53 C167.869,53.029 166.997,53.947 167.026,55.051 C167.054,56.135 167.941,57 169.025,57 L175.045,57 C173.148,55.483 171.116,54.144 168.974,53 Z M180.951,58.999 L169.025,58.999 C166.816,58.999 165.025,57.209 165.025,54.999 C165.025,52.79 166.816,50.999 169.025,50.999 C170.34,50.999 174.977,54.376 178.638,57.208 L180.951,58.999 Z"/>
    <path fill="#48515A" d="M179.006,57 L185.025,57 C186.13,57 187.025,56.104 187.025,54.999 C187.026,53.915 186.161,53.028 185.077,53 C182.935,54.144 180.903,55.483 179.006,57 Z M185.025,58.999 L173.1,58.999 L175.413,57.208 C179.073,54.376 183.712,50.999 185.025,50.999 C187.234,50.999 189.025,52.79 189.025,54.999 C189.025,57.209 187.234,58.999 185.025,58.999 Z"/>
    <polyline fill="#FFD15D" points="53.041 138.941 63.041 150.944 53.041 162.946 30.036 162.946 30.036 138.941 53.041 138.941"/>
    <path fill="#48515A" d="M45.036 155.053C44.483 155.053 44.036 155.501 44.036 156.053 44.036 156.605 44.483 157.053 45.036 157.053 45.588 157.053 46.036 156.605 46.036 156.053 46.035 155.501 45.588 155.054 45.036 155.053zM45.036 159.053C43.379 159.053 42.036 157.71 42.036 156.053 42.036 154.396 43.379 153.053 45.036 153.053 46.692 153.053 48.036 154.396 48.036 156.053 48.034 157.709 46.692 159.051 45.036 159.053zM37.036 145.053C36.483 145.053 36.036 145.501 36.036 146.053 36.036 146.605 36.483 147.053 37.036 147.053 37.588 147.053 38.036 146.605 38.036 146.053 38.035 145.501 37.588 145.054 37.036 145.053zM37.036 149.053C35.379 149.053 34.036 147.71 34.036 146.053 34.036 144.396 35.379 143.053 37.036 143.053 38.692 143.053 40.036 144.396 40.036 146.053 40.034 147.709 38.692 149.051 37.036 149.053z"/>
    <polyline fill="#48515A" points="34.276 157.402 46.277 143.403 47.795 144.704 35.795 158.704 34.276 157.402"/>
  </g>
</svg>
