<svg xmlns="http://www.w3.org/2000/svg" width="250" height="250" viewBox="0 0 250 250">
  <g fill="none" fill-rule="evenodd">
    <path fill="#48515A" d="M44.417,140.833 C35.903,140.829 29.004,133.924 29.008,125.409 C29.012,116.901 35.909,110.004 44.417,110 C48.286,110 64.288,115.298 71.364,118.069 L70.636,119.931 C62.82,116.872 47.649,112 44.417,112 C37.007,112.004 31.004,118.015 31.008,125.424 C31.012,132.828 37.013,138.829 44.417,138.833 L44.417,140.833"/>
    <path fill="#FFD15D" d="M158.715,155 C142.146,155 128.715,141.568 128.715,125 C128.715,108.432 142.146,95 158.715,95 C175.283,95 188.715,108.432 188.715,125 C188.715,141.568 175.283,155 158.715,155 Z M112.462,75 L63.712,125 L112.462,175 L212.967,175 L212.967,75 L112.462,75 Z"/>
    <path fill="#48515A" d="M84.967 120.999C82.758 120.999 80.967 122.789 80.967 124.999 80.967 127.208 82.758 128.999 84.967 128.999 87.176 128.999 88.967 127.208 88.967 124.999 88.964 122.79 87.175 121.001 84.967 120.999zM84.967 130.999C81.653 130.999 78.967 128.312 78.967 124.999 78.967 121.685 81.653 118.999 84.967 118.999 88.281 118.999 90.967 121.685 90.967 124.999 90.963 128.311 88.279 130.995 84.967 130.999zM147.958 108.499C145.458 108.499 143.432 110.525 143.432 113.025 143.432 115.525 145.458 117.551 147.958 117.551 150.458 117.551 152.484 115.525 152.484 113.025 152.482 110.526 150.457 108.501 147.958 108.499zM147.958 119.551C144.354 119.551 141.432 116.629 141.432 113.025 141.432 109.421 144.354 106.499 147.958 106.499 151.562 106.499 154.484 109.421 154.484 113.025 154.48 116.628 151.561 119.547 147.958 119.551zM169.438 131.229C166.939 131.229 164.912 133.256 164.913 135.755 164.913 138.255 166.939 140.281 169.439 140.281 171.939 140.281 173.965 138.255 173.965 135.755 173.962 133.256 171.937 131.232 169.438 131.229zM169.438 142.281C165.834 142.281 162.912 139.359 162.913 135.755 162.913 132.151 165.835 129.229 169.439 129.229 173.043 129.229 175.965 132.151 175.965 135.755 175.961 139.358 173.041 142.277 169.438 142.281z"/>
    <polyline fill="#48515A" points="141.758 139.325 174.258 106.825 175.672 108.239 143.172 140.739 141.758 139.325"/>
    <path fill="#48515A" d="M44.417,140.833 C35.907,140.824 29.011,133.927 29.001,125.417 L31.001,125.417 C31.009,132.823 37.011,138.825 44.417,138.833 C52.074,138.833 84.262,124.237 84.586,124.09 L85.414,125.91 C84.074,126.52 52.504,140.833 44.417,140.833"/>
    <polygon fill="#48515A" points="127.072 54.982 129.072 54.982 129.072 50.982 127.072 50.982"/>
    <polygon fill="#48515A" points="127.072 64.981 129.072 64.981 129.072 60.981 127.072 60.981"/>
    <polygon fill="#48515A" points="131.072 58.982 135.072 58.982 135.072 56.982 131.072 56.982"/>
    <polygon fill="#48515A" points="121.072 58.982 125.072 58.982 125.072 56.982 121.072 56.982"/>
    <polygon fill="#48515A" points="45.022 155.042 47.022 155.042 47.022 151.042 45.022 151.042"/>
    <polygon fill="#48515A" points="45.022 165.042 47.022 165.042 47.022 161.042 45.022 161.042"/>
    <polygon fill="#48515A" points="49.022 159.042 53.022 159.042 53.022 157.042 49.022 157.042"/>
    <polygon fill="#48515A" points="39.022 159.042 43.022 159.042 43.022 157.042 39.022 157.042"/>
    <polygon fill="#48515A" points="185.055 187.981 187.055 187.981 187.055 183.981 185.055 183.981"/>
    <polygon fill="#48515A" points="185.055 197.981 187.055 197.981 187.055 193.981 185.055 193.981"/>
    <polygon fill="#48515A" points="189.055 191.981 193.055 191.981 193.055 189.981 189.055 189.981"/>
    <polygon fill="#48515A" points="179.055 191.981 183.055 191.981 183.055 189.981 179.055 189.981"/>
    <polygon fill="#48515A" points="82.999 100.93 84.999 100.93 84.999 82.93 82.999 82.93"/>
    <polygon fill="#48515A" points="86.999 100.93 90.999 100.93 90.999 82.964 86.999 82.964"/>
    <polygon fill="#48515A" points="92.999 100.93 94.999 100.93 94.999 82.93 92.999 82.93"/>
    <polygon fill="#48515A" points="96.999 100.93 98.999 100.93 98.999 82.93 96.999 82.93"/>
    <polygon fill="#48515A" points="100.999 100.93 104.999 100.93 104.999 82.931 100.999 82.931"/>
    <polygon fill="#48515A" points="106.999 100.93 108.999 100.93 108.999 82.93 106.999 82.93"/>
    <polygon fill="#48515A" points="110.999 100.93 114.999 100.93 114.999 82.931 110.999 82.931"/>
    <path fill="#48515A" d="M91.936 159.931C90.279 159.931 88.936 161.274 88.936 162.931 88.936 164.588 90.279 165.931 91.936 165.931 93.592 165.931 94.936 164.588 94.936 162.931 94.934 161.275 93.592 159.933 91.936 159.931zM91.936 167.931C89.174 167.931 86.936 165.692 86.936 162.931 86.936 160.169 89.174 157.931 91.936 157.931 94.697 157.931 96.936 160.169 96.936 162.931 96.932 165.691 94.696 167.927 91.936 167.931zM91.936 181.931C90.279 181.931 88.936 183.274 88.936 184.931 88.936 186.587 90.279 187.931 91.936 187.931 93.592 187.931 94.936 186.587 94.936 184.931 94.934 183.275 93.592 181.932 91.936 181.931zM91.936 189.931C89.174 189.931 86.936 187.692 86.936 184.931 86.936 182.169 89.174 179.931 91.936 179.931 94.697 179.931 96.936 182.169 96.936 184.931 96.932 187.691 94.696 189.927 91.936 189.931z"/>
    <polyline fill="#48515A" points="88.983 180.896 115.316 160.144 116.554 161.715 90.221 182.467 88.983 180.896"/>
    <polyline fill="#48515A" points="88.817 166.841 90.054 165.27 116.554 186.145 115.317 187.716 88.817 166.841"/>
    <path fill="#48515A" d="M104.935 174.93L106.935 174.93 106.935 172.93 104.935 172.93 104.935 174.93zM108.935 174.93L110.935 174.93 110.935 172.93 108.935 172.93 108.935 174.93zM112.935 174.93L114.935 174.93 114.935 172.93 112.935 172.93 112.935 174.93zM116.935 174.93L118.935 174.93 118.935 172.93 116.935 172.93 116.935 174.93zM195.001 69.977L219.001 69.977 219.001 63.976 195.001 63.976 195.001 69.977zM193.001 71.977L221.001 71.977 221.001 61.976 193.001 61.976 193.001 71.977z"/>
    <polyline fill="#48515A" points="219.001 85.977 195.001 85.977 195.001 70.616 197.001 70.616 197.001 83.977 217.001 83.977 217.001 70.616 219.001 70.616 219.001 85.977"/>
    <polygon fill="#48515A" points="203.001 70.616 205.001 70.616 205.001 62.616 203.001 62.616"/>
    <polygon fill="#48515A" points="202.999 84.615 204.999 84.615 204.999 68.616 202.999 68.616"/>
    <polygon fill="#48515A" points="209.001 70.616 211.001 70.616 211.001 62.616 209.001 62.616"/>
    <polygon fill="#48515A" points="209.001 84.615 211.001 84.615 211.001 68.616 209.001 68.616"/>
    <path fill="#48515A" d="M198.949,57.976 C197.845,58.005 196.973,58.923 197.001,60.027 C197.029,61.111 197.916,61.976 199.001,61.976 L205.02,61.976 C203.124,60.459 201.091,59.12 198.949,57.976 Z M210.927,63.976 L199.001,63.976 C196.792,63.976 195.001,62.185 195.001,59.976 C195.001,57.766 196.792,55.976 199.001,55.976 C200.314,55.976 204.953,59.352 208.613,62.185 L210.927,63.976 Z"/>
    <path fill="#48515A" d="M208.981,61.976 L215.001,61.976 C216.106,61.976 217.001,61.08 217.001,59.976 C217.001,58.891 216.137,58.004 215.053,57.976 C212.911,59.12 210.878,60.459 208.981,61.976 Z M215.001,63.976 L203.075,63.976 L205.389,62.185 C209.049,59.352 213.686,55.976 215.001,55.976 C217.21,55.976 219.001,57.766 219.001,59.976 C219.001,62.185 217.21,63.976 215.001,63.976 Z"/>
  </g>
</svg>
