<svg xmlns="http://www.w3.org/2000/svg" width="250" height="250" viewBox="0 0 250 250">
  <g fill="none" fill-rule="evenodd">
    <polyline fill="#DEDEDD" points="215 192.024 199.435 185.353 196.762 186.957 204.994 195.189 202.166 198.017 194.055 189.906 192.43 193.173 199.227 209.633 204.061 199.913 212.172 208.024 215 205.195 206.768 196.963 215 192.024"/>
    <path fill="#48515A" d="M178.854,171.903 L189.306,197.212 L193.778,188.216 L202.166,196.604 L203.58,195.189 L195.148,186.758 L202.803,182.167 L178.854,171.903 Z M189.138,202.043 L175.134,168.132 L207.186,181.869 L198.374,187.155 L206.408,195.189 L202.166,199.432 L194.331,191.597 L189.138,202.043 Z"/>
    <polyline fill="#DEDEDD" points="125 153.999 125 202.596 169.742 215.379 169.742 153.999 125 153.999"/>
    <polyline fill="#DEDEDD" points="73 104.495 39.001 94.643 39.001 203.454 80.258 215.379 80.258 153.999 73 153.999 73 104.495"/>
    <polyline fill="#48515A" points="169.744 219.54 125 206.756 80.257 219.54 35 206.468 35 89.337 72.275 100.038 71.724 101.96 37 91.993 37 204.964 80.26 217.459 125 204.676 169.74 217.459 212.999 204.964 212.999 92.02 176.039 103.404 175.451 101.493 214.999 89.311 214.999 206.468 169.744 219.54"/>
    <polygon fill="#48515A" points="190.069 145.976 192.069 145.976 192.069 141.976 190.069 141.976"/>
    <polygon fill="#48515A" points="190.069 155.976 192.069 155.976 192.069 151.976 190.069 151.976"/>
    <polygon fill="#48515A" points="194.069 149.976 198.069 149.976 198.069 147.976 194.069 147.976"/>
    <polygon fill="#48515A" points="184.069 149.976 188.069 149.976 188.069 147.976 184.069 147.976"/>
    <polygon fill="#48515A" points="34.932 75.526 36.932 75.526 36.932 71.526 34.932 71.526"/>
    <polygon fill="#48515A" points="34.932 85.526 36.932 85.526 36.932 81.526 34.932 81.526"/>
    <polygon fill="#48515A" points="38.932 79.526 42.932 79.526 42.932 77.526 38.932 77.526"/>
    <polygon fill="#48515A" points="28.932 79.526 32.932 79.526 32.932 77.526 28.932 77.526"/>
    <polygon fill="#48515A" points="200.998 75.498 202.998 75.498 202.998 71.498 200.998 71.498"/>
    <polygon fill="#48515A" points="200.998 85.498 202.998 85.498 202.998 81.498 200.998 81.498"/>
    <polygon fill="#48515A" points="204.998 79.498 208.998 79.498 208.998 77.498 204.998 77.498"/>
    <polygon fill="#48515A" points="194.998 79.498 198.998 79.498 198.998 77.498 194.998 77.498"/>
    <path fill="#FFD45C" d="M219.083 84.138C220.154 84.138 221.023 85.007 221.023 86.078 221.023 87.149 220.154 88.017 219.083 88.017 218.012 88.017 217.144 87.149 217.144 86.078 217.144 85.007 218.012 84.138 219.083 84.138M187.536 58.986C188.897 58.986 189.999 60.088 189.999 61.449 189.999 62.809 188.897 63.912 187.536 63.912 186.176 63.912 185.073 62.809 185.073 61.449 185.073 60.088 186.176 58.986 187.536 58.986M58.844 86.963C59.894 86.963 60.746 87.814 60.746 88.865 60.746 89.915 59.894 90.767 58.844 90.767 57.793 90.767 56.942 89.915 56.942 88.865 56.942 87.814 57.793 86.963 58.844 86.963"/>
    <path fill="#DEDEDD" d="M172.001,96.419 C169.048,95.997 166.853,93.469 166.852,90.486 C166.852,93.8 164.165,96.486 160.852,96.486 C157.538,96.486 154.852,93.8 154.852,90.486 C154.852,93.8 152.165,96.486 148.852,96.486 C145.538,96.486 142.852,93.8 142.852,90.486 C142.852,93.8 140.165,96.486 136.852,96.486 C133.538,96.486 130.852,93.8 130.852,90.486 C130.852,93.8 128.165,96.486 124.852,96.486 C121.538,96.486 118.852,93.8 118.852,90.486 C118.852,93.8 116.165,96.486 112.852,96.486 C109.538,96.486 106.852,93.8 106.852,90.486 C106.852,93.8 104.165,96.486 100.852,96.486 C97.538,96.486 94.852,93.8 94.852,90.486 C94.852,93.8 92.165,96.486 88.852,96.486 C85.538,96.486 82.852,93.8 82.852,90.486 C82.863,93.788 80.195,96.475 76.893,96.486 C76.372,96.488 75.853,96.422 75.349,96.289 L75.349,102.484 L172.001,102.484 L172.001,96.419"/>
    <polygon fill="#DEDEDD" points="83.852 138.497 135.83 138.497 135.83 130.999 83.852 130.999"/>
    <polygon fill="#48515A" points="171.001 151.999 173.001 151.999 173.001 96.486 171.001 96.486"/>
    <polygon fill="#48515A" points="74.852 151.999 76.852 151.999 76.852 96.486 74.852 96.486"/>
    <path fill="#48515A" d="M84.852 137.497L134.828 137.497 134.828 107.485 84.852 107.485 84.852 137.497zM82.853 139.497L136.829 139.497 136.829 105.485 82.853 105.485 82.853 139.497zM141.826 149.499L164.823 149.499 164.823 107.483 141.826 107.483 141.826 149.499zM139.826 151.499L166.823 151.499 166.823 105.483 139.826 105.483 139.826 151.499zM172.852 97.486C170.394 97.485 168.117 96.196 166.852 94.089 164.864 97.403 160.566 98.477 157.252 96.49 156.267 95.898 155.443 95.074 154.852 94.089 152.864 97.403 148.566 98.477 145.252 96.49 144.267 95.898 143.443 95.074 142.852 94.089 140.864 97.403 136.566 98.477 133.252 96.49 132.267 95.898 131.443 95.074 130.852 94.089 128.864 97.403 124.566 98.477 121.252 96.49 120.267 95.898 119.443 95.074 118.852 94.089 116.864 97.403 112.566 98.477 109.252 96.49 108.267 95.898 107.443 95.074 106.852 94.089 104.864 97.403 100.566 98.477 97.252 96.49 96.267 95.898 95.443 95.074 94.852 94.089 92.864 97.403 88.566 98.477 85.252 96.49 84.267 95.898 83.443 95.074 82.852 94.089 80.863 97.403 76.563 98.478 73.249 96.489 71.141 95.223 69.851 92.945 69.852 90.486L69.8519994 62.98 82.852 62.98 82.852 64.98 71.852 64.98 71.852 90.486C71.852 93.248 74.09 95.486 76.852 95.486 79.613 95.486 81.852 93.248 81.852 90.486L83.852 90.486C83.852 93.248 86.09 95.486 88.852 95.486 91.613 95.486 93.852 93.248 93.852 90.486L95.852 90.486C95.852 93.248 98.09 95.486 100.852 95.486 103.613 95.486 105.852 93.248 105.852 90.486L107.852 90.486C107.852 93.248 110.09 95.486 112.852 95.486 115.613 95.486 117.852 93.248 117.852 90.486L119.852 90.486C119.852 93.248 122.09 95.486 124.852 95.486 127.613 95.486 129.852 93.248 129.852 90.486L131.852 90.486C131.852 93.248 134.09 95.486 136.852 95.486 139.613 95.486 141.852 93.248 141.852 90.486L143.852 90.486C143.852 93.248 146.09 95.486 148.852 95.486 151.613 95.486 153.852 93.248 153.852 90.486L155.852 90.486C155.852 93.248 158.09 95.486 160.852 95.486 163.613 95.486 165.852 93.248 165.852 90.486L167.852 90.486C167.852 93.248 170.09 95.486 172.852 95.486 175.613 95.486 177.852 93.248 177.852 90.486L177.852 64.98 167 64.98 167 62.98 179.852 62.98 179.852 90.486C179.847 94.35 176.716 97.482 172.852 97.486"/>
    <polyline fill="#48515A" points="164.823 74.977 84.851 74.977 84.851 46.979 103 46.979 103 48.979 86.851 48.979 86.851 72.977 162.823 72.977 162.823 48.979 132.313 48.979 132.313 46.979 164.823 46.979 164.823 74.977"/>
    <polygon fill="#5FE0ED" points="144.322 133 162.322 133 162.322 121.002 144.322 121.002"/>
    <polygon fill="#48515A" points="152.324 121.002 154.324 121.002 154.324 118.005 152.324 118.005"/>
    <path fill="#48515A" d="M153.324,112.507 C152.22,112.507 151.324,113.402 151.324,114.507 C151.324,115.611 152.22,116.507 153.324,116.507 C154.429,116.507 155.324,115.611 155.324,114.507 C155.323,113.403 154.428,112.508 153.324,112.507 Z M153.324,118.507 C151.115,118.507 149.324,116.716 149.324,114.507 C149.324,112.298 151.115,110.507 153.324,110.507 C155.533,110.507 157.324,112.298 157.324,114.507 C157.322,116.715 155.532,118.505 153.324,118.507 Z"/>
    <path fill="#F58E70" d="M175.992,88.484 L175.993,66.972 L166.993,66.972 L166.993,82.985 L154.993,82.985 L154.993,76.978 L142.993,76.999 L142.993,82.985 L131.007,82.985 L131,76.978 L118.993,76.978 L118.993,82.985 L107.007,82.985 L107.007,76.978 L95.007,76.978 L95.007,82.985 L83.007,82.985 L83.007,66.98 L74.007,66.98 L74.007,90.486 C74.007,92.143 75.35,93.486 77.007,93.486 C78.664,93.486 80.007,92.143 80.007,90.486 L86.007,90.486 C86.007,92.143 87.35,93.486 89.007,93.486 C90.664,93.486 92.007,92.143 92.007,90.486 L98.007,90.486 C98.007,92.143 99.35,93.486 101.007,93.486 C102.664,93.486 104.007,92.143 104.007,90.486 L110.007,90.486 C110.007,92.143 111.35,93.486 113.007,93.486 C114.664,93.486 116.007,92.143 116.007,90.486 L121.993,90.486 C121.995,92.142 123.337,93.484 124.993,93.486 L125,93.486 L125.007,93.486 C126.663,93.484 128.005,92.142 128.007,90.486 L133.993,90.486 C133.993,92.143 135.336,93.486 136.993,93.486 C138.65,93.486 139.993,92.143 139.993,90.486 L145.993,90.486 C145.993,92.143 147.336,93.486 148.993,93.486 C150.65,93.486 151.993,92.143 151.993,90.486 L157.993,90.486 C157.993,92.143 159.336,93.486 160.993,93.486 C162.65,93.486 163.993,92.143 163.993,90.486 L169.993,90.486 C169.993,92.143 171.336,93.486 172.993,93.486 C174.65,93.486 175.993,92.143 175.993,90.486 L175.992,88.484"/>
    <path fill="#48515A" d="M125,154.999 C122.239,154.999 120,157.238 120,159.999 C120,162.761 122.239,164.999 125,164.999 C127.761,164.999 130,162.761 130,159.999 C129.997,157.239 127.76,155.003 125,154.999 Z M125,166.999 C121.134,166.999 118,163.866 118,159.999 C118,156.133 121.134,152.999 125,152.999 C128.866,152.999 132,156.133 132,159.999 C131.996,163.864 128.864,166.995 125,166.999 Z"/>
    <polygon fill="#48515A" points="109 160.999 115 160.999 115 158.999 109 158.999"/>
    <polygon fill="#48515A" points="99 160.999 105 160.999 105 158.999 99 158.999"/>
    <polygon fill="#48515A" points="89 160.999 95 160.999 95 158.999 89 158.999"/>
    <polygon fill="#48515A" points="79 160.999 85 160.999 85 158.999 79 158.999"/>
    <polygon fill="#48515A" points="69 160.999 75 160.999 75 158.999 69 158.999"/>
    <polygon fill="#48515A" points="59 160.999 65 160.999 65 158.999 59 158.999"/>
    <polygon fill="#48515A" points="49 160.999 55 160.999 55 158.999 49 158.999"/>
    <polygon fill="#48515A" points="39 160.999 45 160.999 45 158.999 39 158.999"/>
    <path fill="#FFD45C" d="M94.482,199.028 C95.843,199.028 96.945,200.13 96.945,201.491 C96.945,202.851 95.843,203.954 94.482,203.954 C93.122,203.954 92.019,202.851 92.019,201.491 C92.019,200.13 93.122,199.028 94.482,199.028"/>
    <path fill="#48515A" d="M102.897 34C101.241 34 99.897 35.343 99.897 37 99.897 38.657 101.241 40 102.897 40 104.554 40 105.897 38.657 105.897 37 105.896 35.344 104.554 34.002 102.897 34zM102.897 42C100.136 42 97.897 39.761 97.897 37 97.897 34.239 100.136 32 102.897 32 105.659 32 107.897 34.239 107.897 37 107.894 39.76 105.657 41.997 102.897 42zM102.897 56C101.241 56 99.897 57.343 99.897 59 99.897 60.657 101.241 62 102.897 62 104.554 62 105.897 60.657 105.897 59 105.896 57.344 104.554 56.002 102.897 56zM102.897 64C100.136 64 97.897 61.761 97.897 59 97.897 56.239 100.136 54 102.897 54 105.659 54 107.897 56.239 107.897 59 107.894 61.76 105.657 63.997 102.897 64z"/>
    <polyline fill="#48515A" points="99.945 54.965 126.278 34.214 127.516 35.785 101.184 56.536 99.945 54.965"/>
    <polyline fill="#48515A" points="99.779 40.91 101.016 39.339 127.516 60.214 126.278 61.786 99.779 40.91"/>
    <path fill="#48515A" d="M115.897,48.999 L117.897,48.999 L117.897,46.999 L115.897,46.999 L115.897,48.999 Z M119.897,48.999 L121.897,48.999 L121.897,46.999 L119.897,46.999 L119.897,48.999 Z M123.897,48.999 L125.897,48.999 L125.897,46.999 L123.897,46.999 L123.897,48.999 Z M127.897,48.999 L129.896,48.999 L129.896,46.999 L127.897,46.999 L127.897,48.999 Z"/>
  </g>
</svg>
