<svg xmlns="http://www.w3.org/2000/svg" width="250" height="250" viewBox="0 0 250 250">
  <g fill="none" fill-rule="evenodd">
    <path fill="#DFE0E0" d="M126.021,137.066 C121.015,137.066 116.956,133.008 116.956,128.002 C116.956,122.996 121.014,118.937 126.021,118.937 C131.027,118.937 135.085,122.996 135.085,128.002 C135.08,133.006 131.025,137.061 126.021,137.066 Z M127.021,116.988 L127.021,92.776 L125.021,92.776 L125.021,116.988 C118.942,117.533 114.456,122.902 115,128.981 C115.202,131.225 116.083,133.353 117.527,135.081 L90.088,162.521 L91.502,163.935 L118.941,136.495 C123.632,140.408 130.606,139.777 134.519,135.087 C138.431,130.396 137.8,123.422 133.11,119.51 C131.384,118.07 129.26,117.19 127.021,116.988 Z"/>
    <path fill="#5FE0ED" d="M124.113,80.014 L122.959,80.014 L122.959,93.86 L124.113,93.86 C141.319,93.86 155.266,107.809 155.266,125.014 C155.266,142.219 141.318,156.167 124.112,156.167 C106.907,156.166 92.959,142.218 92.96,125.013 C92.96,116.751 96.242,108.828 102.083,102.986 L107.958,108.861 L107.958,88.091 L87.189,88.091 L92.293,93.195 C74.72,110.769 74.721,139.262 92.296,156.834 C109.87,174.407 138.362,174.406 155.935,156.832 C173.507,139.258 173.506,110.765 155.932,93.193 C147.493,84.754 136.048,80.014 124.113,80.014"/>
    <path fill="#DFE0E0" d="M199.02,125 C199.02,84.131 165.889,51 125.02,51 C84.151,51 51.02,84.131 51.02,125 C51.02,126.007 51.056,127.005 51.096,128.002 C52.702,88.337 85.323,57.007 125.02,57.004 C164.718,57.007 197.339,88.337 198.944,128.002 C198.984,127.005 199.02,126.007 199.02,125"/>
    <path fill="#48515A" d="M125.02,48 C82.495,48 48.02,82.474 48.02,125 C48.02,167.526 82.495,202 125.02,202 C167.546,202 202.02,167.526 202.02,125 C201.972,82.494 167.526,48.048 125.02,48 Z M125.02,204 C81.39,204 46.021,168.631 46.021,125 C46.021,81.37 81.39,46 125.02,46 C168.651,46 204.02,81.37 204.02,125 C203.971,168.61 168.63,203.951 125.02,204 Z"/>
    <polygon fill="#48515A" points="123.113 80.679 125.113 80.679 125.113 60.55 123.113 60.55"/>
    <polygon fill="#48515A" points="122.927 189.857 124.927 189.857 124.927 169.728 122.927 169.728"/>
    <polygon fill="#48515A" points="169.704 124.063 189.833 124.063 189.833 122.063 169.704 122.063"/>
    <polygon fill="#48515A" points="59.601 126 79.73 126 79.73 124 59.601 124"/>
    <polyline fill="#48515A" points="171.876 96.498 180.592 91.466 181.592 93.199 172.876 98.23 171.876 96.498"/>
    <polyline fill="#48515A" points="67.449 155.135 76.165 150.104 77.165 151.836 68.449 156.867 67.449 155.135"/>
    <polyline fill="#48515A" points="152.79 77.77 157.822 69.053 159.554 70.053 154.523 78.77 152.79 77.77"/>
    <polyline fill="#48515A" points="92.195 181.061 97.226 172.344 98.959 173.344 93.927 182.061 92.195 181.061"/>
    <polyline fill="#48515A" points="92.382 69.126 94.114 68.126 99.146 76.843 97.414 77.843 92.382 69.126"/>
    <polyline fill="#48515A" points="152.623 172.272 154.355 171.272 159.388 179.988 157.655 180.988 152.623 172.272"/>
    <polyline fill="#48515A" points="69.49 91.407 70.49 89.674 79.207 94.707 78.207 96.439 69.49 91.407"/>
    <polyline fill="#48515A" points="173.709 150.106 174.709 148.373 183.425 153.406 182.425 155.138 173.709 150.106"/>
    <path fill="#F58E70" d="M124.02,118 C127.886,118 131.02,121.134 131.02,125 C131.02,128.866 127.886,132 124.02,132 C120.154,132 117.02,128.866 117.02,125 C117.02,121.134 120.154,118 124.02,118"/>
    <polygon fill="#48515A" points="123.019 114.936 125.019 114.936 125.019 89.774 123.019 89.774"/>
    <polyline fill="#48515A" points="89.088 159.518 116.765 131.841 118.179 133.256 90.502 160.932 89.088 159.518"/>
    <path fill="#48515A" d="M123.06,62.03 L123,60.031 C123.671,60.01 124.344,60 125.02,60 L125.181,60 L125.181,62 L125.02,62 C124.364,62 123.711,62.01 123.06,62.03 Z M129.095,62.13 C128.444,62.088 127.792,62.057 127.137,62.035 L127.205,60.036 C127.879,60.059 128.551,60.091 129.222,60.134 L129.095,62.13 Z M119.15,62.27 L118.967,60.278 C119.636,60.216 120.308,60.165 120.982,60.124 L121.103,62.12 C120.45,62.16 119.799,62.21 119.15,62.27 Z M132.993,62.5 C132.348,62.418 131.699,62.346 131.046,62.285 L131.235,60.293 C131.908,60.357 132.578,60.431 133.245,60.516 L132.993,62.5 Z M115.265,62.751 L114.956,60.775 C115.62,60.671 116.287,60.577 116.958,60.495 L117.204,62.48 C116.554,62.56 115.907,62.65 115.265,62.751 Z M136.863,63.111 C136.223,62.99 135.579,62.878 134.932,62.775 L135.246,60.799 C135.913,60.906 136.577,61.021 137.236,61.146 L136.863,63.111 Z M111.414,63.473 L110.982,61.52 C111.64,61.375 112.3,61.24 112.964,61.116 L113.333,63.082 C112.689,63.203 112.05,63.333 111.414,63.473 Z M140.687,63.963 C140.056,63.801 139.421,63.649 138.781,63.507 L139.217,61.555 C139.875,61.702 140.53,61.859 141.183,62.025 L140.687,63.963 Z M107.618,64.434 L107.065,62.512 C107.712,62.327 108.363,62.151 109.018,61.985 L109.508,63.924 C108.874,64.085 108.244,64.255 107.618,64.434 Z M144.448,65.052 C143.829,64.852 143.205,64.66 142.576,64.478 L143.133,62.557 C143.781,62.745 144.425,62.943 145.065,63.15 L144.448,65.052 Z M103.881,65.633 L103.209,63.749 C103.845,63.523 104.485,63.306 105.131,63.099 L105.742,65.003 C105.117,65.204 104.497,65.414 103.881,65.633 Z M148.135,66.375 C147.528,66.136 146.917,65.906 146.302,65.685 L146.978,63.803 C147.612,64.031 148.243,64.268 148.869,64.515 L148.135,66.375 Z M100.224,67.067 L99.437,65.229 C100.058,64.963 100.683,64.707 101.312,64.46 L102.042,66.322 C101.432,66.561 100.826,66.81 100.224,67.067 Z M151.722,67.921 C151.132,67.645 150.538,67.378 149.939,67.12 L150.73,65.283 C151.349,65.55 151.962,65.825 152.569,66.11 L151.722,67.921 Z M96.667,68.726 L95.765,66.94 C96.367,66.636 96.975,66.341 97.587,66.056 L98.433,67.868 C97.838,68.145 97.249,68.431 96.667,68.726 Z M155.206,69.689 C154.636,69.376 154.06,69.073 153.477,68.778 L154.382,66.994 C154.981,67.298 155.576,67.612 156.167,67.934 L155.206,69.689 Z M93.219,70.603 L92.209,68.876 C92.791,68.536 93.378,68.204 93.971,67.881 L94.928,69.638 C94.353,69.951 93.783,70.272 93.219,70.603 Z M158.577,71.67 C158.026,71.323 157.47,70.984 156.907,70.653 L157.919,68.929 C158.501,69.27 159.076,69.62 159.644,69.979 L158.577,71.67 Z M89.898,72.69 L88.783,71.03 C89.344,70.654 89.909,70.286 90.479,69.927 L91.544,71.621 C90.99,71.969 90.442,72.325 89.898,72.69 Z M161.819,73.858 C161.291,73.478 160.756,73.104 160.215,72.739 L161.334,71.081 C161.893,71.458 162.444,71.843 162.989,72.236 L161.819,73.858 Z M86.715,74.979 L85.498,73.391 C86.034,72.981 86.576,72.579 87.122,72.186 L88.29,73.81 C87.759,74.191 87.234,74.581 86.715,74.979 Z M164.922,76.244 C164.417,75.831 163.906,75.425 163.389,75.026 L164.609,73.442 C165.142,73.853 165.668,74.271 166.189,74.697 L164.922,76.244 Z M83.679,77.46 L82.366,75.95 C82.876,75.507 83.391,75.073 83.912,74.647 L85.178,76.196 C84.672,76.609 84.172,77.031 83.679,77.46 Z M167.873,78.819 C167.393,78.375 166.908,77.939 166.416,77.509 L167.73,76.001 C168.238,76.444 168.739,76.894 169.232,77.353 L167.873,78.819 Z M80.806,80.122 L79.401,78.697 C79.882,78.225 80.369,77.759 80.862,77.301 L82.222,78.768 C81.743,79.212 81.271,79.663 80.806,80.122 Z M170.659,81.571 C170.21,81.098 169.753,80.633 169.287,80.174 L170.691,78.749 C171.172,79.223 171.644,79.704 172.108,80.192 L170.659,81.571 Z M78.104,82.955 L76.613,81.621 C77.062,81.119 77.52,80.624 77.985,80.137 L79.433,81.518 C78.981,81.99 78.538,82.469 78.104,82.955 Z M173.272,84.492 C172.853,83.992 172.424,83.498 171.988,83.012 L173.479,81.677 C173.929,82.18 174.37,82.689 174.804,83.206 L173.272,84.492 Z M75.578,85.951 L74.01,84.708 C74.429,84.181 74.854,83.66 75.287,83.145 L76.816,84.433 C76.396,84.933 75.984,85.439 75.578,85.951 Z M175.701,87.569 C175.313,87.044 174.916,86.525 174.511,86.012 L176.081,84.773 C176.499,85.303 176.908,85.839 177.309,86.381 L175.701,87.569 Z M73.248,89.092 L71.605,87.953 C71.989,87.399 72.382,86.852 72.783,86.312 L74.389,87.503 C74.001,88.027 73.621,88.557 73.248,89.092 Z M177.935,90.793 C177.578,90.244 177.214,89.701 176.842,89.164 L178.486,88.025 C178.87,88.579 179.245,89.139 179.612,89.705 L177.935,90.793 Z M71.116,92.373 L69.407,91.335 C69.756,90.76 70.113,90.191 70.479,89.627 L72.157,90.716 C71.803,91.263 71.456,91.815 71.116,92.373 Z M179.964,94.15 C179.643,93.58 179.313,93.015 178.975,92.455 L180.686,91.42 C181.035,91.997 181.375,92.58 181.706,93.169 L179.964,94.15 Z M69.194,95.777 L67.423,94.848 C67.735,94.252 68.057,93.661 68.387,93.077 L70.129,94.06 C69.809,94.627 69.497,95.199 69.194,95.777 Z M181.78,97.628 C181.495,97.039 181.201,96.455 180.898,95.875 L182.672,94.949 C182.984,95.547 183.287,96.151 183.581,96.759 L181.78,97.628 Z M67.486,99.292 L65.662,98.474 C65.937,97.859 66.222,97.25 66.515,96.646 L68.313,97.521 C68.028,98.106 67.753,98.697 67.486,99.292 Z M183.377,101.216 C183.129,100.609 182.872,100.007 182.606,99.41 L184.433,98.596 C184.708,99.211 184.973,99.833 185.229,100.46 L183.377,101.216 Z M66.001,102.91 L64.128,102.208 C64.365,101.576 64.612,100.948 64.867,100.326 L66.717,101.086 C66.469,101.69 66.23,102.297 66.001,102.91 Z M184.746,104.899 C184.536,104.277 184.317,103.659 184.09,103.046 L185.965,102.349 C186.199,102.981 186.424,103.619 186.641,104.26 L184.746,104.899 Z M64.745,106.618 L62.831,106.036 C63.027,105.39 63.234,104.748 63.45,104.111 L65.345,104.754 C65.135,105.371 64.935,105.993 64.745,106.618 Z M185.879,108.654 C185.71,108.023 185.531,107.395 185.343,106.771 L187.257,106.192 C187.451,106.836 187.636,107.485 187.811,108.137 L185.879,108.654 Z M63.721,110.399 L61.775,109.938 C61.931,109.281 62.096,108.628 62.272,107.979 L64.202,108.501 C64.032,109.13 63.872,109.763 63.721,110.399 Z M186.773,112.468 C186.644,111.826 186.505,111.187 186.356,110.552 L188.304,110.098 C188.457,110.752 188.601,111.41 188.734,112.071 L186.773,112.468 Z M62.935,114.236 L60.965,113.898 C61.079,113.232 61.204,112.57 61.339,111.911 L63.298,112.312 C63.167,112.95 63.046,113.591 62.935,114.236 Z M187.43,116.33 C187.34,115.681 187.241,115.036 187.132,114.395 L189.102,114.058 C189.216,114.721 189.318,115.387 189.41,116.056 L187.43,116.33 Z M62.392,118.117 L60.403,117.9 C60.477,117.228 60.56,116.56 60.653,115.895 L62.634,116.172 C62.544,116.817 62.463,117.466 62.392,118.117 Z M187.842,120.225 C187.793,119.572 187.734,118.922 187.665,118.274 L189.653,118.062 C189.725,118.73 189.785,119.401 189.836,120.075 L187.842,120.225 Z M62.09,122.022 L60.092,121.928 C60.124,121.253 60.166,120.581 60.217,119.912 L62.211,120.066 C62.161,120.715 62.121,121.367 62.09,122.022 Z M188.015,124.139 C188.006,123.483 187.987,122.83 187.959,122.179 L189.957,122.093 C189.985,122.764 190.006,123.437 190.014,124.112 L188.015,124.139 Z M60.027,125.97 C60.022,125.648 60.02,125.324 60.02,125 C60.02,124.648 60.023,124.297 60.029,123.947 L62.029,123.981 C62.023,124.32 62.02,124.66 62.02,125 C62.02,125.313 62.023,125.626 62.027,125.939 L60.027,125.97 Z M189.945,128.152 L187.947,128.058 C187.979,127.407 188,126.754 188.011,126.098 L190.011,126.133 C189.999,126.809 189.977,127.482 189.945,128.152 Z M60.211,130.005 C60.16,129.335 60.119,128.663 60.089,127.989 L62.087,127.898 C62.116,128.552 62.155,129.204 62.205,129.855 L60.211,130.005 Z M189.628,132.182 L187.64,131.963 C187.711,131.316 187.772,130.667 187.823,130.014 L189.817,130.169 C189.765,130.843 189.701,131.514 189.628,132.182 Z M60.643,134.024 C60.55,133.359 60.467,132.69 60.395,132.019 L62.384,131.805 C62.454,132.456 62.534,133.104 62.623,133.749 L60.643,134.024 Z M189.061,136.184 L187.091,135.841 C187.202,135.2 187.304,134.555 187.395,133.907 L189.376,134.186 C189.281,134.855 189.176,135.521 189.061,136.184 Z M61.323,138.008 C61.189,137.349 61.065,136.687 60.951,136.021 L62.922,135.684 C63.033,136.329 63.154,136.971 63.283,137.609 L61.323,138.008 Z M188.247,140.142 L186.302,139.678 C186.453,139.044 186.595,138.406 186.727,137.765 L188.686,138.17 C188.549,138.831 188.403,139.488 188.247,140.142 Z M62.25,141.943 C62.075,141.294 61.91,140.64 61.755,139.982 L63.702,139.524 C63.852,140.16 64.011,140.793 64.182,141.422 L62.25,141.943 Z M187.186,144.042 L185.274,143.458 C185.465,142.834 185.646,142.206 185.818,141.575 L187.748,142.1 C187.57,142.752 187.383,143.399 187.186,144.042 Z M63.426,145.817 C63.209,145.177 63.002,144.533 62.807,143.885 L64.721,143.305 C64.911,143.933 65.111,144.557 65.32,145.176 L63.426,145.817 Z M185.884,147.869 L184.013,147.165 C184.242,146.554 184.462,145.94 184.673,145.321 L186.565,145.965 C186.349,146.604 186.121,147.239 185.884,147.869 Z M64.844,149.616 C64.588,148.991 64.342,148.362 64.105,147.728 L65.978,147.028 C66.208,147.642 66.447,148.252 66.695,148.858 L64.844,149.616 Z M184.346,151.6 L182.521,150.781 C182.787,150.188 183.044,149.59 183.293,148.988 L185.143,149.749 C184.887,150.371 184.621,150.988 184.346,151.6 Z M66.495,153.315 C66.2,152.708 65.915,152.096 65.64,151.478 L67.466,150.663 C67.733,151.261 68.009,151.854 68.294,152.442 L66.495,153.315 Z M182.581,155.224 L180.811,154.294 C181.114,153.717 181.409,153.136 181.695,152.549 L183.492,153.427 C183.197,154.031 182.894,154.63 182.581,155.224 Z M68.374,156.901 C68.043,156.314 67.721,155.721 67.407,155.123 L69.179,154.195 C69.482,154.775 69.795,155.35 70.116,155.919 L68.374,156.901 Z M180.592,158.734 L178.883,157.695 C179.222,157.138 179.552,156.576 179.873,156.008 L181.613,156.995 C181.281,157.581 180.941,158.16 180.592,158.734 Z M70.473,160.362 C70.105,159.797 69.747,159.226 69.396,158.649 L71.107,157.612 C71.446,158.171 71.794,158.725 72.15,159.273 L70.473,160.362 Z M178.389,162.115 L176.748,160.972 C177.121,160.437 177.486,159.896 177.842,159.349 L179.518,160.441 C179.149,161.005 178.773,161.563 178.389,162.115 Z M72.779,163.685 C72.379,163.144 71.986,162.596 71.601,162.042 L73.243,160.901 C73.616,161.439 73.997,161.97 74.387,162.495 L72.779,163.685 Z M175.979,165.355 L174.412,164.112 C174.818,163.601 175.216,163.083 175.605,162.559 L177.209,163.754 C176.807,164.294 176.396,164.828 175.979,165.355 Z M75.288,166.856 C74.855,166.341 74.43,165.819 74.011,165.291 L75.579,164.05 C75.985,164.563 76.399,165.069 76.819,165.569 L75.288,166.856 Z M173.374,168.44 L171.886,167.103 C172.322,166.618 172.751,166.126 173.172,165.626 L174.701,166.917 C174.267,167.431 173.824,167.939 173.374,168.44 Z M77.988,169.866 C77.523,169.379 77.066,168.884 76.616,168.383 L78.105,167.047 C78.541,167.534 78.985,168.013 79.436,168.485 L77.988,169.866 Z M170.581,171.36 L169.179,169.934 C169.645,169.477 170.103,169.012 170.555,168.539 L172,169.921 C171.534,170.409 171.061,170.888 170.581,171.36 Z M80.866,172.702 C80.372,172.244 79.885,171.779 79.406,171.307 L80.809,169.882 C81.274,170.34 81.747,170.791 82.226,171.236 L80.866,172.702 Z M167.611,174.102 L166.301,172.593 C166.794,172.164 167.281,171.728 167.762,171.284 L169.117,172.755 C168.622,173.211 168.12,173.661 167.611,174.102 Z M83.914,175.354 C83.393,174.927 82.878,174.493 82.37,174.052 L83.683,172.543 C84.175,172.971 84.674,173.392 85.18,173.805 L83.914,175.354 Z M164.479,176.658 L163.264,175.069 C163.783,174.672 164.296,174.267 164.802,173.854 L166.065,175.405 C165.543,175.831 165.014,176.248 164.479,176.658 Z M87.119,177.811 C86.571,177.419 86.03,177.017 85.496,176.607 L86.715,175.02 C87.231,175.417 87.755,175.807 88.285,176.188 L87.119,177.811 Z M161.189,179.015 L160.076,177.354 C160.619,176.99 161.156,176.617 161.687,176.237 L162.853,177.862 C162.305,178.255 161.75,178.639 161.189,179.015 Z M90.467,180.065 C89.896,179.706 89.332,179.339 88.774,178.964 L89.892,177.305 C90.432,177.669 90.978,178.024 91.531,178.372 L90.467,180.065 Z M157.762,181.164 L156.752,179.437 C157.317,179.106 157.877,178.768 158.432,178.421 L159.492,180.116 C158.921,180.474 158.344,180.823 157.762,181.164 Z M93.946,182.105 C93.354,181.783 92.769,181.452 92.19,181.112 L93.202,179.387 C93.764,179.716 94.331,180.037 94.903,180.35 L93.946,182.105 Z M154.202,183.096 L153.304,181.31 C153.889,181.015 154.469,180.711 155.044,180.399 L155.997,182.157 C155.404,182.479 154.806,182.792 154.202,183.096 Z M97.545,183.924 C96.935,183.64 96.33,183.346 95.731,183.042 L96.634,181.257 C97.215,181.551 97.8,181.836 98.391,182.112 L97.545,183.924 Z M150.528,184.803 L149.743,182.964 C150.346,182.706 150.944,182.44 151.537,182.165 L152.379,183.979 C151.768,184.262 151.151,184.537 150.528,184.803 Z M101.247,185.515 C100.62,185.269 99.999,185.013 99.384,184.748 L100.173,182.911 C100.771,183.167 101.373,183.415 101.979,183.654 L101.247,185.515 Z M146.753,186.277 L146.085,184.393 C146.702,184.173 147.315,183.945 147.925,183.707 L148.653,185.569 C148.024,185.815 147.391,186.051 146.753,186.277 Z M105.054,186.876 C104.41,186.669 103.772,186.452 103.139,186.225 L103.813,184.342 C104.427,184.561 105.045,184.771 105.667,184.972 L105.054,186.876 Z M142.897,187.511 L142.347,185.588 C142.976,185.408 143.601,185.219 144.222,185.02 L144.831,186.925 C144.19,187.13 143.546,187.326 142.897,187.511 Z M108.937,187.995 C108.282,187.828 107.632,187.651 106.986,187.465 L107.539,185.544 C108.165,185.724 108.796,185.895 109.431,186.056 L108.937,187.995 Z M138.978,188.498 L138.55,186.544 C139.189,186.404 139.825,186.255 140.457,186.095 L140.945,188.035 C140.293,188.199 139.637,188.354 138.977,188.498 L138.978,188.498 Z M112.884,188.869 C112.22,188.743 111.56,188.608 110.904,188.463 L111.336,186.51 C111.973,186.651 112.612,186.782 113.255,186.904 L112.884,188.869 Z M135.004,189.238 L134.699,187.261 C135.346,187.161 135.99,187.052 136.631,186.933 L136.996,188.898 C136.336,189.021 135.672,189.135 135.004,189.238 Z M116.878,189.494 C116.207,189.411 115.539,189.317 114.875,189.212 L115.185,187.237 C115.828,187.337 116.474,187.428 117.124,187.51 L116.878,189.494 Z M130.992,189.729 L130.811,187.737 C131.462,187.678 132.111,187.608 132.758,187.529 L133.002,189.515 C132.334,189.596 131.664,189.668 130.992,189.729 Z M120.898,189.872 C120.224,189.829 119.552,189.777 118.885,189.714 L119.07,187.723 C119.719,187.783 120.37,187.834 121.025,187.876 L120.898,189.872 Z M126.959,189.972 L126.9,187.973 C127.556,187.953 128.208,187.924 128.858,187.885 L128.977,189.881 C128.308,189.922 127.635,189.952 126.959,189.972 Z M124.938,189.999 C124.263,189.999 123.589,189.988 122.918,189.966 L122.982,187.967 C123.633,187.988 124.286,187.999 124.941,187.999 L124.938,189.999 Z"/>
    <path fill="#48515A" d="M125.02,52 C84.704,52 52.021,84.683 52.021,125 C52.021,165.317 84.704,198 125.02,198 C165.337,198 198.02,165.317 198.02,125 C197.975,84.702 165.318,52.046 125.02,52 Z M125.02,200 C83.599,200 50.021,166.421 50.021,125 C50.021,83.579 83.599,50 125.02,50 C166.442,50 200.02,83.579 200.02,125 C199.974,166.402 166.423,199.953 125.02,200 Z"/>
    <path fill="#48515A" d="M124.019,115.936 C119.013,115.936 114.955,119.994 114.955,125 C114.955,130.006 119.013,134.064 124.02,134.064 C129.026,134.064 133.084,130.006 133.084,125 C133.078,119.996 129.023,115.941 124.019,115.936 Z M124.019,136.064 C117.909,136.064 112.955,131.111 112.955,125 C112.955,118.889 117.909,113.936 124.02,113.936 C130.13,113.936 135.084,118.889 135.084,125 C135.077,131.108 130.127,136.058 124.019,136.064 Z"/>
    <path fill="#DFE0E0" d="M125.02,203 C83.694,202.997 49.543,170.76 47.159,129.503 C47.074,130.994 47.02,132.493 47.02,134.005 L47.02,134.006 C47.02,177.084 81.942,212.005 125.02,212.005 C168.098,212.005 203.02,177.084 203.02,134.006 L203.02,134.005 C203.02,132.493 202.966,130.994 202.882,129.503 C200.498,170.76 166.347,202.997 125.02,203"/>
    <path fill="#48515A" d="M203.88 129.56L201.884 129.446C201.976 127.827 202.02 126.373 202.02 125L204.02 125C204.02 126.411 203.975 127.903 203.88 129.56M46.161 129.56C46.066 127.903 46.021 126.411 46.021 125L48.02 125C48.02 126.373 48.065 127.827 48.157 129.446L46.161 129.56"/>
    <path fill="#48515A" d="M125.02,204 C83.167,203.99 48.582,171.343 46.161,129.56 L48.157,129.446 C50.608,171.897 87.008,204.323 129.458,201.872 C168.486,199.619 199.63,168.475 201.884,129.446 L203.88,129.56 C201.459,171.343 166.874,203.99 125.02,204"/>
    <polygon fill="#48515A" points="206.042 70.988 208.042 70.988 208.042 66.988 206.042 66.988"/>
    <polygon fill="#48515A" points="206.042 80.988 208.042 80.988 208.042 76.988 206.042 76.988"/>
    <polygon fill="#48515A" points="210.042 74.988 214.042 74.988 214.042 72.988 210.042 72.988"/>
    <polygon fill="#48515A" points="200.042 74.988 204.042 74.988 204.042 72.988 200.042 72.988"/>
    <polygon fill="#48515A" points="212.046 171.048 214.046 171.048 214.046 167.048 212.046 167.048"/>
    <polygon fill="#48515A" points="212.046 181.048 214.046 181.048 214.046 177.048 212.046 177.048"/>
    <polygon fill="#48515A" points="216.046 175.048 220.046 175.048 220.046 173.048 216.046 173.048"/>
    <polygon fill="#48515A" points="206.046 175.048 210.046 175.048 210.046 173.048 206.046 173.048"/>
    <polygon fill="#48515A" points="42.944 174.05 44.944 174.05 44.944 170.05 42.944 170.05"/>
    <polygon fill="#48515A" points="42.944 184.05 44.944 184.05 44.944 180.05 42.944 180.05"/>
    <polygon fill="#48515A" points="46.944 178.05 50.944 178.05 50.944 176.05 46.944 176.05"/>
    <polygon fill="#48515A" points="36.944 178.05 40.944 178.05 40.944 176.05 36.944 176.05"/>
    <path fill="#F58E70" d="M179.02 49C180.125 49 181.02 49.895 181.02 51 181.02 52.105 180.125 53 179.02 53 177.916 53 177.02 52.105 177.02 51 177.02 49.895 177.916 49 179.02 49M206.02 101C206.572 101 207.02 101.448 207.02 102 207.02 102.552 206.572 103 206.02 103 205.468 103 205.02 102.552 205.02 102 205.02 101.448 205.468 101 206.02 101M35.02 79C36.125 79 37.02 79.895 37.02 81 37.02 82.105 36.125 83 35.02 83 33.916 83 33.02 82.105 33.02 81 33.02 79.895 33.916 79 35.02 79M167.02 213C168.125 213 169.02 213.895 169.02 215 169.02 216.105 168.125 217 167.02 217 165.916 217 165.02 216.105 165.02 215 165.02 213.895 165.916 213 167.02 213M31.02 143C32.125 143 33.02 143.895 33.02 145 33.02 146.105 32.125 147 31.02 147 29.916 147 29.02 146.105 29.02 145 29.02 143.895 29.916 143 31.02 143M58.02 191C58.572 191 59.02 191.448 59.02 192 59.02 192.552 58.572 193 58.02 193 57.468 193 57.02 192.552 57.02 192 57.02 191.448 57.468 191 58.02 191M76.02 209C76.573 209 77.02 209.448 77.02 210 77.02 210.552 76.573 211 76.02 211 75.468 211 75.02 210.552 75.02 210 75.02 209.448 75.468 209 76.02 209M136.02 165C136.572 165 137.02 165.448 137.02 166 137.02 166.552 136.572 167 136.02 167 135.468 167 135.02 166.552 135.02 166 135.02 165.448 135.468 165 136.02 165"/>
  </g>
</svg>
