<svg xmlns="http://www.w3.org/2000/svg" width="250" height="250" viewBox="0 0 250 250">
  <g fill="none" fill-rule="evenodd">
    <polyline fill="#FFD15D" points="163.123 102.124 195.959 83.165 125 42.197 92.153 61.161 163.123 102.124"/>
    <polyline fill="#FFD15D" points="90.153 62.316 54.041 83.165 125 124.134 161.122 103.279 90.153 62.316"/>
    <polyline fill="#FFD15D" points="124 125.866 53.04 84.897 53.04 166.834 124 207.803 124 125.866"/>
    <path fill="#FFD15D" d="M186.464,159.552 L135.495,189.256 L135.495,164.584 L186.464,134.88 L186.464,159.552 Z M126,125.865 L126,207.803 L196.959,166.835 L196.959,84.897 L126,125.865 Z"/>
    <path fill="#48515A" d="M146.56 138.655L146.56 140.445 175.401 123.794 175.401 122.004 146.56 138.655zM144.56 143.909L144.56 137.501 177.401 118.54 177.401 124.949 144.56 143.909zM136.281 152.818L136.281 154.609 185.731 126.059 185.731 124.269 136.281 152.818zM134.281 158.073L134.281 151.664 187.731 120.805 187.731 127.213 134.281 158.073z"/>
    <polygon fill="#48515A" points="34.957 161.018 36.957 161.018 36.957 157.018 34.957 157.018"/>
    <polygon fill="#48515A" points="34.957 171.018 36.957 171.018 36.957 167.018 34.957 167.018"/>
    <polygon fill="#48515A" points="38.957 165.018 42.957 165.018 42.957 163.018 38.957 163.018"/>
    <polygon fill="#48515A" points="28.957 165.018 32.957 165.018 32.957 163.018 28.957 163.018"/>
    <polygon fill="#48515A" points="175 42.965 177 42.965 177 38.965 175 38.965"/>
    <polygon fill="#48515A" points="175 52.965 177 52.965 177 48.965 175 48.965"/>
    <polygon fill="#48515A" points="179 46.965 183 46.965 183 44.965 179 44.965"/>
    <polygon fill="#48515A" points="169 46.965 173 46.965 173 44.965 169 44.965"/>
    <polygon fill="#48515A" points="213.021 194.965 215.021 194.965 215.021 190.965 213.021 190.965"/>
    <polygon fill="#48515A" points="213.021 204.965 215.021 204.965 215.021 200.965 213.021 200.965"/>
    <polygon fill="#48515A" points="217.021 198.965 221.021 198.965 221.021 196.965 217.021 196.965"/>
    <polygon fill="#48515A" points="207.021 198.965 211.021 198.965 211.021 196.965 207.021 196.965"/>
    <path fill="#48515A" d="M48.887 97.907C47.23 97.907 45.887 99.25 45.887 100.907 45.887 102.564 47.23 103.907 48.887 103.907 50.544 103.907 51.887 102.564 51.887 100.907 51.885 99.251 50.543 97.908 48.887 97.907zM48.887 105.907C46.126 105.907 43.887 103.668 43.887 100.907 43.887 98.145 46.126 95.907 48.887 95.907 51.649 95.907 53.887 98.145 53.887 100.907 53.884 103.667 51.647 105.904 48.887 105.907zM48.887 119.907C47.23 119.907 45.887 121.25 45.887 122.907 45.887 124.564 47.23 125.907 48.887 125.907 50.544 125.907 51.887 124.564 51.887 122.907 51.885 121.251 50.543 119.909 48.887 119.907zM48.887 127.907C46.126 127.907 43.887 125.668 43.887 122.907 43.887 120.145 46.126 117.907 48.887 117.907 51.649 117.907 53.887 120.145 53.887 122.907 53.884 125.667 51.647 127.904 48.887 127.907z"/>
    <polyline fill="#48515A" points="45.935 118.872 72.267 98.12 73.506 99.692 47.174 120.443 45.935 118.872"/>
    <polyline fill="#48515A" points="45.768 104.817 47.006 103.246 73.506 124.121 72.268 125.692 45.768 104.817"/>
    <path fill="#48515A" d="M61.887,112.906 L63.887,112.906 L63.887,110.906 L61.887,110.906 L61.887,112.906 Z M65.887,112.906 L67.887,112.906 L67.887,110.906 L65.887,110.906 L65.887,112.906 Z M69.887,112.906 L71.887,112.906 L71.887,110.906 L69.887,110.906 L69.887,112.906 Z M73.887,112.906 L75.887,112.906 L75.887,110.906 L73.887,110.906 L73.887,112.906 Z"/>
    <polygon fill="#48515A" points="159.011 197.979 161.011 197.979 161.011 179.979 159.011 179.979"/>
    <polygon fill="#48515A" points="163.011 197.977 167.011 197.977 167.011 180.012 163.011 180.012"/>
    <polygon fill="#48515A" points="169.011 197.979 171.011 197.979 171.011 179.979 169.011 179.979"/>
    <polygon fill="#48515A" points="173.011 197.979 175.011 197.979 175.011 179.979 173.011 179.979"/>
    <polygon fill="#48515A" points="177.011 197.977 181.011 197.977 181.011 179.979 177.011 179.979"/>
    <polygon fill="#48515A" points="183.011 197.979 185.011 197.979 185.011 179.979 183.011 179.979"/>
    <polygon fill="#48515A" points="187.011 197.977 191.011 197.977 191.011 179.979 187.011 179.979"/>
    <path fill="#48515A" d="M120.527,63.08 L130.979,88.389 L135.451,79.393 L143.838,87.781 L145.252,86.366 L136.821,77.935 L144.475,73.344 L120.527,63.08 Z M130.81,93.22 L116.806,59.31 L148.858,73.046 L140.047,78.332 L148.081,86.366 L143.838,90.609 L136.003,82.774 L130.81,93.22 Z"/>
    <path fill="#5FE0ED" d="M86.012 201.006C87.669 201.006 89.012 202.349 89.012 204.006 89.012 205.663 87.669 207.006 86.012 207.006 84.355 207.006 83.012 205.663 83.012 204.006 83.012 202.349 84.355 201.006 86.012 201.006M195 65C196.105 65 197 65.895 197 67 197 68.105 196.105 69 195 69 193.895 69 193 68.105 193 67 193 65.895 193.895 65 195 65M40 55C41.657 55 43 56.343 43 58 43 59.657 41.657 61 40 61 38.343 61 37 59.657 37 58 37 56.343 38.343 55 40 55M207 139C208.105 139 209 139.895 209 141 209 142.105 208.105 143 207 143 205.895 143 205 142.105 205 141 205 139.895 205.895 139 207 139"/>
    <path fill="#FFD15D" d="M79.036 48.021L80.315 50.613 83.176 51.029C83.703 51.105 84.069 51.595 83.992 52.122 83.962 52.332 83.863 52.527 83.711 52.675L81.641 54.693 82.13 57.542C82.22 58.067 81.867 58.566 81.341 58.656 81.132 58.692 80.917 58.658 80.729 58.559L78.17 57.214 75.611 58.559C75.14 58.807 74.556 58.626 74.308 58.154 74.21 57.966 74.175 57.751 74.211 57.542L74.7 54.693 72.63 52.675C72.248 52.303 72.24 51.692 72.612 51.31 72.761 51.158 72.955 51.059 73.165 51.029L76.026 50.613 77.305 48.021C77.541 47.543 78.12 47.346 78.598 47.582 78.788 47.676 78.942 47.83 79.036 48.021M56.394 184.93L58.223 188.637 62.314 189.231C63.068 189.341 63.591 190.041 63.481 190.795 63.438 191.096 63.296 191.373 63.079 191.585L60.119 194.47 60.818 198.545C60.946 199.296 60.442 200.009 59.691 200.138 59.392 200.189 59.084 200.141 58.815 199.999L55.157 198.076 51.498 199.999C50.823 200.354 49.989 200.095 49.634 199.42 49.493 199.151 49.444 198.844 49.495 198.545L50.194 194.47 47.234 191.585C46.688 191.053 46.677 190.179 47.209 189.634 47.421 189.416 47.699 189.275 47.999 189.231L52.09 188.637 53.919 184.93C54.256 184.247 55.084 183.966 55.767 184.303 56.039 184.438 56.26 184.658 56.394 184.93"/>
  </g>
</svg>
