<svg xmlns="http://www.w3.org/2000/svg" width="250" height="250" viewBox="0 0 250 250">
  <g fill="none" fill-rule="evenodd">
    <path fill="#FFD15D" d="M93.022,149 L157.022,149 L157.022,113 L93.022,113 L93.022,149 Z M59.014,191.008 L191.031,191.008 L191.031,62.994 L59.014,62.994 L59.014,191.008 Z"/>
    <polygon fill="#48515A" points="98.006 135.002 100.006 135.002 100.006 119 98.006 119"/>
    <polygon fill="#48515A" points="102.006 135.002 106.006 135.002 106.006 119 102.006 119"/>
    <polygon fill="#48515A" points="108.006 135.002 110.006 135.002 110.006 119 108.006 119"/>
    <polygon fill="#48515A" points="112.006 135.002 114.006 135.002 114.006 119 112.006 119"/>
    <polygon fill="#48515A" points="116.006 135.002 120.006 135.002 120.006 119 116.006 119"/>
    <polygon fill="#48515A" points="122.006 135.002 124.006 135.002 124.006 119 122.006 119"/>
    <polygon fill="#48515A" points="126.006 135.002 128.006 135.002 128.006 119 126.006 119"/>
    <polygon fill="#48515A" points="130.006 135.002 134.006 135.002 134.006 119 130.006 119"/>
    <polygon fill="#48515A" points="136.014 135.002 138.014 135.002 138.014 119 136.014 119"/>
    <polygon fill="#48515A" points="140.014 135.002 142.014 135.002 142.014 119 140.014 119"/>
    <polygon fill="#48515A" points="144.014 135.002 148.014 135.002 148.014 119 144.014 119"/>
    <polygon fill="#48515A" points="150.022 135.002 152.022 135.002 152.022 119 150.022 119"/>
    <polygon fill="#48515A" points="98.022 140 127.021 140 127.021 138 98.022 138"/>
    <polygon fill="#48515A" points="98.022 144.002 121.018 144.002 121.018 142.002 98.022 142.002"/>
    <polyline fill="#48515A" points="141.022 93.997 136.608 93.997 134.022 91.411 131.437 93.997 127.608 93.997 125.022 91.411 122.437 93.997 118.608 93.997 116.022 91.411 113.437 93.997 109.022 93.997 109.022 62.997 111.022 62.997 111.022 91.997 112.608 91.997 116.022 88.583 119.437 91.997 121.608 91.997 125.022 88.583 128.437 91.997 130.608 91.997 134.022 88.583 137.437 91.997 139.022 91.997 139.022 62.997 141.022 62.997 141.022 93.997"/>
    <path fill="#48515A" d="M146.878,104.935 L202.043,104.935 C203.705,104.928 205.047,103.576 205.043,101.915 C205.058,100.284 203.749,98.95 202.119,98.935 C202.094,98.935 202.068,98.935 202.043,98.935 L146.878,98.935 L140.371,101.935 L146.878,104.935 Z M202.043,106.935 L146.438,106.935 L135.596,101.935 L146.438,96.935 L202.043,96.935 C204.804,96.935 207.043,99.174 207.043,101.935 C207.043,104.697 204.804,106.935 202.043,106.935 Z"/>
    <polygon fill="#48515A" points="194.002 105.935 196.002 105.935 196.002 97.935 194.002 97.935"/>
    <polygon fill="#48515A" points="147.002 102.935 195.002 102.935 195.002 100.935 147.002 100.935"/>
    <polygon fill="#48515A" points="34.97 138.001 36.97 138.001 36.97 134.001 34.97 134.001"/>
    <polygon fill="#48515A" points="34.97 148.001 36.97 148.001 36.97 144.001 34.97 144.001"/>
    <polygon fill="#48515A" points="38.97 142.001 42.97 142.001 42.97 140.001 38.97 140.001"/>
    <polygon fill="#48515A" points="28.97 142.001 32.97 142.001 32.97 140.001 28.97 140.001"/>
    <polygon fill="#48515A" points="200.069 57.953 202.069 57.953 202.069 53.953 200.069 53.953"/>
    <polygon fill="#48515A" points="200.069 67.953 202.069 67.953 202.069 63.953 200.069 63.953"/>
    <polygon fill="#48515A" points="204.069 61.953 208.069 61.953 208.069 59.953 204.069 59.953"/>
    <polygon fill="#48515A" points="194.069 61.953 198.069 61.953 198.069 59.953 194.069 59.953"/>
    <polygon fill="#48515A" points="213.077 178.024 215.077 178.024 215.077 174.024 213.077 174.024"/>
    <polygon fill="#48515A" points="213.077 188.024 215.077 188.024 215.077 184.024 213.077 184.024"/>
    <polygon fill="#48515A" points="217.077 182.024 221.077 182.024 221.077 180.024 217.077 180.024"/>
    <polygon fill="#48515A" points="207.077 182.024 211.077 182.024 211.077 180.024 207.077 180.024"/>
    <path fill="#48515A" d="M68.904,92.629 L64.54,92.629 C63.676,92.628 62.975,91.927 62.975,91.063 L62.975,85.195 C62.975,84.331 63.676,83.63 64.54,83.629 L68.067,83.629 L68.067,85.629 L64.975,85.629 L64.975,90.629 L68.904,90.629 L68.904,92.629"/>
    <path fill="#48515A" d="M73.904,100.629 L69.654,100.629 L69.654,98.629 L71.904,98.629 L71.904,93.629 C71.904,93.077 71.456,92.63 70.904,92.629 L67.692,92.629 L67,83.105 C66.955,82.441 66.405,81.925 65.74,81.922 L58.714,81.922 L58.714,79.782 C58.714,79.709 58.654,79.65 58.581,79.65 L45.169,79.629 L45.168,79.629 C44.471,79.629 43.905,80.194 43.904,80.891 C43.904,80.892 43.904,80.892 43.904,80.893 L43.904,98.629 L46.953,98.629 L46.953,100.629 L41.904,100.629 L41.904,80.893 C41.904,79.091 43.365,77.63 45.167,77.629 L45.172,77.629 L58.585,77.65 C59.76,77.654 60.712,78.607 60.714,79.782 L60.714,79.922 L65.741,79.922 C67.455,79.927 68.875,81.255 68.995,82.965 L69.552,90.629 L70.904,90.629 C72.56,90.631 73.902,91.973 73.904,93.629 L73.904,100.629"/>
    <polygon fill="#48515A" points="51.409 100.63 65.106 100.63 65.106 98.63 51.409 98.63"/>
    <path fill="#48515A" d="M49.381 97.675C48.565 97.675 47.904 98.337 47.904 99.152 47.905 99.968 48.566 100.629 49.382 100.629 50.197 100.629 50.858 99.967 50.858 99.152 50.858 98.336 50.196 97.675 49.381 97.675zM49.381 102.629C47.46 102.629 45.904 101.072 45.904 99.151 45.905 97.231 47.461 95.674 49.382 95.675 51.302 95.675 52.858 97.232 52.858 99.152 52.856 101.072 51.301 102.627 49.381 102.629zM67.392 97.675C66.576 97.675 65.915 98.337 65.915 99.152 65.915 99.968 66.577 100.629 67.393 100.629 68.208 100.629 68.869 99.967 68.869 99.152 68.868 98.336 68.207 97.675 67.392 97.675zM67.392 102.629C65.471 102.629 63.915 101.072 63.915 99.151 63.915 97.231 65.472 95.674 67.393 95.675 69.313 95.675 70.869 97.232 70.869 99.152 70.867 101.072 69.311 102.627 67.392 102.629z"/>
    <polygon fill="#48515A" points="58.714 99.629 60.714 99.629 60.714 80.922 58.714 80.922"/>
    <path fill="#48515A" d="M141.563,145.163 L152.014,170.472 L156.487,161.477 L164.874,169.864 L166.288,168.45 L157.858,160.019 L165.511,155.427 L141.563,145.163 Z M151.846,175.303 L137.842,141.393 L169.894,155.129 L161.083,160.416 L169.116,168.45 L164.874,172.692 L157.04,164.857 L151.846,175.303 Z"/>
    <path fill="#FFD15D" d="M155.817 35.525L157.911 39.769 162.594 40.449C163.457 40.575 164.056 41.376 163.93 42.24 163.88 42.584 163.718 42.901 163.469 43.144L160.081 46.447 160.881 51.111C161.028 51.971 160.451 52.788 159.591 52.935 159.248 52.994 158.896 52.938 158.589 52.776L154.4 50.574 150.212 52.776C149.439 53.182 148.484 52.885 148.078 52.113 147.917 51.806 147.861 51.453 147.919 51.111L148.719 46.447 145.331 43.144C144.706 42.535 144.693 41.535 145.302 40.91 145.545 40.661 145.863 40.499 146.206 40.449L150.889 39.769 152.984 35.525C153.37 34.743 154.317 34.422 155.099 34.808 155.411 34.962 155.663 35.214 155.817 35.525M178.921 204.048C180.026 204.048 180.921 204.943 180.921 206.048 180.921 207.153 180.026 208.048 178.921 208.048 177.817 208.048 176.921 207.153 176.921 206.048 176.921 204.943 177.817 204.048 178.921 204.048M44.97 116C46.074 116 46.969 116.895 46.969 118 46.969 119.104 46.074 119.999 44.97 119.999 43.865 119.999 42.97 119.104 42.97 118 42.97 116.895 43.865 116 44.97 116M128.912 45.979L130.192 48.571 133.052 48.987C133.58 49.063 133.945 49.553 133.869 50.081 133.838 50.29 133.739 50.485 133.587 50.633L131.517 52.651 132.006 55.5C132.096 56.025 131.743 56.524 131.218 56.614 131.009 56.65 130.794 56.616 130.606 56.517L128.047 55.172 125.488 56.517C125.016 56.765 124.433 56.584 124.185 56.112 124.086 55.924 124.052 55.709 124.088 55.5L124.576 52.651 122.506 50.633C122.125 50.261 122.117 49.65 122.489 49.268 122.637 49.116 122.831 49.017 123.041 48.987L125.902 48.571 127.181 45.979C127.417 45.501 127.996 45.304 128.474 45.54 128.664 45.634 128.818 45.788 128.912 45.979"/>
    <polygon fill="#48515A" points="74.994 211.044 76.994 211.044 76.994 207.044 74.994 207.044"/>
    <polygon fill="#48515A" points="74.994 221.044 76.994 221.044 76.994 217.044 74.994 217.044"/>
    <polygon fill="#48515A" points="78.994 215.044 82.994 215.044 82.994 213.044 78.994 213.044"/>
    <polygon fill="#48515A" points="68.994 215.044 72.994 215.044 72.994 213.044 68.994 213.044"/>
    <path fill="#FFD15D" d="M110.5,33.315 L111.186,34.705 L112.72,34.928 C113.003,34.969 113.199,35.232 113.158,35.514 C113.141,35.627 113.088,35.731 113.007,35.811 L111.897,36.893 L112.159,38.42 C112.207,38.702 112.018,38.97 111.736,39.018 C111.624,39.037 111.509,39.019 111.408,38.966 L110.036,38.245 L108.664,38.966 C108.411,39.099 108.098,39.002 107.965,38.749 C107.912,38.648 107.894,38.533 107.913,38.42 L108.175,36.893 L107.065,35.811 C106.86,35.611 106.856,35.284 107.056,35.079 C107.135,34.997 107.239,34.944 107.352,34.928 L108.886,34.705 L109.572,33.315 C109.698,33.059 110.008,32.953 110.265,33.08 C110.367,33.13 110.45,33.213 110.5,33.315"/>
  </g>
</svg>
