<svg xmlns="http://www.w3.org/2000/svg" width="250" height="250" viewBox="0 0 250 250">
  <g fill="none" fill-rule="evenodd">
    <polyline fill="#48515A" points="101 217 28.959 217 28.959 109.032 101 109.032 101 111.032 30.959 111.032 30.959 215 101 215 101 217"/>
    <polygon fill="#F58E70" points="68.981 212.999 101 212.999 101 113.032 68.981 113.032"/>
    <polyline fill="#48515A" points="66.958 213 64.952 213 49.959 201.574 34.964 213 32.958 213 32.958 211 34.288 211 49.959 199.059 65.628 211 66.958 211 66.958 213"/>
    <polygon fill="#48515A" points="48.957 200.669 50.957 200.669 50.957 113.03 48.957 113.03"/>
    <path fill="#48515A" d="M81.024,121.798 L79.024,121.798 L79.024,108.031 C79.038,95.887 88.88,86.045 101.024,86.031 L101.024,88.031 C89.984,88.044 81.037,96.991 81.024,108.031 L81.024,121.798"/>
    <path fill="#48515A" d="M80 123.031C78.895 123.031 78 123.926 78 125.031 78 126.135 78.895 127.031 80 127.031 81.105 127.031 82 126.135 82 125.031 81.999 123.927 81.104 123.032 80 123.031zM80 129.031C77.791 129.031 76 127.24 76 125.031 76 122.822 77.791 121.031 80 121.031 82.209 121.031 84 122.822 84 125.031 83.998 127.239 82.208 129.028 80 129.031zM55.958 110.031L53.958 110.031 53.958 108.031C53.958 95.881 63.808 86.031 75.958 86.031 88.108 86.031 97.958 95.881 97.958 108.031L97.958 109.791 95.958 109.791 95.958 108.031C95.958 96.986 87.004 88.031 75.958 88.031 64.912 88.031 55.958 96.986 55.958 108.031L55.958 110.031M105.003 214.999L218.833 214.999 218.833 59 105.003 59 105.003 214.999zM103.003 216.999L220.833 216.999 220.833 57 103.003 57 103.003 216.999z"/>
    <polygon fill="#FFD15D" points="143.025 212.999 216.832 212.999 216.832 61.001 143.025 61.001"/>
    <polyline fill="#48515A" points="141.002 213 138.996 213 124.003 201.574 109.009 213 107.002 213 107.002 211 108.333 211 124.003 199.059 139.672 211 141.002 211 141.002 213"/>
    <polygon fill="#48515A" points="123.002 200.669 125.002 200.669 125.002 60.999 123.002 60.999"/>
    <path fill="#48515A" d="M202.002,69.767 L200.002,69.767 L200.002,56 C200.002,44.954 191.048,36 180.002,36 C168.956,36 160.002,44.954 160.002,56 L160.002,69.767 L158.002,69.767 L158.002,56 C158.002,43.85 167.852,34 180.002,34 C192.152,34 202.002,43.85 202.002,56 L202.002,69.767"/>
    <path fill="#48515A" d="M201.003 70.999C199.898 70.999 199.003 71.895 199.003 72.999 199.003 74.104 199.898 74.999 201.003 74.999 202.107 74.999 203.003 74.104 203.003 72.999 203.002 71.895 202.107 71.001 201.003 70.999zM201.003 76.999C198.794 76.999 197.003 75.209 197.003 72.999 197.003 70.79 198.794 68.999 201.003 68.999 203.212 68.999 205.003 70.79 205.003 72.999 205.001 75.208 203.211 76.997 201.003 76.999zM158.977 70.999C157.873 70.999 156.977 71.895 156.977 72.999 156.977 74.104 157.873 74.999 158.977 74.999 160.082 74.999 160.977 74.104 160.977 72.999 160.976 71.895 160.082 71.001 158.977 70.999zM158.977 76.999C156.768 76.999 154.977 75.209 154.977 72.999 154.977 70.79 156.768 68.999 158.977 68.999 161.187 68.999 162.977 70.79 162.977 72.999 162.975 75.208 161.186 76.997 158.977 76.999zM130.002 57.999L128.002 57.999 128.002 56C128.002 43.85 137.852 34 150.002 34 162.152 34 172.002 43.85 172.002 56L172.002 57.76 170.002 57.76 170.002 56C170.002 44.954 161.048 36 150.002 36 138.956 36 130.002 44.954 130.002 56L130.002 57.999"/>
    <polygon fill="#48515A" points="75 43 77 43 77 39 75 39"/>
    <polygon fill="#48515A" points="75 53 77 53 77 49 75 49"/>
    <polygon fill="#48515A" points="79 47 83 47 83 45 79 45"/>
    <polygon fill="#48515A" points="69 47 73 47 73 45 69 45"/>
    <polygon fill="#48515A" points="199 193 201 193 201 189 199 189"/>
    <polygon fill="#48515A" points="199 203 201 203 201 199 199 199"/>
    <polygon fill="#48515A" points="203 197 207 197 207 195 203 195"/>
    <polygon fill="#48515A" points="193 197 197 197 197 195 193 195"/>
    <path fill="#48515A" d="M132.86,127.275 L143.311,152.585 L147.784,143.589 L156.172,151.976 L157.586,150.562 L149.155,142.131 L156.809,137.539 L132.86,127.275 Z M143.144,157.415 L129.14,123.505 L161.191,137.241 L152.38,142.528 L160.414,150.562 L156.172,154.804 L148.337,146.97 L143.144,157.415 Z"/>
    <polygon fill="#48515A" points="42 81 44 81 44 63 42 63"/>
    <polygon fill="#48515A" points="46 81 50 81 50 63.034 46 63.034"/>
    <polygon fill="#48515A" points="52 81 54 81 54 63 52 63"/>
    <polygon fill="#48515A" points="56 81 58 81 58 63 56 63"/>
    <polygon fill="#48515A" points="60 80.999 64 80.999 64 63 60 63"/>
    <polygon fill="#48515A" points="66 81 68 81 68 63 66 63"/>
    <polygon fill="#48515A" points="70 80.999 74 80.999 74 63 70 63"/>
    <path fill="#FFD15D" d="M88 63C89.657 63 91 64.343 91 66 91 67.657 89.657 69 88 69 86.343 69 85 67.657 85 66 85 64.343 86.343 63 88 63M213 41C214.105 41 215 41.895 215 43 215 44.105 214.105 45 213 45 211.895 45 211 44.105 211 43 211 41.895 211.895 41 213 41M39 159C40.105 159 41 159.895 41 161 41 162.105 40.105 163 39 163 37.895 163 37 162.105 37 161 37 159.895 37.895 159 39 159"/>
  </g>
</svg>
