<svg xmlns="http://www.w3.org/2000/svg" width="250" height="250" viewBox="0 0 250 250">
  <g fill="none" fill-rule="evenodd">
    <polygon fill="#DEDEDD" points="111.989 136.277 206.012 136.277 206.012 131.277 111.989 131.277"/>
    <polygon fill="#F58E70" points="151 198.021 167 198.021 167 124.011 151 124.011"/>
    <polygon fill="#DEDEDD" points="97.5 64.254 172.512 64.254 172.512 59.254 97.5 59.254"/>
    <polygon fill="#FFD15D" points="127 120.869 143 120.869 143 52.011 127 52.011"/>
    <path fill="#F58E70" d="M141.757,37.087 C140.435,38.016 139.434,39.332 138.893,40.853 L136.245,48.253 L144.104,48.245 C145.719,48.246 147.295,47.746 148.613,46.814 C151.299,44.92 151.941,41.208 150.048,38.522 C148.155,35.836 144.443,35.194 141.757,37.087 Z M133.403,50.256 L137.01,40.179 C137.689,38.269 138.946,36.618 140.604,35.453 C144.193,32.923 149.153,33.781 151.683,37.37 C154.213,40.958 153.354,45.919 149.766,48.448 C148.111,49.619 146.133,50.246 144.106,50.245 L133.403,50.256 Z"/>
    <path fill="#F58E70" d="M124.612,36.002 C121.327,35.997 118.659,38.656 118.654,41.942 C118.651,43.879 119.592,45.697 121.176,46.813 C122.494,47.746 124.069,48.246 125.684,48.245 L133.543,48.253 L130.895,40.853 C130.354,39.332 129.354,38.016 128.032,37.087 C127.032,36.381 125.837,36.001 124.612,36.002 Z M136.385,50.256 L125.682,50.245 C123.655,50.247 121.678,49.619 120.023,48.448 C116.435,45.919 115.576,40.958 118.106,37.37 C120.636,33.781 125.596,32.923 129.185,35.453 C130.843,36.618 132.099,38.27 132.778,40.179 L136.385,50.256 Z"/>
    <polyline fill="#48515A" points="173.609 104.469 171.609 104.469 171.609 60.294 98.403 60.294 98.403 84.719 96.403 84.719 96.403 58.294 173.609 58.294 173.609 104.469"/>
    <path fill="#48515A" d="M96.499,58.294 L173.513,58.294 L173.513,50.253 L96.499,50.253 L96.499,58.294 Z M94.499,60.294 L175.513,60.294 L175.513,48.254 L94.499,48.254 L94.499,60.294 Z"/>
    <polygon fill="#DEDEDD" points="45.999 116.265 117.999 116.265 117.999 111.265 45.999 111.265"/>
    <polygon fill="#F58E70" points="75 198.021 91 198.021 91 104.011 75 104.011"/>
    <path fill="#F58E70" d="M93.037,88.01 C91.813,88.01 90.619,88.391 89.621,89.099 C88.299,90.027 87.299,91.342 86.757,92.864 L84.109,100.264 L91.969,100.256 C93.583,100.257 95.159,99.757 96.477,98.824 C99.163,96.931 99.805,93.219 97.912,90.533 C97.003,89.243 95.618,88.368 94.063,88.099 C93.724,88.04 93.381,88.01 93.037,88.01 Z M81.268,102.267 L84.874,92.19 C85.554,90.28 86.81,88.629 88.468,87.464 C92.057,84.934 97.017,85.792 99.546,89.381 C102.076,92.969 101.218,97.929 97.629,100.459 C95.975,101.63 93.998,102.258 91.971,102.256 L81.268,102.267 Z"/>
    <path fill="#F58E70" d="M72.476,88.014 C69.191,88.008 66.523,90.666 66.517,93.951 C66.513,95.889 67.455,97.708 69.039,98.824 C70.358,99.757 71.934,100.257 73.548,100.256 L81.408,100.264 L78.76,92.864 C78.218,91.343 77.218,90.027 75.896,89.099 C74.896,88.392 73.701,88.013 72.476,88.014 Z M84.248,102.267 L73.546,102.256 C71.52,102.257 69.542,101.629 67.887,100.459 C64.305,97.92 63.459,92.958 65.998,89.376 C68.528,85.806 73.467,84.952 77.049,87.464 C78.707,88.629 79.963,90.28 80.643,92.19 L84.248,102.267 Z"/>
    <polygon fill="#48515A" points="62.939 202.003 109.091 202.003 109.091 200.003 62.939 200.003"/>
    <polyline fill="#48515A" points="56.942 202.003 44.903 202.003 44.903 110.305 119.096 110.305 119.096 118.138 117.096 118.138 117.096 112.305 46.903 112.305 46.903 200.003 56.942 200.003 56.942 202.003"/>
    <path fill="#48515A" d="M44.999,110.305 L118.999,110.305 L118.999,102.265 L44.999,102.265 L44.999,110.305 Z M42.999,112.305 L120.999,112.305 L120.999,100.265 L42.999,100.265 L42.999,112.305 Z"/>
    <path fill="#F58E70" d="M168.666,107.755 C167.442,107.756 166.249,108.136 165.251,108.844 C163.93,109.772 162.929,111.088 162.388,112.609 L159.74,120.009 L167.599,120.002 C169.214,120.003 170.789,119.502 172.107,118.57 C174.793,116.676 175.435,112.964 173.542,110.279 C172.633,108.989 171.248,108.113 169.693,107.844 C169.354,107.785 169.01,107.756 168.666,107.755 Z M156.898,122.012 L160.505,111.936 C161.184,110.026 162.44,108.375 164.099,107.21 C167.687,104.68 172.647,105.538 175.177,109.127 C177.706,112.715 176.848,117.675 173.26,120.205 C171.605,121.375 169.628,122.003 167.601,122.002 L156.898,122.012 Z"/>
    <path fill="#F58E70" d="M148.111,107.755 C147.767,107.756 147.423,107.785 147.084,107.844 C143.846,108.404 141.675,111.483 142.235,114.721 C142.504,116.276 143.38,117.661 144.67,118.57 C145.988,119.502 147.564,120.003 149.179,120.002 L157.038,120.009 L154.391,112.609 C153.849,111.088 152.848,109.773 151.526,108.844 C150.528,108.136 149.335,107.756 148.111,107.755 Z M159.878,122.012 L149.177,122.002 C147.15,122.003 145.172,121.375 143.518,120.205 C139.929,117.675 139.071,112.715 141.601,109.127 C144.13,105.538 149.09,104.68 152.679,107.21 C154.337,108.375 155.593,110.026 156.273,111.935 L159.878,122.012 Z"/>
    <polyline fill="#48515A" points="183.667 202.003 110.893 202.003 110.893 130.317 207.109 130.317 207.109 168.667 205.109 168.667 205.109 132.317 112.893 132.317 112.893 200.003 183.667 200.003 183.667 202.003"/>
    <path fill="#48515A" d="M110.989,130.317 L207.013,130.317 L207.013,122.012 L110.989,122.012 L110.989,130.317 Z M108.989,132.317 L209.013,132.317 L209.013,120.012 L108.989,120.012 L108.989,132.317 Z"/>
    <polygon fill="#48515A" points="212.979 95.935 214.979 95.935 214.979 91.935 212.979 91.935"/>
    <polygon fill="#48515A" points="212.979 105.935 214.979 105.935 214.979 101.935 212.979 101.935"/>
    <polygon fill="#48515A" points="216.979 99.935 220.979 99.935 220.979 97.935 216.979 97.935"/>
    <polygon fill="#48515A" points="206.979 99.935 210.979 99.935 210.979 97.935 206.979 97.935"/>
    <polygon fill="#48515A" points="58.942 203.948 60.942 203.948 60.942 199.948 58.942 199.948"/>
    <polygon fill="#48515A" points="58.942 213.948 60.942 213.948 60.942 209.948 58.942 209.948"/>
    <polygon fill="#48515A" points="62.942 207.948 66.942 207.948 66.942 205.948 62.942 205.948"/>
    <polygon fill="#48515A" points="52.942 207.948 56.942 207.948 56.942 205.948 52.942 205.948"/>
    <path fill="#48515A" d="M146.563 142.139L157.014 167.448 161.487 158.453 169.874 166.84 171.288 165.426 162.858 156.995 170.511 152.403 146.563 142.139zM156.846 172.279L142.842 138.369 174.894 152.105 166.083 157.392 174.116 165.426 169.874 169.668 162.04 161.833 156.846 172.279zM58.899 48.882C57.243 48.882 55.899 50.225 55.899 51.882 55.899 53.539 57.243 54.882 58.899 54.882 60.556 54.882 61.899 53.539 61.899 51.882 61.898 50.226 60.555 48.884 58.899 48.882zM58.899 56.882C56.138 56.882 53.899 54.644 53.899 51.882 53.899 49.121 56.138 46.882 58.899 46.882 61.661 46.882 63.899 49.121 63.899 51.882 63.896 54.642 61.66 56.879 58.899 56.882zM58.899 70.882C57.243 70.882 55.899 72.225 55.899 73.882 55.899 75.539 57.243 76.882 58.899 76.882 60.556 76.882 61.899 75.539 61.899 73.882 61.898 72.226 60.555 70.884 58.899 70.882zM58.899 78.882C56.138 78.882 53.899 76.644 53.899 73.882 53.899 71.121 56.138 68.882 58.899 68.882 61.661 68.882 63.899 71.121 63.899 73.882 63.896 76.642 61.66 78.879 58.899 78.882z"/>
    <polyline fill="#48515A" points="55.947 69.848 82.28 49.096 83.518 50.667 57.186 71.419 55.947 69.848"/>
    <polyline fill="#48515A" points="55.781 55.793 57.018 54.222 83.518 75.097 82.281 76.668 55.781 55.793"/>
    <path fill="#48515A" d="M71.898,63.882 L73.898,63.882 L73.898,61.882 L71.898,61.882 L71.898,63.882 Z M75.898,63.882 L77.898,63.882 L77.898,61.882 L75.898,61.882 L75.898,63.882 Z M79.898,63.882 L81.898,63.882 L81.898,61.882 L79.898,61.882 L79.898,63.882 Z M83.898,63.882 L85.898,63.882 L85.898,61.882 L83.898,61.882 L83.898,63.882 Z"/>
    <polygon fill="#48515A" points="35 135 37 135 37 131 35 131"/>
    <polygon fill="#48515A" points="35 145 37 145 37 141 35 141"/>
    <polygon fill="#48515A" points="39 139 43 139 43 137 39 137"/>
    <polygon fill="#48515A" points="29 139 33 139 33 137 29 137"/>
    <path fill="#5FE0ED" d="M187 77C188.105 77 189 77.895 189 79 189 80.105 188.105 81 187 81 185.895 81 185 80.105 185 79 185 77.895 185.895 77 187 77M43 85C44.105 85 45 85.895 45 87 45 88.105 44.105 89 43 89 41.895 89 41 88.105 41 87 41 85.895 41.895 85 43 85M178 207C178.552 207 179 207.448 179 208 179 208.552 178.552 209 178 209 177.448 209 177 208.552 177 208 177 207.448 177.448 207 178 207"/>
    <path fill="#FFD15D" d="M209.699,59.538 L210.978,62.13 L213.839,62.546 C214.366,62.623 214.732,63.113 214.655,63.64 C214.624,63.85 214.526,64.044 214.374,64.192 L212.303,66.21 L212.792,69.059 C212.882,69.585 212.529,70.084 212.004,70.174 C211.795,70.21 211.58,70.175 211.392,70.077 L208.833,68.731 L206.274,70.077 C205.802,70.325 205.219,70.143 204.971,69.672 C204.872,69.484 204.838,69.269 204.874,69.059 L205.363,66.21 L203.292,64.192 C202.911,63.82 202.903,63.209 203.275,62.827 C203.423,62.675 203.617,62.577 203.827,62.546 L206.688,62.13 L207.968,59.538 C208.203,59.06 208.782,58.864 209.26,59.1 C209.45,59.193 209.604,59.348 209.699,59.538"/>
    <path fill="#48515A" d="M185.708,172.401 L187.207,181.443 L187.045,181.744 C182.561,190.08 185.684,200.472 194.019,204.956 C196.316,206.191 198.865,206.886 201.471,206.988 C210.927,207.354 218.891,199.985 219.257,190.528 C219.623,181.071 212.254,173.108 202.797,172.742 C200.192,172.641 197.598,173.135 195.213,174.189 L194.92,174.318 L185.708,172.401 Z M202.145,209.001 C201.895,209.001 201.645,208.996 201.393,208.986 C190.829,208.572 182.602,199.673 183.016,189.11 C183.125,186.318 183.845,183.585 185.123,181.101 L183.257,169.848 L194.702,172.23 C197.284,171.133 200.078,170.626 202.881,170.744 C213.441,171.155 221.669,180.049 221.258,190.609 C220.858,200.877 212.421,208.996 202.145,209.001 Z"/>
    <path fill="#F58E70" d="M211.007,191.009 C212.892,188.658 212.515,185.225 210.164,183.339 C207.814,181.454 204.38,181.831 202.495,184.182 C202.412,184.285 202.333,184.391 202.258,184.5 C200.55,182.018 197.153,181.392 194.671,183.1 C192.189,184.809 191.562,188.206 193.271,190.688 C193.347,190.798 193.426,190.905 193.51,191.009 L193.518,191.02 C193.72,191.27 202.258,200.053 202.258,200.053 C202.258,200.053 210.797,191.27 210.999,191.02 L211.007,191.009"/>
    <path fill="#F58E70" d="M197.767,183.14 C195.306,183.143 193.311,185.137 193.309,187.598 C193.305,188.611 193.652,189.595 194.29,190.383 C194.546,190.673 198.957,195.22 202.259,198.618 C205.521,195.26 209.868,190.779 210.227,190.383 C210.865,189.595 211.211,188.611 211.208,187.598 C211.209,185.136 209.214,183.14 206.753,183.14 C205.286,183.139 203.913,183.86 203.081,185.068 L202.259,186.259 L201.436,185.069 C200.604,183.862 199.232,183.141 197.767,183.14 Z M202.259,201.487 L201.542,200.75 C198.341,197.458 192.94,191.897 192.739,191.647 C190.501,188.871 190.938,184.807 193.713,182.57 C196.252,180.523 199.918,180.691 202.259,182.96 C204.818,180.479 208.905,180.541 211.387,183.1 C213.653,185.437 213.825,189.096 211.787,191.635 L211.785,191.634 C211.344,192.136 206.107,197.528 202.975,200.75 L202.259,201.487 Z"/>
  </g>
</svg>
