<svg xmlns="http://www.w3.org/2000/svg" width="250" height="250" viewBox="0 0 250 250">
  <g fill="none" fill-rule="evenodd">
    <path fill="#DFE0E0" d="M199.02,125 C199.02,84.131 165.889,51 125.02,51 C84.151,51 51.02,84.131 51.02,125 C51.02,126.007 51.056,127.005 51.096,128.002 C52.702,88.337 85.323,57.007 125.02,57.004 C164.718,57.007 197.339,88.337 198.944,128.002 C198.984,127.005 199.02,126.007 199.02,125"/>
    <path fill="#48515A" d="M125.02,48 C82.495,48 48.02,82.474 48.02,125 C48.02,167.525 82.494,202 125.019,202 C167.545,202 202.02,167.526 202.02,125.001 C202.02,125 202.02,125 202.02,125 C201.972,82.494 167.526,48.048 125.02,48 Z M125.02,204 C81.392,204.386 45.711,169.327 45.325,125.698 C44.94,82.069 79.995,46.389 123.624,46.003 C124.089,45.999 124.555,45.999 125.02,46 C168.651,46 204.02,81.37 204.02,125 C204.02,168.631 168.651,204 125.02,204 Z"/>
    <polygon fill="#48515A" points="123.113 80.679 125.113 80.679 125.113 60.55 123.113 60.55"/>
    <polygon fill="#48515A" points="122.926 189.857 124.926 189.857 124.926 169.728 122.926 169.728"/>
    <polygon fill="#48515A" points="169.704 124.063 189.832 124.063 189.832 122.063 169.704 122.063"/>
    <polygon fill="#48515A" points="59.601 126 79.73 126 79.73 124 59.601 124"/>
    <polyline fill="#48515A" points="171.875 96.498 180.592 91.466 181.592 93.199 172.875 98.23 171.875 96.498"/>
    <polyline fill="#48515A" points="67.449 155.135 76.165 150.103 77.165 151.836 68.449 156.867 67.449 155.135"/>
    <polyline fill="#48515A" points="152.79 77.77 157.822 69.053 159.554 70.053 154.523 78.77 152.79 77.77"/>
    <polyline fill="#48515A" points="92.195 181.061 97.226 172.344 98.959 173.344 93.927 182.061 92.195 181.061"/>
    <polyline fill="#48515A" points="92.382 69.126 94.114 68.126 99.146 76.843 97.414 77.843 92.382 69.126"/>
    <polyline fill="#48515A" points="152.623 172.272 154.355 171.272 159.388 179.988 157.655 180.988 152.623 172.272"/>
    <polyline fill="#48515A" points="69.49 91.407 70.49 89.674 79.207 94.707 78.206 96.439 69.49 91.407"/>
    <polyline fill="#48515A" points="173.709 150.106 174.709 148.374 183.425 153.406 182.425 155.138 173.709 150.106"/>
    <polygon fill="#48515A" points="123.019 120.001 125.019 120.001 125.019 85 123.019 85"/>
    <path fill="#48515A" d="M123.061,62.03 L123,60.031 C123.671,60.01 124.345,60 125.02,60 L125.181,60 L125.181,62 L125.02,62 C124.365,62 123.712,62.01 123.061,62.03 Z M129.095,62.13 C128.444,62.088 127.792,62.057 127.136,62.035 L127.204,60.036 C127.879,60.059 128.552,60.091 129.222,60.134 L129.095,62.13 Z M119.151,62.27 L118.967,60.278 C119.635,60.216 120.307,60.165 120.982,60.124 L121.104,62.12 C120.45,62.16 119.799,62.21 119.151,62.27 Z M132.994,62.499 C132.348,62.417 131.699,62.346 131.047,62.284 L131.236,60.293 C131.909,60.357 132.579,60.431 133.245,60.515 L132.994,62.499 Z M115.264,62.751 L114.956,60.774 C115.62,60.671 116.288,60.578 116.958,60.495 L117.204,62.48 C116.554,62.56 115.908,62.65 115.264,62.751 Z M136.863,63.111 C136.223,62.99 135.579,62.878 134.932,62.775 L135.247,60.799 C135.914,60.906 136.577,61.021 137.236,61.146 L136.863,63.111 Z M111.415,63.473 L110.984,61.52 C111.641,61.375 112.301,61.24 112.964,61.116 L113.333,63.082 C112.69,63.203 112.051,63.333 111.415,63.473 Z M140.686,63.963 C140.055,63.801 139.42,63.649 138.781,63.507 L139.216,61.555 C139.876,61.702 140.531,61.859 141.182,62.025 L140.686,63.963 Z M107.617,64.434 L107.065,62.511 C107.711,62.326 108.362,62.151 109.017,61.985 L109.507,63.923 C108.873,64.084 108.243,64.254 107.617,64.434 Z M144.449,65.052 C143.829,64.852 143.204,64.66 142.576,64.478 L143.132,62.557 C143.781,62.745 144.425,62.943 145.065,63.15 L144.449,65.052 Z M103.882,65.633 L103.21,63.749 C103.847,63.523 104.487,63.306 105.132,63.099 L105.743,65.003 C105.118,65.204 104.498,65.414 103.882,65.633 Z M148.135,66.375 C147.529,66.136 146.918,65.906 146.302,65.685 L146.978,63.802 C147.613,64.031 148.244,64.268 148.87,64.515 L148.135,66.375 Z M100.224,67.067 L99.436,65.229 C100.057,64.963 100.682,64.706 101.311,64.46 L102.041,66.322 C101.431,66.561 100.825,66.809 100.224,67.067 Z M151.721,67.922 C151.132,67.646 150.538,67.379 149.939,67.121 L150.731,65.284 C151.349,65.55 151.962,65.826 152.57,66.111 L151.721,67.922 Z M96.666,68.726 L95.765,66.94 C96.367,66.636 96.975,66.341 97.587,66.056 L98.433,67.868 C97.839,68.145 97.25,68.431 96.666,68.726 Z M155.206,69.689 C154.635,69.376 154.059,69.072 153.477,68.778 L154.382,66.994 C154.982,67.298 155.577,67.611 156.166,67.934 L155.206,69.689 Z M93.22,70.602 L92.21,68.877 C92.791,68.536 93.379,68.204 93.972,67.881 L94.928,69.638 C94.354,69.951 93.784,70.272 93.22,70.602 Z M158.577,71.67 C158.026,71.323 157.469,70.984 156.907,70.653 L157.92,68.929 C158.501,69.27 159.076,69.62 159.644,69.979 L158.577,71.67 Z M89.899,72.69 L88.783,71.03 C89.343,70.654 89.908,70.287 90.479,69.927 L91.543,71.621 C90.99,71.969 90.442,72.325 89.899,72.69 Z M161.819,73.858 C161.29,73.477 160.755,73.104 160.214,72.739 L161.333,71.082 C161.892,71.458 162.443,71.843 162.989,72.236 L161.819,73.858 Z M86.716,74.979 L85.498,73.392 C86.033,72.981 86.574,72.579 87.122,72.186 L88.289,73.81 C87.758,74.191 87.234,74.581 86.716,74.979 Z M164.922,76.244 C164.417,75.831 163.906,75.425 163.389,75.027 L164.607,73.441 C165.142,73.852 165.669,74.271 166.189,74.697 L164.922,76.244 Z M83.681,77.458 L82.367,75.951 C82.876,75.508 83.391,75.073 83.914,74.646 L85.178,76.195 C84.672,76.608 84.173,77.029 83.681,77.458 Z M167.872,78.819 C167.395,78.374 166.91,77.938 166.418,77.509 L167.731,76.001 C168.24,76.444 168.74,76.894 169.234,77.353 L167.872,78.819 Z M80.805,80.122 L79.402,78.697 C79.882,78.224 80.37,77.759 80.864,77.301 L82.222,78.769 C81.743,79.212 81.271,79.664 80.805,80.122 Z M170.66,81.571 C170.209,81.098 169.752,80.632 169.288,80.173 L170.693,78.75 C171.172,79.224 171.644,79.704 172.108,80.192 L170.66,81.571 Z M78.101,82.956 L76.613,81.62 C77.062,81.119 77.52,80.624 77.984,80.137 L79.432,81.517 C78.981,81.99 78.538,82.469 78.101,82.956 Z M173.272,84.492 C172.852,83.992 172.424,83.498 171.988,83.011 L173.479,81.677 C173.928,82.18 174.37,82.689 174.804,83.205 L173.272,84.492 Z M75.579,85.95 L74.011,84.709 C74.429,84.181 74.854,83.66 75.288,83.145 L76.818,84.433 C76.397,84.932 75.984,85.438 75.579,85.95 Z M175.701,87.57 C175.311,87.044 174.915,86.525 174.51,86.012 L176.08,84.773 C176.498,85.303 176.907,85.838 177.308,86.38 L175.701,87.57 Z M73.248,89.092 L71.605,87.952 C71.989,87.398 72.382,86.851 72.783,86.311 L74.389,87.503 C74.001,88.026 73.62,88.556 73.248,89.092 Z M177.934,90.794 C177.579,90.245 177.215,89.702 176.842,89.165 L178.486,88.025 C178.87,88.579 179.246,89.139 179.613,89.706 L177.934,90.794 Z M71.115,92.373 L69.406,91.335 C69.756,90.76 70.114,90.19 70.479,89.626 L72.156,90.716 C71.801,91.263 71.454,91.816 71.115,92.373 Z M179.963,94.15 C179.642,93.58 179.313,93.015 178.974,92.455 L180.686,91.421 C181.035,91.998 181.375,92.581 181.706,93.169 L179.963,94.15 Z M69.194,95.777 L67.423,94.848 C67.736,94.251 68.057,93.661 68.388,93.077 L70.129,94.06 C69.809,94.627 69.497,95.199 69.194,95.777 Z M181.78,97.629 C181.495,97.039 181.201,96.454 180.899,95.875 L182.671,94.949 C182.984,95.547 183.287,96.15 183.581,96.759 L181.78,97.629 Z M67.487,99.291 L65.661,98.475 C65.936,97.86 66.22,97.251 66.514,96.647 L68.312,97.521 C68.029,98.105 67.754,98.695 67.487,99.291 Z M183.376,101.215 C183.129,100.609 182.872,100.007 182.606,99.41 L184.433,98.596 C184.707,99.212 184.973,99.833 185.228,100.46 L183.376,101.215 Z M66.002,102.91 L64.129,102.208 C64.366,101.576 64.612,100.949 64.867,100.327 L66.718,101.085 C66.47,101.689 66.231,102.297 66.002,102.91 Z M184.746,104.898 C184.537,104.276 184.318,103.659 184.09,103.046 L185.964,102.348 C186.2,102.981 186.426,103.618 186.642,104.26 L184.746,104.898 Z M64.744,106.619 L62.831,106.036 C63.027,105.389 63.234,104.748 63.45,104.111 L65.344,104.754 C65.134,105.371 64.934,105.993 64.744,106.619 Z M185.88,108.654 C185.71,108.023 185.532,107.395 185.343,106.771 L187.257,106.191 C187.453,106.836 187.637,107.484 187.811,108.137 L185.88,108.654 Z M63.72,110.4 L61.775,109.937 C61.931,109.281 62.096,108.628 62.272,107.979 L64.203,108.501 C64.032,109.13 63.871,109.763 63.72,110.4 Z M186.774,112.467 C186.645,111.826 186.506,111.188 186.356,110.554 L188.304,110.097 C188.457,110.752 188.601,111.41 188.735,112.072 L186.774,112.467 Z M62.936,114.237 L60.965,113.897 C61.08,113.231 61.205,112.57 61.339,111.912 L63.299,112.311 C63.168,112.95 63.047,113.592 62.936,114.237 Z M187.429,116.33 C187.339,115.682 187.24,115.036 187.131,114.394 L189.103,114.059 C189.216,114.722 189.318,115.388 189.41,116.057 L187.429,116.33 Z M62.392,118.116 L60.404,117.9 C60.477,117.228 60.56,116.559 60.653,115.894 L62.634,116.171 C62.543,116.816 62.463,117.465 62.392,118.116 Z M187.842,120.225 C187.793,119.571 187.734,118.921 187.665,118.273 L189.655,118.063 C189.725,118.731 189.786,119.402 189.836,120.075 L187.842,120.225 Z M62.089,122.023 L60.091,121.929 C60.123,121.253 60.165,120.581 60.217,119.912 L62.211,120.067 C62.16,120.716 62.12,121.368 62.089,122.023 Z M188.015,124.139 C188.006,123.483 187.987,122.831 187.958,122.181 L189.956,122.092 C189.986,122.763 190.006,123.436 190.014,124.112 L188.015,124.139 Z M60.027,125.968 C60.023,125.647 60.021,125.324 60.02,125 C60.02,124.649 60.023,124.299 60.029,123.949 L62.029,123.98 C62.023,124.319 62.021,124.659 62.02,125 C62.02,125.315 62.023,125.628 62.027,125.941 L60.027,125.968 Z M189.945,128.153 L187.947,128.057 C187.979,127.407 188,126.754 188.011,126.099 L190.011,126.133 C189.999,126.809 189.977,127.482 189.945,128.153 Z M60.21,130.006 C60.159,129.336 60.118,128.664 60.088,127.989 L62.086,127.898 C62.116,128.552 62.155,129.204 62.204,129.854 L60.21,130.006 Z M189.628,132.182 L187.64,131.963 C187.711,131.316 187.773,130.666 187.824,130.013 L189.818,130.17 C189.765,130.844 189.702,131.514 189.628,132.182 Z M60.642,134.025 C60.549,133.359 60.467,132.69 60.395,132.018 L62.383,131.805 C62.453,132.456 62.533,133.104 62.623,133.749 L60.642,134.025 Z M189.062,136.184 L187.091,135.841 C187.203,135.199 187.305,134.554 187.396,133.906 L189.376,134.187 C189.282,134.855 189.177,135.521 189.062,136.184 Z M61.322,138.008 C61.189,137.349 61.065,136.686 60.951,136.021 L62.922,135.685 C63.032,136.329 63.152,136.971 63.282,137.609 L61.322,138.008 Z M188.247,140.142 L186.302,139.677 C186.453,139.044 186.595,138.406 186.727,137.766 L188.686,138.168 C188.55,138.83 188.404,139.488 188.247,140.142 Z M62.25,141.942 C62.076,141.292 61.911,140.639 61.756,139.983 L63.702,139.523 C63.852,140.16 64.012,140.794 64.182,141.423 L62.25,141.942 Z M187.186,144.042 L185.274,143.457 C185.464,142.833 185.645,142.206 185.817,141.575 L187.747,142.1 C187.57,142.751 187.383,143.399 187.186,144.042 Z M63.427,145.818 C63.21,145.178 63.003,144.534 62.807,143.885 L64.721,143.305 C64.912,143.933 65.112,144.557 65.321,145.176 L63.427,145.818 Z M185.884,147.868 L184.012,147.165 C184.241,146.554 184.462,145.939 184.673,145.319 L186.565,145.966 C186.347,146.605 186.12,147.238 185.884,147.868 Z M64.843,149.615 C64.587,148.99 64.341,148.361 64.104,147.727 L65.979,147.028 C66.207,147.642 66.446,148.252 66.694,148.857 L64.843,149.615 Z M184.346,151.6 L182.521,150.781 C182.788,150.188 183.045,149.59 183.293,148.988 L185.143,149.749 C184.887,150.371 184.621,150.988 184.346,151.6 Z M66.497,153.315 C66.202,152.708 65.916,152.096 65.641,151.478 L67.467,150.663 C67.734,151.261 68.01,151.854 68.295,152.442 L66.497,153.315 Z M182.581,155.224 L180.811,154.293 C181.114,153.717 181.408,153.136 181.694,152.549 L183.492,153.426 C183.197,154.031 182.893,154.63 182.581,155.224 Z M68.374,156.902 C68.042,156.315 67.72,155.722 67.407,155.122 L69.178,154.195 C69.482,154.775 69.794,155.349 70.116,155.918 L68.374,156.902 Z M180.593,158.734 L178.884,157.695 C179.222,157.138 179.553,156.576 179.875,156.008 L181.614,156.995 C181.282,157.581 180.942,158.16 180.593,158.734 Z M70.473,160.363 C70.105,159.797 69.747,159.226 69.397,158.649 L71.107,157.612 C71.446,158.171 71.794,158.725 72.15,159.273 L70.473,160.363 Z M178.39,162.115 L176.748,160.972 C177.121,160.437 177.485,159.896 177.842,159.349 L179.518,160.441 C179.149,161.005 178.773,161.563 178.39,162.115 Z M72.782,163.686 C72.379,163.145 71.986,162.596 71.601,162.042 L73.244,160.901 C73.617,161.438 73.998,161.969 74.387,162.494 L72.782,163.686 Z M175.979,165.355 L174.412,164.112 C174.817,163.601 175.215,163.084 175.605,162.56 L177.209,163.754 C176.807,164.294 176.397,164.828 175.979,165.355 Z M75.289,166.857 C74.855,166.341 74.429,165.819 74.011,165.29 L75.579,164.05 C75.984,164.563 76.398,165.069 76.819,165.569 L75.289,166.857 Z M173.373,168.44 L171.886,167.103 C172.323,166.617 172.752,166.125 173.173,165.626 L174.701,166.917 C174.266,167.432 173.824,167.939 173.373,168.44 Z M77.988,169.866 C77.523,169.378 77.065,168.884 76.615,168.382 L78.104,167.047 C78.54,167.534 78.984,168.013 79.435,168.485 L77.988,169.866 Z M170.581,171.36 L169.179,169.934 C169.645,169.476 170.103,169.011 170.554,168.539 L172,169.921 C171.535,170.408 171.061,170.888 170.581,171.36 Z M80.867,172.702 C80.373,172.244 79.886,171.779 79.406,171.307 L80.809,169.882 C81.274,170.34 81.747,170.791 82.226,171.235 L80.867,172.702 Z M167.612,174.102 L166.3,172.593 C166.794,172.164 167.281,171.728 167.761,171.285 L169.117,172.754 C168.622,173.211 168.12,173.661 167.612,174.102 Z M83.914,175.354 C83.393,174.927 82.878,174.493 82.37,174.052 L83.683,172.543 C84.175,172.971 84.674,173.392 85.18,173.805 L83.914,175.354 Z M164.478,176.658 L163.263,175.069 C163.782,174.672 164.295,174.267 164.801,173.854 L166.066,175.404 C165.543,175.83 165.014,176.248 164.478,176.658 Z M87.118,177.811 C86.571,177.418 86.03,177.017 85.496,176.607 L86.714,175.02 C87.231,175.417 87.755,175.807 88.285,176.188 L87.118,177.811 Z M161.19,179.015 L160.076,177.354 C160.619,176.99 161.157,176.617 161.688,176.236 L162.852,177.862 C162.304,178.255 161.75,178.639 161.19,179.015 Z M90.465,180.064 C89.896,179.706 89.332,179.339 88.774,178.964 L89.891,177.305 C90.432,177.669 90.979,178.024 91.531,178.372 L90.465,180.064 Z M157.761,181.164 L156.752,179.437 C157.317,179.106 157.877,178.768 158.431,178.421 L159.492,180.116 C158.921,180.474 158.344,180.823 157.761,181.164 Z M93.947,182.105 C93.355,181.783 92.77,181.452 92.191,181.112 L93.202,179.387 C93.764,179.716 94.331,180.037 94.904,180.35 L93.947,182.105 Z M154.203,183.096 L153.304,181.31 C153.889,181.015 154.468,180.712 155.043,180.4 L155.997,182.158 C155.405,182.48 154.807,182.792 154.203,183.096 Z M97.545,183.924 C96.935,183.64 96.331,183.346 95.731,183.042 L96.634,181.257 C97.214,181.551 97.8,181.836 98.391,182.112 L97.545,183.924 Z M150.529,184.803 L149.743,182.964 C150.346,182.706 150.944,182.44 151.537,182.165 L152.38,183.979 C151.768,184.262 151.151,184.537 150.529,184.803 Z M101.247,185.515 C100.62,185.269 99.999,185.013 99.383,184.749 L100.173,182.911 C100.77,183.167 101.372,183.415 101.979,183.654 L101.247,185.515 Z M146.753,186.277 L146.085,184.393 C146.703,184.173 147.316,183.945 147.925,183.707 L148.654,185.569 C148.025,185.815 147.391,186.051 146.753,186.277 Z M105.053,186.876 C104.41,186.668 103.772,186.451 103.139,186.225 L103.813,184.342 C104.426,184.561 105.044,184.771 105.667,184.972 L105.053,186.876 Z M142.898,187.511 L142.348,185.588 C142.977,185.408 143.602,185.219 144.222,185.02 L144.833,186.925 C144.191,187.13 143.546,187.326 142.897,187.511 L142.898,187.511 Z M108.938,187.995 C108.283,187.828 107.632,187.651 106.987,187.465 L107.54,185.544 C108.166,185.724 108.796,185.895 109.431,186.056 L108.938,187.995 Z M138.978,188.498 L138.55,186.544 C139.189,186.404 139.824,186.255 140.456,186.095 L140.945,188.035 C140.293,188.199 139.637,188.354 138.977,188.498 L138.978,188.498 Z M112.884,188.869 C112.22,188.743 111.56,188.608 110.903,188.463 L111.336,186.51 C111.972,186.651 112.611,186.782 113.255,186.904 L112.884,188.869 Z M135.004,189.238 L134.698,187.261 C135.346,187.161 135.99,187.052 136.63,186.933 L136.996,188.898 C136.335,189.021 135.671,189.135 135.004,189.238 Z M116.876,189.495 C116.206,189.412 115.539,189.318 114.874,189.213 L115.184,187.237 C115.828,187.338 116.474,187.429 117.123,187.51 L116.876,189.495 Z M130.992,189.73 L130.811,187.737 C131.462,187.678 132.111,187.608 132.758,187.529 L133.002,189.515 C132.335,189.596 131.665,189.668 130.992,189.73 Z M120.899,189.872 C120.224,189.83 119.553,189.777 118.885,189.714 L119.071,187.723 C119.719,187.784 120.37,187.835 121.025,187.876 L120.899,189.872 Z M126.959,189.972 L126.9,187.973 C127.555,187.953 128.208,187.924 128.858,187.885 L128.977,189.881 C128.307,189.922 127.634,189.952 126.959,189.972 Z M124.939,190 C124.262,189.999 123.589,189.988 122.918,189.967 L122.982,187.968 C123.632,187.988 124.286,187.999 124.942,188 L124.939,190 Z"/>
    <path fill="#48515A" d="M125.02,52 C84.704,52 52.02,84.683 52.02,125 C52.02,165.316 84.703,198 125.019,198 C165.336,198 198.02,165.317 198.02,125.001 C198.02,125 198.02,125 198.02,125 C197.974,84.702 165.318,52.046 125.02,52 Z M125.02,200 C83.6,200.25 49.819,166.873 49.569,125.453 C49.319,84.032 82.695,50.251 124.115,50.001 C124.417,49.999 124.718,49.999 125.02,50 C166.442,50 200.02,83.579 200.02,125 C200.02,166.421 166.442,200 125.02,200 Z"/>
    <path fill="#48515A" d="M124.019,121 C121.81,121 120.019,122.791 120.019,125 C120.019,127.209 121.81,129 124.019,129 C126.229,129 128.02,127.209 128.02,125 C128.017,122.792 126.228,121.003 124.019,121 Z M124.019,131 C120.706,131 118.019,128.314 118.019,125 C118.019,121.686 120.706,119 124.019,119 C127.333,119 130.02,121.686 130.02,125 C130.016,128.312 127.332,130.996 124.019,131 Z"/>
    <path fill="#DFE0E0" d="M125.02,203 C83.694,202.997 49.543,170.76 47.159,129.503 C47.074,130.994 47.02,132.493 47.02,134.005 L47.02,134.006 C47.02,177.084 81.942,212.005 125.02,212.005 C168.098,212.005 203.02,177.084 203.02,134.006 L203.02,134.005 C203.02,132.493 202.966,130.994 202.882,129.503 C200.498,170.76 166.347,202.997 125.02,203"/>
    <path fill="#48515A" d="M203.88 129.56L201.883 129.446C201.975 127.827 202.02 126.373 202.02 125L204.02 125C204.02 126.411 203.974 127.903 203.88 129.56M46.16 129.56C46.066 127.903 46.02 126.411 46.02 125L48.02 125C48.02 126.373 48.065 127.827 48.157 129.446L46.16 129.56"/>
    <path fill="#48515A" d="M125.02,204 C83.166,203.99 48.581,171.343 46.16,129.56 L48.157,129.446 C50.608,171.896 87.007,204.323 129.457,201.872 C168.485,199.619 199.63,168.475 201.883,129.446 L203.88,129.56 C201.459,171.343 166.874,203.99 125.02,204"/>
    <polygon fill="#48515A" points="206.042 70.988 208.042 70.988 208.042 66.988 206.042 66.988"/>
    <polygon fill="#48515A" points="206.042 80.988 208.042 80.988 208.042 76.988 206.042 76.988"/>
    <polygon fill="#48515A" points="210.042 74.988 214.042 74.988 214.042 72.988 210.042 72.988"/>
    <polygon fill="#48515A" points="200.042 74.988 204.042 74.988 204.042 72.988 200.042 72.988"/>
    <polygon fill="#48515A" points="212.046 171.048 214.046 171.048 214.046 167.048 212.046 167.048"/>
    <polygon fill="#48515A" points="212.046 181.048 214.046 181.048 214.046 177.048 212.046 177.048"/>
    <polygon fill="#48515A" points="216.046 175.048 220.046 175.048 220.046 173.048 216.046 173.048"/>
    <polygon fill="#48515A" points="206.046 175.048 210.046 175.048 210.046 173.048 206.046 173.048"/>
    <polygon fill="#48515A" points="42.945 174.05 44.945 174.05 44.945 170.05 42.945 170.05"/>
    <polygon fill="#48515A" points="42.945 184.05 44.945 184.05 44.945 180.05 42.945 180.05"/>
    <polygon fill="#48515A" points="46.945 178.05 50.945 178.05 50.945 176.05 46.945 176.05"/>
    <polygon fill="#48515A" points="36.945 178.05 40.945 178.05 40.945 176.05 36.945 176.05"/>
    <path fill="#F58E70" d="M169 49C170.105 49 171 49.895 171 51 171 52.105 170.105 53 169 53 167.895 53 167 52.105 167 51 167 49.895 167.895 49 169 49M206.02 101C206.572 101 207.02 101.448 207.02 102 207.02 102.552 206.572 103 206.02 103 205.468 103 205.02 102.552 205.02 102 205.02 101.448 205.468 101 206.02 101M35.02 79C36.125 79 37.02 79.895 37.02 81 37.02 82.105 36.125 83 35.02 83 33.916 83 33.02 82.105 33.02 81 33.02 79.895 33.916 79 35.02 79M179 201C180.105 201 181 201.895 181 203 181 204.105 180.105 205 179 205 177.895 205 177 204.105 177 203 177 201.895 177.895 201 179 201M31.02 143C32.125 143 33.02 143.895 33.02 145 33.02 146.105 32.125 147 31.02 147 29.916 147 29.02 146.105 29.02 145 29.02 143.895 29.916 143 31.02 143M58.02 191C58.572 191 59.02 191.448 59.02 192 59.02 192.552 58.572 193 58.02 193 57.468 193 57.02 192.552 57.02 192 57.02 191.448 57.468 191 58.02 191M76.02 209C76.573 209 77.02 209.448 77.02 210 77.02 210.552 76.573 211 76.02 211 75.468 211 75.02 210.552 75.02 210 75.02 209.448 75.468 209 76.02 209M124.02 123C125.124 123 126.02 123.895 126.02 125 126.02 126.105 125.124 127 124.02 127 122.915 127 122.02 126.105 122.02 125 122.02 123.895 122.915 123 124.02 123"/>
    <polygon fill="#48515A" points="123.019 137.011 125.019 137.011 125.019 130.027 123.019 130.027"/>
    <path fill="#48515A" d="M150.002,113 C143.927,113 139.002,117.924 139.002,124 C139.002,130.075 143.927,134.999 150.002,134.999 C156.077,134.999 161.002,130.075 161.002,124 C160.995,117.927 156.074,113.006 150.002,113 Z M150.002,136.999 C142.822,136.999 137.002,131.179 137.002,124 C137.002,116.82 142.822,111 150.002,111 C157.182,111 163.002,116.82 163.002,124 C162.994,131.176 157.178,136.992 150.002,136.999 Z"/>
    <polygon fill="#48515A" points="148.999 125 150.999 125 150.999 115 148.999 115"/>
    <path fill="#48515A" d="M99.972,113 C93.896,113 88.972,117.924 88.972,124 C88.972,130.075 93.896,134.999 99.972,134.999 C106.047,134.999 110.972,130.075 110.972,124 C110.965,117.927 106.044,113.006 99.972,113 Z M99.972,136.999 C92.792,136.999 86.972,131.179 86.972,124 C86.972,116.82 92.792,111 99.972,111 C107.151,111 112.972,116.82 112.972,124 C112.964,131.176 107.148,136.992 99.972,136.999 Z"/>
    <polygon fill="#48515A" points="98.969 125 100.969 125 100.969 115 98.969 115"/>
    <polygon fill="#48515A" points="117 155.001 131 155.001 131 153.001 117 153.001"/>
    <polyline fill="#48515A" points="64.192 76.92 59.243 71.971 71.971 59.243 76.92 64.192 75.506 65.606 71.971 62.071 62.071 71.971 65.606 75.506 64.192 76.92"/>
    <path fill="#48515A" d="M56.414,69.142 L59.243,71.971 L71.971,59.243 L69.142,56.414 L56.414,69.142 Z M59.243,74.799 L53.586,69.142 L69.142,53.586 L74.799,59.243 L59.243,74.799 Z"/>
    <polyline fill="#48515A" points="185.808 76.92 184.394 75.506 187.929 71.971 178.029 62.071 174.494 65.606 173.08 64.192 178.029 59.243 190.757 71.971 185.808 76.92"/>
    <path fill="#48515A" d="M178.029,59.243 L190.757,71.971 L193.586,69.142 L180.858,56.414 L178.029,59.243 Z M190.757,74.799 L175.201,59.243 L180.858,53.586 L196.414,69.142 L190.757,74.799 Z"/>
  </g>
</svg>
