<svg xmlns="http://www.w3.org/2000/svg" width="250" height="250" viewBox="0 0 250 250">
  <g fill="none" fill-rule="evenodd">
    <polygon fill="#5FE0ED" points="29 187 50 187 50 141 29 141"/>
    <path fill="#DEDEDD" d="M94.94,182 L94.937,182 L94.94,181.842 C97.106,181.885 98.896,180.165 98.939,177.999 C98.983,175.834 97.262,174.043 95.096,174 C95.044,173.999 94.992,173.999 94.94,174 L90.986,174 C93.18,174.016 94.949,175.803 94.94,177.997 C94.94,180.207 93.149,183 90.94,183 L82.945,183 C80.689,182.845 78.953,180.946 79,178.685 L79,178.687 C79.08,180.143 79.301,181.587 79.66,183 L69.483,183 C67.67,183.034 65.898,182.464 64.444,181.38 C63.3,180.491 61.893,180.005 60.443,180 L55,180 L55,184 L50,184 L50,186 L29,186 L29,202 L50,202 L50,199 L55,199 L55,195 L60.443,195 C61.866,195.013 63.248,195.481 64.387,196.336 C65.851,197.411 67.619,197.994 69.435,198 L90.94,198 C93.18,197.927 94.954,196.085 94.944,193.844 C94.875,192.42 94.159,191.104 93,190.273 L93,190 L94.94,190 C97.15,190 98.94,188.209 98.94,186 C98.94,183.791 97.15,182 94.94,182"/>
    <path fill="#5FE0ED" d="M126.003,86.011 C127.66,86.011 129.003,87.354 129.003,89.011 C129.003,90.668 127.66,92.011 126.003,92.011 C124.347,92.011 123.003,90.668 123.003,89.011 C123.003,87.354 124.347,86.011 126.003,86.011"/>
    <path fill="#FFD15D" d="M59.993,205 C61.098,205 61.993,205.895 61.993,207 C61.993,208.105 61.098,209 59.993,209 C58.889,209 57.993,208.105 57.993,207 C57.993,205.895 58.889,205 59.993,205"/>
    <polyline fill="#48515A" points="56 185 50 185 50 183 54 183 54 146 50 146 50 144 56 144 56 185"/>
    <path fill="#48515A" d="M46,181 C45.448,181 45,180.553 45,180.001 C45,180 45,180 45,180 L45,176 C45,175.448 45.448,175 46,175 C46.552,175 47,175.448 47,176 L47,180 C47,180.552 46.553,181 46.001,181 C46,181 46,181 46,181"/>
    <path fill="#48515A" d="M45.626 181.292C45.074 181.292 44.626 181.74 44.626 182.292 44.626 182.844 45.074 183.292 45.626 183.292 46.178 183.292 46.626 182.844 46.626 182.292 46.625 181.74 46.178 181.293 45.626 181.292zM45.626 185.292C43.969 185.292 42.626 183.949 42.626 182.292 42.626 180.635 43.969 179.292 45.626 179.292 47.283 179.292 48.626 180.635 48.626 182.292 48.624 183.948 47.282 185.29 45.626 185.292zM64.939 163.473C64.387 163.473 63.939 163.025 63.939 162.473 63.939 161.92 64.387 161.473 64.939 161.473 68.046 161.454 70.766 159.383 71.61 156.394L73.681 149 88.143 149C91.345 149.032 93.968 146.462 94 143.259 94 143.219 94 143.179 94 143.14L68.935 143.263C67.95 143.273 67.037 143.783 66.514 144.617L61.467 152 55.381 152C54.829 152 54.381 151.552 54.381 151 54.381 150.448 54.829 150 55.381 150L60.412 150 64.853 143.503C65.74 142.112 67.275 141.268 68.925 141.263L96 141.13 96 143.134C96.049 147.429 92.607 150.951 88.311 151 88.255 151.001 88.199 151.001 88.143 151L75.198 151 73.535 156.935C72.446 160.785 68.941 163.451 64.939 163.473M83 175C81.343 175 80 176.343 80 178 80 179.657 81.343 181 83 181L91 181C92.657 181 94 179.657 94 178 94 176.343 92.657 175 91 175L83 175zM91 183L83 183C80.239 183 78 180.761 78 178 78 175.239 80.239 173 83 173L91 173C93.761 173 96 175.239 96 178 96 180.761 93.761 183 91 183z"/>
    <path fill="#48515A" d="M83,167 C81.343,167 80,168.343 80,170 C80,171.657 81.343,173 83,173 L95,173 C96.657,173 98,171.657 98,170 C98,168.343 96.657,167 95,167 L83,167 Z M95,175 L83,175 C80.239,175 78,172.761 78,170 C78,167.239 80.239,165 83,165 L95,165 C97.761,165 100,167.239 100,170 C100,172.761 97.761,175 95,175 Z"/>
    <path fill="#48515A" d="M83,159 C81.343,159 80,160.343 80,162 C80,163.657 81.343,165 83,165 L95,165 C96.657,165 98,163.657 98,162 C98,160.343 96.657,159 95,159 L83,159 Z M95,167 L83,167 C80.239,167 78,164.761 78,162 C78,159.239 80.239,157 83,157 L95,157 C97.761,157 100,159.239 100,162 C100,164.761 97.761,167 95,167 Z"/>
    <path fill="#48515A" d="M83 151C81.343 151 80 152.343 80 154 80 155.657 81.343 157 83 157L95 157C96.657 157 98 155.657 98 154 98 152.343 96.657 151 95 151L83 151zM95 159L83 159C80.239 159 78 156.761 78 154 78 151.239 80.239 149 83 149L95 149C97.761 149 100 151.239 100 154 100 156.761 97.761 159 95 159zM68.651 183.002C67.134 183.14 65.615 182.76 64.341 181.925 63.179 181.196 61.809 180.871 60.443 181L54 181 54 179 60.443 179C62.241 178.863 64.034 179.329 65.538 180.322 66.463 181.013 67.657 181.006 69.038 181.001L83 181 83 183 69.048 183.001C68.916 183.002 68.784 183.002 68.651 183.002M69 137L101 137 101 111 69 111 69 137zM67 139L103 139 103 109 67 109 67 139z"/>
    <polyline fill="#48515A" points="162 163 156.782 163 101.569 138.666 102.376 136.835 157.204 161 160 161 160 87 157.205 87 102.378 111.288 101.567 109.459 156.781 85 162 85 162 163"/>
    <polygon fill="#48515A" points="72 115 98 115 98 113 72 113"/>
    <polygon fill="#48515A" points="74 143 76 143 76 138 74 138"/>
    <polyline fill="#48515A" points="79 173 74 173 74 151 76 151 76 171 79 171 79 173"/>
    <polygon fill="#48515A" points="86 142 88 142 88 138 86 138"/>
    <polyline fill="#48515A" points="68 134 58 134 58 115 67 115 67 117 60 117 60 132 68 132 68 134"/>
    <polyline fill="#DEDEDD" points="157.63 159 158 159 158 107.501 105 119.501 105 135.551 157.63 159"/>
    <path fill="#FFD15D" d="M103.475 96.501C104.304 96.501 104.975 97.172 104.975 98.001 104.975 98.829 104.304 99.501 103.475 99.501 102.647 99.501 101.975 98.829 101.975 98.001 101.975 97.172 102.647 96.501 103.475 96.501M162.859 60.553L164.953 64.796 169.636 65.477C170.499 65.602 171.098 66.404 170.972 67.267 170.922 67.611 170.76 67.929 170.511 68.171L167.123 71.475 167.923 76.138C168.07 76.998 167.493 77.815 166.633 77.962 166.29 78.021 165.938 77.965 165.631 77.804L161.442 75.602 157.254 77.804C156.481 78.21 155.526 77.913 155.12 77.141 154.959 76.833 154.903 76.481 154.962 76.138L155.761 71.475 152.373 68.171C151.748 67.562 151.735 66.562 152.344 65.938 152.587 65.689 152.904 65.527 153.248 65.477L157.931 64.796 160.026 60.553C160.412 59.771 161.359 59.449 162.141 59.836 162.453 59.989 162.705 60.241 162.859 60.553M160.047 171.039L161.326 173.631 164.187 174.047C164.714 174.123 165.08 174.613 165.003 175.141 164.973 175.35 164.874 175.545 164.722 175.693L162.652 177.711 163.14 180.56C163.23 181.085 162.878 181.584 162.352 181.674 162.143 181.71 161.928 181.676 161.74 181.577L159.181 180.232 156.622 181.577C156.151 181.825 155.567 181.644 155.319 181.172 155.22 180.984 155.186 180.769 155.222 180.56L155.711 177.711 153.641 175.693C153.259 175.321 153.251 174.71 153.623 174.328 153.771 174.176 153.965 174.077 154.175 174.047L157.036 173.631 158.316 171.039C158.552 170.561 159.13 170.364 159.608 170.6 159.799 170.694 159.953 170.848 160.047 171.039"/>
    <polyline fill="#FFF" points="142.48 186.604 117.014 175.69 128.135 202.62 132.531 193.779 139.907 201.156 142.48 198.583 134.993 191.096 142.48 186.604"/>
    <path fill="#48515A" d="M118.875 177.576L128.219 200.204 132.254 192.089 139.907 199.742 141.065 198.583 133.38 190.898 140.288 186.753 118.875 177.576zM128.051 205.035L115.154 173.805 144.671 186.455 136.604 191.295 143.894 198.583 139.907 202.57 132.807 195.47 128.051 205.035zM47.021 90C45.364 90 44.021 91.343 44.021 93 44.021 94.657 45.364 96 47.021 96L82.173 96 88.68 93 82.173 90 47.021 90zM82.612 98L47.021 98C44.259 98 42.02 95.761 42.02 93 42.02 90.239 44.259 88 47.021 88L82.612 88 93.455 93 82.612 98z"/>
    <polygon fill="#48515A" points="53 97 55 97 55 89 53 89"/>
    <polygon fill="#48515A" points="54 94 82 94 82 92 54 92"/>
    <polygon fill="#48515A" points="177.006 180.989 179.006 180.989 179.006 176.989 177.006 176.989"/>
    <polygon fill="#48515A" points="177.006 190.989 179.006 190.989 179.006 186.989 177.006 186.989"/>
    <polygon fill="#48515A" points="181.006 184.989 185.006 184.989 185.006 182.989 181.006 182.989"/>
    <polygon fill="#48515A" points="171.006 184.989 175.006 184.989 175.006 182.989 171.006 182.989"/>
    <polygon fill="#48515A" points="140.988 51 142.988 51 142.988 47 140.988 47"/>
    <polygon fill="#48515A" points="140.988 61 142.988 61 142.988 57 140.988 57"/>
    <polygon fill="#48515A" points="144.988 55 148.988 55 148.988 53 144.988 53"/>
    <polygon fill="#48515A" points="134.988 55 138.988 55 138.988 53 134.988 53"/>
    <path fill="#48515A" d="M115.886,68.563 L111.522,68.563 C110.658,68.562 109.957,67.862 109.956,66.997 L109.956,61.129 C109.957,60.265 110.658,59.564 111.522,59.564 L115.05,59.564 L115.05,61.563 L111.956,61.563 L111.956,66.563 L115.886,66.563 L115.886,68.563"/>
    <path fill="#48515A" d="M120.886,76.563 L116.636,76.563 L116.636,74.563 L118.886,74.563 L118.886,69.563 C118.885,69.011 118.438,68.564 117.886,68.563 L114.674,68.563 L113.982,59.039 C113.937,58.375 113.387,57.859 112.723,57.856 L105.696,57.856 L105.696,55.716 C105.696,55.643 105.636,55.584 105.563,55.584 L92.15,55.564 L92.149,55.564 C91.452,55.564 90.886,56.129 90.886,56.827 L90.886,74.563 L93.936,74.563 L93.936,76.563 L88.8859995,76.563 L88.886,56.827 C88.885,55.025 90.346,53.564 92.149,53.564 L92.153,53.564 L105.567,53.585 C106.743,53.588 107.694,54.541 107.696,55.716 L107.696,55.856 L112.724,55.856 C114.437,55.863 115.855,57.189 115.977,58.898 L116.533,66.563 L117.886,66.563 C119.542,66.565 120.884,67.907 120.886,69.563 L120.886,76.563"/>
    <polygon fill="#48515A" points="98.392 76.564 112.089 76.564 112.089 74.564 98.392 74.564"/>
    <path fill="#48515A" d="M96.363 73.609C95.548 73.609 94.886 74.27 94.886 75.086 94.885 75.901 95.547 76.563 96.362 76.563 97.178 76.563 97.84 75.902 97.84 75.086 97.839 74.271 97.178 73.61 96.363 73.609zM96.363 78.563C94.443 78.563 92.886 77.007 92.886 75.086 92.885 73.166 94.442 71.609 96.362 71.609 98.283 71.609 99.84 73.165 99.84 75.086 99.838 77.005 98.283 78.561 96.363 78.563zM114.374 73.609C113.558 73.609 112.897 74.27 112.896 75.086 112.896 75.901 113.557 76.563 114.373 76.563 115.189 76.563 115.85 75.902 115.851 75.086 115.849 74.271 115.189 73.61 114.374 73.609zM114.374 78.563C112.454 78.563 110.897 77.007 110.896 75.086 110.896 73.166 112.453 71.609 114.373 71.609 116.293 71.609 117.85 73.165 117.851 75.086 117.848 77.005 116.293 78.561 114.374 78.563z"/>
    <polygon fill="#48515A" points="105.696 75.563 107.696 75.563 107.696 56.856 105.696 56.856"/>
    <path fill="#FFD15D" d="M192.958,74.943 C191.562,74.943 190.43,73.811 190.43,72.415 C190.43,71.019 191.562,69.887 192.958,69.888 C194.354,69.888 195.485,71.019 195.485,72.415 C195.485,73.811 194.354,74.943 192.958,74.943 Z M192.958,60.711 C186.588,60.71 181.423,65.873 181.422,72.242 C181.422,74.268 181.955,76.258 182.968,78.012 L183.972,79.855 L183.985,79.877 C187.447,85.732 190.221,91.967 192.254,98.458 L192.956,100.711 L193.659,98.458 C195.661,91.971 198.405,85.737 201.836,79.88 L202.946,78.015 C206.133,72.5 204.246,65.445 198.731,62.258 C196.976,61.244 194.985,60.711 192.958,60.711 Z"/>
    <polygon fill="#F58E70" points="168.982 111.254 173.06 111.254 173.06 103.25 168.982 103.25"/>
    <polyline fill="#F58E70" points="202.052 105.759 202.052 111.254 208.052 111.254 208.052 105.749 202.052 105.759"/>
    <polygon fill="#F58E70" points="213.052 111.254 216.982 111.254 216.982 103.25 213.052 103.25"/>
    <polygon fill="#F58E70" points="178.059 111.254 184.059 111.254 184.059 105.749 178.059 105.749"/>
    <polyline fill="#F58E70" points="190.06 105.749 190.052 105.749 190.052 111.254 196.059 111.254 196.056 105.749 190.06 105.749"/>
    <path fill="#DEDEDD" d="M217.981,116.47 C216.527,116.262 213.982,115.015 213.982,113.503 C213.982,115.16 212.639,116.503 210.982,116.503 C209.325,116.503 207.982,115.16 207.982,113.503 C207.982,115.16 206.639,116.503 204.982,116.503 C203.325,116.503 201.982,115.16 201.982,113.503 C201.982,115.16 200.639,116.503 198.982,116.503 C197.325,116.503 195.982,115.16 195.982,113.503 C195.982,115.16 194.639,116.503 192.982,116.503 C191.325,116.503 189.982,115.16 189.982,113.503 C189.982,115.16 188.639,116.503 186.982,116.503 C185.325,116.503 183.982,115.16 183.982,113.503 C183.982,115.16 182.639,116.503 180.982,116.503 C179.325,116.503 177.982,115.16 177.982,113.503 C177.982,115.16 176.639,116.503 174.982,116.503 C173.325,116.503 171.982,115.16 171.982,113.503 C171.988,115.154 170.654,116.497 169.003,116.503 C168.742,116.504 168.482,116.471 168.23,116.405 L168.23,119.243 L217.981,119.243 L217.981,116.47"/>
    <polygon fill="#DEDEDD" points="172.482 136.508 198.471 136.508 198.471 133.254 172.482 133.254"/>
    <polygon fill="#48515A" points="216.981 143.259 218.981 143.259 218.981 115.502 216.981 115.502"/>
    <polygon fill="#48515A" points="166.981 143.259 168.981 143.259 168.981 115.502 166.981 115.502"/>
    <path fill="#48515A" d="M202.97 141.253L212.981 141.253 212.981 123.256 202.97 123.256 202.97 141.253zM200.97 143.253L214.981 143.253 214.981 121.256 200.97 121.256 200.97 143.253zM172.974 135.25L196.994 135.25 196.994 123.256 172.974 123.256 172.974 135.25zM170.974 137.25L198.994 137.25 198.994 121.256 170.974 121.256 170.974 137.25zM216.981 117.503C215.833 117.503 214.74 117.009 213.981 116.146 212.525 117.803 210 117.965 208.344 116.508 208.215 116.395 208.094 116.274 207.981 116.146 206.525 117.803 204 117.965 202.344 116.508 202.215 116.395 202.094 116.274 201.981 116.146 200.525 117.803 198 117.965 196.344 116.508 196.215 116.395 196.094 116.274 195.981 116.146 194.525 117.803 192 117.965 190.344 116.508 190.215 116.395 190.094 116.274 189.981 116.146 188.525 117.803 186 117.965 184.344 116.508 184.215 116.395 184.094 116.274 183.981 116.146 182.525 117.803 180 117.965 178.344 116.508 178.215 116.395 178.094 116.274 177.981 116.146 176.525 117.803 174 117.965 172.344 116.508 172.215 116.395 172.094 116.274 171.981 116.146 170.523 117.804 167.996 117.965 166.338 116.506 165.475 115.747 164.981 114.653 164.981 113.503L164.981 99.25 172.982 99.25 172.982 101.25 166.981 101.25 166.981 113.503C166.981 114.608 167.877 115.503 168.981 115.503 170.086 115.503 170.981 114.608 170.981 113.503L172.981 113.503C172.981 114.608 173.877 115.503 174.981 115.503 176.086 115.503 176.981 114.608 176.981 113.503L178.981 113.503C178.981 114.608 179.877 115.503 180.981 115.503 182.086 115.503 182.981 114.608 182.981 113.503L184.981 113.503C184.981 114.608 185.877 115.503 186.981 115.503 188.086 115.503 188.981 114.608 188.981 113.503L190.981 113.503C190.981 114.608 191.877 115.503 192.981 115.503 194.086 115.503 194.981 114.608 194.981 113.503L196.981 113.503C196.981 114.608 197.877 115.503 198.981 115.503 200.086 115.503 200.981 114.608 200.981 113.503L202.981 113.503C202.981 114.608 203.877 115.503 204.981 115.503 206.086 115.503 206.981 114.608 206.981 113.503L208.981 113.503C208.981 114.608 209.877 115.503 210.981 115.503 212.086 115.503 212.981 114.608 212.981 113.503L214.981 113.503C214.981 114.608 215.877 115.503 216.981 115.503 218.086 115.503 218.981 114.608 218.981 113.503L218.981 101.25 213.056 101.25 213.056 99.25 220.981 99.25 220.981 113.503C220.979 115.711 219.19 117.501 216.981 117.503"/>
    <path fill="#48515A" d="M176.982,104.249 L208.981,104.249 L208.981,93.25 L176.982,93.25 L176.982,104.249 Z M174.982,106.249 L210.981,106.249 L210.981,91.25 L174.982,91.25 L174.982,106.249 Z"/>
    <polygon fill="#5FE0ED" points="204.982 133.254 210.982 133.254 210.982 129.254 204.982 129.254"/>
    <polygon fill="#48515A" points="206.981 129.254 208.981 129.254 208.981 125.254 206.981 125.254"/>
    <polyline fill="#FFD15D" points="188.975 150.986 178.975 162.989 188.975 174.991 211.981 174.991 211.981 150.986 188.975 150.986"/>
    <path fill="#48515A" d="M196.981 167.098C196.429 167.098 195.981 167.546 195.981 168.098 195.981 168.65 196.429 169.098 196.981 169.098 197.534 169.098 197.981 168.65 197.981 168.098 197.981 167.546 197.533 167.099 196.981 167.098zM196.981 171.098C195.325 171.098 193.981 169.755 193.981 168.098 193.981 166.441 195.325 165.098 196.981 165.098 198.638 165.098 199.981 166.441 199.981 168.098 199.98 169.754 198.637 171.096 196.981 171.098zM204.981 157.098C204.429 157.098 203.981 157.546 203.981 158.098 203.981 158.65 204.429 159.098 204.981 159.098 205.534 159.098 205.981 158.65 205.981 158.098 205.981 157.546 205.533 157.099 204.981 157.098zM204.981 161.098C203.325 161.098 201.981 159.755 201.981 158.098 201.981 156.441 203.325 155.098 204.981 155.098 206.638 155.098 207.981 156.441 207.981 158.098 207.98 159.754 206.637 161.096 204.981 161.098z"/>
    <polyline fill="#48515A" points="194.222 156.749 195.74 155.448 207.74 169.448 206.222 170.749 194.222 156.749"/>
  </g>
</svg>
