<svg xmlns="http://www.w3.org/2000/svg" width="250" height="250" viewBox="0 0 250 250">
  <g fill="none" fill-rule="evenodd">
    <path fill="#DEDEDD" d="M140.577,51.489 L140.577,51.493 L140.575,51.489 C140.575,49.28 138.784,47.489 136.575,47.489 C134.366,47.489 132.575,49.28 132.575,51.489 L132.575,55.443 C132.6,53.256 134.377,51.489 136.57,51.489 C138.779,51.489 140.57,53.28 140.57,55.489 L140.57,63.485 C140.57,65.693 138.781,67.483 136.572,67.484 C136.573,67.484 136.574,67.485 136.574,67.485 C137.423,67.485 139.425,67.22 141.57,66.77 L141.57,76.947 C141.57,78.754 141.068,80.561 139.957,81.986 C139.072,83.121 138.583,84.548 138.583,85.987 L138.583,92.252 L143.368,92.252 L143.368,106.811 L146.367,106.811 L146.367,191.489 L161.376,191.489 L161.376,106.811 L158.377,106.811 L158.377,93.804 L153.592,93.804 L153.592,85.987 C153.592,84.562 154.076,83.191 154.921,82.043 C155.991,80.59 156.579,78.799 156.579,76.994 L156.579,56.437 C156.579,56.43 156.578,56.425 156.577,56.419 L156.577,55.489 C156.577,53.28 154.787,51.489 152.577,51.489 C151.122,51.489 149.861,52.275 149.161,53.437 L148.577,53.437 L148.577,51.489 C148.577,49.28 146.787,47.489 144.577,47.489 C142.368,47.489 140.577,49.28 140.577,51.489"/>
    <polyline fill="#48515A" points="144.181 102.252 142.181 102.252 142.181 92.771 107.918 92.771 107.918 102.252 105.918 102.252 105.918 90.771 144.181 90.771 144.181 102.252"/>
    <path fill="#48515A" d="M110.323,92.771 C109.781,92.771 109.336,92.339 109.324,91.794 L109.188,86.039 L102.407,81.587 C101.004,80.666 100.161,79.114 100.151,77.435 L100.019,50.288 L102.022,50.288 C106.433,50.288 110.022,53.876 110.022,58.288 L110.022,71.234 L115.893,72.895 C119.721,73.977 122.395,77.513 122.395,81.491 C122.395,82.043 121.947,82.491 121.395,82.491 C120.842,82.491 120.395,82.043 120.395,81.491 C120.395,78.403 118.32,75.66 115.349,74.819 L108.022,72.747 L108.022,58.288 C108.022,54.981 105.333,52.291 102.028,52.288 L102.151,77.424 C102.157,78.431 102.663,79.363 103.505,79.915 L111.162,84.943 L111.323,91.748 C111.336,92.299 110.899,92.758 110.347,92.77 C110.339,92.771 110.331,92.771 110.323,92.771"/>
    <path fill="#475059" d="M137.382,52.489 C135.728,52.489 134.382,53.835 134.382,55.489 L134.382,63.484 C134.382,65.139 135.728,66.485 137.382,66.485 C139.036,66.485 140.382,65.139 140.382,63.484 L140.382,55.489 C140.382,53.835 139.036,52.489 137.382,52.489 Z M137.382,68.485 C134.625,68.485 132.382,66.242 132.382,63.484 L132.382,55.489 C132.382,52.732 134.625,50.489 137.382,50.489 C140.139,50.489 142.382,52.732 142.382,55.489 L142.382,63.484 C142.382,66.242 140.139,68.485 137.382,68.485 Z"/>
    <path fill="#475059" d="M129.382,48.489 C127.728,48.489 126.383,49.835 126.383,51.489 L126.383,63.484 C126.383,65.139 127.728,66.485 129.382,66.485 C131.036,66.485 132.382,65.139 132.382,63.484 L132.382,51.489 C132.382,49.835 131.036,48.489 129.382,48.489 Z M129.382,68.485 C126.625,68.485 124.382,66.242 124.382,63.484 L124.382,51.489 C124.382,48.732 126.625,46.489 129.382,46.489 C132.139,46.489 134.382,48.732 134.382,51.489 L134.382,63.484 C134.382,66.242 132.139,68.485 129.382,68.485 Z"/>
    <path fill="#475059" d="M121.382,48.489 C119.728,48.489 118.382,49.835 118.382,51.489 L118.382,63.484 C118.382,65.139 119.728,66.485 121.382,66.485 C123.037,66.485 124.382,65.139 124.382,63.484 L124.382,51.489 C124.382,49.835 123.037,48.489 121.382,48.489 Z M121.382,68.485 C118.625,68.485 116.382,66.242 116.382,63.484 L116.382,51.489 C116.382,48.732 118.625,46.489 121.382,46.489 C124.139,46.489 126.383,48.732 126.383,51.489 L126.383,63.484 C126.383,66.242 124.139,68.485 121.382,68.485 Z"/>
    <path fill="#475059" d="M113.382 48.489C111.728 48.489 110.382 49.835 110.382 51.489L110.382 63.484C110.382 65.139 111.728 66.485 113.382 66.485 115.037 66.485 116.382 65.139 116.382 63.484L116.382 51.489C116.382 49.835 115.037 48.489 113.382 48.489zM113.382 68.485C110.625 68.485 108.382 66.242 108.382 63.484L108.382 51.489C108.382 48.732 110.625 46.489 113.382 46.489 116.139 46.489 118.382 48.732 118.382 51.489L118.382 63.484C118.382 66.242 116.139 68.485 113.382 68.485zM139.395 92.45L137.395 92.45 137.395 85.987C137.395 84.163 137.996 82.354 139.088 80.892 139.922 79.775 140.382 78.391 140.382 76.995L140.382 63.484 142.382 63.484 142.382 76.995C142.382 78.819 141.781 80.628 140.689 82.089 139.854 83.207 139.395 84.592 139.395 85.987L139.395 92.45"/>
    <polyline fill="#475059" points="44.114 67.259 44.079 65.259 101.074 64.259 101.109 66.259 44.114 67.259"/>
    <polyline fill="#475059" points="101.006 72.26 44.079 71.259 44.114 69.259 101.041 70.26 101.006 72.26"/>
    <path fill="#FFD15D" d="M40.081,68.264 C40.081,69.921 38.737,71.264 37.081,71.264 C35.424,71.264 34.081,69.921 34.081,68.264 C34.081,66.607 35.424,65.264 37.081,65.264 C38.737,65.264 40.081,66.607 40.081,68.264"/>
    <path fill="#FFD15D" d="M37.081,66.264 C35.978,66.264 35.081,67.161 35.081,68.264 C35.081,69.367 35.978,70.264 37.081,70.264 C38.184,70.264 39.081,69.367 39.081,68.264 C39.081,67.161 38.184,66.264 37.081,66.264 Z M37.081,72.264 C34.875,72.264 33.081,70.469 33.081,68.264 C33.081,66.058 34.875,64.264 37.081,64.264 C39.286,64.264 41.081,66.058 41.081,68.264 C41.081,70.469 39.286,72.264 37.081,72.264 Z"/>
    <path fill="#475059" d="M37.081,62.264 C33.772,62.264 31.081,64.955 31.081,68.264 C31.081,71.572 33.772,74.264 37.081,74.264 C40.389,74.264 43.081,71.572 43.081,68.264 C43.081,64.955 40.389,62.264 37.081,62.264 Z M37.081,76.264 C32.669,76.264 29.081,72.675 29.081,68.264 C29.081,63.852 32.669,60.264 37.081,60.264 C41.492,60.264 45.081,63.852 45.081,68.264 C45.081,72.675 41.492,76.264 37.081,76.264 Z"/>
    <polyline fill="#475059" points="206.132 67.259 149.135 66.259 141.088 66.259 141.088 64.259 149.152 64.259 206.167 65.259 206.132 67.259"/>
    <polyline fill="#475059" points="109.382 72.226 109.382 70.226 150.951 70.226 206.132 69.259 206.167 71.259 150.969 72.226 109.382 72.226"/>
    <path fill="#FFD15D" d="M210.165,68.264 C210.165,69.921 211.508,71.264 213.165,71.264 C214.821,71.264 216.165,69.921 216.165,68.264 C216.165,66.607 214.821,65.264 213.165,65.264 C211.508,65.264 210.165,66.607 210.165,68.264"/>
    <path fill="#FFD15D" d="M213.165,66.264 C212.063,66.264 211.165,67.161 211.165,68.264 C211.165,69.367 212.063,70.264 213.165,70.264 C213.699,70.264 214.201,70.056 214.579,69.678 C214.957,69.3 215.164,68.798 215.164,68.264 C215.164,67.729 214.957,67.227 214.579,66.85 C214.201,66.472 213.699,66.264 213.165,66.264 Z M213.165,72.264 C210.959,72.264 209.165,70.469 209.165,68.264 C209.165,66.058 210.959,64.264 213.165,64.264 C214.233,64.264 215.237,64.68 215.993,65.436 C216.749,66.191 217.165,67.196 217.164,68.264 C217.165,69.331 216.749,70.336 215.993,71.092 C215.237,71.848 214.233,72.264 213.165,72.264 Z"/>
    <path fill="#475059" d="M213.165,62.264 C209.856,62.264 207.165,64.955 207.165,68.264 C207.165,71.572 209.856,74.264 213.165,74.264 C214.768,74.264 216.274,73.64 217.407,72.506 C218.541,71.373 219.164,69.866 219.164,68.264 C219.164,66.661 218.541,65.154 217.407,64.021 C216.274,62.888 214.768,62.264 213.165,62.264 Z M213.165,76.264 C208.754,76.264 205.165,72.675 205.165,68.264 C205.165,63.852 208.754,60.264 213.165,60.264 C215.302,60.264 217.311,61.096 218.821,62.607 C220.333,64.118 221.165,66.127 221.164,68.264 C221.165,70.4 220.333,72.41 218.821,73.92 C217.311,75.432 215.302,76.264 213.165,76.264 Z"/>
    <polygon fill="#5FE0ED" points="105.919 191.489 147.179 191.489 147.179 100.252 105.919 100.252"/>
    <path fill="#48515A" d="M139.181,107.252 L135.182,107.252 C134.629,107.252 134.182,106.805 134.182,106.252 C134.182,105.7 134.629,105.252 135.182,105.252 L139.181,105.252 C139.733,105.252 140.181,105.7 140.181,106.252 C140.181,106.805 139.733,107.252 139.181,107.252"/>
    <path fill="#48515A" d="M141.181,105.252 C140.629,105.252 140.181,105.701 140.181,106.252 C140.181,106.804 140.629,107.252 141.181,107.252 C141.732,107.252 142.181,106.804 142.181,106.252 C142.181,105.701 141.732,105.252 141.181,105.252 Z M141.181,109.252 C139.526,109.252 138.181,107.907 138.181,106.252 C138.181,104.598 139.526,103.252 141.181,103.252 C142.835,103.252 144.181,104.598 144.181,106.252 C144.181,107.907 142.835,109.252 141.181,109.252 Z"/>
    <path fill="#475059" d="M37.836,163.25 L75.836,163.25 L75.836,159.247 C75.836,155.175 78.895,151.803 82.836,151.31 L82.836,149.247 L30.836,149.247 L30.836,151.31 C34.777,151.803 37.836,155.175 37.836,159.247 L37.836,163.25 Z M77.836,165.25 L35.836,165.25 L35.836,159.247 C35.836,155.938 33.145,153.247 29.837,153.247 L28.837,153.247 L28.836,147.247 L84.836,147.247 L84.836,153.247 L83.836,153.247 C80.528,153.247 77.836,155.938 77.836,159.247 L77.836,165.25 Z"/>
    <polyline fill="#475059" points="80.918 140.252 78.917 140.252 78.917 139.379 61.337 70.828 63.274 70.331 80.918 139.127 80.918 140.252"/>
    <path fill="#FFD15D" d="M39.836,161.25 L73.836,161.25 L73.836,159.246 C73.836,155.979 75.411,153.074 77.842,151.247 L35.83,151.247 C38.261,153.074 39.836,155.979 39.836,159.246 L39.836,161.25"/>
    <path fill="#475059" d="M43.918,167.252 L69.918,167.252 L69.918,165.252 L43.918,165.252 L43.918,167.252 Z M41.918,169.252 L71.918,169.252 L71.918,163.252 L41.918,163.252 L41.918,169.252 Z"/>
    <polyline fill="#475059" points="34.916 140.244 32.916 140.244 32.953 138.974 55.078 60.264 60.605 60.264 62.048 65.706 60.115 66.219 59.066 62.264 56.594 62.264 34.916 139.382 34.916 140.244"/>
    <polygon fill="#475059" points="32.918 148.252 34.918 148.252 34.918 142.252 32.918 142.252"/>
    <polygon fill="#475059" points="79.001 148.252 81.001 148.252 81.001 142.26 79.001 142.26"/>
    <path fill="#475059" d="M173.918,163.25 L211.918,163.25 L211.918,159.247 C211.918,155.175 214.977,151.803 218.917,151.31 L218.917,149.247 L166.917,149.247 L166.917,151.31 C170.858,151.803 173.918,155.174 173.918,159.247 L173.918,163.25 Z M213.918,165.25 L171.918,165.25 L171.918,159.247 C171.918,155.938 169.227,153.247 165.919,153.247 L164.919,153.247 L164.916,147.247 L220.917,147.247 L220.917,153.247 L219.917,153.247 C216.609,153.247 213.918,155.938 213.918,159.247 L213.918,165.25 Z"/>
    <polyline fill="#475059" points="216.999 140.252 214.999 140.252 214.999 139.379 197.418 70.828 199.355 70.331 216.999 139.127 216.999 140.252"/>
    <path fill="#FFD15D" d="M175.918,161.25 L209.918,161.25 L209.918,159.246 C209.918,155.979 211.493,153.074 213.924,151.247 L171.912,151.247 C174.343,153.074 175.918,155.979 175.918,159.246 L175.918,161.25"/>
    <path fill="#475059" d="M180,167.252 L206,167.252 L206,165.252 L180,165.252 L180,167.252 Z M178,169.252 L208,169.252 L208,163.252 L178,163.252 L178,169.252 Z"/>
    <polyline fill="#475059" points="170.998 140.244 168.998 140.244 169.035 138.974 191.159 60.264 196.687 60.264 198.13 65.706 196.196 66.219 195.147 62.264 192.675 62.264 170.998 139.382 170.998 140.244"/>
    <polygon fill="#475059" points="168.999 148.252 170.999 148.252 170.999 142.252 168.999 142.252"/>
    <polygon fill="#475059" points="215.083 148.252 217.083 148.252 217.083 142.26 215.083 142.26"/>
    <polygon fill="#48515A" points="86.986 171.236 88.986 171.236 88.986 167.236 86.986 167.236"/>
    <polygon fill="#48515A" points="86.986 181.236 88.986 181.236 88.986 177.236 86.986 177.236"/>
    <polygon fill="#48515A" points="90.986 175.236 94.986 175.236 94.986 173.236 90.986 173.236"/>
    <polygon fill="#48515A" points="80.986 175.236 84.986 175.236 84.986 173.236 80.986 173.236"/>
    <path fill="#FFD15D" d="M79.917,89.93 C79.917,91.322 78.789,92.45 77.397,92.45 C76.006,92.45 74.878,91.322 74.878,89.93 C74.878,88.538 76.006,87.41 77.397,87.41 C78.789,87.41 79.917,88.538 79.917,89.93"/>
    <path fill="#5FE0ED" d="M183.58,181.802 C183.58,180.604 184.551,179.633 185.749,179.633 C186.947,179.633 187.918,180.604 187.918,181.802 C187.918,183 186.947,183.971 185.749,183.971 C184.551,183.971 183.58,183 183.58,181.802"/>
    <path fill="#475059" d="M191.965,141.387 L203.965,141.387 L203.965,121.387 L191.965,121.387 L191.965,141.387 Z M189.965,143.387 L205.965,143.387 L205.965,119.387 L189.965,119.387 L189.965,143.387 Z"/>
    <polyline fill="#475059" points="190.965 139.387 185.965 139.387 185.965 115.387 201.965 115.387 201.965 120.387 199.965 120.387 199.965 117.387 187.965 117.387 187.965 137.387 190.965 137.387 190.965 139.387"/>
    <polyline fill="#475059" points="186.965 135.387 181.965 135.387 181.965 111.387 197.965 111.387 197.965 116.387 195.965 116.387 195.965 113.387 183.965 113.387 183.965 133.387 186.965 133.387 186.965 135.387"/>
    <path fill="#48515A" d="M54.036,139.478 C54.21,139.478 54.385,139.491 54.562,139.52 C55.949,139.741 56.986,140.78 57.204,142.168 L57.346,143.069 L58.819,142.838 L58.677,141.936 C58.459,140.548 59.127,139.241 60.379,138.604 C61.63,137.971 63.081,138.201 64.072,139.194 L64.717,139.841 L65.772,138.787 L65.127,138.141 C64.136,137.146 63.907,135.696 64.546,134.446 C65.185,133.195 66.493,132.53 67.881,132.752 L68.783,132.896 L69.018,131.423 L68.116,131.279 C66.729,131.059 65.691,130.019 65.474,128.631 C65.255,127.244 65.924,125.937 67.176,125.301 L67.989,124.887 L67.34,123.61 L66.526,124.023 C65.274,124.66 63.824,124.429 62.832,123.434 C61.84,122.44 61.612,120.99 62.251,119.739 L62.667,118.926 L61.339,118.249 L60.923,119.062 C60.284,120.313 58.977,120.977 57.588,120.757 C56.202,120.535 55.165,119.496 54.947,118.109 L54.805,117.207 L53.332,117.439 L53.474,118.341 C53.692,119.728 53.024,121.036 51.772,121.672 C50.521,122.31 49.07,122.077 48.079,121.083 L47.434,120.437 L46.378,121.49 L47.023,122.136 C48.015,123.13 48.244,124.581 47.605,125.831 C46.966,127.081 45.657,127.746 44.27,127.525 L43.369,127.382 L43.134,128.854 L44.036,128.999 C45.422,129.22 46.459,130.259 46.678,131.646 C46.896,133.033 46.229,134.341 44.976,134.977 L44.163,135.391 L44.811,136.666 L45.625,136.252 C46.878,135.617 48.326,135.849 49.319,136.842 C50.311,137.836 50.539,139.286 49.9,140.536 L49.484,141.35 L50.812,142.027 L51.228,141.214 C51.785,140.123 52.852,139.478 54.036,139.478 Z M55.681,145.356 L55.229,142.479 C55.104,141.691 54.446,141.526 54.247,141.495 C54.049,141.461 53.371,141.414 53.009,142.124 L51.683,144.719 L46.793,142.221 L48.119,139.626 C48.481,138.917 48.045,138.396 47.903,138.254 C47.761,138.112 47.24,137.675 46.531,138.035 L43.934,139.355 L41.473,134.514 L44.07,133.193 C44.781,132.833 44.733,132.155 44.702,131.957 C44.671,131.758 44.508,131.099 43.721,130.974 L40.844,130.515 L41.708,125.092 L44.585,125.551 C45.372,125.67 45.732,125.101 45.824,124.921 C45.915,124.742 46.17,124.113 45.607,123.549 L43.55,121.487 L47.437,117.608 L49.495,119.67 C50.057,120.234 50.687,119.981 50.866,119.889 C51.045,119.798 51.622,119.438 51.498,118.651 L51.045,115.774 L56.469,114.92 L56.922,117.798 C57.046,118.585 57.705,118.75 57.903,118.782 C58.103,118.812 58.779,118.862 59.142,118.152 L60.467,115.557 L65.357,118.055 L64.032,120.649 C63.67,121.359 64.106,121.879 64.248,122.021 C64.391,122.165 64.908,122.602 65.62,122.24 L68.217,120.92 L70.679,125.764 L68.081,127.084 C67.371,127.444 67.418,128.122 67.449,128.32 C67.48,128.52 67.644,129.179 68.431,129.305 L71.308,129.763 L70.443,135.185 L67.566,134.727 C66.78,134.604 66.419,135.177 66.327,135.356 C66.236,135.535 65.98,136.164 66.544,136.729 L68.601,138.791 L64.714,142.669 L62.656,140.606 C62.094,140.043 61.465,140.297 61.285,140.388 C61.105,140.479 60.529,140.838 60.652,141.625 L61.105,144.502 L55.681,145.356 Z"/>
    <path fill="#F58E70" d="M56.076,128.753 C55.706,128.753 55.358,128.897 55.097,129.159 C54.835,129.421 54.691,129.769 54.691,130.139 C54.691,130.508 54.835,130.855 55.096,131.116 C55.621,131.642 56.532,131.641 57.055,131.117 C57.316,130.855 57.46,130.508 57.46,130.139 C57.46,129.769 57.316,129.421 57.055,129.159 C56.794,128.897 56.445,128.753 56.076,128.753 Z M56.076,134.522 C54.904,134.522 53.803,134.066 52.975,133.238 C52.147,132.411 51.691,131.31 51.691,130.139 C51.691,128.967 52.147,127.865 52.976,127.037 C53.803,126.21 54.904,125.753 56.076,125.753 C57.247,125.753 58.348,126.21 59.176,127.038 C60.004,127.866 60.46,128.967 60.46,130.139 C60.46,131.31 60.004,132.411 59.176,133.238 C58.348,134.066 57.247,134.522 56.076,134.522 Z"/>
    <path fill="#475059" d="M170.904,199.631 L181.78,201.442 L194.906,195.816 L194.906,195.137 L181.78,189.511 L170.904,191.323 L170.904,199.631 Z M182.03,203.511 L168.904,201.326 L168.904,189.628 L182.03,187.442 L196.906,193.818 L196.906,197.135 L182.03,203.511 Z"/>
    <polygon fill="#475059" points="179.905 196.477 195.906 196.477 195.906 194.477 179.905 194.477"/>
    <path fill="#475059" d="M126.882,199.476 L168.904,199.476 L168.904,191.479 L126.882,191.479 L126.882,199.476 Z M124.881,201.476 L170.904,201.476 L170.904,189.479 L124.881,189.479 L124.881,201.476 Z"/>
    <path fill="#475059" d="M126.015,201.478 L68.911,201.478 C65.603,201.478 62.911,198.786 62.911,195.479 C62.911,192.17 65.603,189.478 68.911,189.478 L125.89,189.478 L125.89,191.478 L68.911,191.478 C66.706,191.478 64.911,193.271 64.911,195.478 C64.911,197.684 66.706,199.478 68.911,199.478 L126.015,199.478 L126.015,201.478"/>
  </g>
</svg>
