<svg xmlns="http://www.w3.org/2000/svg" width="250" height="250" viewBox="0 0 250 250">
  <g fill="none" fill-rule="evenodd">
    <polyline fill="#DEDEDD" points="103.182 150.355 103.182 167.069 107.967 167.069 111.393 165.129 111.331 164.901 120.41 160.024 129.254 164.414 129.15 164.87 133.115 167.069 138.001 167.069 138.002 150.355 138.001 167.069 179.304 167.069 178.619 162.439 137.876 150.183 103.273 150.183 63.034 162.392 62.383 167.069 103.182 167.069 103.182 150.355"/>
    <path fill="#475059" d="M195.577 170.15L209.577 170.15 209.577 168.15 195.577 168.15 195.577 170.15zM193.577 172.15L211.577 172.15 211.577 166.15 193.577 166.15 193.577 172.15zM199.15 158.15L207.247 158.15 207.247 156.15 205.302 156.15 205.302 144.15 207.247 144.15 207.247 142.15 199.15 142.15 199.15 144.15 201.247 144.15 201.247 156.15 199.15 156.15 199.15 158.15zM209.247 160.15L197.15 160.15 197.15 154.15 199.247 154.15 199.247 146.15 197.15 146.15 197.15 140.15 209.247 140.15 209.247 146.15 207.302 146.15 207.302 154.15 209.247 154.15 209.247 160.15z"/>
    <polygon fill="#475059" points="200.247 146.15 206.302 146.15 206.302 144.15 200.247 144.15"/>
    <polygon fill="#475059" points="200.247 156.15 206.302 156.15 206.302 154.15 200.247 154.15"/>
    <polygon fill="#475059" points="179.578 151.151 199.578 151.151 199.578 149.151 179.578 149.151"/>
    <polyline fill="#F58E70" points="129.254 164.414 125.588 180.466 132.849 219.994 108.335 219.994 115.517 180.466 111.331 164.901 120.41 160.025 129.254 164.414"/>
    <path fill="#475059" d="M56.167,218.995 L185.975,218.995 L177.723,163.213 L137.729,151.183 L103.421,151.183 L63.936,163.164 L56.167,218.995 Z M188.293,220.995 L53.869,220.995 L62.132,161.621 L103.273,149.183 L138.023,149.183 L138.164,149.225 L179.516,161.665 L188.293,220.995 Z"/>
    <polyline fill="#475059" points="102.182 171.493 102.182 150.355 104.182 150.355 104.182 168.063 120.405 158.878 137.002 168.08 137.002 150.355 139.002 150.355 139.002 171.476 120.414 161.171 102.182 171.493"/>
    <path fill="#FFD15D" d="M179.223 60.483L179.223 132.775 132.293 132.775C130.015 132.775 128.168 134.621 128.168 136.9L180.723 136.9 180.723 136.15 185.223 136.15 185.223 60.483 179.223 60.483M112.543 136.9C112.543 134.621 110.697 132.775 108.418 132.775L62.401 132.775 62.401 60.483 56.401 60.483 56.401 136.15 60.901 136.15 60.901 136.9 112.543 136.9"/>
    <path fill="#475059" d="M117.413029,140.15 L115.413,140.15 L115.413,137.139 C115.418,135.271 114.693,133.512 113.372,132.185 C112.051,130.859 110.296,130.125 108.429,130.122 L61.412,129.963 L61.419,127.963 L108.435,128.122 C110.835,128.126 113.092,129.069 114.789,130.774 C116.487,132.48 117.419,134.741 117.413,137.141 L117.413029,140.15"/>
    <path fill="#475059" d="M113.418 137.051L111.418 137.051C111.418 135.397 110.073 134.051 108.418 134.051L61.402 134.051 61.402 132.051 108.418 132.051C111.175 132.051 113.418 134.294 113.418 137.051M125.418 140.151L123.418 140.149 123.423 137.138C123.417 134.741 124.349 132.48 126.047 130.774 127.745 129.069 130.002 128.126 132.402 128.122L180.326 128.053 180.329 130.053 132.406 130.122C128.547 130.13 125.414 133.277 125.423 137.137L125.418 140.151"/>
    <path fill="#475059" d="M129.418,137.051 L127.418,137.051 C127.418,134.294 129.661,132.051 132.418,132.051 L180.327,132.051 L180.327,134.051 L132.418,134.051 C130.764,134.051 129.418,135.397 129.418,137.051"/>
    <path fill="#475059" d="M120.352,141.54 C120.351,141.54 120.351,141.54 120.35,141.54 C117.275,141.539 114.345,140.273 112.24,138.051 L55.399,138.051 L55.401,59.473 L62.401,59.473 L62.401,61.473 L57.401,61.473 L57.399,136.051 L113.136,136.051 L113.435,136.394 C115.178,138.393 117.699,139.54 120.35,139.54 C120.351,139.54 120.351,139.54 120.352,139.54 C123.006,139.54 125.528,138.393 127.273,136.394 L127.572,136.051 L184.347,136.051 L184.347,61.473 L179.347,61.473 L179.347,59.473 L186.347,59.473 L186.347,138.051 L128.468,138.051 C126.361,140.274 123.428,141.54 120.352,141.54"/>
    <path fill="#475059" d="M63.387,124.139 L108.418,124.139 C113.815,124.139 118.455,127.446 120.418,132.139 C122.381,127.446 127.021,124.139 132.418,124.139 L178.361,124.139 L178.361,54.473 L132.418,54.473 C126.353,54.473 121.418,59.408 121.418,65.473 L119.418,65.473 C119.418,59.408 114.484,54.473 108.418,54.473 L63.387,54.473 L63.387,124.139 Z M121.418,137.139 L119.418,137.139 C119.418,131.074 114.484,126.139 108.418,126.139 L61.388,126.139 L61.388,52.473 L108.418,52.473 C113.815,52.473 118.455,55.78 120.418,60.473 C122.381,55.78 127.021,52.473 132.418,52.473 L180.361,52.473 L180.361,126.139 L132.418,126.139 C126.353,126.139 121.418,131.074 121.418,137.139 Z"/>
    <polygon fill="#475059" points="119.418 133.139 121.418 133.139 121.418 65.473 119.418 65.473"/>
    <path fill="#475059" d="M121.396,135.201 L119.396,135.201 C119.396,126.238 113.331,118.426 104.647,116.205 L76.396,108.978 L76.396,32.914 L105.143,40.267 C114.713,42.715 121.396,51.323 121.396,61.201 L119.396,61.201 C119.396,52.238 113.331,44.426 104.647,42.205 L78.396,35.49 L78.396,107.425 L105.143,114.267 C114.713,116.715 121.396,125.323 121.396,135.201"/>
    <path fill="#475059" d="M121.397,135.201 L119.397,135.201 C119.397,125.323 126.08,116.715 135.65,114.267 L162.397,107.425 L162.397,35.49 L136.146,42.205 C127.462,44.426 121.397,52.238 121.397,61.201 L119.397,61.201 C119.397,51.323 126.08,42.715 135.65,40.267 L164.397,32.914 L164.397,108.978 L136.146,116.205 C127.462,118.426 121.397,126.238 121.397,135.201"/>
    <path fill="#475059" d="M143.841,87.771 L150.347,90.77 L203.51,90.768 C205.164,90.768 206.51,89.422 206.51,87.768 C206.51,86.114 205.164,84.768 203.51,84.768 L150.347,84.77 L143.841,87.771 Z M149.908,92.77 L139.065,87.771 L149.907,82.77 L203.51,82.768 C206.267,82.768 208.51,85.011 208.51,87.768 C208.51,90.525 206.267,92.768 203.51,92.768 L149.908,92.77 Z"/>
    <polyline fill="#475059" points="195.901 91.367 195.9 83.769 197.9 83.769 197.901 91.367 195.901 91.367"/>
    <polyline fill="#475059" points="150.896 88.799 150.896 86.799 196.9 86.797 196.9 88.797 150.896 88.799"/>
    <path fill="#DEDEDD" d="M67.736,191.995 C67.736,196.414 64.154,199.995 59.736,199.995 C55.317,199.995 51.736,196.414 51.736,191.995 C51.736,187.577 55.317,183.995 59.736,183.995 C64.154,183.995 67.736,187.577 67.736,191.995"/>
    <path fill="#475059" d="M56.433,201.978 C56.635,201.978 56.839,202.004 57.039,202.058 C57.799,202.261 58.401,202.829 58.65,203.575 L59.38,205.767 C59.425,205.904 59.553,205.996 59.697,205.996 C59.918,205.996 60.046,205.904 60.091,205.767 L60.822,203.575 C61.071,202.829 61.673,202.261 62.432,202.058 C63.191,201.854 63.997,202.044 64.585,202.567 L66.314,204.1 C66.421,204.196 66.578,204.211 66.702,204.139 C66.894,204.028 66.958,203.885 66.929,203.745 L66.466,201.48 C66.308,200.709 66.546,199.917 67.103,199.362 C67.658,198.805 68.451,198.569 69.221,198.726 L71.484,199.189 C71.624,199.213 71.769,199.153 71.841,199.029 C71.951,198.837 71.935,198.681 71.84,198.573 L70.306,196.845 C69.784,196.255 69.594,195.45 69.799,194.69 C70.003,193.931 70.57,193.33 71.316,193.082 L73.507,192.351 C73.644,192.305 73.736,192.178 73.736,192.034 C73.736,191.813 73.644,191.686 73.508,191.641 L73.507,191.64 L71.315,190.909 C70.569,190.661 70.002,190.058 69.798,189.298 C69.594,188.54 69.784,187.735 70.306,187.147 L71.84,185.417 C71.935,185.309 71.951,185.154 71.88,185.029 C71.768,184.836 71.623,184.769 71.483,184.802 L69.22,185.265 C68.447,185.423 67.658,185.184 67.101,184.628 C66.546,184.073 66.308,183.281 66.466,182.511 L66.929,180.247 C66.958,180.105 66.894,179.962 66.769,179.89 C66.578,179.78 66.422,179.795 66.313,179.891 L64.585,181.424 C63.995,181.946 63.192,182.139 62.431,181.932 C61.672,181.729 61.07,181.163 60.822,180.417 L60.091,178.224 C60.046,178.087 59.918,177.996 59.774,177.996 C59.553,177.996 59.425,178.087 59.38,178.224 L58.65,180.417 C58.401,181.163 57.799,181.729 57.04,181.932 C56.279,182.139 55.475,181.945 54.887,181.424 L53.157,179.891 C53.05,179.795 52.894,179.779 52.769,179.852 C52.577,179.962 52.513,180.105 52.542,180.246 L53.005,182.511 C53.163,183.281 52.925,184.073 52.37,184.628 C51.814,185.184 51.025,185.423 50.251,185.265 L47.987,184.801 C47.847,184.777 47.703,184.838 47.631,184.961 C47.52,185.154 47.536,185.309 47.632,185.417 L49.165,187.147 C49.687,187.735 49.877,188.54 49.673,189.298 C49.47,190.058 48.903,190.661 48.157,190.909 L45.964,191.64 C45.827,191.686 45.736,191.813 45.736,191.957 C45.736,192.178 45.827,192.305 45.964,192.351 L48.157,193.083 C48.902,193.33 49.468,193.931 49.673,194.69 C49.877,195.45 49.687,196.255 49.165,196.844 L47.631,198.574 C47.536,198.681 47.52,198.837 47.592,198.963 C47.703,199.154 47.846,199.214 47.987,199.189 L50.251,198.726 C51.021,198.568 51.812,198.805 52.368,199.362 C52.925,199.917 53.163,200.709 53.005,201.48 L52.542,203.744 C52.513,203.885 52.577,204.028 52.702,204.1 C52.893,204.212 53.05,204.196 53.158,204.1 L54.886,202.567 C55.32,202.182 55.87,201.978 56.433,201.978 Z M59.774,207.996 C58.691,207.996 57.801,207.354 57.483,206.4 L56.752,204.208 C56.703,204.059 56.587,204.007 56.522,203.99 C56.456,203.974 56.331,203.959 56.214,204.063 L54.485,205.596 C53.731,206.263 52.641,206.375 51.769,205.872 C50.831,205.33 50.381,204.329 50.583,203.342 L51.046,201.08 C51.077,200.926 51.002,200.824 50.955,200.776 C50.907,200.729 50.803,200.654 50.653,200.685 L48.387,201.148 C47.405,201.351 46.402,200.901 45.899,200.029 C45.357,199.09 45.467,197.999 46.134,197.247 L47.668,195.517 C47.772,195.4 47.758,195.274 47.741,195.208 C47.724,195.144 47.673,195.029 47.525,194.98 L45.331,194.248 C44.377,193.93 43.736,193.04 43.736,192.034 C43.736,190.949 44.378,190.059 45.333,189.743 L47.524,189.012 C47.673,188.962 47.724,188.846 47.741,188.781 C47.758,188.716 47.772,188.59 47.669,188.473 L46.135,186.744 C45.467,185.991 45.357,184.9 45.86,184.029 C46.4,183.091 47.399,182.643 48.386,182.841 L50.652,183.306 C50.809,183.338 50.908,183.262 50.955,183.214 C51.003,183.167 51.077,183.065 51.046,182.912 L50.583,180.647 C50.381,179.662 50.831,178.661 51.702,178.158 C52.64,177.618 53.732,177.727 54.484,178.395 L56.214,179.928 C56.33,180.032 56.457,180.019 56.522,180 C56.587,179.984 56.703,179.932 56.752,179.784 L57.483,177.591 C57.801,176.637 58.691,175.996 59.697,175.996 C60.781,175.996 61.67,176.637 61.988,177.591 L62.719,179.784 C62.768,179.932 62.884,179.984 62.949,180 C63.014,180.019 63.141,180.032 63.258,179.928 L64.987,178.395 C65.739,177.727 66.829,177.616 67.702,178.12 C68.64,178.661 69.091,179.662 68.888,180.648 L68.425,182.912 C68.394,183.065 68.468,183.167 68.516,183.214 C68.564,183.262 68.67,183.335 68.82,183.306 L71.083,182.842 C72.071,182.639 73.071,183.091 73.573,183.963 C74.115,184.9 74.004,185.991 73.337,186.744 L71.802,188.473 C71.699,188.59 71.713,188.716 71.73,188.781 C71.747,188.846 71.799,188.962 71.948,189.012 L74.14,189.744 C75.094,190.061 75.736,190.95 75.736,191.957 C75.736,193.04 75.094,193.93 74.14,194.248 L71.948,194.979 C71.799,195.029 71.747,195.144 71.73,195.209 C71.713,195.274 71.699,195.401 71.803,195.518 L73.336,197.246 C74.004,197.999 74.114,199.09 73.612,199.961 C73.07,200.901 72.069,201.352 71.083,201.148 L68.82,200.685 C68.666,200.657 68.564,200.729 68.516,200.776 C68.469,200.824 68.394,200.926 68.425,201.08 L68.888,203.343 C69.091,204.329 68.64,205.33 67.769,205.833 C66.83,206.375 65.74,206.265 64.987,205.596 L63.258,204.063 C63.139,203.959 63.014,203.973 62.95,203.99 C62.884,204.007 62.768,204.059 62.719,204.208 L61.988,206.4 C61.67,207.354 60.781,207.996 59.774,207.996 Z"/>
    <path fill="#475059" d="M59.736,189.996 C58.633,189.996 57.736,190.893 57.736,191.996 C57.736,193.098 58.633,193.996 59.736,193.996 C60.839,193.996 61.736,193.098 61.736,191.996 C61.736,190.893 60.839,189.996 59.736,189.996 Z M59.736,195.996 C57.53,195.996 55.736,194.202 55.736,191.996 C55.736,189.79 57.53,187.996 59.736,187.996 C61.941,187.996 63.736,189.79 63.736,191.996 C63.736,194.202 61.941,195.996 59.736,195.996 Z"/>
    <polygon fill="#48515A" points="185.416 33.005 187.416 33.005 187.416 29.005 185.416 29.005"/>
    <polygon fill="#48515A" points="185.416 43.005 187.416 43.005 187.416 39.005 185.416 39.005"/>
    <polygon fill="#48515A" points="189.416 37.005 193.416 37.005 193.416 35.005 189.416 35.005"/>
    <polygon fill="#48515A" points="179.416 37.005 183.416 37.005 183.416 35.005 179.416 35.005"/>
    <polygon fill="#48515A" points="44.423 146.046 46.423 146.046 46.423 142.046 44.423 142.046"/>
    <polygon fill="#48515A" points="44.423 156.046 46.423 156.046 46.423 152.046 44.423 152.046"/>
    <polygon fill="#48515A" points="48.423 150.046 52.423 150.046 52.423 148.046 48.423 148.046"/>
    <polygon fill="#48515A" points="38.423 150.046 42.423 150.046 42.423 148.046 38.423 148.046"/>
    <polygon fill="#48515A" points="164.494 196.077 166.494 196.077 166.494 192.077 164.494 192.077"/>
    <polygon fill="#48515A" points="164.494 206.077 166.494 206.077 166.494 202.077 164.494 202.077"/>
    <polygon fill="#48515A" points="168.494 200.077 172.494 200.077 172.494 198.077 168.494 198.077"/>
    <polygon fill="#48515A" points="158.494 200.077 162.494 200.077 162.494 198.077 158.494 198.077"/>
    <path fill="#FFD15D" d="M196.901 185.738C196.901 186.7 196.12 187.48 195.158 187.48 194.196 187.48 193.416 186.7 193.416 185.738 193.416 184.776 194.196 183.995 195.158 183.995 196.12 183.995 196.901 184.776 196.901 185.738M62.736 149.16C62.736 149.989 62.064 150.66 61.236 150.66 60.407 150.66 59.736 149.989 59.736 149.16 59.736 148.332 60.407 147.66 61.236 147.66 62.064 147.66 62.736 148.332 62.736 149.16M199.578 125.161C199.578 126.541 198.459 127.661 197.078 127.661 195.697 127.661 194.577 126.541 194.577 125.161 194.577 123.78 195.697 122.66 197.078 122.66 198.459 122.66 199.578 123.78 199.578 125.161"/>
  </g>
</svg>
