<svg xmlns="http://www.w3.org/2000/svg" width="250" height="250" viewBox="0 0 250 250">
  <g fill="none" fill-rule="evenodd">
    <path fill="#48515A" d="M199.911,57.995 L197.911,57.995 L197.911,54 C197.911,50.691 195.219,48 191.911,48 L191.911,46 C196.322,46 199.911,49.589 199.911,54 L199.911,57.995"/>
    <polygon fill="#48515A" points="101.293 65.995 205.911 65.995 205.911 63.995 101.293 63.995"/>
    <polygon fill="#48515A" points="87.293 48 191.911 48 191.911 46 87.293 46"/>
    <path fill="#FFD15D" d="M195.911,54 L195.911,54.995 L105.292,54.994 L105.292,57.994 C105.292,60.2 103.498,61.994 101.292,61.994 C99.087,61.994 97.292,60.2 97.292,57.994 L97.292,54 C97.292,52.579 96.994,51.226 96.457,50 L191.91,50 C194.116,50 195.911,51.795 195.911,54"/>
    <polygon fill="#48515A" points="97.344 87.99 125.35 87.99 125.35 85.99 97.344 85.99"/>
    <polygon fill="#48515A" points="97.344 91.99 125.35 91.99 125.35 89.99 97.344 89.99"/>
    <polygon fill="#48515A" points="167.35 87.987 179.35 87.987 179.35 85.987 167.35 85.987"/>
    <path fill="#48515A" d="M78.59,182.989 L179.293,182.989 C182.601,182.989 185.293,180.298 185.293,176.989 L185.293,173.999 L185.412,63.995 L205.911,63.995 C208.879,63.995 211.35,61.829 211.828,58.995 L109.23,58.995 C108.737,62.935 105.365,65.995 101.293,65.995 C96.881,65.995 93.293,62.406 93.293,57.995 L93.293,54 C93.293,50.691 90.601,48 87.293,48 C83.984,48 81.293,50.691 81.293,54 L81.293,56.996 L81.343,176.989 C81.343,179.376 80.278,181.522 78.59,182.989 Z M179.293,184.989 L73.543,184.983 C73.439,184.987 73.334,184.989 73.229,184.989 C72.676,184.989 72.229,184.542 72.229,183.989 C72.229,183.437 72.676,182.989 73.229,182.989 C76.6,182.989 79.343,180.298 79.343,176.989 L79.343,166.994 L79.293,54 C79.293,49.589 82.881,46 87.293,46 C91.704,46 95.293,49.589 95.293,54 L95.293,57.995 C95.293,61.303 97.984,63.995 101.293,63.995 C104.601,63.995 107.293,61.303 107.293,57.995 L107.293,56.995 L213.911,56.995 L213.911,57.995 C213.911,62.406 210.322,65.995 205.911,65.995 L187.41,65.995 L187.293,176.989 C187.293,181.4 183.704,184.989 179.293,184.989 Z"/>
    <path fill="#48515A" d="M74.276,185.005 C69.865,185.005 66.276,181.416 66.276,177.005 L66.276,173.41 C66.276,169.879 63.403,167.006 59.872,167.006 L59.872,165.006 C64.506,165.006 68.276,168.776 68.276,173.41 L68.276,177.005 C68.276,180.313 70.968,183.005 74.276,183.005 L74.276,185.005"/>
    <path fill="#48515A" d="M66.959,174.01 L52.276,174.01 L52.276,173.01 C52.276,168.599 55.865,165.01 60.276,165.01 L79.776,165.01 C80.329,165.01 80.776,165.457 80.776,166.01 C80.776,166.563 80.329,167.01 79.776,167.01 L60.276,167.01 C57.309,167.01 54.837,169.176 54.36,172.01 L66.959,172.01 C67.511,172.01 67.959,172.457 67.959,173.01 C67.959,173.563 67.511,174.01 66.959,174.01"/>
    <path fill="#475059" d="M43.187,143 C41.532,143 40.187,144.346 40.187,146 C40.187,147.654 41.532,149 43.187,149 L100.352,149 L106.859,146 L100.352,143 L43.187,143 Z M100.792,151 L43.187,151 C40.43,151 38.187,148.757 38.187,146 C38.187,143.243 40.43,141 43.187,141 L100.792,141 L111.634,146 L100.792,151 Z"/>
    <polygon fill="#475059" points="48.796 150 50.796 150 50.796 142.401 48.796 142.401"/>
    <polygon fill="#475059" points="49.797 146.972 99.804 146.972 99.804 144.972 49.797 144.972"/>
    <polygon fill="#48515A" points="44.282 122.979 46.282 122.979 46.282 118.979 44.282 118.979"/>
    <polygon fill="#48515A" points="44.282 132.979 46.282 132.979 46.282 128.979 44.282 128.979"/>
    <polygon fill="#48515A" points="48.282 126.979 52.282 126.979 52.282 124.979 48.282 124.979"/>
    <polygon fill="#48515A" points="38.282 126.979 42.282 126.979 42.282 124.979 38.282 124.979"/>
    <polygon fill="#48515A" points="154.274 194 156.274 194 156.274 190 154.274 190"/>
    <polygon fill="#48515A" points="154.274 204 156.274 204 156.274 200 154.274 200"/>
    <polygon fill="#48515A" points="158.274 198 162.274 198 162.274 196 158.274 196"/>
    <polygon fill="#48515A" points="148.274 198 152.274 198 152.274 196 148.274 196"/>
    <path fill="#F58E70" d="M64.792,121.496 C64.792,122.601 63.897,123.496 62.792,123.496 C61.688,123.496 60.792,122.601 60.792,121.496 C60.792,120.392 61.688,119.496 62.792,119.496 C63.897,119.496 64.792,120.392 64.792,121.496"/>
    <polyline fill="#475059" points="85.296 105.016 49.212 105.016 49.212 82.932 54.213 82.932 54.213 84.932 51.213 84.932 51.213 103.016 83.297 103.016 83.297 84.932 80.296 84.932 80.296 82.932 85.296 82.932 85.296 105.016"/>
    <path fill="#475059" d="M55.212,99.016 L65.861,99.016 L67.293,100.578 L68.887,99.016 L79.296,99.016 L79.296,80.932 L69.704,80.932 L67.24,83.347 L64.876,80.932 L55.212,80.932 L55.212,99.016 Z M67.216,103.454 L64.981,101.016 L53.213,101.016 L53.213,78.932 L65.716,78.932 L67.269,80.518 L68.887,78.932 L81.297,78.932 L81.297,101.016 L69.704,101.016 L67.216,103.454 Z"/>
    <path fill="#FFF" d="M57.109,84.016 L63.234,84.016"/>
    <polygon fill="#475059" points="57.109 85.016 63.234 85.016 63.234 83.016 57.109 83.016"/>
    <path fill="#FFF" d="M57.109,88.016 L63.234,88.016"/>
    <polygon fill="#475059" points="57.109 89.016 63.234 89.016 63.234 87.016 57.109 87.016"/>
    <path fill="#FFF" d="M57.109,92.016 L63.234,92.016"/>
    <polygon fill="#475059" points="57.109 93.016 63.234 93.016 63.234 91.016 57.109 91.016"/>
    <path fill="#FFF" d="M71.109,84.016 L77.234,84.016"/>
    <polygon fill="#475059" points="71.108 85.016 77.233 85.016 77.233 83.016 71.108 83.016"/>
    <path fill="#FFF" d="M71.109,88.016 L77.234,88.016"/>
    <polygon fill="#475059" points="71.108 89.016 77.233 89.016 77.233 87.016 71.108 87.016"/>
    <path fill="#FFF" d="M71.109,92.016 L77.234,92.016"/>
    <polygon fill="#475059" points="71.108 93.016 77.233 93.016 77.233 91.016 71.108 91.016"/>
    <path fill="#FFF" d="M67.254,85.203 L67.254,95.016"/>
    <polygon fill="#475059" points="66.255 95.016 68.255 95.016 68.255 85.203 66.255 85.203"/>
    <path fill="#FFF" d="M57.109,96.016 L63.234,96.016"/>
    <polygon fill="#475059" points="57.109 97.016 63.234 97.016 63.234 95.016 57.109 95.016"/>
    <path fill="#FFF" d="M71.109,96.016 L77.234,96.016"/>
    <polygon fill="#475059" points="71.108 97.016 77.233 97.016 77.233 95.016 71.108 95.016"/>
    <path fill="#FFD15D" d="M69.293,169.01 C69.919,170.347 70.27,171.838 70.27,173.41 L70.27,177.004 C70.27,179.013 71.757,180.68 73.688,180.962 C75.709,180.73 77.337,179.005 77.337,176.989 L77.337,169.01 L69.293,169.01"/>
    <path fill="#5FE0ED" d="M210.385,159.037 L218.385,159.037 L218.385,151.037 L210.385,151.037 L210.385,159.037 Z M210.385,171.034 L218.385,171.034 L218.385,163.034 L210.385,163.034 L210.385,171.034 Z M218.385,183.032 L218.385,195.029 L210.385,195.029 L210.385,175.032 L218.385,175.032 L218.385,183.032 Z M198.388,159.037 L206.388,159.037 L206.388,151.037 L198.388,151.037 L198.388,159.037 Z M198.388,171.034 L206.388,171.034 L206.388,163.034 L198.388,163.034 L198.388,171.034 Z M198.388,183.032 L206.388,183.032 L206.388,175.032 L198.388,175.032 L198.388,183.032 Z M198.388,195.029 L206.388,195.029 L206.388,187.029 L198.388,187.029 L198.388,195.029 Z M186.39,159.037 L194.39,159.037 L194.39,151.037 L186.39,151.037 L186.39,159.037 Z M186.39,171.034 L194.39,171.034 L194.39,163.034 L186.39,163.034 L186.39,171.034 Z M186.39,183.032 L194.39,183.032 L194.39,175.032 L186.39,175.032 L186.39,183.032 Z M186.39,195.029 L194.39,195.029 L194.39,187.029 L186.39,187.029 L186.39,195.029 Z M174.393,159.037 L182.393,159.037 L182.393,151.037 L174.393,151.037 L174.393,159.037 Z M174.393,171.034 L182.393,171.034 L182.393,163.034 L174.393,163.034 L174.393,171.034 Z M174.393,183.032 L182.393,183.032 L182.393,175.032 L174.393,175.032 L174.393,183.032 Z M174.393,195.029 L182.393,195.029 L182.393,187.029 L174.393,187.029 L174.393,195.029 Z M170.395,199.027 L222.383,199.027 L222.383,147.039 L170.395,147.039 L170.395,199.027 Z"/>
    <path fill="#475059" d="M175.392 158.036L181.392 158.036 181.392 152.036 175.392 152.036 175.392 158.036zM173.392 160.036L183.392 160.036 183.392 150.036 173.392 150.036 173.392 160.036zM175.392 170.034L181.392 170.034 181.392 164.034 175.392 164.034 175.392 170.034zM173.392 172.034L183.392 172.034 183.392 162.034 173.392 162.034 173.392 172.034zM175.392 182.032L181.392 182.032 181.392 176.032 175.392 176.032 175.392 182.032zM173.392 184.032L183.392 184.032 183.392 174.032 173.392 174.032 173.392 184.032zM175.392 194.029L181.392 194.029 181.392 188.029 175.392 188.029 175.392 194.029zM173.392 196.029L183.392 196.029 183.392 186.029 173.392 186.029 173.392 196.029zM187.39 158.036L193.39 158.036 193.39 152.036 187.39 152.036 187.39 158.036zM185.39 160.036L195.39 160.036 195.39 150.036 185.39 150.036 185.39 160.036zM187.39 170.034L193.39 170.034 193.39 164.034 187.39 164.034 187.39 170.034zM185.39 172.034L195.39 172.034 195.39 162.034 185.39 162.034 185.39 172.034zM187.39 182.032L193.39 182.032 193.39 176.032 187.39 176.032 187.39 182.032zM185.39 184.032L195.39 184.032 195.39 174.032 185.39 174.032 185.39 184.032zM187.39 194.029L193.39 194.029 193.39 188.029 187.39 188.029 187.39 194.029zM185.39 196.029L195.39 196.029 195.39 186.029 185.39 186.029 185.39 196.029zM199.388 158.036L205.388 158.036 205.388 152.036 199.388 152.036 199.388 158.036zM197.388 160.036L207.388 160.036 207.388 150.036 197.388 150.036 197.388 160.036zM199.388 170.034L205.388 170.034 205.388 164.034 199.388 164.034 199.388 170.034zM197.388 172.034L207.388 172.034 207.388 162.034 197.388 162.034 197.388 172.034zM199.388 182.032L205.388 182.032 205.388 176.032 199.388 176.032 199.388 182.032zM197.388 184.032L207.388 184.032 207.388 174.032 197.388 174.032 197.388 184.032zM199.388 194.029L205.388 194.029 205.388 188.029 199.388 188.029 199.388 194.029zM197.388 196.029L207.388 196.029 207.388 186.029 197.388 186.029 197.388 196.029zM211.385 158.036L217.385 158.036 217.385 152.036 211.385 152.036 211.385 158.036zM209.385 160.036L219.385 160.036 219.385 150.036 209.385 150.036 209.385 160.036zM211.385 170.034L217.385 170.034 217.385 164.034 211.385 164.034 211.385 170.034zM209.385 172.034L219.385 172.034 219.385 162.034 209.385 162.034 209.385 172.034zM211.385 194.029L217.385 194.029 217.385 176.032 211.385 176.032 211.385 194.029zM209.385 196.029L219.385 196.029 219.385 174.032 209.385 174.032 209.385 196.029z"/>
    <path fill="#FFF" d="M170.395,147.039 L222.383,147.039"/>
    <polygon fill="#475059" points="170.395 148.039 222.383 148.039 222.383 146.039 170.395 146.039"/>
    <polygon fill="#FFD15D" points="174.393 144.042 218.385 144.042 218.385 128.042 174.393 128.042"/>
    <path fill="#FFF" d="M212.385,136.042 L178.393,136.042"/>
    <path fill="#475059" d="M178.392,137.042 L180.385,137.042 L180.385,135.042 L178.392,135.042 L178.392,137.042 Z M182.385,137.042 L184.385,137.042 L184.385,135.042 L182.385,135.042 L182.385,137.042 Z M186.385,137.042 L188.385,137.042 L188.385,135.042 L186.385,135.042 L186.385,137.042 Z M190.385,137.042 L192.385,137.042 L192.385,135.042 L190.385,135.042 L190.385,137.042 Z M194.385,137.042 L196.385,137.042 L196.385,135.042 L194.385,135.042 L194.385,137.042 Z M198.385,137.042 L200.385,137.042 L200.385,135.042 L198.385,135.042 L198.385,137.042 Z M202.385,137.042 L204.385,137.042 L204.385,135.042 L202.385,135.042 L202.385,137.042 Z M206.385,137.042 L208.385,137.042 L208.385,135.042 L206.385,135.042 L206.385,137.042 Z M210.385,137.042 L212.385,137.042 L212.385,135.042 L210.385,135.042 L210.385,137.042 Z"/>
    <polyline fill="#475059" points="222.382 146.992 220.382 146.992 220.382 125.985 172.394 125.985 172.394 146.992 170.394 146.992 170.394 123.985 222.382 123.985 222.382 146.992"/>
    <path fill="#475059" d="M104.272 107C102.066 107 100.272 108.794 100.272 111 100.272 113.206 102.066 115 104.272 115 106.478 115 108.272 113.206 108.272 111 108.272 108.794 106.478 107 104.272 107zM104.272 117C100.963 117 98.272 114.309 98.272 111 98.272 107.691 100.963 105 104.272 105 107.581 105 110.272 107.691 110.272 111 110.272 114.309 107.581 117 104.272 117zM122.272 125C120.066 125 118.272 126.794 118.272 129 118.272 131.206 120.066 133 122.272 133 124.478 133 126.272 131.206 126.272 129 126.272 126.794 124.478 125 122.272 125zM122.272 135C118.963 135 116.272 132.309 116.272 129 116.272 125.691 118.963 123 122.272 123 125.581 123 128.272 125.691 128.272 129 128.272 132.309 125.581 135 122.272 135z"/>
    <polyline fill="#475059" points="99.979 134.707 98.565 133.293 126.565 105.293 127.979 106.707 99.979 134.707"/>
    <polygon fill="#475059" points="135.272 107 159.272 107 159.272 105 135.272 105"/>
    <polygon fill="#475059" points="135.272 111 179.272 111 179.272 109 135.272 109"/>
    <polygon fill="#475059" points="135.272 115 179.272 115 179.272 113 135.272 113"/>
    <polygon fill="#475059" points="135.272 125.997 159.272 125.997 159.272 123.997 135.272 123.997"/>
    <polygon fill="#475059" points="135.272 129.997 168.272 129.997 168.272 127.997 135.272 127.997"/>
    <polygon fill="#475059" points="135.272 133.997 168.272 133.997 168.272 131.997 135.272 131.997"/>
    <polygon fill="#475059" points="107.255 151.012 168.278 151.012 168.278 149.012 107.255 149.012"/>
    <polygon fill="#475059" points="97.25 155.012 168.272 155.012 168.272 153.012 97.25 153.012"/>
    <polygon fill="#475059" points="97.25 159.012 168.272 159.012 168.272 157.012 97.25 157.012"/>
    <polygon fill="#475059" points="97.25 167.021 168.278 167.021 168.278 165.021 97.25 165.021"/>
    <polygon fill="#475059" points="97.25 171.021 168.272 171.021 168.272 169.021 97.25 169.021"/>
    <polygon fill="#475059" points="97.25 175.021 168.272 175.021 168.272 173.021 97.25 173.021"/>
    <path fill="#FFD15D" d="M135.231,84.999 C135.231,77.82 141.052,71.999 148.231,71.999 C155.411,71.999 161.231,77.82 161.231,84.999 C161.231,92.179 155.411,97.999 148.231,97.999 C141.052,97.999 135.231,92.179 135.231,84.999"/>
    <path fill="#475059" d="M150.389,89.999 L146.375,89.999 C144.903,89.999 143.793,88.951 143.793,87.562 C143.793,87.01 144.24,86.562 144.793,86.562 C145.345,86.562 145.793,87.01 145.793,87.562 C145.793,87.967 146.238,87.999 146.375,87.999 L150.389,87.999 C150.842,87.999 151.212,87.63 151.212,87.177 L151.212,86.821 C151.212,86.368 150.842,85.999 150.389,85.999 L146.212,85.999 C144.557,85.999 143.212,84.653 143.212,82.999 C143.212,81.345 144.557,79.999 146.212,79.999 L150.685,79.999 C152.025,79.999 152.962,80.838 152.962,82.039 C152.962,82.591 152.514,83.039 151.962,83.039 C151.409,83.039 150.962,82.591 150.962,82.039 C150.963,82.039 150.866,81.999 150.685,81.999 L146.212,81.999 C145.66,81.999 145.212,82.448 145.212,82.999 C145.212,83.55 145.66,83.999 146.212,83.999 L150.389,83.999 C151.946,83.999 153.212,85.265 153.212,86.821 L153.212,87.177 C153.212,88.733 151.946,89.999 150.389,89.999"/>
    <path fill="#475059" d="M148.212,92.999 C147.659,92.999 147.212,92.551 147.212,91.999 L147.212,77.999 C147.212,77.447 147.659,76.999 148.212,76.999 C148.764,76.999 149.212,77.447 149.212,77.999 L149.212,91.999 C149.212,92.551 148.764,92.999 148.212,92.999"/>
    <path fill="#FFD15D" d="M196.273 117.005C196.273 118.662 194.93 120.005 193.273 120.005 191.616 120.005 190.273 118.662 190.273 117.005 190.273 115.348 191.616 114.005 193.273 114.005 194.93 114.005 196.273 115.348 196.273 117.005M172.244 95.989C172.244 94.332 173.587 92.989 175.244 92.989 176.901 92.989 178.244 94.332 178.244 95.989 178.244 97.645 176.901 98.989 175.244 98.989 173.587 98.989 172.244 97.645 172.244 95.989M165.252 72.995C165.252 73.548 164.804 73.995 164.252 73.995 163.7 73.995 163.252 73.548 163.252 72.995 163.252 72.443 163.7 71.995 164.252 71.995 164.804 71.995 165.252 72.443 165.252 72.995"/>
    <path fill="#475059" d="M200.274,102.054 L200.274,102.171 C200.274,102.971 200.586,103.723 201.152,104.288 C201.716,104.852 202.466,105.162 203.264,105.162 C203.266,105.162 203.267,105.162 203.269,105.162 L204,105.161 C205.645,105.158 206.984,103.816 206.984,102.17 L206.984,102.054 L203.629,92.68 L200.274,102.054 Z M203.263,107.162 C201.933,107.162 200.681,106.644 199.739,105.703 C198.795,104.76 198.274,103.506 198.274,102.171 L198.274,101.707 L203.629,86.745 L208.984,101.707 L208.984,102.17 C208.984,104.917 206.75,107.156 204.003,107.161 L203.272,107.162 C203.269,107.162 203.266,107.162 203.263,107.162 Z"/>
    <polygon fill="#475059" points="199.281 102.88 207.984 102.88 207.984 100.88 199.281 100.88"/>
    <polyline fill="#475059" points="214.316 88.574 210.95 84.782 198.273 84.782 198.273 82.782 211.848 82.782 214.316 85.561 216.783 82.782 230.273 82.782 230.273 84.782 217.681 84.782 214.316 88.574"/>
    <polyline fill="#475059" points="210.34 114.88 208.34 114.88 208.34 112.532 211.342 109.53 211.342 91.557 213.342 91.557 213.342 110.358 210.34 113.36 210.34 114.88"/>
    <polyline fill="#475059" points="220.212 114.88 218.212 114.88 218.212 113.356 215.213 110.358 215.213 91.557 217.213 91.557 217.213 109.53 220.212 112.528 220.212 114.88"/>
    <polygon fill="#475059" points="210.887 88.686 217.669 88.686 217.669 86.686 210.887 86.686"/>
    <path fill="#475059" d="M221.568,102.037 C221.606,102.778 221.913,103.47 222.442,103.998 C223.006,104.562 223.756,104.872 224.555,104.872 C224.556,104.872 224.558,104.872 224.56,104.872 L225.29,104.871 C226.882,104.868 228.188,103.611 228.27,102.037 L224.92,92.354 L221.568,102.037 Z M224.554,106.872 C223.223,106.872 221.971,106.354 221.029,105.414 C220.085,104.471 219.564,103.216 219.564,101.882 L219.564,101.714 L224.92,86.238 L230.274,101.712 L230.274,101.88 C230.274,104.627 228.04,106.866 225.293,106.871 L224.563,106.872 C224.56,106.872 224.557,106.872 224.554,106.872 Z"/>
    <polygon fill="#475059" points="220.571 102.88 229.274 102.88 229.274 100.88 220.571 100.88"/>
    <polygon fill="#475059" points="210.887 92.557 217.669 92.557 217.669 90.557 210.887 90.557"/>
    <polygon fill="#475059" points="212.342 110.944 216.213 110.944 216.213 108.944 212.342 108.944"/>
  </g>
</svg>
