<svg xmlns="http://www.w3.org/2000/svg" width="250" height="250" viewBox="0 0 250 250">
  <g fill="none" fill-rule="evenodd">
    <polygon fill="#F58E70" points="152.969 196.139 192.969 196.139 192.969 188.139 152.969 188.139"/>
    <polygon fill="#F58E70" points="141.962 206.139 205.977 206.139 205.977 199.138 141.962 199.138"/>
    <path fill="#475059" d="M149.969,195.139 L195.969,195.139 L195.969,185.139 L149.969,185.139 L149.969,195.139 Z M147.969,197.139 L197.969,197.139 L197.969,183.139 L147.969,183.139 L147.969,197.139 Z"/>
    <path fill="#475059" d="M139.591,205.861 L207.969,205.862 L207.969,197.139 L139.591,197.139 L139.591,205.861 Z M209.969,207.862 L137.591,207.861 L137.591,195.139 L209.969,195.139 L209.969,207.862 Z"/>
    <path fill="#FFF" d="M138.591,206.862 L49.276,206.861"/>
    <polygon fill="#475059" points="49.276 207.861 138.591 207.861 138.591 205.861 49.276 205.861"/>
    <path fill="#DEDEDD" d="M29.959,117.145 C29.959,119.906 32.197,122.145 34.958,122.145 L110.969,122.145 L124.969,124.145 L124.969,126.145 L130.969,126.145 L130.969,124.145 L146.969,124.145 L146.969,126.145 L152.969,126.145 L152.969,117.145 L29.959,117.145"/>
    <polygon fill="#DEDEDD" points="154.344 98.143 190.969 98.143 190.969 91.512 154.344 91.512"/>
    <polygon fill="#DEDEDD" points="154.969 142.146 190.969 142.146 190.969 136.146 154.969 136.146"/>
    <polygon fill="#DEDEDD" points="150.969 162.146 194.969 162.146 194.969 156.146 150.969 156.146"/>
    <polygon fill="#DEDEDD" points="150.969 92.143 194.969 92.143 194.969 86.143 150.969 86.143"/>
    <path fill="#475059" d="M147.969,125.145 L151.969,125.145 L151.969,109.145 L147.969,109.145 L147.969,111.145 L129.969,111.145 L129.969,109.145 L125.969,109.145 L125.969,111.012 L110.969,113.145 L34.959,113.145 C32.753,113.145 30.959,114.938 30.959,117.145 C30.959,119.351 32.753,121.145 34.959,121.145 L111.11,121.154 L125.969,123.277 L125.969,125.145 L129.969,125.145 L129.969,123.145 L147.969,123.145 L147.969,125.145 Z M153.969,127.145 L145.969,127.145 L145.969,125.145 L131.969,125.145 L131.969,127.145 L123.969,127.145 L123.969,125.012 L110.897,123.145 L34.959,123.145 C31.65,123.145 28.959,120.453 28.959,117.145 C28.959,113.836 31.65,111.145 34.959,111.145 L110.897,111.145 L123.969,109.277 L123.969,107.145 L131.969,107.145 L131.969,109.145 L145.969,109.145 L145.969,107.145 L153.969,107.145 L153.969,127.145 Z"/>
    <polygon fill="#475059" points="145.969 124.145 147.969 124.145 147.969 110.145 145.969 110.145"/>
    <polygon fill="#475059" points="129.969 124.145 131.969 124.145 131.969 110.145 129.969 110.145"/>
    <polygon fill="#475059" points="123.969 124.145 125.969 124.145 125.969 110.145 123.969 110.145"/>
    <polygon fill="#FFD15D" points="152.969 135.146 192.969 135.146 192.969 99.143 152.969 99.143"/>
    <path fill="#FFD15D" d="M153.969,134.146 L191.969,134.146 L191.969,100.143 L153.969,100.143 L153.969,134.146 Z M151.969,136.146 L193.969,136.146 L193.969,98.143 L151.969,98.143 L151.969,136.146 Z"/>
    <path fill="#475059" d="M149.969,85.144 L151.969,85.144 L151.969,90.144 C151.969,90.695 152.417,91.144 152.969,91.144 L192.969,91.144 C193.521,91.144 193.969,90.695 193.969,90.144 L193.969,85.144 L195.969,85.144 L195.969,79.144 L193.969,79.144 L193.969,74.144 C193.969,73.592 193.521,73.144 192.969,73.144 L152.969,73.144 C152.417,73.144 151.969,73.592 151.969,74.144 L151.969,79.144 L149.969,79.144 L149.969,85.144 Z M192.969,93.144 L152.969,93.144 C151.314,93.144 149.969,91.798 149.969,90.144 L149.969,87.144 L147.969,87.144 L147.969,77.144 L149.969,77.144 L149.969,74.144 C149.969,72.489 151.314,71.144 152.969,71.144 L192.969,71.144 C194.623,71.144 195.969,72.489 195.969,74.144 L195.969,77.144 L197.969,77.144 L197.969,87.144 L195.969,87.144 L195.969,90.144 C195.969,91.798 194.623,93.144 192.969,93.144 Z"/>
    <polygon fill="#475059" points="150.969 79.144 194.969 79.144 194.969 77.144 150.969 77.144"/>
    <polygon fill="#475059" points="150.969 87.144 194.969 87.144 194.969 85.144 150.969 85.144"/>
    <path fill="#475059" d="M149.969,155.146 L151.969,155.146 L151.969,160.146 C151.969,160.697 152.417,161.146 152.969,161.146 L192.969,161.146 C193.521,161.146 193.969,160.697 193.969,160.146 L193.969,155.146 L195.969,155.146 L195.969,149.146 L193.969,149.146 L193.969,144.146 C193.969,143.594 193.521,143.146 192.969,143.146 L152.969,143.146 C152.417,143.146 151.969,143.594 151.969,144.146 L151.969,149.146 L149.969,149.146 L149.969,155.146 Z M192.969,163.146 L152.969,163.146 C151.314,163.146 149.969,161.8 149.969,160.146 L149.969,157.146 L147.969,157.146 L147.969,147.146 L149.969,147.146 L149.969,144.146 C149.969,142.491 151.314,141.146 152.969,141.146 L192.969,141.146 C194.623,141.146 195.969,142.491 195.969,144.146 L195.969,147.146 L197.969,147.146 L197.969,157.146 L195.969,157.146 L195.969,160.146 C195.969,161.8 194.623,163.146 192.969,163.146 Z"/>
    <polygon fill="#475059" points="150.969 149.146 194.969 149.146 194.969 147.146 150.969 147.146"/>
    <polygon fill="#475059" points="150.969 157.146 194.969 157.146 194.969 155.146 150.969 155.146"/>
    <polygon fill="#475059" points="150.969 99.144 194.969 99.144 194.969 97.144 150.969 97.144"/>
    <polygon fill="#475059" points="150.969 137.146 194.969 137.146 194.969 135.146 150.969 135.146"/>
    <polygon fill="#475059" points="153.969 98.144 155.969 98.144 155.969 92.144 153.969 92.144"/>
    <polygon fill="#475059" points="189.969 98.144 191.969 98.144 191.969 92.144 189.969 92.144"/>
    <polygon fill="#475059" points="153.969 142.146 155.969 142.146 155.969 136.146 153.969 136.146"/>
    <polygon fill="#475059" points="189.969 142.146 191.969 142.146 191.969 136.146 189.969 136.146"/>
    <polygon fill="#475059" points="165.975 67.14 167.975 67.14 167.975 46.141 165.975 46.141"/>
    <path fill="#475059" d="M166.979,44.139 C166.709,44.139 166.459,44.038 166.269,43.849 C166.078,43.658 165.969,43.408 165.969,43.139 C165.969,43.009 165.999,42.879 166.049,42.759 C166.099,42.639 166.179,42.528 166.269,42.439 C166.499,42.198 166.839,42.089 167.169,42.158 C167.238,42.169 167.299,42.188 167.358,42.219 C167.419,42.238 167.479,42.269 167.528,42.309 C167.589,42.349 167.639,42.389 167.679,42.439 C167.868,42.618 167.979,42.879 167.979,43.139 C167.979,43.269 167.948,43.398 167.898,43.519 C167.849,43.639 167.778,43.748 167.679,43.849 C167.488,44.038 167.238,44.139 166.979,44.139"/>
    <polygon fill="#475059" points="169.978 67.139 171.978 67.139 171.978 57.147 169.978 57.147"/>
    <path fill="#475059" d="M170.979,55.148 C170.709,55.148 170.459,55.038 170.269,54.858 C170.179,54.759 170.099,54.648 170.049,54.528 C169.999,54.408 169.979,54.278 169.979,54.148 C169.979,53.889 170.078,53.629 170.269,53.438 C170.358,53.349 170.469,53.278 170.599,53.228 C170.778,53.148 170.979,53.129 171.169,53.169 C171.238,53.179 171.299,53.198 171.358,53.228 C171.419,53.248 171.479,53.278 171.528,53.318 C171.589,53.349 171.639,53.398 171.679,53.438 C171.868,53.629 171.979,53.889 171.979,54.148 C171.979,54.278 171.948,54.408 171.898,54.528 C171.849,54.648 171.778,54.759 171.679,54.858 C171.499,55.038 171.238,55.148 170.979,55.148"/>
    <polygon fill="#475059" points="173.979 67.14 175.979 67.14 175.979 46.141 173.979 46.141"/>
    <path fill="#475059" d="M174.979,44.139 C174.849,44.139 174.719,44.118 174.599,44.068 C174.479,44.019 174.368,43.939 174.269,43.849 C174.078,43.658 173.979,43.408 173.979,43.139 C173.979,43.009 174.009,42.879 174.059,42.759 C174.108,42.639 174.179,42.528 174.269,42.439 C174.368,42.339 174.469,42.269 174.599,42.219 C174.839,42.118 175.118,42.118 175.358,42.219 C175.488,42.269 175.599,42.339 175.688,42.439 C175.778,42.528 175.849,42.639 175.898,42.759 C175.948,42.879 175.979,43.009 175.979,43.139 C175.979,43.269 175.948,43.398 175.898,43.519 C175.849,43.648 175.778,43.748 175.688,43.849 C175.499,44.038 175.249,44.139 174.979,44.139"/>
    <polygon fill="#475059" points="177.982 67.14 179.982 67.14 179.982 51.145 177.982 51.145"/>
    <path fill="#475059" d="M178.979,49.148 C178.849,49.148 178.719,49.118 178.599,49.068 C178.479,49.019 178.368,48.948 178.278,48.849 C178.089,48.658 177.979,48.408 177.979,48.148 C177.979,48.009 178.009,47.879 178.059,47.759 C178.108,47.639 178.179,47.528 178.278,47.438 C178.549,47.158 178.988,47.068 179.368,47.219 C179.488,47.269 179.599,47.339 179.688,47.438 C179.778,47.528 179.858,47.639 179.908,47.759 C179.959,47.879 179.979,48.009 179.979,48.148 C179.979,48.408 179.879,48.658 179.688,48.849 C179.499,49.038 179.249,49.148 178.979,49.148"/>
    <polygon fill="#48515A" points="91.969 163.145 93.969 163.145 93.969 159.145 91.969 159.145"/>
    <polygon fill="#48515A" points="91.969 173.145 93.969 173.145 93.969 169.145 91.969 169.145"/>
    <polygon fill="#48515A" points="95.969 167.145 99.969 167.145 99.969 165.145 95.969 165.145"/>
    <polygon fill="#48515A" points="85.969 167.145 89.969 167.145 89.969 165.145 85.969 165.145"/>
    <polygon fill="#48515A" points="213.041 155.14 215.041 155.14 215.041 151.14 213.041 151.14"/>
    <polygon fill="#48515A" points="213.041 165.14 215.041 165.14 215.041 161.14 213.041 161.14"/>
    <polygon fill="#48515A" points="217.041 159.14 221.041 159.14 221.041 157.14 217.041 157.14"/>
    <polygon fill="#48515A" points="207.041 159.14 211.041 159.14 211.041 157.14 207.041 157.14"/>
    <polygon fill="#48515A" points="101.975 53.079 103.975 53.079 103.975 49.079 101.975 49.079"/>
    <polygon fill="#48515A" points="101.975 63.079 103.975 63.079 103.975 59.079 101.975 59.079"/>
    <polygon fill="#48515A" points="105.975 57.079 109.975 57.079 109.975 55.079 105.975 55.079"/>
    <polygon fill="#48515A" points="95.975 57.079 99.975 57.079 99.975 55.079 95.975 55.079"/>
    <path fill="#FFD15D" d="M116.969,190.139 C116.969,191.243 116.073,192.139 114.969,192.139 C113.864,192.139 112.969,191.243 112.969,190.139 C112.969,189.034 113.864,188.139 114.969,188.139 C116.073,188.139 116.969,189.034 116.969,190.139"/>
    <path fill="#FFD15D" d="M114.969,189.139 C114.417,189.139 113.969,189.587 113.969,190.139 C113.969,190.69 114.417,191.139 114.969,191.139 C115.521,191.139 115.969,190.69 115.969,190.139 C115.969,189.587 115.521,189.139 114.969,189.139 Z M114.969,193.139 C113.314,193.139 111.969,191.793 111.969,190.139 C111.969,188.484 113.314,187.139 114.969,187.139 C116.623,187.139 117.969,188.484 117.969,190.139 C117.969,191.793 116.623,193.139 114.969,193.139 Z"/>
    <path fill="#48515A" d="M62.969,85.139 C62.417,85.139 61.969,85.587 61.969,86.139 C61.969,86.69 62.417,87.139 62.969,87.139 C63.52,87.139 63.969,86.69 63.969,86.139 C63.969,85.587 63.52,85.139 62.969,85.139 Z M62.969,89.139 C61.314,89.139 59.969,87.793 59.969,86.139 C59.969,84.484 61.314,83.139 62.969,83.139 C64.623,83.139 65.969,84.484 65.969,86.139 C65.969,87.793 64.623,89.139 62.969,89.139 Z"/>
    <path fill="#FFD15D" d="M214.969,102.139 C214.969,101.034 214.073,100.139 212.969,100.139 C211.864,100.139 210.969,101.034 210.969,102.139 C210.969,103.243 211.864,104.139 212.969,104.139 C214.073,104.139 214.969,103.243 214.969,102.139"/>
    <path fill="#F58E70" d="M128.969,182.139 C128.969,181.034 129.864,180.139 130.969,180.139 C132.073,180.139 132.969,181.034 132.969,182.139 C132.969,183.243 132.073,184.139 130.969,184.139 C129.864,184.139 128.969,183.243 128.969,182.139"/>
    <path fill="#FFD15D" d="M198.969,51.139 C198.969,52.796 197.626,54.139 195.969,54.139 C194.312,54.139 192.969,52.796 192.969,51.139 C192.969,49.482 194.312,48.139 195.969,48.139 C197.626,48.139 198.969,49.482 198.969,51.139"/>
    <polyline fill="#475059" points="77.947 161.17 41.864 161.17 41.864 139.087 46.864 139.087 46.864 141.087 43.864 141.087 43.864 159.17 75.947 159.17 75.947 141.087 72.947 141.087 72.947 139.087 77.947 139.087 77.947 161.17"/>
    <path fill="#475059" d="M47.864,155.17 L58.514,155.17 L59.945,156.732 L61.539,155.17 L71.947,155.17 L71.947,137.087 L62.355,137.087 L59.892,139.501 L57.527,137.087 L47.864,137.087 L47.864,155.17 Z M59.867,159.607 L57.633,157.17 L45.864,157.17 L45.864,135.087 L58.367,135.087 L59.921,136.673 L61.539,135.087 L73.947,135.087 L73.947,157.17 L62.355,157.17 L59.867,159.607 Z"/>
    <path fill="#FFF" d="M49.76,140.17 L55.885,140.17"/>
    <polygon fill="#475059" points="49.76 141.17 55.885 141.17 55.885 139.17 49.76 139.17"/>
    <path fill="#FFF" d="M49.76,144.17 L55.885,144.17"/>
    <polygon fill="#475059" points="49.76 145.17 55.885 145.17 55.885 143.17 49.76 143.17"/>
    <path fill="#FFF" d="M49.76,148.17 L55.885,148.17"/>
    <polygon fill="#475059" points="49.76 149.17 55.885 149.17 55.885 147.17 49.76 147.17"/>
    <path fill="#FFF" d="M63.76,140.17 L69.885,140.17"/>
    <polygon fill="#475059" points="63.76 141.17 69.885 141.17 69.885 139.17 63.76 139.17"/>
    <path fill="#FFF" d="M63.76,144.17 L69.885,144.17"/>
    <polygon fill="#475059" points="63.76 145.17 69.885 145.17 69.885 143.17 63.76 143.17"/>
    <path fill="#FFF" d="M63.76,148.17 L69.885,148.17"/>
    <polygon fill="#475059" points="63.76 149.17 69.885 149.17 69.885 147.17 63.76 147.17"/>
    <path fill="#FFF" d="M59.906,141.357 L59.906,151.17"/>
    <polygon fill="#475059" points="58.906 151.17 60.906 151.17 60.906 141.357 58.906 141.357"/>
    <path fill="#FFF" d="M49.76,152.17 L55.885,152.17"/>
    <polygon fill="#475059" points="49.76 153.17 55.885 153.17 55.885 151.17 49.76 151.17"/>
    <path fill="#FFF" d="M63.76,152.17 L69.885,152.17"/>
    <polygon fill="#475059" points="63.76 153.17 69.885 153.17 69.885 151.17 63.76 151.17"/>
  </g>
</svg>
