<svg xmlns="http://www.w3.org/2000/svg" width="250" height="250" viewBox="0 0 250 250">
  <g fill="none" fill-rule="evenodd">
    <path fill="#F58E70" d="M51.953,155.003 L51.953,39.009 L51.02,39.009 C46.058,39.009 42.02,43.046 42.02,48.009 L42.02,158.01 C44.529,156.123 47.647,155.003 51.02,155.003 L51.953,155.003"/>
    <path fill="#475059" d="M129.166,183.003 L51.021,183.003 C43.852,183.003 38.021,177.171 38.021,170.003 L38.021,48.009 C38.021,40.841 43.852,35.009 51.021,35.009 L160.016,35.009 L160.016,158.003 L158.016,158.003 L158.016,37.009 L51.021,37.009 C44.955,37.009 40.021,41.943 40.021,48.009 L40.021,170.003 C40.021,176.068 44.955,181.003 51.021,181.003 L129.166,181.003 L129.166,183.003"/>
    <path fill="#475059" d="M40.021,170.003 L38.021,170.003 C38.021,162.835 43.852,157.003 51.021,157.003 L159.016,157.003 L159.016,159.003 L51.021,159.003 C44.955,159.003 40.021,163.938 40.021,170.003"/>
    <path fill="#475059" d="M129.166,183.003 L51.021,183.003 C43.852,183.003 38.021,177.171 38.021,170.003 C38.021,162.835 43.852,157.003 51.021,157.003 L160.015,157.003 L160.015,159.003 L51.021,159.003 C44.955,159.003 40.021,163.938 40.021,170.003 C40.021,176.068 44.955,181.003 51.021,181.003 L129.166,181.003 L129.166,183.003"/>
    <path fill="#475059" d="M129.166,179.003 L51.021,179.003 C46.058,179.003 42.021,174.966 42.021,170.003 C42.021,165.04 46.058,161.003 51.021,161.003 L158.015,161.003 L158.015,163.003 L51.021,163.003 C47.161,163.003 44.021,166.144 44.021,170.003 C44.021,173.862 47.161,177.003 51.021,177.003 L129.166,177.003 L129.166,179.003"/>
    <path fill="#475059" d="M129.166,175.003 L51.021,175.003 C48.264,175.003 46.021,172.76 46.021,170.003 C46.021,167.246 48.264,165.003 51.021,165.003 L157.014,165.003 L157.014,167.003 L51.021,167.003 C49.366,167.003 48.021,168.349 48.021,170.003 C48.021,171.657 49.366,173.003 51.021,173.003 L129.166,173.003 L129.166,175.003"/>
    <polygon fill="#475059" points="51.021 171.003 129.166 171.003 129.166 169.003 51.021 169.003"/>
    <path fill="#475059" d="M99.104,68.006 L104.254,75.275 L109.404,68.006 L99.104,68.006 Z M104.254,78.736 L95.237,66.006 L113.271,66.006 L104.254,78.736 Z"/>
    <polyline fill="#475059" points="82.066 76.409 79.699 74.006 76.087 74.006 76.087 72.006 80.537 72.006 82.109 73.602 83.78 72.006 101.421 72.006 101.421 74.006 84.582 74.006 82.066 76.409"/>
    <path fill="#475059" d="M76.912,114.006 L87.26,114.006 C87.672,112.859 88.77,112.037 90.056,112.037 L90.087,112.037 L90.087,107.163 L82.087,82.283 L74.087,107.163 L74.087,112.068 L74.15,112.068 C75.418,112.068 76.502,112.877 76.912,114.006 Z M89.087,116.006 L75.087,116.006 L75.087,115.006 C75.087,114.489 74.667,114.068 74.15,114.068 L72.087,114.068 L72.135,106.7 L82.087,75.75 L92.087,107.006 L92.087,114.037 L90.056,114.037 C89.522,114.037 89.087,114.472 89.087,115.006 L89.087,116.006 Z"/>
    <polygon fill="#475059" points="73.1 108.006 91.087 108.006 91.087 106.006 73.1 106.006"/>
    <polyline fill="#475059" points="125.963 76.421 123.687 74.006 107.087 74.006 107.087 72.006 124.55 72.006 126.044 73.591 127.72 72.006 132.171 72.006 132.171 74.006 128.516 74.006 125.963 76.421"/>
    <polygon fill="#475059" points="97.087 126.006 111.103 126.006 111.103 124.006 97.087 124.006"/>
    <path fill="#475059" d="M99.087,84.006 L101.087,84.006 L101.087,82.006 L99.087,82.006 L99.087,84.006 Z M103.087,84.006 L105.087,84.006 L105.087,82.006 L103.087,82.006 L103.087,84.006 Z M107.087,84.006 L109.087,84.006 L109.087,82.006 L107.087,82.006 L107.087,84.006 Z"/>
    <polyline fill="#475059" points="99.095 125.006 99.095 87.006 101.095 87.006 101.095 125.006 99.095 125.006"/>
    <polygon fill="#475059" points="107.095 125.006 109.095 125.006 109.095 87.006 107.095 87.006"/>
    <polygon fill="#475059" points="103.095 125.006 105.095 125.006 105.095 87.006 103.095 87.006"/>
    <polygon fill="#475059" points="97.087 80.006 111.103 80.006 111.103 78.006 97.087 78.006"/>
    <path fill="#475059" d="M120.912,114.006 L131.26,114.006 C131.672,112.859 132.77,112.037 134.056,112.037 L134.087,112.037 L134.087,107.163 L126.087,82.283 L118.087,107.163 L118.087,112.068 L118.15,112.068 C119.418,112.068 120.502,112.877 120.912,114.006 Z M133.087,116.006 L119.087,116.006 L119.087,115.006 C119.087,114.489 118.667,114.068 118.15,114.068 L116.087,114.068 L116.135,106.7 L126.087,75.75 L136.087,107.006 L136.087,114.037 L134.056,114.037 C133.522,114.037 133.087,114.472 133.087,115.006 L133.087,116.006 Z"/>
    <polygon fill="#475059" points="117.1 108.006 135.087 108.006 135.087 106.006 117.1 106.006"/>
    <polygon fill="#475059" points="97.087 88.006 111.103 88.006 111.103 86.006 97.087 86.006"/>
    <polygon fill="#475059" points="94.087 130.006 114.103 130.006 114.103 128.006 94.087 128.006"/>
    <path fill="#475059" d="M77.087 112.006L79.087 112.006 79.087 110.006 77.087 110.006 77.087 112.006zM81.087 112.006L83.087 112.006 83.087 110.006 81.087 110.006 81.087 112.006zM85.087 112.006L87.087 112.006 87.087 110.006 85.087 110.006 85.087 112.006zM121.087 112.006L123.087 112.006 123.087 110.006 121.087 110.006 121.087 112.006zM125.087 112.006L127.087 112.006 127.087 110.006 125.087 110.006 125.087 112.006zM129.087 112.006L131.087 112.006 131.087 110.006 129.087 110.006 129.087 112.006z"/>
    <path fill="#F58E70" d="M104.087,142.005 C79.234,142.005 59.087,121.858 59.087,97.005 C59.087,72.153 79.234,52.005 104.087,52.005 C128.94,52.005 149.087,72.153 149.087,97.005 C149.087,121.858 128.94,142.005 104.087,142.005 Z M54.084,155.004 L156.085,155.004 L156.085,39.009 L54.084,39.009 L54.084,155.004 Z"/>
    <polygon fill="#48515A" points="189.105 175.986 191.105 175.986 191.105 171.986 189.105 171.986"/>
    <polygon fill="#48515A" points="189.105 185.986 191.105 185.986 191.105 181.986 189.105 181.986"/>
    <polygon fill="#48515A" points="193.105 179.986 197.105 179.986 197.105 177.986 193.105 177.986"/>
    <polygon fill="#48515A" points="183.105 179.986 187.105 179.986 187.105 177.986 183.105 177.986"/>
    <path fill="#F58E70" d="M108.953 195.044C108.953 196.148 108.058 197.044 106.953 197.044 105.849 197.044 104.953 196.148 104.953 195.044 104.953 193.939 105.849 193.044 106.953 193.044 108.058 193.044 108.953 193.939 108.953 195.044M199.007 120.999C199.007 122.104 198.112 122.999 197.007 122.999 195.903 122.999 195.007 122.104 195.007 120.999 195.007 119.895 195.903 118.999 197.007 118.999 198.112 118.999 199.007 119.895 199.007 120.999"/>
    <path fill="#DEDEDD" d="M174.021,85.004 C171.259,85.004 169.021,87.242 169.021,90.004 L169.021,135.996 L167.021,149.996 L165.021,149.996 L165.021,155.996 L167.021,155.996 L167.021,167.993 L165.021,167.993 L165.021,173.993 L174.021,173.993 L174.021,85.004"/>
    <polygon fill="#DEDEDD" points="190.02 207.991 196.651 207.991 196.651 175.368 190.02 175.368"/>
    <polygon fill="#DEDEDD" points="152.021 207.991 158.021 207.991 158.021 175.993 152.021 175.993"/>
    <polygon fill="#DEDEDD" points="132.021 211.991 138.021 211.991 138.021 171.993 132.021 171.993"/>
    <polygon fill="#DEDEDD" points="196.02 211.991 202.02 211.991 202.02 171.993 196.02 171.993"/>
    <path fill="#475059" d="M166.021,172.993 L182.021,172.993 L182.021,168.993 L180.021,168.993 L180.021,154.996 L182.021,154.996 L182.021,150.996 L180.154,150.996 L178.021,135.996 L178.021,90.004 C178.021,87.798 176.226,86.004 174.021,86.004 C171.815,86.004 170.021,87.798 170.021,90.004 L170.01,136.138 L167.888,150.996 L166.021,150.996 L166.021,154.996 L168.021,154.996 L168.021,168.993 L166.021,168.993 L166.021,172.993 Z M184.021,174.993 L164.021,174.993 L164.021,166.993 L166.021,166.993 L166.021,156.996 L164.021,156.996 L164.021,148.996 L166.154,148.996 L168.021,135.925 L168.021,90.004 C168.021,86.695 170.712,84.004 174.021,84.004 C177.329,84.004 180.021,86.695 180.021,90.004 L180.021,135.925 L181.888,148.996 L184.021,148.996 L184.021,156.996 L182.021,156.996 L182.021,166.993 L184.021,166.993 L184.021,174.993 Z"/>
    <polygon fill="#475059" points="167.021 168.993 181.021 168.993 181.021 166.993 167.021 166.993"/>
    <polygon fill="#475059" points="167.021 156.996 181.021 156.996 181.021 154.996 167.021 154.996"/>
    <polygon fill="#475059" points="167.021 150.996 181.021 150.996 181.021 148.996 167.021 148.996"/>
    <polyline fill="#FFD15D" points="159.02 209.991 159.021 173.993 189.021 173.993 189.021 209.991 159.02 209.991"/>
    <path fill="#FFD15D" d="M160.02,208.991 L188.02,208.991 L188.021,174.993 L160.021,174.993 L160.02,208.991 Z M190.02,210.991 L158.02,210.991 L158.021,172.993 L190.021,172.993 L190.02,210.991 Z"/>
    <path fill="#475059" d="M203.02,212.991 L209.02,212.991 L209.02,210.991 L214.02,210.991 C214.571,210.991 215.02,210.543 215.02,209.991 L215.02,173.993 C215.02,173.441 214.571,172.993 214.02,172.993 L209.02,172.993 L209.02,170.993 L203.02,170.993 L203.02,172.993 L198.02,172.993 C197.469,172.993 197.02,173.441 197.02,173.993 L197.02,209.991 C197.02,210.543 197.469,210.991 198.02,210.991 L203.02,210.991 L203.02,212.991 Z M211.02,214.991 L201.02,214.991 L201.02,212.991 L198.02,212.991 C196.365,212.991 195.02,211.646 195.02,209.991 L195.02,173.993 C195.02,172.339 196.365,170.993 198.02,170.993 L201.02,170.993 L201.02,168.993 L211.02,168.993 L211.02,170.993 L214.02,170.993 C215.674,170.993 217.02,172.339 217.02,173.993 L217.02,209.991 C217.02,211.646 215.674,212.991 214.02,212.991 L211.02,212.991 L211.02,214.991 Z"/>
    <polygon fill="#475059" points="209.02 211.991 211.02 211.991 211.02 171.993 209.02 171.993"/>
    <polygon fill="#475059" points="201.02 211.991 203.02 211.991 203.02 171.993 201.02 171.993"/>
    <path fill="#475059" d="M139.021,212.991 L145.021,212.991 L145.021,210.991 L150.021,210.991 C150.573,210.991 151.021,210.543 151.021,209.991 L151.021,173.993 C151.021,173.441 150.573,172.993 150.021,172.993 L145.021,172.993 L145.021,170.993 L139.021,170.993 L139.021,172.993 L134.021,172.993 C133.47,172.993 133.021,173.441 133.021,173.993 L133.021,209.991 C133.021,210.543 133.47,210.991 134.021,210.991 L139.021,210.991 L139.021,212.991 Z M147.021,214.991 L137.021,214.991 L137.021,212.991 L134.021,212.991 C132.367,212.991 131.021,211.646 131.021,209.991 L131.021,173.993 C131.021,172.339 132.367,170.993 134.021,170.993 L137.021,170.993 L137.021,168.993 L147.021,168.993 L147.021,170.993 L150.021,170.993 C151.676,170.993 153.021,172.339 153.021,173.993 L153.021,209.991 C153.021,211.646 151.676,212.991 150.021,212.991 L147.021,212.991 L147.021,214.991 Z"/>
    <polygon fill="#475059" points="145.021 211.991 147.021 211.991 147.021 171.993 145.021 171.993"/>
    <polygon fill="#475059" points="137.021 211.991 139.021 211.991 139.021 171.993 137.021 171.993"/>
    <polygon fill="#475059" points="189.02 211.991 191.02 211.991 191.02 171.993 189.02 171.993"/>
    <polygon fill="#475059" points="157.021 211.991 159.021 211.991 159.021 171.993 157.021 171.993"/>
    <polygon fill="#475059" points="190.02 176.993 196.02 176.993 196.02 174.993 190.02 174.993"/>
    <polygon fill="#475059" points="190.02 208.991 196.02 208.991 196.02 206.991 190.02 206.991"/>
    <polygon fill="#475059" points="152.021 176.993 158.021 176.993 158.021 174.993 152.021 174.993"/>
    <polygon fill="#475059" points="152.021 208.991 158.021 208.991 158.021 206.991 152.021 206.991"/>
    <polygon fill="#48515A" points="213.053 145.953 215.053 145.953 215.053 141.953 213.053 141.953"/>
    <polygon fill="#48515A" points="213.053 155.953 215.053 155.953 215.053 151.953 213.053 151.953"/>
    <polygon fill="#48515A" points="217.053 149.953 221.053 149.953 221.053 147.953 217.053 147.953"/>
    <polygon fill="#48515A" points="207.053 149.953 211.053 149.953 211.053 147.953 207.053 147.953"/>
    <polygon fill="#48515A" points="34.946 185.977 36.946 185.977 36.946 181.977 34.946 181.977"/>
    <polygon fill="#48515A" points="34.946 195.977 36.946 195.977 36.946 191.977 34.946 191.977"/>
    <polygon fill="#48515A" points="38.946 189.977 42.946 189.977 42.946 187.977 38.946 187.977"/>
    <polygon fill="#48515A" points="28.946 189.977 32.946 189.977 32.946 187.977 28.946 187.977"/>
    <path fill="#F58E70" d="M211.006,88.966 C211.006,90.07 210.111,90.966 209.006,90.966 C207.902,90.966 207.006,90.07 207.006,88.966 C207.006,87.861 207.902,86.966 209.006,86.966 C210.111,86.966 211.006,87.861 211.006,88.966"/>
    <path fill="#475059" d="M131.018,50.959 L200.516,50.99 C200.517,50.99 200.518,50.99 200.519,50.99 C201.455,50.99 202.336,50.626 202.998,49.966 C203.66,49.304 204.025,48.424 204.025,47.487 C204.024,45.554 202.448,43.977 200.512,43.976 L130.633,43.945 L125.167,47.426 L131.018,50.959 Z M200.519,52.99 C200.517,52.99 200.516,52.99 200.514,52.99 L130.46,52.959 L121.373,47.471 L130.051,41.945 L200.513,41.976 C203.552,41.979 206.024,44.451 206.025,47.487 C206.025,48.958 205.452,50.341 204.411,51.381 C203.371,52.419 201.989,52.99 200.519,52.99 Z"/>
    <polyline fill="#475059" points="192.751 51.983 192.749 42.97 194.749 42.97 194.751 51.983 192.751 51.983"/>
    <polygon fill="#475059" points="129.342 51.69 131.342 51.69 131.342 43.205 129.342 43.205"/>
    <polygon fill="#475059" points="130.827 48.448 193.682 48.448 193.682 46.448 130.827 46.448"/>
  </g>
</svg>
