<svg xmlns="http://www.w3.org/2000/svg" width="250" height="250" viewBox="0 0 250 250">
  <g fill="none" fill-rule="evenodd">
    <polygon fill="#FFD15D" points="107.95 216.999 141.946 216.999 141.946 78.999 107.95 78.999"/>
    <path fill="#475059" d="M97.95,219 L151.946,219 L151.946,215 L143.946,215 L143.946,205 L151.946,205 L151.946,201 L143.946,201 L143.946,95 L151.946,95 L151.946,91 L143.946,91 L143.946,81 L151.946,81 L151.946,77 L97.95,77 L97.95,81 L105.95,81 L105.95,91 L97.95,91 L97.95,95 L105.95,95 L105.95,201 L97.95,201 L97.95,205 L105.95,205 L105.95,215 L97.95,215 L97.95,219 Z M153.946,221 L95.95,221 L95.95,213 L103.95,213 L103.95,207 L95.95,207 L95.95,199 L103.95,199 L103.95,97 L95.95,97 L95.95,89 L103.95,89 L103.95,83 L95.95,83 L95.95,75 L153.946,75 L153.946,83 L145.946,83 L145.946,89 L153.946,89 L153.946,97 L145.946,97 L145.946,199 L153.946,199 L153.946,207 L145.946,207 L145.946,213 L153.946,213 L153.946,221 Z"/>
    <path fill="#475059" d="M97.95 81L151.946 81 151.946 77 97.95 77 97.95 81zM95.95 83L153.946 83 153.946 75 95.95 75 95.95 83zM97.95 95L151.946 95 151.946 91 97.95 91 97.95 95zM95.95 97L153.946 97 153.946 89 95.95 89 95.95 97zM97.95 205L151.946 205 151.946 201 97.95 201 97.95 205zM95.95 207L153.946 207 153.946 199 95.95 199 95.95 207zM97.95 219L151.946 219 151.946 215 97.95 215 97.95 219zM95.95 221L153.946 221 153.946 213 95.95 213 95.95 221zM101.547 39.997L124.948 69.836 148.349 39.997 101.547 39.997zM124.948 73.077L97.437 37.997 152.458 37.997 124.948 73.077z"/>
    <polyline fill="#475059" points="206.131 54.896 149.135 53.896 140.088 53.896 140.088 51.896 149.153 51.896 206.167 52.896 206.131 54.896"/>
    <polyline fill="#475059" points="135.282 59.863 135.282 57.863 150.952 57.863 206.131 56.896 206.167 58.896 150.969 59.863 135.282 59.863"/>
    <path fill="#FFD15D" d="M210.165,55.901 C210.165,57.557 211.508,58.901 213.165,58.901 C214.822,58.901 216.165,57.557 216.165,55.901 C216.165,54.244 214.822,52.901 213.165,52.901 C211.508,52.901 210.165,54.244 210.165,55.901"/>
    <path fill="#FFD15D" d="M213.165,53.901 C212.062,53.901 211.165,54.798 211.165,55.901 C211.165,57.004 212.062,57.901 213.165,57.901 C214.267,57.901 215.165,57.004 215.165,55.901 C215.165,54.798 214.267,53.901 213.165,53.901 Z M213.165,59.901 C210.958,59.901 209.165,58.106 209.165,55.901 C209.165,53.695 210.958,51.901 213.165,51.901 C215.371,51.901 217.165,53.695 217.165,55.901 C217.165,58.106 215.371,59.901 213.165,59.901 Z"/>
    <path fill="#475059" d="M213.165 49.901C209.856 49.901 207.165 52.592 207.165 55.901 207.165 59.209 209.856 61.901 213.165 61.901 216.473 61.901 219.165 59.209 219.165 55.901 219.165 52.592 216.473 49.901 213.165 49.901zM213.165 63.901C208.753 63.901 205.165 60.312 205.165 55.901 205.165 51.489 208.753 47.901 213.165 47.901 217.576 47.901 221.165 51.489 221.165 55.901 221.165 60.312 217.576 63.901 213.165 63.901zM37.837 150.887L75.837 150.887 75.837 146.884C75.837 142.812 78.895 139.44 82.836 138.947L82.836 136.885 30.836 136.885 30.836 138.947C34.778 139.44 37.837 142.811 37.837 146.884L37.837 150.887zM77.837 152.887L35.837 152.887 35.837 146.884C35.837 143.576 33.146 140.885 29.837 140.885L28.838 140.885 28.835 134.885 84.836 134.885 84.836 140.885 83.836 140.885C80.528 140.885 77.837 143.576 77.837 146.884L77.837 152.887z"/>
    <polyline fill="#475059" points="80.918 127.889 78.918 127.889 78.918 127.016 61.337 58.465 63.274 57.968 80.918 126.764 80.918 127.889"/>
    <path fill="#FFD15D" d="M39.837,148.887 L73.837,148.887 L73.837,146.883 C73.837,143.616 75.411,140.711 77.843,138.884 L35.831,138.884 C38.262,140.711 39.837,143.616 39.837,146.883 L39.837,148.887"/>
    <path fill="#475059" d="M43.918,154.889 L69.918,154.889 L69.918,152.889 L43.918,152.889 L43.918,154.889 Z M41.918,156.889 L71.918,156.889 L71.918,150.889 L41.918,150.889 L41.918,156.889 Z"/>
    <polyline fill="#475059" points="34.916 127.881 32.917 127.881 32.954 126.611 55.078 47.901 60.605 47.901 62.049 53.344 60.115 53.856 59.066 49.901 56.594 49.901 34.916 127.019 34.916 127.881"/>
    <polygon fill="#475059" points="32.918 135.889 34.918 135.889 34.918 129.889 32.918 129.889"/>
    <polygon fill="#475059" points="79.002 135.889 81.002 135.889 81.002 129.896 79.002 129.896"/>
    <path fill="#475059" d="M173.918,150.887 L211.918,150.887 L211.918,146.884 C211.918,142.812 214.977,139.44 218.917,138.947 L218.917,136.885 L166.917,136.885 L166.917,138.947 C170.859,139.44 173.918,142.811 173.918,146.884 L173.918,150.887 Z M213.918,152.887 L171.918,152.887 L171.918,146.884 C171.918,143.576 169.227,140.885 165.919,140.885 L164.919,140.885 L164.917,134.885 L220.917,134.885 L220.917,140.885 L219.917,140.885 C216.61,140.885 213.918,143.576 213.918,146.884 L213.918,152.887 Z"/>
    <polyline fill="#475059" points="217 127.889 215 127.889 215 127.016 197.418 58.465 199.356 57.968 217 126.764 217 127.889"/>
    <path fill="#FFD15D" d="M175.918,148.887 L209.918,148.887 L209.918,146.883 C209.918,143.616 211.493,140.711 213.924,138.884 L171.912,138.884 C174.343,140.711 175.918,143.616 175.918,146.883 L175.918,148.887"/>
    <path fill="#475059" d="M180,154.889 L206,154.889 L206,152.889 L180,152.889 L180,154.889 Z M178,156.889 L208,156.889 L208,150.889 L178,150.889 L178,156.889 Z"/>
    <polyline fill="#475059" points="170.999 127.881 168.999 127.881 169.036 126.611 191.16 47.901 196.687 47.901 198.13 53.344 196.197 53.856 195.148 49.901 192.675 49.901 170.999 127.019 170.999 127.881"/>
    <polygon fill="#475059" points="169 135.889 171 135.889 171 129.889 169 129.889"/>
    <polygon fill="#475059" points="215.083 135.889 217.083 135.889 217.083 129.896 215.083 129.896"/>
    <polyline fill="#475059" points="44.252 54.896 44.217 52.896 101.214 51.896 110.295 51.896 110.295 53.896 101.231 53.896 44.252 54.896"/>
    <polyline fill="#475059" points="115.102 59.863 99.432 59.863 44.217 58.896 44.252 56.896 99.45 57.863 115.102 57.863 115.102 59.863"/>
    <path fill="#FFD15D" d="M40.219,55.901 C40.219,57.557 38.876,58.901 37.219,58.901 C35.562,58.901 34.219,57.557 34.219,55.901 C34.219,54.244 35.562,52.901 37.219,52.901 C38.876,52.901 40.219,54.244 40.219,55.901"/>
    <path fill="#FFD15D" d="M37.219,53.901 C36.116,53.901 35.219,54.798 35.219,55.901 C35.219,57.004 36.116,57.901 37.219,57.901 C38.322,57.901 39.219,57.004 39.219,55.901 C39.219,54.798 38.322,53.901 37.219,53.901 Z M37.219,59.901 C35.013,59.901 33.219,58.106 33.219,55.901 C33.219,53.695 35.013,51.901 37.219,51.901 C39.424,51.901 41.219,53.695 41.219,55.901 C41.219,58.106 39.424,59.901 37.219,59.901 Z"/>
    <path fill="#475059" d="M37.219 49.901C33.91 49.901 31.219 52.592 31.219 55.901 31.219 59.209 33.91 61.901 37.219 61.901 40.527 61.901 43.219 59.209 43.219 55.901 43.219 52.592 40.527 49.901 37.219 49.901zM37.219 63.901C32.808 63.901 29.219 60.312 29.219 55.901 29.219 51.489 32.808 47.901 37.219 47.901 41.63 47.901 45.219 51.489 45.219 55.901 45.219 60.312 41.63 63.901 37.219 63.901zM121.948 194L127.948 194 127.948 102 121.948 102 121.948 194zM119.948 196L129.948 196 129.948 100 119.948 100 119.948 196zM105.948 194L111.948 194 111.948 102 105.948 102 105.948 194zM103.948 196L113.948 196 113.948 100 103.948 100 103.948 196zM137.948 194L143.948 194 143.948 102 137.948 102 137.948 194zM135.948 196L145.948 196 145.948 100 135.948 100 135.948 196z"/>
    <polyline fill="#F58E70" points="105.657 41.996 124.948 66.596 144.239 41.997 105.657 41.996"/>
    <polygon fill="#48515A" points="194.948 185 196.948 185 196.948 181 194.948 181"/>
    <polygon fill="#48515A" points="194.948 195 196.948 195 196.948 191 194.948 191"/>
    <polygon fill="#48515A" points="198.948 189 202.948 189 202.948 187 198.948 187"/>
    <polygon fill="#48515A" points="188.948 189 192.948 189 192.948 187 188.948 187"/>
    <polygon fill="#48515A" points="74.948 33 76.948 33 76.948 29 74.948 29"/>
    <polygon fill="#48515A" points="74.948 43 76.948 43 76.948 39 74.948 39"/>
    <polygon fill="#48515A" points="78.948 37 82.948 37 82.948 35 78.948 35"/>
    <polygon fill="#48515A" points="68.948 37 72.948 37 72.948 35 68.948 35"/>
    <path fill="#F58E70" d="M78.948,179 C78.948,180.105 79.843,181 80.948,181 C82.052,181 82.948,180.105 82.948,179 C82.948,177.896 82.052,177 80.948,177 C79.843,177 78.948,177.896 78.948,179"/>
    <path fill="#5FE0ED" d="M170.948,73 C170.948,74.105 170.052,75 168.948,75 C167.843,75 166.948,74.105 166.948,73 C166.948,71.896 167.843,71 168.948,71 C170.052,71 170.948,71.896 170.948,73"/>
    <path fill="#FFD15D" d="M182.948 209C182.948 207.896 183.843 207 184.948 207 186.052 207 186.948 207.896 186.948 209 186.948 210.105 186.052 211 184.948 211 183.843 211 182.948 210.105 182.948 209M64.948 199C64.948 200.105 64.052 201 62.948 201 61.843 201 60.948 200.105 60.948 199 60.948 197.896 61.843 197 62.948 197 64.052 197 64.948 197.896 64.948 199"/>
    <path fill="#475059" d="M83.4,116 C83.399,116 83.398,116 83.397,116 L59.955,115.994 C56.643,115.994 53.948,113.298 53.948,109.984 C53.948,108.379 54.573,106.87 55.707,105.735 C56.842,104.601 58.35,103.976 59.954,103.976 C59.955,103.976 59.956,103.976 59.956,103.976 L83.399,103.982 C85.607,103.982 87.403,105.78 87.403,107.988 C87.403,109.058 86.987,110.064 86.23,110.821 C85.474,111.576 84.469,111.993 83.399,111.993 L83.398,111.993 L58.954,111.987 L58.954,109.987 L83.398,109.993 C83.399,109.993 83.399,109.993 83.399,109.993 C83.935,109.993 84.437,109.784 84.816,109.406 C85.195,109.028 85.403,108.524 85.403,107.988 C85.403,106.882 84.504,105.982 83.398,105.982 L59.956,105.976 L59.955,105.976 C58.884,105.976 57.878,106.393 57.122,107.15 C56.365,107.906 55.948,108.913 55.948,109.984 C55.948,112.195 57.746,113.994 59.956,113.994 L83.398,114 C83.399,114 83.399,114 83.4,114 C85.005,114 86.514,113.375 87.649,112.24 C88.785,111.105 89.41,109.595 89.41,107.989 C89.41,104.674 86.713,101.975 83.398,101.974 L58.955,101.969 L58.955,99.968 L83.399,99.974 C87.816,99.975 91.41,103.571 91.41,107.989 C91.41,110.13 90.576,112.141 89.063,113.655 C87.55,115.167 85.539,116 83.4,116"/>
  </g>
</svg>
