<svg xmlns="http://www.w3.org/2000/svg" width="250" height="250" viewBox="0 0 250 250">
  <g fill="none" fill-rule="evenodd">
    <path fill="#F58E70" d="M90.936,153.768 L90.936,65.791 L90.003,65.791 C85.04,65.791 81.003,69.828 81.003,74.791 L81.003,156.775 C83.512,154.888 86.629,153.768 90.003,153.768 L90.936,153.768"/>
    <polyline fill="#F58E70" points="107.777 153.774 113.777 153.774 143.778 153.775 149.778 153.775 149.778 153.769 107.777 153.769 107.777 153.774"/>
    <path fill="#475059" d="M171.983,181.768 L90.003,181.768 C82.835,181.768 77.003,175.936 77.003,168.768 L77.003,74.79 C77.003,67.623 82.835,61.79 90.003,61.79 L172.983,61.79 L172.983,116.75 L170.983,116.75 L170.983,63.79 L90.003,63.79 C83.938,63.79 79.003,68.725 79.003,74.79 L79.003,168.768 C79.003,174.833 83.938,179.768 90.003,179.768 L171.983,179.768 L171.983,181.768"/>
    <polygon fill="#475059" points="170.983 156.768 172.983 156.768 172.983 151.774 170.983 151.774"/>
    <path fill="#475059" d="M79.003,168.768 L77.003,168.768 C77.003,161.6 82.835,155.768 90.003,155.768 L171.983,155.768 L171.983,157.768 L90.003,157.768 C83.938,157.768 79.003,162.703 79.003,168.768"/>
    <path fill="#475059" d="M171.983,181.768 L90.003,181.768 C82.835,181.768 77.003,175.936 77.003,168.768 C77.003,161.6 82.835,155.768 90.003,155.768 L172.982,155.768 L172.982,157.768 L90.003,157.768 C83.938,157.768 79.003,162.703 79.003,168.768 C79.003,174.833 83.938,179.768 90.003,179.768 L171.983,179.768 L171.983,181.768"/>
    <path fill="#475059" d="M170.982,177.768 L90.003,177.768 C85.04,177.768 81.003,173.731 81.003,168.768 C81.003,163.805 85.04,159.768 90.003,159.768 L170.982,159.768 L170.982,161.768 L90.003,161.768 C86.144,161.768 83.003,164.909 83.003,168.768 C83.003,172.627 86.144,175.768 90.003,175.768 L170.982,175.768 L170.982,177.768"/>
    <path fill="#475059" d="M168.981,173.768 L90.003,173.768 C87.247,173.768 85.003,171.525 85.003,168.768 C85.003,166.011 87.247,163.768 90.003,163.768 L168.981,163.768 L168.981,165.768 L90.003,165.768 C88.349,165.768 87.003,167.114 87.003,168.768 C87.003,170.422 88.349,171.768 90.003,171.768 L168.981,171.768 L168.981,173.768"/>
    <polygon fill="#475059" points="90.003 169.768 166.98 169.768 166.98 167.768 90.003 167.768"/>
    <path fill="#F58E70" d="M169.052,116.75 L169.052,65.79 L93.067,65.79 L93.067,153.769 L107.777,153.769 L107.777,142.771 L110.277,142.771 L103.914,132.167 C102.516,129.836 101.777,127.167 101.777,124.449 L101.777,100.759 L106.706,100.773 C107.737,100.777 108.733,100.938 109.669,101.233 L106.901,91.373 C106.06,88.631 106.133,86.249 107.138,84.362 C107.721,83.269 108.917,81.811 111.312,81.085 L111.441,81.046 C113.329,80.474 115.322,80.666 117.047,81.59 C117.419,81.789 117.763,82.021 118.087,82.275 C118.772,81.761 119.552,81.348 120.42,81.085 L120.556,81.045 C122.44,80.471 124.431,80.666 126.157,81.591 C127.165,82.132 128.006,82.889 128.636,83.798 C129.135,83.506 129.672,83.261 130.249,83.086 L130.366,83.051 C132.268,82.472 134.261,82.665 135.986,83.591 C137.662,84.489 138.883,85.979 139.425,87.783 L139.771,88.932 C141.428,88.614 143.117,88.864 144.606,89.663 C146.282,90.561 147.503,92.051 148.045,93.855 L152.819,109.732 C152.908,110.028 152.951,110.336 152.946,110.645 L152.861,115.822 C152.861,124.131 151.24,132.302 148.043,140.058 L146.925,142.772 L149.777,142.772 L149.778,153.769 L164.005,153.769 L164.005,147.672 L167.007,144.67 L167.007,142.628 C165.726,144.151 163.81,145.125 161.67,145.129 L160.941,145.13 C160.937,145.13 160.932,145.13 160.928,145.13 C159.064,145.13 157.311,144.404 155.99,143.087 C154.667,141.766 153.939,140.009 153.939,138.14 L153.939,137.328 L159.157,122.75 L155.939,122.75 L155.939,116.75 L169.052,116.75"/>
    <path fill="#5FE0ED" d="M106.777,153.774 L106.777,214.118 C112.892,215.835 119.333,216.773 125.997,216.773 C134.714,216.773 143.061,215.194 150.777,212.319 L150.777,153.775 L106.777,153.774"/>
    <path fill="#48515A" d="M140.792,162.776 L136.792,162.776 C136.24,162.776 135.792,162.329 135.792,161.776 C135.792,161.223 136.24,160.776 136.792,160.776 L140.792,160.776 C141.344,160.776 141.792,161.223 141.792,161.776 C141.792,162.329 141.344,162.776 140.792,162.776"/>
    <path fill="#48515A" d="M142.792,160.776 C142.24,160.776 141.792,161.224 141.792,161.776 C141.792,162.328 142.24,162.777 142.792,162.777 C143.343,162.777 143.792,162.329 143.792,161.777 C143.792,161.225 143.343,160.776 142.792,160.776 Z M142.792,164.777 C141.137,164.777 139.792,163.43 139.792,161.776 C139.792,160.122 141.137,158.776 142.792,158.776 C144.446,158.776 145.792,160.123 145.792,161.777 C145.792,163.431 144.446,164.777 142.792,164.777 Z"/>
    <polyline fill="#48515A" points="147.777 153.775 145.777 153.775 145.777 146.773 111.777 146.772 111.777 153.775 109.777 153.775 109.777 144.772 147.777 144.773 147.777 153.775"/>
    <path fill="#48515A" d="M122.782,112.398 C122.102,112.398 121.884,112.124 121.814,111.395 L121.782,111.394 L121.786,110.783 C121.782,110.563 121.782,110.317 121.782,110.042 L121.781,104.388 L117.334,89.602 C116.5,86.828 118.145,83.866 121.001,82.999 L121.125,82.961 C122.505,82.541 123.958,82.681 125.21,83.353 C126.416,83.998 127.292,85.066 127.681,86.358 L133.055,103.737 L133.055,110.783 L131.055,110.783 L131.055,103.889 L125.768,86.944 C125.532,86.154 124.999,85.508 124.266,85.116 C123.484,84.696 122.576,84.61 121.708,84.874 L121.585,84.913 C119.779,85.46 118.733,87.305 119.25,89.026 L123.781,104.241 C123.781,108.074 123.782,109.942 123.782,110.783 C123.782,110.824 123.782,110.866 123.782,110.908 C123.782,111.25 123.782,111.381 123.782,111.394 L123.759,111.394 C123.702,111.917 123.499,112.398 122.782,112.398"/>
    <path fill="#48515A" d="M142.326,110.783 L140.326,110.783 L140.326,104.671 L135.594,88.934 C135.361,88.155 134.829,87.509 134.096,87.117 C133.314,86.698 132.407,86.611 131.538,86.876 L131.408,86.915 C129.608,87.46 128.562,89.306 129.08,91.027 L133.013,104.106 L131.097,104.682 L127.164,91.603 C126.33,88.828 127.974,85.866 130.831,84.999 L130.96,84.96 C132.337,84.542 133.789,84.682 135.042,85.354 C136.246,85.999 137.122,87.067 137.51,88.358 L142.326,104.524 L142.326,110.783"/>
    <path fill="#48515A" d="M144.68 145.773L142.68 145.773 142.68 142.773C142.68 142.642 142.706 142.513 142.755 142.392L144.345 138.534C147.341 131.264 148.861 123.607 148.861 115.774L148.944 110.735 144.214 95.006C143.981 94.227 143.449 93.581 142.716 93.189 141.935 92.769 141.027 92.684 140.158 92.948L140.028 92.987C139.488 93.151 138.99 93.443 138.59 93.83L137.198 92.394C137.826 91.787 138.604 91.33 139.45 91.072L139.581 91.033C140.958 90.616 142.409 90.754 143.662 91.426 144.866 92.072 145.742 93.139 146.13 94.43L150.904 110.308C150.933 110.407 150.948 110.509 150.946 110.613L150.861 115.791C150.861 123.87 149.291 131.783 146.195 139.295L144.68 142.971 144.68 145.773M114.777 145.772L112.777 145.772 112.777 143.049 105.629 131.137C104.417 129.118 103.777 126.804 103.777 124.449L103.777 102.763 106.701 102.774C109.075 102.782 111.21 103.833 112.672 105.49L112.672 104.533 108.827 90.832C108.133 88.571 108.157 86.702 108.904 85.301 109.492 84.197 110.498 83.422 111.892 82.999L112.015 82.961C113.399 82.541 114.847 82.681 116.101 83.353 117.306 83.998 118.183 85.066 118.573 86.358L119.077 88.08 117.157 88.642 116.655 86.927C116.422 86.154 115.889 85.508 115.157 85.116 114.375 84.698 113.471 84.611 112.599 84.874L112.476 84.913C111.592 85.18 111.002 85.615 110.668 86.242 110.188 87.143 110.214 88.536 110.746 90.269L114.672 104.395 114.672 110.673C114.673 110.708 114.673 110.741 114.673 110.774L114.673 121.789 112.673 121.789 112.672 110.687C112.626 107.429 109.961 104.785 106.694 104.774L105.777 104.771 105.777 124.449C105.777 126.442 106.319 128.399 107.344 130.108L114.777 142.495 114.777 145.772"/>
    <path fill="#5FE0ED" d="M62.657 120.283C62.657 121.109 61.986 121.78 61.16 121.78 60.333 121.78 59.663 121.109 59.663 120.283 59.663 119.456 60.333 118.786 61.16 118.786 61.986 118.786 62.657 119.456 62.657 120.283M160.747 201.651C160.747 202.595 159.982 203.36 159.038 203.36 158.094 203.36 157.329 202.595 157.329 201.651 157.329 200.707 158.094 199.942 159.038 199.942 159.982 199.942 160.747 200.707 160.747 201.651M189.609 96.259C189.609 96.55 189.845 96.786 190.136 96.786 190.427 96.786 190.663 96.55 190.663 96.259 190.663 95.968 190.427 95.732 190.136 95.732 189.845 95.732 189.609 95.968 189.609 96.259"/>
    <polygon fill="#48515A" points="214.031 171.779 216.031 171.779 216.031 167.779 214.031 167.779"/>
    <polygon fill="#48515A" points="214.031 181.779 216.031 181.779 216.031 177.779 214.031 177.779"/>
    <polygon fill="#48515A" points="217.602 175.779 221.031 175.779 221.031 173.779 217.602 173.779"/>
    <polygon fill="#48515A" points="209.031 175.779 212.459 175.779 212.459 173.779 209.031 173.779"/>
    <polygon fill="#48515A" points="34.969 74.772 36.969 74.772 36.969 70.772 34.969 70.772"/>
    <polygon fill="#48515A" points="34.969 84.772 36.969 84.772 36.969 80.772 34.969 80.772"/>
    <polygon fill="#48515A" points="38.969 78.772 42.969 78.772 42.969 76.772 38.969 76.772"/>
    <polygon fill="#48515A" points="28.969 78.772 32.969 78.772 32.969 76.772 28.969 76.772"/>
    <polygon fill="#48515A" points="193.064 36.727 195.064 36.727 195.064 32.727 193.064 32.727"/>
    <polygon fill="#48515A" points="193.064 46.727 195.064 46.727 195.064 42.727 193.064 42.727"/>
    <polygon fill="#48515A" points="197.064 40.727 201.064 40.727 201.064 38.727 197.064 38.727"/>
    <polygon fill="#48515A" points="187.064 40.727 191.064 40.727 191.064 38.727 187.064 38.727"/>
    <path fill="#475059" d="M96.262,188.791 L61.762,188.8 C59.827,188.802 58.251,190.376 58.25,192.311 C58.25,193.247 58.614,194.126 59.276,194.788 C59.938,195.45 60.819,195.814 61.756,195.814 C61.757,195.814 61.758,195.814 61.759,195.814 L131.257,195.783 L137.107,192.25 L131.643,188.769 L96.262,188.791 Z M61.756,197.814 C60.285,197.814 58.902,197.242 57.862,196.202 C56.822,195.163 56.25,193.781 56.25,192.311 C56.251,189.275 58.724,186.802 61.761,186.8 L96.262,186.791 L96.261,186.791 L132.225,186.769 L140.901,192.294 L131.814,197.783 L61.76,197.814 C61.759,197.814 61.757,197.814 61.756,197.814 Z"/>
    <polyline fill="#475059" points="69.524 196.807 67.524 196.807 67.526 187.793 69.526 187.793 69.524 196.807"/>
    <polygon fill="#475059" points="130.934 196.514 132.934 196.514 132.934 188.029 130.934 188.029"/>
    <polygon fill="#475059" points="68.593 193.272 131.448 193.272 131.448 191.272 68.593 191.272"/>
    <path fill="#475059" d="M157.939,138.023 L157.939,138.139 C157.939,138.939 158.25,139.691 158.817,140.256 C159.381,140.82 160.131,141.13 160.929,141.13 C160.931,141.13 160.932,141.13 160.934,141.13 L161.663,141.128 C163.31,141.125 164.649,139.784 164.649,138.138 L164.649,138.023 L161.293,128.649 L157.939,138.023 Z M160.929,143.13 C159.598,143.13 158.346,142.613 157.404,141.672 C156.459,140.729 155.939,139.474 155.939,138.139 L155.939,137.675 L161.293,122.713 L166.649,137.675 L166.649,138.138 C166.649,140.885 164.415,143.124 161.667,143.128 L160.939,143.13 C160.936,143.13 160.932,143.13 160.929,143.13 Z"/>
    <polygon fill="#475059" points="156.946 138.849 165.649 138.849 165.649 136.849 156.946 136.849"/>
    <polyline fill="#475059" points="171.981 124.543 168.615 120.75 155.938 120.75 155.938 118.75 169.513 118.75 171.981 121.53 174.448 118.75 187.938 118.75 187.938 120.75 175.346 120.75 171.981 124.543"/>
    <polyline fill="#475059" points="168.005 150.848 166.005 150.848 166.005 148.5 169.007 145.498 169.007 127.525 171.007 127.525 171.007 146.326 168.005 149.329 168.005 150.848"/>
    <polyline fill="#475059" points="177.876 150.848 175.876 150.848 175.876 149.325 172.878 146.326 172.878 127.525 174.878 127.525 174.878 145.498 177.876 148.497 177.876 150.848"/>
    <polygon fill="#475059" points="168.552 124.654 175.333 124.654 175.333 122.654 168.552 122.654"/>
    <path fill="#475059" d="M179.233,138.005 C179.271,138.747 179.578,139.438 180.107,139.966 C180.671,140.53 181.422,140.84 182.22,140.84 C182.221,140.84 182.223,140.84 182.225,140.84 L182.955,140.839 C184.547,140.836 185.853,139.58 185.935,138.005 L182.584,128.322 L179.233,138.005 Z M182.219,142.84 C180.888,142.84 179.636,142.323 178.694,141.381 C177.75,140.439 177.229,139.184 177.229,137.85 L177.229,137.682 L182.584,122.207 L187.939,137.681 L187.939,137.849 C187.939,140.596 185.705,142.834 182.958,142.839 L182.228,142.84 C182.225,142.84 182.222,142.84 182.219,142.84 Z"/>
    <polygon fill="#475059" points="178.236 138.849 186.939 138.849 186.939 136.849 178.236 136.849"/>
    <polygon fill="#475059" points="168.552 128.525 175.333 128.525 175.333 126.525 168.552 126.525"/>
    <polygon fill="#475059" points="170.007 146.912 173.878 146.912 173.878 144.912 170.007 144.912"/>
    <path fill="#475059" d="M126.84,43.292 C126.291,43.283 125.851,42.823 125.861,42.273 C125.871,41.712 126.331,41.283 126.88,41.292 C127.431,41.303 127.871,41.763 127.861,42.313 C127.851,42.853 127.401,43.292 126.861,43.292 C126.851,43.292 126.84,43.292 126.84,43.292 Z M122.88,43.292 C122.331,43.313 121.871,42.873 121.861,42.323 C121.851,41.773 122.281,41.313 122.84,41.292 C123.391,41.283 123.851,41.723 123.861,42.273 C123.871,42.823 123.431,43.283 122.88,43.292 Z M130.791,43.462 C130.231,43.422 129.821,42.953 129.861,42.403 C129.891,41.842 130.371,41.433 130.92,41.462 C131.471,41.502 131.891,41.983 131.851,42.533 C131.821,43.063 131.38,43.462 130.851,43.462 C130.831,43.462 130.811,43.462 130.791,43.462 Z M117.871,42.553 C117.831,42.002 118.25,41.523 118.8,41.483 C119.351,41.443 119.821,41.863 119.861,42.413 C119.901,42.962 119.491,43.443 118.941,43.483 C118.911,43.483 118.891,43.483 118.861,43.483 C118.34,43.483 117.911,43.082 117.871,42.553 Z M134.721,43.813 L134.721,43.823 C134.17,43.752 133.781,43.263 133.84,42.712 C133.901,42.163 134.401,41.773 134.951,41.832 C135.5,41.893 135.891,42.382 135.831,42.933 C135.771,43.443 135.34,43.823 134.84,43.823 C134.8,43.823 134.761,43.823 134.721,43.813 Z M113.891,42.962 C113.831,42.422 114.221,41.922 114.771,41.853 C115.321,41.792 115.811,42.183 115.88,42.733 C115.941,43.283 115.55,43.783 115,43.842 C114.96,43.853 114.92,43.853 114.88,43.853 C114.38,43.853 113.951,43.473 113.891,42.962 Z M138.641,44.353 C138.09,44.263 137.721,43.752 137.811,43.203 C137.901,42.663 138.411,42.292 138.96,42.373 C139.5,42.462 139.871,42.973 139.791,43.523 C139.71,44.013 139.281,44.363 138.8,44.363 C138.75,44.363 138.691,44.363 138.641,44.353 Z M109.941,43.563 C109.851,43.013 110.221,42.502 110.761,42.413 C111.311,42.323 111.821,42.693 111.911,43.243 C112,43.783 111.63,44.303 111.081,44.382 L111.09,44.382 C111.031,44.393 110.981,44.403 110.92,44.403 C110.441,44.403 110.021,44.053 109.941,43.563 Z M142.531,45.063 C141.991,44.953 141.641,44.422 141.75,43.882 C141.861,43.342 142.391,42.993 142.931,43.103 C143.471,43.212 143.821,43.743 143.71,44.283 C143.611,44.763 143.191,45.082 142.731,45.082 C142.661,45.082 142.59,45.073 142.531,45.063 Z M106.011,44.342 C105.901,43.803 106.25,43.273 106.791,43.153 C107.331,43.042 107.861,43.393 107.971,43.933 C108.081,44.462 107.741,45.002 107.201,45.113 C107.13,45.132 107.061,45.132 107,45.132 C106.531,45.132 106.111,44.813 106.011,44.342 Z M146.38,45.953 C145.84,45.823 145.521,45.273 145.661,44.743 C145.791,44.203 146.34,43.882 146.871,44.013 C147.411,44.153 147.731,44.703 147.59,45.233 C147.481,45.683 147.071,45.983 146.63,45.983 C146.541,45.983 146.46,45.973 146.38,45.953 Z M102.13,45.292 C101.991,44.763 102.321,44.212 102.851,44.082 C102.851,44.082 102.851,44.082 102.851,44.073 C103.38,43.943 103.931,44.252 104.071,44.792 C104.21,45.332 103.88,45.873 103.351,46.013 C103.271,46.033 103.181,46.042 103.101,46.042 C102.651,46.042 102.25,45.743 102.13,45.292 Z M150.181,47.023 C149.651,46.863 149.361,46.303 149.521,45.773 C149.681,45.243 150.241,44.953 150.771,45.113 C151.3,45.273 151.59,45.832 151.431,46.363 C151.3,46.792 150.901,47.063 150.481,47.063 C150.38,47.063 150.281,47.053 150.181,47.023 Z M98.3,46.433 C98.141,45.903 98.431,45.342 98.96,45.183 C99.491,45.013 100.05,45.313 100.21,45.842 C100.371,46.373 100.081,46.933 99.55,47.092 C99.451,47.123 99.351,47.132 99.251,47.132 C98.831,47.132 98.431,46.863 98.3,46.433 Z M153.941,48.273 C153.42,48.082 153.151,47.513 153.34,46.993 C153.521,46.473 154.101,46.203 154.621,46.382 C154.621,46.382 154.621,46.382 154.611,46.382 C155.141,46.573 155.411,47.143 155.221,47.663 C155.081,48.073 154.691,48.323 154.281,48.323 C154.17,48.323 154.05,48.313 153.941,48.273 Z M94.521,47.743 C94.331,47.223 94.601,46.653 95.121,46.462 C95.641,46.283 96.221,46.553 96.401,47.063 C96.59,47.582 96.321,48.163 95.8,48.342 C95.691,48.382 95.571,48.403 95.46,48.403 C95.05,48.403 94.67,48.153 94.521,47.743 Z M157.641,49.693 C157.13,49.473 156.891,48.893 157.101,48.382 C157.311,47.873 157.891,47.632 158.401,47.842 C158.911,48.042 159.161,48.632 158.951,49.143 C158.791,49.533 158.411,49.763 158.021,49.763 C157.891,49.763 157.761,49.743 157.641,49.693 Z M90.811,49.233 C90.601,48.723 90.84,48.132 91.351,47.922 C91.861,47.712 92.451,47.953 92.661,48.473 C92.871,48.983 92.63,49.563 92.121,49.773 C91.991,49.823 91.861,49.853 91.731,49.853 C91.34,49.853 90.971,49.623 90.811,49.233 Z M161.271,51.283 C160.771,51.042 160.55,50.453 160.791,49.953 C161.021,49.453 161.611,49.233 162.121,49.473 C162.611,49.703 162.831,50.292 162.601,50.792 C162.431,51.163 162.071,51.373 161.691,51.373 C161.55,51.373 161.411,51.342 161.271,51.283 Z M87.181,50.882 C86.941,50.382 87.161,49.792 87.661,49.553 C88.161,49.323 88.751,49.533 88.991,50.033 C89.221,50.533 89.011,51.132 88.511,51.363 C88.371,51.433 88.231,51.462 88.081,51.462 C87.71,51.462 87.351,51.243 87.181,50.882 Z M164.821,53.033 C164.331,52.773 164.141,52.172 164.401,51.683 C164.651,51.193 165.261,51.002 165.741,51.263 C166.231,51.523 166.42,52.123 166.17,52.613 C165.991,52.953 165.641,53.153 165.281,53.153 C165.121,53.153 164.96,53.113 164.821,53.033 Z M83.621,52.703 C83.371,52.212 83.55,51.613 84.04,51.353 C84.531,51.092 85.13,51.283 85.391,51.773 C85.651,52.263 85.46,52.863 84.971,53.123 C84.831,53.203 84.67,53.243 84.511,53.243 C84.151,53.243 83.8,53.042 83.621,52.703 Z M168.281,54.953 C167.8,54.672 167.641,54.063 167.92,53.582 C168.201,53.103 168.811,52.943 169.291,53.223 C169.761,53.502 169.931,54.113 169.651,54.592 C169.46,54.913 169.13,55.082 168.781,55.082 C168.611,55.082 168.441,55.042 168.281,54.953 Z M80.161,54.683 C79.88,54.203 80.04,53.592 80.511,53.313 C80.991,53.033 81.601,53.193 81.88,53.672 C82.161,54.143 82.001,54.763 81.531,55.042 C81.371,55.132 81.191,55.183 81.021,55.183 C80.681,55.183 80.34,55.002 80.161,54.683 Z M171.651,57.023 C171.191,56.723 171.05,56.103 171.351,55.643 C171.661,55.172 172.271,55.042 172.741,55.342 C173.201,55.643 173.331,56.263 173.031,56.733 C172.84,57.023 172.521,57.183 172.191,57.183 C172.011,57.183 171.821,57.132 171.651,57.023 Z M76.79,56.823 C76.481,56.363 76.621,55.743 77.081,55.443 C77.081,55.443 77.081,55.443 77.081,55.433 C77.54,55.132 78.161,55.263 78.46,55.733 C78.761,56.193 78.63,56.813 78.17,57.113 C78.001,57.223 77.811,57.273 77.63,57.273 C77.3,57.273 76.981,57.113 76.79,56.823 Z M174.92,59.252 C174.471,58.933 174.371,58.303 174.691,57.853 C175.011,57.403 175.63,57.303 176.081,57.623 C176.081,57.623 176.081,57.623 176.09,57.623 C176.531,57.943 176.641,58.573 176.321,59.023 C176.121,59.292 175.811,59.433 175.5,59.433 C175.3,59.433 175.101,59.373 174.92,59.252 Z M73.511,59.113 C73.191,58.663 73.29,58.042 73.741,57.712 C74.191,57.393 74.821,57.502 75.141,57.943 C75.46,58.393 75.361,59.023 74.911,59.342 C74.731,59.473 74.531,59.533 74.331,59.533 C74.011,59.533 73.71,59.382 73.511,59.113 Z M178.09,61.623 C177.651,61.283 177.581,60.653 177.92,60.223 C178.261,59.783 178.891,59.712 179.321,60.053 C179.761,60.393 179.831,61.023 179.491,61.453 C179.291,61.703 179,61.832 178.701,61.832 C178.491,61.832 178.271,61.763 178.09,61.623 Z M70.351,61.553 C70.001,61.123 70.081,60.493 70.511,60.143 C70.951,59.803 71.571,59.882 71.92,60.313 C72.261,60.752 72.181,61.373 71.751,61.712 C71.571,61.863 71.351,61.933 71.13,61.933 C70.84,61.933 70.54,61.803 70.351,61.553 Z M181.141,64.132 C180.721,63.773 180.67,63.143 181.031,62.723 C181.401,62.313 182.021,62.263 182.451,62.623 C182.861,62.983 182.911,63.613 182.55,64.033 C182.351,64.263 182.071,64.382 181.791,64.382 C181.561,64.382 181.331,64.303 181.141,64.132 Z M67.29,64.132 C66.931,63.712 66.981,63.083 67.401,62.723 C67.811,62.363 68.451,62.403 68.811,62.823 C69.17,63.243 69.121,63.873 68.71,64.233 C68.521,64.403 68.281,64.483 68.05,64.483 C67.771,64.483 67.491,64.363 67.29,64.132 Z M184.071,66.792 C183.67,66.413 183.651,65.773 184.031,65.373 C184.411,64.973 185.05,64.953 185.451,65.332 C185.851,65.712 185.871,66.342 185.491,66.752 C185.291,66.953 185.021,67.063 184.761,67.063 C184.511,67.063 184.261,66.973 184.071,66.792 Z M64.371,66.853 C63.991,66.453 64.001,65.823 64.401,65.443 C64.8,65.063 65.431,65.073 65.821,65.473 C66.201,65.873 66.181,66.513 65.781,66.893 C65.581,67.073 65.34,67.163 65.09,67.163 C64.831,67.163 64.561,67.063 64.371,66.853 Z M186.88,69.573 C186.5,69.172 186.511,68.542 186.911,68.153 C187.3,67.773 187.941,67.783 188.321,68.183 C188.701,68.582 188.691,69.212 188.291,69.592 C188.101,69.783 187.851,69.873 187.601,69.873 C187.34,69.873 187.081,69.773 186.88,69.573 Z M61.561,69.703 C61.161,69.323 61.151,68.693 61.531,68.292 C61.92,67.893 62.55,67.882 62.951,68.263 C63.351,68.643 63.361,69.283 62.981,69.672 C62.781,69.882 62.521,69.983 62.25,69.983 C62.011,69.983 61.761,69.893 61.561,69.703 Z M189.561,72.473 C189.201,72.063 189.231,71.433 189.651,71.063 C190.061,70.703 190.701,70.743 191.061,71.153 C191.431,71.573 191.38,72.203 190.971,72.563 C190.781,72.733 190.541,72.813 190.311,72.813 C190.031,72.813 189.761,72.703 189.561,72.473 Z M58.891,72.683 C58.471,72.313 58.431,71.683 58.8,71.273 C59.161,70.853 59.79,70.813 60.21,71.172 C60.621,71.542 60.661,72.172 60.3,72.592 C60.101,72.813 59.831,72.933 59.55,72.933 C59.321,72.933 59.081,72.853 58.891,72.683 Z M192.101,75.502 C191.75,75.073 191.831,74.443 192.261,74.092 C192.691,73.752 193.321,73.823 193.661,74.252 C194.011,74.683 193.941,75.313 193.511,75.653 C193.321,75.803 193.101,75.873 192.88,75.873 C192.59,75.873 192.3,75.743 192.101,75.502 Z M56.361,75.773 C55.92,75.433 55.861,74.803 56.201,74.373 C56.54,73.943 57.17,73.873 57.601,74.212 C58.04,74.563 58.111,75.193 57.761,75.623 C57.561,75.873 57.271,75.993 56.981,75.993 C56.761,75.993 56.54,75.922 56.361,75.773 Z M194.5,78.632 L194.5,78.643 C194.181,78.193 194.271,77.563 194.721,77.243 C195.17,76.913 195.791,77.013 196.121,77.462 C196.441,77.903 196.34,78.533 195.901,78.863 C195.721,78.983 195.511,79.053 195.311,79.053 C195,79.053 194.701,78.903 194.5,78.632 Z M53.971,78.993 C53.521,78.663 53.42,78.033 53.75,77.592 C54.071,77.143 54.691,77.042 55.141,77.373 C55.59,77.693 55.691,78.323 55.361,78.763 L55.371,78.763 C55.17,79.033 54.861,79.183 54.55,79.183 C54.351,79.183 54.141,79.113 53.971,78.993 Z M196.761,81.882 C196.451,81.422 196.581,80.803 197.041,80.493 C197.5,80.193 198.121,80.313 198.42,80.783 C198.731,81.233 198.601,81.853 198.141,82.163 C197.971,82.273 197.781,82.332 197.59,82.332 C197.271,82.332 196.951,82.172 196.761,81.882 Z M51.731,82.303 C51.271,82.002 51.141,81.382 51.441,80.922 C51.75,80.453 52.371,80.332 52.831,80.632 C53.291,80.933 53.42,81.553 53.111,82.023 C52.92,82.313 52.601,82.473 52.281,82.473 C52.09,82.473 51.901,82.413 51.731,82.303 Z M198.861,85.223 C198.581,84.752 198.731,84.132 199.21,83.853 C199.681,83.573 200.291,83.723 200.571,84.203 C200.861,84.672 200.701,85.283 200.231,85.573 C200.071,85.663 199.891,85.712 199.721,85.712 C199.38,85.712 199.041,85.533 198.861,85.223 Z M49.641,85.723 C49.17,85.443 49.011,84.823 49.29,84.353 C49.571,83.873 50.191,83.723 50.67,84.002 C51.141,84.283 51.291,84.893 51.011,85.373 C50.821,85.683 50.491,85.863 50.151,85.863 C49.981,85.863 49.8,85.813 49.641,85.723 Z M200.811,88.653 L200.811,88.663 C200.541,88.172 200.721,87.563 201.21,87.303 C201.701,87.043 202.3,87.223 202.571,87.712 C202.831,88.193 202.641,88.803 202.161,89.063 C202.011,89.143 201.84,89.183 201.681,89.183 C201.331,89.183 200.981,88.993 200.811,88.653 Z M47.71,89.233 C47.231,88.973 47.04,88.363 47.3,87.882 C47.561,87.393 48.17,87.203 48.661,87.462 C49.141,87.723 49.331,88.332 49.071,88.823 C48.891,89.153 48.54,89.342 48.181,89.342 C48.021,89.342 47.861,89.313 47.71,89.233 Z M202.59,92.172 C202.351,91.672 202.561,91.082 203.061,90.842 C203.561,90.603 204.151,90.813 204.391,91.313 C204.63,91.813 204.42,92.403 203.92,92.643 C203.781,92.712 203.641,92.743 203.491,92.743 C203.121,92.743 202.761,92.533 202.59,92.172 Z M45.951,92.832 C45.451,92.592 45.241,91.993 45.481,91.493 C45.71,90.993 46.311,90.783 46.811,91.023 C47.311,91.263 47.521,91.853 47.281,92.353 C47.111,92.712 46.751,92.922 46.38,92.922 C46.241,92.922 46.09,92.893 45.951,92.832 Z M204.21,95.773 C203.991,95.263 204.231,94.672 204.741,94.462 C205.25,94.243 205.84,94.483 206.05,94.993 C206.271,95.502 206.031,96.082 205.521,96.303 C205.391,96.353 205.261,96.382 205.13,96.382 C204.741,96.382 204.371,96.153 204.21,95.773 Z M44.361,96.502 C43.851,96.292 43.611,95.703 43.821,95.193 C44.031,94.683 44.621,94.443 45.13,94.663 C45.641,94.873 45.88,95.462 45.661,95.973 L45.661,95.962 C45.5,96.353 45.13,96.582 44.741,96.582 C44.611,96.582 44.481,96.553 44.361,96.502 Z M205.661,99.433 C205.471,98.922 205.731,98.342 206.25,98.153 C206.771,97.962 207.351,98.223 207.541,98.743 C207.731,99.263 207.46,99.832 206.951,100.023 C206.831,100.073 206.71,100.083 206.601,100.083 C206.191,100.083 205.811,99.842 205.661,99.433 Z M42.931,100.252 C42.42,100.063 42.151,99.483 42.34,98.962 C42.34,98.962 42.34,98.962 42.331,98.962 C42.531,98.443 43.101,98.183 43.621,98.373 C44.141,98.563 44.401,99.132 44.21,99.653 C44.071,100.063 43.681,100.313 43.281,100.313 C43.161,100.313 43.04,100.292 42.931,100.252 Z M206.951,103.172 C206.781,102.643 207.071,102.083 207.601,101.913 C208.121,101.752 208.691,102.042 208.851,102.563 C208.851,102.563 208.851,102.563 208.851,102.573 C209.021,103.092 208.731,103.653 208.201,103.823 C208.101,103.853 208,103.873 207.901,103.873 C207.471,103.873 207.081,103.603 206.951,103.172 Z M41.681,104.053 C41.161,103.893 40.861,103.333 41.031,102.803 C41.191,102.273 41.761,101.983 42.29,102.153 C42.811,102.323 43.101,102.882 42.941,103.403 C42.8,103.833 42.411,104.103 41.981,104.103 C41.88,104.103 41.781,104.092 41.681,104.053 Z M208.061,106.962 C207.92,106.433 208.231,105.882 208.771,105.743 C209.3,105.603 209.851,105.913 209.991,106.443 C210.13,106.983 209.821,107.533 209.281,107.672 C209.201,107.693 209.111,107.703 209.021,107.703 C208.581,107.703 208.181,107.413 208.061,106.962 Z M40.611,107.913 C40.081,107.773 39.761,107.223 39.901,106.693 C40.04,106.153 40.59,105.833 41.13,105.973 C41.661,106.123 41.981,106.672 41.84,107.203 C41.721,107.653 41.311,107.943 40.871,107.943 C40.79,107.943 40.701,107.933 40.611,107.913 Z M208.991,110.803 C208.88,110.263 209.221,109.733 209.761,109.613 C210.291,109.493 210.831,109.833 210.951,110.382 C211.061,110.913 210.721,111.453 210.181,111.563 C210.111,111.583 210.041,111.592 209.971,111.592 C209.511,111.592 209.09,111.273 208.991,110.803 Z M39.731,111.813 C39.191,111.693 38.84,111.163 38.96,110.623 C39.081,110.083 39.611,109.743 40.151,109.853 C40.691,109.973 41.031,110.502 40.92,111.042 C40.811,111.513 40.401,111.833 39.941,111.833 C39.871,111.833 39.8,111.823 39.731,111.813 Z M209.75,114.683 C209.651,114.143 210.021,113.623 210.561,113.533 C211.111,113.433 211.63,113.803 211.721,114.342 C211.811,114.893 211.451,115.413 210.901,115.502 C210.84,115.513 210.791,115.513 210.731,115.513 C210.25,115.513 209.831,115.172 209.75,114.683 Z M39.021,115.743 C38.471,115.653 38.111,115.143 38.201,114.592 C38.291,114.053 38.8,113.683 39.351,113.773 C39.891,113.863 40.261,114.382 40.17,114.922 C40.09,115.413 39.661,115.763 39.191,115.763 C39.13,115.763 39.081,115.752 39.021,115.743 Z M210.321,118.592 C210.25,118.042 210.641,117.542 211.191,117.483 C211.741,117.413 212.241,117.803 212.311,118.353 C212.38,118.893 211.991,119.393 211.441,119.462 C211.401,119.473 211.361,119.473 211.321,119.473 C210.821,119.473 210.391,119.103 210.321,118.592 Z M38.491,119.712 C37.941,119.643 37.55,119.143 37.621,118.603 C37.621,118.603 37.621,118.603 37.621,118.592 C37.691,118.053 38.191,117.653 38.731,117.723 C39.281,117.792 39.67,118.292 39.611,118.833 C39.54,119.342 39.111,119.712 38.611,119.712 C38.571,119.712 38.531,119.712 38.491,119.712 Z M210.721,122.523 C210.681,121.973 211.09,121.493 211.641,121.453 C212.191,121.413 212.67,121.823 212.71,122.373 C212.761,122.922 212.34,123.403 211.791,123.443 C211.771,123.453 211.741,123.453 211.71,123.453 C211.201,123.453 210.761,123.053 210.721,122.523 Z M38.151,123.693 C37.601,123.653 37.191,123.172 37.231,122.623 C37.271,122.073 37.751,121.663 38.3,121.703 C38.851,121.743 39.261,122.223 39.221,122.773 C39.181,123.292 38.741,123.693 38.221,123.693 C38.201,123.693 38.17,123.693 38.151,123.693 Z M210.931,126.473 C210.92,125.922 211.351,125.462 211.901,125.443 C212.46,125.422 212.92,125.853 212.931,126.413 C212.951,126.962 212.521,127.422 211.971,127.443 C211.951,127.443 211.941,127.443 211.931,127.443 C211.401,127.443 210.951,127.013 210.931,126.473 Z M37.991,127.693 C37.441,127.672 37.001,127.212 37.021,126.663 C37.031,126.113 37.491,125.672 38.05,125.693 C38.601,125.703 39.031,126.163 39.021,126.723 C39,127.263 38.55,127.693 38.011,127.693 C38.011,127.693 38,127.693 37.991,127.693 Z M210.981,129.273 C210.981,128.723 211.431,128.273 211.981,128.273 C212.531,128.273 212.981,128.723 212.981,129.273 C212.981,129.823 212.531,130.273 211.981,130.273 C211.431,130.273 210.981,129.823 210.981,129.273 Z M36.991,130.703 C36.981,130.153 37.42,129.693 37.971,129.693 C38.531,129.683 38.981,130.123 38.991,130.672 C39,131.223 38.561,131.683 38.011,131.693 C38,131.693 38,131.693 37.991,131.693 C37.451,131.693 37.001,131.252 36.991,130.703 Z M211.84,134.263 C211.291,134.243 210.871,133.773 210.891,133.223 C210.92,132.672 211.38,132.243 211.931,132.273 C212.481,132.292 212.911,132.763 212.891,133.313 C212.861,133.853 212.42,134.273 211.891,134.273 C211.871,134.273 211.861,134.273 211.84,134.263 Z M37.151,134.743 C37.111,134.193 37.531,133.723 38.081,133.683 C38.63,133.653 39.111,134.073 39.141,134.623 C39.17,135.172 38.761,135.653 38.21,135.683 C38.191,135.683 38.17,135.683 38.141,135.683 C37.621,135.683 37.181,135.273 37.151,134.743 Z M211.531,138.252 C210.981,138.203 210.571,137.712 210.621,137.163 C210.67,136.613 211.161,136.212 211.71,136.263 C212.261,136.313 212.67,136.792 212.611,137.353 C212.571,137.873 212.13,138.263 211.621,138.263 C211.59,138.263 211.561,138.252 211.531,138.252 Z M37.491,138.773 C37.431,138.223 37.821,137.733 38.38,137.672 C38.92,137.613 39.42,138.013 39.481,138.563 C39.531,139.113 39.141,139.603 38.59,139.663 C38.55,139.663 38.521,139.672 38.481,139.672 C37.981,139.672 37.541,139.292 37.491,138.773 Z M211.031,142.223 C210.481,142.143 210.101,141.643 210.17,141.092 C210.25,140.542 210.75,140.163 211.3,140.243 C211.851,140.313 212.231,140.823 212.161,141.363 C212.09,141.863 211.661,142.233 211.161,142.233 C211.121,142.233 211.071,142.233 211.031,142.223 Z M38.011,142.783 C37.931,142.243 38.3,141.733 38.851,141.643 C39.391,141.563 39.901,141.933 39.991,142.483 C40.071,143.023 39.701,143.533 39.151,143.623 C39.101,143.632 39.05,143.632 39,143.632 C38.511,143.632 38.09,143.283 38.011,142.783 Z M210.351,146.163 C209.8,146.063 209.441,145.542 209.55,144.993 C209.641,144.453 210.17,144.092 210.71,144.193 C211.25,144.292 211.611,144.813 211.511,145.363 C211.42,145.842 211,146.172 210.531,146.172 C210.471,146.172 210.411,146.172 210.351,146.163 Z M38.721,146.763 C38.721,146.763 38.721,146.763 38.721,146.773 C38.611,146.223 38.96,145.703 39.5,145.592 C40.04,145.483 40.571,145.833 40.681,146.373 C40.79,146.913 40.441,147.443 39.901,147.553 C39.831,147.563 39.761,147.573 39.701,147.573 C39.231,147.573 38.811,147.243 38.721,146.763 Z M209.491,150.063 C208.951,149.943 208.611,149.403 208.741,148.863 C208.861,148.323 209.401,147.993 209.941,148.113 C210.481,148.243 210.811,148.783 210.691,149.323 C210.691,149.323 210.691,149.323 210.681,149.323 C210.581,149.783 210.17,150.092 209.71,150.092 C209.641,150.092 209.561,150.083 209.491,150.063 Z M39.611,150.712 C39.481,150.172 39.8,149.632 40.34,149.502 C40.871,149.363 41.42,149.693 41.55,150.223 C41.681,150.763 41.361,151.303 40.821,151.443 C40.741,151.462 40.661,151.473 40.581,151.473 C40.13,151.473 39.721,151.163 39.611,150.712 Z M208.441,153.922 C207.911,153.773 207.601,153.223 207.75,152.693 C207.901,152.163 208.451,151.853 208.991,152.002 C209.521,152.153 209.831,152.703 209.681,153.233 C209.681,153.233 209.681,153.233 209.67,153.233 C209.55,153.672 209.151,153.962 208.71,153.962 C208.621,153.962 208.531,153.953 208.441,153.922 Z M40.681,154.613 C40.531,154.083 40.821,153.523 41.351,153.373 C41.88,153.212 42.441,153.502 42.601,154.033 L42.601,154.042 C42.761,154.563 42.46,155.123 41.931,155.283 C41.831,155.313 41.741,155.323 41.641,155.323 C41.21,155.323 40.811,155.042 40.681,154.613 Z M207.221,157.733 C206.701,157.563 206.42,156.993 206.59,156.473 C206.761,155.943 207.331,155.663 207.861,155.833 C208.38,156.013 208.661,156.583 208.491,157.103 C208.351,157.523 207.96,157.783 207.541,157.783 C207.431,157.783 207.331,157.773 207.221,157.733 Z M41.931,158.462 C41.75,157.933 42.031,157.363 42.55,157.183 C43.071,157.002 43.641,157.273 43.821,157.792 C44.011,158.313 43.731,158.882 43.21,159.073 C43.101,159.113 42.991,159.123 42.88,159.123 C42.471,159.123 42.081,158.873 41.931,158.462 Z M205.831,161.493 C205.311,161.292 205.05,160.712 205.25,160.193 C205.451,159.683 206.031,159.422 206.541,159.623 C207.061,159.823 207.321,160.403 207.121,160.922 C206.96,161.313 206.581,161.553 206.181,161.553 C206.071,161.553 205.941,161.533 205.831,161.493 Z M43.361,162.243 C43.161,161.733 43.401,161.143 43.92,160.943 C44.431,160.733 45.011,160.983 45.221,161.493 C45.431,162.002 45.181,162.583 44.67,162.792 C44.541,162.842 44.42,162.863 44.291,162.863 C43.901,162.863 43.521,162.632 43.361,162.243 Z M204.25,165.172 C203.75,164.953 203.521,164.363 203.741,163.863 C203.971,163.353 204.55,163.123 205.061,163.342 C205.571,163.573 205.791,164.163 205.571,164.663 C205.411,165.042 205.041,165.263 204.661,165.263 C204.521,165.263 204.38,165.233 204.25,165.172 Z M44.96,165.953 C44.96,165.953 44.96,165.953 44.96,165.943 C44.731,165.443 44.951,164.853 45.46,164.623 C45.96,164.393 46.55,164.613 46.781,165.113 C47.011,165.613 46.791,166.203 46.29,166.443 C46.151,166.502 46.011,166.533 45.871,166.533 C45.491,166.533 45.13,166.313 44.96,165.953 Z M202.521,168.783 C202.021,168.542 201.821,167.943 202.061,167.453 C202.311,166.953 202.911,166.752 203.401,166.993 C203.901,167.243 204.101,167.842 203.851,168.333 C203.681,168.683 203.331,168.893 202.96,168.893 C202.811,168.893 202.661,168.853 202.521,168.783 Z M46.731,169.573 C46.481,169.083 46.67,168.483 47.161,168.233 C47.651,167.973 48.251,168.163 48.511,168.663 C48.761,169.153 48.571,169.752 48.081,170.002 C47.931,170.083 47.781,170.123 47.621,170.123 C47.261,170.123 46.911,169.922 46.731,169.573 Z M200.611,172.313 C200.13,172.042 199.951,171.433 200.221,170.953 C200.491,170.462 201.101,170.292 201.581,170.563 C202.061,170.833 202.241,171.433 201.971,171.922 C201.791,172.252 201.451,172.433 201.101,172.433 C200.931,172.433 200.771,172.393 200.611,172.313 Z M48.67,173.123 C48.391,172.643 48.55,172.033 49.031,171.752 C49.511,171.483 50.121,171.643 50.401,172.123 C50.67,172.603 50.511,173.212 50.031,173.493 C49.88,173.583 49.701,173.623 49.531,173.623 C49.191,173.623 48.851,173.443 48.67,173.123 Z M198.55,175.743 C198.081,175.453 197.931,174.833 198.221,174.363 C198.511,173.893 199.13,173.752 199.601,174.042 C200.071,174.333 200.21,174.943 199.931,175.413 C199.931,175.413 199.931,175.413 199.92,175.413 C199.731,175.723 199.411,175.893 199.071,175.893 C198.891,175.893 198.71,175.842 198.55,175.743 Z M50.761,176.573 C50.46,176.113 50.601,175.493 51.071,175.193 C51.531,174.893 52.151,175.033 52.451,175.502 C52.741,175.962 52.611,176.583 52.141,176.882 C51.981,176.983 51.791,177.033 51.611,177.033 C51.281,177.033 50.951,176.873 50.761,176.573 Z M196.331,179.073 C195.871,178.763 195.761,178.143 196.071,177.683 C196.38,177.233 197,177.113 197.46,177.422 C197.911,177.733 198.031,178.353 197.721,178.813 C197.531,179.092 197.21,179.252 196.891,179.252 C196.701,179.252 196.5,179.193 196.331,179.073 Z M53.011,179.933 C52.691,179.473 52.8,178.853 53.25,178.533 C53.701,178.212 54.331,178.323 54.651,178.773 C54.971,179.223 54.861,179.853 54.411,180.172 C54.231,180.292 54.031,180.353 53.831,180.353 C53.521,180.353 53.21,180.203 53.011,179.933 Z M193.96,182.303 C193.521,181.962 193.431,181.342 193.761,180.903 C194.101,180.462 194.731,180.373 195.17,180.703 C195.601,181.033 195.691,181.663 195.361,182.103 C195.17,182.363 194.871,182.502 194.561,182.502 C194.361,182.502 194.141,182.433 193.96,182.303 Z M55.42,183.172 C55.42,183.172 55.42,183.172 55.42,183.183 C55.081,182.743 55.161,182.113 55.59,181.773 C56.031,181.433 56.661,181.513 57,181.953 C57.34,182.382 57.261,183.013 56.821,183.353 C56.641,183.493 56.42,183.563 56.21,183.563 C55.911,183.563 55.611,183.433 55.42,183.172 Z M191.451,185.413 C191.021,185.063 190.96,184.433 191.321,184.002 C191.67,183.583 192.3,183.523 192.721,183.873 C193.151,184.223 193.21,184.853 192.861,185.283 C192.661,185.523 192.38,185.643 192.09,185.643 C191.861,185.643 191.641,185.573 191.451,185.413 Z M57.971,186.313 C57.611,185.893 57.661,185.263 58.081,184.903 C58.5,184.542 59.13,184.592 59.491,185.013 C59.851,185.433 59.8,186.063 59.38,186.422 C59.191,186.583 58.96,186.663 58.731,186.663 C58.451,186.663 58.17,186.542 57.971,186.313 Z M188.8,188.413 C188.391,188.033 188.361,187.403 188.731,186.993 C189.101,186.583 189.731,186.553 190.141,186.922 C190.55,187.292 190.581,187.933 190.21,188.333 C190.011,188.553 189.741,188.663 189.471,188.663 C189.231,188.663 188.991,188.583 188.8,188.413 Z M60.661,189.333 C60.281,188.922 60.3,188.292 60.71,187.922 C61.111,187.542 61.741,187.563 62.121,187.962 C62.5,188.373 62.481,189.002 62.071,189.382 C61.88,189.563 61.63,189.653 61.391,189.653 C61.121,189.653 60.861,189.542 60.661,189.333 Z M64.891,190.792 C64.88,190.792 64.88,190.792 64.88,190.792 L64.891,190.792 Z M186.011,191.273 C185.621,190.882 185.621,190.252 186.011,189.863 C186.401,189.473 187.031,189.473 187.42,189.863 C187.811,190.252 187.821,190.882 187.431,191.273 C187.231,191.473 186.971,191.563 186.721,191.563 C186.46,191.563 186.21,191.473 186.011,191.273 Z M63.491,192.223 C63.09,191.833 63.081,191.203 63.471,190.803 C63.861,190.413 64.491,190.403 64.891,190.792 C65.281,191.172 65.29,191.813 64.901,192.203 C64.71,192.403 64.451,192.502 64.191,192.502 C63.931,192.502 63.681,192.413 63.491,192.223 Z M183.101,194.023 C182.731,193.613 182.75,192.983 183.161,192.603 C183.571,192.233 184.201,192.252 184.571,192.663 C184.951,193.073 184.92,193.703 184.511,194.073 C184.321,194.252 184.081,194.342 183.831,194.342 C183.571,194.342 183.3,194.233 183.101,194.023 Z M66.451,194.983 C66.451,194.983 66.451,194.983 66.441,194.983 C66.031,194.613 66.001,193.983 66.361,193.573 C66.731,193.153 67.361,193.123 67.781,193.493 C68.191,193.853 68.221,194.493 67.861,194.903 C67.661,195.123 67.38,195.233 67.111,195.233 C66.871,195.233 66.641,195.153 66.451,194.983 Z M180.071,196.623 C179.71,196.203 179.771,195.563 180.191,195.212 C180.611,194.863 181.241,194.913 181.601,195.342 C181.951,195.763 181.891,196.393 181.471,196.743 C181.291,196.903 181.061,196.983 180.831,196.983 C180.55,196.983 180.261,196.853 180.071,196.623 Z M69.531,197.603 C69.531,197.603 69.531,197.603 69.521,197.603 C69.101,197.252 69.031,196.623 69.38,196.193 C69.731,195.773 70.361,195.703 70.79,196.053 C71.21,196.403 71.281,197.033 70.931,197.462 C70.731,197.703 70.451,197.823 70.161,197.823 C69.931,197.823 69.71,197.752 69.531,197.603 Z M176.92,199.083 C176.581,198.643 176.67,198.013 177.111,197.683 C177.541,197.342 178.17,197.433 178.511,197.873 C178.84,198.303 178.761,198.933 178.321,199.273 C178.141,199.413 177.92,199.473 177.71,199.473 C177.411,199.473 177.111,199.342 176.92,199.083 Z M72.721,200.083 C72.281,199.752 72.181,199.132 72.511,198.683 C72.84,198.243 73.471,198.143 73.911,198.473 C74.351,198.803 74.451,199.433 74.121,199.873 C73.92,200.143 73.621,200.283 73.321,200.283 C73.111,200.283 72.901,200.212 72.721,200.083 Z M173.661,201.393 C173.34,200.943 173.46,200.313 173.911,200.002 C174.371,199.693 174.991,199.803 175.3,200.252 C175.621,200.712 175.5,201.333 175.05,201.643 C174.88,201.763 174.681,201.823 174.481,201.823 C174.161,201.823 173.851,201.672 173.661,201.393 Z M76.031,202.413 C75.581,202.103 75.451,201.483 75.761,201.023 C76.071,200.563 76.691,200.443 77.151,200.752 C77.611,201.053 77.731,201.683 77.42,202.143 C77.231,202.422 76.911,202.583 76.59,202.583 C76.401,202.583 76.21,202.533 76.031,202.413 Z M170.3,203.553 C170,203.092 170.151,202.473 170.611,202.172 C171.081,201.882 171.701,202.023 171.991,202.493 C172.291,202.962 172.151,203.583 171.681,203.873 C171.511,203.973 171.331,204.023 171.151,204.023 C170.821,204.023 170.491,203.863 170.3,203.553 Z M79.451,204.592 C78.981,204.303 78.821,203.693 79.111,203.223 C79.391,202.743 80.011,202.592 80.481,202.882 C80.96,203.163 81.111,203.783 80.821,204.252 C80.63,204.563 80.3,204.733 79.96,204.733 C79.79,204.733 79.611,204.693 79.451,204.592 Z M166.84,205.563 C166.571,205.083 166.741,204.462 167.221,204.203 C167.701,203.922 168.311,204.092 168.59,204.573 C168.861,205.053 168.691,205.663 168.21,205.943 C168.05,206.023 167.88,206.073 167.721,206.073 C167.371,206.073 167.031,205.882 166.84,205.563 Z M82.96,206.613 C82.471,206.342 82.29,205.733 82.561,205.252 C82.821,204.763 83.431,204.583 83.911,204.853 C84.401,205.113 84.581,205.723 84.311,206.212 C84.13,206.542 83.79,206.733 83.431,206.733 C83.271,206.733 83.111,206.693 82.96,206.613 Z M163.3,207.403 C163.05,206.913 163.25,206.313 163.741,206.063 C164.241,205.813 164.84,206.013 165.09,206.502 C165.34,206.993 165.141,207.592 164.651,207.842 C164.5,207.922 164.351,207.953 164.201,207.953 C163.831,207.953 163.481,207.752 163.3,207.403 Z M86.561,208.462 C86.061,208.223 85.861,207.623 86.101,207.123 C86.34,206.632 86.941,206.422 87.431,206.663 C87.931,206.903 88.141,207.502 87.901,208.002 C87.721,208.353 87.361,208.563 86.991,208.563 C86.851,208.563 86.701,208.533 86.561,208.462 Z M159.681,209.083 C159.451,208.573 159.681,207.983 160.191,207.763 C160.691,207.533 161.281,207.752 161.511,208.263 C161.731,208.763 161.511,209.353 161,209.583 C160.871,209.643 160.731,209.672 160.601,209.672 C160.21,209.672 159.851,209.453 159.681,209.083 Z M90.241,210.153 C89.731,209.933 89.501,209.342 89.721,208.833 C89.941,208.323 90.531,208.092 91.04,208.313 C91.54,208.533 91.781,209.123 91.561,209.632 C91.391,210.002 91.031,210.233 90.641,210.233 C90.511,210.233 90.371,210.203 90.241,210.153 Z M155.991,210.592 C155.791,210.073 156.041,209.493 156.55,209.292 C157.071,209.083 157.651,209.342 157.851,209.853 C158.05,210.373 157.8,210.953 157.291,211.153 C157.17,211.203 157.041,211.223 156.92,211.223 C156.521,211.223 156.151,210.983 155.991,210.592 Z M94.001,211.663 C93.491,211.473 93.221,210.893 93.42,210.373 C93.621,209.863 94.191,209.603 94.71,209.792 C95.221,209.983 95.491,210.563 95.29,211.083 C95.141,211.483 94.761,211.733 94.361,211.733 C94.241,211.733 94.121,211.712 94.001,211.663 Z M152.221,211.922 C152.041,211.403 152.321,210.833 152.84,210.663 C153.371,210.483 153.931,210.752 154.111,211.283 C154.291,211.803 154.011,212.373 153.491,212.553 C153.38,212.583 153.271,212.603 153.17,212.603 C152.75,212.603 152.361,212.342 152.221,211.922 Z M97.831,213.002 C97.311,212.833 97.021,212.273 97.191,211.743 C97.361,211.223 97.92,210.933 98.451,211.103 C98.971,211.273 99.261,211.833 99.09,212.363 C98.96,212.783 98.561,213.053 98.141,213.053 C98.04,213.053 97.931,213.033 97.831,213.002 Z M148.401,213.092 C148.241,212.563 148.541,212.002 149.081,211.853 L149.081,211.842 C149.611,211.693 150.161,212.002 150.321,212.533 C150.471,213.063 150.161,213.613 149.641,213.773 C149.541,213.792 149.451,213.813 149.361,213.813 C148.92,213.813 148.521,213.523 148.401,213.092 Z M101.71,214.163 C101.17,214.013 100.861,213.462 101.011,212.933 C101.151,212.403 101.701,212.083 102.241,212.233 C102.771,212.373 103.081,212.922 102.941,213.462 C102.811,213.903 102.411,214.193 101.971,214.193 C101.88,214.193 101.791,214.183 101.71,214.163 Z M144.521,214.073 C144.391,213.533 144.721,212.993 145.261,212.863 C145.791,212.733 146.331,213.063 146.46,213.603 C146.59,214.143 146.261,214.683 145.731,214.813 C145.651,214.833 145.571,214.842 145.491,214.842 C145.041,214.842 144.63,214.533 144.521,214.073 Z M105.63,215.132 C105.09,215.013 104.75,214.483 104.88,213.943 C105,213.403 105.531,213.063 106.071,213.183 C106.611,213.303 106.951,213.842 106.831,214.382 C106.721,214.842 106.311,215.163 105.851,215.163 C105.781,215.163 105.71,215.153 105.63,215.132 Z M140.601,214.882 C140.5,214.333 140.851,213.813 141.391,213.703 L141.391,213.712 C141.941,213.603 142.46,213.953 142.571,214.502 C142.67,215.042 142.321,215.563 141.771,215.672 C141.71,215.683 141.651,215.693 141.581,215.693 C141.111,215.693 140.701,215.363 140.601,214.882 Z M109.601,215.933 C109.05,215.833 108.691,215.313 108.791,214.773 C108.88,214.233 109.401,213.863 109.951,213.962 C110.491,214.053 110.851,214.573 110.761,215.123 C110.67,215.603 110.25,215.943 109.771,215.943 C109.721,215.943 109.661,215.943 109.601,215.933 Z M136.651,215.502 C136.571,214.953 136.951,214.443 137.5,214.363 C138.041,214.283 138.55,214.663 138.63,215.212 C138.71,215.752 138.331,216.263 137.791,216.342 C137.741,216.353 137.691,216.353 137.641,216.353 C137.151,216.353 136.721,216.002 136.651,215.502 Z M113.601,216.542 C113.05,216.473 112.661,215.973 112.731,215.422 C112.8,214.873 113.3,214.483 113.851,214.563 C114.401,214.632 114.791,215.132 114.721,215.683 C114.651,216.183 114.221,216.553 113.721,216.553 C113.681,216.553 113.641,216.542 113.601,216.542 Z M132.681,215.943 C132.621,215.393 133.021,214.903 133.581,214.842 L133.571,214.842 C134.121,214.792 134.611,215.193 134.67,215.743 C134.721,216.292 134.321,216.783 133.771,216.833 C133.741,216.842 133.71,216.842 133.67,216.842 C133.161,216.842 132.731,216.453 132.681,215.943 Z M117.621,216.973 C117.621,216.973 117.621,216.973 117.621,216.962 C117.071,216.922 116.661,216.443 116.71,215.882 C116.75,215.333 117.231,214.933 117.781,214.973 C118.331,215.023 118.741,215.502 118.701,216.053 C118.651,216.573 118.21,216.973 117.701,216.973 C117.67,216.973 117.651,216.973 117.621,216.973 Z M128.691,216.203 C128.661,215.643 129.081,215.172 129.63,215.143 C130.181,215.113 130.661,215.542 130.691,216.092 C130.721,216.643 130.291,217.113 129.741,217.143 C129.721,217.143 129.701,217.143 129.691,217.143 C129.161,217.143 128.721,216.733 128.691,216.203 Z M121.661,217.212 C121.101,217.183 120.67,216.723 120.691,216.172 C120.71,215.623 121.181,215.193 121.731,215.212 C122.281,215.233 122.71,215.693 122.691,216.252 C122.67,216.783 122.231,217.212 121.691,217.212 C121.681,217.212 121.67,217.212 121.661,217.212 Z M124.691,216.273 C124.691,215.723 125.13,215.273 125.681,215.273 C126.231,215.263 126.691,215.712 126.691,216.263 C126.701,216.813 126.25,217.263 125.701,217.273 L125.691,217.273 C125.141,217.273 124.691,216.833 124.691,216.273 Z"/>
  </g>
</svg>
