<svg xmlns="http://www.w3.org/2000/svg" width="250" height="250" viewBox="0 0 250 250">
  <g fill="none" fill-rule="evenodd">
    <polygon fill="#DFE0E0" points="126.969 212.267 151.976 212.267 151.976 206.27 126.969 206.27"/>
    <polygon fill="#DFE0E0" points="126.969 218.266 156.964 218.266 156.964 212.269 126.969 212.269"/>
    <path fill="#DFE0E0" d="M136.979,202.269 C135.874,202.269 134.979,201.373 134.979,200.269 L134.979,193.268 L126.969,193.268 L126.969,205.268 L142.979,205.268 L142.979,202.269 L136.979,202.269"/>
    <polyline fill="#DFE0E0" points="126.387 193.032 126.387 64.512 131.553 64.518 131.553 193.037 126.387 193.032"/>
    <polygon fill="#DFE0E0" points="118.972 70.091 130.969 70.091 130.969 64.926 118.972 64.926"/>
    <path fill="#DFE0E0" d="M139.977,56.186 L139.977,59.185 L136.979,59.185 C135.874,59.185 134.979,60.081 134.979,61.185 L134.979,64.184 L114.964,64.184 L114.964,61.185 C114.964,60.081 114.069,59.185 112.964,59.185 L109.966,59.185 L109.966,56.186 L139.977,56.186"/>
    <path fill="#FFD15D" d="M50.163,43.018 C50.163,44.675 48.82,46.018 47.163,46.018 C45.506,46.018 44.163,44.675 44.163,43.018 C44.163,41.361 45.506,40.018 47.163,40.018 C48.82,40.018 50.163,41.361 50.163,43.018"/>
    <path fill="#FFD15D" d="M47.163,41.018 C46.06,41.018 45.163,41.915 45.163,43.018 C45.163,44.121 46.06,45.018 47.163,45.018 C48.266,45.018 49.163,44.121 49.163,43.018 C49.163,41.915 48.266,41.018 47.163,41.018 Z M47.163,47.018 C44.957,47.018 43.163,45.224 43.163,43.018 C43.163,40.812 44.957,39.018 47.163,39.018 C49.369,39.018 51.163,40.812 51.163,43.018 C51.163,45.224 49.369,47.018 47.163,47.018 Z"/>
    <path fill="#475059" d="M47.163,37.018 C43.854,37.018 41.163,39.71 41.163,43.018 C41.163,46.327 43.854,49.018 47.163,49.018 C50.472,49.018 53.163,46.327 53.163,43.018 C53.163,39.71 50.472,37.018 47.163,37.018 Z M47.163,51.018 C42.752,51.018 39.163,47.429 39.163,43.018 C39.163,38.607 42.752,35.018 47.163,35.018 C51.574,35.018 55.163,38.607 55.163,43.018 C55.163,47.429 51.574,51.018 47.163,51.018 Z"/>
    <path fill="#FFD15D" d="M200.235,43.018 C200.235,44.675 201.578,46.018 203.235,46.018 C204.892,46.018 206.235,44.675 206.235,43.018 C206.235,41.361 204.892,40.018 203.235,40.018 C201.578,40.018 200.235,41.361 200.235,43.018"/>
    <path fill="#FFD15D" d="M203.235,41.018 C202.132,41.018 201.235,41.915 201.235,43.018 C201.235,44.121 202.132,45.018 203.235,45.018 C204.338,45.018 205.235,44.121 205.235,43.018 C205.235,41.915 204.338,41.018 203.235,41.018 Z M203.235,47.018 C201.029,47.018 199.235,45.224 199.235,43.018 C199.235,40.812 201.029,39.018 203.235,39.018 C205.44,39.018 207.235,40.812 207.235,43.018 C207.235,45.224 205.44,47.018 203.235,47.018 Z"/>
    <path fill="#475059" d="M203.235 37.018C199.926 37.018 197.235 39.71 197.235 43.018 197.235 46.327 199.926 49.018 203.235 49.018 206.543 49.018 209.235 46.327 209.235 43.018 209.235 39.71 206.543 37.018 203.235 37.018zM203.235 51.018C198.824 51.018 195.235 47.429 195.235 43.018 195.235 38.607 198.824 35.018 203.235 35.018 207.646 35.018 211.235 38.607 211.235 43.018 211.235 47.429 207.646 51.018 203.235 51.018zM37.913 192.037L95.925 192.037 95.925 188.034C95.925 183.961 98.984 180.59 102.924 180.097L102.924 178.035 30.912 178.035 30.912 180.097C34.853 180.59 37.913 183.961 37.913 188.034L37.913 192.037zM97.925 194.037L35.913 194.037 35.913 188.034C35.913 184.726 33.222 182.035 29.914 182.035L28.914 182.035 28.912 176.035 104.924 176.035 104.924 182.035 103.924 182.035C100.616 182.035 97.925 184.726 97.925 188.034L97.925 194.037z"/>
    <polyline fill="#475059" points="101.006 169.04 99.006 169.04 99.006 168.151 71.412 45.554 73.363 45.115 101.006 167.928 101.006 169.04"/>
    <path fill="#FFD15D" d="M39.913,190.037 L93.925,190.037 L93.925,188.033 C93.925,184.766 95.499,181.861 97.931,180.034 L35.907,180.034 C38.338,181.861 39.913,184.766 39.913,188.033 L39.913,190.037"/>
    <path fill="#475059" d="M43.994,196.04 L90.006,196.04 L90.006,194.04 L43.994,194.04 L43.994,196.04 Z M41.994,198.04 L92.006,198.04 L92.006,192.04 L41.994,192.04 L41.994,198.04 Z"/>
    <polyline fill="#475059" points="34.993 169.031 32.993 169.031 33.021 167.796 65.131 35.018 70.687 35.018 72.131 40.461 70.197 40.973 69.148 37.018 66.705 37.018 34.993 168.151 34.993 169.031"/>
    <polygon fill="#475059" points="32.994 177.04 34.994 177.04 34.994 171.04 32.994 171.04"/>
    <polygon fill="#475059" points="99.09 177.04 101.09 177.04 101.09 171.046 99.09 171.046"/>
    <path fill="#475059" d="M153.982,193.038 L211.994,193.038 L211.994,189.035 C211.994,184.962 215.053,181.59 218.994,181.097 L218.994,179.035 L146.982,179.035 L146.982,181.097 C150.923,181.59 153.982,184.962 153.982,189.035 L153.982,193.038 Z M213.994,195.038 L151.982,195.038 L151.982,189.035 C151.982,185.726 149.291,183.035 145.983,183.035 L144.983,183.035 L144.981,177.035 L220.994,177.035 L220.994,183.035 L219.994,183.035 C216.686,183.035 213.994,185.726 213.994,189.035 L213.994,195.038 Z"/>
    <polyline fill="#475059" points="217.075 170.04 215.075 170.04 215.075 169.151 187.481 45.552 189.434 45.117 217.075 168.93 217.075 170.04"/>
    <path fill="#FFD15D" d="M155.982,191.038 L209.994,191.038 L209.994,189.034 C209.994,185.766 211.569,182.861 214,181.035 L151.976,181.035 C154.407,182.861 155.982,185.766 155.982,189.034 L155.982,191.038"/>
    <path fill="#475059" d="M160.064,197.04 L206.076,197.04 L206.076,195.04 L160.064,195.04 L160.064,197.04 Z M158.064,199.04 L208.076,199.04 L208.076,193.04 L158.064,193.04 L158.064,199.04 Z"/>
    <polyline fill="#475059" points="151.062 170.032 149.062 170.032 149.09 168.798 181.199 35.018 186.757 35.018 188.2 40.461 186.267 40.973 185.218 37.018 182.776 37.018 151.062 169.15 151.062 170.032"/>
    <polygon fill="#475059" points="149.063 178.04 151.063 178.04 151.063 172.04 149.063 172.04"/>
    <polygon fill="#475059" points="215.159 178.04 217.159 178.04 217.159 172.047 215.159 172.047"/>
    <path fill="#DFE0E0" d="M73.574,92.568 L75.345,95.753 C76.312,97.493 76.771,99.47 76.668,101.458 L75.324,129.014 L57.992,129.014 L57.994,129.013 L58.665,110.108 C58.876,104.409 60.736,98.893 64.019,94.229 L65.332,92.464 L65.333,92.452 L73.56,92.452 L73.574,92.568"/>
    <path fill="#475059" d="M71.183,139.918 C71.167,139.918 71.151,139.918 71.135,139.918 L66.398,139.917 L66.398,139.22 C66.188,139.273 65.97,139.301 65.745,139.301 L64.177,139.301 L64.177,134.474 C64.177,133.171 64.613,131.885 65.405,130.851 L66.232,129.542 L66.822,116.346 L65.771,103.809 L67.764,103.641 L68.826,116.307 L68.207,130.165 L67.042,131.996 C66.467,132.754 66.177,133.609 66.177,134.474 L66.177,137.137 C66.312,137.018 66.398,136.843 66.398,136.649 L66.398,136.469 L68.397,136.469 L68.397,137.917 L71.148,137.918 C71.607,137.934 72.006,137.76 72.317,137.457 C72.628,137.154 72.802,136.747 72.808,136.312 L72.824,134.959 C72.824,133.433 72.587,131.893 72.119,130.394 L74.028,129.798 C74.557,131.491 74.824,133.231 74.824,134.972 L74.808,136.337 C74.795,137.306 74.407,138.212 73.713,138.889 C73.031,139.554 72.134,139.918 71.183,139.918"/>
    <polyline fill="#475059" points="73.748 130.764 69.324 130.764 69.324 128.764 72.9 128.764 74.417 127.194 75.855 128.584 73.748 130.764"/>
    <polyline fill="#48515A" points="66.354 177.103 65.212 160.452 61.876 140.906 60.23 138.175 61.943 137.142 63.784 140.197 67.204 160.265 68.349 176.966 66.354 177.103"/>
    <path fill="#48515A" d="M75.274,177.101 L73.311,142.057 L75.074,138.477 L75.074,131.897 L74.318,129.123 L74.325,128.964 L75.669,101.41 C75.763,99.603 75.348,97.817 74.471,96.24 L72.605,92.883 L71.831,86.535 L71.757,84.87 L72.074,84.558 C73.185,83.464 73.823,81.942 73.823,80.382 C73.823,77.15 71.193,74.521 67.962,74.521 L66.66,74.521 C65.11,74.521 63.635,75.188 62.613,76.351 C61.747,77.335 61.27,78.599 61.27,79.911 L61.27,88.311 L66.582,88.571 L66.311,92.824 L64.821,94.826 C61.657,99.322 59.869,104.626 59.665,110.146 L59.029,128.061 L63.371,128.265 L63.277,130.263 L56.96,129.965 L57.665,110.074 C57.884,104.165 59.798,98.488 63.201,93.654 L64.353,92.105 L64.457,90.469 L59.27,90.215 L59.27,79.911 C59.27,78.113 59.924,76.379 61.111,75.031 C62.513,73.436 64.535,72.521 66.66,72.521 L67.962,72.521 C72.296,72.521 75.823,76.047 75.823,80.382 C75.823,82.322 75.088,84.218 73.792,85.654 L73.823,86.372 L74.543,92.252 L76.219,95.267 C77.279,97.172 77.779,99.331 77.667,101.51 L76.331,128.904 L77.074,131.763 L77.074,138.942 L75.337,142.469 L77.271,176.99 L75.274,177.101"/>
    <polyline fill="#48515A" points="60.794 177.198 57.835 157.936 56.995 129.042 58.994 128.984 59.832 157.816 62.77 176.893 60.794 177.198"/>
    <polyline fill="#DFE0E0" points="191.31 159.021 181.56 159.021 181.56 151.521 192.06 151.521 191.31 159.021"/>
    <path fill="#DFE0E0" d="M187.905,132.869 L185.123,133.412 L183.399,128.434 L187.866,126.846 L188.799,130.372 L187.748,131.177 L187.905,132.869 Z M190.185,108.122 L193.091,104.007 L186.06,96.021 L181.56,97.309 L180.982,97.309 C179.391,97.309 178.057,98.509 177.888,100.09 L173.685,151.521 L199.185,151.521 L190.185,108.122 Z"/>
    <path fill="#475059" d="M190.086,178.137 L188.096,177.942 L190.778,150.521 L197.957,150.521 L189.118,107.9 L191.811,104.085 L186.258,97.982 L184.685,96.038 L184.685,90.434 L185.685,90.434 C187.615,90.434 189.185,88.864 189.185,86.934 L189.185,84.345 C189.185,80.761 186.269,77.845 182.685,77.845 C179.136,77.845 176.56,80.443 176.56,84.021 L176.56,103.521 L174.56,103.521 L174.56,84.021 C174.56,79.284 177.977,75.845 182.685,75.845 C187.372,75.845 191.185,79.659 191.185,84.345 L191.185,86.934 C191.185,89.626 189.242,91.872 186.685,92.343 L186.685,95.331 L187.775,96.681 L194.372,103.927 L191.252,108.343 L200.414,152.521 L192.592,152.521 L190.086,178.137"/>
    <path fill="#475059" d="M180.501,178.052 L180.197,152.521 L172.6,152.521 L176.892,100.009 C177.118,97.889 178.875,96.309 180.982,96.309 C183.249,96.309 185.094,98.154 185.094,100.42 L185.094,112.533 L189.649,127.274 L182.038,129.979 L178.638,118.979 L180.549,118.389 L183.333,127.397 L187.172,126.032 L183.094,112.684 L183.094,100.42 C183.094,99.256 182.146,98.309 180.982,98.309 C179.9,98.309 178.998,99.121 178.882,100.197 L174.77,150.521 L182.173,150.521 L182.501,178.029 L180.501,178.052"/>
    <polyline fill="#475059" points="178.468 178.11 176.473 177.971 178.371 150.521 191.685 150.521 191.685 152.521 180.237 152.521 178.468 178.11"/>
    <polyline fill="#475059" points="184.462 134.559 182.454 128.761 184.343 128.107 185.783 132.264 186.825 132.06 186.701 130.719 187.662 129.983 186.899 127.102 188.833 126.59 189.936 130.76 188.794 131.635 188.984 133.677 184.462 134.559"/>
    <polyline fill="#475059" points="54.194 42.014 54.163 40.014 109.748 39.154 109.779 41.154 54.194 42.014"/>
    <polyline fill="#475059" points="196.202 42.014 140.003 41.013 140.039 39.013 196.237 40.014 196.202 42.014"/>
    <polyline fill="#475059" points="109.748 46.874 54.163 46.014 54.194 44.014 109.779 44.874 109.748 46.874"/>
    <polyline fill="#475059" points="140.038 46.981 140.004 44.981 196.202 44.014 196.236 46.014 140.038 46.981"/>
    <polygon fill="#475059" points="117.964 193.311 119.964 193.311 119.964 63.955 117.964 63.955"/>
    <polygon fill="#475059" points="129.964 193.311 131.964 193.311 131.964 63.954 129.964 63.954"/>
    <polygon fill="#48515A" points="38.983 63.225 40.983 63.225 40.983 59.225 38.983 59.225"/>
    <polygon fill="#48515A" points="38.983 73.225 40.983 73.225 40.983 69.225 38.983 69.225"/>
    <polygon fill="#48515A" points="42.555 67.225 45.983 67.225 45.983 65.225 42.555 65.225"/>
    <polygon fill="#48515A" points="33.983 67.225 37.412 67.225 37.412 65.225 33.983 65.225"/>
    <polygon fill="#48515A" points="214.088 116.256 216.088 116.256 216.088 112.256 214.088 112.256"/>
    <polygon fill="#48515A" points="214.088 126.256 216.088 126.256 216.088 122.256 214.088 122.256"/>
    <polygon fill="#48515A" points="217.66 120.256 221.088 120.256 221.088 118.256 217.66 118.256"/>
    <polygon fill="#48515A" points="209.088 120.256 212.517 120.256 212.517 118.256 209.088 118.256"/>
    <path fill="#FFD15D" d="M215.089 86.407C215.089 87.591 214.129 88.55 212.946 88.55 211.762 88.55 210.803 87.591 210.803 86.407 210.803 85.224 211.762 84.264 212.946 84.264 214.129 84.264 215.089 85.224 215.089 86.407M101.892 105.706C101.892 106.8 101.005 107.687 99.911 107.687 98.817 107.687 97.931 106.8 97.931 105.706 97.931 104.612 98.817 103.725 99.911 103.725 101.005 103.725 101.892 104.612 101.892 105.706M37.528 108.22C37.528 109.608 38.654 110.733 40.042 110.733 41.43 110.733 42.555 109.608 42.555 108.22 42.555 106.831 41.43 105.706 40.042 105.706 38.654 105.706 37.528 106.831 37.528 108.22M145.982 196C145.982 194.873 146.895 193.96 148.022 193.96 149.149 193.96 150.062 194.873 150.062 196 150.062 197.126 149.149 198.04 148.022 198.04 146.895 198.04 145.982 197.126 145.982 196M142.111 132.434C142.111 132.974 141.673 133.412 141.133 133.412 140.593 133.412 140.155 132.974 140.155 132.434 140.155 131.894 140.593 131.456 141.133 131.456 141.673 131.456 142.111 131.894 142.111 132.434"/>
    <path fill="#475059" d="M111.03,50.296 L122.843,50.298 C123.684,50.298 124.449,50.626 125.018,51.163 C125.586,50.628 126.351,50.3 127.191,50.3 L139.007,50.303 L139.007,32.74 L127.191,32.738 C127.19,32.738 127.19,32.738 127.19,32.738 C126.876,32.738 126.582,32.86 126.361,33.081 C126.139,33.302 126.017,33.598 126.017,33.912 L124.017,33.912 C124.017,33.262 123.491,32.736 122.843,32.736 L111.03,32.733 L111.03,50.296 Z M126.017,53.474 L124.017,53.474 C124.017,52.826 123.491,52.298 122.843,52.298 L109.03,52.296 L109.03,30.733 L122.843,30.736 C123.684,30.736 124.449,31.064 125.017,31.599 C125.607,31.042 126.375,30.738 127.189,30.738 C127.19,30.738 127.191,30.738 127.192,30.738 L141.007,30.74 L141.007,52.303 L127.191,52.3 C126.543,52.3 126.017,52.827 126.017,53.474 Z"/>
    <polygon fill="#475059" points="124.017 55.476 126.017 55.476 126.017 32.909 124.017 32.909"/>
    <polyline fill="#475059" points="141.01 56.474 109.01 56.474 109.01 51.296 111.01 51.296 111.01 54.474 139.01 54.474 139.01 51.303 141.01 51.303 141.01 56.474"/>
    <polygon fill="#475059" points="114.01 38.474 120.01 38.474 120.01 36.474 114.01 36.474"/>
    <polygon fill="#475059" points="114.01 42.474 120.01 42.474 120.01 40.474 114.01 40.474"/>
    <polygon fill="#475059" points="114.01 46.474 120.01 46.474 120.01 44.474 114.01 44.474"/>
    <polygon fill="#475059" points="130.01 38.474 136.01 38.474 136.01 36.474 130.01 36.474"/>
    <polygon fill="#475059" points="130.01 42.474 136.01 42.474 136.01 40.474 130.01 40.474"/>
    <polygon fill="#475059" points="130.01 46.474 136.01 46.474 136.01 44.474 130.01 44.474"/>
    <path fill="#475059" d="M87.964,217.267 L161.964,217.267 L161.964,213.267 L87.964,213.267 L87.964,217.267 Z M85.964,219.267 L163.964,219.267 L163.964,211.267 L85.964,211.267 L85.964,219.267 Z"/>
    <path fill="#475059" d="M93.964 211.269L155.964 211.269 155.964 207.27 93.964 207.27 93.964 211.269zM91.964 213.269L157.964 213.269 157.964 205.27 91.964 205.27 91.964 213.269zM143.979 205.268L141.979 205.268 141.979 203.269 136.979 203.269C135.324 203.269 133.979 201.923 133.979 200.269L133.979 194.268 115.964 194.268 115.964 200.269C115.964 201.923 114.619 203.269 112.964 203.269L107.964 203.269 107.964 205.268 105.964 205.268 105.964 201.269 112.964 201.269C113.516 201.269 113.964 200.821 113.964 200.269L113.964 192.268 135.979 192.268 135.979 200.269C135.979 200.821 136.427 201.269 136.979 201.269L143.979 201.269 143.979 205.268M135.979 65.183L113.964 65.183 113.964 61.185C113.964 60.633 113.516 60.185 112.964 60.185L108.966 60.185 108.966 56.186 110.966 56.186 110.966 58.185 112.964 58.185C114.619 58.185 115.964 59.531 115.964 61.185L115.964 63.183 133.979 63.183 133.979 61.185C133.979 59.531 135.324 58.185 136.979 58.185L138.977 58.185 138.977 56.186 140.977 56.186 140.977 60.185 136.979 60.185C136.427 60.185 135.979 60.633 135.979 61.185L135.979 65.183"/>
  </g>
</svg>
