<svg xmlns="http://www.w3.org/2000/svg" width="250" height="250" viewBox="0 0 250 250">
  <g fill="none" fill-rule="evenodd">
    <path fill="#FFD15D" d="M50.162,46.232 C50.162,47.889 48.819,49.232 47.162,49.232 C45.506,49.232 44.162,47.889 44.162,46.232 C44.162,44.576 45.506,43.232 47.162,43.232 C48.819,43.232 50.162,44.576 50.162,46.232"/>
    <path fill="#FFD15D" d="M47.162,44.232 C46.06,44.232 45.162,45.13 45.162,46.232 C45.162,47.335 46.06,48.232 47.162,48.232 C48.265,48.232 49.162,47.335 49.162,46.232 C49.162,45.13 48.265,44.232 47.162,44.232 Z M47.162,50.232 C44.956,50.232 43.162,48.439 43.162,46.232 C43.162,44.026 44.956,42.232 47.162,42.232 C49.368,42.232 51.162,44.026 51.162,46.232 C51.162,48.439 49.368,50.232 47.162,50.232 Z"/>
    <path fill="#475059" d="M47.162,40.232 C43.853,40.232 41.162,42.924 41.162,46.232 C41.162,49.541 43.853,52.232 47.162,52.232 C50.471,52.232 53.162,49.541 53.162,46.232 C53.162,42.924 50.471,40.232 47.162,40.232 Z M47.162,54.232 C42.751,54.232 39.162,50.644 39.162,46.232 C39.162,41.821 42.751,38.232 47.162,38.232 C51.573,38.232 55.162,41.821 55.162,46.232 C55.162,50.644 51.573,54.232 47.162,54.232 Z"/>
    <path fill="#FFD15D" d="M200.234,46.232 C200.234,47.889 201.578,49.232 203.234,49.232 C204.891,49.232 206.234,47.889 206.234,46.232 C206.234,44.576 204.891,43.232 203.234,43.232 C201.578,43.232 200.234,44.576 200.234,46.232"/>
    <path fill="#FFD15D" d="M203.234,44.232 C202.132,44.232 201.234,45.13 201.234,46.232 C201.234,47.335 202.132,48.232 203.234,48.232 C204.337,48.232 205.234,47.335 205.234,46.232 C205.234,45.13 204.337,44.232 203.234,44.232 Z M203.234,50.232 C201.028,50.232 199.234,48.439 199.234,46.232 C199.234,44.026 201.028,42.232 203.234,42.232 C205.44,42.232 207.234,44.026 207.234,46.232 C207.234,48.439 205.44,50.232 203.234,50.232 Z"/>
    <path fill="#475059" d="M203.234 40.232C199.926 40.232 197.234 42.924 197.234 46.232 197.234 49.541 199.926 52.232 203.234 52.232 206.543 52.232 209.234 49.541 209.234 46.232 209.234 42.924 206.543 40.232 203.234 40.232zM203.234 54.232C198.823 54.232 195.234 50.644 195.234 46.232 195.234 41.821 198.823 38.232 203.234 38.232 207.646 38.232 211.234 41.821 211.234 46.232 211.234 50.644 207.646 54.232 203.234 54.232zM37.912 195.251L95.924 195.251 95.924 191.248C95.924 187.176 98.983 183.805 102.924 183.312L102.924 181.249 30.912 181.249 30.912 183.312C34.853 183.805 37.912 187.176 37.912 191.248L37.912 195.251zM97.924 197.251L35.912 197.251 35.912 191.248C35.912 187.94 33.221 185.249 29.913 185.249L28.913 185.249 28.912 179.249 104.924 179.249 104.924 185.249 103.924 185.249C100.615 185.249 97.924 187.94 97.924 191.248L97.924 197.251z"/>
    <polyline fill="#475059" points="101.005 172.253 99.005 172.253 99.005 171.365 71.412 48.768 73.363 48.328 101.005 171.143 101.005 172.253"/>
    <path fill="#FFD15D" d="M39.912,193.251 L93.924,193.251 L93.924,191.247 C93.924,187.98 95.499,185.075 97.93,183.248 L35.906,183.248 C38.337,185.075 39.912,187.98 39.912,191.247 L39.912,193.251"/>
    <path fill="#475059" d="M43.994,199.253 L90.006,199.253 L90.006,197.253 L43.994,197.253 L43.994,199.253 Z M41.994,201.253 L92.006,201.253 L92.006,195.253 L41.994,195.253 L41.994,201.253 Z"/>
    <polyline fill="#475059" points="34.992 172.245 32.992 172.245 33.021 171.01 65.131 38.232 70.687 38.232 72.13 43.676 70.196 44.188 69.148 40.232 66.705 40.232 34.992 171.364 34.992 172.245"/>
    <polygon fill="#475059" points="32.993 180.253 34.993 180.253 34.993 174.253 32.993 174.253"/>
    <polygon fill="#475059" points="99.089 180.253 101.089 180.253 101.089 174.261 99.089 174.261"/>
    <path fill="#475059" d="M153.981,196.252 L211.994,196.252 L211.994,192.249 C211.994,188.177 215.053,184.805 218.993,184.312 L218.993,182.249 L146.981,182.249 L146.981,184.312 C150.922,184.805 153.981,188.177 153.981,192.249 L153.981,196.252 Z M213.994,198.252 L151.981,198.252 L151.981,192.249 C151.981,188.94 149.29,186.249 145.982,186.249 L144.982,186.249 L144.981,180.249 L220.993,180.249 L220.993,186.249 L219.993,186.249 C216.686,186.249 213.994,188.94 213.994,192.249 L213.994,198.252 Z"/>
    <polyline fill="#475059" points="217.075 173.254 215.075 173.254 215.075 172.365 187.481 48.766 189.433 48.33 217.075 172.145 217.075 173.254"/>
    <path fill="#FFD15D" d="M155.982,194.252 L209.994,194.252 L209.994,192.248 C209.994,188.981 211.569,186.075 214,184.249 L151.976,184.249 C154.407,186.075 155.982,188.981 155.982,192.248 L155.982,194.252"/>
    <path fill="#475059" d="M160.063,200.254 L206.075,200.254 L206.075,198.254 L160.063,198.254 L160.063,200.254 Z M158.063,202.254 L208.075,202.254 L208.075,196.254 L158.063,196.254 L158.063,202.254 Z"/>
    <polyline fill="#475059" points="151.062 173.245 149.062 173.245 149.089 172.013 181.199 38.232 186.757 38.232 188.2 43.676 186.267 44.188 185.218 40.232 182.775 40.232 151.062 172.364 151.062 173.245"/>
    <polygon fill="#475059" points="149.063 181.254 151.063 181.254 151.063 175.254 149.063 175.254"/>
    <polygon fill="#475059" points="215.159 181.254 217.159 181.254 217.159 175.261 215.159 175.261"/>
    <path fill="#DFE0E0" d="M73.574,95.782 L75.344,98.967 C76.312,100.707 76.77,102.684 76.668,104.672 L75.324,132.228 L57.991,132.228 L57.994,132.227 L58.665,113.323 C58.875,107.623 60.735,102.107 64.019,97.443 L65.332,95.678 L65.332,95.666 L73.56,95.666 L73.574,95.782"/>
    <path fill="#475059" d="M71.185,143.132 C71.167,143.132 71.15,143.132 71.134,143.132 L66.396,143.132 L66.396,142.434 C66.188,142.486 65.969,142.515 65.744,142.515 L64.177,142.515 L64.177,137.688 C64.177,136.387 64.612,135.101 65.404,134.066 L66.232,132.757 L66.822,119.561 L65.771,107.023 L67.764,106.855 L68.826,119.521 L68.207,133.379 L67.042,135.21 C66.467,135.969 66.177,136.823 66.177,137.688 L66.177,140.351 C66.312,140.23 66.396,140.057 66.396,139.862 L66.396,139.684 L68.396,139.684 L68.396,141.132 L71.147,141.132 C71.591,141.109 72.005,140.975 72.316,140.671 C72.627,140.368 72.802,139.962 72.807,139.527 L72.824,138.173 C72.824,136.647 72.587,135.107 72.119,133.608 L74.027,133.013 C74.557,134.705 74.824,136.445 74.824,138.186 L74.807,139.552 C74.795,140.521 74.406,141.427 73.712,142.104 C73.03,142.768 72.134,143.132 71.185,143.132"/>
    <polyline fill="#475059" points="73.749 133.979 69.324 133.979 69.324 131.979 72.899 131.979 74.417 130.408 75.854 131.799 73.749 133.979"/>
    <polyline fill="#48515A" points="66.353 180.317 65.212 163.666 61.876 144.12 60.229 141.389 61.942 140.355 63.784 143.411 63.815 143.598 67.204 163.479 68.349 180.181 66.353 180.317"/>
    <path fill="#48515A" d="M75.273,180.315 L73.311,145.271 L75.073,141.69 L75.073,135.111 L74.317,132.337 L75.669,104.623 C75.763,102.818 75.348,101.031 74.471,99.452 L72.605,96.098 L71.831,89.749 L71.758,88.084 L72.073,87.773 C73.185,86.679 73.822,85.155 73.822,83.596 C73.822,80.364 71.193,77.735 67.961,77.735 L66.659,77.735 C65.109,77.735 63.635,78.402 62.612,79.565 C61.746,80.55 61.27,81.813 61.27,83.125 L61.27,91.525 L66.582,91.785 L66.312,96.038 L64.82,98.04 C61.656,102.536 59.868,107.84 59.664,113.359 L59.028,131.274 L63.37,131.479 L63.276,133.478 L56.96,133.179 L57.666,113.287 C57.884,107.379 59.797,101.702 63.201,96.867 L64.352,95.319 L64.457,93.684 L59.27,93.43 L59.27,83.125 C59.27,81.326 59.924,79.594 61.11,78.244 C62.512,76.65 64.535,75.735 66.659,75.735 L67.961,75.735 C72.296,75.735 75.822,79.262 75.822,83.596 C75.822,85.535 75.087,87.433 73.792,88.868 L73.822,89.586 L74.543,95.467 L76.219,98.48 C77.278,100.388 77.779,102.547 77.667,104.724 L76.331,132.118 L77.073,134.978 L77.073,142.155 L75.336,145.684 L77.27,180.204 L75.273,180.315"/>
    <polyline fill="#48515A" points="60.794 180.412 57.835 161.15 56.994 132.256 58.994 132.197 59.833 161.03 62.77 180.107 60.794 180.412"/>
    <polyline fill="#DFE0E0" points="191.309 162.235 181.56 162.235 181.56 154.735 192.06 154.735 191.309 162.235"/>
    <path fill="#DFE0E0" d="M187.904,136.083 L185.122,136.626 L183.398,131.648 L187.866,130.06 L188.799,133.586 L187.747,134.391 L187.904,136.083 Z M190.185,111.336 L193.091,107.221 L186.06,99.235 L181.56,100.523 L180.982,100.523 C179.391,100.523 178.056,101.723 177.888,103.304 L173.685,154.735 L199.185,154.735 L190.185,111.336 Z"/>
    <path fill="#475059" d="M190.086,181.352 L188.096,181.156 L190.777,153.734 L197.956,153.734 L189.117,111.114 L191.811,107.3 L186.258,101.196 L184.685,99.252 L184.685,93.648 L185.685,93.648 C187.614,93.648 189.185,92.078 189.185,90.148 L189.185,87.56 C189.185,83.976 186.269,81.06 182.685,81.06 C179.136,81.06 176.56,83.656 176.56,87.234 L176.56,106.734 L174.56,106.734 L174.56,87.234 C174.56,82.498 177.977,79.06 182.685,79.06 C187.371,79.06 191.185,82.873 191.185,87.56 L191.185,90.148 C191.185,92.84 189.241,95.086 186.685,95.558 L186.685,98.545 L187.775,99.895 L194.371,107.142 L191.252,111.558 L200.413,155.734 L192.592,155.734 L190.086,181.352"/>
    <path fill="#475059" d="M180.5,181.266 L180.196,155.734 L172.6,155.734 L176.891,103.223 C177.117,101.103 178.875,99.523 180.981,99.523 C183.249,99.523 185.094,101.368 185.094,103.635 L185.094,115.747 L189.648,130.488 L182.037,133.192 L178.639,122.193 L180.549,121.604 L183.332,130.61 L187.172,129.246 L183.094,115.898 L183.094,103.635 C183.094,102.471 182.146,101.523 180.981,101.523 C179.899,101.523 178.997,102.334 178.882,103.41 L174.77,153.734 L182.173,153.734 L182.5,181.242 L180.5,181.266"/>
    <polyline fill="#475059" points="178.468 181.323 176.472 181.185 178.369 153.734 191.685 153.734 191.685 155.734 180.236 155.734 178.468 181.323"/>
    <polyline fill="#475059" points="184.461 137.773 182.453 131.976 184.344 131.321 185.783 135.479 186.825 135.274 186.7 133.933 187.661 133.197 186.899 130.316 188.833 129.805 189.937 133.975 188.794 134.849 188.983 136.892 184.461 137.773"/>
    <polyline fill="#F58E70" points="120.86 141.731 114.86 143.488 110.155 159.464 110.155 173.462 113.155 175.462 116.155 175.488 117.155 175.488 117.155 171.462 133.155 171.462 133.155 175.462 137.154 175.462 140.155 173.462 140.155 159.464 134.86 143.488 128.86 141.731 120.86 141.731"/>
    <polygon fill="#DFE0E0" points="117.155 176.112 133.155 176.112 133.155 171.488 117.155 171.488"/>
    <polygon fill="#DFE0E0" points="120.878 142.732 128.86 142.732 128.86 138.705 120.878 138.705"/>
    <path fill="#475059" d="M118.155,211.462 L116.155,211.462 L116.155,172.29 C114.994,171.878 114.159,170.769 114.155,169.469 L114.137,161.492 L116.137,161.488 L116.155,169.464 C116.156,170.014 116.605,170.462 117.155,170.462 L118.155,170.462 L118.155,211.462"/>
    <path fill="#475059" d="M116.146,176.488 L112.849,176.459 L109.155,173.997 L109.196,159.182 L114.056,142.682 L119.864,140.981 L119.876,139.105 L118.552,137.733 C117.461,136.604 116.863,135.116 116.869,133.546 L116.887,128.404 C116.895,126.282 117.729,124.289 119.235,122.794 C120.734,121.307 122.721,120.488 124.831,120.488 C124.854,120.488 124.876,120.488 124.897,120.488 C127,120.488 128.986,121.307 130.485,122.794 C131.992,124.289 132.826,126.282 132.834,128.405 L132.853,133.546 C132.857,135.116 132.26,136.604 131.17,137.733 L129.845,139.105 L129.856,140.981 L135.645,142.676 L141.155,159.303 L141.155,173.997 L137.457,176.462 L133.904,176.462 L133.904,174.462 L136.852,174.462 L139.155,172.927 L139.155,159.625 L134.076,144.301 L127.864,142.481 L127.841,138.303 L129.73,136.345 C130.457,135.592 130.855,134.6 130.853,133.553 L130.834,128.413 C130.828,126.824 130.204,125.333 129.076,124.214 C127.948,123.094 126.455,122.518 124.864,122.488 C124.856,122.488 124.848,122.488 124.84,122.488 C123.252,122.488 121.766,123.101 120.645,124.214 C119.517,125.332 118.893,126.823 118.887,128.412 L118.869,133.554 C118.865,134.6 119.264,135.591 119.991,136.345 L121.88,138.303 L121.856,142.481 L115.665,144.295 L111.155,159.608 L111.155,172.927 L113.462,174.465 L116.164,174.488 L116.146,176.488"/>
    <path fill="#475059" d="M134.155,211.462 L132.155,211.462 L132.155,170.462 L133.155,170.462 C133.423,170.462 133.675,170.357 133.863,170.168 C134.053,169.979 134.156,169.728 134.155,169.46 L134.138,161.492 L136.138,161.488 L136.155,169.455 C136.157,170.257 135.847,171.012 135.279,171.58 C134.957,171.903 134.573,172.145 134.155,172.292 L134.155,211.462"/>
    <polygon fill="#475059" points="117.155 172.462 133.132 172.462 133.132 170.462 117.155 170.462"/>
    <polygon fill="#475059" points="124.133 212.756 126.133 212.756 126.133 176.112 124.133 176.112"/>
    <path fill="#475059" d="M124.134,140.488 C124.056,140.488 123.978,140.479 123.898,140.461 L120.644,139.677 C120.106,139.547 119.776,139.007 119.905,138.47 C120.036,137.933 120.576,137.606 121.112,137.731 L124.367,138.516 C124.904,138.646 125.234,139.186 125.105,139.723 C124.994,140.181 124.585,140.488 124.134,140.488"/>
    <polyline fill="#475059" points="116.712 182.358 112.155 180.106 112.155 175.462 114.155 175.462 114.155 178.864 117.599 180.565 116.712 182.358"/>
    <polyline fill="#475059" points="133.599 182.358 132.712 180.565 136.155 178.864 136.154 175.462 138.154 175.462 138.155 180.106 133.599 182.358"/>
    <path fill="#475059" d="M118.52,214.051 L124.146,214.051 C124.026,212.604 122.811,211.462 121.333,211.462 C119.855,211.462 118.64,212.604 118.52,214.051 Z M126.156,216.051 L116.51,216.051 L116.51,214.286 C116.51,211.626 118.674,209.462 121.333,209.462 C123.992,209.462 126.156,211.626 126.156,214.286 L126.156,216.051 Z"/>
    <path fill="#475059" d="M129.337,211.462 C127.86,211.463 126.644,212.604 126.524,214.053 L132.152,214.05 C132.032,212.604 130.815,211.462 129.337,211.462 Z M124.517,216.053 L124.515,214.288 C124.515,211.628 126.678,209.463 129.337,209.462 C131.996,209.462 134.161,211.625 134.162,214.284 L134.162,216.05 L124.517,216.053 Z"/>
    <polygon fill="#DFE0E0" points="115.963 70.311 133.963 70.311 133.963 65.146 115.963 65.146"/>
    <polyline fill="#475059" points="54.193 45.229 54.162 43.228 109.747 42.368 109.778 44.368 54.193 45.229"/>
    <polyline fill="#475059" points="196.201 45.229 140.003 44.228 140.038 42.227 196.236 43.228 196.201 45.229"/>
    <polyline fill="#475059" points="109.747 50.089 54.162 49.229 54.193 47.228 109.778 48.089 109.747 50.089"/>
    <polyline fill="#475059" points="140.038 50.194 140.003 48.194 196.201 47.228 196.236 49.229 140.038 50.194"/>
    <path fill="#475059" d="M131.964,118.479 L129.964,118.479 L129.964,75.727 L130.296,75.429 C131.991,73.908 132.963,71.74 132.963,69.479 L132.963,64.146 L137.153,64.146 L137.153,59.479 L112.296,59.479 L112.296,64.146 L116.963,64.146 L116.963,69.479 C116.963,71.739 117.936,73.908 119.632,75.43 L119.964,75.728 L119.964,118.479 L117.964,118.479 L117.964,76.606 C116.052,74.727 114.963,72.155 114.963,69.479 L114.963,66.146 L110.296,66.146 L110.296,57.479 L139.153,57.479 L139.153,66.146 L134.963,66.146 L134.963,69.479 C134.963,72.156 133.875,74.727 131.964,76.605 L131.964,118.479"/>
    <polygon fill="#475059" points="115.963 66.146 133.963 66.146 133.963 64.146 115.963 64.146"/>
    <polygon fill="#48515A" points="38.983 66.438 40.983 66.438 40.983 62.438 38.983 62.438"/>
    <polygon fill="#48515A" points="38.983 76.438 40.983 76.438 40.983 72.438 38.983 72.438"/>
    <polygon fill="#48515A" points="42.555 70.438 45.984 70.438 45.984 68.438 42.555 68.438"/>
    <polygon fill="#48515A" points="33.983 70.438 37.412 70.438 37.412 68.438 33.983 68.438"/>
    <polygon fill="#48515A" points="214.088 118.47 216.088 118.47 216.088 114.47 214.088 114.47"/>
    <polygon fill="#48515A" points="214.088 128.47 216.088 128.47 216.088 124.47 214.088 124.47"/>
    <polygon fill="#48515A" points="217.659 122.47 221.088 122.47 221.088 120.47 217.659 120.47"/>
    <polygon fill="#48515A" points="209.088 122.47 212.517 122.47 212.517 120.47 209.088 120.47"/>
    <path fill="#FFD15D" d="M215.088 89.621C215.088 90.805 214.129 91.764 212.945 91.764 211.762 91.764 210.802 90.805 210.802 89.621 210.802 88.438 211.762 87.479 212.945 87.479 214.129 87.479 215.088 88.438 215.088 89.621M101.892 108.92C101.892 110.014 101.005 110.901 99.911 110.901 98.817 110.901 97.93 110.014 97.93 108.92 97.93 107.826 98.817 106.939 99.911 106.939 101.005 106.939 101.892 107.826 101.892 108.92M37.528 111.434C37.528 112.822 38.653 113.947 40.041 113.947 41.429 113.947 42.555 112.822 42.555 111.434 42.555 110.046 41.429 108.92 40.041 108.92 38.653 108.92 37.528 110.046 37.528 111.434M145.981 199.214C145.981 198.087 146.895 197.174 148.021 197.174 149.148 197.174 150.062 198.087 150.062 199.214 150.062 200.341 149.148 201.254 148.021 201.254 146.895 201.254 145.981 200.341 145.981 199.214M142.11 135.648C142.11 136.188 141.673 136.626 141.133 136.626 140.593 136.626 140.155 136.188 140.155 135.648 140.155 135.108 140.593 134.67 141.133 134.67 141.673 134.67 142.11 135.108 142.11 135.648"/>
    <path fill="#475059" d="M111.03,53.511 L122.843,53.513 C123.684,53.513 124.449,53.841 125.018,54.377 C125.586,53.843 126.351,53.515 127.19,53.515 L139.006,53.518 L139.006,35.954 L127.19,35.951 C126.543,35.951 126.017,36.477 126.017,37.125 L124.017,37.125 C124.017,36.477 123.49,35.949 122.843,35.949 L111.03,35.947 L111.03,53.511 Z M126.017,56.689 L124.017,56.689 C124.017,56.04 123.49,55.513 122.843,55.513 L109.03,55.511 L109.03,33.947 L122.843,33.949 C123.684,33.949 124.449,34.277 125.018,34.814 C125.586,34.279 126.351,33.951 127.19,33.951 L141.006,33.954 L141.006,55.518 L127.19,55.515 C126.543,55.515 126.017,56.041 126.017,56.689 Z"/>
    <polygon fill="#475059" points="124.017 58.689 126.017 58.689 126.017 36.123 124.017 36.123"/>
    <polyline fill="#475059" points="141.01 59.689 109.01 59.689 109.01 54.511 111.01 54.511 111.01 57.689 139.01 57.689 139.01 54.518 141.01 54.518 141.01 59.689"/>
    <polygon fill="#475059" points="114.01 41.689 120.01 41.689 120.01 39.689 114.01 39.689"/>
    <polygon fill="#475059" points="114.01 45.688 120.01 45.688 120.01 43.688 114.01 43.688"/>
    <polygon fill="#475059" points="114.01 49.689 120.01 49.689 120.01 47.689 114.01 47.689"/>
    <polygon fill="#475059" points="130.01 41.689 136.01 41.689 136.01 39.689 130.01 39.689"/>
    <polygon fill="#475059" points="130.01 45.688 136.01 45.688 136.01 43.688 130.01 43.688"/>
    <polygon fill="#475059" points="130.01 49.689 136.01 49.689 136.01 47.689 130.01 47.689"/>
  </g>
</svg>
