<svg xmlns="http://www.w3.org/2000/svg" width="250" height="250" viewBox="0 0 250 250">
  <g fill="none" fill-rule="evenodd">
    <path fill="#DFE0E0" d="M125.943 187.379L125.943 201.332C125.943 194.704 131.315 189.332 137.943 189.332L189.95 189.332 189.95 188.486 176.844 175.379 137.943 175.379C131.315 175.379 125.943 180.752 125.943 187.379M125.912 201.332L125.912 187.379C125.912 180.752 120.539 175.379 113.912 175.379L71.184 175.379 85.135 189.332 113.912 189.332C120.539 189.332 125.912 194.704 125.912 201.332"/>
    <path fill="#FFD15D" d="M118.037,201.092 C118.037,198.814 116.19,196.967 113.912,196.967 L51.912,196.967 L51.912,182.39 L45.912,182.39 L45.912,200.342 L50.412,200.342 L50.412,201.092 L118.037,201.092"/>
    <path fill="#475059" d="M122.907022,204.342 L120.907,204.342 L120.907,201.332 C120.911,199.463 120.186,197.705 118.865,196.377 C117.545,195.051 115.79,194.318 113.923,194.314 L50.924,194.155 L50.929,192.155 L113.928,192.314 C118.89,192.325 122.918,196.372 122.907,201.333 L122.907022,204.342"/>
    <path fill="#475059" d="M118.912,201.244 L116.912,201.244 C116.912,199.589 115.566,198.244 113.912,198.244 L50.913,198.244 L50.913,196.244 L113.912,196.244 C116.669,196.244 118.912,198.487 118.912,201.244"/>
    <path fill="#475059" d="M126.912,201.332 L124.912,201.332 C124.912,195.266 119.977,190.332 113.912,190.332 L50.898,190.332 L50.898,174.379 L113.912,174.379 C121.08,174.379 126.912,180.211 126.912,187.379 L124.912,187.379 C124.912,181.314 119.977,176.379 113.912,176.379 L52.898,176.379 L52.898,188.332 L113.912,188.332 C121.08,188.332 126.912,194.164 126.912,201.332"/>
    <polygon fill="#475059" points="124.912 201.332 126.912 201.332 126.912 187.379 124.912 187.379"/>
    <path fill="#475059" d="M125.905,205.731 C122.794,205.731 119.842,204.465 117.733,202.244 L44.909,202.244 L44.912,181.38 L51.912,181.38 L51.912,183.38 L46.912,183.38 L46.909,200.244 L118.63,200.244 L118.928,200.586 C120.456,202.336 122.597,203.433 124.912,203.678 L124.912,200.342 L126.912,200.342 L126.912,205.73 L125.912,205.731 C125.91,205.731 125.907,205.731 125.905,205.731"/>
    <path fill="#FFD15D" d="M133.833,201.092 C133.833,198.814 135.679,196.967 137.958,196.967 L199.958,196.967 L199.958,182.39 L205.958,182.39 L205.958,200.342 L201.458,200.342 L201.458,201.092 L133.833,201.092"/>
    <path fill="#475059" d="M130.962,204.342 L128.961978,204.342 L128.962,201.332 C128.951,196.372 132.979,192.325 137.942,192.314 L200.941,192.155 L200.946,194.155 L137.947,194.314 C136.08,194.318 134.325,195.051 133.004,196.377 C131.683,197.705 130.958,199.463 130.962,201.33 L130.962,204.342"/>
    <path fill="#475059" d="M134.958,201.244 L132.958,201.244 C132.958,198.487 135.201,196.244 137.958,196.244 L200.957,196.244 L200.957,198.244 L137.958,198.244 C136.303,198.244 134.958,199.589 134.958,201.244"/>
    <path fill="#475059" d="M126.958,201.332 L124.958,201.332 C124.958,194.164 130.789,188.332 137.958,188.332 L198.971,188.332 L198.971,176.379 L137.958,176.379 C131.892,176.379 126.958,181.314 126.958,187.379 L124.958,187.379 C124.958,180.211 130.789,174.379 137.958,174.379 L200.971,174.379 L200.971,190.332 L137.958,190.332 C131.892,190.332 126.958,195.266 126.958,201.332"/>
    <polygon fill="#475059" points="124.958 201.332 126.958 201.332 126.958 187.379 124.958 187.379"/>
    <path fill="#475059" d="M125.965,205.731 C125.962,205.731 125.96,205.731 125.957,205.731 L124.958,205.73 L124.958,200.342 L126.958,200.342 L126.958,203.678 C129.273,203.433 131.413,202.337 132.941,200.586 L133.24,200.244 L204.96,200.244 L204.958,183.38 L199.958,183.38 L199.958,181.38 L206.958,181.38 L206.96,202.244 L134.136,202.244 C132.028,204.465 129.076,205.731 125.965,205.731"/>
    <path fill="#FFD15D" d="M118.037,201.092 C118.037,198.814 116.19,196.967 113.912,196.967 L51.912,196.967 L51.912,182.39 L45.912,182.39 L45.912,200.342 L50.412,200.342 L50.412,201.092 L118.037,201.092"/>
    <path fill="#475059" d="M122.907022,204.342 L120.907,204.342 L120.907,201.332 C120.911,199.463 120.186,197.705 118.865,196.377 C117.545,195.051 115.79,194.318 113.923,194.314 L50.924,194.155 L50.929,192.155 L113.928,192.314 C118.89,192.325 122.918,196.372 122.907,201.333 L122.907022,204.342"/>
    <path fill="#475059" d="M118.912,201.244 L116.912,201.244 C116.912,199.589 115.566,198.244 113.912,198.244 L50.913,198.244 L50.913,196.244 L113.912,196.244 C116.669,196.244 118.912,198.487 118.912,201.244"/>
    <path fill="#475059" d="M126.912,201.332 L124.912,201.332 C124.912,195.266 119.977,190.332 113.912,190.332 L50.898,190.332 L50.898,174.379 L113.912,174.379 C121.08,174.379 126.912,180.211 126.912,187.379 L124.912,187.379 C124.912,181.314 119.977,176.379 113.912,176.379 L52.898,176.379 L52.898,188.332 L113.912,188.332 C121.08,188.332 126.912,194.164 126.912,201.332"/>
    <polygon fill="#475059" points="124.912 201.332 126.912 201.332 126.912 187.379 124.912 187.379"/>
    <path fill="#475059" d="M125.905,205.731 C122.794,205.731 119.842,204.465 117.733,202.244 L44.909,202.244 L44.912,181.38 L51.912,181.38 L51.912,183.38 L46.912,183.38 L46.909,200.244 L118.63,200.244 L118.928,200.586 C120.456,202.336 122.597,203.433 124.912,203.678 L124.912,200.342 L126.912,200.342 L126.912,205.73 L125.912,205.731 C125.91,205.731 125.907,205.731 125.905,205.731"/>
    <path fill="#FFD15D" d="M133.833,201.092 C133.833,198.814 135.679,196.967 137.958,196.967 L199.958,196.967 L199.958,182.39 L205.958,182.39 L205.958,200.342 L201.458,200.342 L201.458,201.092 L133.833,201.092"/>
    <path fill="#475059" d="M130.962,204.342 L128.961978,204.342 L128.962,201.332 C128.951,196.372 132.979,192.325 137.942,192.314 L200.941,192.155 L200.946,194.155 L137.947,194.314 C136.08,194.318 134.325,195.051 133.004,196.377 C131.683,197.705 130.958,199.463 130.962,201.33 L130.962,204.342"/>
    <path fill="#475059" d="M134.958,201.244 L132.958,201.244 C132.958,198.487 135.201,196.244 137.958,196.244 L200.957,196.244 L200.957,198.244 L137.958,198.244 C136.303,198.244 134.958,199.589 134.958,201.244"/>
    <path fill="#475059" d="M126.958,201.332 L124.958,201.332 C124.958,194.164 130.789,188.332 137.958,188.332 L198.971,188.332 L198.971,176.379 L137.958,176.379 C131.892,176.379 126.958,181.314 126.958,187.379 L124.958,187.379 C124.958,180.211 130.789,174.379 137.958,174.379 L200.971,174.379 L200.971,190.332 L137.958,190.332 C131.892,190.332 126.958,195.266 126.958,201.332"/>
    <polygon fill="#475059" points="124.958 201.332 126.958 201.332 126.958 187.379 124.958 187.379"/>
    <path fill="#475059" d="M125.965,205.731 C125.962,205.731 125.96,205.731 125.957,205.731 L124.958,205.73 L124.958,200.342 L126.958,200.342 L126.958,203.678 C129.273,203.433 131.413,202.337 132.941,200.586 L133.24,200.244 L204.96,200.244 L204.958,183.38 L199.958,183.38 L199.958,181.38 L206.958,181.38 L206.96,202.244 L134.136,202.244 C132.028,204.465 129.076,205.731 125.965,205.731"/>
    <path fill="#48515A" d="M190.61,56.263 L188.61,56.263 L188.61,52.269 C188.61,48.96 185.919,46.269 182.61,46.269 L182.61,44.269 C187.021,44.269 190.61,47.858 190.61,52.269 L190.61,56.263"/>
    <polygon fill="#48515A" points="91.992 64.263 196.61 64.263 196.61 62.263 91.992 62.263"/>
    <polygon fill="#48515A" points="77.992 46.269 182.61 46.269 182.61 44.269 77.992 44.269"/>
    <path fill="#FFD15D" d="M186.61,52.269 L186.61,53.263 L95.992,53.263 L95.992,56.263 C95.992,58.468 94.197,60.263 91.992,60.263 C89.786,60.263 87.992,58.468 87.992,56.263 L87.992,52.269 C87.992,50.847 87.694,49.494 87.157,48.269 L182.61,48.269 C184.815,48.269 186.61,50.063 186.61,52.269"/>
    <polyline fill="#FFD15D" points="91.044 167.219 91.044 181.22 99.044 177.218 107.044 181.22 107.044 167.219 99.168 170.347 91.044 167.219"/>
    <path fill="#48515A" d="M99.543,146.722 C93.478,146.722 88.543,151.657 88.543,157.722 C88.543,163.788 93.478,168.722 99.543,168.722 C105.609,168.722 110.543,163.788 110.543,157.722 C110.543,151.657 105.609,146.722 99.543,146.722 Z M99.543,170.722 C92.375,170.722 86.543,164.89 86.543,157.722 C86.543,150.554 92.375,144.722 99.543,144.722 C106.712,144.722 112.543,150.554 112.543,157.722 C112.543,164.89 106.712,170.722 99.543,170.722 Z"/>
    <path fill="#FFD15D" d="M107.543,157.722 C107.543,162.14 103.962,165.722 99.543,165.722 C95.125,165.722 91.543,162.14 91.543,157.722 C91.543,153.304 95.125,149.722 99.543,149.722 C103.962,149.722 107.543,153.304 107.543,157.722"/>
    <polygon fill="#48515A" points="129.959 150.226 159.04 150.226 159.04 148.226 129.959 148.226"/>
    <polygon fill="#48515A" points="130.042 154.143 151.04 154.143 151.04 152.143 130.042 152.143"/>
    <path fill="#48515A" d="M136.04 169.142C132.733 169.142 130.041 166.451 130.04 163.142 130.04 159.89 132.788 157.142 136.041 157.142 139.349 157.142 142.04 159.833 142.04 163.142L142.04 165.143C142.04 165.695 142.489 166.143 143.04 166.143 143.592 166.143 144.04 165.695 144.04 165.143 144.04 163.489 145.386 162.143 147.04 162.143 148.695 162.143 150.04 163.489 150.04 165.143 150.04 165.695 150.489 166.143 151.04 166.143 151.593 166.143 152.04 166.59 152.04 167.143 152.04 167.696 151.593 168.143 151.04 168.143 149.386 168.143 148.04 166.797 148.04 165.143 148.04 164.591 147.592 164.143 147.04 164.143 146.489 164.143 146.04 164.591 146.04 165.143 146.04 166.797 144.695 168.143 143.04 168.143 141.386 168.143 140.04 166.797 140.04 165.143L140.04 163.142C140.04 160.936 138.246 159.142 136.041 159.142 133.872 159.142 132.04 160.974 132.04 163.142 132.041 165.347 133.835 167.142 136.04 167.142 136.593 167.142 137.04 167.589 137.04 168.142 137.04 168.695 136.593 169.142 136.04 169.142M155.041 168.146C154.911 168.146 154.781 168.116 154.661 168.066 154.541 168.016 154.431 167.946 154.331 167.846 154.141 167.666 154.041 167.406 154.041 167.146 154.041 167.016 154.061 166.886 154.121 166.756 154.171 166.636 154.241 166.526 154.331 166.436 154.381 166.386 154.431 166.346 154.481 166.316 154.541 166.276 154.601 166.246 154.661 166.216 154.721 166.196 154.781 166.176 154.841 166.166 154.971 166.136 155.111 166.136 155.231 166.166 155.301 166.176 155.361 166.196 155.421 166.216 155.481 166.246 155.541 166.276 155.591 166.316 155.651 166.346 155.701 166.386 155.751 166.436 155.841 166.526 155.911 166.636 155.961 166.756 156.011 166.886 156.041 167.016 156.041 167.146 156.041 167.406 155.941 167.656 155.751 167.846 155.561 168.036 155.311 168.146 155.041 168.146M126.041 172.226C125.771 172.226 125.521 172.125 125.331 171.936 125.241 171.835 125.161 171.726 125.111 171.606 125.071 171.486 125.041 171.356 125.041 171.226 125.041 171.096 125.071 170.966 125.121 170.846 125.171 170.716 125.241 170.616 125.331 170.516 125.421 170.426 125.531 170.356 125.661 170.306 126.031 170.156 126.471 170.246 126.751 170.516 126.841 170.616 126.911 170.726 126.961 170.846 127.011 170.966 127.041 171.096 127.041 171.226 127.041 171.356 127.011 171.486 126.961 171.606 126.911 171.726 126.841 171.835 126.751 171.936 126.651 172.026 126.541 172.096 126.421 172.146 126.301 172.196 126.171 172.226 126.041 172.226M129.041 171.226C129.041 170.676 129.491 170.226 130.041 170.226 130.591 170.226 131.041 170.676 131.041 171.226 131.041 171.776 130.591 172.226 130.041 172.226 129.491 172.226 129.041 171.776 129.041 171.226zM133.041 171.226C133.041 170.676 133.491 170.226 134.041 170.226 134.591 170.226 135.041 170.676 135.041 171.226 135.041 171.776 134.591 172.226 134.041 172.226 133.491 172.226 133.041 171.776 133.041 171.226zM137.041 171.226C137.041 170.676 137.491 170.226 138.041 170.226 138.591 170.226 139.041 170.676 139.041 171.226 139.041 171.776 138.591 172.226 138.041 172.226 137.491 172.226 137.041 171.776 137.041 171.226zM141.041 171.226C141.041 170.676 141.491 170.226 142.041 170.226 142.591 170.226 143.041 170.676 143.041 171.226 143.041 171.776 142.591 172.226 142.041 172.226 141.491 172.226 141.041 171.776 141.041 171.226zM145.041 171.226C145.041 170.676 145.491 170.226 146.041 170.226 146.591 170.226 147.041 170.676 147.041 171.226 147.041 171.776 146.591 172.226 146.041 172.226 145.491 172.226 145.041 171.776 145.041 171.226zM149.041 171.226C149.041 170.676 149.491 170.226 150.041 170.226 150.591 170.226 151.041 170.676 151.041 171.226 151.041 171.776 150.591 172.226 150.041 172.226 149.491 172.226 149.041 171.776 149.041 171.226zM153.041 171.226C153.041 170.676 153.491 170.226 154.041 170.226 154.591 170.226 155.041 170.676 155.041 171.226 155.041 171.776 154.591 172.226 154.041 172.226 153.491 172.226 153.041 171.776 153.041 171.226zM157.041 171.226C157.041 170.676 157.481 170.226 158.041 170.226 158.591 170.226 159.041 170.676 159.041 171.226 159.041 171.776 158.591 172.226 158.041 172.226 157.481 172.226 157.041 171.776 157.041 171.226zM162.041 172.226C161.771 172.226 161.521 172.125 161.331 171.936 161.241 171.835 161.161 171.726 161.111 171.606 161.061 171.486 161.041 171.356 161.041 171.226 161.041 171.096 161.061 170.966 161.121 170.846 161.171 170.726 161.241 170.616 161.331 170.516 161.611 170.246 162.051 170.156 162.421 170.306 162.541 170.356 162.651 170.426 162.751 170.516 162.841 170.616 162.911 170.716 162.961 170.846 163.011 170.966 163.041 171.096 163.041 171.226 163.041 171.356 163.011 171.486 162.961 171.606 162.911 171.726 162.841 171.835 162.751 171.936 162.561 172.125 162.311 172.226 162.041 172.226"/>
    <polygon fill="#F58E70" points="130.043 146.226 139.043 146.226 139.043 144.226 130.043 144.226"/>
    <polygon fill="#48515A" points="88.043 86.258 106.043 86.258 106.043 84.258 88.043 84.258"/>
    <polygon fill="#48515A" points="88.043 90.258 106.043 90.258 106.043 88.258 88.043 88.258"/>
    <polygon fill="#48515A" points="94.043 101.265 160.043 101.265 160.043 99.265 94.043 99.265"/>
    <polygon fill="#48515A" points="88.043 105.265 160.043 105.265 160.043 103.265 88.043 103.265"/>
    <polygon fill="#48515A" points="88.043 109.265 160.043 109.265 160.043 107.265 88.043 107.265"/>
    <polygon fill="#48515A" points="88.043 113.265 148.043 113.265 148.043 111.265 88.043 111.265"/>
    <polygon fill="#48515A" points="148.043 85.255 160.043 85.255 160.043 83.255 148.043 83.255"/>
    <path fill="#48515A" d="M71.043 176.257C70.491 176.257 70.043 175.81 70.043 175.257L70.018 112.265C70.018 111.713 70.466 111.265 71.018 111.265 71.571 111.265 72.018 111.712 72.018 112.265L72.043 175.257C72.043 175.81 71.595 176.257 71.043 176.257M176.992 176.257C176.44 176.257 175.992 175.81 175.992 175.257L175.992 172.267 176.111 62.263 196.61 62.263C199.578 62.263 202.049 60.097 202.527 57.263L99.93 57.263C99.436 61.204 96.065 64.263 91.992 64.263 87.581 64.263 83.992 60.674 83.992 56.263L83.992 52.269C83.992 48.96 81.3 46.269 77.992 46.269 74.683 46.269 71.992 48.96 71.992 52.269L71.998 68.892C71.999 69.444 71.551 69.892 70.999 69.892L70.998 69.892C70.446 69.892 69.999 69.445 69.998 68.892L69.992 52.269C69.992 47.858 73.581 44.269 77.992 44.269 82.403 44.269 85.992 47.858 85.992 52.269L85.992 56.263C85.992 59.572 88.683 62.263 91.992 62.263 95.3 62.263 97.992 59.572 97.992 56.263L97.992 55.263 204.61 55.263 204.61 56.263C204.61 60.674 201.021 64.263 196.61 64.263L178.109 64.263 177.992 175.257C177.992 175.81 177.544 176.257 176.992 176.257"/>
    <path fill="#475059" d="M160.853,131.259 L216.018,131.259 C217.673,131.259 219.018,129.914 219.018,128.259 C219.018,126.605 217.673,125.259 216.018,125.259 L160.853,125.259 L154.347,128.259 L160.853,131.259 Z M216.018,133.259 L160.414,133.259 L149.571,128.259 L160.415,123.259 L216.018,123.259 C218.775,123.259 221.018,125.502 221.018,128.259 C221.018,131.016 218.775,133.259 216.018,133.259 Z"/>
    <polygon fill="#475059" points="208.408 132.259 210.408 132.259 210.408 124.661 208.408 124.661"/>
    <polygon fill="#475059" points="161.403 129.23 209.408 129.23 209.408 127.23 161.403 127.23"/>
    <polygon fill="#48515A" points="34.982 131.253 36.982 131.253 36.982 127.253 34.982 127.253"/>
    <polygon fill="#48515A" points="34.982 141.253 36.982 141.253 36.982 137.253 34.982 137.253"/>
    <polygon fill="#48515A" points="38.982 135.253 42.982 135.253 42.982 133.253 38.982 133.253"/>
    <polygon fill="#48515A" points="28.982 135.253 32.982 135.253 32.982 133.253 28.982 133.253"/>
    <polygon fill="#48515A" points="190.074 77.22 192.074 77.22 192.074 73.22 190.074 73.22"/>
    <polygon fill="#48515A" points="190.074 87.22 192.074 87.22 192.074 83.22 190.074 83.22"/>
    <polygon fill="#48515A" points="194.074 81.22 198.074 81.22 198.074 79.22 194.074 79.22"/>
    <polygon fill="#48515A" points="184.074 81.22 188.074 81.22 188.074 79.22 184.074 79.22"/>
    <path fill="#F58E70" d="M55.492,119.765 C55.492,120.87 54.596,121.765 53.492,121.765 C52.387,121.765 51.492,120.87 51.492,119.765 C51.492,118.661 52.387,117.765 53.492,117.765 C54.596,117.765 55.492,118.661 55.492,119.765"/>
    <polygon fill="#48515A" points="94.043 119.265 160.043 119.265 160.043 117.265 94.043 117.265"/>
    <polygon fill="#48515A" points="88.043 123.265 150.037 123.265 150.037 121.265 88.043 121.265"/>
    <polygon fill="#48515A" points="88.043 127.265 146.035 127.265 146.035 125.265 88.043 125.265"/>
    <polygon fill="#48515A" points="88.043 131.265 146.042 131.265 146.042 129.265 88.043 129.265"/>
    <path fill="#475059" d="M44.94,96.495 L44.94,96.612 C44.94,97.412 45.251,98.164 45.817,98.728 C46.382,99.291 47.132,99.602 47.93,99.602 C47.932,99.602 47.934,99.602 47.935,99.602 L48.665,99.601 C50.31,99.598 51.65,98.256 51.65,96.611 L51.65,96.495 L48.295,87.121 L44.94,96.495 Z M47.929,101.602 C46.598,101.602 45.347,101.084 44.404,100.143 C43.46,99.201 42.94,97.947 42.94,96.612 L42.94,96.147 L48.295,81.185 L53.65,96.147 L53.65,96.611 C53.65,99.358 51.415,101.596 48.668,101.601 L47.939,101.602 C47.936,101.602 47.932,101.602 47.929,101.602 Z"/>
    <polygon fill="#475059" points="43.946 97.321 52.65 97.321 52.65 95.321 43.946 95.321"/>
    <polyline fill="#475059" points="58.982 83.015 55.615 79.222 42.939 79.222 42.939 77.222 56.514 77.222 58.982 80.001 61.448 77.222 74.939 77.222 74.939 79.222 62.348 79.222 58.982 83.015"/>
    <polyline fill="#475059" points="55.006 109.321 53.006 109.321 53.006 106.972 56.008 103.97 56.008 85.998 58.008 85.998 58.008 104.798 55.006 107.8 55.006 109.321"/>
    <polyline fill="#475059" points="64.878 109.321 62.878 109.321 62.878 107.796 59.879 104.798 59.879 85.998 61.879 85.998 61.879 103.97 64.878 106.968 64.878 109.321"/>
    <polygon fill="#475059" points="55.552 83.126 62.334 83.126 62.334 81.126 55.552 81.126"/>
    <path fill="#475059" d="M66.234,96.478 C66.272,97.219 66.579,97.911 67.108,98.439 C67.673,99.002 68.423,99.313 69.22,99.313 C69.222,99.313 69.224,99.313 69.226,99.313 L69.954,99.311 C71.548,99.309 72.854,98.051 72.936,96.477 L69.585,86.794 L66.234,96.478 Z M69.221,101.313 C67.889,101.313 66.637,100.795 65.695,99.854 C64.75,98.912 64.23,97.657 64.23,96.323 L64.23,96.155 L69.585,80.679 L74.94,96.153 L74.94,96.321 C74.94,99.069 72.705,101.307 69.958,101.311 L69.23,101.313 C69.227,101.313 69.224,101.313 69.221,101.313 Z"/>
    <polygon fill="#475059" points="65.237 97.321 73.94 97.321 73.94 95.321 65.237 95.321"/>
    <polygon fill="#475059" points="55.552 86.998 62.334 86.998 62.334 84.998 55.552 84.998"/>
    <polygon fill="#475059" points="57.008 105.384 60.879 105.384 60.879 103.384 57.008 103.384"/>
    <path fill="#48515A" d="M200.108 168.344L214.108 168.344 214.108 166.344 200.108 166.344 200.108 168.344zM198.108 170.344L216.108 170.344 216.108 164.344 198.108 164.344 198.108 170.344zM203.68 156.344L211.778 156.344 211.778 154.344 209.832 154.344 209.832 142.344 211.778 142.344 211.778 140.344 203.68 140.344 203.68 142.344 205.778 142.344 205.778 154.344 203.68 154.344 203.68 156.344zM213.778 158.344L201.68 158.344 201.68 152.344 203.778 152.344 203.778 144.344 201.68 144.344 201.68 138.344 213.778 138.344 213.778 144.344 211.832 144.344 211.832 152.344 213.778 152.344 213.778 158.344z"/>
    <path fill="#48515A" d="M210.832 144.344L204.778 144.344C204.225 144.344 203.778 143.897 203.778 143.344 203.778 142.792 204.225 142.344 204.778 142.344L210.832 142.344C211.385 142.344 211.832 142.792 211.832 143.344 211.832 143.897 211.385 144.344 210.832 144.344M210.832 154.344L204.778 154.344C204.225 154.344 203.778 153.897 203.778 153.344 203.778 152.792 204.225 152.344 204.778 152.344L210.832 152.344C211.385 152.344 211.832 152.792 211.832 153.344 211.832 153.897 211.385 154.344 210.832 154.344M204.109 149.345L184.109 149.345C183.556 149.345 183.109 148.898 183.109 148.345 183.109 147.792 183.556 147.345 184.109 147.345L204.109 147.345C204.661 147.345 205.109 147.792 205.109 148.345 205.109 148.898 204.661 149.345 204.109 149.345"/>
  </g>
</svg>
