<svg xmlns="http://www.w3.org/2000/svg" width="250" height="250" viewBox="0 0 250 250">
  <g fill="none" fill-rule="evenodd">
    <path fill="#DFE0E0" d="M124.455 188.917L124.455 202.87C124.455 196.242 129.828 190.87 136.455 190.87L198.469 190.87 198.469 190.024 185.362 176.917 136.455 176.917C129.828 176.917 124.455 182.291 124.455 188.917M124.424 202.87L124.424 188.917C124.424 182.291 119.052 176.917 112.424 176.917L67.695 176.917 81.647 190.87 112.424 190.87C119.052 190.87 124.424 196.242 124.424 202.87"/>
    <path fill="#5FE0ED" d="M89.466,71.755 C89.822,70.174 90.427,68.687 91.261,67.354 C93.177,64.294 96.223,62.016 99.818,61.104 C100.803,54.645 106.343,49.686 113.057,49.603 L113.229,49.603 C120.642,49.695 126.623,55.729 126.623,63.164 C126.623,63.903 126.562,64.628 126.448,65.335 C130.396,65.47 133.692,68.133 134.79,71.755 L89.466,71.755"/>
    <polygon fill="#475059" points="164.591 177.764 166.591 177.764 166.591 170.765 164.591 170.765"/>
    <polygon fill="#475059" points="160.588 177.764 162.588 177.764 162.588 170.765 160.588 170.765"/>
    <polygon fill="#475059" points="88.545 176.763 90.545 176.763 90.545 170.765 88.545 170.765"/>
    <polygon fill="#475059" points="108.557 176.763 110.557 176.763 110.557 170.765 108.557 170.765"/>
    <polygon fill="#475059" points="128.569 179.765 130.569 179.765 130.569 170.765 128.569 170.765"/>
    <polyline fill="#5FE0ED" points="104.142 171.766 86.543 171.766 96.624 148.423 93.39 148.423 107.273 117.019 121.155 148.424 117.921 148.424 128.002 171.766 104.142 171.766"/>
    <path fill="#FFD15D" d="M116.549,202.63 C116.549,200.352 114.703,198.505 112.424,198.505 L50.424,198.505 L50.424,183.928 L44.424,183.928 L44.424,201.88 L48.924,201.88 L48.924,202.63 L116.549,202.63"/>
    <path fill="#475059" d="M121.420022,205.88 L119.42,205.88 L119.42,202.87 C119.424,201.001 118.699,199.243 117.378,197.916 C116.057,196.589 114.302,195.856 112.435,195.852 L49.436,195.693 L49.441,193.693 L112.44,193.852 C117.403,193.863 121.431,197.91 121.42,202.872 L121.420022,205.88"/>
    <path fill="#475059" d="M117.424,202.782 L115.424,202.782 C115.424,201.127 114.079,199.782 112.424,199.782 L49.425,199.782 L49.425,197.782 L112.424,197.782 C115.181,197.782 117.424,200.025 117.424,202.782"/>
    <path fill="#475059" d="M125.424,202.87 L123.424,202.87 C123.424,196.804 118.49,191.87 112.424,191.87 L49.411,191.87 L49.411,175.917 L112.424,175.917 C119.593,175.917 125.424,181.75 125.424,188.917 L123.424,188.917 C123.424,182.852 118.49,177.917 112.424,177.917 L51.411,177.917 L51.411,189.87 L112.424,189.87 C119.593,189.87 125.424,195.702 125.424,202.87"/>
    <polygon fill="#475059" points="123.424 202.87 125.424 202.87 125.424 188.917 123.424 188.917"/>
    <path fill="#475059" d="M124.417,207.269 C121.306,207.269 118.354,206.003 116.246,203.782 L43.422,203.782 L43.424,182.918 L50.424,182.918 L50.424,184.918 L45.424,184.918 L45.422,201.782 L117.142,201.782 L117.441,202.125 C118.969,203.875 121.109,204.971 123.424,205.216 L123.424,201.88 L125.424,201.88 L125.424,207.268 L124.425,207.269 C124.422,207.269 124.419,207.269 124.417,207.269"/>
    <path fill="#FFD15D" d="M132.345,202.63 C132.345,200.352 134.192,198.505 136.47,198.505 L198.47,198.505 L198.47,183.928 L204.47,183.928 L204.47,201.88 L199.97,201.88 L199.97,202.63 L132.345,202.63"/>
    <path fill="#475059" d="M129.475,205.88 L127.474971,205.88 L127.475,202.87 C127.469,200.471 128.401,198.21 130.099,196.504 C131.796,194.799 134.054,193.857 136.455,193.852 L199.453,193.693 L199.458,195.693 L136.459,195.852 C134.592,195.856 132.837,196.589 131.516,197.916 C130.196,199.243 129.47,201.001 129.475,202.868 L129.475,205.88"/>
    <path fill="#475059" d="M133.47,202.782 L131.47,202.782 C131.47,200.025 133.713,197.782 136.47,197.782 L199.469,197.782 L199.469,199.782 L136.47,199.782 C134.816,199.782 133.47,201.127 133.47,202.782"/>
    <path fill="#475059" d="M125.47,202.87 L123.47,202.87 C123.47,195.702 129.302,189.87 136.47,189.87 L197.484,189.87 L197.484,177.917 L136.47,177.917 C130.405,177.917 125.47,182.852 125.47,188.917 L123.47,188.917 C123.47,181.75 129.302,175.917 136.47,175.917 L199.484,175.917 L199.484,191.87 L136.47,191.87 C130.405,191.87 125.47,196.804 125.47,202.87"/>
    <polygon fill="#475059" points="123.47 202.87 125.47 202.87 125.47 188.917 123.47 188.917"/>
    <path fill="#475059" d="M124.477,207.269 C124.475,207.269 124.472,207.269 124.47,207.269 L123.47,207.268 L123.47,201.88 L125.47,201.88 L125.47,205.216 C127.786,204.971 129.925,203.875 131.453,202.125 L131.751,201.782 L203.472,201.782 L203.47,184.918 L198.47,184.918 L198.47,182.918 L205.47,182.918 L205.472,203.782 L132.648,203.782 C130.539,206.003 127.588,207.269 124.477,207.269"/>
    <path fill="#FFD15D" d="M116.549,202.63 C116.549,200.352 114.703,198.505 112.424,198.505 L50.424,198.505 L50.424,183.928 L44.424,183.928 L44.424,201.88 L48.924,201.88 L48.924,202.63 L116.549,202.63"/>
    <path fill="#475059" d="M121.420022,205.88 L119.42,205.88 L119.42,202.87 C119.424,201.001 118.699,199.243 117.378,197.916 C116.057,196.589 114.302,195.856 112.435,195.852 L49.436,195.693 L49.441,193.693 L112.44,193.852 C117.403,193.863 121.431,197.91 121.42,202.872 L121.420022,205.88"/>
    <path fill="#475059" d="M117.424,202.782 L115.424,202.782 C115.424,201.127 114.079,199.782 112.424,199.782 L49.425,199.782 L49.425,197.782 L112.424,197.782 C115.181,197.782 117.424,200.025 117.424,202.782"/>
    <path fill="#475059" d="M125.424,202.87 L123.424,202.87 C123.424,196.804 118.49,191.87 112.424,191.87 L49.411,191.87 L49.411,175.917 L112.424,175.917 C119.593,175.917 125.424,181.75 125.424,188.917 L123.424,188.917 C123.424,182.852 118.49,177.917 112.424,177.917 L51.411,177.917 L51.411,189.87 L112.424,189.87 C119.593,189.87 125.424,195.702 125.424,202.87"/>
    <polygon fill="#475059" points="123.424 202.87 125.424 202.87 125.424 188.917 123.424 188.917"/>
    <path fill="#475059" d="M124.417,207.269 C121.306,207.269 118.354,206.003 116.246,203.782 L43.422,203.782 L43.424,182.918 L50.424,182.918 L50.424,184.918 L45.424,184.918 L45.422,201.782 L117.142,201.782 L117.441,202.125 C118.969,203.875 121.109,204.971 123.424,205.216 L123.424,201.88 L125.424,201.88 L125.424,207.268 L124.425,207.269 C124.422,207.269 124.419,207.269 124.417,207.269"/>
    <path fill="#FFD15D" d="M132.345,202.63 C132.345,200.352 134.192,198.505 136.47,198.505 L198.47,198.505 L198.47,183.928 L204.47,183.928 L204.47,201.88 L199.97,201.88 L199.97,202.63 L132.345,202.63"/>
    <path fill="#475059" d="M129.475,205.88 L127.474971,205.88 L127.475,202.87 C127.469,200.471 128.401,198.21 130.099,196.504 C131.796,194.799 134.054,193.857 136.455,193.852 L199.453,193.693 L199.458,195.693 L136.459,195.852 C134.592,195.856 132.837,196.589 131.516,197.916 C130.196,199.243 129.47,201.001 129.475,202.868 L129.475,205.88"/>
    <path fill="#475059" d="M133.47,202.782 L131.47,202.782 C131.47,200.025 133.713,197.782 136.47,197.782 L199.469,197.782 L199.469,199.782 L136.47,199.782 C134.816,199.782 133.47,201.127 133.47,202.782"/>
    <path fill="#475059" d="M125.47,202.87 L123.47,202.87 C123.47,195.702 129.302,189.87 136.47,189.87 L197.484,189.87 L197.484,177.917 L136.47,177.917 C130.405,177.917 125.47,182.852 125.47,188.917 L123.47,188.917 C123.47,181.75 129.302,175.917 136.47,175.917 L199.484,175.917 L199.484,191.87 L136.47,191.87 C130.405,191.87 125.47,196.804 125.47,202.87"/>
    <polygon fill="#475059" points="123.47 202.87 125.47 202.87 125.47 188.917 123.47 188.917"/>
    <path fill="#475059" d="M124.477 207.269C124.475 207.269 124.472 207.269 124.47 207.269L123.47 207.268 123.47 201.88 125.47 201.88 125.47 205.216C127.786 204.971 129.925 203.875 131.453 202.125L131.751 201.782 203.472 201.782 203.47 184.918 198.47 184.918 198.47 182.918 205.47 182.918 205.472 203.782 132.648 203.782C130.539 206.003 127.588 207.269 124.477 207.269M64.064 170.766L110.828 170.766 98.717 142.725 102.588 142.725 87.446 108.471 72.304 142.725 76.175 142.725 64.064 170.766zM113.87 172.766L61.022 172.766 73.133 144.725 69.233 144.725 87.446 103.524 105.659 144.725 101.759 144.725 113.87 172.766z"/>
    <polyline fill="#5FE0ED" points="159.684 171.766 138.543 171.766 150.654 143.725 146.769 143.725 153.721 127.997 150.995 127.997 157.05 113.976 155.107 113.976 163.446 95.112 171.785 113.976 169.842 113.976 175.897 127.997 173.171 127.997 180.124 143.725 176.238 143.725 188.349 171.767 167.31 171.767 159.684 171.766"/>
    <path fill="#475059" d="M105.07,170.766 L156.814,170.766 L146.987,148.536 L154.323,148.536 L142.212,120.494 L146.084,120.494 L130.942,86.24 L115.8,120.494 L119.67,120.494 L107.56,148.536 L114.897,148.536 L105.07,170.766 Z M159.884,172.766 L101.999,172.766 L111.826,150.536 L104.518,150.536 L116.628,122.494 L112.728,122.494 L130.942,81.292 L149.155,122.494 L145.255,122.494 L157.366,150.536 L150.057,150.536 L159.884,172.766 Z"/>
    <path fill="#5FE0ED" d="M96.512,99.785 L90.734,99.785 C89.636,96.163 86.34,93.5 82.392,93.365 C82.506,92.658 82.567,91.933 82.567,91.194 C82.568,83.759 76.586,77.725 69.173,77.633 L69.001,77.633 C62.287,77.716 56.747,82.675 55.762,89.134 C52.167,90.046 49.121,92.324 47.205,95.384 C46.371,96.717 45.767,98.204 45.41,99.785 L38.512,99.785"/>
    <path fill="#475059" d="M66.066,91.392 C62.705,89.445 58.479,89.101 54.86,90.456 L54.159,88.582 C58.331,87.02 63.196,87.416 67.069,89.662 L66.066,91.392"/>
    <path fill="#475059" d="M96.512,100.785 L89.992,100.785 L89.777,100.075 C88.777,96.777 85.796,94.482 82.358,94.364 L81.225,94.326 L81.405,93.206 C81.513,92.538 81.567,91.861 81.567,91.194 C81.568,84.353 76.002,78.718 69.161,78.633 L69.001,78.633 C62.837,78.71 57.68,83.189 56.751,89.285 L56.651,89.941 L56.008,90.104 C52.699,90.942 49.873,93.006 48.053,95.915 C47.28,97.15 46.719,98.526 46.385,100.004 L46.209,100.785 L38.512,100.785 L38.512,98.785 L44.631,98.785 C45.024,97.379 45.603,96.06 46.357,94.854 C48.336,91.692 51.348,89.398 54.887,88.339 C56.219,81.602 62.049,76.719 68.989,76.633 L69.173,76.633 C77.116,76.732 83.568,83.263 83.567,91.194 C83.567,91.614 83.549,92.038 83.512,92.461 C87.092,92.975 90.135,95.389 91.447,98.785 L96.512,98.785 L96.512,100.785"/>
    <path fill="#5FE0ED" d="M203.543,83.918 L197.765,83.918 C196.667,80.297 193.371,77.633 189.424,77.498 C189.537,76.791 189.599,76.067 189.599,75.327 C189.599,67.893 183.617,61.858 176.204,61.767 L176.033,61.767 C169.318,61.85 163.778,66.809 162.794,73.267 C159.199,74.179 156.152,76.458 154.236,79.518 C153.402,80.85 152.798,82.337 152.441,83.918 L145.543,83.918"/>
    <path fill="#475059" d="M173.097,75.526 C169.739,73.58 165.517,73.233 161.891,74.589 L161.19,72.716 C165.372,71.152 170.229,71.551 174.101,73.795 L173.097,75.526"/>
    <path fill="#475059" d="M203.543,84.919 L197.023,84.919 L196.808,84.208 C195.808,80.911 192.828,78.616 189.389,78.498 L188.255,78.46 L188.436,77.339 C188.544,76.669 188.599,75.993 188.599,75.328 C188.599,68.486 183.034,62.851 176.192,62.766 L176.033,62.766 C169.869,62.843 164.71,67.323 163.782,73.417 L163.682,74.074 L163.039,74.237 C159.729,75.077 156.904,77.14 155.084,80.048 C154.313,81.28 153.751,82.656 153.416,84.138 L153.24,84.917 L145.543,84.917 L145.543,82.918 L151.663,82.918 C152.056,81.508 152.635,80.19 153.389,78.987 C155.367,75.827 158.378,73.532 161.917,72.472 C163.249,65.736 169.08,60.853 176.02,60.766 L176.205,60.766 C184.147,60.865 190.599,67.397 190.599,75.328 C190.599,75.748 190.58,76.171 190.543,76.595 C194.123,77.109 197.167,79.523 198.478,82.919 L203.543,82.919 L203.543,84.919"/>
    <polygon fill="#48515A" points="212.558 139.773 214.558 139.773 214.558 135.773 212.558 135.773"/>
    <polygon fill="#48515A" points="212.558 149.773 214.558 149.773 214.558 145.773 212.558 145.773"/>
    <polygon fill="#48515A" points="216.558 143.773 220.558 143.773 220.558 141.773 216.558 141.773"/>
    <polygon fill="#48515A" points="206.558 143.773 210.558 143.773 210.558 141.773 206.558 141.773"/>
    <path fill="#FFD15D" d="M198.543,159.767 C198.543,160.871 199.439,161.767 200.543,161.767 C201.648,161.767 202.543,160.871 202.543,159.767 C202.543,158.662 201.648,157.767 200.543,157.767 C199.439,157.767 198.543,158.662 198.543,159.767"/>
    <polygon fill="#475059" points="84.543 176.763 86.543 176.763 86.543 170.765 84.543 170.765"/>
    <polygon fill="#475059" points="104.555 176.763 106.555 176.763 106.555 170.765 104.555 170.765"/>
    <polygon fill="#475059" points="132.572 177.764 134.572 177.764 134.572 170.765 132.572 170.765"/>
    <polygon fill="#48515A" points="101.491 102.75 103.491 102.75 103.491 98.751 101.491 98.751"/>
    <polygon fill="#48515A" points="101.491 112.75 103.491 112.75 103.491 108.75 101.491 108.75"/>
    <polygon fill="#48515A" points="105.491 106.75 109.491 106.75 109.491 104.75 105.491 104.75"/>
    <polygon fill="#48515A" points="95.491 106.75 99.491 106.75 99.491 104.75 95.491 104.75"/>
    <polygon fill="#48515A" points="44.457 142.774 46.457 142.774 46.457 138.774 44.457 138.774"/>
    <polygon fill="#48515A" points="44.457 152.774 46.457 152.774 46.457 148.774 44.457 148.774"/>
    <polygon fill="#48515A" points="48.457 146.774 52.457 146.774 52.457 144.774 48.457 144.774"/>
    <polygon fill="#48515A" points="38.457 146.774 42.457 146.774 42.457 144.774 38.457 144.774"/>
    <path fill="#475059" d="M121.45,62.003 L121.45,62.12 C121.45,62.919 121.762,63.671 122.328,64.237 C122.892,64.8 123.642,65.111 124.44,65.111 C124.442,65.111 124.444,65.111 124.445,65.111 L125.174,65.109 C126.821,65.106 128.16,63.764 128.16,62.119 L128.16,62.003 L124.805,52.629 L121.45,62.003 Z M124.441,67.111 C123.109,67.111 121.857,66.593 120.914,65.652 C119.97,64.71 119.45,63.455 119.45,62.12 L119.45,61.656 L124.805,46.694 L130.16,61.656 L130.16,62.119 C130.16,64.866 127.925,67.104 125.178,67.109 L124.45,67.111 C124.447,67.111 124.444,67.111 124.441,67.111 Z"/>
    <polygon fill="#475059" points="120.456 62.83 129.16 62.83 129.16 60.83 120.456 60.83"/>
    <polyline fill="#475059" points="135.492 48.524 132.125 44.731 119.449 44.731 119.449 42.731 133.024 42.731 135.492 45.51 137.958 42.731 151.45 42.731 151.45 44.731 138.857 44.731 135.492 48.524"/>
    <polyline fill="#475059" points="131.516 74.829 129.516 74.829 129.516 72.481 132.518 69.478 132.518 51.505 134.518 51.505 134.518 70.306 131.516 73.309 131.516 74.829"/>
    <polyline fill="#475059" points="141.387 74.829 139.387 74.829 139.387 73.305 136.389 70.306 136.389 51.505 138.389 51.505 138.389 69.478 141.387 72.477 141.387 74.829"/>
    <polygon fill="#475059" points="132.063 48.634 138.844 48.634 138.844 46.634 132.063 46.634"/>
    <path fill="#475059" d="M142.744,61.986 C142.782,62.727 143.088,63.419 143.618,63.947 C144.182,64.51 144.933,64.821 145.731,64.821 C145.732,64.821 145.734,64.821 145.736,64.821 L146.465,64.82 C148.058,64.817 149.364,63.56 149.446,61.986 L146.095,52.302 L142.744,61.986 Z M145.73,66.821 C144.399,66.821 143.147,66.303 142.205,65.362 C141.26,64.419 140.74,63.165 140.74,61.831 L140.74,61.663 L146.095,46.187 L151.45,61.662 L151.45,61.83 C151.45,64.577 149.215,66.815 146.468,66.82 L145.739,66.821 C145.736,66.821 145.733,66.821 145.73,66.821 Z"/>
    <polygon fill="#475059" points="141.747 62.83 150.45 62.83 150.45 60.83 141.747 60.83"/>
    <polygon fill="#475059" points="132.063 52.505 138.844 52.505 138.844 50.505 132.063 50.505"/>
    <polygon fill="#475059" points="133.518 70.892 137.389 70.892 137.389 68.892 133.518 68.892"/>
    <path fill="#48515A" d="M194.877 122.85L208.877 122.85 208.877 120.85 194.877 120.85 194.877 122.85zM192.877 124.85L210.877 124.85 210.877 118.85 192.877 118.85 192.877 124.85zM198.45 110.85L206.546 110.85 206.546 108.85 204.601 108.85 204.601 96.85 206.546 96.85 206.546 94.85 198.45 94.85 198.45 96.85 200.546 96.85 200.546 108.85 198.45 108.85 198.45 110.85zM208.546 112.85L196.45 112.85 196.45 106.85 198.546 106.85 198.546 98.85 196.45 98.85 196.45 92.85 208.546 92.85 208.546 98.85 206.601 98.85 206.601 106.85 208.546 106.85 208.546 112.85z"/>
    <path fill="#48515A" d="M205.601 98.85L199.546 98.85C198.994 98.85 198.546 98.403 198.546 97.85 198.546 97.297 198.994 96.85 199.546 96.85L205.601 96.85C206.154 96.85 206.601 97.297 206.601 97.85 206.601 98.403 206.154 98.85 205.601 98.85M205.601 108.85L199.546 108.85C198.994 108.85 198.546 108.403 198.546 107.85 198.546 107.297 198.994 106.85 199.546 106.85L205.601 106.85C206.154 106.85 206.601 107.297 206.601 107.85 206.601 108.403 206.154 108.85 205.601 108.85M198.877 103.851L178.877 103.851C178.325 103.851 177.877 103.404 177.877 102.851 177.877 102.298 178.325 101.851 178.877 101.851L198.877 101.851C199.43 101.851 199.877 102.298 199.877 102.851 199.877 103.404 199.43 103.851 198.877 103.851"/>
    <path fill="#5FE0ED" d="M29.442,119.743 C29.442,120.847 30.337,121.743 31.442,121.743 C32.547,121.743 33.442,120.847 33.442,119.743 C33.442,118.638 32.547,117.743 31.442,117.743 C30.337,117.743 29.442,118.638 29.442,119.743"/>
  </g>
</svg>
