<svg xmlns="http://www.w3.org/2000/svg" width="250" height="250" viewBox="0 0 250 250">
  <g fill="none" fill-rule="evenodd">
    <path fill="#5FE0ED" d="M86.994,49.749 L165.993,49.749 L165.993,47.749 L86.994,47.749 L86.994,49.749 Z M124.94,123.749 C113.924,123.749 104.994,114.818 104.994,103.802 C104.994,92.786 113.924,83.855 124.94,83.855 C135.957,83.855 144.887,92.786 144.887,103.802 C144.887,114.818 135.957,123.749 124.94,123.749 Z M87.994,44.746 C85.785,44.746 83.994,46.537 83.994,48.746 L83.994,158.746 C83.994,160.955 85.785,162.746 87.994,162.746 L165.994,162.746 L165.994,44.746 L87.994,44.746 Z"/>
    <path fill="#FFD15D" d="M117,201.615 C117,199.337 115.153,197.49 112.875,197.49 L50.875,197.49 L50.875,182.913 L44.875,182.913 L44.875,200.865 L49.375,200.865 L49.375,201.615 L117,201.615"/>
    <path fill="#475059" d="M121.87002,204.866 L119.87,204.866 L119.87,201.855 C119.875,199.987 119.149,198.228 117.829,196.901 C116.507,195.575 114.752,194.841 112.886,194.837 L49.886,194.678 L49.892,192.678 L112.891,192.837 C115.291,192.842 117.548,193.785 119.246,195.49 C120.944,197.196 121.875,199.457 121.87,201.857 L121.87002,204.866"/>
    <path fill="#475059" d="M117.875,201.767 L115.875,201.767 C115.875,200.113 114.529,198.767 112.875,198.767 L49.875,198.767 L49.875,196.767 L112.875,196.767 C115.631,196.767 117.875,199.01 117.875,201.767"/>
    <polygon fill="#475059" points="123.875 201.855 125.875 201.855 125.875 187.903 123.875 187.903"/>
    <path fill="#475059" d="M124.868,206.254 C121.756,206.254 118.805,204.99 116.697,202.767 L43.873,202.767 L43.875,181.904 L50.874,181.904 L50.874,183.904 L45.874,183.904 L45.873,200.767 L117.593,200.767 L117.892,201.11 C119.419,202.861 121.559,203.957 123.875,204.202 L123.875,200.866 L125.875,200.866 L125.875,206.253 L124.875,206.254 C124.873,206.254 124.87,206.254 124.868,206.254"/>
    <path fill="#FFD15D" d="M132.795,201.615 C132.795,199.337 134.642,197.49 136.92,197.49 L198.92,197.49 L198.92,182.913 L204.92,182.913 L204.92,200.865 L200.42,200.865 L200.42,201.615 L132.795,201.615"/>
    <path fill="#475059" d="M129.925,204.866 L127.924971,204.866 L127.925,201.855 C127.919,199.457 128.851,197.196 130.549,195.49 C132.247,193.785 134.504,192.842 136.905,192.837 L199.903,192.678 L199.909,194.678 L136.91,194.837 C135.042,194.841 133.288,195.575 131.966,196.901 C130.646,198.228 129.92,199.987 129.925,201.853 L129.925,204.866"/>
    <path fill="#475059" d="M133.92 201.767L131.92 201.767C131.92 199.01 134.164 196.767 136.92 196.767L199.919 196.767 199.919 198.767 136.92 198.767C135.266 198.767 133.92 200.113 133.92 201.767M125.92 187.903L123.92 187.903C123.92 180.735 129.752 174.903 136.92 174.903L155.994 174.903 155.994 176.903 136.92 176.903C130.855 176.903 125.92 181.837 125.92 187.903"/>
    <path fill="#475059" d="M125.92,201.855 L123.92,201.855 C123.92,194.687 129.752,188.855 136.92,188.855 L197.934,188.855 L197.934,176.903 L171.994,176.903 L171.994,174.903 L199.934,174.903 L199.934,190.855 L136.92,190.855 C130.855,190.855 125.92,195.79 125.92,201.855"/>
    <polygon fill="#475059" points="123.92 201.855 125.92 201.855 125.92 187.903 123.92 187.903"/>
    <path fill="#475059" d="M124.927,206.254 C124.925,206.254 124.922,206.254 124.919,206.254 L123.92,206.253 L123.92,200.866 L125.92,200.866 L125.92,204.202 C128.236,203.957 130.375,202.861 131.903,201.11 L132.202,200.767 L203.922,200.767 L203.92,183.904 L198.92,183.904 L198.92,181.904 L205.92,181.904 L205.922,202.767 L133.098,202.767 C130.99,204.989 128.039,206.254 124.927,206.254"/>
    <path fill="#FFD15D" d="M117,201.615 C117,199.337 115.153,197.49 112.875,197.49 L50.875,197.49 L50.875,182.913 L44.875,182.913 L44.875,200.865 L49.375,200.865 L49.375,201.615 L117,201.615"/>
    <path fill="#475059" d="M121.87002,204.866 L119.87,204.866 L119.87,201.855 C119.875,199.987 119.149,198.228 117.829,196.901 C116.507,195.575 114.752,194.841 112.886,194.837 L49.886,194.678 L49.892,192.678 L112.891,192.837 C115.291,192.842 117.548,193.785 119.246,195.49 C120.944,197.196 121.875,199.457 121.87,201.857 L121.87002,204.866"/>
    <path fill="#475059" d="M117.875 201.767L115.875 201.767C115.875 200.113 114.529 198.767 112.875 198.767L49.875 198.767 49.875 196.767 112.875 196.767C115.631 196.767 117.875 199.01 117.875 201.767M125.875 187.903L123.875 187.903C123.875 181.837 118.94 176.903 112.875 176.903L95.161 176.903 95.161 174.903 112.875 174.903C120.042 174.903 125.875 180.735 125.875 187.903"/>
    <path fill="#475059" d="M125.875,201.855 L123.875,201.855 C123.875,195.79 118.94,190.855 112.875,190.855 L49.861,190.855 L49.861,174.903 L79.327,174.903 L79.327,176.903 L51.861,176.903 L51.861,188.855 L112.875,188.855 C120.042,188.855 125.875,194.687 125.875,201.855"/>
    <polygon fill="#475059" points="123.875 201.855 125.875 201.855 125.875 187.903 123.875 187.903"/>
    <path fill="#475059" d="M124.868,206.254 C121.756,206.254 118.805,204.99 116.697,202.767 L43.873,202.767 L43.875,181.904 L50.874,181.904 L50.874,183.904 L45.874,183.904 L45.873,200.767 L117.593,200.767 L117.892,201.11 C119.419,202.861 121.559,203.957 123.875,204.202 L123.875,200.866 L125.875,200.866 L125.875,206.253 L124.875,206.254 C124.873,206.254 124.87,206.254 124.868,206.254"/>
    <path fill="#FFD15D" d="M132.795,201.615 C132.795,199.337 134.642,197.49 136.92,197.49 L198.92,197.49 L198.92,182.913 L204.92,182.913 L204.92,200.865 L200.42,200.865 L200.42,201.615 L132.795,201.615"/>
    <path fill="#475059" d="M129.925,204.866 L127.924971,204.866 L127.925,201.855 C127.919,199.457 128.851,197.196 130.549,195.49 C132.247,193.785 134.504,192.842 136.905,192.837 L199.903,192.678 L199.909,194.678 L136.91,194.837 C135.042,194.841 133.288,195.575 131.966,196.901 C130.646,198.228 129.92,199.987 129.925,201.853 L129.925,204.866"/>
    <path fill="#475059" d="M133.92,201.767 L131.92,201.767 C131.92,199.01 134.164,196.767 136.92,196.767 L199.919,196.767 L199.919,198.767 L136.92,198.767 C135.266,198.767 133.92,200.113 133.92,201.767"/>
    <polygon fill="#475059" points="123.92 201.855 125.92 201.855 125.92 187.903 123.92 187.903"/>
    <path fill="#475059" d="M124.927 206.254C124.925 206.254 124.922 206.254 124.919 206.254L123.92 206.253 123.92 200.866 125.92 200.866 125.92 204.202C128.236 203.957 130.375 202.861 131.903 201.11L132.202 200.767 203.922 200.767 203.92 183.904 198.92 183.904 198.92 181.904 205.92 181.904 205.922 202.767 133.098 202.767C130.99 204.989 128.039 206.254 124.927 206.254M165.995 53.746L87.995 53.746C85.238 53.746 82.995 51.502 82.995 48.746 82.995 45.989 85.238 43.746 87.995 43.746L165.995 43.746 165.995 45.746 87.995 45.746C86.34 45.746 84.995 47.091 84.995 48.746 84.995 50.4 86.34 51.746 87.995 51.746L165.995 51.746 165.995 53.746"/>
    <polygon fill="#475059" points="105.576 104.796 144.045 104.796 144.045 102.796 105.576 102.796"/>
    <path fill="#475059" d="M124.94 84.855C120.078 84.855 115.97 93.532 115.97 103.802 115.97 114.072 120.078 122.749 124.94 122.749 129.802 122.749 133.911 114.072 133.911 103.802 133.911 93.532 129.802 84.855 124.94 84.855zM124.94 124.749C118.789 124.749 113.97 115.547 113.97 103.802 113.97 92.056 118.789 82.855 124.94 82.855 131.091 82.855 135.911 92.056 135.911 103.802 135.911 115.547 131.091 124.749 124.94 124.749zM147.311 186.462L146.676 184.861C168.962 176.032 184.678 156.671 188.716 133.073 192.772 109.375 183.852 85.026 165.438 69.525L166.547 68.208C185.426 84.1 194.571 109.067 190.414 133.364 186.273 157.559 170.16 177.409 147.311 186.462"/>
    <path fill="#475059" d="M190.398 133.428C195.839 133.756 200.806 130.029 201.983 124.674 196.505 124.339 191.577 128.074 190.398 133.428zM191.068 135.17C190.473 135.17 189.873 135.129 189.268 135.044L188.41 134.924 188.541 134.034C189.534 126.997 196.083 122.072 203.113 123.058L203.968 123.178 203.846 124.033C202.935 130.5 197.393 135.17 191.068 135.17zM184.231 152.691C189.353 154.639 195.179 152.556 197.903 147.798 192.785 145.852 186.956 147.932 184.231 152.691zM188.173 155.138C186.324 155.138 184.448 154.739 182.669 153.896L181.895 153.529 182.274 152.721C185.328 146.294 193.033 143.548 199.464 146.593L200.239 146.96 199.875 147.737C197.656 152.409 193.007 155.138 188.173 155.138zM173.094 168.544C177.677 171.552 183.815 170.775 187.5 166.714 182.918 163.708 176.78 164.487 173.094 168.544zM179.203 172.088C176.438 172.088 173.657 171.206 171.31 169.384L170.642 168.866 171.17 168.161C175.543 162.536 183.666 161.513 189.284 165.875L189.968 166.406 189.433 167.087C186.88 170.371 183.058 172.088 179.203 172.088zM158.369 181.044C161.781 185.332 167.856 186.509 172.625 183.806 169.212 179.519 163.138 178.342 158.369 181.044zM167.13 186.97C162.976 186.97 158.899 184.976 156.412 181.285L155.924 180.561 156.682 180.065C162.576 176.1 170.609 177.669 174.583 183.566L175.07 184.29 174.34 184.767C172.125 186.257 169.614 186.97 167.13 186.97zM177.583 62.023C173.827 66.013 173.529 72.193 176.886 76.528 180.641 72.537 180.94 66.357 177.583 62.023zM176.758 79.015L176.159 78.337C171.392 73.073 171.795 64.897 177.065 60.121L177.697 59.547 178.276 60.174C183.077 65.479 182.673 73.654 177.404 78.43L176.758 79.015zM191.835 79.636C187.021 82.253 184.807 88.032 186.643 93.198 191.456 90.58 193.67 84.802 191.835 79.636zM185.749 95.519L185.387 94.694C182.502 88.199 185.441 80.558 191.939 77.668L192.73 77.315 193.078 78.109C195.975 84.635 193.037 92.275 186.54 95.166L185.749 95.519zM199.876 101.677C194.54 102.923 190.872 107.906 191.27 113.375 196.606 112.128 200.275 107.146 199.876 101.677zM189.814 115.372L189.666 114.505C188.606 107.455 193.466 100.869 200.499 99.806L201.357 99.677 201.48 100.536C202.541 107.596 197.68 114.182 190.649 115.246L189.814 115.372zM103.621 186.462C80.772 177.41 64.659 157.559 60.518 133.364 56.385 109.213 64.95 85.164 83.426 69.03L84.559 70.327C66.538 86.062 58.185 109.519 62.215 133.073 66.253 156.671 81.969 176.032 104.255 184.861L103.621 186.462"/>
    <path fill="#475059" d="M48.951 124.674C50.145 130.041 55.05 133.764 60.534 133.428 59.352 128.073 54.392 124.345 48.951 124.674zM59.863 135.17C53.538 135.17 47.998 130.502 47.09 124.065L46.97 123.211 47.819 123.058C54.868 122.072 61.399 126.997 62.392 134.039L62.512 134.891 61.664 135.044C61.059 135.129 60.458 135.17 59.863 135.17zM53.031 147.797C55.77 152.561 61.583 154.637 66.702 152.691 63.98 147.936 58.154 145.849 53.031 147.797zM62.753 155.139C57.922 155.139 53.28 152.417 51.074 147.772L50.704 146.994 51.467 146.593C57.895 143.55 65.605 146.294 68.656 152.717L69.026 153.496 68.262 153.896C66.483 154.739 64.604 155.139 62.753 155.139zM63.434 166.713C67.143 170.775 73.266 171.545 77.838 168.544 74.162 164.489 68.019 163.706 63.434 166.713zM71.722 172.09C67.871 172.09 64.058 170.378 61.517 167.111L60.989 166.431 61.648 165.875C67.266 161.513 75.387 162.535 79.752 168.149L80.281 168.829 79.622 169.384C77.273 171.208 74.488 172.09 71.722 172.09zM78.308 183.804C83.103 186.502 89.156 185.323 92.562 181.045 87.776 178.344 81.716 179.524 78.308 183.804zM83.796 186.974C81.319 186.974 78.816 186.263 76.611 184.78L75.896 184.299 76.349 183.566C80.325 177.669 88.357 176.099 94.257 180.071L94.972 180.551 94.52 181.285C92.031 184.978 87.949 186.974 83.796 186.974zM73.35 62.024C69.994 66.373 70.295 72.542 74.044 76.527 77.402 72.188 77.102 66.012 73.35 62.024zM74.189 78.984L73.528 78.43C68.258 73.654 67.855 65.479 72.626 60.206L73.205 59.567 73.867 60.121C79.136 64.897 79.54 73.073 74.766 78.345L74.189 78.984zM59.098 79.637C57.271 84.824 59.486 90.585 64.289 93.198 66.123 88.03 63.91 82.255 59.098 79.637zM65.193 95.486L64.392 95.166C57.895 92.275 54.956 84.635 57.842 78.135L58.192 77.348 58.993 77.668C65.491 80.558 68.429 88.199 65.542 94.699L65.193 95.486zM51.057 101.678C50.672 107.166 54.338 112.131 59.664 113.375 60.067 107.916 56.397 102.926 51.057 101.678zM61.141 115.34L60.283 115.246C53.251 114.182 48.391 107.596 49.448 100.564L49.576 99.712 50.433 99.806C57.465 100.869 62.326 107.455 61.269 114.488L61.141 115.34z"/>
    <polygon fill="#475059" points="108.994 131.75 140.994 131.75 140.994 129.75 108.994 129.75"/>
    <polygon fill="#475059" points="112.994 135.75 136.994 135.75 136.994 133.75 112.994 133.75"/>
    <polygon fill="#48515A" points="213.007 153.626 215.007 153.626 215.007 149.626 213.007 149.626"/>
    <polygon fill="#48515A" points="213.007 163.626 215.007 163.626 215.007 159.626 213.007 159.626"/>
    <polygon fill="#48515A" points="217.007 157.626 221.007 157.626 221.007 155.626 217.007 155.626"/>
    <polygon fill="#48515A" points="207.007 157.626 211.007 157.626 211.007 155.626 207.007 155.626"/>
    <polygon fill="#48515A" points="34.993 86.626 36.993 86.626 36.993 82.626 34.993 82.626"/>
    <polygon fill="#48515A" points="34.993 96.626 36.993 96.626 36.993 92.626 34.993 92.626"/>
    <polygon fill="#48515A" points="38.993 90.626 42.993 90.626 42.993 88.626 38.993 88.626"/>
    <polygon fill="#48515A" points="28.993 90.626 32.993 90.626 32.993 88.626 28.993 88.626"/>
    <path fill="#5FE0ED" d="M212.994 98.749C212.994 99.854 212.098 100.75 210.994 100.75 209.889 100.75 208.994 99.854 208.994 98.749 208.994 97.645 209.889 96.749 210.994 96.749 212.098 96.749 212.994 97.645 212.994 98.749M40.994 162.75C40.994 163.854 40.098 164.75 38.994 164.75 37.889 164.75 36.994 163.854 36.994 162.75 36.994 161.645 37.889 160.75 38.994 160.75 40.098 160.75 40.994 161.645 40.994 162.75M190.994 55.749C190.994 56.302 191.441 56.749 191.994 56.749 192.546 56.749 192.994 56.302 192.994 55.749 192.994 55.197 192.546 54.75 191.994 54.75 191.441 54.75 190.994 55.197 190.994 55.749M70.994 122.75C70.994 123.854 70.098 124.75 68.994 124.75 67.889 124.75 66.994 123.854 66.994 122.75 66.994 121.645 67.889 120.75 68.994 120.75 70.098 120.75 70.994 121.645 70.994 122.75"/>
  </g>
</svg>
