<svg xmlns="http://www.w3.org/2000/svg" width="250" height="250" viewBox="0 0 250 250">
  <g fill="none" fill-rule="evenodd">
    <polygon fill="#DEDEDD" points="75.461 209.52 180.484 209.52 180.484 205.518 75.461 205.518"/>
    <path fill="#DEDEDD" d="M209.522,114.535 L42.139,114.535 L42.139,105.102 L125.831,66.903 L209.522,105.102 L209.522,114.535 Z M125.831,62.506 L38.139,102.53 L38.139,118.535 L213.522,118.535 L213.522,102.53 L125.831,62.506 Z"/>
    <polyline fill="#DEDEDD" points="205.522 107.674 125.831 71.3 46.139 107.674 46.139 110.535 61.792 110.535 125.831 81.305 189.869 110.535 205.522 110.535 205.522 107.674"/>
    <path fill="#475059" d="M39.139,212.52 L212.523,212.52 L212.523,202.518 L39.139,202.518 L39.139,212.52 Z M37.139,214.52 L214.523,214.52 L214.523,200.518 L37.139,200.518 L37.139,214.52 Z"/>
    <path fill="#475059" d="M76.461 204.52L179.484 204.52 179.484 202.518 76.461 202.518 76.461 204.52zM74.461 206.52L181.484 206.52 181.484 200.518 74.461 200.518 74.461 206.52zM76.461 212.52L179.484 212.52 179.484 210.518 76.461 210.518 76.461 212.52zM74.461 214.52L181.484 214.52 181.484 208.518 74.461 208.518 74.461 214.52z"/>
    <polyline fill="#475059" points="210.523 115.535 41.139 115.535 41.139 105.102 43.139 105.102 43.139 113.535 208.523 113.535 208.523 105.744 125.416 67.812 126.246 65.993 210.523 104.459 210.523 115.535"/>
    <polyline fill="#F58E70" points="136.551 45.479 140.546 45.479 140.546 39.479 128.547 39.479 128.547 45.479 136.551 45.479"/>
    <polyline fill="#F58E70" points="147.549 43.481 142.546 43.481 142.546 47.479 136.551 47.479 136.551 49.481 147.549 49.481 145.547 46.541 147.549 43.481"/>
    <path fill="#475059" d="M134.546,51.48 L151.679,51.48 L148.345,46.48 L151.679,41.48 L140.546,41.48 L140.546,37.48 L126.546,37.48 L126.546,47.48 L134.546,47.48 L134.546,51.48 Z M155.415,53.48 L132.546,53.48 L132.546,49.48 L124.546,49.48 L124.546,35.48 L142.546,35.48 L142.546,39.48 L155.415,39.48 L150.749,46.48 L155.415,53.48 Z"/>
    <polygon fill="#475059" points="124.546 62.48 126.546 62.48 126.546 48.48 124.546 48.48"/>
    <polyline fill="#DEDEDD" points="205.547 126.681 192.519 139.708 192.519 118.535 206.334 118.535 205.547 126.681"/>
    <polyline fill="#DEDEDD" points="195.519 118.533 182.525 118.533 182.525 124.533 184.522 124.533 184.522 128.531 182.525 128.531 182.525 134.531 184.522 134.531 184.522 139.532 184.519 139.532 184.519 180.521 184.522 180.521 184.522 185.52 182.525 185.52 182.525 191.52 184.522 191.52 184.522 195.517 182.525 195.517 182.525 201.517 195.519 201.517 195.519 118.533"/>
    <polyline fill="#DEDEDD" points="208.507 124.533 208.507 118.533 204.514 118.533 204.514 201.517 208.507 201.517 208.507 195.517 206.511 195.517 206.511 191.52 208.507 191.52 208.507 185.52 206.511 185.52 206.511 180.521 206.513 180.521 206.513 139.532 206.511 139.532 206.511 134.531 208.507 134.531 208.507 128.531 206.511 128.531 206.511 124.533 208.507 124.533"/>
    <path fill="#475059" d="M183.525 123.534L207.507 123.534 207.507 119.534 183.525 119.534 183.525 123.534zM181.525 125.534L209.507 125.534 209.507 117.534 181.525 117.534 181.525 125.534zM183.525 133.531L207.507 133.531 207.507 129.531 183.525 129.531 183.525 133.531zM181.525 135.531L209.507 135.531 209.507 127.531 181.525 127.531 181.525 135.531zM183.525 190.52L207.507 190.52 207.507 186.52 183.525 186.52 183.525 190.52zM181.525 192.52L209.507 192.52 209.507 184.52 181.525 184.52 181.525 192.52zM183.525 200.518L207.507 200.518 207.507 196.518 183.525 196.518 183.525 200.518zM181.525 202.518L209.507 202.518 209.507 194.518 181.525 194.518 181.525 202.518zM193.52 179.521L197.518 179.521 197.518 140.532 193.52 140.532 193.52 179.521zM191.52 181.521L199.518 181.521 199.518 138.532 191.52 138.532 191.52 181.521z"/>
    <polyline fill="#475059" points="189.518 181.521 184.52 181.521 184.52 179.521 187.518 179.521 187.518 140.532 184.52 140.532 184.52 138.532 189.518 138.532 189.518 181.521"/>
    <polyline fill="#475059" points="206.513 181.521 201.516 181.521 201.516 138.532 206.513 138.532 206.513 140.532 203.516 140.532 203.516 179.521 206.513 179.521 206.513 181.521"/>
    <polyline fill="#DEDEDD" points="137.677 126.681 124.65 139.708 124.65 118.535 138.465 118.535 137.677 126.681"/>
    <polyline fill="#DEDEDD" points="125.477 118.533 112.483 118.533 112.483 124.533 114.48 124.533 114.48 128.531 112.483 128.531 112.483 134.531 114.48 134.531 114.48 139.532 114.477 139.532 114.477 180.521 114.48 180.521 114.48 185.52 112.483 185.52 112.483 191.52 114.48 191.52 114.48 195.517 112.483 195.517 112.483 201.517 125.477 201.517 125.477 118.533"/>
    <polyline fill="#DEDEDD" points="138.465 124.533 138.465 118.533 134.472 118.533 134.472 201.517 138.465 201.517 138.465 195.517 136.469 195.517 136.469 191.52 138.465 191.52 138.465 185.52 136.469 185.52 136.469 180.521 136.471 180.521 136.471 139.532 136.469 139.532 136.469 134.531 138.465 134.531 138.465 128.531 136.469 128.531 136.469 124.533 138.465 124.533"/>
    <path fill="#475059" d="M113.483 123.534L137.465 123.534 137.465 119.534 113.483 119.534 113.483 123.534zM111.483 125.534L139.465 125.534 139.465 117.534 111.483 117.534 111.483 125.534zM113.483 133.531L137.465 133.531 137.465 129.531 113.483 129.531 113.483 133.531zM111.483 135.531L139.465 135.531 139.465 127.531 111.483 127.531 111.483 135.531zM113.483 190.52L137.465 190.52 137.465 186.52 113.483 186.52 113.483 190.52zM111.483 192.52L139.465 192.52 139.465 184.52 111.483 184.52 111.483 192.52zM113.483 200.518L137.465 200.518 137.465 196.518 113.483 196.518 113.483 200.518zM111.483 202.518L139.465 202.518 139.465 194.518 111.483 194.518 111.483 202.518zM123.478 179.521L127.476 179.521 127.476 140.532 123.478 140.532 123.478 179.521zM121.478 181.521L129.476 181.521 129.476 138.532 121.478 138.532 121.478 181.521z"/>
    <polyline fill="#475059" points="119.476 181.521 114.478 181.521 114.478 179.521 117.476 179.521 117.476 140.532 114.478 140.532 114.478 138.532 119.476 138.532 119.476 181.521"/>
    <polyline fill="#475059" points="136.471 181.521 131.474 181.521 131.474 138.532 136.471 138.532 136.471 140.532 133.474 140.532 133.474 179.521 136.471 179.521 136.471 181.521"/>
    <polyline fill="#DEDEDD" points="65.639 126.681 52.611 139.708 52.611 118.535 66.427 118.535 65.639 126.681"/>
    <polyline fill="#DEDEDD" points="55.435 118.533 42.441 118.533 42.441 124.533 44.437 124.533 44.437 128.531 42.441 128.531 42.441 134.531 44.437 134.531 44.437 139.532 44.435 139.532 44.435 180.521 44.437 180.521 44.437 185.52 42.441 185.52 42.441 191.52 44.437 191.52 44.437 195.517 42.441 195.517 42.441 201.517 55.435 201.517 55.435 118.533"/>
    <polyline fill="#DEDEDD" points="68.423 124.533 68.423 118.533 64.43 118.533 64.43 201.517 68.423 201.517 68.423 195.517 66.427 195.517 66.427 191.52 68.423 191.52 68.423 185.52 66.427 185.52 66.427 180.521 66.429 180.521 66.429 139.532 66.427 139.532 66.427 134.531 68.423 134.531 68.423 128.531 66.427 128.531 66.427 124.533 68.423 124.533"/>
    <path fill="#475059" d="M43.441 123.534L67.423 123.534 67.423 119.534 43.441 119.534 43.441 123.534zM41.441 125.534L69.423 125.534 69.423 117.534 41.441 117.534 41.441 125.534zM43.441 133.531L67.423 133.531 67.423 129.531 43.441 129.531 43.441 133.531zM41.441 135.531L69.423 135.531 69.423 127.531 41.441 127.531 41.441 135.531zM43.441 190.52L67.423 190.52 67.423 186.52 43.441 186.52 43.441 190.52zM41.441 192.52L69.423 192.52 69.423 184.52 41.441 184.52 41.441 192.52zM43.441 200.518L67.423 200.518 67.423 196.518 43.441 196.518 43.441 200.518zM41.441 202.518L69.423 202.518 69.423 194.518 41.441 194.518 41.441 202.518zM53.435 179.521L57.434 179.521 57.434 140.532 53.435 140.532 53.435 179.521zM51.435 181.521L59.434 181.521 59.434 138.532 51.435 138.532 51.435 181.521z"/>
    <polyline fill="#475059" points="49.434 181.521 44.435 181.521 44.435 179.521 47.434 179.521 47.434 140.532 44.435 140.532 44.435 138.532 49.434 138.532 49.434 181.521"/>
    <polyline fill="#475059" points="66.429 181.521 61.432 181.521 61.432 138.532 66.429 138.532 66.429 140.532 63.432 140.532 63.432 179.521 66.429 179.521 66.429 181.521"/>
    <path fill="#475059" d="M38.554,103.44 L37.724,101.62 L60.998,90.998 L61.828,92.817 L38.554,103.44 Z M213.107,103.44 L125.83,63.605 L95.614,77.397 L94.784,75.577 L125.83,61.407 L213.938,101.62 L213.107,103.44 Z M210.523,115.535 L41.139,115.535 L41.139,104.459 L61.886,94.99 L62.716,96.809 L43.139,105.745 L43.139,113.535 L208.523,113.535 L208.523,105.744 L125.831,68.002 L97.24,81.051 L96.41,79.232 L125.831,65.803 L210.523,104.459 L210.523,115.535 Z"/>
    <path fill="#475059" d="M125.974 89.537C121.839 89.537 118.476 92.901 118.476 97.035 118.476 101.17 121.839 104.533 125.974 104.533 130.108 104.533 133.472 101.17 133.472 97.035 133.472 92.901 130.108 89.537 125.974 89.537zM125.974 106.533C120.736 106.533 116.476 102.272 116.476 97.035 116.476 91.798 120.736 87.537 125.974 87.537 131.211 87.537 135.472 91.798 135.472 97.035 135.472 102.272 131.211 106.533 125.974 106.533zM75.502 145.505C73.848 145.505 72.502 146.85 72.502 148.505 72.502 150.159 73.848 151.505 75.502 151.505L169.703 151.505 176.209 148.505 169.703 145.505 75.502 145.505zM170.143 153.505L75.502 153.505C72.745 153.505 70.502 151.261 70.502 148.505 70.502 145.748 72.745 143.505 75.502 143.505L170.143 143.505 180.984 148.505 170.143 153.505z"/>
    <polygon fill="#475059" points="81.112 152.103 83.112 152.103 83.112 144.505 81.112 144.505"/>
    <polyline fill="#475059" points="169.154 149.534 82.112 149.533 82.112 147.533 169.154 147.534 169.154 149.534"/>
    <path fill="#475059" d="M64.301,84.611 L64.301,84.728 C64.301,85.528 64.613,86.28 65.179,86.845 C65.745,87.41 66.467,87.735 67.297,87.719 L68.025,87.717 C69.672,87.715 71.011,86.373 71.011,84.727 L71.011,84.611 L67.656,75.238 L64.301,84.611 Z M67.292,89.719 C65.96,89.719 64.709,89.201 63.766,88.26 C62.821,87.318 62.301,86.063 62.301,84.728 L62.301,84.264 L67.656,69.302 L73.011,84.264 L73.011,84.727 C73.011,87.474 70.776,89.713 68.029,89.717 L67.301,89.719 C67.298,89.719 67.295,89.719 67.292,89.719 Z"/>
    <polygon fill="#475059" points="63.308 85.438 72.011 85.438 72.011 83.438 63.308 83.438"/>
    <polyline fill="#475059" points="78.343 71.132 74.978 67.339 62.301 67.339 62.301 65.339 75.876 65.339 78.343 68.119 80.811 65.339 94.301 65.339 94.301 67.339 81.709 67.339 78.343 71.132"/>
    <polyline fill="#475059" points="74.367 97.437 72.367 97.437 72.367 95.089 75.37 92.087 75.37 74.114 77.37 74.114 77.37 92.915 74.367 95.918 74.367 97.437"/>
    <polyline fill="#475059" points="84.239 97.437 82.239 97.437 82.239 95.913 79.24 92.915 79.24 74.114 81.24 74.114 81.24 92.087 84.239 95.085 84.239 97.437"/>
    <polygon fill="#475059" points="74.914 71.243 81.696 71.243 81.696 69.243 74.914 69.243"/>
    <path fill="#475059" d="M85.596,84.594 C85.634,85.336 85.94,86.027 86.47,86.555 C87.034,87.119 87.784,87.429 88.582,87.429 C88.583,87.429 88.585,87.429 88.587,87.429 L89.315,87.428 C90.91,87.425 92.216,86.168 92.298,84.594 L88.946,74.911 L85.596,84.594 Z M88.582,89.429 C87.251,89.429 85.999,88.912 85.057,87.971 C84.112,87.028 83.592,85.774 83.592,84.439 L83.592,84.271 L88.946,68.795 L94.302,84.27 L94.302,84.438 C94.302,87.184 92.066,89.423 89.319,89.428 L88.591,89.429 C88.588,89.429 88.585,89.429 88.582,89.429 Z"/>
    <polygon fill="#475059" points="84.598 85.438 93.302 85.438 93.302 83.438 84.598 83.438"/>
    <polygon fill="#475059" points="74.914 75.114 81.696 75.114 81.696 73.114 74.914 73.114"/>
    <polygon fill="#475059" points="76.37 93.501 80.24 93.501 80.24 91.501 76.37 91.501"/>
    <path fill="#48515A" d="M156.478 193.604L170.478 193.604 170.478 191.604 156.478 191.604 156.478 193.604zM154.478 195.604L172.478 195.604 172.478 189.604 154.478 189.604 154.478 195.604zM160.051 181.604L168.148 181.604 168.148 179.604 166.202 179.604 166.202 167.604 168.148 167.604 168.148 165.604 160.051 165.604 160.051 167.604 162.148 167.604 162.148 179.604 160.051 179.604 160.051 181.604zM170.148 183.604L158.051 183.604 158.051 177.604 160.148 177.604 160.148 169.604 158.051 169.604 158.051 163.604 170.148 163.604 170.148 169.604 168.202 169.604 168.202 177.604 170.148 177.604 170.148 183.604z"/>
    <path fill="#48515A" d="M167.202 169.604L161.148 169.604C160.595 169.604 160.148 169.156 160.148 168.604 160.148 168.052 160.595 167.604 161.148 167.604L167.202 167.604C167.755 167.604 168.202 168.052 168.202 168.604 168.202 169.156 167.755 169.604 167.202 169.604M167.202 179.604L161.148 179.604C160.595 179.604 160.148 179.156 160.148 178.604 160.148 178.052 160.595 177.604 161.148 177.604L167.202 177.604C167.755 177.604 168.202 178.052 168.202 178.604 168.202 179.156 167.755 179.604 167.202 179.604M160.479 174.605L140.479 174.605C139.926 174.605 139.479 174.157 139.479 173.605 139.479 173.052 139.926 172.605 140.479 172.605L160.479 172.605C161.031 172.605 161.479 173.052 161.479 173.605 161.479 174.157 161.031 174.605 160.479 174.605"/>
    <polygon fill="#48515A" points="213.49 67.537 215.49 67.537 215.49 63.537 213.49 63.537"/>
    <polygon fill="#48515A" points="213.49 77.537 215.49 77.537 215.49 73.537 213.49 73.537"/>
    <polygon fill="#48515A" points="217.49 71.537 221.49 71.537 221.49 69.537 217.49 69.537"/>
    <polygon fill="#48515A" points="207.49 71.537 211.49 71.537 211.49 69.537 207.49 69.537"/>
    <path fill="#FFD15D" d="M221.49 147.165C221.49 149.365 219.706 151.149 217.506 151.149 215.306 151.149 213.522 149.365 213.522 147.165 213.522 144.964 215.306 143.181 217.506 143.181 219.706 143.181 221.49 144.964 221.49 147.165M36.492 90.037C36.492 91.97 34.925 93.537 32.992 93.537 31.059 93.537 29.492 91.97 29.492 90.037 29.492 88.104 31.059 86.537 32.992 86.537 34.925 86.537 36.492 88.104 36.492 90.037"/>
    <polyline fill="#5FE0ED" points="28.51 192.513 28.51 162.545 90.51 162.506 90.51 192.513 28.51 192.513"/>
    <path fill="#48515A" d="M62.163,184.392 L56.547,184.392 C54.776,184.392 53.335,182.944 53.335,181.162 L55.335,181.162 C55.335,181.841 55.879,182.392 56.547,182.392 L62.163,182.392 C63.008,182.392 63.696,181.698 63.696,180.843 L63.696,179.884 C63.696,179.038 63.008,178.35 62.163,178.35 L56.626,178.35 C54.678,178.35 53.092,176.764 53.092,174.816 L53.092,173.855 C53.092,171.907 54.678,170.322 56.626,170.322 L62.577,170.322 C64.113,170.322 65.362,171.572 65.362,173.107 L63.362,173.107 C63.362,172.674 63.01,172.322 62.577,172.322 L56.626,172.322 C55.78,172.322 55.092,173.01 55.092,173.855 L55.092,174.816 C55.092,175.662 55.78,176.35 56.626,176.35 L62.163,176.35 C64.111,176.35 65.696,177.935 65.696,179.884 L65.696,180.843 C65.696,182.8 64.111,184.392 62.163,184.392"/>
    <polygon fill="#48515A" points="58 187 60 187 60 169 58 169"/>
    <polygon fill="#48515A" points="69.523 178.483 75.492 178.483 75.492 176.483 69.523 176.483"/>
    <polygon fill="#48515A" points="69.461 182.514 75.43 182.514 75.43 180.514 69.461 180.514"/>
    <polygon fill="#48515A" points="69.492 174.489 75.461 174.489 75.461 172.489 69.492 172.489"/>
    <polygon fill="#48515A" points="43.527 178.621 49.496 178.621 49.496 176.621 43.527 176.621"/>
    <polygon fill="#48515A" points="43.59 174.59 49.559 174.59 49.559 172.59 43.59 172.59"/>
    <polygon fill="#48515A" points="43.559 182.615 49.528 182.615 49.528 180.615 43.559 180.615"/>
    <path fill="#48515A" d="M32.492,188.514 L86.492,188.514 L86.492,166.514 L32.492,166.514 L32.492,188.514 Z M30.492,190.514 L88.492,190.514 L88.492,164.514 L30.492,164.514 L30.492,190.514 Z"/>
    <path fill="#FFD15D" d="M193.305 77.43C193.305 76.278 194.239 75.345 195.39 75.345 196.542 75.345 197.475 76.278 197.475 77.43 197.475 78.581 196.542 79.515 195.39 79.515 194.239 79.515 193.305 78.581 193.305 77.43M196.492 59.514C196.492 49.573 188.433 41.514 178.492 41.514 168.551 41.514 160.492 49.573 160.492 59.514 160.492 69.456 168.551 77.514 178.492 77.514 188.433 77.514 196.492 69.456 196.492 59.514"/>
    <path fill="#475059" d="M178.494,74.514 C178.487,74.514 178.482,74.514 178.476,74.514 C174.469,74.509 170.703,72.945 167.873,70.108 C165.044,67.272 163.487,63.503 163.492,59.497 C163.503,51.232 170.231,44.514 178.492,44.514 C178.499,44.514 178.504,44.514 178.51,44.514 C180.018,44.516 181.504,44.741 182.929,45.181 L183.936,45.598 C184.445,45.811 184.686,46.397 184.473,46.906 C184.259,47.416 183.671,47.655 183.164,47.443 L182.247,47.059 C181.104,46.71 179.815,46.516 178.508,46.514 C178.503,46.514 178.497,46.514 178.492,46.514 C171.331,46.514 165.501,52.336 165.492,59.499 C165.488,62.971 166.837,66.238 169.289,68.696 C171.742,71.154 175.005,72.51 178.478,72.514 C178.483,72.514 178.488,72.514 178.494,72.514 C181.96,72.514 185.22,71.166 187.674,68.717 C190.132,66.265 191.488,63.002 191.492,59.529 C191.496,56.515 190.445,53.577 188.534,51.257 C188.183,50.831 188.243,50.2 188.67,49.849 C189.098,49.498 189.728,49.559 190.077,49.986 C192.283,52.664 193.496,56.054 193.492,59.531 C193.487,63.538 191.923,67.303 189.087,70.133 C186.255,72.958 182.493,74.514 178.494,74.514"/>
    <path fill="#475059" d="M180.985,66.488 L175.427,66.488 C173.668,66.488 172.236,65.049 172.236,63.28 C172.236,62.728 172.684,62.281 173.236,62.281 C173.789,62.281 174.236,62.728 174.236,63.28 C174.236,63.946 174.771,64.488 175.427,64.488 L180.985,64.488 C181.817,64.488 182.494,63.804 182.494,62.964 L182.494,62.014 C182.494,61.182 181.817,60.506 180.985,60.506 L175.505,60.506 C173.57,60.506 171.997,58.932 171.997,56.998 L171.997,56.047 C171.997,54.112 173.57,52.538 175.505,52.538 L181.397,52.538 C182.922,52.538 184.163,53.779 184.163,55.305 C184.163,55.858 183.716,56.305 183.163,56.305 C182.61,56.305 182.163,55.858 182.163,55.305 C182.163,54.883 181.819,54.538 181.397,54.538 L175.505,54.538 C174.674,54.538 173.997,55.215 173.997,56.047 L173.997,56.998 C173.997,57.829 174.674,58.506 175.505,58.506 L180.985,58.506 C182.92,58.506 184.494,60.08 184.494,62.014 L184.494,62.964 C184.494,64.907 182.92,66.488 180.985,66.488"/>
    <path fill="#475059" d="M178 69.514C177.447 69.514 177 69.066 177 68.514L177 50.514C177 49.962 177.447 49.514 178 49.514 178.553 49.514 179 49.962 179 50.514L179 68.514C179 69.066 178.553 69.514 178 69.514M186.502 49.524C186.371 49.524 186.241 49.494 186.121 49.444 186.002 49.394 185.892 49.324 185.802 49.234 185.701 49.133 185.632 49.034 185.581 48.904 185.531 48.784 185.502 48.654 185.502 48.524 185.502 48.394 185.531 48.264 185.581 48.144 185.632 48.014 185.701 47.914 185.802 47.814 185.892 47.724 186.002 47.654 186.121 47.604 186.302 47.524 186.502 47.504 186.701 47.544 186.762 47.554 186.821 47.574 186.892 47.604 186.951 47.624 187.002 47.654 187.062 47.694 187.111 47.724 187.161 47.774 187.212 47.814 187.302 47.914 187.382 48.014 187.432 48.144 187.482 48.264 187.502 48.394 187.502 48.524 187.502 48.654 187.482 48.784 187.432 48.904 187.382 49.024 187.302 49.133 187.212 49.234 187.161 49.274 187.111 49.324 187.062 49.354 187.002 49.394 186.951 49.424 186.892 49.444 186.821 49.474 186.762 49.494 186.701 49.504 186.632 49.514 186.571 49.524 186.502 49.524"/>
  </g>
</svg>
