<svg xmlns="http://www.w3.org/2000/svg" width="250" height="250" viewBox="0 0 250 250">
  <g fill="none" fill-rule="evenodd">
    <path fill="#FFD15D" d="M208.013,107.984 C208.013,98.043 199.955,89.984 190.013,89.984 C180.072,89.984 172.013,98.043 172.013,107.984 C172.013,117.925 180.072,125.984 190.013,125.984 C199.955,125.984 208.013,117.925 208.013,107.984"/>
    <path fill="#475059" d="M190.016,122.983 C190.009,122.983 190.003,122.983 189.997,122.983 C185.99,122.979 182.225,121.414 179.395,118.577 C176.565,115.741 175.009,111.972 175.014,107.966 C175.024,99.701 181.752,92.983 190.014,92.983 C190.021,92.983 190.025,92.983 190.031,92.983 C191.539,92.985 193.025,93.21 194.45,93.65 L195.457,94.067 C195.967,94.28 196.207,94.866 195.994,95.376 C195.78,95.885 195.192,96.123 194.686,95.912 L193.769,95.528 C192.625,95.179 191.337,94.985 190.029,94.983 C190.024,94.983 190.019,94.983 190.014,94.983 C182.853,94.983 177.022,100.805 177.014,107.968 C177.01,111.441 178.358,114.707 180.811,117.165 C183.264,119.623 186.526,120.979 189.999,120.983 C190.005,120.983 190.01,120.983 190.016,120.983 C193.481,120.983 196.741,119.635 199.195,117.186 C201.653,114.734 203.01,111.471 203.014,107.999 C203.018,104.985 201.967,102.047 200.056,99.726 C199.704,99.3 199.765,98.67 200.191,98.319 C200.619,97.967 201.249,98.029 201.599,98.455 C203.805,101.133 205.018,104.523 205.014,108.001 C205.009,112.008 203.444,115.773 200.608,118.602 C197.776,121.427 194.015,122.983 190.016,122.983"/>
    <path fill="#475059" d="M192.507,114.957 L186.948,114.957 C185.189,114.957 183.758,113.518 183.758,111.75 C183.758,111.197 184.205,110.75 184.758,110.75 C185.311,110.75 185.758,111.197 185.758,111.75 C185.758,112.416 186.292,112.957 186.948,112.957 L192.507,112.957 C193.339,112.957 194.016,112.274 194.016,111.433 L194.016,110.483 C194.016,109.652 193.339,108.975 192.507,108.975 L187.026,108.975 C185.092,108.975 183.519,107.402 183.519,105.467 L183.519,104.516 C183.519,102.581 185.092,101.008 187.026,101.008 L192.918,101.008 C194.443,101.008 195.685,102.249 195.685,103.775 C195.685,104.327 195.237,104.775 194.685,104.775 C194.132,104.775 193.685,104.327 193.685,103.775 C193.685,103.352 193.341,103.008 192.918,103.008 L187.026,103.008 C186.195,103.008 185.519,103.684 185.519,104.516 L185.519,105.467 C185.519,106.299 186.195,106.975 187.026,106.975 L192.507,106.975 C194.441,106.975 196.016,108.549 196.016,110.483 L196.016,111.433 C196.016,113.376 194.441,114.957 192.507,114.957"/>
    <path fill="#475059" d="M190 118C189.447 118 189 117.552 189 117L189 99C189 98.448 189.447 98 190 98 190.553 98 191 98.448 191 99L191 117C191 117.552 190.553 118 190 118M198.023 97.993C197.893 97.993 197.763 97.963 197.643 97.913 197.523 97.863 197.413 97.793 197.323 97.703 197.133 97.513 197.023 97.253 197.023 96.993 197.023 96.733 197.133 96.473 197.323 96.283 197.413 96.193 197.523 96.123 197.643 96.073 197.823 95.993 198.023 95.973 198.223 96.013 198.283 96.023 198.343 96.043 198.413 96.073 198.473 96.093 198.523 96.123 198.583 96.163 198.633 96.193 198.683 96.243 198.733 96.283 198.783 96.333 198.823 96.383 198.853 96.433 198.893 96.493 198.923 96.553 198.953 96.613 198.973 96.673 198.993 96.733 199.013 96.793 199.023 96.863 199.033 96.923 199.033 96.993 199.033 97.053 199.023 97.123 199.013 97.193 198.993 97.253 198.973 97.313 198.953 97.373 198.923 97.433 198.893 97.493 198.853 97.553 198.823 97.603 198.783 97.653 198.733 97.703 198.683 97.743 198.633 97.783 198.583 97.823 198.523 97.863 198.473 97.893 198.413 97.913 198.343 97.943 198.283 97.963 198.223 97.973 198.153 97.983 198.093 97.993 198.023 97.993"/>
    <polyline fill="#5FE0ED" points="153.031 84.982 153.031 55.014 215.031 54.975 215.031 84.982 153.031 84.982"/>
    <path fill="#48515A" d="M186.684,76.861 L181.069,76.861 C179.298,76.861 177.856,75.413 177.856,73.632 L179.856,73.632 C179.856,74.31 180.4,74.861 181.069,74.861 L186.684,74.861 C187.529,74.861 188.218,74.167 188.218,73.312 L188.218,72.353 C188.218,71.507 187.529,70.819 186.684,70.819 L181.147,70.819 C179.199,70.819 177.614,69.234 177.614,67.285 L177.614,66.324 C177.614,64.376 179.199,62.791 181.147,62.791 L187.099,62.791 C188.635,62.791 189.884,64.041 189.884,65.576 L187.884,65.576 C187.884,65.143 187.531,64.791 187.099,64.791 L181.147,64.791 C180.302,64.791 179.614,65.479 179.614,66.324 L179.614,67.285 C179.614,68.131 180.302,68.819 181.147,68.819 L186.684,68.819 C188.633,68.819 190.218,70.404 190.218,72.353 L190.218,73.312 C190.218,75.269 188.633,76.861 186.684,76.861"/>
    <polygon fill="#48515A" points="183 79 185 79 185 61 183 61"/>
    <polygon fill="#48515A" points="194.045 70.952 200.014 70.952 200.014 68.952 194.045 68.952"/>
    <polygon fill="#48515A" points="193.982 74.984 199.951 74.984 199.951 72.984 193.982 72.984"/>
    <polygon fill="#48515A" points="194.014 66.958 199.982 66.958 199.982 64.958 194.014 64.958"/>
    <polygon fill="#48515A" points="168.049 71.09 174.018 71.09 174.018 69.09 168.049 69.09"/>
    <polygon fill="#48515A" points="168.111 67.059 174.08 67.059 174.08 65.059 168.111 65.059"/>
    <polygon fill="#48515A" points="168.08 75.085 174.049 75.085 174.049 73.085 168.08 73.085"/>
    <path fill="#48515A" d="M157.014,80.983 L211.014,80.983 L211.014,58.983 L157.014,58.983 L157.014,80.983 Z M155.014,82.983 L213.014,82.983 L213.014,56.983 L155.014,56.983 L155.014,82.983 Z"/>
    <path fill="#DEDEDD" d="M180.8 137.431C183.814 136.939 186.822 137.592 189.052 139.22 189.235 139.354 189.414 139.493 189.586 139.637L182.522 144.636 177.256 147.223C177.256 147.223 177.237 144.848 177.013 142.247 176.885 140.75 176.356 138.426 176.576 138.364 177.966 137.975 179.38 137.662 180.8 137.431M59.166 194.992L59.166 194.994C59.165 196.185 58.195 197.154 57.004 197.154 57.004 197.154 57.003 197.154 57.002 197.154L50.013 197.146 50.013 182.972 57.062 182.979C57.633 182.98 58.175 183.207 58.585 183.619 58.996 184.03 59.222 184.571 59.221 185.141L59.166 194.992"/>
    <path fill="#475059" d="M83.052,194.033 L62.222,194.033 L62.222,192.033 L82.86,192.033 L159.987,177.124 L203.517,150.463 C197.803,145.356 190.799,144.452 184.563,148.088 L157.306,161.479 L110.527,161.479 L110.527,159.479 L128.843,159.479 C136.737,159.479 142.992,153.672 143.5,146.082 L94.863,146.082 C90.648,146.082 86.686,147.723 83.705,150.704 L62.929,171.48 L61.515,170.066 L82.291,149.29 C85.649,145.931 90.114,144.082 94.863,144.082 L145.533,144.082 L145.533,145.082 C145.533,151.366 142.109,156.719 136.953,159.479 L156.841,159.479 L183.619,146.326 C190.855,142.103 199.403,143.47 205.859,149.926 L206.757,150.824 L160.724,179.018 L160.545,179.052 L83.052,194.033"/>
    <path fill="#475059" d="M184.061 148.223C183.747 148.223 183.438 148.077 183.243 147.801 182.924 147.35 183.031 146.726 183.481 146.407L192.646 139.922C191.958 139.051 191.148 138.275 190.231 137.605 187.572 135.663 184.017 134.88 180.479 135.457L177.175 135.996C176.629 136.084 176.115 135.715 176.026 135.17 175.938 134.625 176.308 134.11 176.853 134.021L180.156 133.482C184.216 132.824 188.323 133.733 191.411 135.99 192.786 136.994 193.954 138.208 194.882 139.598 195.183 140.049 195.069 140.656 194.628 140.969L184.638 148.04C184.462 148.164 184.26 148.223 184.061 148.223M48.013 199.18L57 199.189C58.066 199.169 59.149 198.757 59.94 197.968 60.729 197.18 61.165 196.137 61.166 195.032L61.166 195.031 61.222 164.053C61.224 161.76 59.358 159.891 57.064 159.889L48.013 159.88 48.013 199.18zM57.004 201.189C57.002 201.189 57 201.189 56.998 201.189L46.013 201.178 46.013 157.878 57.066 157.889C60.463 157.893 63.225 160.659 63.222 164.056L63.166 195.035C63.164 196.674 62.52 198.219 61.352 199.384 60.186 200.549 58.642 201.189 57.004 201.189z"/>
    <path fill="#DEDEDD" d="M110.528 156.455L133.97 156.455C137.558 154.945 140.24 151.884 141.174 148.082L136.382 148.082C134.286 149.574 131.691 150.455 128.843 150.455L116.528 150.455C113.214 150.455 110.528 153.141 110.528 156.455M192.381 147.913L159.252 168.204 82.669 183.008 65.188 183.008 65.175 190.033 82.669 190.033 159.252 175.228 199.993 150.276C197.574 148.704 194.98 147.913 192.381 147.913"/>
    <path fill="#475059" d="M176.587,151.746 L174.753,150.947 C175.576,149.058 175.993,147.046 175.993,144.966 C175.993,131.208 170.636,118.274 160.909,108.546 L147.439,95.076 C145.459,93.095 144.368,90.459 144.368,87.652 C144.368,84.847 145.461,82.209 147.445,80.224 L158.411,69.258 L160.229,67.657 L159.401,67.84 C156.323,68.524 153.152,68.255 150.233,67.067 L148.959,66.548 C145.689,65.214 142.088,65.216 138.818,66.548 C135.063,68.077 130.924,68.077 127.168,66.548 C123.898,65.215 120.296,65.215 117.026,66.548 L115.809,67.044 C112.852,68.249 109.643,68.508 106.526,67.792 L105.875,67.643 L107.24,68.923 L118.541,80.224 C120.525,82.209 121.618,84.847 121.618,87.652 C121.618,90.458 120.525,93.096 118.541,95.081 L105.08,108.543 C95.352,118.271 89.993,131.207 89.993,144.966 C89.993,145.593 90.032,146.225 90.109,146.841 L88.125,147.09 C88.037,146.391 87.993,145.676 87.993,144.966 C87.993,130.673 93.56,117.235 103.666,107.129 L117.127,93.667 C118.733,92.06 119.618,89.924 119.618,87.652 C119.618,85.381 118.733,83.245 117.127,81.638 L105.849,70.36 L101.809,66.569 C101.479,66.26 101.398,65.768 101.61,65.37 C101.823,64.971 102.28,64.765 102.717,64.865 L106.974,65.843 C109.686,66.466 112.479,66.24 115.055,65.191 L116.272,64.695 C120.027,63.166 124.165,63.165 127.922,64.695 C131.191,66.027 134.793,66.027 138.064,64.695 C141.821,63.165 145.959,63.165 149.714,64.695 L150.987,65.214 C153.528,66.248 156.288,66.483 158.968,65.888 L163.589,64.864 C164.036,64.764 164.491,64.981 164.697,65.387 C164.904,65.794 164.809,66.289 164.467,66.59 L159.779,70.716 L148.859,81.638 C147.253,83.245 146.368,85.381 146.368,87.652 C146.368,89.924 147.251,92.059 148.854,93.662 L162.323,107.132 C172.428,117.237 177.993,130.674 177.993,144.966 C177.993,147.322 177.52,149.603 176.587,151.746"/>
    <path fill="#FFF" d="M111.124,86.465 L154.999,86.465"/>
    <polygon fill="#475059" points="111.124 87.465 154.999 87.465 154.999 85.465 111.124 85.465"/>
    <path fill="#FFF" d="M111.124,90.463 L154.999,90.463"/>
    <polygon fill="#475059" points="111.124 91.463 154.999 91.463 154.999 89.463 111.124 89.463"/>
    <polyline fill="#475059" points="144.417 104.294 133.004 92.881 121.744 104.29 120.32 102.884 132.994 90.043 145.831 102.88 144.417 104.294"/>
    <path fill="#FFD15D" d="M95.013,69.984 C95.013,56.729 84.268,45.984 71.013,45.984 C57.759,45.984 47.013,56.729 47.013,69.984 C47.013,83.238 57.759,93.984 71.013,93.984 C84.268,93.984 95.013,83.238 95.013,69.984"/>
    <path fill="#475059" d="M71.016,89.65 C71.007,89.65 70.999,89.65 70.992,89.65 C60.147,89.637 51.335,80.804 51.348,69.96 C51.36,59.124 60.181,50.317 71.014,50.317 C71.021,50.317 71.029,50.317 71.037,50.317 C73.012,50.318 74.961,50.613 76.83,51.191 L78.143,51.736 C78.653,51.949 78.893,52.535 78.679,53.045 C78.465,53.554 77.88,53.794 77.371,53.581 L76.148,53.068 C74.561,52.583 72.81,52.318 71.035,52.317 C71.029,52.317 71.02,52.317 71.014,52.317 C61.281,52.317 53.359,60.227 53.348,69.962 C53.336,79.704 61.252,87.638 70.994,87.65 C71.001,87.65 71.008,87.65 71.015,87.65 C75.727,87.65 80.156,85.818 83.492,82.49 C86.833,79.157 88.676,74.722 88.681,70.004 C88.686,65.909 87.259,61.917 84.66,58.762 C84.31,58.336 84.371,57.705 84.797,57.354 C85.225,57.003 85.854,57.064 86.205,57.49 C89.097,61.003 90.687,65.448 90.681,70.006 C90.675,75.259 88.623,80.195 84.904,83.905 C81.191,87.61 76.26,89.65 71.016,89.65"/>
    <path fill="#475059" d="M74.338,78.948 L66.927,78.948 C64.765,78.948 63.006,77.179 63.006,75.005 C63.006,74.452 63.454,74.005 64.006,74.005 C64.559,74.005 65.006,74.452 65.006,75.005 C65.006,76.076 65.868,76.948 66.927,76.948 L74.338,76.948 C75.631,76.948 76.683,75.887 76.683,74.583 L76.683,73.316 C76.683,72.024 75.631,70.972 74.338,70.972 L67.03,70.972 C64.635,70.972 62.687,69.024 62.687,66.628 L62.687,65.36 C62.687,62.964 64.635,61.015 67.03,61.015 L74.886,61.015 C76.736,61.015 78.242,62.521 78.242,64.372 C78.242,64.924 77.794,65.372 77.242,65.372 C76.69,65.372 76.242,64.924 76.242,64.372 C76.242,63.624 75.634,63.015 74.886,63.015 L67.03,63.015 C65.738,63.015 64.686,64.067 64.686,65.36 L64.686,66.628 C64.686,67.921 65.738,68.972 67.03,68.972 L74.338,68.972 C76.734,68.972 78.683,70.921 78.683,73.316 L78.683,74.583 C78.683,76.99 76.734,78.948 74.338,78.948"/>
    <path fill="#475059" d="M71 83C70.448 83 70 82.552 70 82L70 58C70 57.448 70.448 57 71 57 71.552 57 72 57.448 72 58L72 82C72 82.552 71.552 83 71 83M81.703 56.333C81.633 56.333 81.562 56.323 81.503 56.313 81.443 56.293 81.373 56.273 81.312 56.253 81.253 56.223 81.193 56.193 81.143 56.163 81.083 56.123 81.033 56.083 80.993 56.033 80.893 55.943 80.823 55.833 80.773 55.713 80.723 55.593 80.693 55.463 80.693 55.333 80.693 55.063 80.803 54.813 80.993 54.623 81.363 54.253 82.033 54.253 82.403 54.623 82.593 54.813 82.693 55.063 82.693 55.333 82.693 55.593 82.593 55.853 82.403 56.033 82.363 56.083 82.303 56.123 82.253 56.163 82.203 56.193 82.143 56.223 82.083 56.253 82.023 56.273 81.953 56.293 81.893 56.313 81.833 56.323 81.763 56.333 81.703 56.333"/>
    <path fill="#FFD15D" d="M166.993 51.483C166.993 53.232 165.575 54.65 163.826 54.65 162.078 54.65 160.66 53.232 160.66 51.483 160.66 49.734 162.078 48.316 163.826 48.316 165.575 48.316 166.993 49.734 166.993 51.483M130.684 49.066C130.684 50.401 129.602 51.483 128.267 51.483 126.933 51.483 125.851 50.401 125.851 49.066 125.851 47.732 126.933 46.65 128.267 46.65 129.602 46.65 130.684 47.732 130.684 49.066M153.327 125.483C153.327 124.103 154.446 122.984 155.827 122.984 157.207 122.984 158.326 124.103 158.326 125.483 158.326 126.864 157.207 127.983 155.827 127.983 154.446 127.983 153.327 126.864 153.327 125.483M136.66 116.749C136.66 117.738 135.858 118.54 134.869 118.54 133.88 118.54 133.078 117.738 133.078 116.749 133.078 115.76 133.88 114.958 134.869 114.958 135.858 114.958 136.66 115.76 136.66 116.749"/>
    <polygon fill="#48515A" points="35.008 92.006 37.008 92.006 37.008 88.006 35.008 88.006"/>
    <polygon fill="#48515A" points="35.008 102.006 37.008 102.006 37.008 98.006 35.008 98.006"/>
    <polygon fill="#48515A" points="39.008 96.006 43.008 96.006 43.008 94.006 39.008 94.006"/>
    <polygon fill="#48515A" points="29.008 96.006 33.008 96.006 33.008 94.006 29.008 94.006"/>
    <polygon fill="#48515A" points="212.992 128.866 214.992 128.866 214.992 124.866 212.992 124.866"/>
    <polygon fill="#48515A" points="212.992 138.866 214.992 138.866 214.992 134.866 212.992 134.866"/>
    <polygon fill="#48515A" points="216.992 132.866 220.992 132.866 220.992 130.866 216.992 130.866"/>
    <polygon fill="#48515A" points="206.992 132.866 210.992 132.866 210.992 130.866 206.992 130.866"/>
    <path fill="#475059" d="M38.894,132.09 L38.894,132.206 C38.894,133.006 39.206,133.758 39.772,134.323 C40.337,134.886 41.087,135.197 41.884,135.197 C41.886,135.197 41.888,135.197 41.89,135.197 L42.618,135.195 C44.265,135.192 45.604,133.85 45.604,132.205 L45.604,132.09 L42.249,122.715 L38.894,132.09 Z M41.885,137.197 C40.553,137.197 39.302,136.679 38.359,135.738 C37.415,134.796 36.894,133.541 36.894,132.206 L36.894,131.742 L42.249,116.779 L47.604,131.742 L47.604,132.205 C47.604,134.952 45.369,137.19 42.623,137.195 L41.894,137.197 C41.891,137.197 41.888,137.197 41.885,137.197 Z"/>
    <polygon fill="#475059" points="37.9 132.916 46.604 132.916 46.604 130.916 37.9 130.916"/>
    <polyline fill="#475059" points="52.936 118.609 49.569 114.817 36.894 114.817 36.894 112.817 50.469 112.817 52.936 115.596 55.403 112.817 68.894 112.817 68.894 114.817 56.302 114.817 52.936 118.609"/>
    <polyline fill="#475059" points="48.96 144.915 46.96 144.915 46.96 142.567 49.962 139.564 49.962 121.591 51.962 121.591 51.962 140.392 48.96 143.395 48.96 144.915"/>
    <polyline fill="#475059" points="58.832 144.915 56.832 144.915 56.832 143.391 53.833 140.392 53.833 121.591 55.834 121.591 55.834 139.564 58.832 142.563 58.832 144.915"/>
    <polygon fill="#475059" points="49.507 118.72 56.289 118.72 56.289 116.72 49.507 116.72"/>
    <path fill="#475059" d="M60.188,132.072 C60.226,132.813 60.533,133.505 61.062,134.033 C61.627,134.596 62.377,134.907 63.175,134.907 C63.177,134.907 63.179,134.907 63.18,134.907 L63.909,134.906 C65.502,134.903 66.809,133.646 66.89,132.072 L63.54,122.389 L60.188,132.072 Z M63.174,136.907 C61.844,136.907 60.592,136.389 59.649,135.448 C58.705,134.506 58.185,133.251 58.185,131.917 L58.185,131.749 L63.54,116.273 L68.894,131.748 L68.894,131.916 C68.894,134.663 66.659,136.901 63.913,136.906 L63.184,136.907 C63.181,136.907 63.177,136.907 63.174,136.907 Z"/>
    <polygon fill="#475059" points="59.191 132.916 67.894 132.916 67.894 130.916 59.191 130.916"/>
    <polygon fill="#475059" points="49.507 122.591 56.289 122.591 56.289 120.591 49.507 120.591"/>
    <polygon fill="#475059" points="50.962 140.978 54.833 140.978 54.833 138.978 50.962 138.978"/>
    <path fill="#48515A" d="M190.99 202.016L204.99 202.016 204.99 200.016 190.99 200.016 190.99 202.016zM188.99 204.016L206.99 204.016 206.99 198.016 188.99 198.016 188.99 204.016zM194.563 190.016L202.66 190.016 202.66 188.016 200.715 188.016 200.715 176.016 202.66 176.016 202.66 174.016 194.563 174.016 194.563 176.016 196.66 176.016 196.66 188.016 194.563 188.016 194.563 190.016zM204.66 192.016L192.563 192.016 192.563 186.016 194.66 186.016 194.66 178.016 192.563 178.016 192.563 172.016 204.66 172.016 204.66 178.016 202.715 178.016 202.715 186.016 204.66 186.016 204.66 192.016z"/>
    <path fill="#48515A" d="M201.715 178.016L195.66 178.016C195.107 178.016 194.66 177.569 194.66 177.016 194.66 176.464 195.107 176.016 195.66 176.016L201.715 176.016C202.268 176.016 202.715 176.464 202.715 177.016 202.715 177.569 202.268 178.016 201.715 178.016M201.715 188.016L195.66 188.016C195.107 188.016 194.66 187.569 194.66 187.016 194.66 186.464 195.107 186.016 195.66 186.016L201.715 186.016C202.268 186.016 202.715 186.464 202.715 187.016 202.715 187.569 202.268 188.016 201.715 188.016M194.991 183.017L174.991 183.017C174.438 183.017 173.991 182.57 173.991 182.017 173.991 181.465 174.438 181.017 174.991 181.017L194.991 181.017C195.544 181.017 195.991 181.465 195.991 182.017 195.991 182.57 195.544 183.017 194.991 183.017"/>
  </g>
</svg>
