<svg xmlns="http://www.w3.org/2000/svg" width="250" height="250" viewBox="0 0 250 250">
  <g fill="none" fill-rule="evenodd">
    <path fill="#FFD15D" d="M117.008,194.423 C117.008,192.145 115.161,190.298 112.883,190.298 L50.883,190.298 L50.883,175.721 L44.883,175.721 L44.883,193.673 L49.383,193.673 L49.383,194.423 L117.008,194.423"/>
    <path fill="#475059" d="M121.878022,197.673 L119.878,197.673 L119.878,194.663 C119.887,190.801 116.754,187.653 112.894,187.645 L49.895,187.486 L49.9,185.486 L112.899,185.645 C117.861,185.655 121.889,189.702 121.878,194.665 L121.878022,197.673"/>
    <path fill="#475059" d="M117.883,194.574 L115.883,194.574 C115.883,192.92 114.537,191.574 112.883,191.574 L49.883,191.574 L49.883,189.574 L112.883,189.574 C115.639,189.574 117.883,191.817 117.883,194.574"/>
    <path fill="#475059" d="M125.883,194.663 L123.883,194.663 C123.883,188.598 118.948,183.663 112.883,183.663 L49.869,183.663 L49.869,167.711 L112.883,167.711 C120.051,167.711 125.883,173.543 125.883,180.711 L123.883,180.711 C123.883,174.646 118.948,169.711 112.883,169.711 L51.869,169.711 L51.869,181.663 L112.883,181.663 C120.051,181.663 125.883,187.495 125.883,194.663"/>
    <polygon fill="#475059" points="123.883 194.663 125.883 194.663 125.883 180.711 123.883 180.711"/>
    <path fill="#475059" d="M124.879,199.063 C121.765,199.063 118.813,197.797 116.704,195.574 L43.88,195.574 L43.883,174.711 L50.883,174.711 L50.883,176.711 L45.883,176.711 L45.88,193.574 L117.6,193.574 L117.899,193.917 C119.426,195.667 121.567,196.764 123.883,197.01 L123.883,193.673 L125.883,193.673 L125.883,199.063 L124.883,199.063 C124.882,199.063 124.88,199.063 124.879,199.063"/>
    <path fill="#FFD15D" d="M132.803,194.423 C132.803,192.145 134.65,190.298 136.928,190.298 L198.928,190.298 L198.928,175.721 L204.928,175.721 L204.928,193.673 L200.428,193.673 L200.428,194.423 L132.803,194.423"/>
    <path fill="#475059" d="M129.933,197.673 L127.932971,197.673 L127.933,194.663 C127.927,192.265 128.859,190.004 130.557,188.298 C132.255,186.592 134.512,185.649 136.913,185.645 L199.911,185.486 L199.917,187.486 L136.918,187.645 C135.051,187.648 133.296,188.382 131.974,189.709 C130.654,191.036 129.928,192.794 129.933,194.661 L129.933,197.673"/>
    <path fill="#475059" d="M133.928,194.574 L131.928,194.574 C131.928,191.817 134.172,189.574 136.928,189.574 L199.927,189.574 L199.927,191.574 L136.928,191.574 C135.274,191.574 133.928,192.92 133.928,194.574"/>
    <path fill="#475059" d="M125.928,194.663 L123.928,194.663 C123.928,187.495 129.76,181.663 136.928,181.663 L197.942,181.663 L197.942,169.711 L136.928,169.711 C130.863,169.711 125.928,174.646 125.928,180.711 L123.928,180.711 C123.928,173.543 129.76,167.711 136.928,167.711 L199.942,167.711 L199.942,183.663 L136.928,183.663 C130.863,183.663 125.928,188.598 125.928,194.663"/>
    <polygon fill="#475059" points="123.928 194.663 125.928 194.663 125.928 180.711 123.928 180.711"/>
    <path fill="#475059" d="M124.932,199.063 C124.931,199.063 124.929,199.063 124.928,199.063 L123.928,199.063 L123.928,193.673 L125.928,193.673 L125.928,197.01 C128.245,196.765 130.385,195.668 131.911,193.917 L132.21,193.574 L203.93,193.574 L203.928,176.711 L198.928,176.711 L198.928,174.711 L205.928,174.711 L205.93,195.574 L133.107,195.574 C130.999,197.797 128.046,199.063 124.932,199.063"/>
    <path fill="#FFD15D" d="M117.008,194.423 C117.008,192.145 115.161,190.298 112.883,190.298 L50.883,190.298 L50.883,175.721 L44.883,175.721 L44.883,193.673 L49.383,193.673 L49.383,194.423 L117.008,194.423"/>
    <path fill="#475059" d="M121.878022,197.673 L119.878,197.673 L119.878,194.663 C119.887,190.801 116.754,187.653 112.894,187.645 L49.895,187.486 L49.9,185.486 L112.899,185.645 C117.861,185.655 121.889,189.702 121.878,194.665 L121.878022,197.673"/>
    <path fill="#475059" d="M117.883,194.574 L115.883,194.574 C115.883,192.92 114.537,191.574 112.883,191.574 L49.883,191.574 L49.883,189.574 L112.883,189.574 C115.639,189.574 117.883,191.817 117.883,194.574"/>
    <path fill="#475059" d="M125.883,194.663 L123.883,194.663 C123.883,188.598 118.948,183.663 112.883,183.663 L49.869,183.663 L49.869,167.711 L112.883,167.711 C120.051,167.711 125.883,173.543 125.883,180.711 L123.883,180.711 C123.883,174.646 118.948,169.711 112.883,169.711 L51.869,169.711 L51.869,181.663 L112.883,181.663 C120.051,181.663 125.883,187.495 125.883,194.663"/>
    <polygon fill="#475059" points="123.883 194.663 125.883 194.663 125.883 180.711 123.883 180.711"/>
    <path fill="#475059" d="M124.879,199.063 C121.765,199.063 118.813,197.797 116.704,195.574 L43.88,195.574 L43.883,174.711 L50.883,174.711 L50.883,176.711 L45.883,176.711 L45.88,193.574 L117.6,193.574 L117.899,193.917 C119.426,195.667 121.567,196.764 123.883,197.01 L123.883,193.673 L125.883,193.673 L125.883,199.063 L124.883,199.063 C124.882,199.063 124.88,199.063 124.879,199.063"/>
    <path fill="#FFD15D" d="M132.803,194.423 C132.803,192.145 134.65,190.298 136.928,190.298 L198.928,190.298 L198.928,175.721 L204.928,175.721 L204.928,193.673 L200.428,193.673 L200.428,194.423 L132.803,194.423"/>
    <path fill="#475059" d="M129.933,197.673 L127.932971,197.673 L127.933,194.663 C127.927,192.265 128.859,190.004 130.557,188.298 C132.255,186.592 134.512,185.649 136.913,185.645 L199.911,185.486 L199.917,187.486 L136.918,187.645 C135.051,187.648 133.296,188.382 131.974,189.709 C130.654,191.036 129.928,192.794 129.933,194.661 L129.933,197.673"/>
    <path fill="#475059" d="M133.928,194.574 L131.928,194.574 C131.928,191.817 134.172,189.574 136.928,189.574 L199.927,189.574 L199.927,191.574 L136.928,191.574 C135.274,191.574 133.928,192.92 133.928,194.574"/>
    <path fill="#475059" d="M125.928,194.663 L123.928,194.663 C123.928,187.495 129.76,181.663 136.928,181.663 L197.942,181.663 L197.942,169.711 L136.928,169.711 C130.863,169.711 125.928,174.646 125.928,180.711 L123.928,180.711 C123.928,173.543 129.76,167.711 136.928,167.711 L199.942,167.711 L199.942,183.663 L136.928,183.663 C130.863,183.663 125.928,188.598 125.928,194.663"/>
    <polygon fill="#475059" points="123.928 194.663 125.928 194.663 125.928 180.711 123.928 180.711"/>
    <path fill="#475059" d="M124.932 199.063C124.931 199.063 124.929 199.063 124.928 199.063L123.928 199.063 123.928 193.673 125.928 193.673 125.928 197.01C128.245 196.765 130.385 195.668 131.911 193.917L132.21 193.574 203.93 193.574 203.928 176.711 198.928 176.711 198.928 174.711 205.928 174.711 205.93 195.574 133.107 195.574C130.999 197.797 128.046 199.063 124.932 199.063M89.096 82.438C87.872 82.438 86.877 83.433 86.877 84.657 86.877 85.88 87.872 86.876 89.096 86.876 90.32 86.876 91.315 85.88 91.315 84.657 91.315 83.433 90.32 82.438 89.096 82.438zM89.096 88.876C86.77 88.876 84.877 86.983 84.877 84.657 84.877 82.331 86.77 80.438 89.096 80.438 91.422 80.438 93.315 82.331 93.315 84.657 93.315 86.983 91.422 88.876 89.096 88.876z"/>
    <polygon fill="#475059" points="88.002 81.438 90.002 81.438 90.002 80.438 88.002 80.438"/>
    <path fill="#475059" d="M107.993,52.966 C107.656,52.947 107.297,52.947 106.977,52.937 C106.686,52.937 106.397,52.945 106.111,52.96 L106.008,50.963 C106.338,50.946 106.671,50.939 107.003,50.937 C107.372,50.937 107.74,50.948 108.106,50.969 L107.993,52.966 Z M102.407,53.565 L101.867,51.639 C102.538,51.451 103.228,51.299 103.92,51.186 L104.242,53.16 C103.624,53.261 103.006,53.397 102.407,53.565 Z M111.693,53.593 C111.094,53.421 110.477,53.281 109.86,53.176 L110.194,51.205 C110.884,51.321 111.574,51.478 112.243,51.67 L111.693,53.593 Z M98.929,54.973 L97.978,53.213 C98.593,52.881 99.233,52.58 99.878,52.318 L100.628,54.173 C100.051,54.406 99.479,54.675 98.929,54.973 Z M115.163,55.021 C114.615,54.72 114.044,54.447 113.467,54.21 L114.229,52.36 C114.873,52.626 115.511,52.931 116.124,53.267 L115.163,55.021 Z M95.845,57.11 L94.532,55.602 C95.057,55.144 95.615,54.71 96.189,54.313 L97.328,55.956 C96.815,56.312 96.316,56.7 95.845,57.11 Z M118.237,57.178 C117.765,56.764 117.268,56.372 116.759,56.015 L117.908,54.378 C118.477,54.777 119.032,55.214 119.558,55.677 L118.237,57.178 Z M93.3,59.872 L91.69,58.686 C92.103,58.125 92.552,57.58 93.025,57.066 L94.496,58.421 C94.073,58.881 93.671,59.369 93.3,59.872 Z M120.764,59.956 C120.395,59.448 119.996,58.958 119.577,58.498 L121.055,57.151 C121.524,57.665 121.97,58.213 122.382,58.779 L120.764,59.956 Z M91.422,63.124 L89.59,62.321 C89.87,61.682 90.189,61.051 90.538,60.446 L92.271,61.446 C91.958,61.988 91.673,62.552 91.422,63.124 Z M122.62,63.215 C122.373,62.641 122.091,62.075 121.783,61.534 L123.52,60.544 C123.865,61.149 124.18,61.781 124.457,62.423 L122.62,63.215 Z M90.308,66.707 L88.344,66.329 C88.476,65.645 88.648,64.96 88.855,64.291 L90.765,64.884 C90.579,65.481 90.425,66.095 90.308,66.707 Z M123.714,66.804 C123.599,66.19 123.449,65.576 123.268,64.979 L125.181,64.397 C125.384,65.064 125.552,65.751 125.68,66.438 L123.714,66.804 Z M90.002,70.479 L88.002,70.479 L88.002,69.938 C88.002,69.423 88.022,68.914 88.062,68.41 L90.056,68.569 C90.02,69.021 90.002,69.477 90.002,69.938 L90.002,70.479 Z M126.002,70.585 L124.002,70.585 L124.002,69.938 C124.003,69.51 123.987,69.087 123.956,68.669 L125.95,68.521 C125.985,68.99 126.003,69.463 126.002,69.939 L126.002,70.585 Z M88.002,74.463 L90.002,74.463 L90.002,72.471 L88.002,72.471 L88.002,74.463 Z M124.002,74.569 L126.002,74.569 L126.002,72.577 L124.002,72.577 L124.002,74.569 Z M88.002,78.447 L90.002,78.447 L90.002,76.455 L88.002,76.455 L88.002,78.447 Z M124.002,78.553 L126.002,78.553 L126.002,76.561 L124.002,76.561 L124.002,78.553 Z M124.002,82.536 L126.002,82.536 L126.002,80.544 L124.002,80.544 L124.002,82.536 Z M124.002,86.519 L126.002,86.519 L126.002,84.527 L124.002,84.527 L124.002,86.519 Z M124.002,90.503 L126.002,90.503 L126.002,88.511 L124.002,88.511 L124.002,90.503 Z M124.002,94.487 L126.002,94.487 L126.002,92.495 L124.002,92.495 L124.002,94.487 Z M124.002,98.47 L126.002,98.47 L126.002,96.478 L124.002,96.478 L124.002,98.47 Z M124.002,102.454 L126.002,102.454 L126.002,100.461 L124.002,100.461 L124.002,102.454 Z M124.002,106.437 L126.002,106.437 L126.002,104.445 L124.002,104.445 L124.002,106.437 Z M124.002,110.42 L126.002,110.42 L126.002,108.429 L124.002,108.429 L124.002,110.42 Z M124.002,114.404 L126.002,114.404 L126.002,112.412 L124.002,112.412 L124.002,114.404 Z M124.002,118.388 L126.002,118.388 L126.002,116.396 L124.002,116.396 L124.002,118.388 Z M124.002,122.371 L126.002,122.371 L126.002,120.379 L124.002,120.379 L124.002,122.371 Z M124.002,126.354 L126.002,126.354 L126.002,124.363 L124.002,124.363 L124.002,126.354 Z M124.002,130.338 L126.002,130.338 L126.002,128.347 L124.002,128.347 L124.002,130.338 Z M124.002,134.321 L126.002,134.321 L126.002,132.33 L124.002,132.33 L124.002,134.321 Z M124.002,138.305 L126.002,138.305 L126.002,136.313 L124.002,136.313 L124.002,138.305 Z M124.002,142.289 L126.002,142.289 L126.002,140.297 L124.002,140.297 L124.002,142.289 Z M124.002,146.272 L126.002,146.272 L126.002,144.28 L124.002,144.28 L124.002,146.272 Z M124.002,150.256 L126.002,150.256 L126.002,148.264 L124.002,148.264 L124.002,150.256 Z M124.002,154.239 L126.002,154.239 L126.002,152.247 L124.002,152.247 L124.002,154.239 Z M124.002,158.223 L124.002,156.23 L126.002,156.23 L126.002,158.188 L124.002,158.223 Z M161.782,161.085 L159.805,160.782 C159.899,160.167 159.961,159.538 159.986,158.912 L161.984,158.994 C161.956,159.693 161.887,160.396 161.782,161.085 Z M124.469,162.393 C124.315,161.713 124.198,161.016 124.12,160.32 L126.108,160.1 C126.177,160.721 126.282,161.344 126.42,161.951 L124.469,162.393 Z M160.691,165.136 L158.83,164.405 C159.058,163.821 159.257,163.221 159.419,162.62 L161.35,163.14 C161.169,163.813 160.947,164.483 160.691,165.136 Z M125.844,166.359 C125.543,165.728 125.274,165.073 125.045,164.413 L126.934,163.759 C127.139,164.348 127.38,164.933 127.649,165.496 L125.844,166.359 Z M158.733,168.846 L157.079,167.723 C157.43,167.204 157.757,166.663 158.048,166.112 L159.815,167.046 C159.49,167.662 159.127,168.268 158.733,168.846 Z M128.057,169.922 C127.625,169.37 127.219,168.791 126.852,168.202 L128.552,167.146 C128.88,167.674 129.243,168.192 129.632,168.688 L128.057,169.922 Z M156.01,172.036 L154.64,170.579 C155.098,170.148 155.535,169.69 155.938,169.218 L157.46,170.517 C157.009,171.045 156.521,171.556 156.01,172.036 Z M130.999,172.916 C130.459,172.477 129.936,172.001 129.445,171.5 L130.873,170.1 C131.312,170.547 131.779,170.973 132.26,171.365 L130.999,172.916 Z M152.655,174.556 L151.637,172.835 C152.178,172.515 152.705,172.163 153.2,171.79 L154.403,173.388 C153.848,173.806 153.26,174.198 152.655,174.556 Z M134.519,175.194 C133.896,174.883 133.282,174.532 132.695,174.152 L133.781,172.473 C134.306,172.813 134.856,173.127 135.414,173.405 L134.519,175.194 Z M148.827,176.277 L148.216,174.373 C148.806,174.184 149.397,173.956 149.97,173.698 L150.791,175.522 C150.149,175.811 149.489,176.064 148.827,176.277 Z M138.458,176.641 C137.78,176.474 137.103,176.268 136.448,176.026 L137.137,174.149 C137.723,174.364 138.328,174.549 138.934,174.697 L138.458,176.641 Z M144.714,177.111 L144.536,175.119 C145.162,175.063 145.788,174.973 146.395,174.849 L146.794,176.81 C146.113,176.947 145.414,177.049 144.714,177.111 Z M142.616,177.184 C141.914,177.169 141.21,177.116 140.523,177.026 L140.781,175.044 C141.396,175.124 142.027,175.171 142.657,175.184 L142.616,177.184 Z"/>
    <polygon fill="#475059" points="160.002 156.888 162.002 156.888 162.002 155.888 160.002 155.888"/>
    <path fill="#475059" d="M89.002,106.509 C79.628,106.509 72.002,114.135 72.002,123.509 C72.002,132.883 79.628,140.509 89.002,140.509 C98.376,140.509 106.002,132.883 106.002,123.509 C106.002,114.135 98.376,106.509 89.002,106.509 Z M89.002,142.509 C78.525,142.509 70.002,133.985 70.002,123.509 C70.002,113.032 78.525,104.509 89.002,104.509 C99.478,104.509 108.002,113.032 108.002,123.509 C108.002,133.985 99.478,142.509 89.002,142.509 Z"/>
    <polygon fill="#475059" points="88.002 101.062 90.002 101.062 90.002 97.062 88.002 97.062"/>
    <path fill="#475059" d="M84.152,148.386 C84.421,148.466 84.706,148.509 85.002,148.509 L89.798,148.496 C90.435,148.477 91.102,148.432 91.764,148.361 C103.725,147.081 112.827,137.806 113.899,125.806 C114.841,115.254 109.274,105.496 99.715,100.947 L99.244,100.723 L97.298,89.021 L80.706,89.021 L78.759,100.723 L78.288,100.947 C69.61,105.078 64.002,113.933 64.002,123.509 C64.002,133.98 70.557,143.295 80.204,146.918 C80.072,146.471 80.002,145.998 80.002,145.509 C80.002,142.752 82.245,140.509 85.002,140.509 L89.002,140.509 L89.002,142.509 L85.002,142.509 C83.347,142.509 82.002,143.854 82.002,145.509 C82.002,146.593 82.58,147.545 83.445,148.072 L84.152,148.386 Z M85.002,150.509 C84.104,150.509 83.261,150.271 82.533,149.855 L81.841,149.548 C70.156,146.343 62.002,135.646 62.002,123.509 C62.002,113.341 67.855,103.925 76.957,99.372 L79.011,87.021 L98.992,87.021 L101.047,99.372 C111.079,104.377 116.893,114.764 115.891,125.983 C114.734,138.947 104.899,148.967 91.976,150.35 C91.263,150.426 90.546,150.475 89.844,150.496 L89.017,150.509 L85.002,150.509 Z"/>
    <polyline fill="#475059" points="89.002 106.509 77.001 106.509 77.001 99.189 79.001 99.189 79.001 104.509 89.002 104.509 89.002 106.509"/>
    <path fill="#475059" d="M89.002,94.062 C88.45,94.062 88.002,94.511 88.002,95.062 C88.002,95.613 88.45,96.062 89.002,96.062 C89.553,96.062 90.002,95.613 90.002,95.062 C90.002,94.511 89.553,94.062 89.002,94.062 Z M89.002,98.062 C87.347,98.062 86.002,96.716 86.002,95.062 C86.002,93.408 87.347,92.062 89.002,92.062 C90.656,92.062 92.002,93.408 92.002,95.062 C92.002,96.716 90.656,98.062 89.002,98.062 Z"/>
    <path fill="#DFE0E0" d="M111.907,125.628 C110.921,136.665 102.551,145.195 91.553,146.372 C90.941,146.438 90.325,146.479 89.766,146.496 L85.002,146.509 C84.936,146.509 84.873,146.503 84.811,146.49 L84.403,146.31 C84.16,146.127 84.002,145.836 84.002,145.509 C84.002,144.957 84.45,144.509 85.002,144.509 L89.002,144.509 C100.581,144.509 110.002,135.088 110.002,123.509 C110.002,111.93 100.581,102.509 89.002,102.509 L81.001,102.509 L81.001,99.439 L82.401,91.02 L86.082,91.02 C84.828,91.93 84.002,93.397 84.002,95.061 C84.002,96.689 84.795,98.122 86.002,99.036 L86.002,101.062 L92.002,101.062 L92.002,99.036 C93.209,98.122 94.002,96.689 94.002,95.061 C94.002,93.397 93.176,91.93 91.921,91.02 L95.602,91.02 L97.442,102.081 L98.855,102.754 C107.65,106.939 112.774,115.918 111.907,125.628 Z M66.002,123.509 C66.002,116.339 69.422,109.608 75.001,105.303 L75.001,107.902 C70.717,111.749 68.002,117.311 68.002,123.509 C68.002,131.464 72.449,138.401 78.988,141.963 C78.647,142.54 78.371,143.16 78.206,143.826 C70.831,139.899 66.002,132.132 66.002,123.509 Z"/>
    <path fill="#475059" d="M161.045,97.02 C151.671,97.02 144.045,104.647 144.045,114.021 C144.045,123.395 151.671,131.021 161.045,131.021 C170.419,131.021 178.045,123.394 178.045,114.02 C178.045,104.646 170.419,97.02 161.045,97.02 Z M161.045,133.021 C150.568,133.021 142.045,124.497 142.045,114.021 C142.045,103.544 150.568,95.02 161.045,95.02 C171.521,95.02 180.045,103.543 180.045,114.02 C180.045,124.497 171.521,133.021 161.045,133.021 Z"/>
    <polygon fill="#475059" points="160.045 140.468 162.045 140.468 162.045 136.468 160.045 136.468"/>
    <path fill="#475059" d="M152.75,148.509 L169.341,148.509 L171.288,136.806 L171.759,136.581 C180.437,132.452 186.045,123.596 186.045,114.02 C186.045,103.548 179.49,94.234 169.843,90.611 C169.974,91.058 170.045,91.531 170.045,92.02 C170.045,94.777 167.802,97.02 165.045,97.02 L161.045,97.02 L161.045,95.02 L165.045,95.02 C166.699,95.02 168.045,93.674 168.045,92.02 C168.045,90.936 167.467,89.984 166.602,89.456 L165.893,89.142 C165.624,89.063 165.34,89.02 165.045,89.02 L160.249,89.033 C159.609,89.052 158.943,89.098 158.284,89.168 C146.322,90.449 137.219,99.724 136.148,111.724 C135.206,122.275 140.773,132.033 150.332,136.581 L150.802,136.806 L152.75,148.509 Z M171.036,150.509 L151.054,150.509 L149.001,138.157 C138.967,133.152 133.154,122.765 134.156,111.546 C135.313,98.583 145.147,88.563 158.071,87.18 C158.781,87.104 159.499,87.054 160.203,87.033 L161.029,87.02 L165.045,87.02 C165.942,87.02 166.785,87.258 167.513,87.673 L168.206,87.98 C179.89,91.186 188.045,101.883 188.045,114.02 C188.045,124.188 182.192,133.604 173.091,138.157 L171.036,150.509 Z"/>
    <polyline fill="#475059" points="173.046 138.34 171.046 138.34 171.046 133.021 161.045 133.021 161.045 131.021 173.046 131.021 173.046 138.34"/>
    <path fill="#475059" d="M161.045,141.468 C160.493,141.468 160.045,141.916 160.045,142.468 C160.045,143.02 160.493,143.468 161.045,143.468 C161.596,143.468 162.045,143.02 162.045,142.468 C162.045,141.916 161.596,141.468 161.045,141.468 Z M161.045,145.468 C159.39,145.468 158.045,144.122 158.045,142.468 C158.045,140.813 159.39,139.468 161.045,139.468 C162.699,139.468 164.045,140.813 164.045,142.468 C164.045,144.122 162.699,145.468 161.045,145.468 Z"/>
    <path fill="#DFE0E0" d="M138.14,111.901 C139.126,100.864 147.496,92.334 158.493,91.157 C159.105,91.092 159.722,91.05 160.28,91.033 L165.045,91.02 C165.11,91.02 165.174,91.026 165.235,91.039 L165.643,91.219 C165.887,91.402 166.045,91.693 166.045,92.02 C166.045,92.572 165.597,93.02 165.045,93.02 L161.045,93.02 C149.466,93.02 140.045,102.441 140.045,114.021 C140.045,125.6 149.466,135.021 161.045,135.021 L169.046,135.021 L169.046,138.09 L167.646,146.509 L163.964,146.509 C165.219,145.6 166.045,144.132 166.045,142.468 C166.045,140.841 165.252,139.407 164.045,138.493 L164.045,136.468 L158.045,136.468 L158.045,138.493 C156.838,139.407 156.045,140.841 156.045,142.468 C156.045,144.132 156.871,145.6 158.126,146.509 L154.444,146.509 L152.605,135.448 L151.191,134.775 C142.397,130.59 137.272,121.611 138.14,111.901 Z M184.045,114.02 C184.045,121.19 180.625,127.921 175.046,132.227 L175.046,129.627 C179.33,125.78 182.045,120.218 182.045,114.02 C182.045,106.065 177.597,99.128 171.058,95.566 C171.399,94.99 171.675,94.369 171.841,93.703 C179.216,97.63 184.045,105.397 184.045,114.02 Z"/>
    <path fill="#475059" d="M161.108,150.45 C159.885,150.45 158.889,151.445 158.889,152.669 C158.889,153.893 159.885,154.888 161.108,154.888 C162.332,154.888 163.327,153.893 163.327,152.669 C163.327,151.445 162.332,150.45 161.108,150.45 Z M161.108,156.888 C158.782,156.888 156.889,154.995 156.889,152.669 C156.889,150.343 158.782,148.45 161.108,148.45 C163.434,148.45 165.327,150.343 165.327,152.669 C165.327,154.995 163.434,156.888 161.108,156.888 Z"/>
    <polygon fill="#48515A" points="34.984 148.099 36.984 148.099 36.984 144.099 34.984 144.099"/>
    <polygon fill="#48515A" points="34.984 158.099 36.984 158.099 36.984 154.099 34.984 154.099"/>
    <polygon fill="#48515A" points="38.984 152.099 42.984 152.099 42.984 150.099 38.984 150.099"/>
    <polygon fill="#48515A" points="28.984 152.099 32.984 152.099 32.984 150.099 28.984 150.099"/>
    <polygon fill="#48515A" points="203.965 85.949 205.965 85.949 205.965 81.949 203.965 81.949"/>
    <polygon fill="#48515A" points="203.965 95.949 205.965 95.949 205.965 91.949 203.965 91.949"/>
    <polygon fill="#48515A" points="207.965 89.949 211.965 89.949 211.965 87.949 207.965 87.949"/>
    <polygon fill="#48515A" points="197.965 89.949 201.965 89.949 201.965 87.949 197.965 87.949"/>
    <path fill="#DFE0E0" d="M137.002 144.063C137.002 145.167 136.106 146.063 135.002 146.063 133.897 146.063 133.002 145.167 133.002 144.063 133.002 142.958 133.897 142.063 135.002 142.063 136.106 142.063 137.002 142.958 137.002 144.063M93.002 161.063C93.002 160.51 93.449 160.063 94.002 160.063 94.554 160.063 95.002 160.51 95.002 161.063 95.002 161.615 94.554 162.063 94.002 162.063 93.449 162.063 93.002 161.615 93.002 161.063M71.002 94.066C71.002 95.171 70.106 96.066 69.002 96.066 67.897 96.066 67.002 95.171 67.002 94.066 67.002 92.962 67.897 92.066 69.002 92.066 70.106 92.066 71.002 92.962 71.002 94.066"/>
    <path fill="#48515A" d="M205.016 161.108L219.016 161.108 219.016 159.108 205.016 159.108 205.016 161.108zM203.016 163.108L221.016 163.108 221.016 157.108 203.016 157.108 203.016 163.108zM208.59 149.108L216.686 149.108 216.686 147.108 214.741 147.108 214.741 135.108 216.686 135.108 216.686 133.108 208.59 133.108 208.59 135.108 210.686 135.108 210.686 147.108 208.59 147.108 208.59 149.108zM218.686 151.108L206.59 151.108 206.59 145.108 208.686 145.108 208.686 137.108 206.59 137.108 206.59 131.108 218.686 131.108 218.686 137.108 216.741 137.108 216.741 145.108 218.686 145.108 218.686 151.108z"/>
    <path fill="#48515A" d="M215.741 137.108L209.686 137.108C209.134 137.108 208.686 136.661 208.686 136.108 208.686 135.556 209.134 135.108 209.686 135.108L215.741 135.108C216.294 135.108 216.741 135.556 216.741 136.108 216.741 136.661 216.294 137.108 215.741 137.108M215.741 147.108L209.686 147.108C209.134 147.108 208.686 146.661 208.686 146.108 208.686 145.556 209.134 145.108 209.686 145.108L215.741 145.108C216.294 145.108 216.741 145.556 216.741 146.108 216.741 146.661 216.294 147.108 215.741 147.108M209.017 142.108L189.017 142.108C188.465 142.108 188.017 141.661 188.017 141.108 188.017 140.556 188.465 140.108 189.017 140.108L209.017 140.108C209.57 140.108 210.017 140.556 210.017 141.108 210.017 141.661 209.57 142.108 209.017 142.108"/>
    <path fill="#475059" d="M37.006,77.192 L37.006,77.31 C37.006,78.109 37.318,78.861 37.883,79.426 C38.449,79.99 39.199,80.3 39.996,80.3 C39.998,80.3 40,80.3 40.002,80.3 L40.731,80.299 C42.376,80.296 43.716,78.954 43.716,77.308 L43.716,77.192 L40.361,67.819 L37.006,77.192 Z M39.996,82.3 C38.665,82.3 37.413,81.782 36.471,80.841 C35.526,79.898 35.006,78.644 35.006,77.31 L35.006,76.845 L40.361,61.883 L45.716,76.845 L45.716,77.308 C45.716,80.055 43.481,82.294 40.734,82.299 L40.005,82.3 C40.002,82.3 39.999,82.3 39.996,82.3 Z"/>
    <polygon fill="#475059" points="36.012 78.019 44.715 78.019 44.715 76.019 36.012 76.019"/>
    <polyline fill="#475059" points="51.048 63.712 47.681 59.92 35.005 59.92 35.005 57.92 48.581 57.92 51.048 60.7 53.514 57.92 67.005 57.92 67.005 59.92 54.414 59.92 51.048 63.712"/>
    <polyline fill="#475059" points="47.072 90.018 45.072 90.018 45.072 87.67 48.075 84.668 48.075 66.695 50.075 66.695 50.075 85.496 47.072 88.498 47.072 90.018"/>
    <polyline fill="#475059" points="56.944 90.018 54.944 90.018 54.944 88.495 51.946 85.496 51.945 66.695 53.945 66.695 53.946 84.668 56.944 87.667 56.944 90.018"/>
    <polygon fill="#475059" points="47.619 63.824 54.401 63.824 54.401 61.824 47.619 61.824"/>
    <path fill="#475059" d="M58.3,77.175 C58.338,77.917 58.645,78.608 59.174,79.136 C59.738,79.7 60.488,80.01 61.286,80.01 C61.288,80.01 61.29,80.01 61.292,80.01 L62.021,80.009 C63.614,80.006 64.921,78.749 65.002,77.175 L61.651,67.492 L58.3,77.175 Z M61.286,82.01 C59.955,82.01 58.703,81.493 57.761,80.552 C56.816,79.609 56.296,78.354 56.296,77.02 L56.296,76.852 L61.651,61.376 L67.006,76.851 L67.006,77.019 C67.006,79.766 64.771,82.004 62.025,82.009 L61.295,82.01 C61.292,82.01 61.289,82.01 61.286,82.01 Z"/>
    <polygon fill="#475059" points="57.303 78.019 66.007 78.019 66.007 76.019 57.303 76.019"/>
    <polygon fill="#475059" points="47.619 67.695 54.401 67.695 54.401 65.695 47.619 65.695"/>
    <polygon fill="#475059" points="49.075 86.082 52.946 86.082 52.946 84.082 49.075 84.082"/>
  </g>
</svg>
