<svg xmlns="http://www.w3.org/2000/svg" width="250" height="250" viewBox="0 0 250 250">
  <g fill="none" fill-rule="evenodd">
    <polyline fill="#DDDED9" points="49.804 136.999 49.804 154.999 73.001 168.999 177 168.999 201.257 154.999 201.257 137.666 177 152.999 73.001 152.999 49.804 136.999"/>
    <polygon fill="#FACD60" points="157 204.999 169 204.999 169 93.836 157 93.836"/>
    <path fill="#FACD60" d="M157.5,204.499 L168.5,204.499 L168.5,94.336 L157.5,94.336 L157.5,204.499 Z M156.5,205.499 L169.5,205.499 L169.5,93.336 L156.5,93.336 L156.5,205.499 Z"/>
    <polygon fill="#FACD60" points="81.001 204.999 93.001 204.999 93.001 93.998 81.001 93.998"/>
    <path fill="#FACD60" d="M81.501,204.499 L92.501,204.499 L92.501,94.499 L81.501,94.499 L81.501,204.499 Z M80.501,205.499 L93.501,205.499 L93.501,93.498 L80.501,93.498 L80.501,205.499 Z"/>
    <polyline fill="#434A4F" points="202.257 203.894 169.005 203.894 169.005 201.894 200.257 201.894 200.257 137.666 202.257 137.666 202.257 203.894"/>
    <polygon fill="#434A4F" points="92.996 203.894 157.005 203.894 157.005 201.894 92.996 201.894"/>
    <polyline fill="#434A4F" points="80.996 203.894 48.804 203.894 48.804 136.999 50.804 136.999 50.804 201.894 80.996 201.894 80.996 203.894"/>
    <polyline fill="#434A4F" points="72.353 153.19 46.001 136.125 46.001 96 80.834 96 80.834 98 48 98 48 135.037 72.944 151.19 80.665 151.185 80.665 153.185 72.353 153.19"/>
    <polygon fill="#434A4F" points="93.332 98 157.168 98 157.168 96 93.332 96"/>
    <polyline fill="#434A4F" points="168.671 153.111 168.669 151.111 177.311 151.105 203.063 135.026 203.063 98 169.666 98 169.666 96 205.063 96 205.063 136.136 177.885 153.105 168.671 153.111"/>
    <polyline fill="#434A4F" points="93.662 153.169 93.661 151.169 157.005 151.126 157.007 153.126 93.662 153.169"/>
    <polyline fill="#434A4F" points="159.297 94.242 150.19 78.165 147 78.165 147 76.165 151.356 76.165 161.038 93.256 159.297 94.242"/>
    <polyline fill="#434A4F" points="91.706 94.489 89.962 93.509 99.703 76.165 111 76.165 111 78.165 100.874 78.165 91.706 94.489"/>
    <path fill="#434A4F" d="M102 76.999L100 76.999 100 62.321C100 59.965 100.641 57.653 101.853 55.633L109 43.722 109 40.999 111 40.999 111 43.999C111 44.18 110.951 44.357 110.857 44.513L103.568 56.663C102.542 58.371 102 60.328 102 62.321L102 76.999M123.501 94.992C120.883 94.992 118.686 93.153 118.135 90.698 117.16 91.54 115.971 92.004 114.627 91.996L114.494 91.996C111.463 91.992 108.999 89.529 108.999 86.505L109 64.998C109 64.445 109.448 63.998 110 63.998 110.552 63.998 111 64.445 111 64.998L110.999 86.505C110.999 88.427 112.567 89.994 114.495 89.996L114.629 89.996C114.63 89.996 114.632 89.996 114.634 89.996 115.534 89.996 116.378 89.646 117.014 89.012 117.651 88.376 118.002 87.529 118.002 86.628L118 71.007C118 70.742 118.105 70.488 118.292 70.3 118.48 70.113 118.734 70.007 119 70.007 119.552 70.007 120.002 70.455 120.002 71.007L120.002 89.493C120.002 91.422 121.572 92.992 123.501 92.992 125.431 92.992 127.001 91.422 127.001 89.493L127.001 70.999C127.001 70.447 127.449 69.999 128.001 69.999 128.554 69.999 129.001 70.447 129.001 70.999L129.001 86.495C129.001 88.424 130.572 89.994 132.501 89.994 134.431 89.994 136 88.424 136 86.495L136 70.999C136 70.447 136.448 69.999 137 69.999 137.553 69.999 138 70.447 138 70.999L138 84.999C138 86.929 139.571 88.499 141.5 88.499 143.43 88.499 145 86.929 145 84.999L145 70.997C145 63.163 143.525 55.502 140.616 48.229L139.072 44.37C139.025 44.252 139 44.126 139 43.999L139 40.999 141 40.999 141 43.806 142.473 47.485C145.477 54.997 147 62.908 147 70.997L147 84.999C147 88.032 144.533 90.499 141.5 90.499 139.928 90.499 138.508 89.836 137.505 88.775 136.637 90.672 134.72 91.994 132.501 91.994 131.117 91.994 129.85 91.48 128.882 90.633 128.356 93.12 126.143 94.992 123.501 94.992"/>
    <polyline fill="#434A4F" points="97.996 169.999 75.996 169.999 75.996 155.999 80.996 155.999 80.996 157.999 77.996 157.999 77.996 167.999 95.996 167.999 95.996 157.999 92.996 157.999 92.996 155.999 97.996 155.999 97.996 169.999"/>
    <path fill="#434A4F" d="M81.996,178.278 L86.996,179.945 L91.996,178.278 L91.996,94.975 L81.996,94.975 L81.996,178.278 Z M86.996,182.053 L79.996,179.72 L79.996,92.975 L93.996,92.975 L93.996,179.72 L86.996,182.053 Z"/>
    <polygon fill="#434A4F" points="85.996 168.999 87.996 168.999 87.996 162.999 85.996 162.999"/>
    <polyline fill="#434A4F" points="93.996 205.999 79.996 205.999 79.996 178.999 81.996 178.999 81.996 203.999 91.996 203.999 91.996 178.999 93.996 178.999 93.996 205.999"/>
    <path fill="#434A4F" d="M87.001 175.999C86.73 175.999 86.47 175.889 86.29 175.709 86.19 175.609 86.12 175.499 86.07 175.379 86.02 175.259 85.99 175.129 85.99 174.999 85.99 174.869 86.02 174.739 86.07 174.619 86.12 174.499 86.19 174.389 86.29 174.289 86.66 173.919 87.33 173.919 87.7 174.289 87.79 174.389 87.87 174.499 87.92 174.619 87.97 174.739 87.99 174.869 87.99 174.999 87.99 175.129 87.97 175.259 87.92 175.379 87.87 175.499 87.79 175.609 87.7 175.709 87.66 175.749 87.6 175.789 87.55 175.829 87.501 175.869 87.44 175.899 87.38 175.919 87.32 175.949 87.251 175.969 87.19 175.979 87.13 175.989 87.061 175.999 87.001 175.999M87.001 155.999C86.73 155.999 86.47 155.889 86.29 155.709 86.1 155.519 85.99 155.259 85.99 154.999 85.99 154.739 86.1 154.479 86.29 154.289 86.66 153.919 87.33 153.919 87.7 154.289 87.89 154.479 87.99 154.739 87.99 154.999 87.99 155.259 87.89 155.519 87.7 155.709 87.52 155.889 87.26 155.999 87.001 155.999"/>
    <polygon fill="#434A4F" points="76.996 185.998 96.996 185.998 96.996 183.998 76.996 183.998"/>
    <polygon fill="#434A4F" points="76.996 127.963 96.996 127.963 96.996 125.963 76.996 125.963"/>
    <polyline fill="#434A4F" points="174.005 169.999 152.005 169.999 152.005 155.999 157.005 155.999 157.005 157.999 154.005 157.999 154.005 167.999 172.005 167.999 172.005 157.999 169.005 157.999 169.005 155.999 174.005 155.999 174.005 169.999"/>
    <path fill="#434A4F" d="M158.005,178.278 L163.005,179.945 L168.005,178.278 L168.005,94.975 L158.005,94.975 L158.005,178.278 Z M163.005,182.053 L156.005,179.72 L156.005,92.975 L170.005,92.975 L170.005,179.72 L163.005,182.053 Z"/>
    <polygon fill="#434A4F" points="162.005 168.999 164.005 168.999 164.005 162.999 162.005 162.999"/>
    <polyline fill="#434A4F" points="170.005 205.999 156.005 205.999 156.005 178.999 158.005 178.999 158.005 203.999 168.005 203.999 168.005 178.999 170.005 178.999 170.005 205.999"/>
    <path fill="#434A4F" d="M163 175.999C162.741 175.999 162.48 175.889 162.3 175.709 162.11 175.519 162.01 175.269 162.01 174.999 162.01 174.869 162.031 174.739 162.081 174.619 162.13 174.489 162.201 174.389 162.3 174.289 162.67 173.919 163.34 173.919 163.71 174.289 163.8 174.389 163.88 174.499 163.93 174.619 163.98 174.739 164.01 174.869 164.01 174.999 164.01 175.259 163.9 175.519 163.71 175.709 163.52 175.889 163.27 175.999 163 175.999M163 155.999C162.741 155.999 162.48 155.889 162.3 155.709 162.11 155.519 162.01 155.269 162.01 154.999 162.01 154.869 162.031 154.739 162.081 154.619 162.13 154.489 162.201 154.379 162.3 154.289 162.67 153.919 163.34 153.919 163.71 154.289 163.9 154.479 164.01 154.739 164.01 154.999 164.01 155.069 164 155.129 163.98 155.199 163.97 155.259 163.951 155.319 163.93 155.379 163.9 155.439 163.871 155.499 163.84 155.559 163.8 155.609 163.76 155.659 163.71 155.709 163.52 155.889 163.27 155.999 163 155.999"/>
    <polygon fill="#434A4F" points="153.005 185.998 173.005 185.998 173.005 183.998 153.005 183.998"/>
    <polygon fill="#434A4F" points="153.005 127.963 173.005 127.963 173.005 125.963 153.005 125.963"/>
    <path fill="#434A4F" d="M104 156.999C104 156.449 104.45 155.999 105 155.999 105.55 155.999 106 156.449 106 156.999 106 157.549 105.55 157.999 105 157.999 104.45 157.999 104 157.549 104 156.999zM108 156.999C108 156.449 108.45 155.999 109 155.999 109.55 155.999 110 156.449 110 156.999 110 157.549 109.55 157.999 109 157.999 108.45 157.999 108 157.549 108 156.999zM112 156.999C112 156.449 112.45 155.999 113 155.999 113.55 155.999 114 156.449 114 156.999 114 157.549 113.55 157.999 113 157.999 112.45 157.999 112 157.549 112 156.999zM116 156.999C116 156.449 116.45 155.999 117 155.999 117.55 155.999 118 156.449 118 156.999 118 157.549 117.55 157.999 117 157.999 116.45 157.999 116 157.549 116 156.999zM120 156.999C120 156.449 120.45 155.999 121 155.999 121.55 155.999 122 156.449 122 156.999 122 157.549 121.55 157.999 121 157.999 120.45 157.999 120 157.549 120 156.999zM124 156.999C124 156.449 124.45 155.999 125 155.999 125.55 155.999 126 156.449 126 156.999 126 157.549 125.55 157.999 125 157.999 124.45 157.999 124 157.549 124 156.999zM128 156.999C128 156.449 128.451 155.999 129 155.999 129.55 155.999 130 156.449 130 156.999 130 157.549 129.55 157.999 129 157.999 128.451 157.999 128 157.549 128 156.999zM132 156.999C132 156.449 132.451 155.999 133 155.999 133.55 155.999 134 156.449 134 156.999 134 157.549 133.55 157.999 133 157.999 132.451 157.999 132 157.549 132 156.999zM136 156.999C136 156.449 136.451 155.999 137 155.999 137.55 155.999 138 156.449 138 156.999 138 157.549 137.55 157.999 137 157.999 136.451 157.999 136 157.549 136 156.999zM140 156.999C140 156.449 140.451 155.999 141 155.999 141.55 155.999 142 156.449 142 156.999 142 157.549 141.55 157.999 141 157.999 140.451 157.999 140 157.549 140 156.999zM144 156.999C144 156.449 144.451 155.999 145 155.999 145.55 155.999 146 156.449 146 156.999 146 157.549 145.55 157.999 145 157.999 144.451 157.999 144 157.549 144 156.999zM96.001 198.999C96.001 198.449 96.45 197.999 97.001 197.999 97.55 197.999 98.001 198.449 98.001 198.999 98.001 199.549 97.55 199.999 97.001 199.999 96.45 199.999 96.001 199.549 96.001 198.999zM100 198.999C100 198.449 100.45 197.999 101 197.999 101.55 197.999 102 198.449 102 198.999 102 199.549 101.55 199.999 101 199.999 100.45 199.999 100 199.549 100 198.999zM104 198.999C104 198.449 104.45 197.999 105 197.999 105.55 197.999 106 198.449 106 198.999 106 199.549 105.55 199.999 105 199.999 104.45 199.999 104 199.549 104 198.999zM108 198.999C108 198.449 108.45 197.999 109 197.999 109.55 197.999 110 198.449 110 198.999 110 199.549 109.55 199.999 109 199.999 108.45 199.999 108 199.549 108 198.999zM112 198.999C112 198.449 112.45 197.999 113 197.999 113.55 197.999 114 198.449 114 198.999 114 199.549 113.55 199.999 113 199.999 112.45 199.999 112 199.549 112 198.999zM116 198.999C116 198.449 116.45 197.999 117 197.999 117.55 197.999 118 198.449 118 198.999 118 199.549 117.55 199.999 117 199.999 116.45 199.999 116 199.549 116 198.999zM120 198.999C120 198.449 120.45 197.999 121 197.999 121.55 197.999 122 198.449 122 198.999 122 199.549 121.55 199.999 121 199.999 120.45 199.999 120 199.549 120 198.999zM124 198.999C124 198.449 124.45 197.999 125 197.999 125.55 197.999 126 198.449 126 198.999 126 199.549 125.55 199.999 125 199.999 124.45 199.999 124 199.549 124 198.999zM128 198.999C128 198.449 128.451 197.999 129 197.999 129.55 197.999 130 198.449 130 198.999 130 199.549 129.55 199.999 129 199.999 128.451 199.999 128 199.549 128 198.999zM132 198.999C132 198.449 132.451 197.999 133 197.999 133.55 197.999 134 198.449 134 198.999 134 199.549 133.55 199.999 133 199.999 132.451 199.999 132 199.549 132 198.999zM136 198.999C136 198.449 136.451 197.999 137 197.999 137.55 197.999 138 198.449 138 198.999 138 199.549 137.55 199.999 137 199.999 136.451 199.999 136 199.549 136 198.999zM140 198.999C140 198.449 140.451 197.999 141 197.999 141.55 197.999 142 198.449 142 198.999 142 199.549 141.55 199.999 141 199.999 140.451 199.999 140 199.549 140 198.999zM144 198.999C144 198.449 144.451 197.999 145 197.999 145.55 197.999 146 198.449 146 198.999 146 199.549 145.55 199.999 145 199.999 144.451 199.999 144 199.549 144 198.999zM148 198.999C148 198.449 148.451 197.999 149 197.999 149.55 197.999 150 198.449 150 198.999 150 199.549 149.55 199.999 149 199.999 148.451 199.999 148 199.549 148 198.999zM152 198.999C152 198.449 152.451 197.999 153 197.999 153.55 197.999 154 198.449 154 198.999 154 199.549 153.55 199.999 153 199.999 152.451 199.999 152 199.549 152 198.999zM150 97.002L148 97.002 148 84.999C148 84.448 147.552 83.999 147 83.999L147 81.999C148.655 81.999 150 83.345 150 84.999L150 97.002M104 97.002L102 97.002 102 84.999C102 83.345 103.346 81.999 105 81.999L109 81.999 109 83.999 105 83.999C104.449 83.999 104 84.448 104 84.999L104 97.002M87.001 145.999C86.73 145.999 86.47 145.889 86.29 145.709 86.19 145.609 86.12 145.499 86.07 145.379 86.02 145.259 85.99 145.129 85.99 144.999 85.99 144.869 86.02 144.739 86.07 144.619 86.12 144.499 86.19 144.389 86.29 144.289 86.66 143.919 87.33 143.919 87.7 144.289 87.79 144.389 87.87 144.499 87.92 144.619 87.97 144.739 87.99 144.869 87.99 144.999 87.99 145.129 87.97 145.259 87.92 145.379 87.87 145.499 87.79 145.609 87.7 145.709 87.66 145.749 87.6 145.789 87.55 145.829 87.501 145.869 87.44 145.899 87.38 145.919 87.32 145.949 87.251 145.969 87.19 145.979 87.13 145.989 87.061 145.999 87.001 145.999M163 145.999C162.741 145.999 162.48 145.889 162.3 145.709 162.201 145.609 162.13 145.509 162.081 145.379 162.031 145.259 162.01 145.129 162.01 144.999 162.01 144.739 162.11 144.479 162.3 144.289 162.67 143.919 163.34 143.919 163.71 144.289 163.76 144.339 163.8 144.389 163.84 144.449 163.871 144.499 163.9 144.559 163.93 144.619 163.951 144.679 163.97 144.739 163.98 144.809 164 144.869 164.01 144.939 164.01 144.999 164.01 145.259 163.9 145.519 163.71 145.709 163.52 145.889 163.27 145.999 163 145.999"/>
    <polygon fill="#75C7D0" points="103 36.999 147 36.999 147 28.999 103 28.999"/>
    <path fill="#434A4F" d="M137.015,32.999 L133.016,32.999 C132.463,32.999 132.016,32.552 132.016,31.999 C132.016,31.447 132.463,30.999 133.016,30.999 L137.015,30.999 C137.568,30.999 138.015,31.447 138.015,31.999 C138.015,32.552 137.568,32.999 137.015,32.999"/>
    <path fill="#434A4F" d="M139.015,30.999 C138.463,30.999 138.015,31.448 138.015,31.999 C138.015,32.551 138.463,32.999 139.015,32.999 C139.567,32.999 140.015,32.551 140.015,31.999 C140.015,31.448 139.567,30.999 139.015,30.999 Z M139.015,34.999 C137.361,34.999 136.015,33.654 136.015,31.999 C136.015,30.345 137.361,28.999 139.015,28.999 C140.669,28.999 142.015,30.345 142.015,31.999 C142.015,33.654 140.669,34.999 139.015,34.999 Z"/>
    <path fill="#42494E" d="M132.818,219.001 L216,219.001 C217.654,219.001 219,217.655 219,216.001 C219,214.347 217.654,213.001 216,213.001 L132.819,213.001 L126.312,216.001 L132.818,219.001 Z M216,221.001 L132.378,221.001 L121.536,216.001 L132.379,211.001 L216,211.001 C218.756,211.001 221,213.244 221,216.001 C221,218.758 218.756,221.001 216,221.001 Z"/>
    <polygon fill="#42494E" points="208.39 220.001 210.39 220.001 210.39 212.402 208.39 212.402"/>
    <polygon fill="#42494E" points="133.368 216.972 209.39 216.972 209.39 214.972 133.368 214.972"/>
    <polygon fill="#434A4F" points="74.773 56.996 76.773 56.996 76.773 52.996 74.773 52.996"/>
    <polygon fill="#434A4F" points="74.773 66.996 76.773 66.996 76.773 62.996 74.773 62.996"/>
    <polygon fill="#434A4F" points="78.773 60.996 82.773 60.996 82.773 58.996 78.773 58.996"/>
    <polygon fill="#434A4F" points="68.773 60.996 72.773 60.996 72.773 58.996 68.773 58.996"/>
    <polygon fill="#434A4F" points="184.839 113.029 186.839 113.029 186.839 109.029 184.839 109.029"/>
    <polygon fill="#434A4F" points="184.839 123.029 186.839 123.029 186.839 119.029 184.839 119.029"/>
    <polygon fill="#434A4F" points="188.839 117.029 192.839 117.029 192.839 115.029 188.839 115.029"/>
    <polygon fill="#434A4F" points="178.839 117.029 182.839 117.029 182.839 115.029 178.839 115.029"/>
    <polygon fill="#434A4F" points="35 206.999 37 206.999 37 202.999 35 202.999"/>
    <polygon fill="#434A4F" points="35 216.999 37 216.999 37 212.999 35 212.999"/>
    <polygon fill="#434A4F" points="39 210.999 43 210.999 43 208.999 39 208.999"/>
    <polygon fill="#434A4F" points="29.001 210.999 33.001 210.999 33.001 208.999 29.001 208.999"/>
    <path fill="#E9886C" d="M47.87 50.977C47.87 53.187 46.079 54.977 43.87 54.977 41.661 54.977 39.87 53.187 39.87 50.977 39.87 48.768 41.661 46.977 43.87 46.977 46.079 46.977 47.87 48.768 47.87 50.977M52.873 85.97C43.498 85.97 35.873 93.596 35.873 102.97 35.873 112.344 43.498 119.97 52.873 119.97 62.247 119.97 69.873 112.344 69.873 102.97 69.873 93.596 62.247 85.97 52.873 85.97zM52.873 121.97C42.396 121.97 33.873 113.447 33.873 102.97 33.873 92.494 42.396 83.97 52.873 83.97 63.349 83.97 71.873 92.494 71.873 102.97 71.873 113.447 63.349 121.97 52.873 121.97z"/>
    <path fill="#434A4F" d="M52.873 112.971C52.32 112.971 51.873 112.523 51.873 111.971L51.873 101.97C51.873 101.417 52.32 100.97 52.873 100.97L59.873 100.97C60.425 100.97 60.873 101.417 60.873 101.97 60.873 102.522 60.425 102.97 59.873 102.97L53.873 102.97 53.873 111.971C53.873 112.523 53.425 112.971 52.873 112.971M52.87 89.969C52.74 89.969 52.61 89.949 52.49 89.889 52.37 89.839 52.26 89.769 52.17 89.679 51.98 89.489 51.87 89.229 51.87 88.969 51.87 88.709 51.98 88.449 52.17 88.259 52.26 88.169 52.37 88.099 52.49 88.049 52.73 87.949 53.01 87.949 53.25 88.049 53.38 88.099 53.49 88.169 53.58 88.259 53.67 88.359 53.74 88.469 53.8 88.589 53.85 88.709 53.87 88.839 53.87 88.969 53.87 89.239 53.771 89.489 53.58 89.679 53.49 89.769 53.38 89.839 53.25 89.889 53.13 89.949 53 89.969 52.87 89.969M52.87 117.969C52.74 117.969 52.61 117.939 52.49 117.889 52.37 117.839 52.26 117.769 52.17 117.679 51.98 117.489 51.87 117.229 51.87 116.969 51.87 116.909 51.88 116.839 51.89 116.779 51.9 116.709 51.92 116.649 51.95 116.589 51.97 116.529 52.001 116.469 52.04 116.419 52.08 116.359 52.12 116.309 52.17 116.259 52.26 116.169 52.37 116.099 52.49 116.049 52.86 115.889 53.3 115.979 53.58 116.259 53.63 116.309 53.67 116.359 53.7 116.419 53.74 116.469 53.771 116.529 53.8 116.589 53.82 116.649 53.84 116.709 53.85 116.779 53.87 116.839 53.87 116.909 53.87 116.969 53.87 117.099 53.85 117.229 53.8 117.349 53.74 117.479 53.67 117.589 53.58 117.679 53.49 117.769 53.38 117.839 53.25 117.889 53.13 117.939 53 117.969 52.87 117.969M45.87 91.849C45.74 91.849 45.61 91.819 45.49 91.769 45.37 91.719 45.26 91.649 45.16 91.549 45.07 91.459 45 91.349 44.95 91.229 44.9 91.109 44.87 90.979 44.87 90.849 44.87 90.719 44.9 90.589 44.95 90.459 45 90.339 45.07 90.229 45.16 90.139 45.54 89.769 46.21 89.769 46.58 90.139 46.67 90.229 46.74 90.339 46.8 90.459 46.85 90.589 46.87 90.719 46.87 90.849 46.87 90.979 46.85 91.109 46.8 91.229 46.74 91.349 46.67 91.459 46.58 91.549 46.49 91.649 46.38 91.719 46.25 91.769 46.13 91.819 46.001 91.849 45.87 91.849M59.87 116.099C59.74 116.099 59.61 116.069 59.49 116.019 59.37 115.969 59.26 115.899 59.16 115.799 58.98 115.619 58.87 115.359 58.87 115.099 58.87 114.829 58.98 114.569 59.16 114.389 59.26 114.299 59.37 114.219 59.49 114.169 59.73 114.069 60.01 114.069 60.25 114.169 60.38 114.219 60.49 114.299 60.58 114.389 60.77 114.569 60.87 114.829 60.87 115.099 60.87 115.359 60.77 115.619 60.58 115.799 60.49 115.899 60.38 115.969 60.25 116.019 60.13 116.069 60 116.099 59.87 116.099M40.751 96.969C40.62 96.969 40.49 96.939 40.37 96.889 40.24 96.839 40.13 96.769 40.04 96.679 39.99 96.629 39.95 96.579 39.92 96.529 39.88 96.469 39.85 96.409 39.82 96.349 39.8 96.289 39.78 96.229 39.771 96.169 39.75 96.099 39.75 96.039 39.75 95.969 39.75 95.709 39.85 95.449 40.04 95.259 40.13 95.169 40.24 95.099 40.37 95.049 40.61 94.949 40.89 94.949 41.13 95.049 41.25 95.099 41.36 95.169 41.46 95.259 41.64 95.449 41.75 95.709 41.75 95.969 41.75 96.039 41.74 96.099 41.73 96.169 41.72 96.229 41.7 96.289 41.67 96.349 41.65 96.409 41.62 96.469 41.58 96.529 41.54 96.579 41.501 96.629 41.46 96.679 41.36 96.769 41.25 96.839 41.13 96.889 41.01 96.939 40.88 96.969 40.751 96.969M65.001 110.969C64.73 110.969 64.47 110.859 64.29 110.679 64.1 110.489 64.001 110.229 64.001 109.969 64.001 109.709 64.1 109.449 64.29 109.259 64.33 109.219 64.39 109.179 64.44 109.139 64.501 109.099 64.55 109.069 64.61 109.049 64.67 109.019 64.74 108.999 64.8 108.989 65.13 108.919 65.47 109.029 65.7 109.259 65.89 109.449 66.001 109.709 66.001 109.969 66.001 110.229 65.89 110.489 65.7 110.679 65.521 110.859 65.26 110.969 65.001 110.969M38.87 103.969C38.811 103.969 38.74 103.959 38.68 103.949 38.61 103.939 38.55 103.919 38.49 103.889 38.43 103.869 38.37 103.839 38.32 103.799 38.26 103.769 38.21 103.719 38.17 103.679 38.07 103.589 38 103.479 37.95 103.349 37.9 103.229 37.87 103.099 37.87 102.969 37.87 102.709 37.98 102.449 38.17 102.259 38.21 102.219 38.26 102.179 38.32 102.139 38.37 102.099 38.43 102.069 38.49 102.049 38.55 102.019 38.61 101.999 38.68 101.989 38.87 101.949 39.07 101.969 39.251 102.049 39.38 102.099 39.49 102.169 39.58 102.259 39.771 102.449 39.87 102.709 39.87 102.969 39.87 103.229 39.771 103.489 39.58 103.679 39.49 103.769 39.38 103.839 39.251 103.889 39.13 103.949 39 103.969 38.87 103.969M66.87 103.969C66.74 103.969 66.61 103.949 66.49 103.889 66.37 103.839 66.26 103.769 66.16 103.679 65.98 103.489 65.87 103.229 65.87 102.969 65.87 102.709 65.98 102.449 66.16 102.259 66.26 102.169 66.37 102.099 66.49 102.049 66.86 101.899 67.3 101.989 67.58 102.259 67.771 102.449 67.87 102.709 67.87 102.969 67.87 103.229 67.771 103.489 67.58 103.679 67.4 103.859 67.14 103.969 66.87 103.969M40.751 110.969C40.62 110.969 40.49 110.949 40.37 110.899 40.24 110.839 40.13 110.769 40.04 110.679 39.95 110.589 39.88 110.479 39.82 110.349 39.771 110.229 39.75 110.099 39.75 109.969 39.75 109.909 39.75 109.839 39.771 109.779 39.78 109.709 39.8 109.649 39.82 109.589 39.85 109.529 39.88 109.469 39.92 109.419 39.95 109.359 39.99 109.309 40.04 109.259 40.13 109.169 40.24 109.099 40.37 109.049 40.73 108.899 41.17 108.979 41.46 109.259 41.501 109.309 41.54 109.359 41.58 109.419 41.62 109.469 41.65 109.529 41.67 109.589 41.7 109.649 41.72 109.709 41.73 109.779 41.74 109.839 41.75 109.909 41.75 109.969 41.75 110.099 41.72 110.229 41.67 110.349 41.62 110.479 41.55 110.589 41.46 110.679 41.27 110.869 41.01 110.969 40.751 110.969M65.001 96.969C64.73 96.969 64.47 96.859 64.29 96.679 64.1 96.489 64.001 96.229 64.001 95.969 64.001 95.709 64.1 95.449 64.29 95.259 64.66 94.889 65.33 94.889 65.7 95.259 65.89 95.449 66.001 95.709 66.001 95.969 66.001 96.229 65.89 96.489 65.7 96.679 65.521 96.859 65.26 96.969 65.001 96.969M45.87 116.099C45.74 116.099 45.61 116.069 45.49 116.019 45.37 115.969 45.26 115.899 45.16 115.799 44.981 115.619 44.87 115.359 44.87 115.099 44.87 115.029 44.88 114.959 44.89 114.899 44.91 114.839 44.92 114.769 44.95 114.709 44.97 114.649 45 114.589 45.041 114.539 45.08 114.489 45.12 114.429 45.16 114.389 45.54 114.009 46.21 114.019 46.58 114.389 46.62 114.429 46.67 114.489 46.7 114.539 46.74 114.589 46.771 114.649 46.8 114.709 46.82 114.769 46.84 114.839 46.85 114.899 46.87 114.959 46.87 115.029 46.87 115.099 46.87 115.359 46.76 115.619 46.58 115.799 46.49 115.899 46.38 115.969 46.25 116.019 46.13 116.069 46.001 116.099 45.87 116.099M59.87 91.849C59.74 91.849 59.61 91.819 59.49 91.769 59.37 91.719 59.26 91.649 59.16 91.549 58.98 91.369 58.87 91.109 58.87 90.849 58.87 90.719 58.9 90.589 58.95 90.459 59 90.339 59.07 90.229 59.16 90.139 59.26 90.049 59.37 89.969 59.49 89.919 59.73 89.819 60.01 89.819 60.25 89.919 60.38 89.969 60.49 90.049 60.58 90.139 60.67 90.229 60.75 90.339 60.8 90.459 60.85 90.589 60.87 90.719 60.87 90.849 60.87 91.109 60.77 91.369 60.58 91.549 60.49 91.649 60.38 91.719 60.25 91.769 60.13 91.819 60 91.849 59.87 91.849M190 73.999L192 73.999 192 69.974 192.834 69.833C194.484 69.556 196.008 68.925 197.366 67.958L198.055 67.468 200.9 70.313 202.314 68.898 199.47 66.053 199.96 65.364C200.926 64.008 201.557 62.483 201.834 60.833L201.975 59.999 206 59.999 206 57.999 201.975 57.999 201.834 57.165C201.557 55.515 200.926 53.99 199.959 52.634L199.468 51.945 202.314 49.1 200.9 47.685 198.055 50.53 197.366 50.04C196.008 49.073 194.484 48.442 192.834 48.165L192 48.024 192 43.999 190 43.999 190 48.024 189.167 48.165C187.517 48.442 185.993 49.073 184.635 50.04L183.946 50.53 181.101 47.685 179.687 49.1 182.533 51.945 182.042 52.634C181.075 53.99 180.444 55.515 180.167 57.165L180.026 57.999 176 57.999 176 59.999 180.026 59.999 180.167 60.833C180.444 62.483 181.075 64.008 182.041 65.364L182.531 66.053 179.687 68.898 181.101 70.313 183.946 67.468 184.635 67.958C185.993 68.925 187.517 69.556 189.167 69.833L190 69.974 190 73.999zM194 75.999L188 75.999 188 71.638C186.644 71.318 185.366 70.79 184.184 70.059L181.101 73.141 176.859 68.898 179.941 65.816C179.209 64.634 178.681 63.355 178.362 61.999L174 61.999 174 55.999 178.362 55.999C178.681 54.642 179.209 53.364 179.941 52.182L176.859 49.1 181.101 44.857 184.184 47.939C185.366 47.208 186.644 46.68 188 46.36L188 41.999 194 41.999 194 46.36C195.357 46.68 196.635 47.208 197.817 47.939L200.9 44.857 205.142 49.1 202.06 52.182C202.792 53.364 203.32 54.642 203.639 55.999L208 55.999 208 61.999 203.639 61.999C203.32 63.355 202.792 64.634 202.06 65.816L205.142 68.898 200.9 73.141 197.817 70.059C196.635 70.79 195.357 71.318 194 71.638L194 75.999z"/>
    <path fill="#434A4F" d="M191,55.999 C189.346,55.999 188,57.345 188,58.999 C188,60.653 189.346,61.999 191,61.999 C192.655,61.999 194,60.653 194,58.999 C194,57.345 192.655,55.999 191,55.999 Z M191,63.999 C188.244,63.999 186,61.756 186,58.999 C186,56.242 188.244,53.999 191,53.999 C193.757,53.999 196,56.242 196,58.999 C196,61.756 193.757,63.999 191,63.999 Z"/>
    <polyline fill="#434A4F" points="144 41.999 106 41.999 106 36.999 108 36.999 108 39.999 142 39.999 142 36.999 144 36.999 144 41.999"/>
  </g>
</svg>
