<svg xmlns="http://www.w3.org/2000/svg" width="250" height="250" viewBox="0 0 250 250">
  <g fill="none" fill-rule="evenodd">
    <path fill="#DDDED9" d="M137.493 97.174C140.367 105.032 145.522 111.787 152.156 116.647 153.675 115.039 154.68 112.94 154.892 110.608 147.961 107.738 141.97 103.063 137.493 97.174M210.406 57.376C212.049 61.872 212.946 66.728 212.946 71.793 212.946 94.988 194.142 113.793 170.946 113.793 168.83 113.793 166.752 113.632 164.72 113.33 162.294 115.945 159.189 117.918 155.686 118.971 157.352 119.951 159.089 120.823 160.891 121.569 160.42 126.74 156.078 130.792 150.784 130.792L155.861 130.792C161.737 130.792 167.015 128.283 170.719 124.291 172.751 124.593 174.829 124.754 176.945 124.754 200.14 124.754 218.945 105.95 218.945 82.754 218.945 73.217 215.761 64.427 210.406 57.376M105.75 109.364C106.054 110.543 106.063 111.778 105.776 112.961L101.133 132.102C101.133 134.906 103.407 137.179 106.21 137.179L116.216 137.179C113.412 137.179 111.139 134.906 111.139 132.102L115.782 112.961C116.069 111.778 116.06 110.543 115.756 109.364L113.678 101.318C112.184 95.53 106.963 91.486 100.986 91.486L100.986 96.141C102.228 97.611 103.167 99.361 103.672 101.318L105.75 109.364M143.709 152.41L144.143 152.41C148.484 152.41 151.977 148.777 151.747 144.385 151.532 140.267 147.835 137.179 143.712 137.179L133.706 137.179C137.829 137.179 141.526 140.267 141.741 144.385 141.971 148.777 138.478 152.41 134.137 152.41L133.703 152.41C137.826 152.41 141.523 155.498 141.738 159.616 141.955 163.751 138.871 167.213 134.886 167.604 134.639 167.628 131.848 167.604 131.594 167.604 136.257 167.604 139.941 171.838 139.085 176.653 138.438 180.287 135.043 182.776 131.361 182.863L131.361 183.253C134.524 184.292 136.773 187.345 136.587 190.896 136.372 195.014 132.675 198.102 128.552 198.102L133.555 198.102C137.678 198.102 141.375 195.014 141.59 190.896 141.82 186.505 138.327 182.871 133.986 182.871L141.169 182.871C144.927 182.872 148.432 180.353 149.091 176.653 149.947 171.838 146.263 167.604 141.6 167.604 141.854 167.604 144.644 167.628 144.892 167.604 148.877 167.213 151.961 163.751 151.744 159.616 151.529 155.498 147.832 152.41 143.709 152.41"/>
    <path fill="#434A4F" d="M144.143 153.41L131.447 153.41C130.895 153.41 130.447 152.962 130.447 152.41 130.447 151.857 130.895 151.41 131.447 151.41L144.143 151.41C144.696 151.41 145.143 151.857 145.143 152.41 145.143 152.962 144.696 153.41 144.143 153.41M144.14 168.641L131.447 168.641C130.895 168.641 130.447 168.193 130.447 167.641 130.447 167.088 130.895 166.641 131.447 166.641L144.14 166.641C144.693 166.641 145.14 167.088 145.14 167.641 145.14 168.193 144.693 168.641 144.14 168.641M133.986 183.872L131.447 183.872C130.895 183.872 130.447 183.424 130.447 182.872 130.447 182.319 130.895 181.872 131.447 181.872L133.986 181.872C134.538 181.872 134.986 182.319 134.986 182.872 134.986 183.424 134.538 183.872 133.986 183.872M124.294 145.402C124.034 145.402 123.775 145.302 123.584 145.112 123.405 144.922 123.294 144.672 123.294 144.402 123.294 144.142 123.405 143.882 123.584 143.702 123.954 143.322 124.634 143.322 125.004 143.702 125.185 143.882 125.294 144.142 125.294 144.402 125.294 144.672 125.185 144.922 125.004 145.112 124.815 145.302 124.554 145.402 124.294 145.402M124.294 160.632C124.034 160.632 123.775 160.532 123.584 160.342 123.405 160.162 123.294 159.902 123.294 159.632 123.294 159.372 123.405 159.112 123.584 158.932 123.954 158.552 124.634 158.552 125.004 158.932 125.185 159.112 125.294 159.372 125.294 159.632 125.294 159.902 125.185 160.162 125.004 160.342 124.815 160.532 124.554 160.632 124.294 160.632M124.294 175.862C124.034 175.862 123.775 175.762 123.584 175.572 123.405 175.392 123.294 175.132 123.294 174.862 123.294 174.732 123.324 174.602 123.374 174.482 123.424 174.362 123.494 174.252 123.584 174.162 123.954 173.792 124.634 173.792 125.004 174.162 125.094 174.252 125.164 174.362 125.214 174.482 125.264 174.602 125.294 174.732 125.294 174.862 125.294 175.132 125.185 175.392 125.004 175.572 124.815 175.762 124.554 175.862 124.294 175.862"/>
    <polygon fill="#75C7D0" points="29.055 203.791 62.944 203.791 62.944 134.654 29.055 134.654"/>
    <polygon fill="#434A4F" points="153.946 62.708 187.946 62.708 187.946 60.708 153.946 60.708"/>
    <polygon fill="#434A4F" points="153.946 66.858 187.946 66.858 187.946 64.858 153.946 64.858"/>
    <path fill="#434A4F" d="M124.294 190.872C124.034 190.872 123.775 190.772 123.584 190.582 123.405 190.402 123.294 190.142 123.294 189.872 123.294 189.612 123.405 189.352 123.584 189.172 123.954 188.802 124.634 188.792 125.004 189.172 125.185 189.352 125.294 189.612 125.294 189.872 125.294 190.142 125.185 190.392 125.004 190.582 124.815 190.772 124.554 190.872 124.294 190.872M56.365 190.794C55.263 190.794 54.365 191.691 54.365 192.794 54.365 193.897 55.263 194.794 56.365 194.794 57.468 194.794 58.365 193.897 58.365 192.794 58.365 191.691 57.468 190.794 56.365 190.794zM56.365 196.794C54.159 196.794 52.365 195 52.365 192.794 52.365 190.588 54.159 188.794 56.365 188.794 58.572 188.794 60.365 190.588 60.365 192.794 60.365 195 58.572 196.794 56.365 196.794z"/>
    <path fill="#434A4F" d="M56.364 190.5C55.812 190.5 55.364 190.052 55.364 189.5L55.364 180.794C55.364 180.242 55.812 179.794 56.364 179.794 56.917 179.794 57.364 180.242 57.364 180.794L57.364 189.5C57.364 190.052 56.917 190.5 56.364 190.5M170.946 30.792C148.338 30.792 129.946 49.185 129.946 71.792 129.946 88.44 139.888 103.313 155.275 109.685 155.679 109.852 155.927 110.263 155.888 110.699 155.58 114.073 153.824 116.962 151.26 118.782 156.132 118.437 160.61 116.291 163.987 112.65 164.212 112.409 164.542 112.293 164.866 112.341 166.883 112.641 168.928 112.792 170.946 112.792 193.553 112.792 211.946 94.4 211.946 71.792 211.946 49.185 193.553 30.792 170.946 30.792zM149.863 120.831L144.785 120.831C144.233 120.831 143.785 120.383 143.785 119.831 143.785 119.279 144.233 118.831 144.785 118.831 149.305 118.831 153.063 115.612 153.803 111.233 138.069 104.393 127.946 88.996 127.946 71.792 127.946 48.082 147.236 28.792 170.946 28.792 194.655 28.792 213.946 48.082 213.946 71.792 213.946 95.503 194.655 114.792 170.946 114.792 169.002 114.792 167.034 114.658 165.089 114.393 161.092 118.491 155.573 120.831 149.863 120.831z"/>
    <polygon fill="#434A4F" points="153.946 70.861 187.946 70.861 187.946 68.861 153.946 68.861"/>
    <polyline fill="#434A4F" points="179.146 86.185 175.346 82.386 176.76 80.972 179.146 83.357 188.238 74.265 189.653 75.679 179.146 86.185"/>
    <polyline fill="#434A4F" points="165.238 86.494 157.238 78.494 158.653 77.08 166.653 85.08 165.238 86.494"/>
    <polyline fill="#434A4F" points="158.653 86.494 157.238 85.08 165.238 77.08 166.653 78.494 158.653 86.494"/>
    <path fill="#434A4F" d="M155.945,87.787 L167.945,87.787 L167.945,75.787 L155.945,75.787 L155.945,87.787 Z M153.945,89.787 L169.945,89.787 L169.945,73.787 L153.945,73.787 L153.945,89.787 Z"/>
    <polyline fill="#434A4F" points="187.945 89.787 171.945 89.787 171.945 73.787 184.778 73.787 184.778 75.787 173.945 75.787 173.945 87.787 185.945 87.787 185.945 80.871 187.945 80.871 187.945 89.787"/>
    <path fill="#42494E" d="M166.381,184.068 L167.879,193.11 L167.717,193.411 C166.472,195.722 165.788,198.23 165.686,200.866 C165.508,205.439 167.121,209.809 170.23,213.168 C173.338,216.528 177.569,218.477 182.143,218.655 C191.592,219.032 199.564,211.64 199.932,202.198 C200.298,192.757 192.916,184.776 183.475,184.409 C180.842,184.308 178.285,184.793 175.885,185.855 L175.592,185.985 L166.381,184.068 Z M182.819,220.668 C182.569,220.668 182.317,220.663 182.065,220.653 C176.957,220.455 172.233,218.279 168.762,214.526 C165.29,210.774 163.488,205.895 163.688,200.788 C163.798,197.961 164.507,195.265 165.795,192.768 L163.93,181.516 L175.374,183.897 C177.968,182.801 180.715,182.297 183.553,182.411 C194.096,182.821 202.34,191.732 201.93,202.276 C201.529,212.567 193.029,220.667 182.819,220.668 Z"/>
    <path fill="#E9886C" d="M191.679,202.676 C192.429,201.741 192.88,200.557 192.88,199.265 C192.88,196.251 190.437,193.807 187.422,193.807 C185.559,193.807 183.915,194.742 182.931,196.168 C181.946,194.742 180.302,193.807 178.439,193.807 C175.425,193.807 172.981,196.251 172.981,199.265 C172.981,200.557 173.432,201.741 174.182,202.676 L174.19,202.687 C174.392,202.938 182.931,211.72 182.931,211.72 C182.931,211.72 191.469,202.938 191.671,202.687 L191.679,202.676"/>
    <path fill="#E9886C" d="M178.439,194.807 C175.981,194.807 173.981,196.807 173.981,199.265 C173.981,200.288 174.32,201.25 174.962,202.05 C175.217,202.339 179.628,206.887 182.931,210.286 C186.194,206.928 190.538,202.448 190.9,202.051 L190.899,202.05 C191.541,201.25 191.88,200.288 191.88,199.265 C191.88,196.807 189.88,194.807 187.422,194.807 C185.959,194.807 184.588,195.528 183.754,196.736 L182.931,197.927 L182.109,196.736 C181.274,195.528 179.902,194.807 178.439,194.807 Z M182.931,213.155 L182.214,212.417 C179.013,209.125 173.613,203.564 173.411,203.315 C172.486,202.16 171.981,200.727 171.981,199.265 C171.981,195.704 174.878,192.807 178.439,192.807 C180.13,192.807 181.737,193.472 182.931,194.628 C184.124,193.471 185.731,192.807 187.422,192.807 C190.983,192.807 193.88,195.704 193.88,199.265 C193.88,200.727 193.375,202.16 192.459,203.302 L192.457,203.301 C192.016,203.803 186.779,209.196 183.648,212.417 L182.931,213.155 Z"/>
    <path fill="#FACD60" d="M94.826,52.717 L97.478,58.09 L103.407,58.951 C105.047,59.19 105.702,61.206 104.515,62.363 L100.225,66.544 L101.238,72.449 C101.518,74.083 99.803,75.329 98.336,74.558 L93.033,71.77 L87.73,74.558 C86.263,75.329 84.548,74.083 84.828,72.449 L85.841,66.544 L81.551,62.363 C80.364,61.206 81.019,59.19 82.659,58.951 L88.588,58.09 L91.24,52.717 C91.973,51.231 94.093,51.231 94.826,52.717"/>
    <path fill="#FACD60" d="M93.033,52.102 C92.449,52.102 91.947,52.415 91.688,52.939 L88.92,58.547 L82.732,59.446 C82.154,59.53 81.7,59.912 81.52,60.467 C81.34,61.022 81.482,61.597 81.9,62.005 L86.378,66.37 L85.322,72.534 C85.223,73.109 85.446,73.658 85.918,74.001 C86.391,74.345 86.983,74.387 87.497,74.115 L93.033,71.205 L98.569,74.115 C99.085,74.387 99.676,74.345 100.148,74.001 C100.62,73.658 100.843,73.109 100.744,72.534 L99.688,66.37 L104.167,62.005 C104.584,61.597 104.727,61.022 104.546,60.467 C104.365,59.912 103.912,59.53 103.334,59.446 L97.146,58.547 L94.378,52.939 C94.119,52.415 93.616,52.102 93.033,52.102 Z M86.797,75.29 C86.281,75.29 85.769,75.128 85.33,74.81 C84.555,74.247 84.173,73.31 84.335,72.365 L85.304,66.719 L81.202,62.721 C80.516,62.052 80.273,61.07 80.57,60.158 C80.865,59.246 81.639,58.594 82.587,58.456 L88.256,57.633 L90.791,52.496 C91.215,51.636 92.074,51.102 93.033,51.102 C93.991,51.102 94.851,51.636 95.275,52.496 L97.81,57.633 L103.479,58.456 C104.427,58.594 105.2,59.246 105.497,60.158 C105.793,61.069 105.551,62.052 104.864,62.721 L100.762,66.719 L101.731,72.365 C101.893,73.31 101.511,74.247 100.736,74.81 C99.962,75.373 98.953,75.446 98.104,75 L93.033,72.335 L87.962,75 C87.593,75.194 87.194,75.29 86.797,75.29 Z"/>
    <path fill="#E9886C" d="M202.445,143.792 C193.347,143.792 185.945,151.194 185.945,160.292 C185.945,169.39 193.347,176.792 202.445,176.792 C211.542,176.792 218.945,169.39 218.945,160.292 C218.945,151.194 211.542,143.792 202.445,143.792 Z M202.445,178.792 C192.243,178.792 183.945,170.493 183.945,160.292 C183.945,150.091 192.243,141.792 202.445,141.792 C212.646,141.792 220.945,150.091 220.945,160.292 C220.945,170.493 212.646,178.792 202.445,178.792 Z"/>
    <path fill="#656665" d="M198.09 155.351C197.704 154.688 197.025 154.292 196.274 154.292 195.523 154.292 194.843 154.688 194.457 155.351L192.729 154.345C193.466 153.079 194.824 152.292 196.274 152.292 197.723 152.292 199.081 153.079 199.819 154.345L198.09 155.351M210.432 155.352C210.045 154.688 209.365 154.292 208.614 154.292 207.863 154.292 207.184 154.688 206.798 155.351L205.07 154.345C205.807 153.079 207.165 152.292 208.614 152.292 210.064 152.292 211.422 153.079 212.16 154.344L210.432 155.352M193.499 162.292C193.998 166.786 197.819 170.292 202.444 170.292 207.069 170.292 210.889 166.786 211.388 162.292L193.499 162.292zM202.444 172.292C196.378 172.292 191.444 167.357 191.444 161.292L191.444 160.292 213.444 160.292 213.444 161.292C213.444 167.357 208.509 172.292 202.444 172.292z"/>
    <path fill="#42494E" d="M78.249,110.276 L76.347,109.656 L76.677,108.646 L75.402,108.23 C73.862,107.728 72.867,106.357 72.869,104.737 C72.87,103.117 73.867,101.748 75.409,101.249 L76.684,100.836 L75.985,98.674 L74.708,99.087 C73.166,99.588 71.557,99.061 70.607,97.751 C69.656,96.439 69.657,94.746 70.611,93.436 L71.4,92.352 L69.563,91.014 L68.774,92.099 C67.819,93.409 66.208,93.928 64.668,93.428 C63.129,92.926 62.135,91.555 62.137,89.935 L62.138,88.594 L59.866,88.591 L59.864,89.933 C59.863,91.552 58.866,92.921 57.325,93.42 C55.783,93.92 54.174,93.395 53.224,92.083 L52.436,90.998 L50.597,92.331 L51.384,93.417 C52.335,94.728 52.333,96.422 51.38,97.731 C50.427,99.04 48.818,99.564 47.276,99.061 L46,98.645 L45.671,99.655 L43.769,99.035 L44.719,96.123 L47.895,97.159 C48.751,97.436 49.418,97.028 49.763,96.554 C50.109,96.08 50.29,95.315 49.765,94.591 L47.804,91.886 L52.881,88.205 L54.843,90.909 C55.368,91.635 56.153,91.698 56.709,91.518 C57.267,91.337 57.863,90.825 57.864,89.931 L57.868,86.589 L64.14,86.596 L64.137,89.937 C64.136,90.831 64.732,91.345 65.289,91.526 C65.847,91.708 66.63,91.646 67.157,90.921 L69.123,88.22 L74.195,91.912 L72.228,94.613 C71.701,95.336 71.881,96.102 72.226,96.576 C72.569,97.051 73.238,97.46 74.093,97.185 L77.272,96.156 L79.203,102.122 L76.026,103.151 C75.174,103.427 74.869,104.152 74.869,104.739 C74.868,105.326 75.171,106.051 76.022,106.329 L79.198,107.364 L78.249,110.276"/>
    <path fill="#E9886C" d="M69.045,107.353 L67.143,106.732 C67.68,105.088 67.543,103.333 66.759,101.791 C65.976,100.249 64.638,99.104 62.994,98.568 C59.591,97.46 55.937,99.323 54.829,102.718 L52.927,102.098 C54.376,97.655 59.167,95.215 63.613,96.666 C65.766,97.368 67.517,98.866 68.542,100.884 C69.569,102.903 69.746,105.2 69.045,107.353"/>
    <path fill="#E9886C" d="M61.018,113.137 C60.133,113.137 59.245,112.997 58.381,112.715 C53.938,111.266 51.502,106.472 52.949,102.029 L54.852,102.649 C53.745,106.043 55.607,109.706 59.001,110.813 C62.394,111.92 66.059,110.06 67.165,106.664 L69.068,107.284 C68.365,109.437 66.867,111.187 64.849,112.213 C63.641,112.827 62.334,113.137 61.018,113.137"/>
    <path fill="#42494E" d="M64.126,122.792 L57.854,122.786 L57.857,119.445 C57.858,118.55 57.262,118.037 56.704,117.855 C56.15,117.675 55.364,117.737 54.837,118.46 L52.87,121.161 L47.799,117.469 L49.767,114.768 C50.293,114.045 50.114,113.28 49.769,112.805 C49.424,112.33 48.756,111.92 47.902,112.196 L44.723,113.225 L42.791,107.258 L45.971,106.229 C46.821,105.954 47.125,105.229 47.126,104.642 C47.126,104.056 46.824,103.33 45.974,103.052 L42.797,102.017 L43.864,98.746 L45.766,99.366 L45.319,100.735 L46.593,101.151 C48.134,101.653 49.128,103.024 49.126,104.645 C49.124,106.264 48.127,107.633 46.586,108.132 L45.311,108.545 L46.01,110.707 L47.286,110.293 C48.828,109.793 50.438,110.319 51.388,111.631 C52.339,112.942 52.337,114.636 51.384,115.945 L50.594,117.029 L52.431,118.367 L53.22,117.283 C54.174,115.972 55.787,115.45 57.324,115.954 C58.864,116.456 59.859,117.827 59.857,119.447 L59.856,120.788 L62.128,120.791 L62.129,119.449 C62.131,117.829 63.128,116.46 64.669,115.961 C66.21,115.461 67.821,115.987 68.771,117.299 L69.558,118.385 L71.398,117.051 L70.611,115.965 C69.659,114.654 69.661,112.961 70.615,111.651 C71.569,110.341 73.181,109.82 74.719,110.322 L75.994,110.738 L76.489,109.222 L78.391,109.842 L77.276,113.26 L74.099,112.224 C73.249,111.946 72.576,112.354 72.232,112.829 C71.886,113.303 71.704,114.067 72.23,114.792 L74.191,117.497 L69.113,121.178 L67.152,118.473 C66.627,117.749 65.842,117.683 65.285,117.864 C64.727,118.045 64.13,118.557 64.129,119.451 L64.126,122.792"/>
    <path fill="#FACD60" d="M64.943,104.791 C64.943,107 63.153,108.791 60.943,108.791 C58.734,108.791 56.943,107 56.943,104.791 C56.943,102.582 58.734,100.791 60.943,100.791 C63.153,100.791 64.943,102.582 64.943,104.791"/>
    <path fill="#FACD60" d="M60.944,101.291 C59.014,101.291 57.444,102.861 57.444,104.791 C57.444,106.721 59.014,108.291 60.944,108.291 C62.873,108.291 64.444,106.721 64.444,104.791 C64.444,102.861 62.873,101.291 60.944,101.291 Z M60.944,109.291 C58.462,109.291 56.444,107.272 56.444,104.791 C56.444,102.31 58.462,100.291 60.944,100.291 C63.425,100.291 65.444,102.31 65.444,104.791 C65.444,107.272 63.425,109.291 60.944,109.291 Z"/>
    <polygon fill="#434A4F" points="54.945 48.792 56.945 48.792 56.945 44.792 54.945 44.792"/>
    <polygon fill="#434A4F" points="54.945 58.792 56.945 58.792 56.945 54.792 54.945 54.792"/>
    <polygon fill="#434A4F" points="58.945 52.792 62.945 52.792 62.945 50.792 58.945 50.792"/>
    <polygon fill="#434A4F" points="48.945 52.792 52.945 52.792 52.945 50.792 48.945 50.792"/>
    <path fill="#434A4F" d="M91.298 194.883C87.825 194.132 84.384 193.207 80.994 192.077 80.892 192.043 80.785 192.025 80.678 192.025L71.525 192.025 71.525 194.025 80.516 194.025C84.365 195.302 88.275 196.337 92.228 197.134L91.298 194.883M152.743 159.563C152.584 156.539 150.699 153.894 148.037 152.487 148.904 152.046 149.7 151.454 150.394 150.724 152.036 148.993 152.871 146.723 152.746 144.333 152.51 139.836 148.458 136.179 143.712 136.179L116.216 136.179C114.006 136.179 112.201 134.411 112.142 132.215L116.754 113.197C117.079 111.858 117.069 110.447 116.724 109.114L114.646 101.068C113.038 94.837 107.42 90.486 100.986 90.486 100.433 90.486 99.986 90.934 99.986 91.486L99.986 106.532 88.613 136.103C88.012 137.666 86.483 138.716 84.808 138.716L71.525 138.716 71.525 140.716 84.808 140.716C87.304 140.716 89.583 139.15 90.48 136.82L101.919 107.076C101.963 106.962 101.986 106.84 101.986 106.717L101.986 92.527C107.082 92.947 111.413 96.546 112.71 101.568L114.788 109.615C115.05 110.63 115.058 111.706 114.811 112.725L110.168 131.866C110.15 131.943 110.14 132.022 110.14 132.102 110.14 135.453 112.865 138.179 116.216 138.179L143.712 138.179C147.411 138.179 150.568 140.986 150.748 144.437 150.845 146.274 150.203 148.018 148.943 149.347 147.681 150.677 145.976 151.41 144.143 151.41L143.709 151.41C143.156 151.41 142.709 151.857 142.709 152.41 142.709 152.962 143.156 153.41 143.709 153.41 147.408 153.41 150.565 156.217 150.745 159.668 150.932 163.214 148.318 166.263 144.811 166.607 144.566 166.623 142.653 166.611 142.023 166.606L141.695 166.604C141.112 166.591 140.6 167.021 140.6 167.604 140.6 168.156 141.047 168.604 141.6 168.604L141.673 168.604C143.598 168.626 145.411 169.488 146.659 170.978 147.931 172.495 148.458 174.5 148.107 176.478 147.559 179.553 144.576 181.872 141.169 181.872L133.986 181.872C133.433 181.872 132.986 182.319 132.986 182.872 132.986 183.424 133.433 183.872 133.986 183.872 135.819 183.872 137.524 184.604 138.785 185.934 140.046 187.263 140.688 189.007 140.591 190.844 140.411 194.295 137.255 197.103 133.555 197.103L111.963 197.103C110.343 197.103 108.727 197.049 107.114 196.969L112.092 199.103 133.555 199.103C138.302 199.103 142.354 195.445 142.589 190.949 142.714 188.558 141.879 186.289 140.237 184.558 140.004 184.313 139.761 184.084 139.508 183.872L141.169 183.872C145.531 183.872 149.361 180.844 150.075 176.828 150.531 174.266 149.845 171.666 148.193 169.693 147.738 169.151 147.227 168.673 146.67 168.265 150.383 167.134 152.954 163.596 152.743 159.563"/>
    <path fill="#434A4F" d="M90.805,191.067 L101.256,216.376 L105.729,207.381 L114.116,215.768 L115.53,214.354 L107.1,205.923 L114.753,201.331 L90.805,191.067 Z M101.088,221.208 L87.084,187.297 L119.136,201.033 L110.324,206.32 L118.359,214.354 L114.116,218.596 L106.281,210.762 L101.088,221.208 Z"/>
    <path fill="#75C7D0" d="M178.945 135.792C178.945 137.449 177.601 138.792 175.945 138.792 174.288 138.792 172.945 137.449 172.945 135.792 172.945 134.135 174.288 132.792 175.945 132.792 177.601 132.792 178.945 134.135 178.945 135.792M212.945 120.792C212.945 121.897 212.049 122.792 210.945 122.792 209.84 122.792 208.945 121.897 208.945 120.792 208.945 119.687 209.84 118.792 210.945 118.792 212.049 118.792 212.945 119.687 212.945 120.792"/>
    <polygon fill="#434A4F" points="190.945 122.792 192.945 122.792 192.945 118.792 190.945 118.792"/>
    <polygon fill="#434A4F" points="190.945 132.792 192.945 132.792 192.945 128.792 190.945 128.792"/>
    <polygon fill="#434A4F" points="194.945 126.792 198.945 126.792 198.945 124.792 194.945 124.792"/>
    <polygon fill="#434A4F" points="184.945 126.792 188.945 126.792 188.945 124.792 184.945 124.792"/>
    <polygon fill="#434A4F" points="120.945 38.792 122.945 38.792 122.945 34.792 120.945 34.792"/>
    <polygon fill="#434A4F" points="120.945 48.792 122.945 48.792 122.945 44.792 120.945 44.792"/>
    <polygon fill="#434A4F" points="124.945 42.792 128.945 42.792 128.945 40.792 124.945 40.792"/>
    <polygon fill="#434A4F" points="114.945 42.792 118.945 42.792 118.945 40.792 114.945 40.792"/>
    <path fill="#434A4F" d="M165.254,160.614 C165.414,160.614 165.573,160.652 165.72,160.729 L168.566,162.225 L169.657,161.979 L168.672,162.148 L168.128,158.979 C168.072,158.655 168.18,158.324 168.415,158.094 L170.718,155.85 L170.821,154.735 L170.678,155.725 L167.496,155.263 C167.17,155.216 166.889,155.011 166.743,154.716 L165.321,151.833 C165.312,151.815 165.3,151.792 165.254,151.792 L163.766,154.716 C163.62,155.011 163.339,155.216 163.013,155.263 L159.831,155.725 L159.093,156.566 L159.791,155.85 L162.093,158.094 C162.328,158.324 162.436,158.655 162.38,158.979 L161.837,162.148 L161.943,162.225 L164.788,160.729 C164.935,160.652 165.094,160.614 165.254,160.614 Z M161.907,164.236 C161.48,164.236 161.054,164.102 160.691,163.838 C160.048,163.371 159.732,162.594 159.866,161.81 L160.321,159.159 L158.395,157.283 C157.825,156.727 157.625,155.913 157.87,155.157 C158.116,154.401 158.757,153.86 159.544,153.746 L162.205,153.359 L163.396,150.948 C163.747,150.235 164.459,149.792 165.254,149.792 C166.05,149.792 166.762,150.235 167.113,150.948 L168.304,153.359 L170.965,153.746 C171.752,153.86 172.393,154.401 172.639,155.157 C172.884,155.913 172.684,156.727 172.114,157.282 L170.188,159.159 L170.643,161.81 C170.778,162.593 170.461,163.371 169.819,163.837 C169.174,164.306 168.336,164.364 167.635,163.996 L165.254,162.744 L162.874,163.996 C162.568,164.156 162.237,164.236 161.907,164.236 Z"/>
    <polyline fill="#434A4F" points="71.945 199.792 62.944 199.792 62.944 197.792 69.945 197.792 69.945 137.625 62.944 137.625 62.944 135.625 71.945 135.625 71.945 199.792"/>
  </g>
</svg>
