<svg xmlns="http://www.w3.org/2000/svg" width="250" height="250" viewBox="0 0 250 250">
  <g fill="none" fill-rule="evenodd">
    <path fill="#DDDED9" d="M131.213 125.643L135.902 124.124 136.625 126.357 138.324 124.024 131.053 118.73 128.152 122.715C127.509 123.599 126.711 124.202 125.851 124.576 127.218 125.756 129.14 126.314 131.213 125.643M81.515 156.022L77.807 157.222 79.854 163.545 81.056 161.895C82.454 159.975 82.423 157.765 81.515 156.022M144.47 145.221L149.159 143.702 146.388 135.146 141.699 136.665C138.778 137.611 136.137 136.136 134.964 133.882L133.984 134.199C128.804 135.876 128.797 143.203 133.974 144.891L138.66 146.418 135.918 154.827 131.232 153.299C126.055 151.61 121.743 157.533 124.939 161.942L127.831 165.932 120.55 171.211 117.657 167.22C114.461 162.811 107.491 165.068 107.485 170.513L107.48 175.442 98.486 175.433 98.491 170.504C98.496 166.152 94.051 163.839 90.629 165.328 92.677 167.097 93.465 170.276 91.542 172.917L88.641 176.901 95.911 182.195 98.812 178.211C102.018 173.809 108.983 176.08 108.977 181.525L108.972 186.454 117.966 186.464 117.971 181.535C117.977 176.09 124.947 173.833 128.143 178.242L131.036 182.232 138.318 176.954 135.425 172.963C132.229 168.555 136.541 162.632 141.718 164.32L146.404 165.848 149.146 157.44 144.46 155.912C139.283 154.224 139.29 146.898 144.47 145.221"/>
    <path fill="#434A4F" d="M180.448,202.434 L175.327,202.434 L175.327,200.434 L179.448,200.434 L179.448,172.463 L181.448,172.463 L181.448,201.434 C181.448,201.987 181.001,202.434 180.448,202.434"/>
    <path fill="#42494E" d="M219.812,133.866 L217.91,133.246 L218.21,132.327 L217.039,131.946 C215.551,131.461 214.591,130.136 214.593,128.572 C214.594,127.007 215.557,125.684 217.045,125.202 L218.218,124.823 L217.579,122.851 L216.406,123.23 C214.922,123.713 213.363,123.206 212.444,121.939 C211.525,120.672 211.527,119.036 212.448,117.771 L213.174,116.775 L211.498,115.555 L210.773,116.551 C209.852,117.816 208.3,118.321 206.808,117.835 C205.32,117.35 204.36,116.026 204.361,114.461 L204.362,113.229 L202.29,113.227 L202.289,114.459 C202.287,116.024 201.324,117.346 199.835,117.828 C198.349,118.307 196.791,117.803 195.873,116.536 L195.15,115.539 L193.472,116.756 L194.195,117.753 C195.114,119.02 195.112,120.656 194.191,121.921 C193.27,123.186 191.711,123.69 190.226,123.205 L189.055,122.823 L188.756,123.742 L186.853,123.122 L187.773,120.302 L190.846,121.303 C191.633,121.559 192.255,121.182 192.574,120.744 C192.893,120.305 193.062,119.597 192.576,118.927 L190.679,116.31 L195.596,112.746 L197.492,115.363 C197.978,116.033 198.704,116.094 199.22,115.926 C199.735,115.758 200.288,115.284 200.289,114.457 L200.292,111.225 L206.364,111.231 L206.361,114.463 C206.36,115.29 206.912,115.765 207.429,115.933 C207.945,116.105 208.67,116.043 209.156,115.374 L211.058,112.761 L215.967,116.335 L214.065,118.948 C213.578,119.617 213.745,120.325 214.063,120.765 C214.382,121.204 215.005,121.582 215.79,121.328 L218.866,120.332 L220.737,126.11 L217.661,127.105 C216.874,127.36 216.593,128.031 216.593,128.573 C216.592,129.116 216.872,129.787 217.658,130.044 L220.731,131.046 L219.812,133.866"/>
    <path fill="#42494E" d="M211.039,131.079 L209.137,130.459 C210.183,127.248 208.423,123.782 205.211,122.735 C201.998,121.689 198.533,123.45 197.486,126.661 L195.584,126.041 C196.974,121.782 201.57,119.443 205.83,120.834 C210.091,122.223 212.427,126.819 211.039,131.079"/>
    <path fill="#42494E" d="M203.341,136.626 C202.493,136.626 201.642,136.492 200.813,136.221 C196.553,134.832 194.217,130.236 195.605,125.975 L197.508,126.595 C196.46,129.807 198.222,133.273 201.433,134.32 C202.989,134.827 204.649,134.698 206.108,133.957 C207.567,133.216 208.65,131.95 209.157,130.394 L211.059,131.014 C210.387,133.078 208.95,134.757 207.015,135.74 C205.856,136.328 204.603,136.626 203.341,136.626"/>
    <path fill="#42494E" d="M206.35 145.83L200.278 145.824 200.281 142.593C200.282 141.764 199.731 141.29 199.216 141.122 198.699 140.953 197.975 141.013 197.487 141.681L195.585 144.294 190.675 140.719 192.578 138.106C193.065 137.437 192.898 136.729 192.58 136.29 192.261 135.85 191.64 135.472 190.852 135.726L187.777 136.722 185.908 130.945 188.982 129.949C189.769 129.694 190.051 129.024 190.052 128.481 190.052 127.938 189.772 127.267 188.985 127.01L185.913 126.008 186.943 122.846 188.846 123.466 188.434 124.727 189.605 125.109C191.094 125.594 192.054 126.918 192.052 128.483 192.05 130.048 191.087 131.37 189.598 131.852L188.426 132.232 189.064 134.203 190.237 133.824C191.727 133.341 193.282 133.85 194.199 135.116 195.118 136.383 195.116 138.019 194.195 139.283L193.47 140.28 195.145 141.5 195.87 140.504C196.792 139.24 198.348 138.734 199.836 139.22 201.323 139.705 202.283 141.03 202.281 142.594L202.28 143.826 204.352 143.828 204.354 142.596C204.355 141.032 205.318 139.709 206.808 139.227 208.299 138.744 209.852 139.254 210.769 140.519L211.493 141.517 213.171 140.301 212.448 139.303C211.529 138.036 211.531 136.4 212.453 135.135 213.372 133.87 214.929 133.365 216.418 133.852L217.589 134.234 218.045 132.833 219.947 133.453 218.87 136.755 215.798 135.753C215.011 135.498 214.39 135.874 214.069 136.313 213.75 136.751 213.582 137.459 214.067 138.129L215.964 140.746 211.048 144.31 209.15 141.693C208.665 141.023 207.942 140.964 207.424 141.13 206.907 141.297 206.355 141.771 206.354 142.598L206.35 145.83M118.889 144.702L116.986 144.082C118.207 140.34 117.896 136.345 116.112 132.836 114.329 129.326 111.285 126.721 107.542 125.501 99.813 122.981 91.478 127.219 88.961 134.946L87.059 134.326C89.92 125.551 99.389 120.739 108.161 123.6 112.413 124.986 115.869 127.944 117.895 131.929 119.922 135.915 120.274 140.451 118.889 144.702"/>
    <path fill="#E9886C" d="M102.997,130.942 C98.31,130.942 94.497,134.755 94.497,139.442 C94.497,144.129 98.31,147.942 102.997,147.942 C107.683,147.942 111.497,144.129 111.497,139.442 C111.497,134.755 107.683,130.942 102.997,130.942 Z M102.997,150.942 C96.656,150.942 91.497,145.783 91.497,139.442 C91.497,133.101 96.656,127.942 102.997,127.942 C109.338,127.942 114.497,133.101 114.497,139.442 C114.497,145.783 109.338,150.942 102.997,150.942 Z"/>
    <path fill="#434A4F" d="M103.949,119.464 C103.399,119.444 102.969,118.973 102.999,118.413 C103.018,117.864 103.489,117.444 104.039,117.464 C104.599,117.493 105.018,117.964 104.999,118.513 C104.969,119.053 104.529,119.464 103.999,119.464 C103.978,119.464 103.969,119.464 103.949,119.464 Z M99.018,118.793 C98.939,118.243 99.319,117.743 99.869,117.663 C100.419,117.583 100.919,117.964 100.999,118.513 C101.079,119.063 100.699,119.563 100.149,119.643 C100.099,119.654 100.058,119.654 100.009,119.654 C99.518,119.654 99.089,119.293 99.018,118.793 Z M107.709,120.004 L107.719,120.004 C107.179,119.873 106.849,119.333 106.978,118.793 C107.109,118.254 107.649,117.924 108.179,118.053 C108.719,118.183 109.049,118.723 108.919,119.263 C108.808,119.723 108.399,120.033 107.949,120.033 C107.869,120.033 107.789,120.024 107.709,120.004 Z M95.179,119.913 C94.999,119.393 95.279,118.823 95.799,118.643 C96.319,118.464 96.889,118.743 97.069,119.263 C97.249,119.783 96.978,120.353 96.459,120.533 C96.349,120.573 96.239,120.594 96.129,120.594 C95.709,120.594 95.329,120.333 95.179,119.913 Z M111.308,121.243 C110.808,121.013 110.579,120.424 110.808,119.924 C111.049,119.413 111.639,119.194 112.139,119.424 C112.639,119.654 112.859,120.243 112.629,120.754 C112.459,121.123 112.099,121.333 111.719,121.333 C111.579,121.333 111.439,121.303 111.308,121.243 Z M91.629,121.754 C91.359,121.274 91.518,120.663 91.999,120.384 C92.469,120.114 93.079,120.274 93.359,120.754 C93.639,121.234 93.478,121.844 92.999,122.114 C92.839,122.203 92.669,122.254 92.499,122.254 C92.149,122.254 91.819,122.073 91.629,121.754 Z M114.599,123.154 L114.599,123.143 C114.149,122.833 114.049,122.203 114.369,121.754 C114.689,121.303 115.308,121.203 115.759,121.524 C116.209,121.844 116.308,122.464 115.999,122.913 C115.799,123.194 115.489,123.333 115.179,123.333 C114.978,123.333 114.779,123.274 114.599,123.154 Z M88.489,124.223 C88.129,123.803 88.169,123.174 88.589,122.813 C89.009,122.453 89.639,122.493 89.999,122.913 C90.359,123.333 90.319,123.964 89.899,124.323 C89.709,124.493 89.478,124.573 89.249,124.573 C88.969,124.573 88.689,124.453 88.489,124.223 Z M117.469,125.643 C117.089,125.243 117.109,124.614 117.509,124.223 C117.899,123.844 118.539,123.864 118.919,124.263 C119.299,124.663 119.289,125.293 118.889,125.674 C118.689,125.864 118.449,125.953 118.199,125.953 C117.929,125.953 117.669,125.844 117.469,125.643 Z M85.869,127.243 C85.439,126.904 85.359,126.274 85.699,125.844 C85.699,125.844 85.699,125.844 85.709,125.844 C86.049,125.404 86.679,125.333 87.109,125.674 C87.539,126.013 87.609,126.643 87.279,127.073 C87.079,127.333 86.789,127.464 86.489,127.464 C86.268,127.464 86.049,127.393 85.869,127.243 Z M119.829,128.634 C119.529,128.163 119.659,127.543 120.129,127.254 C120.589,126.953 121.209,127.083 121.509,127.543 C121.808,128.013 121.669,128.634 121.209,128.933 C121.039,129.033 120.849,129.094 120.669,129.094 C120.339,129.094 120.018,128.924 119.829,128.634 Z M83.869,130.703 C83.379,130.453 83.189,129.853 83.439,129.364 C83.689,128.864 84.299,128.674 84.789,128.924 C85.279,129.183 85.469,129.783 85.219,130.274 C85.039,130.623 84.689,130.813 84.329,130.813 C84.169,130.813 84.009,130.783 83.869,130.703 Z M121.569,132.004 C121.359,131.493 121.609,130.913 122.129,130.703 C122.639,130.504 123.219,130.754 123.429,131.263 C123.629,131.774 123.379,132.364 122.869,132.563 C122.749,132.614 122.619,132.634 122.499,132.634 C122.099,132.634 121.728,132.404 121.569,132.004 Z M82.559,134.484 C82.029,134.323 81.728,133.774 81.879,133.243 C82.039,132.714 82.589,132.404 83.119,132.563 C83.649,132.723 83.959,133.274 83.799,133.803 C83.669,134.243 83.268,134.524 82.839,134.524 C82.749,134.524 82.659,134.513 82.559,134.484 Z M122.639,135.654 C122.529,135.114 122.889,134.594 123.429,134.484 C123.969,134.384 124.499,134.734 124.599,135.283 C124.709,135.823 124.349,136.344 123.808,136.453 C123.749,136.464 123.679,136.464 123.619,136.464 C123.149,136.464 122.728,136.134 122.639,135.654 Z M81.999,138.444 C81.449,138.393 81.039,137.904 81.099,137.353 C81.099,137.353 81.099,137.353 81.089,137.353 C81.149,136.803 81.629,136.393 82.179,136.444 C82.728,136.504 83.139,136.993 83.089,137.543 C83.039,138.053 82.599,138.444 82.089,138.444 C82.059,138.444 82.029,138.444 81.999,138.444 Z M122.999,139.444 C122.999,138.893 123.439,138.444 123.999,138.444 C124.549,138.444 124.999,138.893 124.999,139.444 C124.999,139.993 124.549,140.444 123.999,140.444 C123.439,140.444 122.999,139.993 122.999,139.444 Z M81.099,141.533 C81.099,141.533 81.099,141.533 81.089,141.533 C81.039,140.984 81.449,140.493 81.999,140.444 C82.549,140.393 83.029,140.793 83.089,141.344 C83.139,141.893 82.728,142.384 82.179,142.433 C82.149,142.433 82.119,142.433 82.089,142.433 C81.579,142.433 81.139,142.043 81.099,141.533 Z M123.429,144.404 C122.889,144.293 122.529,143.774 122.639,143.234 C122.739,142.683 123.268,142.333 123.808,142.433 C124.349,142.533 124.709,143.063 124.599,143.603 C124.509,144.083 124.089,144.413 123.619,144.413 C123.558,144.413 123.499,144.413 123.429,144.404 Z M81.879,145.643 C81.728,145.114 82.029,144.553 82.559,144.404 C83.089,144.243 83.649,144.543 83.799,145.073 C83.959,145.603 83.649,146.163 83.119,146.313 C83.029,146.344 82.929,146.364 82.839,146.364 C82.409,146.364 82.009,146.073 81.879,145.643 Z M122.129,148.174 C121.609,147.973 121.359,147.393 121.569,146.873 C121.768,146.364 122.359,146.114 122.869,146.323 C123.379,146.524 123.629,147.103 123.429,147.623 C123.429,147.623 123.429,147.623 123.429,147.614 C123.268,148.013 122.889,148.254 122.499,148.254 C122.369,148.254 122.249,148.223 122.129,148.174 Z M83.439,149.524 C83.179,149.033 83.379,148.433 83.869,148.174 C84.359,147.924 84.959,148.114 85.209,148.603 C85.469,149.094 85.279,149.703 84.789,149.953 C84.639,150.024 84.478,150.063 84.329,150.063 C83.969,150.063 83.619,149.864 83.439,149.524 Z M120.119,151.634 C119.659,151.333 119.518,150.714 119.829,150.254 C120.119,149.793 120.739,149.654 121.209,149.953 C121.669,150.254 121.808,150.873 121.509,151.333 C121.319,151.634 120.989,151.793 120.659,151.793 C120.478,151.793 120.289,151.743 120.119,151.634 Z M85.699,153.043 C85.359,152.603 85.439,151.984 85.869,151.634 C86.299,151.293 86.929,151.373 87.268,151.803 L87.279,151.803 C87.609,152.243 87.539,152.864 87.109,153.214 C86.919,153.353 86.709,153.424 86.489,153.424 C86.189,153.424 85.899,153.293 85.699,153.043 Z M117.509,154.654 C117.109,154.274 117.089,153.643 117.469,153.243 C117.849,152.844 118.489,152.823 118.889,153.214 C119.279,153.594 119.299,154.223 118.919,154.623 C118.719,154.833 118.459,154.933 118.199,154.933 C117.949,154.933 117.699,154.844 117.509,154.654 Z M88.589,156.063 C88.589,156.063 88.589,156.063 88.589,156.073 C88.169,155.703 88.129,155.073 88.489,154.654 C88.849,154.243 89.478,154.194 89.899,154.553 C90.319,154.924 90.359,155.553 89.999,155.964 C89.799,156.194 89.518,156.313 89.239,156.313 C89.009,156.313 88.779,156.234 88.589,156.063 Z M114.359,157.134 C114.039,156.683 114.149,156.053 114.599,155.734 C115.049,155.413 115.669,155.524 115.989,155.964 C116.308,156.424 116.209,157.043 115.759,157.364 C115.579,157.493 115.379,157.553 115.179,157.553 C114.869,157.553 114.558,157.404 114.359,157.134 Z M91.999,158.493 C91.518,158.223 91.348,157.614 91.629,157.134 C91.909,156.654 92.518,156.493 92.999,156.763 C93.469,157.043 93.639,157.654 93.359,158.134 C93.179,158.453 92.839,158.634 92.489,158.634 C92.319,158.634 92.149,158.594 91.999,158.493 Z M110.808,158.964 C110.579,158.464 110.799,157.873 111.308,157.643 C111.808,157.413 112.399,157.634 112.629,158.134 C112.859,158.634 112.639,159.234 112.139,159.464 C112.139,159.464 112.139,159.464 112.139,159.453 C111.999,159.524 111.859,159.553 111.719,159.553 C111.339,159.553 110.978,159.333 110.808,158.964 Z M95.799,160.243 C95.799,160.243 95.799,160.243 95.799,160.234 C95.279,160.053 94.999,159.484 95.179,158.964 C95.359,158.444 95.929,158.163 96.459,158.344 C96.978,158.524 97.249,159.094 97.069,159.623 C96.929,160.033 96.539,160.293 96.129,160.293 C96.018,160.293 95.909,160.274 95.799,160.243 Z M106.978,160.094 C106.849,159.553 107.179,159.013 107.709,158.884 C108.249,158.754 108.789,159.083 108.919,159.623 C109.049,160.154 108.719,160.694 108.179,160.823 C108.109,160.844 108.029,160.853 107.949,160.853 C107.499,160.853 107.089,160.543 106.978,160.094 Z M99.869,161.223 C99.319,161.143 98.939,160.634 99.018,160.094 C99.098,159.543 99.599,159.163 100.149,159.243 C100.699,159.323 101.079,159.823 100.999,160.373 C100.929,160.873 100.499,161.234 100.009,161.234 C99.959,161.234 99.919,161.223 99.869,161.223 Z M102.999,160.464 C102.969,159.913 103.399,159.444 103.949,159.424 C104.499,159.393 104.969,159.823 104.989,160.373 C105.018,160.924 104.589,161.393 104.039,161.413 C104.029,161.424 104.009,161.424 103.999,161.424 C103.459,161.424 103.018,161.004 102.999,160.464 Z"/>
    <path fill="#434A4F" d="M99.487,174.433 L106.48,174.441 L106.485,170.512 C106.488,167.59 108.287,165.12 111.066,164.22 C113.851,163.321 116.752,164.267 118.467,166.633 L120.772,169.814 L126.435,165.709 L124.129,162.529 C122.414,160.162 122.417,157.107 124.138,154.745 C125.857,152.383 128.766,151.442 131.542,152.348 L135.277,153.566 L137.398,147.059 L133.664,145.841 C130.886,144.935 129.092,142.462 129.095,139.54 C129.098,136.618 130.896,134.148 133.677,133.248 L137.413,132.037 L135.259,125.384 L131.52,126.594 C128.742,127.496 125.837,126.548 124.121,124.182 C122.405,121.816 122.408,118.761 124.128,116.399 L126.44,113.222 L120.787,109.106 L118.475,112.282 C116.754,114.644 113.848,115.588 111.07,114.68 C108.292,113.775 106.498,111.301 106.501,108.379 L106.505,104.45 L99.512,104.443 L99.508,108.372 C99.505,111.294 97.706,113.764 94.926,114.664 C92.146,115.566 89.242,114.617 87.526,112.252 L85.22,109.071 L79.558,113.176 L81.864,116.357 C83.58,118.722 83.576,121.778 81.856,124.14 C80.137,126.503 77.227,127.444 74.452,126.538 L70.716,125.321 L68.597,131.822 L72.332,133.04 C75.109,133.946 76.902,136.42 76.899,139.342 C76.896,142.264 75.099,144.734 72.318,145.634 L68.581,146.844 L70.735,153.498 L74.472,152.287 C77.257,151.386 80.158,152.335 81.873,154.701 C83.588,157.067 83.584,160.122 81.864,162.484 L79.552,165.66 L85.205,169.777 L87.518,166.6 C89.239,164.238 92.145,163.297 94.923,164.203 C97.701,165.109 99.494,167.583 99.491,170.505 L99.487,174.433 Z M108.478,176.443 L97.485,176.431 L97.491,170.503 C97.494,168.028 95.846,166.608 94.303,166.105 C92.764,165.603 90.593,165.776 89.135,167.778 L85.644,172.571 L76.757,166.099 L80.247,161.306 C81.704,159.306 81.206,157.189 80.254,155.875 C79.302,154.56 77.445,153.428 75.088,154.19 L69.448,156.016 L66.061,145.557 L71.703,143.731 C74.057,142.969 74.898,140.963 74.899,139.34 C74.901,137.717 74.064,135.709 71.712,134.942 L66.075,133.103 L69.435,122.799 L75.071,124.636 C77.431,125.406 79.285,124.275 80.239,122.963 C81.195,121.651 81.698,119.535 80.245,117.531 L76.764,112.731 L85.665,106.278 L89.145,111.078 C90.598,113.08 92.766,113.263 94.31,112.761 C95.854,112.261 97.505,110.845 97.508,108.37 L97.514,102.441 L108.507,102.452 L108.501,108.381 C108.499,110.856 110.146,112.276 111.689,112.779 C113.235,113.281 115.4,113.106 116.857,111.105 L120.348,106.312 L129.235,112.782 L125.745,117.575 C124.288,119.577 124.787,121.694 125.74,123.008 C126.692,124.322 128.549,125.453 130.905,124.692 L136.546,122.865 L139.933,133.323 L134.293,135.15 C131.937,135.913 131.097,137.919 131.095,139.542 C131.094,141.165 131.931,143.173 134.283,143.94 L139.92,145.778 L136.558,156.087 L130.923,154.249 C128.567,153.482 126.709,154.611 125.754,155.923 C124.799,157.235 124.296,159.35 125.748,161.355 L129.228,166.155 L120.327,172.607 L116.848,167.807 C115.393,165.803 113.227,165.624 111.683,166.123 C110.139,166.623 108.488,168.039 108.485,170.514 L108.478,176.443 Z"/>
    <polygon fill="#434A4F" points="85.159 67.464 103.159 67.464 103.159 65.464 85.159 65.464"/>
    <polygon fill="#434A4F" points="85.159 71.464 143.159 71.464 143.159 69.464 85.159 69.464"/>
    <polygon fill="#434A4F" points="85.159 83.464 125.159 83.464 125.159 81.464 85.159 81.464"/>
    <polygon fill="#434A4F" points="85.159 87.464 125.159 87.464 125.159 85.464 85.159 85.464"/>
    <polygon fill="#434A4F" points="85.159 91.464 125.159 91.464 125.159 89.464 85.159 89.464"/>
    <polygon fill="#434A4F" points="85.159 95.464 125.159 95.464 125.159 93.464 85.159 93.464"/>
    <polyline fill="#FACD60" points="180.158 75.735 154.147 75.735 154.147 49.464 155.158 49.464 180.158 74.462 180.158 75.735"/>
    <path fill="#42494E" d="M202.239,174.452 C196.174,174.452 191.239,179.387 191.239,185.452 C191.239,191.518 196.174,196.452 202.239,196.452 C208.305,196.452 213.239,191.518 213.239,185.452 C213.239,179.387 208.305,174.452 202.239,174.452 Z M202.239,198.452 C195.071,198.452 189.239,192.621 189.239,185.452 C189.239,178.284 195.071,172.452 202.239,172.452 C209.407,172.452 215.239,178.284 215.239,185.452 C215.239,192.621 209.407,198.452 202.239,198.452 Z M202.239,170.452 C193.968,170.452 187.239,177.181 187.239,185.452 C187.239,193.723 193.968,200.452 202.239,200.452 C210.511,200.452 217.239,193.723 217.239,185.452 C217.239,177.181 210.511,170.452 202.239,170.452 Z M202.239,202.452 C192.865,202.452 185.239,194.826 185.239,185.452 C185.239,176.078 192.865,168.452 202.239,168.452 C211.613,168.452 219.239,176.078 219.239,185.452 C219.239,194.826 211.613,202.452 202.239,202.452 Z"/>
    <path fill="#42494E" d="M202.239,182.452 C200.585,182.452 199.239,183.798 199.239,185.452 C199.239,187.107 200.585,188.452 202.239,188.452 C203.893,188.452 205.239,187.107 205.239,185.452 C205.239,183.798 203.893,182.452 202.239,182.452 Z M202.239,190.452 C199.482,190.452 197.239,188.209 197.239,185.452 C197.239,182.696 199.482,180.452 202.239,180.452 C204.996,180.452 207.239,182.696 207.239,185.452 C207.239,188.209 204.996,190.452 202.239,190.452 Z M202.239,178.452 C198.38,178.452 195.239,181.593 195.239,185.452 C195.239,189.312 198.38,192.452 202.239,192.452 C206.099,192.452 209.239,189.312 209.239,185.452 C209.239,181.593 206.099,178.452 202.239,178.452 Z M202.239,194.452 C197.276,194.452 193.239,190.415 193.239,185.452 C193.239,180.49 197.276,176.452 202.239,176.452 C207.202,176.452 211.239,180.49 211.239,185.452 C211.239,190.415 207.202,194.452 202.239,194.452 Z"/>
    <path fill="#E9886C" d="M202.239,181.452 C200.03,181.452 198.239,183.243 198.239,185.452 C198.239,187.661 200.03,189.452 202.239,189.452 C204.448,189.452 206.239,187.661 206.239,185.452 C206.239,183.243 204.448,181.452 202.239,181.452"/>
    <path fill="#E9886C" d="M202.239,182.452 C200.585,182.452 199.239,183.798 199.239,185.452 C199.239,187.107 200.585,188.452 202.239,188.452 C203.893,188.452 205.239,187.107 205.239,185.452 C205.239,183.798 203.893,182.452 202.239,182.452 Z M202.239,190.452 C199.482,190.452 197.239,188.209 197.239,185.452 C197.239,182.696 199.482,180.452 202.239,180.452 C204.996,180.452 207.239,182.696 207.239,185.452 C207.239,188.209 204.996,190.452 202.239,190.452 Z"/>
    <polygon fill="#42494E" points="175.241 186.452 202.239 186.452 202.239 184.452 175.241 184.452"/>
    <path fill="#42494E" d="M168.654 188.452L171.826 188.452 174.826 185.452 171.826 182.452 168.654 182.452 171.654 185.452 168.654 188.452zM172.654 190.452L163.826 190.452 168.826 185.452 163.826 180.452 172.654 180.452 177.654 185.452 172.654 190.452zM34.026 188.514C32.372 188.514 31.026 189.86 31.026 191.514 31.026 193.169 32.372 194.514 34.026 194.514L109.203 194.514 115.71 191.514 109.203 188.514 34.026 188.514zM109.642 196.514L34.026 196.514C31.269 196.514 29.026 194.271 29.026 191.514 29.026 188.758 31.269 186.514 34.026 186.514L109.642 186.514 120.485 191.514 109.642 196.514z"/>
    <polygon fill="#42494E" points="39.636 195.514 41.636 195.514 41.636 187.916 39.636 187.916"/>
    <polygon fill="#42494E" points="40.636 192.486 108.654 192.486 108.654 190.486 40.636 190.486"/>
    <path fill="#434A4F" d="M181.158,75.735 L179.158,75.735 L179.158,74.877 L155.146,50.866 L155.146,75.735 L153.146,75.735 L153.146,49.464 C153.146,48.912 153.594,48.464 154.146,48.464 L155.158,48.464 C155.424,48.464 155.678,48.57 155.865,48.757 L180.865,73.756 C181.053,73.943 181.158,74.197 181.158,74.463 L181.158,75.735"/>
    <polyline fill="#434A4F" points="107.404 48.433 70.184 48.433 70.184 69.442 72.184 69.442 72.184 50.433 108.23 50.433 107.404 48.433"/>
    <polyline fill="#434A4F" points="154.56 48.433 127.286 48.433 123.953 50.433 153.732 50.433 179.16 75.827 179.16 92.463 181.16 92.463 181.16 74.998 154.56 48.433"/>
    <path fill="#434A4F" d="M103.682,36.797 L114.133,62.106 L118.605,53.111 L126.992,61.498 L128.407,60.084 L119.976,51.653 L127.63,47.061 L103.682,36.797 Z M113.965,66.937 L99.961,33.027 L132.013,46.763 L123.201,52.05 L131.235,60.084 L126.992,64.326 L119.158,56.491 L113.965,66.937 Z"/>
    <polygon fill="#434A4F" points="47.153 158.458 49.153 158.458 49.153 154.458 47.153 154.458"/>
    <polygon fill="#434A4F" points="47.153 168.458 49.153 168.458 49.153 164.458 47.153 164.458"/>
    <polygon fill="#434A4F" points="51.153 162.458 55.153 162.458 55.153 160.458 51.153 160.458"/>
    <polygon fill="#434A4F" points="41.153 162.458 45.153 162.458 45.153 160.458 41.153 160.458"/>
    <polygon fill="#434A4F" points="199.244 90.417 201.244 90.417 201.244 86.417 199.244 86.417"/>
    <polygon fill="#434A4F" points="199.244 100.417 201.244 100.417 201.244 96.417 199.244 96.417"/>
    <polygon fill="#434A4F" points="203.244 94.417 207.244 94.417 207.244 92.417 203.244 92.417"/>
    <polygon fill="#434A4F" points="193.244 94.417 197.244 94.417 197.244 92.417 193.244 92.417"/>
    <path fill="#434A4F" d="M139.277,200.434 L72.184,200.434 L72.184,161.457 L70.184,161.457 L70.184,201.434 C70.184,201.987 70.631,202.434 71.184,202.434 L141.277,202.434 L139.277,200.434"/>
    <path fill="#42494E" d="M153.664,207.092 C154.183,207.113 154.788,207.339 155.225,207.664 L162.899,199.991 L162.886,199.978 C162.766,199.856 162.678,199.718 162.592,199.524 C161.13,196.219 159.121,193.275 156.622,190.776 L152.913,187.066 C152.536,186.689 151.946,186.611 151.572,186.886 C151.331,187.065 151.186,187.322 151.165,187.609 C151.148,187.832 151.208,188.053 151.332,188.239 L152.405,189.341 L150.982,190.746 L150.047,189.811 C149.96,189.723 149.879,189.632 149.804,189.536 L149.219,188.935 C148.831,188.549 148.216,188.493 147.826,188.815 C147.594,189.007 147.446,189.299 147.432,189.595 C147.425,189.732 147.443,189.991 147.64,190.189 L149.589,192.138 L148.175,193.552 L146.352,191.73 C146.007,191.384 145.487,191.281 145.117,191.488 C144.814,191.657 144.612,191.954 144.564,192.302 C144.52,192.623 144.615,192.928 144.824,193.137 L146.707,195.02 L145.293,196.434 L136.882,188.023 C136.524,187.666 135.981,187.565 135.592,187.788 C135.189,188.016 135.087,188.36 135.062,188.545 C135.019,188.858 135.123,189.166 135.347,189.388 L145.891,199.934 L144.477,201.348 L141.695,198.567 C140.939,197.811 139.623,197.811 138.867,198.567 L138.845,198.589 L144.466,204.21 C145.703,205.447 147.339,206.254 149.071,206.484 L153.664,207.092 Z M155.242,210.475 L154.05,209.283 C153.969,209.203 153.7,209.092 153.586,209.091 L153.454,209.082 L148.808,208.466 C146.642,208.179 144.599,207.17 143.052,205.624 L136.016,198.589 L137.453,197.152 C137.958,196.648 138.573,196.295 139.245,196.115 L133.933,190.803 C133.264,190.135 132.953,189.214 133.08,188.276 C133.208,187.338 133.763,186.526 134.604,186.049 C135.78,185.383 137.3,185.612 138.296,186.609 L142.838,191.151 C143.106,190.562 143.556,190.07 144.139,189.743 C144.544,189.516 144.99,189.398 145.441,189.383 C145.513,188.564 145.914,187.801 146.553,187.273 C147.329,186.633 148.375,186.465 149.315,186.742 C149.509,186.164 149.878,185.652 150.383,185.278 C151.552,184.414 153.248,184.573 154.327,185.652 L158.036,189.362 C160.697,192.023 162.837,195.151 164.397,198.661 L165.727,199.991 L155.242,210.475 Z"/>
    <path fill="#42494E" d="M158.644,216.973 L154.401,212.731 C153.232,211.561 153.232,209.658 154.401,208.489 L164.302,198.589 C165.432,197.457 167.41,197.454 168.544,198.589 L172.786,202.832 L171.372,204.246 L167.13,200.003 C166.75,199.625 166.093,199.626 165.717,200.003 L155.815,209.903 C155.426,210.292 155.426,210.927 155.816,211.318 L160.058,215.559 L158.644,216.973"/>
    <path fill="#434A4F" d="M135.983 184.388C135.431 184.388 134.983 183.941 134.983 183.388L134.983 181.39C134.983 180.838 135.431 180.39 135.983 180.39 136.536 180.39 136.983 180.838 136.983 181.39L136.983 183.388C136.983 183.941 136.536 184.388 135.983 184.388M130.981 189.39L128.983 189.39C128.431 189.39 127.983 188.942 127.983 188.39 127.983 187.838 128.431 187.39 128.983 187.39L130.981 187.39C131.534 187.39 131.981 187.838 131.981 188.39 131.981 188.942 131.534 189.39 130.981 189.39M139.805 185.568C139.549 185.568 139.293 185.47 139.098 185.275 138.707 184.884 138.707 184.251 139.098 183.861L140.225 182.733C140.616 182.343 141.249 182.343 141.64 182.733 142.03 183.124 142.03 183.757 141.64 184.147L140.512 185.275C140.316 185.47 140.06 185.568 139.805 185.568M131.033 194.34C130.777 194.34 130.521 194.242 130.326 194.047 129.935 193.656 129.935 193.023 130.326 192.633L131.348 191.611C131.738 191.22 132.371 191.22 132.762 191.61 133.152 192.001 133.152 192.634 132.762 193.025L131.74 194.047C131.545 194.242 131.289 194.34 131.033 194.34M132.358 185.765C132.102 185.765 131.847 185.667 131.651 185.472L130.326 184.147C129.935 183.757 129.935 183.124 130.326 182.733 130.717 182.343 131.35 182.343 131.74 182.733L133.065 184.058C133.456 184.448 133.456 185.081 133.065 185.472 132.87 185.667 132.614 185.765 132.358 185.765"/>
    <path fill="#75C7D0" d="M198.492 55.13C198.492 56.603 197.298 57.797 195.826 57.797 194.353 57.797 193.159 56.603 193.159 55.13 193.159 53.658 194.353 52.464 195.826 52.464 197.298 52.464 198.492 53.658 198.492 55.13M34.826 137.964C34.826 139.528 33.557 140.797 31.992 140.797 30.428 140.797 29.159 139.528 29.159 137.964 29.159 136.399 30.428 135.13 31.992 135.13 33.557 135.13 34.826 136.399 34.826 137.964"/>
    <path fill="#FACD60" d="M57.161,50.47 C57.161,52.311 55.669,53.803 53.828,53.803 C51.987,53.803 50.495,52.311 50.495,50.47 C50.495,48.629 51.987,47.136 53.828,47.136 C55.669,47.136 57.161,48.629 57.161,50.47"/>
    <path fill="#FACD60" d="M53.828,47.637 C52.265,47.637 50.995,48.908 50.995,50.469 C50.995,52.032 52.265,53.303 53.828,53.303 C55.39,53.303 56.661,52.032 56.661,50.469 C56.661,48.908 55.39,47.637 53.828,47.637 Z M53.828,54.303 C51.715,54.303 49.995,52.583 49.995,50.469 C49.995,48.356 51.715,46.636 53.828,46.636 C55.941,46.636 57.661,48.356 57.661,50.469 C57.661,52.583 55.941,54.303 53.828,54.303 Z"/>
    <polygon fill="#434A4F" points="62.162 204.485 64.162 204.485 64.162 200.485 62.162 200.485"/>
    <polygon fill="#434A4F" points="62.162 214.485 64.162 214.485 64.162 210.485 62.162 210.485"/>
    <polygon fill="#434A4F" points="66.162 208.485 70.162 208.485 70.162 206.485 66.162 206.485"/>
    <polygon fill="#434A4F" points="56.162 208.485 60.162 208.485 60.162 206.485 56.162 206.485"/>
    <path fill="#42494E" d="M188.794,158.882 L186.891,158.261 L187.191,157.343 L186.02,156.961 C184.532,156.476 183.572,155.151 183.574,153.586 C183.575,152.021 184.538,150.699 186.027,150.218 L187.199,149.838 L186.56,147.866 L185.388,148.245 C183.903,148.728 182.345,148.221 181.426,146.954 C180.507,145.687 180.509,144.051 181.43,142.786 L182.155,141.79 L180.479,140.57 L179.755,141.566 C178.834,142.831 177.28,143.334 175.79,142.85 C174.302,142.365 173.342,141.041 173.343,139.476 L173.344,138.244 L171.271,138.242 L171.27,139.474 C171.268,141.039 170.306,142.362 168.816,142.844 C167.33,143.323 165.771,142.818 164.854,141.552 L164.132,140.554 L162.453,141.771 L163.177,142.767 C164.096,144.035 164.094,145.671 163.173,146.936 C162.252,148.201 160.695,148.705 159.208,148.219 L158.036,147.838 L157.737,148.757 L155.835,148.137 L156.755,145.317 L159.827,146.318 C160.614,146.574 161.236,146.197 161.556,145.759 C161.875,145.32 162.044,144.612 161.558,143.942 L159.66,141.325 L164.577,137.761 L166.474,140.378 C166.96,141.048 167.684,141.108 168.201,140.941 C168.717,140.773 169.269,140.3 169.27,139.472 L169.273,136.24 L175.346,136.246 L175.343,139.478 C175.342,140.306 175.893,140.781 176.41,140.948 C176.922,141.115 177.649,141.059 178.138,140.389 L180.04,137.776 L184.948,141.35 L183.047,143.963 C182.559,144.633 182.726,145.341 183.045,145.78 C183.363,146.219 183.986,146.597 184.771,146.343 L187.848,145.347 L189.719,151.125 L186.642,152.12 C185.855,152.375 185.574,153.046 185.574,153.588 C185.573,154.131 185.853,154.802 186.64,155.059 L189.713,156.061 L188.794,158.882"/>
    <path fill="#42494E" d="M180.02,156.094 L178.118,155.474 C179.165,152.263 177.404,148.798 174.192,147.75 C170.974,146.7 167.515,148.466 166.468,151.677 L164.565,151.056 C165.956,146.796 170.557,144.459 174.811,145.849 C179.072,147.238 181.408,151.834 180.02,156.094"/>
    <path fill="#42494E" d="M172.322,161.641 C171.475,161.641 170.624,161.507 169.795,161.237 C165.534,159.847 163.199,155.251 164.587,150.99 L166.489,151.611 C165.442,154.823 167.203,158.287 170.415,159.335 C171.972,159.843 173.631,159.713 175.09,158.972 C176.549,158.231 177.632,156.966 178.139,155.409 L180.041,156.03 C179.368,158.093 177.932,159.772 175.996,160.755 C174.838,161.344 173.585,161.641 172.322,161.641"/>
    <path fill="#42494E" d="M175.332 170.845L169.26 170.839 169.263 167.607C169.264 166.78 168.713 166.305 168.196 166.136 167.683 165.968 166.956 166.027 166.469 166.696L164.566 169.309 159.656 165.734 161.559 163.121C162.047 162.452 161.88 161.744 161.561 161.305 161.242 160.865 160.621 160.487 159.834 160.741L156.759 161.737 154.89 155.96 157.964 154.965C158.751 154.709 159.032 154.039 159.033 153.496 159.033 152.953 158.754 152.282 157.967 152.025L154.894 151.023 155.925 147.861 157.827 148.48 157.416 149.742 158.587 150.124C160.074 150.609 161.034 151.933 161.033 153.498 161.031 155.063 160.068 156.385 158.579 156.867L157.407 157.247 158.046 159.219 159.219 158.839C160.709 158.356 162.264 158.865 163.181 160.131 164.1 161.398 164.098 163.034 163.177 164.299L162.451 165.295 164.127 166.515 164.851 165.519C165.773 164.255 167.329 163.751 168.816 164.235 170.305 164.72 171.265 166.045 171.263 167.609L171.262 168.841 173.334 168.844 173.336 167.611C173.337 166.047 174.3 164.725 175.788 164.242 177.276 163.759 178.831 164.267 179.751 165.534L180.475 166.532 182.152 165.316 181.43 164.318C180.511 163.052 180.513 161.415 181.434 160.151 182.353 158.885 183.911 158.38 185.399 158.867L186.57 159.249 187.026 157.848 188.929 158.468 187.851 161.77 184.779 160.768C183.992 160.513 183.371 160.889 183.051 161.328 182.731 161.766 182.563 162.474 183.049 163.144L184.945 165.761 180.029 169.325 178.132 166.708C177.644 166.037 176.918 165.979 176.404 166.145 175.889 166.312 175.337 166.786 175.336 167.614L175.332 170.845M43.993 101.94C42.591 99.18 42.347 96.04 43.306 93.097 44.265 90.154 46.314 87.76 49.073 86.358 54.768 83.463 61.759 85.741 64.655 91.438L62.872 92.344C60.475 87.631 54.693 85.745 49.979 88.141 47.696 89.301 46.002 91.281 45.208 93.717 44.414 96.152 44.616 98.75 45.776 101.033L43.993 101.94"/>
    <path fill="#E9886C" d="M54.301,93.143 C53.366,93.143 52.487,93.507 51.826,94.168 C51.165,94.829 50.801,95.708 50.801,96.643 C50.801,97.578 51.165,98.457 51.826,99.118 C53.148,100.441 55.453,100.441 56.775,99.118 C57.436,98.457 57.801,97.578 57.801,96.643 C57.801,95.708 57.436,94.829 56.775,94.169 L56.775,94.168 C56.114,93.507 55.235,93.143 54.301,93.143 Z M54.301,103.143 C52.564,103.143 50.933,102.467 49.705,101.24 C48.477,100.012 47.801,98.38 47.801,96.643 C47.801,94.907 48.477,93.275 49.705,92.047 C50.933,90.82 52.564,90.143 54.301,90.143 C56.037,90.143 57.669,90.819 58.896,92.047 C60.125,93.275 60.801,94.907 60.801,96.643 C60.801,98.38 60.124,100.012 58.896,101.24 C57.669,102.467 56.037,103.143 54.301,103.143 Z"/>
    <path fill="#434A4F" d="M50.771,113.565 C51.031,113.565 51.295,113.586 51.56,113.628 C53.645,113.96 55.204,115.522 55.532,117.607 L55.891,119.895 L59.893,119.265 L59.533,116.978 C59.206,114.893 60.21,112.928 62.091,111.972 C63.973,111.015 66.151,111.364 67.641,112.857 L69.277,114.496 L72.145,111.635 L70.509,109.996 C69.018,108.502 68.676,106.323 69.636,104.443 C70.596,102.563 72.568,101.562 74.646,101.897 L76.934,102.261 L77.571,98.261 L75.285,97.896 C73.2,97.564 71.643,96.002 71.314,93.917 C70.986,91.832 71.99,89.867 73.872,88.911 L75.936,87.862 L74.146,84.341 L72.082,85.391 C70.199,86.346 68.021,85.999 66.531,84.506 C65.041,83.012 64.697,80.833 65.657,78.953 L66.71,76.89 L63.103,75.048 L62.05,77.111 C61.09,78.99 59.127,79.99 57.039,79.658 C54.954,79.325 53.395,77.764 53.067,75.679 L52.708,73.391 L48.707,74.021 L49.067,76.309 C49.394,78.394 48.39,80.359 46.51,81.315 C44.627,82.271 42.448,81.924 40.958,80.43 L39.322,78.791 L36.455,81.652 L38.092,83.291 C39.582,84.785 39.926,86.965 38.966,88.844 C38.006,90.724 36.039,91.725 33.955,91.391 L31.667,91.027 L31.029,95.027 L33.316,95.391 C35.4,95.723 36.959,97.285 37.287,99.369 C37.615,101.454 36.612,103.42 34.73,104.376 L32.666,105.426 L34.454,108.944 L36.518,107.894 C38.401,106.938 40.58,107.286 42.07,108.78 C43.56,110.274 43.903,112.453 42.943,114.332 L41.889,116.395 L45.497,118.238 L46.551,116.175 C47.388,114.535 48.992,113.565 50.771,113.565 Z M54.227,122.181 L53.556,117.918 C53.324,116.446 52.211,115.757 51.246,115.603 C50.287,115.45 49.01,115.758 48.332,117.084 L46.368,120.928 L39.198,117.266 L41.162,113.422 C41.84,112.095 41.345,110.884 40.654,110.193 C39.965,109.501 38.755,108.999 37.425,109.677 L33.577,111.632 L29.976,104.549 L33.824,102.593 C35.152,101.918 35.464,100.646 35.311,99.68 C35.16,98.716 34.474,97.601 33.002,97.366 L28.74,96.687 L30.007,88.737 L34.269,89.416 C35.73,89.649 36.739,88.804 37.185,87.934 C37.629,87.064 37.728,85.759 36.676,84.704 L33.627,81.649 L39.326,75.963 L42.374,79.017 C43.427,80.072 44.732,79.974 45.603,79.532 C46.474,79.089 47.323,78.092 47.091,76.619 L46.42,72.356 L54.372,71.104 L55.044,75.368 C55.275,76.84 56.389,77.529 57.353,77.683 C58.327,77.838 59.592,77.527 60.268,76.201 L62.232,72.357 L69.401,76.019 L67.438,79.862 C66.761,81.19 67.257,82.402 67.947,83.093 C68.637,83.784 69.846,84.283 71.176,83.608 L75.023,81.652 L78.626,88.739 L74.778,90.695 C73.449,91.369 73.139,92.641 73.29,93.606 C73.442,94.572 74.128,95.687 75.6,95.922 L79.862,96.601 L78.594,104.551 L74.332,103.871 C72.85,103.638 71.86,104.484 71.416,105.353 C70.972,106.223 70.872,107.529 71.925,108.583 L74.974,111.638 L69.275,117.324 L66.225,114.27 C65.172,113.213 63.867,113.313 62.997,113.755 C62.126,114.198 61.277,115.195 61.51,116.667 L62.181,120.93 L54.227,122.181 Z"/>
    <path fill="#434A4F" d="M52.319,82.743 C52.279,82.194 52.699,81.714 53.249,81.683 C53.799,81.643 54.279,82.053 54.308,82.603 C54.349,83.154 53.939,83.633 53.389,83.674 C53.359,83.674 53.339,83.674 53.319,83.674 C52.789,83.674 52.359,83.274 52.319,82.743 Z M57.079,83.944 C56.539,83.824 56.199,83.293 56.319,82.754 C56.429,82.214 56.969,81.873 57.509,81.993 C58.039,82.103 58.389,82.633 58.268,83.174 C58.169,83.643 57.749,83.964 57.289,83.964 C57.219,83.964 57.149,83.964 57.079,83.944 Z M48.478,83.863 C48.289,83.343 48.559,82.774 49.069,82.583 C49.589,82.383 50.169,82.654 50.359,83.174 C50.549,83.683 50.289,84.263 49.768,84.453 C49.659,84.493 49.539,84.513 49.419,84.513 C49.009,84.513 48.629,84.263 48.478,83.863 Z M60.549,85.234 C60.058,84.973 59.889,84.363 60.149,83.883 C60.419,83.393 61.018,83.223 61.509,83.484 C61.989,83.754 62.169,84.353 61.899,84.843 C61.719,85.174 61.379,85.363 61.029,85.363 C60.859,85.363 60.699,85.324 60.549,85.234 Z M45.119,86.024 C44.789,85.583 44.879,84.953 45.319,84.623 C45.759,84.293 46.389,84.383 46.719,84.824 C47.049,85.263 46.959,85.893 46.518,86.223 C46.339,86.363 46.129,86.424 45.919,86.424 C45.619,86.424 45.319,86.283 45.119,86.024 Z M63.489,87.453 C63.098,87.063 63.098,86.424 63.489,86.033 C63.879,85.643 64.518,85.643 64.909,86.033 C65.299,86.424 65.299,87.063 64.909,87.453 C64.709,87.643 64.459,87.743 64.199,87.743 C63.939,87.743 63.689,87.643 63.489,87.453 Z M42.499,89.043 C42.059,88.703 41.969,88.083 42.299,87.643 C42.629,87.203 43.259,87.113 43.699,87.444 C44.139,87.774 44.228,88.404 43.899,88.843 C43.699,89.103 43.399,89.243 43.099,89.243 C42.889,89.243 42.679,89.174 42.499,89.043 Z M65.709,90.413 L65.719,90.413 C65.449,89.933 65.629,89.324 66.109,89.053 C66.598,88.793 67.209,88.973 67.469,89.453 C67.739,89.933 67.559,90.543 67.069,90.813 C66.919,90.893 66.749,90.933 66.589,90.933 C66.239,90.933 65.889,90.743 65.709,90.413 Z M40.839,92.674 C40.319,92.473 40.049,91.904 40.249,91.383 C40.439,90.873 41.018,90.603 41.529,90.803 C42.049,90.993 42.308,91.574 42.119,92.083 C41.969,92.484 41.589,92.734 41.179,92.734 C41.069,92.734 40.949,92.714 40.839,92.674 Z M66.999,93.883 C66.889,93.343 67.228,92.803 67.768,92.694 C68.309,92.574 68.839,92.913 68.959,93.453 C69.079,93.993 68.728,94.533 68.189,94.643 C68.119,94.663 68.049,94.674 67.978,94.674 C67.518,94.674 67.109,94.353 66.999,93.883 Z M40.259,96.633 C39.709,96.583 39.299,96.113 39.339,95.563 C39.379,95.004 39.859,94.593 40.409,94.633 C40.959,94.674 41.369,95.154 41.329,95.703 L41.339,95.703 C41.299,96.234 40.859,96.633 40.339,96.633 C40.309,96.633 40.289,96.633 40.259,96.633 Z M68.189,98.643 C67.639,98.603 67.228,98.123 67.268,97.574 C67.309,97.024 67.779,96.603 68.339,96.643 C68.889,96.683 69.299,97.163 69.259,97.714 C69.219,98.243 68.789,98.643 68.259,98.643 C68.239,98.643 68.219,98.643 68.189,98.643 Z M39.639,99.824 C39.518,99.283 39.859,98.743 40.399,98.633 C40.939,98.513 41.478,98.853 41.589,99.393 C41.709,99.933 41.369,100.473 40.829,100.583 C40.759,100.603 40.679,100.603 40.609,100.603 C40.149,100.603 39.739,100.283 39.639,99.824 Z M67.069,102.473 C66.549,102.283 66.289,101.714 66.478,101.194 C66.669,100.674 67.249,100.413 67.768,100.603 C68.279,100.793 68.549,101.373 68.349,101.893 C68.349,101.893 68.349,101.893 68.359,101.893 C68.209,102.293 67.819,102.543 67.419,102.543 C67.299,102.543 67.179,102.524 67.069,102.473 Z M41.129,103.823 C40.859,103.333 41.039,102.734 41.529,102.464 C42.009,102.203 42.619,102.384 42.879,102.864 C43.149,103.353 42.969,103.953 42.478,104.223 C42.329,104.303 42.169,104.344 42.009,104.344 C41.649,104.344 41.309,104.154 41.129,103.823 Z M64.899,105.833 C64.469,105.504 64.369,104.884 64.709,104.433 C65.039,103.993 65.669,103.904 66.109,104.234 C66.549,104.573 66.639,105.194 66.309,105.634 C66.109,105.904 65.809,106.033 65.499,106.033 C65.299,106.033 65.079,105.973 64.899,105.833 Z M43.689,107.243 C43.299,106.853 43.299,106.214 43.689,105.823 C44.079,105.433 44.709,105.433 45.098,105.833 C45.489,106.214 45.489,106.853 45.098,107.243 C44.899,107.433 44.649,107.533 44.389,107.533 C44.139,107.533 43.879,107.433 43.689,107.243 Z M61.889,108.453 C61.549,108.013 61.649,107.384 62.089,107.053 C62.529,106.723 63.159,106.813 63.489,107.254 C63.819,107.703 63.728,108.323 63.289,108.654 C63.109,108.793 62.889,108.853 62.689,108.853 C62.379,108.853 62.079,108.714 61.889,108.453 Z M47.098,109.803 C46.619,109.543 46.439,108.933 46.699,108.444 C46.969,107.964 47.579,107.783 48.058,108.053 C48.549,108.313 48.719,108.924 48.459,109.413 C48.279,109.743 47.929,109.933 47.579,109.933 C47.419,109.933 47.249,109.893 47.098,109.803 Z M58.249,110.114 C58.058,109.594 58.319,109.024 58.839,108.833 C59.359,108.634 59.929,108.904 60.119,109.413 C60.319,109.933 60.049,110.513 59.539,110.703 C59.419,110.743 59.299,110.763 59.189,110.763 C58.779,110.763 58.399,110.513 58.249,110.114 Z M51.098,111.303 C50.558,111.183 50.219,110.654 50.339,110.114 C50.449,109.573 50.989,109.234 51.529,109.344 C52.069,109.464 52.409,109.993 52.289,110.533 C52.189,111.004 51.779,111.323 51.319,111.323 C51.249,111.323 51.179,111.313 51.098,111.303 Z M54.289,110.674 C54.249,110.123 54.669,109.654 55.219,109.614 C55.768,109.573 56.249,109.984 56.289,110.533 C56.329,111.083 55.909,111.563 55.359,111.603 C55.339,111.603 55.309,111.603 55.289,111.603 C54.768,111.603 54.329,111.203 54.289,110.674 Z"/>
    <path fill="#42494E" d="M155.297,116.175 C151.07,116.175 146.99,113.857 144.947,109.838 L146.73,108.932 C149.125,113.645 154.909,115.53 159.623,113.135 C164.336,110.74 166.222,104.956 163.826,100.242 L165.609,99.336 C168.504,105.032 166.225,112.023 160.529,114.918 C158.851,115.77 157.061,116.174 155.297,116.175"/>
    <path fill="#E9886C" d="M152.826,107.108 C154.148,108.429 156.454,108.431 157.776,107.108 C158.437,106.447 158.802,105.568 158.802,104.633 C158.802,103.698 158.437,102.819 157.776,102.158 C156.454,100.835 154.148,100.836 152.826,102.158 C151.462,103.522 151.462,105.743 152.826,107.108 Z M155.302,111.133 C153.565,111.133 151.933,110.457 150.705,109.229 C148.171,106.694 148.171,102.571 150.705,100.037 C151.933,98.809 153.565,98.133 155.302,98.133 C157.038,98.133 158.67,98.809 159.897,100.037 C161.125,101.264 161.802,102.896 161.802,104.633 C161.802,106.369 161.125,108.001 159.897,109.229 C158.67,110.456 157.038,111.133 155.302,111.133 Z"/>
    <path fill="#434A4F" d="M151.774,121.555 C152.034,121.555 152.297,121.576 152.562,121.618 C154.647,121.95 156.206,123.511 156.535,125.596 L156.894,127.885 L160.895,127.255 L160.535,124.967 C160.208,122.882 161.211,120.917 163.093,119.961 C164.974,119.005 167.152,119.352 168.643,120.846 L170.279,122.485 L173.146,119.624 L171.511,117.984 C170.02,116.491 169.677,114.311 170.637,112.432 C171.597,110.552 173.566,109.554 175.647,109.885 L177.934,110.249 L178.572,106.249 L176.286,105.885 C174.201,105.552 172.642,103.991 172.314,101.906 C171.986,99.821 172.99,97.856 174.871,96.9 L176.935,95.85 L175.148,92.333 L173.084,93.382 C171.203,94.338 169.024,93.991 167.532,92.496 C166.042,91.003 165.699,88.823 166.659,86.944 L167.712,84.881 L164.105,83.038 L163.052,85.101 C162.092,86.981 160.12,87.979 158.04,87.648 C155.956,87.315 154.397,85.754 154.069,83.669 L153.71,81.381 L149.709,82.01 L150.069,84.299 C150.396,86.383 149.393,88.347 147.512,89.304 C145.63,90.26 143.451,89.912 141.96,88.419 L140.324,86.779 L137.457,89.641 L139.094,91.28 C140.584,92.774 140.927,94.954 139.967,96.833 C139.007,98.712 137.041,99.713 134.956,99.38 L132.668,99.015 L132.03,103.015 L134.317,103.38 C136.401,103.712 137.96,105.274 138.287,107.358 C138.615,109.443 137.612,111.408 135.73,112.365 L133.666,113.414 L135.456,116.935 L137.52,115.885 C139.402,114.928 141.58,115.277 143.071,116.77 C144.561,118.263 144.905,120.443 143.945,122.323 L142.891,124.385 L146.499,126.228 L147.553,124.165 C148.391,122.525 149.994,121.555 151.774,121.555 Z M155.228,130.172 L154.558,125.907 C154.327,124.436 153.213,123.747 152.248,123.593 C151.288,123.438 150.012,123.747 149.334,125.074 L147.37,128.919 L140.2,125.257 L142.164,121.413 C142.842,120.086 142.346,118.874 141.655,118.183 C140.966,117.491 139.754,116.993 138.427,117.669 L134.579,119.624 L130.976,112.537 L134.824,110.581 C136.152,109.906 136.464,108.635 136.311,107.669 C136.16,106.704 135.474,105.59 134.003,105.355 L129.739,104.675 L131.008,96.725 L135.27,97.405 C136.731,97.636 137.74,96.794 138.185,95.923 C138.63,95.053 138.73,93.747 137.678,92.693 L134.629,89.638 L140.328,83.951 L143.376,87.007 C144.428,88.061 145.735,87.964 146.605,87.521 C147.476,87.078 148.325,86.081 148.093,84.609 L147.422,80.345 L155.376,79.094 L156.046,83.358 C156.277,84.83 157.391,85.519 158.355,85.673 C159.317,85.826 160.594,85.518 161.27,84.191 L163.234,80.348 L170.403,84.01 L168.44,87.853 C167.763,89.18 168.258,90.392 168.948,91.084 C169.638,91.775 170.85,92.274 172.178,91.598 L176.025,89.643 L179.625,96.727 L175.777,98.683 C174.449,99.358 174.139,100.63 174.29,101.595 C174.442,102.56 175.129,103.675 176.6,103.91 L180.863,104.589 L179.595,112.539 L175.333,111.86 C173.869,111.627 172.862,112.471 172.418,113.342 C171.974,114.212 171.874,115.517 172.927,116.572 L175.975,119.627 L170.277,125.313 L167.227,122.259 C166.175,121.204 164.869,121.302 163.999,121.744 C163.128,122.187 162.279,123.184 162.512,124.656 L163.183,128.92 L155.228,130.172 Z"/>
    <path fill="#434A4F" d="M153.308,90.734 C153.268,90.183 153.689,89.714 154.239,89.674 C154.789,89.633 155.268,90.043 155.308,90.593 C155.339,91.143 154.929,91.623 154.379,91.663 C154.349,91.663 154.329,91.663 154.308,91.663 C153.789,91.663 153.349,91.263 153.308,90.734 Z M158.069,91.933 C157.529,91.813 157.189,91.274 157.308,90.743 C157.429,90.203 157.959,89.853 158.499,89.973 C159.039,90.093 159.379,90.623 159.259,91.163 C159.159,91.633 158.749,91.953 158.289,91.953 C158.219,91.953 158.139,91.944 158.069,91.933 Z M149.478,91.853 C149.279,91.343 149.549,90.763 150.058,90.574 C150.579,90.383 151.159,90.643 151.349,91.163 C151.539,91.683 151.279,92.254 150.759,92.444 C150.649,92.493 150.529,92.513 150.409,92.513 C150.009,92.513 149.629,92.263 149.478,91.853 Z M161.539,93.223 C161.058,92.953 160.879,92.353 161.139,91.863 C161.409,91.383 162.009,91.203 162.499,91.473 C162.499,91.473 162.499,91.473 162.499,91.464 C162.978,91.734 163.159,92.343 162.899,92.824 C162.709,93.154 162.369,93.343 162.018,93.343 C161.849,93.343 161.689,93.303 161.539,93.223 Z M146.109,94.024 C145.779,93.583 145.869,92.953 146.308,92.623 C146.749,92.293 147.379,92.373 147.709,92.824 C148.049,93.263 147.949,93.883 147.518,94.223 L147.509,94.223 C147.329,94.353 147.119,94.424 146.909,94.424 C146.609,94.424 146.308,94.283 146.109,94.024 Z M164.499,95.444 C164.109,95.053 164.109,94.424 164.499,94.033 C164.889,93.643 165.518,93.643 165.919,94.033 C166.299,94.424 166.299,95.053 165.909,95.444 C165.719,95.643 165.459,95.734 165.209,95.734 C164.949,95.734 164.689,95.643 164.499,95.444 Z M143.489,97.043 C143.049,96.703 142.959,96.083 143.299,95.633 C143.629,95.194 144.249,95.113 144.689,95.444 C145.139,95.774 145.219,96.404 144.889,96.843 C144.699,97.103 144.399,97.243 144.089,97.243 C143.879,97.243 143.669,97.174 143.489,97.043 Z M166.719,98.413 C166.449,97.924 166.629,97.313 167.119,97.053 C167.599,96.783 168.209,96.964 168.469,97.453 C168.739,97.933 168.558,98.543 168.079,98.803 C167.919,98.893 167.759,98.933 167.599,98.933 C167.239,98.933 166.899,98.743 166.719,98.413 Z M141.829,100.674 C141.308,100.484 141.049,99.904 141.249,99.383 C141.439,98.873 142.009,98.603 142.529,98.793 C143.049,98.993 143.308,99.563 143.119,100.083 C142.969,100.484 142.589,100.734 142.179,100.734 C142.058,100.734 141.949,100.714 141.829,100.674 Z M168.009,101.873 C167.889,101.333 168.228,100.803 168.768,100.694 C169.308,100.573 169.849,100.913 169.959,101.453 C170.079,101.993 169.728,102.524 169.199,102.643 C169.129,102.663 169.058,102.663 168.989,102.663 C168.518,102.663 168.109,102.344 168.009,101.873 Z M141.268,104.623 C140.709,104.583 140.299,104.114 140.339,103.563 C140.379,103.013 140.859,102.594 141.409,102.634 C141.959,102.674 142.369,103.154 142.329,103.703 C142.299,104.234 141.859,104.634 141.339,104.634 C141.308,104.634 141.289,104.634 141.268,104.623 Z M169.189,106.643 C168.639,106.594 168.228,106.123 168.268,105.573 C168.308,105.024 168.789,104.603 169.339,104.643 C169.889,104.683 170.299,105.163 170.259,105.714 C170.219,106.243 169.779,106.643 169.259,106.643 C169.239,106.643 169.219,106.643 169.189,106.643 Z M140.639,107.823 C140.518,107.283 140.869,106.743 141.409,106.634 C141.949,106.513 142.478,106.853 142.599,107.393 C142.709,107.933 142.369,108.464 141.829,108.583 C141.759,108.603 141.689,108.603 141.619,108.603 C141.159,108.603 140.739,108.283 140.639,107.823 Z M168.069,110.473 C167.549,110.283 167.289,109.703 167.478,109.183 C167.669,108.674 168.249,108.404 168.768,108.603 C169.279,108.793 169.549,109.373 169.349,109.884 C169.199,110.293 168.819,110.533 168.419,110.533 C168.299,110.533 168.179,110.513 168.069,110.473 Z M142.129,111.823 C141.869,111.333 142.049,110.734 142.529,110.464 C143.009,110.203 143.619,110.384 143.889,110.864 C144.149,111.353 143.978,111.953 143.489,112.223 C143.339,112.303 143.169,112.344 143.009,112.344 C142.659,112.344 142.308,112.154 142.129,111.823 Z M165.899,113.833 C165.459,113.504 165.369,112.873 165.699,112.433 C166.029,111.993 166.659,111.904 167.099,112.234 C167.549,112.563 167.629,113.194 167.299,113.634 C167.099,113.893 166.808,114.033 166.499,114.033 C166.289,114.033 166.079,113.964 165.899,113.833 Z M144.689,115.243 C144.689,115.243 144.689,115.243 144.699,115.243 C144.299,114.853 144.299,114.214 144.689,113.823 C145.089,113.433 145.719,113.433 146.109,113.823 C146.499,114.214 146.499,114.853 146.109,115.243 C145.919,115.433 145.659,115.533 145.399,115.533 C145.149,115.533 144.889,115.433 144.689,115.243 Z M162.879,116.444 C162.549,116.004 162.639,115.384 163.079,115.043 C163.518,114.714 164.149,114.803 164.478,115.254 C164.808,115.694 164.719,116.313 164.279,116.654 C164.099,116.783 163.889,116.853 163.679,116.853 C163.379,116.853 163.079,116.714 162.879,116.444 Z M148.089,117.793 C148.089,117.793 148.089,117.793 148.099,117.793 C147.609,117.524 147.429,116.924 147.699,116.433 C147.959,115.953 148.569,115.774 149.058,116.043 C149.539,116.303 149.719,116.913 149.449,117.393 C149.268,117.734 148.929,117.913 148.569,117.913 C148.409,117.913 148.249,117.873 148.089,117.793 Z M159.239,118.103 C159.049,117.583 159.319,117.013 159.829,116.823 C160.349,116.623 160.929,116.893 161.119,117.404 C161.308,117.924 161.049,118.504 160.529,118.694 C160.409,118.734 160.299,118.754 160.179,118.754 C159.768,118.754 159.389,118.504 159.239,118.103 Z M152.099,119.283 C151.558,119.174 151.219,118.634 151.329,118.094 C151.449,117.563 151.978,117.214 152.518,117.333 C153.058,117.453 153.399,117.984 153.289,118.524 C153.179,118.993 152.768,119.313 152.308,119.313 C152.239,119.313 152.169,119.303 152.099,119.283 Z M155.289,118.674 C155.249,118.114 155.659,117.634 156.219,117.603 C156.768,117.563 157.239,117.973 157.279,118.524 C157.319,119.073 156.899,119.553 156.349,119.594 C156.329,119.594 156.308,119.594 156.279,119.594 C155.759,119.594 155.319,119.194 155.289,118.674 Z"/>
    <path fill="#FACD60" d="M221.26,81.771 C221.26,82.903 220.342,83.821 219.209,83.821 C218.077,83.821 217.159,82.903 217.159,81.771 C217.159,80.638 218.077,79.72 219.209,79.72 C220.342,79.72 221.26,80.638 221.26,81.771"/>
  </g>
</svg>
