<svg xmlns="http://www.w3.org/2000/svg" width="250" height="250" viewBox="0 0 250 250">
  <g fill="none" fill-rule="evenodd">
    <polyline fill="#DBDBD5" points="181.803 93.413 166.238 86.743 163.565 88.347 171.797 96.579 168.969 99.407 160.858 91.296 159.234 94.563 166.031 111.023 170.864 101.302 177.945 108.383 180.868 105.649 173.571 98.352 181.803 93.413"/>
    <polyline fill="#DBDBD5" points="71.251 141.034 71.251 63.115 52.298 63.115 71.251 141.034"/>
    <polyline fill="#DBDBD5" points="177.998 141.034 177.998 63.115 196.952 63.115 177.998 141.034"/>
    <path fill="#DBDBD5" d="M113.489,144.119 L105.404,147.846 L49.998,147.847 L49.998,157.181 C49.998,158.51 51.076,159.588 52.405,159.588 L196.593,159.588 C197.922,159.588 199,158.51 199,157.181 L199,144.246 L113.489,144.119"/>
    <polygon fill="#DBDBD5" points="107.745 173.9 141.591 173.9 141.591 159.76 107.745 159.76"/>
    <path fill="#DBDBD5" d="M98.134,39.628 C96.805,39.628 95.727,38.551 95.727,37.221 C95.727,35.892 96.805,34.815 98.134,34.815 C99.463,34.815 100.541,35.892 100.541,37.221 C100.541,38.551 99.463,39.628 98.134,39.628 Z M88.507,39.628 C87.178,39.628 86.1,38.551 86.1,37.221 C86.1,35.892 87.178,34.815 88.507,34.815 C89.836,34.815 90.914,35.892 90.914,37.221 C90.914,38.551 89.836,39.628 88.507,39.628 Z M78.88,39.628 C77.55,39.628 76.473,38.551 76.473,37.221 C76.473,35.892 77.55,34.815 78.88,34.815 C80.209,34.815 81.287,35.892 81.287,37.221 C81.287,38.551 80.209,39.628 78.88,39.628 Z M71.644,44.464 L177.542,44.464 L177.542,30.023 L71.644,30.023 L71.644,44.464 Z"/>
    <path fill="#42494E" d="M200.09,89.076 L198.09,89.076 L198.09,65.105 C198.09,64.33 197.459,63.699 196.684,63.699 L177.905,63.826 L177.892,61.826 L196.677,61.699 C198.562,61.699 200.09,63.227 200.09,65.105 L200.09,89.076"/>
    <polygon fill="#42494E" points="98.133 175.028 151.082 175.028 151.082 173.028 98.133 173.028"/>
    <polygon fill="#42494E" points="106.76 174.028 108.76 174.028 108.76 159.588 106.76 159.588"/>
    <polygon fill="#42494E" points="140.455 174.028 142.455 174.028 142.455 159.588 140.455 159.588"/>
    <path fill="#42494E" d="M198 140.208L198 157.181C198 157.957 197.369 158.588 196.593 158.588L52.405 158.588C51.629 158.588 50.998 157.957 50.998 157.181L50.998 147.847 48.998 147.847 48.998 157.181C48.998 159.06 50.526 160.588 52.405 160.588L196.593 160.588C198.472 160.588 200 159.06 200 157.181L200 140.208 198 140.208M50.998 139.847L50.998 65.232C50.998 64.457 51.629 63.826 52.405 63.826L70.679 63.826 70.679 61.826 52.405 61.826C50.526 61.826 48.998 63.354 48.998 65.232L48.998 139.847 50.998 139.847"/>
    <polyline fill="#42494E" points="178.558 144.324 176.558 144.324 176.558 31.003 72.659 31.003 72.659 144.324 70.659 144.324 70.659 29.003 178.558 29.003 178.558 144.324"/>
    <path fill="#42494E" d="M78.88 35.814C78.104 35.814 77.473 36.445 77.473 37.222 77.473 37.997 78.104 38.628 78.88 38.628 79.656 38.628 80.287 37.997 80.287 37.222 80.287 36.445 79.656 35.814 78.88 35.814zM78.88 40.628C77.001 40.628 75.473 39.1 75.473 37.222 75.473 35.343 77.001 33.814 78.88 33.814 80.758 33.814 82.287 35.343 82.287 37.222 82.287 39.1 80.758 40.628 78.88 40.628zM88.507 35.814C87.731 35.814 87.1 36.445 87.1 37.222 87.1 37.997 87.731 38.628 88.507 38.628 89.283 38.628 89.914 37.997 89.914 37.222 89.914 36.445 89.283 35.814 88.507 35.814zM88.507 40.628C86.628 40.628 85.1 39.1 85.1 37.222 85.1 35.343 86.628 33.814 88.507 33.814 90.385 33.814 91.914 35.343 91.914 37.222 91.914 39.1 90.385 40.628 88.507 40.628zM98.134 35.814C97.358 35.814 96.727 36.445 96.727 37.222 96.727 37.997 97.358 38.628 98.134 38.628 98.91 38.628 99.541 37.997 99.541 37.222 99.541 36.445 98.91 35.814 98.134 35.814zM98.134 40.628C96.255 40.628 94.727 39.1 94.727 37.222 94.727 35.343 96.255 33.814 98.134 33.814 100.013 33.814 101.541 35.343 101.541 37.222 101.541 39.1 100.013 40.628 98.134 40.628z"/>
    <polygon fill="#DBDBD5" points="129.019 199.032 131.019 199.032 131.019 197.032 129.019 197.032"/>
    <polygon fill="#DBDBD5" points="125.019 191.032 127.019 191.032 127.019 189.032 125.019 189.032"/>
    <polygon fill="#DBDBD5" points="125.019 207.032 127.019 207.032 127.019 205.032 125.019 205.032"/>
    <polygon fill="#DBDBD5" points="109.019 207.032 111.019 207.032 111.019 205.032 109.019 205.032"/>
    <polygon fill="#DBDBD5" points="121.019 199.032 123.019 199.032 123.019 197.032 121.019 197.032"/>
    <polygon fill="#DBDBD5" points="117.019 207.032 119.019 207.032 119.019 205.032 117.019 205.032"/>
    <polygon fill="#DBDBD5" points="113.019 199.032 115.019 199.032 115.019 197.032 113.019 197.032"/>
    <polygon fill="#DBDBD5" points="77.019 191.032 79.019 191.032 79.019 189.032 77.019 189.032"/>
    <polygon fill="#DBDBD5" points="65.019 191.032 71.019 191.032 71.019 189.032 65.019 189.032"/>
    <polygon fill="#DBDBD5" points="65.019 199.032 67.019 199.032 67.019 197.032 65.019 197.032"/>
    <polygon fill="#DBDBD5" points="85.019 191.032 87.019 191.032 87.019 189.032 85.019 189.032"/>
    <polygon fill="#DBDBD5" points="101.019 191.032 103.019 191.032 103.019 189.032 101.019 189.032"/>
    <polygon fill="#DBDBD5" points="93.019 191.032 95.019 191.032 95.019 189.032 93.019 189.032"/>
    <polygon fill="#DBDBD5" points="109.019 191.032 111.019 191.032 111.019 189.032 109.019 189.032"/>
    <polygon fill="#DBDBD5" points="97.019 199.032 99.019 199.032 99.019 197.032 97.019 197.032"/>
    <polygon fill="#DBDBD5" points="137.019 199.032 139.019 199.032 139.019 197.032 137.019 197.032"/>
    <polygon fill="#DBDBD5" points="105.019 199.032 107.019 199.032 107.019 197.032 105.019 197.032"/>
    <polygon fill="#DBDBD5" points="77.019 207.032 79.019 207.032 79.019 205.032 77.019 205.032"/>
    <polygon fill="#DBDBD5" points="145.019 199.032 147.019 199.032 147.019 197.032 145.019 197.032"/>
    <polygon fill="#DBDBD5" points="141.019 191.032 143.019 191.032 143.019 189.032 141.019 189.032"/>
    <polygon fill="#DBDBD5" points="149.019 191.032 151.019 191.032 151.019 189.032 149.019 189.032"/>
    <polygon fill="#DBDBD5" points="73.019 199.032 75.019 199.032 75.019 197.032 73.019 197.032"/>
    <polygon fill="#DBDBD5" points="133.019 191.032 135.019 191.032 135.019 189.032 133.019 189.032"/>
    <polygon fill="#DBDBD5" points="93.019 207.032 95.019 207.032 95.019 205.032 93.019 205.032"/>
    <polygon fill="#DBDBD5" points="81.019 199.032 83.019 199.032 83.019 197.032 81.019 197.032"/>
    <polygon fill="#DBDBD5" points="101.019 207.032 103.019 207.032 103.019 205.032 101.019 205.032"/>
    <polygon fill="#DBDBD5" points="65.019 207.032 71.019 207.032 71.019 205.032 65.019 205.032"/>
    <polygon fill="#DBDBD5" points="85.019 207.032 87.019 207.032 87.019 205.032 85.019 205.032"/>
    <polygon fill="#DBDBD5" points="89.019 199.032 91.019 199.032 91.019 197.032 89.019 197.032"/>
    <polygon fill="#DBDBD5" points="117.019 191.032 119.019 191.032 119.019 189.032 117.019 189.032"/>
    <polygon fill="#DBDBD5" points="141.019 207.032 143.019 207.032 143.019 205.032 141.019 205.032"/>
    <polygon fill="#DBDBD5" points="141.019 215.032 143.019 215.032 143.019 213.032 141.019 213.032"/>
    <polygon fill="#DBDBD5" points="133.019 207.032 135.019 207.032 135.019 205.032 133.019 205.032"/>
    <polygon fill="#DBDBD5" points="97.019 215.032 135.019 215.032 135.019 213.032 97.019 213.032"/>
    <polygon fill="#DBDBD5" points="149.019 215.032 151.019 215.032 151.019 213.032 149.019 213.032"/>
    <polygon fill="#DBDBD5" points="153.019 199.032 159.019 199.032 159.019 197.032 153.019 197.032"/>
    <polygon fill="#DBDBD5" points="157.019 191.032 159.019 191.032 159.019 189.032 157.019 189.032"/>
    <polygon fill="#DBDBD5" points="149.019 207.032 151.019 207.032 151.019 205.032 149.019 205.032"/>
    <polygon fill="#DBDBD5" points="89.019 215.032 91.019 215.032 91.019 213.032 89.019 213.032"/>
    <polygon fill="#DBDBD5" points="157.019 215.032 159.019 215.032 159.019 213.032 157.019 213.032"/>
    <polygon fill="#DBDBD5" points="157.019 207.032 159.019 207.032 159.019 205.032 157.019 205.032"/>
    <path fill="#DBDBD5" d="M155.019,193.032 L161.019,193.032 L161.019,187.032 L155.019,187.032 L155.019,193.032 Z M151.019,201.032 L161.019,201.032 L161.019,195.032 L151.019,195.032 L151.019,201.032 Z M155.019,209.032 L161.019,209.032 L161.019,203.032 L155.019,203.032 L155.019,209.032 Z M155.019,217.032 L161.019,217.032 L161.019,211.032 L155.019,211.032 L155.019,217.032 Z M147.019,209.032 L153.019,209.032 L153.019,203.032 L147.019,203.032 L147.019,209.032 Z M147.019,217.032 L153.019,217.032 L153.019,211.032 L147.019,211.032 L147.019,217.032 Z M139.019,209.032 L145.019,209.032 L145.019,203.032 L139.019,203.032 L139.019,209.032 Z M139.019,217.032 L145.019,217.032 L145.019,211.032 L139.019,211.032 L139.019,217.032 Z M131.019,209.032 L137.019,209.032 L137.019,203.032 L131.019,203.032 L131.019,209.032 Z M95.019,217.032 L137.019,217.032 L137.019,211.032 L95.019,211.032 L95.019,217.032 Z M87.019,217.032 L93.019,217.032 L93.019,211.032 L87.019,211.032 L87.019,217.032 Z M79.019,217.032 L85.019,217.032 L85.019,211.032 L79.019,211.032 L79.019,217.032 Z M71.019,217.032 L77.019,217.032 L77.019,211.032 L71.019,211.032 L71.019,217.032 Z M63.019,217.032 L69.019,217.032 L69.019,211.032 L63.019,211.032 L63.019,217.032 Z M63.019,209.032 L73.019,209.032 L73.019,203.032 L63.019,203.032 L63.019,209.032 Z M63.019,201.032 L69.019,201.032 L69.019,195.032 L63.019,195.032 L63.019,201.032 Z M63.019,193.032 L73.019,193.032 L73.019,187.032 L63.019,187.032 L63.019,193.032 Z M75.019,193.032 L81.019,193.032 L81.019,187.032 L75.019,187.032 L75.019,193.032 Z M83.019,193.032 L89.019,193.032 L89.019,187.032 L83.019,187.032 L83.019,193.032 Z M91.019,193.032 L97.019,193.032 L97.019,187.032 L91.019,187.032 L91.019,193.032 Z M99.019,193.032 L105.019,193.032 L105.019,187.032 L99.019,187.032 L99.019,193.032 Z M107.019,193.032 L113.019,193.032 L113.019,187.032 L107.019,187.032 L107.019,193.032 Z M115.019,193.032 L121.019,193.032 L121.019,187.032 L115.019,187.032 L115.019,193.032 Z M123.019,193.032 L129.019,193.032 L129.019,187.032 L123.019,187.032 L123.019,193.032 Z M127.019,201.032 L133.019,201.032 L133.019,195.032 L127.019,195.032 L127.019,201.032 Z M123.019,209.032 L129.019,209.032 L129.019,203.032 L123.019,203.032 L123.019,209.032 Z M119.019,201.032 L125.019,201.032 L125.019,195.032 L119.019,195.032 L119.019,201.032 Z M115.019,209.032 L121.019,209.032 L121.019,203.032 L115.019,203.032 L115.019,209.032 Z M111.019,201.032 L117.019,201.032 L117.019,195.032 L111.019,195.032 L111.019,201.032 Z M107.019,209.032 L113.019,209.032 L113.019,203.032 L107.019,203.032 L107.019,209.032 Z M103.019,201.032 L109.019,201.032 L109.019,195.032 L103.019,195.032 L103.019,201.032 Z M99.019,209.032 L105.019,209.032 L105.019,203.032 L99.019,203.032 L99.019,209.032 Z M95.019,201.032 L101.019,201.032 L101.019,195.032 L95.019,195.032 L95.019,201.032 Z M91.019,209.032 L97.019,209.032 L97.019,203.032 L91.019,203.032 L91.019,209.032 Z M87.019,201.032 L93.019,201.032 L93.019,195.032 L87.019,195.032 L87.019,201.032 Z M83.019,209.032 L89.019,209.032 L89.019,203.032 L83.019,203.032 L83.019,209.032 Z M79.019,201.032 L85.019,201.032 L85.019,195.032 L79.019,195.032 L79.019,201.032 Z M71.019,201.032 L77.019,201.032 L77.019,195.032 L71.019,195.032 L71.019,201.032 Z M75.019,209.032 L81.019,209.032 L81.019,203.032 L75.019,203.032 L75.019,209.032 Z M131.019,193.032 L137.019,193.032 L137.019,187.032 L131.019,187.032 L131.019,193.032 Z M135.019,201.032 L141.019,201.032 L141.019,195.032 L135.019,195.032 L135.019,201.032 Z M139.019,193.032 L145.019,193.032 L145.019,187.032 L139.019,187.032 L139.019,193.032 Z M143.019,201.032 L149.019,201.032 L149.019,195.032 L143.019,195.032 L143.019,201.032 Z M147.019,193.032 L153.019,193.032 L153.019,187.032 L147.019,187.032 L147.019,193.032 Z M162.019,184.033 L62.019,184.033 C60.914,184.033 60.019,184.928 60.019,186.033 L60.019,218.033 C60.019,219.137 60.914,220.033 62.019,220.033 L162.019,220.033 C163.123,220.033 164.019,219.137 164.019,218.033 L164.019,186.033 C164.019,184.928 163.123,184.033 162.019,184.033 Z"/>
    <polygon fill="#DBDBD5" points="81.019 215.032 83.019 215.032 83.019 213.032 81.019 213.032"/>
    <polygon fill="#DBDBD5" points="73.019 215.032 75.019 215.032 75.019 213.032 73.019 213.032"/>
    <polygon fill="#DBDBD5" points="65.019 215.032 67.019 215.032 67.019 213.032 65.019 213.032"/>
    <path fill="#434A4F" d="M62.019,184.997 C61.467,184.997 61.019,185.445 61.019,185.997 L61.019,217.997 C61.019,218.549 61.467,218.997 62.019,218.997 L162.019,218.997 C162.57,218.997 163.019,218.549 163.019,217.997 L163.019,185.997 C163.019,185.445 162.57,184.997 162.019,184.997 L62.019,184.997 Z M162.019,220.997 L62.019,220.997 C60.364,220.997 59.019,219.651 59.019,217.997 L59.019,185.997 C59.019,184.343 60.364,182.997 62.019,182.997 L162.019,182.997 C163.673,182.997 165.019,184.343 165.019,185.997 L165.019,217.997 C165.019,219.651 163.673,220.997 162.019,220.997 Z"/>
    <path fill="#434A4F" d="M111.019,183.033 L109.019,183.032 C109.019,180.275 111.262,178.033 114.019,178.033 L199.03,178.033 C200.684,178.033 202.03,176.688 202.03,175.033 C202.03,173.379 200.684,172.033 199.03,172.033 L167.03,172.033 C164.273,172.033 162.03,169.79 162.03,167.033 L162.03,159.033 L164.03,159.033 L164.03,167.033 C164.03,168.688 165.375,170.033 167.03,170.033 L199.03,170.033 C201.787,170.033 204.03,172.276 204.03,175.033 C204.03,177.79 201.787,180.033 199.03,180.033 L114.019,180.033 C112.364,180.033 111.019,181.379 111.019,183.033"/>
    <path fill="#DBDBD5" d="M191.03,217.032 L179.03,217.032 C176.821,217.032 175.03,215.241 175.03,213.032 L175.03,191.032 C175.03,188.823 176.821,187.032 179.03,187.032 L191.03,187.032 C193.239,187.032 195.03,188.823 195.03,191.032 L195.03,213.032 C195.03,215.241 193.239,217.032 191.03,217.032"/>
    <polygon fill="#434A4F" points="184.03 195.032 186.03 195.032 186.03 187.032 184.03 187.032"/>
    <path fill="#434A4F" d="M179.03,188.032 C177.375,188.032 176.03,189.378 176.03,191.032 L176.03,213.032 C176.03,214.687 177.375,216.032 179.03,216.032 L191.03,216.032 C192.684,216.032 194.03,214.687 194.03,213.032 L194.03,191.032 C194.03,189.378 192.684,188.032 191.03,188.032 L179.03,188.032 Z M191.03,218.032 L179.03,218.032 C176.273,218.032 174.03,215.789 174.03,213.032 L174.03,191.032 C174.03,188.275 176.273,186.032 179.03,186.032 L191.03,186.032 C193.787,186.032 196.03,188.275 196.03,191.032 L196.03,213.032 C196.03,215.789 193.787,218.032 191.03,218.032 Z"/>
    <path fill="#42494E" d="M76.998,103.028 L84.998,103.028 L84.998,57.028 L76.998,57.028 L76.998,103.028 Z M74.998,105.028 L86.998,105.028 L86.998,55.028 L74.998,55.028 L74.998,105.028 Z"/>
    <polygon fill="#DBDBD5" points="78.999 63.028 82.999 63.028 82.999 59.028 78.999 59.028"/>
    <polygon fill="#DBDBD5" points="78.999 69.031 82.999 69.031 82.999 65.031 78.999 65.031"/>
    <polygon fill="#DBDBD5" points="78.999 75.035 82.999 75.035 82.999 71.035 78.999 71.035"/>
    <polygon fill="#DBDBD5" points="78.999 81.039 82.999 81.039 82.999 77.039 78.999 77.039"/>
    <polygon fill="#DBDBD5" points="78.999 87.042 82.999 87.042 82.999 83.042 78.999 83.042"/>
    <polygon fill="#DBDBD5" points="78.999 93.046 82.999 93.046 82.999 89.046 78.999 89.046"/>
    <polygon fill="#DBDBD5" points="77.998 99.048 81.997 99.048 81.997 95.049 77.998 95.049"/>
    <polygon fill="#DBDBD5" points="79.999 101.049 83.998 101.049 83.998 97.05 79.999 97.05"/>
    <path fill="#42494E" d="M169.056,50.02 L173.056,50.02 L173.056,46.02 L169.056,46.02 L169.056,50.02 Z M163.053,50.02 L167.053,50.02 L167.053,46.02 L163.053,46.02 L163.053,50.02 Z M157.049,50.02 L161.049,50.02 L161.049,46.02 L157.049,46.02 L157.049,50.02 Z M151.046,50.02 L155.046,50.02 L155.046,46.02 L151.046,46.02 L151.046,50.02 Z M139.038,50.02 L143.038,50.02 L143.038,46.02 L139.038,46.02 L139.038,50.02 Z M133.035,50.02 L137.035,50.02 L137.035,46.02 L133.035,46.02 L133.035,50.02 Z M127.031,50.02 L131.031,50.02 L131.031,46.02 L127.031,46.02 L127.031,50.02 Z M121.028,50.02 L125.028,50.02 L125.028,46.02 L121.028,46.02 L121.028,50.02 Z M115.024,50.02 L119.024,50.02 L119.024,46.02 L115.024,46.02 L115.024,50.02 Z M109.02,50.02 L113.02,50.02 L113.02,46.02 L109.02,46.02 L109.02,50.02 Z M97.013,50.02 L101.013,50.02 L101.013,46.02 L97.013,46.02 L97.013,50.02 Z M91.01,50.02 L95.01,50.02 L95.01,46.02 L91.01,46.02 L91.01,50.02 Z M85.006,50.02 L89.006,50.02 L89.006,46.02 L85.006,46.02 L85.006,50.02 Z M79.002,50.02 L83.002,50.02 L83.002,46.02 L79.002,46.02 L79.002,50.02 Z M72.999,50.02 L76.999,50.02 L76.999,46.02 L72.999,46.02 L72.999,50.02 Z M71.998,52.027 L177.998,52.027 L177.998,44.027 L71.998,44.027 L71.998,52.027 Z"/>
    <polygon fill="#42494E" points="170.998 144.324 172.998 144.324 172.998 50.028 170.998 50.028"/>
    <path fill="#434A4F" d="M145.658,73.293 L156.109,98.601 L160.582,89.605 L168.969,97.993 L170.383,96.579 L161.952,88.148 L169.606,83.556 L145.658,73.293 Z M155.94,103.433 L141.937,69.521 L173.989,83.259 L165.178,88.545 L173.211,96.579 L168.969,100.821 L161.134,92.986 L155.94,103.433 Z"/>
    <polygon fill="#42494E" points="197.963 115.001 199.963 115.001 199.963 97.021 197.963 97.021"/>
    <path fill="#42494E" d="M198.96,117.001 C198.7,117.001 198.44,116.951 198.2,116.851 C197.96,116.751 197.74,116.601 197.55,116.411 C197.17,116.041 196.96,115.531 196.96,115.001 C196.96,114.871 196.98,114.741 197,114.61 C197.03,114.48 197.07,114.351 197.12,114.23 C197.17,114.11 197.23,114.001 197.3,113.891 C197.37,113.781 197.46,113.681 197.55,113.591 C198.29,112.841 199.64,112.841 200.38,113.591 C200.47,113.681 200.55,113.781 200.63,113.891 C200.7,114.001 200.76,114.11 200.81,114.23 C200.86,114.351 200.9,114.48 200.92,114.61 C200.95,114.741 200.96,114.871 200.96,115.001 C200.96,115.531 200.76,116.041 200.38,116.411 C200.19,116.601 199.97,116.751 199.73,116.851 C199.49,116.951 199.23,117.001 198.96,117.001"/>
    <polyline fill="#42494E" points="206.908 127.941 204.908 127.941 204.908 126.065 192.527 126.065 192.527 127.941 190.527 127.941 190.527 124.065 206.908 124.065 206.908 127.941"/>
    <polyline fill="#42494E" points="194.522 125.636 188.733 117.281 197.355 96.027 200.51 96.027 209.132 117.281 203.343 125.636 201.7 124.497 206.872 117.031 199.163 98.027 198.702 98.027 190.993 117.031 196.166 124.497 194.522 125.636"/>
    <path fill="#42494E" d="M121.97 113.271C121.7 113.271 121.45 113.171 121.26 112.98 121.07 112.791 120.97 112.541 120.97 112.271 120.97 112.141 120.99 112.011 121.04 111.891 121.09 111.771 121.16 111.661 121.26 111.571 121.35 111.471 121.46 111.4 121.58 111.351 121.83 111.251 122.1 111.251 122.35 111.351 122.47 111.4 122.58 111.471 122.67 111.571 122.86 111.751 122.97 112.011 122.97 112.271 122.97 112.4 122.94 112.531 122.89 112.65 122.84 112.771 122.77 112.881 122.67 112.98 122.58 113.071 122.47 113.15 122.35 113.201 122.23 113.251 122.1 113.271 121.97 113.271M101.02 92.751C100.64 92.36 100.64 91.721 101.02 91.331 101.42 90.94 102.05 90.94 102.44 91.331 102.83 91.721 102.83 92.36 102.44 92.751 102.24 92.94 101.99 93.041 101.73 93.041 101.48 93.041 101.22 92.94 101.02 92.751zM103.91 95.641C103.53 95.251 103.53 94.61 103.91 94.221 104.31 93.831 104.94 93.831 105.33 94.221 105.72 94.61 105.72 95.251 105.33 95.641 105.14 95.831 104.88 95.931 104.62 95.931 104.37 95.931 104.11 95.831 103.91 95.641zM106.8 98.531C106.42 98.141 106.42 97.501 106.8 97.11 107.2 96.721 107.83 96.721 108.22 97.11 108.61 97.501 108.61 98.141 108.22 98.531 108.02 98.721 107.77 98.821 107.51 98.821 107.26 98.821 107 98.721 106.8 98.531zM109.69 101.421C109.31 101.031 109.31 100.391 109.69 100.001 110.09 99.61 110.72 99.61 111.11 100.001 111.5 100.391 111.5 101.031 111.11 101.421 110.91 101.61 110.66 101.711 110.4 101.711 110.15 101.711 109.89 101.61 109.69 101.421zM112.59 104.311C112.2 103.921 112.2 103.281 112.59 102.891 112.98 102.501 113.61 102.501 114 102.891 114.39 103.281 114.39 103.921 114 104.311 113.81 104.501 113.55 104.601 113.29 104.601 113.04 104.601 112.78 104.501 112.59 104.311zM115.48 107.201C115.09 106.811 115.09 106.171 115.48 105.781 115.87 105.391 116.5 105.391 116.89 105.781 117.28 106.171 117.28 106.811 116.89 107.201 116.69 107.391 116.44 107.491 116.18 107.491 115.93 107.491 115.67 107.391 115.48 107.201zM118.37 110.091C117.98 109.701 117.98 109.061 118.37 108.671 118.76 108.281 119.39 108.281 119.78 108.671 120.17 109.061 120.17 109.701 119.78 110.091 119.59 110.281 119.33 110.381 119.07 110.381 118.82 110.381 118.56 110.281 118.37 110.091zM98.84 90.15C98.57 90.15 98.32 90.051 98.14 89.86 98.04 89.761 97.97 89.661 97.92 89.531 97.87 89.411 97.84 89.281 97.84 89.15 97.84 89.02 97.87 88.891 97.92 88.77 97.97 88.65 98.04 88.541 98.14 88.44 98.23 88.351 98.34 88.281 98.46 88.23 98.83 88.081 99.27 88.161 99.55 88.44 99.74 88.631 99.84 88.891 99.84 89.15 99.84 89.281 99.82 89.411 99.77 89.531 99.72 89.65 99.64 89.761 99.55 89.86 99.46 89.951 99.35 90.02 99.23 90.071 99.1 90.121 98.98 90.15 98.84 90.15M118.37 69.631C117.98 69.23 117.98 68.601 118.37 68.211 118.76 67.821 119.39 67.821 119.78 68.211 120.17 68.601 120.17 69.23 119.78 69.631 119.59 69.821 119.33 69.921 119.07 69.921 118.82 69.921 118.56 69.821 118.37 69.631zM115.48 72.52C115.09 72.131 115.09 71.491 115.48 71.101 115.87 70.711 116.5 70.711 116.89 71.101 117.28 71.491 117.28 72.131 116.89 72.52 116.7 72.711 116.44 72.811 116.18 72.811 115.93 72.811 115.67 72.711 115.48 72.52zM112.59 75.411C112.2 75.021 112.2 74.381 112.59 73.991 112.98 73.601 113.61 73.601 114 73.991 114.39 74.381 114.39 75.021 114 75.411 113.81 75.601 113.55 75.701 113.29 75.701 113.04 75.701 112.78 75.601 112.59 75.411zM109.7 78.301C109.31 77.911 109.31 77.271 109.7 76.881 110.09 76.491 110.72 76.491 111.11 76.881 111.5 77.271 111.5 77.911 111.11 78.301 110.92 78.491 110.66 78.591 110.4 78.591 110.15 78.591 109.89 78.491 109.7 78.301zM106.81 81.19C106.42 80.801 106.42 80.161 106.81 79.77 107.2 79.381 107.83 79.381 108.22 79.77 108.61 80.161 108.61 80.801 108.22 81.19 108.02 81.381 107.77 81.48 107.51 81.48 107.26 81.48 107 81.381 106.81 81.19zM103.92 84.081C103.53 83.69 103.53 83.051 103.92 82.661 104.31 82.27 104.94 82.27 105.33 82.661 105.72 83.051 105.72 83.69 105.33 84.081 105.13 84.27 104.88 84.371 104.62 84.371 104.37 84.371 104.11 84.27 103.92 84.081zM101.02 86.971C100.64 86.581 100.64 85.94 101.02 85.551 101.42 85.161 102.05 85.161 102.44 85.551 102.83 85.94 102.83 86.581 102.44 86.971 102.25 87.161 101.99 87.261 101.73 87.261 101.48 87.261 101.22 87.161 101.02 86.971zM121.96 67.031C121.7 67.031 121.45 66.931 121.26 66.73 121.16 66.641 121.09 66.531 121.04 66.411 120.99 66.291 120.96 66.161 120.96 66.031 120.96 65.77 121.07 65.511 121.26 65.321 121.3 65.281 121.35 65.241 121.41 65.201 121.46 65.161 121.52 65.131 121.58 65.11 121.64 65.081 121.71 65.061 121.77 65.051 122.09 64.98 122.44 65.091 122.67 65.321 122.86 65.511 122.97 65.77 122.97 66.031 122.97 66.161 122.94 66.291 122.89 66.411 122.84 66.531 122.77 66.641 122.67 66.73 122.48 66.931 122.23 67.031 121.96 67.031M124.15 69.631C123.76 69.241 123.76 68.601 124.15 68.211 124.54 67.821 125.17 67.821 125.56 68.211 125.95 68.601 125.95 69.241 125.56 69.631 125.37 69.821 125.11 69.921 124.85 69.921 124.6 69.921 124.34 69.821 124.15 69.631zM127.04 72.52C126.65 72.131 126.65 71.491 127.04 71.101 127.43 70.711 128.06 70.711 128.45 71.101 128.84 71.491 128.84 72.131 128.45 72.52 128.26 72.711 128 72.811 127.75 72.811 127.49 72.811 127.23 72.711 127.04 72.52zM129.93 75.411C129.54 75.021 129.54 74.381 129.93 73.991 130.32 73.601 130.95 73.601 131.34 73.991 131.73 74.381 131.73 75.021 131.34 75.411 131.15 75.601 130.89 75.701 130.64 75.701 130.38 75.701 130.12 75.601 129.93 75.411zM132.82 78.301C132.43 77.911 132.43 77.271 132.82 76.881 133.21 76.491 133.84 76.491 134.23 76.881 134.62 77.271 134.62 77.911 134.23 78.301 134.04 78.491 133.78 78.591 133.52 78.591 133.27 78.591 133.01 78.491 132.82 78.301zM135.71 81.19C135.32 80.801 135.32 80.161 135.71 79.77 136.1 79.381 136.73 79.381 137.12 79.77 137.51 80.161 137.51 80.801 137.12 81.19 136.93 81.381 136.67 81.48 136.42 81.48 136.16 81.48 135.9 81.381 135.71 81.19zM138.6 84.081C138.21 83.69 138.21 83.051 138.6 82.661 138.99 82.27 139.62 82.27 140.01 82.661 140.4 83.051 140.4 83.69 140.01 84.081 139.82 84.27 139.56 84.371 139.31 84.371 139.05 84.371 138.79 84.27 138.6 84.081zM141.49 86.971C141.1 86.581 141.1 85.94 141.49 85.551 141.88 85.161 142.51 85.161 142.9 85.551 143.29 85.94 143.29 86.581 142.9 86.971 142.71 87.161 142.45 87.261 142.2 87.261 141.94 87.261 141.68 87.161 141.49 86.971zM145.09 90.15C144.95 90.15 144.83 90.121 144.7 90.071 144.58 90.02 144.47 89.951 144.38 89.86 144.29 89.761 144.21 89.65 144.16 89.531 144.11 89.411 144.09 89.281 144.09 89.15 144.09 88.891 144.19 88.631 144.38 88.44 144.66 88.161 145.1 88.071 145.47 88.23 145.59 88.281 145.7 88.351 145.79 88.44 145.89 88.541 145.96 88.641 146.01 88.77 146.06 88.891 146.09 89.02 146.09 89.15 146.09 89.281 146.06 89.411 146.01 89.531 145.96 89.65 145.89 89.761 145.79 89.86 145.7 89.951 145.59 90.02 145.47 90.071 145.35 90.121 145.22 90.15 145.09 90.15M141.49 92.751C141.1 92.36 141.1 91.721 141.49 91.331 141.88 90.94 142.51 90.94 142.9 91.331 143.29 91.721 143.29 92.36 142.9 92.751 142.71 92.94 142.45 93.041 142.2 93.041 141.94 93.041 141.68 92.94 141.49 92.751zM138.6 95.641C138.21 95.251 138.21 94.61 138.6 94.221 138.99 93.831 139.62 93.831 140.01 94.221 140.4 94.61 140.4 95.251 140.01 95.641 139.82 95.831 139.56 95.931 139.31 95.931 139.05 95.931 138.79 95.831 138.6 95.641zM135.71 98.531C135.32 98.141 135.32 97.501 135.71 97.11 136.1 96.721 136.73 96.721 137.12 97.11 137.51 97.501 137.51 98.141 137.12 98.531 136.93 98.721 136.67 98.821 136.42 98.821 136.16 98.821 135.9 98.721 135.71 98.531zM132.82 101.421C132.43 101.031 132.43 100.391 132.82 100.001 133.21 99.61 133.84 99.61 134.23 100.001 134.62 100.391 134.62 101.031 134.23 101.421 134.04 101.61 133.78 101.711 133.53 101.711 133.27 101.711 133.01 101.61 132.82 101.421zM129.93 104.311C129.54 103.921 129.54 103.281 129.93 102.891 130.32 102.501 130.95 102.501 131.34 102.891 131.73 103.281 131.73 103.921 131.34 104.311 131.15 104.501 130.89 104.601 130.63 104.601 130.38 104.601 130.12 104.501 129.93 104.311zM127.04 107.201C126.65 106.811 126.65 106.171 127.04 105.781 127.43 105.391 128.06 105.391 128.45 105.781 128.84 106.171 128.84 106.811 128.45 107.201 128.26 107.391 128 107.491 127.75 107.491 127.49 107.491 127.23 107.391 127.04 107.201zM124.15 110.091C123.76 109.701 123.76 109.061 124.15 108.671 124.54 108.281 125.17 108.281 125.56 108.671 125.95 109.061 125.95 109.701 125.56 110.091 125.37 110.281 125.11 110.381 124.85 110.381 124.6 110.381 124.34 110.281 124.15 110.091z"/>
    <path fill="#42494E" d="M100.423,112.043 L122.131,133.75 L143.839,112.043 L122.131,90.336 L100.423,112.043 Z M122.131,136.578 L97.595,112.043 L122.131,87.508 L146.667,112.043 L122.131,136.578 Z"/>
    <polyline fill="#FACD60" points="102.545 89.029 122.131 69.443 141.718 89.029 133.746 97 122.131 85.386 110.517 97.001 102.545 89.029"/>
    <polyline fill="#E9886C" points="114.052 100.536 122.131 92.457 130.211 100.536 122.131 108.615 114.052 100.536"/>
    <polyline fill="#75C7D0" points="122.131 131.629 102.545 112.043 110.517 104.072 122.131 115.686 133.746 104.071 141.718 112.043 122.131 131.629"/>
    <path fill="#42494E" d="M98.938 62.969C98.386 62.969 97.937 63.417 97.937 63.969 97.937 64.521 98.386 64.969 98.938 64.969 99.489 64.969 99.937 64.521 99.937 63.969 99.937 63.417 99.489 62.969 98.938 62.969zM98.938 66.969C97.283 66.969 95.937 65.623 95.937 63.969 95.937 62.314 97.283 60.969 98.938 60.969 100.592 60.969 101.937 62.314 101.937 63.969 101.937 65.623 100.592 66.969 98.938 66.969zM144.93 62.969C144.379 62.969 143.93 63.417 143.93 63.969 143.93 64.521 144.379 64.969 144.93 64.969 145.481 64.969 145.93 64.521 145.93 63.969 145.93 63.417 145.481 62.969 144.93 62.969zM144.93 66.969C143.276 66.969 141.93 65.623 141.93 63.969 141.93 62.314 143.276 60.969 144.93 60.969 146.584 60.969 147.93 62.314 147.93 63.969 147.93 65.623 146.584 66.969 144.93 66.969zM120.935 64.969L122.935 64.969 122.935 62.969 120.935 62.969 120.935 64.969zM118.935 66.969L124.935 66.969 124.935 60.969 118.935 60.969 118.935 66.969z"/>
    <path fill="#42494E" d="M119.832 64.969L100.937 64.969C100.385 64.969 99.937 64.521 99.937 63.969 99.937 63.416 100.385 62.969 100.937 62.969L119.832 62.969C120.384 62.969 120.832 63.416 120.832 63.969 120.832 64.521 120.384 64.969 119.832 64.969M142.498 64.969L124.267 64.969C123.715 64.969 123.267 64.521 123.267 63.969 123.267 63.416 123.715 62.969 124.267 62.969L142.498 62.969C143.05 62.969 143.498 63.416 143.498 63.969 143.498 64.521 143.05 64.969 142.498 64.969M198.001 92.041L200.001 92.041 200.001 90.041 198.001 90.041 198.001 92.041zM196.001 94.041L202.001 94.041 202.001 88.041 196.001 88.041 196.001 94.041zM199 138.041C198.73 138.041 198.48 137.931 198.29 137.741 198.2 137.65 198.13 137.541 198.08 137.421 198.03 137.301 198 137.171 198 137.041 198 136.911 198.03 136.781 198.08 136.661 198.13 136.531 198.2 136.431 198.29 136.331 198.66 135.961 199.34 135.961 199.71 136.331 199.8 136.431 199.87 136.531 199.92 136.661 199.97 136.781 200 136.911 200 137.041 200 137.171 199.97 137.301 199.92 137.421 199.87 137.541 199.8 137.65 199.71 137.741 199.52 137.931 199.27 138.041 199 138.041M38.003 140.847C36.349 140.847 35.003 142.192 35.003 143.847 35.003 145.501 36.349 146.847 38.003 146.847L105.185 146.847 111.691 143.847 105.185 140.847 38.003 140.847zM105.624 148.847L38.003 148.847C35.246 148.847 33.003 146.604 33.003 143.847 33.003 141.09 35.246 138.847 38.003 138.847L105.624 138.847 116.467 143.847 105.624 148.847z"/>
    <polygon fill="#42494E" points="43.613 147.847 45.613 147.847 45.613 140.248 43.613 140.248"/>
    <polygon fill="#42494E" points="44.613 144.817 104.636 144.817 104.636 142.817 44.613 142.817"/>
    <path fill="#42494E" d="M46,44.041 C44.897,44.041 44,44.939 44,46.041 C44,47.144 44.897,48.041 46,48.041 C47.103,48.041 48,47.144 48,46.041 C48,44.939 47.103,44.041 46,44.041 Z M46,50.041 C43.794,50.041 42,48.247 42,46.041 C42,43.835 43.794,42.041 46,42.041 C48.206,42.041 50,43.835 50,46.041 C50,48.247 48.206,50.041 46,50.041 Z"/>
    <path fill="#FACD60" d="M53,172.041 C53,174.802 50.761,177.041 48,177.041 C45.239,177.041 43,174.802 43,172.041 C43,169.28 45.239,167.041 48,167.041 C50.761,167.041 53,169.28 53,172.041"/>
    <path fill="#75C7D0" d="M211,58.041 C211,59.698 209.657,61.041 208,61.041 C206.343,61.041 205,59.698 205,58.041 C205,56.384 206.343,55.041 208,55.041 C209.657,55.041 211,56.384 211,58.041"/>
    <polygon fill="#434A4F" points="213 187.041 215 187.041 215 183.041 213 183.041"/>
    <polygon fill="#434A4F" points="213 197.041 215 197.041 215 193.041 213 193.041"/>
    <polygon fill="#434A4F" points="217 191.041 221 191.041 221 189.041 217 189.041"/>
    <polygon fill="#434A4F" points="207 191.041 211 191.041 211 189.041 207 189.041"/>
    <polygon fill="#434A4F" points="35 69.041 37 69.041 37 65.041 35 65.041"/>
    <polygon fill="#434A4F" points="35 79.041 37 79.041 37 75.041 35 75.041"/>
    <polygon fill="#434A4F" points="39 73.041 43 73.041 43 71.041 39 71.041"/>
    <polygon fill="#434A4F" points="29 73.041 33 73.041 33 71.041 29 71.041"/>
  </g>
</svg>
