<svg xmlns="http://www.w3.org/2000/svg" width="250" height="250" viewBox="0 0 250 250">
  <g fill="none" fill-rule="evenodd">
    <polygon fill="#434A4F" points="197.674 123.646 199.674 123.646 199.674 119.646 197.674 119.646"/>
    <polygon fill="#434A4F" points="197.674 133.646 199.674 133.646 199.674 129.646 197.674 129.646"/>
    <polygon fill="#434A4F" points="201.674 127.646 205.674 127.646 205.674 125.646 201.674 125.646"/>
    <polygon fill="#434A4F" points="191.674 127.646 195.674 127.646 195.674 125.646 191.674 125.646"/>
    <polyline fill="#4193A9" points="154.175 60.647 154.175 84.49 178.017 84.49"/>
    <path fill="#434A4F" d="M72.687 116.527C72.134 116.527 71.687 116.08 71.687 115.527L71.687 59.647 89.376 59.647C89.929 59.647 90.377 60.094 90.377 60.647 90.377 61.2 89.929 61.647 89.376 61.647L73.686 61.647 73.686 115.527C73.686 116.08 73.239 116.527 72.687 116.527M94.124 61.647C93.854 61.647 93.604 61.546 93.424 61.357 93.234 61.167 93.124 60.917 93.124 60.647 93.124 60.386 93.234 60.126 93.424 59.937 93.794 59.567 94.464 59.567 94.834 59.937 95.024 60.126 95.124 60.386 95.124 60.647 95.124 60.777 95.104 60.907 95.054 61.027 95.004 61.147 94.924 61.256 94.834 61.357 94.644 61.546 94.394 61.647 94.124 61.647"/>
    <path fill="#DDDED9" d="M162.748,102.53 C162.748,110.815 156.032,117.53 147.748,117.53 C139.463,117.53 132.748,110.815 132.748,102.53 C132.748,94.246 139.463,87.531 147.748,87.531 C156.032,87.531 162.748,94.246 162.748,102.53"/>
    <path fill="#434A4F" d="M144.193,101.51 L149.142,101.528 C150.706,101.313 151.921,99.831 151.921,98.042 C151.921,96.106 150.498,94.531 148.749,94.531 L144.193,94.531 L144.193,101.51 Z M144.193,110.531 L150.132,110.531 C151.881,110.531 153.304,108.956 153.304,107.019 C153.304,105.095 151.881,103.531 150.132,103.531 L149.257,103.528 C149.09,103.545 148.921,103.554 148.749,103.554 L144.193,103.554 L144.193,110.531 Z M150.132,112.531 L143.193,112.531 C142.641,112.531 142.193,112.083 142.193,111.531 L142.193,93.531 C142.193,92.978 142.641,92.531 143.193,92.531 L148.749,92.531 C151.601,92.531 153.921,95.003 153.921,98.044 C153.921,99.615 153.301,101.035 152.307,102.04 C154.074,102.913 155.304,104.816 155.304,107.019 C155.304,110.058 152.983,112.531 150.132,112.531 Z"/>
    <path fill="#4193A9" d="M117.732,102.036 C117.732,110.593 110.795,117.53 102.238,117.53 C93.68,117.53 86.743,110.593 86.743,102.036 C86.743,93.478 93.68,86.541 102.238,86.541 C110.795,86.541 117.732,93.478 117.732,102.036"/>
    <path fill="#434A4F" d="M109.513,112.036 C109.116,112.036 108.741,111.798 108.584,111.407 L102.299,95.695 L95.887,111.267 C95.677,111.777 95.091,112.02 94.581,111.811 C94.071,111.601 93.828,111.016 94.038,110.505 L101.388,92.655 C101.542,92.28 101.907,92.036 102.313,92.036 C102.314,92.036 102.316,92.036 102.317,92.036 C102.725,92.038 103.09,92.287 103.241,92.665 L110.441,110.665 C110.646,111.177 110.397,111.759 109.884,111.964 C109.762,112.013 109.637,112.036 109.513,112.036"/>
    <path fill="#434A4F" d="M107.166 106.637L97.491 106.637C96.939 106.637 96.491 106.19 96.491 105.637 96.491 105.084 96.939 104.637 97.491 104.637L107.166 104.637C107.718 104.637 108.166 105.084 108.166 105.637 108.166 106.19 107.718 106.637 107.166 106.637M87.744 135.533L87.744 135.534 87.744 135.533zM87.744 137.534C86.641 137.534 85.744 136.636 85.744 135.534 85.744 134.431 86.641 133.534 87.744 133.534 88.847 133.534 89.744 134.431 89.744 135.534 89.744 136.636 88.847 137.534 87.744 137.534zM117.744 136.534L93.744 136.534C93.191 136.534 92.744 136.086 92.744 135.534 92.744 134.981 93.191 134.534 93.744 134.534L117.744 134.534C118.296 134.534 118.744 134.981 118.744 135.534 118.744 136.086 118.296 136.534 117.744 136.534M87.744 143.538L87.744 143.539 87.744 143.538zM87.744 145.539C86.641 145.539 85.744 144.641 85.744 143.539 85.744 142.436 86.641 141.539 87.744 141.539 88.847 141.539 89.744 142.436 89.744 143.539 89.744 144.641 88.847 145.539 87.744 145.539zM117.744 144.539L93.744 144.539C93.191 144.539 92.744 144.091 92.744 143.539 92.744 142.986 93.191 142.539 93.744 142.539L117.744 142.539C118.296 142.539 118.744 142.986 118.744 143.539 118.744 144.091 118.296 144.539 117.744 144.539M87.744 151.542L87.744 151.543 87.744 151.542zM87.744 153.543C86.641 153.543 85.744 152.646 85.744 151.543 85.744 150.441 86.641 149.543 87.744 149.543 88.847 149.543 89.744 150.441 89.744 151.543 89.744 152.646 88.847 153.543 87.744 153.543zM117.744 152.543L93.744 152.543C93.191 152.543 92.744 152.096 92.744 151.543 92.744 150.991 93.191 150.543 93.744 150.543L117.744 150.543C118.296 150.543 118.744 150.991 118.744 151.543 118.744 152.096 118.296 152.543 117.744 152.543M87.744 159.547L87.744 159.548 87.744 159.547zM87.744 161.548C86.641 161.548 85.744 160.651 85.744 159.548 85.744 158.446 86.641 157.548 87.744 157.548 88.847 157.548 89.744 158.446 89.744 159.548 89.744 160.651 88.847 161.548 87.744 161.548zM117.744 160.548L93.744 160.548C93.191 160.548 92.744 160.101 92.744 159.548 92.744 158.996 93.191 158.548 93.744 158.548L117.744 158.548C118.296 158.548 118.744 158.996 118.744 159.548 118.744 160.101 118.296 160.548 117.744 160.548M87.744 175.556L87.754 175.556 87.744 175.556zM87.744 175.556L87.754 175.556 87.744 175.556zM87.744 175.556L87.754 175.556 87.744 175.556zM87.744 175.556L87.754 175.556 87.744 175.556zM87.744 175.557L87.754 175.557 87.744 175.557zM87.744 175.557L87.754 175.557 87.744 175.557zM87.744 175.557L87.754 175.557 87.744 175.557zM87.744 175.557L87.754 175.557 87.744 175.557zM87.744 177.557C86.641 177.557 85.744 176.66 85.744 175.557 85.744 174.455 86.641 173.557 87.744 173.557 88.847 173.557 89.744 174.455 89.744 175.557 89.744 176.66 88.847 177.557 87.744 177.557zM117.744 176.558L93.744 176.558C93.191 176.558 92.744 176.111 92.744 175.558 92.744 175.005 93.191 174.558 93.744 174.558L117.744 174.558C118.296 174.558 118.744 175.005 118.744 175.558 118.744 176.111 118.296 176.558 117.744 176.558M87.744 167.551L87.754 167.551 87.744 167.551zM87.744 167.551L87.754 167.551 87.744 167.551zM87.744 167.551L87.754 167.551 87.744 167.551zM87.744 167.551L87.754 167.551 87.744 167.551zM87.744 167.552L87.754 167.552 87.744 167.552zM87.744 167.552L87.754 167.552 87.744 167.552zM87.744 167.552L87.754 167.552 87.744 167.552zM87.744 167.552L87.754 167.552 87.744 167.552zM87.744 169.552C86.641 169.552 85.744 168.655 85.744 167.552 85.744 166.45 86.641 165.552 87.744 165.552 88.847 165.552 89.744 166.45 89.744 167.552 89.744 168.655 88.847 169.552 87.744 169.552zM117.744 168.553L93.744 168.553C93.191 168.553 92.744 168.106 92.744 167.553 92.744 167 93.191 166.553 93.744 166.553L117.744 166.553C118.296 166.553 118.744 167 118.744 167.553 118.744 168.106 118.296 168.553 117.744 168.553M133.771 135.532L133.771 135.534 133.771 135.532zM133.771 137.534C132.669 137.534 131.771 136.636 131.771 135.534 131.771 134.431 132.669 133.534 133.771 133.534 134.874 133.534 135.771 134.431 135.771 135.534 135.771 136.636 134.874 137.534 133.771 137.534zM163.771 136.534L139.771 136.534C139.219 136.534 138.771 136.086 138.771 135.534 138.771 134.981 139.219 134.534 139.771 134.534L163.771 134.534C164.324 134.534 164.771 134.981 164.771 135.534 164.771 136.086 164.324 136.534 163.771 136.534M133.771 143.537L133.771 143.539 133.771 143.537zM133.771 145.539C132.669 145.539 131.771 144.641 131.771 143.539 131.771 142.436 132.669 141.539 133.771 141.539 134.874 141.539 135.771 142.436 135.771 143.539 135.771 144.641 134.874 145.539 133.771 145.539zM163.771 144.539L139.771 144.539C139.219 144.539 138.771 144.091 138.771 143.539 138.771 142.986 139.219 142.539 139.771 142.539L163.771 142.539C164.324 142.539 164.771 142.986 164.771 143.539 164.771 144.091 164.324 144.539 163.771 144.539M133.771 151.542L133.771 151.543 133.771 151.542zM133.771 153.543C132.669 153.543 131.771 152.646 131.771 151.543 131.771 150.441 132.669 149.543 133.771 149.543 134.874 149.543 135.771 150.441 135.771 151.543 135.771 152.646 134.874 153.543 133.771 153.543zM163.771 152.543L139.771 152.543C139.219 152.543 138.771 152.096 138.771 151.543 138.771 150.991 139.219 150.543 139.771 150.543L163.771 150.543C164.324 150.543 164.771 150.991 164.771 151.543 164.771 152.096 164.324 152.543 163.771 152.543M133.771 159.546L133.771 159.548 133.771 159.546zM133.771 161.548C132.669 161.548 131.771 160.651 131.771 159.548 131.771 158.446 132.669 157.548 133.771 157.548 134.874 157.548 135.771 158.446 135.771 159.548 135.771 160.651 134.874 161.548 133.771 161.548zM163.771 160.548L139.771 160.548C139.219 160.548 138.771 160.101 138.771 159.548 138.771 158.996 139.219 158.548 139.771 158.548L163.771 158.548C164.324 158.548 164.771 158.996 164.771 159.548 164.771 160.101 164.324 160.548 163.771 160.548M133.771 175.556L133.771 175.557 133.771 175.556zM133.771 177.557C132.669 177.557 131.771 176.66 131.771 175.557 131.771 174.455 132.669 173.557 133.771 173.557 134.874 173.557 135.771 174.455 135.771 175.557 135.771 176.66 134.874 177.557 133.771 177.557zM163.771 176.558L139.771 176.558C139.219 176.558 138.771 176.111 138.771 175.558 138.771 175.005 139.219 174.558 139.771 174.558L163.771 174.558C164.324 174.558 164.771 175.005 164.771 175.558 164.771 176.111 164.324 176.558 163.771 176.558M133.771 167.551L133.771 167.552 133.771 167.551zM133.771 169.552C132.669 169.552 131.771 168.655 131.771 167.552 131.771 166.45 132.669 165.552 133.771 165.552 134.874 165.552 135.771 166.45 135.771 167.552 135.771 168.655 134.874 169.552 133.771 169.552zM163.771 168.553L139.771 168.553C139.219 168.553 138.771 168.106 138.771 167.553 138.771 167 139.219 166.553 139.771 166.553L163.771 166.553C164.324 166.553 164.771 167 164.771 167.553 164.771 168.106 164.324 168.553 163.771 168.553"/>
    <path fill="#434A4F" d="M98.896 61.647L153.761 61.647 177.018 84.904 177.018 166.854 179.018 166.854 179.018 84.076 154.589 59.647 98.896 59.647C98.344 59.647 97.896 60.094 97.896 60.647 97.896 61.2 98.344 61.647 98.896 61.647M177.018 194.336L177.018 202.702 73.686 202.702 73.686 153.527C73.686 152.974 73.239 152.527 72.687 152.527 72.134 152.527 71.687 152.974 71.687 153.527L71.687 204.702 179.018 204.702 179.018 194.336 177.018 194.336"/>
    <path fill="#434A4F" d="M189.824,34.473 C173.904,34.473 160.952,47.424 160.952,63.344 C160.952,75.067 167.953,85.54 178.789,90.028 C179.193,90.195 179.441,90.606 179.402,91.042 C179.208,93.171 178.231,95.039 176.769,96.373 C179.784,95.941 182.537,94.499 184.663,92.207 C184.889,91.966 185.22,91.853 185.543,91.899 C186.966,92.11 188.406,92.216 189.824,92.216 C205.744,92.216 218.696,79.264 218.696,63.344 C218.696,47.424 205.744,34.473 189.824,34.473 Z M174.829,98.511 L171.218,98.511 C170.665,98.511 170.218,98.064 170.218,97.511 C170.218,96.958 170.665,96.511 171.218,96.511 C174.213,96.511 176.717,94.431 177.306,91.568 C166.13,86.612 158.952,75.618 158.952,63.344 C158.952,46.322 172.802,32.473 189.824,32.473 C206.847,32.473 220.696,46.322 220.696,63.344 C220.696,80.367 206.847,94.216 189.824,94.216 C188.479,94.216 187.116,94.126 185.764,93.949 C182.875,96.855 178.92,98.511 174.829,98.511 Z"/>
    <polygon fill="#434A4F" points="172.746 51.526 206.746 51.526 206.746 49.526 172.746 49.526"/>
    <polygon fill="#434A4F" points="172.746 55.676 206.746 55.676 206.746 53.676 172.746 53.676"/>
    <polygon fill="#434A4F" points="172.746 59.679 206.746 59.679 206.746 57.679 172.746 57.679"/>
    <polyline fill="#434A4F" points="197.947 75.003 194.147 71.204 195.562 69.79 197.947 72.175 207.04 63.083 208.454 64.497 197.947 75.003"/>
    <polyline fill="#434A4F" points="184.039 75.312 176.039 67.312 177.453 65.898 185.453 73.898 184.039 75.312"/>
    <polyline fill="#434A4F" points="177.453 75.312 176.039 73.898 184.039 65.898 185.453 67.312 177.453 75.312"/>
    <path fill="#434A4F" d="M174.746,76.605 L186.746,76.605 L186.746,64.605 L174.746,64.605 L174.746,76.605 Z M172.746,78.605 L188.746,78.605 L188.746,62.605 L172.746,62.605 L172.746,78.605 Z"/>
    <polyline fill="#434A4F" points="206.746 78.605 190.746 78.605 190.746 62.605 203.579 62.605 203.579 64.605 192.746 64.605 192.746 76.605 204.746 76.605 204.746 69.689 206.746 69.689 206.746 78.605"/>
    <path fill="#434A4F" d="M171.731,193.336 L213.992,193.336 L213.992,167.854 L171.731,167.854 L171.731,193.336 Z M169.731,195.336 L215.992,195.336 L215.992,165.854 L169.731,165.854 L169.731,195.336 Z"/>
    <path fill="#434A4F" d="M192.862,181.873 C192.676,181.873 192.489,181.821 192.325,181.716 L176.201,171.441 L177.275,169.753 L192.86,179.686 L207.81,170.094 L208.89,171.778 L193.402,181.714 C193.238,181.82 193.05,181.873 192.862,181.873"/>
    <polyline fill="#434A4F" points="210.832 191.408 201.909 180.702 203.446 179.42 212.369 190.126 210.832 191.408"/>
    <polyline fill="#434A4F" points="174.892 191.408 173.354 190.126 182.277 179.42 183.814 180.702 174.892 191.408"/>
    <polygon fill="#434A4F" points="193.713 211.268 195.713 211.268 195.713 197.232 193.713 197.232"/>
    <path fill="#434A4F" d="M194.714,215.617 C194.444,215.617 194.194,215.506 194.004,215.317 C193.914,215.227 193.834,215.117 193.784,214.997 C193.734,214.876 193.714,214.747 193.714,214.617 C193.714,214.477 193.734,214.357 193.794,214.227 C193.844,214.107 193.914,213.997 194.004,213.907 C194.234,213.676 194.584,213.567 194.904,213.636 C194.974,213.647 195.034,213.667 195.094,213.687 C195.154,213.716 195.214,213.747 195.264,213.777 C195.324,213.817 195.374,213.857 195.414,213.907 C195.514,213.997 195.584,214.107 195.634,214.227 C195.684,214.357 195.714,214.477 195.714,214.617 C195.714,214.747 195.684,214.876 195.634,214.997 C195.584,215.117 195.514,215.227 195.414,215.317 C195.324,215.417 195.214,215.487 195.094,215.537 C194.974,215.586 194.844,215.617 194.714,215.617"/>
    <polygon fill="#434A4F" points="202.404 202.571 204.404 202.571 204.404 197.232 202.404 197.232"/>
    <path fill="#434A4F" d="M203.404,206.917 C203.134,206.917 202.884,206.817 202.694,206.626 C202.504,206.437 202.404,206.187 202.404,205.917 C202.404,205.657 202.514,205.397 202.694,205.207 C202.744,205.167 202.794,205.126 202.844,205.086 C202.904,205.046 202.964,205.017 203.024,204.997 C203.084,204.966 203.144,204.947 203.204,204.937 C203.534,204.867 203.884,204.977 204.114,205.207 C204.294,205.397 204.404,205.657 204.404,205.917 C204.404,206.187 204.304,206.437 204.114,206.626 C204.014,206.716 203.904,206.796 203.784,206.846 C203.664,206.897 203.534,206.917 203.404,206.917"/>
    <polygon fill="#434A4F" points="185.016 205.47 187.016 205.47 187.016 197.232 185.016 197.232"/>
    <path fill="#434A4F" d="M186.014,209.817 C185.884,209.817 185.754,209.787 185.634,209.737 C185.514,209.687 185.404,209.617 185.304,209.527 C185.114,209.336 185.014,209.077 185.014,208.817 C185.014,208.687 185.044,208.557 185.094,208.437 C185.144,208.307 185.214,208.197 185.304,208.107 C185.674,207.737 186.354,207.737 186.724,208.107 C186.904,208.296 187.014,208.546 187.014,208.817 C187.014,209.086 186.914,209.336 186.724,209.527 C186.534,209.707 186.284,209.817 186.014,209.817"/>
    <path fill="#42494E" d="M44.557,136.95 C43.155,134.19 42.911,131.05 43.87,128.107 C44.83,125.165 46.878,122.771 49.637,121.369 C52.396,119.967 55.536,119.72 58.48,120.681 C61.423,121.64 63.816,123.688 65.219,126.448 L63.435,127.354 C62.275,125.071 60.295,123.376 57.86,122.583 C55.425,121.791 52.827,121.991 50.543,123.152 C48.26,124.312 46.565,126.292 45.771,128.727 C44.978,131.162 45.18,133.76 46.34,136.043 L44.557,136.95"/>
    <path fill="#4193A9" d="M54.865,128.155 C53.968,128.155 53.072,128.497 52.39,129.178 C51.728,129.839 51.365,130.718 51.365,131.654 C51.365,132.588 51.728,133.467 52.39,134.128 C53.712,135.451 56.018,135.451 57.339,134.128 C58.001,133.467 58.365,132.588 58.365,131.654 C58.365,130.718 58.001,129.839 57.34,129.178 C56.657,128.497 55.761,128.155 54.865,128.155 Z M54.865,138.154 C53.128,138.154 51.496,137.477 50.268,136.25 C49.041,135.022 48.365,133.39 48.365,131.654 C48.365,129.917 49.041,128.285 50.268,127.057 C52.803,124.524 56.927,124.522 59.461,127.057 C60.689,128.285 61.365,129.917 61.365,131.654 C61.365,133.39 60.688,135.022 59.461,136.25 C58.233,137.477 56.601,138.154 54.865,138.154 Z"/>
    <path fill="#434A4F" d="M51.336,148.576 C51.596,148.576 51.859,148.596 52.125,148.638 C54.21,148.97 55.768,150.533 56.096,152.618 L56.456,154.905 L60.458,154.276 L60.098,151.988 C59.77,149.904 60.773,147.939 62.654,146.983 C64.537,146.025 66.715,146.374 68.206,147.868 L69.842,149.507 L72.709,146.646 L71.073,145.006 C69.582,143.512 69.239,141.333 70.2,139.453 C71.161,137.574 73.126,136.572 75.211,136.907 L77.498,137.271 L78.136,133.271 L75.849,132.907 C73.765,132.575 72.206,131.012 71.878,128.928 C71.55,126.843 72.554,124.878 74.436,123.921 L76.5,122.873 L74.71,119.352 L72.646,120.401 C70.765,121.356 68.585,121.011 67.095,119.516 C65.604,118.023 65.261,115.843 66.221,113.963 L67.275,111.901 L63.667,110.059 L62.614,112.122 C61.653,114 59.686,115.004 57.603,114.667 C55.519,114.335 53.96,112.774 53.632,110.689 L53.271,108.402 L49.27,109.031 L49.63,111.32 C49.958,113.404 48.955,115.369 47.074,116.325 C45.192,117.281 43.014,116.935 41.522,115.44 L39.886,113.801 L37.02,116.663 L38.656,118.302 C40.146,119.795 40.489,121.975 39.53,123.854 C38.57,125.734 36.603,126.739 34.519,126.402 L32.231,126.038 L31.594,130.038 L33.88,130.402 C35.965,130.734 37.523,132.296 37.852,134.381 C38.179,136.466 37.175,138.43 35.294,139.386 L33.23,140.436 L35.018,143.954 L37.082,142.905 C38.963,141.95 41.143,142.295 42.633,143.79 C44.124,145.284 44.467,147.463 43.507,149.343 L42.454,151.405 L46.061,153.248 L47.114,151.185 C47.952,149.545 49.556,148.576 51.336,148.576 Z M54.791,157.192 L54.121,152.928 C53.889,151.457 52.775,150.767 51.811,150.614 C50.848,150.459 49.574,150.768 48.896,152.095 L46.932,155.939 L39.762,152.276 L41.726,148.433 C42.404,147.106 41.908,145.894 41.218,145.203 C40.527,144.509 39.316,144.013 37.989,144.688 L34.141,146.643 L30.542,139.559 L34.388,137.603 C35.716,136.928 36.027,135.657 35.876,134.692 C35.724,133.727 35.038,132.612 33.565,132.376 L29.304,131.698 L30.571,123.747 L34.834,124.427 C36.301,124.659 37.304,123.816 37.748,122.945 C38.193,122.075 38.292,120.769 37.24,119.714 L34.191,116.661 L39.889,110.973 L42.938,114.028 C43.992,115.082 45.296,114.985 46.168,114.542 C47.039,114.099 47.887,113.102 47.655,111.63 L46.984,107.367 L54.937,106.115 L55.607,110.378 C55.839,111.85 56.953,112.54 57.917,112.693 C58.88,112.846 60.155,112.54 60.833,111.211 L62.796,107.368 L69.965,111.03 L68.002,114.874 C67.325,116.201 67.82,117.412 68.511,118.103 C69.2,118.795 70.41,119.292 71.74,118.618 L75.587,116.663 L79.189,123.75 L75.342,125.705 C74.013,126.379 73.702,127.652 73.854,128.618 C74.006,129.583 74.692,130.697 76.164,130.932 L80.426,131.611 L79.158,139.562 L74.896,138.881 C73.427,138.654 72.425,139.493 71.981,140.363 C71.536,141.233 71.436,142.539 72.489,143.594 L75.537,146.648 L69.839,152.335 L66.79,149.28 C65.737,148.225 64.433,148.324 63.561,148.765 C62.69,149.208 61.842,150.206 62.073,151.677 L62.744,155.942 L54.791,157.192 Z"/>
    <path fill="#434A4F" d="M52.884,117.756 C52.844,117.207 53.264,116.727 53.814,116.687 C54.364,116.647 54.844,117.067 54.884,117.617 C54.914,118.167 54.504,118.647 53.954,118.687 C53.924,118.687 53.904,118.687 53.884,118.687 C53.364,118.687 52.924,118.287 52.884,117.756 Z M57.644,118.957 L57.644,118.947 C57.104,118.836 56.764,118.296 56.884,117.756 C56.994,117.216 57.534,116.876 58.074,116.997 C58.614,117.117 58.954,117.647 58.834,118.187 C58.734,118.657 58.314,118.977 57.854,118.977 C57.784,118.977 57.714,118.966 57.644,118.957 Z M49.044,118.876 C48.854,118.357 49.124,117.777 49.634,117.586 C50.154,117.397 50.734,117.657 50.924,118.176 C51.114,118.697 50.854,119.267 50.334,119.466 C50.214,119.506 50.104,119.527 49.984,119.527 C49.574,119.527 49.194,119.277 49.044,118.876 Z M61.114,120.247 C60.624,119.977 60.444,119.376 60.714,118.886 C60.984,118.407 61.584,118.227 62.074,118.497 C62.554,118.756 62.734,119.367 62.464,119.846 C62.284,120.187 61.944,120.367 61.594,120.367 C61.424,120.367 61.264,120.327 61.114,120.247 Z M45.684,121.037 C45.354,120.586 45.444,119.966 45.884,119.636 C46.324,119.307 46.954,119.397 47.284,119.836 C47.614,120.277 47.524,120.907 47.084,121.237 C46.904,121.367 46.694,121.437 46.484,121.437 C46.184,121.437 45.884,121.296 45.684,121.037 Z M64.054,122.466 C63.664,122.067 63.664,121.437 64.054,121.046 C64.444,120.657 65.084,120.657 65.474,121.046 C65.864,121.437 65.864,122.067 65.474,122.466 C65.274,122.657 65.024,122.756 64.764,122.756 C64.504,122.756 64.254,122.657 64.054,122.466 Z M43.064,124.046 C42.624,123.716 42.534,123.086 42.864,122.647 C43.194,122.207 43.824,122.117 44.264,122.447 C44.704,122.787 44.794,123.407 44.464,123.857 L44.464,123.846 C44.264,124.117 43.964,124.247 43.664,124.247 C43.454,124.247 43.244,124.187 43.064,124.046 Z M66.274,125.426 C66.014,124.937 66.194,124.327 66.674,124.067 C67.164,123.796 67.764,123.977 68.034,124.466 C68.294,124.947 68.124,125.557 67.634,125.817 C67.484,125.907 67.324,125.947 67.154,125.947 C66.804,125.947 66.464,125.756 66.274,125.426 Z M41.404,127.687 C40.884,127.487 40.614,126.917 40.814,126.397 C41.004,125.876 41.584,125.617 42.094,125.807 C42.614,125.997 42.874,126.577 42.684,127.096 C42.534,127.497 42.154,127.747 41.744,127.747 C41.634,127.747 41.514,127.727 41.404,127.687 Z M67.564,128.886 C67.454,128.346 67.794,127.817 68.334,127.707 C68.874,127.586 69.404,127.926 69.524,128.466 C69.644,129.006 69.294,129.537 68.754,129.657 C68.684,129.676 68.614,129.676 68.544,129.676 C68.084,129.676 67.674,129.357 67.564,128.886 Z M40.824,131.636 C40.274,131.596 39.864,131.117 39.904,130.567 C39.944,130.017 40.424,129.607 40.974,129.647 C41.524,129.687 41.934,130.157 41.894,130.716 C41.864,131.237 41.424,131.636 40.904,131.636 C40.874,131.636 40.854,131.636 40.824,131.636 Z M68.754,133.647 C68.204,133.617 67.794,133.136 67.834,132.586 C67.874,132.037 68.344,131.617 68.904,131.657 C69.454,131.697 69.864,132.176 69.824,132.727 C69.784,133.256 69.354,133.657 68.834,133.657 C68.804,133.657 68.784,133.657 68.754,133.647 Z M40.204,134.827 C40.084,134.287 40.434,133.756 40.974,133.636 C41.514,133.527 42.044,133.867 42.154,134.407 C42.274,134.947 41.934,135.477 41.394,135.596 C41.324,135.607 41.254,135.617 41.184,135.617 C40.724,135.617 40.304,135.296 40.204,134.827 Z M67.634,137.487 C67.114,137.296 66.854,136.716 67.044,136.207 L67.044,136.197 C67.244,135.687 67.814,135.417 68.334,135.617 C68.844,135.807 69.114,136.386 68.924,136.897 C68.774,137.296 68.384,137.546 67.984,137.546 C67.864,137.546 67.744,137.527 67.634,137.487 Z M41.694,138.836 C41.424,138.346 41.604,137.737 42.094,137.477 C42.574,137.207 43.184,137.386 43.444,137.876 C43.714,138.357 43.534,138.966 43.044,139.227 C42.894,139.317 42.734,139.357 42.564,139.357 C42.214,139.357 41.874,139.167 41.694,138.836 Z M65.474,140.846 C65.024,140.517 64.934,139.886 65.274,139.447 C65.604,139.006 66.234,138.917 66.674,139.247 C67.114,139.577 67.204,140.207 66.874,140.647 C66.674,140.907 66.374,141.046 66.074,141.046 C65.864,141.046 65.654,140.987 65.474,140.846 Z M44.254,142.256 C43.864,141.857 43.864,141.227 44.254,140.836 C44.644,140.447 45.274,140.447 45.664,140.836 C46.054,141.227 46.054,141.867 45.664,142.256 C45.464,142.447 45.214,142.546 44.954,142.546 C44.704,142.546 44.444,142.447 44.254,142.256 Z M62.454,143.466 C62.124,143.027 62.204,142.397 62.654,142.067 C63.094,141.737 63.714,141.827 64.054,142.267 C64.384,142.707 64.294,143.336 63.854,143.667 C63.674,143.796 63.464,143.867 63.254,143.867 C62.944,143.867 62.644,143.727 62.454,143.466 Z M47.664,144.817 C47.184,144.546 47.004,143.947 47.264,143.457 C47.534,142.977 48.144,142.796 48.624,143.057 C49.114,143.327 49.284,143.937 49.024,144.417 C48.844,144.747 48.494,144.937 48.144,144.937 C47.984,144.937 47.814,144.897 47.664,144.817 Z M58.814,145.126 C58.624,144.607 58.884,144.027 59.404,143.836 C59.924,143.647 60.494,143.907 60.684,144.426 C60.884,144.947 60.614,145.517 60.104,145.716 C59.984,145.756 59.864,145.777 59.754,145.777 C59.344,145.777 58.964,145.527 58.814,145.126 Z M51.664,146.307 C51.124,146.187 50.784,145.657 50.904,145.117 C51.014,144.577 51.554,144.237 52.094,144.357 C52.634,144.466 52.974,145.006 52.854,145.546 C52.754,146.017 52.344,146.336 51.884,146.336 C51.814,146.336 51.734,146.327 51.664,146.307 Z M54.854,145.687 C54.814,145.136 55.234,144.657 55.784,144.617 C56.334,144.586 56.814,144.997 56.854,145.546 C56.894,146.096 56.474,146.577 55.924,146.617 C55.904,146.617 55.874,146.617 55.854,146.617 C55.334,146.617 54.894,146.216 54.854,145.687 Z"/>
    <path fill="#42494E" d="M72.969,176.431 C67.046,176.431 62.228,181.25 62.228,187.172 C62.228,193.095 67.046,197.914 72.969,197.914 C78.892,197.914 83.71,193.095 83.71,187.172 C83.71,181.25 78.892,176.431 72.969,176.431 Z M72.969,199.914 C65.943,199.914 60.228,194.198 60.228,187.172 C60.228,180.147 65.943,174.431 72.969,174.431 C79.994,174.431 85.71,180.147 85.71,187.172 C85.71,194.198 79.994,199.914 72.969,199.914 Z"/>
    <path fill="#42494E" d="M72.968,176.431 C70.083,176.431 67.645,181.35 67.645,187.172 C67.645,192.995 70.083,197.914 72.968,197.914 C75.852,197.914 78.29,192.995 78.29,187.172 C78.29,181.35 75.852,176.431 72.968,176.431 Z M72.968,199.914 C68.862,199.914 65.646,194.317 65.646,187.172 C65.646,180.028 68.862,174.431 72.968,174.431 C77.074,174.431 80.29,180.028 80.29,187.172 C80.29,194.317 77.074,199.914 72.968,199.914 Z"/>
    <polygon fill="#42494E" points="61.227 188.172 84.709 188.172 84.709 186.172 61.227 186.172"/>
    <polygon fill="#434A4F" points="56.589 206.696 58.589 206.696 58.589 202.696 56.589 202.696"/>
    <polygon fill="#434A4F" points="56.589 216.696 58.589 216.696 58.589 212.696 56.589 212.696"/>
    <polygon fill="#434A4F" points="60.589 210.696 64.589 210.696 64.589 208.696 60.589 208.696"/>
    <polygon fill="#434A4F" points="50.589 210.696 54.589 210.696 54.589 208.696 50.589 208.696"/>
    <polygon fill="#434A4F" points="56.589 76.618 58.589 76.618 58.589 72.618 56.589 72.618"/>
    <polygon fill="#434A4F" points="56.589 86.618 58.589 86.618 58.589 82.618 56.589 82.618"/>
    <polygon fill="#434A4F" points="60.589 80.618 64.589 80.618 64.589 78.618 60.589 78.618"/>
    <polygon fill="#434A4F" points="50.589 80.618 54.589 80.618 54.589 78.618 50.589 78.618"/>
    <path fill="#DDDED9" d="M190.744,148.527 C190.744,150.184 189.401,151.527 187.744,151.527 C186.087,151.527 184.744,150.184 184.744,148.527 C184.744,146.87 186.087,145.527 187.744,145.527 C189.401,145.527 190.744,146.87 190.744,148.527"/>
    <path fill="#4193A9" d="M62.744 96.527C62.744 98.184 61.401 99.527 59.744 99.527 58.087 99.527 56.744 98.184 56.744 96.527 56.744 94.87 58.087 93.527 59.744 93.527 61.401 93.527 62.744 94.87 62.744 96.527M120.744 213.527C120.744 215.736 118.953 217.527 116.744 217.527 114.535 217.527 112.744 215.736 112.744 213.527 112.744 211.318 114.535 209.527 116.744 209.527 118.953 209.527 120.744 211.318 120.744 213.527"/>
  </g>
</svg>
