<svg xmlns="http://www.w3.org/2000/svg" width="250" height="250" viewBox="0 0 250 250">
  <g fill="none" fill-rule="evenodd">
    <path fill="#434A4F" d="M124.269,30.508 C123.719,30.499 123.279,30.048 123.29,29.489 C123.299,28.938 123.75,28.499 124.299,28.508 C124.859,28.518 125.299,28.978 125.29,29.529 C125.279,30.068 124.83,30.508 124.29,30.508 C124.279,30.508 124.279,30.508 124.269,30.508 Z M119.29,29.558 C119.269,28.999 119.709,28.539 120.259,28.529 C120.809,28.508 121.269,28.949 121.29,29.499 C121.299,30.058 120.87,30.518 120.319,30.529 C120.309,30.529 120.299,30.529 120.29,30.529 C119.75,30.529 119.299,30.098 119.29,29.558 Z M128.219,30.668 C127.669,30.628 127.25,30.159 127.279,29.608 C127.319,29.048 127.79,28.628 128.339,28.668 C128.889,28.699 129.319,29.178 129.279,29.728 C129.25,30.258 128.809,30.668 128.279,30.668 C128.259,30.668 128.24,30.668 128.219,30.668 Z M115.299,29.789 C115.259,29.239 115.669,28.758 116.219,28.728 C116.769,28.688 117.25,29.098 117.29,29.648 C117.33,30.199 116.91,30.678 116.359,30.718 C116.339,30.718 116.319,30.718 116.299,30.718 C115.769,30.718 115.33,30.318 115.299,29.789 Z M132.16,30.989 C131.609,30.938 131.209,30.438 131.269,29.898 C131.33,29.348 131.819,28.949 132.37,29.008 C132.919,29.058 133.319,29.548 133.259,30.098 C133.209,30.619 132.769,30.999 132.269,30.999 C132.229,30.999 132.2,30.999 132.16,30.989 Z M111.319,30.209 C111.25,29.659 111.649,29.159 112.2,29.098 C112.75,29.029 113.24,29.428 113.309,29.978 C113.37,30.529 112.979,31.018 112.429,31.079 L112.429,31.089 C112.389,31.089 112.349,31.089 112.309,31.089 C111.809,31.089 111.379,30.718 111.319,30.209 Z M136.08,31.499 C135.54,31.409 135.16,30.898 135.24,30.358 C135.33,29.808 135.839,29.428 136.379,29.518 C136.929,29.598 137.299,30.108 137.219,30.648 C137.149,31.148 136.719,31.508 136.229,31.508 C136.189,31.508 136.129,31.499 136.08,31.499 Z M107.359,30.798 C107.279,30.249 107.649,29.739 108.189,29.648 C108.74,29.558 109.25,29.928 109.339,30.478 C109.419,31.018 109.059,31.539 108.509,31.619 C108.459,31.628 108.399,31.638 108.349,31.638 C107.87,31.638 107.439,31.289 107.359,30.798 Z M139.979,32.168 C139.439,32.058 139.08,31.539 139.189,30.999 C139.299,30.449 139.819,30.098 140.37,30.209 C140.37,30.209 140.37,30.209 140.359,30.209 C140.91,30.308 141.259,30.839 141.149,31.378 C141.059,31.858 140.639,32.188 140.169,32.188 C140.109,32.188 140.04,32.178 139.979,32.168 Z M103.439,31.558 C103.33,31.018 103.679,30.489 104.219,30.379 C104.759,30.268 105.29,30.608 105.399,31.148 C105.509,31.699 105.16,32.218 104.62,32.339 C104.549,32.348 104.49,32.358 104.419,32.358 C103.95,32.358 103.54,32.029 103.439,31.558 Z M143.839,33.018 C143.299,32.888 142.979,32.348 143.109,31.808 C143.24,31.279 143.779,30.949 144.309,31.079 C144.849,31.209 145.179,31.749 145.049,32.289 C144.939,32.739 144.529,33.048 144.08,33.048 C144,33.048 143.919,33.039 143.839,33.018 Z M99.549,32.499 C99.419,31.959 99.74,31.418 100.279,31.279 C100.809,31.148 101.359,31.468 101.49,32.008 C101.629,32.539 101.299,33.089 100.769,33.218 C100.689,33.239 100.599,33.249 100.519,33.249 C100.069,33.249 99.669,32.949 99.549,32.499 Z M147.66,34.039 C147.129,33.888 146.83,33.329 146.979,32.798 C147.129,32.268 147.689,31.968 148.219,32.119 C148.75,32.279 149.059,32.829 148.899,33.358 C148.769,33.798 148.37,34.079 147.939,34.079 C147.849,34.079 147.75,34.068 147.66,34.039 Z M95.71,33.608 C95.549,33.079 95.849,32.518 96.379,32.358 C96.91,32.199 97.469,32.499 97.629,33.029 C97.779,33.558 97.49,34.119 96.96,34.279 C96.859,34.308 96.769,34.318 96.669,34.318 C96.24,34.318 95.839,34.039 95.71,33.608 Z M151.429,35.228 C150.91,35.048 150.629,34.489 150.809,33.968 C150.979,33.438 151.549,33.159 152.069,33.339 C152.599,33.518 152.879,34.089 152.7,34.608 C152.559,35.029 152.169,35.289 151.75,35.289 C151.639,35.289 151.54,35.268 151.429,35.228 Z M91.919,34.888 C91.74,34.369 92.019,33.798 92.54,33.619 C93.059,33.438 93.629,33.709 93.809,34.228 C93.99,34.749 93.719,35.318 93.2,35.508 C93.089,35.539 92.979,35.558 92.87,35.558 C92.46,35.558 92.069,35.308 91.919,34.888 Z M155.149,36.598 C154.639,36.398 154.379,35.808 154.589,35.298 C154.79,34.789 155.37,34.529 155.879,34.728 C156.399,34.938 156.649,35.508 156.45,36.029 C156.29,36.418 155.919,36.659 155.519,36.659 C155.399,36.659 155.269,36.638 155.149,36.598 Z M88.2,36.339 C87.99,35.829 88.24,35.249 88.749,35.039 C89.259,34.839 89.849,35.089 90.049,35.598 C90.259,36.108 90.009,36.688 89.499,36.898 C89.379,36.949 89.249,36.968 89.129,36.968 C88.729,36.968 88.359,36.728 88.2,36.339 Z M158.809,38.119 C158.299,37.898 158.08,37.308 158.299,36.798 C158.529,36.298 159.12,36.068 159.62,36.289 C160.12,36.518 160.349,37.108 160.129,37.619 C159.959,37.989 159.599,38.209 159.209,38.209 C159.08,38.209 158.939,38.178 158.809,38.119 Z M84.549,37.959 C84.319,37.459 84.54,36.858 85.049,36.629 C85.549,36.398 86.139,36.629 86.37,37.129 C86.599,37.628 86.379,38.218 85.87,38.449 C85.74,38.518 85.599,38.539 85.46,38.539 C85.08,38.539 84.719,38.329 84.549,37.959 Z M162.389,39.808 C161.899,39.558 161.7,38.959 161.939,38.468 C162.189,37.978 162.79,37.779 163.29,38.018 C163.779,38.268 163.979,38.869 163.729,39.358 C163.559,39.709 163.2,39.918 162.839,39.918 C162.689,39.918 162.529,39.878 162.389,39.808 Z M80.979,39.728 C80.719,39.239 80.919,38.638 81.41,38.388 C81.899,38.138 82.509,38.329 82.759,38.818 C83.009,39.308 82.809,39.918 82.319,40.168 C82.179,40.239 82.019,40.279 81.87,40.279 C81.499,40.279 81.149,40.079 80.979,39.728 Z M165.899,41.659 C165.41,41.388 165.24,40.779 165.509,40.298 C165.769,39.818 166.379,39.638 166.87,39.909 C167.349,40.178 167.519,40.789 167.259,41.268 C167.069,41.598 166.729,41.789 166.379,41.789 C166.219,41.789 166.049,41.739 165.899,41.659 Z M77.479,41.659 C77.21,41.178 77.379,40.568 77.859,40.298 C78.339,40.029 78.95,40.199 79.219,40.678 C79.49,41.159 79.319,41.768 78.839,42.039 L78.849,42.039 C78.689,42.128 78.519,42.168 78.349,42.168 C78.009,42.168 77.669,41.989 77.479,41.659 Z M169.309,43.659 C168.839,43.369 168.689,42.749 168.979,42.279 C169.269,41.808 169.889,41.668 170.359,41.959 C170.83,42.249 170.979,42.858 170.689,43.329 C170.5,43.638 170.169,43.808 169.83,43.808 C169.66,43.808 169.479,43.758 169.309,43.659 Z M74.08,43.749 C73.779,43.279 73.919,42.659 74.389,42.369 C74.859,42.079 75.479,42.218 75.769,42.688 C76.059,43.148 75.919,43.768 75.45,44.058 C75.29,44.168 75.109,44.218 74.919,44.218 C74.589,44.218 74.269,44.048 74.08,43.749 Z M172.639,45.808 C172.179,45.499 172.059,44.878 172.37,44.419 C172.679,43.959 173.299,43.839 173.759,44.148 C173.759,44.148 173.759,44.148 173.759,44.159 C174.219,44.468 174.339,45.089 174.019,45.548 C173.83,45.829 173.519,45.978 173.2,45.978 C173,45.978 172.809,45.928 172.639,45.808 Z M70.769,45.978 C70.45,45.529 70.559,44.909 71.019,44.589 C71.469,44.279 72.099,44.388 72.41,44.848 C72.719,45.298 72.609,45.919 72.16,46.239 C71.979,46.358 71.779,46.418 71.589,46.418 C71.269,46.418 70.96,46.268 70.769,45.978 Z M175.859,48.098 C175.419,47.768 175.33,47.148 175.649,46.709 C175.979,46.258 176.609,46.168 177.059,46.499 C177.5,46.829 177.589,47.459 177.259,47.898 C177.059,48.159 176.759,48.298 176.459,48.298 C176.25,48.298 176.04,48.239 175.859,48.098 Z M67.559,48.358 C67.219,47.918 67.309,47.298 67.749,46.959 C68.189,46.628 68.819,46.709 69.149,47.148 C69.479,47.589 69.399,48.218 68.96,48.558 C68.769,48.688 68.559,48.758 68.349,48.758 C68.049,48.758 67.749,48.619 67.559,48.358 Z M178.979,50.539 C178.549,50.188 178.49,49.558 178.839,49.129 C179.179,48.699 179.819,48.638 180.24,48.989 C180.669,49.339 180.729,49.968 180.389,50.398 C180.189,50.638 179.899,50.758 179.609,50.758 C179.389,50.758 179.16,50.688 178.979,50.539 Z M64.45,50.888 C64.099,50.459 64.16,49.829 64.58,49.478 C64.58,49.478 64.58,49.478 64.589,49.478 C65.009,49.119 65.639,49.178 65.99,49.608 C66.339,50.029 66.29,50.659 65.859,51.008 L65.859,51.018 C65.679,51.169 65.45,51.249 65.219,51.249 C64.939,51.249 64.649,51.119 64.45,50.888 Z M181.99,53.108 C181.569,52.739 181.54,52.108 181.91,51.699 C182.269,51.279 182.91,51.249 183.319,51.619 C183.729,51.978 183.769,52.619 183.399,53.029 C183.2,53.249 182.929,53.358 182.649,53.358 C182.41,53.358 182.179,53.279 181.99,53.108 Z M61.469,53.539 C61.099,53.128 61.12,52.499 61.529,52.129 C61.939,51.758 62.569,51.789 62.939,52.188 C63.319,52.598 63.29,53.228 62.879,53.608 C62.689,53.779 62.45,53.869 62.209,53.869 C61.929,53.869 61.66,53.758 61.469,53.539 Z M184.879,55.808 C184.479,55.418 184.469,54.789 184.859,54.388 C185.24,53.999 185.879,53.989 186.269,54.379 C186.669,54.758 186.669,55.398 186.29,55.789 C186.089,55.989 185.83,56.089 185.569,56.089 C185.319,56.089 185.069,55.999 184.879,55.808 Z M58.599,56.329 C58.209,55.928 58.209,55.298 58.599,54.909 C58.99,54.518 59.629,54.518 60.019,54.919 C60.41,55.308 60.399,55.938 60.009,56.329 C59.819,56.518 59.559,56.619 59.309,56.619 C59.049,56.619 58.79,56.518 58.599,56.329 Z M187.639,58.628 C187.269,58.228 187.29,57.598 187.689,57.218 C188.089,56.839 188.719,56.858 189.099,57.268 C189.479,57.668 189.459,58.298 189.059,58.678 C188.859,58.858 188.62,58.949 188.37,58.949 C188.109,58.949 187.839,58.839 187.639,58.628 Z M55.859,59.228 C55.45,58.858 55.419,58.228 55.799,57.818 C56.169,57.418 56.809,57.388 57.21,57.768 C57.62,58.138 57.639,58.768 57.269,59.178 C57.069,59.388 56.799,59.499 56.529,59.499 C56.29,59.499 56.049,59.409 55.859,59.228 Z M190.279,61.579 C189.919,61.159 189.969,60.529 190.389,60.169 C190.809,59.808 191.439,59.848 191.799,60.268 C192.16,60.688 192.109,61.318 191.689,61.678 C191.5,61.848 191.269,61.919 191.04,61.919 C190.759,61.919 190.479,61.808 190.279,61.579 Z M53.24,62.268 C52.819,61.909 52.759,61.279 53.12,60.848 C53.479,60.428 54.109,60.379 54.529,60.728 C54.95,61.089 55.009,61.718 54.649,62.148 C54.45,62.378 54.169,62.499 53.879,62.499 C53.66,62.499 53.429,62.418 53.24,62.268 Z M192.79,64.628 C192.45,64.199 192.519,63.568 192.959,63.228 C193.389,62.888 194.019,62.959 194.359,63.398 C194.7,63.829 194.629,64.459 194.189,64.798 C194.009,64.938 193.79,65.008 193.58,65.008 C193.279,65.008 192.99,64.878 192.79,64.628 Z M50.769,65.409 C50.33,65.068 50.24,64.438 50.58,63.999 C50.919,63.558 51.549,63.478 51.979,63.818 C52.419,64.159 52.5,64.789 52.169,65.218 C51.969,65.478 51.669,65.608 51.37,65.608 C51.16,65.608 50.95,65.548 50.769,65.409 Z M195.16,67.789 L195.16,67.798 C194.839,67.339 194.939,66.718 195.389,66.398 C195.839,66.079 196.459,66.178 196.79,66.628 C197.109,67.079 197,67.699 196.549,68.029 C196.379,68.148 196.179,68.209 195.969,68.209 C195.66,68.209 195.349,68.068 195.16,67.789 Z M48.429,68.659 C47.979,68.339 47.87,67.709 48.179,67.258 C48.499,66.808 49.129,66.699 49.58,67.018 C50.029,67.339 50.139,67.959 49.819,68.409 C49.629,68.688 49.319,68.839 48.999,68.839 C48.799,68.839 48.599,68.779 48.429,68.659 Z M197.389,71.058 C197.08,70.589 197.219,69.978 197.679,69.669 C198.139,69.369 198.759,69.508 199.059,69.968 C199.359,70.428 199.229,71.048 198.769,71.348 C198.599,71.459 198.41,71.508 198.229,71.508 C197.899,71.508 197.58,71.348 197.389,71.058 Z M46.24,72.008 C45.769,71.709 45.629,71.089 45.929,70.628 C46.229,70.159 46.849,70.018 47.309,70.318 C47.779,70.619 47.91,71.228 47.62,71.699 C47.429,71.999 47.109,72.159 46.769,72.159 C46.589,72.159 46.399,72.108 46.24,72.008 Z M199.459,74.419 C199.179,73.938 199.339,73.329 199.819,73.048 C200.29,72.768 200.91,72.919 201.189,73.398 C201.469,73.879 201.309,74.489 200.83,74.768 C200.669,74.858 200.5,74.909 200.319,74.909 C199.979,74.909 199.649,74.728 199.459,74.419 Z M44.2,75.449 C43.719,75.169 43.559,74.558 43.83,74.079 C44.109,73.608 44.719,73.438 45.2,73.718 C45.679,73.989 45.839,74.608 45.559,75.089 C45.379,75.409 45.04,75.579 44.7,75.579 C44.529,75.579 44.359,75.539 44.2,75.449 Z M201.389,77.858 C201.129,77.369 201.319,76.768 201.799,76.508 C202.29,76.249 202.899,76.438 203.16,76.928 C203.419,77.409 203.229,78.018 202.74,78.279 C202.589,78.358 202.429,78.388 202.279,78.388 C201.919,78.388 201.569,78.199 201.389,77.858 Z M42.309,78.978 C41.819,78.728 41.629,78.128 41.889,77.638 C42.139,77.138 42.75,76.949 43.24,77.209 C43.729,77.459 43.919,78.068 43.66,78.558 C43.479,78.898 43.139,79.098 42.769,79.098 C42.62,79.098 42.46,79.058 42.309,78.978 Z M203.16,81.388 C202.919,80.888 203.139,80.289 203.639,80.058 C204.129,79.818 204.729,80.029 204.969,80.529 C205.2,81.029 204.99,81.628 204.49,81.858 C204.359,81.928 204.209,81.959 204.069,81.959 C203.689,81.959 203.33,81.749 203.16,81.388 Z M40.589,82.598 C40.089,82.369 39.87,81.768 40.099,81.268 C40.33,80.768 40.929,80.548 41.429,80.779 C41.929,81.018 42.149,81.608 41.919,82.108 C41.749,82.478 41.389,82.688 41.009,82.688 C40.87,82.688 40.729,82.659 40.589,82.598 Z M204.769,84.989 C204.559,84.478 204.799,83.888 205.309,83.678 C205.819,83.459 206.399,83.699 206.62,84.209 C206.83,84.718 206.589,85.308 206.08,85.518 C205.95,85.579 205.819,85.598 205.689,85.598 C205.299,85.598 204.929,85.369 204.769,84.989 Z M39.029,86.289 C38.519,86.079 38.269,85.499 38.479,84.978 C38.689,84.468 39.279,84.228 39.79,84.438 C40.299,84.648 40.54,85.228 40.33,85.739 C40.169,86.128 39.799,86.358 39.41,86.358 C39.279,86.358 39.149,86.339 39.029,86.289 Z M206.219,88.659 C206.029,88.138 206.29,87.558 206.809,87.369 C207.33,87.178 207.899,87.449 208.099,87.959 C208.29,88.478 208.019,89.058 207.509,89.249 C207.389,89.289 207.269,89.308 207.16,89.308 C206.75,89.308 206.37,89.058 206.219,88.659 Z M37.629,90.048 C37.109,89.858 36.839,89.289 37.029,88.768 C37.219,88.249 37.79,87.978 38.309,88.169 C38.83,88.348 39.099,88.919 38.91,89.438 C38.759,89.848 38.379,90.098 37.969,90.098 C37.859,90.098 37.74,90.089 37.629,90.048 Z M207.509,92.398 C207.339,91.869 207.629,91.308 208.16,91.138 C208.679,90.968 209.24,91.258 209.41,91.789 C209.58,92.308 209.29,92.878 208.769,93.048 C208.66,93.079 208.559,93.089 208.459,93.089 C208.04,93.089 207.639,92.818 207.509,92.398 Z M36.41,93.858 C35.879,93.699 35.58,93.138 35.749,92.608 C35.749,92.608 35.749,92.608 35.74,92.608 C35.91,92.079 36.469,91.789 36.99,91.949 C37.519,92.119 37.819,92.678 37.66,93.199 C37.519,93.628 37.129,93.909 36.7,93.909 C36.599,93.909 36.499,93.888 36.41,93.858 Z M208.629,96.188 C208.479,95.648 208.799,95.108 209.33,94.959 C209.859,94.818 210.41,95.128 210.559,95.669 C210.559,95.669 210.559,95.669 210.559,95.659 C210.7,96.199 210.389,96.749 209.849,96.888 C209.769,96.919 209.679,96.928 209.589,96.928 C209.149,96.928 208.75,96.628 208.629,96.188 Z M35.349,97.718 C34.819,97.579 34.5,97.039 34.639,96.499 C34.779,95.968 35.319,95.648 35.859,95.789 C36.389,95.928 36.709,96.468 36.569,97.008 C36.459,97.459 36.049,97.749 35.609,97.749 C35.519,97.749 35.439,97.739 35.349,97.718 Z M209.569,100.029 C209.45,99.489 209.79,98.949 210.33,98.829 C210.87,98.709 211.399,99.048 211.529,99.589 C211.529,99.589 211.529,99.589 211.519,99.589 C211.639,100.128 211.309,100.659 210.769,100.779 C210.689,100.798 210.62,100.808 210.549,100.808 C210.089,100.808 209.679,100.489 209.569,100.029 Z M34.479,101.619 C33.939,101.508 33.589,100.978 33.709,100.438 C33.819,99.898 34.349,99.548 34.889,99.669 C35.429,99.779 35.779,100.308 35.66,100.858 C35.559,101.318 35.149,101.648 34.689,101.648 C34.62,101.648 34.549,101.638 34.479,101.619 Z M210.349,103.898 C210.25,103.358 210.609,102.838 211.16,102.739 C211.7,102.648 212.219,103.008 212.319,103.558 C212.41,104.098 212.049,104.619 211.509,104.709 C211.45,104.718 211.389,104.728 211.33,104.728 C210.849,104.728 210.429,104.388 210.349,103.898 Z M33.779,105.558 C33.229,105.468 32.859,104.949 32.95,104.409 C33.04,103.858 33.559,103.499 34.109,103.588 C34.649,103.678 35.019,104.188 34.929,104.739 C34.849,105.228 34.419,105.568 33.939,105.568 C33.889,105.568 33.83,105.568 33.779,105.558 Z M210.95,107.808 C210.87,107.258 211.259,106.758 211.809,106.688 C212.359,106.619 212.859,106.999 212.929,107.548 C213,108.098 212.62,108.598 212.069,108.669 C212.029,108.678 211.979,108.678 211.939,108.678 C211.45,108.678 211.019,108.308 210.95,107.808 Z M33.249,109.518 C32.7,109.459 32.309,108.959 32.379,108.409 C32.439,107.858 32.939,107.468 33.49,107.539 C34.04,107.608 34.429,108.098 34.359,108.648 C34.299,109.159 33.87,109.529 33.37,109.529 C33.33,109.529 33.29,109.529 33.249,109.518 Z M211.379,111.739 C211.33,111.188 211.74,110.709 212.29,110.659 C212.839,110.608 213.319,111.018 213.37,111.568 C213.419,112.119 213.009,112.608 212.459,112.648 C212.429,112.648 212.399,112.659 212.37,112.659 C211.859,112.659 211.419,112.258 211.379,111.739 Z M32.899,113.508 C32.349,113.459 31.939,112.978 31.979,112.438 C31.979,112.438 31.979,112.438 31.979,112.428 C32.019,111.878 32.499,111.468 33.049,111.508 C33.599,111.558 34.009,112.039 33.969,112.588 C33.929,113.108 33.49,113.508 32.979,113.508 C32.95,113.508 32.929,113.508 32.899,113.508 Z M211.629,115.688 C211.609,115.138 212.029,114.669 212.589,114.648 C213.139,114.619 213.599,115.048 213.629,115.608 C213.649,116.159 213.219,116.619 212.669,116.648 C212.66,116.648 212.639,116.648 212.629,116.648 C212.099,116.648 211.649,116.228 211.629,115.688 Z M32.719,117.499 C32.169,117.478 31.74,117.018 31.759,116.468 C31.769,115.919 32.24,115.478 32.79,115.508 C33.339,115.518 33.769,115.978 33.759,116.539 L33.759,116.529 C33.74,117.079 33.299,117.499 32.759,117.499 C32.749,117.499 32.74,117.499 32.719,117.499 Z M211.709,119.638 C211.709,119.088 212.16,118.638 212.709,118.638 C213.259,118.648 213.709,119.088 213.709,119.648 C213.709,120.199 213.259,120.648 212.709,120.648 C212.149,120.638 211.709,120.199 211.709,119.638 Z M31.71,120.508 C31.71,119.959 32.149,119.508 32.7,119.499 C33.259,119.499 33.709,119.938 33.709,120.489 C33.719,121.039 33.279,121.499 32.719,121.499 C32.169,121.499 31.719,121.058 31.71,120.508 Z M212.569,124.638 C212.019,124.608 211.589,124.148 211.62,123.598 C211.639,123.048 212.109,122.619 212.66,122.638 C213.209,122.669 213.639,123.138 213.609,123.688 C213.589,124.218 213.149,124.638 212.62,124.638 C212.599,124.638 212.589,124.638 212.569,124.638 Z M31.849,124.548 C31.809,123.999 32.24,123.529 32.79,123.499 C33.339,123.468 33.809,123.888 33.839,124.438 C33.87,124.999 33.45,125.468 32.899,125.499 C32.879,125.499 32.859,125.499 32.849,125.499 C32.319,125.499 31.87,125.088 31.849,124.548 Z M212.259,128.628 C211.709,128.579 211.299,128.088 211.349,127.539 C211.399,126.989 211.889,126.588 212.439,126.638 C212.99,126.688 213.389,127.169 213.339,127.718 C213.299,128.239 212.859,128.628 212.349,128.628 C212.319,128.628 212.29,128.628 212.259,128.628 Z M32.16,128.579 C32.099,128.029 32.499,127.539 33.049,127.489 C33.599,127.438 34.089,127.838 34.149,128.388 C34.2,128.928 33.799,129.428 33.249,129.478 C33.219,129.478 33.179,129.489 33.149,129.489 C32.639,129.489 32.209,129.098 32.16,128.579 Z M211.769,132.598 C211.219,132.518 210.839,132.018 210.91,131.468 L210.91,131.478 C210.979,130.928 211.49,130.539 212.029,130.608 C212.58,130.688 212.969,131.188 212.889,131.739 C212.819,132.239 212.399,132.608 211.899,132.608 C211.859,132.608 211.809,132.598 211.769,132.598 Z M32.639,132.598 C32.569,132.048 32.939,131.539 33.49,131.468 C34.04,131.388 34.549,131.768 34.62,132.308 L34.629,132.308 C34.7,132.858 34.319,133.369 33.779,133.438 C33.729,133.449 33.679,133.459 33.639,133.459 C33.139,133.459 32.719,133.098 32.639,132.598 Z M211.099,136.548 C210.559,136.449 210.2,135.928 210.299,135.388 C210.389,134.838 210.91,134.478 211.459,134.579 C212,134.678 212.359,135.188 212.259,135.739 C212.179,136.218 211.759,136.558 211.279,136.558 C211.219,136.558 211.16,136.558 211.099,136.548 Z M33.309,136.588 C33.21,136.039 33.559,135.518 34.109,135.419 C34.649,135.308 35.169,135.669 35.269,136.209 C35.379,136.758 35.019,137.279 34.479,137.378 C34.419,137.388 34.349,137.398 34.29,137.398 C33.819,137.398 33.399,137.068 33.309,136.588 Z M210.259,140.459 C209.719,140.338 209.389,139.798 209.509,139.268 C209.629,138.728 210.16,138.388 210.7,138.508 C211.24,138.628 211.58,139.169 211.459,139.709 C211.349,140.169 210.939,140.478 210.479,140.478 C210.41,140.478 210.33,140.478 210.259,140.459 Z M34.149,140.539 C34.019,139.999 34.359,139.459 34.899,139.329 C35.429,139.199 35.969,139.539 36.099,140.068 C36.229,140.608 35.899,141.148 35.359,141.279 C35.279,141.298 35.2,141.308 35.129,141.308 C34.669,141.308 34.259,140.999 34.149,140.539 Z M209.24,144.329 C208.709,144.188 208.399,143.638 208.54,143.098 L208.549,143.098 C208.689,142.568 209.24,142.258 209.769,142.398 C210.309,142.548 210.62,143.098 210.469,143.628 C210.349,144.079 209.95,144.369 209.509,144.369 C209.419,144.369 209.33,144.358 209.24,144.329 Z M35.169,144.438 C35.019,143.909 35.33,143.358 35.859,143.209 C36.389,143.058 36.939,143.358 37.099,143.898 C37.24,144.428 36.939,144.978 36.41,145.128 C36.309,145.159 36.219,145.169 36.129,145.169 C35.7,145.169 35.299,144.878 35.169,144.438 Z M208.059,148.148 C207.529,147.978 207.24,147.419 207.41,146.898 C207.58,146.369 208.139,146.079 208.669,146.249 C209.2,146.419 209.479,146.978 209.319,147.508 C209.179,147.928 208.779,148.199 208.359,148.199 C208.259,148.199 208.16,148.188 208.059,148.148 Z M36.359,148.298 C36.189,147.779 36.469,147.209 36.99,147.039 C37.519,146.869 38.08,147.148 38.259,147.669 C38.439,148.199 38.149,148.758 37.629,148.938 C37.519,148.968 37.419,148.989 37.309,148.989 C36.889,148.989 36.499,148.718 36.359,148.298 Z M206.7,151.919 C206.179,151.728 205.919,151.148 206.109,150.628 C206.309,150.108 206.879,149.848 207.399,150.048 C207.919,150.239 208.179,150.818 207.979,151.329 C207.979,151.329 207.979,151.329 207.99,151.329 C207.839,151.728 207.45,151.978 207.049,151.978 C206.929,151.978 206.809,151.959 206.7,151.919 Z M37.729,152.108 C37.529,151.588 37.779,151.008 38.299,150.818 C38.819,150.619 39.389,150.869 39.589,151.388 C39.79,151.909 39.529,152.478 39.019,152.678 C38.899,152.728 38.779,152.749 38.66,152.749 C38.259,152.749 37.879,152.499 37.729,152.108 Z M205.169,155.619 C204.669,155.398 204.429,154.808 204.649,154.308 C204.859,153.798 205.45,153.558 205.959,153.779 C206.459,153.989 206.7,154.579 206.49,155.088 C206.319,155.468 205.95,155.699 205.559,155.699 C205.429,155.699 205.299,155.669 205.169,155.619 Z M39.259,155.848 C39.259,155.848 39.259,155.848 39.259,155.838 C39.04,155.338 39.269,154.749 39.779,154.529 C40.279,154.308 40.87,154.539 41.089,155.048 C41.309,155.548 41.08,156.138 40.569,156.358 C40.439,156.419 40.309,156.449 40.179,156.449 C39.79,156.449 39.419,156.218 39.259,155.848 Z M203.479,159.249 C202.979,159.008 202.779,158.409 203.009,157.909 L203.019,157.909 C203.25,157.419 203.849,157.209 204.349,157.438 C204.849,157.678 205.059,158.279 204.819,158.779 C204.649,159.138 204.29,159.348 203.919,159.348 C203.769,159.348 203.62,159.308 203.479,159.249 Z M40.96,159.508 C40.71,159.018 40.919,158.419 41.41,158.178 C41.91,157.928 42.509,158.138 42.75,158.628 C42.99,159.128 42.79,159.728 42.29,159.968 C42.149,160.039 42,160.068 41.849,160.068 C41.479,160.068 41.129,159.869 40.96,159.508 Z M201.639,162.798 C201.149,162.539 200.959,161.928 201.229,161.438 C201.49,160.959 202.089,160.768 202.58,161.029 C203.069,161.289 203.25,161.898 202.99,162.388 C202.809,162.718 202.459,162.909 202.109,162.909 C201.95,162.909 201.779,162.878 201.639,162.798 Z M42.819,163.098 C42.819,163.098 42.819,163.098 42.809,163.098 C42.549,162.619 42.729,162.008 43.21,161.739 C43.7,161.478 44.309,161.659 44.569,162.138 C44.839,162.628 44.66,163.228 44.169,163.499 C44.019,163.579 43.859,163.619 43.689,163.619 C43.339,163.619 42.999,163.428 42.819,163.098 Z M199.629,166.258 C199.149,165.978 199,165.358 199.279,164.888 C199.559,164.409 200.179,164.258 200.649,164.539 C201.129,164.818 201.279,165.428 201,165.909 C200.809,166.218 200.479,166.398 200.139,166.398 C199.969,166.398 199.79,166.348 199.629,166.258 Z M44.83,166.598 C44.549,166.128 44.7,165.518 45.169,165.228 C45.639,164.938 46.259,165.098 46.549,165.568 C46.83,166.039 46.679,166.648 46.209,166.938 C46.049,167.039 45.87,167.088 45.689,167.088 C45.349,167.088 45.019,166.909 44.83,166.598 Z M197.469,169.628 C197.009,169.318 196.879,168.709 197.189,168.239 C197.49,167.779 198.109,167.648 198.569,167.959 C199.029,168.258 199.16,168.878 198.859,169.338 C198.669,169.628 198.349,169.789 198.019,169.789 C197.83,169.789 197.639,169.739 197.469,169.628 Z M47.009,170.008 C46.7,169.558 46.819,168.928 47.279,168.628 C47.74,168.318 48.359,168.438 48.669,168.898 C48.979,169.358 48.849,169.978 48.389,170.289 C48.219,170.398 48.029,170.459 47.839,170.459 C47.519,170.459 47.2,170.298 47.009,170.008 Z M195.169,172.898 C194.719,172.579 194.62,171.949 194.939,171.499 C195.269,171.048 195.889,170.949 196.339,171.279 C196.79,171.598 196.889,172.218 196.569,172.669 C196.37,172.938 196.059,173.088 195.75,173.088 C195.549,173.088 195.349,173.018 195.169,172.898 Z M49.33,173.318 C48.999,172.878 49.099,172.249 49.54,171.928 C49.979,171.598 50.609,171.688 50.939,172.138 C51.269,172.579 51.169,173.209 50.729,173.539 C50.549,173.669 50.339,173.728 50.129,173.728 C49.83,173.728 49.519,173.588 49.33,173.318 Z M192.719,176.058 C192.29,175.718 192.219,175.088 192.559,174.659 C192.899,174.228 193.529,174.148 193.959,174.489 C194.399,174.838 194.469,175.468 194.129,175.898 C193.929,176.148 193.639,176.279 193.339,176.279 C193.129,176.279 192.91,176.209 192.719,176.058 Z M51.79,176.529 C51.439,176.098 51.509,175.468 51.939,175.119 C52.37,174.768 52.999,174.838 53.349,175.268 C53.689,175.699 53.629,176.329 53.2,176.678 C53.009,176.829 52.79,176.898 52.569,176.898 C52.279,176.898 51.99,176.768 51.79,176.529 Z M190.139,179.119 C189.719,178.749 189.679,178.119 190.04,177.709 C190.399,177.289 191.029,177.239 191.45,177.598 C191.859,177.968 191.91,178.598 191.549,179.018 C191.349,179.239 191.069,179.358 190.79,179.358 C190.559,179.358 190.33,179.279 190.139,179.119 Z M54.399,179.619 C54.029,179.199 54.069,178.568 54.49,178.209 C54.899,177.838 55.529,177.878 55.899,178.298 C56.259,178.709 56.219,179.338 55.809,179.709 C55.62,179.878 55.379,179.959 55.149,179.959 C54.87,179.959 54.589,179.838 54.399,179.619 Z M187.419,182.048 C187.019,181.669 187,181.039 187.379,180.638 C187.759,180.239 188.399,180.218 188.799,180.598 C189.2,180.978 189.219,181.608 188.839,182.008 C188.639,182.218 188.37,182.329 188.109,182.329 C187.859,182.329 187.62,182.228 187.419,182.048 Z M57.129,182.598 C56.749,182.199 56.759,181.558 57.16,181.178 C57.559,180.798 58.189,180.808 58.58,181.209 C58.959,181.608 58.95,182.239 58.549,182.619 C58.359,182.808 58.099,182.898 57.859,182.898 C57.589,182.898 57.33,182.798 57.129,182.598 Z M184.58,184.869 C184.2,184.468 184.209,183.838 184.599,183.449 C185,183.068 185.629,183.079 186.019,183.478 C186.399,183.869 186.389,184.499 186,184.888 C186,184.888 186,184.888 185.99,184.888 C185.799,185.079 185.549,185.169 185.299,185.169 C185.04,185.169 184.779,185.068 184.58,184.869 Z M60,185.438 C59.599,185.058 59.589,184.428 59.969,184.029 C60.349,183.628 60.979,183.608 61.379,183.999 C61.779,184.378 61.799,185.008 61.419,185.409 C61.219,185.619 60.96,185.718 60.689,185.718 C60.439,185.718 60.2,185.628 60,185.438 Z M181.62,187.548 C181.25,187.138 181.29,186.508 181.7,186.138 C182.109,185.768 182.75,185.808 183.109,186.228 C183.479,186.638 183.439,187.268 183.029,187.638 C182.839,187.808 182.599,187.888 182.359,187.888 C182.089,187.888 181.809,187.768 181.62,187.548 Z M62.99,188.169 C62.58,187.798 62.529,187.169 62.899,186.758 C63.259,186.338 63.889,186.289 64.309,186.659 C64.719,187.018 64.769,187.648 64.41,188.068 C64.21,188.298 63.929,188.409 63.649,188.409 C63.419,188.409 63.179,188.329 62.99,188.169 Z M178.54,190.098 C178.189,189.669 178.259,189.039 178.679,188.699 C179.109,188.348 179.74,188.409 180.089,188.838 C180.439,189.268 180.37,189.898 179.939,190.249 C179.759,190.398 179.54,190.468 179.309,190.468 C179.019,190.468 178.729,190.348 178.54,190.098 Z M66.099,190.749 C65.669,190.409 65.599,189.779 65.939,189.348 C66.29,188.909 66.919,188.838 67.349,189.188 C67.779,189.529 67.849,190.159 67.509,190.588 C67.309,190.838 67.019,190.968 66.719,190.968 C66.509,190.968 66.29,190.898 66.099,190.749 Z M69.319,193.199 C68.87,192.878 68.769,192.249 69.099,191.798 C69.419,191.358 70.049,191.258 70.499,191.579 C70.939,191.898 71.04,192.529 70.719,192.978 C70.519,193.249 70.219,193.388 69.91,193.388 C69.7,193.388 69.499,193.329 69.319,193.199 Z M72.649,195.499 C72.189,195.199 72.059,194.579 72.359,194.119 C72.669,193.659 73.29,193.529 73.749,193.829 C74.21,194.138 74.339,194.758 74.029,195.218 C73.839,195.508 73.519,195.669 73.2,195.669 C73.009,195.669 72.819,195.608 72.649,195.499 Z"/>
    <path fill="#434A4F" d="M141.136,106.36 L144.023,109.128 L215.462,34.605 L212.576,31.837 L141.136,106.36 Z M144.083,111.957 L138.308,106.42 L212.515,29.008 L218.291,34.544 L144.083,111.957 Z"/>
    <polyline fill="#434A4F" points="151.241 103.384 146.91 99.233 148.294 97.79 152.625 101.941 151.241 103.384"/>
    <path fill="#434A4F" d="M143.39,52.996 L143.4,52.996 L143.39,52.996 Z M148.216,45.475 L144.054,53.91 L134.746,55.262 L141.481,61.829 L139.891,71.098 L148.216,66.721 L156.542,71.098 L154.952,61.828 L161.687,55.263 L152.379,53.91 L148.216,45.475 Z M156.543,73.1 C156.226,73.1 155.907,73.023 155.611,72.868 L148.216,68.981 L140.823,72.868 C140.143,73.224 139.335,73.167 138.714,72.715 C138.094,72.264 137.791,71.515 137.92,70.759 L139.333,62.526 L133.35,56.695 C132.801,56.159 132.607,55.374 132.844,54.644 C133.082,53.915 133.7,53.393 134.458,53.284 L142.726,52.082 L146.423,44.59 C146.762,43.903 147.449,43.475 148.216,43.475 C148.984,43.475 149.67,43.903 150.01,44.59 L153.708,52.082 L161.974,53.284 C162.733,53.393 163.351,53.915 163.588,54.643 C163.826,55.373 163.632,56.159 163.084,56.694 L157.1,62.527 L158.512,70.76 C158.642,71.515 158.338,72.265 157.717,72.715 C157.367,72.97 156.957,73.1 156.543,73.1 Z"/>
    <polyline fill="#FACD60" points="148.216 49.995 145.382 55.738 139.044 56.659 143.63 61.13 142.548 67.442 148.216 64.462 153.885 67.442 152.803 61.13 157.389 56.659 151.051 55.738 148.216 49.995"/>
    <path fill="#E9886C" d="M87.07,143.131 C87.07,141.054 102.937,139.371 122.51,139.371 C142.082,139.371 157.949,141.054 157.949,143.131 L157.949,128.122 C157.949,126.045 142.082,124.362 122.51,124.362 C102.937,124.362 87.07,126.045 87.07,128.122 L87.07,143.131"/>
    <path fill="#434A4F" d="M122.509,221.492 C108.565,221.492 95.45,220.83 85.578,219.628 C69.452,217.665 69.452,215.205 69.452,214.154 C69.452,214.02 69.479,213.887 69.531,213.763 L72.104,207.697 C78.212,193.301 82.368,178.064 84.456,162.409 C85.491,154.643 86.015,146.732 86.015,138.892 L86.015,127.716 C86.015,127.164 86.462,126.716 87.015,126.716 C87.568,126.716 88.015,127.164 88.015,127.716 L88.015,138.892 C88.015,146.82 87.485,154.821 86.438,162.672 C84.327,178.505 80.123,193.917 73.946,208.478 L71.511,214.218 C71.861,214.569 74.107,216.288 86.733,217.752 C96.415,218.874 109.121,219.492 122.509,219.492 C135.897,219.492 148.603,218.874 158.286,217.752 C170.735,216.308 173.092,214.618 173.498,214.195 L171.072,208.478 C164.893,193.916 160.691,178.504 158.581,162.672 C157.534,154.823 157.002,146.822 157.002,138.892 L157.002,127.716 C157.002,127.164 157.45,126.716 158.002,126.716 C158.555,126.716 159.002,127.164 159.002,127.716 L159.002,138.892 C159.002,146.734 159.528,154.646 160.563,162.409 C162.65,178.062 166.804,193.299 172.914,207.697 L175.488,213.763 C175.54,213.887 175.567,214.02 175.567,214.154 C175.567,215.205 175.567,217.665 159.44,219.628 C149.569,220.83 136.453,221.492 122.509,221.492"/>
    <path fill="#434A4F" d="M159.123 133.193C158.605 133.193 158.167 132.795 158.126 132.27 158.083 131.72 158.496 131.239 159.046 131.196 181.852 129.42 184.99 127.534 185.392 126.948 185.432 126.432 185.864 126.027 186.389 126.027 186.942 126.027 187.389 126.474 187.389 127.027 187.389 129.035 185.212 131.166 159.201 133.19 159.174 133.192 159.149 133.193 159.123 133.193M180.326 125.082C180.251 125.082 180.176 125.074 180.101 125.056 176.985 124.34 172.769 123.693 167.57 123.129 167.021 123.07 166.624 122.577 166.683 122.028 166.743 121.478 167.249 121.077 167.785 121.141 173.062 121.712 177.357 122.374 180.548 123.107 181.086 123.231 181.423 123.767 181.299 124.305 181.193 124.768 180.781 125.082 180.326 125.082M59.617 127.027L59.626 127.027 59.617 127.027zM85.613 133.172C85.586 133.172 85.56 133.171 85.534 133.17 59.772 131.148 57.617 129.026 57.617 127.027 57.617 126.474 58.064 126.027 58.617 126.027 59.142 126.027 59.573 126.432 59.614 126.948 60.015 127.53 63.128 129.405 85.69 131.175 86.241 131.218 86.652 131.7 86.609 132.251 86.568 132.775 86.129 133.172 85.613 133.172zM70.785 123.965C70.297 123.965 69.871 123.609 69.796 123.113 69.715 122.567 70.092 122.058 70.638 121.976 78.341 120.829 88.898 119.973 101.169 119.504 101.69 119.467 102.186 119.913 102.207 120.465 102.228 121.017 101.797 121.482 101.246 121.503 89.046 121.969 78.565 122.817 70.933 123.955 70.883 123.962 70.834 123.965 70.785 123.965"/>
    <path fill="#434A4F" d="M187.389,127.027 L185.389,127.027 L185.389,123.152 C184.47,120.707 159.749,115.025 122.503,115.025 C85.257,115.025 60.536,120.707 59.61,123.205 L59.617,127.027 L57.617,127.027 L57.617,123.152 C57.617,120.543 64.197,118.193 77.174,116.168 C90.162,114.141 106.259,113.025 122.503,113.025 C138.748,113.025 154.845,114.141 167.832,116.168 C180.809,118.193 187.389,120.543 187.389,123.152 L187.389,127.027"/>
    <path fill="#434A4F" d="M105.29 121.108C105.019 121.108 104.769 121.008 104.589 120.818 104.399 120.628 104.29 120.378 104.29 120.108 104.29 119.848 104.399 119.588 104.589 119.398 104.959 119.029 105.629 119.029 106 119.398 106.089 119.499 106.16 119.608 106.209 119.728 106.269 119.848 106.29 119.978 106.29 120.108 106.29 120.239 106.269 120.369 106.219 120.489 106.169 120.608 106.089 120.718 106 120.818 105.899 120.909 105.79 120.978 105.669 121.029 105.549 121.079 105.419 121.108 105.29 121.108M66.96 124.558C66.83 124.558 66.7 124.539 66.58 124.489 66.45 124.438 66.349 124.358 66.249 124.268 66.059 124.079 65.96 123.829 65.96 123.558 65.96 123.298 66.059 123.039 66.249 122.858 66.62 122.478 67.29 122.478 67.669 122.858 67.849 123.039 67.96 123.298 67.96 123.558 67.96 123.688 67.929 123.818 67.879 123.938 67.83 124.068 67.759 124.169 67.669 124.268 67.479 124.459 67.229 124.558 66.96 124.558M163.085 122.694C162.533 122.694 162.085 122.247 162.085 121.694 162.085 121.141 162.533 120.663 163.085 120.663 163.638 120.663 164.085 121.079 164.085 121.631L164.085 121.694C164.085 122.247 163.638 122.694 163.085 122.694"/>
    <polyline fill="#FACD60" points="177.801 99.198 176.959 97.491 176.117 99.198 174.234 99.471 175.596 100.8 175.275 102.676 176.959 101.79 178.644 102.676 178.322 100.8 179.685 99.471 177.801 99.198"/>
    <path fill="#434A4F" d="M174.125 96.456L174.134 96.456 174.125 96.456zM176.062 92.53L176.958 92.972 174.789 97.37 169.935 98.075 173.447 101.499 172.618 106.332 176.959 104.049 181.299 106.332 180.471 101.499 183.983 98.075 179.129 97.37 176.959 92.972 176.062 92.53zM172.617 108.334C172.204 108.334 171.793 108.204 171.443 107.95 170.823 107.499 170.517 106.75 170.647 105.994L171.298 102.196 168.54 99.506C167.991 98.972 167.796 98.186 168.034 97.458 168.27 96.728 168.889 96.207 169.648 96.096L173.46 95.542 175.166 92.087C175.505 91.4 176.192 90.972 176.958 90.972 177.726 90.972 178.413 91.4 178.752 92.087L180.458 95.542 184.27 96.096C185.029 96.206 185.648 96.727 185.884 97.457 186.122 98.186 185.928 98.971 185.379 99.506L182.62 102.196 183.271 105.994C183.401 106.75 183.095 107.499 182.475 107.95 181.856 108.399 181.05 108.46 180.369 108.101L176.959 106.309 173.548 108.101C173.253 108.256 172.934 108.334 172.617 108.334zM101.749 102.807C102.009 102.807 102.273 102.828 102.539 102.871 104.623 103.203 106.181 104.764 106.509 106.849L106.869 109.137 110.87 108.508 110.51 106.22C110.183 104.135 111.187 102.17 113.069 101.213 114.949 100.257 117.127 100.605 118.619 102.099L120.255 103.739 123.123 100.878 121.486 99.238C119.996 97.745 119.652 95.565 120.612 93.686 121.573 91.805 123.545 90.802 125.624 91.139L127.911 91.504 128.548 87.503 126.262 87.138C124.177 86.806 122.619 85.244 122.291 83.159 121.963 81.075 122.967 79.11 124.848 78.154L126.913 77.104 125.124 73.584 123.059 74.633C121.177 75.589 118.999 75.243 117.507 73.748 116.017 72.253 115.674 70.074 116.634 68.195L117.687 66.132 114.081 64.291 113.027 66.353C112.067 68.232 110.1 69.227 108.016 68.9 105.932 68.568 104.373 67.006 104.044 64.922L103.685 62.633 99.683 63.263 100.043 65.551C100.372 67.635 99.369 69.601 97.487 70.557 95.604 71.512 93.426 71.166 91.935 69.671L90.3 68.033 87.432 70.894 89.069 72.534C90.559 74.027 90.903 76.207 89.943 78.086 88.982 79.965 87.015 80.969 84.931 80.633L82.644 80.269 82.006 84.269 84.294 84.633C86.377 84.965 87.936 86.528 88.264 88.613 88.592 90.697 87.588 92.663 85.707 93.619L83.643 94.668 85.431 98.185 87.496 97.136C89.377 96.18 91.556 96.528 93.046 98.022 94.537 99.515 94.88 101.695 93.92 103.575L92.867 105.637 96.474 107.479 97.527 105.417C98.365 103.777 99.969 102.807 101.749 102.807zM105.205 111.424L104.533 107.16C104.301 105.688 103.188 105 102.223 104.845 101.263 104.693 99.986 105.001 99.308 106.327L97.345 110.17 90.175 106.508 92.139 102.665C92.817 101.337 92.321 100.126 91.63 99.434 90.941 98.743 89.732 98.245 88.402 98.919L84.554 100.875 80.954 93.791 84.801 91.835C86.129 91.161 86.44 89.888 86.289 88.923 86.136 87.959 85.45 86.843 83.979 86.608L79.717 85.929 80.984 77.978 85.246 78.659C86.716 78.887 87.716 78.047 88.162 77.176 88.606 76.306 88.706 75.001 87.653 73.946L84.604 70.892 90.302 65.205 93.351 68.259C94.403 69.314 95.71 69.217 96.581 68.774 97.452 68.332 98.299 67.335 98.067 65.862L97.398 61.599 105.349 60.346 106.021 64.611C106.252 66.083 107.366 66.771 108.331 66.925 109.305 67.08 110.569 66.769 111.246 65.443L113.209 61.599 120.378 65.261 118.416 69.105C117.738 70.431 118.233 71.643 118.923 72.335 119.612 73.026 120.822 73.525 122.153 72.85L126 70.894 129.602 77.981 125.754 79.937C124.426 80.612 124.115 81.883 124.267 82.848 124.418 83.814 125.105 84.928 126.577 85.164L130.839 85.843 129.571 93.793 125.309 93.114C123.836 92.886 122.837 93.726 122.393 94.595 121.949 95.465 121.849 96.771 122.902 97.826L125.951 100.879 120.251 106.567 117.203 103.511C116.149 102.457 114.845 102.555 113.974 102.997 113.103 103.44 112.254 104.437 112.487 105.91L113.157 110.172 105.205 111.424z"/>
    <path fill="#42494E" d="M94.97,91.182 C93.568,88.422 93.324,85.282 94.283,82.339 C95.243,79.396 97.29,77.003 100.05,75.6 C105.749,72.704 112.737,74.985 115.632,80.68 L113.849,81.587 C111.452,76.872 105.668,74.988 100.957,77.383 C98.673,78.544 96.978,80.524 96.185,82.959 C95.391,85.394 95.593,87.993 96.753,90.276 L94.97,91.182"/>
    <path fill="#E9886C" d="M105.278,82.385 C104.342,82.385 103.463,82.75 102.802,83.411 C101.438,84.775 101.438,86.996 102.802,88.361 C104.167,89.724 106.387,89.726 107.752,88.361 C108.414,87.7 108.778,86.821 108.778,85.885 C108.778,84.951 108.414,84.072 107.752,83.411 C107.091,82.75 106.212,82.385 105.278,82.385 Z M105.278,92.382 C103.613,92.382 101.949,91.75 100.681,90.482 C98.147,87.947 98.147,83.823 100.681,81.29 C101.909,80.061 103.542,79.385 105.278,79.385 C107.014,79.385 108.646,80.061 109.874,81.29 C111.102,82.517 111.778,84.149 111.778,85.885 C111.778,87.622 111.102,89.255 109.874,90.482 C108.607,91.749 106.942,92.382 105.278,92.382 Z"/>
    <path fill="#434A4F" d="M103.299,71.989 C103.259,71.438 103.679,70.959 104.229,70.919 C104.779,70.879 105.25,71.298 105.29,71.848 C105.33,72.398 104.919,72.878 104.37,72.919 C104.339,72.919 104.319,72.919 104.299,72.919 C103.769,72.919 103.33,72.518 103.299,71.989 Z M108.059,73.188 C107.519,73.068 107.179,72.539 107.29,71.999 C107.41,71.459 107.939,71.108 108.479,71.228 C109.019,71.348 109.37,71.878 109.25,72.419 C109.149,72.888 108.729,73.209 108.269,73.209 C108.2,73.209 108.129,73.199 108.059,73.188 Z M99.46,73.108 C99.269,72.589 99.529,72.008 100.049,71.818 C100.569,71.629 101.139,71.888 101.33,72.409 C101.529,72.928 101.259,73.499 100.75,73.699 C100.629,73.739 100.509,73.758 100.399,73.758 C99.99,73.758 99.609,73.508 99.46,73.108 Z M111.519,74.478 C111.04,74.218 110.859,73.608 111.129,73.119 C111.389,72.638 112,72.459 112.479,72.728 C112.969,72.989 113.149,73.598 112.879,74.079 C112.7,74.419 112.359,74.598 112,74.598 C111.839,74.598 111.679,74.558 111.519,74.478 Z M96.099,75.268 C95.769,74.829 95.859,74.199 96.299,73.869 C96.74,73.539 97.37,73.628 97.7,74.068 C98.029,74.508 97.939,75.138 97.499,75.468 C97.319,75.598 97.109,75.669 96.899,75.669 C96.599,75.669 96.29,75.529 96.099,75.268 Z M114.469,76.688 L114.469,76.699 C114.469,76.688 114.469,76.699 114.469,76.688 Z M114.469,76.688 C114.08,76.298 114.08,75.669 114.469,75.279 C114.859,74.888 115.49,74.888 115.889,75.279 C116.269,75.669 116.269,76.298 115.889,76.699 C115.689,76.888 115.429,76.989 115.179,76.989 C114.919,76.989 114.669,76.888 114.469,76.688 Z M93.479,78.279 C93.029,77.949 92.939,77.318 93.279,76.879 C93.609,76.438 94.24,76.348 94.679,76.688 C95.12,77.018 95.21,77.638 94.87,78.089 C94.679,78.348 94.379,78.478 94.08,78.478 C93.87,78.478 93.66,78.419 93.479,78.279 Z M116.689,79.648 C116.419,79.169 116.599,78.558 117.089,78.298 C117.569,78.029 118.179,78.209 118.45,78.699 C118.709,79.178 118.529,79.789 118.049,80.048 C117.899,80.138 117.729,80.178 117.569,80.178 C117.219,80.178 116.87,79.989 116.689,79.648 Z M91.809,81.919 C91.29,81.718 91.029,81.148 91.229,80.629 C91.419,80.108 91.99,79.848 92.509,80.039 C93.029,80.228 93.29,80.808 93.099,81.329 C92.95,81.728 92.559,81.978 92.16,81.978 C92.04,81.978 91.929,81.959 91.809,81.919 Z M117.979,83.119 C117.859,82.579 118.209,82.048 118.75,81.938 C119.29,81.818 119.819,82.159 119.939,82.699 C120.049,83.239 119.709,83.768 119.169,83.888 C119.099,83.909 119.029,83.909 118.959,83.909 C118.5,83.909 118.08,83.589 117.979,83.119 Z M91.24,85.869 C90.689,85.829 90.269,85.348 90.309,84.798 C90.309,84.798 90.309,84.798 90.319,84.798 C90.349,84.249 90.83,83.839 91.389,83.878 C91.939,83.909 92.349,84.388 92.309,84.938 C92.269,85.468 91.83,85.869 91.319,85.869 C91.29,85.869 91.269,85.869 91.24,85.869 Z M119.169,87.888 C118.62,87.848 118.2,87.369 118.24,86.818 C118.279,86.268 118.759,85.848 119.309,85.888 C119.859,85.928 120.279,86.409 120.24,86.959 C120.2,87.489 119.759,87.888 119.24,87.888 C119.219,87.888 119.189,87.888 119.169,87.888 Z M90.62,89.058 C90.499,88.518 90.839,87.989 91.379,87.869 C91.919,87.758 92.45,88.098 92.569,88.638 C92.689,89.178 92.339,89.709 91.799,89.829 C91.729,89.839 91.66,89.848 91.589,89.848 C91.129,89.848 90.719,89.529 90.62,89.058 Z M118.049,91.718 C117.529,91.529 117.259,90.949 117.459,90.428 C117.649,89.918 118.229,89.648 118.74,89.848 C119.259,90.039 119.519,90.608 119.33,91.129 C119.179,91.539 118.799,91.779 118.399,91.779 C118.279,91.779 118.16,91.758 118.049,91.718 Z M92.099,93.058 C92.099,93.058 92.099,93.058 92.109,93.068 C91.839,92.579 92.019,91.968 92.499,91.709 C92.979,91.438 93.589,91.619 93.859,92.108 C94.12,92.589 93.939,93.199 93.46,93.468 C93.309,93.548 93.149,93.589 92.979,93.589 C92.629,93.589 92.279,93.398 92.099,93.058 Z M115.879,95.079 C115.439,94.749 115.349,94.119 115.679,93.678 C116.009,93.239 116.639,93.148 117.08,93.478 C117.519,93.808 117.609,94.438 117.279,94.879 C117.089,95.138 116.79,95.279 116.479,95.279 C116.269,95.279 116.059,95.209 115.879,95.079 Z M94.66,96.478 C94.269,96.089 94.269,95.459 94.66,95.068 C95.059,94.678 95.689,94.678 96.08,95.068 C96.469,95.459 96.469,96.089 96.08,96.478 C95.879,96.678 95.629,96.779 95.37,96.779 C95.109,96.779 94.859,96.678 94.66,96.478 Z M112.859,97.699 C112.529,97.258 112.62,96.628 113.059,96.298 C113.509,95.968 114.129,96.058 114.459,96.499 C114.79,96.938 114.7,97.568 114.259,97.898 C114.08,98.029 113.87,98.098 113.66,98.098 C113.359,98.098 113.059,97.959 112.859,97.699 Z M98.08,99.048 C97.589,98.779 97.419,98.178 97.679,97.688 C97.939,97.209 98.549,97.029 99.04,97.298 C99.519,97.558 99.7,98.169 99.429,98.648 C99.249,98.978 98.91,99.169 98.559,99.169 C98.389,99.169 98.229,99.128 98.08,99.048 Z M109.229,99.358 C109.029,98.839 109.299,98.258 109.809,98.068 C110.33,97.879 110.91,98.138 111.099,98.659 C111.29,99.178 111.029,99.749 110.509,99.949 C110.399,99.989 110.279,100.008 110.16,100.008 C109.759,100.008 109.379,99.758 109.229,99.358 Z M102.08,100.539 C101.54,100.428 101.2,99.888 101.319,99.348 C101.429,98.808 101.959,98.468 102.5,98.589 L102.509,98.589 C103.04,98.709 103.389,99.239 103.269,99.779 C103.169,100.249 102.75,100.558 102.29,100.558 C102.219,100.558 102.149,100.558 102.08,100.539 Z M105.269,99.919 C105.229,99.369 105.649,98.888 106.2,98.848 C106.75,98.808 107.229,99.228 107.269,99.779 C107.299,100.329 106.889,100.808 106.339,100.848 C106.309,100.848 106.29,100.848 106.269,100.848 C105.75,100.848 105.309,100.449 105.269,99.919 Z"/>
    <polyline fill="#FACD60" points="114.764 46.166 113.921 44.459 113.079 46.166 111.196 46.44 112.558 47.768 112.237 49.644 113.921 48.758 115.606 49.644 115.284 47.768 116.647 46.44 114.764 46.166"/>
    <path fill="#434A4F" d="M113.025,39.498 L113.035,39.498 L113.025,39.498 Z M113.921,51.018 L118.262,53.3 L117.433,48.465 L120.945,45.043 L116.092,44.339 L113.921,39.941 L111.751,44.339 L106.898,45.043 L110.41,48.465 L109.581,53.299 L113.921,51.018 Z M109.579,55.302 C109.166,55.302 108.755,55.172 108.405,54.918 C107.785,54.467 107.48,53.717 107.61,52.96 L108.261,49.165 L105.501,46.475 C104.953,45.94 104.758,45.154 104.996,44.424 C105.233,43.696 105.852,43.174 106.611,43.064 L110.423,42.51 L112.127,39.055 C112.467,38.368 113.154,37.94 113.921,37.94 C114.689,37.94 115.375,38.368 115.715,39.055 L117.42,42.51 L121.232,43.064 C121.991,43.174 122.61,43.696 122.847,44.424 C123.084,45.154 122.89,45.94 122.341,46.475 L119.582,49.165 L120.233,52.961 C120.363,53.717 120.058,54.467 119.438,54.918 C118.819,55.368 118.013,55.428 117.332,55.07 L113.921,53.278 L110.51,55.07 C110.215,55.225 109.896,55.302 109.579,55.302 Z"/>
    <path fill="#75C7D0" d="M151.933,102.663 L147.602,98.511"/>
    <path fill="#42494E" d="M114.644,165.499 C112.99,165.499 111.644,166.844 111.644,168.499 C111.644,170.153 112.99,171.499 114.644,171.499 L179.815,171.499 L186.322,168.499 L179.815,165.499 L114.644,165.499 Z M180.254,173.499 L114.644,173.499 C111.887,173.499 109.644,171.255 109.644,168.499 C109.644,165.742 111.887,163.499 114.644,163.499 L180.254,163.499 L191.097,168.499 L180.254,173.499 Z"/>
    <polygon fill="#42494E" points="120.254 172.499 122.254 172.499 122.254 164.9 120.254 164.9"/>
    <polygon fill="#42494E" points="121.254 169.47 179.266 169.47 179.266 167.47 121.254 167.47"/>
  </g>
</svg>
