<svg xmlns="http://www.w3.org/2000/svg" width="250" height="250" viewBox="0 0 250 250">
  <g fill="none" fill-rule="evenodd">
    <polyline fill="#DBDBD5" points="204.547 99.086 209.234 103.773 211.837 102.211 204.547 99.086"/>
    <polyline fill="#DBDBD5" points="205.698 105.894 198.897 99.093 194.064 108.814 186.928 91.535 183.837 90.211 196.065 119.821 200.898 110.1 207.979 117.18 210.902 114.447 203.605 107.15 205.698 105.894"/>
    <polyline fill="#4193A9" points="181.836 79.204 187.016 81.424 187.016 69.825 61.016 69.825 61.016 104.824 187.016 104.824 187.016 91.748 181.836 79.204"/>
    <path fill="#42494E" d="M166.844,148.813 L216.016,148.813 C217.67,148.813 219.016,147.467 219.016,145.813 C219.016,144.159 217.67,142.813 216.016,142.813 L166.844,142.813 L160.339,145.813 L166.844,148.813 Z M216.016,150.813 L166.406,150.813 L155.563,145.813 L166.406,140.813 L216.016,140.813 C218.772,140.813 221.016,143.056 221.016,145.813 C221.016,148.57 218.772,150.813 216.016,150.813 Z"/>
    <polygon fill="#42494E" points="208.406 149.813 210.406 149.813 210.406 142.214 208.406 142.214"/>
    <polygon fill="#42494E" points="167.394 146.784 209.406 146.784 209.406 144.784 167.394 144.784"/>
    <polygon fill="#DBDBD5" points="55.016 51.26 193 51.26 193 39.821 55.016 39.821"/>
    <polyline fill="#42494E" points="194.016 208.825 54.032 208.825 54.032 143.825 56.032 143.825 56.032 206.825 192.016 206.825 192.016 202.825 194.016 202.825 194.016 208.825"/>
    <path fill="#42494E" d="M62.252 44.612C61.477 44.612 60.846 45.243 60.846 46.019 60.846 46.795 61.477 47.426 62.252 47.426 63.028 47.426 63.659 46.795 63.659 46.019 63.659 45.243 63.028 44.612 62.252 44.612zM62.252 49.426C60.374 49.426 58.846 47.897 58.846 46.019 58.846 44.141 60.374 42.612 62.252 42.612 64.131 42.612 65.659 44.141 65.659 46.019 65.659 47.897 64.131 49.426 62.252 49.426zM71.879 44.612C71.104 44.612 70.473 45.243 70.473 46.019 70.473 46.795 71.104 47.426 71.879 47.426 72.655 47.426 73.286 46.795 73.286 46.019 73.286 45.243 72.655 44.612 71.879 44.612zM71.879 49.426C70.001 49.426 68.473 47.897 68.473 46.019 68.473 44.141 70.001 42.612 71.879 42.612 73.758 42.612 75.286 44.141 75.286 46.019 75.286 47.897 73.758 49.426 71.879 49.426zM81.507 44.612C80.731 44.612 80.1 45.243 80.1 46.019 80.1 46.795 80.731 47.426 81.507 47.426 82.283 47.426 82.914 46.795 82.914 46.019 82.914 45.243 82.283 44.612 81.507 44.612zM81.507 49.426C79.628 49.426 78.1 47.897 78.1 46.019 78.1 44.141 79.628 42.612 81.507 42.612 83.385 42.612 84.914 44.141 84.914 46.019 84.914 47.897 83.385 49.426 81.507 49.426z"/>
    <polyline fill="#42494E" points="65.802 134.445 64.388 133.031 87.309 110.11 88.723 111.524 65.802 134.445"/>
    <polyline fill="#42494E" points="65.1 138.817 65.1 136.817 87.016 136.817 87.016 111.817 65.016 111.817 65.016 109.817 89.016 109.817 89.016 138.817 65.1 138.817"/>
    <polyline fill="#42494E" points="87.309 138.524 64.313 115.528 65.727 114.114 88.723 137.11 87.309 138.524"/>
    <polygon fill="#42494E" points="61.016 143.817 77.016 143.817 77.016 141.817 61.016 141.817"/>
    <polygon fill="#42494E" points="61.016 147.819 74.014 147.819 74.014 145.819 61.016 145.819"/>
    <path fill="#42494E" d="M95.017,136.817 L120.016,136.817 L120.016,111.817 L95.017,111.817 L95.017,136.817 Z M93.017,138.817 L122.016,138.817 L122.016,109.817 L93.017,109.817 L93.017,138.817 Z"/>
    <polyline fill="#42494E" points="120.309 138.524 93.31 111.524 94.724 110.11 121.723 137.11 120.309 138.524"/>
    <polyline fill="#42494E" points="94.724 138.524 93.31 137.11 120.309 110.11 121.723 111.524 94.724 138.524"/>
    <polygon fill="#42494E" points="94.036 143.817 110.036 143.817 110.036 141.817 94.036 141.817"/>
    <polygon fill="#42494E" points="94.036 147.819 107.034 147.819 107.034 145.819 94.036 145.819"/>
    <path fill="#42494E" d="M128.016,136.817 L153.016,136.817 L153.016,111.817 L128.016,111.817 L128.016,136.817 Z M126.016,138.817 L155.016,138.817 L155.016,109.817 L126.016,109.817 L126.016,138.817 Z"/>
    <polyline fill="#42494E" points="153.309 138.524 126.309 111.524 127.723 110.11 154.723 137.11 153.309 138.524"/>
    <polyline fill="#42494E" points="127.723 138.524 126.309 137.11 153.309 110.11 154.723 111.524 127.723 138.524"/>
    <polygon fill="#42494E" points="127.056 143.817 143.056 143.817 143.056 141.817 127.056 141.817"/>
    <polygon fill="#42494E" points="127.056 147.819 140.054 147.819 140.054 145.819 127.056 145.819"/>
    <path fill="#42494E" d="M161.017,136.817 L186.016,136.817 L186.016,111.817 L161.017,111.817 L161.017,136.817 Z M159.017,138.817 L188.016,138.817 L188.016,109.817 L159.017,109.817 L159.017,138.817 Z"/>
    <polyline fill="#42494E" points="186.309 138.524 159.31 111.524 160.724 110.11 187.723 137.11 186.309 138.524"/>
    <polyline fill="#42494E" points="160.724 138.524 159.31 137.11 186.309 110.11 187.723 111.524 160.724 138.524"/>
    <path fill="#42494E" d="M62.016 62.825L186.016 62.825 186.016 56.825 62.016 56.825 62.016 62.825zM60.016 64.825L188.016 64.825 188.016 54.825 60.016 54.825 60.016 64.825zM66.016 99.825L91.016 99.825 91.016 74.825 66.016 74.825 66.016 99.825zM64.016 101.825L93.016 101.825 93.016 72.825 64.016 72.825 64.016 101.825z"/>
    <polyline fill="#42494E" points="91.309 101.532 64.309 74.532 65.723 73.118 92.723 100.118 91.309 101.532"/>
    <polyline fill="#42494E" points="65.723 101.532 64.309 100.118 91.309 73.118 92.723 74.532 65.723 101.532"/>
    <polygon fill="#42494E" points="119.016 80.825 157.016 80.825 157.016 78.825 119.016 78.825"/>
    <polygon fill="#42494E" points="119.016 84.825 145.016 84.825 145.016 82.825 119.016 82.825"/>
    <polygon fill="#42494E" points="119.016 90.825 157.016 90.825 157.016 88.825 119.016 88.825"/>
    <polygon fill="#42494E" points="119.016 94.825 145.016 94.825 145.016 92.825 119.016 92.825"/>
    <polygon fill="#42494E" points="161.021 60.825 184.017 60.825 184.017 58.825 161.021 58.825"/>
    <path fill="#42494E" d="M62.016,154.843 L62.016,179.843 L87.016,179.843 L87.016,154.842 L62.016,154.843 Z M60.016,181.843 L60.016,152.843 L89.016,152.842 L89.016,181.843 L60.016,181.843 Z"/>
    <polyline fill="#42494E" points="87.309 181.55 60.309 154.55 61.723 153.136 88.723 180.136 87.309 181.55"/>
    <polyline fill="#42494E" points="61.723 181.55 60.309 180.136 87.309 153.135 88.723 154.549 61.723 181.55"/>
    <polygon fill="#42494E" points="61.016 186.843 77.016 186.843 77.016 184.843 61.016 184.843"/>
    <polygon fill="#42494E" points="61.016 190.845 74.014 190.845 74.014 188.845 61.016 188.845"/>
    <path fill="#42494E" d="M95.017,154.843 L95.017,179.843 L120.016,179.843 L120.016,154.842 L95.017,154.843 Z M93.017,181.843 L93.017,152.843 L122.016,152.842 L122.016,181.843 L93.017,181.843 Z"/>
    <polyline fill="#42494E" points="120.309 181.55 93.31 154.55 94.724 153.136 121.723 180.136 120.309 181.55"/>
    <polyline fill="#42494E" points="94.724 181.55 93.31 180.136 120.309 153.135 121.723 154.549 94.724 181.55"/>
    <polygon fill="#42494E" points="94.036 186.843 110.036 186.843 110.036 184.843 94.036 184.843"/>
    <polygon fill="#42494E" points="94.036 190.845 107.034 190.845 107.034 188.845 94.036 188.845"/>
    <path fill="#42494E" d="M128.016,154.843 L128.016,179.843 L153.016,179.843 L153.016,154.842 L128.016,154.843 Z M126.016,181.843 L126.016,152.843 L155.016,152.842 L155.016,181.843 L126.016,181.843 Z"/>
    <polyline fill="#42494E" points="153.309 181.55 126.309 154.55 127.723 153.136 154.723 180.136 153.309 181.55"/>
    <polyline fill="#42494E" points="127.723 181.55 126.309 180.136 153.309 153.135 154.723 154.549 127.723 181.55"/>
    <polygon fill="#42494E" points="127.056 186.843 143.056 186.843 143.056 184.843 127.056 184.843"/>
    <polygon fill="#42494E" points="127.056 190.845 140.054 190.845 140.054 188.845 127.056 188.845"/>
    <path fill="#42494E" d="M161.017,156.257 L172.102,167.343 L161.017,178.429 L161.017,156.257 Z M184.602,154.842 L173.516,165.929 L162.431,154.843 L184.602,154.842 Z M186.016,178.429 L174.93,167.343 L186.016,156.256 L186.016,178.429 Z M184.524,179.843 L162.431,179.843 L173.516,168.757 L184.524,179.765 L184.524,178.824 L188.016,178.824 L188.016,152.842 L159.017,152.843 L159.017,181.843 L184.524,181.843 L184.524,179.843 Z"/>
    <polygon fill="#42494E" points="160.076 186.843 176.076 186.843 176.076 184.843 160.076 184.843"/>
    <polygon fill="#42494E" points="160.076 190.845 173.074 190.845 173.074 188.845 160.076 188.845"/>
    <polygon fill="#4193A9" points="103.016 201.825 145.016 201.825 145.016 195.825 103.016 195.825"/>
    <polyline fill="#42494E" points="192.016 83.567 194.016 84.424 194.016 38.801 54.032 38.801 54.032 105.825 56.032 105.825 56.032 40.801 192.016 40.801 192.016 83.567"/>
    <polyline fill="#42494E" points="192.016 103.855 192.016 170.818 194.016 170.818 194.016 108.698 192.016 103.855"/>
    <path fill="#434A4F" d="M183.697,81.089 L194.148,106.398 L198.621,97.403 L207.008,105.79 L208.422,104.375 L199.991,95.945 L207.645,91.353 L183.697,81.089 Z M193.979,111.229 L179.976,77.319 L212.028,91.055 L203.217,96.342 L211.25,104.375 L207.008,108.618 L199.173,100.784 L193.979,111.229 Z"/>
    <path fill="#42494E" d="M64.441,130.198 L62.54,129.578 L62.869,128.567 L61.594,128.152 C60.054,127.65 59.06,126.279 59.062,124.659 C59.063,123.039 60.06,121.67 61.601,121.171 L62.877,120.758 L62.177,118.596 L60.901,119.009 C59.36,119.508 57.75,118.984 56.799,117.672 C55.848,116.361 55.85,114.667 56.803,113.358 L57.593,112.273 L55.756,110.936 L54.967,112.021 C54.013,113.332 52.401,113.853 50.862,113.35 C49.322,112.848 48.328,111.477 48.329,109.857 L48.331,108.516 L46.059,108.514 L46.057,109.854 C46.056,111.474 45.059,112.843 43.518,113.343 C41.976,113.841 40.366,113.317 39.416,112.005 L38.628,110.919 L36.789,112.253 L37.577,113.339 C38.527,114.65 38.526,116.344 37.572,117.654 C36.618,118.963 35.006,119.483 33.468,118.982 L32.192,118.567 L31.863,119.577 L29.962,118.957 L30.911,116.045 L34.088,117.081 C34.937,117.358 35.61,116.951 35.956,116.476 C36.301,116.002 36.482,115.237 35.957,114.513 L33.996,111.808 L39.074,108.126 L41.035,110.832 C41.559,111.556 42.342,111.62 42.902,111.44 C43.46,111.259 44.056,110.747 44.057,109.853 L44.061,106.512 L50.332,106.518 L50.329,109.859 C50.328,110.753 50.924,111.267 51.481,111.448 C52.039,111.628 52.823,111.567 53.35,110.843 L55.316,108.142 L60.387,111.834 L58.42,114.535 C57.894,115.258 58.074,116.023 58.418,116.499 C58.763,116.973 59.435,117.381 60.285,117.107 L63.464,116.078 L65.395,122.044 L62.217,123.074 C61.366,123.35 61.062,124.075 61.062,124.661 C61.061,125.248 61.363,125.973 62.214,126.25 L65.391,127.286 L64.441,130.198"/>
    <path fill="#4193A9" d="M55.237,127.274 L53.336,126.654 C53.872,125.01 53.736,123.255 52.952,121.713 C52.169,120.171 50.831,119.026 49.186,118.49 C45.793,117.384 42.128,119.244 41.021,122.64 L39.12,122.02 C40.568,117.576 45.361,115.14 49.806,116.589 C51.958,117.291 53.709,118.789 54.735,120.807 C55.761,122.825 55.939,125.122 55.237,127.274"/>
    <path fill="#4193A9" d="M47.21,133.059 C46.327,133.059 45.438,132.919 44.574,132.637 C42.421,131.935 40.671,130.437 39.645,128.418 C38.619,126.4 38.441,124.103 39.143,121.951 L41.044,122.571 C40.508,124.215 40.644,125.97 41.428,127.512 C42.212,129.055 43.549,130.199 45.194,130.735 C46.838,131.272 48.594,131.135 50.135,130.352 C51.677,129.568 52.822,128.23 53.358,126.586 L55.26,127.206 C54.558,129.359 53.06,131.109 51.041,132.135 C49.834,132.749 48.527,133.059 47.21,133.059"/>
    <path fill="#42494E" d="M50.318,142.714 L44.046,142.708 L44.05,139.367 C44.051,138.472 43.455,137.959 42.897,137.777 C42.339,137.595 41.556,137.658 41.03,138.382 L39.062,141.083 L33.993,137.391 L35.959,134.69 C36.486,133.966 36.306,133.201 35.961,132.727 C35.617,132.252 34.946,131.843 34.095,132.118 L30.915,133.147 L28.984,127.18 L32.163,126.151 C33.014,125.875 33.318,125.15 33.318,124.564 C33.319,123.977 33.017,123.251 32.166,122.974 L28.99,121.938 L30.056,118.667 L31.957,119.288 L31.511,120.657 L32.786,121.073 C34.326,121.575 35.32,122.946 35.318,124.566 C35.316,126.186 34.32,127.555 32.779,128.054 L31.503,128.467 L32.203,130.628 L33.479,130.215 C35.02,129.715 36.629,130.242 37.581,131.553 C38.531,132.864 38.529,134.558 37.576,135.867 L36.787,136.951 L38.623,138.289 L39.413,137.204 C40.367,135.894 41.977,135.373 43.517,135.875 C45.057,136.377 46.051,137.749 46.05,139.369 L46.048,140.71 L48.32,140.712 L48.322,139.371 C48.324,137.751 49.32,136.382 50.861,135.883 C52.402,135.384 54.013,135.909 54.963,137.221 L55.751,138.307 L57.59,136.974 L56.803,135.888 C55.852,134.576 55.854,132.883 56.807,131.573 C57.762,130.264 59.374,129.743 60.912,130.244 L62.187,130.66 L62.682,129.144 L64.583,129.764 L63.468,133.182 L60.292,132.146 C59.443,131.869 58.77,132.276 58.424,132.75 C58.079,133.225 57.897,133.99 58.422,134.714 L60.383,137.419 L55.305,141.1 L53.344,138.395 C52.819,137.67 52.035,137.604 51.477,137.786 C50.919,137.967 50.323,138.479 50.322,139.373 L50.318,142.714"/>
    <path fill="#4193A9" d="M51.136,124.713 C51.136,126.922 49.345,128.713 47.136,128.713 C44.927,128.713 43.136,126.922 43.136,124.713 C43.136,122.504 44.927,120.713 47.136,120.713 C49.345,120.713 51.136,122.504 51.136,124.713"/>
    <path fill="#4193A9" d="M47.136,121.213 C45.206,121.213 43.636,122.783 43.636,124.713 C43.636,126.643 45.206,128.213 47.136,128.213 C49.065,128.213 50.636,126.643 50.636,124.713 C50.636,122.783 49.065,121.213 47.136,121.213 Z M47.136,129.213 C44.654,129.213 42.636,127.194 42.636,124.713 C42.636,122.231 44.654,120.213 47.136,120.213 C49.617,120.213 51.636,122.231 51.636,124.713 C51.636,127.194 49.617,129.213 47.136,129.213 Z"/>
    <path fill="#42494E" d="M185.524,183.317 L189.017,183.317 L189.017,179.824 L185.524,179.824 L185.524,183.317 Z M183.524,185.317 L191.017,185.317 L191.017,177.824 L183.524,177.824 L183.524,185.317 Z"/>
    <polyline fill="#42494E" points="190.742 179.536 189.328 178.122 202.362 165.088 203.776 166.502 190.742 179.536"/>
    <path fill="#42494E" d="M205.017,161.824 C203.914,161.824 203.017,162.721 203.017,163.824 C203.017,164.927 203.914,165.824 205.017,165.824 C206.12,165.824 207.017,164.927 207.017,163.824 C207.017,162.721 206.12,161.824 205.017,161.824 Z M205.017,167.824 C202.811,167.824 201.017,166.03 201.017,163.824 C201.017,161.619 202.811,159.824 205.017,159.824 C207.222,159.824 209.017,161.619 209.017,163.824 C209.017,166.03 207.222,167.824 205.017,167.824 Z"/>
    <polyline fill="#42494E" points="172.275 198.002 170.861 196.588 183.896 183.554 185.31 184.968 172.275 198.002"/>
    <path fill="#42494E" d="M169.625,197.27 C169.625,197.27 169.624,197.27 169.623,197.27 C168.519,197.271 167.622,198.167 167.622,199.27 C167.622,199.802 167.829,200.302 168.206,200.679 C168.583,201.055 169.083,201.263 169.617,201.263 C169.618,201.263 169.619,201.263 169.62,201.263 C170.723,201.261 171.621,200.364 171.621,199.263 C171.621,198.73 171.414,198.229 171.037,197.854 C170.66,197.477 170.159,197.27 169.625,197.27 Z M169.617,203.263 C168.55,203.263 167.546,202.848 166.792,202.094 C166.037,201.339 165.622,200.336 165.622,199.27 C165.622,199.27 165.622,199.27 165.622,199.269 C165.622,197.066 167.416,195.271 169.621,195.27 C169.622,195.27 169.624,195.27 169.625,195.27 C170.693,195.27 171.696,195.685 172.451,196.438 C173.206,197.192 173.621,198.196 173.621,199.263 C173.621,201.466 171.827,203.26 169.622,203.263 C169.62,203.263 169.619,203.263 169.617,203.263 Z"/>
    <polyline fill="#42494E" points="201.246 196.79 188.532 184.076 189.946 182.662 202.66 195.376 201.246 196.79"/>
    <path fill="#42494E" d="M201.956,198.084 C201.426,198.084 200.916,197.875 200.536,197.495 C200.446,197.404 200.366,197.305 200.286,197.194 C200.216,197.084 200.156,196.964 200.106,196.845 C200.056,196.725 200.016,196.604 199.996,196.475 C199.966,196.345 199.956,196.214 199.956,196.084 C199.956,195.555 200.166,195.035 200.536,194.665 C201.286,193.924 202.626,193.924 203.366,194.665 C203.736,195.044 203.956,195.555 203.956,196.084 C203.956,196.604 203.736,197.125 203.366,197.495 C202.996,197.875 202.476,198.084 201.956,198.084"/>
    <polyline fill="#42494E" points="205.137 211.199 202.396 208.458 213.979 196.875 216.72 199.616 215.306 201.03 213.979 199.704 205.225 208.458 206.551 209.785 205.137 211.199"/>
    <polyline fill="#42494E" points="206.332 206.744 196.331 204.929 187.398 183.803 189.629 181.572 210.756 190.505 212.569 200.506 210.602 200.863 208.98 191.926 190.091 183.939 189.765 184.265 197.752 203.155 206.689 204.776 206.332 206.744"/>
    <polygon fill="#434A4F" points="207.019 67.819 209.019 67.819 209.019 63.819 207.019 63.819"/>
    <polygon fill="#434A4F" points="207.019 77.819 209.019 77.819 209.019 73.819 207.019 73.819"/>
    <polygon fill="#434A4F" points="211.019 71.819 215.019 71.819 215.019 69.819 211.019 69.819"/>
    <polygon fill="#434A4F" points="201.019 71.819 205.019 71.819 205.019 69.819 201.019 69.819"/>
    <polygon fill="#434A4F" points="39.919 177.885 41.919 177.885 41.919 173.885 39.919 173.885"/>
    <polygon fill="#434A4F" points="39.919 187.885 41.919 187.885 41.919 183.885 39.919 183.885"/>
    <polygon fill="#434A4F" points="43.919 181.885 47.919 181.885 47.919 179.885 43.919 179.885"/>
    <polygon fill="#434A4F" points="33.919 181.885 37.919 181.885 37.919 179.885 33.919 179.885"/>
    <path fill="#4193A9" d="M203.766 129.325C202.247 129.325 201.016 128.094 201.016 126.575 201.016 125.056 202.247 123.825 203.766 123.825 205.285 123.825 206.516 125.056 206.516 126.575 206.516 128.094 205.285 129.325 203.766 129.325M46.266 73.825C44.747 73.825 43.516 72.593 43.516 71.075 43.516 69.556 44.747 68.324 46.266 68.324 47.785 68.324 49.016 69.556 49.016 71.075 49.016 72.593 47.785 73.825 46.266 73.825M46.266 161.825C44.747 161.825 43.516 160.593 43.516 159.075 43.516 157.556 44.747 156.324 46.266 156.324 47.785 156.324 49.016 157.556 49.016 159.075 49.016 160.593 47.785 161.825 46.266 161.825"/>
  </g>
</svg>
