<svg xmlns="http://www.w3.org/2000/svg" width="250" height="250" viewBox="0 0 250 250">
  <g fill="none" fill-rule="evenodd">
    <path fill="#434A4F" d="M31,122.732 L73.261,122.732 L73.261,97.249 L31,97.249 L31,122.732 Z M29,124.732 L75.261,124.732 L75.261,95.249 L29,95.249 L29,124.732 Z"/>
    <path fill="#434A4F" d="M52.131 111.268C51.944 111.268 51.757 111.215 51.593 111.111L35.469 100.836C35.004 100.539 34.867 99.921 35.164 99.455 35.46 98.99 36.078 98.854 36.545 99.149L52.129 109.081 67.078 99.49C67.541 99.193 68.161 99.327 68.46 99.792 68.758 100.257 68.623 100.875 68.158 101.174L52.671 111.109C52.506 111.215 52.318 111.268 52.131 111.268M70.87 121.163C70.584 121.163 70.3 121.04 70.102 120.803L61.178 110.097C60.825 109.672 60.882 109.042 61.306 108.688 61.731 108.334 62.361 108.393 62.715 108.816L71.638 119.522C71.992 119.947 71.934 120.577 71.51 120.931 71.323 121.086 71.096 121.163 70.87 121.163M33.391 121.163C33.165 121.163 32.938 121.086 32.751 120.931 32.327 120.577 32.27 119.947 32.623 119.522L41.547 108.816C41.9 108.393 42.531 108.335 42.955 108.688 43.38 109.042 43.437 109.672 43.083 110.097L34.159 120.803C33.962 121.04 33.678 121.163 33.391 121.163"/>
    <polygon fill="#434A4F" points="52.981 140.664 54.981 140.664 54.981 126.627 52.981 126.627"/>
    <path fill="#434A4F" d="M53.98,144.009 C53.719,144.009 53.46,143.899 53.27,143.709 C53.23,143.669 53.19,143.619 53.15,143.56 C53.11,143.509 53.079,143.449 53.06,143.389 C53.029,143.33 53.01,143.27 53,143.199 C52.989,143.139 52.98,143.069 52.98,143.009 C52.98,142.75 53.09,142.489 53.27,142.299 C53.65,141.929 54.32,141.929 54.69,142.299 C54.78,142.389 54.849,142.5 54.9,142.629 C54.96,142.75 54.98,142.879 54.98,143.009 C54.98,143.27 54.869,143.529 54.69,143.709 C54.5,143.899 54.25,144.009 53.98,144.009"/>
    <polygon fill="#434A4F" points="61.673 131.966 63.673 131.966 63.673 126.627 61.673 126.627"/>
    <path fill="#434A4F" d="M62.67,135.31 C62.409,135.31 62.15,135.209 61.969,135.02 C61.869,134.929 61.8,134.819 61.75,134.699 C61.699,134.569 61.67,134.439 61.67,134.31 C61.67,134.049 61.779,133.79 61.969,133.609 C62.34,133.229 63.009,133.229 63.38,133.609 C63.429,133.649 63.469,133.699 63.5,133.759 C63.54,133.81 63.57,133.869 63.599,133.929 C63.619,133.989 63.639,134.049 63.65,134.119 C63.67,134.179 63.67,134.25 63.67,134.31 C63.67,134.439 63.65,134.569 63.599,134.699 C63.55,134.819 63.469,134.929 63.38,135.02 C63.19,135.209 62.94,135.31 62.67,135.31"/>
    <polygon fill="#434A4F" points="44.284 134.865 46.284 134.865 46.284 126.627 44.284 126.627"/>
    <path fill="#434A4F" d="M45.279 138.209C45.02 138.209 44.759 138.099 44.579 137.919 44.389 137.729 44.28 137.469 44.28 137.209 44.28 136.949 44.389 136.689 44.579 136.5 44.95 136.129 45.619 136.129 45.989 136.5 46.179 136.689 46.279 136.949 46.279 137.209 46.279 137.469 46.179 137.729 45.989 137.919 45.8 138.099 45.55 138.209 45.279 138.209M155.799 100.266C155.734 100.266 155.668 100.26 155.602 100.247 155.06 100.138 154.709 99.611 154.818 99.07L156.568 90.32C156.676 89.778 157.202 89.426 157.744 89.536 158.286 89.644 158.637 90.171 158.529 90.712L156.779 99.462C156.684 99.937 156.266 100.266 155.799 100.266"/>
    <path fill="#E9886C" d="M131.994,187.186 C131.994,187.186 129.327,168.335 127.994,163.001 C129.098,163.002 129.994,162.107 129.994,161.002 L129.994,156.002 L124.91,149.998 L119.994,156.002 L119.994,161.002 C119.994,162.107 120.889,163.002 121.994,163.001 C120.661,168.335 117.994,187.186 117.994,187.186 L131.994,187.186"/>
    <path fill="#DDDED9" d="M109.613,135.007 L109.613,139.377 L124.744,147.877 L139.744,139.627 L139.878,131.629 L139.878,124.888 C140.452,124.322 141.039,123.716 141.566,123.104 C141.386,123.261 141.214,123.419 141.066,123.578 C138.963,125.838 135.774,128.211 133.615,130.055 C131.907,131.514 129.747,132.32 127.501,132.346 L121.009,132.346 C118.763,132.32 116.604,131.514 114.895,130.055 C112.835,128.295 109.835,126.053 107.738,123.887 C107.674,123.821 107.601,123.756 107.533,123.691 C108.163,124.361 108.883,125.04 109.649,125.716 C109.632,125.724 109.613,125.732 109.613,125.752 L109.613,135.007"/>
    <path fill="#434A4F" d="M109.613 140.251C109.061 140.251 108.613 139.803 108.613 139.251L108.613 125.751C108.613 125.199 109.061 124.751 109.613 124.751 110.165 124.751 110.613 125.199 110.613 125.751L110.613 139.251C110.613 139.803 110.165 140.251 109.613 140.251M95.062 86.662C95.061 86.662 95.06 86.662 95.058 86.662 94.506 86.66 94.06 86.21 94.062 85.658L94.066 84.191C94.066 75.947 97.464 67.845 103.388 61.96 109.193 56.196 116.786 53.085 124.72 53.105 131.551 53.152 137.99 55.408 143.343 59.628 146.879 62.417 149.803 66.017 151.798 70.039 151.971 70.388 152.138 70.741 152.298 71.099 154.061 74.896 154.981 79.129 154.953 83.328L154.951 84.67C154.951 85.223 154.504 85.67 153.951 85.67 153.399 85.67 152.951 85.223 152.951 84.67L152.953 83.315C152.979 79.409 152.123 75.472 150.478 71.929 150.323 71.584 150.168 71.254 150.006 70.929 148.142 67.169 145.409 63.805 142.104 61.199 137.104 57.256 131.088 55.149 124.707 55.105 124.644 55.105 124.581 55.105 124.518 55.105 117.171 55.105 110.175 58.039 104.798 63.379 99.249 68.891 96.066 76.477 96.066 84.191L96.062 85.665C96.06 86.216 95.613 86.662 95.062 86.662M139.778 140.002C139.226 140.002 138.778 139.554 138.778 139.002L138.778 124.448 139.076 124.155C140.25 122.997 141.655 121.519 142.091 120.358L147.923 108.455C148.166 107.959 148.765 107.754 149.261 107.998 149.757 108.241 149.962 108.84 149.719 109.336L143.925 121.151C143.43 122.479 142.143 123.917 140.778 125.283L140.778 139.002C140.778 139.554 140.33 140.002 139.778 140.002"/>
    <path fill="#434A4F" d="M127.516 133.346L121.009 133.346C118.521 133.317 116.123 132.419 114.246 130.815 113.634 130.293 112.939 129.728 112.209 129.135 109.076 126.587 105.526 123.699 104.556 121.099L98.81 109.372C98.567 108.876 98.773 108.277 99.269 108.035 99.765 107.792 100.364 107.997 100.606 108.493L106.391 120.31C107.209 122.491 110.681 125.314 113.471 127.583 114.214 128.187 114.922 128.763 115.545 129.295 117.067 130.595 119.011 131.323 121.021 131.346L127.516 131.346C128.068 131.346 128.516 131.794 128.516 132.346 128.516 132.898 128.068 133.346 127.516 133.346M60.994 209.182L58.994 209.182 58.994 184.003 59.057 164.669C59.057 158.726 62.83 156.827 68.159 154.794L99.3 144.182 104.793 134.002 109.16 134.002 109.16 136.002 105.987 136.002 100.688 145.822 68.838 156.675C63.56 158.689 61.057 160.14 61.057 164.673L60.994 184.006 60.994 209.182M124.994 149.147L109.135 140.267C108.653 139.997 108.481 139.387 108.751 138.905 109.022 138.424 109.631 138.253 110.113 138.521L124.994 146.855 139.292 138.848C139.775 138.58 140.384 138.751 140.654 139.232 140.924 139.714 140.752 140.323 140.27 140.593L124.994 149.147M165 221.02L143.161 221.02C139.76 221.02 136.994 218.253 136.994 214.852L136.994 213.854C136.994 210.454 139.76 207.687 143.161 207.687L151.16 207.687C153.458 207.687 155.327 205.817 155.327 203.52 155.327 201.222 153.458 199.352 151.16 199.352L106.476 199.352C103.076 199.352 100.309 196.585 100.309 193.185 100.309 189.772 103.076 187.005 106.476 187.005L142.333 187.005 142.333 189.005 106.476 189.005C104.178 189.005 102.309 190.875 102.309 193.172 102.309 195.483 104.178 197.352 106.476 197.352L151.16 197.352C154.56 197.352 157.327 200.119 157.327 203.52 157.327 206.92 154.56 209.687 151.16 209.687L143.161 209.687C140.863 209.687 138.994 211.556 138.994 213.854L138.994 214.852C138.994 217.15 140.863 219.02 143.161 219.02L165 219.02C167.757 219.02 170 216.776 170 214.02L170 210.605 174.293 206.313 175.707 207.727 172 211.434 172 214.02C172 217.879 168.86 221.02 165 221.02M168.829 189.009C168.57 189.009 168.31 188.899 168.13 188.709 167.94 188.529 167.829 188.27 167.829 188.009 167.829 187.739 167.94 187.489 168.13 187.299 168.4 187.02 168.849 186.929 169.219 187.08 169.34 187.129 169.449 187.209 169.54 187.299 169.73 187.479 169.829 187.739 169.829 188.009 169.829 188.27 169.73 188.529 169.54 188.709 169.449 188.81 169.34 188.879 169.219 188.929 169.09 188.979 168.96 189.009 168.829 189.009M148.11 188.009C148.11 187.449 148.56 187.009 149.11 187.009 149.659 187.009 150.11 187.449 150.11 188.009 150.11 188.56 149.659 189.009 149.11 189.009 148.56 189.009 148.11 188.56 148.11 188.009zM152.06 188.009C152.06 187.449 152.5 187.009 153.06 187.009 153.61 187.009 154.06 187.449 154.06 188.009 154.06 188.56 153.61 189.009 153.06 189.009 152.5 189.009 152.06 188.56 152.06 188.009zM156 188.009C156 187.449 156.449 187.009 157 187.009 157.55 187.009 158 187.449 158 188.009 158 188.56 157.55 189.009 157 189.009 156.449 189.009 156 188.56 156 188.009zM159.94 188.009C159.94 187.449 160.389 187.009 160.94 187.009 161.5 187.009 161.94 187.449 161.94 188.009 161.94 188.56 161.5 189.009 160.94 189.009 160.389 189.009 159.94 188.56 159.94 188.009zM163.889 188.009C163.889 187.449 164.34 187.009 164.889 187.009 165.44 187.009 165.889 187.449 165.889 188.009 165.889 188.56 165.44 189.009 164.889 189.009 164.34 189.009 163.889 188.56 163.889 188.009z"/>
    <path fill="#434A4F" d="M145.17 189.009C145.04 189.009 144.909 188.979 144.78 188.929 144.659 188.879 144.55 188.81 144.46 188.709 144.409 188.669 144.369 188.619 144.329 188.56 144.3 188.509 144.27 188.449 144.24 188.389 144.219 188.33 144.199 188.259 144.19 188.199 144.17 188.139 144.17 188.069 144.17 188.009 144.17 187.939 144.17 187.879 144.19 187.81 144.199 187.75 144.219 187.679 144.24 187.619 144.27 187.56 144.3 187.509 144.329 187.449 144.369 187.399 144.409 187.349 144.46 187.299 144.55 187.209 144.659 187.129 144.78 187.08 144.969 187.009 145.17 186.989 145.36 187.02 145.429 187.04 145.49 187.06 145.55 187.08 145.61 187.109 145.67 187.139 145.719 187.169 145.78 187.209 145.829 187.25 145.869 187.299 145.92 187.349 145.96 187.399 146 187.449 146.03 187.509 146.07 187.56 146.09 187.619 146.119 187.679 146.139 187.75 146.15 187.81 146.159 187.879 146.17 187.939 146.17 188.009 146.17 188.069 146.159 188.139 146.15 188.199 146.139 188.259 146.119 188.33 146.09 188.389 146.07 188.449 146.03 188.509 146 188.56 145.96 188.619 145.92 188.669 145.869 188.709 145.829 188.759 145.78 188.799 145.719 188.839 145.67 188.869 145.61 188.899 145.55 188.929 145.49 188.959 145.429 188.969 145.36 188.989 145.3 189 145.23 189.009 145.17 189.009M184.049 189.005L171.5 189.005 171.5 187.005 184.049 187.005C186.805 187.005 189.049 184.762 189.049 182.005L189.049 171.353 191.049 171.353 191.049 182.005C191.049 185.865 187.908 189.005 184.049 189.005"/>
    <polyline fill="#434A4F" points="182.337 157.464 149.243 145.911 143.194 136.002 139.994 136.002 139.994 134.002 144.316 134.002 150.577 144.259 182.996 155.575 182.337 157.464"/>
    <path fill="#434A4F" d="M115.993 161.001C115.755 161.001 115.516 160.917 115.325 160.745 114.914 160.375 114.881 159.743 115.251 159.333L124.994 148.507 134.737 159.333C135.107 159.743 135.073 160.375 134.663 160.745 134.253 161.115 133.62 161.08 133.251 160.67L124.994 151.496 116.737 160.67C116.54 160.89 116.267 161.001 115.993 161.001M90.35 90.063C90.161 88.152 90.066 86.338 90.066 84.67L90.066 84.191C90.066 74.89 93.894 65.752 100.57 59.123 107.144 52.592 115.723 49.057 124.749 49.105 132.474 49.158 139.761 51.711 145.819 56.487 149.818 59.64 153.124 63.711 155.381 68.262 155.577 68.657 155.766 69.057 155.948 69.461 157.944 73.76 158.985 78.568 158.953 83.354L158.951 83.58 158.952 84.67C158.952 86.316 158.842 88.124 158.625 90.044L156.637 89.819C156.846 87.974 156.952 86.242 156.952 84.67L156.951 83.574 156.953 83.341C156.983 78.848 156.006 74.335 154.128 70.291 153.952 69.899 153.774 69.522 153.589 69.15 151.464 64.864 148.348 61.028 144.581 58.058 138.875 53.559 132.012 51.155 124.734 51.105 116.247 51.061 108.172 54.39 101.979 60.542 95.679 66.798 92.066 75.419 92.066 84.191L92.066 84.67C92.066 86.272 92.158 88.021 92.34 89.867L90.35 90.063"/>
    <path fill="#434A4F" d="M95.85,90.305 C95.77,90.305 95.69,90.314 95.61,90.333 L88.825,91.895 C87.207,92.259 86.19,93.868 86.554,95.482 L89.193,107.19 C89.557,108.804 91.164,109.824 92.778,109.458 L99.618,107.883 C100.131,107.758 100.462,107.223 100.343,106.695 L96.824,91.085 C96.764,90.821 96.605,90.597 96.375,90.455 C96.214,90.355 96.034,90.305 95.85,90.305 Z M92.11,111.532 C91.175,111.532 90.258,111.269 89.449,110.757 C88.319,110.043 87.536,108.933 87.242,107.63 L84.603,95.921 C83.997,93.232 85.691,90.551 88.381,89.944 L95.148,88.388 C95.921,88.197 96.736,88.327 97.427,88.754 C98.118,89.182 98.596,89.853 98.775,90.645 L102.294,106.255 C102.651,107.84 101.658,109.443 100.08,109.829 L93.219,111.408 C92.851,111.491 92.479,111.532 92.11,111.532 Z"/>
    <path fill="#434A4F" d="M93.249,100.266 C92.782,100.266 92.364,99.937 92.269,99.462 L90.519,90.712 C90.411,90.171 90.762,89.644 91.303,89.536 C91.846,89.426 92.373,89.778 92.48,90.32 L94.23,99.07 C94.339,99.611 93.988,100.138 93.446,100.247 C93.38,100.26 93.314,100.266 93.249,100.266"/>
    <path fill="#434A4F" d="M93.188 97.204C92.085 97.204 91.188 98.101 91.188 99.204 91.188 100.307 92.085 101.204 93.188 101.204 94.291 101.204 95.188 100.307 95.188 99.204 95.188 98.101 94.291 97.204 93.188 97.204zM93.188 103.204C90.982 103.204 89.188 101.409 89.188 99.204 89.188 96.998 90.982 95.204 93.188 95.204 95.393 95.204 97.188 96.998 97.188 99.204 97.188 101.409 95.393 103.204 93.188 103.204zM156.814 109.642C158.426 110 160.032 108.985 160.395 107.374L163.035 95.665C163.399 94.051 162.382 92.442 160.768 92.079L153.444 90.335C153.175 90.268 152.903 90.312 152.674 90.455 152.444 90.597 152.284 90.821 152.225 91.085L148.706 106.695C148.587 107.223 148.918 107.758 149.444 107.887L156.814 109.642zM157.469 111.715C157.106 111.715 156.738 111.675 156.369 111.592L156.357 111.589 148.974 109.831C147.39 109.443 146.398 107.84 146.755 106.255L150.274 90.645C150.452 89.853 150.93 89.182 151.621 88.754 152.311 88.328 153.126 88.199 153.913 88.391L161.219 90.13C163.898 90.734 165.593 93.415 164.986 96.105L162.346 107.813C161.823 110.134 159.755 111.715 157.469 111.715z"/>
    <path fill="#434A4F" d="M155.86 97.204C154.757 97.204 153.86 98.101 153.86 99.204 153.86 100.307 154.757 101.204 155.86 101.204 156.963 101.204 157.86 100.307 157.86 99.204 157.86 98.101 156.963 97.204 155.86 97.204zM155.86 103.204C153.655 103.204 151.86 101.409 151.86 99.204 151.86 96.998 153.655 95.204 155.86 95.204 158.066 95.204 159.86 96.998 159.86 99.204 159.86 101.409 158.066 103.204 155.86 103.204zM121.998 118.019C121.447 118.019 120.998 118.467 120.998 119.019 120.998 119.57 121.447 120.019 121.998 120.019L127.998 120.019C128.549 120.019 128.998 119.57 128.998 119.019 128.998 118.467 128.549 118.019 127.998 118.019L121.998 118.019zM127.998 122.019L121.998 122.019C120.344 122.019 118.998 120.673 118.998 119.019 118.998 117.364 120.344 116.019 121.998 116.019L127.998 116.019C129.652 116.019 130.998 117.364 130.998 119.019 130.998 120.673 129.652 122.019 127.998 122.019z"/>
    <polyline fill="#434A4F" points="134.811 120.019 129.998 120.019 129.998 118.019 134.688 118.019 150.351 116.089 153.526 109.893 155.306 110.805 151.648 117.945 134.811 120.019"/>
    <path fill="#434A4F" d="M190.127,30.98 C174.207,30.98 161.256,43.933 161.256,59.852 C161.256,71.576 168.257,82.049 179.092,86.536 L179.772,86.817 L179.705,87.55 C179.511,89.679 178.535,91.546 177.073,92.881 C180.088,92.449 182.84,91.007 184.967,88.715 L185.325,88.329 L185.846,88.406 C187.265,88.617 188.705,88.724 190.127,88.724 C206.047,88.724 218.999,75.772 218.999,59.852 C218.999,43.933 206.047,30.98 190.127,30.98 Z M175.132,95.019 L171.521,95.019 L171.521,93.019 C174.517,93.019 177.02,90.939 177.609,88.076 C166.433,83.12 159.256,72.126 159.256,59.852 C159.256,42.83 173.105,28.98 190.127,28.98 C207.15,28.98 220.999,42.83 220.999,59.852 C220.999,76.875 207.15,90.724 190.127,90.724 C188.779,90.724 187.415,90.634 186.067,90.456 C183.178,93.363 179.223,95.019 175.132,95.019 Z"/>
    <polygon fill="#434A4F" points="173.05 48.034 207.05 48.034 207.05 46.034 173.05 46.034"/>
    <polygon fill="#434A4F" points="173.05 52.184 207.05 52.184 207.05 50.184 173.05 50.184"/>
    <polygon fill="#434A4F" points="173.05 56.186 207.05 56.186 207.05 54.186 173.05 54.186"/>
    <polyline fill="#434A4F" points="198.25 71.512 194.45 67.712 195.865 66.298 198.25 68.684 207.343 59.59 208.757 61.004 198.25 71.512"/>
    <polyline fill="#434A4F" points="184.343 71.819 176.343 63.819 177.757 62.405 185.757 70.405 184.343 71.819"/>
    <polyline fill="#434A4F" points="177.757 71.819 176.343 70.405 184.343 62.405 185.757 63.819 177.757 71.819"/>
    <path fill="#434A4F" d="M175.049,73.113 L187.049,73.113 L187.049,61.113 L175.049,61.113 L175.049,73.113 Z M173.049,75.113 L189.049,75.113 L189.049,59.113 L173.049,59.113 L173.049,75.113 Z"/>
    <polyline fill="#434A4F" points="207.049 75.113 191.049 75.113 191.049 59.113 203.882 59.113 203.882 61.113 193.049 61.113 193.049 73.113 205.049 73.113 205.049 66.196 207.049 66.196 207.049 75.113"/>
    <path fill="#42494E" d="M182.322,194.175 C181.982,194.175 181.645,194.304 181.387,194.561 L173.374,202.554 C173.122,202.805 172.984,203.139 172.983,203.494 C172.983,203.849 173.12,204.184 173.371,204.435 L177.557,208.477 C177.691,208.596 178.178,208.778 178.61,208.879 C181.7,208.825 184.582,208.393 187.179,207.594 C202.284,202.944 213.828,191.075 218.058,175.845 C218.581,173.963 218.847,171.866 218.85,169.61 C218.852,168.633 218.472,167.713 217.782,167.021 L214.28,163.665 C214.013,163.397 213.679,163.259 213.324,163.258 C213.323,163.258 213.323,163.258 213.322,163.258 C212.968,163.258 212.635,163.396 212.383,163.646 L204.369,171.639 C203.85,172.157 203.849,173.001 204.367,173.521 L208.778,177.772 L208.682,178.299 C206.904,188.118 199.49,195.987 189.794,198.348 L187.718,198.854 L183.282,194.577 C183.014,194.309 182.667,194.175 182.322,194.175 Z M178.416,210.882 L178.309,210.861 C177.956,210.789 176.757,210.506 176.154,209.902 L171.969,205.86 C171.327,205.217 170.982,204.381 170.983,203.491 C170.984,202.602 171.332,201.766 171.962,201.138 L179.975,193.145 C181.276,191.849 183.388,191.851 184.684,193.151 L188.313,196.65 L189.321,196.405 C198.077,194.273 204.812,187.262 206.614,178.464 L202.965,174.946 C201.654,173.632 201.657,171.52 202.957,170.223 L210.971,162.23 C211.599,161.604 212.434,161.258 213.322,161.258 C213.323,161.258 213.325,161.258 213.327,161.258 C214.216,161.259 215.052,161.607 215.68,162.237 L219.182,165.592 C220.266,166.679 220.853,168.102 220.85,169.613 C220.847,172.048 220.556,174.325 219.985,176.38 C215.572,192.271 203.528,204.654 187.767,209.505 C184.957,210.371 181.847,210.833 178.524,210.881 L178.416,210.882 Z"/>
    <polyline fill="#42494E" points="209.63 175.839 208.218 174.423 212.466 170.186 213.878 171.602 209.63 175.839"/>
    <polyline fill="#42494E" points="215.298 170.187 213.885 168.771 215.3 167.359 216.712 168.775 215.298 170.187"/>
    <polyline fill="#42494E" points="178.458 206.929 177.046 205.513 184.128 198.45 185.54 199.866 178.458 206.929"/>
    <polygon fill="#434A4F" points="61.476 58.52 63.476 58.52 63.476 54.52 61.476 54.52"/>
    <polygon fill="#434A4F" points="61.476 68.52 63.476 68.52 63.476 64.52 61.476 64.52"/>
    <polygon fill="#434A4F" points="65.476 62.52 69.476 62.52 69.476 60.52 65.476 60.52"/>
    <polygon fill="#434A4F" points="55.476 62.52 59.476 62.52 59.476 60.52 55.476 60.52"/>
    <polygon fill="#434A4F" points="189 127.02 191 127.02 191 123.02 189 123.02"/>
    <polygon fill="#434A4F" points="189 137.02 191 137.02 191 133.02 189 133.02"/>
    <polygon fill="#434A4F" points="193 131.02 197 131.02 197 129.02 193 129.02"/>
    <polygon fill="#434A4F" points="183 131.02 187 131.02 187 129.02 183 129.02"/>
    <path fill="#434A4F" d="M60,213.02 C59.739,213.02 59.48,212.909 59.29,212.729 C59.2,212.629 59.13,212.52 59.079,212.399 C59.02,212.279 59,212.149 59,212.02 C59,211.889 59.02,211.759 59.079,211.639 C59.13,211.509 59.2,211.409 59.29,211.31 C59.57,211.04 60.009,210.939 60.38,211.099 C60.5,211.149 60.61,211.219 60.71,211.31 C60.8,211.409 60.869,211.509 60.92,211.639 C60.969,211.759 61,211.889 61,212.02 C61,212.149 60.969,212.279 60.92,212.399 C60.869,212.52 60.8,212.629 60.71,212.729 C60.52,212.909 60.259,213.02 60,213.02"/>
    <path fill="#FACD60" d="M87,131.068 C87,132.172 86.104,133.068 85,133.068 C83.895,133.068 83,132.172 83,131.068 C83,129.963 83.895,129.068 85,129.068 C86.104,129.068 87,129.963 87,131.068"/>
    <path fill="#75C7D0" d="M185.058 111.056C185.058 112.712 183.715 114.056 182.058 114.056 180.401 114.056 179.058 112.712 179.058 111.056 179.058 109.399 180.401 108.056 182.058 108.056 183.715 108.056 185.058 109.399 185.058 111.056M221 135.02C221 136.124 220.104 137.02 219 137.02 217.895 137.02 217 136.124 217 135.02 217 133.915 217.895 133.02 219 133.02 220.104 133.02 221 133.915 221 135.02"/>
    <path fill="#434A4F" d="M194,168.02 L192,168.02 C192,159.197 199.177,152.02 208,152.02 L208,154.02 C200.28,154.02 194,160.3 194,168.02"/>
    <path fill="#434A4F" d="M190,168.02 L188,168.02 C188,156.992 196.972,148.02 208,148.02 L208,150.02 C198.074,150.02 190,158.094 190,168.02"/>
    <path fill="#434A4F" d="M186 168.02L184 168.02C184 154.786 194.766 144.02 208 144.02L208 146.02C195.869 146.02 186 155.889 186 168.02M198 168.02L196 168.02C196 161.403 201.383 156.02 208 156.02L208 158.02C202.486 158.02 198 162.505 198 168.02"/>
  </g>
</svg>
