<svg xmlns="http://www.w3.org/2000/svg" width="250" height="250" viewBox="0 0 250 250">
  <g fill="none" fill-rule="evenodd">
    <path fill="#FACD60" d="M211.127,158.06 C211.127,159.717 209.784,161.06 208.127,161.06 C206.47,161.06 205.127,159.717 205.127,158.06 C205.127,156.403 206.47,155.06 208.127,155.06 C209.784,155.06 211.127,156.403 211.127,158.06"/>
    <path fill="#434A4F" d="M181.37,90.256 L185.222,91.507 L185.938,89.304 C186.59,87.296 188.375,85.999 190.485,85.998 L190.486,85.998 C192.596,85.998 194.381,87.294 195.033,89.301 L195.75,91.503 L199.601,90.251 L198.885,88.048 C198.232,86.041 198.914,83.942 200.621,82.701 C202.328,81.46 204.535,81.46 206.242,82.7 L208.116,84.061 L210.496,80.782 L208.621,79.421 C206.914,78.182 206.231,76.083 206.883,74.076 C207.534,72.069 209.319,70.771 211.429,70.771 L213.746,70.77 L213.744,66.72 L211.427,66.72 C209.317,66.72 207.532,65.424 206.88,63.417 C206.226,61.411 206.908,59.312 208.615,58.071 L210.488,56.709 L208.165,53.515 L206.292,54.876 C204.586,56.118 202.378,56.119 200.672,54.879 C198.964,53.64 198.28,51.541 198.931,49.534 L199.646,47.331 L195.794,46.081 L195.079,48.284 C194.427,50.291 192.643,51.588 190.533,51.589 C190.532,51.589 190.531,51.589 190.53,51.589 C188.421,51.589 186.636,50.293 185.983,48.288 L185.267,46.085 L181.415,47.338 L182.132,49.541 C182.785,51.547 182.103,53.646 180.397,54.887 C178.689,56.128 176.485,56.129 174.775,54.889 L172.901,53.529 L170.521,56.807 L172.395,58.167 C174.103,59.407 174.787,61.505 174.135,63.513 C173.484,65.52 171.7,66.818 169.59,66.819 L167.272,66.819 L167.275,70.87 L169.591,70.869 C169.591,70.869 169.592,70.869 169.593,70.869 C171.702,70.869 173.486,72.165 174.139,74.171 C174.793,76.178 174.111,78.277 172.404,79.518 L170.531,80.88 L172.852,84.072 L174.725,82.71 C176.432,81.468 178.639,81.469 180.346,82.708 C182.054,83.949 182.737,86.047 182.085,88.054 L181.37,90.256 Z M186.508,94.026 L178.85,91.541 L180.182,87.436 C180.642,86.019 179.962,84.901 179.172,84.327 C178.382,83.753 177.106,83.451 175.901,84.328 L172.411,86.866 L167.738,80.438 L171.228,77.901 C172.433,77.024 172.54,75.719 172.237,74.79 C171.935,73.861 171.082,72.869 169.593,72.869 C169.592,72.869 169.592,72.869 169.591,72.869 L165.275,72.871 L165.272,64.82 L169.589,64.819 C171.078,64.818 171.931,63.825 172.233,62.895 C172.534,61.966 172.427,60.661 171.22,59.786 L167.728,57.251 L172.458,50.736 L175.95,53.271 C177.156,54.146 178.43,53.844 179.22,53.27 C180.01,52.695 180.69,51.576 180.229,50.16 L178.895,46.055 L186.551,43.564 L187.885,47.669 C188.346,49.085 189.553,49.589 190.531,49.589 C190.531,49.589 190.531,49.589 190.532,49.589 C191.509,49.589 192.717,49.083 193.177,47.667 L194.509,43.561 L202.166,46.045 L200.834,50.151 C200.374,51.568 201.055,52.686 201.846,53.26 C202.635,53.834 203.91,54.135 205.116,53.259 L208.606,50.721 L213.281,57.151 L209.791,59.689 C208.586,60.565 208.479,61.87 208.781,62.799 C209.084,63.728 209.937,64.72 211.427,64.72 L215.744,64.719 L215.746,72.769 L211.429,72.771 C209.94,72.771 209.087,73.765 208.785,74.694 C208.483,75.623 208.591,76.928 209.797,77.803 L213.289,80.339 L208.559,86.853 L205.066,84.318 C203.862,83.443 202.588,83.745 201.797,84.319 C201.007,84.894 200.326,86.012 200.787,87.43 L202.123,91.534 L194.467,94.024 L193.131,89.92 C192.671,88.503 191.463,87.999 190.486,87.999 C190.486,87.999 190.486,87.999 190.485,87.999 C189.509,87.999 188.301,88.504 187.841,89.921 L186.508,94.026 Z"/>
    <path fill="#42494E" d="M181.167,75.651 C177.409,70.483 178.555,63.221 183.724,59.463 C188.891,55.705 196.154,56.852 199.912,62.02 L198.295,63.196 C195.185,58.919 189.177,57.972 184.9,61.08 C182.829,62.587 181.468,64.81 181.068,67.339 C180.669,69.869 181.278,72.403 182.784,74.474 L181.167,75.651"/>
    <path fill="#E9886C" d="M190.513,65.295 C189.428,65.295 188.358,65.797 187.675,66.741 C187.126,67.498 186.905,68.423 187.052,69.346 C187.201,70.27 187.699,71.08 188.456,71.628 C190.018,72.761 192.212,72.411 193.344,70.848 C193.892,70.09 194.113,69.165 193.966,68.242 C193.817,67.319 193.319,66.508 192.562,65.96 C191.943,65.511 191.225,65.295 190.513,65.295 Z M190.496,75.296 C189.137,75.296 187.817,74.871 186.696,74.058 C185.29,73.04 184.365,71.534 184.091,69.82 C183.816,68.105 184.226,66.387 185.245,64.981 C186.263,63.575 187.768,62.649 189.483,62.376 C191.196,62.102 192.917,62.511 194.322,63.53 C197.224,65.633 197.876,69.705 195.773,72.607 C194.755,74.014 193.25,74.939 191.535,75.213 C191.188,75.268 190.841,75.296 190.496,75.296 Z"/>
    <path fill="#434A4F" d="M190.304,54.761 C190.335,54.21 190.804,53.79 191.365,53.811 C191.365,53.811 191.365,53.811 191.365,53.821 C191.915,53.851 192.335,54.321 192.304,54.871 C192.275,55.421 191.795,55.841 191.245,55.811 C190.695,55.781 190.275,55.311 190.304,54.761 Z M186.365,55.381 C186.235,54.851 186.565,54.311 187.105,54.181 C187.645,54.06 188.184,54.391 188.304,54.931 C188.434,55.471 188.094,56.011 187.554,56.131 C187.485,56.151 187.405,56.161 187.335,56.161 C186.875,56.161 186.465,55.851 186.365,55.381 Z M194.875,56.54 C194.355,56.361 194.085,55.79 194.264,55.271 C194.455,54.75 195.025,54.471 195.545,54.661 C196.065,54.851 196.335,55.421 196.155,55.941 C196.005,56.351 195.625,56.601 195.215,56.601 C195.094,56.601 194.985,56.581 194.875,56.54 Z M182.745,57.091 C182.474,56.611 182.645,56 183.125,55.73 C183.605,55.46 184.215,55.631 184.485,56.111 C184.764,56.591 184.594,57.201 184.105,57.471 L184.115,57.471 C183.955,57.561 183.785,57.601 183.625,57.601 C183.275,57.601 182.934,57.421 182.745,57.091 Z M198.135,58.261 L198.135,58.271 C197.684,57.941 197.585,57.321 197.915,56.871 C198.235,56.421 198.865,56.321 199.304,56.651 C199.755,56.971 199.855,57.601 199.535,58.04 C199.335,58.311 199.035,58.46 198.724,58.46 C198.514,58.46 198.315,58.391 198.135,58.261 Z M179.764,59.761 C179.375,59.371 179.365,58.741 179.745,58.341 C180.125,57.951 180.764,57.931 181.155,58.321 C181.554,58.71 181.565,59.341 181.184,59.73 C180.985,59.941 180.724,60.04 180.465,60.04 C180.215,60.04 179.965,59.941 179.764,59.761 Z M200.795,60.841 C200.455,60.401 200.535,59.771 200.974,59.441 C201.415,59.101 202.035,59.181 202.375,59.621 C202.715,60.051 202.635,60.681 202.195,61.02 C202.014,61.161 201.804,61.23 201.585,61.23 C201.285,61.23 200.995,61.091 200.795,60.841 Z M177.655,63.151 C177.165,62.891 176.974,62.281 177.235,61.801 C177.495,61.311 178.105,61.121 178.585,61.381 C179.075,61.641 179.264,62.241 179.005,62.73 C178.825,63.071 178.474,63.261 178.115,63.261 C177.965,63.261 177.804,63.23 177.655,63.151 Z M202.615,64.06 C202.415,63.551 202.675,62.971 203.184,62.77 C203.695,62.571 204.285,62.821 204.474,63.331 C204.474,63.331 204.474,63.331 204.485,63.331 C204.684,63.851 204.425,64.431 203.915,64.631 C203.795,64.681 203.665,64.701 203.545,64.701 C203.145,64.701 202.775,64.46 202.615,64.06 Z M176.585,67.001 C176.045,66.891 175.695,66.361 175.804,65.821 C175.905,65.281 176.434,64.931 176.974,65.04 C177.514,65.151 177.875,65.671 177.764,66.221 C177.665,66.691 177.245,67.02 176.775,67.02 C176.715,67.02 176.645,67.011 176.585,67.001 Z M203.455,67.671 C203.405,67.121 203.815,66.631 204.365,66.581 C204.915,66.54 205.405,66.941 205.455,67.491 C205.495,68.04 205.094,68.531 204.545,68.581 C204.514,68.581 204.485,68.581 204.455,68.581 C203.934,68.581 203.505,68.191 203.455,67.671 Z M175.565,70.081 C175.514,69.531 175.925,69.051 176.474,69 C177.025,68.951 177.505,69.361 177.554,69.911 C177.605,70.46 177.195,70.951 176.645,70.991 C176.615,71.001 176.585,71.001 176.554,71.001 C176.045,71.001 175.605,70.601 175.565,70.081 Z M204.035,72.54 C203.495,72.431 203.145,71.901 203.255,71.361 C203.365,70.821 203.885,70.471 204.425,70.581 C204.974,70.691 205.325,71.221 205.215,71.761 C205.115,72.23 204.705,72.561 204.235,72.561 C204.165,72.561 204.105,72.551 204.035,72.54 Z M176.535,74.241 C176.335,73.73 176.585,73.151 177.094,72.951 C177.615,72.75 178.195,73.001 178.395,73.521 C178.594,74.031 178.335,74.611 177.825,74.811 C177.705,74.861 177.585,74.881 177.465,74.881 C177.065,74.881 176.684,74.641 176.535,74.241 Z M202.434,76.201 C201.945,75.941 201.755,75.341 202.014,74.851 C202.264,74.361 202.875,74.171 203.365,74.431 C203.855,74.691 204.035,75.29 203.785,75.781 C203.605,76.121 203.255,76.311 202.895,76.311 C202.735,76.311 202.585,76.281 202.434,76.201 Z M178.635,77.96 C178.295,77.52 178.375,76.901 178.815,76.561 C179.245,76.221 179.875,76.301 180.215,76.741 C180.554,77.181 180.474,77.801 180.035,78.141 C179.855,78.281 179.635,78.351 179.425,78.351 C179.125,78.351 178.825,78.221 178.635,77.96 Z M199.865,79.261 C199.465,78.881 199.455,78.241 199.835,77.851 C200.224,77.451 200.855,77.441 201.255,77.821 C201.655,78.21 201.665,78.841 201.275,79.241 C201.085,79.441 200.815,79.54 200.554,79.54 C200.304,79.54 200.054,79.451 199.865,79.261 Z M181.695,80.931 C181.255,80.611 181.155,79.98 181.474,79.54 C181.795,79.091 182.425,78.991 182.875,79.321 L182.875,79.311 C183.315,79.641 183.415,80.261 183.094,80.71 C182.895,80.98 182.594,81.121 182.285,81.121 C182.085,81.121 181.875,81.061 181.695,80.931 Z M196.535,81.471 C196.264,80.991 196.434,80.381 196.915,80.111 C197.395,79.841 198.005,80.011 198.275,80.491 C198.545,80.971 198.375,81.581 197.895,81.851 C197.745,81.941 197.575,81.98 197.405,81.98 C197.054,81.98 196.715,81.801 196.535,81.471 Z M185.474,82.931 C184.955,82.741 184.684,82.171 184.865,81.651 C185.054,81.131 185.625,80.861 186.145,81.04 C186.665,81.23 186.934,81.801 186.755,82.321 C186.605,82.73 186.224,82.991 185.804,82.991 C185.695,82.991 185.585,82.971 185.474,82.931 Z M192.715,82.651 C192.594,82.121 192.925,81.581 193.465,81.451 C194.005,81.331 194.535,81.661 194.665,82.201 C194.785,82.741 194.455,83.271 193.915,83.401 C193.844,83.421 193.764,83.431 193.684,83.431 C193.235,83.431 192.825,83.111 192.715,82.651 Z M189.665,83.77 C189.115,83.741 188.684,83.271 188.715,82.721 C188.755,82.161 189.224,81.741 189.775,81.771 C190.325,81.801 190.745,82.27 190.715,82.831 C190.684,83.361 190.245,83.77 189.715,83.77 C189.695,83.77 189.684,83.77 189.665,83.77 Z"/>
    <polygon fill="#434A4F" points="213.053 125.174 215.053 125.174 215.053 121.174 213.053 121.174"/>
    <polygon fill="#434A4F" points="213.053 135.174 215.053 135.174 215.053 131.174 213.053 131.174"/>
    <polygon fill="#434A4F" points="217.053 129.174 221.053 129.174 221.053 127.174 217.053 127.174"/>
    <polygon fill="#434A4F" points="207.053 129.174 211.053 129.174 211.053 127.174 207.053 127.174"/>
    <path fill="#42494E" d="M47.278,152.829 C41.355,152.829 36.537,157.647 36.537,163.57 C36.537,169.493 41.355,174.311 47.278,174.311 C53.201,174.311 58.019,169.493 58.019,163.57 C58.019,157.647 53.201,152.829 47.278,152.829 Z M47.278,176.311 C40.253,176.311 34.537,170.595 34.537,163.57 C34.537,156.544 40.253,150.829 47.278,150.829 C54.304,150.829 60.019,156.544 60.019,163.57 C60.019,170.595 54.304,176.311 47.278,176.311 Z"/>
    <path fill="#42494E" d="M47.277,152.829 C44.392,152.829 41.955,157.748 41.955,163.57 C41.955,166.543 42.57,169.323 43.687,171.398 C44.683,173.25 45.992,174.311 47.277,174.311 C50.161,174.311 52.599,169.392 52.599,163.57 C52.599,157.748 50.161,152.829 47.277,152.829 Z M47.277,176.311 C45.203,176.311 43.302,174.903 41.925,172.346 C40.654,169.985 39.954,166.869 39.955,163.57 C39.955,156.425 43.171,150.829 47.277,150.829 C51.383,150.829 54.599,156.425 54.599,163.57 C54.599,170.714 51.383,176.311 47.277,176.311 Z"/>
    <polygon fill="#42494E" points="35.537 164.57 59.019 164.57 59.019 162.57 35.537 162.57"/>
    <path fill="#FACD60" d="M53.109,188.109 C53.109,189.766 51.766,191.109 50.109,191.109 C48.452,191.109 47.109,189.766 47.109,188.109 C47.109,186.452 48.452,185.109 50.109,185.109 C51.766,185.109 53.109,186.452 53.109,188.109"/>
    <path fill="#E9886C" d="M43.181,118.87 C43.181,119.975 42.286,120.87 41.181,120.87 C40.076,120.87 39.181,119.975 39.181,118.87 C39.181,117.765 40.076,116.87 41.181,116.87 C42.286,116.87 43.181,117.765 43.181,118.87"/>
    <path fill="#42494E" d="M109.052,198.994 C107.398,198.994 106.052,200.34 106.052,201.994 C106.052,203.648 107.398,204.994 109.052,204.994 L209.601,204.994 L216.108,201.994 L209.601,198.994 L109.052,198.994 Z M210.041,206.994 L109.052,206.994 C106.296,206.994 104.052,204.751 104.052,201.994 C104.052,199.237 106.296,196.994 109.052,196.994 L210.041,196.994 L220.884,201.994 L210.041,206.994 Z"/>
    <polygon fill="#42494E" points="114.662 205.994 116.662 205.994 116.662 198.396 114.662 198.396"/>
    <polygon fill="#42494E" points="115.662 202.965 209.052 202.965 209.052 200.965 115.662 200.965"/>
    <polygon fill="#434A4F" points="34.946 85.15 36.946 85.15 36.946 81.15 34.946 81.15"/>
    <polygon fill="#434A4F" points="34.946 95.15 36.946 95.15 36.946 91.15 34.946 91.15"/>
    <polygon fill="#434A4F" points="38.946 89.15 42.946 89.15 42.946 87.15 38.946 87.15"/>
    <polygon fill="#434A4F" points="28.946 89.15 32.946 89.15 32.946 87.15 28.946 87.15"/>
    <path fill="#434A4F" d="M183.144 188.061L76.03 188.061 76.03 170.049C76.03 169.497 76.478 169.049 77.03 169.049 77.582 169.049 78.03 169.497 78.03 170.049L78.03 186.061 181.144 186.061 181.144 167.119C181.144 166.566 181.592 166.119 182.144 166.119 182.697 166.119 183.144 166.566 183.144 167.119L183.144 188.061M175.964 151.909C175.567 151.909 175.191 151.671 175.035 151.28L162.925 121.004 150.566 151.018C150.356 151.529 149.772 151.771 149.26 151.562 148.75 151.352 148.507 150.767 148.717 150.256L162.013 117.964C162.168 117.59 162.533 117.345 162.938 117.345 162.94 117.345 162.941 117.345 162.943 117.345 163.35 117.347 163.716 117.596 163.867 117.974L176.892 150.537C177.097 151.05 176.847 151.632 176.335 151.837 176.214 151.886 176.088 151.909 175.964 151.909"/>
    <path fill="#434A4F" d="M171.719,142.142 L154.217,142.142 C153.664,142.142 153.217,141.694 153.217,141.142 C153.217,140.589 153.664,140.142 154.217,140.142 L171.719,140.142 C172.272,140.142 172.719,140.589 172.719,141.142 C172.719,141.694 172.272,142.142 171.719,142.142"/>
    <path fill="#434A4F" d="M162.965,105.909 C146.974,105.909 133.965,118.918 133.965,134.909 C133.965,150.899 146.974,163.909 162.965,163.909 C178.955,163.909 191.965,150.899 191.965,134.909 C191.965,118.918 178.955,105.909 162.965,105.909 Z M162.965,165.909 C145.871,165.909 131.965,152.002 131.965,134.909 C131.965,117.815 145.871,103.909 162.965,103.909 C180.058,103.909 193.965,117.815 193.965,134.909 C193.965,152.002 180.058,165.909 162.965,165.909 Z"/>
    <path fill="#434A4F" d="M162.965,109.909 C149.179,109.909 137.965,121.124 137.965,134.909 C137.965,148.694 149.179,159.909 162.965,159.909 C176.75,159.909 187.965,148.694 187.965,134.909 C187.965,121.124 176.75,109.909 162.965,109.909 Z M162.965,161.909 C148.077,161.909 135.965,149.796 135.965,134.909 C135.965,120.021 148.077,107.909 162.965,107.909 C177.852,107.909 189.965,120.021 189.965,134.909 C189.965,149.796 177.852,161.909 162.965,161.909 Z"/>
    <path fill="#434A4F" d="M141.965 134.909L139.965 134.909C139.965 122.227 150.282 111.909 162.965 111.909L162.965 113.909C151.385 113.909 141.965 123.329 141.965 134.909M165.965 113.911C165.705 113.911 165.445 113.801 165.255 113.621 165.215 113.571 165.165 113.521 165.135 113.46 165.094 113.411 165.065 113.351 165.045 113.291 165.014 113.23 164.995 113.171 164.985 113.101 164.965 113.041 164.965 112.971 164.965 112.911 164.965 112.781 164.985 112.651 165.045 112.531 165.094 112.401 165.165 112.291 165.255 112.201 165.625 111.831 166.295 111.831 166.675 112.201 166.764 112.291 166.835 112.401 166.885 112.531 166.934 112.651 166.965 112.781 166.965 112.911 166.965 112.971 166.955 113.041 166.945 113.101 166.934 113.171 166.915 113.23 166.885 113.291 166.865 113.351 166.835 113.411 166.795 113.46 166.755 113.521 166.715 113.571 166.675 113.621 166.485 113.801 166.224 113.911 165.965 113.911M140.965 138.911C140.895 138.911 140.835 138.901 140.764 138.891 140.705 138.881 140.645 138.861 140.585 138.831 140.525 138.811 140.465 138.781 140.405 138.741 140.355 138.701 140.304 138.661 140.255 138.621 140.075 138.431 139.965 138.171 139.965 137.911 139.965 137.651 140.075 137.391 140.255 137.201 140.304 137.161 140.355 137.111 140.405 137.081 140.465 137.041 140.525 137.011 140.585 136.991 140.645 136.96 140.705 136.941 140.764 136.931 140.895 136.901 141.025 136.901 141.155 136.931 141.224 136.941 141.285 136.96 141.344 136.991 141.405 137.011 141.465 137.041 141.514 137.081 141.575 137.111 141.625 137.161 141.675 137.201 141.855 137.391 141.965 137.641 141.965 137.911 141.965 138.171 141.855 138.431 141.675 138.621 141.625 138.661 141.575 138.701 141.514 138.741 141.465 138.781 141.405 138.811 141.344 138.831 141.285 138.861 141.224 138.881 141.155 138.891 141.094 138.901 141.025 138.911 140.965 138.911"/>
    <polyline fill="#434A4F" points="190.508 163.866 183.466 156.824 184.88 155.41 191.922 162.452 190.508 163.866"/>
    <path fill="#434A4F" d="M190.43,165.219 L213.73,188.519 C214.486,189.273 215.802,189.273 216.558,188.519 C216.936,188.141 217.144,187.638 217.144,187.104 C217.144,186.57 216.936,186.068 216.558,185.69 L193.259,162.39 L190.43,165.219 Z M215.144,191.104 C214.076,191.104 213.072,190.688 212.316,189.933 L187.602,165.219 L193.259,159.562 L217.972,184.276 C218.728,185.031 219.144,186.036 219.144,187.104 C219.144,188.172 218.728,189.177 217.972,189.933 C217.218,190.688 216.213,191.104 215.144,191.104 Z"/>
    <polyline fill="#434A4F" points="211.607 187.813 210.193 186.399 214.437 182.154 215.851 183.568 211.607 187.813"/>
    <polyline fill="#434A4F" points="192.541 168.747 191.127 167.333 195.371 163.088 196.785 164.502 192.541 168.747"/>
    <polygon fill="#434A4F" points="92.144 127.909 112.144 127.909 112.144 125.909 92.144 125.909"/>
    <polygon fill="#434A4F" points="92.144 131.909 112.144 131.909 112.144 129.909 92.144 129.909"/>
    <polygon fill="#434A4F" points="92.144 135.909 112.144 135.909 112.144 133.909 92.144 133.909"/>
    <polygon fill="#434A4F" points="92.144 139.909 112.144 139.909 112.144 137.909 92.144 137.909"/>
    <polygon fill="#434A4F" points="92.144 143.909 112.144 143.909 112.144 141.909 92.144 141.909"/>
    <polygon fill="#434A4F" points="92.144 147.909 112.144 147.909 112.144 145.909 92.144 145.909"/>
    <polygon fill="#434A4F" points="92.144 151.909 112.144 151.909 112.144 149.909 92.144 149.909"/>
    <polygon fill="#434A4F" points="92.144 155.909 112.144 155.909 112.144 153.909 92.144 153.909"/>
    <polygon fill="#434A4F" points="120.144 127.909 134.144 127.909 134.144 125.909 120.144 125.909"/>
    <polygon fill="#434A4F" points="120.144 131.909 133.145 131.909 133.145 129.909 120.144 129.909"/>
    <polygon fill="#434A4F" points="120.144 135.909 133.145 135.909 133.145 133.909 120.144 133.909"/>
    <polygon fill="#434A4F" points="120.144 139.909 133.14 139.909 133.14 137.909 120.144 137.909"/>
    <polygon fill="#434A4F" points="120.144 143.909 134.14 143.909 134.14 141.909 120.144 141.909"/>
    <polygon fill="#434A4F" points="120.144 147.909 135.141 147.909 135.141 145.909 120.144 145.909"/>
    <polygon fill="#434A4F" points="120.144 151.909 137.142 151.909 137.142 149.909 120.144 149.909"/>
    <polygon fill="#434A4F" points="120.144 155.909 140.144 155.909 140.144 153.909 120.144 153.909"/>
    <polygon fill="#434A4F" points="183.144 137.909 185.144 137.909 185.144 131.909 183.144 131.909"/>
    <path fill="#434A4F" d="M184.145 141.911C184.075 141.911 184.014 141.901 183.945 141.891 183.885 141.881 183.825 141.861 183.764 141.831 183.705 141.811 183.645 141.781 183.585 141.741 183.535 141.701 183.485 141.661 183.434 141.621 183.344 141.521 183.275 141.411 183.215 141.291 183.165 141.171 183.145 141.041 183.145 140.911 183.145 140.781 183.165 140.651 183.215 140.531 183.275 140.401 183.344 140.291 183.434 140.201 183.485 140.151 183.535 140.111 183.585 140.081 183.645 140.041 183.705 140.011 183.764 139.98 183.825 139.96 183.885 139.941 183.945 139.931 184.145 139.891 184.344 139.911 184.525 139.98 184.645 140.041 184.755 140.111 184.855 140.201 185.035 140.391 185.145 140.641 185.145 140.911 185.145 141.041 185.115 141.171 185.065 141.291 185.014 141.411 184.945 141.521 184.855 141.621 184.665 141.801 184.405 141.911 184.145 141.911M184.145 129.901C184.075 129.901 184.014 129.901 183.945 129.881 183.885 129.871 183.825 129.851 183.764 129.821 183.705 129.801 183.645 129.771 183.585 129.73 183.535 129.701 183.485 129.651 183.434 129.611 183.344 129.521 183.275 129.411 183.215 129.281 183.165 129.161 183.145 129.031 183.145 128.901 183.145 128.641 183.255 128.381 183.434 128.191 183.485 128.151 183.535 128.111 183.585 128.071 183.645 128.031 183.705 128 183.764 127.98 183.825 127.951 183.885 127.931 183.945 127.921 184.264 127.861 184.615 127.96 184.855 128.191 184.895 128.241 184.934 128.291 184.974 128.341 185.014 128.401 185.045 128.46 185.065 128.521 185.094 128.581 185.115 128.641 185.125 128.71 185.135 128.771 185.145 128.841 185.145 128.901 185.145 129.161 185.035 129.421 184.855 129.611 184.665 129.791 184.405 129.901 184.145 129.901M182.145 163.921C182.075 163.921 182.014 163.911 181.945 163.901 181.885 163.891 181.825 163.871 181.764 163.841 181.695 163.821 181.645 163.791 181.585 163.75 181.535 163.721 181.485 163.671 181.434 163.631 181.245 163.441 181.145 163.191 181.145 162.921 181.145 162.661 181.245 162.401 181.434 162.21 181.804 161.841 182.474 161.841 182.844 162.21 183.035 162.401 183.145 162.661 183.145 162.921 183.145 163.181 183.035 163.441 182.844 163.631 182.665 163.811 182.405 163.921 182.145 163.921"/>
    <polygon fill="#434A4F" points="150.144 171.909 170.144 171.909 170.144 169.909 150.144 169.909"/>
    <polygon fill="#434A4F" points="150.144 175.909 162.144 175.909 162.144 173.909 150.144 173.909"/>
    <polyline fill="#FACD60" points="135.623 44.006 135.623 67.848 159.466 67.848"/>
    <path fill="#434A4F" d="M77.03 170.801C76.478 170.801 76.03 170.354 76.03 169.801L76.03 120.299C76.03 117.818 74.011 115.799 71.53 115.799 69.049 115.799 67.031 117.818 67.031 120.299L67.031 137.3C67.031 140.884 64.115 143.799 60.53 143.799L59.634 143.799C56.05 143.799 53.135 140.884 53.135 137.3L53.135 43.006 70.825 43.006C71.377 43.006 71.824 43.454 71.824 44.006 71.824 44.558 71.377 45.006 70.825 45.006L55.135 45.006 55.135 137.3C55.135 139.781 57.154 141.799 59.634 141.799L60.53 141.799C63.012 141.799 65.031 139.781 65.031 137.3L65.031 120.299C65.031 116.715 67.946 113.799 71.53 113.799 75.114 113.799 78.03 116.715 78.03 120.299L78.03 169.801C78.03 170.354 77.582 170.801 77.03 170.801M159.466 104.114C158.913 104.114 158.466 103.667 158.466 103.114L158.466 68.263 135.209 45.006 80.344 45.006C79.792 45.006 79.344 44.558 79.344 44.006 79.344 43.454 79.792 43.006 80.344 43.006L136.037 43.006 160.466 67.435 160.466 103.114C160.466 103.667 160.018 104.114 159.466 104.114M75.575 45C75.445 45 75.315 44.98 75.195 44.931 75.075 44.881 74.965 44.801 74.865 44.71 74.685 44.531 74.575 44.27 74.575 44 74.575 43.741 74.685 43.48 74.865 43.301 74.965 43.21 75.075 43.131 75.195 43.081 75.565 42.931 76.005 43.02 76.285 43.301 76.465 43.48 76.575 43.741 76.575 44 76.575 44.27 76.465 44.531 76.285 44.71 76.095 44.901 75.835 45 75.575 45"/>
    <polygon fill="#434A4F" points="69.466 79.909 89.466 79.909 89.466 77.909 69.466 77.909"/>
    <polygon fill="#434A4F" points="69.466 83.909 89.466 83.909 89.466 81.909 69.466 81.909"/>
    <polygon fill="#434A4F" points="69.466 87.909 89.466 87.909 89.466 85.909 69.466 85.909"/>
    <polygon fill="#434A4F" points="69.466 91.909 89.466 91.909 89.466 89.909 69.466 89.909"/>
    <polygon fill="#434A4F" points="69.466 95.909 89.466 95.909 89.466 93.909 69.466 93.909"/>
    <polygon fill="#434A4F" points="69.466 99.909 89.466 99.909 89.466 97.909 69.466 97.909"/>
    <polygon fill="#434A4F" points="69.466 103.909 89.466 103.909 89.466 101.909 69.466 101.909"/>
    <polygon fill="#434A4F" points="69.466 107.909 89.466 107.909 89.466 105.909 69.466 105.909"/>
    <polygon fill="#434A4F" points="97.466 79.909 117.466 79.909 117.466 77.909 97.466 77.909"/>
    <polygon fill="#434A4F" points="97.466 83.909 117.466 83.909 117.466 81.909 97.466 81.909"/>
    <polygon fill="#434A4F" points="97.466 87.909 117.466 87.909 117.466 85.909 97.466 85.909"/>
    <polygon fill="#434A4F" points="97.466 91.909 117.466 91.909 117.466 89.909 97.466 89.909"/>
    <polygon fill="#434A4F" points="97.466 95.909 117.466 95.909 117.466 93.909 97.466 93.909"/>
    <polygon fill="#434A4F" points="97.466 99.909 117.466 99.909 117.466 97.909 97.466 97.909"/>
    <polygon fill="#434A4F" points="97.466 103.909 117.466 103.909 117.466 101.909 97.466 101.909"/>
    <polygon fill="#434A4F" points="97.466 107.909 117.466 107.909 117.466 105.909 97.466 105.909"/>
    <polygon fill="#434A4F" points="125.466 79.909 145.466 79.909 145.466 77.909 125.466 77.909"/>
    <polygon fill="#434A4F" points="125.466 83.909 145.466 83.909 145.466 81.909 125.466 81.909"/>
    <polygon fill="#434A4F" points="125.466 87.909 145.466 87.909 145.466 85.909 125.466 85.909"/>
    <polygon fill="#434A4F" points="125.466 91.909 145.466 91.909 145.466 89.909 125.466 89.909"/>
    <polygon fill="#434A4F" points="125.466 95.909 145.466 95.909 145.466 93.909 125.466 93.909"/>
    <polygon fill="#434A4F" points="125.466 99.909 145.466 99.909 145.466 97.909 125.466 97.909"/>
    <polygon fill="#434A4F" points="69.466 63.909 103.466 63.909 103.466 61.909 69.466 61.909"/>
    <polygon fill="#434A4F" points="69.466 67.909 89.466 67.909 89.466 65.909 69.466 65.909"/>
    <path fill="#434A4F" d="M134.03 115.799L71.53 115.799C70.978 115.799 70.53 115.352 70.53 114.799 70.53 114.247 70.978 113.799 71.53 113.799L134.03 113.799C134.583 113.799 135.03 114.247 135.03 114.799 135.03 115.352 134.583 115.799 134.03 115.799M76.697 143.799L60.53 143.799C59.978 143.799 59.53 143.352 59.53 142.799 59.53 142.247 59.978 141.799 60.53 141.799L76.697 141.799C77.249 141.799 77.697 142.247 77.697 142.799 77.697 143.352 77.249 143.799 76.697 143.799"/>
    <path fill="#75C7D0" d="M48.184,65.838 C48.184,66.943 47.289,67.838 46.184,67.838 C45.079,67.838 44.184,66.943 44.184,65.838 C44.184,64.734 45.079,63.838 46.184,63.838 C47.289,63.838 48.184,64.734 48.184,65.838"/>
    <path fill="#FACD60" d="M68.655,139.799 L74.016,139.799 L74.03,138.677 L74.03,120.299 C74.03,118.921 72.908,117.799 71.53,117.799 C70.152,117.799 69.03,118.921 69.03,120.299 L69.03,137.3 C69.03,138.169 68.899,139.009 68.655,139.799"/>
  </g>
</svg>
