<svg xmlns="http://www.w3.org/2000/svg" width="250" height="250" viewBox="0 0 250 250">
  <g fill="none" fill-rule="evenodd">
    <polyline fill="#DBDBD5" points="220.826 103.405 205.262 96.734 202.588 98.338 210.821 106.57 207.992 109.399 199.881 101.288 198.257 104.555 205.054 121.014 209.887 111.294 216.968 118.374 219.891 115.641 212.594 108.344 220.826 103.405"/>
    <path fill="#DBDBD5" d="M196.951 63.1L177.998 63.1 177.998 133.573C178.605 133.931 179.102 134.442 179.448 135.057L188.912 96.15 182.821 81.399 191.586 85.156 196.951 63.1M125.964 144.123L49.998 144.01 49.998 157.166C49.998 158.496 51.075 159.573 52.405 159.573L125.964 159.573 125.964 144.123M190 156.011L199 156.011 199 144.231 179.976 144.203 179.976 159.573 186.044 159.573C186.265 157.573 187.94 156.011 190 156.011"/>
    <polygon fill="#DBDBD5" points="107.745 173.885 125.964 173.885 125.964 159.745 107.745 159.745"/>
    <polyline fill="#DBDBD5" points="71.251 141.02 71.251 63.1 52.297 63.1 71.251 141.02"/>
    <polygon fill="#FACD60" points="77.027 115.006 123.027 115.006 123.027 93.006 77.027 93.006"/>
    <polygon fill="#DBDBD5" points="71.643 44.449 177.542 44.449 177.542 30.008 71.643 30.008"/>
    <polygon fill="#42494E" points="98.133 175.014 125.527 175.014 125.527 173.014 98.133 173.014"/>
    <polygon fill="#42494E" points="106.76 174.014 108.76 174.014 108.76 159.573 106.76 159.573"/>
    <path fill="#42494E" d="M78.88 35.8C78.104 35.8 77.473 36.431 77.473 37.207 77.473 37.983 78.104 38.614 78.88 38.614 79.655 38.614 80.286 37.983 80.286 37.207 80.286 36.431 79.655 35.8 78.88 35.8zM78.88 40.614C77.001 40.614 75.473 39.086 75.473 37.207 75.473 35.328 77.001 33.8 78.88 33.8 80.758 33.8 82.286 35.328 82.286 37.207 82.286 39.086 80.758 40.614 78.88 40.614zM88.507 35.8C87.73 35.8 87.1 36.431 87.1 37.207 87.1 37.983 87.73 38.614 88.507 38.614 89.282 38.614 89.913 37.983 89.913 37.207 89.913 36.431 89.282 35.8 88.507 35.8zM88.507 40.614C86.628 40.614 85.1 39.086 85.1 37.207 85.1 35.328 86.628 33.8 88.507 33.8 90.385 33.8 91.913 35.328 91.913 37.207 91.913 39.086 90.385 40.614 88.507 40.614zM98.134 35.8C97.357 35.8 96.727 36.431 96.727 37.207 96.727 37.983 97.357 38.614 98.134 38.614 98.91 38.614 99.541 37.983 99.541 37.207 99.541 36.431 98.91 35.8 98.134 35.8zM98.134 40.614C96.255 40.614 94.727 39.086 94.727 37.207 94.727 35.328 96.255 33.8 98.134 33.8 100.013 33.8 101.541 35.328 101.541 37.207 101.541 39.086 100.013 40.614 98.134 40.614z"/>
    <path fill="#434A4F" d="M184.681,83.284 L195.132,108.593 L199.604,99.597 L207.992,107.985 L209.406,106.57 L200.976,98.139 L208.629,93.548 L184.681,83.284 Z M194.964,113.424 L180.96,79.513 L213.012,93.25 L204.2,98.537 L212.234,106.57 L207.992,110.813 L200.157,102.978 L194.964,113.424 Z"/>
    <path fill="#42494E" d="M101.182,191.863 L34,191.863 C32.346,191.863 31,193.209 31,194.863 C31,196.517 32.346,197.863 34,197.863 L101.182,197.863 L107.688,194.863 L101.182,191.863 Z M101.621,199.863 L34,199.863 C31.243,199.863 29,197.619 29,194.863 C29,192.106 31.243,189.863 34,189.863 L101.621,189.863 L112.464,194.863 L101.621,199.863 Z"/>
    <polygon fill="#42494E" points="39.61 198.863 41.61 198.863 41.61 191.264 39.61 191.264"/>
    <polygon fill="#42494E" points="40.61 195.834 100.633 195.834 100.633 193.834 40.61 193.834"/>
    <path fill="#42494E" d="M46,44.027 C44.897,44.027 44,44.924 44,46.027 C44,47.13 44.897,48.027 46,48.027 C47.103,48.027 48,47.13 48,46.027 C48,44.924 47.103,44.027 46,44.027 Z M46,50.027 C43.794,50.027 42,48.232 42,46.027 C42,43.821 43.794,42.027 46,42.027 C48.206,42.027 50,43.821 50,46.027 C50,48.232 48.206,50.027 46,50.027 Z"/>
    <path fill="#FACD60" d="M55.001,177.03 C55.001,179.791 52.762,182.03 50.001,182.03 C47.239,182.03 45.001,179.791 45.001,177.03 C45.001,174.268 47.239,172.03 50.001,172.03 C52.762,172.03 55.001,174.268 55.001,177.03"/>
    <path fill="#75C7D0" d="M211,58.027 C211,59.683 209.657,61.026 208,61.026 C206.343,61.026 205,59.683 205,58.027 C205,56.37 206.343,55.027 208,55.027 C209.657,55.027 211,56.37 211,58.027"/>
    <polygon fill="#434A4F" points="35 89.038 37 89.038 37 85.038 35 85.038"/>
    <polygon fill="#434A4F" points="35 99.038 37 99.038 37 95.038 35 95.038"/>
    <polygon fill="#434A4F" points="39 93.038 43 93.038 43 91.038 39 91.038"/>
    <polygon fill="#434A4F" points="29 93.038 33 93.038 33 91.038 29 91.038"/>
    <path fill="#42494E" d="M190,157.011 C188.346,157.011 187,158.357 187,160.011 L187,216.012 C187,217.666 188.346,219.012 190,219.012 L216,219.012 C217.654,219.012 219,217.666 219,216.012 L219,160.011 C219,158.357 217.654,157.011 216,157.011 L190,157.011 Z M216,221.012 L190,221.012 C187.243,221.012 185,218.769 185,216.012 L185,160.011 C185,157.254 187.243,155.011 190,155.011 L216,155.011 C218.757,155.011 221,157.254 221,160.011 L221,216.012 C221,218.769 218.757,221.012 216,221.012 Z"/>
    <polygon fill="#42494E" points="188.999 213.012 217 213.012 217 211.012 188.999 211.012"/>
    <polygon fill="#42494E" points="189 165.011 217 165.011 217 163.011 189 163.011"/>
    <polygon fill="#42494E" points="200 217.012 206 217.012 206 215.012 200 215.012"/>
    <polygon fill="#42494E" points="202 161.011 204 161.011 204 159.011 202 159.011"/>
    <polygon fill="#42494E" points="128.963 213.012 176.976 213.012 176.976 211.012 128.963 211.012"/>
    <polygon fill="#42494E" points="128.964 142.006 176.976 142.006 176.976 140.006 128.964 140.006"/>
    <polygon fill="#42494E" points="149.971 217.012 155.971 217.012 155.971 215.012 149.971 215.012"/>
    <polygon fill="#42494E" points="151.971 138.006 153.971 138.006 153.971 136.006 151.971 136.006"/>
    <polygon fill="#75C7D0" points="77.027 73.006 173.027 73.006 173.027 51.006 77.027 51.006"/>
    <path fill="#42494E" d="M78.027 114.006L122.027 114.006 122.027 94.006 78.027 94.006 78.027 114.006zM76.027 116.006L124.027 116.006 124.027 92.006 76.027 92.006 76.027 116.006zM128.027 114.006L172.027 114.006 172.027 94.006 128.027 94.006 128.027 114.006zM126.027 116.006L174.027 116.006 174.027 92.006 126.027 92.006 126.027 116.006z"/>
    <polygon fill="#42494E" points="79.027 80.006 121.027 80.006 121.027 78.006 79.027 78.006"/>
    <polygon fill="#42494E" points="79.027 84.006 121.027 84.006 121.027 82.006 79.027 82.006"/>
    <polygon fill="#42494E" points="79.027 88.006 109.027 88.006 109.027 86.006 79.027 86.006"/>
    <polygon fill="#42494E" points="129.027 80.006 171.027 80.006 171.027 78.006 129.027 78.006"/>
    <polygon fill="#42494E" points="129.027 84.006 171.027 84.006 171.027 82.006 129.027 82.006"/>
    <polygon fill="#42494E" points="129.027 88.006 159.027 88.006 159.027 86.006 129.027 86.006"/>
    <path fill="#42494E" d="M144.027,100.425 L144.027,107.587 L154.054,104.006 L144.027,100.425 Z M142.027,110.425 L142.027,97.587 L160.001,104.006 L142.027,110.425 Z"/>
    <polygon fill="#75C7D0" points="131.027 159.839 175.027 159.839 175.027 144.339 131.027 144.339"/>
    <polygon fill="#42494E" points="131.027 164.006 174.028 164.006 174.028 162.006 131.027 162.006"/>
    <polygon fill="#42494E" points="131.027 168.006 174.028 168.006 174.028 166.006 131.027 166.006"/>
    <polygon fill="#42494E" points="131.027 172.006 174.028 172.006 174.028 170.006 131.027 170.006"/>
    <polygon fill="#FACD60" points="131.027 189.006 175.027 189.006 175.027 175.006 131.027 175.006"/>
    <path fill="#42494E" d="M132.027 188.006L174.027 188.006 174.027 176.006 132.027 176.006 132.027 188.006zM130.027 190.006L176.027 190.006 176.027 174.006 130.027 174.006 130.027 190.006zM132.027 206.006L174.027 206.006 174.027 194.006 132.027 194.006 132.027 206.006zM130.027 208.006L176.027 208.006 176.027 192.006 130.027 192.006 130.027 208.006z"/>
    <path fill="#42494E" d="M149.667,198.405 L149.667,201.538 L154.054,199.972 L149.667,198.405 Z M147.667,204.376 L147.667,195.567 L160.001,199.972 L147.667,204.376 Z"/>
    <polygon fill="#75C7D0" points="189.062 174.894 217.027 174.894 217.027 167.353 189.062 167.353"/>
    <polygon fill="#42494E" points="189 179.019 217 179.019 217 177.019 189 177.019"/>
    <polygon fill="#42494E" points="189 183.022 217 183.022 217 181.022 189 181.022"/>
    <polygon fill="#FACD60" points="190.063 194.888 216.063 194.888 216.063 186.013 190.063 186.013"/>
    <path fill="#42494E" d="M191.063 193.888L215.063 193.888 215.063 187.013 191.063 187.013 191.063 193.888zM189.063 195.888L217.063 195.888 217.063 185.013 189.063 185.013 189.063 195.888zM191.063 206.895L215.063 206.895 215.063 200.02 191.063 200.02 191.063 206.895zM189.063 208.895L217.063 208.895 217.063 198.02 189.063 198.02 189.063 208.895z"/>
    <polyline fill="#42494E" points="201.027 201.368 201.027 205.756 206.59 203.444 201.027 201.368"/>
    <polygon fill="#42494E" points="79.027 121.031 121.027 121.031 121.027 119.031 79.027 119.031"/>
    <polygon fill="#42494E" points="79.027 125.031 121.027 125.031 121.027 123.031 79.027 123.031"/>
    <polygon fill="#42494E" points="79.027 129.031 109.027 129.031 109.027 127.031 79.027 127.031"/>
    <polygon fill="#42494E" points="129.058 121.031 171.058 121.031 171.058 119.031 129.058 119.031"/>
    <polygon fill="#42494E" points="129.058 125.031 171.058 125.031 171.058 123.031 129.058 123.031"/>
    <polygon fill="#42494E" points="129.058 129.031 159.058 129.031 159.058 127.031 129.058 127.031"/>
    <polygon fill="#434A4F" points="81.027 210.111 83.027 210.111 83.027 206.111 81.027 206.111"/>
    <polygon fill="#434A4F" points="81.027 220.111 83.027 220.111 83.027 216.111 81.027 216.111"/>
    <polygon fill="#434A4F" points="85.027 214.111 89.027 214.111 89.027 212.111 85.027 212.111"/>
    <polygon fill="#434A4F" points="75.027 214.111 79.027 214.111 79.027 212.111 75.027 212.111"/>
    <path fill="#42494E" d="M196.684,63.684 C197.459,63.684 198.09,64.315 198.09,65.09 L198.068,87.933 L200.067,88.79 L200.09,65.091 C200.09,63.213 198.562,61.684 196.677,61.684 L177.892,61.812 L177.905,63.812 L196.684,63.684"/>
    <path fill="#42494E" d="M176.558,133.065 C177.317,133.176 178,133.499 178.558,133.974 L178.558,28.988 L70.659,28.988 L70.659,144.31 L72.659,144.31 L72.659,30.988 L176.558,30.988 L176.558,133.065"/>
    <path fill="#42494E" d="M125.964,158.573 L52.404,158.573 C51.629,158.573 50.998,157.942 50.998,157.166 L50.998,65.219 C50.998,64.443 51.629,63.812 52.404,63.812 L70.679,63.812 L70.679,61.812 L52.404,61.812 C50.526,61.812 48.998,63.34 48.998,65.219 L48.998,157.166 C48.998,159.045 50.526,160.573 52.404,160.573 L125.964,160.573 L125.964,158.573"/>
    <polyline fill="#42494E" points="200.001 156.011 200.054 101.461 199.881 101.288 198.051 104.969 198.001 156.011 200.001 156.011"/>
    <path fill="#42494E" d="M186,160.011 C186,159.502 186.104,159.021 186.277,158.573 L179.976,158.573 L179.976,160.573 L186,160.573 L186,160.011"/>
    <path fill="#42494E" d="M175.976,221.012 L129.964,221.012 C127.207,221.012 124.964,218.769 124.964,216.012 L124.964,137.006 C124.964,134.249 127.207,132.006 129.964,132.006 L175.976,132.006 C178.732,132.006 180.976,134.249 180.976,137.006 L180.976,216.012 C180.976,218.769 178.732,221.012 175.976,221.012 Z M129.964,134.006 C128.31,134.006 126.964,135.352 126.964,137.006 L126.964,216.012 C126.964,217.666 128.31,219.012 129.964,219.012 L175.976,219.012 C177.63,219.012 178.976,217.666 178.976,216.012 L178.976,137.006 C178.976,135.352 177.63,134.006 175.976,134.006 L129.964,134.006 Z"/>
  </g>
</svg>
