<svg xmlns="http://www.w3.org/2000/svg" width="250" height="250" viewBox="0 0 250 250">
  <g fill="none" fill-rule="evenodd">
    <path fill="#FACD60" d="M188.264,97.504 L157.636,93.053 L124.936,125.753 L102.436,103.253 L106.679,99.01 L124.936,117.267 L150.228,91.976 L144.424,91.132 L124.818,51.401 C124.809,51.383 124.804,51.376 124.804,51.376 L105.212,91.132 L61.372,97.504 L93.095,128.43 L85.606,172.099 L101.706,163.634 L97.699,153.93 L110.075,159.234 L124.818,151.482 L164.03,172.099 L156.541,128.43 L188.264,97.504"/>
    <path fill="#DBDBD5" d="M219.794 120.214L191.69 93.324C191.714 93.347 191.731 93.376 191.755 93.4 191.167 92.802 190.379 92.372 189.423 92.25L170.401 89.819 166.676 89.144 164.932 85.757 161.33 89.359 169.522 90.992 188.506 93.751C191.787 94.228 193.097 98.26 190.723 100.574L160.589 129.947 167.703 171.423C168.263 174.691 164.834 177.183 161.899 175.64L124.651 156.058 114.777 161.249 125.699 165.93 117.466 170.869 125.699 179.101 122.87 181.93 114.759 173.819 109.926 183.539 103.229 167.32 87.404 175.64C86.917 175.896 86.417 176.031 85.924 176.08L113.147 202.128C113.898 202.853 114.923 203.285 115.999 203.266 116.615 203.255 117.248 203.097 117.856 202.763L154.76 182.543 192.335 201.462C192.955 201.776 193.592 201.911 194.208 201.901 196.536 201.86 198.552 199.725 198.066 197.15L190.238 155.806 219.857 125.922C221.542 124.224 221.297 121.666 219.794 120.214M128.238 49.964L146.191 86.341 154.255 87.949 161.268 80.936 127.643 48.46C127.658 48.475 127.67 48.493 127.685 48.508 126.898 47.723 125.846 47.338 124.799 47.356 123.371 47.381 121.955 48.149 121.247 49.646L121.233 49.676C122.828 47.003 126.822 47.093 128.238 49.964"/>
    <polygon fill="#434A4F" points="45.936 55.51 47.936 55.51 47.936 51.51 45.936 51.51"/>
    <polygon fill="#434A4F" points="45.936 65.51 47.936 65.51 47.936 61.51 45.936 61.51"/>
    <polygon fill="#434A4F" points="49.936 59.51 53.936 59.51 53.936 57.51 49.936 57.51"/>
    <polygon fill="#434A4F" points="39.936 59.51 43.936 59.51 43.936 57.51 39.936 57.51"/>
    <path fill="#434A4F" d="M102.845 166.392L86.938 174.755C85.908 175.299 84.726 175.214 83.779 174.527 82.835 173.84 82.388 172.743 82.586 171.592L89.788 129.598 59.278 99.857C58.441 99.042 58.158 97.893 58.518 96.783 58.879 95.672 59.785 94.908 60.94 94.74L103.105 88.614 121.96 50.407C122.478 49.359 123.484 48.734 124.651 48.734L124.652 48.734C125.819 48.734 126.825 49.359 127.341 50.406L145.294 86.783C145.538 87.278 146.136 87.481 146.633 87.238 147.128 86.993 147.333 86.393 147.087 85.898L129.134 49.521C128.287 47.802 126.569 46.734 124.652 46.734 124.652 46.734 124.652 46.734 124.651 46.734 122.734 46.734 121.016 47.802 120.168 49.521L101.777 86.786 60.653 92.761C58.755 93.037 57.208 94.341 56.616 96.164 56.024 97.988 56.508 99.951 57.881 101.29L87.639 130.296 80.615 171.254C80.291 173.144 81.052 175.018 82.604 176.145 84.154 177.271 86.172 177.415 87.87 176.525L103.612 168.249 102.845 166.392M192.686 96.164C192.094 94.341 190.547 93.037 188.65 92.761L169.665 90.003C169.117 89.922 168.611 90.302 168.532 90.848 168.452 91.395 168.831 91.903 169.377 91.982L188.363 94.741C189.518 94.908 190.423 95.672 190.785 96.783 191.145 97.893 190.862 99.043 190.025 99.858L159.515 129.598 166.717 171.592C166.915 172.743 166.468 173.84 165.524 174.527 164.578 175.213 163.395 175.298 162.365 174.755L124.651 154.928 113.593 160.742 115.961 161.756 124.651 157.188 161.433 176.525C162.171 176.913 162.97 177.105 163.765 177.105 164.797 177.105 165.823 176.782 166.699 176.145 168.251 175.018 169.012 173.144 168.688 171.254L161.664 130.297 191.421 101.29C192.794 99.952 193.279 97.988 192.686 96.164"/>
    <path fill="#434A4F" d="M143.341 90.601C142.972 90.601 142.618 90.397 142.444 90.044L125.727 56.173C125.482 55.678 125.686 55.078 126.181 54.833 126.678 54.591 127.276 54.793 127.52 55.288L144.237 89.159C144.482 89.654 144.278 90.254 143.783 90.498 143.641 90.568 143.49 90.601 143.341 90.601zM161.535 124.44C161.275 124.44 161.014 124.339 160.819 124.138 160.433 123.743 160.441 123.11 160.836 122.724L185.782 98.408 165.057 95.396C164.51 95.317 164.131 94.809 164.211 94.262 164.291 93.716 164.792 93.336 165.344 93.417L188.075 96.72C188.452 96.775 188.764 97.039 188.882 97.401 189 97.763 188.902 98.16 188.629 98.426L162.233 124.157C162.039 124.346 161.787 124.44 161.535 124.44zM124.936 53.51C124.676 53.51 124.416 53.4 124.226 53.22 124.045 53.03 123.936 52.78 123.936 52.51 123.936 52.25 124.045 51.99 124.226 51.8 124.596 51.43 125.266 51.43 125.646 51.8 125.826 51.99 125.936 52.25 125.936 52.51 125.936 52.77 125.826 53.03 125.646 53.22 125.456 53.4 125.196 53.51 124.936 53.51M157.936 127.51C157.666 127.51 157.416 127.4 157.226 127.22 157.045 127.03 156.936 126.77 156.936 126.51 156.936 126.38 156.956 126.25 157.016 126.13 157.066 126.01 157.136 125.9 157.226 125.8 157.276 125.76 157.326 125.72 157.376 125.68 157.436 125.64 157.496 125.61 157.556 125.59 157.616 125.56 157.676 125.54 157.736 125.53 158.066 125.47 158.406 125.57 158.636 125.8 158.736 125.9 158.806 126.01 158.856 126.13 158.906 126.25 158.936 126.38 158.936 126.51 158.936 126.77 158.826 127.03 158.636 127.22 158.456 127.4 158.196 127.51 157.936 127.51"/>
    <path fill="#434A4F" d="M99.608,103.253 L124.936,128.581 L187.764,65.753 L180.694,58.681 L124.936,114.439 L106.678,96.182 L99.608,103.253 Z M124.936,131.41 L96.78,103.253 L106.678,93.353 L124.936,111.611 L180.694,55.853 L190.592,65.753 L124.936,131.41 Z"/>
    <polyline fill="#FACD60" points="84.992 67.179 84.15 65.473 83.308 67.179 81.424 67.453 82.787 68.781 82.465 70.657 84.15 69.772 85.834 70.657 85.513 68.781 86.875 67.453 84.992 67.179"/>
    <path fill="#434A4F" d="M83.254 60.511L83.263 60.511 83.254 60.511zM84.15 60.954L81.979 65.351 77.126 66.057 80.637 69.479 79.809 74.313 84.15 72.031 88.49 74.313 87.662 69.479 91.173 66.056 86.32 65.351 84.15 60.954zM79.807 76.315C79.394 76.315 78.984 76.186 78.633 75.931 78.012 75.48 77.709 74.73 77.838 73.975L78.489 70.178 75.73 67.488C75.181 66.954 74.987 66.169 75.224 65.439 75.461 64.709 76.08 64.187 76.839 64.077L80.651 63.523 82.357 60.068C82.696 59.381 83.382 58.954 84.149 58.954 84.149 58.954 84.149 58.954 84.15 58.954 84.916 58.954 85.603 59.381 85.943 60.068L87.648 63.523 91.461 64.077C92.219 64.187 92.838 64.709 93.075 65.438 93.312 66.167 93.119 66.953 92.57 67.488L89.81 70.178 90.462 73.975C90.591 74.73 90.288 75.48 89.668 75.93 89.048 76.381 88.24 76.441 87.56 76.083L84.15 74.291 80.739 76.083C80.444 76.239 80.125 76.315 79.807 76.315zM39.544 110.978L39.554 110.978 39.544 110.978zM44.372 124.702L52.697 129.079 51.107 119.809 57.841 113.244 48.534 111.892 44.372 103.457 40.208 111.892 30.901 113.244 37.636 119.809 36.046 129.079 44.372 124.702zM52.699 131.082C52.38 131.082 52.061 131.005 51.766 130.85L44.372 126.962 36.978 130.85C36.297 131.207 35.491 131.148 34.87 130.697 34.25 130.246 33.946 129.496 34.076 128.741L35.488 120.508 29.504 114.677C28.956 114.14 28.762 113.355 29 112.625 29.237 111.896 29.855 111.375 30.614 111.265L38.88 110.064 42.579 102.572C42.917 101.885 43.604 101.457 44.372 101.457 45.139 101.457 45.826 101.885 46.166 102.573L49.862 110.064 58.129 111.265C58.888 111.375 59.507 111.897 59.744 112.626 59.981 113.355 59.787 114.141 59.238 114.677L53.255 120.508 54.668 128.742C54.797 129.496 54.494 130.246 53.874 130.697 53.523 130.952 53.112 131.082 52.699 131.082z"/>
    <polyline fill="#FACD60" points="44.372 107.976 41.537 113.72 35.199 114.641 39.785 119.111 38.703 125.424 44.372 122.443 50.041 125.424 48.958 119.111 53.544 114.641 47.206 113.72 44.372 107.976"/>
    <path fill="#434A4F" d="M99.559,155.815 L110.01,181.124 L114.483,172.128 L122.871,180.515 L124.285,179.101 L115.854,170.67 L123.507,166.078 L99.559,155.815 Z M109.842,185.955 L95.838,152.044 L127.89,165.781 L119.079,171.068 L127.113,179.101 L122.871,183.344 L115.036,175.509 L109.842,185.955 Z"/>
    <path fill="#42494E" d="M59.79,138.618 C58.135,138.618 56.79,139.963 56.79,141.618 C56.79,143.272 58.135,144.618 59.79,144.618 L120.315,144.618 L126.821,141.618 L120.314,138.618 L59.79,138.618 Z M120.754,146.618 L59.79,146.618 C57.033,146.618 54.79,144.374 54.79,141.618 C54.79,138.861 57.033,136.618 59.79,136.618 L120.753,136.618 L131.596,141.618 L120.754,146.618 Z"/>
    <polygon fill="#42494E" points="65.4 145.618 67.4 145.618 67.4 138.019 65.4 138.019"/>
    <polygon fill="#42494E" points="66.4 142.589 119.766 142.589 119.766 140.589 66.4 140.589"/>
    <path fill="#42494E" d="M220.145,149.452 L218.243,148.832 L218.573,147.821 L217.298,147.406 C215.758,146.904 214.764,145.533 214.765,143.912 C214.767,142.293 215.764,140.924 217.305,140.425 L218.581,140.012 L217.88,137.85 L216.605,138.264 C215.064,138.763 213.453,138.237 212.502,136.926 C211.551,135.614 211.553,133.921 212.506,132.612 L213.296,131.527 L211.46,130.19 L210.67,131.274 C209.716,132.583 208.107,133.108 206.566,132.604 C205.026,132.102 204.032,130.731 204.033,129.111 L204.035,127.769 L201.762,127.767 L201.761,129.109 C201.759,130.729 200.762,132.097 199.221,132.597 C197.68,133.097 196.07,132.57 195.12,131.259 L194.333,130.173 L192.493,131.507 L193.28,132.593 C194.231,133.904 194.229,135.597 193.276,136.907 C192.323,138.216 190.711,138.739 189.171,138.236 L187.896,137.821 L187.567,138.831 L185.665,138.211 L186.615,135.299 L189.791,136.335 C190.647,136.614 191.314,136.203 191.659,135.73 C192.004,135.256 192.186,134.491 191.661,133.767 L189.7,131.062 L194.778,127.38 L196.739,130.085 C197.263,130.809 198.048,130.874 198.605,130.694 C199.164,130.513 199.76,130.001 199.761,129.107 L199.764,125.765 L206.037,125.771 L206.033,129.113 C206.032,130.007 206.628,130.52 207.186,130.702 C207.746,130.886 208.529,130.82 209.053,130.097 L211.02,127.396 L216.089,131.088 L214.124,133.789 C213.597,134.512 213.777,135.277 214.122,135.752 C214.464,136.226 215.136,136.637 215.989,136.361 L219.168,135.331 L221.1,141.299 L217.92,142.327 C217.07,142.603 216.766,143.328 216.765,143.914 C216.765,144.501 217.067,145.227 217.918,145.504 L221.094,146.54 L220.145,149.452"/>
    <path fill="#E9886C" d="M210.942,146.529 L209.04,145.909 C210.146,142.514 208.285,138.851 204.89,137.744 C203.246,137.208 201.491,137.344 199.948,138.128 C198.406,138.912 197.261,140.249 196.726,141.894 L194.824,141.274 C195.526,139.121 197.024,137.371 199.042,136.345 C201.06,135.319 203.357,135.14 205.509,135.843 C209.953,137.291 212.389,142.085 210.942,146.529"/>
    <path fill="#E9886C" d="M202.914,152.313 C202.03,152.313 201.142,152.173 200.278,151.891 C195.834,150.442 193.398,145.648 194.846,141.204 L196.749,141.825 C195.641,145.22 197.502,148.882 200.897,149.99 C202.544,150.526 204.296,150.39 205.838,149.606 C207.381,148.822 208.526,147.485 209.061,145.84 L210.963,146.46 C210.261,148.613 208.763,150.363 206.745,151.389 C205.538,152.002 204.23,152.313 202.914,152.313"/>
    <path fill="#42494E" d="M206.022,161.968 L199.75,161.962 L199.753,158.62 C199.754,157.726 199.159,157.213 198.601,157.031 C198.045,156.849 197.259,156.913 196.733,157.636 L194.766,160.337 L189.697,156.645 L191.663,153.944 C192.189,153.221 192.009,152.455 191.665,151.98 C191.321,151.505 190.648,151.097 189.798,151.371 L186.62,152.401 L184.687,146.433 L187.867,145.405 C188.717,145.129 189.022,144.404 189.022,143.817 C189.023,143.231 188.72,142.506 187.871,142.228 L184.693,141.192 L185.759,137.922 L187.662,138.542 L187.214,139.911 L188.49,140.327 C190.03,140.829 191.024,142.2 191.022,143.82 C191.021,145.439 190.024,146.808 188.482,147.307 L187.207,147.721 L187.907,149.882 L189.183,149.469 C190.719,148.969 192.334,149.495 193.284,150.806 C194.235,152.118 194.233,153.811 193.28,155.121 L192.49,156.205 L194.327,157.543 L195.116,156.459 C196.069,155.149 197.676,154.628 199.221,155.129 C200.761,155.632 201.755,157.003 201.753,158.622 L201.752,159.964 L204.024,159.966 L204.025,158.625 C204.027,157.005 205.024,155.636 206.565,155.137 C208.108,154.639 209.716,155.164 210.667,156.475 L211.454,157.561 L213.294,156.227 L212.506,155.141 C211.555,153.829 211.558,152.136 212.511,150.826 C213.465,149.517 215.073,148.995 216.616,149.498 L217.891,149.914 L218.384,148.398 L220.287,149.017 L219.172,152.435 L215.996,151.4 C215.143,151.122 214.472,151.53 214.128,152.004 C213.783,152.478 213.6,153.243 214.126,153.968 L216.086,156.673 L211.008,160.354 L209.047,157.649 C208.522,156.924 207.738,156.859 207.181,157.04 C206.623,157.221 206.026,157.732 206.025,158.627 L206.022,161.968"/>
    <path fill="#FACD60" d="M206.839,143.967 C206.839,146.176 205.049,147.967 202.839,147.967 C200.63,147.967 198.839,146.176 198.839,143.967 C198.839,141.758 200.63,139.967 202.839,139.967 C205.049,139.967 206.839,141.758 206.839,143.967"/>
    <path fill="#FACD60" d="M202.839,140.467 C200.91,140.467 199.339,142.037 199.339,143.967 C199.339,145.896 200.91,147.467 202.839,147.467 C204.769,147.467 206.339,145.896 206.339,143.967 C206.339,142.037 204.769,140.467 202.839,140.467 Z M202.839,148.467 C200.358,148.467 198.339,146.448 198.339,143.967 C198.339,141.485 200.358,139.467 202.839,139.467 C205.321,139.467 207.339,141.485 207.339,143.967 C207.339,146.448 205.321,148.467 202.839,148.467 Z"/>
    <polyline fill="#FACD60" points="206.065 88.192 205.222 86.485 204.38 88.192 202.497 88.465 203.859 89.794 203.538 91.67 205.222 90.784 206.907 91.67 206.585 89.794 207.948 88.465 206.065 88.192"/>
    <path fill="#434A4F" d="M202.388,85.45 L202.398,85.45 L202.388,85.45 Z M205.222,81.967 L203.052,86.364 L198.199,87.069 L201.71,90.492 L200.881,95.326 L205.222,93.044 L209.563,95.326 L208.735,90.492 L212.246,87.069 L207.393,86.364 L205.222,81.967 Z M209.565,97.328 C209.248,97.328 208.928,97.251 208.632,97.096 L205.222,95.303 L201.812,97.096 C201.134,97.452 200.325,97.394 199.705,96.943 C199.085,96.492 198.781,95.742 198.911,94.987 L199.562,91.19 L196.802,88.501 C196.253,87.965 196.06,87.179 196.297,86.45 C196.535,85.721 197.153,85.2 197.912,85.09 L201.724,84.536 L203.429,81.081 C203.769,80.393 204.456,79.966 205.222,79.966 C205.223,79.966 205.223,79.966 205.223,79.966 C205.991,79.967 206.677,80.394 207.016,81.082 L208.721,84.536 L212.534,85.09 C213.293,85.2 213.912,85.722 214.148,86.451 C214.385,87.18 214.191,87.966 213.642,88.501 L210.883,91.19 L211.534,94.988 C211.664,95.743 211.36,96.492 210.739,96.944 C210.388,97.199 209.978,97.328 209.565,97.328 Z"/>
    <polygon fill="#434A4F" points="191.936 176.01 193.936 176.01 193.936 172.01 191.936 172.01"/>
    <polygon fill="#434A4F" points="191.936 186.01 193.936 186.01 193.936 182.01 191.936 182.01"/>
    <polygon fill="#434A4F" points="195.936 180.01 199.936 180.01 199.936 178.01 195.936 178.01"/>
    <polygon fill="#434A4F" points="185.936 180.01 189.936 180.01 189.936 178.01 185.936 178.01"/>
    <polygon fill="#434A4F" points="203.936 62.51 205.936 62.51 205.936 58.51 203.936 58.51"/>
    <polygon fill="#434A4F" points="203.936 72.51 205.936 72.51 205.936 68.51 203.936 68.51"/>
    <polygon fill="#434A4F" points="207.936 66.51 211.936 66.51 211.936 64.51 207.936 64.51"/>
    <polygon fill="#434A4F" points="197.936 66.51 201.936 66.51 201.936 64.51 197.936 64.51"/>
    <path fill="#FACD60" d="M51.936 160.26C51.936 161.503 50.929 162.51 49.686 162.51 48.443 162.51 47.436 161.503 47.436 160.26 47.436 159.017 48.443 158.01 49.686 158.01 50.929 158.01 51.936 159.017 51.936 160.26M161.436 62.01C161.436 63.667 160.093 65.01 158.436 65.01 156.779 65.01 155.436 63.667 155.436 62.01 155.436 60.353 156.779 59.01 158.436 59.01 160.093 59.01 161.436 60.353 161.436 62.01M205.436 172.26C205.436 171.294 206.22 170.51 207.186 170.51 208.153 170.51 208.936 171.294 208.936 172.26 208.936 173.227 208.153 174.01 207.186 174.01 206.22 174.01 205.436 173.227 205.436 172.26M55.936 83.26C55.936 85.883 53.809 88.01 51.186 88.01 48.563 88.01 46.436 85.883 46.436 83.26 46.436 80.637 48.563 78.51 51.186 78.51 53.809 78.51 55.936 80.637 55.936 83.26"/>
  </g>
</svg>
