<svg xmlns="http://www.w3.org/2000/svg" width="250" height="250" viewBox="0 0 250 250">
  <g fill="none" fill-rule="evenodd">
    <polygon fill="#434A4F" points="114.864 196.99 125.679 196.99 125.679 194.99 114.864 194.99"/>
    <path fill="#DBDBD5" d="M85.196,45.482 C84.644,45.482 84.196,45.034 84.196,44.482 C84.196,43.929 84.644,43.482 85.196,43.482 C85.748,43.482 86.196,43.929 86.196,44.482 C86.196,45.034 85.748,45.482 85.196,45.482 Z M81.194,45.482 C80.642,45.482 80.194,45.034 80.194,44.482 C80.194,43.929 80.642,43.482 81.194,43.482 C81.746,43.482 82.194,43.929 82.194,44.482 C82.194,45.034 81.746,45.482 81.194,45.482 Z M77.191,45.482 C76.639,45.482 76.191,45.034 76.191,44.482 C76.191,43.929 76.639,43.482 77.191,43.482 C77.744,43.482 78.191,43.929 78.191,44.482 C78.191,45.034 77.744,45.482 77.191,45.482 Z M74.195,46.982 L166.195,46.982 L166.195,40.982 L74.195,40.982 L74.195,46.982 Z"/>
    <path fill="#75C7D0" d="M84.196,52.982 L132.195,52.982 L132.195,48.982 L84.196,48.982 L84.196,52.982 Z M74.195,55.015 L166.195,55.015 L166.195,46.986 L74.195,46.986 L74.195,55.015 Z"/>
    <polyline fill="#DBDBD5" points="191.985 147.332 176.42 140.662 173.747 142.266 181.979 150.498 179.151 153.326 171.04 145.216 169.415 148.482 176.212 164.942 181.046 155.221 188.126 162.302 191.05 159.568 183.753 152.272 191.985 147.332"/>
    <polygon fill="#DBDBD5" points="106.208 185.195 134.343 185.195 134.343 173.293 106.208 173.293"/>
    <path fill="#DBDBD5" d="M107.208,184.196 L133.343,184.196 L133.343,174.292 L107.208,174.292 L107.208,184.196 Z M105.208,186.196 L135.343,186.196 L135.343,172.292 L105.208,172.292 L105.208,186.196 Z"/>
    <polygon fill="#DBDBD5" points="144.088 151.645 150.578 151.645 150.578 147.318 144.088 147.318"/>
    <path fill="#DBDBD5" d="M145.088,150.645 L149.578,150.645 L149.578,148.318 L145.088,148.318 L145.088,150.645 Z M143.088,152.645 L151.578,152.645 L151.578,146.318 L143.088,146.318 L143.088,152.645 Z"/>
    <polygon fill="#DBDBD5" points="89.974 151.645 96.464 151.645 96.464 147.318 89.974 147.318"/>
    <path fill="#DBDBD5" d="M90.974,150.645 L95.464,150.645 L95.464,148.318 L90.974,148.318 L90.974,150.645 Z M88.974,152.645 L97.464,152.645 L97.464,146.318 L88.974,146.318 L88.974,152.645 Z"/>
    <polygon fill="#DBDBD5" points="160.322 160.303 166.812 160.303 166.812 155.976 160.322 155.976"/>
    <path fill="#DBDBD5" d="M161.322,159.303 L165.812,159.303 L165.812,156.976 L161.322,156.976 L161.322,159.303 Z M159.322,161.303 L167.812,161.303 L167.812,154.976 L159.322,154.976 L159.322,161.303 Z"/>
    <polygon fill="#DBDBD5" points="149.499 160.303 155.989 160.303 155.989 155.976 149.499 155.976"/>
    <path fill="#DBDBD5" d="M150.499,159.303 L154.989,159.303 L154.989,156.976 L150.499,156.976 L150.499,159.303 Z M148.499,161.303 L156.989,161.303 L156.989,154.976 L148.499,154.976 L148.499,161.303 Z"/>
    <polygon fill="#DBDBD5" points="138.676 160.303 145.166 160.303 145.166 155.976 138.676 155.976"/>
    <path fill="#DBDBD5" d="M139.676,159.303 L144.166,159.303 L144.166,156.976 L139.676,156.976 L139.676,159.303 Z M137.676,161.303 L146.166,161.303 L146.166,154.976 L137.676,154.976 L137.676,161.303 Z"/>
    <polygon fill="#DBDBD5" points="127.854 160.303 134.343 160.303 134.343 155.976 127.854 155.976"/>
    <path fill="#DBDBD5" d="M128.854,159.303 L133.343,159.303 L133.343,156.976 L128.854,156.976 L128.854,159.303 Z M126.854,161.303 L135.343,161.303 L135.343,154.976 L126.854,154.976 L126.854,161.303 Z"/>
    <polygon fill="#DBDBD5" points="106.208 160.303 112.698 160.303 112.698 155.976 106.208 155.976"/>
    <path fill="#DBDBD5" d="M107.208,159.303 L111.698,159.303 L111.698,156.976 L107.208,156.976 L107.208,159.303 Z M105.208,161.303 L113.698,161.303 L113.698,154.976 L105.208,154.976 L105.208,161.303 Z"/>
    <polygon fill="#DBDBD5" points="95.385 160.303 101.875 160.303 101.875 155.976 95.385 155.976"/>
    <path fill="#DBDBD5" d="M96.385,159.303 L100.875,159.303 L100.875,156.976 L96.385,156.976 L96.385,159.303 Z M94.385,161.303 L102.875,161.303 L102.875,154.976 L94.385,154.976 L94.385,161.303 Z"/>
    <polygon fill="#DBDBD5" points="84.563 160.303 91.053 160.303 91.053 155.976 84.563 155.976"/>
    <path fill="#DBDBD5" d="M85.563,159.303 L90.053,159.303 L90.053,156.976 L85.563,156.976 L85.563,159.303 Z M83.563,161.303 L92.053,161.303 L92.053,154.976 L83.563,154.976 L83.563,161.303 Z"/>
    <polygon fill="#DBDBD5" points="73.74 160.303 80.23 160.303 80.23 155.976 73.74 155.976"/>
    <path fill="#DBDBD5" d="M74.74,159.303 L79.23,159.303 L79.23,156.976 L74.74,156.976 L74.74,159.303 Z M72.74,161.303 L81.23,161.303 L81.23,154.976 L72.74,154.976 L72.74,161.303 Z"/>
    <polygon fill="#DBDBD5" points="154.911 168.961 161.4 168.961 161.4 164.635 154.911 164.635"/>
    <path fill="#DBDBD5" d="M155.911,167.961 L160.4,167.961 L160.4,165.634 L155.911,165.634 L155.911,167.961 Z M153.911,169.961 L162.4,169.961 L162.4,163.634 L153.911,163.634 L153.911,169.961 Z"/>
    <polygon fill="#DBDBD5" points="144.088 168.961 150.578 168.961 150.578 164.635 144.088 164.635"/>
    <path fill="#DBDBD5" d="M145.088,167.961 L149.578,167.961 L149.578,165.634 L145.088,165.634 L145.088,167.961 Z M143.088,169.961 L151.578,169.961 L151.578,163.634 L143.088,163.634 L143.088,169.961 Z"/>
    <polygon fill="#DBDBD5" points="133.265 168.961 139.755 168.961 139.755 164.635 133.265 164.635"/>
    <path fill="#DBDBD5" d="M134.265,167.961 L138.755,167.961 L138.755,165.634 L134.265,165.634 L134.265,167.961 Z M132.265,169.961 L140.755,169.961 L140.755,163.634 L132.265,163.634 L132.265,169.961 Z"/>
    <polygon fill="#DBDBD5" points="100.797 168.961 107.286 168.961 107.286 164.635 100.797 164.635"/>
    <path fill="#DBDBD5" d="M101.796,167.961 L106.287,167.961 L106.287,165.634 L101.796,165.634 L101.796,167.961 Z M99.796,169.961 L108.287,169.961 L108.287,163.634 L99.796,163.634 L99.796,169.961 Z"/>
    <polygon fill="#DBDBD5" points="89.974 168.961 96.464 168.961 96.464 164.635 89.974 164.635"/>
    <path fill="#DBDBD5" d="M90.974,167.961 L95.464,167.961 L95.464,165.634 L90.974,165.634 L90.974,167.961 Z M88.974,169.961 L97.464,169.961 L97.464,163.634 L88.974,163.634 L88.974,169.961 Z"/>
    <polygon fill="#DBDBD5" points="79.151 168.961 85.641 168.961 85.641 164.635 79.151 164.635"/>
    <path fill="#DBDBD5" d="M80.151,167.961 L84.641,167.961 L84.641,165.634 L80.151,165.634 L80.151,167.961 Z M78.151,169.961 L86.641,169.961 L86.641,163.634 L78.151,163.634 L78.151,169.961 Z"/>
    <path fill="#434A4F" d="M68.1,101.815 L66.1,101.815 L66.1,74.848 C66.1,73.104 67.519,71.685 69.263,71.685 L74.195,71.685 L74.195,73.685 L69.263,73.685 C68.622,73.685 68.1,74.206 68.1,74.848 L68.1,101.815"/>
    <polygon fill="#434A4F" points="171.895 102.65 173.895 102.65 173.895 97.607 171.895 97.607"/>
    <path fill="#434A4F" d="M173.895,83.607 L171.895,83.607 L171.895,74.848 C171.895,74.206 171.373,73.685 170.731,73.685 L166.195,73.685 L166.195,71.685 L170.731,71.685 C172.476,71.685 173.895,73.104 173.895,74.848 L173.895,83.607"/>
    <polygon fill="#DBDBD5" points="79.151 151.645 85.641 151.645 85.641 147.318 79.151 147.318"/>
    <path fill="#DBDBD5" d="M80.151,150.645 L84.641,150.645 L84.641,148.318 L80.151,148.318 L80.151,150.645 Z M78.151,152.645 L86.641,152.645 L86.641,146.318 L78.151,146.318 L78.151,152.645 Z"/>
    <polygon fill="#DBDBD5" points="100.797 151.645 107.286 151.645 107.286 147.318 100.797 147.318"/>
    <path fill="#DBDBD5" d="M101.796,150.645 L106.287,150.645 L106.287,148.318 L101.796,148.318 L101.796,150.645 Z M99.796,152.645 L108.287,152.645 L108.287,146.318 L99.796,146.318 L99.796,152.645 Z"/>
    <polygon fill="#DBDBD5" points="111.619 151.645 118.109 151.645 118.109 147.318 111.619 147.318"/>
    <path fill="#DBDBD5" d="M112.62,150.645 L117.109,150.645 L117.109,148.318 L112.62,148.318 L112.62,150.645 Z M110.62,152.645 L119.109,152.645 L119.109,146.318 L110.62,146.318 L110.62,152.645 Z"/>
    <polygon fill="#DBDBD5" points="122.442 151.645 128.932 151.645 128.932 147.318 122.442 147.318"/>
    <path fill="#DBDBD5" d="M123.442,150.645 L127.932,150.645 L127.932,148.318 L123.442,148.318 L123.442,150.645 Z M121.442,152.645 L129.932,152.645 L129.932,146.318 L121.442,146.318 L121.442,152.645 Z"/>
    <polygon fill="#DBDBD5" points="133.265 151.645 139.755 151.645 139.755 147.318 133.265 147.318"/>
    <path fill="#DBDBD5" d="M134.265,150.645 L138.755,150.645 L138.755,148.318 L134.265,148.318 L134.265,150.645 Z M132.265,152.645 L140.755,152.645 L140.755,146.318 L132.265,146.318 L132.265,152.645 Z"/>
    <polygon fill="#DBDBD5" points="154.911 151.645 161.4 151.645 161.4 147.318 154.911 147.318"/>
    <path fill="#DBDBD5" d="M155.911,150.645 L160.4,150.645 L160.4,148.318 L155.911,148.318 L155.911,150.645 Z M153.911,152.645 L162.4,152.645 L162.4,146.318 L153.911,146.318 L153.911,152.645 Z"/>
    <polygon fill="#DBDBD5" points="117.031 160.303 123.521 160.303 123.521 155.976 117.031 155.976"/>
    <path fill="#DBDBD5" d="M118.031,159.303 L122.521,159.303 L122.521,156.976 L118.031,156.976 L118.031,159.303 Z M116.031,161.303 L124.521,161.303 L124.521,154.976 L116.031,154.976 L116.031,161.303 Z"/>
    <polygon fill="#DBDBD5" points="111.619 168.961 118.109 168.961 118.109 164.635 111.619 164.635"/>
    <path fill="#DBDBD5" d="M112.62,167.961 L117.109,167.961 L117.109,165.634 L112.62,165.634 L112.62,167.961 Z M110.62,169.961 L119.109,169.961 L119.109,163.634 L110.62,163.634 L110.62,169.961 Z"/>
    <polygon fill="#DBDBD5" points="122.442 168.961 128.932 168.961 128.932 164.635 122.442 164.635"/>
    <path fill="#DBDBD5" d="M123.442,167.961 L127.932,167.961 L127.932,165.634 L123.442,165.634 L123.442,167.961 Z M121.442,169.961 L129.932,169.961 L129.932,163.634 L121.442,163.634 L121.442,169.961 Z"/>
    <polygon fill="#434A4F" points="64.026 188.338 75.195 188.338 75.195 186.338 64.026 186.338"/>
    <polygon fill="#434A4F" points="167.025 188.338 176.516 188.338 176.516 186.338 167.025 186.338"/>
    <polygon fill="#434A4F" points="118.108 190.501 122.435 190.501 122.435 188.501 118.108 188.501"/>
    <polyline fill="#75C7D0" points="164.195 220.898 164.109 206.324 133.635 206.502 133.721 221.077 164.195 220.898"/>
    <polygon fill="#75C7D0" points="77.945 220.988 108.42 220.988 108.42 206.413 77.945 206.413"/>
    <path fill="#434A4F" d="M159.771,207.413 C159.218,207.413 158.771,206.966 158.771,206.413 L158.771,202.243 C158.743,202.091 158.714,201.816 158.837,201.495 C161.319,195.074 162.578,188.558 162.578,182.126 L162.578,167.234 C162.578,165.824 161.412,164.531 160.083,164.465 C159.353,164.416 158.663,164.683 158.139,165.182 C157.729,165.573 157.46,166.071 157.358,166.618 L157.31,177.994 C157.308,178.545 156.86,178.99 156.31,178.99 C156.31,178.99 156.309,178.99 156.308,178.99 C155.756,178.99 155.31,178.542 155.31,177.99 L155.311,167.128 C155.311,166.905 155.327,166.682 155.358,166.463 L155.371,163.463 C155.371,162.025 154.299,160.181 152.969,160.053 C152.204,159.989 151.474,160.222 150.912,160.734 C150.357,161.239 150.038,161.958 150.038,162.707 L150.038,177.99 C150.038,178.543 149.59,178.99 149.038,178.99 C148.485,178.99 148.038,178.543 148.038,177.99 L148.038,159.484 C148.038,158.103 146.902,156.795 145.608,156.685 C144.82,156.616 144.028,156.891 143.437,157.435 C142.879,157.948 142.571,158.624 142.571,159.341 L142.571,177.99 C142.571,178.543 142.124,178.99 141.571,178.99 C141.019,178.99 140.571,178.543 140.571,177.99 L140.571,162.416 C140.571,160.991 139.576,159.761 138.256,159.554 C137.46,159.429 136.688,159.642 136.085,160.157 C135.49,160.665 135.15,161.405 135.15,162.186 L135.15,186.102 C135.15,186.655 134.702,187.102 134.15,187.102 C133.597,187.102 133.15,186.655 133.15,186.102 L133.15,179.959 C133.15,178.5 131.962,177.314 130.503,177.314 C129.794,177.314 129.128,177.59 128.628,178.093 C128.128,178.596 127.854,179.263 127.857,179.972 L127.879,184.861 C127.811,189.131 128.76,191.763 131.267,194.27 L136.142,199.974 C136.763,200.591 137.271,201.818 137.271,202.77 L137.271,206.413 C137.271,206.966 136.823,207.413 136.271,207.413 C135.719,207.413 135.271,206.966 135.271,206.413 L135.271,202.77 C135.271,202.345 134.976,201.631 134.674,201.33 L129.8,195.626 C126.953,192.784 125.802,189.646 125.879,184.849 L125.857,179.982 C125.851,178.737 126.332,177.565 127.211,176.682 C128.088,175.8 129.258,175.314 130.503,175.314 C131.486,175.314 132.398,175.62 133.15,176.143 L133.15,162.186 C133.15,160.819 133.746,159.526 134.785,158.637 C135.824,157.749 137.201,157.368 138.567,157.577 C139.343,157.699 140.055,158.021 140.655,158.486 C140.844,157.533 141.342,156.644 142.084,155.961 C143.087,155.041 144.438,154.578 145.777,154.693 C147.9,154.873 149.719,156.74 150.001,158.905 C150.91,158.259 152.034,157.948 153.159,158.063 C155.564,158.293 157.262,160.93 157.366,163.245 C158.188,162.691 159.164,162.419 160.182,162.467 C162.565,162.585 164.578,164.768 164.578,167.234 L164.578,182.126 C164.578,188.753 163.295,195.459 160.763,202.06 C160.768,202.1 160.771,202.137 160.771,202.161 L160.771,206.413 C160.771,206.966 160.323,207.413 159.771,207.413"/>
    <path fill="#434A4F" d="M138.225 181.982C137.955 181.982 137.705 181.881 137.515 181.692 137.425 181.591 137.345 181.482 137.295 181.362 137.245 181.241 137.225 181.112 137.225 180.982 137.225 180.722 137.335 180.461 137.515 180.272 137.605 180.182 137.715 180.112 137.845 180.062 138.205 179.902 138.655 179.991 138.935 180.272 139.115 180.461 139.225 180.722 139.225 180.982 139.225 181.112 139.195 181.241 139.145 181.362 139.095 181.482 139.025 181.591 138.935 181.692 138.735 181.881 138.485 181.982 138.225 181.982M145.565 181.982C145.295 181.982 145.045 181.881 144.855 181.692 144.765 181.591 144.685 181.482 144.635 181.362 144.585 181.241 144.565 181.112 144.565 180.982 144.565 180.722 144.665 180.461 144.855 180.272 145.225 179.902 145.895 179.902 146.265 180.272 146.455 180.461 146.565 180.722 146.565 180.982 146.565 181.112 146.535 181.241 146.485 181.362 146.435 181.482 146.365 181.591 146.265 181.692 146.075 181.881 145.825 181.982 145.565 181.982M152.905 181.982C152.635 181.982 152.385 181.881 152.195 181.692 152.005 181.501 151.895 181.241 151.895 180.982 151.895 180.722 152.005 180.461 152.195 180.272 152.235 180.232 152.285 180.182 152.345 180.152 152.395 180.112 152.455 180.081 152.515 180.062 152.575 180.031 152.645 180.012 152.705 180.001 153.035 179.932 153.375 180.041 153.605 180.272 153.695 180.371 153.775 180.472 153.825 180.602 153.875 180.722 153.895 180.852 153.895 180.982 153.895 181.112 153.875 181.241 153.825 181.362 153.775 181.482 153.705 181.591 153.605 181.692 153.415 181.881 153.165 181.982 152.905 181.982M160.235 181.982C159.975 181.982 159.725 181.881 159.525 181.692 159.435 181.591 159.365 181.482 159.315 181.362 159.265 181.241 159.235 181.112 159.235 180.982 159.235 180.722 159.345 180.461 159.525 180.272 159.625 180.182 159.735 180.112 159.855 180.062 160.225 179.902 160.665 179.991 160.945 180.272 161.135 180.461 161.235 180.722 161.235 180.982 161.235 181.112 161.215 181.241 161.165 181.362 161.115 181.482 161.035 181.591 160.945 181.692 160.755 181.881 160.505 181.982 160.235 181.982"/>
    <polygon fill="#434A4F" points="133.575 207.413 164.05 207.413 164.05 205.413 133.575 205.413"/>
    <path fill="#434A4F" d="M156.315 214.661C156.045 214.661 155.795 214.551 155.605 214.362 155.505 214.272 155.435 214.161 155.385 214.041 155.335 213.921 155.315 213.791 155.315 213.661 155.315 213.522 155.335 213.402 155.385 213.272 155.435 213.152 155.515 213.041 155.605 212.951 155.695 212.862 155.805 212.781 155.925 212.732 156.295 212.581 156.745 212.671 157.015 212.951 157.115 213.041 157.185 213.152 157.235 213.272 157.285 213.402 157.315 213.522 157.315 213.661 157.315 213.791 157.285 213.921 157.235 214.041 157.185 214.161 157.115 214.272 157.015 214.362 156.825 214.551 156.575 214.661 156.315 214.661M105.724 207.413C105.171 207.413 104.724 206.966 104.724 206.413L104.724 202.77C104.724 201.818 105.232 200.591 105.905 199.916L110.674 194.327C113.234 191.763 114.184 189.131 114.115 184.882L114.138 179.972C114.141 179.263 113.867 178.596 113.367 178.093 112.867 177.59 112.201 177.314 111.491 177.314 110.032 177.314 108.845 178.5 108.845 179.959L108.845 186.102C108.845 186.655 108.398 187.102 107.845 187.102 107.293 187.102 106.845 186.655 106.845 186.102L106.845 162.186C106.845 161.405 106.504 160.665 105.91 160.157 105.307 159.642 104.533 159.423 103.739 159.554 102.425 159.76 101.433 160.979 101.423 162.394L101.423 177.99C101.423 178.543 100.976 178.99 100.423 178.99 99.871 178.99 99.423 178.543 99.423 177.99L99.423 162.416C99.423 162.406 99.423 162.398 99.423 162.388L99.423 159.341C99.423 158.624 99.115 157.948 98.557 157.435 97.966 156.892 97.181 156.617 96.386 156.685 95.092 156.795 93.957 158.103 93.957 159.484L93.957 177.99C93.957 178.543 93.509 178.99 92.957 178.99 92.405 178.99 91.957 178.543 91.957 177.99L91.957 162.707C91.957 161.958 91.638 161.239 91.084 160.734 90.521 160.223 89.789 159.987 89.024 160.053 87.695 160.181 86.624 162.025 86.624 163.467L86.636 166.459C86.668 166.68 86.684 166.904 86.684 167.128L86.684 177.99C86.684 178.542 86.238 178.99 85.686 178.99 85.686 178.99 85.685 178.99 85.684 178.99 85.133 178.99 84.687 178.545 84.684 177.994L84.637 166.615C84.534 166.069 84.265 165.572 83.856 165.182 83.332 164.684 82.65 164.419 81.912 164.465 80.583 164.531 79.417 165.824 79.417 167.234L79.417 182.126C79.417 188.557 80.675 195.073 83.157 201.494 83.282 201.82 83.251 202.098 83.224 202.243L83.224 206.413C83.224 206.966 82.776 207.413 82.224 207.413 81.672 207.413 81.224 206.965 81.224 206.413L81.224 202.161C81.224 202.134 81.227 202.097 81.231 202.058 78.7 195.457 77.417 188.752 77.417 182.126L77.417 167.234C77.417 164.768 79.43 162.585 81.813 162.467 82.835 162.421 83.807 162.691 84.629 163.245 84.733 160.927 86.431 158.292 88.835 158.063 89.961 157.948 91.085 158.259 91.994 158.905 92.275 156.74 94.095 154.873 96.217 154.693 97.562 154.577 98.908 155.041 99.91 155.961 100.653 156.644 101.15 157.533 101.339 158.487 101.94 158.021 102.651 157.7 103.428 157.577 104.791 157.364 106.171 157.749 107.21 158.637 108.249 159.526 108.845 160.819 108.845 162.186L108.845 176.143C109.597 175.62 110.509 175.314 111.491 175.314 112.736 175.314 113.906 175.8 114.785 176.682 115.663 177.565 116.144 178.737 116.138 179.982L116.115 184.87C116.193 189.646 115.042 192.784 112.142 195.684L107.373 201.273C107.019 201.631 106.724 202.344 106.724 202.77L106.724 206.413C106.724 206.966 106.276 207.413 105.724 207.413"/>
    <path fill="#434A4F" d="M82.195 181.982C81.925 181.982 81.675 181.881 81.485 181.692 81.385 181.591 81.315 181.482 81.265 181.362 81.215 181.241 81.195 181.112 81.195 180.982 81.195 180.722 81.295 180.461 81.485 180.272 81.575 180.182 81.685 180.112 81.805 180.062 82.175 179.902 82.615 179.991 82.895 180.272 83.085 180.461 83.195 180.722 83.195 180.982 83.195 181.112 83.165 181.241 83.115 181.362 83.065 181.482 82.995 181.591 82.895 181.692 82.705 181.881 82.455 181.982 82.195 181.982M89.524 181.982C89.395 181.982 89.265 181.951 89.145 181.902 89.024 181.852 88.915 181.781 88.825 181.692 88.725 181.591 88.655 181.482 88.605 181.362 88.555 181.241 88.524 181.112 88.524 180.982 88.524 180.852 88.555 180.722 88.605 180.602 88.655 180.472 88.725 180.371 88.825 180.272 89.055 180.041 89.395 179.932 89.725 180.001 89.785 180.012 89.855 180.031 89.915 180.062 89.975 180.081 90.024 180.112 90.085 180.152 90.135 180.182 90.185 180.232 90.235 180.272 90.425 180.461 90.524 180.722 90.524 180.982 90.524 181.112 90.505 181.241 90.455 181.362 90.405 181.482 90.325 181.591 90.235 181.692 90.045 181.881 89.794 181.982 89.524 181.982M96.865 181.982C96.605 181.982 96.355 181.881 96.155 181.692 96.065 181.591 95.995 181.482 95.945 181.362 95.895 181.241 95.865 181.112 95.865 180.982 95.865 180.852 95.895 180.722 95.945 180.602 95.995 180.472 96.065 180.371 96.155 180.272 96.535 179.902 97.205 179.902 97.575 180.272 97.755 180.461 97.865 180.722 97.865 180.982 97.865 181.112 97.845 181.241 97.785 181.362 97.735 181.482 97.665 181.591 97.575 181.692 97.385 181.881 97.135 181.982 96.865 181.982M104.205 181.982C103.935 181.982 103.685 181.881 103.495 181.692 103.405 181.591 103.325 181.482 103.275 181.362 103.225 181.241 103.205 181.112 103.205 180.982 103.205 180.722 103.315 180.461 103.495 180.272 103.585 180.182 103.695 180.112 103.825 180.062 104.185 179.902 104.635 179.991 104.915 180.272 105.095 180.461 105.205 180.722 105.205 180.982 105.205 181.112 105.175 181.241 105.125 181.362 105.075 181.482 105.005 181.591 104.915 181.692 104.715 181.881 104.465 181.982 104.205 181.982"/>
    <polygon fill="#434A4F" points="77.945 207.413 108.42 207.413 108.42 205.413 77.945 205.413"/>
    <path fill="#434A4F" d="M85.685,214.661 C85.415,214.661 85.165,214.551 84.975,214.362 C84.885,214.272 84.815,214.161 84.765,214.041 C84.715,213.921 84.685,213.791 84.685,213.661 C84.685,213.522 84.715,213.402 84.765,213.272 C84.815,213.152 84.885,213.041 84.975,212.951 C85.255,212.671 85.695,212.581 86.065,212.732 C86.185,212.781 86.295,212.862 86.395,212.951 C86.485,213.041 86.555,213.152 86.605,213.272 C86.655,213.402 86.685,213.522 86.685,213.661 C86.685,213.791 86.655,213.921 86.605,214.041 C86.555,214.161 86.485,214.272 86.395,214.362 C86.205,214.551 85.955,214.661 85.685,214.661"/>
    <polygon fill="#42494E" points="166.378 107.556 181.363 107.556 181.363 105.556 166.378 105.556"/>
    <polygon fill="#42494E" points="56.311 107.556 74.299 107.556 74.299 105.556 56.311 105.556"/>
    <path fill="#42494E" d="M187.973,111.585 L166.378,111.584 L166.378,109.584 L187.973,109.585 C189.628,109.585 190.973,108.24 190.973,106.585 C190.973,104.931 189.628,103.585 187.973,103.585 L166.378,103.585 L166.378,101.585 L187.973,101.585 C190.73,101.585 192.973,103.828 192.973,106.585 C192.973,109.342 190.73,111.585 187.973,111.585"/>
    <polygon fill="#42494E" points="180.363 110.585 182.363 110.585 182.363 102.987 180.363 102.987"/>
    <polyline fill="#42494E" points="74.299 111.585 55.323 111.584 44.48 106.584 55.323 101.585 74.299 101.585 74.299 103.585 55.762 103.585 49.256 106.584 55.762 109.584 74.299 109.585 74.299 111.585"/>
    <polygon fill="#434A4F" points="165.195 79.107 167.195 79.107 167.195 40.982 165.195 40.982"/>
    <polygon fill="#434A4F" points="165.195 90.607 167.195 90.607 167.195 85.732 165.195 85.732"/>
    <polygon fill="#434A4F" points="160.195 51.982 162.195 51.982 162.195 49.982 160.195 49.982"/>
    <polygon fill="#434A4F" points="136.195 51.982 153.612 51.982 153.612 49.982 136.195 49.982"/>
    <polygon fill="#434A4F" points="77.194 51.982 82.196 51.982 82.196 49.982 77.194 49.982"/>
    <path fill="#434A4F" d="M99.192,92.982 L149.192,92.982 L149.192,56.982 L99.192,56.982 L99.192,92.982 Z M101.192,90.982 L147.192,90.982 L147.192,58.982 L101.192,58.982 L101.192,90.982 Z"/>
    <polygon fill="#E9886C" points="103.192 76.982 145.192 76.982 145.192 64.982 103.192 64.982"/>
    <polygon fill="#DBDBD5" points="109.192 88.982 145.192 88.982 145.192 84.982 109.192 84.982"/>
    <polygon fill="#434A4F" points="103.192 81.982 129.192 81.982 129.192 79.982 103.192 79.982"/>
    <polygon fill="#434A4F" points="103.192 62.981 129.192 62.981 129.192 60.981 103.192 60.981"/>
    <polygon fill="#434A4F" points="103.192 120.004 129.192 120.004 129.192 118.004 103.192 118.004"/>
    <polygon fill="#434A4F" points="103.192 101.004 129.192 101.004 129.192 99.004 103.192 99.004"/>
    <polygon fill="#75C7D0" points="137.196 103.982 161.196 103.982 161.196 99.982 137.196 99.982"/>
    <polygon fill="#434A4F" points="138.195 107.982 154.195 107.982 154.195 105.982 138.195 105.982"/>
    <polygon fill="#434A4F" points="138.195 111.982 154.195 111.982 154.195 109.982 138.195 109.982"/>
    <polygon fill="#434A4F" points="138.195 115.982 154.195 115.982 154.195 113.982 138.195 113.982"/>
    <path fill="#434A4F" d="M158.195 107.982C158.065 107.982 157.935 107.951 157.815 107.902 157.695 107.852 157.585 107.782 157.485 107.692 157.295 107.501 157.195 107.251 157.195 106.982 157.195 106.852 157.225 106.722 157.275 106.602 157.325 106.482 157.395 106.371 157.485 106.272 157.585 106.182 157.685 106.112 157.815 106.062 158.175 105.902 158.625 105.991 158.905 106.272 159.085 106.461 159.195 106.722 159.195 106.982 159.195 107.251 159.095 107.501 158.905 107.692 158.805 107.782 158.695 107.852 158.575 107.902 158.455 107.951 158.325 107.982 158.195 107.982M158.195 111.982C157.925 111.982 157.675 111.881 157.485 111.682 157.295 111.501 157.195 111.251 157.195 110.982 157.195 110.722 157.305 110.461 157.485 110.272 157.855 109.902 158.525 109.902 158.905 110.272 159.085 110.461 159.195 110.722 159.195 110.982 159.195 111.251 159.095 111.501 158.905 111.682 158.715 111.881 158.465 111.982 158.195 111.982M158.195 115.982C158.065 115.982 157.935 115.951 157.815 115.902 157.695 115.852 157.585 115.782 157.485 115.692 157.295 115.501 157.195 115.251 157.195 114.982 157.195 114.852 157.225 114.722 157.275 114.602 157.325 114.472 157.395 114.371 157.485 114.272 157.865 113.902 158.525 113.902 158.905 114.272 158.995 114.371 159.065 114.472 159.115 114.602 159.175 114.722 159.195 114.852 159.195 114.982 159.195 115.251 159.095 115.501 158.905 115.692 158.715 115.881 158.465 115.982 158.195 115.982M79.195 74.981L95.195 74.981 95.195 58.981 79.195 58.981 79.195 74.981zM77.195 76.981L97.195 76.981 97.195 56.981 77.195 56.981 77.195 76.981z"/>
    <path fill="#434A4F" d="M95.539,73.841 L88.24,70.599 L88.183,68.579 L89.488,67.275 C89.944,66.819 90.195,66.212 90.195,65.567 L90.195,64.396 C90.195,63.751 89.944,63.145 89.488,62.689 C89.033,62.233 88.426,61.982 87.781,61.982 L86.61,61.982 C85.965,61.982 85.358,62.233 84.902,62.689 C84.447,63.145 84.195,63.751 84.195,64.396 L84.195,65.54 C84.195,66.188 84.462,66.819 84.927,67.271 L86.252,68.559 L86.252,70.615 L78.571,73.729 L77.819,71.875 L84.152,69.308 L83.532,68.704 C82.682,67.877 82.195,66.724 82.195,65.54 L82.195,64.396 C82.195,63.217 82.654,62.109 83.488,61.275 C84.322,60.441 85.431,59.982 86.61,59.982 L87.781,59.982 C88.961,59.982 90.069,60.441 90.903,61.275 C91.736,62.109 92.195,63.217 92.195,64.396 L92.195,65.567 C92.195,66.746 91.736,67.855 90.902,68.689 L90.276,69.315 L96.351,72.013 L95.539,73.841"/>
    <polygon fill="#434A4F" points="77.195 81.982 93.195 81.982 93.195 79.982 77.195 79.982"/>
    <polygon fill="#434A4F" points="77.195 85.982 93.195 85.982 93.195 83.982 77.195 83.982"/>
    <polygon fill="#434A4F" points="77.195 89.982 93.195 89.982 93.195 87.982 77.195 87.982"/>
    <polygon fill="#434A4F" points="77.195 93.982 93.195 93.982 93.195 91.982 77.195 91.982"/>
    <polygon fill="#434A4F" points="77.195 97.982 93.195 97.982 93.195 95.982 77.195 95.982"/>
    <path fill="#434A4F" d="M155.839 127.212L166.291 152.52 170.763 143.525 179.15 151.912 180.565 150.498 172.134 142.068 179.788 137.475 155.839 127.212zM166.122 157.352L152.119 123.441 184.171 137.178 175.359 142.464 183.393 150.498 179.15 154.74 171.316 146.906 166.122 157.352zM185.278 30.923C169.358 30.923 156.406 43.875 156.406 59.795 156.406 71.518 163.408 81.99 174.243 86.478L174.923 86.759 174.857 87.492C174.662 89.621 173.686 91.488 172.223 92.824 175.238 92.391 177.99 90.949 180.117 88.658L180.476 88.272 180.997 88.349C182.414 88.56 183.854 88.666 185.278 88.666 201.198 88.666 214.15 75.715 214.15 59.795 214.15 43.875 201.198 30.923 185.278 30.923zM170.283 94.961L166.672 94.961 166.672 92.961C169.668 92.961 172.171 90.881 172.76 88.018 161.584 83.062 154.406 72.069 154.406 59.795 154.406 42.773 168.255 28.923 185.278 28.923 202.301 28.923 216.15 42.773 216.15 59.795 216.15 76.818 202.301 90.666 185.278 90.666 183.928 90.666 182.564 90.576 181.217 90.4 178.329 93.305 174.374 94.961 170.283 94.961z"/>
    <polygon fill="#434A4F" points="173.203 57.983 197.197 57.983 197.197 55.983 173.203 55.983"/>
    <polygon fill="#434A4F" points="173.203 62.133 197.197 62.133 197.197 60.133 173.203 60.133"/>
    <polygon fill="#434A4F" points="173.203 66.135 197.197 66.135 197.197 64.135 173.203 64.135"/>
    <polygon fill="#434A4F" points="200.454 127.933 202.454 127.933 202.454 123.933 200.454 123.933"/>
    <polygon fill="#434A4F" points="200.454 137.933 202.454 137.933 202.454 133.933 200.454 133.933"/>
    <polygon fill="#434A4F" points="204.454 131.933 208.454 131.933 208.454 129.933 204.454 129.933"/>
    <polygon fill="#434A4F" points="194.454 131.933 198.454 131.933 198.454 129.933 194.454 129.933"/>
    <polygon fill="#434A4F" points="41.358 187.969 43.358 187.969 43.358 183.969 41.358 183.969"/>
    <polygon fill="#434A4F" points="41.358 197.969 43.358 197.969 43.358 193.969 41.358 193.969"/>
    <polygon fill="#434A4F" points="45.358 191.969 49.358 191.969 49.358 189.969 45.358 189.969"/>
    <polygon fill="#434A4F" points="35.358 191.969 39.358 191.969 39.358 189.969 35.358 189.969"/>
    <path fill="#75C7D0" d="M185.046 123.482C185.046 125.047 183.778 126.315 182.213 126.315 180.648 126.315 179.38 125.047 179.38 123.482 179.38 121.917 180.648 120.648 182.213 120.648 183.778 120.648 185.046 121.917 185.046 123.482M63.974 64.446C63.974 66.011 62.705 67.28 61.14 67.28 59.576 67.28 58.307 66.011 58.307 64.446 58.307 62.882 59.576 61.613 61.14 61.613 62.705 61.613 63.974 62.882 63.974 64.446"/>
    <polyline fill="#434A4F" points="68.1 110.149 66.1 110.149 66.1 122.915 68.1 122.498 68.1 110.149"/>
    <path fill="#434A4F" d="M58.279 185.507L58.263 191.57C58.263 194.281 60.47 196.489 63.182 196.489L77.359 196.489 77.359 194.489 63.182 194.489C61.572 194.489 60.263 193.179 60.263 191.57L60.263 185.778 66.236 153.086C65.494 153.881 64.68 154.607 63.806 155.259L58.279 185.507M156.727 131.982L136.195 131.982C135.643 131.982 135.195 132.429 135.195 132.982 135.195 133.534 135.643 133.982 136.195 133.982L157.553 133.982 156.727 131.982"/>
    <polyline fill="#434A4F" points="167.195 130.99 167.195 97.107 165.195 97.107 165.195 130.133 167.195 130.99"/>
    <polyline fill="#434A4F" points="158.379 135.982 75.195 135.982 75.195 41.982 158.361 41.982 158.361 39.982 73.195 39.982 73.195 137.982 159.205 137.982 158.379 135.982"/>
    <polyline fill="#434A4F" points="173.747 142.266 173.895 142.413 173.895 142.177 173.747 142.266"/>
    <polyline fill="#434A4F" points="173.895 133.862 173.895 110.813 171.895 110.813 171.895 133.004 173.895 133.862"/>
    <path fill="#434A4F" d="M172.607 146.782L179.731 185.778 179.731 191.57C179.731 193.179 178.421 194.489 176.813 194.489L164.861 194.489 164.861 196.489 176.813 196.489C179.525 196.489 181.731 194.281 181.731 191.57L181.731 185.687 175.091 149.266 172.607 146.782M160.78 141.794L71.087 141.794C71.047 142.471 70.968 143.138 70.855 143.794L161.606 143.794 160.78 141.794"/>
    <polygon fill="#FACD60" points="103.192 115.004 136.195 115.004 136.195 103.004 103.192 103.004"/>
    <polygon fill="#DBDBD5" points="109.192 127.004 136.195 127.004 136.195 123.004 109.192 123.004"/>
    <polyline fill="#434A4F" points="136.195 129.004 101.192 129.004 101.192 97.004 147.192 97.004 147.192 98.982 149.192 98.982 149.192 95.004 99.192 95.004 99.192 131.004 136.195 131.004 136.195 129.004"/>
    <polyline fill="#434A4F" points="158.379 135.982 137.195 135.982 137.195 99.982 161.195 99.982 161.195 128.419 163.195 129.276 163.195 97.982 135.195 97.982 135.195 137.982 159.205 137.982 158.379 135.982"/>
    <path fill="#FACD60" d="M185.925,205.473 C185.925,206.333 185.272,207.029 184.466,207.029 C183.66,207.029 183.007,206.333 183.007,205.473 C183.007,204.614 183.66,203.918 184.466,203.918 C185.272,203.918 185.925,204.614 185.925,205.473"/>
    <path fill="#42494E" d="M53.008,123.573 C52.779,123.573 52.55,123.578 52.32,123.587 C47.746,123.765 43.516,125.713 40.407,129.073 C37.299,132.433 35.685,136.803 35.863,141.376 C36.041,145.949 37.989,150.18 41.349,153.288 C44.709,156.397 49.088,158.017 53.652,157.832 C63.094,157.464 70.476,149.485 70.109,140.043 C70.006,137.407 69.322,134.9 68.077,132.589 L67.915,132.288 L69.414,123.246 L60.203,125.163 L59.909,125.032 C57.72,124.064 55.401,123.573 53.008,123.573 Z M52.967,159.845 C48.138,159.846 43.556,158.054 39.991,154.756 C36.239,151.285 34.063,146.562 33.865,141.454 C33.666,136.347 35.468,131.467 38.939,127.715 C42.41,123.963 47.135,121.787 52.242,121.589 C55.069,121.481 57.826,121.978 60.421,123.074 L71.864,120.694 L69.999,131.946 C71.288,134.442 71.997,137.138 72.106,139.965 C72.517,150.508 64.273,159.42 53.73,159.83 C53.475,159.84 53.221,159.845 52.967,159.845 Z"/>
    <path fill="#E9886C" d="M44.123,141.865 C44.325,142.115 52.864,150.898 52.864,150.898 C52.864,150.898 61.403,142.115 61.605,141.865 L61.613,141.854 C62.363,140.919 62.814,139.734 62.814,138.443 C62.814,135.428 60.37,132.985 57.356,132.985 C55.492,132.985 53.849,133.92 52.864,135.345 C51.879,133.92 50.236,132.985 48.372,132.985 C45.358,132.985 42.914,135.428 42.914,138.443 C42.914,139.734 43.365,140.919 44.115,141.854 L44.123,141.865"/>
    <path fill="#E9886C" d="M44.895,141.228 C45.255,141.624 49.601,146.106 52.864,149.463 C56.166,146.066 60.577,141.517 60.844,141.216 C61.474,140.428 61.814,139.465 61.814,138.443 C61.814,135.985 59.814,133.985 57.356,133.985 C55.893,133.985 54.522,134.705 53.687,135.913 L52.864,137.104 L52.041,135.913 C51.206,134.705 49.835,133.985 48.373,133.985 C45.914,133.985 43.914,135.985 43.914,138.443 C43.914,139.465 44.254,140.428 44.895,141.228 Z M52.864,152.332 L52.147,151.595 C48.946,148.302 43.546,142.741 43.344,142.491 L43.307,142.442 C42.419,141.337 41.914,139.904 41.914,138.443 C41.914,134.882 44.812,131.985 48.373,131.985 C50.064,131.985 51.67,132.649 52.864,133.806 C54.058,132.649 55.665,131.985 57.356,131.985 C60.917,131.985 63.814,134.882 63.814,138.443 C63.814,139.904 63.309,141.337 62.393,142.48 C62.182,142.741 56.782,148.302 53.581,151.595 L52.864,152.332 Z"/>
  </g>
</svg>
