<svg xmlns="http://www.w3.org/2000/svg" width="250" height="250" viewBox="0 0 250 250">
  <g fill="none" fill-rule="evenodd">
    <path fill="#75C7D0" d="M120.299,132.1 C118.643,132.1 117.299,130.757 117.299,129.1 C117.299,127.444 118.643,126.1 120.299,126.1 C121.956,126.1 123.299,127.444 123.299,129.1 C123.299,130.757 121.956,132.1 120.299,132.1 Z M141.538,116.375 C140.21,118.956 137.527,120.725 134.424,120.725 C130.006,120.725 126.424,117.144 126.424,112.725 C126.424,110.358 127.458,108.238 129.092,106.773 C127.914,106.531 126.694,106.402 125.444,106.402 C115.503,106.402 107.444,114.461 107.444,124.402 C107.444,134.344 115.503,142.402 125.444,142.402 C135.385,142.402 143.444,134.344 143.444,124.402 C143.444,121.514 142.747,118.794 141.538,116.375 Z"/>
    <path fill="#FACD60" d="M125.707,213.25 C94.433,213.25 68.989,187.807 68.989,156.533 C68.989,147.572 71.089,138.827 75.104,130.918 C75.357,131.256 75.617,131.587 75.875,131.92 C75.986,132.062 76.093,132.207 76.205,132.349 C76.616,132.868 77.034,133.379 77.459,133.884 C77.55,133.991 77.644,134.095 77.735,134.201 C78.071,134.596 78.41,134.987 78.756,135.373 C78.92,135.555 79.089,135.734 79.255,135.915 C79.535,136.219 79.814,136.523 80.099,136.821 C80.287,137.018 80.479,137.211 80.669,137.405 C80.939,137.68 81.21,137.955 81.484,138.226 C81.686,138.425 81.891,138.621 82.095,138.817 C82.365,139.076 82.637,139.333 82.911,139.587 C83.123,139.783 83.337,139.977 83.551,140.171 C83.825,140.418 84.102,140.662 84.38,140.905 C84.598,141.094 84.816,141.284 85.037,141.47 C85.322,141.712 85.61,141.949 85.899,142.185 C86.117,142.364 86.335,142.543 86.555,142.719 C86.859,142.96 87.166,143.196 87.473,143.431 C87.685,143.594 87.895,143.759 88.109,143.918 C88.452,144.175 88.799,144.424 89.147,144.673 C89.33,144.805 89.511,144.94 89.696,145.069 C90.225,145.44 90.758,145.803 91.297,146.157 C91.426,146.242 91.558,146.323 91.688,146.407 C92.105,146.677 92.524,146.945 92.948,147.205 C93.164,147.338 93.384,147.466 93.602,147.597 C93.944,147.802 94.286,148.007 94.632,148.205 C94.873,148.344 95.118,148.478 95.361,148.613 C95.687,148.795 96.014,148.976 96.343,149.152 C96.599,149.289 96.857,149.422 97.115,149.555 C97.438,149.723 97.763,149.889 98.089,150.051 C98.351,150.18 98.613,150.308 98.877,150.434 C99.206,150.592 99.537,150.747 99.869,150.899 C100.131,151.02 100.394,151.139 100.659,151.256 C100.998,151.407 101.339,151.552 101.681,151.696 C101.942,151.807 102.203,151.918 102.466,152.024 C102.821,152.169 103.179,152.308 103.537,152.446 C103.789,152.543 104.04,152.643 104.293,152.737 C104.691,152.885 105.092,153.024 105.492,153.164 C105.709,153.24 105.923,153.319 106.14,153.392 C106.755,153.6 107.373,153.799 107.995,153.988 C108.088,154.016 108.182,154.041 108.275,154.069 C108.81,154.229 109.346,154.383 109.885,154.529 C110.112,154.591 110.341,154.646 110.568,154.705 C110.976,154.81 111.384,154.916 111.795,155.013 C112.054,155.075 112.315,155.131 112.575,155.19 C112.957,155.275 113.34,155.36 113.724,155.439 C113.996,155.495 114.27,155.547 114.543,155.6 C114.919,155.672 115.295,155.742 115.671,155.807 C115.951,155.855 116.231,155.901 116.511,155.945 C116.887,156.005 117.263,156.062 117.641,156.115 C117.921,156.154 118.201,156.193 118.482,156.228 C118.864,156.277 119.248,156.321 119.631,156.362 C119.908,156.392 120.184,156.423 120.462,156.45 C120.861,156.488 121.262,156.519 121.663,156.55 C121.924,156.569 122.185,156.592 122.447,156.608 C122.893,156.637 123.339,156.657 123.786,156.675 C124.005,156.685 124.223,156.698 124.442,156.705 C125.108,156.726 125.776,156.738 126.445,156.738 C127.6,156.738 128.747,156.701 129.891,156.64 C130.029,156.633 130.167,156.629 130.305,156.62 C131.389,156.556 132.467,156.461 133.54,156.343 C133.723,156.323 133.906,156.304 134.089,156.282 C135.144,156.157 136.193,156.007 137.234,155.831 C137.414,155.8 137.593,155.768 137.773,155.736 C138.828,155.548 139.876,155.339 140.915,155.1 C141.046,155.07 141.175,155.036 141.306,155.006 C142.392,154.749 143.471,154.47 144.538,154.158 C144.544,154.156 144.551,154.154 144.557,154.152 C145.626,153.839 146.681,153.492 147.729,153.125 C147.859,153.079 147.989,153.036 148.119,152.99 C149.113,152.634 150.094,152.249 151.067,151.845 C151.235,151.775 151.403,151.706 151.57,151.635 C152.525,151.228 153.47,150.798 154.404,150.345 C154.566,150.266 154.727,150.186 154.889,150.106 C155.833,149.638 156.767,149.15 157.686,148.636 C157.801,148.571 157.914,148.503 158.029,148.438 C158.986,147.895 159.931,147.332 160.859,146.739 C160.869,146.733 160.88,146.727 160.89,146.72 C161.819,146.126 162.73,145.5 163.628,144.857 C163.742,144.775 163.858,144.696 163.971,144.614 C164.823,143.996 165.657,143.352 166.479,142.691 C166.622,142.576 166.766,142.461 166.908,142.344 C167.714,141.683 168.505,141.003 169.28,140.301 C169.415,140.179 169.548,140.055 169.682,139.932 C170.465,139.212 171.234,138.473 171.983,137.711 C172.075,137.617 172.165,137.52 172.256,137.426 C173.033,136.626 173.794,135.809 174.532,134.965 C174.542,134.953 174.553,134.942 174.563,134.93 C175.303,134.083 176.018,133.208 176.716,132.317 C176.774,132.244 176.837,132.175 176.895,132.101 C180.526,139.697 182.424,148.034 182.424,156.533 C182.424,187.807 156.981,213.25 125.707,213.25"/>
    <path fill="#E9886C" d="M126.445,36.778 C157.313,36.778 182.425,61.89 182.425,92.758 C182.425,101.182 180.536,109.442 176.92,116.966 C176.868,116.899 176.811,116.836 176.758,116.768 C176.057,115.865 175.338,114.979 174.595,114.119 C174.577,114.098 174.56,114.076 174.542,114.056 C173.794,113.192 173.022,112.357 172.234,111.539 C172.135,111.435 172.037,111.33 171.937,111.227 C171.179,110.45 170.4,109.696 169.608,108.961 C169.475,108.837 169.342,108.714 169.209,108.593 C168.418,107.871 167.611,107.171 166.788,106.493 C166.654,106.382 166.519,106.274 166.385,106.165 C165.541,105.48 164.683,104.814 163.807,104.175 C163.712,104.105 163.615,104.038 163.519,103.97 C162.601,103.307 161.669,102.664 160.719,102.052 C160.71,102.047 160.702,102.041 160.693,102.035 C159.744,101.424 158.776,100.845 157.797,100.285 C157.681,100.22 157.567,100.151 157.451,100.086 C156.515,99.559 155.563,99.059 154.601,98.579 C154.442,98.5 154.284,98.421 154.125,98.343 C153.17,97.878 152.205,97.435 151.228,97.017 C151.068,96.949 150.908,96.883 150.747,96.816 C149.75,96.399 148.743,96.003 147.724,95.636 C147.606,95.594 147.488,95.555 147.37,95.513 C146.3,95.135 145.22,94.779 144.128,94.457 C144.124,94.456 144.12,94.455 144.116,94.453 C143.026,94.133 141.924,93.847 140.814,93.583 C140.682,93.552 140.551,93.518 140.419,93.487 C139.362,93.243 138.295,93.029 137.222,92.838 C137.041,92.805 136.86,92.773 136.679,92.742 C135.618,92.562 134.551,92.408 133.477,92.281 C133.293,92.259 133.109,92.239 132.926,92.219 C131.833,92.098 130.735,92.001 129.629,91.935 C129.492,91.927 129.355,91.923 129.217,91.916 C128.053,91.854 126.883,91.815 125.707,91.815 C124.568,91.815 123.436,91.852 122.307,91.911 C122.169,91.918 122.031,91.922 121.893,91.93 C120.822,91.993 119.757,92.085 118.697,92.2 C118.515,92.22 118.333,92.239 118.152,92.26 C117.108,92.381 116.07,92.528 115.038,92.699 C114.861,92.729 114.684,92.761 114.507,92.791 C113.46,92.974 112.419,93.178 111.387,93.411 C111.263,93.439 111.14,93.471 111.016,93.5 C109.942,93.749 108.875,94.02 107.82,94.323 C107.805,94.327 107.79,94.33 107.775,94.335 C106.718,94.639 105.672,94.976 104.634,95.333 C104.502,95.378 104.369,95.421 104.238,95.467 C103.25,95.814 102.274,96.187 101.306,96.581 C101.14,96.648 100.973,96.716 100.807,96.785 C99.854,97.182 98.911,97.601 97.979,98.043 C97.821,98.118 97.664,98.195 97.507,98.272 C96.56,98.73 95.622,99.208 94.699,99.712 C94.597,99.768 94.496,99.827 94.393,99.884 C93.443,100.41 92.503,100.956 91.579,101.531 C91.555,101.546 91.529,101.56 91.505,101.576 C90.58,102.152 89.674,102.757 88.779,103.38 C88.66,103.462 88.541,103.543 88.423,103.626 C87.571,104.228 86.734,104.853 85.91,105.497 C85.767,105.609 85.624,105.721 85.482,105.834 C84.671,106.479 83.874,107.143 83.093,107.829 C82.962,107.944 82.833,108.061 82.702,108.177 C81.91,108.883 81.13,109.607 80.371,110.354 C80.288,110.435 80.209,110.519 80.127,110.6 C79.355,111.368 78.599,112.154 77.864,112.963 C77.832,112.998 77.8,113.031 77.768,113.066 C77.031,113.88 76.318,114.72 75.619,115.575 C75.556,115.652 75.488,115.724 75.425,115.802 C72.167,108.592 70.465,100.734 70.465,92.758 C70.465,61.89 95.577,36.778 126.445,36.778"/>
    <path fill="#DBDBD5" d="M128.674,96.332 L128.674,98.267 L122.174,98.267 L122.174,96.334 C102.275,97.387 84.915,107.981 74.565,123.625 C74.376,123.911 77.406,127.692 77.717,127.302 C88.886,113.258 106.106,104.244 125.444,104.244 C145.32,104.244 162.958,113.767 174.089,128.486 C175.065,127.187 176.008,125.863 176.884,124.489 C166.601,108.362 148.954,97.392 128.674,96.332"/>
    <path fill="#434A4F" d="M125.444,111.402 C118.275,111.402 112.444,117.234 112.444,124.402 C112.444,131.57 118.275,137.402 125.444,137.402 C132.612,137.402 138.444,131.57 138.444,124.402 C138.444,117.234 132.612,111.402 125.444,111.402 Z M125.444,139.402 C117.173,139.402 110.444,132.674 110.444,124.402 C110.444,116.131 117.173,109.402 125.444,109.402 C133.715,109.402 140.444,116.131 140.444,124.402 C140.444,132.674 133.715,139.402 125.444,139.402 Z"/>
    <path fill="#434A4F" d="M124.414,114.405 C124.414,113.855 124.854,113.405 125.414,113.405 C125.964,113.405 126.414,113.846 126.414,114.395 C126.414,114.955 125.964,115.395 125.414,115.405 C124.864,115.405 124.414,114.955 124.414,114.405 Z M128.864,116.075 C128.354,115.865 128.104,115.275 128.314,114.765 C128.524,114.256 129.114,114.015 129.624,114.225 C130.134,114.435 130.374,115.015 130.164,115.525 C130.004,115.915 129.634,116.145 129.234,116.145 C129.114,116.145 128.984,116.125 128.864,116.075 Z M120.664,115.556 C120.454,115.045 120.694,114.466 121.204,114.245 C121.714,114.035 122.304,114.275 122.514,114.785 C122.724,115.295 122.484,115.886 121.974,116.096 C121.854,116.145 121.714,116.165 121.594,116.165 C121.204,116.165 120.834,115.935 120.664,115.556 Z M131.784,118.015 C131.394,117.625 131.394,116.995 131.784,116.596 C132.164,116.205 132.804,116.205 133.194,116.596 C133.584,116.985 133.584,117.615 133.204,118.006 C133.004,118.205 132.744,118.306 132.484,118.306 C132.234,118.306 131.974,118.205 131.784,118.015 Z M117.644,118.056 C117.254,117.665 117.254,117.035 117.644,116.645 C118.034,116.256 118.664,116.245 119.064,116.636 C119.454,117.025 119.454,117.665 119.064,118.056 C118.864,118.245 118.614,118.346 118.354,118.346 C118.094,118.346 117.844,118.256 117.644,118.056 Z M133.744,120.926 C133.534,120.415 133.774,119.825 134.284,119.615 C134.794,119.405 135.374,119.645 135.594,120.155 C135.804,120.665 135.564,121.245 135.054,121.466 C134.934,121.515 134.804,121.535 134.674,121.535 C134.284,121.535 133.914,121.306 133.744,120.926 Z M115.814,121.515 C115.304,121.306 115.064,120.725 115.274,120.216 C115.474,119.705 116.064,119.455 116.574,119.665 C117.084,119.886 117.324,120.466 117.114,120.975 C116.954,121.365 116.584,121.596 116.194,121.596 C116.064,121.596 115.934,121.575 115.814,121.515 Z M134.444,124.405 C134.444,124.395 134.444,124.386 134.444,124.386 C134.444,124.375 134.444,124.375 134.444,124.365 C134.444,123.815 134.884,123.365 135.444,123.365 C135.994,123.355 136.444,123.806 136.444,124.355 C136.444,124.365 136.444,124.375 136.444,124.375 C136.444,124.386 136.444,124.395 136.444,124.405 C136.444,124.955 135.994,125.405 135.444,125.405 C134.894,125.405 134.444,124.955 134.444,124.405 Z M114.444,124.426 C114.444,123.875 114.884,123.426 115.444,123.426 C115.994,123.426 116.444,123.865 116.444,124.415 C116.444,124.975 115.994,125.426 115.444,125.426 C114.894,125.426 114.444,124.975 114.444,124.426 Z M134.304,129.155 C133.794,128.935 133.554,128.355 133.764,127.846 C133.974,127.335 134.564,127.096 135.064,127.306 C135.584,127.515 135.824,128.096 135.614,128.605 C135.454,128.995 135.074,129.225 134.684,129.225 C134.554,129.225 134.424,129.205 134.304,129.155 Z M115.284,128.625 C115.074,128.115 115.314,127.535 115.824,127.325 C116.334,127.105 116.924,127.355 117.134,127.865 C117.344,128.375 117.104,128.955 116.594,129.165 C116.464,129.225 116.334,129.245 116.214,129.245 C115.814,129.245 115.444,129.015 115.284,128.625 Z M131.814,132.176 C131.424,131.785 131.424,131.155 131.814,130.765 C132.204,130.375 132.834,130.375 133.224,130.765 C133.614,131.155 133.614,131.785 133.224,132.176 C133.034,132.375 132.774,132.466 132.514,132.466 C132.264,132.466 132.004,132.375 131.814,132.176 Z M117.674,132.195 C117.284,131.805 117.284,131.165 117.674,130.775 C118.064,130.386 118.694,130.386 119.094,130.775 C119.474,131.165 119.484,131.795 119.094,132.185 C118.894,132.386 118.644,132.485 118.384,132.485 C118.124,132.485 117.874,132.386 117.674,132.195 Z M128.354,134.025 C128.144,133.515 128.384,132.926 128.894,132.716 C129.404,132.506 129.984,132.745 130.204,133.256 C130.414,133.765 130.174,134.346 129.664,134.565 C129.534,134.615 129.404,134.645 129.274,134.645 C128.884,134.645 128.514,134.405 128.354,134.025 Z M121.244,134.575 C120.734,134.365 120.494,133.775 120.704,133.265 C120.914,132.756 121.494,132.515 122.004,132.725 C122.524,132.935 122.764,133.515 122.554,134.025 C122.394,134.415 122.024,134.645 121.624,134.645 C121.504,134.645 121.374,134.625 121.244,134.575 Z M124.454,134.405 C124.454,133.846 124.904,133.405 125.454,133.405 C126.004,133.395 126.454,133.846 126.454,134.405 C126.454,134.955 126.004,135.395 125.454,135.405 C124.904,135.405 124.454,134.955 124.454,134.405 Z"/>
    <polyline fill="#42494E" points="82.472 167.624 81.058 166.21 100.316 146.951 101.73 148.365 82.472 167.624"/>
    <polyline fill="#42494E" points="148.897 101.198 147.483 99.784 166.273 80.995 167.687 82.409 148.897 101.198"/>
    <path fill="#42494E" d="M77.111,176.611 C75.775,176.611 74.52,176.091 73.576,175.146 C72.631,174.202 72.111,172.947 72.111,171.611 C72.111,170.275 72.631,169.02 73.576,168.076 L96.425,145.226 L97.839,146.64 L74.99,169.49 C74.423,170.056 74.111,170.809 74.111,171.611 C74.111,172.413 74.423,173.166 74.99,173.732 C76.123,174.865 78.098,174.865 79.232,173.732 L104.248,148.717 L105.663,150.131 L80.646,175.146 C79.702,176.091 78.447,176.611 77.111,176.611"/>
    <polyline fill="#42494E" points="83.907 170.472 78.534 165.099 79.948 163.685 85.321 169.058 83.907 170.472"/>
    <polyline fill="#42494E" points="152.746 103.047 151.332 101.633 169.51 83.455 171.989 76.733 165.267 79.213 144.589 99.891 143.175 98.476 164.164 77.488 175.367 73.356 171.234 84.558 152.746 103.047"/>
    <polyline fill="#42494E" points="172.888 178.681 144.336 150.131 145.75 148.717 172.888 175.853 177.13 171.611 152.16 146.64 153.574 145.226 179.958 171.611 172.888 178.681"/>
    <polyline fill="#42494E" points="97.695 102.829 91.615 96.749 81.734 91.539 75.346 75.865 77.564 73.647 93.26 80.045 98.12 90.274 106.373 98.527 104.958 99.941 96.461 91.444 91.786 81.603 78.038 76.001 77.7 76.34 83.311 90.109 92.922 95.227 99.109 101.415 97.695 102.829"/>
    <polyline fill="#42494E" points="86.939 86.953 76.462 76.133 77.898 74.742 88.376 85.562 86.939 86.953"/>
    <polyline fill="#42494E" points="92.922 96.641 91.508 95.227 96.583 90.152 97.997 91.566 92.922 96.641"/>
    <path fill="#42494E" d="M184.425 93.727L188.425 93.727 188.425 89.727 184.425 89.727 184.425 93.727zM182.425 95.727L190.425 95.727 190.425 87.727 182.425 87.727 182.425 95.727zM64.353 93.727L68.353 93.727 68.353 89.727 64.353 89.727 64.353 93.727zM62.353 95.727L70.353 95.727 70.353 87.727 62.353 87.727 62.353 95.727z"/>
    <path fill="#434A4F" d="M122.388 151.583C92.404 149.534 68.515 124.985 67.515 94.728L65.515 94.728C66.518 126.088 91.301 151.534 122.388 153.588L122.388 151.583M185.375 94.728C184.352 125.692 159.356 150.68 128.388 151.69L128.388 153.69C160.459 152.679 186.35 126.796 187.375 94.728L185.375 94.728"/>
    <path fill="#42494E" d="M123.388,154.764 L127.388,154.764 L127.388,150.764 L123.388,150.764 L123.388,154.764 Z M121.388,156.764 L129.388,156.764 L129.388,148.764 L121.388,148.764 L121.388,156.764 Z"/>
    <path fill="#434A4F" d="M128.388 31.824L128.388 33.824C158.666 34.812 183.235 58.721 185.272 88.728L187.277 88.728C185.236 57.617 159.769 32.814 128.388 31.824M122.388 31.927C91.985 33.936 67.608 58.319 65.613 88.728L67.618 88.728C69.607 59.423 93.088 35.935 122.388 33.932L122.388 31.927"/>
    <path fill="#42494E" d="M123.388 34.692L127.388 34.692 127.388 30.692 123.388 30.692 123.388 34.692zM121.388 36.692L129.388 36.692 129.388 28.692 121.388 28.692 121.388 36.692zM123.388 219.308L127.388 219.308 127.388 215.308 123.388 215.308 123.388 219.308zM121.388 221.308L129.388 221.308 129.388 213.308 121.388 213.308 121.388 221.308zM123.388 97.653L127.388 97.653 127.388 93.653 123.388 93.653 123.388 97.653zM121.388 99.653L129.388 99.653 129.388 91.653 121.388 91.653 121.388 99.653z"/>
    <path fill="#434A4F" d="M66.09,153.189 C67.771,122.91 92.106,98.58 122.388,96.912 L122.388,94.907 C91.002,96.578 65.77,121.807 64.085,153.189 L66.09,153.189"/>
    <path fill="#42494E" d="M62.851,158.189 L66.851,158.189 L66.851,154.189 L62.851,154.189 L62.851,158.189 Z M60.851,160.189 L68.851,160.189 L68.851,152.189 L60.851,152.189 L60.851,160.189 Z"/>
    <path fill="#434A4F" d="M185.324 153.189L187.329 153.189C185.633 121.596 160.069 96.245 128.388 94.883L128.388 96.883C158.965 98.242 183.632 122.699 185.324 153.189M66.057 159.189L64.057 159.189C65.407 190.889 90.775 216.472 122.388 218.156L122.388 216.151C91.878 214.471 67.404 189.786 66.057 159.189M187.357 159.189L185.357 159.189C184 189.999 159.195 214.815 128.388 216.184L128.388 218.183C160.297 216.812 185.997 191.101 187.357 159.189"/>
    <path fill="#42494E" d="M184.424,158.189 L188.424,158.189 L188.424,154.189 L184.424,154.189 L184.424,158.189 Z M182.424,160.189 L190.424,160.189 L190.424,152.189 L182.424,152.189 L182.424,160.189 Z"/>
    <path fill="#FACD60" d="M55.661,109.578 C55.661,114.273 51.855,118.079 47.16,118.079 C42.465,118.079 38.659,114.273 38.659,109.578 C38.659,104.883 42.465,101.077 47.16,101.077 C51.855,101.077 55.661,104.883 55.661,109.578"/>
    <path fill="#434A4F" d="M53.461,126.936 C52.909,126.936 52.461,126.489 52.461,125.936 L52.461,122.903 C52.461,120.899 53.289,119.002 54.793,117.559 C56.981,115.462 58.186,112.643 58.186,109.622 C58.186,106.565 56.964,103.724 54.745,101.621 C52.528,99.519 49.627,98.44 46.558,98.616 C40.903,98.918 36.33,103.593 36.148,109.258 C36.047,112.402 37.301,115.446 39.588,117.61 C41.058,119.001 41.867,120.825 41.867,122.747 L41.867,125.936 C41.867,126.489 41.419,126.936 40.867,126.936 C40.314,126.936 39.867,126.489 39.867,125.936 L39.867,122.747 C39.867,121.38 39.28,120.072 38.214,119.063 C35.511,116.507 34.029,112.909 34.149,109.193 C34.365,102.499 39.769,96.975 46.452,96.618 C50.064,96.435 53.502,97.686 56.121,100.169 C58.743,102.654 60.187,106.012 60.187,109.622 C60.187,113.193 58.763,116.525 56.178,119.003 C55.071,120.064 54.461,121.45 54.461,122.903 L54.461,125.936 C54.461,126.489 54.014,126.936 53.461,126.936"/>
    <path fill="#434A4F" d="M47.254,134.094 C46.706,134.094 46.259,133.652 46.254,133.103 C46.249,132.551 46.692,132.098 47.244,132.094 L49.933,132.068 C50.565,131.984 51.159,131.691 51.609,131.241 C52.159,130.691 52.461,129.961 52.461,129.184 L52.461,126.046 C52.461,125.493 52.909,125.046 53.461,125.046 C54.014,125.046 54.461,125.493 54.461,126.046 L54.461,129.184 C54.461,130.495 53.951,131.728 53.023,132.655 C52.245,133.435 51.211,133.934 50.115,134.06 L50.01,134.067 L47.264,134.094 C47.26,134.094 47.257,134.094 47.254,134.094"/>
    <path fill="#434A4F" d="M55.754,126.934 L38.754,126.934 C38.202,126.934 37.754,126.487 37.754,125.934 C37.754,125.382 38.202,124.934 38.754,124.934 L55.754,124.934 C56.307,124.934 56.754,125.382 56.754,125.934 C56.754,126.487 56.307,126.934 55.754,126.934"/>
    <path fill="#434A4F" d="M47.254,134.094 L44.776,134.094 C43.464,134.094 42.231,133.583 41.304,132.655 C40.377,131.727 39.867,130.495 39.867,129.184 L39.867,126.359 C39.867,125.806 40.314,125.359 40.867,125.359 C41.419,125.359 41.867,125.806 41.867,126.359 L41.867,129.184 C41.867,129.961 42.169,130.691 42.719,131.241 C43.26,131.783 44.01,132.094 44.776,132.094 L47.254,132.094 C47.806,132.094 48.254,132.541 48.254,133.094 C48.254,133.646 47.806,134.094 47.254,134.094"/>
    <polyline fill="#434A4F" points="50.269 125.936 48.269 125.936 48.269 118.603 53.48 108.686 53.48 107.516 55.48 107.516 55.48 109.181 50.269 119.097 50.269 125.936"/>
    <polyline fill="#434A4F" points="46.019 125.936 44.018 125.936 44.018 119.097 38.808 109.181 38.808 107.516 40.808 107.516 40.808 108.686 46.019 118.603 46.019 125.936"/>
    <path fill="#434A4F" d="M42.354,108.225 C42.354,107.676 42.794,107.225 43.354,107.225 C43.904,107.225 44.354,107.676 44.354,108.225 C44.354,108.775 43.904,109.225 43.354,109.225 C42.794,109.225 42.354,108.775 42.354,108.225 Z M46.354,108.225 C46.354,107.676 46.794,107.225 47.354,107.225 C47.904,107.225 48.354,107.676 48.354,108.225 C48.354,108.775 47.904,109.225 47.354,109.225 C46.794,109.225 46.354,108.775 46.354,108.225 Z M50.354,108.225 C50.354,107.676 50.794,107.225 51.354,107.225 C51.904,107.225 52.354,107.676 52.354,108.225 C52.354,108.775 51.904,109.225 51.354,109.225 C50.794,109.225 50.354,108.775 50.354,108.225 Z"/>
    <path fill="#42494E" d="M214.069,203.326 L212.167,202.707 L212.467,201.787 L211.296,201.406 C209.808,200.921 208.848,199.596 208.85,198.031 C208.851,196.467 209.814,195.143 211.302,194.662 L212.474,194.282 L211.836,192.311 L210.664,192.69 C209.175,193.172 207.619,192.666 206.701,191.398 C205.783,190.132 205.784,188.496 206.705,187.23 L207.431,186.235 L205.755,185.015 L205.03,186.012 C204.108,187.277 202.551,187.781 201.064,187.295 C199.577,186.81 198.617,185.485 198.618,183.921 L198.62,182.689 L196.547,182.686 L196.546,183.919 C196.544,185.483 195.581,186.805 194.093,187.288 C192.604,187.769 191.049,187.264 190.13,185.996 L189.407,184.999 L187.729,186.216 L188.452,187.213 C189.371,188.479 189.369,190.116 188.448,191.381 C187.526,192.646 185.97,193.146 184.483,192.665 L183.311,192.283 L183.012,193.201 L181.111,192.582 L182.03,189.762 L185.102,190.763 C185.891,191.024 186.511,190.643 186.831,190.204 C187.15,189.764 187.319,189.056 186.833,188.387 L184.936,185.77 L189.852,182.206 L191.749,184.822 C192.235,185.492 192.96,185.553 193.477,185.386 C193.993,185.218 194.545,184.744 194.546,183.917 L194.549,180.684 L200.622,180.691 L200.618,183.923 C200.617,184.751 201.168,185.225 201.685,185.393 C202.199,185.561 202.925,185.503 203.413,184.834 L205.315,182.221 L210.225,185.796 L208.322,188.408 C207.835,189.077 208.002,189.785 208.32,190.224 C208.64,190.664 209.261,191.04 210.047,190.788 L213.122,189.792 L214.994,195.569 L211.918,196.564 C211.131,196.819 210.85,197.49 210.85,198.033 C210.849,198.576 211.129,199.248 211.916,199.504 L214.988,200.506 L214.069,203.326"/>
    <path fill="#42494E" d="M205.295,200.539 L203.393,199.92 C204.44,196.708 202.679,193.242 199.467,192.195 C196.252,191.146 192.789,192.91 191.743,196.121 L189.841,195.502 C191.23,191.241 195.826,188.906 200.087,190.293 C204.348,191.682 206.684,196.279 205.295,200.539"/>
    <path fill="#42494E" d="M197.598,206.086 C196.75,206.086 195.899,205.951 195.07,205.681 C193.006,205.009 191.328,203.572 190.344,201.637 C189.361,199.701 189.19,197.499 189.863,195.434 L191.765,196.055 C191.257,197.611 191.386,199.271 192.127,200.73 C192.869,202.189 194.134,203.272 195.69,203.779 C197.246,204.288 198.906,204.158 200.365,203.417 C201.824,202.676 202.907,201.41 203.414,199.854 L205.316,200.473 C204.643,202.538 203.206,204.216 201.271,205.2 C200.114,205.788 198.86,206.086 197.598,206.086"/>
    <path fill="#42494E" d="M200.608,215.291 L194.535,215.284 L194.539,212.053 C194.539,211.224 193.988,210.75 193.472,210.582 C192.956,210.414 192.231,210.472 191.744,211.141 L189.841,213.753 L184.933,210.179 L186.834,207.566 C187.322,206.897 187.155,206.189 186.837,205.75 C186.518,205.31 185.895,204.934 185.11,205.186 L182.035,206.182 L180.164,200.404 L183.239,199.409 C184.026,199.154 184.308,198.483 184.309,197.941 C184.309,197.398 184.029,196.726 183.242,196.471 L180.169,195.468 L181.201,192.305 L183.102,192.927 L182.691,194.186 L183.862,194.569 C185.35,195.054 186.31,196.379 186.309,197.944 C186.307,199.509 185.343,200.83 183.854,201.311 L182.683,201.691 L183.322,203.663 L184.494,203.284 C185.979,202.802 187.537,203.308 188.456,204.576 C189.374,205.843 189.372,207.479 188.451,208.744 L187.727,209.739 L189.402,210.96 L190.127,209.964 C191.048,208.698 192.604,208.194 194.092,208.68 C195.58,209.165 196.54,210.49 196.539,212.055 L196.537,213.286 L198.61,213.289 L198.611,212.056 C198.613,210.492 199.576,209.169 201.064,208.687 C202.553,208.206 204.108,208.713 205.027,209.979 L205.75,210.976 L207.428,209.761 L206.705,208.763 C205.787,207.496 205.788,205.86 206.709,204.596 C207.63,203.331 209.186,202.83 210.674,203.311 L211.846,203.693 L212.302,202.293 L214.204,202.912 L213.127,206.215 L210.055,205.214 C209.266,204.953 208.645,205.334 208.326,205.772 C208.007,206.211 207.838,206.919 208.324,207.589 L210.221,210.206 L205.305,213.769 L203.408,211.153 C202.921,210.482 202.197,210.423 201.68,210.59 C201.164,210.758 200.612,211.231 200.611,212.058 L200.608,215.291"/>
    <polygon fill="#434A4F" points="52.765 178.708 54.765 178.708 54.765 174.708 52.765 174.708"/>
    <polygon fill="#434A4F" points="52.765 188.708 54.765 188.708 54.765 184.708 52.765 184.708"/>
    <polygon fill="#434A4F" points="56.765 182.708 60.765 182.708 60.765 180.708 56.765 180.708"/>
    <polygon fill="#434A4F" points="46.765 182.708 50.765 182.708 50.765 180.708 46.765 180.708"/>
    <polygon fill="#434A4F" points="196.852 112.668 198.852 112.668 198.852 108.668 196.852 108.668"/>
    <polygon fill="#434A4F" points="196.852 122.668 198.852 122.668 198.852 118.668 196.852 118.668"/>
    <polygon fill="#434A4F" points="200.852 116.668 204.852 116.668 204.852 114.668 200.852 114.668"/>
    <polygon fill="#434A4F" points="190.852 116.668 194.852 116.668 194.852 114.668 190.852 114.668"/>
    <polygon fill="#434A4F" points="207.858 152.692 209.858 152.692 209.858 148.692 207.858 148.692"/>
    <polygon fill="#434A4F" points="207.858 162.692 209.858 162.692 209.858 158.692 207.858 158.692"/>
    <polygon fill="#434A4F" points="211.858 156.692 215.858 156.692 215.858 154.692 211.858 154.692"/>
    <polygon fill="#434A4F" points="201.858 156.692 205.858 156.692 205.858 154.692 201.858 154.692"/>
    <path fill="#FACD60" d="M51.424 68.225C51.424 69.606 50.305 70.725 48.924 70.725 47.543 70.725 46.424 69.606 46.424 68.225 46.424 66.845 47.543 65.725 48.924 65.725 50.305 65.725 51.424 66.845 51.424 68.225M199.424 138.225C199.424 139.606 198.305 140.725 196.924 140.725 195.544 140.725 194.424 139.606 194.424 138.225 194.424 136.845 195.544 135.725 196.924 135.725 198.305 135.725 199.424 136.845 199.424 138.225"/>
    <path fill="#E9886C" d="M68.924,208.225 C68.924,206.569 67.581,205.225 65.924,205.225 C64.267,205.225 62.924,206.569 62.924,208.225 C62.924,209.882 64.267,211.225 65.924,211.225 C67.581,211.225 68.924,209.882 68.924,208.225"/>
    <path fill="#434A4F" d="M125.444,119.402 C122.687,119.402 120.444,121.645 120.444,124.402 C120.444,125.019 120.571,125.603 120.776,126.149 C122.135,126.367 123.179,127.493 123.278,128.889 C123.936,129.208 124.665,129.402 125.444,129.402 C128.201,129.402 130.444,127.16 130.444,124.402 C130.444,121.645 128.201,119.402 125.444,119.402"/>
  </g>
</svg>
