<svg xmlns="http://www.w3.org/2000/svg" width="250" height="250" viewBox="0 0 250 250">
  <g fill="none" fill-rule="evenodd">
    <polyline fill="#DBDBD5" points="135.766 124.809 141.118 124.809 141.115 134.885 140.522 134.885 148.648 154.896 161.127 154.896 161.13 144.821 155.778 144.821 158.828 131.3 143.062 92.466 135.766 124.809"/>
    <path fill="#DBDBD5" d="M104.091,200.256 L125.384,189.701 L146.677,200.256 L104.091,200.256 Z M168.143,210.896 L194.381,210.896 L130.993,179.476 L119.663,179.531 L117.561,180.573 L112.265,183.199 L56.387,210.896 L82.624,210.896 L95.382,204.573 L155.386,204.573 L168.143,210.896 Z"/>
    <path fill="#434A4F" d="M59.917,48.273 L59.927,48.273 L59.917,48.273 Z M56.24,40.395 C55.118,40.395 54.064,40.832 53.27,41.626 C51.633,43.264 51.633,45.929 53.27,47.566 C54.908,49.203 57.573,49.203 59.21,47.566 C60.847,45.929 60.848,43.264 59.21,41.626 C58.417,40.832 57.362,40.395 56.24,40.395 Z M56.24,50.793 C54.653,50.793 53.065,50.189 51.856,48.98 C49.439,46.563 49.439,42.629 51.856,40.212 C53.027,39.041 54.584,38.396 56.24,38.396 C57.896,38.396 59.453,39.041 60.624,40.212 C63.042,42.629 63.042,46.563 60.624,48.98 C59.416,50.189 57.828,50.793 56.24,50.793 Z"/>
    <polygon fill="#434A4F" points="61.463 45.597 119.059 45.597 119.059 43.597 61.463 43.597"/>
    <path fill="#434A4F" d="M195.428,40.395 C194.306,40.395 193.252,40.832 192.459,41.626 C190.821,43.264 190.821,45.929 192.459,47.566 C194.096,49.204 196.761,49.202 198.399,47.566 C200.036,45.929 200.036,43.264 198.399,41.626 C197.605,40.833 196.551,40.395 195.428,40.395 Z M195.428,50.793 C193.841,50.793 192.253,50.189 191.045,48.98 C188.627,46.564 188.627,42.629 191.045,40.212 C192.216,39.041 193.772,38.396 195.428,38.396 C197.085,38.396 198.642,39.041 199.813,40.212 C202.23,42.63 202.23,46.563 199.813,48.98 C198.604,50.189 197.016,50.793 195.428,50.793 Z"/>
    <polygon fill="#434A4F" points="131.609 45.597 190.631 45.597 190.631 43.597 131.609 43.597"/>
    <polyline fill="#434A4F" points="148.163 159.025 135.324 127.404 134.553 130.822 145.192 157.025 105.576 157.025 116.19 130.884 116.117 130.884 115.399 127.515 102.605 159.025 148.163 159.025"/>
    <polyline fill="#434A4F" points="131.544 53.469 130.683 53.818 144.296 87.626 143.924 89.279 192.895 209.896 168.816 209.896 156.059 178.477 94.708 178.477 81.951 209.896 57.872 209.896 107.112 88.62 106.9 87.626 120.001 54.105 119.113 53.745 54.902 211.896 83.298 211.896 96.055 180.477 154.714 180.477 167.47 211.896 195.866 211.896 131.544 53.469"/>
    <path fill="#434A4F" d="M116.926,129.884 L133.739,129.884 L143.253,87.71 L125.635,43.957 L125.041,43.957 L107.94,87.711 L116.926,129.884 Z M135.339,131.884 L115.307,131.884 L105.859,87.541 L123.676,41.957 L126.986,41.957 L145.341,87.542 L135.339,131.884 Z"/>
    <polyline fill="#434A4F" points="132.609 48.564 130.609 48.564 130.609 40.103 120.059 40.103 120.059 48.564 118.059 48.564 118.059 38.104 132.609 38.104 132.609 48.564"/>
    <path fill="#434A4F" d="M125.129,90.895 C124.026,90.895 123.129,91.793 123.129,92.895 C123.129,93.998 124.026,94.895 125.129,94.895 C126.231,94.895 127.129,93.998 127.129,92.895 C127.129,91.793 126.231,90.895 125.129,90.895 Z M125.129,96.895 C122.924,96.895 121.129,95.102 121.129,92.895 C121.129,90.689 122.924,88.895 125.129,88.895 C127.335,88.895 129.129,90.689 129.129,92.895 C129.129,95.102 127.335,96.895 125.129,96.895 Z"/>
    <polygon fill="#434A4F" points="124.129 90.895 126.129 90.895 126.129 41.957 124.129 41.957"/>
    <path fill="#42494E" d="M63.775,124.537 L61.873,123.916 L62.173,122.998 L61.002,122.617 C59.514,122.132 58.553,120.807 58.555,119.242 C58.557,117.678 59.52,116.354 61.009,115.873 L62.18,115.493 L61.542,113.521 L60.37,113.9 C58.881,114.384 57.325,113.875 56.407,112.608 C55.489,111.342 55.49,109.706 56.411,108.441 L57.136,107.445 L55.461,106.226 L54.736,107.222 C53.814,108.487 52.257,108.991 50.77,108.505 C49.283,108.021 48.323,106.696 48.324,105.132 L48.325,103.899 L46.253,103.897 L46.252,105.13 C46.25,106.694 45.287,108.017 43.799,108.499 C42.309,108.98 40.754,108.475 39.836,107.207 L39.113,106.21 L37.435,107.426 L38.158,108.424 C39.076,109.69 39.075,111.326 38.154,112.591 C37.233,113.855 35.677,114.358 34.189,113.876 L33.017,113.493 L32.718,114.412 L30.817,113.793 L31.736,110.972 L34.809,111.975 C35.594,112.229 36.217,111.853 36.537,111.414 C36.856,110.976 37.025,110.268 36.539,109.598 L34.642,106.98 L39.558,103.417 L41.455,106.033 C41.942,106.704 42.666,106.765 43.182,106.596 C43.699,106.429 44.251,105.955 44.252,105.128 L44.255,101.896 L50.327,101.901 L50.324,105.134 C50.323,105.961 50.874,106.436 51.39,106.604 C51.907,106.771 52.631,106.713 53.119,106.044 L55.021,103.433 L59.93,107.006 L58.028,109.619 C57.541,110.288 57.708,110.995 58.026,111.435 C58.345,111.874 58.966,112.249 59.754,111.998 L62.829,111.002 L64.699,116.78 L61.625,117.775 C60.837,118.03 60.556,118.701 60.555,119.244 C60.555,119.787 60.835,120.459 61.622,120.715 L64.695,121.717 L63.775,124.537"/>
    <path fill="#42494E" d="M55.001,121.75 L53.099,121.131 C53.607,119.574 53.478,117.914 52.736,116.455 C51.994,114.996 50.729,113.913 49.173,113.406 C47.617,112.898 45.957,113.027 44.498,113.77 C43.039,114.511 41.956,115.776 41.449,117.332 L39.548,116.713 C40.22,114.648 41.657,112.97 43.592,111.986 C45.527,111.003 47.728,110.833 49.793,111.504 C51.857,112.177 53.535,113.613 54.519,115.549 C55.503,117.484 55.674,119.687 55.001,121.75"/>
    <path fill="#42494E" d="M47.289,127.293 C46.457,127.293 45.61,127.164 44.776,126.893 C40.516,125.502 38.18,120.906 39.569,116.646 L41.471,117.266 C40.423,120.478 42.184,123.943 45.396,124.99 C48.608,126.038 52.074,124.276 53.121,121.065 L55.022,121.685 C53.905,125.111 50.713,127.293 47.289,127.293"/>
    <path fill="#42494E" d="M50.314,136.501 L44.241,136.495 L44.244,133.263 C44.245,132.435 43.694,131.96 43.178,131.792 C42.663,131.624 41.937,131.683 41.449,132.352 L39.547,134.965 L34.638,131.39 L36.541,128.776 C37.028,128.107 36.861,127.399 36.543,126.961 C36.224,126.521 35.602,126.143 34.815,126.396 L31.741,127.393 L29.87,121.615 L32.945,120.62 C33.733,120.365 34.014,119.694 34.014,119.151 C34.015,118.608 33.735,117.937 32.948,117.681 L29.876,116.679 L30.907,113.517 L32.808,114.136 L32.397,115.397 L33.568,115.778 C35.056,116.264 36.016,117.589 36.014,119.153 C36.013,120.718 35.05,122.04 33.561,122.522 L32.389,122.902 L33.028,124.873 L34.2,124.494 C35.691,124.012 37.245,124.521 38.162,125.787 C39.08,127.054 39.078,128.689 38.158,129.954 L37.432,130.95 L39.108,132.17 L39.833,131.174 C40.755,129.91 42.311,129.405 43.798,129.891 C45.286,130.375 46.246,131.7 46.244,133.265 L46.243,134.497 L48.316,134.499 L48.317,133.268 C48.319,131.702 49.282,130.38 50.771,129.897 C52.26,129.42 53.815,129.924 54.733,131.19 L55.456,132.188 L57.134,130.971 L56.411,129.974 C55.492,128.707 55.494,127.071 56.415,125.806 C57.337,124.54 58.893,124.039 60.381,124.521 L61.551,124.904 L62.008,123.504 L63.909,124.123 L62.833,127.426 L59.76,126.423 C58.976,126.168 58.352,126.543 58.032,126.983 C57.713,127.422 57.544,128.13 58.03,128.8 L59.927,131.416 L55.01,134.98 L53.113,132.364 C52.627,131.693 51.903,131.631 51.386,131.801 C50.87,131.968 50.318,132.441 50.317,133.27 L50.314,136.501"/>
    <path fill="#FACD60" d="M215.604,140.875 C215.604,145.57 211.798,149.376 207.103,149.376 C202.408,149.376 198.602,145.57 198.602,140.875 C198.602,136.18 202.408,132.375 207.103,132.375 C211.798,132.375 215.604,136.18 215.604,140.875"/>
    <path fill="#434A4F" d="M213.405,158.233 C212.852,158.233 212.405,157.786 212.405,157.233 L212.405,154.201 C212.405,152.197 213.233,150.299 214.737,148.856 C216.925,146.759 218.13,143.939 218.13,140.919 C218.13,137.863 216.908,135.021 214.689,132.919 C212.473,130.816 209.555,129.74 206.502,129.913 C200.846,130.215 196.273,134.89 196.091,140.555 C195.989,143.699 197.243,146.743 199.531,148.907 C201.001,150.298 201.81,152.122 201.81,154.045 L201.81,157.233 C201.81,157.786 201.363,158.233 200.81,158.233 C200.258,158.233 199.81,157.786 199.81,157.233 L199.81,154.045 C199.81,152.678 199.223,151.369 198.156,150.36 C195.453,147.804 193.971,144.206 194.093,140.49 C194.307,133.796 199.712,128.272 206.394,127.915 C210.015,127.726 213.446,128.983 216.065,131.467 C218.686,133.952 220.13,137.309 220.13,140.919 C220.13,144.49 218.706,147.821 216.122,150.3 C215.014,151.361 214.405,152.747 214.405,154.201 L214.405,157.233 C214.405,157.786 213.958,158.233 213.405,158.233"/>
    <path fill="#434A4F" d="M207.197,165.391 C206.649,165.391 206.202,164.949 206.197,164.399 C206.192,163.848 206.635,163.396 207.188,163.391 L209.877,163.366 C210.508,163.282 211.101,162.989 211.552,162.538 C212.102,161.988 212.405,161.259 212.405,160.481 L212.405,157.343 C212.405,156.79 212.852,156.343 213.405,156.343 C213.958,156.343 214.405,156.79 214.405,157.343 L214.405,160.481 C214.405,161.793 213.894,163.026 212.967,163.953 C212.186,164.732 211.153,165.232 210.057,165.358 L209.952,165.365 L207.206,165.391 C207.203,165.391 207.2,165.391 207.197,165.391"/>
    <path fill="#434A4F" d="M215.698,158.231 L198.697,158.231 C198.144,158.231 197.697,157.784 197.697,157.231 C197.697,156.679 198.144,156.231 198.697,156.231 L215.698,156.231 C216.251,156.231 216.698,156.679 216.698,157.231 C216.698,157.784 216.251,158.231 215.698,158.231"/>
    <path fill="#434A4F" d="M207.197,165.391 L204.719,165.391 C203.408,165.391 202.176,164.88 201.248,163.952 C200.335,163.04 199.81,161.774 199.81,160.481 L199.81,157.656 C199.81,157.104 200.258,156.656 200.81,156.656 C201.363,156.656 201.81,157.104 201.81,157.656 L201.81,160.481 C201.81,161.248 202.121,161.997 202.662,162.537 C203.212,163.088 203.942,163.391 204.719,163.391 L207.197,163.391 C207.75,163.391 208.197,163.838 208.197,164.391 C208.197,164.943 207.75,165.391 207.197,165.391"/>
    <polyline fill="#434A4F" points="210.212 157.233 208.212 157.233 208.212 149.901 213.424 139.983 213.424 138.813 215.424 138.813 215.424 140.478 210.212 150.396 210.212 157.233"/>
    <polyline fill="#434A4F" points="205.962 157.233 203.962 157.233 203.962 150.396 198.751 140.478 198.751 138.813 200.751 138.813 200.751 139.983 205.962 149.901 205.962 157.233"/>
    <path fill="#434A4F" d="M202.29,139.526 C202.29,138.966 202.739,138.526 203.29,138.526 C203.849,138.526 204.29,138.966 204.29,139.526 C204.29,140.076 203.849,140.526 203.29,140.526 C202.739,140.526 202.29,140.076 202.29,139.526 Z M206.29,139.526 C206.29,138.966 206.739,138.526 207.29,138.526 C207.84,138.526 208.29,138.966 208.29,139.526 C208.29,140.076 207.84,140.526 207.29,140.526 C206.739,140.526 206.29,140.076 206.29,139.526 Z M210.29,139.526 C210.29,138.966 210.739,138.526 211.29,138.526 C211.84,138.526 212.29,138.966 212.29,139.526 C212.29,140.076 211.84,140.526 211.29,140.526 C210.739,140.526 210.29,140.076 210.29,139.526 Z"/>
    <polygon fill="#434A4F" points="54.13 153.896 56.13 153.896 56.13 149.896 54.13 149.896"/>
    <polygon fill="#434A4F" points="54.13 163.896 56.13 163.896 56.13 159.896 54.13 159.896"/>
    <polygon fill="#434A4F" points="58.13 157.896 62.13 157.896 62.13 155.896 58.13 155.896"/>
    <polygon fill="#434A4F" points="48.13 157.896 52.13 157.896 52.13 155.896 48.13 155.896"/>
    <polygon fill="#434A4F" points="171.13 72.896 173.13 72.896 173.13 68.896 171.13 68.896"/>
    <polygon fill="#434A4F" points="171.13 82.896 173.13 82.896 173.13 78.896 171.13 78.896"/>
    <polygon fill="#434A4F" points="175.13 76.896 179.13 76.896 179.13 74.896 175.13 74.896"/>
    <polygon fill="#434A4F" points="165.13 76.896 169.13 76.896 169.13 74.896 165.13 74.896"/>
    <polygon fill="#434A4F" points="195.13 108.896 197.13 108.896 197.13 104.896 195.13 104.896"/>
    <polygon fill="#434A4F" points="195.13 118.896 197.13 118.896 197.13 114.896 195.13 114.896"/>
    <polygon fill="#434A4F" points="199.13 112.896 203.13 112.896 203.13 110.896 199.13 110.896"/>
    <polygon fill="#434A4F" points="189.13 112.896 193.13 112.896 193.13 110.896 189.13 110.896"/>
    <path fill="#E9886C" d="M57.13,191.896 C57.13,190.24 55.786,188.896 54.13,188.896 C52.473,188.896 51.13,190.24 51.13,191.896 C51.13,193.553 52.473,194.896 54.13,194.896 C55.786,194.896 57.13,193.553 57.13,191.896"/>
    <path fill="#FACD60" d="M165.13 107.896C165.13 106.24 163.786 104.896 162.13 104.896 160.473 104.896 159.13 106.24 159.13 107.896 159.13 109.553 160.473 110.896 162.13 110.896 163.786 110.896 165.13 109.553 165.13 107.896M69.13 83.896C69.13 82.24 67.786 80.896 66.13 80.896 64.473 80.896 63.13 82.24 63.13 83.896 63.13 85.553 64.473 86.896 66.13 86.896 67.786 86.896 69.13 85.553 69.13 83.896"/>
    <path fill="#75C7D0" d="M211.13,179.896 C211.13,178.24 209.786,176.896 208.13,176.896 C206.473,176.896 205.13,178.24 205.13,179.896 C205.13,181.553 206.473,182.896 208.13,182.896 C209.786,182.896 211.13,181.553 211.13,179.896"/>
    <polyline fill="#E9886C" points="109.454 134.834 141.212 134.835 141.215 125.4 109.456 125.4 109.454 134.834"/>
    <path fill="#434A4F" d="M142.206,136.115 L108.447,136.114 L108.45,124.039 L142.209,124.04 L142.206,136.115 Z M110.448,134.114 L140.206,134.115 L140.209,126.04 L110.449,126.039 L110.448,134.114 Z"/>
  </g>
</svg>
