<svg xmlns="http://www.w3.org/2000/svg" width="250" height="250" viewBox="0 0 250 250">
  <g fill="none" fill-rule="evenodd">
    <polygon fill="#DBDBD5" points="161.505 178.037 165.505 178.037 165.505 174.037 161.505 174.037"/>
    <polygon fill="#DBDBD5" points="113.505 142.037 165.505 142.037 165.505 138.037 113.505 138.037"/>
    <polyline fill="#DBDBD5" points="84.338 174.369 107.755 197.787 84.338 197.787 82.172 184.953 84.338 174.369"/>
    <polyline fill="#FACD60" points="84.338 198.212 84.338 174.369 60.495 174.369"/>
    <path fill="#434A4F" d="M84.752,197.212 L164.826,197.212 L164.826,56.157 L61.495,56.157 L61.495,173.955 L84.752,197.212 Z M166.826,199.212 L83.924,199.212 L59.495,174.783 L59.495,54.157 L166.826,54.157 L166.826,199.212 Z"/>
    <path fill="#42494E" d="M154.604,60.059 C151.709,54.362 153.987,47.373 159.684,44.477 C165.38,41.582 172.369,43.86 175.266,49.557 L173.482,50.463 C171.086,45.749 165.302,43.866 160.59,46.26 C155.877,48.656 153.991,54.439 156.387,59.152 L154.604,60.059"/>
    <path fill="#E9886C" d="M164.911,51.264 C164.015,51.264 163.119,51.605 162.437,52.287 C161.072,53.652 161.072,55.872 162.437,57.237 C163.802,58.601 166.022,58.601 167.387,57.237 C168.75,55.873 168.751,53.652 167.387,52.287 C166.704,51.605 165.808,51.264 164.911,51.264 Z M164.911,61.259 C163.246,61.259 161.582,60.625 160.315,59.358 C157.781,56.824 157.781,52.7 160.315,50.166 C162.85,47.632 166.974,47.631 169.508,50.166 C172.041,52.7 172.041,56.824 169.508,59.358 C168.24,60.625 166.575,61.259 164.911,61.259 Z"/>
    <path fill="#434A4F" d="M161.383,71.685 C161.643,71.685 161.906,71.705 162.172,71.747 C164.257,72.08 165.815,73.642 166.143,75.727 L166.502,78.014 L170.504,77.385 L170.144,75.097 C169.816,73.013 170.819,71.048 172.701,70.092 C174.584,69.134 176.763,69.483 178.253,70.977 L179.889,72.615 L182.756,69.754 L181.119,68.114 C179.629,66.621 179.286,64.441 180.246,62.561 C181.207,60.682 183.183,59.682 185.257,60.016 L187.545,60.38 L188.183,56.38 L185.896,56.015 C183.812,55.683 182.253,54.121 181.925,52.037 C181.597,49.952 182.601,47.986 184.482,47.03 L186.547,45.981 L184.757,42.46 L182.692,43.51 C180.81,44.466 178.632,44.119 177.142,42.625 C175.65,41.131 175.308,38.952 176.268,37.072 L177.321,35.01 L173.714,33.167 L172.66,35.229 C171.7,37.108 169.743,38.111 167.648,37.776 C165.565,37.444 164.006,35.883 163.678,33.798 L163.318,31.511 L159.317,32.14 L159.678,34.428 C160.005,36.513 159.002,38.478 157.12,39.434 C155.24,40.39 153.06,40.043 151.568,38.549 L149.933,36.909 L147.065,39.771 L148.702,41.411 C150.192,42.904 150.536,45.084 149.576,46.964 C148.616,48.845 146.644,49.85 144.565,49.51 L142.277,49.145 L141.64,53.146 L143.927,53.511 C146.011,53.843 147.569,55.403 147.898,57.488 C148.227,59.573 147.223,61.538 145.341,62.495 L143.276,63.545 L145.065,67.062 L147.129,66.013 C149.012,65.058 151.19,65.403 152.681,66.899 C154.171,68.393 154.514,70.572 153.554,72.451 L152.5,74.514 L156.107,76.356 L157.161,74.294 C157.999,72.654 159.603,71.685 161.383,71.685 Z M164.838,80.301 L164.166,76.037 C163.936,74.565 162.822,73.876 161.857,73.723 C160.89,73.569 159.62,73.876 158.942,75.204 L156.979,79.048 L149.809,75.385 L151.773,71.541 C152.45,70.215 151.955,69.003 151.265,68.311 C150.576,67.619 149.364,67.121 148.035,67.796 L144.188,69.752 L140.587,62.668 L144.435,60.712 C145.763,60.037 146.074,58.765 145.922,57.799 C145.771,56.834 145.084,55.72 143.612,55.485 L139.351,54.806 L140.617,46.856 L144.88,47.535 C146.352,47.766 147.351,46.923 147.795,46.054 C148.239,45.184 148.339,43.878 147.286,42.823 L144.237,39.768 L149.937,34.081 L152.984,37.137 C154.037,38.19 155.344,38.092 156.214,37.651 C157.085,37.208 157.934,36.211 157.701,34.738 L157.03,30.476 L164.982,29.224 L165.654,33.487 C165.886,34.959 166.999,35.647 167.964,35.802 C168.925,35.956 170.201,35.646 170.879,34.319 L172.843,30.476 L180.013,34.139 L178.049,37.982 C177.371,39.309 177.867,40.52 178.558,41.212 C179.248,41.905 180.46,42.4 181.786,41.727 L185.634,39.771 L189.236,46.858 L185.389,48.814 C184.06,49.488 183.749,50.761 183.9,51.726 C184.053,52.69 184.739,53.806 186.21,54.04 L190.472,54.72 L189.205,62.671 L184.942,61.99 C183.461,61.762 182.472,62.602 182.027,63.472 C181.583,64.342 181.482,65.647 182.535,66.702 L185.584,69.758 L179.885,75.443 L176.837,72.389 C175.784,71.334 174.478,71.431 173.607,71.874 C172.736,72.316 171.888,73.314 172.12,74.786 L172.791,79.049 L164.838,80.301 Z"/>
    <path fill="#434A4F" d="M162.935,40.867 C162.895,40.317 163.305,39.837 163.855,39.797 C164.405,39.757 164.885,40.177 164.925,40.727 C164.965,41.277 164.545,41.757 163.995,41.797 C163.975,41.797 163.955,41.797 163.925,41.797 C163.405,41.797 162.965,41.397 162.935,40.867 Z M167.685,42.057 C167.155,41.938 166.805,41.407 166.925,40.867 C167.045,40.327 167.575,39.987 168.115,40.107 C168.655,40.227 168.995,40.757 168.885,41.297 C168.775,41.767 168.365,42.087 167.905,42.087 C167.835,42.087 167.765,42.077 167.685,42.057 Z M159.095,41.987 C158.895,41.467 159.165,40.887 159.685,40.697 C160.195,40.507 160.775,40.767 160.965,41.287 C161.155,41.807 160.895,42.377 160.375,42.577 C160.265,42.617 160.145,42.637 160.035,42.637 C159.625,42.637 159.245,42.387 159.095,41.987 Z M171.155,43.357 C170.675,43.087 170.495,42.477 170.755,41.997 C171.025,41.517 171.635,41.337 172.115,41.597 C172.595,41.867 172.775,42.477 172.515,42.957 C172.335,43.287 171.985,43.477 171.635,43.477 C171.475,43.477 171.305,43.438 171.155,43.357 Z M155.735,44.147 C155.395,43.697 155.485,43.077 155.935,42.747 C156.375,42.407 156.995,42.497 157.335,42.947 C157.665,43.387 157.575,44.007 157.135,44.347 C156.955,44.477 156.745,44.547 156.535,44.547 C156.225,44.547 155.925,44.407 155.735,44.147 Z M174.105,45.567 C173.715,45.177 173.715,44.547 174.105,44.157 C174.495,43.767 175.125,43.767 175.515,44.157 C175.905,44.547 175.905,45.177 175.515,45.567 C175.325,45.767 175.065,45.857 174.805,45.857 C174.555,45.857 174.295,45.767 174.105,45.567 Z M153.105,47.157 C152.665,46.827 152.575,46.197 152.905,45.757 C152.905,45.757 152.905,45.757 152.915,45.757 C153.245,45.317 153.865,45.227 154.315,45.557 C154.755,45.897 154.845,46.517 154.505,46.957 C154.315,47.217 154.015,47.357 153.705,47.357 C153.495,47.357 153.285,47.297 153.105,47.157 Z M176.325,48.527 C176.055,48.047 176.235,47.438 176.725,47.177 C177.205,46.907 177.815,47.087 178.075,47.567 C178.345,48.057 178.165,48.657 177.685,48.927 C177.525,49.007 177.365,49.047 177.205,49.047 C176.845,49.047 176.505,48.857 176.325,48.527 Z M151.445,50.787 C150.925,50.597 150.665,50.017 150.855,49.507 C151.055,48.987 151.625,48.727 152.145,48.917 C152.665,49.107 152.925,49.688 152.735,50.207 C152.585,50.607 152.195,50.857 151.795,50.857 C151.675,50.857 151.555,50.837 151.445,50.787 Z M177.615,51.997 C177.495,51.457 177.845,50.927 178.385,50.807 C178.915,50.687 179.455,51.037 179.565,51.577 C179.685,52.117 179.345,52.647 178.805,52.767 C178.735,52.777 178.665,52.787 178.595,52.787 C178.135,52.787 177.715,52.467 177.615,51.997 Z M150.875,54.747 C150.325,54.707 149.905,54.227 149.945,53.677 C149.985,53.127 150.465,52.717 151.015,52.757 C151.565,52.797 151.985,53.267 151.945,53.817 C151.905,54.347 151.465,54.747 150.945,54.747 C150.925,54.747 150.895,54.747 150.875,54.747 Z M178.805,56.757 C178.255,56.717 177.835,56.247 177.875,55.687 C177.915,55.137 178.395,54.727 178.945,54.767 C179.495,54.807 179.915,55.287 179.875,55.837 C179.835,56.357 179.395,56.767 178.875,56.767 C178.845,56.767 178.825,56.767 178.805,56.757 Z M150.245,57.937 C150.135,57.397 150.475,56.867 151.015,56.747 C151.555,56.637 152.085,56.977 152.205,57.517 C152.315,58.057 151.975,58.587 151.435,58.707 C151.365,58.717 151.295,58.727 151.225,58.727 C150.765,58.727 150.345,58.407 150.245,57.937 Z M177.675,60.597 C177.165,60.407 176.895,59.827 177.095,59.307 C177.285,58.797 177.855,58.527 178.375,58.717 C178.895,58.917 179.155,59.487 178.965,60.007 C178.815,60.407 178.435,60.657 178.025,60.657 C177.915,60.657 177.795,60.637 177.675,60.597 Z M151.735,61.947 C151.735,61.947 151.735,61.947 151.735,61.937 C151.475,61.457 151.645,60.847 152.135,60.587 C152.615,60.317 153.225,60.497 153.495,60.987 C153.755,61.467 153.575,62.077 153.095,62.337 C152.945,62.427 152.775,62.467 152.615,62.467 C152.265,62.467 151.915,62.277 151.735,61.947 Z M175.515,63.957 C175.075,63.627 174.985,62.997 175.315,62.557 C175.645,62.117 176.275,62.027 176.715,62.357 C177.155,62.688 177.245,63.317 176.915,63.757 C176.715,64.017 176.415,64.157 176.115,64.157 C175.905,64.157 175.695,64.087 175.515,63.957 Z M154.295,65.357 C153.905,64.967 153.905,64.337 154.295,63.947 C154.685,63.557 155.325,63.557 155.715,63.947 C156.105,64.337 156.105,64.967 155.715,65.357 C155.515,65.557 155.255,65.657 155.005,65.657 C154.745,65.657 154.495,65.557 154.295,65.357 Z M172.495,66.577 C172.165,66.127 172.255,65.507 172.695,65.177 C173.135,64.847 173.765,64.927 174.095,65.377 C174.425,65.817 174.335,66.437 173.895,66.777 C173.715,66.907 173.505,66.977 173.295,66.977 C172.995,66.977 172.695,66.837 172.495,66.577 Z M157.715,67.927 C157.225,67.657 157.045,67.057 157.315,66.567 C157.575,66.087 158.185,65.907 158.675,66.167 C159.155,66.437 159.335,67.047 159.065,67.527 C158.885,67.857 158.545,68.047 158.195,68.047 C158.025,68.047 157.865,68.007 157.715,67.927 Z M168.855,68.227 C168.665,67.717 168.935,67.137 169.445,66.947 C169.965,66.757 170.545,67.017 170.735,67.537 C170.925,68.057 170.665,68.627 170.145,68.817 C170.035,68.867 169.915,68.887 169.795,68.887 C169.395,68.887 169.005,68.637 168.855,68.227 Z M161.715,69.417 C161.175,69.307 160.835,68.767 160.945,68.227 C161.065,67.687 161.595,67.347 162.135,67.467 C162.675,67.577 163.015,68.117 162.905,68.657 C162.805,69.117 162.385,69.437 161.925,69.437 C161.855,69.437 161.785,69.437 161.715,69.417 Z M164.905,68.797 C164.865,68.247 165.275,67.767 165.835,67.727 C166.375,67.687 166.855,68.107 166.895,68.657 C166.935,69.207 166.525,69.687 165.975,69.727 C165.945,69.727 165.925,69.727 165.895,69.727 C165.385,69.727 164.935,69.327 164.905,68.797 Z"/>
    <polyline fill="#FACD60" points="73.281 149.462 71.865 148.05 77.214 142.691 78.63 144.104 73.281 149.462"/>
    <polyline fill="#FACD60" points="141.09 213.115 74.701 146.622 76.117 145.208 142.506 211.701 141.09 213.115"/>
    <path fill="#42494E" d="M140.056,214.929 L146.737,217.397 L144.272,210.701 L72.844,139.16 C71.717,138.03 69.752,138.033 68.628,139.159 C67.465,140.326 67.465,142.223 68.628,143.389 L140.056,214.929 Z M150.112,220.776 L138.95,216.653 L138.795,216.498 L67.212,144.802 C65.271,142.856 65.271,139.692 67.212,137.747 C68.152,136.805 69.403,136.285 70.734,136.285 C70.735,136.285 70.735,136.285 70.735,136.285 C72.066,136.285 73.318,136.804 74.26,137.746 L145.996,209.598 L150.112,220.776 Z"/>
    <polyline fill="#FACD60" points="78.505 82.108 71.434 75.037 78.505 67.966 85.576 75.037 78.505 82.108"/>
    <polyline fill="#FACD60" points="195.35 126.191 190.446 121.287 195.35 116.382 200.255 121.287 195.35 126.191"/>
    <polygon fill="#FACD60" points="69.505 87.037 157.505 87.037 157.505 85.037 69.505 85.037"/>
    <polygon fill="#434A4F" points="71.505 95.037 103.505 95.037 103.505 93.037 71.505 93.037"/>
    <polygon fill="#434A4F" points="71.505 99.037 103.505 99.037 103.505 97.037 71.505 97.037"/>
    <path fill="#434A4F" d="M111.504,137.037 L207.504,137.037 L207.504,95.037 L111.504,95.037 L111.504,137.037 Z M109.504,139.037 L209.504,139.037 L209.504,93.037 L109.504,93.037 L109.504,139.037 Z"/>
    <polyline fill="#434A4F" points="192.918 111.037 126.09 111.037 109.797 94.744 111.211 93.33 126.918 109.037 192.09 109.037 207.797 93.33 209.211 94.744 192.918 111.037"/>
    <polygon fill="#434A4F" points="173.505 121.037 185.505 121.037 185.505 119.037 173.505 119.037"/>
    <polygon fill="#434A4F" points="173.505 125.037 185.505 125.037 185.505 123.037 173.505 123.037"/>
    <polygon fill="#FACD60" points="157.505 174.037 209.505 174.037 209.505 144.037 157.505 144.037"/>
    <path fill="#434A4F" d="M166.919,159.132 L170.409,162.623 L173.899,159.132 L170.409,155.642 L166.919,159.132 Z M170.409,165.451 L164.091,159.132 L170.409,152.813 L176.728,159.132 L170.409,165.451 Z"/>
    <polygon fill="#434A4F" points="183.505 157.037 199.505 157.037 199.505 155.037 183.505 155.037"/>
    <polygon fill="#434A4F" points="183.505 161.037 195.505 161.037 195.505 159.037 183.505 159.037"/>
    <polygon fill="#434A4F" points="64.495 199.157 66.495 199.157 66.495 195.157 64.495 195.157"/>
    <polygon fill="#434A4F" points="64.495 209.157 66.495 209.157 66.495 205.157 64.495 205.157"/>
    <polygon fill="#434A4F" points="68.495 203.157 72.495 203.157 72.495 201.157 68.495 201.157"/>
    <polygon fill="#434A4F" points="58.495 203.157 62.495 203.157 62.495 201.157 58.495 201.157"/>
    <polygon fill="#434A4F" points="112.495 37.157 114.495 37.157 114.495 33.157 112.495 33.157"/>
    <polygon fill="#434A4F" points="112.495 47.157 114.495 47.157 114.495 43.157 112.495 43.157"/>
    <polygon fill="#434A4F" points="116.495 41.157 120.495 41.157 120.495 39.157 116.495 39.157"/>
    <polygon fill="#434A4F" points="106.495 41.157 110.495 41.157 110.495 39.157 106.495 39.157"/>
    <path fill="#75C7D0" d="M46.495,186.157 C46.495,184.5 45.152,183.157 43.495,183.157 C41.838,183.157 40.495,184.5 40.495,186.157 C40.495,187.814 41.838,189.157 43.495,189.157 C45.152,189.157 46.495,187.814 46.495,186.157"/>
    <path fill="#FACD60" d="M178.495,210.157 C178.495,208.5 177.152,207.157 175.495,207.157 C173.838,207.157 172.495,208.5 172.495,210.157 C172.495,211.814 173.838,213.157 175.495,213.157 C177.152,213.157 178.495,211.814 178.495,210.157"/>
    <path fill="#E9886C" d="M49.495,103.157 C47.838,103.157 46.495,104.5 46.495,106.157 C46.495,107.814 47.838,109.157 49.495,109.157 C51.152,109.157 52.495,107.814 52.495,106.157 C52.495,104.5 51.152,103.157 49.495,103.157"/>
  </g>
</svg>
