<svg xmlns="http://www.w3.org/2000/svg" width="40" height="41" viewBox="0 0 40 41">
  <g fill="none">
    <path fill="#459DB7" d="M39.8769348,16.6988233 L30.7812711,0.474660775 C30.6290681,0.203713578 30.3569915,0.027545345 30.0543878,0.00396660381 C29.7463959,-0.0256251898 29.4559111,0.112163671 29.2668918,0.3567576 C25.9481174,4.62907399 21.4337411,4.62444346 16.6540097,4.73587906 C11.5918849,4.8541326 6.36644974,5.09560164 2.80701754,10.4669241 L12.9791449,28.2758621 C13.1025035,28.2011298 13.2108652,28.0992961 13.2903366,27.9709861 C16.324465,23.0605949 20.9713027,22.8423542 25.8906493,22.7276896 C30.8342428,22.6120969 35.9457625,22.6023908 39.7916246,17.7729154 C40.0340754,17.4677459 40.0681976,17.0400522 39.8769348,16.6988233 Z"/>
    <path fill="#444" d="M20.135054,41 C19.8202739,41 19.5135568,40.834174 19.3427176,40.5360597 L0.127034036,7.0723647 C-0.130349699,6.62449239 0.0158228103,6.04801013 0.453027109,5.78479766 C0.890222224,5.52204615 1.45343224,5.67133379 1.709916,6.11874513 L20.9255996,39.5824401 C21.1829833,40.030303 21.0368016,40.6067947 20.5996065,40.8699977 C20.4534248,40.9582025 20.2933394,41 20.135054,41 Z"/>
  </g>
</svg>
